0
SECTION
2
HEADER
9
$INSUNITS
70
1
9
$ACADVER
1
AC1014
9
$HANDSEED
5
FFFF
0
ENDSEC
0
SECTION
2
TABLES
0
TABLE
2
VPORT
5
8
100
AcDbSymbolTable
0
ENDTAB
0
TABLE
2
LTYPE
5
5
100
AcDbSymbolTable
0
LTYPE
5
14
100
AcDbSymbolTableRecord
100
AcDbLinetypeTableRecord
2
BYBLOCK
70
0
0
LTYPE
5
15
100
AcDbSymbolTableRecord
100
AcDbLinetypeTableRecord
2
BYLAYER
70
0
0
ENDTAB
0
TABLE
2
LAYER
5
2
100
AcDbSymbolTable
70
2
0
LAYER
5
50
100
AcDbSymbolTableRecord
100
AcDbLayerTableRecord
2
0
70
0
6
CONTINUOUS
0
ENDTAB
0
TABLE
2
STYLE
5
3
100
AcDbSymbolTable
70
1
0
STYLE
5
11
100
AcDbSymbolTableRecord
100
AcDbTextStyleTableRecord
2
STANDARD
70
0
0
ENDTAB
0
TABLE
2
VIEW
5
6
100
AcDbSymbolTable
70
0
0
ENDTAB
0
TABLE
2
UCS
5
7
100
AcDbSymbolTable
70
0
0
ENDTAB
0
TABLE
2
APPID
5
9
100
AcDbSymbolTable
70
2
0
APPID
5
12
100
AcDbSymbolTableRecord
100
AcDbRegAppTableRecord
2
ACAD
70
0
0
ENDTAB
0
TABLE
2
DIMSTYLE
5
A
100
AcDbSymbolTable
70
1
0
ENDTAB
0
TABLE
2
BLOCK_RECORD
5
1
100
AcDbSymbolTable
70
1
0
BLOCK_RECORD
5
1F
100
AcDbSymbolTableRecord
100
AcDbBlockTableRecord
2
*MODEL_SPACE
0
BLOCK_RECORD
5
1B
100
AcDbSymbolTableRecord
100
AcDbBlockTableRecord
2
*PAPER_SPACE
0
ENDTAB
0
ENDSEC
0
SECTION
2
BLOCKS
0
BLOCK
5
20
100
AcDbEntity
100
AcDbBlockBegin
2
*MODEL_SPACE
0
ENDBLK
5
21
100
AcDbEntity
100
AcDbBlockEnd
0
BLOCK
5
1C
100
AcDbEntity
100
AcDbBlockBegin
2
*PAPER_SPACE
0
ENDBLK
5
1D
100
AcDbEntity
100
AcDbBlockEnd
0
ENDSEC
0
SECTION
2
ENTITIES
0
SPLINE
5
100
100
AcDbEntity
8
0
100
AcDbSpline
70
1064
71
5
72
36
73
30
74
0
42
0.000000001
43
0.0000000001
44
0.0000000001
40
0
40
0
40
0
40
0
40
0
40
0
40
0.040000000000000001
40
0.080000000000000002
40
0.12
40
0.16
40
0.20000000000000001
40
0.24000000000000002
40
0.28000000000000003
40
0.32000000000000001
40
0.35999999999999999
40
0.39999999999999997
40
0.43999999999999995
40
0.47999999999999993
40
0.51999999999999991
40
0.55999999999999994
40
0.59999999999999998
40
0.64000000000000001
40
0.68000000000000005
40
0.72000000000000008
40
0.76000000000000012
40
0.80000000000000016
40
0.84000000000000019
40
0.88000000000000023
40
0.92000000000000026
40
0.9600000000000003
40
1
40
1
40
1
40
1
40
1
40
1
10
-20.585678184434077
20
-3.9768426655909188
30
0
10
-20.581312654664998
20
-3.9847433755071262
30
0
10
-20.571762316357695
20
-4.0016310410865934
30
0
10
-20.554979195721526
20
-4.0302209399106195
30
0
10
-20.527671711322707
20
-4.074877536819038
30
0
10
-20.48545804618692
20
-4.1413677432817835
30
0
10
-20.43567338510427
20
-4.2177307956548731
30
0
10
-20.379508291434956
20
-4.3021292779431404
30
0
10
-20.318775146003915
20
-4.3917777680087928
30
0
10
-20.255481473233996
20
-4.4835895045599159
30
0
10
-20.191494267048757
20
-4.5746859795290797
30
0
10
-20.12819525409623
20
-4.6629208558236881
30
0
10
-20.066071617303667
20
-4.7475016829603174
30
0
10
-20.004531508123918
20
-4.8292733898978524
30
0
10
-19.942386341465937
20
-4.9099970808416868
30
0
10
-19.878209330856549
20
-4.9918163577246544
30
0
10
-19.810730494746107
20
-5.0766690284546243
30
0
10
-19.739238234979464
20
-5.1656908064255029
30
0
10
-19.66392337917555
20
-5.2587037868821547
30
0
10
-19.585605501824865
20
-5.354612068559125
30
0
10
-19.505523748932887
20
-5.4517032442380691
30
0
10
-19.425106183740422
20
-5.5479818487556738
30
0
10
-19.345759573354798
20
-5.6414733557063181
30
0
10
-19.268633350456554
20
-5.7305660544151573
30
0
10
-19.19444612664071
20
-5.8142624492498944
30
0
10
-19.123607848683108
20
-5.8920019963401398
30
0
10
-19.069760400032106
20
-5.9492380867981947
30
0
10
-19.030981611061641
20
-5.9893565045353219
30
0
10
-19.005841312791048
20
-6.0148571433999134
30
0
10
-18.993449223227746
20
-6.0272962157132026
30
0
0
SPLINE
5
101
100
AcDbEntity
8
0
100
AcDbSpline
70
1064
71
5
72
26
73
20
74
0
42
0.000000001
43
0.0000000001
44
0.0000000001
40
0
40
0
40
0
40
0
40
0
40
0
40
0.066666666666666666
40
0.13333333333333333
40
0.20000000000000001
40
0.26666666666666666
40
0.33333333333333331
40
0.39999999999999997
40
0.46666666666666662
40
0.53333333333333333
40
0.59999999999999998
40
0.66666666666666663
40
0.73333333333333328
40
0.79999999999999993
40
0.86666666666666659
40
0.93333333333333324
40
1
40
1
40
1
40
1
40
1
40
1
10
-22.583759569510136
20
-6.4727099143466562
30
0
10
-22.600302725058071
20
-6.4732107254427556
30
0
10
-22.635883297158163
20
-6.473692801954547
30
0
10
-22.696736651670257
20
-6.4728573198709656
30
0
10
-22.792950753238664
20
-6.4686031394627079
30
0
10
-22.938499636564661
20
-6.4579599601221966
30
0
10
-23.108675941554676
20
-6.4419503708586854
30
0
10
-23.301137923011719
20
-6.4206984353920191
30
0
10
-23.511195530067695
20
-6.3945839417425807
30
0
10
-23.732774157026856
20
-6.3641318576955674
30
0
10
-23.959091912045544
20
-6.3299437957590348
30
0
10
-24.183381155066627
20
-6.2926312257936718
30
0
10
-24.399549254295483
20
-6.2527631397901908
30
0
10
-24.602908296442404
20
-6.2108172539838309
30
0
10
-24.790852928288359
20
-6.16714022861815
30
0
10
-24.962201260508266
20
-6.121966571374303
30
0
10
-25.085788071522426
20
-6.0847423688407689
30
0
10
-25.170963015589741
20
-6.056243496093094
30
0
10
-25.224430519062299
20
-6.0369880147798378
30
0
10
-25.250335312759727
20
-6.0272962157132026
30
0
0
SPLINE
5
102
100
AcDbEntity
8
0
100
AcDbSpline
70
1064
71
5
72
31
73
25
74
0
42
0.000000001
43
0.0000000001
44
0.0000000001
40
0
40
0
40
0
40
0
40
0
40
0
40
0.050000000000000003
40
0.10000000000000001
40
0.15000000000000002
40
0.20000000000000001
40
0.25
40
0.29999999999999999
40
0.34999999999999998
40
0.39999999999999997
40
0.44999999999999996
40
0.49999999999999994
40
0.54999999999999993
40
0.59999999999999998
40
0.65000000000000002
40
0.70000000000000007
40
0.75000000000000011
40
0.80000000000000016
40
0.8500000000000002
40
0.90000000000000024
40
0.95000000000000029
40
1
40
1
40
1
40
1
40
1
40
1
10
-22.121892267993736
20
1.7007472193361655
30
0
10
-22.126929912419563
20
1.6745096610258683
30
0
10
-22.137620258720759
20
1.6213871112465517
30
0
10
-22.155500935046778
20
1.5397609916634454
30
0
10
-22.18304734011603
20
1.4270256857799044
30
0
10
-22.223786891122213
20
1.2795296116386536
30
0
10
-22.271072537841302
20
1.1253914080946805
30
0
10
-22.325259515003957
20
0.96460991680193597
30
0
10
-22.386835666073726
20
0.79730618715116552
30
0
10
-22.456312607560982
20
0.62379107699336245
30
0
10
-22.534097588279391
20
0.44463651635264739
30
0
10
-22.620354429491631
20
0.26076376290865938
30
0
10
-22.71487536963183
20
0.073519157424402848
30
0
10
-22.816884798823949
20
-0.11518785837087098
30
0
10
-22.92514449217769
20
-0.30302727034912158
30
0
10
-23.038163680257203
20
-0.48749185123153649
30
0
10
-23.154362387276034
20
-0.66610283545648175
30
0
10
-23.272247702995951
20
-0.83663628663076794
30
0
10
-23.390577387402939
20
-0.99734343763439792
30
0
10
-23.508539875716746
20
-1.1472055426692795
30
0
10
-23.625666252683018
20
-1.2857476190583879
30
0
10
-23.718520419801774
20
-1.3874259296003257
30
0
10
-23.787655741482578
20
-1.4585594143142706
30
0
10
-23.833522279334939
20
-1.5037131042752869
30
0
10
-23.856399629739489
20
-1.5257227911276221
30
0
0
SPLINE
5
103
100
AcDbEntity
8
0
100
AcDbSpline
70
1064
71
5
72
26
73
20
74
0
42
0.000000001
43
0.0000000001
44
0.0000000001
40
0
40
0
40
0
40
0
40
0
40
0
40
0.066666666666666666
40
0.13333333333333333
40
0.20000000000000001
40
0.26666666666666666
40
0.33333333333333331
40
0.39999999999999997
40
0.46666666666666662
40
0.53333333333333333
40
0.59999999999999998
40
0.66666666666666663
40
0.73333333333333328
40
0.79999999999999993
40
0.86666666666666659
40
0.93333333333333324
40
1
40
1
40
1
40
1
40
1
40
1
10
-23.085001982828089
20
-1.6952004042679414
30
0
10
-23.097411887187892
20
-1.717426266245472
30
0
10
-23.122987984051708
20
-1.7626142112132053
30
0
10
-23.163621051171873
20
-1.832604875290446
30
0
10
-23.222368810079374
20
-1.9303746481300417
30
0
10
-23.303544979751909
20
-2.0600665879530666
30
0
10
-23.392475169497239
20
-2.1970766732633131
30
0
10
-23.488917308940287
20
-2.340826039660941
30
0
10
-23.592128702167248
20
-2.4899938123694514
30
0
10
-23.700899007719965
20
-2.6425796216735553
30
0
10
-23.813796091860265
20
-2.7962636108230901
30
0
10
-23.929326341042568
20
-2.9486614010047676
30
0
10
-24.04610669235975
20
-3.0976031480765305
30
0
10
-24.163032831341287
20
-3.2414289465564665
30
0
10
-24.279420054226776
20
-3.3792395640842949
30
0
10
-24.394884254127927
20
-3.510637923155413
30
0
10
-24.486383149086443
20
-3.6105677962560327
30
0
10
-24.554499115025877
20
-3.6826290728714697
30
0
10
-24.599685556381111
20
-3.7293965501652995
30
0
10
-24.622222724386745
20
-3.7524619400905128
30
0
0
SPLINE
5
104
100
AcDbEntity
8
0
100
AcDbSpline
70
1064
71
5
72
26
73
20
74
0
42
0.000000001
43
0.0000000001
44
0.0000000001
40
0
40
0
40
0
40
0
40
0
40
0
40
0.066666666666666666
40
0.13333333333333333
40
0.20000000000000001
40
0.26666666666666666
40
0.33333333333333331
40
0.39999999999999997
40
0.46666666666666662
40
0.53333333333333333
40
0.59999999999999998
40
0.66666666666666663
40
0.73333333333333328
40
0.79999999999999993
40
0.86666666666666659
40
0.93333333333333324
40
1
40
1
40
1
40
1
40
1
40
1
10
-21.158782553159384
20
-1.6952004042679414
30
0
10
-21.146372648783515
20
-1.717426266245458
30
0
10
-21.120796551892536
20
-1.7626142112131664
30
0
10
-21.080163484746876
20
-1.8326048752903785
30
0
10
-21.021415725832597
20
-1.930374648129956
30
0
10
-20.940239556182746
20
-2.060066587952988
30
0
10
-20.851309366474787
20
-2.1970766732632838
30
0
10
-20.754867227068168
20
-2.3408260396609784
30
0
10
-20.651655833866077
20
-2.4899938123695411
30
0
10
-20.542885528322145
20
-2.6425796216736748
30
0
10
-20.429988444174139
20
-2.7962636108232011
30
0
10
-20.314458194970722
20
-2.9486614010048338
30
0
10
-20.197677843624259
20
-3.0976031480765207
30
0
10
-20.080751704612677
20
-3.2414289465563861
30
0
10
-19.964364481704433
20
-3.3792395640841657
30
0
10
-19.848900281795835
20
-3.5106379231552731
30
0
10
-19.757401386849121
20
-3.6105677962559248
30
0
10
-19.689285420930734
20
-3.6826290728714079
30
0
10
-19.644098979595132
20
-3.7293965501652768
30
0
10
-19.621561811600724
20
-3.7524619400905128
30
0
0
LINE
5
105
100
AcDbEntity
8
0
100
AcDbLine
10
-23.294922606141455
20
-1.6539045439439999
30
0
11
-23.629008698266382
21
-1.5881826897554887
31
0
0
LINE
5
106
100
AcDbEntity
8
0
100
AcDbLine
10
-21.158782553159384
20
-1.6952004042679414
30
0
11
-20.948861929846014
21
-1.6539045439439999
31
0
0
LINE
5
107
100
AcDbEntity
8
0
100
AcDbLine
10
-20.614775837721087
20
-1.5881826897554887
30
0
11
-20.387384906247988
21
-1.5257227911276221
31
0
0
SPLINE
5
108
100
AcDbEntity
8
0
100
AcDbSpline
70
1064
71
5
72
26
73
20
74
0
42
0.000000001
43
0.0000000001
44
0.0000000001
40
0
40
0
40
0
40
0
40
0
40
0
40
0.066666666666666666
40
0.13333333333333333
40
0.20000000000000001
40
0.26666666666666666
40
0.33333333333333331
40
0.39999999999999997
40
0.46666666666666662
40
0.53333333333333333
40
0.59999999999999998
40
0.66666666666666663
40
0.73333333333333328
40
0.79999999999999993
40
0.86666666666666659
40
0.93333333333333324
40
1
40
1
40
1
40
1
40
1
40
1
10
-21.660024966477337
20
-6.4727099143466562
30
0
10
-21.643481810916754
20
-6.4732107254427458
30
0
10
-21.607901238795744
20
-6.4736928019545186
30
0
10
-21.547047884265655
20
-6.4728573198709167
30
0
10
-21.450833782696687
20
-6.4686031394626502
30
0
10
-21.305284899395183
20
-6.4579599601221496
30
0
10
-21.135108594438829
20
-6.441950370858688
30
0
10
-20.942646613011274
20
-6.4206984353920973
30
0
10
-20.732589005973196
20
-6.3945839417427308
30
0
10
-20.511010379017485
20
-6.3641318576957495
30
0
10
-20.284692623988388
20
-6.3299437957592026
30
0
10
-20.060403380946131
20
-6.2926312257937767
30
0
10
-19.8442352816901
20
-6.2527631397901864
30
0
10
-19.64087623951627
20
-6.2108172539837074
30
0
10
-19.452931607650363
20
-6.167140228617936
30
0
10
-19.281583275424019
20
-6.1219665713740614
30
0
10
-19.157996464420116
20
-6.0847423688405753
30
0
10
-19.072821520371011
20
-6.0562434960929803
30
0
10
-19.019354016915447
20
-6.0369880147797979
30
0
10
-18.993449223227746
20
-6.0272962157132026
30
0
0
LINE
5
109
100
AcDbEntity
8
0
100
AcDbLine
10
-20.948861929846014
20
-1.6539045439439999
30
0
11
-20.614775837721087
21
-1.5881826897554887
31
0
0
SPLINE
5
110
100
AcDbEntity
8
0
100
AcDbSpline
70
1064
71
5
72
26
73
20
74
0
42
0.000000001
43
0.0000000001
44
0.0000000001
40
0
40
0
40
0
40
0
40
0
40
0
40
0.066666666666666666
40
0.13333333333333333
40
0.20000000000000001
40
0.26666666666666666
40
0.33333333333333331
40
0.39999999999999997
40
0.46666666666666662
40
0.53333333333333333
40
0.59999999999999998
40
0.66666666666666663
40
0.73333333333333328
40
0.79999999999999993
40
0.86666666666666659
40
0.93333333333333324
40
1
40
1
40
1
40
1
40
1
40
1
10
-23.658106351553393
20
-3.9768426655909188
30
0
10
-23.668304948234873
20
-3.9760630604887921
30
0
10
-23.688945371827838
20
-3.9743389570264642
30
0
10
-23.720635716362445
20
-3.971258114129478
30
0
10
-23.764359377238264
20
-3.9661538248374901
30
0
10
-23.821504513007316
20
-3.9580761567779583
30
0
10
-23.881146725756217
20
-3.94826934466687
30
0
10
-23.943213175768271
20
-3.9367286795500798
30
0
10
-24.007473479318644
20
-3.9235159841607281
30
0
10
-24.073550897108785
20
-3.9087574229315134
30
0
10
-24.14100129277065
20
-3.8926098430702956
30
0
10
-24.209366064409547
20
-3.8752419663308424
30
0
10
-24.278225528573238
20
-3.8568155998621543
30
0
10
-24.347259032363308
20
-3.8374698467343875
30
0
10
-24.416267193096452
20
-3.8173125179753336
30
0
10
-24.485134431684163
20
-3.7964223848184249
30
0
10
-24.540073490716942
20
-3.7791649177399003
30
0
10
-24.58118421701672
20
-3.7659271819763411
30
0
10
-24.608550100514496
20
-3.7569720213309581
30
0
10
-24.622222724386745
20
-3.7524619400905128
30
0
0
SPLINE
5
111
100
AcDbEntity
8
0
100
AcDbSpline
70
1064
71
5
72
36
73
30
74
0
42
0.000000001
43
0.0000000001
44
0.0000000001
40
0
40
0
40
0
40
0
40
0
40
0
40
0.040000000000000001
40
0.080000000000000002
40
0.12
40
0.16
40
0.20000000000000001
40
0.24000000000000002
40
0.28000000000000003
40
0.32000000000000001
40
0.35999999999999999
40
0.39999999999999997
40
0.43999999999999995
40
0.47999999999999993
40
0.51999999999999991
40
0.55999999999999994
40
0.59999999999999998
40
0.64000000000000001
40
0.68000000000000005
40
0.72000000000000008
40
0.76000000000000012
40
0.80000000000000016
40
0.84000000000000019
40
0.88000000000000023
40
0.92000000000000026
40
0.9600000000000003
40
1
40
1
40
1
40
1
40
1
40
1
10
-23.658106351553393
20
-3.9768426655909188
30
0
10
-23.662471881316232
20
-3.9847433755071222
30
0
10
-23.672022219613403
20
-4.001631041086581
30
0
10
-23.688805340241714
20
-4.0302209399105999
30
0
10
-23.716112824642732
20
-4.0748775368190202
30
0
10
-23.758326489793074
20
-4.1413677432817764
30
0
10
-23.808111150891193
20
-4.2177307956548793
30
0
10
-23.864276244569979
20
-4.3021292779431501
30
0
10
-23.925009390002657
20
-4.3917777680088079
30
0
10
-23.988303062767613
20
-4.483589504559931
30
0
10
-24.052290268944503
20
-4.5746859795291002
30
0
10
-24.115589281888642
20
-4.662920855823681
30
0
10
-24.177712918675443
20
-4.7475016829602756
30
0
10
-24.239253027853014
20
-4.8292733898977689
30
0
10
-24.301398194512331
20
-4.90999708084159
30
0
10
-24.365575205125889
20
-4.9918163577245904
30
0
10
-24.433054041241977
20
-5.0766690284546234
30
0
10
-24.504546301014326
20
-5.1656908064256015
30
0
10
-24.579861156822584
20
-5.258703786882327
30
0
10
-24.65817903417517
20
-5.3546120685593186
30
0
10
-24.738260787065844
20
-5.4517032442382289
30
0
10
-24.818678352253617
20
-5.5479818487557546
30
0
10
-24.898024962631546
20
-5.6414733557062995
30
0
10
-24.975151185520609
20
-5.7305660544150454
30
0
10
-25.049338409328506
20
-5.8142624492497141
30
0
10
-25.120176687282818
20
-5.8920019963399417
30
0
10
-25.174024135937369
20
-5.9492380867980375
30
0
10
-25.212802924914982
20
-5.9893565045352277
30
0
10
-25.237943223192445
20
-6.0148571433998779
30
0
10
-25.250335312759727
20
-6.0272962157132026
30
0
0
LINE
5
112
100
AcDbEntity
8
0
100
AcDbLine
10
-22.04652790848586
20
-7.2990911122111974
30
0
11
-21.738847220127337
21
-7.2990911122111974
31
0
0
SPLINE
5
113
100
AcDbEntity
8
0
100
AcDbSpline
70
1064
71
5
72
31
73
25
74
0
42
0.000000001
43
0.0000000001
44
0.0000000001
40
0
40
0
40
0
40
0
40
0
40
0
40
0.050000000000000003
40
0.10000000000000001
40
0.15000000000000002
40
0.20000000000000001
40
0.25
40
0.29999999999999999
40
0.34999999999999998
40
0.39999999999999997
40
0.44999999999999996
40
0.49999999999999994
40
0.54999999999999993
40
0.59999999999999998
40
0.65000000000000002
40
0.70000000000000007
40
0.75000000000000011
40
0.80000000000000016
40
0.8500000000000002
40
0.90000000000000024
40
0.95000000000000029
40
1
40
1
40
1
40
1
40
1
40
1
10
-22.121892267993736
20
1.7007472193361655
30
0
10
-22.11685462355797
20
1.6745096610258585
30
0
10
-22.106164277240133
20
1.6213871112465248
30
0
10
-22.088283600898965
20
1.5397609916634021
30
0
10
-22.060737195827556
20
1.42702568577986
30
0
10
-22.019997644838373
20
1.2795296116386274
30
0
10
-21.972711998143879
20
1.1253914080946794
30
0
10
-21.91852502100252
20
0.96460991680195296
30
0
10
-21.856948869944659
20
0.79730618715118717
30
0
10
-21.787471928457947
20
0.62379107699337755
30
0
10
-21.709686947729903
20
0.44463651635265267
30
0
10
-21.623430106501189
20
0.2607637629086586
30
0
10
-21.528909166342398
20
0.073519157424405512
30
0
10
-21.426899737134363
20
-0.11518785837085996
30
0
10
-21.318640043771719
20
-0.30302727034910537
30
0
10
-21.205620855693144
20
-0.487491851231521
30
0
10
-21.089422148686506
20
-0.66610283545647164
30
0
10
-20.971536832988885
20
-0.83663628663076584
30
0
10
-20.853207148609862
20
-0.99734343763440503
30
0
10
-20.735244660321182
20
-1.1472055426692931
30
0
10
-20.61811828336668
20
-1.2857476190584034
30
0
10
-20.525264116238546
20
-1.3874259296003388
30
0
10
-20.456128794536973
20
-1.4585594143142786
30
0
10
-20.4102622566643
20
-1.5037131042752896
30
0
10
-20.387384906247988
20
-1.5257227911276221
30
0
0
SPLINE
5
114
100
AcDbEntity
8
0
100
AcDbSpline
70
1064
71
5
72
26
73
20
74
0
42
0.000000001
43
0.0000000001
44
0.0000000001
40
0
40
0
40
0
40
0
40
0
40
0
40
0.066666666666666666
40
0.13333333333333333
40
0.20000000000000001
40
0.26666666666666666
40
0.33333333333333331
40
0.39999999999999997
40
0.46666666666666662
40
0.53333333333333333
40
0.59999999999999998
40
0.66666666666666663
40
0.73333333333333328
40
0.79999999999999993
40
0.86666666666666659
40
0.93333333333333324
40
1
40
1
40
1
40
1
40
1
40
1
10
-20.585678184434077
20
-3.9768426655909188
30
0
10
-20.575479587751708
20
-3.9760630604887917
30
0
10
-20.554839164157311
20
-3.9743389570264633
30
0
10
-20.523148819621735
20
-3.9712581141294767
30
0
10
-20.479425158745499
20
-3.9661538248374888
30
0
10
-20.422280022976707
20
-3.958076156777957
30
0
10
-20.36263781022938
20
-3.9482693446668673
30
0
10
-20.300571360221003
20
-3.9367286795500824
30
0
10
-20.236311056675675
20
-3.9235159841607294
30
0
10
-20.170233638889744
20
-3.9087574229315138
30
0
10
-20.102783243228576
20
-3.8926098430702956
30
0
10
-20.034418471584964
20
-3.8752419663308415
30
0
10
-19.965559007410466
20
-3.8568155998621529
30
0
10
-19.896525503605748
20
-3.8374698467343888
30
0
10
-19.827517342859089
20
-3.8173125179753367
30
0
10
-19.758650104265257
20
-3.7964223848184284
30
0
10
-19.703711045238443
20
-3.7791649177399038
30
0
10
-19.662600318951327
20
-3.7659271819763434
30
0
10
-19.635234435465851
20
-3.756972021330959
30
0
10
-19.621561811600724
20
-3.7524619400905128
30
0
0
LINE
5
115
100
AcDbEntity
8
0
100
AcDbLine
10
-23.629008698266382
20
-1.5881826897554887
30
0
11
-23.856399629739489
21
-1.5257227911276221
31
0
0
LINE
5
116
100
AcDbEntity
8
0
100
AcDbLine
10
-22.197256627501613
20
-7.2990911122111974
30
0
11
-22.504937315860133
21
-7.2990911122111974
31
0
0
ARC
5
117
100
AcDbEntity
8
0
100
AcDbCircle
10
-22.504937315860133
20
-7.2202688585611954
30
0
40
0.07882225365000485
100
AcDbArc
50
180
51
270
0
LINE
5
118
100
AcDbEntity
8
0
100
AcDbLine
10
-22.583759569510139
20
-7.2202688585611954
30
0
11
-22.583759569510136
21
-6.4727099143466562
31
0
0
LINE
5
119
100
AcDbEntity
8
0
100
AcDbLine
10
-21.660024966477334
20
-7.2202688585611954
30
0
11
-21.660024966477337
21
-6.4727099143466562
31
0
0
ARC
5
120
100
AcDbEntity
8
0
100
AcDbCircle
10
-21.738847220127337
20
-7.2202688585611954
30
0
40
0.078822253650002047
100
AcDbArc
50
-90
51
0
0
LINE
5
121
100
AcDbEntity
8
0
100
AcDbLine
10
-23.085001982828089
20
-1.6952004042679414
30
0
11
-23.294922606141455
21
-1.6539045439439999
31
0
0
LINE
5
122
100
AcDbEntity
8
0
100
AcDbLine
10
-22.121892267993736
20
-2.7990911122111979
30
0
11
-22.021498567206336
21
-2.7990911122111979
31
0
0
LINE
5
123
100
AcDbEntity
8
0
100
AcDbLine
10
-22.121892267993736
20
-2.7990911122111979
30
0
11
-22.22228596878114
21
-2.7990911122111979
31
0
0
LINE
5
124
100
AcDbEntity
8
0
100
AcDbLine
10
-22.021498567206336
20
-2.7990911122111979
30
0
11
-22.021498567206336
21
-7.2990911122111974
31
0
0
LINE
5
125
100
AcDbEntity
8
0
100
AcDbLine
10
-22.22228596878114
20
-2.7990911122111979
30
0
11
-22.22228596878114
21
-7.2990911122111974
31
0
0
ENDSEC
0
SECTION
2
OBJECTS
0
DICTIONARY
5
C
100
AcDbDictionary
3
ACAD_GROUP
350
D
3
ACAD_MLINESTYLE
350
17
0
DICTIONARY
5
D
100
AcDbDictionary
0
DICTIONARY
5
1A
330
C
100
AcDbDictionary
0
DICTIONARY
5
17
100
AcDbDictionary
0
ENDSEC
0
EOF
