  0
SECTION
  2
HEADER
  9
$ACADVER
  1
AC1014
  9
$HANDSEED
  5
FFFF
  9
$MEASUREMENT
 70
     1
  0
ENDSEC
  0
SECTION
  2
TABLES
  0
TABLE
  2
VPORT
  5
8
330
0
100
AcDbSymbolTable
 70
     4
  0
VPORT
  5
2E
330
8
100
AcDbSymbolTableRecord
100
AcDbViewportTableRecord
  2
*ACTIVE
 70
     0
 10
0.0
 20
0.0
 11
1.0
 21
1.0
 12
210.0
 22
148.5
 13
0.0
 23
0.0
 14
10.0
 24
10.0
 15
10.0
 25
10.0
 16
0.0
 26
0.0
 36
1.0
 17
0.0
 27
0.0
 37
0.0
 40
341.0
 41
1.24
 42
50.0
 43
0.0
 44
0.0
 50
0.0
 51
0.0
 71
     0
 72
   100
 73
     1
 74
     3
 75
     0
 76
     0
 77
     0
 78
     0
  0
ENDTAB
  0
TABLE
  2
LTYPE
  5
5
330
0
100
AcDbSymbolTable
 70
     1
  0
LTYPE
  5
14
330
5
100
AcDbSymbolTableRecord
100
AcDbLinetypeTableRecord
  2
BYBLOCK
 70
     0
  3

 72
    65
 73
     0
 40
0.0
  0
LTYPE
  5
15
330
5
100
AcDbSymbolTableRecord
100
AcDbLinetypeTableRecord
  2
BYLAYER
 70
     0
  3

 72
    65
 73
     0
 40
0.0
  0
LTYPE
  5
16
330
5
100
AcDbSymbolTableRecord
100
AcDbLinetypeTableRecord
  2
CONTINUOUS
 70
     0
  3
Solid line
 72
    65
 73
     0
 40
0.0
  0
ENDTAB
  0
TABLE
  2
LAYER
  5
2
100
AcDbSymbolTable
 70
28
  0
LAYER
  5
50
100
AcDbSymbolTableRecord
100
AcDbLayerTableRecord
  2
0
 70
0
  6
CONTINUOUS
  0
LAYER
  5
51
100
AcDbSymbolTableRecord
100
AcDbLayerTableRecord
  2
DEFAULT_1
 70
0
  6
CONTINUOUS
  0
LAYER
  5
52
100
AcDbSymbolTableRecord
100
AcDbLayerTableRecord
  2
DEFAULT_2
 70
0
  6
CONTINUOUS
  0
LAYER
  5
53
100
AcDbSymbolTableRecord
100
AcDbLayerTableRecord
  2
DEFAULT_3
 70
0
  6
CONTINUOUS
  0
LAYER
  5
54
100
AcDbSymbolTableRecord
100
AcDbLayerTableRecord
  2
01_ALL_DTM_PLN
 70
0
  6
CONTINUOUS
  0
LAYER
  5
55
100
AcDbSymbolTableRecord
100
AcDbLayerTableRecord
  2
01__ASM_ALL_DTM_PLN
 70
0
  6
CONTINUOUS
  0
LAYER
  5
56
100
AcDbSymbolTableRecord
100
AcDbLayerTableRecord
  2
01__ASM_DEF_DTM_PLN
 70
0
  6
CONTINUOUS
  0
LAYER
  5
57
100
AcDbSymbolTableRecord
100
AcDbLayerTableRecord
  2
01___PRT_ALL_DTM_PLN
 70
0
  6
CONTINUOUS
  0
LAYER
  5
58
100
AcDbSymbolTableRecord
100
AcDbLayerTableRecord
  2
01___PRT_DEF_DTM_PLN
 70
0
  6
CONTINUOUS
  0
LAYER
  5
59
100
AcDbSymbolTableRecord
100
AcDbLayerTableRecord
  2
02_ALL_AXES
 70
0
  6
CONTINUOUS
  0
LAYER
  5
5a
100
AcDbSymbolTableRecord
100
AcDbLayerTableRecord
  2
02__ASM_ALL_AXES
 70
0
  6
CONTINUOUS
  0
LAYER
  5
5b
100
AcDbSymbolTableRecord
100
AcDbLayerTableRecord
  2
02___PRT_ALL_AXES
 70
0
  6
CONTINUOUS
  0
LAYER
  5
5c
100
AcDbSymbolTableRecord
100
AcDbLayerTableRecord
  2
03_ALL_CURVES
 70
0
  6
CONTINUOUS
  0
LAYER
  5
5d
100
AcDbSymbolTableRecord
100
AcDbLayerTableRecord
  2
03__ASM_ALL_CURVES
 70
0
  6
CONTINUOUS
  0
LAYER
  5
5e
100
AcDbSymbolTableRecord
100
AcDbLayerTableRecord
  2
03___PRT_ALL_CURVES
 70
0
  6
CONTINUOUS
  0
LAYER
  5
5f
100
AcDbSymbolTableRecord
100
AcDbLayerTableRecord
  2
04_ALL_DTM_PNT
 70
0
  6
CONTINUOUS
  0
LAYER
  5
60
100
AcDbSymbolTableRecord
100
AcDbLayerTableRecord
  2
04__ASM_ALL_DTM_PNT
 70
0
  6
CONTINUOUS
  0
LAYER
  5
61
100
AcDbSymbolTableRecord
100
AcDbLayerTableRecord
  2
04___PRT_ALL_DTM_PNT
 70
0
  6
CONTINUOUS
  0
LAYER
  5
62
100
AcDbSymbolTableRecord
100
AcDbLayerTableRecord
  2
05_ALL_DTM_CSYS
 70
0
  6
CONTINUOUS
  0
LAYER
  5
63
100
AcDbSymbolTableRecord
100
AcDbLayerTableRecord
  2
05__ASM_ALL_DTM_CSYS
 70
0
  6
CONTINUOUS
  0
LAYER
  5
64
100
AcDbSymbolTableRecord
100
AcDbLayerTableRecord
  2
05__ASM_DEF_DTM_CSYS
 70
0
  6
CONTINUOUS
  0
LAYER
  5
65
100
AcDbSymbolTableRecord
100
AcDbLayerTableRecord
  2
05___PRT_ALL_DTM_CSYS
 70
0
  6
CONTINUOUS
  0
LAYER
  5
66
100
AcDbSymbolTableRecord
100
AcDbLayerTableRecord
  2
05___PRT_DEF_DTM_CSYS
 70
0
  6
CONTINUOUS
  0
LAYER
  5
67
100
AcDbSymbolTableRecord
100
AcDbLayerTableRecord
  2
06_ALL_SURFS
 70
0
  6
CONTINUOUS
  0
LAYER
  5
68
100
AcDbSymbolTableRecord
100
AcDbLayerTableRecord
  2
06__ASM_ALL_SURFS
 70
0
  6
CONTINUOUS
  0
LAYER
  5
69
100
AcDbSymbolTableRecord
100
AcDbLayerTableRecord
  2
06___PRT_ALL_SURFS
 70
0
  6
CONTINUOUS
  0
LAYER
  5
6a
100
AcDbSymbolTableRecord
100
AcDbLayerTableRecord
  2
07__ASM_ALL_SKELETONS
 70
0
  6
CONTINUOUS
  0
LAYER
  5
6b
100
AcDbSymbolTableRecord
100
AcDbLayerTableRecord
  2
3_ALL_SYMBOLS
 70
0
  6
CONTINUOUS
  0
ENDTAB
  0
TABLE
  2
STYLE
  5
3
330
0
100
AcDbSymbolTable
 70
     1
  0
STYLE
  5
11
330
3
100
AcDbSymbolTableRecord
100
AcDbTextStyleTableRecord
  2
STANDARD
 70
     0
 40
0.0
 41
1.0
 50
0.0
 71
     0
 42
2.5
  3
txt
  4

  0
ENDTAB
  0
TABLE
  2
VIEW
  5
6
330
0
100
AcDbSymbolTable
 70
     0
  0
ENDTAB
  0
TABLE
  2
UCS
  5
7
330
0
100
AcDbSymbolTable
 70
     0
  0
ENDTAB
  0
TABLE
  2
APPID
  5
9
330
0
100
AcDbSymbolTable
 70
     2
  0
APPID
  5
12
330
9
100
AcDbSymbolTableRecord
100
AcDbRegAppTableRecord
  2
ACAD
 70
     0
  0
ENDTAB
  0
TABLE
  2
DIMSTYLE
  5
A
330
0
100
AcDbSymbolTable
 70
     1
  0
DIMSTYLE
105
27
330
A
100
AcDbSymbolTableRecord
100
AcDbDimStyleTableRecord
  2
ISO-25
 70
     0
  3

  4

  5

  6

  7

 40
1.0
 41
2.5
 42
0.625
 43
3.75
 44
1.25
 45
0.0
 46
0.0
 47
0.0
 48
0.0
140
2.5
141
2.5
142
0.0
143
0.03937007874016
144
1.0
145
0.0
146
1.0
147
0.625
 71
     0
 72
     0
 73
     0
 74
     0
 75
     0
 76
     0
 77
     1
 78
     8
170
     0
171
     3
172
     1
173
     0
174
     0
175
     0
176
     0
177
     0
178
     0
270
     2
271
     2
272
     2
273
     2
274
     3
340
11
275
     0
280
     0
281
     0
282
     0
283
     0
284
     8
285
     0
286
     0
287
     3
288
     0
  0
ENDTAB
  0
TABLE
  2
BLOCK_RECORD
  5
1
330
0
100
AcDbSymbolTable
 70
     1
  0
BLOCK_RECORD
  5
1F
330
1
100
AcDbSymbolTableRecord
100
AcDbBlockTableRecord
  2
*MODEL_SPACE
  0
BLOCK_RECORD
  5
1B
330
1
100
AcDbSymbolTableRecord
100
AcDbBlockTableRecord
  2
*PAPER_SPACE
  0
ENDTAB
  0
ENDSEC
  0
SECTION
  2
BLOCKS
  0
BLOCK
  5
20
330
1F
100
AcDbEntity
  8
0
100
AcDbBlockBegin
  2
*MODEL_SPACE
 70
     0
 10
0.0
 20
0.0
 30
0.0
  3
*MODEL_SPACE
  1

  0
ENDBLK
  5
21
330
1F
100
AcDbEntity
  8
0
100
AcDbBlockEnd
  0
BLOCK
  5
1C
330
1B
100
AcDbEntity
 67
     1
  8
0
100
AcDbBlockBegin
  2
*PAPER_SPACE
  1

  0
ENDBLK
  5
1D
330
1B
100
AcDbEntity
 67
     1
  8
0
100
AcDbBlockEnd
  0
ENDSEC
  0
SECTION
  2
ENTITIES
  0
LINE
  5
100
100
AcDbEntity
  8
0
 62
7
100
AcDbLine
 10
114.447834
 20
172.797154
 30
0.0
 11
114.447834
 21
318.797155
 31
0.0
  0
LINE
  5
101
100
AcDbEntity
  8
0
 62
7
100
AcDbLine
 10
117.622834
 20
318.797155
 30
0.0
 11
117.622834
 21
312.123047
 31
0.0
  0
LINE
  5
102
100
AcDbEntity
  8
0
 62
7
100
AcDbLine
 10
117.622834
 20
305.123047
 30
0.0
 11
117.622834
 21
297.123047
 31
0.0
  0
LINE
  5
103
100
AcDbEntity
  8
0
 62
7
100
AcDbLine
 10
118.972832
 20
172.797154
 30
0.0
 11
118.972832
 21
174.297154
 31
0.0
  0
LINE
  5
104
100
AcDbEntity
  8
0
 62
7
100
AcDbLine
 10
118.972832
 20
186.297155
 30
0.0
 11
118.972832
 21
195.297154
 31
0.0
  0
LINE
  5
105
100
AcDbEntity
  8
0
 62
7
100
AcDbLine
 10
118.972832
 20
207.297155
 30
0.0
 11
118.972832
 21
233.774813
 31
0.0
  0
LINE
  5
106
100
AcDbEntity
  8
0
 62
7
100
AcDbLine
 10
118.972832
 20
239.774812
 30
0.0
 11
118.972832
 21
247.774813
 31
0.0
  0
LINE
  5
107
100
AcDbEntity
  8
0
 62
7
100
AcDbLine
 10
120.797834
 20
318.797155
 30
0.0
 11
120.797834
 21
312.123047
 31
0.0
  0
LINE
  5
108
100
AcDbEntity
  8
0
 62
7
100
AcDbLine
 10
120.797834
 20
305.123047
 30
0.0
 11
120.797834
 21
297.123047
 31
0.0
  0
LINE
  5
109
100
AcDbEntity
  8
0
 62
7
100
AcDbLine
 10
122.147832
 20
172.797154
 30
0.0
 11
122.147832
 21
174.297154
 31
0.0
  0
LINE
  5
10a
100
AcDbEntity
  8
0
 62
7
100
AcDbLine
 10
122.147832
 20
186.001872
 30
0.0
 11
122.147832
 21
186.297155
 31
0.0
  0
LINE
  5
10b
100
AcDbEntity
  8
0
 62
7
100
AcDbLine
 10
122.147832
 20
195.297154
 30
0.0
 11
122.147832
 21
195.352439
 31
0.0
  0
LINE
  5
10c
100
AcDbEntity
  8
0
 62
7
100
AcDbLine
 10
122.147832
 20
207.297155
 30
0.0
 11
122.147832
 21
233.774813
 31
0.0
  0
LINE
  5
10d
100
AcDbEntity
  8
0
 62
7
100
AcDbLine
 10
122.147832
 20
239.774812
 30
0.0
 11
122.147832
 21
247.774813
 31
0.0
  0
LINE
  5
10e
100
AcDbEntity
  8
0
 62
7
100
AcDbLine
 10
183.867834
 20
172.797154
 30
0.0
 11
170.700333
 21
172.797154
 31
0.0
  0
LINE
  5
10f
100
AcDbEntity
  8
0
 62
7
100
AcDbLine
 10
167.525333
 20
172.797154
 30
0.0
 11
160.322833
 21
172.797154
 31
0.0
  0
LINE
  5
110
100
AcDbEntity
  8
0
 62
7
100
AcDbLine
 10
157.147833
 20
172.797154
 30
0.0
 11
122.147832
 21
172.797154
 31
0.0
  0
LINE
  5
111
100
AcDbEntity
  8
0
 62
7
100
AcDbLine
 10
118.972832
 20
172.797154
 30
0.0
 11
114.447834
 21
172.797154
 31
0.0
  0
LINE
  5
112
100
AcDbEntity
  8
0
 62
7
100
AcDbLine
 10
160.322833
 20
174.297154
 30
0.0
 11
157.147833
 21
174.297154
 31
0.0
  0
LINE
  5
113
100
AcDbEntity
  8
0
 62
7
100
AcDbLine
 10
122.147832
 20
174.297154
 30
0.0
 11
118.972832
 21
174.297154
 31
0.0
  0
LINE
  5
114
100
AcDbEntity
  8
0
 62
7
100
AcDbLine
 10
148.972834
 20
318.797155
 30
0.0
 11
148.972834
 21
312.123047
 31
0.0
  0
LINE
  5
115
100
AcDbEntity
  8
0
 62
7
100
AcDbLine
 10
148.972834
 20
305.123047
 30
0.0
 11
148.972834
 21
297.123047
 31
0.0
  0
LINE
  5
116
100
AcDbEntity
  8
0
 62
7
100
AcDbLine
 10
152.147834
 20
318.797155
 30
0.0
 11
152.147834
 21
312.123047
 31
0.0
  0
LINE
  5
117
100
AcDbEntity
  8
0
 62
7
100
AcDbLine
 10
152.147834
 20
305.123047
 30
0.0
 11
152.147834
 21
297.123047
 31
0.0
  0
LINE
  5
118
100
AcDbEntity
  8
0
 62
7
100
AcDbLine
 10
170.700333
 20
175.972154
 30
0.0
 11
167.525333
 21
175.972154
 31
0.0
  0
LINE
  5
119
100
AcDbEntity
  8
0
 62
7
100
AcDbLine
 10
176.787833
 20
177.797155
 30
0.0
 11
183.867834
 21
177.797155
 31
0.0
  0
LINE
  5
11a
100
AcDbEntity
  8
0
 62
7
100
AcDbLine
 10
157.147833
 20
195.352439
 30
0.0
 11
157.147833
 21
195.297154
 31
0.0
  0
LINE
  5
11b
100
AcDbEntity
  8
0
 62
7
100
AcDbLine
 10
157.147833
 20
186.297155
 30
0.0
 11
157.147833
 21
186.001872
 31
0.0
  0
LINE
  5
11c
100
AcDbEntity
  8
0
 62
7
100
AcDbLine
 10
157.147833
 20
172.797154
 30
0.0
 11
157.147833
 21
174.297154
 31
0.0
  0
LINE
  5
11d
100
AcDbEntity
  8
0
 62
7
100
AcDbLine
 10
157.147833
 20
207.297155
 30
0.0
 11
157.147833
 21
233.774813
 31
0.0
  0
LINE
  5
11e
100
AcDbEntity
  8
0
 62
7
100
AcDbLine
 10
157.147833
 20
239.774812
 30
0.0
 11
157.147833
 21
247.774813
 31
0.0
  0
LINE
  5
11f
100
AcDbEntity
  8
0
 62
7
100
AcDbLine
 10
160.322833
 20
172.797154
 30
0.0
 11
160.322833
 21
174.297154
 31
0.0
  0
LINE
  5
120
100
AcDbEntity
  8
0
 62
7
100
AcDbLine
 10
160.322833
 20
186.297155
 30
0.0
 11
160.322833
 21
195.297154
 31
0.0
  0
LINE
  5
121
100
AcDbEntity
  8
0
 62
7
100
AcDbLine
 10
160.322833
 20
207.297155
 30
0.0
 11
160.322833
 21
233.774813
 31
0.0
  0
LINE
  5
122
100
AcDbEntity
  8
0
 62
7
100
AcDbLine
 10
160.322833
 20
239.774812
 30
0.0
 11
160.322833
 21
247.774813
 31
0.0
  0
LINE
  5
123
100
AcDbEntity
  8
0
 62
7
100
AcDbLine
 10
173.612833
 20
185.634655
 30
0.0
 11
176.787833
 21
185.634655
 31
0.0
  0
LINE
  5
124
100
AcDbEntity
  8
0
 62
7
100
AcDbLine
 10
157.147833
 20
186.001872
 30
0.0
 11
122.147832
 21
186.001872
 31
0.0
  0
LINE
  5
125
100
AcDbEntity
  8
0
 62
7
100
AcDbLine
 10
160.322833
 20
186.297155
 30
0.0
 11
157.147833
 21
186.297155
 31
0.0
  0
LINE
  5
126
100
AcDbEntity
  8
0
 62
7
100
AcDbLine
 10
122.147832
 20
186.297155
 30
0.0
 11
118.972832
 21
186.297155
 31
0.0
  0
LINE
  5
127
100
AcDbEntity
  8
0
 62
7
100
AcDbLine
 10
167.525333
 20
172.797154
 30
0.0
 11
167.525333
 21
175.972154
 31
0.0
  0
LINE
  5
128
100
AcDbEntity
  8
0
 62
7
100
AcDbLine
 10
199.602671
 20
255.465374
 30
0.0
 11
174.378837
 21
244.055892
 31
0.0
  0
LINE
  5
129
100
AcDbEntity
  8
0
 62
7
100
AcDbLine
 10
185.471884
 20
191.897231
 30
0.0
 11
188.646884
 21
191.897231
 31
0.0
  0
LINE
  5
12a
100
AcDbEntity
  8
0
 62
7
100
AcDbLine
 10
178.274385
 20
195.072231
 30
0.0
 11
185.471884
 21
195.072231
 31
0.0
  0
LINE
  5
12b
100
AcDbEntity
  8
0
 62
7
100
AcDbLine
 10
188.646884
 20
195.072231
 30
0.0
 11
191.559386
 21
195.072231
 31
0.0
  0
LINE
  5
12c
100
AcDbEntity
  8
0
 62
7
100
AcDbLine
 10
160.322833
 20
195.297154
 30
0.0
 11
157.147833
 21
195.297154
 31
0.0
  0
LINE
  5
12d
100
AcDbEntity
  8
0
 62
7
100
AcDbLine
 10
122.147832
 20
195.297154
 30
0.0
 11
118.972832
 21
195.297154
 31
0.0
  0
LINE
  5
12e
100
AcDbEntity
  8
0
 62
7
100
AcDbLine
 10
122.147832
 20
195.352439
 30
0.0
 11
157.147833
 21
195.352439
 31
0.0
  0
LINE
  5
12f
100
AcDbEntity
  8
0
 62
7
100
AcDbLine
 10
173.612833
 20
195.634655
 30
0.0
 11
176.787833
 21
195.634655
 31
0.0
  0
LINE
  5
130
100
AcDbEntity
  8
0
 62
7
100
AcDbLine
 10
170.700333
 20
172.797154
 30
0.0
 11
170.700333
 21
175.972154
 31
0.0
  0
LINE
  5
131
100
AcDbEntity
  8
0
 62
7
100
AcDbLine
 10
173.612833
 20
185.634655
 30
0.0
 11
173.612833
 21
195.634655
 31
0.0
  0
LINE
  5
132
100
AcDbEntity
  8
0
 62
7
100
AcDbLine
 10
176.787833
 20
208.472154
 30
0.0
 11
176.787833
 21
195.634655
 31
0.0
  0
LINE
  5
133
100
AcDbEntity
  8
0
 62
7
100
AcDbLine
 10
176.787833
 20
185.634655
 30
0.0
 11
176.787833
 21
177.797155
 31
0.0
  0
LINE
  5
134
100
AcDbEntity
  8
0
 62
7
100
AcDbLine
 10
178.274385
 20
201.897231
 30
0.0
 11
178.274385
 21
195.072231
 31
0.0
  0
LINE
  5
135
100
AcDbEntity
  8
0
 62
7
100
AcDbLine
 10
191.559386
 20
201.897231
 30
0.0
 11
188.646884
 21
201.897231
 31
0.0
  0
LINE
  5
136
100
AcDbEntity
  8
0
 62
7
100
AcDbLine
 10
185.471884
 20
201.897231
 30
0.0
 11
178.274385
 21
201.897231
 31
0.0
  0
LINE
  5
137
100
AcDbEntity
  8
0
 62
7
100
AcDbLine
 10
188.646884
 20
205.072231
 30
0.0
 11
185.471884
 21
205.072231
 31
0.0
  0
LINE
  5
138
100
AcDbEntity
  8
0
 62
7
100
AcDbLine
 10
160.322833
 20
207.297155
 30
0.0
 11
157.147833
 21
207.297155
 31
0.0
  0
LINE
  5
139
100
AcDbEntity
  8
0
 62
7
100
AcDbLine
 10
122.147832
 20
207.297155
 30
0.0
 11
118.972832
 21
207.297155
 31
0.0
  0
LINE
  5
13a
100
AcDbEntity
  8
0
 62
7
100
AcDbLine
 10
183.867834
 20
208.472154
 30
0.0
 11
176.787833
 21
208.472154
 31
0.0
  0
LINE
  5
13b
100
AcDbEntity
  8
0
 62
7
100
AcDbLine
 10
175.169308
 20
228.769308
 30
0.0
 11
173.623334
 21
234.566717
 31
0.0
  0
LINE
  5
13c
100
AcDbEntity
  8
0
 62
7
100
AcDbLine
 10
183.867834
 20
172.797154
 30
0.0
 11
183.867834
 21
177.797155
 31
0.0
  0
LINE
  5
13d
100
AcDbEntity
  8
0
 62
7
100
AcDbLine
 10
185.471884
 20
205.072231
 30
0.0
 11
185.471884
 21
201.897231
 31
0.0
  0
LINE
  5
13e
100
AcDbEntity
  8
0
 62
7
100
AcDbLine
 10
185.471884
 20
195.072231
 30
0.0
 11
185.471884
 21
191.897231
 31
0.0
  0
LINE
  5
13f
100
AcDbEntity
  8
0
 62
7
100
AcDbLine
 10
200.246327
 20
210.954188
 30
0.0
 11
194.364370
 21
209.385668
 31
0.0
  0
LINE
  5
140
100
AcDbEntity
  8
0
 62
7
100
AcDbLine
 10
191.296575
 20
208.567590
 30
0.0
 11
184.337269
 21
206.711773
 31
0.0
  0
LINE
  5
141
100
AcDbEntity
  8
0
 62
7
100
AcDbLine
 10
193.546293
 20
212.453463
 30
0.0
 11
190.478497
 21
211.635385
 31
0.0
  0
LINE
  5
142
100
AcDbEntity
  8
0
 62
7
100
AcDbLine
 10
184.337269
 20
206.711773
 30
0.0
 11
154.447833
 21
318.797155
 31
0.0
  0
LINE
  5
143
100
AcDbEntity
  8
0
 62
7
100
AcDbLine
 10
179.009723
 20
249.973919
 30
0.0
 11
178.191643
 21
253.041714
 31
0.0
  0
LINE
  5
144
100
AcDbEntity
  8
0
 62
7
100
AcDbLine
 10
169.173452
 20
286.859938
 30
0.0
 11
168.355371
 21
289.927734
 31
0.0
  0
LINE
  5
145
100
AcDbEntity
  8
0
 62
7
100
AcDbLine
 10
188.646884
 20
191.897231
 30
0.0
 11
188.646884
 21
195.072231
 31
0.0
  0
LINE
  5
146
100
AcDbEntity
  8
0
 62
7
100
AcDbLine
 10
188.646884
 20
201.897231
 30
0.0
 11
188.646884
 21
205.072231
 31
0.0
  0
LINE
  5
147
100
AcDbEntity
  8
0
 62
7
100
AcDbLine
 10
191.559386
 20
195.072231
 30
0.0
 11
191.559386
 21
201.897231
 31
0.0
  0
LINE
  5
148
100
AcDbEntity
  8
0
 62
7
100
AcDbLine
 10
191.807036
 20
305.959654
 30
0.0
 11
191.807036
 21
295.959654
 31
0.0
  0
LINE
  5
149
100
AcDbEntity
  8
0
 62
7
100
AcDbLine
 10
194.987037
 20
318.797155
 30
0.0
 11
194.987037
 21
305.959654
 31
0.0
  0
LINE
  5
14a
100
AcDbEntity
  8
0
 62
7
100
AcDbLine
 10
194.987037
 20
295.959654
 30
0.0
 11
194.987037
 21
283.122155
 31
0.0
  0
LINE
  5
14b
100
AcDbEntity
  8
0
 62
7
100
AcDbLine
 10
196.938581
 20
223.358230
 30
0.0
 11
193.870786
 21
222.540153
 31
0.0
  0
LINE
  5
14c
100
AcDbEntity
  8
0
 62
7
100
AcDbLine
 10
191.296575
 20
208.567590
 30
0.0
 11
190.478497
 21
211.635385
 31
0.0
  0
LINE
  5
14d
100
AcDbEntity
  8
0
 62
7
100
AcDbLine
 10
194.364370
 20
209.385668
 30
0.0
 11
193.546293
 21
212.453463
 31
0.0
  0
LINE
  5
14e
100
AcDbEntity
  8
0
 62
7
100
AcDbLine
 10
191.294159
 20
232.202502
 30
0.0
 11
193.870786
 21
222.540153
 31
0.0
  0
LINE
  5
14f
100
AcDbEntity
  8
0
 62
7
100
AcDbLine
 10
201.807036
 20
256.572154
 30
0.0
 11
201.807036
 21
295.959654
 31
0.0
  0
LINE
  5
150
100
AcDbEntity
  8
0
 62
7
100
AcDbLine
 10
201.807036
 20
305.959654
 30
0.0
 11
201.807036
 21
318.797155
 31
0.0
  0
LINE
  5
151
100
AcDbEntity
  8
0
 62
7
100
AcDbLine
 10
194.361954
 20
233.020579
 30
0.0
 11
191.294159
 21
232.202502
 31
0.0
  0
LINE
  5
152
100
AcDbEntity
  8
0
 62
7
100
AcDbLine
 10
178.237106
 20
229.587385
 30
0.0
 11
175.169308
 21
228.769308
 31
0.0
  0
LINE
  5
153
100
AcDbEntity
  8
0
 62
7
100
AcDbLine
 10
160.322833
 20
233.774813
 30
0.0
 11
157.147833
 21
233.774813
 31
0.0
  0
LINE
  5
154
100
AcDbEntity
  8
0
 62
7
100
AcDbLine
 10
122.147832
 20
233.774813
 30
0.0
 11
118.972832
 21
233.774813
 31
0.0
  0
LINE
  5
155
100
AcDbEntity
  8
0
 62
7
100
AcDbLine
 10
191.054211
 20
245.424621
 30
0.0
 11
194.361954
 21
233.020579
 31
0.0
  0
LINE
  5
156
100
AcDbEntity
  8
0
 62
7
100
AcDbLine
 10
196.938581
 20
223.358230
 30
0.0
 11
200.246327
 21
210.954188
 31
0.0
  0
LINE
  5
157
100
AcDbEntity
  8
0
 62
7
100
AcDbLine
 10
204.987037
 20
295.959654
 30
0.0
 11
204.987037
 21
305.959654
 31
0.0
  0
LINE
  5
158
100
AcDbEntity
  8
0
 62
7
100
AcDbLine
 10
176.691129
 20
235.384794
 30
0.0
 11
173.623334
 21
234.566717
 31
0.0
  0
LINE
  5
159
100
AcDbEntity
  8
0
 62
7
100
AcDbLine
 10
160.322833
 20
239.774812
 30
0.0
 11
157.147833
 21
239.774812
 31
0.0
  0
LINE
  5
15a
100
AcDbEntity
  8
0
 62
7
100
AcDbLine
 10
122.147832
 20
239.774812
 30
0.0
 11
118.972832
 21
239.774812
 31
0.0
  0
LINE
  5
15b
100
AcDbEntity
  8
0
 62
7
100
AcDbLine
 10
186.146841
 20
294.672126
 30
0.0
 11
186.964921
 21
291.604330
 31
0.0
  0
LINE
  5
15c
100
AcDbEntity
  8
0
 62
7
100
AcDbLine
 10
195.983112
 20
257.786107
 30
0.0
 11
196.801192
 21
254.718312
 31
0.0
  0
LINE
  5
15d
100
AcDbEntity
  8
0
 62
7
100
AcDbLine
 10
184.802529
 20
311.354012
 30
0.0
 11
189.044944
 21
295.444954
 31
0.0
  0
LINE
  5
15e
100
AcDbEntity
  8
0
 62
7
100
AcDbLine
 10
191.553936
 20
292.828068
 30
0.0
 11
200.572127
 21
259.009845
 31
0.0
  0
LINE
  5
15f
100
AcDbEntity
  8
0
 62
7
100
AcDbLine
 10
201.807036
 20
256.572154
 30
0.0
 11
194.987037
 21
283.122155
 31
0.0
  0
LINE
  5
160
100
AcDbEntity
  8
0
 62
7
100
AcDbLine
 10
175.145152
 20
241.182206
 30
0.0
 11
191.054211
 21
245.424621
 31
0.0
  0
LINE
  5
161
100
AcDbEntity
  8
0
 62
7
100
AcDbLine
 10
160.322833
 20
247.774813
 30
0.0
 11
157.147833
 21
247.774813
 31
0.0
  0
LINE
  5
162
100
AcDbEntity
  8
0
 62
7
100
AcDbLine
 10
122.147832
 20
247.774813
 30
0.0
 11
118.972832
 21
247.774813
 31
0.0
  0
LINE
  5
163
100
AcDbEntity
  8
0
 62
7
100
AcDbLine
 10
173.212912
 20
248.428104
 30
0.0
 11
179.009723
 21
249.973919
 31
0.0
  0
LINE
  5
164
100
AcDbEntity
  8
0
 62
7
100
AcDbLine
 10
196.801192
 20
254.718312
 30
0.0
 11
199.602671
 21
255.465374
 31
0.0
  0
LINE
  5
165
100
AcDbEntity
  8
0
 62
7
100
AcDbLine
 10
172.394835
 20
251.495899
 30
0.0
 11
178.191643
 21
253.041714
 31
0.0
  0
LINE
  5
166
100
AcDbEntity
  8
0
 62
7
100
AcDbLine
 10
195.983112
 20
257.786107
 30
0.0
 11
200.572127
 21
259.009845
 31
0.0
  0
LINE
  5
167
100
AcDbEntity
  8
0
 62
7
100
AcDbLine
 10
191.553936
 20
292.828068
 30
0.0
 11
186.964921
 21
291.604330
 31
0.0
  0
LINE
  5
168
100
AcDbEntity
  8
0
 62
7
100
AcDbLine
 10
163.376641
 20
285.314123
 30
0.0
 11
169.173452
 21
286.859938
 31
0.0
  0
LINE
  5
169
100
AcDbEntity
  8
0
 62
7
100
AcDbLine
 10
162.558563
 20
288.381919
 30
0.0
 11
168.355371
 21
289.927734
 31
0.0
  0
LINE
  5
16a
100
AcDbEntity
  8
0
 62
7
100
AcDbLine
 10
186.146841
 20
294.672126
 30
0.0
 11
189.044944
 21
295.444954
 31
0.0
  0
LINE
  5
16b
100
AcDbEntity
  8
0
 62
7
100
AcDbLine
 10
191.807036
 20
295.959654
 30
0.0
 11
194.987037
 21
295.959654
 31
0.0
  0
LINE
  5
16c
100
AcDbEntity
  8
0
 62
7
100
AcDbLine
 10
201.807036
 20
295.959654
 30
0.0
 11
204.987037
 21
295.959654
 31
0.0
  0
LINE
  5
16d
100
AcDbEntity
  8
0
 62
7
100
AcDbLine
 10
117.622834
 20
297.123047
 30
0.0
 11
120.797834
 21
297.123047
 31
0.0
  0
LINE
  5
16e
100
AcDbEntity
  8
0
 62
7
100
AcDbLine
 10
148.972834
 20
297.123047
 30
0.0
 11
152.147834
 21
297.123047
 31
0.0
  0
LINE
  5
16f
100
AcDbEntity
  8
0
 62
7
100
AcDbLine
 10
152.147834
 20
305.123047
 30
0.0
 11
148.972834
 21
305.123047
 31
0.0
  0
LINE
  5
170
100
AcDbEntity
  8
0
 62
7
100
AcDbLine
 10
120.797834
 20
305.123047
 30
0.0
 11
117.622834
 21
305.123047
 31
0.0
  0
LINE
  5
171
100
AcDbEntity
  8
0
 62
7
100
AcDbLine
 10
204.987037
 20
305.959654
 30
0.0
 11
201.807036
 21
305.959654
 31
0.0
  0
LINE
  5
172
100
AcDbEntity
  8
0
 62
7
100
AcDbLine
 10
194.987037
 20
305.959654
 30
0.0
 11
191.807036
 21
305.959654
 31
0.0
  0
LINE
  5
173
100
AcDbEntity
  8
0
 62
7
100
AcDbLine
 10
158.316148
 20
304.290977
 30
0.0
 11
184.802529
 21
311.354012
 31
0.0
  0
LINE
  5
174
100
AcDbEntity
  8
0
 62
7
100
AcDbLine
 10
152.147834
 20
312.123047
 30
0.0
 11
148.972834
 21
312.123047
 31
0.0
  0
LINE
  5
175
100
AcDbEntity
  8
0
 62
7
100
AcDbLine
 10
120.797834
 20
312.123047
 30
0.0
 11
117.622834
 21
312.123047
 31
0.0
  0
LINE
  5
176
100
AcDbEntity
  8
0
 62
7
100
AcDbLine
 10
201.807036
 20
318.797155
 30
0.0
 11
194.987037
 21
318.797155
 31
0.0
  0
LINE
  5
177
100
AcDbEntity
  8
0
 62
7
100
AcDbLine
 10
114.447834
 20
318.797155
 30
0.0
 11
117.622834
 21
318.797155
 31
0.0
  0
LINE
  5
178
100
AcDbEntity
  8
0
 62
7
100
AcDbLine
 10
120.797834
 20
318.797155
 30
0.0
 11
148.972834
 21
318.797155
 31
0.0
  0
LINE
  5
179
100
AcDbEntity
  8
0
 62
7
100
AcDbLine
 10
152.147834
 20
318.797155
 30
0.0
 11
154.447833
 21
318.797155
 31
0.0
  0
LINE
  5
17a
100
AcDbEntity
  8
0
 62
7
100
AcDbLine
 10
35.656571
 20
172.567614
 30
0.0
 11
48.824072
 21
172.567614
 31
0.0
  0
LINE
  5
17b
100
AcDbEntity
  8
0
 62
7
100
AcDbLine
 10
51.999072
 20
172.567614
 30
0.0
 11
59.201572
 21
172.567614
 31
0.0
  0
LINE
  5
17c
100
AcDbEntity
  8
0
 62
7
100
AcDbLine
 10
62.376572
 20
172.567614
 30
0.0
 11
97.376570
 21
172.567614
 31
0.0
  0
LINE
  5
17d
100
AcDbEntity
  8
0
 62
7
100
AcDbLine
 10
100.551570
 20
172.567614
 30
0.0
 11
105.076571
 21
172.567614
 31
0.0
  0
LINE
  5
17e
100
AcDbEntity
  8
0
 62
7
100
AcDbLine
 10
59.201572
 20
174.067614
 30
0.0
 11
62.376572
 21
174.067614
 31
0.0
  0
LINE
  5
17f
100
AcDbEntity
  8
0
 62
7
100
AcDbLine
 10
97.376570
 20
174.067614
 30
0.0
 11
100.551570
 21
174.067614
 31
0.0
  0
LINE
  5
180
100
AcDbEntity
  8
0
 62
7
100
AcDbLine
 10
48.824072
 20
175.742614
 30
0.0
 11
51.999072
 21
175.742614
 31
0.0
  0
LINE
  5
181
100
AcDbEntity
  8
0
 62
7
100
AcDbLine
 10
42.736572
 20
177.567615
 30
0.0
 11
35.656571
 21
177.567615
 31
0.0
  0
LINE
  5
182
100
AcDbEntity
  8
0
 62
7
100
AcDbLine
 10
45.911572
 20
185.405116
 30
0.0
 11
42.736572
 21
185.405116
 31
0.0
  0
LINE
  5
183
100
AcDbEntity
  8
0
 62
7
100
AcDbLine
 10
62.376572
 20
185.772332
 30
0.0
 11
97.376570
 21
185.772332
 31
0.0
  0
LINE
  5
184
100
AcDbEntity
  8
0
 62
7
100
AcDbLine
 10
59.201572
 20
186.067615
 30
0.0
 11
62.376572
 21
186.067615
 31
0.0
  0
LINE
  5
185
100
AcDbEntity
  8
0
 62
7
100
AcDbLine
 10
97.376570
 20
186.067615
 30
0.0
 11
100.551570
 21
186.067615
 31
0.0
  0
LINE
  5
186
100
AcDbEntity
  8
0
 62
7
100
AcDbLine
 10
34.052521
 20
191.667692
 30
0.0
 11
30.877521
 21
191.667692
 31
0.0
  0
LINE
  5
187
100
AcDbEntity
  8
0
 62
7
100
AcDbLine
 10
41.250021
 20
194.842692
 30
0.0
 11
34.052521
 21
194.842692
 31
0.0
  0
LINE
  5
188
100
AcDbEntity
  8
0
 62
7
100
AcDbLine
 10
30.877521
 20
194.842692
 30
0.0
 11
27.965020
 21
194.842692
 31
0.0
  0
LINE
  5
189
100
AcDbEntity
  8
0
 62
7
100
AcDbLine
 10
59.201572
 20
195.067614
 30
0.0
 11
62.376572
 21
195.067614
 31
0.0
  0
LINE
  5
18a
100
AcDbEntity
  8
0
 62
7
100
AcDbLine
 10
97.376570
 20
195.067614
 30
0.0
 11
100.551570
 21
195.067614
 31
0.0
  0
LINE
  5
18b
100
AcDbEntity
  8
0
 62
7
100
AcDbLine
 10
97.376570
 20
195.122899
 30
0.0
 11
62.376572
 21
195.122899
 31
0.0
  0
LINE
  5
18c
100
AcDbEntity
  8
0
 62
7
100
AcDbLine
 10
45.911572
 20
195.405115
 30
0.0
 11
42.736572
 21
195.405115
 31
0.0
  0
LINE
  5
18d
100
AcDbEntity
  8
0
 62
7
100
AcDbLine
 10
27.965020
 20
201.667691
 30
0.0
 11
30.877521
 21
201.667691
 31
0.0
  0
LINE
  5
18e
100
AcDbEntity
  8
0
 62
7
100
AcDbLine
 10
34.052521
 20
201.667691
 30
0.0
 11
41.250021
 21
201.667691
 31
0.0
  0
LINE
  5
18f
100
AcDbEntity
  8
0
 62
7
100
AcDbLine
 10
30.877521
 20
204.842691
 30
0.0
 11
34.052521
 21
204.842691
 31
0.0
  0
LINE
  5
190
100
AcDbEntity
  8
0
 62
7
100
AcDbLine
 10
59.201572
 20
207.067616
 30
0.0
 11
62.376572
 21
207.067616
 31
0.0
  0
LINE
  5
191
100
AcDbEntity
  8
0
 62
7
100
AcDbLine
 10
97.376570
 20
207.067616
 30
0.0
 11
100.551570
 21
207.067616
 31
0.0
  0
LINE
  5
192
100
AcDbEntity
  8
0
 62
7
100
AcDbLine
 10
35.656571
 20
208.242614
 30
0.0
 11
42.736572
 21
208.242614
 31
0.0
  0
LINE
  5
193
100
AcDbEntity
  8
0
 62
7
100
AcDbLine
 10
14.537369
 20
295.730115
 30
0.0
 11
14.537369
 21
305.730115
 31
0.0
  0
LINE
  5
194
100
AcDbEntity
  8
0
 62
7
100
AcDbLine
 10
17.717369
 20
256.342614
 30
0.0
 11
24.537369
 21
282.892615
 31
0.0
  0
LINE
  5
195
100
AcDbEntity
  8
0
 62
7
100
AcDbLine
 10
18.952277
 20
258.780305
 30
0.0
 11
27.970470
 21
292.598528
 31
0.0
  0
LINE
  5
196
100
AcDbEntity
  8
0
 62
7
100
AcDbLine
 10
34.721876
 20
311.124472
 30
0.0
 11
30.479461
 21
295.215414
 31
0.0
  0
LINE
  5
197
100
AcDbEntity
  8
0
 62
7
100
AcDbLine
 10
33.378106
 20
294.442442
 30
0.0
 11
32.560026
 21
291.374646
 31
0.0
  0
LINE
  5
198
100
AcDbEntity
  8
0
 62
7
100
AcDbLine
 10
23.541833
 20
257.556423
 30
0.0
 11
22.723754
 21
254.488628
 31
0.0
  0
LINE
  5
199
100
AcDbEntity
  8
0
 62
7
100
AcDbLine
 10
19.278078
 20
210.724648
 30
0.0
 11
25.160033
 21
209.156128
 31
0.0
  0
LINE
  5
19a
100
AcDbEntity
  8
0
 62
7
100
AcDbLine
 10
28.227830
 20
208.338050
 30
0.0
 11
35.187136
 21
206.482233
 31
0.0
  0
LINE
  5
19b
100
AcDbEntity
  8
0
 62
7
100
AcDbLine
 10
25.978112
 20
212.223926
 30
0.0
 11
29.045908
 21
211.405845
 31
0.0
  0
LINE
  5
19c
100
AcDbEntity
  8
0
 62
7
100
AcDbLine
 10
17.717369
 20
256.342614
 30
0.0
 11
17.717369
 21
295.730115
 31
0.0
  0
LINE
  5
19d
100
AcDbEntity
  8
0
 62
7
100
AcDbLine
 10
17.717369
 20
305.730115
 30
0.0
 11
17.717369
 21
318.567615
 31
0.0
  0
LINE
  5
19e
100
AcDbEntity
  8
0
 62
7
100
AcDbLine
 10
24.537369
 20
318.567615
 30
0.0
 11
24.537369
 21
305.730115
 31
0.0
  0
LINE
  5
19f
100
AcDbEntity
  8
0
 62
7
100
AcDbLine
 10
24.537369
 20
295.730115
 30
0.0
 11
24.537369
 21
282.892615
 31
0.0
  0
LINE
  5
1a0
100
AcDbEntity
  8
0
 62
7
100
AcDbLine
 10
28.470194
 20
245.195082
 30
0.0
 11
25.162449
 21
232.791040
 31
0.0
  0
LINE
  5
1a1
100
AcDbEntity
  8
0
 62
7
100
AcDbLine
 10
22.585822
 20
223.128690
 30
0.0
 11
19.278078
 21
210.724648
 31
0.0
  0
LINE
  5
1a2
100
AcDbEntity
  8
0
 62
7
100
AcDbLine
 10
22.585822
 20
223.128690
 30
0.0
 11
25.653618
 21
222.310613
 31
0.0
  0
LINE
  5
1a3
100
AcDbEntity
  8
0
 62
7
100
AcDbLine
 10
27.717369
 20
305.730115
 30
0.0
 11
27.717369
 21
295.730115
 31
0.0
  0
LINE
  5
1a4
100
AcDbEntity
  8
0
 62
7
100
AcDbLine
 10
27.965020
 20
194.842692
 30
0.0
 11
27.965020
 21
201.667691
 31
0.0
  0
LINE
  5
1a5
100
AcDbEntity
  8
0
 62
7
100
AcDbLine
 10
30.877521
 20
191.667692
 30
0.0
 11
30.877521
 21
194.842692
 31
0.0
  0
LINE
  5
1a6
100
AcDbEntity
  8
0
 62
7
100
AcDbLine
 10
30.877521
 20
201.667691
 30
0.0
 11
30.877521
 21
204.842691
 31
0.0
  0
LINE
  5
1a7
100
AcDbEntity
  8
0
 62
7
100
AcDbLine
 10
34.052521
 20
204.842691
 30
0.0
 11
34.052521
 21
201.667691
 31
0.0
  0
LINE
  5
1a8
100
AcDbEntity
  8
0
 62
7
100
AcDbLine
 10
34.052521
 20
194.842692
 30
0.0
 11
34.052521
 21
191.667692
 31
0.0
  0
LINE
  5
1a9
100
AcDbEntity
  8
0
 62
7
100
AcDbLine
 10
28.230246
 20
231.972962
 30
0.0
 11
25.653618
 21
222.310613
 31
0.0
  0
LINE
  5
1aa
100
AcDbEntity
  8
0
 62
7
100
AcDbLine
 10
25.160033
 20
209.156128
 30
0.0
 11
25.978112
 21
212.223926
 31
0.0
  0
LINE
  5
1ab
100
AcDbEntity
  8
0
 62
7
100
AcDbLine
 10
28.227830
 20
208.338050
 30
0.0
 11
29.045908
 21
211.405845
 31
0.0
  0
LINE
  5
1ac
100
AcDbEntity
  8
0
 62
7
100
AcDbLine
 10
40.515224
 20
249.744236
 30
0.0
 11
41.333304
 21
252.812031
 31
0.0
  0
LINE
  5
1ad
100
AcDbEntity
  8
0
 62
7
100
AcDbLine
 10
50.351495
 20
286.630254
 30
0.0
 11
51.169576
 21
289.698050
 31
0.0
  0
LINE
  5
1ae
100
AcDbEntity
  8
0
 62
7
100
AcDbLine
 10
59.201572
 20
233.545273
 30
0.0
 11
62.376572
 21
233.545273
 31
0.0
  0
LINE
  5
1af
100
AcDbEntity
  8
0
 62
7
100
AcDbLine
 10
97.376570
 20
233.545273
 30
0.0
 11
100.551570
 21
233.545273
 31
0.0
  0
LINE
  5
1b0
100
AcDbEntity
  8
0
 62
7
100
AcDbLine
 10
25.162449
 20
232.791040
 30
0.0
 11
28.230246
 21
231.972962
 31
0.0
  0
LINE
  5
1b1
100
AcDbEntity
  8
0
 62
7
100
AcDbLine
 10
41.287299
 20
229.357846
 30
0.0
 11
44.355094
 21
228.539768
 31
0.0
  0
LINE
  5
1b2
100
AcDbEntity
  8
0
 62
7
100
AcDbLine
 10
35.656571
 20
172.567614
 30
0.0
 11
35.656571
 21
177.567615
 31
0.0
  0
LINE
  5
1b3
100
AcDbEntity
  8
0
 62
7
100
AcDbLine
 10
41.250021
 20
201.667691
 30
0.0
 11
41.250021
 21
194.842692
 31
0.0
  0
LINE
  5
1b4
100
AcDbEntity
  8
0
 62
7
100
AcDbLine
 10
42.736572
 20
208.242614
 30
0.0
 11
42.736572
 21
195.405115
 31
0.0
  0
LINE
  5
1b5
100
AcDbEntity
  8
0
 62
7
100
AcDbLine
 10
42.736572
 20
185.405116
 30
0.0
 11
42.736572
 21
177.567615
 31
0.0
  0
LINE
  5
1b6
100
AcDbEntity
  8
0
 62
7
100
AcDbLine
 10
35.187136
 20
206.482233
 30
0.0
 11
65.076572
 21
318.567615
 31
0.0
  0
LINE
  5
1b7
100
AcDbEntity
  8
0
 62
7
100
AcDbLine
 10
45.901071
 20
234.337177
 30
0.0
 11
44.355094
 21
228.539768
 31
0.0
  0
LINE
  5
1b8
100
AcDbEntity
  8
0
 62
7
100
AcDbLine
 10
59.201572
 20
239.545272
 30
0.0
 11
62.376572
 21
239.545272
 31
0.0
  0
LINE
  5
1b9
100
AcDbEntity
  8
0
 62
7
100
AcDbLine
 10
97.376570
 20
239.545272
 30
0.0
 11
100.551570
 21
239.545272
 31
0.0
  0
LINE
  5
1ba
100
AcDbEntity
  8
0
 62
7
100
AcDbLine
 10
42.833276
 20
235.155257
 30
0.0
 11
45.901071
 21
234.337177
 31
0.0
  0
LINE
  5
1bb
100
AcDbEntity
  8
0
 62
7
100
AcDbLine
 10
45.911572
 20
185.405116
 30
0.0
 11
45.911572
 21
195.405115
 31
0.0
  0
LINE
  5
1bc
100
AcDbEntity
  8
0
 62
7
100
AcDbLine
 10
48.824072
 20
172.567614
 30
0.0
 11
48.824072
 21
175.742614
 31
0.0
  0
LINE
  5
1bd
100
AcDbEntity
  8
0
 62
7
100
AcDbLine
 10
100.551570
 20
247.545273
 30
0.0
 11
97.376570
 21
247.545273
 31
0.0
  0
LINE
  5
1be
100
AcDbEntity
  8
0
 62
7
100
AcDbLine
 10
62.376572
 20
247.545273
 30
0.0
 11
59.201572
 21
247.545273
 31
0.0
  0
LINE
  5
1bf
100
AcDbEntity
  8
0
 62
7
100
AcDbLine
 10
44.379253
 20
240.952666
 30
0.0
 11
28.470194
 21
245.195082
 31
0.0
  0
LINE
  5
1c0
100
AcDbEntity
  8
0
 62
7
100
AcDbLine
 10
19.921733
 20
255.235834
 30
0.0
 11
45.145568
 21
243.826352
 31
0.0
  0
LINE
  5
1c1
100
AcDbEntity
  8
0
 62
7
100
AcDbLine
 10
51.999072
 20
172.567614
 30
0.0
 11
51.999072
 21
175.742614
 31
0.0
  0
LINE
  5
1c2
100
AcDbEntity
  8
0
 62
7
100
AcDbLine
 10
59.201572
 20
172.567614
 30
0.0
 11
59.201572
 21
174.067614
 31
0.0
  0
LINE
  5
1c3
100
AcDbEntity
  8
0
 62
7
100
AcDbLine
 10
59.201572
 20
186.067615
 30
0.0
 11
59.201572
 21
195.067614
 31
0.0
  0
LINE
  5
1c4
100
AcDbEntity
  8
0
 62
7
100
AcDbLine
 10
59.201572
 20
207.067616
 30
0.0
 11
59.201572
 21
233.545273
 31
0.0
  0
LINE
  5
1c5
100
AcDbEntity
  8
0
 62
7
100
AcDbLine
 10
59.201572
 20
239.545272
 30
0.0
 11
59.201572
 21
247.545273
 31
0.0
  0
LINE
  5
1c6
100
AcDbEntity
  8
0
 62
7
100
AcDbLine
 10
46.311490
 20
248.198564
 30
0.0
 11
40.515224
 21
249.744236
 31
0.0
  0
LINE
  5
1c7
100
AcDbEntity
  8
0
 62
7
100
AcDbLine
 10
22.723754
 20
254.488628
 30
0.0
 11
19.921733
 21
255.235834
 31
0.0
  0
LINE
  5
1c8
100
AcDbEntity
  8
0
 62
7
100
AcDbLine
 10
47.129570
 20
251.266362
 30
0.0
 11
41.333304
 21
252.812031
 31
0.0
  0
LINE
  5
1c9
100
AcDbEntity
  8
0
 62
7
100
AcDbLine
 10
18.952277
 20
258.780305
 30
0.0
 11
23.541833
 21
257.556423
 31
0.0
  0
LINE
  5
1ca
100
AcDbEntity
  8
0
 62
7
100
AcDbLine
 10
62.376572
 20
195.122899
 30
0.0
 11
62.376572
 21
195.067614
 31
0.0
  0
LINE
  5
1cb
100
AcDbEntity
  8
0
 62
7
100
AcDbLine
 10
62.376572
 20
186.067615
 30
0.0
 11
62.376572
 21
185.772332
 31
0.0
  0
LINE
  5
1cc
100
AcDbEntity
  8
0
 62
7
100
AcDbLine
 10
62.376572
 20
172.567614
 30
0.0
 11
62.376572
 21
174.067614
 31
0.0
  0
LINE
  5
1cd
100
AcDbEntity
  8
0
 62
7
100
AcDbLine
 10
62.376572
 20
207.067616
 30
0.0
 11
62.376572
 21
233.545273
 31
0.0
  0
LINE
  5
1ce
100
AcDbEntity
  8
0
 62
7
100
AcDbLine
 10
62.376572
 20
239.545272
 30
0.0
 11
62.376572
 21
247.545273
 31
0.0
  0
LINE
  5
1cf
100
AcDbEntity
  8
0
 62
7
100
AcDbLine
 10
67.376571
 20
318.567615
 30
0.0
 11
67.376571
 21
311.893507
 31
0.0
  0
LINE
  5
1d0
100
AcDbEntity
  8
0
 62
7
100
AcDbLine
 10
67.376571
 20
304.893507
 30
0.0
 11
67.376571
 21
296.893507
 31
0.0
  0
LINE
  5
1d1
100
AcDbEntity
  8
0
 62
7
100
AcDbLine
 10
70.551571
 20
318.567615
 30
0.0
 11
70.551571
 21
311.893507
 31
0.0
  0
LINE
  5
1d2
100
AcDbEntity
  8
0
 62
7
100
AcDbLine
 10
70.551571
 20
304.893507
 30
0.0
 11
70.551571
 21
296.893507
 31
0.0
  0
LINE
  5
1d3
100
AcDbEntity
  8
0
 62
7
100
AcDbLine
 10
56.147761
 20
285.084583
 30
0.0
 11
50.351495
 21
286.630254
 31
0.0
  0
LINE
  5
1d4
100
AcDbEntity
  8
0
 62
7
100
AcDbLine
 10
32.560026
 20
291.374646
 30
0.0
 11
27.970470
 21
292.598528
 31
0.0
  0
LINE
  5
1d5
100
AcDbEntity
  8
0
 62
7
100
AcDbLine
 10
97.376570
 20
172.567614
 30
0.0
 11
97.376570
 21
174.067614
 31
0.0
  0
LINE
  5
1d6
100
AcDbEntity
  8
0
 62
7
100
AcDbLine
 10
97.376570
 20
185.772332
 30
0.0
 11
97.376570
 21
186.067615
 31
0.0
  0
LINE
  5
1d7
100
AcDbEntity
  8
0
 62
7
100
AcDbLine
 10
97.376570
 20
195.067614
 30
0.0
 11
97.376570
 21
195.122899
 31
0.0
  0
LINE
  5
1d8
100
AcDbEntity
  8
0
 62
7
100
AcDbLine
 10
97.376570
 20
207.067616
 30
0.0
 11
97.376570
 21
233.545273
 31
0.0
  0
LINE
  5
1d9
100
AcDbEntity
  8
0
 62
7
100
AcDbLine
 10
97.376570
 20
239.545272
 30
0.0
 11
97.376570
 21
247.545273
 31
0.0
  0
LINE
  5
1da
100
AcDbEntity
  8
0
 62
7
100
AcDbLine
 10
98.726571
 20
318.567615
 30
0.0
 11
98.726571
 21
311.893507
 31
0.0
  0
LINE
  5
1db
100
AcDbEntity
  8
0
 62
7
100
AcDbLine
 10
98.726571
 20
304.893507
 30
0.0
 11
98.726571
 21
296.893507
 31
0.0
  0
LINE
  5
1dc
100
AcDbEntity
  8
0
 62
7
100
AcDbLine
 10
100.551570
 20
172.567614
 30
0.0
 11
100.551570
 21
174.067614
 31
0.0
  0
LINE
  5
1dd
100
AcDbEntity
  8
0
 62
7
100
AcDbLine
 10
100.551570
 20
186.067615
 30
0.0
 11
100.551570
 21
195.067614
 31
0.0
  0
LINE
  5
1de
100
AcDbEntity
  8
0
 62
7
100
AcDbLine
 10
100.551570
 20
207.067616
 30
0.0
 11
100.551570
 21
233.545273
 31
0.0
  0
LINE
  5
1df
100
AcDbEntity
  8
0
 62
7
100
AcDbLine
 10
100.551570
 20
239.545272
 30
0.0
 11
100.551570
 21
247.545273
 31
0.0
  0
LINE
  5
1e0
100
AcDbEntity
  8
0
 62
7
100
AcDbLine
 10
101.901571
 20
318.567615
 30
0.0
 11
101.901571
 21
311.893507
 31
0.0
  0
LINE
  5
1e1
100
AcDbEntity
  8
0
 62
7
100
AcDbLine
 10
101.901571
 20
304.893507
 30
0.0
 11
101.901571
 21
296.893507
 31
0.0
  0
LINE
  5
1e2
100
AcDbEntity
  8
0
 62
7
100
AcDbLine
 10
27.717369
 20
295.730115
 30
0.0
 11
24.537369
 21
295.730115
 31
0.0
  0
LINE
  5
1e3
100
AcDbEntity
  8
0
 62
7
100
AcDbLine
 10
17.717369
 20
295.730115
 30
0.0
 11
14.537369
 21
295.730115
 31
0.0
  0
LINE
  5
1e4
100
AcDbEntity
  8
0
 62
7
100
AcDbLine
 10
67.376571
 20
296.893507
 30
0.0
 11
70.551571
 21
296.893507
 31
0.0
  0
LINE
  5
1e5
100
AcDbEntity
  8
0
 62
7
100
AcDbLine
 10
98.726571
 20
296.893507
 30
0.0
 11
101.901571
 21
296.893507
 31
0.0
  0
LINE
  5
1e6
100
AcDbEntity
  8
0
 62
7
100
AcDbLine
 10
56.965842
 20
288.152379
 30
0.0
 11
51.169576
 21
289.698050
 31
0.0
  0
LINE
  5
1e7
100
AcDbEntity
  8
0
 62
7
100
AcDbLine
 10
33.378106
 20
294.442442
 30
0.0
 11
30.479461
 21
295.215414
 31
0.0
  0
LINE
  5
1e8
100
AcDbEntity
  8
0
 62
7
100
AcDbLine
 10
105.076571
 20
172.567614
 30
0.0
 11
105.076571
 21
318.567615
 31
0.0
  0
LINE
  5
1e9
100
AcDbEntity
  8
0
 62
7
100
AcDbLine
 10
67.376571
 20
304.893507
 30
0.0
 11
70.551571
 21
304.893507
 31
0.0
  0
LINE
  5
1ea
100
AcDbEntity
  8
0
 62
7
100
AcDbLine
 10
98.726571
 20
304.893507
 30
0.0
 11
101.901571
 21
304.893507
 31
0.0
  0
LINE
  5
1eb
100
AcDbEntity
  8
0
 62
7
100
AcDbLine
 10
14.537369
 20
305.730115
 30
0.0
 11
17.717369
 21
305.730115
 31
0.0
  0
LINE
  5
1ec
100
AcDbEntity
  8
0
 62
7
100
AcDbLine
 10
24.537369
 20
305.730115
 30
0.0
 11
27.717369
 21
305.730115
 31
0.0
  0
LINE
  5
1ed
100
AcDbEntity
  8
0
 62
7
100
AcDbLine
 10
67.376571
 20
311.893507
 30
0.0
 11
70.551571
 21
311.893507
 31
0.0
  0
LINE
  5
1ee
100
AcDbEntity
  8
0
 62
7
100
AcDbLine
 10
98.726571
 20
311.893507
 30
0.0
 11
101.901571
 21
311.893507
 31
0.0
  0
LINE
  5
1ef
100
AcDbEntity
  8
0
 62
7
100
AcDbLine
 10
61.208257
 20
304.061437
 30
0.0
 11
34.721876
 21
311.124472
 31
0.0
  0
LINE
  5
1f0
100
AcDbEntity
  8
0
 62
7
100
AcDbLine
 10
105.076571
 20
318.567615
 30
0.0
 11
101.901571
 21
318.567615
 31
0.0
  0
LINE
  5
1f1
100
AcDbEntity
  8
0
 62
7
100
AcDbLine
 10
98.726571
 20
318.567615
 30
0.0
 11
70.551571
 21
318.567615
 31
0.0
  0
LINE
  5
1f2
100
AcDbEntity
  8
0
 62
7
100
AcDbLine
 10
67.376571
 20
318.567615
 30
0.0
 11
65.076572
 21
318.567615
 31
0.0
  0
LINE
  5
1f3
100
AcDbEntity
  8
0
 62
7
100
AcDbLine
 10
17.717369
 20
318.567615
 30
0.0
 11
24.537369
 21
318.567615
 31
0.0
  0
LINE
  5
1f4
100
AcDbEntity
  8
0
 62
7
100
AcDbLine
 10
203.000243
 20
18.737329
 30
0.0
 11
196.180242
 21
18.737329
 31
0.0
  0
LINE
  5
1f5
100
AcDbEntity
  8
0
 62
7
100
AcDbLine
 10
115.641041
 20
18.737329
 30
0.0
 11
118.816041
 21
18.737329
 31
0.0
  0
LINE
  5
1f6
100
AcDbEntity
  8
0
 62
7
100
AcDbLine
 10
121.991041
 20
18.737329
 30
0.0
 11
150.166042
 21
18.737329
 31
0.0
  0
LINE
  5
1f7
100
AcDbEntity
  8
0
 62
7
100
AcDbLine
 10
153.341042
 20
18.737329
 30
0.0
 11
155.641040
 21
18.737329
 31
0.0
  0
LINE
  5
1f8
100
AcDbEntity
  8
0
 62
7
100
AcDbLine
 10
153.341042
 20
25.411438
 30
0.0
 11
150.166042
 21
25.411438
 31
0.0
  0
LINE
  5
1f9
100
AcDbEntity
  8
0
 62
7
100
AcDbLine
 10
121.991041
 20
25.411438
 30
0.0
 11
118.816041
 21
25.411438
 31
0.0
  0
LINE
  5
1fa
100
AcDbEntity
  8
0
 62
7
100
AcDbLine
 10
159.509356
 20
33.243506
 30
0.0
 11
185.995736
 21
26.180471
 31
0.0
  0
LINE
  5
1fb
100
AcDbEntity
  8
0
 62
7
100
AcDbLine
 10
115.641041
 20
164.737330
 30
0.0
 11
115.641041
 21
18.737329
 31
0.0
  0
LINE
  5
1fc
100
AcDbEntity
  8
0
 62
7
100
AcDbLine
 10
118.816041
 20
18.737329
 30
0.0
 11
118.816041
 21
25.411438
 31
0.0
  0
LINE
  5
1fd
100
AcDbEntity
  8
0
 62
7
100
AcDbLine
 10
118.816041
 20
32.411439
 30
0.0
 11
118.816041
 21
40.411437
 31
0.0
  0
LINE
  5
1fe
100
AcDbEntity
  8
0
 62
7
100
AcDbLine
 10
120.166040
 20
164.737330
 30
0.0
 11
120.166040
 21
163.237331
 31
0.0
  0
LINE
  5
1ff
100
AcDbEntity
  8
0
 62
7
100
AcDbLine
 10
120.166040
 20
151.237329
 30
0.0
 11
120.166040
 21
139.237328
 31
0.0
  0
LINE
  5
200
100
AcDbEntity
  8
0
 62
7
100
AcDbLine
 10
120.166040
 20
127.237329
 30
0.0
 11
120.166040
 21
103.759672
 31
0.0
  0
LINE
  5
201
100
AcDbEntity
  8
0
 62
7
100
AcDbLine
 10
120.166040
 20
97.759672
 30
0.0
 11
120.166040
 21
89.759671
 31
0.0
  0
LINE
  5
202
100
AcDbEntity
  8
0
 62
7
100
AcDbLine
 10
206.180244
 20
31.574830
 30
0.0
 11
203.000243
 21
31.574830
 31
0.0
  0
LINE
  5
203
100
AcDbEntity
  8
0
 62
7
100
AcDbLine
 10
196.180242
 20
31.574830
 30
0.0
 11
193.000243
 21
31.574830
 31
0.0
  0
LINE
  5
204
100
AcDbEntity
  8
0
 62
7
100
AcDbLine
 10
153.341042
 20
32.411439
 30
0.0
 11
150.166042
 21
32.411439
 31
0.0
  0
LINE
  5
205
100
AcDbEntity
  8
0
 62
7
100
AcDbLine
 10
121.991041
 20
32.411439
 30
0.0
 11
118.816041
 21
32.411439
 31
0.0
  0
LINE
  5
206
100
AcDbEntity
  8
0
 62
7
100
AcDbLine
 10
121.991041
 20
18.737329
 30
0.0
 11
121.991041
 21
25.411438
 31
0.0
  0
LINE
  5
207
100
AcDbEntity
  8
0
 62
7
100
AcDbLine
 10
121.991041
 20
32.411439
 30
0.0
 11
121.991041
 21
40.411437
 31
0.0
  0
LINE
  5
208
100
AcDbEntity
  8
0
 62
7
100
AcDbLine
 10
123.341040
 20
164.737330
 30
0.0
 11
123.341040
 21
163.237331
 31
0.0
  0
LINE
  5
209
100
AcDbEntity
  8
0
 62
7
100
AcDbLine
 10
123.341040
 20
151.532613
 30
0.0
 11
123.341040
 21
151.237329
 31
0.0
  0
LINE
  5
20a
100
AcDbEntity
  8
0
 62
7
100
AcDbLine
 10
123.341040
 20
142.182046
 30
0.0
 11
123.341040
 21
139.237328
 31
0.0
  0
LINE
  5
20b
100
AcDbEntity
  8
0
 62
7
100
AcDbLine
 10
123.341040
 20
127.237329
 30
0.0
 11
123.341040
 21
103.759672
 31
0.0
  0
LINE
  5
20c
100
AcDbEntity
  8
0
 62
7
100
AcDbLine
 10
123.341040
 20
97.759672
 30
0.0
 11
123.341040
 21
89.759671
 31
0.0
  0
LINE
  5
20d
100
AcDbEntity
  8
0
 62
7
100
AcDbLine
 10
153.341042
 20
40.411437
 30
0.0
 11
150.166042
 21
40.411437
 31
0.0
  0
LINE
  5
20e
100
AcDbEntity
  8
0
 62
7
100
AcDbLine
 10
121.991041
 20
40.411437
 30
0.0
 11
118.816041
 21
40.411437
 31
0.0
  0
LINE
  5
20f
100
AcDbEntity
  8
0
 62
7
100
AcDbLine
 10
193.000243
 20
41.574830
 30
0.0
 11
196.180242
 21
41.574830
 31
0.0
  0
LINE
  5
210
100
AcDbEntity
  8
0
 62
7
100
AcDbLine
 10
203.000243
 20
41.574830
 30
0.0
 11
206.180244
 21
41.574830
 31
0.0
  0
LINE
  5
211
100
AcDbEntity
  8
0
 62
7
100
AcDbLine
 10
163.751771
 20
49.152564
 30
0.0
 11
169.548037
 21
47.606895
 31
0.0
  0
LINE
  5
212
100
AcDbEntity
  8
0
 62
7
100
AcDbLine
 10
187.339506
 20
42.862503
 30
0.0
 11
190.238151
 21
42.089530
 31
0.0
  0
LINE
  5
213
100
AcDbEntity
  8
0
 62
7
100
AcDbLine
 10
164.569848
 20
52.220362
 30
0.0
 11
170.366114
 21
50.674691
 31
0.0
  0
LINE
  5
214
100
AcDbEntity
  8
0
 62
7
100
AcDbLine
 10
188.157587
 20
45.930298
 30
0.0
 11
192.747141
 21
44.706416
 31
0.0
  0
LINE
  5
215
100
AcDbEntity
  8
0
 62
7
100
AcDbLine
 10
150.166042
 20
18.737329
 30
0.0
 11
150.166042
 21
25.411438
 31
0.0
  0
LINE
  5
216
100
AcDbEntity
  8
0
 62
7
100
AcDbLine
 10
150.166042
 20
32.411439
 30
0.0
 11
150.166042
 21
40.411437
 31
0.0
  0
LINE
  5
217
100
AcDbEntity
  8
0
 62
7
100
AcDbLine
 10
153.341042
 20
18.737329
 30
0.0
 11
153.341042
 21
25.411438
 31
0.0
  0
LINE
  5
218
100
AcDbEntity
  8
0
 62
7
100
AcDbLine
 10
153.341042
 20
32.411439
 30
0.0
 11
153.341042
 21
40.411437
 31
0.0
  0
LINE
  5
219
100
AcDbEntity
  8
0
 62
7
100
AcDbLine
 10
158.341040
 20
164.737330
 30
0.0
 11
158.341040
 21
163.237331
 31
0.0
  0
LINE
  5
21a
100
AcDbEntity
  8
0
 62
7
100
AcDbLine
 10
158.341040
 20
142.182046
 30
0.0
 11
158.341040
 21
139.237328
 31
0.0
  0
LINE
  5
21b
100
AcDbEntity
  8
0
 62
7
100
AcDbLine
 10
158.341040
 20
127.237329
 30
0.0
 11
158.341040
 21
103.759672
 31
0.0
  0
LINE
  5
21c
100
AcDbEntity
  8
0
 62
7
100
AcDbLine
 10
158.341040
 20
97.759672
 30
0.0
 11
158.341040
 21
89.759671
 31
0.0
  0
LINE
  5
21d
100
AcDbEntity
  8
0
 62
7
100
AcDbLine
 10
158.341040
 20
151.237329
 30
0.0
 11
158.341040
 21
151.532613
 31
0.0
  0
LINE
  5
21e
100
AcDbEntity
  8
0
 62
7
100
AcDbLine
 10
161.516040
 20
164.737330
 30
0.0
 11
161.516040
 21
163.237331
 31
0.0
  0
LINE
  5
21f
100
AcDbEntity
  8
0
 62
7
100
AcDbLine
 10
161.516040
 20
151.237329
 30
0.0
 11
161.516040
 21
139.237328
 31
0.0
  0
LINE
  5
220
100
AcDbEntity
  8
0
 62
7
100
AcDbLine
 10
161.516040
 20
127.237329
 30
0.0
 11
161.516040
 21
103.759672
 31
0.0
  0
LINE
  5
221
100
AcDbEntity
  8
0
 62
7
100
AcDbLine
 10
161.516040
 20
97.759672
 30
0.0
 11
161.516040
 21
89.759671
 31
0.0
  0
LINE
  5
222
100
AcDbEntity
  8
0
 62
7
100
AcDbLine
 10
168.718540
 20
164.737330
 30
0.0
 11
168.718540
 21
161.562330
 31
0.0
  0
LINE
  5
223
100
AcDbEntity
  8
0
 62
7
100
AcDbLine
 10
201.765335
 20
78.524639
 30
0.0
 11
197.175778
 21
79.748521
 31
0.0
  0
LINE
  5
224
100
AcDbEntity
  8
0
 62
7
100
AcDbLine
 10
173.588042
 20
86.038583
 30
0.0
 11
179.384308
 21
84.492914
 31
0.0
  0
LINE
  5
225
100
AcDbEntity
  8
0
 62
7
100
AcDbLine
 10
174.406120
 20
89.106381
 30
0.0
 11
180.202386
 21
87.560709
 31
0.0
  0
LINE
  5
226
100
AcDbEntity
  8
0
 62
7
100
AcDbLine
 10
197.993858
 20
82.816316
 30
0.0
 11
200.795879
 21
82.069110
 31
0.0
  0
LINE
  5
227
100
AcDbEntity
  8
0
 62
7
100
AcDbLine
 10
200.795879
 20
82.069110
 30
0.0
 11
175.572045
 21
93.478593
 31
0.0
  0
LINE
  5
228
100
AcDbEntity
  8
0
 62
7
100
AcDbLine
 10
171.893540
 20
164.737330
 30
0.0
 11
171.893540
 21
161.562330
 31
0.0
  0
LINE
  5
229
100
AcDbEntity
  8
0
 62
7
100
AcDbLine
 10
174.806040
 20
151.899829
 30
0.0
 11
174.806040
 21
141.899829
 31
0.0
  0
LINE
  5
22a
100
AcDbEntity
  8
0
 62
7
100
AcDbLine
 10
177.981040
 20
129.062330
 30
0.0
 11
177.981040
 21
141.899829
 31
0.0
  0
LINE
  5
22b
100
AcDbEntity
  8
0
 62
7
100
AcDbLine
 10
177.981040
 20
151.899829
 30
0.0
 11
177.981040
 21
159.737329
 31
0.0
  0
LINE
  5
22c
100
AcDbEntity
  8
0
 62
7
100
AcDbLine
 10
179.467592
 20
135.637253
 30
0.0
 11
179.467592
 21
142.462253
 31
0.0
  0
LINE
  5
22d
100
AcDbEntity
  8
0
 62
7
100
AcDbLine
 10
174.816541
 20
102.967767
 30
0.0
 11
176.362515
 21
108.765176
 31
0.0
  0
LINE
  5
22e
100
AcDbEntity
  8
0
 62
7
100
AcDbLine
 10
120.166040
 20
89.759671
 30
0.0
 11
123.341040
 21
89.759671
 31
0.0
  0
LINE
  5
22f
100
AcDbEntity
  8
0
 62
7
100
AcDbLine
 10
158.341040
 20
89.759671
 30
0.0
 11
161.516040
 21
89.759671
 31
0.0
  0
LINE
  5
230
100
AcDbEntity
  8
0
 62
7
100
AcDbLine
 10
176.338360
 20
96.352278
 30
0.0
 11
192.247418
 21
92.109863
 31
0.0
  0
LINE
  5
231
100
AcDbEntity
  8
0
 62
7
100
AcDbLine
 10
185.061042
 20
164.737330
 30
0.0
 11
185.061042
 21
159.737329
 31
0.0
  0
LINE
  5
232
100
AcDbEntity
  8
0
 62
7
100
AcDbLine
 10
186.665091
 20
132.462253
 30
0.0
 11
186.665091
 21
135.637253
 31
0.0
  0
LINE
  5
233
100
AcDbEntity
  8
0
 62
7
100
AcDbLine
 10
186.665091
 20
142.462253
 30
0.0
 11
186.665091
 21
145.637253
 31
0.0
  0
LINE
  5
234
100
AcDbEntity
  8
0
 62
7
100
AcDbLine
 10
155.641040
 20
18.737329
 30
0.0
 11
185.530476
 21
130.822711
 31
0.0
  0
LINE
  5
235
100
AcDbEntity
  8
0
 62
7
100
AcDbLine
 10
180.202386
 20
87.560709
 30
0.0
 11
179.384308
 21
84.492914
 31
0.0
  0
LINE
  5
236
100
AcDbEntity
  8
0
 62
7
100
AcDbLine
 10
170.366114
 20
50.674691
 30
0.0
 11
169.548037
 21
47.606895
 31
0.0
  0
LINE
  5
237
100
AcDbEntity
  8
0
 62
7
100
AcDbLine
 10
120.166040
 20
97.759672
 30
0.0
 11
123.341040
 21
97.759672
 31
0.0
  0
LINE
  5
238
100
AcDbEntity
  8
0
 62
7
100
AcDbLine
 10
158.341040
 20
97.759672
 30
0.0
 11
161.516040
 21
97.759672
 31
0.0
  0
LINE
  5
239
100
AcDbEntity
  8
0
 62
7
100
AcDbLine
 10
120.166040
 20
103.759672
 30
0.0
 11
123.341040
 21
103.759672
 31
0.0
  0
LINE
  5
23a
100
AcDbEntity
  8
0
 62
7
100
AcDbLine
 10
158.341040
 20
103.759672
 30
0.0
 11
161.516040
 21
103.759672
 31
0.0
  0
LINE
  5
23b
100
AcDbEntity
  8
0
 62
7
100
AcDbLine
 10
177.884336
 20
102.149687
 30
0.0
 11
174.816541
 21
102.967767
 31
0.0
  0
LINE
  5
23c
100
AcDbEntity
  8
0
 62
7
100
AcDbLine
 10
179.430313
 20
107.947099
 30
0.0
 11
176.362515
 21
108.765176
 31
0.0
  0
LINE
  5
23d
100
AcDbEntity
  8
0
 62
7
100
AcDbLine
 10
195.555164
 20
104.513905
 30
0.0
 11
192.487367
 21
105.331982
 31
0.0
  0
LINE
  5
23e
100
AcDbEntity
  8
0
 62
7
100
AcDbLine
 10
189.840091
 20
145.637253
 30
0.0
 11
189.840091
 21
142.462253
 31
0.0
  0
LINE
  5
23f
100
AcDbEntity
  8
0
 62
7
100
AcDbLine
 10
189.840091
 20
135.637253
 30
0.0
 11
189.840091
 21
132.462253
 31
0.0
  0
LINE
  5
240
100
AcDbEntity
  8
0
 62
7
100
AcDbLine
 10
192.752591
 20
142.462253
 30
0.0
 11
192.752591
 21
135.637253
 31
0.0
  0
LINE
  5
241
100
AcDbEntity
  8
0
 62
7
100
AcDbLine
 10
193.000243
 20
31.574830
 30
0.0
 11
193.000243
 21
41.574830
 31
0.0
  0
LINE
  5
242
100
AcDbEntity
  8
0
 62
7
100
AcDbLine
 10
196.180242
 20
18.737329
 30
0.0
 11
196.180242
 21
31.574830
 31
0.0
  0
LINE
  5
243
100
AcDbEntity
  8
0
 62
7
100
AcDbLine
 10
196.180242
 20
41.574830
 30
0.0
 11
196.180242
 21
54.412329
 31
0.0
  0
LINE
  5
244
100
AcDbEntity
  8
0
 62
7
100
AcDbLine
 10
192.489782
 20
128.966894
 30
0.0
 11
191.671705
 21
125.899099
 31
0.0
  0
LINE
  5
245
100
AcDbEntity
  8
0
 62
7
100
AcDbLine
 10
195.557577
 20
128.148817
 30
0.0
 11
194.739500
 21
125.081022
 31
0.0
  0
LINE
  5
246
100
AcDbEntity
  8
0
 62
7
100
AcDbLine
 10
192.487367
 20
105.331982
 30
0.0
 11
195.063993
 21
114.994332
 31
0.0
  0
LINE
  5
247
100
AcDbEntity
  8
0
 62
7
100
AcDbLine
 10
203.000243
 20
80.962328
 30
0.0
 11
203.000243
 21
41.574830
 31
0.0
  0
LINE
  5
248
100
AcDbEntity
  8
0
 62
7
100
AcDbLine
 10
203.000243
 20
31.574830
 30
0.0
 11
203.000243
 21
18.737329
 31
0.0
  0
LINE
  5
249
100
AcDbEntity
  8
0
 62
7
100
AcDbLine
 10
192.247418
 20
92.109863
 30
0.0
 11
195.555164
 21
104.513905
 31
0.0
  0
LINE
  5
24a
100
AcDbEntity
  8
0
 62
7
100
AcDbLine
 10
198.131788
 20
114.176254
 30
0.0
 11
201.439534
 21
126.580296
 31
0.0
  0
LINE
  5
24b
100
AcDbEntity
  8
0
 62
7
100
AcDbLine
 10
198.131788
 20
114.176254
 30
0.0
 11
195.063993
 21
114.994332
 31
0.0
  0
LINE
  5
24c
100
AcDbEntity
  8
0
 62
7
100
AcDbLine
 10
206.180244
 20
41.574830
 30
0.0
 11
206.180244
 21
31.574830
 31
0.0
  0
LINE
  5
24d
100
AcDbEntity
  8
0
 62
7
100
AcDbLine
 10
203.000243
 20
80.962328
 30
0.0
 11
196.180242
 21
54.412329
 31
0.0
  0
LINE
  5
24e
100
AcDbEntity
  8
0
 62
7
100
AcDbLine
 10
187.339506
 20
42.862503
 30
0.0
 11
188.157587
 21
45.930298
 31
0.0
  0
LINE
  5
24f
100
AcDbEntity
  8
0
 62
7
100
AcDbLine
 10
197.175778
 20
79.748521
 30
0.0
 11
197.993858
 21
82.816316
 31
0.0
  0
LINE
  5
250
100
AcDbEntity
  8
0
 62
7
100
AcDbLine
 10
185.995736
 20
26.180471
 30
0.0
 11
190.238151
 21
42.089530
 31
0.0
  0
LINE
  5
251
100
AcDbEntity
  8
0
 62
7
100
AcDbLine
 10
201.765335
 20
78.524639
 30
0.0
 11
192.747141
 21
44.706416
 31
0.0
  0
LINE
  5
252
100
AcDbEntity
  8
0
 62
7
100
AcDbLine
 10
120.166040
 20
127.237329
 30
0.0
 11
123.341040
 21
127.237329
 31
0.0
  0
LINE
  5
253
100
AcDbEntity
  8
0
 62
7
100
AcDbLine
 10
158.341040
 20
127.237329
 30
0.0
 11
161.516040
 21
127.237329
 31
0.0
  0
LINE
  5
254
100
AcDbEntity
  8
0
 62
7
100
AcDbLine
 10
185.061042
 20
129.062330
 30
0.0
 11
177.981040
 21
129.062330
 31
0.0
  0
LINE
  5
255
100
AcDbEntity
  8
0
 62
7
100
AcDbLine
 10
194.739500
 20
125.081022
 30
0.0
 11
191.671705
 21
125.899099
 31
0.0
  0
LINE
  5
256
100
AcDbEntity
  8
0
 62
7
100
AcDbLine
 10
201.439534
 20
126.580296
 30
0.0
 11
195.557577
 21
128.148817
 31
0.0
  0
LINE
  5
257
100
AcDbEntity
  8
0
 62
7
100
AcDbLine
 10
192.489782
 20
128.966894
 30
0.0
 11
185.530476
 21
130.822711
 31
0.0
  0
LINE
  5
258
100
AcDbEntity
  8
0
 62
7
100
AcDbLine
 10
189.840091
 20
132.462253
 30
0.0
 11
186.665091
 21
132.462253
 31
0.0
  0
LINE
  5
259
100
AcDbEntity
  8
0
 62
7
100
AcDbLine
 10
192.752591
 20
135.637253
 30
0.0
 11
189.840091
 21
135.637253
 31
0.0
  0
LINE
  5
25a
100
AcDbEntity
  8
0
 62
7
100
AcDbLine
 10
186.665091
 20
135.637253
 30
0.0
 11
179.467592
 21
135.637253
 31
0.0
  0
LINE
  5
25b
100
AcDbEntity
  8
0
 62
7
100
AcDbLine
 10
120.166040
 20
139.237328
 30
0.0
 11
123.341040
 21
139.237328
 31
0.0
  0
LINE
  5
25c
100
AcDbEntity
  8
0
 62
7
100
AcDbLine
 10
158.341040
 20
139.237328
 30
0.0
 11
161.516040
 21
139.237328
 31
0.0
  0
LINE
  5
25d
100
AcDbEntity
  8
0
 62
7
100
AcDbLine
 10
174.806040
 20
141.899829
 30
0.0
 11
177.981040
 21
141.899829
 31
0.0
  0
LINE
  5
25e
100
AcDbEntity
  8
0
 62
7
100
AcDbLine
 10
123.341040
 20
142.182046
 30
0.0
 11
158.341040
 21
142.182046
 31
0.0
  0
LINE
  5
25f
100
AcDbEntity
  8
0
 62
7
100
AcDbLine
 10
179.467592
 20
142.462253
 30
0.0
 11
186.665091
 21
142.462253
 31
0.0
  0
LINE
  5
260
100
AcDbEntity
  8
0
 62
7
100
AcDbLine
 10
189.840091
 20
142.462253
 30
0.0
 11
192.752591
 21
142.462253
 31
0.0
  0
LINE
  5
261
100
AcDbEntity
  8
0
 62
7
100
AcDbLine
 10
186.665091
 20
145.637253
 30
0.0
 11
189.840091
 21
145.637253
 31
0.0
  0
LINE
  5
262
100
AcDbEntity
  8
0
 62
7
100
AcDbLine
 10
120.166040
 20
151.237329
 30
0.0
 11
123.341040
 21
151.237329
 31
0.0
  0
LINE
  5
263
100
AcDbEntity
  8
0
 62
7
100
AcDbLine
 10
158.341040
 20
151.237329
 30
0.0
 11
161.516040
 21
151.237329
 31
0.0
  0
LINE
  5
264
100
AcDbEntity
  8
0
 62
7
100
AcDbLine
 10
158.341040
 20
151.532613
 30
0.0
 11
123.341040
 21
151.532613
 31
0.0
  0
LINE
  5
265
100
AcDbEntity
  8
0
 62
7
100
AcDbLine
 10
174.806040
 20
151.899829
 30
0.0
 11
177.981040
 21
151.899829
 31
0.0
  0
LINE
  5
266
100
AcDbEntity
  8
0
 62
7
100
AcDbLine
 10
177.981040
 20
159.737329
 30
0.0
 11
185.061042
 21
159.737329
 31
0.0
  0
LINE
  5
267
100
AcDbEntity
  8
0
 62
7
100
AcDbLine
 10
171.893540
 20
161.562330
 30
0.0
 11
168.718540
 21
161.562330
 31
0.0
  0
LINE
  5
268
100
AcDbEntity
  8
0
 62
7
100
AcDbLine
 10
120.166040
 20
163.237331
 30
0.0
 11
123.341040
 21
163.237331
 31
0.0
  0
LINE
  5
269
100
AcDbEntity
  8
0
 62
7
100
AcDbLine
 10
158.341040
 20
163.237331
 30
0.0
 11
161.516040
 21
163.237331
 31
0.0
  0
LINE
  5
26a
100
AcDbEntity
  8
0
 62
7
100
AcDbLine
 10
185.061042
 20
164.737330
 30
0.0
 11
171.893540
 21
164.737330
 31
0.0
  0
LINE
  5
26b
100
AcDbEntity
  8
0
 62
7
100
AcDbLine
 10
168.718540
 20
164.737330
 30
0.0
 11
161.516040
 21
164.737330
 31
0.0
  0
LINE
  5
26c
100
AcDbEntity
  8
0
 62
7
100
AcDbLine
 10
158.341040
 20
164.737330
 30
0.0
 11
123.341040
 21
164.737330
 31
0.0
  0
LINE
  5
26d
100
AcDbEntity
  8
0
 62
7
100
AcDbLine
 10
120.166040
 20
164.737330
 30
0.0
 11
115.641041
 21
164.737330
 31
0.0
  0
LINE
  5
26e
100
AcDbEntity
  8
0
 62
7
100
AcDbLine
 10
105.200433
 20
18.460568
 30
0.0
 11
102.025433
 21
18.460568
 31
0.0
  0
LINE
  5
26f
100
AcDbEntity
  8
0
 62
7
100
AcDbLine
 10
98.850433
 20
18.460568
 30
0.0
 11
70.675432
 21
18.460568
 31
0.0
  0
LINE
  5
270
100
AcDbEntity
  8
0
 62
7
100
AcDbLine
 10
67.500432
 20
18.460568
 30
0.0
 11
65.200434
 21
18.460568
 31
0.0
  0
LINE
  5
271
100
AcDbEntity
  8
0
 62
7
100
AcDbLine
 10
17.841231
 20
18.460568
 30
0.0
 11
24.661231
 21
18.460568
 31
0.0
  0
LINE
  5
272
100
AcDbEntity
  8
0
 62
7
100
AcDbLine
 10
61.332118
 20
32.966745
 30
0.0
 11
34.845738
 21
25.903710
 31
0.0
  0
LINE
  5
273
100
AcDbEntity
  8
0
 62
7
100
AcDbLine
 10
67.500432
 20
25.134674
 30
0.0
 11
70.675432
 21
25.134674
 31
0.0
  0
LINE
  5
274
100
AcDbEntity
  8
0
 62
7
100
AcDbLine
 10
98.850433
 20
25.134674
 30
0.0
 11
102.025433
 21
25.134674
 31
0.0
  0
LINE
  5
275
100
AcDbEntity
  8
0
 62
7
100
AcDbLine
 10
14.661231
 20
31.298066
 30
0.0
 11
17.841231
 21
31.298066
 31
0.0
  0
LINE
  5
276
100
AcDbEntity
  8
0
 62
7
100
AcDbLine
 10
24.661231
 20
31.298066
 30
0.0
 11
27.841232
 21
31.298066
 31
0.0
  0
LINE
  5
277
100
AcDbEntity
  8
0
 62
7
100
AcDbLine
 10
67.500432
 20
32.134675
 30
0.0
 11
70.675432
 21
32.134675
 31
0.0
  0
LINE
  5
278
100
AcDbEntity
  8
0
 62
7
100
AcDbLine
 10
98.850433
 20
32.134675
 30
0.0
 11
102.025433
 21
32.134675
 31
0.0
  0
LINE
  5
279
100
AcDbEntity
  8
0
 62
7
100
AcDbLine
 10
57.089703
 20
48.875803
 30
0.0
 11
51.292895
 21
47.329987
 31
0.0
  0
LINE
  5
27a
100
AcDbEntity
  8
0
 62
7
100
AcDbLine
 10
33.501426
 20
42.585595
 30
0.0
 11
30.603323
 21
41.812766
 31
0.0
  0
LINE
  5
27b
100
AcDbEntity
  8
0
 62
7
100
AcDbLine
 10
56.271626
 20
51.943598
 30
0.0
 11
50.474818
 21
50.397783
 31
0.0
  0
LINE
  5
27c
100
AcDbEntity
  8
0
 62
7
100
AcDbLine
 10
28.094332
 20
44.429655
 30
0.0
 11
32.683346
 21
45.653390
 31
0.0
  0
LINE
  5
27d
100
AcDbEntity
  8
0
 62
7
100
AcDbLine
 10
102.025433
 20
40.134675
 30
0.0
 11
98.850433
 21
40.134675
 31
0.0
  0
LINE
  5
27e
100
AcDbEntity
  8
0
 62
7
100
AcDbLine
 10
70.675432
 20
40.134675
 30
0.0
 11
67.500432
 21
40.134675
 31
0.0
  0
LINE
  5
27f
100
AcDbEntity
  8
0
 62
7
100
AcDbLine
 10
27.841232
 20
41.298066
 30
0.0
 11
24.661231
 21
41.298066
 31
0.0
  0
LINE
  5
280
100
AcDbEntity
  8
0
 62
7
100
AcDbLine
 10
17.841231
 20
41.298066
 30
0.0
 11
14.661231
 21
41.298066
 31
0.0
  0
LINE
  5
281
100
AcDbEntity
  8
0
 62
7
100
AcDbLine
 10
47.253432
 20
85.761822
 30
0.0
 11
41.456624
 21
84.216006
 31
0.0
  0
LINE
  5
282
100
AcDbEntity
  8
0
 62
7
100
AcDbLine
 10
23.665154
 20
79.471613
 30
0.0
 11
19.076139
 21
78.247878
 31
0.0
  0
LINE
  5
283
100
AcDbEntity
  8
0
 62
7
100
AcDbLine
 10
46.435354
 20
88.829617
 30
0.0
 11
40.638544
 21
87.283801
 31
0.0
  0
LINE
  5
284
100
AcDbEntity
  8
0
 62
7
100
AcDbLine
 10
22.847075
 20
82.539408
 30
0.0
 11
20.045595
 21
81.792349
 31
0.0
  0
LINE
  5
285
100
AcDbEntity
  8
0
 62
7
100
AcDbLine
 10
44.503114
 20
96.075517
 30
0.0
 11
28.594056
 21
91.833102
 31
0.0
  0
LINE
  5
286
100
AcDbEntity
  8
0
 62
7
100
AcDbLine
 10
59.325434
 20
89.482910
 30
0.0
 11
62.500434
 21
89.482910
 31
0.0
  0
LINE
  5
287
100
AcDbEntity
  8
0
 62
7
100
AcDbLine
 10
97.500434
 20
89.482910
 30
0.0
 11
100.675434
 21
89.482910
 31
0.0
  0
LINE
  5
288
100
AcDbEntity
  8
0
 62
7
100
AcDbLine
 10
14.661231
 20
41.298066
 30
0.0
 11
14.661231
 21
31.298066
 31
0.0
  0
LINE
  5
289
100
AcDbEntity
  8
0
 62
7
100
AcDbLine
 10
17.841231
 20
80.685567
 30
0.0
 11
17.841231
 21
41.298066
 31
0.0
  0
LINE
  5
28a
100
AcDbEntity
  8
0
 62
7
100
AcDbLine
 10
17.841231
 20
31.298066
 30
0.0
 11
17.841231
 21
18.460568
 31
0.0
  0
LINE
  5
28b
100
AcDbEntity
  8
0
 62
7
100
AcDbLine
 10
42.957138
 20
101.872926
 30
0.0
 11
46.024933
 21
102.691003
 31
0.0
  0
LINE
  5
28c
100
AcDbEntity
  8
0
 62
7
100
AcDbLine
 10
41.411161
 20
107.670335
 30
0.0
 11
44.478959
 21
108.488415
 31
0.0
  0
LINE
  5
28d
100
AcDbEntity
  8
0
 62
7
100
AcDbLine
 10
25.286311
 20
104.237141
 30
0.0
 11
28.354107
 21
105.055221
 31
0.0
  0
LINE
  5
28e
100
AcDbEntity
  8
0
 62
7
100
AcDbLine
 10
100.675434
 20
97.482908
 30
0.0
 11
97.500434
 21
97.482908
 31
0.0
  0
LINE
  5
28f
100
AcDbEntity
  8
0
 62
7
100
AcDbLine
 10
62.500434
 20
97.482908
 30
0.0
 11
59.325434
 21
97.482908
 31
0.0
  0
LINE
  5
290
100
AcDbEntity
  8
0
 62
7
100
AcDbLine
 10
100.675434
 20
103.482908
 30
0.0
 11
97.500434
 21
103.482908
 31
0.0
  0
LINE
  5
291
100
AcDbEntity
  8
0
 62
7
100
AcDbLine
 10
62.500434
 20
103.482908
 30
0.0
 11
59.325434
 21
103.482908
 31
0.0
  0
LINE
  5
292
100
AcDbEntity
  8
0
 62
7
100
AcDbLine
 10
28.094332
 20
44.429655
 30
0.0
 11
19.076139
 21
78.247878
 31
0.0
  0
LINE
  5
293
100
AcDbEntity
  8
0
 62
7
100
AcDbLine
 10
34.845738
 20
25.903710
 30
0.0
 11
30.603323
 21
41.812766
 31
0.0
  0
LINE
  5
294
100
AcDbEntity
  8
0
 62
7
100
AcDbLine
 10
33.501426
 20
42.585595
 30
0.0
 11
32.683346
 21
45.653390
 31
0.0
  0
LINE
  5
295
100
AcDbEntity
  8
0
 62
7
100
AcDbLine
 10
23.665154
 20
79.471613
 30
0.0
 11
22.847075
 21
82.539408
 31
0.0
  0
LINE
  5
296
100
AcDbEntity
  8
0
 62
7
100
AcDbLine
 10
17.841231
 20
80.685567
 30
0.0
 11
24.661231
 21
54.135568
 31
0.0
  0
LINE
  5
297
100
AcDbEntity
  8
0
 62
7
100
AcDbLine
 10
24.661231
 20
18.460568
 30
0.0
 11
24.661231
 21
31.298066
 31
0.0
  0
LINE
  5
298
100
AcDbEntity
  8
0
 62
7
100
AcDbLine
 10
24.661231
 20
41.298066
 30
0.0
 11
24.661231
 21
54.135568
 31
0.0
  0
LINE
  5
299
100
AcDbEntity
  8
0
 62
7
100
AcDbLine
 10
28.594056
 20
91.833102
 30
0.0
 11
25.286311
 21
104.237141
 31
0.0
  0
LINE
  5
29a
100
AcDbEntity
  8
0
 62
7
100
AcDbLine
 10
22.709685
 20
113.899490
 30
0.0
 11
19.401940
 21
126.303532
 31
0.0
  0
LINE
  5
29b
100
AcDbEntity
  8
0
 62
7
100
AcDbLine
 10
28.354107
 20
105.055221
 30
0.0
 11
25.777481
 21
114.717570
 31
0.0
  0
LINE
  5
29c
100
AcDbEntity
  8
0
 62
7
100
AcDbLine
 10
27.841232
 20
31.298066
 30
0.0
 11
27.841232
 21
41.298066
 31
0.0
  0
LINE
  5
29d
100
AcDbEntity
  8
0
 62
7
100
AcDbLine
 10
28.088882
 20
142.185489
 30
0.0
 11
28.088882
 21
135.360489
 31
0.0
  0
LINE
  5
29e
100
AcDbEntity
  8
0
 62
7
100
AcDbLine
 10
31.001383
 20
145.360489
 30
0.0
 11
31.001383
 21
142.185489
 31
0.0
  0
LINE
  5
29f
100
AcDbEntity
  8
0
 62
7
100
AcDbLine
 10
31.001383
 20
135.360489
 30
0.0
 11
31.001383
 21
132.185489
 31
0.0
  0
LINE
  5
2a0
100
AcDbEntity
  8
0
 62
7
100
AcDbLine
 10
34.176383
 20
132.185489
 30
0.0
 11
34.176383
 21
135.360489
 31
0.0
  0
LINE
  5
2a1
100
AcDbEntity
  8
0
 62
7
100
AcDbLine
 10
34.176383
 20
142.185489
 30
0.0
 11
34.176383
 21
145.360489
 31
0.0
  0
LINE
  5
2a2
100
AcDbEntity
  8
0
 62
7
100
AcDbLine
 10
22.709685
 20
113.899490
 30
0.0
 11
25.777481
 21
114.717570
 31
0.0
  0
LINE
  5
2a3
100
AcDbEntity
  8
0
 62
7
100
AcDbLine
 10
25.283896
 20
127.872053
 30
0.0
 11
26.101974
 21
124.804257
 31
0.0
  0
LINE
  5
2a4
100
AcDbEntity
  8
0
 62
7
100
AcDbLine
 10
28.351692
 20
128.690133
 30
0.0
 11
29.169769
 21
125.622335
 31
0.0
  0
LINE
  5
2a5
100
AcDbEntity
  8
0
 62
7
100
AcDbLine
 10
40.638544
 20
87.283801
 30
0.0
 11
41.456624
 21
84.216006
 31
0.0
  0
LINE
  5
2a6
100
AcDbEntity
  8
0
 62
7
100
AcDbLine
 10
50.474818
 20
50.397783
 30
0.0
 11
51.292895
 21
47.329987
 31
0.0
  0
LINE
  5
2a7
100
AcDbEntity
  8
0
 62
7
100
AcDbLine
 10
35.780432
 20
164.460566
 30
0.0
 11
35.780432
 21
159.460568
 31
0.0
  0
LINE
  5
2a8
100
AcDbEntity
  8
0
 62
7
100
AcDbLine
 10
41.373882
 20
135.360489
 30
0.0
 11
41.373882
 21
142.185489
 31
0.0
  0
LINE
  5
2a9
100
AcDbEntity
  8
0
 62
7
100
AcDbLine
 10
42.860434
 20
128.785566
 30
0.0
 11
42.860434
 21
141.623065
 31
0.0
  0
LINE
  5
2aa
100
AcDbEntity
  8
0
 62
7
100
AcDbLine
 10
42.860434
 20
151.623068
 30
0.0
 11
42.860434
 21
159.460568
 31
0.0
  0
LINE
  5
2ab
100
AcDbEntity
  8
0
 62
7
100
AcDbLine
 10
26.101974
 20
124.804257
 30
0.0
 11
29.169769
 21
125.622335
 31
0.0
  0
LINE
  5
2ac
100
AcDbEntity
  8
0
 62
7
100
AcDbLine
 10
19.401940
 20
126.303532
 30
0.0
 11
25.283896
 21
127.872053
 31
0.0
  0
LINE
  5
2ad
100
AcDbEntity
  8
0
 62
7
100
AcDbLine
 10
28.351692
 20
128.690133
 30
0.0
 11
35.310998
 21
130.545947
 31
0.0
  0
LINE
  5
2ae
100
AcDbEntity
  8
0
 62
7
100
AcDbLine
 10
100.675434
 20
126.960568
 30
0.0
 11
97.500434
 21
126.960568
 31
0.0
  0
LINE
  5
2af
100
AcDbEntity
  8
0
 62
7
100
AcDbLine
 10
62.500434
 20
126.960568
 30
0.0
 11
59.325434
 21
126.960568
 31
0.0
  0
LINE
  5
2b0
100
AcDbEntity
  8
0
 62
7
100
AcDbLine
 10
35.780432
 20
128.785566
 30
0.0
 11
42.860434
 21
128.785566
 31
0.0
  0
LINE
  5
2b1
100
AcDbEntity
  8
0
 62
7
100
AcDbLine
 10
65.200434
 20
18.460568
 30
0.0
 11
35.310998
 21
130.545947
 31
0.0
  0
LINE
  5
2b2
100
AcDbEntity
  8
0
 62
7
100
AcDbLine
 10
44.478959
 20
108.488415
 30
0.0
 11
46.024933
 21
102.691003
 31
0.0
  0
LINE
  5
2b3
100
AcDbEntity
  8
0
 62
7
100
AcDbLine
 10
46.035434
 20
151.623068
 30
0.0
 11
46.035434
 21
141.623065
 31
0.0
  0
LINE
  5
2b4
100
AcDbEntity
  8
0
 62
7
100
AcDbLine
 10
48.947934
 20
164.460566
 30
0.0
 11
48.947934
 21
161.285566
 31
0.0
  0
LINE
  5
2b5
100
AcDbEntity
  8
0
 62
7
100
AcDbLine
 10
20.045595
 20
81.792349
 30
0.0
 11
45.269429
 21
93.201831
 31
0.0
  0
LINE
  5
2b6
100
AcDbEntity
  8
0
 62
7
100
AcDbLine
 10
31.001383
 20
132.185489
 30
0.0
 11
34.176383
 21
132.185489
 31
0.0
  0
LINE
  5
2b7
100
AcDbEntity
  8
0
 62
7
100
AcDbLine
 10
28.088882
 20
135.360489
 30
0.0
 11
31.001383
 21
135.360489
 31
0.0
  0
LINE
  5
2b8
100
AcDbEntity
  8
0
 62
7
100
AcDbLine
 10
34.176383
 20
135.360489
 30
0.0
 11
41.373882
 21
135.360489
 31
0.0
  0
LINE
  5
2b9
100
AcDbEntity
  8
0
 62
7
100
AcDbLine
 10
100.675434
 20
138.960566
 30
0.0
 11
97.500434
 21
138.960566
 31
0.0
  0
LINE
  5
2ba
100
AcDbEntity
  8
0
 62
7
100
AcDbLine
 10
62.500434
 20
138.960566
 30
0.0
 11
59.325434
 21
138.960566
 31
0.0
  0
LINE
  5
2bb
100
AcDbEntity
  8
0
 62
7
100
AcDbLine
 10
52.122934
 20
164.460566
 30
0.0
 11
52.122934
 21
161.285566
 31
0.0
  0
LINE
  5
2bc
100
AcDbEntity
  8
0
 62
7
100
AcDbLine
 10
59.325434
 20
164.460566
 30
0.0
 11
59.325434
 21
162.960566
 31
0.0
  0
LINE
  5
2bd
100
AcDbEntity
  8
0
 62
7
100
AcDbLine
 10
59.325434
 20
150.960568
 30
0.0
 11
59.325434
 21
138.960566
 31
0.0
  0
LINE
  5
2be
100
AcDbEntity
  8
0
 62
7
100
AcDbLine
 10
59.325434
 20
126.960568
 30
0.0
 11
59.325434
 21
103.482908
 31
0.0
  0
LINE
  5
2bf
100
AcDbEntity
  8
0
 62
7
100
AcDbLine
 10
59.325434
 20
97.482908
 30
0.0
 11
59.325434
 21
89.482910
 31
0.0
  0
LINE
  5
2c0
100
AcDbEntity
  8
0
 62
7
100
AcDbLine
 10
46.035434
 20
141.623065
 30
0.0
 11
42.860434
 21
141.623065
 31
0.0
  0
LINE
  5
2c1
100
AcDbEntity
  8
0
 62
7
100
AcDbLine
 10
97.500434
 20
141.905282
 30
0.0
 11
62.500434
 21
141.905282
 31
0.0
  0
LINE
  5
2c2
100
AcDbEntity
  8
0
 62
7
100
AcDbLine
 10
41.373882
 20
142.185489
 30
0.0
 11
34.176383
 21
142.185489
 31
0.0
  0
LINE
  5
2c3
100
AcDbEntity
  8
0
 62
7
100
AcDbLine
 10
31.001383
 20
142.185489
 30
0.0
 11
28.088882
 21
142.185489
 31
0.0
  0
LINE
  5
2c4
100
AcDbEntity
  8
0
 62
7
100
AcDbLine
 10
34.176383
 20
145.360489
 30
0.0
 11
31.001383
 21
145.360489
 31
0.0
  0
LINE
  5
2c5
100
AcDbEntity
  8
0
 62
7
100
AcDbLine
 10
62.500434
 20
164.460566
 30
0.0
 11
62.500434
 21
162.960566
 31
0.0
  0
LINE
  5
2c6
100
AcDbEntity
  8
0
 62
7
100
AcDbLine
 10
62.500434
 20
141.905282
 30
0.0
 11
62.500434
 21
138.960566
 31
0.0
  0
LINE
  5
2c7
100
AcDbEntity
  8
0
 62
7
100
AcDbLine
 10
62.500434
 20
126.960568
 30
0.0
 11
62.500434
 21
103.482908
 31
0.0
  0
LINE
  5
2c8
100
AcDbEntity
  8
0
 62
7
100
AcDbLine
 10
62.500434
 20
97.482908
 30
0.0
 11
62.500434
 21
89.482910
 31
0.0
  0
LINE
  5
2c9
100
AcDbEntity
  8
0
 62
7
100
AcDbLine
 10
62.500434
 20
150.960568
 30
0.0
 11
62.500434
 21
151.255851
 31
0.0
  0
LINE
  5
2ca
100
AcDbEntity
  8
0
 62
7
100
AcDbLine
 10
67.500432
 20
18.460568
 30
0.0
 11
67.500432
 21
25.134674
 31
0.0
  0
LINE
  5
2cb
100
AcDbEntity
  8
0
 62
7
100
AcDbLine
 10
67.500432
 20
32.134675
 30
0.0
 11
67.500432
 21
40.134675
 31
0.0
  0
LINE
  5
2cc
100
AcDbEntity
  8
0
 62
7
100
AcDbLine
 10
100.675434
 20
150.960568
 30
0.0
 11
97.500434
 21
150.960568
 31
0.0
  0
LINE
  5
2cd
100
AcDbEntity
  8
0
 62
7
100
AcDbLine
 10
62.500434
 20
150.960568
 30
0.0
 11
59.325434
 21
150.960568
 31
0.0
  0
LINE
  5
2ce
100
AcDbEntity
  8
0
 62
7
100
AcDbLine
 10
62.500434
 20
151.255851
 30
0.0
 11
97.500434
 21
151.255851
 31
0.0
  0
LINE
  5
2cf
100
AcDbEntity
  8
0
 62
7
100
AcDbLine
 10
46.035434
 20
151.623068
 30
0.0
 11
42.860434
 21
151.623068
 31
0.0
  0
LINE
  5
2d0
100
AcDbEntity
  8
0
 62
7
100
AcDbLine
 10
70.675432
 20
18.460568
 30
0.0
 11
70.675432
 21
25.134674
 31
0.0
  0
LINE
  5
2d1
100
AcDbEntity
  8
0
 62
7
100
AcDbLine
 10
70.675432
 20
32.134675
 30
0.0
 11
70.675432
 21
40.134675
 31
0.0
  0
LINE
  5
2d2
100
AcDbEntity
  8
0
 62
7
100
AcDbLine
 10
42.860434
 20
159.460568
 30
0.0
 11
35.780432
 21
159.460568
 31
0.0
  0
LINE
  5
2d3
100
AcDbEntity
  8
0
 62
7
100
AcDbLine
 10
48.947934
 20
161.285566
 30
0.0
 11
52.122934
 21
161.285566
 31
0.0
  0
LINE
  5
2d4
100
AcDbEntity
  8
0
 62
7
100
AcDbLine
 10
100.675434
 20
162.960566
 30
0.0
 11
97.500434
 21
162.960566
 31
0.0
  0
LINE
  5
2d5
100
AcDbEntity
  8
0
 62
7
100
AcDbLine
 10
62.500434
 20
162.960566
 30
0.0
 11
59.325434
 21
162.960566
 31
0.0
  0
LINE
  5
2d6
100
AcDbEntity
  8
0
 62
7
100
AcDbLine
 10
35.780432
 20
164.460566
 30
0.0
 11
48.947934
 21
164.460566
 31
0.0
  0
LINE
  5
2d7
100
AcDbEntity
  8
0
 62
7
100
AcDbLine
 10
52.122934
 20
164.460566
 30
0.0
 11
59.325434
 21
164.460566
 31
0.0
  0
LINE
  5
2d8
100
AcDbEntity
  8
0
 62
7
100
AcDbLine
 10
62.500434
 20
164.460566
 30
0.0
 11
97.500434
 21
164.460566
 31
0.0
  0
LINE
  5
2d9
100
AcDbEntity
  8
0
 62
7
100
AcDbLine
 10
100.675434
 20
164.460566
 30
0.0
 11
105.200433
 21
164.460566
 31
0.0
  0
LINE
  5
2da
100
AcDbEntity
  8
0
 62
7
100
AcDbLine
 10
97.500434
 20
164.460566
 30
0.0
 11
97.500434
 21
162.960566
 31
0.0
  0
LINE
  5
2db
100
AcDbEntity
  8
0
 62
7
100
AcDbLine
 10
97.500434
 20
151.255851
 30
0.0
 11
97.500434
 21
150.960568
 31
0.0
  0
LINE
  5
2dc
100
AcDbEntity
  8
0
 62
7
100
AcDbLine
 10
97.500434
 20
141.905282
 30
0.0
 11
97.500434
 21
138.960566
 31
0.0
  0
LINE
  5
2dd
100
AcDbEntity
  8
0
 62
7
100
AcDbLine
 10
97.500434
 20
126.960568
 30
0.0
 11
97.500434
 21
103.482908
 31
0.0
  0
LINE
  5
2de
100
AcDbEntity
  8
0
 62
7
100
AcDbLine
 10
97.500434
 20
97.482908
 30
0.0
 11
97.500434
 21
89.482910
 31
0.0
  0
LINE
  5
2df
100
AcDbEntity
  8
0
 62
7
100
AcDbLine
 10
98.850433
 20
18.460568
 30
0.0
 11
98.850433
 21
25.134674
 31
0.0
  0
LINE
  5
2e0
100
AcDbEntity
  8
0
 62
7
100
AcDbLine
 10
98.850433
 20
32.134675
 30
0.0
 11
98.850433
 21
40.134675
 31
0.0
  0
LINE
  5
2e1
100
AcDbEntity
  8
0
 62
7
100
AcDbLine
 10
100.675434
 20
164.460566
 30
0.0
 11
100.675434
 21
162.960566
 31
0.0
  0
LINE
  5
2e2
100
AcDbEntity
  8
0
 62
7
100
AcDbLine
 10
100.675434
 20
150.960568
 30
0.0
 11
100.675434
 21
138.960566
 31
0.0
  0
LINE
  5
2e3
100
AcDbEntity
  8
0
 62
7
100
AcDbLine
 10
100.675434
 20
126.960568
 30
0.0
 11
100.675434
 21
103.482908
 31
0.0
  0
LINE
  5
2e4
100
AcDbEntity
  8
0
 62
7
100
AcDbLine
 10
100.675434
 20
97.482908
 30
0.0
 11
100.675434
 21
89.482910
 31
0.0
  0
LINE
  5
2e5
100
AcDbEntity
  8
0
 62
7
100
AcDbLine
 10
102.025433
 20
18.460568
 30
0.0
 11
102.025433
 21
25.134674
 31
0.0
  0
LINE
  5
2e6
100
AcDbEntity
  8
0
 62
7
100
AcDbLine
 10
102.025433
 20
32.134675
 30
0.0
 11
102.025433
 21
40.134675
 31
0.0
  0
LINE
  5
2e7
100
AcDbEntity
  8
0
 62
7
100
AcDbLine
 10
105.200433
 20
164.460566
 30
0.0
 11
105.200433
 21
18.460568
 31
0.0
  0
LINE
  5
2e8
100
AcDbEntity
  8
3_ALL_SYMBOLS
 62
1
100
AcDbLine
 10
216.630001
 20
0.630013
 30
0.0
 11
216.630001
 21
26.000041
 31
0.0
  0
LINE
  5
2e9
100
AcDbEntity
  8
3_ALL_SYMBOLS
 62
1
100
AcDbLine
 10
216.530001
 20
305.450037
 30
0.0
 11
216.530001
 21
330.830037
 31
0.0
  0
LINE
  5
2ea
100
AcDbEntity
  8
3_ALL_SYMBOLS
 62
1
100
AcDbLine
 10
0.710000
 20
305.540037
 30
0.0
 11
0.710000
 21
330.920037
 31
0.0
  0
LINE
  5
2eb
100
AcDbEntity
  8
3_ALL_SYMBOLS
 62
1
100
AcDbLine
 10
0.630000
 20
0.650023
 30
0.0
 11
0.630000
 21
26.030013
 31
0.0
  0
ENDSEC
  0
SECTION
  2
OBJECTS
  0
DICTIONARY
  5
C
330
0
100
AcDbDictionary
  3
ACAD_GROUP
350
D
  3
ACAD_MLINESTYLE
350
17
  0
DICTIONARY
  5
D
330
C
100
AcDbDictionary
  0
DICTIONARY
  5
1A
330
C
100
AcDbDictionary
  0
DICTIONARY
  5
17
330
C
100
AcDbDictionary
  3
STANDARD
350
18
  0
DICTIONARY
  5
19
330
C
100
AcDbDictionary
  0
ENDSEC
  0
EOF
