  0
SECTION
  2
HEADER
  9
$ACADVER
  1
AC1024
  9
$ACADMAINTVER
 70
     6
  9
$DWGCODEPAGE
  3
ANSI_1251
  9
$INSBASE
 10
0.0
 20
0.0
 30
0.0
  9
$EXTMIN
 10
1.000000000000000E+20
 20
1.000000000000000E+20
 30
1.000000000000000E+20
  9
$EXTMAX
 10
-1.000000000000000E+20
 20
-1.000000000000000E+20
 30
-1.000000000000000E+20
  9
$LIMMIN
 10
0.0
 20
0.0
  9
$LIMMAX
 10
12.0
 20
9.0
  9
$ORTHOMODE
 70
     0
  9
$REGENMODE
 70
     1
  9
$FILLMODE
 70
     1
  9
$QTEXTMODE
 70
     0
  9
$MIRRTEXT
 70
     1
  9
$LTSCALE
 40
1.0
  9
$ATTMODE
 70
     1
  9
$TEXTSIZE
 40
0.2
  9
$TRACEWID
 40
0.05
  9
$TEXTSTYLE
  7
Standard
  9
$CLAYER
  8
0
  9
$CELTYPE
  6
ByLayer
  9
$CECOLOR
 62
   256
  9
$CELTSCALE
 40
1.0
  9
$DISPSILH
 70
     0
  9
$DIMSCALE
 40
1.0
  9
$DIMASZ
 40
0.18
  9
$DIMEXO
 40
0.0625
  9
$DIMDLI
 40
0.38
  9
$DIMRND
 40
0.0
  9
$DIMDLE
 40
0.0
  9
$DIMEXE
 40
0.18
  9
$DIMTP
 40
0.0
  9
$DIMTM
 40
0.0
  9
$DIMTXT
 40
0.18
  9
$DIMCEN
 40
0.09
  9
$DIMTSZ
 40
0.0
  9
$DIMTOL
 70
     0
  9
$DIMLIM
 70
     0
  9
$DIMTIH
 70
     1
  9
$DIMTOH
 70
     1
  9
$DIMSE1
 70
     0
  9
$DIMSE2
 70
     0
  9
$DIMTAD
 70
     0
  9
$DIMZIN
 70
     0
  9
$DIMBLK
  1

  9
$DIMASO
 70
     1
  9
$DIMSHO
 70
     1
  9
$DIMPOST
  1

  9
$DIMAPOST
  1

  9
$DIMALT
 70
     0
  9
$DIMALTD
 70
     2
  9
$DIMALTF
 40
25.4
  9
$DIMLFAC
 40
1.0
  9
$DIMTOFL
 70
     0
  9
$DIMTVP
 40
0.0
  9
$DIMTIX
 70
     0
  9
$DIMSOXD
 70
     0
  9
$DIMSAH
 70
     0
  9
$DIMBLK1
  1

  9
$DIMBLK2
  1

  9
$DIMSTYLE
  2
Standard
  9
$DIMCLRD
 70
     0
  9
$DIMCLRE
 70
     0
  9
$DIMCLRT
 70
     0
  9
$DIMTFAC
 40
1.0
  9
$DIMGAP
 40
0.09
  9
$DIMJUST
 70
     0
  9
$DIMSD1
 70
     0
  9
$DIMSD2
 70
     0
  9
$DIMTOLJ
 70
     1
  9
$DIMTZIN
 70
     0
  9
$DIMALTZ
 70
     0
  9
$DIMALTTZ
 70
     0
  9
$DIMUPT
 70
     0
  9
$DIMDEC
 70
     4
  9
$DIMTDEC
 70
     4
  9
$DIMALTU
 70
     2
  9
$DIMALTTD
 70
     2
  9
$DIMTXSTY
  7
Standard
  9
$DIMAUNIT
 70
     0
  9
$DIMADEC
 70
     0
  9
$DIMALTRND
 40
0.0
  9
$DIMAZIN
 70
     0
  9
$DIMDSEP
 70
    46
  9
$DIMATFIT
 70
     3
  9
$DIMFRAC
 70
     0
  9
$DIMLDRBLK
  1

  9
$DIMLUNIT
 70
     2
  9
$DIMLWD
 70
    -2
  9
$DIMLWE
 70
    -2
  9
$DIMTMOVE
 70
     0
  9
$DIMFXL
 40
1.0
  9
$DIMFXLON
 70
     0
  9
$DIMJOGANG
 40
0.7853981633974483
  9
$DIMTFILL
 70
     0
  9
$DIMTFILLCLR
 70
     0
  9
$DIMARCSYM
 70
     0
  9
$DIMLTYPE
  6

  9
$DIMLTEX1
  6

  9
$DIMLTEX2
  6

  9
$DIMTXTDIRECTION
 70
     0
  9
$LUNITS
 70
     2
  9
$LUPREC
 70
     4
  9
$SKETCHINC
 40
0.1
  9
$FILLETRAD
 40
0.5
  9
$AUNITS
 70
     0
  9
$AUPREC
 70
     0
  9
$MENU
  1
.
  9
$ELEVATION
 40
0.0
  9
$PELEVATION
 40
0.0
  9
$THICKNESS
 40
0.0
  9
$LIMCHECK
 70
     0
  9
$CHAMFERA
 40
0.5
  9
$CHAMFERB
 40
0.5
  9
$CHAMFERC
 40
1.0
  9
$CHAMFERD
 40
0.0
  9
$SKPOLY
 70
     0
  9
$TDCREATE
 40
2459866.450965301
  9
$TDUCREATE
 40
2459866.325965301
  9
$TDUPDATE
 40
2459866.450965474
  9
$TDUUPDATE
 40
2459866.325965474
  9
$TDINDWG
 40
0.0000000116
  9
$TDUSRTIMER
 40
0.0000000116
  9
$USRTIMER
 70
     1
  9
$ANGBASE
 50
0.0
  9
$ANGDIR
 70
     0
  9
$PDMODE
 70
     0
  9
$PDSIZE
 40
0.0
  9
$PLINEWID
 40
0.0
  9
$SPLFRAME
 70
     0
  9
$SPLINETYPE
 70
     6
  9
$SPLINESEGS
 70
     8
  9
$HANDSEED
  5
AE
  9
$SURFTAB1
 70
     6
  9
$SURFTAB2
 70
     6
  9
$SURFTYPE
 70
     6
  9
$SURFU
 70
     6
  9
$SURFV
 70
     6
  9
$UCSBASE
  2

  9
$UCSNAME
  2

  9
$UCSORG
 10
0.0
 20
0.0
 30
0.0
  9
$UCSXDIR
 10
1.0
 20
0.0
 30
0.0
  9
$UCSYDIR
 10
0.0
 20
1.0
 30
0.0
  9
$UCSORTHOREF
  2

  9
$UCSORTHOVIEW
 70
     0
  9
$UCSORGTOP
 10
0.0
 20
0.0
 30
0.0
  9
$UCSORGBOTTOM
 10
0.0
 20
0.0
 30
0.0
  9
$UCSORGLEFT
 10
0.0
 20
0.0
 30
0.0
  9
$UCSORGRIGHT
 10
0.0
 20
0.0
 30
0.0
  9
$UCSORGFRONT
 10
0.0
 20
0.0
 30
0.0
  9
$UCSORGBACK
 10
0.0
 20
0.0
 30
0.0
  9
$PUCSBASE
  2

  9
$PUCSNAME
  2

  9
$PUCSORG
 10
0.0
 20
0.0
 30
0.0
  9
$PUCSXDIR
 10
1.0
 20
0.0
 30
0.0
  9
$PUCSYDIR
 10
0.0
 20
1.0
 30
0.0
  9
$PUCSORTHOREF
  2

  9
$PUCSORTHOVIEW
 70
     0
  9
$PUCSORGTOP
 10
0.0
 20
0.0
 30
0.0
  9
$PUCSORGBOTTOM
 10
0.0
 20
0.0
 30
0.0
  9
$PUCSORGLEFT
 10
0.0
 20
0.0
 30
0.0
  9
$PUCSORGRIGHT
 10
0.0
 20
0.0
 30
0.0
  9
$PUCSORGFRONT
 10
0.0
 20
0.0
 30
0.0
  9
$PUCSORGBACK
 10
0.0
 20
0.0
 30
0.0
  9
$USERI1
 70
     0
  9
$USERI2
 70
     0
  9
$USERI3
 70
     0
  9
$USERI4
 70
     0
  9
$USERI5
 70
     0
  9
$USERR1
 40
0.0
  9
$USERR2
 40
0.0
  9
$USERR3
 40
0.0
  9
$USERR4
 40
0.0
  9
$USERR5
 40
0.0
  9
$WORLDVIEW
 70
     1
  9
$SHADEDGE
 70
     3
  9
$SHADEDIF
 70
    70
  9
$TILEMODE
 70
     1
  9
$MAXACTVP
 70
    64
  9
$PINSBASE
 10
0.0
 20
0.0
 30
0.0
  9
$PLIMCHECK
 70
     0
  9
$PEXTMIN
 10
1.000000000000000E+20
 20
1.000000000000000E+20
 30
1.000000000000000E+20
  9
$PEXTMAX
 10
-1.000000000000000E+20
 20
-1.000000000000000E+20
 30
-1.000000000000000E+20
  9
$PLIMMIN
 10
0.0
 20
0.0
  9
$PLIMMAX
 10
12.0
 20
9.0
  9
$UNITMODE
 70
     0
  9
$VISRETAIN
 70
     1
  9
$PLINEGEN
 70
     0
  9
$PSLTSCALE
 70
     1
  9
$TREEDEPTH
 70
  3020
  9
$CMLSTYLE
  2
Standard
  9
$CMLJUST
 70
     0
  9
$CMLSCALE
 40
1.0
  9
$PROXYGRAPHICS
 70
     1
  9
$MEASUREMENT
 70
     0
  9
$CELWEIGHT
370
    -1
  9
$ENDCAPS
280
     0
  9
$JOINSTYLE
280
     0
  9
$LWDISPLAY
290
     1
  9
$INSUNITS
 70
     1
  9
$HYPERLINKBASE
  1

  9
$STYLESHEET
  1

  9
$XEDIT
290
     1
  9
$CEPSNTYPE
380
     0
  9
$PSTYLEMODE
290
     1
  9
$FINGERPRINTGUID
  2
{72DA6C64-4D67-4D65-910A-66213B950928}
  9
$VERSIONGUID
  2
{FAEB1C32-E019-11D5-929B-00C0DF256EC4}
  9
$EXTNAMES
290
     1
  9
$PSVPSCALE
 40
0.0
  9
$OLESTARTUP
290
     0
  9
$SORTENTS
280
   127
  9
$INDEXCTL
280
     0
  9
$HIDETEXT
280
     1
  9
$XCLIPFRAME
280
     2
  9
$HALOGAP
280
     0
  9
$OBSCOLOR
 70
   257
  9
$OBSLTYPE
280
     0
  9
$INTERSECTIONDISPLAY
280
     0
  9
$INTERSECTIONCOLOR
 70
   257
  9
$DIMASSOC
280
     2
  9
$PROJECTNAME
  1

  9
$CAMERADISPLAY
290
     0
  9
$LENSLENGTH
 40
50.0
  9
$CAMERAHEIGHT
 40
0.0
  9
$STEPSPERSEC
 40
2.0
  9
$STEPSIZE
 40
6.0
  9
$3DDWFPREC
 40
2.0
  9
$PSOLWIDTH
 40
0.25
  9
$PSOLHEIGHT
 40
4.0
  9
$LOFTANG1
 40
1.570796326794897
  9
$LOFTANG2
 40
1.570796326794897
  9
$LOFTMAG1
 40
0.0
  9
$LOFTMAG2
 40
0.0
  9
$LOFTPARAM
 70
     7
  9
$LOFTNORMALS
280
     1
  9
$LATITUDE
 40
37.795
  9
$LONGITUDE
 40
-122.394
  9
$NORTHDIRECTION
 40
0.0
  9
$TIMEZONE
 70
 -8000
  9
$LIGHTGLYPHDISPLAY
280
     1
  9
$TILEMODELIGHTSYNCH
280
     1
  9
$CMATERIAL
347
3C
  9
$SOLIDHIST
280
     1
  9
$SHOWHIST
280
     1
  9
$DWFFRAME
280
     2
  9
$DGNFRAME
280
     2
  9
$REALWORLDSCALE
290
     1
  9
$INTERFERECOLOR
 62
   256
  9
$CSHADOW
280
     0
  9
$SHADOWPLANELOCATION
 40
0.0
  0
ENDSEC
  0
SECTION
  2
CLASSES
  0
CLASS
  1
ACDBDICTIONARYWDFLT
  2
AcDbDictionaryWithDefault
  3
ObjectDBX Classes
 90
        0
 91
        4
280
     0
281
     0
  0
CLASS
  1
VISUALSTYLE
  2
AcDbVisualStyle
  3
ObjectDBX Classes
 90
     4095
 91
        4
280
     0
281
     0
  0
CLASS
  1
MATERIAL
  2
AcDbMaterial
  3
ObjectDBX Classes
 90
     1153
 91
        4
280
     0
281
     0
  0
CLASS
  1
SUN
  2
AcDbSun
  3
SCENEOE
 90
     1024
 91
        4
280
     0
281
     0
  0
ENDSEC
  0
SECTION
  2
TABLES
  0
TABLE
  2
VPORT
  5
8
330
0
100
AcDbSymbolTable
 70
     1
  0
VPORT
  5
29
330
8
100
AcDbSymbolTableRecord
100
AcDbViewportTableRecord
  2
*Active
 70
     0
 10
0.0
 20
0.0
 11
1.0
 21
1.0
 12
0.0
 22
0.0
 13
0.0
 23
0.0
 14
0.5
 24
0.5
 15
0.5
 25
0.5
 16
0.0
 26
0.0
 36
1.0
 17
252.0
 27
252.0
 37
0.0
 40
504.0
 41
1.0
 42
50.0
 43
0.0
 44
0.0
 50
0.0
 51
0.0
 71
     0
 72
   100
 73
     1
 74
     3
 75
     0
 76
     0
 77
     0
 78
     0
281
     0
 65
     1
110
0.0
120
0.0
130
0.0
111
1.0
121
0.0
131
0.0
112
0.0
122
1.0
132
0.0
 79
     0
146
0.0
 60
     3
 61
     5
292
     1
282
     1
141
0.0
142
0.0
 63
   250
361
3F
  0
ENDTAB
  0
TABLE
  2
LTYPE
  5
5
330
0
100
AcDbSymbolTable
 70
     1
  0
LTYPE
  5
14
330
5
100
AcDbSymbolTableRecord
100
AcDbLinetypeTableRecord
  2
ByBlock
 70
     0
  3

 72
    65
 73
     0
 40
0.0
  0
LTYPE
  5
15
330
5
100
AcDbSymbolTableRecord
100
AcDbLinetypeTableRecord
  2
ByLayer
 70
     0
  3

 72
    65
 73
     0
 40
0.0
  0
LTYPE
  5
16
330
5
100
AcDbSymbolTableRecord
100
AcDbLinetypeTableRecord
  2
Continuous
 70
     0
  3
Solid line
 72
    65
 73
     0
 40
0.0
  0
ENDTAB
  0
TABLE
  2
LAYER
  5
2
330
0
100
AcDbSymbolTable
 70
     2
  0
LAYER
  5
10
330
2
100
AcDbSymbolTableRecord
100
AcDbLayerTableRecord
  2
0
 70
     0
 62
     7
  6
Continuous
370
    -3
390
F
347
3E
  0
LAYER
  5
40
330
2
100
AcDbSymbolTableRecord
100
AcDbLayerTableRecord
  2
_U+0421_U+043B_U+043E_U+0439 1
 70
     0
 62
     7
  6
Continuous
370
    -3
390
F
347
3E
  0
ENDTAB
  0
TABLE
  2
STYLE
  5
3
330
0
100
AcDbSymbolTable
 70
     1
  0
STYLE
  5
11
330
3
100
AcDbSymbolTableRecord
100
AcDbTextStyleTableRecord
  2
Standard
 70
     0
 40
0.0
 41
1.0
 50
0.0
 71
     0
 42
0.2
  3
txt
  4

  0
ENDTAB
  0
TABLE
  2
VIEW
  5
6
330
0
100
AcDbSymbolTable
 70
     0
  0
ENDTAB
  0
TABLE
  2
UCS
  5
7
330
0
100
AcDbSymbolTable
 70
     0
  0
ENDTAB
  0
TABLE
  2
APPID
  5
9
330
0
100
AcDbSymbolTable
 70
     1
  0
APPID
  5
12
330
9
100
AcDbSymbolTableRecord
100
AcDbRegAppTableRecord
  2
ACAD
 70
     0
  0
ENDTAB
  0
TABLE
  2
DIMSTYLE
  5
A
330
0
100
AcDbSymbolTable
 70
     1
100
AcDbDimStyleTable
  0
DIMSTYLE
105
27
330
A
100
AcDbSymbolTableRecord
100
AcDbDimStyleTableRecord
  2
Standard
 70
     0
178
     0
340
11
  0
ENDTAB
  0
TABLE
  2
BLOCK_RECORD
  5
1
330
0
100
AcDbSymbolTable
 70
     1
  0
BLOCK_RECORD
  5
1F
330
1
100
AcDbSymbolTableRecord
100
AcDbBlockTableRecord
  2
*Model_Space
340
22
 70
     0
280
     1
281
     0
  0
BLOCK_RECORD
  5
1B
330
1
100
AcDbSymbolTableRecord
100
AcDbBlockTableRecord
  2
*Paper_Space
340
1E
 70
     0
280
     1
281
     0
  0
BLOCK_RECORD
  5
23
330
1
100
AcDbSymbolTableRecord
100
AcDbBlockTableRecord
  2
*Paper_Space0
340
26
 70
     0
280
     1
281
     0
  0
ENDTAB
  0
ENDSEC
  0
SECTION
  2
BLOCKS
  0
BLOCK
  5
20
330
1F
100
AcDbEntity
  8
0
100
AcDbBlockBegin
  2
*Model_Space
 70
     0
 10
0.0
 20
0.0
 30
0.0
  3
*Model_Space
  1

  0
ENDBLK
  5
21
330
1F
100
AcDbEntity
  8
0
100
AcDbBlockEnd
  0
BLOCK
  5
1C
330
1B
100
AcDbEntity
 67
     1
  8
0
100
AcDbBlockBegin
  2
*Paper_Space
 70
     0
 10
0.0
 20
0.0
 30
0.0
  3
*Paper_Space
  1

  0
ENDBLK
  5
1D
330
1B
100
AcDbEntity
 67
     1
  8
0
100
AcDbBlockEnd
  0
BLOCK
  5
24
330
23
100
AcDbEntity
  8
0
100
AcDbBlockBegin
  2
*Paper_Space0
 70
     0
 10
0.0
 20
0.0
 30
0.0
  3
*Paper_Space0
  1

  0
ENDBLK
  5
25
330
23
100
AcDbEntity
  8
0
100
AcDbBlockEnd
  0
ENDSEC
  0
SECTION
  2
ENTITIES
  0
SPLINE
  5
41
330
1F
100
AcDbEntity
  8
_U+0421_U+043B_U+043E_U+0439 1
 62
     1
420
 16711680
370
     9
100
AcDbSpline
210
0.0
220
0.0
230
1.0
 70
    11
 71
     3
 72
    29
 73
    25
 74
     0
 42
0.0000000001
 43
0.0000000001
 12
1.0
 22
0.0
 32
0.0
 13
1.0
 23
0.0
 33
0.0
 40
0.0
 40
0.0
 40
0.0
 40
0.0
 40
1.0
 40
1.0
 40
1.0
 40
2.0
 40
2.0
 40
2.0
 40
3.0
 40
3.0
 40
3.0
 40
4.0
 40
4.0
 40
4.0
 40
5.0
 40
5.0
 40
5.0
 40
6.0
 40
6.0
 40
6.0
 40
7.0
 40
7.0
 40
7.0
 40
8.0
 40
8.0
 40
8.0
 40
8.0
 10
306.4570007324219
 20
489.7629995346069
 30
0.0
 10
306.4570007324219
 20
489.7629995346069
 30
0.0
 10
199.6679992675781
 20
489.7629995346069
 30
0.0
 10
199.6679992675781
 20
489.7629995346069
 30
0.0
 10
192.9709930419922
 20
489.7629995346069
 30
0.0
 10
187.5419921875
 20
484.3339996337891
 30
0.0
 10
187.5419921875
 20
477.636999130249
 30
0.0
 10
187.5419921875
 20
477.636999130249
 30
0.0
 10
187.5419921875
 20
19.48898315429688
 30
0.0
 10
187.5419921875
 20
19.48898315429688
 30
0.0
 10
187.5419921875
 20
12.7919921875
 30
0.0
 10
192.9709930419922
 20
7.36297607421875
 30
0.0
 10
199.6679992675781
 20
7.36297607421875
 30
0.0
 10
199.6679992675781
 20
7.36297607421875
 30
0.0
 10
306.4559936523438
 20
7.36297607421875
 30
0.0
 10
306.4559936523438
 20
7.36297607421875
 30
0.0
 10
313.1529846191406
 20
7.36297607421875
 30
0.0
 10
318.5820007324219
 20
12.79196166992188
 30
0.0
 10
318.5820007324219
 20
19.48898315429688
 30
0.0
 10
318.5820007324219
 20
19.48898315429688
 30
0.0
 10
318.5820007324219
 20
477.636999130249
 30
0.0
 10
318.5820007324219
 20
477.636999130249
 30
0.0
 10
318.5830078125
 20
484.3339996337891
 30
0.0
 10
313.1539916992188
 20
489.7629995346069
 30
0.0
 10
306.4570007324219
 20
489.7629995346069
 30
0.0
  0
SPLINE
  5
42
330
1F
100
AcDbEntity
  8
_U+0421_U+043B_U+043E_U+0439 1
 62
     1
420
 16711680
370
     9
100
AcDbSpline
210
0.0
220
0.0
230
1.0
 70
    11
 71
     3
 72
    17
 73
    13
 74
     0
 42
0.0000000001
 43
0.0000000001
 12
1.0
 22
0.0
 32
0.0
 13
1.0
 23
0.0
 33
0.0
 40
0.0
 40
0.0
 40
0.0
 40
0.0
 40
1.0
 40
1.0
 40
1.0
 40
2.0
 40
2.0
 40
2.0
 40
3.0
 40
3.0
 40
3.0
 40
4.0
 40
4.0
 40
4.0
 40
4.0
 10
253.0630035400391
 20
457.1990013122559
 30
0.0
 10
249.1490020751953
 20
457.1990013122559
 30
0.0
 10
245.9759979248047
 20
460.3720016479492
 30
0.0
 10
245.9759979248047
 20
464.286003112793
 30
0.0
 10
245.9759979248047
 20
468.2000045776367
 30
0.0
 10
249.1490020751953
 20
471.3730010986328
 30
0.0
 10
253.0630035400391
 20
471.3730010986328
 30
0.0
 10
256.9769897460938
 20
471.3730010986328
 30
0.0
 10
260.1499938964844
 20
468.2000007629395
 30
0.0
 10
260.1499938964844
 20
464.286003112793
 30
0.0
 10
260.1489868164062
 20
460.3720016479492
 30
0.0
 10
256.9760131835938
 20
457.1990013122559
 30
0.0
 10
253.0630035400391
 20
457.1990013122559
 30
0.0
  0
SPLINE
  5
43
330
1F
100
AcDbEntity
  8
_U+0421_U+043B_U+043E_U+0439 1
 62
     7
420
 16777215
370
     9
100
AcDbSpline
210
0.0
220
0.0
230
1.0
 70
    11
 71
     3
 72
    29
 73
    25
 74
     0
 42
0.0000000001
 43
0.0000000001
 12
1.0
 22
0.0
 32
0.0
 13
1.0
 23
0.0
 33
0.0
 40
0.0
 40
0.0
 40
0.0
 40
0.0
 40
1.0
 40
1.0
 40
1.0
 40
2.0
 40
2.0
 40
2.0
 40
3.0
 40
3.0
 40
3.0
 40
4.0
 40
4.0
 40
4.0
 40
5.0
 40
5.0
 40
5.0
 40
6.0
 40
6.0
 40
6.0
 40
7.0
 40
7.0
 40
7.0
 40
8.0
 40
8.0
 40
8.0
 40
8.0
 10
297.2590026855469
 20
482.8759994506836
 30
0.0
 10
297.2590026855469
 20
482.8759994506836
 30
0.0
 10
207.6159973144531
 20
482.8759994506836
 30
0.0
 10
207.6159973144531
 20
482.8759994506836
 30
0.0
 10
201.6730041503906
 20
482.8759994506836
 30
0.0
 10
196.8379974365234
 20
477.4139995574951
 30
0.0
 10
196.8379974365234
 20
470.7000007629395
 30
0.0
 10
196.8379974365234
 20
470.7000007629395
 30
0.0
 10
196.8379974365234
 20
33.30001831054688
 30
0.0
 10
196.8379974365234
 20
33.30001831054688
 30
0.0
 10
196.8379974365234
 20
26.58602905273438
 30
0.0
 10
201.6730041503906
 20
21.1240234375
 30
0.0
 10
207.6159973144531
 20
21.1240234375
 30
0.0
 10
207.6159973144531
 20
21.1240234375
 30
0.0
 10
297.2590026855469
 20
21.1240234375
 30
0.0
 10
297.2590026855469
 20
21.1240234375
 30
0.0
 10
303.2019958496094
 20
21.1240234375
 30
0.0
 10
308.0369873046875
 20
26.58602905273438
 30
0.0
 10
308.0369873046875
 20
33.30001831054688
 30
0.0
 10
308.0369873046875
 20
33.30001831054688
 30
0.0
 10
308.0369873046875
 20
470.7000007629395
 30
0.0
 10
308.0369873046875
 20
470.7000007629395
 30
0.0
 10
308.0369873046875
 20
477.4139995574951
 30
0.0
 10
303.2019958496094
 20
482.8759994506836
 30
0.0
 10
297.2590026855469
 20
482.8759994506836
 30
0.0
  0
SPLINE
  5
44
330
1F
100
AcDbEntity
  8
_U+0421_U+043B_U+043E_U+0439 1
 62
     7
420
 16777215
370
     9
100
AcDbSpline
210
0.0
220
0.0
230
1.0
 70
    11
 71
     3
 72
    29
 73
    25
 74
     0
 42
0.0000000001
 43
0.0000000001
 12
1.0
 22
0.0
 32
0.0
 13
1.0
 23
0.0
 33
0.0
 40
0.0
 40
0.0
 40
0.0
 40
0.0
 40
1.0
 40
1.0
 40
1.0
 40
2.0
 40
2.0
 40
2.0
 40
3.0
 40
3.0
 40
3.0
 40
4.0
 40
4.0
 40
4.0
 40
5.0
 40
5.0
 40
5.0
 40
6.0
 40
6.0
 40
6.0
 40
7.0
 40
7.0
 40
7.0
 40
8.0
 40
8.0
 40
8.0
 40
8.0
 10
306.8380126953125
 20
33.29998779296875
 30
0.0
 10
306.8380126953125
 20
27.24697875976562
 30
0.0
 10
302.5400085449219
 20
22.322998046875
 30
0.0
 10
297.2590026855469
 20
22.322998046875
 30
0.0
 10
297.2590026855469
 20
22.322998046875
 30
0.0
 10
207.6159973144531
 20
22.322998046875
 30
0.0
 10
207.6159973144531
 20
22.322998046875
 30
0.0
 10
202.3349914550781
 20
22.322998046875
 30
0.0
 10
198.0370025634766
 20
27.24700927734375
 30
0.0
 10
198.0370025634766
 20
33.29998779296875
 30
0.0
 10
198.0370025634766
 20
33.29998779296875
 30
0.0
 10
198.0370025634766
 20
470.7000007629395
 30
0.0
 10
198.0370025634766
 20
470.7000007629395
 30
0.0
 10
198.0370025634766
 20
476.7530002593994
 30
0.0
 10
202.3350067138672
 20
481.677001953125
 30
0.0
 10
207.6159973144531
 20
481.677001953125
 30
0.0
 10
207.6159973144531
 20
481.677001953125
 30
0.0
 10
297.2590026855469
 20
481.677001953125
 30
0.0
 10
297.2590026855469
 20
481.677001953125
 30
0.0
 10
302.5400085449219
 20
481.677001953125
 30
0.0
 10
306.8380126953125
 20
476.753002166748
 30
0.0
 10
306.8380126953125
 20
470.7000007629395
 30
0.0
 10
306.8380126953125
 20
470.7000007629395
 30
0.0
 10
306.8380126953125
 20
33.29998779296875
 30
0.0
 10
306.8380126953125
 20
33.29998779296875
 30
0.0
  0
SPLINE
  5
45
330
1F
100
AcDbEntity
  8
_U+0421_U+043B_U+043E_U+0439 1
 62
     7
420
 16777215
370
     9
100
AcDbSpline
210
0.0
220
0.0
230
1.0
 70
    11
 71
     3
 72
   128
 73
   124
 74
     0
 42
0.0000000001
 43
0.0000000001
 12
1.0
 22
0.0
 32
0.0
 13
1.0
 23
0.0
 33
0.0
 40
0.0
 40
0.0
 40
0.0
 40
0.0
 40
1.0
 40
1.0
 40
1.0
 40
2.0
 40
2.0
 40
2.0
 40
3.0
 40
3.0
 40
3.0
 40
4.0
 40
4.0
 40
4.0
 40
5.0
 40
5.0
 40
5.0
 40
6.0
 40
6.0
 40
6.0
 40
7.0
 40
7.0
 40
7.0
 40
8.0
 40
8.0
 40
8.0
 40
9.0
 40
9.0
 40
9.0
 40
10.0
 40
10.0
 40
10.0
 40
11.0
 40
11.0
 40
11.0
 40
12.0
 40
12.0
 40
12.0
 40
13.0
 40
13.0
 40
13.0
 40
14.0
 40
14.0
 40
14.0
 40
15.0
 40
15.0
 40
15.0
 40
16.0
 40
16.0
 40
16.0
 40
17.0
 40
17.0
 40
17.0
 40
18.0
 40
18.0
 40
18.0
 40
19.0
 40
19.0
 40
19.0
 40
20.0
 40
20.0
 40
20.0
 40
21.0
 40
21.0
 40
21.0
 40
22.0
 40
22.0
 40
22.0
 40
23.0
 40
23.0
 40
23.0
 40
24.0
 40
24.0
 40
24.0
 40
25.0
 40
25.0
 40
25.0
 40
26.0
 40
26.0
 40
26.0
 40
27.0
 40
27.0
 40
27.0
 40
28.0
 40
28.0
 40
28.0
 40
29.0
 40
29.0
 40
29.0
 40
30.0
 40
30.0
 40
30.0
 40
31.0
 40
31.0
 40
31.0
 40
32.0
 40
32.0
 40
32.0
 40
33.0
 40
33.0
 40
33.0
 40
34.0
 40
34.0
 40
34.0
 40
35.0
 40
35.0
 40
35.0
 40
36.0
 40
36.0
 40
36.0
 40
37.0
 40
37.0
 40
37.0
 40
38.0
 40
38.0
 40
38.0
 40
39.0
 40
39.0
 40
39.0
 40
40.0
 40
40.0
 40
40.0
 40
41.0
 40
41.0
 40
41.0
 40
41.0
 10
289.6669921875
 20
203.8469848632812
 30
0.0
 10
296.2469787597656
 20
204.7679748535156
 30
0.0
 10
297.2420043945312
 20
204.5649719238281
 30
0.0
 10
297.2169799804688
 20
205.4419860839844
 30
0.0
 10
297.1949768066406
 20
206.3169860839844
 30
0.0
 10
296.7829895019531
 20
206.0130004882812
 30
0.0
 10
283.4869689941406
 20
207.14697265625
 30
0.0
 10
295.1239624023438
 20
210.5239868164062
 30
0.0
 10
295.6589660644531
 20
210.3319702148438
 30
0.0
 10
295.5249633789062
 20
211.1859741210938
 30
0.0
 10
295.3909606933594
 20
212.0399780273438
 30
0.0
 10
294.6759643554688
 20
211.6859741210938
 30
0.0
 10
284.4169616699219
 20
211.3979797363281
 30
0.0
 10
292.1319580078125
 20
214.7109680175781
 30
0.0
 10
292.9979553222656
 20
214.7169799804688
 30
0.0
 10
292.7509765625
 20
215.5519714355469
 30
0.0
 10
292.5089721679688
 20
216.386962890625
 30
0.0
 10
292.4319763183594
 20
216.0339660644531
 30
0.0
 10
276.7579650878906
 20
213.4129638671875
 30
0.0
 10
276.6929626464844
 20
213.4019775390625
 30
0.0
 10
276.6299743652344
 20
213.3809509277344
 30
0.0
 10
276.5709533691406
 20
213.3499755859375
 30
0.0
 10
276.5709533691406
 20
213.3499755859375
 30
0.0
 10
262.4679565429688
 20
205.7439880371094
 30
0.0
 10
262.4679565429688
 20
205.7439880371094
 30
0.0
 10
262.4679565429688
 20
205.7439880371094
 30
0.0
 10
282.0309448242188
 20
225.531982421875
 30
0.0
 10
282.0309448242188
 20
225.531982421875
 30
0.0
 10
282.4479370117188
 20
225.9529724121094
 30
0.0
 10
282.0629577636719
 20
226.6719970703125
 30
0.0
 10
281.4649353027344
 20
226.5379943847656
 30
0.0
 10
281.1399230957031
 20
226.4599914550781
 30
0.0
 10
271.0829467773438
 20
224.1409912109375
 30
0.0
 10
270.8739318847656
 20
223.8800048828125
 30
0.0
 10
270.8739318847656
 20
223.8800048828125
 30
0.0
 10
259.4289245605469
 20
209.7080078125
 30
0.0
 10
259.4289245605469
 20
209.7080078125
 30
0.0
 10
259.4289245605469
 20
209.7080078125
 30
0.0
 10
269.7379150390625
 20
231.5180053710938
 30
0.0
 10
269.7379150390625
 20
231.5180053710938
 30
0.0
 10
270.0009155273438
 20
232.072998046875
 30
0.0
 10
269.3539123535156
 20
232.6159973144531
 30
0.0
 10
268.8559265136719
 20
232.2690124511719
 30
0.0
 10
268.5949401855469
 20
232.0900268554688
 30
0.0
 10
261.1549377441406
 20
227.0660095214844
 30
0.0
 10
261.0469360351562
 20
226.7680053710938
 30
0.0
 10
261.0469360351562
 20
226.7680053710938
 30
0.0
 10
252.8389282226562
 20
203.8190002441406
 30
0.0
 10
252.8389282226562
 20
203.8190002441406
 30
0.0
 10
254.7499237060547
 20
236.9030151367188
 30
0.0
 10
254.8659210205078
 20
235.1279907226562
 30
0.0
 10
254.2699279785156
 20
235.3880004882812
 30
0.0
 10
254.0409240722656
 20
235.489990234375
 30
0.0
 10
253.7709350585938
 20
235.4360046386719
 30
0.0
 10
253.596923828125
 20
235.2539978027344
 30
0.0
 10
253.596923828125
 20
235.2539978027344
 30
0.0
 10
249.7669219970703
 20
231.27099609375
 30
0.0
 10
249.7669219970703
 20
231.27099609375
 30
0.0
 10
249.6599273681641
 20
231.1589965820312
 30
0.0
 10
249.5999145507812
 20
231.010009765625
 30
0.0
 10
249.5999145507812
 20
230.8550109863281
 30
0.0
 10
249.5999145507812
 20
230.8550109863281
 30
0.0
 10
249.5999145507812
 20
204.3350219726562
 30
0.0
 10
249.5999145507812
 20
204.3350219726562
 30
0.0
 10
249.4329071044922
 20
204.5540161132812
 30
0.0
 10
234.5799102783203
 20
224.1230163574219
 30
0.0
 10
234.3219146728516
 20
224.2190246582031
 30
0.0
 10
222.6829223632812
 20
228.5000305175781
 30
0.0
 10
222.5959167480469
 20
228.8440246582031
 30
0.0
 10
222.1639099121094
 20
228.1990356445312
 30
0.0
 10
222.0109100341797
 20
227.9690246582031
 30
0.0
 10
222.034912109375
 20
227.6620483398438
 30
0.0
 10
222.2249145507812
 20
227.4590454101562
 30
0.0
 10
222.2249145507812
 20
227.4590454101562
 30
0.0
 10
242.4379119873047
 20
205.717041015625
 30
0.0
 10
242.4379119873047
 20
205.717041015625
 30
0.0
 10
242.4379119873047
 20
205.717041015625
 30
0.0
 10
227.3659057617188
 20
214.300048828125
 30
0.0
 10
227.3659057617188
 20
214.300048828125
 30
0.0
 10
227.1959075927734
 20
214.3970336914062
 30
0.0
 10
212.0829010009766
 20
215.9590454101562
 30
0.0
 10
211.8879089355469
 20
215.9800415039062
 30
0.0
 10
211.5919036865234
 20
216.0070495605469
 30
0.0
 10
211.3199157714844
 20
215.8220520019531
 30
0.0
 10
211.2449035644531
 20
215.5350341796875
 30
0.0
 10
211.1699066162109
 20
215.248046875
 30
0.0
 10
211.3149108886719
 20
214.9490356445312
 30
0.0
 10
211.5888977050781
 20
214.83203125
 30
0.0
 10
211.5888977050781
 20
214.83203125
 30
0.0
 10
218.0699005126953
 20
212.0480346679688
 30
0.0
 10
218.0699005126953
 20
212.0480346679688
 30
0.0
 10
209.2378997802734
 20
211.7010498046875
 30
0.0
 10
208.5749053955078
 20
211.9950256347656
 30
0.0
 10
208.4718933105469
 20
211.1670227050781
 30
0.0
 10
208.3718872070312
 20
210.3360290527344
 30
0.0
 10
209.1218872070312
 20
210.4530334472656
 30
0.0
 10
217.1898956298828
 20
208.1120300292969
 30
0.0
 10
207.3208923339844
 20
206.0260314941406
 30
0.0
 10
206.7548980712891
 20
206.22802734375
 30
0.0
 10
206.7828979492188
 20
205.405029296875
 30
0.0
 10
206.8108978271484
 20
204.5810241699219
 30
0.0
 10
207.7368927001953
 20
204.7710266113281
 30
0.0
 10
213.4989013671875
 20
203.9640197753906
 30
0.0
 10
213.4929046630859
 20
203.9620056152344
 30
0.0
 10
203.0968933105469
 20
199.6540222167969
 30
0.0
 10
203.0908966064453
 20
199.6510314941406
 30
0.0
 10
201.8459014892578
 20
199.3810424804688
 30
0.0
 10
202.1998901367188
 20
197.4800415039062
 30
0.0
 10
203.6658935546875
 20
197.7660217285156
 30
0.0
 10
203.9588928222656
 20
197.7660217285156
 30
0.0
 10
247.2948913574219
 20
197.7450256347656
 30
0.0
 10
247.5818939208984
 20
197.8030090332031
 30
0.0
 10
247.9668884277344
 20
197.72900390625
 30
0.0
 10
256.1868896484375
 20
197.7590026855469
 30
0.0
 10
256.4158935546875
 20
197.8030090332031
 30
0.0
 10
256.7218933105469
 20
197.7409973144531
 30
0.0
 10
300.5018920898438
 20
197.7630004882812
 30
0.0
 10
300.7518920898438
 20
197.7749938964844
 30
0.0
 10
301.3128967285156
 20
197.6189880371094
 30
0.0
 10
301.7978820800781
 20
197.9329833984375
 30
0.0
 10
301.9609069824219
 20
198.3909912109375
 30
0.0
 10
302.427001953125
 20
199.6860046386719
 30
0.0
 10
301.7860107421875
 20
199.5159912109375
 30
0.0
 10
289.6669921875
 20
203.8469848632812
 30
0.0
  0
SPLINE
  5
46
330
1F
100
AcDbEntity
  8
_U+0421_U+043B_U+043E_U+0439 1
 62
     7
420
 16777215
370
     9
100
AcDbSpline
210
0.0
220
0.0
230
1.0
 70
    11
 71
     3
 72
    14
 73
    10
 74
     0
 42
0.0000000001
 43
0.0000000001
 12
1.0
 22
0.0
 32
0.0
 13
1.0
 23
0.0
 33
0.0
 40
0.0
 40
0.0
 40
0.0
 40
0.0
 40
1.0
 40
1.0
 40
1.0
 40
2.0
 40
2.0
 40
2.0
 40
3.0
 40
3.0
 40
3.0
 40
3.0
 10
295.3569946289062
 20
199.6900024414062
 30
0.0
 10
295.3569946289062
 20
199.6900024414062
 30
0.0
 10
259.9679870605469
 20
199.6900024414062
 30
0.0
 10
259.9679870605469
 20
199.6900024414062
 30
0.0
 10
259.9679870605469
 20
199.6900024414062
 30
0.0
 10
285.6129760742188
 20
203.2789916992188
 30
0.0
 10
285.6129760742188
 20
203.2789916992188
 30
0.0
 10
285.8869934082031
 20
203.0060119628906
 30
0.0
 10
294.9920043945312
 20
199.8200073242188
 30
0.0
 10
295.3569946289062
 20
199.6900024414062
 30
0.0
  0
POLYLINE
  5
47
330
1F
100
AcDbEntity
  8
_U+0421_U+043B_U+043E_U+0439 1
 62
     7
420
 16777215
370
     9
100
AcDb2dPolyline
 66
     1
 10
0.0
 20
0.0
 30
0.0
  0
VERTEX
  5
48
330
47
100
AcDbEntity
  8
_U+0421_U+043B_U+043E_U+0439 1
 62
     7
420
 16777215
370
     9
100
AcDbVertex
100
AcDb2dVertex
 10
291.2539978027344
 20
205.2799987792969
 30
0.0
  0
VERTEX
  5
49
330
47
100
AcDbEntity
  8
_U+0421_U+043B_U+043E_U+0439 1
 62
     7
420
 16777215
370
     9
100
AcDbVertex
100
AcDb2dVertex
 10
263.8259887695312
 20
201.4410095214844
 30
0.0
  0
VERTEX
  5
4A
330
47
100
AcDbEntity
  8
_U+0421_U+043B_U+043E_U+0439 1
 62
     7
420
 16777215
370
     9
100
AcDbVertex
100
AcDb2dVertex
 10
280.2799987792969
 20
206.2160034179688
 30
0.0
  0
VERTEX
  5
4B
330
47
100
AcDbEntity
  8
_U+0421_U+043B_U+043E_U+0439 1
 62
     7
420
 16777215
370
     9
100
AcDbVertex
100
AcDb2dVertex
 10
291.2539978027344
 20
205.2799987792969
 30
0.0
  0
SEQEND
  5
4C
330
47
100
AcDbEntity
  8
_U+0421_U+043B_U+043E_U+0439 1
 62
     7
420
 16777215
370
     9
  0
SPLINE
  5
4D
330
1F
100
AcDbEntity
  8
_U+0421_U+043B_U+043E_U+0439 1
 62
     7
420
 16777215
370
     9
100
AcDbSpline
210
0.0
220
0.0
230
1.0
 70
    11
 71
     3
 72
    14
 73
    10
 74
     0
 42
0.0000000001
 43
0.0000000001
 12
1.0
 22
0.0
 32
0.0
 13
1.0
 23
0.0
 33
0.0
 40
0.0
 40
0.0
 40
0.0
 40
0.0
 40
1.0
 40
1.0
 40
1.0
 40
2.0
 40
2.0
 40
2.0
 40
3.0
 40
3.0
 40
3.0
 40
3.0
 10
290.2579956054688
 20
210.3609924316406
 30
0.0
 10
281.4349975585938
 20
207.7999877929688
 30
0.0
 10
273.6520080566406
 20
205.5409851074219
 30
0.0
 10
264.8110046386719
 20
202.9750061035156
 30
0.0
 10
264.8110046386719
 20
202.9750061035156
 30
0.0
 10
281.4720153808594
 20
210.1320190429688
 30
0.0
 10
281.4720153808594
 20
210.1320190429688
 30
0.0
 10
281.5880126953125
 20
210.1069946289062
 30
0.0
 10
290.1390075683594
 20
210.3580017089844
 30
0.0
 10
290.2579956054688
 20
210.3609924316406
 30
0.0
  0
POLYLINE
  5
4E
330
1F
100
AcDbEntity
  8
_U+0421_U+043B_U+043E_U+0439 1
 62
     7
420
 16777215
370
     9
100
AcDb2dPolyline
 66
     1
 10
0.0
 20
0.0
 30
0.0
  0
VERTEX
  5
4F
330
4E
100
AcDbEntity
  8
_U+0421_U+043B_U+043E_U+0439 1
 62
     7
420
 16777215
370
     9
100
AcDbVertex
100
AcDb2dVertex
 10
277.0530090332031
 20
212.2460021972656
 30
0.0
  0
VERTEX
  5
50
330
4E
100
AcDbEntity
  8
_U+0421_U+043B_U+043E_U+0439 1
 62
     7
420
 16777215
370
     9
100
AcDbVertex
100
AcDb2dVertex
 10
287.3659973144531
 20
213.9710083007812
 30
0.0
  0
VERTEX
  5
51
330
4E
100
AcDbEntity
  8
_U+0421_U+043B_U+043E_U+0439 1
 62
     7
420
 16777215
370
     9
100
AcDbVertex
100
AcDb2dVertex
 10
258.2279968261719
 20
201.4550170898438
 30
0.0
  0
VERTEX
  5
52
330
4E
100
AcDbEntity
  8
_U+0421_U+043B_U+043E_U+0439 1
 62
     7
420
 16777215
370
     9
100
AcDbVertex
100
AcDb2dVertex
 10
259.5780029296875
 20
202.8210144042969
 30
0.0
  0
VERTEX
  5
53
330
4E
100
AcDbEntity
  8
_U+0421_U+043B_U+043E_U+0439 1
 62
     7
420
 16777215
370
     9
100
AcDbVertex
100
AcDb2dVertex
 10
277.0530090332031
 20
212.2460021972656
 30
0.0
  0
SEQEND
  5
54
330
4E
100
AcDbEntity
  8
_U+0421_U+043B_U+043E_U+0439 1
 62
     7
420
 16777215
370
     9
  0
SPLINE
  5
55
330
1F
100
AcDbEntity
  8
_U+0421_U+043B_U+043E_U+0439 1
 62
     7
420
 16777215
370
     9
100
AcDbSpline
210
0.0
220
0.0
230
1.0
 70
    11
 71
     3
 72
    17
 73
    13
 74
     0
 42
0.0000000001
 43
0.0000000001
 12
1.0
 22
0.0
 32
0.0
 13
1.0
 23
0.0
 33
0.0
 40
0.0
 40
0.0
 40
0.0
 40
0.0
 40
1.0
 40
1.0
 40
1.0
 40
2.0
 40
2.0
 40
2.0
 40
3.0
 40
3.0
 40
3.0
 40
4.0
 40
4.0
 40
4.0
 40
4.0
 10
271.6789855957031
 20
222.9660034179688
 30
0.0
 10
271.6789855957031
 20
222.9660034179688
 30
0.0
 10
279.7009887695312
 20
224.8819885253906
 30
0.0
 10
279.7009887695312
 20
224.8819885253906
 30
0.0
 10
279.7009887695312
 20
224.8819885253906
 30
0.0
 10
256.6069946289062
 20
201.5229797363281
 30
0.0
 10
256.6069946289062
 20
201.5229797363281
 30
0.0
 10
256.2279968261719
 20
201.6379699707031
 30
0.0
 10
256.0289916992188
 20
201.614990234375
 30
0.0
 10
255.6029968261719
 20
201.614990234375
 30
0.0
 10
257.7369995117188
 20
206.1289978027344
 30
0.0
 10
255.0650024414062
 20
202.3940124511719
 30
0.0
 10
271.6789855957031
 20
222.9660034179688
 30
0.0
  0
POLYLINE
  5
56
330
1F
100
AcDbEntity
  8
_U+0421_U+043B_U+043E_U+0439 1
 62
     7
420
 16777215
370
     9
100
AcDb2dPolyline
 66
     1
 10
0.0
 20
0.0
 30
0.0
  0
VERTEX
  5
57
330
56
100
AcDbEntity
  8
_U+0421_U+043B_U+043E_U+0439 1
 62
     7
420
 16777215
370
     9
100
AcDbVertex
100
AcDb2dVertex
 10
262.1119995117188
 20
226.1809997558594
 30
0.0
  0
VERTEX
  5
58
330
56
100
AcDbEntity
  8
_U+0421_U+043B_U+043E_U+0439 1
 62
     7
420
 16777215
370
     9
100
AcDbVertex
100
AcDb2dVertex
 10
267.7030029296875
 20
230.0220031738281
 30
0.0
  0
VERTEX
  5
59
330
56
100
AcDbEntity
  8
_U+0421_U+043B_U+043E_U+0439 1
 62
     7
420
 16777215
370
     9
100
AcDbVertex
100
AcDb2dVertex
 10
254.2760009765625
 20
201.614990234375
 30
0.0
  0
VERTEX
  5
5A
330
56
100
AcDbEntity
  8
_U+0421_U+043B_U+043E_U+0439 1
 62
     7
420
 16777215
370
     9
100
AcDbVertex
100
AcDb2dVertex
 10
253.3260040283203
 20
201.614990234375
 30
0.0
  0
VERTEX
  5
5B
330
56
100
AcDbEntity
  8
_U+0421_U+043B_U+043E_U+0439 1
 62
     7
420
 16777215
370
     9
100
AcDbVertex
100
AcDb2dVertex
 10
262.1119995117188
 20
226.1809997558594
 30
0.0
  0
SEQEND
  5
5C
330
56
100
AcDbEntity
  8
_U+0421_U+043B_U+043E_U+0439 1
 62
     7
420
 16777215
370
     9
  0
POLYLINE
  5
5D
330
1F
100
AcDbEntity
  8
_U+0421_U+043B_U+043E_U+0439 1
 62
     7
420
 16777215
370
     9
100
AcDb2dPolyline
 66
     1
 10
0.0
 20
0.0
 30
0.0
  0
VERTEX
  5
5E
330
5D
100
AcDbEntity
  8
_U+0421_U+043B_U+043E_U+0439 1
 62
     7
420
 16777215
370
     9
100
AcDbVertex
100
AcDb2dVertex
 10
253.3379974365234
 20
233.2520141601562
 30
0.0
  0
VERTEX
  5
5F
330
5D
100
AcDbEntity
  8
_U+0421_U+043B_U+043E_U+0439 1
 62
     7
420
 16777215
370
     9
100
AcDbVertex
100
AcDb2dVertex
 10
251.5110015869141
 20
201.614013671875
 30
0.0
  0
VERTEX
  5
60
330
5D
100
AcDbEntity
  8
_U+0421_U+043B_U+043E_U+0439 1
 62
     7
420
 16777215
370
     9
100
AcDbVertex
100
AcDb2dVertex
 10
250.8000030517578
 20
201.614013671875
 30
0.0
  0
VERTEX
  5
61
330
5D
100
AcDbEntity
  8
_U+0421_U+043B_U+043E_U+0439 1
 62
     7
420
 16777215
370
     9
100
AcDbVertex
100
AcDb2dVertex
 10
250.8000030517578
 20
230.6130065917969
 30
0.0
  0
VERTEX
  5
62
330
5D
100
AcDbEntity
  8
_U+0421_U+043B_U+043E_U+0439 1
 62
     7
420
 16777215
370
     9
100
AcDbVertex
100
AcDb2dVertex
 10
253.3379974365234
 20
233.2520141601562
 30
0.0
  0
SEQEND
  5
63
330
5D
100
AcDbEntity
  8
_U+0421_U+043B_U+043E_U+0439 1
 62
     7
420
 16777215
370
     9
  0
SPLINE
  5
64
330
1F
100
AcDbEntity
  8
_U+0421_U+043B_U+043E_U+0439 1
 62
     7
420
 16777215
370
     9
100
AcDbSpline
210
0.0
220
0.0
230
1.0
 70
    11
 71
     3
 72
    20
 73
    16
 74
     0
 42
0.0000000001
 43
0.0000000001
 12
1.0
 22
0.0
 32
0.0
 13
1.0
 23
0.0
 33
0.0
 40
0.0
 40
0.0
 40
0.0
 40
0.0
 40
1.0
 40
1.0
 40
1.0
 40
2.0
 40
2.0
 40
2.0
 40
3.0
 40
3.0
 40
3.0
 40
4.0
 40
4.0
 40
4.0
 40
5.0
 40
5.0
 40
5.0
 40
5.0
 10
233.7440032958984
 20
223.1520080566406
 30
0.0
 10
233.7440032958984
 20
223.1520080566406
 30
0.0
 10
249.6000061035156
 20
202.3529968261719
 30
0.0
 10
249.6000061035156
 20
202.3529968261719
 30
0.0
 10
249.6000061035156
 20
202.3529968261719
 30
0.0
 10
249.6000061035156
 20
201.6139831542969
 30
0.0
 10
249.6000061035156
 20
201.6139831542969
 30
0.0
 10
249.3390045166016
 20
201.6139831542969
 30
0.0
 10
248.1540069580078
 20
201.6169738769531
 30
0.0
 10
247.8930053710938
 20
201.6079711914062
 30
0.0
 10
247.8930053710938
 20
201.6079711914062
 30
0.0
 10
224.8110046386719
 20
226.4369812011719
 30
0.0
 10
224.8110046386719
 20
226.4369812011719
 30
0.0
 10
224.8110046386719
 20
226.4369812011719
 30
0.0
 10
233.7440032958984
 20
223.1520080566406
 30
0.0
 10
233.7440032958984
 20
223.1520080566406
 30
0.0
  0
SPLINE
  5
65
330
1F
100
AcDbEntity
  8
_U+0421_U+043B_U+043E_U+0439 1
 62
     7
420
 16777215
370
     9
100
AcDbSpline
210
0.0
220
0.0
230
1.0
 70
    11
 71
     3
 72
    20
 73
    16
 74
     0
 42
0.0000000001
 43
0.0000000001
 12
1.0
 22
0.0
 32
0.0
 13
1.0
 23
0.0
 33
0.0
 40
0.0
 40
0.0
 40
0.0
 40
0.0
 40
1.0
 40
1.0
 40
1.0
 40
2.0
 40
2.0
 40
2.0
 40
3.0
 40
3.0
 40
3.0
 40
4.0
 40
4.0
 40
4.0
 40
5.0
 40
5.0
 40
5.0
 40
5.0
 10
215.6990051269531
 20
214.3720092773438
 30
0.0
 10
215.6990051269531
 20
214.3720092773438
 30
0.0
 10
226.8810119628906
 20
213.1940002441406
 30
0.0
 10
226.8810119628906
 20
213.1940002441406
 30
0.0
 10
226.8810119628906
 20
213.1940002441406
 30
0.0
 10
245.166015625
 20
202.781005859375
 30
0.0
 10
245.166015625
 20
202.781005859375
 30
0.0
 10
245.166015625
 20
202.781005859375
 30
0.0
 10
246.6950225830078
 20
201.1369934082031
 30
0.0
 10
246.6950225830078
 20
201.1369934082031
 30
0.0
 10
246.6740264892578
 20
201.1189880371094
 30
0.0
 10
246.6520233154297
 20
201.10400390625
 30
0.0
 10
246.6320190429688
 20
201.0849914550781
 30
0.0
 10
246.6320190429688
 20
201.0849914550781
 30
0.0
 10
215.6990051269531
 20
214.3720092773438
 30
0.0
 10
215.6990051269531
 20
214.3720092773438
 30
0.0
  0
POLYLINE
  5
66
330
1F
100
AcDbEntity
  8
_U+0421_U+043B_U+043E_U+0439 1
 62
     7
420
 16777215
370
     9
100
AcDb2dPolyline
 66
     1
 10
0.0
 20
0.0
 30
0.0
  0
VERTEX
  5
67
330
66
100
AcDbEntity
  8
_U+0421_U+043B_U+043E_U+0439 1
 62
     7
420
 16777215
370
     9
100
AcDbVertex
100
AcDb2dVertex
 10
220.6320037841797
 20
210.9469909667969
 30
0.0
  0
VERTEX
  5
68
330
66
100
AcDbEntity
  8
_U+0421_U+043B_U+043E_U+0439 1
 62
     7
420
 16777215
370
     9
100
AcDbVertex
100
AcDb2dVertex
 10
239.1900024414062
 20
202.9749755859375
 30
0.0
  0
VERTEX
  5
69
330
66
100
AcDbEntity
  8
_U+0421_U+043B_U+043E_U+0439 1
 62
     7
420
 16777215
370
     9
100
AcDbVertex
100
AcDb2dVertex
 10
212.7870025634766
 20
210.6379699707031
 30
0.0
  0
VERTEX
  5
6A
330
66
100
AcDbEntity
  8
_U+0421_U+043B_U+043E_U+0439 1
 62
     7
420
 16777215
370
     9
100
AcDbVertex
100
AcDb2dVertex
 10
220.6320037841797
 20
210.9469909667969
 30
0.0
  0
SEQEND
  5
6B
330
66
100
AcDbEntity
  8
_U+0421_U+043B_U+043E_U+0439 1
 62
     7
420
 16777215
370
     9
  0
POLYLINE
  5
6C
330
1F
100
AcDbEntity
  8
_U+0421_U+043B_U+043E_U+0439 1
 62
     7
420
 16777215
370
     9
100
AcDb2dPolyline
 66
     1
 10
0.0
 20
0.0
 30
0.0
  0
VERTEX
  5
6D
330
6C
100
AcDbEntity
  8
_U+0421_U+043B_U+043E_U+0439 1
 62
     7
420
 16777215
370
     9
100
AcDbVertex
100
AcDb2dVertex
 10
210.8529968261719
 20
205.5450134277344
 30
0.0
  0
VERTEX
  5
6E
330
6C
100
AcDbEntity
  8
_U+0421_U+043B_U+043E_U+0439 1
 62
     7
420
 16777215
370
     9
100
AcDbVertex
100
AcDb2dVertex
 10
219.6360015869141
 20
207.4020080566406
 30
0.0
  0
VERTEX
  5
6F
330
6C
100
AcDbEntity
  8
_U+0421_U+043B_U+043E_U+0439 1
 62
     7
420
 16777215
370
     9
100
AcDbVertex
100
AcDb2dVertex
 10
240.1750030517578
 20
201.4410095214844
 30
0.0
  0
VERTEX
  5
70
330
6C
100
AcDbEntity
  8
_U+0421_U+043B_U+043E_U+0439 1
 62
     7
420
 16777215
370
     9
100
AcDbVertex
100
AcDb2dVertex
 10
210.8529968261719
 20
205.5450134277344
 30
0.0
  0
SEQEND
  5
71
330
6C
100
AcDbEntity
  8
_U+0421_U+043B_U+043E_U+0439 1
 62
     7
420
 16777215
370
     9
  0
SPLINE
  5
72
330
1F
100
AcDbEntity
  8
_U+0421_U+043B_U+043E_U+0439 1
 62
     7
420
 16777215
370
     9
100
AcDbSpline
210
0.0
220
0.0
230
1.0
 70
    11
 71
     3
 72
    14
 73
    10
 74
     0
 42
0.0000000001
 43
0.0000000001
 12
1.0
 22
0.0
 32
0.0
 13
1.0
 23
0.0
 33
0.0
 40
0.0
 40
0.0
 40
0.0
 40
0.0
 40
1.0
 40
1.0
 40
1.0
 40
2.0
 40
2.0
 40
2.0
 40
3.0
 40
3.0
 40
3.0
 40
3.0
 10
244.0319976806641
 20
199.6900024414062
 30
0.0
 10
244.0319976806641
 20
199.6900024414062
 30
0.0
 10
208.4109954833984
 20
199.6900024414062
 30
0.0
 10
208.4109954833984
 20
199.6900024414062
 30
0.0
 10
208.7159881591797
 20
199.8160095214844
 30
0.0
 10
217.0199890136719
 20
203.2040100097656
 30
0.0
 10
217.2519989013672
 20
203.43798828125
 30
0.0
 10
217.2519989013672
 20
203.43798828125
 30
0.0
 10
244.0319976806641
 20
199.6900024414062
 30
0.0
 10
244.0319976806641
 20
199.6900024414062
 30
0.0
  0
SPLINE
  5
73
330
1F
100
AcDbEntity
  8
_U+0421_U+043B_U+043E_U+0439 1
 62
     7
420
 16777215
370
     9
100
AcDbSpline
210
0.0
220
0.0
230
1.0
 70
    11
 71
     3
 72
    35
 73
    31
 74
     0
 42
0.0000000001
 43
0.0000000001
 12
1.0
 22
0.0
 32
0.0
 13
1.0
 23
0.0
 33
0.0
 40
0.0
 40
0.0
 40
0.0
 40
0.0
 40
1.0
 40
1.0
 40
1.0
 40
2.0
 40
2.0
 40
2.0
 40
3.0
 40
3.0
 40
3.0
 40
4.0
 40
4.0
 40
4.0
 40
5.0
 40
5.0
 40
5.0
 40
6.0
 40
6.0
 40
6.0
 40
7.0
 40
7.0
 40
7.0
 40
8.0
 40
8.0
 40
8.0
 40
9.0
 40
9.0
 40
9.0
 40
10.0
 40
10.0
 40
10.0
 40
10.0
 10
238.2310028076172
 20
286.8300018310547
 30
0.0
 10
238.6889953613281
 20
286.6360015869141
 30
0.0
 10
239.1520080566406
 20
287.0680084228516
 30
0.0
 10
238.9850006103516
 20
287.552001953125
 30
0.0
 10
238.9250030517578
 20
287.7250061035156
 30
0.0
 10
234.177001953125
 20
292.8310089111328
 30
0.0
 10
233.9730072021484
 20
293.2230072021484
 30
0.0
 10
234.0040130615234
 20
293.2570037841797
 30
0.0
 10
234.1800079345703
 20
293.3070068359375
 30
0.0
 10
234.3780059814453
 20
293.364013671875
 30
0.0
 10
242.4000091552734
 20
295.6460113525391
 30
0.0
 10
241.5540008544922
 20
306.8500061035156
 30
0.0
 10
233.0820007324219
 20
307.0020141601562
 30
0.0
 10
231.3719940185547
 20
307.0470123291016
 30
0.0
 10
231.8339996337891
 20
307.2490081787109
 30
0.0
 10
232.0610046386719
 20
293.0180206298828
 30
0.0
 10
232.1480102539062
 20
287.5180206298828
 30
0.0
 10
231.8590087890625
 20
286.1050262451172
 30
0.0
 10
232.7580108642578
 20
286.0730133056641
 30
0.0
 10
232.9140167236328
 20
286.0730133056641
 30
0.0
 10
233.0430145263672
 20
286.1230163574219
 30
0.0
 10
233.1510162353516
 20
286.2300109863281
 30
0.0
 10
233.4910125732422
 20
286.5650177001953
 30
0.0
 10
233.3510131835938
 20
289.2820129394531
 30
0.0
 10
233.3280181884766
 20
289.7590179443359
 30
0.0
 10
233.2890167236328
 20
290.551025390625
 30
0.0
 10
233.3140106201172
 20
291.3170166015625
 30
0.0
 10
233.3180236816406
 20
292.1000213623047
 30
0.0
 10
233.6150054931641
 20
291.7649993896484
 30
0.0
 10
237.8209991455078
 20
287.0059967041016
 30
0.0
 10
238.2310028076172
 20
286.8300018310547
 30
0.0
  0
SPLINE
  5
74
330
1F
100
AcDbEntity
  8
_U+0421_U+043B_U+043E_U+0439 1
 62
     7
420
 16777215
370
     9
100
AcDbSpline
210
0.0
220
0.0
230
1.0
 70
    11
 71
     3
 72
    17
 73
    13
 74
     0
 42
0.0000000001
 43
0.0000000001
 12
1.0
 22
0.0
 32
0.0
 13
1.0
 23
0.0
 33
0.0
 40
0.0
 40
0.0
 40
0.0
 40
0.0
 40
1.0
 40
1.0
 40
1.0
 40
2.0
 40
2.0
 40
2.0
 40
3.0
 40
3.0
 40
3.0
 40
4.0
 40
4.0
 40
4.0
 40
4.0
 10
233.1179962158203
 20
305.7480010986328
 30
0.0
 10
233.1709899902344
 20
305.7960052490234
 30
0.0
 10
233.3690032958984
 20
305.7839965820312
 30
0.0
 10
233.4409942626953
 20
305.7790069580078
 30
0.0
 10
238.6559906005859
 20
305.4930114746094
 30
0.0
 10
240.5649871826172
 20
299.5050048828125
 30
0.0
 10
236.7879943847656
 20
295.9960021972656
 30
0.0
 10
235.4259948730469
 20
294.72900390625
 30
0.0
 10
233.4519958496094
 20
294.2920074462891
 30
0.0
 10
233.3099975585938
 20
294.4170074462891
 30
0.0
 10
233.218994140625
 20
294.4869995117188
 30
0.0
 10
232.9709930419922
 20
305.6080017089844
 30
0.0
 10
233.1179962158203
 20
305.7480010986328
 30
0.0
  0
SPLINE
  5
75
330
1F
100
AcDbEntity
  8
_U+0421_U+043B_U+043E_U+0439 1
 62
     7
420
 16777215
370
     9
100
AcDbSpline
210
0.0
220
0.0
230
1.0
 70
    11
 71
     3
 72
    50
 73
    46
 74
     0
 42
0.0000000001
 43
0.0000000001
 12
1.0
 22
0.0
 32
0.0
 13
1.0
 23
0.0
 33
0.0
 40
0.0
 40
0.0
 40
0.0
 40
0.0
 40
1.0
 40
1.0
 40
1.0
 40
2.0
 40
2.0
 40
2.0
 40
3.0
 40
3.0
 40
3.0
 40
4.0
 40
4.0
 40
4.0
 40
5.0
 40
5.0
 40
5.0
 40
6.0
 40
6.0
 40
6.0
 40
7.0
 40
7.0
 40
7.0
 40
8.0
 40
8.0
 40
8.0
 40
9.0
 40
9.0
 40
9.0
 40
10.0
 40
10.0
 40
10.0
 40
11.0
 40
11.0
 40
11.0
 40
12.0
 40
12.0
 40
12.0
 40
13.0
 40
13.0
 40
13.0
 40
14.0
 40
14.0
 40
14.0
 40
15.0
 40
15.0
 40
15.0
 40
15.0
 10
243.4570007324219
 20
305.4510040283203
 30
0.0
 10
243.4580078125
 20
305.3390045166016
 30
0.0
 10
243.5019989013672
 20
301.1450042724609
 30
0.0
 10
243.5850067138672
 20
301.0690002441406
 30
0.0
 10
243.6380004882812
 20
301.02099609375
 30
0.0
 10
245.7420043945312
 20
301.2169952392578
 30
0.0
 10
245.8820037841797
 20
301.1999969482422
 30
0.0
 10
246.6710052490234
 20
301.1009979248047
 30
0.0
 10
246.6210021972656
 20
300.1380004882812
 30
0.0
 10
245.9329986572266
 20
300.0299987792969
 30
0.0
 10
242.2039947509766
 20
299.4739990234375
 30
0.0
 10
243.9199981689453
 20
302.0039978027344
 30
0.0
 10
243.6690063476562
 20
287.9909973144531
 30
0.0
 10
243.6660003662109
 20
287.8369903564453
 30
0.0
 10
243.7100067138672
 20
287.7830047607422
 30
0.0
 10
243.8930053710938
 20
287.7969970703125
 30
0.0
 10
243.8930053710938
 20
287.7969970703125
 30
0.0
 10
247.6090087890625
 20
287.9539947509766
 30
0.0
 10
247.6100006103516
 20
287.9539947509766
 30
0.0
 10
248.6849975585938
 20
288.0110015869141
 30
0.0
 10
248.77099609375
 20
286.9550018310547
 30
0.0
 10
247.8520050048828
 20
286.7639923095703
 30
0.0
 10
247.6210021972656
 20
286.7159881591797
 30
0.0
 10
243.8220062255859
 20
286.4969940185547
 30
0.0
 10
243.1220092773438
 20
286.5919952392578
 30
0.0
 10
241.9800109863281
 20
286.739990234375
 30
0.0
 10
242.6760101318359
 20
287.2519989013672
 30
0.0
 10
242.281005859375
 20
303.7809906005859
 30
0.0
 10
242.2160034179688
 20
306.3899841308594
 30
0.0
 10
242.0550079345703
 20
306.9419860839844
 30
0.0
 10
243.0550079345703
 20
306.9959869384766
 30
0.0
 10
243.1910095214844
 20
307.0019836425781
 30
0.0
 10
248.9380035400391
 20
306.9869842529297
 30
0.0
 10
249.0750122070312
 20
306.9859924316406
 30
0.0
 10
249.8550109863281
 20
306.9819946289062
 30
0.0
 10
250.0610046386719
 20
306.6719970703125
 30
0.0
 10
250.041015625
 20
306.3379974365234
 30
0.0
 10
250.0060119628906
 20
305.7949981689453
 30
0.0
 10
249.5390167236328
 20
305.7630004882812
 30
0.0
 10
249.0130157470703
 20
305.7630004882812
 30
0.0
 10
247.4350128173828
 20
305.7660064697266
 30
0.0
 10
245.6150207519531
 20
305.7720031738281
 30
0.0
 10
244.0660095214844
 20
305.7779998779297
 30
0.0
 10
243.3639984130859
 20
305.8000030517578
 30
0.0
 10
243.4539947509766
 20
305.6920013427734
 30
0.0
 10
243.4570007324219
 20
305.4510040283203
 30
0.0
  0
SPLINE
  5
76
330
1F
100
AcDbEntity
  8
_U+0421_U+043B_U+043E_U+0439 1
 62
     7
420
 16777215
370
     9
100
AcDbSpline
210
0.0
220
0.0
230
1.0
 70
    11
 71
     3
 72
    32
 73
    28
 74
     0
 42
0.0000000001
 43
0.0000000001
 12
1.0
 22
0.0
 32
0.0
 13
1.0
 23
0.0
 33
0.0
 40
0.0
 40
0.0
 40
0.0
 40
0.0
 40
1.0
 40
1.0
 40
1.0
 40
2.0
 40
2.0
 40
2.0
 40
3.0
 40
3.0
 40
3.0
 40
4.0
 40
4.0
 40
4.0
 40
5.0
 40
5.0
 40
5.0
 40
6.0
 40
6.0
 40
6.0
 40
7.0
 40
7.0
 40
7.0
 40
8.0
 40
8.0
 40
8.0
 40
9.0
 40
9.0
 40
9.0
 40
9.0
 10
260.7130126953125
 20
287.2579956054688
 30
0.0
 10
256.2570190429688
 20
306.822998046875
 30
0.0
 10
256.5550231933594
 20
306.9879913330078
 30
0.0
 10
255.6820068359375
 20
306.9879913330078
 30
0.0
 10
255.1160125732422
 20
306.9879913330078
 30
0.0
 10
255.031005859375
 20
306.3679962158203
 30
0.0
 10
254.9050140380859
 20
305.8169860839844
 30
0.0
 10
254.4940185546875
 20
304.0149841308594
 30
0.0
 10
250.8660125732422
 20
288.0929870605469
 30
0.0
 10
250.6270141601562
 20
287.0169830322266
 30
0.0
 10
250.3480072021484
 20
285.8359832763672
 30
0.0
 10
251.3910217285156
 20
285.7019805908203
 30
0.0
 10
251.6820068359375
 20
286.3919830322266
 30
0.0
 10
251.7710113525391
 20
286.6019897460938
 30
0.0
 10
252.5970001220703
 20
290.2899780273438
 30
0.0
 10
252.6540069580078
 20
290.5339813232422
 30
0.0
 10
252.7440032958984
 20
290.9219818115234
 30
0.0
 10
252.7440032958984
 20
290.9219818115234
 30
0.0
 10
253.1200103759766
 20
290.9249877929688
 30
0.0
 10
258.9519958496094
 20
290.9759826660156
 30
0.0
 10
258.5760192871094
 20
291.2239837646484
 30
0.0
 10
258.7490234375
 20
290.4879913330078
 30
0.0
 10
258.7810363769531
 20
290.3519897460938
 30
0.0
 10
259.6090087890625
 20
286.7199859619141
 30
0.0
 10
259.6590270996094
 20
286.6009979248047
 30
0.0
 10
259.9559936523438
 20
285.875
 30
0.0
 10
260.9859924316406
 20
286.0630035400391
 30
0.0
 10
260.7130126953125
 20
287.2579956054688
 30
0.0
  0
SPLINE
  5
77
330
1F
100
AcDbEntity
  8
_U+0421_U+043B_U+043E_U+0439 1
 62
     7
420
 16777215
370
     9
100
AcDbSpline
210
0.0
220
0.0
230
1.0
 70
    11
 71
     3
 72
    17
 73
    13
 74
     0
 42
0.0000000001
 43
0.0000000001
 12
1.0
 22
0.0
 32
0.0
 13
1.0
 23
0.0
 33
0.0
 40
0.0
 40
0.0
 40
0.0
 40
0.0
 40
1.0
 40
1.0
 40
1.0
 40
2.0
 40
2.0
 40
2.0
 40
3.0
 40
3.0
 40
3.0
 40
4.0
 40
4.0
 40
4.0
 40
4.0
 10
253.406005859375
 20
292.1490020751953
 30
0.0
 10
253.0130004882812
 20
292.1430053710938
 30
0.0
 10
253.0250091552734
 20
292.1390075683594
 30
0.0
 10
253.1190032958984
 20
292.5590057373047
 30
0.0
 10
253.427001953125
 20
293.9450073242188
 30
0.0
 10
255.5149993896484
 20
303.2080078125
 30
0.0
 10
255.6940002441406
 20
303.8730010986328
 30
0.0
 10
255.7480010986328
 20
303.6349945068359
 30
0.0
 10
258.2090148925781
 20
292.8350067138672
 30
0.0
 10
258.2640075683594
 20
292.5970001220703
 30
0.0
 10
258.39599609375
 20
291.9519958496094
 30
0.0
 10
258.614013671875
 20
292.1660003662109
 30
0.0
 10
253.406005859375
 20
292.1490020751953
 30
0.0
  0
SPLINE
  5
78
330
1F
100
AcDbEntity
  8
_U+0421_U+043B_U+043E_U+0439 1
 62
     7
420
 16777215
370
     9
100
AcDbSpline
210
0.0
220
0.0
230
1.0
 70
    11
 71
     3
 72
    17
 73
    13
 74
     0
 42
0.0000000001
 43
0.0000000001
 12
1.0
 22
0.0
 32
0.0
 13
1.0
 23
0.0
 33
0.0
 40
0.0
 40
0.0
 40
0.0
 40
0.0
 40
1.0
 40
1.0
 40
1.0
 40
2.0
 40
2.0
 40
2.0
 40
3.0
 40
3.0
 40
3.0
 40
4.0
 40
4.0
 40
4.0
 40
4.0
 10
262.7409973144531
 20
286.5
 30
0.0
 10
274.5669860839844
 20
289.4559936523438
 30
0.0
 10
274.3219909667969
 20
303.1510009765625
 30
0.0
 10
266.3829956054688
 20
306.4559936523438
 30
0.0
 10
265.5830078125
 20
306.7889862060547
 30
0.0
 10
262.6139831542969
 20
307.6399993896484
 30
0.0
 10
261.9739990234375
 20
307.0559997558594
 30
0.0
 10
261.5060119628906
 20
306.6300048828125
 30
0.0
 10
261.7200012207031
 20
305.5370025634766
 30
0.0
 10
261.7369995117188
 20
304.5359954833984
 30
0.0
 10
262.0260009765625
 20
286.8049926757812
 30
0.0
 10
261.5260009765625
 20
286.1959991455078
 30
0.0
 10
262.7409973144531
 20
286.5
 30
0.0
  0
SPLINE
  5
79
330
1F
100
AcDbEntity
  8
_U+0421_U+043B_U+043E_U+0439 1
 62
     7
420
 16777215
370
     9
100
AcDbSpline
210
0.0
220
0.0
230
1.0
 70
    11
 71
     3
 72
    14
 73
    10
 74
     0
 42
0.0000000001
 43
0.0000000001
 12
1.0
 22
0.0
 32
0.0
 13
1.0
 23
0.0
 33
0.0
 40
0.0
 40
0.0
 40
0.0
 40
0.0
 40
1.0
 40
1.0
 40
1.0
 40
2.0
 40
2.0
 40
2.0
 40
3.0
 40
3.0
 40
3.0
 40
3.0
 10
263.072998046875
 20
306.0050048828125
 30
0.0
 10
272.1699829101562
 20
305.2890014648438
 30
0.0
 10
274.3699951171875
 20
292.3460083007812
 30
0.0
 10
263.8399963378906
 20
288.0980072021484
 30
0.0
 10
263.1019897460938
 20
287.7990112304688
 30
0.0
 10
263.1780090332031
 20
287.7540130615234
 30
0.0
 10
263.1529846191406
 20
288.5880126953125
 30
0.0
 10
263.1449890136719
 20
288.8350067138672
 30
0.0
 10
262.8280029296875
 20
306.031005859375
 30
0.0
 10
263.072998046875
 20
306.0050048828125
 30
0.0
  0
SPLINE
  5
7A
330
1F
100
AcDbEntity
  8
_U+0421_U+043B_U+043E_U+0439 1
 62
     7
420
 16777215
370
     9
100
AcDbSpline
210
0.0
220
0.0
230
1.0
 70
    11
 71
     3
 72
    20
 73
    16
 74
     0
 42
0.0000000001
 43
0.0000000001
 12
1.0
 22
0.0
 32
0.0
 13
1.0
 23
0.0
 33
0.0
 40
0.0
 40
0.0
 40
0.0
 40
0.0
 40
1.0
 40
1.0
 40
1.0
 40
2.0
 40
2.0
 40
2.0
 40
3.0
 40
3.0
 40
3.0
 40
4.0
 40
4.0
 40
4.0
 40
5.0
 40
5.0
 40
5.0
 40
5.0
 10
229.7180023193359
 20
251.6309967041016
 30
0.0
 10
236.9920043945312
 20
251.7819976806641
 30
0.0
 10
236.9109954833984
 20
256.1809997558594
 30
0.0
 10
231.8630065917969
 20
256.7030029296875
 30
0.0
 10
231.9450073242188
 20
256.7859954833984
 30
0.0
 10
232.0350036621094
 20
256.8390045166016
 30
0.0
 10
232.1270141601562
 20
256.9080047607422
 30
0.0
 10
242.0480194091797
 20
264.5180053710938
 30
0.0
 10
231.5470123291016
 20
272.4700012207031
 30
0.0
 10
228.0310211181641
 20
271.8339996337891
 30
0.0
 10
227.0880279541016
 20
271.6640014648438
 30
0.0
 10
227.3070220947266
 20
271.1109924316406
 30
0.0
 10
227.3620147705078
 20
269.9309997558594
 30
0.0
 10
228.2449951171875
 20
251.0870056152344
 30
0.0
 10
227.4149932861328
 20
251.6309967041016
 30
0.0
 10
229.7180023193359
 20
251.6309967041016
 30
0.0
  0
SPLINE
  5
7B
330
1F
100
AcDbEntity
  8
_U+0421_U+043B_U+043E_U+0439 1
 62
     7
420
 16777215
370
     9
100
AcDbSpline
210
0.0
220
0.0
230
1.0
 70
    11
 71
     3
 72
    14
 73
    10
 74
     0
 42
0.0000000001
 43
0.0000000001
 12
1.0
 22
0.0
 32
0.0
 13
1.0
 23
0.0
 33
0.0
 40
0.0
 40
0.0
 40
0.0
 40
0.0
 40
1.0
 40
1.0
 40
1.0
 40
2.0
 40
2.0
 40
2.0
 40
3.0
 40
3.0
 40
3.0
 40
3.0
 10
229.6750030517578
 20
256.6920013427734
 30
0.0
 10
229.3000030517578
 20
256.4830017089844
 30
0.0
 10
229.1820068359375
 20
256.4629974365234
 30
0.0
 10
229.1820068359375
 20
256.4629974365234
 30
0.0
 10
229.1240081787109
 20
256.5299987792969
 30
0.0
 10
228.5170135498047
 20
270.5050048828125
 30
0.0
 10
228.5670013427734
 20
270.5879974365234
 30
0.0
 10
230.0780029296875
 20
271.5500030517578
 30
0.0
 10
241.7839965820312
 20
263.52099609375
 30
0.0
 10
229.6750030517578
 20
256.6920013427734
 30
0.0
  0
SPLINE
  5
7C
330
1F
100
AcDbEntity
  8
_U+0421_U+043B_U+043E_U+0439 1
 62
     7
420
 16777215
370
     9
100
AcDbSpline
210
0.0
220
0.0
230
1.0
 70
    11
 71
     3
 72
    23
 73
    19
 74
     0
 42
0.0000000001
 43
0.0000000001
 12
1.0
 22
0.0
 32
0.0
 13
1.0
 23
0.0
 33
0.0
 40
0.0
 40
0.0
 40
0.0
 40
0.0
 40
1.0
 40
1.0
 40
1.0
 40
2.0
 40
2.0
 40
2.0
 40
3.0
 40
3.0
 40
3.0
 40
4.0
 40
4.0
 40
4.0
 40
5.0
 40
5.0
 40
5.0
 40
6.0
 40
6.0
 40
6.0
 40
6.0
 10
229.2460021972656
 20
254.1349945068359
 30
0.0
 10
229.2460021972656
 20
254.1349945068359
 30
0.0
 10
229.2250061035156
 20
254.6419982910156
 30
0.0
 10
229.2250061035156
 20
254.6419982910156
 30
0.0
 10
229.2080078125
 20
254.9700012207031
 30
0.0
 10
229.2080078125
 20
254.9700012207031
 30
0.0
 10
229.5160064697266
 20
255.0989990234375
 30
0.0
 10
233.3970031738281
 20
256.7339935302734
 30
0.0
 10
237.5550079345703
 20
253.1719970703125
 30
0.0
 10
229.7770080566406
 20
252.8560028076172
 30
0.0
 10
229.1400146484375
 20
252.8200073242188
 30
0.0
 10
229.2640075683594
 20
252.8500061035156
 30
0.0
 10
229.2670135498047
 20
254.135009765625
 30
0.0
 10
229.2670135498047
 20
254.135009765625
 30
0.0
 10
229.2460021972656
 20
254.135009765625
 30
0.0
 10
229.2460021972656
 20
254.135009765625
 30
0.0
 10
229.2460021972656
 20
254.135009765625
 30
0.0
 10
229.2460021972656
 20
254.1349945068359
 30
0.0
 10
229.2460021972656
 20
254.1349945068359
 30
0.0
  0
SPLINE
  5
7D
330
1F
100
AcDbEntity
  8
_U+0421_U+043B_U+043E_U+0439 1
 62
     7
420
 16777215
370
     9
100
AcDbSpline
210
0.0
220
0.0
230
1.0
 70
    11
 71
     3
 72
    14
 73
    10
 74
     0
 42
0.0000000001
 43
0.0000000001
 12
1.0
 22
0.0
 32
0.0
 13
1.0
 23
0.0
 33
0.0
 40
0.0
 40
0.0
 40
0.0
 40
0.0
 40
1.0
 40
1.0
 40
1.0
 40
2.0
 40
2.0
 40
2.0
 40
3.0
 40
3.0
 40
3.0
 40
3.0
 10
244.8869934082031
 20
251.7050018310547
 30
0.0
 10
249.4039916992188
 20
254.4880065917969
 30
0.0
 10
249.4649963378906
 20
267.9960021972656
 30
0.0
 10
245.2799987792969
 20
271.4720001220703
 30
0.0
 10
243.14599609375
 20
273.2400054931641
 30
0.0
 10
241.0079956054688
 20
271.781005859375
 30
0.0
 10
239.8399963378906
 20
269.2030029296875
 30
0.0
 10
236.2649993896484
 20
261.302001953125
 30
0.0
 10
239.9109954833984
 20
248.6419982910156
 30
0.0
 10
244.8869934082031
 20
251.7050018310547
 30
0.0
  0
SPLINE
  5
7E
330
1F
100
AcDbEntity
  8
_U+0421_U+043B_U+043E_U+0439 1
 62
     7
420
 16777215
370
     9
100
AcDbSpline
210
0.0
220
0.0
230
1.0
 70
    11
 71
     3
 72
    14
 73
    10
 74
     0
 42
0.0000000001
 43
0.0000000001
 12
1.0
 22
0.0
 32
0.0
 13
1.0
 23
0.0
 33
0.0
 40
0.0
 40
0.0
 40
0.0
 40
0.0
 40
1.0
 40
1.0
 40
1.0
 40
2.0
 40
2.0
 40
2.0
 40
3.0
 40
3.0
 40
3.0
 40
3.0
 10
241.7839965820312
 20
270.1069946289062
 30
0.0
 10
242.6329956054688
 20
271.1829986572266
 30
0.0
 10
243.6600036621094
 20
271.3869934082031
 30
0.0
 10
244.6779937744141
 20
270.3949890136719
 30
0.0
 10
247.9449920654297
 20
267.208984375
 30
0.0
 10
248.0859985351562
 20
255.8879852294922
 30
0.0
 10
244.4579925537109
 20
252.8629913330078
 30
0.0
 10
240.6329956054688
 20
249.6730041503906
 30
0.0
 10
237.2850036621094
 20
264.5330047607422
 30
0.0
 10
241.7839965820312
 20
270.1069946289062
 30
0.0
  0
SPLINE
  5
7F
330
1F
100
AcDbEntity
  8
_U+0421_U+043B_U+043E_U+0439 1
 62
     7
420
 16777215
370
     9
100
AcDbSpline
210
0.0
220
0.0
230
1.0
 70
    11
 71
     3
 72
    14
 73
    10
 74
     0
 42
0.0000000001
 43
0.0000000001
 12
1.0
 22
0.0
 32
0.0
 13
1.0
 23
0.0
 33
0.0
 40
0.0
 40
0.0
 40
0.0
 40
0.0
 40
1.0
 40
1.0
 40
1.0
 40
2.0
 40
2.0
 40
2.0
 40
3.0
 40
3.0
 40
3.0
 40
3.0
 10
252.9649963378906
 20
271.3350067138672
 30
0.0
 10
252.3829956054688
 20
270.7870025634766
 30
0.0
 10
251.9049987792969
 20
270.0890045166016
 30
0.0
 10
251.5039978027344
 20
269.2030029296875
 30
0.0
 10
247.2749938964844
 20
259.8520050048828
 30
0.0
 10
253.02099609375
 20
246.3590087890625
 30
0.0
 10
257.7539978027344
 20
252.8320007324219
 30
0.0
 10
262.9920043945312
 20
259.9770050048828
 30
0.0
 10
258.4909973144531
 20
276.5500030517578
 30
0.0
 10
252.9649963378906
 20
271.3350067138672
 30
0.0
  0
SPLINE
  5
80
330
1F
100
AcDbEntity
  8
_U+0421_U+043B_U+043E_U+0439 1
 62
     7
420
 16777215
370
     9
100
AcDbSpline
210
0.0
220
0.0
230
1.0
 70
    11
 71
     3
 72
    11
 73
     7
 74
     0
 42
0.0000000001
 43
0.0000000001
 12
1.0
 22
0.0
 32
0.0
 13
1.0
 23
0.0
 33
0.0
 40
0.0
 40
0.0
 40
0.0
 40
0.0
 40
1.0
 40
1.0
 40
1.0
 40
2.0
 40
2.0
 40
2.0
 40
2.0
 10
257.0870056152344
 20
253.9600067138672
 30
0.0
 10
252.885009765625
 20
247.1230163574219
 30
0.0
 10
248.3180084228516
 20
264.8800048828125
 30
0.0
 10
253.6640014648438
 20
270.3610076904297
 30
0.0
 10
257.4970092773438
 20
274.3249969482422
 30
0.0
 10
261.1000061035156
 20
260.4859924316406
 30
0.0
 10
257.0870056152344
 20
253.9600067138672
 30
0.0
  0
SPLINE
  5
81
330
1F
100
AcDbEntity
  8
_U+0421_U+043B_U+043E_U+0439 1
 62
     7
420
 16777215
370
     9
100
AcDbSpline
210
0.0
220
0.0
230
1.0
 70
    11
 71
     3
 72
    50
 73
    46
 74
     0
 42
0.0000000001
 43
0.0000000001
 12
1.0
 22
0.0
 32
0.0
 13
1.0
 23
0.0
 33
0.0
 40
0.0
 40
0.0
 40
0.0
 40
0.0
 40
1.0
 40
1.0
 40
1.0
 40
2.0
 40
2.0
 40
2.0
 40
3.0
 40
3.0
 40
3.0
 40
4.0
 40
4.0
 40
4.0
 40
5.0
 40
5.0
 40
5.0
 40
6.0
 40
6.0
 40
6.0
 40
7.0
 40
7.0
 40
7.0
 40
8.0
 40
8.0
 40
8.0
 40
9.0
 40
9.0
 40
9.0
 40
10.0
 40
10.0
 40
10.0
 40
11.0
 40
11.0
 40
11.0
 40
12.0
 40
12.0
 40
12.0
 40
13.0
 40
13.0
 40
13.0
 40
14.0
 40
14.0
 40
14.0
 40
15.0
 40
15.0
 40
15.0
 40
15.0
 10
272.1539916992188
 20
270.9909973144531
 30
0.0
 10
272.218994140625
 20
271.4609985351562
 30
0.0
 10
271.7619934082031
 20
271.85400390625
 30
0.0
 10
271.2890014648438
 20
271.5540008544922
 30
0.0
 10
271.2690124511719
 20
271.5410003662109
 30
0.0
 10
263.5910034179688
 20
259.0110015869141
 30
0.0
 10
263.3410034179688
 20
258.6529998779297
 30
0.0
 10
263.3609924316406
 20
261.5679931640625
 30
0.0
 10
263.2990112304688
 20
259.8119964599609
 30
0.0
 10
262.9330139160156
 20
271.3739929199219
 30
0.0
 10
262.9220275878906
 20
271.875
 30
0.0
 10
262.7760009765625
 20
272.3569946289062
 30
0.0
 10
262.2730102539062
 20
272.3689880371094
 30
0.0
 10
261.2730102539062
 20
272.3289947509766
 30
0.0
 10
261.7130126953125
 20
271.8569946289062
 30
0.0
 10
262.3870239257812
 20
252.6759948730469
 30
0.0
 10
262.4100341796875
 20
252.0359954833984
 30
0.0
 10
262.3960266113281
 20
251.1940002441406
 30
0.0
 10
262.9930114746094
 20
251.1499938964844
 30
0.0
 10
263.2839965820312
 20
251.1319885253906
 30
0.0
 10
263.4800109863281
 20
251.2999877929688
 30
0.0
 10
263.5810241699219
 20
251.5749969482422
 30
0.0
 10
263.6460266113281
 20
251.7519989013672
 30
0.0
 10
263.6700134277344
 20
251.9279937744141
 30
0.0
 10
263.6490173339844
 20
252.0959930419922
 30
0.0
 10
263.5840148925781
 20
252.6489868164062
 30
0.0
 10
263.5790100097656
 20
253.2169952392578
 30
0.0
 10
263.5730285644531
 20
253.7669982910156
 30
0.0
 10
263.5690307617188
 20
254.1940002441406
 30
0.0
 10
263.47802734375
 20
256.0330047607422
 30
0.0
 10
263.489013671875
 20
256.1089935302734
 30
0.0
 10
263.5040283203125
 20
256.1009979248047
 30
0.0
 10
267.6420288085938
 20
252.6719970703125
 30
0.0
 10
267.7470092773438
 20
252.6069946289062
 30
0.0
 10
268.3980102539062
 20
252.2149963378906
 30
0.0
 10
268.9739990234375
 20
252.9239959716797
 30
0.0
 10
268.5010070800781
 20
253.489990234375
 30
0.0
 10
268.2440185546875
 20
253.7919921875
 30
0.0
 10
264.5559997558594
 20
256.8149871826172
 30
0.0
 10
264.2040100097656
 20
257.1189880371094
 30
0.0
 10
263.9360046386719
 20
257.3489837646484
 30
0.0
 10
263.9360046386719
 20
257.3489837646484
 30
0.0
 10
264.1199951171875
 20
257.6459808349609
 30
0.0
 10
264.4509887695312
 20
258.1759948730469
 30
0.0
 10
272.0679931640625
 20
270.3710021972656
 30
0.0
 10
272.1539916992188
 20
270.9909973144531
 30
0.0
  0
SPLINE
  5
82
330
1F
100
AcDbEntity
  8
_U+0421_U+043B_U+043E_U+0439 1
 62
     7
420
 16777215
370
     9
100
AcDbSpline
210
0.0
220
0.0
230
1.0
 70
    11
 71
     3
 72
    17
 73
    13
 74
     0
 42
0.0000000001
 43
0.0000000001
 12
1.0
 22
0.0
 32
0.0
 13
1.0
 23
0.0
 33
0.0
 40
0.0
 40
0.0
 40
0.0
 40
0.0
 40
1.0
 40
1.0
 40
1.0
 40
2.0
 40
2.0
 40
2.0
 40
3.0
 40
3.0
 40
3.0
 40
4.0
 40
4.0
 40
4.0
 40
4.0
 10
274.4299926757812
 20
251.6260070800781
 30
0.0
 10
274.8349914550781
 20
252.5610046386719
 30
0.0
 10
274.5489807128906
 20
252.7660064697266
 30
0.0
 10
274.6820068359375
 20
253.5430145263672
 30
0.0
 10
274.7409973144531
 20
253.9000091552734
 30
0.0
 10
274.9850158691406
 20
254.0870208740234
 30
0.0
 10
275.2760009765625
 20
254.0870208740234
 30
0.0
 10
275.7879943847656
 20
254.0870208740234
 30
0.0
 10
275.8470153808594
 20
253.5730133056641
 30
0.0
 10
275.8710021972656
 20
253.0890197753906
 30
0.0
 10
276.0050048828125
 20
249.8950042724609
 30
0.0
 10
273.8410034179688
 20
250.2799987792969
 30
0.0
 10
274.4299926757812
 20
251.6260070800781
 30
0.0
  0
SPLINE
  5
83
330
1F
100
AcDbEntity
  8
_U+0421_U+043B_U+043E_U+0439 1
 62
     7
420
 16777215
370
     9
100
AcDbSpline
210
0.0
220
0.0
230
1.0
 70
    11
 71
     3
 72
    17
 73
    13
 74
     0
 42
0.0000000001
 43
0.0000000001
 12
1.0
 22
0.0
 32
0.0
 13
1.0
 23
0.0
 33
0.0
 40
0.0
 40
0.0
 40
0.0
 40
0.0
 40
1.0
 40
1.0
 40
1.0
 40
2.0
 40
2.0
 40
2.0
 40
3.0
 40
3.0
 40
3.0
 40
4.0
 40
4.0
 40
4.0
 40
4.0
 10
228.2440032958984
 20
416.3509979248047
 30
0.0
 10
228.2669982910156
 20
415.1629943847656
 30
0.0
 10
228.8460083007812
 20
415.327995300293
 30
0.0
 10
229.9759979248047
 20
415.7239990234375
 30
0.0
 10
242.1580047607422
 20
420.0359954833984
 30
0.0
 10
240.3529968261719
 20
435.129997253418
 30
0.0
 10
229.1150054931641
 20
436.2080001831055
 30
0.0
 10
227.8240051269531
 20
436.3320007324219
 30
0.0
 10
227.9400024414062
 20
435.338996887207
 30
0.0
 10
227.9920043945312
 20
434.2010040283203
 30
0.0
 10
228.0039978027344
 20
433.9609985351562
 30
0.0
 10
228.2330017089844
 20
416.870002746582
 30
0.0
 10
228.2440032958984
 20
416.3509979248047
 30
0.0
  0
SPLINE
  5
84
330
1F
100
AcDbEntity
  8
_U+0421_U+043B_U+043E_U+0439 1
 62
     7
420
 16777215
370
     9
100
AcDbSpline
210
0.0
220
0.0
230
1.0
 70
    11
 71
     3
 72
    17
 73
    13
 74
     0
 42
0.0000000001
 43
0.0000000001
 12
1.0
 22
0.0
 32
0.0
 13
1.0
 23
0.0
 33
0.0
 40
0.0
 40
0.0
 40
0.0
 40
0.0
 40
1.0
 40
1.0
 40
1.0
 40
2.0
 40
2.0
 40
2.0
 40
3.0
 40
3.0
 40
3.0
 40
4.0
 40
4.0
 40
4.0
 40
4.0
 10
229.1970062255859
 20
434.9369964599609
 30
0.0
 10
229.2260131835938
 20
434.9659957885742
 30
0.0
 10
229.3140106201172
 20
434.9629974365234
 30
0.0
 10
229.3550109863281
 20
434.9580001831055
 30
0.0
 10
238.4260101318359
 20
434.2440032958984
 30
0.0
 10
240.6200103759766
 20
421.2890014648438
 30
0.0
 10
230.1210174560547
 20
417.0500030517578
 30
0.0
 10
229.3870239257812
 20
416.7540054321289
 30
0.0
 10
229.4580230712891
 20
416.7020034790039
 30
0.0
 10
229.4340209960938
 20
417.5410003662109
 30
0.0
 10
229.4340057373047
 20
417.552001953125
 30
0.0
 10
229.2050018310547
 20
434.9440002441406
 30
0.0
 10
229.1970062255859
 20
434.9369964599609
 30
0.0
  0
SPLINE
  5
85
330
1F
100
AcDbEntity
  8
_U+0421_U+043B_U+043E_U+0439 1
 62
     7
420
 16777215
370
     9
100
AcDbSpline
210
0.0
220
0.0
230
1.0
 70
    11
 71
     3
 72
    29
 73
    25
 74
     0
 42
0.0000000001
 43
0.0000000001
 12
1.0
 22
0.0
 32
0.0
 13
1.0
 23
0.0
 33
0.0
 40
0.0
 40
0.0
 40
0.0
 40
0.0
 40
1.0
 40
1.0
 40
1.0
 40
2.0
 40
2.0
 40
2.0
 40
3.0
 40
3.0
 40
3.0
 40
4.0
 40
4.0
 40
4.0
 40
5.0
 40
5.0
 40
5.0
 40
6.0
 40
6.0
 40
6.0
 40
7.0
 40
7.0
 40
7.0
 40
8.0
 40
8.0
 40
8.0
 40
8.0
 10
240.2790069580078
 20
415.8499984741211
 30
0.0
 10
240.2890014648438
 20
415.3539962768555
 30
0.0
 10
240.5149993896484
 20
415.036994934082
 30
0.0
 10
240.8700103759766
 20
415.0250015258789
 30
0.0
 10
241.8700103759766
 20
415.0250015258789
 30
0.0
 10
241.4050140380859
 20
416.5500030517578
 30
0.0
 10
241.4300079345703
 20
421.052001953125
 30
0.0
 10
241.7250061035156
 20
420.7190017700195
 30
0.0
 10
245.9320068359375
 20
415.9580001831055
 30
0.0
 10
246.3410034179688
 20
415.7830047607422
 30
0.0
 10
246.7989959716797
 20
415.5910034179688
 30
0.0
 10
247.2630004882812
 20
416.0210037231445
 30
0.0
 10
247.0960083007812
 20
416.5050048828125
 30
0.0
 10
247.0210113525391
 20
416.7210083007812
 30
0.0
 10
242.3160095214844
 20
421.72900390625
 30
0.0
 10
242.0840148925781
 20
422.1760025024414
 30
0.0
 10
242.1150207519531
 20
422.2099990844727
 30
0.0
 10
242.2900085449219
 20
422.2600021362305
 30
0.0
 10
242.489013671875
 20
422.3170013427734
 30
0.0
 10
250.5290069580078
 20
424.60400390625
 30
0.0
 10
249.6480102539062
 20
435.8040008544922
 30
0.0
 10
241.1930084228516
 20
435.9550018310547
 30
0.0
 10
239.531005859375
 20
436.0019989013672
 30
0.0
 10
239.8719940185547
 20
437.1439971923828
 30
0.0
 10
240.2790069580078
 20
415.8499984741211
 30
0.0
  0
SPLINE
  5
86
330
1F
100
AcDbEntity
  8
_U+0421_U+043B_U+043E_U+0439 1
 62
     7
420
 16777215
370
     9
100
AcDbSpline
210
0.0
220
0.0
230
1.0
 70
    11
 71
     3
 72
    17
 73
    13
 74
     0
 42
0.0000000001
 43
0.0000000001
 12
1.0
 22
0.0
 32
0.0
 13
1.0
 23
0.0
 33
0.0
 40
0.0
 40
0.0
 40
0.0
 40
0.0
 40
1.0
 40
1.0
 40
1.0
 40
2.0
 40
2.0
 40
2.0
 40
3.0
 40
3.0
 40
3.0
 40
4.0
 40
4.0
 40
4.0
 40
4.0
 10
241.3679962158203
 20
423.7470016479492
 30
0.0
 10
241.3009948730469
 20
424.8840026855469
 30
0.0
 10
241.1679992675781
 20
433.3530044555664
 30
0.0
 10
241.1750030517578
 20
434.3530044555664
 30
0.0
 10
241.177001953125
 20
434.7430038452148
 30
0.0
 10
241.2299957275391
 20
434.7370071411133
 30
0.0
 10
241.4210052490234
 20
434.7370071411133
 30
0.0
 10
248.2820129394531
 20
434.7370071411133
 30
0.0
 10
248.8619995117188
 20
424.6970062255859
 30
0.0
 10
241.8050079345703
 20
423.4070053100586
 30
0.0
 10
241.3480072021484
 20
423.3219985961914
 30
0.0
 10
241.3950042724609
 20
423.2949981689453
 30
0.0
 10
241.3679962158203
 20
423.7470016479492
 30
0.0
  0
SPLINE
  5
87
330
1F
100
AcDbEntity
  8
_U+0421_U+043B_U+043E_U+0439 1
 62
     7
420
 16777215
370
     9
100
AcDbSpline
210
0.0
220
0.0
230
1.0
 70
    11
 71
     3
 72
    38
 73
    34
 74
     0
 42
0.0000000001
 43
0.0000000001
 12
1.0
 22
0.0
 32
0.0
 13
1.0
 23
0.0
 33
0.0
 40
0.0
 40
0.0
 40
0.0
 40
0.0
 40
1.0
 40
1.0
 40
1.0
 40
2.0
 40
2.0
 40
2.0
 40
3.0
 40
3.0
 40
3.0
 40
4.0
 40
4.0
 40
4.0
 40
5.0
 40
5.0
 40
5.0
 40
6.0
 40
6.0
 40
6.0
 40
7.0
 40
7.0
 40
7.0
 40
8.0
 40
8.0
 40
8.0
 40
9.0
 40
9.0
 40
9.0
 40
10.0
 40
10.0
 40
10.0
 40
11.0
 40
11.0
 40
11.0
 40
11.0
 10
248.8569946289062
 20
415.8219985961914
 30
0.0
 10
248.8710021972656
 20
416.0489959716797
 30
0.0
 10
249.0029907226562
 20
416.2180023193359
 30
0.0
 10
249.2409973144531
 20
416.3139953613281
 30
0.0
 10
250.77099609375
 20
416.9129943847656
 30
0.0
 10
249.7119903564453
 20
413.3479919433594
 30
0.0
 10
250.2679901123047
 20
432.4939956665039
 30
0.0
 10
250.2729949951172
 20
435.8089981079102
 30
0.0
 10
250.4439849853516
 20
434.4039993286133
 30
0.0
 10
249.4439849853516
 20
434.9359970092773
 30
0.0
 10
249.0049896240234
 20
435.1699981689453
 30
0.0
 10
249.0199890136719
 20
435.7080001831055
 30
0.0
 10
249.4359893798828
 20
435.9449996948242
 30
0.0
 10
249.6669921875
 20
436.0759963989258
 30
0.0
 10
251.6819915771484
 20
436.0800018310547
 30
0.0
 10
252.0019836425781
 20
436.1080017089844
 30
0.0
 10
253.1519775390625
 20
436.1910018920898
 30
0.0
 10
253.2389831542969
 20
434.875
 30
0.0
 10
252.0929870605469
 20
434.8680038452148
 30
0.0
 10
251.3989868164062
 20
434.8620071411133
 30
0.0
 10
251.4789886474609
 20
434.7980041503906
 30
0.0
 10
251.4789886474609
 20
433.8850021362305
 30
0.0
 10
251.3299865722656
 20
412.3619995117188
 30
0.0
 10
250.8549957275391
 20
417.0630035400391
 30
0.0
 10
252.5589904785156
 20
416.3170013427734
 30
0.0
 10
253.1039886474609
 20
416.0740051269531
 30
0.0
 10
253.0139923095703
 20
415.3889999389648
 30
0.0
 10
252.5419921875
 20
415.2529983520508
 30
0.0
 10
252.1209869384766
 20
415.1309967041016
 30
0.0
 10
251.2379913330078
 20
415.1599960327148
 30
0.0
 10
250.7649993896484
 20
415.1599960327148
 30
0.0
 10
249.9539947509766
 20
415.1589965820312
 30
0.0
 10
248.8090057373047
 20
415.0130004882812
 30
0.0
 10
248.8569946289062
 20
415.8219985961914
 30
0.0
  0
SPLINE
  5
88
330
1F
100
AcDbEntity
  8
_U+0421_U+043B_U+043E_U+0439 1
 62
     7
420
 16777215
370
     9
100
AcDbSpline
210
0.0
220
0.0
230
1.0
 70
    11
 71
     3
 72
    38
 73
    34
 74
     0
 42
0.0000000001
 43
0.0000000001
 12
1.0
 22
0.0
 32
0.0
 13
1.0
 23
0.0
 33
0.0
 40
0.0
 40
0.0
 40
0.0
 40
0.0
 40
1.0
 40
1.0
 40
1.0
 40
2.0
 40
2.0
 40
2.0
 40
3.0
 40
3.0
 40
3.0
 40
4.0
 40
4.0
 40
4.0
 40
5.0
 40
5.0
 40
5.0
 40
6.0
 40
6.0
 40
6.0
 40
7.0
 40
7.0
 40
7.0
 40
8.0
 40
8.0
 40
8.0
 40
9.0
 40
9.0
 40
9.0
 40
10.0
 40
10.0
 40
10.0
 40
11.0
 40
11.0
 40
11.0
 40
11.0
 10
254.2729949951172
 20
435.8720016479492
 30
0.0
 10
254.3409881591797
 20
436.338005065918
 30
0.0
 10
254.9219970703125
 20
436.5900039672852
 30
0.0
 10
255.3199920654297
 20
436.1650009155273
 30
0.0
 10
255.5449981689453
 20
435.9250030517578
 30
0.0
 10
261.3529968261719
 20
419.0390014648438
 30
0.0
 10
261.4620056152344
 20
418.7279968261719
 30
0.0
 10
261.4620056152344
 20
418.7279968261719
 30
0.0
 10
261.9550170898438
 20
432.0829925537109
 30
0.0
 10
262.0599975585938
 20
434.2099990844727
 30
0.0
 10
262.0989990234375
 20
434.9990005493164
 30
0.0
 10
261.9630126953125
 20
436.1900024414062
 30
0.0
 10
262.7479858398438
 20
436.1749954223633
 30
0.0
 10
263.0679931640625
 20
436.1609954833984
 30
0.0
 10
263.3009948730469
 20
435.9099960327148
 30
0.0
 10
263.31298828125
 20
435.5649948120117
 30
0.0
 10
263.3320007324219
 20
435.0589981079102
 30
0.0
 10
262.6839904785156
 20
417.5739974975586
 30
0.0
 10
262.52099609375
 20
416.1319961547852
 30
0.0
 10
262.4620056152344
 20
415.5829925537109
 30
0.0
 10
262.1889953613281
 20
415.3399963378906
 30
0.0
 10
261.9089965820312
 20
415.2979965209961
 30
0.0
 10
261.0459899902344
 20
415.1649932861328
 30
0.0
 10
261.1640014648438
 20
415.9339981079102
 30
0.0
 10
255.4579925537109
 20
432.3539962768555
 30
0.0
 10
255.4649963378906
 20
421.984992980957
 30
0.0
 10
255.3879852294922
 20
421.9799957275391
 30
0.0
 10
255.5539855957031
 20
416.6309967041016
 30
0.0
 10
255.6029815673828
 20
415.1809997558594
 30
0.0
 10
254.4329833984375
 20
415.3239974975586
 30
0.0
 10
254.3619842529297
 20
416.1229934692383
 30
0.0
 10
254.1490020751953
 20
418.318000793457
 30
0.0
 10
254.156005859375
 20
435.0810012817383
 30
0.0
 10
254.2729949951172
 20
435.8720016479492
 30
0.0
  0
SPLINE
  5
89
330
1F
100
AcDbEntity
  8
_U+0421_U+043B_U+043E_U+0439 1
 62
     7
420
 16777215
370
     9
100
AcDbSpline
210
0.0
220
0.0
230
1.0
 70
    11
 71
     3
 72
    41
 73
    37
 74
     0
 42
0.0000000001
 43
0.0000000001
 12
1.0
 22
0.0
 32
0.0
 13
1.0
 23
0.0
 33
0.0
 40
0.0
 40
0.0
 40
0.0
 40
0.0
 40
1.0
 40
1.0
 40
1.0
 40
2.0
 40
2.0
 40
2.0
 40
3.0
 40
3.0
 40
3.0
 40
4.0
 40
4.0
 40
4.0
 40
5.0
 40
5.0
 40
5.0
 40
6.0
 40
6.0
 40
6.0
 40
7.0
 40
7.0
 40
7.0
 40
8.0
 40
8.0
 40
8.0
 40
9.0
 40
9.0
 40
9.0
 40
10.0
 40
10.0
 40
10.0
 40
11.0
 40
11.0
 40
11.0
 40
12.0
 40
12.0
 40
12.0
 40
12.0
 10
265.6900024414062
 20
435.6999969482422
 30
0.0
 10
265.6230163574219
 20
436.7989959716797
 30
0.0
 10
266.8760070800781
 20
437.0279998779297
 30
0.0
 10
266.9219970703125
 20
435.588996887207
 30
0.0
 10
267.2760009765625
 20
424.3880004882812
 30
0.0
 10
267.3500061035156
 20
425.7760009765625
 30
0.0
 10
267.3299865722656
 20
422.8669967651367
 30
0.0
 10
267.6619873046875
 20
423.3429946899414
 30
0.0
 10
275.2479858398438
 20
435.75
 30
0.0
 10
275.2779846191406
 20
435.7679977416992
 30
0.0
 10
275.7509765625
 20
436.068000793457
 30
0.0
 10
276.208984375
 20
435.6739959716797
 30
0.0
 10
276.1429748535156
 20
435.2049942016602
 30
0.0
 10
276.0519714355469
 20
434.5709915161133
 30
0.0
 10
268.4469604492188
 20
422.4019927978516
 30
0.0
 10
268.1089782714844
 20
421.8579940795898
 30
0.0
 10
267.9249877929688
 20
421.5609970092773
 30
0.0
 10
267.9249877929688
 20
421.5609970092773
 30
0.0
 10
268.1919860839844
 20
421.3309936523438
 30
0.0
 10
271.8039855957031
 20
418.218994140625
 30
0.0
 10
273.1199951171875
 20
417.6769943237305
 30
0.0
 10
272.5499877929688
 20
416.9249954223633
 30
0.0
 10
272.3389892578125
 20
416.6469955444336
 30
0.0
 10
271.9859924316406
 20
416.5739974975586
 30
0.0
 10
271.427001953125
 20
417.0589981079102
 30
0.0
 10
271.4049987792969
 20
417.077995300293
 30
0.0
 10
267.5
 20
420.3109970092773
 30
0.0
 10
267.4779968261719
 20
420.3219985961914
 30
0.0
 10
267.4499816894531
 20
420.1479949951172
 30
0.0
 10
267.6170043945312
 20
416.484001159668
 30
0.0
 10
267.6380004882812
 20
416.3089981079102
 30
0.0
 10
267.7680053710938
 20
415.2459945678711
 30
0.0
 10
266.60400390625
 20
415.0609970092773
 30
0.0
 10
266.4819946289062
 20
415.8349990844727
 30
0.0
 10
266.3670043945312
 20
416.5609970092773
 30
0.0
 10
265.7160034179688
 20
434.9660034179688
 30
0.0
 10
265.6900024414062
 20
435.6999969482422
 30
0.0
  0
SPLINE
  5
8A
330
1F
100
AcDbEntity
  8
_U+0421_U+043B_U+043E_U+0439 1
 62
     7
420
 16777215
370
     9
100
AcDbSpline
210
0.0
220
0.0
230
1.0
 70
    11
 71
     3
 72
    29
 73
    25
 74
     0
 42
0.0000000001
 43
0.0000000001
 12
1.0
 22
0.0
 32
0.0
 13
1.0
 23
0.0
 33
0.0
 40
0.0
 40
0.0
 40
0.0
 40
0.0
 40
1.0
 40
1.0
 40
1.0
 40
2.0
 40
2.0
 40
2.0
 40
3.0
 40
3.0
 40
3.0
 40
4.0
 40
4.0
 40
4.0
 40
5.0
 40
5.0
 40
5.0
 40
6.0
 40
6.0
 40
6.0
 40
7.0
 40
7.0
 40
7.0
 40
8.0
 40
8.0
 40
8.0
 40
8.0
 10
240.6349945068359
 20
381.5899963378906
 30
0.0
 10
240.6380004882812
 20
381.0619964599609
 30
0.0
 10
240.6439971923828
 20
380.5799942016602
 30
0.0
 10
240.1169891357422
 20
380.504997253418
 30
0.0
 10
239.1169891357422
 20
380.3849945068359
 30
0.0
 10
239.3799896240234
 20
380.9799957275391
 30
0.0
 10
239.3799896240234
 20
399.3669967651367
 30
0.0
 10
239.3799896240234
 20
400.056999206543
 30
0.0
 10
235.1649932861328
 20
398.8809967041016
 30
0.0
 10
235.1909942626953
 20
400.181999206543
 30
0.0
 10
235.2050018310547
 20
400.995002746582
 30
0.0
 10
236.6309967041016
 20
400.8010025024414
 30
0.0
 10
237.4799957275391
 20
400.8010025024414
 30
0.0
 10
244.3489990234375
 20
400.786003112793
 30
0.0
 10
245.8040008544922
 20
401.1710052490234
 30
0.0
 10
245.7879943847656
 20
400.1850051879883
 30
0.0
 10
245.7769927978516
 20
399.7070083618164
 30
0.0
 10
245.3629913330078
 20
399.5900039672852
 30
0.0
 10
244.9019927978516
 20
399.5840072631836
 30
0.0
 10
244.7859954833984
 20
399.5860061645508
 30
0.0
 10
241.2149963378906
 20
399.5800094604492
 30
0.0
 10
241.0970001220703
 20
399.5800094604492
 30
0.0
 10
240.2510070800781
 20
399.5709991455078
 30
0.0
 10
240.5919952392578
 20
401.036003112793
 30
0.0
 10
240.6349945068359
 20
381.5899963378906
 30
0.0
  0
SPLINE
  5
8B
330
1F
100
AcDbEntity
  8
_U+0421_U+043B_U+043E_U+0439 1
 62
     7
420
 16777215
370
     9
100
AcDbSpline
210
0.0
220
0.0
230
1.0
 70
    11
 71
     3
 72
    56
 73
    52
 74
     0
 42
0.0000000001
 43
0.0000000001
 12
1.0
 22
0.0
 32
0.0
 13
1.0
 23
0.0
 33
0.0
 40
0.0
 40
0.0
 40
0.0
 40
0.0
 40
1.0
 40
1.0
 40
1.0
 40
2.0
 40
2.0
 40
2.0
 40
3.0
 40
3.0
 40
3.0
 40
4.0
 40
4.0
 40
4.0
 40
5.0
 40
5.0
 40
5.0
 40
6.0
 40
6.0
 40
6.0
 40
7.0
 40
7.0
 40
7.0
 40
8.0
 40
8.0
 40
8.0
 40
9.0
 40
9.0
 40
9.0
 40
10.0
 40
10.0
 40
10.0
 40
11.0
 40
11.0
 40
11.0
 40
12.0
 40
12.0
 40
12.0
 40
13.0
 40
13.0
 40
13.0
 40
14.0
 40
14.0
 40
14.0
 40
15.0
 40
15.0
 40
15.0
 40
16.0
 40
16.0
 40
16.0
 40
17.0
 40
17.0
 40
17.0
 40
17.0
 10
248.0599975585938
 20
400.6880035400391
 30
0.0
 10
248.3289947509766
 20
400.7020034790039
 30
0.0
 10
254.3499908447266
 20
400.713005065918
 30
0.0
 10
254.6159973144531
 20
400.6150054931641
 30
0.0
 10
254.9940032958984
 20
400.4780044555664
 30
0.0
 10
255.0569915771484
 20
400.2210083007812
 30
0.0
 10
255.0449981689453
 20
400.0290069580078
 30
0.0
 10
255.0110015869141
 20
399.4880065917969
 30
0.0
 10
254.5359954833984
 20
399.4550094604492
 30
0.0
 10
254.0169982910156
 20
399.4550094604492
 30
0.0
 10
252.4440002441406
 20
399.4580078125
 30
0.0
 10
250.6289978027344
 20
399.4640121459961
 30
0.0
 10
249.0709991455078
 20
399.4700088500977
 30
0.0
 10
248.3690032958984
 20
399.4780120849609
 30
0.0
 10
248.4600067138672
 20
399.3920059204102
 30
0.0
 10
248.4629974365234
 20
399.1440124511719
 30
0.0
 10
248.4640045166016
 20
399.0350112915039
 30
0.0
 10
248.5099945068359
 20
394.8360137939453
 30
0.0
 10
248.5910034179688
 20
394.7620086669922
 30
0.0
 10
248.6630096435547
 20
394.6960067749023
 30
0.0
 10
249.6600036621094
 20
394.81201171875
 30
0.0
 10
249.7570037841797
 20
394.8220062255859
 30
0.0
 10
250.5080108642578
 20
394.8940048217773
 30
0.0
 10
251.4970092773438
 20
395.0590057373047
 30
0.0
 10
251.4660034179688
 20
394.2990036010742
 30
0.0
 10
251.4369964599609
 20
393.6430053710938
 30
0.0
 10
250.6940002441406
 20
393.6820068359375
 30
0.0
 10
250.0149993896484
 20
393.6210021972656
 30
0.0
 10
247.5249938964844
 20
393.390998840332
 30
0.0
 10
248.9100036621094
 20
394.8390045166016
 30
0.0
 10
248.6750030517578
 20
381.6840057373047
 30
0.0
 10
248.6719970703125
 20
381.5290069580078
 30
0.0
 10
248.7180023193359
 20
381.4730072021484
 30
0.0
 10
248.8990020751953
 20
381.4900054931641
 30
0.0
 10
248.8990020751953
 20
381.4900054931641
 30
0.0
 10
252.6159973144531
 20
381.6470031738281
 30
0.0
 10
252.6170043945312
 20
381.6470031738281
 30
0.0
 10
253.7510070800781
 20
381.6870040893555
 30
0.0
 10
253.7310028076172
 20
380.6380004882812
 30
0.0
 10
252.8580017089844
 20
380.4570007324219
 30
0.0
 10
252.677001953125
 20
380.4189987182617
 30
0.0
 10
252.0370025634766
 20
380.3980026245117
 30
0.0
 10
251.8489990234375
 20
380.3889999389648
 30
0.0
 10
246.1649932861328
 20
380.1060028076172
 30
0.0
 10
247.6649932861328
 20
379.0709991455078
 30
0.0
 10
247.4120025634766
 20
388.0240020751953
 30
0.0
 10
247.3670043945312
 20
389.5920028686523
 30
0.0
 10
247.3580017089844
 20
391.1850051879883
 30
0.0
 10
247.3489990234375
 20
392.7260055541992
 30
0.0
 10
247.302001953125
 20
400.3330001831055
 30
0.0
 10
246.8840026855469
 20
400.625
 30
0.0
 10
248.0599975585938
 20
400.6880035400391
 30
0.0
  0
SPLINE
  5
8C
330
1F
100
AcDbEntity
  8
_U+0421_U+043B_U+043E_U+0439 1
 62
     7
420
 16777215
370
     9
100
AcDbSpline
210
0.0
220
0.0
230
1.0
 70
    11
 71
     3
 72
    29
 73
    25
 74
     0
 42
0.0000000001
 43
0.0000000001
 12
1.0
 22
0.0
 32
0.0
 13
1.0
 23
0.0
 33
0.0
 40
0.0
 40
0.0
 40
0.0
 40
0.0
 40
1.0
 40
1.0
 40
1.0
 40
2.0
 40
2.0
 40
2.0
 40
3.0
 40
3.0
 40
3.0
 40
4.0
 40
4.0
 40
4.0
 40
5.0
 40
5.0
 40
5.0
 40
6.0
 40
6.0
 40
6.0
 40
7.0
 40
7.0
 40
7.0
 40
8.0
 40
8.0
 40
8.0
 40
8.0
 10
261.0119934082031
 20
401.004997253418
 30
0.0
 10
260.4499816894531
 20
401.004997253418
 30
0.0
 10
260.3630065917969
 20
400.3939971923828
 30
0.0
 10
260.2349853515625
 20
399.8339996337891
 30
0.0
 10
255.9109802246094
 20
380.859001159668
 30
0.0
 10
255.2629852294922
 20
379.9960021972656
 30
0.0
 10
256.4639892578125
 20
379.9960021972656
 30
0.0
 10
257.1900024414062
 20
379.9960021972656
 30
0.0
 10
257.1429748535156
 20
380.9530029296875
 30
0.0
 10
257.9830017089844
 20
384.5510025024414
 30
0.0
 10
258.072998046875
 20
384.9390029907227
 30
0.0
 10
258.072998046875
 20
384.9390029907227
 30
0.0
 10
258.4490051269531
 20
384.9420013427734
 30
0.0
 10
264.2650146484375
 20
384.9920043945312
 30
0.0
 10
263.9070129394531
 20
385.2420043945312
 30
0.0
 10
264.0769958496094
 20
384.5050048828125
 30
0.0
 10
264.3509826660156
 20
383.3320083618164
 30
0.0
 10
264.5700073242188
 20
382.3720016479492
 30
0.0
 10
264.8970031738281
 20
380.9430084228516
 30
0.0
 10
265.1409912109375
 20
379.7770080566406
 30
0.0
 10
266.1360168457031
 20
380.1160049438477
 30
0.0
 10
266.114013671875
 20
380.9350051879883
 30
0.0
 10
261.5270080566406
 20
401.0920028686523
 30
0.0
 10
261.8869934082031
 20
401.004997253418
 30
0.0
 10
261.0119934082031
 20
401.004997253418
 30
0.0
  0
SPLINE
  5
8D
330
1F
100
AcDbEntity
  8
_U+0421_U+043B_U+043E_U+0439 1
 62
     7
420
 16777215
370
     9
100
AcDbSpline
210
0.0
220
0.0
230
1.0
 70
    11
 71
     3
 72
    14
 73
    10
 74
     0
 42
0.0000000001
 43
0.0000000001
 12
1.0
 22
0.0
 32
0.0
 13
1.0
 23
0.0
 33
0.0
 40
0.0
 40
0.0
 40
0.0
 40
0.0
 40
1.0
 40
1.0
 40
1.0
 40
2.0
 40
2.0
 40
2.0
 40
3.0
 40
3.0
 40
3.0
 40
3.0
 10
263.2820129394531
 20
386.1989974975586
 30
0.0
 10
258.0559997558594
 20
386.1419982910156
 30
0.0
 10
258.302001953125
 20
385.9279937744141
 30
0.0
 10
258.447998046875
 20
386.5759963989258
 30
0.0
 10
258.7529907226562
 20
387.9459991455078
 30
0.0
 10
260.8510131835938
 20
397.2489929199219
 30
0.0
 10
261.0239868164062
 20
397.8899993896484
 30
0.0
 10
263.8779907226562
 20
385.3720016479492
 30
0.0
 10
263.9469909667969
 20
386.2070007324219
 30
0.0
 10
263.2820129394531
 20
386.1989974975586
 30
0.0
  0
SPLINE
  5
8E
330
1F
100
AcDbEntity
  8
_U+0421_U+043B_U+043E_U+0439 1
 62
     7
420
 16777215
370
     9
100
AcDbSpline
210
0.0
220
0.0
230
1.0
 70
    11
 71
     3
 72
    17
 73
    13
 74
     0
 42
0.0000000001
 43
0.0000000001
 12
1.0
 22
0.0
 32
0.0
 13
1.0
 23
0.0
 33
0.0
 40
0.0
 40
0.0
 40
0.0
 40
0.0
 40
1.0
 40
1.0
 40
1.0
 40
2.0
 40
2.0
 40
2.0
 40
3.0
 40
3.0
 40
3.0
 40
4.0
 40
4.0
 40
4.0
 40
4.0
 10
267.260986328125
 20
379.4680023193359
 30
0.0
 10
267.4549865722656
 20
379.9130020141602
 30
0.0
 10
267.5
 20
380.3629989624023
 30
0.0
 10
267.489990234375
 20
380.8430023193359
 30
0.0
 10
267.4779968261719
 20
381.3820037841797
 30
0.0
 10
267.5090026855469
 20
381.8820037841797
 30
0.0
 10
268.0650024414062
 20
381.9290008544922
 30
0.0
 10
268.6050109863281
 20
381.9680023193359
 30
0.0
 10
268.6749877929688
 20
381.4459991455078
 30
0.0
 10
268.7009887695312
 20
380.931999206543
 30
0.0
 10
268.8359985351562
 20
377.7389984130859
 30
0.0
 10
266.6749877929688
 20
378.1220016479492
 30
0.0
 10
267.260986328125
 20
379.4680023193359
 30
0.0
  0
SPLINE
  5
8F
330
1F
100
AcDbEntity
  8
_U+0421_U+043B_U+043E_U+0439 1
 62
     7
420
 16777215
370
     9
100
AcDbSpline
210
0.0
220
0.0
230
1.0
 70
    11
 71
     3
 72
    17
 73
    13
 74
     0
 42
0.0000000001
 43
0.0000000001
 12
1.0
 22
0.0
 32
0.0
 13
1.0
 23
0.0
 33
0.0
 40
0.0
 40
0.0
 40
0.0
 40
0.0
 40
1.0
 40
1.0
 40
1.0
 40
2.0
 40
2.0
 40
2.0
 40
3.0
 40
3.0
 40
3.0
 40
4.0
 40
4.0
 40
4.0
 40
4.0
 10
242.9720001220703
 20
177.2340087890625
 30
0.0
 10
243.8179931640625
 20
157.5390014648438
 30
0.0
 10
243.0659942626953
 20
157.93701171875
 30
0.0
 10
245.375
 20
157.93701171875
 30
0.0
 10
252.6900024414062
 20
158.0890197753906
 30
0.0
 10
252.5410003662109
 20
162.4900207519531
 30
0.0
 10
247.5200042724609
 20
163.0090026855469
 30
0.0
 10
247.5760040283203
 20
163.0660095214844
 30
0.0
 10
247.635009765625
 20
163.1080017089844
 30
0.0
 10
247.6970062255859
 20
163.1520080566406
 30
0.0
 10
259.7980041503906
 20
171.6229858398438
 30
0.0
 10
242.7790069580078
 20
181.5
 30
0.0
 10
242.9720001220703
 20
177.2340087890625
 30
0.0
  0
SPLINE
  5
90
330
1F
100
AcDbEntity
  8
_U+0421_U+043B_U+043E_U+0439 1
 62
     7
420
 16777215
370
     9
100
AcDbSpline
210
0.0
220
0.0
230
1.0
 70
    11
 71
     3
 72
    23
 73
    19
 74
     0
 42
0.0000000001
 43
0.0000000001
 12
1.0
 22
0.0
 32
0.0
 13
1.0
 23
0.0
 33
0.0
 40
0.0
 40
0.0
 40
0.0
 40
0.0
 40
1.0
 40
1.0
 40
1.0
 40
2.0
 40
2.0
 40
2.0
 40
3.0
 40
3.0
 40
3.0
 40
4.0
 40
4.0
 40
4.0
 40
5.0
 40
5.0
 40
5.0
 40
6.0
 40
6.0
 40
6.0
 40
6.0
 10
244.9029998779297
 20
160.4410095214844
 30
0.0
 10
244.9029998779297
 20
160.4410095214844
 30
0.0
 10
244.8899993896484
 20
160.7539978027344
 30
0.0
 10
244.8809967041016
 20
160.947998046875
 30
0.0
 10
244.864990234375
 20
161.2760009765625
 30
0.0
 10
244.864990234375
 20
161.2760009765625
 30
0.0
 10
245.1730041503906
 20
161.4049987792969
 30
0.0
 10
249.0650024414062
 20
163.0440063476562
 30
0.0
 10
253.2129974365234
 20
159.4779968261719
 30
0.0
 10
245.4340057373047
 20
159.1619873046875
 30
0.0
 10
244.7710113525391
 20
159.125
 30
0.0
 10
244.9199981689453
 20
159.1949768066406
 30
0.0
 10
244.9230041503906
 20
160.4409790039062
 30
0.0
 10
244.9230041503906
 20
160.4409790039062
 30
0.0
 10
244.9029998779297
 20
160.4409790039062
 30
0.0
 10
244.9029998779297
 20
160.4409790039062
 30
0.0
 10
244.9029998779297
 20
160.4409790039062
 30
0.0
 10
244.9029998779297
 20
160.4410095214844
 30
0.0
 10
244.9029998779297
 20
160.4410095214844
 30
0.0
  0
SPLINE
  5
91
330
1F
100
AcDbEntity
  8
_U+0421_U+043B_U+043E_U+0439 1
 62
     7
420
 16777215
370
     9
100
AcDbSpline
210
0.0
220
0.0
230
1.0
 70
    11
 71
     3
 72
    14
 73
    10
 74
     0
 42
0.0000000001
 43
0.0000000001
 12
1.0
 22
0.0
 32
0.0
 13
1.0
 23
0.0
 33
0.0
 40
0.0
 40
0.0
 40
0.0
 40
0.0
 40
1.0
 40
1.0
 40
1.0
 40
2.0
 40
2.0
 40
2.0
 40
3.0
 40
3.0
 40
3.0
 40
3.0
 10
245.3320007324219
 20
162.9989929199219
 30
0.0
 10
244.9810028076172
 20
162.7999877929688
 30
0.0
 10
244.8379974365234
 20
162.7699890136719
 30
0.0
 10
244.8379974365234
 20
162.7699890136719
 30
0.0
 10
244.7819976806641
 20
162.8479919433594
 30
0.0
 10
244.1739959716797
 20
176.8119812011719
 30
0.0
 10
244.2239990234375
 20
176.8949890136719
 30
0.0
 10
245.8170013427734
 20
177.9089965820312
 30
0.0
 10
257.3829956054688
 20
169.8070068359375
 30
0.0
 10
245.3320007324219
 20
162.9989929199219
 30
0.0
  0
SPLINE
  5
92
330
1F
100
AcDbEntity
  8
_U+0421_U+043B_U+043E_U+0439 1
 62
     7
420
 16777215
370
     9
100
AcDbSpline
210
0.0
220
0.0
230
1.0
 70
    11
 71
     3
 72
    47
 73
    43
 74
     0
 42
0.0000000001
 43
0.0000000001
 12
1.0
 22
0.0
 32
0.0
 13
1.0
 23
0.0
 33
0.0
 40
0.0
 40
0.0
 40
0.0
 40
0.0
 40
1.0
 40
1.0
 40
1.0
 40
2.0
 40
2.0
 40
2.0
 40
3.0
 40
3.0
 40
3.0
 40
4.0
 40
4.0
 40
4.0
 40
5.0
 40
5.0
 40
5.0
 40
6.0
 40
6.0
 40
6.0
 40
7.0
 40
7.0
 40
7.0
 40
8.0
 40
8.0
 40
8.0
 40
9.0
 40
9.0
 40
9.0
 40
10.0
 40
10.0
 40
10.0
 40
11.0
 40
11.0
 40
11.0
 40
12.0
 40
12.0
 40
12.0
 40
13.0
 40
13.0
 40
13.0
 40
14.0
 40
14.0
 40
14.0
 40
14.0
 10
262.3450012207031
 20
177.3829956054688
 30
0.0
 10
262.281005859375
 20
176.3630065917969
 30
0.0
 10
260.68701171875
 20
177.0180053710938
 30
0.0
 10
256.1010131835938
 20
176.8219909667969
 30
0.0
 10
255.7580108642578
 20
176.8079833984375
 30
0.0
 10
255.7580108642578
 20
176.8079833984375
 30
0.0
 10
255.7620086669922
 20
176.4969787597656
 30
0.0
 10
255.7790069580078
 20
175.18798828125
 30
0.0
 10
255.8050079345703
 20
173.8379821777344
 30
0.0
 10
255.8410034179688
 20
172.365966796875
 30
0.0
 10
255.8470001220703
 20
172.073974609375
 30
0.0
 10
255.8740081787109
 20
172.0769653320312
 30
0.0
 10
256.156005859375
 20
172.0939636230469
 30
0.0
 10
256.4559936523438
 20
172.1169738769531
 30
0.0
 10
257.9360046386719
 20
172.2759704589844
 30
0.0
 10
258.1860046386719
 20
172.2459716796875
 30
0.0
 10
258.9750061035156
 20
172.14697265625
 30
0.0
 10
258.9250183105469
 20
171.1829833984375
 30
0.0
 10
258.2369995117188
 20
171.0769653320312
 30
0.0
 10
255.0690002441406
 20
170.5939636230469
 30
0.0
 10
255.8809967041016
 20
172.0689697265625
 30
0.0
 10
255.9259948730469
 20
166.0009765625
 30
0.0
 10
255.927001953125
 20
165.9119873046875
 30
0.0
 10
255.947998046875
 20
158.9409790039062
 30
0.0
 10
256.0119934082031
 20
158.8789672851562
 30
0.0
 10
256.1019897460938
 20
158.7939758300781
 30
0.0
 10
259.9339904785156
 20
159.0089721679688
 30
0.0
 10
260.0809936523438
 20
158.9989624023438
 30
0.0
 10
260.9849853515625
 20
158.9479675292969
 30
0.0
 10
261.0299987792969
 20
157.9919738769531
 30
0.0
 10
260.1549987792969
 20
157.8099670410156
 30
0.0
 10
259.9639892578125
 20
157.7699584960938
 30
0.0
 10
255.9770050048828
 20
157.5479736328125
 30
0.0
 10
255.5549926757812
 20
157.6189575195312
 30
0.0
 10
254.5549926757812
 20
157.7749633789062
 30
0.0
 10
254.7559967041016
 20
158.2289428710938
 30
0.0
 10
254.7519989013672
 20
161.0079650878906
 30
0.0
 10
254.7400054931641
 20
178.4419555664062
 30
0.0
 10
253.8800048828125
 20
178.0469665527344
 30
0.0
 10
255.6320037841797
 20
178.0469665527344
 30
0.0
 10
260.8340148925781
 20
177.9920043945312
 30
0.0
 10
262.4110107421875
 20
178.3829956054688
 30
0.0
 10
262.3450012207031
 20
177.3829956054688
 30
0.0
  0
SPLINE
  5
93
330
1F
100
AcDbEntity
  8
_U+0421_U+043B_U+043E_U+0439 1
 62
     7
420
 16777215
370
     9
100
AcDbSpline
210
0.0
220
0.0
230
1.0
 70
    11
 71
     3
 72
    47
 73
    43
 74
     0
 42
0.0000000001
 43
0.0000000001
 12
1.0
 22
0.0
 32
0.0
 13
1.0
 23
0.0
 33
0.0
 40
0.0
 40
0.0
 40
0.0
 40
0.0
 40
1.0
 40
1.0
 40
1.0
 40
2.0
 40
2.0
 40
2.0
 40
3.0
 40
3.0
 40
3.0
 40
4.0
 40
4.0
 40
4.0
 40
5.0
 40
5.0
 40
5.0
 40
6.0
 40
6.0
 40
6.0
 40
7.0
 40
7.0
 40
7.0
 40
8.0
 40
8.0
 40
8.0
 40
9.0
 40
9.0
 40
9.0
 40
10.0
 40
10.0
 40
10.0
 40
11.0
 40
11.0
 40
11.0
 40
12.0
 40
12.0
 40
12.0
 40
13.0
 40
13.0
 40
13.0
 40
14.0
 40
14.0
 40
14.0
 40
14.0
 10
233.2400054931641
 20
127.1470031738281
 30
0.0
 10
233.2760009765625
 20
127.75
 30
0.0
 10
233.302001953125
 20
127.7319946289062
 30
0.0
 10
232.7140045166016
 20
127.7269897460938
 30
0.0
 10
232.6269989013672
 20
127.7269897460938
 30
0.0
 10
228.0360107421875
 20
127.625
 30
0.0
 10
227.9830017089844
 20
127.5679931640625
 30
0.0
 10
227.8780059814453
 20
127.458984375
 30
0.0
 10
228.1520080566406
 20
124.10400390625
 30
0.0
 10
228.1650085449219
 20
123.9530029296875
 30
0.0
 10
228.22900390625
 20
123.1709899902344
 30
0.0
 10
228.4260101318359
 20
122.0899963378906
 30
0.0
 10
227.6440124511719
 20
122.0899963378906
 30
0.0
 10
226.7240142822266
 20
122.0929870605469
 30
0.0
 10
227.1780090332031
 20
121.9289855957031
 30
0.0
 10
225.7260131835938
 20
141.7689819335938
 30
0.0
 10
225.6820068359375
 20
142.3469848632812
 30
0.0
 10
225.6490173339844
 20
142.989990234375
 30
0.0
 10
226.2300109863281
 20
143.0539855957031
 30
0.0
 10
227.4390106201172
 20
143.2269897460938
 30
0.0
 10
226.8360137939453
 20
140.5189819335938
 30
0.0
 10
227.8170166015625
 20
129.2729797363281
 30
0.0
 10
227.8520202636719
 20
128.8429870605469
 30
0.0
 10
227.8520202636719
 20
128.844970703125
 30
0.0
 10
228.2940216064453
 20
128.8519897460938
 30
0.0
 10
233.5960235595703
 20
128.9570007324219
 30
0.0
 10
233.3860168457031
 20
128.7639770507812
 30
0.0
 10
233.4390258789062
 20
129.3379821777344
 30
0.0
 10
233.4390258789062
 20
129.3379821777344
 30
0.0
 10
234.60302734375
 20
142.4609680175781
 30
0.0
 10
234.60302734375
 20
142.4639892578125
 30
0.0
 10
234.6850280761719
 20
143.5339965820312
 30
0.0
 10
235.8480224609375
 20
143.5179748535156
 30
0.0
 10
235.8070220947266
 20
142.4819946289062
 30
0.0
 10
235.7930145263672
 20
142.1430053710938
 30
0.0
 10
234.1090240478516
 20
122.8980102539062
 30
0.0
 10
233.9760284423828
 20
122.510986328125
 30
0.0
 10
233.81103515625
 20
122.0399780273438
 30
0.0
 10
233.1700286865234
 20
121.9649963378906
 30
0.0
 10
232.9190216064453
 20
122.5130004882812
 30
0.0
 10
232.7790069580078
 20
122.8200073242188
 30
0.0
 10
233.2180023193359
 20
126.7569885253906
 30
0.0
 10
233.2400054931641
 20
127.1470031738281
 30
0.0
  0
SPLINE
  5
94
330
1F
100
AcDbEntity
  8
_U+0421_U+043B_U+043E_U+0439 1
 62
     7
420
 16777215
370
     9
100
AcDbSpline
210
0.0
220
0.0
230
1.0
 70
    11
 71
     3
 72
    29
 73
    25
 74
     0
 42
0.0000000001
 43
0.0000000001
 12
1.0
 22
0.0
 32
0.0
 13
1.0
 23
0.0
 33
0.0
 40
0.0
 40
0.0
 40
0.0
 40
0.0
 40
1.0
 40
1.0
 40
1.0
 40
2.0
 40
2.0
 40
2.0
 40
3.0
 40
3.0
 40
3.0
 40
4.0
 40
4.0
 40
4.0
 40
5.0
 40
5.0
 40
5.0
 40
6.0
 40
6.0
 40
6.0
 40
7.0
 40
7.0
 40
7.0
 40
8.0
 40
8.0
 40
8.0
 40
8.0
 10
242.2209930419922
 20
142.7730102539062
 30
0.0
 10
241.6589965820312
 20
142.7730102539062
 30
0.0
 10
241.5719909667969
 20
142.1620178222656
 30
0.0
 10
241.4440002441406
 20
141.6020202636719
 30
0.0
 10
237.1439971923828
 20
122.7310180664062
 30
0.0
 10
236.4720001220703
 20
121.7640075683594
 30
0.0
 10
237.6730041503906
 20
121.7640075683594
 30
0.0
 10
238.1110076904297
 20
121.7640075683594
 30
0.0
 10
238.2450103759766
 20
122.1750183105469
 30
0.0
 10
238.3400115966797
 20
122.5910034179688
 30
0.0
 10
239.3510131835938
 20
126.9240112304688
 30
0.0
 10
239.0640106201172
 20
126.7050170898438
 30
0.0
 10
239.6570129394531
 20
126.7090148925781
 30
0.0
 10
241.3450164794922
 20
126.7240295410156
 30
0.0
 10
243.0330200195312
 20
126.7340087890625
 30
0.0
 10
244.7200164794922
 20
126.7400207519531
 30
0.0
 10
245.4190216064453
 20
126.7400207519531
 30
0.0
 10
245.1280212402344
 20
126.9750061035156
 30
0.0
 10
246.1060180664062
 20
122.7110290527344
 30
0.0
 10
246.3500213623047
 20
121.5460205078125
 30
0.0
 10
247.3450164794922
 20
121.884033203125
 30
0.0
 10
247.3230133056641
 20
122.7030334472656
 30
0.0
 10
242.7359924316406
 20
142.8599853515625
 30
0.0
 10
243.0959930419922
 20
142.7730102539062
 30
0.0
 10
242.2209930419922
 20
142.7730102539062
 30
0.0
  0
SPLINE
  5
95
330
1F
100
AcDbEntity
  8
_U+0421_U+043B_U+043E_U+0439 1
 62
     7
420
 16777215
370
     9
100
AcDbSpline
210
0.0
220
0.0
230
1.0
 70
    11
 71
     3
 72
    14
 73
    10
 74
     0
 42
0.0000000001
 43
0.0000000001
 12
1.0
 22
0.0
 32
0.0
 13
1.0
 23
0.0
 33
0.0
 40
0.0
 40
0.0
 40
0.0
 40
0.0
 40
1.0
 40
1.0
 40
1.0
 40
2.0
 40
2.0
 40
2.0
 40
3.0
 40
3.0
 40
3.0
 40
3.0
 10
244.4909973144531
 20
127.9679870605469
 30
0.0
 10
244.4039916992188
 20
127.9669799804688
 30
0.0
 10
239.6699981689453
 20
127.9019775390625
 30
0.0
 10
239.614990234375
 20
127.9700012207031
 30
0.0
 10
239.5419921875
 20
128.0599975585938
 30
0.0
 10
242.2029876708984
 20
139.5469970703125
 30
0.0
 10
242.2329864501953
 20
139.6589965820312
 30
0.0
 10
245.0870056152344
 20
127.1400146484375
 30
0.0
 10
245.156005859375
 20
127.9760131835938
 30
0.0
 10
244.4909973144531
 20
127.9679870605469
 30
0.0
  0
SPLINE
  5
96
330
1F
100
AcDbEntity
  8
_U+0421_U+043B_U+043E_U+0439 1
 62
     7
420
 16777215
370
     9
100
AcDbSpline
210
0.0
220
0.0
230
1.0
 70
    11
 71
     3
 72
    26
 73
    22
 74
     0
 42
0.0000000001
 43
0.0000000001
 12
1.0
 22
0.0
 32
0.0
 13
1.0
 23
0.0
 33
0.0
 40
0.0
 40
0.0
 40
0.0
 40
0.0
 40
1.0
 40
1.0
 40
1.0
 40
2.0
 40
2.0
 40
2.0
 40
3.0
 40
3.0
 40
3.0
 40
4.0
 40
4.0
 40
4.0
 40
5.0
 40
5.0
 40
5.0
 40
6.0
 40
6.0
 40
6.0
 40
7.0
 40
7.0
 40
7.0
 40
7.0
 10
249.2539978027344
 20
143.2200012207031
 30
0.0
 10
247.6829986572266
 20
143.1130065917969
 30
0.0
 10
248.677001953125
 20
142.27099609375
 30
0.0
 10
248.677001953125
 20
124.0480041503906
 30
0.0
 10
248.6800079345703
 20
123.2870178222656
 30
0.0
 10
248.6260070800781
 20
122.197998046875
 30
0.0
 10
249.3840026855469
 20
122.3380126953125
 30
0.0
 10
249.760009765625
 20
122.4030151367188
 30
0.0
 10
249.8990020751953
 20
122.7140197753906
 30
0.0
 10
249.8950042724609
 20
123.0989990234375
 30
0.0
 10
249.8630065917969
 20
125.0969848632812
 30
0.0
 10
249.9090118408203
 20
127.0270080566406
 30
0.0
 10
249.8050079345703
 20
129.0379943847656
 30
0.0
 10
249.7880096435547
 20
129.3599853515625
 30
0.0
 10
249.7850036621094
 20
129.4020080566406
 30
0.0
 10
250.1470031738281
 20
129.458984375
 30
0.0
 10
254.1329956054688
 20
130.0829772949219
 30
0.0
 10
256.9800109863281
 20
133.677978515625
 30
0.0
 10
256.4410095214844
 20
137.5239868164062
 30
0.0
 10
255.9490051269531
 20
141.0199890136719
 30
0.0
 10
252.8670043945312
 20
143.4670104980469
 30
0.0
 10
249.2539978027344
 20
143.2200012207031
 30
0.0
  0
SPLINE
  5
97
330
1F
100
AcDbEntity
  8
_U+0421_U+043B_U+043E_U+0439 1
 62
     7
420
 16777215
370
     9
100
AcDbSpline
210
0.0
220
0.0
230
1.0
 70
    11
 71
     3
 72
    17
 73
    13
 74
     0
 42
0.0000000001
 43
0.0000000001
 12
1.0
 22
0.0
 32
0.0
 13
1.0
 23
0.0
 33
0.0
 40
0.0
 40
0.0
 40
0.0
 40
0.0
 40
1.0
 40
1.0
 40
1.0
 40
2.0
 40
2.0
 40
2.0
 40
3.0
 40
3.0
 40
3.0
 40
4.0
 40
4.0
 40
4.0
 40
4.0
 10
249.6130065917969
 20
140.9299926757812
 30
0.0
 10
249.5500030517578
 20
141.9609985351562
 30
0.0
 10
249.4550018310547
 20
142.0239868164062
 30
0.0
 10
249.9910125732422
 20
142.0050048828125
 30
0.0
 10
256.8240051269531
 20
141.8680114746094
 30
0.0
 10
257.1780090332031
 20
131.8619995117188
 30
0.0
 10
250.1330108642578
 20
130.6809997558594
 30
0.0
 10
250.0720062255859
 20
130.6719970703125
 30
0.0
 10
249.8880157470703
 20
130.6400146484375
 30
0.0
 10
249.8390045166016
 20
130.6809997558594
 30
0.0
 10
249.7749938964844
 20
130.7340087890625
 30
0.0
 10
249.6190032958984
 20
140.8340148925781
 30
0.0
 10
249.6130065917969
 20
140.9299926757812
 30
0.0
  0
SPLINE
  5
98
330
1F
100
AcDbEntity
  8
_U+0421_U+043B_U+043E_U+0439 1
 62
     7
420
 16777215
370
     9
100
AcDbSpline
210
0.0
220
0.0
230
1.0
 70
    11
 71
     3
 72
    26
 73
    22
 74
     0
 42
0.0000000001
 43
0.0000000001
 12
1.0
 22
0.0
 32
0.0
 13
1.0
 23
0.0
 33
0.0
 40
0.0
 40
0.0
 40
0.0
 40
0.0
 40
1.0
 40
1.0
 40
1.0
 40
2.0
 40
2.0
 40
2.0
 40
3.0
 40
3.0
 40
3.0
 40
4.0
 40
4.0
 40
4.0
 40
5.0
 40
5.0
 40
5.0
 40
6.0
 40
6.0
 40
6.0
 40
7.0
 40
7.0
 40
7.0
 40
7.0
 10
260.6799926757812
 20
129.4590148925781
 30
0.0
 10
262.5199890136719
 20
129.7470092773438
 30
0.0
 10
264.0549926757812
 20
130.5910034179688
 30
0.0
 10
265.2449951171875
 20
131.9660034179688
 30
0.0
 10
269.43798828125
 20
136.8110046386719
 30
0.0
 10
265.7949829101562
 20
143.6310119628906
 30
0.0
 10
259.7869873046875
 20
143.2200012207031
 30
0.0
 10
258.5459899902344
 20
143.135009765625
 30
0.0
 10
258.9289855957031
 20
143.541015625
 30
0.0
 10
259.2070007324219
 20
124.5060119628906
 30
0.0
 10
259.2170104980469
 20
123.7090148925781
 30
0.0
 10
259.0549926757812
 20
122.3310241699219
 30
0.0
 10
259.8380126953125
 20
122.3310241699219
 30
0.0
 10
260.7040100097656
 20
122.3310241699219
 30
0.0
 10
260.4170227050781
 20
123.7050170898438
 30
0.0
 10
260.4130249023438
 20
125.1190185546875
 30
0.0
 10
260.4100341796875
 20
126.3940124511719
 30
0.0
 10
260.4060363769531
 20
127.7130126953125
 30
0.0
 10
260.3380126953125
 20
129.0380249023438
 30
0.0
 10
260.3210144042969
 20
129.3599853515625
 30
0.0
 10
260.3179931640625
 20
129.4020080566406
 30
0.0
 10
260.6799926757812
 20
129.4590148925781
 30
0.0
  0
SPLINE
  5
99
330
1F
100
AcDbEntity
  8
_U+0421_U+043B_U+043E_U+0439 1
 62
     7
420
 16777215
370
     9
100
AcDbSpline
210
0.0
220
0.0
230
1.0
 70
    11
 71
     3
 72
    17
 73
    13
 74
     0
 42
0.0000000001
 43
0.0000000001
 12
1.0
 22
0.0
 32
0.0
 13
1.0
 23
0.0
 33
0.0
 40
0.0
 40
0.0
 40
0.0
 40
0.0
 40
1.0
 40
1.0
 40
1.0
 40
2.0
 40
2.0
 40
2.0
 40
3.0
 40
3.0
 40
3.0
 40
4.0
 40
4.0
 40
4.0
 40
4.0
 10
260.1600036621094
 20
141.9609985351562
 30
0.0
 10
260.2139892578125
 20
142.0130004882812
 30
0.0
 10
260.4490051269531
 20
142.0079956054688
 30
0.0
 10
260.5240173339844
 20
142.0050048828125
 30
0.0
 10
267.4080200195312
 20
141.8670043945312
 30
0.0
 10
267.6600036621094
 20
131.8529968261719
 30
0.0
 10
260.666015625
 20
130.6809997558594
 30
0.0
 10
260.6050109863281
 20
130.6719970703125
 30
0.0
 10
260.4220275878906
 20
130.6400146484375
 30
0.0
 10
260.3720092773438
 20
130.6809997558594
 30
0.0
 10
260.2720031738281
 20
130.7640075683594
 30
0.0
 10
260.135009765625
 20
141.9360046386719
 30
0.0
 10
260.1600036621094
 20
141.9609985351562
 30
0.0
  0
SPLINE
  5
9A
330
1F
100
AcDbEntity
  8
_U+0421_U+043B_U+043E_U+0439 1
 62
     7
420
 16777215
370
     9
100
AcDbSpline
210
0.0
220
0.0
230
1.0
 70
    11
 71
     3
 72
    38
 73
    34
 74
     0
 42
0.0000000001
 43
0.0000000001
 12
1.0
 22
0.0
 32
0.0
 13
1.0
 23
0.0
 33
0.0
 40
0.0
 40
0.0
 40
0.0
 40
0.0
 40
1.0
 40
1.0
 40
1.0
 40
2.0
 40
2.0
 40
2.0
 40
3.0
 40
3.0
 40
3.0
 40
4.0
 40
4.0
 40
4.0
 40
5.0
 40
5.0
 40
5.0
 40
6.0
 40
6.0
 40
6.0
 40
7.0
 40
7.0
 40
7.0
 40
8.0
 40
8.0
 40
8.0
 40
9.0
 40
9.0
 40
9.0
 40
10.0
 40
10.0
 40
10.0
 40
11.0
 40
11.0
 40
11.0
 40
11.0
 10
275.0090026855469
 20
136.4500122070312
 30
0.0
 10
274.3280029296875
 20
135.8470153808594
 30
0.0
 10
274.5700073242188
 20
135.3280029296875
 30
0.0
 10
274.5610046386719
 20
131.0250244140625
 30
0.0
 10
274.5320129394531
 20
123.7940368652344
 30
0.0
 10
274.9420166015625
 20
122.4970092773438
 30
0.0
 10
273.9859924316406
 20
122.4970092773438
 30
0.0
 10
273.031005859375
 20
122.4970092773438
 30
0.0
 10
273.3399963378906
 20
123.6119995117188
 30
0.0
 10
273.35498046875
 20
135.3470153808594
 30
0.0
 10
273.3579711914062
 20
136.7060241699219
 30
0.0
 10
269.2179870605469
 20
140.43701171875
 30
0.0
 10
268.4879760742188
 20
141.739013671875
 30
0.0
 10
268.2349853515625
 20
142.1900024414062
 30
0.0
 10
268.7319641113281
 20
142.7760009765625
 30
0.0
 10
269.2809753417969
 20
142.4850158691406
 30
0.0
 10
269.4519653320312
 20
142.3930053710938
 30
0.0
 10
269.5699768066406
 20
142.2530212402344
 30
0.0
 10
269.6839904785156
 20
142.1180114746094
 30
0.0
 10
274.3949890136719
 20
136.4650268554688
 30
0.0
 10
273.72998046875
 20
136.7669982910156
 30
0.0
 10
274.6129760742188
 20
137.7669982910156
 30
0.0
 10
274.9539794921875
 20
138.1510009765625
 30
0.0
 10
278.5489807128906
 20
141.9869995117188
 30
0.0
 10
278.9089660644531
 20
142.3720092773438
 30
0.0
 10
279.2559509277344
 20
142.7449951171875
 30
0.0
 10
279.6239624023438
 20
143.0299987792969
 30
0.0
 10
279.9969787597656
 20
142.6640014648438
 30
0.0
 10
280.2029724121094
 20
142.4620056152344
 30
0.0
 10
280.2359924316406
 20
142.1900024414062
 30
0.0
 10
280.083984375
 20
141.93701171875
 30
0.0
 10
279.8739929199219
 20
141.5929870605469
 30
0.0
 10
275.1499938964844
 20
136.572998046875
 30
0.0
 10
275.0090026855469
 20
136.4500122070312
 30
0.0
  0
SPLINE
  5
9B
330
1F
100
AcDbEntity
  8
_U+0421_U+043B_U+043E_U+0439 1
 62
     7
420
 16777215
370
     9
100
AcDbSpline
210
0.0
220
0.0
230
1.0
 70
    11
 71
     3
 72
    23
 73
    19
 74
     0
 42
0.0000000001
 43
0.0000000001
 12
1.0
 22
0.0
 32
0.0
 13
1.0
 23
0.0
 33
0.0
 40
0.0
 40
0.0
 40
0.0
 40
0.0
 40
1.0
 40
1.0
 40
1.0
 40
2.0
 40
2.0
 40
2.0
 40
3.0
 40
3.0
 40
3.0
 40
4.0
 40
4.0
 40
4.0
 40
5.0
 40
5.0
 40
5.0
 40
6.0
 40
6.0
 40
6.0
 40
6.0
 10
265.2149963378906
 20
340.1410064697266
 30
0.0
 10
265.0180053710938
 20
340.1410064697266
 30
0.0
 10
264.8760070800781
 20
340.2050018310547
 30
0.0
 10
264.7489929199219
 20
340.35400390625
 30
0.0
 10
264.4530029296875
 20
340.7010040283203
 30
0.0
 10
264.6489868164062
 20
341.0820007324219
 30
0.0
 10
265.0059814453125
 20
341.7720031738281
 30
0.0
 10
266.2759704589844
 20
344.2279968261719
 30
0.0
 10
266.9099731445312
 20
346.2570037841797
 30
0.0
 10
267.4629821777344
 20
349.0230102539062
 30
0.0
 10
269.5329895019531
 20
351.5790100097656
 30
0.0
 10
274.0879821777344
 20
349.2990112304688
 30
0.0
 10
274.3159790039062
 20
346.4810028076172
 30
0.0
 10
274.4949645996094
 20
344.2279968261719
 30
0.0
 10
271.6959838867188
 20
342.2380065917969
 30
0.0
 10
270.3119812011719
 20
341.6269989013672
 30
0.0
 10
270.2319946289062
 20
341.5919952392578
 30
0.0
 10
265.4920043945312
 20
340.1410064697266
 30
0.0
 10
265.2149963378906
 20
340.1410064697266
 30
0.0
  0
SPLINE
  5
9C
330
1F
100
AcDbEntity
  8
_U+0421_U+043B_U+043E_U+0439 1
 62
     7
420
 16777215
370
     9
100
AcDbSpline
210
0.0
220
0.0
230
1.0
 70
    11
 71
     3
 72
    17
 73
    13
 74
     0
 42
0.0000000001
 43
0.0000000001
 12
1.0
 22
0.0
 32
0.0
 13
1.0
 23
0.0
 33
0.0
 40
0.0
 40
0.0
 40
0.0
 40
0.0
 40
1.0
 40
1.0
 40
1.0
 40
2.0
 40
2.0
 40
2.0
 40
3.0
 40
3.0
 40
3.0
 40
4.0
 40
4.0
 40
4.0
 40
4.0
 10
268.3949890136719
 20
348.5780029296875
 30
0.0
 10
267.6139831542969
 20
344.6510009765625
 30
0.0
 10
266.4649963378906
 20
342.4170074462891
 30
0.0
 10
265.9039916992188
 20
341.3290100097656
 30
0.0
 10
267.8889770507812
 20
341.9690093994141
 30
0.0
 10
269.9100036621094
 20
342.5420074462891
 30
0.0
 10
269.9100036621094
 20
342.5420074462891
 30
0.0
 10
271.1610107421875
 20
343.0950012207031
 30
0.0
 10
273.4469909667969
 20
344.7940063476562
 30
0.0
 10
273.3200073242188
 20
346.4010009765625
 30
0.0
 10
273.1600036621094
 20
348.3789978027344
 30
0.0
 10
269.7650146484375
 20
350.0540008544922
 30
0.0
 10
268.3949890136719
 20
348.5780029296875
 30
0.0
  0
SPLINE
  5
9D
330
1F
100
AcDbEntity
  8
_U+0421_U+043B_U+043E_U+0439 1
 62
     7
420
 16777215
370
     9
100
AcDbSpline
210
0.0
220
0.0
230
1.0
 70
    11
 71
     3
 72
    14
 73
    10
 74
     0
 42
0.0000000001
 43
0.0000000001
 12
1.0
 22
0.0
 32
0.0
 13
1.0
 23
0.0
 33
0.0
 40
0.0
 40
0.0
 40
0.0
 40
0.0
 40
1.0
 40
1.0
 40
1.0
 40
2.0
 40
2.0
 40
2.0
 40
3.0
 40
3.0
 40
3.0
 40
3.0
 10
253.343994140625
 20
352.4309997558594
 30
0.0
 10
246.5909881591797
 20
352.4810028076172
 30
0.0
 10
239.2969970703125
 20
354.14599609375
 30
0.0
 10
239.3429870605469
 20
355.4190063476562
 30
0.0
 10
239.4469909667969
 20
358.3489990234375
 30
0.0
 10
267.458984375
 20
358.1440124511719
 30
0.0
 10
267.5279846191406
 20
355.2510070800781
 30
0.0
 10
267.5570068359375
 20
353.9709930419922
 30
0.0
 10
260.1789855957031
 20
352.3829956054688
 30
0.0
 10
253.343994140625
 20
352.4309997558594
 30
0.0
  0
SPLINE
  5
9E
330
1F
100
AcDbEntity
  8
_U+0421_U+043B_U+043E_U+0439 1
 62
     7
420
 16777215
370
     9
100
AcDbSpline
210
0.0
220
0.0
230
1.0
 70
    11
 71
     3
 72
    35
 73
    31
 74
     0
 42
0.0000000001
 43
0.0000000001
 12
1.0
 22
0.0
 32
0.0
 13
1.0
 23
0.0
 33
0.0
 40
0.0
 40
0.0
 40
0.0
 40
0.0
 40
1.0
 40
1.0
 40
1.0
 40
2.0
 40
2.0
 40
2.0
 40
3.0
 40
3.0
 40
3.0
 40
4.0
 40
4.0
 40
4.0
 40
5.0
 40
5.0
 40
5.0
 40
6.0
 40
6.0
 40
6.0
 40
7.0
 40
7.0
 40
7.0
 40
8.0
 40
8.0
 40
8.0
 40
9.0
 40
9.0
 40
9.0
 40
10.0
 40
10.0
 40
10.0
 40
10.0
 10
269.9240112304688
 20
353.3890075683594
 30
0.0
 10
270.0180053710938
 20
356.3740081787109
 30
0.0
 10
270.4000244140625
 20
358.0540008544922
 30
0.0
 10
264.3210144042969
 20
359.3190002441406
 30
0.0
 10
256.1170043945312
 20
361.0260009765625
 30
0.0
 10
236.8510131835938
 20
360.7910003662109
 30
0.0
 10
236.7720184326172
 20
355.6929931640625
 30
0.0
 10
236.3480224609375
 20
345.1679992675781
 30
0.0
 10
240.8230133056641
 20
339.6839904785156
 30
0.0
 10
241.8310241699219
 20
337.6309967041016
 30
0.0
 10
227.3000183105469
 20
335.125
 30
0.0
 10
228.0620269775391
 20
328.8759918212891
 30
0.0
 10
235.8400268554688
 20
326.0410003662109
 30
0.0
 10
235.8400268554688
 20
326.0410003662109
 30
0.0
 10
235.83203125
 20
326.0290069580078
 30
0.0
 10
235.83203125
 20
326.0290069580078
 30
0.0
 10
244.3770294189453
 20
323.3100128173828
 30
0.0
 10
260.9870300292969
 20
322.7400054931641
 30
0.0
 10
270.9170227050781
 20
326.0590057373047
 30
0.0
 10
270.9230346679688
 20
326.0590057373047
 30
0.0
 10
270.9290161132812
 20
326.0610046386719
 30
0.0
 10
270.9350280761719
 20
326.0650024414062
 30
0.0
 10
278.4820251464844
 20
328.8410034179688
 30
0.0
 10
279.0030212402344
 20
334.5760040283203
 30
0.0
 10
266.9480285644531
 20
337.2270050048828
 30
0.0
 10
269.0640258789062
 20
337.9540100097656
 30
0.0
 10
270.8340148925781
 20
337.8890075683594
 30
0.0
 10
273.0890197753906
 20
339.3590087890625
 30
0.0
 10
281.8469848632812
 20
345.072998046875
 30
0.0
 10
276.4469909667969
 20
353.3849945068359
 30
0.0
 10
269.9240112304688
 20
353.3890075683594
 30
0.0
  0
SPLINE
  5
9F
330
1F
100
AcDbEntity
  8
_U+0421_U+043B_U+043E_U+0439 1
 62
     7
420
 16777215
370
     9
100
AcDbSpline
210
0.0
220
0.0
230
1.0
 70
    11
 71
     3
 72
    23
 73
    19
 74
     0
 42
0.0000000001
 43
0.0000000001
 12
1.0
 22
0.0
 32
0.0
 13
1.0
 23
0.0
 33
0.0
 40
0.0
 40
0.0
 40
0.0
 40
0.0
 40
1.0
 40
1.0
 40
1.0
 40
2.0
 40
2.0
 40
2.0
 40
3.0
 40
3.0
 40
3.0
 40
4.0
 40
4.0
 40
4.0
 40
5.0
 40
5.0
 40
5.0
 40
6.0
 40
6.0
 40
6.0
 40
6.0
 10
270.3810119628906
 20
327.4369964599609
 30
0.0
 10
255.1190185546875
 20
321.9219970703125
 30
0.0
 10
224.0360107421875
 20
326.9819946289062
 30
0.0
 10
233.4730072021484
 20
333.3569946289062
 30
0.0
 10
235.8160095214844
 20
334.9469909667969
 30
0.0
 10
240.1400146484375
 20
335.8600006103516
 30
0.0
 10
242.5640106201172
 20
336.2559967041016
 30
0.0
 10
242.5840148925781
 20
336.1989898681641
 30
0.0
 10
244.1290130615234
 20
331.843994140625
 30
0.0
 10
244.1510162353516
 20
331.7879943847656
 30
0.0
 10
245.989013671875
 20
327.5299987792969
 30
0.0
 10
261.6980285644531
 20
328.4459991455078
 30
0.0
 10
262.656005859375
 20
332.1289978027344
 30
0.0
 10
262.8000183105469
 20
332.6750030517578
 30
0.0
 10
263.5590209960938
 20
334.8349914550781
 30
0.0
 10
264.1300048828125
 20
336.2599945068359
 30
0.0
 10
275.1910095214844
 20
334.4700012207031
 30
0.0
 10
278.4110107421875
 20
330.343994140625
 30
0.0
 10
270.3810119628906
 20
327.4369964599609
 30
0.0
  0
SPLINE
  5
A0
330
1F
100
AcDbEntity
  8
_U+0421_U+043B_U+043E_U+0439 1
 62
     7
420
 16777215
370
     9
100
AcDbSpline
210
0.0
220
0.0
230
1.0
 70
    11
 71
     3
 72
    29
 73
    25
 74
     0
 42
0.0000000001
 43
0.0000000001
 12
1.0
 22
0.0
 32
0.0
 13
1.0
 23
0.0
 33
0.0
 40
0.0
 40
0.0
 40
0.0
 40
0.0
 40
1.0
 40
1.0
 40
1.0
 40
2.0
 40
2.0
 40
2.0
 40
3.0
 40
3.0
 40
3.0
 40
4.0
 40
4.0
 40
4.0
 40
5.0
 40
5.0
 40
5.0
 40
6.0
 40
6.0
 40
6.0
 40
7.0
 40
7.0
 40
7.0
 40
8.0
 40
8.0
 40
8.0
 40
8.0
 10
262.8529968261719
 20
336.7720031738281
 30
0.0
 10
262.4100036621094
 20
335.6999969482422
 30
0.0
 10
261.9089965820312
 20
334.3300018310547
 30
0.0
 10
261.3240051269531
 20
332.4980010986328
 30
0.0
 10
260.8040161132812
 20
329.6679992675781
 30
0.0
 10
245.8800048828125
 20
329.6640014648438
 30
0.0
 10
245.3630065917969
 20
332.4980010986328
 30
0.0
 10
243.8430023193359
 20
337.2490081787109
 30
0.0
 10
242.9000091552734
 20
338.9069976806641
 30
0.0
 10
241.9240112304688
 20
340.4360046386719
 30
0.0
 10
239.1630096435547
 20
344.7560119628906
 30
0.0
 10
238.041015625
 20
350.6210021972656
 30
0.0
 10
238.2470092773438
 20
355.656005859375
 30
0.0
 10
238.2470092773438
 20
359.7400054931641
 30
0.0
 10
268.4410095214844
 20
359.8150024414062
 30
0.0
 10
268.4410095214844
 20
355.656005859375
 30
0.0
 10
268.4920043945312
 20
354.3769989013672
 30
0.0
 10
268.4649963378906
 20
353.0650024414062
 30
0.0
 10
268.3460083007812
 20
351.7320098876953
 30
0.0
 10
274.5950012207031
 20
353.1710052490234
 30
0.0
 10
280.4089965820312
 20
345.3700103759766
 30
0.0
 10
271.9410095214844
 20
340.3840026855469
 30
0.0
 10
269.1809997558594
 20
338.7619934082031
 30
0.0
 10
267.0920104980469
 20
339.6529998779297
 30
0.0
 10
262.8529968261719
 20
336.7720031738281
 30
0.0
  0
SPLINE
  5
A1
330
1F
100
AcDbEntity
  8
_U+0421_U+043B_U+043E_U+0439 1
 62
     7
420
 16777215
370
     9
100
AcDbSpline
210
0.0
220
0.0
230
1.0
 70
    11
 71
     3
 72
    20
 73
    16
 74
     0
 42
0.0000000001
 43
0.0000000001
 12
1.0
 22
0.0
 32
0.0
 13
1.0
 23
0.0
 33
0.0
 40
0.0
 40
0.0
 40
0.0
 40
0.0
 40
1.0
 40
1.0
 40
1.0
 40
2.0
 40
2.0
 40
2.0
 40
3.0
 40
3.0
 40
3.0
 40
4.0
 40
4.0
 40
4.0
 40
5.0
 40
5.0
 40
5.0
 40
5.0
 10
250.406005859375
 20
331.5769958496094
 30
0.0
 10
249.0640106201172
 20
331.5299987792969
 30
0.0
 10
247.7630004882812
 20
331.7939910888672
 30
0.0
 10
246.5830078125
 20
332.3219909667969
 30
0.0
 10
244.8380126953125
 20
341.4929962158203
 30
0.0
 10
240.614013671875
 20
341.0829925537109
 30
0.0
 10
239.1390075683594
 20
353.5709838867188
 30
0.0
 10
240.5060119628906
 20
352.4059906005859
 30
0.0
 10
241.489013671875
 20
352.3149871826172
 30
0.0
 10
244.6820068359375
 20
351.552978515625
 30
0.0
 10
244.510009765625
 20
347.1979827880859
 30
0.0
 10
245.6100006103516
 20
344.8199768066406
 30
0.0
 10
246.4140014648438
 20
342.4729766845703
 30
0.0
 10
247.9160003662109
 20
338.0859985351562
 30
0.0
 10
248.3470001220703
 20
336.1950073242188
 30
0.0
 10
250.406005859375
 20
331.5769958496094
 30
0.0
  0
SPLINE
  5
A2
330
1F
100
AcDbEntity
  8
_U+0421_U+043B_U+043E_U+0439 1
 62
     7
420
 16777215
370
     9
100
AcDbSpline
210
0.0
220
0.0
230
1.0
 70
    11
 71
     3
 72
    17
 73
    13
 74
     0
 42
0.0000000001
 43
0.0000000001
 12
1.0
 22
0.0
 32
0.0
 13
1.0
 23
0.0
 33
0.0
 40
0.0
 40
0.0
 40
0.0
 40
0.0
 40
1.0
 40
1.0
 40
1.0
 40
2.0
 40
2.0
 40
2.0
 40
3.0
 40
3.0
 40
3.0
 40
4.0
 40
4.0
 40
4.0
 40
4.0
 10
260.2520141601562
 20
333.0989990234375
 30
0.0
 10
259.4920043945312
 20
332.531005859375
 30
0.0
 10
258.5910034179688
 20
332.2169952392578
 30
0.0
 10
257.6470031738281
 20
332.1849975585938
 30
0.0
 10
260.0500183105469
 20
341.5370025634766
 30
0.0
 10
265.8550109863281
 20
345.2350006103516
 30
0.0
 10
263.6019897460938
 20
351.9120025634766
 30
0.0
 10
264.8219909667969
 20
352.1750030517578
 30
0.0
 10
266.0069885253906
 20
352.5359954833984
 30
0.0
 10
267.1600036621094
 20
352.9960021972656
 30
0.0
 10
266.1189880371094
 20
343.5050048828125
 30
0.0
 10
261.8450012207031
 20
339.9470062255859
 30
0.0
 10
260.2520141601562
 20
333.0989990234375
 30
0.0
  0
SPLINE
  5
A3
330
1F
100
AcDbEntity
  8
_U+0421_U+043B_U+043E_U+0439 1
 62
     7
420
 16777215
370
     9
100
AcDbSpline
210
0.0
220
0.0
230
1.0
 70
    11
 71
     3
 72
    35
 73
    31
 74
     0
 42
0.0000000001
 43
0.0000000001
 12
1.0
 22
0.0
 32
0.0
 13
1.0
 23
0.0
 33
0.0
 40
0.0
 40
0.0
 40
0.0
 40
0.0
 40
1.0
 40
1.0
 40
1.0
 40
2.0
 40
2.0
 40
2.0
 40
3.0
 40
3.0
 40
3.0
 40
4.0
 40
4.0
 40
4.0
 40
5.0
 40
5.0
 40
5.0
 40
6.0
 40
6.0
 40
6.0
 40
7.0
 40
7.0
 40
7.0
 40
8.0
 40
8.0
 40
8.0
 40
9.0
 40
9.0
 40
9.0
 40
10.0
 40
10.0
 40
10.0
 40
10.0
 10
272.239013671875
 20
331.4900054931641
 30
0.0
 10
272.2190246582031
 20
330.0670013427734
 30
0.0
 10
267.0440063476562
 20
328.8630065917969
 30
0.0
 10
263.3420104980469
 20
328.6260070800781
 30
0.0
 10
263.3420104980469
 20
328.6260070800781
 30
0.0
 10
263.3420104980469
 20
328.6260070800781
 30
0.0
 10
263.3420104980469
 20
328.6260070800781
 30
0.0
 10
266.0570068359375
 20
329.2110137939453
 30
0.0
 10
270.8829956054688
 20
330.8160095214844
 30
0.0
 10
270.9020080566406
 20
331.4430084228516
 30
0.0
 10
270.927001953125
 20
332.2430114746094
 30
0.0
 10
266.0530090332031
 20
333.0810089111328
 30
0.0
 10
264.4949951171875
 20
333.1680145263672
 30
0.0
 10
264.4949951171875
 20
333.1680145263672
 30
0.0
 10
264.3580017089844
 20
333.1760101318359
 30
0.0
 10
264.3580017089844
 20
333.1760101318359
 30
0.0
 10
264.3580017089844
 20
333.1760101318359
 30
0.0
 10
264.3779907226562
 20
333.31201171875
 30
0.0
 10
264.3779907226562
 20
333.31201171875
 30
0.0
 10
264.4369812011719
 20
333.7110137939453
 30
0.0
 10
264.5669860839844
 20
334.1120147705078
 30
0.0
 10
264.7559814453125
 20
334.4690093994141
 30
0.0
 10
264.7559814453125
 20
334.4690093994141
 30
0.0
 10
264.7959899902344
 20
334.5450134277344
 30
0.0
 10
264.7959899902344
 20
334.5450134277344
 30
0.0
 10
264.7959899902344
 20
334.5450134277344
 30
0.0
 10
264.8819885253906
 20
334.5340118408203
 30
0.0
 10
264.8819885253906
 20
334.5340118408203
 30
0.0
 10
268.9559936523438
 20
334.0169982910156
 30
0.0
 10
272.2579956054688
 20
332.6510009765625
 30
0.0
 10
272.239013671875
 20
331.4900054931641
 30
0.0
  0
SPLINE
  5
A4
330
1F
100
AcDbEntity
  8
_U+0421_U+043B_U+043E_U+0439 1
 62
     7
420
 16777215
370
     9
100
AcDbSpline
210
0.0
220
0.0
230
1.0
 70
    11
 71
     3
 72
    41
 73
    37
 74
     0
 42
0.0000000001
 43
0.0000000001
 12
1.0
 22
0.0
 32
0.0
 13
1.0
 23
0.0
 33
0.0
 40
0.0
 40
0.0
 40
0.0
 40
0.0
 40
1.0
 40
1.0
 40
1.0
 40
2.0
 40
2.0
 40
2.0
 40
3.0
 40
3.0
 40
3.0
 40
4.0
 40
4.0
 40
4.0
 40
5.0
 40
5.0
 40
5.0
 40
6.0
 40
6.0
 40
6.0
 40
7.0
 40
7.0
 40
7.0
 40
8.0
 40
8.0
 40
8.0
 40
9.0
 40
9.0
 40
9.0
 40
10.0
 40
10.0
 40
10.0
 40
11.0
 40
11.0
 40
11.0
 40
12.0
 40
12.0
 40
12.0
 40
12.0
 10
243.2729949951172
 20
328.6269989013672
 30
0.0
 10
243.2729949951172
 20
328.6269989013672
 30
0.0
 10
243.2729949951172
 20
328.6269989013672
 30
0.0
 10
243.2729949951172
 20
328.6269989013672
 30
0.0
 10
240.4779968261719
 20
328.8069915771484
 30
0.0
 10
238.0839996337891
 20
329.2870025634766
 30
0.0
 10
236.1549987792969
 20
330.0569915771484
 30
0.0
 10
234.9779968261719
 20
330.5269927978516
 30
0.0
 10
234.4319915771484
 20
330.9409942626953
 30
0.0
 10
234.3840026855469
 20
331.3999938964844
 30
0.0
 10
234.3440093994141
 20
331.7959899902344
 30
0.0
 10
234.6609954833984
 20
332.18798828125
 30
0.0
 10
235.4470062255859
 20
332.7089996337891
 30
0.0
 10
237.1740112304688
 20
333.8500061035156
 30
0.0
 10
239.8610076904297
 20
334.2980041503906
 30
0.0
 10
241.7330017089844
 20
334.5350036621094
 30
0.0
 10
241.7330017089844
 20
334.5350036621094
 30
0.0
 10
241.8190002441406
 20
334.5460052490234
 30
0.0
 10
241.8190002441406
 20
334.5460052490234
 30
0.0
 10
241.8190002441406
 20
334.5460052490234
 30
0.0
 10
241.8589935302734
 20
334.4690093994141
 30
0.0
 10
241.8589935302734
 20
334.4690093994141
 30
0.0
 10
242.0489959716797
 20
334.1070098876953
 30
0.0
 10
242.1759948730469
 20
333.7180023193359
 30
0.0
 10
242.2369995117188
 20
333.3140106201172
 30
0.0
 10
242.2369995117188
 20
333.3140106201172
 30
0.0
 10
242.2570037841797
 20
333.1780090332031
 30
0.0
 10
242.2570037841797
 20
333.1780090332031
 30
0.0
 10
242.2570037841797
 20
333.1780090332031
 30
0.0
 10
242.1200103759766
 20
333.1700134277344
 30
0.0
 10
242.1200103759766
 20
333.1700134277344
 30
0.0
 10
240.5610046386719
 20
333.0820159912109
 30
0.0
 10
235.68701171875
 20
332.2410125732422
 30
0.0
 10
235.7130126953125
 20
331.4440155029297
 30
0.0
 10
235.7330017089844
 20
330.8240051269531
 30
0.0
 10
241.0110015869141
 20
329.1150054931641
 30
0.0
 10
243.2729949951172
 20
328.6269989013672
 30
0.0
  0
SPLINE
  5
A5
330
1F
100
AcDbEntity
  8
_U+0421_U+043B_U+043E_U+0439 1
 62
     7
420
 16777215
370
     9
100
AcDbSpline
210
0.0
220
0.0
230
1.0
 70
    11
 71
     3
 72
    62
 73
    58
 74
     0
 42
0.0000000001
 43
0.0000000001
 12
1.0
 22
0.0
 32
0.0
 13
1.0
 23
0.0
 33
0.0
 40
0.0
 40
0.0
 40
0.0
 40
0.0
 40
1.0
 40
1.0
 40
1.0
 40
2.0
 40
2.0
 40
2.0
 40
3.0
 40
3.0
 40
3.0
 40
4.0
 40
4.0
 40
4.0
 40
5.0
 40
5.0
 40
5.0
 40
6.0
 40
6.0
 40
6.0
 40
7.0
 40
7.0
 40
7.0
 40
8.0
 40
8.0
 40
8.0
 40
9.0
 40
9.0
 40
9.0
 40
10.0
 40
10.0
 40
10.0
 40
11.0
 40
11.0
 40
11.0
 40
12.0
 40
12.0
 40
12.0
 40
13.0
 40
13.0
 40
13.0
 40
14.0
 40
14.0
 40
14.0
 40
15.0
 40
15.0
 40
15.0
 40
16.0
 40
16.0
 40
16.0
 40
17.0
 40
17.0
 40
17.0
 40
18.0
 40
18.0
 40
18.0
 40
19.0
 40
19.0
 40
19.0
 40
19.0
 10
290.9110107421875
 20
67.48699951171875
 30
0.0
 10
293.14599609375
 20
72.25299072265625
 30
0.0
 10
288.6890258789062
 20
76.010986328125
 30
0.0
 10
284.864013671875
 20
74.07699584960938
 30
0.0
 10
282.2660217285156
 20
91.72299194335938
 30
0.0
 10
268.2610168457031
 20
104.9410095214844
 30
0.0
 10
252.0000152587891
 20
104.9410095214844
 30
0.0
 10
235.8240203857422
 20
104.9410095214844
 30
0.0
 10
221.8230133056641
 20
91.79202270507812
 30
0.0
 10
219.1610107421875
 20
74.24600219726562
 30
0.0
 10
215.4510040283203
 20
75.77801513671875
 30
0.0
 10
211.2640075683594
 20
72.14199829101562
 30
0.0
 10
213.4460144042969
 20
67.48699951171875
 30
0.0
 10
210.4570159912109
 20
66.87799072265625
 30
0.0
 10
208.5190124511719
 20
59.90499877929688
 30
0.0
 10
214.5760192871094
 20
57.66000366210938
 30
0.0
 10
218.1480255126953
 20
56.33401489257812
 30
0.0
 10
222.0300140380859
 20
57.739990234375
 30
0.0
 10
223.9490203857422
 20
60.87899780273438
 30
0.0
 10
225.8100128173828
 20
56.79998779296875
 30
0.0
 10
233.1460266113281
 20
57.67098999023438
 30
0.0
 10
235.3570251464844
 20
59.28500366210938
 30
0.0
 10
236.1570281982422
 20
59.8690185546875
 30
0.0
 10
236.7960205078125
 20
61.34701538085938
 30
0.0
 10
237.0450286865234
 20
62.531005859375
 30
0.0
 10
241.3120269775391
 20
59.37899780273438
 30
0.0
 10
247.3070220947266
 20
63.18899536132812
 30
0.0
 10
245.0940246582031
 20
67.40802001953125
 30
0.0
 10
244.3170318603516
 20
68.88900756835938
 30
0.0
 10
242.6920318603516
 20
69.84902954101562
 30
0.0
 10
240.5310211181641
 20
70.13900756835938
 30
0.0
 10
244.2970275878906
 20
73.5570068359375
 30
0.0
 10
239.5120239257812
 20
80.10601806640625
 30
0.0
 10
233.051025390625
 20
76.18899536132812
 30
0.0
 10
239.6110229492188
 20
95.510009765625
 30
0.0
 10
264.0810241699219
 20
95.8179931640625
 30
0.0
 10
270.8590087890625
 20
76.44000244140625
 30
0.0
 10
264.4040222167969
 20
79.76901245117188
 30
0.0
 10
260.2270202636719
 20
73.40301513671875
 30
0.0
 10
263.8250122070312
 20
70.13900756835938
 30
0.0
 10
256.8659973144531
 20
69.20501708984375
 30
0.0
 10
257.6060180664062
 20
61.75
 30
0.0
 10
263.3890075683594
 20
61.427001953125
 30
0.0
 10
264.8520202636719
 20
61.34298706054688
 30
0.0
 10
266.2530212402344
 20
61.74899291992188
 30
0.0
 10
267.3099975585938
 20
62.531005859375
 30
0.0
 10
267.5589904785156
 20
61.34600830078125
 30
0.0
 10
268.1990051269531
 20
59.8699951171875
 30
0.0
 10
268.9979858398438
 20
59.2860107421875
 30
0.0
 10
271.1969909667969
 20
57.677001953125
 30
0.0
 10
278.5419921875
 20
56.79299926757812
 30
0.0
 10
280.4059753417969
 20
60.87899780273438
 30
0.0
 10
284.6399841308594
 20
53.95001220703125
 30
0.0
 10
295.8099670410156
 20
57.58200073242188
 30
0.0
 10
293.43896484375
 20
64.75900268554688
 30
0.0
 10
292.9460144042969
 20
66.25799560546875
 30
0.0
 10
291.9670104980469
 20
67.27200317382812
 30
0.0
 10
290.9110107421875
 20
67.48699951171875
 30
0.0
  0
SPLINE
  5
A6
330
1F
100
AcDbEntity
  8
_U+0421_U+043B_U+043E_U+0439 1
 62
     7
420
 16777215
370
     9
100
AcDbSpline
210
0.0
220
0.0
230
1.0
 70
    11
 71
     3
 72
    20
 73
    16
 74
     0
 42
0.0000000001
 43
0.0000000001
 12
1.0
 22
0.0
 32
0.0
 13
1.0
 23
0.0
 33
0.0
 40
0.0
 40
0.0
 40
0.0
 40
0.0
 40
1.0
 40
1.0
 40
1.0
 40
2.0
 40
2.0
 40
2.0
 40
3.0
 40
3.0
 40
3.0
 40
4.0
 40
4.0
 40
4.0
 40
5.0
 40
5.0
 40
5.0
 40
5.0
 10
277.1759948730469
 20
78.0679931640625
 30
0.0
 10
268.75
 20
104.10400390625
 30
0.0
 10
235.3239898681641
 20
104.1629943847656
 30
0.0
 10
226.8470001220703
 20
78.11398315429688
 30
0.0
 10
226.1920013427734
 20
78.17498779296875
 30
0.0
 10
225.1540069580078
 20
78.01898193359375
 30
0.0
 10
224.4510040283203
 20
77.80398559570312
 30
0.0
 10
227.6640014648438
 20
90.6729736328125
 30
0.0
 10
239.5770111083984
 20
100.6179809570312
 30
0.0
 10
252.0
 20
100.6179809570312
 30
0.0
 10
264.3059997558594
 20
100.6179809570312
 30
0.0
 10
276.2730102539062
 20
90.68798828125
 30
0.0
 10
279.5220031738281
 20
77.90399169921875
 30
0.0
 10
278.7449951171875
 20
78.08999633789062
 30
0.0
 10
277.9559936523438
 20
78.2030029296875
 30
0.0
 10
277.1759948730469
 20
78.0679931640625
 30
0.0
  0
SPLINE
  5
A7
330
1F
100
AcDbEntity
  8
_U+0421_U+043B_U+043E_U+0439 1
 62
     7
420
 16777215
370
     9
100
AcDbSpline
210
0.0
220
0.0
230
1.0
 70
    11
 71
     3
 72
    17
 73
    13
 74
     0
 42
0.0000000001
 43
0.0000000001
 12
1.0
 22
0.0
 32
0.0
 13
1.0
 23
0.0
 33
0.0
 40
0.0
 40
0.0
 40
0.0
 40
0.0
 40
1.0
 40
1.0
 40
1.0
 40
2.0
 40
2.0
 40
2.0
 40
3.0
 40
3.0
 40
3.0
 40
4.0
 40
4.0
 40
4.0
 40
4.0
 10
274.614013671875
 20
76.89999389648438
 30
0.0
 10
267.2450256347656
 20
100.0350036621094
 30
0.0
 10
237.1790161132812
 20
100.7829895019531
 30
0.0
 10
229.4580078125
 20
77.10800170898438
 30
0.0
 10
229.0000152587891
 20
77.41400146484375
 30
0.0
 10
228.5220031738281
 20
77.66299438476562
 30
0.0
 10
228.0410003662109
 20
77.83999633789062
 30
0.0
 10
236.1909942626953
 20
103.0390014648438
 30
0.0
 10
268.0289916992188
 20
102.7929992675781
 30
0.0
 10
276.010009765625
 20
77.70401000976562
 30
0.0
 10
275.5299987792969
 20
77.49600219726562
 30
0.0
 10
275.0599975585938
 20
77.22299194335938
 30
0.0
 10
274.614013671875
 20
76.89999389648438
 30
0.0
  0
SPLINE
  5
A8
330
1F
100
AcDbEntity
  8
_U+0421_U+043B_U+043E_U+0439 1
 62
     7
420
 16777215
370
     9
100
AcDbSpline
210
0.0
220
0.0
230
1.0
 70
    11
 71
     3
 72
    32
 73
    28
 74
     0
 42
0.0000000001
 43
0.0000000001
 12
1.0
 22
0.0
 32
0.0
 13
1.0
 23
0.0
 33
0.0
 40
0.0
 40
0.0
 40
0.0
 40
0.0
 40
1.0
 40
1.0
 40
1.0
 40
2.0
 40
2.0
 40
2.0
 40
3.0
 40
3.0
 40
3.0
 40
4.0
 40
4.0
 40
4.0
 40
5.0
 40
5.0
 40
5.0
 40
6.0
 40
6.0
 40
6.0
 40
7.0
 40
7.0
 40
7.0
 40
8.0
 40
8.0
 40
8.0
 40
9.0
 40
9.0
 40
9.0
 40
9.0
 10
220.0890045166016
 20
73.74301147460938
 30
0.0
 10
222.5410003662109
 20
90.98202514648438
 30
0.0
 10
236.2080078125
 20
103.9410095214844
 30
0.0
 10
252.0
 20
103.9410095214844
 30
0.0
 10
267.8970031738281
 20
103.9410095214844
 30
0.0
 10
281.583984375
 20
90.87701416015625
 30
0.0
 10
283.9429931640625
 20
73.50302124023438
 30
0.0
 10
283.9010009765625
 20
73.46902465820312
 30
0.0
 10
283.8589782714844
 20
73.43402099609375
 30
0.0
 10
283.8169860839844
 20
73.39801025390625
 30
0.0
 10
283.6759948730469
 20
73.39599609375
 30
0.0
 10
283.6189880371094
 20
73.39300537109375
 30
0.0
 10
283.5249938964844
 20
73.38702392578125
 30
0.0
 10
283.3639831542969
 20
75.36203002929688
 30
0.0
 10
282.2539978027344
 20
76.79202270507812
 30
0.0
 10
280.6489868164062
 20
77.52401733398438
 30
0.0
 10
279.5279846191406
 20
86.49301147460938
 30
0.0
 10
268.2539978027344
 20
101.6180114746094
 30
0.0
 10
251.9999847412109
 20
101.6180114746094
 30
0.0
 10
238.9019775390625
 20
101.6180114746094
 30
0.0
 10
226.3569793701172
 20
90.96902465820312
 30
0.0
 10
223.3089904785156
 20
77.32501220703125
 30
0.0
 10
221.697998046875
 20
76.42001342773438
 30
0.0
 10
220.8789978027344
 20
74.84402465820312
 30
0.0
 10
220.8109893798828
 20
73.15701293945312
 30
0.0
 10
220.7460021972656
 20
73.218994140625
 30
0.0
 10
220.2819976806641
 20
73.61199951171875
 30
0.0
 10
220.0890045166016
 20
73.74301147460938
 30
0.0
  0
SPLINE
  5
A9
330
1F
100
AcDbEntity
  8
_U+0421_U+043B_U+043E_U+0439 1
 62
     7
420
 16777215
370
     9
100
AcDbSpline
210
0.0
220
0.0
230
1.0
 70
    11
 71
     3
 72
    65
 73
    61
 74
     0
 42
0.0000000001
 43
0.0000000001
 12
1.0
 22
0.0
 32
0.0
 13
1.0
 23
0.0
 33
0.0
 40
0.0
 40
0.0
 40
0.0
 40
0.0
 40
1.0
 40
1.0
 40
1.0
 40
2.0
 40
2.0
 40
2.0
 40
3.0
 40
3.0
 40
3.0
 40
4.0
 40
4.0
 40
4.0
 40
5.0
 40
5.0
 40
5.0
 40
6.0
 40
6.0
 40
6.0
 40
7.0
 40
7.0
 40
7.0
 40
8.0
 40
8.0
 40
8.0
 40
9.0
 40
9.0
 40
9.0
 40
10.0
 40
10.0
 40
10.0
 40
11.0
 40
11.0
 40
11.0
 40
12.0
 40
12.0
 40
12.0
 40
13.0
 40
13.0
 40
13.0
 40
14.0
 40
14.0
 40
14.0
 40
15.0
 40
15.0
 40
15.0
 40
16.0
 40
16.0
 40
16.0
 40
17.0
 40
17.0
 40
17.0
 40
18.0
 40
18.0
 40
18.0
 40
19.0
 40
19.0
 40
19.0
 40
20.0
 40
20.0
 40
20.0
 40
20.0
 10
237.4579925537109
 20
76.37799072265625
 30
0.0
 10
239.1079864501953
 20
76.23797607421875
 30
0.0
 10
240.5189971923828
 20
75.0419921875
 30
0.0
 10
240.8119964599609
 20
73.53298950195312
 30
0.0
 10
241.0760040283203
 20
72.17300415039062
 30
0.0
 10
240.3499908447266
 20
70.95098876953125
 30
0.0
 10
238.8219909667969
 20
70.17898559570312
 30
0.0
 10
238.3549957275391
 20
69.9429931640625
 30
0.0
 10
238.5219879150391
 20
69.23297119140625
 30
0.0
 10
239.0479888916016
 20
69.23297119140625
 30
0.0
 10
243.9469909667969
 20
69.23297119140625
 30
0.0
 10
245.4989929199219
 20
66.11495971679688
 30
0.0
 10
243.9659881591797
 20
63.9129638671875
 30
0.0
 10
242.5819854736328
 20
61.92697143554688
 30
0.0
 10
238.7689819335938
 20
61.9129638671875
 30
0.0
 10
237.0329895019531
 20
63.8919677734375
 30
0.0
 10
236.718994140625
 20
64.24896240234375
 30
0.0
 10
236.1339874267578
 20
64.0059814453125
 30
0.0
 10
236.1579895019531
 20
63.5379638671875
 30
0.0
 10
236.2029876708984
 20
62.6109619140625
 30
0.0
 10
235.4659881591797
 20
60.60195922851562
 30
0.0
 10
234.7679901123047
 20
60.09295654296875
 30
0.0
 10
232.8429870605469
 20
58.68795776367188
 30
0.0
 10
225.1899871826172
 20
57.77096557617188
 30
0.0
 10
224.5719909667969
 20
62.30996704101562
 30
0.0
 10
224.5039978027344
 20
62.81695556640625
 30
0.0
 10
223.8039855957031
 20
62.9019775390625
 30
0.0
 10
223.6129913330078
 20
62.42996215820312
 30
0.0
 10
222.2239837646484
 20
58.98995971679688
 30
0.0
 10
218.4099884033203
 20
57.30596923828125
 30
0.0
 10
214.9249877929688
 20
58.59796142578125
 30
0.0
 10
209.333984375
 20
60.66995239257812
 30
0.0
 10
212.0589904785156
 20
67.1009521484375
 30
0.0
 10
214.156982421875
 20
66.48895263671875
 30
0.0
 10
214.5999755859375
 20
66.36395263671875
 30
0.0
 10
214.9609832763672
 20
66.84494018554688
 30
0.0
 10
214.7219848632812
 20
67.23196411132812
 30
0.0
 10
211.4569854736328
 20
72.51895141601562
 30
0.0
 10
218.1599884033203
 20
76.34896850585938
 30
0.0
 10
221.156982421875
 20
71.08197021484375
 30
0.0
 10
221.4639892578125
 20
70.5479736328125
 30
0.0
 10
222.2899780273438
 20
70.94296264648438
 30
0.0
 10
222.0539855957031
 20
71.51797485351562
 30
0.0
 10
221.5029907226562
 20
72.85797119140625
 30
0.0
 10
221.7369842529297
 20
75.31497192382812
 30
0.0
 10
223.8249816894531
 20
76.46096801757812
 30
0.0
 10
223.9249877929688
 20
76.47998046875
 30
0.0
 10
224.0139770507812
 20
76.5269775390625
 30
0.0
 10
224.0849761962891
 20
76.59896850585938
 30
0.0
 10
227.3429718017578
 20
78.11196899414062
 30
0.0
 10
230.3579711914062
 20
75.6939697265625
 30
0.0
 10
231.1339721679688
 20
73.75497436523438
 30
0.0
 10
231.3479766845703
 20
73.2149658203125
 30
0.0
 10
231.3359680175781
 20
72.635986328125
 30
0.0
 10
231.9139709472656
 20
72.7559814453125
 30
0.0
 10
232.5189666748047
 20
72.89297485351562
 30
0.0
 10
232.1699676513672
 20
73.34698486328125
 30
0.0
 10
232.2689666748047
 20
73.8909912109375
 30
0.0
 10
232.5489959716797
 20
75.3280029296875
 30
0.0
 10
235.6959991455078
 20
76.51998901367188
 30
0.0
 10
237.4579925537109
 20
76.37799072265625
 30
0.0
  0
SPLINE
  5
AA
330
1F
100
AcDbEntity
  8
_U+0421_U+043B_U+043E_U+0439 1
 62
     7
420
 16777215
370
     9
100
AcDbSpline
210
0.0
220
0.0
230
1.0
 70
    11
 71
     3
 72
    20
 73
    16
 74
     0
 42
0.0000000001
 43
0.0000000001
 12
1.0
 22
0.0
 32
0.0
 13
1.0
 23
0.0
 33
0.0
 40
0.0
 40
0.0
 40
0.0
 40
0.0
 40
1.0
 40
1.0
 40
1.0
 40
2.0
 40
2.0
 40
2.0
 40
3.0
 40
3.0
 40
3.0
 40
4.0
 40
4.0
 40
4.0
 40
5.0
 40
5.0
 40
5.0
 40
5.0
 10
231.6309967041016
 20
74.968994140625
 30
0.0
 10
231.3139953613281
 20
75.45199584960938
 30
0.0
 10
230.8999938964844
 20
75.91500854492188
 30
0.0
 10
230.468994140625
 20
76.31298828125
 30
0.0
 10
237.593994140625
 20
99.78997802734375
 30
0.0
 10
266.9299926757812
 20
98.91998291015625
 30
0.0
 10
273.6170043945312
 20
76.05499267578125
 30
0.0
 10
273.3150024414062
 20
75.7559814453125
 30
0.0
 10
272.9469909667969
 20
75.31900024414062
 30
0.0
 10
272.7090148925781
 20
74.9539794921875
 30
0.0
 10
272.6340026855469
 20
75.06198120117188
 30
0.0
 10
272.5270080566406
 20
75.2139892578125
 30
0.0
 10
272.2240295410156
 20
75.50299072265625
 30
0.0
 10
265.7260131835938
 20
97.66500854492188
 30
0.0
 10
237.5769958496094
 20
97.00399780273438
 30
0.0
 10
231.6309967041016
 20
74.968994140625
 30
0.0
  0
SPLINE
  5
AB
330
1F
100
AcDbEntity
  8
_U+0421_U+043B_U+043E_U+0439 1
 62
     7
420
 16777215
370
     9
100
AcDbSpline
210
0.0
220
0.0
230
1.0
 70
    11
 71
     3
 72
    59
 73
    55
 74
     0
 42
0.0000000001
 43
0.0000000001
 12
1.0
 22
0.0
 32
0.0
 13
1.0
 23
0.0
 33
0.0
 40
0.0
 40
0.0
 40
0.0
 40
0.0
 40
1.0
 40
1.0
 40
1.0
 40
2.0
 40
2.0
 40
2.0
 40
3.0
 40
3.0
 40
3.0
 40
4.0
 40
4.0
 40
4.0
 40
5.0
 40
5.0
 40
5.0
 40
6.0
 40
6.0
 40
6.0
 40
7.0
 40
7.0
 40
7.0
 40
8.0
 40
8.0
 40
8.0
 40
9.0
 40
9.0
 40
9.0
 40
10.0
 40
10.0
 40
10.0
 40
11.0
 40
11.0
 40
11.0
 40
12.0
 40
12.0
 40
12.0
 40
13.0
 40
13.0
 40
13.0
 40
14.0
 40
14.0
 40
14.0
 40
15.0
 40
15.0
 40
15.0
 40
16.0
 40
16.0
 40
16.0
 40
17.0
 40
17.0
 40
17.0
 40
18.0
 40
18.0
 40
18.0
 40
18.0
 10
280.7449951171875
 20
62.42999267578125
 30
0.0
 10
280.5539855957031
 20
62.9019775390625
 30
0.0
 10
279.85400390625
 20
62.81698608398438
 30
0.0
 10
279.7859802246094
 20
62.30999755859375
 30
0.0
 10
279.16796875
 20
57.77798461914062
 30
0.0
 10
271.5179748535156
 20
58.6829833984375
 30
0.0
 10
269.5899658203125
 20
60.09298706054688
 30
0.0
 10
268.8929748535156
 20
60.60299682617188
 30
0.0
 10
268.1549682617188
 20
62.61297607421875
 30
0.0
 10
268.199951171875
 20
63.53799438476562
 30
0.0
 10
268.2239379882812
 20
64.01199340820312
 30
0.0
 10
267.6349487304688
 20
64.24600219726562
 30
0.0
 10
267.324951171875
 20
63.89199829101562
 30
0.0
 10
264.5079650878906
 20
60.67800903320312
 30
0.0
 10
258.1639404296875
 20
63.15899658203125
 30
0.0
 10
260.1489562988281
 20
66.94400024414062
 30
0.0
 10
260.9009704589844
 20
68.37899780273438
 30
0.0
 10
262.8159484863281
 20
69.23300170898438
 30
0.0
 10
265.2739562988281
 20
69.23300170898438
 30
0.0
 10
265.8699645996094
 20
69.23300170898438
 30
0.0
 10
265.9889526367188
 20
69.95098876953125
 30
0.0
 10
265.5369567871094
 20
70.17901611328125
 30
0.0
 10
264.0079650878906
 20
70.95001220703125
 30
0.0
 10
263.2819519042969
 20
72.17202758789062
 30
0.0
 10
263.5459594726562
 20
73.53302001953125
 30
0.0
 10
264.5099487304688
 20
78.49603271484375
 30
0.0
 10
272.126953125
 20
75.81600952148438
 30
0.0
 10
272.1219482421875
 20
73.70001220703125
 30
0.0
 10
272.1219482421875
 20
73.39700317382812
 30
0.0
 10
271.9379577636719
 20
73.24600219726562
 30
0.0
 10
272.1439514160156
 20
72.95401000976562
 30
0.0
 10
272.4209594726562
 20
72.55999755859375
 30
0.0
 10
273.0269470214844
 20
72.63201904296875
 30
0.0
 10
273.1179504394531
 20
73.510009765625
 30
0.0
 10
273.2959594726562
 20
74.0980224609375
 30
0.0
 10
273.8129577636719
 20
74.95101928710938
 30
0.0
 10
274.8299560546875
 20
75.79202270507812
 30
0.0
 10
279.0939636230469
 20
79.30703735351562
 30
0.0
 10
283.7989501953125
 20
75.19802856445312
 30
0.0
 10
282.3029479980469
 20
71.51803588867188
 30
0.0
 10
282.0669555664062
 20
70.94003295898438
 30
0.0
 10
282.8939514160156
 20
70.550048828125
 30
0.0
 10
283.199951171875
 20
71.08102416992188
 30
0.0
 10
286.2099609375
 20
76.364013671875
 30
0.0
 10
292.8919372558594
 20
72.50601196289062
 30
0.0
 10
289.6349487304688
 20
67.23101806640625
 30
0.0
 10
289.3959350585938
 20
66.843017578125
 30
0.0
 10
289.7599487304688
 20
66.36203002929688
 30
0.0
 10
290.199951171875
 20
66.48800659179688
 30
0.0
 10
291.0369567871094
 20
66.73300170898438
 30
0.0
 10
292.0259399414062
 20
65.85299682617188
 30
0.0
 10
292.4909362792969
 20
64.44500732421875
 30
0.0
 10
294.6199951171875
 20
57.99099731445312
 30
0.0
 10
283.6340026855469
 20
55.26199340820312
 30
0.0
 10
280.7449951171875
 20
62.42999267578125
 30
0.0
  0
ENDSEC
  0
SECTION
  2
OBJECTS
  0
DICTIONARY
  5
C
330
0
100
AcDbDictionary
281
     1
  3
ACAD_GROUP
350
D
  3
ACAD_LAYOUT
350
1A
  3
ACAD_MATERIAL
350
3B
  3
ACAD_MLEADERSTYLE
350
AD
  3
ACAD_MLINESTYLE
350
17
  3
ACAD_PLOTSETTINGS
350
19
  3
ACAD_PLOTSTYLENAME
350
E
  3
ACAD_TABLESTYLE
350
AC
  3
ACAD_VISUALSTYLE
350
2A
  0
SUN
  5
3F
330
29
100
AcDbSun
 90
        1
290
     0
 63
     7
421
 16777215
 40
1.0
291
     1
 91
  2455826
 92
 54000000
292
     0
 70
     2
 71
   256
280
     1
  0
DICTIONARY
  5
D
102
{ACAD_REACTORS
330
C
102
}
330
C
100
AcDbDictionary
281
     1
  0
DICTIONARY
  5
1A
102
{ACAD_REACTORS
330
C
102
}
330
C
100
AcDbDictionary
281
     1
  3
Layout1
350
1E
  3
Layout2
350
26
  3
Model
350
22
  0
DICTIONARY
  5
3B
102
{ACAD_REACTORS
330
C
102
}
330
C
100
AcDbDictionary
281
     1
  3
ByBlock
350
3D
  3
ByLayer
350
3C
  3
Global
350
3E
  0
DICTIONARY
  5
AD
102
{ACAD_REACTORS
330
C
102
}
330
C
100
AcDbDictionary
281
     1
  0
DICTIONARY
  5
17
102
{ACAD_REACTORS
330
C
102
}
330
C
100
AcDbDictionary
281
     1
  3
Standard
350
18
  0
DICTIONARY
  5
19
102
{ACAD_REACTORS
330
C
102
}
330
C
100
AcDbDictionary
281
     1
  0
ACDBDICTIONARYWDFLT
  5
E
102
{ACAD_REACTORS
330
C
102
}
330
C
100
AcDbDictionary
281
     1
  3
Normal
350
F
100
AcDbDictionaryWithDefault
340
F
  0
DICTIONARY
  5
AC
102
{ACAD_REACTORS
330
C
102
}
330
C
100
AcDbDictionary
281
     1
  0
DICTIONARY
  5
2A
102
{ACAD_REACTORS
330
C
102
}
330
C
100
AcDbDictionary
281
     1
  3
2dWireframe
350
2F
  3
3D Hidden
350
31
  3
3dWireframe
350
30
  3
Basic
350
32
  3
Brighten
350
36
  3
ColorChange
350
3A
  3
Conceptual
350
34
  3
Dim
350
35
  3
Facepattern
350
39
  3
Flat
350
2B
  3
FlatWithEdges
350
2C
  3
Gouraud
350
2D
  3
GouraudWithEdges
350
2E
  3
Linepattern
350
38
  3
Realistic
350
33
  3
Thicken
350
37
  0
LAYOUT
  5
1E
102
{ACAD_REACTORS
330
1A
102
}
330
1A
100
AcDbPlotSettings
  1

  2
none_device
  4

  6

 40
0.0
 41
0.0
 42
0.0
 43
0.0
 44
0.0
 45
0.0
 46
0.0
 47
0.0
 48
0.0
 49
0.0
140
0.0
141
0.0
142
1.0
143
1.0
 70
   688
 72
     0
 73
     0
 74
     5
  7

 75
    16
 76
     0
 77
     2
 78
   300
147
1.0
148
0.0
149
0.0
100
AcDbLayout
  1
Layout1
 70
     1
 71
     1
 10
0.0
 20
0.0
 11
12.0
 21
9.0
 12
0.0
 22
0.0
 32
0.0
 14
1.000000000000000E+20
 24
1.000000000000000E+20
 34
1.000000000000000E+20
 15
-1.000000000000000E+20
 25
-1.000000000000000E+20
 35
-1.000000000000000E+20
146
0.0
 13
0.0
 23
0.0
 33
0.0
 16
1.0
 26
0.0
 36
0.0
 17
0.0
 27
1.0
 37
0.0
 76
     0
330
1B
  0
LAYOUT
  5
26
102
{ACAD_REACTORS
330
1A
102
}
330
1A
100
AcDbPlotSettings
  1

  2
none_device
  4

  6

 40
0.0
 41
0.0
 42
0.0
 43
0.0
 44
0.0
 45
0.0
 46
0.0
 47
0.0
 48
0.0
 49
0.0
140
0.0
141
0.0
142
1.0
143
1.0
 70
   688
 72
     0
 73
     0
 74
     5
  7

 75
    16
 76
     0
 77
     2
 78
   300
147
1.0
148
0.0
149
0.0
100
AcDbLayout
  1
Layout2
 70
     1
 71
     2
 10
0.0
 20
0.0
 11
0.0
 21
0.0
 12
0.0
 22
0.0
 32
0.0
 14
0.0
 24
0.0
 34
0.0
 15
0.0
 25
0.0
 35
0.0
146
0.0
 13
0.0
 23
0.0
 33
0.0
 16
1.0
 26
0.0
 36
0.0
 17
0.0
 27
1.0
 37
0.0
 76
     0
330
23
  0
LAYOUT
  5
22
102
{ACAD_REACTORS
330
1A
102
}
330
1A
100
AcDbPlotSettings
  1

  2
none_device
  4

  6

 40
0.0
 41
0.0
 42
0.0
 43
0.0
 44
0.0
 45
0.0
 46
0.0
 47
0.0
 48
0.0
 49
0.0
140
0.0
141
0.0
142
1.0
143
1.0
 70
  1712
 72
     0
 73
     0
 74
     0
  7

 75
     0
 76
     0
 77
     2
 78
   300
147
1.0
148
0.0
149
0.0
100
AcDbLayout
  1
Model
 70
     1
 71
     0
 10
0.0
 20
0.0
 11
12.0
 21
9.0
 12
0.0
 22
0.0
 32
0.0
 14
1.000000000000000E+20
 24
1.000000000000000E+20
 34
1.000000000000000E+20
 15
-1.000000000000000E+20
 25
-1.000000000000000E+20
 35
-1.000000000000000E+20
146
0.0
 13
0.0
 23
0.0
 33
0.0
 16
1.0
 26
0.0
 36
0.0
 17
0.0
 27
1.0
 37
0.0
 76
     0
330
1F
331
29
  0
MATERIAL
  5
3D
102
{ACAD_REACTORS
330
3B
102
}
330
3B
100
AcDbMaterial
  1
ByBlock
 72
     1
 94
      127
  0
MATERIAL
  5
3C
102
{ACAD_REACTORS
330
3B
102
}
330
3B
100
AcDbMaterial
  1
ByLayer
 72
     1
 94
      127
  0
MATERIAL
  5
3E
102
{ACAD_REACTORS
330
3B
102
}
330
3B
100
AcDbMaterial
  1
Global
 72
     1
 94
      127
  0
MLINESTYLE
  5
18
102
{ACAD_REACTORS
330
17
102
}
330
17
100
AcDbMlineStyle
  2
Standard
 70
     0
  3

 62
   256
 51
90.0
 52
90.0
 71
     2
 49
0.5
 62
   256
  6
BYLAYER
 49
-0.5
 62
   256
  6
BYLAYER
  0
ACDBPLACEHOLDER
  5
F
102
{ACAD_REACTORS
330
E
102
}
330
E
  0
VISUALSTYLE
  5
2F
102
{ACAD_REACTORS
330
2A
102
}
330
2A
100
AcDbVisualStyle
  2
2dWireframe
 70
     4
177
     2
291
     0
 71
     0
176
     1
 72
     2
176
     1
 73
     0
176
     1
 90
        0
176
     1
 40
-0.6
176
     1
 41
-30.0
176
     1
 62
     5
 63
     7
421
 16777215
176
     1
 74
     1
176
     1
 91
        4
176
     1
 64
     7
176
     1
 65
   257
176
     1
 75
     1
176
     1
175
     1
176
     1
 42
1.0
176
     1
 92
        0
176
     1
 66
   257
176
     1
 43
1.0
176
     1
 76
     1
176
     1
 77
     6
176
     1
 78
     2
176
     1
 67
     7
176
     1
 79
     5
176
     1
170
     0
176
     1
171
     0
176
     1
290
     0
176
     1
 93
        1
176
     1
 44
0.0
176
     1
173
     0
176
     1
  0
VISUALSTYLE
  5
31
102
{ACAD_REACTORS
330
2A
102
}
330
2A
100
AcDbVisualStyle
  2
3D Hidden
 70
     6
177
     2
291
     0
 71
     1
176
     1
 72
     2
176
     1
 73
     2
176
     1
 90
        0
176
     1
 40
-0.6
176
     1
 41
-30.0
176
     1
 62
     5
 63
     7
421
 16777215
176
     1
 74
     2
176
     1
 91
        2
176
     1
 64
     7
176
     1
 65
   257
176
     1
 75
     2
176
     1
175
     1
176
     1
 42
40.0
176
     1
 92
        0
176
     1
 66
   257
176
     1
 43
1.0
176
     1
 76
     1
176
     1
 77
     6
176
     1
 78
     2
176
     1
 67
     7
176
     1
 79
     3
176
     1
170
     0
176
     1
171
     0
176
     1
290
     0
176
     1
 93
        1
176
     1
 44
0.0
176
     1
173
     0
176
     1
  0
VISUALSTYLE
  5
30
102
{ACAD_REACTORS
330
2A
102
}
330
2A
100
AcDbVisualStyle
  2
3dWireframe
 70
     5
177
     2
291
     0
 71
     0
176
     1
 72
     2
176
     1
 73
     0
176
     1
 90
        0
176
     1
 40
-0.6
176
     1
 41
-30.0
176
     1
 62
     5
 63
     7
421
 16777215
176
     1
 74
     1
176
     1
 91
        4
176
     1
 64
     7
176
     1
 65
   257
176
     1
 75
     1
176
     1
175
     1
176
     1
 42
1.0
176
     1
 92
        0
176
     1
 66
   257
176
     1
 43
1.0
176
     1
 76
     1
176
     1
 77
     6
176
     1
 78
     2
176
     1
 67
     7
176
     1
 79
     5
176
     1
170
     0
176
     1
171
     0
176
     1
290
     0
176
     1
 93
        1
176
     1
 44
0.0
176
     1
173
     0
176
     1
  0
VISUALSTYLE
  5
32
102
{ACAD_REACTORS
330
2A
102
}
330
2A
100
AcDbVisualStyle
  2
Basic
 70
     7
177
     2
291
     1
 71
     1
176
     1
 72
     0
176
     1
 73
     1
176
     1
 90
        0
176
     1
 40
-0.6
176
     1
 41
-30.0
176
     1
 62
     5
 63
     7
421
 16777215
176
     1
 74
     0
176
     1
 91
        4
176
     1
 64
     7
176
     1
 65
   257
176
     1
 75
     1
176
     1
175
     1
176
     1
 42
1.0
176
     1
 92
        8
176
     1
 66
     7
176
     1
 43
1.0
176
     1
 76
     1
176
     1
 77
     6
176
     1
 78
     2
176
     1
 67
     7
176
     1
 79
     5
176
     1
170
     0
176
     1
171
     0
176
     1
290
     0
176
     1
 93
        1
176
     1
 44
0.0
176
     1
173
     0
176
     1
  0
VISUALSTYLE
  5
36
102
{ACAD_REACTORS
330
2A
102
}
330
2A
100
AcDbVisualStyle
  2
Brighten
 70
    12
177
     2
291
     1
 71
     2
176
     1
 72
     2
176
     1
 73
     0
176
     1
 90
        0
176
     1
 40
-0.6
176
     1
 41
-30.0
176
     1
 62
     5
 63
     7
421
 16777215
176
     1
 74
     1
176
     1
 91
        4
176
     1
 64
     7
176
     1
 65
   257
176
     1
 75
     1
176
     1
175
     1
176
     1
 42
1.0
176
     1
 92
        8
176
     1
 66
     7
176
     1
 43
1.0
176
     1
 76
     1
176
     1
 77
     6
176
     1
 78
     2
176
     1
 67
     7
176
     1
 79
     5
176
     1
170
     0
176
     1
171
     0
176
     1
290
     0
176
     1
 93
        1
176
     1
 44
50.0
176
     1
173
     0
176
     1
  0
VISUALSTYLE
  5
3A
102
{ACAD_REACTORS
330
2A
102
}
330
2A
100
AcDbVisualStyle
  2
ColorChange
 70
    16
177
     2
291
     1
 71
     2
176
     1
 72
     2
176
     1
 73
     3
176
     1
 90
        0
176
     1
 40
-0.6
176
     1
 41
-30.0
176
     1
 62
     5
 63
     8
421
  8421504
176
     1
 74
     1
176
     1
 91
        4
176
     1
 64
     7
176
     1
 65
   257
176
     1
 75
     1
176
     1
175
     1
176
     1
 42
1.0
176
     1
 92
        8
176
     1
 66
     8
424
  8421504
176
     1
 43
1.0
176
     1
 76
     1
176
     1
 77
     6
176
     1
 78
     2
176
     1
 67
     7
176
     1
 79
     5
176
     1
170
     0
176
     1
171
     0
176
     1
290
     0
176
     1
 93
        1
176
     1
 44
0.0
176
     1
173
     0
176
     1
  0
VISUALSTYLE
  5
34
102
{ACAD_REACTORS
330
2A
102
}
330
2A
100
AcDbVisualStyle
  2
Conceptual
 70
     9
177
     2
291
     0
 71
     3
176
     1
 72
     2
176
     1
 73
     0
176
     1
 90
        0
176
     1
 40
-0.6
176
     1
 41
-30.0
176
     1
 62
     5
 63
     7
421
 16777215
176
     1
 74
     2
176
     1
 91
        2
176
     1
 64
     7
176
     1
 65
   257
176
     1
 75
     1
176
     1
175
     1
176
     1
 42
40.0
176
     1
 92
        8
176
     1
 66
     7
176
     1
 43
1.0
176
     1
 76
     1
176
     1
 77
     6
176
     1
 78
     2
176
     1
 67
     7
176
     1
 79
     3
176
     1
170
     0
176
     1
171
     0
176
     1
290
     0
176
     1
 93
        1
176
     1
 44
0.0
176
     1
173
     0
176
     1
  0
VISUALSTYLE
  5
35
102
{ACAD_REACTORS
330
2A
102
}
330
2A
100
AcDbVisualStyle
  2
Dim
 70
    11
177
     2
291
     1
 71
     2
176
     1
 72
     2
176
     1
 73
     0
176
     1
 90
        0
176
     1
 40
-0.6
176
     1
 41
-30.0
176
     1
 62
     5
 63
     7
421
 16777215
176
     1
 74
     1
176
     1
 91
        4
176
     1
 64
     7
176
     1
 65
   257
176
     1
 75
     1
176
     1
175
     1
176
     1
 42
1.0
176
     1
 92
        8
176
     1
 66
     7
176
     1
 43
1.0
176
     1
 76
     1
176
     1
 77
     6
176
     1
 78
     2
176
     1
 67
     7
176
     1
 79
     5
176
     1
170
     0
176
     1
171
     0
176
     1
290
     0
176
     1
 93
        1
176
     1
 44
-50.0
176
     1
173
     0
176
     1
  0
VISUALSTYLE
  5
39
102
{ACAD_REACTORS
330
2A
102
}
330
2A
100
AcDbVisualStyle
  2
Facepattern
 70
    15
177
     2
291
     1
 71
     2
176
     1
 72
     2
176
     1
 73
     0
176
     1
 90
        0
176
     1
 40
-0.6
176
     1
 41
-30.0
176
     1
 62
     5
 63
     7
421
 16777215
176
     1
 74
     1
176
     1
 91
        4
176
     1
 64
     7
176
     1
 65
   257
176
     1
 75
     1
176
     1
175
     1
176
     1
 42
1.0
176
     1
 92
        8
176
     1
 66
     7
176
     1
 43
1.0
176
     1
 76
     1
176
     1
 77
     6
176
     1
 78
     2
176
     1
 67
     7
176
     1
 79
     5
176
     1
170
     0
176
     1
171
     0
176
     1
290
     0
176
     1
 93
        1
176
     1
 44
0.0
176
     1
173
     0
176
     1
  0
VISUALSTYLE
  5
2B
102
{ACAD_REACTORS
330
2A
102
}
330
2A
100
AcDbVisualStyle
  2
Flat
 70
     0
177
     2
291
     1
 71
     2
176
     1
 72
     1
176
     1
 73
     1
176
     1
 90
        2
176
     1
 40
-0.6
176
     1
 41
30.0
176
     1
 62
     5
 63
     7
421
 16777215
176
     1
 74
     0
176
     1
 91
        4
176
     1
 64
     7
176
     1
 65
   257
176
     1
 75
     1
176
     1
175
     1
176
     1
 42
1.0
176
     1
 92
        8
176
     1
 66
     7
176
     1
 43
1.0
176
     1
 76
     1
176
     1
 77
     6
176
     1
 78
     2
176
     1
 67
     7
176
     1
 79
     5
176
     1
170
     0
176
     1
171
     0
176
     1
290
     0
176
     1
 93
       13
176
     1
 44
0.0
176
     1
173
     0
176
     1
  0
VISUALSTYLE
  5
2C
102
{ACAD_REACTORS
330
2A
102
}
330
2A
100
AcDbVisualStyle
  2
FlatWithEdges
 70
     1
177
     2
291
     1
 71
     2
176
     1
 72
     1
176
     1
 73
     1
176
     1
 90
        2
176
     1
 40
-0.6
176
     1
 41
30.0
176
     1
 62
     5
 63
     7
421
 16777215
176
     1
 74
     1
176
     1
 91
        4
176
     1
 64
     7
176
     1
 65
   257
176
     1
 75
     1
176
     1
175
     1
176
     1
 42
1.0
176
     1
 92
        0
176
     1
 66
   257
176
     1
 43
1.0
176
     1
 76
     1
176
     1
 77
     6
176
     1
 78
     2
176
     1
 67
     7
176
     1
 79
     5
176
     1
170
     0
176
     1
171
     0
176
     1
290
     0
176
     1
 93
       13
176
     1
 44
0.0
176
     1
173
     0
176
     1
  0
VISUALSTYLE
  5
2D
102
{ACAD_REACTORS
330
2A
102
}
330
2A
100
AcDbVisualStyle
  2
Gouraud
 70
     2
177
     2
291
     1
 71
     2
176
     1
 72
     2
176
     1
 73
     1
176
     1
 90
        2
176
     1
 40
-0.6
176
     1
 41
30.0
176
     1
 62
     5
 63
     7
421
 16777215
176
     1
 74
     0
176
     1
 91
        4
176
     1
 64
     7
176
     1
 65
   257
176
     1
 75
     1
176
     1
175
     1
176
     1
 42
1.0
176
     1
 92
        0
176
     1
 66
     7
176
     1
 43
1.0
176
     1
 76
     1
176
     1
 77
     6
176
     1
 78
     2
176
     1
 67
     7
176
     1
 79
     5
176
     1
170
     0
176
     1
171
     0
176
     1
290
     0
176
     1
 93
       13
176
     1
 44
0.0
176
     1
173
     0
176
     1
  0
VISUALSTYLE
  5
2E
102
{ACAD_REACTORS
330
2A
102
}
330
2A
100
AcDbVisualStyle
  2
GouraudWithEdges
 70
     3
177
     2
291
     1
 71
     2
176
     1
 72
     2
176
     1
 73
     1
176
     1
 90
        2
176
     1
 40
-0.6
176
     1
 41
30.0
176
     1
 62
     5
 63
     7
421
 16777215
176
     1
 74
     1
176
     1
 91
        4
176
     1
 64
     7
176
     1
 65
   257
176
     1
 75
     1
176
     1
175
     1
176
     1
 42
1.0
176
     1
 92
        0
176
     1
 66
   257
176
     1
 43
1.0
176
     1
 76
     1
176
     1
 77
     6
176
     1
 78
     2
176
     1
 67
     7
176
     1
 79
     5
176
     1
170
     0
176
     1
171
     0
176
     1
290
     0
176
     1
 93
       13
176
     1
 44
0.0
176
     1
173
     0
176
     1
  0
VISUALSTYLE
  5
38
102
{ACAD_REACTORS
330
2A
102
}
330
2A
100
AcDbVisualStyle
  2
Linepattern
 70
    14
177
     2
291
     1
 71
     2
176
     1
 72
     2
176
     1
 73
     0
176
     1
 90
        0
176
     1
 40
-0.6
176
     1
 41
-30.0
176
     1
 62
     5
 63
     7
421
 16777215
176
     1
 74
     1
176
     1
 91
        4
176
     1
 64
     7
176
     1
 65
   257
176
     1
 75
     7
176
     1
175
     7
176
     1
 42
1.0
176
     1
 92
        8
176
     1
 66
     7
176
     1
 43
1.0
176
     1
 76
     1
176
     1
 77
     6
176
     1
 78
     2
176
     1
 67
     7
176
     1
 79
     5
176
     1
170
     0
176
     1
171
     0
176
     1
290
     0
176
     1
 93
        1
176
     1
 44
0.0
176
     1
173
     0
176
     1
  0
VISUALSTYLE
  5
33
102
{ACAD_REACTORS
330
2A
102
}
330
2A
100
AcDbVisualStyle
  2
Realistic
 70
     8
177
     2
291
     0
 71
     2
176
     1
 72
     2
176
     1
 73
     0
176
     1
 90
        0
176
     1
 40
-0.6
176
     1
 41
-30.0
176
     1
 62
     5
 63
     7
421
 16777215
176
     1
 74
     1
176
     1
 91
        0
176
     1
 64
     7
176
     1
 65
   257
176
     1
 75
     1
176
     1
175
     1
176
     1
 42
1.0
176
     1
 92
        8
176
     1
 66
     8
424
  7895160
176
     1
 43
1.0
176
     1
 76
     1
176
     1
 77
     6
176
     1
 78
     2
176
     1
 67
     7
176
     1
 79
     5
176
     1
170
     0
176
     1
171
     0
176
     1
290
     0
176
     1
 93
       13
176
     1
 44
0.0
176
     1
173
     0
176
     1
  0
VISUALSTYLE
  5
37
102
{ACAD_REACTORS
330
2A
102
}
330
2A
100
AcDbVisualStyle
  2
Thicken
 70
    13
177
     2
291
     1
 71
     2
176
     1
 72
     2
176
     1
 73
     0
176
     1
 90
        0
176
     1
 40
-0.6
176
     1
 41
-30.0
176
     1
 62
     5
 63
     7
421
 16777215
176
     1
 74
     1
176
     1
 91
        4
176
     1
 64
     7
176
     1
 65
   257
176
     1
 75
     1
176
     1
175
     1
176
     1
 42
1.0
176
     1
 92
       12
176
     1
 66
     7
176
     1
 43
1.0
176
     1
 76
     1
176
     1
 77
     6
176
     1
 78
     2
176
     1
 67
     7
176
     1
 79
     5
176
     1
170
     0
176
     1
171
     0
176
     1
290
     0
176
     1
 93
        1
176
     1
 44
0.0
176
     1
173
     0
176
     1
  0
ENDSEC
  0
EOF
