  0
SECTION
  2
HEADER
  9
$ACADVER
  1
AC1024
  9
$ACADMAINTVER
 70
     6
  9
$DWGCODEPAGE
  3
ANSI_1251
  9
$INSBASE
 10
0.0
 20
0.0
 30
0.0
  9
$EXTMIN
 10
1.000000000000000E+20
 20
1.000000000000000E+20
 30
1.000000000000000E+20
  9
$EXTMAX
 10
-1.000000000000000E+20
 20
-1.000000000000000E+20
 30
-1.000000000000000E+20
  9
$LIMMIN
 10
0.0
 20
0.0
  9
$LIMMAX
 10
12.0
 20
9.0
  9
$ORTHOMODE
 70
     0
  9
$REGENMODE
 70
     1
  9
$FILLMODE
 70
     1
  9
$QTEXTMODE
 70
     0
  9
$MIRRTEXT
 70
     1
  9
$LTSCALE
 40
1.0
  9
$ATTMODE
 70
     1
  9
$TEXTSIZE
 40
0.2
  9
$TRACEWID
 40
0.05
  9
$TEXTSTYLE
  7
Standard
  9
$CLAYER
  8
0
  9
$CELTYPE
  6
ByLayer
  9
$CECOLOR
 62
   256
  9
$CELTSCALE
 40
1.0
  9
$DISPSILH
 70
     0
  9
$DIMSCALE
 40
1.0
  9
$DIMASZ
 40
0.18
  9
$DIMEXO
 40
0.0625
  9
$DIMDLI
 40
0.38
  9
$DIMRND
 40
0.0
  9
$DIMDLE
 40
0.0
  9
$DIMEXE
 40
0.18
  9
$DIMTP
 40
0.0
  9
$DIMTM
 40
0.0
  9
$DIMTXT
 40
0.18
  9
$DIMCEN
 40
0.09
  9
$DIMTSZ
 40
0.0
  9
$DIMTOL
 70
     0
  9
$DIMLIM
 70
     0
  9
$DIMTIH
 70
     1
  9
$DIMTOH
 70
     1
  9
$DIMSE1
 70
     0
  9
$DIMSE2
 70
     0
  9
$DIMTAD
 70
     0
  9
$DIMZIN
 70
     0
  9
$DIMBLK
  1

  9
$DIMASO
 70
     1
  9
$DIMSHO
 70
     1
  9
$DIMPOST
  1

  9
$DIMAPOST
  1

  9
$DIMALT
 70
     0
  9
$DIMALTD
 70
     2
  9
$DIMALTF
 40
25.4
  9
$DIMLFAC
 40
1.0
  9
$DIMTOFL
 70
     0
  9
$DIMTVP
 40
0.0
  9
$DIMTIX
 70
     0
  9
$DIMSOXD
 70
     0
  9
$DIMSAH
 70
     0
  9
$DIMBLK1
  1

  9
$DIMBLK2
  1

  9
$DIMSTYLE
  2
Standard
  9
$DIMCLRD
 70
     0
  9
$DIMCLRE
 70
     0
  9
$DIMCLRT
 70
     0
  9
$DIMTFAC
 40
1.0
  9
$DIMGAP
 40
0.09
  9
$DIMJUST
 70
     0
  9
$DIMSD1
 70
     0
  9
$DIMSD2
 70
     0
  9
$DIMTOLJ
 70
     1
  9
$DIMTZIN
 70
     0
  9
$DIMALTZ
 70
     0
  9
$DIMALTTZ
 70
     0
  9
$DIMUPT
 70
     0
  9
$DIMDEC
 70
     4
  9
$DIMTDEC
 70
     4
  9
$DIMALTU
 70
     2
  9
$DIMALTTD
 70
     2
  9
$DIMTXSTY
  7
Standard
  9
$DIMAUNIT
 70
     0
  9
$DIMADEC
 70
     0
  9
$DIMALTRND
 40
0.0
  9
$DIMAZIN
 70
     0
  9
$DIMDSEP
 70
    46
  9
$DIMATFIT
 70
     3
  9
$DIMFRAC
 70
     0
  9
$DIMLDRBLK
  1

  9
$DIMLUNIT
 70
     2
  9
$DIMLWD
 70
    -2
  9
$DIMLWE
 70
    -2
  9
$DIMTMOVE
 70
     0
  9
$DIMFXL
 40
1.0
  9
$DIMFXLON
 70
     0
  9
$DIMJOGANG
 40
0.7853981633974483
  9
$DIMTFILL
 70
     0
  9
$DIMTFILLCLR
 70
     0
  9
$DIMARCSYM
 70
     0
  9
$DIMLTYPE
  6

  9
$DIMLTEX1
  6

  9
$DIMLTEX2
  6

  9
$DIMTXTDIRECTION
 70
     0
  9
$LUNITS
 70
     2
  9
$LUPREC
 70
     4
  9
$SKETCHINC
 40
0.1
  9
$FILLETRAD
 40
0.5
  9
$AUNITS
 70
     0
  9
$AUPREC
 70
     0
  9
$MENU
  1
.
  9
$ELEVATION
 40
0.0
  9
$PELEVATION
 40
0.0
  9
$THICKNESS
 40
0.0
  9
$LIMCHECK
 70
     0
  9
$CHAMFERA
 40
0.5
  9
$CHAMFERB
 40
0.5
  9
$CHAMFERC
 40
1.0
  9
$CHAMFERD
 40
0.0
  9
$SKPOLY
 70
     0
  9
$TDCREATE
 40
2459885.693482778
  9
$TDUCREATE
 40
2459885.568482778
  9
$TDUPDATE
 40
2459885.693482778
  9
$TDUUPDATE
 40
2459885.568482778
  9
$TDINDWG
 40
0.0000000116
  9
$TDUSRTIMER
 40
0.0000000116
  9
$USRTIMER
 70
     1
  9
$ANGBASE
 50
0.0
  9
$ANGDIR
 70
     0
  9
$PDMODE
 70
     0
  9
$PDSIZE
 40
0.0
  9
$PLINEWID
 40
0.0
  9
$SPLFRAME
 70
     0
  9
$SPLINETYPE
 70
     6
  9
$SPLINESEGS
 70
     8
  9
$HANDSEED
  5
74
  9
$SURFTAB1
 70
     6
  9
$SURFTAB2
 70
     6
  9
$SURFTYPE
 70
     6
  9
$SURFU
 70
     6
  9
$SURFV
 70
     6
  9
$UCSBASE
  2

  9
$UCSNAME
  2

  9
$UCSORG
 10
0.0
 20
0.0
 30
0.0
  9
$UCSXDIR
 10
1.0
 20
0.0
 30
0.0
  9
$UCSYDIR
 10
0.0
 20
1.0
 30
0.0
  9
$UCSORTHOREF
  2

  9
$UCSORTHOVIEW
 70
     0
  9
$UCSORGTOP
 10
0.0
 20
0.0
 30
0.0
  9
$UCSORGBOTTOM
 10
0.0
 20
0.0
 30
0.0
  9
$UCSORGLEFT
 10
0.0
 20
0.0
 30
0.0
  9
$UCSORGRIGHT
 10
0.0
 20
0.0
 30
0.0
  9
$UCSORGFRONT
 10
0.0
 20
0.0
 30
0.0
  9
$UCSORGBACK
 10
0.0
 20
0.0
 30
0.0
  9
$PUCSBASE
  2

  9
$PUCSNAME
  2

  9
$PUCSORG
 10
0.0
 20
0.0
 30
0.0
  9
$PUCSXDIR
 10
1.0
 20
0.0
 30
0.0
  9
$PUCSYDIR
 10
0.0
 20
1.0
 30
0.0
  9
$PUCSORTHOREF
  2

  9
$PUCSORTHOVIEW
 70
     0
  9
$PUCSORGTOP
 10
0.0
 20
0.0
 30
0.0
  9
$PUCSORGBOTTOM
 10
0.0
 20
0.0
 30
0.0
  9
$PUCSORGLEFT
 10
0.0
 20
0.0
 30
0.0
  9
$PUCSORGRIGHT
 10
0.0
 20
0.0
 30
0.0
  9
$PUCSORGFRONT
 10
0.0
 20
0.0
 30
0.0
  9
$PUCSORGBACK
 10
0.0
 20
0.0
 30
0.0
  9
$USERI1
 70
     0
  9
$USERI2
 70
     0
  9
$USERI3
 70
     0
  9
$USERI4
 70
     0
  9
$USERI5
 70
     0
  9
$USERR1
 40
0.0
  9
$USERR2
 40
0.0
  9
$USERR3
 40
0.0
  9
$USERR4
 40
0.0
  9
$USERR5
 40
0.0
  9
$WORLDVIEW
 70
     1
  9
$SHADEDGE
 70
     3
  9
$SHADEDIF
 70
    70
  9
$TILEMODE
 70
     1
  9
$MAXACTVP
 70
    64
  9
$PINSBASE
 10
0.0
 20
0.0
 30
0.0
  9
$PLIMCHECK
 70
     0
  9
$PEXTMIN
 10
1.000000000000000E+20
 20
1.000000000000000E+20
 30
1.000000000000000E+20
  9
$PEXTMAX
 10
-1.000000000000000E+20
 20
-1.000000000000000E+20
 30
-1.000000000000000E+20
  9
$PLIMMIN
 10
0.0
 20
0.0
  9
$PLIMMAX
 10
12.0
 20
9.0
  9
$UNITMODE
 70
     0
  9
$VISRETAIN
 70
     1
  9
$PLINEGEN
 70
     0
  9
$PSLTSCALE
 70
     1
  9
$TREEDEPTH
 70
  3020
  9
$CMLSTYLE
  2
Standard
  9
$CMLJUST
 70
     0
  9
$CMLSCALE
 40
1.0
  9
$PROXYGRAPHICS
 70
     1
  9
$MEASUREMENT
 70
     0
  9
$CELWEIGHT
370
    -1
  9
$ENDCAPS
280
     0
  9
$JOINSTYLE
280
     0
  9
$LWDISPLAY
290
     1
  9
$INSUNITS
 70
     1
  9
$HYPERLINKBASE
  1

  9
$STYLESHEET
  1

  9
$XEDIT
290
     1
  9
$CEPSNTYPE
380
     0
  9
$PSTYLEMODE
290
     1
  9
$FINGERPRINTGUID
  2
{74D031AF-1DD9-4C34-A6AF-24DE33A37CEA}
  9
$VERSIONGUID
  2
{FAEB1C32-E019-11D5-929B-00C0DF256EC4}
  9
$EXTNAMES
290
     1
  9
$PSVPSCALE
 40
0.0
  9
$OLESTARTUP
290
     0
  9
$SORTENTS
280
   127
  9
$INDEXCTL
280
     0
  9
$HIDETEXT
280
     1
  9
$XCLIPFRAME
280
     2
  9
$HALOGAP
280
     0
  9
$OBSCOLOR
 70
   257
  9
$OBSLTYPE
280
     0
  9
$INTERSECTIONDISPLAY
280
     0
  9
$INTERSECTIONCOLOR
 70
   257
  9
$DIMASSOC
280
     2
  9
$PROJECTNAME
  1

  9
$CAMERADISPLAY
290
     0
  9
$LENSLENGTH
 40
50.0
  9
$CAMERAHEIGHT
 40
0.0
  9
$STEPSPERSEC
 40
2.0
  9
$STEPSIZE
 40
6.0
  9
$3DDWFPREC
 40
2.0
  9
$PSOLWIDTH
 40
0.25
  9
$PSOLHEIGHT
 40
4.0
  9
$LOFTANG1
 40
1.570796326794897
  9
$LOFTANG2
 40
1.570796326794897
  9
$LOFTMAG1
 40
0.0
  9
$LOFTMAG2
 40
0.0
  9
$LOFTPARAM
 70
     7
  9
$LOFTNORMALS
280
     1
  9
$LATITUDE
 40
37.795
  9
$LONGITUDE
 40
-122.394
  9
$NORTHDIRECTION
 40
0.0
  9
$TIMEZONE
 70
 -8000
  9
$LIGHTGLYPHDISPLAY
280
     1
  9
$TILEMODELIGHTSYNCH
280
     1
  9
$CMATERIAL
347
3C
  9
$SOLIDHIST
280
     1
  9
$SHOWHIST
280
     1
  9
$DWFFRAME
280
     2
  9
$DGNFRAME
280
     2
  9
$REALWORLDSCALE
290
     1
  9
$INTERFERECOLOR
 62
   256
  9
$CSHADOW
280
     0
  9
$SHADOWPLANELOCATION
 40
0.0
  0
ENDSEC
  0
SECTION
  2
CLASSES
  0
CLASS
  1
ACDBDICTIONARYWDFLT
  2
AcDbDictionaryWithDefault
  3
ObjectDBX Classes
 90
        0
 91
        4
280
     0
281
     0
  0
CLASS
  1
VISUALSTYLE
  2
AcDbVisualStyle
  3
ObjectDBX Classes
 90
     4095
 91
        4
280
     0
281
     0
  0
CLASS
  1
MATERIAL
  2
AcDbMaterial
  3
ObjectDBX Classes
 90
     1153
 91
        4
280
     0
281
     0
  0
CLASS
  1
SUN
  2
AcDbSun
  3
SCENEOE
 90
     1024
 91
        4
280
     0
281
     0
  0
ENDSEC
  0
SECTION
  2
TABLES
  0
TABLE
  2
VPORT
  5
8
330
0
100
AcDbSymbolTable
 70
     1
  0
VPORT
  5
29
330
8
100
AcDbSymbolTableRecord
100
AcDbViewportTableRecord
  2
*Active
 70
     0
 10
0.0
 20
0.0
 11
1.0
 21
1.0
 12
0.0
 22
0.0
 13
0.0
 23
0.0
 14
0.5
 24
0.5
 15
0.5
 25
0.5
 16
0.0
 26
0.0
 36
1.0
 17
5.0
 27
-5.0
 37
0.0
 40
10.0
 41
1.0
 42
50.0
 43
0.0
 44
0.0
 50
0.0
 51
0.0
 71
     0
 72
   100
 73
     1
 74
     3
 75
     0
 76
     0
 77
     0
 78
     0
281
     0
 65
     1
110
0.0
120
0.0
130
0.0
111
1.0
121
0.0
131
0.0
112
0.0
122
1.0
132
0.0
 79
     0
146
0.0
 60
     3
 61
     5
292
     1
282
     1
141
0.0
142
0.0
 63
   250
361
3F
  0
ENDTAB
  0
TABLE
  2
LTYPE
  5
5
330
0
100
AcDbSymbolTable
 70
     1
  0
LTYPE
  5
14
330
5
100
AcDbSymbolTableRecord
100
AcDbLinetypeTableRecord
  2
ByBlock
 70
     0
  3

 72
    65
 73
     0
 40
0.0
  0
LTYPE
  5
15
330
5
100
AcDbSymbolTableRecord
100
AcDbLinetypeTableRecord
  2
ByLayer
 70
     0
  3

 72
    65
 73
     0
 40
0.0
  0
LTYPE
  5
16
330
5
100
AcDbSymbolTableRecord
100
AcDbLinetypeTableRecord
  2
Continuous
 70
     0
  3
Solid line
 72
    65
 73
     0
 40
0.0
  0
ENDTAB
  0
TABLE
  2
LAYER
  5
2
330
0
100
AcDbSymbolTable
 70
     2
  0
LAYER
  5
10
330
2
100
AcDbSymbolTableRecord
100
AcDbLayerTableRecord
  2
0
 70
     0
 62
     7
  6
Continuous
370
    -3
390
F
347
3E
  0
LAYER
  5
40
330
2
100
AcDbSymbolTableRecord
100
AcDbLayerTableRecord
  2
_U+2018_U+043B_U+043E_U+0439_1
 70
     0
 62
     7
  6
Continuous
370
    -3
390
F
347
3E
  0
ENDTAB
  0
TABLE
  2
STYLE
  5
3
330
0
100
AcDbSymbolTable
 70
     1
  0
STYLE
  5
11
330
3
100
AcDbSymbolTableRecord
100
AcDbTextStyleTableRecord
  2
Standard
 70
     0
 40
0.0
 41
1.0
 50
0.0
 71
     0
 42
0.2
  3
txt
  4

  0
ENDTAB
  0
TABLE
  2
VIEW
  5
6
330
0
100
AcDbSymbolTable
 70
     0
  0
ENDTAB
  0
TABLE
  2
UCS
  5
7
330
0
100
AcDbSymbolTable
 70
     0
  0
ENDTAB
  0
TABLE
  2
APPID
  5
9
330
0
100
AcDbSymbolTable
 70
     1
  0
APPID
  5
12
330
9
100
AcDbSymbolTableRecord
100
AcDbRegAppTableRecord
  2
ACAD
 70
     0
  0
ENDTAB
  0
TABLE
  2
DIMSTYLE
  5
A
330
0
100
AcDbSymbolTable
 70
     1
100
AcDbDimStyleTable
  0
DIMSTYLE
105
27
330
A
100
AcDbSymbolTableRecord
100
AcDbDimStyleTableRecord
  2
Standard
 70
     0
178
     0
340
11
  0
ENDTAB
  0
TABLE
  2
BLOCK_RECORD
  5
1
330
0
100
AcDbSymbolTable
 70
     2
  0
BLOCK_RECORD
  5
1F
330
1
100
AcDbSymbolTableRecord
100
AcDbBlockTableRecord
  2
*Model_Space
340
22
 70
     0
280
     1
281
     0
  0
BLOCK_RECORD
  5
1B
330
1
100
AcDbSymbolTableRecord
100
AcDbBlockTableRecord
  2
*Paper_Space
340
1E
 70
     0
280
     1
281
     0
  0
BLOCK_RECORD
  5
23
330
1
100
AcDbSymbolTableRecord
100
AcDbBlockTableRecord
  2
*Paper_Space0
340
26
 70
     0
280
     1
281
     0
  0
BLOCK_RECORD
  5
41
330
1
100
AcDbSymbolTableRecord
100
AcDbBlockTableRecord
  2
block 2
340
0
102
{BLKREFS
331
42
102
}
 70
     0
280
     1
281
     0
  0
ENDTAB
  0
ENDSEC
  0
SECTION
  2
BLOCKS
  0
BLOCK
  5
20
330
1F
100
AcDbEntity
  8
0
100
AcDbBlockBegin
  2
*Model_Space
 70
     0
 10
0.0
 20
0.0
 30
0.0
  3
*Model_Space
  1

  0
ENDBLK
  5
21
330
1F
100
AcDbEntity
  8
0
100
AcDbBlockEnd
  0
BLOCK
  5
1C
330
1B
100
AcDbEntity
 67
     1
  8
0
100
AcDbBlockBegin
  2
*Paper_Space
 70
     0
 10
0.0
 20
0.0
 30
0.0
  3
*Paper_Space
  1

  0
ENDBLK
  5
1D
330
1B
100
AcDbEntity
 67
     1
  8
0
100
AcDbBlockEnd
  0
BLOCK
  5
24
330
23
100
AcDbEntity
  8
0
100
AcDbBlockBegin
  2
*Paper_Space0
 70
     0
 10
0.0
 20
0.0
 30
0.0
  3
*Paper_Space0
  1

  0
ENDBLK
  5
25
330
23
100
AcDbEntity
  8
0
100
AcDbBlockEnd
  0
BLOCK
  5
43
330
41
100
AcDbEntity
  8
0
100
AcDbBlockBegin
  2
block 2
 70
     0
 10
0.0
 20
0.0
 30
0.0
  3
block 2
  1

  0
POLYLINE
  5
45
330
41
100
AcDbEntity
  8
_U+2018_U+043B_U+043E_U+0439_1
370
     0
100
AcDb2dPolyline
 66
     1
 10
0.0
 20
0.0
 30
0.0
  0
VERTEX
  5
46
330
45
100
AcDbEntity
  8
_U+2018_U+043B_U+043E_U+0439_1
370
     0
100
AcDbVertex
100
AcDb2dVertex
 10
2.769922152248101
 20
-5.608534722222227
 30
0.0
  0
VERTEX
  5
47
330
45
100
AcDbEntity
  8
_U+2018_U+043B_U+043E_U+0439_1
370
     0
100
AcDbVertex
100
AcDb2dVertex
 10
2.769922152248101
 20
-7.108534722222227
 30
0.0
  0
VERTEX
  5
48
330
45
100
AcDbEntity
  8
_U+2018_U+043B_U+043E_U+0439_1
370
     0
100
AcDbVertex
100
AcDb2dVertex
 10
7.23007759513065
 20
-7.108534722222227
 30
0.0
  0
VERTEX
  5
49
330
45
100
AcDbEntity
  8
_U+2018_U+043B_U+043E_U+0439_1
370
     0
100
AcDbVertex
100
AcDb2dVertex
 10
7.23007759513065
 20
-5.608534722222227
 30
0.0
  0
VERTEX
  5
4A
330
45
100
AcDbEntity
  8
_U+2018_U+043B_U+043E_U+0439_1
370
     0
100
AcDbVertex
100
AcDb2dVertex
 10
2.769922152248101
 20
-5.608534722222227
 30
0.0
  0
SEQEND
  5
4B
330
45
100
AcDbEntity
  8
_U+2018_U+043B_U+043E_U+0439_1
370
     0
  0
POLYLINE
  5
4C
330
41
100
AcDbEntity
  8
_U+2018_U+043B_U+043E_U+0439_1
370
     0
100
AcDb2dPolyline
 66
     1
 10
0.0
 20
0.0
 30
0.0
  0
VERTEX
  5
4D
330
4C
100
AcDbEntity
  8
_U+2018_U+043B_U+043E_U+0439_1
370
     0
100
AcDbVertex
100
AcDb2dVertex
 10
5.39999999999999
 20
-6.408536111111111
 30
0.0
  0
VERTEX
  5
4E
330
4C
100
AcDbEntity
  8
_U+2018_U+043B_U+043E_U+0439_1
370
     0
100
AcDbVertex
100
AcDb2dVertex
 10
4.599999999999997
 20
-6.408536111111111
 30
0.0
  0
VERTEX
  5
4F
330
4C
100
AcDbEntity
  8
_U+2018_U+043B_U+043E_U+0439_1
370
     0
100
AcDbVertex
100
AcDb2dVertex
 10
4.599999999999997
 20
-6.308533333333344
 30
0.0
  0
VERTEX
  5
50
330
4C
100
AcDbEntity
  8
_U+2018_U+043B_U+043E_U+0439_1
370
     0
100
AcDbVertex
100
AcDb2dVertex
 10
5.39999999999999
 20
-6.308533333333344
 30
0.0
  0
VERTEX
  5
51
330
4C
100
AcDbEntity
  8
_U+2018_U+043B_U+043E_U+0439_1
370
     0
100
AcDbVertex
100
AcDb2dVertex
 10
5.39999999999999
 20
-6.408536111111111
 30
0.0
  0
SEQEND
  5
52
330
4C
100
AcDbEntity
  8
_U+2018_U+043B_U+043E_U+0439_1
370
     0
  0
HATCH
  5
53
330
41
100
AcDbEntity
  8
_U+2018_U+043B_U+043E_U+0439_1
 62
     7
420
 16777215
100
AcDbHatch
 10
0.0
 20
0.0
 30
0.0
210
0.0
220
0.0
230
1.0
  2
SOLID
 70
     1
 71
     0
 91
        2
 92
        1
 93
        4
 72
     1
 10
2.769922152248101
 20
-5.608534722222227
 11
2.769922152248101
 21
-7.108534722222227
 72
     1
 10
2.769922152248101
 20
-7.108534722222227
 11
7.23007759513065
 21
-7.108534722222227
 72
     1
 10
7.23007759513065
 20
-7.108534722222227
 11
7.23007759513065
 21
-5.608534722222227
 72
     1
 10
7.23007759513065
 20
-5.608534722222227
 11
2.769922152248101
 21
-5.608534722222227
 97
        0
 92
        1
 93
        4
 72
     1
 10
5.39999999999999
 20
-6.408536111111111
 11
4.599999999999997
 21
-6.408536111111111
 72
     1
 10
4.599999999999997
 20
-6.408536111111111
 11
4.599999999999997
 21
-6.308533333333344
 72
     1
 10
4.599999999999997
 20
-6.308533333333344
 11
5.39999999999999
 21
-6.308533333333344
 72
     1
 10
5.39999999999999
 20
-6.308533333333344
 11
5.39999999999999
 21
-6.408536111111111
 97
        0
 75
     2
 76
     1
 98
        0
  0
POLYLINE
  5
54
330
41
100
AcDbEntity
  8
_U+2018_U+043B_U+043E_U+0439_1
370
     0
100
AcDb2dPolyline
 66
     1
 10
0.0
 20
0.0
 30
0.0
  0
VERTEX
  5
55
330
54
100
AcDbEntity
  8
_U+2018_U+043B_U+043E_U+0439_1
370
     0
100
AcDbVertex
100
AcDb2dVertex
 10
2.769922152248101
 20
-7.310666666666672
 30
0.0
  0
VERTEX
  5
56
330
54
100
AcDbEntity
  8
_U+2018_U+043B_U+043E_U+0439_1
370
     0
100
AcDbVertex
100
AcDb2dVertex
 10
2.769922152248101
 20
-8.810666666666672
 30
0.0
  0
VERTEX
  5
57
330
54
100
AcDbEntity
  8
_U+2018_U+043B_U+043E_U+0439_1
370
     0
100
AcDbVertex
100
AcDb2dVertex
 10
7.23007759513065
 20
-8.810666666666672
 30
0.0
  0
VERTEX
  5
58
330
54
100
AcDbEntity
  8
_U+2018_U+043B_U+043E_U+0439_1
370
     0
100
AcDbVertex
100
AcDb2dVertex
 10
7.23007759513065
 20
-7.310666666666672
 30
0.0
  0
VERTEX
  5
59
330
54
100
AcDbEntity
  8
_U+2018_U+043B_U+043E_U+0439_1
370
     0
100
AcDbVertex
100
AcDb2dVertex
 10
2.769922152248101
 20
-7.310666666666672
 30
0.0
  0
SEQEND
  5
5A
330
54
100
AcDbEntity
  8
_U+2018_U+043B_U+043E_U+0439_1
370
     0
  0
POLYLINE
  5
5B
330
41
100
AcDbEntity
  8
_U+2018_U+043B_U+043E_U+0439_1
370
     0
100
AcDb2dPolyline
 66
     1
 10
0.0
 20
0.0
 30
0.0
  0
VERTEX
  5
5C
330
5B
100
AcDbEntity
  8
_U+2018_U+043B_U+043E_U+0439_1
370
     0
100
AcDbVertex
100
AcDb2dVertex
 10
5.39999999999999
 20
-8.16066944444444
 30
0.0
  0
VERTEX
  5
5D
330
5B
100
AcDbEntity
  8
_U+2018_U+043B_U+043E_U+0439_1
370
     0
100
AcDbVertex
100
AcDb2dVertex
 10
4.599999999999997
 20
-8.16066944444444
 30
0.0
  0
VERTEX
  5
5E
330
5B
100
AcDbEntity
  8
_U+2018_U+043B_U+043E_U+0439_1
370
     0
100
AcDbVertex
100
AcDb2dVertex
 10
4.599999999999997
 20
-7.960663888888878
 30
0.0
  0
VERTEX
  5
5F
330
5B
100
AcDbEntity
  8
_U+2018_U+043B_U+043E_U+0439_1
370
     0
100
AcDbVertex
100
AcDb2dVertex
 10
5.39999999999999
 20
-7.960663888888878
 30
0.0
  0
VERTEX
  5
60
330
5B
100
AcDbEntity
  8
_U+2018_U+043B_U+043E_U+0439_1
370
     0
100
AcDbVertex
100
AcDb2dVertex
 10
5.39999999999999
 20
-8.16066944444444
 30
0.0
  0
SEQEND
  5
61
330
5B
100
AcDbEntity
  8
_U+2018_U+043B_U+043E_U+0439_1
370
     0
  0
HATCH
  5
62
330
41
100
AcDbEntity
  8
_U+2018_U+043B_U+043E_U+0439_1
 62
     7
420
 16777215
100
AcDbHatch
 10
0.0
 20
0.0
 30
0.0
210
0.0
220
0.0
230
1.0
  2
SOLID
 70
     1
 71
     0
 91
        2
 92
        1
 93
        4
 72
     1
 10
2.769922152248101
 20
-7.310666666666672
 11
2.769922152248101
 21
-8.810666666666672
 72
     1
 10
2.769922152248101
 20
-8.810666666666672
 11
7.23007759513065
 21
-8.810666666666672
 72
     1
 10
7.23007759513065
 20
-8.810666666666672
 11
7.23007759513065
 21
-7.310666666666672
 72
     1
 10
7.23007759513065
 20
-7.310666666666672
 11
2.769922152248101
 21
-7.310666666666672
 97
        0
 92
        1
 93
        4
 72
     1
 10
5.39999999999999
 20
-8.16066944444444
 11
4.599999999999997
 21
-8.16066944444444
 72
     1
 10
4.599999999999997
 20
-8.16066944444444
 11
4.599999999999997
 21
-7.960663888888878
 72
     1
 10
4.599999999999997
 20
-7.960663888888878
 11
5.39999999999999
 21
-7.960663888888878
 72
     1
 10
5.39999999999999
 20
-7.960663888888878
 11
5.39999999999999
 21
-8.16066944444444
 97
        0
 75
     2
 76
     1
 98
        0
  0
SPLINE
  5
63
330
41
100
AcDbEntity
  8
_U+2018_U+043B_U+043E_U+0439_1
370
     0
100
AcDbSpline
210
0.0
220
0.0
230
1.0
 70
    11
 71
     3
 72
   107
 73
   103
 74
     0
 42
0.0000000001
 43
0.0000000001
 12
1.0
 22
0.0
 32
0.0
 13
1.0
 23
0.0
 33
0.0
 40
0.0
 40
0.0
 40
0.0
 40
0.0
 40
1.0
 40
1.0
 40
1.0
 40
2.0
 40
2.0
 40
2.0
 40
3.0
 40
3.0
 40
3.0
 40
4.0
 40
4.0
 40
4.0
 40
5.0
 40
5.0
 40
5.0
 40
6.0
 40
6.0
 40
6.0
 40
7.0
 40
7.0
 40
7.0
 40
8.0
 40
8.0
 40
8.0
 40
9.0
 40
9.0
 40
9.0
 40
10.0
 40
10.0
 40
10.0
 40
11.0
 40
11.0
 40
11.0
 40
12.0
 40
12.0
 40
12.0
 40
13.0
 40
13.0
 40
13.0
 40
14.0
 40
14.0
 40
14.0
 40
15.0
 40
15.0
 40
15.0
 40
16.0
 40
16.0
 40
16.0
 40
17.0
 40
17.0
 40
17.0
 40
18.0
 40
18.0
 40
18.0
 40
19.0
 40
19.0
 40
19.0
 40
20.0
 40
20.0
 40
20.0
 40
21.0
 40
21.0
 40
21.0
 40
22.0
 40
22.0
 40
22.0
 40
23.0
 40
23.0
 40
23.0
 40
24.0
 40
24.0
 40
24.0
 40
25.0
 40
25.0
 40
25.0
 40
26.0
 40
26.0
 40
26.0
 40
27.0
 40
27.0
 40
27.0
 40
28.0
 40
28.0
 40
28.0
 40
29.0
 40
29.0
 40
29.0
 40
30.0
 40
30.0
 40
30.0
 40
31.0
 40
31.0
 40
31.0
 40
32.0
 40
32.0
 40
32.0
 40
33.0
 40
33.0
 40
33.0
 40
34.0
 40
34.0
 40
34.0
 40
34.0
 10
6.072201235492179
 20
-1.189333333333328
 30
0.0
 10
6.072201235492179
 20
-1.189333333333328
 30
0.0
 10
4.011155454225243
 20
-1.189333333333328
 30
0.0
 10
4.011155454225243
 20
-1.189333333333328
 30
0.0
 10
4.011155454225243
 20
-1.189333333333328
 30
0.0
 10
3.936126289453973
 20
-1.189333333333328
 30
0.0
 10
3.936126289453973
 20
-1.189333333333328
 30
0.0
 10
3.936126289453973
 20
-1.189333333333328
 30
0.0
 10
3.926436011920992
 20
-1.263741666666672
 30
0.0
 10
3.926436011920992
 20
-1.263741666666672
 30
0.0
 10
3.926436011920992
 20
-1.263741666666672
 30
0.0
 10
3.808505459344612
 20
-2.16929305555555
 30
0.0
 10
3.808505459344612
 20
-2.16929305555555
 30
0.0
 10
3.808505459344612
 20
-2.16929305555555
 30
0.0
 10
3.795942959661968
 20
-2.265769444444446
 30
0.0
 10
3.795942959661968
 20
-2.265769444444446
 30
0.0
 10
3.795942959661968
 20
-2.265769444444446
 30
0.0
 10
3.893226290537718
 20
-2.265769444444446
 30
0.0
 10
3.893226290537718
 20
-2.265769444444446
 30
0.0
 10
3.893226290537718
 20
-2.265769444444446
 30
0.0
 10
3.973402777777778
 20
-2.265769444444446
 30
0.0
 10
3.973402777777778
 20
-2.265769444444446
 30
0.0
 10
3.973402777777778
 20
-2.265769444444446
 30
0.0
 10
4.045467953358436
 20
-2.265769444444446
 30
0.0
 10
4.045467953358436
 20
-2.265769444444446
 30
0.0
 10
4.045467953358436
 20
-2.265769444444446
 30
0.0
 10
4.057616564162648
 20
-2.194734722222228
 30
0.0
 10
4.057616564162648
 20
-2.194734722222228
 30
0.0
 10
4.057616564162648
 20
-2.194734722222228
 30
0.0
 10
4.106780451809552
 20
-1.907320833333339
 30
0.0
 10
4.106780451809552
 20
-1.907320833333339
 30
0.0
 10
4.106780451809552
 20
-1.907320833333339
 30
0.0
 10
5.582692914524866
 20
-1.907320833333339
 30
0.0
 10
5.582692914524866
 20
-1.907320833333339
 30
0.0
 10
5.503438749860329
 20
-2.059823611111117
 30
0.0
 10
5.417708333333343
 20
-2.223330555555561
 30
0.0
 10
5.326934587652532
 20
-2.395102777777778
 30
0.0
 10
5.212555555555556
 20
-2.611479166666666
 30
0.0
 10
5.087026260379793
 20
-2.853002777777773
 30
0.0
 10
4.953840152633246
 20
-3.112954166666668
 30
0.0
 10
4.953840152633246
 20
-3.112954166666668
 30
0.0
 10
4.953649874860275
 20
-3.113323611111114
 30
0.0
 10
4.953649874860275
 20
-3.113323611111114
 30
0.0
 10
4.953649874860275
 20
-3.113323611111114
 30
0.0
 10
4.953463763753866
 20
-3.113699999999994
 30
0.0
 10
4.953463763753866
 20
-3.113699999999994
 30
0.0
 10
4.826304044743968
 20
-3.367973611111109
 30
0.0
 10
4.720544325193461
 20
-3.583474999999996
 30
0.0
 10
4.639112382806161
 20
-3.754200000000007
 30
0.0
 10
4.556969329325713
 20
-3.926576388888886
 30
0.0
 10
4.500620719638087
 20
-4.046226388888891
 30
0.0
 10
4.466877664934954
 20
-4.119922222222221
 30
0.0
 10
4.392479055703309
 20
-4.272019444444443
 30
0.0
 10
4.341373501438789
 20
-4.402708333333331
 30
0.0
 10
4.314979057661124
 20
-4.508398611111109
 30
0.0
 10
4.314979057661124
 20
-4.508398611111109
 30
0.0
 10
4.288465169442032
 20
-4.614537499999996
 30
0.0
 10
4.288465169442032
 20
-4.614537499999996
 30
0.0
 10
4.288465169442032
 20
-4.614537499999996
 30
0.0
 10
4.389844333547646
 20
-4.614537499999996
 30
0.0
 10
4.389844333547646
 20
-4.614537499999996
 30
0.0
 10
4.389844333547646
 20
-4.614537499999996
 30
0.0
 10
4.389844333547646
 20
-4.74562083333333
 30
0.0
 10
4.389844333547646
 20
-4.74562083333333
 30
0.0
 10
4.389844333547646
 20
-4.74562083333333
 30
0.0
 10
5.189845702226799
 20
-4.74562083333333
 30
0.0
 10
5.189845702226799
 20
-4.74562083333333
 30
0.0
 10
5.189845702226799
 20
-4.74562083333333
 30
0.0
 10
5.189845702226799
 20
-4.614537499999996
 30
0.0
 10
5.189845702226799
 20
-4.614537499999996
 30
0.0
 10
5.189845702226799
 20
-4.614537499999996
 30
0.0
 10
5.307562365919694
 20
-4.614537499999996
 30
0.0
 10
5.307562365919694
 20
-4.614537499999996
 30
0.0
 10
5.307562365919694
 20
-4.614537499999996
 30
0.0
 10
5.265798478085849
 20
-4.499863888888891
 30
0.0
 10
5.265798478085849
 20
-4.499863888888891
 30
0.0
 10
5.264533200340034
 20
-4.49639444444444
 30
0.0
 10
5.253808200610971
 20
-4.462143055555556
 30
0.0
 10
5.265899866972177
 20
-4.329313888888893
 30
0.0
 10
5.274736111111123
 20
-4.231888888888887
 30
0.0
 10
5.300530421652891
 20
-4.11406666666667
 30
0.0
 10
5.342563753924373
 20
-3.979104166666666
 30
0.0
 10
5.368170697721931
 20
-3.895822222222225
 30
0.0
 10
5.392516530440237
 20
-3.80416388888889
 30
0.0
 10
5.415015140982986
 20
-3.706379166666668
 30
0.0
 10
5.437554029302494
 20
-3.607949999999998
 30
0.0
 10
5.459801250962705
 20
-3.508622222222218
 30
0.0
 10
5.481160972645335
 20
-3.411049999999995
 30
0.0
 10
5.527638888888886
 20
-3.206623611111114
 30
0.0
 10
5.62693319118504
 20
-2.861608333333328
 30
0.0
 10
5.776288742967558
 20
-2.385561111111113
 30
0.0
 10
5.852670685482432
 20
-2.150188888888894
 30
0.0
 10
5.922399850387592
 20
-1.937034722222228
 30
0.0
 10
5.98353457106542
 20
-1.751995833333328
 30
0.0
 10
6.042104014030277
 20
-1.574665277777778
 30
0.0
 10
6.098174845947142
 20
-1.425854166666669
 30
0.0
 10
6.150183177966634
 20
-1.309677777777779
 30
0.0
 10
6.150183177966634
 20
-1.309677777777779
 30
0.0
 10
6.204056787716783
 20
-1.189333333333328
 30
0.0
 10
6.204056787716783
 20
-1.189333333333328
 30
0.0
 10
6.204056787716783
 20
-1.189333333333328
 30
0.0
 10
6.072201235492179
 20
-1.189333333333328
 30
0.0
 10
6.072201235492179
 20
-1.189333333333328
 30
0.0
  0
SPLINE
  5
64
330
41
100
AcDbEntity
  8
_U+2018_U+043B_U+043E_U+0439_1
370
     0
100
AcDbSpline
210
0.0
220
0.0
230
1.0
 70
    11
 71
     3
 72
    17
 73
    13
 74
     0
 42
0.0000000001
 43
0.0000000001
 12
1.0
 22
0.0
 32
0.0
 13
1.0
 23
0.0
 33
0.0
 40
0.0
 40
0.0
 40
0.0
 40
0.0
 40
1.0
 40
1.0
 40
1.0
 40
2.0
 40
2.0
 40
2.0
 40
3.0
 40
3.0
 40
3.0
 40
4.0
 40
4.0
 40
4.0
 40
4.0
 10
5.566185970497423
 20
-1.456776388888885
 30
0.0
 10
5.54910263759565
 20
-1.41862916666667
 30
0.0
 10
5.520477638318779
 20
-1.384361111111111
 30
0.0
 10
5.484920694772578
 20
-1.360208333333339
 30
0.0
 10
5.484920694772578
 20
-1.360208333333339
 30
0.0
 10
5.564517914984005
 20
-1.360208333333339
 30
0.0
 10
5.564517914984005
 20
-1.360208333333339
 30
0.0
 10
5.562631803920541
 20
-1.363191666666669
 30
0.0
 10
5.56094013729661
 20
-1.366308333333336
 30
0.0
 10
5.559563748442492
 20
-1.36960694444445
 30
0.0
 10
5.548067915399567
 20
-1.397137499999998
 30
0.0
 10
5.556345692968231
 20
-1.428615277777782
 30
0.0
 10
5.566185970497423
 20
-1.456776388888885
 30
0.0
  0
SPLINE
  5
65
330
41
100
AcDbEntity
  8
_U+2018_U+043B_U+043E_U+0439_1
370
     0
100
AcDbSpline
210
0.0
220
0.0
230
1.0
 70
    11
 71
     3
 72
    17
 73
    13
 74
     0
 42
0.0000000001
 43
0.0000000001
 12
1.0
 22
0.0
 32
0.0
 13
1.0
 23
0.0
 33
0.0
 40
0.0
 40
0.0
 40
0.0
 40
0.0
 40
1.0
 40
1.0
 40
1.0
 40
2.0
 40
2.0
 40
2.0
 40
3.0
 40
3.0
 40
3.0
 40
4.0
 40
4.0
 40
4.0
 40
4.0
 10
4.461581831735404
 20
-1.532591666666665
 30
0.0
 10
4.448174887629648
 20
-1.472512500000006
 30
0.0
 10
4.430294332525793
 20
-1.411372222222225
 30
0.0
 10
4.398006833341443
 20
-1.360208333333339
 30
0.0
 10
4.398006833341443
 20
-1.360208333333339
 30
0.0
 10
4.543497107443828
 20
-1.360208333333339
 30
0.0
 10
4.543497107443828
 20
-1.360208333333339
 30
0.0
 10
4.517709608095275
 20
-1.394161111111114
 30
0.0
 10
4.496334608635252
 20
-1.431452777777773
 30
0.0
 10
4.480740164584757
 20
-1.471211111111112
 30
0.0
 10
4.47290683144931
 20
-1.49117638888889
 30
0.0
 10
4.466576276053678
 20
-1.51171805555556
 30
0.0
 10
4.461581831735404
 20
-1.532591666666665
 30
0.0
  0
SPLINE
  5
66
330
41
100
AcDbEntity
  8
_U+2018_U+043B_U+043E_U+0439_1
370
     0
100
AcDbSpline
210
0.0
220
0.0
230
1.0
 70
    11
 71
     3
 72
    83
 73
    79
 74
     0
 42
0.0000000001
 43
0.0000000001
 12
1.0
 22
0.0
 32
0.0
 13
1.0
 23
0.0
 33
0.0
 40
0.0
 40
0.0
 40
0.0
 40
0.0
 40
1.0
 40
1.0
 40
1.0
 40
2.0
 40
2.0
 40
2.0
 40
3.0
 40
3.0
 40
3.0
 40
4.0
 40
4.0
 40
4.0
 40
5.0
 40
5.0
 40
5.0
 40
6.0
 40
6.0
 40
6.0
 40
7.0
 40
7.0
 40
7.0
 40
8.0
 40
8.0
 40
8.0
 40
9.0
 40
9.0
 40
9.0
 40
10.0
 40
10.0
 40
10.0
 40
11.0
 40
11.0
 40
11.0
 40
12.0
 40
12.0
 40
12.0
 40
13.0
 40
13.0
 40
13.0
 40
14.0
 40
14.0
 40
14.0
 40
15.0
 40
15.0
 40
15.0
 40
16.0
 40
16.0
 40
16.0
 40
17.0
 40
17.0
 40
17.0
 40
18.0
 40
18.0
 40
18.0
 40
19.0
 40
19.0
 40
19.0
 40
20.0
 40
20.0
 40
20.0
 40
21.0
 40
21.0
 40
21.0
 40
22.0
 40
22.0
 40
22.0
 40
23.0
 40
23.0
 40
23.0
 40
24.0
 40
24.0
 40
24.0
 40
25.0
 40
25.0
 40
25.0
 40
26.0
 40
26.0
 40
26.0
 40
26.0
 10
4.726226269494368
 20
-1.736445833333328
 30
0.0
 10
4.789845712331649
 20
-1.712547222222219
 30
0.0
 10
4.848130433081476
 20
-1.675312500000006
 30
0.0
 10
4.900923487303367
 20
-1.632316666666662
 30
0.0
 10
4.960333333333336
 20
-1.583931944444442
 30
0.0
 10
5.013352651129834
 20
-1.528277777777779
 30
0.0
 10
5.066192927572754
 20
-1.472790277777777
 30
0.0
 10
4.953498485975211
 20
-1.433751388888886
 30
0.0
 10
4.8252929336584
 20
-1.45196388888889
 30
0.0
 10
4.720523491860654
 20
-1.508940277777773
 30
0.0
 10
4.689727659305289
 20
-1.52568472222222
 30
0.0
 10
4.661115160028102
 20
-1.545849999999998
 30
0.0
 10
4.634259605150974
 20
-1.568198611111105
 30
0.0
 10
4.661084604473317
 20
-1.502870833333329
 30
0.0
 10
4.67235682641078
 20
-1.431316666666665
 30
0.0
 10
4.667670715418049
 20
-1.360208333333339
 30
0.0
 10
4.667670715418049
 20
-1.360208333333339
 30
0.0
 10
5.38020125297357
 20
-1.360208333333339
 30
0.0
 10
5.38020125297357
 20
-1.360208333333339
 30
0.0
 10
5.374752642000102
 20
-1.371961111111116
 30
0.0
 10
5.373423475367013
 20
-1.386118055555559
 30
0.0
 10
5.376027777777785
 20
-1.398968055555555
 30
0.0
 10
5.380370697413733
 20
-1.420391666666673
 30
0.0
 10
5.39316791931267
 20
-1.438990277777773
 30
0.0
 10
5.405670696774601
 20
-1.45691805555556
 30
0.0
 10
5.389702641622433
 20
-1.446376388888893
 30
0.0
 10
5.375081808658453
 20
-1.432897222222222
 30
0.0
 10
5.35913042017253
 20
-1.421240277777782
 30
0.0
 10
5.345434587185182
 20
-1.41123055555555
 30
0.0
 10
5.330519309784196
 20
-1.402461111111115
 30
0.0
 10
5.314099865754542
 20
-1.398188888888891
 30
0.0
 10
5.297684588391449
 20
-1.393916666666668
 30
0.0
 10
5.27955403329391
 20
-1.394486111111114
 30
0.0
 10
5.264542922562011
 20
-1.402386111111115
 30
0.0
 10
5.249535978496675
 20
-1.410287499999994
 30
0.0
 10
5.238341534335025
 20
-1.426230555555561
 30
0.0
 10
5.23860264543954
 20
-1.443191666666672
 30
0.0
 10
5.238806812101049
 20
-1.45630833333333
 30
0.0
 10
5.245572089707921
 20
-1.4686375
 30
0.0
 10
5.254608200590761
 20
-1.478151388888894
 30
0.0
 10
5.263637367029332
 20
-1.487666666666668
 30
0.0
 10
5.274858200079203
 20
-1.494770833333329
 30
0.0
 10
5.285952644243379
 20
-1.501772222222219
 30
0.0
 10
5.260209589338147
 20
-1.5002875
 30
0.0
 10
5.2352095899697
 20
-1.495638888888885
 30
0.0
 10
5.210320701709557
 20
-1.497641666666671
 30
0.0
 10
5.185427646782854
 20
-1.499645833333337
 30
0.0
 10
5.160502647412512
 20
-1.508825000000002
 30
0.0
 10
5.142873481191196
 20
-1.526515277777776
 30
0.0
 10
5.128963759320363
 20
-1.540481944444448
 30
0.0
 10
5.120344315093663
 20
-1.563390277777772
 30
0.0
 10
5.131224870374353
 20
-1.579822222222219
 30
0.0
 10
5.139024870177309
 20
-1.59160277777778
 30
0.0
 10
5.154042925353476
 20
-1.59604722222222
 30
0.0
 10
5.167995702778777
 20
-1.598208333333332
 30
0.0
 10
5.210916666666662
 20
-1.604868055555559
 30
0.0
 10
5.254652777777765
 20
-1.598065277777778
 30
0.0
 10
5.297549866172631
 20
-1.591276388888888
 30
0.0
 10
5.282510977663656
 20
-1.603551388888895
 30
0.0
 10
5.268266533579056
 20
-1.610706944444448
 30
0.0
 10
5.258567922712952
 20
-1.622648611111117
 30
0.0
 10
5.248870700735702
 20
-1.634591666666665
 30
0.0
 10
5.245038756388062
 20
-1.652766666666669
 30
0.0
 10
5.253848478387732
 20
-1.665380555555556
 30
0.0
 10
5.260752644879984
 20
-1.675265277777776
 30
0.0
 10
5.273349866783974
 20
-1.679337499999999
 30
0.0
 10
5.285260977594185
 20
-1.681229166666665
 30
0.0
 10
5.308197088125881
 20
-1.684877777777779
 30
0.0
 10
5.331987365302666
 20
-1.682588888888884
 30
0.0
 10
5.353915142526501
 20
-1.674950000000005
 30
0.0
 10
5.334367920798083
 20
-1.683395833333331
 30
0.0
 10
5.315765143490252
 20
-1.692452777777779
 30
0.0
 10
5.302055555555549
 20
-1.707529166666669
 30
0.0
 10
5.294779032909294
 20
-1.715527777777778
 30
0.0
 10
5.289629033039394
 20
-1.725794444444444
 30
0.0
 10
5.287126255324842
 20
-1.736445833333328
 30
0.0
 10
5.287126255324842
 20
-1.736445833333328
 30
0.0
 10
4.726226269494368
 20
-1.736445833333328
 30
0.0
 10
4.726226269494368
 20
-1.736445833333328
 30
0.0
  0
SPLINE
  5
67
330
41
100
AcDbEntity
  8
_U+2018_U+043B_U+043E_U+0439_1
370
     0
100
AcDbSpline
210
0.0
220
0.0
230
1.0
 70
    11
 71
     3
 72
    26
 73
    22
 74
     0
 42
0.0000000001
 43
0.0000000001
 12
1.0
 22
0.0
 32
0.0
 13
1.0
 23
0.0
 33
0.0
 40
0.0
 40
0.0
 40
0.0
 40
0.0
 40
1.0
 40
1.0
 40
1.0
 40
2.0
 40
2.0
 40
2.0
 40
3.0
 40
3.0
 40
3.0
 40
4.0
 40
4.0
 40
4.0
 40
5.0
 40
5.0
 40
5.0
 40
6.0
 40
6.0
 40
6.0
 40
7.0
 40
7.0
 40
7.0
 40
7.0
 10
4.037194444444443
 20
-1.736445833333328
 30
0.0
 10
4.037194444444443
 20
-1.736445833333328
 30
0.0
 10
4.086188785663075
 20
-1.360208333333339
 30
0.0
 10
4.086188785663075
 20
-1.360208333333339
 30
0.0
 10
4.086188785663075
 20
-1.360208333333339
 30
0.0
 10
4.334645723830969
 20
-1.360208333333339
 30
0.0
 10
4.334645723830969
 20
-1.360208333333339
 30
0.0
 10
4.314490168784586
 20
-1.424176388888883
 30
0.0
 10
4.306454057876484
 20
-1.491965277777783
 30
0.0
 10
4.318715168677853
 20
-1.557591666666667
 30
0.0
 10
4.326877668471651
 20
-1.601280555555554
 30
0.0
 10
4.344923501349109
 20
-1.643672222222222
 30
0.0
 10
4.371158222908585
 20
-1.679495833333337
 30
0.0
 10
4.30167905799711
 20
-1.639595833333336
 30
0.0
 10
4.218627671206276
 20
-1.622879166666672
 30
0.0
 10
4.139563784314709
 20
-1.636527777777777
 30
0.0
 10
4.159658228251525
 20
-1.67635694444444
 30
0.0
 10
4.189974894152328
 20
-1.710834722222216
 30
0.0
 10
4.226484615452238
 20
-1.736445833333328
 30
0.0
 10
4.226484615452238
 20
-1.736445833333328
 30
0.0
 10
4.037194444444443
 20
-1.736445833333328
 30
0.0
 10
4.037194444444443
 20
-1.736445833333328
 30
0.0
  0
SPLINE
  5
68
330
41
100
AcDbEntity
  8
_U+2018_U+043B_U+043E_U+0439_1
370
     0
100
AcDbSpline
210
0.0
220
0.0
230
1.0
 70
    11
 71
     3
 72
    26
 73
    22
 74
     0
 42
0.0000000001
 43
0.0000000001
 12
1.0
 22
0.0
 32
0.0
 13
1.0
 23
0.0
 33
0.0
 40
0.0
 40
0.0
 40
0.0
 40
0.0
 40
1.0
 40
1.0
 40
1.0
 40
2.0
 40
2.0
 40
2.0
 40
3.0
 40
3.0
 40
3.0
 40
4.0
 40
4.0
 40
4.0
 40
5.0
 40
5.0
 40
5.0
 40
6.0
 40
6.0
 40
6.0
 40
7.0
 40
7.0
 40
7.0
 40
7.0
 10
5.351826253690382
 20
-3.221623611111113
 30
0.0
 10
5.344166666666675
 20
-3.16526111111111
 30
0.0
 10
5.337409587387911
 20
-3.108190277777781
 30
0.0
 10
5.334716531900388
 20
-3.052248611111117
 30
0.0
 10
5.342105420602618
 20
-3.021765277777781
 30
0.0
 10
5.354698475840046
 20
-2.991769444444445
 30
0.0
 10
5.366879031087895
 20
-2.96274722222222
 30
0.0
 10
5.370516530996004
 20
-2.954069444444447
 30
0.0
 10
5.374141530904429
 20
-2.94545
 30
0.0
 10
5.377606808594666
 20
-2.936858333333336
 30
0.0
 10
5.377606808594666
 20
-2.936858333333336
 30
0.0
 10
5.384240141760428
 20
-2.920398611111106
 30
0.0
 10
5.384240141760428
 20
-2.920398611111106
 30
0.0
 10
5.405730418995315
 20
-2.867026388888891
 30
0.0
 10
5.427958333333335
 20
-2.811837499999999
 30
0.0
 10
5.453304028904616
 20
-2.759218055555556
 30
0.0
 10
5.471685972884694
 20
-2.721058333333329
 30
0.0
 10
5.493770694549008
 20
-2.684355555555562
 30
0.0
 10
5.51614986065033
 20
-2.64865
 30
0.0
 10
5.44553319576759
 20
-2.881248611111106
 30
0.0
 10
5.390594308266574
 20
-3.072813888888883
 30
0.0
 10
5.351826253690382
 20
-3.221623611111113
 30
0.0
  0
SPLINE
  5
69
330
41
100
AcDbEntity
  8
_U+2018_U+043B_U+043E_U+0439_1
370
     0
100
AcDbSpline
210
0.0
220
0.0
230
1.0
 70
    11
 71
     3
 72
    32
 73
    28
 74
     0
 42
0.0000000001
 43
0.0000000001
 12
1.0
 22
0.0
 32
0.0
 13
1.0
 23
0.0
 33
0.0
 40
0.0
 40
0.0
 40
0.0
 40
0.0
 40
1.0
 40
1.0
 40
1.0
 40
2.0
 40
2.0
 40
2.0
 40
3.0
 40
3.0
 40
3.0
 40
4.0
 40
4.0
 40
4.0
 40
5.0
 40
5.0
 40
5.0
 40
6.0
 40
6.0
 40
6.0
 40
7.0
 40
7.0
 40
7.0
 40
8.0
 40
8.0
 40
8.0
 40
9.0
 40
9.0
 40
9.0
 40
9.0
 10
5.29105958855881
 20
-3.017397222222219
 30
0.0
 10
5.292236111111101
 20
-3.023513888888892
 30
0.0
 10
5.293520699607749
 20
-3.029638888888889
 30
0.0
 10
5.294833333333322
 20
-3.034575000000005
 30
0.0
 10
5.295037366236102
 20
-3.039223611111109
 30
0.0
 10
5.295260977341564
 20
-3.043852777777778
 30
0.0
 10
5.295501255113272
 20
-3.048468055555557
 30
0.0
 10
5.289838755256318
 20
-3.034534722222222
 30
0.0
 10
5.283559588748276
 20
-3.021622222222226
 30
0.0
 10
5.276591533368749
 20
-3.009540277777774
 30
0.0
 10
5.263559589253519
 20
-2.986933333333329
 30
0.0
 10
5.248376256303749
 20
-2.96554166666667
 30
0.0
 10
5.232591534480282
 20
-2.944765277777782
 30
0.0
 10
5.252797089525402
 20
-2.905681944444445
 30
0.0
 10
5.272830422352651
 20
-2.867
 30
0.0
 10
5.292581810742578
 20
-2.828977777777772
 30
0.0
 10
5.291381810772893
 20
-2.836813888888893
 30
0.0
 10
5.290361111111123
 20
-2.844712500000001
 30
0.0
 10
5.289655421927616
 20
-2.852687500000002
 30
0.0
 10
5.288824866393043
 20
-2.862066666666667
 30
0.0
 10
5.286801255333052
 20
-2.871333333333332
 30
0.0
 10
5.284854033160021
 20
-2.880308333333333
 30
0.0
 10
5.281915144345374
 20
-2.893804166666667
 30
0.0
 10
5.278883199977523
 20
-2.907770833333327
 30
0.0
 10
5.279601255514939
 20
-2.922826388888893
 30
0.0
 10
5.281087366588508
 20
-2.953838888888893
 30
0.0
 10
5.284942922046664
 20
-2.985655555555556
 30
0.0
 10
5.29105958855881
 20
-3.017397222222219
 30
0.0
  0
SPLINE
  5
6A
330
41
100
AcDbEntity
  8
_U+2018_U+043B_U+043E_U+0439_1
370
     0
100
AcDbSpline
210
0.0
220
0.0
230
1.0
 70
    11
 71
     3
 72
   125
 73
   121
 74
     0
 42
0.0000000001
 43
0.0000000001
 12
1.0
 22
0.0
 32
0.0
 13
1.0
 23
0.0
 33
0.0
 40
0.0
 40
0.0
 40
0.0
 40
0.0
 40
1.0
 40
1.0
 40
1.0
 40
2.0
 40
2.0
 40
2.0
 40
3.0
 40
3.0
 40
3.0
 40
4.0
 40
4.0
 40
4.0
 40
5.0
 40
5.0
 40
5.0
 40
6.0
 40
6.0
 40
6.0
 40
7.0
 40
7.0
 40
7.0
 40
8.0
 40
8.0
 40
8.0
 40
9.0
 40
9.0
 40
9.0
 40
10.0
 40
10.0
 40
10.0
 40
11.0
 40
11.0
 40
11.0
 40
12.0
 40
12.0
 40
12.0
 40
13.0
 40
13.0
 40
13.0
 40
14.0
 40
14.0
 40
14.0
 40
15.0
 40
15.0
 40
15.0
 40
16.0
 40
16.0
 40
16.0
 40
17.0
 40
17.0
 40
17.0
 40
18.0
 40
18.0
 40
18.0
 40
19.0
 40
19.0
 40
19.0
 40
20.0
 40
20.0
 40
20.0
 40
21.0
 40
21.0
 40
21.0
 40
22.0
 40
22.0
 40
22.0
 40
23.0
 40
23.0
 40
23.0
 40
24.0
 40
24.0
 40
24.0
 40
25.0
 40
25.0
 40
25.0
 40
26.0
 40
26.0
 40
26.0
 40
27.0
 40
27.0
 40
27.0
 40
28.0
 40
28.0
 40
28.0
 40
29.0
 40
29.0
 40
29.0
 40
30.0
 40
30.0
 40
30.0
 40
31.0
 40
31.0
 40
31.0
 40
32.0
 40
32.0
 40
32.0
 40
33.0
 40
33.0
 40
33.0
 40
34.0
 40
34.0
 40
34.0
 40
35.0
 40
35.0
 40
35.0
 40
36.0
 40
36.0
 40
36.0
 40
37.0
 40
37.0
 40
37.0
 40
38.0
 40
38.0
 40
38.0
 40
39.0
 40
39.0
 40
39.0
 40
40.0
 40
40.0
 40
40.0
 40
40.0
 10
5.106095704342502
 20
-3.190519444444438
 30
0.0
 10
5.128519314887146
 20
-3.146754166666672
 30
0.0
 10
5.150637369883952
 20
-3.103725000000003
 30
0.0
 10
5.172606813773402
 20
-3.061044444444443
 30
0.0
 10
5.22355820137515
 20
-3.132997222222217
 30
0.0
 10
5.273969311212769
 20
-3.21417083333333
 30
0.0
 10
5.326581809883666
 20
-3.309122222222224
 30
0.0
 10
5.326962365429608
 20
-3.311743055555553
 30
0.0
 10
5.327341532086696
 20
-3.314554166666666
 30
0.0
 10
5.327720698743784
 20
-3.317208333333332
 30
0.0
 10
5.322930555555558
 20
-3.336959722222218
 30
0.0
 10
5.318484587865997
 20
-3.355790277777777
 30
0.0
 10
5.314456810189969
 20
-3.373520833333335
 30
0.0
 10
5.314456810189969
 20
-3.373520833333335
 30
0.0
 10
5.314384587969571
 20
-3.373849999999998
 30
0.0
 10
5.314384587969571
 20
-3.373849999999998
 30
0.0
 10
5.314384587969571
 20
-3.373849999999998
 30
0.0
 10
5.314313754638028
 20
-3.374181944444445
 30
0.0
 10
5.314313754638028
 20
-3.374181944444445
 30
0.0
 10
5.31269292134564
 20
-3.381580555555552
 30
0.0
 10
5.310994310277439
 20
-3.389108333333335
 30
0.0
 10
5.309366532540783
 20
-3.39652777777778
 30
0.0
 10
5.307117921486476
 20
-3.392336111111111
 30
0.0
 10
5.304948477096837
 20
-3.388138888888887
 30
0.0
 10
5.302605421600472
 20
-3.383968055555556
 30
0.0
 10
5.258395700495081
 20
-3.305259722222218
 30
0.0
 10
5.197627646474656
 20
-3.237158333333329
 30
0.0
 10
5.138865147959121
 20
-3.171297222222228
 30
0.0
 10
5.138865147959121
 20
-3.171297222222228
 30
0.0
 10
5.133854036974602
 20
-3.165681944444448
 30
0.0
 10
5.133854036974602
 20
-3.165681944444448
 30
0.0
 10
5.133854036974602
 20
-3.165681944444448
 30
0.0
 10
5.129241537091123
 20
-3.171609722222229
 30
0.0
 10
5.129241537091123
 20
-3.171609722222229
 30
0.0
 10
5.104284593277144
 20
-3.203683333333338
 30
0.0
 10
5.094730426851836
 20
-3.24900138888889
 30
0.0
 10
5.103027777777773
 20
-3.29595138888889
 30
0.0
 10
5.103799871067167
 20
-3.300312500000005
 30
0.0
 10
5.104709593266407
 20
-3.304622222222216
 30
0.0
 10
5.105740148795929
 20
-3.308884722222223
 30
0.0
 10
5.115851259651612
 20
-3.350686111111107
 30
0.0
 10
5.137620703546114
 20
-3.387649999999995
 30
0.0
 10
5.153767925360423
 20
-3.412647222222227
 30
0.0
 10
5.186933202300375
 20
-3.463987500000005
 30
0.0
 10
5.223123479163911
 20
-3.505448611111117
 30
0.0
 10
5.271117922395913
 20
-3.547066666666662
 30
0.0
 10
5.272487366805763
 20
-3.548254166666664
 30
0.0
 10
5.273719311219085
 20
-3.549579166666667
 30
0.0
 10
5.275048477852175
 20
-3.550806944444439
 30
0.0
 10
5.266245700296773
 20
-3.589934722222223
 30
0.0
 10
5.257415144964297
 20
-3.629101388888885
 30
0.0
 10
5.248491534078615
 20
-3.668069444444439
 30
0.0
 10
5.240634589832653
 20
-3.702215277777782
 30
0.0
 10
5.232551256703522
 20
-3.73552361111111
 30
0.0
 10
5.224280423579128
 20
-3.76790972222222
 30
0.0
 10
5.16991792495244
 20
-3.768869444444438
 30
0.0
 10
5.115884592984103
 20
-3.788854166666662
 30
0.0
 10
5.074758205134154
 20
-3.824509722222223
 30
0.0
 10
5.05730126113071
 20
-3.83964305555556
 30
0.0
 10
5.042388888888884
 20
-3.85755277777778
 30
0.0
 10
5.030195706259898
 20
-3.877169444444449
 30
0.0
 10
5.027794317431673
 20
-3.87895555555556
 30
0.0
 10
5.025679039707332
 20
-3.881187499999997
 30
0.0
 10
5.024192928633763
 20
-3.884008333333339
 30
0.0
 10
5.021073484268123
 20
-3.890312499999999
 30
0.0
 10
5.018151262119722
 20
-3.896709722222226
 30
0.0
 10
5.015227651082467
 20
-3.903102777777778
 30
0.0
 10
5.01256944444444
 20
-3.908923611111113
 30
0.0
 10
5.009910984550111
 20
-3.914738888888893
 30
0.0
 10
5.007092929065745
 20
-3.920480555555552
 30
0.0
 10
5.007092929065745
 20
-3.920480555555552
 30
0.0
 10
5.006638888888889
 20
-3.921405555555553
 30
0.0
 10
5.006638888888889
 20
-3.921405555555553
 30
0.0
 10
5.006638888888889
 20
-3.921405555555553
 30
0.0
 10
5.006306817974493
 20
-3.922381944444446
 30
0.0
 10
5.006306817974493
 20
-3.922381944444446
 30
0.0
 10
5.005954040205627
 20
-3.923426388888894
 30
0.0
 10
5.005326262443709
 20
-3.924712500000004
 30
0.0
 10
5.004672095793567
 20
-3.926136111111115
 30
0.0
 10
5.002224873633168
 20
-3.931487500000003
 30
0.0
 10
4.998680555555552
 20
-3.939231944444448
 30
0.0
 10
4.998765151498345
 20
-3.947258333333328
 30
0.0
 10
4.991159596134922
 20
-3.957959722222224
 30
0.0
 10
4.984116540757289
 20
-3.968934722222217
 30
0.0
 10
4.97767765203106
 20
-3.980122222222222
 30
0.0
 10
4.979272096435225
 20
-3.943208333333334
 30
0.0
 10
4.982113763030106
 20
-3.907059722222218
 30
0.0
 10
4.986158207372378
 20
-3.872093055555549
 30
0.0
 10
4.98648737403073
 20
-3.869675000000004
 30
0.0
 10
4.986891540687187
 20
-3.867176388888891
 30
0.0
 10
4.98724709623376
 20
-3.864727777777779
 30
0.0
 10
5.034369317265575
 20
-3.832518055555561
 30
0.0
 10
5.070295705246886
 20
-3.783918055555558
 30
0.0
 10
5.086029038182763
 20
-3.728988888888883
 30
0.0
 10
5.104719315488384
 20
-3.663729166666662
 30
0.0
 10
5.094838760182433
 20
-3.590822222222224
 30
0.0
 10
5.059448483298689
 20
-3.532893055555557
 30
0.0
 10
4.997799873744952
 20
-3.566544444444439
 30
0.0
 10
4.950106819394224
 20
-3.624918055555554
 30
0.0
 10
4.929419319916835
 20
-3.692038888888886
 30
0.0
 10
4.912074875910548
 20
-3.748313888888889
 30
0.0
 10
4.913984598084526
 20
-3.810124999999996
 30
0.0
 10
4.941172097397712
 20
-3.85636666666667
 30
0.0
 10
4.939652777777774
 20
-3.865223611111105
 30
0.0
 10
4.938283208581803
 20
-3.87395138888889
 30
0.0
 10
4.937123486388878
 20
-3.882505555555554
 30
0.0
 10
4.929656819910835
 20
-3.932504166666667
 30
0.0
 10
4.927158208862844
 20
-3.98195555555555
 30
0.0
 10
4.926744319984411
 20
-4.02776944444444
 30
0.0
 10
4.920712375692347
 20
-4.015576388888891
 30
0.0
 10
4.914092931415123
 20
-4.003056944444451
 30
0.0
 10
4.906849876042543
 20
-3.99012777777778
 30
0.0
 10
4.918216542422063
 20
-3.92896388888889
 30
0.0
 10
4.90578598718053
 20
-3.863391666666669
 30
0.0
 10
4.871391543604962
 20
-3.811444444444444
 30
0.0
 10
4.858720710591721
 20
-3.792302777777776
 30
0.0
 10
4.8431901554285
 20
-3.775152777777773
 30
0.0
 10
4.825591544761967
 20
-3.760450000000004
 30
0.0
 10
4.901554042842993
 20
-3.602579166666664
 30
0.0
 10
4.995692929353734
 20
-3.411294444444441
 30
0.0
 10
5.106095704342502
 20
-3.190519444444438
 30
0.0
  0
SPLINE
  5
6B
330
41
100
AcDbEntity
  8
_U+2018_U+043B_U+043E_U+0439_1
370
     0
100
AcDbSpline
210
0.0
220
0.0
230
1.0
 70
    11
 71
     3
 72
    26
 73
    22
 74
     0
 42
0.0000000001
 43
0.0000000001
 12
1.0
 22
0.0
 32
0.0
 13
1.0
 23
0.0
 33
0.0
 40
0.0
 40
0.0
 40
0.0
 40
0.0
 40
1.0
 40
1.0
 40
1.0
 40
2.0
 40
2.0
 40
2.0
 40
3.0
 40
3.0
 40
3.0
 40
4.0
 40
4.0
 40
4.0
 40
5.0
 40
5.0
 40
5.0
 40
6.0
 40
6.0
 40
6.0
 40
7.0
 40
7.0
 40
7.0
 40
7.0
 10
5.021141539821959
 20
-4.393166666666667
 30
0.0
 10
5.020687373166766
 20
-4.387337499999995
 30
0.0
 10
5.020412373173713
 20
-4.382608333333337
 30
0.0
 10
5.020202650956788
 20
-4.378336111111113
 30
0.0
 10
5.02369153975754
 20
-4.328758333333338
 30
0.0
 10
5.042205428178729
 20
-4.281469444444446
 30
0.0
 10
5.065327649816835
 20
-4.236818055555558
 30
0.0
 10
5.080865149424325
 20
-4.229602777777775
 30
0.0
 10
5.095349871280632
 20
-4.221787500000005
 30
0.0
 10
5.109104037599839
 20
-4.213537500000004
 30
0.0
 10
5.103185982193787
 20
-4.248551388888889
 30
0.0
 10
5.098598482309677
 20
-4.282140277777772
 30
0.0
 10
5.095726260160013
 20
-4.313825000000002
 30
0.0
 10
5.091094315832581
 20
-4.364704166666671
 30
0.0
 10
5.08893181588721
 20
-4.407530555555556
 30
0.0
 10
5.08929709365576
 20
-4.443663888888889
 30
0.0
 10
5.08929709365576
 20
-4.443663888888889
 30
0.0
 10
5.030840150688062
 20
-4.443663888888889
 30
0.0
 10
5.030840150688062
 20
-4.443663888888889
 30
0.0
 10
5.025702650817847
 20
-4.425004166666668
 30
0.0
 10
5.021826262026884
 20
-4.405808333333336
 30
0.0
 10
5.021141539821959
 20
-4.393166666666667
 30
0.0
  0
SPLINE
  5
6C
330
41
100
AcDbEntity
  8
_U+2018_U+043B_U+043E_U+0439_1
370
     0
100
AcDbSpline
210
0.0
220
0.0
230
1.0
 70
    11
 71
     3
 72
    29
 73
    25
 74
     0
 42
0.0000000001
 43
0.0000000001
 12
1.0
 22
0.0
 32
0.0
 13
1.0
 23
0.0
 33
0.0
 40
0.0
 40
0.0
 40
0.0
 40
0.0
 40
1.0
 40
1.0
 40
1.0
 40
2.0
 40
2.0
 40
2.0
 40
3.0
 40
3.0
 40
3.0
 40
4.0
 40
4.0
 40
4.0
 40
5.0
 40
5.0
 40
5.0
 40
6.0
 40
6.0
 40
6.0
 40
7.0
 40
7.0
 40
7.0
 40
8.0
 40
8.0
 40
8.0
 40
8.0
 10
5.096010982375042
 20
-4.030286111111106
 30
0.0
 10
5.060760983265532
 20
-4.079981944444449
 30
0.0
 10
5.039092928257357
 20
-4.138999999999998
 30
0.0
 10
5.032842928415246
 20
-4.199587499999994
 30
0.0
 10
5.017547095468317
 20
-4.225533333333336
 30
0.0
 10
5.00342765138056
 20
-4.252243055555557
 30
0.0
 10
4.992679040540982
 20
-4.279726388888889
 30
0.0
 10
4.983791666666662
 20
-4.221237500000004
 30
0.0
 10
4.978444444444449
 20
-4.159643055555559
 30
0.0
 10
4.976729040943913
 20
-4.095773611111111
 30
0.0
 10
4.986510985141245
 20
-4.058609722222223
 30
0.0
 10
5.002430555555557
 20
-4.02235138888889
 30
0.0
 10
5.022912373110557
 20
-3.989002777777778
 30
0.0
 10
5.090887371393364
 20
-3.972075000000005
 30
0.0
 10
5.149423481025729
 20
-3.935331944444442
 30
0.0
 10
5.19184014662086
 20
-3.886690277777777
 30
0.0
 10
5.18772348005819
 20
-3.900783333333329
 30
0.0
 10
5.183587369051565
 20
-3.914715277777784
 30
0.0
 10
5.179412369157035
 20
-3.928293055555552
 30
0.0
 10
5.176852646999476
 20
-3.936512499999998
 30
0.0
 10
5.174549869279872
 20
-3.944487499999998
 30
0.0
 10
5.17209848045291
 20
-3.95260138888889
 30
0.0
 10
5.143001258965746
 20
-3.974483333333334
 30
0.0
 10
5.117074870731813
 20
-4.000586111111109
 30
0.0
 10
5.096010982375042
 20
-4.030286111111106
 30
0.0
  0
SPLINE
  5
6D
330
41
100
AcDbEntity
  8
_U+2018_U+043B_U+043E_U+0439_1
370
     0
100
AcDbSpline
210
0.0
220
0.0
230
1.0
 70
    11
 71
     3
 72
    32
 73
    28
 74
     0
 42
0.0000000001
 43
0.0000000001
 12
1.0
 22
0.0
 32
0.0
 13
1.0
 23
0.0
 33
0.0
 40
0.0
 40
0.0
 40
0.0
 40
0.0
 40
1.0
 40
1.0
 40
1.0
 40
2.0
 40
2.0
 40
2.0
 40
3.0
 40
3.0
 40
3.0
 40
4.0
 40
4.0
 40
4.0
 40
5.0
 40
5.0
 40
5.0
 40
6.0
 40
6.0
 40
6.0
 40
7.0
 40
7.0
 40
7.0
 40
8.0
 40
8.0
 40
8.0
 40
9.0
 40
9.0
 40
9.0
 40
9.0
 10
4.745601269004914
 20
-3.928130555555551
 30
0.0
 10
4.776133212678056
 20
-3.965836111111116
 30
0.0
 10
4.817223489417807
 20
-3.995679166666668
 30
0.0
 10
4.868045710356151
 20
-4.013334722222226
 30
0.0
 10
4.881408210018586
 20
-4.038061111111107
 30
0.0
 10
4.894520709687336
 20
-4.064361111111111
 30
0.0
 10
4.904713764985394
 20
-4.090761111111116
 30
0.0
 10
4.915215153608996
 20
-4.116287499999999
 30
0.0
 10
4.924916666666667
 20
-4.149470833333339
 30
0.0
 10
4.93137904208955
 20
-4.181948611111112
 30
0.0
 10
4.933105430934827
 20
-4.204751388888894
 30
0.0
 10
4.935384597543917
 20
-4.227476388888893
 30
0.0
 10
4.938201264139429
 20
-4.249988888888891
 30
0.0
 10
4.93724848638572
 20
-4.248713888888889
 30
0.0
 10
4.936285986410035
 20
-4.247452777777779
 30
0.0
 10
4.935319444444442
 20
-4.246197222222223
 30
0.0
 10
4.935154041994186
 20
-4.245987500000006
 30
0.0
 10
4.934963764221215
 20
-4.245773611111114
 30
0.0
 10
4.934797097558758
 20
-4.245563888888884
 30
0.0
 10
4.925147097802538
 20
-4.165813888888894
 30
0.0
 10
4.882899876647571
 20
-4.090052777777777
 30
0.0
 10
4.818894322708931
 20
-4.041286111111112
 30
0.0
 10
4.788248490149777
 20
-4.017940277777774
 30
0.0
 10
4.752926268819869
 20
-4.001137500000001
 30
0.0
 10
4.715741547537012
 20
-3.99114166666666
 30
0.0
 10
4.725155436188086
 20
-3.971241666666666
 30
0.0
 10
4.735104047047874
 20
-3.950244444444441
 30
0.0
 10
4.745601269004914
 20
-3.928130555555551
 30
0.0
  0
SPLINE
  5
6E
330
41
100
AcDbEntity
  8
_U+2018_U+043B_U+043E_U+0439_1
370
     0
100
AcDbSpline
210
0.0
220
0.0
230
1.0
 70
    11
 71
     3
 72
    35
 73
    31
 74
     0
 42
0.0000000001
 43
0.0000000001
 12
1.0
 22
0.0
 32
0.0
 13
1.0
 23
0.0
 33
0.0
 40
0.0
 40
0.0
 40
0.0
 40
0.0
 40
1.0
 40
1.0
 40
1.0
 40
2.0
 40
2.0
 40
2.0
 40
3.0
 40
3.0
 40
3.0
 40
4.0
 40
4.0
 40
4.0
 40
5.0
 40
5.0
 40
5.0
 40
6.0
 40
6.0
 40
6.0
 40
7.0
 40
7.0
 40
7.0
 40
8.0
 40
8.0
 40
8.0
 40
9.0
 40
9.0
 40
9.0
 40
10.0
 40
10.0
 40
10.0
 40
10.0
 10
4.620833333333331
 20
-4.19406666666666
 30
0.0
 10
4.620833333333331
 20
-4.19406666666666
 30
0.0
 10
4.621320716588949
 20
-4.193066666666671
 30
0.0
 10
4.621320716588949
 20
-4.193066666666671
 30
0.0
 10
4.621320716588949
 20
-4.193066666666671
 30
0.0
 10
4.621788772132681
 20
-4.192059722222224
 30
0.0
 10
4.621788772132681
 20
-4.192059722222224
 30
0.0
 10
4.626267938686194
 20
-4.182266666666666
 30
0.0
 10
4.631198494117194
 20
-4.171562499999999
 30
0.0
 10
4.63651516064955
 20
-4.160073611111114
 30
0.0
 10
4.651197104723097
 20
-4.176394444444441
 30
0.0
 10
4.667306826538353
 20
-4.191418055555561
 30
0.0
 10
4.684770714986067
 20
-4.204748611111111
 30
0.0
 10
4.74524571345834
 20
-4.25091111111111
 30
0.0
 10
4.820810989327179
 20
-4.276800000000005
 30
0.0
 10
4.905527777777782
 20
-4.284473611111113
 30
0.0
 10
4.923559597842641
 20
-4.309830555555562
 30
0.0
 10
4.938772097458341
 20
-4.336031944444446
 30
0.0
 10
4.951767930463372
 20
-4.36434166666667
 30
0.0
 10
4.953992930407164
 20
-4.368938888888894
 30
0.0
 10
4.956013888888884
 20
-4.373184722222226
 30
0.0
 10
4.957923485863426
 20
-4.377301388888883
 30
0.0
 10
4.96196098576143
 20
-4.395754166666671
 30
0.0
 10
4.967519318954348
 20
-4.418045833333331
 30
0.0
 10
4.974463763223361
 20
-4.443663888888889
 30
0.0
 10
4.974463763223361
 20
-4.443663888888889
 30
0.0
 10
4.513363774871727
 20
-4.443663888888889
 30
0.0
 10
4.513363774871727
 20
-4.443663888888889
 30
0.0
 10
4.539354051992935
 20
-4.370594444444452
 30
0.0
 10
4.5752998844182
 20
-4.28708055555555
 30
0.0
 10
4.620833333333331
 20
-4.19406666666666
 30
0.0
  0
SPLINE
  5
6F
330
41
100
AcDbEntity
  8
_U+2018_U+043B_U+043E_U+0439_1
370
     0
100
AcDbSpline
210
0.0
220
0.0
230
1.0
 70
    11
 71
     3
 72
    44
 73
    40
 74
     0
 42
0.0000000001
 43
0.0000000001
 12
1.0
 22
0.0
 32
0.0
 13
1.0
 23
0.0
 33
0.0
 40
0.0
 40
0.0
 40
0.0
 40
0.0
 40
1.0
 40
1.0
 40
1.0
 40
2.0
 40
2.0
 40
2.0
 40
3.0
 40
3.0
 40
3.0
 40
4.0
 40
4.0
 40
4.0
 40
5.0
 40
5.0
 40
5.0
 40
6.0
 40
6.0
 40
6.0
 40
7.0
 40
7.0
 40
7.0
 40
8.0
 40
8.0
 40
8.0
 40
9.0
 40
9.0
 40
9.0
 40
10.0
 40
10.0
 40
10.0
 40
11.0
 40
11.0
 40
11.0
 40
12.0
 40
12.0
 40
12.0
 40
13.0
 40
13.0
 40
13.0
 40
13.0
 10
5.613637358187589
 20
-2.333179166666671
 30
0.0
 10
5.613637358187589
 20
-2.333179166666671
 30
0.0
 10
5.613505413746477
 20
-2.333576388888888
 30
0.0
 10
5.613505413746477
 20
-2.333576388888888
 30
0.0
 10
5.613505413746477
 20
-2.333576388888888
 30
0.0
 10
5.613379024860781
 20
-2.333976388888888
 30
0.0
 10
5.613379024860781
 20
-2.333976388888888
 30
0.0
 10
5.586042914440238
 20
-2.421104166666661
 30
0.0
 10
5.560384581755089
 20
-2.503861111111114
 30
0.0
 10
5.53636652680628
 20
-2.582322222222223
 30
0.0
 10
5.532995693558101
 20
-2.583033333333333
 30
0.0
 10
5.529466526980589
 20
-2.583674999999996
 30
0.0
 10
5.527299860368657
 20
-2.584061111111105
 30
0.0
 10
5.52367763823794
 20
-2.584712499999998
 30
0.0
 10
5.520656804980919
 20
-2.585291666666661
 30
0.0
 10
5.519212360572965
 20
-2.585715277777783
 30
0.0
 10
5.519212360572965
 20
-2.585715277777783
 30
0.0
 10
5.519202638350988
 20
-2.585719444444445
 30
0.0
 10
5.519202638350988
 20
-2.585719444444445
 30
0.0
 10
5.509077638606767
 20
-2.58870694444445
 30
0.0
 10
5.49887347219788
 20
-2.592083333333335
 30
0.0
 10
5.488861111111115
 20
-2.595752777777774
 30
0.0
 10
5.468279028526315
 20
-2.603325000000003
 30
0.0
 10
5.44794014015123
 20
-2.612375000000005
 30
0.0
 10
5.428419307311034
 20
-2.622676388888888
 30
0.0
 10
5.425500000000006
 20
-2.624215277777782
 30
0.0
 10
5.422430555555567
 20
-2.625788888888893
 30
0.0
 10
5.419287363097283
 20
-2.627393055555558
 30
0.0
 10
5.40920958557409
 20
-2.632556944444445
 30
0.0
 10
5.398379030292138
 20
-2.638266666666671
 30
0.0
 10
5.388617919427613
 20
-2.644848611111115
 30
0.0
 10
5.419094307546604
 20
-2.586669444444447
 30
0.0
 10
5.448927640126284
 20
-2.529966666666673
 30
0.0
 10
5.478013888888881
 20
-2.47494027777778
 30
0.0
 10
5.561204026178832
 20
-2.317511111111116
 30
0.0
 10
5.640173468628341
 20
-2.167004166666667
 30
0.0
 10
5.713830411212054
 20
-2.025501388888895
 30
0.0
 10
5.681935967573332
 20
-2.123076388888888
 30
0.0
 10
5.648474857307519
 20
-2.225824999999999
 30
0.0
 10
5.613637358187589
 20
-2.333179166666671
 30
0.0
  0
SPLINE
  5
70
330
41
100
AcDbEntity
  8
_U+2018_U+043B_U+043E_U+0439_1
370
     0
100
AcDbSpline
210
0.0
220
0.0
230
1.0
 70
    11
 71
     3
 72
    26
 73
    22
 74
     0
 42
0.0000000001
 43
0.0000000001
 12
1.0
 22
0.0
 32
0.0
 13
1.0
 23
0.0
 33
0.0
 40
0.0
 40
0.0
 40
0.0
 40
0.0
 40
1.0
 40
1.0
 40
1.0
 40
2.0
 40
2.0
 40
2.0
 40
3.0
 40
3.0
 40
3.0
 40
4.0
 40
4.0
 40
4.0
 40
5.0
 40
5.0
 40
5.0
 40
6.0
 40
6.0
 40
6.0
 40
7.0
 40
7.0
 40
7.0
 40
7.0
 10
5.867963740651652
 20
-1.561508333333336
 30
0.0
 10
5.855554018742926
 20
-1.561938888888891
 30
0.0
 10
5.843244296831673
 20
-1.565879166666668
 30
0.0
 10
5.83318055555555
 20
-1.57316944444445
 30
0.0
 10
5.816515130840243
 20
-1.585227777777782
 30
0.0
 10
5.806487353315788
 20
-1.60592916666667
 30
0.0
 10
5.807345686627437
 20
-1.626477777777773
 30
0.0
 10
5.802083333333333
 20
-1.562543055555554
 30
0.0
 10
5.787580409348973
 20
-1.498377777777781
 30
0.0
 10
5.762004021106198
 20
-1.438954166666665
 30
0.0
 10
5.749972222222216
 20
-1.410999999999995
 30
0.0
 10
5.735212355116346
 20
-1.383669444444447
 30
0.0
 10
5.713769300102487
 20
-1.362076388888883
 30
0.0
 10
5.713124999999991
 20
-1.361429166666666
 30
0.0
 10
5.71241513347003
 20
-1.360841666666665
 30
0.0
 10
5.711760966819889
 20
-1.360208333333339
 30
0.0
 10
5.711760966819889
 20
-1.360208333333339
 30
0.0
 10
5.943383183190841
 20
-1.360208333333339
 30
0.0
 10
5.943383183190841
 20
-1.360208333333339
 30
0.0
 10
5.918826239366758
 20
-1.421483333333337
 30
0.0
 10
5.893642906669609
 20
-1.488699999999994
 30
0.0
 10
5.867963740651652
 20
-1.561508333333336
 30
0.0
  0
HATCH
  5
71
330
41
100
AcDbEntity
  8
_U+2018_U+043B_U+043E_U+0439_1
 62
     7
420
 16777215
100
AcDbHatch
 10
0.0
 20
0.0
 30
0.0
210
0.0
220
0.0
230
1.0
  2
SOLID
 70
     1
 71
     0
 91
       14
 92
        1
 93
        1
 72
     4
 94
        3
 73
     0
 74
     1
 95
      107
 96
      103
 40
0.0
 40
0.0
 40
0.0
 40
0.0
 40
1.0
 40
1.0
 40
1.0
 40
2.0
 40
2.0
 40
2.0
 40
3.0
 40
3.0
 40
3.0
 40
4.0
 40
4.0
 40
4.0
 40
5.0
 40
5.0
 40
5.0
 40
6.0
 40
6.0
 40
6.0
 40
7.0
 40
7.0
 40
7.0
 40
8.0
 40
8.0
 40
8.0
 40
9.0
 40
9.0
 40
9.0
 40
10.0
 40
10.0
 40
10.0
 40
11.0
 40
11.0
 40
11.0
 40
12.0
 40
12.0
 40
12.0
 40
13.0
 40
13.0
 40
13.0
 40
14.0
 40
14.0
 40
14.0
 40
15.0
 40
15.0
 40
15.0
 40
16.0
 40
16.0
 40
16.0
 40
17.0
 40
17.0
 40
17.0
 40
18.0
 40
18.0
 40
18.0
 40
19.0
 40
19.0
 40
19.0
 40
20.0
 40
20.0
 40
20.0
 40
21.0
 40
21.0
 40
21.0
 40
22.0
 40
22.0
 40
22.0
 40
23.0
 40
23.0
 40
23.0
 40
24.0
 40
24.0
 40
24.0
 40
25.0
 40
25.0
 40
25.0
 40
26.0
 40
26.0
 40
26.0
 40
27.0
 40
27.0
 40
27.0
 40
28.0
 40
28.0
 40
28.0
 40
29.0
 40
29.0
 40
29.0
 40
30.0
 40
30.0
 40
30.0
 40
31.0
 40
31.0
 40
31.0
 40
32.0
 40
32.0
 40
32.0
 40
33.0
 40
33.0
 40
33.0
 40
34.0
 40
34.0
 40
34.0
 40
34.0
 10
6.072201235492179
 20
-1.189333333333328
 10
6.072201235492179
 20
-1.189333333333328
 10
4.011155454225243
 20
-1.189333333333328
 10
4.011155454225243
 20
-1.189333333333328
 10
4.011155454225243
 20
-1.189333333333328
 10
3.936126289453973
 20
-1.189333333333328
 10
3.936126289453973
 20
-1.189333333333328
 10
3.936126289453973
 20
-1.189333333333328
 10
3.926436011920992
 20
-1.263741666666672
 10
3.926436011920992
 20
-1.263741666666672
 10
3.926436011920992
 20
-1.263741666666672
 10
3.808505459344612
 20
-2.16929305555555
 10
3.808505459344612
 20
-2.16929305555555
 10
3.808505459344612
 20
-2.16929305555555
 10
3.795942959661968
 20
-2.265769444444446
 10
3.795942959661968
 20
-2.265769444444446
 10
3.795942959661968
 20
-2.265769444444446
 10
3.893226290537718
 20
-2.265769444444446
 10
3.893226290537718
 20
-2.265769444444446
 10
3.893226290537718
 20
-2.265769444444446
 10
3.973402777777778
 20
-2.265769444444446
 10
3.973402777777778
 20
-2.265769444444446
 10
3.973402777777778
 20
-2.265769444444446
 10
4.045467953358436
 20
-2.265769444444446
 10
4.045467953358436
 20
-2.265769444444446
 10
4.045467953358436
 20
-2.265769444444446
 10
4.057616564162648
 20
-2.194734722222228
 10
4.057616564162648
 20
-2.194734722222228
 10
4.057616564162648
 20
-2.194734722222228
 10
4.106780451809552
 20
-1.907320833333339
 10
4.106780451809552
 20
-1.907320833333339
 10
4.106780451809552
 20
-1.907320833333339
 10
5.582692914524866
 20
-1.907320833333339
 10
5.582692914524866
 20
-1.907320833333339
 10
5.503438749860329
 20
-2.059823611111117
 10
5.417708333333343
 20
-2.223330555555561
 10
5.326934587652532
 20
-2.395102777777778
 10
5.212555555555556
 20
-2.611479166666666
 10
5.087026260379793
 20
-2.853002777777773
 10
4.953840152633246
 20
-3.112954166666668
 10
4.953840152633246
 20
-3.112954166666668
 10
4.953649874860275
 20
-3.113323611111114
 10
4.953649874860275
 20
-3.113323611111114
 10
4.953649874860275
 20
-3.113323611111114
 10
4.953463763753866
 20
-3.113699999999994
 10
4.953463763753866
 20
-3.113699999999994
 10
4.826304044743968
 20
-3.367973611111109
 10
4.720544325193461
 20
-3.583474999999996
 10
4.639112382806161
 20
-3.754200000000007
 10
4.556969329325713
 20
-3.926576388888886
 10
4.500620719638087
 20
-4.046226388888891
 10
4.466877664934954
 20
-4.119922222222221
 10
4.392479055703309
 20
-4.272019444444443
 10
4.341373501438789
 20
-4.402708333333331
 10
4.314979057661124
 20
-4.508398611111109
 10
4.314979057661124
 20
-4.508398611111109
 10
4.288465169442032
 20
-4.614537499999996
 10
4.288465169442032
 20
-4.614537499999996
 10
4.288465169442032
 20
-4.614537499999996
 10
4.389844333547646
 20
-4.614537499999996
 10
4.389844333547646
 20
-4.614537499999996
 10
4.389844333547646
 20
-4.614537499999996
 10
4.389844333547646
 20
-4.74562083333333
 10
4.389844333547646
 20
-4.74562083333333
 10
4.389844333547646
 20
-4.74562083333333
 10
5.189845702226799
 20
-4.74562083333333
 10
5.189845702226799
 20
-4.74562083333333
 10
5.189845702226799
 20
-4.74562083333333
 10
5.189845702226799
 20
-4.614537499999996
 10
5.189845702226799
 20
-4.614537499999996
 10
5.189845702226799
 20
-4.614537499999996
 10
5.307562365919694
 20
-4.614537499999996
 10
5.307562365919694
 20
-4.614537499999996
 10
5.307562365919694
 20
-4.614537499999996
 10
5.265798478085849
 20
-4.499863888888891
 10
5.265798478085849
 20
-4.499863888888891
 10
5.264533200340034
 20
-4.49639444444444
 10
5.253808200610971
 20
-4.462143055555556
 10
5.265899866972177
 20
-4.329313888888893
 10
5.274736111111123
 20
-4.231888888888887
 10
5.300530421652891
 20
-4.11406666666667
 10
5.342563753924373
 20
-3.979104166666666
 10
5.368170697721931
 20
-3.895822222222225
 10
5.392516530440237
 20
-3.80416388888889
 10
5.415015140982986
 20
-3.706379166666668
 10
5.437554029302494
 20
-3.607949999999998
 10
5.459801250962705
 20
-3.508622222222218
 10
5.481160972645335
 20
-3.411049999999995
 10
5.527638888888886
 20
-3.206623611111114
 10
5.62693319118504
 20
-2.861608333333328
 10
5.776288742967558
 20
-2.385561111111113
 10
5.852670685482432
 20
-2.150188888888894
 10
5.922399850387592
 20
-1.937034722222228
 10
5.98353457106542
 20
-1.751995833333328
 10
6.042104014030277
 20
-1.574665277777778
 10
6.098174845947142
 20
-1.425854166666669
 10
6.150183177966634
 20
-1.309677777777779
 10
6.150183177966634
 20
-1.309677777777779
 10
6.204056787716783
 20
-1.189333333333328
 10
6.204056787716783
 20
-1.189333333333328
 10
6.204056787716783
 20
-1.189333333333328
 10
6.072201235492179
 20
-1.189333333333328
 10
6.072201235492179
 20
-1.189333333333328
 97
        0
 97
        0
 92
        1
 93
        1
 72
     4
 94
        3
 73
     0
 74
     1
 95
       17
 96
       13
 40
0.0
 40
0.0
 40
0.0
 40
0.0
 40
1.0
 40
1.0
 40
1.0
 40
2.0
 40
2.0
 40
2.0
 40
3.0
 40
3.0
 40
3.0
 40
4.0
 40
4.0
 40
4.0
 40
4.0
 10
5.566185970497423
 20
-1.456776388888885
 10
5.54910263759565
 20
-1.41862916666667
 10
5.520477638318779
 20
-1.384361111111111
 10
5.484920694772578
 20
-1.360208333333339
 10
5.484920694772578
 20
-1.360208333333339
 10
5.564517914984005
 20
-1.360208333333339
 10
5.564517914984005
 20
-1.360208333333339
 10
5.562631803920541
 20
-1.363191666666669
 10
5.56094013729661
 20
-1.366308333333336
 10
5.559563748442492
 20
-1.36960694444445
 10
5.548067915399567
 20
-1.397137499999998
 10
5.556345692968231
 20
-1.428615277777782
 10
5.566185970497423
 20
-1.456776388888885
 97
        0
 97
        0
 92
        1
 93
        1
 72
     4
 94
        3
 73
     0
 74
     1
 95
       17
 96
       13
 40
0.0
 40
0.0
 40
0.0
 40
0.0
 40
1.0
 40
1.0
 40
1.0
 40
2.0
 40
2.0
 40
2.0
 40
3.0
 40
3.0
 40
3.0
 40
4.0
 40
4.0
 40
4.0
 40
4.0
 10
4.461581831735404
 20
-1.532591666666665
 10
4.448174887629648
 20
-1.472512500000006
 10
4.430294332525793
 20
-1.411372222222225
 10
4.398006833341443
 20
-1.360208333333339
 10
4.398006833341443
 20
-1.360208333333339
 10
4.543497107443828
 20
-1.360208333333339
 10
4.543497107443828
 20
-1.360208333333339
 10
4.517709608095275
 20
-1.394161111111114
 10
4.496334608635252
 20
-1.431452777777773
 10
4.480740164584757
 20
-1.471211111111112
 10
4.47290683144931
 20
-1.49117638888889
 10
4.466576276053678
 20
-1.51171805555556
 10
4.461581831735404
 20
-1.532591666666665
 97
        0
 97
        0
 92
        1
 93
        1
 72
     4
 94
        3
 73
     0
 74
     1
 95
       83
 96
       79
 40
0.0
 40
0.0
 40
0.0
 40
0.0
 40
1.0
 40
1.0
 40
1.0
 40
2.0
 40
2.0
 40
2.0
 40
3.0
 40
3.0
 40
3.0
 40
4.0
 40
4.0
 40
4.0
 40
5.0
 40
5.0
 40
5.0
 40
6.0
 40
6.0
 40
6.0
 40
7.0
 40
7.0
 40
7.0
 40
8.0
 40
8.0
 40
8.0
 40
9.0
 40
9.0
 40
9.0
 40
10.0
 40
10.0
 40
10.0
 40
11.0
 40
11.0
 40
11.0
 40
12.0
 40
12.0
 40
12.0
 40
13.0
 40
13.0
 40
13.0
 40
14.0
 40
14.0
 40
14.0
 40
15.0
 40
15.0
 40
15.0
 40
16.0
 40
16.0
 40
16.0
 40
17.0
 40
17.0
 40
17.0
 40
18.0
 40
18.0
 40
18.0
 40
19.0
 40
19.0
 40
19.0
 40
20.0
 40
20.0
 40
20.0
 40
21.0
 40
21.0
 40
21.0
 40
22.0
 40
22.0
 40
22.0
 40
23.0
 40
23.0
 40
23.0
 40
24.0
 40
24.0
 40
24.0
 40
25.0
 40
25.0
 40
25.0
 40
26.0
 40
26.0
 40
26.0
 40
26.0
 10
4.726226269494368
 20
-1.736445833333328
 10
4.789845712331649
 20
-1.712547222222219
 10
4.848130433081476
 20
-1.675312500000006
 10
4.900923487303367
 20
-1.632316666666662
 10
4.960333333333336
 20
-1.583931944444442
 10
5.013352651129834
 20
-1.528277777777779
 10
5.066192927572754
 20
-1.472790277777777
 10
4.953498485975211
 20
-1.433751388888886
 10
4.8252929336584
 20
-1.45196388888889
 10
4.720523491860654
 20
-1.508940277777773
 10
4.689727659305289
 20
-1.52568472222222
 10
4.661115160028102
 20
-1.545849999999998
 10
4.634259605150974
 20
-1.568198611111105
 10
4.661084604473317
 20
-1.502870833333329
 10
4.67235682641078
 20
-1.431316666666665
 10
4.667670715418049
 20
-1.360208333333339
 10
4.667670715418049
 20
-1.360208333333339
 10
5.38020125297357
 20
-1.360208333333339
 10
5.38020125297357
 20
-1.360208333333339
 10
5.374752642000102
 20
-1.371961111111116
 10
5.373423475367013
 20
-1.386118055555559
 10
5.376027777777785
 20
-1.398968055555555
 10
5.380370697413733
 20
-1.420391666666673
 10
5.39316791931267
 20
-1.438990277777773
 10
5.405670696774601
 20
-1.45691805555556
 10
5.389702641622433
 20
-1.446376388888893
 10
5.375081808658453
 20
-1.432897222222222
 10
5.35913042017253
 20
-1.421240277777782
 10
5.345434587185182
 20
-1.41123055555555
 10
5.330519309784196
 20
-1.402461111111115
 10
5.314099865754542
 20
-1.398188888888891
 10
5.297684588391449
 20
-1.393916666666668
 10
5.27955403329391
 20
-1.394486111111114
 10
5.264542922562011
 20
-1.402386111111115
 10
5.249535978496675
 20
-1.410287499999994
 10
5.238341534335025
 20
-1.426230555555561
 10
5.23860264543954
 20
-1.443191666666672
 10
5.238806812101049
 20
-1.45630833333333
 10
5.245572089707921
 20
-1.4686375
 10
5.254608200590761
 20
-1.478151388888894
 10
5.263637367029332
 20
-1.487666666666668
 10
5.274858200079203
 20
-1.494770833333329
 10
5.285952644243379
 20
-1.501772222222219
 10
5.260209589338147
 20
-1.5002875
 10
5.2352095899697
 20
-1.495638888888885
 10
5.210320701709557
 20
-1.497641666666671
 10
5.185427646782854
 20
-1.499645833333337
 10
5.160502647412512
 20
-1.508825000000002
 10
5.142873481191196
 20
-1.526515277777776
 10
5.128963759320363
 20
-1.540481944444448
 10
5.120344315093663
 20
-1.563390277777772
 10
5.131224870374353
 20
-1.579822222222219
 10
5.139024870177309
 20
-1.59160277777778
 10
5.154042925353476
 20
-1.59604722222222
 10
5.167995702778777
 20
-1.598208333333332
 10
5.210916666666662
 20
-1.604868055555559
 10
5.254652777777765
 20
-1.598065277777778
 10
5.297549866172631
 20
-1.591276388888888
 10
5.282510977663656
 20
-1.603551388888895
 10
5.268266533579056
 20
-1.610706944444448
 10
5.258567922712952
 20
-1.622648611111117
 10
5.248870700735702
 20
-1.634591666666665
 10
5.245038756388062
 20
-1.652766666666669
 10
5.253848478387732
 20
-1.665380555555556
 10
5.260752644879984
 20
-1.675265277777776
 10
5.273349866783974
 20
-1.679337499999999
 10
5.285260977594185
 20
-1.681229166666665
 10
5.308197088125881
 20
-1.684877777777779
 10
5.331987365302666
 20
-1.682588888888884
 10
5.353915142526501
 20
-1.674950000000005
 10
5.334367920798083
 20
-1.683395833333331
 10
5.315765143490252
 20
-1.692452777777779
 10
5.302055555555549
 20
-1.707529166666669
 10
5.294779032909294
 20
-1.715527777777778
 10
5.289629033039394
 20
-1.725794444444444
 10
5.287126255324842
 20
-1.736445833333328
 10
5.287126255324842
 20
-1.736445833333328
 10
4.726226269494368
 20
-1.736445833333328
 10
4.726226269494368
 20
-1.736445833333328
 97
        0
 97
        0
 92
        1
 93
        1
 72
     4
 94
        3
 73
     0
 74
     1
 95
       26
 96
       22
 40
0.0
 40
0.0
 40
0.0
 40
0.0
 40
1.0
 40
1.0
 40
1.0
 40
2.0
 40
2.0
 40
2.0
 40
3.0
 40
3.0
 40
3.0
 40
4.0
 40
4.0
 40
4.0
 40
5.0
 40
5.0
 40
5.0
 40
6.0
 40
6.0
 40
6.0
 40
7.0
 40
7.0
 40
7.0
 40
7.0
 10
4.037194444444443
 20
-1.736445833333328
 10
4.037194444444443
 20
-1.736445833333328
 10
4.086188785663075
 20
-1.360208333333339
 10
4.086188785663075
 20
-1.360208333333339
 10
4.086188785663075
 20
-1.360208333333339
 10
4.334645723830969
 20
-1.360208333333339
 10
4.334645723830969
 20
-1.360208333333339
 10
4.314490168784586
 20
-1.424176388888883
 10
4.306454057876484
 20
-1.491965277777783
 10
4.318715168677853
 20
-1.557591666666667
 10
4.326877668471651
 20
-1.601280555555554
 10
4.344923501349109
 20
-1.643672222222222
 10
4.371158222908585
 20
-1.679495833333337
 10
4.30167905799711
 20
-1.639595833333336
 10
4.218627671206276
 20
-1.622879166666672
 10
4.139563784314709
 20
-1.636527777777777
 10
4.159658228251525
 20
-1.67635694444444
 10
4.189974894152328
 20
-1.710834722222216
 10
4.226484615452238
 20
-1.736445833333328
 10
4.226484615452238
 20
-1.736445833333328
 10
4.037194444444443
 20
-1.736445833333328
 10
4.037194444444443
 20
-1.736445833333328
 97
        0
 97
        0
 92
        1
 93
        1
 72
     4
 94
        3
 73
     0
 74
     1
 95
       26
 96
       22
 40
0.0
 40
0.0
 40
0.0
 40
0.0
 40
1.0
 40
1.0
 40
1.0
 40
2.0
 40
2.0
 40
2.0
 40
3.0
 40
3.0
 40
3.0
 40
4.0
 40
4.0
 40
4.0
 40
5.0
 40
5.0
 40
5.0
 40
6.0
 40
6.0
 40
6.0
 40
7.0
 40
7.0
 40
7.0
 40
7.0
 10
5.351826253690382
 20
-3.221623611111113
 10
5.344166666666675
 20
-3.16526111111111
 10
5.337409587387911
 20
-3.108190277777781
 10
5.334716531900388
 20
-3.052248611111117
 10
5.342105420602618
 20
-3.021765277777781
 10
5.354698475840046
 20
-2.991769444444445
 10
5.366879031087895
 20
-2.96274722222222
 10
5.370516530996004
 20
-2.954069444444447
 10
5.374141530904429
 20
-2.94545
 10
5.377606808594666
 20
-2.936858333333336
 10
5.377606808594666
 20
-2.936858333333336
 10
5.384240141760428
 20
-2.920398611111106
 10
5.384240141760428
 20
-2.920398611111106
 10
5.405730418995315
 20
-2.867026388888891
 10
5.427958333333335
 20
-2.811837499999999
 10
5.453304028904616
 20
-2.759218055555556
 10
5.471685972884694
 20
-2.721058333333329
 10
5.493770694549008
 20
-2.684355555555562
 10
5.51614986065033
 20
-2.64865
 10
5.44553319576759
 20
-2.881248611111106
 10
5.390594308266574
 20
-3.072813888888883
 10
5.351826253690382
 20
-3.221623611111113
 97
        0
 97
        0
 92
        1
 93
        1
 72
     4
 94
        3
 73
     0
 74
     1
 95
       32
 96
       28
 40
0.0
 40
0.0
 40
0.0
 40
0.0
 40
1.0
 40
1.0
 40
1.0
 40
2.0
 40
2.0
 40
2.0
 40
3.0
 40
3.0
 40
3.0
 40
4.0
 40
4.0
 40
4.0
 40
5.0
 40
5.0
 40
5.0
 40
6.0
 40
6.0
 40
6.0
 40
7.0
 40
7.0
 40
7.0
 40
8.0
 40
8.0
 40
8.0
 40
9.0
 40
9.0
 40
9.0
 40
9.0
 10
5.29105958855881
 20
-3.017397222222219
 10
5.292236111111101
 20
-3.023513888888892
 10
5.293520699607749
 20
-3.029638888888889
 10
5.294833333333322
 20
-3.034575000000005
 10
5.295037366236102
 20
-3.039223611111109
 10
5.295260977341564
 20
-3.043852777777778
 10
5.295501255113272
 20
-3.048468055555557
 10
5.289838755256318
 20
-3.034534722222222
 10
5.283559588748276
 20
-3.021622222222226
 10
5.276591533368749
 20
-3.009540277777774
 10
5.263559589253519
 20
-2.986933333333329
 10
5.248376256303749
 20
-2.96554166666667
 10
5.232591534480282
 20
-2.944765277777782
 10
5.252797089525402
 20
-2.905681944444445
 10
5.272830422352651
 20
-2.867
 10
5.292581810742578
 20
-2.828977777777772
 10
5.291381810772893
 20
-2.836813888888893
 10
5.290361111111123
 20
-2.844712500000001
 10
5.289655421927616
 20
-2.852687500000002
 10
5.288824866393043
 20
-2.862066666666667
 10
5.286801255333052
 20
-2.871333333333332
 10
5.284854033160021
 20
-2.880308333333333
 10
5.281915144345374
 20
-2.893804166666667
 10
5.278883199977523
 20
-2.907770833333327
 10
5.279601255514939
 20
-2.922826388888893
 10
5.281087366588508
 20
-2.953838888888893
 10
5.284942922046664
 20
-2.985655555555556
 10
5.29105958855881
 20
-3.017397222222219
 97
        0
 97
        0
 92
        1
 93
        1
 72
     4
 94
        3
 73
     0
 74
     1
 95
      125
 96
      121
 40
0.0
 40
0.0
 40
0.0
 40
0.0
 40
1.0
 40
1.0
 40
1.0
 40
2.0
 40
2.0
 40
2.0
 40
3.0
 40
3.0
 40
3.0
 40
4.0
 40
4.0
 40
4.0
 40
5.0
 40
5.0
 40
5.0
 40
6.0
 40
6.0
 40
6.0
 40
7.0
 40
7.0
 40
7.0
 40
8.0
 40
8.0
 40
8.0
 40
9.0
 40
9.0
 40
9.0
 40
10.0
 40
10.0
 40
10.0
 40
11.0
 40
11.0
 40
11.0
 40
12.0
 40
12.0
 40
12.0
 40
13.0
 40
13.0
 40
13.0
 40
14.0
 40
14.0
 40
14.0
 40
15.0
 40
15.0
 40
15.0
 40
16.0
 40
16.0
 40
16.0
 40
17.0
 40
17.0
 40
17.0
 40
18.0
 40
18.0
 40
18.0
 40
19.0
 40
19.0
 40
19.0
 40
20.0
 40
20.0
 40
20.0
 40
21.0
 40
21.0
 40
21.0
 40
22.0
 40
22.0
 40
22.0
 40
23.0
 40
23.0
 40
23.0
 40
24.0
 40
24.0
 40
24.0
 40
25.0
 40
25.0
 40
25.0
 40
26.0
 40
26.0
 40
26.0
 40
27.0
 40
27.0
 40
27.0
 40
28.0
 40
28.0
 40
28.0
 40
29.0
 40
29.0
 40
29.0
 40
30.0
 40
30.0
 40
30.0
 40
31.0
 40
31.0
 40
31.0
 40
32.0
 40
32.0
 40
32.0
 40
33.0
 40
33.0
 40
33.0
 40
34.0
 40
34.0
 40
34.0
 40
35.0
 40
35.0
 40
35.0
 40
36.0
 40
36.0
 40
36.0
 40
37.0
 40
37.0
 40
37.0
 40
38.0
 40
38.0
 40
38.0
 40
39.0
 40
39.0
 40
39.0
 40
40.0
 40
40.0
 40
40.0
 40
40.0
 10
5.106095704342502
 20
-3.190519444444438
 10
5.128519314887146
 20
-3.146754166666672
 10
5.150637369883952
 20
-3.103725000000003
 10
5.172606813773402
 20
-3.061044444444443
 10
5.22355820137515
 20
-3.132997222222217
 10
5.273969311212769
 20
-3.21417083333333
 10
5.326581809883666
 20
-3.309122222222224
 10
5.326962365429608
 20
-3.311743055555553
 10
5.327341532086696
 20
-3.314554166666666
 10
5.327720698743784
 20
-3.317208333333332
 10
5.322930555555558
 20
-3.336959722222218
 10
5.318484587865997
 20
-3.355790277777777
 10
5.314456810189969
 20
-3.373520833333335
 10
5.314456810189969
 20
-3.373520833333335
 10
5.314384587969571
 20
-3.373849999999998
 10
5.314384587969571
 20
-3.373849999999998
 10
5.314384587969571
 20
-3.373849999999998
 10
5.314313754638028
 20
-3.374181944444445
 10
5.314313754638028
 20
-3.374181944444445
 10
5.31269292134564
 20
-3.381580555555552
 10
5.310994310277439
 20
-3.389108333333335
 10
5.309366532540783
 20
-3.39652777777778
 10
5.307117921486476
 20
-3.392336111111111
 10
5.304948477096837
 20
-3.388138888888887
 10
5.302605421600472
 20
-3.383968055555556
 10
5.258395700495081
 20
-3.305259722222218
 10
5.197627646474656
 20
-3.237158333333329
 10
5.138865147959121
 20
-3.171297222222228
 10
5.138865147959121
 20
-3.171297222222228
 10
5.133854036974602
 20
-3.165681944444448
 10
5.133854036974602
 20
-3.165681944444448
 10
5.133854036974602
 20
-3.165681944444448
 10
5.129241537091123
 20
-3.171609722222229
 10
5.129241537091123
 20
-3.171609722222229
 10
5.104284593277144
 20
-3.203683333333338
 10
5.094730426851836
 20
-3.24900138888889
 10
5.103027777777773
 20
-3.29595138888889
 10
5.103799871067167
 20
-3.300312500000005
 10
5.104709593266407
 20
-3.304622222222216
 10
5.105740148795929
 20
-3.308884722222223
 10
5.115851259651612
 20
-3.350686111111107
 10
5.137620703546114
 20
-3.387649999999995
 10
5.153767925360423
 20
-3.412647222222227
 10
5.186933202300375
 20
-3.463987500000005
 10
5.223123479163911
 20
-3.505448611111117
 10
5.271117922395913
 20
-3.547066666666662
 10
5.272487366805763
 20
-3.548254166666664
 10
5.273719311219085
 20
-3.549579166666667
 10
5.275048477852175
 20
-3.550806944444439
 10
5.266245700296773
 20
-3.589934722222223
 10
5.257415144964297
 20
-3.629101388888885
 10
5.248491534078615
 20
-3.668069444444439
 10
5.240634589832653
 20
-3.702215277777782
 10
5.232551256703522
 20
-3.73552361111111
 10
5.224280423579128
 20
-3.76790972222222
 10
5.16991792495244
 20
-3.768869444444438
 10
5.115884592984103
 20
-3.788854166666662
 10
5.074758205134154
 20
-3.824509722222223
 10
5.05730126113071
 20
-3.83964305555556
 10
5.042388888888884
 20
-3.85755277777778
 10
5.030195706259898
 20
-3.877169444444449
 10
5.027794317431673
 20
-3.87895555555556
 10
5.025679039707332
 20
-3.881187499999997
 10
5.024192928633763
 20
-3.884008333333339
 10
5.021073484268123
 20
-3.890312499999999
 10
5.018151262119722
 20
-3.896709722222226
 10
5.015227651082467
 20
-3.903102777777778
 10
5.01256944444444
 20
-3.908923611111113
 10
5.009910984550111
 20
-3.914738888888893
 10
5.007092929065745
 20
-3.920480555555552
 10
5.007092929065745
 20
-3.920480555555552
 10
5.006638888888889
 20
-3.921405555555553
 10
5.006638888888889
 20
-3.921405555555553
 10
5.006638888888889
 20
-3.921405555555553
 10
5.006306817974493
 20
-3.922381944444446
 10
5.006306817974493
 20
-3.922381944444446
 10
5.005954040205627
 20
-3.923426388888894
 10
5.005326262443709
 20
-3.924712500000004
 10
5.004672095793567
 20
-3.926136111111115
 10
5.002224873633168
 20
-3.931487500000003
 10
4.998680555555552
 20
-3.939231944444448
 10
4.998765151498345
 20
-3.947258333333328
 10
4.991159596134922
 20
-3.957959722222224
 10
4.984116540757289
 20
-3.968934722222217
 10
4.97767765203106
 20
-3.980122222222222
 10
4.979272096435225
 20
-3.943208333333334
 10
4.982113763030106
 20
-3.907059722222218
 10
4.986158207372378
 20
-3.872093055555549
 10
4.98648737403073
 20
-3.869675000000004
 10
4.986891540687187
 20
-3.867176388888891
 10
4.98724709623376
 20
-3.864727777777779
 10
5.034369317265575
 20
-3.832518055555561
 10
5.070295705246886
 20
-3.783918055555558
 10
5.086029038182763
 20
-3.728988888888883
 10
5.104719315488384
 20
-3.663729166666662
 10
5.094838760182433
 20
-3.590822222222224
 10
5.059448483298689
 20
-3.532893055555557
 10
4.997799873744952
 20
-3.566544444444439
 10
4.950106819394224
 20
-3.624918055555554
 10
4.929419319916835
 20
-3.692038888888886
 10
4.912074875910548
 20
-3.748313888888889
 10
4.913984598084526
 20
-3.810124999999996
 10
4.941172097397712
 20
-3.85636666666667
 10
4.939652777777774
 20
-3.865223611111105
 10
4.938283208581803
 20
-3.87395138888889
 10
4.937123486388878
 20
-3.882505555555554
 10
4.929656819910835
 20
-3.932504166666667
 10
4.927158208862844
 20
-3.98195555555555
 10
4.926744319984411
 20
-4.02776944444444
 10
4.920712375692347
 20
-4.015576388888891
 10
4.914092931415123
 20
-4.003056944444451
 10
4.906849876042543
 20
-3.99012777777778
 10
4.918216542422063
 20
-3.92896388888889
 10
4.90578598718053
 20
-3.863391666666669
 10
4.871391543604962
 20
-3.811444444444444
 10
4.858720710591721
 20
-3.792302777777776
 10
4.8431901554285
 20
-3.775152777777773
 10
4.825591544761967
 20
-3.760450000000004
 10
4.901554042842993
 20
-3.602579166666664
 10
4.995692929353734
 20
-3.411294444444441
 10
5.106095704342502
 20
-3.190519444444438
 97
        0
 97
        0
 92
        1
 93
        1
 72
     4
 94
        3
 73
     0
 74
     1
 95
       26
 96
       22
 40
0.0
 40
0.0
 40
0.0
 40
0.0
 40
1.0
 40
1.0
 40
1.0
 40
2.0
 40
2.0
 40
2.0
 40
3.0
 40
3.0
 40
3.0
 40
4.0
 40
4.0
 40
4.0
 40
5.0
 40
5.0
 40
5.0
 40
6.0
 40
6.0
 40
6.0
 40
7.0
 40
7.0
 40
7.0
 40
7.0
 10
5.021141539821959
 20
-4.393166666666667
 10
5.020687373166766
 20
-4.387337499999995
 10
5.020412373173713
 20
-4.382608333333337
 10
5.020202650956788
 20
-4.378336111111113
 10
5.02369153975754
 20
-4.328758333333338
 10
5.042205428178729
 20
-4.281469444444446
 10
5.065327649816835
 20
-4.236818055555558
 10
5.080865149424325
 20
-4.229602777777775
 10
5.095349871280632
 20
-4.221787500000005
 10
5.109104037599839
 20
-4.213537500000004
 10
5.103185982193787
 20
-4.248551388888889
 10
5.098598482309677
 20
-4.282140277777772
 10
5.095726260160013
 20
-4.313825000000002
 10
5.091094315832581
 20
-4.364704166666671
 10
5.08893181588721
 20
-4.407530555555556
 10
5.08929709365576
 20
-4.443663888888889
 10
5.08929709365576
 20
-4.443663888888889
 10
5.030840150688062
 20
-4.443663888888889
 10
5.030840150688062
 20
-4.443663888888889
 10
5.025702650817847
 20
-4.425004166666668
 10
5.021826262026884
 20
-4.405808333333336
 10
5.021141539821959
 20
-4.393166666666667
 97
        0
 97
        0
 92
        1
 93
        1
 72
     4
 94
        3
 73
     0
 74
     1
 95
       29
 96
       25
 40
0.0
 40
0.0
 40
0.0
 40
0.0
 40
1.0
 40
1.0
 40
1.0
 40
2.0
 40
2.0
 40
2.0
 40
3.0
 40
3.0
 40
3.0
 40
4.0
 40
4.0
 40
4.0
 40
5.0
 40
5.0
 40
5.0
 40
6.0
 40
6.0
 40
6.0
 40
7.0
 40
7.0
 40
7.0
 40
8.0
 40
8.0
 40
8.0
 40
8.0
 10
5.096010982375042
 20
-4.030286111111106
 10
5.060760983265532
 20
-4.079981944444449
 10
5.039092928257357
 20
-4.138999999999998
 10
5.032842928415246
 20
-4.199587499999994
 10
5.017547095468317
 20
-4.225533333333336
 10
5.00342765138056
 20
-4.252243055555557
 10
4.992679040540982
 20
-4.279726388888889
 10
4.983791666666662
 20
-4.221237500000004
 10
4.978444444444449
 20
-4.159643055555559
 10
4.976729040943913
 20
-4.095773611111111
 10
4.986510985141245
 20
-4.058609722222223
 10
5.002430555555557
 20
-4.02235138888889
 10
5.022912373110557
 20
-3.989002777777778
 10
5.090887371393364
 20
-3.972075000000005
 10
5.149423481025729
 20
-3.935331944444442
 10
5.19184014662086
 20
-3.886690277777777
 10
5.18772348005819
 20
-3.900783333333329
 10
5.183587369051565
 20
-3.914715277777784
 10
5.179412369157035
 20
-3.928293055555552
 10
5.176852646999476
 20
-3.936512499999998
 10
5.174549869279872
 20
-3.944487499999998
 10
5.17209848045291
 20
-3.95260138888889
 10
5.143001258965746
 20
-3.974483333333334
 10
5.117074870731813
 20
-4.000586111111109
 10
5.096010982375042
 20
-4.030286111111106
 97
        0
 97
        0
 92
        1
 93
        1
 72
     4
 94
        3
 73
     0
 74
     1
 95
       32
 96
       28
 40
0.0
 40
0.0
 40
0.0
 40
0.0
 40
1.0
 40
1.0
 40
1.0
 40
2.0
 40
2.0
 40
2.0
 40
3.0
 40
3.0
 40
3.0
 40
4.0
 40
4.0
 40
4.0
 40
5.0
 40
5.0
 40
5.0
 40
6.0
 40
6.0
 40
6.0
 40
7.0
 40
7.0
 40
7.0
 40
8.0
 40
8.0
 40
8.0
 40
9.0
 40
9.0
 40
9.0
 40
9.0
 10
4.745601269004914
 20
-3.928130555555551
 10
4.776133212678056
 20
-3.965836111111116
 10
4.817223489417807
 20
-3.995679166666668
 10
4.868045710356151
 20
-4.013334722222226
 10
4.881408210018586
 20
-4.038061111111107
 10
4.894520709687336
 20
-4.064361111111111
 10
4.904713764985394
 20
-4.090761111111116
 10
4.915215153608996
 20
-4.116287499999999
 10
4.924916666666667
 20
-4.149470833333339
 10
4.93137904208955
 20
-4.181948611111112
 10
4.933105430934827
 20
-4.204751388888894
 10
4.935384597543917
 20
-4.227476388888893
 10
4.938201264139429
 20
-4.249988888888891
 10
4.93724848638572
 20
-4.248713888888889
 10
4.936285986410035
 20
-4.247452777777779
 10
4.935319444444442
 20
-4.246197222222223
 10
4.935154041994186
 20
-4.245987500000006
 10
4.934963764221215
 20
-4.245773611111114
 10
4.934797097558758
 20
-4.245563888888884
 10
4.925147097802538
 20
-4.165813888888894
 10
4.882899876647571
 20
-4.090052777777777
 10
4.818894322708931
 20
-4.041286111111112
 10
4.788248490149777
 20
-4.017940277777774
 10
4.752926268819869
 20
-4.001137500000001
 10
4.715741547537012
 20
-3.99114166666666
 10
4.725155436188086
 20
-3.971241666666666
 10
4.735104047047874
 20
-3.950244444444441
 10
4.745601269004914
 20
-3.928130555555551
 97
        0
 97
        0
 92
        1
 93
        1
 72
     4
 94
        3
 73
     0
 74
     1
 95
       35
 96
       31
 40
0.0
 40
0.0
 40
0.0
 40
0.0
 40
1.0
 40
1.0
 40
1.0
 40
2.0
 40
2.0
 40
2.0
 40
3.0
 40
3.0
 40
3.0
 40
4.0
 40
4.0
 40
4.0
 40
5.0
 40
5.0
 40
5.0
 40
6.0
 40
6.0
 40
6.0
 40
7.0
 40
7.0
 40
7.0
 40
8.0
 40
8.0
 40
8.0
 40
9.0
 40
9.0
 40
9.0
 40
10.0
 40
10.0
 40
10.0
 40
10.0
 10
4.620833333333331
 20
-4.19406666666666
 10
4.620833333333331
 20
-4.19406666666666
 10
4.621320716588949
 20
-4.193066666666671
 10
4.621320716588949
 20
-4.193066666666671
 10
4.621320716588949
 20
-4.193066666666671
 10
4.621788772132681
 20
-4.192059722222224
 10
4.621788772132681
 20
-4.192059722222224
 10
4.626267938686194
 20
-4.182266666666666
 10
4.631198494117194
 20
-4.171562499999999
 10
4.63651516064955
 20
-4.160073611111114
 10
4.651197104723097
 20
-4.176394444444441
 10
4.667306826538353
 20
-4.191418055555561
 10
4.684770714986067
 20
-4.204748611111111
 10
4.74524571345834
 20
-4.25091111111111
 10
4.820810989327179
 20
-4.276800000000005
 10
4.905527777777782
 20
-4.284473611111113
 10
4.923559597842641
 20
-4.309830555555562
 10
4.938772097458341
 20
-4.336031944444446
 10
4.951767930463372
 20
-4.36434166666667
 10
4.953992930407164
 20
-4.368938888888894
 10
4.956013888888884
 20
-4.373184722222226
 10
4.957923485863426
 20
-4.377301388888883
 10
4.96196098576143
 20
-4.395754166666671
 10
4.967519318954348
 20
-4.418045833333331
 10
4.974463763223361
 20
-4.443663888888889
 10
4.974463763223361
 20
-4.443663888888889
 10
4.513363774871727
 20
-4.443663888888889
 10
4.513363774871727
 20
-4.443663888888889
 10
4.539354051992935
 20
-4.370594444444452
 10
4.5752998844182
 20
-4.28708055555555
 10
4.620833333333331
 20
-4.19406666666666
 97
        0
 97
        0
 92
        1
 93
        1
 72
     4
 94
        3
 73
     0
 74
     1
 95
       44
 96
       40
 40
0.0
 40
0.0
 40
0.0
 40
0.0
 40
1.0
 40
1.0
 40
1.0
 40
2.0
 40
2.0
 40
2.0
 40
3.0
 40
3.0
 40
3.0
 40
4.0
 40
4.0
 40
4.0
 40
5.0
 40
5.0
 40
5.0
 40
6.0
 40
6.0
 40
6.0
 40
7.0
 40
7.0
 40
7.0
 40
8.0
 40
8.0
 40
8.0
 40
9.0
 40
9.0
 40
9.0
 40
10.0
 40
10.0
 40
10.0
 40
11.0
 40
11.0
 40
11.0
 40
12.0
 40
12.0
 40
12.0
 40
13.0
 40
13.0
 40
13.0
 40
13.0
 10
5.613637358187589
 20
-2.333179166666671
 10
5.613637358187589
 20
-2.333179166666671
 10
5.613505413746477
 20
-2.333576388888888
 10
5.613505413746477
 20
-2.333576388888888
 10
5.613505413746477
 20
-2.333576388888888
 10
5.613379024860781
 20
-2.333976388888888
 10
5.613379024860781
 20
-2.333976388888888
 10
5.586042914440238
 20
-2.421104166666661
 10
5.560384581755089
 20
-2.503861111111114
 10
5.53636652680628
 20
-2.582322222222223
 10
5.532995693558101
 20
-2.583033333333333
 10
5.529466526980589
 20
-2.583674999999996
 10
5.527299860368657
 20
-2.584061111111105
 10
5.52367763823794
 20
-2.584712499999998
 10
5.520656804980919
 20
-2.585291666666661
 10
5.519212360572965
 20
-2.585715277777783
 10
5.519212360572965
 20
-2.585715277777783
 10
5.519202638350988
 20
-2.585719444444445
 10
5.519202638350988
 20
-2.585719444444445
 10
5.509077638606767
 20
-2.58870694444445
 10
5.49887347219788
 20
-2.592083333333335
 10
5.488861111111115
 20
-2.595752777777774
 10
5.468279028526315
 20
-2.603325000000003
 10
5.44794014015123
 20
-2.612375000000005
 10
5.428419307311034
 20
-2.622676388888888
 10
5.425500000000006
 20
-2.624215277777782
 10
5.422430555555567
 20
-2.625788888888893
 10
5.419287363097283
 20
-2.627393055555558
 10
5.40920958557409
 20
-2.632556944444445
 10
5.398379030292138
 20
-2.638266666666671
 10
5.388617919427613
 20
-2.644848611111115
 10
5.419094307546604
 20
-2.586669444444447
 10
5.448927640126284
 20
-2.529966666666673
 10
5.478013888888881
 20
-2.47494027777778
 10
5.561204026178832
 20
-2.317511111111116
 10
5.640173468628341
 20
-2.167004166666667
 10
5.713830411212054
 20
-2.025501388888895
 10
5.681935967573332
 20
-2.123076388888888
 10
5.648474857307519
 20
-2.225824999999999
 10
5.613637358187589
 20
-2.333179166666671
 97
        0
 97
        0
 92
        1
 93
        1
 72
     4
 94
        3
 73
     0
 74
     1
 95
       26
 96
       22
 40
0.0
 40
0.0
 40
0.0
 40
0.0
 40
1.0
 40
1.0
 40
1.0
 40
2.0
 40
2.0
 40
2.0
 40
3.0
 40
3.0
 40
3.0
 40
4.0
 40
4.0
 40
4.0
 40
5.0
 40
5.0
 40
5.0
 40
6.0
 40
6.0
 40
6.0
 40
7.0
 40
7.0
 40
7.0
 40
7.0
 10
5.867963740651652
 20
-1.561508333333336
 10
5.855554018742926
 20
-1.561938888888891
 10
5.843244296831673
 20
-1.565879166666668
 10
5.83318055555555
 20
-1.57316944444445
 10
5.816515130840243
 20
-1.585227777777782
 10
5.806487353315788
 20
-1.60592916666667
 10
5.807345686627437
 20
-1.626477777777773
 10
5.802083333333333
 20
-1.562543055555554
 10
5.787580409348973
 20
-1.498377777777781
 10
5.762004021106198
 20
-1.438954166666665
 10
5.749972222222216
 20
-1.410999999999995
 10
5.735212355116346
 20
-1.383669444444447
 10
5.713769300102487
 20
-1.362076388888883
 10
5.713124999999991
 20
-1.361429166666666
 10
5.71241513347003
 20
-1.360841666666665
 10
5.711760966819889
 20
-1.360208333333339
 10
5.711760966819889
 20
-1.360208333333339
 10
5.943383183190841
 20
-1.360208333333339
 10
5.943383183190841
 20
-1.360208333333339
 10
5.918826239366758
 20
-1.421483333333337
 10
5.893642906669609
 20
-1.488699999999994
 10
5.867963740651652
 20
-1.561508333333336
 97
        0
 97
        0
 75
     2
 76
     1
 98
        0
  0
ENDBLK
  5
44
330
41
100
AcDbEntity
  8
0
100
AcDbBlockEnd
  0
ENDSEC
  0
SECTION
  2
ENTITIES
  0
INSERT
  5
42
330
1F
100
AcDbEntity
  8
_U+2018_U+043B_U+043E_U+0439_1
100
AcDbBlockReference
  2
block 2
 10
0.0
 20
0.0
 30
0.0
  0
ENDSEC
  0
SECTION
  2
OBJECTS
  0
DICTIONARY
  5
C
330
0
100
AcDbDictionary
281
     1
  3
ACAD_GROUP
350
D
  3
ACAD_LAYOUT
350
1A
  3
ACAD_MATERIAL
350
3B
  3
ACAD_MLEADERSTYLE
350
73
  3
ACAD_MLINESTYLE
350
17
  3
ACAD_PLOTSETTINGS
350
19
  3
ACAD_PLOTSTYLENAME
350
E
  3
ACAD_TABLESTYLE
350
72
  3
ACAD_VISUALSTYLE
350
2A
  0
SUN
  5
3F
330
29
100
AcDbSun
 90
        1
290
     0
 63
     7
421
 16777215
 40
1.0
291
     1
 91
  2455826
 92
 54000000
292
     0
 70
     2
 71
   256
280
     1
  0
DICTIONARY
  5
D
102
{ACAD_REACTORS
330
C
102
}
330
C
100
AcDbDictionary
281
     1
  0
DICTIONARY
  5
1A
102
{ACAD_REACTORS
330
C
102
}
330
C
100
AcDbDictionary
281
     1
  3
Layout1
350
1E
  3
Layout2
350
26
  3
Model
350
22
  0
DICTIONARY
  5
3B
102
{ACAD_REACTORS
330
C
102
}
330
C
100
AcDbDictionary
281
     1
  3
ByBlock
350
3D
  3
ByLayer
350
3C
  3
Global
350
3E
  0
DICTIONARY
  5
73
102
{ACAD_REACTORS
330
C
102
}
330
C
100
AcDbDictionary
281
     1
  0
DICTIONARY
  5
17
102
{ACAD_REACTORS
330
C
102
}
330
C
100
AcDbDictionary
281
     1
  3
Standard
350
18
  0
DICTIONARY
  5
19
102
{ACAD_REACTORS
330
C
102
}
330
C
100
AcDbDictionary
281
     1
  0
ACDBDICTIONARYWDFLT
  5
E
102
{ACAD_REACTORS
330
C
102
}
330
C
100
AcDbDictionary
281
     1
  3
Normal
350
F
100
AcDbDictionaryWithDefault
340
F
  0
DICTIONARY
  5
72
102
{ACAD_REACTORS
330
C
102
}
330
C
100
AcDbDictionary
281
     1
  0
DICTIONARY
  5
2A
102
{ACAD_REACTORS
330
C
102
}
330
C
100
AcDbDictionary
281
     1
  3
2dWireframe
350
2F
  3
3D Hidden
350
31
  3
3dWireframe
350
30
  3
Basic
350
32
  3
Brighten
350
36
  3
ColorChange
350
3A
  3
Conceptual
350
34
  3
Dim
350
35
  3
Facepattern
350
39
  3
Flat
350
2B
  3
FlatWithEdges
350
2C
  3
Gouraud
350
2D
  3
GouraudWithEdges
350
2E
  3
Linepattern
350
38
  3
Realistic
350
33
  3
Thicken
350
37
  0
LAYOUT
  5
1E
102
{ACAD_REACTORS
330
1A
102
}
330
1A
100
AcDbPlotSettings
  1

  2
none_device
  4

  6

 40
0.0
 41
0.0
 42
0.0
 43
0.0
 44
0.0
 45
0.0
 46
0.0
 47
0.0
 48
0.0
 49
0.0
140
0.0
141
0.0
142
1.0
143
1.0
 70
   688
 72
     0
 73
     0
 74
     5
  7

 75
    16
 76
     0
 77
     2
 78
   300
147
1.0
148
0.0
149
0.0
100
AcDbLayout
  1
Layout1
 70
     1
 71
     1
 10
0.0
 20
0.0
 11
12.0
 21
9.0
 12
0.0
 22
0.0
 32
0.0
 14
1.000000000000000E+20
 24
1.000000000000000E+20
 34
1.000000000000000E+20
 15
-1.000000000000000E+20
 25
-1.000000000000000E+20
 35
-1.000000000000000E+20
146
0.0
 13
0.0
 23
0.0
 33
0.0
 16
1.0
 26
0.0
 36
0.0
 17
0.0
 27
1.0
 37
0.0
 76
     0
330
1B
  0
LAYOUT
  5
26
102
{ACAD_REACTORS
330
1A
102
}
330
1A
100
AcDbPlotSettings
  1

  2
none_device
  4

  6

 40
0.0
 41
0.0
 42
0.0
 43
0.0
 44
0.0
 45
0.0
 46
0.0
 47
0.0
 48
0.0
 49
0.0
140
0.0
141
0.0
142
1.0
143
1.0
 70
   688
 72
     0
 73
     0
 74
     5
  7

 75
    16
 76
     0
 77
     2
 78
   300
147
1.0
148
0.0
149
0.0
100
AcDbLayout
  1
Layout2
 70
     1
 71
     2
 10
0.0
 20
0.0
 11
0.0
 21
0.0
 12
0.0
 22
0.0
 32
0.0
 14
0.0
 24
0.0
 34
0.0
 15
0.0
 25
0.0
 35
0.0
146
0.0
 13
0.0
 23
0.0
 33
0.0
 16
1.0
 26
0.0
 36
0.0
 17
0.0
 27
1.0
 37
0.0
 76
     0
330
23
  0
LAYOUT
  5
22
102
{ACAD_REACTORS
330
1A
102
}
330
1A
100
AcDbPlotSettings
  1

  2
none_device
  4

  6

 40
0.0
 41
0.0
 42
0.0
 43
0.0
 44
0.0
 45
0.0
 46
0.0
 47
0.0
 48
0.0
 49
0.0
140
0.0
141
0.0
142
1.0
143
1.0
 70
  1712
 72
     0
 73
     0
 74
     0
  7

 75
     0
 76
     0
 77
     2
 78
   300
147
1.0
148
0.0
149
0.0
100
AcDbLayout
  1
Model
 70
     1
 71
     0
 10
0.0
 20
0.0
 11
12.0
 21
9.0
 12
0.0
 22
0.0
 32
0.0
 14
1.000000000000000E+20
 24
1.000000000000000E+20
 34
1.000000000000000E+20
 15
-1.000000000000000E+20
 25
-1.000000000000000E+20
 35
-1.000000000000000E+20
146
0.0
 13
0.0
 23
0.0
 33
0.0
 16
1.0
 26
0.0
 36
0.0
 17
0.0
 27
1.0
 37
0.0
 76
     0
330
1F
331
29
  0
MATERIAL
  5
3D
102
{ACAD_REACTORS
330
3B
102
}
330
3B
100
AcDbMaterial
  1
ByBlock
 72
     1
 94
      127
  0
MATERIAL
  5
3C
102
{ACAD_REACTORS
330
3B
102
}
330
3B
100
AcDbMaterial
  1
ByLayer
 72
     1
 94
      127
  0
MATERIAL
  5
3E
102
{ACAD_REACTORS
330
3B
102
}
330
3B
100
AcDbMaterial
  1
Global
 72
     1
 94
      127
  0
MLINESTYLE
  5
18
102
{ACAD_REACTORS
330
17
102
}
330
17
100
AcDbMlineStyle
  2
Standard
 70
     0
  3

 62
   256
 51
90.0
 52
90.0
 71
     2
 49
0.5
 62
   256
  6
BYLAYER
 49
-0.5
 62
   256
  6
BYLAYER
  0
ACDBPLACEHOLDER
  5
F
102
{ACAD_REACTORS
330
E
102
}
330
E
  0
VISUALSTYLE
  5
2F
102
{ACAD_REACTORS
330
2A
102
}
330
2A
100
AcDbVisualStyle
  2
2dWireframe
 70
     4
177
     2
291
     0
 71
     0
176
     1
 72
     2
176
     1
 73
     0
176
     1
 90
        0
176
     1
 40
-0.6
176
     1
 41
-30.0
176
     1
 62
     5
 63
     7
421
 16777215
176
     1
 74
     1
176
     1
 91
        4
176
     1
 64
     7
176
     1
 65
   257
176
     1
 75
     1
176
     1
175
     1
176
     1
 42
1.0
176
     1
 92
        0
176
     1
 66
   257
176
     1
 43
1.0
176
     1
 76
     1
176
     1
 77
     6
176
     1
 78
     2
176
     1
 67
     7
176
     1
 79
     5
176
     1
170
     0
176
     1
171
     0
176
     1
290
     0
176
     1
 93
        1
176
     1
 44
0.0
176
     1
173
     0
176
     1
  0
VISUALSTYLE
  5
31
102
{ACAD_REACTORS
330
2A
102
}
330
2A
100
AcDbVisualStyle
  2
3D Hidden
 70
     6
177
     2
291
     0
 71
     1
176
     1
 72
     2
176
     1
 73
     2
176
     1
 90
        0
176
     1
 40
-0.6
176
     1
 41
-30.0
176
     1
 62
     5
 63
     7
421
 16777215
176
     1
 74
     2
176
     1
 91
        2
176
     1
 64
     7
176
     1
 65
   257
176
     1
 75
     2
176
     1
175
     1
176
     1
 42
40.0
176
     1
 92
        0
176
     1
 66
   257
176
     1
 43
1.0
176
     1
 76
     1
176
     1
 77
     6
176
     1
 78
     2
176
     1
 67
     7
176
     1
 79
     3
176
     1
170
     0
176
     1
171
     0
176
     1
290
     0
176
     1
 93
        1
176
     1
 44
0.0
176
     1
173
     0
176
     1
  0
VISUALSTYLE
  5
30
102
{ACAD_REACTORS
330
2A
102
}
330
2A
100
AcDbVisualStyle
  2
3dWireframe
 70
     5
177
     2
291
     0
 71
     0
176
     1
 72
     2
176
     1
 73
     0
176
     1
 90
        0
176
     1
 40
-0.6
176
     1
 41
-30.0
176
     1
 62
     5
 63
     7
421
 16777215
176
     1
 74
     1
176
     1
 91
        4
176
     1
 64
     7
176
     1
 65
   257
176
     1
 75
     1
176
     1
175
     1
176
     1
 42
1.0
176
     1
 92
        0
176
     1
 66
   257
176
     1
 43
1.0
176
     1
 76
     1
176
     1
 77
     6
176
     1
 78
     2
176
     1
 67
     7
176
     1
 79
     5
176
     1
170
     0
176
     1
171
     0
176
     1
290
     0
176
     1
 93
        1
176
     1
 44
0.0
176
     1
173
     0
176
     1
  0
VISUALSTYLE
  5
32
102
{ACAD_REACTORS
330
2A
102
}
330
2A
100
AcDbVisualStyle
  2
Basic
 70
     7
177
     2
291
     1
 71
     1
176
     1
 72
     0
176
     1
 73
     1
176
     1
 90
        0
176
     1
 40
-0.6
176
     1
 41
-30.0
176
     1
 62
     5
 63
     7
421
 16777215
176
     1
 74
     0
176
     1
 91
        4
176
     1
 64
     7
176
     1
 65
   257
176
     1
 75
     1
176
     1
175
     1
176
     1
 42
1.0
176
     1
 92
        8
176
     1
 66
     7
176
     1
 43
1.0
176
     1
 76
     1
176
     1
 77
     6
176
     1
 78
     2
176
     1
 67
     7
176
     1
 79
     5
176
     1
170
     0
176
     1
171
     0
176
     1
290
     0
176
     1
 93
        1
176
     1
 44
0.0
176
     1
173
     0
176
     1
  0
VISUALSTYLE
  5
36
102
{ACAD_REACTORS
330
2A
102
}
330
2A
100
AcDbVisualStyle
  2
Brighten
 70
    12
177
     2
291
     1
 71
     2
176
     1
 72
     2
176
     1
 73
     0
176
     1
 90
        0
176
     1
 40
-0.6
176
     1
 41
-30.0
176
     1
 62
     5
 63
     7
421
 16777215
176
     1
 74
     1
176
     1
 91
        4
176
     1
 64
     7
176
     1
 65
   257
176
     1
 75
     1
176
     1
175
     1
176
     1
 42
1.0
176
     1
 92
        8
176
     1
 66
     7
176
     1
 43
1.0
176
     1
 76
     1
176
     1
 77
     6
176
     1
 78
     2
176
     1
 67
     7
176
     1
 79
     5
176
     1
170
     0
176
     1
171
     0
176
     1
290
     0
176
     1
 93
        1
176
     1
 44
50.0
176
     1
173
     0
176
     1
  0
VISUALSTYLE
  5
3A
102
{ACAD_REACTORS
330
2A
102
}
330
2A
100
AcDbVisualStyle
  2
ColorChange
 70
    16
177
     2
291
     1
 71
     2
176
     1
 72
     2
176
     1
 73
     3
176
     1
 90
        0
176
     1
 40
-0.6
176
     1
 41
-30.0
176
     1
 62
     5
 63
     8
421
  8421504
176
     1
 74
     1
176
     1
 91
        4
176
     1
 64
     7
176
     1
 65
   257
176
     1
 75
     1
176
     1
175
     1
176
     1
 42
1.0
176
     1
 92
        8
176
     1
 66
     8
424
  8421504
176
     1
 43
1.0
176
     1
 76
     1
176
     1
 77
     6
176
     1
 78
     2
176
     1
 67
     7
176
     1
 79
     5
176
     1
170
     0
176
     1
171
     0
176
     1
290
     0
176
     1
 93
        1
176
     1
 44
0.0
176
     1
173
     0
176
     1
  0
VISUALSTYLE
  5
34
102
{ACAD_REACTORS
330
2A
102
}
330
2A
100
AcDbVisualStyle
  2
Conceptual
 70
     9
177
     2
291
     0
 71
     3
176
     1
 72
     2
176
     1
 73
     0
176
     1
 90
        0
176
     1
 40
-0.6
176
     1
 41
-30.0
176
     1
 62
     5
 63
     7
421
 16777215
176
     1
 74
     2
176
     1
 91
        2
176
     1
 64
     7
176
     1
 65
   257
176
     1
 75
     1
176
     1
175
     1
176
     1
 42
40.0
176
     1
 92
        8
176
     1
 66
     7
176
     1
 43
1.0
176
     1
 76
     1
176
     1
 77
     6
176
     1
 78
     2
176
     1
 67
     7
176
     1
 79
     3
176
     1
170
     0
176
     1
171
     0
176
     1
290
     0
176
     1
 93
        1
176
     1
 44
0.0
176
     1
173
     0
176
     1
  0
VISUALSTYLE
  5
35
102
{ACAD_REACTORS
330
2A
102
}
330
2A
100
AcDbVisualStyle
  2
Dim
 70
    11
177
     2
291
     1
 71
     2
176
     1
 72
     2
176
     1
 73
     0
176
     1
 90
        0
176
     1
 40
-0.6
176
     1
 41
-30.0
176
     1
 62
     5
 63
     7
421
 16777215
176
     1
 74
     1
176
     1
 91
        4
176
     1
 64
     7
176
     1
 65
   257
176
     1
 75
     1
176
     1
175
     1
176
     1
 42
1.0
176
     1
 92
        8
176
     1
 66
     7
176
     1
 43
1.0
176
     1
 76
     1
176
     1
 77
     6
176
     1
 78
     2
176
     1
 67
     7
176
     1
 79
     5
176
     1
170
     0
176
     1
171
     0
176
     1
290
     0
176
     1
 93
        1
176
     1
 44
-50.0
176
     1
173
     0
176
     1
  0
VISUALSTYLE
  5
39
102
{ACAD_REACTORS
330
2A
102
}
330
2A
100
AcDbVisualStyle
  2
Facepattern
 70
    15
177
     2
291
     1
 71
     2
176
     1
 72
     2
176
     1
 73
     0
176
     1
 90
        0
176
     1
 40
-0.6
176
     1
 41
-30.0
176
     1
 62
     5
 63
     7
421
 16777215
176
     1
 74
     1
176
     1
 91
        4
176
     1
 64
     7
176
     1
 65
   257
176
     1
 75
     1
176
     1
175
     1
176
     1
 42
1.0
176
     1
 92
        8
176
     1
 66
     7
176
     1
 43
1.0
176
     1
 76
     1
176
     1
 77
     6
176
     1
 78
     2
176
     1
 67
     7
176
     1
 79
     5
176
     1
170
     0
176
     1
171
     0
176
     1
290
     0
176
     1
 93
        1
176
     1
 44
0.0
176
     1
173
     0
176
     1
  0
VISUALSTYLE
  5
2B
102
{ACAD_REACTORS
330
2A
102
}
330
2A
100
AcDbVisualStyle
  2
Flat
 70
     0
177
     2
291
     1
 71
     2
176
     1
 72
     1
176
     1
 73
     1
176
     1
 90
        2
176
     1
 40
-0.6
176
     1
 41
30.0
176
     1
 62
     5
 63
     7
421
 16777215
176
     1
 74
     0
176
     1
 91
        4
176
     1
 64
     7
176
     1
 65
   257
176
     1
 75
     1
176
     1
175
     1
176
     1
 42
1.0
176
     1
 92
        8
176
     1
 66
     7
176
     1
 43
1.0
176
     1
 76
     1
176
     1
 77
     6
176
     1
 78
     2
176
     1
 67
     7
176
     1
 79
     5
176
     1
170
     0
176
     1
171
     0
176
     1
290
     0
176
     1
 93
       13
176
     1
 44
0.0
176
     1
173
     0
176
     1
  0
VISUALSTYLE
  5
2C
102
{ACAD_REACTORS
330
2A
102
}
330
2A
100
AcDbVisualStyle
  2
FlatWithEdges
 70
     1
177
     2
291
     1
 71
     2
176
     1
 72
     1
176
     1
 73
     1
176
     1
 90
        2
176
     1
 40
-0.6
176
     1
 41
30.0
176
     1
 62
     5
 63
     7
421
 16777215
176
     1
 74
     1
176
     1
 91
        4
176
     1
 64
     7
176
     1
 65
   257
176
     1
 75
     1
176
     1
175
     1
176
     1
 42
1.0
176
     1
 92
        0
176
     1
 66
   257
176
     1
 43
1.0
176
     1
 76
     1
176
     1
 77
     6
176
     1
 78
     2
176
     1
 67
     7
176
     1
 79
     5
176
     1
170
     0
176
     1
171
     0
176
     1
290
     0
176
     1
 93
       13
176
     1
 44
0.0
176
     1
173
     0
176
     1
  0
VISUALSTYLE
  5
2D
102
{ACAD_REACTORS
330
2A
102
}
330
2A
100
AcDbVisualStyle
  2
Gouraud
 70
     2
177
     2
291
     1
 71
     2
176
     1
 72
     2
176
     1
 73
     1
176
     1
 90
        2
176
     1
 40
-0.6
176
     1
 41
30.0
176
     1
 62
     5
 63
     7
421
 16777215
176
     1
 74
     0
176
     1
 91
        4
176
     1
 64
     7
176
     1
 65
   257
176
     1
 75
     1
176
     1
175
     1
176
     1
 42
1.0
176
     1
 92
        0
176
     1
 66
     7
176
     1
 43
1.0
176
     1
 76
     1
176
     1
 77
     6
176
     1
 78
     2
176
     1
 67
     7
176
     1
 79
     5
176
     1
170
     0
176
     1
171
     0
176
     1
290
     0
176
     1
 93
       13
176
     1
 44
0.0
176
     1
173
     0
176
     1
  0
VISUALSTYLE
  5
2E
102
{ACAD_REACTORS
330
2A
102
}
330
2A
100
AcDbVisualStyle
  2
GouraudWithEdges
 70
     3
177
     2
291
     1
 71
     2
176
     1
 72
     2
176
     1
 73
     1
176
     1
 90
        2
176
     1
 40
-0.6
176
     1
 41
30.0
176
     1
 62
     5
 63
     7
421
 16777215
176
     1
 74
     1
176
     1
 91
        4
176
     1
 64
     7
176
     1
 65
   257
176
     1
 75
     1
176
     1
175
     1
176
     1
 42
1.0
176
     1
 92
        0
176
     1
 66
   257
176
     1
 43
1.0
176
     1
 76
     1
176
     1
 77
     6
176
     1
 78
     2
176
     1
 67
     7
176
     1
 79
     5
176
     1
170
     0
176
     1
171
     0
176
     1
290
     0
176
     1
 93
       13
176
     1
 44
0.0
176
     1
173
     0
176
     1
  0
VISUALSTYLE
  5
38
102
{ACAD_REACTORS
330
2A
102
}
330
2A
100
AcDbVisualStyle
  2
Linepattern
 70
    14
177
     2
291
     1
 71
     2
176
     1
 72
     2
176
     1
 73
     0
176
     1
 90
        0
176
     1
 40
-0.6
176
     1
 41
-30.0
176
     1
 62
     5
 63
     7
421
 16777215
176
     1
 74
     1
176
     1
 91
        4
176
     1
 64
     7
176
     1
 65
   257
176
     1
 75
     7
176
     1
175
     7
176
     1
 42
1.0
176
     1
 92
        8
176
     1
 66
     7
176
     1
 43
1.0
176
     1
 76
     1
176
     1
 77
     6
176
     1
 78
     2
176
     1
 67
     7
176
     1
 79
     5
176
     1
170
     0
176
     1
171
     0
176
     1
290
     0
176
     1
 93
        1
176
     1
 44
0.0
176
     1
173
     0
176
     1
  0
VISUALSTYLE
  5
33
102
{ACAD_REACTORS
330
2A
102
}
330
2A
100
AcDbVisualStyle
  2
Realistic
 70
     8
177
     2
291
     0
 71
     2
176
     1
 72
     2
176
     1
 73
     0
176
     1
 90
        0
176
     1
 40
-0.6
176
     1
 41
-30.0
176
     1
 62
     5
 63
     7
421
 16777215
176
     1
 74
     1
176
     1
 91
        0
176
     1
 64
     7
176
     1
 65
   257
176
     1
 75
     1
176
     1
175
     1
176
     1
 42
1.0
176
     1
 92
        8
176
     1
 66
     8
424
  7895160
176
     1
 43
1.0
176
     1
 76
     1
176
     1
 77
     6
176
     1
 78
     2
176
     1
 67
     7
176
     1
 79
     5
176
     1
170
     0
176
     1
171
     0
176
     1
290
     0
176
     1
 93
       13
176
     1
 44
0.0
176
     1
173
     0
176
     1
  0
VISUALSTYLE
  5
37
102
{ACAD_REACTORS
330
2A
102
}
330
2A
100
AcDbVisualStyle
  2
Thicken
 70
    13
177
     2
291
     1
 71
     2
176
     1
 72
     2
176
     1
 73
     0
176
     1
 90
        0
176
     1
 40
-0.6
176
     1
 41
-30.0
176
     1
 62
     5
 63
     7
421
 16777215
176
     1
 74
     1
176
     1
 91
        4
176
     1
 64
     7
176
     1
 65
   257
176
     1
 75
     1
176
     1
175
     1
176
     1
 42
1.0
176
     1
 92
       12
176
     1
 66
     7
176
     1
 43
1.0
176
     1
 76
     1
176
     1
 77
     6
176
     1
 78
     2
176
     1
 67
     7
176
     1
 79
     5
176
     1
170
     0
176
     1
171
     0
176
     1
290
     0
176
     1
 93
        1
176
     1
 44
0.0
176
     1
173
     0
176
     1
  0
ENDSEC
  0
EOF
