  0
SECTION
  2
HEADER
  9
$ACADVER
  1
AC1009
  9
$INSBASE
 10
0.0
 20
0.0
 30
0.0
  9
$EXTMIN
 10
25.27801693922925
 20
33.261535221449257
 30
0.0
  9
$EXTMAX
 10
241.20660430761939
 20
172.9615352214492
 30
0.0
  9
$LIMMIN
 10
0.0
 20
0.0
  9
$LIMMAX
 10
420.0
 20
297.0
  9
$ORTHOMODE
 70
     1
  9
$REGENMODE
 70
     1
  9
$FILLMODE
 70
     1
  9
$QTEXTMODE
 70
     0
  9
$MIRRTEXT
 70
     0
  9
$DRAGMODE
 70
     2
  9
$LTSCALE
 40
1.0
  9
$OSMODE
 70
    39
  9
$ATTMODE
 70
     1
  9
$TEXTSIZE
 40
2.5
  9
$TRACEWID
 40
1.0
  9
$TEXTSTYLE
  7
STANDARD
  9
$CLAYER
  8
0
  9
$CELTYPE
  6
BYLAYER
  9
$CECOLOR
 62
   256
  9
$DIMSCALE
 40
1.0
  9
$DIMASZ
 40
2.5
  9
$DIMEXO
 40
0.625
  9
$DIMDLI
 40
3.75
  9
$DIMRND
 40
0.0
  9
$DIMDLE
 40
0.0
  9
$DIMEXE
 40
1.25
  9
$DIMTP
 40
0.0
  9
$DIMTM
 40
0.0
  9
$DIMTXT
 40
2.5
  9
$DIMCEN
 40
2.5
  9
$DIMTSZ
 40
0.0
  9
$DIMTOL
 70
     0
  9
$DIMLIM
 70
     0
  9
$DIMTIH
 70
     0
  9
$DIMTOH
 70
     0
  9
$DIMSE1
 70
     0
  9
$DIMSE2
 70
     0
  9
$DIMTAD
 70
     1
  9
$DIMZIN
 70
     8
  9
$DIMBLK
  1

  9
$DIMASO
 70
     1
  9
$DIMSHO
 70
     1
  9
$DIMPOST
  1

  9
$DIMAPOST
  1

  9
$DIMALT
 70
     0
  9
$DIMALTD
 70
     3
  9
$DIMALTF
 40
0.03937007874016
  9
$DIMLFAC
 40
1.0
  9
$DIMTOFL
 70
     1
  9
$DIMTVP
 40
0.0
  9
$DIMTIX
 70
     0
  9
$DIMSOXD
 70
     0
  9
$DIMSAH
 70
     0
  9
$DIMBLK1
  1

  9
$DIMBLK2
  1

  9
$DIMSTYLE
  2
ISO-25
  9
$DIMCLRD
 70
     0
  9
$DIMCLRE
 70
     0
  9
$DIMCLRT
 70
     0
  9
$DIMTFAC
 40
1.0
  9
$DIMGAP
 40
0.625
  9
$LUNITS
 70
     2
  9
$LUPREC
 70
     4
  9
$SKETCHINC
 40
1.0
  9
$FILLETRAD
 40
0.0
  9
$AUNITS
 70
     0
  9
$AUPREC
 70
     0
  9
$MENU
  1
.
  9
$ELEVATION
 40
0.0
  9
$PELEVATION
 40
0.0
  9
$THICKNESS
 40
0.0
  9
$LIMCHECK
 70
     0
  9
$BLIPMODE
 70
     0
  9
$CHAMFERA
 40
0.0
  9
$CHAMFERB
 40
0.0
  9
$SKPOLY
 70
     0
  9
$TDCREATE
 40
2456880.888038137
  9
$TDUPDATE
 40
2456899.9686934948
  9
$TDINDWG
 40
0.0155103588
  9
$TDUSRTIMER
 40
0.015509537
  9
$USRTIMER
 70
     1
  9
$ANGBASE
 50
0.0
  9
$ANGDIR
 70
     0
  9
$PDMODE
 70
     0
  9
$PDSIZE
 40
0.0
  9
$PLINEWID
 40
0.0
  9
$COORDS
 70
     1
  9
$SPLFRAME
 70
     0
  9
$SPLINETYPE
 70
     6
  9
$SPLINESEGS
 70
     8
  9
$ATTDIA
 70
     1
  9
$ATTREQ
 70
     1
  9
$HANDLING
 70
     1
  9
$HANDSEED
  5
C35
  9
$SURFTAB1
 70
     6
  9
$SURFTAB2
 70
     6
  9
$SURFTYPE
 70
     6
  9
$SURFU
 70
     6
  9
$SURFV
 70
     6
  9
$UCSNAME
  2

  9
$UCSORG
 10
0.0
 20
0.0
 30
0.0
  9
$UCSXDIR
 10
1.0
 20
0.0
 30
0.0
  9
$UCSYDIR
 10
0.0
 20
1.0
 30
0.0
  9
$PUCSNAME
  2

  9
$PUCSORG
 10
0.0
 20
0.0
 30
0.0
  9
$PUCSXDIR
 10
1.0
 20
0.0
 30
0.0
  9
$PUCSYDIR
 10
0.0
 20
1.0
 30
0.0
  9
$USERI1
 70
     0
  9
$USERI2
 70
     0
  9
$USERI3
 70
     0
  9
$USERI4
 70
     0
  9
$USERI5
 70
     0
  9
$USERR1
 40
0.0
  9
$USERR2
 40
0.0
  9
$USERR3
 40
0.0
  9
$USERR4
 40
0.0
  9
$USERR5
 40
0.0
  9
$WORLDVIEW
 70
     1
  9
$SHADEDGE
 70
     3
  9
$SHADEDIF
 70
    70
  9
$TILEMODE
 70
     1
  9
$MAXACTVP
 70
    64
  9
$PLIMCHECK
 70
     0
  9
$PEXTMIN
 10
0.0
 20
0.0
 30
0.0
  9
$PEXTMAX
 10
0.0
 20
0.0
 30
0.0
  9
$PLIMMIN
 10
0.0
 20
0.0
  9
$PLIMMAX
 10
12.0
 20
9.0
  9
$UNITMODE
 70
     0
  9
$VISRETAIN
 70
     1
  9
$PLINEGEN
 70
     0
  9
$PSLTSCALE
 70
     1
  0
ENDSEC
  0
SECTION
  2
TABLES
  0
TABLE
  2
VPORT
 70
     1
  0
VPORT
  2
*ACTIVE
 70
     0
 10
0.0
 20
0.0
 11
1.0
 21
1.0
 12
174.3754069657262
 22
110.0403132608344
 13
0.0
 23
0.0
 14
10.0
 24
10.0
 15
10.0
 25
10.0
 16
0.0
 26
0.0
 36
1.0
 17
0.0
 27
0.0
 37
0.0
 40
159.87530391173499
 41
1.9987515605493129
 42
50.0
 43
0.0
 44
0.0
 50
0.0
 51
0.0
 71
     0
 72
  1000
 73
     1
 74
     3
 75
     0
 76
     1
 77
     0
 78
     0
  0
ENDTAB
  0
TABLE
  2
LTYPE
 70
     2
  0
LTYPE
  2
CONTINUOUS
 70
     0
  3
Solid line
 72
    65
 73
     0
 40
0.0
  0
ENDTAB
  0
TABLE
  2
LAYER
 70
     1
  0
LAYER
  2
0
 70
     0
 62
     7
  6
CONTINUOUS
  0
ENDTAB
  0
TABLE
  2
STYLE
 70
     2
  0
STYLE
  2
STANDARD
 70
     0
 40
0.0
 41
1.0
 50
0.0
 71
     0
 42
2.5
  3
txt
  4

  0
ENDTAB
  0
TABLE
  2
VIEW
 70
     0
  0
ENDTAB
  0
TABLE
  2
UCS
 70
     0
  0
ENDTAB
  0
TABLE
  2
APPID
 70
     9
  0
APPID
  2
ACAD
 70
     0
  0
APPID
  2
ACAD_PSEXT
 70
     0
  0
APPID
  2
ACADANNOPO
 70
     0
  0
APPID
  2
ACADANNOTATIVE
 70
     0
  0
APPID
  2
ACAD_DSTYLE_DIMJAG
 70
     0
  0
APPID
  2
ACAD_DSTYLE_DIMTALN
 70
     0
  0
APPID
  2
ACAD_MLEADERVER
 70
     0
  0
APPID
  2
ACAD_NAV_VCDISPLAY
 70
     0
  0
APPID
  2
ACAD_EXEMPT_FROM_CAD_STANDARDS
 70
     0
  0
ENDTAB
  0
TABLE
  2
DIMSTYLE
 70
     4
  0
DIMSTYLE
  2
STANDARD
 70
     0
  3

  4

  5

  6

  7

 40
1.0
 41
0.18
 42
0.0625
 43
0.38
 44
0.18
 45
0.0
 46
0.0
 47
0.0
 48
0.0
140
0.18
141
0.09
142
0.0
143
25.399999999999999
144
1.0
145
0.0
146
1.0
147
0.09
 71
     0
 72
     0
 73
     1
 74
     1
 75
     0
 76
     0
 77
     0
 78
     0
170
     0
171
     2
172
     0
173
     0
174
     0
175
     0
176
     0
177
     0
178
     0
  0
DIMSTYLE
  2
ISO-25
 70
     0
  3

  4

  5

  6

  7

 40
1.0
 41
2.5
 42
0.625
 43
3.75
 44
1.25
 45
0.0
 46
0.0
 47
0.0
 48
0.0
140
2.5
141
2.5
142
0.0
143
0.03937007874016
144
1.0
145
0.0
146
1.0
147
0.625
 71
     0
 72
     0
 73
     0
 74
     0
 75
     0
 76
     0
 77
     1
 78
     8
170
     0
171
     3
172
     1
173
     0
174
     0
175
     0
176
     0
177
     0
178
     0
  0
ENDTAB
  0
ENDSEC
  0
SECTION
  2
BLOCKS
  0
BLOCK
  8
0
  2
$MODEL_SPACE
 70
     0
 10
0.0
 20
0.0
 30
0.0
  3
$MODEL_SPACE
  1

  0
ENDBLK
  5
21
  8
0
  0
BLOCK
 67
     1
  8
0
  2
$PAPER_SPACE
 70
     0
 10
0.0
 20
0.0
 30
0.0
  3
$PAPER_SPACE
  1

  0
ENDBLK
  5
D5
 67
     1
  8
0
  0
ENDSEC
  0
SECTION
  2
ENTITIES
  0
LINE
  5
244
  8
0
 10
25.27801693922925
 20
33.261535221449321
 30
0.0
 11
210.31900902640851
 21
33.261535221449272
 31
0.0
  0
LINE
  5
245
  8
0
 10
133.22801693922929
 20
34.261535221449321
 30
0.0
 11
133.22801693922929
 21
171.9615352214492
 31
0.0
  0
LINE
  5
246
  8
0
 10
210.30726890657061
 20
172.9615352214492
 30
0.0
 11
25.2780169392293
 21
172.9615352214492
 31
0.0
  0
LINE
  5
247
  8
0
 10
25.2780169392293
 20
172.9615352214492
 30
0.0
 11
25.27801693922925
 21
33.261535221449321
 31
0.0
  0
ARC
  5
680
  8
0
 10
210.30726890657061
 20
168.9039707553984
 30
0.0
 40
2.3962121963436989
 50
36.111072619662792
 51
136.48357275571939
  0
ARC
  5
681
  8
0
 10
210.30726890657061
 20
169.15061367344919
 30
0.0
 40
3.8109215479999992
 50
41.442904152764001
 51
90.0
  0
LINE
  5
682
  8
0
 10
208.8073192481564
 20
166.8803923945176
 30
0.0
 11
213.14762971974349
 21
164.02637556431591
 31
0.0
  0
LINE
  5
683
  8
0
 10
208.8073192481564
 20
165.03862414713981
 30
0.0
 11
213.14762971974349
 21
162.18460731693821
 31
0.0
  0
LINE
  5
684
  8
0
 10
208.8073192481564
 20
161.1669394771354
 30
0.0
 11
213.14762971974349
 21
158.31292264693371
 31
0.0
  0
ARC
  5
687
  8
0
 10
210.2195328806919
 20
163.10278181213749
 30
0.0
 40
2.3962121963436989
 50
126.1110726196613
 51
233.8889273803384
  0
ARC
  5
688
  8
0
 10
210.21953288069199
 20
168.81623472951981
 30
0.0
 40
2.3962121963436989
 50
133.51642724427819
 51
233.8889273803384
  0
ARC
  5
689
  8
0
 10
221.7341747413351
 20
168.9039707553986
 30
0.0
 40
2.3962121963436989
 50
36.111072619662792
 51
143.88892738033721
  0
ARC
  5
68A
  8
0
 10
221.7341747413351
 20
163.04777707729559
 30
0.0
 40
2.3962121963436989
 50
216.11107261966279
 51
323.88892738033718
  0
ARC
  5
68B
  8
0
 10
216.0207218239529
 20
168.9039707553984
 30
0.0
 40
2.3962121963436989
 50
36.111072619662792
 51
143.88892738033721
  0
LINE
  5
68C
  8
0
 10
215.4348865308007
 20
163.68861710528969
 30
0.0
 11
216.93889631915229
 21
165.97587391634721
 31
0.0
  0
LINE
  5
68D
  8
0
 10
215.4348865308007
 20
163.68861710528969
 30
0.0
 11
213.14762971974309
 21
162.18460731693821
 31
0.0
  0
LINE
  5
68E
  8
0
 10
214.32375470776799
 20
164.7997489283224
 30
0.0
 11
215.09712807177451
 21
165.97587391634721
 31
0.0
  0
LINE
  5
68F
  8
0
 10
214.32375470776799
 20
164.7997489283224
 30
0.0
 11
213.14762971974309
 21
164.02637556431591
 31
0.0
  0
LINE
  5
690
  8
0
 10
219.79833240633289
 20
161.63556344476001
 30
0.0
 11
222.65234923653449
 21
165.97587391634721
 31
0.0
  0
LINE
  5
691
  8
0
 10
217.770659259924
 20
161.35284437616659
 30
0.0
 11
220.8105809891567
 21
165.97587391634721
 31
0.0
  0
LINE
  5
692
  8
0
 10
217.770659259924
 20
161.35284437616659
 30
0.0
 11
213.14762971974329
 21
158.31292264693371
 31
0.0
  0
LINE
  5
693
  8
0
 10
214.08487948895061
 20
170.3161843879341
 30
0.0
 11
216.93889631915229
 21
165.9758739163469
 31
0.0
  0
LINE
  5
694
  8
0
 10
212.2431112415729
 20
170.3161843879341
 30
0.0
 11
215.09712807177451
 21
165.9758739163469
 31
0.0
  0
LINE
  5
695
  8
0
 10
217.9565641589551
 20
170.3161843879341
 30
0.0
 11
220.8105809891567
 21
165.9758739163469
 31
0.0
  0
LINE
  5
696
  8
0
 10
219.79833240633289
 20
170.3161843879341
 30
0.0
 11
222.65234923653449
 21
165.9758739163469
 31
0.0
  0
ARC
  5
6A0
  8
0
 10
221.7341747413351
 20
169.15061367344919
 30
0.0
 40
3.8109215479999992
 50
59.47114453697737
 51
138.55709584723709
  0
ARC
  5
6A1
  8
0
 10
216.0207218239529
 20
169.15061367344919
 30
0.0
 40
3.8109215479999992
 50
41.442904152764001
 51
138.55709584723709
  0
LINE
  5
734
  8
0
 10
217.48794019133021
 20
144.02658072498889
 30
0.0
 11
213.14762971974309
 21
141.17256389478729
 31
0.0
  0
LINE
  5
736
  8
0
 10
208.8073192481562
 20
144.02658072498889
 30
0.0
 11
213.14762971974329
 21
141.17256389478729
 31
0.0
  0
LINE
  5
737
  8
0
 10
208.8073192481562
 20
147.89826539499339
 30
0.0
 11
213.14762971974329
 21
145.0442485647919
 31
0.0
  0
LINE
  5
738
  8
0
 10
208.8073192481562
 20
149.7400336423712
 30
0.0
 11
213.14762971974329
 21
146.88601681216949
 31
0.0
  0
LINE
  5
739
  8
0
 10
208.80731924815629
 20
155.4534865597534
 30
0.0
 11
213.14762971974349
 21
152.5994697295518
 31
0.0
  0
LINE
  5
73A
  8
0
 10
208.8073192481562
 20
153.6117183123757
 30
0.0
 11
213.14762971974349
 21
150.75770148217401
 31
0.0
  0
LINE
  5
73B
  8
0
 10
208.80731924815629
 20
159.3251712297579
 30
0.0
 11
213.14762971974349
 21
156.4711543995563
 31
0.0
  0
ARC
  5
73D
  8
0
 10
210.2195328806919
 20
157.38932889475561
 30
0.0
 40
2.3962121963436989
 50
126.1110726196613
 51
233.8889273803384
  0
ARC
  5
73E
  8
0
 10
210.2195328806919
 20
145.9624230599911
 30
0.0
 40
2.3962121963436989
 50
126.1110726196613
 51
233.8889273803384
  0
ARC
  5
741
  8
0
 10
210.2195328806919
 20
151.67587597737329
 30
0.0
 40
2.3962121963436989
 50
126.1110726196613
 51
233.8889273803384
  0
LINE
  5
742
  8
0
 10
217.4879401913303
 20
159.3251712297579
 30
0.0
 11
213.14762971974321
 21
156.4711543995563
 31
0.0
  0
ARC
  5
743
  8
0
 10
216.07572655879491
 20
157.38932889475561
 30
0.0
 40
2.3962121963436989
 50
306.11107261966129
 51
53.888927380338721
  0
ARC
  5
744
  8
0
 10
216.07572655879471
 20
145.9624230599911
 30
0.0
 40
2.3962121963436989
 50
306.11107261966129
 51
53.888927380338721
  0
LINE
  5
745
  8
0
 10
217.48794019133021
 20
147.89826539499339
 30
0.0
 11
213.14762971974289
 21
145.0442485647919
 31
0.0
  0
LINE
  5
746
  8
0
 10
217.48794019133049
 20
149.7400336423712
 30
0.0
 11
213.14762971974321
 21
146.88601681216949
 31
0.0
  0
LINE
  5
747
  8
0
 10
217.4879401913303
 20
155.4534865597534
 30
0.0
 11
213.14762971974321
 21
152.5994697295518
 31
0.0
  0
LINE
  5
748
  8
0
 10
217.4879401913303
 20
153.6117183123757
 30
0.0
 11
213.14762971974321
 21
150.75770148217401
 31
0.0
  0
ARC
  5
749
  8
0
 10
216.07572655879491
 20
151.67587597737329
 30
0.0
 40
2.3962121963436989
 50
306.11107261966129
 51
53.888927380338721
  0
LINE
  5
74A
  8
0
 10
217.4879401913303
 20
85.050283303788859
 30
0.0
 11
213.14762971974321
 21
87.904300133990503
 31
0.0
  0
LINE
  5
74C
  8
0
 10
208.80731924815609
 20
85.050283303788859
 30
0.0
 11
213.14762971974329
 21
87.904300133990503
 31
0.0
  0
LINE
  5
74E
  8
0
 10
208.80731924815609
 20
115.4593161380777
 30
0.0
 11
213.14762971974329
 21
112.60529930787609
 31
0.0
  0
LINE
  5
74F
  8
0
 10
217.4879401913303
 20
115.4593161380777
 30
0.0
 11
213.14762971974321
 21
112.60529930787609
 31
0.0
  0
LINE
  5
750
  8
0
 10
208.80731924815609
 20
119.33100080808219
 30
0.0
 11
213.14762971974329
 21
116.47698397788059
 31
0.0
  0
LINE
  5
751
  8
0
 10
208.80731924815609
 20
121.1727690554599
 30
0.0
 11
213.14762971974329
 21
118.31875222525829
 31
0.0
  0
LINE
  5
752
  8
0
 10
208.8073192481562
 20
136.4713595602289
 30
0.0
 11
213.14762971974329
 21
133.61734273002739
 31
0.0
  0
LINE
  5
753
  8
0
 10
208.8073192481562
 20
138.31312780760669
 30
0.0
 11
213.14762971974329
 21
135.45911097740509
 31
0.0
  0
LINE
  5
754
  8
0
 10
208.8073192481562
 20
142.18481247761119
 30
0.0
 11
213.14762971974329
 21
139.3307956474095
 31
0.0
  0
LINE
  5
755
  8
0
 10
208.8073192481562
 20
132.59967489022441
 30
0.0
 11
213.14762971974329
 21
129.74565806002281
 31
0.0
  0
LINE
  5
756
  8
0
 10
208.80731924815609
 20
130.75790664284659
 30
0.0
 11
213.14762971974329
 21
127.90388981264501
 31
0.0
  0
LINE
  5
757
  8
0
 10
208.80731924815609
 20
126.88622197284219
 30
0.0
 11
213.14762971974329
 21
124.03220514264071
 31
0.0
  0
LINE
  5
758
  8
0
 10
208.80731924815609
 20
125.04445372546439
 30
0.0
 11
213.14762971974329
 21
122.19043689526291
 31
0.0
  0
ARC
  5
759
  8
0
 10
210.21953288069179
 20
128.8220643078445
 30
0.0
 40
2.3962121963436989
 50
126.1110726196613
 51
233.8889273803384
  0
ARC
  5
75B
  8
0
 10
210.21953288069179
 20
134.53551722522661
 30
0.0
 40
2.3962121963436989
 50
126.1110726196613
 51
233.8889273803384
  0
ARC
  5
75C
  8
0
 10
210.2195328806919
 20
140.24897014260901
 30
0.0
 40
2.3962121963436989
 50
126.1110726196613
 51
233.8889273803384
  0
ARC
  5
75F
  8
0
 10
210.21953288069179
 20
117.3951584730799
 30
0.0
 40
2.3962121963436989
 50
126.1110726196613
 51
233.8889273803384
  0
ARC
  5
760
  8
0
 10
210.21953288069179
 20
123.1086113904621
 30
0.0
 40
2.3962121963436989
 50
126.1110726196613
 51
233.8889273803384
  0
ARC
  5
762
  8
0
 10
216.0757265587948
 20
128.8220643078445
 30
0.0
 40
2.3962121963436989
 50
306.11107261966129
 51
53.888927380338721
  0
LINE
  5
763
  8
0
 10
217.48794019133021
 20
130.75790664284659
 30
0.0
 11
213.14762971974309
 21
127.90388981264501
 31
0.0
  0
ARC
  5
764
  8
0
 10
216.0757265587948
 20
134.53551722522661
 30
0.0
 40
2.3962121963436989
 50
306.11107261966129
 51
53.888927380338721
  0
LINE
  5
765
  8
0
 10
217.48794019133021
 20
136.4713595602289
 30
0.0
 11
213.14762971974309
 21
133.61734273002739
 31
0.0
  0
LINE
  5
766
  8
0
 10
217.48794019133021
 20
132.59967489022441
 30
0.0
 11
213.14762971974309
 21
129.74565806002281
 31
0.0
  0
ARC
  5
767
  8
0
 10
216.07572655879471
 20
140.24897014260901
 30
0.0
 40
2.3962121963436989
 50
306.11107261966129
 51
53.888927380338721
  0
LINE
  5
768
  8
0
 10
217.48794019133021
 20
142.18481247761119
 30
0.0
 11
213.14762971974309
 21
139.3307956474095
 31
0.0
  0
LINE
  5
769
  8
0
 10
217.48794019133021
 20
138.31312780760669
 30
0.0
 11
213.14762971974309
 21
135.45911097740509
 31
0.0
  0
LINE
  5
76A
  8
0
 10
217.4879401913303
 20
119.33100080808209
 30
0.0
 11
213.14762971974321
 21
116.47698397788059
 31
0.0
  0
ARC
  5
76B
  8
0
 10
216.0757265587948
 20
117.3951584730799
 30
0.0
 40
2.3962121963436989
 50
306.11107261966129
 51
53.888927380338721
  0
LINE
  5
76C
  8
0
 10
217.4879401913303
 20
121.1727690554599
 30
0.0
 11
213.14762971974321
 21
118.31875222525829
 31
0.0
  0
LINE
  5
76D
  8
0
 10
217.4879401913303
 20
126.88622197284219
 30
0.0
 11
213.14762971974309
 21
124.03220514264071
 31
0.0
  0
ARC
  5
76E
  8
0
 10
216.0757265587948
 20
123.1086113904621
 30
0.0
 40
2.3962121963436989
 50
306.11107261966129
 51
53.888927380338721
  0
LINE
  5
76F
  8
0
 10
217.4879401913303
 20
125.04445372546439
 30
0.0
 11
213.14762971974321
 21
122.19043689526291
 31
0.0
  0
LINE
  5
770
  8
0
 10
208.80731924815609
 20
96.477189138553356
 30
0.0
 11
213.14762971974329
 21
99.331205968754887
 31
0.0
  0
LINE
  5
771
  8
0
 10
208.80731924815609
 20
92.605504468548872
 30
0.0
 11
213.14762971974329
 21
95.459521298750516
 31
0.0
  0
LINE
  5
772
  8
0
 10
208.80731924815589
 20
98.318957385931114
 30
0.0
 11
213.14762971974321
 21
101.1729742161327
 31
0.0
  0
LINE
  5
773
  8
0
 10
208.80731924815609
 20
86.892051551166631
 30
0.0
 11
213.14762971974329
 21
89.746068381368161
 31
0.0
  0
LINE
  5
774
  8
0
 10
208.80731924815609
 20
90.763736221171101
 30
0.0
 11
213.14762971974329
 21
93.617753051372745
 31
0.0
  0
LINE
  5
775
  8
0
 10
208.80731924815589
 20
107.9040949733177
 30
0.0
 11
213.14762971974321
 21
105.0500781431159
 31
0.0
  0
LINE
  5
776
  8
0
 10
208.80731924815609
 20
113.6175478906999
 30
0.0
 11
213.14762971974329
 21
110.76353106049829
 31
0.0
  0
LINE
  5
777
  8
0
 10
208.80731924815609
 20
109.7458632206955
 30
0.0
 11
213.14762971974329
 21
106.8918463904939
 31
0.0
  0
ARC
  5
779
  8
0
 10
210.2195328806915
 20
100.25479972093331
 30
0.0
 40
2.3962121963436989
 50
126.1110726196613
 51
233.8889273803384
  0
LINE
  5
77A
  8
0
 10
208.80731924815589
 20
102.1906420559355
 30
0.0
 11
210.20777455131631
 21
103.11152617962431
 31
0.0
  0
LINE
  5
77B
  8
0
 10
208.80731924815589
 20
104.0324103033132
 30
0.0
 11
210.20777455131631
 21
103.11152617962441
 31
0.0
  0
ARC
  5
77C
  8
0
 10
210.2195328806915
 20
105.96825263831551
 30
0.0
 40
2.3962121963436989
 50
126.1110726196613
 51
233.8889273803384
  0
ARC
  5
77E
  8
0
 10
210.21953288069179
 20
111.6817055556978
 30
0.0
 40
2.3962121963436989
 50
126.1110726196613
 51
233.8889273803384
  0
ARC
  5
77F
  8
0
 10
210.2195328806917
 20
94.54134680355105
 30
0.0
 40
2.3962121963436989
 50
126.1110726196613
 51
233.8889273803384
  0
ARC
  5
780
  8
0
 10
210.2195328806917
 20
88.827893886168923
 30
0.0
 40
2.3962121963436989
 50
126.1110726196613
 51
233.8889273803384
  0
ARC
  5
782
  8
0
 10
216.0757265587948
 20
100.25479972093331
 30
0.0
 40
2.3962121963436989
 50
306.11107261966129
 51
53.888927380338721
  0
LINE
  5
783
  8
0
 10
217.4879401913303
 20
98.318957385931114
 30
0.0
 11
213.14762971974309
 21
101.1729742161327
 31
0.0
  0
LINE
  5
784
  8
0
 10
217.4879401913303
 20
102.1906420559355
 30
0.0
 11
216.08748488816991
 21
103.11152617962431
 31
0.0
  0
LINE
  5
785
  8
0
 10
217.4879401913303
 20
107.9040949733176
 30
0.0
 11
213.14762971974309
 21
105.0500781431159
 31
0.0
  0
LINE
  5
786
  8
0
 10
217.4879401913303
 20
104.0324103033132
 30
0.0
 11
216.08748488816991
 21
103.11152617962441
 31
0.0
  0
ARC
  5
787
  8
0
 10
216.0757265587948
 20
105.96825263831551
 30
0.0
 40
2.3962121963436989
 50
306.11107261966129
 51
53.888927380338721
  0
LINE
  5
788
  8
0
 10
217.4879401913303
 20
113.6175478906999
 30
0.0
 11
213.14762971974321
 21
110.76353106049829
 31
0.0
  0
ARC
  5
789
  8
0
 10
216.0757265587948
 20
111.6817055556978
 30
0.0
 40
2.3962121963436989
 50
306.11107261966129
 51
53.888927380338721
  0
LINE
  5
78A
  8
0
 10
217.4879401913303
 20
109.7458632206954
 30
0.0
 11
213.14762971974321
 21
106.8918463904939
 31
0.0
  0
LINE
  5
78B
  8
0
 10
217.4879401913303
 20
96.477189138553356
 30
0.0
 11
213.14762971974321
 21
99.331205968754887
 31
0.0
  0
ARC
  5
78C
  8
0
 10
216.07572655879471
 20
94.54134680355105
 30
0.0
 40
2.3962121963436989
 50
306.11107261966129
 51
53.888927380338721
  0
LINE
  5
78D
  8
0
 10
217.4879401913303
 20
92.605504468548872
 30
0.0
 11
213.14762971974321
 21
95.459521298750516
 31
0.0
  0
ARC
  5
78E
  8
0
 10
216.07572655879471
 20
88.827893886168923
 30
0.0
 40
2.3962121963436989
 50
306.11107261966129
 51
53.888927380338721
  0
LINE
  5
78F
  8
0
 10
217.4879401913303
 20
86.892051551166631
 30
0.0
 11
213.14762971974321
 21
89.746068381368161
 31
0.0
  0
LINE
  5
790
  8
0
 10
217.4879401913303
 20
90.763736221171101
 30
0.0
 11
213.14762971974321
 21
93.617753051372745
 31
0.0
  0
LINE
  5
791
  8
0
 10
217.48794019133049
 20
56.483018716877659
 30
0.0
 11
213.14762971974321
 21
59.337035547079289
 31
0.0
  0
LINE
  5
793
  8
0
 10
208.8073192481562
 20
56.483018716877659
 30
0.0
 11
213.14762971974329
 21
59.337035547079289
 31
0.0
  0
LINE
  5
794
  8
0
 10
208.80731924815609
 20
81.178598633784404
 30
0.0
 11
213.14762971974329
 21
84.03261546398592
 31
0.0
  0
LINE
  5
795
  8
0
 10
208.80731924815609
 20
79.336830386406618
 30
0.0
 11
213.14762971974329
 21
82.190847216608148
 31
0.0
  0
LINE
  5
796
  8
0
 10
208.80731924815609
 20
75.465145716402148
 30
0.0
 11
213.14762971974329
 21
78.319162546603792
 31
0.0
  0
LINE
  5
797
  8
0
 10
208.8073192481562
 20
73.623377469024376
 30
0.0
 11
213.14762971974329
 21
76.47739429922602
 31
0.0
  0
LINE
  5
798
  8
0
 10
208.8073192481562
 20
64.038239881637679
 30
0.0
 11
213.14762971974329
 21
66.892256711839309
 31
0.0
  0
LINE
  5
799
  8
0
 10
208.8073192481562
 20
67.909924551642135
 30
0.0
 11
213.14762971974329
 21
70.763941381843665
 31
0.0
  0
LINE
  5
79A
  8
0
 10
208.8073192481562
 20
69.751692799019906
 30
0.0
 11
213.14762971974329
 21
72.605709629221437
 31
0.0
  0
LINE
  5
79B
  8
0
 10
208.8073192481562
 20
58.324786964255431
 30
0.0
 11
213.14762971974329
 21
61.178803794456968
 31
0.0
  0
LINE
  5
79C
  8
0
 10
208.8073192481562
 20
62.1964716342599
 30
0.0
 11
213.14762971974329
 21
65.050488464461537
 31
0.0
  0
ARC
  5
79E
  8
0
 10
210.2195328806917
 20
71.687535134022198
 30
0.0
 40
2.3962121963436989
 50
126.1110726196613
 51
233.8889273803384
  0
ARC
  5
7A0
  8
0
 10
210.2195328806917
 20
83.114440968786681
 30
0.0
 40
2.3962121963436989
 50
126.1110726196613
 51
233.8889273803384
  0
ARC
  5
7A2
  8
0
 10
210.2195328806917
 20
77.400988051404326
 30
0.0
 40
2.3962121963436989
 50
126.1110726196613
 51
233.8889273803384
  0
ARC
  5
7A3
  8
0
 10
210.21953288069179
 20
65.974082216639857
 30
0.0
 40
2.3962121963436989
 50
126.1110726196613
 51
233.8889273803384
  0
ARC
  5
7A4
  8
0
 10
210.21953288069179
 20
60.260629299257722
 30
0.0
 40
2.3962121963436989
 50
126.1110726196613
 51
233.8889273803384
  0
LINE
  5
7A6
  8
0
 10
217.48794019133021
 20
69.751692799019906
 30
0.0
 11
213.14762971974309
 21
72.605709629221437
 31
0.0
  0
ARC
  5
7A7
  8
0
 10
216.07572655879471
 20
71.687535134022198
 30
0.0
 40
2.3962121963436989
 50
306.11107261966129
 51
53.888927380338721
  0
LINE
  5
7A8
  8
0
 10
217.4879401913303
 20
81.178598633784404
 30
0.0
 11
213.14762971974321
 21
84.03261546398592
 31
0.0
  0
ARC
  5
7A9
  8
0
 10
216.07572655879471
 20
83.114440968786681
 30
0.0
 40
2.3962121963436989
 50
306.11107261966129
 51
53.888927380338721
  0
LINE
  5
7AA
  8
0
 10
217.4879401913303
 20
79.336830386406618
 30
0.0
 11
213.14762971974309
 21
82.190847216608148
 31
0.0
  0
LINE
  5
7AB
  8
0
 10
217.48794019133021
 20
73.623377469024376
 30
0.0
 11
213.14762971974309
 21
76.47739429922602
 31
0.0
  0
LINE
  5
7AC
  8
0
 10
217.48794019133021
 20
75.465145716402148
 30
0.0
 11
213.14762971974309
 21
78.319162546603792
 31
0.0
  0
ARC
  5
7AD
  8
0
 10
216.07572655879471
 20
77.400988051404326
 30
0.0
 40
2.3962121963436989
 50
306.11107261966129
 51
53.888927380338721
  0
LINE
  5
7AE
  8
0
 10
217.48794019133021
 20
67.909924551642135
 30
0.0
 11
213.14762971974309
 21
70.763941381843665
 31
0.0
  0
LINE
  5
7AF
  8
0
 10
217.48794019133021
 20
64.038239881637679
 30
0.0
 11
213.14762971974309
 21
66.892256711839309
 31
0.0
  0
ARC
  5
7B0
  8
0
 10
216.0757265587946
 20
65.974082216639857
 30
0.0
 40
2.3962121963436989
 50
306.11107261966129
 51
53.888927380338721
  0
LINE
  5
7B1
  8
0
 10
217.48794019133021
 20
58.324786964255431
 30
0.0
 11
213.14762971974289
 21
61.178803794456968
 31
0.0
  0
ARC
  5
7B2
  8
0
 10
216.0757265587946
 20
60.260629299257722
 30
0.0
 40
2.3962121963436989
 50
306.11107261966129
 51
53.888927380338721
  0
LINE
  5
7B3
  8
0
 10
217.48794019133021
 20
62.1964716342599
 30
0.0
 11
213.14762971974309
 21
65.050488464461537
 31
0.0
  0
LINE
  5
7B4
  8
0
 10
208.80731924815629
 20
46.897881129490948
 30
0.0
 11
213.14762971974349
 21
49.751897959692592
 31
0.0
  0
LINE
  5
7B5
  8
0
 10
208.8073192481562
 20
52.611334046873203
 30
0.0
 11
213.14762971974349
 21
55.465350877074833
 31
0.0
  0
LINE
  5
7B6
  8
0
 10
208.80731924815629
 20
50.76956579949541
 30
0.0
 11
213.14762971974349
 21
53.623582629697047
 31
0.0
  0
ARC
  5
7B7
  8
0
 10
210.21953288069179
 20
54.547176381875481
 30
0.0
 40
2.3962121963436989
 50
126.1110726196613
 51
233.8889273803384
  0
ARC
  5
7B9
  8
0
 10
210.21953288069179
 20
48.833723464493232
 30
0.0
 40
2.3962121963436989
 50
126.1110726196613
 51
233.8889273803384
  0
ARC
  5
7BB
  8
0
 10
216.0757265587948
 20
54.547176381875481
 30
0.0
 40
2.3962121963436989
 50
306.11107261966129
 51
53.888927380338721
  0
LINE
  5
7BC
  8
0
 10
217.4879401913303
 20
52.611334046873203
 30
0.0
 11
213.14762971974321
 21
55.465350877074833
 31
0.0
  0
LINE
  5
7BD
  8
0
 10
217.4879401913303
 20
50.76956579949541
 30
0.0
 11
213.14762971974321
 21
53.623582629697047
 31
0.0
  0
ARC
  5
7BE
  8
0
 10
216.0757265587948
 20
48.833723464493232
 30
0.0
 40
2.3962121963436989
 50
306.11107261966129
 51
53.888927380338721
  0
LINE
  5
7BF
  8
0
 10
217.4879401913303
 20
46.897881129490948
 30
0.0
 11
213.14762971974321
 21
49.751897959692592
 31
0.0
  0
ARC
  5
7C3
  8
0
 10
210.21953288069199
 20
37.40681762972897
 30
0.0
 40
2.3962121963436989
 50
126.1110726196613
 51
226.48357275572181
  0
ARC
  5
7C4
  8
0
 10
210.2195328806919
 20
43.120270547111211
 30
0.0
 40
2.3962121963436989
 50
126.1110726196613
 51
233.8889273803384
  0
ARC
  5
7C5
  8
0
 10
210.30726890657061
 20
37.072438685799547
 30
0.0
 40
3.8109215479999992
 50
269.82349141198921
 51
318.55709584723598
  0
LINE
  5
7CC
  8
0
 10
217.770659259924
 20
44.870207983082139
 30
0.0
 11
220.8105809891567
 21
40.2471784429015
 31
0.0
  0
LINE
  5
7CD
  8
0
 10
219.79833240633289
 20
44.587488914488688
 30
0.0
 11
222.65234923653449
 21
40.2471784429015
 31
0.0
  0
LINE
  5
7CE
  8
0
 10
214.32375470776799
 20
41.423303430926367
 30
0.0
 11
213.14762971974309
 21
42.196676794932792
 31
0.0
  0
LINE
  5
7CF
  8
0
 10
215.4348865308007
 20
42.534435253959018
 30
0.0
 11
216.93889631915229
 21
40.2471784429015
 31
0.0
  0
LINE
  5
7D0
  8
0
 10
208.8073192481564
 20
41.184428212108926
 30
0.0
 11
213.14762971974349
 21
44.038445042310563
 31
0.0
  0
LINE
  5
7D1
  8
0
 10
208.8073192481564
 20
39.342659964731148
 30
0.0
 11
213.14762971974349
 21
42.196676794932792
 31
0.0
  0
ARC
  5
7D2
  8
0
 10
221.7341747413351
 20
43.175275281953162
 30
0.0
 40
2.3962121963436989
 50
36.111072619662792
 51
143.88892738033721
  0
LINE
  5
7D3
  8
0
 10
215.4348865308007
 20
42.534435253959018
 30
0.0
 11
213.14762971974309
 21
44.038445042310563
 31
0.0
  0
ARC
  5
7D6
  8
0
 10
221.7341747413351
 20
37.072438685799547
 30
0.0
 40
3.8109215479999992
 50
221.44290415276279
 51
300.5288554630236
  0
LINE
  5
7D7
  8
0
 10
219.79833240633289
 20
35.906867971314661
 30
0.0
 11
222.65234923653449
 21
40.247178442901827
 31
0.0
  0
ARC
  5
7D8
  8
0
 10
221.7341747413351
 20
37.319081603850179
 30
0.0
 40
2.3962121963436989
 50
216.11107261966279
 51
323.88892738033718
  0
ARC
  5
7D9
  8
0
 10
216.0207218239529
 20
37.072438685799547
 30
0.0
 40
3.8109215479999992
 50
221.44290415276279
 51
318.55709584723598
  0
LINE
  5
7DA
  8
0
 10
217.9565641589551
 20
35.906867971314661
 30
0.0
 11
220.8105809891567
 21
40.247178442901827
 31
0.0
  0
LINE
  5
7DB
  8
0
 10
212.2431112415729
 20
35.906867971314661
 30
0.0
 11
215.09712807177451
 21
40.247178442901827
 31
0.0
  0
LINE
  5
7DC
  8
0
 10
214.08487948895061
 20
35.906867971314661
 30
0.0
 11
216.93889631915229
 21
40.247178442901827
 31
0.0
  0
LINE
  5
7DD
  8
0
 10
214.32375470776799
 20
41.423303430926367
 30
0.0
 11
215.09712807177451
 21
40.2471784429015
 31
0.0
  0
ARC
  5
7DE
  8
0
 10
216.0207218239529
 20
37.319081603850293
 30
0.0
 40
2.3962121963436989
 50
216.11107261966279
 51
323.88892738033718
  0
ARC
  5
7DF
  8
0
 10
210.30726890657061
 20
37.319081603850293
 30
0.0
 40
2.3962121963436989
 50
223.51642724428049
 51
323.88892738033718
  0
LINE
  5
872
  8
0
 10
217.770659259924
 20
44.870207983082139
 30
0.0
 11
213.14762971974329
 21
47.910129712315033
 31
0.0
  0
LINE
  5
873
  8
0
 10
208.8073192481564
 20
45.056112882113389
 30
0.0
 11
213.14762971974349
 21
47.910129712315033
 31
0.0
  0
ARC
  5
947
  8
0
 10
221.73417474133529
 20
162.80113415924509
 30
0.0
 40
3.8109215479999992
 50
221.44290415276279
 51
300.52885546302173
  0
ARC
  5
96E
  8
0
 10
216.32236947684649
 20
140.2489701426089
 30
0.0
 40
3.8109215479999992
 50
11.536959032818119
 51
48.557095847238386
  0
ARC
  5
96F
  8
0
 10
216.32236947684541
 20
157.38932889475529
 30
0.0
 40
3.8109215479999992
 50
311.44290415276163
 51
348.46304096718819
  0
ARC
  5
970
  8
0
 10
216.32236947684541
 20
157.38932889475529
 30
0.0
 40
3.8109215479999992
 50
11.536959032818119
 51
48.557095847238386
  0
ARC
  5
971
  8
0
 10
216.32236947684621
 20
145.96242305999101
 30
0.0
 40
3.8109215479999992
 50
11.536959032818119
 51
48.557095847238386
  0
ARC
  5
972
  8
0
 10
216.32236947684621
 20
145.96242305999101
 30
0.0
 40
3.8109215479999992
 50
311.44290415276163
 51
348.46304096718819
  0
ARC
  5
973
  8
0
 10
216.32236947684569
 20
151.6758759773731
 30
0.0
 40
3.8109215479999992
 50
311.44290415276163
 51
348.46304096718819
  0
ARC
  5
974
  8
0
 10
216.32236947684569
 20
151.6758759773731
 30
0.0
 40
3.8109215479999992
 50
11.536959032818119
 51
48.557095847238386
  0
ARC
  5
975
  8
0
 10
216.3223694768497
 20
83.114440968787548
 30
0.0
 40
3.8109215479999992
 50
11.536959032818119
 51
48.557095847238386
  0
ARC
  5
976
  8
0
 10
216.3223694768497
 20
88.82789388616979
 30
0.0
 40
3.8109215479999992
 50
311.44290415276163
 51
348.46304096718819
  0
ARC
  5
977
  8
0
 10
216.32236947684839
 20
111.6817055556984
 30
0.0
 40
3.8109215479999992
 50
11.536959032818119
 51
48.557095847238386
  0
ARC
  5
978
  8
0
 10
216.3223694768472
 20
128.8220643078447
 30
0.0
 40
3.8109215479999992
 50
11.536959032818119
 51
48.557095847238386
  0
ARC
  5
979
  8
0
 10
216.32236947684649
 20
140.2489701426089
 30
0.0
 40
3.8109215479999992
 50
311.44290415276163
 51
348.46304096718819
  0
ARC
  5
97A
  8
0
 10
216.32236947684689
 20
134.53551722522681
 30
0.0
 40
3.8109215479999992
 50
311.44290415276163
 51
348.46304096718819
  0
ARC
  5
97B
  8
0
 10
216.32236947684689
 20
134.53551722522681
 30
0.0
 40
3.8109215479999992
 50
11.536959032818119
 51
48.557095847238386
  0
ARC
  5
97C
  8
0
 10
216.322369476848
 20
117.3951584730804
 30
0.0
 40
3.8109215479999992
 50
311.44290415276163
 51
348.46304096718819
  0
ARC
  5
97D
  8
0
 10
216.3223694768472
 20
128.8220643078447
 30
0.0
 40
3.8109215479999992
 50
311.44290415276163
 51
348.46304096718819
  0
ARC
  5
97E
  8
0
 10
216.3223694768476
 20
123.1086113904626
 30
0.0
 40
3.8109215479999992
 50
311.44290415276163
 51
348.46304096718819
  0
ARC
  5
97F
  8
0
 10
216.3223694768476
 20
123.1086113904626
 30
0.0
 40
3.8109215479999992
 50
11.536959032818119
 51
48.557095847238386
  0
ARC
  5
980
  8
0
 10
216.322369476848
 20
117.3951584730804
 30
0.0
 40
3.8109215479999992
 50
11.536959032818119
 51
48.557095847238386
  0
ARC
  5
981
  8
0
 10
216.32236947684899
 20
100.2547997209339
 30
0.0
 40
3.8109215479999992
 50
11.536959032818119
 51
48.557095847238386
  0
ARC
  5
982
  8
0
 10
216.32236947684851
 20
105.9682526383161
 30
0.0
 40
3.8109215479999992
 50
311.44290415276163
 51
348.46304096718819
  0
ARC
  5
983
  8
0
 10
216.32236947684851
 20
105.9682526383161
 30
0.0
 40
3.8109215479999992
 50
11.536959032818119
 51
48.557095847238386
  0
ARC
  5
984
  8
0
 10
216.32236947684839
 20
111.6817055556984
 30
0.0
 40
3.8109215479999992
 50
311.44290415276163
 51
348.46304096718819
  0
ARC
  5
985
  8
0
 10
216.3223694768493
 20
94.541346803551804
 30
0.0
 40
3.8109215479999992
 50
11.536959032818119
 51
48.557095847238386
  0
ARC
  5
986
  8
0
 10
216.32236947684899
 20
100.2547997209339
 30
0.0
 40
3.8109215479999992
 50
311.44290415276163
 51
348.46304096718819
  0
ARC
  5
987
  8
0
 10
216.3223694768493
 20
94.541346803551804
 30
0.0
 40
3.8109215479999992
 50
311.44290415276163
 51
348.46304096718819
  0
ARC
  5
988
  8
0
 10
216.3223694768497
 20
88.82789388616979
 30
0.0
 40
3.8109215479999992
 50
11.536959032818119
 51
48.557095847238386
  0
ARC
  5
989
  8
0
 10
216.32236947685089
 20
60.260629299258923
 30
0.0
 40
3.8109215479999992
 50
311.44290415276163
 51
348.46304096718819
  0
ARC
  5
98A
  8
0
 10
216.32236947685021
 20
77.40098805140542
 30
0.0
 40
3.8109215479999992
 50
311.44290415276163
 51
348.46304096718819
  0
ARC
  5
98B
  8
0
 10
216.3223694768505
 20
71.687535134023278
 30
0.0
 40
3.8109215479999992
 50
11.536959032818119
 51
48.557095847238386
  0
ARC
  5
98C
  8
0
 10
216.3223694768497
 20
83.114440968787548
 30
0.0
 40
3.8109215479999992
 50
311.44290415276163
 51
348.46304096718819
  0
ARC
  5
98D
  8
0
 10
216.32236947685021
 20
77.40098805140542
 30
0.0
 40
3.8109215479999992
 50
11.536959032818119
 51
48.557095847238386
  0
ARC
  5
98E
  8
0
 10
216.32236947685089
 20
60.260629299258923
 30
0.0
 40
3.8109215479999992
 50
11.536959032818119
 51
48.557095847238386
  0
ARC
  5
98F
  8
0
 10
216.32236947685089
 20
65.97408221664115
 30
0.0
 40
3.8109215479999992
 50
11.536959032818119
 51
48.557095847238386
  0
ARC
  5
990
  8
0
 10
216.3223694768505
 20
71.687535134023278
 30
0.0
 40
3.8109215479999992
 50
311.44290415276163
 51
348.46304096718819
  0
ARC
  5
991
  8
0
 10
216.32236947685089
 20
65.97408221664115
 30
0.0
 40
3.8109215479999992
 50
311.44290415276163
 51
348.46304096718819
  0
ARC
  5
992
  8
0
 10
216.32236947685141
 20
54.547176381876881
 30
0.0
 40
3.8109215479999992
 50
311.44290415276163
 51
348.46304096718819
  0
ARC
  5
993
  8
0
 10
216.32236947685141
 20
54.547176381876881
 30
0.0
 40
3.8109215479999992
 50
11.536959032818119
 51
48.557095847238386
  0
ARC
  5
A1E
  8
0
 10
216.32236947684541
 20
48.833723464493559
 30
0.0
 40
3.8109215479999992
 50
11.53695903281176
 51
48.557095847238386
  0
ARC
  5
A99
  8
0
 10
237.03276524610411
 20
168.90397075539849
 30
0.0
 40
2.3962121963436989
 50
43.516427244278667
 51
143.8889273803378
  0
ARC
  5
A9A
  8
0
 10
237.03276524610411
 20
169.15061367344919
 30
0.0
 40
3.8109215479999992
 50
41.442904152762111
 51
138.55709584723729
  0
LINE
  5
A9B
  8
0
 10
238.53271490451829
 20
166.8803923945176
 30
0.0
 11
234.1924044329312
 21
164.026375564316
 31
0.0
  0
LINE
  5
A9C
  8
0
 10
238.53271490451829
 20
165.03862414713981
 30
0.0
 11
234.1924044329312
 21
162.18460731693821
 31
0.0
  0
LINE
  5
A9D
  8
0
 10
238.53271490451829
 20
161.1669394771354
 30
0.0
 11
234.1924044329312
 21
158.31292264693371
 31
0.0
  0
ARC
  5
A9E
  8
0
 10
237.3671441900334
 20
168.81623472951981
 30
0.0
 40
3.8109215479999992
 50
311.44290415276322
 51
48.557095847236774
  0
ARC
  5
A9F
  8
0
 10
237.3671441900334
 20
163.10278181213749
 30
0.0
 40
3.8109215479999992
 50
311.442904152766
 51
48.557095847236774
  0
ARC
  5
AA0
  8
0
 10
237.12050127198279
 20
163.10278181213749
 30
0.0
 40
2.3962121963436989
 50
306.11107261966271
 51
53.888927380337208
  0
ARC
  5
AA1
  8
0
 10
237.1205012719827
 20
168.81623472951981
 30
0.0
 40
2.3962121963436989
 50
306.11107261966271
 51
46.483572755719607
  0
ARC
  5
AA2
  8
0
 10
225.60585941133959
 20
168.9039707553986
 30
0.0
 40
2.3962121963436989
 50
36.111072619662181
 51
143.8889273803378
  0
ARC
  5
AA3
  8
0
 10
225.60585941133959
 20
163.04777707729559
 30
0.0
 40
2.3962121963436989
 50
216.1110726196622
 51
323.8889273803378
  0
ARC
  5
AA4
  8
0
 10
231.31931232872179
 20
168.90397075539849
 30
0.0
 40
2.3962121963436989
 50
36.111072619662181
 51
143.8889273803378
  0
LINE
  5
AA5
  8
0
 10
231.90514762187399
 20
163.68861710528969
 30
0.0
 11
230.4011378335224
 21
165.97587391634721
 31
0.0
  0
LINE
  5
AA6
  8
0
 10
231.90514762187399
 20
163.68861710528969
 30
0.0
 11
234.1924044329316
 21
162.18460731693821
 31
0.0
  0
LINE
  5
AA7
  8
0
 10
233.0162794449067
 20
164.7997489283224
 30
0.0
 11
232.24290608090021
 21
165.97587391634721
 31
0.0
  0
LINE
  5
AA8
  8
0
 10
233.0162794449067
 20
164.7997489283224
 30
0.0
 11
234.1924044329316
 21
164.026375564316
 31
0.0
  0
LINE
  5
AA9
  8
0
 10
227.54170174634189
 20
161.63556344476009
 30
0.0
 11
224.6876849161402
 21
165.97587391634721
 31
0.0
  0
LINE
  5
AAA
  8
0
 10
229.5693748927508
 20
161.35284437616659
 30
0.0
 11
226.52945316351801
 21
165.97587391634721
 31
0.0
  0
LINE
  5
AAB
  8
0
 10
229.5693748927508
 20
161.35284437616659
 30
0.0
 11
234.19240443293151
 21
158.31292264693371
 31
0.0
  0
LINE
  5
AAC
  8
0
 10
233.25515466372411
 20
170.3161843879341
 30
0.0
 11
230.4011378335224
 21
165.9758739163469
 31
0.0
  0
LINE
  5
AAD
  8
0
 10
235.0969229111019
 20
170.3161843879341
 30
0.0
 11
232.24290608090021
 21
165.9758739163469
 31
0.0
  0
LINE
  5
AAE
  8
0
 10
229.3834699937197
 20
170.3161843879341
 30
0.0
 11
226.52945316351801
 21
165.9758739163469
 31
0.0
  0
LINE
  5
AAF
  8
0
 10
227.54170174634189
 20
170.3161843879341
 30
0.0
 11
224.6876849161402
 21
165.9758739163469
 31
0.0
  0
ARC
  5
AB0
  8
0
 10
225.60585941133959
 20
169.15061367344919
 30
0.0
 40
3.8109215479999992
 50
41.442904152762111
 51
120.5288554630235
  0
ARC
  5
AB1
  8
0
 10
231.31931232872179
 20
169.15061367344919
 30
0.0
 40
3.8109215479999992
 50
41.442904152762111
 51
138.55709584723729
  0
LINE
  5
AB2
  8
0
 10
229.85209396134451
 20
144.02658072498889
 30
0.0
 11
234.19240443293171
 21
141.17256389478729
 31
0.0
  0
ARC
  5
AB3
  8
0
 10
237.3671441900336
 20
140.24897014260901
 30
0.0
 40
3.8109215479999992
 50
311.44290415276322
 51
48.557095847236774
  0
LINE
  5
AB4
  8
0
 10
238.53271490451851
 20
144.02658072498889
 30
0.0
 11
234.1924044329314
 21
141.17256389478729
 31
0.0
  0
LINE
  5
AB5
  8
0
 10
238.53271490451851
 20
147.89826539499339
 30
0.0
 11
234.1924044329314
 21
145.0442485647919
 31
0.0
  0
LINE
  5
AB6
  8
0
 10
238.53271490451851
 20
149.7400336423712
 30
0.0
 11
234.1924044329314
 21
146.8860168121696
 31
0.0
  0
LINE
  5
AB7
  8
0
 10
238.5327149045184
 20
155.4534865597534
 30
0.0
 11
234.19240443293131
 21
152.5994697295518
 31
0.0
  0
LINE
  5
AB8
  8
0
 10
238.53271490451851
 20
153.6117183123757
 30
0.0
 11
234.19240443293131
 21
150.75770148217401
 31
0.0
  0
LINE
  5
AB9
  8
0
 10
238.5327149045184
 20
159.3251712297579
 30
0.0
 11
234.19240443293131
 21
156.4711543995563
 31
0.0
  0
ARC
  5
ABB
  8
0
 10
237.12050127198279
 20
157.38932889475561
 30
0.0
 40
2.3962121963436989
 50
306.11107261966271
 51
53.888927380337208
  0
ARC
  5
ABC
  8
0
 10
237.12050127198279
 20
145.9624230599911
 30
0.0
 40
2.3962121963436989
 50
306.11107261966271
 51
53.888927380337208
  0
ARC
  5
ABD
  8
0
 10
237.3671441900336
 20
145.9624230599911
 30
0.0
 40
3.8109215479999992
 50
311.44290415276322
 51
48.557095847236774
  0
ARC
  5
ABE
  8
0
 10
237.3671441900336
 20
151.67587597737341
 30
0.0
 40
3.8109215479999992
 50
311.44290415276322
 51
48.557095847236774
  0
ARC
  5
ABF
  8
0
 10
237.12050127198279
 20
151.67587597737341
 30
0.0
 40
2.3962121963436989
 50
306.11107261966271
 51
53.888927380337208
  0
LINE
  5
AC0
  8
0
 10
229.85209396134439
 20
159.3251712297579
 30
0.0
 11
234.1924044329316
 21
156.4711543995563
 31
0.0
  0
ARC
  5
AC1
  8
0
 10
231.26430759387981
 20
157.38932889475561
 30
0.0
 40
2.3962121963436989
 50
126.11107261966281
 51
233.88892738033721
  0
ARC
  5
AC2
  8
0
 10
231.26430759388009
 20
145.9624230599911
 30
0.0
 40
2.3962121963436989
 50
126.11107261966281
 51
233.88892738033721
  0
LINE
  5
AC3
  8
0
 10
229.85209396134451
 20
147.89826539499339
 30
0.0
 11
234.1924044329318
 21
145.0442485647919
 31
0.0
  0
LINE
  5
AC4
  8
0
 10
229.85209396134431
 20
149.7400336423712
 30
0.0
 11
234.1924044329316
 21
146.8860168121696
 31
0.0
  0
LINE
  5
AC5
  8
0
 10
229.85209396134439
 20
155.4534865597534
 30
0.0
 11
234.1924044329316
 21
152.5994697295518
 31
0.0
  0
LINE
  5
AC6
  8
0
 10
229.85209396134439
 20
153.6117183123757
 30
0.0
 11
234.1924044329316
 21
150.75770148217401
 31
0.0
  0
ARC
  5
AC7
  8
0
 10
231.26430759387981
 20
151.67587597737341
 30
0.0
 40
2.3962121963436989
 50
126.11107261966281
 51
233.88892738033721
  0
LINE
  5
AC8
  8
0
 10
229.85209396134439
 20
85.050283303788888
 30
0.0
 11
234.1924044329316
 21
87.904300133990532
 31
0.0
  0
ARC
  5
AC9
  8
0
 10
237.36714419003371
 20
88.827893886168951
 30
0.0
 40
3.8109215479999992
 50
311.44290415276322
 51
48.557095847236774
  0
LINE
  5
ACA
  8
0
 10
238.5327149045186
 20
85.050283303788888
 30
0.0
 11
234.19240443293151
 21
87.904300133990532
 31
0.0
  0
ARC
  5
ACB
  8
0
 10
237.36714419003371
 20
111.6817055556978
 30
0.0
 40
3.8109215479999992
 50
311.44290415276322
 51
48.557095847236774
  0
LINE
  5
ACC
  8
0
 10
238.5327149045186
 20
115.4593161380777
 30
0.0
 11
234.19240443293151
 21
112.60529930787609
 31
0.0
  0
LINE
  5
ACD
  8
0
 10
229.85209396134439
 20
115.4593161380777
 30
0.0
 11
234.1924044329316
 21
112.60529930787609
 31
0.0
  0
LINE
  5
ACE
  8
0
 10
238.5327149045186
 20
119.33100080808219
 30
0.0
 11
234.19240443293151
 21
116.47698397788071
 31
0.0
  0
LINE
  5
ACF
  8
0
 10
238.5327149045186
 20
121.17276905545999
 30
0.0
 11
234.19240443293151
 21
118.31875222525829
 31
0.0
  0
LINE
  5
AD0
  8
0
 10
238.53271490451851
 20
136.4713595602289
 30
0.0
 11
234.1924044329314
 21
133.61734273002739
 31
0.0
  0
LINE
  5
AD1
  8
0
 10
238.53271490451851
 20
138.31312780760669
 30
0.0
 11
234.1924044329314
 21
135.4591109774052
 31
0.0
  0
LINE
  5
AD2
  8
0
 10
238.53271490451851
 20
142.18481247761119
 30
0.0
 11
234.1924044329314
 21
139.3307956474095
 31
0.0
  0
LINE
  5
AD3
  8
0
 10
238.53271490451851
 20
132.59967489022449
 30
0.0
 11
234.1924044329314
 21
129.74565806002281
 31
0.0
  0
LINE
  5
AD4
  8
0
 10
238.5327149045186
 20
130.75790664284671
 30
0.0
 11
234.1924044329314
 21
127.9038898126451
 31
0.0
  0
LINE
  5
AD5
  8
0
 10
238.5327149045186
 20
126.88622197284219
 30
0.0
 11
234.19240443293151
 21
124.03220514264071
 31
0.0
  0
LINE
  5
AD6
  8
0
 10
238.5327149045186
 20
125.04445372546439
 30
0.0
 11
234.19240443293151
 21
122.19043689526291
 31
0.0
  0
ARC
  5
AD7
  8
0
 10
237.12050127198299
 20
128.8220643078445
 30
0.0
 40
2.3962121963436989
 50
306.11107261966271
 51
53.888927380337208
  0
ARC
  5
AD8
  8
0
 10
237.36714419003371
 20
128.8220643078445
 30
0.0
 40
3.8109215479999992
 50
311.44290415276322
 51
48.557095847236774
  0
ARC
  5
AD9
  8
0
 10
237.12050127198299
 20
134.53551722522661
 30
0.0
 40
2.3962121963436989
 50
306.11107261966271
 51
53.888927380337208
  0
ARC
  5
ADA
  8
0
 10
237.12050127198279
 20
140.24897014260901
 30
0.0
 40
2.3962121963436989
 50
306.11107261966271
 51
53.888927380337208
  0
ARC
  5
ADB
  8
0
 10
237.3671441900336
 20
134.53551722522661
 30
0.0
 40
3.8109215479999992
 50
311.44290415276322
 51
48.557095847236774
  0
ARC
  5
ADC
  8
0
 10
237.36714419003371
 20
117.3951584730799
 30
0.0
 40
3.8109215479999992
 50
311.44290415276322
 51
48.557095847236774
  0
ARC
  5
ADD
  8
0
 10
237.12050127198299
 20
117.3951584730799
 30
0.0
 40
2.3962121963436989
 50
306.11107261966271
 51
53.888927380337208
  0
ARC
  5
ADE
  8
0
 10
237.12050127198299
 20
123.1086113904622
 30
0.0
 40
2.3962121963436989
 50
306.11107261966271
 51
53.888927380337208
  0
ARC
  5
ADF
  8
0
 10
237.36714419003371
 20
123.1086113904622
 30
0.0
 40
3.8109215479999992
 50
311.44290415276322
 51
48.557095847236774
  0
ARC
  5
AE0
  8
0
 10
231.26430759388001
 20
128.8220643078445
 30
0.0
 40
2.3962121963436989
 50
126.11107261966281
 51
233.88892738033721
  0
LINE
  5
AE1
  8
0
 10
229.85209396134451
 20
130.75790664284671
 30
0.0
 11
234.19240443293171
 21
127.9038898126451
 31
0.0
  0
ARC
  5
AE2
  8
0
 10
231.26430759388001
 20
134.53551722522661
 30
0.0
 40
2.3962121963436989
 50
126.11107261966281
 51
233.88892738033721
  0
LINE
  5
AE3
  8
0
 10
229.85209396134451
 20
136.4713595602289
 30
0.0
 11
234.19240443293171
 21
133.61734273002739
 31
0.0
  0
LINE
  5
AE4
  8
0
 10
229.85209396134451
 20
132.59967489022449
 30
0.0
 11
234.19240443293171
 21
129.74565806002281
 31
0.0
  0
ARC
  5
AE5
  8
0
 10
231.26430759388009
 20
140.24897014260901
 30
0.0
 40
2.3962121963436989
 50
126.11107261966281
 51
233.88892738033721
  0
LINE
  5
AE6
  8
0
 10
229.85209396134451
 20
142.18481247761119
 30
0.0
 11
234.19240443293171
 21
139.3307956474095
 31
0.0
  0
LINE
  5
AE7
  8
0
 10
229.85209396134451
 20
138.31312780760669
 30
0.0
 11
234.19240443293171
 21
135.4591109774052
 31
0.0
  0
LINE
  5
AE8
  8
0
 10
229.85209396134439
 20
119.33100080808209
 30
0.0
 11
234.1924044329316
 21
116.47698397788071
 31
0.0
  0
ARC
  5
AE9
  8
0
 10
231.26430759388001
 20
117.3951584730799
 30
0.0
 40
2.3962121963436989
 50
126.11107261966281
 51
233.88892738033721
  0
LINE
  5
AEA
  8
0
 10
229.85209396134439
 20
121.17276905545999
 30
0.0
 11
234.1924044329316
 21
118.31875222525829
 31
0.0
  0
LINE
  5
AEB
  8
0
 10
229.85209396134439
 20
126.88622197284219
 30
0.0
 11
234.19240443293171
 21
124.03220514264071
 31
0.0
  0
ARC
  5
AEC
  8
0
 10
231.26430759388001
 20
123.1086113904622
 30
0.0
 40
2.3962121963436989
 50
126.11107261966281
 51
233.88892738033721
  0
LINE
  5
AED
  8
0
 10
229.85209396134439
 20
125.04445372546439
 30
0.0
 11
234.1924044329316
 21
122.19043689526291
 31
0.0
  0
LINE
  5
AEE
  8
0
 10
238.5327149045186
 20
96.477189138553371
 30
0.0
 11
234.19240443293151
 21
99.331205968754901
 31
0.0
  0
LINE
  5
AEF
  8
0
 10
238.5327149045186
 20
92.605504468548915
 30
0.0
 11
234.19240443293151
 21
95.459521298750545
 31
0.0
  0
LINE
  5
AF0
  8
0
 10
238.5327149045188
 20
98.318957385931142
 30
0.0
 11
234.1924044329316
 21
101.1729742161328
 31
0.0
  0
LINE
  5
AF1
  8
0
 10
238.5327149045186
 20
86.892051551166645
 30
0.0
 11
234.19240443293151
 21
89.746068381368204
 31
0.0
  0
LINE
  5
AF2
  8
0
 10
238.5327149045186
 20
90.763736221171129
 30
0.0
 11
234.19240443293151
 21
93.617753051372759
 31
0.0
  0
LINE
  5
AF3
  8
0
 10
238.5327149045188
 20
107.9040949733177
 30
0.0
 11
234.1924044329316
 21
105.050078143116
 31
0.0
  0
LINE
  5
AF4
  8
0
 10
238.5327149045186
 20
113.6175478906999
 30
0.0
 11
234.19240443293151
 21
110.76353106049829
 31
0.0
  0
LINE
  5
AF5
  8
0
 10
238.5327149045186
 20
109.7458632206955
 30
0.0
 11
234.19240443293151
 21
106.891846390494
 31
0.0
  0
ARC
  5
AF6
  8
0
 10
237.36714419003391
 20
100.25479972093331
 30
0.0
 40
3.8109215479999992
 50
311.44290415276322
 51
48.557095847236774
  0
ARC
  5
AF7
  8
0
 10
237.12050127198319
 20
100.25479972093331
 30
0.0
 40
2.3962121963436989
 50
306.11107261966271
 51
53.888927380337208
  0
LINE
  5
AF8
  8
0
 10
238.5327149045188
 20
102.1906420559356
 30
0.0
 11
237.13225960135841
 21
103.11152617962441
 31
0.0
  0
LINE
  5
AF9
  8
0
 10
238.5327149045188
 20
104.0324103033133
 30
0.0
 11
237.13225960135841
 21
103.11152617962451
 31
0.0
  0
ARC
  5
AFA
  8
0
 10
237.12050127198319
 20
105.96825263831551
 30
0.0
 40
2.3962121963436989
 50
306.11107261966271
 51
53.888927380337208
  0
ARC
  5
AFB
  8
0
 10
237.36714419003391
 20
105.96825263831551
 30
0.0
 40
3.8109215479999992
 50
311.44290415276322
 51
48.557095847236774
  0
ARC
  5
AFC
  8
0
 10
237.12050127198299
 20
111.6817055556978
 30
0.0
 40
2.3962121963436989
 50
306.11107261966271
 51
53.888927380337208
  0
ARC
  5
AFD
  8
0
 10
237.12050127198299
 20
94.541346803551079
 30
0.0
 40
2.3962121963436989
 50
306.11107261966271
 51
53.888927380337208
  0
ARC
  5
AFE
  8
0
 10
237.12050127198299
 20
88.827893886168951
 30
0.0
 40
2.3962121963436989
 50
306.11107261966271
 51
53.888927380337208
  0
ARC
  5
AFF
  8
0
 10
237.36714419003371
 20
94.541346803551079
 30
0.0
 40
3.8109215479999992
 50
311.44290415276322
 51
48.557095847236774
  0
ARC
  5
B00
  8
0
 10
231.26430759388001
 20
100.25479972093331
 30
0.0
 40
2.3962121963436989
 50
126.11107261966281
 51
233.88892738033721
  0
LINE
  5
B01
  8
0
 10
229.85209396134439
 20
98.318957385931142
 30
0.0
 11
234.19240443293171
 21
101.1729742161328
 31
0.0
  0
LINE
  5
B02
  8
0
 10
229.85209396134439
 20
102.1906420559356
 30
0.0
 11
231.25254926450489
 21
103.11152617962441
 31
0.0
  0
LINE
  5
B03
  8
0
 10
229.85209396134439
 20
107.9040949733176
 30
0.0
 11
234.19240443293171
 21
105.050078143116
 31
0.0
  0
LINE
  5
B04
  8
0
 10
229.85209396134439
 20
104.0324103033133
 30
0.0
 11
231.25254926450489
 21
103.11152617962451
 31
0.0
  0
ARC
  5
B05
  8
0
 10
231.26430759388001
 20
105.96825263831551
 30
0.0
 40
2.3962121963436989
 50
126.11107261966281
 51
233.88892738033721
  0
LINE
  5
B06
  8
0
 10
229.85209396134439
 20
113.6175478906999
 30
0.0
 11
234.1924044329316
 21
110.76353106049829
 31
0.0
  0
ARC
  5
B07
  8
0
 10
231.26430759388001
 20
111.6817055556978
 30
0.0
 40
2.3962121963436989
 50
126.11107261966281
 51
233.88892738033721
  0
LINE
  5
B08
  8
0
 10
229.85209396134439
 20
109.7458632206954
 30
0.0
 11
234.1924044329316
 21
106.891846390494
 31
0.0
  0
LINE
  5
B09
  8
0
 10
229.85209396134439
 20
96.477189138553371
 30
0.0
 11
234.1924044329316
 21
99.331205968754901
 31
0.0
  0
ARC
  5
B0A
  8
0
 10
231.26430759388001
 20
94.541346803551079
 30
0.0
 40
2.3962121963436989
 50
126.11107261966281
 51
233.88892738033721
  0
LINE
  5
B0B
  8
0
 10
229.85209396134439
 20
92.605504468548915
 30
0.0
 11
234.1924044329316
 21
95.459521298750545
 31
0.0
  0
ARC
  5
B0C
  8
0
 10
231.26430759388001
 20
88.827893886168951
 30
0.0
 40
2.3962121963436989
 50
126.11107261966281
 51
233.88892738033721
  0
LINE
  5
B0D
  8
0
 10
229.85209396134439
 20
86.892051551166645
 30
0.0
 11
234.1924044329316
 21
89.746068381368204
 31
0.0
  0
LINE
  5
B0E
  8
0
 10
229.85209396134439
 20
90.763736221171129
 30
0.0
 11
234.1924044329316
 21
93.617753051372759
 31
0.0
  0
LINE
  5
B0F
  8
0
 10
229.85209396134431
 20
56.48301871687768
 30
0.0
 11
234.1924044329316
 21
59.337035547079317
 31
0.0
  0
ARC
  5
B10
  8
0
 10
237.3671441900336
 20
60.260629299257751
 30
0.0
 40
3.8109215479999992
 50
311.44290415276322
 51
48.557095847236774
  0
LINE
  5
B11
  8
0
 10
238.53271490451851
 20
56.48301871687768
 30
0.0
 11
234.1924044329314
 21
59.337035547079317
 31
0.0
  0
LINE
  5
B12
  8
0
 10
238.5327149045186
 20
81.178598633784404
 30
0.0
 11
234.19240443293151
 21
84.032615463985934
 31
0.0
  0
LINE
  5
B13
  8
0
 10
238.5327149045186
 20
79.336830386406646
 30
0.0
 11
234.19240443293151
 21
82.190847216608176
 31
0.0
  0
LINE
  5
B14
  8
0
 10
238.5327149045186
 20
75.465145716402176
 30
0.0
 11
234.1924044329314
 21
78.31916254660382
 31
0.0
  0
LINE
  5
B15
  8
0
 10
238.53271490451851
 20
73.623377469024405
 30
0.0
 11
234.1924044329314
 21
76.477394299226049
 31
0.0
  0
LINE
  5
B16
  8
0
 10
238.53271490451851
 20
64.038239881637693
 30
0.0
 11
234.1924044329314
 21
66.892256711839323
 31
0.0
  0
LINE
  5
B17
  8
0
 10
238.53271490451851
 20
67.909924551642163
 30
0.0
 11
234.1924044329314
 21
70.763941381843694
 31
0.0
  0
LINE
  5
B18
  8
0
 10
238.53271490451851
 20
69.751692799019935
 30
0.0
 11
234.1924044329314
 21
72.605709629221465
 31
0.0
  0
LINE
  5
B19
  8
0
 10
238.53271490451851
 20
58.324786964255452
 30
0.0
 11
234.1924044329314
 21
61.178803794456989
 31
0.0
  0
LINE
  5
B1A
  8
0
 10
238.53271490451851
 20
62.196471634259922
 30
0.0
 11
234.1924044329314
 21
65.050488464461566
 31
0.0
  0
ARC
  5
B1B
  8
0
 10
237.3671441900336
 20
71.687535134022227
 30
0.0
 40
3.8109215479999992
 50
311.44290415276322
 51
48.557095847236774
  0
ARC
  5
B1C
  8
0
 10
237.12050127198299
 20
71.687535134022227
 30
0.0
 40
2.3962121963436989
 50
306.11107261966271
 51
53.888927380337208
  0
ARC
  5
B1D
  8
0
 10
237.36714419003371
 20
83.114440968786724
 30
0.0
 40
3.8109215479999992
 50
311.44290415276322
 51
48.557095847236774
  0
ARC
  5
B1E
  8
0
 10
237.12050127198299
 20
83.114440968786724
 30
0.0
 40
2.3962121963436989
 50
306.11107261966271
 51
53.888927380337208
  0
ARC
  5
B1F
  8
0
 10
237.36714419003371
 20
77.400988051404354
 30
0.0
 40
3.8109215479999992
 50
311.44290415276322
 51
48.557095847236774
  0
ARC
  5
B20
  8
0
 10
237.12050127198299
 20
77.400988051404354
 30
0.0
 40
2.3962121963436989
 50
306.11107261966271
 51
53.888927380337208
  0
ARC
  5
B21
  8
0
 10
237.1205012719829
 20
65.974082216639871
 30
0.0
 40
2.3962121963436989
 50
306.11107261966271
 51
53.888927380337208
  0
ARC
  5
B22
  8
0
 10
237.1205012719829
 20
60.260629299257751
 30
0.0
 40
2.3962121963436989
 50
306.11107261966271
 51
53.888927380337208
  0
ARC
  5
B23
  8
0
 10
237.3671441900336
 20
65.974082216639871
 30
0.0
 40
3.8109215479999992
 50
311.44290415276322
 51
48.557095847236774
  0
LINE
  5
B24
  8
0
 10
229.85209396134451
 20
69.751692799019935
 30
0.0
 11
234.19240443293171
 21
72.605709629221465
 31
0.0
  0
ARC
  5
B25
  8
0
 10
231.26430759388001
 20
71.687535134022227
 30
0.0
 40
2.3962121963436989
 50
126.11107261966281
 51
233.88892738033721
  0
LINE
  5
B26
  8
0
 10
229.85209396134439
 20
81.178598633784404
 30
0.0
 11
234.1924044329316
 21
84.032615463985934
 31
0.0
  0
ARC
  5
B27
  8
0
 10
231.26430759388001
 20
83.114440968786724
 30
0.0
 40
2.3962121963436989
 50
126.11107261966281
 51
233.88892738033721
  0
LINE
  5
B28
  8
0
 10
229.85209396134439
 20
79.336830386406646
 30
0.0
 11
234.19240443293171
 21
82.190847216608176
 31
0.0
  0
LINE
  5
B29
  8
0
 10
229.85209396134451
 20
73.623377469024405
 30
0.0
 11
234.19240443293171
 21
76.477394299226049
 31
0.0
  0
LINE
  5
B2A
  8
0
 10
229.85209396134451
 20
75.465145716402176
 30
0.0
 11
234.19240443293171
 21
78.31916254660382
 31
0.0
  0
ARC
  5
B2B
  8
0
 10
231.26430759388001
 20
77.400988051404354
 30
0.0
 40
2.3962121963436989
 50
126.11107261966281
 51
233.88892738033721
  0
LINE
  5
B2C
  8
0
 10
229.85209396134451
 20
67.909924551642163
 30
0.0
 11
234.19240443293171
 21
70.763941381843694
 31
0.0
  0
LINE
  5
B2D
  8
0
 10
229.85209396134451
 20
64.038239881637693
 30
0.0
 11
234.19240443293171
 21
66.892256711839323
 31
0.0
  0
ARC
  5
B2E
  8
0
 10
231.26430759388009
 20
65.974082216639871
 30
0.0
 40
2.3962121963436989
 50
126.11107261966281
 51
233.88892738033721
  0
LINE
  5
B2F
  8
0
 10
229.85209396134451
 20
58.324786964255452
 30
0.0
 11
234.1924044329318
 21
61.178803794456989
 31
0.0
  0
ARC
  5
B30
  8
0
 10
231.26430759388009
 20
60.260629299257751
 30
0.0
 40
2.3962121963436989
 50
126.11107261966281
 51
233.88892738033721
  0
LINE
  5
B31
  8
0
 10
229.85209396134451
 20
62.196471634259922
 30
0.0
 11
234.19240443293171
 21
65.050488464461566
 31
0.0
  0
LINE
  5
B32
  8
0
 10
238.5327149045184
 20
46.897881129490969
 30
0.0
 11
234.19240443293131
 21
49.751897959692613
 31
0.0
  0
LINE
  5
B33
  8
0
 10
238.53271490451851
 20
52.61133404687321
 30
0.0
 11
234.19240443293131
 21
55.465350877074862
 31
0.0
  0
LINE
  5
B34
  8
0
 10
238.5327149045184
 20
50.769565799495439
 30
0.0
 11
234.19240443293131
 21
53.623582629697069
 31
0.0
  0
ARC
  5
B35
  8
0
 10
237.1205012719829
 20
54.547176381875502
 30
0.0
 40
2.3962121963436989
 50
306.11107261966271
 51
53.888927380337208
  0
ARC
  5
B36
  8
0
 10
237.3671441900336
 20
54.547176381875502
 30
0.0
 40
3.8109215479999992
 50
311.44290415276322
 51
48.557095847236774
  0
ARC
  5
B37
  8
0
 10
237.1205012719829
 20
48.833723464493261
 30
0.0
 40
2.3962121963436989
 50
306.11107261966271
 51
53.888927380337208
  0
ARC
  5
B39
  8
0
 10
231.26430759387989
 20
54.547176381875502
 30
0.0
 40
2.3962121963436989
 50
126.11107261966281
 51
233.88892738033721
  0
LINE
  5
B3A
  8
0
 10
229.85209396134439
 20
52.61133404687321
 30
0.0
 11
234.1924044329316
 21
55.465350877074862
 31
0.0
  0
LINE
  5
B3B
  8
0
 10
229.85209396134439
 20
50.769565799495439
 30
0.0
 11
234.1924044329316
 21
53.623582629697069
 31
0.0
  0
ARC
  5
B3C
  8
0
 10
231.26430759387989
 20
48.833723464493261
 30
0.0
 40
2.3962121963436989
 50
126.11107261966281
 51
233.88892738033721
  0
LINE
  5
B3D
  8
0
 10
229.85209396134439
 20
46.897881129490969
 30
0.0
 11
234.1924044329316
 21
49.751897959692613
 31
0.0
  0
ARC
  5
B3E
  8
0
 10
237.1205012719827
 20
37.406817629728991
 30
0.0
 40
2.3962121963436989
 50
313.51642724428029
 51
53.888927380337208
  0
ARC
  5
B3F
  8
0
 10
237.12050127198279
 20
43.120270547111232
 30
0.0
 40
2.3962121963436989
 50
306.11107261966271
 51
53.888927380337208
  0
ARC
  5
B40
  8
0
 10
237.03276524610411
 20
37.072438685799568
 30
0.0
 40
3.8109215479999992
 50
221.44290415276271
 51
318.55709584723792
  0
ARC
  5
B41
  8
0
 10
237.3671441900334
 20
43.120270547111232
 30
0.0
 40
3.8109215479999992
 50
311.44290415276322
 51
48.557095847234542
  0
ARC
  5
B42
  8
0
 10
237.3671441900334
 20
37.406817629728991
 30
0.0
 40
3.8109215479999992
 50
311.44290415276322
 51
48.557095847236774
  0
LINE
  5
B43
  8
0
 10
229.5693748927508
 20
44.87020798308216
 30
0.0
 11
226.52945316351801
 21
40.247178442901529
 31
0.0
  0
LINE
  5
B44
  8
0
 10
227.54170174634189
 20
44.587488914488702
 30
0.0
 11
224.6876849161402
 21
40.247178442901529
 31
0.0
  0
LINE
  5
B45
  8
0
 10
233.0162794449067
 20
41.423303430926381
 30
0.0
 11
234.1924044329316
 21
42.196676794932799
 31
0.0
  0
LINE
  5
B46
  8
0
 10
231.90514762187399
 20
42.534435253959039
 30
0.0
 11
230.4011378335224
 21
40.247178442901529
 31
0.0
  0
LINE
  5
B47
  8
0
 10
238.53271490451829
 20
41.184428212108941
 30
0.0
 11
234.1924044329312
 21
44.038445042310578
 31
0.0
  0
LINE
  5
B48
  8
0
 10
238.53271490451829
 20
39.342659964731169
 30
0.0
 11
234.1924044329312
 21
42.196676794932799
 31
0.0
  0
ARC
  5
B49
  8
0
 10
225.60585941133959
 20
43.175275281953184
 30
0.0
 40
2.3962121963436989
 50
36.111072619662181
 51
143.8889273803378
  0
LINE
  5
B4A
  8
0
 10
231.90514762187399
 20
42.534435253959039
 30
0.0
 11
234.1924044329316
 21
44.038445042310578
 31
0.0
  0
ARC
  5
B4B
  8
0
 10
225.60585941133959
 20
37.072438685799568
 30
0.0
 40
3.8109215479999992
 50
239.47114453697731
 51
318.55709584723792
  0
LINE
  5
B4C
  8
0
 10
227.54170174634189
 20
35.906867971314682
 30
0.0
 11
224.6876849161402
 21
40.247178442901863
 31
0.0
  0
ARC
  5
B4D
  8
0
 10
225.60585941133959
 20
37.319081603850201
 30
0.0
 40
2.3962121963436989
 50
216.1110726196622
 51
323.8889273803378
  0
ARC
  5
B4E
  8
0
 10
231.31931232872179
 20
37.072438685799568
 30
0.0
 40
3.8109215479999992
 50
221.44290415276271
 51
318.55709584723792
  0
LINE
  5
B4F
  8
0
 10
229.3834699937197
 20
35.906867971314682
 30
0.0
 11
226.52945316351801
 21
40.247178442901863
 31
0.0
  0
LINE
  5
B50
  8
0
 10
235.0969229111019
 20
35.906867971314682
 30
0.0
 11
232.24290608090021
 21
40.247178442901863
 31
0.0
  0
LINE
  5
B51
  8
0
 10
233.25515466372411
 20
35.906867971314682
 30
0.0
 11
230.4011378335224
 21
40.247178442901863
 31
0.0
  0
LINE
  5
B52
  8
0
 10
233.0162794449067
 20
41.423303430926381
 30
0.0
 11
232.24290608090021
 21
40.247178442901529
 31
0.0
  0
ARC
  5
B53
  8
0
 10
231.31931232872179
 20
37.319081603850307
 30
0.0
 40
2.3962121963436989
 50
216.1110726196622
 51
323.8889273803378
  0
ARC
  5
B54
  8
0
 10
237.03276524610411
 20
37.319081603850307
 30
0.0
 40
2.3962121963436989
 50
216.1110726196622
 51
316.4835727557213
  0
LINE
  5
B55
  8
0
 10
229.5693748927508
 20
44.87020798308216
 30
0.0
 11
234.19240443293151
 21
47.910129712315047
 31
0.0
  0
LINE
  5
B56
  8
0
 10
238.53271490451829
 20
45.05611288211341
 30
0.0
 11
234.1924044329312
 21
47.910129712315047
 31
0.0
  0
ARC
  5
B58
  8
0
 10
225.6058594113394
 20
162.80113415924521
 30
0.0
 40
3.8109215479999992
 50
239.4711445369793
 51
318.55709584723792
  0
LINE
  5
B5B
  8
0
 10
227.28373937887841
 20
158.15151320435521
 30
0.0
 11
220.0562947737964
 21
158.1515132043553
 31
0.0
  0
LINE
  5
B5C
  8
0
 10
227.28373937887841
 20
156.62714458515541
 30
0.0
 11
220.0562947737962
 21
156.62714458515481
 31
0.0
  0
LINE
  5
B5D
  8
0
 10
227.2837393788777
 20
146.7246073695911
 30
0.0
 11
220.05629477379699
 21
146.7246073695911
 31
0.0
  0
LINE
  5
B5E
  8
0
 10
227.2837393788777
 20
145.20023875039109
 30
0.0
 11
220.05629477379711
 21
145.20023875039109
 31
0.0
  0
LINE
  5
B5F
  8
0
 10
227.2837393788781
 20
152.43806028697321
 30
0.0
 11
220.05629477379659
 21
152.43806028697321
 31
0.0
  0
LINE
  5
B60
  8
0
 10
227.28373937887659
 20
129.58424861744481
 30
0.0
 11
220.05629477379819
 21
129.58424861744481
 31
0.0
  0
LINE
  5
B61
  8
0
 10
227.2837393788773
 20
141.01115445220901
 30
0.0
 11
220.05629477379739
 21
141.01115445220901
 31
0.0
  0
LINE
  5
B62
  8
0
 10
227.28373937887719
 20
139.48678583300889
 30
0.0
 11
220.0562947737975
 21
139.48678583300921
 31
0.0
  0
LINE
  5
B63
  8
0
 10
227.2837393788769
 20
133.7733329156269
 30
0.0
 11
220.0562947737979
 21
133.7733329156269
 31
0.0
  0
LINE
  5
B64
  8
0
 10
227.2837393788769
 20
135.29770153482681
 30
0.0
 11
220.05629477379779
 21
135.2977015348271
 31
0.0
  0
LINE
  5
B65
  8
0
 10
227.28373937887579
 20
116.6329741634805
 30
0.0
 11
220.05629477379901
 21
116.6329741634807
 31
0.0
  0
LINE
  5
B66
  8
0
 10
227.28373937887579
 20
118.1573427826805
 30
0.0
 11
220.0562947737989
 21
118.1573427826805
 31
0.0
  0
LINE
  5
B67
  8
0
 10
227.28373937887659
 20
128.05987999824481
 30
0.0
 11
220.05629477379819
 21
128.05987999824481
 31
0.0
  0
LINE
  5
B68
  8
0
 10
227.28373937887619
 20
122.3464270808626
 30
0.0
 11
220.05629477379861
 21
122.3464270808626
 31
0.0
  0
LINE
  5
B69
  8
0
 10
227.28373937887619
 20
123.8707957000627
 30
0.0
 11
220.05629477379861
 21
123.8707957000627
 31
0.0
  0
LINE
  5
B6A
  8
0
 10
227.2837393788748
 20
101.016984030534
 30
0.0
 11
220.05629477379989
 21
101.016984030534
 31
0.0
  0
LINE
  5
B6B
  8
0
 10
227.28373937887531
 20
105.2060683287161
 30
0.0
 11
220.05629477379949
 21
105.2060683287161
 31
0.0
  0
LINE
  5
B6C
  8
0
 10
227.28373937887531
 20
106.7304369479161
 30
0.0
 11
220.05629477379941
 21
106.7304369479161
 31
0.0
  0
LINE
  5
B6D
  8
0
 10
227.2837393788754
 20
112.4438898652984
 30
0.0
 11
220.05629477379929
 21
112.4438898652986
 31
0.0
  0
LINE
  5
B6E
  8
0
 10
227.2837393788754
 20
110.9195212460985
 30
0.0
 11
220.05629477379941
 21
110.9195212460985
 31
0.0
  0
LINE
  5
B6F
  8
0
 10
227.28373937887409
 20
88.065709576569844
 30
0.0
 11
220.05629477380069
 21
88.065709576569844
 31
0.0
  0
LINE
  5
B70
  8
0
 10
227.28373937887409
 20
89.590078195769877
 30
0.0
 11
220.0562947738006
 21
89.590078195769891
 31
0.0
  0
LINE
  5
B71
  8
0
 10
227.2837393788748
 20
99.492615411334015
 30
0.0
 11
220.05629477379989
 21
99.492615411334015
 31
0.0
  0
LINE
  5
B72
  8
0
 10
227.28373937887449
 20
95.303531113151905
 30
0.0
 11
220.0562947738002
 21
95.303531113152161
 31
0.0
  0
LINE
  5
B73
  8
0
 10
227.28373937887449
 20
93.779162493951887
 30
0.0
 11
220.05629477380029
 21
93.779162493952114
 31
0.0
  0
LINE
  5
B74
  8
0
 10
227.28373937887341
 20
72.44971944362338
 30
0.0
 11
220.05629477380131
 21
72.449719443623621
 31
0.0
  0
LINE
  5
B75
  8
0
 10
227.28373937887361
 20
76.638803741805489
 30
0.0
 11
220.05629477380111
 21
76.638803741805489
 31
0.0
  0
LINE
  5
B76
  8
0
 10
227.28373937887409
 20
83.876625278387536
 30
0.0
 11
220.0562947738006
 21
83.876625278387749
 31
0.0
  0
LINE
  5
B77
  8
0
 10
227.28373937887409
 20
82.352256659187617
 30
0.0
 11
220.05629477380069
 21
82.352256659187617
 31
0.0
  0
LINE
  5
B78
  8
0
 10
227.28373937887361
 20
78.163172361005508
 30
0.0
 11
220.05629477380111
 21
78.163172361005508
 31
0.0
  0
LINE
  5
B79
  8
0
 10
227.28373937887289
 20
61.022813608859003
 30
0.0
 11
220.0562947738018
 21
61.022813608859003
 31
0.0
  0
LINE
  5
B7A
  8
0
 10
227.28373937887289
 20
59.498444989659092
 30
0.0
 11
220.05629477380191
 21
59.498444989659092
 31
0.0
  0
LINE
  5
B7B
  8
0
 10
227.28373937887341
 20
70.925350824423347
 30
0.0
 11
220.05629477380151
 21
70.925350824423347
 31
0.0
  0
LINE
  5
B7C
  8
0
 10
227.28373937887289
 20
66.736266526241238
 30
0.0
 11
220.05629477380171
 21
66.736266526241494
 31
0.0
  0
LINE
  5
B7D
  8
0
 10
227.28373937887289
 20
65.211897907041333
 30
0.0
 11
220.05629477380191
 21
65.211897907041333
 31
0.0
  0
LINE
  5
B7E
  8
0
 10
227.28373937887241
 20
53.78499207227695
 30
0.0
 11
220.05629477380239
 21
53.784992072277198
 31
0.0
  0
ARC
  5
B7F
  8
0
 10
231.01766467582831
 20
140.2489701426089
 30
0.0
 40
3.8109215479999992
 50
131.44290415276319
 51
168.4630409671818
  0
ARC
  5
B80
  8
0
 10
231.01766467582931
 20
157.38932889475529
 30
0.0
 40
3.8109215479999992
 50
191.53695903281189
 51
228.55709584723681
  0
ARC
  5
B81
  8
0
 10
231.01766467582931
 20
157.38932889475529
 30
0.0
 40
3.8109215479999992
 50
131.44290415276319
 51
168.4630409671818
  0
ARC
  5
B82
  8
0
 10
231.0176646758286
 20
145.96242305999101
 30
0.0
 40
3.8109215479999992
 50
131.44290415276319
 51
168.4630409671818
  0
ARC
  5
B83
  8
0
 10
231.0176646758286
 20
145.96242305999101
 30
0.0
 40
3.8109215479999992
 50
191.53695903281189
 51
228.55709584723681
  0
ARC
  5
B84
  8
0
 10
231.017664675829
 20
151.67587597737321
 30
0.0
 40
3.8109215479999992
 50
191.53695903281189
 51
228.55709584723681
  0
ARC
  5
B85
  8
0
 10
231.017664675829
 20
151.67587597737321
 30
0.0
 40
3.8109215479999992
 50
131.44290415276319
 51
168.4630409671818
  0
ARC
  5
B86
  8
0
 10
231.01766467582499
 20
83.114440968787576
 30
0.0
 40
3.8109215479999992
 50
131.44290415276319
 51
168.4630409671818
  0
ARC
  5
B87
  8
0
 10
231.01766467582499
 20
88.827893886169818
 30
0.0
 40
3.8109215479999992
 50
191.53695903281189
 51
228.55709584723681
  0
ARC
  5
B88
  8
0
 10
231.0176646758263
 20
111.6817055556984
 30
0.0
 40
3.8109215479999992
 50
131.44290415276319
 51
168.4630409671818
  0
ARC
  5
B89
  8
0
 10
231.01766467582749
 20
128.8220643078447
 30
0.0
 40
3.8109215479999992
 50
131.44290415276319
 51
168.4630409671818
  0
ARC
  5
B8A
  8
0
 10
231.01766467582831
 20
140.2489701426089
 30
0.0
 40
3.8109215479999992
 50
191.53695903281189
 51
228.55709584723681
  0
ARC
  5
B8B
  8
0
 10
231.0176646758278
 20
134.5355172252269
 30
0.0
 40
3.8109215479999992
 50
191.53695903281189
 51
228.55709584723681
  0
ARC
  5
B8C
  8
0
 10
231.0176646758278
 20
134.5355172252269
 30
0.0
 40
3.8109215479999992
 50
131.44290415276319
 51
168.4630409671818
  0
ARC
  5
B8D
  8
0
 10
231.01766467582669
 20
117.3951584730805
 30
0.0
 40
3.8109215479999992
 50
191.53695903281189
 51
228.55709584723681
  0
ARC
  5
B8E
  8
0
 10
231.01766467582749
 20
128.8220643078447
 30
0.0
 40
3.8109215479999992
 50
191.53695903281189
 51
228.55709584723681
  0
ARC
  5
B8F
  8
0
 10
231.01766467582709
 20
123.1086113904626
 30
0.0
 40
3.8109215479999992
 50
191.53695903281189
 51
228.55709584723681
  0
ARC
  5
B90
  8
0
 10
231.01766467582709
 20
123.1086113904626
 30
0.0
 40
3.8109215479999992
 50
131.44290415276319
 51
168.4630409671818
  0
ARC
  5
B91
  8
0
 10
231.01766467582669
 20
117.3951584730805
 30
0.0
 40
3.8109215479999992
 50
131.44290415276319
 51
168.4630409671818
  0
ARC
  5
B92
  8
0
 10
231.0176646758257
 20
100.254799720934
 30
0.0
 40
3.8109215479999992
 50
131.44290415276319
 51
168.4630409671818
  0
ARC
  5
B93
  8
0
 10
231.01766467582621
 20
105.9682526383161
 30
0.0
 40
3.8109215479999992
 50
191.53695903281189
 51
228.55709584723681
  0
ARC
  5
B94
  8
0
 10
231.01766467582621
 20
105.9682526383161
 30
0.0
 40
3.8109215479999992
 50
131.44290415276319
 51
168.4630409671818
  0
ARC
  5
B95
  8
0
 10
231.0176646758263
 20
111.6817055556984
 30
0.0
 40
3.8109215479999992
 50
191.53695903281189
 51
228.55709584723681
  0
ARC
  5
B96
  8
0
 10
231.01766467582539
 20
94.541346803551846
 30
0.0
 40
3.8109215479999992
 50
131.44290415276319
 51
168.4630409671818
  0
ARC
  5
B97
  8
0
 10
231.0176646758257
 20
100.254799720934
 30
0.0
 40
3.8109215479999992
 50
191.53695903281189
 51
228.55709584723681
  0
ARC
  5
B98
  8
0
 10
231.01766467582539
 20
94.541346803551846
 30
0.0
 40
3.8109215479999992
 50
191.53695903281189
 51
228.55709584723681
  0
ARC
  5
B99
  8
0
 10
231.01766467582499
 20
88.827893886169818
 30
0.0
 40
3.8109215479999992
 50
131.44290415276319
 51
168.4630409671818
  0
ARC
  5
B9A
  8
0
 10
231.0176646758238
 20
60.26062929925893
 30
0.0
 40
3.8109215479999992
 50
191.53695903281189
 51
228.55709584723681
  0
ARC
  5
B9B
  8
0
 10
231.01766467582459
 20
77.400988051405434
 30
0.0
 40
3.8109215479999992
 50
191.53695903281189
 51
228.55709584723681
  0
ARC
  5
B9C
  8
0
 10
231.01766467582419
 20
71.687535134023307
 30
0.0
 40
3.8109215479999992
 50
131.44290415276319
 51
168.4630409671818
  0
ARC
  5
B9D
  8
0
 10
231.01766467582499
 20
83.114440968787576
 30
0.0
 40
3.8109215479999992
 50
191.53695903281189
 51
228.55709584723681
  0
ARC
  5
B9E
  8
0
 10
231.01766467582459
 20
77.400988051405434
 30
0.0
 40
3.8109215479999992
 50
131.44290415276319
 51
168.4630409671818
  0
ARC
  5
B9F
  8
0
 10
231.0176646758238
 20
60.26062929925893
 30
0.0
 40
3.8109215479999992
 50
131.44290415276319
 51
168.4630409671818
  0
ARC
  5
BA0
  8
0
 10
231.0176646758238
 20
65.974082216641165
 30
0.0
 40
3.8109215479999992
 50
131.44290415276319
 51
168.4630409671818
  0
ARC
  5
BA1
  8
0
 10
231.01766467582419
 20
71.687535134023307
 30
0.0
 40
3.8109215479999992
 50
191.53695903281189
 51
228.55709584723681
  0
ARC
  5
BA2
  8
0
 10
231.0176646758238
 20
65.974082216641165
 30
0.0
 40
3.8109215479999992
 50
191.53695903281189
 51
228.55709584723681
  0
ARC
  5
BA3
  8
0
 10
231.0176646758234
 20
54.547176381876909
 30
0.0
 40
3.8109215479999992
 50
191.53695903281189
 51
228.55709584723681
  0
ARC
  5
BA4
  8
0
 10
231.0176646758234
 20
54.547176381876909
 30
0.0
 40
3.8109215479999992
 50
131.44290415276319
 51
168.4630409671818
  0
ARC
  5
BBA
  8
0
 10
231.01766467582931
 20
48.83372346449358
 30
0.0
 40
3.8109215479999992
 50
131.44290415276319
 51
168.46304096718791
  0
LINE
  5
BC4
  8
0
 10
227.28373937887801
 20
150.91369166777321
 30
0.0
 11
220.05629477379659
 21
150.91369166777301
 31
0.0
  0
LINE
  5
BC5
  8
0
 10
227.28373937887241
 20
55.309360691476968
 30
0.0
 11
220.05629477380231
 21
55.309360691476968
 31
0.0
  0
LINE
  5
BCC
  8
0
 10
218.8447169916071
 20
160.24605535344639
 30
0.0
 11
218.8774482826442
 21
160.2787866444834
 31
0.0
  0
LINE
  5
BCD
  8
0
 10
228.46258587003061
 20
160.2787866444834
 30
0.0
 11
228.4953171610675
 21
160.24605535344639
 31
0.0
  0
ARC
  5
BCE
  8
0
 10
221.73417474133541
 20
43.421918200003716
 30
0.0
 40
3.8109215479999992
 50
59.471144536978727
 51
138.55709584723769
  0
ARC
  5
BCF
  8
0
 10
216.32236947684549
 20
48.833723464493559
 30
0.0
 40
3.8109215479999992
 50
311.44290415276151
 51
348.46304096718188
  0
ARC
  5
BD0
  8
0
 10
225.60585941133959
 20
43.421918200003681
 30
0.0
 40
3.8109215479999992
 50
41.442904152762146
 51
120.5288554630208
  0
LINE
  5
BD1
  8
0
 10
227.28373937887849
 20
48.071539154893607
 30
0.0
 11
220.05629477379651
 21
48.071539154893578
 31
0.0
  0
ARC
  5
BD2
  8
0
 10
231.01766467582951
 20
48.833723464493588
 30
0.0
 40
3.8109215479999992
 50
191.53695903281809
 51
228.55709584723681
  0
LINE
  5
BD3
  8
0
 10
218.84471699160721
 20
45.976997005802438
 30
0.0
 11
218.87744828264431
 21
45.944265714765493
 31
0.0
  0
LINE
  5
BD4
  8
0
 10
228.46258587003069
 20
45.944265714765443
 30
0.0
 11
228.4953171610677
 21
45.976997005802488
 31
0.0
  0
LINE
  5
BD5
  8
0
 10
220.0562947737964
 20
49.595907774093313
 30
0.0
 11
227.28373937887829
 21
49.595907774093348
 31
0.0
  0
ARC
  5
BD8
  8
0
 10
237.3671441900336
 20
48.833723464493339
 30
0.0
 40
3.8109215479999992
 50
311.44290415276322
 51
48.557095847236774
  0
ARC
  5
BDC
  8
0
 10
237.3671441900336
 20
157.38932889475549
 30
0.0
 40
3.8109215479999992
 50
311.44290415276322
 51
48.557095847236774
  0
ENDSEC
  0
EOF
