  0
SECTION
  2
HEADER
  9
$ACADVER
  1
AC1009
  9
$INSBASE
 10
0.0
 20
0.0
 30
0.0
  9
$EXTMIN
 10
153.54643636066919
 20
-106.5736311693188
 30
-0.00000001
  9
$EXTMAX
 10
534.44443865723304
 20
254.82786896678741
 30
0.00000001
  9
$LIMMIN
 10
0.0
 20
0.0
  9
$LIMMAX
 10
420.0
 20
297.0
  9
$ORTHOMODE
 70
     1
  9
$REGENMODE
 70
     1
  9
$FILLMODE
 70
     1
  9
$QTEXTMODE
 70
     0
  9
$MIRRTEXT
 70
     1
  9
$DRAGMODE
 70
     2
  9
$LTSCALE
 40
1.0
  9
$OSMODE
 70
    39
  9
$ATTMODE
 70
     1
  9
$TEXTSIZE
 40
2.5
  9
$TRACEWID
 40
1.0
  9
$TEXTSTYLE
  7
STANDARD
  9
$CLAYER
  8
0
  9
$CELTYPE
  6
BYLAYER
  9
$CECOLOR
 62
   256
  9
$DIMSCALE
 40
1.0
  9
$DIMASZ
 40
2.5
  9
$DIMEXO
 40
0.625
  9
$DIMDLI
 40
3.75
  9
$DIMRND
 40
0.0
  9
$DIMDLE
 40
0.0
  9
$DIMEXE
 40
1.25
  9
$DIMTP
 40
0.0
  9
$DIMTM
 40
0.0
  9
$DIMTXT
 40
2.5
  9
$DIMCEN
 40
2.5
  9
$DIMTSZ
 40
0.0
  9
$DIMTOL
 70
     0
  9
$DIMLIM
 70
     0
  9
$DIMTIH
 70
     0
  9
$DIMTOH
 70
     0
  9
$DIMSE1
 70
     0
  9
$DIMSE2
 70
     0
  9
$DIMTAD
 70
     1
  9
$DIMZIN
 70
     8
  9
$DIMBLK
  1

  9
$DIMASO
 70
     1
  9
$DIMSHO
 70
     1
  9
$DIMPOST
  1

  9
$DIMAPOST
  1

  9
$DIMALT
 70
     0
  9
$DIMALTD
 70
     4
  9
$DIMALTF
 40
0.0394
  9
$DIMLFAC
 40
1.0
  9
$DIMTOFL
 70
     1
  9
$DIMTVP
 40
0.0
  9
$DIMTIX
 70
     0
  9
$DIMSOXD
 70
     0
  9
$DIMSAH
 70
     0
  9
$DIMBLK1
  1

  9
$DIMBLK2
  1

  9
$DIMSTYLE
  2
STANDARD
  9
$DIMCLRD
 70
     0
  9
$DIMCLRE
 70
     0
  9
$DIMCLRT
 70
     0
  9
$DIMTFAC
 40
1.0
  9
$DIMGAP
 40
0.625
  9
$LUNITS
 70
     2
  9
$LUPREC
 70
     4
  9
$SKETCHINC
 40
1.0
  9
$FILLETRAD
 40
10.0
  9
$AUNITS
 70
     0
  9
$AUPREC
 70
     0
  9
$MENU
  1
.
  9
$ELEVATION
 40
0.0
  9
$PELEVATION
 40
0.0
  9
$THICKNESS
 40
0.0
  9
$LIMCHECK
 70
     0
  9
$BLIPMODE
 70
     0
  9
$CHAMFERA
 40
10.0
  9
$CHAMFERB
 40
10.0
  9
$SKPOLY
 70
     0
  9
$TDCREATE
 40
2454712.8563756831
  9
$TDUPDATE
 40
2456693.8504493982
  9
$TDINDWG
 40
0.0951227894
  9
$TDUSRTIMER
 40
0.0951227894
  9
$USRTIMER
 70
     1
  9
$ANGBASE
 50
0.0
  9
$ANGDIR
 70
     0
  9
$PDMODE
 70
     0
  9
$PDSIZE
 40
0.0
  9
$PLINEWID
 40
0.0
  9
$COORDS
 70
     1
  9
$SPLFRAME
 70
     0
  9
$SPLINETYPE
 70
     6
  9
$SPLINESEGS
 70
     8
  9
$ATTDIA
 70
     0
  9
$ATTREQ
 70
     1
  9
$HANDLING
 70
     1
  9
$HANDSEED
  5
1406
  9
$SURFTAB1
 70
     6
  9
$SURFTAB2
 70
     6
  9
$SURFTYPE
 70
     6
  9
$SURFU
 70
     6
  9
$SURFV
 70
     6
  9
$UCSNAME
  2

  9
$UCSORG
 10
0.0
 20
0.0
 30
0.0
  9
$UCSXDIR
 10
1.0
 20
0.0
 30
0.0
  9
$UCSYDIR
 10
0.0
 20
1.0
 30
0.0
  9
$PUCSNAME
  2

  9
$PUCSORG
 10
0.0
 20
0.0
 30
0.0
  9
$PUCSXDIR
 10
1.0
 20
0.0
 30
0.0
  9
$PUCSYDIR
 10
0.0
 20
1.0
 30
0.0
  9
$USERI1
 70
     0
  9
$USERI2
 70
     0
  9
$USERI3
 70
     0
  9
$USERI4
 70
     0
  9
$USERI5
 70
     0
  9
$USERR1
 40
0.0
  9
$USERR2
 40
0.0
  9
$USERR3
 40
0.0
  9
$USERR4
 40
0.0
  9
$USERR5
 40
0.0
  9
$WORLDVIEW
 70
     1
  9
$SHADEDGE
 70
     3
  9
$SHADEDIF
 70
    70
  9
$TILEMODE
 70
     1
  9
$MAXACTVP
 70
    48
  9
$PLIMCHECK
 70
     0
  9
$PEXTMIN
 10
1.0000000000000000E+020
 20
1.0000000000000000E+020
 30
1.0000000000000000E+020
  9
$PEXTMAX
 10
-1.0000000000000000E+020
 20
-1.0000000000000000E+020
 30
-1.0000000000000000E+020
  9
$PLIMMIN
 10
0.0
 20
0.0
  9
$PLIMMAX
 10
420.0
 20
297.0
  9
$UNITMODE
 70
     0
  9
$VISRETAIN
 70
     1
  9
$PLINEGEN
 70
     0
  9
$PSLTSCALE
 70
     1
  0
ENDSEC
  0
SECTION
  2
TABLES
  0
TABLE
  2
VPORT
 70
     1
  0
VPORT
  2
*ACTIVE
 70
     0
 10
0.0
 20
0.0
 11
1.0
 21
1.0
 12
444.55538202617419
 22
123.1223824459457
 13
0.0
 23
0.0
 14
10.0
 24
10.0
 15
10.0
 25
10.0
 16
0.0
 26
0.0
 36
1.0
 17
0.0
 27
0.0
 37
0.0
 40
486.66738951108141
 41
1.658653846153846
 42
50.0
 43
0.0
 44
0.0
 50
0.0
 51
0.0
 71
     0
 72
   100
 73
     1
 74
     1
 75
     0
 76
     0
 77
     0
 78
     0
  0
ENDTAB
  0
TABLE
  2
LTYPE
 70
     1
  0
LTYPE
  2
CONTINUOUS
 70
     0
  3
Solid line
 72
    65
 73
     0
 40
0.0
  0
ENDTAB
  0
TABLE
  2
LAYER
 70
     1
  0
LAYER
  2
0
 70
     0
 62
     7
  6
CONTINUOUS
  0
ENDTAB
  0
TABLE
  2
STYLE
 70
     1
  0
STYLE
  2
STANDARD
 70
     0
 40
0.0
 41
1.0
 50
0.0
 71
     0
 42
2.5
  3
txt
  4

  0
ENDTAB
  0
TABLE
  2
VIEW
 70
     0
  0
ENDTAB
  0
TABLE
  2
UCS
 70
     0
  0
ENDTAB
  0
TABLE
  2
APPID
 70
     2
  0
APPID
  2
ACAD
 70
     0
  0
APPID
  2
ACAD_MLEADERVER
 70
     0
  0
ENDTAB
  0
TABLE
  2
DIMSTYLE
 70
     1
  0
DIMSTYLE
  2
STANDARD
 70
     0
  3

  4

  5

  6

  7

 40
1.0
 41
0.18
 42
0.0625
 43
0.38
 44
0.18
 45
0.0
 46
0.0
 47
0.0
 48
0.0
140
0.18
141
0.09
142
0.0
143
25.399999999999999
144
1.0
145
0.0
146
1.0
147
0.09
 71
     0
 72
     0
 73
     1
 74
     1
 75
     0
 76
     0
 77
     0
 78
     0
170
     0
171
     2
172
     0
173
     0
174
     0
175
     0
176
     0
177
     0
178
     0
  0
ENDTAB
  0
ENDSEC
  0
SECTION
  2
BLOCKS
  0
BLOCK
  8
0
  2
$MODEL_SPACE
 70
     0
 10
0.0
 20
0.0
 30
0.0
  3
$MODEL_SPACE
  1

  0
ENDBLK
  5
1A
  8
0
  0
BLOCK
 67
     1
  8
0
  2
$PAPER_SPACE
 70
     0
 10
0.0
 20
0.0
 30
0.0
  3
$PAPER_SPACE
  1

  0
ENDBLK
  5
17
 67
     1
  8
0
  0
ENDSEC
  0
SECTION
  2
ENTITIES
  0
ARC
  5
680
  8
0
 10
246.02787797043669
 20
-63.553242809699782
 30
0.0
 40
43.020388349619061
 50
232.996123528422
 51
307.00387647157811
  0
ARC
  5
681
  8
0
 10
246.0278779704368
 20
16.14174550414716
 30
0.0
 40
43.020388349619061
 50
52.996123528421947
 51
127.003876471578
  0
ARC
  5
682
  8
0
 10
205.11822045014489
 20
9.2386444008647004
 30
0.0
 40
43.906861771869274
 50
52.620211817238157
 51
65.384649154237536
  0
LINE
  5
683
  8
0
 10
231.71517499425761
 20
-88.044156463000093
 30
0.0
 11
226.13630669023979
 21
-88.044156463000093
 31
0.0
  0
LINE
  5
684
  8
0
 10
236.36370622145969
 20
-83.421428049675058
 30
0.0
 11
226.41564426388379
 21
-83.421428049675029
 31
0.0
  0
ARC
  5
685
  8
0
 10
205.11822045014489
 20
-56.650141706417202
 30
0.0
 40
43.906861771869274
 50
294.61535084576252
 51
307.37978818276179
  0
ARC
  5
686
  8
0
 10
246.02787797043669
 20
-63.553242809699661
 30
0.0
 40
40.020388349619061
 50
235.58059892237301
 51
304.41940107762701
  0
LINE
  5
687
  8
0
 10
231.06338512508589
 20
-52.965165157005231
 30
0.0
 11
233.07499481252401
 21
-54.976774844443298
 31
0.0
  0
LINE
  5
688
  8
0
 10
228.31443543432431
 20
-59.52993766897162
 30
0.0
 11
232.22940792347759
 21
-56.94642306639264
 31
0.0
  0
ARC
  5
689
  8
0
 10
241.3710168690728
 20
-28.362609754140241
 30
0.0
 40
13.54128424578793
 50
220.764952246928
 51
229.2350477530718
  0
LINE
  5
68A
  8
0
 10
232.5291347240634
 20
-38.618705461522673
 30
0.0
 11
229.27989117819729
 21
-41.867949007388688
 31
0.0
  0
LINE
  5
68B
  8
0
 10
231.06338512508589
 20
-52.965165157005231
 30
0.0
 11
234.9783576142392
 21
-50.381650554426237
 31
0.0
  0
LINE
  5
68C
  8
0
 10
233.17089082393841
 20
-61.541547356409708
 30
0.0
 11
230.32604512176241
 21
-61.541547356409737
 31
0.0
  0
LINE
  5
68D
  8
0
 10
229.94005372148121
 20
-33.214389347944433
 30
0.0
 11
232.52356832406011
 21
-29.299416858791201
 31
0.0
  0
LINE
  5
68E
  8
0
 10
232.52356832405999
 20
-24.705748652776212
 30
0.0
 11
227.92844403404311
 21
-24.70574865277624
 31
0.0
  0
LINE
  5
68F
  8
0
 10
232.52356832405999
 20
-22.70574865277624
 30
0.0
 11
227.92844403404311
 21
-22.70574865277624
 31
0.0
  0
LINE
  5
690
  8
0
 10
227.92844403404311
 20
-28.35793395833036
 30
0.0
 11
232.52356832406011
 21
-29.29941685879135
 31
0.0
  0
LINE
  5
691
  8
0
 10
227.92844403404311
 20
-19.053563347222219
 30
0.0
 11
232.52356832406011
 21
-18.11208044676118
 31
0.0
  0
LINE
  5
692
  8
0
 10
229.94005372148121
 20
-14.19710795760812
 30
0.0
 11
232.52356832406011
 21
-18.11208044676135
 31
0.0
  0
ARC
  5
693
  8
0
 10
241.3710168690728
 20
-19.048887551412289
 30
0.0
 40
13.54128424578793
 50
130.764952246928
 51
139.2350477530718
  0
LINE
  5
694
  8
0
 10
232.5291347240634
 20
-8.792791844029864
 30
0.0
 11
229.2798911781974
 21
-5.5435482981637838
 31
0.0
  0
ARC
  5
695
  8
0
 10
246.0278779704368
 20
16.14174550414716
 30
0.0
 40
40.020388349619061
 50
55.580598922373007
 51
124.4194010776269
  0
LINE
  5
696
  8
0
 10
226.41564426388379
 20
36.009930744122471
 30
0.0
 11
236.36370622145981
 21
36.009930744122528
 31
0.0
  0
LINE
  5
697
  8
0
 10
226.13630669023991
 20
40.632659157447591
 30
0.0
 11
231.71517499425761
 21
40.632659157447591
 31
0.0
  0
LINE
  5
698
  8
0
 10
228.3651909324056
 20
12.139463979089349
 30
0.0
 11
232.28016342155891
 21
9.5559493765103412
 31
0.0
  0
LINE
  5
699
  8
0
 10
233.22164632201969
 20
14.15107366652742
 30
0.0
 11
230.37680061984361
 21
14.15107366652742
 31
0.0
  0
LINE
  5
69A
  8
0
 10
231.063385125086
 20
5.5536678514527011
 30
0.0
 11
234.9783576142392
 21
2.970153248873685
 31
0.0
  0
LINE
  5
69B
  8
0
 10
231.063385125086
 20
5.5536678514527011
 30
0.0
 11
233.07499481252401
 21
7.5652775388907401
 31
0.0
  0
ARC
  5
69C
  8
0
 10
206.18038381351329
 20
-23.70574865277629
 30
0.0
 40
43.020388349619061
 50
142.99612352842189
 51
217.003876471578
  0
ARC
  5
69D
  8
0
 10
241.3710168690728
 20
-28.362609754140241
 30
0.0
 40
18.12703805970186
 50
221.8376035470699
 51
228.1623964529301
  0
LINE
  5
69E
  8
0
 10
210.1826653385711
 20
-41.368435690807409
 30
0.0
 11
212.76617994115011
 21
-37.453463201654081
 31
0.0
  0
LINE
  5
69F
  8
0
 10
179.68947016021281
 20
-48.597282359329228
 30
0.0
 11
179.68947016021281
 21
-40.577479224280133
 31
0.0
  0
ARC
  5
6A0
  8
0
 10
213.0834849167957
 20
-64.615406173068081
 30
0.0
 40
41.145864355462777
 50
144.25262607284989
 51
157.51063217144051
  0
LINE
  5
6A1
  8
0
 10
201.55765540018811
 20
-39.387612163120593
 30
0.0
 11
201.55765540018811
 21
-42.125917963123349
 31
0.0
  0
LINE
  5
6A2
  8
0
 10
210.1826653385711
 20
-41.368435690807409
 30
0.0
 11
208.171055651133
 21
-39.356826003369349
 31
0.0
  0
LINE
  5
6A3
  8
0
 10
205.9806915899762
 20
-40.293836386446259
 30
0.0
 11
203.49393000033271
 21
-44.062192563267921
 31
0.0
  0
LINE
  5
6A4
  8
0
 10
181.68947016021281
 20
-43.597319932973129
 30
0.0
 11
181.68947016021281
 21
-38.018451628955383
 31
0.0
  0
LINE
  5
6A5
  8
0
 10
186.31219857353801
 20
-43.317982359329193
 30
0.0
 11
186.3121985735379
 21
-33.369920401753227
 31
0.0
  0
ARC
  5
6A6
  8
0
 10
206.18038381351329
 20
-23.705748652776212
 30
0.0
 40
40.020388349619061
 50
145.58059892237301
 51
214.41940107762699
  0
ARC
  5
6A7
  8
0
 10
213.0834849167957
 20
-64.615406173068081
 30
0.0
 40
43.906861771869274
 50
142.6202118172381
 51
155.38464915423751
  0
ARC
  5
6A8
  8
0
 10
217.85144463878481
 20
-51.88218198442825
 30
0.0
 40
43.020388349619061
 50
187.99612352842189
 51
262.00387647157811
  0
LINE
  5
6A9
  8
0
 10
226.41564426388379
 20
-83.421428049674986
 30
0.0
 11
226.13630669023979
 21
-88.044156463000093
 31
0.0
  0
LINE
  5
6AA
  8
0
 10
217.4417622738066
 20
-86.107881862855763
 30
0.0
 11
219.378036873951
 21
-88.044156463000164
 31
0.0
  0
LINE
  5
6AB
  8
0
 10
216.72051223274599
 20
-88.215058946541333
 30
0.0
 11
211.0496550521716
 21
-82.544201765966946
 31
0.0
  0
ARC
  5
6AC
  8
0
 10
251.6601704887498
 20
-75.928448631698373
 30
0.0
 40
41.145864355462777
 50
189.25262607284981
 51
202.51063217144039
  0
LINE
  5
6AD
  8
0
 10
221.21011845062841
 20
-83.621120273212213
 30
0.0
 11
222.11634267395391
 21
-88.04415646300022
 31
0.0
  0
ARC
  5
6AE
  8
0
 10
217.85144463878481
 20
-51.882181984428151
 30
0.0
 40
40.020388349619061
 50
190.58059892237301
 51
259.41940107762701
  0
ARC
  5
6AF
  8
0
 10
251.6601704887498
 20
-75.928448631698373
 30
0.0
 40
43.906861771869274
 50
187.6202118172381
 51
200.38464915423759
  0
ARC
  5
6B0
  8
0
 10
205.11822045014489
 20
-56.650141706417322
 30
0.0
 40
43.906861771869274
 50
282.5069786696925
 51
289.99998038243842
  0
LINE
  5
6B1
  8
0
 10
216.7205122327459
 20
-88.215058946541276
 30
0.0
 11
213.64927111666381
 21
-91.681343047751014
 31
0.0
  0
ARC
  5
6B2
  8
0
 10
251.6601704887498
 20
-75.928448631698501
 30
0.0
 40
43.906861771869274
 50
205.00001961756161
 51
212.4930213303075
  0
LINE
  5
6B3
  8
0
 10
229.15614739893289
 20
-90.044156463000078
 30
0.0
 11
221.13630669023979
 21
-90.044156463000078
 31
0.0
  0
ARC
  5
6B4
  8
0
 10
205.1182204501448
 20
-56.650141706417287
 30
0.0
 40
41.145864355462777
 50
292.48936782855969
 51
305.74737392715042
  0
LINE
  5
6B5
  8
0
 10
221.13630669023991
 20
-90.044156463000078
 30
0.0
 11
220.85696911659591
 21
-94.666884876325184
 31
0.0
  0
LINE
  5
6B6
  8
0
 10
222.11634267395391
 20
-88.044156463000206
 30
0.0
 11
219.378036873951
 21
-88.044156463000164
 31
0.0
  0
LINE
  5
6B7
  8
0
 10
199.52030666542859
 20
-58.820473912439809
 30
0.0
 11
194.88432014591459
 21
-54.184487392925853
 31
0.0
  0
LINE
  5
6B8
  8
0
 10
204.92547293194909
 20
-57.688114961668589
 30
0.0
 11
198.35060424712441
 21
-51.113246276843768
 31
0.0
  0
ARC
  5
6B9
  8
0
 10
217.85144463878481
 20
-51.882181984428151
 30
0.0
 40
22.093913196256072
 50
206.586768510149
 51
243.4132314898512
  0
ARC
  5
6BA
  8
0
 10
217.85144463878481
 20
-51.882181984428151
 30
0.0
 40
28.366499926105561
 50
200.70151420817871
 51
249.29848579182141
  0
ARC
  5
6BB
  8
0
 10
217.85144463878481
 20
-51.882181984428151
 30
0.0
 40
31.407384460728942
 50
198.00953566755879
 51
251.99046433244121
  0
LINE
  5
6BC
  8
0
 10
194.9349269868631
 20
-42.130836091833572
 30
0.0
 11
199.35796317665111
 21
-43.037060315159209
 31
0.0
  0
LINE
  5
6BD
  8
0
 10
199.35796317665111
 20
-43.037060315159209
 30
0.0
 11
196.8712015870075
 21
-46.805416491980878
 31
0.0
  0
LINE
  5
6BE
  8
0
 10
187.189424857246
 20
-58.683971571041411
 30
0.0
 11
181.51854110809319
 21
-53.013087821888583
 31
0.0
  0
ARC
  5
6BF
  8
0
 10
193.80517799151451
 20
-18.073456134463129
 30
0.0
 40
41.145864355462777
 50
247.48936782855961
 51
260.74737392715031
  0
ARC
  5
6C0
  8
0
 10
193.8051779915146
 20
-18.07345613446315
 30
0.0
 40
43.906861771869274
 50
249.61535084576241
 51
262.37978818276179
  0
LINE
  5
6C1
  8
0
 10
183.62574476035729
 20
-52.291864349406637
 30
0.0
 11
181.68947016021281
 21
-50.355589749262123
 31
0.0
  0
LINE
  5
6C2
  8
0
 10
181.68947016021289
 20
-47.617283949259381
 30
0.0
 11
186.1125063500009
 21
-48.523508172585032
 31
0.0
  0
LINE
  5
6C3
  8
0
 10
186.3121985735379
 20
-43.317982359329193
 30
0.0
 11
181.68947016021281
 21
-43.597319932973129
 31
0.0
  0
ARC
  5
6C4
  8
0
 10
213.0834849167957
 20
-64.615406173068166
 30
0.0
 40
43.906861771869274
 50
160.00001961756161
 51
167.4930213303075
  0
ARC
  5
6C5
  8
0
 10
193.8051779915146
 20
-18.073456134463299
 30
0.0
 40
43.906861771869274
 50
237.50697866969259
 51
244.99998038243839
  0
LINE
  5
6C6
  8
0
 10
181.51854110809319
 20
-53.013087821888632
 30
0.0
 11
178.05225700688351
 21
-56.084328937970668
 31
0.0
  0
LINE
  5
6C7
  8
0
 10
179.68947016021281
 20
-48.597282359329192
 30
0.0
 11
175.06674174688769
 21
-48.876619932973107
 31
0.0
  0
LINE
  5
6C8
  8
0
 10
181.68947016021281
 20
-47.61728394925936
 30
0.0
 11
181.68947016021281
 21
-50.355589749262123
 31
0.0
  0
LINE
  5
6C9
  8
0
 10
189.9345726776088
 20
-52.0631670493662
 30
0.0
 11
186.46828857639909
 21
-55.134408165448228
 31
0.0
  0
LINE
  5
6CA
  8
0
 10
198.35060424712441
 20
-51.113246276843768
 30
0.0
 11
194.88432014591459
 21
-54.184487392925803
 31
0.0
  0
LINE
  5
6CB
  8
0
 10
196.9689147474746
 20
-59.097509119232079
 30
0.0
 11
189.9345726776088
 21
-52.0631670493662
 31
0.0
  0
LINE
  5
6CC
  8
0
 10
190.4131441855167
 20
-59.079263774565902
 30
0.0
 11
186.46828857639909
 21
-55.134408165448228
 31
0.0
  0
ARC
  5
6CD
  8
0
 10
193.80517799151451
 20
-18.073456134463129
 30
0.0
 40
41.145864355462777
 50
265.27121278479092
 51
274.4098686270064
  0
ARC
  5
6CE
  8
0
 10
193.8051779915146
 20
-18.07345613446315
 30
0.0
 40
43.906861771869274
 50
266.75060254680551
 51
275.60532037226523
  0
LINE
  5
6CF
  8
0
 10
188.31219857353801
 20
-44.87406002054643
 30
0.0
 11
192.73523476332599
 21
-45.780284243872067
 31
0.0
  0
LINE
  5
6D0
  8
0
 10
192.73523476332599
 20
-45.780284243872067
 30
0.0
 11
190.2484731736825
 21
-49.548640420693737
 31
0.0
  0
LINE
  5
6D1
  8
0
 10
188.31219857353801
 20
-44.874060020546402
 30
0.0
 11
188.31219857353801
 21
-47.612365820549172
 31
0.0
  0
LINE
  5
6D2
  8
0
 10
186.1125063500009
 20
-48.523508172585032
 30
0.0
 11
183.62574476035729
 21
-52.291864349406687
 31
0.0
  0
LINE
  5
6D3
  8
0
 10
190.2484731736825
 20
-49.548640420693687
 30
0.0
 11
188.31219857353801
 21
-47.612365820549172
 31
0.0
  0
LINE
  5
6D4
  8
0
 10
196.8712015870075
 20
-46.805416491980822
 30
0.0
 11
194.93492698686299
 21
-44.869141891836307
 31
0.0
  0
LINE
  5
6D5
  8
0
 10
194.93492698686299
 20
-42.130836091833537
 30
0.0
 11
194.93492698686299
 21
-44.869141891836307
 31
0.0
  0
ARC
  5
6D6
  8
0
 10
217.85144463878481
 20
-51.882181984428151
 30
0.0
 40
19.600268219504841
 50
209.1524531425751
 51
240.84754685742499
  0
LINE
  5
6D7
  8
0
 10
219.57030111889159
 20
-62.966990806573008
 30
0.0
 11
216.49906000280961
 21
-66.433274907782746
 31
0.0
  0
LINE
  5
6D8
  8
0
 10
216.49906000280961
 20
-66.433274907782746
 30
0.0
 11
212.71578699267701
 21
-62.650001897650142
 31
0.0
  0
ARC
  5
6D9
  8
0
 10
251.6601704887498
 20
-75.928448631698373
 30
0.0
 40
43.906861771869274
 50
156.2927437202022
 51
170.9203435453708
  0
LINE
  5
6DA
  8
0
 10
225.67143405994531
 20
-66.23969662288043
 30
0.0
 11
229.43979023676701
 21
-63.752935033236881
 31
0.0
  0
LINE
  5
6DB
  8
0
 10
229.43979023676701
 20
-63.752935033236881
 30
0.0
 11
230.3460144600927
 21
-68.175971223024888
 31
0.0
  0
LINE
  5
6DC
  8
0
 10
215.5491392302871
 20
-74.849306477298242
 30
0.0
 11
210.9131527107732
 21
-70.213319957784265
 31
0.0
  0
LINE
  5
6DD
  8
0
 10
218.62038034636919
 20
-71.383022376088562
 30
0.0
 11
212.04551166154431
 21
-64.808153691263712
 31
0.0
  0
LINE
  5
6DE
  8
0
 10
217.67045957384681
 20
-79.799053945604143
 30
0.0
 11
214.59921845776469
 21
-83.265338046813852
 31
0.0
  0
LINE
  5
6DF
  8
0
 10
217.67045957384681
 20
-79.799053945604115
 30
0.0
 11
210.6361175039809
 21
-72.764711875738243
 31
0.0
  0
ARC
  5
6E0
  8
0
 10
251.6601704887498
 20
-75.928448631698373
 30
0.0
 40
41.145864355462777
 50
175.59013137299351
 51
184.72878721520939
  0
ARC
  5
6E1
  8
0
 10
251.6601704887498
 20
-75.928448631698373
 30
0.0
 40
43.906861771869274
 50
174.3946796277348
 51
183.24939745319449
  0
LINE
  5
6E2
  8
0
 10
214.59921845776469
 20
-83.265338046813852
 30
0.0
 11
210.654362848647
 21
-79.320482437696214
 31
0.0
  0
ARC
  5
6E3
  8
0
 10
251.6601704887498
 20
-75.928448631698373
 30
0.0
 40
41.145864355462777
 50
164.31995206026139
 51
172.0158458383211
  0
LINE
  5
6E4
  8
0
 10
220.1849862025195
 20
-79.485153449530642
 30
0.0
 11
223.95334237934119
 21
-76.998391859887064
 31
0.0
  0
LINE
  5
6E5
  8
0
 10
224.8595666026668
 20
-81.421428049675072
 30
0.0
 11
222.1212608026639
 21
-81.421428049675015
 31
0.0
  0
LINE
  5
6E6
  8
0
 10
220.1849862025195
 20
-79.485153449530614
 30
0.0
 11
222.1212608026639
 21
-81.421428049675015
 31
0.0
  0
LINE
  5
6E7
  8
0
 10
217.4417622738066
 20
-86.107881862855805
 30
0.0
 11
221.21011845062841
 21
-83.621120273212213
 31
0.0
  0
LINE
  5
6E8
  8
0
 10
223.95334237934119
 20
-76.998391859887064
 30
0.0
 11
224.8595666026668
 21
-81.421428049675072
 31
0.0
  0
LINE
  5
6E9
  8
0
 10
222.92821013123239
 20
-72.862425036205579
 30
0.0
 11
224.86448473137679
 21
-74.79869963634998
 31
0.0
  0
LINE
  5
6EA
  8
0
 10
222.92821013123239
 20
-72.862425036205579
 30
0.0
 11
226.69656630805409
 21
-70.375663446562029
 31
0.0
  0
LINE
  5
6EB
  8
0
 10
218.62038034636919
 20
-71.38302237608859
 30
0.0
 11
215.5491392302871
 21
-74.849306477298299
 31
0.0
  0
LINE
  5
6EC
  8
0
 10
226.69656630805409
 20
-70.375663446562029
 30
0.0
 11
227.6027905313797
 21
-74.798699636350008
 31
0.0
  0
LINE
  5
6ED
  8
0
 10
227.6027905313797
 20
-74.798699636350008
 30
0.0
 11
224.86448473137679
 21
-74.79869963634998
 31
0.0
  0
LINE
  5
6EE
  8
0
 10
225.67143405994531
 20
-66.23969662288043
 30
0.0
 11
227.60770866008971
 21
-68.175971223024831
 31
0.0
  0
LINE
  5
6EF
  8
0
 10
230.34601446009259
 20
-68.17597122302486
 30
0.0
 11
227.60770866008971
 21
-68.175971223024831
 31
0.0
  0
LINE
  5
6F0
  8
0
 10
215.1826673861556
 20
-49.213404731798853
 30
0.0
 11
211.71638328494569
 21
-52.284645847880938
 31
0.0
  0
LINE
  5
6F1
  8
0
 10
219.57030111889159
 20
-62.966990806572952
 30
0.0
 11
214.61839122957591
 21
-58.015080917257308
 31
0.0
  0
LINE
  5
6F2
  8
0
 10
217.44898077533199
 20
-58.017243338267178
 30
0.0
 11
211.71638328494569
 21
-52.284645847880881
 31
0.0
  0
LINE
  5
6F3
  8
0
 10
211.71854570595559
 20
-55.115235393636972
 30
0.0
 11
206.7666358166399
 21
-50.163325504321392
 31
0.0
  0
LINE
  5
6F4
  8
0
 10
206.7666358166399
 20
-50.163325504321328
 30
0.0
 11
203.3003517154302
 21
-53.23456662040342
 31
0.0
  0
LINE
  5
6F5
  8
0
 10
207.08362472556269
 20
-57.017839630535939
 30
0.0
 11
203.3003517154302
 21
-53.23456662040342
 31
0.0
  0
ARC
  5
6F6
  8
0
 10
193.8051779915146
 20
-18.07345613446315
 30
0.0
 40
43.906861771869274
 50
279.07965645462917
 51
293.70725627979778
  0
ARC
  5
6F7
  8
0
 10
193.80517799151451
 20
-18.073456134463129
 30
0.0
 40
41.145864355462777
 50
277.98415416167899
 51
285.68004793973859
  0
ARC
  5
6F8
  8
0
 10
251.6601704887498
 20
-75.928448631698373
 30
0.0
 40
41.145864355462777
 50
154.1916353641561
 51
161.17271673329179
  0
ARC
  5
6F9
  8
0
 10
193.80517799151451
 20
-18.073456134463129
 30
0.0
 40
41.145864355462777
 50
288.82728326670821
 51
295.80836463584399
  0
LINE
  5
6FA
  8
0
 10
203.49393000033271
 20
-44.062192563267871
 30
0.0
 11
201.55765540018811
 21
-42.125917963123349
 31
0.0
  0
LINE
  5
6FB
  8
0
 10
220.52022189141411
 20
-54.550959237057441
 30
0.0
 11
215.1826673861556
 21
-49.213404731798789
 31
0.0
  0
LINE
  5
6FC
  8
0
 10
220.52022189141411
 20
-54.550959237057441
 30
0.0
 11
217.44898077533199
 21
-58.017243338267178
 31
0.0
  0
LINE
  5
6FD
  8
0
 10
228.31443543432431
 20
-59.52993766897162
 30
0.0
 11
230.32604512176241
 21
-61.541547356409737
 31
0.0
  0
ARC
  5
6FE
  8
0
 10
232.05729466634469
 20
-37.676331956868239
 30
0.0
 40
13.54128424578793
 50
220.764952246928
 51
229.2350477530718
  0
LINE
  5
6FF
  8
0
 10
223.2154125213354
 20
-47.93242766425066
 30
0.0
 11
219.9661689754694
 21
-51.18167121011669
 31
0.0
  0
LINE
  5
700
  8
0
 10
221.80119895896229
 20
-46.518214101877611
 30
0.0
 11
218.55195541309629
 21
-49.767457647743583
 31
0.0
  0
ARC
  5
701
  8
0
 10
232.05729466634469
 20
-37.676331956868239
 30
0.0
 40
18.12703805970186
 50
221.8376035470699
 51
228.1623964529301
  0
ARC
  5
702
  8
0
 10
236.71415576770869
 20
-33.01947085550421
 30
0.0
 40
13.54128424578793
 50
220.764952246928
 51
229.2350477530718
  0
LINE
  5
703
  8
0
 10
227.8722736226994
 20
-43.275566562886631
 30
0.0
 11
224.6230300768334
 21
-46.524810108752654
 31
0.0
  0
ARC
  5
704
  8
0
 10
236.71415576770869
 20
-33.01947085550421
 30
0.0
 40
18.12703805970186
 50
221.8376035470699
 51
228.1623964529301
  0
LINE
  5
705
  8
0
 10
226.45806006032629
 20
-41.861353000513589
 30
0.0
 11
223.20881651446021
 21
-45.110596546379611
 31
0.0
  0
ARC
  5
706
  8
0
 10
217.8514446387849
 20
4.4706846788756129
 30
0.0
 40
43.020388349619061
 50
97.996123528421947
 51
172.003876471578
  0
ARC
  5
707
  8
0
 10
251.66017048874991
 20
28.516951326145829
 30
0.0
 40
43.906861771869274
 50
147.5069786696925
 51
154.99998038243831
  0
ARC
  5
708
  8
0
 10
205.11822045014489
 20
9.2386444008647004
 30
0.0
 40
43.906861771869274
 50
70.000019617561634
 51
77.493021330307471
  0
ARC
  5
709
  8
0
 10
213.0834849167957
 20
17.20390886751554
 30
0.0
 40
43.906861771869274
 50
192.5069786696925
 51
199.99998038243831
  0
LINE
  5
70A
  8
0
 10
198.35060424712441
 20
3.701748971291237
 30
0.0
 11
194.8843201459147
 21
6.7729900873733291
 31
0.0
  0
LINE
  5
70B
  8
0
 10
198.35060424712441
 20
3.701748971291237
 30
0.0
 11
204.92547293194929
 21
10.276617656116111
 31
0.0
  0
LINE
  5
70C
  8
0
 10
206.76663581663999
 20
2.7518281987688051
 30
0.0
 11
203.3003517154302
 21
5.8230693148508967
 31
0.0
  0
LINE
  5
70D
  8
0
 10
206.76663581663999
 20
2.7518281987688051
 30
0.0
 11
211.71854570595571
 21
7.7037380880845481
 31
0.0
  0
LINE
  5
70E
  8
0
 10
215.1826673861556
 20
1.801907426246373
 30
0.0
 11
220.5202218914142
 21
7.1394619315049113
 31
0.0
  0
LINE
  5
70F
  8
0
 10
211.71638328494581
 20
4.8731485423284653
 30
0.0
 11
217.4489807753321
 21
10.6057460327147
 31
0.0
  0
LINE
  5
710
  8
0
 10
181.51856767667169
 20
5.601617084914551
 30
0.0
 11
178.05228357546201
 21
8.6728582009965862
 31
0.0
  0
LINE
  5
711
  8
0
 10
181.51856767667161
 20
5.6016170849144942
 30
0.0
 11
187.189424857246
 21
11.27247426548888
 31
0.0
  0
LINE
  5
712
  8
0
 10
189.9345726776088
 20
4.6516697438136703
 30
0.0
 11
186.46828857639909
 21
7.7229108598957623
 31
0.0
  0
LINE
  5
713
  8
0
 10
189.93457267760891
 20
4.6516697438136703
 30
0.0
 11
196.96891474747471
 21
11.68601181367961
 31
0.0
  0
LINE
  5
714
  8
0
 10
199.5576554001882
 20
-14.652190093511161
 30
0.0
 11
194.9349269868631
 21
-14.372852519867219
 31
0.0
  0
ARC
  5
715
  8
0
 10
213.08348491679561
 20
17.203908867515729
 30
0.0
 40
41.145864355462777
 50
243.82728326670829
 51
250.8083646358439
  0
ARC
  5
716
  8
0
 10
213.0834849167957
 20
-64.615406173068081
 30
0.0
 40
41.145864355462777
 50
109.1916353641561
 51
116.17271673329179
  0
LINE
  5
717
  8
0
 10
199.55765540018811
 20
-32.759307212041307
 30
0.0
 11
194.93492698686299
 21
-33.03864478568525
 31
0.0
  0
LINE
  5
718
  8
0
 10
196.87120158700739
 20
-0.606080813571964
 30
0.0
 11
199.35796317665091
 21
-4.3744369903936891
 31
0.0
  0
LINE
  5
719
  8
0
 10
199.35796317665091
 20
-4.3744369903936891
 30
0.0
 11
194.93492698686299
 21
-5.2806612137192701
 31
0.0
  0
ARC
  5
71A
  8
0
 10
213.08348491679561
 20
17.203908867515729
 30
0.0
 40
41.145864355462777
 50
232.98415416167899
 51
240.68004793973861
  0
LINE
  5
71B
  8
0
 10
192.93492698686299
 20
-18.671120984768599
 30
0.0
 11
192.93492698686299
 21
-9.3728525198671946
 31
0.0
  0
ARC
  5
71C
  8
0
 10
206.18038381351329
 20
-23.705748652776212
 30
0.0
 40
22.093913196256072
 50
161.58676851014889
 51
198.41323148985111
  0
ARC
  5
71D
  8
0
 10
206.18038381351329
 20
-23.705748652776212
 30
0.0
 40
28.366499926105561
 50
155.70151420817871
 51
204.29848579182141
  0
ARC
  5
71E
  8
0
 10
206.18038381351329
 20
-23.705748652776212
 30
0.0
 40
31.407384460728942
 50
153.00953566755879
 51
206.99046433244129
  0
LINE
  5
71F
  8
0
 10
194.93492698686299
 20
-19.723208520956721
 30
0.0
 11
194.9349269868631
 21
-14.372852519867219
 31
0.0
  0
ARC
  5
720
  8
0
 10
213.0834849167957
 20
-64.615406173068081
 30
0.0
 40
41.145864355462777
 50
130.5901313729936
 51
139.72878721520939
  0
ARC
  5
721
  8
0
 10
213.0834849167957
 20
-64.615406173068081
 30
0.0
 40
43.906861771869274
 50
129.3946796277348
 51
138.24939745319449
  0
LINE
  5
722
  8
0
 10
192.93492698686299
 20
-38.03864478568525
 30
0.0
 11
192.93492698686299
 21
-28.74037632078381
 31
0.0
  0
ARC
  5
723
  8
0
 10
213.0834849167957
 20
-64.615406173068081
 30
0.0
 40
41.145864355462777
 50
119.3199520602614
 51
127.0158458383211
  0
LINE
  5
724
  8
0
 10
194.9349269868631
 20
-33.038644785685278
 30
0.0
 11
194.9349269868631
 21
-27.688288784595699
 31
0.0
  0
LINE
  5
725
  8
0
 10
192.93492698686299
 20
-38.03864478568525
 30
0.0
 11
188.3121985735379
 21
-38.317982359329193
 31
0.0
  0
LINE
  5
726
  8
0
 10
188.31219857353801
 20
-38.317982359329172
 30
0.0
 11
188.31219857353801
 21
-31.76170734845363
 31
0.0
  0
ARC
  5
727
  8
0
 10
213.0834849167957
 20
-64.615406173068081
 30
0.0
 40
43.906861771869274
 50
111.2927437202022
 51
125.9203435453708
  0
ARC
  5
728
  8
0
 10
213.0834849167957
 20
17.203908867515619
 30
0.0
 40
43.906861771869274
 50
234.0796564546292
 51
248.7072562797978
  0
ARC
  5
729
  8
0
 10
206.18038381351329
 20
-23.705748652776212
 30
0.0
 40
19.600268219504841
 50
164.15245314257501
 51
195.8475468574249
  0
LINE
  5
72A
  8
0
 10
186.31219857353801
 20
-4.09351494622328
 30
0.0
 11
181.68947016021289
 21
-3.8141773725793371
 31
0.0
  0
ARC
  5
72B
  8
0
 10
213.08348491679561
 20
17.203908867515729
 30
0.0
 40
41.145864355462777
 50
220.27121278479089
 51
229.4098686270064
  0
ARC
  5
72C
  8
0
 10
213.0834849167957
 20
17.203908867515619
 30
0.0
 40
43.906861771869274
 50
221.75060254680551
 51
230.6053203722652
  0
LINE
  5
72D
  8
0
 10
183.62574476035721
 20
4.8803670438538234
 30
0.0
 11
181.68947016021281
 21
2.94409244370945
 31
0.0
  0
LINE
  5
72E
  8
0
 10
186.11250635000081
 20
1.112010867032097
 30
0.0
 11
181.68947016021269
 21
0.2057866437065172
 31
0.0
  0
LINE
  5
72F
  8
0
 10
179.68947016021289
 20
-6.834018081272375
 30
0.0
 11
179.68947016021289
 21
1.1858226274207191
 31
0.0
  0
LINE
  5
730
  8
0
 10
181.68947016021289
 20
-9.3930456765970973
 30
0.0
 11
181.68947016021289
 21
-3.8141773725793371
 31
0.0
  0
ARC
  5
731
  8
0
 10
213.08348491679561
 20
17.203908867515729
 30
0.0
 40
41.145864355462777
 50
202.48936782855961
 51
215.74737392715031
  0
ARC
  5
732
  8
0
 10
213.0834849167957
 20
17.203908867515619
 30
0.0
 40
43.906861771869274
 50
204.61535084576241
 51
217.37978818276181
  0
LINE
  5
733
  8
0
 10
179.68947016021289
 20
1.185822627420662
 30
0.0
 11
175.0667417468878
 21
1.4651602010646341
 31
0.0
  0
LINE
  5
734
  8
0
 10
181.68947016021281
 20
0.2057866437065172
 30
0.0
 11
181.68947016021281
 21
2.94409244370945
 31
0.0
  0
LINE
  5
735
  8
0
 10
186.3121985735379
 20
-14.041576903799211
 30
0.0
 11
186.3121985735379
 21
-4.0935149462232507
 31
0.0
  0
LINE
  5
736
  8
0
 10
192.93492698686299
 20
-9.372852519867223
 30
0.0
 11
188.31219857353801
 21
-9.09351494622328
 31
0.0
  0
LINE
  5
737
  8
0
 10
188.31219857353801
 20
-15.64978995709879
 30
0.0
 11
188.3121985735379
 21
-9.09351494622328
 31
0.0
  0
LINE
  5
738
  8
0
 10
190.2484731736823
 20
2.1371431151409861
 30
0.0
 11
192.73523476332591
 21
-1.631213061680739
 31
0.0
  0
LINE
  5
739
  8
0
 10
192.73523476332591
 20
-1.631213061680739
 30
0.0
 11
188.3121985735379
 21
-2.537437285006376
 31
0.0
  0
LINE
  5
73A
  8
0
 10
188.3121985735379
 20
-2.5374372850063192
 30
0.0
 11
188.31219857353801
 21
0.2008685149965572
 31
0.0
  0
LINE
  5
73B
  8
0
 10
183.62574476035721
 20
4.8803670438538234
 30
0.0
 11
186.11250635000081
 21
1.112010867032097
 31
0.0
  0
LINE
  5
73C
  8
0
 10
190.24847317368241
 20
2.1371431151409861
 30
0.0
 11
188.31219857353801
 21
0.2008685149965572
 31
0.0
  0
LINE
  5
73D
  8
0
 10
196.87120158700739
 20
-0.606080813571964
 30
0.0
 11
194.93492698686299
 21
-2.542355413716336
 31
0.0
  0
LINE
  5
73E
  8
0
 10
194.93492698686299
 20
-5.2806612137192701
 30
0.0
 11
194.93492698686299
 21
-2.542355413716336
 31
0.0
  0
LINE
  5
73F
  8
0
 10
199.55765540018811
 20
-21.655248218630788
 30
0.0
 11
199.557655400188
 21
-14.652190093511139
 31
0.0
  0
LINE
  5
740
  8
0
 10
227.92844403404311
 20
-19.053563347222219
 30
0.0
 11
227.92844403404311
 21
-16.208717645046189
 31
0.0
  0
LINE
  5
741
  8
0
 10
219.35197606878671
 20
-22.70574865277624
 30
0.0
 11
214.75685177876969
 21
-22.70574865277624
 31
0.0
  0
LINE
  5
742
  8
0
 10
219.35197606878671
 20
-24.705748652776212
 30
0.0
 11
214.75685177876969
 21
-24.70574865277624
 31
0.0
  0
LINE
  5
743
  8
0
 10
214.75685177876969
 20
-33.813786108513
 30
0.0
 11
219.3519760687868
 21
-34.755269008973983
 31
0.0
  0
LINE
  5
744
  8
0
 10
216.76846146620781
 20
-38.670241498126977
 30
0.0
 11
214.75685177876969
 21
-36.65863181068903
 31
0.0
  0
LINE
  5
745
  8
0
 10
199.5576554001882
 20
-32.759307212041278
 30
0.0
 11
199.5576554001882
 21
-25.756249086921599
 31
0.0
  0
LINE
  5
746
  8
0
 10
201.5576554001882
 20
-39.387612163120622
 30
0.0
 11
205.9806915899762
 21
-40.293836386446259
 31
0.0
  0
LINE
  5
747
  8
0
 10
214.75685177876969
 20
-33.813786108513
 30
0.0
 11
214.75685177876969
 21
-36.658631810688973
 31
0.0
  0
LINE
  5
748
  8
0
 10
208.171055651133
 20
-36.511980301193319
 30
0.0
 11
212.7661799411502
 21
-37.45346320165433
 31
0.0
  0
LINE
  5
749
  8
0
 10
208.171055651133
 20
-36.511980301193319
 30
0.0
 11
208.171055651133
 21
-39.356826003369378
 31
0.0
  0
LINE
  5
74A
  8
0
 10
206.18038381351329
 20
-27.479969638397371
 30
0.0
 11
206.18038381351329
 21
-19.931527667155081
 31
0.0
  0
LINE
  5
74B
  8
0
 10
201.55765540018811
 20
-27.75930721204131
 30
0.0
 11
201.55765540018811
 21
-19.652190093511081
 31
0.0
  0
LINE
  5
74C
  8
0
 10
206.18038381351329
 20
-27.479969638397371
 30
0.0
 11
201.55765540018811
 21
-27.75930721204131
 31
0.0
  0
LINE
  5
74D
  8
0
 10
206.18038381351329
 20
-19.931527667155109
 30
0.0
 11
201.55765540018811
 21
-19.652190093511141
 31
0.0
  0
ARC
  5
74E
  8
0
 10
232.85628571516341
 20
-23.705748652776212
 30
0.0
 40
18.12703805970186
 50
176.8376035470699
 51
183.1623964529301
  0
ARC
  5
74F
  8
0
 10
226.2704895875267
 20
-23.705748652776212
 30
0.0
 40
13.54128424578793
 50
175.764952246928
 51
184.2350477530718
  0
ARC
  5
750
  8
0
 10
226.2704895875267
 20
-23.705748652776212
 30
0.0
 40
18.12703805970186
 50
176.8376035470699
 51
183.1623964529301
  0
LINE
  5
751
  8
0
 10
212.76617994115
 20
-24.705748652776212
 30
0.0
 11
208.171055651133
 21
-24.70574865277624
 31
0.0
  0
LINE
  5
752
  8
0
 10
212.76617994115
 20
-22.70574865277624
 30
0.0
 11
208.171055651133
 21
-22.70574865277624
 31
0.0
  0
LINE
  5
753
  8
0
 10
227.92844403404311
 20
-28.35793395833036
 30
0.0
 11
227.92844403404311
 21
-31.202779660506369
 31
0.0
  0
LINE
  5
754
  8
0
 10
221.3426479064064
 20
-31.085860033421799
 30
0.0
 11
225.93777219642331
 21
-32.02734293388275
 31
0.0
  0
LINE
  5
755
  8
0
 10
223.35425759384441
 20
-35.942315423035701
 30
0.0
 11
221.3426479064064
 21
-33.930705735597677
 31
0.0
  0
LINE
  5
756
  8
0
 10
216.76846146620781
 20
-38.670241498126977
 30
0.0
 11
219.3519760687868
 21
-34.755269008973762
 31
0.0
  0
LINE
  5
757
  8
0
 10
221.3426479064064
 20
-31.085860033421799
 30
0.0
 11
221.3426479064064
 21
-33.930705735597741
 31
0.0
  0
LINE
  5
758
  8
0
 10
223.35425759384441
 20
-35.942315423035701
 30
0.0
 11
225.9377721964232
 21
-32.027342933882643
 31
0.0
  0
LINE
  5
759
  8
0
 10
231.11492116169029
 20
-37.204491899149623
 30
0.0
 11
227.86567761582421
 21
-40.453735445015582
 31
0.0
  0
LINE
  5
75A
  8
0
 10
229.94005372148121
 20
-33.214389347944433
 30
0.0
 11
227.92844403404311
 21
-31.202779660506369
 31
0.0
  0
LINE
  5
75B
  8
0
 10
225.93777219642331
 20
-22.70574865277624
 30
0.0
 11
221.3426479064064
 21
-22.70574865277624
 31
0.0
  0
LINE
  5
75C
  8
0
 10
225.93777219642331
 20
-24.705748652776212
 30
0.0
 11
221.3426479064064
 21
-24.70574865277624
 31
0.0
  0
ARC
  5
75D
  8
0
 10
239.44208184280009
 20
-23.705748652776212
 30
0.0
 40
18.12703805970186
 50
176.8376035470699
 51
183.1623964529301
  0
ARC
  5
75E
  8
0
 10
232.85628571516341
 20
-23.705748652776212
 30
0.0
 40
13.54128424578793
 50
175.764952246928
 51
184.2350477530718
  0
ARC
  5
75F
  8
0
 10
246.0278779704368
 20
-23.705748652776212
 30
0.0
 40
18.12703805970186
 50
176.8376035470699
 51
183.1623964529301
  0
ARC
  5
760
  8
0
 10
239.44208184280009
 20
-23.705748652776212
 30
0.0
 40
13.54128424578793
 50
175.764952246928
 51
184.2350477530718
  0
LINE
  5
761
  8
0
 10
216.76846146620781
 20
-8.7412558074254871
 30
0.0
 11
214.75685177876969
 21
-10.752865494863499
 31
0.0
  0
LINE
  5
762
  8
0
 10
214.7568517787698
 20
-13.59771119703947
 30
0.0
 11
219.35197606878691
 21
-12.65622829657849
 31
0.0
  0
LINE
  5
763
  8
0
 10
215.1826673861556
 20
1.801907426246373
 30
0.0
 11
211.71638328494581
 21
4.8731485423284653
 31
0.0
  0
LINE
  5
764
  8
0
 10
201.55765540018811
 20
-8.0238851424321052
 30
0.0
 11
201.55765540018811
 21
-5.2855793424292301
 31
0.0
  0
LINE
  5
765
  8
0
 10
203.4939300003326
 20
-3.3493047422848572
 30
0.0
 11
205.98069158997609
 21
-7.1176609191065259
 31
0.0
  0
LINE
  5
766
  8
0
 10
205.98069158997609
 20
-7.1176609191065259
 30
0.0
 11
201.55765540018811
 21
-8.0238851424322206
 31
0.0
  0
LINE
  5
767
  8
0
 10
214.7568517787698
 20
-13.59771119703947
 30
0.0
 11
214.75685177876969
 21
-10.752865494863549
 31
0.0
  0
LINE
  5
768
  8
0
 10
210.2036889542413
 20
-5.9923061166638831
 30
0.0
 11
212.78720355682029
 21
-9.9072786058171687
 31
0.0
  0
LINE
  5
769
  8
0
 10
208.19207926680329
 20
-10.848761506277979
 30
0.0
 11
212.78720355682049
 21
-9.9072786058169413
 31
0.0
  0
LINE
  5
76A
  8
0
 10
208.19207926680329
 20
-10.848761506277979
 30
0.0
 11
208.19207926680329
 21
-8.0039158041019505
 31
0.0
  0
LINE
  5
76B
  8
0
 10
210.2036889542413
 20
-5.9923061166638831
 30
0.0
 11
208.19207926680329
 21
-8.0039158041019505
 31
0.0
  0
LINE
  5
76C
  8
0
 10
203.4939300003326
 20
-3.3493047422847999
 30
0.0
 11
201.55765540018811
 21
-5.2855793424292301
 31
0.0
  0
ARC
  5
76D
  8
0
 10
241.3710168690728
 20
-19.048887551412289
 30
0.0
 40
18.12703805970186
 50
131.8376035470699
 51
138.1623964529301
  0
LINE
  5
76E
  8
0
 10
223.35425759384441
 20
-11.469181882516921
 30
0.0
 11
221.3426479064064
 21
-13.480791569954871
 31
0.0
  0
LINE
  5
76F
  8
0
 10
221.3426479064064
 20
-16.325637272130791
 30
0.0
 11
225.93777219642331
 21
-15.38415437166981
 31
0.0
  0
LINE
  5
770
  8
0
 10
216.76846146620781
 20
-8.7412558074254871
 30
0.0
 11
219.3519760687868
 21
-12.656228296578711
 31
0.0
  0
LINE
  5
771
  8
0
 10
221.3426479064064
 20
-16.325637272130791
 30
0.0
 11
221.3426479064064
 21
-13.480791569954871
 31
0.0
  0
LINE
  5
772
  8
0
 10
223.35425759384441
 20
-11.469181882516921
 30
0.0
 11
225.9377721964232
 21
-15.38415437166992
 31
0.0
  0
LINE
  5
773
  8
0
 10
229.94005372148121
 20
-14.19710795760812
 30
0.0
 11
227.92844403404311
 21
-16.208717645046189
 31
0.0
  0
LINE
  5
774
  8
0
 10
231.11492116169029
 20
-10.20700540640291
 30
0.0
 11
227.8656776158243
 21
-6.9577618605368912
 31
0.0
  0
ARC
  5
775
  8
0
 10
232.0572946663448
 20
-9.7351653486842906
 30
0.0
 40
13.54128424578793
 50
130.764952246928
 51
139.2350477530718
  0
LINE
  5
776
  8
0
 10
223.2154125213354
 20
0.5209303586981946
 30
0.0
 11
219.9661689754694
 21
3.7701739045641598
 31
0.0
  0
LINE
  5
777
  8
0
 10
221.80119895896229
 20
-0.8932832036749118
 30
0.0
 11
218.55195541309629
 21
2.3559603421910529
 31
0.0
  0
ARC
  5
778
  8
0
 10
232.0572946663448
 20
-9.7351653486842906
 30
0.0
 40
18.12703805970186
 50
131.8376035470699
 51
138.1623964529301
  0
ARC
  5
779
  8
0
 10
236.7141557677088
 20
-14.39202645004829
 30
0.0
 40
13.54128424578793
 50
130.764952246928
 51
139.2350477530718
  0
LINE
  5
77A
  8
0
 10
227.8722736226994
 20
-4.1359307426658338
 30
0.0
 11
224.6230300768334
 21
-0.8866871967998122
 31
0.0
  0
ARC
  5
77B
  8
0
 10
236.7141557677088
 20
-14.39202645004829
 30
0.0
 40
18.12703805970186
 50
131.8376035470699
 51
138.1623964529301
  0
LINE
  5
77C
  8
0
 10
226.4580600603264
 20
-5.5501443050389412
 30
0.0
 11
223.2088165144603
 21
-2.3009007591729178
 31
0.0
  0
LINE
  5
77D
  8
0
 10
194.8843201459147
 20
6.7729900873733291
 30
0.0
 11
199.52030666542871
 21
11.408976606887281
 31
0.0
  0
ARC
  5
77E
  8
0
 10
217.8514446387849
 20
4.4706846788756129
 30
0.0
 40
22.093913196256072
 50
116.5867685101489
 51
153.41323148985111
  0
ARC
  5
77F
  8
0
 10
217.8514446387849
 20
4.4706846788756129
 30
0.0
 40
28.366499926105561
 50
110.70151420817859
 51
159.29848579182141
  0
ARC
  5
780
  8
0
 10
217.8514446387849
 20
4.4706846788756129
 30
0.0
 40
31.407384460728942
 50
108.00953566755879
 51
161.99046433244121
  0
ARC
  5
781
  8
0
 10
217.8514446387849
 20
4.4706846788756129
 30
0.0
 40
40.020388349619061
 50
100.580598922373
 51
169.41940107762699
  0
ARC
  5
782
  8
0
 10
193.8051779915146
 20
-29.338041171089369
 30
0.0
 40
41.145864355462777
 50
99.252626072849878
 51
112.51063217144051
  0
ARC
  5
783
  8
0
 10
193.8051779915146
 20
-29.338041171089369
 30
0.0
 40
43.906861771869274
 50
97.620211817238172
 51
110.38464915423749
  0
ARC
  5
784
  8
0
 10
193.8051779915146
 20
-29.338041171089369
 30
0.0
 40
43.906861771869274
 50
115.00001961756161
 51
122.4930213303075
  0
LINE
  5
785
  8
0
 10
186.46828857639909
 20
7.7229108598957623
 30
0.0
 11
190.41314418551681
 21
11.667766469013429
 31
0.0
  0
ARC
  5
786
  8
0
 10
193.8051779915146
 20
-29.338041171089369
 30
0.0
 40
41.145864355462777
 50
85.590131372993568
 51
94.728787215209422
  0
ARC
  5
787
  8
0
 10
193.8051779915146
 20
-29.338041171089369
 30
0.0
 40
43.906861771869274
 50
84.394679627734803
 51
93.24939745319449
  0
ARC
  5
788
  8
0
 10
251.66017048874991
 20
28.516951326145971
 30
0.0
 40
41.145864355462777
 50
175.27121278479081
 51
184.40986862700649
  0
ARC
  5
789
  8
0
 10
251.66017048874991
 20
28.516951326145829
 30
0.0
 40
43.906861771869274
 50
176.75060254680551
 51
185.6053203722652
  0
LINE
  5
78A
  8
0
 10
210.6361175039809
 20
25.353214570185798
 30
0.0
 11
217.67045957384681
 21
32.387556640051628
 31
0.0
  0
LINE
  5
78B
  8
0
 10
210.9131527107732
 20
22.801822652231809
 30
0.0
 11
215.54913923028721
 21
27.437809171745869
 31
0.0
  0
LINE
  5
78C
  8
0
 10
212.0455116615444
 20
17.39665638571131
 30
0.0
 11
218.62038034636919
 21
23.971525070536082
 31
0.0
  0
LINE
  5
78D
  8
0
 10
212.7157869926771
 20
15.23850459209774
 30
0.0
 11
216.49906000280961
 21
19.021777602230198
 31
0.0
  0
LINE
  5
78E
  8
0
 10
214.61839122957599
 20
10.60358361170489
 30
0.0
 11
219.57030111889159
 21
15.55549350102058
 31
0.0
  0
ARC
  5
78F
  8
0
 10
217.8514446387849
 20
4.4706846788756129
 30
0.0
 40
19.600268219504841
 50
119.152453142575
 51
150.84754685742499
  0
ARC
  5
790
  8
0
 10
251.66017048874991
 20
28.516951326145829
 30
0.0
 40
43.906861771869274
 50
189.0796564546292
 51
203.7072562797978
  0
LINE
  5
791
  8
0
 10
203.3003517154302
 20
5.8230693148508967
 30
0.0
 11
207.08362472556291
 21
9.6063423249834727
 31
0.0
  0
ARC
  5
792
  8
0
 10
193.8051779915146
 20
-29.338041171089369
 30
0.0
 40
43.906861771869274
 50
66.292743720202211
 51
80.920343545370756
  0
ARC
  5
793
  8
0
 10
193.8051779915146
 20
-29.338041171089369
 30
0.0
 40
41.145864355462777
 50
74.319952060261386
 51
82.015845838321155
  0
ARC
  5
794
  8
0
 10
251.66017048874991
 20
28.516951326145971
 30
0.0
 40
41.145864355462777
 50
198.82728326670829
 51
205.8083646358439
  0
ARC
  5
795
  8
0
 10
193.8051779915146
 20
-29.338041171089369
 30
0.0
 40
41.145864355462777
 50
64.191635364156156
 51
71.172716733291821
  0
ARC
  5
796
  8
0
 10
251.66017048874991
 20
28.516951326145971
 30
0.0
 40
41.145864355462777
 50
187.98415416167899
 51
195.68004793973861
  0
LINE
  5
797
  8
0
 10
219.57030111889171
 20
15.55549350102052
 30
0.0
 11
216.49906000280961
 21
19.021777602230198
 31
0.0
  0
LINE
  5
798
  8
0
 10
229.43979023676681
 20
16.34143772768422
 30
0.0
 11
225.67143405994511
 21
18.828199317327769
 31
0.0
  0
LINE
  5
799
  8
0
 10
230.34601446009239
 20
20.764473917472259
 30
0.0
 11
229.43979023676681
 21
16.34143772768422
 31
0.0
  0
LINE
  5
79A
  8
0
 10
220.52022189141411
 20
7.1394619315049113
 30
0.0
 11
217.4489807753321
 21
10.6057460327147
 31
0.0
  0
LINE
  5
79B
  8
0
 10
228.3651909324056
 20
12.139463979089349
 30
0.0
 11
230.37680061984369
 21
14.15107366652745
 31
0.0
  0
LINE
  5
79C
  8
0
 10
222.92821013123219
 20
25.450927730652921
 30
0.0
 11
224.86448473137671
 21
27.387202330797411
 31
0.0
  0
LINE
  5
79D
  8
0
 10
226.6965663080538
 20
22.96416614100934
 30
0.0
 11
222.92821013123211
 21
25.450927730652889
 31
0.0
  0
LINE
  5
79E
  8
0
 10
218.62038034636919
 20
23.971525070536082
 30
0.0
 11
215.54913923028721
 21
27.437809171745808
 31
0.0
  0
LINE
  5
79F
  8
0
 10
227.6027905313795
 20
27.387202330797379
 30
0.0
 11
226.6965663080538
 21
22.96416614100934
 31
0.0
  0
LINE
  5
7A0
  8
0
 10
225.67143405994511
 20
18.828199317327801
 30
0.0
 11
227.60770866008971
 21
20.764473917472291
 31
0.0
  0
LINE
  5
7A1
  8
0
 10
230.34601446009239
 20
20.764473917472291
 30
0.0
 11
227.60770866008971
 21
20.764473917472291
 31
0.0
  0
LINE
  5
7A2
  8
0
 10
227.6027905313795
 20
27.387202330797411
 30
0.0
 11
224.86448473137671
 21
27.387202330797411
 31
0.0
  0
LINE
  5
7A3
  8
0
 10
216.72053880132441
 20
40.803588209567181
 30
0.0
 11
213.64929768524229
 21
44.269872310776911
 31
0.0
  0
LINE
  5
7A4
  8
0
 10
217.67045957384681
 20
32.387556640051628
 30
0.0
 11
214.59921845776469
 21
35.853840741261372
 31
0.0
  0
LINE
  5
7A5
  8
0
 10
211.0496550521716
 20
35.132704460414459
 30
0.0
 11
216.72053880132441
 21
40.803588209567238
 31
0.0
  0
ARC
  5
7A6
  8
0
 10
251.66017048874991
 20
28.516951326145829
 30
0.0
 40
43.906861771869274
 50
159.61535084576241
 51
172.37978818276181
  0
ARC
  5
7A7
  8
0
 10
251.66017048874991
 20
28.516951326145971
 30
0.0
 40
41.145864355462777
 50
157.48936782855961
 51
170.74737392715031
  0
LINE
  5
7A8
  8
0
 10
210.65436284864711
 20
31.908985132143702
 30
0.0
 11
214.59921845776469
 21
35.853840741261372
 31
0.0
  0
LINE
  5
7A9
  8
0
 10
226.41564426388379
 20
36.009930744122499
 30
0.0
 11
226.13630669023991
 21
40.632659157447591
 31
0.0
  0
LINE
  5
7AA
  8
0
 10
222.1163426739536
 20
40.632659157447563
 30
0.0
 11
221.21011845062799
 21
36.209622967659527
 31
0.0
  0
LINE
  5
7AB
  8
0
 10
217.4417622738064
 20
38.696384557303098
 30
0.0
 11
219.37803687395089
 21
40.632659157447591
 31
0.0
  0
LINE
  5
7AC
  8
0
 10
224.8595666026666
 20
34.009930744122471
 30
0.0
 11
222.12126080266381
 21
34.009930744122471
 31
0.0
  0
LINE
  5
7AD
  8
0
 10
223.95334237934091
 20
29.58689455433441
 30
0.0
 11
220.1849862025193
 21
32.073656143977963
 31
0.0
  0
LINE
  5
7AE
  8
0
 10
220.1849862025193
 20
32.073656143977992
 30
0.0
 11
222.12126080266381
 21
34.009930744122471
 31
0.0
  0
LINE
  5
7AF
  8
0
 10
221.21011845062799
 20
36.209622967659527
 30
0.0
 11
217.44176227380629
 21
38.696384557303077
 31
0.0
  0
LINE
  5
7B0
  8
0
 10
224.8595666026666
 20
34.009930744122443
 30
0.0
 11
223.95334237934091
 21
29.58689455433441
 31
0.0
  0
ARC
  5
7B1
  8
0
 10
205.11822045014489
 20
9.2386444008647004
 30
0.0
 40
41.145864355462777
 50
54.252626072849871
 51
67.510632171440463
  0
LINE
  5
7B2
  8
0
 10
221.13634426388381
 20
42.63265915744762
 30
0.0
 11
229.15614739893289
 21
42.632659157447591
 31
0.0
  0
LINE
  5
7B3
  8
0
 10
221.13634426388381
 20
42.632659157447591
 30
0.0
 11
220.8570066902399
 21
47.255387570772683
 31
0.0
  0
LINE
  5
7B4
  8
0
 10
222.1163426739536
 20
40.632659157447591
 30
0.0
 11
219.37803687395089
 21
40.632659157447591
 31
0.0
  0
ARC
  5
7B5
  8
0
 10
285.87537212736032
 20
-23.705748652776379
 30
0.0
 40
43.020388349619061
 50
322.99612352842189
 51
37.003876471578018
  0
LINE
  5
7B6
  8
0
 10
312.36628578066052
 20
-40.577479224280147
 30
0.0
 11
312.36628578066052
 21
-48.597319932973249
 31
0.0
  0
LINE
  5
7B7
  8
0
 10
310.36628578066052
 20
-38.018451628955432
 30
0.0
 11
310.36628578066052
 21
-43.597319932973193
 31
0.0
  0
LINE
  5
7B8
  8
0
 10
305.74355736733548
 20
-33.369920401753319
 30
0.0
 11
305.74355736733548
 21
-43.317982359329278
 31
0.0
  0
ARC
  5
7B9
  8
0
 10
278.97227102407771
 20
-64.615406173068251
 30
0.0
 40
41.145864355462777
 50
22.489367828559612
 51
35.747373927150313
  0
ARC
  5
7BA
  8
0
 10
278.97227102407771
 20
-64.615406173068124
 30
0.0
 40
43.906861771869274
 50
24.615350845762439
 51
37.379788182761779
  0
ARC
  5
7BB
  8
0
 10
285.87537212736009
 20
-23.705748652776322
 30
0.0
 40
40.020388349619061
 50
325.58059892237299
 51
34.419401077626972
  0
LINE
  5
7BC
  8
0
 10
281.852066986632
 20
-41.419191188888703
 30
0.0
 11
279.26855238405312
 21
-37.504218699735361
 31
0.0
  0
ARC
  5
7BD
  8
0
 10
250.68473907180069
 20
-28.362609754140241
 30
0.0
 40
18.12703805970186
 50
311.83760354706988
 51
318.16239645293012
  0
LINE
  5
7BE
  8
0
 10
259.5266212168101
 20
-38.618705461522723
 30
0.0
 11
262.77586476267612
 21
-41.867949007388738
 31
0.0
  0
LINE
  5
7BF
  8
0
 10
290.4981005406853
 20
-39.387612163120423
 30
0.0
 11
290.4981005406853
 21
-42.1259179631233
 31
0.0
  0
LINE
  5
7C0
  8
0
 10
288.56182594054093
 20
-44.062192563267729
 30
0.0
 11
286.07506435089738
 21
-40.293836386446003
 31
0.0
  0
LINE
  5
7C1
  8
0
 10
281.852066986632
 20
-41.419191188888703
 30
0.0
 11
283.86367667407018
 21
-39.407581501450579
 31
0.0
  0
LINE
  5
7C2
  8
0
 10
247.02787797043669
 20
-37.210058299152941
 30
0.0
 11
247.0278779704368
 21
-41.805182589169867
 31
0.0
  0
LINE
  5
7C3
  8
0
 10
245.0278779704368
 20
-37.210058299152941
 30
0.0
 11
245.0278779704368
 21
-41.805182589169867
 31
0.0
  0
LINE
  5
7C4
  8
0
 10
250.6800632759909
 20
-41.805182589169867
 30
0.0
 11
251.6215461764518
 21
-37.210058299152848
 31
0.0
  0
LINE
  5
7C5
  8
0
 10
255.53651866560489
 20
-39.793572901731807
 30
0.0
 11
253.52490897816691
 21
-41.805182589169867
 31
0.0
  0
LINE
  5
7C6
  8
0
 10
241.37569266488271
 20
-41.805182589169917
 30
0.0
 11
240.43420976442161
 21
-37.210058299152877
 31
0.0
  0
LINE
  5
7C7
  8
0
 10
236.51923727526861
 20
-39.793572901731871
 30
0.0
 11
238.53084696270659
 21
-41.805182589169917
 31
0.0
  0
ARC
  5
7C8
  8
0
 10
274.20431130208868
 20
-51.882181984428172
 30
0.0
 40
43.020388349619061
 50
277.99612352842189
 51
352.003876471578
  0
LINE
  5
7C9
  8
0
 10
293.70515169374897
 20
-51.113246276843768
 30
0.0
 11
297.17143579495871
 21
-54.184487392925853
 31
0.0
  0
LINE
  5
7CA
  8
0
 10
297.17143579495871
 20
-54.184487392925853
 30
0.0
 11
292.53544927544471
 21
-58.820473912439859
 31
0.0
  0
ARC
  5
7CB
  8
0
 10
298.2505779493589
 20
-18.073456134463129
 30
0.0
 40
41.145864355462777
 50
265.5901313729936
 51
274.72878721520942
  0
ARC
  5
7CC
  8
0
 10
298.2505779493589
 20
-18.073456134463129
 30
0.0
 40
43.906861771869274
 50
264.39467962773477
 51
273.2493974531946
  0
ARC
  5
7CD
  8
0
 10
274.20431130208863
 20
-51.882181984428151
 30
0.0
 40
28.366499926105561
 50
290.70151420817871
 51
339.29848579182141
  0
ARC
  5
7CE
  8
0
 10
274.20431130208863
 20
-51.882181984428151
 30
0.0
 40
31.407384460728942
 50
288.00953566755879
 51
341.99046433244121
  0
LINE
  5
7CF
  8
0
 10
295.18455435386602
 20
-46.805416491980623
 30
0.0
 11
297.12082895401039
 21
-44.869141891836243
 31
0.0
  0
LINE
  5
7D0
  8
0
 10
292.69779276422253
 20
-43.03706031515884
 30
0.0
 11
297.12082895401039
 21
-42.13083609183326
 31
0.0
  0
LINE
  5
7D1
  8
0
 10
302.12118326326458
 20
-52.0631670493662
 30
0.0
 11
295.08684119339881
 21
-59.097509119232143
 31
0.0
  0
ARC
  5
7D2
  8
0
 10
274.20431130208863
 20
-51.882181984428151
 30
0.0
 40
40.020388349619061
 50
280.58059892237299
 51
349.41940107762701
  0
LINE
  5
7D3
  8
0
 10
281.00610088870189
 20
-82.544201765966989
 30
0.0
 11
275.33521713954912
 21
-88.215085515119824
 31
0.0
  0
ARC
  5
7D4
  8
0
 10
240.3955854521237
 20
-75.928448631698501
 30
0.0
 40
41.145864355462777
 50
337.48936782855958
 51
350.74737392715031
  0
ARC
  5
7D5
  8
0
 10
240.3955854521237
 20
-75.928448631698359
 30
0.0
 40
43.906861771869274
 50
339.61535084576252
 51
352.37978818276179
  0
ARC
  5
7D6
  8
0
 10
205.1182204501448
 20
-56.650141706417287
 30
0.0
 40
41.145864355462777
 50
310.27121278479092
 51
319.4098686270064
  0
ARC
  5
7D7
  8
0
 10
205.11822045014489
 20
-56.650141706417202
 30
0.0
 40
43.906861771869274
 50
311.75060254680551
 51
320.60532037226523
  0
ARC
  5
7D8
  8
0
 10
286.93753549072858
 20
-56.650141706417202
 30
0.0
 40
41.145864355462777
 50
220.5901313729936
 51
229.72878721520939
  0
ARC
  5
7D9
  8
0
 10
286.93753549072858
 20
-56.650141706417202
 30
0.0
 40
43.906861771869274
 50
219.3946796277348
 51
228.24939745319449
  0
LINE
  5
7DA
  8
0
 10
274.61399366706712
 20
-86.107881862855606
 30
0.0
 11
272.67771906692258
 21
-88.044156463000093
 31
0.0
  0
LINE
  5
7DB
  8
0
 10
269.93941326691993
 20
-88.044156463000064
 30
0.0
 11
270.84563749024551
 21
-83.621120273212014
 31
0.0
  0
LINE
  5
7DC
  8
0
 10
265.6401116769897
 20
-83.421428049674986
 30
0.0
 11
265.91944925063359
 21
-88.044156463000093
 31
0.0
  0
LINE
  5
7DD
  8
0
 10
270.91941167698968
 20
-90.044156463000121
 30
0.0
 11
262.89960854194061
 21
-90.044156463000078
 31
0.0
  0
ARC
  5
7DE
  8
0
 10
286.93753549072858
 20
-56.650141706417202
 30
0.0
 40
41.145864355462777
 50
234.25262607284989
 51
247.51063217144051
  0
LINE
  5
7DF
  8
0
 10
265.91944925063359
 20
-88.044156463000093
 30
0.0
 11
260.34058094661589
 21
-88.044156463000093
 31
0.0
  0
ARC
  5
7E0
  8
0
 10
286.93753549072858
 20
-56.650141706417202
 30
0.0
 40
43.906861771869274
 50
232.6202118172381
 51
245.38464915423759
  0
ARC
  5
7E1
  8
0
 10
246.02787797043669
 20
-63.553242809699661
 30
0.0
 40
28.366499926105561
 50
245.70151420817871
 51
294.29848579182141
  0
ARC
  5
7E2
  8
0
 10
246.02787797043669
 20
-63.553242809699661
 30
0.0
 40
31.407384460728942
 50
243.00953566755891
 51
296.99046433244121
  0
ARC
  5
7E3
  8
0
 10
240.39558545212381
 20
-75.928448631698416
 30
0.0
 40
43.906861771869274
 50
327.50697866969261
 51
334.99998038243842
  0
ARC
  5
7E4
  8
0
 10
286.93753549072858
 20
-56.650141706417322
 30
0.0
 40
43.906861771869274
 50
250.00001961756169
 51
257.4930213303075
  0
LINE
  5
7E5
  8
0
 10
269.93941326691993
 20
-88.044156463000093
 30
0.0
 11
272.67771906692258
 21
-88.044156463000093
 31
0.0
  0
LINE
  5
7E6
  8
0
 10
270.91941167698968
 20
-90.044156463000078
 30
0.0
 11
271.19874925063368
 21
-94.666884876325184
 31
0.0
  0
LINE
  5
7E7
  8
0
 10
275.33521713954912
 20
-88.215085515119767
 30
0.0
 11
278.40645825563109
 21
-91.681369616329505
 31
0.0
  0
LINE
  5
7E8
  8
0
 10
261.70974148078108
 20
-68.175971223024789
 30
0.0
 11
264.44804728078378
 21
-68.175971223024789
 31
0.0
  0
LINE
  5
7E9
  8
0
 10
262.61596570410683
 20
-63.752935033236717
 30
0.0
 11
266.38432188092838
 21
-66.239696622880274
 31
0.0
  0
LINE
  5
7EA
  8
0
 10
265.6401116769897
 20
-83.421428049674972
 30
0.0
 11
255.6920497194138
 21
-83.421428049675029
 31
0.0
  0
LINE
  5
7EB
  8
0
 10
242.25365698481559
 20
-63.553242809699661
 30
0.0
 11
241.97431941117159
 21
-68.175971223024817
 31
0.0
  0
LINE
  5
7EC
  8
0
 10
249.8020989560579
 20
-63.553242809699697
 30
0.0
 11
250.08143652970179
 21
-68.175971223024789
 31
0.0
  0
LINE
  5
7ED
  8
0
 10
261.70974148078108
 20
-68.17597122302476
 30
0.0
 11
262.61596570410683
 21
-63.752935033236717
 31
0.0
  0
ARC
  5
7EE
  8
0
 10
246.02787797043669
 20
-63.553242809699661
 30
0.0
 40
19.600268219504841
 50
254.1524531425751
 51
285.84754685742502
  0
ARC
  5
7EF
  8
0
 10
246.02787797043669
 20
-63.553242809699661
 30
0.0
 40
22.093913196256072
 50
251.58676851014889
 51
288.41323148985111
  0
LINE
  5
7F0
  8
0
 10
250.08143652970179
 20
-68.175971223024817
 30
0.0
 11
241.97431941117159
 21
-68.175971223024789
 31
0.0
  0
ARC
  5
7F1
  8
0
 10
286.93753549072858
 20
-56.650141706417202
 30
0.0
 40
43.906861771869274
 50
201.2927437202022
 51
215.9203435453708
  0
ARC
  5
7F2
  8
0
 10
205.11822045014489
 20
-56.650141706417202
 30
0.0
 40
43.906861771869274
 50
324.07965645462917
 51
338.70725627979778
  0
ARC
  5
7F3
  8
0
 10
205.1182204501448
 20
-56.650141706417287
 30
0.0
 40
41.145864355462777
 50
322.98415416167899
 51
330.68004793973859
  0
LINE
  5
7F4
  8
0
 10
240.99325030242909
 20
-76.798699636349937
 30
0.0
 11
231.69498183752771
 21
-76.798699636349937
 31
0.0
  0
LINE
  5
7F5
  8
0
 10
231.69498183752771
 20
-76.798699636349909
 30
0.0
 11
231.41564426388379
 21
-81.421428049675001
 31
0.0
  0
LINE
  5
7F6
  8
0
 10
237.9719192747593
 20
-81.421428049675001
 30
0.0
 11
231.41564426388379
 21
-81.421428049675029
 31
0.0
  0
LINE
  5
7F7
  8
0
 10
242.0453378386172
 20
-74.798699636349909
 30
0.0
 11
236.69498183752771
 21
-74.798699636349909
 31
0.0
  0
LINE
  5
7F8
  8
0
 10
243.9773775362913
 20
-70.175971223024845
 30
0.0
 11
236.97431941117171
 21
-70.175971223024902
 31
0.0
  0
LINE
  5
7F9
  8
0
 10
236.97431941117171
 20
-70.175971223024817
 30
0.0
 11
236.69498183752771
 21
-74.798699636349909
 31
0.0
  0
ARC
  5
7FA
  8
0
 10
205.1182204501448
 20
-56.650141706417287
 30
0.0
 40
41.145864355462777
 50
333.82728326670832
 51
340.80836463584387
  0
LINE
  5
7FB
  8
0
 10
260.6401116769897
 20
-81.421428049674958
 30
0.0
 11
254.08383666611411
 21
-81.421428049674958
 31
0.0
  0
LINE
  5
7FC
  8
0
 10
260.3607741033457
 20
-76.79869963634988
 30
0.0
 11
251.06250563844429
 21
-76.79869963634988
 31
0.0
  0
ARC
  5
7FD
  8
0
 10
286.93753549072858
 20
-56.650141706417202
 30
0.0
 40
41.145864355462777
 50
209.31995206026139
 51
217.01584583832121
  0
LINE
  5
7FE
  8
0
 10
260.3607741033457
 20
-76.798699636349909
 30
0.0
 11
260.6401116769897
 21
-81.421428049675001
 31
0.0
  0
LINE
  5
7FF
  8
0
 10
255.36077410334579
 20
-74.79869963634988
 30
0.0
 11
250.01041810225621
 21
-74.79869963634988
 31
0.0
  0
LINE
  5
800
  8
0
 10
255.08143652970179
 20
-70.17597122302476
 30
0.0
 11
248.07837840458211
 21
-70.175971223024789
 31
0.0
  0
ARC
  5
801
  8
0
 10
286.93753549072858
 20
-56.650141706417202
 30
0.0
 40
41.145864355462777
 50
199.1916353641561
 51
206.17271673329179
  0
LINE
  5
802
  8
0
 10
255.08143652970179
 20
-70.175971223024817
 30
0.0
 11
255.36077410334579
 21
-74.798699636349909
 31
0.0
  0
LINE
  5
803
  8
0
 10
249.8020989560579
 20
-63.553242809699697
 30
0.0
 11
242.25365698481559
 21
-63.55324280969964
 31
0.0
  0
LINE
  5
804
  8
0
 10
245.0278779704368
 20
-50.381650554426301
 30
0.0
 11
245.0278779704368
 21
-54.976774844443241
 31
0.0
  0
LINE
  5
805
  8
0
 10
247.02787797043669
 20
-50.381650554426301
 30
0.0
 11
247.0278779704368
 21
-54.976774844443241
 31
0.0
  0
LINE
  5
806
  8
0
 10
235.9198405146999
 20
-54.976774844443241
 30
0.0
 11
234.97835761423889
 21
-50.38165055442613
 31
0.0
  0
LINE
  5
807
  8
0
 10
233.17089082393841
 20
-61.541547356409708
 30
0.0
 11
232.2294079234774
 21
-56.946423066392519
 31
0.0
  0
LINE
  5
808
  8
0
 10
235.9198405146999
 20
-54.976774844443241
 30
0.0
 11
233.07499481252401
 21
-54.976774844443298
 31
0.0
  0
LINE
  5
809
  8
0
 10
247.02787797043669
 20
-56.967446682062977
 30
0.0
 11
247.0278779704368
 21
-61.562570972079918
 31
0.0
  0
LINE
  5
80A
  8
0
 10
245.0278779704368
 20
-56.967446682062977
 30
0.0
 11
245.0278779704368
 21
-61.562570972079918
 31
0.0
  0
ARC
  5
80B
  8
0
 10
246.02787797043669
 20
-43.463137035686231
 30
0.0
 40
18.12703805970186
 50
266.83760354706988
 51
273.16239645293012
  0
ARC
  5
80C
  8
0
 10
246.02787797043669
 20
-36.877340908049547
 30
0.0
 40
18.12703805970186
 50
266.83760354706988
 51
273.16239645293012
  0
ARC
  5
80D
  8
0
 10
246.02787797043669
 20
-43.463137035686231
 30
0.0
 40
13.54128424578793
 50
265.76495224692798
 51
274.2350477530718
  0
LINE
  5
80E
  8
0
 10
241.37569266488271
 20
-41.805182589169917
 30
0.0
 11
238.53084696270659
 21
-41.805182589169917
 31
0.0
  0
LINE
  5
80F
  8
0
 10
233.7913112001774
 20
-46.379369029368597
 30
0.0
 11
235.8029208876153
 21
-48.390978716806607
 31
0.0
  0
LINE
  5
810
  8
0
 10
238.64776658979119
 20
-48.390978716806558
 30
0.0
 11
237.70628368933029
 21
-43.795854426789731
 31
0.0
  0
LINE
  5
811
  8
0
 10
238.64776658979119
 20
-48.390978716806558
 30
0.0
 11
235.8029208876153
 21
-48.390978716806607
 31
0.0
  0
LINE
  5
812
  8
0
 10
233.7913112001774
 20
-46.379369029368597
 30
0.0
 11
237.70628368933041
 21
-43.795854426789788
 31
0.0
  0
LINE
  5
813
  8
0
 10
245.0278779704368
 20
-43.79585442678961
 30
0.0
 11
245.0278779704368
 21
-48.390978716806558
 31
0.0
  0
LINE
  5
814
  8
0
 10
247.02787797043669
 20
-43.79585442678961
 30
0.0
 11
247.0278779704368
 21
-48.390978716806558
 31
0.0
  0
ARC
  5
815
  8
0
 10
246.02787797043669
 20
-30.29154478041287
 30
0.0
 40
18.12703805970186
 50
266.83760354706988
 51
273.16239645293012
  0
ARC
  5
816
  8
0
 10
246.02787797043669
 20
-36.877340908049547
 30
0.0
 40
13.54128424578793
 50
265.76495224692798
 51
274.2350477530718
  0
ARC
  5
817
  8
0
 10
246.02787797043669
 20
-23.70574865277618
 30
0.0
 40
18.12703805970186
 50
266.83760354706988
 51
273.16239645293012
  0
ARC
  5
818
  8
0
 10
246.02787797043669
 20
-30.29154478041287
 30
0.0
 40
13.54128424578793
 50
265.76495224692798
 51
274.2350477530718
  0
LINE
  5
819
  8
0
 10
256.13591542617348
 20
-54.976774844443241
 30
0.0
 11
257.07739832663452
 21
-50.381650554426102
 31
0.0
  0
LINE
  5
81A
  8
0
 10
260.99237081578752
 20
-52.965165157005202
 30
0.0
 11
257.07739832663418
 21
-50.38165055442618
 31
0.0
  0
LINE
  5
81B
  8
0
 10
258.83410961885392
 20
-61.562570972079918
 30
0.0
 11
259.7755925193149
 21
-56.967446682062779
 31
0.0
  0
LINE
  5
81C
  8
0
 10
263.6905650084679
 20
-59.550961284641858
 30
0.0
 11
259.77559251931461
 21
-56.967446682062842
 31
0.0
  0
LINE
  5
81D
  8
0
 10
258.83410961885392
 20
-61.562570972079918
 30
0.0
 11
261.67895532102989
 21
-61.562570972079918
 31
0.0
  0
LINE
  5
81E
  8
0
 10
263.6905650084679
 20
-59.550961284641858
 30
0.0
 11
261.67895532102989
 21
-61.562570972079953
 31
0.0
  0
LINE
  5
81F
  8
0
 10
260.99237081578752
 20
-52.965165157005202
 30
0.0
 11
258.98076112834951
 21
-54.976774844443241
 31
0.0
  0
LINE
  5
820
  8
0
 10
256.13591542617348
 20
-54.976774844443241
 30
0.0
 11
258.98076112834951
 21
-54.97677484444327
 31
0.0
  0
LINE
  5
821
  8
0
 10
253.40798935108231
 20
-48.390978716806529
 30
0.0
 11
256.2528350532582
 21
-48.390978716806529
 31
0.0
  0
LINE
  5
822
  8
0
 10
258.26444474069621
 20
-46.37936902936854
 30
0.0
 11
254.34947225154309
 21
-43.795854426789731
 31
0.0
  0
LINE
  5
823
  8
0
 10
253.40798935108231
 20
-48.390978716806529
 30
0.0
 11
254.34947225154329
 21
-43.795854426789667
 31
0.0
  0
LINE
  5
824
  8
0
 10
250.6800632759909
 20
-41.805182589169867
 30
0.0
 11
253.52490897816691
 21
-41.805182589169867
 31
0.0
  0
LINE
  5
825
  8
0
 10
258.26444474069621
 20
-46.37936902936854
 30
0.0
 11
256.2528350532582
 21
-48.390978716806558
 31
0.0
  0
ARC
  5
826
  8
0
 10
274.20431130208863
 20
-51.882181984428151
 30
0.0
 40
19.600268219504841
 50
299.1524531425751
 51
330.84754685742502
  0
ARC
  5
827
  8
0
 10
274.20431130208863
 20
-51.882181984428151
 30
0.0
 40
22.093913196256072
 50
296.58676851014889
 51
333.41323148985123
  0
LINE
  5
828
  8
0
 10
279.33996894819637
 20
-62.65000189765027
 30
0.0
 11
275.5566959380638
 21
-66.433274907782788
 31
0.0
  0
LINE
  5
829
  8
0
 10
272.48545482198182
 20
-62.966990806573051
 30
0.0
 11
275.5566959380638
 21
-66.433274907782788
 31
0.0
  0
ARC
  5
82A
  8
0
 10
240.3955854521237
 20
-75.928448631698359
 30
0.0
 40
43.906861771869274
 50
9.0796564546292302
 51
23.707256279797789
  0
ARC
  5
82B
  8
0
 10
240.3955854521237
 20
-75.928448631698501
 30
0.0
 40
41.145864355462777
 50
7.9841541616789931
 51
15.680047939738619
  0
LINE
  5
82C
  8
0
 10
281.14260323010018
 20
-70.213319957784392
 30
0.0
 11
276.50661671058629
 21
-74.849306477298384
 31
0.0
  0
LINE
  5
82D
  8
0
 10
281.40139309222639
 20
-79.320482437696285
 30
0.0
 11
277.45653748310872
 21
-83.265338046813937
 31
0.0
  0
LINE
  5
82E
  8
0
 10
281.41963843689263
 20
-72.764711875738314
 30
0.0
 11
274.38529636702663
 21
-79.799053945604214
 31
0.0
  0
LINE
  5
82F
  8
0
 10
270.84563749024551
 20
-83.621120273212014
 30
0.0
 11
274.61399366706718
 21
-86.107881862855578
 31
0.0
  0
LINE
  5
830
  8
0
 10
267.19618933820698
 20
-81.421428049674944
 30
0.0
 11
268.1024135615325
 21
-76.998391859886894
 31
0.0
  0
LINE
  5
831
  8
0
 10
271.87076973835423
 20
-79.485153449530486
 30
0.0
 11
269.93449513820968
 21
-81.421428049674958
 31
0.0
  0
LINE
  5
832
  8
0
 10
267.19618933820692
 20
-81.421428049674958
 30
0.0
 11
269.93449513820968
 21
-81.421428049674958
 31
0.0
  0
LINE
  5
833
  8
0
 10
268.1024135615325
 20
-76.998391859886894
 30
0.0
 11
271.87076973835428
 21
-79.485153449530458
 31
0.0
  0
LINE
  5
834
  8
0
 10
274.38529636702668
 20
-79.799053945604214
 30
0.0
 11
277.45653748310872
 21
-83.265338046813937
 31
0.0
  0
LINE
  5
835
  8
0
 10
265.35918963281972
 20
-70.375663446561845
 30
0.0
 11
269.12754580964139
 21
-72.862425036205394
 31
0.0
  0
LINE
  5
836
  8
0
 10
269.12754580964128
 20
-72.862425036205423
 30
0.0
 11
267.19127120949679
 21
-74.798699636349909
 31
0.0
  0
LINE
  5
837
  8
0
 10
264.45296540949403
 20
-74.798699636349909
 30
0.0
 11
267.19127120949679
 21
-74.798699636349909
 31
0.0
  0
LINE
  5
838
  8
0
 10
264.45296540949408
 20
-74.79869963634988
 30
0.0
 11
265.35918963281972
 21
-70.375663446561845
 31
0.0
  0
LINE
  5
839
  8
0
 10
266.38432188092838
 20
-66.239696622880302
 30
0.0
 11
264.44804728078378
 21
-68.175971223024789
 31
0.0
  0
LINE
  5
83A
  8
0
 10
280.01024427932907
 20
-64.80815369126384
 30
0.0
 11
273.43537559450419
 21
-71.383022376088661
 31
0.0
  0
LINE
  5
83B
  8
0
 10
273.43537559450431
 20
-71.383022376088604
 30
0.0
 11
276.50661671058629
 21
-74.849306477298384
 31
0.0
  0
ARC
  5
83C
  8
0
 10
240.3955854521237
 20
-75.928448631698501
 30
0.0
 40
41.145864355462777
 50
355.27121278479092
 51
4.4098686270064507
  0
ARC
  5
83D
  8
0
 10
240.3955854521237
 20
-75.928448631698359
 30
0.0
 40
43.906861771869274
 50
356.75060254680551
 51
5.6053203722651981
  0
ARC
  5
83E
  8
0
 10
298.2505779493589
 20
-18.073456134463129
 30
0.0
 40
41.145864355462777
 50
244.1916353641561
 51
251.17271673329179
  0
LINE
  5
83F
  8
0
 10
285.28912012423342
 20
-50.163325504321328
 30
0.0
 11
280.33721023491768
 21
-55.115235393637072
 31
0.0
  0
ARC
  5
840
  8
0
 10
298.2505779493589
 20
-18.073456134463129
 30
0.0
 40
43.906861771869274
 50
246.2927437202022
 51
260.92034354537071
  0
LINE
  5
841
  8
0
 10
276.87308855471792
 20
-49.213404731798903
 30
0.0
 11
271.53553404945927
 21
-54.550959237057498
 31
0.0
  0
LINE
  5
842
  8
0
 10
280.3393726559276
 20
-52.284645847880988
 30
0.0
 11
274.60677516554131
 21
-58.017243338267292
 31
0.0
  0
LINE
  5
843
  8
0
 10
271.53553404945927
 20
-54.550959237057498
 30
0.0
 11
274.60677516554142
 21
-58.017243338267292
 31
0.0
  0
LINE
  5
844
  8
0
 10
277.43736471129739
 20
-58.015080917257421
 30
0.0
 11
272.48545482198188
 21
-62.966990806573158
 31
0.0
  0
ARC
  5
845
  8
0
 10
240.3955854521237
 20
-75.928448631698501
 30
0.0
 40
41.145864355462777
 50
18.827283266708282
 51
25.808364635843962
  0
LINE
  5
846
  8
0
 10
270.25455698191121
 20
-46.518214101877611
 30
0.0
 11
273.50380052777712
 21
-49.76745764774364
 31
0.0
  0
ARC
  5
847
  8
0
 10
259.99846127452872
 20
-37.676331956868239
 30
0.0
 40
18.12703805970186
 50
311.83760354706988
 51
318.16239645293012
  0
ARC
  5
848
  8
0
 10
259.99846127452872
 20
-37.676331956868239
 30
0.0
 40
13.54128424578793
 50
310.76495224692809
 51
319.23504775307191
  0
LINE
  5
849
  8
0
 10
268.8403434195381
 20
-47.932427664250717
 30
0.0
 11
272.08958696540412
 21
-51.181671210116747
 31
0.0
  0
ARC
  5
84A
  8
0
 10
255.34160017316469
 20
-33.01947085550421
 30
0.0
 40
18.12703805970186
 50
311.83760354706988
 51
318.16239645293012
  0
LINE
  5
84B
  8
0
 10
265.59769588054712
 20
-41.861353000513638
 30
0.0
 11
268.8469394264132
 21
-45.110596546379611
 31
0.0
  0
ARC
  5
84C
  8
0
 10
255.34160017316469
 20
-33.01947085550421
 30
0.0
 40
13.54128424578793
 50
310.76495224692809
 51
319.23504775307191
  0
LINE
  5
84D
  8
0
 10
264.18348231817407
 20
-43.275566562886702
 30
0.0
 11
267.43272586404009
 21
-46.524810108752717
 31
0.0
  0
LINE
  5
84E
  8
0
 10
276.87308855471792
 20
-49.213404731798903
 30
0.0
 11
280.3393726559276
 21
-52.284645847880988
 31
0.0
  0
LINE
  5
84F
  8
0
 10
293.70515169374897
 20
-51.113246276843768
 30
0.0
 11
287.1302830089241
 21
-57.688114961668653
 31
0.0
  0
LINE
  5
850
  8
0
 10
285.28912012423348
 20
-50.163325504321328
 30
0.0
 11
288.75540422544321
 21
-53.23456662040342
 31
0.0
  0
ARC
  5
851
  8
0
 10
298.2505779493589
 20
-18.073456134463129
 30
0.0
 40
41.145864355462777
 50
254.3199520602613
 51
262.01584583832118
  0
LINE
  5
852
  8
0
 10
288.75540422544321
 20
-53.23456662040342
 30
0.0
 11
284.97213121531058
 21
-57.017839630536002
 31
0.0
  0
LINE
  5
853
  8
0
 10
288.56182594054093
 20
-44.062192563267729
 30
0.0
 11
290.4981005406853
 21
-42.1259179631233
 31
0.0
  0
LINE
  5
854
  8
0
 10
295.18455435386602
 20
-46.805416491980559
 30
0.0
 11
292.69779276422253
 21
-43.03706031515884
 31
0.0
  0
LINE
  5
855
  8
0
 10
312.36628578066052
 20
-48.597319932973193
 30
0.0
 11
316.98901419398572
 21
-48.876657506617157
 31
0.0
  0
LINE
  5
856
  8
0
 10
310.5371882642018
 20
-53.01311439046713
 30
0.0
 11
314.00347236541143
 21
-56.084355506549173
 31
0.0
  0
ARC
  5
857
  8
0
 10
298.2505779493589
 20
-18.073456134463129
 30
0.0
 40
41.145864355462777
 50
279.25262607284992
 51
292.51063217144048
  0
ARC
  5
858
  8
0
 10
298.2505779493589
 20
-18.073456134463129
 30
0.0
 40
43.906861771869274
 50
277.62021181723821
 51
290.38464915423748
  0
LINE
  5
859
  8
0
 10
302.12118326326458
 20
-52.06316704936625
 30
0.0
 11
305.58746736447438
 21
-55.134408165448292
 31
0.0
  0
LINE
  5
85A
  8
0
 10
310.5371882642018
 20
-53.013114390467081
 30
0.0
 11
304.86633108362741
 21
-58.683971571041468
 31
0.0
  0
LINE
  5
85B
  8
0
 10
305.58746736447438
 20
-55.134408165448292
 30
0.0
 11
301.64261175535671
 21
-59.079263774565959
 31
0.0
  0
LINE
  5
85C
  8
0
 10
301.80728276719111
 20
-49.548640420693523
 30
0.0
 11
299.3205211775475
 21
-45.78028424387179
 31
0.0
  0
LINE
  5
85D
  8
0
 10
303.74355736733548
 20
-44.87406002054621
 30
0.0
 11
303.74355736733548
 21
-47.61236582054908
 31
0.0
  0
LINE
  5
85E
  8
0
 10
301.80728276719111
 20
-49.548640420693523
 30
0.0
 11
303.74355736733548
 21
-47.61236582054908
 31
0.0
  0
LINE
  5
85F
  8
0
 10
299.3205211775475
 20
-45.78028424387179
 30
0.0
 11
303.74355736733548
 21
-44.87406002054621
 31
0.0
  0
LINE
  5
860
  8
0
 10
297.12082895401039
 20
-42.130836091833309
 30
0.0
 11
297.12082895401039
 21
-44.869141891836243
 31
0.0
  0
LINE
  5
861
  8
0
 10
308.4300111805162
 20
-52.29186434940641
 30
0.0
 11
310.36628578066069
 21
-50.35558974926203
 31
0.0
  0
LINE
  5
862
  8
0
 10
305.94324959087271
 20
-48.523508172584677
 30
0.0
 11
310.36628578066069
 21
-47.617283949259047
 31
0.0
  0
LINE
  5
863
  8
0
 10
308.4300111805162
 20
-52.291864349406353
 30
0.0
 11
305.94324959087271
 21
-48.523508172584677
 31
0.0
  0
LINE
  5
864
  8
0
 10
310.36628578066069
 20
-47.617283949259097
 30
0.0
 11
310.36628578066069
 21
-50.35558974926203
 31
0.0
  0
LINE
  5
865
  8
0
 10
305.74355736733548
 20
-43.317982359329243
 30
0.0
 11
310.36628578066052
 21
-43.597319932973193
 31
0.0
  0
ARC
  5
866
  8
0
 10
278.97227102407771
 20
-64.615406173068195
 30
0.0
 40
43.906861771869274
 50
12.50697866969251
 51
19.999980382438348
  0
ARC
  5
867
  8
0
 10
298.25057794935901
 20
-18.073456134463211
 30
0.0
 40
43.906861771869274
 50
295.00001961756158
 51
302.4930213303075
  0
ARC
  5
868
  8
0
 10
240.39558545212381
 20
28.516951326145861
 30
0.0
 40
43.906861771869274
 50
25.00001961756162
 51
32.493021330307457
  0
ARC
  5
869
  8
0
 10
274.20431130208868
 20
4.4706846788755854
 30
0.0
 40
43.020388349619061
 50
7.9961235284219327
 51
82.003876471578025
  0
ARC
  5
86A
  8
0
 10
286.93753549072858
 20
9.2386444008647004
 30
0.0
 40
43.906861771869274
 50
102.5069786696925
 51
109.9999803824383
  0
LINE
  5
86B
  8
0
 10
293.70515169374909
 20
3.701748971291237
 30
0.0
 11
297.17143579495882
 21
6.7729900873733007
 31
0.0
  0
LINE
  5
86C
  8
0
 10
292.53544927544488
 20
11.408976606887281
 30
0.0
 11
297.171435794959
 21
6.7729900873733291
 31
0.0
  0
ARC
  5
86D
  8
0
 10
298.25057794935913
 20
-29.338041171089401
 30
0.0
 40
41.145864355462777
 50
85.271212784790862
 51
94.409868627006432
  0
ARC
  5
86E
  8
0
 10
298.2505779493589
 20
-29.338041171089341
 30
0.0
 40
43.906861771869274
 50
86.750602546805496
 51
95.605320372265183
  0
ARC
  5
86F
  8
0
 10
274.20431130208868
 20
4.4706846788755854
 30
0.0
 40
28.366499926105561
 50
20.701514208178651
 51
69.298485791821378
  0
ARC
  5
870
  8
0
 10
274.20431130208868
 20
4.4706846788755854
 30
0.0
 40
31.407384460728942
 50
18.009535667558811
 51
71.990464332441164
  0
LINE
  5
871
  8
0
 10
295.08684119339881
 20
11.686011813679549
 30
0.0
 11
302.1211832632647
 21
4.6516697438136703
 31
0.0
  0
ARC
  5
872
  8
0
 10
274.20431130208868
 20
4.4706846788755854
 30
0.0
 40
40.020388349619061
 50
10.580598922372999
 51
79.419401077626972
  0
LINE
  5
873
  8
0
 10
292.4981005406853
 20
-32.759307212041371
 30
0.0
 11
297.12082895401028
 21
-33.038644785685307
 31
0.0
  0
ARC
  5
874
  8
0
 10
278.97227102407771
 20
-64.615406173068251
 30
0.0
 40
41.145864355462777
 50
63.827283266708271
 51
70.808364635843958
  0
ARC
  5
875
  8
0
 10
278.97227102407771
 20
17.20390886751554
 30
0.0
 40
41.145864355462777
 50
289.19163536415618
 51
296.17271673329179
  0
LINE
  5
876
  8
0
 10
292.4981005406853
 20
-14.652190093511219
 30
0.0
 11
297.12082895401039
 21
-14.37285251986728
 31
0.0
  0
ARC
  5
877
  8
0
 10
278.97227102407771
 20
17.20390886751554
 30
0.0
 40
43.906861771869274
 50
291.29274372020211
 51
305.92034354537071
  0
ARC
  5
878
  8
0
 10
278.97227102407771
 20
-64.615406173068124
 30
0.0
 40
43.906861771869274
 50
54.07965645462923
 51
68.707256279797775
  0
LINE
  5
879
  8
0
 10
297.12082895401028
 20
-5.2806612137189566
 30
0.0
 11
292.6977927642223
 21
-4.3744369903933196
 31
0.0
  0
LINE
  5
87A
  8
0
 10
295.18455435386591
 20
-0.6060808135717082
 30
0.0
 11
297.12082895401039
 21
-2.5423554137162219
 31
0.0
  0
LINE
  5
87B
  8
0
 10
260.99237081578758
 20
5.5536678514526718
 30
0.0
 11
258.98076112834963
 21
7.5652775388907401
 31
0.0
  0
LINE
  5
87C
  8
0
 10
256.1359154261736
 20
7.5652775388906832
 30
0.0
 11
257.07739832663452
 21
2.9701532488735718
 31
0.0
  0
LINE
  5
87D
  8
0
 10
287.13028300892438
 20
10.276617656116031
 30
0.0
 11
293.70515169374909
 21
3.7017489712912091
 31
0.0
  0
LINE
  5
87E
  8
0
 10
280.33721023491802
 20
7.7037380880844353
 30
0.0
 11
285.28912012423359
 21
2.7518281987688331
 31
0.0
  0
LINE
  5
87F
  8
0
 10
285.28912012423359
 20
2.7518281987688051
 30
0.0
 11
288.75540422544321
 21
5.8230693148508692
 31
0.0
  0
LINE
  5
880
  8
0
 10
271.53553404945939
 20
7.1394619315049113
 30
0.0
 11
276.87308855471798
 21
1.8019074262462871
 31
0.0
  0
LINE
  5
881
  8
0
 10
274.60677516554148
 20
10.60574603271465
 30
0.0
 11
280.33937265592772
 21
4.8731485423283507
 31
0.0
  0
LINE
  5
882
  8
0
 10
235.91984051470001
 20
7.5652775388907401
 30
0.0
 11
234.978357614239
 21
2.9701532488736002
 31
0.0
  0
LINE
  5
883
  8
0
 10
245.0278779704368
 20
2.9701532488737992
 30
0.0
 11
245.0278779704368
 21
7.5652775388907401
 31
0.0
  0
LINE
  5
884
  8
0
 10
247.0278779704368
 20
2.9701532488737992
 30
0.0
 11
247.0278779704368
 21
7.5652775388907401
 31
0.0
  0
ARC
  5
885
  8
0
 10
250.68473907180081
 20
-19.048887551412321
 30
0.0
 40
18.12703805970186
 50
41.837603547069868
 51
48.162396452930089
  0
LINE
  5
886
  8
0
 10
260.94083477918321
 20
-10.20700540640294
 30
0.0
 11
264.19007832504923
 21
-6.957761860536948
 31
0.0
  0
LINE
  5
887
  8
0
 10
260.94083477918309
 20
-37.20449189914968
 30
0.0
 11
264.19007832504923
 21
-40.453735445015639
 31
0.0
  0
LINE
  5
888
  8
0
 10
262.11570221939229
 20
-14.19710795760809
 30
0.0
 11
259.53218761681342
 21
-18.112080446761318
 31
0.0
  0
LINE
  5
889
  8
0
 10
264.12731190683041
 20
-19.053563347222159
 30
0.0
 11
264.12731190683041
 21
-16.208717645046161
 31
0.0
  0
LINE
  5
88A
  8
0
 10
248.0810049162346
 20
-18.74906173495776
 30
0.0
 11
247.02787797043689
 21
-13.609032949796131
 31
0.0
  0
LINE
  5
88B
  8
0
 10
252.46022733054019
 20
-15.85918573029983
 30
0.0
 11
248.0810049162346
 21
-18.74906173495776
 31
0.0
  0
LINE
  5
88C
  8
0
 10
253.8744408929133
 20
-17.273399292672931
 30
0.0
 11
256.44520609261008
 21
-19.390750060881508
 31
0.0
  0
LINE
  5
88D
  8
0
 10
250.98456488825531
 20
-21.652621706978611
 30
0.0
 11
253.8744408929133
 21
-17.273399292672931
 31
0.0
  0
LINE
  5
88E
  8
0
 10
235.6105498482635
 20
-19.390750060881491
 30
0.0
 11
238.18131504796031
 21
-17.27339929267287
 31
0.0
  0
LINE
  5
88F
  8
0
 10
238.18131504796031
 20
-17.27339929267287
 30
0.0
 11
241.07119105261819
 21
-21.65262170697855
 31
0.0
  0
LINE
  5
890
  8
0
 10
245.0278779704368
 20
-13.609032949796161
 30
0.0
 11
243.97475102463909
 21
-18.74906173495776
 31
0.0
  0
LINE
  5
891
  8
0
 10
243.97475102463909
 20
-18.74906173495776
 30
0.0
 11
239.59552861033339
 21
-15.859185730299769
 31
0.0
  0
LINE
  5
892
  8
0
 10
250.34287656233161
 20
-34.123076774949567
 30
0.0
 11
247.02787797043669
 21
-33.802464355756463
 31
0.0
  0
LINE
  5
893
  8
0
 10
247.02787797043669
 20
-33.802464355756463
 30
0.0
 11
248.08100491623449
 21
-28.662435570594852
 31
0.0
  0
CIRCLE
  5
894
  8
0
 10
246.02787797043669
 20
-23.705748652776261
 30
0.0
 40
3.0
  0
CIRCLE
  5
895
  8
0
 10
246.0278779704368
 20
-23.705748652776322
 30
0.0
 40
3.0
  0
LINE
  5
896
  8
0
 10
243.974751024639
 20
-28.66243557059488
 30
0.0
 11
245.02787797043669
 21
-33.80246435575652
 31
0.0
  0
LINE
  5
897
  8
0
 10
239.5955286103333
 20
-31.552311575252819
 30
0.0
 11
243.974751024639
 21
-28.66243557059488
 31
0.0
  0
LINE
  5
898
  8
0
 10
238.1813150479602
 20
-30.138098012879741
 30
0.0
 11
235.6105498482635
 21
-28.02074724467116
 31
0.0
  0
LINE
  5
899
  8
0
 10
241.07119105261819
 20
-25.758875598574061
 30
0.0
 11
238.1813150479602
 21
-30.138098012879741
 31
0.0
  0
LINE
  5
89A
  8
0
 10
236.51923727526861
 20
-39.793572901731871
 30
0.0
 11
240.43420976442181
 21
-37.210058299152941
 31
0.0
  0
LINE
  5
89B
  8
0
 10
237.18599582542731
 20
-33.961844360158643
 30
0.0
 11
233.9367522795614
 21
-37.211087906024659
 31
0.0
  0
LINE
  5
89C
  8
0
 10
235.77178226305429
 20
-32.547630797785587
 30
0.0
 11
232.5225387171883
 21
-35.796874343651609
 31
0.0
  0
ARC
  5
89D
  8
0
 10
246.0278779704368
 20
-23.705748652776212
 30
0.0
 40
18.12703805970186
 50
221.8376035470699
 51
228.1623964529301
  0
ARC
  5
89E
  8
0
 10
246.0278779704368
 20
-23.705748652776212
 30
0.0
 40
13.54128424578793
 50
220.764952246928
 51
229.2350477530718
  0
ARC
  5
89F
  8
0
 10
246.02787797043669
 20
-23.70574865277618
 30
0.0
 40
13.54128424578793
 50
265.76495224692798
 51
274.2350477530718
  0
LINE
  5
8A0
  8
0
 10
245.02787797043669
 20
-33.80246435575652
 30
0.0
 11
241.712879378542
 21
-34.123076774949602
 31
0.0
  0
LINE
  5
8A1
  8
0
 10
241.712879378542
 20
-34.123076774949602
 30
0.0
 11
239.5955286103333
 21
-31.552311575252819
 31
0.0
  0
LINE
  5
8A2
  8
0
 10
235.93116226745661
 20
-24.7057486527763
 30
0.0
 11
241.07119105261819
 21
-25.758875598574061
 31
0.0
  0
LINE
  5
8A3
  8
0
 10
241.07119105261819
 20
-21.65262170697855
 30
0.0
 11
235.93116226745661
 21
-22.705748652776268
 31
0.0
  0
ARC
  5
8A4
  8
0
 10
246.0278779704368
 20
-23.705748652776212
 30
0.0
 40
13.54128424578793
 50
175.764952246928
 51
184.2350477530718
  0
LINE
  5
8A5
  8
0
 10
235.6105498482635
 20
-28.02074724467116
 30
0.0
 11
235.93116226745661
 21
-24.7057486527763
 31
0.0
  0
LINE
  5
8A6
  8
0
 10
235.93116226745661
 20
-22.705748652776268
 30
0.0
 11
235.6105498482635
 21
-19.390750060881491
 31
0.0
  0
LINE
  5
8A7
  8
0
 10
264.12731190683041
 20
-28.35793395833031
 30
0.0
 11
259.53218761681342
 21
-29.29941685879141
 31
0.0
  0
LINE
  5
8A8
  8
0
 10
264.12731190683041
 20
-28.35793395833031
 30
0.0
 11
264.12731190683041
 21
-31.202779660506341
 31
0.0
  0
LINE
  5
8A9
  8
0
 10
256.44520609261008
 20
-28.020747244671099
 30
0.0
 11
253.8744408929133
 21
-30.13809801287977
 31
0.0
  0
LINE
  5
8AA
  8
0
 10
253.8744408929133
 20
-30.13809801287977
 30
0.0
 11
250.98456488825539
 21
-25.75887559857404
 31
0.0
  0
LINE
  5
8AB
  8
0
 10
248.08100491623449
 20
-28.662435570594852
 30
0.0
 11
252.46022733054019
 21
-31.55231157525284
 31
0.0
  0
ARC
  5
8AC
  8
0
 10
246.02787797043669
 20
-23.705748652776212
 30
0.0
 40
13.54128424578793
 50
310.76495224692809
 51
319.23504775307191
  0
LINE
  5
8AD
  8
0
 10
254.8697601154461
 20
-33.96184436015875
 30
0.0
 11
258.11900366131198
 21
-37.211087906024723
 31
0.0
  0
LINE
  5
8AE
  8
0
 10
255.53651866560489
 20
-39.793572901731807
 30
0.0
 11
251.62154617645169
 21
-37.210058299152912
 31
0.0
  0
LINE
  5
8AF
  8
0
 10
252.46022733054019
 20
-31.55231157525284
 30
0.0
 11
250.34287656233161
 21
-34.123076774949567
 31
0.0
  0
LINE
  5
8B0
  8
0
 10
256.28397367781918
 20
-32.547630797785651
 30
0.0
 11
259.53321722368509
 21
-35.796874343651609
 31
0.0
  0
ARC
  5
8B1
  8
0
 10
250.68473907180069
 20
-28.362609754140241
 30
0.0
 40
13.54128424578793
 50
310.76495224692809
 51
319.23504775307191
  0
ARC
  5
8B2
  8
0
 10
246.02787797043669
 20
-23.705748652776212
 30
0.0
 40
18.12703805970186
 50
311.83760354706988
 51
318.16239645293012
  0
LINE
  5
8B3
  8
0
 10
262.11570221939229
 20
-33.214389347944412
 30
0.0
 11
259.53218761681342
 21
-29.299416858791229
 31
0.0
  0
LINE
  5
8B4
  8
0
 10
262.11570221939229
 20
-33.214389347944412
 30
0.0
 11
264.12731190683041
 21
-31.202779660506341
 31
0.0
  0
LINE
  5
8B5
  8
0
 10
256.12459367341688
 20
-22.705748652776379
 30
0.0
 11
250.98456488825531
 21
-21.652621706978611
 31
0.0
  0
LINE
  5
8B6
  8
0
 10
250.98456488825539
 20
-25.75887559857404
 30
0.0
 11
256.12459367341688
 21
-24.705748652776379
 31
0.0
  0
ARC
  5
8B7
  8
0
 10
246.02787797043669
 20
-23.70574865277629
 30
0.0
 40
13.54128424578793
 50
355.76495224692798
 51
4.235047753071826
  0
ARC
  5
8B8
  8
0
 10
246.02787797043669
 20
-23.70574865277629
 30
0.0
 40
18.12703805970186
 50
356.83760354706988
 51
3.1623964529300981
  0
LINE
  5
8B9
  8
0
 10
259.53218761681342
 20
-24.7057486527763
 30
0.0
 11
264.12731190683041
 21
-24.7057486527763
 31
0.0
  0
LINE
  5
8BA
  8
0
 10
256.12459367341688
 20
-24.705748652776379
 30
0.0
 11
256.44520609261008
 21
-28.020747244671099
 31
0.0
  0
LINE
  5
8BB
  8
0
 10
259.53218761681342
 20
-22.705748652776322
 30
0.0
 11
264.12731190683041
 21
-22.70574865277629
 31
0.0
  0
LINE
  5
8BC
  8
0
 10
264.12731190683041
 20
-19.053563347222159
 30
0.0
 11
259.53218761681342
 21
-18.11208044676118
 31
0.0
  0
LINE
  5
8BD
  8
0
 10
256.44520609261008
 20
-19.390750060881508
 30
0.0
 11
256.12459367341688
 21
-22.705748652776379
 31
0.0
  0
LINE
  5
8BE
  8
0
 10
247.02787797043689
 20
-13.609032949796131
 30
0.0
 11
250.34287656233161
 21
-13.28842053060305
 31
0.0
  0
LINE
  5
8BF
  8
0
 10
236.51923727526861
 20
-7.6179244038206937
 30
0.0
 11
238.53084696270659
 21
-5.6063147163826272
 31
0.0
  0
LINE
  5
8C0
  8
0
 10
241.37569266488259
 20
-5.6063147163826272
 30
0.0
 11
240.43420976442169
 21
-10.201439006399649
 31
0.0
  0
LINE
  5
8C1
  8
0
 10
247.0278779704368
 20
-10.201439006399569
 30
0.0
 11
247.0278779704368
 21
-5.6063147163826272
 31
0.0
  0
LINE
  5
8C2
  8
0
 10
245.0278779704368
 20
-10.201439006399569
 30
0.0
 11
245.0278779704368
 21
-5.6063147163826272
 31
0.0
  0
LINE
  5
8C3
  8
0
 10
236.51923727526861
 20
-7.6179244038206937
 30
0.0
 11
240.43420976442181
 21
-10.201439006399591
 31
0.0
  0
LINE
  5
8C4
  8
0
 10
235.7717822630544
 20
-14.863866507766881
 30
0.0
 11
232.5225387171883
 21
-11.61462296190092
 31
0.0
  0
LINE
  5
8C5
  8
0
 10
237.1859958254274
 20
-13.449652945393829
 30
0.0
 11
233.9367522795614
 21
-10.20040939952781
 31
0.0
  0
ARC
  5
8C6
  8
0
 10
246.0278779704368
 20
-23.705748652776322
 30
0.0
 40
13.54128424578793
 50
130.764952246928
 51
139.2350477530718
  0
ARC
  5
8C7
  8
0
 10
246.0278779704368
 20
-23.705748652776322
 30
0.0
 40
18.12703805970186
 50
131.8376035470699
 51
138.1623964529301
  0
LINE
  5
8C8
  8
0
 10
241.712879378542
 20
-13.28842053060305
 30
0.0
 11
245.0278779704368
 21
-13.609032949796161
 31
0.0
  0
LINE
  5
8C9
  8
0
 10
239.59552861033339
 20
-15.859185730299769
 30
0.0
 11
241.712879378542
 21
-13.28842053060305
 31
0.0
  0
ARC
  5
8CA
  8
0
 10
246.0278779704368
 20
-23.705748652776322
 30
0.0
 40
13.54128424578793
 50
85.764952246928047
 51
94.235047753071839
  0
LINE
  5
8CB
  8
0
 10
241.37569266488259
 20
-5.6063147163826272
 30
0.0
 11
238.53084696270659
 21
-5.6063147163826272
 31
0.0
  0
LINE
  5
8CC
  8
0
 10
233.79131120017729
 20
-1.0321282761839541
 30
0.0
 11
235.8029208876153
 21
0.9794814112540564
 31
0.0
  0
LINE
  5
8CD
  8
0
 10
238.64776658979119
 20
0.9794814112540279
 30
0.0
 11
237.70628368933029
 21
-3.6156428787628272
 31
0.0
  0
LINE
  5
8CE
  8
0
 10
233.79131120017729
 20
-1.0321282761839541
 30
0.0
 11
237.70628368933041
 21
-3.6156428787627699
 31
0.0
  0
LINE
  5
8CF
  8
0
 10
238.64776658979119
 20
0.9794814112540279
 30
0.0
 11
235.8029208876153
 21
0.9794814112540279
 31
0.0
  0
LINE
  5
8D0
  8
0
 10
245.0278779704368
 20
-3.615642878762884
 30
0.0
 11
245.0278779704368
 21
0.9794814112540564
 31
0.0
  0
LINE
  5
8D1
  8
0
 10
247.0278779704368
 20
-3.615642878762884
 30
0.0
 11
247.0278779704368
 21
0.9794814112540564
 31
0.0
  0
ARC
  5
8D2
  8
0
 10
246.0278779704368
 20
-17.119952525139642
 30
0.0
 40
13.54128424578793
 50
85.764952246928047
 51
94.235047753071839
  0
ARC
  5
8D3
  8
0
 10
246.0278779704368
 20
-23.705748652776322
 30
0.0
 40
18.12703805970186
 50
86.837603547069875
 51
93.162396452930111
  0
ARC
  5
8D4
  8
0
 10
246.0278779704368
 20
-10.534156397502951
 30
0.0
 40
13.54128424578793
 50
85.764952246928047
 51
94.235047753071839
  0
ARC
  5
8D5
  8
0
 10
246.0278779704368
 20
-17.119952525139642
 30
0.0
 40
18.12703805970186
 50
86.837603547069875
 51
93.162396452930111
  0
LINE
  5
8D6
  8
0
 10
250.6800632759909
 20
-5.6063147163826272
 30
0.0
 11
251.62154617645189
 21
-10.201439006399649
 31
0.0
  0
LINE
  5
8D7
  8
0
 10
259.52662121681021
 20
-8.792791844029864
 30
0.0
 11
262.77586476267612
 21
-5.5435482981638691
 31
0.0
  0
LINE
  5
8D8
  8
0
 10
255.53651866560489
 20
-7.6179244038206662
 30
0.0
 11
253.52490897816691
 21
-5.6063147163826272
 31
0.0
  0
ARC
  5
8D9
  8
0
 10
246.0278779704368
 20
-23.70574865277635
 30
0.0
 40
13.54128424578793
 50
40.764952246928033
 51
49.235047753071832
  0
LINE
  5
8DA
  8
0
 10
254.86976011544621
 20
-13.44965294539386
 30
0.0
 11
258.11900366131221
 21
-10.200409399527871
 31
0.0
  0
LINE
  5
8DB
  8
0
 10
250.34287656233161
 20
-13.28842053060305
 30
0.0
 11
252.46022733054019
 21
-15.85918573029983
 31
0.0
  0
LINE
  5
8DC
  8
0
 10
255.53651866560489
 20
-7.6179244038206662
 30
0.0
 11
251.62154617645169
 21
-10.201439006399591
 31
0.0
  0
LINE
  5
8DD
  8
0
 10
256.28397367781918
 20
-14.863866507766939
 30
0.0
 11
259.53321722368531
 21
-11.614622961900951
 31
0.0
  0
LINE
  5
8DE
  8
0
 10
262.11570221939229
 20
-14.19710795760809
 30
0.0
 11
264.12731190683041
 21
-16.208717645046161
 31
0.0
  0
ARC
  5
8DF
  8
0
 10
250.68473907180081
 20
-19.048887551412321
 30
0.0
 40
13.54128424578793
 50
40.764952246928033
 51
49.235047753071832
  0
ARC
  5
8E0
  8
0
 10
246.0278779704368
 20
-23.70574865277635
 30
0.0
 40
18.12703805970186
 50
41.837603547069868
 51
48.162396452930089
  0
LINE
  5
8E1
  8
0
 10
258.26444474069609
 20
-1.0321282761839541
 30
0.0
 11
254.34947225154309
 21
-3.6156428787627699
 31
0.0
  0
LINE
  5
8E2
  8
0
 10
253.40798935108231
 20
0.9794814112540564
 30
0.0
 11
256.2528350532582
 21
0.9794814112540564
 31
0.0
  0
LINE
  5
8E3
  8
0
 10
253.40798935108231
 20
0.9794814112540564
 30
0.0
 11
254.34947225154329
 21
-3.6156428787627979
 31
0.0
  0
LINE
  5
8E4
  8
0
 10
250.6800632759909
 20
-5.6063147163826272
 30
0.0
 11
253.52490897816691
 21
-5.6063147163826272
 31
0.0
  0
LINE
  5
8E5
  8
0
 10
258.26444474069609
 20
-1.0321282761839541
 30
0.0
 11
256.2528350532582
 21
0.9794814112540564
 31
0.0
  0
LINE
  5
8E6
  8
0
 10
260.99237081578758
 20
5.5536678514526718
 30
0.0
 11
257.0773983266343
 21
2.970153248873685
 31
0.0
  0
LINE
  5
8E7
  8
0
 10
292.4981005406853
 20
-14.652190093511249
 30
0.0
 11
292.4981005406853
 21
-21.655248218630931
 31
0.0
  0
LINE
  5
8E8
  8
0
 10
279.28957599972352
 20
-22.705748652776322
 30
0.0
 11
283.88470028974041
 21
-22.70574865277629
 31
0.0
  0
LINE
  5
8E9
  8
0
 10
279.28957599972352
 20
-24.7057486527763
 30
0.0
 11
283.88470028974041
 21
-24.7057486527763
 31
0.0
  0
LINE
  5
8EA
  8
0
 10
283.86367667407012
 20
-36.562735799274549
 30
0.0
 11
279.26855238405301
 21
-37.504218699735638
 31
0.0
  0
LINE
  5
8EB
  8
0
 10
268.70149834702909
 20
-35.942315423035673
 30
0.0
 11
270.71310803446698
 21
-33.930705735597662
 31
0.0
  0
LINE
  5
8EC
  8
0
 10
268.70149834702909
 20
-35.942315423035673
 30
0.0
 11
266.11798374445033
 21
-32.027342933882608
 31
0.0
  0
LINE
  5
8ED
  8
0
 10
270.71310803446698
 20
-31.085860033421739
 30
0.0
 11
266.1179837444501
 21
-32.027342933882721
 31
0.0
  0
LINE
  5
8EE
  8
0
 10
270.71310803446698
 20
-31.085860033421739
 30
0.0
 11
270.71310803446698
 21
-33.930705735597662
 31
0.0
  0
LINE
  5
8EF
  8
0
 10
275.28729447466571
 20
-38.670241498127041
 30
0.0
 11
272.70377987208673
 21
-34.755269008973812
 31
0.0
  0
LINE
  5
8F0
  8
0
 10
277.29890416210372
 20
-33.813786108513057
 30
0.0
 11
277.29890416210378
 21
-36.658631810688973
 31
0.0
  0
LINE
  5
8F1
  8
0
 10
275.28729447466571
 20
-38.670241498127041
 30
0.0
 11
277.29890416210378
 21
-36.658631810689087
 31
0.0
  0
LINE
  5
8F2
  8
0
 10
277.29890416210372
 20
-33.813786108513057
 30
0.0
 11
272.70377987208661
 21
-34.755269008974039
 31
0.0
  0
ARC
  5
8F3
  8
0
 10
252.6136740980734
 20
-23.70574865277629
 30
0.0
 40
18.12703805970186
 50
356.83760354706988
 51
3.1623964529300981
  0
ARC
  5
8F4
  8
0
 10
252.6136740980734
 20
-23.70574865277629
 30
0.0
 40
13.54128424578793
 50
355.76495224692798
 51
4.235047753071826
  0
LINE
  5
8F5
  8
0
 10
266.1179837444501
 20
-24.7057486527763
 30
0.0
 11
270.71310803446698
 21
-24.7057486527763
 31
0.0
  0
LINE
  5
8F6
  8
0
 10
266.1179837444501
 20
-22.705748652776322
 30
0.0
 11
270.71310803446698
 21
-22.70574865277629
 31
0.0
  0
ARC
  5
8F7
  8
0
 10
259.19947022571012
 20
-23.705748652776322
 30
0.0
 40
18.12703805970186
 50
356.83760354706988
 51
3.1623964529300981
  0
ARC
  5
8F8
  8
0
 10
265.78526635334669
 20
-23.705748652776322
 30
0.0
 40
13.54128424578793
 50
355.76495224692798
 51
4.235047753071826
  0
ARC
  5
8F9
  8
0
 10
259.19947022571012
 20
-23.705748652776322
 30
0.0
 40
13.54128424578793
 50
355.76495224692798
 51
4.235047753071826
  0
LINE
  5
8FA
  8
0
 10
272.70377987208678
 20
-24.7057486527763
 30
0.0
 11
277.29890416210378
 21
-24.7057486527763
 31
0.0
  0
LINE
  5
8FB
  8
0
 10
272.70377987208678
 20
-22.705748652776322
 30
0.0
 11
277.29890416210378
 21
-22.70574865277629
 31
0.0
  0
LINE
  5
8FC
  8
0
 10
292.4981005406853
 20
-25.756249086921741
 30
0.0
 11
292.49810054068541
 21
-32.759307212041392
 31
0.0
  0
LINE
  5
8FD
  8
0
 10
286.07506435089738
 20
-40.293836386446003
 30
0.0
 11
290.4981005406853
 21
-39.387612163120373
 31
0.0
  0
LINE
  5
8FE
  8
0
 10
283.86367667407012
 20
-36.562735799274549
 30
0.0
 11
283.86367667407018
 21
-39.407581501450579
 31
0.0
  0
LINE
  5
8FF
  8
0
 10
285.87537212736009
 20
-27.479969638397421
 30
0.0
 11
290.4981005406853
 21
-27.759307212041389
 31
0.0
  0
LINE
  5
900
  8
0
 10
285.87537212736009
 20
-19.931527667155159
 30
0.0
 11
290.4981005406853
 21
-19.652190093511219
 31
0.0
  0
ARC
  5
901
  8
0
 10
265.78526635334669
 20
-23.705748652776322
 30
0.0
 40
18.12703805970186
 50
356.83760354706988
 51
3.1623964529300981
  0
LINE
  5
902
  8
0
 10
285.87537212736009
 20
-19.931527667155159
 30
0.0
 11
285.87537212736009
 21
-27.479969638397449
 31
0.0
  0
LINE
  5
903
  8
0
 10
290.4981005406853
 20
-19.652190093511219
 30
0.0
 11
290.4981005406853
 21
-27.759307212041449
 31
0.0
  0
LINE
  5
904
  8
0
 10
283.88470028974041
 20
-10.899517004359209
 30
0.0
 11
279.2895759997233
 21
-9.9580341038981999
 31
0.0
  0
LINE
  5
905
  8
0
 10
281.8730906023024
 20
-6.0430616147451133
 30
0.0
 11
279.2895759997233
 21
-9.9580341038984557
 31
0.0
  0
LINE
  5
906
  8
0
 10
268.70149834702909
 20
-11.46918188251683
 30
0.0
 11
266.11798374445033
 21
-15.38415437166989
 31
0.0
  0
LINE
  5
907
  8
0
 10
268.70149834702909
 20
-11.46918188251683
 30
0.0
 11
270.71310803446698
 21
-13.480791569954841
 31
0.0
  0
LINE
  5
908
  8
0
 10
270.71310803446698
 20
-16.325637272130731
 30
0.0
 11
266.1179837444501
 21
-15.38415437166978
 31
0.0
  0
LINE
  5
909
  8
0
 10
270.71310803446698
 20
-16.325637272130731
 30
0.0
 11
270.71310803446698
 21
-13.480791569954791
 31
0.0
  0
LINE
  5
90A
  8
0
 10
277.29890416210378
 20
-13.59771119703953
 30
0.0
 11
277.29890416210378
 21
-10.752865494863549
 31
0.0
  0
LINE
  5
90B
  8
0
 10
275.28729447466571
 20
-8.7412558074255458
 30
0.0
 11
272.70377987208673
 21
-12.656228296578769
 31
0.0
  0
LINE
  5
90C
  8
0
 10
277.29890416210378
 20
-13.59771119703953
 30
0.0
 11
272.70377987208661
 21
-12.656228296578551
 31
0.0
  0
LINE
  5
90D
  8
0
 10
275.28729447466571
 20
-8.7412558074255458
 30
0.0
 11
277.29890416210378
 21
-10.752865494863499
 31
0.0
  0
LINE
  5
90E
  8
0
 10
270.25455698191121
 20
-0.8932832036749402
 30
0.0
 11
273.50380052777717
 21
2.3559603421910529
 31
0.0
  0
ARC
  5
90F
  8
0
 10
259.99846127452878
 20
-9.735165348684319
 30
0.0
 40
18.12703805970186
 50
41.837603547069868
 51
48.162396452930089
  0
ARC
  5
910
  8
0
 10
259.99846127452878
 20
-9.735165348684319
 30
0.0
 40
13.54128424578793
 50
40.764952246928033
 51
49.235047753071832
  0
ARC
  5
911
  8
0
 10
255.34160017316481
 20
-14.39202645004835
 30
0.0
 40
18.12703805970186
 50
41.837603547069868
 51
48.162396452930089
  0
LINE
  5
912
  8
0
 10
265.59769588054718
 20
-5.5501443050389412
 30
0.0
 11
268.8469394264132
 21
-2.3009007591729471
 31
0.0
  0
ARC
  5
913
  8
0
 10
255.34160017316481
 20
-14.39202645004835
 30
0.0
 40
13.54128424578793
 50
40.764952246928033
 51
49.235047753071832
  0
LINE
  5
914
  8
0
 10
264.18348231817407
 20
-4.1359307426658631
 30
0.0
 11
267.43272586404009
 21
-0.886687196799869
 31
0.0
  0
LINE
  5
915
  8
0
 10
268.8403434195381
 20
0.5209303586981378
 30
0.0
 11
272.08958696540412
 21
3.7701739045641309
 31
0.0
  0
LINE
  5
916
  8
0
 10
276.87308855471798
 20
1.8019074262463159
 30
0.0
 11
280.33937265592772
 21
4.8731485423284084
 31
0.0
  0
LINE
  5
917
  8
0
 10
290.4981005406853
 20
-8.0238851424319364
 30
0.0
 11
290.4981005406853
 21
-5.2855793424291733
 31
0.0
  0
LINE
  5
918
  8
0
 10
286.07506435089732
 20
-7.1176609191062701
 30
0.0
 11
288.56182594054081
 21
-3.349304742284601
 31
0.0
  0
LINE
  5
919
  8
0
 10
290.4981005406853
 20
-8.0238851424319062
 30
0.0
 11
286.07506435089732
 21
-7.1176609191062701
 31
0.0
  0
LINE
  5
91A
  8
0
 10
281.8730906023024
 20
-6.0430616147451133
 30
0.0
 11
283.88470028974041
 21
-8.0546713021831806
 31
0.0
  0
LINE
  5
91B
  8
0
 10
283.88470028974041
 20
-10.899517004359209
 30
0.0
 11
283.88470028974041
 21
-8.0546713021831522
 31
0.0
  0
LINE
  5
91C
  8
0
 10
288.56182594054081
 20
-3.3493047422846578
 30
0.0
 11
290.4981005406853
 21
-5.2855793424291733
 31
0.0
  0
LINE
  5
91D
  8
0
 10
292.6977927642223
 20
-4.3744369903933196
 30
0.0
 11
295.18455435386591
 21
-0.6060808135716514
 31
0.0
  0
LINE
  5
91E
  8
0
 10
261.70974148078102
 20
20.764473917472309
 30
0.0
 11
264.44804728078378
 21
20.764473917472291
 31
0.0
  0
LINE
  5
91F
  8
0
 10
266.38432188092821
 20
18.828199317327911
 30
0.0
 11
262.61596570410649
 21
16.34143772768434
 31
0.0
  0
ARC
  5
920
  8
0
 10
286.93753549072858
 20
9.2386444008647004
 30
0.0
 40
43.906861771869274
 50
114.61535084576241
 51
127.3797881827618
  0
ARC
  5
921
  8
0
 10
286.93753549072869
 20
9.2386444008647857
 30
0.0
 40
41.145864355462777
 50
112.48936782855959
 51
125.74737392715031
  0
LINE
  5
922
  8
0
 10
255.6920497194138
 20
36.009930744122563
 30
0.0
 11
265.6401116769897
 21
36.009930744122528
 31
0.0
  0
LINE
  5
923
  8
0
 10
260.34058094661589
 20
40.632659157447591
 30
0.0
 11
265.91944925063359
 21
40.632659157447591
 31
0.0
  0
LINE
  5
924
  8
0
 10
262.89960854194061
 20
42.632659157447591
 30
0.0
 11
270.91944925063382
 21
42.632659157447591
 31
0.0
  0
ARC
  5
925
  8
0
 10
286.93753549072858
 20
9.2386444008647004
 30
0.0
 40
43.906861771869274
 50
144.0796564546292
 51
158.7072562797978
  0
ARC
  5
926
  8
0
 10
205.11822045014489
 20
9.2386444008647004
 30
0.0
 40
43.906861771869274
 50
21.292743720202211
 51
35.92034354537077
  0
LINE
  5
927
  8
0
 10
241.97431941117171
 20
20.764473917472309
 30
0.0
 11
250.0814365297019
 21
20.764473917472291
 31
0.0
  0
LINE
  5
928
  8
0
 10
242.25365698481571
 20
16.141745504147188
 30
0.0
 11
249.8020989560579
 21
16.141745504147138
 31
0.0
  0
LINE
  5
929
  8
0
 10
242.25365698481571
 20
16.141745504147188
 30
0.0
 11
241.97431941117171
 21
20.764473917472291
 31
0.0
  0
LINE
  5
92A
  8
0
 10
233.22164632201969
 20
14.15107366652742
 30
0.0
 11
232.28016342155871
 21
9.5559493765102843
 31
0.0
  0
LINE
  5
92B
  8
0
 10
235.91984051470001
 20
7.5652775388907401
 30
0.0
 11
233.07499481252401
 21
7.5652775388907676
 31
0.0
  0
LINE
  5
92C
  8
0
 10
247.0278779704368
 20
9.5559493765104833
 30
0.0
 11
247.0278779704368
 21
14.15107366652742
 31
0.0
  0
LINE
  5
92D
  8
0
 10
245.0278779704368
 20
9.5559493765104833
 30
0.0
 11
245.0278779704368
 21
14.15107366652742
 31
0.0
  0
ARC
  5
92E
  8
0
 10
246.0278779704368
 20
-3.9483602698662699
 30
0.0
 40
13.54128424578793
 50
85.764952246928047
 51
94.235047753071839
  0
ARC
  5
92F
  8
0
 10
246.0278779704368
 20
-10.534156397502951
 30
0.0
 40
18.12703805970186
 50
86.837603547069875
 51
93.162396452930111
  0
ARC
  5
930
  8
0
 10
246.0278779704368
 20
-3.9483602698662699
 30
0.0
 40
18.12703805970186
 50
86.837603547069875
 51
93.162396452930111
  0
LINE
  5
931
  8
0
 10
236.97431941117171
 20
22.764473917472259
 30
0.0
 11
243.97737753629141
 21
22.764473917472291
 31
0.0
  0
LINE
  5
932
  8
0
 10
236.69498183752771
 20
27.387202330797379
 30
0.0
 11
242.04533783861729
 21
27.387202330797379
 31
0.0
  0
LINE
  5
933
  8
0
 10
236.97431941117171
 20
22.764473917472319
 30
0.0
 11
236.69498183752779
 21
27.387202330797411
 31
0.0
  0
ARC
  5
934
  8
0
 10
205.11822045014489
 20
9.2386444008647004
 30
0.0
 40
41.145864355462777
 50
19.191635364156141
 51
26.172716733291811
  0
LINE
  5
935
  8
0
 10
262.61596570410649
 20
16.34143772768434
 30
0.0
 11
261.70974148078079
 21
20.764473917472351
 31
0.0
  0
LINE
  5
936
  8
0
 10
249.8020989560579
 20
16.14174550414716
 30
0.0
 11
250.0814365297019
 21
20.764473917472309
 31
0.0
  0
LINE
  5
937
  8
0
 10
263.74132050654919
 20
12.118440363419101
 30
0.0
 11
259.8263480173959
 21
9.5349257608401103
 31
0.0
  0
LINE
  5
938
  8
0
 10
258.88486511693509
 20
14.130050050857159
 30
0.0
 11
259.82634801739613
 21
9.5349257608399967
 31
0.0
  0
LINE
  5
939
  8
0
 10
256.1359154261736
 20
7.5652775388906832
 30
0.0
 11
258.98076112834951
 21
7.5652775388907401
 31
0.0
  0
LINE
  5
93A
  8
0
 10
258.88486511693509
 20
14.130050050857159
 30
0.0
 11
261.72971081911112
 21
14.130050050857189
 31
0.0
  0
LINE
  5
93B
  8
0
 10
263.74132050654919
 20
12.118440363419101
 30
0.0
 11
261.72971081911112
 21
14.130050050857189
 31
0.0
  0
ARC
  5
93C
  8
0
 10
286.93753549072869
 20
9.2386444008647857
 30
0.0
 40
41.145864355462777
 50
153.82728326670829
 51
160.8083646358439
  0
LINE
  5
93D
  8
0
 10
255.08143652970179
 20
22.764473917472319
 30
0.0
 11
255.36077410334579
 21
27.387202330797411
 31
0.0
  0
LINE
  5
93E
  8
0
 10
248.0783784045822
 20
22.764473917472341
 30
0.0
 11
255.0814365297019
 21
22.764473917472401
 31
0.0
  0
LINE
  5
93F
  8
0
 10
250.0104181022563
 20
27.387202330797411
 30
0.0
 11
255.36077410334579
 21
27.387202330797411
 31
0.0
  0
ARC
  5
940
  8
0
 10
246.0278779704368
 20
16.14174550414716
 30
0.0
 40
31.407384460728942
 50
63.009535667558822
 51
116.99046433244121
  0
ARC
  5
941
  8
0
 10
246.0278779704368
 20
16.14174550414716
 30
0.0
 40
28.366499926105561
 50
65.701514208178651
 51
114.29848579182141
  0
ARC
  5
942
  8
0
 10
246.0278779704368
 20
16.14174550414716
 30
0.0
 40
22.093913196256072
 50
71.586768510148914
 51
108.4132314898511
  0
ARC
  5
943
  8
0
 10
246.0278779704368
 20
16.14174550414716
 30
0.0
 40
19.600268219504841
 50
74.152453142575069
 51
105.847546857425
  0
ARC
  5
944
  8
0
 10
205.11822045014489
 20
9.2386444008647004
 30
0.0
 40
43.906861771869274
 50
39.39467962773481
 51
48.24939745319449
  0
ARC
  5
945
  8
0
 10
205.11822045014489
 20
9.2386444008647004
 30
0.0
 40
41.145864355462777
 50
40.590131372993568
 51
49.728787215209422
  0
ARC
  5
946
  8
0
 10
205.11822045014489
 20
9.2386444008647004
 30
0.0
 40
41.145864355462777
 50
29.319952060261379
 51
37.015845838321148
  0
LINE
  5
947
  8
0
 10
231.69498183752771
 20
29.387202330797379
 30
0.0
 11
240.9932503024292
 21
29.387202330797379
 31
0.0
  0
LINE
  5
948
  8
0
 10
231.41564426388391
 20
34.009930744122471
 30
0.0
 11
237.97191927475939
 21
34.009930744122471
 31
0.0
  0
LINE
  5
949
  8
0
 10
231.69498183752771
 20
29.387202330797411
 30
0.0
 11
231.41564426388379
 21
34.009930744122499
 31
0.0
  0
ARC
  5
94A
  8
0
 10
286.93753549072858
 20
9.2386444008647004
 30
0.0
 40
43.906861771869274
 50
131.75060254680551
 51
140.6053203722652
  0
ARC
  5
94B
  8
0
 10
286.93753549072869
 20
9.2386444008647857
 30
0.0
 40
41.145864355462777
 50
130.27121278479081
 51
139.4098686270064
  0
LINE
  5
94C
  8
0
 10
251.06250563844441
 20
29.387202330797439
 30
0.0
 11
260.36077410334582
 21
29.387202330797439
 31
0.0
  0
LINE
  5
94D
  8
0
 10
254.08383666611419
 20
34.009930744122499
 30
0.0
 11
260.6401116769897
 21
34.009930744122528
 31
0.0
  0
ARC
  5
94E
  8
0
 10
286.93753549072869
 20
9.2386444008647857
 30
0.0
 40
41.145864355462777
 50
142.98415416167899
 51
150.68004793973861
  0
LINE
  5
94F
  8
0
 10
260.3607741033457
 20
29.387202330797411
 30
0.0
 11
260.6401116769897
 21
34.009930744122499
 31
0.0
  0
ARC
  5
950
  8
0
 10
240.39558545212381
 20
28.516951326145861
 30
0.0
 40
41.145864355462777
 50
355.5901313729936
 51
4.7287872152094064
  0
ARC
  5
951
  8
0
 10
240.39558545212381
 20
28.516951326145861
 30
0.0
 40
43.906861771869274
 50
354.39467962773477
 51
3.249397453194478
  0
LINE
  5
952
  8
0
 10
274.38529636702668
 20
32.387556640051571
 30
0.0
 11
281.41963843689268
 21
25.353214570185742
 31
0.0
  0
LINE
  5
953
  8
0
 10
276.5066167105864
 20
27.437809171745752
 30
0.0
 11
281.14260323010029
 21
22.801822652231749
 31
0.0
  0
ARC
  5
954
  8
0
 10
240.39558545212381
 20
28.516951326145861
 30
0.0
 40
41.145864355462777
 50
344.31995206026141
 51
352.01584583832118
  0
ARC
  5
955
  8
0
 10
298.25057794935913
 20
-29.338041171089401
 30
0.0
 40
41.145864355462777
 50
108.82728326670821
 51
115.8083646358439
  0
ARC
  5
956
  8
0
 10
298.2505779493589
 20
-29.338041171089341
 30
0.0
 40
43.906861771869274
 50
99.07965645462923
 51
113.7072562797978
  0
LINE
  5
957
  8
0
 10
272.48545482198188
 20
15.555493501020489
 30
0.0
 11
275.55669593806402
 21
19.021777602230198
 31
0.0
  0
LINE
  5
958
  8
0
 10
275.55669593806402
 20
19.021777602230198
 30
0.0
 11
279.33996894819649
 21
15.23850459209763
 31
0.0
  0
LINE
  5
959
  8
0
 10
271.53553404945939
 20
7.1394619315049113
 30
0.0
 11
274.60677516554148
 21
10.60574603271462
 31
0.0
  0
ARC
  5
95A
  8
0
 10
240.39558545212381
 20
28.516951326145861
 30
0.0
 40
41.145864355462777
 50
334.19163536415613
 51
341.17271673329179
  0
LINE
  5
95B
  8
0
 10
272.48545482198188
 20
15.555493501020401
 30
0.0
 11
277.4373647112975
 21
10.60358361170478
 31
0.0
  0
LINE
  5
95C
  8
0
 10
269.12754580964111
 20
25.450927730653039
 30
0.0
 11
265.35918963281938
 21
22.964166141009478
 31
0.0
  0
LINE
  5
95D
  8
0
 10
265.35918963281938
 20
22.964166141009478
 30
0.0
 11
264.4529654094938
 21
27.387202330797489
 31
0.0
  0
LINE
  5
95E
  8
0
 10
266.38432188092833
 20
18.828199317327879
 30
0.0
 11
264.44804728078378
 21
20.764473917472291
 31
0.0
  0
LINE
  5
95F
  8
0
 10
269.12754580964111
 20
25.450927730653039
 30
0.0
 11
267.19127120949668
 21
27.387202330797439
 31
0.0
  0
LINE
  5
960
  8
0
 10
264.45296540949391
 20
27.387202330797461
 30
0.0
 11
267.19127120949668
 21
27.387202330797439
 31
0.0
  0
LINE
  5
961
  8
0
 10
273.43537559450431
 20
23.971525070536021
 30
0.0
 11
280.01024427932919
 21
17.396656385711172
 31
0.0
  0
LINE
  5
962
  8
0
 10
273.43537559450431
 20
23.97152507053605
 30
0.0
 11
276.5066167105864
 21
27.437809171745752
 31
0.0
  0
ARC
  5
963
  8
0
 10
274.20431130208868
 20
4.4706846788755854
 30
0.0
 40
19.600268219504841
 50
29.152453142575059
 51
60.847546857424987
  0
ARC
  5
964
  8
0
 10
274.20431130208868
 20
4.4706846788755854
 30
0.0
 40
22.093913196256072
 50
26.5867685101489
 51
63.413231489851142
  0
ARC
  5
965
  8
0
 10
240.39558545212381
 20
28.516951326145861
 30
0.0
 40
43.906861771869274
 50
336.29274372020222
 51
350.92034354537071
  0
ARC
  5
966
  8
0
 10
298.25057794935913
 20
-29.338041171089401
 30
0.0
 40
41.145864355462777
 50
97.984154161678987
 51
105.6800479397386
  0
LINE
  5
967
  8
0
 10
284.97213121531081
 20
9.6063423249833875
 30
0.0
 11
288.75540422544321
 21
5.8230693148508692
 31
0.0
  0
LINE
  5
968
  8
0
 10
275.33524370812762
 20
40.803561640988789
 30
0.0
 11
281.00610088870189
 21
35.132704460414409
 31
0.0
  0
ARC
  5
969
  8
0
 10
240.39558545212381
 20
28.516951326145861
 30
0.0
 40
41.145864355462777
 50
9.2526260728498606
 51
22.51063217144047
  0
LINE
  5
96A
  8
0
 10
277.45653748310878
 20
35.853840741261337
 30
0.0
 11
281.4013930922265
 21
31.90898513214367
 31
0.0
  0
LINE
  5
96B
  8
0
 10
274.61399366706689
 20
38.696384557303219
 30
0.0
 11
272.67771906692252
 21
40.63265915744762
 31
0.0
  0
LINE
  5
96C
  8
0
 10
270.84563749024522
 20
36.209622967659669
 30
0.0
 11
269.93941326691959
 21
40.632659157447669
 31
0.0
  0
LINE
  5
96D
  8
0
 10
265.6401116769897
 20
36.009930744122499
 30
0.0
 11
265.91944925063359
 21
40.632659157447591
 31
0.0
  0
LINE
  5
96E
  8
0
 10
274.61399366706689
 20
38.696384557303247
 30
0.0
 11
270.84563749024522
 21
36.209622967659669
 31
0.0
  0
LINE
  5
96F
  8
0
 10
271.870769738354
 20
32.073656143978098
 30
0.0
 11
268.10241356153227
 21
29.586894554334521
 31
0.0
  0
LINE
  5
970
  8
0
 10
267.19618933820669
 20
34.009930744122528
 30
0.0
 11
269.93449513820963
 21
34.009930744122499
 31
0.0
  0
LINE
  5
971
  8
0
 10
268.10241356153227
 20
29.586894554334521
 30
0.0
 11
267.19618933820669
 21
34.009930744122528
 31
0.0
  0
LINE
  5
972
  8
0
 10
271.870769738354
 20
32.073656143978098
 30
0.0
 11
269.93449513820963
 21
34.009930744122499
 31
0.0
  0
LINE
  5
973
  8
0
 10
274.38529636702668
 20
32.387556640051599
 30
0.0
 11
277.45653748310878
 21
35.853840741261337
 31
0.0
  0
LINE
  5
974
  8
0
 10
269.93941326691959
 20
40.632659157447641
 30
0.0
 11
272.67771906692252
 21
40.63265915744762
 31
0.0
  0
LINE
  5
975
  8
0
 10
270.9194492506337
 20
42.632659157447591
 30
0.0
 11
271.19878682427759
 21
47.255387570772683
 31
0.0
  0
LINE
  5
976
  8
0
 10
275.33524370812762
 20
40.803561640988747
 30
0.0
 11
278.4064848242096
 21
44.269845742198463
 31
0.0
  0
ARC
  5
977
  8
0
 10
240.39558545212381
 20
28.516951326145861
 30
0.0
 40
43.906861771869274
 50
7.6202118172381468
 51
20.384649154237529
  0
ARC
  5
978
  8
0
 10
278.97227102407783
 20
17.20390886751548
 30
0.0
 40
43.906861771869274
 50
340.00001961756158
 51
347.49302133030739
  0
LINE
  5
979
  8
0
 10
310.53721483278019
 20
5.6015905163360742
 30
0.0
 11
314.00349893398987
 21
8.6728316324181378
 31
0.0
  0
LINE
  5
97A
  8
0
 10
302.1211832632647
 20
4.6516697438136703
 30
0.0
 11
305.58746736447438
 21
7.7229108598957046
 31
0.0
  0
LINE
  5
97B
  8
0
 10
304.86633108362747
 20
11.272474265488849
 30
0.0
 11
310.53721483278019
 21
5.6015905163360449
 31
0.0
  0
LINE
  5
97C
  8
0
 10
299.12082895401028
 20
-9.3728525198672799
 30
0.0
 11
299.12082895401028
 21
-18.67112098476872
 31
0.0
  0
ARC
  5
97D
  8
0
 10
278.97227102407771
 20
17.20390886751554
 30
0.0
 40
41.145864355462777
 50
299.31995206026141
 51
307.01584583832118
  0
ARC
  5
97E
  8
0
 10
285.87537212736009
 20
-23.705748652776322
 30
0.0
 40
22.093913196256072
 50
341.58676851014889
 51
18.413231489851128
  0
ARC
  5
97F
  8
0
 10
285.87537212736009
 20
-23.705748652776322
 30
0.0
 40
28.366499926105561
 50
335.70151420817859
 51
24.298485791821381
  0
ARC
  5
980
  8
0
 10
285.87537212736009
 20
-23.705748652776322
 30
0.0
 40
31.407384460728942
 50
333.00953566755879
 51
26.990464332441189
  0
LINE
  5
981
  8
0
 10
297.12082895401028
 20
-14.37285251986725
 30
0.0
 11
297.12082895401028
 21
-19.723208520956831
 31
0.0
  0
ARC
  5
982
  8
0
 10
278.97227102407771
 20
-64.615406173068251
 30
0.0
 40
41.145864355462777
 50
52.98415416167898
 51
60.680047939738607
  0
LINE
  5
983
  8
0
 10
299.12082895401051
 20
-28.74037632078393
 30
0.0
 11
299.12082895401051
 21
-38.038644785685342
 31
0.0
  0
LINE
  5
984
  8
0
 10
297.12082895401039
 20
-27.688288784595819
 30
0.0
 11
297.12082895401028
 21
-33.038644785685307
 31
0.0
  0
LINE
  5
985
  8
0
 10
303.74355736733548
 20
-31.76170734845374
 30
0.0
 11
303.74355736733548
 21
-38.31798235932925
 31
0.0
  0
LINE
  5
986
  8
0
 10
299.12082895401028
 20
-38.038644785685307
 30
0.0
 11
303.74355736733548
 21
-38.31798235932925
 31
0.0
  0
ARC
  5
987
  8
0
 10
278.97227102407771
 20
-64.615406173068251
 30
0.0
 40
41.145864355462777
 50
40.271212784790862
 51
49.409868627006432
  0
ARC
  5
988
  8
0
 10
278.97227102407771
 20
-64.615406173068124
 30
0.0
 40
43.906861771869274
 50
41.75060254680551
 51
50.60532037226519
  0
ARC
  5
989
  8
0
 10
285.87537212736009
 20
-23.705748652776322
 30
0.0
 40
19.600268219504841
 50
344.1524531425751
 51
15.84754685742498
  0
LINE
  5
98A
  8
0
 10
312.36628578066069
 20
1.185785053776669
 30
0.0
 11
316.98901419398572
 21
1.4651226274205831
 31
0.0
  0
ARC
  5
98B
  8
0
 10
278.97227102407771
 20
17.20390886751554
 30
0.0
 40
41.145864355462777
 50
324.25262607284992
 51
337.51063217144048
  0
LINE
  5
98C
  8
0
 10
312.36628578066069
 20
1.185785053776697
 30
0.0
 11
312.36628578066069
 21
-6.8340180812724043
 31
0.0
  0
LINE
  5
98D
  8
0
 10
310.36628578066069
 20
-3.814177372579393
 30
0.0
 11
310.36628578066069
 21
-9.3930456765971542
 31
0.0
  0
LINE
  5
98E
  8
0
 10
305.74355736733548
 20
-4.093514946223336
 30
0.0
 11
305.74355736733548
 21
-14.041576903799291
 31
0.0
  0
LINE
  5
98F
  8
0
 10
303.74355736733548
 20
-9.0935149462233653
 30
0.0
 11
303.74355736733548
 21
-15.6497899570989
 31
0.0
  0
LINE
  5
990
  8
0
 10
299.12082895401051
 20
-9.3728525198672799
 30
0.0
 11
303.74355736733548
 21
-9.0935149462233351
 31
0.0
  0
ARC
  5
991
  8
0
 10
278.97227102407771
 20
17.20390886751554
 30
0.0
 40
41.145864355462777
 50
310.5901313729936
 51
319.72878721520942
  0
ARC
  5
992
  8
0
 10
278.97227102407771
 20
17.20390886751554
 30
0.0
 40
43.906861771869274
 50
309.39467962773477
 51
318.24939745319449
  0
LINE
  5
993
  8
0
 10
299.3205211775475
 20
-1.631213061680455
 30
0.0
 11
301.80728276719088
 21
2.137143115141213
 31
0.0
  0
LINE
  5
994
  8
0
 10
303.74355736733548
 20
-2.5374372850061202
 30
0.0
 11
303.74355736733548
 21
0.2008685149966425
 31
0.0
  0
LINE
  5
995
  8
0
 10
303.74355736733548
 20
-2.5374372850060918
 30
0.0
 11
299.3205211775475
 21
-1.631213061680455
 31
0.0
  0
LINE
  5
996
  8
0
 10
297.12082895401039
 20
-5.280661213718985
 30
0.0
 11
297.12082895401039
 21
-2.5423554137162219
 31
0.0
  0
LINE
  5
997
  8
0
 10
301.80728276719088
 20
2.1371431151411571
 30
0.0
 11
303.74355736733548
 21
0.2008685149966425
 31
0.0
  0
LINE
  5
998
  8
0
 10
305.74355736733548
 20
-4.093514946223336
 30
0.0
 11
310.36628578066069
 21
-3.814177372579393
 31
0.0
  0
LINE
  5
999
  8
0
 10
308.43001118051609
 20
4.8803670438541067
 30
0.0
 11
310.36628578066069
 21
2.9440924437095921
 31
0.0
  0
LINE
  5
99A
  8
0
 10
310.36628578066052
 20
0.2057866437068583
 30
0.0
 11
305.94324959087248
 21
1.1120108670324951
 31
0.0
  0
LINE
  5
99B
  8
0
 10
305.94324959087248
 20
1.1120108670324951
 30
0.0
 11
308.43001118051609
 21
4.8803670438541644
 31
0.0
  0
LINE
  5
99C
  8
0
 10
310.36628578066069
 20
0.2057866437068299
 30
0.0
 11
310.36628578066069
 21
2.9440924437095921
 31
0.0
  0
ARC
  5
99D
  8
0
 10
278.97227102407771
 20
17.20390886751554
 30
0.0
 40
43.906861771869274
 50
322.6202118172381
 51
335.38464915423748
  0
ARC
  5
99E
  8
0
 10
298.25057794935913
 20
-29.338041171089401
 30
0.0
 40
41.145864355462777
 50
67.489367828559594
 51
80.747373927150306
  0
ARC
  5
99F
  8
0
 10
298.2505779493589
 20
-29.338041171089341
 30
0.0
 40
43.906861771869274
 50
69.615350845762435
 51
82.379788182761772
  0
LINE
  5
9A0
  8
0
 10
301.64261175535671
 20
11.667766469013371
 30
0.0
 11
305.58746736447438
 21
7.7229108598957046
 31
0.0
  0
ARC
  5
9A1
  8
0
 10
298.2505779493589
 20
-29.338041171089341
 30
0.0
 40
43.906861771869274
 50
57.506978669692508
 51
64.999980382438352
  0
ARC
  5
1076
  8
0
 10
399.35385616176831
 20
-29.338041171089369
 30
0.0
 40
43.906861771869274
 50
97.620211817238172
 51
110.38464915423749
  0
LINE
  5
1077
  8
0
 10
391.66118452025438
 20
1.112010867032097
 30
0.0
 11
387.2381483304664
 21
0.2057866437065172
 31
0.0
  0
LINE
  5
1078
  8
0
 10
389.17442293061077
 20
4.8803670438538234
 30
0.0
 11
391.66118452025438
 21
1.112010867032097
 31
0.0
  0
LINE
  5
1079
  8
0
 10
391.86087674379161
 20
-4.09351494622328
 30
0.0
 11
387.23814833046652
 21
-3.8141773725793371
 31
0.0
  0
ARC
  5
107A
  8
0
 10
418.63216308704938
 20
-64.615406173068081
 30
0.0
 40
43.906861771869274
 50
129.3946796277348
 51
138.24939745319449
  0
ARC
  5
107B
  8
0
 10
411.72906198376688
 20
-23.705748652776212
 30
0.0
 40
22.093913196256072
 50
161.58676851014889
 51
198.41323148985111
  0
ARC
  5
107C
  8
0
 10
418.63216308704932
 20
17.203908867515729
 30
0.0
 40
41.145864355462777
 50
220.27121278479089
 51
229.4098686270064
  0
ARC
  5
107D
  8
0
 10
418.63216308704938
 20
17.203908867515619
 30
0.0
 40
43.906861771869274
 50
221.75060254680551
 51
230.6053203722652
  0
LINE
  5
107E
  8
0
 10
387.06724584692529
 20
5.6016170849144942
 30
0.0
 11
392.73810302749979
 21
11.27247426548888
 31
0.0
  0
ARC
  5
107F
  8
0
 10
399.35385616176831
 20
-29.338041171089369
 30
0.0
 40
41.145864355462777
 50
99.252626072849878
 51
112.51063217144051
  0
ARC
  5
1080
  8
0
 10
423.40012280903841
 20
4.4706846788756129
 30
0.0
 40
43.020388349619061
 50
97.996123528421947
 51
172.003876471578
  0
ARC
  5
1081
  8
0
 10
423.40012280903841
 20
4.4706846788756129
 30
0.0
 40
40.020388349619061
 50
100.580598922373
 51
169.41940107762699
  0
LINE
  5
1082
  8
0
 10
387.23814833046652
 20
-47.617283949259381
 30
0.0
 11
391.66118452025461
 21
-48.523508172585032
 31
0.0
  0
LINE
  5
1083
  8
0
 10
391.86087674379161
 20
-43.317982359329193
 30
0.0
 11
387.23814833046652
 21
-43.597319932973129
 31
0.0
  0
LINE
  5
1084
  8
0
 10
392.73810302749962
 20
-58.683971571041411
 30
0.0
 11
387.0672192783469
 21
-53.013087821888583
 31
0.0
  0
ARC
  5
1085
  8
0
 10
399.35385616176808
 20
-18.073456134463129
 30
0.0
 40
41.145864355462777
 50
247.48936782855961
 51
260.74737392715031
  0
LINE
  5
1086
  8
0
 10
391.66118452025461
 20
-48.523508172585032
 30
0.0
 11
389.17442293061112
 21
-52.291864349406687
 31
0.0
  0
ARC
  5
1087
  8
0
 10
399.35385616176831
 20
-18.07345613446315
 30
0.0
 40
43.906861771869274
 50
249.61535084576241
 51
262.37978818276179
  0
ARC
  5
1088
  8
0
 10
423.40012280903841
 20
-51.882181984428151
 30
0.0
 40
40.020388349619061
 50
190.58059892237301
 51
259.41940107762701
  0
ARC
  5
1089
  8
0
 10
423.40012280903841
 20
-51.88218198442825
 30
0.0
 40
43.020388349619061
 50
187.99612352842189
 51
262.00387647157811
  0
ARC
  5
108A
  8
0
 10
418.63216308704938
 20
-64.615406173068081
 30
0.0
 40
41.145864355462777
 50
130.5901313729936
 51
139.72878721520939
  0
ARC
  5
108B
  8
0
 10
411.72906198376688
 20
-23.705748652776212
 30
0.0
 40
40.020388349619061
 50
145.58059892237301
 51
214.41940107762699
  0
ARC
  5
108C
  8
0
 10
411.72906198376688
 20
-23.70574865277629
 30
0.0
 40
43.020388349619061
 50
142.99612352842189
 51
217.003876471578
  0
ARC
  5
108D
  8
0
 10
411.72906198376688
 20
-23.705748652776212
 30
0.0
 40
31.407384460728942
 50
153.00953566755879
 51
206.99046433244129
  0
LINE
  5
108E
  8
0
 10
387.23814833046652
 20
-47.61728394925936
 30
0.0
 11
387.23814833046652
 21
-50.355589749262123
 31
0.0
  0
ARC
  5
108F
  8
0
 10
418.63216308704938
 20
-64.615406173068081
 30
0.0
 40
41.145864355462777
 50
144.25262607284989
 51
157.51063217144051
  0
LINE
  5
1090
  8
0
 10
385.23814833046652
 20
-48.597282359329192
 30
0.0
 11
380.61541991714142
 21
-48.876619932973107
 31
0.0
  0
ARC
  5
1091
  8
0
 10
418.63216308704938
 20
-64.615406173068166
 30
0.0
 40
43.906861771869274
 50
160.00001961756161
 51
167.4930213303075
  0
ARC
  5
1092
  8
0
 10
399.35385616176831
 20
-18.073456134463299
 30
0.0
 40
43.906861771869274
 50
237.50697866969259
 51
244.99998038243839
  0
LINE
  5
1093
  8
0
 10
387.0672192783469
 20
-53.013087821888632
 30
0.0
 11
383.60093517713722
 21
-56.084328937970668
 31
0.0
  0
LINE
  5
1094
  8
0
 10
389.174422930611
 20
-52.291864349406637
 30
0.0
 11
387.23814833046652
 21
-50.355589749262123
 31
0.0
  0
ARC
  5
1095
  8
0
 10
418.63216308704938
 20
-64.615406173068081
 30
0.0
 40
43.906861771869274
 50
142.6202118172381
 51
155.38464915423751
  0
LINE
  5
1096
  8
0
 10
387.23814833046652
 20
-43.597319932973129
 30
0.0
 11
387.23814833046652
 21
-38.018451628955383
 31
0.0
  0
LINE
  5
1097
  8
0
 10
385.23814833046652
 20
-48.597282359329228
 30
0.0
 11
385.23814833046652
 21
-40.577479224280133
 31
0.0
  0
ARC
  5
1098
  8
0
 10
399.35385616176831
 20
-29.338041171089369
 30
0.0
 40
43.906861771869274
 50
115.00001961756161
 51
122.4930213303075
  0
ARC
  5
1099
  8
0
 10
411.72906198376688
 20
-23.705748652776212
 30
0.0
 40
28.366499926105561
 50
155.70151420817871
 51
204.29848579182141
  0
LINE
  5
109A
  8
0
 10
385.23814833046652
 20
-6.834018081272375
 30
0.0
 11
385.23814833046652
 21
1.1858226274207191
 31
0.0
  0
ARC
  5
109B
  8
0
 10
418.63216308704938
 20
17.203908867515619
 30
0.0
 40
43.906861771869274
 50
204.61535084576241
 51
217.37978818276181
  0
ARC
  5
109C
  8
0
 10
418.63216308704932
 20
17.203908867515729
 30
0.0
 40
41.145864355462777
 50
202.48936782855961
 51
215.74737392715031
  0
LINE
  5
109D
  8
0
 10
387.23814833046652
 20
-9.3930456765970973
 30
0.0
 11
387.23814833046652
 21
-3.8141773725793371
 31
0.0
  0
LINE
  5
109E
  8
0
 10
385.23814833046652
 20
1.185822627420662
 30
0.0
 11
380.61541991714148
 21
1.4651602010646341
 31
0.0
  0
ARC
  5
109F
  8
0
 10
418.63216308704938
 20
17.20390886751554
 30
0.0
 40
43.906861771869274
 50
192.5069786696925
 51
199.99998038243831
  0
LINE
  5
10A0
  8
0
 10
389.17442293061089
 20
4.8803670438538234
 30
0.0
 11
387.23814833046652
 21
2.94409244370945
 31
0.0
  0
LINE
  5
10A1
  8
0
 10
387.2381483304664
 20
0.2057866437065172
 30
0.0
 11
387.23814833046652
 21
2.94409244370945
 31
0.0
  0
LINE
  5
10A2
  8
0
 10
387.0672458469254
 20
5.601617084914551
 30
0.0
 11
383.60096174571561
 21
8.6728582009965862
 31
0.0
  0
LINE
  5
10AF
  8
0
 10
511.29223553758908
 20
-33.369920401753319
 30
0.0
 11
511.29223553758908
 21
-43.317982359329278
 31
0.0
  0
LINE
  5
10B0
  8
0
 10
391.86087674379161
 20
-43.317982359329193
 30
0.0
 11
391.86087674379161
 21
-33.369920401753227
 31
0.0
  0
ARC
  5
10B1
  8
0
 10
491.4240502976138
 20
-23.705748652776322
 30
0.0
 40
40.020388349619061
 50
325.58059892237299
 51
34.419401077626972
  0
ARC
  5
10B2
  8
0
 10
491.42405029761392
 20
-23.705748652776379
 30
0.0
 40
43.020388349619061
 50
322.99612352842189
 51
37.003876471578018
  0
LINE
  5
10B3
  8
0
 10
398.4836051571167
 20
-38.03864478568525
 30
0.0
 11
398.4836051571167
 21
-28.74037632078381
 31
0.0
  0
LINE
  5
10B4
  8
0
 10
393.86087674379172
 20
-38.317982359329172
 30
0.0
 11
393.86087674379172
 21
-31.76170734845363
 31
0.0
  0
ARC
  5
10B5
  8
0
 10
491.4240502976138
 20
-23.705748652776322
 30
0.0
 40
31.407384460728942
 50
333.00953566755879
 51
26.990464332441189
  0
ARC
  5
10B6
  8
0
 10
484.52094919433142
 20
-64.615406173068251
 30
0.0
 40
41.145864355462777
 50
40.271212784790862
 51
49.409868627006432
  0
LINE
  5
10B7
  8
0
 10
504.66950712426399
 20
-28.74037632078393
 30
0.0
 11
504.66950712426399
 21
-38.038644785685342
 31
0.0
  0
LINE
  5
10B8
  8
0
 10
509.29223553758908
 20
-31.76170734845374
 30
0.0
 11
509.29223553758908
 21
-38.31798235932925
 31
0.0
  0
LINE
  5
10BB
  8
0
 10
466.1887898472433
 20
-81.421428049674958
 30
0.0
 11
459.63251483636782
 21
-81.421428049674958
 31
0.0
  0
LINE
  5
10BC
  8
0
 10
471.1887898472433
 20
-83.421428049674972
 30
0.0
 11
461.24072788966731
 21
-83.421428049675029
 31
0.0
  0
ARC
  5
10BD
  8
0
 10
492.48621366098217
 20
-56.650141706417202
 30
0.0
 40
41.145864355462777
 50
220.5901313729936
 51
229.72878721520939
  0
LINE
  5
10BE
  8
0
 10
465.90945227359941
 20
-76.79869963634988
 30
0.0
 11
456.611183808698
 21
-76.79869963634988
 31
0.0
  0
ARC
  5
10BF
  8
0
 10
451.5765561406904
 20
-63.553242809699661
 30
0.0
 40
31.407384460728942
 50
243.00953566755891
 51
296.99046433244121
  0
ARC
  5
10C0
  8
0
 10
451.5765561406904
 20
-63.553242809699661
 30
0.0
 40
40.020388349619061
 50
235.58059892237301
 51
304.41940107762701
  0
ARC
  5
10C1
  8
0
 10
451.5765561406904
 20
-63.553242809699782
 30
0.0
 40
43.020388349619061
 50
232.996123528422
 51
307.00387647157811
  0
LINE
  5
10C2
  8
0
 10
431.96432243413739
 20
-83.421428049674986
 30
0.0
 11
431.6849848604935
 21
-88.044156463000093
 31
0.0
  0
ARC
  5
10C3
  8
0
 10
410.6668986203984
 20
-56.650141706417287
 30
0.0
 40
41.145864355462777
 50
310.27121278479092
 51
319.4098686270064
  0
ARC
  5
10C4
  8
0
 10
457.20884865900342
 20
-75.928448631698373
 30
0.0
 40
43.906861771869274
 50
187.6202118172381
 51
200.38464915423759
  0
ARC
  5
10C5
  8
0
 10
457.20884865900342
 20
-75.928448631698373
 30
0.0
 40
41.145864355462777
 50
189.25262607284981
 51
202.51063217144039
  0
LINE
  5
10C6
  8
0
 10
422.26919040299953
 20
-88.215058946541333
 30
0.0
 11
416.5983332224252
 21
-82.544201765966946
 31
0.0
  0
ARC
  5
10C7
  8
0
 10
423.40012280903841
 20
-51.882181984428151
 30
0.0
 40
31.407384460728942
 50
198.00953566755879
 51
251.99046433244121
  0
LINE
  5
10C8
  8
0
 10
426.75879662088198
 20
-83.621120273212213
 30
0.0
 11
427.66502084420762
 21
-88.04415646300022
 31
0.0
  0
LINE
  5
10C9
  8
0
 10
427.66502084420762
 20
-88.044156463000206
 30
0.0
 11
424.92671504420463
 21
-88.044156463000164
 31
0.0
  0
LINE
  5
10CA
  8
0
 10
434.70482556918648
 20
-90.044156463000078
 30
0.0
 11
426.68498486049339
 21
-90.044156463000078
 31
0.0
  0
ARC
  5
10CB
  8
0
 10
410.6668986203984
 20
-56.650141706417287
 30
0.0
 40
41.145864355462777
 50
292.48936782855969
 51
305.74737392715042
  0
ARC
  5
10CC
  8
0
 10
457.20884865900342
 20
-75.928448631698501
 30
0.0
 40
43.906861771869274
 50
205.00001961756161
 51
212.4930213303075
  0
ARC
  5
10CD
  8
0
 10
410.66689862039863
 20
-56.650141706417322
 30
0.0
 40
43.906861771869274
 50
282.5069786696925
 51
289.99998038243842
  0
LINE
  5
10CE
  8
0
 10
422.26919040299953
 20
-88.215058946541276
 30
0.0
 11
419.19794928691738
 21
-91.681343047751014
 31
0.0
  0
LINE
  5
10CF
  8
0
 10
426.6849848604935
 20
-90.044156463000078
 30
0.0
 11
426.4056472868495
 21
-94.666884876325184
 31
0.0
  0
LINE
  5
10D0
  8
0
 10
422.9904404440602
 20
-86.107881862855763
 30
0.0
 11
424.92671504420463
 21
-88.044156463000164
 31
0.0
  0
LINE
  5
10D1
  8
0
 10
422.9904404440602
 20
-86.107881862855805
 30
0.0
 11
426.75879662088198
 21
-83.621120273212213
 31
0.0
  0
ARC
  5
10D2
  8
0
 10
451.5765561406904
 20
-63.553242809699661
 30
0.0
 40
22.093913196256072
 50
251.58676851014889
 51
288.41323148985111
  0
ARC
  5
10D3
  8
0
 10
451.5765561406904
 20
-63.553242809699661
 30
0.0
 40
28.366499926105561
 50
245.70151420817871
 51
294.29848579182141
  0
ARC
  5
10D4
  8
0
 10
410.66689862039863
 20
-56.650141706417202
 30
0.0
 40
43.906861771869274
 50
294.61535084576252
 51
307.37978818276179
  0
LINE
  5
10D5
  8
0
 10
437.26385316451132
 20
-88.044156463000093
 30
0.0
 11
431.6849848604935
 21
-88.044156463000093
 31
0.0
  0
ARC
  5
10D6
  8
0
 10
410.66689862039863
 20
-56.650141706417202
 30
0.0
 40
43.906861771869274
 50
311.75060254680551
 51
320.60532037226523
  0
ARC
  5
10D7
  8
0
 10
492.48621366098217
 20
-56.650141706417202
 30
0.0
 40
43.906861771869274
 50
219.3946796277348
 51
228.24939745319449
  0
LINE
  5
10DA
  8
0
 10
425.73366437277309
 20
-79.485153449530614
 30
0.0
 11
427.66993897291741
 21
-81.421428049675015
 31
0.0
  0
LINE
  5
10DB
  8
0
 10
425.73366437277309
 20
-79.485153449530642
 30
0.0
 11
429.50202054959482
 21
-76.998391859887064
 31
0.0
  0
LINE
  5
10DC
  8
0
 10
425.11897928914527
 20
-62.966990806572952
 30
0.0
 11
420.16706939982947
 21
-58.015080917257308
 31
0.0
  0
ARC
  5
10DD
  8
0
 10
457.20884865900342
 20
-75.928448631698373
 30
0.0
 40
43.906861771869274
 50
156.2927437202022
 51
170.9203435453708
  0
ARC
  5
10DE
  8
0
 10
399.35385616176831
 20
-18.07345613446315
 30
0.0
 40
43.906861771869274
 50
279.07965645462917
 51
293.70725627979778
  0
ARC
  5
10DF
  8
0
 10
457.20884865900342
 20
-75.928448631698373
 30
0.0
 40
41.145864355462777
 50
154.1916353641561
 51
161.17271673329179
  0
ARC
  5
10E0
  8
0
 10
423.40012280903841
 20
-51.882181984428151
 30
0.0
 40
19.600268219504841
 50
209.1524531425751
 51
240.84754685742499
  0
ARC
  5
10E1
  8
0
 10
423.40012280903841
 20
-51.882181984428151
 30
0.0
 40
22.093913196256072
 50
206.586768510149
 51
243.4132314898512
  0
ARC
  5
10E2
  8
0
 10
423.40012280903841
 20
-51.882181984428151
 30
0.0
 40
28.366499926105561
 50
200.70151420817871
 51
249.29848579182141
  0
ARC
  5
10E3
  8
0
 10
399.35385616176831
 20
-18.07345613446315
 30
0.0
 40
43.906861771869274
 50
266.75060254680551
 51
275.60532037226523
  0
LINE
  5
10E4
  8
0
 10
424.16905851662278
 20
-71.38302237608859
 30
0.0
 11
421.09781740054069
 21
-74.849306477298299
 31
0.0
  0
ARC
  5
10E5
  8
0
 10
457.20884865900342
 20
-75.928448631698373
 30
0.0
 40
43.906861771869274
 50
174.3946796277348
 51
183.24939745319449
  0
LINE
  5
10E6
  8
0
 10
421.09781740054069
 20
-74.849306477298242
 30
0.0
 11
416.46183088102669
 21
-70.213319957784265
 31
0.0
  0
LINE
  5
10E7
  8
0
 10
423.21913774410041
 20
-79.799053945604115
 30
0.0
 11
416.18479567423441
 21
-72.764711875738243
 31
0.0
  0
LINE
  5
10E8
  8
0
 10
420.1478966280182
 20
-83.265338046813852
 30
0.0
 11
416.20304101890059
 21
-79.320482437696214
 31
0.0
  0
ARC
  5
10E9
  8
0
 10
457.20884865900342
 20
-75.928448631698373
 30
0.0
 40
41.145864355462777
 50
175.59013137299351
 51
184.72878721520939
  0
LINE
  5
10EA
  8
0
 10
423.21913774410041
 20
-79.799053945604143
 30
0.0
 11
420.1478966280182
 21
-83.265338046813852
 31
0.0
  0
LINE
  5
10EB
  8
0
 10
424.16905851662278
 20
-71.383022376088562
 30
0.0
 11
417.59418983179791
 21
-64.808153691263712
 31
0.0
  0
ARC
  5
10EC
  8
0
 10
457.20884865900342
 20
-75.928448631698373
 30
0.0
 40
41.145864355462777
 50
164.31995206026139
 51
172.0158458383211
  0
LINE
  5
10ED
  8
0
 10
425.11897928914527
 20
-62.966990806573008
 30
0.0
 11
422.04773817306312
 21
-66.433274907782746
 31
0.0
  0
LINE
  5
10EE
  8
0
 10
422.04773817306312
 20
-66.433274907782746
 30
0.0
 11
418.26446516293049
 21
-62.650001897650142
 31
0.0
  0
LINE
  5
10EF
  8
0
 10
407.10633357044179
 20
-39.387612163120622
 30
0.0
 11
411.52936976022983
 21
-40.293836386446259
 31
0.0
  0
LINE
  5
10F0
  8
0
 10
411.52936976022983
 20
-40.293836386446259
 30
0.0
 11
409.04260817058628
 21
-44.062192563267921
 31
0.0
  0
ARC
  5
10F1
  8
0
 10
399.35385616176808
 20
-18.073456134463129
 30
0.0
 40
41.145864355462777
 50
277.98415416167899
 51
285.68004793973859
  0
LINE
  5
10F2
  8
0
 10
410.47415110220271
 20
-57.688114961668589
 30
0.0
 11
403.899282417378
 21
-51.113246276843768
 31
0.0
  0
LINE
  5
10F3
  8
0
 10
412.3153139868935
 20
-50.163325504321328
 30
0.0
 11
408.84902988568388
 21
-53.23456662040342
 31
0.0
  0
LINE
  5
10F4
  8
0
 10
412.63230289581628
 20
-57.017839630535939
 30
0.0
 11
408.84902988568388
 21
-53.23456662040342
 31
0.0
  0
LINE
  5
10F5
  8
0
 10
398.2839129335797
 20
-45.780284243872067
 30
0.0
 11
395.79715134393609
 21
-49.548640420693737
 31
0.0
  0
LINE
  5
10F6
  8
0
 10
395.79715134393609
 20
-49.548640420693687
 30
0.0
 11
393.86087674379172
 21
-47.612365820549172
 31
0.0
  0
ARC
  5
10F7
  8
0
 10
399.35385616176808
 20
-18.073456134463129
 30
0.0
 40
41.145864355462777
 50
265.27121278479092
 51
274.4098686270064
  0
LINE
  5
10F8
  8
0
 10
402.51759291772822
 20
-59.097509119232079
 30
0.0
 11
395.48325084786251
 21
-52.0631670493662
 31
0.0
  0
LINE
  5
10F9
  8
0
 10
395.48325084786251
 20
-52.0631670493662
 30
0.0
 11
392.01696674665283
 21
-55.134408165448228
 31
0.0
  0
LINE
  5
10FA
  8
0
 10
395.96182235577049
 20
-59.079263774565902
 30
0.0
 11
392.01696674665283
 21
-55.134408165448228
 31
0.0
  0
LINE
  5
10FB
  8
0
 10
405.06898483568227
 20
-58.820473912439809
 30
0.0
 11
400.43299831616821
 21
-54.184487392925853
 31
0.0
  0
LINE
  5
10FC
  8
0
 10
403.899282417378
 20
-51.113246276843768
 30
0.0
 11
400.43299831616821
 21
-54.184487392925803
 31
0.0
  0
LINE
  5
10FD
  8
0
 10
393.86087674379172
 20
-44.87406002054643
 30
0.0
 11
398.2839129335797
 21
-45.780284243872067
 31
0.0
  0
LINE
  5
10FE
  8
0
 10
393.86087674379172
 20
-44.874060020546402
 30
0.0
 11
393.86087674379172
 21
-47.612365820549172
 31
0.0
  0
LINE
  5
10FF
  8
0
 10
398.4836051571167
 20
-38.03864478568525
 30
0.0
 11
393.86087674379161
 21
-38.317982359329193
 31
0.0
  0
LINE
  5
1100
  8
0
 10
409.04260817058622
 20
-44.062192563267871
 30
0.0
 11
407.10633357044179
 21
-42.125917963123349
 31
0.0
  0
LINE
  5
1101
  8
0
 10
400.48360515711659
 20
-42.130836091833537
 30
0.0
 11
400.48360515711659
 21
-44.869141891836307
 31
0.0
  0
LINE
  5
1102
  8
0
 10
400.48360515711659
 20
-42.130836091833572
 30
0.0
 11
404.90664134690468
 21
-43.037060315159209
 31
0.0
  0
LINE
  5
1103
  8
0
 10
404.90664134690468
 20
-43.037060315159209
 30
0.0
 11
402.41987975726119
 21
-46.805416491980878
 31
0.0
  0
LINE
  5
1104
  8
0
 10
402.41987975726113
 20
-46.805416491980822
 30
0.0
 11
400.48360515711659
 21
-44.869141891836307
 31
0.0
  0
LINE
  5
1105
  8
0
 10
407.10633357044179
 20
-39.387612163120593
 30
0.0
 11
407.10633357044179
 21
-42.125917963123349
 31
0.0
  0
LINE
  5
1109
  8
0
 10
417.26722387620919
 20
-55.115235393636972
 30
0.0
 11
412.3153139868935
 21
-50.163325504321392
 31
0.0
  0
ARC
  5
110A
  8
0
 10
399.35385616176808
 20
-18.073456134463129
 30
0.0
 40
41.145864355462777
 50
288.82728326670821
 51
295.80836463584399
  0
LINE
  5
1114
  8
0
 10
449.52605570654492
 20
-70.175971223024845
 30
0.0
 11
442.52299758142527
 21
-70.175971223024902
 31
0.0
  0
ARC
  5
1115
  8
0
 10
410.6668986203984
 20
-56.650141706417287
 30
0.0
 40
41.145864355462777
 50
322.98415416167899
 51
330.68004793973859
  0
LINE
  5
1116
  8
0
 10
447.59401600887082
 20
-74.798699636349909
 30
0.0
 11
442.24366000778139
 21
-74.798699636349909
 31
0.0
  0
LINE
  5
1117
  8
0
 10
446.54192847268268
 20
-76.798699636349937
 30
0.0
 11
437.24366000778127
 21
-76.798699636349937
 31
0.0
  0
LINE
  5
1118
  8
0
 10
442.52299758142527
 20
-70.175971223024817
 30
0.0
 11
442.24366000778139
 21
-74.798699636349909
 31
0.0
  0
LINE
  5
1119
  8
0
 10
428.47688830148599
 20
-72.862425036205579
 30
0.0
 11
432.24524447830782
 21
-70.375663446562029
 31
0.0
  0
LINE
  5
111A
  8
0
 10
432.24524447830782
 20
-70.375663446562029
 30
0.0
 11
433.15146870163329
 21
-74.798699636350008
 31
0.0
  0
LINE
  5
111B
  8
0
 10
441.91238439171332
 20
-83.421428049675058
 30
0.0
 11
431.96432243413739
 21
-83.421428049675029
 31
0.0
  0
LINE
  5
111C
  8
0
 10
429.50202054959482
 20
-76.998391859887064
 30
0.0
 11
430.40824477292051
 21
-81.421428049675072
 31
0.0
  0
LINE
  5
111D
  8
0
 10
430.4082447729204
 20
-81.421428049675072
 30
0.0
 11
427.66993897291741
 21
-81.421428049675015
 31
0.0
  0
LINE
  5
111E
  8
0
 10
433.15146870163329
 20
-74.798699636350008
 30
0.0
 11
430.41316290163041
 21
-74.79869963634998
 31
0.0
  0
LINE
  5
111F
  8
0
 10
428.47688830148599
 20
-72.862425036205579
 30
0.0
 11
430.41316290163041
 21
-74.79869963634998
 31
0.0
  0
LINE
  5
1120
  8
0
 10
437.24366000778127
 20
-76.798699636349909
 30
0.0
 11
436.96432243413739
 21
-81.421428049675001
 31
0.0
  0
LINE
  5
1121
  8
0
 10
443.52059744501298
 20
-81.421428049675001
 30
0.0
 11
436.96432243413739
 21
-81.421428049675029
 31
0.0
  0
LINE
  5
1123
  8
0
 10
431.22011223019888
 20
-66.23969662288043
 30
0.0
 11
434.9884684070206
 21
-63.752935033236881
 31
0.0
  0
LINE
  5
1124
  8
0
 10
434.9884684070206
 20
-63.752935033236881
 30
0.0
 11
435.89469263034619
 21
-68.175971223024888
 31
0.0
  0
LINE
  5
1125
  8
0
 10
431.22011223019882
 20
-66.23969662288043
 30
0.0
 11
433.15638683034319
 21
-68.175971223024831
 31
0.0
  0
LINE
  5
1126
  8
0
 10
435.89469263034613
 20
-68.17597122302486
 30
0.0
 11
433.15638683034319
 21
-68.175971223024831
 31
0.0
  0
LINE
  5
1127
  8
0
 10
460.63011469995541
 20
-70.175971223024817
 30
0.0
 11
460.9094522735993
 21
-74.798699636349909
 31
0.0
  0
ARC
  5
1128
  8
0
 10
410.6668986203984
 20
-56.650141706417287
 30
0.0
 40
41.145864355462777
 50
333.82728326670832
 51
340.80836463584387
  0
ARC
  5
1129
  8
0
 10
492.48621366098217
 20
-56.650141706417202
 30
0.0
 40
41.145864355462777
 50
199.1916353641561
 51
206.17271673329179
  0
ARC
  5
112A
  8
0
 10
492.48621366098217
 20
-56.650141706417202
 30
0.0
 40
43.906861771869274
 50
201.2927437202022
 51
215.9203435453708
  0
ARC
  5
112B
  8
0
 10
451.5765561406904
 20
-63.553242809699661
 30
0.0
 40
19.600268219504841
 50
254.1524531425751
 51
285.84754685742502
  0
ARC
  5
112C
  8
0
 10
410.66689862039863
 20
-56.650141706417202
 30
0.0
 40
43.906861771869274
 50
324.07965645462917
 51
338.70725627979778
  0
ARC
  5
112D
  8
0
 10
492.48621366098217
 20
-56.650141706417202
 30
0.0
 40
41.145864355462777
 50
209.31995206026139
 51
217.01584583832121
  0
LINE
  5
112E
  8
0
 10
460.9094522735993
 20
-74.79869963634988
 30
0.0
 11
455.55909627250981
 21
-74.79869963634988
 31
0.0
  0
LINE
  5
1131
  8
0
 10
460.63011469995541
 20
-70.17597122302476
 30
0.0
 11
453.62705657483571
 21
-70.175971223024789
 31
0.0
  0
ARC
  5
1160
  8
0
 10
445.94426362237732
 20
-75.928448631698359
 30
0.0
 40
43.906861771869274
 50
339.61535084576252
 51
352.37978818276179
  0
ARC
  5
1161
  8
0
 10
445.94426362237732
 20
-75.928448631698501
 30
0.0
 40
41.145864355462777
 50
337.48936782855958
 51
350.74737392715031
  0
LINE
  5
1162
  8
0
 10
486.55477905895549
 20
-82.544201765966989
 30
0.0
 11
480.8838953098026
 21
-88.215085515119824
 31
0.0
  0
LINE
  5
1163
  8
0
 10
471.1887898472433
 20
-83.421428049674986
 30
0.0
 11
471.4681274208873
 21
-88.044156463000093
 31
0.0
  0
ARC
  5
1164
  8
0
 10
479.75298947234228
 20
-51.882181984428151
 30
0.0
 40
40.020388349619061
 50
280.58059892237299
 51
349.41940107762701
  0
ARC
  5
1165
  8
0
 10
479.75298947234239
 20
-51.882181984428172
 30
0.0
 40
43.020388349619061
 50
277.99612352842189
 51
352.003876471578
  0
ARC
  5
1166
  8
0
 10
479.75298947234228
 20
-51.882181984428151
 30
0.0
 40
31.407384460728942
 50
288.00953566755879
 51
341.99046433244121
  0
LINE
  5
1167
  8
0
 10
480.8838953098026
 20
-88.215085515119767
 30
0.0
 11
483.9551364258848
 21
-91.681369616329505
 31
0.0
  0
ARC
  5
1168
  8
0
 10
492.48621366098217
 20
-56.650141706417322
 30
0.0
 40
43.906861771869274
 50
250.00001961756169
 51
257.4930213303075
  0
ARC
  5
1169
  8
0
 10
492.48621366098217
 20
-56.650141706417202
 30
0.0
 40
43.906861771869274
 50
232.6202118172381
 51
245.38464915423759
  0
ARC
  5
116A
  8
0
 10
492.48621366098217
 20
-56.650141706417202
 30
0.0
 40
41.145864355462777
 50
234.25262607284989
 51
247.51063217144051
  0
LINE
  5
116B
  8
0
 10
476.46808984724328
 20
-90.044156463000121
 30
0.0
 11
468.44828671219432
 21
-90.044156463000078
 31
0.0
  0
LINE
  5
116C
  8
0
 10
471.4681274208873
 20
-88.044156463000093
 30
0.0
 11
465.88925911686948
 21
-88.044156463000093
 31
0.0
  0
LINE
  5
116D
  8
0
 10
476.46808984724328
 20
-90.044156463000078
 30
0.0
 11
476.74742742088728
 21
-94.666884876325184
 31
0.0
  0
LINE
  5
116E
  8
0
 10
475.48809143717352
 20
-88.044156463000093
 30
0.0
 11
478.22639723717629
 21
-88.044156463000093
 31
0.0
  0
LINE
  5
116F
  8
0
 10
476.3943156604991
 20
-83.621120273212014
 30
0.0
 11
480.16267183732077
 21
-86.107881862855578
 31
0.0
  0
LINE
  5
1170
  8
0
 10
475.48809143717352
 20
-88.044156463000064
 30
0.0
 11
476.3943156604991
 21
-83.621120273212014
 31
0.0
  0
LINE
  5
1171
  8
0
 10
480.16267183732072
 20
-86.107881862855606
 30
0.0
 11
478.22639723717629
 21
-88.044156463000093
 31
0.0
  0
ARC
  5
1172
  8
0
 10
445.94426362237738
 20
-75.928448631698416
 30
0.0
 40
43.906861771869274
 50
327.50697866969261
 51
334.99998038243842
  0
LINE
  5
1173
  8
0
 10
498.24647093447612
 20
-43.03706031515884
 30
0.0
 11
502.6695071242641
 21
-42.13083609183326
 31
0.0
  0
LINE
  5
1174
  8
0
 10
500.73323252411961
 20
-46.805416491980623
 30
0.0
 11
502.6695071242641
 21
-44.869141891836243
 31
0.0
  0
LINE
  5
1175
  8
0
 10
499.25382986400268
 20
-51.113246276843768
 30
0.0
 11
502.72011396521231
 21
-54.184487392925853
 31
0.0
  0
LINE
  5
1176
  8
0
 10
507.66986143351818
 20
-52.0631670493662
 30
0.0
 11
500.63551936365229
 21
-59.097509119232143
 31
0.0
  0
ARC
  5
1177
  8
0
 10
503.79925611961261
 20
-18.073456134463129
 30
0.0
 40
41.145864355462777
 50
265.5901313729936
 51
274.72878721520942
  0
LINE
  5
1178
  8
0
 10
502.72011396521231
 20
-54.184487392925853
 30
0.0
 11
498.08412744569841
 21
-58.820473912439859
 31
0.0
  0
ARC
  5
1179
  8
0
 10
503.79925611961261
 20
-18.073456134463129
 30
0.0
 40
43.906861771869274
 50
264.39467962773477
 51
273.2493974531946
  0
ARC
  5
117A
  8
0
 10
479.75298947234228
 20
-51.882181984428151
 30
0.0
 40
28.366499926105561
 50
290.70151420817871
 51
339.29848579182141
  0
ARC
  5
117D
  8
0
 10
445.94426362237732
 20
-75.928448631698359
 30
0.0
 40
43.906861771869274
 50
9.0796564546292302
 51
23.707256279797789
  0
ARC
  5
117E
  8
0
 10
445.94426362237732
 20
-75.928448631698501
 30
0.0
 40
41.145864355462777
 50
18.827283266708282
 51
25.808364635843962
  0
LINE
  5
117F
  8
0
 10
482.98604288155099
 20
-58.015080917257421
 30
0.0
 11
478.03413299223553
 21
-62.966990806573158
 31
0.0
  0
ARC
  5
1180
  8
0
 10
503.79925611961261
 20
-18.073456134463129
 30
0.0
 40
43.906861771869274
 50
246.2927437202022
 51
260.92034354537071
  0
LINE
  5
1181
  8
0
 10
484.88864711845002
 20
-62.65000189765027
 30
0.0
 11
481.10537410831751
 21
-66.433274907782788
 31
0.0
  0
LINE
  5
1182
  8
0
 10
485.55892244958272
 20
-64.80815369126384
 30
0.0
 11
478.98405376475779
 21
-71.383022376088661
 31
0.0
  0
LINE
  5
1183
  8
0
 10
479.93397453728028
 20
-79.799053945604214
 30
0.0
 11
483.00521565336231
 21
-83.265338046813937
 31
0.0
  0
LINE
  5
1184
  8
0
 10
486.96831660714622
 20
-72.764711875738314
 30
0.0
 11
479.93397453728028
 21
-79.799053945604214
 31
0.0
  0
LINE
  5
1185
  8
0
 10
486.69128140035389
 20
-70.213319957784392
 30
0.0
 11
482.05529488083999
 21
-74.849306477298384
 31
0.0
  0
LINE
  5
1186
  8
0
 10
478.98405376475779
 20
-71.383022376088604
 30
0.0
 11
482.05529488083988
 21
-74.849306477298384
 31
0.0
  0
LINE
  5
1187
  8
0
 10
470.00164357974768
 20
-74.79869963634988
 30
0.0
 11
470.90786780307332
 21
-70.375663446561845
 31
0.0
  0
LINE
  5
1188
  8
0
 10
470.90786780307332
 20
-70.375663446561845
 30
0.0
 11
474.67622397989498
 21
-72.862425036205394
 31
0.0
  0
LINE
  5
1189
  8
0
 10
474.67622397989493
 20
-72.862425036205423
 30
0.0
 11
472.73994937975039
 21
-74.798699636349909
 31
0.0
  0
LINE
  5
118A
  8
0
 10
472.74486750846057
 20
-81.421428049674944
 30
0.0
 11
473.65109173178621
 21
-76.998391859886894
 31
0.0
  0
LINE
  5
118B
  8
0
 10
472.74486750846052
 20
-81.421428049674958
 30
0.0
 11
475.48317330846328
 21
-81.421428049674958
 31
0.0
  0
LINE
  5
118C
  8
0
 10
465.90945227359941
 20
-76.798699636349909
 30
0.0
 11
466.1887898472433
 21
-81.421428049675001
 31
0.0
  0
LINE
  5
118D
  8
0
 10
470.00164357974762
 20
-74.798699636349909
 30
0.0
 11
472.73994937975039
 21
-74.798699636349909
 31
0.0
  0
LINE
  5
118E
  8
0
 10
473.65109173178621
 20
-76.998391859886894
 30
0.0
 11
477.41944790860788
 21
-79.485153449530458
 31
0.0
  0
LINE
  5
118F
  8
0
 10
477.41944790860771
 20
-79.485153449530486
 30
0.0
 11
475.48317330846328
 21
-81.421428049674958
 31
0.0
  0
LINE
  5
1190
  8
0
 10
468.16464387436042
 20
-63.752935033236717
 30
0.0
 11
471.93300005118209
 21
-66.239696622880274
 31
0.0
  0
LINE
  5
1191
  8
0
 10
467.25841965103479
 20
-68.17597122302476
 30
0.0
 11
468.16464387436042
 21
-63.752935033236717
 31
0.0
  0
LINE
  5
1192
  8
0
 10
467.25841965103473
 20
-68.175971223024789
 30
0.0
 11
469.99672545103749
 21
-68.175971223024789
 31
0.0
  0
LINE
  5
1193
  8
0
 10
471.93300005118198
 20
-66.239696622880302
 30
0.0
 11
469.99672545103749
 21
-68.175971223024789
 31
0.0
  0
LINE
  5
1195
  8
0
 10
478.03413299223541
 20
-62.966990806573051
 30
0.0
 11
481.10537410831751
 21
-66.433274907782788
 31
0.0
  0
ARC
  5
1196
  8
0
 10
445.94426362237732
 20
-75.928448631698359
 30
0.0
 40
43.906861771869274
 50
356.75060254680551
 51
5.6053203722651981
  0
ARC
  5
1197
  8
0
 10
479.75298947234228
 20
-51.882181984428151
 30
0.0
 40
22.093913196256072
 50
296.58676851014889
 51
333.41323148985123
  0
ARC
  5
1198
  8
0
 10
445.94426362237732
 20
-75.928448631698501
 30
0.0
 40
41.145864355462777
 50
355.27121278479092
 51
4.4098686270064507
  0
LINE
  5
1199
  8
0
 10
486.95007126247998
 20
-79.320482437696285
 30
0.0
 11
483.00521565336231
 21
-83.265338046813937
 31
0.0
  0
ARC
  5
119A
  8
0
 10
479.75298947234228
 20
-51.882181984428151
 30
0.0
 40
19.600268219504841
 50
299.1524531425751
 51
330.84754685742502
  0
ARC
  5
119B
  8
0
 10
445.94426362237732
 20
-75.928448631698501
 30
0.0
 40
41.145864355462777
 50
7.9841541616789931
 51
15.680047939738619
  0
LINE
  5
11AE
  8
0
 10
494.30408239569681
 20
-53.23456662040342
 30
0.0
 11
490.52080938556418
 21
-57.017839630536002
 31
0.0
  0
LINE
  5
11AF
  8
0
 10
490.83779829448707
 20
-50.163325504321328
 30
0.0
 11
494.30408239569681
 21
-53.23456662040342
 31
0.0
  0
LINE
  5
11B0
  8
0
 10
490.83779829448702
 20
-50.163325504321328
 30
0.0
 11
485.88588840517139
 21
-55.115235393637072
 31
0.0
  0
ARC
  5
11B1
  8
0
 10
503.79925611961261
 20
-18.073456134463129
 30
0.0
 40
41.145864355462777
 50
244.1916353641561
 51
251.17271673329179
  0
LINE
  5
11B2
  8
0
 10
499.25382986400268
 20
-51.113246276843768
 30
0.0
 11
492.6789611791778
 21
-57.688114961668653
 31
0.0
  0
ARC
  5
11B3
  8
0
 10
503.79925611961261
 20
-18.073456134463129
 30
0.0
 40
41.145864355462777
 50
254.3199520602613
 51
262.01584583832118
  0
LINE
  5
11B4
  8
0
 10
494.11050411079441
 20
-44.062192563267729
 30
0.0
 11
491.62374252115097
 21
-40.293836386446003
 31
0.0
  0
LINE
  5
11B5
  8
0
 10
491.62374252115097
 20
-40.293836386446003
 30
0.0
 11
496.0467787109389
 21
-39.387612163120373
 31
0.0
  0
LINE
  5
11B8
  8
0
 10
494.11050411079441
 20
-44.062192563267729
 30
0.0
 11
496.0467787109389
 21
-42.1259179631233
 31
0.0
  0
LINE
  5
11B9
  8
0
 10
500.73323252411961
 20
-46.805416491980559
 30
0.0
 11
498.24647093447612
 21
-43.03706031515884
 31
0.0
  0
LINE
  5
11BA
  8
0
 10
496.0467787109389
 20
-39.387612163120423
 30
0.0
 11
496.0467787109389
 21
-42.1259179631233
 31
0.0
  0
ARC
  5
11BB
  8
0
 10
503.79925611961261
 20
-18.073456134463129
 30
0.0
 40
43.906861771869274
 50
277.62021181723821
 51
290.38464915423748
  0
LINE
  5
11BC
  8
0
 10
516.08586643445528
 20
-53.01311439046713
 30
0.0
 11
519.55215053566508
 21
-56.084355506549173
 31
0.0
  0
ARC
  5
11BD
  8
0
 10
484.52094919433142
 20
-64.615406173068251
 30
0.0
 40
41.145864355462777
 50
22.489367828559612
 51
35.747373927150313
  0
LINE
  5
11BE
  8
0
 10
517.91496395091406
 20
-48.597319932973193
 30
0.0
 11
522.53769236423932
 21
-48.876657506617157
 31
0.0
  0
ARC
  5
11BF
  8
0
 10
503.79925611961261
 20
-18.073456134463129
 30
0.0
 40
41.145864355462777
 50
279.25262607284992
 51
292.51063217144048
  0
LINE
  5
11C0
  8
0
 10
515.91496395091417
 20
-47.617283949259097
 30
0.0
 11
515.91496395091417
 21
-50.35558974926203
 31
0.0
  0
LINE
  5
11C1
  8
0
 10
507.35596093744471
 20
-49.548640420693523
 30
0.0
 11
504.86919934780121
 21
-45.78028424387179
 31
0.0
  0
LINE
  5
11C2
  8
0
 10
507.35596093744471
 20
-49.548640420693523
 30
0.0
 11
509.29223553758908
 21
-47.61236582054908
 31
0.0
  0
LINE
  5
11C3
  8
0
 10
513.97868935076986
 20
-52.291864349406353
 30
0.0
 11
511.49192776112631
 21
-48.523508172584677
 31
0.0
  0
LINE
  5
11C4
  8
0
 10
511.13614553472797
 20
-55.134408165448292
 30
0.0
 11
507.19128992561031
 21
-59.079263774565959
 31
0.0
  0
LINE
  5
11C5
  8
0
 10
507.66986143351818
 20
-52.06316704936625
 30
0.0
 11
511.13614553472797
 21
-55.134408165448292
 31
0.0
  0
LINE
  5
11C6
  8
0
 10
516.08586643445528
 20
-53.013114390467081
 30
0.0
 11
510.41500925388112
 21
-58.683971571041468
 31
0.0
  0
LINE
  5
11C7
  8
0
 10
513.97868935076986
 20
-52.29186434940641
 30
0.0
 11
515.91496395091417
 21
-50.35558974926203
 31
0.0
  0
LINE
  5
11C8
  8
0
 10
502.6695071242641
 20
-42.130836091833309
 30
0.0
 11
502.6695071242641
 21
-44.869141891836243
 31
0.0
  0
LINE
  5
11C9
  8
0
 10
504.86919934780121
 20
-45.78028424387179
 30
0.0
 11
509.29223553758908
 21
-44.87406002054621
 31
0.0
  0
LINE
  5
11CA
  8
0
 10
509.29223553758908
 20
-44.87406002054621
 30
0.0
 11
509.29223553758908
 21
-47.61236582054908
 31
0.0
  0
LINE
  5
11CB
  8
0
 10
504.66950712426387
 20
-38.038644785685307
 30
0.0
 11
509.29223553758908
 21
-38.31798235932925
 31
0.0
  0
LINE
  5
11CC
  8
0
 10
515.91496395091406
 20
-38.018451628955432
 30
0.0
 11
515.91496395091406
 21
-43.597319932973193
 31
0.0
  0
LINE
  5
11CD
  8
0
 10
517.91496395091406
 20
-40.577479224280147
 30
0.0
 11
517.91496395091406
 21
-48.597319932973249
 31
0.0
  0
LINE
  5
11CE
  8
0
 10
511.29223553758908
 20
-43.317982359329243
 30
0.0
 11
515.91496395091406
 21
-43.597319932973193
 31
0.0
  0
LINE
  5
11CF
  8
0
 10
511.49192776112631
 20
-48.523508172584677
 30
0.0
 11
515.91496395091417
 21
-47.617283949259047
 31
0.0
  0
ARC
  5
11D0
  8
0
 10
484.52094919433142
 20
-64.615406173068195
 30
0.0
 40
43.906861771869274
 50
12.50697866969251
 51
19.999980382438348
  0
ARC
  5
11D1
  8
0
 10
503.79925611961261
 20
-18.073456134463211
 30
0.0
 40
43.906861771869274
 50
295.00001961756158
 51
302.4930213303075
  0
ARC
  5
11D2
  8
0
 10
484.52094919433142
 20
-64.615406173068124
 30
0.0
 40
43.906861771869274
 50
24.615350845762439
 51
37.379788182761779
  0
ARC
  5
11D3
  8
0
 10
451.5765561406904
 20
16.14174550414716
 30
0.0
 40
40.020388349619061
 50
55.580598922373007
 51
124.4194010776269
  0
ARC
  5
11D4
  8
0
 10
451.5765561406904
 20
16.14174550414716
 30
0.0
 40
43.020388349619061
 50
52.996123528421947
 51
127.003876471578
  0
ARC
  5
11DA
  8
0
 10
492.48621366098229
 20
9.2386444008647857
 30
0.0
 40
41.145864355462777
 50
130.27121278479081
 51
139.4098686270064
  0
LINE
  5
11DB
  8
0
 10
459.63251483636782
 20
34.009930744122499
 30
0.0
 11
466.1887898472433
 21
34.009930744122528
 31
0.0
  0
LINE
  5
11DC
  8
0
 10
461.24072788966743
 20
36.009930744122563
 30
0.0
 11
471.18878984724341
 21
36.009930744122528
 31
0.0
  0
LINE
  5
11DD
  8
0
 10
456.611183808698
 20
29.387202330797439
 30
0.0
 11
465.90945227359941
 21
29.387202330797439
 31
0.0
  0
ARC
  5
11DE
  8
0
 10
451.5765561406904
 20
16.14174550414716
 30
0.0
 40
31.407384460728942
 50
63.009535667558822
 51
116.99046433244121
  0
LINE
  5
11E1
  8
0
 10
403.89928241737812
 20
3.701748971291237
 30
0.0
 11
410.47415110220288
 21
10.276617656116111
 31
0.0
  0
LINE
  5
11E2
  8
0
 10
395.48325084786251
 20
4.6516697438136703
 30
0.0
 11
402.51759291772839
 21
11.68601181367961
 31
0.0
  0
LINE
  5
11E3
  8
0
 10
400.43299831616838
 20
6.7729900873733291
 30
0.0
 11
405.06898483568239
 21
11.408976606887281
 31
0.0
  0
LINE
  5
11E4
  8
0
 10
392.01696674665283
 20
7.7229108598957623
 30
0.0
 11
395.96182235577049
 21
11.667766469013429
 31
0.0
  0
LINE
  5
11E5
  8
0
 10
408.84902988568388
 20
5.8230693148508967
 30
0.0
 11
412.63230289581639
 21
9.6063423249834727
 31
0.0
  0
ARC
  5
11E6
  8
0
 10
399.35385616176831
 20
-29.338041171089369
 30
0.0
 40
41.145864355462777
 50
64.191635364156156
 51
71.172716733291821
  0
LINE
  5
11F0
  8
0
 10
398.4836051571167
 20
-18.671120984768599
 30
0.0
 11
398.4836051571167
 21
-9.3728525198671946
 31
0.0
  0
LINE
  5
11F1
  8
0
 10
391.86087674379161
 20
-14.041576903799211
 30
0.0
 11
391.86087674379161
 21
-4.0935149462232507
 31
0.0
  0
LINE
  5
11F2
  8
0
 10
393.86087674379172
 20
-15.64978995709879
 30
0.0
 11
393.86087674379161
 21
-9.09351494622328
 31
0.0
  0
ARC
  5
11F6
  8
0
 10
411.72906198376688
 20
-23.705748652776212
 30
0.0
 40
19.600268219504841
 50
164.15245314257501
 51
195.8475468574249
  0
ARC
  5
11F7
  8
0
 10
418.63216308704938
 20
-64.615406173068081
 30
0.0
 40
43.906861771869274
 50
111.2927437202022
 51
125.9203435453708
  0
ARC
  5
11F8
  8
0
 10
418.63216308704938
 20
-64.615406173068081
 30
0.0
 40
41.145864355462777
 50
119.3199520602614
 51
127.0158458383211
  0
LINE
  5
11F9
  8
0
 10
405.10633357044179
 20
-32.759307212041278
 30
0.0
 11
405.10633357044179
 21
-25.756249086921599
 31
0.0
  0
LINE
  5
11FA
  8
0
 10
400.48360515711659
 20
-33.038644785685278
 30
0.0
 11
400.48360515711659
 21
-27.688288784595699
 31
0.0
  0
LINE
  5
11FB
  8
0
 10
405.10633357044179
 20
-32.759307212041307
 30
0.0
 11
400.48360515711659
 21
-33.03864478568525
 31
0.0
  0
ARC
  5
11FC
  8
0
 10
418.63216308704938
 20
-64.615406173068081
 30
0.0
 40
41.145864355462777
 50
109.1916353641561
 51
116.17271673329179
  0
ARC
  5
11FD
  8
0
 10
418.63216308704938
 20
17.203908867515619
 30
0.0
 40
43.906861771869274
 50
234.0796564546292
 51
248.7072562797978
  0
ARC
  5
11FE
  8
0
 10
418.63216308704932
 20
17.203908867515729
 30
0.0
 40
41.145864355462777
 50
232.98415416167899
 51
240.68004793973861
  0
LINE
  5
11FF
  8
0
 10
405.10633357044168
 20
-21.655248218630788
 30
0.0
 11
405.10633357044168
 21
-14.652190093511139
 31
0.0
  0
LINE
  5
1200
  8
0
 10
400.48360515711659
 20
-19.723208520956721
 30
0.0
 11
400.48360515711659
 21
-14.372852519867219
 31
0.0
  0
ARC
  5
1201
  8
0
 10
418.63216308704932
 20
17.203908867515729
 30
0.0
 40
41.145864355462777
 50
243.82728326670829
 51
250.8083646358439
  0
LINE
  5
1202
  8
0
 10
405.10633357044179
 20
-14.652190093511161
 30
0.0
 11
400.48360515711659
 21
-14.372852519867219
 31
0.0
  0
LINE
  5
1210
  8
0
 10
409.04260817058622
 20
-3.3493047422848572
 30
0.0
 11
411.52936976022983
 21
-7.1176609191065259
 31
0.0
  0
LINE
  5
1211
  8
0
 10
411.52936976022983
 20
-7.1176609191065259
 30
0.0
 11
407.10633357044168
 21
-8.0238851424322206
 31
0.0
  0
LINE
  5
1212
  8
0
 10
412.31531398689373
 20
2.7518281987688051
 30
0.0
 11
408.84902988568388
 21
5.8230693148508967
 31
0.0
  0
LINE
  5
1213
  8
0
 10
402.41987975726101
 20
-0.606080813571964
 30
0.0
 11
404.90664134690462
 21
-4.3744369903936891
 31
0.0
  0
LINE
  5
1214
  8
0
 10
393.86087674379161
 20
-2.5374372850063192
 30
0.0
 11
393.86087674379172
 21
0.2008685149965572
 31
0.0
  0
LINE
  5
1215
  8
0
 10
398.28391293357959
 20
-1.631213061680739
 30
0.0
 11
393.86087674379161
 21
-2.537437285006376
 31
0.0
  0
LINE
  5
1216
  8
0
 10
402.41987975726101
 20
-0.606080813571964
 30
0.0
 11
400.48360515711659
 21
-2.542355413716336
 31
0.0
  0
LINE
  5
1217
  8
0
 10
398.4836051571167
 20
-9.372852519867223
 30
0.0
 11
393.86087674379172
 21
-9.09351494622328
 31
0.0
  0
LINE
  5
1218
  8
0
 10
404.90664134690462
 20
-4.3744369903936891
 30
0.0
 11
400.48360515711659
 21
-5.2806612137192701
 31
0.0
  0
LINE
  5
1219
  8
0
 10
400.48360515711659
 20
-5.2806612137192701
 30
0.0
 11
400.48360515711659
 21
-2.542355413716336
 31
0.0
  0
LINE
  5
121A
  8
0
 10
407.10633357044168
 20
-8.0238851424321052
 30
0.0
 11
407.10633357044179
 21
-5.2855793424292301
 31
0.0
  0
LINE
  5
121B
  8
0
 10
409.04260817058622
 20
-3.3493047422847999
 30
0.0
 11
407.10633357044179
 21
-5.2855793424292301
 31
0.0
  0
LINE
  5
121C
  8
0
 10
395.79715134393598
 20
2.1371431151409861
 30
0.0
 11
393.86087674379172
 21
0.2008685149965572
 31
0.0
  0
LINE
  5
121D
  8
0
 10
395.79715134393598
 20
2.1371431151409861
 30
0.0
 11
398.28391293357959
 21
-1.631213061680739
 31
0.0
  0
LINE
  5
121E
  8
0
 10
395.48325084786251
 20
4.6516697438136703
 30
0.0
 11
392.01696674665283
 21
7.7229108598957623
 31
0.0
  0
LINE
  5
121F
  8
0
 10
403.899282417378
 20
3.701748971291237
 30
0.0
 11
400.43299831616821
 21
6.7729900873733291
 31
0.0
  0
LINE
  5
1229
  8
0
 10
412.31531398689373
 20
2.7518281987688051
 30
0.0
 11
417.26722387620941
 21
7.7037380880845481
 31
0.0
  0
LINE
  5
1290
  8
0
 10
427.66502084420728
 20
40.632659157447591
 30
0.0
 11
424.92671504420463
 21
40.632659157447591
 31
0.0
  0
LINE
  5
1291
  8
0
 10
427.66502084420722
 20
40.632659157447563
 30
0.0
 11
426.75879662088158
 21
36.209622967659527
 31
0.0
  0
LINE
  5
1292
  8
0
 10
426.68502243413741
 20
42.63265915744762
 30
0.0
 11
434.70482556918648
 21
42.632659157447591
 31
0.0
  0
ARC
  5
1293
  8
0
 10
410.66689862039863
 20
9.2386444008647004
 30
0.0
 40
41.145864355462777
 50
54.252626072849871
 51
67.510632171440463
  0
LINE
  5
1294
  8
0
 10
429.50202054959448
 20
29.58689455433441
 30
0.0
 11
425.73366437277292
 21
32.073656143977963
 31
0.0
  0
LINE
  5
1295
  8
0
 10
425.73366437277298
 20
32.073656143977992
 30
0.0
 11
427.66993897291741
 21
34.009930744122471
 31
0.0
  0
LINE
  5
1296
  8
0
 10
423.21913774410041
 20
32.387556640051628
 30
0.0
 11
420.14789662801837
 21
35.853840741261372
 31
0.0
  0
ARC
  5
1297
  8
0
 10
423.40012280903841
 20
4.4706846788756129
 30
0.0
 40
31.407384460728942
 50
108.00953566755879
 51
161.99046433244121
  0
ARC
  5
1298
  8
0
 10
423.40012280903841
 20
4.4706846788756129
 30
0.0
 40
28.366499926105561
 50
110.70151420817859
 51
159.29848579182141
  0
LINE
  5
1299
  8
0
 10
416.20304101890071
 20
31.908985132143702
 30
0.0
 11
420.14789662801837
 21
35.853840741261372
 31
0.0
  0
ARC
  5
129A
  8
0
 10
399.35385616176831
 20
-29.338041171089369
 30
0.0
 40
41.145864355462777
 50
74.319952060261386
 51
82.015845838321155
  0
ARC
  5
129B
  8
0
 10
399.35385616176831
 20
-29.338041171089369
 30
0.0
 40
43.906861771869274
 50
66.292743720202211
 51
80.920343545370756
  0
ARC
  5
129C
  8
0
 10
423.40012280903841
 20
4.4706846788756129
 30
0.0
 40
19.600268219504841
 50
119.152453142575
 51
150.84754685742499
  0
ARC
  5
129D
  8
0
 10
423.40012280903841
 20
4.4706846788756129
 30
0.0
 40
22.093913196256072
 50
116.5867685101489
 51
153.41323148985111
  0
ARC
  5
129E
  8
0
 10
399.35385616176831
 20
-29.338041171089369
 30
0.0
 40
43.906861771869274
 50
84.394679627734803
 51
93.24939745319449
  0
ARC
  5
129F
  8
0
 10
399.35385616176831
 20
-29.338041171089369
 30
0.0
 40
41.145864355462777
 50
85.590131372993568
 51
94.728787215209422
  0
ARC
  5
12A0
  8
0
 10
457.20884865900342
 20
28.516951326145829
 30
0.0
 40
43.906861771869274
 50
189.0796564546292
 51
203.7072562797978
  0
ARC
  5
12A1
  8
0
 10
457.20884865900342
 20
28.516951326145971
 30
0.0
 40
41.145864355462777
 50
187.98415416167899
 51
195.68004793973861
  0
LINE
  5
12A2
  8
0
 10
417.59418983179802
 20
17.39665638571131
 30
0.0
 11
424.1690585166229
 21
23.971525070536082
 31
0.0
  0
ARC
  5
12A3
  8
0
 10
457.20884865900342
 20
28.516951326145971
 30
0.0
 40
41.145864355462777
 50
198.82728326670829
 51
205.8083646358439
  0
LINE
  5
12A4
  8
0
 10
420.16706939982959
 20
10.60358361170489
 30
0.0
 11
425.11897928914527
 21
15.55549350102058
 31
0.0
  0
LINE
  5
12A5
  8
0
 10
425.11897928914527
 20
15.55549350102052
 30
0.0
 11
422.04773817306318
 21
19.021777602230198
 31
0.0
  0
LINE
  5
12A6
  8
0
 10
418.26446516293072
 20
15.23850459209774
 30
0.0
 11
422.04773817306318
 21
19.021777602230198
 31
0.0
  0
LINE
  5
12A7
  8
0
 10
416.46183088102669
 20
22.801822652231809
 30
0.0
 11
421.09781740054081
 21
27.437809171745869
 31
0.0
  0
LINE
  5
12A8
  8
0
 10
416.18479567423452
 20
25.353214570185798
 30
0.0
 11
423.21913774410041
 21
32.387556640051628
 31
0.0
  0
ARC
  5
12A9
  8
0
 10
457.20884865900342
 20
28.516951326145829
 30
0.0
 40
43.906861771869274
 50
176.75060254680551
 51
185.6053203722652
  0
ARC
  5
12AA
  8
0
 10
457.20884865900342
 20
28.516951326145971
 30
0.0
 40
41.145864355462777
 50
175.27121278479081
 51
184.40986862700649
  0
LINE
  5
12AB
  8
0
 10
424.16905851662278
 20
23.971525070536082
 30
0.0
 11
421.09781740054092
 21
27.437809171745808
 31
0.0
  0
LINE
  5
12AC
  8
0
 10
426.68502243413741
 20
42.632659157447591
 30
0.0
 11
426.40568486049352
 21
47.255387570772683
 31
0.0
  0
ARC
  5
12AD
  8
0
 10
457.20884865900342
 20
28.516951326145971
 30
0.0
 40
41.145864355462777
 50
157.48936782855961
 51
170.74737392715031
  0
LINE
  5
12AE
  8
0
 10
422.26921697157798
 20
40.803588209567181
 30
0.0
 11
419.197975855496
 21
44.269872310776911
 31
0.0
  0
LINE
  5
12AF
  8
0
 10
416.5983332224252
 20
35.132704460414459
 30
0.0
 11
422.26921697157809
 21
40.803588209567238
 31
0.0
  0
ARC
  5
12B0
  8
0
 10
457.20884865900342
 20
28.516951326145829
 30
0.0
 40
43.906861771869274
 50
159.61535084576241
 51
172.37978818276181
  0
LINE
  5
12B1
  8
0
 10
426.75879662088158
 20
36.209622967659527
 30
0.0
 11
422.99044044405991
 21
38.696384557303077
 31
0.0
  0
LINE
  5
12B2
  8
0
 10
422.99044044406003
 20
38.696384557303098
 30
0.0
 11
424.92671504420463
 21
40.632659157447591
 31
0.0
  0
ARC
  5
12B3
  8
0
 10
457.20884865900342
 20
28.516951326145829
 30
0.0
 40
43.906861771869274
 50
147.5069786696925
 51
154.99998038243831
  0
ARC
  5
12B4
  8
0
 10
410.66689862039863
 20
9.2386444008647004
 30
0.0
 40
43.906861771869274
 50
70.000019617561634
 51
77.493021330307471
  0
ARC
  5
12B5
  8
0
 10
410.66689862039863
 20
9.2386444008647004
 30
0.0
 40
43.906861771869274
 50
21.292743720202211
 51
35.92034354537077
  0
LINE
  5
12B6
  8
0
 10
430.40824477292023
 20
34.009930744122443
 30
0.0
 11
429.50202054959448
 21
29.58689455433441
 31
0.0
  0
LINE
  5
12B7
  8
0
 10
437.24366000778127
 20
29.387202330797411
 30
0.0
 11
436.96432243413739
 21
34.009930744122499
 31
0.0
  0
ARC
  5
12B8
  8
0
 10
410.66689862039863
 20
9.2386444008647004
 30
0.0
 40
41.145864355462777
 50
29.319952060261379
 51
37.015845838321148
  0
ARC
  5
12B9
  8
0
 10
492.48621366098229
 20
9.2386444008647857
 30
0.0
 40
41.145864355462777
 50
142.98415416167899
 51
150.68004793973861
  0
ARC
  5
12BA
  8
0
 10
492.48621366098217
 20
9.2386444008647004
 30
0.0
 40
43.906861771869274
 50
144.0796564546292
 51
158.7072562797978
  0
LINE
  5
12BB
  8
0
 10
442.24366000778139
 20
27.387202330797379
 30
0.0
 11
447.59401600887088
 21
27.387202330797379
 31
0.0
  0
LINE
  5
12BC
  8
0
 10
442.52299758142539
 20
22.764473917472259
 30
0.0
 11
449.52605570654498
 21
22.764473917472291
 31
0.0
  0
LINE
  5
12BD
  8
0
 10
437.24366000778127
 20
29.387202330797379
 30
0.0
 11
446.5419284726828
 21
29.387202330797379
 31
0.0
  0
LINE
  5
12C1
  8
0
 10
431.22011223019882
 20
18.828199317327801
 30
0.0
 11
433.15638683034319
 21
20.764473917472291
 31
0.0
  0
LINE
  5
12C2
  8
0
 10
434.98846840702032
 20
16.34143772768422
 30
0.0
 11
431.22011223019882
 21
18.828199317327769
 31
0.0
  0
LINE
  5
12C3
  8
0
 10
435.89469263034613
 20
20.764473917472259
 30
0.0
 11
434.98846840702032
 21
16.34143772768422
 31
0.0
  0
LINE
  5
12C4
  8
0
 10
435.89469263034613
 20
20.764473917472291
 30
0.0
 11
433.15638683034319
 21
20.764473917472291
 31
0.0
  0
LINE
  5
12C6
  8
0
 10
433.15146870163312
 20
27.387202330797379
 30
0.0
 11
432.24524447830743
 21
22.96416614100934
 31
0.0
  0
LINE
  5
12C7
  8
0
 10
428.47688830148581
 20
25.450927730652921
 30
0.0
 11
430.4131629016303
 21
27.387202330797411
 31
0.0
  0
LINE
  5
12C8
  8
0
 10
432.24524447830743
 20
22.96416614100934
 30
0.0
 11
428.47688830148581
 21
25.450927730652889
 31
0.0
  0
LINE
  5
12C9
  8
0
 10
433.15146870163312
 20
27.387202330797411
 30
0.0
 11
430.4131629016303
 21
27.387202330797411
 31
0.0
  0
LINE
  5
12CA
  8
0
 10
442.52299758142527
 20
22.764473917472319
 30
0.0
 11
442.24366000778139
 21
27.387202330797411
 31
0.0
  0
ARC
  5
12D3
  8
0
 10
492.48621366098229
 20
9.2386444008647857
 30
0.0
 40
41.145864355462777
 50
153.82728326670829
 51
160.8083646358439
  0
LINE
  5
12D4
  8
0
 10
453.62705657483588
 20
22.764473917472341
 30
0.0
 11
460.63011469995541
 21
22.764473917472401
 31
0.0
  0
ARC
  5
12D5
  8
0
 10
410.66689862039863
 20
9.2386444008647004
 30
0.0
 40
41.145864355462777
 50
19.191635364156141
 51
26.172716733291811
  0
LINE
  5
12D6
  8
0
 10
460.63011469995541
 20
22.764473917472319
 30
0.0
 11
460.9094522735993
 21
27.387202330797411
 31
0.0
  0
LINE
  5
12D7
  8
0
 10
455.55909627250992
 20
27.387202330797411
 30
0.0
 11
460.9094522735993
 21
27.387202330797411
 31
0.0
  0
ARC
  5
12D8
  8
0
 10
451.5765561406904
 20
16.14174550414716
 30
0.0
 40
22.093913196256072
 50
71.586768510148914
 51
108.4132314898511
  0
ARC
  5
12D9
  8
0
 10
451.5765561406904
 20
16.14174550414716
 30
0.0
 40
28.366499926105561
 50
65.701514208178651
 51
114.29848579182141
  0
LINE
  5
12DA
  8
0
 10
431.6849848604935
 20
40.632659157447591
 30
0.0
 11
437.26385316451132
 21
40.632659157447591
 31
0.0
  0
LINE
  5
12DB
  8
0
 10
431.96432243413739
 20
36.009930744122471
 30
0.0
 11
441.91238439171337
 21
36.009930744122528
 31
0.0
  0
LINE
  5
12DC
  8
0
 10
431.96432243413739
 20
36.009930744122499
 30
0.0
 11
431.6849848604935
 21
40.632659157447591
 31
0.0
  0
LINE
  5
12DD
  8
0
 10
430.40824477292028
 20
34.009930744122471
 30
0.0
 11
427.66993897291741
 21
34.009930744122471
 31
0.0
  0
ARC
  5
12DE
  8
0
 10
410.66689862039863
 20
9.2386444008647004
 30
0.0
 40
43.906861771869274
 50
39.39467962773481
 51
48.24939745319449
  0
ARC
  5
12DF
  8
0
 10
410.66689862039863
 20
9.2386444008647004
 30
0.0
 40
41.145864355462777
 50
40.590131372993568
 51
49.728787215209422
  0
LINE
  5
12E0
  8
0
 10
436.96432243413739
 20
34.009930744122471
 30
0.0
 11
443.52059744501298
 21
34.009930744122471
 31
0.0
  0
ARC
  5
12E1
  8
0
 10
410.66689862039863
 20
9.2386444008647004
 30
0.0
 40
43.906861771869274
 50
52.620211817238157
 51
65.384649154237536
  0
ARC
  5
12E2
  8
0
 10
451.5765561406904
 20
16.14174550414716
 30
0.0
 40
19.600268219504841
 50
74.152453142575069
 51
105.847546857425
  0
ARC
  5
12E3
  8
0
 10
492.48621366098217
 20
9.2386444008647004
 30
0.0
 40
43.906861771869274
 50
131.75060254680551
 51
140.6053203722652
  0
LINE
  5
12E6
  8
0
 10
500.63551936365252
 20
11.686011813679549
 30
0.0
 11
507.66986143351829
 21
4.6516697438136703
 31
0.0
  0
LINE
  5
12E7
  8
0
 10
510.41500925388112
 20
11.272474265488849
 30
0.0
 11
516.0858930030339
 21
5.6015905163360449
 31
0.0
  0
LINE
  5
12E8
  8
0
 10
492.67896117917797
 20
10.276617656116031
 30
0.0
 11
499.25382986400268
 21
3.7017489712912091
 31
0.0
  0
LINE
  5
12E9
  8
0
 10
490.52080938556452
 20
9.6063423249833875
 30
0.0
 11
494.30408239569692
 21
5.8230693148508692
 31
0.0
  0
ARC
  5
12EA
  8
0
 10
503.79925611961272
 20
-29.338041171089401
 30
0.0
 40
41.145864355462777
 50
108.82728326670821
 51
115.8083646358439
  0
ARC
  5
12EB
  8
0
 10
503.79925611961272
 20
-29.338041171089401
 30
0.0
 40
41.145864355462777
 50
67.489367828559594
 51
80.747373927150306
  0
LINE
  5
12EC
  8
0
 10
498.08412744569841
 20
11.408976606887281
 30
0.0
 11
502.72011396521259
 21
6.7729900873733291
 31
0.0
  0
LINE
  5
12ED
  8
0
 10
507.19128992561031
 20
11.667766469013371
 30
0.0
 11
511.13614553472797
 21
7.7229108598957046
 31
0.0
  0
ARC
  5
12EE
  8
0
 10
503.79925611961261
 20
-29.338041171089341
 30
0.0
 40
43.906861771869274
 50
57.506978669692508
 51
64.999980382438352
  0
LINE
  5
12EF
  8
0
 10
499.25382986400268
 20
3.701748971291237
 30
0.0
 11
502.72011396521248
 21
6.7729900873733007
 31
0.0
  0
LINE
  5
12F0
  8
0
 10
502.66950712426399
 20
-5.2806612137189566
 30
0.0
 11
498.24647093447601
 21
-4.3744369903933196
 31
0.0
  0
LINE
  5
12F1
  8
0
 10
500.7332325241195
 20
-0.6060808135717082
 30
0.0
 11
502.6695071242641
 21
-2.5423554137162219
 31
0.0
  0
ARC
  5
12F2
  8
0
 10
484.52094919433142
 20
17.20390886751554
 30
0.0
 40
41.145864355462777
 50
289.19163536415618
 51
296.17271673329179
  0
ARC
  5
12F3
  8
0
 10
484.52094919433142
 20
17.20390886751554
 30
0.0
 40
43.906861771869274
 50
291.29274372020211
 51
305.92034354537071
  0
LINE
  5
12F4
  8
0
 10
498.0467787109389
 20
-14.652190093511219
 30
0.0
 11
502.6695071242641
 21
-14.37285251986728
 31
0.0
  0
LINE
  5
12F5
  8
0
 10
498.0467787109389
 20
-32.759307212041371
 30
0.0
 11
502.66950712426399
 21
-33.038644785685307
 31
0.0
  0
ARC
  5
12F6
  8
0
 10
484.52094919433142
 20
-64.615406173068251
 30
0.0
 40
41.145864355462777
 50
63.827283266708271
 51
70.808364635843958
  0
ARC
  5
12F7
  8
0
 10
484.52094919433142
 20
-64.615406173068124
 30
0.0
 40
43.906861771869274
 50
54.07965645462923
 51
68.707256279797775
  0
LINE
  5
1317
  8
0
 10
498.0467787109389
 20
-25.756249086921741
 30
0.0
 11
498.04677871093901
 21
-32.759307212041392
 31
0.0
  0
LINE
  5
131E
  8
0
 10
498.0467787109389
 20
-14.652190093511249
 30
0.0
 11
498.0467787109389
 21
-21.655248218630931
 31
0.0
  0
LINE
  5
1332
  8
0
 10
498.24647093447601
 20
-4.3744369903933196
 30
0.0
 11
500.7332325241195
 21
-0.6060808135716514
 31
0.0
  0
LINE
  5
1333
  8
0
 10
496.0467787109389
 20
-8.0238851424319062
 30
0.0
 11
491.62374252115092
 21
-7.1176609191062701
 31
0.0
  0
LINE
  5
1334
  8
0
 10
491.62374252115092
 20
-7.1176609191062701
 30
0.0
 11
494.11050411079441
 21
-3.349304742284601
 31
0.0
  0
LINE
  5
133A
  8
0
 10
496.0467787109389
 20
-8.0238851424319364
 30
0.0
 11
496.0467787109389
 21
-5.2855793424291733
 31
0.0
  0
LINE
  5
133B
  8
0
 10
494.11050411079441
 20
-3.3493047422846578
 30
0.0
 11
496.0467787109389
 21
-5.2855793424291733
 31
0.0
  0
LINE
  5
133C
  8
0
 10
490.83779829448719
 20
2.7518281987688051
 30
0.0
 11
494.30408239569692
 21
5.8230693148508692
 31
0.0
  0
LINE
  5
133D
  8
0
 10
485.8858884051715
 20
7.7037380880844353
 30
0.0
 11
490.83779829448719
 21
2.7518281987688331
 31
0.0
  0
LINE
  5
133E
  8
0
 10
504.66950712426387
 20
-9.3728525198672799
 30
0.0
 11
504.66950712426387
 21
-18.67112098476872
 31
0.0
  0
ARC
  5
133F
  8
0
 10
491.4240502976138
 20
-23.705748652776322
 30
0.0
 40
28.366499926105561
 50
335.70151420817859
 51
24.298485791821381
  0
ARC
  5
1340
  8
0
 10
484.52094919433142
 20
17.20390886751554
 30
0.0
 40
41.145864355462777
 50
310.5901313729936
 51
319.72878721520942
  0
LINE
  5
1341
  8
0
 10
511.29223553758908
 20
-4.093514946223336
 30
0.0
 11
511.29223553758908
 21
-14.041576903799291
 31
0.0
  0
LINE
  5
1342
  8
0
 10
509.29223553758908
 20
-9.0935149462233653
 30
0.0
 11
509.29223553758908
 21
-15.6497899570989
 31
0.0
  0
ARC
  5
1343
  8
0
 10
484.52094919433142
 20
17.20390886751554
 30
0.0
 40
43.906861771869274
 50
309.39467962773477
 51
318.24939745319449
  0
ARC
  5
1344
  8
0
 10
491.4240502976138
 20
-23.705748652776322
 30
0.0
 40
22.093913196256072
 50
341.58676851014889
 51
18.413231489851128
  0
ARC
  5
1345
  8
0
 10
491.4240502976138
 20
-23.705748652776322
 30
0.0
 40
19.600268219504841
 50
344.1524531425751
 51
15.84754685742498
  0
LINE
  5
1346
  8
0
 10
502.6695071242641
 20
-27.688288784595819
 30
0.0
 11
502.66950712426399
 21
-33.038644785685307
 31
0.0
  0
ARC
  5
1347
  8
0
 10
484.52094919433142
 20
-64.615406173068251
 30
0.0
 40
41.145864355462777
 50
52.98415416167898
 51
60.680047939738607
  0
ARC
  5
1348
  8
0
 10
484.52094919433142
 20
-64.615406173068124
 30
0.0
 40
43.906861771869274
 50
41.75060254680551
 51
50.60532037226519
  0
LINE
  5
1349
  8
0
 10
502.66950712426399
 20
-14.37285251986725
 30
0.0
 11
502.66950712426399
 21
-19.723208520956831
 31
0.0
  0
ARC
  5
134A
  8
0
 10
484.52094919433142
 20
17.20390886751554
 30
0.0
 40
41.145864355462777
 50
299.31995206026141
 51
307.01584583832118
  0
LINE
  5
134B
  8
0
 10
516.0858930030339
 20
5.6015905163360742
 30
0.0
 11
519.55217710424347
 21
8.6728316324181378
 31
0.0
  0
LINE
  5
134C
  8
0
 10
517.91496395091428
 20
1.185785053776669
 30
0.0
 11
522.53769236423932
 21
1.4651226274205831
 31
0.0
  0
ARC
  5
134D
  8
0
 10
484.52094919433142
 20
17.20390886751554
 30
0.0
 40
41.145864355462777
 50
324.25262607284992
 51
337.51063217144048
  0
LINE
  5
134E
  8
0
 10
517.91496395091428
 20
1.185785053776697
 30
0.0
 11
517.91496395091428
 21
-6.8340180812724043
 31
0.0
  0
LINE
  5
134F
  8
0
 10
509.29223553758908
 20
-2.5374372850061202
 30
0.0
 11
509.29223553758908
 21
0.2008685149966425
 31
0.0
  0
LINE
  5
1350
  8
0
 10
509.29223553758908
 20
-2.5374372850060918
 30
0.0
 11
504.86919934780099
 21
-1.631213061680455
 31
0.0
  0
LINE
  5
1351
  8
0
 10
504.66950712426399
 20
-9.3728525198672799
 30
0.0
 11
509.29223553758908
 21
-9.0935149462233351
 31
0.0
  0
LINE
  5
1352
  8
0
 10
502.6695071242641
 20
-5.280661213718985
 30
0.0
 11
502.6695071242641
 21
-2.5423554137162219
 31
0.0
  0
LINE
  5
1353
  8
0
 10
515.91496395091417
 20
-3.814177372579393
 30
0.0
 11
515.91496395091417
 21
-9.3930456765971542
 31
0.0
  0
LINE
  5
1354
  8
0
 10
511.29223553758908
 20
-4.093514946223336
 30
0.0
 11
515.91496395091417
 21
-3.814177372579393
 31
0.0
  0
LINE
  5
1355
  8
0
 10
507.66986143351829
 20
4.6516697438136703
 30
0.0
 11
511.13614553472797
 21
7.7229108598957046
 31
0.0
  0
LINE
  5
1356
  8
0
 10
504.86919934780099
 20
-1.631213061680455
 30
0.0
 11
507.35596093744459
 21
2.137143115141213
 31
0.0
  0
LINE
  5
1357
  8
0
 10
507.35596093744459
 20
2.1371431151411571
 30
0.0
 11
509.29223553758908
 21
0.2008685149966425
 31
0.0
  0
LINE
  5
1358
  8
0
 10
513.97868935076974
 20
4.8803670438541067
 30
0.0
 11
515.91496395091417
 21
2.9440924437095921
 31
0.0
  0
LINE
  5
1359
  8
0
 10
511.49192776112608
 20
1.1120108670324951
 30
0.0
 11
513.97868935076974
 21
4.8803670438541644
 31
0.0
  0
LINE
  5
135A
  8
0
 10
515.91496395091406
 20
0.2057866437068583
 30
0.0
 11
511.49192776112608
 21
1.1120108670324951
 31
0.0
  0
LINE
  5
135B
  8
0
 10
515.91496395091417
 20
0.2057866437068299
 30
0.0
 11
515.91496395091417
 21
2.9440924437095921
 31
0.0
  0
ARC
  5
135C
  8
0
 10
484.52094919433142
 20
17.20390886751554
 30
0.0
 40
43.906861771869274
 50
322.6202118172381
 51
335.38464915423748
  0
ARC
  5
135D
  8
0
 10
484.52094919433148
 20
17.20390886751548
 30
0.0
 40
43.906861771869274
 50
340.00001961756158
 51
347.49302133030739
  0
ARC
  5
135E
  8
0
 10
503.79925611961261
 20
-29.338041171089341
 30
0.0
 40
43.906861771869274
 50
86.750602546805496
 51
95.605320372265183
  0
ARC
  5
135F
  8
0
 10
503.79925611961272
 20
-29.338041171089401
 30
0.0
 40
41.145864355462777
 50
85.271212784790862
 51
94.409868627006432
  0
ARC
  5
1360
  8
0
 10
479.75298947234239
 20
4.4706846788755854
 30
0.0
 40
43.020388349619061
 50
7.9961235284219327
 51
82.003876471578025
  0
ARC
  5
1361
  8
0
 10
479.75298947234239
 20
4.4706846788755854
 30
0.0
 40
40.020388349619061
 50
10.580598922372999
 51
79.419401077626972
  0
ARC
  5
1362
  8
0
 10
479.75298947234239
 20
4.4706846788755854
 30
0.0
 40
31.407384460728942
 50
18.009535667558811
 51
71.990464332441164
  0
ARC
  5
1363
  8
0
 10
479.75298947234239
 20
4.4706846788755854
 30
0.0
 40
28.366499926105561
 50
20.701514208178651
 51
69.298485791821378
  0
LINE
  5
1364
  8
0
 10
465.90945227359941
 20
29.387202330797411
 30
0.0
 11
466.1887898472433
 21
34.009930744122499
 31
0.0
  0
LINE
  5
1365
  8
0
 10
473.65109173178593
 20
29.586894554334521
 30
0.0
 11
472.74486750846029
 21
34.009930744122528
 31
0.0
  0
LINE
  5
1366
  8
0
 10
483.00521565336243
 20
35.853840741261337
 30
0.0
 11
486.95007126248009
 21
31.90898513214367
 31
0.0
  0
LINE
  5
1367
  8
0
 10
479.93397453728039
 20
32.387556640051599
 30
0.0
 11
483.00521565336243
 21
35.853840741261337
 31
0.0
  0
LINE
  5
1368
  8
0
 10
477.41944790860771
 20
32.073656143978098
 30
0.0
 11
475.48317330846328
 21
34.009930744122499
 31
0.0
  0
LINE
  5
1369
  8
0
 10
479.93397453728039
 20
32.387556640051571
 30
0.0
 11
486.96831660714628
 21
25.353214570185742
 31
0.0
  0
LINE
  5
136A
  8
0
 10
482.05529488083999
 20
27.437809171745752
 30
0.0
 11
486.691281400354
 21
22.801822652231749
 31
0.0
  0
LINE
  5
136B
  8
0
 10
478.03413299223553
 20
15.555493501020401
 30
0.0
 11
482.98604288155121
 21
10.60358361170478
 31
0.0
  0
LINE
  5
136C
  8
0
 10
481.10537410831762
 20
19.021777602230198
 30
0.0
 11
484.88864711845019
 21
15.23850459209763
 31
0.0
  0
LINE
  5
136D
  8
0
 10
478.9840537647579
 20
23.971525070536021
 30
0.0
 11
485.55892244958278
 21
17.396656385711172
 31
0.0
  0
LINE
  5
1372
  8
0
 10
467.25841965103461
 20
20.764473917472309
 30
0.0
 11
469.99672545103749
 21
20.764473917472291
 31
0.0
  0
LINE
  5
1373
  8
0
 10
471.93300005118181
 20
18.828199317327911
 30
0.0
 11
468.16464387436008
 21
16.34143772768434
 31
0.0
  0
LINE
  5
1374
  8
0
 10
468.16464387436008
 20
16.34143772768434
 30
0.0
 11
467.2584196510345
 21
20.764473917472351
 31
0.0
  0
LINE
  5
1375
  8
0
 10
471.93300005118192
 20
18.828199317327879
 30
0.0
 11
469.99672545103749
 21
20.764473917472291
 31
0.0
  0
LINE
  5
1376
  8
0
 10
478.03413299223553
 20
15.555493501020489
 30
0.0
 11
481.10537410831762
 21
19.021777602230198
 31
0.0
  0
LINE
  5
1377
  8
0
 10
474.6762239798947
 20
25.450927730653039
 30
0.0
 11
470.90786780307297
 21
22.964166141009478
 31
0.0
  0
LINE
  5
1378
  8
0
 10
474.67622397989481
 20
25.450927730653039
 30
0.0
 11
472.73994937975039
 21
27.387202330797439
 31
0.0
  0
LINE
  5
1379
  8
0
 10
470.90786780307297
 20
22.964166141009478
 30
0.0
 11
470.00164357974739
 21
27.387202330797489
 31
0.0
  0
LINE
  5
137A
  8
0
 10
470.00164357974751
 20
27.387202330797461
 30
0.0
 11
472.73994937975039
 21
27.387202330797439
 31
0.0
  0
LINE
  5
137B
  8
0
 10
478.9840537647579
 20
23.97152507053605
 30
0.0
 11
482.05529488083999
 21
27.437809171745752
 31
0.0
  0
LINE
  5
137C
  8
0
 10
477.41944790860759
 20
32.073656143978098
 30
0.0
 11
473.65109173178593
 21
29.586894554334521
 31
0.0
  0
ARC
  5
137D
  8
0
 10
445.94426362237738
 20
28.516951326145861
 30
0.0
 40
43.906861771869274
 50
336.29274372020222
 51
350.92034354537071
  0
ARC
  5
137E
  8
0
 10
445.94426362237738
 20
28.516951326145861
 30
0.0
 40
41.145864355462777
 50
344.31995206026141
 51
352.01584583832118
  0
ARC
  5
137F
  8
0
 10
479.75298947234239
 20
4.4706846788755854
 30
0.0
 40
22.093913196256072
 50
26.5867685101489
 51
63.413231489851142
  0
ARC
  5
1380
  8
0
 10
479.75298947234239
 20
4.4706846788755854
 30
0.0
 40
19.600268219504841
 50
29.152453142575059
 51
60.847546857424987
  0
ARC
  5
1381
  8
0
 10
503.79925611961261
 20
-29.338041171089341
 30
0.0
 40
43.906861771869274
 50
99.07965645462923
 51
113.7072562797978
  0
ARC
  5
1382
  8
0
 10
445.94426362237738
 20
28.516951326145861
 30
0.0
 40
41.145864355462777
 50
334.19163536415613
 51
341.17271673329179
  0
ARC
  5
1383
  8
0
 10
503.79925611961272
 20
-29.338041171089401
 30
0.0
 40
41.145864355462777
 50
97.984154161678987
 51
105.6800479397386
  0
ARC
  5
1384
  8
0
 10
445.94426362237738
 20
28.516951326145861
 30
0.0
 40
43.906861771869274
 50
354.39467962773477
 51
3.249397453194478
  0
ARC
  5
1385
  8
0
 10
445.94426362237738
 20
28.516951326145861
 30
0.0
 40
41.145864355462777
 50
355.5901313729936
 51
4.7287872152094064
  0
ARC
  5
1386
  8
0
 10
492.48621366098217
 20
9.2386444008647004
 30
0.0
 40
43.906861771869274
 50
102.5069786696925
 51
109.9999803824383
  0
LINE
  5
1387
  8
0
 10
480.88392187838122
 20
40.803561640988789
 30
0.0
 11
486.55477905895549
 21
35.132704460414409
 31
0.0
  0
LINE
  5
1388
  8
0
 10
480.88392187838127
 20
40.803561640988747
 30
0.0
 11
483.95516299446331
 21
44.269845742198463
 31
0.0
  0
LINE
  5
1389
  8
0
 10
476.46812742088719
 20
42.632659157447591
 30
0.0
 11
476.74746499453119
 21
47.255387570772683
 31
0.0
  0
ARC
  5
138A
  8
0
 10
492.48621366098229
 20
9.2386444008647857
 30
0.0
 40
41.145864355462777
 50
112.48936782855959
 51
125.74737392715031
  0
LINE
  5
138B
  8
0
 10
468.44828671219432
 20
42.632659157447591
 30
0.0
 11
476.46812742088741
 21
42.632659157447591
 31
0.0
  0
LINE
  5
138C
  8
0
 10
472.7448675084604
 20
34.009930744122528
 30
0.0
 11
475.48317330846328
 21
34.009930744122499
 31
0.0
  0
LINE
  5
138D
  8
0
 10
471.1887898472433
 20
36.009930744122499
 30
0.0
 11
471.4681274208873
 21
40.632659157447591
 31
0.0
  0
LINE
  5
138E
  8
0
 10
465.88925911686948
 20
40.632659157447591
 30
0.0
 11
471.4681274208873
 21
40.632659157447591
 31
0.0
  0
LINE
  5
138F
  8
0
 10
476.39431566049871
 20
36.209622967659669
 30
0.0
 11
475.48809143717318
 21
40.632659157447669
 31
0.0
  0
LINE
  5
1390
  8
0
 10
480.16267183732049
 20
38.696384557303247
 30
0.0
 11
476.39431566049871
 21
36.209622967659669
 31
0.0
  0
LINE
  5
1391
  8
0
 10
475.48809143717318
 20
40.632659157447641
 30
0.0
 11
478.22639723717617
 21
40.63265915744762
 31
0.0
  0
LINE
  5
1392
  8
0
 10
480.16267183732049
 20
38.696384557303219
 30
0.0
 11
478.22639723717617
 21
40.63265915744762
 31
0.0
  0
ARC
  5
1393
  8
0
 10
492.48621366098217
 20
9.2386444008647004
 30
0.0
 40
43.906861771869274
 50
114.61535084576241
 51
127.3797881827618
  0
ARC
  5
1394
  8
0
 10
445.94426362237738
 20
28.516951326145861
 30
0.0
 40
41.145864355462777
 50
9.2526260728498606
 51
22.51063217144047
  0
ARC
  5
1395
  8
0
 10
445.94426362237738
 20
28.516951326145861
 30
0.0
 40
43.906861771869274
 50
7.6202118172381468
 51
20.384649154237529
  0
ARC
  5
1396
  8
0
 10
445.94426362237738
 20
28.516951326145861
 30
0.0
 40
43.906861771869274
 50
25.00001961756162
 51
32.493021330307457
  0
ARC
  5
1397
  8
0
 10
503.79925611961261
 20
-29.338041171089341
 30
0.0
 40
43.906861771869274
 50
69.615350845762435
 51
82.379788182761772
  0
CIRCLE
  5
1398
  8
0
 10
451.5765561406904
 20
-23.705748652776261
 30
0.0
 40
40.514967401271861
  0
ENDSEC
  0
EOF
