  0
SECTION
  2
HEADER
  9
$ACADVER
  1
AC1012
  9
$DWGCODEPAGE
  3
ANSI_1252
  9
$INSBASE
 10
0.0
 20
0.0
 30
0.0
  9
$EXTMIN
 10
164.425604
 20
-156.227947
 30
0.0
  9
$EXTMAX
 10
570.167921
 20
-30.740881
 30
0.0
  9
$LIMMIN
 10
0.0
 20
0.0
  9
$LIMMAX
 10
420.0
 20
297.0
  9
$ORTHOMODE
 70
     1
  9
$REGENMODE
 70
     1
  9
$FILLMODE
 70
     1
  9
$QTEXTMODE
 70
     0
  9
$MIRRTEXT
 70
     1
  9
$DRAGMODE
 70
     2
  9
$LTSCALE
 40
1.0
  9
$OSMODE
 70
    39
  9
$ATTMODE
 70
     1
  9
$TEXTSIZE
 40
2.5
  9
$TRACEWID
 40
1.0
  9
$TEXTSTYLE
  7
STANDARD
  9
$CLAYER
  8
0
  9
$CELTYPE
  6
BYLAYER
  9
$CECOLOR
 62
   256
  9
$CELTSCALE
 40
1.0
  9
$DELOBJ
 70
     1
  9
$DISPSILH
 70
     0
  9
$DIMSCALE
 40
1.0
  9
$DIMASZ
 40
2.5
  9
$DIMEXO
 40
0.625
  9
$DIMDLI
 40
3.75
  9
$DIMRND
 40
0.0
  9
$DIMDLE
 40
0.0
  9
$DIMEXE
 40
1.25
  9
$DIMTP
 40
0.0
  9
$DIMTM
 40
0.0
  9
$DIMTXT
 40
2.5
  9
$DIMCEN
 40
2.5
  9
$DIMTSZ
 40
0.0
  9
$DIMTOL
 70
     0
  9
$DIMLIM
 70
     0
  9
$DIMTIH
 70
     0
  9
$DIMTOH
 70
     0
  9
$DIMSE1
 70
     0
  9
$DIMSE2
 70
     0
  9
$DIMTAD
 70
     1
  9
$DIMZIN
 70
     8
  9
$DIMBLK
  1

  9
$DIMASO
 70
     1
  9
$DIMSHO
 70
     1
  9
$DIMPOST
  1

  9
$DIMAPOST
  1

  9
$DIMALT
 70
     0
  9
$DIMALTD
 70
     4
  9
$DIMALTF
 40
0.0394
  9
$DIMLFAC
 40
1.0
  9
$DIMTOFL
 70
     1
  9
$DIMTVP
 40
0.0
  9
$DIMTIX
 70
     0
  9
$DIMSOXD
 70
     0
  9
$DIMSAH
 70
     0
  9
$DIMBLK1
  1

  9
$DIMBLK2
  1

  9
$DIMSTYLE
  2
STANDARD
  9
$DIMCLRD
 70
     0
  9
$DIMCLRE
 70
     0
  9
$DIMCLRT
 70
     0
  9
$DIMTFAC
 40
1.0
  9
$DIMGAP
 40
0.625
  9
$DIMJUST
 70
     0
  9
$DIMSD1
 70
     0
  9
$DIMSD2
 70
     0
  9
$DIMTOLJ
 70
     1
  9
$DIMTZIN
 70
     0
  9
$DIMALTZ
 70
     0
  9
$DIMALTTZ
 70
     0
  9
$DIMFIT
 70
     3
  9
$DIMUPT
 70
     0
  9
$DIMUNIT
 70
     8
  9
$DIMDEC
 70
     4
  9
$DIMTDEC
 70
     4
  9
$DIMALTU
 70
     8
  9
$DIMALTTD
 70
     4
  9
$DIMTXSTY
  7
STANDARD
  9
$DIMAUNIT
 70
     0
  9
$LUNITS
 70
     2
  9
$LUPREC
 70
     4
  9
$SKETCHINC
 40
1.0
  9
$FILLETRAD
 40
10.0
  9
$AUNITS
 70
     0
  9
$AUPREC
 70
     0
  9
$MENU
  1
.
  9
$ELEVATION
 40
0.0
  9
$PELEVATION
 40
0.0
  9
$THICKNESS
 40
0.0
  9
$LIMCHECK
 70
     0
  9
$BLIPMODE
 70
     0
  9
$CHAMFERA
 40
10.0
  9
$CHAMFERB
 40
10.0
  9
$CHAMFERC
 40
20.0
  9
$CHAMFERD
 40
0.0
  9
$SKPOLY
 70
     0
  9
$TDCREATE
 40
2455934.876002233
  9
$TDUPDATE
 40
2455950.888241643
  9
$TDINDWG
 40
0.0467030208
  9
$TDUSRTIMER
 40
0.0467030208
  9
$USRTIMER
 70
     1
  9
$ANGBASE
 50
0.0
  9
$ANGDIR
 70
     0
  9
$PDMODE
 70
     0
  9
$PDSIZE
 40
0.0
  9
$PLINEWID
 40
0.0
  9
$COORDS
 70
     1
  9
$SPLFRAME
 70
     0
  9
$SPLINETYPE
 70
     6
  9
$SPLINESEGS
 70
     8
  9
$ATTDIA
 70
     0
  9
$ATTREQ
 70
     1
  9
$HANDLING
 70
     1
  9
$HANDSEED
  5
371D
  9
$SURFTAB1
 70
     6
  9
$SURFTAB2
 70
     6
  9
$SURFTYPE
 70
     6
  9
$SURFU
 70
     6
  9
$SURFV
 70
     6
  9
$UCSNAME
  2

  9
$UCSORG
 10
0.0
 20
0.0
 30
0.0
  9
$UCSXDIR
 10
1.0
 20
0.0
 30
0.0
  9
$UCSYDIR
 10
0.0
 20
1.0
 30
0.0
  9
$PUCSNAME
  2

  9
$PUCSORG
 10
0.0
 20
0.0
 30
0.0
  9
$PUCSXDIR
 10
1.0
 20
0.0
 30
0.0
  9
$PUCSYDIR
 10
0.0
 20
1.0
 30
0.0
  9
$USERI1
 70
     0
  9
$USERI2
 70
     0
  9
$USERI3
 70
     0
  9
$USERI4
 70
     0
  9
$USERI5
 70
     0
  9
$USERR1
 40
0.0
  9
$USERR2
 40
0.0
  9
$USERR3
 40
0.0
  9
$USERR4
 40
0.0
  9
$USERR5
 40
0.0
  9
$WORLDVIEW
 70
     1
  9
$SHADEDGE
 70
     3
  9
$SHADEDIF
 70
    70
  9
$TILEMODE
 70
     1
  9
$MAXACTVP
 70
    48
  9
$PINSBASE
 10
0.0
 20
0.0
 30
0.0
  9
$PLIMCHECK
 70
     0
  9
$PEXTMIN
 10
1.000000E+20
 20
1.000000E+20
 30
1.000000E+20
  9
$PEXTMAX
 10
-1.000000E+20
 20
-1.000000E+20
 30
-1.000000E+20
  9
$PLIMMIN
 10
0.0
 20
0.0
  9
$PLIMMAX
 10
420.0
 20
297.0
  9
$UNITMODE
 70
     0
  9
$VISRETAIN
 70
     1
  9
$PLINEGEN
 70
     0
  9
$PSLTSCALE
 70
     1
  9
$TREEDEPTH
 70
  3020
  9
$PICKSTYLE
 70
     1
  9
$CMLSTYLE
  2
STANDARD
  9
$CMLJUST
 70
     0
  9
$CMLSCALE
 40
20.0
  9
$SAVEIMAGES
 70
     1
  0
ENDSEC
  0
SECTION
  2
CLASSES
  0
CLASS
  1
LWPOLYLINE
  2
AcDbPolyline
  3
"AutoCAD"
 90
    32768
280
     0
281
     1
  0
ENDSEC
  0
SECTION
  2
TABLES
  0
TABLE
  2
VPORT
  5
8
100
AcDbSymbolTable
 70
     3
  0
VPORT
  5
371C
100
AcDbSymbolTableRecord
100
AcDbViewportTableRecord
  2
*ACTIVE
 70
     0
 10
0.0
 20
0.0
 11
1.0
 21
1.0
 12
372.555153
 22
-80.453928
 13
0.0
 23
0.0
 14
10.0
 24
10.0
 15
10.0
 25
10.0
 16
0.0
 26
0.0
 36
1.0
 17
0.0
 27
0.0
 37
0.0
 40
261.771904
 41
1.75
 42
50.0
 43
0.0
 44
0.0
 50
0.0
 51
0.0
 71
     0
 72
   100
 73
     1
 74
     1
 75
     0
 76
     0
 77
     0
 78
     0
  0
ENDTAB
  0
TABLE
  2
LTYPE
  5
5
100
AcDbSymbolTable
 70
     1
  0
LTYPE
  5
12
100
AcDbSymbolTableRecord
100
AcDbLinetypeTableRecord
  2
BYBLOCK
 70
     0
  3

 72
    65
 73
     0
 40
0.0
  0
LTYPE
  5
13
100
AcDbSymbolTableRecord
100
AcDbLinetypeTableRecord
  2
BYLAYER
 70
     0
  3

 72
    65
 73
     0
 40
0.0
  0
LTYPE
  5
14
100
AcDbSymbolTableRecord
100
AcDbLinetypeTableRecord
  2
CONTINUOUS
 70
     0
  3
Solid line
 72
    65
 73
     0
 40
0.0
  0
ENDTAB
  0
TABLE
  2
LAYER
  5
2
100
AcDbSymbolTable
 70
     1
  0
LAYER
  5
E
100
AcDbSymbolTableRecord
100
AcDbLayerTableRecord
  2
0
 70
     0
 62
     7
  6
CONTINUOUS
  0
ENDTAB
  0
TABLE
  2
STYLE
  5
3
100
AcDbSymbolTable
 70
     1
  0
STYLE
  5
F
100
AcDbSymbolTableRecord
100
AcDbTextStyleTableRecord
  2
STANDARD
 70
     0
 40
0.0
 41
1.0
 50
0.0
 71
     0
 42
2.5
  3
txt
  4

  0
ENDTAB
  0
TABLE
  2
VIEW
  5
6
100
AcDbSymbolTable
 70
     0
  0
ENDTAB
  0
TABLE
  2
UCS
  5
7
100
AcDbSymbolTable
 70
     0
  0
ENDTAB
  0
TABLE
  2
APPID
  5
9
100
AcDbSymbolTable
 70
     1
  0
APPID
  5
10
100
AcDbSymbolTableRecord
100
AcDbRegAppTableRecord
  2
ACAD
 70
     0
  0
ENDTAB
  0
TABLE
  2
DIMSTYLE
  5
A
100
AcDbSymbolTable
 70
     1
  0
DIMSTYLE
105
1D
100
AcDbSymbolTableRecord
100
AcDbDimStyleTableRecord
  2
STANDARD
 70
     0
  3

  4

  5

  6

  7

 40
1.0
 41
0.18
 42
0.0625
 43
0.38
 44
0.18
 45
0.0
 46
0.0
 47
0.0
 48
0.0
140
0.18
141
0.09
142
0.0
143
25.4
144
1.0
145
0.0
146
1.0
147
0.09
 71
     0
 72
     0
 73
     1
 74
     1
 75
     0
 76
     0
 77
     0
 78
     0
170
     0
171
     2
172
     0
173
     0
174
     0
175
     0
176
     0
177
     0
178
     0
270
     2
271
     4
272
     4
273
     2
274
     2
340
F
275
     0
280
     0
281
     0
282
     0
283
     1
284
     0
285
     0
286
     0
287
     3
288
     0
  0
ENDTAB
  0
TABLE
  2
BLOCK_RECORD
  5
1
100
AcDbSymbolTable
 70
     0
  0
BLOCK_RECORD
  5
18
100
AcDbSymbolTableRecord
100
AcDbBlockTableRecord
  2
*MODEL_SPACE
  0
BLOCK_RECORD
  5
15
100
AcDbSymbolTableRecord
100
AcDbBlockTableRecord
  2
*PAPER_SPACE
  0
ENDTAB
  0
ENDSEC
  0
SECTION
  2
BLOCKS
  0
BLOCK
  5
19
100
AcDbEntity
  8
0
100
AcDbBlockBegin
  2
*MODEL_SPACE
 70
     0
 10
0.0
 20
0.0
 30
0.0
  3
*MODEL_SPACE
  1

  0
ENDBLK
  5
1A
100
AcDbEntity
  8
0
100
AcDbBlockEnd
  0
BLOCK
  5
16
100
AcDbEntity
 67
     1
  8
0
100
AcDbBlockBegin
  2
*PAPER_SPACE
 70
     0
 10
0.0
 20
0.0
 30
0.0
  3
*PAPER_SPACE
  1

  0
ENDBLK
  5
17
100
AcDbEntity
 67
     1
  8
0
100
AcDbBlockEnd
  0
ENDSEC
  0
SECTION
  2
ENTITIES
  0
ARC
  5
2BC3
100
AcDbEntity
  8
0
100
AcDbCircle
 10
299.791761
 20
-96.528027
 30
0.0
 40
82.206565
100
AcDbArc
 50
149.702654
 51
161.71175
  0
ARC
  5
2BC4
100
AcDbEntity
  8
0
100
AcDbCircle
 10
147.366564
 20
-66.208771
 30
0.0
 40
82.206565
100
AcDbArc
 50
355.78825
 51
7.797346
  0
ARC
  5
2BD1
100
AcDbEntity
  8
0
100
AcDbCircle
 10
221.169137
 20
-93.484414
 30
0.0
 40
22.759718
100
AcDbArc
 50
68.93086
 51
88.56914
  0
ARC
  5
2C64
100
AcDbEntity
  8
0
100
AcDbCircle
 10
221.169137
 20
-42.49204
 30
0.0
 40
5.751159
100
AcDbArc
 50
17.913411
 51
162.086589
  0
LINE
  5
2C77
100
AcDbEntity
  8
0
100
AcDbLine
 10
212.911355
 20
-51.96974
 30
0.0
 11
215.696781
 21
-40.723102
 31
0.0
  0
LINE
  5
2CA5
100
AcDbEntity
  8
0
100
AcDbLine
 10
229.426919
 20
-51.96974
 30
0.0
 11
226.641494
 21
-40.723102
 31
0.0
  0
ARC
  5
2DA5
100
AcDbEntity
  8
0
100
AcDbCircle
 10
224.74846
 20
-55.92616
 30
0.0
 40
4.184783
100
AcDbArc
 50
101.506787
 51
148.794958
  0
ARC
  5
2DA6
100
AcDbEntity
  8
0
100
AcDbCircle
 10
217.64846
 20
-55.92616
 30
0.0
 40
4.184783
100
AcDbArc
 50
101.506787
 51
139.719183
  0
ARC
  5
2DA7
100
AcDbEntity
  8
0
100
AcDbCircle
 10
221.169137
 20
-51.652051
 30
0.0
 40
2.75
100
AcDbArc
 50
356.384095
 51
183.615905
  0
ARC
  5
2DA8
100
AcDbEntity
  8
0
100
AcDbCircle
 10
217.589815
 20
-55.92616
 30
0.0
 40
4.184783
100
AcDbArc
 50
31.205042
 51
78.493213
  0
ARC
  5
2DAA
100
AcDbEntity
  8
0
100
AcDbCircle
 10
214.069137
 20
-51.652051
 30
0.0
 40
2.75
100
AcDbArc
 50
356.384095
 51
60.207853
  0
ARC
  5
2DAC
100
AcDbEntity
  8
0
100
AcDbCircle
 10
228.269137
 20
-51.652051
 30
0.0
 40
2.75
100
AcDbArc
 50
119.792147
 51
183.615905
  0
ARC
  5
2DAD
100
AcDbEntity
  8
0
100
AcDbCircle
 10
224.689815
 20
-55.92616
 30
0.0
 40
4.184783
100
AcDbArc
 50
40.280817
 51
78.493213
  0
ARC
  5
2DAF
100
AcDbEntity
  8
0
100
AcDbCircle
 10
224.719137
 20
-56.16097
 30
0.0
 40
2.75
100
AcDbArc
 50
34.317133
 51
183.615905
  0
ARC
  5
2DB0
100
AcDbEntity
  8
0
100
AcDbCircle
 10
228.29846
 20
-60.435078
 30
0.0
 40
4.184783
100
AcDbArc
 50
132.170836
 51
148.794958
  0
ARC
  5
2DD4
100
AcDbEntity
  8
0
100
AcDbCircle
 10
224.74846
 20
-64.943997
 30
0.0
 40
4.184783
100
AcDbArc
 50
101.506787
 51
148.794958
  0
ARC
  5
2DD6
100
AcDbEntity
  8
0
100
AcDbCircle
 10
217.589815
 20
-64.943997
 30
0.0
 40
4.184783
100
AcDbArc
 50
31.205042
 51
78.493213
  0
ARC
  5
2DD7
100
AcDbEntity
  8
0
100
AcDbCircle
 10
221.169137
 20
-60.669888
 30
0.0
 40
2.75
100
AcDbArc
 50
356.384095
 51
183.615905
  0
ARC
  5
2DE0
100
AcDbEntity
  8
0
100
AcDbCircle
 10
217.619137
 20
-56.16097
 30
0.0
 40
2.75
100
AcDbArc
 50
356.384095
 51
145.682867
  0
ARC
  5
2DE1
100
AcDbEntity
  8
0
100
AcDbCircle
 10
221.19846
 20
-60.435078
 30
0.0
 40
4.184783
100
AcDbArc
 50
101.506787
 51
148.794958
  0
ARC
  5
2DE2
100
AcDbEntity
  8
0
100
AcDbCircle
 10
214.039815
 20
-60.435078
 30
0.0
 40
4.184783
100
AcDbArc
 50
31.205042
 51
47.829164
  0
ARC
  5
2DE3
100
AcDbEntity
  8
0
100
AcDbCircle
 10
221.139815
 20
-60.435078
 30
0.0
 40
4.184783
100
AcDbArc
 50
31.205042
 51
78.493213
  0
ARC
  5
2DF3
100
AcDbEntity
  8
0
100
AcDbCircle
 10
224.719137
 20
-47.143133
 30
0.0
 40
2.75
100
AcDbArc
 50
68.091193
 51
183.615905
  0
ARC
  5
2DF4
100
AcDbEntity
  8
0
100
AcDbCircle
 10
228.29846
 20
-51.417242
 30
0.0
 40
4.184783
100
AcDbArc
 50
115.454351
 51
148.794958
  0
ARC
  5
2E00
100
AcDbEntity
  8
0
100
AcDbCircle
 10
224.74846
 20
-46.908324
 30
0.0
 40
4.184783
100
AcDbArc
 50
101.506787
 51
148.794958
  0
ARC
  5
2E02
100
AcDbEntity
  8
0
100
AcDbCircle
 10
221.169137
 20
-42.634215
 30
0.0
 40
2.75
100
AcDbArc
 50
356.384095
 51
183.615905
  0
ARC
  5
2E03
100
AcDbEntity
  8
0
100
AcDbCircle
 10
217.589815
 20
-46.908324
 30
0.0
 40
4.184783
100
AcDbArc
 50
31.205042
 51
78.493213
  0
ARC
  5
2E04
100
AcDbEntity
  8
0
100
AcDbCircle
 10
221.19846
 20
-51.417242
 30
0.0
 40
4.184783
100
AcDbArc
 50
101.506787
 51
148.794958
  0
ARC
  5
2E05
100
AcDbEntity
  8
0
100
AcDbCircle
 10
217.619137
 20
-47.143133
 30
0.0
 40
2.75
100
AcDbArc
 50
356.384095
 51
111.908807
  0
ARC
  5
2E06
100
AcDbEntity
  8
0
100
AcDbCircle
 10
214.039815
 20
-51.417242
 30
0.0
 40
4.184783
100
AcDbArc
 50
31.205042
 51
64.545649
  0
ARC
  5
2E07
100
AcDbEntity
  8
0
100
AcDbCircle
 10
221.139815
 20
-51.417242
 30
0.0
 40
4.184783
100
AcDbArc
 50
31.205042
 51
78.493213
  0
ARC
  5
2E17
100
AcDbEntity
  8
0
100
AcDbCircle
 10
299.791761
 20
-96.528027
 30
0.0
 40
84.006565
100
AcDbArc
 50
150.067587
 51
152.188476
  0
LINE
  5
2E19
100
AcDbEntity
  8
0
100
AcDbLine
 10
214.455953
 20
-53.220554
 30
0.0
 11
215.435489
 21
-49.265509
 31
0.0
  0
LINE
  5
2E1A
100
AcDbEntity
  8
0
100
AcDbLine
 10
227.882322
 20
-53.220554
 30
0.0
 11
226.902786
 21
-49.265509
 31
0.0
  0
LINE
  5
2E25
100
AcDbEntity
  8
0
100
AcDbLine
 10
226.499874
 20
-47.638684
 30
0.0
 11
225.745246
 21
-44.591741
 31
0.0
  0
LINE
  5
2E26
100
AcDbEntity
  8
0
100
AcDbLine
 10
215.8384
 20
-47.638684
 30
0.0
 11
216.593029
 21
-44.591741
 31
0.0
  0
ARC
  5
2E27
100
AcDbEntity
  8
0
100
AcDbCircle
 10
142.546514
 20
-96.528027
 30
0.0
 40
84.006565
100
AcDbArc
 50
27.811524
 51
29.932413
  0
ARC
  5
3072
100
AcDbEntity
  8
0
100
AcDbCircle
 10
294.97171
 20
-66.208771
 30
0.0
 40
84.006565
100
AcDbArc
 50
172.567587
 51
174.688476
  0
ARC
  5
3073
100
AcDbEntity
  8
0
100
AcDbCircle
 10
149.696045
 20
-126.383921
 30
0.0
 40
84.006565
100
AcDbArc
 50
50.311524
 51
52.432413
  0
ARC
  5
3074
100
AcDbEntity
  8
0
100
AcDbCircle
 10
203.606301
 20
-60.360574
 30
0.0
 40
2.75
100
AcDbArc
 50
18.884095
 51
168.182867
  0
ARC
  5
3075
100
AcDbEntity
  8
0
100
AcDbCircle
 10
210.165846
 20
-57.643521
 30
0.0
 40
2.75
100
AcDbArc
 50
56.817133
 51
206.115905
  0
ARC
  5
3076
100
AcDbEntity
  8
0
100
AcDbCircle
 10
294.97171
 20
-66.208771
 30
0.0
 40
82.206565
100
AcDbArc
 50
172.202654
 51
184.21175
  0
ARC
  5
3077
100
AcDbEntity
  8
0
100
AcDbCircle
 10
142.546514
 20
-96.528027
 30
0.0
 40
82.206565
100
AcDbArc
 50
18.28825
 51
30.297346
  0
ARC
  5
3078
100
AcDbEntity
  8
0
100
AcDbCircle
 10
221.169137
 20
-93.484414
 30
0.0
 40
22.759718
100
AcDbArc
 50
91.43086
 51
111.06914
  0
ARC
  5
3079
100
AcDbEntity
  8
0
100
AcDbCircle
 10
213.554055
 20
-65.746759
 30
0.0
 40
4.184783
100
AcDbArc
 50
124.006787
 51
171.294958
  0
ARC
  5
307A
100
AcDbEntity
  8
0
100
AcDbCircle
 10
208.494613
 20
-62.962031
 30
0.0
 40
4.184783
100
AcDbArc
 50
53.705042
 51
100.993213
  0
ARC
  5
307B
100
AcDbEntity
  8
0
100
AcDbCircle
 10
208.611562
 20
-63.167745
 30
0.0
 40
2.75
100
AcDbArc
 50
18.884095
 51
206.115905
  0
ARC
  5
307C
100
AcDbEntity
  8
0
100
AcDbCircle
 10
206.940329
 20
-68.486254
 30
0.0
 40
4.184783
100
AcDbArc
 50
53.705042
 51
100.993213
  0
ARC
  5
307D
100
AcDbEntity
  8
0
100
AcDbCircle
 10
201.935069
 20
-65.679083
 30
0.0
 40
4.184783
100
AcDbArc
 50
53.705042
 51
70.329164
  0
ARC
  5
307E
100
AcDbEntity
  8
0
100
AcDbCircle
 10
208.548795
 20
-62.939588
 30
0.0
 40
4.184783
100
AcDbArc
 50
124.006787
 51
171.294958
  0
ARC
  5
307F
100
AcDbEntity
  8
0
100
AcDbCircle
 10
215.108339
 20
-60.222536
 30
0.0
 40
4.184783
100
AcDbArc
 50
154.670836
 51
171.294958
  0
ARC
  5
3080
100
AcDbEntity
  8
0
100
AcDbCircle
 10
203.543534
 20
-60.132417
 30
0.0
 40
4.184783
100
AcDbArc
 50
124.006787
 51
162.219183
  0
LINE
  5
3081
100
AcDbEntity
  8
0
100
AcDbLine
 10
199.558651
 20
-58.854483
 30
0.0
 11
198.950094
 21
-54.825645
 31
0.0
  0
LINE
  5
3082
100
AcDbEntity
  8
0
100
AcDbLine
 10
197.652963
 20
-58.289972
 30
0.0
 11
195.922459
 21
-46.833498
 31
0.0
  0
LINE
  5
3083
100
AcDbEntity
  8
0
100
AcDbLine
 10
208.549695
 20
-49.088498
 30
0.0
 11
206.686494
 21
-46.562273
 31
0.0
  0
LINE
  5
3084
100
AcDbEntity
  8
0
100
AcDbLine
 10
198.699777
 20
-53.168468
 30
0.0
 11
198.230948
 21
-50.064675
 31
0.0
  0
ARC
  5
3085
100
AcDbEntity
  8
0
100
AcDbCircle
 10
200.155324
 20
-52.029179
 30
0.0
 40
2.75
100
AcDbArc
 50
18.884095
 51
134.408807
  0
ARC
  5
3086
100
AcDbEntity
  8
0
100
AcDbCircle
 10
206.714869
 20
-49.312127
 30
0.0
 40
2.75
100
AcDbArc
 50
90.591193
 51
206.115905
  0
LINE
  5
3087
100
AcDbEntity
  8
0
100
AcDbLine
 10
212.911355
 20
-51.96974
 30
0.0
 11
206.034056
 21
-42.645138
 31
0.0
  0
ARC
  5
3088
100
AcDbEntity
  8
0
100
AcDbCircle
 10
205.043637
 20
-54.630636
 30
0.0
 40
4.184783
100
AcDbArc
 50
53.705042
 51
100.993213
  0
ARC
  5
3089
100
AcDbEntity
  8
0
100
AcDbCircle
 10
210.103079
 20
-57.415364
 30
0.0
 40
4.184783
100
AcDbArc
 50
124.006787
 51
171.294958
  0
ARC
  5
308A
100
AcDbEntity
  8
0
100
AcDbCircle
 10
205.160585
 20
-54.83635
 30
0.0
 40
2.75
100
AcDbArc
 50
18.884095
 51
206.115905
  0
ARC
  5
308B
100
AcDbEntity
  8
0
100
AcDbCircle
 10
198.484092
 20
-57.347688
 30
0.0
 40
4.184783
100
AcDbArc
 50
53.705042
 51
87.045649
  0
ARC
  5
308C
100
AcDbEntity
  8
0
100
AcDbCircle
 10
205.097818
 20
-54.608193
 30
0.0
 40
4.184783
100
AcDbArc
 50
124.006787
 51
171.294958
  0
ARC
  5
308D
100
AcDbEntity
  8
0
100
AcDbCircle
 10
203.489353
 20
-60.154859
 30
0.0
 40
4.184783
100
AcDbArc
 50
53.705042
 51
100.993213
  0
ARC
  5
308E
100
AcDbEntity
  8
0
100
AcDbCircle
 10
198.60104
 20
-57.553403
 30
0.0
 40
2.75
100
AcDbArc
 50
18.884095
 51
82.707853
  0
ARC
  5
308F
100
AcDbEntity
  8
0
100
AcDbCircle
 10
210.048897
 20
-57.437807
 30
0.0
 40
4.184783
100
AcDbArc
 50
62.780817
 51
100.993213
  0
LINE
  5
3090
100
AcDbEntity
  8
0
100
AcDbLine
 10
211.962999
 20
-53.716434
 30
0.0
 11
209.544496
 21
-50.4373
 31
0.0
  0
ARC
  5
3091
100
AcDbEntity
  8
0
100
AcDbCircle
 10
211.657363
 20
-51.891141
 30
0.0
 40
4.184783
100
AcDbArc
 50
137.954351
 51
171.294958
  0
ARC
  5
3092
100
AcDbEntity
  8
0
100
AcDbCircle
 10
211.72013
 20
-52.119298
 30
0.0
 40
2.75
100
AcDbArc
 50
142.292147
 51
206.115905
  0
ARC
  5
3093
100
AcDbEntity
  8
0
100
AcDbCircle
 10
206.652102
 20
-49.08397
 30
0.0
 40
4.184783
100
AcDbArc
 50
124.006787
 51
171.294958
  0
ARC
  5
3094
100
AcDbEntity
  8
0
100
AcDbCircle
 10
201.709608
 20
-46.504956
 30
0.0
 40
2.75
100
AcDbArc
 50
18.884095
 51
206.115905
  0
ARC
  5
3095
100
AcDbEntity
  8
0
100
AcDbCircle
 10
201.6552
 20
-46.373603
 30
0.0
 40
5.751159
100
AcDbArc
 50
40.413411
 51
184.586589
  0
ARC
  5
3096
100
AcDbEntity
  8
0
100
AcDbCircle
 10
200.038376
 20
-51.823465
 30
0.0
 40
4.184783
100
AcDbArc
 50
53.705042
 51
100.993213
  0
ARC
  5
3097
100
AcDbEntity
  8
0
100
AcDbCircle
 10
278.915887
 20
-40.041983
 30
0.0
 40
84.006565
100
AcDbArc
 50
195.067587
 51
197.188476
  0
ARC
  5
3098
100
AcDbEntity
  8
0
100
AcDbCircle
 10
167.726707
 20
-151.231164
 30
0.0
 40
84.006565
100
AcDbArc
 50
72.811524
 51
74.932413
  0
ARC
  5
3099
100
AcDbEntity
  8
0
100
AcDbCircle
 10
192.267247
 20
-69.602982
 30
0.0
 40
2.75
100
AcDbArc
 50
41.384095
 51
190.682867
  0
ARC
  5
309A
100
AcDbEntity
  8
0
100
AcDbCircle
 10
197.287706
 20
-64.582524
 30
0.0
 40
2.75
100
AcDbArc
 50
79.317133
 51
228.615905
  0
ARC
  5
309B
100
AcDbEntity
  8
0
100
AcDbCircle
 10
278.915887
 20
-40.041983
 30
0.0
 40
82.206565
100
AcDbArc
 50
194.702654
 51
206.71175
  0
ARC
  5
309C
100
AcDbEntity
  8
0
100
AcDbCircle
 10
149.696045
 20
-126.383921
 30
0.0
 40
82.206565
100
AcDbArc
 50
40.78825
 51
52.797346
  0
ARC
  5
309D
100
AcDbEntity
  8
0
100
AcDbCircle
 10
221.169137
 20
-93.484414
 30
0.0
 40
22.759718
100
AcDbArc
 50
113.93086
 51
133.56914
  0
ARC
  5
309E
100
AcDbEntity
  8
0
100
AcDbCircle
 10
203.518978
 20
-70.772328
 30
0.0
 40
4.184783
100
AcDbArc
 50
146.506787
 51
193.794958
  0
ARC
  5
309F
100
AcDbEntity
  8
0
100
AcDbCircle
 10
197.778994
 20
-70.135739
 30
0.0
 40
4.184783
100
AcDbArc
 50
76.205042
 51
123.493213
  0
ARC
  5
30A0
100
AcDbEntity
  8
0
100
AcDbCircle
 10
197.965763
 20
-70.28104
 30
0.0
 40
2.75
100
AcDbArc
 50
41.384095
 51
228.615905
  0
ARC
  5
30A1
100
AcDbEntity
  8
0
100
AcDbCircle
 10
198.457051
 20
-75.834255
 30
0.0
 40
4.184783
100
AcDbArc
 50
76.205042
 51
123.493213
  0
ARC
  5
30A2
100
AcDbEntity
  8
0
100
AcDbCircle
 10
192.758535
 20
-75.156197
 30
0.0
 40
4.184783
100
AcDbArc
 50
76.205042
 51
92.829164
  0
ARC
  5
30A3
100
AcDbEntity
  8
0
100
AcDbCircle
 10
197.820462
 20
-70.09427
 30
0.0
 40
4.184783
100
AcDbArc
 50
146.506787
 51
193.794958
  0
ARC
  5
30A4
100
AcDbEntity
  8
0
100
AcDbCircle
 10
202.84092
 20
-65.073812
 30
0.0
 40
4.184783
100
AcDbArc
 50
177.170836
 51
193.794958
  0
ARC
  5
30A5
100
AcDbEntity
  8
0
100
AcDbCircle
 10
192.121946
 20
-69.416213
 30
0.0
 40
4.184783
100
AcDbArc
 50
146.506787
 51
184.719183
  0
LINE
  5
30A6
100
AcDbEntity
  8
0
100
AcDbLine
 10
187.951351
 20
-69.760504
 30
0.0
 11
185.847348
 21
-66.271228
 31
0.0
  0
LINE
  5
30A7
100
AcDbEntity
  8
0
100
AcDbLine
 10
185.974696
 20
-69.96824
 30
0.0
 11
179.991716
 21
-60.046073
 31
0.0
  0
LINE
  5
30A8
100
AcDbEntity
  8
0
100
AcDbLine
 10
192.520711
 20
-57.297187
 30
0.0
 11
189.832594
 21
-55.676276
 31
0.0
  0
LINE
  5
30A9
100
AcDbEntity
  8
0
100
AcDbLine
 10
184.981911
 20
-64.835988
 30
0.0
 11
183.360999
 21
-62.147871
 31
0.0
  0
ARC
  5
30AA
100
AcDbEntity
  8
0
100
AcDbCircle
 10
185.890674
 20
-63.226409
 30
0.0
 40
2.75
100
AcDbArc
 50
41.384095
 51
156.908807
  0
ARC
  5
30AB
100
AcDbEntity
  8
0
100
AcDbCircle
 10
190.911132
 20
-58.205951
 30
0.0
 40
2.75
100
AcDbArc
 50
113.091193
 51
228.615905
  0
LINE
  5
30AC
100
AcDbEntity
  8
0
100
AcDbLine
 10
197.652963
 20
-58.289972
 30
0.0
 11
187.730796
 21
-52.306992
 31
0.0
  0
ARC
  5
30AD
100
AcDbEntity
  8
0
100
AcDbCircle
 10
191.40242
 20
-63.759166
 30
0.0
 40
4.184783
100
AcDbArc
 50
76.205042
 51
123.493213
  0
ARC
  5
30AE
100
AcDbEntity
  8
0
100
AcDbCircle
 10
197.142405
 20
-64.395755
 30
0.0
 40
4.184783
100
AcDbArc
 50
146.506787
 51
193.794958
  0
ARC
  5
30AF
100
AcDbEntity
  8
0
100
AcDbCircle
 10
191.58919
 20
-63.904467
 30
0.0
 40
2.75
100
AcDbArc
 50
41.384095
 51
228.615905
  0
ARC
  5
30B0
100
AcDbEntity
  8
0
100
AcDbCircle
 10
186.381962
 20
-68.779624
 30
0.0
 40
4.184783
100
AcDbArc
 50
76.205042
 51
109.545649
  0
ARC
  5
30B1
100
AcDbEntity
  8
0
100
AcDbCircle
 10
191.443889
 20
-63.717697
 30
0.0
 40
4.184783
100
AcDbArc
 50
146.506787
 51
193.794958
  0
ARC
  5
30B2
100
AcDbEntity
  8
0
100
AcDbCircle
 10
192.080478
 20
-69.457681
 30
0.0
 40
4.184783
100
AcDbArc
 50
76.205042
 51
123.493213
  0
ARC
  5
30B3
100
AcDbEntity
  8
0
100
AcDbCircle
 10
186.568732
 20
-68.924925
 30
0.0
 40
2.75
100
AcDbArc
 50
41.384095
 51
105.207853
  0
ARC
  5
30B4
100
AcDbEntity
  8
0
100
AcDbCircle
 10
197.100936
 20
-64.437223
 30
0.0
 40
4.184783
100
AcDbArc
 50
85.280817
 51
123.493213
  0
LINE
  5
30B5
100
AcDbEntity
  8
0
100
AcDbLine
 10
197.445227
 20
-60.266627
 30
0.0
 11
193.955952
 21
-58.162625
 31
0.0
  0
ARC
  5
30B6
100
AcDbEntity
  8
0
100
AcDbCircle
 10
196.464347
 20
-58.697239
 30
0.0
 40
4.184783
100
AcDbArc
 50
160.454351
 51
193.794958
  0
ARC
  5
30B7
100
AcDbEntity
  8
0
100
AcDbCircle
 10
196.609648
 20
-58.884009
 30
0.0
 40
2.75
100
AcDbArc
 50
164.792147
 51
228.615905
  0
ARC
  5
30B8
100
AcDbEntity
  8
0
100
AcDbCircle
 10
190.765831
 20
-58.019181
 30
0.0
 40
4.184783
100
AcDbArc
 50
146.506787
 51
193.794958
  0
ARC
  5
30B9
100
AcDbEntity
  8
0
100
AcDbCircle
 10
185.212617
 20
-57.527893
 30
0.0
 40
2.75
100
AcDbArc
 50
41.384095
 51
228.615905
  0
ARC
  5
30BA
100
AcDbEntity
  8
0
100
AcDbCircle
 10
185.112084
 20
-57.427361
 30
0.0
 40
5.751159
100
AcDbArc
 50
62.913411
 51
207.086589
  0
ARC
  5
30BB
100
AcDbEntity
  8
0
100
AcDbCircle
 10
185.703904
 20
-63.081108
 30
0.0
 40
4.184783
100
AcDbArc
 50
76.205042
 51
123.493213
  0
ARC
  5
30BC
100
AcDbEntity
  8
0
100
AcDbCircle
 10
254.068645
 20
-22.011322
 30
0.0
 40
84.006565
100
AcDbArc
 50
217.567587
 51
219.688476
  0
ARC
  5
30BD
100
AcDbEntity
  8
0
100
AcDbCircle
 10
193.893494
 20
-167.286987
 30
0.0
 40
84.006565
100
AcDbArc
 50
95.311524
 51
97.432413
  0
ARC
  5
30BE
100
AcDbEntity
  8
0
100
AcDbCircle
 10
185.328245
 20
-82.481123
 30
0.0
 40
2.75
100
AcDbArc
 50
63.884095
 51
213.182867
  0
ARC
  5
30BF
100
AcDbEntity
  8
0
100
AcDbCircle
 10
188.045297
 20
-75.921578
 30
0.0
 40
2.75
100
AcDbArc
 50
101.817133
 51
251.115905
  0
ARC
  5
30C0
100
AcDbEntity
  8
0
100
AcDbCircle
 10
254.068645
 20
-22.011322
 30
0.0
 40
82.206565
100
AcDbArc
 50
217.202654
 51
229.21175
  0
ARC
  5
30C1
100
AcDbEntity
  8
0
100
AcDbCircle
 10
167.726707
 20
-151.231164
 30
0.0
 40
82.206565
100
AcDbArc
 50
63.28825
 51
75.297346
  0
ARC
  5
30C2
100
AcDbEntity
  8
0
100
AcDbCircle
 10
221.169137
 20
-93.484414
 30
0.0
 40
22.759718
100
AcDbArc
 50
136.43086
 51
156.06914
  0
ARC
  5
30C3
100
AcDbEntity
  8
0
100
AcDbCircle
 10
196.170977
 20
-79.255606
 30
0.0
 40
4.184783
100
AcDbArc
 50
169.006787
 51
216.294958
  0
ARC
  5
30C4
100
AcDbEntity
  8
0
100
AcDbCircle
 10
190.624311
 20
-80.864071
 30
0.0
 40
4.184783
100
AcDbArc
 50
98.705042
 51
145.993213
  0
ARC
  5
30C5
100
AcDbEntity
  8
0
100
AcDbCircle
 10
190.852468
 20
-80.926838
 30
0.0
 40
2.75
100
AcDbArc
 50
63.884095
 51
251.115905
  0
ARC
  5
30C6
100
AcDbEntity
  8
0
100
AcDbCircle
 10
193.431482
 20
-85.869332
 30
0.0
 40
4.184783
100
AcDbArc
 50
98.705042
 51
145.993213
  0
ARC
  5
30C7
100
AcDbEntity
  8
0
100
AcDbCircle
 10
187.907259
 20
-87.423616
 30
0.0
 40
4.184783
100
AcDbArc
 50
98.705042
 51
115.329164
  0
ARC
  5
30C8
100
AcDbEntity
  8
0
100
AcDbCircle
 10
190.646754
 20
-80.80989
 30
0.0
 40
4.184783
100
AcDbArc
 50
169.006787
 51
216.294958
  0
ARC
  5
30C9
100
AcDbEntity
  8
0
100
AcDbCircle
 10
193.363806
 20
-74.250345
 30
0.0
 40
4.184783
100
AcDbArc
 50
199.670836
 51
216.294958
  0
ARC
  5
30CA
100
AcDbEntity
  8
0
100
AcDbCircle
 10
185.12253
 20
-82.364174
 30
0.0
 40
4.184783
100
AcDbArc
 50
169.006787
 51
207.219183
  0
LINE
  5
30CB
100
AcDbEntity
  8
0
100
AcDbLine
 10
181.401157
 20
-84.278276
 30
0.0
 11
178.122024
 21
-81.859772
 31
0.0
  0
LINE
  5
30CC
100
AcDbEntity
  8
0
100
AcDbLine
 10
179.654463
 20
-85.226632
 30
0.0
 11
170.329861
 21
-78.349332
 31
0.0
  0
LINE
  5
30CD
100
AcDbEntity
  8
0
100
AcDbLine
 10
180.853191
 20
-71.015054
 30
0.0
 11
177.749398
 21
-70.546225
 31
0.0
  0
LINE
  5
30CE
100
AcDbEntity
  8
0
100
AcDbLine
 10
176.773221
 20
-80.864972
 30
0.0
 11
174.246996
 21
-79.001771
 31
0.0
  0
ARC
  5
30CF
100
AcDbEntity
  8
0
100
AcDbCircle
 10
176.99685
 20
-79.030146
 30
0.0
 40
2.75
100
AcDbArc
 50
63.884095
 51
179.408807
  0
ARC
  5
30D0
100
AcDbEntity
  8
0
100
AcDbCircle
 10
179.713902
 20
-72.470601
 30
0.0
 40
2.75
100
AcDbArc
 50
135.591193
 51
251.115905
  0
LINE
  5
30D1
100
AcDbEntity
  8
0
100
AcDbLine
 10
185.974696
 20
-69.96824
 30
0.0
 11
174.518221
 21
-68.237736
 31
0.0
  0
ARC
  5
30D2
100
AcDbEntity
  8
0
100
AcDbCircle
 10
182.292917
 20
-77.413095
 30
0.0
 40
4.184783
100
AcDbArc
 50
98.705042
 51
145.993213
  0
ARC
  5
30D3
100
AcDbEntity
  8
0
100
AcDbCircle
 10
187.839583
 20
-75.80463
 30
0.0
 40
4.184783
100
AcDbArc
 50
169.006787
 51
216.294958
  0
ARC
  5
30D4
100
AcDbEntity
  8
0
100
AcDbCircle
 10
182.521074
 20
-77.475862
 30
0.0
 40
2.75
100
AcDbArc
 50
63.884095
 51
251.115905
  0
ARC
  5
30D5
100
AcDbEntity
  8
0
100
AcDbCircle
 10
179.575864
 20
-83.972639
 30
0.0
 40
4.184783
100
AcDbArc
 50
98.705042
 51
132.045649
  0
ARC
  5
30D6
100
AcDbEntity
  8
0
100
AcDbCircle
 10
182.315359
 20
-77.358914
 30
0.0
 40
4.184783
100
AcDbArc
 50
169.006787
 51
216.294958
  0
ARC
  5
30D7
100
AcDbEntity
  8
0
100
AcDbCircle
 10
185.100088
 20
-82.418355
 30
0.0
 40
4.184783
100
AcDbArc
 50
98.705042
 51
145.993213
  0
ARC
  5
30D8
100
AcDbEntity
  8
0
100
AcDbCircle
 10
179.804021
 20
-84.035407
 30
0.0
 40
2.75
100
AcDbArc
 50
63.884095
 51
127.707853
  0
ARC
  5
30D9
100
AcDbEntity
  8
0
100
AcDbCircle
 10
187.81714
 20
-75.858811
 30
0.0
 40
4.184783
100
AcDbArc
 50
107.780817
 51
145.993213
  0
LINE
  5
30DA
100
AcDbEntity
  8
0
100
AcDbLine
 10
186.539206
 20
-71.873928
 30
0.0
 11
182.510368
 21
-71.265371
 31
0.0
  0
ARC
  5
30DB
100
AcDbEntity
  8
0
100
AcDbCircle
 10
185.032412
 20
-70.799369
 30
0.0
 40
4.184783
100
AcDbArc
 50
182.954351
 51
216.294958
  0
ARC
  5
30DC
100
AcDbEntity
  8
0
100
AcDbCircle
 10
185.238126
 20
-70.916317
 30
0.0
 40
2.75
100
AcDbArc
 50
187.292147
 51
251.115905
  0
ARC
  5
30DD
100
AcDbEntity
  8
0
100
AcDbCircle
 10
179.508188
 20
-72.353653
 30
0.0
 40
4.184783
100
AcDbArc
 50
169.006787
 51
216.294958
  0
ARC
  5
30DE
100
AcDbEntity
  8
0
100
AcDbCircle
 10
174.189679
 20
-74.024885
 30
0.0
 40
2.75
100
AcDbArc
 50
63.884095
 51
251.115905
  0
ARC
  5
30DF
100
AcDbEntity
  8
0
100
AcDbCircle
 10
174.058327
 20
-73.970477
 30
0.0
 40
5.751159
100
AcDbArc
 50
85.413411
 51
229.586589
  0
ARC
  5
30E0
100
AcDbEntity
  8
0
100
AcDbCircle
 10
176.768693
 20
-78.967379
 30
0.0
 40
4.184783
100
AcDbArc
 50
98.705042
 51
145.993213
  0
ARC
  5
30E1
100
AcDbEntity
  8
0
100
AcDbCircle
 10
224.212751
 20
-14.861791
 30
0.0
 40
84.006565
100
AcDbArc
 50
240.067587
 51
242.188476
  0
ARC
  5
30E2
100
AcDbEntity
  8
0
100
AcDbCircle
 10
224.212751
 20
-172.107037
 30
0.0
 40
84.006565
100
AcDbArc
 50
117.811524
 51
119.932413
  0
ARC
  5
30E3
100
AcDbEntity
  8
0
100
AcDbCircle
 10
183.845693
 20
-97.034414
 30
0.0
 40
2.75
100
AcDbArc
 50
86.384095
 51
235.682867
  0
ARC
  5
30E4
100
AcDbEntity
  8
0
100
AcDbCircle
 10
183.845693
 20
-89.934414
 30
0.0
 40
2.75
100
AcDbArc
 50
124.317133
 51
273.615905
  0
ARC
  5
30E5
100
AcDbEntity
  8
0
100
AcDbCircle
 10
224.212751
 20
-14.861791
 30
0.0
 40
82.206565
100
AcDbArc
 50
239.702654
 51
251.71175
  0
ARC
  5
30E6
100
AcDbEntity
  8
0
100
AcDbCircle
 10
193.893494
 20
-167.286987
 30
0.0
 40
82.206565
100
AcDbArc
 50
85.78825
 51
97.797346
  0
ARC
  5
30E7
100
AcDbEntity
  8
0
100
AcDbCircle
 10
221.169137
 20
-93.484414
 30
0.0
 40
22.759718
100
AcDbArc
 50
158.93086
 51
178.56914
  0
ARC
  5
30E8
100
AcDbEntity
  8
0
100
AcDbCircle
 10
192.62872
 20
-89.905091
 30
0.0
 40
4.184783
100
AcDbArc
 50
191.506787
 51
238.794958
  0
ARC
  5
30E9
100
AcDbEntity
  8
0
100
AcDbCircle
 10
188.119802
 20
-93.513737
 30
0.0
 40
4.184783
100
AcDbArc
 50
121.205042
 51
168.493213
  0
ARC
  5
30EA
100
AcDbEntity
  8
0
100
AcDbCircle
 10
188.354611
 20
-93.484414
 30
0.0
 40
2.75
100
AcDbArc
 50
86.384095
 51
273.615905
  0
ARC
  5
30EB
100
AcDbEntity
  8
0
100
AcDbCircle
 10
192.62872
 20
-97.063737
 30
0.0
 40
4.184783
100
AcDbArc
 50
121.205042
 51
168.493213
  0
ARC
  5
30EC
100
AcDbEntity
  8
0
100
AcDbCircle
 10
188.119802
 20
-100.613737
 30
0.0
 40
4.184783
100
AcDbArc
 50
121.205042
 51
137.829164
  0
ARC
  5
30ED
100
AcDbEntity
  8
0
100
AcDbCircle
 10
188.119802
 20
-93.455091
 30
0.0
 40
4.184783
100
AcDbArc
 50
191.506787
 51
238.794958
  0
ARC
  5
30EE
100
AcDbEntity
  8
0
100
AcDbCircle
 10
188.119802
 20
-86.355091
 30
0.0
 40
4.184783
100
AcDbArc
 50
222.170836
 51
238.794958
  0
ARC
  5
30EF
100
AcDbEntity
  8
0
100
AcDbCircle
 10
183.610883
 20
-97.005091
 30
0.0
 40
4.184783
100
AcDbArc
 50
191.506787
 51
229.719183
  0
LINE
  5
30F0
100
AcDbEntity
  8
0
100
AcDbLine
 10
180.905277
 20
-100.197599
 30
0.0
 11
176.950232
 21
-99.218063
 31
0.0
  0
LINE
  5
30F1
100
AcDbEntity
  8
0
100
AcDbLine
 10
179.654463
 20
-101.742196
 30
0.0
 11
168.407826
 21
-98.956771
 31
0.0
  0
LINE
  5
30F2
100
AcDbEntity
  8
0
100
AcDbLine
 10
175.323408
 20
-88.153677
 30
0.0
 11
172.276464
 21
-88.908305
 31
0.0
  0
LINE
  5
30F3
100
AcDbEntity
  8
0
100
AcDbLine
 10
175.323408
 20
-98.815151
 30
0.0
 11
172.276464
 21
-98.060523
 31
0.0
  0
ARC
  5
30F4
100
AcDbEntity
  8
0
100
AcDbCircle
 10
174.827856
 20
-97.034414
 30
0.0
 40
2.75
100
AcDbArc
 50
86.384095
 51
201.908807
  0
ARC
  5
30F5
100
AcDbEntity
  8
0
100
AcDbCircle
 10
174.827856
 20
-89.934414
 30
0.0
 40
2.75
100
AcDbArc
 50
158.091193
 51
273.615905
  0
LINE
  5
30F6
100
AcDbEntity
  8
0
100
AcDbLine
 10
179.654463
 20
-85.226632
 30
0.0
 11
168.407826
 21
-88.012057
 31
0.0
  0
ARC
  5
30F7
100
AcDbEntity
  8
0
100
AcDbCircle
 10
179.101965
 20
-93.513737
 30
0.0
 40
4.184783
100
AcDbArc
 50
121.205042
 51
168.493213
  0
ARC
  5
30F8
100
AcDbEntity
  8
0
100
AcDbCircle
 10
183.610883
 20
-89.905091
 30
0.0
 40
4.184783
100
AcDbArc
 50
191.506787
 51
238.794958
  0
ARC
  5
30F9
100
AcDbEntity
  8
0
100
AcDbCircle
 10
179.336775
 20
-93.484414
 30
0.0
 40
2.75
100
AcDbArc
 50
86.384095
 51
273.615905
  0
ARC
  5
30FA
100
AcDbEntity
  8
0
100
AcDbCircle
 10
179.101965
 20
-100.613737
 30
0.0
 40
4.184783
100
AcDbArc
 50
121.205042
 51
154.545649
  0
ARC
  5
30FB
100
AcDbEntity
  8
0
100
AcDbCircle
 10
179.101965
 20
-93.455091
 30
0.0
 40
4.184783
100
AcDbArc
 50
191.506787
 51
238.794958
  0
ARC
  5
30FC
100
AcDbEntity
  8
0
100
AcDbCircle
 10
183.610883
 20
-97.063737
 30
0.0
 40
4.184783
100
AcDbArc
 50
121.205042
 51
168.493213
  0
ARC
  5
30FD
100
AcDbEntity
  8
0
100
AcDbCircle
 10
179.336775
 20
-100.584414
 30
0.0
 40
2.75
100
AcDbArc
 50
86.384095
 51
150.207853
  0
ARC
  5
30FE
100
AcDbEntity
  8
0
100
AcDbCircle
 10
183.610883
 20
-89.963737
 30
0.0
 40
4.184783
100
AcDbArc
 50
130.280817
 51
168.493213
  0
LINE
  5
30FF
100
AcDbEntity
  8
0
100
AcDbLine
 10
180.905277
 20
-86.771229
 30
0.0
 11
176.950232
 21
-87.750765
 31
0.0
  0
ARC
  5
3100
100
AcDbEntity
  8
0
100
AcDbCircle
 10
179.101965
 20
-86.355091
 30
0.0
 40
4.184783
100
AcDbArc
 50
205.454351
 51
238.794958
  0
ARC
  5
3101
100
AcDbEntity
  8
0
100
AcDbCircle
 10
179.336775
 20
-86.384414
 30
0.0
 40
2.75
100
AcDbArc
 50
209.792147
 51
273.615905
  0
ARC
  5
3102
100
AcDbEntity
  8
0
100
AcDbCircle
 10
174.593047
 20
-89.905091
 30
0.0
 40
4.184783
100
AcDbArc
 50
191.506787
 51
238.794958
  0
ARC
  5
3103
100
AcDbEntity
  8
0
100
AcDbCircle
 10
170.318938
 20
-93.484414
 30
0.0
 40
2.75
100
AcDbArc
 50
86.384095
 51
273.615905
  0
ARC
  5
3104
100
AcDbEntity
  8
0
100
AcDbCircle
 10
170.176763
 20
-93.484414
 30
0.0
 40
5.751159
100
AcDbArc
 50
107.913411
 51
252.086589
  0
ARC
  5
3105
100
AcDbEntity
  8
0
100
AcDbCircle
 10
174.593047
 20
-97.063737
 30
0.0
 40
4.184783
100
AcDbArc
 50
121.205042
 51
168.493213
  0
ARC
  5
3106
100
AcDbEntity
  8
0
100
AcDbCircle
 10
193.893494
 20
-19.681841
 30
0.0
 40
84.006565
100
AcDbArc
 50
262.567587
 51
264.688476
  0
ARC
  5
3107
100
AcDbEntity
  8
0
100
AcDbCircle
 10
254.068645
 20
-164.957506
 30
0.0
 40
84.006565
100
AcDbArc
 50
140.311524
 51
142.432413
  0
ARC
  5
3108
100
AcDbEntity
  8
0
100
AcDbCircle
 10
188.045297
 20
-111.04725
 30
0.0
 40
2.75
100
AcDbArc
 50
108.884095
 51
258.182867
  0
ARC
  5
3109
100
AcDbEntity
  8
0
100
AcDbCircle
 10
185.328245
 20
-104.487705
 30
0.0
 40
2.75
100
AcDbArc
 50
146.817133
 51
296.115905
  0
ARC
  5
310A
100
AcDbEntity
  8
0
100
AcDbCircle
 10
193.893494
 20
-19.681841
 30
0.0
 40
82.206565
100
AcDbArc
 50
262.202654
 51
274.21175
  0
ARC
  5
310B
100
AcDbEntity
  8
0
100
AcDbCircle
 10
224.212751
 20
-172.107037
 30
0.0
 40
82.206565
100
AcDbArc
 50
108.28825
 51
120.297346
  0
ARC
  5
310C
100
AcDbEntity
  8
0
100
AcDbCircle
 10
221.169137
 20
-93.484414
 30
0.0
 40
22.759718
100
AcDbArc
 50
181.43086
 51
201.06914
  0
ARC
  5
310D
100
AcDbEntity
  8
0
100
AcDbCircle
 10
193.431482
 20
-101.099496
 30
0.0
 40
4.184783
100
AcDbArc
 50
214.006787
 51
261.294958
  0
ARC
  5
310E
100
AcDbEntity
  8
0
100
AcDbCircle
 10
190.646754
 20
-106.158938
 30
0.0
 40
4.184783
100
AcDbArc
 50
143.705042
 51
190.993213
  0
ARC
  5
310F
100
AcDbEntity
  8
0
100
AcDbCircle
 10
190.852468
 20
-106.04199
 30
0.0
 40
2.75
100
AcDbArc
 50
108.884095
 51
296.115905
  0
ARC
  5
3110
100
AcDbEntity
  8
0
100
AcDbCircle
 10
196.170977
 20
-107.713222
 30
0.0
 40
4.184783
100
AcDbArc
 50
143.705042
 51
190.993213
  0
ARC
  5
3111
100
AcDbEntity
  8
0
100
AcDbCircle
 10
193.363806
 20
-112.718483
 30
0.0
 40
4.184783
100
AcDbArc
 50
143.705042
 51
160.329164
  0
ARC
  5
3112
100
AcDbEntity
  8
0
100
AcDbCircle
 10
190.624311
 20
-106.104757
 30
0.0
 40
4.184783
100
AcDbArc
 50
214.006787
 51
261.294958
  0
ARC
  5
3113
100
AcDbEntity
  8
0
100
AcDbCircle
 10
187.907259
 20
-99.545212
 30
0.0
 40
4.184783
100
AcDbArc
 50
244.670836
 51
261.294958
  0
ARC
  5
3114
100
AcDbEntity
  8
0
100
AcDbCircle
 10
187.81714
 20
-111.110017
 30
0.0
 40
4.184783
100
AcDbArc
 50
214.006787
 51
252.219183
  0
LINE
  5
3115
100
AcDbEntity
  8
0
100
AcDbLine
 10
186.539206
 20
-115.0949
 30
0.0
 11
182.510368
 21
-115.703457
 31
0.0
  0
LINE
  5
3116
100
AcDbEntity
  8
0
100
AcDbLine
 10
185.974696
 20
-117.000588
 30
0.0
 11
174.518221
 21
-118.731092
 31
0.0
  0
LINE
  5
3117
100
AcDbEntity
  8
0
100
AcDbLine
 10
176.773221
 20
-106.103856
 30
0.0
 11
174.246996
 21
-107.967057
 31
0.0
  0
LINE
  5
3118
100
AcDbEntity
  8
0
100
AcDbLine
 10
180.853191
 20
-115.953774
 30
0.0
 11
177.749398
 21
-116.422603
 31
0.0
  0
ARC
  5
3119
100
AcDbEntity
  8
0
100
AcDbCircle
 10
179.713902
 20
-114.498227
 30
0.0
 40
2.75
100
AcDbArc
 50
108.884095
 51
224.408807
  0
ARC
  5
311A
100
AcDbEntity
  8
0
100
AcDbCircle
 10
176.99685
 20
-107.938682
 30
0.0
 40
2.75
100
AcDbArc
 50
180.591193
 51
296.115905
  0
LINE
  5
311B
100
AcDbEntity
  8
0
100
AcDbLine
 10
179.654463
 20
-101.742196
 30
0.0
 11
170.329861
 21
-108.619496
 31
0.0
  0
ARC
  5
311C
100
AcDbEntity
  8
0
100
AcDbCircle
 10
182.315359
 20
-109.609914
 30
0.0
 40
4.184783
100
AcDbArc
 50
143.705042
 51
190.993213
  0
ARC
  5
311D
100
AcDbEntity
  8
0
100
AcDbCircle
 10
185.100088
 20
-104.550473
 30
0.0
 40
4.184783
100
AcDbArc
 50
214.006787
 51
261.294958
  0
ARC
  5
311E
100
AcDbEntity
  8
0
100
AcDbCircle
 10
182.521074
 20
-109.492966
 30
0.0
 40
2.75
100
AcDbArc
 50
108.884095
 51
296.115905
  0
ARC
  5
311F
100
AcDbEntity
  8
0
100
AcDbCircle
 10
185.032412
 20
-116.169459
 30
0.0
 40
4.184783
100
AcDbArc
 50
143.705042
 51
177.045649
  0
ARC
  5
3120
100
AcDbEntity
  8
0
100
AcDbCircle
 10
182.292917
 20
-109.555733
 30
0.0
 40
4.184783
100
AcDbArc
 50
214.006787
 51
261.294958
  0
ARC
  5
3121
100
AcDbEntity
  8
0
100
AcDbCircle
 10
187.839583
 20
-111.164199
 30
0.0
 40
4.184783
100
AcDbArc
 50
143.705042
 51
190.993213
  0
ARC
  5
3122
100
AcDbEntity
  8
0
100
AcDbCircle
 10
185.238126
 20
-116.052511
 30
0.0
 40
2.75
100
AcDbArc
 50
108.884095
 51
172.707853
  0
ARC
  5
3123
100
AcDbEntity
  8
0
100
AcDbCircle
 10
185.12253
 20
-104.604654
 30
0.0
 40
4.184783
100
AcDbArc
 50
152.780817
 51
190.993213
  0
LINE
  5
3124
100
AcDbEntity
  8
0
100
AcDbLine
 10
181.401157
 20
-102.690552
 30
0.0
 11
178.122024
 21
-105.109056
 31
0.0
  0
ARC
  5
3125
100
AcDbEntity
  8
0
100
AcDbCircle
 10
179.575864
 20
-102.996189
 30
0.0
 40
4.184783
100
AcDbArc
 50
227.954351
 51
261.294958
  0
ARC
  5
3126
100
AcDbEntity
  8
0
100
AcDbCircle
 10
179.804021
 20
-102.933421
 30
0.0
 40
2.75
100
AcDbArc
 50
232.292147
 51
296.115905
  0
ARC
  5
3127
100
AcDbEntity
  8
0
100
AcDbCircle
 10
176.768693
 20
-108.001449
 30
0.0
 40
4.184783
100
AcDbArc
 50
214.006787
 51
261.294958
  0
ARC
  5
3128
100
AcDbEntity
  8
0
100
AcDbCircle
 10
174.189679
 20
-112.943943
 30
0.0
 40
2.75
100
AcDbArc
 50
108.884095
 51
296.115905
  0
ARC
  5
3129
100
AcDbEntity
  8
0
100
AcDbCircle
 10
174.058327
 20
-112.998351
 30
0.0
 40
5.751159
100
AcDbArc
 50
130.413411
 51
274.586589
  0
ARC
  5
312A
100
AcDbEntity
  8
0
100
AcDbCircle
 10
179.508188
 20
-114.615175
 30
0.0
 40
4.184783
100
AcDbArc
 50
143.705042
 51
190.993213
  0
ARC
  5
312B
100
AcDbEntity
  8
0
100
AcDbCircle
 10
167.726707
 20
-35.737664
 30
0.0
 40
84.006565
100
AcDbArc
 50
285.067587
 51
287.188476
  0
ARC
  5
312C
100
AcDbEntity
  8
0
100
AcDbCircle
 10
278.915887
 20
-146.926845
 30
0.0
 40
84.006565
100
AcDbArc
 50
162.811524
 51
164.932413
  0
ARC
  5
312D
100
AcDbEntity
  8
0
100
AcDbCircle
 10
197.287706
 20
-122.386304
 30
0.0
 40
2.75
100
AcDbArc
 50
131.384095
 51
280.682867
  0
ARC
  5
312E
100
AcDbEntity
  8
0
100
AcDbCircle
 10
192.267247
 20
-117.365846
 30
0.0
 40
2.75
100
AcDbArc
 50
169.317133
 51
318.615905
  0
ARC
  5
312F
100
AcDbEntity
  8
0
100
AcDbCircle
 10
167.726707
 20
-35.737664
 30
0.0
 40
82.206565
100
AcDbArc
 50
284.702654
 51
296.71175
  0
ARC
  5
3130
100
AcDbEntity
  8
0
100
AcDbCircle
 10
254.068645
 20
-164.957506
 30
0.0
 40
82.206565
100
AcDbArc
 50
130.78825
 51
142.797346
  0
ARC
  5
3131
100
AcDbEntity
  8
0
100
AcDbCircle
 10
221.169137
 20
-93.484414
 30
0.0
 40
22.759718
100
AcDbArc
 50
203.93086
 51
223.56914
  0
ARC
  5
3132
100
AcDbEntity
  8
0
100
AcDbCircle
 10
198.457051
 20
-111.134573
 30
0.0
 40
4.184783
100
AcDbArc
 50
236.506787
 51
283.794958
  0
ARC
  5
3133
100
AcDbEntity
  8
0
100
AcDbCircle
 10
197.820462
 20
-116.874558
 30
0.0
 40
4.184783
100
AcDbArc
 50
166.205042
 51
213.493213
  0
ARC
  5
3134
100
AcDbEntity
  8
0
100
AcDbCircle
 10
197.965763
 20
-116.687788
 30
0.0
 40
2.75
100
AcDbArc
 50
131.384095
 51
318.615905
  0
ARC
  5
3135
100
AcDbEntity
  8
0
100
AcDbCircle
 10
203.518978
 20
-116.1965
 30
0.0
 40
4.184783
100
AcDbArc
 50
166.205042
 51
213.493213
  0
ARC
  5
3136
100
AcDbEntity
  8
0
100
AcDbCircle
 10
202.84092
 20
-121.895016
 30
0.0
 40
4.184783
100
AcDbArc
 50
166.205042
 51
182.829164
  0
ARC
  5
3137
100
AcDbEntity
  8
0
100
AcDbCircle
 10
197.778994
 20
-116.833089
 30
0.0
 40
4.184783
100
AcDbArc
 50
236.506787
 51
283.794958
  0
ARC
  5
3138
100
AcDbEntity
  8
0
100
AcDbCircle
 10
192.758535
 20
-111.812631
 30
0.0
 40
4.184783
100
AcDbArc
 50
267.170836
 51
283.794958
  0
ARC
  5
3139
100
AcDbEntity
  8
0
100
AcDbCircle
 10
197.100936
 20
-122.531605
 30
0.0
 40
4.184783
100
AcDbArc
 50
236.506787
 51
274.719183
  0
LINE
  5
313A
100
AcDbEntity
  8
0
100
AcDbLine
 10
197.445227
 20
-126.702201
 30
0.0
 11
193.955952
 21
-128.806203
 31
0.0
  0
LINE
  5
313B
100
AcDbEntity
  8
0
100
AcDbLine
 10
197.652963
 20
-128.678856
 30
0.0
 11
187.730796
 21
-134.661836
 31
0.0
  0
LINE
  5
313C
100
AcDbEntity
  8
0
100
AcDbLine
 10
184.981911
 20
-122.13284
 30
0.0
 11
183.360999
 21
-124.820957
 31
0.0
  0
LINE
  5
313D
100
AcDbEntity
  8
0
100
AcDbLine
 10
192.520711
 20
-129.671641
 30
0.0
 11
189.832594
 21
-131.292552
 31
0.0
  0
ARC
  5
313E
100
AcDbEntity
  8
0
100
AcDbCircle
 10
190.911132
 20
-128.762877
 30
0.0
 40
2.75
100
AcDbArc
 50
131.384095
 51
246.908807
  0
ARC
  5
313F
100
AcDbEntity
  8
0
100
AcDbCircle
 10
185.890674
 20
-123.742419
 30
0.0
 40
2.75
100
AcDbArc
 50
203.091193
 51
318.615905
  0
LINE
  5
3140
100
AcDbEntity
  8
0
100
AcDbLine
 10
185.974696
 20
-117.000588
 30
0.0
 11
179.991716
 21
-126.922755
 31
0.0
  0
ARC
  5
3141
100
AcDbEntity
  8
0
100
AcDbCircle
 10
191.443889
 20
-123.251131
 30
0.0
 40
4.184783
100
AcDbArc
 50
166.205042
 51
213.493213
  0
ARC
  5
3142
100
AcDbEntity
  8
0
100
AcDbCircle
 10
192.080478
 20
-117.511147
 30
0.0
 40
4.184783
100
AcDbArc
 50
236.506787
 51
283.794958
  0
ARC
  5
3143
100
AcDbEntity
  8
0
100
AcDbCircle
 10
191.58919
 20
-123.064361
 30
0.0
 40
2.75
100
AcDbArc
 50
131.384095
 51
318.615905
  0
ARC
  5
3144
100
AcDbEntity
  8
0
100
AcDbCircle
 10
196.464347
 20
-128.271589
 30
0.0
 40
4.184783
100
AcDbArc
 50
166.205042
 51
199.545649
  0
ARC
  5
3145
100
AcDbEntity
  8
0
100
AcDbCircle
 10
191.40242
 20
-123.209662
 30
0.0
 40
4.184783
100
AcDbArc
 50
236.506787
 51
283.794958
  0
ARC
  5
3146
100
AcDbEntity
  8
0
100
AcDbCircle
 10
197.142405
 20
-122.573073
 30
0.0
 40
4.184783
100
AcDbArc
 50
166.205042
 51
213.493213
  0
ARC
  5
3147
100
AcDbEntity
  8
0
100
AcDbCircle
 10
196.609648
 20
-128.08482
 30
0.0
 40
2.75
100
AcDbArc
 50
131.384095
 51
195.207853
  0
ARC
  5
3148
100
AcDbEntity
  8
0
100
AcDbCircle
 10
192.121946
 20
-117.552615
 30
0.0
 40
4.184783
100
AcDbArc
 50
175.280817
 51
213.493213
  0
LINE
  5
3149
100
AcDbEntity
  8
0
100
AcDbLine
 10
187.951351
 20
-117.208324
 30
0.0
 11
185.847348
 21
-120.6976
 31
0.0
  0
ARC
  5
314A
100
AcDbEntity
  8
0
100
AcDbCircle
 10
186.381962
 20
-118.189204
 30
0.0
 40
4.184783
100
AcDbArc
 50
250.454351
 51
283.794958
  0
ARC
  5
314B
100
AcDbEntity
  8
0
100
AcDbCircle
 10
186.568732
 20
-118.043903
 30
0.0
 40
2.75
100
AcDbArc
 50
254.792147
 51
318.615905
  0
ARC
  5
314C
100
AcDbEntity
  8
0
100
AcDbCircle
 10
185.703904
 20
-123.88772
 30
0.0
 40
4.184783
100
AcDbArc
 50
236.506787
 51
283.794958
  0
ARC
  5
314D
100
AcDbEntity
  8
0
100
AcDbCircle
 10
185.212617
 20
-129.440935
 30
0.0
 40
2.75
100
AcDbArc
 50
131.384095
 51
318.615905
  0
ARC
  5
314E
100
AcDbEntity
  8
0
100
AcDbCircle
 10
185.112084
 20
-129.541467
 30
0.0
 40
5.751159
100
AcDbArc
 50
152.913411
 51
297.086589
  0
ARC
  5
314F
100
AcDbEntity
  8
0
100
AcDbCircle
 10
190.765831
 20
-128.949647
 30
0.0
 40
4.184783
100
AcDbArc
 50
166.205042
 51
213.493213
  0
ARC
  5
3150
100
AcDbEntity
  8
0
100
AcDbCircle
 10
149.696045
 20
-60.584907
 30
0.0
 40
84.006565
100
AcDbArc
 50
307.567587
 51
309.688476
  0
ARC
  5
3151
100
AcDbEntity
  8
0
100
AcDbCircle
 10
294.97171
 20
-120.760057
 30
0.0
 40
84.006565
100
AcDbArc
 50
185.311524
 51
187.432413
  0
ARC
  5
3152
100
AcDbEntity
  8
0
100
AcDbCircle
 10
210.165846
 20
-129.325307
 30
0.0
 40
2.75
100
AcDbArc
 50
153.884095
 51
303.182867
  0
ARC
  5
3153
100
AcDbEntity
  8
0
100
AcDbCircle
 10
203.606301
 20
-126.608254
 30
0.0
 40
2.75
100
AcDbArc
 50
191.817133
 51
341.115905
  0
ARC
  5
3154
100
AcDbEntity
  8
0
100
AcDbCircle
 10
149.696045
 20
-60.584907
 30
0.0
 40
82.206565
100
AcDbArc
 50
307.202654
 51
319.21175
  0
ARC
  5
3155
100
AcDbEntity
  8
0
100
AcDbCircle
 10
278.915887
 20
-146.926845
 30
0.0
 40
82.206565
100
AcDbArc
 50
153.28825
 51
165.297346
  0
ARC
  5
3156
100
AcDbEntity
  8
0
100
AcDbCircle
 10
221.169137
 20
-93.484414
 30
0.0
 40
22.759718
100
AcDbArc
 50
226.43086
 51
246.06914
  0
ARC
  5
3157
100
AcDbEntity
  8
0
100
AcDbCircle
 10
206.940329
 20
-118.482574
 30
0.0
 40
4.184783
100
AcDbArc
 50
259.006787
 51
306.294958
  0
ARC
  5
3158
100
AcDbEntity
  8
0
100
AcDbCircle
 10
208.548795
 20
-124.02924
 30
0.0
 40
4.184783
100
AcDbArc
 50
188.705042
 51
235.993213
  0
ARC
  5
3159
100
AcDbEntity
  8
0
100
AcDbCircle
 10
208.611562
 20
-123.801083
 30
0.0
 40
2.75
100
AcDbArc
 50
153.884095
 51
341.115905
  0
ARC
  5
315A
100
AcDbEntity
  8
0
100
AcDbCircle
 10
213.554055
 20
-121.222069
 30
0.0
 40
4.184783
100
AcDbArc
 50
188.705042
 51
235.993213
  0
ARC
  5
315B
100
AcDbEntity
  8
0
100
AcDbCircle
 10
215.108339
 20
-126.746292
 30
0.0
 40
4.184783
100
AcDbArc
 50
188.705042
 51
205.329164
  0
ARC
  5
315C
100
AcDbEntity
  8
0
100
AcDbCircle
 10
208.494613
 20
-124.006797
 30
0.0
 40
4.184783
100
AcDbArc
 50
259.006787
 51
306.294958
  0
ARC
  5
315D
100
AcDbEntity
  8
0
100
AcDbCircle
 10
201.935069
 20
-121.289745
 30
0.0
 40
4.184783
100
AcDbArc
 50
289.670836
 51
306.294958
  0
ARC
  5
315E
100
AcDbEntity
  8
0
100
AcDbCircle
 10
210.048897
 20
-129.531021
 30
0.0
 40
4.184783
100
AcDbArc
 50
259.006787
 51
297.219183
  0
LINE
  5
315F
100
AcDbEntity
  8
0
100
AcDbLine
 10
211.962999
 20
-133.252394
 30
0.0
 11
209.544496
 21
-136.531528
 31
0.0
  0
LINE
  5
3160
100
AcDbEntity
  8
0
100
AcDbLine
 10
212.911355
 20
-134.999088
 30
0.0
 11
206.034056
 21
-144.32369
 31
0.0
  0
LINE
  5
3161
100
AcDbEntity
  8
0
100
AcDbLine
 10
198.699777
 20
-133.80036
 30
0.0
 11
198.230948
 21
-136.904153
 31
0.0
  0
LINE
  5
3162
100
AcDbEntity
  8
0
100
AcDbLine
 10
208.549695
 20
-137.88033
 30
0.0
 11
206.686494
 21
-140.406555
 31
0.0
  0
ARC
  5
3163
100
AcDbEntity
  8
0
100
AcDbCircle
 10
206.714869
 20
-137.656701
 30
0.0
 40
2.75
100
AcDbArc
 50
153.884095
 51
269.408807
  0
ARC
  5
3164
100
AcDbEntity
  8
0
100
AcDbCircle
 10
200.155324
 20
-134.939649
 30
0.0
 40
2.75
100
AcDbArc
 50
225.591193
 51
341.115905
  0
LINE
  5
3165
100
AcDbEntity
  8
0
100
AcDbLine
 10
197.652963
 20
-128.678856
 30
0.0
 11
195.922459
 21
-140.13533
 31
0.0
  0
ARC
  5
3166
100
AcDbEntity
  8
0
100
AcDbCircle
 10
205.097818
 20
-132.360635
 30
0.0
 40
4.184783
100
AcDbArc
 50
188.705042
 51
235.993213
  0
ARC
  5
3167
100
AcDbEntity
  8
0
100
AcDbCircle
 10
203.489353
 20
-126.813969
 30
0.0
 40
4.184783
100
AcDbArc
 50
259.006787
 51
306.294958
  0
ARC
  5
3168
100
AcDbEntity
  8
0
100
AcDbCircle
 10
205.160585
 20
-132.132478
 30
0.0
 40
2.75
100
AcDbArc
 50
153.884095
 51
341.115905
  0
ARC
  5
3169
100
AcDbEntity
  8
0
100
AcDbCircle
 10
211.657363
 20
-135.077687
 30
0.0
 40
4.184783
100
AcDbArc
 50
188.705042
 51
222.045649
  0
ARC
  5
316A
100
AcDbEntity
  8
0
100
AcDbCircle
 10
205.043637
 20
-132.338192
 30
0.0
 40
4.184783
100
AcDbArc
 50
259.006787
 51
306.294958
  0
ARC
  5
316B
100
AcDbEntity
  8
0
100
AcDbCircle
 10
210.103079
 20
-129.553464
 30
0.0
 40
4.184783
100
AcDbArc
 50
188.705042
 51
235.993213
  0
ARC
  5
316C
100
AcDbEntity
  8
0
100
AcDbCircle
 10
211.72013
 20
-134.84953
 30
0.0
 40
2.75
100
AcDbArc
 50
153.884095
 51
217.707853
  0
ARC
  5
316D
100
AcDbEntity
  8
0
100
AcDbCircle
 10
203.543534
 20
-126.836411
 30
0.0
 40
4.184783
100
AcDbArc
 50
197.780817
 51
235.993213
  0
LINE
  5
316E
100
AcDbEntity
  8
0
100
AcDbLine
 10
199.558651
 20
-128.114345
 30
0.0
 11
198.950094
 21
-132.143183
 31
0.0
  0
ARC
  5
316F
100
AcDbEntity
  8
0
100
AcDbCircle
 10
198.484092
 20
-129.62114
 30
0.0
 40
4.184783
100
AcDbArc
 50
272.954351
 51
306.294958
  0
ARC
  5
3170
100
AcDbEntity
  8
0
100
AcDbCircle
 10
198.60104
 20
-129.415425
 30
0.0
 40
2.75
100
AcDbArc
 50
277.292147
 51
341.115905
  0
ARC
  5
3171
100
AcDbEntity
  8
0
100
AcDbCircle
 10
200.038376
 20
-135.145363
 30
0.0
 40
4.184783
100
AcDbArc
 50
259.006787
 51
306.294958
  0
ARC
  5
3172
100
AcDbEntity
  8
0
100
AcDbCircle
 10
201.709608
 20
-140.463872
 30
0.0
 40
2.75
100
AcDbArc
 50
153.884095
 51
341.115905
  0
ARC
  5
3173
100
AcDbEntity
  8
0
100
AcDbCircle
 10
201.6552
 20
-140.595225
 30
0.0
 40
5.751159
100
AcDbArc
 50
175.413411
 51
319.586589
  0
ARC
  5
3174
100
AcDbEntity
  8
0
100
AcDbCircle
 10
206.652102
 20
-137.884858
 30
0.0
 40
4.184783
100
AcDbArc
 50
188.705042
 51
235.993213
  0
ARC
  5
3175
100
AcDbEntity
  8
0
100
AcDbCircle
 10
142.546514
 20
-90.440801
 30
0.0
 40
84.006565
100
AcDbArc
 50
330.067587
 51
332.188476
  0
ARC
  5
3176
100
AcDbEntity
  8
0
100
AcDbCircle
 10
299.791761
 20
-90.440801
 30
0.0
 40
84.006565
100
AcDbArc
 50
207.811524
 51
209.932413
  0
ARC
  5
3177
100
AcDbEntity
  8
0
100
AcDbCircle
 10
224.719137
 20
-130.807858
 30
0.0
 40
2.75
100
AcDbArc
 50
176.384095
 51
325.682867
  0
ARC
  5
3178
100
AcDbEntity
  8
0
100
AcDbCircle
 10
217.619137
 20
-130.807858
 30
0.0
 40
2.75
100
AcDbArc
 50
214.317133
 51
3.615905
  0
ARC
  5
3179
100
AcDbEntity
  8
0
100
AcDbCircle
 10
142.546514
 20
-90.440801
 30
0.0
 40
82.206565
100
AcDbArc
 50
329.702654
 51
341.71175
  0
ARC
  5
317A
100
AcDbEntity
  8
0
100
AcDbCircle
 10
294.97171
 20
-120.760057
 30
0.0
 40
82.206565
100
AcDbArc
 50
175.78825
 51
187.797346
  0
ARC
  5
317B
100
AcDbEntity
  8
0
100
AcDbCircle
 10
221.169137
 20
-93.484414
 30
0.0
 40
22.759718
100
AcDbArc
 50
248.93086
 51
268.56914
  0
ARC
  5
317C
100
AcDbEntity
  8
0
100
AcDbCircle
 10
217.589815
 20
-122.024831
 30
0.0
 40
4.184783
100
AcDbArc
 50
281.506787
 51
328.794958
  0
ARC
  5
317D
100
AcDbEntity
  8
0
100
AcDbCircle
 10
221.19846
 20
-126.53375
 30
0.0
 40
4.184783
100
AcDbArc
 50
211.205042
 51
258.493213
  0
ARC
  5
317E
100
AcDbEntity
  8
0
100
AcDbCircle
 10
221.169137
 20
-126.29894
 30
0.0
 40
2.75
100
AcDbArc
 50
176.384095
 51
3.615905
  0
ARC
  5
317F
100
AcDbEntity
  8
0
100
AcDbCircle
 10
224.74846
 20
-122.024831
 30
0.0
 40
4.184783
100
AcDbArc
 50
211.205042
 51
258.493213
  0
ARC
  5
3180
100
AcDbEntity
  8
0
100
AcDbCircle
 10
228.29846
 20
-126.53375
 30
0.0
 40
4.184783
100
AcDbArc
 50
211.205042
 51
227.829164
  0
ARC
  5
3181
100
AcDbEntity
  8
0
100
AcDbCircle
 10
221.139815
 20
-126.53375
 30
0.0
 40
4.184783
100
AcDbArc
 50
281.506787
 51
328.794958
  0
ARC
  5
3182
100
AcDbEntity
  8
0
100
AcDbCircle
 10
214.039815
 20
-126.53375
 30
0.0
 40
4.184783
100
AcDbArc
 50
312.170836
 51
328.794958
  0
ARC
  5
3183
100
AcDbEntity
  8
0
100
AcDbCircle
 10
224.689815
 20
-131.042668
 30
0.0
 40
4.184783
100
AcDbArc
 50
281.506787
 51
319.719183
  0
LINE
  5
3184
100
AcDbEntity
  8
0
100
AcDbLine
 10
227.882322
 20
-133.748274
 30
0.0
 11
226.902786
 21
-137.703319
 31
0.0
  0
LINE
  5
3185
100
AcDbEntity
  8
0
100
AcDbLine
 10
229.426919
 20
-134.999088
 30
0.0
 11
226.641494
 21
-146.245726
 31
0.0
  0
LINE
  5
3186
100
AcDbEntity
  8
0
100
AcDbLine
 10
215.8384
 20
-139.330144
 30
0.0
 11
216.593029
 21
-142.377087
 31
0.0
  0
LINE
  5
3187
100
AcDbEntity
  8
0
100
AcDbLine
 10
226.499874
 20
-139.330144
 30
0.0
 11
225.745246
 21
-142.377087
 31
0.0
  0
ARC
  5
3188
100
AcDbEntity
  8
0
100
AcDbCircle
 10
224.719137
 20
-139.825695
 30
0.0
 40
2.75
100
AcDbArc
 50
176.384095
 51
291.908807
  0
ARC
  5
3189
100
AcDbEntity
  8
0
100
AcDbCircle
 10
217.619137
 20
-139.825695
 30
0.0
 40
2.75
100
AcDbArc
 50
248.091193
 51
3.615905
  0
LINE
  5
318A
100
AcDbEntity
  8
0
100
AcDbLine
 10
212.911355
 20
-134.999088
 30
0.0
 11
215.696781
 21
-146.245726
 31
0.0
  0
ARC
  5
318B
100
AcDbEntity
  8
0
100
AcDbCircle
 10
221.19846
 20
-135.551586
 30
0.0
 40
4.184783
100
AcDbArc
 50
211.205042
 51
258.493213
  0
ARC
  5
318C
100
AcDbEntity
  8
0
100
AcDbCircle
 10
217.589815
 20
-131.042668
 30
0.0
 40
4.184783
100
AcDbArc
 50
281.506787
 51
328.794958
  0
ARC
  5
318D
100
AcDbEntity
  8
0
100
AcDbCircle
 10
221.169137
 20
-135.316777
 30
0.0
 40
2.75
100
AcDbArc
 50
176.384095
 51
3.615905
  0
ARC
  5
318E
100
AcDbEntity
  8
0
100
AcDbCircle
 10
228.29846
 20
-135.551586
 30
0.0
 40
4.184783
100
AcDbArc
 50
211.205042
 51
244.545649
  0
ARC
  5
318F
100
AcDbEntity
  8
0
100
AcDbCircle
 10
221.139815
 20
-135.551586
 30
0.0
 40
4.184783
100
AcDbArc
 50
281.506787
 51
328.794958
  0
ARC
  5
3190
100
AcDbEntity
  8
0
100
AcDbCircle
 10
224.74846
 20
-131.042668
 30
0.0
 40
4.184783
100
AcDbArc
 50
211.205042
 51
258.493213
  0
ARC
  5
3191
100
AcDbEntity
  8
0
100
AcDbCircle
 10
228.269137
 20
-135.316777
 30
0.0
 40
2.75
100
AcDbArc
 50
176.384095
 51
240.207853
  0
ARC
  5
3192
100
AcDbEntity
  8
0
100
AcDbCircle
 10
217.64846
 20
-131.042668
 30
0.0
 40
4.184783
100
AcDbArc
 50
220.280817
 51
258.493213
  0
LINE
  5
3193
100
AcDbEntity
  8
0
100
AcDbLine
 10
214.455953
 20
-133.748274
 30
0.0
 11
215.435489
 21
-137.703319
 31
0.0
  0
ARC
  5
3194
100
AcDbEntity
  8
0
100
AcDbCircle
 10
214.039815
 20
-135.551586
 30
0.0
 40
4.184783
100
AcDbArc
 50
295.454351
 51
328.794958
  0
ARC
  5
3195
100
AcDbEntity
  8
0
100
AcDbCircle
 10
214.069137
 20
-135.316777
 30
0.0
 40
2.75
100
AcDbArc
 50
299.792147
 51
3.615905
  0
ARC
  5
3196
100
AcDbEntity
  8
0
100
AcDbCircle
 10
217.589815
 20
-140.060504
 30
0.0
 40
4.184783
100
AcDbArc
 50
281.506787
 51
328.794958
  0
ARC
  5
3197
100
AcDbEntity
  8
0
100
AcDbCircle
 10
221.169137
 20
-144.334613
 30
0.0
 40
2.75
100
AcDbArc
 50
176.384095
 51
3.615905
  0
ARC
  5
3198
100
AcDbEntity
  8
0
100
AcDbCircle
 10
221.169137
 20
-144.476788
 30
0.0
 40
5.751159
100
AcDbArc
 50
197.913411
 51
342.086589
  0
ARC
  5
3199
100
AcDbEntity
  8
0
100
AcDbCircle
 10
224.74846
 20
-140.060504
 30
0.0
 40
4.184783
100
AcDbArc
 50
211.205042
 51
258.493213
  0
ARC
  5
319A
100
AcDbEntity
  8
0
100
AcDbCircle
 10
147.366564
 20
-120.760057
 30
0.0
 40
84.006565
100
AcDbArc
 50
352.567587
 51
354.688476
  0
ARC
  5
319B
100
AcDbEntity
  8
0
100
AcDbCircle
 10
292.642229
 20
-60.584907
 30
0.0
 40
84.006565
100
AcDbArc
 50
230.311524
 51
232.432413
  0
ARC
  5
319C
100
AcDbEntity
  8
0
100
AcDbCircle
 10
238.731973
 20
-126.608254
 30
0.0
 40
2.75
100
AcDbArc
 50
198.884095
 51
348.182867
  0
ARC
  5
319D
100
AcDbEntity
  8
0
100
AcDbCircle
 10
232.172429
 20
-129.325307
 30
0.0
 40
2.75
100
AcDbArc
 50
236.817133
 51
26.115905
  0
ARC
  5
319E
100
AcDbEntity
  8
0
100
AcDbCircle
 10
147.366564
 20
-120.760057
 30
0.0
 40
82.206565
100
AcDbArc
 50
352.202654
 51
4.21175
  0
ARC
  5
319F
100
AcDbEntity
  8
0
100
AcDbCircle
 10
299.791761
 20
-90.440801
 30
0.0
 40
82.206565
100
AcDbArc
 50
198.28825
 51
210.297346
  0
ARC
  5
31A0
100
AcDbEntity
  8
0
100
AcDbCircle
 10
221.169137
 20
-93.484414
 30
0.0
 40
22.759718
100
AcDbArc
 50
271.43086
 51
291.06914
  0
ARC
  5
31A1
100
AcDbEntity
  8
0
100
AcDbCircle
 10
228.784219
 20
-121.222069
 30
0.0
 40
4.184783
100
AcDbArc
 50
304.006787
 51
351.294958
  0
ARC
  5
31A2
100
AcDbEntity
  8
0
100
AcDbCircle
 10
233.843661
 20
-124.006797
 30
0.0
 40
4.184783
100
AcDbArc
 50
233.705042
 51
280.993213
  0
ARC
  5
31A3
100
AcDbEntity
  8
0
100
AcDbCircle
 10
233.726713
 20
-123.801083
 30
0.0
 40
2.75
100
AcDbArc
 50
198.884095
 51
26.115905
  0
ARC
  5
31A4
100
AcDbEntity
  8
0
100
AcDbCircle
 10
235.397945
 20
-118.482574
 30
0.0
 40
4.184783
100
AcDbArc
 50
233.705042
 51
280.993213
  0
ARC
  5
31A5
100
AcDbEntity
  8
0
100
AcDbCircle
 10
240.403206
 20
-121.289745
 30
0.0
 40
4.184783
100
AcDbArc
 50
233.705042
 51
250.329164
  0
ARC
  5
31A6
100
AcDbEntity
  8
0
100
AcDbCircle
 10
233.78948
 20
-124.02924
 30
0.0
 40
4.184783
100
AcDbArc
 50
304.006787
 51
351.294958
  0
ARC
  5
31A7
100
AcDbEntity
  8
0
100
AcDbCircle
 10
227.229935
 20
-126.746292
 30
0.0
 40
4.184783
100
AcDbArc
 50
334.670836
 51
351.294958
  0
ARC
  5
31A8
100
AcDbEntity
  8
0
100
AcDbCircle
 10
238.79474
 20
-126.836411
 30
0.0
 40
4.184783
100
AcDbArc
 50
304.006787
 51
342.219183
  0
LINE
  5
31A9
100
AcDbEntity
  8
0
100
AcDbLine
 10
242.779623
 20
-128.114345
 30
0.0
 11
243.38818
 21
-132.143183
 31
0.0
  0
LINE
  5
31AA
100
AcDbEntity
  8
0
100
AcDbLine
 10
244.685311
 20
-128.678856
 30
0.0
 11
246.415815
 21
-140.13533
 31
0.0
  0
LINE
  5
31AB
100
AcDbEntity
  8
0
100
AcDbLine
 10
233.788579
 20
-137.88033
 30
0.0
 11
235.65178
 21
-140.406555
 31
0.0
  0
LINE
  5
31AC
100
AcDbEntity
  8
0
100
AcDbLine
 10
243.638497
 20
-133.80036
 30
0.0
 11
244.107326
 21
-136.904153
 31
0.0
  0
ARC
  5
31AD
100
AcDbEntity
  8
0
100
AcDbCircle
 10
242.18295
 20
-134.939649
 30
0.0
 40
2.75
100
AcDbArc
 50
198.884095
 51
314.408807
  0
ARC
  5
31AE
100
AcDbEntity
  8
0
100
AcDbCircle
 10
235.623405
 20
-137.656701
 30
0.0
 40
2.75
100
AcDbArc
 50
270.591193
 51
26.115905
  0
LINE
  5
31AF
100
AcDbEntity
  8
0
100
AcDbLine
 10
229.426919
 20
-134.999088
 30
0.0
 11
236.304219
 21
-144.32369
 31
0.0
  0
ARC
  5
31B0
100
AcDbEntity
  8
0
100
AcDbCircle
 10
237.294638
 20
-132.338192
 30
0.0
 40
4.184783
100
AcDbArc
 50
233.705042
 51
280.993213
  0
ARC
  5
31B1
100
AcDbEntity
  8
0
100
AcDbCircle
 10
232.235196
 20
-129.553464
 30
0.0
 40
4.184783
100
AcDbArc
 50
304.006787
 51
351.294958
  0
ARC
  5
31B2
100
AcDbEntity
  8
0
100
AcDbCircle
 10
237.177689
 20
-132.132478
 30
0.0
 40
2.75
100
AcDbArc
 50
198.884095
 51
26.115905
  0
ARC
  5
31B3
100
AcDbEntity
  8
0
100
AcDbCircle
 10
243.854182
 20
-129.62114
 30
0.0
 40
4.184783
100
AcDbArc
 50
233.705042
 51
267.045649
  0
ARC
  5
31B4
100
AcDbEntity
  8
0
100
AcDbCircle
 10
237.240456
 20
-132.360635
 30
0.0
 40
4.184783
100
AcDbArc
 50
304.006787
 51
351.294958
  0
ARC
  5
31B5
100
AcDbEntity
  8
0
100
AcDbCircle
 10
238.848922
 20
-126.813969
 30
0.0
 40
4.184783
100
AcDbArc
 50
233.705042
 51
280.993213
  0
ARC
  5
31B6
100
AcDbEntity
  8
0
100
AcDbCircle
 10
243.737234
 20
-129.415425
 30
0.0
 40
2.75
100
AcDbArc
 50
198.884095
 51
262.707853
  0
ARC
  5
31B7
100
AcDbEntity
  8
0
100
AcDbCircle
 10
232.289377
 20
-129.531021
 30
0.0
 40
4.184783
100
AcDbArc
 50
242.780817
 51
280.993213
  0
LINE
  5
31B8
100
AcDbEntity
  8
0
100
AcDbLine
 10
230.375276
 20
-133.252394
 30
0.0
 11
232.793779
 21
-136.531528
 31
0.0
  0
ARC
  5
31B9
100
AcDbEntity
  8
0
100
AcDbCircle
 10
230.680912
 20
-135.077687
 30
0.0
 40
4.184783
100
AcDbArc
 50
317.954351
 51
351.294958
  0
ARC
  5
31BA
100
AcDbEntity
  8
0
100
AcDbCircle
 10
230.618145
 20
-134.84953
 30
0.0
 40
2.75
100
AcDbArc
 50
322.292147
 51
26.115905
  0
ARC
  5
31BB
100
AcDbEntity
  8
0
100
AcDbCircle
 10
235.686172
 20
-137.884858
 30
0.0
 40
4.184783
100
AcDbArc
 50
304.006787
 51
351.294958
  0
ARC
  5
31BC
100
AcDbEntity
  8
0
100
AcDbCircle
 10
240.628666
 20
-140.463872
 30
0.0
 40
2.75
100
AcDbArc
 50
198.884095
 51
26.115905
  0
ARC
  5
31BD
100
AcDbEntity
  8
0
100
AcDbCircle
 10
240.683074
 20
-140.595225
 30
0.0
 40
5.751159
100
AcDbArc
 50
220.413411
 51
4.586589
  0
ARC
  5
31BE
100
AcDbEntity
  8
0
100
AcDbCircle
 10
242.299898
 20
-135.145363
 30
0.0
 40
4.184783
100
AcDbArc
 50
233.705042
 51
280.993213
  0
ARC
  5
31BF
100
AcDbEntity
  8
0
100
AcDbCircle
 10
163.422387
 20
-146.926845
 30
0.0
 40
84.006565
100
AcDbArc
 50
15.067587
 51
17.188476
  0
ARC
  5
31C0
100
AcDbEntity
  8
0
100
AcDbCircle
 10
274.611568
 20
-35.737664
 30
0.0
 40
84.006565
100
AcDbArc
 50
252.811524
 51
254.932413
  0
ARC
  5
31C1
100
AcDbEntity
  8
0
100
AcDbCircle
 10
250.071027
 20
-117.365846
 30
0.0
 40
2.75
100
AcDbArc
 50
221.384095
 51
10.682867
  0
ARC
  5
31C2
100
AcDbEntity
  8
0
100
AcDbCircle
 10
245.050569
 20
-122.386304
 30
0.0
 40
2.75
100
AcDbArc
 50
259.317133
 51
48.615905
  0
ARC
  5
31C3
100
AcDbEntity
  8
0
100
AcDbCircle
 10
163.422387
 20
-146.926845
 30
0.0
 40
82.206565
100
AcDbArc
 50
14.702654
 51
26.71175
  0
ARC
  5
31C4
100
AcDbEntity
  8
0
100
AcDbCircle
 10
292.642229
 20
-60.584907
 30
0.0
 40
82.206565
100
AcDbArc
 50
220.78825
 51
232.797346
  0
ARC
  5
31C5
100
AcDbEntity
  8
0
100
AcDbCircle
 10
221.169137
 20
-93.484414
 30
0.0
 40
22.759718
100
AcDbArc
 50
293.93086
 51
313.56914
  0
ARC
  5
31C6
100
AcDbEntity
  8
0
100
AcDbCircle
 10
238.819297
 20
-116.1965
 30
0.0
 40
4.184783
100
AcDbArc
 50
326.506787
 51
13.794958
  0
ARC
  5
31C7
100
AcDbEntity
  8
0
100
AcDbCircle
 10
244.559281
 20
-116.833089
 30
0.0
 40
4.184783
100
AcDbArc
 50
256.205042
 51
303.493213
  0
ARC
  5
31C8
100
AcDbEntity
  8
0
100
AcDbCircle
 10
244.372511
 20
-116.687788
 30
0.0
 40
2.75
100
AcDbArc
 50
221.384095
 51
48.615905
  0
ARC
  5
31C9
100
AcDbEntity
  8
0
100
AcDbCircle
 10
243.881223
 20
-111.134573
 30
0.0
 40
4.184783
100
AcDbArc
 50
256.205042
 51
303.493213
  0
ARC
  5
31CA
100
AcDbEntity
  8
0
100
AcDbCircle
 10
249.579739
 20
-111.812631
 30
0.0
 40
4.184783
100
AcDbArc
 50
256.205042
 51
272.829164
  0
ARC
  5
31CB
100
AcDbEntity
  8
0
100
AcDbCircle
 10
244.517812
 20
-116.874558
 30
0.0
 40
4.184783
100
AcDbArc
 50
326.506787
 51
13.794958
  0
ARC
  5
31CC
100
AcDbEntity
  8
0
100
AcDbCircle
 10
239.497354
 20
-121.895016
 30
0.0
 40
4.184783
100
AcDbArc
 50
357.170836
 51
13.794958
  0
ARC
  5
31CD
100
AcDbEntity
  8
0
100
AcDbCircle
 10
250.216328
 20
-117.552615
 30
0.0
 40
4.184783
100
AcDbArc
 50
326.506787
 51
4.719183
  0
LINE
  5
31CE
100
AcDbEntity
  8
0
100
AcDbLine
 10
254.386924
 20
-117.208324
 30
0.0
 11
256.490927
 21
-120.6976
 31
0.0
  0
LINE
  5
31CF
100
AcDbEntity
  8
0
100
AcDbLine
 10
256.363579
 20
-117.000588
 30
0.0
 11
262.346559
 21
-126.922755
 31
0.0
  0
LINE
  5
31D0
100
AcDbEntity
  8
0
100
AcDbLine
 10
249.817563
 20
-129.671641
 30
0.0
 11
252.50568
 21
-131.292552
 31
0.0
  0
LINE
  5
31D1
100
AcDbEntity
  8
0
100
AcDbLine
 10
257.356364
 20
-122.13284
 30
0.0
 11
258.977275
 21
-124.820957
 31
0.0
  0
ARC
  5
31D2
100
AcDbEntity
  8
0
100
AcDbCircle
 10
256.4476
 20
-123.742419
 30
0.0
 40
2.75
100
AcDbArc
 50
221.384095
 51
336.908807
  0
ARC
  5
31D3
100
AcDbEntity
  8
0
100
AcDbCircle
 10
251.427142
 20
-128.762877
 30
0.0
 40
2.75
100
AcDbArc
 50
293.091193
 51
48.615905
  0
LINE
  5
31D4
100
AcDbEntity
  8
0
100
AcDbLine
 10
244.685311
 20
-128.678856
 30
0.0
 11
254.607478
 21
-134.661836
 31
0.0
  0
ARC
  5
31D5
100
AcDbEntity
  8
0
100
AcDbCircle
 10
250.935854
 20
-123.209662
 30
0.0
 40
4.184783
100
AcDbArc
 50
256.205042
 51
303.493213
  0
ARC
  5
31D6
100
AcDbEntity
  8
0
100
AcDbCircle
 10
245.19587
 20
-122.573073
 30
0.0
 40
4.184783
100
AcDbArc
 50
326.506787
 51
13.794958
  0
ARC
  5
31D7
100
AcDbEntity
  8
0
100
AcDbCircle
 10
250.749085
 20
-123.064361
 30
0.0
 40
2.75
100
AcDbArc
 50
221.384095
 51
48.615905
  0
ARC
  5
31D8
100
AcDbEntity
  8
0
100
AcDbCircle
 10
255.956312
 20
-118.189204
 30
0.0
 40
4.184783
100
AcDbArc
 50
256.205042
 51
289.545649
  0
ARC
  5
31D9
100
AcDbEntity
  8
0
100
AcDbCircle
 10
250.894386
 20
-123.251131
 30
0.0
 40
4.184783
100
AcDbArc
 50
326.506787
 51
13.794958
  0
ARC
  5
31DA
100
AcDbEntity
  8
0
100
AcDbCircle
 10
250.257797
 20
-117.511147
 30
0.0
 40
4.184783
100
AcDbArc
 50
256.205042
 51
303.493213
  0
ARC
  5
31DB
100
AcDbEntity
  8
0
100
AcDbCircle
 10
255.769543
 20
-118.043903
 30
0.0
 40
2.75
100
AcDbArc
 50
221.384095
 51
285.207853
  0
ARC
  5
31DC
100
AcDbEntity
  8
0
100
AcDbCircle
 10
245.237338
 20
-122.531605
 30
0.0
 40
4.184783
100
AcDbArc
 50
265.280817
 51
303.493213
  0
LINE
  5
31DD
100
AcDbEntity
  8
0
100
AcDbLine
 10
244.893047
 20
-126.702201
 30
0.0
 11
248.382323
 21
-128.806203
 31
0.0
  0
ARC
  5
31DE
100
AcDbEntity
  8
0
100
AcDbCircle
 10
245.873928
 20
-128.271589
 30
0.0
 40
4.184783
100
AcDbArc
 50
340.454351
 51
13.794958
  0
ARC
  5
31DF
100
AcDbEntity
  8
0
100
AcDbCircle
 10
245.728626
 20
-128.08482
 30
0.0
 40
2.75
100
AcDbArc
 50
344.792147
 51
48.615905
  0
ARC
  5
31E0
100
AcDbEntity
  8
0
100
AcDbCircle
 10
251.572443
 20
-128.949647
 30
0.0
 40
4.184783
100
AcDbArc
 50
326.506787
 51
13.794958
  0
ARC
  5
31E1
100
AcDbEntity
  8
0
100
AcDbCircle
 10
257.125658
 20
-129.440935
 30
0.0
 40
2.75
100
AcDbArc
 50
221.384095
 51
48.615905
  0
ARC
  5
31E2
100
AcDbEntity
  8
0
100
AcDbCircle
 10
257.226191
 20
-129.541467
 30
0.0
 40
5.751159
100
AcDbArc
 50
242.913411
 51
27.086589
  0
ARC
  5
31E3
100
AcDbEntity
  8
0
100
AcDbCircle
 10
256.63437
 20
-123.88772
 30
0.0
 40
4.184783
100
AcDbArc
 50
256.205042
 51
303.493213
  0
ARC
  5
31E4
100
AcDbEntity
  8
0
100
AcDbCircle
 10
188.26963
 20
-164.957506
 30
0.0
 40
84.006565
100
AcDbArc
 50
37.567587
 51
39.688476
  0
ARC
  5
31E5
100
AcDbEntity
  8
0
100
AcDbCircle
 10
248.444781
 20
-19.681841
 30
0.0
 40
84.006565
100
AcDbArc
 50
275.311524
 51
277.432413
  0
ARC
  5
31E6
100
AcDbEntity
  8
0
100
AcDbCircle
 10
257.01003
 20
-104.487705
 30
0.0
 40
2.75
100
AcDbArc
 50
243.884095
 51
33.182867
  0
ARC
  5
31E7
100
AcDbEntity
  8
0
100
AcDbCircle
 10
254.292977
 20
-111.04725
 30
0.0
 40
2.75
100
AcDbArc
 50
281.817133
 51
71.115905
  0
ARC
  5
31E8
100
AcDbEntity
  8
0
100
AcDbCircle
 10
188.26963
 20
-164.957506
 30
0.0
 40
82.206565
100
AcDbArc
 50
37.202654
 51
49.21175
  0
ARC
  5
31E9
100
AcDbEntity
  8
0
100
AcDbCircle
 10
274.611568
 20
-35.737664
 30
0.0
 40
82.206565
100
AcDbArc
 50
243.28825
 51
255.297346
  0
ARC
  5
31EA
100
AcDbEntity
  8
0
100
AcDbCircle
 10
221.169137
 20
-93.484414
 30
0.0
 40
22.759718
100
AcDbArc
 50
316.43086
 51
336.06914
  0
ARC
  5
31EB
100
AcDbEntity
  8
0
100
AcDbCircle
 10
246.167297
 20
-107.713222
 30
0.0
 40
4.184783
100
AcDbArc
 50
349.006787
 51
36.294958
  0
ARC
  5
31EC
100
AcDbEntity
  8
0
100
AcDbCircle
 10
251.713963
 20
-106.104757
 30
0.0
 40
4.184783
100
AcDbArc
 50
278.705042
 51
325.993213
  0
ARC
  5
31ED
100
AcDbEntity
  8
0
100
AcDbCircle
 10
251.485806
 20
-106.04199
 30
0.0
 40
2.75
100
AcDbArc
 50
243.884095
 51
71.115905
  0
ARC
  5
31EE
100
AcDbEntity
  8
0
100
AcDbCircle
 10
248.906792
 20
-101.099496
 30
0.0
 40
4.184783
100
AcDbArc
 50
278.705042
 51
325.993213
  0
ARC
  5
31EF
100
AcDbEntity
  8
0
100
AcDbCircle
 10
254.431016
 20
-99.545212
 30
0.0
 40
4.184783
100
AcDbArc
 50
278.705042
 51
295.329164
  0
ARC
  5
31F0
100
AcDbEntity
  8
0
100
AcDbCircle
 10
251.691521
 20
-106.158938
 30
0.0
 40
4.184783
100
AcDbArc
 50
349.006787
 51
36.294958
  0
ARC
  5
31F1
100
AcDbEntity
  8
0
100
AcDbCircle
 10
248.974468
 20
-112.718483
 30
0.0
 40
4.184783
100
AcDbArc
 50
19.670836
 51
36.294958
  0
ARC
  5
31F2
100
AcDbEntity
  8
0
100
AcDbCircle
 10
257.215744
 20
-104.604654
 30
0.0
 40
4.184783
100
AcDbArc
 50
349.006787
 51
27.219183
  0
LINE
  5
31F3
100
AcDbEntity
  8
0
100
AcDbLine
 10
260.937118
 20
-102.690552
 30
0.0
 11
264.216251
 21
-105.109056
 31
0.0
  0
LINE
  5
31F4
100
AcDbEntity
  8
0
100
AcDbLine
 10
262.683812
 20
-101.742196
 30
0.0
 11
272.008413
 21
-108.619496
 31
0.0
  0
LINE
  5
31F5
100
AcDbEntity
  8
0
100
AcDbLine
 10
261.485084
 20
-115.953774
 30
0.0
 11
264.588876
 21
-116.422603
 31
0.0
  0
LINE
  5
31F6
100
AcDbEntity
  8
0
100
AcDbLine
 10
265.565053
 20
-106.103856
 30
0.0
 11
268.091278
 21
-107.967057
 31
0.0
  0
ARC
  5
31F7
100
AcDbEntity
  8
0
100
AcDbCircle
 10
265.341424
 20
-107.938682
 30
0.0
 40
2.75
100
AcDbArc
 50
243.884095
 51
359.408807
  0
ARC
  5
31F8
100
AcDbEntity
  8
0
100
AcDbCircle
 10
262.624372
 20
-114.498227
 30
0.0
 40
2.75
100
AcDbArc
 50
315.591193
 51
71.115905
  0
LINE
  5
31F9
100
AcDbEntity
  8
0
100
AcDbLine
 10
256.363579
 20
-117.000588
 30
0.0
 11
267.820053
 21
-118.731092
 31
0.0
  0
ARC
  5
31FA
100
AcDbEntity
  8
0
100
AcDbCircle
 10
260.045358
 20
-109.555733
 30
0.0
 40
4.184783
100
AcDbArc
 50
278.705042
 51
325.993213
  0
ARC
  5
31FB
100
AcDbEntity
  8
0
100
AcDbCircle
 10
254.498692
 20
-111.164199
 30
0.0
 40
4.184783
100
AcDbArc
 50
349.006787
 51
36.294958
  0
ARC
  5
31FC
100
AcDbEntity
  8
0
100
AcDbCircle
 10
259.817201
 20
-109.492966
 30
0.0
 40
2.75
100
AcDbArc
 50
243.884095
 51
71.115905
  0
ARC
  5
31FD
100
AcDbEntity
  8
0
100
AcDbCircle
 10
262.76241
 20
-102.996189
 30
0.0
 40
4.184783
100
AcDbArc
 50
278.705042
 51
312.045649
  0
ARC
  5
31FE
100
AcDbEntity
  8
0
100
AcDbCircle
 10
260.022915
 20
-109.609914
 30
0.0
 40
4.184783
100
AcDbArc
 50
349.006787
 51
36.294958
  0
ARC
  5
31FF
100
AcDbEntity
  8
0
100
AcDbCircle
 10
257.238187
 20
-104.550473
 30
0.0
 40
4.184783
100
AcDbArc
 50
278.705042
 51
325.993213
  0
ARC
  5
3200
100
AcDbEntity
  8
0
100
AcDbCircle
 10
262.534253
 20
-102.933421
 30
0.0
 40
2.75
100
AcDbArc
 50
243.884095
 51
307.707853
  0
ARC
  5
3201
100
AcDbEntity
  8
0
100
AcDbCircle
 10
254.521134
 20
-111.110017
 30
0.0
 40
4.184783
100
AcDbArc
 50
287.780817
 51
325.993213
  0
LINE
  5
3202
100
AcDbEntity
  8
0
100
AcDbLine
 10
255.799069
 20
-115.0949
 30
0.0
 11
259.827906
 21
-115.703457
 31
0.0
  0
ARC
  5
3203
100
AcDbEntity
  8
0
100
AcDbCircle
 10
257.305863
 20
-116.169459
 30
0.0
 40
4.184783
100
AcDbArc
 50
2.954351
 51
36.294958
  0
ARC
  5
3204
100
AcDbEntity
  8
0
100
AcDbCircle
 10
257.100149
 20
-116.052511
 30
0.0
 40
2.75
100
AcDbArc
 50
7.292147
 51
71.115905
  0
ARC
  5
3205
100
AcDbEntity
  8
0
100
AcDbCircle
 10
262.830086
 20
-114.615175
 30
0.0
 40
4.184783
100
AcDbArc
 50
349.006787
 51
36.294958
  0
ARC
  5
3206
100
AcDbEntity
  8
0
100
AcDbCircle
 10
268.148596
 20
-112.943943
 30
0.0
 40
2.75
100
AcDbArc
 50
243.884095
 51
71.115905
  0
ARC
  5
3207
100
AcDbEntity
  8
0
100
AcDbCircle
 10
268.279948
 20
-112.998351
 30
0.0
 40
5.751159
100
AcDbArc
 50
265.413411
 51
49.586589
  0
ARC
  5
3208
100
AcDbEntity
  8
0
100
AcDbCircle
 10
265.569581
 20
-108.001449
 30
0.0
 40
4.184783
100
AcDbArc
 50
278.705042
 51
325.993213
  0
ARC
  5
3209
100
AcDbEntity
  8
0
100
AcDbCircle
 10
218.125524
 20
-172.107037
 30
0.0
 40
84.006565
100
AcDbArc
 50
60.067587
 51
62.188476
  0
ARC
  5
320A
100
AcDbEntity
  8
0
100
AcDbCircle
 10
218.125524
 20
-14.861791
 30
0.0
 40
84.006565
100
AcDbArc
 50
297.811524
 51
299.932413
  0
ARC
  5
320B
100
AcDbEntity
  8
0
100
AcDbCircle
 10
258.492582
 20
-89.934414
 30
0.0
 40
2.75
100
AcDbArc
 50
266.384095
 51
55.682867
  0
ARC
  5
320C
100
AcDbEntity
  8
0
100
AcDbCircle
 10
258.492582
 20
-97.034414
 30
0.0
 40
2.75
100
AcDbArc
 50
304.317133
 51
93.615905
  0
ARC
  5
320D
100
AcDbEntity
  8
0
100
AcDbCircle
 10
218.125524
 20
-172.107037
 30
0.0
 40
82.206565
100
AcDbArc
 50
59.702654
 51
71.71175
  0
ARC
  5
320E
100
AcDbEntity
  8
0
100
AcDbCircle
 10
248.444781
 20
-19.681841
 30
0.0
 40
82.206565
100
AcDbArc
 50
265.78825
 51
277.797346
  0
ARC
  5
320F
100
AcDbEntity
  8
0
100
AcDbCircle
 10
221.169137
 20
-93.484414
 30
0.0
 40
22.759718
100
AcDbArc
 50
338.93086
 51
358.56914
  0
ARC
  5
3210
100
AcDbEntity
  8
0
100
AcDbCircle
 10
249.709555
 20
-97.063737
 30
0.0
 40
4.184783
100
AcDbArc
 50
11.506787
 51
58.794958
  0
ARC
  5
3211
100
AcDbEntity
  8
0
100
AcDbCircle
 10
254.218473
 20
-93.455091
 30
0.0
 40
4.184783
100
AcDbArc
 50
301.205042
 51
348.493213
  0
ARC
  5
3212
100
AcDbEntity
  8
0
100
AcDbCircle
 10
253.983663
 20
-93.484414
 30
0.0
 40
2.75
100
AcDbArc
 50
266.384095
 51
93.615905
  0
ARC
  5
3213
100
AcDbEntity
  8
0
100
AcDbCircle
 10
249.709555
 20
-89.905091
 30
0.0
 40
4.184783
100
AcDbArc
 50
301.205042
 51
348.493213
  0
ARC
  5
3214
100
AcDbEntity
  8
0
100
AcDbCircle
 10
254.218473
 20
-86.355091
 30
0.0
 40
4.184783
100
AcDbArc
 50
301.205042
 51
317.829164
  0
ARC
  5
3215
100
AcDbEntity
  8
0
100
AcDbCircle
 10
254.218473
 20
-93.513737
 30
0.0
 40
4.184783
100
AcDbArc
 50
11.506787
 51
58.794958
  0
ARC
  5
3216
100
AcDbEntity
  8
0
100
AcDbCircle
 10
254.218473
 20
-100.613737
 30
0.0
 40
4.184783
100
AcDbArc
 50
42.170836
 51
58.794958
  0
ARC
  5
3217
100
AcDbEntity
  8
0
100
AcDbCircle
 10
258.727391
 20
-89.963737
 30
0.0
 40
4.184783
100
AcDbArc
 50
11.506787
 51
49.719183
  0
LINE
  5
3218
100
AcDbEntity
  8
0
100
AcDbLine
 10
261.432997
 20
-86.771229
 30
0.0
 11
265.388042
 21
-87.750765
 31
0.0
  0
LINE
  5
3219
100
AcDbEntity
  8
0
100
AcDbLine
 10
262.683812
 20
-85.226632
 30
0.0
 11
273.930449
 21
-88.012057
 31
0.0
  0
LINE
  5
321A
100
AcDbEntity
  8
0
100
AcDbLine
 10
267.014867
 20
-98.815151
 30
0.0
 11
270.06181
 21
-98.060523
 31
0.0
  0
LINE
  5
321B
100
AcDbEntity
  8
0
100
AcDbLine
 10
267.014867
 20
-88.153677
 30
0.0
 11
270.06181
 21
-88.908305
 31
0.0
  0
ARC
  5
321C
100
AcDbEntity
  8
0
100
AcDbCircle
 10
267.510418
 20
-89.934414
 30
0.0
 40
2.75
100
AcDbArc
 50
266.384095
 51
21.908807
  0
ARC
  5
321D
100
AcDbEntity
  8
0
100
AcDbCircle
 10
267.510418
 20
-97.034414
 30
0.0
 40
2.75
100
AcDbArc
 50
338.091193
 51
93.615905
  0
LINE
  5
321E
100
AcDbEntity
  8
0
100
AcDbLine
 10
262.683812
 20
-101.742196
 30
0.0
 11
273.930449
 21
-98.956771
 31
0.0
  0
ARC
  5
321F
100
AcDbEntity
  8
0
100
AcDbCircle
 10
263.236309
 20
-93.455091
 30
0.0
 40
4.184783
100
AcDbArc
 50
301.205042
 51
348.493213
  0
ARC
  5
3220
100
AcDbEntity
  8
0
100
AcDbCircle
 10
258.727391
 20
-97.063737
 30
0.0
 40
4.184783
100
AcDbArc
 50
11.506787
 51
58.794958
  0
ARC
  5
3221
100
AcDbEntity
  8
0
100
AcDbCircle
 10
263.0015
 20
-93.484414
 30
0.0
 40
2.75
100
AcDbArc
 50
266.384095
 51
93.615905
  0
ARC
  5
3222
100
AcDbEntity
  8
0
100
AcDbCircle
 10
263.236309
 20
-86.355091
 30
0.0
 40
4.184783
100
AcDbArc
 50
301.205042
 51
334.545649
  0
ARC
  5
3223
100
AcDbEntity
  8
0
100
AcDbCircle
 10
263.236309
 20
-93.513737
 30
0.0
 40
4.184783
100
AcDbArc
 50
11.506787
 51
58.794958
  0
ARC
  5
3224
100
AcDbEntity
  8
0
100
AcDbCircle
 10
258.727391
 20
-89.905091
 30
0.0
 40
4.184783
100
AcDbArc
 50
301.205042
 51
348.493213
  0
ARC
  5
3225
100
AcDbEntity
  8
0
100
AcDbCircle
 10
263.0015
 20
-86.384414
 30
0.0
 40
2.75
100
AcDbArc
 50
266.384095
 51
330.207853
  0
ARC
  5
3226
100
AcDbEntity
  8
0
100
AcDbCircle
 10
258.727391
 20
-97.005091
 30
0.0
 40
4.184783
100
AcDbArc
 50
310.280817
 51
348.493213
  0
LINE
  5
3227
100
AcDbEntity
  8
0
100
AcDbLine
 10
261.432997
 20
-100.197599
 30
0.0
 11
265.388042
 21
-99.218063
 31
0.0
  0
ARC
  5
3228
100
AcDbEntity
  8
0
100
AcDbCircle
 10
263.236309
 20
-100.613737
 30
0.0
 40
4.184783
100
AcDbArc
 50
25.454351
 51
58.794958
  0
ARC
  5
3229
100
AcDbEntity
  8
0
100
AcDbCircle
 10
263.0015
 20
-100.584414
 30
0.0
 40
2.75
100
AcDbArc
 50
29.792147
 51
93.615905
  0
ARC
  5
322A
100
AcDbEntity
  8
0
100
AcDbCircle
 10
267.745228
 20
-97.063737
 30
0.0
 40
4.184783
100
AcDbArc
 50
11.506787
 51
58.794958
  0
ARC
  5
322B
100
AcDbEntity
  8
0
100
AcDbCircle
 10
272.019336
 20
-93.484414
 30
0.0
 40
2.75
100
AcDbArc
 50
266.384095
 51
93.615905
  0
ARC
  5
322C
100
AcDbEntity
  8
0
100
AcDbCircle
 10
272.161511
 20
-93.484414
 30
0.0
 40
5.751159
100
AcDbArc
 50
287.913411
 51
72.086589
  0
ARC
  5
322D
100
AcDbEntity
  8
0
100
AcDbCircle
 10
267.745228
 20
-89.905091
 30
0.0
 40
4.184783
100
AcDbArc
 50
301.205042
 51
348.493213
  0
ARC
  5
322E
100
AcDbEntity
  8
0
100
AcDbCircle
 10
248.444781
 20
-167.286987
 30
0.0
 40
84.006565
100
AcDbArc
 50
82.567587
 51
84.688476
  0
ARC
  5
322F
100
AcDbEntity
  8
0
100
AcDbCircle
 10
188.26963
 20
-22.011322
 30
0.0
 40
84.006565
100
AcDbArc
 50
320.311524
 51
322.432413
  0
ARC
  5
3230
100
AcDbEntity
  8
0
100
AcDbCircle
 10
254.292977
 20
-75.921578
 30
0.0
 40
2.75
100
AcDbArc
 50
288.884095
 51
78.182867
  0
ARC
  5
3231
100
AcDbEntity
  8
0
100
AcDbCircle
 10
257.01003
 20
-82.481123
 30
0.0
 40
2.75
100
AcDbArc
 50
326.817133
 51
116.115905
  0
ARC
  5
3232
100
AcDbEntity
  8
0
100
AcDbCircle
 10
248.444781
 20
-167.286987
 30
0.0
 40
82.206565
100
AcDbArc
 50
82.202654
 51
94.21175
  0
ARC
  5
3233
100
AcDbEntity
  8
0
100
AcDbCircle
 10
218.125524
 20
-14.861791
 30
0.0
 40
82.206565
100
AcDbArc
 50
288.28825
 51
300.297346
  0
ARC
  5
3234
100
AcDbEntity
  8
0
100
AcDbCircle
 10
221.169137
 20
-93.484414
 30
0.0
 40
22.759718
100
AcDbArc
 50
1.43086
 51
21.06914
  0
ARC
  5
3235
100
AcDbEntity
  8
0
100
AcDbCircle
 10
248.906792
 20
-85.869332
 30
0.0
 40
4.184783
100
AcDbArc
 50
34.006787
 51
81.294958
  0
ARC
  5
3236
100
AcDbEntity
  8
0
100
AcDbCircle
 10
251.691521
 20
-80.80989
 30
0.0
 40
4.184783
100
AcDbArc
 50
323.705042
 51
10.993213
  0
ARC
  5
3237
100
AcDbEntity
  8
0
100
AcDbCircle
 10
251.485806
 20
-80.926838
 30
0.0
 40
2.75
100
AcDbArc
 50
288.884095
 51
116.115905
  0
ARC
  5
3238
100
AcDbEntity
  8
0
100
AcDbCircle
 10
246.167297
 20
-79.255606
 30
0.0
 40
4.184783
100
AcDbArc
 50
323.705042
 51
10.993213
  0
ARC
  5
3239
100
AcDbEntity
  8
0
100
AcDbCircle
 10
248.974468
 20
-74.250345
 30
0.0
 40
4.184783
100
AcDbArc
 50
323.705042
 51
340.329164
  0
ARC
  5
323A
100
AcDbEntity
  8
0
100
AcDbCircle
 10
251.713963
 20
-80.864071
 30
0.0
 40
4.184783
100
AcDbArc
 50
34.006787
 51
81.294958
  0
ARC
  5
323B
100
AcDbEntity
  8
0
100
AcDbCircle
 10
254.431016
 20
-87.423616
 30
0.0
 40
4.184783
100
AcDbArc
 50
64.670836
 51
81.294958
  0
ARC
  5
323C
100
AcDbEntity
  8
0
100
AcDbCircle
 10
254.521134
 20
-75.858811
 30
0.0
 40
4.184783
100
AcDbArc
 50
34.006787
 51
72.219183
  0
LINE
  5
323D
100
AcDbEntity
  8
0
100
AcDbLine
 10
255.799069
 20
-71.873928
 30
0.0
 11
259.827906
 21
-71.265371
 31
0.0
  0
LINE
  5
323E
100
AcDbEntity
  8
0
100
AcDbLine
 10
256.363579
 20
-69.96824
 30
0.0
 11
267.820053
 21
-68.237736
 31
0.0
  0
LINE
  5
323F
100
AcDbEntity
  8
0
100
AcDbLine
 10
265.565053
 20
-80.864972
 30
0.0
 11
268.091278
 21
-79.001771
 31
0.0
  0
LINE
  5
3240
100
AcDbEntity
  8
0
100
AcDbLine
 10
261.485084
 20
-71.015054
 30
0.0
 11
264.588876
 21
-70.546225
 31
0.0
  0
ARC
  5
3241
100
AcDbEntity
  8
0
100
AcDbCircle
 10
262.624372
 20
-72.470601
 30
0.0
 40
2.75
100
AcDbArc
 50
288.884095
 51
44.408807
  0
ARC
  5
3242
100
AcDbEntity
  8
0
100
AcDbCircle
 10
265.341424
 20
-79.030146
 30
0.0
 40
2.75
100
AcDbArc
 50
0.591193
 51
116.115905
  0
LINE
  5
3243
100
AcDbEntity
  8
0
100
AcDbLine
 10
262.683812
 20
-85.226632
 30
0.0
 11
272.008413
 21
-78.349332
 31
0.0
  0
ARC
  5
3244
100
AcDbEntity
  8
0
100
AcDbCircle
 10
260.022915
 20
-77.358914
 30
0.0
 40
4.184783
100
AcDbArc
 50
323.705042
 51
10.993213
  0
ARC
  5
3245
100
AcDbEntity
  8
0
100
AcDbCircle
 10
257.238187
 20
-82.418355
 30
0.0
 40
4.184783
100
AcDbArc
 50
34.006787
 51
81.294958
  0
ARC
  5
3246
100
AcDbEntity
  8
0
100
AcDbCircle
 10
259.817201
 20
-77.475862
 30
0.0
 40
2.75
100
AcDbArc
 50
288.884095
 51
116.115905
  0
ARC
  5
3247
100
AcDbEntity
  8
0
100
AcDbCircle
 10
257.305863
 20
-70.799369
 30
0.0
 40
4.184783
100
AcDbArc
 50
323.705042
 51
357.045649
  0
ARC
  5
3248
100
AcDbEntity
  8
0
100
AcDbCircle
 10
260.045358
 20
-77.413095
 30
0.0
 40
4.184783
100
AcDbArc
 50
34.006787
 51
81.294958
  0
ARC
  5
3249
100
AcDbEntity
  8
0
100
AcDbCircle
 10
254.498692
 20
-75.80463
 30
0.0
 40
4.184783
100
AcDbArc
 50
323.705042
 51
10.993213
  0
ARC
  5
324A
100
AcDbEntity
  8
0
100
AcDbCircle
 10
257.100149
 20
-70.916317
 30
0.0
 40
2.75
100
AcDbArc
 50
288.884095
 51
352.707853
  0
ARC
  5
324B
100
AcDbEntity
  8
0
100
AcDbCircle
 10
257.215744
 20
-82.364174
 30
0.0
 40
4.184783
100
AcDbArc
 50
332.780817
 51
10.993213
  0
LINE
  5
324C
100
AcDbEntity
  8
0
100
AcDbLine
 10
260.937118
 20
-84.278276
 30
0.0
 11
264.216251
 21
-81.859772
 31
0.0
  0
ARC
  5
324D
100
AcDbEntity
  8
0
100
AcDbCircle
 10
262.76241
 20
-83.972639
 30
0.0
 40
4.184783
100
AcDbArc
 50
47.954351
 51
81.294958
  0
ARC
  5
324E
100
AcDbEntity
  8
0
100
AcDbCircle
 10
262.534253
 20
-84.035407
 30
0.0
 40
2.75
100
AcDbArc
 50
52.292147
 51
116.115905
  0
ARC
  5
324F
100
AcDbEntity
  8
0
100
AcDbCircle
 10
265.569581
 20
-78.967379
 30
0.0
 40
4.184783
100
AcDbArc
 50
34.006787
 51
81.294958
  0
ARC
  5
3250
100
AcDbEntity
  8
0
100
AcDbCircle
 10
268.148596
 20
-74.024885
 30
0.0
 40
2.75
100
AcDbArc
 50
288.884095
 51
116.115905
  0
ARC
  5
3251
100
AcDbEntity
  8
0
100
AcDbCircle
 10
268.279948
 20
-73.970477
 30
0.0
 40
5.751159
100
AcDbArc
 50
310.413411
 51
94.586589
  0
ARC
  5
3252
100
AcDbEntity
  8
0
100
AcDbCircle
 10
262.830086
 20
-72.353653
 30
0.0
 40
4.184783
100
AcDbArc
 50
323.705042
 51
10.993213
  0
ARC
  5
3253
100
AcDbEntity
  8
0
100
AcDbCircle
 10
274.611568
 20
-151.231164
 30
0.0
 40
84.006565
100
AcDbArc
 50
105.067587
 51
107.188476
  0
ARC
  5
3254
100
AcDbEntity
  8
0
100
AcDbCircle
 10
163.422387
 20
-40.041983
 30
0.0
 40
84.006565
100
AcDbArc
 50
342.811524
 51
344.932413
  0
ARC
  5
3255
100
AcDbEntity
  8
0
100
AcDbCircle
 10
245.050569
 20
-64.582524
 30
0.0
 40
2.75
100
AcDbArc
 50
311.384095
 51
100.682867
  0
ARC
  5
3256
100
AcDbEntity
  8
0
100
AcDbCircle
 10
250.071027
 20
-69.602982
 30
0.0
 40
2.75
100
AcDbArc
 50
349.317133
 51
138.615905
  0
ARC
  5
3257
100
AcDbEntity
  8
0
100
AcDbCircle
 10
274.611568
 20
-151.231164
 30
0.0
 40
82.206565
100
AcDbArc
 50
104.702654
 51
116.71175
  0
ARC
  5
3258
100
AcDbEntity
  8
0
100
AcDbCircle
 10
188.26963
 20
-22.011322
 30
0.0
 40
82.206565
100
AcDbArc
 50
310.78825
 51
322.797346
  0
ARC
  5
3259
100
AcDbEntity
  8
0
100
AcDbCircle
 10
221.169137
 20
-93.484414
 30
0.0
 40
22.759718
100
AcDbArc
 50
23.93086
 51
43.56914
  0
ARC
  5
325A
100
AcDbEntity
  8
0
100
AcDbCircle
 10
243.881223
 20
-75.834255
 30
0.0
 40
4.184783
100
AcDbArc
 50
56.506787
 51
103.794958
  0
ARC
  5
325B
100
AcDbEntity
  8
0
100
AcDbCircle
 10
244.517812
 20
-70.09427
 30
0.0
 40
4.184783
100
AcDbArc
 50
346.205042
 51
33.493213
  0
ARC
  5
325C
100
AcDbEntity
  8
0
100
AcDbCircle
 10
244.372511
 20
-70.28104
 30
0.0
 40
2.75
100
AcDbArc
 50
311.384095
 51
138.615905
  0
ARC
  5
325D
100
AcDbEntity
  8
0
100
AcDbCircle
 10
238.819297
 20
-70.772328
 30
0.0
 40
4.184783
100
AcDbArc
 50
346.205042
 51
33.493213
  0
ARC
  5
325E
100
AcDbEntity
  8
0
100
AcDbCircle
 10
239.497354
 20
-65.073812
 30
0.0
 40
4.184783
100
AcDbArc
 50
346.205042
 51
2.829164
  0
ARC
  5
325F
100
AcDbEntity
  8
0
100
AcDbCircle
 10
244.559281
 20
-70.135739
 30
0.0
 40
4.184783
100
AcDbArc
 50
56.506787
 51
103.794958
  0
ARC
  5
3260
100
AcDbEntity
  8
0
100
AcDbCircle
 10
249.579739
 20
-75.156197
 30
0.0
 40
4.184783
100
AcDbArc
 50
87.170836
 51
103.794958
  0
ARC
  5
3261
100
AcDbEntity
  8
0
100
AcDbCircle
 10
245.237338
 20
-64.437223
 30
0.0
 40
4.184783
100
AcDbArc
 50
56.506787
 51
94.719183
  0
LINE
  5
3262
100
AcDbEntity
  8
0
100
AcDbLine
 10
244.893047
 20
-60.266627
 30
0.0
 11
248.382323
 21
-58.162625
 31
0.0
  0
LINE
  5
3263
100
AcDbEntity
  8
0
100
AcDbLine
 10
244.685311
 20
-58.289972
 30
0.0
 11
254.607478
 21
-52.306992
 31
0.0
  0
LINE
  5
3264
100
AcDbEntity
  8
0
100
AcDbLine
 10
257.356364
 20
-64.835988
 30
0.0
 11
258.977275
 21
-62.147871
 31
0.0
  0
LINE
  5
3265
100
AcDbEntity
  8
0
100
AcDbLine
 10
249.817563
 20
-57.297187
 30
0.0
 11
252.50568
 21
-55.676276
 31
0.0
  0
ARC
  5
3266
100
AcDbEntity
  8
0
100
AcDbCircle
 10
251.427142
 20
-58.205951
 30
0.0
 40
2.75
100
AcDbArc
 50
311.384095
 51
66.908807
  0
ARC
  5
3267
100
AcDbEntity
  8
0
100
AcDbCircle
 10
256.4476
 20
-63.226409
 30
0.0
 40
2.75
100
AcDbArc
 50
23.091193
 51
138.615905
  0
LINE
  5
3268
100
AcDbEntity
  8
0
100
AcDbLine
 10
256.363579
 20
-69.96824
 30
0.0
 11
262.346559
 21
-60.046073
 31
0.0
  0
ARC
  5
3269
100
AcDbEntity
  8
0
100
AcDbCircle
 10
250.894386
 20
-63.717697
 30
0.0
 40
4.184783
100
AcDbArc
 50
346.205042
 51
33.493213
  0
ARC
  5
326A
100
AcDbEntity
  8
0
100
AcDbCircle
 10
250.257797
 20
-69.457681
 30
0.0
 40
4.184783
100
AcDbArc
 50
56.506787
 51
103.794958
  0
ARC
  5
326B
100
AcDbEntity
  8
0
100
AcDbCircle
 10
250.749085
 20
-63.904467
 30
0.0
 40
2.75
100
AcDbArc
 50
311.384095
 51
138.615905
  0
ARC
  5
326C
100
AcDbEntity
  8
0
100
AcDbCircle
 10
245.873928
 20
-58.697239
 30
0.0
 40
4.184783
100
AcDbArc
 50
346.205042
 51
19.545649
  0
ARC
  5
326D
100
AcDbEntity
  8
0
100
AcDbCircle
 10
250.935854
 20
-63.759166
 30
0.0
 40
4.184783
100
AcDbArc
 50
56.506787
 51
103.794958
  0
ARC
  5
326E
100
AcDbEntity
  8
0
100
AcDbCircle
 10
245.19587
 20
-64.395755
 30
0.0
 40
4.184783
100
AcDbArc
 50
346.205042
 51
33.493213
  0
ARC
  5
326F
100
AcDbEntity
  8
0
100
AcDbCircle
 10
245.728626
 20
-58.884009
 30
0.0
 40
2.75
100
AcDbArc
 50
311.384095
 51
15.207853
  0
ARC
  5
3270
100
AcDbEntity
  8
0
100
AcDbCircle
 10
250.216328
 20
-69.416213
 30
0.0
 40
4.184783
100
AcDbArc
 50
355.280817
 51
33.493213
  0
LINE
  5
3271
100
AcDbEntity
  8
0
100
AcDbLine
 10
254.386924
 20
-69.760504
 30
0.0
 11
256.490927
 21
-66.271228
 31
0.0
  0
ARC
  5
3272
100
AcDbEntity
  8
0
100
AcDbCircle
 10
255.956312
 20
-68.779624
 30
0.0
 40
4.184783
100
AcDbArc
 50
70.454351
 51
103.794958
  0
ARC
  5
3273
100
AcDbEntity
  8
0
100
AcDbCircle
 10
255.769543
 20
-68.924925
 30
0.0
 40
2.75
100
AcDbArc
 50
74.792147
 51
138.615905
  0
ARC
  5
3274
100
AcDbEntity
  8
0
100
AcDbCircle
 10
256.63437
 20
-63.081108
 30
0.0
 40
4.184783
100
AcDbArc
 50
56.506787
 51
103.794958
  0
ARC
  5
3275
100
AcDbEntity
  8
0
100
AcDbCircle
 10
257.125658
 20
-57.527893
 30
0.0
 40
2.75
100
AcDbArc
 50
311.384095
 51
138.615905
  0
ARC
  5
3276
100
AcDbEntity
  8
0
100
AcDbCircle
 10
257.226191
 20
-57.427361
 30
0.0
 40
5.751159
100
AcDbArc
 50
332.913411
 51
117.086589
  0
ARC
  5
3277
100
AcDbEntity
  8
0
100
AcDbCircle
 10
251.572443
 20
-58.019181
 30
0.0
 40
4.184783
100
AcDbArc
 50
346.205042
 51
33.493213
  0
ARC
  5
3278
100
AcDbEntity
  8
0
100
AcDbCircle
 10
292.642229
 20
-126.383921
 30
0.0
 40
84.006565
100
AcDbArc
 50
127.567587
 51
129.688476
  0
ARC
  5
3279
100
AcDbEntity
  8
0
100
AcDbCircle
 10
147.366564
 20
-66.208771
 30
0.0
 40
84.006565
100
AcDbArc
 50
5.311524
 51
7.432413
  0
ARC
  5
327A
100
AcDbEntity
  8
0
100
AcDbCircle
 10
232.172429
 20
-57.643521
 30
0.0
 40
2.75
100
AcDbArc
 50
333.884095
 51
123.182867
  0
ARC
  5
327B
100
AcDbEntity
  8
0
100
AcDbCircle
 10
238.731973
 20
-60.360574
 30
0.0
 40
2.75
100
AcDbArc
 50
11.817133
 51
161.115905
  0
ARC
  5
327C
100
AcDbEntity
  8
0
100
AcDbCircle
 10
292.642229
 20
-126.383921
 30
0.0
 40
82.206565
100
AcDbArc
 50
127.202654
 51
139.21175
  0
ARC
  5
327D
100
AcDbEntity
  8
0
100
AcDbCircle
 10
163.422387
 20
-40.041983
 30
0.0
 40
82.206565
100
AcDbArc
 50
333.28825
 51
345.297346
  0
ARC
  5
327E
100
AcDbEntity
  8
0
100
AcDbCircle
 10
221.169137
 20
-93.484414
 30
0.0
 40
22.759718
100
AcDbArc
 50
46.43086
 51
66.06914
  0
ARC
  5
327F
100
AcDbEntity
  8
0
100
AcDbCircle
 10
235.397945
 20
-68.486254
 30
0.0
 40
4.184783
100
AcDbArc
 50
79.006787
 51
126.294958
  0
ARC
  5
3280
100
AcDbEntity
  8
0
100
AcDbCircle
 10
233.78948
 20
-62.939588
 30
0.0
 40
4.184783
100
AcDbArc
 50
8.705042
 51
55.993213
  0
ARC
  5
3281
100
AcDbEntity
  8
0
100
AcDbCircle
 10
233.726713
 20
-63.167745
 30
0.0
 40
2.75
100
AcDbArc
 50
333.884095
 51
161.115905
  0
ARC
  5
3282
100
AcDbEntity
  8
0
100
AcDbCircle
 10
228.784219
 20
-65.746759
 30
0.0
 40
4.184783
100
AcDbArc
 50
8.705042
 51
55.993213
  0
ARC
  5
3283
100
AcDbEntity
  8
0
100
AcDbCircle
 10
227.229935
 20
-60.222536
 30
0.0
 40
4.184783
100
AcDbArc
 50
8.705042
 51
25.329164
  0
ARC
  5
3284
100
AcDbEntity
  8
0
100
AcDbCircle
 10
233.843661
 20
-62.962031
 30
0.0
 40
4.184783
100
AcDbArc
 50
79.006787
 51
126.294958
  0
ARC
  5
3285
100
AcDbEntity
  8
0
100
AcDbCircle
 10
240.403206
 20
-65.679083
 30
0.0
 40
4.184783
100
AcDbArc
 50
109.670836
 51
126.294958
  0
ARC
  5
3286
100
AcDbEntity
  8
0
100
AcDbCircle
 10
232.289377
 20
-57.437807
 30
0.0
 40
4.184783
100
AcDbArc
 50
79.006787
 51
117.219183
  0
LINE
  5
3287
100
AcDbEntity
  8
0
100
AcDbLine
 10
230.375276
 20
-53.716434
 30
0.0
 11
232.793779
 21
-50.4373
 31
0.0
  0
LINE
  5
3288
100
AcDbEntity
  8
0
100
AcDbLine
 10
229.426919
 20
-51.96974
 30
0.0
 11
236.304219
 21
-42.645138
 31
0.0
  0
LINE
  5
3289
100
AcDbEntity
  8
0
100
AcDbLine
 10
243.638497
 20
-53.168468
 30
0.0
 11
244.107326
 21
-50.064675
 31
0.0
  0
LINE
  5
328A
100
AcDbEntity
  8
0
100
AcDbLine
 10
233.788579
 20
-49.088498
 30
0.0
 11
235.65178
 21
-46.562273
 31
0.0
  0
ARC
  5
328B
100
AcDbEntity
  8
0
100
AcDbCircle
 10
235.623405
 20
-49.312127
 30
0.0
 40
2.75
100
AcDbArc
 50
333.884095
 51
89.408807
  0
ARC
  5
328C
100
AcDbEntity
  8
0
100
AcDbCircle
 10
242.18295
 20
-52.029179
 30
0.0
 40
2.75
100
AcDbArc
 50
45.591193
 51
161.115905
  0
LINE
  5
328D
100
AcDbEntity
  8
0
100
AcDbLine
 10
244.685311
 20
-58.289972
 30
0.0
 11
246.415815
 21
-46.833498
 31
0.0
  0
ARC
  5
328E
100
AcDbEntity
  8
0
100
AcDbCircle
 10
237.240456
 20
-54.608193
 30
0.0
 40
4.184783
100
AcDbArc
 50
8.705042
 51
55.993213
  0
ARC
  5
328F
100
AcDbEntity
  8
0
100
AcDbCircle
 10
238.848922
 20
-60.154859
 30
0.0
 40
4.184783
100
AcDbArc
 50
79.006787
 51
126.294958
  0
ARC
  5
3290
100
AcDbEntity
  8
0
100
AcDbCircle
 10
237.177689
 20
-54.83635
 30
0.0
 40
2.75
100
AcDbArc
 50
333.884095
 51
161.115905
  0
ARC
  5
3291
100
AcDbEntity
  8
0
100
AcDbCircle
 10
230.680912
 20
-51.891141
 30
0.0
 40
4.184783
100
AcDbArc
 50
8.705042
 51
42.045649
  0
ARC
  5
3292
100
AcDbEntity
  8
0
100
AcDbCircle
 10
237.294638
 20
-54.630636
 30
0.0
 40
4.184783
100
AcDbArc
 50
79.006787
 51
126.294958
  0
ARC
  5
3293
100
AcDbEntity
  8
0
100
AcDbCircle
 10
232.235196
 20
-57.415364
 30
0.0
 40
4.184783
100
AcDbArc
 50
8.705042
 51
55.993213
  0
ARC
  5
3294
100
AcDbEntity
  8
0
100
AcDbCircle
 10
230.618145
 20
-52.119298
 30
0.0
 40
2.75
100
AcDbArc
 50
333.884095
 51
37.707853
  0
ARC
  5
3295
100
AcDbEntity
  8
0
100
AcDbCircle
 10
238.79474
 20
-60.132417
 30
0.0
 40
4.184783
100
AcDbArc
 50
17.780817
 51
55.993213
  0
LINE
  5
3296
100
AcDbEntity
  8
0
100
AcDbLine
 10
242.779623
 20
-58.854483
 30
0.0
 11
243.38818
 21
-54.825645
 31
0.0
  0
ARC
  5
3297
100
AcDbEntity
  8
0
100
AcDbCircle
 10
243.854182
 20
-57.347688
 30
0.0
 40
4.184783
100
AcDbArc
 50
92.954351
 51
126.294958
  0
ARC
  5
3298
100
AcDbEntity
  8
0
100
AcDbCircle
 10
243.737234
 20
-57.553403
 30
0.0
 40
2.75
100
AcDbArc
 50
97.292147
 51
161.115905
  0
ARC
  5
3299
100
AcDbEntity
  8
0
100
AcDbCircle
 10
242.299898
 20
-51.823465
 30
0.0
 40
4.184783
100
AcDbArc
 50
79.006787
 51
126.294958
  0
ARC
  5
329A
100
AcDbEntity
  8
0
100
AcDbCircle
 10
240.628666
 20
-46.504956
 30
0.0
 40
2.75
100
AcDbArc
 50
333.884095
 51
161.115905
  0
ARC
  5
329B
100
AcDbEntity
  8
0
100
AcDbCircle
 10
240.683074
 20
-46.373603
 30
0.0
 40
5.751159
100
AcDbArc
 50
355.413411
 51
139.586589
  0
ARC
  5
329C
100
AcDbEntity
  8
0
100
AcDbCircle
 10
235.686172
 20
-49.08397
 30
0.0
 40
4.184783
100
AcDbArc
 50
8.705042
 51
55.993213
  0
CIRCLE
  5
329D
100
AcDbEntity
  8
0
100
AcDbCircle
 10
221.169137
 20
-74.660388
 30
0.0
 40
1.5
  0
CIRCLE
  5
32C8
100
AcDbEntity
  8
0
100
AcDbCircle
 10
216.297121
 20
-75.301801
 30
0.0
 40
1.5
  0
CIRCLE
  5
32C9
100
AcDbEntity
  8
0
100
AcDbCircle
 10
211.757124
 20
-77.182329
 30
0.0
 40
1.5
  0
CIRCLE
  5
32CA
100
AcDbEntity
  8
0
100
AcDbCircle
 10
207.858541
 20
-80.173817
 30
0.0
 40
1.5
  0
CIRCLE
  5
32CB
100
AcDbEntity
  8
0
100
AcDbCircle
 10
204.867052
 20
-84.072401
 30
0.0
 40
1.5
  0
CIRCLE
  5
32CC
100
AcDbEntity
  8
0
100
AcDbCircle
 10
202.986524
 20
-88.612398
 30
0.0
 40
1.5
  0
CIRCLE
  5
32CD
100
AcDbEntity
  8
0
100
AcDbCircle
 10
202.345111
 20
-93.484414
 30
0.0
 40
1.5
  0
CIRCLE
  5
32CE
100
AcDbEntity
  8
0
100
AcDbCircle
 10
202.986524
 20
-98.35643
 30
0.0
 40
1.5
  0
CIRCLE
  5
32CF
100
AcDbEntity
  8
0
100
AcDbCircle
 10
204.867052
 20
-102.896427
 30
0.0
 40
1.5
  0
CIRCLE
  5
32D0
100
AcDbEntity
  8
0
100
AcDbCircle
 10
207.858541
 20
-106.795011
 30
0.0
 40
1.5
  0
CIRCLE
  5
32D1
100
AcDbEntity
  8
0
100
AcDbCircle
 10
211.757124
 20
-109.786499
 30
0.0
 40
1.5
  0
CIRCLE
  5
32D2
100
AcDbEntity
  8
0
100
AcDbCircle
 10
216.297121
 20
-111.667027
 30
0.0
 40
1.5
  0
CIRCLE
  5
32D3
100
AcDbEntity
  8
0
100
AcDbCircle
 10
221.169137
 20
-112.30844
 30
0.0
 40
1.5
  0
CIRCLE
  5
32D4
100
AcDbEntity
  8
0
100
AcDbCircle
 10
226.041154
 20
-111.667027
 30
0.0
 40
1.5
  0
CIRCLE
  5
32D5
100
AcDbEntity
  8
0
100
AcDbCircle
 10
230.58115
 20
-109.786499
 30
0.0
 40
1.5
  0
CIRCLE
  5
32D6
100
AcDbEntity
  8
0
100
AcDbCircle
 10
234.479734
 20
-106.795011
 30
0.0
 40
1.5
  0
CIRCLE
  5
32D7
100
AcDbEntity
  8
0
100
AcDbCircle
 10
237.471222
 20
-102.896427
 30
0.0
 40
1.5
  0
CIRCLE
  5
32D8
100
AcDbEntity
  8
0
100
AcDbCircle
 10
239.35175
 20
-98.35643
 30
0.0
 40
1.5
  0
CIRCLE
  5
32D9
100
AcDbEntity
  8
0
100
AcDbCircle
 10
239.993163
 20
-93.484414
 30
0.0
 40
1.5
  0
CIRCLE
  5
32DA
100
AcDbEntity
  8
0
100
AcDbCircle
 10
239.35175
 20
-88.612398
 30
0.0
 40
1.5
  0
CIRCLE
  5
32DB
100
AcDbEntity
  8
0
100
AcDbCircle
 10
237.471222
 20
-84.072401
 30
0.0
 40
1.5
  0
CIRCLE
  5
32DC
100
AcDbEntity
  8
0
100
AcDbCircle
 10
234.479734
 20
-80.173817
 30
0.0
 40
1.5
  0
CIRCLE
  5
32DD
100
AcDbEntity
  8
0
100
AcDbCircle
 10
230.58115
 20
-77.182329
 30
0.0
 40
1.5
  0
CIRCLE
  5
32DE
100
AcDbEntity
  8
0
100
AcDbCircle
 10
226.041154
 20
-75.301801
 30
0.0
 40
1.5
  0
CIRCLE
  5
32E2
100
AcDbEntity
  8
0
100
AcDbCircle
 10
219.339825
 20
-79.781957
 30
0.0
 40
1.2
  0
CIRCLE
  5
32E3
100
AcDbEntity
  8
0
100
AcDbCircle
 10
215.855701
 20
-80.722318
 30
0.0
 40
1.2
  0
CIRCLE
  5
32E4
100
AcDbEntity
  8
0
100
AcDbCircle
 10
212.733678
 20
-82.532395
 30
0.0
 40
1.2
  0
CIRCLE
  5
32E5
100
AcDbEntity
  8
0
100
AcDbCircle
 10
210.186518
 20
-85.088833
 30
0.0
 40
1.2
  0
CIRCLE
  5
32E6
100
AcDbEntity
  8
0
100
AcDbCircle
 10
208.387806
 20
-88.217417
 30
0.0
 40
1.2
  0
CIRCLE
  5
32E7
100
AcDbEntity
  8
0
100
AcDbCircle
 10
207.46012
 20
-91.704937
 30
0.0
 40
1.2
  0
CIRCLE
  5
32E8
100
AcDbEntity
  8
0
100
AcDbCircle
 10
207.466681
 20
-95.313726
 30
0.0
 40
1.2
  0
CIRCLE
  5
32E9
100
AcDbEntity
  8
0
100
AcDbCircle
 10
208.407041
 20
-98.797851
 30
0.0
 40
1.2
  0
CIRCLE
  5
32EA
100
AcDbEntity
  8
0
100
AcDbCircle
 10
210.217118
 20
-101.919873
 30
0.0
 40
1.2
  0
CIRCLE
  5
32EB
100
AcDbEntity
  8
0
100
AcDbCircle
 10
212.773556
 20
-104.467033
 30
0.0
 40
1.2
  0
CIRCLE
  5
32EC
100
AcDbEntity
  8
0
100
AcDbCircle
 10
215.90214
 20
-106.265746
 30
0.0
 40
1.2
  0
CIRCLE
  5
32ED
100
AcDbEntity
  8
0
100
AcDbCircle
 10
219.38966
 20
-107.193432
 30
0.0
 40
1.2
  0
CIRCLE
  5
32EE
100
AcDbEntity
  8
0
100
AcDbCircle
 10
222.99845
 20
-107.186871
 30
0.0
 40
1.2
  0
CIRCLE
  5
32EF
100
AcDbEntity
  8
0
100
AcDbCircle
 10
226.482574
 20
-106.24651
 30
0.0
 40
1.2
  0
CIRCLE
  5
32F0
100
AcDbEntity
  8
0
100
AcDbCircle
 10
229.604596
 20
-104.436433
 30
0.0
 40
1.2
  0
CIRCLE
  5
32F1
100
AcDbEntity
  8
0
100
AcDbCircle
 10
232.151756
 20
-101.879995
 30
0.0
 40
1.2
  0
CIRCLE
  5
32F2
100
AcDbEntity
  8
0
100
AcDbCircle
 10
233.950469
 20
-98.751411
 30
0.0
 40
1.2
  0
CIRCLE
  5
32F3
100
AcDbEntity
  8
0
100
AcDbCircle
 10
234.878155
 20
-95.263891
 30
0.0
 40
1.2
  0
CIRCLE
  5
32F4
100
AcDbEntity
  8
0
100
AcDbCircle
 10
234.871594
 20
-91.655102
 30
0.0
 40
1.2
  0
CIRCLE
  5
32F5
100
AcDbEntity
  8
0
100
AcDbCircle
 10
233.931233
 20
-88.170977
 30
0.0
 40
1.2
  0
CIRCLE
  5
32F6
100
AcDbEntity
  8
0
100
AcDbCircle
 10
232.121157
 20
-85.048955
 30
0.0
 40
1.2
  0
CIRCLE
  5
32F7
100
AcDbEntity
  8
0
100
AcDbCircle
 10
229.564718
 20
-82.501795
 30
0.0
 40
1.2
  0
CIRCLE
  5
32F8
100
AcDbEntity
  8
0
100
AcDbCircle
 10
226.436135
 20
-80.703082
 30
0.0
 40
1.2
  0
CIRCLE
  5
32F9
100
AcDbEntity
  8
0
100
AcDbCircle
 10
222.948614
 20
-79.775396
 30
0.0
 40
1.2
  0
CIRCLE
  5
32FB
100
AcDbEntity
  8
0
100
AcDbCircle
 10
221.169137
 20
-84.660388
 30
0.0
 40
1.0
  0
CIRCLE
  5
32FC
100
AcDbEntity
  8
0
100
AcDbCircle
 10
217.792329
 20
-85.332077
 30
0.0
 40
1.0
  0
CIRCLE
  5
32FD
100
AcDbEntity
  8
0
100
AcDbCircle
 10
214.929608
 20
-87.244885
 30
0.0
 40
1.0
  0
CIRCLE
  5
32FE
100
AcDbEntity
  8
0
100
AcDbCircle
 10
213.0168
 20
-90.107605
 30
0.0
 40
1.0
  0
CIRCLE
  5
32FF
100
AcDbEntity
  8
0
100
AcDbCircle
 10
212.345111
 20
-93.484414
 30
0.0
 40
1.0
  0
CIRCLE
  5
3300
100
AcDbEntity
  8
0
100
AcDbCircle
 10
213.0168
 20
-96.861223
 30
0.0
 40
1.0
  0
CIRCLE
  5
3301
100
AcDbEntity
  8
0
100
AcDbCircle
 10
214.929608
 20
-99.723943
 30
0.0
 40
1.0
  0
CIRCLE
  5
3302
100
AcDbEntity
  8
0
100
AcDbCircle
 10
217.792329
 20
-101.636751
 30
0.0
 40
1.0
  0
CIRCLE
  5
3303
100
AcDbEntity
  8
0
100
AcDbCircle
 10
221.169137
 20
-102.30844
 30
0.0
 40
1.0
  0
CIRCLE
  5
3304
100
AcDbEntity
  8
0
100
AcDbCircle
 10
224.545946
 20
-101.636751
 30
0.0
 40
1.0
  0
CIRCLE
  5
3305
100
AcDbEntity
  8
0
100
AcDbCircle
 10
227.408666
 20
-99.723943
 30
0.0
 40
1.0
  0
CIRCLE
  5
3306
100
AcDbEntity
  8
0
100
AcDbCircle
 10
229.321474
 20
-96.861223
 30
0.0
 40
1.0
  0
CIRCLE
  5
3307
100
AcDbEntity
  8
0
100
AcDbCircle
 10
229.993163
 20
-93.484414
 30
0.0
 40
1.0
  0
CIRCLE
  5
3308
100
AcDbEntity
  8
0
100
AcDbCircle
 10
229.321474
 20
-90.107605
 30
0.0
 40
1.0
  0
CIRCLE
  5
3309
100
AcDbEntity
  8
0
100
AcDbCircle
 10
227.408666
 20
-87.244885
 30
0.0
 40
1.0
  0
CIRCLE
  5
330A
100
AcDbEntity
  8
0
100
AcDbCircle
 10
224.545946
 20
-85.332077
 30
0.0
 40
1.0
  0
LINE
  5
3698
100
AcDbEntity
  8
0
100
AcDbLine
 10
353.877013
 20
-45.049051
 30
0.0
 11
355.149596
 21
-39.910775
 31
0.0
  0
LINE
  5
369A
100
AcDbEntity
  8
0
100
AcDbLine
 10
373.145798
 20
-45.049051
 30
0.0
 11
371.873214
 21
-39.910775
 31
0.0
  0
ARC
  5
369C
100
AcDbEntity
  8
0
100
AcDbCircle
 10
363.511405
 20
-42.49204
 30
0.0
 40
8.751159
100
AcDbArc
 50
17.155298
 51
162.844702
  0
ARC
  5
36A2
100
AcDbEntity
  8
0
100
AcDbCircle
 10
343.997469
 20
-46.373603
 30
0.0
 40
8.751159
100
AcDbArc
 50
39.655298
 51
185.344702
  0
LINE
  5
36A3
100
AcDbEntity
  8
0
100
AcDbLine
 10
336.074976
 20
-52.422896
 30
0.0
 11
335.284357
 21
-47.188751
 31
0.0
  0
LINE
  5
36A4
100
AcDbEntity
  8
0
100
AcDbLine
 10
353.877013
 20
-45.049051
 30
0.0
 11
350.734965
 21
-40.7889
 31
0.0
  0
ARC
  5
36A5
100
AcDbEntity
  8
0
100
AcDbCircle
 10
327.454352
 20
-57.427361
 30
0.0
 40
8.751159
100
AcDbArc
 50
62.155298
 51
207.844702
  0
LINE
  5
36A6
100
AcDbEntity
  8
0
100
AcDbLine
 10
322.449888
 20
-66.047985
 30
0.0
 11
319.71643
 21
-61.514822
 31
0.0
  0
LINE
  5
36A7
100
AcDbEntity
  8
0
100
AcDbLine
 10
336.074976
 20
-52.422896
 30
0.0
 11
331.541814
 21
-49.689439
 31
0.0
  0
ARC
  5
36A8
100
AcDbEntity
  8
0
100
AcDbCircle
 10
316.400595
 20
-73.970477
 30
0.0
 40
8.751159
100
AcDbArc
 50
84.655298
 51
230.344702
  0
LINE
  5
36A9
100
AcDbEntity
  8
0
100
AcDbLine
 10
315.076043
 20
-83.850021
 30
0.0
 11
310.815891
 21
-80.707974
 31
0.0
  0
LINE
  5
36AA
100
AcDbEntity
  8
0
100
AcDbLine
 10
322.449888
 20
-66.047985
 30
0.0
 11
317.215742
 21
-65.257366
 31
0.0
  0
ARC
  5
36AB
100
AcDbEntity
  8
0
100
AcDbCircle
 10
312.519031
 20
-93.484414
 30
0.0
 40
8.751159
100
AcDbArc
 50
107.155298
 51
252.844702
  0
LINE
  5
36AC
100
AcDbEntity
  8
0
100
AcDbLine
 10
315.076043
 20
-103.118807
 30
0.0
 11
309.937766
 21
-101.846223
 31
0.0
  0
LINE
  5
36AD
100
AcDbEntity
  8
0
100
AcDbLine
 10
315.076043
 20
-83.850021
 30
0.0
 11
309.937766
 21
-85.122605
 31
0.0
  0
ARC
  5
36AE
100
AcDbEntity
  8
0
100
AcDbCircle
 10
316.400595
 20
-112.998351
 30
0.0
 40
8.751159
100
AcDbArc
 50
129.655298
 51
275.344702
  0
LINE
  5
36AF
100
AcDbEntity
  8
0
100
AcDbLine
 10
322.449888
 20
-120.920843
 30
0.0
 11
317.215742
 21
-121.711462
 31
0.0
  0
LINE
  5
36B0
100
AcDbEntity
  8
0
100
AcDbLine
 10
315.076043
 20
-103.118807
 30
0.0
 11
310.815891
 21
-106.260854
 31
0.0
  0
ARC
  5
36B1
100
AcDbEntity
  8
0
100
AcDbCircle
 10
327.454352
 20
-129.541467
 30
0.0
 40
8.751159
100
AcDbArc
 50
152.155298
 51
297.844702
  0
LINE
  5
36B2
100
AcDbEntity
  8
0
100
AcDbLine
 10
336.074976
 20
-134.545932
 30
0.0
 11
331.541814
 21
-137.279389
 31
0.0
  0
LINE
  5
36B3
100
AcDbEntity
  8
0
100
AcDbLine
 10
322.449888
 20
-120.920843
 30
0.0
 11
319.71643
 21
-125.454006
 31
0.0
  0
ARC
  5
36B4
100
AcDbEntity
  8
0
100
AcDbCircle
 10
343.997469
 20
-140.595225
 30
0.0
 40
8.751159
100
AcDbArc
 50
174.655298
 51
320.344702
  0
LINE
  5
36B5
100
AcDbEntity
  8
0
100
AcDbLine
 10
353.877013
 20
-141.919777
 30
0.0
 11
350.734965
 21
-146.179928
 31
0.0
  0
LINE
  5
36B6
100
AcDbEntity
  8
0
100
AcDbLine
 10
336.074976
 20
-134.545932
 30
0.0
 11
335.284357
 21
-139.780077
 31
0.0
  0
ARC
  5
36B7
100
AcDbEntity
  8
0
100
AcDbCircle
 10
363.511405
 20
-144.476788
 30
0.0
 40
8.751159
100
AcDbArc
 50
197.155298
 51
342.844702
  0
LINE
  5
36B8
100
AcDbEntity
  8
0
100
AcDbLine
 10
373.145798
 20
-141.919777
 30
0.0
 11
371.873214
 21
-147.058053
 31
0.0
  0
LINE
  5
36B9
100
AcDbEntity
  8
0
100
AcDbLine
 10
353.877013
 20
-141.919777
 30
0.0
 11
355.149596
 21
-147.058053
 31
0.0
  0
ARC
  5
36BA
100
AcDbEntity
  8
0
100
AcDbCircle
 10
383.025342
 20
-140.595225
 30
0.0
 40
8.751159
100
AcDbArc
 50
219.655298
 51
5.344702
  0
LINE
  5
36BB
100
AcDbEntity
  8
0
100
AcDbLine
 10
390.947834
 20
-134.545932
 30
0.0
 11
391.738453
 21
-139.780077
 31
0.0
  0
LINE
  5
36BC
100
AcDbEntity
  8
0
100
AcDbLine
 10
373.145798
 20
-141.919777
 30
0.0
 11
376.287845
 21
-146.179928
 31
0.0
  0
ARC
  5
36BD
100
AcDbEntity
  8
0
100
AcDbCircle
 10
399.568459
 20
-129.541467
 30
0.0
 40
8.751159
100
AcDbArc
 50
242.155298
 51
27.844702
  0
LINE
  5
36BE
100
AcDbEntity
  8
0
100
AcDbLine
 10
404.572923
 20
-120.920843
 30
0.0
 11
407.306381
 21
-125.454006
 31
0.0
  0
LINE
  5
36BF
100
AcDbEntity
  8
0
100
AcDbLine
 10
390.947834
 20
-134.545932
 30
0.0
 11
395.480997
 21
-137.279389
 31
0.0
  0
ARC
  5
36C0
100
AcDbEntity
  8
0
100
AcDbCircle
 10
410.622216
 20
-112.998351
 30
0.0
 40
8.751159
100
AcDbArc
 50
264.655298
 51
50.344702
  0
LINE
  5
36C1
100
AcDbEntity
  8
0
100
AcDbLine
 10
411.946768
 20
-103.118807
 30
0.0
 11
416.20692
 21
-106.260854
 31
0.0
  0
LINE
  5
36C2
100
AcDbEntity
  8
0
100
AcDbLine
 10
404.572923
 20
-120.920843
 30
0.0
 11
409.807068
 21
-121.711462
 31
0.0
  0
ARC
  5
36C3
100
AcDbEntity
  8
0
100
AcDbCircle
 10
414.503779
 20
-93.484414
 30
0.0
 40
8.751159
100
AcDbArc
 50
287.155298
 51
72.844702
  0
LINE
  5
36C4
100
AcDbEntity
  8
0
100
AcDbLine
 10
411.946768
 20
-83.850021
 30
0.0
 11
417.085044
 21
-85.122605
 31
0.0
  0
LINE
  5
36C5
100
AcDbEntity
  8
0
100
AcDbLine
 10
411.946768
 20
-103.118807
 30
0.0
 11
417.085044
 21
-101.846223
 31
0.0
  0
ARC
  5
36C6
100
AcDbEntity
  8
0
100
AcDbCircle
 10
410.622216
 20
-73.970477
 30
0.0
 40
8.751159
100
AcDbArc
 50
309.655298
 51
95.344702
  0
LINE
  5
36C7
100
AcDbEntity
  8
0
100
AcDbLine
 10
404.572923
 20
-66.047985
 30
0.0
 11
409.807068
 21
-65.257366
 31
0.0
  0
LINE
  5
36C8
100
AcDbEntity
  8
0
100
AcDbLine
 10
411.946768
 20
-83.850021
 30
0.0
 11
416.20692
 21
-80.707974
 31
0.0
  0
ARC
  5
36C9
100
AcDbEntity
  8
0
100
AcDbCircle
 10
399.568459
 20
-57.427361
 30
0.0
 40
8.751159
100
AcDbArc
 50
332.155298
 51
117.844702
  0
LINE
  5
36CA
100
AcDbEntity
  8
0
100
AcDbLine
 10
390.947834
 20
-52.422896
 30
0.0
 11
395.480997
 21
-49.689439
 31
0.0
  0
LINE
  5
36CB
100
AcDbEntity
  8
0
100
AcDbLine
 10
404.572923
 20
-66.047985
 30
0.0
 11
407.306381
 21
-61.514822
 31
0.0
  0
ARC
  5
36CC
100
AcDbEntity
  8
0
100
AcDbCircle
 10
383.025342
 20
-46.373603
 30
0.0
 40
8.751159
100
AcDbArc
 50
354.655298
 51
140.344702
  0
LINE
  5
36CD
100
AcDbEntity
  8
0
100
AcDbLine
 10
373.145798
 20
-45.049051
 30
0.0
 11
376.287845
 21
-40.7889
 31
0.0
  0
LINE
  5
36CE
100
AcDbEntity
  8
0
100
AcDbLine
 10
390.947834
 20
-52.422896
 30
0.0
 11
391.738453
 21
-47.188751
 31
0.0
  0
ARC
  5
3708
100
AcDbEntity
  8
0
100
AcDbCircle
 10
507.424388
 20
-42.49204
 30
0.0
 40
11.751159
100
AcDbArc
 50
20.910006
 51
159.089994
  0
ARC
  5
370C
100
AcDbEntity
  8
0
100
AcDbCircle
 10
487.910452
 20
-46.373603
 30
0.0
 40
11.751159
100
AcDbArc
 50
43.410006
 51
181.589994
  0
ARC
  5
370D
100
AcDbEntity
  8
0
100
AcDbCircle
 10
471.367335
 20
-57.427361
 30
0.0
 40
11.751159
100
AcDbArc
 50
65.910006
 51
204.089994
  0
ARC
  5
370E
100
AcDbEntity
  8
0
100
AcDbCircle
 10
460.313578
 20
-73.970477
 30
0.0
 40
11.751159
100
AcDbArc
 50
88.410006
 51
226.589994
  0
ARC
  5
370F
100
AcDbEntity
  8
0
100
AcDbCircle
 10
456.432014
 20
-93.484414
 30
0.0
 40
11.751159
100
AcDbArc
 50
110.910006
 51
249.089994
  0
ARC
  5
3710
100
AcDbEntity
  8
0
100
AcDbCircle
 10
460.313578
 20
-112.998351
 30
0.0
 40
11.751159
100
AcDbArc
 50
133.410006
 51
271.589994
  0
ARC
  5
3711
100
AcDbEntity
  8
0
100
AcDbCircle
 10
471.367335
 20
-129.541467
 30
0.0
 40
11.751159
100
AcDbArc
 50
155.910006
 51
294.089994
  0
ARC
  5
3712
100
AcDbEntity
  8
0
100
AcDbCircle
 10
487.910452
 20
-140.595225
 30
0.0
 40
11.751159
100
AcDbArc
 50
178.410006
 51
316.589994
  0
ARC
  5
3713
100
AcDbEntity
  8
0
100
AcDbCircle
 10
507.424388
 20
-144.476788
 30
0.0
 40
11.751159
100
AcDbArc
 50
200.910006
 51
339.089994
  0
ARC
  5
3714
100
AcDbEntity
  8
0
100
AcDbCircle
 10
526.938325
 20
-140.595225
 30
0.0
 40
11.751159
100
AcDbArc
 50
223.410006
 51
1.589994
  0
ARC
  5
3715
100
AcDbEntity
  8
0
100
AcDbCircle
 10
543.481442
 20
-129.541467
 30
0.0
 40
11.751159
100
AcDbArc
 50
245.910006
 51
24.089994
  0
ARC
  5
3716
100
AcDbEntity
  8
0
100
AcDbCircle
 10
554.535199
 20
-112.998351
 30
0.0
 40
11.751159
100
AcDbArc
 50
268.410006
 51
46.589994
  0
ARC
  5
3717
100
AcDbEntity
  8
0
100
AcDbCircle
 10
558.416762
 20
-93.484414
 30
0.0
 40
11.751159
100
AcDbArc
 50
290.910006
 51
69.089994
  0
ARC
  5
3718
100
AcDbEntity
  8
0
100
AcDbCircle
 10
554.535199
 20
-73.970477
 30
0.0
 40
11.751159
100
AcDbArc
 50
313.410006
 51
91.589994
  0
ARC
  5
3719
100
AcDbEntity
  8
0
100
AcDbCircle
 10
543.481442
 20
-57.427361
 30
0.0
 40
11.751159
100
AcDbArc
 50
335.910006
 51
114.089994
  0
ARC
  5
371A
100
AcDbEntity
  8
0
100
AcDbCircle
 10
526.938325
 20
-46.373603
 30
0.0
 40
11.751159
100
AcDbArc
 50
358.410006
 51
136.589994
  0
ENDSEC
  0
SECTION
  2
OBJECTS
  0
DICTIONARY
  5
C
100
AcDbDictionary
  3
ACAD_GROUP
350
D
  3
ACAD_MLINESTYLE
350
1B
  0
DICTIONARY
  5
D
102
{ACAD_REACTORS
330
C
102
}
100
AcDbDictionary
  0
DICTIONARY
  5
1B
102
{ACAD_REACTORS
330
C
102
}
100
AcDbDictionary
  3
STANDARD
350
1C
  0
MLINESTYLE
  5
1C
102
{ACAD_REACTORS
330
1B
102
}
100
AcDbMlineStyle
  2
STANDARD
 70
     0
  3

 62
   256
 51
90.0
 52
90.0
 71
     2
 49
0.5
 62
   256
  6
BYLAYER
 49
-0.5
 62
   256
  6
BYLAYER
  0
ENDSEC
  0
EOF
