  0
SECTION
  2
HEADER
  9
$ACADVER
  1
AC1014
  9
$ACADMAINTVER
 70
     0
  9
$DWGCODEPAGE
  3
ANSI_1252
  9
$INSBASE
 10
0.0
 20
0.0
 30
0.0
  9
$EXTMIN
 10
148.239027
 20
-149.510999
 30
0.0
  9
$EXTMAX
 10
788.685231
 20
231.147908
 30
0.0
  9
$LIMMIN
 10
0.0
 20
0.0
  9
$LIMMAX
 10
420.0
 20
297.0
  9
$ORTHOMODE
 70
     1
  9
$REGENMODE
 70
     1
  9
$FILLMODE
 70
     1
  9
$QTEXTMODE
 70
     0
  9
$MIRRTEXT
 70
     1
  9
$DRAGMODE
 70
     2
  9
$LTSCALE
 40
1.0
  9
$OSMODE
 70
    39
  9
$ATTMODE
 70
     1
  9
$TEXTSIZE
 40
2.5
  9
$TRACEWID
 40
1.0
  9
$TEXTSTYLE
  7
STANDARD
  9
$CLAYER
  8
0
  9
$CELTYPE
  6
BYLAYER
  9
$CECOLOR
 62
   256
  9
$CELTSCALE
 40
1.0
  9
$DELOBJ
 70
     1
  9
$DISPSILH
 70
     0
  9
$DIMSCALE
 40
1.0
  9
$DIMASZ
 40
2.5
  9
$DIMEXO
 40
0.625
  9
$DIMDLI
 40
3.75
  9
$DIMRND
 40
0.0
  9
$DIMDLE
 40
0.0
  9
$DIMEXE
 40
1.25
  9
$DIMTP
 40
0.0
  9
$DIMTM
 40
0.0
  9
$DIMTXT
 40
2.5
  9
$DIMCEN
 40
2.5
  9
$DIMTSZ
 40
0.0
  9
$DIMTOL
 70
     0
  9
$DIMLIM
 70
     0
  9
$DIMTIH
 70
     0
  9
$DIMTOH
 70
     0
  9
$DIMSE1
 70
     0
  9
$DIMSE2
 70
     0
  9
$DIMTAD
 70
     1
  9
$DIMZIN
 70
     8
  9
$DIMBLK
  1

  9
$DIMASO
 70
     1
  9
$DIMSHO
 70
     1
  9
$DIMPOST
  1

  9
$DIMAPOST
  1

  9
$DIMALT
 70
     0
  9
$DIMALTD
 70
     4
  9
$DIMALTF
 40
0.0394
  9
$DIMLFAC
 40
1.0
  9
$DIMTOFL
 70
     1
  9
$DIMTVP
 40
0.0
  9
$DIMTIX
 70
     0
  9
$DIMSOXD
 70
     0
  9
$DIMSAH
 70
     0
  9
$DIMBLK1
  1

  9
$DIMBLK2
  1

  9
$DIMSTYLE
  2
STANDARD
  9
$DIMCLRD
 70
     0
  9
$DIMCLRE
 70
     0
  9
$DIMCLRT
 70
     0
  9
$DIMTFAC
 40
1.0
  9
$DIMGAP
 40
0.625
  9
$DIMJUST
 70
     0
  9
$DIMSD1
 70
     0
  9
$DIMSD2
 70
     0
  9
$DIMTOLJ
 70
     1
  9
$DIMTZIN
 70
     0
  9
$DIMALTZ
 70
     0
  9
$DIMALTTZ
 70
     0
  9
$DIMFIT
 70
     3
  9
$DIMUPT
 70
     0
  9
$DIMUNIT
 70
     8
  9
$DIMDEC
 70
     4
  9
$DIMTDEC
 70
     4
  9
$DIMALTU
 70
     8
  9
$DIMALTTD
 70
     4
  9
$DIMTXSTY
  7
STANDARD
  9
$DIMAUNIT
 70
     0
  9
$LUNITS
 70
     2
  9
$LUPREC
 70
     4
  9
$SKETCHINC
 40
1.0
  9
$FILLETRAD
 40
10.0
  9
$AUNITS
 70
     0
  9
$AUPREC
 70
     0
  9
$MENU
  1
.
  9
$ELEVATION
 40
0.0
  9
$PELEVATION
 40
0.0
  9
$THICKNESS
 40
0.0
  9
$LIMCHECK
 70
     0
  9
$BLIPMODE
 70
     0
  9
$CHAMFERA
 40
10.0
  9
$CHAMFERB
 40
10.0
  9
$CHAMFERC
 40
20.0
  9
$CHAMFERD
 40
0.0
  9
$SKPOLY
 70
     0
  9
$TDCREATE
 40
2455934.924166481
  9
$TDUPDATE
 40
2455950.899969247
  9
$TDINDWG
 40
0.0715142014
  9
$TDUSRTIMER
 40
0.0715142014
  9
$USRTIMER
 70
     1
  9
$ANGBASE
 50
0.0
  9
$ANGDIR
 70
     0
  9
$PDMODE
 70
     0
  9
$PDSIZE
 40
0.0
  9
$PLINEWID
 40
0.0
  9
$COORDS
 70
     1
  9
$SPLFRAME
 70
     0
  9
$SPLINETYPE
 70
     6
  9
$SPLINESEGS
 70
     8
  9
$ATTDIA
 70
     0
  9
$ATTREQ
 70
     1
  9
$HANDLING
 70
     1
  9
$HANDSEED
  5
1B42
  9
$SURFTAB1
 70
     6
  9
$SURFTAB2
 70
     6
  9
$SURFTYPE
 70
     6
  9
$SURFU
 70
     6
  9
$SURFV
 70
     6
  9
$UCSNAME
  2

  9
$UCSORG
 10
0.0
 20
0.0
 30
0.0
  9
$UCSXDIR
 10
1.0
 20
0.0
 30
0.0
  9
$UCSYDIR
 10
0.0
 20
1.0
 30
0.0
  9
$PUCSNAME
  2

  9
$PUCSORG
 10
0.0
 20
0.0
 30
0.0
  9
$PUCSXDIR
 10
1.0
 20
0.0
 30
0.0
  9
$PUCSYDIR
 10
0.0
 20
1.0
 30
0.0
  9
$USERI1
 70
     0
  9
$USERI2
 70
     0
  9
$USERI3
 70
     0
  9
$USERI4
 70
     0
  9
$USERI5
 70
     0
  9
$USERR1
 40
0.0
  9
$USERR2
 40
0.0
  9
$USERR3
 40
0.0
  9
$USERR4
 40
0.0
  9
$USERR5
 40
0.0
  9
$WORLDVIEW
 70
     1
  9
$SHADEDGE
 70
     3
  9
$SHADEDIF
 70
    70
  9
$TILEMODE
 70
     1
  9
$MAXACTVP
 70
    48
  9
$PINSBASE
 10
0.0
 20
0.0
 30
0.0
  9
$PLIMCHECK
 70
     0
  9
$PEXTMIN
 10
1.000000E+20
 20
1.000000E+20
 30
1.000000E+20
  9
$PEXTMAX
 10
-1.000000E+20
 20
-1.000000E+20
 30
-1.000000E+20
  9
$PLIMMIN
 10
0.0
 20
0.0
  9
$PLIMMAX
 10
420.0
 20
297.0
  9
$UNITMODE
 70
     0
  9
$VISRETAIN
 70
     1
  9
$PLINEGEN
 70
     0
  9
$PSLTSCALE
 70
     1
  9
$TREEDEPTH
 70
  3020
  9
$PICKSTYLE
 70
     1
  9
$CMLSTYLE
  2
STANDARD
  9
$CMLJUST
 70
     0
  9
$CMLSCALE
 40
20.0
  9
$PROXYGRAPHICS
 70
     1
  9
$MEASUREMENT
 70
     1
  0
ENDSEC
  0
SECTION
  2
CLASSES
  0
CLASS
  1
LWPOLYLINE
  2
AcDbPolyline
  3
"AutoCAD"
 90
        0
280
     0
281
     1
  0
ENDSEC
  0
SECTION
  2
TABLES
  0
TABLE
  2
VPORT
  5
8
100
AcDbSymbolTable
 70
     2
  0
VPORT
  5
1B41
100
AcDbSymbolTableRecord
100
AcDbViewportTableRecord
  2
*ACTIVE
 70
     0
 10
0.0
 20
0.0
 11
1.0
 21
1.0
 12
480.756491
 22
19.250791
 13
0.0
 23
0.0
 14
10.0
 24
10.0
 15
10.0
 25
10.0
 16
0.0
 26
0.0
 36
1.0
 17
0.0
 27
0.0
 37
0.0
 40
496.621236
 41
1.75
 42
50.0
 43
0.0
 44
0.0
 50
0.0
 51
0.0
 71
     0
 72
   100
 73
     1
 74
     1
 75
     0
 76
     0
 77
     0
 78
     0
  0
ENDTAB
  0
TABLE
  2
LTYPE
  5
5
100
AcDbSymbolTable
 70
     1
  0
LTYPE
  5
12
100
AcDbSymbolTableRecord
100
AcDbLinetypeTableRecord
  2
BYBLOCK
 70
     0
  3

 72
    65
 73
     0
 40
0.0
  0
LTYPE
  5
13
100
AcDbSymbolTableRecord
100
AcDbLinetypeTableRecord
  2
BYLAYER
 70
     0
  3

 72
    65
 73
     0
 40
0.0
  0
LTYPE
  5
14
100
AcDbSymbolTableRecord
100
AcDbLinetypeTableRecord
  2
CONTINUOUS
 70
     0
  3
Solid line
 72
    65
 73
     0
 40
0.0
  0
ENDTAB
  0
TABLE
  2
LAYER
  5
2
100
AcDbSymbolTable
 70
     1
  0
LAYER
  5
E
100
AcDbSymbolTableRecord
100
AcDbLayerTableRecord
  2
0
 70
     0
 62
     7
  6
CONTINUOUS
  0
ENDTAB
  0
TABLE
  2
STYLE
  5
3
100
AcDbSymbolTable
 70
     1
  0
STYLE
  5
F
100
AcDbSymbolTableRecord
100
AcDbTextStyleTableRecord
  2
STANDARD
 70
     0
 40
0.0
 41
1.0
 50
0.0
 71
     0
 42
2.5
  3
txt
  4

  0
ENDTAB
  0
TABLE
  2
VIEW
  5
6
100
AcDbSymbolTable
 70
     0
  0
ENDTAB
  0
TABLE
  2
UCS
  5
7
100
AcDbSymbolTable
 70
     0
  0
ENDTAB
  0
TABLE
  2
APPID
  5
9
100
AcDbSymbolTable
 70
     1
  0
APPID
  5
10
100
AcDbSymbolTableRecord
100
AcDbRegAppTableRecord
  2
ACAD
 70
     0
  0
ENDTAB
  0
TABLE
  2
DIMSTYLE
  5
A
100
AcDbSymbolTable
 70
     1
  0
DIMSTYLE
105
1D
100
AcDbSymbolTableRecord
100
AcDbDimStyleTableRecord
  2
STANDARD
 70
     0
  3

  4

  5

  6

  7

 40
1.0
 41
0.18
 42
0.0625
 43
0.38
 44
0.18
 45
0.0
 46
0.0
 47
0.0
 48
0.0
140
0.18
141
0.09
142
0.0
143
25.4
144
1.0
145
0.0
146
1.0
147
0.09
 71
     0
 72
     0
 73
     1
 74
     1
 75
     0
 76
     0
 77
     0
 78
     0
170
     0
171
     2
172
     0
173
     0
174
     0
175
     0
176
     0
177
     0
178
     0
270
     2
271
     4
272
     4
273
     2
274
     2
340
F
275
     0
280
     0
281
     0
282
     0
283
     1
284
     0
285
     0
286
     0
287
     3
288
     0
  0
ENDTAB
  0
TABLE
  2
BLOCK_RECORD
  5
1
100
AcDbSymbolTable
 70
     0
  0
BLOCK_RECORD
  5
18
100
AcDbSymbolTableRecord
100
AcDbBlockTableRecord
  2
*MODEL_SPACE
  0
BLOCK_RECORD
  5
15
100
AcDbSymbolTableRecord
100
AcDbBlockTableRecord
  2
*PAPER_SPACE
  0
ENDTAB
  0
ENDSEC
  0
SECTION
  2
BLOCKS
  0
BLOCK
  5
19
100
AcDbEntity
  8
0
100
AcDbBlockBegin
  2
*MODEL_SPACE
 70
     0
 10
0.0
 20
0.0
 30
0.0
  3
*MODEL_SPACE
  1

  0
ENDBLK
  5
1A
100
AcDbEntity
  8
0
100
AcDbBlockEnd
  0
BLOCK
  5
16
100
AcDbEntity
 67
     1
  8
0
100
AcDbBlockBegin
  2
*PAPER_SPACE
 70
     0
 10
0.0
 20
0.0
 30
0.0
  3
*PAPER_SPACE
  1

  0
ENDBLK
  5
17
100
AcDbEntity
 67
     1
  8
0
100
AcDbBlockEnd
  0
ENDSEC
  0
SECTION
  2
ENTITIES
  0
ARC
  5
DFC
100
AcDbEntity
  8
0
100
AcDbCircle
 10
243.804068
 20
-75.59148
 30
0.0
 40
12.734546
100
AcDbArc
 50
94.052695
 51
100.579011
  0
LINE
  5
E8A
100
AcDbEntity
  8
0
100
AcDbLine
 10
221.307596
 20
-31.584212
 30
0.0
 11
228.593638
 21
-28.566234
 31
0.0
  0
ARC
  5
E8D
100
AcDbEntity
  8
0
100
AcDbCircle
 10
243.804068
 20
-75.59148
 30
0.0
 40
21.794025
100
AcDbArc
 50
92.366744
 51
103.527787
  0
ARC
  5
E8E
100
AcDbEntity
  8
0
100
AcDbCircle
 10
243.804068
 20
-75.59148
 30
0.0
 40
25.994025
100
AcDbArc
 50
91.984168
 51
104.195708
  0
LINE
  5
E97
100
AcDbEntity
  8
0
100
AcDbLine
 10
229.341315
 20
-47.120024
 30
0.0
 11
233.898419
 21
-45.232409
 31
0.0
  0
LINE
  5
E98
100
AcDbEntity
  8
0
100
AcDbLine
 10
228.424672
 20
-45.347396
 30
0.0
 11
233.293147
 21
-43.330808
 31
0.0
  0
ARC
  5
EA0
100
AcDbEntity
  8
0
100
AcDbCircle
 10
243.804068
 20
-75.59148
 30
0.0
 40
25.994025
100
AcDbArc
 50
108.165361
 51
116.834639
  0
LINE
  5
EA1
100
AcDbEntity
  8
0
100
AcDbLine
 10
226.365054
 20
-41.364453
 30
0.0
 11
231.933151
 21
-39.058072
 31
0.0
  0
LINE
  5
EA5
100
AcDbEntity
  8
0
100
AcDbLine
 10
225.176522
 20
-39.06604
 30
0.0
 11
231.148346
 21
-36.592429
 31
0.0
  0
LINE
  5
EA6
100
AcDbEntity
  8
0
100
AcDbLine
 10
229.785052
 20
-32.30933
 30
0.0
 11
223.111908
 21
-35.073436
 31
0.0
  0
ARC
  5
ECD
100
AcDbEntity
  8
0
100
AcDbCircle
 10
235.701981
 20
-21.102481
 30
0.0
 40
7.406078
100
AcDbArc
 50
13.478808
 51
185.399694
  0
ARC
  5
ECF
100
AcDbEntity
  8
0
100
AcDbCircle
 10
234.160442
 20
-10.765717
 30
0.0
 40
2.192072
100
AcDbArc
 50
6.832176
 51
190.13844
  0
LINE
  5
1275
100
AcDbEntity
  8
0
100
AcDbLine
 10
242.904068
 20
-19.37623
 30
0.0
 11
242.904068
 21
-24.860266
 31
0.0
  0
ARC
  5
127C
100
AcDbEntity
  8
0
100
AcDbCircle
 10
239.007954
 20
-43.134085
 30
0.0
 40
4.426078
100
AcDbArc
 50
28.32587
 51
164.49604
  0
ARC
  5
127D
100
AcDbEntity
  8
0
100
AcDbCircle
 10
239.19921
 20
-44.582914
 30
0.0
 40
3.806078
100
AcDbArc
 50
13.243414
 51
172.606559
  0
ARC
  5
127E
100
AcDbEntity
  8
0
100
AcDbCircle
 10
238.263999
 20
-37.729785
 30
0.0
 40
4.856078
100
AcDbArc
 50
17.153568
 51
180.320759
  0
ARC
  5
127F
100
AcDbEntity
  8
0
100
AcDbCircle
 10
237.96765
 20
-35.944436
 30
0.0
 40
5.476078
100
AcDbArc
 50
25.650517
 51
171.013006
  0
ARC
  5
1280
100
AcDbEntity
  8
0
100
AcDbCircle
 10
237.087652
 20
-30.008037
 30
0.0
 40
5.976078
100
AcDbArc
 50
13.274033
 51
186.179546
  0
ARC
  5
1281
100
AcDbEntity
  8
0
100
AcDbCircle
 10
236.787022
 20
-27.844298
 30
0.0
 40
6.806078
100
AcDbArc
 50
26.004157
 51
173.837431
  0
LINE
  5
1282
100
AcDbEntity
  8
0
100
AcDbLine
 10
234.742932
 20
-41.950972
 30
0.0
 11
233.407997
 21
-37.75697
 31
0.0
  0
LINE
  5
1283
100
AcDbEntity
  8
0
100
AcDbLine
 10
232.558797
 20
-35.089017
 30
0.0
 11
231.146298
 21
-30.651329
 31
0.0
  0
LINE
  5
1284
100
AcDbEntity
  8
0
100
AcDbLine
 10
230.020274
 20
-27.113666
 30
0.0
 11
228.328768
 21
-21.799415
 31
0.0
  0
LINE
  5
1285
100
AcDbEntity
  8
0
100
AcDbLine
 10
242.904068
 20
-28.635878
 30
0.0
 11
242.904068
 21
-33.573948
 31
0.0
  0
LINE
  5
1286
100
AcDbEntity
  8
0
100
AcDbLine
 10
242.904068
 20
-36.297563
 30
0.0
 11
242.904068
 21
-41.033974
 31
0.0
  0
LINE
  5
1287
100
AcDbEntity
  8
0
100
AcDbLine
 10
242.904068
 20
-43.710985
 30
0.0
 11
242.904068
 21
-49.613039
 31
0.0
  0
LINE
  5
1289
100
AcDbEntity
  8
0
100
AcDbLine
 10
242.904068
 20
-53.816045
 30
0.0
 11
242.904068
 21
-62.888777
 31
0.0
  0
LINE
  5
128A
100
AcDbEntity
  8
0
100
AcDbLine
 10
241.466117
 20
-63.073387
 30
0.0
 11
238.706077
 21
-54.402095
 31
0.0
  0
LINE
  5
128C
100
AcDbEntity
  8
0
100
AcDbLine
 10
237.429429
 20
-50.391215
 30
0.0
 11
235.424776
 21
-44.09314
 31
0.0
  0
LINE
  5
128D
100
AcDbEntity
  8
0
100
AcDbLine
 10
231.148346
 20
-36.592429
 30
0.0
 11
229.785052
 21
-32.30933
 31
0.0
  0
LINE
  5
128E
100
AcDbEntity
  8
0
100
AcDbLine
 10
233.293147
 20
-43.330808
 30
0.0
 11
231.933151
 21
-39.058072
 31
0.0
  0
LINE
  5
128F
100
AcDbEntity
  8
0
100
AcDbLine
 10
235.700157
 20
-50.892978
 30
0.0
 11
233.898419
 21
-45.232409
 31
0.0
  0
LINE
  5
1291
100
AcDbEntity
  8
0
100
AcDbLine
 10
228.593638
 20
-28.566234
 30
0.0
 11
226.435222
 21
-21.785076
 31
0.0
  0
LINE
  5
1292
100
AcDbEntity
  8
0
100
AcDbLine
 10
225.176522
 20
-39.06604
 30
0.0
 11
223.111908
 21
-35.073436
 31
0.0
  0
LINE
  5
1293
100
AcDbEntity
  8
0
100
AcDbLine
 10
228.424672
 20
-45.347396
 30
0.0
 11
226.365054
 21
-41.364453
 31
0.0
  0
LINE
  5
1294
100
AcDbEntity
  8
0
100
AcDbLine
 10
232.069921
 20
-52.396671
 30
0.0
 11
229.341315
 21
-47.120024
 31
0.0
  0
ARC
  5
1298
100
AcDbEntity
  8
0
100
AcDbCircle
 10
235.456038
 20
-19.7339
 30
0.0
 40
9.251078
100
AcDbArc
 50
111.919361
 51
192.810246
  0
ARC
  5
1299
100
AcDbEntity
  8
0
100
AcDbCircle
 10
235.495981
 20
-19.71772
 30
0.0
 40
9.251078
100
AcDbArc
 50
26.094882
 51
84.784344
  0
LINE
  5
12DD
100
AcDbEntity
  8
0
100
AcDbLine
 10
238.30586
 20
-64.105037
 30
0.0
 11
233.39557
 21
-56.443562
 31
0.0
  0
LINE
  5
12DE
100
AcDbEntity
  8
0
100
AcDbLine
 10
237.298838
 20
-54.790962
 30
0.0
 11
239.647033
 21
-63.554548
 31
0.0
  0
ARC
  5
12DF
100
AcDbEntity
  8
0
100
AcDbCircle
 10
243.804068
 20
-75.59148
 30
0.0
 40
12.734546
100
AcDbArc
 50
109.052695
 51
115.579011
  0
ARC
  5
12E0
100
AcDbEntity
  8
0
100
AcDbCircle
 10
243.804068
 20
-75.59148
 30
0.0
 40
21.794025
100
AcDbArc
 50
107.366744
 51
118.527787
  0
LINE
  5
12E1
100
AcDbEntity
  8
0
100
AcDbLine
 10
235.520297
 20
-65.919469
 30
0.0
 11
228.794386
 21
-59.789929
 31
0.0
  0
LINE
  5
12E2
100
AcDbEntity
  8
0
100
AcDbLine
 10
232.136928
 20
-57.1834
 30
0.0
 11
236.673294
 21
-65.040617
 31
0.0
  0
ARC
  5
12E3
100
AcDbEntity
  8
0
100
AcDbCircle
 10
243.804068
 20
-75.59148
 30
0.0
 40
12.734546
100
AcDbArc
 50
124.052695
 51
130.579011
  0
ARC
  5
12E4
100
AcDbEntity
  8
0
100
AcDbCircle
 10
243.804068
 20
-75.59148
 30
0.0
 40
21.794025
100
AcDbArc
 50
122.366744
 51
133.527787
  0
LINE
  5
12E5
100
AcDbEntity
  8
0
100
AcDbLine
 10
233.299259
 20
-68.393033
 30
0.0
 11
225.216086
 21
-64.213146
 31
0.0
  0
LINE
  5
12E6
100
AcDbEntity
  8
0
100
AcDbLine
 10
227.770114
 20
-60.830318
 30
0.0
 11
234.185505
 21
-67.245709
 31
0.0
  0
ARC
  5
12E7
100
AcDbEntity
  8
0
100
AcDbCircle
 10
243.804068
 20
-75.59148
 30
0.0
 40
12.734546
100
AcDbArc
 50
139.052695
 51
145.579011
  0
ARC
  5
12E8
100
AcDbEntity
  8
0
100
AcDbCircle
 10
243.804068
 20
-75.59148
 30
0.0
 40
21.794025
100
AcDbArc
 50
137.366744
 51
148.527787
  0
LINE
  5
12E9
100
AcDbEntity
  8
0
100
AcDbLine
 10
231.794106
 20
-71.357159
 30
0.0
 11
222.904527
 21
-69.411777
 31
0.0
  0
LINE
  5
12EA
100
AcDbEntity
  8
0
100
AcDbLine
 10
224.495988
 20
-65.483185
 30
0.0
 11
232.353205
 21
-70.019551
 31
0.0
  0
ARC
  5
12EB
100
AcDbEntity
  8
0
100
AcDbCircle
 10
243.804068
 20
-75.59148
 30
0.0
 40
12.734546
100
AcDbArc
 50
154.052695
 51
160.579011
  0
ARC
  5
12EC
100
AcDbEntity
  8
0
100
AcDbCircle
 10
243.804068
 20
-75.59148
 30
0.0
 40
21.794025
100
AcDbArc
 50
152.366744
 51
163.527787
  0
LINE
  5
12ED
100
AcDbEntity
  8
0
100
AcDbLine
 10
231.107413
 20
-74.609846
 30
0.0
 11
222.017237
 21
-75.031544
 31
0.0
  0
LINE
  5
12EE
100
AcDbEntity
  8
0
100
AcDbLine
 10
222.537676
 20
-70.824916
 30
0.0
 11
231.301262
 21
-73.173111
 31
0.0
  0
ARC
  5
12EF
100
AcDbEntity
  8
0
100
AcDbCircle
 10
243.804068
 20
-75.59148
 30
0.0
 40
12.734546
100
AcDbArc
 50
169.052695
 51
175.579011
  0
ARC
  5
12F0
100
AcDbEntity
  8
0
100
AcDbCircle
 10
243.804068
 20
-75.59148
 30
0.0
 40
21.794025
100
AcDbArc
 50
167.366744
 51
178.527787
  0
LINE
  5
12F1
100
AcDbEntity
  8
0
100
AcDbLine
 10
231.285976
 20
-77.929431
 30
0.0
 11
222.614683
 21
-80.68947
 31
0.0
  0
LINE
  5
12F2
100
AcDbEntity
  8
0
100
AcDbLine
 10
222.028633
 20
-76.49148
 30
0.0
 11
231.101365
 21
-76.49148
 31
0.0
  0
ARC
  5
12F3
100
AcDbEntity
  8
0
100
AcDbCircle
 10
243.804068
 20
-75.59148
 30
0.0
 40
12.734546
100
AcDbArc
 50
184.052695
 51
190.579011
  0
ARC
  5
12F4
100
AcDbEntity
  8
0
100
AcDbCircle
 10
243.804068
 20
-75.59148
 30
0.0
 40
21.794025
100
AcDbArc
 50
182.366744
 51
193.527787
  0
LINE
  5
12F5
100
AcDbEntity
  8
0
100
AcDbLine
 10
232.317626
 20
-81.089688
 30
0.0
 11
224.656151
 21
-85.999977
 31
0.0
  0
LINE
  5
12F6
100
AcDbEntity
  8
0
100
AcDbLine
 10
223.00355
 20
-82.09671
 30
0.0
 11
231.767137
 21
-79.748514
 31
0.0
  0
ARC
  5
12F7
100
AcDbEntity
  8
0
100
AcDbCircle
 10
243.804068
 20
-75.59148
 30
0.0
 40
12.734546
100
AcDbArc
 50
199.052695
 51
205.579011
  0
ARC
  5
12F8
100
AcDbEntity
  8
0
100
AcDbCircle
 10
243.804068
 20
-75.59148
 30
0.0
 40
21.794025
100
AcDbArc
 50
197.366744
 51
208.527787
  0
LINE
  5
12F9
100
AcDbEntity
  8
0
100
AcDbLine
 10
234.132058
 20
-83.875251
 30
0.0
 11
228.002518
 21
-90.601162
 31
0.0
  0
LINE
  5
12FA
100
AcDbEntity
  8
0
100
AcDbLine
 10
225.395988
 20
-87.25862
 30
0.0
 11
233.253205
 21
-82.722254
 31
0.0
  0
ARC
  5
12FB
100
AcDbEntity
  8
0
100
AcDbCircle
 10
243.804068
 20
-75.59148
 30
0.0
 40
12.734546
100
AcDbArc
 50
214.052695
 51
220.579011
  0
ARC
  5
12FC
100
AcDbEntity
  8
0
100
AcDbCircle
 10
243.804068
 20
-75.59148
 30
0.0
 40
21.794025
100
AcDbArc
 50
212.366744
 51
223.527787
  0
LINE
  5
12FD
100
AcDbEntity
  8
0
100
AcDbLine
 10
236.605621
 20
-86.096289
 30
0.0
 11
232.425734
 21
-94.179461
 31
0.0
  0
LINE
  5
12FE
100
AcDbEntity
  8
0
100
AcDbLine
 10
229.042907
 20
-91.625433
 30
0.0
 11
235.458297
 21
-85.210043
 31
0.0
  0
ARC
  5
12FF
100
AcDbEntity
  8
0
100
AcDbCircle
 10
243.804068
 20
-75.59148
 30
0.0
 40
12.734546
100
AcDbArc
 50
229.052695
 51
235.579011
  0
ARC
  5
1300
100
AcDbEntity
  8
0
100
AcDbCircle
 10
243.804068
 20
-75.59148
 30
0.0
 40
21.794025
100
AcDbArc
 50
227.366744
 51
238.527787
  0
LINE
  5
1301
100
AcDbEntity
  8
0
100
AcDbLine
 10
239.569747
 20
-87.601441
 30
0.0
 11
237.624365
 21
-96.491021
 31
0.0
  0
LINE
  5
1302
100
AcDbEntity
  8
0
100
AcDbLine
 10
233.695774
 20
-94.899559
 30
0.0
 11
238.23214
 21
-87.042343
 31
0.0
  0
ARC
  5
1303
100
AcDbEntity
  8
0
100
AcDbCircle
 10
243.804068
 20
-75.59148
 30
0.0
 40
12.734546
100
AcDbArc
 50
244.052695
 51
250.579011
  0
ARC
  5
1304
100
AcDbEntity
  8
0
100
AcDbCircle
 10
243.804068
 20
-75.59148
 30
0.0
 40
21.794025
100
AcDbArc
 50
242.366744
 51
253.527787
  0
LINE
  5
1305
100
AcDbEntity
  8
0
100
AcDbLine
 10
242.822435
 20
-88.288134
 30
0.0
 11
243.244133
 21
-97.378311
 31
0.0
  0
LINE
  5
1306
100
AcDbEntity
  8
0
100
AcDbLine
 10
239.037504
 20
-96.857871
 30
0.0
 11
241.3857
 21
-88.094285
 31
0.0
  0
ARC
  5
1307
100
AcDbEntity
  8
0
100
AcDbCircle
 10
243.804068
 20
-75.59148
 30
0.0
 40
12.734546
100
AcDbArc
 50
259.052695
 51
265.579011
  0
ARC
  5
1308
100
AcDbEntity
  8
0
100
AcDbCircle
 10
243.804068
 20
-75.59148
 30
0.0
 40
21.794025
100
AcDbArc
 50
257.366744
 51
268.527787
  0
LINE
  5
1309
100
AcDbEntity
  8
0
100
AcDbLine
 10
246.142019
 20
-88.109572
 30
0.0
 11
248.902059
 21
-96.780864
 31
0.0
  0
LINE
  5
130A
100
AcDbEntity
  8
0
100
AcDbLine
 10
244.704068
 20
-97.366914
 30
0.0
 11
244.704068
 21
-88.294182
 31
0.0
  0
ARC
  5
130B
100
AcDbEntity
  8
0
100
AcDbCircle
 10
243.804068
 20
-75.59148
 30
0.0
 40
12.734546
100
AcDbArc
 50
274.052695
 51
280.579011
  0
ARC
  5
130C
100
AcDbEntity
  8
0
100
AcDbCircle
 10
243.804068
 20
-75.59148
 30
0.0
 40
21.794025
100
AcDbArc
 50
272.366744
 51
283.527787
  0
LINE
  5
130D
100
AcDbEntity
  8
0
100
AcDbLine
 10
249.302276
 20
-87.077922
 30
0.0
 11
254.212565
 21
-94.739397
 31
0.0
  0
LINE
  5
130E
100
AcDbEntity
  8
0
100
AcDbLine
 10
250.309298
 20
-96.391997
 30
0.0
 11
247.961102
 21
-87.628411
 31
0.0
  0
ARC
  5
130F
100
AcDbEntity
  8
0
100
AcDbCircle
 10
243.804068
 20
-75.59148
 30
0.0
 40
12.734546
100
AcDbArc
 50
289.052695
 51
295.579011
  0
ARC
  5
1310
100
AcDbEntity
  8
0
100
AcDbCircle
 10
243.804068
 20
-75.59148
 30
0.0
 40
21.794025
100
AcDbArc
 50
287.366744
 51
298.527787
  0
LINE
  5
1311
100
AcDbEntity
  8
0
100
AcDbLine
 10
252.087839
 20
-85.26349
 30
0.0
 11
258.81375
 21
-91.39303
 31
0.0
  0
LINE
  5
1312
100
AcDbEntity
  8
0
100
AcDbLine
 10
255.471208
 20
-93.999559
 30
0.0
 11
250.934842
 21
-86.142343
 31
0.0
  0
ARC
  5
1313
100
AcDbEntity
  8
0
100
AcDbCircle
 10
243.804068
 20
-75.59148
 30
0.0
 40
12.734546
100
AcDbArc
 50
304.052695
 51
310.579011
  0
ARC
  5
1314
100
AcDbEntity
  8
0
100
AcDbCircle
 10
243.804068
 20
-75.59148
 30
0.0
 40
21.794025
100
AcDbArc
 50
302.366744
 51
313.527787
  0
LINE
  5
1315
100
AcDbEntity
  8
0
100
AcDbLine
 10
254.308877
 20
-82.789926
 30
0.0
 11
262.39205
 21
-86.969813
 31
0.0
  0
LINE
  5
1316
100
AcDbEntity
  8
0
100
AcDbLine
 10
259.838021
 20
-90.352641
 30
0.0
 11
253.422631
 21
-83.93725
 31
0.0
  0
ARC
  5
1317
100
AcDbEntity
  8
0
100
AcDbCircle
 10
243.804068
 20
-75.59148
 30
0.0
 40
12.734546
100
AcDbArc
 50
319.052695
 51
325.579011
  0
ARC
  5
1318
100
AcDbEntity
  8
0
100
AcDbCircle
 10
243.804068
 20
-75.59148
 30
0.0
 40
21.794025
100
AcDbArc
 50
317.366744
 51
328.527787
  0
LINE
  5
1319
100
AcDbEntity
  8
0
100
AcDbLine
 10
255.814029
 20
-79.8258
 30
0.0
 11
264.703609
 21
-81.771182
 31
0.0
  0
LINE
  5
131A
100
AcDbEntity
  8
0
100
AcDbLine
 10
263.112147
 20
-85.699774
 30
0.0
 11
255.254931
 21
-81.163408
 31
0.0
  0
ARC
  5
131B
100
AcDbEntity
  8
0
100
AcDbCircle
 10
243.804068
 20
-75.59148
 30
0.0
 40
12.734546
100
AcDbArc
 50
334.052695
 51
340.579011
  0
ARC
  5
131C
100
AcDbEntity
  8
0
100
AcDbCircle
 10
243.804068
 20
-75.59148
 30
0.0
 40
21.794025
100
AcDbArc
 50
332.366744
 51
343.527787
  0
LINE
  5
131D
100
AcDbEntity
  8
0
100
AcDbLine
 10
256.500723
 20
-76.573113
 30
0.0
 11
265.590899
 21
-76.151415
 31
0.0
  0
LINE
  5
131E
100
AcDbEntity
  8
0
100
AcDbLine
 10
265.07046
 20
-80.358043
 30
0.0
 11
256.306873
 21
-78.009848
 31
0.0
  0
ARC
  5
131F
100
AcDbEntity
  8
0
100
AcDbCircle
 10
243.804068
 20
-75.59148
 30
0.0
 40
12.734546
100
AcDbArc
 50
349.052695
 51
355.579011
  0
ARC
  5
1320
100
AcDbEntity
  8
0
100
AcDbCircle
 10
243.804068
 20
-75.59148
 30
0.0
 40
21.794025
100
AcDbArc
 50
347.366744
 51
358.527787
  0
LINE
  5
1321
100
AcDbEntity
  8
0
100
AcDbLine
 10
256.32216
 20
-73.253528
 30
0.0
 11
264.993453
 21
-70.493489
 31
0.0
  0
LINE
  5
1322
100
AcDbEntity
  8
0
100
AcDbLine
 10
265.579502
 20
-74.69148
 30
0.0
 11
256.50677
 21
-74.69148
 31
0.0
  0
ARC
  5
1323
100
AcDbEntity
  8
0
100
AcDbCircle
 10
243.804068
 20
-75.59148
 30
0.0
 40
12.734546
100
AcDbArc
 50
4.052695
 51
10.579011
  0
ARC
  5
1324
100
AcDbEntity
  8
0
100
AcDbCircle
 10
243.804068
 20
-75.59148
 30
0.0
 40
21.794025
100
AcDbArc
 50
2.366744
 51
13.527787
  0
LINE
  5
1325
100
AcDbEntity
  8
0
100
AcDbLine
 10
255.29051
 20
-70.093271
 30
0.0
 11
262.951985
 21
-65.182982
 31
0.0
  0
LINE
  5
1326
100
AcDbEntity
  8
0
100
AcDbLine
 10
264.604585
 20
-69.086249
 30
0.0
 11
255.840999
 21
-71.434445
 31
0.0
  0
ARC
  5
1327
100
AcDbEntity
  8
0
100
AcDbCircle
 10
243.804068
 20
-75.59148
 30
0.0
 40
12.734546
100
AcDbArc
 50
19.052695
 51
25.579011
  0
ARC
  5
1328
100
AcDbEntity
  8
0
100
AcDbCircle
 10
243.804068
 20
-75.59148
 30
0.0
 40
21.794025
100
AcDbArc
 50
17.366744
 51
28.527787
  0
LINE
  5
1329
100
AcDbEntity
  8
0
100
AcDbLine
 10
253.476078
 20
-67.307708
 30
0.0
 11
259.605618
 21
-60.581797
 31
0.0
  0
LINE
  5
132A
100
AcDbEntity
  8
0
100
AcDbLine
 10
262.212147
 20
-63.924339
 30
0.0
 11
254.354931
 21
-68.460705
 31
0.0
  0
ARC
  5
132B
100
AcDbEntity
  8
0
100
AcDbCircle
 10
243.804068
 20
-75.59148
 30
0.0
 40
12.734546
100
AcDbArc
 50
34.052695
 51
40.579011
  0
ARC
  5
132C
100
AcDbEntity
  8
0
100
AcDbCircle
 10
243.804068
 20
-75.59148
 30
0.0
 40
21.794025
100
AcDbArc
 50
32.366744
 51
43.527787
  0
LINE
  5
132D
100
AcDbEntity
  8
0
100
AcDbLine
 10
251.002515
 20
-65.08667
 30
0.0
 11
255.182402
 21
-57.003498
 31
0.0
  0
LINE
  5
132E
100
AcDbEntity
  8
0
100
AcDbLine
 10
258.565229
 20
-59.557526
 30
0.0
 11
252.149839
 21
-65.972916
 31
0.0
  0
ARC
  5
132F
100
AcDbEntity
  8
0
100
AcDbCircle
 10
243.804068
 20
-75.59148
 30
0.0
 40
12.734546
100
AcDbArc
 50
49.052695
 51
55.579011
  0
ARC
  5
1330
100
AcDbEntity
  8
0
100
AcDbCircle
 10
243.804068
 20
-75.59148
 30
0.0
 40
21.794025
100
AcDbArc
 50
47.366744
 51
58.527787
  0
LINE
  5
1331
100
AcDbEntity
  8
0
100
AcDbLine
 10
248.038389
 20
-63.581518
 30
0.0
 11
249.983771
 21
-54.691938
 31
0.0
  0
LINE
  5
1332
100
AcDbEntity
  8
0
100
AcDbLine
 10
253.912362
 20
-56.2834
 30
0.0
 11
249.375996
 21
-64.140617
 31
0.0
  0
ARC
  5
1333
100
AcDbEntity
  8
0
100
AcDbCircle
 10
243.804068
 20
-75.59148
 30
0.0
 40
12.734546
100
AcDbArc
 50
64.052695
 51
70.579011
  0
ARC
  5
1334
100
AcDbEntity
  8
0
100
AcDbCircle
 10
243.804068
 20
-75.59148
 30
0.0
 40
21.794025
100
AcDbArc
 50
62.366744
 51
73.527787
  0
LINE
  5
1335
100
AcDbEntity
  8
0
100
AcDbLine
 10
244.785701
 20
-62.894825
 30
0.0
 11
244.364003
 21
-53.804648
 31
0.0
  0
LINE
  5
1336
100
AcDbEntity
  8
0
100
AcDbLine
 10
248.570632
 20
-54.325088
 30
0.0
 11
246.222436
 21
-63.088674
 31
0.0
  0
ARC
  5
1337
100
AcDbEntity
  8
0
100
AcDbCircle
 10
243.804068
 20
-75.59148
 30
0.0
 40
12.734546
100
AcDbArc
 50
79.052695
 51
85.579011
  0
ARC
  5
1338
100
AcDbEntity
  8
0
100
AcDbCircle
 10
243.804068
 20
-75.59148
 30
0.0
 40
21.794025
100
AcDbArc
 50
77.366744
 51
88.527787
  0
ARC
  5
1421
100
AcDbEntity
  8
0
100
AcDbCircle
 10
250.520484
 20
-30.008037
 30
0.0
 40
5.976078
100
AcDbArc
 50
353.820454
 51
166.725967
  0
ARC
  5
1422
100
AcDbEntity
  8
0
100
AcDbCircle
 10
249.640485
 20
-35.944436
 30
0.0
 40
5.476078
100
AcDbArc
 50
8.986994
 51
154.349483
  0
ARC
  5
1423
100
AcDbEntity
  8
0
100
AcDbCircle
 10
243.804068
 20
-75.59148
 30
0.0
 40
25.994025
100
AcDbArc
 50
75.804292
 51
88.015832
  0
ARC
  5
1424
100
AcDbEntity
  8
0
100
AcDbCircle
 10
249.344137
 20
-37.729785
 30
0.0
 40
4.856078
100
AcDbArc
 50
359.679241
 51
162.846432
  0
ARC
  5
1425
100
AcDbEntity
  8
0
100
AcDbCircle
 10
248.408926
 20
-44.582914
 30
0.0
 40
3.806078
100
AcDbArc
 50
7.393441
 51
166.756586
  0
ARC
  5
1426
100
AcDbEntity
  8
0
100
AcDbCircle
 10
248.600182
 20
-43.134085
 30
0.0
 40
4.426078
100
AcDbArc
 50
15.50396
 51
151.67413
  0
LINE
  5
142C
100
AcDbEntity
  8
0
100
AcDbLine
 10
254.314989
 20
-43.330808
 30
0.0
 11
255.674985
 21
-39.058072
 31
0.0
  0
LINE
  5
142D
100
AcDbEntity
  8
0
100
AcDbLine
 10
252.865204
 20
-41.950972
 30
0.0
 11
254.200139
 21
-37.75697
 31
0.0
  0
LINE
  5
1431
100
AcDbEntity
  8
0
100
AcDbLine
 10
250.178707
 20
-50.391215
 30
0.0
 11
252.18336
 21
-44.09314
 31
0.0
  0
LINE
  5
1432
100
AcDbEntity
  8
0
100
AcDbLine
 10
251.907979
 20
-50.892978
 30
0.0
 11
253.709717
 21
-45.232409
 31
0.0
  0
LINE
  5
1434
100
AcDbEntity
  8
0
100
AcDbLine
 10
256.45979
 20
-36.592429
 30
0.0
 11
257.823084
 21
-32.30933
 31
0.0
  0
LINE
  5
1435
100
AcDbEntity
  8
0
100
AcDbLine
 10
255.049338
 20
-35.089017
 30
0.0
 11
256.461838
 21
-30.651329
 31
0.0
  0
ARC
  5
1436
100
AcDbEntity
  8
0
100
AcDbCircle
 10
252.112155
 20
-19.71772
 30
0.0
 40
9.251078
100
AcDbArc
 50
95.215656
 51
153.905118
  0
ARC
  5
1437
100
AcDbEntity
  8
0
100
AcDbCircle
 10
251.906155
 20
-21.102481
 30
0.0
 40
7.406078
100
AcDbArc
 50
354.600306
 51
166.521192
  0
ARC
  5
1438
100
AcDbEntity
  8
0
100
AcDbCircle
 10
250.821114
 20
-27.844298
 30
0.0
 40
6.806078
100
AcDbArc
 50
6.162569
 51
153.995843
  0
ARC
  5
1439
100
AcDbEntity
  8
0
100
AcDbCircle
 10
253.447694
 20
-10.765717
 30
0.0
 40
2.192072
100
AcDbArc
 50
349.86156
 51
173.167824
  0
ARC
  5
143A
100
AcDbEntity
  8
0
100
AcDbCircle
 10
252.152098
 20
-19.7339
 30
0.0
 40
9.251078
100
AcDbArc
 50
347.189754
 51
68.080639
  0
LINE
  5
143B
100
AcDbEntity
  8
0
100
AcDbLine
 10
259.014497
 20
-28.566234
 30
0.0
 11
261.172914
 21
-21.785076
 31
0.0
  0
LINE
  5
143C
100
AcDbEntity
  8
0
100
AcDbLine
 10
257.587862
 20
-27.113666
 30
0.0
 11
259.279368
 21
-21.799415
 31
0.0
  0
LINE
  5
143D
100
AcDbEntity
  8
0
100
AcDbLine
 10
244.704068
 20
-28.635878
 30
0.0
 11
244.704068
 21
-33.573948
 31
0.0
  0
LINE
  5
143E
100
AcDbEntity
  8
0
100
AcDbLine
 10
244.704068
 20
-36.297563
 30
0.0
 11
244.704068
 21
-41.033974
 31
0.0
  0
LINE
  5
143F
100
AcDbEntity
  8
0
100
AcDbLine
 10
244.704068
 20
-43.710985
 30
0.0
 11
244.704068
 21
-49.613039
 31
0.0
  0
LINE
  5
1440
100
AcDbEntity
  8
0
100
AcDbLine
 10
244.704068
 20
-19.37623
 30
0.0
 11
244.704068
 21
-24.860266
 31
0.0
  0
LINE
  5
1441
100
AcDbEntity
  8
0
100
AcDbLine
 10
211.23784
 20
-41.752459
 30
0.0
 11
214.729582
 21
-45.244202
 31
0.0
  0
ARC
  5
1442
100
AcDbEntity
  8
0
100
AcDbCircle
 10
219.896345
 20
-43.429816
 30
0.0
 40
5.476078
100
AcDbArc
 50
53.986994
 51
199.349483
  0
ARC
  5
1443
100
AcDbEntity
  8
0
100
AcDbCircle
 10
216.32093
 20
-38.609895
 30
0.0
 40
5.976078
100
AcDbArc
 50
38.820454
 51
211.725967
  0
LINE
  5
1444
100
AcDbEntity
  8
0
100
AcDbLine
 10
196.778822
 20
-60.38105
 30
0.0
 11
199.7968
 21
-53.095007
 31
0.0
  0
ARC
  5
1445
100
AcDbEntity
  8
0
100
AcDbCircle
 10
206.822484
 20
-48.108342
 30
0.0
 40
5.976078
100
AcDbArc
 50
58.274033
 51
231.179546
  0
ARC
  5
1446
100
AcDbEntity
  8
0
100
AcDbCircle
 10
211.642405
 20
-51.683757
 30
0.0
 40
5.476078
100
AcDbArc
 50
70.650517
 51
216.013006
  0
LINE
  5
1447
100
AcDbEntity
  8
0
100
AcDbLine
 10
209.965048
 20
-43.025251
 30
0.0
 11
213.45679
 21
-46.516994
 31
0.0
  0
ARC
  5
1448
100
AcDbEntity
  8
0
100
AcDbCircle
 10
243.804068
 20
-75.59148
 30
0.0
 40
25.994025
100
AcDbArc
 50
136.984168
 51
149.195708
  0
ARC
  5
1449
100
AcDbEntity
  8
0
100
AcDbCircle
 10
213.114387
 20
-52.736639
 30
0.0
 40
4.856078
100
AcDbArc
 50
62.153568
 51
225.320759
  0
ARC
  5
144A
100
AcDbEntity
  8
0
100
AcDbCircle
 10
218.621575
 20
-56.921239
 30
0.0
 40
3.806078
100
AcDbArc
 50
58.243414
 51
217.606559
  0
ARC
  5
144B
100
AcDbEntity
  8
0
100
AcDbCircle
 10
217.46186
 20
-56.032001
 30
0.0
 40
4.426078
100
AcDbArc
 50
73.32587
 51
209.49604
  0
LINE
  5
144C
100
AcDbEntity
  8
0
100
AcDbLine
 10
219.105566
 20
-67.487568
 30
0.0
 11
213.444998
 21
-65.685831
 31
0.0
  0
ARC
  5
144D
100
AcDbEntity
  8
0
100
AcDbCircle
 10
243.804068
 20
-75.59148
 30
0.0
 40
25.994025
100
AcDbArc
 50
153.165361
 51
161.834639
  0
LINE
  5
144E
100
AcDbEntity
  8
0
100
AcDbLine
 10
203.286025
 20
-54.899319
 30
0.0
 11
200.521918
 21
-61.572463
 31
0.0
  0
LINE
  5
144F
100
AcDbEntity
  8
0
100
AcDbLine
 10
204.805017
 20
-62.935758
 30
0.0
 11
200.521918
 21
-61.572463
 31
0.0
  0
LINE
  5
1450
100
AcDbEntity
  8
0
100
AcDbLine
 10
207.27066
 20
-63.720562
 30
0.0
 11
209.577041
 21
-58.152465
 31
0.0
  0
LINE
  5
1451
100
AcDbEntity
  8
0
100
AcDbLine
 10
213.559985
 20
-60.212084
 30
0.0
 11
209.577041
 21
-58.152465
 31
0.0
  0
LINE
  5
1452
100
AcDbEntity
  8
0
100
AcDbLine
 10
213.609447
 20
-58.21124
 30
0.0
 11
209.699898
 21
-56.189574
 31
0.0
  0
LINE
  5
1453
100
AcDbEntity
  8
0
100
AcDbLine
 10
213.444998
 20
-65.685831
 30
0.0
 11
215.332612
 21
-61.128727
 31
0.0
  0
LINE
  5
1454
100
AcDbEntity
  8
0
100
AcDbLine
 10
211.543397
 20
-65.080558
 30
0.0
 11
213.559985
 21
-60.212084
 31
0.0
  0
LINE
  5
1455
100
AcDbEntity
  8
0
100
AcDbLine
 10
211.543397
 20
-65.080558
 30
0.0
 11
207.27066
 21
-63.720562
 31
0.0
  0
LINE
  5
1456
100
AcDbEntity
  8
0
100
AcDbLine
 10
221.47724
 20
-62.279752
 30
0.0
 11
215.606324
 21
-59.243844
 31
0.0
  0
LINE
  5
1457
100
AcDbEntity
  8
0
100
AcDbLine
 10
220.609259
 20
-63.857332
 30
0.0
 11
215.332612
 21
-61.128727
 31
0.0
  0
LINE
  5
1458
100
AcDbEntity
  8
0
100
AcDbLine
 10
204.805017
 20
-62.935758
 30
0.0
 11
207.278628
 21
-56.963933
 31
0.0
  0
LINE
  5
1459
100
AcDbEntity
  8
0
100
AcDbLine
 10
207.278628
 20
-56.963933
 30
0.0
 11
203.286025
 21
-54.899319
 31
0.0
  0
LINE
  5
145A
100
AcDbEntity
  8
0
100
AcDbLine
 10
207.212895
 20
-54.903521
 30
0.0
 11
203.076188
 21
-52.764389
 31
0.0
  0
LINE
  5
145B
100
AcDbEntity
  8
0
100
AcDbLine
 10
226.423828
 20
-45.396858
 30
0.0
 11
224.402162
 21
-41.487309
 31
0.0
  0
ARC
  5
145C
100
AcDbEntity
  8
0
100
AcDbCircle
 10
220.949227
 20
-44.901798
 30
0.0
 40
4.856078
100
AcDbArc
 50
44.679241
 51
207.846432
  0
LINE
  5
145D
100
AcDbEntity
  8
0
100
AcDbLine
 10
216.655469
 20
-47.170089
 30
0.0
 11
220.004618
 21
-50.519237
 31
0.0
  0
ARC
  5
145E
100
AcDbEntity
  8
0
100
AcDbCircle
 10
224.244589
 20
-49.249271
 30
0.0
 40
4.426078
100
AcDbArc
 50
60.50396
 51
196.67413
  0
ARC
  5
145F
100
AcDbEntity
  8
0
100
AcDbCircle
 10
225.133827
 20
-50.408986
 30
0.0
 40
3.806078
100
AcDbArc
 50
52.393441
 51
211.756586
  0
LINE
  5
1460
100
AcDbEntity
  8
0
100
AcDbLine
 10
215.382677
 20
-48.442881
 30
0.0
 11
218.731826
 21
-51.792029
 31
0.0
  0
ARC
  5
1461
100
AcDbEntity
  8
0
100
AcDbCircle
 10
243.804068
 20
-75.59148
 30
0.0
 40
25.994025
100
AcDbArc
 50
120.804292
 51
133.015832
  0
LINE
  5
1462
100
AcDbEntity
  8
0
100
AcDbLine
 10
221.89755
 20
-52.41217
 30
0.0
 11
226.070933
 21
-56.585552
 31
0.0
  0
LINE
  5
1463
100
AcDbEntity
  8
0
100
AcDbLine
 10
220.624758
 20
-53.684962
 30
0.0
 11
224.79814
 21
-57.858344
 31
0.0
  0
LINE
  5
1465
100
AcDbEntity
  8
0
100
AcDbLine
 10
230.49234
 20
-53.264651
 30
0.0
 11
227.456433
 21
-47.393736
 31
0.0
  0
LINE
  5
1467
100
AcDbEntity
  8
0
100
AcDbLine
 10
223.116109
 20
-39.000306
 30
0.0
 11
220.976978
 21
-34.8636
 31
0.0
  0
ARC
  5
1469
100
AcDbEntity
  8
0
100
AcDbCircle
 10
198.420649
 20
-41.95747
 30
0.0
 40
9.251078
100
AcDbArc
 50
71.094882
 51
129.784344
  0
ARC
  5
146A
100
AcDbEntity
  8
0
100
AcDbCircle
 10
199.545487
 20
-42.79098
 30
0.0
 40
7.406078
100
AcDbArc
 50
58.478808
 51
230.399694
  0
ARC
  5
146B
100
AcDbEntity
  8
0
100
AcDbCircle
 10
205.079911
 20
-46.790925
 30
0.0
 40
6.806078
100
AcDbArc
 50
71.004157
 51
218.837431
  0
ARC
  5
146C
100
AcDbEntity
  8
0
100
AcDbCircle
 10
191.146258
 20
-36.571816
 30
0.0
 40
2.192072
100
AcDbArc
 50
51.832176
 51
235.13844
  0
ARC
  5
146D
100
AcDbEntity
  8
0
100
AcDbCircle
 10
198.403846
 20
-41.997155
 30
0.0
 40
9.251078
100
AcDbArc
 50
156.919361
 51
237.810246
  0
LINE
  5
146E
100
AcDbEntity
  8
0
100
AcDbLine
 10
199.7968
 20
-53.095007
 30
0.0
 11
193.475566
 21
-49.826236
 31
0.0
  0
LINE
  5
146F
100
AcDbEntity
  8
0
100
AcDbLine
 10
199.778463
 20
-51.059104
 30
0.0
 11
194.824645
 21
-48.497436
 31
0.0
  0
ARC
  5
1470
100
AcDbEntity
  8
0
100
AcDbCircle
 10
204.784405
 20
-22.93367
 30
0.0
 40
2.192072
100
AcDbArc
 50
34.86156
 51
218.167824
  0
ARC
  5
1471
100
AcDbEntity
  8
0
100
AcDbCircle
 10
215.003513
 20
-36.867323
 30
0.0
 40
6.806078
100
AcDbArc
 50
51.162569
 51
198.995843
  0
ARC
  5
1472
100
AcDbEntity
  8
0
100
AcDbCircle
 10
211.003568
 20
-31.332899
 30
0.0
 40
7.406078
100
AcDbArc
 50
39.600306
 51
211.521192
  0
LINE
  5
1473
100
AcDbEntity
  8
0
100
AcDbLine
 10
204.69028
 20
-35.204899
 30
0.0
 11
208.568079
 21
-39.082698
 31
0.0
  0
LINE
  5
1474
100
AcDbEntity
  8
0
100
AcDbLine
 10
203.417488
 20
-36.477692
 30
0.0
 11
207.295287
 21
-40.35549
 31
0.0
  0
ARC
  5
1475
100
AcDbEntity
  8
0
100
AcDbCircle
 10
210.170058
 20
-30.20806
 30
0.0
 40
9.251078
100
AcDbArc
 50
140.215656
 51
198.905118
  0
ARC
  5
1476
100
AcDbEntity
  8
0
100
AcDbCircle
 10
210.209743
 20
-30.191258
 30
0.0
 40
9.251078
100
AcDbArc
 50
32.189754
 51
113.080639
  0
LINE
  5
1477
100
AcDbEntity
  8
0
100
AcDbLine
 10
219.271692
 20
-31.565875
 30
0.0
 11
216.710024
 21
-26.612056
 31
0.0
  0
LINE
  5
1478
100
AcDbEntity
  8
0
100
AcDbLine
 10
221.307596
 20
-31.584212
 30
0.0
 11
218.038824
 21
-25.262978
 31
0.0
  0
LINE
  5
1479
100
AcDbEntity
  8
0
100
AcDbLine
 10
196.848466
 20
-74.69148
 30
0.0
 11
201.786536
 21
-74.69148
 31
0.0
  0
ARC
  5
147A
100
AcDbEntity
  8
0
100
AcDbCircle
 10
204.157025
 20
-69.755062
 30
0.0
 40
5.476078
100
AcDbArc
 50
98.986994
 51
244.349483
  0
ARC
  5
147B
100
AcDbEntity
  8
0
100
AcDbCircle
 10
198.220626
 20
-68.875064
 30
0.0
 40
5.976078
100
AcDbArc
 50
83.820454
 51
256.725967
  0
LINE
  5
147C
100
AcDbEntity
  8
0
100
AcDbLine
 10
199.7968
 20
-98.087952
 30
0.0
 11
196.778822
 21
-90.801909
 31
0.0
  0
ARC
  5
147D
100
AcDbEntity
  8
0
100
AcDbCircle
 10
198.220626
 20
-82.307895
 30
0.0
 40
5.976078
100
AcDbArc
 50
103.274033
 51
276.179546
  0
ARC
  5
147E
100
AcDbEntity
  8
0
100
AcDbCircle
 10
204.157025
 20
-81.427897
 30
0.0
 40
5.476078
100
AcDbArc
 50
115.650517
 51
261.013006
  0
LINE
  5
147F
100
AcDbEntity
  8
0
100
AcDbLine
 10
196.848466
 20
-76.49148
 30
0.0
 11
201.786536
 21
-76.49148
 31
0.0
  0
ARC
  5
1480
100
AcDbEntity
  8
0
100
AcDbCircle
 10
243.804068
 20
-75.59148
 30
0.0
 40
25.994025
100
AcDbArc
 50
181.984168
 51
194.195708
  0
ARC
  5
1481
100
AcDbEntity
  8
0
100
AcDbCircle
 10
205.942373
 20
-81.131548
 30
0.0
 40
4.856078
100
AcDbArc
 50
107.153568
 51
270.320759
  0
ARC
  5
1482
100
AcDbEntity
  8
0
100
AcDbCircle
 10
212.795502
 20
-80.196337
 30
0.0
 40
3.806078
100
AcDbArc
 50
103.243414
 51
262.606559
  0
ARC
  5
1483
100
AcDbEntity
  8
0
100
AcDbCircle
 10
211.346674
 20
-80.387593
 30
0.0
 40
4.426078
100
AcDbArc
 50
118.32587
 51
254.49604
  0
LINE
  5
1484
100
AcDbEntity
  8
0
100
AcDbLine
 10
220.609259
 20
-87.325627
 30
0.0
 11
215.332612
 21
-90.054232
 31
0.0
  0
ARC
  5
1485
100
AcDbEntity
  8
0
100
AcDbCircle
 10
243.804068
 20
-75.59148
 30
0.0
 40
25.994025
100
AcDbArc
 50
198.165361
 51
206.834639
  0
LINE
  5
1486
100
AcDbEntity
  8
0
100
AcDbLine
 10
200.521918
 20
-89.610496
 30
0.0
 11
203.286025
 21
-96.28364
 31
0.0
  0
LINE
  5
1487
100
AcDbEntity
  8
0
100
AcDbLine
 10
207.278628
 20
-94.219026
 30
0.0
 11
203.286025
 21
-96.28364
 31
0.0
  0
LINE
  5
1488
100
AcDbEntity
  8
0
100
AcDbLine
 10
209.577041
 20
-93.030494
 30
0.0
 11
207.27066
 21
-87.462397
 31
0.0
  0
LINE
  5
1489
100
AcDbEntity
  8
0
100
AcDbLine
 10
211.543397
 20
-86.102401
 30
0.0
 11
207.27066
 21
-87.462397
 31
0.0
  0
LINE
  5
148A
100
AcDbEntity
  8
0
100
AcDbLine
 10
210.163561
 20
-84.652616
 30
0.0
 11
205.969559
 21
-85.98755
 31
0.0
  0
LINE
  5
148B
100
AcDbEntity
  8
0
100
AcDbLine
 10
215.332612
 20
-90.054232
 30
0.0
 11
213.444998
 21
-85.497128
 31
0.0
  0
LINE
  5
148C
100
AcDbEntity
  8
0
100
AcDbLine
 10
213.559985
 20
-90.970875
 30
0.0
 11
211.543397
 21
-86.102401
 31
0.0
  0
LINE
  5
148D
100
AcDbEntity
  8
0
100
AcDbLine
 10
213.559985
 20
-90.970875
 30
0.0
 11
209.577041
 21
-93.030494
 31
0.0
  0
LINE
  5
148E
100
AcDbEntity
  8
0
100
AcDbLine
 10
218.603803
 20
-81.966118
 30
0.0
 11
212.305728
 21
-83.970772
 31
0.0
  0
LINE
  5
148F
100
AcDbEntity
  8
0
100
AcDbLine
 10
219.105566
 20
-83.695391
 30
0.0
 11
213.444998
 21
-85.497128
 31
0.0
  0
LINE
  5
1490
100
AcDbEntity
  8
0
100
AcDbLine
 10
207.278628
 20
-94.219026
 30
0.0
 11
204.805017
 21
-88.247201
 31
0.0
  0
LINE
  5
1491
100
AcDbEntity
  8
0
100
AcDbLine
 10
204.805017
 20
-88.247201
 30
0.0
 11
200.521918
 21
-89.610496
 31
0.0
  0
LINE
  5
1492
100
AcDbEntity
  8
0
100
AcDbLine
 10
203.301605
 20
-86.83675
 30
0.0
 11
198.863917
 21
-88.249249
 31
0.0
  0
LINE
  5
1493
100
AcDbEntity
  8
0
100
AcDbLine
 10
210.163561
 20
-66.530344
 30
0.0
 11
205.969559
 21
-65.195409
 31
0.0
  0
ARC
  5
1494
100
AcDbEntity
  8
0
100
AcDbCircle
 10
205.942373
 20
-70.051411
 30
0.0
 40
4.856078
100
AcDbArc
 50
89.679241
 51
252.846432
  0
LINE
  5
1495
100
AcDbEntity
  8
0
100
AcDbLine
 10
204.510151
 20
-74.69148
 30
0.0
 11
209.246563
 21
-74.69148
 31
0.0
  0
ARC
  5
1496
100
AcDbEntity
  8
0
100
AcDbCircle
 10
211.346674
 20
-70.795366
 30
0.0
 40
4.426078
100
AcDbArc
 50
105.50396
 51
241.67413
  0
ARC
  5
1497
100
AcDbEntity
  8
0
100
AcDbCircle
 10
212.795502
 20
-70.986622
 30
0.0
 40
3.806078
100
AcDbArc
 50
97.393441
 51
256.756586
  0
LINE
  5
1498
100
AcDbEntity
  8
0
100
AcDbLine
 10
204.510151
 20
-76.49148
 30
0.0
 11
209.246563
 21
-76.49148
 31
0.0
  0
ARC
  5
1499
100
AcDbEntity
  8
0
100
AcDbCircle
 10
243.804068
 20
-75.59148
 30
0.0
 40
25.994025
100
AcDbArc
 50
165.804292
 51
178.015832
  0
LINE
  5
149A
100
AcDbEntity
  8
0
100
AcDbLine
 10
211.923574
 20
-74.69148
 30
0.0
 11
217.825628
 21
-74.69148
 31
0.0
  0
LINE
  5
149B
100
AcDbEntity
  8
0
100
AcDbLine
 10
211.923574
 20
-76.49148
 30
0.0
 11
217.825628
 21
-76.49148
 31
0.0
  0
LINE
  5
149D
100
AcDbEntity
  8
0
100
AcDbLine
 10
218.603803
 20
-69.216841
 30
0.0
 11
212.305728
 21
-67.212187
 31
0.0
  0
LINE
  5
149F
100
AcDbEntity
  8
0
100
AcDbLine
 10
203.301605
 20
-64.346209
 30
0.0
 11
198.863917
 21
-62.93371
 31
0.0
  0
ARC
  5
14A1
100
AcDbEntity
  8
0
100
AcDbCircle
 10
187.930308
 20
-83.899567
 30
0.0
 40
9.251078
100
AcDbArc
 50
116.094882
 51
174.784344
  0
ARC
  5
14A2
100
AcDbEntity
  8
0
100
AcDbCircle
 10
189.315069
 20
-83.693566
 30
0.0
 40
7.406078
100
AcDbArc
 50
103.478808
 51
275.399694
  0
ARC
  5
14A3
100
AcDbEntity
  8
0
100
AcDbCircle
 10
196.056886
 20
-82.608526
 30
0.0
 40
6.806078
100
AcDbArc
 50
116.004157
 51
263.837431
  0
ARC
  5
14A4
100
AcDbEntity
  8
0
100
AcDbCircle
 10
178.978305
 20
-85.235106
 30
0.0
 40
2.192072
100
AcDbArc
 50
96.832176
 51
280.13844
  0
ARC
  5
14A5
100
AcDbEntity
  8
0
100
AcDbCircle
 10
187.946489
 20
-83.939509
 30
0.0
 40
9.251078
100
AcDbArc
 50
201.919361
 51
282.810246
  0
LINE
  5
14A6
100
AcDbEntity
  8
0
100
AcDbLine
 10
196.778822
 20
-90.801909
 30
0.0
 11
189.997664
 21
-92.960326
 31
0.0
  0
LINE
  5
14A7
100
AcDbEntity
  8
0
100
AcDbLine
 10
195.326255
 20
-89.375274
 30
0.0
 11
190.012004
 21
-91.06678
 31
0.0
  0
ARC
  5
14A8
100
AcDbEntity
  8
0
100
AcDbCircle
 10
178.978305
 20
-65.947853
 30
0.0
 40
2.192072
100
AcDbArc
 50
79.86156
 51
263.167824
  0
ARC
  5
14A9
100
AcDbEntity
  8
0
100
AcDbCircle
 10
196.056886
 20
-68.574433
 30
0.0
 40
6.806078
100
AcDbArc
 50
96.162569
 51
243.995843
  0
ARC
  5
14AA
100
AcDbEntity
  8
0
100
AcDbCircle
 10
189.315069
 20
-67.489393
 30
0.0
 40
7.406078
100
AcDbArc
 50
84.600306
 51
256.521192
  0
LINE
  5
14AB
100
AcDbEntity
  8
0
100
AcDbLine
 10
187.588818
 20
-74.69148
 30
0.0
 11
193.072854
 21
-74.69148
 31
0.0
  0
LINE
  5
14AC
100
AcDbEntity
  8
0
100
AcDbLine
 10
187.588818
 20
-76.49148
 30
0.0
 11
193.072854
 21
-76.49148
 31
0.0
  0
ARC
  5
14AD
100
AcDbEntity
  8
0
100
AcDbCircle
 10
187.930308
 20
-67.283393
 30
0.0
 40
9.251078
100
AcDbArc
 50
185.215656
 51
243.905118
  0
ARC
  5
14AE
100
AcDbEntity
  8
0
100
AcDbCircle
 10
187.946489
 20
-67.24345
 30
0.0
 40
9.251078
100
AcDbArc
 50
77.189754
 51
158.080639
  0
LINE
  5
14AF
100
AcDbEntity
  8
0
100
AcDbLine
 10
195.326255
 20
-61.807685
 30
0.0
 11
190.012004
 21
-60.116179
 31
0.0
  0
LINE
  5
14B0
100
AcDbEntity
  8
0
100
AcDbLine
 10
196.778822
 20
-60.38105
 30
0.0
 11
189.997664
 21
-58.222633
 31
0.0
  0
LINE
  5
14B1
100
AcDbEntity
  8
0
100
AcDbLine
 10
209.965048
 20
-108.157708
 30
0.0
 11
213.45679
 21
-104.665965
 31
0.0
  0
ARC
  5
14B2
100
AcDbEntity
  8
0
100
AcDbCircle
 10
211.642405
 20
-99.499202
 30
0.0
 40
5.476078
100
AcDbArc
 50
143.986994
 51
289.349483
  0
ARC
  5
14B3
100
AcDbEntity
  8
0
100
AcDbCircle
 10
206.822484
 20
-103.074618
 30
0.0
 40
5.976078
100
AcDbArc
 50
128.820454
 51
301.725967
  0
LINE
  5
14B4
100
AcDbEntity
  8
0
100
AcDbLine
 10
228.593638
 20
-122.616725
 30
0.0
 11
221.307596
 21
-119.598747
 31
0.0
  0
ARC
  5
14B5
100
AcDbEntity
  8
0
100
AcDbCircle
 10
216.32093
 20
-112.573064
 30
0.0
 40
5.976078
100
AcDbArc
 50
148.274033
 51
321.179546
  0
ARC
  5
14B6
100
AcDbEntity
  8
0
100
AcDbCircle
 10
219.896345
 20
-107.753143
 30
0.0
 40
5.476078
100
AcDbArc
 50
160.650517
 51
306.013006
  0
LINE
  5
14B7
100
AcDbEntity
  8
0
100
AcDbLine
 10
211.23784
 20
-109.4305
 30
0.0
 11
214.729582
 21
-105.938757
 31
0.0
  0
ARC
  5
14B8
100
AcDbEntity
  8
0
100
AcDbCircle
 10
243.804068
 20
-75.59148
 30
0.0
 40
25.994025
100
AcDbArc
 50
226.984168
 51
239.195708
  0
ARC
  5
14B9
100
AcDbEntity
  8
0
100
AcDbCircle
 10
220.949227
 20
-106.281161
 30
0.0
 40
4.856078
100
AcDbArc
 50
152.153568
 51
315.320759
  0
ARC
  5
14BA
100
AcDbEntity
  8
0
100
AcDbCircle
 10
225.133827
 20
-100.773973
 30
0.0
 40
3.806078
100
AcDbArc
 50
148.243414
 51
307.606559
  0
ARC
  5
14BB
100
AcDbEntity
  8
0
100
AcDbCircle
 10
224.244589
 20
-101.933688
 30
0.0
 40
4.426078
100
AcDbArc
 50
163.32587
 51
299.49604
  0
LINE
  5
14BC
100
AcDbEntity
  8
0
100
AcDbLine
 10
235.700157
 20
-100.289981
 30
0.0
 11
233.898419
 21
-105.95055
 31
0.0
  0
ARC
  5
14BD
100
AcDbEntity
  8
0
100
AcDbCircle
 10
243.804068
 20
-75.59148
 30
0.0
 40
25.994025
100
AcDbArc
 50
243.165361
 51
251.834639
  0
LINE
  5
14BE
100
AcDbEntity
  8
0
100
AcDbLine
 10
223.111908
 20
-116.109523
 30
0.0
 11
229.785052
 21
-118.873629
 31
0.0
  0
LINE
  5
14BF
100
AcDbEntity
  8
0
100
AcDbLine
 10
231.148346
 20
-114.59053
 30
0.0
 11
229.785052
 21
-118.873629
 31
0.0
  0
LINE
  5
14C0
100
AcDbEntity
  8
0
100
AcDbLine
 10
231.933151
 20
-112.124887
 30
0.0
 11
226.365054
 21
-109.818506
 31
0.0
  0
LINE
  5
14C1
100
AcDbEntity
  8
0
100
AcDbLine
 10
228.424672
 20
-105.835563
 30
0.0
 11
226.365054
 21
-109.818506
 31
0.0
  0
LINE
  5
14C2
100
AcDbEntity
  8
0
100
AcDbLine
 10
226.423828
 20
-105.786101
 30
0.0
 11
224.402162
 21
-109.69565
 31
0.0
  0
LINE
  5
14C3
100
AcDbEntity
  8
0
100
AcDbLine
 10
233.898419
 20
-105.95055
 30
0.0
 11
229.341315
 21
-104.062935
 31
0.0
  0
LINE
  5
14C4
100
AcDbEntity
  8
0
100
AcDbLine
 10
233.293147
 20
-107.852151
 30
0.0
 11
228.424672
 21
-105.835563
 31
0.0
  0
LINE
  5
14C5
100
AcDbEntity
  8
0
100
AcDbLine
 10
233.293147
 20
-107.852151
 30
0.0
 11
231.933151
 21
-112.124887
 31
0.0
  0
LINE
  5
14C6
100
AcDbEntity
  8
0
100
AcDbLine
 10
230.49234
 20
-97.918308
 30
0.0
 11
227.456433
 21
-103.789223
 31
0.0
  0
LINE
  5
14C7
100
AcDbEntity
  8
0
100
AcDbLine
 10
232.069921
 20
-98.786288
 30
0.0
 11
229.341315
 21
-104.062935
 31
0.0
  0
LINE
  5
14C8
100
AcDbEntity
  8
0
100
AcDbLine
 10
231.148346
 20
-114.59053
 30
0.0
 11
225.176522
 21
-112.116919
 31
0.0
  0
LINE
  5
14C9
100
AcDbEntity
  8
0
100
AcDbLine
 10
225.176522
 20
-112.116919
 30
0.0
 11
223.111908
 21
-116.109523
 31
0.0
  0
LINE
  5
14CA
100
AcDbEntity
  8
0
100
AcDbLine
 10
223.116109
 20
-112.182653
 30
0.0
 11
220.976978
 21
-116.319359
 31
0.0
  0
LINE
  5
14CB
100
AcDbEntity
  8
0
100
AcDbLine
 10
213.609447
 20
-92.971719
 30
0.0
 11
209.699898
 21
-94.993385
 31
0.0
  0
ARC
  5
14CC
100
AcDbEntity
  8
0
100
AcDbCircle
 10
213.114387
 20
-98.44632
 30
0.0
 40
4.856078
100
AcDbArc
 50
134.679241
 51
297.846432
  0
LINE
  5
14CD
100
AcDbEntity
  8
0
100
AcDbLine
 10
215.382677
 20
-102.740078
 30
0.0
 11
218.731826
 21
-99.39093
 31
0.0
  0
ARC
  5
14CE
100
AcDbEntity
  8
0
100
AcDbCircle
 10
217.46186
 20
-95.150958
 30
0.0
 40
4.426078
100
AcDbArc
 50
150.50396
 51
286.67413
  0
ARC
  5
14CF
100
AcDbEntity
  8
0
100
AcDbCircle
 10
218.621575
 20
-94.26172
 30
0.0
 40
3.806078
100
AcDbArc
 50
142.393441
 51
301.756586
  0
LINE
  5
14D0
100
AcDbEntity
  8
0
100
AcDbLine
 10
216.655469
 20
-104.01287
 30
0.0
 11
220.004618
 21
-100.663722
 31
0.0
  0
ARC
  5
14D1
100
AcDbEntity
  8
0
100
AcDbCircle
 10
243.804068
 20
-75.59148
 30
0.0
 40
25.994025
100
AcDbArc
 50
210.804292
 51
223.015832
  0
LINE
  5
14D2
100
AcDbEntity
  8
0
100
AcDbLine
 10
220.624758
 20
-97.497997
 30
0.0
 11
224.79814
 21
-93.324615
 31
0.0
  0
LINE
  5
14D3
100
AcDbEntity
  8
0
100
AcDbLine
 10
221.89755
 20
-98.770789
 30
0.0
 11
226.070933
 21
-94.597407
 31
0.0
  0
LINE
  5
14D5
100
AcDbEntity
  8
0
100
AcDbLine
 10
221.47724
 20
-88.903207
 30
0.0
 11
215.606324
 21
-91.939115
 31
0.0
  0
LINE
  5
14D7
100
AcDbEntity
  8
0
100
AcDbLine
 10
207.212895
 20
-96.279439
 30
0.0
 11
203.076188
 21
-98.41857
 31
0.0
  0
ARC
  5
14D9
100
AcDbEntity
  8
0
100
AcDbCircle
 10
210.170058
 20
-120.974899
 30
0.0
 40
9.251078
100
AcDbArc
 50
161.094882
 51
219.784344
  0
ARC
  5
14DA
100
AcDbEntity
  8
0
100
AcDbCircle
 10
211.003568
 20
-119.85006
 30
0.0
 40
7.406078
100
AcDbArc
 50
148.478808
 51
320.399694
  0
ARC
  5
14DB
100
AcDbEntity
  8
0
100
AcDbCircle
 10
215.003513
 20
-114.315636
 30
0.0
 40
6.806078
100
AcDbArc
 50
161.004157
 51
308.837431
  0
ARC
  5
14DC
100
AcDbEntity
  8
0
100
AcDbCircle
 10
204.784405
 20
-128.249289
 30
0.0
 40
2.192072
100
AcDbArc
 50
141.832176
 51
325.13844
  0
ARC
  5
14DD
100
AcDbEntity
  8
0
100
AcDbCircle
 10
210.209743
 20
-120.991701
 30
0.0
 40
9.251078
100
AcDbArc
 50
246.919361
 51
327.810246
  0
LINE
  5
14DE
100
AcDbEntity
  8
0
100
AcDbLine
 10
221.307596
 20
-119.598747
 30
0.0
 11
218.038824
 21
-125.919981
 31
0.0
  0
LINE
  5
14DF
100
AcDbEntity
  8
0
100
AcDbLine
 10
219.271692
 20
-119.617084
 30
0.0
 11
216.710024
 21
-124.570903
 31
0.0
  0
ARC
  5
14E0
100
AcDbEntity
  8
0
100
AcDbCircle
 10
191.146258
 20
-114.611143
 30
0.0
 40
2.192072
100
AcDbArc
 50
124.86156
 51
308.167824
  0
ARC
  5
14E1
100
AcDbEntity
  8
0
100
AcDbCircle
 10
205.079911
 20
-104.392034
 30
0.0
 40
6.806078
100
AcDbArc
 50
141.162569
 51
288.995843
  0
ARC
  5
14E2
100
AcDbEntity
  8
0
100
AcDbCircle
 10
199.545487
 20
-108.391979
 30
0.0
 40
7.406078
100
AcDbArc
 50
129.600306
 51
301.521192
  0
LINE
  5
14E3
100
AcDbEntity
  8
0
100
AcDbLine
 10
203.417488
 20
-114.705268
 30
0.0
 11
207.295287
 21
-110.827469
 31
0.0
  0
LINE
  5
14E4
100
AcDbEntity
  8
0
100
AcDbLine
 10
204.69028
 20
-115.97806
 30
0.0
 11
208.568079
 21
-112.100261
 31
0.0
  0
ARC
  5
14E5
100
AcDbEntity
  8
0
100
AcDbCircle
 10
198.420649
 20
-109.225489
 30
0.0
 40
9.251078
100
AcDbArc
 50
230.215656
 51
288.905118
  0
ARC
  5
14E6
100
AcDbEntity
  8
0
100
AcDbCircle
 10
198.403846
 20
-109.185804
 30
0.0
 40
9.251078
100
AcDbArc
 50
122.189754
 51
203.080639
  0
LINE
  5
14E7
100
AcDbEntity
  8
0
100
AcDbLine
 10
199.778463
 20
-100.123855
 30
0.0
 11
194.824645
 21
-102.685523
 31
0.0
  0
LINE
  5
14E8
100
AcDbEntity
  8
0
100
AcDbLine
 10
199.7968
 20
-98.087952
 30
0.0
 11
193.475566
 21
-101.356723
 31
0.0
  0
LINE
  5
14E9
100
AcDbEntity
  8
0
100
AcDbLine
 10
242.904068
 20
-122.547081
 30
0.0
 11
242.904068
 21
-117.609011
 31
0.0
  0
ARC
  5
14EA
100
AcDbEntity
  8
0
100
AcDbCircle
 10
237.96765
 20
-115.238523
 30
0.0
 40
5.476078
100
AcDbArc
 50
188.986994
 51
334.349483
  0
ARC
  5
14EB
100
AcDbEntity
  8
0
100
AcDbCircle
 10
237.087652
 20
-121.174922
 30
0.0
 40
5.976078
100
AcDbArc
 50
173.820454
 51
346.725967
  0
LINE
  5
14EC
100
AcDbEntity
  8
0
100
AcDbLine
 10
266.30054
 20
-119.598747
 30
0.0
 11
259.014497
 21
-122.616725
 31
0.0
  0
ARC
  5
14ED
100
AcDbEntity
  8
0
100
AcDbCircle
 10
250.520484
 20
-121.174922
 30
0.0
 40
5.976078
100
AcDbArc
 50
193.274033
 51
6.179546
  0
ARC
  5
14EE
100
AcDbEntity
  8
0
100
AcDbCircle
 10
249.640485
 20
-115.238523
 30
0.0
 40
5.476078
100
AcDbArc
 50
205.650517
 51
351.013006
  0
LINE
  5
14EF
100
AcDbEntity
  8
0
100
AcDbLine
 10
244.704068
 20
-122.547081
 30
0.0
 11
244.704068
 21
-117.609011
 31
0.0
  0
ARC
  5
14F0
100
AcDbEntity
  8
0
100
AcDbCircle
 10
243.804068
 20
-75.59148
 30
0.0
 40
25.994025
100
AcDbArc
 50
271.984168
 51
284.195708
  0
ARC
  5
14F1
100
AcDbEntity
  8
0
100
AcDbCircle
 10
249.344137
 20
-113.453174
 30
0.0
 40
4.856078
100
AcDbArc
 50
197.153568
 51
0.320759
  0
ARC
  5
14F2
100
AcDbEntity
  8
0
100
AcDbCircle
 10
248.408926
 20
-106.600045
 30
0.0
 40
3.806078
100
AcDbArc
 50
193.243414
 51
352.606559
  0
ARC
  5
14F3
100
AcDbEntity
  8
0
100
AcDbCircle
 10
248.600182
 20
-108.048874
 30
0.0
 40
4.426078
100
AcDbArc
 50
208.32587
 51
344.49604
  0
LINE
  5
14F4
100
AcDbEntity
  8
0
100
AcDbLine
 10
255.538215
 20
-98.786288
 30
0.0
 11
258.266821
 21
-104.062935
 31
0.0
  0
ARC
  5
14F5
100
AcDbEntity
  8
0
100
AcDbCircle
 10
243.804068
 20
-75.59148
 30
0.0
 40
25.994025
100
AcDbArc
 50
288.165361
 51
296.834639
  0
LINE
  5
14F6
100
AcDbEntity
  8
0
100
AcDbLine
 10
257.823084
 20
-118.873629
 30
0.0
 11
264.496228
 21
-116.109523
 31
0.0
  0
LINE
  5
14F7
100
AcDbEntity
  8
0
100
AcDbLine
 10
262.431614
 20
-112.116919
 30
0.0
 11
264.496228
 21
-116.109523
 31
0.0
  0
LINE
  5
14F8
100
AcDbEntity
  8
0
100
AcDbLine
 10
261.243082
 20
-109.818506
 30
0.0
 11
255.674985
 21
-112.124887
 31
0.0
  0
LINE
  5
14F9
100
AcDbEntity
  8
0
100
AcDbLine
 10
254.314989
 20
-107.852151
 30
0.0
 11
255.674985
 21
-112.124887
 31
0.0
  0
LINE
  5
14FA
100
AcDbEntity
  8
0
100
AcDbLine
 10
252.865204
 20
-109.231987
 30
0.0
 11
254.200139
 21
-113.425989
 31
0.0
  0
LINE
  5
14FB
100
AcDbEntity
  8
0
100
AcDbLine
 10
258.266821
 20
-104.062935
 30
0.0
 11
253.709717
 21
-105.95055
 31
0.0
  0
LINE
  5
14FC
100
AcDbEntity
  8
0
100
AcDbLine
 10
259.183464
 20
-105.835563
 30
0.0
 11
254.314989
 21
-107.852151
 31
0.0
  0
LINE
  5
14FD
100
AcDbEntity
  8
0
100
AcDbLine
 10
259.183464
 20
-105.835563
 30
0.0
 11
261.243082
 21
-109.818506
 31
0.0
  0
LINE
  5
14FE
100
AcDbEntity
  8
0
100
AcDbLine
 10
250.178707
 20
-100.791744
 30
0.0
 11
252.18336
 21
-107.089819
 31
0.0
  0
LINE
  5
14FF
100
AcDbEntity
  8
0
100
AcDbLine
 10
251.907979
 20
-100.289981
 30
0.0
 11
253.709717
 21
-105.95055
 31
0.0
  0
LINE
  5
1500
100
AcDbEntity
  8
0
100
AcDbLine
 10
262.431614
 20
-112.116919
 30
0.0
 11
256.45979
 21
-114.59053
 31
0.0
  0
LINE
  5
1501
100
AcDbEntity
  8
0
100
AcDbLine
 10
256.45979
 20
-114.59053
 30
0.0
 11
257.823084
 21
-118.873629
 31
0.0
  0
LINE
  5
1502
100
AcDbEntity
  8
0
100
AcDbLine
 10
255.049338
 20
-116.093942
 30
0.0
 11
256.461838
 21
-120.53163
 31
0.0
  0
LINE
  5
1503
100
AcDbEntity
  8
0
100
AcDbLine
 10
234.742932
 20
-109.231987
 30
0.0
 11
233.407997
 21
-113.425989
 31
0.0
  0
ARC
  5
1504
100
AcDbEntity
  8
0
100
AcDbCircle
 10
238.263999
 20
-113.453174
 30
0.0
 40
4.856078
100
AcDbArc
 50
179.679241
 51
342.846432
  0
LINE
  5
1505
100
AcDbEntity
  8
0
100
AcDbLine
 10
242.904068
 20
-114.885396
 30
0.0
 11
242.904068
 21
-110.148985
 31
0.0
  0
ARC
  5
1506
100
AcDbEntity
  8
0
100
AcDbCircle
 10
239.007954
 20
-108.048874
 30
0.0
 40
4.426078
100
AcDbArc
 50
195.50396
 51
331.67413
  0
ARC
  5
1507
100
AcDbEntity
  8
0
100
AcDbCircle
 10
239.19921
 20
-106.600045
 30
0.0
 40
3.806078
100
AcDbArc
 50
187.393441
 51
346.756586
  0
LINE
  5
1508
100
AcDbEntity
  8
0
100
AcDbLine
 10
244.704068
 20
-114.885396
 30
0.0
 11
244.704068
 21
-110.148985
 31
0.0
  0
ARC
  5
1509
100
AcDbEntity
  8
0
100
AcDbCircle
 10
243.804068
 20
-75.59148
 30
0.0
 40
25.994025
100
AcDbArc
 50
255.804292
 51
268.015832
  0
LINE
  5
150A
100
AcDbEntity
  8
0
100
AcDbLine
 10
242.904068
 20
-107.471974
 30
0.0
 11
242.904068
 21
-101.56992
 31
0.0
  0
LINE
  5
150B
100
AcDbEntity
  8
0
100
AcDbLine
 10
244.704068
 20
-107.471974
 30
0.0
 11
244.704068
 21
-101.56992
 31
0.0
  0
LINE
  5
150D
100
AcDbEntity
  8
0
100
AcDbLine
 10
237.429429
 20
-100.791744
 30
0.0
 11
235.424776
 21
-107.089819
 31
0.0
  0
LINE
  5
150F
100
AcDbEntity
  8
0
100
AcDbLine
 10
232.558797
 20
-116.093942
 30
0.0
 11
231.146298
 21
-120.53163
 31
0.0
  0
ARC
  5
1511
100
AcDbEntity
  8
0
100
AcDbCircle
 10
252.112155
 20
-131.465239
 30
0.0
 40
9.251078
100
AcDbArc
 50
206.094882
 51
264.784344
  0
ARC
  5
1512
100
AcDbEntity
  8
0
100
AcDbCircle
 10
251.906155
 20
-130.080478
 30
0.0
 40
7.406078
100
AcDbArc
 50
193.478808
 51
5.399694
  0
ARC
  5
1513
100
AcDbEntity
  8
0
100
AcDbCircle
 10
250.821114
 20
-123.338661
 30
0.0
 40
6.806078
100
AcDbArc
 50
206.004157
 51
353.837431
  0
ARC
  5
1514
100
AcDbEntity
  8
0
100
AcDbCircle
 10
253.447694
 20
-140.417242
 30
0.0
 40
2.192072
100
AcDbArc
 50
186.832176
 51
10.13844
  0
ARC
  5
1515
100
AcDbEntity
  8
0
100
AcDbCircle
 10
252.152098
 20
-131.449059
 30
0.0
 40
9.251078
100
AcDbArc
 50
291.919361
 51
12.810246
  0
LINE
  5
1516
100
AcDbEntity
  8
0
100
AcDbLine
 10
259.014497
 20
-122.616725
 30
0.0
 11
261.172914
 21
-129.397883
 31
0.0
  0
LINE
  5
1517
100
AcDbEntity
  8
0
100
AcDbLine
 10
257.587862
 20
-124.069293
 30
0.0
 11
259.279368
 21
-129.383544
 31
0.0
  0
ARC
  5
1518
100
AcDbEntity
  8
0
100
AcDbCircle
 10
234.160442
 20
-140.417242
 30
0.0
 40
2.192072
100
AcDbArc
 50
169.86156
 51
353.167824
  0
ARC
  5
1519
100
AcDbEntity
  8
0
100
AcDbCircle
 10
236.787022
 20
-123.338661
 30
0.0
 40
6.806078
100
AcDbArc
 50
186.162569
 51
333.995843
  0
ARC
  5
151A
100
AcDbEntity
  8
0
100
AcDbCircle
 10
235.701981
 20
-130.080478
 30
0.0
 40
7.406078
100
AcDbArc
 50
174.600306
 51
346.521192
  0
LINE
  5
151B
100
AcDbEntity
  8
0
100
AcDbLine
 10
242.904068
 20
-131.806729
 30
0.0
 11
242.904068
 21
-126.322693
 31
0.0
  0
LINE
  5
151C
100
AcDbEntity
  8
0
100
AcDbLine
 10
244.704068
 20
-131.806729
 30
0.0
 11
244.704068
 21
-126.322693
 31
0.0
  0
ARC
  5
151D
100
AcDbEntity
  8
0
100
AcDbCircle
 10
235.495981
 20
-131.465239
 30
0.0
 40
9.251078
100
AcDbArc
 50
275.215656
 51
333.905118
  0
ARC
  5
151E
100
AcDbEntity
  8
0
100
AcDbCircle
 10
235.456038
 20
-131.449059
 30
0.0
 40
9.251078
100
AcDbArc
 50
167.189754
 51
248.080639
  0
LINE
  5
151F
100
AcDbEntity
  8
0
100
AcDbLine
 10
230.020274
 20
-124.069293
 30
0.0
 11
228.328768
 21
-129.383544
 31
0.0
  0
LINE
  5
1520
100
AcDbEntity
  8
0
100
AcDbLine
 10
228.593638
 20
-122.616725
 30
0.0
 11
226.435222
 21
-129.397883
 31
0.0
  0
LINE
  5
1521
100
AcDbEntity
  8
0
100
AcDbLine
 10
276.370296
 20
-109.4305
 30
0.0
 11
272.878553
 21
-105.938757
 31
0.0
  0
ARC
  5
1522
100
AcDbEntity
  8
0
100
AcDbCircle
 10
267.711791
 20
-107.753143
 30
0.0
 40
5.476078
100
AcDbArc
 50
233.986994
 51
19.349483
  0
ARC
  5
1523
100
AcDbEntity
  8
0
100
AcDbCircle
 10
271.287206
 20
-112.573064
 30
0.0
 40
5.976078
100
AcDbArc
 50
218.820454
 51
31.725967
  0
LINE
  5
1524
100
AcDbEntity
  8
0
100
AcDbLine
 10
290.829313
 20
-90.801909
 30
0.0
 11
287.811336
 21
-98.087952
 31
0.0
  0
ARC
  5
1525
100
AcDbEntity
  8
0
100
AcDbCircle
 10
280.785652
 20
-103.074618
 30
0.0
 40
5.976078
100
AcDbArc
 50
238.274033
 51
51.179546
  0
ARC
  5
1526
100
AcDbEntity
  8
0
100
AcDbCircle
 10
275.965731
 20
-99.499202
 30
0.0
 40
5.476078
100
AcDbArc
 50
250.650517
 51
36.013006
  0
LINE
  5
1527
100
AcDbEntity
  8
0
100
AcDbLine
 10
277.643088
 20
-108.157708
 30
0.0
 11
274.151346
 21
-104.665965
 31
0.0
  0
ARC
  5
1528
100
AcDbEntity
  8
0
100
AcDbCircle
 10
243.804068
 20
-75.59148
 30
0.0
 40
25.994025
100
AcDbArc
 50
316.984168
 51
329.195708
  0
ARC
  5
1529
100
AcDbEntity
  8
0
100
AcDbCircle
 10
274.493749
 20
-98.44632
 30
0.0
 40
4.856078
100
AcDbArc
 50
242.153568
 51
45.320759
  0
ARC
  5
152A
100
AcDbEntity
  8
0
100
AcDbCircle
 10
268.986561
 20
-94.26172
 30
0.0
 40
3.806078
100
AcDbArc
 50
238.243414
 51
37.606559
  0
ARC
  5
152B
100
AcDbEntity
  8
0
100
AcDbCircle
 10
270.146276
 20
-95.150958
 30
0.0
 40
4.426078
100
AcDbArc
 50
253.32587
 51
29.49604
  0
LINE
  5
152C
100
AcDbEntity
  8
0
100
AcDbLine
 10
268.50257
 20
-83.695391
 30
0.0
 11
274.163138
 21
-85.497128
 31
0.0
  0
ARC
  5
152D
100
AcDbEntity
  8
0
100
AcDbCircle
 10
243.804068
 20
-75.59148
 30
0.0
 40
25.994025
100
AcDbArc
 50
333.165361
 51
341.834639
  0
LINE
  5
152E
100
AcDbEntity
  8
0
100
AcDbLine
 10
284.322111
 20
-96.28364
 30
0.0
 11
287.086218
 21
-89.610496
 31
0.0
  0
LINE
  5
152F
100
AcDbEntity
  8
0
100
AcDbLine
 10
282.803118
 20
-88.247201
 30
0.0
 11
287.086218
 21
-89.610496
 31
0.0
  0
LINE
  5
1530
100
AcDbEntity
  8
0
100
AcDbLine
 10
280.337476
 20
-87.462397
 30
0.0
 11
278.031094
 21
-93.030494
 31
0.0
  0
LINE
  5
1531
100
AcDbEntity
  8
0
100
AcDbLine
 10
274.048151
 20
-90.970875
 30
0.0
 11
278.031094
 21
-93.030494
 31
0.0
  0
LINE
  5
1532
100
AcDbEntity
  8
0
100
AcDbLine
 10
273.998689
 20
-92.971719
 30
0.0
 11
277.908238
 21
-94.993385
 31
0.0
  0
LINE
  5
1533
100
AcDbEntity
  8
0
100
AcDbLine
 10
274.163138
 20
-85.497128
 30
0.0
 11
272.275524
 21
-90.054232
 31
0.0
  0
LINE
  5
1534
100
AcDbEntity
  8
0
100
AcDbLine
 10
276.064739
 20
-86.102401
 30
0.0
 11
274.048151
 21
-90.970875
 31
0.0
  0
LINE
  5
1535
100
AcDbEntity
  8
0
100
AcDbLine
 10
276.064739
 20
-86.102401
 30
0.0
 11
280.337476
 21
-87.462397
 31
0.0
  0
LINE
  5
1536
100
AcDbEntity
  8
0
100
AcDbLine
 10
266.130896
 20
-88.903207
 30
0.0
 11
272.001812
 21
-91.939115
 31
0.0
  0
LINE
  5
1537
100
AcDbEntity
  8
0
100
AcDbLine
 10
266.998877
 20
-87.325627
 30
0.0
 11
272.275524
 21
-90.054232
 31
0.0
  0
LINE
  5
1538
100
AcDbEntity
  8
0
100
AcDbLine
 10
282.803118
 20
-88.247201
 30
0.0
 11
280.329508
 21
-94.219026
 31
0.0
  0
LINE
  5
1539
100
AcDbEntity
  8
0
100
AcDbLine
 10
280.329508
 20
-94.219026
 30
0.0
 11
284.322111
 21
-96.28364
 31
0.0
  0
LINE
  5
153A
100
AcDbEntity
  8
0
100
AcDbLine
 10
280.395241
 20
-96.279439
 30
0.0
 11
284.531948
 21
-98.41857
 31
0.0
  0
LINE
  5
153B
100
AcDbEntity
  8
0
100
AcDbLine
 10
261.184308
 20
-105.786101
 30
0.0
 11
263.205974
 21
-109.69565
 31
0.0
  0
ARC
  5
153C
100
AcDbEntity
  8
0
100
AcDbCircle
 10
266.658909
 20
-106.281161
 30
0.0
 40
4.856078
100
AcDbArc
 50
224.679241
 51
27.846432
  0
LINE
  5
153D
100
AcDbEntity
  8
0
100
AcDbLine
 10
270.952667
 20
-104.01287
 30
0.0
 11
267.603518
 21
-100.663722
 31
0.0
  0
ARC
  5
153E
100
AcDbEntity
  8
0
100
AcDbCircle
 10
263.363547
 20
-101.933688
 30
0.0
 40
4.426078
100
AcDbArc
 50
240.50396
 51
16.67413
  0
ARC
  5
153F
100
AcDbEntity
  8
0
100
AcDbCircle
 10
262.474309
 20
-100.773973
 30
0.0
 40
3.806078
100
AcDbArc
 50
232.393441
 51
31.756586
  0
LINE
  5
1540
100
AcDbEntity
  8
0
100
AcDbLine
 10
272.225459
 20
-102.740078
 30
0.0
 11
268.87631
 21
-99.39093
 31
0.0
  0
ARC
  5
1541
100
AcDbEntity
  8
0
100
AcDbCircle
 10
243.804068
 20
-75.59148
 30
0.0
 40
25.994025
100
AcDbArc
 50
300.804292
 51
313.015832
  0
LINE
  5
1542
100
AcDbEntity
  8
0
100
AcDbLine
 10
265.710585
 20
-98.770789
 30
0.0
 11
261.537203
 21
-94.597407
 31
0.0
  0
LINE
  5
1543
100
AcDbEntity
  8
0
100
AcDbLine
 10
266.983378
 20
-97.497997
 30
0.0
 11
262.809995
 21
-93.324615
 31
0.0
  0
LINE
  5
1545
100
AcDbEntity
  8
0
100
AcDbLine
 10
257.115796
 20
-97.918308
 30
0.0
 11
260.151703
 21
-103.789223
 31
0.0
  0
LINE
  5
1547
100
AcDbEntity
  8
0
100
AcDbLine
 10
264.492027
 20
-112.182653
 30
0.0
 11
266.631158
 21
-116.319359
 31
0.0
  0
ARC
  5
1549
100
AcDbEntity
  8
0
100
AcDbCircle
 10
289.187487
 20
-109.225489
 30
0.0
 40
9.251078
100
AcDbArc
 50
251.094882
 51
309.784344
  0
ARC
  5
154A
100
AcDbEntity
  8
0
100
AcDbCircle
 10
288.062649
 20
-108.391979
 30
0.0
 40
7.406078
100
AcDbArc
 50
238.478808
 51
50.399694
  0
ARC
  5
154B
100
AcDbEntity
  8
0
100
AcDbCircle
 10
282.528225
 20
-104.392034
 30
0.0
 40
6.806078
100
AcDbArc
 50
251.004157
 51
38.837431
  0
ARC
  5
154C
100
AcDbEntity
  8
0
100
AcDbCircle
 10
296.461878
 20
-114.611143
 30
0.0
 40
2.192072
100
AcDbArc
 50
231.832176
 51
55.13844
  0
ARC
  5
154D
100
AcDbEntity
  8
0
100
AcDbCircle
 10
289.204289
 20
-109.185804
 30
0.0
 40
9.251078
100
AcDbArc
 50
336.919361
 51
57.810246
  0
LINE
  5
154E
100
AcDbEntity
  8
0
100
AcDbLine
 10
287.811336
 20
-98.087952
 30
0.0
 11
294.13257
 21
-101.356723
 31
0.0
  0
LINE
  5
154F
100
AcDbEntity
  8
0
100
AcDbLine
 10
287.829673
 20
-100.123855
 30
0.0
 11
292.783491
 21
-102.685523
 31
0.0
  0
ARC
  5
1550
100
AcDbEntity
  8
0
100
AcDbCircle
 10
282.823731
 20
-128.249289
 30
0.0
 40
2.192072
100
AcDbArc
 50
214.86156
 51
38.167824
  0
ARC
  5
1551
100
AcDbEntity
  8
0
100
AcDbCircle
 10
272.604623
 20
-114.315636
 30
0.0
 40
6.806078
100
AcDbArc
 50
231.162569
 51
18.995843
  0
ARC
  5
1552
100
AcDbEntity
  8
0
100
AcDbCircle
 10
276.604568
 20
-119.85006
 30
0.0
 40
7.406078
100
AcDbArc
 50
219.600306
 51
31.521192
  0
LINE
  5
1553
100
AcDbEntity
  8
0
100
AcDbLine
 10
282.917856
 20
-115.97806
 30
0.0
 11
279.040057
 21
-112.100261
 31
0.0
  0
LINE
  5
1554
100
AcDbEntity
  8
0
100
AcDbLine
 10
284.190648
 20
-114.705268
 30
0.0
 11
280.312849
 21
-110.827469
 31
0.0
  0
ARC
  5
1555
100
AcDbEntity
  8
0
100
AcDbCircle
 10
277.438078
 20
-120.974899
 30
0.0
 40
9.251078
100
AcDbArc
 50
320.215656
 51
18.905118
  0
ARC
  5
1556
100
AcDbEntity
  8
0
100
AcDbCircle
 10
277.398392
 20
-120.991701
 30
0.0
 40
9.251078
100
AcDbArc
 50
212.189754
 51
293.080639
  0
LINE
  5
1557
100
AcDbEntity
  8
0
100
AcDbLine
 10
268.336444
 20
-119.617084
 30
0.0
 11
270.898112
 21
-124.570903
 31
0.0
  0
LINE
  5
1558
100
AcDbEntity
  8
0
100
AcDbLine
 10
266.30054
 20
-119.598747
 30
0.0
 11
269.569312
 21
-125.919981
 31
0.0
  0
LINE
  5
1559
100
AcDbEntity
  8
0
100
AcDbLine
 10
290.759669
 20
-76.49148
 30
0.0
 11
285.8216
 21
-76.49148
 31
0.0
  0
ARC
  5
155A
100
AcDbEntity
  8
0
100
AcDbCircle
 10
283.451111
 20
-81.427897
 30
0.0
 40
5.476078
100
AcDbArc
 50
278.986994
 51
64.349483
  0
ARC
  5
155B
100
AcDbEntity
  8
0
100
AcDbCircle
 10
289.38751
 20
-82.307895
 30
0.0
 40
5.976078
100
AcDbArc
 50
263.820454
 51
76.725967
  0
LINE
  5
155C
100
AcDbEntity
  8
0
100
AcDbLine
 10
287.811336
 20
-53.095007
 30
0.0
 11
290.829313
 21
-60.38105
 31
0.0
  0
ARC
  5
155D
100
AcDbEntity
  8
0
100
AcDbCircle
 10
289.38751
 20
-68.875064
 30
0.0
 40
5.976078
100
AcDbArc
 50
283.274033
 51
96.179546
  0
ARC
  5
155E
100
AcDbEntity
  8
0
100
AcDbCircle
 10
283.451111
 20
-69.755062
 30
0.0
 40
5.476078
100
AcDbArc
 50
295.650517
 51
81.013006
  0
LINE
  5
155F
100
AcDbEntity
  8
0
100
AcDbLine
 10
290.759669
 20
-74.69148
 30
0.0
 11
285.8216
 21
-74.69148
 31
0.0
  0
ARC
  5
1560
100
AcDbEntity
  8
0
100
AcDbCircle
 10
243.804068
 20
-75.59148
 30
0.0
 40
25.994025
100
AcDbArc
 50
1.984168
 51
14.195708
  0
ARC
  5
1561
100
AcDbEntity
  8
0
100
AcDbCircle
 10
281.665763
 20
-70.051411
 30
0.0
 40
4.856078
100
AcDbArc
 50
287.153568
 51
90.320759
  0
ARC
  5
1562
100
AcDbEntity
  8
0
100
AcDbCircle
 10
274.812633
 20
-70.986622
 30
0.0
 40
3.806078
100
AcDbArc
 50
283.243414
 51
82.606559
  0
ARC
  5
1563
100
AcDbEntity
  8
0
100
AcDbCircle
 10
276.261462
 20
-70.795366
 30
0.0
 40
4.426078
100
AcDbArc
 50
298.32587
 51
74.49604
  0
LINE
  5
1564
100
AcDbEntity
  8
0
100
AcDbLine
 10
266.998877
 20
-63.857332
 30
0.0
 11
272.275524
 21
-61.128727
 31
0.0
  0
ARC
  5
1565
100
AcDbEntity
  8
0
100
AcDbCircle
 10
243.804068
 20
-75.59148
 30
0.0
 40
25.994025
100
AcDbArc
 50
18.165361
 51
26.834639
  0
LINE
  5
1566
100
AcDbEntity
  8
0
100
AcDbLine
 10
287.086218
 20
-61.572463
 30
0.0
 11
284.322111
 21
-54.899319
 31
0.0
  0
LINE
  5
1567
100
AcDbEntity
  8
0
100
AcDbLine
 10
280.329508
 20
-56.963933
 30
0.0
 11
284.322111
 21
-54.899319
 31
0.0
  0
LINE
  5
1568
100
AcDbEntity
  8
0
100
AcDbLine
 10
278.031094
 20
-58.152465
 30
0.0
 11
280.337476
 21
-63.720562
 31
0.0
  0
LINE
  5
1569
100
AcDbEntity
  8
0
100
AcDbLine
 10
276.064739
 20
-65.080558
 30
0.0
 11
280.337476
 21
-63.720562
 31
0.0
  0
LINE
  5
156A
100
AcDbEntity
  8
0
100
AcDbLine
 10
277.444575
 20
-66.530344
 30
0.0
 11
281.638577
 21
-65.195409
 31
0.0
  0
LINE
  5
156B
100
AcDbEntity
  8
0
100
AcDbLine
 10
272.275524
 20
-61.128727
 30
0.0
 11
274.163138
 21
-65.685831
 31
0.0
  0
LINE
  5
156C
100
AcDbEntity
  8
0
100
AcDbLine
 10
274.048151
 20
-60.212084
 30
0.0
 11
276.064739
 21
-65.080558
 31
0.0
  0
LINE
  5
156D
100
AcDbEntity
  8
0
100
AcDbLine
 10
274.048151
 20
-60.212084
 30
0.0
 11
278.031094
 21
-58.152465
 31
0.0
  0
LINE
  5
156E
100
AcDbEntity
  8
0
100
AcDbLine
 10
269.004333
 20
-69.216841
 30
0.0
 11
275.302407
 21
-67.212187
 31
0.0
  0
LINE
  5
156F
100
AcDbEntity
  8
0
100
AcDbLine
 10
268.50257
 20
-67.487568
 30
0.0
 11
274.163138
 21
-65.685831
 31
0.0
  0
LINE
  5
1570
100
AcDbEntity
  8
0
100
AcDbLine
 10
280.329508
 20
-56.963933
 30
0.0
 11
282.803118
 21
-62.935758
 31
0.0
  0
LINE
  5
1571
100
AcDbEntity
  8
0
100
AcDbLine
 10
282.803118
 20
-62.935758
 30
0.0
 11
287.086218
 21
-61.572463
 31
0.0
  0
LINE
  5
1572
100
AcDbEntity
  8
0
100
AcDbLine
 10
284.306531
 20
-64.346209
 30
0.0
 11
288.744218
 21
-62.93371
 31
0.0
  0
LINE
  5
1573
100
AcDbEntity
  8
0
100
AcDbLine
 10
277.444575
 20
-84.652616
 30
0.0
 11
281.638577
 21
-85.98755
 31
0.0
  0
ARC
  5
1574
100
AcDbEntity
  8
0
100
AcDbCircle
 10
281.665763
 20
-81.131548
 30
0.0
 40
4.856078
100
AcDbArc
 50
269.679241
 51
72.846432
  0
LINE
  5
1575
100
AcDbEntity
  8
0
100
AcDbLine
 10
283.097984
 20
-76.49148
 30
0.0
 11
278.361573
 21
-76.49148
 31
0.0
  0
ARC
  5
1576
100
AcDbEntity
  8
0
100
AcDbCircle
 10
276.261462
 20
-80.387593
 30
0.0
 40
4.426078
100
AcDbArc
 50
285.50396
 51
61.67413
  0
ARC
  5
1577
100
AcDbEntity
  8
0
100
AcDbCircle
 10
274.812633
 20
-80.196337
 30
0.0
 40
3.806078
100
AcDbArc
 50
277.393441
 51
76.756586
  0
LINE
  5
1578
100
AcDbEntity
  8
0
100
AcDbLine
 10
283.097984
 20
-74.69148
 30
0.0
 11
278.361573
 21
-74.69148
 31
0.0
  0
ARC
  5
1579
100
AcDbEntity
  8
0
100
AcDbCircle
 10
243.804068
 20
-75.59148
 30
0.0
 40
25.994025
100
AcDbArc
 50
345.804292
 51
358.015832
  0
LINE
  5
157A
100
AcDbEntity
  8
0
100
AcDbLine
 10
275.684562
 20
-76.49148
 30
0.0
 11
269.782508
 21
-76.49148
 31
0.0
  0
LINE
  5
157B
100
AcDbEntity
  8
0
100
AcDbLine
 10
275.684562
 20
-74.69148
 30
0.0
 11
269.782508
 21
-74.69148
 31
0.0
  0
LINE
  5
157D
100
AcDbEntity
  8
0
100
AcDbLine
 10
269.004333
 20
-81.966118
 30
0.0
 11
275.302407
 21
-83.970772
 31
0.0
  0
LINE
  5
157F
100
AcDbEntity
  8
0
100
AcDbLine
 10
284.306531
 20
-86.83675
 30
0.0
 11
288.744218
 21
-88.249249
 31
0.0
  0
ARC
  5
1581
100
AcDbEntity
  8
0
100
AcDbCircle
 10
299.677828
 20
-67.283393
 30
0.0
 40
9.251078
100
AcDbArc
 50
296.094882
 51
354.784344
  0
ARC
  5
1582
100
AcDbEntity
  8
0
100
AcDbCircle
 10
298.293066
 20
-67.489393
 30
0.0
 40
7.406078
100
AcDbArc
 50
283.478808
 51
95.399694
  0
ARC
  5
1583
100
AcDbEntity
  8
0
100
AcDbCircle
 10
291.551249
 20
-68.574433
 30
0.0
 40
6.806078
100
AcDbArc
 50
296.004157
 51
83.837431
  0
ARC
  5
1584
100
AcDbEntity
  8
0
100
AcDbCircle
 10
308.629831
 20
-65.947853
 30
0.0
 40
2.192072
100
AcDbArc
 50
276.832176
 51
100.13844
  0
ARC
  5
1585
100
AcDbEntity
  8
0
100
AcDbCircle
 10
299.661647
 20
-67.24345
 30
0.0
 40
9.251078
100
AcDbArc
 50
21.919361
 51
102.810246
  0
LINE
  5
1586
100
AcDbEntity
  8
0
100
AcDbLine
 10
290.829313
 20
-60.38105
 30
0.0
 11
297.610471
 21
-58.222633
 31
0.0
  0
LINE
  5
1587
100
AcDbEntity
  8
0
100
AcDbLine
 10
292.281881
 20
-61.807685
 30
0.0
 11
297.596132
 21
-60.116179
 31
0.0
  0
ARC
  5
1588
100
AcDbEntity
  8
0
100
AcDbCircle
 10
308.629831
 20
-85.235106
 30
0.0
 40
2.192072
100
AcDbArc
 50
259.86156
 51
83.167824
  0
ARC
  5
1589
100
AcDbEntity
  8
0
100
AcDbCircle
 10
291.551249
 20
-82.608526
 30
0.0
 40
6.806078
100
AcDbArc
 50
276.162569
 51
63.995843
  0
ARC
  5
158A
100
AcDbEntity
  8
0
100
AcDbCircle
 10
298.293066
 20
-83.693566
 30
0.0
 40
7.406078
100
AcDbArc
 50
264.600306
 51
76.521192
  0
LINE
  5
158B
100
AcDbEntity
  8
0
100
AcDbLine
 10
300.019317
 20
-76.49148
 30
0.0
 11
294.535282
 21
-76.49148
 31
0.0
  0
LINE
  5
158C
100
AcDbEntity
  8
0
100
AcDbLine
 10
300.019317
 20
-74.69148
 30
0.0
 11
294.535282
 21
-74.69148
 31
0.0
  0
ARC
  5
158D
100
AcDbEntity
  8
0
100
AcDbCircle
 10
299.677828
 20
-83.899567
 30
0.0
 40
9.251078
100
AcDbArc
 50
5.215656
 51
63.905118
  0
ARC
  5
158E
100
AcDbEntity
  8
0
100
AcDbCircle
 10
299.661647
 20
-83.939509
 30
0.0
 40
9.251078
100
AcDbArc
 50
257.189754
 51
338.080639
  0
LINE
  5
158F
100
AcDbEntity
  8
0
100
AcDbLine
 10
292.281881
 20
-89.375274
 30
0.0
 11
297.596132
 21
-91.06678
 31
0.0
  0
LINE
  5
1590
100
AcDbEntity
  8
0
100
AcDbLine
 10
290.829313
 20
-90.801909
 30
0.0
 11
297.610471
 21
-92.960326
 31
0.0
  0
LINE
  5
1591
100
AcDbEntity
  8
0
100
AcDbLine
 10
277.643088
 20
-43.025251
 30
0.0
 11
274.151346
 21
-46.516994
 31
0.0
  0
ARC
  5
1592
100
AcDbEntity
  8
0
100
AcDbCircle
 10
275.965731
 20
-51.683757
 30
0.0
 40
5.476078
100
AcDbArc
 50
323.986994
 51
109.349483
  0
ARC
  5
1593
100
AcDbEntity
  8
0
100
AcDbCircle
 10
280.785652
 20
-48.108342
 30
0.0
 40
5.976078
100
AcDbArc
 50
308.820454
 51
121.725967
  0
LINE
  5
1594
100
AcDbEntity
  8
0
100
AcDbLine
 10
259.014497
 20
-28.566234
 30
0.0
 11
266.30054
 21
-31.584212
 31
0.0
  0
ARC
  5
1595
100
AcDbEntity
  8
0
100
AcDbCircle
 10
271.287206
 20
-38.609895
 30
0.0
 40
5.976078
100
AcDbArc
 50
328.274033
 51
141.179546
  0
ARC
  5
1596
100
AcDbEntity
  8
0
100
AcDbCircle
 10
267.711791
 20
-43.429816
 30
0.0
 40
5.476078
100
AcDbArc
 50
340.650517
 51
126.013006
  0
LINE
  5
1597
100
AcDbEntity
  8
0
100
AcDbLine
 10
276.370296
 20
-41.752459
 30
0.0
 11
272.878553
 21
-45.244202
 31
0.0
  0
ARC
  5
1598
100
AcDbEntity
  8
0
100
AcDbCircle
 10
243.804068
 20
-75.59148
 30
0.0
 40
25.994025
100
AcDbArc
 50
46.984168
 51
59.195708
  0
ARC
  5
1599
100
AcDbEntity
  8
0
100
AcDbCircle
 10
266.658909
 20
-44.901798
 30
0.0
 40
4.856078
100
AcDbArc
 50
332.153568
 51
135.320759
  0
ARC
  5
159A
100
AcDbEntity
  8
0
100
AcDbCircle
 10
262.474309
 20
-50.408986
 30
0.0
 40
3.806078
100
AcDbArc
 50
328.243414
 51
127.606559
  0
ARC
  5
159B
100
AcDbEntity
  8
0
100
AcDbCircle
 10
263.363547
 20
-49.249271
 30
0.0
 40
4.426078
100
AcDbArc
 50
343.32587
 51
119.49604
  0
ARC
  5
159D
100
AcDbEntity
  8
0
100
AcDbCircle
 10
243.804068
 20
-75.59148
 30
0.0
 40
25.994025
100
AcDbArc
 50
63.165361
 51
71.834639
  0
LINE
  5
159E
100
AcDbEntity
  8
0
100
AcDbLine
 10
264.496228
 20
-35.073436
 30
0.0
 11
257.823084
 21
-32.30933
 31
0.0
  0
LINE
  5
15A0
100
AcDbEntity
  8
0
100
AcDbLine
 10
255.674985
 20
-39.058072
 30
0.0
 11
261.243082
 21
-41.364453
 31
0.0
  0
LINE
  5
15A1
100
AcDbEntity
  8
0
100
AcDbLine
 10
259.183464
 20
-45.347396
 30
0.0
 11
261.243082
 21
-41.364453
 31
0.0
  0
LINE
  5
15A2
100
AcDbEntity
  8
0
100
AcDbLine
 10
261.184308
 20
-45.396858
 30
0.0
 11
263.205974
 21
-41.487309
 31
0.0
  0
LINE
  5
15A3
100
AcDbEntity
  8
0
100
AcDbLine
 10
253.709717
 20
-45.232409
 30
0.0
 11
258.266821
 21
-47.120024
 31
0.0
  0
LINE
  5
15A4
100
AcDbEntity
  8
0
100
AcDbLine
 10
254.314989
 20
-43.330808
 30
0.0
 11
259.183464
 21
-45.347396
 31
0.0
  0
LINE
  5
15A6
100
AcDbEntity
  8
0
100
AcDbLine
 10
257.115796
 20
-53.264651
 30
0.0
 11
260.151703
 21
-47.393736
 31
0.0
  0
LINE
  5
15A7
100
AcDbEntity
  8
0
100
AcDbLine
 10
255.538215
 20
-52.396671
 30
0.0
 11
258.266821
 21
-47.120024
 31
0.0
  0
LINE
  5
15A8
100
AcDbEntity
  8
0
100
AcDbLine
 10
256.45979
 20
-36.592429
 30
0.0
 11
262.431614
 21
-39.06604
 31
0.0
  0
LINE
  5
15A9
100
AcDbEntity
  8
0
100
AcDbLine
 10
262.431614
 20
-39.06604
 30
0.0
 11
264.496228
 21
-35.073436
 31
0.0
  0
LINE
  5
15AA
100
AcDbEntity
  8
0
100
AcDbLine
 10
264.492027
 20
-39.000306
 30
0.0
 11
266.631158
 21
-34.8636
 31
0.0
  0
LINE
  5
15AB
100
AcDbEntity
  8
0
100
AcDbLine
 10
273.998689
 20
-58.21124
 30
0.0
 11
277.908238
 21
-56.189574
 31
0.0
  0
ARC
  5
15AC
100
AcDbEntity
  8
0
100
AcDbCircle
 10
274.493749
 20
-52.736639
 30
0.0
 40
4.856078
100
AcDbArc
 50
314.679241
 51
117.846432
  0
LINE
  5
15AD
100
AcDbEntity
  8
0
100
AcDbLine
 10
272.225459
 20
-48.442881
 30
0.0
 11
268.87631
 21
-51.792029
 31
0.0
  0
ARC
  5
15AE
100
AcDbEntity
  8
0
100
AcDbCircle
 10
270.146276
 20
-56.032001
 30
0.0
 40
4.426078
100
AcDbArc
 50
330.50396
 51
106.67413
  0
ARC
  5
15AF
100
AcDbEntity
  8
0
100
AcDbCircle
 10
268.986561
 20
-56.921239
 30
0.0
 40
3.806078
100
AcDbArc
 50
322.393441
 51
121.756586
  0
LINE
  5
15B0
100
AcDbEntity
  8
0
100
AcDbLine
 10
270.952667
 20
-47.170089
 30
0.0
 11
267.603518
 21
-50.519237
 31
0.0
  0
ARC
  5
15B1
100
AcDbEntity
  8
0
100
AcDbCircle
 10
243.804068
 20
-75.59148
 30
0.0
 40
25.994025
100
AcDbArc
 50
30.804292
 51
43.015832
  0
LINE
  5
15B2
100
AcDbEntity
  8
0
100
AcDbLine
 10
266.983378
 20
-53.684962
 30
0.0
 11
262.809995
 21
-57.858344
 31
0.0
  0
LINE
  5
15B3
100
AcDbEntity
  8
0
100
AcDbLine
 10
265.710585
 20
-52.41217
 30
0.0
 11
261.537203
 21
-56.585552
 31
0.0
  0
LINE
  5
15B5
100
AcDbEntity
  8
0
100
AcDbLine
 10
266.130896
 20
-62.279752
 30
0.0
 11
272.001812
 21
-59.243844
 31
0.0
  0
LINE
  5
15B7
100
AcDbEntity
  8
0
100
AcDbLine
 10
280.395241
 20
-54.903521
 30
0.0
 11
284.531948
 21
-52.764389
 31
0.0
  0
ARC
  5
15B9
100
AcDbEntity
  8
0
100
AcDbCircle
 10
277.438078
 20
-30.20806
 30
0.0
 40
9.251078
100
AcDbArc
 50
341.094882
 51
39.784344
  0
ARC
  5
15BA
100
AcDbEntity
  8
0
100
AcDbCircle
 10
276.604568
 20
-31.332899
 30
0.0
 40
7.406078
100
AcDbArc
 50
328.478808
 51
140.399694
  0
ARC
  5
15BB
100
AcDbEntity
  8
0
100
AcDbCircle
 10
272.604623
 20
-36.867323
 30
0.0
 40
6.806078
100
AcDbArc
 50
341.004157
 51
128.837431
  0
ARC
  5
15BC
100
AcDbEntity
  8
0
100
AcDbCircle
 10
282.823731
 20
-22.93367
 30
0.0
 40
2.192072
100
AcDbArc
 50
321.832176
 51
145.13844
  0
ARC
  5
15BD
100
AcDbEntity
  8
0
100
AcDbCircle
 10
277.398392
 20
-30.191258
 30
0.0
 40
9.251078
100
AcDbArc
 50
66.919361
 51
147.810246
  0
LINE
  5
15BE
100
AcDbEntity
  8
0
100
AcDbLine
 10
266.30054
 20
-31.584212
 30
0.0
 11
269.569312
 21
-25.262978
 31
0.0
  0
LINE
  5
15BF
100
AcDbEntity
  8
0
100
AcDbLine
 10
268.336444
 20
-31.565875
 30
0.0
 11
270.898112
 21
-26.612056
 31
0.0
  0
ARC
  5
15C0
100
AcDbEntity
  8
0
100
AcDbCircle
 10
296.461878
 20
-36.571816
 30
0.0
 40
2.192072
100
AcDbArc
 50
304.86156
 51
128.167824
  0
ARC
  5
15C1
100
AcDbEntity
  8
0
100
AcDbCircle
 10
282.528225
 20
-46.790925
 30
0.0
 40
6.806078
100
AcDbArc
 50
321.162569
 51
108.995843
  0
ARC
  5
15C2
100
AcDbEntity
  8
0
100
AcDbCircle
 10
288.062649
 20
-42.79098
 30
0.0
 40
7.406078
100
AcDbArc
 50
309.600306
 51
121.521192
  0
LINE
  5
15C3
100
AcDbEntity
  8
0
100
AcDbLine
 10
284.190648
 20
-36.477692
 30
0.0
 11
280.312849
 21
-40.35549
 31
0.0
  0
LINE
  5
15C4
100
AcDbEntity
  8
0
100
AcDbLine
 10
282.917856
 20
-35.204899
 30
0.0
 11
279.040057
 21
-39.082698
 31
0.0
  0
ARC
  5
15C5
100
AcDbEntity
  8
0
100
AcDbCircle
 10
289.187487
 20
-41.95747
 30
0.0
 40
9.251078
100
AcDbArc
 50
50.215656
 51
108.905118
  0
ARC
  5
15C6
100
AcDbEntity
  8
0
100
AcDbCircle
 10
289.204289
 20
-41.997155
 30
0.0
 40
9.251078
100
AcDbArc
 50
302.189754
 51
23.080639
  0
LINE
  5
15C7
100
AcDbEntity
  8
0
100
AcDbLine
 10
287.829673
 20
-51.059104
 30
0.0
 11
292.783491
 21
-48.497436
 31
0.0
  0
LINE
  5
15C8
100
AcDbEntity
  8
0
100
AcDbLine
 10
287.811336
 20
-53.095007
 30
0.0
 11
294.13257
 21
-49.826236
 31
0.0
  0
LINE
  5
1A72
100
AcDbEntity
  8
0
100
AcDbLine
 10
391.269367
 20
-26.84947
 30
0.0
 11
389.911212
 21
-22.582517
 31
0.0
  0
ARC
  5
1A73
100
AcDbEntity
  8
0
100
AcDbCircle
 10
401.826509
 20
-19.7339
 30
0.0
 40
12.251078
100
AcDbArc
 50
120.64103
 51
193.445461
  0
ARC
  5
1A74
100
AcDbEntity
  8
0
100
AcDbCircle
 10
400.530913
 20
-10.765717
 30
0.0
 40
5.192072
100
AcDbArc
 50
34.490596
 51
162.371754
  0
ARC
  5
1A75
100
AcDbEntity
  8
0
100
AcDbCircle
 10
401.866452
 20
-19.71772
 30
0.0
 40
12.251078
100
AcDbArc
 50
47.300638
 51
76.096082
  0
ARC
  5
1A77
100
AcDbEntity
  8
0
100
AcDbCircle
 10
418.522569
 20
-19.7339
 30
0.0
 40
12.251078
100
AcDbArc
 50
346.554539
 51
59.35897
  0
LINE
  5
1A78
100
AcDbEntity
  8
0
100
AcDbLine
 10
429.079711
 20
-26.84947
 30
0.0
 11
430.437866
 21
-22.582517
 31
0.0
  0
LINE
  5
1A79
100
AcDbEntity
  8
0
100
AcDbLine
 10
431.272369
 20
-27.757699
 30
0.0
 11
429.079711
 21
-26.84947
 31
0.0
  0
ARC
  5
1A7A
100
AcDbEntity
  8
0
100
AcDbCircle
 10
418.482626
 20
-19.71772
 30
0.0
 40
12.251078
100
AcDbArc
 50
103.903918
 51
132.699362
  0
ARC
  5
1A7B
100
AcDbEntity
  8
0
100
AcDbCircle
 10
419.818165
 20
-10.765717
 30
0.0
 40
5.192072
100
AcDbArc
 50
17.628246
 51
145.509404
  0
ARC
  5
1A7C
100
AcDbEntity
  8
0
100
AcDbCircle
 10
364.774317
 20
-41.997155
 30
0.0
 40
12.251078
100
AcDbArc
 50
165.64103
 51
238.445461
  0
LINE
  5
1A7D
100
AcDbEntity
  8
0
100
AcDbLine
 10
362.340758
 20
-54.493649
 30
0.0
 11
358.363206
 21
-52.436819
 31
0.0
  0
ARC
  5
1A7E
100
AcDbEntity
  8
0
100
AcDbCircle
 10
371.154876
 20
-22.93367
 30
0.0
 40
5.192072
100
AcDbArc
 50
62.628246
 51
190.509404
  0
ARC
  5
1A7F
100
AcDbEntity
  8
0
100
AcDbCircle
 10
364.791119
 20
-41.95747
 30
0.0
 40
12.251078
100
AcDbArc
 50
92.300638
 51
121.096082
  0
ARC
  5
1A80
100
AcDbEntity
  8
0
100
AcDbCircle
 10
357.516729
 20
-36.571816
 30
0.0
 40
5.192072
100
AcDbArc
 50
79.490596
 51
207.371754
  0
ARC
  5
1A81
100
AcDbEntity
  8
0
100
AcDbCircle
 10
376.540529
 20
-30.20806
 30
0.0
 40
12.251078
100
AcDbArc
 50
148.903918
 51
177.699362
  0
ARC
  5
1A82
100
AcDbEntity
  8
0
100
AcDbCircle
 10
376.580214
 20
-30.191258
 30
0.0
 40
12.251078
100
AcDbArc
 50
31.554539
 51
104.35897
  0
LINE
  5
1A83
100
AcDbEntity
  8
0
100
AcDbLine
 10
389.076708
 20
-27.757699
 30
0.0
 11
387.019878
 21
-23.780147
 31
0.0
  0
LINE
  5
1A84
100
AcDbEntity
  8
0
100
AcDbLine
 10
391.269367
 20
-26.84947
 30
0.0
 11
389.076708
 21
-27.757699
 31
0.0
  0
ARC
  5
1A85
100
AcDbEntity
  8
0
100
AcDbCircle
 10
354.31696
 20
-83.939509
 30
0.0
 40
12.251078
100
AcDbArc
 50
210.64103
 51
283.445461
  0
LINE
  5
1A86
100
AcDbEntity
  8
0
100
AcDbLine
 10
361.432529
 20
-94.496652
 30
0.0
 11
357.165576
 21
-95.854806
 31
0.0
  0
ARC
  5
1A87
100
AcDbEntity
  8
0
100
AcDbCircle
 10
345.348776
 20
-65.947853
 30
0.0
 40
5.192072
100
AcDbArc
 50
107.628246
 51
235.509404
  0
ARC
  5
1A88
100
AcDbEntity
  8
0
100
AcDbCircle
 10
354.300779
 20
-83.899567
 30
0.0
 40
12.251078
100
AcDbArc
 50
137.300638
 51
166.096082
  0
ARC
  5
1A89
100
AcDbEntity
  8
0
100
AcDbCircle
 10
345.348776
 20
-85.235106
 30
0.0
 40
5.192072
100
AcDbArc
 50
124.490596
 51
252.371754
  0
ARC
  5
1A8A
100
AcDbEntity
  8
0
100
AcDbCircle
 10
354.300779
 20
-67.283393
 30
0.0
 40
12.251078
100
AcDbArc
 50
193.903918
 51
222.699362
  0
ARC
  5
1A8B
100
AcDbEntity
  8
0
100
AcDbCircle
 10
354.31696
 20
-67.24345
 30
0.0
 40
12.251078
100
AcDbArc
 50
76.554539
 51
149.35897
  0
LINE
  5
1A8C
100
AcDbEntity
  8
0
100
AcDbLine
 10
361.432529
 20
-56.686308
 30
0.0
 11
357.165576
 21
-55.328153
 31
0.0
  0
LINE
  5
1A8D
100
AcDbEntity
  8
0
100
AcDbLine
 10
362.340758
 20
-54.493649
 30
0.0
 11
361.432529
 21
-56.686308
 31
0.0
  0
ARC
  5
1A8E
100
AcDbEntity
  8
0
100
AcDbCircle
 10
376.580214
 20
-120.991701
 30
0.0
 40
12.251078
100
AcDbArc
 50
255.64103
 51
328.445461
  0
LINE
  5
1A8F
100
AcDbEntity
  8
0
100
AcDbLine
 10
389.076708
 20
-123.42526
 30
0.0
 11
387.019878
 21
-127.402812
 31
0.0
  0
ARC
  5
1A90
100
AcDbEntity
  8
0
100
AcDbCircle
 10
357.516729
 20
-114.611143
 30
0.0
 40
5.192072
100
AcDbArc
 50
152.628246
 51
280.509404
  0
ARC
  5
1A91
100
AcDbEntity
  8
0
100
AcDbCircle
 10
376.540529
 20
-120.974899
 30
0.0
 40
12.251078
100
AcDbArc
 50
182.300638
 51
211.096082
  0
ARC
  5
1A92
100
AcDbEntity
  8
0
100
AcDbCircle
 10
371.154876
 20
-128.249289
 30
0.0
 40
5.192072
100
AcDbArc
 50
169.490596
 51
297.371754
  0
ARC
  5
1A93
100
AcDbEntity
  8
0
100
AcDbCircle
 10
364.791119
 20
-109.225489
 30
0.0
 40
12.251078
100
AcDbArc
 50
238.903918
 51
267.699362
  0
ARC
  5
1A94
100
AcDbEntity
  8
0
100
AcDbCircle
 10
364.774317
 20
-109.185804
 30
0.0
 40
12.251078
100
AcDbArc
 50
121.554539
 51
194.35897
  0
LINE
  5
1A95
100
AcDbEntity
  8
0
100
AcDbLine
 10
362.340758
 20
-96.68931
 30
0.0
 11
358.363206
 21
-98.74614
 31
0.0
  0
LINE
  5
1A96
100
AcDbEntity
  8
0
100
AcDbLine
 10
361.432529
 20
-94.496652
 30
0.0
 11
362.340758
 21
-96.68931
 31
0.0
  0
ARC
  5
1A97
100
AcDbEntity
  8
0
100
AcDbCircle
 10
418.522569
 20
-131.449059
 30
0.0
 40
12.251078
100
AcDbArc
 50
300.64103
 51
13.445461
  0
LINE
  5
1A98
100
AcDbEntity
  8
0
100
AcDbLine
 10
429.079711
 20
-124.333489
 30
0.0
 11
430.437866
 21
-128.600442
 31
0.0
  0
ARC
  5
1A99
100
AcDbEntity
  8
0
100
AcDbCircle
 10
400.530913
 20
-140.417242
 30
0.0
 40
5.192072
100
AcDbArc
 50
197.628246
 51
325.509404
  0
ARC
  5
1A9A
100
AcDbEntity
  8
0
100
AcDbCircle
 10
418.482626
 20
-131.465239
 30
0.0
 40
12.251078
100
AcDbArc
 50
227.300638
 51
256.096082
  0
ARC
  5
1A9B
100
AcDbEntity
  8
0
100
AcDbCircle
 10
419.818165
 20
-140.417242
 30
0.0
 40
5.192072
100
AcDbArc
 50
214.490596
 51
342.371754
  0
ARC
  5
1A9C
100
AcDbEntity
  8
0
100
AcDbCircle
 10
401.866452
 20
-131.465239
 30
0.0
 40
12.251078
100
AcDbArc
 50
283.903918
 51
312.699362
  0
ARC
  5
1A9D
100
AcDbEntity
  8
0
100
AcDbCircle
 10
401.826509
 20
-131.449059
 30
0.0
 40
12.251078
100
AcDbArc
 50
166.554539
 51
239.35897
  0
LINE
  5
1A9E
100
AcDbEntity
  8
0
100
AcDbLine
 10
391.269367
 20
-124.333489
 30
0.0
 11
389.911212
 21
-128.600442
 31
0.0
  0
LINE
  5
1A9F
100
AcDbEntity
  8
0
100
AcDbLine
 10
389.076708
 20
-123.42526
 30
0.0
 11
391.269367
 21
-124.333489
 31
0.0
  0
ARC
  5
1AA0
100
AcDbEntity
  8
0
100
AcDbCircle
 10
455.57476
 20
-109.185804
 30
0.0
 40
12.251078
100
AcDbArc
 50
345.64103
 51
58.445461
  0
LINE
  5
1AA1
100
AcDbEntity
  8
0
100
AcDbLine
 10
458.00832
 20
-96.68931
 30
0.0
 11
461.985871
 21
-98.74614
 31
0.0
  0
ARC
  5
1AA2
100
AcDbEntity
  8
0
100
AcDbCircle
 10
449.194202
 20
-128.249289
 30
0.0
 40
5.192072
100
AcDbArc
 50
242.628246
 51
10.509404
  0
ARC
  5
1AA3
100
AcDbEntity
  8
0
100
AcDbCircle
 10
455.557958
 20
-109.225489
 30
0.0
 40
12.251078
100
AcDbArc
 50
272.300638
 51
301.096082
  0
ARC
  5
1AA4
100
AcDbEntity
  8
0
100
AcDbCircle
 10
462.832349
 20
-114.611143
 30
0.0
 40
5.192072
100
AcDbArc
 50
259.490596
 51
27.371754
  0
ARC
  5
1AA5
100
AcDbEntity
  8
0
100
AcDbCircle
 10
443.808549
 20
-120.974899
 30
0.0
 40
12.251078
100
AcDbArc
 50
328.903918
 51
357.699362
  0
ARC
  5
1AA6
100
AcDbEntity
  8
0
100
AcDbCircle
 10
443.768863
 20
-120.991701
 30
0.0
 40
12.251078
100
AcDbArc
 50
211.554539
 51
284.35897
  0
LINE
  5
1AA7
100
AcDbEntity
  8
0
100
AcDbLine
 10
431.272369
 20
-123.42526
 30
0.0
 11
433.3292
 21
-127.402812
 31
0.0
  0
LINE
  5
1AA8
100
AcDbEntity
  8
0
100
AcDbLine
 10
429.079711
 20
-124.333489
 30
0.0
 11
431.272369
 21
-123.42526
 31
0.0
  0
ARC
  5
1AA9
100
AcDbEntity
  8
0
100
AcDbCircle
 10
466.032118
 20
-67.24345
 30
0.0
 40
12.251078
100
AcDbArc
 50
30.64103
 51
103.445461
  0
LINE
  5
1AAA
100
AcDbEntity
  8
0
100
AcDbLine
 10
458.916548
 20
-56.686308
 30
0.0
 11
463.183501
 21
-55.328153
 31
0.0
  0
ARC
  5
1AAB
100
AcDbEntity
  8
0
100
AcDbCircle
 10
475.000301
 20
-85.235106
 30
0.0
 40
5.192072
100
AcDbArc
 50
287.628246
 51
55.509404
  0
ARC
  5
1AAC
100
AcDbEntity
  8
0
100
AcDbCircle
 10
466.048299
 20
-67.283393
 30
0.0
 40
12.251078
100
AcDbArc
 50
317.300638
 51
346.096082
  0
ARC
  5
1AAD
100
AcDbEntity
  8
0
100
AcDbCircle
 10
475.000301
 20
-65.947853
 30
0.0
 40
5.192072
100
AcDbArc
 50
304.490596
 51
72.371754
  0
ARC
  5
1AAE
100
AcDbEntity
  8
0
100
AcDbCircle
 10
466.048299
 20
-83.899567
 30
0.0
 40
12.251078
100
AcDbArc
 50
13.903918
 51
42.699362
  0
ARC
  5
1AAF
100
AcDbEntity
  8
0
100
AcDbCircle
 10
466.032118
 20
-83.939509
 30
0.0
 40
12.251078
100
AcDbArc
 50
256.554539
 51
329.35897
  0
LINE
  5
1AB0
100
AcDbEntity
  8
0
100
AcDbLine
 10
458.916548
 20
-94.496652
 30
0.0
 11
463.183501
 21
-95.854806
 31
0.0
  0
LINE
  5
1AB1
100
AcDbEntity
  8
0
100
AcDbLine
 10
458.00832
 20
-96.68931
 30
0.0
 11
458.916548
 21
-94.496652
 31
0.0
  0
ARC
  5
1AB2
100
AcDbEntity
  8
0
100
AcDbCircle
 10
443.768863
 20
-30.191258
 30
0.0
 40
12.251078
100
AcDbArc
 50
75.64103
 51
148.445461
  0
LINE
  5
1AB3
100
AcDbEntity
  8
0
100
AcDbLine
 10
431.272369
 20
-27.757699
 30
0.0
 11
433.3292
 21
-23.780147
 31
0.0
  0
ARC
  5
1AB4
100
AcDbEntity
  8
0
100
AcDbCircle
 10
462.832349
 20
-36.571816
 30
0.0
 40
5.192072
100
AcDbArc
 50
332.628246
 51
100.509404
  0
ARC
  5
1AB5
100
AcDbEntity
  8
0
100
AcDbCircle
 10
443.808549
 20
-30.20806
 30
0.0
 40
12.251078
100
AcDbArc
 50
2.300638
 51
31.096082
  0
ARC
  5
1AB6
100
AcDbEntity
  8
0
100
AcDbCircle
 10
449.194202
 20
-22.93367
 30
0.0
 40
5.192072
100
AcDbArc
 50
349.490596
 51
117.371754
  0
ARC
  5
1AB7
100
AcDbEntity
  8
0
100
AcDbCircle
 10
455.557958
 20
-41.95747
 30
0.0
 40
12.251078
100
AcDbArc
 50
58.903918
 51
87.699362
  0
ARC
  5
1AB8
100
AcDbEntity
  8
0
100
AcDbCircle
 10
455.57476
 20
-41.997155
 30
0.0
 40
12.251078
100
AcDbArc
 50
301.554539
 51
14.35897
  0
LINE
  5
1AB9
100
AcDbEntity
  8
0
100
AcDbLine
 10
458.00832
 20
-54.493649
 30
0.0
 11
461.985871
 21
-52.436819
 31
0.0
  0
LINE
  5
1ABA
100
AcDbEntity
  8
0
100
AcDbLine
 10
458.916548
 20
-56.686308
 30
0.0
 11
458.00832
 21
-54.493649
 31
0.0
  0
ARC
  5
1B09
100
AcDbEntity
  8
0
100
AcDbCircle
 10
567.347331
 20
-10.765717
 30
0.0
 40
8.192072
100
AcDbArc
 50
42.783299
 51
154.052703
  0
ARC
  5
1B0A
100
AcDbEntity
  8
0
100
AcDbCircle
 10
568.68287
 20
-19.71772
 30
0.0
 40
15.251078
100
AcDbArc
 50
56.992141
 51
72.142116
  0
ARC
  5
1B0B
100
AcDbEntity
  8
0
100
AcDbCircle
 10
585.299044
 20
-19.71772
 30
0.0
 40
15.251078
100
AcDbArc
 50
107.857884
 51
123.007859
  0
ARC
  5
1B0C
100
AcDbEntity
  8
0
100
AcDbCircle
 10
586.634583
 20
-10.765717
 30
0.0
 40
8.192072
100
AcDbArc
 50
25.947297
 51
137.216701
  0
ARC
  5
1B0D
100
AcDbEntity
  8
0
100
AcDbCircle
 10
585.338987
 20
-19.7339
 30
0.0
 40
15.251078
100
AcDbArc
 50
3.877804
 51
55.392458
  0
ARC
  5
1B0F
100
AcDbEntity
  8
0
100
AcDbCircle
 10
568.642927
 20
-19.7339
 30
0.0
 40
15.251078
100
AcDbArc
 50
124.607542
 51
176.122196
  0
ARC
  5
1B11
100
AcDbEntity
  8
0
100
AcDbCircle
 10
543.356947
 20
-30.20806
 30
0.0
 40
15.251078
100
AcDbArc
 50
152.857884
 51
168.007859
  0
ARC
  5
1B12
100
AcDbEntity
  8
0
100
AcDbCircle
 10
531.590736
 20
-41.997155
 30
0.0
 40
15.251078
100
AcDbArc
 50
169.607542
 51
221.122196
  0
ARC
  5
1B13
100
AcDbEntity
  8
0
100
AcDbCircle
 10
524.333148
 20
-36.571816
 30
0.0
 40
8.192072
100
AcDbArc
 50
87.783299
 51
199.052703
  0
ARC
  5
1B14
100
AcDbEntity
  8
0
100
AcDbCircle
 10
531.607538
 20
-41.95747
 30
0.0
 40
15.251078
100
AcDbArc
 50
101.992141
 51
117.142116
  0
ARC
  5
1B15
100
AcDbEntity
  8
0
100
AcDbCircle
 10
543.396633
 20
-30.191258
 30
0.0
 40
15.251078
100
AcDbArc
 50
48.877804
 51
100.392458
  0
ARC
  5
1B16
100
AcDbEntity
  8
0
100
AcDbCircle
 10
537.971294
 20
-22.93367
 30
0.0
 40
8.192072
100
AcDbArc
 50
70.947297
 51
182.216701
  0
ARC
  5
1B17
100
AcDbEntity
  8
0
100
AcDbCircle
 10
521.117197
 20
-67.283393
 30
0.0
 40
15.251078
100
AcDbArc
 50
197.857884
 51
213.007859
  0
ARC
  5
1B18
100
AcDbEntity
  8
0
100
AcDbCircle
 10
521.133378
 20
-83.939509
 30
0.0
 40
15.251078
100
AcDbArc
 50
214.607542
 51
266.122196
  0
ARC
  5
1B19
100
AcDbEntity
  8
0
100
AcDbCircle
 10
512.165195
 20
-85.235106
 30
0.0
 40
8.192072
100
AcDbArc
 50
132.783299
 51
244.052703
  0
ARC
  5
1B1A
100
AcDbEntity
  8
0
100
AcDbCircle
 10
521.117197
 20
-83.899567
 30
0.0
 40
15.251078
100
AcDbArc
 50
146.992141
 51
162.142116
  0
ARC
  5
1B1B
100
AcDbEntity
  8
0
100
AcDbCircle
 10
521.133378
 20
-67.24345
 30
0.0
 40
15.251078
100
AcDbArc
 50
93.877804
 51
145.392458
  0
ARC
  5
1B1C
100
AcDbEntity
  8
0
100
AcDbCircle
 10
512.165195
 20
-65.947853
 30
0.0
 40
8.192072
100
AcDbArc
 50
115.947297
 51
227.216701
  0
ARC
  5
1B1D
100
AcDbEntity
  8
0
100
AcDbCircle
 10
531.607538
 20
-109.225489
 30
0.0
 40
15.251078
100
AcDbArc
 50
242.857884
 51
258.007859
  0
ARC
  5
1B1E
100
AcDbEntity
  8
0
100
AcDbCircle
 10
543.396633
 20
-120.991701
 30
0.0
 40
15.251078
100
AcDbArc
 50
259.607542
 51
311.122196
  0
ARC
  5
1B1F
100
AcDbEntity
  8
0
100
AcDbCircle
 10
537.971294
 20
-128.249289
 30
0.0
 40
8.192072
100
AcDbArc
 50
177.783299
 51
289.052703
  0
ARC
  5
1B20
100
AcDbEntity
  8
0
100
AcDbCircle
 10
543.356947
 20
-120.974899
 30
0.0
 40
15.251078
100
AcDbArc
 50
191.992141
 51
207.142116
  0
ARC
  5
1B21
100
AcDbEntity
  8
0
100
AcDbCircle
 10
531.590736
 20
-109.185804
 30
0.0
 40
15.251078
100
AcDbArc
 50
138.877804
 51
190.392458
  0
ARC
  5
1B22
100
AcDbEntity
  8
0
100
AcDbCircle
 10
524.333148
 20
-114.611143
 30
0.0
 40
8.192072
100
AcDbArc
 50
160.947297
 51
272.216701
  0
ARC
  5
1B23
100
AcDbEntity
  8
0
100
AcDbCircle
 10
568.68287
 20
-131.465239
 30
0.0
 40
15.251078
100
AcDbArc
 50
287.857884
 51
303.007859
  0
ARC
  5
1B24
100
AcDbEntity
  8
0
100
AcDbCircle
 10
585.338987
 20
-131.449059
 30
0.0
 40
15.251078
100
AcDbArc
 50
304.607542
 51
356.122196
  0
ARC
  5
1B25
100
AcDbEntity
  8
0
100
AcDbCircle
 10
586.634583
 20
-140.417242
 30
0.0
 40
8.192072
100
AcDbArc
 50
222.783299
 51
334.052703
  0
ARC
  5
1B26
100
AcDbEntity
  8
0
100
AcDbCircle
 10
585.299044
 20
-131.465239
 30
0.0
 40
15.251078
100
AcDbArc
 50
236.992141
 51
252.142116
  0
ARC
  5
1B27
100
AcDbEntity
  8
0
100
AcDbCircle
 10
568.642927
 20
-131.449059
 30
0.0
 40
15.251078
100
AcDbArc
 50
183.877804
 51
235.392458
  0
ARC
  5
1B28
100
AcDbEntity
  8
0
100
AcDbCircle
 10
567.347331
 20
-140.417242
 30
0.0
 40
8.192072
100
AcDbArc
 50
205.947297
 51
317.216701
  0
ARC
  5
1B29
100
AcDbEntity
  8
0
100
AcDbCircle
 10
610.624967
 20
-120.974899
 30
0.0
 40
15.251078
100
AcDbArc
 50
332.857884
 51
348.007859
  0
ARC
  5
1B2A
100
AcDbEntity
  8
0
100
AcDbCircle
 10
622.391179
 20
-109.185804
 30
0.0
 40
15.251078
100
AcDbArc
 50
349.607542
 51
41.122196
  0
ARC
  5
1B2B
100
AcDbEntity
  8
0
100
AcDbCircle
 10
629.648767
 20
-114.611143
 30
0.0
 40
8.192072
100
AcDbArc
 50
267.783299
 51
19.052703
  0
ARC
  5
1B2C
100
AcDbEntity
  8
0
100
AcDbCircle
 10
622.374377
 20
-109.225489
 30
0.0
 40
15.251078
100
AcDbArc
 50
281.992141
 51
297.142116
  0
ARC
  5
1B2D
100
AcDbEntity
  8
0
100
AcDbCircle
 10
610.585282
 20
-120.991701
 30
0.0
 40
15.251078
100
AcDbArc
 50
228.877804
 51
280.392458
  0
ARC
  5
1B2E
100
AcDbEntity
  8
0
100
AcDbCircle
 10
616.01062
 20
-128.249289
 30
0.0
 40
8.192072
100
AcDbArc
 50
250.947297
 51
2.216701
  0
ARC
  5
1B2F
100
AcDbEntity
  8
0
100
AcDbCircle
 10
632.864717
 20
-83.899567
 30
0.0
 40
15.251078
100
AcDbArc
 50
17.857884
 51
33.007859
  0
ARC
  5
1B30
100
AcDbEntity
  8
0
100
AcDbCircle
 10
632.848537
 20
-67.24345
 30
0.0
 40
15.251078
100
AcDbArc
 50
34.607542
 51
86.122196
  0
ARC
  5
1B31
100
AcDbEntity
  8
0
100
AcDbCircle
 10
641.81672
 20
-65.947853
 30
0.0
 40
8.192072
100
AcDbArc
 50
312.783299
 51
64.052703
  0
ARC
  5
1B32
100
AcDbEntity
  8
0
100
AcDbCircle
 10
632.864717
 20
-67.283393
 30
0.0
 40
15.251078
100
AcDbArc
 50
326.992141
 51
342.142116
  0
ARC
  5
1B33
100
AcDbEntity
  8
0
100
AcDbCircle
 10
632.848537
 20
-83.939509
 30
0.0
 40
15.251078
100
AcDbArc
 50
273.877804
 51
325.392458
  0
ARC
  5
1B34
100
AcDbEntity
  8
0
100
AcDbCircle
 10
641.81672
 20
-85.235106
 30
0.0
 40
8.192072
100
AcDbArc
 50
295.947297
 51
47.216701
  0
ARC
  5
1B35
100
AcDbEntity
  8
0
100
AcDbCircle
 10
622.374377
 20
-41.95747
 30
0.0
 40
15.251078
100
AcDbArc
 50
62.857884
 51
78.007859
  0
ARC
  5
1B36
100
AcDbEntity
  8
0
100
AcDbCircle
 10
610.585282
 20
-30.191258
 30
0.0
 40
15.251078
100
AcDbArc
 50
79.607542
 51
131.122196
  0
ARC
  5
1B37
100
AcDbEntity
  8
0
100
AcDbCircle
 10
616.01062
 20
-22.93367
 30
0.0
 40
8.192072
100
AcDbArc
 50
357.783299
 51
109.052703
  0
ARC
  5
1B38
100
AcDbEntity
  8
0
100
AcDbCircle
 10
610.624967
 20
-30.20806
 30
0.0
 40
15.251078
100
AcDbArc
 50
11.992141
 51
27.142116
  0
ARC
  5
1B39
100
AcDbEntity
  8
0
100
AcDbCircle
 10
622.391179
 20
-41.997155
 30
0.0
 40
15.251078
100
AcDbArc
 50
318.877804
 51
10.392458
  0
ARC
  5
1B3A
100
AcDbEntity
  8
0
100
AcDbCircle
 10
629.648767
 20
-36.571816
 30
0.0
 40
8.192072
100
AcDbArc
 50
340.947297
 51
92.216701
  0
ENDSEC
  0
SECTION
  2
OBJECTS
  0
DICTIONARY
  5
C
100
AcDbDictionary
  3
ACAD_GROUP
350
D
  3
ACAD_MLINESTYLE
350
1B
  0
DICTIONARY
  5
D
102
{ACAD_REACTORS
330
C
102
}
100
AcDbDictionary
  0
DICTIONARY
  5
1B
102
{ACAD_REACTORS
330
C
102
}
100
AcDbDictionary
  3
STANDARD
350
1C
  0
MLINESTYLE
  5
1C
102
{ACAD_REACTORS
330
1B
102
}
100
AcDbMlineStyle
  2
STANDARD
 70
     0
  3

 62
   256
 51
90.0
 52
90.0
 71
     2
 49
0.5
 62
   256
  6
BYLAYER
 49
-0.5
 62
   256
  6
BYLAYER
  0
ENDSEC
  0
EOF
