  0
SECTION
  2
HEADER
  9
$ACADVER
  1
AC1024
  9
$ACADMAINTVER
 70
     6
  9
$DWGCODEPAGE
  3
ANSI_1252
  9
$INSBASE
 10
0.0
 20
0.0
 30
0.0
  9
$EXTMIN
 10
1.000000000000000E+20
 20
1.000000000000000E+20
 30
1.000000000000000E+20
  9
$EXTMAX
 10
-1.000000000000000E+20
 20
-1.000000000000000E+20
 30
-1.000000000000000E+20
  9
$LIMMIN
 10
0.0
 20
0.0
  9
$LIMMAX
 10
12.0
 20
9.0
  9
$ORTHOMODE
 70
     0
  9
$REGENMODE
 70
     1
  9
$FILLMODE
 70
     1
  9
$QTEXTMODE
 70
     0
  9
$MIRRTEXT
 70
     1
  9
$LTSCALE
 40
1.0
  9
$ATTMODE
 70
     1
  9
$TEXTSIZE
 40
0.2
  9
$TRACEWID
 40
0.05
  9
$TEXTSTYLE
  7
Standard
  9
$CLAYER
  8
0
  9
$CELTYPE
  6
ByLayer
  9
$CECOLOR
 62
   256
  9
$CELTSCALE
 40
1.0
  9
$DISPSILH
 70
     0
  9
$DIMSCALE
 40
1.0
  9
$DIMASZ
 40
0.18
  9
$DIMEXO
 40
0.0625
  9
$DIMDLI
 40
0.38
  9
$DIMRND
 40
0.0
  9
$DIMDLE
 40
0.0
  9
$DIMEXE
 40
0.18
  9
$DIMTP
 40
0.0
  9
$DIMTM
 40
0.0
  9
$DIMTXT
 40
0.18
  9
$DIMCEN
 40
0.09
  9
$DIMTSZ
 40
0.0
  9
$DIMTOL
 70
     0
  9
$DIMLIM
 70
     0
  9
$DIMTIH
 70
     1
  9
$DIMTOH
 70
     1
  9
$DIMSE1
 70
     0
  9
$DIMSE2
 70
     0
  9
$DIMTAD
 70
     0
  9
$DIMZIN
 70
     0
  9
$DIMBLK
  1

  9
$DIMASO
 70
     1
  9
$DIMSHO
 70
     1
  9
$DIMPOST
  1

  9
$DIMAPOST
  1

  9
$DIMALT
 70
     0
  9
$DIMALTD
 70
     2
  9
$DIMALTF
 40
25.4
  9
$DIMLFAC
 40
1.0
  9
$DIMTOFL
 70
     0
  9
$DIMTVP
 40
0.0
  9
$DIMTIX
 70
     0
  9
$DIMSOXD
 70
     0
  9
$DIMSAH
 70
     0
  9
$DIMBLK1
  1

  9
$DIMBLK2
  1

  9
$DIMSTYLE
  2
Standard
  9
$DIMCLRD
 70
     0
  9
$DIMCLRE
 70
     0
  9
$DIMCLRT
 70
     0
  9
$DIMTFAC
 40
1.0
  9
$DIMGAP
 40
0.09
  9
$DIMJUST
 70
     0
  9
$DIMSD1
 70
     0
  9
$DIMSD2
 70
     0
  9
$DIMTOLJ
 70
     1
  9
$DIMTZIN
 70
     0
  9
$DIMALTZ
 70
     0
  9
$DIMALTTZ
 70
     0
  9
$DIMUPT
 70
     0
  9
$DIMDEC
 70
     4
  9
$DIMTDEC
 70
     4
  9
$DIMALTU
 70
     2
  9
$DIMALTTD
 70
     2
  9
$DIMTXSTY
  7
Standard
  9
$DIMAUNIT
 70
     0
  9
$DIMADEC
 70
     0
  9
$DIMALTRND
 40
0.0
  9
$DIMAZIN
 70
     0
  9
$DIMDSEP
 70
    46
  9
$DIMATFIT
 70
     3
  9
$DIMFRAC
 70
     0
  9
$DIMLDRBLK
  1

  9
$DIMLUNIT
 70
     2
  9
$DIMLWD
 70
    -2
  9
$DIMLWE
 70
    -2
  9
$DIMTMOVE
 70
     0
  9
$DIMFXL
 40
1.0
  9
$DIMFXLON
 70
     0
  9
$DIMJOGANG
 40
0.7853981633974483
  9
$DIMTFILL
 70
     0
  9
$DIMTFILLCLR
 70
     0
  9
$DIMARCSYM
 70
     0
  9
$DIMLTYPE
  6

  9
$DIMLTEX1
  6

  9
$DIMLTEX2
  6

  9
$DIMTXTDIRECTION
 70
     0
  9
$LUNITS
 70
     2
  9
$LUPREC
 70
     4
  9
$SKETCHINC
 40
0.1
  9
$FILLETRAD
 40
0.5
  9
$AUNITS
 70
     0
  9
$AUPREC
 70
     0
  9
$MENU
  1
.
  9
$ELEVATION
 40
0.0
  9
$PELEVATION
 40
0.0
  9
$THICKNESS
 40
0.0
  9
$LIMCHECK
 70
     0
  9
$CHAMFERA
 40
0.5
  9
$CHAMFERB
 40
0.5
  9
$CHAMFERC
 40
1.0
  9
$CHAMFERD
 40
0.0
  9
$SKPOLY
 70
     0
  9
$TDCREATE
 40
2459879.666472477
  9
$TDUCREATE
 40
2459879.416472477
  9
$TDUPDATE
 40
2459879.666472511
  9
$TDUUPDATE
 40
2459879.416472511
  9
$TDINDWG
 40
0.0000000116
  9
$TDUSRTIMER
 40
0.0000000116
  9
$USRTIMER
 70
     1
  9
$ANGBASE
 50
0.0
  9
$ANGDIR
 70
     0
  9
$PDMODE
 70
     0
  9
$PDSIZE
 40
0.0
  9
$PLINEWID
 40
0.0
  9
$SPLFRAME
 70
     0
  9
$SPLINETYPE
 70
     6
  9
$SPLINESEGS
 70
     8
  9
$HANDSEED
  5
4C
  9
$SURFTAB1
 70
     6
  9
$SURFTAB2
 70
     6
  9
$SURFTYPE
 70
     6
  9
$SURFU
 70
     6
  9
$SURFV
 70
     6
  9
$UCSBASE
  2

  9
$UCSNAME
  2

  9
$UCSORG
 10
0.0
 20
0.0
 30
0.0
  9
$UCSXDIR
 10
1.0
 20
0.0
 30
0.0
  9
$UCSYDIR
 10
0.0
 20
1.0
 30
0.0
  9
$UCSORTHOREF
  2

  9
$UCSORTHOVIEW
 70
     0
  9
$UCSORGTOP
 10
0.0
 20
0.0
 30
0.0
  9
$UCSORGBOTTOM
 10
0.0
 20
0.0
 30
0.0
  9
$UCSORGLEFT
 10
0.0
 20
0.0
 30
0.0
  9
$UCSORGRIGHT
 10
0.0
 20
0.0
 30
0.0
  9
$UCSORGFRONT
 10
0.0
 20
0.0
 30
0.0
  9
$UCSORGBACK
 10
0.0
 20
0.0
 30
0.0
  9
$PUCSBASE
  2

  9
$PUCSNAME
  2

  9
$PUCSORG
 10
0.0
 20
0.0
 30
0.0
  9
$PUCSXDIR
 10
1.0
 20
0.0
 30
0.0
  9
$PUCSYDIR
 10
0.0
 20
1.0
 30
0.0
  9
$PUCSORTHOREF
  2

  9
$PUCSORTHOVIEW
 70
     0
  9
$PUCSORGTOP
 10
0.0
 20
0.0
 30
0.0
  9
$PUCSORGBOTTOM
 10
0.0
 20
0.0
 30
0.0
  9
$PUCSORGLEFT
 10
0.0
 20
0.0
 30
0.0
  9
$PUCSORGRIGHT
 10
0.0
 20
0.0
 30
0.0
  9
$PUCSORGFRONT
 10
0.0
 20
0.0
 30
0.0
  9
$PUCSORGBACK
 10
0.0
 20
0.0
 30
0.0
  9
$USERI1
 70
     0
  9
$USERI2
 70
     0
  9
$USERI3
 70
     0
  9
$USERI4
 70
     0
  9
$USERI5
 70
     0
  9
$USERR1
 40
0.0
  9
$USERR2
 40
0.0
  9
$USERR3
 40
0.0
  9
$USERR4
 40
0.0
  9
$USERR5
 40
0.0
  9
$WORLDVIEW
 70
     1
  9
$SHADEDGE
 70
     3
  9
$SHADEDIF
 70
    70
  9
$TILEMODE
 70
     1
  9
$MAXACTVP
 70
    64
  9
$PINSBASE
 10
0.0
 20
0.0
 30
0.0
  9
$PLIMCHECK
 70
     0
  9
$PEXTMIN
 10
1.000000000000000E+20
 20
1.000000000000000E+20
 30
1.000000000000000E+20
  9
$PEXTMAX
 10
-1.000000000000000E+20
 20
-1.000000000000000E+20
 30
-1.000000000000000E+20
  9
$PLIMMIN
 10
0.0
 20
0.0
  9
$PLIMMAX
 10
12.0
 20
9.0
  9
$UNITMODE
 70
     0
  9
$VISRETAIN
 70
     1
  9
$PLINEGEN
 70
     0
  9
$PSLTSCALE
 70
     1
  9
$TREEDEPTH
 70
  3020
  9
$CMLSTYLE
  2
Standard
  9
$CMLJUST
 70
     0
  9
$CMLSCALE
 40
1.0
  9
$PROXYGRAPHICS
 70
     1
  9
$MEASUREMENT
 70
     0
  9
$CELWEIGHT
370
    -1
  9
$ENDCAPS
280
     0
  9
$JOINSTYLE
280
     0
  9
$LWDISPLAY
290
     1
  9
$INSUNITS
 70
     0
  9
$HYPERLINKBASE
  1

  9
$STYLESHEET
  1

  9
$XEDIT
290
     1
  9
$CEPSNTYPE
380
     0
  9
$PSTYLEMODE
290
     1
  9
$FINGERPRINTGUID
  2
{2E8FEDCC-302C-4FDF-B1E7-85EF5378CA7D}
  9
$VERSIONGUID
  2
{FAEB1C32-E019-11D5-929B-00C0DF256EC4}
  9
$EXTNAMES
290
     1
  9
$PSVPSCALE
 40
0.0
  9
$OLESTARTUP
290
     0
  9
$SORTENTS
280
   127
  9
$INDEXCTL
280
     0
  9
$HIDETEXT
280
     1
  9
$XCLIPFRAME
280
     2
  9
$HALOGAP
280
     0
  9
$OBSCOLOR
 70
   257
  9
$OBSLTYPE
280
     0
  9
$INTERSECTIONDISPLAY
280
     0
  9
$INTERSECTIONCOLOR
 70
   257
  9
$DIMASSOC
280
     2
  9
$PROJECTNAME
  1

  9
$CAMERADISPLAY
290
     0
  9
$LENSLENGTH
 40
50.0
  9
$CAMERAHEIGHT
 40
0.0
  9
$STEPSPERSEC
 40
2.0
  9
$STEPSIZE
 40
6.0
  9
$3DDWFPREC
 40
2.0
  9
$PSOLWIDTH
 40
0.25
  9
$PSOLHEIGHT
 40
4.0
  9
$LOFTANG1
 40
1.570796326794897
  9
$LOFTANG2
 40
1.570796326794897
  9
$LOFTMAG1
 40
0.0
  9
$LOFTMAG2
 40
0.0
  9
$LOFTPARAM
 70
     7
  9
$LOFTNORMALS
280
     1
  9
$LATITUDE
 40
37.795
  9
$LONGITUDE
 40
-122.394
  9
$NORTHDIRECTION
 40
0.0
  9
$TIMEZONE
 70
 -8000
  9
$LIGHTGLYPHDISPLAY
280
     1
  9
$TILEMODELIGHTSYNCH
280
     1
  9
$CMATERIAL
347
3C
  9
$SOLIDHIST
280
     1
  9
$SHOWHIST
280
     1
  9
$DWFFRAME
280
     2
  9
$DGNFRAME
280
     2
  9
$REALWORLDSCALE
290
     1
  9
$INTERFERECOLOR
 62
   256
  9
$CSHADOW
280
     0
  9
$SHADOWPLANELOCATION
 40
0.0
  0
ENDSEC
  0
SECTION
  2
CLASSES
  0
CLASS
  1
ACDBDICTIONARYWDFLT
  2
AcDbDictionaryWithDefault
  3
ObjectDBX Classes
 90
        0
 91
        4
280
     0
281
     0
  0
CLASS
  1
VISUALSTYLE
  2
AcDbVisualStyle
  3
ObjectDBX Classes
 90
     4095
 91
        4
280
     0
281
     0
  0
CLASS
  1
MATERIAL
  2
AcDbMaterial
  3
ObjectDBX Classes
 90
     1153
 91
        4
280
     0
281
     0
  0
CLASS
  1
SUN
  2
AcDbSun
  3
SCENEOE
 90
     1024
 91
        4
280
     0
281
     0
  0
ENDSEC
  0
SECTION
  2
TABLES
  0
TABLE
  2
VPORT
  5
8
330
0
100
AcDbSymbolTable
 70
     1
  0
VPORT
  5
29
330
8
100
AcDbSymbolTableRecord
100
AcDbViewportTableRecord
  2
*Active
 70
     0
 10
0.0
 20
0.0
 11
1.0
 21
1.0
 12
0.0
 22
0.0
 13
0.0
 23
0.0
 14
0.5
 24
0.5
 15
0.5
 25
0.5
 16
0.0
 26
0.0
 36
1.0
 17
1500.0
 27
-1500.0
 37
0.0
 40
3000.0
 41
1.0
 42
50.0
 43
0.0
 44
0.0
 50
0.0
 51
0.0
 71
     0
 72
   100
 73
     1
 74
     3
 75
     0
 76
     0
 77
     0
 78
     0
281
     0
 65
     1
110
0.0
120
0.0
130
0.0
111
1.0
121
0.0
131
0.0
112
0.0
122
1.0
132
0.0
 79
     0
146
0.0
 60
     3
 61
     5
292
     1
282
     1
141
0.0
142
0.0
 63
   250
361
3F
  0
ENDTAB
  0
TABLE
  2
LTYPE
  5
5
330
0
100
AcDbSymbolTable
 70
     1
  0
LTYPE
  5
14
330
5
100
AcDbSymbolTableRecord
100
AcDbLinetypeTableRecord
  2
ByBlock
 70
     0
  3

 72
    65
 73
     0
 40
0.0
  0
LTYPE
  5
15
330
5
100
AcDbSymbolTableRecord
100
AcDbLinetypeTableRecord
  2
ByLayer
 70
     0
  3

 72
    65
 73
     0
 40
0.0
  0
LTYPE
  5
16
330
5
100
AcDbSymbolTableRecord
100
AcDbLinetypeTableRecord
  2
Continuous
 70
     0
  3
Solid line
 72
    65
 73
     0
 40
0.0
  0
ENDTAB
  0
TABLE
  2
LAYER
  5
2
330
0
100
AcDbSymbolTable
 70
     2
  0
LAYER
  5
10
330
2
100
AcDbSymbolTableRecord
100
AcDbLayerTableRecord
  2
0
 70
     0
 62
     7
  6
Continuous
370
    -3
390
F
347
3E
  0
LAYER
  5
40
330
2
100
AcDbSymbolTableRecord
100
AcDbLayerTableRecord
  2
Layer 1
 70
     0
 62
     7
  6
Continuous
370
    -3
390
F
347
3E
  0
ENDTAB
  0
TABLE
  2
STYLE
  5
3
330
0
100
AcDbSymbolTable
 70
     1
  0
STYLE
  5
11
330
3
100
AcDbSymbolTableRecord
100
AcDbTextStyleTableRecord
  2
Standard
 70
     0
 40
0.0
 41
1.0
 50
0.0
 71
     0
 42
0.2
  3
txt
  4

  0
ENDTAB
  0
TABLE
  2
VIEW
  5
6
330
0
100
AcDbSymbolTable
 70
     0
  0
ENDTAB
  0
TABLE
  2
UCS
  5
7
330
0
100
AcDbSymbolTable
 70
     0
  0
ENDTAB
  0
TABLE
  2
APPID
  5
9
330
0
100
AcDbSymbolTable
 70
     1
  0
APPID
  5
12
330
9
100
AcDbSymbolTableRecord
100
AcDbRegAppTableRecord
  2
ACAD
 70
     0
  0
ENDTAB
  0
TABLE
  2
DIMSTYLE
  5
A
330
0
100
AcDbSymbolTable
 70
     1
100
AcDbDimStyleTable
  0
DIMSTYLE
105
27
330
A
100
AcDbSymbolTableRecord
100
AcDbDimStyleTableRecord
  2
Standard
 70
     0
178
     0
340
11
  0
ENDTAB
  0
TABLE
  2
BLOCK_RECORD
  5
1
330
0
100
AcDbSymbolTable
 70
     1
  0
BLOCK_RECORD
  5
1F
330
1
100
AcDbSymbolTableRecord
100
AcDbBlockTableRecord
  2
*Model_Space
340
22
 70
     0
280
     1
281
     0
  0
BLOCK_RECORD
  5
1B
330
1
100
AcDbSymbolTableRecord
100
AcDbBlockTableRecord
  2
*Paper_Space
340
1E
 70
     0
280
     1
281
     0
  0
BLOCK_RECORD
  5
23
330
1
100
AcDbSymbolTableRecord
100
AcDbBlockTableRecord
  2
*Paper_Space0
340
26
 70
     0
280
     1
281
     0
  0
ENDTAB
  0
ENDSEC
  0
SECTION
  2
BLOCKS
  0
BLOCK
  5
20
330
1F
100
AcDbEntity
  8
0
100
AcDbBlockBegin
  2
*Model_Space
 70
     0
 10
0.0
 20
0.0
 30
0.0
  3
*Model_Space
  1

  0
ENDBLK
  5
21
330
1F
100
AcDbEntity
  8
0
100
AcDbBlockEnd
  0
BLOCK
  5
1C
330
1B
100
AcDbEntity
 67
     1
  8
0
100
AcDbBlockBegin
  2
*Paper_Space
 70
     0
 10
0.0
 20
0.0
 30
0.0
  3
*Paper_Space
  1

  0
ENDBLK
  5
1D
330
1B
100
AcDbEntity
 67
     1
  8
0
100
AcDbBlockEnd
  0
BLOCK
  5
24
330
23
100
AcDbEntity
  8
0
100
AcDbBlockBegin
  2
*Paper_Space0
 70
     0
 10
0.0
 20
0.0
 30
0.0
  3
*Paper_Space0
  1

  0
ENDBLK
  5
25
330
23
100
AcDbEntity
  8
0
100
AcDbBlockEnd
  0
ENDSEC
  0
SECTION
  2
ENTITIES
  0
SPLINE
  5
41
330
1F
100
AcDbEntity
  8
Layer 1
370
     0
100
AcDbSpline
210
0.0
220
0.0
230
1.0
 70
    11
 71
     3
 72
    50
 73
    46
 74
     0
 42
0.0000000001
 43
0.0000000001
 12
1.0
 22
0.0
 32
0.0
 13
1.0
 23
0.0
 33
0.0
 40
0.0
 40
0.0
 40
0.0
 40
0.0
 40
1.0
 40
1.0
 40
1.0
 40
2.0
 40
2.0
 40
2.0
 40
3.0
 40
3.0
 40
3.0
 40
4.0
 40
4.0
 40
4.0
 40
5.0
 40
5.0
 40
5.0
 40
6.0
 40
6.0
 40
6.0
 40
7.0
 40
7.0
 40
7.0
 40
8.0
 40
8.0
 40
8.0
 40
9.0
 40
9.0
 40
9.0
 40
10.0
 40
10.0
 40
10.0
 40
11.0
 40
11.0
 40
11.0
 40
12.0
 40
12.0
 40
12.0
 40
13.0
 40
13.0
 40
13.0
 40
14.0
 40
14.0
 40
14.0
 40
15.0
 40
15.0
 40
15.0
 40
15.0
 10
1523.456607352942
 20
-273.4149527474992
 30
0.0
 10
1551.374559832169
 20
-263.9025325804514
 30
0.0
 10
1571.405775702078
 20
-237.4526044521035
 30
0.0
 10
1571.405775702078
 20
-206.2851729916156
 30
0.0
 10
1571.405775702078
 20
-167.0752338491593
 30
0.0
 10
1539.619980286676
 20
-135.2884943666786
 30
0.0
 10
1500.410041144249
 20
-135.2884943666786
 30
0.0
 10
1461.199157934709
 20
-135.2884943666786
 30
0.0
 10
1429.413362519314
 20
-167.0752338491593
 30
0.0
 10
1429.413362519314
 20
-206.2851729916156
 30
0.0
 10
1429.413362519314
 20
-237.4526044521035
 30
0.0
 10
1449.44363432211
 20
-263.9025325804514
 30
0.0
 10
1477.36253086845
 20
-273.4149527474992
 30
0.0
 10
1477.36253086845
 20
-273.4149527474992
 30
0.0
 10
688.9022290999346
 20
-1558.694345683763
 30
0.0
 10
688.9022290999346
 20
-1558.694345683763
 30
0.0
 10
688.9022290999346
 20
-1558.694345683763
 30
0.0
 10
1191.366841565672
 20
-2366.953622813957
 30
0.0
 10
1191.366841565672
 20
-2366.953622813957
 30
0.0
 10
1191.366841565672
 20
-2366.953622813957
 30
0.0
 10
1361.665218808521
 20
-2640.961547995879
 30
0.0
 10
1361.665218808521
 20
-2640.961547995879
 30
0.0
 10
1361.665218808521
 20
-2640.961547995879
 30
0.0
 10
1466.767265729985
 20
-2810.1006108317
 30
0.0
 10
1466.767265729985
 20
-2810.1006108317
 30
0.0
 10
1466.767265729985
 20
-2810.1006108317
 30
0.0
 10
1498.166937698727
 20
-2864.159781495391
 30
0.0
 10
1498.166937698727
 20
-2864.159781495391
 30
0.0
 10
1498.166937698727
 20
-2864.159781495391
 30
0.0
 10
1532.581960006268
 20
-2812.498541282735
 30
0.0
 10
1532.581960006268
 20
-2812.498541282735
 30
0.0
 10
1532.581960006268
 20
-2812.498541282735
 30
0.0
 10
1700.559820300856
 20
-2542.280101467049
 30
0.0
 10
1700.559820300856
 20
-2542.280101467049
 30
0.0
 10
1700.559820300856
 20
-2542.280101467049
 30
0.0
 10
1811.076092079238
 20
-2364.555692362921
 30
0.0
 10
1811.076092079238
 20
-2364.555692362921
 30
0.0
 10
1811.076092079238
 20
-2364.555692362921
 30
0.0
 10
2299.38819454849
 20
-1578.956857994812
 30
0.0
 10
2299.38819454849
 20
-1578.956857994812
 30
0.0
 10
2299.38819454849
 20
-1578.956857994812
 30
0.0
 10
2311.994322624203
 20
-1558.694345683763
 30
0.0
 10
2311.994322624203
 20
-1558.694345683763
 30
0.0
 10
2311.994322624203
 20
-1558.694345683763
 30
0.0
 10
1523.456607352942
 20
-273.4149527474992
 30
0.0
 10
1523.456607352942
 20
-273.4149527474992
 30
0.0
  0
SPLINE
  5
42
330
1F
100
AcDbEntity
  8
Layer 1
370
     0
100
AcDbSpline
210
0.0
220
0.0
230
1.0
 70
    11
 71
     3
 72
    23
 73
    19
 74
     0
 42
0.0000000001
 43
0.0000000001
 12
1.0
 22
0.0
 32
0.0
 13
1.0
 23
0.0
 33
0.0
 40
0.0
 40
0.0
 40
0.0
 40
0.0
 40
1.0
 40
1.0
 40
1.0
 40
2.0
 40
2.0
 40
2.0
 40
3.0
 40
3.0
 40
3.0
 40
4.0
 40
4.0
 40
4.0
 40
5.0
 40
5.0
 40
5.0
 40
6.0
 40
6.0
 40
6.0
 40
6.0
 10
1460.579849912712
 20
-206.2851729916156
 30
0.0
 10
1460.579849912712
 20
-184.2440382515479
 30
0.0
 10
1478.445375839838
 20
-166.3785123244224
 30
0.0
 10
1500.410041144249
 20
-166.3785123244224
 30
0.0
 10
1522.450231817173
 20
-166.3785123244224
 30
0.0
 10
1540.315757744334
 20
-184.2440382515479
 30
0.0
 10
1540.315757744334
 20
-206.2851729916156
 30
0.0
 10
1540.315757744334
 20
-226.2380312916694
 30
0.0
 10
1525.622297295689
 20
-242.8668293090059
 30
0.0
 10
1506.441685888924
 20
-245.6499391395582
 30
0.0
 10
1504.430822951676
 20
-246.0370066532987
 30
0.0
 10
1502.420904081519
 20
-246.1918336587833
 30
0.0
 10
1500.410041144249
 20
-246.1918336587833
 30
0.0
 10
1498.399178206979
 20
-246.1918336587833
 30
0.0
 10
1496.388315269709
 20
-246.0370066532987
 30
0.0
 10
1494.377452332439
 20
-245.6499391395582
 30
0.0
 10
1475.275198495547
 20
-242.8668293090059
 30
0.0
 10
1460.579849912712
 20
-226.2380312916694
 30
0.0
 10
1460.579849912712
 20
-206.2851729916156
 30
0.0
  0
SPLINE
  5
43
330
1F
100
AcDbEntity
  8
Layer 1
370
     0
100
AcDbSpline
210
0.0
220
0.0
230
1.0
 70
    11
 71
     3
 72
    65
 73
    61
 74
     0
 42
0.0000000001
 43
0.0000000001
 12
1.0
 22
0.0
 32
0.0
 13
1.0
 23
0.0
 33
0.0
 40
0.0
 40
0.0
 40
0.0
 40
0.0
 40
1.0
 40
1.0
 40
1.0
 40
2.0
 40
2.0
 40
2.0
 40
3.0
 40
3.0
 40
3.0
 40
4.0
 40
4.0
 40
4.0
 40
5.0
 40
5.0
 40
5.0
 40
6.0
 40
6.0
 40
6.0
 40
7.0
 40
7.0
 40
7.0
 40
8.0
 40
8.0
 40
8.0
 40
9.0
 40
9.0
 40
9.0
 40
10.0
 40
10.0
 40
10.0
 40
11.0
 40
11.0
 40
11.0
 40
12.0
 40
12.0
 40
12.0
 40
13.0
 40
13.0
 40
13.0
 40
14.0
 40
14.0
 40
14.0
 40
15.0
 40
15.0
 40
15.0
 40
16.0
 40
16.0
 40
16.0
 40
17.0
 40
17.0
 40
17.0
 40
18.0
 40
18.0
 40
18.0
 40
19.0
 40
19.0
 40
19.0
 40
20.0
 40
20.0
 40
20.0
 40
20.0
 10
1500.410041144249
 20
-383.6989840176366
 30
0.0
 10
1500.410041144249
 20
-383.6989840176366
 30
0.0
 10
1999.556257729972
 20
-1197.254477616411
 30
0.0
 10
1999.556257729972
 20
-1197.254477616411
 30
0.0
 10
1827.416005561958
 20
-1123.155594478861
 30
0.0
 10
1695.516613816872
 20
-1234.23641838702
 30
0.0
 10
1695.516613816872
 20
-1234.23641838702
 30
0.0
 10
1691.533594693712
 20
-1209.145002825234
 30
0.0
 10
1704.278500634144
 20
-1179.273775502244
 30
0.0
 10
1704.278500634144
 20
-1179.273775502244
 30
0.0
 10
1639.358781975025
 20
-1199.187927050913
 30
0.0
 10
1706.26953816216
 20
-1299.952929684195
 30
0.0
 10
1650.909443025434
 20
-1342.56906294762
 30
0.0
 10
1618.32591090491
 20
-1367.651037838344
 30
0.0
 10
1585.651748342134
 20
-1377.032232677587
 30
0.0
 10
1564.270516509641
 20
-1380.512064032876
 30
0.0
 10
1564.128906443657
 20
-1377.014295402577
 30
0.0
 10
1563.77016094311
 20
-1373.584499603928
 30
0.0
 10
1563.235818960718
 20
-1370.228341039631
 30
0.0
 10
1585.022055581969
 20
-1364.48841303089
 30
0.0
 10
1589.009795040649
 20
-1332.668631199694
 30
0.0
 10
1594.916822927247
 20
-1306.624651927236
 30
0.0
 10
1601.488474056969
 20
-1277.649344288494
 30
0.0
 10
1618.514724326247
 20
-1257.635121626511
 30
0.0
 10
1618.514724326247
 20
-1257.635121626511
 30
0.0
 10
1575.821177560079
 20
-1269.216936891474
 30
0.0
 10
1545.060639022602
 20
-1303.567762635736
 30
0.0
 10
1532.755668353886
 20
-1319.383718874259
 30
0.0
 10
1523.345207434337
 20
-1312.907418522312
 30
0.0
 10
1512.407245936141
 20
-1309.179297517979
 30
0.0
 10
1500.723471423669
 20
-1309.179297517979
 30
0.0
 10
1489.7911743281
 20
-1309.179297517979
 30
0.0
 10
1479.502730999324
 20
-1312.432552767656
 30
0.0
 10
1470.516156210688
 20
-1318.156431635555
 30
0.0
 10
1457.617367331884
 20
-1301.853336770008
 30
0.0
 10
1427.337358951692
 20
-1268.926164222602
 30
0.0
 10
1385.719104620053
 20
-1257.635121626511
 30
0.0
 10
1385.719104620053
 20
-1257.635121626511
 30
0.0
 10
1402.746298956437
 20
-1277.649344288494
 30
0.0
 10
1409.317950086166
 20
-1306.624651927236
 30
0.0
 10
1414.975744256582
 20
-1331.571625221711
 30
0.0
 10
1418.878517675686
 20
-1361.811038716319
 30
0.0
 10
1438.343293281556
 20
-1369.361687435679
 30
0.0
 10
1437.72115305825
 20
-1373.020891541219
 30
0.0
 10
1437.325588940534
 20
-1376.77639049168
 30
0.0
 10
1437.174538203471
 20
-1380.607414810657
 30
0.0
 10
1415.805579243373
 20
-1377.199332555469
 30
0.0
 10
1382.837811810408
 20
-1367.866285138673
 30
0.0
 10
1349.974835826295
 20
-1342.56906294762
 30
0.0
 10
1294.61285255538
 20
-1299.952929684195
 30
0.0
 10
1361.524552809627
 20
-1199.187927050913
 30
0.0
 10
1296.604834150501
 20
-1179.273775502244
 30
0.0
 10
1296.604834150501
 20
-1179.273775502244
 30
0.0
 10
1309.349740090904
 20
-1209.145002825234
 30
0.0
 10
1305.366720967751
 20
-1234.23641838702
 30
0.0
 10
1305.366720967751
 20
-1234.23641838702
 30
0.0
 10
1173.46072075297
 20
-1123.150874143329
 30
0.0
 10
1001.313860115173
 20
-1197.26108608614
 30
0.0
 10
1001.313860115173
 20
-1197.26108608614
 30
0.0
 10
1500.410041144249
 20
-383.6989840176366
 30
0.0
 10
1500.410041144249
 20
-383.6989840176366
 30
0.0
  0
SPLINE
  5
44
330
1F
100
AcDbEntity
  8
Layer 1
370
     0
100
AcDbSpline
210
0.0
220
0.0
230
1.0
 70
    11
 71
     3
 72
    32
 73
    28
 74
     0
 42
0.0000000001
 43
0.0000000001
 12
1.0
 22
0.0
 32
0.0
 13
1.0
 23
0.0
 33
0.0
 40
0.0
 40
0.0
 40
0.0
 40
0.0
 40
1.0
 40
1.0
 40
1.0
 40
2.0
 40
2.0
 40
2.0
 40
3.0
 40
3.0
 40
3.0
 40
4.0
 40
4.0
 40
4.0
 40
5.0
 40
5.0
 40
5.0
 40
6.0
 40
6.0
 40
6.0
 40
7.0
 40
7.0
 40
7.0
 40
8.0
 40
8.0
 40
8.0
 40
9.0
 40
9.0
 40
9.0
 40
9.0
 10
1244.652821268974
 20
-2036.411183014539
 30
0.0
 10
1232.665057148115
 20
-2108.181052599872
 30
0.0
 10
1221.683668563026
 20
-2179.796095179694
 30
0.0
 10
1210.392625966932
 20
-2251.101483748518
 30
0.0
 10
1210.392625966932
 20
-2251.101483748518
 30
0.0
 10
779.7743525221595
 20
-1558.384691672765
 30
0.0
 10
779.7743525221595
 20
-1558.384691672765
 30
0.0
 10
779.7743525221595
 20
-1558.384691672765
 30
0.0
 10
982.8856701924524
 20
-1227.298469219925
 30
0.0
 10
982.8856701924524
 20
-1227.298469219925
 30
0.0
 10
1034.677191665854
 20
-1243.68936232639
 30
0.0
 10
1144.183311640067
 20
-1292.936622947248
 30
0.0
 10
1138.088414399215
 20
-1415.454819853058
 30
0.0
 10
1138.088414399215
 20
-1415.454819853058
 30
0.0
 10
1255.182945777065
 20
-1382.795762363982
 30
0.0
 10
1293.41766359828
 20
-1499.890293741803
 30
0.0
 10
1293.41766359828
 20
-1499.890293741803
 30
0.0
 10
1358.735778576432
 20
-1466.434443614679
 30
0.0
 10
1398.564081673772
 20
-1526.973690898738
 30
0.0
 10
1398.564081673772
 20
-1526.973690898738
 30
0.0
 10
1489.942225065199
 20
-1525.514163151782
 30
0.0
 10
1499.988043147547
 20
-1613.774052889779
 30
0.0
 10
1488.301436433736
 20
-1613.321844745666
 30
0.0
 10
1476.585563639637
 20
-1614.249862711573
 30
0.0
 10
1465.066056803713
 20
-1616.852655724711
 30
0.0
 10
1300.103546847909
 20
-1654.207503002521
 30
0.0
 10
1267.312319963923
 20
-1900.837482090241
 30
0.0
 10
1244.652821268974
 20
-2036.411183014539
 30
0.0
  0
SPLINE
  5
45
330
1F
100
AcDbEntity
  8
Layer 1
370
     0
100
AcDbSpline
210
0.0
220
0.0
230
1.0
 70
    11
 71
     3
 72
    20
 73
    16
 74
     0
 42
0.0000000001
 43
0.0000000001
 12
1.0
 22
0.0
 32
0.0
 13
1.0
 23
0.0
 33
0.0
 40
0.0
 40
0.0
 40
0.0
 40
0.0
 40
1.0
 40
1.0
 40
1.0
 40
2.0
 40
2.0
 40
2.0
 40
3.0
 40
3.0
 40
3.0
 40
4.0
 40
4.0
 40
4.0
 40
5.0
 40
5.0
 40
5.0
 40
5.0
 10
1376.282209821497
 20
-1832.238733916312
 30
0.0
 10
1372.260483946986
 20
-1826.748039623753
 30
0.0
 10
1373.497211856753
 20
-1817.080792451166
 30
0.0
 10
1375.972555810527
 20
-1797.823711608764
 30
0.0
 10
1378.91143671365
 20
-1775.163268846727
 30
0.0
 10
1380.381349198782
 20
-1763.794812747868
 30
0.0
 10
1386.259111005085
 20
-1755.828774501582
 30
0.0
 10
1401.262225464714
 20
-1735.643675693276
 30
0.0
 10
1442.329144606047
 20
-1725.435478068574
 30
0.0
 10
1462.668126352728
 20
-1745.774459815259
 30
0.0
 10
1480.998133296336
 20
-1764.104466758892
 30
0.0
 10
1476.511926405314
 20
-1798.442075563673
 30
0.0
 10
1452.691225169146
 20
-1822.26277679984
 30
0.0
 10
1429.413362519314
 20
-1845.541583516786
 30
0.0
 10
1387.418425412106
 20
-1847.3202059458
 30
0.0
 10
1376.282209821497
 20
-1832.238733916312
 30
0.0
  0
SPLINE
  5
46
330
1F
100
AcDbEntity
  8
Layer 1
370
     0
100
AcDbSpline
210
0.0
220
0.0
230
1.0
 70
    11
 71
     3
 72
    17
 73
    13
 74
     0
 42
0.0000000001
 43
0.0000000001
 12
1.0
 22
0.0
 32
0.0
 13
1.0
 23
0.0
 33
0.0
 40
0.0
 40
0.0
 40
0.0
 40
0.0
 40
1.0
 40
1.0
 40
1.0
 40
2.0
 40
2.0
 40
2.0
 40
3.0
 40
3.0
 40
3.0
 40
4.0
 40
4.0
 40
4.0
 40
4.0
 10
1587.415265697447
 20
-1912.283351691816
 30
0.0
 10
1583.316126320162
 20
-1918.85783502288
 30
0.0
 10
1556.015593728705
 20
-1896.660929210213
 30
0.0
 10
1507.369703854805
 20
-1896.352219266328
 30
0.0
 10
1457.48708607116
 20
-1896.119978758075
 30
0.0
 10
1429.335949016568
 20
-1919.012662028365
 30
0.0
 10
1425.082926700888
 20
-1912.283351691816
 30
0.0
 10
1419.746115346723
 20
-1903.776362993363
 30
0.0
 10
1457.100018557394
 20
-1851.882882272455
 30
0.0
 10
1506.210389447806
 20
-1851.960295775223
 30
0.0
 10
1555.318872203934
 20
-1851.960295775223
 30
0.0
 10
1592.673719481754
 20
-1903.853776496131
 30
0.0
 10
1587.415265697447
 20
-1912.283351691816
 30
0.0
  0
SPLINE
  5
47
330
1F
100
AcDbEntity
  8
Layer 1
370
     0
100
AcDbSpline
210
0.0
220
0.0
230
1.0
 70
    11
 71
     3
 72
    20
 73
    16
 74
     0
 42
0.0000000001
 43
0.0000000001
 12
1.0
 22
0.0
 32
0.0
 13
1.0
 23
0.0
 33
0.0
 40
0.0
 40
0.0
 40
0.0
 40
0.0
 40
1.0
 40
1.0
 40
1.0
 40
2.0
 40
2.0
 40
2.0
 40
3.0
 40
3.0
 40
3.0
 40
4.0
 40
4.0
 40
4.0
 40
5.0
 40
5.0
 40
5.0
 40
5.0
 10
1633.276157606568
 20
-1832.238733916312
 30
0.0
 10
1622.062528513226
 20
-1847.3202059458
 30
0.0
 10
1580.222418411518
 20
-1845.541583516786
 30
0.0
 10
1556.866198191812
 20
-1822.26277679984
 30
0.0
 10
1532.969027520012
 20
-1798.442075563673
 30
0.0
 10
1528.560234131728
 20
-1764.104466758892
 30
0.0
 10
1546.890241075365
 20
-1745.774459815259
 30
0.0
 10
1567.229222822047
 20
-1725.435478068574
 30
0.0
 10
1608.29614196335
 20
-1735.643675693276
 30
0.0
 10
1623.299256422979
 20
-1755.828774501582
 30
0.0
 10
1629.177018229282
 20
-1763.794812747868
 30
0.0
 10
1630.645986647301
 20
-1775.163268846727
 30
0.0
 10
1633.585811617566
 20
-1797.823711608764
 30
0.0
 10
1636.060211504213
 20
-1817.080792451166
 30
0.0
 10
1637.297883481078
 20
-1826.748039623753
 30
0.0
 10
1633.276157606568
 20
-1832.238733916312
 30
0.0
  0
SPLINE
  5
48
330
1F
100
AcDbEntity
  8
Layer 1
370
     0
100
AcDbSpline
210
0.0
220
0.0
230
1.0
 70
    11
 71
     3
 72
    35
 73
    31
 74
     0
 42
0.0000000001
 43
0.0000000001
 12
1.0
 22
0.0
 32
0.0
 13
1.0
 23
0.0
 33
0.0
 40
0.0
 40
0.0
 40
0.0
 40
0.0
 40
1.0
 40
1.0
 40
1.0
 40
2.0
 40
2.0
 40
2.0
 40
3.0
 40
3.0
 40
3.0
 40
4.0
 40
4.0
 40
4.0
 40
5.0
 40
5.0
 40
5.0
 40
6.0
 40
6.0
 40
6.0
 40
7.0
 40
7.0
 40
7.0
 40
8.0
 40
8.0
 40
8.0
 40
9.0
 40
9.0
 40
9.0
 40
10.0
 40
10.0
 40
10.0
 40
10.0
 10
1787.332804345788
 20
-2256.282524030054
 30
0.0
 10
1786.56055745254
 20
-2252.570452166534
 30
0.0
 10
1785.941249430543
 20
-2248.858380303018
 30
0.0
 10
1785.244527905772
 20
-2245.146308439473
 30
0.0
 10
1757.094334918293
 20
-2087.145349328452
 30
0.0
 10
1753.537090060257
 20
-1921.795771858915
 30
0.0
 10
1688.418173241618
 20
-1775.085855343985
 30
0.0
 10
1668.310487936091
 20
-1729.843327389744
 30
0.0
 10
1641.783146305024
 20
-1686.224594859033
 30
0.0
 10
1603.423811625704
 20
-1654.902336393034
 30
0.0
 10
1574.456056523792
 20
-1631.308211262478
 30
0.0
 10
1537.858351065588
 20
-1615.455436406794
 30
0.0
 10
1500.891515368661
 20
-1613.790102030596
 30
0.0
 10
1510.928836847059
 20
-1525.514163151782
 30
0.0
 10
1602.318309043767
 20
-1526.973690898738
 30
0.0
 10
1602.318309043767
 20
-1526.973690898738
 30
0.0
 10
1642.146612141078
 20
-1466.434443614679
 30
0.0
 10
1707.464727119237
 20
-1499.890293741803
 30
0.0
 10
1707.464727119237
 20
-1499.890293741803
 30
0.0
 10
1745.699444940445
 20
-1382.795762363982
 30
0.0
 10
1862.793976318295
 20
-1415.454819853058
 30
0.0
 10
1862.793976318295
 20
-1415.454819853058
 30
0.0
 10
1856.699079077473
 20
-1292.941343282776
 30
0.0
 10
1966.196702447705
 20
-1243.693138594835
 30
0.0
 10
2017.991056122424
 20
-1227.300357354147
 30
0.0
 10
2017.991056122424
 20
-1227.300357354147
 30
0.0
 10
2221.122199201971
 20
-1558.384691672765
 30
0.0
 10
2221.122199201971
 20
-1558.384691672765
 30
0.0
 10
2221.122199201971
 20
-1558.384691672765
 30
0.0
 10
1787.332804345788
 20
-2256.282524030054
 30
0.0
 10
1787.332804345788
 20
-2256.282524030054
 30
0.0
  0
HATCH
  5
49
330
1F
100
AcDbEntity
  8
Layer 1
 62
   173
420
  6844597
100
AcDbHatch
 10
0.0
 20
0.0
 30
0.0
210
0.0
220
0.0
230
1.0
  2
SOLID
 70
     1
 71
     0
 91
        8
 92
        1
 93
        1
 72
     4
 94
        3
 73
     0
 74
     1
 95
       50
 96
       46
 40
0.0
 40
0.0
 40
0.0
 40
0.0
 40
1.0
 40
1.0
 40
1.0
 40
2.0
 40
2.0
 40
2.0
 40
3.0
 40
3.0
 40
3.0
 40
4.0
 40
4.0
 40
4.0
 40
5.0
 40
5.0
 40
5.0
 40
6.0
 40
6.0
 40
6.0
 40
7.0
 40
7.0
 40
7.0
 40
8.0
 40
8.0
 40
8.0
 40
9.0
 40
9.0
 40
9.0
 40
10.0
 40
10.0
 40
10.0
 40
11.0
 40
11.0
 40
11.0
 40
12.0
 40
12.0
 40
12.0
 40
13.0
 40
13.0
 40
13.0
 40
14.0
 40
14.0
 40
14.0
 40
15.0
 40
15.0
 40
15.0
 40
15.0
 10
1523.456607352942
 20
-273.4149527474992
 10
1551.374559832169
 20
-263.9025325804514
 10
1571.405775702078
 20
-237.4526044521035
 10
1571.405775702078
 20
-206.2851729916156
 10
1571.405775702078
 20
-167.0752338491593
 10
1539.619980286676
 20
-135.2884943666786
 10
1500.410041144249
 20
-135.2884943666786
 10
1461.199157934709
 20
-135.2884943666786
 10
1429.413362519314
 20
-167.0752338491593
 10
1429.413362519314
 20
-206.2851729916156
 10
1429.413362519314
 20
-237.4526044521035
 10
1449.44363432211
 20
-263.9025325804514
 10
1477.36253086845
 20
-273.4149527474992
 10
1477.36253086845
 20
-273.4149527474992
 10
688.9022290999346
 20
-1558.694345683763
 10
688.9022290999346
 20
-1558.694345683763
 10
688.9022290999346
 20
-1558.694345683763
 10
1191.366841565672
 20
-2366.953622813957
 10
1191.366841565672
 20
-2366.953622813957
 10
1191.366841565672
 20
-2366.953622813957
 10
1361.665218808521
 20
-2640.961547995879
 10
1361.665218808521
 20
-2640.961547995879
 10
1361.665218808521
 20
-2640.961547995879
 10
1466.767265729985
 20
-2810.1006108317
 10
1466.767265729985
 20
-2810.1006108317
 10
1466.767265729985
 20
-2810.1006108317
 10
1498.166937698727
 20
-2864.159781495391
 10
1498.166937698727
 20
-2864.159781495391
 10
1498.166937698727
 20
-2864.159781495391
 10
1532.581960006268
 20
-2812.498541282735
 10
1532.581960006268
 20
-2812.498541282735
 10
1532.581960006268
 20
-2812.498541282735
 10
1700.559820300856
 20
-2542.280101467049
 10
1700.559820300856
 20
-2542.280101467049
 10
1700.559820300856
 20
-2542.280101467049
 10
1811.076092079238
 20
-2364.555692362921
 10
1811.076092079238
 20
-2364.555692362921
 10
1811.076092079238
 20
-2364.555692362921
 10
2299.38819454849
 20
-1578.956857994812
 10
2299.38819454849
 20
-1578.956857994812
 10
2299.38819454849
 20
-1578.956857994812
 10
2311.994322624203
 20
-1558.694345683763
 10
2311.994322624203
 20
-1558.694345683763
 10
2311.994322624203
 20
-1558.694345683763
 10
1523.456607352942
 20
-273.4149527474992
 10
1523.456607352942
 20
-273.4149527474992
 97
        0
 97
        0
 92
        1
 93
        1
 72
     4
 94
        3
 73
     0
 74
     1
 95
       23
 96
       19
 40
0.0
 40
0.0
 40
0.0
 40
0.0
 40
1.0
 40
1.0
 40
1.0
 40
2.0
 40
2.0
 40
2.0
 40
3.0
 40
3.0
 40
3.0
 40
4.0
 40
4.0
 40
4.0
 40
5.0
 40
5.0
 40
5.0
 40
6.0
 40
6.0
 40
6.0
 40
6.0
 10
1460.579849912712
 20
-206.2851729916156
 10
1460.579849912712
 20
-184.2440382515479
 10
1478.445375839838
 20
-166.3785123244224
 10
1500.410041144249
 20
-166.3785123244224
 10
1522.450231817173
 20
-166.3785123244224
 10
1540.315757744334
 20
-184.2440382515479
 10
1540.315757744334
 20
-206.2851729916156
 10
1540.315757744334
 20
-226.2380312916694
 10
1525.622297295689
 20
-242.8668293090059
 10
1506.441685888924
 20
-245.6499391395582
 10
1504.430822951676
 20
-246.0370066532987
 10
1502.420904081519
 20
-246.1918336587833
 10
1500.410041144249
 20
-246.1918336587833
 10
1498.399178206979
 20
-246.1918336587833
 10
1496.388315269709
 20
-246.0370066532987
 10
1494.377452332439
 20
-245.6499391395582
 10
1475.275198495547
 20
-242.8668293090059
 10
1460.579849912712
 20
-226.2380312916694
 10
1460.579849912712
 20
-206.2851729916156
 97
        0
 97
        0
 92
        1
 93
        1
 72
     4
 94
        3
 73
     0
 74
     1
 95
       65
 96
       61
 40
0.0
 40
0.0
 40
0.0
 40
0.0
 40
1.0
 40
1.0
 40
1.0
 40
2.0
 40
2.0
 40
2.0
 40
3.0
 40
3.0
 40
3.0
 40
4.0
 40
4.0
 40
4.0
 40
5.0
 40
5.0
 40
5.0
 40
6.0
 40
6.0
 40
6.0
 40
7.0
 40
7.0
 40
7.0
 40
8.0
 40
8.0
 40
8.0
 40
9.0
 40
9.0
 40
9.0
 40
10.0
 40
10.0
 40
10.0
 40
11.0
 40
11.0
 40
11.0
 40
12.0
 40
12.0
 40
12.0
 40
13.0
 40
13.0
 40
13.0
 40
14.0
 40
14.0
 40
14.0
 40
15.0
 40
15.0
 40
15.0
 40
16.0
 40
16.0
 40
16.0
 40
17.0
 40
17.0
 40
17.0
 40
18.0
 40
18.0
 40
18.0
 40
19.0
 40
19.0
 40
19.0
 40
20.0
 40
20.0
 40
20.0
 40
20.0
 10
1500.410041144249
 20
-383.6989840176366
 10
1500.410041144249
 20
-383.6989840176366
 10
1999.556257729972
 20
-1197.254477616411
 10
1999.556257729972
 20
-1197.254477616411
 10
1827.416005561958
 20
-1123.155594478861
 10
1695.516613816872
 20
-1234.23641838702
 10
1695.516613816872
 20
-1234.23641838702
 10
1691.533594693712
 20
-1209.145002825234
 10
1704.278500634144
 20
-1179.273775502244
 10
1704.278500634144
 20
-1179.273775502244
 10
1639.358781975025
 20
-1199.187927050913
 10
1706.26953816216
 20
-1299.952929684195
 10
1650.909443025434
 20
-1342.56906294762
 10
1618.32591090491
 20
-1367.651037838344
 10
1585.651748342134
 20
-1377.032232677587
 10
1564.270516509641
 20
-1380.512064032876
 10
1564.128906443657
 20
-1377.014295402577
 10
1563.77016094311
 20
-1373.584499603928
 10
1563.235818960718
 20
-1370.228341039631
 10
1585.022055581969
 20
-1364.48841303089
 10
1589.009795040649
 20
-1332.668631199694
 10
1594.916822927247
 20
-1306.624651927236
 10
1601.488474056969
 20
-1277.649344288494
 10
1618.514724326247
 20
-1257.635121626511
 10
1618.514724326247
 20
-1257.635121626511
 10
1575.821177560079
 20
-1269.216936891474
 10
1545.060639022602
 20
-1303.567762635736
 10
1532.755668353886
 20
-1319.383718874259
 10
1523.345207434337
 20
-1312.907418522312
 10
1512.407245936141
 20
-1309.179297517979
 10
1500.723471423669
 20
-1309.179297517979
 10
1489.7911743281
 20
-1309.179297517979
 10
1479.502730999324
 20
-1312.432552767656
 10
1470.516156210688
 20
-1318.156431635555
 10
1457.617367331884
 20
-1301.853336770008
 10
1427.337358951692
 20
-1268.926164222602
 10
1385.719104620053
 20
-1257.635121626511
 10
1385.719104620053
 20
-1257.635121626511
 10
1402.746298956437
 20
-1277.649344288494
 10
1409.317950086166
 20
-1306.624651927236
 10
1414.975744256582
 20
-1331.571625221711
 10
1418.878517675686
 20
-1361.811038716319
 10
1438.343293281556
 20
-1369.361687435679
 10
1437.72115305825
 20
-1373.020891541219
 10
1437.325588940534
 20
-1376.77639049168
 10
1437.174538203471
 20
-1380.607414810657
 10
1415.805579243373
 20
-1377.199332555469
 10
1382.837811810408
 20
-1367.866285138673
 10
1349.974835826295
 20
-1342.56906294762
 10
1294.61285255538
 20
-1299.952929684195
 10
1361.524552809627
 20
-1199.187927050913
 10
1296.604834150501
 20
-1179.273775502244
 10
1296.604834150501
 20
-1179.273775502244
 10
1309.349740090904
 20
-1209.145002825234
 10
1305.366720967751
 20
-1234.23641838702
 10
1305.366720967751
 20
-1234.23641838702
 10
1173.46072075297
 20
-1123.150874143329
 10
1001.313860115173
 20
-1197.26108608614
 10
1001.313860115173
 20
-1197.26108608614
 10
1500.410041144249
 20
-383.6989840176366
 10
1500.410041144249
 20
-383.6989840176366
 97
        0
 97
        0
 92
        1
 93
        1
 72
     4
 94
        3
 73
     0
 74
     1
 95
       32
 96
       28
 40
0.0
 40
0.0
 40
0.0
 40
0.0
 40
1.0
 40
1.0
 40
1.0
 40
2.0
 40
2.0
 40
2.0
 40
3.0
 40
3.0
 40
3.0
 40
4.0
 40
4.0
 40
4.0
 40
5.0
 40
5.0
 40
5.0
 40
6.0
 40
6.0
 40
6.0
 40
7.0
 40
7.0
 40
7.0
 40
8.0
 40
8.0
 40
8.0
 40
9.0
 40
9.0
 40
9.0
 40
9.0
 10
1244.652821268974
 20
-2036.411183014539
 10
1232.665057148115
 20
-2108.181052599872
 10
1221.683668563026
 20
-2179.796095179694
 10
1210.392625966932
 20
-2251.101483748518
 10
1210.392625966932
 20
-2251.101483748518
 10
779.7743525221595
 20
-1558.384691672765
 10
779.7743525221595
 20
-1558.384691672765
 10
779.7743525221595
 20
-1558.384691672765
 10
982.8856701924524
 20
-1227.298469219925
 10
982.8856701924524
 20
-1227.298469219925
 10
1034.677191665854
 20
-1243.68936232639
 10
1144.183311640067
 20
-1292.936622947248
 10
1138.088414399215
 20
-1415.454819853058
 10
1138.088414399215
 20
-1415.454819853058
 10
1255.182945777065
 20
-1382.795762363982
 10
1293.41766359828
 20
-1499.890293741803
 10
1293.41766359828
 20
-1499.890293741803
 10
1358.735778576432
 20
-1466.434443614679
 10
1398.564081673772
 20
-1526.973690898738
 10
1398.564081673772
 20
-1526.973690898738
 10
1489.942225065199
 20
-1525.514163151782
 10
1499.988043147547
 20
-1613.774052889779
 10
1488.301436433736
 20
-1613.321844745666
 10
1476.585563639637
 20
-1614.249862711573
 10
1465.066056803713
 20
-1616.852655724711
 10
1300.103546847909
 20
-1654.207503002521
 10
1267.312319963923
 20
-1900.837482090241
 10
1244.652821268974
 20
-2036.411183014539
 97
        0
 97
        0
 92
        1
 93
        1
 72
     4
 94
        3
 73
     0
 74
     1
 95
       20
 96
       16
 40
0.0
 40
0.0
 40
0.0
 40
0.0
 40
1.0
 40
1.0
 40
1.0
 40
2.0
 40
2.0
 40
2.0
 40
3.0
 40
3.0
 40
3.0
 40
4.0
 40
4.0
 40
4.0
 40
5.0
 40
5.0
 40
5.0
 40
5.0
 10
1376.282209821497
 20
-1832.238733916312
 10
1372.260483946986
 20
-1826.748039623753
 10
1373.497211856753
 20
-1817.080792451166
 10
1375.972555810527
 20
-1797.823711608764
 10
1378.91143671365
 20
-1775.163268846727
 10
1380.381349198782
 20
-1763.794812747868
 10
1386.259111005085
 20
-1755.828774501582
 10
1401.262225464714
 20
-1735.643675693276
 10
1442.329144606047
 20
-1725.435478068574
 10
1462.668126352728
 20
-1745.774459815259
 10
1480.998133296336
 20
-1764.104466758892
 10
1476.511926405314
 20
-1798.442075563673
 10
1452.691225169146
 20
-1822.26277679984
 10
1429.413362519314
 20
-1845.541583516786
 10
1387.418425412106
 20
-1847.3202059458
 10
1376.282209821497
 20
-1832.238733916312
 97
        0
 97
        0
 92
        1
 93
        1
 72
     4
 94
        3
 73
     0
 74
     1
 95
       17
 96
       13
 40
0.0
 40
0.0
 40
0.0
 40
0.0
 40
1.0
 40
1.0
 40
1.0
 40
2.0
 40
2.0
 40
2.0
 40
3.0
 40
3.0
 40
3.0
 40
4.0
 40
4.0
 40
4.0
 40
4.0
 10
1587.415265697447
 20
-1912.283351691816
 10
1583.316126320162
 20
-1918.85783502288
 10
1556.015593728705
 20
-1896.660929210213
 10
1507.369703854805
 20
-1896.352219266328
 10
1457.48708607116
 20
-1896.119978758075
 10
1429.335949016568
 20
-1919.012662028365
 10
1425.082926700888
 20
-1912.283351691816
 10
1419.746115346723
 20
-1903.776362993363
 10
1457.100018557394
 20
-1851.882882272455
 10
1506.210389447806
 20
-1851.960295775223
 10
1555.318872203934
 20
-1851.960295775223
 10
1592.673719481754
 20
-1903.853776496131
 10
1587.415265697447
 20
-1912.283351691816
 97
        0
 97
        0
 92
        1
 93
        1
 72
     4
 94
        3
 73
     0
 74
     1
 95
       20
 96
       16
 40
0.0
 40
0.0
 40
0.0
 40
0.0
 40
1.0
 40
1.0
 40
1.0
 40
2.0
 40
2.0
 40
2.0
 40
3.0
 40
3.0
 40
3.0
 40
4.0
 40
4.0
 40
4.0
 40
5.0
 40
5.0
 40
5.0
 40
5.0
 10
1633.276157606568
 20
-1832.238733916312
 10
1622.062528513226
 20
-1847.3202059458
 10
1580.222418411518
 20
-1845.541583516786
 10
1556.866198191812
 20
-1822.26277679984
 10
1532.969027520012
 20
-1798.442075563673
 10
1528.560234131728
 20
-1764.104466758892
 10
1546.890241075365
 20
-1745.774459815259
 10
1567.229222822047
 20
-1725.435478068574
 10
1608.29614196335
 20
-1735.643675693276
 10
1623.299256422979
 20
-1755.828774501582
 10
1629.177018229282
 20
-1763.794812747868
 10
1630.645986647301
 20
-1775.163268846727
 10
1633.585811617566
 20
-1797.823711608764
 10
1636.060211504213
 20
-1817.080792451166
 10
1637.297883481078
 20
-1826.748039623753
 10
1633.276157606568
 20
-1832.238733916312
 97
        0
 97
        0
 92
        1
 93
        1
 72
     4
 94
        3
 73
     0
 74
     1
 95
       35
 96
       31
 40
0.0
 40
0.0
 40
0.0
 40
0.0
 40
1.0
 40
1.0
 40
1.0
 40
2.0
 40
2.0
 40
2.0
 40
3.0
 40
3.0
 40
3.0
 40
4.0
 40
4.0
 40
4.0
 40
5.0
 40
5.0
 40
5.0
 40
6.0
 40
6.0
 40
6.0
 40
7.0
 40
7.0
 40
7.0
 40
8.0
 40
8.0
 40
8.0
 40
9.0
 40
9.0
 40
9.0
 40
10.0
 40
10.0
 40
10.0
 40
10.0
 10
1787.332804345788
 20
-2256.282524030054
 10
1786.56055745254
 20
-2252.570452166534
 10
1785.941249430543
 20
-2248.858380303018
 10
1785.244527905772
 20
-2245.146308439473
 10
1757.094334918293
 20
-2087.145349328452
 10
1753.537090060257
 20
-1921.795771858915
 10
1688.418173241618
 20
-1775.085855343985
 10
1668.310487936091
 20
-1729.843327389744
 10
1641.783146305024
 20
-1686.224594859033
 10
1603.423811625704
 20
-1654.902336393034
 10
1574.456056523792
 20
-1631.308211262478
 10
1537.858351065588
 20
-1615.455436406794
 10
1500.891515368661
 20
-1613.790102030596
 10
1510.928836847059
 20
-1525.514163151782
 10
1602.318309043767
 20
-1526.973690898738
 10
1602.318309043767
 20
-1526.973690898738
 10
1642.146612141078
 20
-1466.434443614679
 10
1707.464727119237
 20
-1499.890293741803
 10
1707.464727119237
 20
-1499.890293741803
 10
1745.699444940445
 20
-1382.795762363982
 10
1862.793976318295
 20
-1415.454819853058
 10
1862.793976318295
 20
-1415.454819853058
 10
1856.699079077473
 20
-1292.941343282776
 10
1966.196702447705
 20
-1243.693138594835
 10
2017.991056122424
 20
-1227.300357354147
 10
2017.991056122424
 20
-1227.300357354147
 10
2221.122199201971
 20
-1558.384691672765
 10
2221.122199201971
 20
-1558.384691672765
 10
2221.122199201971
 20
-1558.384691672765
 10
1787.332804345788
 20
-2256.282524030054
 10
1787.332804345788
 20
-2256.282524030054
 97
        0
 97
        0
 75
     2
 76
     1
 98
        0
  0
ENDSEC
  0
SECTION
  2
OBJECTS
  0
DICTIONARY
  5
C
330
0
100
AcDbDictionary
281
     1
  3
ACAD_GROUP
350
D
  3
ACAD_LAYOUT
350
1A
  3
ACAD_MATERIAL
350
3B
  3
ACAD_MLEADERSTYLE
350
4B
  3
ACAD_MLINESTYLE
350
17
  3
ACAD_PLOTSETTINGS
350
19
  3
ACAD_PLOTSTYLENAME
350
E
  3
ACAD_TABLESTYLE
350
4A
  3
ACAD_VISUALSTYLE
350
2A
  0
SUN
  5
3F
330
29
100
AcDbSun
 90
        1
290
     0
 63
     7
421
 16777215
 40
1.0
291
     1
 91
  2455826
 92
 54000000
292
     0
 70
     2
 71
   256
280
     1
  0
DICTIONARY
  5
D
102
{ACAD_REACTORS
330
C
102
}
330
C
100
AcDbDictionary
281
     1
  0
DICTIONARY
  5
1A
102
{ACAD_REACTORS
330
C
102
}
330
C
100
AcDbDictionary
281
     1
  3
Layout1
350
1E
  3
Layout2
350
26
  3
Model
350
22
  0
DICTIONARY
  5
3B
102
{ACAD_REACTORS
330
C
102
}
330
C
100
AcDbDictionary
281
     1
  3
ByBlock
350
3D
  3
ByLayer
350
3C
  3
Global
350
3E
  0
DICTIONARY
  5
4B
102
{ACAD_REACTORS
330
C
102
}
330
C
100
AcDbDictionary
281
     1
  0
DICTIONARY
  5
17
102
{ACAD_REACTORS
330
C
102
}
330
C
100
AcDbDictionary
281
     1
  3
Standard
350
18
  0
DICTIONARY
  5
19
102
{ACAD_REACTORS
330
C
102
}
330
C
100
AcDbDictionary
281
     1
  0
ACDBDICTIONARYWDFLT
  5
E
102
{ACAD_REACTORS
330
C
102
}
330
C
100
AcDbDictionary
281
     1
  3
Normal
350
F
100
AcDbDictionaryWithDefault
340
F
  0
DICTIONARY
  5
4A
102
{ACAD_REACTORS
330
C
102
}
330
C
100
AcDbDictionary
281
     1
  0
DICTIONARY
  5
2A
102
{ACAD_REACTORS
330
C
102
}
330
C
100
AcDbDictionary
281
     1
  3
2dWireframe
350
2F
  3
3D Hidden
350
31
  3
3dWireframe
350
30
  3
Basic
350
32
  3
Brighten
350
36
  3
ColorChange
350
3A
  3
Conceptual
350
34
  3
Dim
350
35
  3
Facepattern
350
39
  3
Flat
350
2B
  3
FlatWithEdges
350
2C
  3
Gouraud
350
2D
  3
GouraudWithEdges
350
2E
  3
Linepattern
350
38
  3
Realistic
350
33
  3
Thicken
350
37
  0
LAYOUT
  5
1E
102
{ACAD_REACTORS
330
1A
102
}
330
1A
100
AcDbPlotSettings
  1

  2
none_device
  4

  6

 40
0.0
 41
0.0
 42
0.0
 43
0.0
 44
0.0
 45
0.0
 46
0.0
 47
0.0
 48
0.0
 49
0.0
140
0.0
141
0.0
142
1.0
143
1.0
 70
   688
 72
     0
 73
     0
 74
     5
  7

 75
    16
 76
     0
 77
     2
 78
   300
147
1.0
148
0.0
149
0.0
100
AcDbLayout
  1
Layout1
 70
     1
 71
     1
 10
0.0
 20
0.0
 11
12.0
 21
9.0
 12
0.0
 22
0.0
 32
0.0
 14
1.000000000000000E+20
 24
1.000000000000000E+20
 34
1.000000000000000E+20
 15
-1.000000000000000E+20
 25
-1.000000000000000E+20
 35
-1.000000000000000E+20
146
0.0
 13
0.0
 23
0.0
 33
0.0
 16
1.0
 26
0.0
 36
0.0
 17
0.0
 27
1.0
 37
0.0
 76
     0
330
1B
  0
LAYOUT
  5
26
102
{ACAD_REACTORS
330
1A
102
}
330
1A
100
AcDbPlotSettings
  1

  2
none_device
  4

  6

 40
0.0
 41
0.0
 42
0.0
 43
0.0
 44
0.0
 45
0.0
 46
0.0
 47
0.0
 48
0.0
 49
0.0
140
0.0
141
0.0
142
1.0
143
1.0
 70
   688
 72
     0
 73
     0
 74
     5
  7

 75
    16
 76
     0
 77
     2
 78
   300
147
1.0
148
0.0
149
0.0
100
AcDbLayout
  1
Layout2
 70
     1
 71
     2
 10
0.0
 20
0.0
 11
0.0
 21
0.0
 12
0.0
 22
0.0
 32
0.0
 14
0.0
 24
0.0
 34
0.0
 15
0.0
 25
0.0
 35
0.0
146
0.0
 13
0.0
 23
0.0
 33
0.0
 16
1.0
 26
0.0
 36
0.0
 17
0.0
 27
1.0
 37
0.0
 76
     0
330
23
  0
LAYOUT
  5
22
102
{ACAD_REACTORS
330
1A
102
}
330
1A
100
AcDbPlotSettings
  1

  2
none_device
  4

  6

 40
0.0
 41
0.0
 42
0.0
 43
0.0
 44
0.0
 45
0.0
 46
0.0
 47
0.0
 48
0.0
 49
0.0
140
0.0
141
0.0
142
1.0
143
1.0
 70
  1712
 72
     0
 73
     0
 74
     0
  7

 75
     0
 76
     0
 77
     2
 78
   300
147
1.0
148
0.0
149
0.0
100
AcDbLayout
  1
Model
 70
     1
 71
     0
 10
0.0
 20
0.0
 11
12.0
 21
9.0
 12
0.0
 22
0.0
 32
0.0
 14
1.000000000000000E+20
 24
1.000000000000000E+20
 34
1.000000000000000E+20
 15
-1.000000000000000E+20
 25
-1.000000000000000E+20
 35
-1.000000000000000E+20
146
0.0
 13
0.0
 23
0.0
 33
0.0
 16
1.0
 26
0.0
 36
0.0
 17
0.0
 27
1.0
 37
0.0
 76
     0
330
1F
331
29
  0
MATERIAL
  5
3D
102
{ACAD_REACTORS
330
3B
102
}
330
3B
100
AcDbMaterial
  1
ByBlock
 72
     1
 94
      127
  0
MATERIAL
  5
3C
102
{ACAD_REACTORS
330
3B
102
}
330
3B
100
AcDbMaterial
  1
ByLayer
 72
     1
 94
      127
  0
MATERIAL
  5
3E
102
{ACAD_REACTORS
330
3B
102
}
330
3B
100
AcDbMaterial
  1
Global
 72
     1
 94
      127
  0
MLINESTYLE
  5
18
102
{ACAD_REACTORS
330
17
102
}
330
17
100
AcDbMlineStyle
  2
Standard
 70
     0
  3

 62
   256
 51
90.0
 52
90.0
 71
     2
 49
0.5
 62
   256
  6
BYLAYER
 49
-0.5
 62
   256
  6
BYLAYER
  0
ACDBPLACEHOLDER
  5
F
102
{ACAD_REACTORS
330
E
102
}
330
E
  0
VISUALSTYLE
  5
2F
102
{ACAD_REACTORS
330
2A
102
}
330
2A
100
AcDbVisualStyle
  2
2dWireframe
 70
     4
177
     2
291
     0
 71
     0
176
     1
 72
     2
176
     1
 73
     0
176
     1
 90
        0
176
     1
 40
-0.6
176
     1
 41
-30.0
176
     1
 62
     5
 63
     7
421
 16777215
176
     1
 74
     1
176
     1
 91
        4
176
     1
 64
     7
176
     1
 65
   257
176
     1
 75
     1
176
     1
175
     1
176
     1
 42
1.0
176
     1
 92
        0
176
     1
 66
   257
176
     1
 43
1.0
176
     1
 76
     1
176
     1
 77
     6
176
     1
 78
     2
176
     1
 67
     7
176
     1
 79
     5
176
     1
170
     0
176
     1
171
     0
176
     1
290
     0
176
     1
 93
        1
176
     1
 44
0.0
176
     1
173
     0
176
     1
  0
VISUALSTYLE
  5
31
102
{ACAD_REACTORS
330
2A
102
}
330
2A
100
AcDbVisualStyle
  2
3D Hidden
 70
     6
177
     2
291
     0
 71
     1
176
     1
 72
     2
176
     1
 73
     2
176
     1
 90
        0
176
     1
 40
-0.6
176
     1
 41
-30.0
176
     1
 62
     5
 63
     7
421
 16777215
176
     1
 74
     2
176
     1
 91
        2
176
     1
 64
     7
176
     1
 65
   257
176
     1
 75
     2
176
     1
175
     1
176
     1
 42
40.0
176
     1
 92
        0
176
     1
 66
   257
176
     1
 43
1.0
176
     1
 76
     1
176
     1
 77
     6
176
     1
 78
     2
176
     1
 67
     7
176
     1
 79
     3
176
     1
170
     0
176
     1
171
     0
176
     1
290
     0
176
     1
 93
        1
176
     1
 44
0.0
176
     1
173
     0
176
     1
  0
VISUALSTYLE
  5
30
102
{ACAD_REACTORS
330
2A
102
}
330
2A
100
AcDbVisualStyle
  2
3dWireframe
 70
     5
177
     2
291
     0
 71
     0
176
     1
 72
     2
176
     1
 73
     0
176
     1
 90
        0
176
     1
 40
-0.6
176
     1
 41
-30.0
176
     1
 62
     5
 63
     7
421
 16777215
176
     1
 74
     1
176
     1
 91
        4
176
     1
 64
     7
176
     1
 65
   257
176
     1
 75
     1
176
     1
175
     1
176
     1
 42
1.0
176
     1
 92
        0
176
     1
 66
   257
176
     1
 43
1.0
176
     1
 76
     1
176
     1
 77
     6
176
     1
 78
     2
176
     1
 67
     7
176
     1
 79
     5
176
     1
170
     0
176
     1
171
     0
176
     1
290
     0
176
     1
 93
        1
176
     1
 44
0.0
176
     1
173
     0
176
     1
  0
VISUALSTYLE
  5
32
102
{ACAD_REACTORS
330
2A
102
}
330
2A
100
AcDbVisualStyle
  2
Basic
 70
     7
177
     2
291
     1
 71
     1
176
     1
 72
     0
176
     1
 73
     1
176
     1
 90
        0
176
     1
 40
-0.6
176
     1
 41
-30.0
176
     1
 62
     5
 63
     7
421
 16777215
176
     1
 74
     0
176
     1
 91
        4
176
     1
 64
     7
176
     1
 65
   257
176
     1
 75
     1
176
     1
175
     1
176
     1
 42
1.0
176
     1
 92
        8
176
     1
 66
     7
176
     1
 43
1.0
176
     1
 76
     1
176
     1
 77
     6
176
     1
 78
     2
176
     1
 67
     7
176
     1
 79
     5
176
     1
170
     0
176
     1
171
     0
176
     1
290
     0
176
     1
 93
        1
176
     1
 44
0.0
176
     1
173
     0
176
     1
  0
VISUALSTYLE
  5
36
102
{ACAD_REACTORS
330
2A
102
}
330
2A
100
AcDbVisualStyle
  2
Brighten
 70
    12
177
     2
291
     1
 71
     2
176
     1
 72
     2
176
     1
 73
     0
176
     1
 90
        0
176
     1
 40
-0.6
176
     1
 41
-30.0
176
     1
 62
     5
 63
     7
421
 16777215
176
     1
 74
     1
176
     1
 91
        4
176
     1
 64
     7
176
     1
 65
   257
176
     1
 75
     1
176
     1
175
     1
176
     1
 42
1.0
176
     1
 92
        8
176
     1
 66
     7
176
     1
 43
1.0
176
     1
 76
     1
176
     1
 77
     6
176
     1
 78
     2
176
     1
 67
     7
176
     1
 79
     5
176
     1
170
     0
176
     1
171
     0
176
     1
290
     0
176
     1
 93
        1
176
     1
 44
50.0
176
     1
173
     0
176
     1
  0
VISUALSTYLE
  5
3A
102
{ACAD_REACTORS
330
2A
102
}
330
2A
100
AcDbVisualStyle
  2
ColorChange
 70
    16
177
     2
291
     1
 71
     2
176
     1
 72
     2
176
     1
 73
     3
176
     1
 90
        0
176
     1
 40
-0.6
176
     1
 41
-30.0
176
     1
 62
     5
 63
     8
421
  8421504
176
     1
 74
     1
176
     1
 91
        4
176
     1
 64
     7
176
     1
 65
   257
176
     1
 75
     1
176
     1
175
     1
176
     1
 42
1.0
176
     1
 92
        8
176
     1
 66
     8
424
  8421504
176
     1
 43
1.0
176
     1
 76
     1
176
     1
 77
     6
176
     1
 78
     2
176
     1
 67
     7
176
     1
 79
     5
176
     1
170
     0
176
     1
171
     0
176
     1
290
     0
176
     1
 93
        1
176
     1
 44
0.0
176
     1
173
     0
176
     1
  0
VISUALSTYLE
  5
34
102
{ACAD_REACTORS
330
2A
102
}
330
2A
100
AcDbVisualStyle
  2
Conceptual
 70
     9
177
     2
291
     0
 71
     3
176
     1
 72
     2
176
     1
 73
     0
176
     1
 90
        0
176
     1
 40
-0.6
176
     1
 41
-30.0
176
     1
 62
     5
 63
     7
421
 16777215
176
     1
 74
     2
176
     1
 91
        2
176
     1
 64
     7
176
     1
 65
   257
176
     1
 75
     1
176
     1
175
     1
176
     1
 42
40.0
176
     1
 92
        8
176
     1
 66
     7
176
     1
 43
1.0
176
     1
 76
     1
176
     1
 77
     6
176
     1
 78
     2
176
     1
 67
     7
176
     1
 79
     3
176
     1
170
     0
176
     1
171
     0
176
     1
290
     0
176
     1
 93
        1
176
     1
 44
0.0
176
     1
173
     0
176
     1
  0
VISUALSTYLE
  5
35
102
{ACAD_REACTORS
330
2A
102
}
330
2A
100
AcDbVisualStyle
  2
Dim
 70
    11
177
     2
291
     1
 71
     2
176
     1
 72
     2
176
     1
 73
     0
176
     1
 90
        0
176
     1
 40
-0.6
176
     1
 41
-30.0
176
     1
 62
     5
 63
     7
421
 16777215
176
     1
 74
     1
176
     1
 91
        4
176
     1
 64
     7
176
     1
 65
   257
176
     1
 75
     1
176
     1
175
     1
176
     1
 42
1.0
176
     1
 92
        8
176
     1
 66
     7
176
     1
 43
1.0
176
     1
 76
     1
176
     1
 77
     6
176
     1
 78
     2
176
     1
 67
     7
176
     1
 79
     5
176
     1
170
     0
176
     1
171
     0
176
     1
290
     0
176
     1
 93
        1
176
     1
 44
-50.0
176
     1
173
     0
176
     1
  0
VISUALSTYLE
  5
39
102
{ACAD_REACTORS
330
2A
102
}
330
2A
100
AcDbVisualStyle
  2
Facepattern
 70
    15
177
     2
291
     1
 71
     2
176
     1
 72
     2
176
     1
 73
     0
176
     1
 90
        0
176
     1
 40
-0.6
176
     1
 41
-30.0
176
     1
 62
     5
 63
     7
421
 16777215
176
     1
 74
     1
176
     1
 91
        4
176
     1
 64
     7
176
     1
 65
   257
176
     1
 75
     1
176
     1
175
     1
176
     1
 42
1.0
176
     1
 92
        8
176
     1
 66
     7
176
     1
 43
1.0
176
     1
 76
     1
176
     1
 77
     6
176
     1
 78
     2
176
     1
 67
     7
176
     1
 79
     5
176
     1
170
     0
176
     1
171
     0
176
     1
290
     0
176
     1
 93
        1
176
     1
 44
0.0
176
     1
173
     0
176
     1
  0
VISUALSTYLE
  5
2B
102
{ACAD_REACTORS
330
2A
102
}
330
2A
100
AcDbVisualStyle
  2
Flat
 70
     0
177
     2
291
     1
 71
     2
176
     1
 72
     1
176
     1
 73
     1
176
     1
 90
        2
176
     1
 40
-0.6
176
     1
 41
30.0
176
     1
 62
     5
 63
     7
421
 16777215
176
     1
 74
     0
176
     1
 91
        4
176
     1
 64
     7
176
     1
 65
   257
176
     1
 75
     1
176
     1
175
     1
176
     1
 42
1.0
176
     1
 92
        8
176
     1
 66
     7
176
     1
 43
1.0
176
     1
 76
     1
176
     1
 77
     6
176
     1
 78
     2
176
     1
 67
     7
176
     1
 79
     5
176
     1
170
     0
176
     1
171
     0
176
     1
290
     0
176
     1
 93
       13
176
     1
 44
0.0
176
     1
173
     0
176
     1
  0
VISUALSTYLE
  5
2C
102
{ACAD_REACTORS
330
2A
102
}
330
2A
100
AcDbVisualStyle
  2
FlatWithEdges
 70
     1
177
     2
291
     1
 71
     2
176
     1
 72
     1
176
     1
 73
     1
176
     1
 90
        2
176
     1
 40
-0.6
176
     1
 41
30.0
176
     1
 62
     5
 63
     7
421
 16777215
176
     1
 74
     1
176
     1
 91
        4
176
     1
 64
     7
176
     1
 65
   257
176
     1
 75
     1
176
     1
175
     1
176
     1
 42
1.0
176
     1
 92
        0
176
     1
 66
   257
176
     1
 43
1.0
176
     1
 76
     1
176
     1
 77
     6
176
     1
 78
     2
176
     1
 67
     7
176
     1
 79
     5
176
     1
170
     0
176
     1
171
     0
176
     1
290
     0
176
     1
 93
       13
176
     1
 44
0.0
176
     1
173
     0
176
     1
  0
VISUALSTYLE
  5
2D
102
{ACAD_REACTORS
330
2A
102
}
330
2A
100
AcDbVisualStyle
  2
Gouraud
 70
     2
177
     2
291
     1
 71
     2
176
     1
 72
     2
176
     1
 73
     1
176
     1
 90
        2
176
     1
 40
-0.6
176
     1
 41
30.0
176
     1
 62
     5
 63
     7
421
 16777215
176
     1
 74
     0
176
     1
 91
        4
176
     1
 64
     7
176
     1
 65
   257
176
     1
 75
     1
176
     1
175
     1
176
     1
 42
1.0
176
     1
 92
        0
176
     1
 66
     7
176
     1
 43
1.0
176
     1
 76
     1
176
     1
 77
     6
176
     1
 78
     2
176
     1
 67
     7
176
     1
 79
     5
176
     1
170
     0
176
     1
171
     0
176
     1
290
     0
176
     1
 93
       13
176
     1
 44
0.0
176
     1
173
     0
176
     1
  0
VISUALSTYLE
  5
2E
102
{ACAD_REACTORS
330
2A
102
}
330
2A
100
AcDbVisualStyle
  2
GouraudWithEdges
 70
     3
177
     2
291
     1
 71
     2
176
     1
 72
     2
176
     1
 73
     1
176
     1
 90
        2
176
     1
 40
-0.6
176
     1
 41
30.0
176
     1
 62
     5
 63
     7
421
 16777215
176
     1
 74
     1
176
     1
 91
        4
176
     1
 64
     7
176
     1
 65
   257
176
     1
 75
     1
176
     1
175
     1
176
     1
 42
1.0
176
     1
 92
        0
176
     1
 66
   257
176
     1
 43
1.0
176
     1
 76
     1
176
     1
 77
     6
176
     1
 78
     2
176
     1
 67
     7
176
     1
 79
     5
176
     1
170
     0
176
     1
171
     0
176
     1
290
     0
176
     1
 93
       13
176
     1
 44
0.0
176
     1
173
     0
176
     1
  0
VISUALSTYLE
  5
38
102
{ACAD_REACTORS
330
2A
102
}
330
2A
100
AcDbVisualStyle
  2
Linepattern
 70
    14
177
     2
291
     1
 71
     2
176
     1
 72
     2
176
     1
 73
     0
176
     1
 90
        0
176
     1
 40
-0.6
176
     1
 41
-30.0
176
     1
 62
     5
 63
     7
421
 16777215
176
     1
 74
     1
176
     1
 91
        4
176
     1
 64
     7
176
     1
 65
   257
176
     1
 75
     7
176
     1
175
     7
176
     1
 42
1.0
176
     1
 92
        8
176
     1
 66
     7
176
     1
 43
1.0
176
     1
 76
     1
176
     1
 77
     6
176
     1
 78
     2
176
     1
 67
     7
176
     1
 79
     5
176
     1
170
     0
176
     1
171
     0
176
     1
290
     0
176
     1
 93
        1
176
     1
 44
0.0
176
     1
173
     0
176
     1
  0
VISUALSTYLE
  5
33
102
{ACAD_REACTORS
330
2A
102
}
330
2A
100
AcDbVisualStyle
  2
Realistic
 70
     8
177
     2
291
     0
 71
     2
176
     1
 72
     2
176
     1
 73
     0
176
     1
 90
        0
176
     1
 40
-0.6
176
     1
 41
-30.0
176
     1
 62
     5
 63
     7
421
 16777215
176
     1
 74
     1
176
     1
 91
        0
176
     1
 64
     7
176
     1
 65
   257
176
     1
 75
     1
176
     1
175
     1
176
     1
 42
1.0
176
     1
 92
        8
176
     1
 66
     8
424
  7895160
176
     1
 43
1.0
176
     1
 76
     1
176
     1
 77
     6
176
     1
 78
     2
176
     1
 67
     7
176
     1
 79
     5
176
     1
170
     0
176
     1
171
     0
176
     1
290
     0
176
     1
 93
       13
176
     1
 44
0.0
176
     1
173
     0
176
     1
  0
VISUALSTYLE
  5
37
102
{ACAD_REACTORS
330
2A
102
}
330
2A
100
AcDbVisualStyle
  2
Thicken
 70
    13
177
     2
291
     1
 71
     2
176
     1
 72
     2
176
     1
 73
     0
176
     1
 90
        0
176
     1
 40
-0.6
176
     1
 41
-30.0
176
     1
 62
     5
 63
     7
421
 16777215
176
     1
 74
     1
176
     1
 91
        4
176
     1
 64
     7
176
     1
 65
   257
176
     1
 75
     1
176
     1
175
     1
176
     1
 42
1.0
176
     1
 92
       12
176
     1
 66
     7
176
     1
 43
1.0
176
     1
 76
     1
176
     1
 77
     6
176
     1
 78
     2
176
     1
 67
     7
176
     1
 79
     5
176
     1
170
     0
176
     1
171
     0
176
     1
290
     0
176
     1
 93
        1
176
     1
 44
0.0
176
     1
173
     0
176
     1
  0
ENDSEC
  0
EOF
