  0
SECTION
  2
HEADER
  9
$ACADVER
  1
AC1018
  9
$ACADMAINTVER
 70
     0
  9
$DWGCODEPAGE
  3
ANSI_1252
  9
$INSBASE
 10
0.0
 20
0.0
 30
0.0
  9
$EXTMIN
 10
1.000000000000000E+20
 20
1.000000000000000E+20
 30
1.000000000000000E+20
  9
$EXTMAX
 10
-1.000000000000000E+20
 20
-1.000000000000000E+20
 30
-1.000000000000000E+20
  9
$LIMMIN
 10
0.0
 20
0.0
  9
$LIMMAX
 10
12.0
 20
9.0
  9
$ORTHOMODE
 70
     0
  9
$REGENMODE
 70
     1
  9
$FILLMODE
 70
     1
  9
$QTEXTMODE
 70
     0
  9
$MIRRTEXT
 70
     1
  9
$LTSCALE
 40
1.0
  9
$ATTMODE
 70
     1
  9
$TEXTSIZE
 40
0.2
  9
$TRACEWID
 40
0.05
  9
$TEXTSTYLE
  7
Standard
  9
$CLAYER
  8
0
  9
$CELTYPE
  6
ByLayer
  9
$CECOLOR
 62
   256
  9
$CELTSCALE
 40
1.0
  9
$DISPSILH
 70
     0
  9
$DIMSCALE
 40
1.0
  9
$DIMASZ
 40
0.18
  9
$DIMEXO
 40
0.0625
  9
$DIMDLI
 40
0.38
  9
$DIMRND
 40
0.0
  9
$DIMDLE
 40
0.0
  9
$DIMEXE
 40
0.18
  9
$DIMTP
 40
0.0
  9
$DIMTM
 40
0.0
  9
$DIMTXT
 40
0.18
  9
$DIMCEN
 40
0.09
  9
$DIMTSZ
 40
0.0
  9
$DIMTOL
 70
     0
  9
$DIMLIM
 70
     0
  9
$DIMTIH
 70
     1
  9
$DIMTOH
 70
     1
  9
$DIMSE1
 70
     0
  9
$DIMSE2
 70
     0
  9
$DIMTAD
 70
     0
  9
$DIMZIN
 70
     0
  9
$DIMBLK
  1

  9
$DIMASO
 70
     1
  9
$DIMSHO
 70
     1
  9
$DIMPOST
  1

  9
$DIMAPOST
  1

  9
$DIMALT
 70
     0
  9
$DIMALTD
 70
     2
  9
$DIMALTF
 40
25.4
  9
$DIMLFAC
 40
1.0
  9
$DIMTOFL
 70
     0
  9
$DIMTVP
 40
0.0
  9
$DIMTIX
 70
     0
  9
$DIMSOXD
 70
     0
  9
$DIMSAH
 70
     0
  9
$DIMBLK1
  1

  9
$DIMBLK2
  1

  9
$DIMSTYLE
  2
Standard
  9
$DIMCLRD
 70
     0
  9
$DIMCLRE
 70
     0
  9
$DIMCLRT
 70
     0
  9
$DIMTFAC
 40
1.0
  9
$DIMGAP
 40
0.09
  9
$DIMJUST
 70
     0
  9
$DIMSD1
 70
     0
  9
$DIMSD2
 70
     0
  9
$DIMTOLJ
 70
     1
  9
$DIMTZIN
 70
     0
  9
$DIMALTZ
 70
     0
  9
$DIMALTTZ
 70
     0
  9
$DIMUPT
 70
     0
  9
$DIMDEC
 70
     4
  9
$DIMTDEC
 70
     4
  9
$DIMALTU
 70
     2
  9
$DIMALTTD
 70
     2
  9
$DIMTXSTY
  7
Standard
  9
$DIMAUNIT
 70
     0
  9
$DIMADEC
 70
     0
  9
$DIMALTRND
 40
0.0
  9
$DIMAZIN
 70
     0
  9
$DIMDSEP
 70
    46
  9
$DIMATFIT
 70
     3
  9
$DIMFRAC
 70
     0
  9
$DIMLDRBLK
  1

  9
$DIMLUNIT
 70
     2
  9
$DIMLWD
 70
    -2
  9
$DIMLWE
 70
    -2
  9
$DIMTMOVE
 70
     0
  9
$LUNITS
 70
     2
  9
$LUPREC
 70
     4
  9
$SKETCHINC
 40
0.1
  9
$FILLETRAD
 40
0.5
  9
$AUNITS
 70
     0
  9
$AUPREC
 70
     0
  9
$MENU
  1
.
  9
$ELEVATION
 40
0.0
  9
$PELEVATION
 40
0.0
  9
$THICKNESS
 40
0.0
  9
$LIMCHECK
 70
     0
  9
$CHAMFERA
 40
0.5
  9
$CHAMFERB
 40
0.5
  9
$CHAMFERC
 40
1.0
  9
$CHAMFERD
 40
0.0
  9
$SKPOLY
 70
     0
  9
$TDCREATE
 40
2455736.686459699
  9
$TDUCREATE
 40
2455736.936459699
  9
$TDUPDATE
 40
2455736.686459711
  9
$TDUUPDATE
 40
2455736.936459711
  9
$TDINDWG
 40
0.0000000116
  9
$TDUSRTIMER
 40
0.0000000116
  9
$USRTIMER
 70
     1
  9
$ANGBASE
 50
0.0
  9
$ANGDIR
 70
     0
  9
$PDMODE
 70
     0
  9
$PDSIZE
 40
0.0
  9
$PLINEWID
 40
0.0
  9
$SPLFRAME
 70
     0
  9
$SPLINETYPE
 70
     6
  9
$SPLINESEGS
 70
     8
  9
$HANDSEED
  5
4F
  9
$SURFTAB1
 70
     6
  9
$SURFTAB2
 70
     6
  9
$SURFTYPE
 70
     6
  9
$SURFU
 70
     6
  9
$SURFV
 70
     6
  9
$UCSBASE
  2

  9
$UCSNAME
  2

  9
$UCSORG
 10
0.0
 20
0.0
 30
0.0
  9
$UCSXDIR
 10
1.0
 20
0.0
 30
0.0
  9
$UCSYDIR
 10
0.0
 20
1.0
 30
0.0
  9
$UCSORTHOREF
  2

  9
$UCSORTHOVIEW
 70
     0
  9
$UCSORGTOP
 10
0.0
 20
0.0
 30
0.0
  9
$UCSORGBOTTOM
 10
0.0
 20
0.0
 30
0.0
  9
$UCSORGLEFT
 10
0.0
 20
0.0
 30
0.0
  9
$UCSORGRIGHT
 10
0.0
 20
0.0
 30
0.0
  9
$UCSORGFRONT
 10
0.0
 20
0.0
 30
0.0
  9
$UCSORGBACK
 10
0.0
 20
0.0
 30
0.0
  9
$PUCSBASE
  2

  9
$PUCSNAME
  2

  9
$PUCSORG
 10
0.0
 20
0.0
 30
0.0
  9
$PUCSXDIR
 10
1.0
 20
0.0
 30
0.0
  9
$PUCSYDIR
 10
0.0
 20
1.0
 30
0.0
  9
$PUCSORTHOREF
  2

  9
$PUCSORTHOVIEW
 70
     0
  9
$PUCSORGTOP
 10
0.0
 20
0.0
 30
0.0
  9
$PUCSORGBOTTOM
 10
0.0
 20
0.0
 30
0.0
  9
$PUCSORGLEFT
 10
0.0
 20
0.0
 30
0.0
  9
$PUCSORGRIGHT
 10
0.0
 20
0.0
 30
0.0
  9
$PUCSORGFRONT
 10
0.0
 20
0.0
 30
0.0
  9
$PUCSORGBACK
 10
0.0
 20
0.0
 30
0.0
  9
$USERI1
 70
     0
  9
$USERI2
 70
     0
  9
$USERI3
 70
     0
  9
$USERI4
 70
     0
  9
$USERI5
 70
     0
  9
$USERR1
 40
0.0
  9
$USERR2
 40
0.0
  9
$USERR3
 40
0.0
  9
$USERR4
 40
0.0
  9
$USERR5
 40
0.0
  9
$WORLDVIEW
 70
     1
  9
$SHADEDGE
 70
     3
  9
$SHADEDIF
 70
    70
  9
$TILEMODE
 70
     1
  9
$MAXACTVP
 70
    64
  9
$PINSBASE
 10
0.0
 20
0.0
 30
0.0
  9
$PLIMCHECK
 70
     0
  9
$PEXTMIN
 10
1.000000000000000E+20
 20
1.000000000000000E+20
 30
1.000000000000000E+20
  9
$PEXTMAX
 10
-1.000000000000000E+20
 20
-1.000000000000000E+20
 30
-1.000000000000000E+20
  9
$PLIMMIN
 10
0.0
 20
0.0
  9
$PLIMMAX
 10
12.0
 20
9.0
  9
$UNITMODE
 70
     0
  9
$VISRETAIN
 70
     1
  9
$PLINEGEN
 70
     0
  9
$PSLTSCALE
 70
     1
  9
$TREEDEPTH
 70
  3020
  9
$CMLSTYLE
  2
Standard
  9
$CMLJUST
 70
     0
  9
$CMLSCALE
 40
1.0
  9
$PROXYGRAPHICS
 70
     1
  9
$MEASUREMENT
 70
     0
  9
$CELWEIGHT
370
    -1
  9
$ENDCAPS
280
     0
  9
$JOINSTYLE
280
     0
  9
$LWDISPLAY
290
     1
  9
$INSUNITS
 70
     1
  9
$HYPERLINKBASE
  1

  9
$STYLESHEET
  1

  9
$XEDIT
290
     1
  9
$CEPSNTYPE
380
     0
  9
$PSTYLEMODE
290
     1
  9
$FINGERPRINTGUID
  2
{429DB4DC-6BA0-40F2-A385-CA58BD20B7C2}
  9
$VERSIONGUID
  2
{FAEB1C32-E019-11D5-929B-00C0DF256EC4}
  9
$EXTNAMES
290
     1
  9
$PSVPSCALE
 40
0.0
  9
$OLESTARTUP
290
     0
  9
$SORTENTS
280
   127
  9
$INDEXCTL
280
     0
  9
$HIDETEXT
280
     1
  9
$XCLIPFRAME
290
     0
  9
$HALOGAP
280
     0
  9
$OBSCOLOR
 70
   257
  9
$OBSLTYPE
280
     0
  9
$INTERSECTIONDISPLAY
280
     0
  9
$INTERSECTIONCOLOR
 70
   257
  9
$DIMASSOC
280
     2
  9
$PROJECTNAME
  1

  0
ENDSEC
  0
SECTION
  2
CLASSES
  0
CLASS
  1
ACDBDICTIONARYWDFLT
  2
AcDbDictionaryWithDefault
  3
ObjectDBX Classes
 90
        0
 91
        3
280
     0
281
     0
  0
CLASS
  1
VISUALSTYLE
  2
AcDbVisualStyle
  3
ObjectDBX Classes
 90
     4095
 91
        3
280
     0
281
     0
  0
ENDSEC
  0
SECTION
  2
TABLES
  0
TABLE
  2
VPORT
  5
8
330
0
100
AcDbSymbolTable
 70
     1
  0
VPORT
  5
29
330
8
100
AcDbSymbolTableRecord
100
AcDbViewportTableRecord
  2
*Active
 70
     0
 10
0.0
 20
0.0
 11
1.0
 21
1.0
 12
0.0
 22
0.0
 13
0.0
 23
0.0
 14
0.5
 24
0.5
 15
0.5
 25
0.5
 16
0.0
 26
0.0
 36
1.0
 17
50.7999999873
 27
21.83811577145019
 37
0.0
 40
43.67623154290039
 41
2.326208017163861
 42
50.0
 43
0.0
 44
0.0
 50
0.0
 51
0.0
 71
     0
 72
   100
 73
     1
 74
     3
 75
     0
 76
     0
 77
     0
 78
     0
281
     0
 65
     1
110
0.0
120
0.0
130
0.0
111
1.0
121
0.0
131
0.0
112
0.0
122
1.0
132
0.0
 79
     0
146
0.0
  0
ENDTAB
  0
TABLE
  2
LTYPE
  5
5
330
0
100
AcDbSymbolTable
 70
     1
  0
LTYPE
  5
14
330
5
100
AcDbSymbolTableRecord
100
AcDbLinetypeTableRecord
  2
ByBlock
 70
     0
  3

 72
    65
 73
     0
 40
0.0
  0
LTYPE
  5
15
330
5
100
AcDbSymbolTableRecord
100
AcDbLinetypeTableRecord
  2
ByLayer
 70
     0
  3

 72
    65
 73
     0
 40
0.0
  0
LTYPE
  5
16
330
5
100
AcDbSymbolTableRecord
100
AcDbLinetypeTableRecord
  2
Continuous
 70
     0
  3
Solid line
 72
    65
 73
     0
 40
0.0
  0
ENDTAB
  0
TABLE
  2
LAYER
  5
2
330
0
100
AcDbSymbolTable
 70
     2
  0
LAYER
  5
10
330
2
100
AcDbSymbolTableRecord
100
AcDbLayerTableRecord
  2
0
 70
     0
 62
     7
  6
Continuous
370
    -3
390
F
  0
LAYER
  5
3B
330
2
100
AcDbSymbolTableRecord
100
AcDbLayerTableRecord
  2
Layer 1
 70
     0
 62
     7
  6
Continuous
370
    -3
390
F
  0
ENDTAB
  0
TABLE
  2
STYLE
  5
3
330
0
100
AcDbSymbolTable
 70
     1
  0
STYLE
  5
11
330
3
100
AcDbSymbolTableRecord
100
AcDbTextStyleTableRecord
  2
Standard
 70
     0
 40
0.0
 41
1.0
 50
0.0
 71
     0
 42
0.2
  3
txt
  4

  0
ENDTAB
  0
TABLE
  2
VIEW
  5
6
330
0
100
AcDbSymbolTable
 70
     0
  0
ENDTAB
  0
TABLE
  2
UCS
  5
7
330
0
100
AcDbSymbolTable
 70
     0
  0
ENDTAB
  0
TABLE
  2
APPID
  5
9
330
0
100
AcDbSymbolTable
 70
     1
  0
APPID
  5
12
330
9
100
AcDbSymbolTableRecord
100
AcDbRegAppTableRecord
  2
ACAD
 70
     0
  0
ENDTAB
  0
TABLE
  2
DIMSTYLE
  5
A
330
0
100
AcDbSymbolTable
 70
     1
100
AcDbDimStyleTable
  0
DIMSTYLE
105
27
330
A
100
AcDbSymbolTableRecord
100
AcDbDimStyleTableRecord
  2
Standard
 70
     0
340
11
  0
ENDTAB
  0
TABLE
  2
BLOCK_RECORD
  5
1
330
0
100
AcDbSymbolTable
 70
     1
  0
BLOCK_RECORD
  5
1F
330
1
100
AcDbSymbolTableRecord
100
AcDbBlockTableRecord
  2
*Model_Space
340
22
  0
BLOCK_RECORD
  5
1B
330
1
100
AcDbSymbolTableRecord
100
AcDbBlockTableRecord
  2
*Paper_Space
340
1E
  0
BLOCK_RECORD
  5
23
330
1
100
AcDbSymbolTableRecord
100
AcDbBlockTableRecord
  2
*Paper_Space0
340
26
  0
ENDTAB
  0
ENDSEC
  0
SECTION
  2
BLOCKS
  0
BLOCK
  5
20
330
1F
100
AcDbEntity
  8
0
100
AcDbBlockBegin
  2
*Model_Space
 70
     0
 71
     0
 10
0.0
 20
0.0
 30
0.0
  3
*Model_Space
  1

  0
ENDBLK
  5
21
330
1F
100
AcDbEntity
  8
0
100
AcDbBlockEnd
  0
BLOCK
  5
1C
330
1B
100
AcDbEntity
 67
     1
  8
0
100
AcDbBlockBegin
  2
*Paper_Space
 70
     0
 71
     0
 10
0.0
 20
0.0
 30
0.0
  3
*Paper_Space
  1

  0
ENDBLK
  5
1D
330
1B
100
AcDbEntity
 67
     1
  8
0
100
AcDbBlockEnd
  0
BLOCK
  5
24
330
23
100
AcDbEntity
  8
0
100
AcDbBlockBegin
  2
*Paper_Space0
 70
     0
 71
     0
 10
0.0
 20
0.0
 30
0.0
  3
*Paper_Space0
  1

  0
ENDBLK
  5
25
330
23
100
AcDbEntity
  8
0
100
AcDbBlockEnd
  0
ENDSEC
  0
SECTION
  2
ENTITIES
  0
SPLINE
  5
3C
330
1F
100
AcDbEntity
  8
Layer 1
370
     0
100
AcDbSpline
210
0.0
220
0.0
230
1.0
 70
    11
 71
     3
 72
   215
 73
   211
 74
     0
 42
0.0000000001
 43
0.0000000001
 40
0.0
 40
0.0
 40
0.0
 40
0.0
 40
1.0
 40
1.0
 40
1.0
 40
2.0
 40
2.0
 40
2.0
 40
3.0
 40
3.0
 40
3.0
 40
4.0
 40
4.0
 40
4.0
 40
5.0
 40
5.0
 40
5.0
 40
6.0
 40
6.0
 40
6.0
 40
7.0
 40
7.0
 40
7.0
 40
8.0
 40
8.0
 40
8.0
 40
9.0
 40
9.0
 40
9.0
 40
10.0
 40
10.0
 40
10.0
 40
11.0
 40
11.0
 40
11.0
 40
12.0
 40
12.0
 40
12.0
 40
13.0
 40
13.0
 40
13.0
 40
14.0
 40
14.0
 40
14.0
 40
15.0
 40
15.0
 40
15.0
 40
16.0
 40
16.0
 40
16.0
 40
17.0
 40
17.0
 40
17.0
 40
18.0
 40
18.0
 40
18.0
 40
19.0
 40
19.0
 40
19.0
 40
20.0
 40
20.0
 40
20.0
 40
21.0
 40
21.0
 40
21.0
 40
22.0
 40
22.0
 40
22.0
 40
23.0
 40
23.0
 40
23.0
 40
24.0
 40
24.0
 40
24.0
 40
25.0
 40
25.0
 40
25.0
 40
26.0
 40
26.0
 40
26.0
 40
27.0
 40
27.0
 40
27.0
 40
28.0
 40
28.0
 40
28.0
 40
29.0
 40
29.0
 40
29.0
 40
30.0
 40
30.0
 40
30.0
 40
31.0
 40
31.0
 40
31.0
 40
32.0
 40
32.0
 40
32.0
 40
33.0
 40
33.0
 40
33.0
 40
34.0
 40
34.0
 40
34.0
 40
35.0
 40
35.0
 40
35.0
 40
36.0
 40
36.0
 40
36.0
 40
37.0
 40
37.0
 40
37.0
 40
38.0
 40
38.0
 40
38.0
 40
39.0
 40
39.0
 40
39.0
 40
40.0
 40
40.0
 40
40.0
 40
41.0
 40
41.0
 40
41.0
 40
42.0
 40
42.0
 40
42.0
 40
43.0
 40
43.0
 40
43.0
 40
44.0
 40
44.0
 40
44.0
 40
45.0
 40
45.0
 40
45.0
 40
46.0
 40
46.0
 40
46.0
 40
47.0
 40
47.0
 40
47.0
 40
48.0
 40
48.0
 40
48.0
 40
49.0
 40
49.0
 40
49.0
 40
50.0
 40
50.0
 40
50.0
 40
51.0
 40
51.0
 40
51.0
 40
52.0
 40
52.0
 40
52.0
 40
53.0
 40
53.0
 40
53.0
 40
54.0
 40
54.0
 40
54.0
 40
55.0
 40
55.0
 40
55.0
 40
56.0
 40
56.0
 40
56.0
 40
57.0
 40
57.0
 40
57.0
 40
58.0
 40
58.0
 40
58.0
 40
59.0
 40
59.0
 40
59.0
 40
60.0
 40
60.0
 40
60.0
 40
61.0
 40
61.0
 40
61.0
 40
62.0
 40
62.0
 40
62.0
 40
63.0
 40
63.0
 40
63.0
 40
64.0
 40
64.0
 40
64.0
 40
65.0
 40
65.0
 40
65.0
 40
66.0
 40
66.0
 40
66.0
 40
67.0
 40
67.0
 40
67.0
 40
68.0
 40
68.0
 40
68.0
 40
69.0
 40
69.0
 40
69.0
 40
70.0
 40
70.0
 40
70.0
 40
70.0
 10
99.16707354291657
 20
31.65043673253878
 30
0.0
 10
95.92902829633024
 20
33.93246798196827
 30
0.0
 10
90.92399357535929
 20
34.53501518233847
 30
0.0
 10
87.14575735668579
 20
34.90191785151758
 30
0.0
 10
84.74555933211222
 20
35.13446179677194
 30
0.0
 10
82.33502602108291
 20
35.29259167954491
 30
0.0
 10
79.92380369095655
 20
35.30775009968001
 30
0.0
 10
72.27913680918716
 20
35.35460339827941
 30
0.0
 10
64.45360241444216
 20
34.13710665379212
 30
0.0
 10
57.81628145255982
 20
30.13321668083475
 30
0.0
 10
56.28700356665742
 20
29.21062010988485
 30
0.0
 10
54.61234265127747
 20
28.38586425071604
 30
0.0
 10
53.23120387124082
 20
27.22417805308979
 30
0.0
 10
52.9773003339779
 20
27.63621147312567
 30
0.0
 10
52.68653427502282
 20
28.0007025754651
 30
0.0
 10
52.35787216572998
 20
28.28940157712904
 30
0.0
 10
53.92711315926128
 20
29.03457573058858
 30
0.0
 10
54.69778101931167
 20
30.6758192197616
 30
0.0
 10
54.16723631458319
 20
31.85438638526557
 30
0.0
 10
53.74211153170337
 20
32.86242132424967
 30
0.0
 10
53.15713431830794
 20
33.80293239172288
 30
0.0
 10
52.43504230459958
 20
34.39858940112258
 30
0.0
 10
52.33306747823618
 20
34.48264973096267
 30
0.0
 10
52.81124673158886
 20
35.69601236086766
 30
0.0
 10
52.85982257793088
 20
35.83691676621439
 30
0.0
 10
53.45375703958796
 20
37.56738822845538
 30
0.0
 10
54.23510469564261
 20
39.26823186952322
 30
0.0
 10
55.24865178740312
 20
40.79406465994037
 30
0.0
 10
55.49635415279258
 20
41.16716850099293
 30
0.0
 10
55.76024846696272
 20
41.53028156513827
 30
0.0
 10
56.04860295907813
 20
41.87306856592063
 30
0.0
 10
56.31800942602467
 20
42.19346244604886
 30
0.0
 10
56.7031711012756
 20
42.48457301455247
 30
0.0
 10
56.89161782431876
 20
42.8628444988329
 30
0.0
 10
56.99049206474543
 20
43.06162650833182
 30
0.0
 10
57.13759764196561
 20
43.59940591357932
 30
0.0
 10
56.81238062815802
 20
43.67175291876956
 30
0.0
 10
56.55330944766723
 20
43.72928601337323
 30
0.0
 10
56.11371526374935
 20
43.21527776697396
 30
0.0
 10
55.94283852768096
 20
43.05645886510394
 30
0.0
 10
54.42906357146218
 20
41.65223794531611
 30
0.0
 10
52.32342121087748
 20
37.4767822171933
 30
0.0
 10
51.33192273022258
 20
34.97977700948422
 30
0.0
 10
51.15966795596009
 20
35.02180717440427
 30
0.0
 10
50.98259004801825
 20
35.04488931415545
 30
0.0
 10
50.80017224207427
 20
35.04454480460692
 30
0.0
 10
50.61792669090455
 20
35.04488931415545
 30
0.0
 10
50.44067652818845
 20
35.02180717440427
 30
0.0
 10
50.26842175392595
 20
34.97977700948422
 30
0.0
 10
49.27709552804532
 20
37.4767822171933
 30
0.0
 10
47.17128091268635
 20
41.65223794531611
 30
0.0
 10
45.65785046601609
 20
43.05645886510394
 30
0.0
 10
45.46268580677669
 20
43.23732637807956
 30
0.0
 10
45.30645072652061
 20
43.52705890838907
 30
0.0
 10
45.02791475653816
 20
43.55840927730485
 30
0.0
 10
44.83860675962369
 20
43.57942435976487
 30
0.0
 10
44.51941866291529
 20
43.4543673936503
 30
0.0
 10
44.49495848497001
 20
43.24042696401629
 30
0.0
 10
44.47290987386442
 20
43.04577906909967
 30
0.0
 10
44.86203340892338
 20
42.63271212041821
 30
0.0
 10
44.97623832425941
 20
42.49318575326559
 30
0.0
 10
47.02176376862651
 20
40.52052407841154
 30
0.0
 10
48.69866399607186
 20
36.39777831121306
 30
0.0
 10
49.16530217954895
 20
34.39858940112258
 30
0.0
 10
48.44338242061485
 20
33.80293239172288
 30
0.0
 10
47.85771618812238
 20
32.86207681470115
 30
0.0
 10
47.43310816956534
 20
31.85438638526557
 30
0.0
 10
46.90273571961112
 20
30.6758192197616
 30
0.0
 10
47.67374808921004
 20
29.03457573058858
 30
0.0
 10
49.24281682796708
 20
28.28940157712904
 30
0.0
 10
48.91415471867424
 20
28.0007025754651
 30
0.0
 10
48.62304415017063
 20
27.63586696357715
 30
0.0
 10
48.36914061290771
 20
27.22417805308979
 30
0.0
 10
46.98782957809679
 20
28.38586425071604
 30
0.0
 10
45.31334091749111
 20
29.21062010988485
 30
0.0
 10
43.78389077681445
 20
30.13321668083475
 30
0.0
 10
37.14622530538358
 20
34.13710665379212
 30
0.0
 10
29.3210354201871
 20
35.35460339827941
 30
0.0
 10
21.67619628364345
 20
35.30775009968001
 30
0.0
 10
19.26480169874283
 20
35.29259167954491
 30
0.0
 10
16.85444064248778
 20
35.13446179677194
 30
0.0
 10
14.45441487268848
 20
34.90191785151758
 30
0.0
 10
10.67600639924072
 20
34.53501518233847
 30
0.0
 10
5.670971678269757
 20
33.93246798196827
 30
0.0
 10
2.432754176909173
 20
31.65043673253878
 30
0.0
 10
1.049720594355625
 20
30.67547471021308
 30
0.0
 10
-1.128096516645059
 20
28.75896809176859
 30
0.0
 10
0.6978040905373546
 20
27.14356281873494
 30
0.0
 10
2.262394205163568
 20
25.75863443366451
 30
0.0
 10
5.359190536854647
 20
26.34188909931731
 30
0.0
 10
7.252270505999433
 20
26.42905001509413
 30
0.0
 10
8.606537541251143
 20
26.4920952624742
 30
0.0
 10
11.66819389899267
 20
27.32994248448696
 30
0.0
 10
12.21837564798707
 20
25.57811143023742
 30
0.0
 10
12.73755153761422
 20
23.9244655973175
 30
0.0
 10
11.01276448292389
 20
22.34798990326717
 30
0.0
 10
12.88500162438292
 20
21.26278482541347
 30
0.0
 10
14.41634656757647
 20
20.37463920931607
 30
0.0
 10
16.76038953574046
 20
20.31951768155207
 30
0.0
 10
18.4970621698549
 20
20.40392252094069
 30
0.0
 10
20.15880397716516
 20
20.48419324574701
 30
0.0
 10
21.70013969726594
 20
20.88382432203599
 30
0.0
 10
21.46587320426895
 20
18.84432779476808
 30
0.0
 10
21.39852158753231
 20
18.25935058137266
 30
0.0
 10
21.05177272694192
 20
17.4793809635121
 30
0.0
 10
21.58403997941302
 20
17.0132595443578
 30
0.0
 10
22.00003525925694
 20
16.64739040382426
 30
0.0
 10
23.2337239525249
 20
16.75866698799783
 30
0.0
 10
23.77873805829143
 20
16.80586479614576
 30
0.0
 10
25.22206081183685
 20
16.93023274316328
 30
0.0
 10
26.57305500637757
 20
17.37120496527525
 30
0.0
 10
28.02516275341038
 20
17.36190320746508
 30
0.0
 10
28.20861408799993
 20
17.36121418836803
 30
0.0
 10
28.41204697640394
 20
17.40117729599693
 30
0.0
 10
28.57138264259674
 20
17.4352837413009
 30
0.0
 10
27.22348903399274
 20
16.52750108093757
 30
0.0
 10
25.82839761724082
 20
15.68138562976021
 30
0.0
 10
25.55261772364657
 20
13.94678005293692
 30
0.0
 10
25.24703775410491
 20
12.01821560029406
 30
0.0
 10
26.46677381065761
 20
11.09045138611628
 30
0.0
 10
27.81983506248949
 20
10.0689805747397
 30
0.0
 10
28.97118597365998
 20
9.199093964714116
 30
0.0
 10
30.08567436313831
 20
8.346088322566256
 30
0.0
 10
31.09405381167093
 20
7.322894963447054
 30
0.0
 10
32.23644747457978
 20
6.164309351757534
 30
0.0
 10
32.61230739202053
 20
4.988842772190289
 30
0.0
 10
32.98506672352457
 20
3.422357855047188
 30
0.0
 10
33.27273219654293
 20
2.209684244239246
 30
0.0
 10
33.21554361148778
 20
-0.1195448133381694
 30
0.0
 10
34.94343125211484
 20
0.0048231336793498
 30
0.0
 10
36.55297986282356
 20
0.1202338324352193
 30
0.0
 10
38.06244844968578
 20
2.172821722547072
 30
0.0
 10
39.01036647245227
 20
3.238045246586322
 30
0.0
 10
40.21201577770741
 20
4.587833657707209
 30
0.0
 10
41.49789766757691
 20
5.757443574949528
 30
0.0
 10
42.61238605705524
 20
7.187502710876736
 30
0.0
 10
45.16881916188488
 20
10.46826714148016
 30
0.0
 10
47.36403400508608
 20
13.54956054348761
 30
0.0
 10
48.95911321475675
 20
17.29162325956598
 30
0.0
 10
49.02250297168535
 20
17.17965765629537
 30
0.0
 10
49.08675400248526
 20
17.07113714850999
 30
0.0
 10
49.15255532625353
 20
16.96985134124365
 30
0.0
 10
49.42333983139417
 20
13.21538628141838
 30
0.0
 10
49.79506563425262
 20
9.464021807529829
 30
0.0
 10
49.85346000272761
 20
5.701977537637005
 30
0.0
 10
49.86327852486057
 20
5.150762259997032
 30
0.0
 10
50.28099635244711
 20
4.703588866011603
 30
0.0
 10
50.80017224207427
 20
4.703588866011603
 30
0.0
 10
51.3184868578301
 20
4.703588866011603
 30
0.0
 10
51.73672144973943
 20
5.150762259997032
 30
0.0
 10
51.74671222664666
 20
5.701977537637005
 30
0.0
 10
51.80527884989591
 20
9.464021807529829
 30
0.0
 10
52.17734916230289
 20
13.21538628141838
 30
0.0
 10
52.44847817699205
 20
16.97019585079217
 30
0.0
 10
52.5139349912118
 20
17.07113714850999
 30
0.0
 10
52.57801376723744
 20
17.17965765629537
 30
0.0
 10
52.64105901461752
 20
17.29093424046894
 30
0.0
 10
54.23613822428819
 20
13.54921603393909
 30
0.0
 10
56.43135306748939
 20
10.46826714148016
 30
0.0
 10
58.98761391754476
 20
7.187502710876736
 30
0.0
 10
60.10210230702309
 20
5.757443574949528
 30
0.0
 10
61.38815645166685
 20
4.587833657707209
 30
0.0
 10
62.589805756922
 20
3.238045246586322
 30
0.0
 10
63.53755152491423
 20
2.172821722547072
 30
0.0
 10
65.0471923665507
 20
0.1202338324352193
 30
0.0
 10
66.65674097725943
 20
0.0048231336793498
 30
0.0
 10
68.38445636311222
 20
-0.1195448133381694
 30
0.0
 10
68.32726777805708
 20
2.209684244239246
 30
0.0
 10
68.61493325107544
 20
3.422357855047188
 30
0.0
 10
68.98769258257947
 20
4.988842772190289
 30
0.0
 10
69.36355250002022
 20
6.164309351757534
 30
0.0
 10
70.50594616292908
 20
7.322894963447054
 30
0.0
 10
71.5143256114617
 20
8.346088322566256
 30
0.0
 10
72.62881400094003
 20
9.199093964714116
 30
0.0
 10
73.78016491211052
 20
10.0689805747397
 30
0.0
 10
75.13339841871665
 20
11.09045138611628
 30
0.0
 10
76.3529622204951
 20
12.01821560029406
 30
0.0
 10
76.04738225095343
 20
13.94678005293692
 30
0.0
 10
75.77143010258493
 20
15.68138562976021
 30
0.0
 10
74.37651094060726
 20
16.52750108093757
 30
0.0
 10
73.02878958677753
 20
17.4352837413009
 30
0.0
 10
73.18795299819607
 20
17.40117729599693
 30
0.0
 10
73.39155814137433
 20
17.36121418836803
 30
0.0
 10
73.57483722118963
 20
17.36190320746508
 30
0.0
 10
75.02694496822244
 20
17.37120496527525
 30
0.0
 10
76.3777669079889
 20
16.93023274316328
 30
0.0
 10
77.82126191630857
 20
16.80586479614576
 30
0.0
 10
78.3662760220751
 20
16.75866698799783
 30
0.0
 10
79.59996471534306
 20
16.64739040382426
 30
0.0
 10
80.01578774041272
 20
17.0132595443578
 30
0.0
 10
80.54839950243235
 20
17.4793809635121
 30
0.0
 10
80.2014783870677
 20
18.25935058137266
 30
0.0
 10
80.13429902510532
 20
18.84432779476808
 30
0.0
 10
79.90003253210833
 20
20.88382432203599
 30
0.0
 10
81.4413682522091
 20
20.48419324574701
 30
0.0
 10
83.1029378047451
 20
20.40392252094069
 30
0.0
 10
84.83961043885955
 20
20.31951768155207
 30
0.0
 10
87.18365340702354
 20
20.37463920931607
 30
0.0
 10
88.71499835021709
 20
21.26278482541347
 30
0.0
 10
90.58740774645038
 20
22.34798990326717
 30
0.0
 10
88.86244843698579
 20
23.9244655973175
 30
0.0
 10
89.38162432661294
 20
25.57811143023742
 30
0.0
 10
89.93180607560733
 20
27.32994248448696
 30
0.0
 10
92.99346243334887
 20
26.4920952624742
 30
0.0
 10
94.34772946860058
 20
26.42905001509413
 30
0.0
 10
96.24080943774536
 20
26.34188909931731
 30
0.0
 10
99.33760576943644
 20
25.75863443366451
 30
0.0
 10
100.9023681388369
 20
27.14356281873494
 30
0.0
 10
102.7282687460193
 20
28.75896809176859
 30
0.0
 10
100.5502793802444
 20
30.67547471021308
 30
0.0
 10
99.16707354291657
 20
31.65043673253878
 30
0.0
  0
SPLINE
  5
3D
330
1F
100
AcDbEntity
  8
Layer 1
370
     0
100
AcDbSpline
210
0.0
220
0.0
230
1.0
 70
    11
 71
     3
 72
    14
 73
    10
 74
     0
 42
0.0000000001
 43
0.0000000001
 40
0.0
 40
0.0
 40
0.0
 40
0.0
 40
1.0
 40
1.0
 40
1.0
 40
2.0
 40
2.0
 40
2.0
 40
3.0
 40
3.0
 40
3.0
 40
3.0
 10
32.54822861599489
 20
29.91789821300664
 30
0.0
 10
34.08456894764205
 20
30.14424098638755
 30
0.0
 10
36.64117430724596
 20
29.81971299167702
 30
0.0
 10
37.81991372752419
 20
28.71693792684854
 30
0.0
 10
36.40966389063717
 20
26.5844238214789
 30
0.0
 10
33.91420897589645
 20
26.35980359584061
 30
0.0
 10
31.71744383972689
 20
27.63276637764042
 30
0.0
 10
30.22812906145339
 20
28.49541828714698
 30
0.0
 10
31.15606553040543
 20
29.71222601253722
 30
0.0
 10
32.54822861599489
 20
29.91789821300664
 30
0.0
  0
SPLINE
  5
3E
330
1F
100
AcDbEntity
  8
Layer 1
370
     0
100
AcDbSpline
210
0.0
220
0.0
230
1.0
 70
    11
 71
     3
 72
    20
 73
    16
 74
     0
 42
0.0000000001
 43
0.0000000001
 40
0.0
 40
0.0
 40
0.0
 40
0.0
 40
1.0
 40
1.0
 40
1.0
 40
2.0
 40
2.0
 40
2.0
 40
3.0
 40
3.0
 40
3.0
 40
4.0
 40
4.0
 40
4.0
 40
5.0
 40
5.0
 40
5.0
 40
5.0
 10
23.31675075371943
 20
31.37517360326732
 30
0.0
 10
24.68376464226656
 20
32.02216253539724
 30
0.0
 10
29.03836533562236
 20
32.61471895886021
 30
0.0
 10
29.68380397478391
 20
30.6565266850442
 30
0.0
 10
29.93443467133584
 20
29.89688313054661
 30
0.0
 10
29.75701225384547
 20
29.29847004475872
 30
0.0
 10
29.12759330869033
 20
28.82718098237654
 30
0.0
 10
28.0833848671111
 20
28.04583332632188
 30
0.0
 10
26.01787786892956
 20
28.11680229331802
 30
0.0
 10
24.79400769779456
 20
28.50988768818503
 30
0.0
 10
24.01128200354579
 20
28.76137965860827
 30
0.0
 10
23.62146944938977
 20
29.22440049182585
 30
0.0
 10
23.11452364873526
 20
29.82281357761374
 30
0.0
 10
22.47408039802731
 20
30.57832301752903
 30
0.0
 10
22.27753770059381
 20
30.88080240113397
 30
0.0
 10
23.31675075371943
 20
31.37517360326732
 30
0.0
  0
SPLINE
  5
3F
330
1F
100
AcDbEntity
  8
Layer 1
370
     0
100
AcDbSpline
210
0.0
220
0.0
230
1.0
 70
    11
 71
     3
 72
    17
 73
    13
 74
     0
 42
0.0000000001
 43
0.0000000001
 40
0.0
 40
0.0
 40
0.0
 40
0.0
 40
1.0
 40
1.0
 40
1.0
 40
2.0
 40
2.0
 40
2.0
 40
3.0
 40
3.0
 40
3.0
 40
4.0
 40
4.0
 40
4.0
 40
4.0
 10
16.21124131539164
 20
28.80719942856209
 30
0.0
 10
15.3172390369693
 20
28.71108126452362
 30
0.0
 10
13.2515597840135
 20
28.5288357133539
 30
0.0
 10
12.58303900510077
 20
29.24851616022259
 30
0.0
 10
11.19397650544803
 20
30.7447211294666
 30
0.0
 10
15.99058294956138
 20
31.8891818496666
 30
0.0
 10
16.72731661908206
 20
31.99425726196672
 30
0.0
 10
17.63716633673654
 20
32.12379285221211
 30
0.0
 10
19.45927733888518
 20
32.30328232699362
 30
0.0
 10
19.94434678320836
 20
31.25390624218652
 30
0.0
 10
20.7722032283139
 20
29.46486815669628
 30
0.0
 10
17.33864881293965
 20
28.92950031828846
 30
0.0
 10
16.21124131539164
 20
28.80719942856209
 30
0.0
  0
SPLINE
  5
40
330
1F
100
AcDbEntity
  8
Layer 1
370
     0
100
AcDbSpline
210
0.0
220
0.0
230
1.0
 70
    11
 71
     3
 72
    26
 73
    22
 74
     0
 42
0.0000000001
 43
0.0000000001
 40
0.0
 40
0.0
 40
0.0
 40
0.0
 40
1.0
 40
1.0
 40
1.0
 40
2.0
 40
2.0
 40
2.0
 40
3.0
 40
3.0
 40
3.0
 40
4.0
 40
4.0
 40
4.0
 40
5.0
 40
5.0
 40
5.0
 40
6.0
 40
6.0
 40
6.0
 40
7.0
 40
7.0
 40
7.0
 40
7.0
 10
25.21689316860897
 20
23.66298284998703
 30
0.0
 10
24.28292778255774
 20
23.50175238127734
 30
0.0
 10
23.34586181056979
 20
23.3522352372175
 30
0.0
 10
22.3988050616746
 20
23.2571506018246
 30
0.0
 10
21.1087890572228
 20
23.12864854022478
 30
0.0
 10
18.7928236172636
 20
22.6738959361718
 30
0.0
 10
18.32584092423798
 20
24.40746798434952
 30
0.0
 10
17.45492078556683
 20
27.64585774048437
 30
0.0
 10
25.95965575522884
 20
26.57443304457167
 30
0.0
 10
27.47101914460794
 20
26.48038193782435
 30
0.0
 10
29.29502494927347
 20
26.36807182500521
 30
0.0
 10
31.03583169797021
 20
25.9239990169565
 30
0.0
 10
32.77164305821334
 20
25.40068901274705
 30
0.0
 10
34.07647297325172
 20
25.00794812742857
 30
0.0
 10
34.76394177733332
 20
24.48670518051027
 30
0.0
 10
33.00918239192131
 20
24.47051323172959
 30
0.0
 10
31.89262694515185
 20
24.4608669643709
 30
0.0
 10
30.77831081044778
 20
24.49772948606307
 30
0.0
 10
29.68690456072064
 20
24.37852918227343
 30
0.0
 10
28.18243136231203
 20
24.21419812762701
 30
0.0
 10
26.70327961572001
 20
23.92170952092929
 30
0.0
 10
25.21689316860897
 20
23.66298284998703
 30
0.0
  0
SPLINE
  5
41
330
1F
100
AcDbEntity
  8
Layer 1
370
     0
100
AcDbSpline
210
0.0
220
0.0
230
1.0
 70
    11
 71
     3
 72
    14
 73
    10
 74
     0
 42
0.0000000001
 43
0.0000000001
 40
0.0
 40
0.0
 40
0.0
 40
0.0
 40
1.0
 40
1.0
 40
1.0
 40
2.0
 40
2.0
 40
2.0
 40
3.0
 40
3.0
 40
3.0
 40
3.0
 10
30.70010714293261
 20
11.72986110817865
 30
0.0
 10
29.84624022691344
 20
11.78877224097642
 30
0.0
 10
28.38689777936161
 20
13.2281331347138
 30
0.0
 10
28.50730386657109
 20
14.11180012668038
 30
0.0
 10
28.79875894462323
 20
16.25947265218513
 30
0.0
 10
34.15467664076689
 20
16.86512043849205
 30
0.0
 10
33.5433444469093
 20
14.13212619004336
 30
0.0
 10
33.32182480720774
 20
13.13477104706353
 30
0.0
 10
31.86058755713902
 20
11.64959038337233
 30
0.0
 10
30.70010714293261
 20
11.72986110817865
 30
0.0
  0
SPLINE
  5
42
330
1F
100
AcDbEntity
  8
Layer 1
370
     0
100
AcDbSpline
210
0.0
220
0.0
230
1.0
 70
    11
 71
     3
 72
    17
 73
    13
 74
     0
 42
0.0000000001
 43
0.0000000001
 40
0.0
 40
0.0
 40
0.0
 40
0.0
 40
1.0
 40
1.0
 40
1.0
 40
2.0
 40
2.0
 40
2.0
 40
3.0
 40
3.0
 40
3.0
 40
4.0
 40
4.0
 40
4.0
 40
4.0
 10
35.02266844827558
 20
7.499628361840371
 30
0.0
 10
33.93918591816451
 20
6.933943683162347
 30
0.0
 10
33.18143716618381
 20
8.998589407472576
 30
0.0
 10
33.05534667142366
 20
9.711379663370767
 30
0.0
 10
32.95595566667421
 20
10.26638454604451
 30
0.0
 10
32.8958387504566
 20
11.08011609966053
 30
0.0
 10
33.29788139358525
 20
11.54554849971778
 30
0.0
 10
34.40013969409094
 20
12.81713324332349
 30
0.0
 10
35.94853785993648
 20
12.10641004471645
 30
0.0
 10
35.87153997584115
 20
10.5309678793117
 30
0.0
 10
35.83743353053717
 20
9.833336043548611
 30
0.0
 10
35.78231200277317
 20
7.895125323547052
 30
0.0
 10
35.02266844827558
 20
7.499628361840371
 30
0.0
  0
SPLINE
  5
43
330
1F
100
AcDbEntity
  8
Layer 1
370
     0
100
AcDbSpline
210
0.0
220
0.0
230
1.0
 70
    11
 71
     3
 72
    14
 73
    10
 74
     0
 42
0.0000000001
 43
0.0000000001
 40
0.0
 40
0.0
 40
0.0
 40
0.0
 40
1.0
 40
1.0
 40
1.0
 40
2.0
 40
2.0
 40
2.0
 40
3.0
 40
3.0
 40
3.0
 40
3.0
 10
36.4949300038971
 20
3.40030924394159
 30
0.0
 10
34.93430174907893
 20
4.188202581418228
 30
0.0
 10
37.16431205668115
 20
6.510196938476618
 30
0.0
 10
37.46093477796116
 20
7.381117077147777
 30
0.0
 10
37.59322644459475
 20
7.771101886078058
 30
0.0
 10
37.22546250154433
 20
8.373304576899729
 30
0.0
 10
37.86590575225227
 20
8.58965657337342
 30
0.0
 10
39.08960366861302
 20
9.0016899934093
 30
0.0
 10
39.00950519858096
 20
2.133547634015224
 30
0.0
 10
36.4949300038971
 20
3.40030924394159
 30
0.0
  0
SPLINE
  5
44
330
1F
100
AcDbEntity
  8
Layer 1
370
     0
100
AcDbSpline
210
0.0
220
0.0
230
1.0
 70
    11
 71
     3
 72
    20
 73
    16
 74
     0
 42
0.0000000001
 43
0.0000000001
 40
0.0
 40
0.0
 40
0.0
 40
0.0
 40
1.0
 40
1.0
 40
1.0
 40
2.0
 40
2.0
 40
2.0
 40
3.0
 40
3.0
 40
3.0
 40
4.0
 40
4.0
 40
4.0
 40
5.0
 40
5.0
 40
5.0
 40
5.0
 10
46.10812444593825
 20
24.18112521096861
 30
0.0
 10
44.5955552731393
 20
24.27655435591003
 30
0.0
 10
43.24766166453531
 20
25.09304198591424
 30
0.0
 10
41.66222872222333
 20
25.02517360485482
 30
0.0
 10
41.10498452748417
 20
25.00105793645807
 30
0.0
 10
39.19984672414101
 20
24.58523491138842
 30
0.0
 10
38.66275633799057
 20
24.95386012831015
 30
0.0
 10
37.96305744493632
 20
25.43410643895398
 30
0.0
 10
38.73579236227786
 20
26.42215982412363
 30
0.0
 10
39.12767197372503
 20
26.94236924239635
 30
0.0
 10
40.81352944943204
 20
29.17926974096907
 30
0.0
 10
43.9783664169568
 20
27.54870604780033
 30
0.0
 10
45.8213202467912
 20
26.29159070523266
 30
0.0
 10
46.67535941758464
 20
25.70868054912839
 30
0.0
 10
47.78381888996377
 20
24.07604979866849
 30
0.0
 10
46.10812444593825
 20
24.18112521096861
 30
0.0
  0
SPLINE
  5
45
330
1F
100
AcDbEntity
  8
Layer 1
370
     0
100
AcDbSpline
210
0.0
220
0.0
230
1.0
 70
    11
 71
     3
 72
    20
 73
    16
 74
     0
 42
0.0000000001
 43
0.0000000001
 40
0.0
 40
0.0
 40
0.0
 40
0.0
 40
1.0
 40
1.0
 40
1.0
 40
2.0
 40
2.0
 40
2.0
 40
3.0
 40
3.0
 40
3.0
 40
4.0
 40
4.0
 40
4.0
 40
5.0
 40
5.0
 40
5.0
 40
5.0
 10
71.91636825459035
 20
30.6565266850442
 30
0.0
 10
72.56163463897765
 20
32.61471895886021
 30
0.0
 10
76.91623533233344
 20
32.02216253539724
 30
0.0
 10
78.28324922088058
 20
31.37517360326732
 30
0.0
 10
79.32263452878045
 20
30.88080240113397
 30
0.0
 10
79.12591957657268
 20
30.57832301752903
 30
0.0
 10
78.48547632586475
 20
29.82281357761374
 30
0.0
 10
77.97835827043598
 20
29.22440049182585
 30
0.0
 10
77.58871797105421
 20
28.76137965860827
 30
0.0
 10
76.80599227680545
 20
28.50988768818503
 30
0.0
 10
75.58194985089618
 20
28.11680229331802
 30
0.0
 10
73.5166151074889
 20
28.04583332632188
 30
0.0
 10
72.47240666590967
 20
28.82718098237654
 30
0.0
 10
71.84298772075454
 20
29.29847004475872
 30
0.0
 10
71.66556530326417
 20
29.89688313054661
 30
0.0
 10
71.91636825459035
 20
30.6565266850442
 30
0.0
  0
SPLINE
  5
46
330
1F
100
AcDbEntity
  8
Layer 1
370
     0
100
AcDbSpline
210
0.0
220
0.0
230
1.0
 70
    11
 71
     3
 72
    14
 73
    10
 74
     0
 42
0.0000000001
 43
0.0000000001
 40
0.0
 40
0.0
 40
0.0
 40
0.0
 40
1.0
 40
1.0
 40
1.0
 40
2.0
 40
2.0
 40
2.0
 40
3.0
 40
3.0
 40
3.0
 40
3.0
 10
69.05177135860512
 20
29.91789821300664
 30
0.0
 10
70.44393444419458
 20
29.71222601253722
 30
0.0
 10
71.37204316792088
 20
28.49541828714698
 30
0.0
 10
69.88238388009886
 20
27.63276637764042
 30
0.0
 10
67.68579099870355
 20
26.35980359584061
 30
0.0
 10
65.19016382918858
 20
26.5844238214789
 30
0.0
 10
63.78008624707581
 20
28.71693792684854
 30
0.0
 10
64.9589979221283
 20
29.81971299167702
 30
0.0
 10
67.51560328173221
 20
30.14424098638755
 30
0.0
 10
69.05177135860512
 20
29.91789821300664
 30
0.0
  0
SPLINE
  5
47
330
1F
100
AcDbEntity
  8
Layer 1
370
     0
100
AcDbSpline
210
0.0
220
0.0
230
1.0
 70
    11
 71
     3
 72
    20
 73
    16
 74
     0
 42
0.0000000001
 43
0.0000000001
 40
0.0
 40
0.0
 40
0.0
 40
0.0
 40
1.0
 40
1.0
 40
1.0
 40
2.0
 40
2.0
 40
2.0
 40
3.0
 40
3.0
 40
3.0
 40
4.0
 40
4.0
 40
4.0
 40
5.0
 40
5.0
 40
5.0
 40
5.0
 10
59.93777125237667
 20
25.02517360485482
 30
0.0
 10
58.3523383100647
 20
25.09304198591424
 30
0.0
 10
57.00461695623496
 20
24.27655435591003
 30
0.0
 10
55.49187552866176
 20
24.18112521096861
 30
0.0
 10
53.81618108463623
 20
24.07604979866849
 30
0.0
 10
54.92446830224111
 20
25.70868054912839
 30
0.0
 10
55.77885198258307
 20
26.29159070523266
 30
0.0
 10
57.62163355764321
 20
27.54870604780033
 30
0.0
 10
60.78664277994223
 20
29.17926974096907
 30
0.0
 10
62.47232800087497
 20
26.94236924239635
 30
0.0
 10
62.86437986709641
 20
26.42215982412363
 30
0.0
 10
63.63711478443795
 20
25.43410643895398
 30
0.0
 10
62.93707138183518
 20
24.95386012831015
 30
0.0
 10
62.40032550523325
 20
24.58523491138842
 30
0.0
 10
60.4951877018901
 20
25.00105793645807
 30
0.0
 10
59.93777125237667
 20
25.02517360485482
 30
0.0
  0
SPLINE
  5
48
330
1F
100
AcDbEntity
  8
Layer 1
370
     0
100
AcDbSpline
210
0.0
220
0.0
230
1.0
 70
    11
 71
     3
 72
    14
 73
    10
 74
     0
 42
0.0000000001
 43
0.0000000001
 40
0.0
 40
0.0
 40
0.0
 40
0.0
 40
1.0
 40
1.0
 40
1.0
 40
2.0
 40
2.0
 40
2.0
 40
3.0
 40
3.0
 40
3.0
 40
3.0
 10
65.1050699707029
 20
3.40030924394159
 30
0.0
 10
62.59049477601904
 20
2.133547634015224
 30
0.0
 10
62.51056856076125
 20
9.0016899934093
 30
0.0
 10
63.73426647712199
 20
8.58965657337342
 30
0.0
 10
64.37436521828141
 20
8.373304576899729
 30
0.0
 10
64.00677353000525
 20
7.771101886078058
 30
0.0
 10
64.13906519663885
 20
7.381117077147777
 30
0.0
 10
64.43568791791886
 20
6.510196938476618
 30
0.0
 10
66.66569822552108
 20
4.188202581418228
 30
0.0
 10
65.1050699707029
 20
3.40030924394159
 30
0.0
  0
SPLINE
  5
49
330
1F
100
AcDbEntity
  8
Layer 1
370
     0
100
AcDbSpline
210
0.0
220
0.0
230
1.0
 70
    11
 71
     3
 72
    17
 73
    13
 74
     0
 42
0.0000000001
 43
0.0000000001
 40
0.0
 40
0.0
 40
0.0
 40
0.0
 40
1.0
 40
1.0
 40
1.0
 40
2.0
 40
2.0
 40
2.0
 40
3.0
 40
3.0
 40
3.0
 40
4.0
 40
4.0
 40
4.0
 40
4.0
 10
68.54465330317635
 20
9.711379663370767
 30
0.0
 10
68.4185628084162
 20
8.998589407472576
 30
0.0
 10
67.66098631120975
 20
6.933943683162347
 30
0.0
 10
66.57715927155016
 20
7.499628361840371
 30
0.0
 10
65.8178602266011
 20
7.895125323547052
 30
0.0
 10
65.7627386988371
 20
9.833336043548611
 30
0.0
 10
65.7282877439846
 20
10.5309678793117
 30
0.0
 10
65.65146211466353
 20
12.10641004471645
 30
0.0
 10
67.20003253528333
 20
12.81713324332349
 30
0.0
 10
68.30211858101475
 20
11.54554849971778
 30
0.0
 10
68.7041612241434
 20
11.08011609966053
 30
0.0
 10
68.64387205315154
 20
10.26638454604451
 30
0.0
 10
68.54465330317635
 20
9.711379663370767
 30
0.0
  0
SPLINE
  5
4A
330
1F
100
AcDbEntity
  8
Layer 1
370
     0
100
AcDbSpline
210
0.0
220
0.0
230
1.0
 70
    11
 71
     3
 72
    14
 73
    10
 74
     0
 42
0.0000000001
 43
0.0000000001
 40
0.0
 40
0.0
 40
0.0
 40
0.0
 40
1.0
 40
1.0
 40
1.0
 40
2.0
 40
2.0
 40
2.0
 40
3.0
 40
3.0
 40
3.0
 40
3.0
 10
73.09252385325465
 20
14.11180012668038
 30
0.0
 10
73.21310219523839
 20
13.2281331347138
 30
0.0
 10
71.75375974768656
 20
11.78877224097642
 30
0.0
 10
70.90006508644166
 20
11.72986110817865
 30
0.0
 10
69.73941241746098
 20
11.64959038337233
 30
0.0
 10
68.27834742216653
 20
13.13477104706353
 30
0.0
 10
68.05648327291644
 20
14.13212619004336
 30
0.0
 10
67.44532333383312
 20
16.86512043849205
 30
0.0
 10
72.80106877520251
 20
16.25947265218513
 30
0.0
 10
73.09252385325465
 20
14.11180012668038
 30
0.0
  0
SPLINE
  5
4B
330
1F
100
AcDbEntity
  8
Layer 1
370
     0
100
AcDbSpline
210
0.0
220
0.0
230
1.0
 70
    11
 71
     3
 72
    26
 73
    22
 74
     0
 42
0.0000000001
 43
0.0000000001
 40
0.0
 40
0.0
 40
0.0
 40
0.0
 40
1.0
 40
1.0
 40
1.0
 40
2.0
 40
2.0
 40
2.0
 40
3.0
 40
3.0
 40
3.0
 40
4.0
 40
4.0
 40
4.0
 40
5.0
 40
5.0
 40
5.0
 40
6.0
 40
6.0
 40
6.0
 40
7.0
 40
7.0
 40
7.0
 40
7.0
 10
83.27415905036202
 20
24.40746798434952
 30
0.0
 10
82.80700410256215
 20
22.6738959361718
 30
0.0
 10
80.4912109173772
 20
23.12864854022478
 30
0.0
 10
79.20136716769966
 20
23.2571506018246
 30
0.0
 10
78.25431041880448
 20
23.3522352372175
 30
0.0
 10
77.316899937268
 20
23.50175238127734
 30
0.0
 10
76.38293455121676
 20
23.66298284998703
 30
0.0
 10
74.89672035887999
 20
23.92170952092929
 30
0.0
 10
73.41774086706224
 20
24.21419812762701
 30
0.0
 10
71.9129231591051
 20
24.37852918227343
 30
0.0
 10
70.82151690937796
 20
24.49772948606307
 30
0.0
 10
69.70737302944816
 20
24.4608669643709
 30
0.0
 10
68.59081758267868
 20
24.47051323172959
 30
0.0
 10
66.83588594249242
 20
24.48670518051027
 30
0.0
 10
67.52352700134828
 20
25.00794812742857
 30
0.0
 10
68.8281846616124
 20
25.40068901274705
 30
0.0
 10
70.5641682766298
 20
25.9239990169565
 30
0.0
 10
72.30497502532654
 20
26.36807182500521
 30
0.0
 10
74.1288085752178
 20
26.48038193782435
 30
0.0
 10
75.64051647414543
 20
26.57443304457167
 30
0.0
 10
84.14507918903318
 20
27.64585774048437
 30
0.0
 10
83.27415905036202
 20
24.40746798434952
 30
0.0
  0
SPLINE
  5
4C
330
1F
100
AcDbEntity
  8
Layer 1
370
     0
100
AcDbSpline
210
0.0
220
0.0
230
1.0
 70
    11
 71
     3
 72
    17
 73
    13
 74
     0
 42
0.0000000001
 43
0.0000000001
 40
0.0
 40
0.0
 40
0.0
 40
0.0
 40
1.0
 40
1.0
 40
1.0
 40
2.0
 40
2.0
 40
2.0
 40
3.0
 40
3.0
 40
3.0
 40
4.0
 40
4.0
 40
4.0
 40
4.0
 10
89.01678871472497
 20
29.24851616022259
 30
0.0
 10
88.3484401905865
 20
28.5288357133539
 30
0.0
 10
86.2827609376307
 20
28.71108126452362
 30
0.0
 10
85.38875865920836
 20
28.80719942856209
 30
0.0
 10
84.26152341643463
 20
28.92950031828846
 30
0.0
 10
80.82779674628611
 20
29.46486815669628
 30
0.0
 10
81.65565319139165
 20
31.25390624218652
 30
0.0
 10
82.14072263571482
 20
32.30328232699362
 30
0.0
 10
83.96283363786347
 20
32.12379285221211
 30
0.0
 10
84.87268335551795
 20
31.99425726196672
 30
0.0
 10
85.60958927981288
 20
31.8891818496666
 30
0.0
 10
90.4058512143777
 20
30.7447211294666
 30
0.0
 10
89.01678871472497
 20
29.24851616022259
 30
0.0
  0
HATCH
  5
4D
330
1F
100
AcDbEntity
  8
Layer 1
 62
   232
420
 14756438
100
AcDbHatch
 10
0.0
 20
0.0
 30
0.0
210
0.0
220
0.0
230
1.0
  2
SOLID
 70
     1
 71
     0
 91
       17
 92
        1
 93
        1
 72
     4
 94
        3
 73
     0
 74
     1
 95
      215
 96
      211
 40
0.0
 40
0.0
 40
0.0
 40
0.0
 40
1.0
 40
1.0
 40
1.0
 40
2.0
 40
2.0
 40
2.0
 40
3.0
 40
3.0
 40
3.0
 40
4.0
 40
4.0
 40
4.0
 40
5.0
 40
5.0
 40
5.0
 40
6.0
 40
6.0
 40
6.0
 40
7.0
 40
7.0
 40
7.0
 40
8.0
 40
8.0
 40
8.0
 40
9.0
 40
9.0
 40
9.0
 40
10.0
 40
10.0
 40
10.0
 40
11.0
 40
11.0
 40
11.0
 40
12.0
 40
12.0
 40
12.0
 40
13.0
 40
13.0
 40
13.0
 40
14.0
 40
14.0
 40
14.0
 40
15.0
 40
15.0
 40
15.0
 40
16.0
 40
16.0
 40
16.0
 40
17.0
 40
17.0
 40
17.0
 40
18.0
 40
18.0
 40
18.0
 40
19.0
 40
19.0
 40
19.0
 40
20.0
 40
20.0
 40
20.0
 40
21.0
 40
21.0
 40
21.0
 40
22.0
 40
22.0
 40
22.0
 40
23.0
 40
23.0
 40
23.0
 40
24.0
 40
24.0
 40
24.0
 40
25.0
 40
25.0
 40
25.0
 40
26.0
 40
26.0
 40
26.0
 40
27.0
 40
27.0
 40
27.0
 40
28.0
 40
28.0
 40
28.0
 40
29.0
 40
29.0
 40
29.0
 40
30.0
 40
30.0
 40
30.0
 40
31.0
 40
31.0
 40
31.0
 40
32.0
 40
32.0
 40
32.0
 40
33.0
 40
33.0
 40
33.0
 40
34.0
 40
34.0
 40
34.0
 40
35.0
 40
35.0
 40
35.0
 40
36.0
 40
36.0
 40
36.0
 40
37.0
 40
37.0
 40
37.0
 40
38.0
 40
38.0
 40
38.0
 40
39.0
 40
39.0
 40
39.0
 40
40.0
 40
40.0
 40
40.0
 40
41.0
 40
41.0
 40
41.0
 40
42.0
 40
42.0
 40
42.0
 40
43.0
 40
43.0
 40
43.0
 40
44.0
 40
44.0
 40
44.0
 40
45.0
 40
45.0
 40
45.0
 40
46.0
 40
46.0
 40
46.0
 40
47.0
 40
47.0
 40
47.0
 40
48.0
 40
48.0
 40
48.0
 40
49.0
 40
49.0
 40
49.0
 40
50.0
 40
50.0
 40
50.0
 40
51.0
 40
51.0
 40
51.0
 40
52.0
 40
52.0
 40
52.0
 40
53.0
 40
53.0
 40
53.0
 40
54.0
 40
54.0
 40
54.0
 40
55.0
 40
55.0
 40
55.0
 40
56.0
 40
56.0
 40
56.0
 40
57.0
 40
57.0
 40
57.0
 40
58.0
 40
58.0
 40
58.0
 40
59.0
 40
59.0
 40
59.0
 40
60.0
 40
60.0
 40
60.0
 40
61.0
 40
61.0
 40
61.0
 40
62.0
 40
62.0
 40
62.0
 40
63.0
 40
63.0
 40
63.0
 40
64.0
 40
64.0
 40
64.0
 40
65.0
 40
65.0
 40
65.0
 40
66.0
 40
66.0
 40
66.0
 40
67.0
 40
67.0
 40
67.0
 40
68.0
 40
68.0
 40
68.0
 40
69.0
 40
69.0
 40
69.0
 40
70.0
 40
70.0
 40
70.0
 40
70.0
 10
99.16707354291657
 20
31.65043673253878
 10
95.92902829633024
 20
33.93246798196827
 10
90.92399357535929
 20
34.53501518233847
 10
87.14575735668579
 20
34.90191785151758
 10
84.74555933211222
 20
35.13446179677194
 10
82.33502602108291
 20
35.29259167954491
 10
79.92380369095655
 20
35.30775009968001
 10
72.27913680918716
 20
35.35460339827941
 10
64.45360241444216
 20
34.13710665379212
 10
57.81628145255982
 20
30.13321668083475
 10
56.28700356665742
 20
29.21062010988485
 10
54.61234265127747
 20
28.38586425071604
 10
53.23120387124082
 20
27.22417805308979
 10
52.9773003339779
 20
27.63621147312567
 10
52.68653427502282
 20
28.0007025754651
 10
52.35787216572998
 20
28.28940157712904
 10
53.92711315926128
 20
29.03457573058858
 10
54.69778101931167
 20
30.6758192197616
 10
54.16723631458319
 20
31.85438638526557
 10
53.74211153170337
 20
32.86242132424967
 10
53.15713431830794
 20
33.80293239172288
 10
52.43504230459958
 20
34.39858940112258
 10
52.33306747823618
 20
34.48264973096267
 10
52.81124673158886
 20
35.69601236086766
 10
52.85982257793088
 20
35.83691676621439
 10
53.45375703958796
 20
37.56738822845538
 10
54.23510469564261
 20
39.26823186952322
 10
55.24865178740312
 20
40.79406465994037
 10
55.49635415279258
 20
41.16716850099293
 10
55.76024846696272
 20
41.53028156513827
 10
56.04860295907813
 20
41.87306856592063
 10
56.31800942602467
 20
42.19346244604886
 10
56.7031711012756
 20
42.48457301455247
 10
56.89161782431876
 20
42.8628444988329
 10
56.99049206474543
 20
43.06162650833182
 10
57.13759764196561
 20
43.59940591357932
 10
56.81238062815802
 20
43.67175291876956
 10
56.55330944766723
 20
43.72928601337323
 10
56.11371526374935
 20
43.21527776697396
 10
55.94283852768096
 20
43.05645886510394
 10
54.42906357146218
 20
41.65223794531611
 10
52.32342121087748
 20
37.4767822171933
 10
51.33192273022258
 20
34.97977700948422
 10
51.15966795596009
 20
35.02180717440427
 10
50.98259004801825
 20
35.04488931415545
 10
50.80017224207427
 20
35.04454480460692
 10
50.61792669090455
 20
35.04488931415545
 10
50.44067652818845
 20
35.02180717440427
 10
50.26842175392595
 20
34.97977700948422
 10
49.27709552804532
 20
37.4767822171933
 10
47.17128091268635
 20
41.65223794531611
 10
45.65785046601609
 20
43.05645886510394
 10
45.46268580677669
 20
43.23732637807956
 10
45.30645072652061
 20
43.52705890838907
 10
45.02791475653816
 20
43.55840927730485
 10
44.83860675962369
 20
43.57942435976487
 10
44.51941866291529
 20
43.4543673936503
 10
44.49495848497001
 20
43.24042696401629
 10
44.47290987386442
 20
43.04577906909967
 10
44.86203340892338
 20
42.63271212041821
 10
44.97623832425941
 20
42.49318575326559
 10
47.02176376862651
 20
40.52052407841154
 10
48.69866399607186
 20
36.39777831121306
 10
49.16530217954895
 20
34.39858940112258
 10
48.44338242061485
 20
33.80293239172288
 10
47.85771618812238
 20
32.86207681470115
 10
47.43310816956534
 20
31.85438638526557
 10
46.90273571961112
 20
30.6758192197616
 10
47.67374808921004
 20
29.03457573058858
 10
49.24281682796708
 20
28.28940157712904
 10
48.91415471867424
 20
28.0007025754651
 10
48.62304415017063
 20
27.63586696357715
 10
48.36914061290771
 20
27.22417805308979
 10
46.98782957809679
 20
28.38586425071604
 10
45.31334091749111
 20
29.21062010988485
 10
43.78389077681445
 20
30.13321668083475
 10
37.14622530538358
 20
34.13710665379212
 10
29.3210354201871
 20
35.35460339827941
 10
21.67619628364345
 20
35.30775009968001
 10
19.26480169874283
 20
35.29259167954491
 10
16.85444064248778
 20
35.13446179677194
 10
14.45441487268848
 20
34.90191785151758
 10
10.67600639924072
 20
34.53501518233847
 10
5.670971678269757
 20
33.93246798196827
 10
2.432754176909173
 20
31.65043673253878
 10
1.049720594355625
 20
30.67547471021308
 10
-1.128096516645059
 20
28.75896809176859
 10
0.6978040905373546
 20
27.14356281873494
 10
2.262394205163568
 20
25.75863443366451
 10
5.359190536854647
 20
26.34188909931731
 10
7.252270505999433
 20
26.42905001509413
 10
8.606537541251143
 20
26.4920952624742
 10
11.66819389899267
 20
27.32994248448696
 10
12.21837564798707
 20
25.57811143023742
 10
12.73755153761422
 20
23.9244655973175
 10
11.01276448292389
 20
22.34798990326717
 10
12.88500162438292
 20
21.26278482541347
 10
14.41634656757647
 20
20.37463920931607
 10
16.76038953574046
 20
20.31951768155207
 10
18.4970621698549
 20
20.40392252094069
 10
20.15880397716516
 20
20.48419324574701
 10
21.70013969726594
 20
20.88382432203599
 10
21.46587320426895
 20
18.84432779476808
 10
21.39852158753231
 20
18.25935058137266
 10
21.05177272694192
 20
17.4793809635121
 10
21.58403997941302
 20
17.0132595443578
 10
22.00003525925694
 20
16.64739040382426
 10
23.2337239525249
 20
16.75866698799783
 10
23.77873805829143
 20
16.80586479614576
 10
25.22206081183685
 20
16.93023274316328
 10
26.57305500637757
 20
17.37120496527525
 10
28.02516275341038
 20
17.36190320746508
 10
28.20861408799993
 20
17.36121418836803
 10
28.41204697640394
 20
17.40117729599693
 10
28.57138264259674
 20
17.4352837413009
 10
27.22348903399274
 20
16.52750108093757
 10
25.82839761724082
 20
15.68138562976021
 10
25.55261772364657
 20
13.94678005293692
 10
25.24703775410491
 20
12.01821560029406
 10
26.46677381065761
 20
11.09045138611628
 10
27.81983506248949
 20
10.0689805747397
 10
28.97118597365998
 20
9.199093964714116
 10
30.08567436313831
 20
8.346088322566256
 10
31.09405381167093
 20
7.322894963447054
 10
32.23644747457978
 20
6.164309351757534
 10
32.61230739202053
 20
4.988842772190289
 10
32.98506672352457
 20
3.422357855047188
 10
33.27273219654293
 20
2.209684244239246
 10
33.21554361148778
 20
-0.1195448133381694
 10
34.94343125211484
 20
0.0048231336793498
 10
36.55297986282356
 20
0.1202338324352193
 10
38.06244844968578
 20
2.172821722547072
 10
39.01036647245227
 20
3.238045246586322
 10
40.21201577770741
 20
4.587833657707209
 10
41.49789766757691
 20
5.757443574949528
 10
42.61238605705524
 20
7.187502710876736
 10
45.16881916188488
 20
10.46826714148016
 10
47.36403400508608
 20
13.54956054348761
 10
48.95911321475675
 20
17.29162325956598
 10
49.02250297168535
 20
17.17965765629537
 10
49.08675400248526
 20
17.07113714850999
 10
49.15255532625353
 20
16.96985134124365
 10
49.42333983139417
 20
13.21538628141838
 10
49.79506563425262
 20
9.464021807529829
 10
49.85346000272761
 20
5.701977537637005
 10
49.86327852486057
 20
5.150762259997032
 10
50.28099635244711
 20
4.703588866011603
 10
50.80017224207427
 20
4.703588866011603
 10
51.3184868578301
 20
4.703588866011603
 10
51.73672144973943
 20
5.150762259997032
 10
51.74671222664666
 20
5.701977537637005
 10
51.80527884989591
 20
9.464021807529829
 10
52.17734916230289
 20
13.21538628141838
 10
52.44847817699205
 20
16.97019585079217
 10
52.5139349912118
 20
17.07113714850999
 10
52.57801376723744
 20
17.17965765629537
 10
52.64105901461752
 20
17.29093424046894
 10
54.23613822428819
 20
13.54921603393909
 10
56.43135306748939
 20
10.46826714148016
 10
58.98761391754476
 20
7.187502710876736
 10
60.10210230702309
 20
5.757443574949528
 10
61.38815645166685
 20
4.587833657707209
 10
62.589805756922
 20
3.238045246586322
 10
63.53755152491423
 20
2.172821722547072
 10
65.0471923665507
 20
0.1202338324352193
 10
66.65674097725943
 20
0.0048231336793498
 10
68.38445636311222
 20
-0.1195448133381694
 10
68.32726777805708
 20
2.209684244239246
 10
68.61493325107544
 20
3.422357855047188
 10
68.98769258257947
 20
4.988842772190289
 10
69.36355250002022
 20
6.164309351757534
 10
70.50594616292908
 20
7.322894963447054
 10
71.5143256114617
 20
8.346088322566256
 10
72.62881400094003
 20
9.199093964714116
 10
73.78016491211052
 20
10.0689805747397
 10
75.13339841871665
 20
11.09045138611628
 10
76.3529622204951
 20
12.01821560029406
 10
76.04738225095343
 20
13.94678005293692
 10
75.77143010258493
 20
15.68138562976021
 10
74.37651094060726
 20
16.52750108093757
 10
73.02878958677753
 20
17.4352837413009
 10
73.18795299819607
 20
17.40117729599693
 10
73.39155814137433
 20
17.36121418836803
 10
73.57483722118963
 20
17.36190320746508
 10
75.02694496822244
 20
17.37120496527525
 10
76.3777669079889
 20
16.93023274316328
 10
77.82126191630857
 20
16.80586479614576
 10
78.3662760220751
 20
16.75866698799783
 10
79.59996471534306
 20
16.64739040382426
 10
80.01578774041272
 20
17.0132595443578
 10
80.54839950243235
 20
17.4793809635121
 10
80.2014783870677
 20
18.25935058137266
 10
80.13429902510532
 20
18.84432779476808
 10
79.90003253210833
 20
20.88382432203599
 10
81.4413682522091
 20
20.48419324574701
 10
83.1029378047451
 20
20.40392252094069
 10
84.83961043885955
 20
20.31951768155207
 10
87.18365340702354
 20
20.37463920931607
 10
88.71499835021709
 20
21.26278482541347
 10
90.58740774645038
 20
22.34798990326717
 10
88.86244843698579
 20
23.9244655973175
 10
89.38162432661294
 20
25.57811143023742
 10
89.93180607560733
 20
27.32994248448696
 10
92.99346243334887
 20
26.4920952624742
 10
94.34772946860058
 20
26.42905001509413
 10
96.24080943774536
 20
26.34188909931731
 10
99.33760576943644
 20
25.75863443366451
 10
100.9023681388369
 20
27.14356281873494
 10
102.7282687460193
 20
28.75896809176859
 10
100.5502793802444
 20
30.67547471021308
 10
99.16707354291657
 20
31.65043673253878
 97
        0
 92
        1
 93
        1
 72
     4
 94
        3
 73
     0
 74
     1
 95
       14
 96
       10
 40
0.0
 40
0.0
 40
0.0
 40
0.0
 40
1.0
 40
1.0
 40
1.0
 40
2.0
 40
2.0
 40
2.0
 40
3.0
 40
3.0
 40
3.0
 40
3.0
 10
32.54822861599489
 20
29.91789821300664
 10
34.08456894764205
 20
30.14424098638755
 10
36.64117430724596
 20
29.81971299167702
 10
37.81991372752419
 20
28.71693792684854
 10
36.40966389063717
 20
26.5844238214789
 10
33.91420897589645
 20
26.35980359584061
 10
31.71744383972689
 20
27.63276637764042
 10
30.22812906145339
 20
28.49541828714698
 10
31.15606553040543
 20
29.71222601253722
 10
32.54822861599489
 20
29.91789821300664
 97
        0
 92
        1
 93
        1
 72
     4
 94
        3
 73
     0
 74
     1
 95
       20
 96
       16
 40
0.0
 40
0.0
 40
0.0
 40
0.0
 40
1.0
 40
1.0
 40
1.0
 40
2.0
 40
2.0
 40
2.0
 40
3.0
 40
3.0
 40
3.0
 40
4.0
 40
4.0
 40
4.0
 40
5.0
 40
5.0
 40
5.0
 40
5.0
 10
23.31675075371943
 20
31.37517360326732
 10
24.68376464226656
 20
32.02216253539724
 10
29.03836533562236
 20
32.61471895886021
 10
29.68380397478391
 20
30.6565266850442
 10
29.93443467133584
 20
29.89688313054661
 10
29.75701225384547
 20
29.29847004475872
 10
29.12759330869033
 20
28.82718098237654
 10
28.0833848671111
 20
28.04583332632188
 10
26.01787786892956
 20
28.11680229331802
 10
24.79400769779456
 20
28.50988768818503
 10
24.01128200354579
 20
28.76137965860827
 10
23.62146944938977
 20
29.22440049182585
 10
23.11452364873526
 20
29.82281357761374
 10
22.47408039802731
 20
30.57832301752903
 10
22.27753770059381
 20
30.88080240113397
 10
23.31675075371943
 20
31.37517360326732
 97
        0
 92
        1
 93
        1
 72
     4
 94
        3
 73
     0
 74
     1
 95
       17
 96
       13
 40
0.0
 40
0.0
 40
0.0
 40
0.0
 40
1.0
 40
1.0
 40
1.0
 40
2.0
 40
2.0
 40
2.0
 40
3.0
 40
3.0
 40
3.0
 40
4.0
 40
4.0
 40
4.0
 40
4.0
 10
16.21124131539164
 20
28.80719942856209
 10
15.3172390369693
 20
28.71108126452362
 10
13.2515597840135
 20
28.5288357133539
 10
12.58303900510077
 20
29.24851616022259
 10
11.19397650544803
 20
30.7447211294666
 10
15.99058294956138
 20
31.8891818496666
 10
16.72731661908206
 20
31.99425726196672
 10
17.63716633673654
 20
32.12379285221211
 10
19.45927733888518
 20
32.30328232699362
 10
19.94434678320836
 20
31.25390624218652
 10
20.7722032283139
 20
29.46486815669628
 10
17.33864881293965
 20
28.92950031828846
 10
16.21124131539164
 20
28.80719942856209
 97
        0
 92
        1
 93
        1
 72
     4
 94
        3
 73
     0
 74
     1
 95
       26
 96
       22
 40
0.0
 40
0.0
 40
0.0
 40
0.0
 40
1.0
 40
1.0
 40
1.0
 40
2.0
 40
2.0
 40
2.0
 40
3.0
 40
3.0
 40
3.0
 40
4.0
 40
4.0
 40
4.0
 40
5.0
 40
5.0
 40
5.0
 40
6.0
 40
6.0
 40
6.0
 40
7.0
 40
7.0
 40
7.0
 40
7.0
 10
25.21689316860897
 20
23.66298284998703
 10
24.28292778255774
 20
23.50175238127734
 10
23.34586181056979
 20
23.3522352372175
 10
22.3988050616746
 20
23.2571506018246
 10
21.1087890572228
 20
23.12864854022478
 10
18.7928236172636
 20
22.6738959361718
 10
18.32584092423798
 20
24.40746798434952
 10
17.45492078556683
 20
27.64585774048437
 10
25.95965575522884
 20
26.57443304457167
 10
27.47101914460794
 20
26.48038193782435
 10
29.29502494927347
 20
26.36807182500521
 10
31.03583169797021
 20
25.9239990169565
 10
32.77164305821334
 20
25.40068901274705
 10
34.07647297325172
 20
25.00794812742857
 10
34.76394177733332
 20
24.48670518051027
 10
33.00918239192131
 20
24.47051323172959
 10
31.89262694515185
 20
24.4608669643709
 10
30.77831081044778
 20
24.49772948606307
 10
29.68690456072064
 20
24.37852918227343
 10
28.18243136231203
 20
24.21419812762701
 10
26.70327961572001
 20
23.92170952092929
 10
25.21689316860897
 20
23.66298284998703
 97
        0
 92
        1
 93
        1
 72
     4
 94
        3
 73
     0
 74
     1
 95
       14
 96
       10
 40
0.0
 40
0.0
 40
0.0
 40
0.0
 40
1.0
 40
1.0
 40
1.0
 40
2.0
 40
2.0
 40
2.0
 40
3.0
 40
3.0
 40
3.0
 40
3.0
 10
30.70010714293261
 20
11.72986110817865
 10
29.84624022691344
 20
11.78877224097642
 10
28.38689777936161
 20
13.2281331347138
 10
28.50730386657109
 20
14.11180012668038
 10
28.79875894462323
 20
16.25947265218513
 10
34.15467664076689
 20
16.86512043849205
 10
33.5433444469093
 20
14.13212619004336
 10
33.32182480720774
 20
13.13477104706353
 10
31.86058755713902
 20
11.64959038337233
 10
30.70010714293261
 20
11.72986110817865
 97
        0
 92
        1
 93
        1
 72
     4
 94
        3
 73
     0
 74
     1
 95
       17
 96
       13
 40
0.0
 40
0.0
 40
0.0
 40
0.0
 40
1.0
 40
1.0
 40
1.0
 40
2.0
 40
2.0
 40
2.0
 40
3.0
 40
3.0
 40
3.0
 40
4.0
 40
4.0
 40
4.0
 40
4.0
 10
35.02266844827558
 20
7.499628361840371
 10
33.93918591816451
 20
6.933943683162347
 10
33.18143716618381
 20
8.998589407472576
 10
33.05534667142366
 20
9.711379663370767
 10
32.95595566667421
 20
10.26638454604451
 10
32.8958387504566
 20
11.08011609966053
 10
33.29788139358525
 20
11.54554849971778
 10
34.40013969409094
 20
12.81713324332349
 10
35.94853785993648
 20
12.10641004471645
 10
35.87153997584115
 20
10.5309678793117
 10
35.83743353053717
 20
9.833336043548611
 10
35.78231200277317
 20
7.895125323547052
 10
35.02266844827558
 20
7.499628361840371
 97
        0
 92
        1
 93
        1
 72
     4
 94
        3
 73
     0
 74
     1
 95
       14
 96
       10
 40
0.0
 40
0.0
 40
0.0
 40
0.0
 40
1.0
 40
1.0
 40
1.0
 40
2.0
 40
2.0
 40
2.0
 40
3.0
 40
3.0
 40
3.0
 40
3.0
 10
36.4949300038971
 20
3.40030924394159
 10
34.93430174907893
 20
4.188202581418228
 10
37.16431205668115
 20
6.510196938476618
 10
37.46093477796116
 20
7.381117077147777
 10
37.59322644459475
 20
7.771101886078058
 10
37.22546250154433
 20
8.373304576899729
 10
37.86590575225227
 20
8.58965657337342
 10
39.08960366861302
 20
9.0016899934093
 10
39.00950519858096
 20
2.133547634015224
 10
36.4949300038971
 20
3.40030924394159
 97
        0
 92
        1
 93
        1
 72
     4
 94
        3
 73
     0
 74
     1
 95
       20
 96
       16
 40
0.0
 40
0.0
 40
0.0
 40
0.0
 40
1.0
 40
1.0
 40
1.0
 40
2.0
 40
2.0
 40
2.0
 40
3.0
 40
3.0
 40
3.0
 40
4.0
 40
4.0
 40
4.0
 40
5.0
 40
5.0
 40
5.0
 40
5.0
 10
46.10812444593825
 20
24.18112521096861
 10
44.5955552731393
 20
24.27655435591003
 10
43.24766166453531
 20
25.09304198591424
 10
41.66222872222333
 20
25.02517360485482
 10
41.10498452748417
 20
25.00105793645807
 10
39.19984672414101
 20
24.58523491138842
 10
38.66275633799057
 20
24.95386012831015
 10
37.96305744493632
 20
25.43410643895398
 10
38.73579236227786
 20
26.42215982412363
 10
39.12767197372503
 20
26.94236924239635
 10
40.81352944943204
 20
29.17926974096907
 10
43.9783664169568
 20
27.54870604780033
 10
45.8213202467912
 20
26.29159070523266
 10
46.67535941758464
 20
25.70868054912839
 10
47.78381888996377
 20
24.07604979866849
 10
46.10812444593825
 20
24.18112521096861
 97
        0
 92
        1
 93
        1
 72
     4
 94
        3
 73
     0
 74
     1
 95
       20
 96
       16
 40
0.0
 40
0.0
 40
0.0
 40
0.0
 40
1.0
 40
1.0
 40
1.0
 40
2.0
 40
2.0
 40
2.0
 40
3.0
 40
3.0
 40
3.0
 40
4.0
 40
4.0
 40
4.0
 40
5.0
 40
5.0
 40
5.0
 40
5.0
 10
71.91636825459035
 20
30.6565266850442
 10
72.56163463897765
 20
32.61471895886021
 10
76.91623533233344
 20
32.02216253539724
 10
78.28324922088058
 20
31.37517360326732
 10
79.32263452878045
 20
30.88080240113397
 10
79.12591957657268
 20
30.57832301752903
 10
78.48547632586475
 20
29.82281357761374
 10
77.97835827043598
 20
29.22440049182585
 10
77.58871797105421
 20
28.76137965860827
 10
76.80599227680545
 20
28.50988768818503
 10
75.58194985089618
 20
28.11680229331802
 10
73.5166151074889
 20
28.04583332632188
 10
72.47240666590967
 20
28.82718098237654
 10
71.84298772075454
 20
29.29847004475872
 10
71.66556530326417
 20
29.89688313054661
 10
71.91636825459035
 20
30.6565266850442
 97
        0
 92
        1
 93
        1
 72
     4
 94
        3
 73
     0
 74
     1
 95
       14
 96
       10
 40
0.0
 40
0.0
 40
0.0
 40
0.0
 40
1.0
 40
1.0
 40
1.0
 40
2.0
 40
2.0
 40
2.0
 40
3.0
 40
3.0
 40
3.0
 40
3.0
 10
69.05177135860512
 20
29.91789821300664
 10
70.44393444419458
 20
29.71222601253722
 10
71.37204316792088
 20
28.49541828714698
 10
69.88238388009886
 20
27.63276637764042
 10
67.68579099870355
 20
26.35980359584061
 10
65.19016382918858
 20
26.5844238214789
 10
63.78008624707581
 20
28.71693792684854
 10
64.9589979221283
 20
29.81971299167702
 10
67.51560328173221
 20
30.14424098638755
 10
69.05177135860512
 20
29.91789821300664
 97
        0
 92
        1
 93
        1
 72
     4
 94
        3
 73
     0
 74
     1
 95
       20
 96
       16
 40
0.0
 40
0.0
 40
0.0
 40
0.0
 40
1.0
 40
1.0
 40
1.0
 40
2.0
 40
2.0
 40
2.0
 40
3.0
 40
3.0
 40
3.0
 40
4.0
 40
4.0
 40
4.0
 40
5.0
 40
5.0
 40
5.0
 40
5.0
 10
59.93777125237667
 20
25.02517360485482
 10
58.3523383100647
 20
25.09304198591424
 10
57.00461695623496
 20
24.27655435591003
 10
55.49187552866176
 20
24.18112521096861
 10
53.81618108463623
 20
24.07604979866849
 10
54.92446830224111
 20
25.70868054912839
 10
55.77885198258307
 20
26.29159070523266
 10
57.62163355764321
 20
27.54870604780033
 10
60.78664277994223
 20
29.17926974096907
 10
62.47232800087497
 20
26.94236924239635
 10
62.86437986709641
 20
26.42215982412363
 10
63.63711478443795
 20
25.43410643895398
 10
62.93707138183518
 20
24.95386012831015
 10
62.40032550523325
 20
24.58523491138842
 10
60.4951877018901
 20
25.00105793645807
 10
59.93777125237667
 20
25.02517360485482
 97
        0
 92
        1
 93
        1
 72
     4
 94
        3
 73
     0
 74
     1
 95
       14
 96
       10
 40
0.0
 40
0.0
 40
0.0
 40
0.0
 40
1.0
 40
1.0
 40
1.0
 40
2.0
 40
2.0
 40
2.0
 40
3.0
 40
3.0
 40
3.0
 40
3.0
 10
65.1050699707029
 20
3.40030924394159
 10
62.59049477601904
 20
2.133547634015224
 10
62.51056856076125
 20
9.0016899934093
 10
63.73426647712199
 20
8.58965657337342
 10
64.37436521828141
 20
8.373304576899729
 10
64.00677353000525
 20
7.771101886078058
 10
64.13906519663885
 20
7.381117077147777
 10
64.43568791791886
 20
6.510196938476618
 10
66.66569822552108
 20
4.188202581418228
 10
65.1050699707029
 20
3.40030924394159
 97
        0
 92
        1
 93
        1
 72
     4
 94
        3
 73
     0
 74
     1
 95
       17
 96
       13
 40
0.0
 40
0.0
 40
0.0
 40
0.0
 40
1.0
 40
1.0
 40
1.0
 40
2.0
 40
2.0
 40
2.0
 40
3.0
 40
3.0
 40
3.0
 40
4.0
 40
4.0
 40
4.0
 40
4.0
 10
68.54465330317635
 20
9.711379663370767
 10
68.4185628084162
 20
8.998589407472576
 10
67.66098631120975
 20
6.933943683162347
 10
66.57715927155016
 20
7.499628361840371
 10
65.8178602266011
 20
7.895125323547052
 10
65.7627386988371
 20
9.833336043548611
 10
65.7282877439846
 20
10.5309678793117
 10
65.65146211466353
 20
12.10641004471645
 10
67.20003253528333
 20
12.81713324332349
 10
68.30211858101475
 20
11.54554849971778
 10
68.7041612241434
 20
11.08011609966053
 10
68.64387205315154
 20
10.26638454604451
 10
68.54465330317635
 20
9.711379663370767
 97
        0
 92
        1
 93
        1
 72
     4
 94
        3
 73
     0
 74
     1
 95
       14
 96
       10
 40
0.0
 40
0.0
 40
0.0
 40
0.0
 40
1.0
 40
1.0
 40
1.0
 40
2.0
 40
2.0
 40
2.0
 40
3.0
 40
3.0
 40
3.0
 40
3.0
 10
73.09252385325465
 20
14.11180012668038
 10
73.21310219523839
 20
13.2281331347138
 10
71.75375974768656
 20
11.78877224097642
 10
70.90006508644166
 20
11.72986110817865
 10
69.73941241746098
 20
11.64959038337233
 10
68.27834742216653
 20
13.13477104706353
 10
68.05648327291644
 20
14.13212619004336
 10
67.44532333383312
 20
16.86512043849205
 10
72.80106877520251
 20
16.25947265218513
 10
73.09252385325465
 20
14.11180012668038
 97
        0
 92
        1
 93
        1
 72
     4
 94
        3
 73
     0
 74
     1
 95
       26
 96
       22
 40
0.0
 40
0.0
 40
0.0
 40
0.0
 40
1.0
 40
1.0
 40
1.0
 40
2.0
 40
2.0
 40
2.0
 40
3.0
 40
3.0
 40
3.0
 40
4.0
 40
4.0
 40
4.0
 40
5.0
 40
5.0
 40
5.0
 40
6.0
 40
6.0
 40
6.0
 40
7.0
 40
7.0
 40
7.0
 40
7.0
 10
83.27415905036202
 20
24.40746798434952
 10
82.80700410256215
 20
22.6738959361718
 10
80.4912109173772
 20
23.12864854022478
 10
79.20136716769966
 20
23.2571506018246
 10
78.25431041880448
 20
23.3522352372175
 10
77.316899937268
 20
23.50175238127734
 10
76.38293455121676
 20
23.66298284998703
 10
74.89672035887999
 20
23.92170952092929
 10
73.41774086706224
 20
24.21419812762701
 10
71.9129231591051
 20
24.37852918227343
 10
70.82151690937796
 20
24.49772948606307
 10
69.70737302944816
 20
24.4608669643709
 10
68.59081758267868
 20
24.47051323172959
 10
66.83588594249242
 20
24.48670518051027
 10
67.52352700134828
 20
25.00794812742857
 10
68.8281846616124
 20
25.40068901274705
 10
70.5641682766298
 20
25.9239990169565
 10
72.30497502532654
 20
26.36807182500521
 10
74.1288085752178
 20
26.48038193782435
 10
75.64051647414543
 20
26.57443304457167
 10
84.14507918903318
 20
27.64585774048437
 10
83.27415905036202
 20
24.40746798434952
 97
        0
 92
        1
 93
        1
 72
     4
 94
        3
 73
     0
 74
     1
 95
       17
 96
       13
 40
0.0
 40
0.0
 40
0.0
 40
0.0
 40
1.0
 40
1.0
 40
1.0
 40
2.0
 40
2.0
 40
2.0
 40
3.0
 40
3.0
 40
3.0
 40
4.0
 40
4.0
 40
4.0
 40
4.0
 10
89.01678871472497
 20
29.24851616022259
 10
88.3484401905865
 20
28.5288357133539
 10
86.2827609376307
 20
28.71108126452362
 10
85.38875865920836
 20
28.80719942856209
 10
84.26152341643463
 20
28.92950031828846
 10
80.82779674628611
 20
29.46486815669628
 10
81.65565319139165
 20
31.25390624218652
 10
82.14072263571482
 20
32.30328232699362
 10
83.96283363786347
 20
32.12379285221211
 10
84.87268335551795
 20
31.99425726196672
 10
85.60958927981288
 20
31.8891818496666
 10
90.4058512143777
 20
30.7447211294666
 10
89.01678871472497
 20
29.24851616022259
 97
        0
 75
     2
 76
     1
 98
        0
  0
ENDSEC
  0
SECTION
  2
OBJECTS
  0
DICTIONARY
  5
C
330
0
100
AcDbDictionary
281
     1
  3
ACAD_GROUP
350
D
  3
ACAD_LAYOUT
350
1A
  3
ACAD_MLINESTYLE
350
17
  3
ACAD_PLOTSETTINGS
350
19
  3
ACAD_PLOTSTYLENAME
350
E
  3
ACAD_TABLESTYLE
350
4E
  3
ACAD_VISUALSTYLE
350
2A
  0
DICTIONARY
  5
D
102
{ACAD_REACTORS
330
C
102
}
330
C
100
AcDbDictionary
281
     1
  0
DICTIONARY
  5
1A
102
{ACAD_REACTORS
330
C
102
}
330
C
100
AcDbDictionary
281
     1
  3
Layout1
350
1E
  3
Layout2
350
26
  3
Model
350
22
  0
DICTIONARY
  5
17
102
{ACAD_REACTORS
330
C
102
}
330
C
100
AcDbDictionary
281
     1
  3
Standard
350
18
  0
DICTIONARY
  5
19
102
{ACAD_REACTORS
330
C
102
}
330
C
100
AcDbDictionary
281
     1
  0
ACDBDICTIONARYWDFLT
  5
E
102
{ACAD_REACTORS
330
C
102
}
330
C
100
AcDbDictionary
281
     1
  3
Normal
350
F
100
AcDbDictionaryWithDefault
340
F
  0
DICTIONARY
  5
4E
102
{ACAD_REACTORS
330
C
102
}
330
C
100
AcDbDictionary
281
     1
  0
DICTIONARY
  5
2A
102
{ACAD_REACTORS
330
C
102
}
330
C
100
AcDbDictionary
281
     1
  3
2dWireframe
350
2F
  3
3D Hidden
350
31
  3
3dWireframe
350
30
  3
Basic
350
32
  3
Brighten
350
36
  3
ColorChange
350
3A
  3
Conceptual
350
34
  3
Dim
350
35
  3
Facepattern
350
39
  3
Flat
350
2B
  3
FlatWithEdges
350
2C
  3
Gouraud
350
2D
  3
GouraudWithEdges
350
2E
  3
Linepattern
350
38
  3
Realistic
350
33
  3
Thicken
350
37
  0
LAYOUT
  5
1E
102
{ACAD_REACTORS
330
1A
102
}
330
1A
100
AcDbPlotSettings
  1

  2
none_device
  4

  6

 40
0.0
 41
0.0
 42
0.0
 43
0.0
 44
0.0
 45
0.0
 46
0.0
 47
0.0
 48
0.0
 49
0.0
140
0.0
141
0.0
142
1.0
143
1.0
 70
   688
 72
     0
 73
     0
 74
     5
  7

 75
    16
 76
     0
 77
     2
 78
   300
147
1.0
148
0.0
149
0.0
100
AcDbLayout
  1
Layout1
 70
     1
 71
     1
 10
0.0
 20
0.0
 11
12.0
 21
9.0
 12
0.0
 22
0.0
 32
0.0
 14
1.000000000000000E+20
 24
1.000000000000000E+20
 34
1.000000000000000E+20
 15
-1.000000000000000E+20
 25
-1.000000000000000E+20
 35
-1.000000000000000E+20
146
0.0
 13
0.0
 23
0.0
 33
0.0
 16
1.0
 26
0.0
 36
0.0
 17
0.0
 27
1.0
 37
0.0
 76
     0
330
1B
  0
LAYOUT
  5
26
102
{ACAD_REACTORS
330
1A
102
}
330
1A
100
AcDbPlotSettings
  1

  2
none_device
  4

  6

 40
0.0
 41
0.0
 42
0.0
 43
0.0
 44
0.0
 45
0.0
 46
0.0
 47
0.0
 48
0.0
 49
0.0
140
0.0
141
0.0
142
1.0
143
1.0
 70
   688
 72
     0
 73
     0
 74
     5
  7

 75
    16
 76
     0
 77
     2
 78
   300
147
1.0
148
0.0
149
0.0
100
AcDbLayout
  1
Layout2
 70
     1
 71
     2
 10
0.0
 20
0.0
 11
0.0
 21
0.0
 12
0.0
 22
0.0
 32
0.0
 14
0.0
 24
0.0
 34
0.0
 15
0.0
 25
0.0
 35
0.0
146
0.0
 13
0.0
 23
0.0
 33
0.0
 16
1.0
 26
0.0
 36
0.0
 17
0.0
 27
1.0
 37
0.0
 76
     0
330
23
  0
LAYOUT
  5
22
102
{ACAD_REACTORS
330
1A
102
}
330
1A
100
AcDbPlotSettings
  1

  2
none_device
  4

  6

 40
0.0
 41
0.0
 42
0.0
 43
0.0
 44
0.0
 45
0.0
 46
0.0
 47
0.0
 48
0.0
 49
0.0
140
0.0
141
0.0
142
1.0
143
1.0
 70
  1712
 72
     0
 73
     0
 74
     0
  7

 75
     0
 76
     0
 77
     2
 78
   300
147
1.0
148
0.0
149
0.0
100
AcDbLayout
  1
Model
 70
     1
 71
     0
 10
0.0
 20
0.0
 11
12.0
 21
9.0
 12
0.0
 22
0.0
 32
0.0
 14
1.000000000000000E+20
 24
1.000000000000000E+20
 34
1.000000000000000E+20
 15
-1.000000000000000E+20
 25
-1.000000000000000E+20
 35
-1.000000000000000E+20
146
0.0
 13
0.0
 23
0.0
 33
0.0
 16
1.0
 26
0.0
 36
0.0
 17
0.0
 27
1.0
 37
0.0
 76
     0
330
1F
331
29
  0
MLINESTYLE
  5
18
102
{ACAD_REACTORS
330
17
102
}
330
17
100
AcDbMlineStyle
  2
Standard
 70
     0
  3

 62
   256
 51
90.0
 52
90.0
 71
     2
 49
0.5
 62
   256
  6
BYLAYER
 49
-0.5
 62
   256
  6
BYLAYER
  0
ACDBPLACEHOLDER
  5
F
102
{ACAD_REACTORS
330
E
102
}
330
E
  0
VISUALSTYLE
  5
2F
102
{ACAD_REACTORS
330
2A
102
}
330
2A
100
AcDbVisualStyle
  2
2dWireframe
 70
     4
 71
     0
 72
     2
 73
     0
 90
        0
 40
-0.6
 41
-30.0
 62
     5
 63
     7
421
 16777215
 74
     1
 91
        4
 64
     7
 65
   257
 75
     1
175
     1
 42
1.0
 92
        0
 66
   257
 43
1.0
 76
     1
 77
     6
 78
     2
 67
     7
 79
     5
170
     0
171
     0
290
     0
174
     0
 93
        1
 44
0.0
173
     0
291
     0
 45
0.0
1001
ACAD
1000
AcDbSavedByObjectVersion
1070
     0
  0
VISUALSTYLE
  5
31
102
{ACAD_REACTORS
330
2A
102
}
330
2A
100
AcDbVisualStyle
  2
3D Hidden
 70
     6
 71
     1
 72
     2
 73
     2
 90
        0
 40
-0.6
 41
-30.0
 62
     5
 63
     7
421
 16777215
 74
     2
 91
        2
 64
     7
 65
   257
 75
     2
175
     1
 42
40.0
 92
        0
 66
   257
 43
1.0
 76
     1
 77
     6
 78
     2
 67
     7
 79
     3
170
     0
171
     0
290
     0
174
     0
 93
        1
 44
0.0
173
     0
291
     0
 45
0.0
1001
ACAD
1000
AcDbSavedByObjectVersion
1070
     0
  0
VISUALSTYLE
  5
30
102
{ACAD_REACTORS
330
2A
102
}
330
2A
100
AcDbVisualStyle
  2
3dWireframe
 70
     5
 71
     0
 72
     2
 73
     0
 90
        0
 40
-0.6
 41
-30.0
 62
     5
 63
     7
421
 16777215
 74
     1
 91
        4
 64
     7
 65
   257
 75
     1
175
     1
 42
1.0
 92
        0
 66
   257
 43
1.0
 76
     1
 77
     6
 78
     2
 67
     7
 79
     5
170
     0
171
     0
290
     0
174
     0
 93
        1
 44
0.0
173
     0
291
     0
 45
0.0
1001
ACAD
1000
AcDbSavedByObjectVersion
1070
     0
  0
VISUALSTYLE
  5
32
102
{ACAD_REACTORS
330
2A
102
}
330
2A
100
AcDbVisualStyle
  2
Basic
 70
     7
 71
     1
 72
     0
 73
     1
 90
        0
 40
-0.6
 41
-30.0
 62
     5
 63
     7
421
 16777215
 74
     0
 91
        4
 64
     7
 65
   257
 75
     1
175
     1
 42
1.0
 92
        8
 66
     7
 43
1.0
 76
     1
 77
     6
 78
     2
 67
     7
 79
     5
170
     0
171
     0
290
     0
174
     0
 93
        1
 44
0.0
173
     0
291
     1
 45
0.0
1001
ACAD
1000
AcDbSavedByObjectVersion
1070
     0
  0
VISUALSTYLE
  5
36
102
{ACAD_REACTORS
330
2A
102
}
330
2A
100
AcDbVisualStyle
  2
Brighten
 70
    12
 71
     2
 72
     2
 73
     0
 90
        0
 40
-0.6
 41
-30.0
 62
     5
 63
     7
421
 16777215
 74
     1
 91
        4
 64
     7
 65
   257
 75
     1
175
     1
 42
1.0
 92
        8
 66
     7
 43
1.0
 76
     1
 77
     6
 78
     2
 67
     7
 79
     5
170
     0
171
     0
290
     0
174
     0
 93
        1
 44
50.0
173
     0
291
     1
 45
0.0
1001
ACAD
1000
AcDbSavedByObjectVersion
1070
     0
  0
VISUALSTYLE
  5
3A
102
{ACAD_REACTORS
330
2A
102
}
330
2A
100
AcDbVisualStyle
  2
ColorChange
 70
    16
 71
     2
 72
     2
 73
     3
 90
        0
 40
-0.6
 41
-30.0
 62
     5
 63
     8
421
  8421504
 74
     1
 91
        4
 64
     7
 65
   257
 75
     1
175
     1
 42
1.0
 92
        8
 66
     8
424
  8421504
 43
1.0
 76
     1
 77
     6
 78
     2
 67
     7
 79
     5
170
     0
171
     0
290
     0
174
     0
 93
        1
 44
0.0
173
     0
291
     1
 45
0.0
1001
ACAD
1000
AcDbSavedByObjectVersion
1070
     0
  0
VISUALSTYLE
  5
34
102
{ACAD_REACTORS
330
2A
102
}
330
2A
100
AcDbVisualStyle
  2
Conceptual
 70
     9
 71
     3
 72
     2
 73
     0
 90
        0
 40
-0.6
 41
-30.0
 62
     5
 63
     7
421
 16777215
 74
     2
 91
        2
 64
     7
 65
   257
 75
     1
175
     1
 42
40.0
 92
        8
 66
     7
 43
1.0
 76
     1
 77
     6
 78
     2
 67
     7
 79
     3
170
     0
171
     0
290
     0
174
     0
 93
        1
 44
0.0
173
     0
291
     0
 45
0.0
1001
ACAD
1000
AcDbSavedByObjectVersion
1070
     0
  0
VISUALSTYLE
  5
35
102
{ACAD_REACTORS
330
2A
102
}
330
2A
100
AcDbVisualStyle
  2
Dim
 70
    11
 71
     2
 72
     2
 73
     0
 90
        0
 40
-0.6
 41
-30.0
 62
     5
 63
     7
421
 16777215
 74
     1
 91
        4
 64
     7
 65
   257
 75
     1
175
     1
 42
1.0
 92
        8
 66
     7
 43
1.0
 76
     1
 77
     6
 78
     2
 67
     7
 79
     5
170
     0
171
     0
290
     0
174
     0
 93
        1
 44
-50.0
173
     0
291
     1
 45
0.0
1001
ACAD
1000
AcDbSavedByObjectVersion
1070
     0
  0
VISUALSTYLE
  5
39
102
{ACAD_REACTORS
330
2A
102
}
330
2A
100
AcDbVisualStyle
  2
Facepattern
 70
    15
 71
     2
 72
     2
 73
     0
 90
        0
 40
-0.6
 41
-30.0
 62
     5
 63
     7
421
 16777215
 74
     1
 91
        4
 64
     7
 65
   257
 75
     1
175
     1
 42
1.0
 92
        8
 66
     7
 43
1.0
 76
     1
 77
     6
 78
     2
 67
     7
 79
     5
170
     0
171
     0
290
     0
174
     0
 93
        1
 44
0.0
173
     0
291
     1
 45
0.0
1001
ACAD
1000
AcDbSavedByObjectVersion
1070
     0
  0
VISUALSTYLE
  5
2B
102
{ACAD_REACTORS
330
2A
102
}
330
2A
100
AcDbVisualStyle
  2
Flat
 70
     0
 71
     2
 72
     1
 73
     1
 90
        2
 40
-0.6
 41
30.0
 62
     5
 63
     7
421
 16777215
 74
     0
 91
        4
 64
     7
 65
   257
 75
     1
175
     1
 42
1.0
 92
        8
 66
     7
 43
1.0
 76
     1
 77
     6
 78
     2
 67
     7
 79
     5
170
     0
171
     0
290
     0
174
     0
 93
       13
 44
0.0
173
     0
291
     1
 45
0.0
1001
ACAD
1000
AcDbSavedByObjectVersion
1070
     0
  0
VISUALSTYLE
  5
2C
102
{ACAD_REACTORS
330
2A
102
}
330
2A
100
AcDbVisualStyle
  2
FlatWithEdges
 70
     1
 71
     2
 72
     1
 73
     1
 90
        2
 40
-0.6
 41
30.0
 62
     5
 63
     7
421
 16777215
 74
     1
 91
        4
 64
     7
 65
   257
 75
     1
175
     1
 42
1.0
 92
        0
 66
   257
 43
1.0
 76
     1
 77
     6
 78
     2
 67
     7
 79
     5
170
     0
171
     0
290
     0
174
     0
 93
       13
 44
0.0
173
     0
291
     1
 45
0.0
1001
ACAD
1000
AcDbSavedByObjectVersion
1070
     0
  0
VISUALSTYLE
  5
2D
102
{ACAD_REACTORS
330
2A
102
}
330
2A
100
AcDbVisualStyle
  2
Gouraud
 70
     2
 71
     2
 72
     2
 73
     1
 90
        2
 40
-0.6
 41
30.0
 62
     5
 63
     7
421
 16777215
 74
     0
 91
        4
 64
     7
 65
   257
 75
     1
175
     1
 42
1.0
 92
        0
 66
     7
 43
1.0
 76
     1
 77
     6
 78
     2
 67
     7
 79
     5
170
     0
171
     0
290
     0
174
     0
 93
       13
 44
0.0
173
     0
291
     1
 45
0.0
1001
ACAD
1000
AcDbSavedByObjectVersion
1070
     0
  0
VISUALSTYLE
  5
2E
102
{ACAD_REACTORS
330
2A
102
}
330
2A
100
AcDbVisualStyle
  2
GouraudWithEdges
 70
     3
 71
     2
 72
     2
 73
     1
 90
        2
 40
-0.6
 41
30.0
 62
     5
 63
     7
421
 16777215
 74
     1
 91
        4
 64
     7
 65
   257
 75
     1
175
     1
 42
1.0
 92
        0
 66
   257
 43
1.0
 76
     1
 77
     6
 78
     2
 67
     7
 79
     5
170
     0
171
     0
290
     0
174
     0
 93
       13
 44
0.0
173
     0
291
     1
 45
0.0
1001
ACAD
1000
AcDbSavedByObjectVersion
1070
     0
  0
VISUALSTYLE
  5
38
102
{ACAD_REACTORS
330
2A
102
}
330
2A
100
AcDbVisualStyle
  2
Linepattern
 70
    14
 71
     2
 72
     2
 73
     0
 90
        0
 40
-0.6
 41
-30.0
 62
     5
 63
     7
421
 16777215
 74
     1
 91
        4
 64
     7
 65
   257
 75
     7
175
     7
 42
1.0
 92
        8
 66
     7
 43
1.0
 76
     1
 77
     6
 78
     2
 67
     7
 79
     5
170
     0
171
     0
290
     0
174
     0
 93
        1
 44
0.0
173
     0
291
     1
 45
0.0
1001
ACAD
1000
AcDbSavedByObjectVersion
1070
     0
  0
VISUALSTYLE
  5
33
102
{ACAD_REACTORS
330
2A
102
}
330
2A
100
AcDbVisualStyle
  2
Realistic
 70
     8
 71
     2
 72
     2
 73
     0
 90
        0
 40
-0.6
 41
-30.0
 62
     5
 63
     7
421
 16777215
 74
     1
 91
        0
 64
     7
 65
   257
 75
     1
175
     1
 42
1.0
 92
        8
 66
     8
424
  7895160
 43
1.0
 76
     1
 77
     6
 78
     2
 67
     7
 79
     5
170
     0
171
     0
290
     0
174
     0
 93
       13
 44
0.0
173
     0
291
     0
 45
0.0
1001
ACAD
1000
AcDbSavedByObjectVersion
1070
     0
  0
VISUALSTYLE
  5
37
102
{ACAD_REACTORS
330
2A
102
}
330
2A
100
AcDbVisualStyle
  2
Thicken
 70
    13
 71
     2
 72
     2
 73
     0
 90
        0
 40
-0.6
 41
-30.0
 62
     5
 63
     7
421
 16777215
 74
     1
 91
        4
 64
     7
 65
   257
 75
     1
175
     1
 42
1.0
 92
       12
 66
     7
 43
1.0
 76
     1
 77
     6
 78
     2
 67
     7
 79
     5
170
     0
171
     0
290
     0
174
     0
 93
        1
 44
0.0
173
     0
291
     1
 45
0.0
1001
ACAD
1000
AcDbSavedByObjectVersion
1070
     0
  0
ENDSEC
  0
EOF
