  0
SECTION
  2
HEADER
  9
$ACADVER
  1
AC1018
  9
$ACADMAINTVER
 70
     0
  9
$DWGCODEPAGE
  3
ANSI_1252
  9
$INSBASE
 10
0.0
 20
0.0
 30
0.0
  9
$EXTMIN
 10
1.000000000000000E+20
 20
1.000000000000000E+20
 30
1.000000000000000E+20
  9
$EXTMAX
 10
-1.000000000000000E+20
 20
-1.000000000000000E+20
 30
-1.000000000000000E+20
  9
$LIMMIN
 10
0.0
 20
0.0
  9
$LIMMAX
 10
12.0
 20
9.0
  9
$ORTHOMODE
 70
     0
  9
$REGENMODE
 70
     1
  9
$FILLMODE
 70
     1
  9
$QTEXTMODE
 70
     0
  9
$MIRRTEXT
 70
     1
  9
$LTSCALE
 40
1.0
  9
$ATTMODE
 70
     1
  9
$TEXTSIZE
 40
0.2
  9
$TRACEWID
 40
0.05
  9
$TEXTSTYLE
  7
Standard
  9
$CLAYER
  8
0
  9
$CELTYPE
  6
ByLayer
  9
$CECOLOR
 62
   256
  9
$CELTSCALE
 40
1.0
  9
$DISPSILH
 70
     0
  9
$DIMSCALE
 40
1.0
  9
$DIMASZ
 40
0.18
  9
$DIMEXO
 40
0.0625
  9
$DIMDLI
 40
0.38
  9
$DIMRND
 40
0.0
  9
$DIMDLE
 40
0.0
  9
$DIMEXE
 40
0.18
  9
$DIMTP
 40
0.0
  9
$DIMTM
 40
0.0
  9
$DIMTXT
 40
0.18
  9
$DIMCEN
 40
0.09
  9
$DIMTSZ
 40
0.0
  9
$DIMTOL
 70
     0
  9
$DIMLIM
 70
     0
  9
$DIMTIH
 70
     1
  9
$DIMTOH
 70
     1
  9
$DIMSE1
 70
     0
  9
$DIMSE2
 70
     0
  9
$DIMTAD
 70
     0
  9
$DIMZIN
 70
     0
  9
$DIMBLK
  1

  9
$DIMASO
 70
     1
  9
$DIMSHO
 70
     1
  9
$DIMPOST
  1

  9
$DIMAPOST
  1

  9
$DIMALT
 70
     0
  9
$DIMALTD
 70
     2
  9
$DIMALTF
 40
25.4
  9
$DIMLFAC
 40
1.0
  9
$DIMTOFL
 70
     0
  9
$DIMTVP
 40
0.0
  9
$DIMTIX
 70
     0
  9
$DIMSOXD
 70
     0
  9
$DIMSAH
 70
     0
  9
$DIMBLK1
  1

  9
$DIMBLK2
  1

  9
$DIMSTYLE
  2
Standard
  9
$DIMCLRD
 70
     0
  9
$DIMCLRE
 70
     0
  9
$DIMCLRT
 70
     0
  9
$DIMTFAC
 40
1.0
  9
$DIMGAP
 40
0.09
  9
$DIMJUST
 70
     0
  9
$DIMSD1
 70
     0
  9
$DIMSD2
 70
     0
  9
$DIMTOLJ
 70
     1
  9
$DIMTZIN
 70
     0
  9
$DIMALTZ
 70
     0
  9
$DIMALTTZ
 70
     0
  9
$DIMUPT
 70
     0
  9
$DIMDEC
 70
     4
  9
$DIMTDEC
 70
     4
  9
$DIMALTU
 70
     2
  9
$DIMALTTD
 70
     2
  9
$DIMTXSTY
  7
Standard
  9
$DIMAUNIT
 70
     0
  9
$DIMADEC
 70
     0
  9
$DIMALTRND
 40
0.0
  9
$DIMAZIN
 70
     0
  9
$DIMDSEP
 70
    46
  9
$DIMATFIT
 70
     3
  9
$DIMFRAC
 70
     0
  9
$DIMLDRBLK
  1

  9
$DIMLUNIT
 70
     2
  9
$DIMLWD
 70
    -2
  9
$DIMLWE
 70
    -2
  9
$DIMTMOVE
 70
     0
  9
$LUNITS
 70
     2
  9
$LUPREC
 70
     4
  9
$SKETCHINC
 40
0.1
  9
$FILLETRAD
 40
0.5
  9
$AUNITS
 70
     0
  9
$AUPREC
 70
     0
  9
$MENU
  1
.
  9
$ELEVATION
 40
0.0
  9
$PELEVATION
 40
0.0
  9
$THICKNESS
 40
0.0
  9
$LIMCHECK
 70
     0
  9
$CHAMFERA
 40
0.5
  9
$CHAMFERB
 40
0.5
  9
$CHAMFERC
 40
1.0
  9
$CHAMFERD
 40
0.0
  9
$SKPOLY
 70
     0
  9
$TDCREATE
 40
2455737.14005684
  9
$TDUCREATE
 40
2455737.39005684
  9
$TDUPDATE
 40
2455737.140056852
  9
$TDUUPDATE
 40
2455737.390056852
  9
$TDINDWG
 40
0.0000000116
  9
$TDUSRTIMER
 40
0.0000000116
  9
$USRTIMER
 70
     1
  9
$ANGBASE
 50
0.0
  9
$ANGDIR
 70
     0
  9
$PDMODE
 70
     0
  9
$PDSIZE
 40
0.0
  9
$PLINEWID
 40
0.0
  9
$SPLFRAME
 70
     0
  9
$SPLINETYPE
 70
     6
  9
$SPLINESEGS
 70
     8
  9
$HANDSEED
  5
40
  9
$SURFTAB1
 70
     6
  9
$SURFTAB2
 70
     6
  9
$SURFTYPE
 70
     6
  9
$SURFU
 70
     6
  9
$SURFV
 70
     6
  9
$UCSBASE
  2

  9
$UCSNAME
  2

  9
$UCSORG
 10
0.0
 20
0.0
 30
0.0
  9
$UCSXDIR
 10
1.0
 20
0.0
 30
0.0
  9
$UCSYDIR
 10
0.0
 20
1.0
 30
0.0
  9
$UCSORTHOREF
  2

  9
$UCSORTHOVIEW
 70
     0
  9
$UCSORGTOP
 10
0.0
 20
0.0
 30
0.0
  9
$UCSORGBOTTOM
 10
0.0
 20
0.0
 30
0.0
  9
$UCSORGLEFT
 10
0.0
 20
0.0
 30
0.0
  9
$UCSORGRIGHT
 10
0.0
 20
0.0
 30
0.0
  9
$UCSORGFRONT
 10
0.0
 20
0.0
 30
0.0
  9
$UCSORGBACK
 10
0.0
 20
0.0
 30
0.0
  9
$PUCSBASE
  2

  9
$PUCSNAME
  2

  9
$PUCSORG
 10
0.0
 20
0.0
 30
0.0
  9
$PUCSXDIR
 10
1.0
 20
0.0
 30
0.0
  9
$PUCSYDIR
 10
0.0
 20
1.0
 30
0.0
  9
$PUCSORTHOREF
  2

  9
$PUCSORTHOVIEW
 70
     0
  9
$PUCSORGTOP
 10
0.0
 20
0.0
 30
0.0
  9
$PUCSORGBOTTOM
 10
0.0
 20
0.0
 30
0.0
  9
$PUCSORGLEFT
 10
0.0
 20
0.0
 30
0.0
  9
$PUCSORGRIGHT
 10
0.0
 20
0.0
 30
0.0
  9
$PUCSORGFRONT
 10
0.0
 20
0.0
 30
0.0
  9
$PUCSORGBACK
 10
0.0
 20
0.0
 30
0.0
  9
$USERI1
 70
     0
  9
$USERI2
 70
     0
  9
$USERI3
 70
     0
  9
$USERI4
 70
     0
  9
$USERI5
 70
     0
  9
$USERR1
 40
0.0
  9
$USERR2
 40
0.0
  9
$USERR3
 40
0.0
  9
$USERR4
 40
0.0
  9
$USERR5
 40
0.0
  9
$WORLDVIEW
 70
     1
  9
$SHADEDGE
 70
     3
  9
$SHADEDIF
 70
    70
  9
$TILEMODE
 70
     1
  9
$MAXACTVP
 70
    64
  9
$PINSBASE
 10
0.0
 20
0.0
 30
0.0
  9
$PLIMCHECK
 70
     0
  9
$PEXTMIN
 10
1.000000000000000E+20
 20
1.000000000000000E+20
 30
1.000000000000000E+20
  9
$PEXTMAX
 10
-1.000000000000000E+20
 20
-1.000000000000000E+20
 30
-1.000000000000000E+20
  9
$PLIMMIN
 10
0.0
 20
0.0
  9
$PLIMMAX
 10
12.0
 20
9.0
  9
$UNITMODE
 70
     0
  9
$VISRETAIN
 70
     1
  9
$PLINEGEN
 70
     0
  9
$PSLTSCALE
 70
     1
  9
$TREEDEPTH
 70
  3020
  9
$CMLSTYLE
  2
Standard
  9
$CMLJUST
 70
     0
  9
$CMLSCALE
 40
1.0
  9
$PROXYGRAPHICS
 70
     1
  9
$MEASUREMENT
 70
     0
  9
$CELWEIGHT
370
    -1
  9
$ENDCAPS
280
     0
  9
$JOINSTYLE
280
     0
  9
$LWDISPLAY
290
     1
  9
$INSUNITS
 70
     1
  9
$HYPERLINKBASE
  1

  9
$STYLESHEET
  1

  9
$XEDIT
290
     1
  9
$CEPSNTYPE
380
     0
  9
$PSTYLEMODE
290
     1
  9
$FINGERPRINTGUID
  2
{5D5C65E9-3490-435E-9B82-C51304F506AD}
  9
$VERSIONGUID
  2
{FAEB1C32-E019-11D5-929B-00C0DF256EC4}
  9
$EXTNAMES
290
     1
  9
$PSVPSCALE
 40
0.0
  9
$OLESTARTUP
290
     0
  9
$SORTENTS
280
   127
  9
$INDEXCTL
280
     0
  9
$HIDETEXT
280
     1
  9
$XCLIPFRAME
290
     0
  9
$HALOGAP
280
     0
  9
$OBSCOLOR
 70
   257
  9
$OBSLTYPE
280
     0
  9
$INTERSECTIONDISPLAY
280
     0
  9
$INTERSECTIONCOLOR
 70
   257
  9
$DIMASSOC
280
     2
  9
$PROJECTNAME
  1

  0
ENDSEC
  0
SECTION
  2
CLASSES
  0
CLASS
  1
ACDBDICTIONARYWDFLT
  2
AcDbDictionaryWithDefault
  3
ObjectDBX Classes
 90
        0
 91
        3
280
     0
281
     0
  0
CLASS
  1
VISUALSTYLE
  2
AcDbVisualStyle
  3
ObjectDBX Classes
 90
     4095
 91
        3
280
     0
281
     0
  0
ENDSEC
  0
SECTION
  2
TABLES
  0
TABLE
  2
VPORT
  5
8
330
0
100
AcDbSymbolTable
 70
     1
  0
VPORT
  5
29
330
8
100
AcDbSymbolTableRecord
100
AcDbViewportTableRecord
  2
*Active
 70
     0
 10
0.0
 20
0.0
 11
1.0
 21
1.0
 12
0.0
 22
0.0
 13
0.0
 23
0.0
 14
0.5
 24
0.5
 15
0.5
 25
0.5
 16
0.0
 26
0.0
 36
1.0
 17
50.7999999873
 27
50.19159612460489
 37
0.0
 40
100.4727647318263
 41
1.011219311479907
 42
50.0
 43
0.0
 44
0.0
 50
0.0
 51
0.0
 71
     0
 72
   100
 73
     1
 74
     3
 75
     0
 76
     0
 77
     0
 78
     0
281
     0
 65
     1
110
0.0
120
0.0
130
0.0
111
1.0
121
0.0
131
0.0
112
0.0
122
1.0
132
0.0
 79
     0
146
0.0
  0
ENDTAB
  0
TABLE
  2
LTYPE
  5
5
330
0
100
AcDbSymbolTable
 70
     1
  0
LTYPE
  5
14
330
5
100
AcDbSymbolTableRecord
100
AcDbLinetypeTableRecord
  2
ByBlock
 70
     0
  3

 72
    65
 73
     0
 40
0.0
  0
LTYPE
  5
15
330
5
100
AcDbSymbolTableRecord
100
AcDbLinetypeTableRecord
  2
ByLayer
 70
     0
  3

 72
    65
 73
     0
 40
0.0
  0
LTYPE
  5
16
330
5
100
AcDbSymbolTableRecord
100
AcDbLinetypeTableRecord
  2
Continuous
 70
     0
  3
Solid line
 72
    65
 73
     0
 40
0.0
  0
ENDTAB
  0
TABLE
  2
LAYER
  5
2
330
0
100
AcDbSymbolTable
 70
     2
  0
LAYER
  5
10
330
2
100
AcDbSymbolTableRecord
100
AcDbLayerTableRecord
  2
0
 70
     0
 62
     7
  6
Continuous
370
    -3
390
F
  0
LAYER
  5
3B
330
2
100
AcDbSymbolTableRecord
100
AcDbLayerTableRecord
  2
Layer 1
 70
     0
 62
     7
  6
Continuous
370
    -3
390
F
  0
ENDTAB
  0
TABLE
  2
STYLE
  5
3
330
0
100
AcDbSymbolTable
 70
     1
  0
STYLE
  5
11
330
3
100
AcDbSymbolTableRecord
100
AcDbTextStyleTableRecord
  2
Standard
 70
     0
 40
0.0
 41
1.0
 50
0.0
 71
     0
 42
0.2
  3
txt
  4

  0
ENDTAB
  0
TABLE
  2
VIEW
  5
6
330
0
100
AcDbSymbolTable
 70
     0
  0
ENDTAB
  0
TABLE
  2
UCS
  5
7
330
0
100
AcDbSymbolTable
 70
     0
  0
ENDTAB
  0
TABLE
  2
APPID
  5
9
330
0
100
AcDbSymbolTable
 70
     1
  0
APPID
  5
12
330
9
100
AcDbSymbolTableRecord
100
AcDbRegAppTableRecord
  2
ACAD
 70
     0
  0
ENDTAB
  0
TABLE
  2
DIMSTYLE
  5
A
330
0
100
AcDbSymbolTable
 70
     1
100
AcDbDimStyleTable
  0
DIMSTYLE
105
27
330
A
100
AcDbSymbolTableRecord
100
AcDbDimStyleTableRecord
  2
Standard
 70
     0
340
11
  0
ENDTAB
  0
TABLE
  2
BLOCK_RECORD
  5
1
330
0
100
AcDbSymbolTable
 70
     1
  0
BLOCK_RECORD
  5
1F
330
1
100
AcDbSymbolTableRecord
100
AcDbBlockTableRecord
  2
*Model_Space
340
22
  0
BLOCK_RECORD
  5
1B
330
1
100
AcDbSymbolTableRecord
100
AcDbBlockTableRecord
  2
*Paper_Space
340
1E
  0
BLOCK_RECORD
  5
23
330
1
100
AcDbSymbolTableRecord
100
AcDbBlockTableRecord
  2
*Paper_Space0
340
26
  0
ENDTAB
  0
ENDSEC
  0
SECTION
  2
BLOCKS
  0
BLOCK
  5
20
330
1F
100
AcDbEntity
  8
0
100
AcDbBlockBegin
  2
*Model_Space
 70
     0
 71
     0
 10
0.0
 20
0.0
 30
0.0
  3
*Model_Space
  1

  0
ENDBLK
  5
21
330
1F
100
AcDbEntity
  8
0
100
AcDbBlockEnd
  0
BLOCK
  5
1C
330
1B
100
AcDbEntity
 67
     1
  8
0
100
AcDbBlockBegin
  2
*Paper_Space
 70
     0
 71
     0
 10
0.0
 20
0.0
 30
0.0
  3
*Paper_Space
  1

  0
ENDBLK
  5
1D
330
1B
100
AcDbEntity
 67
     1
  8
0
100
AcDbBlockEnd
  0
BLOCK
  5
24
330
23
100
AcDbEntity
  8
0
100
AcDbBlockBegin
  2
*Paper_Space0
 70
     0
 71
     0
 10
0.0
 20
0.0
 30
0.0
  3
*Paper_Space0
  1

  0
ENDBLK
  5
25
330
23
100
AcDbEntity
  8
0
100
AcDbBlockEnd
  0
ENDSEC
  0
SECTION
  2
ENTITIES
  0
SPLINE
  5
3C
330
1F
100
AcDbEntity
  8
Layer 1
370
     0
100
AcDbSpline
210
0.0
220
0.0
230
1.0
 70
    11
 71
     3
 72
   197
 73
   193
 74
     0
 42
0.0000000001
 43
0.0000000001
 40
0.0
 40
0.0
 40
0.0
 40
0.0
 40
1.0
 40
1.0
 40
1.0
 40
2.0
 40
2.0
 40
2.0
 40
3.0
 40
3.0
 40
3.0
 40
4.0
 40
4.0
 40
4.0
 40
5.0
 40
5.0
 40
5.0
 40
6.0
 40
6.0
 40
6.0
 40
7.0
 40
7.0
 40
7.0
 40
8.0
 40
8.0
 40
8.0
 40
9.0
 40
9.0
 40
9.0
 40
10.0
 40
10.0
 40
10.0
 40
11.0
 40
11.0
 40
11.0
 40
12.0
 40
12.0
 40
12.0
 40
13.0
 40
13.0
 40
13.0
 40
14.0
 40
14.0
 40
14.0
 40
15.0
 40
15.0
 40
15.0
 40
16.0
 40
16.0
 40
16.0
 40
17.0
 40
17.0
 40
17.0
 40
18.0
 40
18.0
 40
18.0
 40
19.0
 40
19.0
 40
19.0
 40
20.0
 40
20.0
 40
20.0
 40
21.0
 40
21.0
 40
21.0
 40
22.0
 40
22.0
 40
22.0
 40
23.0
 40
23.0
 40
23.0
 40
24.0
 40
24.0
 40
24.0
 40
25.0
 40
25.0
 40
25.0
 40
26.0
 40
26.0
 40
26.0
 40
27.0
 40
27.0
 40
27.0
 40
28.0
 40
28.0
 40
28.0
 40
29.0
 40
29.0
 40
29.0
 40
30.0
 40
30.0
 40
30.0
 40
31.0
 40
31.0
 40
31.0
 40
32.0
 40
32.0
 40
32.0
 40
33.0
 40
33.0
 40
33.0
 40
34.0
 40
34.0
 40
34.0
 40
35.0
 40
35.0
 40
35.0
 40
36.0
 40
36.0
 40
36.0
 40
37.0
 40
37.0
 40
37.0
 40
38.0
 40
38.0
 40
38.0
 40
39.0
 40
39.0
 40
39.0
 40
40.0
 40
40.0
 40
40.0
 40
41.0
 40
41.0
 40
41.0
 40
42.0
 40
42.0
 40
42.0
 40
43.0
 40
43.0
 40
43.0
 40
44.0
 40
44.0
 40
44.0
 40
45.0
 40
45.0
 40
45.0
 40
46.0
 40
46.0
 40
46.0
 40
47.0
 40
47.0
 40
47.0
 40
48.0
 40
48.0
 40
48.0
 40
49.0
 40
49.0
 40
49.0
 40
50.0
 40
50.0
 40
50.0
 40
51.0
 40
51.0
 40
51.0
 40
52.0
 40
52.0
 40
52.0
 40
53.0
 40
53.0
 40
53.0
 40
54.0
 40
54.0
 40
54.0
 40
55.0
 40
55.0
 40
55.0
 40
56.0
 40
56.0
 40
56.0
 40
57.0
 40
57.0
 40
57.0
 40
58.0
 40
58.0
 40
58.0
 40
59.0
 40
59.0
 40
59.0
 40
60.0
 40
60.0
 40
60.0
 40
61.0
 40
61.0
 40
61.0
 40
62.0
 40
62.0
 40
62.0
 40
63.0
 40
63.0
 40
63.0
 40
64.0
 40
64.0
 40
64.0
 40
64.0
 10
27.7338799301325
 20
4.359768336583669
 30
0.0
 10
32.17753634178201
 20
5.904893661718221
 30
0.0
 10
36.59845512322886
 20
8.145583765324716
 30
0.0
 10
40.51432290653809
 20
10.68634168569647
 30
0.0
 10
47.81792533526774
 20
15.43058267843402
 30
0.0
 10
54.20478785537242
 20
22.187103944106
 30
0.0
 10
58.68720159123098
 20
29.62162000127515
 30
0.0
 10
59.7755072550214
 20
31.42685003554607
 30
0.0
 10
60.62541231123254
 20
33.24999456634028
 30
0.0
 10
61.29548338311363
 20
35.0841634026873
 30
0.0
 10
62.78583169003271
 20
33.53662651071307
 30
0.0
 10
65.13159720593933
 20
32.30362683654215
 30
0.0
 10
66.9113335336194
 20
31.701768655269
 30
0.0
 10
70.22275931404154
 20
30.58107909391723
 30
0.0
 10
74.28659394844225
 20
30.681331372538
 30
0.0
 10
77.8312526932158
 20
30.88114691068249
 30
0.0
 10
82.19102102979947
 20
31.12678221878081
 30
0.0
 10
86.96144474822492
 20
31.56189777856786
 30
0.0
 10
91.16136065429299
 20
32.86724445792903
 30
0.0
 10
93.60875648701449
 20
33.62826605062071
 30
0.0
 10
101.5142170970173
 20
35.87446830700361
 30
0.0
 10
101.599310955503
 20
39.02879773329835
 30
0.0
 10
101.6943955908959
 20
42.56415472026174
 30
0.0
 10
93.13471134824411
 20
44.20057507575542
 30
0.0
 10
90.69144963010491
 20
44.59676105655915
 30
0.0
 10
82.23925236659296
 20
45.96790905968858
 30
0.0
 10
72.91337888802165
 20
45.5159125320238
 30
0.0
 10
65.01377494034378
 20
41.98606769783682
 30
0.0
 10
64.36368542227714
 20
41.69564614843026
 30
0.0
 10
63.62057832610875
 20
41.3928222552768
 30
0.0
 10
62.90606552246793
 20
41.04900172584886
 30
0.0
 10
63.21302353020369
 20
42.68886717682778
 30
0.0
 10
63.4283419980318
 20
44.33424478058311
 30
0.0
 10
63.59301756222675
 20
45.98582355621188
 30
0.0
 10
63.79558917675944
 20
48.02325302618863
 30
0.0
 10
63.92202418106811
 20
50.0711900373954
 30
0.0
 10
64.04570310898858
 20
52.13583576170563
 30
0.0
 10
65.1601914984669
 20
52.44107122169876
 30
0.0
 10
66.2123236596622
 20
52.97264945507281
 30
0.0
 10
67.18108451011446
 20
53.63204073094963
 30
0.0
 10
72.91131183073051
 20
57.5325778393495
 30
0.0
 10
76.42255314929714
 20
64.00935735161919
 30
0.0
 10
80.419552931284
 20
69.65052895394153
 30
0.0
 10
81.87751734064173
 20
71.70897350637831
 30
0.0
 10
83.811593946061
 20
78.3456054491636
 30
0.0
 10
83.89772133319224
 20
78.44034557500797
 30
0.0
 10
86.16321612429253
 20
80.93666176362001
 30
0.0
 10
87.41171872814708
 20
83.98849959922858
 30
0.0
 10
88.65126408373996
 20
86.99520668398037
 30
0.0
 10
89.3082437927771
 20
88.58890785545694
 30
0.0
 10
89.7767767787711
 20
90.31283363627597
 30
0.0
 10
89.50771482137307
 20
92.13442787410182
 30
0.0
 10
89.31754555058728
 20
93.42427162377935
 30
0.0
 10
88.63851723044453
 20
96.01188284275051
 30
0.0
 10
87.53229707013082
 20
96.8027045113896
 30
0.0
 10
84.10580510050133
 20
99.25182289185372
 30
0.0
 10
79.14383407309599
 20
94.91169159953597
 30
0.0
 10
77.46848413861899
 20
92.3485405585101
 30
0.0
 10
75.78245440813772
 20
89.768853059155
 30
0.0
 10
74.5177598555025
 20
85.66195473118869
 30
0.0
 10
74.46436087548113
 20
82.36603188045017
 30
0.0
 10
74.36273055866627
 20
82.36723766387
 30
0.0
 10
74.26282278959403
 20
82.3686157020641
 30
0.0
 10
74.16498207781292
 20
82.37016599503247
 30
0.0
 10
73.34539386187198
 20
84.88146834900533
 30
0.0
 10
74.32586803697409
 20
88.90585664009993
 30
0.0
 10
74.09504663946235
 20
91.49208982087698
 30
0.0
 10
73.83563094942303
 20
94.40147295817047
 30
0.0
 10
72.83620874915206
 20
99.32365313272118
 30
0.0
 10
69.80728079852041
 20
100.224545602114
 30
0.0
 10
65.66799857299273
 20
101.455650473768
 30
0.0
 10
64.06361760551188
 20
96.82768145365766
 30
0.0
 10
63.38975692859701
 20
93.63287215541123
 30
0.0
 10
62.65629609978732
 20
90.15711532034267
 30
0.0
 10
61.91663409910418
 20
86.13014320763413
 30
0.0
 10
61.83877494113753
 20
82.45319279622699
 30
0.0
 10
61.68581270159244
 20
82.44836966254763
 30
0.0
 10
61.53319497159587
 20
82.44147947157714
 30
0.0
 10
61.3805772415993
 20
82.43596731880073
 30
0.0
 10
61.32821179022351
 20
82.60167641164125
 30
0.0
 10
61.27825790568738
 20
82.7644571733193
 30
0.0
 10
61.23106009753946
 20
82.91552461034752
 30
0.0
 10
59.96429848761309
 20
86.99761825082004
 30
0.0
 10
59.53848468563621
 20
101.9641465673909
 30
0.0
 10
52.89117294684665
 20
100.2776000725868
 30
0.0
 10
48.7232964287914
 20
99.22030026816368
 30
0.0
 10
48.60823023958405
 20
94.87121172758428
 30
0.0
 10
48.60823023958405
 20
91.2779771364687
 30
0.0
 10
48.60823023958405
 20
89.5232177510567
 30
0.0
 10
48.54897459723776
 20
87.77638208526076
 30
0.0
 10
48.8702297512373
 20
86.13875594634726
 30
0.0
 10
49.15944551722403
 20
84.66322155001475
 30
0.0
 10
49.87981498318977
 20
83.14100610985712
 30
0.0
 10
50.03915064938258
 20
81.55677895096498
 30
0.0
 10
49.83899060168956
 20
81.53180200869691
 30
0.0
 10
49.63676349670539
 20
81.50561928300901
 30
0.0
 10
49.43315835352713
 20
81.47805851912702
 30
0.0
 10
48.03961722974357
 20
83.34013262890456
 30
0.0
 10
46.71342772269664
 20
85.29229598562138
 30
0.0
 10
45.44322101728503
 20
87.25703394085936
 30
0.0
 10
43.79181449643052
 20
89.81088322407506
 30
0.0
 10
41.33511690589886
 20
92.64550778933862
 30
0.0
 10
38.59161511622015
 20
94.10932886102128
 30
0.0
 10
35.95370550316435
 20
95.5168226215201
 30
0.0
 10
31.11713595142211
 20
94.84778507828459
 30
0.0
 10
31.73949245083249
 20
90.84975176765215
 30
0.0
 10
32.17650281313643
 20
88.04062090897943
 30
0.0
 10
34.33830023013071
 20
84.66270478569197
 30
0.0
 10
36.19382865848627
 20
82.49298364908162
 30
0.0
 10
37.64249131003383
 20
80.79885794421001
 30
0.0
 10
39.06445447157069
 20
79.1777682636257
 30
0.0
 10
40.65316025459366
 20
77.81092662985283
 30
0.0
 10
40.12881672173863
 20
75.60658228361572
 30
0.0
 10
43.35084227431854
 20
70.71092934430143
 30
0.0
 10
44.553352853445
 20
68.8805501129882
 30
0.0
 10
45.93225232141624
 20
66.78214245292253
 30
0.0
 10
47.38212075638364
 20
64.47702906374185
 30
0.0
 10
49.07297362054426
 20
62.61840004944957
 30
0.0
 10
50.28616399567499
 20
61.28497584188362
 30
0.0
 10
51.69848088985316
 20
59.18243406723565
 30
0.0
 10
53.14507648410957
 20
58.07121851846831
 30
0.0
 10
55.45501300696958
 20
56.29613306969333
 30
0.0
 10
57.31743162629564
 20
52.79918889739049
 30
0.0
 10
60.26574434257245
 20
52.06813963542047
 30
0.0
 10
60.48416339633729
 20
52.01387938152778
 30
0.0
 10
60.70051539281098
 20
51.97426078344741
 30
0.0
 10
60.91617837018762
 20
51.94118786678901
 30
0.0
 10
60.73255478082381
 20
48.89934080808766
 30
0.0
 10
60.53825139545572
 20
45.97066513607678
 30
0.0
 10
60.10589191205686
 20
43.14637585726896
 30
0.0
 10
59.78963214651093
 20
41.07518445153676
 30
0.0
 10
59.34831541485043
 20
39.05808104492298
 30
0.0
 10
58.6971923681382
 20
37.07921819819548
 30
0.0
 10
58.04538030232894
 20
35.10001084191944
 30
0.0
 10
57.18513995966205
 20
33.15766600733559
 30
0.0
 10
56.02207572384171
 20
31.22703449740158
 30
0.0
 10
55.62520072394093
 20
30.56764322152476
 30
0.0
 10
55.20627711293454
 20
29.91514213661844
 30
0.0
 10
54.77701821547242
 20
29.26711967584295
 30
0.0
 10
54.55377602802822
 20
30.75230033953415
 30
0.0
 10
54.07284069828735
 20
32.28467881137328
 30
0.0
 10
53.73556585028139
 20
33.45084363313035
 30
0.0
 10
52.71754013439006
 20
36.97035318086158
 30
0.0
 10
51.01566296467664
 20
40.19978568873478
 30
0.0
 10
48.61322562803767
 20
43.08712021492266
 30
0.0
 10
44.02728677284735
 20
48.5978949531283
 30
0.0
 10
36.17987602177101
 20
54.59046629494613
 30
0.0
 10
28.69385578709737
 20
54.87520343680203
 30
0.0
 10
23.68365342289853
 20
55.06571721713635
 30
0.0
 10
24.04332139155861
 20
52.07020669271161
 30
0.0
 10
24.63105468134224
 20
48.02325302618863
 30
0.0
 10
25.22378335957947
 20
43.94081487616758
 30
0.0
 10
26.9940456746751
 20
39.79498696921792
 30
0.0
 10
29.71670463666805
 20
36.67373045958157
 30
0.0
 10
33.049662263873
 20
32.8531195664395
 30
0.0
 10
37.05114066999069
 20
29.49484048741796
 30
0.0
 10
41.5742065325752
 20
27.17215711126252
 30
0.0
 10
44.1900675345254
 20
25.82925889111213
 30
0.0
 10
47.80035534829297
 20
24.15425346618366
 30
0.0
 10
50.91368813831325
 20
24.09913193841966
 30
0.0
 10
47.40416936748924
 20
19.91713052887489
 30
0.0
 10
43.27505017364305
 20
16.18574760880079
 30
0.0
 10
38.82019720166648
 20
13.29634602532175
 30
0.0
 10
35.10448946605027
 20
10.88340114745276
 30
0.0
 10
30.88149142023102
 20
8.747441946597862
 30
0.0
 10
26.71705999766101
 20
7.300846352341456
 30
0.0
 10
26.71705999766101
 20
7.300846352341456
 30
0.0
 10
26.71258137353019
 20
7.299123804598831
 30
0.0
 10
26.71258137353019
 20
7.299123804598831
 30
0.0
 10
19.93332247765556
 20
4.943023002236466
 30
0.0
 10
12.84607204539959
 20
3.485058592878735
 30
0.0
 10
5.695087346666506
 20
3.109543184986503
 30
0.0
 10
5.093745929716147
 20
3.077848306522205
 30
0.0
 10
4.479313149921839
 20
3.06716851051793
 30
0.0
 10
3.854372828897518
 20
3.06716851051793
 30
0.0
 10
2.604664441623139
 20
3.066824000969405
 30
0.0
 10
1.313787163300026
 20
3.111610242277653
 30
0.0
 10
0.0
 20
3.111610242277653
 30
0.0
 10
0.0
 20
3.111610242277653
 30
0.0
 10
0.0
 20
0.0
 30
0.0
 10
0.0
 20
0.0
 30
0.0
 10
1.241612412884041
 20
0.000344509548525
 30
0.0
 10
2.53283420075568
 20
-0.0444417317597229
 30
0.0
 10
3.854372828897518
 20
-0.0447862413082479
 30
0.0
 10
4.515314397742699
 20
-0.0447862413082479
 30
0.0
 10
5.184007431429693
 20
-0.0330729166583984
 30
0.0
 10
5.858212617893086
 20
0.0020670572911499
 30
0.0
 10
13.32149522236407
 20
0.3944634330611064
 30
0.0
 10
20.69296603215315
 20
1.91340603250776
 30
0.0
 10
27.7297458155502
 20
4.358734807938094
 30
0.0
 10
27.7297458155502
 20
4.358734807938094
 30
0.0
 10
27.7338799301325
 20
4.359768336583669
 30
0.0
 10
27.7338799301325
 20
4.359768336583669
 30
0.0
  0
SPLINE
  5
3D
330
1F
100
AcDbEntity
  8
Layer 1
370
     0
100
AcDbSpline
210
0.0
220
0.0
230
1.0
 70
    11
 71
     3
 72
    29
 73
    25
 74
     0
 42
0.0000000001
 43
0.0000000001
 40
0.0
 40
0.0
 40
0.0
 40
0.0
 40
1.0
 40
1.0
 40
1.0
 40
2.0
 40
2.0
 40
2.0
 40
3.0
 40
3.0
 40
3.0
 40
4.0
 40
4.0
 40
4.0
 40
5.0
 40
5.0
 40
5.0
 40
6.0
 40
6.0
 40
6.0
 40
7.0
 40
7.0
 40
7.0
 40
8.0
 40
8.0
 40
8.0
 40
8.0
 10
58.25897622241443
 20
66.12154539362587
 30
0.0
 10
55.83018390531329
 20
68.02375486580657
 30
0.0
 10
53.34937064638488
 20
70.06549070513988
 30
0.0
 10
52.29689397564105
 20
73.07736543311955
 30
0.0
 10
51.020486098356
 20
76.73088919522701
 30
0.0
 10
54.36429577633948
 20
76.99891762397944
 30
0.0
 10
57.18479545011353
 20
76.54967717270286
 30
0.0
 10
60.79146591362158
 20
75.9750352457632
 30
0.0
 10
62.4561360520943
 20
73.6309922775992
 30
0.0
 10
63.87138127743493
 20
70.5242051690009
 30
0.0
 10
65.11506074761013
 20
72.73767901827392
 30
0.0
 10
67.47598468365184
 20
75.01023625511897
 30
0.0
 10
70.23585067688549
 20
75.44311250284062
 30
0.0
 10
73.6061875901054
 20
75.97210691460073
 30
0.0
 10
75.05932886578378
 20
73.85526799368897
 30
0.0
 10
73.72642142254062
 20
70.8869737235977
 30
0.0
 10
72.70529512071256
 20
68.61355521288134
 30
0.0
 10
70.81669377569861
 20
66.72857121812689
 30
0.0
 10
69.22368162331908
 20
64.88010523551608
 30
0.0
 10
67.87113713581
 20
63.31017522288774
 30
0.0
 10
66.50205618997171
 20
60.33929713118254
 30
0.0
 10
64.1921196671117
 20
60.93478188580797
 30
0.0
 10
62.10439180305029
 20
61.47359481970105
 30
0.0
 10
59.95361869160882
 20
64.79363333883632
 30
0.0
 10
58.25897622241443
 20
66.12154539362587
 30
0.0
  0
HATCH
  5
3E
330
1F
100
AcDbEntity
  8
Layer 1
 62
    53
420
 16245054
100
AcDbHatch
 10
0.0
 20
0.0
 30
0.0
210
0.0
220
0.0
230
1.0
  2
SOLID
 70
     1
 71
     0
 91
        2
 92
        1
 93
        1
 72
     4
 94
        3
 73
     0
 74
     1
 95
      197
 96
      193
 40
0.0
 40
0.0
 40
0.0
 40
0.0
 40
1.0
 40
1.0
 40
1.0
 40
2.0
 40
2.0
 40
2.0
 40
3.0
 40
3.0
 40
3.0
 40
4.0
 40
4.0
 40
4.0
 40
5.0
 40
5.0
 40
5.0
 40
6.0
 40
6.0
 40
6.0
 40
7.0
 40
7.0
 40
7.0
 40
8.0
 40
8.0
 40
8.0
 40
9.0
 40
9.0
 40
9.0
 40
10.0
 40
10.0
 40
10.0
 40
11.0
 40
11.0
 40
11.0
 40
12.0
 40
12.0
 40
12.0
 40
13.0
 40
13.0
 40
13.0
 40
14.0
 40
14.0
 40
14.0
 40
15.0
 40
15.0
 40
15.0
 40
16.0
 40
16.0
 40
16.0
 40
17.0
 40
17.0
 40
17.0
 40
18.0
 40
18.0
 40
18.0
 40
19.0
 40
19.0
 40
19.0
 40
20.0
 40
20.0
 40
20.0
 40
21.0
 40
21.0
 40
21.0
 40
22.0
 40
22.0
 40
22.0
 40
23.0
 40
23.0
 40
23.0
 40
24.0
 40
24.0
 40
24.0
 40
25.0
 40
25.0
 40
25.0
 40
26.0
 40
26.0
 40
26.0
 40
27.0
 40
27.0
 40
27.0
 40
28.0
 40
28.0
 40
28.0
 40
29.0
 40
29.0
 40
29.0
 40
30.0
 40
30.0
 40
30.0
 40
31.0
 40
31.0
 40
31.0
 40
32.0
 40
32.0
 40
32.0
 40
33.0
 40
33.0
 40
33.0
 40
34.0
 40
34.0
 40
34.0
 40
35.0
 40
35.0
 40
35.0
 40
36.0
 40
36.0
 40
36.0
 40
37.0
 40
37.0
 40
37.0
 40
38.0
 40
38.0
 40
38.0
 40
39.0
 40
39.0
 40
39.0
 40
40.0
 40
40.0
 40
40.0
 40
41.0
 40
41.0
 40
41.0
 40
42.0
 40
42.0
 40
42.0
 40
43.0
 40
43.0
 40
43.0
 40
44.0
 40
44.0
 40
44.0
 40
45.0
 40
45.0
 40
45.0
 40
46.0
 40
46.0
 40
46.0
 40
47.0
 40
47.0
 40
47.0
 40
48.0
 40
48.0
 40
48.0
 40
49.0
 40
49.0
 40
49.0
 40
50.0
 40
50.0
 40
50.0
 40
51.0
 40
51.0
 40
51.0
 40
52.0
 40
52.0
 40
52.0
 40
53.0
 40
53.0
 40
53.0
 40
54.0
 40
54.0
 40
54.0
 40
55.0
 40
55.0
 40
55.0
 40
56.0
 40
56.0
 40
56.0
 40
57.0
 40
57.0
 40
57.0
 40
58.0
 40
58.0
 40
58.0
 40
59.0
 40
59.0
 40
59.0
 40
60.0
 40
60.0
 40
60.0
 40
61.0
 40
61.0
 40
61.0
 40
62.0
 40
62.0
 40
62.0
 40
63.0
 40
63.0
 40
63.0
 40
64.0
 40
64.0
 40
64.0
 40
64.0
 10
27.7338799301325
 20
4.359768336583669
 10
32.17753634178201
 20
5.904893661718221
 10
36.59845512322886
 20
8.145583765324716
 10
40.51432290653809
 20
10.68634168569647
 10
47.81792533526774
 20
15.43058267843402
 10
54.20478785537242
 20
22.187103944106
 10
58.68720159123098
 20
29.62162000127515
 10
59.7755072550214
 20
31.42685003554607
 10
60.62541231123254
 20
33.24999456634028
 10
61.29548338311363
 20
35.0841634026873
 10
62.78583169003271
 20
33.53662651071307
 10
65.13159720593933
 20
32.30362683654215
 10
66.9113335336194
 20
31.701768655269
 10
70.22275931404154
 20
30.58107909391723
 10
74.28659394844225
 20
30.681331372538
 10
77.8312526932158
 20
30.88114691068249
 10
82.19102102979947
 20
31.12678221878081
 10
86.96144474822492
 20
31.56189777856786
 10
91.16136065429299
 20
32.86724445792903
 10
93.60875648701449
 20
33.62826605062071
 10
101.5142170970173
 20
35.87446830700361
 10
101.599310955503
 20
39.02879773329835
 10
101.6943955908959
 20
42.56415472026174
 10
93.13471134824411
 20
44.20057507575542
 10
90.69144963010491
 20
44.59676105655915
 10
82.23925236659296
 20
45.96790905968858
 10
72.91337888802165
 20
45.5159125320238
 10
65.01377494034378
 20
41.98606769783682
 10
64.36368542227714
 20
41.69564614843026
 10
63.62057832610875
 20
41.3928222552768
 10
62.90606552246793
 20
41.04900172584886
 10
63.21302353020369
 20
42.68886717682778
 10
63.4283419980318
 20
44.33424478058311
 10
63.59301756222675
 20
45.98582355621188
 10
63.79558917675944
 20
48.02325302618863
 10
63.92202418106811
 20
50.0711900373954
 10
64.04570310898858
 20
52.13583576170563
 10
65.1601914984669
 20
52.44107122169876
 10
66.2123236596622
 20
52.97264945507281
 10
67.18108451011446
 20
53.63204073094963
 10
72.91131183073051
 20
57.5325778393495
 10
76.42255314929714
 20
64.00935735161919
 10
80.419552931284
 20
69.65052895394153
 10
81.87751734064173
 20
71.70897350637831
 10
83.811593946061
 20
78.3456054491636
 10
83.89772133319224
 20
78.44034557500797
 10
86.16321612429253
 20
80.93666176362001
 10
87.41171872814708
 20
83.98849959922858
 10
88.65126408373996
 20
86.99520668398037
 10
89.3082437927771
 20
88.58890785545694
 10
89.7767767787711
 20
90.31283363627597
 10
89.50771482137307
 20
92.13442787410182
 10
89.31754555058728
 20
93.42427162377935
 10
88.63851723044453
 20
96.01188284275051
 10
87.53229707013082
 20
96.8027045113896
 10
84.10580510050133
 20
99.25182289185372
 10
79.14383407309599
 20
94.91169159953597
 10
77.46848413861899
 20
92.3485405585101
 10
75.78245440813772
 20
89.768853059155
 10
74.5177598555025
 20
85.66195473118869
 10
74.46436087548113
 20
82.36603188045017
 10
74.36273055866627
 20
82.36723766387
 10
74.26282278959403
 20
82.3686157020641
 10
74.16498207781292
 20
82.37016599503247
 10
73.34539386187198
 20
84.88146834900533
 10
74.32586803697409
 20
88.90585664009993
 10
74.09504663946235
 20
91.49208982087698
 10
73.83563094942303
 20
94.40147295817047
 10
72.83620874915206
 20
99.32365313272118
 10
69.80728079852041
 20
100.224545602114
 10
65.66799857299273
 20
101.455650473768
 10
64.06361760551188
 20
96.82768145365766
 10
63.38975692859701
 20
93.63287215541123
 10
62.65629609978732
 20
90.15711532034267
 10
61.91663409910418
 20
86.13014320763413
 10
61.83877494113753
 20
82.45319279622699
 10
61.68581270159244
 20
82.44836966254763
 10
61.53319497159587
 20
82.44147947157714
 10
61.3805772415993
 20
82.43596731880073
 10
61.32821179022351
 20
82.60167641164125
 10
61.27825790568738
 20
82.7644571733193
 10
61.23106009753946
 20
82.91552461034752
 10
59.96429848761309
 20
86.99761825082004
 10
59.53848468563621
 20
101.9641465673909
 10
52.89117294684665
 20
100.2776000725868
 10
48.7232964287914
 20
99.22030026816368
 10
48.60823023958405
 20
94.87121172758428
 10
48.60823023958405
 20
91.2779771364687
 10
48.60823023958405
 20
89.5232177510567
 10
48.54897459723776
 20
87.77638208526076
 10
48.8702297512373
 20
86.13875594634726
 10
49.15944551722403
 20
84.66322155001475
 10
49.87981498318977
 20
83.14100610985712
 10
50.03915064938258
 20
81.55677895096498
 10
49.83899060168956
 20
81.53180200869691
 10
49.63676349670539
 20
81.50561928300901
 10
49.43315835352713
 20
81.47805851912702
 10
48.03961722974357
 20
83.34013262890456
 10
46.71342772269664
 20
85.29229598562138
 10
45.44322101728503
 20
87.25703394085936
 10
43.79181449643052
 20
89.81088322407506
 10
41.33511690589886
 20
92.64550778933862
 10
38.59161511622015
 20
94.10932886102128
 10
35.95370550316435
 20
95.5168226215201
 10
31.11713595142211
 20
94.84778507828459
 10
31.73949245083249
 20
90.84975176765215
 10
32.17650281313643
 20
88.04062090897943
 10
34.33830023013071
 20
84.66270478569197
 10
36.19382865848627
 20
82.49298364908162
 10
37.64249131003383
 20
80.79885794421001
 10
39.06445447157069
 20
79.1777682636257
 10
40.65316025459366
 20
77.81092662985283
 10
40.12881672173863
 20
75.60658228361572
 10
43.35084227431854
 20
70.71092934430143
 10
44.553352853445
 20
68.8805501129882
 10
45.93225232141624
 20
66.78214245292253
 10
47.38212075638364
 20
64.47702906374185
 10
49.07297362054426
 20
62.61840004944957
 10
50.28616399567499
 20
61.28497584188362
 10
51.69848088985316
 20
59.18243406723565
 10
53.14507648410957
 20
58.07121851846831
 10
55.45501300696958
 20
56.29613306969333
 10
57.31743162629564
 20
52.79918889739049
 10
60.26574434257245
 20
52.06813963542047
 10
60.48416339633729
 20
52.01387938152778
 10
60.70051539281098
 20
51.97426078344741
 10
60.91617837018762
 20
51.94118786678901
 10
60.73255478082381
 20
48.89934080808766
 10
60.53825139545572
 20
45.97066513607678
 10
60.10589191205686
 20
43.14637585726896
 10
59.78963214651093
 20
41.07518445153676
 10
59.34831541485043
 20
39.05808104492298
 10
58.6971923681382
 20
37.07921819819548
 10
58.04538030232894
 20
35.10001084191944
 10
57.18513995966205
 20
33.15766600733559
 10
56.02207572384171
 20
31.22703449740158
 10
55.62520072394093
 20
30.56764322152476
 10
55.20627711293454
 20
29.91514213661844
 10
54.77701821547242
 20
29.26711967584295
 10
54.55377602802822
 20
30.75230033953415
 10
54.07284069828735
 20
32.28467881137328
 10
53.73556585028139
 20
33.45084363313035
 10
52.71754013439006
 20
36.97035318086158
 10
51.01566296467664
 20
40.19978568873478
 10
48.61322562803767
 20
43.08712021492266
 10
44.02728677284735
 20
48.5978949531283
 10
36.17987602177101
 20
54.59046629494613
 10
28.69385578709737
 20
54.87520343680203
 10
23.68365342289853
 20
55.06571721713635
 10
24.04332139155861
 20
52.07020669271161
 10
24.63105468134224
 20
48.02325302618863
 10
25.22378335957947
 20
43.94081487616758
 10
26.9940456746751
 20
39.79498696921792
 10
29.71670463666805
 20
36.67373045958157
 10
33.049662263873
 20
32.8531195664395
 10
37.05114066999069
 20
29.49484048741796
 10
41.5742065325752
 20
27.17215711126252
 10
44.1900675345254
 20
25.82925889111213
 10
47.80035534829297
 20
24.15425346618366
 10
50.91368813831325
 20
24.09913193841966
 10
47.40416936748924
 20
19.91713052887489
 10
43.27505017364305
 20
16.18574760880079
 10
38.82019720166648
 20
13.29634602532175
 10
35.10448946605027
 20
10.88340114745276
 10
30.88149142023102
 20
8.747441946597862
 10
26.71705999766101
 20
7.300846352341456
 10
26.71705999766101
 20
7.300846352341456
 10
26.71258137353019
 20
7.299123804598831
 10
26.71258137353019
 20
7.299123804598831
 10
19.93332247765556
 20
4.943023002236466
 10
12.84607204539959
 20
3.485058592878735
 10
5.695087346666506
 20
3.109543184986503
 10
5.093745929716147
 20
3.077848306522205
 10
4.479313149921839
 20
3.06716851051793
 10
3.854372828897518
 20
3.06716851051793
 10
2.604664441623139
 20
3.066824000969405
 10
1.313787163300026
 20
3.111610242277653
 10
0.0
 20
3.111610242277653
 10
0.0
 20
3.111610242277653
 10
0.0
 20
0.0
 10
0.0
 20
0.0
 10
1.241612412884041
 20
0.000344509548525
 10
2.53283420075568
 20
-0.0444417317597229
 10
3.854372828897518
 20
-0.0447862413082479
 10
4.515314397742699
 20
-0.0447862413082479
 10
5.184007431429693
 20
-0.0330729166583984
 10
5.858212617893086
 20
0.0020670572911499
 10
13.32149522236407
 20
0.3944634330611064
 10
20.69296603215315
 20
1.91340603250776
 10
27.7297458155502
 20
4.358734807938094
 10
27.7297458155502
 20
4.358734807938094
 10
27.7338799301325
 20
4.359768336583669
 10
27.7338799301325
 20
4.359768336583669
 97
        0
 92
        1
 93
        1
 72
     4
 94
        3
 73
     0
 74
     1
 95
       29
 96
       25
 40
0.0
 40
0.0
 40
0.0
 40
0.0
 40
1.0
 40
1.0
 40
1.0
 40
2.0
 40
2.0
 40
2.0
 40
3.0
 40
3.0
 40
3.0
 40
4.0
 40
4.0
 40
4.0
 40
5.0
 40
5.0
 40
5.0
 40
6.0
 40
6.0
 40
6.0
 40
7.0
 40
7.0
 40
7.0
 40
8.0
 40
8.0
 40
8.0
 40
8.0
 10
58.25897622241443
 20
66.12154539362587
 10
55.83018390531329
 20
68.02375486580657
 10
53.34937064638488
 20
70.06549070513988
 10
52.29689397564105
 20
73.07736543311955
 10
51.020486098356
 20
76.73088919522701
 10
54.36429577633948
 20
76.99891762397944
 10
57.18479545011353
 20
76.54967717270286
 10
60.79146591362158
 20
75.9750352457632
 10
62.4561360520943
 20
73.6309922775992
 10
63.87138127743493
 20
70.5242051690009
 10
65.11506074761013
 20
72.73767901827392
 10
67.47598468365184
 20
75.01023625511897
 10
70.23585067688549
 20
75.44311250284062
 10
73.6061875901054
 20
75.97210691460073
 10
75.05932886578378
 20
73.85526799368897
 10
73.72642142254062
 20
70.8869737235977
 10
72.70529512071256
 20
68.61355521288134
 10
70.81669377569861
 20
66.72857121812689
 10
69.22368162331908
 20
64.88010523551608
 10
67.87113713581
 20
63.31017522288774
 10
66.50205618997171
 20
60.33929713118254
 10
64.1921196671117
 20
60.93478188580797
 10
62.10439180305029
 20
61.47359481970105
 10
59.95361869160882
 20
64.79363333883632
 10
58.25897622241443
 20
66.12154539362587
 97
        0
 75
     2
 76
     1
 98
        0
  0
ENDSEC
  0
SECTION
  2
OBJECTS
  0
DICTIONARY
  5
C
330
0
100
AcDbDictionary
281
     1
  3
ACAD_GROUP
350
D
  3
ACAD_LAYOUT
350
1A
  3
ACAD_MLINESTYLE
350
17
  3
ACAD_PLOTSETTINGS
350
19
  3
ACAD_PLOTSTYLENAME
350
E
  3
ACAD_TABLESTYLE
350
3F
  3
ACAD_VISUALSTYLE
350
2A
  0
DICTIONARY
  5
D
102
{ACAD_REACTORS
330
C
102
}
330
C
100
AcDbDictionary
281
     1
  0
DICTIONARY
  5
1A
102
{ACAD_REACTORS
330
C
102
}
330
C
100
AcDbDictionary
281
     1
  3
Layout1
350
1E
  3
Layout2
350
26
  3
Model
350
22
  0
DICTIONARY
  5
17
102
{ACAD_REACTORS
330
C
102
}
330
C
100
AcDbDictionary
281
     1
  3
Standard
350
18
  0
DICTIONARY
  5
19
102
{ACAD_REACTORS
330
C
102
}
330
C
100
AcDbDictionary
281
     1
  0
ACDBDICTIONARYWDFLT
  5
E
102
{ACAD_REACTORS
330
C
102
}
330
C
100
AcDbDictionary
281
     1
  3
Normal
350
F
100
AcDbDictionaryWithDefault
340
F
  0
DICTIONARY
  5
3F
102
{ACAD_REACTORS
330
C
102
}
330
C
100
AcDbDictionary
281
     1
  0
DICTIONARY
  5
2A
102
{ACAD_REACTORS
330
C
102
}
330
C
100
AcDbDictionary
281
     1
  3
2dWireframe
350
2F
  3
3D Hidden
350
31
  3
3dWireframe
350
30
  3
Basic
350
32
  3
Brighten
350
36
  3
ColorChange
350
3A
  3
Conceptual
350
34
  3
Dim
350
35
  3
Facepattern
350
39
  3
Flat
350
2B
  3
FlatWithEdges
350
2C
  3
Gouraud
350
2D
  3
GouraudWithEdges
350
2E
  3
Linepattern
350
38
  3
Realistic
350
33
  3
Thicken
350
37
  0
LAYOUT
  5
1E
102
{ACAD_REACTORS
330
1A
102
}
330
1A
100
AcDbPlotSettings
  1

  2
none_device
  4

  6

 40
0.0
 41
0.0
 42
0.0
 43
0.0
 44
0.0
 45
0.0
 46
0.0
 47
0.0
 48
0.0
 49
0.0
140
0.0
141
0.0
142
1.0
143
1.0
 70
   688
 72
     0
 73
     0
 74
     5
  7

 75
    16
 76
     0
 77
     2
 78
   300
147
1.0
148
0.0
149
0.0
100
AcDbLayout
  1
Layout1
 70
     1
 71
     1
 10
0.0
 20
0.0
 11
12.0
 21
9.0
 12
0.0
 22
0.0
 32
0.0
 14
1.000000000000000E+20
 24
1.000000000000000E+20
 34
1.000000000000000E+20
 15
-1.000000000000000E+20
 25
-1.000000000000000E+20
 35
-1.000000000000000E+20
146
0.0
 13
0.0
 23
0.0
 33
0.0
 16
1.0
 26
0.0
 36
0.0
 17
0.0
 27
1.0
 37
0.0
 76
     0
330
1B
  0
LAYOUT
  5
26
102
{ACAD_REACTORS
330
1A
102
}
330
1A
100
AcDbPlotSettings
  1

  2
none_device
  4

  6

 40
0.0
 41
0.0
 42
0.0
 43
0.0
 44
0.0
 45
0.0
 46
0.0
 47
0.0
 48
0.0
 49
0.0
140
0.0
141
0.0
142
1.0
143
1.0
 70
   688
 72
     0
 73
     0
 74
     5
  7

 75
    16
 76
     0
 77
     2
 78
   300
147
1.0
148
0.0
149
0.0
100
AcDbLayout
  1
Layout2
 70
     1
 71
     2
 10
0.0
 20
0.0
 11
0.0
 21
0.0
 12
0.0
 22
0.0
 32
0.0
 14
0.0
 24
0.0
 34
0.0
 15
0.0
 25
0.0
 35
0.0
146
0.0
 13
0.0
 23
0.0
 33
0.0
 16
1.0
 26
0.0
 36
0.0
 17
0.0
 27
1.0
 37
0.0
 76
     0
330
23
  0
LAYOUT
  5
22
102
{ACAD_REACTORS
330
1A
102
}
330
1A
100
AcDbPlotSettings
  1

  2
none_device
  4

  6

 40
0.0
 41
0.0
 42
0.0
 43
0.0
 44
0.0
 45
0.0
 46
0.0
 47
0.0
 48
0.0
 49
0.0
140
0.0
141
0.0
142
1.0
143
1.0
 70
  1712
 72
     0
 73
     0
 74
     0
  7

 75
     0
 76
     0
 77
     2
 78
   300
147
1.0
148
0.0
149
0.0
100
AcDbLayout
  1
Model
 70
     1
 71
     0
 10
0.0
 20
0.0
 11
12.0
 21
9.0
 12
0.0
 22
0.0
 32
0.0
 14
1.000000000000000E+20
 24
1.000000000000000E+20
 34
1.000000000000000E+20
 15
-1.000000000000000E+20
 25
-1.000000000000000E+20
 35
-1.000000000000000E+20
146
0.0
 13
0.0
 23
0.0
 33
0.0
 16
1.0
 26
0.0
 36
0.0
 17
0.0
 27
1.0
 37
0.0
 76
     0
330
1F
331
29
  0
MLINESTYLE
  5
18
102
{ACAD_REACTORS
330
17
102
}
330
17
100
AcDbMlineStyle
  2
Standard
 70
     0
  3

 62
   256
 51
90.0
 52
90.0
 71
     2
 49
0.5
 62
   256
  6
BYLAYER
 49
-0.5
 62
   256
  6
BYLAYER
  0
ACDBPLACEHOLDER
  5
F
102
{ACAD_REACTORS
330
E
102
}
330
E
  0
VISUALSTYLE
  5
2F
102
{ACAD_REACTORS
330
2A
102
}
330
2A
100
AcDbVisualStyle
  2
2dWireframe
 70
     4
 71
     0
 72
     2
 73
     0
 90
        0
 40
-0.6
 41
-30.0
 62
     5
 63
     7
421
 16777215
 74
     1
 91
        4
 64
     7
 65
   257
 75
     1
175
     1
 42
1.0
 92
        0
 66
   257
 43
1.0
 76
     1
 77
     6
 78
     2
 67
     7
 79
     5
170
     0
171
     0
290
     0
174
     0
 93
        1
 44
0.0
173
     0
291
     0
 45
0.0
1001
ACAD
1000
AcDbSavedByObjectVersion
1070
     0
  0
VISUALSTYLE
  5
31
102
{ACAD_REACTORS
330
2A
102
}
330
2A
100
AcDbVisualStyle
  2
3D Hidden
 70
     6
 71
     1
 72
     2
 73
     2
 90
        0
 40
-0.6
 41
-30.0
 62
     5
 63
     7
421
 16777215
 74
     2
 91
        2
 64
     7
 65
   257
 75
     2
175
     1
 42
40.0
 92
        0
 66
   257
 43
1.0
 76
     1
 77
     6
 78
     2
 67
     7
 79
     3
170
     0
171
     0
290
     0
174
     0
 93
        1
 44
0.0
173
     0
291
     0
 45
0.0
1001
ACAD
1000
AcDbSavedByObjectVersion
1070
     0
  0
VISUALSTYLE
  5
30
102
{ACAD_REACTORS
330
2A
102
}
330
2A
100
AcDbVisualStyle
  2
3dWireframe
 70
     5
 71
     0
 72
     2
 73
     0
 90
        0
 40
-0.6
 41
-30.0
 62
     5
 63
     7
421
 16777215
 74
     1
 91
        4
 64
     7
 65
   257
 75
     1
175
     1
 42
1.0
 92
        0
 66
   257
 43
1.0
 76
     1
 77
     6
 78
     2
 67
     7
 79
     5
170
     0
171
     0
290
     0
174
     0
 93
        1
 44
0.0
173
     0
291
     0
 45
0.0
1001
ACAD
1000
AcDbSavedByObjectVersion
1070
     0
  0
VISUALSTYLE
  5
32
102
{ACAD_REACTORS
330
2A
102
}
330
2A
100
AcDbVisualStyle
  2
Basic
 70
     7
 71
     1
 72
     0
 73
     1
 90
        0
 40
-0.6
 41
-30.0
 62
     5
 63
     7
421
 16777215
 74
     0
 91
        4
 64
     7
 65
   257
 75
     1
175
     1
 42
1.0
 92
        8
 66
     7
 43
1.0
 76
     1
 77
     6
 78
     2
 67
     7
 79
     5
170
     0
171
     0
290
     0
174
     0
 93
        1
 44
0.0
173
     0
291
     1
 45
0.0
1001
ACAD
1000
AcDbSavedByObjectVersion
1070
     0
  0
VISUALSTYLE
  5
36
102
{ACAD_REACTORS
330
2A
102
}
330
2A
100
AcDbVisualStyle
  2
Brighten
 70
    12
 71
     2
 72
     2
 73
     0
 90
        0
 40
-0.6
 41
-30.0
 62
     5
 63
     7
421
 16777215
 74
     1
 91
        4
 64
     7
 65
   257
 75
     1
175
     1
 42
1.0
 92
        8
 66
     7
 43
1.0
 76
     1
 77
     6
 78
     2
 67
     7
 79
     5
170
     0
171
     0
290
     0
174
     0
 93
        1
 44
50.0
173
     0
291
     1
 45
0.0
1001
ACAD
1000
AcDbSavedByObjectVersion
1070
     0
  0
VISUALSTYLE
  5
3A
102
{ACAD_REACTORS
330
2A
102
}
330
2A
100
AcDbVisualStyle
  2
ColorChange
 70
    16
 71
     2
 72
     2
 73
     3
 90
        0
 40
-0.6
 41
-30.0
 62
     5
 63
     8
421
  8421504
 74
     1
 91
        4
 64
     7
 65
   257
 75
     1
175
     1
 42
1.0
 92
        8
 66
     8
424
  8421504
 43
1.0
 76
     1
 77
     6
 78
     2
 67
     7
 79
     5
170
     0
171
     0
290
     0
174
     0
 93
        1
 44
0.0
173
     0
291
     1
 45
0.0
1001
ACAD
1000
AcDbSavedByObjectVersion
1070
     0
  0
VISUALSTYLE
  5
34
102
{ACAD_REACTORS
330
2A
102
}
330
2A
100
AcDbVisualStyle
  2
Conceptual
 70
     9
 71
     3
 72
     2
 73
     0
 90
        0
 40
-0.6
 41
-30.0
 62
     5
 63
     7
421
 16777215
 74
     2
 91
        2
 64
     7
 65
   257
 75
     1
175
     1
 42
40.0
 92
        8
 66
     7
 43
1.0
 76
     1
 77
     6
 78
     2
 67
     7
 79
     3
170
     0
171
     0
290
     0
174
     0
 93
        1
 44
0.0
173
     0
291
     0
 45
0.0
1001
ACAD
1000
AcDbSavedByObjectVersion
1070
     0
  0
VISUALSTYLE
  5
35
102
{ACAD_REACTORS
330
2A
102
}
330
2A
100
AcDbVisualStyle
  2
Dim
 70
    11
 71
     2
 72
     2
 73
     0
 90
        0
 40
-0.6
 41
-30.0
 62
     5
 63
     7
421
 16777215
 74
     1
 91
        4
 64
     7
 65
   257
 75
     1
175
     1
 42
1.0
 92
        8
 66
     7
 43
1.0
 76
     1
 77
     6
 78
     2
 67
     7
 79
     5
170
     0
171
     0
290
     0
174
     0
 93
        1
 44
-50.0
173
     0
291
     1
 45
0.0
1001
ACAD
1000
AcDbSavedByObjectVersion
1070
     0
  0
VISUALSTYLE
  5
39
102
{ACAD_REACTORS
330
2A
102
}
330
2A
100
AcDbVisualStyle
  2
Facepattern
 70
    15
 71
     2
 72
     2
 73
     0
 90
        0
 40
-0.6
 41
-30.0
 62
     5
 63
     7
421
 16777215
 74
     1
 91
        4
 64
     7
 65
   257
 75
     1
175
     1
 42
1.0
 92
        8
 66
     7
 43
1.0
 76
     1
 77
     6
 78
     2
 67
     7
 79
     5
170
     0
171
     0
290
     0
174
     0
 93
        1
 44
0.0
173
     0
291
     1
 45
0.0
1001
ACAD
1000
AcDbSavedByObjectVersion
1070
     0
  0
VISUALSTYLE
  5
2B
102
{ACAD_REACTORS
330
2A
102
}
330
2A
100
AcDbVisualStyle
  2
Flat
 70
     0
 71
     2
 72
     1
 73
     1
 90
        2
 40
-0.6
 41
30.0
 62
     5
 63
     7
421
 16777215
 74
     0
 91
        4
 64
     7
 65
   257
 75
     1
175
     1
 42
1.0
 92
        8
 66
     7
 43
1.0
 76
     1
 77
     6
 78
     2
 67
     7
 79
     5
170
     0
171
     0
290
     0
174
     0
 93
       13
 44
0.0
173
     0
291
     1
 45
0.0
1001
ACAD
1000
AcDbSavedByObjectVersion
1070
     0
  0
VISUALSTYLE
  5
2C
102
{ACAD_REACTORS
330
2A
102
}
330
2A
100
AcDbVisualStyle
  2
FlatWithEdges
 70
     1
 71
     2
 72
     1
 73
     1
 90
        2
 40
-0.6
 41
30.0
 62
     5
 63
     7
421
 16777215
 74
     1
 91
        4
 64
     7
 65
   257
 75
     1
175
     1
 42
1.0
 92
        0
 66
   257
 43
1.0
 76
     1
 77
     6
 78
     2
 67
     7
 79
     5
170
     0
171
     0
290
     0
174
     0
 93
       13
 44
0.0
173
     0
291
     1
 45
0.0
1001
ACAD
1000
AcDbSavedByObjectVersion
1070
     0
  0
VISUALSTYLE
  5
2D
102
{ACAD_REACTORS
330
2A
102
}
330
2A
100
AcDbVisualStyle
  2
Gouraud
 70
     2
 71
     2
 72
     2
 73
     1
 90
        2
 40
-0.6
 41
30.0
 62
     5
 63
     7
421
 16777215
 74
     0
 91
        4
 64
     7
 65
   257
 75
     1
175
     1
 42
1.0
 92
        0
 66
     7
 43
1.0
 76
     1
 77
     6
 78
     2
 67
     7
 79
     5
170
     0
171
     0
290
     0
174
     0
 93
       13
 44
0.0
173
     0
291
     1
 45
0.0
1001
ACAD
1000
AcDbSavedByObjectVersion
1070
     0
  0
VISUALSTYLE
  5
2E
102
{ACAD_REACTORS
330
2A
102
}
330
2A
100
AcDbVisualStyle
  2
GouraudWithEdges
 70
     3
 71
     2
 72
     2
 73
     1
 90
        2
 40
-0.6
 41
30.0
 62
     5
 63
     7
421
 16777215
 74
     1
 91
        4
 64
     7
 65
   257
 75
     1
175
     1
 42
1.0
 92
        0
 66
   257
 43
1.0
 76
     1
 77
     6
 78
     2
 67
     7
 79
     5
170
     0
171
     0
290
     0
174
     0
 93
       13
 44
0.0
173
     0
291
     1
 45
0.0
1001
ACAD
1000
AcDbSavedByObjectVersion
1070
     0
  0
VISUALSTYLE
  5
38
102
{ACAD_REACTORS
330
2A
102
}
330
2A
100
AcDbVisualStyle
  2
Linepattern
 70
    14
 71
     2
 72
     2
 73
     0
 90
        0
 40
-0.6
 41
-30.0
 62
     5
 63
     7
421
 16777215
 74
     1
 91
        4
 64
     7
 65
   257
 75
     7
175
     7
 42
1.0
 92
        8
 66
     7
 43
1.0
 76
     1
 77
     6
 78
     2
 67
     7
 79
     5
170
     0
171
     0
290
     0
174
     0
 93
        1
 44
0.0
173
     0
291
     1
 45
0.0
1001
ACAD
1000
AcDbSavedByObjectVersion
1070
     0
  0
VISUALSTYLE
  5
33
102
{ACAD_REACTORS
330
2A
102
}
330
2A
100
AcDbVisualStyle
  2
Realistic
 70
     8
 71
     2
 72
     2
 73
     0
 90
        0
 40
-0.6
 41
-30.0
 62
     5
 63
     7
421
 16777215
 74
     1
 91
        0
 64
     7
 65
   257
 75
     1
175
     1
 42
1.0
 92
        8
 66
     8
424
  7895160
 43
1.0
 76
     1
 77
     6
 78
     2
 67
     7
 79
     5
170
     0
171
     0
290
     0
174
     0
 93
       13
 44
0.0
173
     0
291
     0
 45
0.0
1001
ACAD
1000
AcDbSavedByObjectVersion
1070
     0
  0
VISUALSTYLE
  5
37
102
{ACAD_REACTORS
330
2A
102
}
330
2A
100
AcDbVisualStyle
  2
Thicken
 70
    13
 71
     2
 72
     2
 73
     0
 90
        0
 40
-0.6
 41
-30.0
 62
     5
 63
     7
421
 16777215
 74
     1
 91
        4
 64
     7
 65
   257
 75
     1
175
     1
 42
1.0
 92
       12
 66
     7
 43
1.0
 76
     1
 77
     6
 78
     2
 67
     7
 79
     5
170
     0
171
     0
290
     0
174
     0
 93
        1
 44
0.0
173
     0
291
     1
 45
0.0
1001
ACAD
1000
AcDbSavedByObjectVersion
1070
     0
  0
ENDSEC
  0
EOF
