  0
SECTION
  2
HEADER
  9
$ACADVER
  1
AC1021
  9
$ACADMAINTVER
 70
    25
  9
$DWGCODEPAGE
  3
ANSI_1252
  9
$INSBASE
 10
0.0
 20
0.0
 30
0.0
  9
$EXTMIN
 10
-4.97006
 20
-9.93027
 30
0.0
  9
$EXTMAX
 10
4.97006
 20
9.93019
 30
0.0
  9
$LIMMIN
 10
0.0
 20
0.0
  9
$LIMMAX
 10
12.0
 20
9.0
  9
$ORTHOMODE
 70
     0
  9
$REGENMODE
 70
     1
  9
$FILLMODE
 70
     1
  9
$QTEXTMODE
 70
     0
  9
$MIRRTEXT
 70
     1
  9
$LTSCALE
 40
1.0
  9
$ATTMODE
 70
     1
  9
$TEXTSIZE
 40
0.2
  9
$TRACEWID
 40
0.05
  9
$TEXTSTYLE
  7
Standard
  9
$CLAYER
  8
0
  9
$CELTYPE
  6
ByLayer
  9
$CECOLOR
 62
   256
  9
$CELTSCALE
 40
1.0
  9
$DISPSILH
 70
     0
  9
$DIMSCALE
 40
1.0
  9
$DIMASZ
 40
0.18
  9
$DIMEXO
 40
0.0625
  9
$DIMDLI
 40
0.38
  9
$DIMRND
 40
0.0
  9
$DIMDLE
 40
0.0
  9
$DIMEXE
 40
0.18
  9
$DIMTP
 40
0.0
  9
$DIMTM
 40
0.0
  9
$DIMTXT
 40
0.18
  9
$DIMCEN
 40
0.09
  9
$DIMTSZ
 40
0.0
  9
$DIMTOL
 70
     0
  9
$DIMLIM
 70
     0
  9
$DIMTIH
 70
     1
  9
$DIMTOH
 70
     1
  9
$DIMSE1
 70
     0
  9
$DIMSE2
 70
     0
  9
$DIMTAD
 70
     0
  9
$DIMZIN
 70
     0
  9
$DIMBLK
  1

  9
$DIMASO
 70
     1
  9
$DIMSHO
 70
     1
  9
$DIMPOST
  1

  9
$DIMAPOST
  1

  9
$DIMALT
 70
     0
  9
$DIMALTD
 70
     2
  9
$DIMALTF
 40
25.4
  9
$DIMLFAC
 40
1.0
  9
$DIMTOFL
 70
     0
  9
$DIMTVP
 40
0.0
  9
$DIMTIX
 70
     0
  9
$DIMSOXD
 70
     0
  9
$DIMSAH
 70
     0
  9
$DIMBLK1
  1

  9
$DIMBLK2
  1

  9
$DIMSTYLE
  2
Standard
  9
$DIMCLRD
 70
     0
  9
$DIMCLRE
 70
     0
  9
$DIMCLRT
 70
     0
  9
$DIMTFAC
 40
1.0
  9
$DIMGAP
 40
0.09
  9
$DIMJUST
 70
     0
  9
$DIMSD1
 70
     0
  9
$DIMSD2
 70
     0
  9
$DIMTOLJ
 70
     1
  9
$DIMTZIN
 70
     0
  9
$DIMALTZ
 70
     0
  9
$DIMALTTZ
 70
     0
  9
$DIMUPT
 70
     0
  9
$DIMDEC
 70
     4
  9
$DIMTDEC
 70
     4
  9
$DIMALTU
 70
     2
  9
$DIMALTTD
 70
     2
  9
$DIMTXSTY
  7
Standard
  9
$DIMAUNIT
 70
     0
  9
$DIMADEC
 70
     0
  9
$DIMALTRND
 40
0.0
  9
$DIMAZIN
 70
     0
  9
$DIMDSEP
 70
    46
  9
$DIMATFIT
 70
     3
  9
$DIMFRAC
 70
     0
  9
$DIMLDRBLK
  1

  9
$DIMLUNIT
 70
     2
  9
$DIMLWD
 70
    -2
  9
$DIMLWE
 70
    -2
  9
$DIMTMOVE
 70
     0
  9
$DIMFXL
 40
1.0
  9
$DIMFXLON
 70
     0
  9
$DIMJOGANG
 40
0.7853981633974483
  9
$DIMTFILL
 70
     0
  9
$DIMTFILLCLR
 70
     0
  9
$DIMARCSYM
 70
     0
  9
$DIMLTYPE
  6

  9
$DIMLTEX1
  6

  9
$DIMLTEX2
  6

  9
$LUNITS
 70
     2
  9
$LUPREC
 70
     4
  9
$SKETCHINC
 40
0.1
  9
$FILLETRAD
 40
0.5
  9
$AUNITS
 70
     0
  9
$AUPREC
 70
     0
  9
$MENU
  1
.
  9
$ELEVATION
 40
0.0
  9
$PELEVATION
 40
0.0
  9
$THICKNESS
 40
0.0
  9
$LIMCHECK
 70
     0
  9
$CHAMFERA
 40
0.5
  9
$CHAMFERB
 40
0.5
  9
$CHAMFERC
 40
1.0
  9
$CHAMFERD
 40
0.0
  9
$SKPOLY
 70
     0
  9
$TDCREATE
 40
2456876.649890729
  9
$TDUCREATE
 40
2456876.774890729
  9
$TDUPDATE
 40
2456876.649891099
  9
$TDUUPDATE
 40
2456876.774891099
  9
$TDINDWG
 40
0.0000000116
  9
$TDUSRTIMER
 40
0.0000000116
  9
$USRTIMER
 70
     1
  9
$ANGBASE
 50
0.0
  9
$ANGDIR
 70
     0
  9
$PDMODE
 70
     0
  9
$PDSIZE
 40
0.0
  9
$PLINEWID
 40
0.0
  9
$SPLFRAME
 70
     0
  9
$SPLINETYPE
 70
     6
  9
$SPLINESEGS
 70
     8
  9
$HANDSEED
  5
6E
  9
$SURFTAB1
 70
     6
  9
$SURFTAB2
 70
     6
  9
$SURFTYPE
 70
     6
  9
$SURFU
 70
     6
  9
$SURFV
 70
     6
  9
$UCSBASE
  2

  9
$UCSNAME
  2

  9
$UCSORG
 10
0.0
 20
0.0
 30
0.0
  9
$UCSXDIR
 10
1.0
 20
0.0
 30
0.0
  9
$UCSYDIR
 10
0.0
 20
1.0
 30
0.0
  9
$UCSORTHOREF
  2

  9
$UCSORTHOVIEW
 70
     0
  9
$UCSORGTOP
 10
0.0
 20
0.0
 30
0.0
  9
$UCSORGBOTTOM
 10
0.0
 20
0.0
 30
0.0
  9
$UCSORGLEFT
 10
0.0
 20
0.0
 30
0.0
  9
$UCSORGRIGHT
 10
0.0
 20
0.0
 30
0.0
  9
$UCSORGFRONT
 10
0.0
 20
0.0
 30
0.0
  9
$UCSORGBACK
 10
0.0
 20
0.0
 30
0.0
  9
$PUCSBASE
  2

  9
$PUCSNAME
  2

  9
$PUCSORG
 10
0.0
 20
0.0
 30
0.0
  9
$PUCSXDIR
 10
1.0
 20
0.0
 30
0.0
  9
$PUCSYDIR
 10
0.0
 20
1.0
 30
0.0
  9
$PUCSORTHOREF
  2

  9
$PUCSORTHOVIEW
 70
     0
  9
$PUCSORGTOP
 10
0.0
 20
0.0
 30
0.0
  9
$PUCSORGBOTTOM
 10
0.0
 20
0.0
 30
0.0
  9
$PUCSORGLEFT
 10
0.0
 20
0.0
 30
0.0
  9
$PUCSORGRIGHT
 10
0.0
 20
0.0
 30
0.0
  9
$PUCSORGFRONT
 10
0.0
 20
0.0
 30
0.0
  9
$PUCSORGBACK
 10
0.0
 20
0.0
 30
0.0
  9
$USERI1
 70
     0
  9
$USERI2
 70
     0
  9
$USERI3
 70
     0
  9
$USERI4
 70
     0
  9
$USERI5
 70
     0
  9
$USERR1
 40
0.0
  9
$USERR2
 40
0.0
  9
$USERR3
 40
0.0
  9
$USERR4
 40
0.0
  9
$USERR5
 40
0.0
  9
$WORLDVIEW
 70
     1
  9
$SHADEDGE
 70
     3
  9
$SHADEDIF
 70
    70
  9
$TILEMODE
 70
     1
  9
$MAXACTVP
 70
    64
  9
$PINSBASE
 10
0.0
 20
0.0
 30
0.0
  9
$PLIMCHECK
 70
     0
  9
$PEXTMIN
 10
1.000000000000000E+20
 20
1.000000000000000E+20
 30
1.000000000000000E+20
  9
$PEXTMAX
 10
-1.000000000000000E+20
 20
-1.000000000000000E+20
 30
-1.000000000000000E+20
  9
$PLIMMIN
 10
0.0
 20
0.0
  9
$PLIMMAX
 10
12.0
 20
9.0
  9
$UNITMODE
 70
     0
  9
$VISRETAIN
 70
     1
  9
$PLINEGEN
 70
     0
  9
$PSLTSCALE
 70
     1
  9
$TREEDEPTH
 70
  3020
  9
$CMLSTYLE
  2
Standard
  9
$CMLJUST
 70
     0
  9
$CMLSCALE
 40
1.0
  9
$PROXYGRAPHICS
 70
     1
  9
$MEASUREMENT
 70
     0
  9
$CELWEIGHT
370
    -1
  9
$ENDCAPS
280
     0
  9
$JOINSTYLE
280
     0
  9
$LWDISPLAY
290
     0
  9
$INSUNITS
 70
     5
  9
$HYPERLINKBASE
  1

  9
$STYLESHEET
  1

  9
$XEDIT
290
     1
  9
$CEPSNTYPE
380
     0
  9
$PSTYLEMODE
290
     1
  9
$FINGERPRINTGUID
  2
{A67C2E13-C68D-4689-BA86-44700A0D4B00}
  9
$VERSIONGUID
  2
{FAEB1C32-E019-11D5-929B-00C0DF256EC4}
  9
$EXTNAMES
290
     1
  9
$PSVPSCALE
 40
0.0
  9
$OLESTARTUP
290
     0
  9
$SORTENTS
280
   127
  9
$INDEXCTL
280
     0
  9
$HIDETEXT
280
     1
  9
$XCLIPFRAME
290
     0
  9
$HALOGAP
280
     0
  9
$OBSCOLOR
 70
   257
  9
$OBSLTYPE
280
     0
  9
$INTERSECTIONDISPLAY
280
     0
  9
$INTERSECTIONCOLOR
 70
   257
  9
$DIMASSOC
280
     2
  9
$PROJECTNAME
  1

  9
$CAMERADISPLAY
290
     0
  9
$LENSLENGTH
 40
50.0
  9
$CAMERAHEIGHT
 40
0.0
  9
$STEPSPERSEC
 40
2.0
  9
$STEPSIZE
 40
6.0
  9
$3DDWFPREC
 40
2.0
  9
$PSOLWIDTH
 40
0.25
  9
$PSOLHEIGHT
 40
4.0
  9
$LOFTANG1
 40
1.570796326794897
  9
$LOFTANG2
 40
1.570796326794897
  9
$LOFTMAG1
 40
0.0
  9
$LOFTMAG2
 40
0.0
  9
$LOFTPARAM
 70
     7
  9
$LOFTNORMALS
280
     1
  9
$LATITUDE
 40
37.795
  9
$LONGITUDE
 40
-122.394
  9
$NORTHDIRECTION
 40
0.0
  9
$TIMEZONE
 70
 -8000
  9
$LIGHTGLYPHDISPLAY
280
     1
  9
$TILEMODELIGHTSYNCH
280
     1
  9
$SOLIDHIST
280
     1
  9
$SHOWHIST
280
     1
  9
$DWFFRAME
280
     2
  9
$DGNFRAME
280
     2
  9
$REALWORLDSCALE
290
     1
  9
$INTERFERECOLOR
 62
   256
  9
$CSHADOW
280
     0
  9
$SHADOWPLANELOCATION
 40
0.0
  0
ENDSEC
  0
SECTION
  2
CLASSES
  0
CLASS
  1
ACDBDICTIONARYWDFLT
  2
AcDbDictionaryWithDefault
  3
ObjectDBX Classes
 90
        0
 91
        4
280
     0
281
     0
  0
CLASS
  1
VISUALSTYLE
  2
AcDbVisualStyle
  3
ObjectDBX Classes
 90
     4095
 91
        4
280
     0
281
     0
  0
CLASS
  1
MATERIAL
  2
AcDbMaterial
  3
ObjectDBX Classes
 90
     1153
 91
        4
280
     0
281
     0
  0
ENDSEC
  0
SECTION
  2
TABLES
  0
TABLE
  2
VPORT
  5
8
330
0
100
AcDbSymbolTable
 70
     1
  0
VPORT
  5
29
330
8
100
AcDbSymbolTableRecord
100
AcDbViewportTableRecord
  2
*Active
 70
     0
 10
0.0
 20
0.0
 11
1.0
 21
1.0
 12
10.42990654205607
 22
4.5
 13
0.0
 23
0.0
 14
0.5
 24
0.5
 15
0.5
 25
0.5
 16
0.0
 26
0.0
 36
1.0
 17
0.0
 27
0.0
 37
0.0
 40
9.0
 41
1.972972972850329
 42
50.0
 43
0.0
 44
0.0
 50
0.0
 51
0.0
 71
     0
 72
   100
 73
     1
 74
     3
 75
     0
 76
     0
 77
     0
 78
     0
281
     0
 65
     1
110
0.0
120
0.0
130
0.0
111
1.0
121
0.0
131
0.0
112
0.0
122
1.0
132
0.0
 79
     0
146
0.0
 60
     3
 61
     5
292
     1
282
     1
141
0.0
142
0.0
 63
   250
  0
ENDTAB
  0
TABLE
  2
LTYPE
  5
5
330
0
100
AcDbSymbolTable
 70
     1
  0
LTYPE
  5
14
330
5
100
AcDbSymbolTableRecord
100
AcDbLinetypeTableRecord
  2
ByBlock
 70
     0
  3

 72
    65
 73
     0
 40
0.0
  0
LTYPE
  5
15
330
5
100
AcDbSymbolTableRecord
100
AcDbLinetypeTableRecord
  2
ByLayer
 70
     0
  3

 72
    65
 73
     0
 40
0.0
  0
LTYPE
  5
16
330
5
100
AcDbSymbolTableRecord
100
AcDbLinetypeTableRecord
  2
Continuous
 70
     0
  3
Solid line
 72
    65
 73
     0
 40
0.0
  0
ENDTAB
  0
TABLE
  2
LAYER
  5
2
330
0
100
AcDbSymbolTable
 70
     2
  0
LAYER
  5
10
330
2
100
AcDbSymbolTableRecord
100
AcDbLayerTableRecord
  2
0
 70
     0
 62
     7
  6
Continuous
370
    -3
390
F
347
3E
  0
LAYER
  5
40
330
2
100
AcDbSymbolTableRecord
100
AcDbLayerTableRecord
  2
Camada 1
 70
     0
 62
     7
  6
Continuous
370
    -3
390
F
347
3E
  0
ENDTAB
  0
TABLE
  2
STYLE
  5
3
330
0
100
AcDbSymbolTable
 70
     1
  0
STYLE
  5
11
330
3
100
AcDbSymbolTableRecord
100
AcDbTextStyleTableRecord
  2
Standard
 70
     0
 40
0.0
 41
1.0
 50
0.0
 71
     0
 42
0.2
  3
txt
  4

  0
ENDTAB
  0
TABLE
  2
VIEW
  5
6
330
0
100
AcDbSymbolTable
 70
     0
  0
ENDTAB
  0
TABLE
  2
UCS
  5
7
330
0
100
AcDbSymbolTable
 70
     0
  0
ENDTAB
  0
TABLE
  2
APPID
  5
9
330
0
100
AcDbSymbolTable
 70
     2
  0
APPID
  5
12
330
9
100
AcDbSymbolTableRecord
100
AcDbRegAppTableRecord
  2
ACAD
 70
     0
  0
APPID
  5
3F
330
9
100
AcDbSymbolTableRecord
100
AcDbRegAppTableRecord
  2
ODA
 70
     0
  0
ENDTAB
  0
TABLE
  2
DIMSTYLE
  5
A
330
0
100
AcDbSymbolTable
 70
     1
100
AcDbDimStyleTable
  0
DIMSTYLE
105
27
330
A
100
AcDbSymbolTableRecord
100
AcDbDimStyleTableRecord
  2
Standard
 70
     0
178
     0
340
11
  0
ENDTAB
  0
TABLE
  2
BLOCK_RECORD
  5
1
330
0
100
AcDbSymbolTable
 70
     1
  0
BLOCK_RECORD
  5
1F
330
1
100
AcDbSymbolTableRecord
100
AcDbBlockTableRecord
  2
*Model_Space
340
22
 70
     0
280
     1
281
     0
  0
BLOCK_RECORD
  5
1B
330
1
100
AcDbSymbolTableRecord
100
AcDbBlockTableRecord
  2
*Paper_Space
340
1E
 70
     0
280
     1
281
     0
  0
BLOCK_RECORD
  5
23
330
1
100
AcDbSymbolTableRecord
100
AcDbBlockTableRecord
  2
*Paper_Space0
340
26
 70
     0
280
     1
281
     0
  0
ENDTAB
  0
ENDSEC
  0
SECTION
  2
BLOCKS
  0
BLOCK
  5
20
330
1F
100
AcDbEntity
  8
0
100
AcDbBlockBegin
  2
*Model_Space
 70
     0
 10
0.0
 20
0.0
 30
0.0
  3
*Model_Space
  1

  0
ENDBLK
  5
21
330
1F
100
AcDbEntity
  8
0
100
AcDbBlockEnd
  0
BLOCK
  5
1C
330
1B
100
AcDbEntity
 67
     1
  8
0
100
AcDbBlockBegin
  2
*Paper_Space
 70
     0
 10
0.0
 20
0.0
 30
0.0
  3
*Paper_Space
  1

  0
ENDBLK
  5
1D
330
1B
100
AcDbEntity
 67
     1
  8
0
100
AcDbBlockEnd
  0
BLOCK
  5
24
330
23
100
AcDbEntity
  8
0
100
AcDbBlockBegin
  2
*Paper_Space0
 70
     0
 10
0.0
 20
0.0
 30
0.0
  3
*Paper_Space0
  1

  0
ENDBLK
  5
25
330
23
100
AcDbEntity
  8
0
100
AcDbBlockEnd
  0
ENDSEC
  0
SECTION
  2
ENTITIES
  0
SPLINE
  5
41
330
1F
100
AcDbEntity
  8
Camada 1
100
AcDbSpline
210
0.0
220
0.0
230
1.0
 70
    11
 71
     3
 72
   364
 73
   360
 74
     0
 42
0.0000000001
 43
0.0000000001
 12
1.0
 22
0.0
 32
0.0
 13
1.0
 23
0.0
 33
0.0
 40
0.0
 40
0.0
 40
0.0
 40
0.0
 40
0.010989010989011
 40
0.010989010989011
 40
0.010989010989011
 40
0.010989010989011
 40
0.021978021978022
 40
0.021978021978022
 40
0.021978021978022
 40
0.021978021978022
 40
0.032967032967033
 40
0.032967032967033
 40
0.032967032967033
 40
0.032967032967033
 40
0.043956043956044
 40
0.043956043956044
 40
0.043956043956044
 40
0.043956043956044
 40
0.0549450549450549
 40
0.0549450549450549
 40
0.0549450549450549
 40
0.0549450549450549
 40
0.0659340659340659
 40
0.0659340659340659
 40
0.0659340659340659
 40
0.0659340659340659
 40
0.0769230769230769
 40
0.0769230769230769
 40
0.0769230769230769
 40
0.0769230769230769
 40
0.0879120879120879
 40
0.0879120879120879
 40
0.0879120879120879
 40
0.0879120879120879
 40
0.0989010989010989
 40
0.0989010989010989
 40
0.0989010989010989
 40
0.0989010989010989
 40
0.1098901098901099
 40
0.1098901098901099
 40
0.1098901098901099
 40
0.1098901098901099
 40
0.1208791208791209
 40
0.1208791208791209
 40
0.1208791208791209
 40
0.1208791208791209
 40
0.1318681318681319
 40
0.1318681318681319
 40
0.1318681318681319
 40
0.1318681318681319
 40
0.1428571428571428
 40
0.1428571428571428
 40
0.1428571428571428
 40
0.1428571428571428
 40
0.1538461538461539
 40
0.1538461538461539
 40
0.1538461538461539
 40
0.1538461538461539
 40
0.1648351648351648
 40
0.1648351648351648
 40
0.1648351648351648
 40
0.1648351648351648
 40
0.1758241758241758
 40
0.1758241758241758
 40
0.1758241758241758
 40
0.1758241758241758
 40
0.1868131868131868
 40
0.1868131868131868
 40
0.1868131868131868
 40
0.1868131868131868
 40
0.1978021978021978
 40
0.1978021978021978
 40
0.1978021978021978
 40
0.1978021978021978
 40
0.2087912087912088
 40
0.2087912087912088
 40
0.2087912087912088
 40
0.2087912087912088
 40
0.2197802197802198
 40
0.2197802197802198
 40
0.2197802197802198
 40
0.2197802197802198
 40
0.2307692307692308
 40
0.2307692307692308
 40
0.2307692307692308
 40
0.2307692307692308
 40
0.2417582417582418
 40
0.2417582417582418
 40
0.2417582417582418
 40
0.2417582417582418
 40
0.2527472527472527
 40
0.2527472527472527
 40
0.2527472527472527
 40
0.2527472527472527
 40
0.2637362637362637
 40
0.2637362637362637
 40
0.2637362637362637
 40
0.2637362637362637
 40
0.2747252747252747
 40
0.2747252747252747
 40
0.2747252747252747
 40
0.2747252747252747
 40
0.2857142857142857
 40
0.2857142857142857
 40
0.2857142857142857
 40
0.2857142857142857
 40
0.2967032967032967
 40
0.2967032967032967
 40
0.2967032967032967
 40
0.2967032967032967
 40
0.3076923076923077
 40
0.3076923076923077
 40
0.3076923076923077
 40
0.3076923076923077
 40
0.3186813186813187
 40
0.3186813186813187
 40
0.3186813186813187
 40
0.3186813186813187
 40
0.3296703296703297
 40
0.3296703296703297
 40
0.3296703296703297
 40
0.3296703296703297
 40
0.3406593406593407
 40
0.3406593406593407
 40
0.3406593406593407
 40
0.3406593406593407
 40
0.3516483516483517
 40
0.3516483516483517
 40
0.3516483516483517
 40
0.3516483516483517
 40
0.3626373626373626
 40
0.3626373626373626
 40
0.3626373626373626
 40
0.3626373626373626
 40
0.3736263736263736
 40
0.3736263736263736
 40
0.3736263736263736
 40
0.3736263736263736
 40
0.3846153846153846
 40
0.3846153846153846
 40
0.3846153846153846
 40
0.3846153846153846
 40
0.3956043956043956
 40
0.3956043956043956
 40
0.3956043956043956
 40
0.3956043956043956
 40
0.4065934065934066
 40
0.4065934065934066
 40
0.4065934065934066
 40
0.4065934065934066
 40
0.4175824175824176
 40
0.4175824175824176
 40
0.4175824175824176
 40
0.4175824175824176
 40
0.4285714285714285
 40
0.4285714285714285
 40
0.4285714285714285
 40
0.4285714285714285
 40
0.4395604395604396
 40
0.4395604395604396
 40
0.4395604395604396
 40
0.4395604395604396
 40
0.4505494505494506
 40
0.4505494505494506
 40
0.4505494505494506
 40
0.4505494505494506
 40
0.4615384615384616
 40
0.4615384615384616
 40
0.4615384615384616
 40
0.4615384615384616
 40
0.4725274725274725
 40
0.4725274725274725
 40
0.4725274725274725
 40
0.4725274725274725
 40
0.4835164835164835
 40
0.4835164835164835
 40
0.4835164835164835
 40
0.4835164835164835
 40
0.4945054945054945
 40
0.4945054945054945
 40
0.4945054945054945
 40
0.4945054945054945
 40
0.5054945054945055
 40
0.5054945054945055
 40
0.5054945054945055
 40
0.5054945054945055
 40
0.5164835164835165
 40
0.5164835164835165
 40
0.5164835164835165
 40
0.5164835164835165
 40
0.5274725274725275
 40
0.5274725274725275
 40
0.5274725274725275
 40
0.5274725274725275
 40
0.5384615384615384
 40
0.5384615384615384
 40
0.5384615384615384
 40
0.5384615384615384
 40
0.5494505494505495
 40
0.5494505494505495
 40
0.5494505494505495
 40
0.5494505494505495
 40
0.5604395604395604
 40
0.5604395604395604
 40
0.5604395604395604
 40
0.5604395604395604
 40
0.5714285714285714
 40
0.5714285714285714
 40
0.5714285714285714
 40
0.5714285714285714
 40
0.5824175824175825
 40
0.5824175824175825
 40
0.5824175824175825
 40
0.5824175824175825
 40
0.5934065934065934
 40
0.5934065934065934
 40
0.5934065934065934
 40
0.5934065934065934
 40
0.6043956043956044
 40
0.6043956043956044
 40
0.6043956043956044
 40
0.6043956043956044
 40
0.6153846153846154
 40
0.6153846153846154
 40
0.6153846153846154
 40
0.6153846153846154
 40
0.6263736263736264
 40
0.6263736263736264
 40
0.6263736263736264
 40
0.6263736263736264
 40
0.6373626373626373
 40
0.6373626373626373
 40
0.6373626373626373
 40
0.6373626373626373
 40
0.6483516483516484
 40
0.6483516483516484
 40
0.6483516483516484
 40
0.6483516483516484
 40
0.6593406593406593
 40
0.6593406593406593
 40
0.6593406593406593
 40
0.6593406593406593
 40
0.6703296703296703
 40
0.6703296703296703
 40
0.6703296703296703
 40
0.6703296703296703
 40
0.6813186813186813
 40
0.6813186813186813
 40
0.6813186813186813
 40
0.6813186813186813
 40
0.6923076923076923
 40
0.6923076923076923
 40
0.6923076923076923
 40
0.6923076923076923
 40
0.7032967032967034
 40
0.7032967032967034
 40
0.7032967032967034
 40
0.7032967032967034
 40
0.7142857142857143
 40
0.7142857142857143
 40
0.7142857142857143
 40
0.7142857142857143
 40
0.7252747252747253
 40
0.7252747252747253
 40
0.7252747252747253
 40
0.7252747252747253
 40
0.7362637362637363
 40
0.7362637362637363
 40
0.7362637362637363
 40
0.7362637362637363
 40
0.7472527472527473
 40
0.7472527472527473
 40
0.7472527472527473
 40
0.7472527472527473
 40
0.7582417582417582
 40
0.7582417582417582
 40
0.7582417582417582
 40
0.7582417582417582
 40
0.7692307692307693
 40
0.7692307692307693
 40
0.7692307692307693
 40
0.7692307692307693
 40
0.7802197802197802
 40
0.7802197802197802
 40
0.7802197802197802
 40
0.7802197802197802
 40
0.7912087912087912
 40
0.7912087912087912
 40
0.7912087912087912
 40
0.7912087912087912
 40
0.8021978021978022
 40
0.8021978021978022
 40
0.8021978021978022
 40
0.8021978021978022
 40
0.8131868131868132
 40
0.8131868131868132
 40
0.8131868131868132
 40
0.8131868131868132
 40
0.8241758241758241
 40
0.8241758241758241
 40
0.8241758241758241
 40
0.8241758241758241
 40
0.8351648351648352
 40
0.8351648351648352
 40
0.8351648351648352
 40
0.8351648351648352
 40
0.8461538461538461
 40
0.8461538461538461
 40
0.8461538461538461
 40
0.8461538461538461
 40
0.8571428571428571
 40
0.8571428571428571
 40
0.8571428571428571
 40
0.8571428571428571
 40
0.8681318681318682
 40
0.8681318681318682
 40
0.8681318681318682
 40
0.8681318681318682
 40
0.8791208791208791
 40
0.8791208791208791
 40
0.8791208791208791
 40
0.8791208791208791
 40
0.8901098901098901
 40
0.8901098901098901
 40
0.8901098901098901
 40
0.8901098901098901
 40
0.9010989010989011
 40
0.9010989010989011
 40
0.9010989010989011
 40
0.9010989010989011
 40
0.9120879120879121
 40
0.9120879120879121
 40
0.9120879120879121
 40
0.9120879120879121
 40
0.9230769230769231
 40
0.9230769230769231
 40
0.9230769230769231
 40
0.9230769230769231
 40
0.9340659340659341
 40
0.9340659340659341
 40
0.9340659340659341
 40
0.9340659340659341
 40
0.945054945054945
 40
0.945054945054945
 40
0.945054945054945
 40
0.945054945054945
 40
0.9560439560439561
 40
0.9560439560439561
 40
0.9560439560439561
 40
0.9560439560439561
 40
0.967032967032967
 40
0.967032967032967
 40
0.967032967032967
 40
0.967032967032967
 40
0.978021978021978
 40
0.978021978021978
 40
0.978021978021978
 40
0.978021978021978
 40
1.0
 40
1.0
 40
1.0
 40
1.0
 10
0.22212
 20
4.43431
 30
0.0
 10
0.22212
 20
4.43431
 30
0.0
 10
1.7862
 20
4.42664
 30
0.0
 10
1.7862
 20
4.42664
 30
0.0
 10
1.7862
 20
4.42664
 30
0.0
 10
1.7862
 20
4.42664
 30
0.0
 10
1.90913
 20
3.31214
 30
0.0
 10
1.90913
 20
3.31214
 30
0.0
 10
1.90913
 20
3.31214
 30
0.0
 10
1.90913
 20
3.31214
 30
0.0
 10
1.97583
 20
3.28068
 30
0.0
 10
1.97583
 20
3.28068
 30
0.0
 10
1.97583
 20
3.28068
 30
0.0
 10
2.39316
 20
3.41533
 30
0.0
 10
3.55463
 20
2.66298
 30
0.0
 10
3.10764
 20
2.09289
 30
0.0
 10
3.10764
 20
2.09289
 30
0.0
 10
3.64379
 20
1.80291
 30
0.0
 10
4.80642
 20
0.15238
 30
0.0
 10
4.45188
 20
-0.45193
 30
0.0
 10
4.45188
 20
-0.45193
 30
0.0
 10
4.78094
 20
-1.12492
 30
0.0
 10
3.92578
 20
-2.51576
 30
0.0
 10
3.1859
 20
-2.74126
 30
0.0
 10
3.1859
 20
-2.74126
 30
0.0
 10
3.52039
 20
-2.75981
 30
0.0
 10
4.56811
 20
-2.41177
 30
0.0
 10
4.86428
 20
-3.13814
 30
0.0
 10
4.86428
 20
-3.13814
 30
0.0
 10
5.16035
 20
-3.86463
 30
0.0
 10
4.76464
 20
-3.89001
 30
0.0
 10
4.53501
 20
-3.92244
 30
0.0
 10
4.53501
 20
-3.92244
 30
0.0
 10
4.51697
 20
-3.75821
 30
0.0
 10
4.32985
 20
-3.5185
 30
0.0
 10
4.32985
 20
-3.5185
 30
0.0
 10
4.32985
 20
-3.5185
 30
0.0
 10
4.32985
 20
-3.5185
 30
0.0
 10
3.74602
 20
-3.49971
 30
0.0
 10
3.74602
 20
-3.49971
 30
0.0
 10
3.74602
 20
-3.49971
 30
0.0
 10
3.74602
 20
-3.49971
 30
0.0
 10
3.55946
 20
-3.96903
 30
0.0
 10
3.55946
 20
-3.96903
 30
0.0
 10
3.55946
 20
-3.96903
 30
0.0
 10
3.55946
 20
-3.96903
 30
0.0
 10
3.71236
 20
-4.30132
 30
0.0
 10
3.71236
 20
-4.30132
 30
0.0
 10
3.71236
 20
-4.30132
 30
0.0
 10
3.71236
 20
-4.30132
 30
0.0
 10
4.0991
 20
-4.39162
 30
0.0
 10
4.0991
 20
-4.39162
 30
0.0
 10
4.0991
 20
-4.39162
 30
0.0
 10
4.17451
 20
-4.47205
 30
0.0
 10
3.51228
 20
-4.94944
 30
0.0
 10
3.34099
 20
-4.70235
 30
0.0
 10
3.34099
 20
-4.70235
 30
0.0
 10
3.16965
 20
-4.45526
 30
0.0
 10
2.33798
 20
-4.14799
 30
0.0
 10
2.91565
 20
-2.90398
 30
0.0
 10
2.91565
 20
-2.90398
 30
0.0
 10
2.55354
 20
-2.53401
 30
0.0
 10
2.86837
 20
-1.46869
 30
0.0
 10
4.18414
 20
-0.53675
 30
0.0
 10
4.18414
 20
-0.53675
 30
0.0
 10
3.76128
 20
-0.11791
 30
0.0
 10
2.51771
 20
0.76905
 30
0.0
 10
2.08229
 20
1.79669
 30
0.0
 10
2.08229
 20
1.79669
 30
0.0
 10
2.08229
 20
1.79669
 30
0.0
 10
2.07052
 20
1.84969
 30
0.0
 10
2.07052
 20
1.84969
 30
0.0
 10
2.07052
 20
1.84969
 30
0.0
 10
2.07052
 20
1.84969
 30
0.0
 10
2.34357
 20
-0.62424
 30
0.0
 10
2.34357
 20
-0.62424
 30
0.0
 10
2.34357
 20
-0.62424
 30
0.0
 10
2.34357
 20
-0.62424
 30
0.0
 10
0.41595
 20
-0.62426
 30
0.0
 10
0.41595
 20
-0.62426
 30
0.0
 10
0.41595
 20
-0.62426
 30
0.0
 10
0.41595
 20
-0.62426
 30
0.0
 10
0.38978
 20
-1.19653
 30
0.0
 10
0.38978
 20
-1.19653
 30
0.0
 10
0.38978
 20
-1.19653
 30
0.0
 10
0.38978
 20
-1.19653
 30
0.0
 10
1.68534
 20
-1.19444
 30
0.0
 10
1.68534
 20
-1.19444
 30
0.0
 10
1.68534
 20
-1.19444
 30
0.0
 10
1.68534
 20
-1.19444
 30
0.0
 10
1.99461
 20
-1.92919
 30
0.0
 10
1.99461
 20
-1.92919
 30
0.0
 10
1.99461
 20
-1.92919
 30
0.0
 10
1.99461
 20
-1.92919
 30
0.0
 10
1.45463
 20
-1.92918
 30
0.0
 10
1.45463
 20
-1.92918
 30
0.0
 10
1.45463
 20
-1.92918
 30
0.0
 10
1.45463
 20
-1.92918
 30
0.0
 10
1.43058
 20
-1.95469
 30
0.0
 10
1.43058
 20
-1.95469
 30
0.0
 10
1.43058
 20
-1.95469
 30
0.0
 10
1.43058
 20
-1.95469
 30
0.0
 10
1.43058
 20
-6.54664
 30
0.0
 10
1.43058
 20
-6.54664
 30
0.0
 10
1.43058
 20
-6.54664
 30
0.0
 10
1.43058
 20
-6.54664
 30
0.0
 10
1.41679
 20
-6.54664
 30
0.0
 10
1.41679
 20
-6.54664
 30
0.0
 10
1.41679
 20
-6.54664
 30
0.0
 10
1.81134
 20
-6.79744
 30
0.0
 10
2.09341
 20
-7.46395
 30
0.0
 10
2.09341
 20
-8.24677
 30
0.0
 10
2.09341
 20
-8.24677
 30
0.0
 10
2.09341
 20
-8.82287
 30
0.0
 10
1.94072
 20
-9.26036
 30
0.0
 10
1.70283
 20
-9.59117
 30
0.0
 10
1.70283
 20
-9.59117
 30
0.0
 10
1.70283
 20
-9.59117
 30
0.0
 10
1.89135
 20
-9.93023
 30
0.0
 10
1.89135
 20
-9.93023
 30
0.0
 10
1.89135
 20
-9.93023
 30
0.0
 10
1.89135
 20
-9.93023
 30
0.0
 10
0.13396
 20
-9.93024
 30
0.0
 10
0.13396
 20
-9.93024
 30
0.0
 10
0.13396
 20
-9.93024
 30
0.0
 10
0.13396
 20
-9.93024
 30
0.0
 10
0.34642
 20
-9.52426
 30
0.0
 10
0.34642
 20
-9.52426
 30
0.0
 10
0.34642
 20
-9.52426
 30
0.0
 10
0.16121
 20
-9.19734
 30
0.0
 10
0.04675
 20
-8.74567
 30
0.0
 10
0.04675
 20
-8.24677
 30
0.0
 10
0.04675
 20
-8.24677
 30
0.0
 10
0.04675
 20
-7.49855
 30
0.0
 10
0.3044
 20
-6.85662
 30
0.0
 10
0.67164
 20
-6.58222
 30
0.0
 10
0.67164
 20
-6.58222
 30
0.0
 10
0.67164
 20
-6.58222
 30
0.0
 10
0.70956
 20
-6.58222
 30
0.0
 10
0.70956
 20
-6.58222
 30
0.0
 10
0.70956
 20
-6.58222
 30
0.0
 10
0.70956
 20
-6.58222
 30
0.0
 10
0.70956
 20
-2.03441
 30
0.0
 10
0.70956
 20
-2.03441
 30
0.0
 10
0.70956
 20
-2.03441
 30
0.0
 10
0.70956
 20
-2.03441
 30
0.0
 10
0.70374
 20
-1.90598
 30
0.0
 10
0.70374
 20
-1.90598
 30
0.0
 10
0.70374
 20
-1.90598
 30
0.0
 10
0.70374
 20
-1.90598
 30
0.0
 10
-1.34601
 20
-1.9281
 30
0.0
 10
-1.34601
 20
-1.9281
 30
0.0
 10
-1.34601
 20
-1.9281
 30
0.0
 10
-1.34601
 20
-1.9281
 30
0.0
 10
-1.36035
 20
-1.94136
 30
0.0
 10
-1.36035
 20
-1.94136
 30
0.0
 10
-1.36035
 20
-1.94136
 30
0.0
 10
-1.36035
 20
-1.94136
 30
0.0
 10
-1.36046
 20
-6.55882
 30
0.0
 10
-1.36046
 20
-6.55882
 30
0.0
 10
-1.36046
 20
-6.55882
 30
0.0
 10
-1.36046
 20
-6.55882
 30
0.0
 10
-1.37424
 20
-6.54668
 30
0.0
 10
-1.37424
 20
-6.54668
 30
0.0
 10
-1.37424
 20
-6.54668
 30
0.0
 10
-0.97969
 20
-6.79748
 30
0.0
 10
-0.69762
 20
-7.46399
 30
0.0
 10
-0.69762
 20
-8.24681
 30
0.0
 10
-0.69762
 20
-8.24681
 30
0.0
 10
-0.69762
 20
-8.82291
 30
0.0
 10
-0.85031
 20
-9.2604
 30
0.0
 10
-1.08822
 20
-9.59121
 30
0.0
 10
-1.08822
 20
-9.59121
 30
0.0
 10
-1.08822
 20
-9.59121
 30
0.0
 10
-0.89965
 20
-9.93027
 30
0.0
 10
-0.89965
 20
-9.93027
 30
0.0
 10
-0.89965
 20
-9.93027
 30
0.0
 10
-0.89965
 20
-9.93027
 30
0.0
 10
-2.65716
 20
-9.93026
 30
0.0
 10
-2.65716
 20
-9.93026
 30
0.0
 10
-2.65716
 20
-9.93026
 30
0.0
 10
-2.65716
 20
-9.93026
 30
0.0
 10
-2.44465
 20
-9.52428
 30
0.0
 10
-2.44465
 20
-9.52428
 30
0.0
 10
-2.44465
 20
-9.52428
 30
0.0
 10
-2.62983
 20
-9.19736
 30
0.0
 10
-2.74437
 20
-8.74569
 30
0.0
 10
-2.74437
 20
-8.24679
 30
0.0
 10
-2.74437
 20
-8.24679
 30
0.0
 10
-2.74437
 20
-7.49857
 30
0.0
 10
-2.48669
 20
-6.85664
 30
0.0
 10
-2.11942
 20
-6.58224
 30
0.0
 10
-2.11942
 20
-6.58224
 30
0.0
 10
-2.11942
 20
-6.58224
 30
0.0
 10
-2.08153
 20
-6.58225
 30
0.0
 10
-2.08153
 20
-6.58225
 30
0.0
 10
-2.08153
 20
-6.58225
 30
0.0
 10
-2.08153
 20
-6.58225
 30
0.0
 10
-2.08153
 20
-1.92339
 30
0.0
 10
-2.08153
 20
-1.92339
 30
0.0
 10
-2.08153
 20
-1.92339
 30
0.0
 10
-2.08153
 20
-1.92339
 30
0.0
 10
-2.08722
 20
-1.92932
 30
0.0
 10
-2.08722
 20
-1.92932
 30
0.0
 10
-2.08722
 20
-1.92932
 30
0.0
 10
-2.08722
 20
-1.92932
 30
0.0
 10
-2.57575
 20
-1.92919
 30
0.0
 10
-2.57575
 20
-1.92919
 30
0.0
 10
-2.57575
 20
-1.92919
 30
0.0
 10
-2.57575
 20
-1.92919
 30
0.0
 10
-2.33154
 20
-1.19656
 30
0.0
 10
-2.33154
 20
-1.19656
 30
0.0
 10
-2.33154
 20
-1.19656
 30
0.0
 10
-2.33154
 20
-1.19656
 30
0.0
 10
-1.22386
 20
-1.19655
 30
0.0
 10
-1.22386
 20
-1.19655
 30
0.0
 10
-1.22386
 20
-1.19655
 30
0.0
 10
-1.22386
 20
-1.19655
 30
0.0
 10
-1.22386
 20
-0.62428
 30
0.0
 10
-1.22386
 20
-0.62428
 30
0.0
 10
-1.22386
 20
-0.62428
 30
0.0
 10
-1.22386
 20
-0.62428
 30
0.0
 10
-2.77707
 20
-0.62428
 30
0.0
 10
-2.77707
 20
-0.62428
 30
0.0
 10
-2.77707
 20
-0.62428
 30
0.0
 10
-2.77707
 20
-0.62428
 30
0.0
 10
-2.29722
 20
1.74247
 30
0.0
 10
-2.29722
 20
1.74247
 30
0.0
 10
-2.29722
 20
1.74247
 30
0.0
 10
-2.29722
 20
1.74247
 30
0.0
 10
-2.27195
 20
1.8315
 30
0.0
 10
-2.27195
 20
1.8315
 30
0.0
 10
-2.27195
 20
1.8315
 30
0.0
 10
-2.70737
 20
0.80388
 30
0.0
 10
-3.76126
 20
-0.10411
 30
0.0
 10
-4.18417
 20
-0.52295
 30
0.0
 10
-4.18417
 20
-0.52295
 30
0.0
 10
-2.86834
 20
-1.45484
 30
0.0
 10
-2.55349
 20
-2.52016
 30
0.0
 10
-2.91568
 20
-2.89026
 30
0.0
 10
-2.91568
 20
-2.89026
 30
0.0
 10
-2.33796
 20
-4.13415
 30
0.0
 10
-3.16971
 20
-4.44151
 30
0.0
 10
-3.34102
 20
-4.68863
 30
0.0
 10
-3.34102
 20
-4.68863
 30
0.0
 10
-3.51228
 20
-4.9357
 30
0.0
 10
-4.17451
 20
-4.45826
 30
0.0
 10
-4.09913
 20
-4.3779
 30
0.0
 10
-4.09913
 20
-4.3779
 30
0.0
 10
-4.09913
 20
-4.3779
 30
0.0
 10
-3.71239
 20
-4.28749
 30
0.0
 10
-3.71239
 20
-4.28749
 30
0.0
 10
-3.71239
 20
-4.28749
 30
0.0
 10
-3.71239
 20
-4.28749
 30
0.0
 10
-3.55946
 20
-3.95531
 30
0.0
 10
-3.55946
 20
-3.95531
 30
0.0
 10
-3.55946
 20
-3.95531
 30
0.0
 10
-3.55946
 20
-3.95531
 30
0.0
 10
-3.74602
 20
-3.48594
 30
0.0
 10
-3.74602
 20
-3.48594
 30
0.0
 10
-3.74602
 20
-3.48594
 30
0.0
 10
-3.74602
 20
-3.48594
 30
0.0
 10
-4.32985
 20
-3.5047
 30
0.0
 10
-4.32985
 20
-3.5047
 30
0.0
 10
-4.32985
 20
-3.5047
 30
0.0
 10
-4.32985
 20
-3.5047
 30
0.0
 10
-4.51699
 20
-3.74449
 30
0.0
 10
-4.53506
 20
-3.90872
 30
0.0
 10
-4.53506
 20
-3.90872
 30
0.0
 10
-4.76464
 20
-3.8762
 30
0.0
 10
-5.16038
 20
-3.85093
 30
0.0
 10
-4.86425
 20
-3.12442
 30
0.0
 10
-4.86425
 20
-3.12442
 30
0.0
 10
-4.56813
 20
-2.39795
 30
0.0
 10
-3.52038
 20
-2.74607
 30
0.0
 10
-3.18589
 20
-2.72757
 30
0.0
 10
-3.18589
 20
-2.72757
 30
0.0
 10
-3.92574
 20
-2.50199
 30
0.0
 10
-4.78093
 20
-1.1111
 30
0.0
 10
-4.45187
 20
-0.43808
 30
0.0
 10
-4.45187
 20
-0.43808
 30
0.0
 10
-4.80641
 20
0.1662
 30
0.0
 10
-3.64381
 20
1.8167
 30
0.0
 10
-3.10763
 20
2.10671
 30
0.0
 10
-3.10763
 20
2.10671
 30
0.0
 10
-3.55462
 20
2.67681
 30
0.0
 10
-2.39318
 20
3.42915
 30
0.0
 10
-1.97585
 20
3.2945
 30
0.0
 10
-1.97585
 20
3.2945
 30
0.0
 10
-1.97585
 20
3.2945
 30
0.0
 10
-1.9822
 20
3.29611
 30
0.0
 10
-1.9822
 20
3.29611
 30
0.0
 10
-1.9822
 20
3.29611
 30
0.0
 10
-1.9822
 20
3.29611
 30
0.0
 10
-1.74947
 20
4.44406
 30
0.0
 10
-1.74947
 20
4.44406
 30
0.0
 10
-1.74947
 20
4.44406
 30
0.0
 10
-1.74947
 20
4.44406
 30
0.0
 10
-0.33554
 20
4.43705
 30
0.0
 10
-0.33554
 20
4.43705
 30
0.0
 10
-0.33554
 20
4.43705
 30
0.0
 10
-0.33554
 20
4.43705
 30
0.0
 10
-0.3012
 20
4.41332
 30
0.0
 10
-0.3012
 20
4.41332
 30
0.0
 10
-0.3012
 20
4.41332
 30
0.0
 10
-0.3012
 20
4.62266
 30
0.0
 10
-0.26633
 20
5.28552
 30
0.0
 10
-0.68498
 20
5.35532
 30
0.0
 10
-0.68498
 20
5.35532
 30
0.0
 10
-1.1036
 20
5.42509
 30
0.0
 10
-2.11537
 20
5.6344
 30
0.0
 10
-2.11537
 20
5.6344
 30
0.0
 10
-2.11537
 20
5.6344
 30
0.0
 10
-2.11537
 20
5.6344
 30
0.0
 10
-1.83626
 20
6.4717
 30
0.0
 10
-1.83626
 20
6.4717
 30
0.0
 10
-1.83626
 20
6.4717
 30
0.0
 10
-1.97914
 20
6.43595
 30
0.0
 10
-2.85028
 20
7.31519
 30
0.0
 10
-2.85028
 20
7.31519
 30
0.0
 10
-2.85028
 20
7.31519
 30
0.0
 10
-2.85028
 20
7.31519
 30
0.0
 10
-2.27394
 20
8.00678
 30
0.0
 10
-1.62695
 20
8.00678
 30
0.0
 10
-1.62695
 20
8.00678
 30
0.0
 10
-1.48741
 20
8.04165
 30
0.0
 10
-1.2083
 20
9.71628
 30
0.0
 10
-1.2083
 20
9.71628
 30
0.0
 10
-1.2083
 20
9.71628
 30
0.0
 10
-0.99896
 20
9.99539
 30
0.0
 10
0.88492
 20
9.99539
 30
0.0
 10
1.09429
 20
9.75115
 30
0.0
 10
1.09429
 20
9.75115
 30
0.0
 10
1.3036
 20
9.50694
 30
0.0
 10
1.67648
 20
7.83104
 30
0.0
 10
1.67648
 20
7.83104
 30
0.0
 10
1.67648
 20
7.83104
 30
0.0
 10
1.88579
 20
8.05781
 30
0.0
 10
2.92754
 20
7.1604
 30
0.0
 10
2.92754
 20
7.1604
 30
0.0
 10
2.92754
 20
7.1604
 30
0.0
 10
2.92754
 20
7.1604
 30
0.0
 10
2.12564
 20
6.23121
 30
0.0
 10
1.8618
 20
6.26235
 30
0.0
 10
1.8618
 20
6.26235
 30
0.0
 10
1.79258
 20
6.27053
 30
0.0
 10
2.14094
 20
5.49482
 30
0.0
 10
2.14094
 20
5.49482
 30
0.0
 10
2.14094
 20
5.49482
 30
0.0
 10
2.14094
 20
5.49482
 30
0.0
 10
0.71671
 20
5.15898
 30
0.0
 10
0.41255
 20
5.2314
 30
0.0
 10
0.41255
 20
5.2314
 30
0.0
 10
0.26769
 20
4.98515
 30
0.0
 10
0.20649
 20
4.65852
 30
0.0
 10
0.31114
 20
4.44921
 30
0.0
 10
0.31114
 20
4.44921
 30
0.0
 10
0.31114
 20
4.44921
 30
0.0
 10
0.22212
 20
4.43431
 30
0.0
 10
0.22212
 20
4.43431
 30
0.0
  0
SPLINE
  5
42
330
1F
100
AcDbEntity
  8
Camada 1
100
AcDbSpline
210
0.0
220
0.0
230
1.0
 70
    11
 71
     3
 72
    20
 73
    16
 74
     0
 42
0.0000000001
 43
0.0000000001
 12
1.0
 22
0.0
 32
0.0
 13
1.0
 23
0.0
 33
0.0
 40
0.0
 40
0.0
 40
0.0
 40
0.0
 40
0.2
 40
0.2
 40
0.2
 40
0.2
 40
0.4
 40
0.4
 40
0.4
 40
0.4
 40
0.6
 40
0.6
 40
0.6
 40
0.6
 40
1.0
 40
1.0
 40
1.0
 40
1.0
 10
-1.15726
 20
2.75455
 30
0.0
 10
-0.86868
 20
2.75455
 30
0.0
 10
-0.63468
 20
2.98852
 30
0.0
 10
-0.63468
 20
3.2771
 30
0.0
 10
-0.63468
 20
3.2771
 30
0.0
 10
-0.63468
 20
3.56565
 30
0.0
 10
-0.86868
 20
3.79963
 30
0.0
 10
-1.15726
 20
3.79963
 30
0.0
 10
-1.15726
 20
3.79963
 30
0.0
 10
-1.44584
 20
3.79963
 30
0.0
 10
-1.67981
 20
3.56566
 30
0.0
 10
-1.67981
 20
3.2771
 30
0.0
 10
-1.67981
 20
3.2771
 30
0.0
 10
-1.67979
 20
2.98852
 30
0.0
 10
-1.44584
 20
2.75455
 30
0.0
 10
-1.15726
 20
2.75455
 30
0.0
  0
SPLINE
  5
43
330
1F
100
AcDbEntity
  8
Camada 1
100
AcDbSpline
210
0.0
220
0.0
230
1.0
 70
    11
 71
     3
 72
    20
 73
    16
 74
     0
 42
0.0000000001
 43
0.0000000001
 12
1.0
 22
0.0
 32
0.0
 13
1.0
 23
0.0
 33
0.0
 40
0.0
 40
0.0
 40
0.0
 40
0.0
 40
0.2
 40
0.2
 40
0.2
 40
0.2
 40
0.4
 40
0.4
 40
0.4
 40
0.4
 40
0.6
 40
0.6
 40
0.6
 40
0.6
 40
1.0
 40
1.0
 40
1.0
 40
1.0
 10
-0.25159
 20
3.35841
 30
0.0
 10
-0.15539
 20
3.35841
 30
0.0
 10
-0.07744
 20
3.43638
 30
0.0
 10
-0.07744
 20
3.53259
 30
0.0
 10
-0.07744
 20
3.53259
 30
0.0
 10
-0.07744
 20
3.6288
 30
0.0
 10
-0.15539
 20
3.70677
 30
0.0
 10
-0.25159
 20
3.70677
 30
0.0
 10
-0.25159
 20
3.70677
 30
0.0
 10
-0.34782
 20
3.70677
 30
0.0
 10
-0.42577
 20
3.6288
 30
0.0
 10
-0.42577
 20
3.53259
 30
0.0
 10
-0.42577
 20
3.53259
 30
0.0
 10
-0.42577
 20
3.43638
 30
0.0
 10
-0.34779
 20
3.35841
 30
0.0
 10
-0.25159
 20
3.35841
 30
0.0
  0
SPLINE
  5
44
330
1F
100
AcDbEntity
  8
Camada 1
100
AcDbSpline
210
0.0
220
0.0
230
1.0
 70
    11
 71
     3
 72
    20
 73
    16
 74
     0
 42
0.0000000001
 43
0.0000000001
 12
1.0
 22
0.0
 32
0.0
 13
1.0
 23
0.0
 33
0.0
 40
0.0
 40
0.0
 40
0.0
 40
0.0
 40
0.2
 40
0.2
 40
0.2
 40
0.2
 40
0.4
 40
0.4
 40
0.4
 40
0.4
 40
0.6
 40
0.6
 40
0.6
 40
0.6
 40
1.0
 40
1.0
 40
1.0
 40
1.0
 10
0.34062
 20
3.37577
 30
0.0
 10
0.42722
 20
3.37577
 30
0.0
 10
0.49744
 20
3.44596
 30
0.0
 10
0.49744
 20
3.53256
 30
0.0
 10
0.49744
 20
3.53256
 30
0.0
 10
0.49744
 20
3.61916
 30
0.0
 10
0.42725
 20
3.68935
 30
0.0
 10
0.34062
 20
3.68935
 30
0.0
 10
0.34062
 20
3.68935
 30
0.0
 10
0.25399
 20
3.68935
 30
0.0
 10
0.18383
 20
3.61916
 30
0.0
 10
0.18383
 20
3.53256
 30
0.0
 10
0.18383
 20
3.53256
 30
0.0
 10
0.18383
 20
3.44596
 30
0.0
 10
0.254
 20
3.37577
 30
0.0
 10
0.34062
 20
3.37577
 30
0.0
  0
SPLINE
  5
45
330
1F
100
AcDbEntity
  8
Camada 1
100
AcDbSpline
210
0.0
220
0.0
230
1.0
 70
    11
 71
     3
 72
    20
 73
    16
 74
     0
 42
0.0000000001
 43
0.0000000001
 12
1.0
 22
0.0
 32
0.0
 13
1.0
 23
0.0
 33
0.0
 40
0.0
 40
0.0
 40
0.0
 40
0.0
 40
0.2
 40
0.2
 40
0.2
 40
0.2
 40
0.4
 40
0.4
 40
0.4
 40
0.4
 40
0.6
 40
0.6
 40
0.6
 40
0.6
 40
1.0
 40
1.0
 40
1.0
 40
1.0
 10
0.7919
 20
3.60124
 30
0.0
 10
0.75393
 20
3.52345
 30
0.0
 10
0.78624
 20
3.42963
 30
0.0
 10
0.86408
 20
3.39166
 30
0.0
 10
0.86408
 20
3.39166
 30
0.0
 10
0.94181
 20
3.35375
 30
0.0
 10
1.03574
 20
3.38608
 30
0.0
 10
1.07363
 20
3.46386
 30
0.0
 10
1.07363
 20
3.46386
 30
0.0
 10
1.1116
 20
3.54165
 30
0.0
 10
1.07929
 20
3.63547
 30
0.0
 10
1.00143
 20
3.67341
 30
0.0
 10
1.00143
 20
3.67341
 30
0.0
 10
0.92371
 20
3.71136
 30
0.0
 10
0.82979
 20
3.67903
 30
0.0
 10
0.7919
 20
3.60124
 30
0.0
  0
SPLINE
  5
46
330
1F
100
AcDbEntity
  8
Camada 1
100
AcDbSpline
210
0.0
220
0.0
230
1.0
 70
    11
 71
     3
 72
    20
 73
    16
 74
     0
 42
0.0000000001
 43
0.0000000001
 12
1.0
 22
0.0
 32
0.0
 13
1.0
 23
0.0
 33
0.0
 40
0.0
 40
0.0
 40
0.0
 40
0.0
 40
0.2
 40
0.2
 40
0.2
 40
0.2
 40
0.4
 40
0.4
 40
0.4
 40
0.4
 40
0.6
 40
0.6
 40
0.6
 40
0.6
 40
1.0
 40
1.0
 40
1.0
 40
1.0
 10
1.3508
 20
2.37141
 30
0.0
 10
1.3508
 20
2.37141
 30
0.0
 10
-1.83655
 20
2.37141
 30
0.0
 10
-1.83655
 20
2.37141
 30
0.0
 10
-1.83655
 20
2.37141
 30
0.0
 10
-1.83655
 20
2.37141
 30
0.0
 10
-1.83655
 20
-0.1366
 30
0.0
 10
-1.83655
 20
-0.1366
 30
0.0
 10
-1.83655
 20
-0.1366
 30
0.0
 10
-1.83655
 20
-0.1366
 30
0.0
 10
1.3508
 20
-0.1366
 30
0.0
 10
1.3508
 20
-0.1366
 30
0.0
 10
1.3508
 20
-0.1366
 30
0.0
 10
1.3508
 20
-0.1366
 30
0.0
 10
1.3508
 20
2.37141
 30
0.0
 10
1.3508
 20
2.37141
 30
0.0
  0
SPLINE
  5
47
330
1F
100
AcDbEntity
  8
Camada 1
100
AcDbSpline
210
0.0
220
0.0
230
1.0
 70
    11
 71
     3
 72
    20
 73
    16
 74
     0
 42
0.0000000001
 43
0.0000000001
 12
1.0
 22
0.0
 32
0.0
 13
1.0
 23
0.0
 33
0.0
 40
0.0
 40
0.0
 40
0.0
 40
0.0
 40
0.2
 40
0.2
 40
0.2
 40
0.2
 40
0.4
 40
0.4
 40
0.4
 40
0.4
 40
0.6
 40
0.6
 40
0.6
 40
0.6
 40
1.0
 40
1.0
 40
1.0
 40
1.0
 10
-0.65783
 20
7.27652
 30
0.0
 10
-0.35872
 20
7.27652
 30
0.0
 10
-0.1161
 20
7.51904
 30
0.0
 10
-0.1161
 20
7.81818
 30
0.0
 10
-0.1161
 20
7.81818
 30
0.0
 10
-0.1161
 20
8.11732
 30
0.0
 10
-0.3587
 20
8.35984
 30
0.0
 10
-0.65783
 20
8.35984
 30
0.0
 10
-0.65783
 20
8.35984
 30
0.0
 10
-0.95696
 20
8.35984
 30
0.0
 10
-1.19946
 20
8.11732
 30
0.0
 10
-1.19946
 20
7.81818
 30
0.0
 10
-1.19946
 20
7.81818
 30
0.0
 10
-1.19946
 20
7.51904
 30
0.0
 10
-0.95695
 20
7.27652
 30
0.0
 10
-0.65783
 20
7.27652
 30
0.0
  0
SPLINE
  5
48
330
1F
100
AcDbEntity
  8
Camada 1
100
AcDbSpline
210
0.0
220
0.0
230
1.0
 70
    11
 71
     3
 72
    20
 73
    16
 74
     0
 42
0.0000000001
 43
0.0000000001
 12
1.0
 22
0.0
 32
0.0
 13
1.0
 23
0.0
 33
0.0
 40
0.0
 40
0.0
 40
0.0
 40
0.0
 40
0.2
 40
0.2
 40
0.2
 40
0.2
 40
0.4
 40
0.4
 40
0.4
 40
0.4
 40
0.6
 40
0.6
 40
0.6
 40
0.6
 40
1.0
 40
1.0
 40
1.0
 40
1.0
 10
0.96716
 20
7.23784
 30
0.0
 10
1.23074
 20
7.23784
 30
0.0
 10
1.44442
 20
7.45149
 30
0.0
 10
1.44442
 20
7.71502
 30
0.0
 10
1.44442
 20
7.71502
 30
0.0
 10
1.44442
 20
7.97855
 30
0.0
 10
1.23074
 20
8.19222
 30
0.0
 10
0.96716
 20
8.19222
 30
0.0
 10
0.96716
 20
8.19222
 30
0.0
 10
0.70358
 20
8.19222
 30
0.0
 10
0.49004
 20
7.97857
 30
0.0
 10
0.49004
 20
7.71502
 30
0.0
 10
0.49004
 20
7.71502
 30
0.0
 10
0.49003
 20
7.45149
 30
0.0
 10
0.70361
 20
7.23784
 30
0.0
 10
0.96716
 20
7.23784
 30
0.0
  0
SPLINE
  5
49
330
1F
100
AcDbEntity
  8
Camada 1
100
AcDbSpline
210
0.0
220
0.0
230
1.0
 70
    11
 71
     3
 72
    20
 73
    16
 74
     0
 42
0.0000000001
 43
0.0000000001
 12
1.0
 22
0.0
 32
0.0
 13
1.0
 23
0.0
 33
0.0
 40
0.0
 40
0.0
 40
0.0
 40
0.0
 40
0.2
 40
0.2
 40
0.2
 40
0.2
 40
0.4
 40
0.4
 40
0.4
 40
0.4
 40
0.6
 40
0.6
 40
0.6
 40
0.6
 40
1.0
 40
1.0
 40
1.0
 40
1.0
 10
-0.70935
 20
7.46998
 30
0.0
 10
-0.65239
 20
7.46998
 30
0.0
 10
-0.60619
 20
7.51618
 30
0.0
 10
-0.60619
 20
7.57311
 30
0.0
 10
-0.60619
 20
7.57311
 30
0.0
 10
-0.60619
 20
7.63007
 30
0.0
 10
-0.65239
 20
7.6763
 30
0.0
 10
-0.70935
 20
7.6763
 30
0.0
 10
-0.70935
 20
7.6763
 30
0.0
 10
-0.76631
 20
7.6763
 30
0.0
 10
-0.81251
 20
7.63008
 30
0.0
 10
-0.81251
 20
7.57311
 30
0.0
 10
-0.81251
 20
7.57311
 30
0.0
 10
-0.81254
 20
7.51618
 30
0.0
 10
-0.76631
 20
7.46998
 30
0.0
 10
-0.70935
 20
7.46998
 30
0.0
  0
SPLINE
  5
4A
330
1F
100
AcDbEntity
  8
Camada 1
100
AcDbSpline
210
0.0
220
0.0
230
1.0
 70
    11
 71
     3
 72
    20
 73
    16
 74
     0
 42
0.0000000001
 43
0.0000000001
 12
1.0
 22
0.0
 32
0.0
 13
1.0
 23
0.0
 33
0.0
 40
0.0
 40
0.0
 40
0.0
 40
0.0
 40
0.2
 40
0.2
 40
0.2
 40
0.2
 40
0.4
 40
0.4
 40
0.4
 40
0.4
 40
0.6
 40
0.6
 40
0.6
 40
0.6
 40
1.0
 40
1.0
 40
1.0
 40
1.0
 10
0.92848
 20
7.34102
 30
0.0
 10
0.99267
 20
7.34102
 30
0.0
 10
1.04461
 20
7.39298
 30
0.0
 10
1.04461
 20
7.45707
 30
0.0
 10
1.04461
 20
7.45707
 30
0.0
 10
1.04461
 20
7.52115
 30
0.0
 10
0.99267
 20
7.57312
 30
0.0
 10
0.92848
 20
7.57312
 30
0.0
 10
0.92848
 20
7.57312
 30
0.0
 10
0.86442
 20
7.57312
 30
0.0
 10
0.81251
 20
7.52118
 30
0.0
 10
0.81251
 20
7.45707
 30
0.0
 10
0.81251
 20
7.45707
 30
0.0
 10
0.81251
 20
7.39299
 30
0.0
 10
0.86442
 20
7.34102
 30
0.0
 10
0.92848
 20
7.34102
 30
0.0
  0
SPLINE
  5
4B
330
1F
100
AcDbEntity
  8
Camada 1
100
AcDbSpline
210
0.0
220
0.0
230
1.0
 70
    11
 71
     3
 72
    20
 73
    16
 74
     0
 42
0.0000000001
 43
0.0000000001
 12
1.0
 22
0.0
 32
0.0
 13
1.0
 23
0.0
 33
0.0
 40
0.0
 40
0.0
 40
0.0
 40
0.0
 40
0.2
 40
0.2
 40
0.2
 40
0.2
 40
0.4
 40
0.4
 40
0.4
 40
0.4
 40
0.6
 40
0.6
 40
0.6
 40
0.6
 40
1.0
 40
1.0
 40
1.0
 40
1.0
 10
-0.39986
 20
5.97392
 30
0.0
 10
0.36111
 20
5.39353
 30
0.0
 10
1.71519
 20
6.06422
 30
0.0
 10
1.61206
 20
6.56717
 30
0.0
 10
1.61206
 20
6.56717
 30
0.0
 10
1.03175
 20
5.6257
 30
0.0
 10
-0.21314
 20
6.03792
 30
0.0
 10
-0.41282
 20
6.1287
 30
0.0
 10
-0.41282
 20
6.1287
 30
0.0
 10
-0.69643
 20
6.25766
 30
0.0
 10
-1.54767
 20
6.77354
 30
0.0
 10
-1.62506
 20
6.9283
 30
0.0
 10
-1.62506
 20
6.9283
 30
0.0
 10
-1.62507
 20
6.9283
 30
0.0
 10
-1.16075
 20
6.55431
 30
0.0
 10
-0.39986
 20
5.97392
 30
0.0
  0
ENDSEC
  0
SECTION
  2
OBJECTS
  0
DICTIONARY
  5
C
330
0
100
AcDbDictionary
281
     1
  3
ACAD_GROUP
350
D
  3
ACAD_LAYOUT
350
1A
  3
ACAD_MATERIAL
350
3B
  3
ACAD_MLEADERSTYLE
350
6D
  3
ACAD_MLINESTYLE
350
17
  3
ACAD_PLOTSETTINGS
350
19
  3
ACAD_PLOTSTYLENAME
350
E
  3
ACAD_TABLESTYLE
350
6C
  3
ACAD_VISUALSTYLE
350
2A
  0
DICTIONARY
  5
D
102
{ACAD_REACTORS
330
C
102
}
330
C
100
AcDbDictionary
281
     1
  0
DICTIONARY
  5
1A
102
{ACAD_REACTORS
330
C
102
}
330
C
100
AcDbDictionary
281
     1
  3
Layout1
350
1E
  3
Layout2
350
26
  3
Model
350
22
  0
DICTIONARY
  5
3B
102
{ACAD_REACTORS
330
C
102
}
330
C
100
AcDbDictionary
281
     1
  3
ByBlock
350
3D
  3
ByLayer
350
3C
  3
Global
350
3E
  0
DICTIONARY
  5
6D
102
{ACAD_REACTORS
330
C
102
}
330
C
100
AcDbDictionary
281
     1
  0
DICTIONARY
  5
17
102
{ACAD_REACTORS
330
C
102
}
330
C
100
AcDbDictionary
281
     1
  3
Standard
350
18
  0
DICTIONARY
  5
19
102
{ACAD_REACTORS
330
C
102
}
330
C
100
AcDbDictionary
281
     1
  0
ACDBDICTIONARYWDFLT
  5
E
102
{ACAD_REACTORS
330
C
102
}
330
C
100
AcDbDictionary
281
     1
  3
Normal
350
F
100
AcDbDictionaryWithDefault
340
F
  0
DICTIONARY
  5
6C
102
{ACAD_REACTORS
330
C
102
}
330
C
100
AcDbDictionary
281
     1
  0
DICTIONARY
  5
2A
102
{ACAD_REACTORS
330
C
102
}
330
C
100
AcDbDictionary
281
     1
  3
2dWireframe
350
2F
  3
3D Hidden
350
31
  3
3dWireframe
350
30
  3
Basic
350
32
  3
Brighten
350
36
  3
ColorChange
350
3A
  3
Conceptual
350
34
  3
Dim
350
35
  3
Facepattern
350
39
  3
Flat
350
2B
  3
FlatWithEdges
350
2C
  3
Gouraud
350
2D
  3
GouraudWithEdges
350
2E
  3
Linepattern
350
38
  3
Realistic
350
33
  3
Thicken
350
37
  0
LAYOUT
  5
1E
102
{ACAD_REACTORS
330
1A
102
}
330
1A
100
AcDbPlotSettings
  1

  2
none_device
  4

  6

 40
0.0
 41
0.0
 42
0.0
 43
0.0
 44
0.0
 45
0.0
 46
0.0
 47
0.0
 48
0.0
 49
0.0
140
0.0
141
0.0
142
1.0
143
1.0
 70
   688
 72
     0
 73
     0
 74
     5
  7

 75
    16
 76
     0
 77
     2
 78
   300
147
1.0
148
0.0
149
0.0
100
AcDbLayout
  1
Layout1
 70
     1
 71
     1
 10
0.0
 20
0.0
 11
12.0
 21
9.0
 12
0.0
 22
0.0
 32
0.0
 14
1.000000000000000E+20
 24
1.000000000000000E+20
 34
1.000000000000000E+20
 15
-1.000000000000000E+20
 25
-1.000000000000000E+20
 35
-1.000000000000000E+20
146
0.0
 13
0.0
 23
0.0
 33
0.0
 16
1.0
 26
0.0
 36
0.0
 17
0.0
 27
1.0
 37
0.0
 76
     0
330
1B
  0
LAYOUT
  5
26
102
{ACAD_REACTORS
330
1A
102
}
330
1A
100
AcDbPlotSettings
  1

  2
none_device
  4

  6

 40
0.0
 41
0.0
 42
0.0
 43
0.0
 44
0.0
 45
0.0
 46
0.0
 47
0.0
 48
0.0
 49
0.0
140
0.0
141
0.0
142
1.0
143
1.0
 70
   688
 72
     0
 73
     0
 74
     5
  7

 75
    16
 76
     0
 77
     2
 78
   300
147
1.0
148
0.0
149
0.0
100
AcDbLayout
  1
Layout2
 70
     1
 71
     2
 10
0.0
 20
0.0
 11
0.0
 21
0.0
 12
0.0
 22
0.0
 32
0.0
 14
0.0
 24
0.0
 34
0.0
 15
0.0
 25
0.0
 35
0.0
146
0.0
 13
0.0
 23
0.0
 33
0.0
 16
1.0
 26
0.0
 36
0.0
 17
0.0
 27
1.0
 37
0.0
 76
     0
330
23
  0
LAYOUT
  5
22
102
{ACAD_REACTORS
330
1A
102
}
330
1A
100
AcDbPlotSettings
  1

  2
none_device
  4

  6

 40
0.0
 41
0.0
 42
0.0
 43
0.0
 44
0.0
 45
0.0
 46
0.0
 47
0.0
 48
0.0
 49
0.0
140
0.0
141
0.0
142
1.0
143
1.0
 70
  1712
 72
     0
 73
     0
 74
     0
  7

 75
     0
 76
     0
 77
     2
 78
   300
147
1.0
148
0.0
149
0.0
100
AcDbLayout
  1
Model
 70
     1
 71
     0
 10
0.0
 20
0.0
 11
12.0
 21
9.0
 12
0.0
 22
0.0
 32
0.0
 14
-4.97006
 24
-9.93027
 34
0.0
 15
4.97006
 25
9.93019
 35
0.0
146
0.0
 13
0.0
 23
0.0
 33
0.0
 16
1.0
 26
0.0
 36
0.0
 17
0.0
 27
1.0
 37
0.0
 76
     0
330
1F
331
29
  0
MATERIAL
  5
3D
102
{ACAD_REACTORS
330
3B
102
}
330
3B
100
AcDbMaterial
  1
ByBlock
 72
     1
 94
      127
  0
MATERIAL
  5
3C
102
{ACAD_REACTORS
330
3B
102
}
330
3B
100
AcDbMaterial
  1
ByLayer
 72
     1
 94
      127
  0
MATERIAL
  5
3E
102
{ACAD_REACTORS
330
3B
102
}
330
3B
100
AcDbMaterial
  1
Global
 72
     1
 94
      127
  0
MLINESTYLE
  5
18
102
{ACAD_REACTORS
330
17
102
}
330
17
100
AcDbMlineStyle
  2
Standard
 70
     0
  3

 62
   256
 51
90.0
 52
90.0
 71
     2
 49
0.5
 62
   256
  6
BYLAYER
 49
-0.5
 62
   256
  6
BYLAYER
  0
ACDBPLACEHOLDER
  5
F
102
{ACAD_REACTORS
330
E
102
}
330
E
  0
VISUALSTYLE
  5
2F
102
{ACAD_REACTORS
330
2A
102
}
102
{ACAD_XDICTIONARY
360
54
102
}
330
2A
100
AcDbVisualStyle
  2
2dWireframe
 70
     4
 71
     0
 72
     2
 73
     0
 90
        0
 40
-0.6
 41
-30.0
 62
     5
 63
     7
421
 16777215
 74
     1
 91
        4
 64
     7
 65
   257
 75
     1
175
     1
 42
1.0
 92
        0
 66
   257
 43
1.0
 76
     1
 77
     6
 78
     2
 67
     7
 79
     5
170
     0
171
     0
290
     0
174
     0
 93
        1
 44
0.0
173
     0
291
     0
 45
0.0
  0
VISUALSTYLE
  5
31
102
{ACAD_REACTORS
330
2A
102
}
102
{ACAD_XDICTIONARY
360
58
102
}
330
2A
100
AcDbVisualStyle
  2
3D Hidden
 70
     6
 71
     1
 72
     2
 73
     2
 90
        0
 40
-0.6
 41
-30.0
 62
     5
 63
     7
421
 16777215
 74
     2
 91
        2
 64
     7
 65
   257
 75
     2
175
     1
 42
40.0
 92
        0
 66
   257
 43
1.0
 76
     1
 77
     6
 78
     2
 67
     7
 79
     3
170
     0
171
     0
290
     0
174
     0
 93
        1
 44
0.0
173
     0
291
     0
 45
0.0
  0
VISUALSTYLE
  5
30
102
{ACAD_REACTORS
330
2A
102
}
102
{ACAD_XDICTIONARY
360
56
102
}
330
2A
100
AcDbVisualStyle
  2
3dWireframe
 70
     5
 71
     0
 72
     2
 73
     0
 90
        0
 40
-0.6
 41
-30.0
 62
     5
 63
     7
421
 16777215
 74
     1
 91
        4
 64
     7
 65
   257
 75
     1
175
     1
 42
1.0
 92
        0
 66
   257
 43
1.0
 76
     1
 77
     6
 78
     2
 67
     7
 79
     5
170
     0
171
     0
290
     0
174
     0
 93
        1
 44
0.0
173
     0
291
     0
 45
0.0
  0
VISUALSTYLE
  5
32
102
{ACAD_REACTORS
330
2A
102
}
102
{ACAD_XDICTIONARY
360
5A
102
}
330
2A
100
AcDbVisualStyle
  2
Basic
 70
     7
 71
     1
 72
     0
 73
     1
 90
        0
 40
-0.6
 41
-30.0
 62
     5
 63
     7
421
 16777215
 74
     0
 91
        4
 64
     7
 65
   257
 75
     1
175
     1
 42
1.0
 92
        8
 66
     7
 43
1.0
 76
     1
 77
     6
 78
     2
 67
     7
 79
     5
170
     0
171
     0
290
     0
174
     0
 93
        1
 44
0.0
173
     0
291
     1
 45
0.0
  0
VISUALSTYLE
  5
36
102
{ACAD_REACTORS
330
2A
102
}
102
{ACAD_XDICTIONARY
360
62
102
}
330
2A
100
AcDbVisualStyle
  2
Brighten
 70
    12
 71
     2
 72
     2
 73
     0
 90
        0
 40
-0.6
 41
-30.0
 62
     5
 63
     7
421
 16777215
 74
     1
 91
        4
 64
     7
 65
   257
 75
     1
175
     1
 42
1.0
 92
        8
 66
     7
 43
1.0
 76
     1
 77
     6
 78
     2
 67
     7
 79
     5
170
     0
171
     0
290
     0
174
     0
 93
        1
 44
50.0
173
     0
291
     1
 45
0.0
  0
VISUALSTYLE
  5
3A
102
{ACAD_REACTORS
330
2A
102
}
102
{ACAD_XDICTIONARY
360
6A
102
}
330
2A
100
AcDbVisualStyle
  2
ColorChange
 70
    16
 71
     2
 72
     2
 73
     3
 90
        0
 40
-0.6
 41
-30.0
 62
     5
 63
     8
421
  8421504
 74
     1
 91
        4
 64
     7
 65
   257
 75
     1
175
     1
 42
1.0
 92
        8
 66
     8
424
  8421504
 43
1.0
 76
     1
 77
     6
 78
     2
 67
     7
 79
     5
170
     0
171
     0
290
     0
174
     0
 93
        1
 44
0.0
173
     0
291
     1
 45
0.0
  0
VISUALSTYLE
  5
34
102
{ACAD_REACTORS
330
2A
102
}
102
{ACAD_XDICTIONARY
360
5E
102
}
330
2A
100
AcDbVisualStyle
  2
Conceptual
 70
     9
 71
     3
 72
     2
 73
     0
 90
        0
 40
-0.6
 41
-30.0
 62
     5
 63
     7
421
 16777215
 74
     2
 91
        2
 64
     7
 65
   257
 75
     1
175
     1
 42
40.0
 92
        8
 66
     7
 43
1.0
 76
     1
 77
     6
 78
     2
 67
     7
 79
     3
170
     0
171
     0
290
     0
174
     0
 93
        1
 44
0.0
173
     0
291
     0
 45
0.0
  0
VISUALSTYLE
  5
35
102
{ACAD_REACTORS
330
2A
102
}
102
{ACAD_XDICTIONARY
360
60
102
}
330
2A
100
AcDbVisualStyle
  2
Dim
 70
    11
 71
     2
 72
     2
 73
     0
 90
        0
 40
-0.6
 41
-30.0
 62
     5
 63
     7
421
 16777215
 74
     1
 91
        4
 64
     7
 65
   257
 75
     1
175
     1
 42
1.0
 92
        8
 66
     7
 43
1.0
 76
     1
 77
     6
 78
     2
 67
     7
 79
     5
170
     0
171
     0
290
     0
174
     0
 93
        1
 44
-50.0
173
     0
291
     1
 45
0.0
  0
VISUALSTYLE
  5
39
102
{ACAD_REACTORS
330
2A
102
}
102
{ACAD_XDICTIONARY
360
68
102
}
330
2A
100
AcDbVisualStyle
  2
Facepattern
 70
    15
 71
     2
 72
     2
 73
     0
 90
        0
 40
-0.6
 41
-30.0
 62
     5
 63
     7
421
 16777215
 74
     1
 91
        4
 64
     7
 65
   257
 75
     1
175
     1
 42
1.0
 92
        8
 66
     7
 43
1.0
 76
     1
 77
     6
 78
     2
 67
     7
 79
     5
170
     0
171
     0
290
     0
174
     0
 93
        1
 44
0.0
173
     0
291
     1
 45
0.0
  0
VISUALSTYLE
  5
2B
102
{ACAD_REACTORS
330
2A
102
}
102
{ACAD_XDICTIONARY
360
4C
102
}
330
2A
100
AcDbVisualStyle
  2
Flat
 70
     0
 71
     2
 72
     1
 73
     1
 90
        2
 40
-0.6
 41
30.0
 62
     5
 63
     7
421
 16777215
 74
     0
 91
        4
 64
     7
 65
   257
 75
     1
175
     1
 42
1.0
 92
        8
 66
     7
 43
1.0
 76
     1
 77
     6
 78
     2
 67
     7
 79
     5
170
     0
171
     0
290
     0
174
     0
 93
       13
 44
0.0
173
     0
291
     1
 45
0.0
  0
VISUALSTYLE
  5
2C
102
{ACAD_REACTORS
330
2A
102
}
102
{ACAD_XDICTIONARY
360
4E
102
}
330
2A
100
AcDbVisualStyle
  2
FlatWithEdges
 70
     1
 71
     2
 72
     1
 73
     1
 90
        2
 40
-0.6
 41
30.0
 62
     5
 63
     7
421
 16777215
 74
     1
 91
        4
 64
     7
 65
   257
 75
     1
175
     1
 42
1.0
 92
        0
 66
   257
 43
1.0
 76
     1
 77
     6
 78
     2
 67
     7
 79
     5
170
     0
171
     0
290
     0
174
     0
 93
       13
 44
0.0
173
     0
291
     1
 45
0.0
  0
VISUALSTYLE
  5
2D
102
{ACAD_REACTORS
330
2A
102
}
102
{ACAD_XDICTIONARY
360
50
102
}
330
2A
100
AcDbVisualStyle
  2
Gouraud
 70
     2
 71
     2
 72
     2
 73
     1
 90
        2
 40
-0.6
 41
30.0
 62
     5
 63
     7
421
 16777215
 74
     0
 91
        4
 64
     7
 65
   257
 75
     1
175
     1
 42
1.0
 92
        0
 66
     7
 43
1.0
 76
     1
 77
     6
 78
     2
 67
     7
 79
     5
170
     0
171
     0
290
     0
174
     0
 93
       13
 44
0.0
173
     0
291
     1
 45
0.0
  0
VISUALSTYLE
  5
2E
102
{ACAD_REACTORS
330
2A
102
}
102
{ACAD_XDICTIONARY
360
52
102
}
330
2A
100
AcDbVisualStyle
  2
GouraudWithEdges
 70
     3
 71
     2
 72
     2
 73
     1
 90
        2
 40
-0.6
 41
30.0
 62
     5
 63
     7
421
 16777215
 74
     1
 91
        4
 64
     7
 65
   257
 75
     1
175
     1
 42
1.0
 92
        0
 66
   257
 43
1.0
 76
     1
 77
     6
 78
     2
 67
     7
 79
     5
170
     0
171
     0
290
     0
174
     0
 93
       13
 44
0.0
173
     0
291
     1
 45
0.0
  0
VISUALSTYLE
  5
38
102
{ACAD_REACTORS
330
2A
102
}
102
{ACAD_XDICTIONARY
360
66
102
}
330
2A
100
AcDbVisualStyle
  2
Linepattern
 70
    14
 71
     2
 72
     2
 73
     0
 90
        0
 40
-0.6
 41
-30.0
 62
     5
 63
     7
421
 16777215
 74
     1
 91
        4
 64
     7
 65
   257
 75
     7
175
     7
 42
1.0
 92
        8
 66
     7
 43
1.0
 76
     1
 77
     6
 78
     2
 67
     7
 79
     5
170
     0
171
     0
290
     0
174
     0
 93
        1
 44
0.0
173
     0
291
     1
 45
0.0
  0
VISUALSTYLE
  5
33
102
{ACAD_REACTORS
330
2A
102
}
102
{ACAD_XDICTIONARY
360
5C
102
}
330
2A
100
AcDbVisualStyle
  2
Realistic
 70
     8
 71
     2
 72
     2
 73
     0
 90
        0
 40
-0.6
 41
-30.0
 62
     5
 63
     7
421
 16777215
 74
     1
 91
        0
 64
     7
 65
   257
 75
     1
175
     1
 42
1.0
 92
        8
 66
     8
424
  7895160
 43
1.0
 76
     1
 77
     6
 78
     2
 67
     7
 79
     5
170
     0
171
     0
290
     0
174
     0
 93
       13
 44
0.0
173
     0
291
     0
 45
0.0
  0
VISUALSTYLE
  5
37
102
{ACAD_REACTORS
330
2A
102
}
102
{ACAD_XDICTIONARY
360
64
102
}
330
2A
100
AcDbVisualStyle
  2
Thicken
 70
    13
 71
     2
 72
     2
 73
     0
 90
        0
 40
-0.6
 41
-30.0
 62
     5
 63
     7
421
 16777215
 74
     1
 91
        4
 64
     7
 65
   257
 75
     1
175
     1
 42
1.0
 92
       12
 66
     7
 43
1.0
 76
     1
 77
     6
 78
     2
 67
     7
 79
     5
170
     0
171
     0
290
     0
174
     0
 93
        1
 44
0.0
173
     0
291
     1
 45
0.0
  0
DICTIONARY
  5
54
330
2F
100
AcDbDictionary
280
     1
281
     1
  3
ACAD_XREC_ROUNDTRIP
360
55
  0
DICTIONARY
  5
58
330
31
100
AcDbDictionary
280
     1
281
     1
  3
ACAD_XREC_ROUNDTRIP
360
59
  0
DICTIONARY
  5
56
330
30
100
AcDbDictionary
280
     1
281
     1
  3
ACAD_XREC_ROUNDTRIP
360
57
  0
DICTIONARY
  5
5A
330
32
100
AcDbDictionary
280
     1
281
     1
  3
ACAD_XREC_ROUNDTRIP
360
5B
  0
DICTIONARY
  5
62
330
36
100
AcDbDictionary
280
     1
281
     1
  3
ACAD_XREC_ROUNDTRIP
360
63
  0
DICTIONARY
  5
6A
330
3A
100
AcDbDictionary
280
     1
281
     1
  3
ACAD_XREC_ROUNDTRIP
360
6B
  0
DICTIONARY
  5
5E
330
34
100
AcDbDictionary
280
     1
281
     1
  3
ACAD_XREC_ROUNDTRIP
360
5F
  0
DICTIONARY
  5
60
330
35
100
AcDbDictionary
280
     1
281
     1
  3
ACAD_XREC_ROUNDTRIP
360
61
  0
DICTIONARY
  5
68
330
39
100
AcDbDictionary
280
     1
281
     1
  3
ACAD_XREC_ROUNDTRIP
360
69
  0
DICTIONARY
  5
4C
330
2B
100
AcDbDictionary
280
     1
281
     1
  3
ACAD_XREC_ROUNDTRIP
360
4D
  0
DICTIONARY
  5
4E
330
2C
100
AcDbDictionary
280
     1
281
     1
  3
ACAD_XREC_ROUNDTRIP
360
4F
  0
DICTIONARY
  5
50
330
2D
100
AcDbDictionary
280
     1
281
     1
  3
ACAD_XREC_ROUNDTRIP
360
51
  0
DICTIONARY
  5
52
330
2E
100
AcDbDictionary
280
     1
281
     1
  3
ACAD_XREC_ROUNDTRIP
360
53
  0
DICTIONARY
  5
66
330
38
100
AcDbDictionary
280
     1
281
     1
  3
ACAD_XREC_ROUNDTRIP
360
67
  0
DICTIONARY
  5
5C
330
33
100
AcDbDictionary
280
     1
281
     1
  3
ACAD_XREC_ROUNDTRIP
360
5D
  0
DICTIONARY
  5
64
330
37
100
AcDbDictionary
280
     1
281
     1
  3
ACAD_XREC_ROUNDTRIP
360
65
  0
XRECORD
  5
55
102
{ACAD_REACTORS
330
54
102
}
330
54
100
AcDbXrecord
280
     1
102
RTVSPropertyOp0
 70
     1
102
RTVSPropertyOp1
 70
     1
102
RTVSPropertyOp2
 70
     1
102
RTVSPropertyOp3
 70
     1
102
RTVSPropertyOp4
 70
     1
102
RTVSPropertyOp5
 70
     1
102
RTVSPropertyOp6
 70
     1
102
RTVSPropertyOp7
 70
     1
102
RTVSPropertyOp8
 70
     1
102
RTVSPropertyOp9
 70
     1
102
RTVSPropertyOp10
 70
     1
102
RTVSPropertyOp11
 70
     1
102
RTVSPropertyOp12
 70
     1
102
RTVSPropertyOp13
 70
     1
102
RTVSPropertyOp14
 70
     1
102
RTVSPropertyOp15
 70
     1
102
RTVSPropertyOp16
 70
     1
102
RTVSPropertyOp17
 70
     1
102
RTVSPropertyOp18
 70
     1
102
RTVSPropertyOp19
 70
     1
102
RTVSPropertyOp20
 70
     1
102
RTVSPropertyOp21
 70
     1
102
RTVSPropertyOp22
 70
     1
102
RTVSPropertyOp23
 70
     1
102
RTVSPropertyOp24
 70
     1
102
RTVSPropertyOp25
 70
     1
102
RTVSPropertyOp26
 70
     1
102
RTVSPropertyOp27
 70
     1
102
RTVSPropertyOp28
 70
     1
102
RTVSPropertyOp29
 70
     1
102
RTVSPropertyOp30
 70
     1
102
RTVSPropertyOp31
 70
     1
102
RTVSPropertyOp32
 70
     1
  0
XRECORD
  5
59
102
{ACAD_REACTORS
330
58
102
}
330
58
100
AcDbXrecord
280
     1
102
RTVSPropertyOp0
 70
     1
102
RTVSPropertyOp1
 70
     1
102
RTVSPropertyOp2
 70
     1
102
RTVSPropertyOp3
 70
     1
102
RTVSPropertyOp4
 70
     1
102
RTVSPropertyOp5
 70
     1
102
RTVSPropertyOp6
 70
     1
102
RTVSPropertyOp7
 70
     1
102
RTVSPropertyOp8
 70
     1
102
RTVSPropertyOp9
 70
     1
102
RTVSPropertyOp10
 70
     1
102
RTVSPropertyOp11
 70
     1
102
RTVSPropertyOp12
 70
     1
102
RTVSPropertyOp13
 70
     1
102
RTVSPropertyOp14
 70
     1
102
RTVSPropertyOp15
 70
     1
102
RTVSPropertyOp16
 70
     1
102
RTVSPropertyOp17
 70
     1
102
RTVSPropertyOp18
 70
     1
102
RTVSPropertyOp19
 70
     1
102
RTVSPropertyOp20
 70
     1
102
RTVSPropertyOp21
 70
     1
102
RTVSPropertyOp22
 70
     1
102
RTVSPropertyOp23
 70
     1
102
RTVSPropertyOp24
 70
     1
102
RTVSPropertyOp25
 70
     1
102
RTVSPropertyOp26
 70
     1
102
RTVSPropertyOp27
 70
     1
102
RTVSPropertyOp28
 70
     1
102
RTVSPropertyOp29
 70
     1
102
RTVSPropertyOp30
 70
     1
102
RTVSPropertyOp31
 70
     1
102
RTVSPropertyOp32
 70
     1
  0
XRECORD
  5
57
102
{ACAD_REACTORS
330
56
102
}
330
56
100
AcDbXrecord
280
     1
102
RTVSPropertyOp0
 70
     1
102
RTVSPropertyOp1
 70
     1
102
RTVSPropertyOp2
 70
     1
102
RTVSPropertyOp3
 70
     1
102
RTVSPropertyOp4
 70
     1
102
RTVSPropertyOp5
 70
     1
102
RTVSPropertyOp6
 70
     1
102
RTVSPropertyOp7
 70
     1
102
RTVSPropertyOp8
 70
     1
102
RTVSPropertyOp9
 70
     1
102
RTVSPropertyOp10
 70
     1
102
RTVSPropertyOp11
 70
     1
102
RTVSPropertyOp12
 70
     1
102
RTVSPropertyOp13
 70
     1
102
RTVSPropertyOp14
 70
     1
102
RTVSPropertyOp15
 70
     1
102
RTVSPropertyOp16
 70
     1
102
RTVSPropertyOp17
 70
     1
102
RTVSPropertyOp18
 70
     1
102
RTVSPropertyOp19
 70
     1
102
RTVSPropertyOp20
 70
     1
102
RTVSPropertyOp21
 70
     1
102
RTVSPropertyOp22
 70
     1
102
RTVSPropertyOp23
 70
     1
102
RTVSPropertyOp24
 70
     1
102
RTVSPropertyOp25
 70
     1
102
RTVSPropertyOp26
 70
     1
102
RTVSPropertyOp27
 70
     1
102
RTVSPropertyOp28
 70
     1
102
RTVSPropertyOp29
 70
     1
102
RTVSPropertyOp30
 70
     1
102
RTVSPropertyOp31
 70
     1
102
RTVSPropertyOp32
 70
     1
  0
XRECORD
  5
5B
102
{ACAD_REACTORS
330
5A
102
}
330
5A
100
AcDbXrecord
280
     1
102
RTVSPropertyOp0
 70
     1
102
RTVSPropertyOp1
 70
     1
102
RTVSPropertyOp2
 70
     1
102
RTVSPropertyOp3
 70
     1
102
RTVSPropertyOp4
 70
     1
102
RTVSPropertyOp5
 70
     1
102
RTVSPropertyOp6
 70
     1
102
RTVSPropertyOp7
 70
     1
102
RTVSPropertyOp8
 70
     1
102
RTVSPropertyOp9
 70
     1
102
RTVSPropertyOp10
 70
     1
102
RTVSPropertyOp11
 70
     1
102
RTVSPropertyOp12
 70
     1
102
RTVSPropertyOp13
 70
     1
102
RTVSPropertyOp14
 70
     1
102
RTVSPropertyOp15
 70
     1
102
RTVSPropertyOp16
 70
     1
102
RTVSPropertyOp17
 70
     1
102
RTVSPropertyOp18
 70
     1
102
RTVSPropertyOp19
 70
     1
102
RTVSPropertyOp20
 70
     1
102
RTVSPropertyOp21
 70
     1
102
RTVSPropertyOp22
 70
     1
102
RTVSPropertyOp23
 70
     1
102
RTVSPropertyOp24
 70
     1
102
RTVSPropertyOp25
 70
     1
102
RTVSPropertyOp26
 70
     1
102
RTVSPropertyOp27
 70
     1
102
RTVSPropertyOp28
 70
     1
102
RTVSPropertyOp29
 70
     1
102
RTVSPropertyOp30
 70
     1
102
RTVSPropertyOp31
 70
     1
102
RTVSPropertyOp32
 70
     1
  0
XRECORD
  5
63
102
{ACAD_REACTORS
330
62
102
}
330
62
100
AcDbXrecord
280
     1
102
RTVSPropertyOp0
 70
     1
102
RTVSPropertyOp1
 70
     1
102
RTVSPropertyOp2
 70
     1
102
RTVSPropertyOp3
 70
     1
102
RTVSPropertyOp4
 70
     1
102
RTVSPropertyOp5
 70
     1
102
RTVSPropertyOp6
 70
     1
102
RTVSPropertyOp7
 70
     1
102
RTVSPropertyOp8
 70
     1
102
RTVSPropertyOp9
 70
     1
102
RTVSPropertyOp10
 70
     1
102
RTVSPropertyOp11
 70
     1
102
RTVSPropertyOp12
 70
     1
102
RTVSPropertyOp13
 70
     1
102
RTVSPropertyOp14
 70
     1
102
RTVSPropertyOp15
 70
     1
102
RTVSPropertyOp16
 70
     1
102
RTVSPropertyOp17
 70
     1
102
RTVSPropertyOp18
 70
     1
102
RTVSPropertyOp19
 70
     1
102
RTVSPropertyOp20
 70
     1
102
RTVSPropertyOp21
 70
     1
102
RTVSPropertyOp22
 70
     1
102
RTVSPropertyOp23
 70
     1
102
RTVSPropertyOp24
 70
     1
102
RTVSPropertyOp25
 70
     1
102
RTVSPropertyOp26
 70
     1
102
RTVSPropertyOp27
 70
     1
102
RTVSPropertyOp28
 70
     1
102
RTVSPropertyOp29
 70
     1
102
RTVSPropertyOp30
 70
     1
102
RTVSPropertyOp31
 70
     1
102
RTVSPropertyOp32
 70
     1
  0
XRECORD
  5
6B
102
{ACAD_REACTORS
330
6A
102
}
330
6A
100
AcDbXrecord
280
     1
102
RTVSPropertyOp0
 70
     1
102
RTVSPropertyOp1
 70
     1
102
RTVSPropertyOp2
 70
     1
102
RTVSPropertyOp3
 70
     1
102
RTVSPropertyOp4
 70
     1
102
RTVSPropertyOp5
 70
     1
102
RTVSPropertyOp6
 70
     1
102
RTVSPropertyOp7
 70
     1
102
RTVSPropertyOp8
 70
     1
102
RTVSPropertyOp9
 70
     1
102
RTVSPropertyOp10
 70
     1
102
RTVSPropertyOp11
 70
     1
102
RTVSPropertyOp12
 70
     1
102
RTVSPropertyOp13
 70
     1
102
RTVSPropertyOp14
 70
     1
102
RTVSPropertyOp15
 70
     1
102
RTVSPropertyOp16
 70
     1
102
RTVSPropertyOp17
 70
     1
102
RTVSPropertyOp18
 70
     1
102
RTVSPropertyOp19
 70
     1
102
RTVSPropertyOp20
 70
     1
102
RTVSPropertyOp21
 70
     1
102
RTVSPropertyOp22
 70
     1
102
RTVSPropertyOp23
 70
     1
102
RTVSPropertyOp24
 70
     1
102
RTVSPropertyOp25
 70
     1
102
RTVSPropertyOp26
 70
     1
102
RTVSPropertyOp27
 70
     1
102
RTVSPropertyOp28
 70
     1
102
RTVSPropertyOp29
 70
     1
102
RTVSPropertyOp30
 70
     1
102
RTVSPropertyOp31
 70
     1
102
RTVSPropertyOp32
 70
     1
  0
XRECORD
  5
5F
102
{ACAD_REACTORS
330
5E
102
}
330
5E
100
AcDbXrecord
280
     1
102
RTVSPropertyOp0
 70
     1
102
RTVSPropertyOp1
 70
     1
102
RTVSPropertyOp2
 70
     1
102
RTVSPropertyOp3
 70
     1
102
RTVSPropertyOp4
 70
     1
102
RTVSPropertyOp5
 70
     1
102
RTVSPropertyOp6
 70
     1
102
RTVSPropertyOp7
 70
     1
102
RTVSPropertyOp8
 70
     1
102
RTVSPropertyOp9
 70
     1
102
RTVSPropertyOp10
 70
     1
102
RTVSPropertyOp11
 70
     1
102
RTVSPropertyOp12
 70
     1
102
RTVSPropertyOp13
 70
     1
102
RTVSPropertyOp14
 70
     1
102
RTVSPropertyOp15
 70
     1
102
RTVSPropertyOp16
 70
     1
102
RTVSPropertyOp17
 70
     1
102
RTVSPropertyOp18
 70
     1
102
RTVSPropertyOp19
 70
     1
102
RTVSPropertyOp20
 70
     1
102
RTVSPropertyOp21
 70
     1
102
RTVSPropertyOp22
 70
     1
102
RTVSPropertyOp23
 70
     1
102
RTVSPropertyOp24
 70
     1
102
RTVSPropertyOp25
 70
     1
102
RTVSPropertyOp26
 70
     1
102
RTVSPropertyOp27
 70
     1
102
RTVSPropertyOp28
 70
     1
102
RTVSPropertyOp29
 70
     1
102
RTVSPropertyOp30
 70
     1
102
RTVSPropertyOp31
 70
     1
102
RTVSPropertyOp32
 70
     1
  0
XRECORD
  5
61
102
{ACAD_REACTORS
330
60
102
}
330
60
100
AcDbXrecord
280
     1
102
RTVSPropertyOp0
 70
     1
102
RTVSPropertyOp1
 70
     1
102
RTVSPropertyOp2
 70
     1
102
RTVSPropertyOp3
 70
     1
102
RTVSPropertyOp4
 70
     1
102
RTVSPropertyOp5
 70
     1
102
RTVSPropertyOp6
 70
     1
102
RTVSPropertyOp7
 70
     1
102
RTVSPropertyOp8
 70
     1
102
RTVSPropertyOp9
 70
     1
102
RTVSPropertyOp10
 70
     1
102
RTVSPropertyOp11
 70
     1
102
RTVSPropertyOp12
 70
     1
102
RTVSPropertyOp13
 70
     1
102
RTVSPropertyOp14
 70
     1
102
RTVSPropertyOp15
 70
     1
102
RTVSPropertyOp16
 70
     1
102
RTVSPropertyOp17
 70
     1
102
RTVSPropertyOp18
 70
     1
102
RTVSPropertyOp19
 70
     1
102
RTVSPropertyOp20
 70
     1
102
RTVSPropertyOp21
 70
     1
102
RTVSPropertyOp22
 70
     1
102
RTVSPropertyOp23
 70
     1
102
RTVSPropertyOp24
 70
     1
102
RTVSPropertyOp25
 70
     1
102
RTVSPropertyOp26
 70
     1
102
RTVSPropertyOp27
 70
     1
102
RTVSPropertyOp28
 70
     1
102
RTVSPropertyOp29
 70
     1
102
RTVSPropertyOp30
 70
     1
102
RTVSPropertyOp31
 70
     1
102
RTVSPropertyOp32
 70
     1
  0
XRECORD
  5
69
102
{ACAD_REACTORS
330
68
102
}
330
68
100
AcDbXrecord
280
     1
102
RTVSPropertyOp0
 70
     1
102
RTVSPropertyOp1
 70
     1
102
RTVSPropertyOp2
 70
     1
102
RTVSPropertyOp3
 70
     1
102
RTVSPropertyOp4
 70
     1
102
RTVSPropertyOp5
 70
     1
102
RTVSPropertyOp6
 70
     1
102
RTVSPropertyOp7
 70
     1
102
RTVSPropertyOp8
 70
     1
102
RTVSPropertyOp9
 70
     1
102
RTVSPropertyOp10
 70
     1
102
RTVSPropertyOp11
 70
     1
102
RTVSPropertyOp12
 70
     1
102
RTVSPropertyOp13
 70
     1
102
RTVSPropertyOp14
 70
     1
102
RTVSPropertyOp15
 70
     1
102
RTVSPropertyOp16
 70
     1
102
RTVSPropertyOp17
 70
     1
102
RTVSPropertyOp18
 70
     1
102
RTVSPropertyOp19
 70
     1
102
RTVSPropertyOp20
 70
     1
102
RTVSPropertyOp21
 70
     1
102
RTVSPropertyOp22
 70
     1
102
RTVSPropertyOp23
 70
     1
102
RTVSPropertyOp24
 70
     1
102
RTVSPropertyOp25
 70
     1
102
RTVSPropertyOp26
 70
     1
102
RTVSPropertyOp27
 70
     1
102
RTVSPropertyOp28
 70
     1
102
RTVSPropertyOp29
 70
     1
102
RTVSPropertyOp30
 70
     1
102
RTVSPropertyOp31
 70
     1
102
RTVSPropertyOp32
 70
     1
  0
XRECORD
  5
4D
102
{ACAD_REACTORS
330
4C
102
}
330
4C
100
AcDbXrecord
280
     1
102
RTVSPropertyOp0
 70
     1
102
RTVSPropertyOp1
 70
     1
102
RTVSPropertyOp2
 70
     1
102
RTVSPropertyOp3
 70
     1
102
RTVSPropertyOp4
 70
     1
102
RTVSPropertyOp5
 70
     1
102
RTVSPropertyOp6
 70
     1
102
RTVSPropertyOp7
 70
     1
102
RTVSPropertyOp8
 70
     1
102
RTVSPropertyOp9
 70
     1
102
RTVSPropertyOp10
 70
     1
102
RTVSPropertyOp11
 70
     1
102
RTVSPropertyOp12
 70
     1
102
RTVSPropertyOp13
 70
     1
102
RTVSPropertyOp14
 70
     1
102
RTVSPropertyOp15
 70
     1
102
RTVSPropertyOp16
 70
     1
102
RTVSPropertyOp17
 70
     1
102
RTVSPropertyOp18
 70
     1
102
RTVSPropertyOp19
 70
     1
102
RTVSPropertyOp20
 70
     1
102
RTVSPropertyOp21
 70
     1
102
RTVSPropertyOp22
 70
     1
102
RTVSPropertyOp23
 70
     1
102
RTVSPropertyOp24
 70
     1
102
RTVSPropertyOp25
 70
     1
102
RTVSPropertyOp26
 70
     1
102
RTVSPropertyOp27
 70
     1
102
RTVSPropertyOp28
 70
     1
102
RTVSPropertyOp29
 70
     1
102
RTVSPropertyOp30
 70
     1
102
RTVSPropertyOp31
 70
     1
102
RTVSPropertyOp32
 70
     1
  0
XRECORD
  5
4F
102
{ACAD_REACTORS
330
4E
102
}
330
4E
100
AcDbXrecord
280
     1
102
RTVSPropertyOp0
 70
     1
102
RTVSPropertyOp1
 70
     1
102
RTVSPropertyOp2
 70
     1
102
RTVSPropertyOp3
 70
     1
102
RTVSPropertyOp4
 70
     1
102
RTVSPropertyOp5
 70
     1
102
RTVSPropertyOp6
 70
     1
102
RTVSPropertyOp7
 70
     1
102
RTVSPropertyOp8
 70
     1
102
RTVSPropertyOp9
 70
     1
102
RTVSPropertyOp10
 70
     1
102
RTVSPropertyOp11
 70
     1
102
RTVSPropertyOp12
 70
     1
102
RTVSPropertyOp13
 70
     1
102
RTVSPropertyOp14
 70
     1
102
RTVSPropertyOp15
 70
     1
102
RTVSPropertyOp16
 70
     1
102
RTVSPropertyOp17
 70
     1
102
RTVSPropertyOp18
 70
     1
102
RTVSPropertyOp19
 70
     1
102
RTVSPropertyOp20
 70
     1
102
RTVSPropertyOp21
 70
     1
102
RTVSPropertyOp22
 70
     1
102
RTVSPropertyOp23
 70
     1
102
RTVSPropertyOp24
 70
     1
102
RTVSPropertyOp25
 70
     1
102
RTVSPropertyOp26
 70
     1
102
RTVSPropertyOp27
 70
     1
102
RTVSPropertyOp28
 70
     1
102
RTVSPropertyOp29
 70
     1
102
RTVSPropertyOp30
 70
     1
102
RTVSPropertyOp31
 70
     1
102
RTVSPropertyOp32
 70
     1
  0
XRECORD
  5
51
102
{ACAD_REACTORS
330
50
102
}
330
50
100
AcDbXrecord
280
     1
102
RTVSPropertyOp0
 70
     1
102
RTVSPropertyOp1
 70
     1
102
RTVSPropertyOp2
 70
     1
102
RTVSPropertyOp3
 70
     1
102
RTVSPropertyOp4
 70
     1
102
RTVSPropertyOp5
 70
     1
102
RTVSPropertyOp6
 70
     1
102
RTVSPropertyOp7
 70
     1
102
RTVSPropertyOp8
 70
     1
102
RTVSPropertyOp9
 70
     1
102
RTVSPropertyOp10
 70
     1
102
RTVSPropertyOp11
 70
     1
102
RTVSPropertyOp12
 70
     1
102
RTVSPropertyOp13
 70
     1
102
RTVSPropertyOp14
 70
     1
102
RTVSPropertyOp15
 70
     1
102
RTVSPropertyOp16
 70
     1
102
RTVSPropertyOp17
 70
     1
102
RTVSPropertyOp18
 70
     1
102
RTVSPropertyOp19
 70
     1
102
RTVSPropertyOp20
 70
     1
102
RTVSPropertyOp21
 70
     1
102
RTVSPropertyOp22
 70
     1
102
RTVSPropertyOp23
 70
     1
102
RTVSPropertyOp24
 70
     1
102
RTVSPropertyOp25
 70
     1
102
RTVSPropertyOp26
 70
     1
102
RTVSPropertyOp27
 70
     1
102
RTVSPropertyOp28
 70
     1
102
RTVSPropertyOp29
 70
     1
102
RTVSPropertyOp30
 70
     1
102
RTVSPropertyOp31
 70
     1
102
RTVSPropertyOp32
 70
     1
  0
XRECORD
  5
53
102
{ACAD_REACTORS
330
52
102
}
330
52
100
AcDbXrecord
280
     1
102
RTVSPropertyOp0
 70
     1
102
RTVSPropertyOp1
 70
     1
102
RTVSPropertyOp2
 70
     1
102
RTVSPropertyOp3
 70
     1
102
RTVSPropertyOp4
 70
     1
102
RTVSPropertyOp5
 70
     1
102
RTVSPropertyOp6
 70
     1
102
RTVSPropertyOp7
 70
     1
102
RTVSPropertyOp8
 70
     1
102
RTVSPropertyOp9
 70
     1
102
RTVSPropertyOp10
 70
     1
102
RTVSPropertyOp11
 70
     1
102
RTVSPropertyOp12
 70
     1
102
RTVSPropertyOp13
 70
     1
102
RTVSPropertyOp14
 70
     1
102
RTVSPropertyOp15
 70
     1
102
RTVSPropertyOp16
 70
     1
102
RTVSPropertyOp17
 70
     1
102
RTVSPropertyOp18
 70
     1
102
RTVSPropertyOp19
 70
     1
102
RTVSPropertyOp20
 70
     1
102
RTVSPropertyOp21
 70
     1
102
RTVSPropertyOp22
 70
     1
102
RTVSPropertyOp23
 70
     1
102
RTVSPropertyOp24
 70
     1
102
RTVSPropertyOp25
 70
     1
102
RTVSPropertyOp26
 70
     1
102
RTVSPropertyOp27
 70
     1
102
RTVSPropertyOp28
 70
     1
102
RTVSPropertyOp29
 70
     1
102
RTVSPropertyOp30
 70
     1
102
RTVSPropertyOp31
 70
     1
102
RTVSPropertyOp32
 70
     1
  0
XRECORD
  5
67
102
{ACAD_REACTORS
330
66
102
}
330
66
100
AcDbXrecord
280
     1
102
RTVSPropertyOp0
 70
     1
102
RTVSPropertyOp1
 70
     1
102
RTVSPropertyOp2
 70
     1
102
RTVSPropertyOp3
 70
     1
102
RTVSPropertyOp4
 70
     1
102
RTVSPropertyOp5
 70
     1
102
RTVSPropertyOp6
 70
     1
102
RTVSPropertyOp7
 70
     1
102
RTVSPropertyOp8
 70
     1
102
RTVSPropertyOp9
 70
     1
102
RTVSPropertyOp10
 70
     1
102
RTVSPropertyOp11
 70
     1
102
RTVSPropertyOp12
 70
     1
102
RTVSPropertyOp13
 70
     1
102
RTVSPropertyOp14
 70
     1
102
RTVSPropertyOp15
 70
     1
102
RTVSPropertyOp16
 70
     1
102
RTVSPropertyOp17
 70
     1
102
RTVSPropertyOp18
 70
     1
102
RTVSPropertyOp19
 70
     1
102
RTVSPropertyOp20
 70
     1
102
RTVSPropertyOp21
 70
     1
102
RTVSPropertyOp22
 70
     1
102
RTVSPropertyOp23
 70
     1
102
RTVSPropertyOp24
 70
     1
102
RTVSPropertyOp25
 70
     1
102
RTVSPropertyOp26
 70
     1
102
RTVSPropertyOp27
 70
     1
102
RTVSPropertyOp28
 70
     1
102
RTVSPropertyOp29
 70
     1
102
RTVSPropertyOp30
 70
     1
102
RTVSPropertyOp31
 70
     1
102
RTVSPropertyOp32
 70
     1
  0
XRECORD
  5
5D
102
{ACAD_REACTORS
330
5C
102
}
330
5C
100
AcDbXrecord
280
     1
102
RTVSPropertyOp0
 70
     1
102
RTVSPropertyOp1
 70
     1
102
RTVSPropertyOp2
 70
     1
102
RTVSPropertyOp3
 70
     1
102
RTVSPropertyOp4
 70
     1
102
RTVSPropertyOp5
 70
     1
102
RTVSPropertyOp6
 70
     1
102
RTVSPropertyOp7
 70
     1
102
RTVSPropertyOp8
 70
     1
102
RTVSPropertyOp9
 70
     1
102
RTVSPropertyOp10
 70
     1
102
RTVSPropertyOp11
 70
     1
102
RTVSPropertyOp12
 70
     1
102
RTVSPropertyOp13
 70
     1
102
RTVSPropertyOp14
 70
     1
102
RTVSPropertyOp15
 70
     1
102
RTVSPropertyOp16
 70
     1
102
RTVSPropertyOp17
 70
     1
102
RTVSPropertyOp18
 70
     1
102
RTVSPropertyOp19
 70
     1
102
RTVSPropertyOp20
 70
     1
102
RTVSPropertyOp21
 70
     1
102
RTVSPropertyOp22
 70
     1
102
RTVSPropertyOp23
 70
     1
102
RTVSPropertyOp24
 70
     1
102
RTVSPropertyOp25
 70
     1
102
RTVSPropertyOp26
 70
     1
102
RTVSPropertyOp27
 70
     1
102
RTVSPropertyOp28
 70
     1
102
RTVSPropertyOp29
 70
     1
102
RTVSPropertyOp30
 70
     1
102
RTVSPropertyOp31
 70
     1
102
RTVSPropertyOp32
 70
     1
  0
XRECORD
  5
65
102
{ACAD_REACTORS
330
64
102
}
330
64
100
AcDbXrecord
280
     1
102
RTVSPropertyOp0
 70
     1
102
RTVSPropertyOp1
 70
     1
102
RTVSPropertyOp2
 70
     1
102
RTVSPropertyOp3
 70
     1
102
RTVSPropertyOp4
 70
     1
102
RTVSPropertyOp5
 70
     1
102
RTVSPropertyOp6
 70
     1
102
RTVSPropertyOp7
 70
     1
102
RTVSPropertyOp8
 70
     1
102
RTVSPropertyOp9
 70
     1
102
RTVSPropertyOp10
 70
     1
102
RTVSPropertyOp11
 70
     1
102
RTVSPropertyOp12
 70
     1
102
RTVSPropertyOp13
 70
     1
102
RTVSPropertyOp14
 70
     1
102
RTVSPropertyOp15
 70
     1
102
RTVSPropertyOp16
 70
     1
102
RTVSPropertyOp17
 70
     1
102
RTVSPropertyOp18
 70
     1
102
RTVSPropertyOp19
 70
     1
102
RTVSPropertyOp20
 70
     1
102
RTVSPropertyOp21
 70
     1
102
RTVSPropertyOp22
 70
     1
102
RTVSPropertyOp23
 70
     1
102
RTVSPropertyOp24
 70
     1
102
RTVSPropertyOp25
 70
     1
102
RTVSPropertyOp26
 70
     1
102
RTVSPropertyOp27
 70
     1
102
RTVSPropertyOp28
 70
     1
102
RTVSPropertyOp29
 70
     1
102
RTVSPropertyOp30
 70
     1
102
RTVSPropertyOp31
 70
     1
102
RTVSPropertyOp32
 70
     1
  0
ENDSEC
  0
EOF
