  0
SECTION
  2
HEADER
  9
$ACADVER
  1
AC1021
  9
$ACADMAINTVER
 70
    25
  9
$DWGCODEPAGE
  3
ANSI_1252
  9
$INSBASE
 10
0.0
 20
0.0
 30
0.0
  9
$EXTMIN
 10
-6.98748
 20
-5.82816
 30
0.0
  9
$EXTMAX
 10
6.98745
 20
5.82811
 30
0.0
  9
$LIMMIN
 10
0.0
 20
0.0
  9
$LIMMAX
 10
12.0
 20
9.0
  9
$ORTHOMODE
 70
     0
  9
$REGENMODE
 70
     1
  9
$FILLMODE
 70
     1
  9
$QTEXTMODE
 70
     0
  9
$MIRRTEXT
 70
     1
  9
$LTSCALE
 40
1.0
  9
$ATTMODE
 70
     1
  9
$TEXTSIZE
 40
0.2
  9
$TRACEWID
 40
0.05
  9
$TEXTSTYLE
  7
Standard
  9
$CLAYER
  8
0
  9
$CELTYPE
  6
ByLayer
  9
$CECOLOR
 62
   256
  9
$CELTSCALE
 40
1.0
  9
$DISPSILH
 70
     0
  9
$DIMSCALE
 40
1.0
  9
$DIMASZ
 40
0.18
  9
$DIMEXO
 40
0.0625
  9
$DIMDLI
 40
0.38
  9
$DIMRND
 40
0.0
  9
$DIMDLE
 40
0.0
  9
$DIMEXE
 40
0.18
  9
$DIMTP
 40
0.0
  9
$DIMTM
 40
0.0
  9
$DIMTXT
 40
0.18
  9
$DIMCEN
 40
0.09
  9
$DIMTSZ
 40
0.0
  9
$DIMTOL
 70
     0
  9
$DIMLIM
 70
     0
  9
$DIMTIH
 70
     1
  9
$DIMTOH
 70
     1
  9
$DIMSE1
 70
     0
  9
$DIMSE2
 70
     0
  9
$DIMTAD
 70
     0
  9
$DIMZIN
 70
     0
  9
$DIMBLK
  1

  9
$DIMASO
 70
     1
  9
$DIMSHO
 70
     1
  9
$DIMPOST
  1

  9
$DIMAPOST
  1

  9
$DIMALT
 70
     0
  9
$DIMALTD
 70
     2
  9
$DIMALTF
 40
25.4
  9
$DIMLFAC
 40
1.0
  9
$DIMTOFL
 70
     0
  9
$DIMTVP
 40
0.0
  9
$DIMTIX
 70
     0
  9
$DIMSOXD
 70
     0
  9
$DIMSAH
 70
     0
  9
$DIMBLK1
  1

  9
$DIMBLK2
  1

  9
$DIMSTYLE
  2
Standard
  9
$DIMCLRD
 70
     0
  9
$DIMCLRE
 70
     0
  9
$DIMCLRT
 70
     0
  9
$DIMTFAC
 40
1.0
  9
$DIMGAP
 40
0.09
  9
$DIMJUST
 70
     0
  9
$DIMSD1
 70
     0
  9
$DIMSD2
 70
     0
  9
$DIMTOLJ
 70
     1
  9
$DIMTZIN
 70
     0
  9
$DIMALTZ
 70
     0
  9
$DIMALTTZ
 70
     0
  9
$DIMUPT
 70
     0
  9
$DIMDEC
 70
     4
  9
$DIMTDEC
 70
     4
  9
$DIMALTU
 70
     2
  9
$DIMALTTD
 70
     2
  9
$DIMTXSTY
  7
Standard
  9
$DIMAUNIT
 70
     0
  9
$DIMADEC
 70
     0
  9
$DIMALTRND
 40
0.0
  9
$DIMAZIN
 70
     0
  9
$DIMDSEP
 70
    46
  9
$DIMATFIT
 70
     3
  9
$DIMFRAC
 70
     0
  9
$DIMLDRBLK
  1

  9
$DIMLUNIT
 70
     2
  9
$DIMLWD
 70
    -2
  9
$DIMLWE
 70
    -2
  9
$DIMTMOVE
 70
     0
  9
$DIMFXL
 40
1.0
  9
$DIMFXLON
 70
     0
  9
$DIMJOGANG
 40
0.7853981633974483
  9
$DIMTFILL
 70
     0
  9
$DIMTFILLCLR
 70
     0
  9
$DIMARCSYM
 70
     0
  9
$DIMLTYPE
  6

  9
$DIMLTEX1
  6

  9
$DIMLTEX2
  6

  9
$LUNITS
 70
     2
  9
$LUPREC
 70
     4
  9
$SKETCHINC
 40
0.1
  9
$FILLETRAD
 40
0.5
  9
$AUNITS
 70
     0
  9
$AUPREC
 70
     0
  9
$MENU
  1
.
  9
$ELEVATION
 40
0.0
  9
$PELEVATION
 40
0.0
  9
$THICKNESS
 40
0.0
  9
$LIMCHECK
 70
     0
  9
$CHAMFERA
 40
0.5
  9
$CHAMFERB
 40
0.5
  9
$CHAMFERC
 40
1.0
  9
$CHAMFERD
 40
0.0
  9
$SKPOLY
 70
     0
  9
$TDCREATE
 40
2456876.680007002
  9
$TDUCREATE
 40
2456876.805007002
  9
$TDUPDATE
 40
2456876.680007176
  9
$TDUUPDATE
 40
2456876.805007176
  9
$TDINDWG
 40
0.0000000116
  9
$TDUSRTIMER
 40
0.0000000116
  9
$USRTIMER
 70
     1
  9
$ANGBASE
 50
0.0
  9
$ANGDIR
 70
     0
  9
$PDMODE
 70
     0
  9
$PDSIZE
 40
0.0
  9
$PLINEWID
 40
0.0
  9
$SPLFRAME
 70
     0
  9
$SPLINETYPE
 70
     6
  9
$SPLINESEGS
 70
     8
  9
$HANDSEED
  5
65
  9
$SURFTAB1
 70
     6
  9
$SURFTAB2
 70
     6
  9
$SURFTYPE
 70
     6
  9
$SURFU
 70
     6
  9
$SURFV
 70
     6
  9
$UCSBASE
  2

  9
$UCSNAME
  2

  9
$UCSORG
 10
0.0
 20
0.0
 30
0.0
  9
$UCSXDIR
 10
1.0
 20
0.0
 30
0.0
  9
$UCSYDIR
 10
0.0
 20
1.0
 30
0.0
  9
$UCSORTHOREF
  2

  9
$UCSORTHOVIEW
 70
     0
  9
$UCSORGTOP
 10
0.0
 20
0.0
 30
0.0
  9
$UCSORGBOTTOM
 10
0.0
 20
0.0
 30
0.0
  9
$UCSORGLEFT
 10
0.0
 20
0.0
 30
0.0
  9
$UCSORGRIGHT
 10
0.0
 20
0.0
 30
0.0
  9
$UCSORGFRONT
 10
0.0
 20
0.0
 30
0.0
  9
$UCSORGBACK
 10
0.0
 20
0.0
 30
0.0
  9
$PUCSBASE
  2

  9
$PUCSNAME
  2

  9
$PUCSORG
 10
0.0
 20
0.0
 30
0.0
  9
$PUCSXDIR
 10
1.0
 20
0.0
 30
0.0
  9
$PUCSYDIR
 10
0.0
 20
1.0
 30
0.0
  9
$PUCSORTHOREF
  2

  9
$PUCSORTHOVIEW
 70
     0
  9
$PUCSORGTOP
 10
0.0
 20
0.0
 30
0.0
  9
$PUCSORGBOTTOM
 10
0.0
 20
0.0
 30
0.0
  9
$PUCSORGLEFT
 10
0.0
 20
0.0
 30
0.0
  9
$PUCSORGRIGHT
 10
0.0
 20
0.0
 30
0.0
  9
$PUCSORGFRONT
 10
0.0
 20
0.0
 30
0.0
  9
$PUCSORGBACK
 10
0.0
 20
0.0
 30
0.0
  9
$USERI1
 70
     0
  9
$USERI2
 70
     0
  9
$USERI3
 70
     0
  9
$USERI4
 70
     0
  9
$USERI5
 70
     0
  9
$USERR1
 40
0.0
  9
$USERR2
 40
0.0
  9
$USERR3
 40
0.0
  9
$USERR4
 40
0.0
  9
$USERR5
 40
0.0
  9
$WORLDVIEW
 70
     1
  9
$SHADEDGE
 70
     3
  9
$SHADEDIF
 70
    70
  9
$TILEMODE
 70
     1
  9
$MAXACTVP
 70
    64
  9
$PINSBASE
 10
0.0
 20
0.0
 30
0.0
  9
$PLIMCHECK
 70
     0
  9
$PEXTMIN
 10
1.000000000000000E+20
 20
1.000000000000000E+20
 30
1.000000000000000E+20
  9
$PEXTMAX
 10
-1.000000000000000E+20
 20
-1.000000000000000E+20
 30
-1.000000000000000E+20
  9
$PLIMMIN
 10
0.0
 20
0.0
  9
$PLIMMAX
 10
12.0
 20
9.0
  9
$UNITMODE
 70
     0
  9
$VISRETAIN
 70
     1
  9
$PLINEGEN
 70
     0
  9
$PSLTSCALE
 70
     1
  9
$TREEDEPTH
 70
  3020
  9
$CMLSTYLE
  2
Standard
  9
$CMLJUST
 70
     0
  9
$CMLSCALE
 40
1.0
  9
$PROXYGRAPHICS
 70
     1
  9
$MEASUREMENT
 70
     0
  9
$CELWEIGHT
370
    -1
  9
$ENDCAPS
280
     0
  9
$JOINSTYLE
280
     0
  9
$LWDISPLAY
290
     0
  9
$INSUNITS
 70
     5
  9
$HYPERLINKBASE
  1

  9
$STYLESHEET
  1

  9
$XEDIT
290
     1
  9
$CEPSNTYPE
380
     0
  9
$PSTYLEMODE
290
     1
  9
$FINGERPRINTGUID
  2
{232845CD-C78E-4254-895A-29E5C4177136}
  9
$VERSIONGUID
  2
{FAEB1C32-E019-11D5-929B-00C0DF256EC4}
  9
$EXTNAMES
290
     1
  9
$PSVPSCALE
 40
0.0
  9
$OLESTARTUP
290
     0
  9
$SORTENTS
280
   127
  9
$INDEXCTL
280
     0
  9
$HIDETEXT
280
     1
  9
$XCLIPFRAME
290
     0
  9
$HALOGAP
280
     0
  9
$OBSCOLOR
 70
   257
  9
$OBSLTYPE
280
     0
  9
$INTERSECTIONDISPLAY
280
     0
  9
$INTERSECTIONCOLOR
 70
   257
  9
$DIMASSOC
280
     2
  9
$PROJECTNAME
  1

  9
$CAMERADISPLAY
290
     0
  9
$LENSLENGTH
 40
50.0
  9
$CAMERAHEIGHT
 40
0.0
  9
$STEPSPERSEC
 40
2.0
  9
$STEPSIZE
 40
6.0
  9
$3DDWFPREC
 40
2.0
  9
$PSOLWIDTH
 40
0.25
  9
$PSOLHEIGHT
 40
4.0
  9
$LOFTANG1
 40
1.570796326794897
  9
$LOFTANG2
 40
1.570796326794897
  9
$LOFTMAG1
 40
0.0
  9
$LOFTMAG2
 40
0.0
  9
$LOFTPARAM
 70
     7
  9
$LOFTNORMALS
280
     1
  9
$LATITUDE
 40
37.795
  9
$LONGITUDE
 40
-122.394
  9
$NORTHDIRECTION
 40
0.0
  9
$TIMEZONE
 70
 -8000
  9
$LIGHTGLYPHDISPLAY
280
     1
  9
$TILEMODELIGHTSYNCH
280
     1
  9
$SOLIDHIST
280
     1
  9
$SHOWHIST
280
     1
  9
$DWFFRAME
280
     2
  9
$DGNFRAME
280
     2
  9
$REALWORLDSCALE
290
     1
  9
$INTERFERECOLOR
 62
   256
  9
$CSHADOW
280
     0
  9
$SHADOWPLANELOCATION
 40
0.0
  0
ENDSEC
  0
SECTION
  2
CLASSES
  0
CLASS
  1
ACDBDICTIONARYWDFLT
  2
AcDbDictionaryWithDefault
  3
ObjectDBX Classes
 90
        0
 91
        4
280
     0
281
     0
  0
CLASS
  1
VISUALSTYLE
  2
AcDbVisualStyle
  3
ObjectDBX Classes
 90
     4095
 91
        4
280
     0
281
     0
  0
CLASS
  1
MATERIAL
  2
AcDbMaterial
  3
ObjectDBX Classes
 90
     1153
 91
        4
280
     0
281
     0
  0
ENDSEC
  0
SECTION
  2
TABLES
  0
TABLE
  2
VPORT
  5
8
330
0
100
AcDbSymbolTable
 70
     1
  0
VPORT
  5
29
330
8
100
AcDbSymbolTableRecord
100
AcDbViewportTableRecord
  2
*Active
 70
     0
 10
0.0
 20
0.0
 11
1.0
 21
1.0
 12
10.42990654205607
 22
4.5
 13
0.0
 23
0.0
 14
0.5
 24
0.5
 15
0.5
 25
0.5
 16
0.0
 26
0.0
 36
1.0
 17
0.0
 27
0.0
 37
0.0
 40
9.0
 41
1.972972972850329
 42
50.0
 43
0.0
 44
0.0
 50
0.0
 51
0.0
 71
     0
 72
   100
 73
     1
 74
     3
 75
     0
 76
     0
 77
     0
 78
     0
281
     0
 65
     1
110
0.0
120
0.0
130
0.0
111
1.0
121
0.0
131
0.0
112
0.0
122
1.0
132
0.0
 79
     0
146
0.0
 60
     3
 61
     5
292
     1
282
     1
141
0.0
142
0.0
 63
   250
  0
ENDTAB
  0
TABLE
  2
LTYPE
  5
5
330
0
100
AcDbSymbolTable
 70
     1
  0
LTYPE
  5
14
330
5
100
AcDbSymbolTableRecord
100
AcDbLinetypeTableRecord
  2
ByBlock
 70
     0
  3

 72
    65
 73
     0
 40
0.0
  0
LTYPE
  5
15
330
5
100
AcDbSymbolTableRecord
100
AcDbLinetypeTableRecord
  2
ByLayer
 70
     0
  3

 72
    65
 73
     0
 40
0.0
  0
LTYPE
  5
16
330
5
100
AcDbSymbolTableRecord
100
AcDbLinetypeTableRecord
  2
Continuous
 70
     0
  3
Solid line
 72
    65
 73
     0
 40
0.0
  0
ENDTAB
  0
TABLE
  2
LAYER
  5
2
330
0
100
AcDbSymbolTable
 70
     2
  0
LAYER
  5
10
330
2
100
AcDbSymbolTableRecord
100
AcDbLayerTableRecord
  2
0
 70
     0
 62
     7
  6
Continuous
370
    -3
390
F
347
3E
  0
LAYER
  5
40
330
2
100
AcDbSymbolTableRecord
100
AcDbLayerTableRecord
  2
Camada 1
 70
     0
 62
     7
  6
Continuous
370
    -3
390
F
347
3E
  0
ENDTAB
  0
TABLE
  2
STYLE
  5
3
330
0
100
AcDbSymbolTable
 70
     1
  0
STYLE
  5
11
330
3
100
AcDbSymbolTableRecord
100
AcDbTextStyleTableRecord
  2
Standard
 70
     0
 40
0.0
 41
1.0
 50
0.0
 71
     0
 42
0.2
  3
txt
  4

  0
ENDTAB
  0
TABLE
  2
VIEW
  5
6
330
0
100
AcDbSymbolTable
 70
     0
  0
ENDTAB
  0
TABLE
  2
UCS
  5
7
330
0
100
AcDbSymbolTable
 70
     0
  0
ENDTAB
  0
TABLE
  2
APPID
  5
9
330
0
100
AcDbSymbolTable
 70
     2
  0
APPID
  5
12
330
9
100
AcDbSymbolTableRecord
100
AcDbRegAppTableRecord
  2
ACAD
 70
     0
  0
APPID
  5
3F
330
9
100
AcDbSymbolTableRecord
100
AcDbRegAppTableRecord
  2
ODA
 70
     0
  0
ENDTAB
  0
TABLE
  2
DIMSTYLE
  5
A
330
0
100
AcDbSymbolTable
 70
     1
100
AcDbDimStyleTable
  0
DIMSTYLE
105
27
330
A
100
AcDbSymbolTableRecord
100
AcDbDimStyleTableRecord
  2
Standard
 70
     0
178
     0
340
11
  0
ENDTAB
  0
TABLE
  2
BLOCK_RECORD
  5
1
330
0
100
AcDbSymbolTable
 70
     1
  0
BLOCK_RECORD
  5
1F
330
1
100
AcDbSymbolTableRecord
100
AcDbBlockTableRecord
  2
*Model_Space
340
22
 70
     0
280
     1
281
     0
  0
BLOCK_RECORD
  5
1B
330
1
100
AcDbSymbolTableRecord
100
AcDbBlockTableRecord
  2
*Paper_Space
340
1E
 70
     0
280
     1
281
     0
  0
BLOCK_RECORD
  5
23
330
1
100
AcDbSymbolTableRecord
100
AcDbBlockTableRecord
  2
*Paper_Space0
340
26
 70
     0
280
     1
281
     0
  0
ENDTAB
  0
ENDSEC
  0
SECTION
  2
BLOCKS
  0
BLOCK
  5
20
330
1F
100
AcDbEntity
  8
0
100
AcDbBlockBegin
  2
*Model_Space
 70
     0
 10
0.0
 20
0.0
 30
0.0
  3
*Model_Space
  1

  0
ENDBLK
  5
21
330
1F
100
AcDbEntity
  8
0
100
AcDbBlockEnd
  0
BLOCK
  5
1C
330
1B
100
AcDbEntity
 67
     1
  8
0
100
AcDbBlockBegin
  2
*Paper_Space
 70
     0
 10
0.0
 20
0.0
 30
0.0
  3
*Paper_Space
  1

  0
ENDBLK
  5
1D
330
1B
100
AcDbEntity
 67
     1
  8
0
100
AcDbBlockEnd
  0
BLOCK
  5
24
330
23
100
AcDbEntity
  8
0
100
AcDbBlockBegin
  2
*Paper_Space0
 70
     0
 10
0.0
 20
0.0
 30
0.0
  3
*Paper_Space0
  1

  0
ENDBLK
  5
25
330
23
100
AcDbEntity
  8
0
100
AcDbBlockEnd
  0
ENDSEC
  0
SECTION
  2
ENTITIES
  0
SPLINE
  5
41
330
1F
100
AcDbEntity
  8
Camada 1
100
AcDbSpline
210
0.0
220
0.0
230
1.0
 70
    11
 71
     3
 72
   664
 73
   660
 74
     0
 42
0.0000000001
 43
0.0000000001
 12
1.0
 22
0.0
 32
0.0
 13
1.0
 23
0.0
 33
0.0
 40
0.0
 40
0.0
 40
0.0
 40
0.0
 40
0.0060240963855422
 40
0.0060240963855422
 40
0.0060240963855422
 40
0.0060240963855422
 40
0.0120481927710843
 40
0.0120481927710843
 40
0.0120481927710843
 40
0.0120481927710843
 40
0.0180722891566265
 40
0.0180722891566265
 40
0.0180722891566265
 40
0.0180722891566265
 40
0.0240963855421687
 40
0.0240963855421687
 40
0.0240963855421687
 40
0.0240963855421687
 40
0.0301204819277108
 40
0.0301204819277108
 40
0.0301204819277108
 40
0.0301204819277108
 40
0.036144578313253
 40
0.036144578313253
 40
0.036144578313253
 40
0.036144578313253
 40
0.0421686746987952
 40
0.0421686746987952
 40
0.0421686746987952
 40
0.0421686746987952
 40
0.0481927710843374
 40
0.0481927710843374
 40
0.0481927710843374
 40
0.0481927710843374
 40
0.0542168674698795
 40
0.0542168674698795
 40
0.0542168674698795
 40
0.0542168674698795
 40
0.0602409638554217
 40
0.0602409638554217
 40
0.0602409638554217
 40
0.0602409638554217
 40
0.0662650602409639
 40
0.0662650602409639
 40
0.0662650602409639
 40
0.0662650602409639
 40
0.072289156626506
 40
0.072289156626506
 40
0.072289156626506
 40
0.072289156626506
 40
0.0783132530120482
 40
0.0783132530120482
 40
0.0783132530120482
 40
0.0783132530120482
 40
0.0843373493975904
 40
0.0843373493975904
 40
0.0843373493975904
 40
0.0843373493975904
 40
0.0903614457831325
 40
0.0903614457831325
 40
0.0903614457831325
 40
0.0903614457831325
 40
0.0963855421686747
 40
0.0963855421686747
 40
0.0963855421686747
 40
0.0963855421686747
 40
0.1024096385542169
 40
0.1024096385542169
 40
0.1024096385542169
 40
0.1024096385542169
 40
0.108433734939759
 40
0.108433734939759
 40
0.108433734939759
 40
0.108433734939759
 40
0.1144578313253012
 40
0.1144578313253012
 40
0.1144578313253012
 40
0.1144578313253012
 40
0.1204819277108434
 40
0.1204819277108434
 40
0.1204819277108434
 40
0.1204819277108434
 40
0.1265060240963855
 40
0.1265060240963855
 40
0.1265060240963855
 40
0.1265060240963855
 40
0.1325301204819277
 40
0.1325301204819277
 40
0.1325301204819277
 40
0.1325301204819277
 40
0.1385542168674699
 40
0.1385542168674699
 40
0.1385542168674699
 40
0.1385542168674699
 40
0.144578313253012
 40
0.144578313253012
 40
0.144578313253012
 40
0.144578313253012
 40
0.1506024096385542
 40
0.1506024096385542
 40
0.1506024096385542
 40
0.1506024096385542
 40
0.1566265060240964
 40
0.1566265060240964
 40
0.1566265060240964
 40
0.1566265060240964
 40
0.1626506024096386
 40
0.1626506024096386
 40
0.1626506024096386
 40
0.1626506024096386
 40
0.1686746987951807
 40
0.1686746987951807
 40
0.1686746987951807
 40
0.1686746987951807
 40
0.1746987951807229
 40
0.1746987951807229
 40
0.1746987951807229
 40
0.1746987951807229
 40
0.1807228915662651
 40
0.1807228915662651
 40
0.1807228915662651
 40
0.1807228915662651
 40
0.1867469879518072
 40
0.1867469879518072
 40
0.1867469879518072
 40
0.1867469879518072
 40
0.1927710843373494
 40
0.1927710843373494
 40
0.1927710843373494
 40
0.1927710843373494
 40
0.1987951807228916
 40
0.1987951807228916
 40
0.1987951807228916
 40
0.1987951807228916
 40
0.2048192771084337
 40
0.2048192771084337
 40
0.2048192771084337
 40
0.2048192771084337
 40
0.2108433734939759
 40
0.2108433734939759
 40
0.2108433734939759
 40
0.2108433734939759
 40
0.2168674698795181
 40
0.2168674698795181
 40
0.2168674698795181
 40
0.2168674698795181
 40
0.2228915662650602
 40
0.2228915662650602
 40
0.2228915662650602
 40
0.2228915662650602
 40
0.2289156626506024
 40
0.2289156626506024
 40
0.2289156626506024
 40
0.2289156626506024
 40
0.2349397590361446
 40
0.2349397590361446
 40
0.2349397590361446
 40
0.2349397590361446
 40
0.2409638554216867
 40
0.2409638554216867
 40
0.2409638554216867
 40
0.2409638554216867
 40
0.2469879518072289
 40
0.2469879518072289
 40
0.2469879518072289
 40
0.2469879518072289
 40
0.2530120481927711
 40
0.2530120481927711
 40
0.2530120481927711
 40
0.2530120481927711
 40
0.2590361445783133
 40
0.2590361445783133
 40
0.2590361445783133
 40
0.2590361445783133
 40
0.2650602409638554
 40
0.2650602409638554
 40
0.2650602409638554
 40
0.2650602409638554
 40
0.2710843373493976
 40
0.2710843373493976
 40
0.2710843373493976
 40
0.2710843373493976
 40
0.2771084337349398
 40
0.2771084337349398
 40
0.2771084337349398
 40
0.2771084337349398
 40
0.283132530120482
 40
0.283132530120482
 40
0.283132530120482
 40
0.283132530120482
 40
0.2891566265060241
 40
0.2891566265060241
 40
0.2891566265060241
 40
0.2891566265060241
 40
0.2951807228915663
 40
0.2951807228915663
 40
0.2951807228915663
 40
0.2951807228915663
 40
0.3012048192771085
 40
0.3012048192771085
 40
0.3012048192771085
 40
0.3012048192771085
 40
0.3072289156626506
 40
0.3072289156626506
 40
0.3072289156626506
 40
0.3072289156626506
 40
0.3132530120481928
 40
0.3132530120481928
 40
0.3132530120481928
 40
0.3132530120481928
 40
0.3192771084337349
 40
0.3192771084337349
 40
0.3192771084337349
 40
0.3192771084337349
 40
0.3253012048192771
 40
0.3253012048192771
 40
0.3253012048192771
 40
0.3253012048192771
 40
0.3313253012048193
 40
0.3313253012048193
 40
0.3313253012048193
 40
0.3313253012048193
 40
0.3373493975903614
 40
0.3373493975903614
 40
0.3373493975903614
 40
0.3373493975903614
 40
0.3433734939759036
 40
0.3433734939759036
 40
0.3433734939759036
 40
0.3433734939759036
 40
0.3493975903614458
 40
0.3493975903614458
 40
0.3493975903614458
 40
0.3493975903614458
 40
0.3554216867469879
 40
0.3554216867469879
 40
0.3554216867469879
 40
0.3554216867469879
 40
0.3614457831325301
 40
0.3614457831325301
 40
0.3614457831325301
 40
0.3614457831325301
 40
0.3674698795180723
 40
0.3674698795180723
 40
0.3674698795180723
 40
0.3674698795180723
 40
0.3734939759036144
 40
0.3734939759036144
 40
0.3734939759036144
 40
0.3734939759036144
 40
0.3795180722891566
 40
0.3795180722891566
 40
0.3795180722891566
 40
0.3795180722891566
 40
0.3855421686746988
 40
0.3855421686746988
 40
0.3855421686746988
 40
0.3855421686746988
 40
0.3915662650602409
 40
0.3915662650602409
 40
0.3915662650602409
 40
0.3915662650602409
 40
0.3975903614457831
 40
0.3975903614457831
 40
0.3975903614457831
 40
0.3975903614457831
 40
0.4036144578313253
 40
0.4036144578313253
 40
0.4036144578313253
 40
0.4036144578313253
 40
0.4096385542168675
 40
0.4096385542168675
 40
0.4096385542168675
 40
0.4096385542168675
 40
0.4156626506024096
 40
0.4156626506024096
 40
0.4156626506024096
 40
0.4156626506024096
 40
0.4216867469879518
 40
0.4216867469879518
 40
0.4216867469879518
 40
0.4216867469879518
 40
0.427710843373494
 40
0.427710843373494
 40
0.427710843373494
 40
0.427710843373494
 40
0.4337349397590362
 40
0.4337349397590362
 40
0.4337349397590362
 40
0.4337349397590362
 40
0.4397590361445783
 40
0.4397590361445783
 40
0.4397590361445783
 40
0.4397590361445783
 40
0.4457831325301205
 40
0.4457831325301205
 40
0.4457831325301205
 40
0.4457831325301205
 40
0.4518072289156627
 40
0.4518072289156627
 40
0.4518072289156627
 40
0.4518072289156627
 40
0.4578313253012048
 40
0.4578313253012048
 40
0.4578313253012048
 40
0.4578313253012048
 40
0.463855421686747
 40
0.463855421686747
 40
0.463855421686747
 40
0.463855421686747
 40
0.4698795180722892
 40
0.4698795180722892
 40
0.4698795180722892
 40
0.4698795180722892
 40
0.4759036144578313
 40
0.4759036144578313
 40
0.4759036144578313
 40
0.4759036144578313
 40
0.4819277108433735
 40
0.4819277108433735
 40
0.4819277108433735
 40
0.4819277108433735
 40
0.4879518072289157
 40
0.4879518072289157
 40
0.4879518072289157
 40
0.4879518072289157
 40
0.4939759036144578
 40
0.4939759036144578
 40
0.4939759036144578
 40
0.4939759036144578
 40
0.5
 40
0.5
 40
0.5
 40
0.5
 40
0.5060240963855421
 40
0.5060240963855421
 40
0.5060240963855421
 40
0.5060240963855421
 40
0.5120481927710844
 40
0.5120481927710844
 40
0.5120481927710844
 40
0.5120481927710844
 40
0.5180722891566265
 40
0.5180722891566265
 40
0.5180722891566265
 40
0.5180722891566265
 40
0.5240963855421686
 40
0.5240963855421686
 40
0.5240963855421686
 40
0.5240963855421686
 40
0.5301204819277109
 40
0.5301204819277109
 40
0.5301204819277109
 40
0.5301204819277109
 40
0.536144578313253
 40
0.536144578313253
 40
0.536144578313253
 40
0.536144578313253
 40
0.5421686746987951
 40
0.5421686746987951
 40
0.5421686746987951
 40
0.5421686746987951
 40
0.5481927710843374
 40
0.5481927710843374
 40
0.5481927710843374
 40
0.5481927710843374
 40
0.5542168674698795
 40
0.5542168674698795
 40
0.5542168674698795
 40
0.5542168674698795
 40
0.5602409638554217
 40
0.5602409638554217
 40
0.5602409638554217
 40
0.5602409638554217
 40
0.5662650602409639
 40
0.5662650602409639
 40
0.5662650602409639
 40
0.5662650602409639
 40
0.572289156626506
 40
0.572289156626506
 40
0.572289156626506
 40
0.572289156626506
 40
0.5783132530120482
 40
0.5783132530120482
 40
0.5783132530120482
 40
0.5783132530120482
 40
0.5843373493975904
 40
0.5843373493975904
 40
0.5843373493975904
 40
0.5843373493975904
 40
0.5903614457831325
 40
0.5903614457831325
 40
0.5903614457831325
 40
0.5903614457831325
 40
0.5963855421686747
 40
0.5963855421686747
 40
0.5963855421686747
 40
0.5963855421686747
 40
0.6024096385542169
 40
0.6024096385542169
 40
0.6024096385542169
 40
0.6024096385542169
 40
0.608433734939759
 40
0.608433734939759
 40
0.608433734939759
 40
0.608433734939759
 40
0.6144578313253012
 40
0.6144578313253012
 40
0.6144578313253012
 40
0.6144578313253012
 40
0.6204819277108434
 40
0.6204819277108434
 40
0.6204819277108434
 40
0.6204819277108434
 40
0.6265060240963856
 40
0.6265060240963856
 40
0.6265060240963856
 40
0.6265060240963856
 40
0.6325301204819277
 40
0.6325301204819277
 40
0.6325301204819277
 40
0.6325301204819277
 40
0.6385542168674698
 40
0.6385542168674698
 40
0.6385542168674698
 40
0.6385542168674698
 40
0.6445783132530121
 40
0.6445783132530121
 40
0.6445783132530121
 40
0.6445783132530121
 40
0.6506024096385542
 40
0.6506024096385542
 40
0.6506024096385542
 40
0.6506024096385542
 40
0.6566265060240963
 40
0.6566265060240963
 40
0.6566265060240963
 40
0.6566265060240963
 40
0.6626506024096386
 40
0.6626506024096386
 40
0.6626506024096386
 40
0.6626506024096386
 40
0.6686746987951807
 40
0.6686746987951807
 40
0.6686746987951807
 40
0.6686746987951807
 40
0.6746987951807228
 40
0.6746987951807228
 40
0.6746987951807228
 40
0.6746987951807228
 40
0.6807228915662651
 40
0.6807228915662651
 40
0.6807228915662651
 40
0.6807228915662651
 40
0.6867469879518072
 40
0.6867469879518072
 40
0.6867469879518072
 40
0.6867469879518072
 40
0.6927710843373494
 40
0.6927710843373494
 40
0.6927710843373494
 40
0.6927710843373494
 40
0.6987951807228916
 40
0.6987951807228916
 40
0.6987951807228916
 40
0.6987951807228916
 40
0.7048192771084337
 40
0.7048192771084337
 40
0.7048192771084337
 40
0.7048192771084337
 40
0.7108433734939759
 40
0.7108433734939759
 40
0.7108433734939759
 40
0.7108433734939759
 40
0.7168674698795181
 40
0.7168674698795181
 40
0.7168674698795181
 40
0.7168674698795181
 40
0.7228915662650602
 40
0.7228915662650602
 40
0.7228915662650602
 40
0.7228915662650602
 40
0.7289156626506024
 40
0.7289156626506024
 40
0.7289156626506024
 40
0.7289156626506024
 40
0.7349397590361446
 40
0.7349397590361446
 40
0.7349397590361446
 40
0.7349397590361446
 40
0.7409638554216867
 40
0.7409638554216867
 40
0.7409638554216867
 40
0.7409638554216867
 40
0.7469879518072289
 40
0.7469879518072289
 40
0.7469879518072289
 40
0.7469879518072289
 40
0.7530120481927711
 40
0.7530120481927711
 40
0.7530120481927711
 40
0.7530120481927711
 40
0.7590361445783133
 40
0.7590361445783133
 40
0.7590361445783133
 40
0.7590361445783133
 40
0.7650602409638554
 40
0.7650602409638554
 40
0.7650602409638554
 40
0.7650602409638554
 40
0.7710843373493976
 40
0.7710843373493976
 40
0.7710843373493976
 40
0.7710843373493976
 40
0.7771084337349398
 40
0.7771084337349398
 40
0.7771084337349398
 40
0.7771084337349398
 40
0.7831325301204819
 40
0.7831325301204819
 40
0.7831325301204819
 40
0.7831325301204819
 40
0.7891566265060241
 40
0.7891566265060241
 40
0.7891566265060241
 40
0.7891566265060241
 40
0.7951807228915663
 40
0.7951807228915663
 40
0.7951807228915663
 40
0.7951807228915663
 40
0.8012048192771084
 40
0.8012048192771084
 40
0.8012048192771084
 40
0.8012048192771084
 40
0.8072289156626506
 40
0.8072289156626506
 40
0.8072289156626506
 40
0.8072289156626506
 40
0.8132530120481928
 40
0.8132530120481928
 40
0.8132530120481928
 40
0.8132530120481928
 40
0.8192771084337349
 40
0.8192771084337349
 40
0.8192771084337349
 40
0.8192771084337349
 40
0.8253012048192772
 40
0.8253012048192772
 40
0.8253012048192772
 40
0.8253012048192772
 40
0.8313253012048193
 40
0.8313253012048193
 40
0.8313253012048193
 40
0.8313253012048193
 40
0.8373493975903614
 40
0.8373493975903614
 40
0.8373493975903614
 40
0.8373493975903614
 40
0.8433734939759037
 40
0.8433734939759037
 40
0.8433734939759037
 40
0.8433734939759037
 40
0.8493975903614458
 40
0.8493975903614458
 40
0.8493975903614458
 40
0.8493975903614458
 40
0.8554216867469879
 40
0.8554216867469879
 40
0.8554216867469879
 40
0.8554216867469879
 40
0.8614457831325302
 40
0.8614457831325302
 40
0.8614457831325302
 40
0.8614457831325302
 40
0.8674698795180723
 40
0.8674698795180723
 40
0.8674698795180723
 40
0.8674698795180723
 40
0.8734939759036144
 40
0.8734939759036144
 40
0.8734939759036144
 40
0.8734939759036144
 40
0.8795180722891566
 40
0.8795180722891566
 40
0.8795180722891566
 40
0.8795180722891566
 40
0.8855421686746988
 40
0.8855421686746988
 40
0.8855421686746988
 40
0.8855421686746988
 40
0.891566265060241
 40
0.891566265060241
 40
0.891566265060241
 40
0.891566265060241
 40
0.8975903614457831
 40
0.8975903614457831
 40
0.8975903614457831
 40
0.8975903614457831
 40
0.9036144578313253
 40
0.9036144578313253
 40
0.9036144578313253
 40
0.9036144578313253
 40
0.9096385542168675
 40
0.9096385542168675
 40
0.9096385542168675
 40
0.9096385542168675
 40
0.9156626506024096
 40
0.9156626506024096
 40
0.9156626506024096
 40
0.9156626506024096
 40
0.9216867469879518
 40
0.9216867469879518
 40
0.9216867469879518
 40
0.9216867469879518
 40
0.927710843373494
 40
0.927710843373494
 40
0.927710843373494
 40
0.927710843373494
 40
0.9337349397590361
 40
0.9337349397590361
 40
0.9337349397590361
 40
0.9337349397590361
 40
0.9397590361445783
 40
0.9397590361445783
 40
0.9397590361445783
 40
0.9397590361445783
 40
0.9457831325301205
 40
0.9457831325301205
 40
0.9457831325301205
 40
0.9457831325301205
 40
0.9518072289156626
 40
0.9518072289156626
 40
0.9518072289156626
 40
0.9518072289156626
 40
0.9578313253012049
 40
0.9578313253012049
 40
0.9578313253012049
 40
0.9578313253012049
 40
0.963855421686747
 40
0.963855421686747
 40
0.963855421686747
 40
0.963855421686747
 40
0.9698795180722891
 40
0.9698795180722891
 40
0.9698795180722891
 40
0.9698795180722891
 40
0.9759036144578314
 40
0.9759036144578314
 40
0.9759036144578314
 40
0.9759036144578314
 40
0.9819277108433735
 40
0.9819277108433735
 40
0.9819277108433735
 40
0.9819277108433735
 40
0.9879518072289156
 40
0.9879518072289156
 40
0.9879518072289156
 40
0.9879518072289156
 40
1.0
 40
1.0
 40
1.0
 40
1.0
 10
-5.20367
 20
-3.4516
 30
0.0
 10
-5.11578
 20
-3.38593
 30
0.0
 10
-3.98262
 20
-2.43171
 30
0.0
 10
-3.89184
 20
-2.36062
 30
0.0
 10
-3.89184
 20
-2.36062
 30
0.0
 10
-3.86131
 20
-2.3366
 30
0.0
 10
-3.66594
 20
-2.17385
 30
0.0
 10
-3.48557
 20
-2.021
 30
0.0
 10
-3.48557
 20
-2.021
 30
0.0
 10
-3.13021
 20
-1.71988
 30
0.0
 10
-2.68632
 20
-1.3384
 30
0.0
 10
-2.64496
 20
-1.30202
 30
0.0
 10
-2.64496
 20
-1.30202
 30
0.0
 10
-2.61559
 20
-1.27628
 30
0.0
 10
-2.3966
 20
-1.08445
 30
0.0
 10
-2.14604
 20
-0.87279
 30
0.0
 10
-2.14604
 20
-0.87279
 30
0.0
 10
-1.86092
 20
-0.63197
 30
0.0
 10
-1.53919
 20
-0.3672
 30
0.0
 10
-1.48331
 20
-0.32037
 30
0.0
 10
-1.48331
 20
-0.32037
 30
0.0
 10
-1.37824
 20
-0.23269
 30
0.0
 10
-0.31319
 20
0.66676
 30
0.0
 10
-0.25911
 20
0.71894
 30
0.0
 10
-0.25911
 20
0.71894
 30
0.0
 10
-0.2276
 20
0.74937
 30
0.0
 10
0.12221
 20
1.04305
 30
0.0
 10
0.36393
 20
1.3038
 30
0.0
 10
0.36393
 20
1.3038
 30
0.0
 10
0.53625
 20
1.48967
 30
0.0
 10
0.6278
 20
1.67178
 30
0.0
 10
0.6278
 20
1.67178
 30
0.0
 10
0.6278
 20
1.67178
 30
0.0
 10
0.6278
 20
1.67178
 30
0.0
 10
0.54454
 20
1.71239
 30
0.0
 10
0.54454
 20
1.71239
 30
0.0
 10
0.54454
 20
1.71239
 30
0.0
 10
0.54454
 20
1.71239
 30
0.0
 10
0.54338
 20
1.64521
 30
0.0
 10
0.52893
 20
1.62026
 30
0.0
 10
0.52893
 20
1.62026
 30
0.0
 10
0.52253
 20
1.60909
 30
0.0
 10
0.48207
 20
1.55028
 30
0.0
 10
0.4435
 20
1.54141
 30
0.0
 10
0.4435
 20
1.54141
 30
0.0
 10
0.39582
 20
1.53046
 30
0.0
 10
0.34899
 20
1.5703
 30
0.0
 10
0.34899
 20
1.5703
 30
0.0
 10
0.34899
 20
1.5703
 30
0.0
 10
0.34899
 20
1.5703
 30
0.0
 10
0.33605
 20
1.49598
 30
0.0
 10
0.30562
 20
1.44999
 30
0.0
 10
0.30562
 20
1.44999
 30
0.0
 10
0.27869
 20
1.40922
 30
0.0
 10
0.21995
 20
1.39345
 30
0.0
 10
0.21995
 20
1.39345
 30
0.0
 10
0.21995
 20
1.39345
 30
0.0
 10
0.21995
 20
1.39345
 30
0.0
 10
0.1396
 20
1.43687
 30
0.0
 10
0.1396
 20
1.43687
 30
0.0
 10
0.1396
 20
1.43687
 30
0.0
 10
0.1396
 20
1.43687
 30
0.0
 10
0.12706
 20
1.35863
 30
0.0
 10
0.10983
 20
1.33381
 30
0.0
 10
0.10983
 20
1.33381
 30
0.0
 10
0.09258
 20
1.30886
 30
0.0
 10
0.03569
 20
1.25388
 30
0.0
 10
0.01611
 20
1.25422
 30
0.0
 10
0.01611
 20
1.25422
 30
0.0
 10
-0.00344
 20
1.25454
 30
0.0
 10
-0.07274
 20
1.29499
 30
0.0
 10
-0.07274
 20
1.29499
 30
0.0
 10
-0.07274
 20
1.29499
 30
0.0
 10
-0.07274
 20
1.29499
 30
0.0
 10
-0.08843
 20
1.20011
 30
0.0
 10
-0.11126
 20
1.17251
 30
0.0
 10
-0.11126
 20
1.17251
 30
0.0
 10
-0.13409
 20
1.14486
 30
0.0
 10
-0.15658
 20
1.12989
 30
0.0
 10
-0.1764
 20
1.12605
 30
0.0
 10
-0.1764
 20
1.12605
 30
0.0
 10
-0.21572
 20
1.1183
 30
0.0
 10
-0.27652
 20
1.16412
 30
0.0
 10
-0.27652
 20
1.16412
 30
0.0
 10
-0.27652
 20
1.16412
 30
0.0
 10
-0.27652
 20
1.16412
 30
0.0
 10
-0.2938
 20
1.13369
 30
0.0
 10
-0.32769
 20
1.12025
 30
0.0
 10
-0.32769
 20
1.12025
 30
0.0
 10
-0.36148
 20
1.10686
 30
0.0
 10
-0.39529
 20
1.09347
 30
0.0
 10
-0.41775
 20
1.08548
 30
0.0
 10
-0.41775
 20
1.08548
 30
0.0
 10
-0.44032
 20
1.07752
 30
0.0
 10
-0.43733
 20
1.0858
 30
0.0
 10
-0.45725
 20
1.06937
 30
0.0
 10
-0.45725
 20
1.06937
 30
0.0
 10
-0.46805
 20
1.06027
 30
0.0
 10
-0.58891
 20
1.02111
 30
0.0
 10
-0.71559
 20
1.02714
 30
0.0
 10
-0.71559
 20
1.02714
 30
0.0
 10
-0.82007
 20
1.03214
 30
0.0
 10
-0.93014
 20
1.07958
 30
0.0
 10
-0.97157
 20
1.09789
 30
0.0
 10
-0.97157
 20
1.09789
 30
0.0
 10
-1.0256
 20
1.12197
 30
0.0
 10
-1.18649
 20
1.20968
 30
0.0
 10
-1.27595
 20
1.32734
 30
0.0
 10
-1.27595
 20
1.32734
 30
0.0
 10
-1.33834
 20
1.40955
 30
0.0
 10
-1.34405
 20
1.5248
 30
0.0
 10
-1.34681
 20
1.56629
 30
0.0
 10
-1.34681
 20
1.56629
 30
0.0
 10
-1.35345
 20
1.66712
 30
0.0
 10
-1.28918
 20
1.82275
 30
0.0
 10
-1.24677
 20
1.84717
 30
0.0
 10
-1.24677
 20
1.84717
 30
0.0
 10
-1.20433
 20
1.87167
 30
0.0
 10
-1.16763
 20
1.89069
 30
0.0
 10
-1.16763
 20
1.89069
 30
0.0
 10
-1.16763
 20
1.89069
 30
0.0
 10
-1.16763
 20
1.89069
 30
0.0
 10
-1.16967
 20
1.93543
 30
0.0
 10
-1.14408
 20
1.95739
 30
0.0
 10
-1.14408
 20
1.95739
 30
0.0
 10
-1.11855
 20
1.97935
 30
0.0
 10
-1.10749
 20
1.9735
 30
0.0
 10
-1.08709
 20
2.0179
 30
0.0
 10
-1.08709
 20
2.0179
 30
0.0
 10
-1.06669
 20
2.0624
 30
0.0
 10
-1.06833
 20
2.12958
 30
0.0
 10
-1.02637
 20
2.12884
 30
0.0
 10
-1.02637
 20
2.12884
 30
0.0
 10
-0.98443
 20
2.12813
 30
0.0
 10
-0.95115
 20
2.11069
 30
0.0
 10
-0.95115
 20
2.11069
 30
0.0
 10
-0.95115
 20
2.11069
 30
0.0
 10
-0.95115
 20
2.11069
 30
0.0
 10
-0.92279
 20
2.22499
 30
0.0
 10
-0.86754
 20
2.25476
 30
0.0
 10
-0.86754
 20
2.25476
 30
0.0
 10
-0.8223
 20
2.27921
 30
0.0
 10
-0.81394
 20
2.27627
 30
0.0
 10
-0.78343
 20
2.26169
 30
0.0
 10
-0.78343
 20
2.26169
 30
0.0
 10
-0.7529
 20
2.24711
 30
0.0
 10
-0.73607
 20
2.2497
 30
0.0
 10
-0.73607
 20
2.2497
 30
0.0
 10
-0.73607
 20
2.2497
 30
0.0
 10
-0.73607
 20
2.2497
 30
0.0
 10
-0.72559
 20
2.36985
 30
0.0
 10
-0.66924
 20
2.39125
 30
0.0
 10
-0.66924
 20
2.39125
 30
0.0
 10
-0.61289
 20
2.41265
 30
0.0
 10
-0.59608
 20
2.41239
 30
0.0
 10
-0.56835
 20
2.4007
 30
0.0
 10
-0.56835
 20
2.4007
 30
0.0
 10
-0.54054
 20
2.38898
 30
0.0
 10
-0.54911
 20
2.38075
 30
0.0
 10
-0.53176
 20
2.41123
 30
0.0
 10
-0.53176
 20
2.41123
 30
0.0
 10
-0.51446
 20
2.44176
 30
0.0
 10
-0.50808
 20
2.48642
 30
0.0
 10
-0.47392
 20
2.51659
 30
0.0
 10
-0.47392
 20
2.51659
 30
0.0
 10
-0.43984
 20
2.54675
 30
0.0
 10
-0.43116
 20
2.56062
 30
0.0
 10
-0.39505
 20
2.54871
 30
0.0
 10
-0.39505
 20
2.54871
 30
0.0
 10
-0.35885
 20
2.53694
 30
0.0
 10
-0.33385
 20
2.52532
 30
0.0
 10
-0.33385
 20
2.52532
 30
0.0
 10
-0.33385
 20
2.52532
 30
0.0
 10
-0.33385
 20
2.52532
 30
0.0
 10
-0.30414
 20
2.62832
 30
0.0
 10
-0.27003
 20
2.65571
 30
0.0
 10
-0.27003
 20
2.65571
 30
0.0
 10
-0.23595
 20
2.68309
 30
0.0
 10
-0.205
 20
2.69376
 30
0.0
 10
-0.17441
 20
2.68204
 30
0.0
 10
-0.17441
 20
2.68204
 30
0.0
 10
-0.1439
 20
2.67029
 30
0.0
 10
-0.1271
 20
2.66725
 30
0.0
 10
-0.1271
 20
2.66725
 30
0.0
 10
-0.1271
 20
2.66725
 30
0.0
 10
-0.1271
 20
2.66725
 30
0.0
 10
-0.11736
 20
2.74543
 30
0.0
 10
-0.06627
 20
2.78647
 30
0.0
 10
-0.06627
 20
2.78647
 30
0.0
 10
-0.01521
 20
2.82761
 30
0.0
 10
-0.00949
 20
2.83029
 30
0.0
 10
0.01829
 20
2.82142
 30
0.0
 10
0.01829
 20
2.82142
 30
0.0
 10
0.0461
 20
2.8125
 30
0.0
 10
0.07398
 20
2.80647
 30
0.0
 10
0.07398
 20
2.80647
 30
0.0
 10
0.07398
 20
2.80647
 30
0.0
 10
0.07398
 20
2.80647
 30
0.0
 10
0.10062
 20
2.88717
 30
0.0
 10
0.12917
 20
2.92027
 30
0.0
 10
0.12917
 20
2.92027
 30
0.0
 10
0.15764
 20
2.95329
 30
0.0
 10
0.18021
 20
2.9585
 30
0.0
 10
0.21093
 20
2.95797
 30
0.0
 10
0.21093
 20
2.95797
 30
0.0
 10
0.24175
 20
2.95744
 30
0.0
 10
0.2611
 20
2.94868
 30
0.0
 10
0.2611
 20
2.94868
 30
0.0
 10
0.2611
 20
2.94868
 30
0.0
 10
0.2611
 20
2.94868
 30
0.0
 10
0.25623
 20
3.04941
 30
0.0
 10
0.25906
 20
3.13085
 30
0.0
 10
0.25906
 20
3.13085
 30
0.0
 10
0.26115
 20
3.18972
 30
0.0
 10
0.26562
 20
3.22795
 30
0.0
 10
0.28613
 20
3.26174
 30
0.0
 10
0.28613
 20
3.26174
 30
0.0
 10
0.3078
 20
3.29717
 30
0.0
 10
0.34937
 20
3.34474
 30
0.0
 10
0.4226
 20
3.4052
 30
0.0
 10
0.4226
 20
3.4052
 30
0.0
 10
0.51526
 20
3.48169
 30
0.0
 10
0.64347
 20
3.57072
 30
0.0
 10
0.67813
 20
3.59356
 30
0.0
 10
0.67813
 20
3.59356
 30
0.0
 10
0.71618
 20
3.61859
 30
0.0
 10
0.76155
 20
3.65587
 30
0.0
 10
0.82098
 20
3.69408
 30
0.0
 10
0.82098
 20
3.69408
 30
0.0
 10
0.85903
 20
3.71842
 30
0.0
 10
0.91266
 20
3.74808
 30
0.0
 10
0.94121
 20
3.75964
 30
0.0
 10
0.94121
 20
3.75964
 30
0.0
 10
1.01453
 20
3.78917
 30
0.0
 10
1.03977
 20
3.79158
 30
0.0
 10
1.03977
 20
3.79158
 30
0.0
 10
1.03977
 20
3.79158
 30
0.0
 10
1.03977
 20
3.79158
 30
0.0
 10
1.04541
 20
3.97547
 30
0.0
 10
1.18003
 20
4.19227
 30
0.0
 10
1.18003
 20
4.19227
 30
0.0
 10
1.28959
 20
4.36896
 30
0.0
 10
1.43414
 20
4.51496
 30
0.0
 10
1.4898
 20
4.56451
 30
0.0
 10
1.4898
 20
4.56451
 30
0.0
 10
1.5292
 20
4.59973
 30
0.0
 10
1.62492
 20
4.68286
 30
0.0
 10
1.7688
 20
4.77046
 30
0.0
 10
1.7688
 20
4.77046
 30
0.0
 10
1.86233
 20
4.82724
 30
0.0
 10
1.986
 20
4.88735
 30
0.0
 10
2.09466
 20
4.93252
 30
0.0
 10
2.09466
 20
4.93252
 30
0.0
 10
2.28778
 20
5.01274
 30
0.0
 10
2.51191
 20
5.03015
 30
0.0
 10
2.56969
 20
5.03266
 30
0.0
 10
2.56969
 20
5.03266
 30
0.0
 10
2.62359
 20
5.03486
 30
0.0
 10
2.74029
 20
5.02898
 30
0.0
 10
2.84586
 20
5.00387
 30
0.0
 10
2.84586
 20
5.00387
 30
0.0
 10
3.01461
 20
4.96365
 30
0.0
 10
3.17445
 20
4.89335
 30
0.0
 10
3.17445
 20
4.89335
 30
0.0
 10
3.17445
 20
4.89335
 30
0.0
 10
3.17445
 20
4.89335
 30
0.0
 10
3.4235
 20
5.05414
 30
0.0
 10
3.49727
 20
5.11163
 30
0.0
 10
3.49727
 20
5.11163
 30
0.0
 10
3.53894
 20
5.14415
 30
0.0
 10
3.76638
 20
5.30057
 30
0.0
 10
3.9849
 20
5.44072
 30
0.0
 10
3.9849
 20
5.44072
 30
0.0
 10
4.15378
 20
5.54883
 30
0.0
 10
4.32182
 20
5.64855
 30
0.0
 10
4.36606
 20
5.66739
 30
0.0
 10
4.36606
 20
5.66739
 30
0.0
 10
4.42088
 20
5.69057
 30
0.0
 10
4.58267
 20
5.77066
 30
0.0
 10
4.79418
 20
5.80698
 30
0.0
 10
4.79418
 20
5.80698
 30
0.0
 10
4.97378
 20
5.83778
 30
0.0
 10
5.20309
 20
5.82838
 30
0.0
 10
5.28652
 20
5.81923
 30
0.0
 10
5.28652
 20
5.81923
 30
0.0
 10
5.37733
 20
5.80923
 30
0.0
 10
5.5592
 20
5.77756
 30
0.0
 10
5.72083
 20
5.71144
 30
0.0
 10
5.72083
 20
5.71144
 30
0.0
 10
5.88281
 20
5.64527
 30
0.0
 10
6.02465
 20
5.54467
 30
0.0
 10
6.0814
 20
5.50866
 30
0.0
 10
6.0814
 20
5.50866
 30
0.0
 10
6.11857
 20
5.48511
 30
0.0
 10
6.26309
 20
5.40703
 30
0.0
 10
6.41821
 20
5.26755
 30
0.0
 10
6.41821
 20
5.26755
 30
0.0
 10
6.5255
 20
5.17122
 30
0.0
 10
6.63625
 20
5.0339
 30
0.0
 10
6.72701
 20
4.91285
 30
0.0
 10
6.72701
 20
4.91285
 30
0.0
 10
6.90513
 20
4.67555
 30
0.0
 10
6.96003
 20
4.38509
 30
0.0
 10
6.96003
 20
4.38509
 30
0.0
 10
6.96003
 20
4.38509
 30
0.0
 10
6.96003
 20
4.38509
 30
0.0
 10
6.99506
 20
4.2582
 30
0.0
 10
6.98593
 20
4.13519
 30
0.0
 10
6.98593
 20
4.13519
 30
0.0
 10
6.97977
 20
4.0528
 30
0.0
 10
6.93219
 20
3.9726
 30
0.0
 10
6.92137
 20
3.93241
 30
0.0
 10
6.92137
 20
3.93241
 30
0.0
 10
6.89444
 20
3.83211
 30
0.0
 10
6.8462
 20
3.63422
 30
0.0
 10
6.80913
 20
3.5929
 30
0.0
 10
6.80913
 20
3.5929
 30
0.0
 10
6.77204
 20
3.55155
 30
0.0
 10
6.67218
 20
3.4442
 30
0.0
 10
6.62464
 20
3.445
 30
0.0
 10
6.62464
 20
3.445
 30
0.0
 10
6.57709
 20
3.44582
 30
0.0
 10
6.48523
 20
3.47543
 30
0.0
 10
6.48523
 20
3.47543
 30
0.0
 10
6.48523
 20
3.47543
 30
0.0
 10
6.48523
 20
3.47543
 30
0.0
 10
6.49423
 20
3.51165
 30
0.0
 10
6.48052
 20
3.52586
 30
0.0
 10
6.48052
 20
3.52586
 30
0.0
 10
6.46676
 20
3.54009
 30
0.0
 10
6.43591
 20
3.53782
 30
0.0
 10
6.40797
 20
3.53837
 30
0.0
 10
6.40797
 20
3.53837
 30
0.0
 10
6.37998
 20
3.53885
 30
0.0
 10
6.36066
 20
3.55036
 30
0.0
 10
6.36066
 20
3.55036
 30
0.0
 10
6.36066
 20
3.55036
 30
0.0
 10
6.36066
 20
3.55036
 30
0.0
 10
6.35063
 20
3.61772
 30
0.0
 10
6.35063
 20
3.61772
 30
0.0
 10
6.35063
 20
3.61772
 30
0.0
 10
6.35063
 20
3.61772
 30
0.0
 10
6.27499
 20
3.61619
 30
0.0
 10
6.25279
 20
3.625
 30
0.0
 10
6.25279
 20
3.625
 30
0.0
 10
6.23059
 20
3.63381
 30
0.0
 10
6.22802
 20
3.65059
 30
0.0
 10
6.22279
 20
3.66747
 30
0.0
 10
6.22279
 20
3.66747
 30
0.0
 10
6.21742
 20
3.68438
 30
0.0
 10
6.1813
 20
3.69898
 30
0.0
 10
6.15617
 20
3.70221
 30
0.0
 10
6.15617
 20
3.70221
 30
0.0
 10
6.13106
 20
3.70549
 30
0.0
 10
6.09177
 20
3.69779
 30
0.0
 10
6.08939
 20
3.72295
 30
0.0
 10
6.08939
 20
3.72295
 30
0.0
 10
6.08701
 20
3.74824
 30
0.0
 10
6.08196
 20
3.77634
 30
0.0
 10
6.08196
 20
3.77634
 30
0.0
 10
6.08196
 20
3.77634
 30
0.0
 10
6.08196
 20
3.77634
 30
0.0
 10
5.99547
 20
3.79184
 30
0.0
 10
5.97316
 20
3.7978
 30
0.0
 10
5.97316
 20
3.7978
 30
0.0
 10
5.95091
 20
3.80381
 30
0.0
 10
5.96583
 20
3.85392
 30
0.0
 10
5.96583
 20
3.85392
 30
0.0
 10
5.96583
 20
3.85392
 30
0.0
 10
5.96583
 20
3.85392
 30
0.0
 10
5.89323
 20
3.86352
 30
0.0
 10
5.87656
 20
3.87226
 30
0.0
 10
5.87656
 20
3.87226
 30
0.0
 10
5.85994
 20
3.88094
 30
0.0
 10
5.83214
 20
3.88985
 30
0.0
 10
5.83214
 20
3.88985
 30
0.0
 10
5.83214
 20
3.88985
 30
0.0
 10
5.83214
 20
3.88985
 30
0.0
 10
5.83558
 20
3.9289
 30
0.0
 10
5.83558
 20
3.9289
 30
0.0
 10
5.83558
 20
3.9289
 30
0.0
 10
5.83558
 20
3.9289
 30
0.0
 10
5.79671
 20
3.94919
 30
0.0
 10
5.77713
 20
3.94951
 30
0.0
 10
5.77713
 20
3.94951
 30
0.0
 10
5.75758
 20
3.94988
 30
0.0
 10
5.70757
 20
3.96761
 30
0.0
 10
5.70757
 20
3.96761
 30
0.0
 10
5.70757
 20
3.96761
 30
0.0
 10
5.70757
 20
3.96761
 30
0.0
 10
5.70577
 20
4.02635
 30
0.0
 10
5.70577
 20
4.02635
 30
0.0
 10
5.70577
 20
4.02635
 30
0.0
 10
5.70577
 20
4.02635
 30
0.0
 10
5.68066
 20
4.03241
 30
0.0
 10
5.63322
 20
4.03603
 30
0.0
 10
5.63322
 20
4.03603
 30
0.0
 10
5.58567
 20
4.03963
 30
0.0
 10
5.58305
 20
4.04812
 30
0.0
 10
5.58305
 20
4.04812
 30
0.0
 10
5.58305
 20
4.04812
 30
0.0
 10
5.58305
 20
4.04812
 30
0.0
 10
5.57887
 20
4.12935
 30
0.0
 10
5.57887
 20
4.12935
 30
0.0
 10
5.57887
 20
4.12935
 30
0.0
 10
5.57887
 20
4.12935
 30
0.0
 10
5.54233
 20
4.12154
 30
0.0
 10
5.51156
 20
4.12213
 30
0.0
 10
5.51156
 20
4.12213
 30
0.0
 10
5.48079
 20
4.12269
 30
0.0
 10
5.45573
 20
4.1315
 30
0.0
 10
5.45573
 20
4.1315
 30
0.0
 10
5.45573
 20
4.1315
 30
0.0
 10
5.45573
 20
4.1315
 30
0.0
 10
5.43803
 20
4.19585
 30
0.0
 10
5.43803
 20
4.19585
 30
0.0
 10
5.43803
 20
4.19585
 30
0.0
 10
5.43803
 20
4.19585
 30
0.0
 10
5.41144
 20
4.19791
 30
0.0
 10
5.39189
 20
4.19828
 30
0.0
 10
5.39189
 20
4.19828
 30
0.0
 10
5.37231
 20
4.1986
 30
0.0
 10
5.31693
 20
4.1927
 30
0.0
 10
5.32008
 20
4.21228
 30
0.0
 10
5.32008
 20
4.21228
 30
0.0
 10
5.32008
 20
4.21228
 30
0.0
 10
5.3263
 20
4.2485
 30
0.0
 10
5.3263
 20
4.2485
 30
0.0
 10
5.3263
 20
4.2485
 30
0.0
 10
5.3263
 20
4.2485
 30
0.0
 10
5.2846
 20
4.26324
 30
0.0
 10
5.25949
 20
4.26924
 30
0.0
 10
5.25949
 20
4.26924
 30
0.0
 10
5.23443
 20
4.2753
 30
0.0
 10
5.18967
 20
4.27331
 30
0.0
 10
5.13437
 20
4.31345
 30
0.0
 10
5.13437
 20
4.31345
 30
0.0
 10
5.07912
 20
4.35359
 30
0.0
 10
4.86312
 20
4.48609
 30
0.0
 10
4.8051
 20
4.52628
 30
0.0
 10
4.8051
 20
4.52628
 30
0.0
 10
4.74708
 20
4.5665
 30
0.0
 10
4.75557
 20
4.57195
 30
0.0
 10
4.71342
 20
4.56427
 30
0.0
 10
4.71342
 20
4.56427
 30
0.0
 10
4.6713
 20
4.5566
 30
0.0
 10
4.57224
 20
4.49117
 30
0.0
 10
4.55517
 20
4.47468
 30
0.0
 10
4.55517
 20
4.47468
 30
0.0
 10
4.53808
 20
4.45817
 30
0.0
 10
4.55173
 20
4.43838
 30
0.0
 10
4.55139
 20
4.41877
 30
0.0
 10
4.55139
 20
4.41877
 30
0.0
 10
4.55102
 20
4.39919
 30
0.0
 10
4.57354
 20
4.40162
 30
0.0
 10
4.60976
 20
4.39538
 30
0.0
 10
4.60976
 20
4.39538
 30
0.0
 10
4.64601
 20
4.38914
 30
0.0
 10
4.66262
 20
4.37768
 30
0.0
 10
4.65948
 20
4.35813
 30
0.0
 10
4.65948
 20
4.35813
 30
0.0
 10
4.65633
 20
4.3386
 30
0.0
 10
4.65033
 20
4.3163
 30
0.0
 10
4.68099
 20
4.31016
 30
0.0
 10
4.68099
 20
4.31016
 30
0.0
 10
4.71176
 20
4.30407
 30
0.0
 10
4.76203
 20
4.30317
 30
0.0
 10
4.77587
 20
4.29177
 30
0.0
 10
4.77587
 20
4.29177
 30
0.0
 10
4.78963
 20
4.28034
 30
0.0
 10
4.76957
 20
4.24986
 30
0.0
 10
4.77201
 20
4.23301
 30
0.0
 10
4.77201
 20
4.23301
 30
0.0
 10
4.77452
 20
4.21621
 30
0.0
 10
4.79416
 20
4.2187
 30
0.0
 10
4.81926
 20
4.21542
 30
0.0
 10
4.81926
 20
4.21542
 30
0.0
 10
4.84437
 20
4.21217
 30
0.0
 10
4.8889
 20
4.1974
 30
0.0
 10
4.8889
 20
4.1974
 30
0.0
 10
4.8889
 20
4.1974
 30
0.0
 10
4.8889
 20
4.1974
 30
0.0
 10
4.88784
 20
4.13858
 30
0.0
 10
4.88784
 20
4.13858
 30
0.0
 10
4.88784
 20
4.13858
 30
0.0
 10
4.88784
 20
4.13858
 30
0.0
 10
4.9129
 20
4.1298
 30
0.0
 10
4.94642
 20
4.12363
 30
0.0
 10
4.94642
 20
4.12363
 30
0.0
 10
4.97994
 20
4.11746
 30
0.0
 10
5.00487
 20
4.10299
 30
0.0
 10
5.00487
 20
4.10299
 30
0.0
 10
5.00487
 20
4.10299
 30
0.0
 10
5.00487
 20
4.10299
 30
0.0
 10
5.00667
 20
4.04981
 30
0.0
 10
5.00667
 20
4.04981
 30
0.0
 10
5.00667
 20
4.04981
 30
0.0
 10
5.00667
 20
4.04981
 30
0.0
 10
5.02876
 20
4.03266
 30
0.0
 10
5.06512
 20
4.03198
 30
0.0
 10
5.06512
 20
4.03198
 30
0.0
 10
5.10147
 20
4.0314
 30
0.0
 10
5.12682
 20
4.03931
 30
0.0
 10
5.12351
 20
4.01142
 30
0.0
 10
5.12351
 20
4.01142
 30
0.0
 10
5.12023
 20
3.98348
 30
0.0
 10
5.11414
 20
3.95276
 30
0.0
 10
5.13079
 20
3.94691
 30
0.0
 10
5.13079
 20
3.94691
 30
0.0
 10
5.14746
 20
3.94101
 30
0.0
 10
5.20892
 20
3.93712
 30
0.0
 10
5.22564
 20
3.93127
 30
0.0
 10
5.22564
 20
3.93127
 30
0.0
 10
5.24239
 20
3.92532
 30
0.0
 10
5.23924
 20
3.90862
 30
0.0
 10
5.23887
 20
3.88624
 30
0.0
 10
5.23887
 20
3.88624
 30
0.0
 10
5.23845
 20
3.86386
 30
0.0
 10
5.24104
 20
3.84983
 30
0.0
 10
5.26615
 20
3.84655
 30
0.0
 10
5.26615
 20
3.84655
 30
0.0
 10
5.29131
 20
3.84335
 30
0.0
 10
5.31671
 20
3.85692
 30
0.0
 10
5.33322
 20
3.8398
 30
0.0
 10
5.33322
 20
3.8398
 30
0.0
 10
5.3497
 20
3.82276
 30
0.0
 10
5.34661
 20
3.80879
 30
0.0
 10
5.34912
 20
3.78916
 30
0.0
 10
5.34912
 20
3.78916
 30
0.0
 10
5.35158
 20
3.76953
 30
0.0
 10
5.37092
 20
3.75519
 30
0.0
 10
5.39889
 20
3.75471
 30
0.0
 10
5.39889
 20
3.75471
 30
0.0
 10
5.42688
 20
3.75423
 30
0.0
 10
5.44363
 20
3.75669
 30
0.0
 10
5.48245
 20
3.7336
 30
0.0
 10
5.48245
 20
3.7336
 30
0.0
 10
5.52121
 20
3.71055
 30
0.0
 10
5.54632
 20
3.70452
 30
0.0
 10
5.55407
 20
3.66801
 30
0.0
 10
5.55407
 20
3.66801
 30
0.0
 10
5.56182
 20
3.63155
 30
0.0
 10
5.56823
 20
3.51942
 30
0.0
 10
5.561
 20
3.42443
 30
0.0
 10
5.561
 20
3.42443
 30
0.0
 10
5.55372
 20
3.32944
 30
0.0
 10
5.53076
 20
2.81486
 30
0.0
 10
5.53076
 20
2.81486
 30
0.0
 10
5.53076
 20
2.81486
 30
0.0
 10
5.53076
 20
2.81486
 30
0.0
 10
5.53314
 20
2.79242
 30
0.0
 10
5.44567
 20
2.74919
 30
0.0
 10
5.44567
 20
2.74919
 30
0.0
 10
5.40209
 20
2.72752
 30
0.0
 10
5.27314
 20
2.635
 30
0.0
 10
5.156
 20
2.56843
 30
0.0
 10
5.156
 20
2.56843
 30
0.0
 10
5.03784
 20
2.50141
 30
0.0
 10
4.88308
 20
2.40793
 30
0.0
 10
4.84033
 20
2.37915
 30
0.0
 10
4.84033
 20
2.37915
 30
0.0
 10
4.80194
 20
2.35317
 30
0.0
 10
4.61652
 20
2.22106
 30
0.0
 10
4.40139
 20
2.08768
 30
0.0
 10
4.40139
 20
2.08768
 30
0.0
 10
4.14009
 20
1.92557
 30
0.0
 10
3.84174
 20
1.7574
 30
0.0
 10
3.79359
 20
1.72287
 30
0.0
 10
3.79359
 20
1.72287
 30
0.0
 10
3.75668
 20
1.69662
 30
0.0
 10
3.62076
 20
1.61222
 30
0.0
 10
3.48125
 20
1.51824
 30
0.0
 10
3.48125
 20
1.51824
 30
0.0
 10
3.28818
 20
1.38817
 30
0.0
 10
3.07556
 20
1.23749
 30
0.0
 10
2.99489
 20
1.17711
 30
0.0
 10
2.99489
 20
1.17711
 30
0.0
 10
2.85598
 20
1.07313
 30
0.0
 10
1.89449
 20
0.33711
 30
0.0
 10
1.78387
 20
0.25231
 30
0.0
 10
1.78387
 20
0.25231
 30
0.0
 10
1.72164
 20
0.2045
 30
0.0
 10
1.37353
 20
-0.07342
 30
0.0
 10
1.01131
 20
-0.35173
 30
0.0
 10
1.01131
 20
-0.35173
 30
0.0
 10
0.72916
 20
-0.56871
 30
0.0
 10
0.42637
 20
-0.78996
 30
0.0
 10
0.3231
 20
-0.87526
 30
0.0
 10
0.3231
 20
-0.87526
 30
0.0
 10
0.08746
 20
-1.06986
 30
0.0
 10
-0.93073
 20
-1.84972
 30
0.0
 10
-1.21156
 20
-2.06594
 30
0.0
 10
-1.21156
 20
-2.06594
 30
0.0
 10
-1.425
 20
-2.23033
 30
0.0
 10
-2.27444
 20
-2.88051
 30
0.0
 10
-2.7285
 20
-3.2236
 30
0.0
 10
-2.7285
 20
-3.2236
 30
0.0
 10
-2.87185
 20
-3.33203
 30
0.0
 10
-2.98499
 20
-3.41119
 30
0.0
 10
-3.0224
 20
-3.44085
 30
0.0
 10
-3.0224
 20
-3.44085
 30
0.0
 10
-3.11495
 20
-3.51393
 30
0.0
 10
-3.70659
 20
-3.95131
 30
0.0
 10
-4.17876
 20
-4.3212
 30
0.0
 10
-4.17876
 20
-4.3212
 30
0.0
 10
-4.5024
 20
-4.57483
 30
0.0
 10
-4.73179
 20
-4.77446
 30
0.0
 10
-4.7769
 20
-4.81351
 30
0.0
 10
-4.7769
 20
-4.81351
 30
0.0
 10
-4.8417
 20
-4.86979
 30
0.0
 10
-5.10469
 20
-5.10839
 30
0.0
 10
-5.34909
 20
-5.33199
 30
0.0
 10
-5.34909
 20
-5.33199
 30
0.0
 10
-5.52221
 20
-5.49026
 30
0.0
 10
-5.69429
 20
-5.64938
 30
0.0
 10
-5.74906
 20
-5.68375
 30
0.0
 10
-5.74906
 20
-5.68375
 30
0.0
 10
-5.88458
 20
-5.76974
 30
0.0
 10
-6.04611
 20
-5.83649
 30
0.0
 10
-6.26074
 20
-5.82731
 30
0.0
 10
-6.26074
 20
-5.82731
 30
0.0
 10
-6.48511
 20
-5.81786
 30
0.0
 10
-6.69479
 20
-5.67703
 30
0.0
 10
-6.75527
 20
-5.6158
 30
0.0
 10
-6.75527
 20
-5.6158
 30
0.0
 10
-6.78639
 20
-5.58434
 30
0.0
 10
-6.83946
 20
-5.51838
 30
0.0
 10
-6.87677
 20
-5.45205
 30
0.0
 10
-6.87677
 20
-5.45205
 30
0.0
 10
-6.92289
 20
-5.3699
 30
0.0
 10
-6.95255
 20
-5.28544
 30
0.0
 10
-6.97496
 20
-5.2071
 30
0.0
 10
-6.97496
 20
-5.2071
 30
0.0
 10
-7.00301
 20
-5.10844
 30
0.0
 10
-6.9762
 20
-5.05533
 30
0.0
 10
-6.96874
 20
-5.01874
 30
0.0
 10
-6.96874
 20
-5.01874
 30
0.0
 10
-6.95038
 20
-4.92955
 30
0.0
 10
-6.86812
 20
-4.70714
 30
0.0
 10
-6.81383
 20
-4.64089
 30
0.0
 10
-6.81383
 20
-4.64089
 30
0.0
 10
-6.79205
 20
-4.61411
 30
0.0
 10
-6.74115
 20
-4.55397
 30
0.0
 10
-6.65262
 20
-4.4824
 30
0.0
 10
-6.65262
 20
-4.4824
 30
0.0
 10
-6.52133
 20
-4.37625
 30
0.0
 10
-6.33782
 20
-4.2511
 30
0.0
 10
-6.28887
 20
-4.22184
 30
0.0
 10
-6.28887
 20
-4.22184
 30
0.0
 10
-6.25543
 20
-4.20178
 30
0.0
 10
-6.11218
 20
-4.11193
 30
0.0
 10
-5.95999
 20
-4.00888
 30
0.0
 10
-5.95999
 20
-4.00888
 30
0.0
 10
-5.73912
 20
-3.85952
 30
0.0
 10
-5.4903
 20
-3.68233
 30
0.0
 10
-5.45342
 20
-3.65143
 30
0.0
 10
-5.45342
 20
-3.65143
 30
0.0
 10
-5.39094
 20
-3.59934
 30
0.0
 10
-5.29151
 20
-3.51716
 30
0.0
 10
-5.20367
 20
-3.4516
 30
0.0
  0
SPLINE
  5
42
330
1F
100
AcDbEntity
  8
Camada 1
 62
     7
100
AcDbSpline
210
0.0
220
0.0
230
1.0
 70
    11
 71
     3
 72
    48
 73
    44
 74
     0
 42
0.0000000001
 43
0.0000000001
 12
1.0
 22
0.0
 32
0.0
 13
1.0
 23
0.0
 33
0.0
 40
0.0
 40
0.0
 40
0.0
 40
0.0
 40
0.0833333333333333
 40
0.0833333333333333
 40
0.0833333333333333
 40
0.0833333333333333
 40
0.1666666666666667
 40
0.1666666666666667
 40
0.1666666666666667
 40
0.1666666666666667
 40
0.25
 40
0.25
 40
0.25
 40
0.25
 40
0.3333333333333333
 40
0.3333333333333333
 40
0.3333333333333333
 40
0.3333333333333333
 40
0.4166666666666667
 40
0.4166666666666667
 40
0.4166666666666667
 40
0.4166666666666667
 40
0.5
 40
0.5
 40
0.5
 40
0.5
 40
0.5833333333333334
 40
0.5833333333333334
 40
0.5833333333333334
 40
0.5833333333333334
 40
0.6666666666666666
 40
0.6666666666666666
 40
0.6666666666666666
 40
0.6666666666666666
 40
0.75
 40
0.75
 40
0.75
 40
0.75
 40
0.8333333333333334
 40
0.8333333333333334
 40
0.8333333333333334
 40
0.8333333333333334
 40
1.0
 40
1.0
 40
1.0
 40
1.0
 10
-6.25454
 20
-4.98086
 30
0.0
 10
-6.20924
 20
-4.95088
 30
0.0
 10
-5.02023
 20
-4.0033
 30
0.0
 10
-4.99195
 20
-3.98698
 30
0.0
 10
-4.99195
 20
-3.98698
 30
0.0
 10
-4.96369
 20
-3.97071
 30
0.0
 10
-4.92729
 20
-3.96859
 30
0.0
 10
-4.87723
 20
-3.98899
 30
0.0
 10
-4.87723
 20
-3.98899
 30
0.0
 10
-4.8272
 20
-4.0095
 30
0.0
 10
-4.81061
 20
-4.01815
 30
0.0
 10
-4.79995
 20
-4.04908
 30
0.0
 10
-4.79995
 20
-4.04908
 30
0.0
 10
-4.78934
 20
-4.08009
 30
0.0
 10
-4.78947
 20
-4.09131
 30
0.0
 10
-4.80381
 20
-4.10784
 30
0.0
 10
-4.80381
 20
-4.10784
 30
0.0
 10
-4.81802
 20
-4.12438
 30
0.0
 10
-5.425
 20
-4.58951
 30
0.0
 10
-5.45064
 20
-4.61428
 30
0.0
 10
-5.45064
 20
-4.61428
 30
0.0
 10
-5.47628
 20
-4.6391
 30
0.0
 10
-5.81693
 20
-4.91855
 30
0.0
 10
-5.86805
 20
-4.96247
 30
0.0
 10
-5.86805
 20
-4.96247
 30
0.0
 10
-5.91919
 20
-5.00629
 30
0.0
 10
-5.99537
 20
-5.04137
 30
0.0
 10
-6.05458
 20
-5.0683
 30
0.0
 10
-6.05458
 20
-5.0683
 30
0.0
 10
-6.11379
 20
-5.09529
 30
0.0
 10
-6.20071
 20
-5.105
 30
0.0
 10
-6.26495
 20
-5.09542
 30
0.0
 10
-6.26495
 20
-5.09542
 30
0.0
 10
-6.32072
 20
-5.08711
 30
0.0
 10
-6.35382
 20
-5.06028
 30
0.0
 10
-6.35382
 20
-5.06028
 30
0.0
 10
-6.35382
 20
-5.06028
 30
0.0
 10
-6.35382
 20
-5.06028
 30
0.0
 10
-6.31408
 20
-5.02737
 30
0.0
 10
-6.31408
 20
-5.02737
 30
0.0
 10
-6.31408
 20
-5.02737
 30
0.0
 10
-6.3141
 20
-5.02737
 30
0.0
 10
-6.29983
 20
-5.01089
 30
0.0
 10
-6.25454
 20
-4.98086
 30
0.0
  0
ENDSEC
  0
SECTION
  2
OBJECTS
  0
DICTIONARY
  5
C
330
0
100
AcDbDictionary
281
     1
  3
ACAD_GROUP
350
D
  3
ACAD_LAYOUT
350
1A
  3
ACAD_MATERIAL
350
3B
  3
ACAD_MLEADERSTYLE
350
64
  3
ACAD_MLINESTYLE
350
17
  3
ACAD_PLOTSETTINGS
350
19
  3
ACAD_PLOTSTYLENAME
350
E
  3
ACAD_TABLESTYLE
350
63
  3
ACAD_VISUALSTYLE
350
2A
  0
DICTIONARY
  5
D
102
{ACAD_REACTORS
330
C
102
}
330
C
100
AcDbDictionary
281
     1
  0
DICTIONARY
  5
1A
102
{ACAD_REACTORS
330
C
102
}
330
C
100
AcDbDictionary
281
     1
  3
Layout1
350
1E
  3
Layout2
350
26
  3
Model
350
22
  0
DICTIONARY
  5
3B
102
{ACAD_REACTORS
330
C
102
}
330
C
100
AcDbDictionary
281
     1
  3
ByBlock
350
3D
  3
ByLayer
350
3C
  3
Global
350
3E
  0
DICTIONARY
  5
64
102
{ACAD_REACTORS
330
C
102
}
330
C
100
AcDbDictionary
281
     1
  0
DICTIONARY
  5
17
102
{ACAD_REACTORS
330
C
102
}
330
C
100
AcDbDictionary
281
     1
  3
Standard
350
18
  0
DICTIONARY
  5
19
102
{ACAD_REACTORS
330
C
102
}
330
C
100
AcDbDictionary
281
     1
  0
ACDBDICTIONARYWDFLT
  5
E
102
{ACAD_REACTORS
330
C
102
}
330
C
100
AcDbDictionary
281
     1
  3
Normal
350
F
100
AcDbDictionaryWithDefault
340
F
  0
DICTIONARY
  5
63
102
{ACAD_REACTORS
330
C
102
}
330
C
100
AcDbDictionary
281
     1
  0
DICTIONARY
  5
2A
102
{ACAD_REACTORS
330
C
102
}
330
C
100
AcDbDictionary
281
     1
  3
2dWireframe
350
2F
  3
3D Hidden
350
31
  3
3dWireframe
350
30
  3
Basic
350
32
  3
Brighten
350
36
  3
ColorChange
350
3A
  3
Conceptual
350
34
  3
Dim
350
35
  3
Facepattern
350
39
  3
Flat
350
2B
  3
FlatWithEdges
350
2C
  3
Gouraud
350
2D
  3
GouraudWithEdges
350
2E
  3
Linepattern
350
38
  3
Realistic
350
33
  3
Thicken
350
37
  0
LAYOUT
  5
1E
102
{ACAD_REACTORS
330
1A
102
}
330
1A
100
AcDbPlotSettings
  1

  2
none_device
  4

  6

 40
0.0
 41
0.0
 42
0.0
 43
0.0
 44
0.0
 45
0.0
 46
0.0
 47
0.0
 48
0.0
 49
0.0
140
0.0
141
0.0
142
1.0
143
1.0
 70
   688
 72
     0
 73
     0
 74
     5
  7

 75
    16
 76
     0
 77
     2
 78
   300
147
1.0
148
0.0
149
0.0
100
AcDbLayout
  1
Layout1
 70
     1
 71
     1
 10
0.0
 20
0.0
 11
12.0
 21
9.0
 12
0.0
 22
0.0
 32
0.0
 14
1.000000000000000E+20
 24
1.000000000000000E+20
 34
1.000000000000000E+20
 15
-1.000000000000000E+20
 25
-1.000000000000000E+20
 35
-1.000000000000000E+20
146
0.0
 13
0.0
 23
0.0
 33
0.0
 16
1.0
 26
0.0
 36
0.0
 17
0.0
 27
1.0
 37
0.0
 76
     0
330
1B
  0
LAYOUT
  5
26
102
{ACAD_REACTORS
330
1A
102
}
330
1A
100
AcDbPlotSettings
  1

  2
none_device
  4

  6

 40
0.0
 41
0.0
 42
0.0
 43
0.0
 44
0.0
 45
0.0
 46
0.0
 47
0.0
 48
0.0
 49
0.0
140
0.0
141
0.0
142
1.0
143
1.0
 70
   688
 72
     0
 73
     0
 74
     5
  7

 75
    16
 76
     0
 77
     2
 78
   300
147
1.0
148
0.0
149
0.0
100
AcDbLayout
  1
Layout2
 70
     1
 71
     2
 10
0.0
 20
0.0
 11
0.0
 21
0.0
 12
0.0
 22
0.0
 32
0.0
 14
0.0
 24
0.0
 34
0.0
 15
0.0
 25
0.0
 35
0.0
146
0.0
 13
0.0
 23
0.0
 33
0.0
 16
1.0
 26
0.0
 36
0.0
 17
0.0
 27
1.0
 37
0.0
 76
     0
330
23
  0
LAYOUT
  5
22
102
{ACAD_REACTORS
330
1A
102
}
330
1A
100
AcDbPlotSettings
  1

  2
none_device
  4

  6

 40
0.0
 41
0.0
 42
0.0
 43
0.0
 44
0.0
 45
0.0
 46
0.0
 47
0.0
 48
0.0
 49
0.0
140
0.0
141
0.0
142
1.0
143
1.0
 70
  1712
 72
     0
 73
     0
 74
     0
  7

 75
     0
 76
     0
 77
     2
 78
   300
147
1.0
148
0.0
149
0.0
100
AcDbLayout
  1
Model
 70
     1
 71
     0
 10
0.0
 20
0.0
 11
12.0
 21
9.0
 12
0.0
 22
0.0
 32
0.0
 14
-6.98748
 24
-5.82816
 34
0.0
 15
6.98745
 25
5.82811
 35
0.0
146
0.0
 13
0.0
 23
0.0
 33
0.0
 16
1.0
 26
0.0
 36
0.0
 17
0.0
 27
1.0
 37
0.0
 76
     0
330
1F
331
29
  0
MATERIAL
  5
3D
102
{ACAD_REACTORS
330
3B
102
}
330
3B
100
AcDbMaterial
  1
ByBlock
 72
     1
 94
      127
  0
MATERIAL
  5
3C
102
{ACAD_REACTORS
330
3B
102
}
330
3B
100
AcDbMaterial
  1
ByLayer
 72
     1
 94
      127
  0
MATERIAL
  5
3E
102
{ACAD_REACTORS
330
3B
102
}
330
3B
100
AcDbMaterial
  1
Global
 72
     1
 94
      127
  0
MLINESTYLE
  5
18
102
{ACAD_REACTORS
330
17
102
}
330
17
100
AcDbMlineStyle
  2
Standard
 70
     0
  3

 62
   256
 51
90.0
 52
90.0
 71
     2
 49
0.5
 62
   256
  6
BYLAYER
 49
-0.5
 62
   256
  6
BYLAYER
  0
ACDBPLACEHOLDER
  5
F
102
{ACAD_REACTORS
330
E
102
}
330
E
  0
VISUALSTYLE
  5
2F
102
{ACAD_REACTORS
330
2A
102
}
102
{ACAD_XDICTIONARY
360
4B
102
}
330
2A
100
AcDbVisualStyle
  2
2dWireframe
 70
     4
 71
     0
 72
     2
 73
     0
 90
        0
 40
-0.6
 41
-30.0
 62
     5
 63
     7
421
 16777215
 74
     1
 91
        4
 64
     7
 65
   257
 75
     1
175
     1
 42
1.0
 92
        0
 66
   257
 43
1.0
 76
     1
 77
     6
 78
     2
 67
     7
 79
     5
170
     0
171
     0
290
     0
174
     0
 93
        1
 44
0.0
173
     0
291
     0
 45
0.0
  0
VISUALSTYLE
  5
31
102
{ACAD_REACTORS
330
2A
102
}
102
{ACAD_XDICTIONARY
360
4F
102
}
330
2A
100
AcDbVisualStyle
  2
3D Hidden
 70
     6
 71
     1
 72
     2
 73
     2
 90
        0
 40
-0.6
 41
-30.0
 62
     5
 63
     7
421
 16777215
 74
     2
 91
        2
 64
     7
 65
   257
 75
     2
175
     1
 42
40.0
 92
        0
 66
   257
 43
1.0
 76
     1
 77
     6
 78
     2
 67
     7
 79
     3
170
     0
171
     0
290
     0
174
     0
 93
        1
 44
0.0
173
     0
291
     0
 45
0.0
  0
VISUALSTYLE
  5
30
102
{ACAD_REACTORS
330
2A
102
}
102
{ACAD_XDICTIONARY
360
4D
102
}
330
2A
100
AcDbVisualStyle
  2
3dWireframe
 70
     5
 71
     0
 72
     2
 73
     0
 90
        0
 40
-0.6
 41
-30.0
 62
     5
 63
     7
421
 16777215
 74
     1
 91
        4
 64
     7
 65
   257
 75
     1
175
     1
 42
1.0
 92
        0
 66
   257
 43
1.0
 76
     1
 77
     6
 78
     2
 67
     7
 79
     5
170
     0
171
     0
290
     0
174
     0
 93
        1
 44
0.0
173
     0
291
     0
 45
0.0
  0
VISUALSTYLE
  5
32
102
{ACAD_REACTORS
330
2A
102
}
102
{ACAD_XDICTIONARY
360
51
102
}
330
2A
100
AcDbVisualStyle
  2
Basic
 70
     7
 71
     1
 72
     0
 73
     1
 90
        0
 40
-0.6
 41
-30.0
 62
     5
 63
     7
421
 16777215
 74
     0
 91
        4
 64
     7
 65
   257
 75
     1
175
     1
 42
1.0
 92
        8
 66
     7
 43
1.0
 76
     1
 77
     6
 78
     2
 67
     7
 79
     5
170
     0
171
     0
290
     0
174
     0
 93
        1
 44
0.0
173
     0
291
     1
 45
0.0
  0
VISUALSTYLE
  5
36
102
{ACAD_REACTORS
330
2A
102
}
102
{ACAD_XDICTIONARY
360
59
102
}
330
2A
100
AcDbVisualStyle
  2
Brighten
 70
    12
 71
     2
 72
     2
 73
     0
 90
        0
 40
-0.6
 41
-30.0
 62
     5
 63
     7
421
 16777215
 74
     1
 91
        4
 64
     7
 65
   257
 75
     1
175
     1
 42
1.0
 92
        8
 66
     7
 43
1.0
 76
     1
 77
     6
 78
     2
 67
     7
 79
     5
170
     0
171
     0
290
     0
174
     0
 93
        1
 44
50.0
173
     0
291
     1
 45
0.0
  0
VISUALSTYLE
  5
3A
102
{ACAD_REACTORS
330
2A
102
}
102
{ACAD_XDICTIONARY
360
61
102
}
330
2A
100
AcDbVisualStyle
  2
ColorChange
 70
    16
 71
     2
 72
     2
 73
     3
 90
        0
 40
-0.6
 41
-30.0
 62
     5
 63
     8
421
  8421504
 74
     1
 91
        4
 64
     7
 65
   257
 75
     1
175
     1
 42
1.0
 92
        8
 66
     8
424
  8421504
 43
1.0
 76
     1
 77
     6
 78
     2
 67
     7
 79
     5
170
     0
171
     0
290
     0
174
     0
 93
        1
 44
0.0
173
     0
291
     1
 45
0.0
  0
VISUALSTYLE
  5
34
102
{ACAD_REACTORS
330
2A
102
}
102
{ACAD_XDICTIONARY
360
55
102
}
330
2A
100
AcDbVisualStyle
  2
Conceptual
 70
     9
 71
     3
 72
     2
 73
     0
 90
        0
 40
-0.6
 41
-30.0
 62
     5
 63
     7
421
 16777215
 74
     2
 91
        2
 64
     7
 65
   257
 75
     1
175
     1
 42
40.0
 92
        8
 66
     7
 43
1.0
 76
     1
 77
     6
 78
     2
 67
     7
 79
     3
170
     0
171
     0
290
     0
174
     0
 93
        1
 44
0.0
173
     0
291
     0
 45
0.0
  0
VISUALSTYLE
  5
35
102
{ACAD_REACTORS
330
2A
102
}
102
{ACAD_XDICTIONARY
360
57
102
}
330
2A
100
AcDbVisualStyle
  2
Dim
 70
    11
 71
     2
 72
     2
 73
     0
 90
        0
 40
-0.6
 41
-30.0
 62
     5
 63
     7
421
 16777215
 74
     1
 91
        4
 64
     7
 65
   257
 75
     1
175
     1
 42
1.0
 92
        8
 66
     7
 43
1.0
 76
     1
 77
     6
 78
     2
 67
     7
 79
     5
170
     0
171
     0
290
     0
174
     0
 93
        1
 44
-50.0
173
     0
291
     1
 45
0.0
  0
VISUALSTYLE
  5
39
102
{ACAD_REACTORS
330
2A
102
}
102
{ACAD_XDICTIONARY
360
5F
102
}
330
2A
100
AcDbVisualStyle
  2
Facepattern
 70
    15
 71
     2
 72
     2
 73
     0
 90
        0
 40
-0.6
 41
-30.0
 62
     5
 63
     7
421
 16777215
 74
     1
 91
        4
 64
     7
 65
   257
 75
     1
175
     1
 42
1.0
 92
        8
 66
     7
 43
1.0
 76
     1
 77
     6
 78
     2
 67
     7
 79
     5
170
     0
171
     0
290
     0
174
     0
 93
        1
 44
0.0
173
     0
291
     1
 45
0.0
  0
VISUALSTYLE
  5
2B
102
{ACAD_REACTORS
330
2A
102
}
102
{ACAD_XDICTIONARY
360
43
102
}
330
2A
100
AcDbVisualStyle
  2
Flat
 70
     0
 71
     2
 72
     1
 73
     1
 90
        2
 40
-0.6
 41
30.0
 62
     5
 63
     7
421
 16777215
 74
     0
 91
        4
 64
     7
 65
   257
 75
     1
175
     1
 42
1.0
 92
        8
 66
     7
 43
1.0
 76
     1
 77
     6
 78
     2
 67
     7
 79
     5
170
     0
171
     0
290
     0
174
     0
 93
       13
 44
0.0
173
     0
291
     1
 45
0.0
  0
VISUALSTYLE
  5
2C
102
{ACAD_REACTORS
330
2A
102
}
102
{ACAD_XDICTIONARY
360
45
102
}
330
2A
100
AcDbVisualStyle
  2
FlatWithEdges
 70
     1
 71
     2
 72
     1
 73
     1
 90
        2
 40
-0.6
 41
30.0
 62
     5
 63
     7
421
 16777215
 74
     1
 91
        4
 64
     7
 65
   257
 75
     1
175
     1
 42
1.0
 92
        0
 66
   257
 43
1.0
 76
     1
 77
     6
 78
     2
 67
     7
 79
     5
170
     0
171
     0
290
     0
174
     0
 93
       13
 44
0.0
173
     0
291
     1
 45
0.0
  0
VISUALSTYLE
  5
2D
102
{ACAD_REACTORS
330
2A
102
}
102
{ACAD_XDICTIONARY
360
47
102
}
330
2A
100
AcDbVisualStyle
  2
Gouraud
 70
     2
 71
     2
 72
     2
 73
     1
 90
        2
 40
-0.6
 41
30.0
 62
     5
 63
     7
421
 16777215
 74
     0
 91
        4
 64
     7
 65
   257
 75
     1
175
     1
 42
1.0
 92
        0
 66
     7
 43
1.0
 76
     1
 77
     6
 78
     2
 67
     7
 79
     5
170
     0
171
     0
290
     0
174
     0
 93
       13
 44
0.0
173
     0
291
     1
 45
0.0
  0
VISUALSTYLE
  5
2E
102
{ACAD_REACTORS
330
2A
102
}
102
{ACAD_XDICTIONARY
360
49
102
}
330
2A
100
AcDbVisualStyle
  2
GouraudWithEdges
 70
     3
 71
     2
 72
     2
 73
     1
 90
        2
 40
-0.6
 41
30.0
 62
     5
 63
     7
421
 16777215
 74
     1
 91
        4
 64
     7
 65
   257
 75
     1
175
     1
 42
1.0
 92
        0
 66
   257
 43
1.0
 76
     1
 77
     6
 78
     2
 67
     7
 79
     5
170
     0
171
     0
290
     0
174
     0
 93
       13
 44
0.0
173
     0
291
     1
 45
0.0
  0
VISUALSTYLE
  5
38
102
{ACAD_REACTORS
330
2A
102
}
102
{ACAD_XDICTIONARY
360
5D
102
}
330
2A
100
AcDbVisualStyle
  2
Linepattern
 70
    14
 71
     2
 72
     2
 73
     0
 90
        0
 40
-0.6
 41
-30.0
 62
     5
 63
     7
421
 16777215
 74
     1
 91
        4
 64
     7
 65
   257
 75
     7
175
     7
 42
1.0
 92
        8
 66
     7
 43
1.0
 76
     1
 77
     6
 78
     2
 67
     7
 79
     5
170
     0
171
     0
290
     0
174
     0
 93
        1
 44
0.0
173
     0
291
     1
 45
0.0
  0
VISUALSTYLE
  5
33
102
{ACAD_REACTORS
330
2A
102
}
102
{ACAD_XDICTIONARY
360
53
102
}
330
2A
100
AcDbVisualStyle
  2
Realistic
 70
     8
 71
     2
 72
     2
 73
     0
 90
        0
 40
-0.6
 41
-30.0
 62
     5
 63
     7
421
 16777215
 74
     1
 91
        0
 64
     7
 65
   257
 75
     1
175
     1
 42
1.0
 92
        8
 66
     8
424
  7895160
 43
1.0
 76
     1
 77
     6
 78
     2
 67
     7
 79
     5
170
     0
171
     0
290
     0
174
     0
 93
       13
 44
0.0
173
     0
291
     0
 45
0.0
  0
VISUALSTYLE
  5
37
102
{ACAD_REACTORS
330
2A
102
}
102
{ACAD_XDICTIONARY
360
5B
102
}
330
2A
100
AcDbVisualStyle
  2
Thicken
 70
    13
 71
     2
 72
     2
 73
     0
 90
        0
 40
-0.6
 41
-30.0
 62
     5
 63
     7
421
 16777215
 74
     1
 91
        4
 64
     7
 65
   257
 75
     1
175
     1
 42
1.0
 92
       12
 66
     7
 43
1.0
 76
     1
 77
     6
 78
     2
 67
     7
 79
     5
170
     0
171
     0
290
     0
174
     0
 93
        1
 44
0.0
173
     0
291
     1
 45
0.0
  0
DICTIONARY
  5
4B
330
2F
100
AcDbDictionary
280
     1
281
     1
  3
ACAD_XREC_ROUNDTRIP
360
4C
  0
DICTIONARY
  5
4F
330
31
100
AcDbDictionary
280
     1
281
     1
  3
ACAD_XREC_ROUNDTRIP
360
50
  0
DICTIONARY
  5
4D
330
30
100
AcDbDictionary
280
     1
281
     1
  3
ACAD_XREC_ROUNDTRIP
360
4E
  0
DICTIONARY
  5
51
330
32
100
AcDbDictionary
280
     1
281
     1
  3
ACAD_XREC_ROUNDTRIP
360
52
  0
DICTIONARY
  5
59
330
36
100
AcDbDictionary
280
     1
281
     1
  3
ACAD_XREC_ROUNDTRIP
360
5A
  0
DICTIONARY
  5
61
330
3A
100
AcDbDictionary
280
     1
281
     1
  3
ACAD_XREC_ROUNDTRIP
360
62
  0
DICTIONARY
  5
55
330
34
100
AcDbDictionary
280
     1
281
     1
  3
ACAD_XREC_ROUNDTRIP
360
56
  0
DICTIONARY
  5
57
330
35
100
AcDbDictionary
280
     1
281
     1
  3
ACAD_XREC_ROUNDTRIP
360
58
  0
DICTIONARY
  5
5F
330
39
100
AcDbDictionary
280
     1
281
     1
  3
ACAD_XREC_ROUNDTRIP
360
60
  0
DICTIONARY
  5
43
330
2B
100
AcDbDictionary
280
     1
281
     1
  3
ACAD_XREC_ROUNDTRIP
360
44
  0
DICTIONARY
  5
45
330
2C
100
AcDbDictionary
280
     1
281
     1
  3
ACAD_XREC_ROUNDTRIP
360
46
  0
DICTIONARY
  5
47
330
2D
100
AcDbDictionary
280
     1
281
     1
  3
ACAD_XREC_ROUNDTRIP
360
48
  0
DICTIONARY
  5
49
330
2E
100
AcDbDictionary
280
     1
281
     1
  3
ACAD_XREC_ROUNDTRIP
360
4A
  0
DICTIONARY
  5
5D
330
38
100
AcDbDictionary
280
     1
281
     1
  3
ACAD_XREC_ROUNDTRIP
360
5E
  0
DICTIONARY
  5
53
330
33
100
AcDbDictionary
280
     1
281
     1
  3
ACAD_XREC_ROUNDTRIP
360
54
  0
DICTIONARY
  5
5B
330
37
100
AcDbDictionary
280
     1
281
     1
  3
ACAD_XREC_ROUNDTRIP
360
5C
  0
XRECORD
  5
4C
102
{ACAD_REACTORS
330
4B
102
}
330
4B
100
AcDbXrecord
280
     1
102
RTVSPropertyOp0
 70
     1
102
RTVSPropertyOp1
 70
     1
102
RTVSPropertyOp2
 70
     1
102
RTVSPropertyOp3
 70
     1
102
RTVSPropertyOp4
 70
     1
102
RTVSPropertyOp5
 70
     1
102
RTVSPropertyOp6
 70
     1
102
RTVSPropertyOp7
 70
     1
102
RTVSPropertyOp8
 70
     1
102
RTVSPropertyOp9
 70
     1
102
RTVSPropertyOp10
 70
     1
102
RTVSPropertyOp11
 70
     1
102
RTVSPropertyOp12
 70
     1
102
RTVSPropertyOp13
 70
     1
102
RTVSPropertyOp14
 70
     1
102
RTVSPropertyOp15
 70
     1
102
RTVSPropertyOp16
 70
     1
102
RTVSPropertyOp17
 70
     1
102
RTVSPropertyOp18
 70
     1
102
RTVSPropertyOp19
 70
     1
102
RTVSPropertyOp20
 70
     1
102
RTVSPropertyOp21
 70
     1
102
RTVSPropertyOp22
 70
     1
102
RTVSPropertyOp23
 70
     1
102
RTVSPropertyOp24
 70
     1
102
RTVSPropertyOp25
 70
     1
102
RTVSPropertyOp26
 70
     1
102
RTVSPropertyOp27
 70
     1
102
RTVSPropertyOp28
 70
     1
102
RTVSPropertyOp29
 70
     1
102
RTVSPropertyOp30
 70
     1
102
RTVSPropertyOp31
 70
     1
102
RTVSPropertyOp32
 70
     1
  0
XRECORD
  5
50
102
{ACAD_REACTORS
330
4F
102
}
330
4F
100
AcDbXrecord
280
     1
102
RTVSPropertyOp0
 70
     1
102
RTVSPropertyOp1
 70
     1
102
RTVSPropertyOp2
 70
     1
102
RTVSPropertyOp3
 70
     1
102
RTVSPropertyOp4
 70
     1
102
RTVSPropertyOp5
 70
     1
102
RTVSPropertyOp6
 70
     1
102
RTVSPropertyOp7
 70
     1
102
RTVSPropertyOp8
 70
     1
102
RTVSPropertyOp9
 70
     1
102
RTVSPropertyOp10
 70
     1
102
RTVSPropertyOp11
 70
     1
102
RTVSPropertyOp12
 70
     1
102
RTVSPropertyOp13
 70
     1
102
RTVSPropertyOp14
 70
     1
102
RTVSPropertyOp15
 70
     1
102
RTVSPropertyOp16
 70
     1
102
RTVSPropertyOp17
 70
     1
102
RTVSPropertyOp18
 70
     1
102
RTVSPropertyOp19
 70
     1
102
RTVSPropertyOp20
 70
     1
102
RTVSPropertyOp21
 70
     1
102
RTVSPropertyOp22
 70
     1
102
RTVSPropertyOp23
 70
     1
102
RTVSPropertyOp24
 70
     1
102
RTVSPropertyOp25
 70
     1
102
RTVSPropertyOp26
 70
     1
102
RTVSPropertyOp27
 70
     1
102
RTVSPropertyOp28
 70
     1
102
RTVSPropertyOp29
 70
     1
102
RTVSPropertyOp30
 70
     1
102
RTVSPropertyOp31
 70
     1
102
RTVSPropertyOp32
 70
     1
  0
XRECORD
  5
4E
102
{ACAD_REACTORS
330
4D
102
}
330
4D
100
AcDbXrecord
280
     1
102
RTVSPropertyOp0
 70
     1
102
RTVSPropertyOp1
 70
     1
102
RTVSPropertyOp2
 70
     1
102
RTVSPropertyOp3
 70
     1
102
RTVSPropertyOp4
 70
     1
102
RTVSPropertyOp5
 70
     1
102
RTVSPropertyOp6
 70
     1
102
RTVSPropertyOp7
 70
     1
102
RTVSPropertyOp8
 70
     1
102
RTVSPropertyOp9
 70
     1
102
RTVSPropertyOp10
 70
     1
102
RTVSPropertyOp11
 70
     1
102
RTVSPropertyOp12
 70
     1
102
RTVSPropertyOp13
 70
     1
102
RTVSPropertyOp14
 70
     1
102
RTVSPropertyOp15
 70
     1
102
RTVSPropertyOp16
 70
     1
102
RTVSPropertyOp17
 70
     1
102
RTVSPropertyOp18
 70
     1
102
RTVSPropertyOp19
 70
     1
102
RTVSPropertyOp20
 70
     1
102
RTVSPropertyOp21
 70
     1
102
RTVSPropertyOp22
 70
     1
102
RTVSPropertyOp23
 70
     1
102
RTVSPropertyOp24
 70
     1
102
RTVSPropertyOp25
 70
     1
102
RTVSPropertyOp26
 70
     1
102
RTVSPropertyOp27
 70
     1
102
RTVSPropertyOp28
 70
     1
102
RTVSPropertyOp29
 70
     1
102
RTVSPropertyOp30
 70
     1
102
RTVSPropertyOp31
 70
     1
102
RTVSPropertyOp32
 70
     1
  0
XRECORD
  5
52
102
{ACAD_REACTORS
330
51
102
}
330
51
100
AcDbXrecord
280
     1
102
RTVSPropertyOp0
 70
     1
102
RTVSPropertyOp1
 70
     1
102
RTVSPropertyOp2
 70
     1
102
RTVSPropertyOp3
 70
     1
102
RTVSPropertyOp4
 70
     1
102
RTVSPropertyOp5
 70
     1
102
RTVSPropertyOp6
 70
     1
102
RTVSPropertyOp7
 70
     1
102
RTVSPropertyOp8
 70
     1
102
RTVSPropertyOp9
 70
     1
102
RTVSPropertyOp10
 70
     1
102
RTVSPropertyOp11
 70
     1
102
RTVSPropertyOp12
 70
     1
102
RTVSPropertyOp13
 70
     1
102
RTVSPropertyOp14
 70
     1
102
RTVSPropertyOp15
 70
     1
102
RTVSPropertyOp16
 70
     1
102
RTVSPropertyOp17
 70
     1
102
RTVSPropertyOp18
 70
     1
102
RTVSPropertyOp19
 70
     1
102
RTVSPropertyOp20
 70
     1
102
RTVSPropertyOp21
 70
     1
102
RTVSPropertyOp22
 70
     1
102
RTVSPropertyOp23
 70
     1
102
RTVSPropertyOp24
 70
     1
102
RTVSPropertyOp25
 70
     1
102
RTVSPropertyOp26
 70
     1
102
RTVSPropertyOp27
 70
     1
102
RTVSPropertyOp28
 70
     1
102
RTVSPropertyOp29
 70
     1
102
RTVSPropertyOp30
 70
     1
102
RTVSPropertyOp31
 70
     1
102
RTVSPropertyOp32
 70
     1
  0
XRECORD
  5
5A
102
{ACAD_REACTORS
330
59
102
}
330
59
100
AcDbXrecord
280
     1
102
RTVSPropertyOp0
 70
     1
102
RTVSPropertyOp1
 70
     1
102
RTVSPropertyOp2
 70
     1
102
RTVSPropertyOp3
 70
     1
102
RTVSPropertyOp4
 70
     1
102
RTVSPropertyOp5
 70
     1
102
RTVSPropertyOp6
 70
     1
102
RTVSPropertyOp7
 70
     1
102
RTVSPropertyOp8
 70
     1
102
RTVSPropertyOp9
 70
     1
102
RTVSPropertyOp10
 70
     1
102
RTVSPropertyOp11
 70
     1
102
RTVSPropertyOp12
 70
     1
102
RTVSPropertyOp13
 70
     1
102
RTVSPropertyOp14
 70
     1
102
RTVSPropertyOp15
 70
     1
102
RTVSPropertyOp16
 70
     1
102
RTVSPropertyOp17
 70
     1
102
RTVSPropertyOp18
 70
     1
102
RTVSPropertyOp19
 70
     1
102
RTVSPropertyOp20
 70
     1
102
RTVSPropertyOp21
 70
     1
102
RTVSPropertyOp22
 70
     1
102
RTVSPropertyOp23
 70
     1
102
RTVSPropertyOp24
 70
     1
102
RTVSPropertyOp25
 70
     1
102
RTVSPropertyOp26
 70
     1
102
RTVSPropertyOp27
 70
     1
102
RTVSPropertyOp28
 70
     1
102
RTVSPropertyOp29
 70
     1
102
RTVSPropertyOp30
 70
     1
102
RTVSPropertyOp31
 70
     1
102
RTVSPropertyOp32
 70
     1
  0
XRECORD
  5
62
102
{ACAD_REACTORS
330
61
102
}
330
61
100
AcDbXrecord
280
     1
102
RTVSPropertyOp0
 70
     1
102
RTVSPropertyOp1
 70
     1
102
RTVSPropertyOp2
 70
     1
102
RTVSPropertyOp3
 70
     1
102
RTVSPropertyOp4
 70
     1
102
RTVSPropertyOp5
 70
     1
102
RTVSPropertyOp6
 70
     1
102
RTVSPropertyOp7
 70
     1
102
RTVSPropertyOp8
 70
     1
102
RTVSPropertyOp9
 70
     1
102
RTVSPropertyOp10
 70
     1
102
RTVSPropertyOp11
 70
     1
102
RTVSPropertyOp12
 70
     1
102
RTVSPropertyOp13
 70
     1
102
RTVSPropertyOp14
 70
     1
102
RTVSPropertyOp15
 70
     1
102
RTVSPropertyOp16
 70
     1
102
RTVSPropertyOp17
 70
     1
102
RTVSPropertyOp18
 70
     1
102
RTVSPropertyOp19
 70
     1
102
RTVSPropertyOp20
 70
     1
102
RTVSPropertyOp21
 70
     1
102
RTVSPropertyOp22
 70
     1
102
RTVSPropertyOp23
 70
     1
102
RTVSPropertyOp24
 70
     1
102
RTVSPropertyOp25
 70
     1
102
RTVSPropertyOp26
 70
     1
102
RTVSPropertyOp27
 70
     1
102
RTVSPropertyOp28
 70
     1
102
RTVSPropertyOp29
 70
     1
102
RTVSPropertyOp30
 70
     1
102
RTVSPropertyOp31
 70
     1
102
RTVSPropertyOp32
 70
     1
  0
XRECORD
  5
56
102
{ACAD_REACTORS
330
55
102
}
330
55
100
AcDbXrecord
280
     1
102
RTVSPropertyOp0
 70
     1
102
RTVSPropertyOp1
 70
     1
102
RTVSPropertyOp2
 70
     1
102
RTVSPropertyOp3
 70
     1
102
RTVSPropertyOp4
 70
     1
102
RTVSPropertyOp5
 70
     1
102
RTVSPropertyOp6
 70
     1
102
RTVSPropertyOp7
 70
     1
102
RTVSPropertyOp8
 70
     1
102
RTVSPropertyOp9
 70
     1
102
RTVSPropertyOp10
 70
     1
102
RTVSPropertyOp11
 70
     1
102
RTVSPropertyOp12
 70
     1
102
RTVSPropertyOp13
 70
     1
102
RTVSPropertyOp14
 70
     1
102
RTVSPropertyOp15
 70
     1
102
RTVSPropertyOp16
 70
     1
102
RTVSPropertyOp17
 70
     1
102
RTVSPropertyOp18
 70
     1
102
RTVSPropertyOp19
 70
     1
102
RTVSPropertyOp20
 70
     1
102
RTVSPropertyOp21
 70
     1
102
RTVSPropertyOp22
 70
     1
102
RTVSPropertyOp23
 70
     1
102
RTVSPropertyOp24
 70
     1
102
RTVSPropertyOp25
 70
     1
102
RTVSPropertyOp26
 70
     1
102
RTVSPropertyOp27
 70
     1
102
RTVSPropertyOp28
 70
     1
102
RTVSPropertyOp29
 70
     1
102
RTVSPropertyOp30
 70
     1
102
RTVSPropertyOp31
 70
     1
102
RTVSPropertyOp32
 70
     1
  0
XRECORD
  5
58
102
{ACAD_REACTORS
330
57
102
}
330
57
100
AcDbXrecord
280
     1
102
RTVSPropertyOp0
 70
     1
102
RTVSPropertyOp1
 70
     1
102
RTVSPropertyOp2
 70
     1
102
RTVSPropertyOp3
 70
     1
102
RTVSPropertyOp4
 70
     1
102
RTVSPropertyOp5
 70
     1
102
RTVSPropertyOp6
 70
     1
102
RTVSPropertyOp7
 70
     1
102
RTVSPropertyOp8
 70
     1
102
RTVSPropertyOp9
 70
     1
102
RTVSPropertyOp10
 70
     1
102
RTVSPropertyOp11
 70
     1
102
RTVSPropertyOp12
 70
     1
102
RTVSPropertyOp13
 70
     1
102
RTVSPropertyOp14
 70
     1
102
RTVSPropertyOp15
 70
     1
102
RTVSPropertyOp16
 70
     1
102
RTVSPropertyOp17
 70
     1
102
RTVSPropertyOp18
 70
     1
102
RTVSPropertyOp19
 70
     1
102
RTVSPropertyOp20
 70
     1
102
RTVSPropertyOp21
 70
     1
102
RTVSPropertyOp22
 70
     1
102
RTVSPropertyOp23
 70
     1
102
RTVSPropertyOp24
 70
     1
102
RTVSPropertyOp25
 70
     1
102
RTVSPropertyOp26
 70
     1
102
RTVSPropertyOp27
 70
     1
102
RTVSPropertyOp28
 70
     1
102
RTVSPropertyOp29
 70
     1
102
RTVSPropertyOp30
 70
     1
102
RTVSPropertyOp31
 70
     1
102
RTVSPropertyOp32
 70
     1
  0
XRECORD
  5
60
102
{ACAD_REACTORS
330
5F
102
}
330
5F
100
AcDbXrecord
280
     1
102
RTVSPropertyOp0
 70
     1
102
RTVSPropertyOp1
 70
     1
102
RTVSPropertyOp2
 70
     1
102
RTVSPropertyOp3
 70
     1
102
RTVSPropertyOp4
 70
     1
102
RTVSPropertyOp5
 70
     1
102
RTVSPropertyOp6
 70
     1
102
RTVSPropertyOp7
 70
     1
102
RTVSPropertyOp8
 70
     1
102
RTVSPropertyOp9
 70
     1
102
RTVSPropertyOp10
 70
     1
102
RTVSPropertyOp11
 70
     1
102
RTVSPropertyOp12
 70
     1
102
RTVSPropertyOp13
 70
     1
102
RTVSPropertyOp14
 70
     1
102
RTVSPropertyOp15
 70
     1
102
RTVSPropertyOp16
 70
     1
102
RTVSPropertyOp17
 70
     1
102
RTVSPropertyOp18
 70
     1
102
RTVSPropertyOp19
 70
     1
102
RTVSPropertyOp20
 70
     1
102
RTVSPropertyOp21
 70
     1
102
RTVSPropertyOp22
 70
     1
102
RTVSPropertyOp23
 70
     1
102
RTVSPropertyOp24
 70
     1
102
RTVSPropertyOp25
 70
     1
102
RTVSPropertyOp26
 70
     1
102
RTVSPropertyOp27
 70
     1
102
RTVSPropertyOp28
 70
     1
102
RTVSPropertyOp29
 70
     1
102
RTVSPropertyOp30
 70
     1
102
RTVSPropertyOp31
 70
     1
102
RTVSPropertyOp32
 70
     1
  0
XRECORD
  5
44
102
{ACAD_REACTORS
330
43
102
}
330
43
100
AcDbXrecord
280
     1
102
RTVSPropertyOp0
 70
     1
102
RTVSPropertyOp1
 70
     1
102
RTVSPropertyOp2
 70
     1
102
RTVSPropertyOp3
 70
     1
102
RTVSPropertyOp4
 70
     1
102
RTVSPropertyOp5
 70
     1
102
RTVSPropertyOp6
 70
     1
102
RTVSPropertyOp7
 70
     1
102
RTVSPropertyOp8
 70
     1
102
RTVSPropertyOp9
 70
     1
102
RTVSPropertyOp10
 70
     1
102
RTVSPropertyOp11
 70
     1
102
RTVSPropertyOp12
 70
     1
102
RTVSPropertyOp13
 70
     1
102
RTVSPropertyOp14
 70
     1
102
RTVSPropertyOp15
 70
     1
102
RTVSPropertyOp16
 70
     1
102
RTVSPropertyOp17
 70
     1
102
RTVSPropertyOp18
 70
     1
102
RTVSPropertyOp19
 70
     1
102
RTVSPropertyOp20
 70
     1
102
RTVSPropertyOp21
 70
     1
102
RTVSPropertyOp22
 70
     1
102
RTVSPropertyOp23
 70
     1
102
RTVSPropertyOp24
 70
     1
102
RTVSPropertyOp25
 70
     1
102
RTVSPropertyOp26
 70
     1
102
RTVSPropertyOp27
 70
     1
102
RTVSPropertyOp28
 70
     1
102
RTVSPropertyOp29
 70
     1
102
RTVSPropertyOp30
 70
     1
102
RTVSPropertyOp31
 70
     1
102
RTVSPropertyOp32
 70
     1
  0
XRECORD
  5
46
102
{ACAD_REACTORS
330
45
102
}
330
45
100
AcDbXrecord
280
     1
102
RTVSPropertyOp0
 70
     1
102
RTVSPropertyOp1
 70
     1
102
RTVSPropertyOp2
 70
     1
102
RTVSPropertyOp3
 70
     1
102
RTVSPropertyOp4
 70
     1
102
RTVSPropertyOp5
 70
     1
102
RTVSPropertyOp6
 70
     1
102
RTVSPropertyOp7
 70
     1
102
RTVSPropertyOp8
 70
     1
102
RTVSPropertyOp9
 70
     1
102
RTVSPropertyOp10
 70
     1
102
RTVSPropertyOp11
 70
     1
102
RTVSPropertyOp12
 70
     1
102
RTVSPropertyOp13
 70
     1
102
RTVSPropertyOp14
 70
     1
102
RTVSPropertyOp15
 70
     1
102
RTVSPropertyOp16
 70
     1
102
RTVSPropertyOp17
 70
     1
102
RTVSPropertyOp18
 70
     1
102
RTVSPropertyOp19
 70
     1
102
RTVSPropertyOp20
 70
     1
102
RTVSPropertyOp21
 70
     1
102
RTVSPropertyOp22
 70
     1
102
RTVSPropertyOp23
 70
     1
102
RTVSPropertyOp24
 70
     1
102
RTVSPropertyOp25
 70
     1
102
RTVSPropertyOp26
 70
     1
102
RTVSPropertyOp27
 70
     1
102
RTVSPropertyOp28
 70
     1
102
RTVSPropertyOp29
 70
     1
102
RTVSPropertyOp30
 70
     1
102
RTVSPropertyOp31
 70
     1
102
RTVSPropertyOp32
 70
     1
  0
XRECORD
  5
48
102
{ACAD_REACTORS
330
47
102
}
330
47
100
AcDbXrecord
280
     1
102
RTVSPropertyOp0
 70
     1
102
RTVSPropertyOp1
 70
     1
102
RTVSPropertyOp2
 70
     1
102
RTVSPropertyOp3
 70
     1
102
RTVSPropertyOp4
 70
     1
102
RTVSPropertyOp5
 70
     1
102
RTVSPropertyOp6
 70
     1
102
RTVSPropertyOp7
 70
     1
102
RTVSPropertyOp8
 70
     1
102
RTVSPropertyOp9
 70
     1
102
RTVSPropertyOp10
 70
     1
102
RTVSPropertyOp11
 70
     1
102
RTVSPropertyOp12
 70
     1
102
RTVSPropertyOp13
 70
     1
102
RTVSPropertyOp14
 70
     1
102
RTVSPropertyOp15
 70
     1
102
RTVSPropertyOp16
 70
     1
102
RTVSPropertyOp17
 70
     1
102
RTVSPropertyOp18
 70
     1
102
RTVSPropertyOp19
 70
     1
102
RTVSPropertyOp20
 70
     1
102
RTVSPropertyOp21
 70
     1
102
RTVSPropertyOp22
 70
     1
102
RTVSPropertyOp23
 70
     1
102
RTVSPropertyOp24
 70
     1
102
RTVSPropertyOp25
 70
     1
102
RTVSPropertyOp26
 70
     1
102
RTVSPropertyOp27
 70
     1
102
RTVSPropertyOp28
 70
     1
102
RTVSPropertyOp29
 70
     1
102
RTVSPropertyOp30
 70
     1
102
RTVSPropertyOp31
 70
     1
102
RTVSPropertyOp32
 70
     1
  0
XRECORD
  5
4A
102
{ACAD_REACTORS
330
49
102
}
330
49
100
AcDbXrecord
280
     1
102
RTVSPropertyOp0
 70
     1
102
RTVSPropertyOp1
 70
     1
102
RTVSPropertyOp2
 70
     1
102
RTVSPropertyOp3
 70
     1
102
RTVSPropertyOp4
 70
     1
102
RTVSPropertyOp5
 70
     1
102
RTVSPropertyOp6
 70
     1
102
RTVSPropertyOp7
 70
     1
102
RTVSPropertyOp8
 70
     1
102
RTVSPropertyOp9
 70
     1
102
RTVSPropertyOp10
 70
     1
102
RTVSPropertyOp11
 70
     1
102
RTVSPropertyOp12
 70
     1
102
RTVSPropertyOp13
 70
     1
102
RTVSPropertyOp14
 70
     1
102
RTVSPropertyOp15
 70
     1
102
RTVSPropertyOp16
 70
     1
102
RTVSPropertyOp17
 70
     1
102
RTVSPropertyOp18
 70
     1
102
RTVSPropertyOp19
 70
     1
102
RTVSPropertyOp20
 70
     1
102
RTVSPropertyOp21
 70
     1
102
RTVSPropertyOp22
 70
     1
102
RTVSPropertyOp23
 70
     1
102
RTVSPropertyOp24
 70
     1
102
RTVSPropertyOp25
 70
     1
102
RTVSPropertyOp26
 70
     1
102
RTVSPropertyOp27
 70
     1
102
RTVSPropertyOp28
 70
     1
102
RTVSPropertyOp29
 70
     1
102
RTVSPropertyOp30
 70
     1
102
RTVSPropertyOp31
 70
     1
102
RTVSPropertyOp32
 70
     1
  0
XRECORD
  5
5E
102
{ACAD_REACTORS
330
5D
102
}
330
5D
100
AcDbXrecord
280
     1
102
RTVSPropertyOp0
 70
     1
102
RTVSPropertyOp1
 70
     1
102
RTVSPropertyOp2
 70
     1
102
RTVSPropertyOp3
 70
     1
102
RTVSPropertyOp4
 70
     1
102
RTVSPropertyOp5
 70
     1
102
RTVSPropertyOp6
 70
     1
102
RTVSPropertyOp7
 70
     1
102
RTVSPropertyOp8
 70
     1
102
RTVSPropertyOp9
 70
     1
102
RTVSPropertyOp10
 70
     1
102
RTVSPropertyOp11
 70
     1
102
RTVSPropertyOp12
 70
     1
102
RTVSPropertyOp13
 70
     1
102
RTVSPropertyOp14
 70
     1
102
RTVSPropertyOp15
 70
     1
102
RTVSPropertyOp16
 70
     1
102
RTVSPropertyOp17
 70
     1
102
RTVSPropertyOp18
 70
     1
102
RTVSPropertyOp19
 70
     1
102
RTVSPropertyOp20
 70
     1
102
RTVSPropertyOp21
 70
     1
102
RTVSPropertyOp22
 70
     1
102
RTVSPropertyOp23
 70
     1
102
RTVSPropertyOp24
 70
     1
102
RTVSPropertyOp25
 70
     1
102
RTVSPropertyOp26
 70
     1
102
RTVSPropertyOp27
 70
     1
102
RTVSPropertyOp28
 70
     1
102
RTVSPropertyOp29
 70
     1
102
RTVSPropertyOp30
 70
     1
102
RTVSPropertyOp31
 70
     1
102
RTVSPropertyOp32
 70
     1
  0
XRECORD
  5
54
102
{ACAD_REACTORS
330
53
102
}
330
53
100
AcDbXrecord
280
     1
102
RTVSPropertyOp0
 70
     1
102
RTVSPropertyOp1
 70
     1
102
RTVSPropertyOp2
 70
     1
102
RTVSPropertyOp3
 70
     1
102
RTVSPropertyOp4
 70
     1
102
RTVSPropertyOp5
 70
     1
102
RTVSPropertyOp6
 70
     1
102
RTVSPropertyOp7
 70
     1
102
RTVSPropertyOp8
 70
     1
102
RTVSPropertyOp9
 70
     1
102
RTVSPropertyOp10
 70
     1
102
RTVSPropertyOp11
 70
     1
102
RTVSPropertyOp12
 70
     1
102
RTVSPropertyOp13
 70
     1
102
RTVSPropertyOp14
 70
     1
102
RTVSPropertyOp15
 70
     1
102
RTVSPropertyOp16
 70
     1
102
RTVSPropertyOp17
 70
     1
102
RTVSPropertyOp18
 70
     1
102
RTVSPropertyOp19
 70
     1
102
RTVSPropertyOp20
 70
     1
102
RTVSPropertyOp21
 70
     1
102
RTVSPropertyOp22
 70
     1
102
RTVSPropertyOp23
 70
     1
102
RTVSPropertyOp24
 70
     1
102
RTVSPropertyOp25
 70
     1
102
RTVSPropertyOp26
 70
     1
102
RTVSPropertyOp27
 70
     1
102
RTVSPropertyOp28
 70
     1
102
RTVSPropertyOp29
 70
     1
102
RTVSPropertyOp30
 70
     1
102
RTVSPropertyOp31
 70
     1
102
RTVSPropertyOp32
 70
     1
  0
XRECORD
  5
5C
102
{ACAD_REACTORS
330
5B
102
}
330
5B
100
AcDbXrecord
280
     1
102
RTVSPropertyOp0
 70
     1
102
RTVSPropertyOp1
 70
     1
102
RTVSPropertyOp2
 70
     1
102
RTVSPropertyOp3
 70
     1
102
RTVSPropertyOp4
 70
     1
102
RTVSPropertyOp5
 70
     1
102
RTVSPropertyOp6
 70
     1
102
RTVSPropertyOp7
 70
     1
102
RTVSPropertyOp8
 70
     1
102
RTVSPropertyOp9
 70
     1
102
RTVSPropertyOp10
 70
     1
102
RTVSPropertyOp11
 70
     1
102
RTVSPropertyOp12
 70
     1
102
RTVSPropertyOp13
 70
     1
102
RTVSPropertyOp14
 70
     1
102
RTVSPropertyOp15
 70
     1
102
RTVSPropertyOp16
 70
     1
102
RTVSPropertyOp17
 70
     1
102
RTVSPropertyOp18
 70
     1
102
RTVSPropertyOp19
 70
     1
102
RTVSPropertyOp20
 70
     1
102
RTVSPropertyOp21
 70
     1
102
RTVSPropertyOp22
 70
     1
102
RTVSPropertyOp23
 70
     1
102
RTVSPropertyOp24
 70
     1
102
RTVSPropertyOp25
 70
     1
102
RTVSPropertyOp26
 70
     1
102
RTVSPropertyOp27
 70
     1
102
RTVSPropertyOp28
 70
     1
102
RTVSPropertyOp29
 70
     1
102
RTVSPropertyOp30
 70
     1
102
RTVSPropertyOp31
 70
     1
102
RTVSPropertyOp32
 70
     1
  0
ENDSEC
  0
EOF
