<?xml version="1.0" encoding="utf-8"?>
<!-- Generator: Adobe Illustrator 26.1.0, SVG Export Plug-In . SVG Version: 6.00 Build 0)  -->
<svg version="1.1" id="Layer_1" xmlns="http://www.w3.org/2000/svg" xmlns:xlink="http://www.w3.org/1999/xlink" x="0px" y="0px"
	 viewBox="0 0 1000 1000" style="enable-background:new 0 0 1000 1000;" xml:space="preserve">
<style type="text/css">
	.st0{fill:#231F20;}
</style>
<path class="st0" d="M863.12,755.78c28.72-55.85,44.93-119.19,44.93-186.32c0-194.6-136.22-357.36-318.51-398.18
	c-15.03-21.09-35.2-36.8-58.22-44.37c15.41-10.19,25.6-27.67,25.6-47.49c0-31.38-25.53-56.91-56.91-56.91
	c-31.38,0-56.91,25.53-56.91,56.91c0,19.82,10.19,37.3,25.6,47.49c-23.03,7.57-43.21,23.28-58.24,44.37
	C228.17,212.09,91.95,374.86,91.95,569.45C91.95,794.81,274.64,977.5,500,977.5c150.36,0,281.72-81.33,352.5-202.4
	c3.78-5.93,7.28-12.03,10.51-18.28C863.04,756.47,863.08,756.12,863.12,755.78z M630.33,927.1c-7.21,2.63-14.51,5.04-21.91,7.24
	c14.93-6.09,22.95-14.02,22.95-14.02S630.96,923.23,630.33,927.1z M721.08,799.72c-2.57-0.63-5.1-1.49-7.53-2.49
	c3.15-1.16,5.76-2.35,7.73-3.35C721.27,795.44,721.22,797.42,721.08,799.72z M819.89,744.36c1.47,4.5,3.76,12.7,4.82,22.52
	c-9.28-3.97-17.13-9.94-21.12-13.27c1.24-0.89,2.61-2.11,4-3.71c-0.21,1.82-0.54,3.53-1.01,5.11
	C812.73,751.09,817.14,747.15,819.89,744.36z M462.38,79.41c0-20.78,16.84-37.62,37.62-37.62s37.62,16.84,37.62,37.62
	c0,20.78-16.84,37.62-37.62,37.62S462.38,100.19,462.38,79.41z M119.45,569.45c0-210.17,170.38-380.55,380.55-380.55
	s380.55,170.38,380.55,380.55c0,34.38-4.56,67.7-13.11,99.38c-13.98-1.79-28.61-7.19-36.43-10.4c2-2.24,3.51-4.9,3.95-8.21
	c-8.14,4.77-28.48,0.97-60.65-15.22c15.93,32.75,18.33,51.98,14.9,63.46c2.64-1.68,5.02-3.41,7.13-5.39
	c3.72,10.3,11.01,32.45,11.51,49.54c-17.65-1.45-39.49-18.65-48.88-26.75c2.61-1.5,4.88-3.54,6.34-6.54
	c-9.23,1.95-27.33-8.07-52.74-33.6c4.77,36.1,0.98,55.11-5.9,64.92c3.03-0.76,5.84-1.65,8.47-2.87c0.31,12.44,0.17,40.89-7.03,56.93
	c-7.24-3.75-13.2-8.33-16.51-11.08c2.68-1.93,5.93-5.26,8.71-10.99c-18.26,1.58-43.14-17.98-53.34-26.77
	c2.61-1.5,4.88-3.54,6.34-6.54c-9.23,1.95-27.33-8.07-52.74-33.6c4.77,36.1,0.98,55.11-5.9,64.92c3.03-0.76,5.84-1.65,8.47-2.87
	c0.35,13.9,0.13,47.77-9.85,62.01c7.08-1.78,12.5-4.13,16-5.91c-0.06,9.35-1.59,33.37-14.68,52.04c10.27-2.59,16.51-6,19.9-8.35
	c0.38,8.75,0.59,43.25-17.75,70.03c-30.9,8.1-63.32,12.42-96.76,12.42C289.83,950.01,119.45,779.63,119.45,569.45z M661.61,914.08
	c-1.28,0.6-2.57,1.2-3.86,1.78c1.21-1.69,2.27-3.33,3.13-4.88C660.89,910.98,661.22,912.17,661.61,914.08z"/>
</svg>
