  0
SECTION
  2
HEADER
  9
$ACADVER
  1
AC1021
  9
$ACADMAINTVER
 70
    25
  9
$DWGCODEPAGE
  3
ANSI_1252
  9
$INSBASE
 10
0.0
 20
0.0
 30
0.0
  9
$EXTMIN
 10
-5.53033
 20
-5.5305
 30
0.0
  9
$EXTMAX
 10
5.53034
 20
5.53043
 30
0.0
  9
$LIMMIN
 10
0.0
 20
0.0
  9
$LIMMAX
 10
12.0
 20
9.0
  9
$ORTHOMODE
 70
     0
  9
$REGENMODE
 70
     1
  9
$FILLMODE
 70
     1
  9
$QTEXTMODE
 70
     0
  9
$MIRRTEXT
 70
     1
  9
$LTSCALE
 40
1.0
  9
$ATTMODE
 70
     1
  9
$TEXTSIZE
 40
0.2
  9
$TRACEWID
 40
0.05
  9
$TEXTSTYLE
  7
Standard
  9
$CLAYER
  8
0
  9
$CELTYPE
  6
ByLayer
  9
$CECOLOR
 62
   256
  9
$CELTSCALE
 40
1.0
  9
$DISPSILH
 70
     0
  9
$DIMSCALE
 40
1.0
  9
$DIMASZ
 40
0.18
  9
$DIMEXO
 40
0.0625
  9
$DIMDLI
 40
0.38
  9
$DIMRND
 40
0.0
  9
$DIMDLE
 40
0.0
  9
$DIMEXE
 40
0.18
  9
$DIMTP
 40
0.0
  9
$DIMTM
 40
0.0
  9
$DIMTXT
 40
0.18
  9
$DIMCEN
 40
0.09
  9
$DIMTSZ
 40
0.0
  9
$DIMTOL
 70
     0
  9
$DIMLIM
 70
     0
  9
$DIMTIH
 70
     1
  9
$DIMTOH
 70
     1
  9
$DIMSE1
 70
     0
  9
$DIMSE2
 70
     0
  9
$DIMTAD
 70
     0
  9
$DIMZIN
 70
     0
  9
$DIMBLK
  1

  9
$DIMASO
 70
     1
  9
$DIMSHO
 70
     1
  9
$DIMPOST
  1

  9
$DIMAPOST
  1

  9
$DIMALT
 70
     0
  9
$DIMALTD
 70
     2
  9
$DIMALTF
 40
25.4
  9
$DIMLFAC
 40
1.0
  9
$DIMTOFL
 70
     0
  9
$DIMTVP
 40
0.0
  9
$DIMTIX
 70
     0
  9
$DIMSOXD
 70
     0
  9
$DIMSAH
 70
     0
  9
$DIMBLK1
  1

  9
$DIMBLK2
  1

  9
$DIMSTYLE
  2
Standard
  9
$DIMCLRD
 70
     0
  9
$DIMCLRE
 70
     0
  9
$DIMCLRT
 70
     0
  9
$DIMTFAC
 40
1.0
  9
$DIMGAP
 40
0.09
  9
$DIMJUST
 70
     0
  9
$DIMSD1
 70
     0
  9
$DIMSD2
 70
     0
  9
$DIMTOLJ
 70
     1
  9
$DIMTZIN
 70
     0
  9
$DIMALTZ
 70
     0
  9
$DIMALTTZ
 70
     0
  9
$DIMUPT
 70
     0
  9
$DIMDEC
 70
     4
  9
$DIMTDEC
 70
     4
  9
$DIMALTU
 70
     2
  9
$DIMALTTD
 70
     2
  9
$DIMTXSTY
  7
Standard
  9
$DIMAUNIT
 70
     0
  9
$DIMADEC
 70
     0
  9
$DIMALTRND
 40
0.0
  9
$DIMAZIN
 70
     0
  9
$DIMDSEP
 70
    46
  9
$DIMATFIT
 70
     3
  9
$DIMFRAC
 70
     0
  9
$DIMLDRBLK
  1

  9
$DIMLUNIT
 70
     2
  9
$DIMLWD
 70
    -2
  9
$DIMLWE
 70
    -2
  9
$DIMTMOVE
 70
     0
  9
$DIMFXL
 40
1.0
  9
$DIMFXLON
 70
     0
  9
$DIMJOGANG
 40
0.7853981633974483
  9
$DIMTFILL
 70
     0
  9
$DIMTFILLCLR
 70
     0
  9
$DIMARCSYM
 70
     0
  9
$DIMLTYPE
  6

  9
$DIMLTEX1
  6

  9
$DIMLTEX2
  6

  9
$LUNITS
 70
     2
  9
$LUPREC
 70
     4
  9
$SKETCHINC
 40
0.1
  9
$FILLETRAD
 40
0.5
  9
$AUNITS
 70
     0
  9
$AUPREC
 70
     0
  9
$MENU
  1
.
  9
$ELEVATION
 40
0.0
  9
$PELEVATION
 40
0.0
  9
$THICKNESS
 40
0.0
  9
$LIMCHECK
 70
     0
  9
$CHAMFERA
 40
0.5
  9
$CHAMFERB
 40
0.5
  9
$CHAMFERC
 40
1.0
  9
$CHAMFERD
 40
0.0
  9
$SKPOLY
 70
     0
  9
$TDCREATE
 40
2456878.351818889
  9
$TDUCREATE
 40
2456878.476818889
  9
$TDUPDATE
 40
2456878.351819247
  9
$TDUUPDATE
 40
2456878.476819247
  9
$TDINDWG
 40
0.0000000116
  9
$TDUSRTIMER
 40
0.0000000116
  9
$USRTIMER
 70
     1
  9
$ANGBASE
 50
0.0
  9
$ANGDIR
 70
     0
  9
$PDMODE
 70
     0
  9
$PDSIZE
 40
0.0
  9
$PLINEWID
 40
0.0
  9
$SPLFRAME
 70
     0
  9
$SPLINETYPE
 70
     6
  9
$SPLINESEGS
 70
     8
  9
$HANDSEED
  5
65
  9
$SURFTAB1
 70
     6
  9
$SURFTAB2
 70
     6
  9
$SURFTYPE
 70
     6
  9
$SURFU
 70
     6
  9
$SURFV
 70
     6
  9
$UCSBASE
  2

  9
$UCSNAME
  2

  9
$UCSORG
 10
0.0
 20
0.0
 30
0.0
  9
$UCSXDIR
 10
1.0
 20
0.0
 30
0.0
  9
$UCSYDIR
 10
0.0
 20
1.0
 30
0.0
  9
$UCSORTHOREF
  2

  9
$UCSORTHOVIEW
 70
     0
  9
$UCSORGTOP
 10
0.0
 20
0.0
 30
0.0
  9
$UCSORGBOTTOM
 10
0.0
 20
0.0
 30
0.0
  9
$UCSORGLEFT
 10
0.0
 20
0.0
 30
0.0
  9
$UCSORGRIGHT
 10
0.0
 20
0.0
 30
0.0
  9
$UCSORGFRONT
 10
0.0
 20
0.0
 30
0.0
  9
$UCSORGBACK
 10
0.0
 20
0.0
 30
0.0
  9
$PUCSBASE
  2

  9
$PUCSNAME
  2

  9
$PUCSORG
 10
0.0
 20
0.0
 30
0.0
  9
$PUCSXDIR
 10
1.0
 20
0.0
 30
0.0
  9
$PUCSYDIR
 10
0.0
 20
1.0
 30
0.0
  9
$PUCSORTHOREF
  2

  9
$PUCSORTHOVIEW
 70
     0
  9
$PUCSORGTOP
 10
0.0
 20
0.0
 30
0.0
  9
$PUCSORGBOTTOM
 10
0.0
 20
0.0
 30
0.0
  9
$PUCSORGLEFT
 10
0.0
 20
0.0
 30
0.0
  9
$PUCSORGRIGHT
 10
0.0
 20
0.0
 30
0.0
  9
$PUCSORGFRONT
 10
0.0
 20
0.0
 30
0.0
  9
$PUCSORGBACK
 10
0.0
 20
0.0
 30
0.0
  9
$USERI1
 70
     0
  9
$USERI2
 70
     0
  9
$USERI3
 70
     0
  9
$USERI4
 70
     0
  9
$USERI5
 70
     0
  9
$USERR1
 40
0.0
  9
$USERR2
 40
0.0
  9
$USERR3
 40
0.0
  9
$USERR4
 40
0.0
  9
$USERR5
 40
0.0
  9
$WORLDVIEW
 70
     1
  9
$SHADEDGE
 70
     3
  9
$SHADEDIF
 70
    70
  9
$TILEMODE
 70
     1
  9
$MAXACTVP
 70
    64
  9
$PINSBASE
 10
0.0
 20
0.0
 30
0.0
  9
$PLIMCHECK
 70
     0
  9
$PEXTMIN
 10
1.000000000000000E+20
 20
1.000000000000000E+20
 30
1.000000000000000E+20
  9
$PEXTMAX
 10
-1.000000000000000E+20
 20
-1.000000000000000E+20
 30
-1.000000000000000E+20
  9
$PLIMMIN
 10
0.0
 20
0.0
  9
$PLIMMAX
 10
12.0
 20
9.0
  9
$UNITMODE
 70
     0
  9
$VISRETAIN
 70
     1
  9
$PLINEGEN
 70
     0
  9
$PSLTSCALE
 70
     1
  9
$TREEDEPTH
 70
  3020
  9
$CMLSTYLE
  2
Standard
  9
$CMLJUST
 70
     0
  9
$CMLSCALE
 40
1.0
  9
$PROXYGRAPHICS
 70
     1
  9
$MEASUREMENT
 70
     0
  9
$CELWEIGHT
370
    -1
  9
$ENDCAPS
280
     0
  9
$JOINSTYLE
280
     0
  9
$LWDISPLAY
290
     0
  9
$INSUNITS
 70
     5
  9
$HYPERLINKBASE
  1

  9
$STYLESHEET
  1

  9
$XEDIT
290
     1
  9
$CEPSNTYPE
380
     0
  9
$PSTYLEMODE
290
     1
  9
$FINGERPRINTGUID
  2
{A01B18D5-A523-4B58-9200-EC06A01BA01E}
  9
$VERSIONGUID
  2
{FAEB1C32-E019-11D5-929B-00C0DF256EC4}
  9
$EXTNAMES
290
     1
  9
$PSVPSCALE
 40
0.0
  9
$OLESTARTUP
290
     0
  9
$SORTENTS
280
   127
  9
$INDEXCTL
280
     0
  9
$HIDETEXT
280
     1
  9
$XCLIPFRAME
290
     0
  9
$HALOGAP
280
     0
  9
$OBSCOLOR
 70
   257
  9
$OBSLTYPE
280
     0
  9
$INTERSECTIONDISPLAY
280
     0
  9
$INTERSECTIONCOLOR
 70
   257
  9
$DIMASSOC
280
     2
  9
$PROJECTNAME
  1

  9
$CAMERADISPLAY
290
     0
  9
$LENSLENGTH
 40
50.0
  9
$CAMERAHEIGHT
 40
0.0
  9
$STEPSPERSEC
 40
2.0
  9
$STEPSIZE
 40
6.0
  9
$3DDWFPREC
 40
2.0
  9
$PSOLWIDTH
 40
0.25
  9
$PSOLHEIGHT
 40
4.0
  9
$LOFTANG1
 40
1.570796326794897
  9
$LOFTANG2
 40
1.570796326794897
  9
$LOFTMAG1
 40
0.0
  9
$LOFTMAG2
 40
0.0
  9
$LOFTPARAM
 70
     7
  9
$LOFTNORMALS
280
     1
  9
$LATITUDE
 40
37.795
  9
$LONGITUDE
 40
-122.394
  9
$NORTHDIRECTION
 40
0.0
  9
$TIMEZONE
 70
 -8000
  9
$LIGHTGLYPHDISPLAY
280
     1
  9
$TILEMODELIGHTSYNCH
280
     1
  9
$SOLIDHIST
280
     1
  9
$SHOWHIST
280
     1
  9
$DWFFRAME
280
     2
  9
$DGNFRAME
280
     2
  9
$REALWORLDSCALE
290
     1
  9
$INTERFERECOLOR
 62
   256
  9
$CSHADOW
280
     0
  9
$SHADOWPLANELOCATION
 40
0.0
  0
ENDSEC
  0
SECTION
  2
CLASSES
  0
CLASS
  1
ACDBDICTIONARYWDFLT
  2
AcDbDictionaryWithDefault
  3
ObjectDBX Classes
 90
        0
 91
        4
280
     0
281
     0
  0
CLASS
  1
VISUALSTYLE
  2
AcDbVisualStyle
  3
ObjectDBX Classes
 90
     4095
 91
        4
280
     0
281
     0
  0
CLASS
  1
MATERIAL
  2
AcDbMaterial
  3
ObjectDBX Classes
 90
     1153
 91
        4
280
     0
281
     0
  0
ENDSEC
  0
SECTION
  2
TABLES
  0
TABLE
  2
VPORT
  5
8
330
0
100
AcDbSymbolTable
 70
     1
  0
VPORT
  5
29
330
8
100
AcDbSymbolTableRecord
100
AcDbViewportTableRecord
  2
*Active
 70
     0
 10
0.0
 20
0.0
 11
1.0
 21
1.0
 12
10.42990654205607
 22
4.5
 13
0.0
 23
0.0
 14
0.5
 24
0.5
 15
0.5
 25
0.5
 16
0.0
 26
0.0
 36
1.0
 17
0.0
 27
0.0
 37
0.0
 40
9.0
 41
1.972972972850329
 42
50.0
 43
0.0
 44
0.0
 50
0.0
 51
0.0
 71
     0
 72
   100
 73
     1
 74
     3
 75
     0
 76
     0
 77
     0
 78
     0
281
     0
 65
     1
110
0.0
120
0.0
130
0.0
111
1.0
121
0.0
131
0.0
112
0.0
122
1.0
132
0.0
 79
     0
146
0.0
 60
     3
 61
     5
292
     1
282
     1
141
0.0
142
0.0
 63
   250
  0
ENDTAB
  0
TABLE
  2
LTYPE
  5
5
330
0
100
AcDbSymbolTable
 70
     1
  0
LTYPE
  5
14
330
5
100
AcDbSymbolTableRecord
100
AcDbLinetypeTableRecord
  2
ByBlock
 70
     0
  3

 72
    65
 73
     0
 40
0.0
  0
LTYPE
  5
15
330
5
100
AcDbSymbolTableRecord
100
AcDbLinetypeTableRecord
  2
ByLayer
 70
     0
  3

 72
    65
 73
     0
 40
0.0
  0
LTYPE
  5
16
330
5
100
AcDbSymbolTableRecord
100
AcDbLinetypeTableRecord
  2
Continuous
 70
     0
  3
Solid line
 72
    65
 73
     0
 40
0.0
  0
ENDTAB
  0
TABLE
  2
LAYER
  5
2
330
0
100
AcDbSymbolTable
 70
     2
  0
LAYER
  5
10
330
2
100
AcDbSymbolTableRecord
100
AcDbLayerTableRecord
  2
0
 70
     0
 62
     7
  6
Continuous
370
    -3
390
F
347
3E
  0
LAYER
  5
40
330
2
100
AcDbSymbolTableRecord
100
AcDbLayerTableRecord
  2
Camada 1
 70
     0
 62
     7
  6
Continuous
370
    -3
390
F
347
3E
  0
ENDTAB
  0
TABLE
  2
STYLE
  5
3
330
0
100
AcDbSymbolTable
 70
     1
  0
STYLE
  5
11
330
3
100
AcDbSymbolTableRecord
100
AcDbTextStyleTableRecord
  2
Standard
 70
     0
 40
0.0
 41
1.0
 50
0.0
 71
     0
 42
0.2
  3
txt
  4

  0
ENDTAB
  0
TABLE
  2
VIEW
  5
6
330
0
100
AcDbSymbolTable
 70
     0
  0
ENDTAB
  0
TABLE
  2
UCS
  5
7
330
0
100
AcDbSymbolTable
 70
     0
  0
ENDTAB
  0
TABLE
  2
APPID
  5
9
330
0
100
AcDbSymbolTable
 70
     2
  0
APPID
  5
12
330
9
100
AcDbSymbolTableRecord
100
AcDbRegAppTableRecord
  2
ACAD
 70
     0
  0
APPID
  5
3F
330
9
100
AcDbSymbolTableRecord
100
AcDbRegAppTableRecord
  2
ODA
 70
     0
  0
ENDTAB
  0
TABLE
  2
DIMSTYLE
  5
A
330
0
100
AcDbSymbolTable
 70
     1
100
AcDbDimStyleTable
  0
DIMSTYLE
105
27
330
A
100
AcDbSymbolTableRecord
100
AcDbDimStyleTableRecord
  2
Standard
 70
     0
178
     0
340
11
  0
ENDTAB
  0
TABLE
  2
BLOCK_RECORD
  5
1
330
0
100
AcDbSymbolTable
 70
     1
  0
BLOCK_RECORD
  5
1F
330
1
100
AcDbSymbolTableRecord
100
AcDbBlockTableRecord
  2
*Model_Space
340
22
 70
     0
280
     1
281
     0
  0
BLOCK_RECORD
  5
1B
330
1
100
AcDbSymbolTableRecord
100
AcDbBlockTableRecord
  2
*Paper_Space
340
1E
 70
     0
280
     1
281
     0
  0
BLOCK_RECORD
  5
23
330
1
100
AcDbSymbolTableRecord
100
AcDbBlockTableRecord
  2
*Paper_Space0
340
26
 70
     0
280
     1
281
     0
  0
ENDTAB
  0
ENDSEC
  0
SECTION
  2
BLOCKS
  0
BLOCK
  5
20
330
1F
100
AcDbEntity
  8
0
100
AcDbBlockBegin
  2
*Model_Space
 70
     0
 10
0.0
 20
0.0
 30
0.0
  3
*Model_Space
  1

  0
ENDBLK
  5
21
330
1F
100
AcDbEntity
  8
0
100
AcDbBlockEnd
  0
BLOCK
  5
1C
330
1B
100
AcDbEntity
 67
     1
  8
0
100
AcDbBlockBegin
  2
*Paper_Space
 70
     0
 10
0.0
 20
0.0
 30
0.0
  3
*Paper_Space
  1

  0
ENDBLK
  5
1D
330
1B
100
AcDbEntity
 67
     1
  8
0
100
AcDbBlockEnd
  0
BLOCK
  5
24
330
23
100
AcDbEntity
  8
0
100
AcDbBlockBegin
  2
*Paper_Space0
 70
     0
 10
0.0
 20
0.0
 30
0.0
  3
*Paper_Space0
  1

  0
ENDBLK
  5
25
330
23
100
AcDbEntity
  8
0
100
AcDbBlockEnd
  0
ENDSEC
  0
SECTION
  2
ENTITIES
  0
SPLINE
  5
41
330
1F
100
AcDbEntity
  8
Camada 1
100
AcDbSpline
210
0.0
220
0.0
230
1.0
 70
    11
 71
     3
 72
   776
 73
   772
 74
     0
 42
0.0000000001
 43
0.0000000001
 12
1.0
 22
0.0
 32
0.0
 13
1.0
 23
0.0
 33
0.0
 40
0.0
 40
0.0
 40
0.0
 40
0.0
 40
0.0051546391752577
 40
0.0051546391752577
 40
0.0051546391752577
 40
0.0051546391752577
 40
0.0103092783505155
 40
0.0103092783505155
 40
0.0103092783505155
 40
0.0103092783505155
 40
0.0154639175257732
 40
0.0154639175257732
 40
0.0154639175257732
 40
0.0154639175257732
 40
0.0206185567010309
 40
0.0206185567010309
 40
0.0206185567010309
 40
0.0206185567010309
 40
0.0257731958762887
 40
0.0257731958762887
 40
0.0257731958762887
 40
0.0257731958762887
 40
0.0309278350515464
 40
0.0309278350515464
 40
0.0309278350515464
 40
0.0309278350515464
 40
0.0360824742268041
 40
0.0360824742268041
 40
0.0360824742268041
 40
0.0360824742268041
 40
0.0412371134020619
 40
0.0412371134020619
 40
0.0412371134020619
 40
0.0412371134020619
 40
0.0463917525773196
 40
0.0463917525773196
 40
0.0463917525773196
 40
0.0463917525773196
 40
0.0515463917525773
 40
0.0515463917525773
 40
0.0515463917525773
 40
0.0515463917525773
 40
0.0567010309278351
 40
0.0567010309278351
 40
0.0567010309278351
 40
0.0567010309278351
 40
0.0618556701030928
 40
0.0618556701030928
 40
0.0618556701030928
 40
0.0618556701030928
 40
0.0670103092783505
 40
0.0670103092783505
 40
0.0670103092783505
 40
0.0670103092783505
 40
0.0721649484536082
 40
0.0721649484536082
 40
0.0721649484536082
 40
0.0721649484536082
 40
0.077319587628866
 40
0.077319587628866
 40
0.077319587628866
 40
0.077319587628866
 40
0.0824742268041237
 40
0.0824742268041237
 40
0.0824742268041237
 40
0.0824742268041237
 40
0.0876288659793814
 40
0.0876288659793814
 40
0.0876288659793814
 40
0.0876288659793814
 40
0.0927835051546392
 40
0.0927835051546392
 40
0.0927835051546392
 40
0.0927835051546392
 40
0.0979381443298969
 40
0.0979381443298969
 40
0.0979381443298969
 40
0.0979381443298969
 40
0.1030927835051546
 40
0.1030927835051546
 40
0.1030927835051546
 40
0.1030927835051546
 40
0.1082474226804124
 40
0.1082474226804124
 40
0.1082474226804124
 40
0.1082474226804124
 40
0.1134020618556701
 40
0.1134020618556701
 40
0.1134020618556701
 40
0.1134020618556701
 40
0.1185567010309278
 40
0.1185567010309278
 40
0.1185567010309278
 40
0.1185567010309278
 40
0.1237113402061856
 40
0.1237113402061856
 40
0.1237113402061856
 40
0.1237113402061856
 40
0.1288659793814433
 40
0.1288659793814433
 40
0.1288659793814433
 40
0.1288659793814433
 40
0.134020618556701
 40
0.134020618556701
 40
0.134020618556701
 40
0.134020618556701
 40
0.1391752577319588
 40
0.1391752577319588
 40
0.1391752577319588
 40
0.1391752577319588
 40
0.1443298969072165
 40
0.1443298969072165
 40
0.1443298969072165
 40
0.1443298969072165
 40
0.1494845360824742
 40
0.1494845360824742
 40
0.1494845360824742
 40
0.1494845360824742
 40
0.154639175257732
 40
0.154639175257732
 40
0.154639175257732
 40
0.154639175257732
 40
0.1597938144329897
 40
0.1597938144329897
 40
0.1597938144329897
 40
0.1597938144329897
 40
0.1649484536082474
 40
0.1649484536082474
 40
0.1649484536082474
 40
0.1649484536082474
 40
0.1701030927835052
 40
0.1701030927835052
 40
0.1701030927835052
 40
0.1701030927835052
 40
0.1752577319587629
 40
0.1752577319587629
 40
0.1752577319587629
 40
0.1752577319587629
 40
0.1804123711340206
 40
0.1804123711340206
 40
0.1804123711340206
 40
0.1804123711340206
 40
0.1855670103092784
 40
0.1855670103092784
 40
0.1855670103092784
 40
0.1855670103092784
 40
0.1907216494845361
 40
0.1907216494845361
 40
0.1907216494845361
 40
0.1907216494845361
 40
0.1958762886597938
 40
0.1958762886597938
 40
0.1958762886597938
 40
0.1958762886597938
 40
0.2010309278350516
 40
0.2010309278350516
 40
0.2010309278350516
 40
0.2010309278350516
 40
0.2061855670103093
 40
0.2061855670103093
 40
0.2061855670103093
 40
0.2061855670103093
 40
0.211340206185567
 40
0.211340206185567
 40
0.211340206185567
 40
0.211340206185567
 40
0.2164948453608248
 40
0.2164948453608248
 40
0.2164948453608248
 40
0.2164948453608248
 40
0.2216494845360825
 40
0.2216494845360825
 40
0.2216494845360825
 40
0.2216494845360825
 40
0.2268041237113402
 40
0.2268041237113402
 40
0.2268041237113402
 40
0.2268041237113402
 40
0.2319587628865979
 40
0.2319587628865979
 40
0.2319587628865979
 40
0.2319587628865979
 40
0.2371134020618557
 40
0.2371134020618557
 40
0.2371134020618557
 40
0.2371134020618557
 40
0.2422680412371134
 40
0.2422680412371134
 40
0.2422680412371134
 40
0.2422680412371134
 40
0.2474226804123711
 40
0.2474226804123711
 40
0.2474226804123711
 40
0.2474226804123711
 40
0.2525773195876289
 40
0.2525773195876289
 40
0.2525773195876289
 40
0.2525773195876289
 40
0.2577319587628866
 40
0.2577319587628866
 40
0.2577319587628866
 40
0.2577319587628866
 40
0.2628865979381443
 40
0.2628865979381443
 40
0.2628865979381443
 40
0.2628865979381443
 40
0.2680412371134021
 40
0.2680412371134021
 40
0.2680412371134021
 40
0.2680412371134021
 40
0.2731958762886598
 40
0.2731958762886598
 40
0.2731958762886598
 40
0.2731958762886598
 40
0.2783505154639175
 40
0.2783505154639175
 40
0.2783505154639175
 40
0.2783505154639175
 40
0.2835051546391752
 40
0.2835051546391752
 40
0.2835051546391752
 40
0.2835051546391752
 40
0.288659793814433
 40
0.288659793814433
 40
0.288659793814433
 40
0.288659793814433
 40
0.2938144329896907
 40
0.2938144329896907
 40
0.2938144329896907
 40
0.2938144329896907
 40
0.2989690721649484
 40
0.2989690721649484
 40
0.2989690721649484
 40
0.2989690721649484
 40
0.3041237113402062
 40
0.3041237113402062
 40
0.3041237113402062
 40
0.3041237113402062
 40
0.3092783505154639
 40
0.3092783505154639
 40
0.3092783505154639
 40
0.3092783505154639
 40
0.3144329896907216
 40
0.3144329896907216
 40
0.3144329896907216
 40
0.3144329896907216
 40
0.3195876288659794
 40
0.3195876288659794
 40
0.3195876288659794
 40
0.3195876288659794
 40
0.3247422680412371
 40
0.3247422680412371
 40
0.3247422680412371
 40
0.3247422680412371
 40
0.3298969072164948
 40
0.3298969072164948
 40
0.3298969072164948
 40
0.3298969072164948
 40
0.3350515463917526
 40
0.3350515463917526
 40
0.3350515463917526
 40
0.3350515463917526
 40
0.3402061855670103
 40
0.3402061855670103
 40
0.3402061855670103
 40
0.3402061855670103
 40
0.345360824742268
 40
0.345360824742268
 40
0.345360824742268
 40
0.345360824742268
 40
0.3505154639175257
 40
0.3505154639175257
 40
0.3505154639175257
 40
0.3505154639175257
 40
0.3556701030927835
 40
0.3556701030927835
 40
0.3556701030927835
 40
0.3556701030927835
 40
0.3608247422680412
 40
0.3608247422680412
 40
0.3608247422680412
 40
0.3608247422680412
 40
0.3659793814432989
 40
0.3659793814432989
 40
0.3659793814432989
 40
0.3659793814432989
 40
0.3711340206185567
 40
0.3711340206185567
 40
0.3711340206185567
 40
0.3711340206185567
 40
0.3762886597938144
 40
0.3762886597938144
 40
0.3762886597938144
 40
0.3762886597938144
 40
0.3814432989690721
 40
0.3814432989690721
 40
0.3814432989690721
 40
0.3814432989690721
 40
0.3865979381443299
 40
0.3865979381443299
 40
0.3865979381443299
 40
0.3865979381443299
 40
0.3917525773195876
 40
0.3917525773195876
 40
0.3917525773195876
 40
0.3917525773195876
 40
0.3969072164948453
 40
0.3969072164948453
 40
0.3969072164948453
 40
0.3969072164948453
 40
0.4020618556701031
 40
0.4020618556701031
 40
0.4020618556701031
 40
0.4020618556701031
 40
0.4072164948453608
 40
0.4072164948453608
 40
0.4072164948453608
 40
0.4072164948453608
 40
0.4123711340206185
 40
0.4123711340206185
 40
0.4123711340206185
 40
0.4123711340206185
 40
0.4175257731958763
 40
0.4175257731958763
 40
0.4175257731958763
 40
0.4175257731958763
 40
0.422680412371134
 40
0.422680412371134
 40
0.422680412371134
 40
0.422680412371134
 40
0.4278350515463917
 40
0.4278350515463917
 40
0.4278350515463917
 40
0.4278350515463917
 40
0.4329896907216495
 40
0.4329896907216495
 40
0.4329896907216495
 40
0.4329896907216495
 40
0.4381443298969072
 40
0.4381443298969072
 40
0.4381443298969072
 40
0.4381443298969072
 40
0.4432989690721649
 40
0.4432989690721649
 40
0.4432989690721649
 40
0.4432989690721649
 40
0.4484536082474227
 40
0.4484536082474227
 40
0.4484536082474227
 40
0.4484536082474227
 40
0.4536082474226804
 40
0.4536082474226804
 40
0.4536082474226804
 40
0.4536082474226804
 40
0.4587628865979381
 40
0.4587628865979381
 40
0.4587628865979381
 40
0.4587628865979381
 40
0.4639175257731959
 40
0.4639175257731959
 40
0.4639175257731959
 40
0.4639175257731959
 40
0.4690721649484536
 40
0.4690721649484536
 40
0.4690721649484536
 40
0.4690721649484536
 40
0.4742268041237113
 40
0.4742268041237113
 40
0.4742268041237113
 40
0.4742268041237113
 40
0.4793814432989691
 40
0.4793814432989691
 40
0.4793814432989691
 40
0.4793814432989691
 40
0.4845360824742268
 40
0.4845360824742268
 40
0.4845360824742268
 40
0.4845360824742268
 40
0.4896907216494845
 40
0.4896907216494845
 40
0.4896907216494845
 40
0.4896907216494845
 40
0.4948453608247423
 40
0.4948453608247423
 40
0.4948453608247423
 40
0.4948453608247423
 40
0.5
 40
0.5
 40
0.5
 40
0.5
 40
0.5051546391752577
 40
0.5051546391752577
 40
0.5051546391752577
 40
0.5051546391752577
 40
0.5103092783505154
 40
0.5103092783505154
 40
0.5103092783505154
 40
0.5103092783505154
 40
0.5154639175257731
 40
0.5154639175257731
 40
0.5154639175257731
 40
0.5154639175257731
 40
0.520618556701031
 40
0.520618556701031
 40
0.520618556701031
 40
0.520618556701031
 40
0.5257731958762887
 40
0.5257731958762887
 40
0.5257731958762887
 40
0.5257731958762887
 40
0.5309278350515464
 40
0.5309278350515464
 40
0.5309278350515464
 40
0.5309278350515464
 40
0.5360824742268041
 40
0.5360824742268041
 40
0.5360824742268041
 40
0.5360824742268041
 40
0.5412371134020618
 40
0.5412371134020618
 40
0.5412371134020618
 40
0.5412371134020618
 40
0.5463917525773195
 40
0.5463917525773195
 40
0.5463917525773195
 40
0.5463917525773195
 40
0.5515463917525774
 40
0.5515463917525774
 40
0.5515463917525774
 40
0.5515463917525774
 40
0.5567010309278351
 40
0.5567010309278351
 40
0.5567010309278351
 40
0.5567010309278351
 40
0.5618556701030928
 40
0.5618556701030928
 40
0.5618556701030928
 40
0.5618556701030928
 40
0.5670103092783505
 40
0.5670103092783505
 40
0.5670103092783505
 40
0.5670103092783505
 40
0.5721649484536082
 40
0.5721649484536082
 40
0.5721649484536082
 40
0.5721649484536082
 40
0.5773195876288659
 40
0.5773195876288659
 40
0.5773195876288659
 40
0.5773195876288659
 40
0.5824742268041238
 40
0.5824742268041238
 40
0.5824742268041238
 40
0.5824742268041238
 40
0.5876288659793815
 40
0.5876288659793815
 40
0.5876288659793815
 40
0.5876288659793815
 40
0.5927835051546392
 40
0.5927835051546392
 40
0.5927835051546392
 40
0.5927835051546392
 40
0.5979381443298969
 40
0.5979381443298969
 40
0.5979381443298969
 40
0.5979381443298969
 40
0.6030927835051546
 40
0.6030927835051546
 40
0.6030927835051546
 40
0.6030927835051546
 40
0.6082474226804123
 40
0.6082474226804123
 40
0.6082474226804123
 40
0.6082474226804123
 40
0.6134020618556701
 40
0.6134020618556701
 40
0.6134020618556701
 40
0.6134020618556701
 40
0.6185567010309279
 40
0.6185567010309279
 40
0.6185567010309279
 40
0.6185567010309279
 40
0.6237113402061856
 40
0.6237113402061856
 40
0.6237113402061856
 40
0.6237113402061856
 40
0.6288659793814433
 40
0.6288659793814433
 40
0.6288659793814433
 40
0.6288659793814433
 40
0.634020618556701
 40
0.634020618556701
 40
0.634020618556701
 40
0.634020618556701
 40
0.6391752577319587
 40
0.6391752577319587
 40
0.6391752577319587
 40
0.6391752577319587
 40
0.6443298969072165
 40
0.6443298969072165
 40
0.6443298969072165
 40
0.6443298969072165
 40
0.6494845360824743
 40
0.6494845360824743
 40
0.6494845360824743
 40
0.6494845360824743
 40
0.654639175257732
 40
0.654639175257732
 40
0.654639175257732
 40
0.654639175257732
 40
0.6597938144329897
 40
0.6597938144329897
 40
0.6597938144329897
 40
0.6597938144329897
 40
0.6649484536082474
 40
0.6649484536082474
 40
0.6649484536082474
 40
0.6649484536082474
 40
0.6701030927835051
 40
0.6701030927835051
 40
0.6701030927835051
 40
0.6701030927835051
 40
0.6752577319587629
 40
0.6752577319587629
 40
0.6752577319587629
 40
0.6752577319587629
 40
0.6804123711340206
 40
0.6804123711340206
 40
0.6804123711340206
 40
0.6804123711340206
 40
0.6855670103092784
 40
0.6855670103092784
 40
0.6855670103092784
 40
0.6855670103092784
 40
0.6907216494845361
 40
0.6907216494845361
 40
0.6907216494845361
 40
0.6907216494845361
 40
0.6958762886597938
 40
0.6958762886597938
 40
0.6958762886597938
 40
0.6958762886597938
 40
0.7010309278350515
 40
0.7010309278350515
 40
0.7010309278350515
 40
0.7010309278350515
 40
0.7061855670103093
 40
0.7061855670103093
 40
0.7061855670103093
 40
0.7061855670103093
 40
0.711340206185567
 40
0.711340206185567
 40
0.711340206185567
 40
0.711340206185567
 40
0.7164948453608248
 40
0.7164948453608248
 40
0.7164948453608248
 40
0.7164948453608248
 40
0.7216494845360825
 40
0.7216494845360825
 40
0.7216494845360825
 40
0.7216494845360825
 40
0.7268041237113402
 40
0.7268041237113402
 40
0.7268041237113402
 40
0.7268041237113402
 40
0.7319587628865979
 40
0.7319587628865979
 40
0.7319587628865979
 40
0.7319587628865979
 40
0.7371134020618557
 40
0.7371134020618557
 40
0.7371134020618557
 40
0.7371134020618557
 40
0.7422680412371134
 40
0.7422680412371134
 40
0.7422680412371134
 40
0.7422680412371134
 40
0.7474226804123711
 40
0.7474226804123711
 40
0.7474226804123711
 40
0.7474226804123711
 40
0.7525773195876289
 40
0.7525773195876289
 40
0.7525773195876289
 40
0.7525773195876289
 40
0.7577319587628866
 40
0.7577319587628866
 40
0.7577319587628866
 40
0.7577319587628866
 40
0.7628865979381443
 40
0.7628865979381443
 40
0.7628865979381443
 40
0.7628865979381443
 40
0.7680412371134021
 40
0.7680412371134021
 40
0.7680412371134021
 40
0.7680412371134021
 40
0.7731958762886598
 40
0.7731958762886598
 40
0.7731958762886598
 40
0.7731958762886598
 40
0.7783505154639175
 40
0.7783505154639175
 40
0.7783505154639175
 40
0.7783505154639175
 40
0.7835051546391752
 40
0.7835051546391752
 40
0.7835051546391752
 40
0.7835051546391752
 40
0.788659793814433
 40
0.788659793814433
 40
0.788659793814433
 40
0.788659793814433
 40
0.7938144329896907
 40
0.7938144329896907
 40
0.7938144329896907
 40
0.7938144329896907
 40
0.7989690721649485
 40
0.7989690721649485
 40
0.7989690721649485
 40
0.7989690721649485
 40
0.8041237113402062
 40
0.8041237113402062
 40
0.8041237113402062
 40
0.8041237113402062
 40
0.8092783505154639
 40
0.8092783505154639
 40
0.8092783505154639
 40
0.8092783505154639
 40
0.8144329896907216
 40
0.8144329896907216
 40
0.8144329896907216
 40
0.8144329896907216
 40
0.8195876288659794
 40
0.8195876288659794
 40
0.8195876288659794
 40
0.8195876288659794
 40
0.8247422680412371
 40
0.8247422680412371
 40
0.8247422680412371
 40
0.8247422680412371
 40
0.8298969072164949
 40
0.8298969072164949
 40
0.8298969072164949
 40
0.8298969072164949
 40
0.8350515463917526
 40
0.8350515463917526
 40
0.8350515463917526
 40
0.8350515463917526
 40
0.8402061855670103
 40
0.8402061855670103
 40
0.8402061855670103
 40
0.8402061855670103
 40
0.845360824742268
 40
0.845360824742268
 40
0.845360824742268
 40
0.845360824742268
 40
0.8505154639175257
 40
0.8505154639175257
 40
0.8505154639175257
 40
0.8505154639175257
 40
0.8556701030927835
 40
0.8556701030927835
 40
0.8556701030927835
 40
0.8556701030927835
 40
0.8608247422680413
 40
0.8608247422680413
 40
0.8608247422680413
 40
0.8608247422680413
 40
0.865979381443299
 40
0.865979381443299
 40
0.865979381443299
 40
0.865979381443299
 40
0.8711340206185567
 40
0.8711340206185567
 40
0.8711340206185567
 40
0.8711340206185567
 40
0.8762886597938144
 40
0.8762886597938144
 40
0.8762886597938144
 40
0.8762886597938144
 40
0.8814432989690721
 40
0.8814432989690721
 40
0.8814432989690721
 40
0.8814432989690721
 40
0.8865979381443299
 40
0.8865979381443299
 40
0.8865979381443299
 40
0.8865979381443299
 40
0.8917525773195877
 40
0.8917525773195877
 40
0.8917525773195877
 40
0.8917525773195877
 40
0.8969072164948454
 40
0.8969072164948454
 40
0.8969072164948454
 40
0.8969072164948454
 40
0.9020618556701031
 40
0.9020618556701031
 40
0.9020618556701031
 40
0.9020618556701031
 40
0.9072164948453608
 40
0.9072164948453608
 40
0.9072164948453608
 40
0.9072164948453608
 40
0.9123711340206185
 40
0.9123711340206185
 40
0.9123711340206185
 40
0.9123711340206185
 40
0.9175257731958762
 40
0.9175257731958762
 40
0.9175257731958762
 40
0.9175257731958762
 40
0.9226804123711341
 40
0.9226804123711341
 40
0.9226804123711341
 40
0.9226804123711341
 40
0.9278350515463918
 40
0.9278350515463918
 40
0.9278350515463918
 40
0.9278350515463918
 40
0.9329896907216495
 40
0.9329896907216495
 40
0.9329896907216495
 40
0.9329896907216495
 40
0.9381443298969072
 40
0.9381443298969072
 40
0.9381443298969072
 40
0.9381443298969072
 40
0.9432989690721649
 40
0.9432989690721649
 40
0.9432989690721649
 40
0.9432989690721649
 40
0.9484536082474226
 40
0.9484536082474226
 40
0.9484536082474226
 40
0.9484536082474226
 40
0.9536082474226805
 40
0.9536082474226805
 40
0.9536082474226805
 40
0.9536082474226805
 40
0.9587628865979382
 40
0.9587628865979382
 40
0.9587628865979382
 40
0.9587628865979382
 40
0.9639175257731959
 40
0.9639175257731959
 40
0.9639175257731959
 40
0.9639175257731959
 40
0.9690721649484536
 40
0.9690721649484536
 40
0.9690721649484536
 40
0.9690721649484536
 40
0.9742268041237113
 40
0.9742268041237113
 40
0.9742268041237113
 40
0.9742268041237113
 40
0.979381443298969
 40
0.979381443298969
 40
0.979381443298969
 40
0.979381443298969
 40
0.9845360824742269
 40
0.9845360824742269
 40
0.9845360824742269
 40
0.9845360824742269
 40
0.9896907216494846
 40
0.9896907216494846
 40
0.9896907216494846
 40
0.9896907216494846
 40
1.0
 40
1.0
 40
1.0
 40
1.0
 10
5.29991
 20
-5.53043
 30
0.0
 10
5.4272
 20
-5.53043
 30
0.0
 10
5.53034
 20
-5.4273
 30
0.0
 10
5.53034
 20
-5.3
 30
0.0
 10
5.53034
 20
-5.3
 30
0.0
 10
5.53034
 20
-5.1727
 30
0.0
 10
5.42721
 20
-5.06957
 30
0.0
 10
5.29991
 20
-5.06957
 30
0.0
 10
5.29991
 20
-5.06957
 30
0.0
 10
5.4272
 20
-5.06957
 30
0.0
 10
5.53034
 20
-4.96641
 30
0.0
 10
5.53034
 20
-4.83912
 30
0.0
 10
5.53034
 20
-4.83912
 30
0.0
 10
5.53034
 20
-4.71186
 30
0.0
 10
5.42721
 20
-4.60869
 30
0.0
 10
5.29991
 20
-4.60869
 30
0.0
 10
5.29991
 20
-4.60869
 30
0.0
 10
5.4272
 20
-4.60869
 30
0.0
 10
5.53034
 20
-4.50553
 30
0.0
 10
5.53034
 20
-4.37826
 30
0.0
 10
5.53034
 20
-4.37826
 30
0.0
 10
5.53034
 20
-4.25097
 30
0.0
 10
5.42721
 20
-4.14781
 30
0.0
 10
5.29991
 20
-4.14781
 30
0.0
 10
5.29991
 20
-4.14781
 30
0.0
 10
5.4272
 20
-4.14781
 30
0.0
 10
5.53034
 20
-4.04465
 30
0.0
 10
5.53034
 20
-3.91738
 30
0.0
 10
5.53034
 20
-3.91738
 30
0.0
 10
5.53034
 20
-3.79009
 30
0.0
 10
5.42721
 20
-3.68693
 30
0.0
 10
5.29991
 20
-3.68693
 30
0.0
 10
5.29991
 20
-3.68693
 30
0.0
 10
5.4272
 20
-3.68693
 30
0.0
 10
5.53034
 20
-3.5838
 30
0.0
 10
5.53034
 20
-3.4565
 30
0.0
 10
5.53034
 20
-3.4565
 30
0.0
 10
5.53034
 20
-3.32924
 30
0.0
 10
5.42721
 20
-3.22607
 30
0.0
 10
5.29991
 20
-3.22607
 30
0.0
 10
5.29991
 20
-3.22607
 30
0.0
 10
5.4272
 20
-3.22607
 30
0.0
 10
5.53034
 20
-3.12291
 30
0.0
 10
5.53034
 20
-2.99562
 30
0.0
 10
5.53034
 20
-2.99562
 30
0.0
 10
5.53034
 20
-2.86836
 30
0.0
 10
5.42721
 20
-2.76519
 30
0.0
 10
5.29991
 20
-2.76519
 30
0.0
 10
5.29991
 20
-2.76519
 30
0.0
 10
5.4272
 20
-2.76519
 30
0.0
 10
5.53034
 20
-2.66203
 30
0.0
 10
5.53034
 20
-2.53476
 30
0.0
 10
5.53034
 20
-2.53476
 30
0.0
 10
5.53034
 20
-2.40747
 30
0.0
 10
5.42721
 20
-2.30431
 30
0.0
 10
5.29991
 20
-2.30431
 30
0.0
 10
5.29991
 20
-2.30431
 30
0.0
 10
5.4272
 20
-2.30431
 30
0.0
 10
5.53034
 20
-2.20115
 30
0.0
 10
5.53034
 20
-2.07388
 30
0.0
 10
5.53034
 20
-2.07388
 30
0.0
 10
5.53034
 20
-1.94659
 30
0.0
 10
5.42721
 20
-1.84345
 30
0.0
 10
5.29991
 20
-1.84345
 30
0.0
 10
5.29991
 20
-1.84345
 30
0.0
 10
5.4272
 20
-1.84345
 30
0.0
 10
5.53034
 20
-1.74026
 30
0.0
 10
5.53034
 20
-1.613
 30
0.0
 10
5.53034
 20
-1.613
 30
0.0
 10
5.53034
 20
-1.48574
 30
0.0
 10
5.42721
 20
-1.38257
 30
0.0
 10
5.29991
 20
-1.38257
 30
0.0
 10
5.29991
 20
-1.38257
 30
0.0
 10
5.4272
 20
-1.38257
 30
0.0
 10
5.53034
 20
-1.27941
 30
0.0
 10
5.53034
 20
-1.15214
 30
0.0
 10
5.53034
 20
-1.15214
 30
0.0
 10
5.53034
 20
-1.02485
 30
0.0
 10
5.42721
 20
-0.92169
 30
0.0
 10
5.29991
 20
-0.92169
 30
0.0
 10
5.29991
 20
-0.92169
 30
0.0
 10
5.4272
 20
-0.92169
 30
0.0
 10
5.53034
 20
-0.81853
 30
0.0
 10
5.53034
 20
-0.69126
 30
0.0
 10
5.53034
 20
-0.69126
 30
0.0
 10
5.53034
 20
-0.56397
 30
0.0
 10
5.42721
 20
-0.46081
 30
0.0
 10
5.29991
 20
-0.46081
 30
0.0
 10
5.29991
 20
-0.46081
 30
0.0
 10
5.4272
 20
-0.46081
 30
0.0
 10
5.53034
 20
-0.35768
 30
0.0
 10
5.53034
 20
-0.23038
 30
0.0
 10
5.53034
 20
-0.23038
 30
0.0
 10
5.53034
 20
-0.10312
 30
0.0
 10
5.42721
 20
0.00005
 30
0.0
 10
5.29991
 20
0.00005
 30
0.0
 10
5.29991
 20
0.00005
 30
0.0
 10
5.4272
 20
0.00005
 30
0.0
 10
5.53034
 20
0.10321
 30
0.0
 10
5.53034
 20
0.2305
 30
0.0
 10
5.53034
 20
0.2305
 30
0.0
 10
5.53034
 20
0.35776
 30
0.0
 10
5.42721
 20
0.46093
 30
0.0
 10
5.29991
 20
0.46093
 30
0.0
 10
5.29991
 20
0.46093
 30
0.0
 10
5.4272
 20
0.46093
 30
0.0
 10
5.53034
 20
0.56409
 30
0.0
 10
5.53034
 20
0.69136
 30
0.0
 10
5.53034
 20
0.69136
 30
0.0
 10
5.53034
 20
0.81865
 30
0.0
 10
5.42721
 20
0.92181
 30
0.0
 10
5.29991
 20
0.92181
 30
0.0
 10
5.29991
 20
0.92181
 30
0.0
 10
5.4272
 20
0.92181
 30
0.0
 10
5.53034
 20
1.02494
 30
0.0
 10
5.53034
 20
1.15224
 30
0.0
 10
5.53034
 20
1.15224
 30
0.0
 10
5.53034
 20
1.2795
 30
0.0
 10
5.42721
 20
1.38267
 30
0.0
 10
5.29991
 20
1.38267
 30
0.0
 10
5.29991
 20
1.38267
 30
0.0
 10
5.4272
 20
1.38267
 30
0.0
 10
5.53034
 20
1.48583
 30
0.0
 10
5.53034
 20
1.61312
 30
0.0
 10
5.53034
 20
1.61312
 30
0.0
 10
5.53034
 20
1.74038
 30
0.0
 10
5.42721
 20
1.84355
 30
0.0
 10
5.29991
 20
1.84355
 30
0.0
 10
5.29991
 20
1.84355
 30
0.0
 10
5.4272
 20
1.84355
 30
0.0
 10
5.53034
 20
1.94671
 30
0.0
 10
5.53034
 20
2.074
 30
0.0
 10
5.53034
 20
2.074
 30
0.0
 10
5.53034
 20
2.20126
 30
0.0
 10
5.42721
 20
2.30443
 30
0.0
 10
5.29991
 20
2.30443
 30
0.0
 10
5.29991
 20
2.30443
 30
0.0
 10
5.4272
 20
2.30443
 30
0.0
 10
5.53034
 20
2.40759
 30
0.0
 10
5.53034
 20
2.53486
 30
0.0
 10
5.53034
 20
2.53486
 30
0.0
 10
5.53034
 20
2.66213
 30
0.0
 10
5.42721
 20
2.76529
 30
0.0
 10
5.29991
 20
2.76529
 30
0.0
 10
5.29991
 20
2.76529
 30
0.0
 10
5.4272
 20
2.76529
 30
0.0
 10
5.53034
 20
2.86845
 30
0.0
 10
5.53034
 20
2.99572
 30
0.0
 10
5.53034
 20
2.99572
 30
0.0
 10
5.53034
 20
3.12299
 30
0.0
 10
5.42721
 20
3.22615
 30
0.0
 10
5.29991
 20
3.22615
 30
0.0
 10
5.29991
 20
3.22615
 30
0.0
 10
5.4272
 20
3.22615
 30
0.0
 10
5.53034
 20
3.32931
 30
0.0
 10
5.53034
 20
3.45658
 30
0.0
 10
5.53034
 20
3.45658
 30
0.0
 10
5.53034
 20
3.58387
 30
0.0
 10
5.42721
 20
3.68701
 30
0.0
 10
5.29991
 20
3.68701
 30
0.0
 10
5.29991
 20
3.68701
 30
0.0
 10
5.4272
 20
3.68701
 30
0.0
 10
5.53034
 20
3.79017
 30
0.0
 10
5.53034
 20
3.91744
 30
0.0
 10
5.53034
 20
3.91744
 30
0.0
 10
5.53034
 20
4.04471
 30
0.0
 10
5.42721
 20
4.14787
 30
0.0
 10
5.29991
 20
4.14787
 30
0.0
 10
5.29991
 20
4.14787
 30
0.0
 10
5.4272
 20
4.14787
 30
0.0
 10
5.53034
 20
4.25103
 30
0.0
 10
5.53034
 20
4.3783
 30
0.0
 10
5.53034
 20
4.3783
 30
0.0
 10
5.53034
 20
4.50559
 30
0.0
 10
5.42721
 20
4.60873
 30
0.0
 10
5.29991
 20
4.60873
 30
0.0
 10
5.29991
 20
4.60873
 30
0.0
 10
5.4272
 20
4.60873
 30
0.0
 10
5.53034
 20
4.71189
 30
0.0
 10
5.53034
 20
4.83916
 30
0.0
 10
5.53034
 20
4.83916
 30
0.0
 10
5.53034
 20
4.96642
 30
0.0
 10
5.42721
 20
5.06959
 30
0.0
 10
5.29991
 20
5.06959
 30
0.0
 10
5.29991
 20
5.06959
 30
0.0
 10
5.4272
 20
5.06959
 30
0.0
 10
5.53034
 20
5.17275
 30
0.0
 10
5.53034
 20
5.30002
 30
0.0
 10
5.53034
 20
5.30002
 30
0.0
 10
5.53034
 20
5.42729
 30
0.0
 10
5.4272
 20
5.53043
 30
0.0
 10
5.29991
 20
5.53043
 30
0.0
 10
5.29991
 20
5.53043
 30
0.0
 10
5.29991
 20
5.53043
 30
0.0
 10
5.30007
 20
5.52969
 30
0.0
 10
5.30007
 20
5.52969
 30
0.0
 10
5.30007
 20
5.52969
 30
0.0
 10
5.17278
 20
5.52969
 30
0.0
 10
5.06964
 20
5.42653
 30
0.0
 10
5.06964
 20
5.29926
 30
0.0
 10
5.06964
 20
5.29926
 30
0.0
 10
5.06964
 20
5.42652
 30
0.0
 10
4.96651
 20
5.52969
 30
0.0
 10
4.83921
 20
5.52969
 30
0.0
 10
4.83921
 20
5.52969
 30
0.0
 10
4.71191
 20
5.52969
 30
0.0
 10
4.60878
 20
5.42653
 30
0.0
 10
4.60878
 20
5.29926
 30
0.0
 10
4.60878
 20
5.29926
 30
0.0
 10
4.60878
 20
5.42652
 30
0.0
 10
4.50559
 20
5.52969
 30
0.0
 10
4.3783
 20
5.52969
 30
0.0
 10
4.3783
 20
5.52969
 30
0.0
 10
4.25106
 20
5.52969
 30
0.0
 10
4.14787
 20
5.42653
 30
0.0
 10
4.14787
 20
5.29926
 30
0.0
 10
4.14787
 20
5.29926
 30
0.0
 10
4.14787
 20
5.42652
 30
0.0
 10
4.04474
 20
5.52969
 30
0.0
 10
3.91744
 20
5.52969
 30
0.0
 10
3.91744
 20
5.52969
 30
0.0
 10
3.79014
 20
5.52969
 30
0.0
 10
3.68701
 20
5.42653
 30
0.0
 10
3.68701
 20
5.29926
 30
0.0
 10
3.68701
 20
5.29926
 30
0.0
 10
3.68701
 20
5.42652
 30
0.0
 10
3.58388
 20
5.52969
 30
0.0
 10
3.45658
 20
5.52969
 30
0.0
 10
3.45658
 20
5.52969
 30
0.0
 10
3.32928
 20
5.52969
 30
0.0
 10
3.22615
 20
5.42653
 30
0.0
 10
3.22615
 20
5.29926
 30
0.0
 10
3.22615
 20
5.29926
 30
0.0
 10
3.22615
 20
5.42652
 30
0.0
 10
3.12296
 20
5.52969
 30
0.0
 10
2.99567
 20
5.52969
 30
0.0
 10
2.99567
 20
5.52969
 30
0.0
 10
2.86843
 20
5.52969
 30
0.0
 10
2.76524
 20
5.42653
 30
0.0
 10
2.76524
 20
5.29926
 30
0.0
 10
2.76524
 20
5.29926
 30
0.0
 10
2.76524
 20
5.42652
 30
0.0
 10
2.66211
 20
5.52969
 30
0.0
 10
2.53481
 20
5.52969
 30
0.0
 10
2.53481
 20
5.52969
 30
0.0
 10
2.40751
 20
5.52969
 30
0.0
 10
2.30438
 20
5.42653
 30
0.0
 10
2.30438
 20
5.29926
 30
0.0
 10
2.30438
 20
5.29926
 30
0.0
 10
2.30438
 20
5.42652
 30
0.0
 10
2.20119
 20
5.52969
 30
0.0
 10
2.07395
 20
5.52969
 30
0.0
 10
2.07395
 20
5.52969
 30
0.0
 10
1.94666
 20
5.52969
 30
0.0
 10
1.84347
 20
5.42653
 30
0.0
 10
1.84347
 20
5.29926
 30
0.0
 10
1.84347
 20
5.29926
 30
0.0
 10
1.84347
 20
5.42652
 30
0.0
 10
1.74034
 20
5.52969
 30
0.0
 10
1.61304
 20
5.52969
 30
0.0
 10
1.61304
 20
5.52969
 30
0.0
 10
1.48574
 20
5.52969
 30
0.0
 10
1.38264
 20
5.42653
 30
0.0
 10
1.38264
 20
5.29926
 30
0.0
 10
1.38264
 20
5.29926
 30
0.0
 10
1.38264
 20
5.42652
 30
0.0
 10
1.27948
 20
5.52969
 30
0.0
 10
1.15219
 20
5.52969
 30
0.0
 10
1.15219
 20
5.52969
 30
0.0
 10
1.02493
 20
5.52969
 30
0.0
 10
0.92176
 20
5.42653
 30
0.0
 10
0.92176
 20
5.29926
 30
0.0
 10
0.92176
 20
5.29926
 30
0.0
 10
0.92176
 20
5.42652
 30
0.0
 10
0.8186
 20
5.52969
 30
0.0
 10
0.69133
 20
5.52969
 30
0.0
 10
0.69133
 20
5.52969
 30
0.0
 10
0.56404
 20
5.52969
 30
0.0
 10
0.46088
 20
5.42653
 30
0.0
 10
0.46088
 20
5.29926
 30
0.0
 10
0.46088
 20
5.29926
 30
0.0
 10
0.46088
 20
5.42652
 30
0.0
 10
0.35775
 20
5.52969
 30
0.0
 10
0.23045
 20
5.52969
 30
0.0
 10
0.23045
 20
5.52969
 30
0.0
 10
0.10315
 20
5.52969
 30
0.0
 10
0.00002
 20
5.42653
 30
0.0
 10
0.00002
 20
5.29926
 30
0.0
 10
0.00002
 20
5.29926
 30
0.0
 10
0.00002
 20
5.42652
 30
0.0
 10
-0.10314
 20
5.52969
 30
0.0
 10
-0.23043
 20
5.52969
 30
0.0
 10
-0.23043
 20
5.52969
 30
0.0
 10
-0.35769
 20
5.52969
 30
0.0
 10
-0.46086
 20
5.42653
 30
0.0
 10
-0.46086
 20
5.29926
 30
0.0
 10
-0.46086
 20
5.29926
 30
0.0
 10
-0.46086
 20
5.42652
 30
0.0
 10
-0.56402
 20
5.52969
 30
0.0
 10
-0.69129
 20
5.52969
 30
0.0
 10
-0.69129
 20
5.52969
 30
0.0
 10
-0.81858
 20
5.52969
 30
0.0
 10
-0.92174
 20
5.42653
 30
0.0
 10
-0.92174
 20
5.29926
 30
0.0
 10
-0.92174
 20
5.29926
 30
0.0
 10
-0.92174
 20
5.42652
 30
0.0
 10
-1.0249
 20
5.52969
 30
0.0
 10
-1.15217
 20
5.52969
 30
0.0
 10
-1.15217
 20
5.52969
 30
0.0
 10
-1.27946
 20
5.52969
 30
0.0
 10
-1.3826
 20
5.42653
 30
0.0
 10
-1.3826
 20
5.29926
 30
0.0
 10
-1.3826
 20
5.29926
 30
0.0
 10
-1.3826
 20
5.42652
 30
0.0
 10
-1.48576
 20
5.52969
 30
0.0
 10
-1.61303
 20
5.52969
 30
0.0
 10
-1.61303
 20
5.52969
 30
0.0
 10
-1.74029
 20
5.52969
 30
0.0
 10
-1.84346
 20
5.42653
 30
0.0
 10
-1.84346
 20
5.29926
 30
0.0
 10
-1.84346
 20
5.29926
 30
0.0
 10
-1.84346
 20
5.42652
 30
0.0
 10
-1.94662
 20
5.52969
 30
0.0
 10
-2.07389
 20
5.52969
 30
0.0
 10
-2.07389
 20
5.52969
 30
0.0
 10
-2.20116
 20
5.52969
 30
0.0
 10
-2.30432
 20
5.42653
 30
0.0
 10
-2.30432
 20
5.29926
 30
0.0
 10
-2.30432
 20
5.29926
 30
0.0
 10
-2.30432
 20
5.42652
 30
0.0
 10
-2.40748
 20
5.52969
 30
0.0
 10
-2.53475
 20
5.52969
 30
0.0
 10
-2.53475
 20
5.52969
 30
0.0
 10
-2.66201
 20
5.52969
 30
0.0
 10
-2.76518
 20
5.42653
 30
0.0
 10
-2.76518
 20
5.29926
 30
0.0
 10
-2.76518
 20
5.29926
 30
0.0
 10
-2.76518
 20
5.42652
 30
0.0
 10
-2.86834
 20
5.52969
 30
0.0
 10
-2.99561
 20
5.52969
 30
0.0
 10
-2.99561
 20
5.52969
 30
0.0
 10
-3.12288
 20
5.52969
 30
0.0
 10
-3.22604
 20
5.42653
 30
0.0
 10
-3.22604
 20
5.29926
 30
0.0
 10
-3.22604
 20
5.29926
 30
0.0
 10
-3.22604
 20
5.42652
 30
0.0
 10
-3.3292
 20
5.52969
 30
0.0
 10
-3.45647
 20
5.52969
 30
0.0
 10
-3.45647
 20
5.52969
 30
0.0
 10
-3.58373
 20
5.52969
 30
0.0
 10
-3.6869
 20
5.42653
 30
0.0
 10
-3.6869
 20
5.29926
 30
0.0
 10
-3.6869
 20
5.29926
 30
0.0
 10
-3.6869
 20
5.42652
 30
0.0
 10
-3.79006
 20
5.52969
 30
0.0
 10
-3.91733
 20
5.52969
 30
0.0
 10
-3.91733
 20
5.52969
 30
0.0
 10
-4.0446
 20
5.52969
 30
0.0
 10
-4.14776
 20
5.42653
 30
0.0
 10
-4.14776
 20
5.29926
 30
0.0
 10
-4.14776
 20
5.29926
 30
0.0
 10
-4.14776
 20
5.42652
 30
0.0
 10
-4.25092
 20
5.52969
 30
0.0
 10
-4.37819
 20
5.52969
 30
0.0
 10
-4.37819
 20
5.52969
 30
0.0
 10
-4.50545
 20
5.52969
 30
0.0
 10
-4.60862
 20
5.42653
 30
0.0
 10
-4.60862
 20
5.29926
 30
0.0
 10
-4.60862
 20
5.29926
 30
0.0
 10
-4.60862
 20
5.42652
 30
0.0
 10
-4.71178
 20
5.52969
 30
0.0
 10
-4.83905
 20
5.52969
 30
0.0
 10
-4.83905
 20
5.52969
 30
0.0
 10
-4.96631
 20
5.52969
 30
0.0
 10
-5.06948
 20
5.42653
 30
0.0
 10
-5.06948
 20
5.29926
 30
0.0
 10
-5.06948
 20
5.29926
 30
0.0
 10
-5.06948
 20
5.42652
 30
0.0
 10
-5.17264
 20
5.52969
 30
0.0
 10
-5.29991
 20
5.52969
 30
0.0
 10
-5.29991
 20
5.52969
 30
0.0
 10
-5.29991
 20
5.52969
 30
0.0
 10
-5.29991
 20
5.5304
 30
0.0
 10
-5.29991
 20
5.5304
 30
0.0
 10
-5.29991
 20
5.5304
 30
0.0
 10
-5.42717
 20
5.53043
 30
0.0
 10
-5.53033
 20
5.42727
 30
0.0
 10
-5.53033
 20
5.3
 30
0.0
 10
-5.53033
 20
5.3
 30
0.0
 10
-5.53033
 20
5.17271
 30
0.0
 10
-5.42717
 20
5.06957
 30
0.0
 10
-5.2999
 20
5.06957
 30
0.0
 10
-5.2999
 20
5.06957
 30
0.0
 10
-5.42717
 20
5.06955
 30
0.0
 10
-5.53033
 20
4.96639
 30
0.0
 10
-5.53033
 20
4.83912
 30
0.0
 10
-5.53033
 20
4.83912
 30
0.0
 10
-5.53033
 20
4.71185
 30
0.0
 10
-5.42717
 20
4.60869
 30
0.0
 10
-5.2999
 20
4.60869
 30
0.0
 10
-5.2999
 20
4.60869
 30
0.0
 10
-5.42717
 20
4.60867
 30
0.0
 10
-5.53033
 20
4.50551
 30
0.0
 10
-5.53033
 20
4.37825
 30
0.0
 10
-5.53033
 20
4.37825
 30
0.0
 10
-5.53033
 20
4.25099
 30
0.0
 10
-5.42717
 20
4.14782
 30
0.0
 10
-5.2999
 20
4.14782
 30
0.0
 10
-5.2999
 20
4.14782
 30
0.0
 10
-5.42717
 20
4.14782
 30
0.0
 10
-5.53033
 20
4.04466
 30
0.0
 10
-5.53033
 20
3.91737
 30
0.0
 10
-5.53033
 20
3.91737
 30
0.0
 10
-5.53033
 20
3.79011
 30
0.0
 10
-5.42717
 20
3.68694
 30
0.0
 10
-5.2999
 20
3.68694
 30
0.0
 10
-5.2999
 20
3.68694
 30
0.0
 10
-5.42717
 20
3.68694
 30
0.0
 10
-5.53033
 20
3.58378
 30
0.0
 10
-5.53033
 20
3.45652
 30
0.0
 10
-5.53033
 20
3.45652
 30
0.0
 10
-5.53033
 20
3.32926
 30
0.0
 10
-5.42717
 20
3.22609
 30
0.0
 10
-5.2999
 20
3.22609
 30
0.0
 10
-5.2999
 20
3.22609
 30
0.0
 10
-5.42717
 20
3.22606
 30
0.0
 10
-5.53033
 20
3.1229
 30
0.0
 10
-5.53033
 20
2.99564
 30
0.0
 10
-5.53033
 20
2.99564
 30
0.0
 10
-5.53033
 20
2.86835
 30
0.0
 10
-5.42717
 20
2.76521
 30
0.0
 10
-5.2999
 20
2.76521
 30
0.0
 10
-5.2999
 20
2.76521
 30
0.0
 10
-5.42716
 20
2.76521
 30
0.0
 10
-5.53033
 20
2.66205
 30
0.0
 10
-5.53033
 20
2.53478
 30
0.0
 10
-5.53033
 20
2.53478
 30
0.0
 10
-5.53033
 20
2.40749
 30
0.0
 10
-5.42717
 20
2.30435
 30
0.0
 10
-5.2999
 20
2.30435
 30
0.0
 10
-5.2999
 20
2.30435
 30
0.0
 10
-5.42716
 20
2.30435
 30
0.0
 10
-5.53033
 20
2.20116
 30
0.0
 10
-5.53033
 20
2.0739
 30
0.0
 10
-5.53033
 20
2.0739
 30
0.0
 10
-5.53033
 20
1.94664
 30
0.0
 10
-5.42717
 20
1.84347
 30
0.0
 10
-5.2999
 20
1.84347
 30
0.0
 10
-5.2999
 20
1.84347
 30
0.0
 10
-5.42716
 20
1.84347
 30
0.0
 10
-5.53033
 20
1.74028
 30
0.0
 10
-5.53033
 20
1.61304
 30
0.0
 10
-5.53033
 20
1.61304
 30
0.0
 10
-5.53033
 20
1.48575
 30
0.0
 10
-5.42717
 20
1.38259
 30
0.0
 10
-5.2999
 20
1.38259
 30
0.0
 10
-5.2999
 20
1.38259
 30
0.0
 10
-5.42716
 20
1.38259
 30
0.0
 10
-5.53033
 20
1.27946
 30
0.0
 10
-5.53033
 20
1.15216
 30
0.0
 10
-5.53033
 20
1.15216
 30
0.0
 10
-5.53033
 20
1.02486
 30
0.0
 10
-5.42717
 20
0.92173
 30
0.0
 10
-5.2999
 20
0.92173
 30
0.0
 10
-5.2999
 20
0.92173
 30
0.0
 10
-5.42716
 20
0.92173
 30
0.0
 10
-5.53033
 20
0.81857
 30
0.0
 10
-5.53033
 20
0.69128
 30
0.0
 10
-5.53033
 20
0.69128
 30
0.0
 10
-5.53033
 20
0.56402
 30
0.0
 10
-5.42717
 20
0.46085
 30
0.0
 10
-5.2999
 20
0.46085
 30
0.0
 10
-5.2999
 20
0.46085
 30
0.0
 10
-5.42716
 20
0.46085
 30
0.0
 10
-5.53033
 20
0.35769
 30
0.0
 10
-5.53033
 20
0.23042
 30
0.0
 10
-5.53033
 20
0.23042
 30
0.0
 10
-5.53033
 20
0.10313
 30
0.0
 10
-5.42717
 20
-0.00003
 30
0.0
 10
-5.2999
 20
-0.00003
 30
0.0
 10
-5.2999
 20
-0.00003
 30
0.0
 10
-5.42716
 20
-0.00003
 30
0.0
 10
-5.53033
 20
-0.10319
 30
0.0
 10
-5.53033
 20
-0.23046
 30
0.0
 10
-5.53033
 20
-0.23046
 30
0.0
 10
-5.53033
 20
-0.35775
 30
0.0
 10
-5.42717
 20
-0.46089
 30
0.0
 10
-5.2999
 20
-0.46089
 30
0.0
 10
-5.2999
 20
-0.46089
 30
0.0
 10
-5.42716
 20
-0.46089
 30
0.0
 10
-5.53033
 20
-0.56405
 30
0.0
 10
-5.53033
 20
-0.69134
 30
0.0
 10
-5.53033
 20
-0.69134
 30
0.0
 10
-5.53033
 20
-0.8186
 30
0.0
 10
-5.42717
 20
-0.92177
 30
0.0
 10
-5.2999
 20
-0.92177
 30
0.0
 10
-5.2999
 20
-0.92177
 30
0.0
 10
-5.42716
 20
-0.92177
 30
0.0
 10
-5.53033
 20
-1.02493
 30
0.0
 10
-5.53033
 20
-1.15222
 30
0.0
 10
-5.53033
 20
-1.15222
 30
0.0
 10
-5.53033
 20
-1.27948
 30
0.0
 10
-5.42717
 20
-1.38262
 30
0.0
 10
-5.2999
 20
-1.38262
 30
0.0
 10
-5.2999
 20
-1.38262
 30
0.0
 10
-5.42716
 20
-1.38262
 30
0.0
 10
-5.53033
 20
-1.48578
 30
0.0
 10
-5.53033
 20
-1.61307
 30
0.0
 10
-5.53033
 20
-1.61307
 30
0.0
 10
-5.53033
 20
-1.74036
 30
0.0
 10
-5.42717
 20
-1.84352
 30
0.0
 10
-5.2999
 20
-1.84352
 30
0.0
 10
-5.2999
 20
-1.84352
 30
0.0
 10
-5.42716
 20
-1.84352
 30
0.0
 10
-5.53033
 20
-1.94665
 30
0.0
 10
-5.53033
 20
-2.07395
 30
0.0
 10
-5.53033
 20
-2.07395
 30
0.0
 10
-5.53033
 20
-2.20125
 30
0.0
 10
-5.42717
 20
-2.30438
 30
0.0
 10
-5.2999
 20
-2.30438
 30
0.0
 10
-5.2999
 20
-2.30438
 30
0.0
 10
-5.42716
 20
-2.30438
 30
0.0
 10
-5.53033
 20
-2.40754
 30
0.0
 10
-5.53033
 20
-2.53483
 30
0.0
 10
-5.53033
 20
-2.53483
 30
0.0
 10
-5.53033
 20
-2.66209
 30
0.0
 10
-5.42717
 20
-2.76526
 30
0.0
 10
-5.2999
 20
-2.76526
 30
0.0
 10
-5.2999
 20
-2.76526
 30
0.0
 10
-5.42716
 20
-2.76526
 30
0.0
 10
-5.53033
 20
-2.86842
 30
0.0
 10
-5.53033
 20
-2.99569
 30
0.0
 10
-5.53033
 20
-2.99569
 30
0.0
 10
-5.53033
 20
-3.12298
 30
0.0
 10
-5.42717
 20
-3.22614
 30
0.0
 10
-5.2999
 20
-3.22614
 30
0.0
 10
-5.2999
 20
-3.22614
 30
0.0
 10
-5.42716
 20
-3.22614
 30
0.0
 10
-5.53033
 20
-3.3293
 30
0.0
 10
-5.53033
 20
-3.45657
 30
0.0
 10
-5.53033
 20
-3.45657
 30
0.0
 10
-5.53033
 20
-3.58386
 30
0.0
 10
-5.42717
 20
-3.687
 30
0.0
 10
-5.2999
 20
-3.687
 30
0.0
 10
-5.2999
 20
-3.687
 30
0.0
 10
-5.42716
 20
-3.687
 30
0.0
 10
-5.53033
 20
-3.79016
 30
0.0
 10
-5.53033
 20
-3.91745
 30
0.0
 10
-5.53033
 20
-3.91745
 30
0.0
 10
-5.53033
 20
-4.04471
 30
0.0
 10
-5.42717
 20
-4.14788
 30
0.0
 10
-5.2999
 20
-4.14788
 30
0.0
 10
-5.2999
 20
-4.14788
 30
0.0
 10
-5.42716
 20
-4.14788
 30
0.0
 10
-5.53033
 20
-4.25104
 30
0.0
 10
-5.53033
 20
-4.37833
 30
0.0
 10
-5.53033
 20
-4.37833
 30
0.0
 10
-5.53033
 20
-4.50559
 30
0.0
 10
-5.42717
 20
-4.60876
 30
0.0
 10
-5.2999
 20
-4.60876
 30
0.0
 10
-5.2999
 20
-4.60876
 30
0.0
 10
-5.42716
 20
-4.60876
 30
0.0
 10
-5.53033
 20
-4.71192
 30
0.0
 10
-5.53033
 20
-4.83919
 30
0.0
 10
-5.53033
 20
-4.83919
 30
0.0
 10
-5.53033
 20
-4.96648
 30
0.0
 10
-5.42717
 20
-5.06964
 30
0.0
 10
-5.2999
 20
-5.06964
 30
0.0
 10
-5.2999
 20
-5.06964
 30
0.0
 10
-5.42716
 20
-5.06964
 30
0.0
 10
-5.53033
 20
-5.17277
 30
0.0
 10
-5.53033
 20
-5.30007
 30
0.0
 10
-5.53033
 20
-5.30007
 30
0.0
 10
-5.53033
 20
-5.42737
 30
0.0
 10
-5.42717
 20
-5.5305
 30
0.0
 10
-5.2999
 20
-5.5305
 30
0.0
 10
-5.2999
 20
-5.5305
 30
0.0
 10
-5.2999
 20
-5.5305
 30
0.0
 10
-5.30009
 20
-5.52979
 30
0.0
 10
-5.30009
 20
-5.52979
 30
0.0
 10
-5.30009
 20
-5.52979
 30
0.0
 10
-5.1728
 20
-5.52979
 30
0.0
 10
-5.06966
 20
-5.42663
 30
0.0
 10
-5.06966
 20
-5.29936
 30
0.0
 10
-5.06966
 20
-5.29936
 30
0.0
 10
-5.06966
 20
-5.42662
 30
0.0
 10
-4.9665
 20
-5.52979
 30
0.0
 10
-4.83923
 20
-5.52979
 30
0.0
 10
-4.83923
 20
-5.52979
 30
0.0
 10
-4.71196
 20
-5.52979
 30
0.0
 10
-4.6088
 20
-5.42663
 30
0.0
 10
-4.6088
 20
-5.29936
 30
0.0
 10
-4.6088
 20
-5.29936
 30
0.0
 10
-4.6088
 20
-5.42662
 30
0.0
 10
-4.50564
 20
-5.52979
 30
0.0
 10
-4.37837
 20
-5.52979
 30
0.0
 10
-4.37837
 20
-5.52979
 30
0.0
 10
-4.2511
 20
-5.52979
 30
0.0
 10
-4.14794
 20
-5.42663
 30
0.0
 10
-4.14794
 20
-5.29936
 30
0.0
 10
-4.14794
 20
-5.29936
 30
0.0
 10
-4.14794
 20
-5.42662
 30
0.0
 10
-4.04478
 20
-5.52979
 30
0.0
 10
-3.91751
 20
-5.52979
 30
0.0
 10
-3.91751
 20
-5.52979
 30
0.0
 10
-3.79025
 20
-5.52979
 30
0.0
 10
-3.68708
 20
-5.42663
 30
0.0
 10
-3.68708
 20
-5.29936
 30
0.0
 10
-3.68708
 20
-5.29936
 30
0.0
 10
-3.68708
 20
-5.42662
 30
0.0
 10
-3.58392
 20
-5.52979
 30
0.0
 10
-3.45665
 20
-5.52979
 30
0.0
 10
-3.45665
 20
-5.52979
 30
0.0
 10
-3.32938
 20
-5.52979
 30
0.0
 10
-3.22622
 20
-5.42663
 30
0.0
 10
-3.22622
 20
-5.29936
 30
0.0
 10
-3.22622
 20
-5.29936
 30
0.0
 10
-3.22622
 20
-5.42662
 30
0.0
 10
-3.12306
 20
-5.52979
 30
0.0
 10
-2.99579
 20
-5.52979
 30
0.0
 10
-2.99579
 20
-5.52979
 30
0.0
 10
-2.8685
 20
-5.52979
 30
0.0
 10
-2.76536
 20
-5.42663
 30
0.0
 10
-2.76536
 20
-5.29936
 30
0.0
 10
-2.76536
 20
-5.29936
 30
0.0
 10
-2.76536
 20
-5.42662
 30
0.0
 10
-2.6622
 20
-5.52979
 30
0.0
 10
-2.53493
 20
-5.52979
 30
0.0
 10
-2.53493
 20
-5.52979
 30
0.0
 10
-2.40766
 20
-5.52979
 30
0.0
 10
-2.3045
 20
-5.42663
 30
0.0
 10
-2.3045
 20
-5.29936
 30
0.0
 10
-2.3045
 20
-5.29936
 30
0.0
 10
-2.3045
 20
-5.42662
 30
0.0
 10
-2.20134
 20
-5.52979
 30
0.0
 10
-2.07407
 20
-5.52979
 30
0.0
 10
-2.07407
 20
-5.52979
 30
0.0
 10
-1.9468
 20
-5.52979
 30
0.0
 10
-1.84364
 20
-5.42663
 30
0.0
 10
-1.84364
 20
-5.29936
 30
0.0
 10
-1.84364
 20
-5.29936
 30
0.0
 10
-1.84364
 20
-5.42662
 30
0.0
 10
-1.74048
 20
-5.52979
 30
0.0
 10
-1.61321
 20
-5.52979
 30
0.0
 10
-1.61321
 20
-5.52979
 30
0.0
 10
-1.48595
 20
-5.52979
 30
0.0
 10
-1.38278
 20
-5.42663
 30
0.0
 10
-1.38278
 20
-5.29936
 30
0.0
 10
-1.38278
 20
-5.29936
 30
0.0
 10
-1.38278
 20
-5.42662
 30
0.0
 10
-1.27962
 20
-5.52979
 30
0.0
 10
-1.15235
 20
-5.52979
 30
0.0
 10
-1.15235
 20
-5.52979
 30
0.0
 10
-1.02508
 20
-5.52979
 30
0.0
 10
-0.92192
 20
-5.42663
 30
0.0
 10
-0.92192
 20
-5.29936
 30
0.0
 10
-0.92192
 20
-5.29936
 30
0.0
 10
-0.92192
 20
-5.42662
 30
0.0
 10
-0.81876
 20
-5.52979
 30
0.0
 10
-0.69149
 20
-5.52979
 30
0.0
 10
-0.69149
 20
-5.52979
 30
0.0
 10
-0.5642
 20
-5.52979
 30
0.0
 10
-0.46104
 20
-5.42663
 30
0.0
 10
-0.46104
 20
-5.29936
 30
0.0
 10
-0.46104
 20
-5.29936
 30
0.0
 10
-0.46104
 20
-5.42662
 30
0.0
 10
-0.35791
 20
-5.52979
 30
0.0
 10
-0.23061
 20
-5.52979
 30
0.0
 10
-0.23061
 20
-5.52979
 30
0.0
 10
-0.10331
 20
-5.52979
 30
0.0
 10
-0.00018
 20
-5.42663
 30
0.0
 10
-0.00018
 20
-5.29936
 30
0.0
 10
-0.00018
 20
-5.29936
 30
0.0
 10
-0.00018
 20
-5.42662
 30
0.0
 10
0.10298
 20
-5.52979
 30
0.0
 10
0.23027
 20
-5.52979
 30
0.0
 10
0.23027
 20
-5.52979
 30
0.0
 10
0.35753
 20
-5.52979
 30
0.0
 10
0.4607
 20
-5.42663
 30
0.0
 10
0.4607
 20
-5.29936
 30
0.0
 10
0.4607
 20
-5.29936
 30
0.0
 10
0.4607
 20
-5.42662
 30
0.0
 10
0.56386
 20
-5.52979
 30
0.0
 10
0.69113
 20
-5.52979
 30
0.0
 10
0.69113
 20
-5.52979
 30
0.0
 10
0.81842
 20
-5.52979
 30
0.0
 10
0.92158
 20
-5.42663
 30
0.0
 10
0.92158
 20
-5.29936
 30
0.0
 10
0.92158
 20
-5.29936
 30
0.0
 10
0.92158
 20
-5.42662
 30
0.0
 10
1.02471
 20
-5.52979
 30
0.0
 10
1.15201
 20
-5.52979
 30
0.0
 10
1.15201
 20
-5.52979
 30
0.0
 10
1.27931
 20
-5.52979
 30
0.0
 10
1.38244
 20
-5.42663
 30
0.0
 10
1.38244
 20
-5.29936
 30
0.0
 10
1.38244
 20
-5.29936
 30
0.0
 10
1.38244
 20
-5.42662
 30
0.0
 10
1.48565
 20
-5.52979
 30
0.0
 10
1.61287
 20
-5.52979
 30
0.0
 10
1.61287
 20
-5.52979
 30
0.0
 10
1.74016
 20
-5.52979
 30
0.0
 10
1.8433
 20
-5.42663
 30
0.0
 10
1.8433
 20
-5.29936
 30
0.0
 10
1.8433
 20
-5.29936
 30
0.0
 10
1.8433
 20
-5.42662
 30
0.0
 10
1.94649
 20
-5.52979
 30
0.0
 10
2.07373
 20
-5.52979
 30
0.0
 10
2.07373
 20
-5.52979
 30
0.0
 10
2.20102
 20
-5.52979
 30
0.0
 10
2.30421
 20
-5.42663
 30
0.0
 10
2.30421
 20
-5.29936
 30
0.0
 10
2.30421
 20
-5.29936
 30
0.0
 10
2.30421
 20
-5.42662
 30
0.0
 10
2.40734
 20
-5.52979
 30
0.0
 10
2.53464
 20
-5.52979
 30
0.0
 10
2.53464
 20
-5.52979
 30
0.0
 10
2.66188
 20
-5.52979
 30
0.0
 10
2.76507
 20
-5.42663
 30
0.0
 10
2.76507
 20
-5.29936
 30
0.0
 10
2.76507
 20
-5.29936
 30
0.0
 10
2.76507
 20
-5.42662
 30
0.0
 10
2.86826
 20
-5.52979
 30
0.0
 10
2.9955
 20
-5.52979
 30
0.0
 10
2.9955
 20
-5.52979
 30
0.0
 10
3.12279
 20
-5.52979
 30
0.0
 10
3.22593
 20
-5.42663
 30
0.0
 10
3.22593
 20
-5.29936
 30
0.0
 10
3.22593
 20
-5.29936
 30
0.0
 10
3.22593
 20
-5.42662
 30
0.0
 10
3.32912
 20
-5.52979
 30
0.0
 10
3.45641
 20
-5.52979
 30
0.0
 10
3.45641
 20
-5.52979
 30
0.0
 10
3.58365
 20
-5.52979
 30
0.0
 10
3.68684
 20
-5.42663
 30
0.0
 10
3.68684
 20
-5.29936
 30
0.0
 10
3.68684
 20
-5.29936
 30
0.0
 10
3.68684
 20
-5.42662
 30
0.0
 10
3.78997
 20
-5.52979
 30
0.0
 10
3.91727
 20
-5.52979
 30
0.0
 10
3.91727
 20
-5.52979
 30
0.0
 10
4.04451
 20
-5.52979
 30
0.0
 10
4.1477
 20
-5.42663
 30
0.0
 10
4.1477
 20
-5.29936
 30
0.0
 10
4.1477
 20
-5.29936
 30
0.0
 10
4.1477
 20
-5.42662
 30
0.0
 10
4.25089
 20
-5.52979
 30
0.0
 10
4.37813
 20
-5.52979
 30
0.0
 10
4.37813
 20
-5.52979
 30
0.0
 10
4.50542
 20
-5.52979
 30
0.0
 10
4.60856
 20
-5.42663
 30
0.0
 10
4.60856
 20
-5.29936
 30
0.0
 10
4.60856
 20
-5.29936
 30
0.0
 10
4.60856
 20
-5.42662
 30
0.0
 10
4.71175
 20
-5.52979
 30
0.0
 10
4.83904
 20
-5.52979
 30
0.0
 10
4.83904
 20
-5.52979
 30
0.0
 10
4.96628
 20
-5.52979
 30
0.0
 10
5.06947
 20
-5.42663
 30
0.0
 10
5.06947
 20
-5.29936
 30
0.0
 10
5.06947
 20
-5.29936
 30
0.0
 10
5.06947
 20
-5.42662
 30
0.0
 10
5.1726
 20
-5.52979
 30
0.0
 10
5.2999
 20
-5.52979
 30
0.0
 10
5.2999
 20
-5.52979
 30
0.0
 10
5.4272
 20
-5.52979
 30
0.0
 10
5.53033
 20
-5.42663
 30
0.0
 10
5.53033
 20
-5.29936
 30
0.0
 10
5.53033
 20
-5.29936
 30
0.0
 10
5.53033
 20
-5.29936
 30
0.0
 10
5.29991
 20
-5.53043
 30
0.0
 10
5.29991
 20
-5.53043
 30
0.0
  0
SPLINE
  5
42
330
1F
100
AcDbEntity
  8
Camada 1
100
AcDbSpline
210
0.0
220
0.0
230
1.0
 70
    27
 71
     3
 72
    12
 73
     8
 74
     0
 42
0.0000000001
 43
0.0000000001
 12
1.0
 22
0.0
 32
0.0
 13
1.0
 23
0.0
 33
0.0
 40
0.0
 40
0.0
 40
0.0
 40
0.0
 40
0.3333333333333333
 40
0.3333333333333333
 40
0.3333333333333333
 40
0.3333333333333333
 40
1.0
 40
1.0
 40
1.0
 40
1.0
 10
5.29991
 20
-5.53043
 30
0.0
 10
5.29991
 20
-5.53043
 30
0.0
 10
5.29991
 20
-5.53043
 30
0.0
 10
5.29991
 20
-5.53043
 30
0.0
 10
5.29991
 20
-5.53043
 30
0.0
 10
5.29991
 20
-5.53043
 30
0.0
 10
5.29991
 20
-5.53043
 30
0.0
 10
5.29991
 20
-5.53043
 30
0.0
  0
ENDSEC
  0
SECTION
  2
OBJECTS
  0
DICTIONARY
  5
C
330
0
100
AcDbDictionary
281
     1
  3
ACAD_GROUP
350
D
  3
ACAD_LAYOUT
350
1A
  3
ACAD_MATERIAL
350
3B
  3
ACAD_MLEADERSTYLE
350
64
  3
ACAD_MLINESTYLE
350
17
  3
ACAD_PLOTSETTINGS
350
19
  3
ACAD_PLOTSTYLENAME
350
E
  3
ACAD_TABLESTYLE
350
63
  3
ACAD_VISUALSTYLE
350
2A
  0
DICTIONARY
  5
D
102
{ACAD_REACTORS
330
C
102
}
330
C
100
AcDbDictionary
281
     1
  0
DICTIONARY
  5
1A
102
{ACAD_REACTORS
330
C
102
}
330
C
100
AcDbDictionary
281
     1
  3
Layout1
350
1E
  3
Layout2
350
26
  3
Model
350
22
  0
DICTIONARY
  5
3B
102
{ACAD_REACTORS
330
C
102
}
330
C
100
AcDbDictionary
281
     1
  3
ByBlock
350
3D
  3
ByLayer
350
3C
  3
Global
350
3E
  0
DICTIONARY
  5
64
102
{ACAD_REACTORS
330
C
102
}
330
C
100
AcDbDictionary
281
     1
  0
DICTIONARY
  5
17
102
{ACAD_REACTORS
330
C
102
}
330
C
100
AcDbDictionary
281
     1
  3
Standard
350
18
  0
DICTIONARY
  5
19
102
{ACAD_REACTORS
330
C
102
}
330
C
100
AcDbDictionary
281
     1
  0
ACDBDICTIONARYWDFLT
  5
E
102
{ACAD_REACTORS
330
C
102
}
330
C
100
AcDbDictionary
281
     1
  3
Normal
350
F
100
AcDbDictionaryWithDefault
340
F
  0
DICTIONARY
  5
63
102
{ACAD_REACTORS
330
C
102
}
330
C
100
AcDbDictionary
281
     1
  0
DICTIONARY
  5
2A
102
{ACAD_REACTORS
330
C
102
}
330
C
100
AcDbDictionary
281
     1
  3
2dWireframe
350
2F
  3
3D Hidden
350
31
  3
3dWireframe
350
30
  3
Basic
350
32
  3
Brighten
350
36
  3
ColorChange
350
3A
  3
Conceptual
350
34
  3
Dim
350
35
  3
Facepattern
350
39
  3
Flat
350
2B
  3
FlatWithEdges
350
2C
  3
Gouraud
350
2D
  3
GouraudWithEdges
350
2E
  3
Linepattern
350
38
  3
Realistic
350
33
  3
Thicken
350
37
  0
LAYOUT
  5
1E
102
{ACAD_REACTORS
330
1A
102
}
330
1A
100
AcDbPlotSettings
  1

  2
none_device
  4

  6

 40
0.0
 41
0.0
 42
0.0
 43
0.0
 44
0.0
 45
0.0
 46
0.0
 47
0.0
 48
0.0
 49
0.0
140
0.0
141
0.0
142
1.0
143
1.0
 70
   688
 72
     0
 73
     0
 74
     5
  7

 75
    16
 76
     0
 77
     2
 78
   300
147
1.0
148
0.0
149
0.0
100
AcDbLayout
  1
Layout1
 70
     1
 71
     1
 10
0.0
 20
0.0
 11
12.0
 21
9.0
 12
0.0
 22
0.0
 32
0.0
 14
1.000000000000000E+20
 24
1.000000000000000E+20
 34
1.000000000000000E+20
 15
-1.000000000000000E+20
 25
-1.000000000000000E+20
 35
-1.000000000000000E+20
146
0.0
 13
0.0
 23
0.0
 33
0.0
 16
1.0
 26
0.0
 36
0.0
 17
0.0
 27
1.0
 37
0.0
 76
     0
330
1B
  0
LAYOUT
  5
26
102
{ACAD_REACTORS
330
1A
102
}
330
1A
100
AcDbPlotSettings
  1

  2
none_device
  4

  6

 40
0.0
 41
0.0
 42
0.0
 43
0.0
 44
0.0
 45
0.0
 46
0.0
 47
0.0
 48
0.0
 49
0.0
140
0.0
141
0.0
142
1.0
143
1.0
 70
   688
 72
     0
 73
     0
 74
     5
  7

 75
    16
 76
     0
 77
     2
 78
   300
147
1.0
148
0.0
149
0.0
100
AcDbLayout
  1
Layout2
 70
     1
 71
     2
 10
0.0
 20
0.0
 11
0.0
 21
0.0
 12
0.0
 22
0.0
 32
0.0
 14
0.0
 24
0.0
 34
0.0
 15
0.0
 25
0.0
 35
0.0
146
0.0
 13
0.0
 23
0.0
 33
0.0
 16
1.0
 26
0.0
 36
0.0
 17
0.0
 27
1.0
 37
0.0
 76
     0
330
23
  0
LAYOUT
  5
22
102
{ACAD_REACTORS
330
1A
102
}
330
1A
100
AcDbPlotSettings
  1

  2
none_device
  4

  6

 40
0.0
 41
0.0
 42
0.0
 43
0.0
 44
0.0
 45
0.0
 46
0.0
 47
0.0
 48
0.0
 49
0.0
140
0.0
141
0.0
142
1.0
143
1.0
 70
  1712
 72
     0
 73
     0
 74
     0
  7

 75
     0
 76
     0
 77
     2
 78
   300
147
1.0
148
0.0
149
0.0
100
AcDbLayout
  1
Model
 70
     1
 71
     0
 10
0.0
 20
0.0
 11
12.0
 21
9.0
 12
0.0
 22
0.0
 32
0.0
 14
-5.53033
 24
-5.5305
 34
0.0
 15
5.53034
 25
5.53043
 35
0.0
146
0.0
 13
0.0
 23
0.0
 33
0.0
 16
1.0
 26
0.0
 36
0.0
 17
0.0
 27
1.0
 37
0.0
 76
     0
330
1F
331
29
  0
MATERIAL
  5
3D
102
{ACAD_REACTORS
330
3B
102
}
330
3B
100
AcDbMaterial
  1
ByBlock
 72
     1
 94
      127
  0
MATERIAL
  5
3C
102
{ACAD_REACTORS
330
3B
102
}
330
3B
100
AcDbMaterial
  1
ByLayer
 72
     1
 94
      127
  0
MATERIAL
  5
3E
102
{ACAD_REACTORS
330
3B
102
}
330
3B
100
AcDbMaterial
  1
Global
 72
     1
 94
      127
  0
MLINESTYLE
  5
18
102
{ACAD_REACTORS
330
17
102
}
330
17
100
AcDbMlineStyle
  2
Standard
 70
     0
  3

 62
   256
 51
90.0
 52
90.0
 71
     2
 49
0.5
 62
   256
  6
BYLAYER
 49
-0.5
 62
   256
  6
BYLAYER
  0
ACDBPLACEHOLDER
  5
F
102
{ACAD_REACTORS
330
E
102
}
330
E
  0
VISUALSTYLE
  5
2F
102
{ACAD_REACTORS
330
2A
102
}
102
{ACAD_XDICTIONARY
360
4B
102
}
330
2A
100
AcDbVisualStyle
  2
2dWireframe
 70
     4
 71
     0
 72
     2
 73
     0
 90
        0
 40
-0.6
 41
-30.0
 62
     5
 63
     7
421
 16777215
 74
     1
 91
        4
 64
     7
 65
   257
 75
     1
175
     1
 42
1.0
 92
        0
 66
   257
 43
1.0
 76
     1
 77
     6
 78
     2
 67
     7
 79
     5
170
     0
171
     0
290
     0
174
     0
 93
        1
 44
0.0
173
     0
291
     0
 45
0.0
  0
VISUALSTYLE
  5
31
102
{ACAD_REACTORS
330
2A
102
}
102
{ACAD_XDICTIONARY
360
4F
102
}
330
2A
100
AcDbVisualStyle
  2
3D Hidden
 70
     6
 71
     1
 72
     2
 73
     2
 90
        0
 40
-0.6
 41
-30.0
 62
     5
 63
     7
421
 16777215
 74
     2
 91
        2
 64
     7
 65
   257
 75
     2
175
     1
 42
40.0
 92
        0
 66
   257
 43
1.0
 76
     1
 77
     6
 78
     2
 67
     7
 79
     3
170
     0
171
     0
290
     0
174
     0
 93
        1
 44
0.0
173
     0
291
     0
 45
0.0
  0
VISUALSTYLE
  5
30
102
{ACAD_REACTORS
330
2A
102
}
102
{ACAD_XDICTIONARY
360
4D
102
}
330
2A
100
AcDbVisualStyle
  2
3dWireframe
 70
     5
 71
     0
 72
     2
 73
     0
 90
        0
 40
-0.6
 41
-30.0
 62
     5
 63
     7
421
 16777215
 74
     1
 91
        4
 64
     7
 65
   257
 75
     1
175
     1
 42
1.0
 92
        0
 66
   257
 43
1.0
 76
     1
 77
     6
 78
     2
 67
     7
 79
     5
170
     0
171
     0
290
     0
174
     0
 93
        1
 44
0.0
173
     0
291
     0
 45
0.0
  0
VISUALSTYLE
  5
32
102
{ACAD_REACTORS
330
2A
102
}
102
{ACAD_XDICTIONARY
360
51
102
}
330
2A
100
AcDbVisualStyle
  2
Basic
 70
     7
 71
     1
 72
     0
 73
     1
 90
        0
 40
-0.6
 41
-30.0
 62
     5
 63
     7
421
 16777215
 74
     0
 91
        4
 64
     7
 65
   257
 75
     1
175
     1
 42
1.0
 92
        8
 66
     7
 43
1.0
 76
     1
 77
     6
 78
     2
 67
     7
 79
     5
170
     0
171
     0
290
     0
174
     0
 93
        1
 44
0.0
173
     0
291
     1
 45
0.0
  0
VISUALSTYLE
  5
36
102
{ACAD_REACTORS
330
2A
102
}
102
{ACAD_XDICTIONARY
360
59
102
}
330
2A
100
AcDbVisualStyle
  2
Brighten
 70
    12
 71
     2
 72
     2
 73
     0
 90
        0
 40
-0.6
 41
-30.0
 62
     5
 63
     7
421
 16777215
 74
     1
 91
        4
 64
     7
 65
   257
 75
     1
175
     1
 42
1.0
 92
        8
 66
     7
 43
1.0
 76
     1
 77
     6
 78
     2
 67
     7
 79
     5
170
     0
171
     0
290
     0
174
     0
 93
        1
 44
50.0
173
     0
291
     1
 45
0.0
  0
VISUALSTYLE
  5
3A
102
{ACAD_REACTORS
330
2A
102
}
102
{ACAD_XDICTIONARY
360
61
102
}
330
2A
100
AcDbVisualStyle
  2
ColorChange
 70
    16
 71
     2
 72
     2
 73
     3
 90
        0
 40
-0.6
 41
-30.0
 62
     5
 63
     8
421
  8421504
 74
     1
 91
        4
 64
     7
 65
   257
 75
     1
175
     1
 42
1.0
 92
        8
 66
     8
424
  8421504
 43
1.0
 76
     1
 77
     6
 78
     2
 67
     7
 79
     5
170
     0
171
     0
290
     0
174
     0
 93
        1
 44
0.0
173
     0
291
     1
 45
0.0
  0
VISUALSTYLE
  5
34
102
{ACAD_REACTORS
330
2A
102
}
102
{ACAD_XDICTIONARY
360
55
102
}
330
2A
100
AcDbVisualStyle
  2
Conceptual
 70
     9
 71
     3
 72
     2
 73
     0
 90
        0
 40
-0.6
 41
-30.0
 62
     5
 63
     7
421
 16777215
 74
     2
 91
        2
 64
     7
 65
   257
 75
     1
175
     1
 42
40.0
 92
        8
 66
     7
 43
1.0
 76
     1
 77
     6
 78
     2
 67
     7
 79
     3
170
     0
171
     0
290
     0
174
     0
 93
        1
 44
0.0
173
     0
291
     0
 45
0.0
  0
VISUALSTYLE
  5
35
102
{ACAD_REACTORS
330
2A
102
}
102
{ACAD_XDICTIONARY
360
57
102
}
330
2A
100
AcDbVisualStyle
  2
Dim
 70
    11
 71
     2
 72
     2
 73
     0
 90
        0
 40
-0.6
 41
-30.0
 62
     5
 63
     7
421
 16777215
 74
     1
 91
        4
 64
     7
 65
   257
 75
     1
175
     1
 42
1.0
 92
        8
 66
     7
 43
1.0
 76
     1
 77
     6
 78
     2
 67
     7
 79
     5
170
     0
171
     0
290
     0
174
     0
 93
        1
 44
-50.0
173
     0
291
     1
 45
0.0
  0
VISUALSTYLE
  5
39
102
{ACAD_REACTORS
330
2A
102
}
102
{ACAD_XDICTIONARY
360
5F
102
}
330
2A
100
AcDbVisualStyle
  2
Facepattern
 70
    15
 71
     2
 72
     2
 73
     0
 90
        0
 40
-0.6
 41
-30.0
 62
     5
 63
     7
421
 16777215
 74
     1
 91
        4
 64
     7
 65
   257
 75
     1
175
     1
 42
1.0
 92
        8
 66
     7
 43
1.0
 76
     1
 77
     6
 78
     2
 67
     7
 79
     5
170
     0
171
     0
290
     0
174
     0
 93
        1
 44
0.0
173
     0
291
     1
 45
0.0
  0
VISUALSTYLE
  5
2B
102
{ACAD_REACTORS
330
2A
102
}
102
{ACAD_XDICTIONARY
360
43
102
}
330
2A
100
AcDbVisualStyle
  2
Flat
 70
     0
 71
     2
 72
     1
 73
     1
 90
        2
 40
-0.6
 41
30.0
 62
     5
 63
     7
421
 16777215
 74
     0
 91
        4
 64
     7
 65
   257
 75
     1
175
     1
 42
1.0
 92
        8
 66
     7
 43
1.0
 76
     1
 77
     6
 78
     2
 67
     7
 79
     5
170
     0
171
     0
290
     0
174
     0
 93
       13
 44
0.0
173
     0
291
     1
 45
0.0
  0
VISUALSTYLE
  5
2C
102
{ACAD_REACTORS
330
2A
102
}
102
{ACAD_XDICTIONARY
360
45
102
}
330
2A
100
AcDbVisualStyle
  2
FlatWithEdges
 70
     1
 71
     2
 72
     1
 73
     1
 90
        2
 40
-0.6
 41
30.0
 62
     5
 63
     7
421
 16777215
 74
     1
 91
        4
 64
     7
 65
   257
 75
     1
175
     1
 42
1.0
 92
        0
 66
   257
 43
1.0
 76
     1
 77
     6
 78
     2
 67
     7
 79
     5
170
     0
171
     0
290
     0
174
     0
 93
       13
 44
0.0
173
     0
291
     1
 45
0.0
  0
VISUALSTYLE
  5
2D
102
{ACAD_REACTORS
330
2A
102
}
102
{ACAD_XDICTIONARY
360
47
102
}
330
2A
100
AcDbVisualStyle
  2
Gouraud
 70
     2
 71
     2
 72
     2
 73
     1
 90
        2
 40
-0.6
 41
30.0
 62
     5
 63
     7
421
 16777215
 74
     0
 91
        4
 64
     7
 65
   257
 75
     1
175
     1
 42
1.0
 92
        0
 66
     7
 43
1.0
 76
     1
 77
     6
 78
     2
 67
     7
 79
     5
170
     0
171
     0
290
     0
174
     0
 93
       13
 44
0.0
173
     0
291
     1
 45
0.0
  0
VISUALSTYLE
  5
2E
102
{ACAD_REACTORS
330
2A
102
}
102
{ACAD_XDICTIONARY
360
49
102
}
330
2A
100
AcDbVisualStyle
  2
GouraudWithEdges
 70
     3
 71
     2
 72
     2
 73
     1
 90
        2
 40
-0.6
 41
30.0
 62
     5
 63
     7
421
 16777215
 74
     1
 91
        4
 64
     7
 65
   257
 75
     1
175
     1
 42
1.0
 92
        0
 66
   257
 43
1.0
 76
     1
 77
     6
 78
     2
 67
     7
 79
     5
170
     0
171
     0
290
     0
174
     0
 93
       13
 44
0.0
173
     0
291
     1
 45
0.0
  0
VISUALSTYLE
  5
38
102
{ACAD_REACTORS
330
2A
102
}
102
{ACAD_XDICTIONARY
360
5D
102
}
330
2A
100
AcDbVisualStyle
  2
Linepattern
 70
    14
 71
     2
 72
     2
 73
     0
 90
        0
 40
-0.6
 41
-30.0
 62
     5
 63
     7
421
 16777215
 74
     1
 91
        4
 64
     7
 65
   257
 75
     7
175
     7
 42
1.0
 92
        8
 66
     7
 43
1.0
 76
     1
 77
     6
 78
     2
 67
     7
 79
     5
170
     0
171
     0
290
     0
174
     0
 93
        1
 44
0.0
173
     0
291
     1
 45
0.0
  0
VISUALSTYLE
  5
33
102
{ACAD_REACTORS
330
2A
102
}
102
{ACAD_XDICTIONARY
360
53
102
}
330
2A
100
AcDbVisualStyle
  2
Realistic
 70
     8
 71
     2
 72
     2
 73
     0
 90
        0
 40
-0.6
 41
-30.0
 62
     5
 63
     7
421
 16777215
 74
     1
 91
        0
 64
     7
 65
   257
 75
     1
175
     1
 42
1.0
 92
        8
 66
     8
424
  7895160
 43
1.0
 76
     1
 77
     6
 78
     2
 67
     7
 79
     5
170
     0
171
     0
290
     0
174
     0
 93
       13
 44
0.0
173
     0
291
     0
 45
0.0
  0
VISUALSTYLE
  5
37
102
{ACAD_REACTORS
330
2A
102
}
102
{ACAD_XDICTIONARY
360
5B
102
}
330
2A
100
AcDbVisualStyle
  2
Thicken
 70
    13
 71
     2
 72
     2
 73
     0
 90
        0
 40
-0.6
 41
-30.0
 62
     5
 63
     7
421
 16777215
 74
     1
 91
        4
 64
     7
 65
   257
 75
     1
175
     1
 42
1.0
 92
       12
 66
     7
 43
1.0
 76
     1
 77
     6
 78
     2
 67
     7
 79
     5
170
     0
171
     0
290
     0
174
     0
 93
        1
 44
0.0
173
     0
291
     1
 45
0.0
  0
DICTIONARY
  5
4B
330
2F
100
AcDbDictionary
280
     1
281
     1
  3
ACAD_XREC_ROUNDTRIP
360
4C
  0
DICTIONARY
  5
4F
330
31
100
AcDbDictionary
280
     1
281
     1
  3
ACAD_XREC_ROUNDTRIP
360
50
  0
DICTIONARY
  5
4D
330
30
100
AcDbDictionary
280
     1
281
     1
  3
ACAD_XREC_ROUNDTRIP
360
4E
  0
DICTIONARY
  5
51
330
32
100
AcDbDictionary
280
     1
281
     1
  3
ACAD_XREC_ROUNDTRIP
360
52
  0
DICTIONARY
  5
59
330
36
100
AcDbDictionary
280
     1
281
     1
  3
ACAD_XREC_ROUNDTRIP
360
5A
  0
DICTIONARY
  5
61
330
3A
100
AcDbDictionary
280
     1
281
     1
  3
ACAD_XREC_ROUNDTRIP
360
62
  0
DICTIONARY
  5
55
330
34
100
AcDbDictionary
280
     1
281
     1
  3
ACAD_XREC_ROUNDTRIP
360
56
  0
DICTIONARY
  5
57
330
35
100
AcDbDictionary
280
     1
281
     1
  3
ACAD_XREC_ROUNDTRIP
360
58
  0
DICTIONARY
  5
5F
330
39
100
AcDbDictionary
280
     1
281
     1
  3
ACAD_XREC_ROUNDTRIP
360
60
  0
DICTIONARY
  5
43
330
2B
100
AcDbDictionary
280
     1
281
     1
  3
ACAD_XREC_ROUNDTRIP
360
44
  0
DICTIONARY
  5
45
330
2C
100
AcDbDictionary
280
     1
281
     1
  3
ACAD_XREC_ROUNDTRIP
360
46
  0
DICTIONARY
  5
47
330
2D
100
AcDbDictionary
280
     1
281
     1
  3
ACAD_XREC_ROUNDTRIP
360
48
  0
DICTIONARY
  5
49
330
2E
100
AcDbDictionary
280
     1
281
     1
  3
ACAD_XREC_ROUNDTRIP
360
4A
  0
DICTIONARY
  5
5D
330
38
100
AcDbDictionary
280
     1
281
     1
  3
ACAD_XREC_ROUNDTRIP
360
5E
  0
DICTIONARY
  5
53
330
33
100
AcDbDictionary
280
     1
281
     1
  3
ACAD_XREC_ROUNDTRIP
360
54
  0
DICTIONARY
  5
5B
330
37
100
AcDbDictionary
280
     1
281
     1
  3
ACAD_XREC_ROUNDTRIP
360
5C
  0
XRECORD
  5
4C
102
{ACAD_REACTORS
330
4B
102
}
330
4B
100
AcDbXrecord
280
     1
102
RTVSPropertyOp0
 70
     1
102
RTVSPropertyOp1
 70
     1
102
RTVSPropertyOp2
 70
     1
102
RTVSPropertyOp3
 70
     1
102
RTVSPropertyOp4
 70
     1
102
RTVSPropertyOp5
 70
     1
102
RTVSPropertyOp6
 70
     1
102
RTVSPropertyOp7
 70
     1
102
RTVSPropertyOp8
 70
     1
102
RTVSPropertyOp9
 70
     1
102
RTVSPropertyOp10
 70
     1
102
RTVSPropertyOp11
 70
     1
102
RTVSPropertyOp12
 70
     1
102
RTVSPropertyOp13
 70
     1
102
RTVSPropertyOp14
 70
     1
102
RTVSPropertyOp15
 70
     1
102
RTVSPropertyOp16
 70
     1
102
RTVSPropertyOp17
 70
     1
102
RTVSPropertyOp18
 70
     1
102
RTVSPropertyOp19
 70
     1
102
RTVSPropertyOp20
 70
     1
102
RTVSPropertyOp21
 70
     1
102
RTVSPropertyOp22
 70
     1
102
RTVSPropertyOp23
 70
     1
102
RTVSPropertyOp24
 70
     1
102
RTVSPropertyOp25
 70
     1
102
RTVSPropertyOp26
 70
     1
102
RTVSPropertyOp27
 70
     1
102
RTVSPropertyOp28
 70
     1
102
RTVSPropertyOp29
 70
     1
102
RTVSPropertyOp30
 70
     1
102
RTVSPropertyOp31
 70
     1
102
RTVSPropertyOp32
 70
     1
  0
XRECORD
  5
50
102
{ACAD_REACTORS
330
4F
102
}
330
4F
100
AcDbXrecord
280
     1
102
RTVSPropertyOp0
 70
     1
102
RTVSPropertyOp1
 70
     1
102
RTVSPropertyOp2
 70
     1
102
RTVSPropertyOp3
 70
     1
102
RTVSPropertyOp4
 70
     1
102
RTVSPropertyOp5
 70
     1
102
RTVSPropertyOp6
 70
     1
102
RTVSPropertyOp7
 70
     1
102
RTVSPropertyOp8
 70
     1
102
RTVSPropertyOp9
 70
     1
102
RTVSPropertyOp10
 70
     1
102
RTVSPropertyOp11
 70
     1
102
RTVSPropertyOp12
 70
     1
102
RTVSPropertyOp13
 70
     1
102
RTVSPropertyOp14
 70
     1
102
RTVSPropertyOp15
 70
     1
102
RTVSPropertyOp16
 70
     1
102
RTVSPropertyOp17
 70
     1
102
RTVSPropertyOp18
 70
     1
102
RTVSPropertyOp19
 70
     1
102
RTVSPropertyOp20
 70
     1
102
RTVSPropertyOp21
 70
     1
102
RTVSPropertyOp22
 70
     1
102
RTVSPropertyOp23
 70
     1
102
RTVSPropertyOp24
 70
     1
102
RTVSPropertyOp25
 70
     1
102
RTVSPropertyOp26
 70
     1
102
RTVSPropertyOp27
 70
     1
102
RTVSPropertyOp28
 70
     1
102
RTVSPropertyOp29
 70
     1
102
RTVSPropertyOp30
 70
     1
102
RTVSPropertyOp31
 70
     1
102
RTVSPropertyOp32
 70
     1
  0
XRECORD
  5
4E
102
{ACAD_REACTORS
330
4D
102
}
330
4D
100
AcDbXrecord
280
     1
102
RTVSPropertyOp0
 70
     1
102
RTVSPropertyOp1
 70
     1
102
RTVSPropertyOp2
 70
     1
102
RTVSPropertyOp3
 70
     1
102
RTVSPropertyOp4
 70
     1
102
RTVSPropertyOp5
 70
     1
102
RTVSPropertyOp6
 70
     1
102
RTVSPropertyOp7
 70
     1
102
RTVSPropertyOp8
 70
     1
102
RTVSPropertyOp9
 70
     1
102
RTVSPropertyOp10
 70
     1
102
RTVSPropertyOp11
 70
     1
102
RTVSPropertyOp12
 70
     1
102
RTVSPropertyOp13
 70
     1
102
RTVSPropertyOp14
 70
     1
102
RTVSPropertyOp15
 70
     1
102
RTVSPropertyOp16
 70
     1
102
RTVSPropertyOp17
 70
     1
102
RTVSPropertyOp18
 70
     1
102
RTVSPropertyOp19
 70
     1
102
RTVSPropertyOp20
 70
     1
102
RTVSPropertyOp21
 70
     1
102
RTVSPropertyOp22
 70
     1
102
RTVSPropertyOp23
 70
     1
102
RTVSPropertyOp24
 70
     1
102
RTVSPropertyOp25
 70
     1
102
RTVSPropertyOp26
 70
     1
102
RTVSPropertyOp27
 70
     1
102
RTVSPropertyOp28
 70
     1
102
RTVSPropertyOp29
 70
     1
102
RTVSPropertyOp30
 70
     1
102
RTVSPropertyOp31
 70
     1
102
RTVSPropertyOp32
 70
     1
  0
XRECORD
  5
52
102
{ACAD_REACTORS
330
51
102
}
330
51
100
AcDbXrecord
280
     1
102
RTVSPropertyOp0
 70
     1
102
RTVSPropertyOp1
 70
     1
102
RTVSPropertyOp2
 70
     1
102
RTVSPropertyOp3
 70
     1
102
RTVSPropertyOp4
 70
     1
102
RTVSPropertyOp5
 70
     1
102
RTVSPropertyOp6
 70
     1
102
RTVSPropertyOp7
 70
     1
102
RTVSPropertyOp8
 70
     1
102
RTVSPropertyOp9
 70
     1
102
RTVSPropertyOp10
 70
     1
102
RTVSPropertyOp11
 70
     1
102
RTVSPropertyOp12
 70
     1
102
RTVSPropertyOp13
 70
     1
102
RTVSPropertyOp14
 70
     1
102
RTVSPropertyOp15
 70
     1
102
RTVSPropertyOp16
 70
     1
102
RTVSPropertyOp17
 70
     1
102
RTVSPropertyOp18
 70
     1
102
RTVSPropertyOp19
 70
     1
102
RTVSPropertyOp20
 70
     1
102
RTVSPropertyOp21
 70
     1
102
RTVSPropertyOp22
 70
     1
102
RTVSPropertyOp23
 70
     1
102
RTVSPropertyOp24
 70
     1
102
RTVSPropertyOp25
 70
     1
102
RTVSPropertyOp26
 70
     1
102
RTVSPropertyOp27
 70
     1
102
RTVSPropertyOp28
 70
     1
102
RTVSPropertyOp29
 70
     1
102
RTVSPropertyOp30
 70
     1
102
RTVSPropertyOp31
 70
     1
102
RTVSPropertyOp32
 70
     1
  0
XRECORD
  5
5A
102
{ACAD_REACTORS
330
59
102
}
330
59
100
AcDbXrecord
280
     1
102
RTVSPropertyOp0
 70
     1
102
RTVSPropertyOp1
 70
     1
102
RTVSPropertyOp2
 70
     1
102
RTVSPropertyOp3
 70
     1
102
RTVSPropertyOp4
 70
     1
102
RTVSPropertyOp5
 70
     1
102
RTVSPropertyOp6
 70
     1
102
RTVSPropertyOp7
 70
     1
102
RTVSPropertyOp8
 70
     1
102
RTVSPropertyOp9
 70
     1
102
RTVSPropertyOp10
 70
     1
102
RTVSPropertyOp11
 70
     1
102
RTVSPropertyOp12
 70
     1
102
RTVSPropertyOp13
 70
     1
102
RTVSPropertyOp14
 70
     1
102
RTVSPropertyOp15
 70
     1
102
RTVSPropertyOp16
 70
     1
102
RTVSPropertyOp17
 70
     1
102
RTVSPropertyOp18
 70
     1
102
RTVSPropertyOp19
 70
     1
102
RTVSPropertyOp20
 70
     1
102
RTVSPropertyOp21
 70
     1
102
RTVSPropertyOp22
 70
     1
102
RTVSPropertyOp23
 70
     1
102
RTVSPropertyOp24
 70
     1
102
RTVSPropertyOp25
 70
     1
102
RTVSPropertyOp26
 70
     1
102
RTVSPropertyOp27
 70
     1
102
RTVSPropertyOp28
 70
     1
102
RTVSPropertyOp29
 70
     1
102
RTVSPropertyOp30
 70
     1
102
RTVSPropertyOp31
 70
     1
102
RTVSPropertyOp32
 70
     1
  0
XRECORD
  5
62
102
{ACAD_REACTORS
330
61
102
}
330
61
100
AcDbXrecord
280
     1
102
RTVSPropertyOp0
 70
     1
102
RTVSPropertyOp1
 70
     1
102
RTVSPropertyOp2
 70
     1
102
RTVSPropertyOp3
 70
     1
102
RTVSPropertyOp4
 70
     1
102
RTVSPropertyOp5
 70
     1
102
RTVSPropertyOp6
 70
     1
102
RTVSPropertyOp7
 70
     1
102
RTVSPropertyOp8
 70
     1
102
RTVSPropertyOp9
 70
     1
102
RTVSPropertyOp10
 70
     1
102
RTVSPropertyOp11
 70
     1
102
RTVSPropertyOp12
 70
     1
102
RTVSPropertyOp13
 70
     1
102
RTVSPropertyOp14
 70
     1
102
RTVSPropertyOp15
 70
     1
102
RTVSPropertyOp16
 70
     1
102
RTVSPropertyOp17
 70
     1
102
RTVSPropertyOp18
 70
     1
102
RTVSPropertyOp19
 70
     1
102
RTVSPropertyOp20
 70
     1
102
RTVSPropertyOp21
 70
     1
102
RTVSPropertyOp22
 70
     1
102
RTVSPropertyOp23
 70
     1
102
RTVSPropertyOp24
 70
     1
102
RTVSPropertyOp25
 70
     1
102
RTVSPropertyOp26
 70
     1
102
RTVSPropertyOp27
 70
     1
102
RTVSPropertyOp28
 70
     1
102
RTVSPropertyOp29
 70
     1
102
RTVSPropertyOp30
 70
     1
102
RTVSPropertyOp31
 70
     1
102
RTVSPropertyOp32
 70
     1
  0
XRECORD
  5
56
102
{ACAD_REACTORS
330
55
102
}
330
55
100
AcDbXrecord
280
     1
102
RTVSPropertyOp0
 70
     1
102
RTVSPropertyOp1
 70
     1
102
RTVSPropertyOp2
 70
     1
102
RTVSPropertyOp3
 70
     1
102
RTVSPropertyOp4
 70
     1
102
RTVSPropertyOp5
 70
     1
102
RTVSPropertyOp6
 70
     1
102
RTVSPropertyOp7
 70
     1
102
RTVSPropertyOp8
 70
     1
102
RTVSPropertyOp9
 70
     1
102
RTVSPropertyOp10
 70
     1
102
RTVSPropertyOp11
 70
     1
102
RTVSPropertyOp12
 70
     1
102
RTVSPropertyOp13
 70
     1
102
RTVSPropertyOp14
 70
     1
102
RTVSPropertyOp15
 70
     1
102
RTVSPropertyOp16
 70
     1
102
RTVSPropertyOp17
 70
     1
102
RTVSPropertyOp18
 70
     1
102
RTVSPropertyOp19
 70
     1
102
RTVSPropertyOp20
 70
     1
102
RTVSPropertyOp21
 70
     1
102
RTVSPropertyOp22
 70
     1
102
RTVSPropertyOp23
 70
     1
102
RTVSPropertyOp24
 70
     1
102
RTVSPropertyOp25
 70
     1
102
RTVSPropertyOp26
 70
     1
102
RTVSPropertyOp27
 70
     1
102
RTVSPropertyOp28
 70
     1
102
RTVSPropertyOp29
 70
     1
102
RTVSPropertyOp30
 70
     1
102
RTVSPropertyOp31
 70
     1
102
RTVSPropertyOp32
 70
     1
  0
XRECORD
  5
58
102
{ACAD_REACTORS
330
57
102
}
330
57
100
AcDbXrecord
280
     1
102
RTVSPropertyOp0
 70
     1
102
RTVSPropertyOp1
 70
     1
102
RTVSPropertyOp2
 70
     1
102
RTVSPropertyOp3
 70
     1
102
RTVSPropertyOp4
 70
     1
102
RTVSPropertyOp5
 70
     1
102
RTVSPropertyOp6
 70
     1
102
RTVSPropertyOp7
 70
     1
102
RTVSPropertyOp8
 70
     1
102
RTVSPropertyOp9
 70
     1
102
RTVSPropertyOp10
 70
     1
102
RTVSPropertyOp11
 70
     1
102
RTVSPropertyOp12
 70
     1
102
RTVSPropertyOp13
 70
     1
102
RTVSPropertyOp14
 70
     1
102
RTVSPropertyOp15
 70
     1
102
RTVSPropertyOp16
 70
     1
102
RTVSPropertyOp17
 70
     1
102
RTVSPropertyOp18
 70
     1
102
RTVSPropertyOp19
 70
     1
102
RTVSPropertyOp20
 70
     1
102
RTVSPropertyOp21
 70
     1
102
RTVSPropertyOp22
 70
     1
102
RTVSPropertyOp23
 70
     1
102
RTVSPropertyOp24
 70
     1
102
RTVSPropertyOp25
 70
     1
102
RTVSPropertyOp26
 70
     1
102
RTVSPropertyOp27
 70
     1
102
RTVSPropertyOp28
 70
     1
102
RTVSPropertyOp29
 70
     1
102
RTVSPropertyOp30
 70
     1
102
RTVSPropertyOp31
 70
     1
102
RTVSPropertyOp32
 70
     1
  0
XRECORD
  5
60
102
{ACAD_REACTORS
330
5F
102
}
330
5F
100
AcDbXrecord
280
     1
102
RTVSPropertyOp0
 70
     1
102
RTVSPropertyOp1
 70
     1
102
RTVSPropertyOp2
 70
     1
102
RTVSPropertyOp3
 70
     1
102
RTVSPropertyOp4
 70
     1
102
RTVSPropertyOp5
 70
     1
102
RTVSPropertyOp6
 70
     1
102
RTVSPropertyOp7
 70
     1
102
RTVSPropertyOp8
 70
     1
102
RTVSPropertyOp9
 70
     1
102
RTVSPropertyOp10
 70
     1
102
RTVSPropertyOp11
 70
     1
102
RTVSPropertyOp12
 70
     1
102
RTVSPropertyOp13
 70
     1
102
RTVSPropertyOp14
 70
     1
102
RTVSPropertyOp15
 70
     1
102
RTVSPropertyOp16
 70
     1
102
RTVSPropertyOp17
 70
     1
102
RTVSPropertyOp18
 70
     1
102
RTVSPropertyOp19
 70
     1
102
RTVSPropertyOp20
 70
     1
102
RTVSPropertyOp21
 70
     1
102
RTVSPropertyOp22
 70
     1
102
RTVSPropertyOp23
 70
     1
102
RTVSPropertyOp24
 70
     1
102
RTVSPropertyOp25
 70
     1
102
RTVSPropertyOp26
 70
     1
102
RTVSPropertyOp27
 70
     1
102
RTVSPropertyOp28
 70
     1
102
RTVSPropertyOp29
 70
     1
102
RTVSPropertyOp30
 70
     1
102
RTVSPropertyOp31
 70
     1
102
RTVSPropertyOp32
 70
     1
  0
XRECORD
  5
44
102
{ACAD_REACTORS
330
43
102
}
330
43
100
AcDbXrecord
280
     1
102
RTVSPropertyOp0
 70
     1
102
RTVSPropertyOp1
 70
     1
102
RTVSPropertyOp2
 70
     1
102
RTVSPropertyOp3
 70
     1
102
RTVSPropertyOp4
 70
     1
102
RTVSPropertyOp5
 70
     1
102
RTVSPropertyOp6
 70
     1
102
RTVSPropertyOp7
 70
     1
102
RTVSPropertyOp8
 70
     1
102
RTVSPropertyOp9
 70
     1
102
RTVSPropertyOp10
 70
     1
102
RTVSPropertyOp11
 70
     1
102
RTVSPropertyOp12
 70
     1
102
RTVSPropertyOp13
 70
     1
102
RTVSPropertyOp14
 70
     1
102
RTVSPropertyOp15
 70
     1
102
RTVSPropertyOp16
 70
     1
102
RTVSPropertyOp17
 70
     1
102
RTVSPropertyOp18
 70
     1
102
RTVSPropertyOp19
 70
     1
102
RTVSPropertyOp20
 70
     1
102
RTVSPropertyOp21
 70
     1
102
RTVSPropertyOp22
 70
     1
102
RTVSPropertyOp23
 70
     1
102
RTVSPropertyOp24
 70
     1
102
RTVSPropertyOp25
 70
     1
102
RTVSPropertyOp26
 70
     1
102
RTVSPropertyOp27
 70
     1
102
RTVSPropertyOp28
 70
     1
102
RTVSPropertyOp29
 70
     1
102
RTVSPropertyOp30
 70
     1
102
RTVSPropertyOp31
 70
     1
102
RTVSPropertyOp32
 70
     1
  0
XRECORD
  5
46
102
{ACAD_REACTORS
330
45
102
}
330
45
100
AcDbXrecord
280
     1
102
RTVSPropertyOp0
 70
     1
102
RTVSPropertyOp1
 70
     1
102
RTVSPropertyOp2
 70
     1
102
RTVSPropertyOp3
 70
     1
102
RTVSPropertyOp4
 70
     1
102
RTVSPropertyOp5
 70
     1
102
RTVSPropertyOp6
 70
     1
102
RTVSPropertyOp7
 70
     1
102
RTVSPropertyOp8
 70
     1
102
RTVSPropertyOp9
 70
     1
102
RTVSPropertyOp10
 70
     1
102
RTVSPropertyOp11
 70
     1
102
RTVSPropertyOp12
 70
     1
102
RTVSPropertyOp13
 70
     1
102
RTVSPropertyOp14
 70
     1
102
RTVSPropertyOp15
 70
     1
102
RTVSPropertyOp16
 70
     1
102
RTVSPropertyOp17
 70
     1
102
RTVSPropertyOp18
 70
     1
102
RTVSPropertyOp19
 70
     1
102
RTVSPropertyOp20
 70
     1
102
RTVSPropertyOp21
 70
     1
102
RTVSPropertyOp22
 70
     1
102
RTVSPropertyOp23
 70
     1
102
RTVSPropertyOp24
 70
     1
102
RTVSPropertyOp25
 70
     1
102
RTVSPropertyOp26
 70
     1
102
RTVSPropertyOp27
 70
     1
102
RTVSPropertyOp28
 70
     1
102
RTVSPropertyOp29
 70
     1
102
RTVSPropertyOp30
 70
     1
102
RTVSPropertyOp31
 70
     1
102
RTVSPropertyOp32
 70
     1
  0
XRECORD
  5
48
102
{ACAD_REACTORS
330
47
102
}
330
47
100
AcDbXrecord
280
     1
102
RTVSPropertyOp0
 70
     1
102
RTVSPropertyOp1
 70
     1
102
RTVSPropertyOp2
 70
     1
102
RTVSPropertyOp3
 70
     1
102
RTVSPropertyOp4
 70
     1
102
RTVSPropertyOp5
 70
     1
102
RTVSPropertyOp6
 70
     1
102
RTVSPropertyOp7
 70
     1
102
RTVSPropertyOp8
 70
     1
102
RTVSPropertyOp9
 70
     1
102
RTVSPropertyOp10
 70
     1
102
RTVSPropertyOp11
 70
     1
102
RTVSPropertyOp12
 70
     1
102
RTVSPropertyOp13
 70
     1
102
RTVSPropertyOp14
 70
     1
102
RTVSPropertyOp15
 70
     1
102
RTVSPropertyOp16
 70
     1
102
RTVSPropertyOp17
 70
     1
102
RTVSPropertyOp18
 70
     1
102
RTVSPropertyOp19
 70
     1
102
RTVSPropertyOp20
 70
     1
102
RTVSPropertyOp21
 70
     1
102
RTVSPropertyOp22
 70
     1
102
RTVSPropertyOp23
 70
     1
102
RTVSPropertyOp24
 70
     1
102
RTVSPropertyOp25
 70
     1
102
RTVSPropertyOp26
 70
     1
102
RTVSPropertyOp27
 70
     1
102
RTVSPropertyOp28
 70
     1
102
RTVSPropertyOp29
 70
     1
102
RTVSPropertyOp30
 70
     1
102
RTVSPropertyOp31
 70
     1
102
RTVSPropertyOp32
 70
     1
  0
XRECORD
  5
4A
102
{ACAD_REACTORS
330
49
102
}
330
49
100
AcDbXrecord
280
     1
102
RTVSPropertyOp0
 70
     1
102
RTVSPropertyOp1
 70
     1
102
RTVSPropertyOp2
 70
     1
102
RTVSPropertyOp3
 70
     1
102
RTVSPropertyOp4
 70
     1
102
RTVSPropertyOp5
 70
     1
102
RTVSPropertyOp6
 70
     1
102
RTVSPropertyOp7
 70
     1
102
RTVSPropertyOp8
 70
     1
102
RTVSPropertyOp9
 70
     1
102
RTVSPropertyOp10
 70
     1
102
RTVSPropertyOp11
 70
     1
102
RTVSPropertyOp12
 70
     1
102
RTVSPropertyOp13
 70
     1
102
RTVSPropertyOp14
 70
     1
102
RTVSPropertyOp15
 70
     1
102
RTVSPropertyOp16
 70
     1
102
RTVSPropertyOp17
 70
     1
102
RTVSPropertyOp18
 70
     1
102
RTVSPropertyOp19
 70
     1
102
RTVSPropertyOp20
 70
     1
102
RTVSPropertyOp21
 70
     1
102
RTVSPropertyOp22
 70
     1
102
RTVSPropertyOp23
 70
     1
102
RTVSPropertyOp24
 70
     1
102
RTVSPropertyOp25
 70
     1
102
RTVSPropertyOp26
 70
     1
102
RTVSPropertyOp27
 70
     1
102
RTVSPropertyOp28
 70
     1
102
RTVSPropertyOp29
 70
     1
102
RTVSPropertyOp30
 70
     1
102
RTVSPropertyOp31
 70
     1
102
RTVSPropertyOp32
 70
     1
  0
XRECORD
  5
5E
102
{ACAD_REACTORS
330
5D
102
}
330
5D
100
AcDbXrecord
280
     1
102
RTVSPropertyOp0
 70
     1
102
RTVSPropertyOp1
 70
     1
102
RTVSPropertyOp2
 70
     1
102
RTVSPropertyOp3
 70
     1
102
RTVSPropertyOp4
 70
     1
102
RTVSPropertyOp5
 70
     1
102
RTVSPropertyOp6
 70
     1
102
RTVSPropertyOp7
 70
     1
102
RTVSPropertyOp8
 70
     1
102
RTVSPropertyOp9
 70
     1
102
RTVSPropertyOp10
 70
     1
102
RTVSPropertyOp11
 70
     1
102
RTVSPropertyOp12
 70
     1
102
RTVSPropertyOp13
 70
     1
102
RTVSPropertyOp14
 70
     1
102
RTVSPropertyOp15
 70
     1
102
RTVSPropertyOp16
 70
     1
102
RTVSPropertyOp17
 70
     1
102
RTVSPropertyOp18
 70
     1
102
RTVSPropertyOp19
 70
     1
102
RTVSPropertyOp20
 70
     1
102
RTVSPropertyOp21
 70
     1
102
RTVSPropertyOp22
 70
     1
102
RTVSPropertyOp23
 70
     1
102
RTVSPropertyOp24
 70
     1
102
RTVSPropertyOp25
 70
     1
102
RTVSPropertyOp26
 70
     1
102
RTVSPropertyOp27
 70
     1
102
RTVSPropertyOp28
 70
     1
102
RTVSPropertyOp29
 70
     1
102
RTVSPropertyOp30
 70
     1
102
RTVSPropertyOp31
 70
     1
102
RTVSPropertyOp32
 70
     1
  0
XRECORD
  5
54
102
{ACAD_REACTORS
330
53
102
}
330
53
100
AcDbXrecord
280
     1
102
RTVSPropertyOp0
 70
     1
102
RTVSPropertyOp1
 70
     1
102
RTVSPropertyOp2
 70
     1
102
RTVSPropertyOp3
 70
     1
102
RTVSPropertyOp4
 70
     1
102
RTVSPropertyOp5
 70
     1
102
RTVSPropertyOp6
 70
     1
102
RTVSPropertyOp7
 70
     1
102
RTVSPropertyOp8
 70
     1
102
RTVSPropertyOp9
 70
     1
102
RTVSPropertyOp10
 70
     1
102
RTVSPropertyOp11
 70
     1
102
RTVSPropertyOp12
 70
     1
102
RTVSPropertyOp13
 70
     1
102
RTVSPropertyOp14
 70
     1
102
RTVSPropertyOp15
 70
     1
102
RTVSPropertyOp16
 70
     1
102
RTVSPropertyOp17
 70
     1
102
RTVSPropertyOp18
 70
     1
102
RTVSPropertyOp19
 70
     1
102
RTVSPropertyOp20
 70
     1
102
RTVSPropertyOp21
 70
     1
102
RTVSPropertyOp22
 70
     1
102
RTVSPropertyOp23
 70
     1
102
RTVSPropertyOp24
 70
     1
102
RTVSPropertyOp25
 70
     1
102
RTVSPropertyOp26
 70
     1
102
RTVSPropertyOp27
 70
     1
102
RTVSPropertyOp28
 70
     1
102
RTVSPropertyOp29
 70
     1
102
RTVSPropertyOp30
 70
     1
102
RTVSPropertyOp31
 70
     1
102
RTVSPropertyOp32
 70
     1
  0
XRECORD
  5
5C
102
{ACAD_REACTORS
330
5B
102
}
330
5B
100
AcDbXrecord
280
     1
102
RTVSPropertyOp0
 70
     1
102
RTVSPropertyOp1
 70
     1
102
RTVSPropertyOp2
 70
     1
102
RTVSPropertyOp3
 70
     1
102
RTVSPropertyOp4
 70
     1
102
RTVSPropertyOp5
 70
     1
102
RTVSPropertyOp6
 70
     1
102
RTVSPropertyOp7
 70
     1
102
RTVSPropertyOp8
 70
     1
102
RTVSPropertyOp9
 70
     1
102
RTVSPropertyOp10
 70
     1
102
RTVSPropertyOp11
 70
     1
102
RTVSPropertyOp12
 70
     1
102
RTVSPropertyOp13
 70
     1
102
RTVSPropertyOp14
 70
     1
102
RTVSPropertyOp15
 70
     1
102
RTVSPropertyOp16
 70
     1
102
RTVSPropertyOp17
 70
     1
102
RTVSPropertyOp18
 70
     1
102
RTVSPropertyOp19
 70
     1
102
RTVSPropertyOp20
 70
     1
102
RTVSPropertyOp21
 70
     1
102
RTVSPropertyOp22
 70
     1
102
RTVSPropertyOp23
 70
     1
102
RTVSPropertyOp24
 70
     1
102
RTVSPropertyOp25
 70
     1
102
RTVSPropertyOp26
 70
     1
102
RTVSPropertyOp27
 70
     1
102
RTVSPropertyOp28
 70
     1
102
RTVSPropertyOp29
 70
     1
102
RTVSPropertyOp30
 70
     1
102
RTVSPropertyOp31
 70
     1
102
RTVSPropertyOp32
 70
     1
  0
ENDSEC
  0
EOF
