  0
SECTION
  2
HEADER
  9
$ACADVER
  1
AC1015
  9
$ACADMAINTVER
 70
     6
  9
$DWGCODEPAGE
  3
ANSI_1252
  9
$INSBASE
 10
0.0
 20
0.0
 30
0.0
  9
$EXTMIN
 10
-104.1593
 20
-137.3904
 30
0.0
  9
$EXTMAX
 10
106.2175
 20
131.3595
 30
0.0
  9
$LIMMIN
 10
0.0
 20
0.0
  9
$LIMMAX
 10
12.0
 20
9.0
  9
$ORTHOMODE
 70
     0
  9
$REGENMODE
 70
     1
  9
$FILLMODE
 70
     1
  9
$QTEXTMODE
 70
     0
  9
$MIRRTEXT
 70
     1
  9
$LTSCALE
 40
1.0
  9
$ATTMODE
 70
     1
  9
$TEXTSIZE
 40
0.2
  9
$TRACEWID
 40
0.05
  9
$TEXTSTYLE
  7
Standard
  9
$CLAYER
  8
0
  9
$CELTYPE
  6
ByLayer
  9
$CECOLOR
 62
   256
  9
$CELTSCALE
 40
1.0
  9
$DISPSILH
 70
     0
  9
$DIMSCALE
 40
1.0
  9
$DIMASZ
 40
0.18
  9
$DIMEXO
 40
0.0625
  9
$DIMDLI
 40
0.38
  9
$DIMRND
 40
0.0
  9
$DIMDLE
 40
0.0
  9
$DIMEXE
 40
0.18
  9
$DIMTP
 40
0.0
  9
$DIMTM
 40
0.0
  9
$DIMTXT
 40
0.18
  9
$DIMCEN
 40
0.09
  9
$DIMTSZ
 40
0.0
  9
$DIMTOL
 70
     0
  9
$DIMLIM
 70
     0
  9
$DIMTIH
 70
     1
  9
$DIMTOH
 70
     1
  9
$DIMSE1
 70
     0
  9
$DIMSE2
 70
     0
  9
$DIMTAD
 70
     0
  9
$DIMZIN
 70
     0
  9
$DIMBLK
  1

  9
$DIMASO
 70
     1
  9
$DIMSHO
 70
     1
  9
$DIMPOST
  1

  9
$DIMAPOST
  1

  9
$DIMALT
 70
     0
  9
$DIMALTD
 70
     2
  9
$DIMALTF
 40
25.4
  9
$DIMLFAC
 40
1.0
  9
$DIMTOFL
 70
     0
  9
$DIMTVP
 40
0.0
  9
$DIMTIX
 70
     0
  9
$DIMSOXD
 70
     0
  9
$DIMSAH
 70
     0
  9
$DIMBLK1
  1

  9
$DIMBLK2
  1

  9
$DIMSTYLE
  2
Standard
  9
$DIMCLRD
 70
     0
  9
$DIMCLRE
 70
     0
  9
$DIMCLRT
 70
     0
  9
$DIMTFAC
 40
1.0
  9
$DIMGAP
 40
0.09
  9
$DIMJUST
 70
     0
  9
$DIMSD1
 70
     0
  9
$DIMSD2
 70
     0
  9
$DIMTOLJ
 70
     1
  9
$DIMTZIN
 70
     0
  9
$DIMALTZ
 70
     0
  9
$DIMALTTZ
 70
     0
  9
$DIMUPT
 70
     0
  9
$DIMDEC
 70
     4
  9
$DIMTDEC
 70
     4
  9
$DIMALTU
 70
     2
  9
$DIMALTTD
 70
     2
  9
$DIMTXSTY
  7
Standard
  9
$DIMAUNIT
 70
     0
  9
$DIMADEC
 70
     0
  9
$DIMALTRND
 40
0.0
  9
$DIMAZIN
 70
     0
  9
$DIMDSEP
 70
    46
  9
$DIMATFIT
 70
     3
  9
$DIMFRAC
 70
     0
  9
$DIMLDRBLK
  1

  9
$DIMLUNIT
 70
     2
  9
$DIMLWD
 70
    -2
  9
$DIMLWE
 70
    -2
  9
$DIMTMOVE
 70
     0
  9
$LUNITS
 70
     2
  9
$LUPREC
 70
     4
  9
$SKETCHINC
 40
0.1
  9
$FILLETRAD
 40
0.5
  9
$AUNITS
 70
     0
  9
$AUPREC
 70
     0
  9
$MENU
  1
.
  9
$ELEVATION
 40
0.0
  9
$PELEVATION
 40
0.0
  9
$THICKNESS
 40
0.0
  9
$LIMCHECK
 70
     0
  9
$CHAMFERA
 40
0.5
  9
$CHAMFERB
 40
0.5
  9
$CHAMFERC
 40
1.0
  9
$CHAMFERD
 40
0.0
  9
$SKPOLY
 70
     0
  9
$TDCREATE
 40
2456177.800916771
  9
$TDUCREATE
 40
2456178.134250104
  9
$TDUPDATE
 40
2456177.842583449
  9
$TDUUPDATE
 40
2456178.134250116
  9
$TDINDWG
 40
0.0000000116
  9
$TDUSRTIMER
 40
0.0000000116
  9
$USRTIMER
 70
     1
  9
$ANGBASE
 50
0.0
  9
$ANGDIR
 70
     0
  9
$PDMODE
 70
     0
  9
$PDSIZE
 40
0.0
  9
$PLINEWID
 40
0.0
  9
$SPLFRAME
 70
     0
  9
$SPLINETYPE
 70
     6
  9
$SPLINESEGS
 70
     8
  9
$HANDSEED
  5
3C
  9
$SURFTAB1
 70
     6
  9
$SURFTAB2
 70
     6
  9
$SURFTYPE
 70
     6
  9
$SURFU
 70
     6
  9
$SURFV
 70
     6
  9
$UCSBASE
  2

  9
$UCSNAME
  2

  9
$UCSORG
 10
0.0
 20
0.0
 30
0.0
  9
$UCSXDIR
 10
1.0
 20
0.0
 30
0.0
  9
$UCSYDIR
 10
0.0
 20
1.0
 30
0.0
  9
$UCSORTHOREF
  2

  9
$UCSORTHOVIEW
 70
     0
  9
$UCSORGTOP
 10
0.0
 20
0.0
 30
0.0
  9
$UCSORGBOTTOM
 10
0.0
 20
0.0
 30
0.0
  9
$UCSORGLEFT
 10
0.0
 20
0.0
 30
0.0
  9
$UCSORGRIGHT
 10
0.0
 20
0.0
 30
0.0
  9
$UCSORGFRONT
 10
0.0
 20
0.0
 30
0.0
  9
$UCSORGBACK
 10
0.0
 20
0.0
 30
0.0
  9
$PUCSBASE
  2

  9
$PUCSNAME
  2

  9
$PUCSORG
 10
0.0
 20
0.0
 30
0.0
  9
$PUCSXDIR
 10
1.0
 20
0.0
 30
0.0
  9
$PUCSYDIR
 10
0.0
 20
1.0
 30
0.0
  9
$PUCSORTHOREF
  2

  9
$PUCSORTHOVIEW
 70
     0
  9
$PUCSORGTOP
 10
0.0
 20
0.0
 30
0.0
  9
$PUCSORGBOTTOM
 10
0.0
 20
0.0
 30
0.0
  9
$PUCSORGLEFT
 10
0.0
 20
0.0
 30
0.0
  9
$PUCSORGRIGHT
 10
0.0
 20
0.0
 30
0.0
  9
$PUCSORGFRONT
 10
0.0
 20
0.0
 30
0.0
  9
$PUCSORGBACK
 10
0.0
 20
0.0
 30
0.0
  9
$USERI1
 70
     0
  9
$USERI2
 70
     0
  9
$USERI3
 70
     0
  9
$USERI4
 70
     0
  9
$USERI5
 70
     0
  9
$USERR1
 40
0.0
  9
$USERR2
 40
0.0
  9
$USERR3
 40
0.0
  9
$USERR4
 40
0.0
  9
$USERR5
 40
0.0
  9
$WORLDVIEW
 70
     1
  9
$SHADEDGE
 70
     3
  9
$SHADEDIF
 70
    70
  9
$TILEMODE
 70
     1
  9
$MAXACTVP
 70
    64
  9
$PINSBASE
 10
0.0
 20
0.0
 30
0.0
  9
$PLIMCHECK
 70
     0
  9
$PEXTMIN
 10
1.000000000000000E+20
 20
1.000000000000000E+20
 30
1.000000000000000E+20
  9
$PEXTMAX
 10
-1.000000000000000E+20
 20
-1.000000000000000E+20
 30
-1.000000000000000E+20
  9
$PLIMMIN
 10
0.0
 20
0.0
  9
$PLIMMAX
 10
12.0
 20
9.0
  9
$UNITMODE
 70
     0
  9
$VISRETAIN
 70
     1
  9
$PLINEGEN
 70
     0
  9
$PSLTSCALE
 70
     1
  9
$TREEDEPTH
 70
  3020
  9
$CMLSTYLE
  2
Standard
  9
$CMLJUST
 70
     0
  9
$CMLSCALE
 40
1.0
  9
$PROXYGRAPHICS
 70
     1
  9
$MEASUREMENT
 70
     0
  9
$CELWEIGHT
370
    -1
  9
$ENDCAPS
280
     0
  9
$JOINSTYLE
280
     0
  9
$LWDISPLAY
290
     0
  9
$INSUNITS
 70
     4
  9
$HYPERLINKBASE
  1

  9
$STYLESHEET
  1

  9
$XEDIT
290
     1
  9
$CEPSNTYPE
380
     0
  9
$PSTYLEMODE
290
     0
  9
$FINGERPRINTGUID
  2
{FAEB1C30-E019-11D5-929B-00C0DF256EC4}
  9
$VERSIONGUID
  2
{FAEB1C32-E019-11D5-929B-00C0DF256EC4}
  9
$EXTNAMES
290
     1
  9
$PSVPSCALE
 40
0.0
  9
$OLESTARTUP
290
     0
  0
ENDSEC
  0
SECTION
  2
CLASSES
  0
CLASS
  1
ACDBDICTIONARYWDFLT
  2
AcDbDictionaryWithDefault
  3
ObjectDBX Classes
 90
        0
280
     0
281
     0
  0
CLASS
  1
ACDBPLACEHOLDER
  2
AcDbPlaceHolder
  3
ObjectDBX Classes
 90
        0
280
     0
281
     0
  0
CLASS
  1
LAYOUT
  2
AcDbLayout
  3
ObjectDBX Classes
 90
        0
280
     0
281
     0
  0
ENDSEC
  0
SECTION
  2
TABLES
  0
TABLE
  2
VPORT
  5
8
330
0
100
AcDbSymbolTable
 70
     2
  0
VPORT
  5
29
330
8
100
AcDbSymbolTableRecord
100
AcDbViewportTableRecord
  2
*Active
 70
     0
 10
0.0
 20
0.0
 11
1.0
 21
1.0
 12
10.42990654205607
 22
4.5
 13
0.0
 23
0.0
 14
0.5
 24
0.5
 15
0.5
 25
0.5
 16
0.0
 26
0.0
 36
1.0
 17
0.0
 27
0.0
 37
0.0
 40
9.0
 41
1.972972972850329
 42
50.0
 43
0.0
 44
0.0
 50
0.0
 51
0.0
 71
     0
 72
   100
 73
     1
 74
     3
 75
     0
 76
     0
 77
     0
 78
     0
281
     0
 65
     1
110
0.0
120
0.0
130
0.0
111
1.0
121
0.0
131
0.0
112
0.0
122
1.0
132
0.0
 79
     0
146
0.0
  0
ENDTAB
  0
TABLE
  2
LTYPE
  5
5
330
0
100
AcDbSymbolTable
 70
     1
  0
LTYPE
  5
14
330
5
100
AcDbSymbolTableRecord
100
AcDbLinetypeTableRecord
  2
ByBlock
 70
     0
  3

 72
    65
 73
     0
 40
0.0
  0
LTYPE
  5
15
330
5
100
AcDbSymbolTableRecord
100
AcDbLinetypeTableRecord
  2
ByLayer
 70
     0
  3

 72
    65
 73
     0
 40
0.0
  0
LTYPE
  5
16
330
5
100
AcDbSymbolTableRecord
100
AcDbLinetypeTableRecord
  2
Continuous
 70
     0
  3
Solid line
 72
    65
 73
     0
 40
0.0
  0
ENDTAB
  0
TABLE
  2
LAYER
  5
2
330
0
100
AcDbSymbolTable
 70
     2
  0
LAYER
  5
10
330
2
100
AcDbSymbolTableRecord
100
AcDbLayerTableRecord
  2
0
 70
     0
 62
     7
  6
Continuous
370
    -3
390
F
  0
LAYER
  5
2B
330
2
100
AcDbSymbolTableRecord
100
AcDbLayerTableRecord
  2
Layer 1
 70
     0
 62
     7
  6
Continuous
370
    -3
390
F
  0
ENDTAB
  0
TABLE
  2
STYLE
  5
3
330
0
100
AcDbSymbolTable
 70
     1
  0
STYLE
  5
11
330
3
100
AcDbSymbolTableRecord
100
AcDbTextStyleTableRecord
  2
Standard
 70
     0
 40
0.0
 41
1.0
 50
0.0
 71
     0
 42
0.2
  3
txt
  4

  0
ENDTAB
  0
TABLE
  2
VIEW
  5
6
330
0
100
AcDbSymbolTable
 70
     0
  0
ENDTAB
  0
TABLE
  2
UCS
  5
7
330
0
100
AcDbSymbolTable
 70
     0
  0
ENDTAB
  0
TABLE
  2
APPID
  5
9
330
0
100
AcDbSymbolTable
 70
     2
  0
APPID
  5
12
330
9
100
AcDbSymbolTableRecord
100
AcDbRegAppTableRecord
  2
ACAD
 70
     0
  0
APPID
  5
2A
330
9
100
AcDbSymbolTableRecord
100
AcDbRegAppTableRecord
  2
ODA
 70
     0
  0
ENDTAB
  0
TABLE
  2
DIMSTYLE
  5
A
330
0
100
AcDbSymbolTable
 70
     1
100
AcDbDimStyleTable
  0
DIMSTYLE
105
27
330
A
100
AcDbSymbolTableRecord
100
AcDbDimStyleTableRecord
  2
Standard
 70
     0
340
11
  0
ENDTAB
  0
TABLE
  2
BLOCK_RECORD
  5
1
330
0
100
AcDbSymbolTable
 70
     1
  0
BLOCK_RECORD
  5
1F
330
1
100
AcDbSymbolTableRecord
100
AcDbBlockTableRecord
  2
*Model_Space
340
22
  0
BLOCK_RECORD
  5
1B
330
1
100
AcDbSymbolTableRecord
100
AcDbBlockTableRecord
  2
*Paper_Space
340
1E
  0
BLOCK_RECORD
  5
23
330
1
100
AcDbSymbolTableRecord
100
AcDbBlockTableRecord
  2
*Paper_Space0
340
26
  0
ENDTAB
  0
ENDSEC
  0
SECTION
  2
BLOCKS
  0
BLOCK
  5
20
330
1F
100
AcDbEntity
  8
0
100
AcDbBlockBegin
  2
*Model_Space
 70
     0
 71
     0
 10
0.0
 20
0.0
 30
0.0
  3
*Model_Space
  1

  0
ENDBLK
  5
21
330
1F
100
AcDbEntity
  8
0
100
AcDbBlockEnd
  0
BLOCK
  5
1C
330
1B
100
AcDbEntity
 67
     1
  8
0
100
AcDbBlockBegin
  2
*Paper_Space
 70
     0
 71
     0
 10
0.0
 20
0.0
 30
0.0
  3
*Paper_Space
  1

  0
ENDBLK
  5
1D
330
1B
100
AcDbEntity
 67
     1
  8
0
100
AcDbBlockEnd
  0
BLOCK
  5
24
330
23
100
AcDbEntity
  8
0
100
AcDbBlockBegin
  2
*Paper_Space0
 70
     0
 71
     0
 10
0.0
 20
0.0
 30
0.0
  3
*Paper_Space0
  1

  0
ENDBLK
  5
25
330
23
100
AcDbEntity
  8
0
100
AcDbBlockEnd
  0
ENDSEC
  0
SECTION
  2
ENTITIES
  0
SPLINE
  5
2C
330
1F
100
AcDbEntity
  8
Layer 1
 62
    31
370
    40
100
AcDbSpline
210
0.0
220
0.0
230
1.0
 70
    11
 71
     3
 72
    60
 73
    56
 74
     0
 42
0.0000000001
 43
0.0000000001
 40
0.0
 40
0.0
 40
0.0
 40
0.0
 40
0.0714285714285714
 40
0.0714285714285714
 40
0.0714285714285714
 40
0.0714285714285714
 40
0.1428571428571429
 40
0.1428571428571429
 40
0.1428571428571429
 40
0.1428571428571429
 40
0.2142857142857143
 40
0.2142857142857143
 40
0.2142857142857143
 40
0.2142857142857143
 40
0.2857142857142857
 40
0.2857142857142857
 40
0.2857142857142857
 40
0.2857142857142857
 40
0.3571428571428571
 40
0.3571428571428571
 40
0.3571428571428571
 40
0.3571428571428571
 40
0.4285714285714285
 40
0.4285714285714285
 40
0.4285714285714285
 40
0.4285714285714285
 40
0.4999999999999999
 40
0.4999999999999999
 40
0.4999999999999999
 40
0.4999999999999999
 40
0.5714285714285713
 40
0.5714285714285713
 40
0.5714285714285713
 40
0.5714285714285713
 40
0.6428571428571427
 40
0.6428571428571427
 40
0.6428571428571427
 40
0.6428571428571427
 40
0.7142857142857141
 40
0.7142857142857141
 40
0.7142857142857141
 40
0.7142857142857141
 40
0.7857142857142855
 40
0.7857142857142855
 40
0.7857142857142855
 40
0.7857142857142855
 40
0.8571428571428569
 40
0.8571428571428569
 40
0.8571428571428569
 40
0.8571428571428569
 40
0.9285714285714283
 40
0.9285714285714283
 40
0.9285714285714283
 40
0.9285714285714283
 40
1.0
 40
1.0
 40
1.0
 40
1.0
 10
-95.5603
 20
-8.142200000000001
 30
0.0
 10
-95.3326
 20
-8.142200000000001
 30
0.0
 10
-95.1084
 20
-8.1561
 30
0.0
 10
-94.88770000000001
 20
-8.182600000000001
 30
0.0
 10
-94.88770000000001
 20
-8.182600000000001
 30
0.0
 10
-94.91240000000001
 20
-6.874800000000001
 30
0.0
 10
-94.92790000000001
 20
-5.5271
 30
0.0
 10
-94.92790000000001
 20
-4.112
 30
0.0
 10
-94.92790000000001
 20
-4.112
 30
0.0
 10
-94.92790000000001
 20
12.7903
 30
0.0
 10
-78.2629
 20
26.4974
 30
0.0
 10
-57.7134
 20
26.4974
 30
0.0
 10
-57.7134
 20
26.4974
 30
0.0
 10
-37.1637
 20
26.4974
 30
0.0
 10
-20.4987
 20
12.7903
 30
0.0
 10
-20.4987
 20
-4.112
 30
0.0
 10
-20.4987
 20
-4.112
 30
0.0
 10
-20.4987
 20
-4.933800000000001
 30
0.0
 10
-20.5041
 20
-5.7329
 30
0.0
 10
-20.5134
 20
-6.514600000000001
 30
0.0
 10
-20.5134
 20
-6.514600000000001
 30
0.0
 10
-20.226
 20
-6.468900000000001
 30
0.0
 10
-19.9312
 20
-6.4447
 30
0.0
 10
-19.6311
 20
-6.4447
 30
0.0
 10
-19.6311
 20
-6.4447
 30
0.0
 10
-17.7328
 20
-6.4447
 30
0.0
 10
-16.0531
 20
-7.393800000000001
 30
0.0
 10
-15.0306
 20
-8.8482
 30
0.0
 10
-15.0306
 20
-8.8482
 30
0.0
 10
-12.3919
 20
-12.6017
 30
0.0
 10
-16.7133
 20
-19.9361
 30
0.0
 10
-20.827
 20
-20.3766
 30
0.0
 10
-20.827
 20
-20.3766
 30
0.0
 10
-20.8321
 20
-20.9418
 30
0.0
 10
-20.8349
 20
-21.5155
 30
0.0
 10
-20.8349
 20
-22.0995
 30
0.0
 10
-20.8349
 20
-22.0995
 30
0.0
 10
-20.8349
 20
-33.8821
 30
0.0
 10
-37.3493
 20
-43.4374
 30
0.0
 10
-57.7132
 20
-43.4374
 30
0.0
 10
-57.7132
 20
-43.4374
 30
0.0
 10
-78.07720000000001
 20
-43.4374
 30
0.0
 10
-94.5916
 20
-33.8821
 30
0.0
 10
-94.5916
 20
-22.0995
 30
0.0
 10
-94.5916
 20
-22.0995
 30
0.0
 10
-94.5916
 20
-22.0995
 30
0.0
 10
-94.5917
 20
-22.0429
 30
0.0
 10
-94.5917
 20
-22.0429
 30
0.0
 10
-94.5917
 20
-22.0429
 30
0.0
 10
-98.63500000000001
 20
-21.3654
 30
0.0
 10
-102.751
 20
-14.2302
 30
0.0
 10
-100.1608
 20
-10.5457
 30
0.0
 10
-100.1608
 20
-10.5457
 30
0.0
 10
-99.1383
 20
-9.0913
 30
0.0
 10
-97.4586
 20
-8.142200000000001
 30
0.0
 10
-95.5603
 20
-8.142200000000001
 30
0.0
  0
SPLINE
  5
2D
330
1F
100
AcDbEntity
  8
Layer 1
 62
    31
370
    40
100
AcDbSpline
210
0.0
220
0.0
230
1.0
 70
    11
 71
     3
 72
    28
 73
    24
 74
     0
 42
0.0000000001
 43
0.0000000001
 40
0.0
 40
0.0
 40
0.0
 40
0.0
 40
0.1666666666666667
 40
0.1666666666666667
 40
0.1666666666666667
 40
0.1666666666666667
 40
0.3333333333333333
 40
0.3333333333333333
 40
0.3333333333333333
 40
0.3333333333333333
 40
0.5
 40
0.5
 40
0.5
 40
0.5
 40
0.6666666666666666
 40
0.6666666666666666
 40
0.6666666666666666
 40
0.6666666666666666
 40
0.8333333333333333
 40
0.8333333333333333
 40
0.8333333333333333
 40
0.8333333333333333
 40
1.0
 40
1.0
 40
1.0
 40
1.0
 10
-61.5645
 20
99.8386
 30
0.0
 10
-41.0148
 20
99.8386
 30
0.0
 10
-24.3498
 20
86.1315
 30
0.0
 10
-24.3498
 20
69.22920000000001
 30
0.0
 10
-24.3498
 20
69.22920000000001
 30
0.0
 10
-24.3498
 20
62.6852
 30
0.0
 10
-24.686
 20
57.5774
 30
0.0
 10
-24.686
 20
51.2417
 30
0.0
 10
-24.686
 20
51.2417
 30
0.0
 10
-24.686
 20
39.4591
 30
0.0
 10
-41.2004
 20
29.9038
 30
0.0
 10
-61.5643
 20
29.9038
 30
0.0
 10
-61.5643
 20
29.9038
 30
0.0
 10
-81.92830000000001
 20
29.9038
 30
0.0
 10
-98.4427
 20
39.4591
 30
0.0
 10
-98.4427
 20
51.2417
 30
0.0
 10
-98.4427
 20
51.2417
 30
0.0
 10
-98.4427
 20
57.5774
 30
0.0
 10
-98.77900000000001
 20
62.6852
 30
0.0
 10
-98.77900000000001
 20
69.22920000000001
 30
0.0
 10
-98.77900000000001
 20
69.22920000000001
 30
0.0
 10
-98.77900000000001
 20
86.1315
 30
0.0
 10
-82.114
 20
99.8386
 30
0.0
 10
-61.5645
 20
99.8386
 30
0.0
  0
SPLINE
  5
2E
330
1F
100
AcDbEntity
  8
Layer 1
 62
   140
370
    40
100
AcDbSpline
210
0.0
220
0.0
230
1.0
 70
    11
 71
     3
 72
    16
 73
    12
 74
     0
 42
0.0000000001
 43
0.0000000001
 40
0.0
 40
0.0
 40
0.0
 40
0.0
 40
0.3333333333333333
 40
0.3333333333333333
 40
0.3333333333333333
 40
0.3333333333333333
 40
0.6666666666666666
 40
0.6666666666666666
 40
0.6666666666666666
 40
0.6666666666666666
 40
1.0
 40
1.0
 40
1.0
 40
1.0
 10
-5.6947
 20
-49.4831
 30
0.0
 10
-3.9518
 20
-49.9527
 30
0.0
 10
-3.6932
 20
-54.75210000000001
 30
0.0
 10
-4.0961
 20
-56.1155
 30
0.0
 10
-4.0961
 20
-56.1155
 30
0.0
 10
-5.3258
 20
-60.27690000000001
 30
0.0
 10
-11.6175
 20
-58.52330000000001
 30
0.0
 10
-10.4088
 20
-54.4148
 30
0.0
 10
-10.4088
 20
-54.4148
 30
0.0
 10
-10.0075
 20
-53.05090000000001
 30
0.0
 10
-7.437600000000001
 20
-49.0136
 30
0.0
 10
-5.6947
 20
-49.4831
 30
0.0
  0
SPLINE
  5
2F
330
1F
100
AcDbEntity
  8
Layer 1
370
    40
100
AcDbSpline
210
0.0
220
0.0
230
1.0
 70
    11
 71
     3
 72
    16
 73
    12
 74
     0
 42
0.0000000001
 43
0.0000000001
 40
0.0
 40
0.0
 40
0.0
 40
0.0
 40
0.3333333333333333
 40
0.3333333333333333
 40
0.3333333333333333
 40
0.3333333333333333
 40
0.6666666666666666
 40
0.6666666666666666
 40
0.6666666666666666
 40
0.6666666666666666
 40
1.0
 40
1.0
 40
1.0
 40
1.0
 10
-50.84090000000001
 20
125.2313
 30
0.0
 10
-49.3191
 20
124.8213
 30
0.0
 10
-49.0933
 20
120.6307
 30
0.0
 10
-49.4451
 20
119.4402
 30
0.0
 10
-49.4451
 20
119.4402
 30
0.0
 10
-50.51880000000001
 20
115.8067
 30
0.0
 10
-56.0125
 20
117.3378
 30
0.0
 10
-54.9571
 20
120.9252
 30
0.0
 10
-54.9571
 20
120.9252
 30
0.0
 10
-54.6067
 20
122.116
 30
0.0
 10
-52.3627
 20
125.6413
 30
0.0
 10
-50.84090000000001
 20
125.2313
 30
0.0
  0
SPLINE
  5
30
330
1F
100
AcDbEntity
  8
Layer 1
 62
   140
370
    40
100
AcDbSpline
210
0.0
220
0.0
230
1.0
 70
    11
 71
     3
 72
    16
 73
    12
 74
     0
 42
0.0000000001
 43
0.0000000001
 40
0.0
 40
0.0
 40
0.0
 40
0.0
 40
0.3333333333333333
 40
0.3333333333333333
 40
0.3333333333333333
 40
0.3333333333333333
 40
0.6666666666666666
 40
0.6666666666666666
 40
0.6666666666666666
 40
0.6666666666666666
 40
1.0
 40
1.0
 40
1.0
 40
1.0
 10
-0.7513000000000001
 20
-49.48580000000001
 30
0.0
 10
-2.4942
 20
-49.9554
 30
0.0
 10
-2.7528
 20
-54.7548
 30
0.0
 10
-2.3499
 20
-56.1182
 30
0.0
 10
-2.3499
 20
-56.1182
 30
0.0
 10
-1.1202
 20
-60.2796
 30
0.0
 10
5.1715
 20
-58.526
 30
0.0
 10
3.9628
 20
-54.4175
 30
0.0
 10
3.9628
 20
-54.4175
 30
0.0
 10
3.5615
 20
-53.0536
 30
0.0
 10
0.9916
 20
-49.0163
 30
0.0
 10
-0.7513000000000001
 20
-49.48580000000001
 30
0.0
  0
SPLINE
  5
31
330
1F
100
AcDbEntity
  8
Layer 1
370
    40
100
AcDbSpline
210
0.0
220
0.0
230
1.0
 70
    11
 71
     3
 72
    16
 73
    12
 74
     0
 42
0.0000000001
 43
0.0000000001
 40
0.0
 40
0.0
 40
0.0
 40
0.0
 40
0.3333333333333333
 40
0.3333333333333333
 40
0.3333333333333333
 40
0.3333333333333333
 40
0.6666666666666666
 40
0.6666666666666666
 40
0.6666666666666666
 40
0.6666666666666666
 40
1.0
 40
1.0
 40
1.0
 40
1.0
 10
-42.6462
 20
125.0212
 30
0.0
 10
-44.168
 20
124.6112
 30
0.0
 10
-44.3938
 20
120.4206
 30
0.0
 10
-44.042
 20
119.2301
 30
0.0
 10
-44.042
 20
119.2301
 30
0.0
 10
-42.9683
 20
115.5966
 30
0.0
 10
-37.4746
 20
117.1277
 30
0.0
 10
-38.53
 20
120.7151
 30
0.0
 10
-38.53
 20
120.7151
 30
0.0
 10
-38.8804
 20
121.9059
 30
0.0
 10
-41.1244
 20
125.4312
 30
0.0
 10
-42.6462
 20
125.0212
 30
0.0
  0
SPLINE
  5
32
330
1F
100
AcDbEntity
  8
Layer 1
 62
    40
370
    40
100
AcDbSpline
210
0.0
220
0.0
230
1.0
 70
    11
 71
     3
 72
   148
 73
   144
 74
     0
 42
0.0000000001
 43
0.0000000001
 40
0.0
 40
0.0
 40
0.0
 40
0.0
 40
0.0277777777777778
 40
0.0277777777777778
 40
0.0277777777777778
 40
0.0277777777777778
 40
0.0555555555555556
 40
0.0555555555555556
 40
0.0555555555555556
 40
0.0555555555555556
 40
0.0833333333333333
 40
0.0833333333333333
 40
0.0833333333333333
 40
0.0833333333333333
 40
0.1111111111111111
 40
0.1111111111111111
 40
0.1111111111111111
 40
0.1111111111111111
 40
0.1388888888888889
 40
0.1388888888888889
 40
0.1388888888888889
 40
0.1388888888888889
 40
0.1666666666666667
 40
0.1666666666666667
 40
0.1666666666666667
 40
0.1666666666666667
 40
0.1944444444444445
 40
0.1944444444444445
 40
0.1944444444444445
 40
0.1944444444444445
 40
0.2222222222222223
 40
0.2222222222222223
 40
0.2222222222222223
 40
0.2222222222222223
 40
0.2500000000000001
 40
0.2500000000000001
 40
0.2500000000000001
 40
0.2500000000000001
 40
0.2777777777777779
 40
0.2777777777777779
 40
0.2777777777777779
 40
0.2777777777777779
 40
0.3055555555555556
 40
0.3055555555555556
 40
0.3055555555555556
 40
0.3055555555555556
 40
0.3333333333333334
 40
0.3333333333333334
 40
0.3333333333333334
 40
0.3333333333333334
 40
0.3611111111111112
 40
0.3611111111111112
 40
0.3611111111111112
 40
0.3611111111111112
 40
0.388888888888889
 40
0.388888888888889
 40
0.388888888888889
 40
0.388888888888889
 40
0.4166666666666668
 40
0.4166666666666668
 40
0.4166666666666668
 40
0.4166666666666668
 40
0.4444444444444446
 40
0.4444444444444446
 40
0.4444444444444446
 40
0.4444444444444446
 40
0.4722222222222224
 40
0.4722222222222224
 40
0.4722222222222224
 40
0.4722222222222224
 40
0.5000000000000001
 40
0.5000000000000001
 40
0.5000000000000001
 40
0.5000000000000001
 40
0.5277777777777779
 40
0.5277777777777779
 40
0.5277777777777779
 40
0.5277777777777779
 40
0.5555555555555557
 40
0.5555555555555557
 40
0.5555555555555557
 40
0.5555555555555557
 40
0.5833333333333335
 40
0.5833333333333335
 40
0.5833333333333335
 40
0.5833333333333335
 40
0.6111111111111113
 40
0.6111111111111113
 40
0.6111111111111113
 40
0.6111111111111113
 40
0.6388888888888891
 40
0.6388888888888891
 40
0.6388888888888891
 40
0.6388888888888891
 40
0.6666666666666669
 40
0.6666666666666669
 40
0.6666666666666669
 40
0.6666666666666669
 40
0.6944444444444446
 40
0.6944444444444446
 40
0.6944444444444446
 40
0.6944444444444446
 40
0.7222222222222224
 40
0.7222222222222224
 40
0.7222222222222224
 40
0.7222222222222224
 40
0.7500000000000002
 40
0.7500000000000002
 40
0.7500000000000002
 40
0.7500000000000002
 40
0.777777777777778
 40
0.777777777777778
 40
0.777777777777778
 40
0.777777777777778
 40
0.8055555555555558
 40
0.8055555555555558
 40
0.8055555555555558
 40
0.8055555555555558
 40
0.8333333333333336
 40
0.8333333333333336
 40
0.8333333333333336
 40
0.8333333333333336
 40
0.8611111111111114
 40
0.8611111111111114
 40
0.8611111111111114
 40
0.8611111111111114
 40
0.8888888888888892
 40
0.8888888888888892
 40
0.8888888888888892
 40
0.8888888888888892
 40
0.916666666666667
 40
0.916666666666667
 40
0.916666666666667
 40
0.916666666666667
 40
0.9444444444444448
 40
0.9444444444444448
 40
0.9444444444444448
 40
0.9444444444444448
 40
0.9722222222222225
 40
0.9722222222222225
 40
0.9722222222222225
 40
0.9722222222222225
 40
1.0
 40
1.0
 40
1.0
 40
1.0
 10
-76.5737
 20
129.4851
 30
0.0
 10
-76.5737
 20
129.4851
 30
0.0
 10
-74.3844
 20
122.5195
 30
0.0
 10
-74.3844
 20
122.5195
 30
0.0
 10
-74.3844
 20
122.5195
 30
0.0
 10
-74.3844
 20
122.5195
 30
0.0
 10
-67.2576
 20
124.1062
 30
0.0
 10
-67.2576
 20
124.1062
 30
0.0
 10
-67.2576
 20
124.1062
 30
0.0
 10
-67.3381
 20
124.467
 30
0.0
 10
-67.1806
 20
124.8531
 30
0.0
 10
-66.84360000000001
 20
125.0478
 30
0.0
 10
-66.84360000000001
 20
125.0478
 30
0.0
 10
-66.428
 20
125.2877
 30
0.0
 10
-65.8964
 20
125.1452
 30
0.0
 10
-65.65640000000001
 20
124.7296
 30
0.0
 10
-65.65640000000001
 20
124.7296
 30
0.0
 10
-65.4165
 20
124.3141
 30
0.0
 10
-65.55890000000001
 20
123.7826
 30
0.0
 10
-65.97460000000001
 20
123.5425
 30
0.0
 10
-65.97460000000001
 20
123.5425
 30
0.0
 10
-66.31150000000001
 20
123.3481
 30
0.0
 10
-66.72460000000001
 20
123.405
 30
0.0
 10
-66.99680000000001
 20
123.6548
 30
0.0
 10
-66.99680000000001
 20
123.6548
 30
0.0
 10
-66.99680000000001
 20
123.6548
 30
0.0
 10
-71.9344
 20
118.2761
 30
0.0
 10
-71.9344
 20
118.2761
 30
0.0
 10
-71.9344
 20
118.2761
 30
0.0
 10
-71.9344
 20
118.2761
 30
0.0
 10
-66.9969
 20
112.8975
 30
0.0
 10
-66.9969
 20
112.8975
 30
0.0
 10
-66.9969
 20
112.8975
 30
0.0
 10
-66.7247
 20
113.1475
 30
0.0
 10
-66.3116
 20
113.2042
 30
0.0
 10
-65.97460000000001
 20
113.0097
 30
0.0
 10
-65.97460000000001
 20
113.0097
 30
0.0
 10
-65.559
 20
112.7697
 30
0.0
 10
-65.4165
 20
112.2382
 30
0.0
 10
-65.65650000000001
 20
111.8225
 30
0.0
 10
-65.65650000000001
 20
111.8225
 30
0.0
 10
-65.8965
 20
111.4069
 30
0.0
 10
-66.42790000000001
 20
111.2646
 30
0.0
 10
-66.84360000000001
 20
111.5045
 30
0.0
 10
-66.84360000000001
 20
111.5045
 30
0.0
 10
-67.18050000000001
 20
111.6991
 30
0.0
 10
-67.33800000000001
 20
112.0854
 30
0.0
 10
-67.2576
 20
112.446
 30
0.0
 10
-67.2576
 20
112.446
 30
0.0
 10
-67.2576
 20
112.446
 30
0.0
 10
-74.38430000000001
 20
114.0327
 30
0.0
 10
-74.38430000000001
 20
114.0327
 30
0.0
 10
-74.38430000000001
 20
114.0327
 30
0.0
 10
-74.38430000000001
 20
114.0327
 30
0.0
 10
-76.5736
 20
107.0674
 30
0.0
 10
-76.5736
 20
107.0674
 30
0.0
 10
-76.5736
 20
107.0674
 30
0.0
 10
-76.221
 20
106.9567
 30
0.0
 10
-75.9654
 20
106.6273
 30
0.0
 10
-75.9654
 20
106.2381
 30
0.0
 10
-75.9654
 20
106.2381
 30
0.0
 10
-75.9653
 20
105.7581
 30
0.0
 10
-76.35420000000001
 20
105.3691
 30
0.0
 10
-76.83450000000001
 20
105.3691
 30
0.0
 10
-76.83450000000001
 20
105.3691
 30
0.0
 10
-77.3142
 20
105.3691
 30
0.0
 10
-77.7033
 20
105.7583
 30
0.0
 10
-77.7033
 20
106.2381
 30
0.0
 10
-77.7033
 20
106.2381
 30
0.0
 10
-77.7034
 20
106.6272
 30
0.0
 10
-77.44750000000001
 20
106.9566
 30
0.0
 10
-77.09490000000001
 20
107.0674
 30
0.0
 10
-77.09490000000001
 20
107.0674
 30
0.0
 10
-77.09490000000001
 20
107.0674
 30
0.0
 10
-79.2842
 20
114.0327
 30
0.0
 10
-79.2842
 20
114.0327
 30
0.0
 10
-79.2842
 20
114.0327
 30
0.0
 10
-79.2842
 20
114.0327
 30
0.0
 10
-86.4109
 20
112.446
 30
0.0
 10
-86.4109
 20
112.446
 30
0.0
 10
-86.4109
 20
112.446
 30
0.0
 10
-86.3305
 20
112.0853
 30
0.0
 10
-86.488
 20
111.6992
 30
0.0
 10
-86.82510000000001
 20
111.5046
 30
0.0
 10
-86.82510000000001
 20
111.5046
 30
0.0
 10
-87.24080000000001
 20
111.2647
 30
0.0
 10
-87.77200000000001
 20
111.4067
 30
0.0
 10
-88.01220000000001
 20
111.8228
 30
0.0
 10
-88.01220000000001
 20
111.8228
 30
0.0
 10
-88.25200000000001
 20
112.2383
 30
0.0
 10
-88.1097
 20
112.7697
 30
0.0
 10
-87.69410000000001
 20
113.0097
 30
0.0
 10
-87.69410000000001
 20
113.0097
 30
0.0
 10
-87.35720000000001
 20
113.2043
 30
0.0
 10
-86.9439
 20
113.1476
 30
0.0
 10
-86.6716
 20
112.8975
 30
0.0
 10
-86.6716
 20
112.8975
 30
0.0
 10
-86.6716
 20
112.8975
 30
0.0
 10
-81.7341
 20
118.2761
 30
0.0
 10
-81.7341
 20
118.2761
 30
0.0
 10
-81.7341
 20
118.2761
 30
0.0
 10
-81.7341
 20
118.2761
 30
0.0
 10
-86.6717
 20
123.6548
 30
0.0
 10
-86.6717
 20
123.6548
 30
0.0
 10
-86.6717
 20
123.6548
 30
0.0
 10
-86.9439
 20
123.4048
 30
0.0
 10
-87.35690000000001
 20
123.3481
 30
0.0
 10
-87.69410000000001
 20
123.5427
 30
0.0
 10
-87.69410000000001
 20
123.5427
 30
0.0
 10
-88.1097
 20
123.7828
 30
0.0
 10
-88.25230000000001
 20
124.3137
 30
0.0
 10
-88.012
 20
124.7298
 30
0.0
 10
-88.012
 20
124.7298
 30
0.0
 10
-87.77200000000001
 20
125.1452
 30
0.0
 10
-87.2407
 20
125.2877
 30
0.0
 10
-86.825
 20
125.0477
 30
0.0
 10
-86.825
 20
125.0477
 30
0.0
 10
-86.488
 20
124.8532
 30
0.0
 10
-86.3305
 20
124.467
 30
0.0
 10
-86.411
 20
124.1062
 30
0.0
 10
-86.411
 20
124.1062
 30
0.0
 10
-86.411
 20
124.1062
 30
0.0
 10
-79.2842
 20
122.5195
 30
0.0
 10
-79.2842
 20
122.5195
 30
0.0
 10
-79.2842
 20
122.5195
 30
0.0
 10
-79.2842
 20
122.5195
 30
0.0
 10
-77.09490000000001
 20
129.4851
 30
0.0
 10
-77.09490000000001
 20
129.4851
 30
0.0
 10
-77.09490000000001
 20
129.4851
 30
0.0
 10
-77.4474
 20
129.5958
 30
0.0
 10
-77.7033
 20
129.9251
 30
0.0
 10
-77.7033
 20
130.3142
 30
0.0
 10
-77.7033
 20
130.3142
 30
0.0
 10
-77.7033
 20
130.794
 30
0.0
 10
-77.3142
 20
131.1831
 30
0.0
 10
-76.8343
 20
131.1831
 30
0.0
 10
-76.8343
 20
131.1831
 30
0.0
 10
-76.3544
 20
131.1831
 30
0.0
 10
-75.9653
 20
130.794
 30
0.0
 10
-75.9653
 20
130.3142
 30
0.0
 10
-75.9653
 20
130.3142
 30
0.0
 10
-75.9653
 20
129.9251
 30
0.0
 10
-76.22110000000001
 20
129.5958
 30
0.0
 10
-76.5737
 20
129.4851
 30
0.0
  0
SPLINE
  5
33
330
1F
100
AcDbEntity
  8
Layer 1
 62
   140
370
    40
100
AcDbSpline
210
0.0
220
0.0
230
1.0
 70
    11
 71
     3
 72
    52
 73
    48
 74
     0
 42
0.0000000001
 43
0.0000000001
 40
0.0
 40
0.0
 40
0.0
 40
0.0
 40
0.0833333333333333
 40
0.0833333333333333
 40
0.0833333333333333
 40
0.0833333333333333
 40
0.1666666666666667
 40
0.1666666666666667
 40
0.1666666666666667
 40
0.1666666666666667
 40
0.25
 40
0.25
 40
0.25
 40
0.25
 40
0.3333333333333333
 40
0.3333333333333333
 40
0.3333333333333333
 40
0.3333333333333333
 40
0.4166666666666666
 40
0.4166666666666666
 40
0.4166666666666666
 40
0.4166666666666666
 40
0.4999999999999999
 40
0.4999999999999999
 40
0.4999999999999999
 40
0.4999999999999999
 40
0.5833333333333333
 40
0.5833333333333333
 40
0.5833333333333333
 40
0.5833333333333333
 40
0.6666666666666666
 40
0.6666666666666666
 40
0.6666666666666666
 40
0.6666666666666666
 40
0.75
 40
0.75
 40
0.75
 40
0.75
 40
0.8333333333333334
 40
0.8333333333333334
 40
0.8333333333333334
 40
0.8333333333333334
 40
0.9166666666666667
 40
0.9166666666666667
 40
0.9166666666666667
 40
0.9166666666666667
 40
1.0
 40
1.0
 40
1.0
 40
1.0
 10
89.86360000000001
 20
-45.8123
 30
0.0
 10
89.86360000000001
 20
-45.8123
 30
0.0
 10
90.71180000000001
 20
-48.5109
 30
0.0
 10
90.71180000000001
 20
-48.5109
 30
0.0
 10
90.71180000000001
 20
-48.5109
 30
0.0
 10
90.71180000000001
 20
-48.5109
 30
0.0
 10
93.473
 20
-47.8961
 30
0.0
 10
93.473
 20
-47.8961
 30
0.0
 10
93.473
 20
-47.8961
 30
0.0
 10
93.473
 20
-47.8961
 30
0.0
 10
91.56
 20
-49.98
 30
0.0
 10
91.56
 20
-49.98
 30
0.0
 10
91.56
 20
-49.98
 30
0.0
 10
91.56
 20
-49.98
 30
0.0
 10
93.473
 20
-52.0638
 30
0.0
 10
93.473
 20
-52.0638
 30
0.0
 10
93.473
 20
-52.0638
 30
0.0
 10
93.473
 20
-52.0638
 30
0.0
 10
90.71180000000001
 20
-51.4491
 30
0.0
 10
90.71180000000001
 20
-51.4491
 30
0.0
 10
90.71180000000001
 20
-51.4491
 30
0.0
 10
90.71180000000001
 20
-51.4491
 30
0.0
 10
89.86360000000001
 20
-54.1477
 30
0.0
 10
89.86360000000001
 20
-54.1477
 30
0.0
 10
89.86360000000001
 20
-54.1477
 30
0.0
 10
89.86360000000001
 20
-54.1477
 30
0.0
 10
89.0154
 20
-51.4491
 30
0.0
 10
89.0154
 20
-51.4491
 30
0.0
 10
89.0154
 20
-51.4491
 30
0.0
 10
89.0154
 20
-51.4491
 30
0.0
 10
86.2543
 20
-52.0638
 30
0.0
 10
86.2543
 20
-52.0638
 30
0.0
 10
86.2543
 20
-52.0638
 30
0.0
 10
86.2543
 20
-52.0638
 30
0.0
 10
88.16720000000001
 20
-49.98
 30
0.0
 10
88.16720000000001
 20
-49.98
 30
0.0
 10
88.16720000000001
 20
-49.98
 30
0.0
 10
88.16720000000001
 20
-49.98
 30
0.0
 10
86.2543
 20
-47.8961
 30
0.0
 10
86.2543
 20
-47.8961
 30
0.0
 10
86.2543
 20
-47.8961
 30
0.0
 10
86.2543
 20
-47.8961
 30
0.0
 10
89.0154
 20
-48.5109
 30
0.0
 10
89.0154
 20
-48.5109
 30
0.0
 10
89.0154
 20
-48.5109
 30
0.0
 10
89.0154
 20
-48.5109
 30
0.0
 10
89.86360000000001
 20
-45.8123
 30
0.0
 10
89.86360000000001
 20
-45.8123
 30
0.0
  0
SPLINE
  5
34
330
1F
100
AcDbEntity
  8
Layer 1
 62
   140
370
    40
100
AcDbSpline
210
0.0
220
0.0
230
1.0
 70
    11
 71
     3
 72
    48
 73
    44
 74
     0
 42
0.0000000001
 43
0.0000000001
 40
0.0
 40
0.0
 40
0.0
 40
0.0
 40
0.0909090909090909
 40
0.0909090909090909
 40
0.0909090909090909
 40
0.0909090909090909
 40
0.1818181818181818
 40
0.1818181818181818
 40
0.1818181818181818
 40
0.1818181818181818
 40
0.2727272727272727
 40
0.2727272727272727
 40
0.2727272727272727
 40
0.2727272727272727
 40
0.3636363636363637
 40
0.3636363636363637
 40
0.3636363636363637
 40
0.3636363636363637
 40
0.4545454545454546
 40
0.4545454545454546
 40
0.4545454545454546
 40
0.4545454545454546
 40
0.5454545454545455
 40
0.5454545454545455
 40
0.5454545454545455
 40
0.5454545454545455
 40
0.6363636363636365
 40
0.6363636363636365
 40
0.6363636363636365
 40
0.6363636363636365
 40
0.7272727272727274
 40
0.7272727272727274
 40
0.7272727272727274
 40
0.7272727272727274
 40
0.8181818181818183
 40
0.8181818181818183
 40
0.8181818181818183
 40
0.8181818181818183
 40
0.9090909090909093
 40
0.9090909090909093
 40
0.9090909090909093
 40
0.9090909090909093
 40
1.0
 40
1.0
 40
1.0
 40
1.0
 10
70.4495
 20
-51.99910000000001
 30
0.0
 10
93.84310000000001
 20
-54.77350000000001
 30
0.0
 10
121.1926
 20
-93.5428
 30
0.0
 10
95.99220000000001
 20
-109.665
 30
0.0
 10
95.99220000000001
 20
-109.665
 30
0.0
 10
96.03270000000001
 20
-110.392
 30
0.0
 10
96.05590000000001
 20
-111.0991
 30
0.0
 10
96.0603
 20
-111.7836
 30
0.0
 10
96.0603
 20
-111.7836
 30
0.0
 10
96.205
 20
-120.2676
 30
0.0
 10
94.3301
 20
-127.9782
 30
0.0
 10
89.7783
 20
-133.6122
 30
0.0
 10
89.7783
 20
-133.6122
 30
0.0
 10
89.7783
 20
-133.6122
 30
0.0
 10
7.8882
 20
-133.6122
 30
0.0
 10
7.8882
 20
-133.6122
 30
0.0
 10
7.8882
 20
-133.6122
 30
0.0
 10
3.3364
 20
-127.9782
 30
0.0
 10
1.4615
 20
-120.2676
 30
0.0
 10
1.6062
 20
-111.7836
 30
0.0
 10
1.6062
 20
-111.7836
 30
0.0
 10
1.6093
 20
-111.3104
 30
0.0
 10
1.6244
 20
-110.8229
 30
0.0
 10
1.6448
 20
-110.3291
 30
0.0
 10
1.6448
 20
-110.3291
 30
0.0
 10
-25.4175
 20
-94.63730000000001
 30
0.0
 10
2.3692
 20
-54.8125
 30
0.0
 10
26.0914
 20
-51.99910000000001
 30
0.0
 10
26.0914
 20
-51.99910000000001
 30
0.0
 10
26.0914
 20
-51.99910000000001
 30
0.0
 10
30.158
 20
-51.99910000000001
 30
0.0
 10
30.158
 20
-51.99910000000001
 30
0.0
 10
30.158
 20
-51.99910000000001
 30
0.0
 10
35.7704
 20
-47.861
 30
0.0
 10
42.0456
 20
-45.5228
 30
0.0
 10
48.8335
 20
-46.017
 30
0.0
 10
48.8335
 20
-46.017
 30
0.0
 10
55.6217
 20
-45.5231
 30
0.0
 10
61.8982
 20
-47.8609
 30
0.0
 10
67.51100000000001
 20
-51.99910000000001
 30
0.0
 10
67.51100000000001
 20
-51.99910000000001
 30
0.0
 10
67.51100000000001
 20
-51.99910000000001
 30
0.0
 10
70.4495
 20
-51.99910000000001
 30
0.0
 10
70.4495
 20
-51.99910000000001
 30
0.0
  0
SPLINE
  5
35
330
1F
100
AcDbEntity
  8
Layer 1
 62
   140
370
    40
100
AcDbSpline
210
0.0
220
0.0
230
1.0
 70
    11
 71
     3
 72
    24
 73
    20
 74
     0
 42
0.0000000001
 43
0.0000000001
 40
0.0
 40
0.0
 40
0.0
 40
0.0
 40
0.2
 40
0.2
 40
0.2
 40
0.2
 40
0.4
 40
0.4
 40
0.4
 40
0.4
 40
0.6000000000000001
 40
0.6000000000000001
 40
0.6000000000000001
 40
0.6000000000000001
 40
0.8
 40
0.8
 40
0.8
 40
0.8
 40
1.0
 40
1.0
 40
1.0
 40
1.0
 10
-9.521900000000001
 20
-115.3854
 30
0.0
 10
-9.3772
 20
-123.8694
 30
0.0
 10
-11.2521
 20
-131.58
 30
0.0
 10
-15.8039
 20
-137.214
 30
0.0
 10
-15.8039
 20
-137.214
 30
0.0
 10
-15.8039
 20
-137.214
 30
0.0
 10
-97.694
 20
-137.214
 30
0.0
 10
-97.694
 20
-137.214
 30
0.0
 10
-97.694
 20
-137.214
 30
0.0
 10
-102.2458
 20
-131.58
 30
0.0
 10
-104.1207
 20
-123.8694
 30
0.0
 10
-103.976
 20
-115.3854
 30
0.0
 10
-103.976
 20
-115.3854
 30
0.0
 10
-103.8319
 20
-93.20660000000001
 30
0.0
 10
-84.5967
 20
-47.5914
 30
0.0
 10
-56.7487
 20
-49.6188
 30
0.0
 10
-56.7487
 20
-49.6188
 30
0.0
 10
-28.9003
 20
-47.5926
 30
0.0
 10
-9.666
 20
-93.2054
 30
0.0
 10
-9.521900000000001
 20
-115.3854
 30
0.0
  0
SPLINE
  5
36
330
1F
100
AcDbEntity
  8
Layer 1
 62
    25
370
    40
100
AcDbSpline
210
0.0
220
0.0
230
1.0
 70
    11
 71
     3
 72
    44
 73
    40
 74
     0
 42
0.0000000001
 43
0.0000000001
 40
0.0
 40
0.0
 40
0.0
 40
0.0
 40
0.1
 40
0.1
 40
0.1
 40
0.1
 40
0.2
 40
0.2
 40
0.2
 40
0.2
 40
0.3
 40
0.3
 40
0.3
 40
0.3
 40
0.4
 40
0.4
 40
0.4
 40
0.4
 40
0.5
 40
0.5
 40
0.5
 40
0.5
 40
0.6
 40
0.6
 40
0.6
 40
0.6
 40
0.7
 40
0.7
 40
0.7
 40
0.7
 40
0.7999999999999999
 40
0.7999999999999999
 40
0.7999999999999999
 40
0.7999999999999999
 40
0.8999999999999999
 40
0.8999999999999999
 40
0.8999999999999999
 40
0.8999999999999999
 40
1.0
 40
1.0
 40
1.0
 40
1.0
 10
6.5631
 20
93.94580000000001
 30
0.0
 10
11.7792
 20
102.8447
 30
0.0
 10
13.4329
 20
135.3134
 30
0.0
 10
24.7157
 20
129.045
 30
0.0
 10
24.7157
 20
129.045
 30
0.0
 10
34.3481
 20
123.6934
 30
0.0
 10
36.8109
 20
119.4922
 30
0.0
 10
46.3637
 20
129.045
 30
0.0
 10
46.3637
 20
129.045
 30
0.0
 10
55.1925
 20
137.8738
 30
0.0
 10
65.7085
 20
114.5009
 30
0.0
 10
68.2741
 20
108.053
 30
0.0
 10
68.2741
 20
108.053
 30
0.0
 10
70.3793
 20
102.7624
 30
0.0
 10
74.0305
 20
96.8571
 30
0.0
 10
76.95450000000001
 20
92.65780000000001
 30
0.0
 10
76.95450000000001
 20
92.65780000000001
 30
0.0
 10
80.9068
 20
94.5706
 30
0.0
 10
84.5656
 20
96.8596
 30
0.0
 10
87.8139
 20
99.52500000000001
 30
0.0
 10
87.8139
 20
99.52500000000001
 30
0.0
 10
106.0106
 20
114.4565
 30
0.0
 10
109.95
 20
87.2394
 30
0.0
 10
86.50190000000001
 20
75.5154
 30
0.0
 10
86.50190000000001
 20
75.5154
 30
0.0
 10
73.8762
 20
69.2025
 30
0.0
 10
57.8183
 20
67.4765
 30
0.0
 10
43.0135
 20
67.95350000000001
 30
0.0
 10
43.0135
 20
67.95350000000001
 30
0.0
 10
28.2087
 20
67.4765
 30
0.0
 10
12.151
 20
69.2025
 30
0.0
 10
-0.4747
 20
75.5154
 30
0.0
 10
-0.4747
 20
75.5154
 30
0.0
 10
-23.9228
 20
87.2394
 30
0.0
 10
-19.9834
 20
114.4565
 30
0.0
 10
-1.7867
 20
99.52500000000001
 30
0.0
 10
-1.7867
 20
99.52500000000001
 30
0.0
 10
0.7625000000000001
 20
97.4332
 30
0.0
 10
3.5648
 20
95.5741
 30
0.0
 10
6.5631
 20
93.94580000000001
 30
0.0
  0
SPLINE
  5
37
330
1F
100
AcDbEntity
  8
Layer 1
 62
    25
370
    40
100
AcDbSpline
210
0.0
220
0.0
230
1.0
 70
    11
 71
     3
 72
    24
 73
    20
 74
     0
 42
0.0000000001
 43
0.0000000001
 40
0.0
 40
0.0
 40
0.0
 40
0.0
 40
0.2
 40
0.2
 40
0.2
 40
0.2
 40
0.4
 40
0.4
 40
0.4
 40
0.4
 40
0.6000000000000001
 40
0.6000000000000001
 40
0.6000000000000001
 40
0.6000000000000001
 40
0.8
 40
0.8
 40
0.8
 40
0.8
 40
1.0
 40
1.0
 40
1.0
 40
1.0
 10
-1.3992
 20
71.89150000000001
 30
0.0
 10
-19.5959
 20
86.82300000000001
 30
0.0
 10
-23.5353
 20
59.60590000000001
 30
0.0
 10
-0.0872
 20
47.8819
 30
0.0
 10
-0.0872
 20
47.8819
 30
0.0
 10
12.5385
 20
41.569
 30
0.0
 10
28.5962
 20
39.843
 30
0.0
 10
43.401
 20
40.32
 30
0.0
 10
43.401
 20
40.32
 30
0.0
 10
58.2058
 20
39.843
 30
0.0
 10
74.2637
 20
41.569
 30
0.0
 10
86.88940000000001
 20
47.8819
 30
0.0
 10
86.88940000000001
 20
47.8819
 30
0.0
 10
110.3375
 20
59.60590000000001
 30
0.0
 10
106.3981
 20
86.82300000000001
 30
0.0
 10
88.20140000000001
 20
71.89150000000001
 30
0.0
 10
88.20140000000001
 20
71.89150000000001
 30
0.0
 10
65.1909
 20
53.0099
 30
0.0
 10
21.6113
 20
53.0099
 30
0.0
 10
-1.3992
 20
71.89150000000001
 30
0.0
  0
SPLINE
  5
38
330
1F
100
AcDbEntity
  8
Layer 1
 62
    25
370
    40
100
AcDbSpline
210
0.0
220
0.0
230
1.0
 70
    11
 71
     3
 72
    28
 73
    24
 74
     0
 42
0.0000000001
 43
0.0000000001
 40
0.0
 40
0.0
 40
0.0
 40
0.0
 40
0.1666666666666667
 40
0.1666666666666667
 40
0.1666666666666667
 40
0.1666666666666667
 40
0.3333333333333333
 40
0.3333333333333333
 40
0.3333333333333333
 40
0.3333333333333333
 40
0.5
 40
0.5
 40
0.5
 40
0.5
 40
0.6666666666666666
 40
0.6666666666666666
 40
0.6666666666666666
 40
0.6666666666666666
 40
0.8333333333333333
 40
0.8333333333333333
 40
0.8333333333333333
 40
0.8333333333333333
 40
1.0
 40
1.0
 40
1.0
 40
1.0
 10
-2.3534
 20
-5.5252
 30
0.0
 10
-1.0033
 20
-12.9341
 30
0.0
 10
6.429
 20
-17.7877
 30
0.0
 10
14.2439
 20
-16.3637
 30
0.0
 10
14.2439
 20
-16.3637
 30
0.0
 10
22.0587
 20
-14.9397
 30
0.0
 10
27.3015
 20
-7.7766
 30
0.0
 10
25.9514
 20
-0.3677
 30
0.0
 10
25.9514
 20
-0.3677
 30
0.0
 10
24.0244
 20
10.2077
 30
0.0
 10
29.8323
 20
12.7259
 30
0.0
 10
27.9309
 20
23.1608
 30
0.0
 10
27.9309
 20
23.1608
 30
0.0
 10
26.0631
 20
33.4115
 30
0.0
 10
16.1943
 20
40.2021
 30
0.0
 10
5.8929
 20
38.325
 30
0.0
 10
5.8929
 20
38.325
 30
0.0
 10
-4.4085
 20
36.448
 30
0.0
 10
-11.2478
 20
26.6128
 30
0.0
 10
-9.380000000000001
 20
16.3622
 30
0.0
 10
-9.380000000000001
 20
16.3622
 30
0.0
 10
-7.673
 20
6.9943
 30
0.0
 10
-4.1356
 20
4.255500000000001
 30
0.0
 10
-2.3534
 20
-5.5252
 30
0.0
  0
SPLINE
  5
39
330
1F
100
AcDbEntity
  8
Layer 1
 62
    25
370
    40
100
AcDbSpline
210
0.0
220
0.0
230
1.0
 70
    11
 71
     3
 72
    28
 73
    24
 74
     0
 42
0.0000000001
 43
0.0000000001
 40
0.0
 40
0.0
 40
0.0
 40
0.0
 40
0.1666666666666667
 40
0.1666666666666667
 40
0.1666666666666667
 40
0.1666666666666667
 40
0.3333333333333333
 40
0.3333333333333333
 40
0.3333333333333333
 40
0.3333333333333333
 40
0.5
 40
0.5
 40
0.5
 40
0.5
 40
0.6666666666666666
 40
0.6666666666666666
 40
0.6666666666666666
 40
0.6666666666666666
 40
0.8333333333333333
 40
0.8333333333333333
 40
0.8333333333333333
 40
0.8333333333333333
 40
1.0
 40
1.0
 40
1.0
 40
1.0
 10
67.4511
 20
-6.096900000000001
 30
0.0
 10
66.101
 20
-13.5058
 30
0.0
 10
58.6687
 20
-18.3594
 30
0.0
 10
50.8538
 20
-16.9354
 30
0.0
 10
50.8538
 20
-16.9354
 30
0.0
 10
43.039
 20
-15.5114
 30
0.0
 10
37.7962
 20
-8.3483
 30
0.0
 10
39.1463
 20
-0.9394
 30
0.0
 10
39.1463
 20
-0.9394
 30
0.0
 10
41.0733
 20
9.636000000000001
 30
0.0
 10
35.2654
 20
12.1542
 30
0.0
 10
37.1668
 20
22.5891
 30
0.0
 10
37.1668
 20
22.5891
 30
0.0
 10
39.03460000000001
 20
32.8398
 30
0.0
 10
48.90340000000001
 20
39.6304
 30
0.0
 10
59.20480000000001
 20
37.7533
 30
0.0
 10
59.20480000000001
 20
37.7533
 30
0.0
 10
69.50620000000001
 20
35.8763
 30
0.0
 10
76.3455
 20
26.0411
 30
0.0
 10
74.4777
 20
15.7905
 30
0.0
 10
74.4777
 20
15.7905
 30
0.0
 10
72.77070000000001
 20
6.4226
 30
0.0
 10
69.2333
 20
3.6838
 30
0.0
 10
67.4511
 20
-6.096900000000001
 30
0.0
  0
SPLINE
  5
3A
330
1F
100
AcDbEntity
  8
Layer 1
 62
    25
370
    40
100
AcDbSpline
210
0.0
220
0.0
230
1.0
 70
    11
 71
     3
 72
    24
 73
    20
 74
     0
 42
0.0000000001
 43
0.0000000001
 40
0.0
 40
0.0
 40
0.0
 40
0.0
 40
0.2
 40
0.2
 40
0.2
 40
0.2
 40
0.4
 40
0.4
 40
0.4
 40
0.4
 40
0.6000000000000001
 40
0.6000000000000001
 40
0.6000000000000001
 40
0.6000000000000001
 40
0.8
 40
0.8
 40
0.8
 40
0.8
 40
1.0
 40
1.0
 40
1.0
 40
1.0
 10
-0.2781
 20
-24.6067
 30
0.0
 10
1.0719
 20
-32.0156
 30
0.0
 10
8.5044
 20
-36.8692
 30
0.0
 10
16.319
 20
-35.4451
 30
0.0
 10
16.319
 20
-35.4451
 30
0.0
 10
24.1339
 20
-34.0211
 30
0.0
 10
29.3766
 20
-26.8581
 30
0.0
 10
28.0265
 20
-19.449
 30
0.0
 10
28.0265
 20
-19.449
 30
0.0
 10
27.9452
 20
-19.0027
 30
0.0
 10
27.8776
 20
-18.5706
 30
0.0
 10
27.8227
 20
-18.1518
 30
0.0
 10
27.8227
 20
-18.1518
 30
0.0
 10
27.8227
 20
-18.1518
 30
0.0
 10
-0.7117
 20
-22.5015
 30
0.0
 10
-0.7117
 20
-22.5015
 30
0.0
 10
-0.7117
 20
-22.5015
 30
0.0
 10
-0.5582
 20
-23.1667
 30
0.0
 10
-0.413
 20
-23.8665
 30
0.0
 10
-0.2781
 20
-24.6067
 30
0.0
  0
SPLINE
  5
3B
330
1F
100
AcDbEntity
  8
Layer 1
 62
    25
370
    40
100
AcDbSpline
210
0.0
220
0.0
230
1.0
 70
    11
 71
     3
 72
    24
 73
    20
 74
     0
 42
0.0000000001
 43
0.0000000001
 40
0.0
 40
0.0
 40
0.0
 40
0.0
 40
0.2
 40
0.2
 40
0.2
 40
0.2
 40
0.4
 40
0.4
 40
0.4
 40
0.4
 40
0.6000000000000001
 40
0.6000000000000001
 40
0.6000000000000001
 40
0.6000000000000001
 40
0.8
 40
0.8
 40
0.8
 40
0.8
 40
1.0
 40
1.0
 40
1.0
 40
1.0
 10
67.50360000000001
 20
-24.0113
 30
0.0
 10
66.1536
 20
-31.4202
 30
0.0
 10
58.7211
 20
-36.2738
 30
0.0
 10
50.9065
 20
-34.8497
 30
0.0
 10
50.9065
 20
-34.8497
 30
0.0
 10
43.0916
 20
-33.4257
 30
0.0
 10
37.8489
 20
-26.2627
 30
0.0
 10
39.19900000000001
 20
-18.8536
 30
0.0
 10
39.19900000000001
 20
-18.8536
 30
0.0
 10
39.2803
 20
-18.4073
 30
0.0
 10
39.3479
 20
-17.9752
 30
0.0
 10
39.4028
 20
-17.5564
 30
0.0
 10
39.4028
 20
-17.5564
 30
0.0
 10
39.4028
 20
-17.5564
 30
0.0
 10
67.9372
 20
-21.9061
 30
0.0
 10
67.9372
 20
-21.9061
 30
0.0
 10
67.9372
 20
-21.9061
 30
0.0
 10
67.78370000000001
 20
-22.5713
 30
0.0
 10
67.63850000000001
 20
-23.2711
 30
0.0
 10
67.50360000000001
 20
-24.0113
 30
0.0
  0
ENDSEC
  0
SECTION
  2
OBJECTS
  0
DICTIONARY
  5
C
330
0
100
AcDbDictionary
281
     1
  3
ACAD_GROUP
350
D
  3
ACAD_LAYOUT
350
1A
  3
ACAD_MLINESTYLE
350
17
  3
ACAD_PLOTSETTINGS
350
19
  3
ACAD_PLOTSTYLENAME
350
E
  0
DICTIONARY
  5
D
102
{ACAD_REACTORS
330
C
102
}
330
C
100
AcDbDictionary
281
     1
  0
DICTIONARY
  5
1A
102
{ACAD_REACTORS
330
C
102
}
330
C
100
AcDbDictionary
281
     1
  3
Layout1
350
1E
  3
Layout2
350
26
  3
Model
350
22
  0
DICTIONARY
  5
17
102
{ACAD_REACTORS
330
C
102
}
330
C
100
AcDbDictionary
281
     1
  3
Standard
350
18
  0
DICTIONARY
  5
19
102
{ACAD_REACTORS
330
C
102
}
330
C
100
AcDbDictionary
281
     1
  0
ACDBDICTIONARYWDFLT
  5
E
102
{ACAD_REACTORS
330
C
102
}
330
C
100
AcDbDictionary
281
     1
  3
Normal
350
F
100
AcDbDictionaryWithDefault
340
F
  0
LAYOUT
  5
1E
102
{ACAD_REACTORS
330
1A
102
}
330
1A
100
AcDbPlotSettings
  1

  2

  4

  6

 40
0.0
 41
0.0
 42
0.0
 43
0.0
 44
0.0
 45
0.0
 46
0.0
 47
0.0
 48
0.0
 49
0.0
140
0.0
141
0.0
142
1.0
143
1.0
 70
   688
 72
     0
 73
     0
 74
     5
  7

 75
    16
147
1.0
148
0.0
149
0.0
100
AcDbLayout
  1
Layout1
 70
     1
 71
     1
 10
0.0
 20
0.0
 11
12.0
 21
9.0
 12
0.0
 22
0.0
 32
0.0
 14
1.000000000000000E+20
 24
1.000000000000000E+20
 34
1.000000000000000E+20
 15
-1.000000000000000E+20
 25
-1.000000000000000E+20
 35
-1.000000000000000E+20
146
0.0
 13
0.0
 23
0.0
 33
0.0
 16
1.0
 26
0.0
 36
0.0
 17
0.0
 27
1.0
 37
0.0
 76
     0
330
1B
  0
LAYOUT
  5
26
102
{ACAD_REACTORS
330
1A
102
}
330
1A
100
AcDbPlotSettings
  1

  2

  4

  6

 40
0.0
 41
0.0
 42
0.0
 43
0.0
 44
0.0
 45
0.0
 46
0.0
 47
0.0
 48
0.0
 49
0.0
140
0.0
141
0.0
142
1.0
143
1.0
 70
   688
 72
     0
 73
     0
 74
     5
  7

 75
    16
147
1.0
148
0.0
149
0.0
100
AcDbLayout
  1
Layout2
 70
     1
 71
     2
 10
0.0
 20
0.0
 11
0.0
 21
0.0
 12
0.0
 22
0.0
 32
0.0
 14
0.0
 24
0.0
 34
0.0
 15
0.0
 25
0.0
 35
0.0
146
0.0
 13
0.0
 23
0.0
 33
0.0
 16
1.0
 26
0.0
 36
0.0
 17
0.0
 27
1.0
 37
0.0
 76
     0
330
23
  0
LAYOUT
  5
22
102
{ACAD_REACTORS
330
1A
102
}
330
1A
100
AcDbPlotSettings
  1

  2

  4

  6

 40
0.0
 41
0.0
 42
0.0
 43
0.0
 44
0.0
 45
0.0
 46
0.0
 47
0.0
 48
0.0
 49
0.0
140
0.0
141
0.0
142
1.0
143
1.0
 70
  1712
 72
     0
 73
     0
 74
     0
  7

 75
     0
147
1.0
148
0.0
149
0.0
100
AcDbLayout
  1
Model
 70
     1
 71
     0
 10
0.0
 20
0.0
 11
0.0
 21
0.0
 12
0.0
 22
0.0
 32
0.0
 14
-104.1593
 24
-137.3904
 34
0.0
 15
106.2175
 25
131.3595
 35
0.0
146
0.0
 13
0.0
 23
0.0
 33
0.0
 16
1.0
 26
0.0
 36
0.0
 17
0.0
 27
1.0
 37
0.0
 76
     0
330
1F
  0
MLINESTYLE
  5
18
102
{ACAD_REACTORS
330
17
102
}
330
17
100
AcDbMlineStyle
  2
Standard
 70
     0
  3

 62
   256
 51
90.0
 52
90.0
 71
     2
 49
0.5
 62
   256
  6
BYLAYER
 49
-0.5
 62
   256
  6
BYLAYER
  0
ACDBPLACEHOLDER
  5
F
102
{ACAD_REACTORS
330
E
102
}
330
E
  0
ENDSEC
  0
EOF
