  0
SECTION
  2
HEADER
  9
$ACADVER
  1
AC1024
  9
$ACADMAINTVER
 70
     6
  9
$DWGCODEPAGE
  3
ANSI_1251
  9
$INSBASE
 10
0.0
 20
0.0
 30
0.0
  9
$EXTMIN
 10
1.000000000000000E+20
 20
1.000000000000000E+20
 30
1.000000000000000E+20
  9
$EXTMAX
 10
-1.000000000000000E+20
 20
-1.000000000000000E+20
 30
-1.000000000000000E+20
  9
$LIMMIN
 10
0.0
 20
0.0
  9
$LIMMAX
 10
12.0
 20
9.0
  9
$ORTHOMODE
 70
     0
  9
$REGENMODE
 70
     1
  9
$FILLMODE
 70
     1
  9
$QTEXTMODE
 70
     0
  9
$MIRRTEXT
 70
     1
  9
$LTSCALE
 40
1.0
  9
$ATTMODE
 70
     1
  9
$TEXTSIZE
 40
0.2
  9
$TRACEWID
 40
0.05
  9
$TEXTSTYLE
  7
Standard
  9
$CLAYER
  8
0
  9
$CELTYPE
  6
ByLayer
  9
$CECOLOR
 62
   256
  9
$CELTSCALE
 40
1.0
  9
$DISPSILH
 70
     0
  9
$DIMSCALE
 40
1.0
  9
$DIMASZ
 40
0.18
  9
$DIMEXO
 40
0.0625
  9
$DIMDLI
 40
0.38
  9
$DIMRND
 40
0.0
  9
$DIMDLE
 40
0.0
  9
$DIMEXE
 40
0.18
  9
$DIMTP
 40
0.0
  9
$DIMTM
 40
0.0
  9
$DIMTXT
 40
0.18
  9
$DIMCEN
 40
0.09
  9
$DIMTSZ
 40
0.0
  9
$DIMTOL
 70
     0
  9
$DIMLIM
 70
     0
  9
$DIMTIH
 70
     1
  9
$DIMTOH
 70
     1
  9
$DIMSE1
 70
     0
  9
$DIMSE2
 70
     0
  9
$DIMTAD
 70
     0
  9
$DIMZIN
 70
     0
  9
$DIMBLK
  1

  9
$DIMASO
 70
     1
  9
$DIMSHO
 70
     1
  9
$DIMPOST
  1

  9
$DIMAPOST
  1

  9
$DIMALT
 70
     0
  9
$DIMALTD
 70
     2
  9
$DIMALTF
 40
25.4
  9
$DIMLFAC
 40
1.0
  9
$DIMTOFL
 70
     0
  9
$DIMTVP
 40
0.0
  9
$DIMTIX
 70
     0
  9
$DIMSOXD
 70
     0
  9
$DIMSAH
 70
     0
  9
$DIMBLK1
  1

  9
$DIMBLK2
  1

  9
$DIMSTYLE
  2
Standard
  9
$DIMCLRD
 70
     0
  9
$DIMCLRE
 70
     0
  9
$DIMCLRT
 70
     0
  9
$DIMTFAC
 40
1.0
  9
$DIMGAP
 40
0.09
  9
$DIMJUST
 70
     0
  9
$DIMSD1
 70
     0
  9
$DIMSD2
 70
     0
  9
$DIMTOLJ
 70
     1
  9
$DIMTZIN
 70
     0
  9
$DIMALTZ
 70
     0
  9
$DIMALTTZ
 70
     0
  9
$DIMUPT
 70
     0
  9
$DIMDEC
 70
     4
  9
$DIMTDEC
 70
     4
  9
$DIMALTU
 70
     2
  9
$DIMALTTD
 70
     2
  9
$DIMTXSTY
  7
Standard
  9
$DIMAUNIT
 70
     0
  9
$DIMADEC
 70
     0
  9
$DIMALTRND
 40
0.0
  9
$DIMAZIN
 70
     0
  9
$DIMDSEP
 70
    46
  9
$DIMATFIT
 70
     3
  9
$DIMFRAC
 70
     0
  9
$DIMLDRBLK
  1

  9
$DIMLUNIT
 70
     2
  9
$DIMLWD
 70
    -2
  9
$DIMLWE
 70
    -2
  9
$DIMTMOVE
 70
     0
  9
$DIMFXL
 40
1.0
  9
$DIMFXLON
 70
     0
  9
$DIMJOGANG
 40
0.7853981633974483
  9
$DIMTFILL
 70
     0
  9
$DIMTFILLCLR
 70
     0
  9
$DIMARCSYM
 70
     0
  9
$DIMLTYPE
  6

  9
$DIMLTEX1
  6

  9
$DIMLTEX2
  6

  9
$DIMTXTDIRECTION
 70
     0
  9
$LUNITS
 70
     2
  9
$LUPREC
 70
     4
  9
$SKETCHINC
 40
0.1
  9
$FILLETRAD
 40
0.5
  9
$AUNITS
 70
     0
  9
$AUPREC
 70
     0
  9
$MENU
  1
.
  9
$ELEVATION
 40
0.0
  9
$PELEVATION
 40
0.0
  9
$THICKNESS
 40
0.0
  9
$LIMCHECK
 70
     0
  9
$CHAMFERA
 40
0.5
  9
$CHAMFERB
 40
0.5
  9
$CHAMFERC
 40
1.0
  9
$CHAMFERD
 40
0.0
  9
$SKPOLY
 70
     0
  9
$TDCREATE
 40
2459871.655259907
  9
$TDUCREATE
 40
2459871.530259907
  9
$TDUPDATE
 40
2459871.655259919
  9
$TDUUPDATE
 40
2459871.530259919
  9
$TDINDWG
 40
0.0000000116
  9
$TDUSRTIMER
 40
0.0000000116
  9
$USRTIMER
 70
     1
  9
$ANGBASE
 50
0.0
  9
$ANGDIR
 70
     0
  9
$PDMODE
 70
     0
  9
$PDSIZE
 40
0.0
  9
$PLINEWID
 40
0.0
  9
$SPLFRAME
 70
     0
  9
$SPLINETYPE
 70
     6
  9
$SPLINESEGS
 70
     8
  9
$HANDSEED
  5
65
  9
$SURFTAB1
 70
     6
  9
$SURFTAB2
 70
     6
  9
$SURFTYPE
 70
     6
  9
$SURFU
 70
     6
  9
$SURFV
 70
     6
  9
$UCSBASE
  2

  9
$UCSNAME
  2

  9
$UCSORG
 10
0.0
 20
0.0
 30
0.0
  9
$UCSXDIR
 10
1.0
 20
0.0
 30
0.0
  9
$UCSYDIR
 10
0.0
 20
1.0
 30
0.0
  9
$UCSORTHOREF
  2

  9
$UCSORTHOVIEW
 70
     0
  9
$UCSORGTOP
 10
0.0
 20
0.0
 30
0.0
  9
$UCSORGBOTTOM
 10
0.0
 20
0.0
 30
0.0
  9
$UCSORGLEFT
 10
0.0
 20
0.0
 30
0.0
  9
$UCSORGRIGHT
 10
0.0
 20
0.0
 30
0.0
  9
$UCSORGFRONT
 10
0.0
 20
0.0
 30
0.0
  9
$UCSORGBACK
 10
0.0
 20
0.0
 30
0.0
  9
$PUCSBASE
  2

  9
$PUCSNAME
  2

  9
$PUCSORG
 10
0.0
 20
0.0
 30
0.0
  9
$PUCSXDIR
 10
1.0
 20
0.0
 30
0.0
  9
$PUCSYDIR
 10
0.0
 20
1.0
 30
0.0
  9
$PUCSORTHOREF
  2

  9
$PUCSORTHOVIEW
 70
     0
  9
$PUCSORGTOP
 10
0.0
 20
0.0
 30
0.0
  9
$PUCSORGBOTTOM
 10
0.0
 20
0.0
 30
0.0
  9
$PUCSORGLEFT
 10
0.0
 20
0.0
 30
0.0
  9
$PUCSORGRIGHT
 10
0.0
 20
0.0
 30
0.0
  9
$PUCSORGFRONT
 10
0.0
 20
0.0
 30
0.0
  9
$PUCSORGBACK
 10
0.0
 20
0.0
 30
0.0
  9
$USERI1
 70
     0
  9
$USERI2
 70
     0
  9
$USERI3
 70
     0
  9
$USERI4
 70
     0
  9
$USERI5
 70
     0
  9
$USERR1
 40
0.0
  9
$USERR2
 40
0.0
  9
$USERR3
 40
0.0
  9
$USERR4
 40
0.0
  9
$USERR5
 40
0.0
  9
$WORLDVIEW
 70
     1
  9
$SHADEDGE
 70
     3
  9
$SHADEDIF
 70
    70
  9
$TILEMODE
 70
     1
  9
$MAXACTVP
 70
    64
  9
$PINSBASE
 10
0.0
 20
0.0
 30
0.0
  9
$PLIMCHECK
 70
     0
  9
$PEXTMIN
 10
1.000000000000000E+20
 20
1.000000000000000E+20
 30
1.000000000000000E+20
  9
$PEXTMAX
 10
-1.000000000000000E+20
 20
-1.000000000000000E+20
 30
-1.000000000000000E+20
  9
$PLIMMIN
 10
0.0
 20
0.0
  9
$PLIMMAX
 10
12.0
 20
9.0
  9
$UNITMODE
 70
     0
  9
$VISRETAIN
 70
     1
  9
$PLINEGEN
 70
     0
  9
$PSLTSCALE
 70
     1
  9
$TREEDEPTH
 70
  3020
  9
$CMLSTYLE
  2
Standard
  9
$CMLJUST
 70
     0
  9
$CMLSCALE
 40
1.0
  9
$PROXYGRAPHICS
 70
     1
  9
$MEASUREMENT
 70
     0
  9
$CELWEIGHT
370
    -1
  9
$ENDCAPS
280
     0
  9
$JOINSTYLE
280
     0
  9
$LWDISPLAY
290
     1
  9
$INSUNITS
 70
     1
  9
$HYPERLINKBASE
  1

  9
$STYLESHEET
  1

  9
$XEDIT
290
     1
  9
$CEPSNTYPE
380
     0
  9
$PSTYLEMODE
290
     1
  9
$FINGERPRINTGUID
  2
{CCDFAF1E-956E-4707-89B5-6A1D611888F9}
  9
$VERSIONGUID
  2
{FAEB1C32-E019-11D5-929B-00C0DF256EC4}
  9
$EXTNAMES
290
     1
  9
$PSVPSCALE
 40
0.0
  9
$OLESTARTUP
290
     0
  9
$SORTENTS
280
   127
  9
$INDEXCTL
280
     0
  9
$HIDETEXT
280
     1
  9
$XCLIPFRAME
280
     2
  9
$HALOGAP
280
     0
  9
$OBSCOLOR
 70
   257
  9
$OBSLTYPE
280
     0
  9
$INTERSECTIONDISPLAY
280
     0
  9
$INTERSECTIONCOLOR
 70
   257
  9
$DIMASSOC
280
     2
  9
$PROJECTNAME
  1

  9
$CAMERADISPLAY
290
     0
  9
$LENSLENGTH
 40
50.0
  9
$CAMERAHEIGHT
 40
0.0
  9
$STEPSPERSEC
 40
2.0
  9
$STEPSIZE
 40
6.0
  9
$3DDWFPREC
 40
2.0
  9
$PSOLWIDTH
 40
0.25
  9
$PSOLHEIGHT
 40
4.0
  9
$LOFTANG1
 40
1.570796326794897
  9
$LOFTANG2
 40
1.570796326794897
  9
$LOFTMAG1
 40
0.0
  9
$LOFTMAG2
 40
0.0
  9
$LOFTPARAM
 70
     7
  9
$LOFTNORMALS
280
     1
  9
$LATITUDE
 40
37.795
  9
$LONGITUDE
 40
-122.394
  9
$NORTHDIRECTION
 40
0.0
  9
$TIMEZONE
 70
 -8000
  9
$LIGHTGLYPHDISPLAY
280
     1
  9
$TILEMODELIGHTSYNCH
280
     1
  9
$CMATERIAL
347
3C
  9
$SOLIDHIST
280
     1
  9
$SHOWHIST
280
     1
  9
$DWFFRAME
280
     2
  9
$DGNFRAME
280
     2
  9
$REALWORLDSCALE
290
     1
  9
$INTERFERECOLOR
 62
   256
  9
$CSHADOW
280
     0
  9
$SHADOWPLANELOCATION
 40
0.0
  0
ENDSEC
  0
SECTION
  2
CLASSES
  0
CLASS
  1
ACDBDICTIONARYWDFLT
  2
AcDbDictionaryWithDefault
  3
ObjectDBX Classes
 90
        0
 91
        4
280
     0
281
     0
  0
CLASS
  1
VISUALSTYLE
  2
AcDbVisualStyle
  3
ObjectDBX Classes
 90
     4095
 91
        4
280
     0
281
     0
  0
CLASS
  1
MATERIAL
  2
AcDbMaterial
  3
ObjectDBX Classes
 90
     1153
 91
        4
280
     0
281
     0
  0
CLASS
  1
SUN
  2
AcDbSun
  3
SCENEOE
 90
     1024
 91
        4
280
     0
281
     0
  0
ENDSEC
  0
SECTION
  2
TABLES
  0
TABLE
  2
VPORT
  5
8
330
0
100
AcDbSymbolTable
 70
     1
  0
VPORT
  5
29
330
8
100
AcDbSymbolTableRecord
100
AcDbViewportTableRecord
  2
*Active
 70
     0
 10
0.0
 20
0.0
 11
1.0
 21
1.0
 12
0.0
 22
0.0
 13
0.0
 23
0.0
 14
0.5
 24
0.5
 15
0.5
 25
0.5
 16
0.0
 26
0.0
 36
1.0
 17
649.1339721679688
 27
216.0
 37
0.0
 40
432.0
 41
3.005249871148004
 42
50.0
 43
0.0
 44
0.0
 50
0.0
 51
0.0
 71
     0
 72
   100
 73
     1
 74
     3
 75
     0
 76
     0
 77
     0
 78
     0
281
     0
 65
     1
110
0.0
120
0.0
130
0.0
111
1.0
121
0.0
131
0.0
112
0.0
122
1.0
132
0.0
 79
     0
146
0.0
 60
     3
 61
     5
292
     1
282
     1
141
0.0
142
0.0
 63
   250
361
3F
  0
ENDTAB
  0
TABLE
  2
LTYPE
  5
5
330
0
100
AcDbSymbolTable
 70
     1
  0
LTYPE
  5
14
330
5
100
AcDbSymbolTableRecord
100
AcDbLinetypeTableRecord
  2
ByBlock
 70
     0
  3

 72
    65
 73
     0
 40
0.0
  0
LTYPE
  5
15
330
5
100
AcDbSymbolTableRecord
100
AcDbLinetypeTableRecord
  2
ByLayer
 70
     0
  3

 72
    65
 73
     0
 40
0.0
  0
LTYPE
  5
16
330
5
100
AcDbSymbolTableRecord
100
AcDbLinetypeTableRecord
  2
Continuous
 70
     0
  3
Solid line
 72
    65
 73
     0
 40
0.0
  0
ENDTAB
  0
TABLE
  2
LAYER
  5
2
330
0
100
AcDbSymbolTable
 70
     2
  0
LAYER
  5
10
330
2
100
AcDbSymbolTableRecord
100
AcDbLayerTableRecord
  2
0
 70
     0
 62
     7
  6
Continuous
370
    -3
390
F
347
3E
  0
LAYER
  5
40
330
2
100
AcDbSymbolTableRecord
100
AcDbLayerTableRecord
  2
_U+0421_U+043B_U+043E_U+0439 1
 70
     0
 62
     7
  6
Continuous
370
    -3
390
F
347
3E
  0
ENDTAB
  0
TABLE
  2
STYLE
  5
3
330
0
100
AcDbSymbolTable
 70
     1
  0
STYLE
  5
11
330
3
100
AcDbSymbolTableRecord
100
AcDbTextStyleTableRecord
  2
Standard
 70
     0
 40
0.0
 41
1.0
 50
0.0
 71
     0
 42
0.2
  3
txt
  4

  0
ENDTAB
  0
TABLE
  2
VIEW
  5
6
330
0
100
AcDbSymbolTable
 70
     0
  0
ENDTAB
  0
TABLE
  2
UCS
  5
7
330
0
100
AcDbSymbolTable
 70
     0
  0
ENDTAB
  0
TABLE
  2
APPID
  5
9
330
0
100
AcDbSymbolTable
 70
     1
  0
APPID
  5
12
330
9
100
AcDbSymbolTableRecord
100
AcDbRegAppTableRecord
  2
ACAD
 70
     0
  0
ENDTAB
  0
TABLE
  2
DIMSTYLE
  5
A
330
0
100
AcDbSymbolTable
 70
     1
100
AcDbDimStyleTable
  0
DIMSTYLE
105
27
330
A
100
AcDbSymbolTableRecord
100
AcDbDimStyleTableRecord
  2
Standard
 70
     0
178
     0
340
11
  0
ENDTAB
  0
TABLE
  2
BLOCK_RECORD
  5
1
330
0
100
AcDbSymbolTable
 70
     1
  0
BLOCK_RECORD
  5
1F
330
1
100
AcDbSymbolTableRecord
100
AcDbBlockTableRecord
  2
*Model_Space
340
22
 70
     0
280
     1
281
     0
  0
BLOCK_RECORD
  5
1B
330
1
100
AcDbSymbolTableRecord
100
AcDbBlockTableRecord
  2
*Paper_Space
340
1E
 70
     0
280
     1
281
     0
  0
BLOCK_RECORD
  5
23
330
1
100
AcDbSymbolTableRecord
100
AcDbBlockTableRecord
  2
*Paper_Space0
340
26
 70
     0
280
     1
281
     0
  0
ENDTAB
  0
ENDSEC
  0
SECTION
  2
BLOCKS
  0
BLOCK
  5
20
330
1F
100
AcDbEntity
  8
0
100
AcDbBlockBegin
  2
*Model_Space
 70
     0
 10
0.0
 20
0.0
 30
0.0
  3
*Model_Space
  1

  0
ENDBLK
  5
21
330
1F
100
AcDbEntity
  8
0
100
AcDbBlockEnd
  0
BLOCK
  5
1C
330
1B
100
AcDbEntity
 67
     1
  8
0
100
AcDbBlockBegin
  2
*Paper_Space
 70
     0
 10
0.0
 20
0.0
 30
0.0
  3
*Paper_Space
  1

  0
ENDBLK
  5
1D
330
1B
100
AcDbEntity
 67
     1
  8
0
100
AcDbBlockEnd
  0
BLOCK
  5
24
330
23
100
AcDbEntity
  8
0
100
AcDbBlockBegin
  2
*Paper_Space0
 70
     0
 10
0.0
 20
0.0
 30
0.0
  3
*Paper_Space0
  1

  0
ENDBLK
  5
25
330
23
100
AcDbEntity
  8
0
100
AcDbBlockEnd
  0
ENDSEC
  0
SECTION
  2
ENTITIES
  0
SPLINE
  5
41
330
1F
100
AcDbEntity
  8
_U+0421_U+043B_U+043E_U+0439 1
 62
     1
420
 16711680
370
     9
100
AcDbSpline
210
0.0
220
0.0
230
1.0
 70
    11
 71
     3
 72
   125
 73
   121
 74
     0
 42
0.0000000001
 43
0.0000000001
 12
1.0
 22
0.0
 32
0.0
 13
1.0
 23
0.0
 33
0.0
 40
0.0
 40
0.0
 40
0.0
 40
0.0
 40
1.0
 40
1.0
 40
1.0
 40
2.0
 40
2.0
 40
2.0
 40
3.0
 40
3.0
 40
3.0
 40
4.0
 40
4.0
 40
4.0
 40
5.0
 40
5.0
 40
5.0
 40
6.0
 40
6.0
 40
6.0
 40
7.0
 40
7.0
 40
7.0
 40
8.0
 40
8.0
 40
8.0
 40
9.0
 40
9.0
 40
9.0
 40
10.0
 40
10.0
 40
10.0
 40
11.0
 40
11.0
 40
11.0
 40
12.0
 40
12.0
 40
12.0
 40
13.0
 40
13.0
 40
13.0
 40
14.0
 40
14.0
 40
14.0
 40
15.0
 40
15.0
 40
15.0
 40
16.0
 40
16.0
 40
16.0
 40
17.0
 40
17.0
 40
17.0
 40
18.0
 40
18.0
 40
18.0
 40
19.0
 40
19.0
 40
19.0
 40
20.0
 40
20.0
 40
20.0
 40
21.0
 40
21.0
 40
21.0
 40
22.0
 40
22.0
 40
22.0
 40
23.0
 40
23.0
 40
23.0
 40
24.0
 40
24.0
 40
24.0
 40
25.0
 40
25.0
 40
25.0
 40
26.0
 40
26.0
 40
26.0
 40
27.0
 40
27.0
 40
27.0
 40
28.0
 40
28.0
 40
28.0
 40
29.0
 40
29.0
 40
29.0
 40
30.0
 40
30.0
 40
30.0
 40
31.0
 40
31.0
 40
31.0
 40
32.0
 40
32.0
 40
32.0
 40
33.0
 40
33.0
 40
33.0
 40
34.0
 40
34.0
 40
34.0
 40
35.0
 40
35.0
 40
35.0
 40
36.0
 40
36.0
 40
36.0
 40
37.0
 40
37.0
 40
37.0
 40
38.0
 40
38.0
 40
38.0
 40
39.0
 40
39.0
 40
39.0
 40
40.0
 40
40.0
 40
40.0
 40
40.0
 10
1298.267944335938
 20
216.0
 30
0.0
 10
1298.267944335938
 20
214.0700073242188
 30
0.0
 10
1296.302978515625
 20
212.218994140625
 30
0.0
 10
1294.535888671875
 20
211.3350067138672
 30
0.0
 10
1291.736938476562
 20
210.4020080566406
 30
0.0
 10
1288.937866210938
 20
207.6030120849609
 30
0.0
 10
1286.139892578125
 20
205.7369995117188
 30
0.0
 10
1277.742919921875
 20
198.2729949951172
 30
0.0
 10
1262.81689453125
 20
157.2250061035156
 30
0.0
 10
1218.969848632812
 20
160.9570007324219
 30
0.0
 10
1243.217895507812
 20
133.9110107421875
 30
0.0
 10
1227.366821289062
 20
100.3040161132812
 30
0.0
 10
1228.298828125
 20
89.12298583984375
 30
0.0
 10
1228.298828125
 20
85.38897705078125
 30
0.0
 10
1229.232788085938
 20
82.58798217773438
 30
0.0
 10
1230.164794921875
 20
78.86099243164062
 30
0.0
 10
1232.03076171875
 20
74.19699096679688
 30
0.0
 10
1228.298828125
 20
69.531982421875
 30
0.0
 10
1223.634765625
 20
71.39797973632812
 30
0.0
 10
1214.533813476562
 20
73.6729736328125
 30
0.0
 10
1214.566772460938
 20
74.00796508789062
 30
0.0
 10
1203.478759765625
 20
71.57296752929688
 30
0.0
 10
1180.893798828125
 20
66.61798095703125
 30
0.0
 10
1159.6337890625
 20
65.16897583007812
 30
0.0
 10
1140.605712890625
 20
81.65997314453125
 30
0.0
 10
1144.398681640625
 20
36.14297485351562
 30
0.0
 10
1102.98876953125
 20
22.5899658203125
 30
0.0
 10
1095.126708984375
 20
13.74697875976562
 30
0.0
 10
1093.494750976562
 20
11.90997314453125
 30
0.0
 10
1091.861694335938
 20
9.358978271484375
 30
0.0
 10
1090.228759765625
 20
6.093994140625
 30
0.0
 10
1088.94580078125
 20
2.886993408203125
 30
0.0
 10
1085.458740234375
 20
1.884979248046875
 30
0.0
 10
1082.797729492188
 20
3.087982177734375
 30
0.0
 10
1080.934692382812
 20
3.92999267578125
 30
0.0
 10
1081.4296875
 20
3.899993896484375
 30
0.0
 10
1074.368774414062
 20
14.490966796875
 30
0.0
 10
1065.973754882812
 20
23.8189697265625
 30
0.0
 10
1025.856811523438
 20
37.81497192382812
 30
0.0
 10
1029.588745117188
 20
81.66094970703125
 30
0.0
 10
1018.861755371094
 20
72.88394165039062
 30
0.0
 10
1006.587768554688
 20
68.59994506835938
 30
0.0
 10
992.2727661132812
 20
68.59994506835938
 30
0.0
 10
963.1777954101562
 20
68.59994506835938
 30
0.0
 10
963.1217651367188
 20
76.60794067382812
 30
0.0
 10
947.4927978515625
 20
71.39895629882812
 30
0.0
 10
944.6937866210938
 20
68.59994506835938
 30
0.0
 10
939.0968017578125
 20
71.39895629882812
 30
0.0
 10
939.0968017578125
 20
76.06396484375
 30
0.0
 10
939.0968017578125
 20
77.92996215820312
 30
0.0
 10
941.8958129882812
 20
80.72897338867188
 30
0.0
 10
941.8958129882812
 20
88.19195556640625
 30
0.0
 10
942.8287963867188
 20
99.386962890625
 30
0.0
 10
926.9688110351562
 20
132.9719543457031
 30
0.0
 10
951.2247924804688
 20
160.0259399414062
 30
0.0
 10
907.3778076171875
 20
156.2939453125
 30
0.0
 10
892.4517822265625
 20
197.3429412841797
 30
0.0
 10
884.0548095703125
 20
204.8059387207031
 30
0.0
 10
881.2557983398438
 20
207.6049346923828
 30
0.0
 10
878.4578247070312
 20
209.4709320068359
 30
0.0
 10
875.6588134765625
 20
210.4029388427734
 30
0.0
 10
870.9938354492188
 20
212.2689361572266
 30
0.0
 10
870.9938354492188
 20
218.7989349365234
 30
0.0
 10
875.6588134765625
 20
220.6649322509766
 30
0.0
 10
879.3908081054688
 20
221.5979309082031
 30
0.0
 10
882.1888427734375
 20
223.4639282226562
 30
0.0
 10
884.98779296875
 20
226.262939453125
 30
0.0
 10
893.3837890625
 20
233.7259368896484
 30
0.0
 10
908.310791015625
 20
274.7739410400391
 30
0.0
 10
952.1577758789062
 20
271.0429382324219
 30
0.0
 10
927.9017944335938
 20
298.0979309082031
 30
0.0
 10
943.7617797851562
 20
331.6819381713867
 30
0.0
 10
942.8287963867188
 20
342.8769378662109
 30
0.0
 10
941.8958129882812
 20
346.6089401245117
 30
0.0
 10
941.8958129882812
 20
350.3399353027344
 30
0.0
 10
940.02978515625
 20
353.1389389038086
 30
0.0
 10
937.2307739257812
 20
357.8039398193359
 30
0.0
 10
941.8958129882812
 20
362.4679412841797
 30
0.0
 10
946.559814453125
 20
360.601936340332
 30
0.0
 10
961.0447998046875
 20
356.9809341430664
 30
0.0
 10
959.7327880859375
 20
359.3039398193359
 30
0.0
 10
978.2698364257812
 20
362.5239334106445
 30
0.0
 10
997.5348510742188
 20
365.8699340820312
 30
0.0
 10
1014.842834472656
 20
363.9849319458008
 30
0.0
 10
1029.5888671875
 20
351.2729339599609
 30
0.0
 10
1027.265869140625
 20
379.9269332885742
 30
0.0
 10
1042.187866210938
 20
396.1139335632324
 30
0.0
 10
1065.972900390625
 20
410.9789352416992
 30
0.0
 10
1072.505859375
 20
414.711935043335
 30
0.0
 10
1076.23583984375
 20
417.5109348297119
 30
0.0
 10
1080.89990234375
 20
425.9059352874756
 30
0.0
 10
1082.298950195312
 20
429.4039351940155
 30
0.0
 10
1086.321899414062
 20
430.2799353599548
 30
0.0
 10
1089.033935546875
 20
428.5299353599548
 30
0.0
 10
1090.361938476562
 20
427.6729354858398
 30
0.0
 10
1089.56689453125
 20
428.2989354133606
 30
0.0
 10
1096.759887695312
 20
417.5099353790283
 30
0.0
 10
1105.155883789062
 20
408.1809349060059
 30
0.0
 10
1145.270874023438
 20
394.1869354248047
 30
0.0
 10
1141.539916992188
 20
350.3399353027344
 30
0.0
 10
1169.124877929688
 20
375.0699348449707
 30
0.0
 10
1203.474975585938
 20
357.929931640625
 30
0.0
 10
1214.465942382812
 20
358.7799377441406
 30
0.0
 10
1222.31689453125
 20
359.3869400024414
 30
0.0
 10
1224.787963867188
 20
364.1479339599609
 30
0.0
 10
1229.2119140625
 20
360.7809371948242
 30
0.0
 10
1230.044921875
 20
360.1469345092773
 30
0.0
 10
1230.73193359375
 20
359.2749404907227
 30
0.0
 10
1231.134887695312
 20
358.2459335327148
 30
0.0
 10
1232.993896484375
 20
353.5009307861328
 30
0.0
 10
1228.300903320312
 20
353.3719329833984
 30
0.0
 10
1228.300903320312
 20
343.8099365234375
 30
0.0
 10
1227.367919921875
 20
332.6159362792969
 30
0.0
 10
1243.227905273438
 20
299.0309448242188
 30
0.0
 10
1218.971923828125
 20
271.9759368896484
 30
0.0
 10
1262.519897460938
 20
275.6829376220703
 30
0.0
 10
1276.969970703125
 20
235.3479309082031
 30
0.0
 10
1286.141967773438
 20
227.1959381103516
 30
0.0
 10
1290.663940429688
 20
222.6710052490234
 30
0.0
 10
1298.267944335938
 20
221.8699951171875
 30
0.0
 10
1298.267944335938
 20
216.0
 30
0.0
  0
SPLINE
  5
42
330
1F
100
AcDbEntity
  8
_U+0421_U+043B_U+043E_U+0439 1
 62
     1
420
 16711680
370
     9
100
AcDbSpline
210
0.0
220
0.0
230
1.0
 70
    11
 71
     3
 72
   137
 73
   133
 74
     0
 42
0.0000000001
 43
0.0000000001
 12
1.0
 22
0.0
 32
0.0
 13
1.0
 23
0.0
 33
0.0
 40
0.0
 40
0.0
 40
0.0
 40
0.0
 40
1.0
 40
1.0
 40
1.0
 40
2.0
 40
2.0
 40
2.0
 40
3.0
 40
3.0
 40
3.0
 40
4.0
 40
4.0
 40
4.0
 40
5.0
 40
5.0
 40
5.0
 40
6.0
 40
6.0
 40
6.0
 40
7.0
 40
7.0
 40
7.0
 40
8.0
 40
8.0
 40
8.0
 40
9.0
 40
9.0
 40
9.0
 40
10.0
 40
10.0
 40
10.0
 40
11.0
 40
11.0
 40
11.0
 40
12.0
 40
12.0
 40
12.0
 40
13.0
 40
13.0
 40
13.0
 40
14.0
 40
14.0
 40
14.0
 40
15.0
 40
15.0
 40
15.0
 40
16.0
 40
16.0
 40
16.0
 40
17.0
 40
17.0
 40
17.0
 40
18.0
 40
18.0
 40
18.0
 40
19.0
 40
19.0
 40
19.0
 40
20.0
 40
20.0
 40
20.0
 40
21.0
 40
21.0
 40
21.0
 40
22.0
 40
22.0
 40
22.0
 40
23.0
 40
23.0
 40
23.0
 40
24.0
 40
24.0
 40
24.0
 40
25.0
 40
25.0
 40
25.0
 40
26.0
 40
26.0
 40
26.0
 40
27.0
 40
27.0
 40
27.0
 40
28.0
 40
28.0
 40
28.0
 40
29.0
 40
29.0
 40
29.0
 40
30.0
 40
30.0
 40
30.0
 40
31.0
 40
31.0
 40
31.0
 40
32.0
 40
32.0
 40
32.0
 40
33.0
 40
33.0
 40
33.0
 40
34.0
 40
34.0
 40
34.0
 40
35.0
 40
35.0
 40
35.0
 40
36.0
 40
36.0
 40
36.0
 40
37.0
 40
37.0
 40
37.0
 40
38.0
 40
38.0
 40
38.0
 40
39.0
 40
39.0
 40
39.0
 40
40.0
 40
40.0
 40
40.0
 40
41.0
 40
41.0
 40
41.0
 40
42.0
 40
42.0
 40
42.0
 40
43.0
 40
43.0
 40
43.0
 40
44.0
 40
44.0
 40
44.0
 40
44.0
 10
850.0599975585938
 20
227.1950073242188
 30
0.0
 10
840.8889770507812
 20
235.3470153808594
 30
0.0
 10
826.43798828125
 20
275.6820068359375
 30
0.0
 10
782.8900146484375
 20
271.9750061035156
 30
0.0
 10
807.14599609375
 20
299.0299987792969
 30
0.0
 10
791.2860107421875
 20
332.6150054931641
 30
0.0
 10
792.218994140625
 20
343.8090057373047
 30
0.0
 10
792.218994140625
 20
353.370002746582
 30
0.0
 10
796.9119873046875
 20
353.5000076293945
 30
0.0
 10
795.052978515625
 20
358.245002746582
 30
0.0
 10
794.6489868164062
 20
359.2750015258789
 30
0.0
 10
793.9629516601562
 20
360.1460037231445
 30
0.0
 10
793.1300048828125
 20
360.7800064086914
 30
0.0
 10
788.7059936523438
 20
364.1470031738281
 30
0.0
 10
786.2349853515625
 20
359.3860092163086
 30
0.0
 10
778.384033203125
 20
358.7790069580078
 30
0.0
 10
767.3930053710938
 20
357.9290084838867
 30
0.0
 10
733.0430297851562
 20
375.0690078735352
 30
0.0
 10
705.4580078125
 20
350.3390045166016
 30
0.0
 10
709.1900024414062
 20
394.1860046386719
 30
0.0
 10
669.0740356445312
 20
408.1790046691895
 30
0.0
 10
660.677978515625
 20
417.5090026855469
 30
0.0
 10
653.4859619140625
 20
428.298002243042
 30
0.0
 10
654.2799682617188
 20
427.6720027923584
 30
0.0
 10
652.9519653320312
 20
428.5290031433105
 30
0.0
 10
650.239990234375
 20
430.2790031433105
 30
0.0
 10
646.2169799804688
 20
429.4030032157898
 30
0.0
 10
644.8179931640625
 20
425.9050030708313
 30
0.0
 10
640.1539916992188
 20
417.5100021362305
 30
0.0
 10
636.4240112304688
 20
414.7110023498535
 30
0.0
 10
629.8909912109375
 20
410.9780025482178
 30
0.0
 10
606.1069946289062
 20
396.1130027770996
 30
0.0
 10
591.1839599609375
 20
379.9250030517578
 30
0.0
 10
593.5070190429688
 20
351.2720031738281
 30
0.0
 10
579.072021484375
 20
363.7160034179688
 30
0.0
 10
562.125
 20
365.8070068359375
 30
0.0
 10
543.3170166015625
 20
362.7140045166016
 30
0.0
 10
524.1279907226562
 20
359.5590057373047
 30
0.0
 10
525.4440307617188
 20
356.859001159668
 30
0.0
 10
510.47802734375
 20
360.6010055541992
 30
0.0
 10
509.89501953125
 20
360.8340072631836
 30
0.0
 10
509.3120422363281
 20
360.9650039672852
 30
0.0
 10
508.7430419921875
 20
361.0070037841797
 30
0.0
 10
506.1850280761719
 20
361.1960067749023
 30
0.0
 10
503.9220275878906
 20
359.5760040283203
 30
0.0
 10
503.2820434570312
 20
357.3110046386719
 30
0.0
 10
502.425048828125
 20
354.2770080566406
 30
0.0
 10
504.4590454101562
 20
353.3560028076172
 30
0.0
 10
505.4070434570312
 20
349.6440048217773
 30
0.0
 10
508.2030334472656
 20
338.6970062255859
 30
0.0
 10
505.9410400390625
 20
337.8430023193359
 30
0.0
 10
503.5450439453125
 20
321.2300033569336
 30
0.0
 10
500.8160400390625
 20
302.3170013427734
 30
0.0
 10
503.1470336914062
 20
285.4609985351562
 30
0.0
 10
516.0760498046875
 20
271.0400085449219
 30
0.0
 10
500.1260375976562
 20
272.3980102539062
 30
0.0
 10
486.3020629882812
 20
267.9990081787109
 30
0.0
 10
474.3430480957031
 20
257.7370147705078
 30
0.0
 10
455.7000427246094
 20
241.7410125732422
 30
0.0
 10
453.550048828125
 20
224.156005859375
 30
0.0
 10
439.5770568847656
 20
220.6620178222656
 30
0.0
 10
434.9120483398438
 20
218.7960205078125
 30
0.0
 10
434.9120483398438
 20
212.2660217285156
 30
0.0
 10
439.5770568847656
 20
210.4000244140625
 30
0.0
 10
442.7720642089844
 20
209.3350219726562
 30
0.0
 10
445.6010437011719
 20
207.1750183105469
 30
0.0
 10
447.9730529785156
 20
204.8030242919922
 30
0.0
 10
454.133056640625
 20
199.3280181884766
 30
0.0
 10
463.8390502929688
 20
175.7220153808594
 30
0.0
 10
485.904052734375
 20
165.0590209960938
 30
0.0
 10
495.2100524902344
 20
160.56201171875
 30
0.0
 10
505.0620422363281
 20
159.1650085449219
 30
0.0
 10
515.14306640625
 20
160.0230102539062
 30
0.0
 10
505.5210571289062
 20
149.291015625
 30
0.0
 10
501.3600769042969
 20
136.6410217285156
 30
0.0
 10
501.5860595703125
 20
121.9140014648438
 30
0.0
 10
501.9050598144531
 20
101.1189880371094
 30
0.0
 10
509.2350463867188
 20
91.31298828125
 30
0.0
 10
503.9010620117188
 20
78.75
 30
0.0
 10
503.5950622558594
 20
78.02801513671875
 30
0.0
 10
503.0150756835938
 20
76.81900024414062
 30
0.0
 10
503.0150756835938
 20
76.06100463867188
 30
0.0
 10
503.0150756835938
 20
71.39599609375
 30
0.0
 10
508.6130676269531
 20
68.59799194335938
 30
0.0
 10
511.4110717773438
 20
71.39599609375
 30
0.0
 10
527.0560913085938
 20
76.61099243164062
 30
0.0
 10
527.0040893554688
 20
68.59698486328125
 30
0.0
 10
556.1910400390625
 20
68.59698486328125
 30
0.0
 10
570.5070190429688
 20
68.59698486328125
 30
0.0
 10
582.7810668945312
 20
72.8809814453125
 30
0.0
 10
593.5070190429688
 20
81.65798950195312
 30
0.0
 10
589.7750244140625
 20
37.81198120117188
 30
0.0
 10
629.8920288085938
 20
23.81597900390625
 30
0.0
 10
638.2869873046875
 20
14.48797607421875
 30
0.0
 10
645.3479614257812
 20
3.89697265625
 30
0.0
 10
644.8529663085938
 20
3.926971435546875
 30
0.0
 10
646.7160034179688
 20
3.0849609375
 30
0.0
 10
649.3770141601562
 20
1.8819580078125
 30
0.0
 10
652.864013671875
 20
2.88494873046875
 30
0.0
 10
654.1470336914062
 20
6.090972900390625
 30
0.0
 10
655.780029296875
 20
9.355987548828125
 30
0.0
 10
657.4120483398438
 20
11.906982421875
 30
0.0
 10
659.0450439453125
 20
13.74395751953125
 30
0.0
 10
666.9070434570312
 20
22.58694458007812
 30
0.0
 10
708.3170166015625
 20
36.13995361328125
 30
0.0
 10
704.5240478515625
 20
81.65695190429688
 30
0.0
 10
723.5520629882812
 20
65.16595458984375
 30
0.0
 10
744.8120727539062
 20
66.61495971679688
 30
0.0
 10
767.3970336914062
 20
71.5699462890625
 30
0.0
 10
778.4850463867188
 20
74.00494384765625
 30
0.0
 10
778.4520263671875
 20
73.66995239257812
 30
0.0
 10
787.5530395507812
 20
71.39495849609375
 30
0.0
 10
792.218017578125
 20
69.52896118164062
 30
0.0
 10
795.9490356445312
 20
74.1939697265625
 30
0.0
 10
794.0830688476562
 20
78.85797119140625
 30
0.0
 10
793.1520385742188
 20
82.5849609375
 30
0.0
 10
792.217041015625
 20
85.385986328125
 30
0.0
 10
792.217041015625
 20
89.11996459960938
 30
0.0
 10
791.2850341796875
 20
100.3009643554688
 30
0.0
 10
807.1360473632812
 20
133.9089660644531
 30
0.0
 10
782.8880615234375
 20
160.9539794921875
 30
0.0
 10
826.7350463867188
 20
157.2219848632812
 30
0.0
 10
841.6610717773438
 20
198.2699890136719
 30
0.0
 10
850.0580444335938
 20
205.7339782714844
 30
0.0
 10
852.8560180664062
 20
207.5999755859375
 30
0.0
 10
855.655029296875
 20
210.3989715576172
 30
0.0
 10
858.4540405273438
 20
211.3319854736328
 30
0.0
 10
860.2200317382812
 20
212.2149810791016
 30
0.0
 10
862.18603515625
 20
214.0669860839844
 30
0.0
 10
862.18603515625
 20
215.9969787597656
 30
0.0
 10
862.18798828125
 20
221.8699951171875
 30
0.0
 10
854.583984375
 20
222.6710052490234
 30
0.0
 10
850.0599975585938
 20
227.1950073242188
 30
0.0
  0
SPLINE
  5
43
330
1F
100
AcDbEntity
  8
_U+0421_U+043B_U+043E_U+0439 1
 62
     1
420
 16711680
370
     9
100
AcDbSpline
210
0.0
220
0.0
230
1.0
 70
    11
 71
     3
 72
    26
 73
    22
 74
     0
 42
0.0000000001
 43
0.0000000001
 12
1.0
 22
0.0
 32
0.0
 13
1.0
 23
0.0
 33
0.0
 40
0.0
 40
0.0
 40
0.0
 40
0.0
 40
1.0
 40
1.0
 40
1.0
 40
2.0
 40
2.0
 40
2.0
 40
3.0
 40
3.0
 40
3.0
 40
4.0
 40
4.0
 40
4.0
 40
5.0
 40
5.0
 40
5.0
 40
6.0
 40
6.0
 40
6.0
 40
7.0
 40
7.0
 40
7.0
 40
7.0
 10
649.1279907226562
 20
395.0279998779297
 30
0.0
 10
665.9599609375
 20
379.7600021362305
 30
0.0
 10
683.89501953125
 20
367.7429962158203
 30
0.0
 10
674.7429809570312
 20
343.0820007324219
 30
0.0
 10
673.1629638671875
 20
339.4920043945312
 30
0.0
 10
671.0559692382812
 20
336.6989974975586
 30
0.0
 10
669.751953125
 20
335.568000793457
 30
0.0
 10
667.73095703125
 20
337.5510025024414
 30
0.0
 10
665.1179809570312
 20
344.9120025634766
 30
0.0
 10
662.7589721679688
 20
349.1110000610352
 30
0.0
 10
656.9089965820312
 20
359.9759979248047
 30
0.0
 10
641.6449584960938
 20
359.4929962158203
 30
0.0
 10
635.1739501953125
 20
350.4329986572266
 30
0.0
 10
631.5859375
 20
345.4089965820312
 30
0.0
 10
629.60595703125
 20
339.0429992675781
 30
0.0
 10
627.4049682617188
 20
335.9349975585938
 30
0.0
 10
620.7129516601562
 20
341.4659957885742
 30
0.0
 10
616.9679565429688
 20
356.8499984741211
 30
0.0
 10
625.2659912109375
 20
370.7249984741211
 30
0.0
 10
631.2100219726562
 20
380.6660003662109
 30
0.0
 10
641.75
 20
388.6720008850098
 30
0.0
 10
649.1279907226562
 20
395.0279998779297
 30
0.0
  0
SPLINE
  5
44
330
1F
100
AcDbEntity
  8
_U+0421_U+043B_U+043E_U+0439 1
 62
     1
420
 16711680
370
     9
100
AcDbSpline
210
0.0
220
0.0
230
1.0
 70
    11
 71
     3
 72
    26
 73
    22
 74
     0
 42
0.0000000001
 43
0.0000000001
 12
1.0
 22
0.0
 32
0.0
 13
1.0
 23
0.0
 33
0.0
 40
0.0
 40
0.0
 40
0.0
 40
0.0
 40
1.0
 40
1.0
 40
1.0
 40
2.0
 40
2.0
 40
2.0
 40
3.0
 40
3.0
 40
3.0
 40
4.0
 40
4.0
 40
4.0
 40
5.0
 40
5.0
 40
5.0
 40
6.0
 40
6.0
 40
6.0
 40
7.0
 40
7.0
 40
7.0
 40
7.0
 10
748.6190185546875
 20
135.7799987792969
 30
0.0
 10
747.5989990234375
 20
141.8999938964844
 30
0.0
 10
744.5060424804688
 20
147.75
 30
0.0
 10
743.8610229492188
 20
151.5249938964844
 30
0.0
 10
752.5040283203125
 20
152.3460083007812
 30
0.0
 10
766.030029296875
 20
144.114990234375
 30
0.0
 10
769.9739990234375
 20
128.4369812011719
 30
0.0
 10
772.7999877929688
 20
117.2039794921875
 30
0.0
 10
771.0079956054688
 20
104.0859680175781
 30
0.0
 10
770.2849731445312
 20
94.37896728515625
 30
0.0
 10
747.5869750976562
 20
93.27297973632812
 30
0.0
 10
726.407958984375
 20
89.08895874023438
 30
0.0
 10
715.4409790039062
 20
112.9979553222656
 30
0.0
 10
714.0189819335938
 20
116.6539611816406
 30
0.0
 10
713.5349731445312
 20
120.1189575195312
 30
0.0
 10
713.656005859375
 20
121.8399658203125
 30
0.0
 10
716.4879760742188
 20
121.8669738769531
 30
0.0
 10
723.5390014648438
 20
118.5099792480469
 30
0.0
 10
728.177001953125
 20
117.2089538574219
 30
0.0
 10
739.9990234375
 20
113.6629943847656
 30
0.0
 10
750.447998046875
 20
124.7999877929688
 30
0.0
 10
748.6190185546875
 20
135.7799987792969
 30
0.0
  0
SPLINE
  5
45
330
1F
100
AcDbEntity
  8
_U+0421_U+043B_U+043E_U+0439 1
 62
     1
420
 16711680
370
     9
100
AcDbSpline
210
0.0
220
0.0
230
1.0
 70
    11
 71
     3
 72
    26
 73
    22
 74
     0
 42
0.0000000001
 43
0.0000000001
 12
1.0
 22
0.0
 32
0.0
 13
1.0
 23
0.0
 33
0.0
 40
0.0
 40
0.0
 40
0.0
 40
0.0
 40
1.0
 40
1.0
 40
1.0
 40
2.0
 40
2.0
 40
2.0
 40
3.0
 40
3.0
 40
3.0
 40
4.0
 40
4.0
 40
4.0
 40
5.0
 40
5.0
 40
5.0
 40
6.0
 40
6.0
 40
6.0
 40
7.0
 40
7.0
 40
7.0
 40
7.0
 10
770.7470092773438
 20
337.3259963989258
 30
0.0
 10
771.85302734375
 20
314.6279983520508
 30
0.0
 10
776.0369873046875
 20
293.4490051269531
 30
0.0
 10
752.1279907226562
 20
282.4819946289062
 30
0.0
 10
748.4719848632812
 20
281.0599975585938
 30
0.0
 10
745.0070190429688
 20
280.5759887695312
 30
0.0
 10
743.2860107421875
 20
280.6969909667969
 30
0.0
 10
743.259033203125
 20
283.5289916992188
 30
0.0
 10
746.6170043945312
 20
290.5819854736328
 30
0.0
 10
747.9169921875
 20
295.2179870605469
 30
0.0
 10
751.4129638671875
 20
306.869987487793
 30
0.0
 10
740.552978515625
 20
317.5259857177734
 30
0.0
 10
729.3460083007812
 20
315.6579895019531
 30
0.0
 10
723.2579956054688
 20
314.6429901123047
 30
0.0
 10
717.35302734375
 20
311.5409927368164
 30
0.0
 10
713.6010131835938
 20
310.8999862670898
 30
0.0
 10
712.781005859375
 20
319.5429840087891
 30
0.0
 10
721.010986328125
 20
333.0689849853516
 30
0.0
 10
736.6890258789062
 20
337.0129852294922
 30
0.0
 10
747.9219970703125
 20
339.8410034179688
 30
0.0
 10
761.0339965820312
 20
338.0490036010742
 30
0.0
 10
770.7470092773438
 20
337.3259963989258
 30
0.0
  0
SPLINE
  5
46
330
1F
100
AcDbEntity
  8
_U+0421_U+043B_U+043E_U+0439 1
 62
     1
420
 16711680
370
     9
100
AcDbSpline
210
0.0
220
0.0
230
1.0
 70
    11
 71
     3
 72
    26
 73
    22
 74
     0
 42
0.0000000001
 43
0.0000000001
 12
1.0
 22
0.0
 32
0.0
 13
1.0
 23
0.0
 33
0.0
 40
0.0
 40
0.0
 40
0.0
 40
0.0
 40
1.0
 40
1.0
 40
1.0
 40
2.0
 40
2.0
 40
2.0
 40
3.0
 40
3.0
 40
3.0
 40
4.0
 40
4.0
 40
4.0
 40
5.0
 40
5.0
 40
5.0
 40
6.0
 40
6.0
 40
6.0
 40
7.0
 40
7.0
 40
7.0
 40
7.0
 10
776.2160034179688
 20
190.0579986572266
 30
0.0
 10
772.6259765625
 20
191.6380004882812
 30
0.0
 10
769.8330078125
 20
193.7449951171875
 30
0.0
 10
768.7020263671875
 20
195.0489959716797
 30
0.0
 10
770.6849975585938
 20
197.0699920654297
 30
0.0
 10
778.0450439453125
 20
199.6819915771484
 30
0.0
 10
782.2450561523438
 20
202.0419921875
 30
0.0
 10
792.9580688476562
 20
207.8099975585938
 30
0.0
 10
792.81103515625
 20
223.0239868164062
 30
0.0
 10
783.5670776367188
 20
229.6269836425781
 30
0.0
 10
778.5451049804688
 20
233.2139892578125
 30
0.0
 10
772.175048828125
 20
235.1959838867188
 30
0.0
 10
769.069091796875
 20
237.3959808349609
 30
0.0
 10
774.60107421875
 20
244.0879821777344
 30
0.0
 10
789.9840698242188
 20
247.8329772949219
 30
0.0
 10
803.860107421875
 20
239.5349731445312
 30
0.0
 10
813.8010864257812
 20
233.5899658203125
 30
0.0
 10
821.80908203125
 20
223.0489807128906
 30
0.0
 10
828.1630859375
 20
215.6719665527344
 30
0.0
 10
812.8820190429688
 20
198.8269958496094
 30
0.0
 10
800.8720092773438
 20
180.9080047607422
 30
0.0
 10
776.2160034179688
 20
190.0579986572266
 30
0.0
  0
SPLINE
  5
47
330
1F
100
AcDbEntity
  8
_U+0421_U+043B_U+043E_U+0439 1
 62
     1
420
 16711680
370
     9
100
AcDbSpline
210
0.0
220
0.0
230
1.0
 70
    11
 71
     3
 72
    23
 73
    19
 74
     0
 42
0.0000000001
 43
0.0000000001
 12
1.0
 22
0.0
 32
0.0
 13
1.0
 23
0.0
 33
0.0
 40
0.0
 40
0.0
 40
0.0
 40
0.0
 40
1.0
 40
1.0
 40
1.0
 40
2.0
 40
2.0
 40
2.0
 40
3.0
 40
3.0
 40
3.0
 40
4.0
 40
4.0
 40
4.0
 40
5.0
 40
5.0
 40
5.0
 40
6.0
 40
6.0
 40
6.0
 40
6.0
 10
521.718994140625
 20
241.6089935302734
 30
0.0
 10
525.3090209960938
 20
240.0289916992188
 30
0.0
 10
528.1019897460938
 20
237.9219970703125
 30
0.0
 10
529.2329711914062
 20
236.6179962158203
 30
0.0
 10
524.5699462890625
 20
231.8659973144531
 30
0.0
 10
507.5249633789062
 20
231.0240020751953
 30
0.0
 10
507.5249633789062
 20
215.7669982910156
 30
0.0
 10
507.5249633789062
 20
200.9109954833984
 30
0.0
 10
523.0409545898438
 20
198.3970031738281
 30
0.0
 10
528.865966796875
 20
194.27099609375
 30
0.0
 10
527.7449951171875
 20
192.9140014648438
 30
0.0
 10
525.2679443359375
 20
190.8389892578125
 30
0.0
 10
521.9359741210938
 20
189.3239898681641
 30
0.0
 10
497.6479797363281
 20
181.5359954833984
 30
0.0
 10
484.7079772949219
 20
198.656982421875
 30
0.0
 10
469.77197265625
 20
215.9949951171875
 30
0.0
 10
484.9679870605469
 20
232.7460021972656
 30
0.0
 10
497.0320129394531
 20
250.7700042724609
 30
0.0
 10
521.718994140625
 20
241.6089935302734
 30
0.0
  0
SPLINE
  5
48
330
1F
100
AcDbEntity
  8
_U+0421_U+043B_U+043E_U+0439 1
 62
     1
420
 16711680
370
     9
100
AcDbSpline
210
0.0
220
0.0
230
1.0
 70
    11
 71
     3
 72
    29
 73
    25
 74
     0
 42
0.0000000001
 43
0.0000000001
 12
1.0
 22
0.0
 32
0.0
 13
1.0
 23
0.0
 33
0.0
 40
0.0
 40
0.0
 40
0.0
 40
0.0
 40
1.0
 40
1.0
 40
1.0
 40
2.0
 40
2.0
 40
2.0
 40
3.0
 40
3.0
 40
3.0
 40
4.0
 40
4.0
 40
4.0
 40
5.0
 40
5.0
 40
5.0
 40
6.0
 40
6.0
 40
6.0
 40
7.0
 40
7.0
 40
7.0
 40
8.0
 40
8.0
 40
8.0
 40
8.0
 10
549.2899780273438
 20
298.5240020751953
 30
0.0
 10
549.2899780273438
 20
295.0359954833984
 30
0.0
 10
551.0759887695312
 20
290.1309967041016
 30
0.0
 10
552.2689819335938
 20
286.8740081787109
 30
0.0
 10
552.927001953125
 20
285.0770111083984
 30
0.0
 10
553.9400024414062
 20
282.3090057373047
 30
0.0
 10
554.2249755859375
 20
280.6420135498047
 30
0.0
 10
545.5819702148438
 20
279.8210144042969
 30
0.0
 10
532.0559692382812
 20
288.0520172119141
 30
0.0
 10
528.1119995117188
 20
303.7300109863281
 30
0.0
 10
525.2849731445312
 20
314.9690093994141
 30
0.0
 10
527.0800170898438
 20
328.0990142822266
 30
0.0
 10
527.801025390625
 20
337.7880096435547
 30
0.0
 10
550.155029296875
 20
338.8770065307617
 30
0.0
 10
571.6320190429688
 20
343.1800079345703
 30
0.0
 10
582.64501953125
 20
319.1690063476562
 30
0.0
 10
584.0670166015625
 20
315.5130081176758
 30
0.0
 10
584.551025390625
 20
312.0480041503906
 30
0.0
 10
584.4299926757812
 20
310.3270034790039
 30
0.0
 10
581.5980224609375
 20
310.3000030517578
 30
0.0
 10
574.5460205078125
 20
313.6580047607422
 30
0.0
 10
569.9089965820312
 20
314.9589996337891
 30
0.0
 10
559.5960083007812
 20
318.0510025024414
 30
0.0
 10
549.2899780273438
 20
309.9089965820312
 30
0.0
 10
549.2899780273438
 20
298.5240020751953
 30
0.0
  0
SPLINE
  5
49
330
1F
100
AcDbEntity
  8
_U+0421_U+043B_U+043E_U+0439 1
 62
     1
420
 16711680
370
     9
100
AcDbSpline
210
0.0
220
0.0
230
1.0
 70
    11
 71
     3
 72
    29
 73
    25
 74
     0
 42
0.0000000001
 43
0.0000000001
 12
1.0
 22
0.0
 32
0.0
 13
1.0
 23
0.0
 33
0.0
 40
0.0
 40
0.0
 40
0.0
 40
0.0
 40
1.0
 40
1.0
 40
1.0
 40
2.0
 40
2.0
 40
2.0
 40
3.0
 40
3.0
 40
3.0
 40
4.0
 40
4.0
 40
4.0
 40
5.0
 40
5.0
 40
5.0
 40
6.0
 40
6.0
 40
6.0
 40
7.0
 40
7.0
 40
7.0
 40
8.0
 40
8.0
 40
8.0
 40
8.0
 10
527.3380126953125
 20
94.83999633789062
 30
0.0
 10
526.2470092773438
 20
117.25
 30
0.0
 10
521.9559936523438
 20
138.6749877929688
 30
0.0
 10
545.95703125
 20
149.6839904785156
 30
0.0
 10
549.613037109375
 20
151.1059875488281
 30
0.0
 10
553.0780029296875
 20
151.5899963378906
 30
0.0
 10
554.7990112304688
 20
151.468994140625
 30
0.0
 10
554.8619995117188
 20
144.8110046386719
 30
0.0
 10
543.405029296875
 20
132.1629943847656
 30
0.0
 10
554.1929931640625
 20
121.375
 30
0.0
 10
558.4869995117188
 20
117.0809936523438
 30
0.0
 10
564.636962890625
 20
115.8240051269531
 30
0.0
 10
568.7379760742188
 20
116.5069885253906
 30
0.0
 10
574.8299560546875
 20
117.5220031738281
 30
0.0
 10
580.7259521484375
 20
120.6239929199219
 30
0.0
 10
584.4829711914062
 20
121.2649841308594
 30
0.0
 10
584.6499633789062
 20
119.5129699707031
 30
0.0
 10
584.364990234375
 20
116.2939758300781
 30
0.0
 10
583.0809936523438
 20
112.8669738769531
 30
0.0
 10
578.1409912109375
 20
103.2629699707031
 30
0.0
 10
571.2369995117188
 20
97.62796020507812
 30
0.0
 10
561.39501953125
 20
95.1519775390625
 30
0.0
 10
550.1589965820312
 20
92.32501220703125
 30
0.0
 10
537.031005859375
 20
94.11898803710938
 30
0.0
 10
527.3380126953125
 20
94.83999633789062
 30
0.0
  0
SPLINE
  5
4A
330
1F
100
AcDbEntity
  8
_U+0421_U+043B_U+043E_U+0439 1
 62
     1
420
 16711680
370
     9
100
AcDbSpline
210
0.0
220
0.0
230
1.0
 70
    11
 71
     3
 72
    32
 73
    28
 74
     0
 42
0.0000000001
 43
0.0000000001
 12
1.0
 22
0.0
 32
0.0
 13
1.0
 23
0.0
 33
0.0
 40
0.0
 40
0.0
 40
0.0
 40
0.0
 40
1.0
 40
1.0
 40
1.0
 40
2.0
 40
2.0
 40
2.0
 40
3.0
 40
3.0
 40
3.0
 40
4.0
 40
4.0
 40
4.0
 40
5.0
 40
5.0
 40
5.0
 40
6.0
 40
6.0
 40
6.0
 40
7.0
 40
7.0
 40
7.0
 40
8.0
 40
8.0
 40
8.0
 40
9.0
 40
9.0
 40
9.0
 40
9.0
 10
643.7839965820312
 20
41.04400634765625
 30
0.0
 10
626.8359985351562
 20
55.67501831054688
 30
0.0
 10
615.4290161132812
 20
67.6669921875
 30
0.0
 10
623.1920166015625
 20
88.58502197265625
 30
0.0
 10
624.7720336914062
 20
92.17501831054688
 30
0.0
 10
626.8790283203125
 20
94.968017578125
 30
0.0
 10
628.1820068359375
 20
96.09902954101562
 30
0.0
 10
630.2009887695312
 20
94.11703491210938
 30
0.0
 10
632.8200073242188
 20
86.74801635742188
 30
0.0
 10
635.1749877929688
 20
82.5560302734375
 30
0.0
 10
641.0169677734375
 20
71.70602416992188
 30
0.0
 10
656.281982421875
 20
72.16302490234375
 30
0.0
 10
662.760009765625
 20
81.23403930664062
 30
0.0
 10
666.3419799804688
 20
86.24905395507812
 30
0.0
 10
668.3359985351562
 20
92.63604736328125
 30
0.0
 10
670.5289916992188
 20
95.73202514648438
 30
0.0
 10
677.2210083007812
 20
90.20101928710938
 30
0.0
 10
680.9660034179688
 20
74.8170166015625
 30
0.0
 10
672.66796875
 20
60.9420166015625
 30
0.0
 10
667.6029663085938
 20
52.47201538085938
 30
0.0
 10
659.1689453125
 20
45.3790283203125
 30
0.0
 10
652.3929443359375
 20
39.68002319335938
 30
0.0
 10
651.1529541015625
 20
38.63803100585938
 30
0.0
 10
649.9539184570312
 20
37.6290283203125
 30
0.0
 10
648.804931640625
 20
36.6390380859375
 30
0.0
 10
647.2260131835938
 20
38.07199096679688
 30
0.0
 10
645.5399780273438
 20
39.52801513671875
 30
0.0
 10
643.7839965820312
 20
41.04400634765625
 30
0.0
  0
SPLINE
  5
4B
330
1F
100
AcDbEntity
  8
_U+0421_U+043B_U+043E_U+0439 1
 62
     1
420
 16711680
370
     9
100
AcDbSpline
210
0.0
220
0.0
230
1.0
 70
    11
 71
     3
 72
    53
 73
    49
 74
     0
 42
0.0000000001
 43
0.0000000001
 12
1.0
 22
0.0
 32
0.0
 13
1.0
 23
0.0
 33
0.0
 40
0.0
 40
0.0
 40
0.0
 40
0.0
 40
1.0
 40
1.0
 40
1.0
 40
2.0
 40
2.0
 40
2.0
 40
3.0
 40
3.0
 40
3.0
 40
4.0
 40
4.0
 40
4.0
 40
5.0
 40
5.0
 40
5.0
 40
6.0
 40
6.0
 40
6.0
 40
7.0
 40
7.0
 40
7.0
 40
8.0
 40
8.0
 40
8.0
 40
9.0
 40
9.0
 40
9.0
 40
10.0
 40
10.0
 40
10.0
 40
11.0
 40
11.0
 40
11.0
 40
12.0
 40
12.0
 40
12.0
 40
13.0
 40
13.0
 40
13.0
 40
14.0
 40
14.0
 40
14.0
 40
15.0
 40
15.0
 40
15.0
 40
16.0
 40
16.0
 40
16.0
 40
16.0
 10
684.0009765625
 20
124.5750122070312
 30
0.0
 10
675.4779663085938
 20
132.1520080566406
 30
0.0
 10
660.5499877929688
 20
133.8190002441406
 30
0.0
 10
649.4829711914062
 20
126.4410095214844
 30
0.0
 10
638.31396484375
 20
133.8860168457031
 30
0.0
 10
623.3899536132812
 20
132.0639953613281
 30
0.0
 10
614.9649658203125
 20
124.5750122070312
 30
0.0
 10
618.6929931640625
 20
140.4070129394531
 30
0.0
 10
607.531982421875
 20
155.35400390625
 30
0.0
 10
592.574951171875
 20
159.093017578125
 30
0.0
 10
588.7859497070312
 20
174.2500305175781
 30
0.0
 10
573.741943359375
 20
186.0960235595703
 30
0.0
 10
558.0569458007812
 20
181.4830169677734
 30
0.0
 10
565.7149658203125
 20
191.0550231933594
 30
0.0
 10
567.2359619140625
 20
205.051025390625
 30
0.0
 10
559.9229736328125
 20
216.9340209960938
 30
0.0
 10
567.3569946289062
 20
228.0860290527344
 30
0.0
 10
565.5579833984375
 20
243.0090179443359
 30
0.0
 10
558.0569458007812
 20
252.3850250244141
 30
0.0
 10
573.9139404296875
 20
248.6540222167969
 30
0.0
 10
589.7749633789062
 20
259.8440246582031
 30
0.0
 10
592.574951171875
 20
274.7750244140625
 30
0.0
 10
607.6649780273438
 20
278.5480194091797
 30
0.0
 10
618.66796875
 20
292.6420288085938
 30
0.0
 10
614.9649658203125
 20
309.2930297851562
 30
0.0
 10
623.3589477539062
 20
301.8310241699219
 30
0.0
 10
638.283935546875
 20
299.9620361328125
 30
0.0
 10
649.4829711914062
 20
307.4270324707031
 30
0.0
 10
660.6749877929688
 20
299.9660339355469
 30
0.0
 10
675.6019897460938
 20
301.8270263671875
 30
0.0
 10
684.0009765625
 20
309.2930297851562
 30
0.0
 10
680.3159790039062
 20
293.6290283203125
 30
0.0
 10
691.2169799804688
 20
278.5680236816406
 30
0.0
 10
706.3909912109375
 20
274.7750244140625
 30
0.0
 10
710.1270141601562
 20
259.8310241699219
 30
0.0
 10
725.06396484375
 20
247.7250213623047
 30
0.0
 10
740.9089965820312
 20
252.3850250244141
 30
0.0
 10
733.177978515625
 20
242.7200317382812
 30
0.0
 10
731.7960205078125
 20
228.7110290527344
 30
0.0
 10
739.04296875
 20
216.9340209960938
 30
0.0
 10
731.7069702148438
 20
205.9300231933594
 30
0.0
 10
733.2839965820312
 20
191.0150146484375
 30
0.0
 10
740.9089965820312
 20
181.4830169677734
 30
0.0
 10
725.0499877929688
 20
185.2140197753906
 30
0.0
 10
709.1900024414062
 20
174.0210266113281
 30
0.0
 10
706.3909912109375
 20
159.093017578125
 30
0.0
 10
691.468017578125
 20
155.3619995117188
 30
0.0
 10
680.2689819335938
 20
140.43798828125
 30
0.0
 10
684.0009765625
 20
124.5750122070312
 30
0.0
  0
SPLINE
  5
4C
330
1F
100
AcDbEntity
  8
_U+0421_U+043B_U+043E_U+0439 1
 62
     1
420
 16711680
370
     9
100
AcDbSpline
210
0.0
220
0.0
230
1.0
 70
    11
 71
     3
 72
   125
 73
   121
 74
     0
 42
0.0000000001
 43
0.0000000001
 12
1.0
 22
0.0
 32
0.0
 13
1.0
 23
0.0
 33
0.0
 40
0.0
 40
0.0
 40
0.0
 40
0.0
 40
1.0
 40
1.0
 40
1.0
 40
2.0
 40
2.0
 40
2.0
 40
3.0
 40
3.0
 40
3.0
 40
4.0
 40
4.0
 40
4.0
 40
5.0
 40
5.0
 40
5.0
 40
6.0
 40
6.0
 40
6.0
 40
7.0
 40
7.0
 40
7.0
 40
8.0
 40
8.0
 40
8.0
 40
9.0
 40
9.0
 40
9.0
 40
10.0
 40
10.0
 40
10.0
 40
11.0
 40
11.0
 40
11.0
 40
12.0
 40
12.0
 40
12.0
 40
13.0
 40
13.0
 40
13.0
 40
14.0
 40
14.0
 40
14.0
 40
15.0
 40
15.0
 40
15.0
 40
16.0
 40
16.0
 40
16.0
 40
17.0
 40
17.0
 40
17.0
 40
18.0
 40
18.0
 40
18.0
 40
19.0
 40
19.0
 40
19.0
 40
20.0
 40
20.0
 40
20.0
 40
21.0
 40
21.0
 40
21.0
 40
22.0
 40
22.0
 40
22.0
 40
23.0
 40
23.0
 40
23.0
 40
24.0
 40
24.0
 40
24.0
 40
25.0
 40
25.0
 40
25.0
 40
26.0
 40
26.0
 40
26.0
 40
27.0
 40
27.0
 40
27.0
 40
28.0
 40
28.0
 40
28.0
 40
29.0
 40
29.0
 40
29.0
 40
30.0
 40
30.0
 40
30.0
 40
31.0
 40
31.0
 40
31.0
 40
32.0
 40
32.0
 40
32.0
 40
33.0
 40
33.0
 40
33.0
 40
34.0
 40
34.0
 40
34.0
 40
35.0
 40
35.0
 40
35.0
 40
36.0
 40
36.0
 40
36.0
 40
37.0
 40
37.0
 40
37.0
 40
38.0
 40
38.0
 40
38.0
 40
39.0
 40
39.0
 40
39.0
 40
40.0
 40
40.0
 40
40.0
 40
40.0
 10
413.9800109863281
 20
227.1950073242188
 30
0.0
 10
405.5840148925781
 20
234.6580047607422
 30
0.0
 10
390.6570129394531
 20
275.7060089111328
 30
0.0
 10
346.8099975585938
 20
271.9750061035156
 30
0.0
 10
371.0660095214844
 20
299.0290069580078
 30
0.0
 10
355.2059936523438
 20
332.6140060424805
 30
0.0
 10
356.1390075683594
 20
343.8090057373047
 30
0.0
 10
356.1390075683594
 20
347.5410079956055
 30
0.0
 10
357.072021484375
 20
351.2720031738281
 30
0.0
 10
358.9380187988281
 20
354.0710067749023
 30
0.0
 10
360.8040161132812
 20
358.7360076904297
 30
0.0
 10
356.1390075683594
 20
363.4000091552734
 30
0.0
 10
351.4750061035156
 20
361.5340042114258
 30
0.0
 10
347.7430114746094
 20
359.6680068969727
 30
0.0
 10
344.0119934082031
 20
358.7350006103516
 30
0.0
 10
341.2130126953125
 20
358.7350006103516
 30
0.0
 10
330.0180053710938
 20
358.7350006103516
 30
0.0
 10
296.4330139160156
 20
374.5950012207031
 30
0.0
 10
269.3790283203125
 20
350.3390045166016
 30
0.0
 10
273.1110229492188
 20
394.1860046386719
 30
0.0
 10
232.9950256347656
 20
408.180004119873
 30
0.0
 10
224.5990295410156
 20
417.5090026855469
 30
0.0
 10
222.7330322265625
 20
420.3080024719238
 30
0.0
 10
220.8670349121094
 20
423.1060028076172
 30
0.0
 10
219.0020294189453
 20
425.9050025939941
 30
0.0
 10
217.1360321044922
 20
430.5700025558472
 30
0.0
 10
210.6060333251953
 20
430.5700025558472
 30
0.0
 10
208.7400360107422
 20
425.9050025939941
 30
0.0
 10
204.0750427246094
 20
417.5090026855469
 30
0.0
 10
200.3440399169922
 20
414.7100028991699
 30
0.0
 10
193.8130340576172
 20
410.9780025482178
 30
0.0
 10
178.8860321044922
 20
401.6490020751953
 30
0.0
 10
154.6310424804688
 20
385.7890014648438
 30
0.0
 10
157.4290313720703
 20
351.2720031738281
 30
0.0
 10
130.3750305175781
 20
374.5950012207031
 30
0.0
 10
96.79003143310547
 20
358.7350006103516
 30
0.0
 10
85.59503173828125
 20
358.7350006103516
 30
0.0
 10
82.79602813720703
 20
358.7350006103516
 30
0.0
 10
78.13203430175781
 20
359.6679992675781
 30
0.0
 10
74.40003204345703
 20
360.6009979248047
 30
0.0
 10
69.73503112792969
 20
362.4669952392578
 30
0.0
 10
65.07102966308594
 20
357.8019943237305
 30
0.0
 10
67.87003326416016
 20
353.1380004882812
 30
0.0
 10
69.73603057861328
 20
350.338996887207
 30
0.0
 10
69.73603057861328
 20
346.6080017089844
 30
0.0
 10
70.66903686523438
 20
342.8759994506836
 30
0.0
 10
71.60203552246094
 20
331.6809997558594
 30
0.0
 10
55.74203491210938
 20
298.0960083007812
 30
0.0
 10
79.99803924560547
 20
271.0419921875
 30
0.0
 10
36.15103912353516
 20
274.7739868164062
 30
0.0
 10
21.22504043579102
 20
233.7259826660156
 30
0.0
 10
12.82804107666016
 20
226.2619934082031
 30
0.0
 10
10.0290412902832
 20
223.4629974365234
 30
0.0
 10
7.231040954589844
 20
221.5970001220703
 30
0.0
 10
3.499040603637695
 20
220.6649932861328
 30
0.0
 10
-1.165959358215332
 20
218.7989959716797
 30
0.0
 10
-1.165959358215332
 20
212.2689971923828
 30
0.0
 10
3.499040603637695
 20
210.4029998779297
 30
0.0
 10
6.298040390014648
 20
209.4700012207031
 30
0.0
 10
9.096040725708008
 20
207.60400390625
 30
0.0
 10
11.89504051208496
 20
204.8059997558594
 30
0.0
 10
20.29104042053223
 20
197.3430023193359
 30
0.0
 10
35.21804046630859
 20
156.2949829101562
 30
0.0
 10
79.0650405883789
 20
160.0260009765625
 30
0.0
 10
54.80904006958008
 20
132.9719848632812
 30
0.0
 10
70.66903686523438
 20
99.38699340820312
 30
0.0
 10
69.73603820800781
 20
88.1920166015625
 30
0.0
 10
69.73603820800781
 20
80.72900390625
 30
0.0
 10
66.9370346069336
 20
77.93002319335938
 30
0.0
 10
66.9370346069336
 20
76.06402587890625
 30
0.0
 10
66.9370346069336
 20
71.39901733398438
 30
0.0
 10
72.5340347290039
 20
68.60101318359375
 30
0.0
 10
75.33303833007812
 20
71.39901733398438
 30
0.0
 10
90.9620361328125
 20
76.6090087890625
 30
0.0
 10
91.01803588867188
 20
68.60000610351562
 30
0.0
 10
120.113037109375
 20
68.60000610351562
 30
0.0
 10
135.0400390625
 20
68.60000610351562
 30
0.0
 10
147.1670379638672
 20
73.2650146484375
 30
0.0
 10
157.4290466308594
 20
81.6610107421875
 30
0.0
 10
153.6970520019531
 20
37.81402587890625
 30
0.0
 10
193.8130493164062
 20
23.82000732421875
 30
0.0
 10
202.2090454101562
 20
14.49102783203125
 30
0.0
 10
204.0750427246094
 20
11.6920166015625
 30
0.0
 10
205.9410400390625
 20
8.89404296875
 30
0.0
 10
207.8060455322266
 20
6.09503173828125
 30
0.0
 10
209.6720428466797
 20
1.430023193359375
 30
0.0
 10
216.2020416259766
 20
1.430023193359375
 30
0.0
 10
218.0680389404297
 20
6.09503173828125
 30
0.0
 10
219.9340362548828
 20
9.8270263671875
 30
0.0
 10
221.8000335693359
 20
12.62503051757812
 30
0.0
 10
223.6650390625
 20
14.49102783203125
 30
0.0
 10
232.06103515625
 20
22.88702392578125
 30
0.0
 10
272.176025390625
 20
36.88104248046875
 30
0.0
 10
268.4450378417969
 20
81.6610107421875
 30
0.0
 10
296.4320373535156
 20
57.40499877929688
 30
0.0
 10
330.9500427246094
 20
73.2650146484375
 30
0.0
 10
341.2120361328125
 20
73.2650146484375
 30
0.0
 10
344.9440307617188
 20
73.2650146484375
 30
0.0
 10
347.7420349121094
 20
72.33200073242188
 30
0.0
 10
351.4740295410156
 20
71.39901733398438
 30
0.0
 10
356.1390380859375
 20
69.53302001953125
 30
0.0
 10
359.8700256347656
 20
74.19802856445312
 30
0.0
 10
358.0040283203125
 20
78.86203002929688
 30
0.0
 10
357.0710144042969
 20
82.59402465820312
 30
0.0
 10
356.1380310058594
 20
85.39202880859375
 30
0.0
 10
356.1380310058594
 20
89.1240234375
 30
0.0
 10
355.2050170898438
 20
100.3190307617188
 30
0.0
 10
371.0650329589844
 20
133.9040222167969
 30
0.0
 10
346.8090209960938
 20
160.9580078125
 30
0.0
 10
390.656005859375
 20
157.2260131835938
 30
0.0
 10
405.58203125
 20
198.2740173339844
 30
0.0
 10
413.97900390625
 20
205.7380065917969
 30
0.0
 10
416.7780151367188
 20
207.60400390625
 30
0.0
 10
419.5759887695312
 20
210.4029998779297
 30
0.0
 10
422.375
 20
211.3350067138672
 30
0.0
 10
424.2409973144531
 20
212.2680053710938
 30
0.0
 10
426.1069946289062
 20
214.1340026855469
 30
0.0
 10
426.1069946289062
 20
216.0
 30
0.0
 10
426.1080017089844
 20
221.8710021972656
 30
0.0
 10
418.5039978027344
 20
222.6710052490234
 30
0.0
 10
413.9800109863281
 20
227.1950073242188
 30
0.0
  0
SPLINE
  5
4D
330
1F
100
AcDbEntity
  8
_U+0421_U+043B_U+043E_U+0439 1
 62
     1
420
 16711680
370
     9
100
AcDbSpline
210
0.0
220
0.0
230
1.0
 70
    11
 71
     3
 72
    29
 73
    25
 74
     0
 42
0.0000000001
 43
0.0000000001
 12
1.0
 22
0.0
 32
0.0
 13
1.0
 23
0.0
 33
0.0
 40
0.0
 40
0.0
 40
0.0
 40
0.0
 40
1.0
 40
1.0
 40
1.0
 40
2.0
 40
2.0
 40
2.0
 40
3.0
 40
3.0
 40
3.0
 40
4.0
 40
4.0
 40
4.0
 40
5.0
 40
5.0
 40
5.0
 40
6.0
 40
6.0
 40
6.0
 40
7.0
 40
7.0
 40
7.0
 40
8.0
 40
8.0
 40
8.0
 40
8.0
 10
335.614990234375
 20
178.6840057373047
 30
0.0
 10
329.0849914550781
 20
181.4830017089844
 30
0.0
 10
318.822998046875
 20
188.0130004882812
 30
0.0
 10
319.7550048828125
 20
196.4090118408203
 30
0.0
 10
320.6880187988281
 20
207.60400390625
 30
0.0
 10
332.8160095214844
 20
209.4700164794922
 30
0.0
 10
340.2789916992188
 20
214.1340179443359
 30
0.0
 10
342.1449890136719
 20
215.0670166015625
 30
0.0
 10
342.1449890136719
 20
217.8660125732422
 30
0.0
 10
340.2789916992188
 20
219.7310180664062
 30
0.0
 10
332.8159790039062
 20
224.3960113525391
 30
0.0
 10
320.68798828125
 20
226.2610168457031
 30
0.0
 10
319.7550048828125
 20
237.4560241699219
 30
0.0
 10
318.8219909667969
 20
245.8520202636719
 30
0.0
 10
329.0840148925781
 20
252.3830261230469
 30
0.0
 10
335.614990234375
 20
255.1810302734375
 30
0.0
 10
376.6629943847656
 20
270.1080322265625
 30
0.0
 10
397.1869812011719
 20
226.2610321044922
 30
0.0
 10
409.3150024414062
 20
218.7970275878906
 30
0.0
 10
411.1809997558594
 20
217.8640289306641
 30
0.0
 10
411.1809997558594
 20
216.9310302734375
 30
0.0
 10
409.3150024414062
 20
215.0650329589844
 30
0.0
 10
397.18701171875
 20
207.60400390625
 30
0.0
 10
376.6629943847656
 20
163.7569885253906
 30
0.0
 10
335.614990234375
 20
178.6840057373047
 30
0.0
  0
SPLINE
  5
4E
330
1F
100
AcDbEntity
  8
_U+0421_U+043B_U+043E_U+0439 1
 62
     1
420
 16711680
370
     9
100
AcDbSpline
210
0.0
220
0.0
230
1.0
 70
    11
 71
     3
 72
    29
 73
    25
 74
     0
 42
0.0000000001
 43
0.0000000001
 12
1.0
 22
0.0
 32
0.0
 13
1.0
 23
0.0
 33
0.0
 40
0.0
 40
0.0
 40
0.0
 40
0.0
 40
1.0
 40
1.0
 40
1.0
 40
2.0
 40
2.0
 40
2.0
 40
3.0
 40
3.0
 40
3.0
 40
4.0
 40
4.0
 40
4.0
 40
5.0
 40
5.0
 40
5.0
 40
6.0
 40
6.0
 40
6.0
 40
7.0
 40
7.0
 40
7.0
 40
8.0
 40
8.0
 40
8.0
 40
8.0
 10
346.8099975585938
 20
85.39199829101562
 30
0.0
 10
347.7430114746094
 20
83.5260009765625
 30
0.0
 10
346.8099975585938
 20
82.59298706054688
 30
0.0
 10
344.010986328125
 20
82.59298706054688
 30
0.0
 10
330.0169982910156
 20
86.32498168945312
 30
0.0
 10
285.2379760742188
 20
69.531982421875
 30
0.0
 10
266.5789794921875
 20
108.7149963378906
 30
0.0
 10
263.7799682617188
 20
115.2449951171875
 30
0.0
 10
260.9819946289062
 20
127.3729858398438
 30
0.0
 10
267.5119934082031
 20
132.9710083007812
 30
0.0
 10
275.9079895019531
 20
140.4340209960938
 30
0.0
 10
286.1699829101562
 20
132.9710083007812
 30
0.0
 10
294.5659790039062
 20
131.1050109863281
 30
0.0
 10
296.4319763183594
 20
130.1719970703125
 30
0.0
 10
299.2309875488281
 20
132.9710083007812
 30
0.0
 10
298.2979736328125
 20
134.8370056152344
 30
0.0
 10
296.4319763183594
 20
142.3000183105469
 30
0.0
 10
288.9689636230469
 20
153.4949951171875
 30
0.0
 10
296.4319763183594
 20
161.8909912109375
 30
0.0
 10
302.0289916992188
 20
168.4209899902344
 30
0.0
 10
313.2239685058594
 20
165.6229858398438
 30
0.0
 10
320.68798828125
 20
162.8240051269531
 30
0.0
 10
359.8710021972656
 20
145.0989990234375
 30
0.0
 10
343.0780029296875
 20
100.3190002441406
 30
0.0
 10
346.8099975585938
 20
85.39199829101562
 30
0.0
  0
SPLINE
  5
4F
330
1F
100
AcDbEntity
  8
_U+0421_U+043B_U+043E_U+0439 1
 62
     1
420
 16711680
370
     9
100
AcDbSpline
210
0.0
220
0.0
230
1.0
 70
    11
 71
     3
 72
    59
 73
    55
 74
     0
 42
0.0000000001
 43
0.0000000001
 12
1.0
 22
0.0
 32
0.0
 13
1.0
 23
0.0
 33
0.0
 40
0.0
 40
0.0
 40
0.0
 40
0.0
 40
1.0
 40
1.0
 40
1.0
 40
2.0
 40
2.0
 40
2.0
 40
3.0
 40
3.0
 40
3.0
 40
4.0
 40
4.0
 40
4.0
 40
5.0
 40
5.0
 40
5.0
 40
6.0
 40
6.0
 40
6.0
 40
7.0
 40
7.0
 40
7.0
 40
8.0
 40
8.0
 40
8.0
 40
9.0
 40
9.0
 40
9.0
 40
10.0
 40
10.0
 40
10.0
 40
11.0
 40
11.0
 40
11.0
 40
12.0
 40
12.0
 40
12.0
 40
13.0
 40
13.0
 40
13.0
 40
14.0
 40
14.0
 40
14.0
 40
15.0
 40
15.0
 40
15.0
 40
16.0
 40
16.0
 40
16.0
 40
17.0
 40
17.0
 40
17.0
 40
18.0
 40
18.0
 40
18.0
 40
18.0
 10
247.9210052490234
 20
124.5750122070312
 30
0.0
 10
239.5250091552734
 20
132.0380249023438
 30
0.0
 10
224.5980072021484
 20
133.9040222167969
 30
0.0
 10
213.4029998779297
 20
126.4410095214844
 30
0.0
 10
202.2080078125
 20
133.9040222167969
 30
0.0
 10
187.281005859375
 20
132.0380249023438
 30
0.0
 10
178.8849945068359
 20
124.5750122070312
 30
0.0
 10
182.6169891357422
 20
140.4349975585938
 30
0.0
 10
171.4219970703125
 20
155.3610229492188
 30
0.0
 10
156.4949951171875
 20
159.093017578125
 30
0.0
 10
152.7630004882812
 20
174.02001953125
 30
0.0
 10
137.8369903564453
 20
186.1470184326172
 30
0.0
 10
121.9769897460938
 20
181.4830169677734
 30
0.0
 10
129.4399871826172
 20
190.81201171875
 30
0.0
 10
131.3059844970703
 20
204.8060150146484
 30
0.0
 10
123.8429870605469
 20
216.9340209960938
 30
0.0
 10
123.8429870605469
 20
216.9340209960938
 30
0.0
 10
123.8429870605469
 20
216.9340209960938
 30
0.0
 10
123.8429870605469
 20
216.9340209960938
 30
0.0
 10
131.3059844970703
 20
228.1290283203125
 30
0.0
 10
129.4399871826172
 20
243.0560150146484
 30
0.0
 10
121.9769897460938
 20
252.3850250244141
 30
0.0
 10
137.8369903564453
 20
248.6530303955078
 30
0.0
 10
153.6959838867188
 20
259.8480224609375
 30
0.0
 10
156.4949951171875
 20
274.7750244140625
 30
0.0
 10
171.4219970703125
 20
278.5070190429688
 30
0.0
 10
182.6169891357422
 20
292.5000305175781
 30
0.0
 10
178.8849945068359
 20
309.2930297851562
 30
0.0
 10
187.2809906005859
 20
301.8300323486328
 30
0.0
 10
202.2079925537109
 20
299.9640350341797
 30
0.0
 10
213.4029998779297
 20
307.4270324707031
 30
0.0
 10
224.5979919433594
 20
299.9640350341797
 30
0.0
 10
239.5249938964844
 20
301.8300323486328
 30
0.0
 10
247.9210052490234
 20
309.2930297851562
 30
0.0
 10
244.1890106201172
 20
293.4330291748047
 30
0.0
 10
255.3840026855469
 20
278.5070343017578
 30
0.0
 10
270.3110046386719
 20
274.7750244140625
 30
0.0
 10
274.0429992675781
 20
259.8480224609375
 30
0.0
 10
288.968994140625
 20
247.7210235595703
 30
0.0
 10
304.8290100097656
 20
252.3850250244141
 30
0.0
 10
297.3659973144531
 20
243.0560302734375
 30
0.0
 10
295.5
 20
229.0620269775391
 30
0.0
 10
302.9630126953125
 20
216.9340209960938
 30
0.0
 10
302.9630126953125
 20
216.9340209960938
 30
0.0
 10
302.9630126953125
 20
216.9340209960938
 30
0.0
 10
302.9630126953125
 20
216.9340209960938
 30
0.0
 10
295.5
 20
205.739013671875
 30
0.0
 10
297.3660278320312
 20
190.8120269775391
 30
0.0
 10
304.8290100097656
 20
181.4830169677734
 30
0.0
 10
288.9690246582031
 20
185.2150115966797
 30
0.0
 10
273.1100158691406
 20
174.02001953125
 30
0.0
 10
270.3110046386719
 20
159.093017578125
 30
0.0
 10
255.3849945068359
 20
155.3609924316406
 30
0.0
 10
244.1900024414062
 20
140.4339904785156
 30
0.0
 10
247.9210052490234
 20
124.5750122070312
 30
0.0
  0
SPLINE
  5
50
330
1F
100
AcDbEntity
  8
_U+0421_U+043B_U+043E_U+0439 1
 62
     1
420
 16711680
370
     9
100
AcDbSpline
210
0.0
220
0.0
230
1.0
 70
    11
 71
     3
 72
    29
 73
    25
 74
     0
 42
0.0000000001
 43
0.0000000001
 12
1.0
 22
0.0
 32
0.0
 13
1.0
 23
0.0
 33
0.0
 40
0.0
 40
0.0
 40
0.0
 40
0.0
 40
1.0
 40
1.0
 40
1.0
 40
2.0
 40
2.0
 40
2.0
 40
3.0
 40
3.0
 40
3.0
 40
4.0
 40
4.0
 40
4.0
 40
5.0
 40
5.0
 40
5.0
 40
6.0
 40
6.0
 40
6.0
 40
7.0
 40
7.0
 40
7.0
 40
8.0
 40
8.0
 40
8.0
 40
8.0
 10
215.2689971923828
 20
20.0880126953125
 30
0.0
 10
214.3359985351562
 20
18.22201538085938
 30
0.0
 10
212.4700012207031
 20
18.22201538085938
 30
0.0
 10
211.5370025634766
 20
20.0880126953125
 30
0.0
 10
204.0740051269531
 20
33.14901733398438
 30
0.0
 10
160.2270050048828
 20
51.8070068359375
 30
0.0
 10
176.0859985351562
 20
93.78802490234375
 30
0.0
 10
178.8849945068359
 20
100.3180236816406
 30
0.0
 10
185.4149932861328
 20
110.5800170898438
 30
0.0
 10
193.8110046386719
 20
109.6470336914062
 30
0.0
 10
205.0060119628906
 20
108.7140197753906
 30
0.0
 10
207.8050079345703
 20
95.65304565429688
 30
0.0
 10
211.5360107421875
 20
89.123046875
 30
0.0
 10
212.4690093994141
 20
87.25704956054688
 30
0.0
 10
215.2680053710938
 20
87.25704956054688
 30
0.0
 10
217.1330108642578
 20
89.123046875
 30
0.0
 10
221.7980041503906
 20
95.65304565429688
 30
0.0
 10
223.6630096435547
 20
108.7140502929688
 30
0.0
 10
234.8580169677734
 20
109.6470336914062
 30
0.0
 10
243.2540130615234
 20
110.5800476074219
 30
0.0
 10
249.7850189208984
 20
100.3180236816406
 30
0.0
 10
252.5830230712891
 20
93.78802490234375
 30
0.0
 10
266.5799865722656
 20
51.8070068359375
 30
0.0
 10
222.7330017089844
 20
33.14898681640625
 30
0.0
 10
215.2689971923828
 20
20.0880126953125
 30
0.0
  0
SPLINE
  5
51
330
1F
100
AcDbEntity
  8
_U+0421_U+043B_U+043E_U+0439 1
 62
     1
420
 16711680
370
     9
100
AcDbSpline
210
0.0
220
0.0
230
1.0
 70
    11
 71
     3
 72
    29
 73
    25
 74
     0
 42
0.0000000001
 43
0.0000000001
 12
1.0
 22
0.0
 32
0.0
 13
1.0
 23
0.0
 33
0.0
 40
0.0
 40
0.0
 40
0.0
 40
0.0
 40
1.0
 40
1.0
 40
1.0
 40
2.0
 40
2.0
 40
2.0
 40
3.0
 40
3.0
 40
3.0
 40
4.0
 40
4.0
 40
4.0
 40
5.0
 40
5.0
 40
5.0
 40
6.0
 40
6.0
 40
6.0
 40
7.0
 40
7.0
 40
7.0
 40
8.0
 40
8.0
 40
8.0
 40
8.0
 10
81.86299896240234
 20
83.5260009765625
 30
0.0
 10
79.99700164794922
 20
82.59298706054688
 30
0.0
 10
79.06399536132812
 20
83.5260009765625
 30
0.0
 10
79.06399536132812
 20
86.32501220703125
 30
0.0
 10
82.7959976196289
 20
100.3190002441406
 30
0.0
 10
66.00299835205078
 20
145.0980224609375
 30
0.0
 10
106.1179962158203
 20
163.7570190429688
 30
0.0
 10
112.6479949951172
 20
166.5560302734375
 30
0.0
 10
124.7760009765625
 20
169.35400390625
 30
0.0
 10
130.3739929199219
 20
162.8240051269531
 30
0.0
 10
137.8369903564453
 20
154.4280090332031
 30
0.0
 10
130.3739929199219
 20
143.2330017089844
 30
0.0
 10
128.5079956054688
 20
135.77001953125
 30
0.0
 10
127.5749969482422
 20
133.9040222167969
 30
0.0
 10
130.3739929199219
 20
131.1050109863281
 30
0.0
 10
132.239990234375
 20
132.0380249023438
 30
0.0
 10
140.635986328125
 20
133.9040222167969
 30
0.0
 10
150.8979949951172
 20
141.3670349121094
 30
0.0
 10
159.2939910888672
 20
133.9040222167969
 30
0.0
 10
165.8239898681641
 20
128.3070068359375
 30
0.0
 10
163.0259857177734
 20
116.1790161132812
 30
0.0
 10
160.2269897460938
 20
109.6480102539062
 30
0.0
 10
140.6369934082031
 20
69.53298950195312
 30
0.0
 10
95.85700225830078
 20
86.32501220703125
 30
0.0
 10
81.86299896240234
 20
83.5260009765625
 30
0.0
  0
SPLINE
  5
52
330
1F
100
AcDbEntity
  8
_U+0421_U+043B_U+043E_U+0439 1
 62
     1
420
 16711680
370
     9
100
AcDbSpline
210
0.0
220
0.0
230
1.0
 70
    11
 71
     3
 72
    29
 73
    25
 74
     0
 42
0.0000000001
 43
0.0000000001
 12
1.0
 22
0.0
 32
0.0
 13
1.0
 23
0.0
 33
0.0
 40
0.0
 40
0.0
 40
0.0
 40
0.0
 40
1.0
 40
1.0
 40
1.0
 40
2.0
 40
2.0
 40
2.0
 40
3.0
 40
3.0
 40
3.0
 40
4.0
 40
4.0
 40
4.0
 40
5.0
 40
5.0
 40
5.0
 40
6.0
 40
6.0
 40
6.0
 40
7.0
 40
7.0
 40
7.0
 40
8.0
 40
8.0
 40
8.0
 40
8.0
 10
16.55900001525879
 20
214.1340026855469
 30
0.0
 10
14.69299983978271
 20
215.0670013427734
 30
0.0
 10
14.69299983978271
 20
216.9329986572266
 30
0.0
 10
16.55900001525879
 20
217.8659973144531
 30
0.0
 10
28.6870002746582
 20
225.3289947509766
 30
0.0
 10
49.21099853515625
 20
269.1759948730469
 30
0.0
 10
90.25899505615234
 20
254.25
 30
0.0
 10
96.78899383544922
 20
251.4510040283203
 30
0.0
 10
107.0509948730469
 20
244.9210052490234
 30
0.0
 10
106.1189956665039
 20
236.5249938964844
 30
0.0
 10
105.1859970092773
 20
225.3299865722656
 30
0.0
 10
93.05799865722656
 20
223.4639892578125
 30
0.0
 10
85.5949935913086
 20
218.7999877929688
 30
0.0
 10
83.72899627685547
 20
217.8669891357422
 30
0.0
 10
83.72899627685547
 20
215.0679931640625
 30
0.0
 10
85.5949935913086
 20
213.2029876708984
 30
0.0
 10
93.05799102783203
 20
208.5379943847656
 30
0.0
 10
105.1859893798828
 20
206.6729888916016
 30
0.0
 10
106.1189956665039
 20
195.4779815673828
 30
0.0
 10
107.0519943237305
 20
187.0819854736328
 30
0.0
 10
96.78999328613281
 20
180.5509796142578
 30
0.0
 10
90.25899505615234
 20
177.7529754638672
 30
0.0
 10
49.21099853515625
 20
163.7569885253906
 30
0.0
 10
28.6870002746582
 20
207.60400390625
 30
0.0
 10
16.55900001525879
 20
214.1340026855469
 30
0.0
  0
SPLINE
  5
53
330
1F
100
AcDbEntity
  8
_U+0421_U+043B_U+043E_U+0439 1
 62
     1
420
 16711680
370
     9
100
AcDbSpline
210
0.0
220
0.0
230
1.0
 70
    11
 71
     3
 72
    29
 73
    25
 74
     0
 42
0.0000000001
 43
0.0000000001
 12
1.0
 22
0.0
 32
0.0
 13
1.0
 23
0.0
 33
0.0
 40
0.0
 40
0.0
 40
0.0
 40
0.0
 40
1.0
 40
1.0
 40
1.0
 40
2.0
 40
2.0
 40
2.0
 40
3.0
 40
3.0
 40
3.0
 40
4.0
 40
4.0
 40
4.0
 40
5.0
 40
5.0
 40
5.0
 40
6.0
 40
6.0
 40
6.0
 40
7.0
 40
7.0
 40
7.0
 40
8.0
 40
8.0
 40
8.0
 40
8.0
 10
79.06400299072266
 20
346.6080017089844
 30
0.0
 10
78.1310043334961
 20
348.4739990234375
 30
0.0
 10
79.06400299072266
 20
349.4070053100586
 30
0.0
 10
81.86300659179688
 20
349.4070053100586
 30
0.0
 10
95.85700988769531
 20
345.6750030517578
 30
0.0
 10
140.6360015869141
 20
362.4680023193359
 30
0.0
 10
159.2950134277344
 20
323.2850036621094
 30
0.0
 10
162.0940093994141
 20
316.7550048828125
 30
0.0
 10
164.8920135498047
 20
304.6269989013672
 30
0.0
 10
158.3620147705078
 20
299.0290069580078
 30
0.0
 10
149.9660186767578
 20
291.5660095214844
 30
0.0
 10
139.7040100097656
 20
299.0290069580078
 30
0.0
 10
131.3080139160156
 20
300.8950042724609
 30
0.0
 10
129.4420166015625
 20
301.8280029296875
 30
0.0
 10
126.6430130004883
 20
299.0290069580078
 30
0.0
 10
127.5760116577148
 20
297.1630096435547
 30
0.0
 10
129.4420166015625
 20
289.7000122070312
 30
0.0
 10
136.9050140380859
 20
278.5050048828125
 30
0.0
 10
129.4420166015625
 20
270.1090087890625
 30
0.0
 10
123.8450164794922
 20
263.5790100097656
 30
0.0
 10
112.650016784668
 20
266.3770141601562
 30
0.0
 10
105.1860198974609
 20
269.1760101318359
 30
0.0
 10
66.00399780273438
 20
287.8339996337891
 30
0.0
 10
82.7959976196289
 20
332.6139984130859
 30
0.0
 10
79.06400299072266
 20
346.6080017089844
 30
0.0
  0
SPLINE
  5
54
330
1F
100
AcDbEntity
  8
_U+0421_U+043B_U+043E_U+0439 1
 62
     1
420
 16711680
370
     9
100
AcDbSpline
210
0.0
220
0.0
230
1.0
 70
    11
 71
     3
 72
    29
 73
    25
 74
     0
 42
0.0000000001
 43
0.0000000001
 12
1.0
 22
0.0
 32
0.0
 13
1.0
 23
0.0
 33
0.0
 40
0.0
 40
0.0
 40
0.0
 40
0.0
 40
1.0
 40
1.0
 40
1.0
 40
2.0
 40
2.0
 40
2.0
 40
3.0
 40
3.0
 40
3.0
 40
4.0
 40
4.0
 40
4.0
 40
5.0
 40
5.0
 40
5.0
 40
6.0
 40
6.0
 40
6.0
 40
7.0
 40
7.0
 40
7.0
 40
8.0
 40
8.0
 40
8.0
 40
8.0
 10
211.5379943847656
 20
411.9120006561279
 30
0.0
 10
212.4709930419922
 20
413.7779998779297
 30
0.0
 10
214.3369903564453
 20
413.7779998779297
 30
0.0
 10
215.2699890136719
 20
411.9120006561279
 30
0.0
 10
222.7329864501953
 20
398.851001739502
 30
0.0
 10
266.5799865722656
 20
380.193000793457
 30
0.0
 10
250.7209930419922
 20
338.2120056152344
 30
0.0
 10
247.9219970703125
 20
331.6820068359375
 30
0.0
 10
241.3919982910156
 20
321.4200057983398
 30
0.0
 10
232.9959869384766
 20
322.3520050048828
 30
0.0
 10
221.8009948730469
 20
323.2850036621094
 30
0.0
 10
219.0019836425781
 20
336.3460083007812
 30
0.0
 10
215.2709808349609
 20
342.8760070800781
 30
0.0
 10
214.3379821777344
 20
344.7420043945312
 30
0.0
 10
211.5389862060547
 20
344.7420043945312
 30
0.0
 10
209.6739807128906
 20
342.8760070800781
 30
0.0
 10
205.0089874267578
 20
336.3460083007812
 30
0.0
 10
203.1439819335938
 20
323.2850036621094
 30
0.0
 10
191.948974609375
 20
322.3520050048828
 30
0.0
 10
183.552978515625
 20
322.3520050048828
 30
0.0
 10
177.02197265625
 20
331.6810073852539
 30
0.0
 10
174.2239685058594
 20
338.2120056152344
 30
0.0
 10
160.2279968261719
 20
380.193000793457
 30
0.0
 10
203.1419982910156
 20
399.7840003967285
 30
0.0
 10
211.5379943847656
 20
411.9120006561279
 30
0.0
  0
SPLINE
  5
55
330
1F
100
AcDbEntity
  8
_U+0421_U+043B_U+043E_U+0439 1
 62
     1
420
 16711680
370
     9
100
AcDbSpline
210
0.0
220
0.0
230
1.0
 70
    11
 71
     3
 72
    29
 73
    25
 74
     0
 42
0.0000000001
 43
0.0000000001
 12
1.0
 22
0.0
 32
0.0
 13
1.0
 23
0.0
 33
0.0
 40
0.0
 40
0.0
 40
0.0
 40
0.0
 40
1.0
 40
1.0
 40
1.0
 40
2.0
 40
2.0
 40
2.0
 40
3.0
 40
3.0
 40
3.0
 40
4.0
 40
4.0
 40
4.0
 40
5.0
 40
5.0
 40
5.0
 40
6.0
 40
6.0
 40
6.0
 40
7.0
 40
7.0
 40
7.0
 40
8.0
 40
8.0
 40
8.0
 40
8.0
 10
344.010986328125
 20
349.4059982299805
 30
0.0
 10
345.8769836425781
 20
350.338996887207
 30
0.0
 10
346.8099975585938
 20
349.4059982299805
 30
0.0
 10
346.8099975585938
 20
346.6069946289062
 30
0.0
 10
343.0780029296875
 20
332.6129913330078
 30
0.0
 10
359.8710021972656
 20
287.8339996337891
 30
0.0
 10
319.7559814453125
 20
269.1749877929688
 30
0.0
 10
313.2259826660156
 20
266.3759918212891
 30
0.0
 10
301.0979919433594
 20
263.5779876708984
 30
0.0
 10
295.4999694824219
 20
270.1079864501953
 30
0.0
 10
288.0369567871094
 20
278.5039825439453
 30
0.0
 10
295.4999694824219
 20
289.6989898681641
 30
0.0
 10
297.365966796875
 20
297.1619873046875
 30
0.0
 10
298.2989807128906
 20
299.0279846191406
 30
0.0
 10
295.4999694824219
 20
301.8269805908203
 30
0.0
 10
293.6339721679688
 20
300.8939819335938
 30
0.0
 10
285.2379760742188
 20
299.0279846191406
 30
0.0
 10
274.9759826660156
 20
291.5649871826172
 30
0.0
 10
266.5799560546875
 20
299.0279846191406
 30
0.0
 10
260.0499572753906
 20
304.6249847412109
 30
0.0
 10
262.8479614257812
 20
316.7529830932617
 30
0.0
 10
265.6469421386719
 20
323.2839813232422
 30
0.0
 10
285.2380065917969
 20
362.4670028686523
 30
0.0
 10
330.0180053710938
 20
345.6750030517578
 30
0.0
 10
344.010986328125
 20
349.4059982299805
 30
0.0
  0
SPLINE
  5
56
330
1F
100
AcDbEntity
  8
_U+0421_U+043B_U+043E_U+0439 1
 62
    28
420
  1444353
370
     9
100
AcDbSpline
210
0.0
220
0.0
230
1.0
 70
    11
 71
     3
 72
    11
 73
     7
 74
     0
 42
0.0000000001
 43
0.0000000001
 12
1.0
 22
0.0
 32
0.0
 13
1.0
 23
0.0
 33
0.0
 40
0.0
 40
0.0
 40
0.0
 40
0.0
 40
1.0
 40
1.0
 40
1.0
 40
2.0
 40
2.0
 40
2.0
 40
2.0
 10
1085.213989257812
 20
283.0959930419922
 30
0.0
 10
1081.974975585938
 20
283.0959930419922
 30
0.0
 10
1081.969970703125
 20
288.0
 30
0.0
 10
1085.213989257812
 20
288.0
 30
0.0
 10
1088.453002929688
 20
288.0
 30
0.0
 10
1088.4580078125
 20
283.0959930419922
 30
0.0
 10
1085.213989257812
 20
283.0959930419922
 30
0.0
  0
SPLINE
  5
57
330
1F
100
AcDbEntity
  8
_U+0421_U+043B_U+043E_U+0439 1
 62
    28
420
  1444353
370
     9
100
AcDbSpline
210
0.0
220
0.0
230
1.0
 70
    11
 71
     3
 72
    11
 73
     7
 74
     0
 42
0.0000000001
 43
0.0000000001
 12
1.0
 22
0.0
 32
0.0
 13
1.0
 23
0.0
 33
0.0
 40
0.0
 40
0.0
 40
0.0
 40
0.0
 40
1.0
 40
1.0
 40
1.0
 40
2.0
 40
2.0
 40
2.0
 40
2.0
 10
1048.316040039062
 20
275.0050048828125
 30
0.0
 10
1049.939086914062
 20
272.1940002441406
 30
0.0
 10
1054.182006835938
 20
274.6520080566406
 30
0.0
 10
1052.56298828125
 20
277.4570007324219
 30
0.0
 10
1050.942993164062
 20
280.2619934082031
 30
0.0
 10
1046.694946289062
 20
277.8130035400391
 30
0.0
 10
1048.316040039062
 20
275.0050048828125
 30
0.0
  0
SPLINE
  5
58
330
1F
100
AcDbEntity
  8
_U+0421_U+043B_U+043E_U+0439 1
 62
    28
420
  1444353
370
     9
100
AcDbSpline
210
0.0
220
0.0
230
1.0
 70
    11
 71
     3
 72
    11
 73
     7
 74
     0
 42
0.0000000001
 43
0.0000000001
 12
1.0
 22
0.0
 32
0.0
 13
1.0
 23
0.0
 33
0.0
 40
0.0
 40
0.0
 40
0.0
 40
0.0
 40
1.0
 40
1.0
 40
1.0
 40
2.0
 40
2.0
 40
2.0
 40
2.0
 10
1022.859985351562
 20
252.0
 30
0.0
 10
1021.236999511719
 20
249.1889953613281
 30
0.0
 10
1025.488037109375
 20
246.7440032958984
 30
0.0
 10
1027.10693359375
 20
249.5480041503906
 30
0.0
 10
1028.72705078125
 20
252.35400390625
 30
0.0
 10
1024.482055664062
 20
254.8090057373047
 30
0.0
 10
1022.859985351562
 20
252.0
 30
0.0
  0
SPLINE
  5
59
330
1F
100
AcDbEntity
  8
_U+0421_U+043B_U+043E_U+0439 1
 62
    28
420
  1444353
370
     9
100
AcDbSpline
210
0.0
220
0.0
230
1.0
 70
    11
 71
     3
 72
    11
 73
     7
 74
     0
 42
0.0000000001
 43
0.0000000001
 12
1.0
 22
0.0
 32
0.0
 13
1.0
 23
0.0
 33
0.0
 40
0.0
 40
0.0
 40
0.0
 40
0.0
 40
1.0
 40
1.0
 40
1.0
 40
2.0
 40
2.0
 40
2.0
 40
2.0
 10
1013.213989257812
 20
216.0
 30
0.0
 10
1013.213989257812
 20
212.7599945068359
 30
0.0
 10
1018.117980957031
 20
212.7570037841797
 30
0.0
 10
1018.117980957031
 20
216.0
 30
0.0
 10
1018.117004394531
 20
219.2400054931641
 30
0.0
 10
1013.213989257812
 20
219.2429962158203
 30
0.0
 10
1013.213989257812
 20
216.0
 30
0.0
  0
SPLINE
  5
5A
330
1F
100
AcDbEntity
  8
_U+0421_U+043B_U+043E_U+0439 1
 62
    28
420
  1444353
370
     9
100
AcDbSpline
210
0.0
220
0.0
230
1.0
 70
    11
 71
     3
 72
    11
 73
     7
 74
     0
 42
0.0000000001
 43
0.0000000001
 12
1.0
 22
0.0
 32
0.0
 13
1.0
 23
0.0
 33
0.0
 40
0.0
 40
0.0
 40
0.0
 40
0.0
 40
1.0
 40
1.0
 40
1.0
 40
2.0
 40
2.0
 40
2.0
 40
2.0
 10
1022.859985351562
 20
180.0
 30
0.0
 10
1024.47998046875
 20
177.1950073242188
 30
0.0
 10
1028.72900390625
 20
179.6419982910156
 30
0.0
 10
1027.10693359375
 20
182.4519958496094
 30
0.0
 10
1025.487060546875
 20
185.2579956054688
 30
0.0
 10
1021.237976074219
 20
182.8090057373047
 30
0.0
 10
1022.859985351562
 20
180.0
 30
0.0
  0
SPLINE
  5
5B
330
1F
100
AcDbEntity
  8
_U+0421_U+043B_U+043E_U+0439 1
 62
    28
420
  1444353
370
     9
100
AcDbSpline
210
0.0
220
0.0
230
1.0
 70
    11
 71
     3
 72
    11
 73
     7
 74
     0
 42
0.0000000001
 43
0.0000000001
 12
1.0
 22
0.0
 32
0.0
 13
1.0
 23
0.0
 33
0.0
 40
0.0
 40
0.0
 40
0.0
 40
0.0
 40
1.0
 40
1.0
 40
1.0
 40
2.0
 40
2.0
 40
2.0
 40
2.0
 10
1048.316040039062
 20
156.9949951171875
 30
0.0
 10
1046.696044921875
 20
154.1900024414062
 30
0.0
 10
1050.941040039062
 20
151.7340087890625
 30
0.0
 10
1052.56298828125
 20
154.5429992675781
 30
0.0
 10
1054.182983398438
 20
157.3489990234375
 30
0.0
 10
1049.93798828125
 20
159.8049926757812
 30
0.0
 10
1048.316040039062
 20
156.9949951171875
 30
0.0
  0
SPLINE
  5
5C
330
1F
100
AcDbEntity
  8
_U+0421_U+043B_U+043E_U+0439 1
 62
    28
420
  1444353
370
     9
100
AcDbSpline
210
0.0
220
0.0
230
1.0
 70
    11
 71
     3
 72
    11
 73
     7
 74
     0
 42
0.0000000001
 43
0.0000000001
 12
1.0
 22
0.0
 32
0.0
 13
1.0
 23
0.0
 33
0.0
 40
0.0
 40
0.0
 40
0.0
 40
0.0
 40
1.0
 40
1.0
 40
1.0
 40
2.0
 40
2.0
 40
2.0
 40
2.0
 10
1082.761962890625
 20
146.4519958496094
 30
0.0
 10
1082.761962890625
 20
143.2120056152344
 30
0.0
 10
1087.666015625
 20
143.208984375
 30
0.0
 10
1087.666015625
 20
146.4519958496094
 30
0.0
 10
1087.666015625
 20
149.6919860839844
 30
0.0
 10
1082.761962890625
 20
149.6950073242188
 30
0.0
 10
1082.761962890625
 20
146.4519958496094
 30
0.0
  0
SPLINE
  5
5D
330
1F
100
AcDbEntity
  8
_U+0421_U+043B_U+043E_U+0439 1
 62
    28
420
  1444353
370
     9
100
AcDbSpline
210
0.0
220
0.0
230
1.0
 70
    11
 71
     3
 72
    11
 73
     7
 74
     0
 42
0.0000000001
 43
0.0000000001
 12
1.0
 22
0.0
 32
0.0
 13
1.0
 23
0.0
 33
0.0
 40
0.0
 40
0.0
 40
0.0
 40
0.0
 40
1.0
 40
1.0
 40
1.0
 40
2.0
 40
2.0
 40
2.0
 40
2.0
 10
1118.761962890625
 20
157.8930053710938
 30
0.0
 10
1115.950927734375
 20
156.27001953125
 30
0.0
 10
1118.408935546875
 20
152.0270080566406
 30
0.0
 10
1121.213989257812
 20
153.64599609375
 30
0.0
 10
1124.01904296875
 20
155.2659912109375
 30
0.0
 10
1121.572021484375
 20
159.5150146484375
 30
0.0
 10
1118.761962890625
 20
157.8930053710938
 30
0.0
  0
SPLINE
  5
5E
330
1F
100
AcDbEntity
  8
_U+0421_U+043B_U+043E_U+0439 1
 62
    28
420
  1444353
370
     9
100
AcDbSpline
210
0.0
220
0.0
230
1.0
 70
    11
 71
     3
 72
    11
 73
     7
 74
     0
 42
0.0000000001
 43
0.0000000001
 12
1.0
 22
0.0
 32
0.0
 13
1.0
 23
0.0
 33
0.0
 40
0.0
 40
0.0
 40
0.0
 40
0.0
 40
1.0
 40
1.0
 40
1.0
 40
2.0
 40
2.0
 40
2.0
 40
2.0
 10
1143.321044921875
 20
182.4519958496094
 30
0.0
 10
1141.701049804688
 20
179.64599609375
 30
0.0
 10
1145.946044921875
 20
177.1909942626953
 30
0.0
 10
1147.567993164062
 20
180.0
 30
0.0
 10
1149.191040039062
 20
182.8110046386719
 30
0.0
 10
1144.93994140625
 20
185.2559967041016
 30
0.0
 10
1143.321044921875
 20
182.4519958496094
 30
0.0
  0
SPLINE
  5
5F
330
1F
100
AcDbEntity
  8
_U+0421_U+043B_U+043E_U+0439 1
 62
    28
420
  1444353
370
     9
100
AcDbSpline
210
0.0
220
0.0
230
1.0
 70
    11
 71
     3
 72
    11
 73
     7
 74
     0
 42
0.0000000001
 43
0.0000000001
 12
1.0
 22
0.0
 32
0.0
 13
1.0
 23
0.0
 33
0.0
 40
0.0
 40
0.0
 40
0.0
 40
0.0
 40
1.0
 40
1.0
 40
1.0
 40
2.0
 40
2.0
 40
2.0
 40
2.0
 10
1152.31005859375
 20
216.0
 30
0.0
 10
1152.31005859375
 20
212.7599945068359
 30
0.0
 10
1157.214111328125
 20
212.7570037841797
 30
0.0
 10
1157.214111328125
 20
216.0
 30
0.0
 10
1157.213989257812
 20
219.2400054931641
 30
0.0
 10
1152.31005859375
 20
219.2429962158203
 30
0.0
 10
1152.31005859375
 20
216.0
 30
0.0
  0
SPLINE
  5
60
330
1F
100
AcDbEntity
  8
_U+0421_U+043B_U+043E_U+0439 1
 62
    28
420
  1444353
370
     9
100
AcDbSpline
210
0.0
220
0.0
230
1.0
 70
    11
 71
     3
 72
    11
 73
     7
 74
     0
 42
0.0000000001
 43
0.0000000001
 12
1.0
 22
0.0
 32
0.0
 13
1.0
 23
0.0
 33
0.0
 40
0.0
 40
0.0
 40
0.0
 40
0.0
 40
1.0
 40
1.0
 40
1.0
 40
2.0
 40
2.0
 40
2.0
 40
2.0
 10
1143.321044921875
 20
249.5480041503906
 30
0.0
 10
1144.941040039062
 20
246.7420043945312
 30
0.0
 10
1149.189086914062
 20
249.1910095214844
 30
0.0
 10
1147.567993164062
 20
252.0
 30
0.0
 10
1145.947998046875
 20
254.8059997558594
 30
0.0
 10
1141.699951171875
 20
252.3569946289062
 30
0.0
 10
1143.321044921875
 20
249.5480041503906
 30
0.0
  0
SPLINE
  5
61
330
1F
100
AcDbEntity
  8
_U+0421_U+043B_U+043E_U+0439 1
 62
    28
420
  1444353
370
     9
100
AcDbSpline
210
0.0
220
0.0
230
1.0
 70
    11
 71
     3
 72
    11
 73
     7
 74
     0
 42
0.0000000001
 43
0.0000000001
 12
1.0
 22
0.0
 32
0.0
 13
1.0
 23
0.0
 33
0.0
 40
0.0
 40
0.0
 40
0.0
 40
0.0
 40
1.0
 40
1.0
 40
1.0
 40
2.0
 40
2.0
 40
2.0
 40
2.0
 10
1117.864990234375
 20
277.4559936523438
 30
0.0
 10
1116.244995117188
 20
274.6499938964844
 30
0.0
 10
1120.489990234375
 20
272.1949920654297
 30
0.0
 10
1122.111938476562
 20
275.0039978027344
 30
0.0
 10
1123.73095703125
 20
277.8099975585938
 30
0.0
 10
1119.487060546875
 20
280.2660064697266
 30
0.0
 10
1117.864990234375
 20
277.4559936523438
 30
0.0
  0
SPLINE
  5
62
330
1F
100
AcDbEntity
  8
_U+0421_U+043B_U+043E_U+0439 1
 62
    28
420
  1444353
370
     9
100
AcDbSpline
210
0.0
220
0.0
230
1.0
 70
    11
 71
     3
 72
    17
 73
    13
 74
     0
 42
0.0000000001
 43
0.0000000001
 12
1.0
 22
0.0
 32
0.0
 13
1.0
 23
0.0
 33
0.0
 40
0.0
 40
0.0
 40
0.0
 40
0.0
 40
1.0
 40
1.0
 40
1.0
 40
2.0
 40
2.0
 40
2.0
 40
3.0
 40
3.0
 40
3.0
 40
4.0
 40
4.0
 40
4.0
 40
4.0
 10
1086.630981445312
 20
216.0
 30
0.0
 10
1086.630981445312
 20
216.7830047607422
 30
0.0
 10
1085.995971679688
 20
217.4170074462891
 30
0.0
 10
1085.213989257812
 20
217.4170074462891
 30
0.0
 10
1084.432006835938
 20
217.4170074462891
 30
0.0
 10
1083.796997070312
 20
216.7820129394531
 30
0.0
 10
1083.796997070312
 20
216.0
 30
0.0
 10
1083.796997070312
 20
215.2179870605469
 30
0.0
 10
1084.432006835938
 20
214.5829925537109
 30
0.0
 10
1085.213989257812
 20
214.5829925537109
 30
0.0
 10
1085.995971679688
 20
214.5829925537109
 30
0.0
 10
1086.630981445312
 20
215.2169952392578
 30
0.0
 10
1086.630981445312
 20
216.0
 30
0.0
  0
ENDSEC
  0
SECTION
  2
OBJECTS
  0
DICTIONARY
  5
C
330
0
100
AcDbDictionary
281
     1
  3
ACAD_GROUP
350
D
  3
ACAD_LAYOUT
350
1A
  3
ACAD_MATERIAL
350
3B
  3
ACAD_MLEADERSTYLE
350
64
  3
ACAD_MLINESTYLE
350
17
  3
ACAD_PLOTSETTINGS
350
19
  3
ACAD_PLOTSTYLENAME
350
E
  3
ACAD_TABLESTYLE
350
63
  3
ACAD_VISUALSTYLE
350
2A
  0
SUN
  5
3F
330
29
100
AcDbSun
 90
        1
290
     0
 63
     7
421
 16777215
 40
1.0
291
     1
 91
  2455826
 92
 54000000
292
     0
 70
     2
 71
   256
280
     1
  0
DICTIONARY
  5
D
102
{ACAD_REACTORS
330
C
102
}
330
C
100
AcDbDictionary
281
     1
  0
DICTIONARY
  5
1A
102
{ACAD_REACTORS
330
C
102
}
330
C
100
AcDbDictionary
281
     1
  3
Layout1
350
1E
  3
Layout2
350
26
  3
Model
350
22
  0
DICTIONARY
  5
3B
102
{ACAD_REACTORS
330
C
102
}
330
C
100
AcDbDictionary
281
     1
  3
ByBlock
350
3D
  3
ByLayer
350
3C
  3
Global
350
3E
  0
DICTIONARY
  5
64
102
{ACAD_REACTORS
330
C
102
}
330
C
100
AcDbDictionary
281
     1
  0
DICTIONARY
  5
17
102
{ACAD_REACTORS
330
C
102
}
330
C
100
AcDbDictionary
281
     1
  3
Standard
350
18
  0
DICTIONARY
  5
19
102
{ACAD_REACTORS
330
C
102
}
330
C
100
AcDbDictionary
281
     1
  0
ACDBDICTIONARYWDFLT
  5
E
102
{ACAD_REACTORS
330
C
102
}
330
C
100
AcDbDictionary
281
     1
  3
Normal
350
F
100
AcDbDictionaryWithDefault
340
F
  0
DICTIONARY
  5
63
102
{ACAD_REACTORS
330
C
102
}
330
C
100
AcDbDictionary
281
     1
  0
DICTIONARY
  5
2A
102
{ACAD_REACTORS
330
C
102
}
330
C
100
AcDbDictionary
281
     1
  3
2dWireframe
350
2F
  3
3D Hidden
350
31
  3
3dWireframe
350
30
  3
Basic
350
32
  3
Brighten
350
36
  3
ColorChange
350
3A
  3
Conceptual
350
34
  3
Dim
350
35
  3
Facepattern
350
39
  3
Flat
350
2B
  3
FlatWithEdges
350
2C
  3
Gouraud
350
2D
  3
GouraudWithEdges
350
2E
  3
Linepattern
350
38
  3
Realistic
350
33
  3
Thicken
350
37
  0
LAYOUT
  5
1E
102
{ACAD_REACTORS
330
1A
102
}
330
1A
100
AcDbPlotSettings
  1

  2
none_device
  4

  6

 40
0.0
 41
0.0
 42
0.0
 43
0.0
 44
0.0
 45
0.0
 46
0.0
 47
0.0
 48
0.0
 49
0.0
140
0.0
141
0.0
142
1.0
143
1.0
 70
   688
 72
     0
 73
     0
 74
     5
  7

 75
    16
 76
     0
 77
     2
 78
   300
147
1.0
148
0.0
149
0.0
100
AcDbLayout
  1
Layout1
 70
     1
 71
     1
 10
0.0
 20
0.0
 11
12.0
 21
9.0
 12
0.0
 22
0.0
 32
0.0
 14
1.000000000000000E+20
 24
1.000000000000000E+20
 34
1.000000000000000E+20
 15
-1.000000000000000E+20
 25
-1.000000000000000E+20
 35
-1.000000000000000E+20
146
0.0
 13
0.0
 23
0.0
 33
0.0
 16
1.0
 26
0.0
 36
0.0
 17
0.0
 27
1.0
 37
0.0
 76
     0
330
1B
  0
LAYOUT
  5
26
102
{ACAD_REACTORS
330
1A
102
}
330
1A
100
AcDbPlotSettings
  1

  2
none_device
  4

  6

 40
0.0
 41
0.0
 42
0.0
 43
0.0
 44
0.0
 45
0.0
 46
0.0
 47
0.0
 48
0.0
 49
0.0
140
0.0
141
0.0
142
1.0
143
1.0
 70
   688
 72
     0
 73
     0
 74
     5
  7

 75
    16
 76
     0
 77
     2
 78
   300
147
1.0
148
0.0
149
0.0
100
AcDbLayout
  1
Layout2
 70
     1
 71
     2
 10
0.0
 20
0.0
 11
0.0
 21
0.0
 12
0.0
 22
0.0
 32
0.0
 14
0.0
 24
0.0
 34
0.0
 15
0.0
 25
0.0
 35
0.0
146
0.0
 13
0.0
 23
0.0
 33
0.0
 16
1.0
 26
0.0
 36
0.0
 17
0.0
 27
1.0
 37
0.0
 76
     0
330
23
  0
LAYOUT
  5
22
102
{ACAD_REACTORS
330
1A
102
}
330
1A
100
AcDbPlotSettings
  1

  2
none_device
  4

  6

 40
0.0
 41
0.0
 42
0.0
 43
0.0
 44
0.0
 45
0.0
 46
0.0
 47
0.0
 48
0.0
 49
0.0
140
0.0
141
0.0
142
1.0
143
1.0
 70
  1712
 72
     0
 73
     0
 74
     0
  7

 75
     0
 76
     0
 77
     2
 78
   300
147
1.0
148
0.0
149
0.0
100
AcDbLayout
  1
Model
 70
     1
 71
     0
 10
0.0
 20
0.0
 11
12.0
 21
9.0
 12
0.0
 22
0.0
 32
0.0
 14
1.000000000000000E+20
 24
1.000000000000000E+20
 34
1.000000000000000E+20
 15
-1.000000000000000E+20
 25
-1.000000000000000E+20
 35
-1.000000000000000E+20
146
0.0
 13
0.0
 23
0.0
 33
0.0
 16
1.0
 26
0.0
 36
0.0
 17
0.0
 27
1.0
 37
0.0
 76
     0
330
1F
331
29
  0
MATERIAL
  5
3D
102
{ACAD_REACTORS
330
3B
102
}
330
3B
100
AcDbMaterial
  1
ByBlock
 72
     1
 94
      127
  0
MATERIAL
  5
3C
102
{ACAD_REACTORS
330
3B
102
}
330
3B
100
AcDbMaterial
  1
ByLayer
 72
     1
 94
      127
  0
MATERIAL
  5
3E
102
{ACAD_REACTORS
330
3B
102
}
330
3B
100
AcDbMaterial
  1
Global
 72
     1
 94
      127
  0
MLINESTYLE
  5
18
102
{ACAD_REACTORS
330
17
102
}
330
17
100
AcDbMlineStyle
  2
Standard
 70
     0
  3

 62
   256
 51
90.0
 52
90.0
 71
     2
 49
0.5
 62
   256
  6
BYLAYER
 49
-0.5
 62
   256
  6
BYLAYER
  0
ACDBPLACEHOLDER
  5
F
102
{ACAD_REACTORS
330
E
102
}
330
E
  0
VISUALSTYLE
  5
2F
102
{ACAD_REACTORS
330
2A
102
}
330
2A
100
AcDbVisualStyle
  2
2dWireframe
 70
     4
177
     2
291
     0
 71
     0
176
     1
 72
     2
176
     1
 73
     0
176
     1
 90
        0
176
     1
 40
-0.6
176
     1
 41
-30.0
176
     1
 62
     5
 63
     7
421
 16777215
176
     1
 74
     1
176
     1
 91
        4
176
     1
 64
     7
176
     1
 65
   257
176
     1
 75
     1
176
     1
175
     1
176
     1
 42
1.0
176
     1
 92
        0
176
     1
 66
   257
176
     1
 43
1.0
176
     1
 76
     1
176
     1
 77
     6
176
     1
 78
     2
176
     1
 67
     7
176
     1
 79
     5
176
     1
170
     0
176
     1
171
     0
176
     1
290
     0
176
     1
 93
        1
176
     1
 44
0.0
176
     1
173
     0
176
     1
  0
VISUALSTYLE
  5
31
102
{ACAD_REACTORS
330
2A
102
}
330
2A
100
AcDbVisualStyle
  2
3D Hidden
 70
     6
177
     2
291
     0
 71
     1
176
     1
 72
     2
176
     1
 73
     2
176
     1
 90
        0
176
     1
 40
-0.6
176
     1
 41
-30.0
176
     1
 62
     5
 63
     7
421
 16777215
176
     1
 74
     2
176
     1
 91
        2
176
     1
 64
     7
176
     1
 65
   257
176
     1
 75
     2
176
     1
175
     1
176
     1
 42
40.0
176
     1
 92
        0
176
     1
 66
   257
176
     1
 43
1.0
176
     1
 76
     1
176
     1
 77
     6
176
     1
 78
     2
176
     1
 67
     7
176
     1
 79
     3
176
     1
170
     0
176
     1
171
     0
176
     1
290
     0
176
     1
 93
        1
176
     1
 44
0.0
176
     1
173
     0
176
     1
  0
VISUALSTYLE
  5
30
102
{ACAD_REACTORS
330
2A
102
}
330
2A
100
AcDbVisualStyle
  2
3dWireframe
 70
     5
177
     2
291
     0
 71
     0
176
     1
 72
     2
176
     1
 73
     0
176
     1
 90
        0
176
     1
 40
-0.6
176
     1
 41
-30.0
176
     1
 62
     5
 63
     7
421
 16777215
176
     1
 74
     1
176
     1
 91
        4
176
     1
 64
     7
176
     1
 65
   257
176
     1
 75
     1
176
     1
175
     1
176
     1
 42
1.0
176
     1
 92
        0
176
     1
 66
   257
176
     1
 43
1.0
176
     1
 76
     1
176
     1
 77
     6
176
     1
 78
     2
176
     1
 67
     7
176
     1
 79
     5
176
     1
170
     0
176
     1
171
     0
176
     1
290
     0
176
     1
 93
        1
176
     1
 44
0.0
176
     1
173
     0
176
     1
  0
VISUALSTYLE
  5
32
102
{ACAD_REACTORS
330
2A
102
}
330
2A
100
AcDbVisualStyle
  2
Basic
 70
     7
177
     2
291
     1
 71
     1
176
     1
 72
     0
176
     1
 73
     1
176
     1
 90
        0
176
     1
 40
-0.6
176
     1
 41
-30.0
176
     1
 62
     5
 63
     7
421
 16777215
176
     1
 74
     0
176
     1
 91
        4
176
     1
 64
     7
176
     1
 65
   257
176
     1
 75
     1
176
     1
175
     1
176
     1
 42
1.0
176
     1
 92
        8
176
     1
 66
     7
176
     1
 43
1.0
176
     1
 76
     1
176
     1
 77
     6
176
     1
 78
     2
176
     1
 67
     7
176
     1
 79
     5
176
     1
170
     0
176
     1
171
     0
176
     1
290
     0
176
     1
 93
        1
176
     1
 44
0.0
176
     1
173
     0
176
     1
  0
VISUALSTYLE
  5
36
102
{ACAD_REACTORS
330
2A
102
}
330
2A
100
AcDbVisualStyle
  2
Brighten
 70
    12
177
     2
291
     1
 71
     2
176
     1
 72
     2
176
     1
 73
     0
176
     1
 90
        0
176
     1
 40
-0.6
176
     1
 41
-30.0
176
     1
 62
     5
 63
     7
421
 16777215
176
     1
 74
     1
176
     1
 91
        4
176
     1
 64
     7
176
     1
 65
   257
176
     1
 75
     1
176
     1
175
     1
176
     1
 42
1.0
176
     1
 92
        8
176
     1
 66
     7
176
     1
 43
1.0
176
     1
 76
     1
176
     1
 77
     6
176
     1
 78
     2
176
     1
 67
     7
176
     1
 79
     5
176
     1
170
     0
176
     1
171
     0
176
     1
290
     0
176
     1
 93
        1
176
     1
 44
50.0
176
     1
173
     0
176
     1
  0
VISUALSTYLE
  5
3A
102
{ACAD_REACTORS
330
2A
102
}
330
2A
100
AcDbVisualStyle
  2
ColorChange
 70
    16
177
     2
291
     1
 71
     2
176
     1
 72
     2
176
     1
 73
     3
176
     1
 90
        0
176
     1
 40
-0.6
176
     1
 41
-30.0
176
     1
 62
     5
 63
     8
421
  8421504
176
     1
 74
     1
176
     1
 91
        4
176
     1
 64
     7
176
     1
 65
   257
176
     1
 75
     1
176
     1
175
     1
176
     1
 42
1.0
176
     1
 92
        8
176
     1
 66
     8
424
  8421504
176
     1
 43
1.0
176
     1
 76
     1
176
     1
 77
     6
176
     1
 78
     2
176
     1
 67
     7
176
     1
 79
     5
176
     1
170
     0
176
     1
171
     0
176
     1
290
     0
176
     1
 93
        1
176
     1
 44
0.0
176
     1
173
     0
176
     1
  0
VISUALSTYLE
  5
34
102
{ACAD_REACTORS
330
2A
102
}
330
2A
100
AcDbVisualStyle
  2
Conceptual
 70
     9
177
     2
291
     0
 71
     3
176
     1
 72
     2
176
     1
 73
     0
176
     1
 90
        0
176
     1
 40
-0.6
176
     1
 41
-30.0
176
     1
 62
     5
 63
     7
421
 16777215
176
     1
 74
     2
176
     1
 91
        2
176
     1
 64
     7
176
     1
 65
   257
176
     1
 75
     1
176
     1
175
     1
176
     1
 42
40.0
176
     1
 92
        8
176
     1
 66
     7
176
     1
 43
1.0
176
     1
 76
     1
176
     1
 77
     6
176
     1
 78
     2
176
     1
 67
     7
176
     1
 79
     3
176
     1
170
     0
176
     1
171
     0
176
     1
290
     0
176
     1
 93
        1
176
     1
 44
0.0
176
     1
173
     0
176
     1
  0
VISUALSTYLE
  5
35
102
{ACAD_REACTORS
330
2A
102
}
330
2A
100
AcDbVisualStyle
  2
Dim
 70
    11
177
     2
291
     1
 71
     2
176
     1
 72
     2
176
     1
 73
     0
176
     1
 90
        0
176
     1
 40
-0.6
176
     1
 41
-30.0
176
     1
 62
     5
 63
     7
421
 16777215
176
     1
 74
     1
176
     1
 91
        4
176
     1
 64
     7
176
     1
 65
   257
176
     1
 75
     1
176
     1
175
     1
176
     1
 42
1.0
176
     1
 92
        8
176
     1
 66
     7
176
     1
 43
1.0
176
     1
 76
     1
176
     1
 77
     6
176
     1
 78
     2
176
     1
 67
     7
176
     1
 79
     5
176
     1
170
     0
176
     1
171
     0
176
     1
290
     0
176
     1
 93
        1
176
     1
 44
-50.0
176
     1
173
     0
176
     1
  0
VISUALSTYLE
  5
39
102
{ACAD_REACTORS
330
2A
102
}
330
2A
100
AcDbVisualStyle
  2
Facepattern
 70
    15
177
     2
291
     1
 71
     2
176
     1
 72
     2
176
     1
 73
     0
176
     1
 90
        0
176
     1
 40
-0.6
176
     1
 41
-30.0
176
     1
 62
     5
 63
     7
421
 16777215
176
     1
 74
     1
176
     1
 91
        4
176
     1
 64
     7
176
     1
 65
   257
176
     1
 75
     1
176
     1
175
     1
176
     1
 42
1.0
176
     1
 92
        8
176
     1
 66
     7
176
     1
 43
1.0
176
     1
 76
     1
176
     1
 77
     6
176
     1
 78
     2
176
     1
 67
     7
176
     1
 79
     5
176
     1
170
     0
176
     1
171
     0
176
     1
290
     0
176
     1
 93
        1
176
     1
 44
0.0
176
     1
173
     0
176
     1
  0
VISUALSTYLE
  5
2B
102
{ACAD_REACTORS
330
2A
102
}
330
2A
100
AcDbVisualStyle
  2
Flat
 70
     0
177
     2
291
     1
 71
     2
176
     1
 72
     1
176
     1
 73
     1
176
     1
 90
        2
176
     1
 40
-0.6
176
     1
 41
30.0
176
     1
 62
     5
 63
     7
421
 16777215
176
     1
 74
     0
176
     1
 91
        4
176
     1
 64
     7
176
     1
 65
   257
176
     1
 75
     1
176
     1
175
     1
176
     1
 42
1.0
176
     1
 92
        8
176
     1
 66
     7
176
     1
 43
1.0
176
     1
 76
     1
176
     1
 77
     6
176
     1
 78
     2
176
     1
 67
     7
176
     1
 79
     5
176
     1
170
     0
176
     1
171
     0
176
     1
290
     0
176
     1
 93
       13
176
     1
 44
0.0
176
     1
173
     0
176
     1
  0
VISUALSTYLE
  5
2C
102
{ACAD_REACTORS
330
2A
102
}
330
2A
100
AcDbVisualStyle
  2
FlatWithEdges
 70
     1
177
     2
291
     1
 71
     2
176
     1
 72
     1
176
     1
 73
     1
176
     1
 90
        2
176
     1
 40
-0.6
176
     1
 41
30.0
176
     1
 62
     5
 63
     7
421
 16777215
176
     1
 74
     1
176
     1
 91
        4
176
     1
 64
     7
176
     1
 65
   257
176
     1
 75
     1
176
     1
175
     1
176
     1
 42
1.0
176
     1
 92
        0
176
     1
 66
   257
176
     1
 43
1.0
176
     1
 76
     1
176
     1
 77
     6
176
     1
 78
     2
176
     1
 67
     7
176
     1
 79
     5
176
     1
170
     0
176
     1
171
     0
176
     1
290
     0
176
     1
 93
       13
176
     1
 44
0.0
176
     1
173
     0
176
     1
  0
VISUALSTYLE
  5
2D
102
{ACAD_REACTORS
330
2A
102
}
330
2A
100
AcDbVisualStyle
  2
Gouraud
 70
     2
177
     2
291
     1
 71
     2
176
     1
 72
     2
176
     1
 73
     1
176
     1
 90
        2
176
     1
 40
-0.6
176
     1
 41
30.0
176
     1
 62
     5
 63
     7
421
 16777215
176
     1
 74
     0
176
     1
 91
        4
176
     1
 64
     7
176
     1
 65
   257
176
     1
 75
     1
176
     1
175
     1
176
     1
 42
1.0
176
     1
 92
        0
176
     1
 66
     7
176
     1
 43
1.0
176
     1
 76
     1
176
     1
 77
     6
176
     1
 78
     2
176
     1
 67
     7
176
     1
 79
     5
176
     1
170
     0
176
     1
171
     0
176
     1
290
     0
176
     1
 93
       13
176
     1
 44
0.0
176
     1
173
     0
176
     1
  0
VISUALSTYLE
  5
2E
102
{ACAD_REACTORS
330
2A
102
}
330
2A
100
AcDbVisualStyle
  2
GouraudWithEdges
 70
     3
177
     2
291
     1
 71
     2
176
     1
 72
     2
176
     1
 73
     1
176
     1
 90
        2
176
     1
 40
-0.6
176
     1
 41
30.0
176
     1
 62
     5
 63
     7
421
 16777215
176
     1
 74
     1
176
     1
 91
        4
176
     1
 64
     7
176
     1
 65
   257
176
     1
 75
     1
176
     1
175
     1
176
     1
 42
1.0
176
     1
 92
        0
176
     1
 66
   257
176
     1
 43
1.0
176
     1
 76
     1
176
     1
 77
     6
176
     1
 78
     2
176
     1
 67
     7
176
     1
 79
     5
176
     1
170
     0
176
     1
171
     0
176
     1
290
     0
176
     1
 93
       13
176
     1
 44
0.0
176
     1
173
     0
176
     1
  0
VISUALSTYLE
  5
38
102
{ACAD_REACTORS
330
2A
102
}
330
2A
100
AcDbVisualStyle
  2
Linepattern
 70
    14
177
     2
291
     1
 71
     2
176
     1
 72
     2
176
     1
 73
     0
176
     1
 90
        0
176
     1
 40
-0.6
176
     1
 41
-30.0
176
     1
 62
     5
 63
     7
421
 16777215
176
     1
 74
     1
176
     1
 91
        4
176
     1
 64
     7
176
     1
 65
   257
176
     1
 75
     7
176
     1
175
     7
176
     1
 42
1.0
176
     1
 92
        8
176
     1
 66
     7
176
     1
 43
1.0
176
     1
 76
     1
176
     1
 77
     6
176
     1
 78
     2
176
     1
 67
     7
176
     1
 79
     5
176
     1
170
     0
176
     1
171
     0
176
     1
290
     0
176
     1
 93
        1
176
     1
 44
0.0
176
     1
173
     0
176
     1
  0
VISUALSTYLE
  5
33
102
{ACAD_REACTORS
330
2A
102
}
330
2A
100
AcDbVisualStyle
  2
Realistic
 70
     8
177
     2
291
     0
 71
     2
176
     1
 72
     2
176
     1
 73
     0
176
     1
 90
        0
176
     1
 40
-0.6
176
     1
 41
-30.0
176
     1
 62
     5
 63
     7
421
 16777215
176
     1
 74
     1
176
     1
 91
        0
176
     1
 64
     7
176
     1
 65
   257
176
     1
 75
     1
176
     1
175
     1
176
     1
 42
1.0
176
     1
 92
        8
176
     1
 66
     8
424
  7895160
176
     1
 43
1.0
176
     1
 76
     1
176
     1
 77
     6
176
     1
 78
     2
176
     1
 67
     7
176
     1
 79
     5
176
     1
170
     0
176
     1
171
     0
176
     1
290
     0
176
     1
 93
       13
176
     1
 44
0.0
176
     1
173
     0
176
     1
  0
VISUALSTYLE
  5
37
102
{ACAD_REACTORS
330
2A
102
}
330
2A
100
AcDbVisualStyle
  2
Thicken
 70
    13
177
     2
291
     1
 71
     2
176
     1
 72
     2
176
     1
 73
     0
176
     1
 90
        0
176
     1
 40
-0.6
176
     1
 41
-30.0
176
     1
 62
     5
 63
     7
421
 16777215
176
     1
 74
     1
176
     1
 91
        4
176
     1
 64
     7
176
     1
 65
   257
176
     1
 75
     1
176
     1
175
     1
176
     1
 42
1.0
176
     1
 92
       12
176
     1
 66
     7
176
     1
 43
1.0
176
     1
 76
     1
176
     1
 77
     6
176
     1
 78
     2
176
     1
 67
     7
176
     1
 79
     5
176
     1
170
     0
176
     1
171
     0
176
     1
290
     0
176
     1
 93
        1
176
     1
 44
0.0
176
     1
173
     0
176
     1
  0
ENDSEC
  0
EOF
