  0
SECTION
  2
HEADER
  9
$ACADVER
  1
AC1021
  9
$ACADMAINTVER
 70
    25
  9
$DWGCODEPAGE
  3
ANSI_1252
  9
$INSBASE
 10
0.0
 20
0.0
 30
0.0
  9
$EXTMIN
 10
-11.09071
 20
-5.23668
 30
0.0
  9
$EXTMAX
 10
11.09068
 20
5.23665
 30
0.0
  9
$LIMMIN
 10
0.0
 20
0.0
  9
$LIMMAX
 10
12.0
 20
9.0
  9
$ORTHOMODE
 70
     0
  9
$REGENMODE
 70
     1
  9
$FILLMODE
 70
     1
  9
$QTEXTMODE
 70
     0
  9
$MIRRTEXT
 70
     1
  9
$LTSCALE
 40
1.0
  9
$ATTMODE
 70
     1
  9
$TEXTSIZE
 40
0.2
  9
$TRACEWID
 40
0.05
  9
$TEXTSTYLE
  7
Standard
  9
$CLAYER
  8
0
  9
$CELTYPE
  6
ByLayer
  9
$CECOLOR
 62
   256
  9
$CELTSCALE
 40
1.0
  9
$DISPSILH
 70
     0
  9
$DIMSCALE
 40
1.0
  9
$DIMASZ
 40
0.18
  9
$DIMEXO
 40
0.0625
  9
$DIMDLI
 40
0.38
  9
$DIMRND
 40
0.0
  9
$DIMDLE
 40
0.0
  9
$DIMEXE
 40
0.18
  9
$DIMTP
 40
0.0
  9
$DIMTM
 40
0.0
  9
$DIMTXT
 40
0.18
  9
$DIMCEN
 40
0.09
  9
$DIMTSZ
 40
0.0
  9
$DIMTOL
 70
     0
  9
$DIMLIM
 70
     0
  9
$DIMTIH
 70
     1
  9
$DIMTOH
 70
     1
  9
$DIMSE1
 70
     0
  9
$DIMSE2
 70
     0
  9
$DIMTAD
 70
     0
  9
$DIMZIN
 70
     0
  9
$DIMBLK
  1

  9
$DIMASO
 70
     1
  9
$DIMSHO
 70
     1
  9
$DIMPOST
  1

  9
$DIMAPOST
  1

  9
$DIMALT
 70
     0
  9
$DIMALTD
 70
     2
  9
$DIMALTF
 40
25.4
  9
$DIMLFAC
 40
1.0
  9
$DIMTOFL
 70
     0
  9
$DIMTVP
 40
0.0
  9
$DIMTIX
 70
     0
  9
$DIMSOXD
 70
     0
  9
$DIMSAH
 70
     0
  9
$DIMBLK1
  1

  9
$DIMBLK2
  1

  9
$DIMSTYLE
  2
Standard
  9
$DIMCLRD
 70
     0
  9
$DIMCLRE
 70
     0
  9
$DIMCLRT
 70
     0
  9
$DIMTFAC
 40
1.0
  9
$DIMGAP
 40
0.09
  9
$DIMJUST
 70
     0
  9
$DIMSD1
 70
     0
  9
$DIMSD2
 70
     0
  9
$DIMTOLJ
 70
     1
  9
$DIMTZIN
 70
     0
  9
$DIMALTZ
 70
     0
  9
$DIMALTTZ
 70
     0
  9
$DIMUPT
 70
     0
  9
$DIMDEC
 70
     4
  9
$DIMTDEC
 70
     4
  9
$DIMALTU
 70
     2
  9
$DIMALTTD
 70
     2
  9
$DIMTXSTY
  7
Standard
  9
$DIMAUNIT
 70
     0
  9
$DIMADEC
 70
     0
  9
$DIMALTRND
 40
0.0
  9
$DIMAZIN
 70
     0
  9
$DIMDSEP
 70
    46
  9
$DIMATFIT
 70
     3
  9
$DIMFRAC
 70
     0
  9
$DIMLDRBLK
  1

  9
$DIMLUNIT
 70
     2
  9
$DIMLWD
 70
    -2
  9
$DIMLWE
 70
    -2
  9
$DIMTMOVE
 70
     0
  9
$DIMFXL
 40
1.0
  9
$DIMFXLON
 70
     0
  9
$DIMJOGANG
 40
0.7853981633974483
  9
$DIMTFILL
 70
     0
  9
$DIMTFILLCLR
 70
     0
  9
$DIMARCSYM
 70
     0
  9
$DIMLTYPE
  6

  9
$DIMLTEX1
  6

  9
$DIMLTEX2
  6

  9
$LUNITS
 70
     2
  9
$LUPREC
 70
     4
  9
$SKETCHINC
 40
0.1
  9
$FILLETRAD
 40
0.5
  9
$AUNITS
 70
     0
  9
$AUPREC
 70
     0
  9
$MENU
  1
.
  9
$ELEVATION
 40
0.0
  9
$PELEVATION
 40
0.0
  9
$THICKNESS
 40
0.0
  9
$LIMCHECK
 70
     0
  9
$CHAMFERA
 40
0.5
  9
$CHAMFERB
 40
0.5
  9
$CHAMFERC
 40
1.0
  9
$CHAMFERD
 40
0.0
  9
$SKPOLY
 70
     0
  9
$TDCREATE
 40
2456876.674403553
  9
$TDUCREATE
 40
2456876.799403553
  9
$TDUPDATE
 40
2456876.674403715
  9
$TDUUPDATE
 40
2456876.799403715
  9
$TDINDWG
 40
0.0000000116
  9
$TDUSRTIMER
 40
0.0000000116
  9
$USRTIMER
 70
     1
  9
$ANGBASE
 50
0.0
  9
$ANGDIR
 70
     0
  9
$PDMODE
 70
     0
  9
$PDSIZE
 40
0.0
  9
$PLINEWID
 40
0.0
  9
$SPLFRAME
 70
     0
  9
$SPLINETYPE
 70
     6
  9
$SPLINESEGS
 70
     8
  9
$HANDSEED
  5
66
  9
$SURFTAB1
 70
     6
  9
$SURFTAB2
 70
     6
  9
$SURFTYPE
 70
     6
  9
$SURFU
 70
     6
  9
$SURFV
 70
     6
  9
$UCSBASE
  2

  9
$UCSNAME
  2

  9
$UCSORG
 10
0.0
 20
0.0
 30
0.0
  9
$UCSXDIR
 10
1.0
 20
0.0
 30
0.0
  9
$UCSYDIR
 10
0.0
 20
1.0
 30
0.0
  9
$UCSORTHOREF
  2

  9
$UCSORTHOVIEW
 70
     0
  9
$UCSORGTOP
 10
0.0
 20
0.0
 30
0.0
  9
$UCSORGBOTTOM
 10
0.0
 20
0.0
 30
0.0
  9
$UCSORGLEFT
 10
0.0
 20
0.0
 30
0.0
  9
$UCSORGRIGHT
 10
0.0
 20
0.0
 30
0.0
  9
$UCSORGFRONT
 10
0.0
 20
0.0
 30
0.0
  9
$UCSORGBACK
 10
0.0
 20
0.0
 30
0.0
  9
$PUCSBASE
  2

  9
$PUCSNAME
  2

  9
$PUCSORG
 10
0.0
 20
0.0
 30
0.0
  9
$PUCSXDIR
 10
1.0
 20
0.0
 30
0.0
  9
$PUCSYDIR
 10
0.0
 20
1.0
 30
0.0
  9
$PUCSORTHOREF
  2

  9
$PUCSORTHOVIEW
 70
     0
  9
$PUCSORGTOP
 10
0.0
 20
0.0
 30
0.0
  9
$PUCSORGBOTTOM
 10
0.0
 20
0.0
 30
0.0
  9
$PUCSORGLEFT
 10
0.0
 20
0.0
 30
0.0
  9
$PUCSORGRIGHT
 10
0.0
 20
0.0
 30
0.0
  9
$PUCSORGFRONT
 10
0.0
 20
0.0
 30
0.0
  9
$PUCSORGBACK
 10
0.0
 20
0.0
 30
0.0
  9
$USERI1
 70
     0
  9
$USERI2
 70
     0
  9
$USERI3
 70
     0
  9
$USERI4
 70
     0
  9
$USERI5
 70
     0
  9
$USERR1
 40
0.0
  9
$USERR2
 40
0.0
  9
$USERR3
 40
0.0
  9
$USERR4
 40
0.0
  9
$USERR5
 40
0.0
  9
$WORLDVIEW
 70
     1
  9
$SHADEDGE
 70
     3
  9
$SHADEDIF
 70
    70
  9
$TILEMODE
 70
     1
  9
$MAXACTVP
 70
    64
  9
$PINSBASE
 10
0.0
 20
0.0
 30
0.0
  9
$PLIMCHECK
 70
     0
  9
$PEXTMIN
 10
1.000000000000000E+20
 20
1.000000000000000E+20
 30
1.000000000000000E+20
  9
$PEXTMAX
 10
-1.000000000000000E+20
 20
-1.000000000000000E+20
 30
-1.000000000000000E+20
  9
$PLIMMIN
 10
0.0
 20
0.0
  9
$PLIMMAX
 10
12.0
 20
9.0
  9
$UNITMODE
 70
     0
  9
$VISRETAIN
 70
     1
  9
$PLINEGEN
 70
     0
  9
$PSLTSCALE
 70
     1
  9
$TREEDEPTH
 70
  3020
  9
$CMLSTYLE
  2
Standard
  9
$CMLJUST
 70
     0
  9
$CMLSCALE
 40
1.0
  9
$PROXYGRAPHICS
 70
     1
  9
$MEASUREMENT
 70
     0
  9
$CELWEIGHT
370
    -1
  9
$ENDCAPS
280
     0
  9
$JOINSTYLE
280
     0
  9
$LWDISPLAY
290
     0
  9
$INSUNITS
 70
     5
  9
$HYPERLINKBASE
  1

  9
$STYLESHEET
  1

  9
$XEDIT
290
     1
  9
$CEPSNTYPE
380
     0
  9
$PSTYLEMODE
290
     1
  9
$FINGERPRINTGUID
  2
{22B00758-2A91-44D2-A75D-AF3074011A98}
  9
$VERSIONGUID
  2
{FAEB1C32-E019-11D5-929B-00C0DF256EC4}
  9
$EXTNAMES
290
     1
  9
$PSVPSCALE
 40
0.0
  9
$OLESTARTUP
290
     0
  9
$SORTENTS
280
   127
  9
$INDEXCTL
280
     0
  9
$HIDETEXT
280
     1
  9
$XCLIPFRAME
290
     0
  9
$HALOGAP
280
     0
  9
$OBSCOLOR
 70
   257
  9
$OBSLTYPE
280
     0
  9
$INTERSECTIONDISPLAY
280
     0
  9
$INTERSECTIONCOLOR
 70
   257
  9
$DIMASSOC
280
     2
  9
$PROJECTNAME
  1

  9
$CAMERADISPLAY
290
     0
  9
$LENSLENGTH
 40
50.0
  9
$CAMERAHEIGHT
 40
0.0
  9
$STEPSPERSEC
 40
2.0
  9
$STEPSIZE
 40
6.0
  9
$3DDWFPREC
 40
2.0
  9
$PSOLWIDTH
 40
0.25
  9
$PSOLHEIGHT
 40
4.0
  9
$LOFTANG1
 40
1.570796326794897
  9
$LOFTANG2
 40
1.570796326794897
  9
$LOFTMAG1
 40
0.0
  9
$LOFTMAG2
 40
0.0
  9
$LOFTPARAM
 70
     7
  9
$LOFTNORMALS
280
     1
  9
$LATITUDE
 40
37.795
  9
$LONGITUDE
 40
-122.394
  9
$NORTHDIRECTION
 40
0.0
  9
$TIMEZONE
 70
 -8000
  9
$LIGHTGLYPHDISPLAY
280
     1
  9
$TILEMODELIGHTSYNCH
280
     1
  9
$SOLIDHIST
280
     1
  9
$SHOWHIST
280
     1
  9
$DWFFRAME
280
     2
  9
$DGNFRAME
280
     2
  9
$REALWORLDSCALE
290
     1
  9
$INTERFERECOLOR
 62
   256
  9
$CSHADOW
280
     0
  9
$SHADOWPLANELOCATION
 40
0.0
  0
ENDSEC
  0
SECTION
  2
CLASSES
  0
CLASS
  1
ACDBDICTIONARYWDFLT
  2
AcDbDictionaryWithDefault
  3
ObjectDBX Classes
 90
        0
 91
        4
280
     0
281
     0
  0
CLASS
  1
VISUALSTYLE
  2
AcDbVisualStyle
  3
ObjectDBX Classes
 90
     4095
 91
        4
280
     0
281
     0
  0
CLASS
  1
MATERIAL
  2
AcDbMaterial
  3
ObjectDBX Classes
 90
     1153
 91
        4
280
     0
281
     0
  0
ENDSEC
  0
SECTION
  2
TABLES
  0
TABLE
  2
VPORT
  5
8
330
0
100
AcDbSymbolTable
 70
     1
  0
VPORT
  5
29
330
8
100
AcDbSymbolTableRecord
100
AcDbViewportTableRecord
  2
*Active
 70
     0
 10
0.0
 20
0.0
 11
1.0
 21
1.0
 12
10.42990654205607
 22
4.5
 13
0.0
 23
0.0
 14
0.5
 24
0.5
 15
0.5
 25
0.5
 16
0.0
 26
0.0
 36
1.0
 17
0.0
 27
0.0
 37
0.0
 40
9.0
 41
1.972972972850329
 42
50.0
 43
0.0
 44
0.0
 50
0.0
 51
0.0
 71
     0
 72
   100
 73
     1
 74
     3
 75
     0
 76
     0
 77
     0
 78
     0
281
     0
 65
     1
110
0.0
120
0.0
130
0.0
111
1.0
121
0.0
131
0.0
112
0.0
122
1.0
132
0.0
 79
     0
146
0.0
 60
     3
 61
     5
292
     1
282
     1
141
0.0
142
0.0
 63
   250
  0
ENDTAB
  0
TABLE
  2
LTYPE
  5
5
330
0
100
AcDbSymbolTable
 70
     1
  0
LTYPE
  5
14
330
5
100
AcDbSymbolTableRecord
100
AcDbLinetypeTableRecord
  2
ByBlock
 70
     0
  3

 72
    65
 73
     0
 40
0.0
  0
LTYPE
  5
15
330
5
100
AcDbSymbolTableRecord
100
AcDbLinetypeTableRecord
  2
ByLayer
 70
     0
  3

 72
    65
 73
     0
 40
0.0
  0
LTYPE
  5
16
330
5
100
AcDbSymbolTableRecord
100
AcDbLinetypeTableRecord
  2
Continuous
 70
     0
  3
Solid line
 72
    65
 73
     0
 40
0.0
  0
ENDTAB
  0
TABLE
  2
LAYER
  5
2
330
0
100
AcDbSymbolTable
 70
     2
  0
LAYER
  5
10
330
2
100
AcDbSymbolTableRecord
100
AcDbLayerTableRecord
  2
0
 70
     0
 62
     7
  6
Continuous
370
    -3
390
F
347
3E
  0
LAYER
  5
40
330
2
100
AcDbSymbolTableRecord
100
AcDbLayerTableRecord
  2
Camada 1
 70
     0
 62
     7
  6
Continuous
370
    -3
390
F
347
3E
  0
ENDTAB
  0
TABLE
  2
STYLE
  5
3
330
0
100
AcDbSymbolTable
 70
     1
  0
STYLE
  5
11
330
3
100
AcDbSymbolTableRecord
100
AcDbTextStyleTableRecord
  2
Standard
 70
     0
 40
0.0
 41
1.0
 50
0.0
 71
     0
 42
0.2
  3
txt
  4

  0
ENDTAB
  0
TABLE
  2
VIEW
  5
6
330
0
100
AcDbSymbolTable
 70
     0
  0
ENDTAB
  0
TABLE
  2
UCS
  5
7
330
0
100
AcDbSymbolTable
 70
     0
  0
ENDTAB
  0
TABLE
  2
APPID
  5
9
330
0
100
AcDbSymbolTable
 70
     2
  0
APPID
  5
12
330
9
100
AcDbSymbolTableRecord
100
AcDbRegAppTableRecord
  2
ACAD
 70
     0
  0
APPID
  5
3F
330
9
100
AcDbSymbolTableRecord
100
AcDbRegAppTableRecord
  2
ODA
 70
     0
  0
ENDTAB
  0
TABLE
  2
DIMSTYLE
  5
A
330
0
100
AcDbSymbolTable
 70
     1
100
AcDbDimStyleTable
  0
DIMSTYLE
105
27
330
A
100
AcDbSymbolTableRecord
100
AcDbDimStyleTableRecord
  2
Standard
 70
     0
178
     0
340
11
  0
ENDTAB
  0
TABLE
  2
BLOCK_RECORD
  5
1
330
0
100
AcDbSymbolTable
 70
     1
  0
BLOCK_RECORD
  5
1F
330
1
100
AcDbSymbolTableRecord
100
AcDbBlockTableRecord
  2
*Model_Space
340
22
 70
     0
280
     1
281
     0
  0
BLOCK_RECORD
  5
1B
330
1
100
AcDbSymbolTableRecord
100
AcDbBlockTableRecord
  2
*Paper_Space
340
1E
 70
     0
280
     1
281
     0
  0
BLOCK_RECORD
  5
23
330
1
100
AcDbSymbolTableRecord
100
AcDbBlockTableRecord
  2
*Paper_Space0
340
26
 70
     0
280
     1
281
     0
  0
ENDTAB
  0
ENDSEC
  0
SECTION
  2
BLOCKS
  0
BLOCK
  5
20
330
1F
100
AcDbEntity
  8
0
100
AcDbBlockBegin
  2
*Model_Space
 70
     0
 10
0.0
 20
0.0
 30
0.0
  3
*Model_Space
  1

  0
ENDBLK
  5
21
330
1F
100
AcDbEntity
  8
0
100
AcDbBlockEnd
  0
BLOCK
  5
1C
330
1B
100
AcDbEntity
 67
     1
  8
0
100
AcDbBlockBegin
  2
*Paper_Space
 70
     0
 10
0.0
 20
0.0
 30
0.0
  3
*Paper_Space
  1

  0
ENDBLK
  5
1D
330
1B
100
AcDbEntity
 67
     1
  8
0
100
AcDbBlockEnd
  0
BLOCK
  5
24
330
23
100
AcDbEntity
  8
0
100
AcDbBlockBegin
  2
*Paper_Space0
 70
     0
 10
0.0
 20
0.0
 30
0.0
  3
*Paper_Space0
  1

  0
ENDBLK
  5
25
330
23
100
AcDbEntity
  8
0
100
AcDbBlockEnd
  0
ENDSEC
  0
SECTION
  2
ENTITIES
  0
SPLINE
  5
41
330
1F
100
AcDbEntity
  8
Camada 1
100
AcDbSpline
210
0.0
220
0.0
230
1.0
 70
    11
 71
     3
 72
   392
 73
   388
 74
     0
 42
0.0000000001
 43
0.0000000001
 12
1.0
 22
0.0
 32
0.0
 13
1.0
 23
0.0
 33
0.0
 40
0.0
 40
0.0
 40
0.0
 40
0.0
 40
0.0102040816326531
 40
0.0102040816326531
 40
0.0102040816326531
 40
0.0102040816326531
 40
0.0204081632653061
 40
0.0204081632653061
 40
0.0204081632653061
 40
0.0204081632653061
 40
0.0306122448979592
 40
0.0306122448979592
 40
0.0306122448979592
 40
0.0306122448979592
 40
0.0408163265306122
 40
0.0408163265306122
 40
0.0408163265306122
 40
0.0408163265306122
 40
0.0510204081632653
 40
0.0510204081632653
 40
0.0510204081632653
 40
0.0510204081632653
 40
0.0612244897959184
 40
0.0612244897959184
 40
0.0612244897959184
 40
0.0612244897959184
 40
0.0714285714285714
 40
0.0714285714285714
 40
0.0714285714285714
 40
0.0714285714285714
 40
0.0816326530612245
 40
0.0816326530612245
 40
0.0816326530612245
 40
0.0816326530612245
 40
0.0918367346938776
 40
0.0918367346938776
 40
0.0918367346938776
 40
0.0918367346938776
 40
0.1020408163265306
 40
0.1020408163265306
 40
0.1020408163265306
 40
0.1020408163265306
 40
0.1122448979591837
 40
0.1122448979591837
 40
0.1122448979591837
 40
0.1122448979591837
 40
0.1224489795918367
 40
0.1224489795918367
 40
0.1224489795918367
 40
0.1224489795918367
 40
0.1326530612244898
 40
0.1326530612244898
 40
0.1326530612244898
 40
0.1326530612244898
 40
0.1428571428571428
 40
0.1428571428571428
 40
0.1428571428571428
 40
0.1428571428571428
 40
0.1530612244897959
 40
0.1530612244897959
 40
0.1530612244897959
 40
0.1530612244897959
 40
0.163265306122449
 40
0.163265306122449
 40
0.163265306122449
 40
0.163265306122449
 40
0.173469387755102
 40
0.173469387755102
 40
0.173469387755102
 40
0.173469387755102
 40
0.1836734693877551
 40
0.1836734693877551
 40
0.1836734693877551
 40
0.1836734693877551
 40
0.1938775510204082
 40
0.1938775510204082
 40
0.1938775510204082
 40
0.1938775510204082
 40
0.2040816326530612
 40
0.2040816326530612
 40
0.2040816326530612
 40
0.2040816326530612
 40
0.2142857142857143
 40
0.2142857142857143
 40
0.2142857142857143
 40
0.2142857142857143
 40
0.2244897959183673
 40
0.2244897959183673
 40
0.2244897959183673
 40
0.2244897959183673
 40
0.2346938775510204
 40
0.2346938775510204
 40
0.2346938775510204
 40
0.2346938775510204
 40
0.2448979591836735
 40
0.2448979591836735
 40
0.2448979591836735
 40
0.2448979591836735
 40
0.2551020408163265
 40
0.2551020408163265
 40
0.2551020408163265
 40
0.2551020408163265
 40
0.2653061224489796
 40
0.2653061224489796
 40
0.2653061224489796
 40
0.2653061224489796
 40
0.2755102040816326
 40
0.2755102040816326
 40
0.2755102040816326
 40
0.2755102040816326
 40
0.2857142857142857
 40
0.2857142857142857
 40
0.2857142857142857
 40
0.2857142857142857
 40
0.2959183673469388
 40
0.2959183673469388
 40
0.2959183673469388
 40
0.2959183673469388
 40
0.3061224489795918
 40
0.3061224489795918
 40
0.3061224489795918
 40
0.3061224489795918
 40
0.3163265306122449
 40
0.3163265306122449
 40
0.3163265306122449
 40
0.3163265306122449
 40
0.3265306122448979
 40
0.3265306122448979
 40
0.3265306122448979
 40
0.3265306122448979
 40
0.336734693877551
 40
0.336734693877551
 40
0.336734693877551
 40
0.336734693877551
 40
0.3469387755102041
 40
0.3469387755102041
 40
0.3469387755102041
 40
0.3469387755102041
 40
0.3571428571428572
 40
0.3571428571428572
 40
0.3571428571428572
 40
0.3571428571428572
 40
0.3673469387755102
 40
0.3673469387755102
 40
0.3673469387755102
 40
0.3673469387755102
 40
0.3775510204081632
 40
0.3775510204081632
 40
0.3775510204081632
 40
0.3775510204081632
 40
0.3877551020408163
 40
0.3877551020408163
 40
0.3877551020408163
 40
0.3877551020408163
 40
0.3979591836734694
 40
0.3979591836734694
 40
0.3979591836734694
 40
0.3979591836734694
 40
0.4081632653061225
 40
0.4081632653061225
 40
0.4081632653061225
 40
0.4081632653061225
 40
0.4183673469387755
 40
0.4183673469387755
 40
0.4183673469387755
 40
0.4183673469387755
 40
0.4285714285714285
 40
0.4285714285714285
 40
0.4285714285714285
 40
0.4285714285714285
 40
0.4387755102040816
 40
0.4387755102040816
 40
0.4387755102040816
 40
0.4387755102040816
 40
0.4489795918367347
 40
0.4489795918367347
 40
0.4489795918367347
 40
0.4489795918367347
 40
0.4591836734693878
 40
0.4591836734693878
 40
0.4591836734693878
 40
0.4591836734693878
 40
0.4693877551020408
 40
0.4693877551020408
 40
0.4693877551020408
 40
0.4693877551020408
 40
0.4795918367346939
 40
0.4795918367346939
 40
0.4795918367346939
 40
0.4795918367346939
 40
0.4897959183673469
 40
0.4897959183673469
 40
0.4897959183673469
 40
0.4897959183673469
 40
0.5
 40
0.5
 40
0.5
 40
0.5
 40
0.5102040816326531
 40
0.5102040816326531
 40
0.5102040816326531
 40
0.5102040816326531
 40
0.5204081632653061
 40
0.5204081632653061
 40
0.5204081632653061
 40
0.5204081632653061
 40
0.5306122448979592
 40
0.5306122448979592
 40
0.5306122448979592
 40
0.5306122448979592
 40
0.5408163265306123
 40
0.5408163265306123
 40
0.5408163265306123
 40
0.5408163265306123
 40
0.5510204081632653
 40
0.5510204081632653
 40
0.5510204081632653
 40
0.5510204081632653
 40
0.5612244897959183
 40
0.5612244897959183
 40
0.5612244897959183
 40
0.5612244897959183
 40
0.5714285714285714
 40
0.5714285714285714
 40
0.5714285714285714
 40
0.5714285714285714
 40
0.5816326530612245
 40
0.5816326530612245
 40
0.5816326530612245
 40
0.5816326530612245
 40
0.5918367346938775
 40
0.5918367346938775
 40
0.5918367346938775
 40
0.5918367346938775
 40
0.6020408163265306
 40
0.6020408163265306
 40
0.6020408163265306
 40
0.6020408163265306
 40
0.6122448979591837
 40
0.6122448979591837
 40
0.6122448979591837
 40
0.6122448979591837
 40
0.6224489795918368
 40
0.6224489795918368
 40
0.6224489795918368
 40
0.6224489795918368
 40
0.6326530612244898
 40
0.6326530612244898
 40
0.6326530612244898
 40
0.6326530612244898
 40
0.6428571428571429
 40
0.6428571428571429
 40
0.6428571428571429
 40
0.6428571428571429
 40
0.6530612244897959
 40
0.6530612244897959
 40
0.6530612244897959
 40
0.6530612244897959
 40
0.6632653061224489
 40
0.6632653061224489
 40
0.6632653061224489
 40
0.6632653061224489
 40
0.673469387755102
 40
0.673469387755102
 40
0.673469387755102
 40
0.673469387755102
 40
0.6836734693877551
 40
0.6836734693877551
 40
0.6836734693877551
 40
0.6836734693877551
 40
0.6938775510204082
 40
0.6938775510204082
 40
0.6938775510204082
 40
0.6938775510204082
 40
0.7040816326530612
 40
0.7040816326530612
 40
0.7040816326530612
 40
0.7040816326530612
 40
0.7142857142857143
 40
0.7142857142857143
 40
0.7142857142857143
 40
0.7142857142857143
 40
0.7244897959183674
 40
0.7244897959183674
 40
0.7244897959183674
 40
0.7244897959183674
 40
0.7346938775510204
 40
0.7346938775510204
 40
0.7346938775510204
 40
0.7346938775510204
 40
0.7448979591836735
 40
0.7448979591836735
 40
0.7448979591836735
 40
0.7448979591836735
 40
0.7551020408163265
 40
0.7551020408163265
 40
0.7551020408163265
 40
0.7551020408163265
 40
0.7653061224489796
 40
0.7653061224489796
 40
0.7653061224489796
 40
0.7653061224489796
 40
0.7755102040816326
 40
0.7755102040816326
 40
0.7755102040816326
 40
0.7755102040816326
 40
0.7857142857142857
 40
0.7857142857142857
 40
0.7857142857142857
 40
0.7857142857142857
 40
0.7959183673469388
 40
0.7959183673469388
 40
0.7959183673469388
 40
0.7959183673469388
 40
0.8061224489795918
 40
0.8061224489795918
 40
0.8061224489795918
 40
0.8061224489795918
 40
0.8163265306122449
 40
0.8163265306122449
 40
0.8163265306122449
 40
0.8163265306122449
 40
0.826530612244898
 40
0.826530612244898
 40
0.826530612244898
 40
0.826530612244898
 40
0.8367346938775511
 40
0.8367346938775511
 40
0.8367346938775511
 40
0.8367346938775511
 40
0.8469387755102041
 40
0.8469387755102041
 40
0.8469387755102041
 40
0.8469387755102041
 40
0.8571428571428571
 40
0.8571428571428571
 40
0.8571428571428571
 40
0.8571428571428571
 40
0.8673469387755102
 40
0.8673469387755102
 40
0.8673469387755102
 40
0.8673469387755102
 40
0.8775510204081632
 40
0.8775510204081632
 40
0.8775510204081632
 40
0.8775510204081632
 40
0.8877551020408163
 40
0.8877551020408163
 40
0.8877551020408163
 40
0.8877551020408163
 40
0.8979591836734694
 40
0.8979591836734694
 40
0.8979591836734694
 40
0.8979591836734694
 40
0.9081632653061225
 40
0.9081632653061225
 40
0.9081632653061225
 40
0.9081632653061225
 40
0.9183673469387755
 40
0.9183673469387755
 40
0.9183673469387755
 40
0.9183673469387755
 40
0.9285714285714286
 40
0.9285714285714286
 40
0.9285714285714286
 40
0.9285714285714286
 40
0.9387755102040817
 40
0.9387755102040817
 40
0.9387755102040817
 40
0.9387755102040817
 40
0.9489795918367347
 40
0.9489795918367347
 40
0.9489795918367347
 40
0.9489795918367347
 40
0.9591836734693877
 40
0.9591836734693877
 40
0.9591836734693877
 40
0.9591836734693877
 40
0.9693877551020408
 40
0.9693877551020408
 40
0.9693877551020408
 40
0.9693877551020408
 40
0.9795918367346939
 40
0.9795918367346939
 40
0.9795918367346939
 40
0.9795918367346939
 40
1.0
 40
1.0
 40
1.0
 40
1.0
 10
8.59416
 20
3.99116
 30
0.0
 10
8.59416
 20
3.99116
 30
0.0
 10
8.60969
 20
4.40095
 30
0.0
 10
7.90074
 20
4.6528
 30
0.0
 10
7.90074
 20
4.6528
 30
0.0
 10
7.19189
 20
4.90484
 30
0.0
 10
6.20741
 20
5.21999
 30
0.0
 10
5.49041
 20
5.23573
 30
0.0
 10
5.49041
 20
5.23573
 30
0.0
 10
4.77363
 20
5.25158
 30
0.0
 10
4.09606
 20
5.06248
 30
0.0
 10
3.75747
 20
4.6056
 30
0.0
 10
3.75747
 20
4.6056
 30
0.0
 10
3.41888
 20
4.14869
 30
0.0
 10
3.00902
 20
4.31413
 30
0.0
 10
2.91459
 20
4.32205
 30
0.0
 10
2.91459
 20
4.32205
 30
0.0
 10
2.82005
 20
4.32996
 30
0.0
 10
0.60684
 20
4.47945
 30
0.0
 10
0.08688
 20
4.44818
 30
0.0
 10
0.08688
 20
4.44818
 30
0.0
 10
-0.43289
 20
4.41659
 30
0.0
 10
-1.37817
 20
4.40868
 30
0.0
 10
-1.44903
 20
4.32205
 30
0.0
 10
-1.44903
 20
4.32205
 30
0.0
 10
-1.51991
 20
4.23543
 30
0.0
 10
-1.58309
 20
4.20383
 30
0.0
 10
-1.58309
 20
4.20383
 30
0.0
 10
-1.58309
 20
4.20383
 30
0.0
 10
-1.58309
 20
4.20383
 30
0.0
 10
-2.10305
 20
4.26691
 30
0.0
 10
-2.2686
 20
4.25908
 30
0.0
 10
-2.2686
 20
4.25908
 30
0.0
 10
-2.43394
 20
4.25117
 30
0.0
 10
-2.78065
 20
4.14097
 30
0.0
 10
-2.91429
 20
4.17235
 30
0.0
 10
-2.91429
 20
4.17235
 30
0.0
 10
-3.04835
 20
4.20384
 30
0.0
 10
-4.86019
 20
4.36134
 30
0.0
 10
-4.86019
 20
4.36134
 30
0.0
 10
-4.86019
 20
4.36134
 30
0.0
 10
-4.86019
 20
4.36134
 30
0.0
 10
-5.02561
 20
4.26691
 30
0.0
 10
-5.02561
 20
4.21958
 30
0.0
 10
-5.02561
 20
4.21958
 30
0.0
 10
-5.02561
 20
4.17235
 30
0.0
 10
-5.60052
 20
4.19593
 30
0.0
 10
-5.95504
 20
4.07771
 30
0.0
 10
-5.95504
 20
4.07771
 30
0.0
 10
-6.30948
 20
3.95971
 30
0.0
 10
-7.85321
 20
3.52648
 30
0.0
 10
-7.85321
 20
3.52648
 30
0.0
 10
-7.85321
 20
3.52648
 30
0.0
 10
-7.85321
 20
3.52648
 30
0.0
 10
-8.11319
 20
3.57381
 30
0.0
 10
-8.11319
 20
3.57381
 30
0.0
 10
-8.11319
 20
3.57381
 30
0.0
 10
-8.11319
 20
3.57381
 30
0.0
 10
-8.15259
 20
3.55796
 30
0.0
 10
-8.13676
 20
3.51856
 30
0.0
 10
-8.13676
 20
3.51856
 30
0.0
 10
-8.12135
 20
3.47922
 30
0.0
 10
-11.09071
 20
3.34515
 30
0.0
 10
-11.09071
 20
3.34515
 30
0.0
 10
-11.09071
 20
3.34515
 30
0.0
 10
-11.09071
 20
3.34515
 30
0.0
 10
-11.09071
 20
3.00667
 30
0.0
 10
-11.09071
 20
3.00667
 30
0.0
 10
-11.09071
 20
3.00667
 30
0.0
 10
-11.09071
 20
3.00667
 30
0.0
 10
-8.38122
 20
3.09322
 30
0.0
 10
-8.38122
 20
3.09322
 30
0.0
 10
-8.38122
 20
3.09322
 30
0.0
 10
-8.38122
 20
3.09322
 30
0.0
 10
-8.38122
 20
2.98294
 30
0.0
 10
-8.38122
 20
2.98294
 30
0.0
 10
-8.38122
 20
2.98294
 30
0.0
 10
-8.38122
 20
2.98294
 30
0.0
 10
-8.45993
 20
2.975
 30
0.0
 10
-8.4203
 20
2.91206
 30
0.0
 10
-8.4203
 20
2.91206
 30
0.0
 10
-8.38122
 20
2.84898
 30
0.0
 10
-8.35765
 20
2.85692
 30
0.0
 10
-8.36537
 20
2.78601
 30
0.0
 10
-8.36537
 20
2.78601
 30
0.0
 10
-8.3731
 20
2.71513
 30
0.0
 10
-8.64892
 20
2.7781
 30
0.0
 10
-8.68843
 20
2.54167
 30
0.0
 10
-8.68843
 20
2.54167
 30
0.0
 10
-8.72761
 20
2.30545
 30
0.0
 10
-8.78297
 20
2.16369
 30
0.0
 10
-8.69624
 20
2.05338
 30
0.0
 10
-8.69624
 20
2.05338
 30
0.0
 10
-8.60951
 20
1.94318
 30
0.0
 10
-8.57802
 20
1.91162
 30
0.0
 10
-8.62536
 20
1.76985
 30
0.0
 10
-8.62536
 20
1.76985
 30
0.0
 10
-8.67259
 20
1.62809
 30
0.0
 10
-8.71979
 20
1.24195
 30
0.0
 10
-8.71979
 20
1.24195
 30
0.0
 10
-8.71979
 20
1.24195
 30
0.0
 10
-8.71979
 20
1.24195
 30
0.0
 10
-9.12926
 20
1.05296
 30
0.0
 10
-9.12926
 20
1.05296
 30
0.0
 10
-9.12926
 20
1.05296
 30
0.0
 10
-9.12926
 20
1.05296
 30
0.0
 10
-9.13741
 20
0.39923
 30
0.0
 10
-9.13741
 20
0.39923
 30
0.0
 10
-9.13741
 20
0.39923
 30
0.0
 10
-9.13741
 20
0.39923
 30
0.0
 10
-9.10571
 20
0.352
 30
0.0
 10
-9.03483
 20
0.35994
 30
0.0
 10
-9.03483
 20
0.35994
 30
0.0
 10
-8.96395
 20
0.36767
 30
0.0
 10
-8.334
 20
0.15489
 30
0.0
 10
-8.334
 20
0.15489
 30
0.0
 10
-8.334
 20
0.15489
 30
0.0
 10
-8.334
 20
0.15489
 30
0.0
 10
-8.23134
 20
0.06837
 30
0.0
 10
-8.18409
 20
0.06837
 30
0.0
 10
-8.18409
 20
0.06837
 30
0.0
 10
-8.13676
 20
0.06837
 30
0.0
 10
-8.07413
 20
0.06837
 30
0.0
 10
-8.05045
 20
0.06837
 30
0.0
 10
-8.05045
 20
0.06837
 30
0.0
 10
-8.02677
 20
0.06837
 30
0.0
 10
-7.32565
 20
-0.16796
 30
0.0
 10
-7.32565
 20
-0.16796
 30
0.0
 10
-7.32565
 20
-0.16796
 30
0.0
 10
-7.32565
 20
-0.16796
 30
0.0
 10
-7.28604
 20
-0.27043
 30
0.0
 10
-7.22339
 20
-0.27043
 30
0.0
 10
-7.22339
 20
-0.27043
 30
0.0
 10
-7.1601
 20
-0.27043
 30
0.0
 10
-7.08163
 20
-0.26252
 30
0.0
 10
-7.08163
 20
-0.26252
 30
0.0
 10
-7.08163
 20
-0.26252
 30
0.0
 10
-7.08163
 20
-0.26252
 30
0.0
 10
-6.32534
 20
-0.50665
 30
0.0
 10
-6.32534
 20
-0.50665
 30
0.0
 10
-6.32534
 20
-0.50665
 30
0.0
 10
-6.32534
 20
-0.50665
 30
0.0
 10
-6.26988
 20
-0.58536
 30
0.0
 10
-6.2308
 20
-0.58536
 30
0.0
 10
-6.2308
 20
-0.58536
 30
0.0
 10
-6.1913
 20
-0.58536
 30
0.0
 10
-6.1519
 20
-0.61695
 30
0.0
 10
-6.12042
 20
-0.61695
 30
0.0
 10
-6.12042
 20
-0.61695
 30
0.0
 10
-6.08904
 20
-0.61695
 30
0.0
 10
-5.30921
 20
-0.87693
 30
0.0
 10
-5.30921
 20
-0.87693
 30
0.0
 10
-5.30921
 20
-0.87693
 30
0.0
 10
-5.30921
 20
-0.87693
 30
0.0
 10
-5.27751
 20
-0.93207
 30
0.0
 10
-5.27751
 20
-0.93207
 30
0.0
 10
-5.27751
 20
-0.93207
 30
0.0
 10
-5.27751
 20
-0.93207
 30
0.0
 10
-5.15157
 20
-0.96353
 30
0.0
 10
-5.15157
 20
-0.96353
 30
0.0
 10
-5.15157
 20
-0.96353
 30
0.0
 10
-5.15157
 20
-0.96353
 30
0.0
 10
-5.10424
 20
-0.93207
 30
0.0
 10
-5.10424
 20
-0.93207
 30
0.0
 10
-5.10424
 20
-0.93207
 30
0.0
 10
-5.10424
 20
-0.93207
 30
0.0
 10
-4.27718
 20
-1.19205
 30
0.0
 10
-4.27718
 20
-1.19205
 30
0.0
 10
-4.27718
 20
-1.19205
 30
0.0
 10
-4.27718
 20
-1.19205
 30
0.0
 10
-4.22995
 20
-1.26293
 30
0.0
 10
-4.22995
 20
-1.26293
 30
0.0
 10
-4.22995
 20
-1.26293
 30
0.0
 10
-4.22995
 20
-1.26293
 30
0.0
 10
-4.10403
 20
-1.28661
 30
0.0
 10
-4.10403
 20
-1.28661
 30
0.0
 10
-4.10403
 20
-1.28661
 30
0.0
 10
-4.10403
 20
-1.28661
 30
0.0
 10
-4.05679
 20
-1.28662
 30
0.0
 10
-4.05679
 20
-1.28662
 30
0.0
 10
-4.05679
 20
-1.28662
 30
0.0
 10
-4.05679
 20
-1.28662
 30
0.0
 10
-3.24515
 20
-1.56224
 30
0.0
 10
-3.24515
 20
-1.56224
 30
0.0
 10
-3.24515
 20
-1.56224
 30
0.0
 10
-3.24515
 20
-1.56224
 30
0.0
 10
-3.19782
 20
-1.62511
 30
0.0
 10
-3.14278
 20
-1.62511
 30
0.0
 10
-3.14278
 20
-1.62511
 30
0.0
 10
-3.08785
 20
-1.62511
 30
0.0
 10
-3.00882
 20
-1.64106
 30
0.0
 10
-3.00882
 20
-1.64106
 30
0.0
 10
-3.00882
 20
-1.64106
 30
0.0
 10
-3.00882
 20
-1.64106
 30
0.0
 10
-2.18988
 20
-1.893
 30
0.0
 10
-2.18988
 20
-1.893
 30
0.0
 10
-2.18988
 20
-1.893
 30
0.0
 10
-2.18988
 20
-1.893
 30
0.0
 10
-2.18176
 20
-1.95608
 30
0.0
 10
-2.0872
 20
-1.97962
 30
0.0
 10
-2.0872
 20
-1.97962
 30
0.0
 10
-1.99266
 20
-2.0033
 30
0.0
 10
-1.18132
 20
-2.26317
 30
0.0
 10
-1.18132
 20
-2.26317
 30
0.0
 10
-1.18132
 20
-2.26317
 30
0.0
 10
-1.18132
 20
-2.26317
 30
0.0
 10
-0.98452
 20
-2.24753
 30
0.0
 10
-0.69285
 20
-2.07415
 30
0.0
 10
-0.69285
 20
-2.07415
 30
0.0
 10
-0.4016
 20
-1.9009
 30
0.0
 10
-0.03933
 20
-1.61735
 30
0.0
 10
-0.03933
 20
-1.61735
 30
0.0
 10
-0.03933
 20
-1.61735
 30
0.0
 10
-0.03933
 20
-1.61735
 30
0.0
 10
0.14194
 20
-1.65675
 30
0.0
 10
0.14194
 20
-1.65675
 30
0.0
 10
0.14194
 20
-1.65675
 30
0.0
 10
0.14194
 20
-1.65675
 30
0.0
 10
0.21285
 20
-1.60944
 30
0.0
 10
0.21285
 20
-1.60944
 30
0.0
 10
0.21285
 20
-1.60944
 30
0.0
 10
0.21285
 20
-1.60944
 30
0.0
 10
1.47314
 20
-1.87733
 30
0.0
 10
1.47314
 20
-1.87733
 30
0.0
 10
1.47314
 20
-1.87733
 30
0.0
 10
1.47314
 20
-1.87733
 30
0.0
 10
1.49671
 20
-2.24751
 30
0.0
 10
1.49671
 20
-2.24751
 30
0.0
 10
1.49671
 20
-2.24751
 30
0.0
 10
1.49671
 20
-2.24751
 30
0.0
 10
1.53621
 20
-2.27907
 30
0.0
 10
1.53621
 20
-2.27907
 30
0.0
 10
1.53621
 20
-2.27907
 30
0.0
 10
1.53621
 20
-2.27907
 30
0.0
 10
1.60722
 20
-2.334
 30
0.0
 10
1.68581
 20
-2.34987
 30
0.0
 10
1.68581
 20
-2.34987
 30
0.0
 10
1.76481
 20
-2.36572
 30
0.0
 10
1.87488
 20
-2.42858
 30
0.0
 10
1.87488
 20
-2.42858
 30
0.0
 10
1.87488
 20
-2.42858
 30
0.0
 10
1.87488
 20
-2.42858
 30
0.0
 10
1.92211
 20
-2.62548
 30
0.0
 10
1.92211
 20
-2.65697
 30
0.0
 10
1.92211
 20
-2.65697
 30
0.0
 10
1.92211
 20
-2.68856
 30
0.0
 10
1.93796
 20
-2.7042
 30
0.0
 10
2.01665
 20
-2.7042
 30
0.0
 10
2.01665
 20
-2.7042
 30
0.0
 10
2.09565
 20
-2.7042
 30
0.0
 10
2.10338
 20
-2.72785
 30
0.0
 10
2.10338
 20
-2.75934
 30
0.0
 10
2.10338
 20
-2.75934
 30
0.0
 10
2.10338
 20
-2.79101
 30
0.0
 10
2.14278
 20
-2.83824
 30
0.0
 10
2.19008
 20
-2.83824
 30
0.0
 10
2.19008
 20
-2.83824
 30
0.0
 10
2.23741
 20
-2.83824
 30
0.0
 10
2.33184
 20
-2.85398
 30
0.0
 10
2.33184
 20
-2.85398
 30
0.0
 10
2.33184
 20
-2.85398
 30
0.0
 10
2.33184
 20
-2.85398
 30
0.0
 10
2.32369
 20
-2.94852
 30
0.0
 10
2.32369
 20
-2.94852
 30
0.0
 10
2.32369
 20
-2.94852
 30
0.0
 10
2.32369
 20
-2.94852
 30
0.0
 10
1.96155
 20
-3.32661
 30
0.0
 10
1.96155
 20
-3.32661
 30
0.0
 10
1.96155
 20
-3.32661
 30
0.0
 10
1.96155
 20
-3.32661
 30
0.0
 10
1.70927
 20
-3.65739
 30
0.0
 10
1.93787
 20
-3.99619
 30
0.0
 10
1.93787
 20
-3.99619
 30
0.0
 10
2.16647
 20
-4.33499
 30
0.0
 10
2.61534
 20
-4.82325
 30
0.0
 10
4.19059
 20
-5.09887
 30
0.0
 10
4.19059
 20
-5.09887
 30
0.0
 10
5.7661
 20
-5.3747
 30
0.0
 10
7.04997
 20
-5.23293
 30
0.0
 10
8.12148
 20
-4.70514
 30
0.0
 10
8.12148
 20
-4.70514
 30
0.0
 10
9.19257
 20
-4.17738
 30
0.0
 10
8.67271
 20
-3.62612
 30
0.0
 10
8.60964
 20
-3.53931
 30
0.0
 10
8.60964
 20
-3.53931
 30
0.0
 10
8.54691
 20
-3.45269
 30
0.0
 10
8.42057
 20
-3.36617
 30
0.0
 10
8.42057
 20
-3.36617
 30
0.0
 10
8.42057
 20
-3.36617
 30
0.0
 10
8.42057
 20
-3.36617
 30
0.0
 10
8.4678
 20
-3.25565
 30
0.0
 10
8.4678
 20
-3.15339
 30
0.0
 10
8.4678
 20
-3.15339
 30
0.0
 10
8.4678
 20
-3.05092
 30
0.0
 10
8.42057
 20
-1.51501
 30
0.0
 10
8.42057
 20
-1.51501
 30
0.0
 10
8.42057
 20
-1.51501
 30
0.0
 10
8.42057
 20
-1.51501
 30
0.0
 10
8.33413
 20
-1.35737
 30
0.0
 10
8.3105
 20
-1.31787
 30
0.0
 10
8.3105
 20
-1.31787
 30
0.0
 10
8.28693
 20
-1.27869
 30
0.0
 10
8.2788
 20
-0.84535
 30
0.0
 10
8.2788
 20
-0.84535
 30
0.0
 10
8.2788
 20
-0.84535
 30
0.0
 10
8.2788
 20
-0.84535
 30
0.0
 10
8.16069
 20
-0.62487
 30
0.0
 10
8.08981
 20
-0.59331
 30
0.0
 10
8.08981
 20
-0.59331
 30
0.0
 10
8.0189
 20
-0.56182
 30
0.0
 10
7.95604
 20
-0.55402
 30
0.0
 10
7.95604
 20
-0.55402
 30
0.0
 10
7.95604
 20
-0.55402
 30
0.0
 10
7.95604
 20
-0.55402
 30
0.0
 10
7.97972
 20
-0.45948
 30
0.0
 10
7.93239
 20
-0.45155
 30
0.0
 10
7.93239
 20
-0.45155
 30
0.0
 10
7.93239
 20
-0.45155
 30
0.0
 10
7.8852
 20
-0.45154
 30
0.0
 10
7.8852
 20
-0.45154
 30
0.0
 10
7.8852
 20
-0.45154
 30
0.0
 10
7.8852
 20
-0.45154
 30
0.0
 10
7.8852
 20
-0.1287
 30
0.0
 10
7.8852
 20
-0.1287
 30
0.0
 10
7.8852
 20
-0.1287
 30
0.0
 10
7.8852
 20
-0.1287
 30
0.0
 10
8.00342
 20
-0.03416
 30
0.0
 10
8.03477
 20
0.02891
 30
0.0
 10
8.03477
 20
0.02891
 30
0.0
 10
8.06618
 20
0.09196
 30
0.0
 10
8.12923
 20
0.22581
 30
0.0
 10
8.12923
 20
0.22581
 30
0.0
 10
8.12923
 20
0.22581
 30
0.0
 10
8.12923
 20
0.22581
 30
0.0
 10
8.42871
 20
0.18652
 30
0.0
 10
8.42871
 20
0.18652
 30
0.0
 10
8.42871
 20
0.18652
 30
0.0
 10
8.42871
 20
0.18652
 30
0.0
 10
8.50732
 20
0.17861
 30
0.0
 10
8.51512
 20
0.20216
 30
0.0
 10
8.51512
 20
0.20216
 30
0.0
 10
8.52327
 20
0.22584
 30
0.0
 10
8.79867
 20
0.17861
 30
0.0
 10
8.8146
 20
0.12355
 30
0.0
 10
8.8146
 20
0.12355
 30
0.0
 10
8.83045
 20
0.0683
 30
0.0
 10
8.8146
 20
-0.17593
 30
0.0
 10
9.2636
 20
-0.23089
 30
0.0
 10
9.2636
 20
-0.23089
 30
0.0
 10
9.71257
 20
-0.28624
 30
0.0
 10
10.48457
 20
-0.29418
 30
0.0
 10
10.84684
 20
0.07632
 30
0.0
 10
10.84684
 20
0.07632
 30
0.0
 10
11.20908
 20
0.44639
 30
0.0
 10
11.14632
 20
0.78519
 30
0.0
 10
10.79961
 20
1.23416
 30
0.0
 10
10.79961
 20
1.23416
 30
0.0
 10
10.4529
 20
1.68313
 30
0.0
 10
9.90159
 20
1.54137
 30
0.0
 10
9.84653
 20
1.54137
 30
0.0
 10
9.84653
 20
1.54137
 30
0.0
 10
9.79118
 20
1.54137
 30
0.0
 10
9.16126
 20
1.36801
 30
0.0
 10
8.98767
 20
1.2892
 30
0.0
 10
8.98767
 20
1.2892
 30
0.0
 10
8.81463
 20
1.21059
 30
0.0
 10
7.94024
 20
1.26552
 30
0.0
 10
7.94024
 20
1.26552
 30
0.0
 10
7.94024
 20
1.26552
 30
0.0
 10
7.94024
 20
1.26552
 30
0.0
 10
7.89304
 20
1.29711
 30
0.0
 10
7.83798
 20
1.29711
 30
0.0
 10
7.83798
 20
1.29711
 30
0.0
 10
7.78252
 20
1.29711
 30
0.0
 10
7.88521
 20
1.76976
 30
0.0
 10
7.70394
 20
1.94312
 30
0.0
 10
7.70394
 20
1.94312
 30
0.0
 10
7.52257
 20
2.11626
 30
0.0
 10
7.61721
 20
2.50229
 30
0.0
 10
7.61721
 20
2.50229
 30
0.0
 10
7.61721
 20
2.50229
 30
0.0
 10
7.61721
 20
2.50229
 30
0.0
 10
8.45231
 20
2.75436
 30
0.0
 10
8.50737
 20
3.07739
 30
0.0
 10
8.50737
 20
3.07739
 30
0.0
 10
8.56238
 20
3.40032
 30
0.0
 10
8.59416
 20
3.99116
 30
0.0
 10
8.59416
 20
3.99116
 30
0.0
  0
SPLINE
  5
42
330
1F
100
AcDbEntity
  8
Camada 1
 62
     7
100
AcDbSpline
210
0.0
220
0.0
230
1.0
 70
    11
 71
     3
 72
    48
 73
    44
 74
     0
 42
0.0000000001
 43
0.0000000001
 12
1.0
 22
0.0
 32
0.0
 13
1.0
 23
0.0
 33
0.0
 40
0.0
 40
0.0
 40
0.0
 40
0.0
 40
0.0833333333333333
 40
0.0833333333333333
 40
0.0833333333333333
 40
0.0833333333333333
 40
0.1666666666666667
 40
0.1666666666666667
 40
0.1666666666666667
 40
0.1666666666666667
 40
0.25
 40
0.25
 40
0.25
 40
0.25
 40
0.3333333333333333
 40
0.3333333333333333
 40
0.3333333333333333
 40
0.3333333333333333
 40
0.4166666666666667
 40
0.4166666666666667
 40
0.4166666666666667
 40
0.4166666666666667
 40
0.5
 40
0.5
 40
0.5
 40
0.5
 40
0.5833333333333334
 40
0.5833333333333334
 40
0.5833333333333334
 40
0.5833333333333334
 40
0.6666666666666666
 40
0.6666666666666666
 40
0.6666666666666666
 40
0.6666666666666666
 40
0.75
 40
0.75
 40
0.75
 40
0.75
 40
0.8333333333333334
 40
0.8333333333333334
 40
0.8333333333333334
 40
0.8333333333333334
 40
1.0
 40
1.0
 40
1.0
 40
1.0
 10
3.33218
 20
1.58086
 30
0.0
 10
3.33218
 20
1.58086
 30
0.0
 10
2.66273
 20
1.71471
 30
0.0
 10
2.54449
 20
1.71471
 30
0.0
 10
2.54449
 20
1.71471
 30
0.0
 10
2.42638
 20
1.71471
 30
0.0
 10
1.74891
 20
1.79353
 30
0.0
 10
1.74891
 20
1.79353
 30
0.0
 10
1.74891
 20
1.79353
 30
0.0
 10
1.74891
 20
1.79353
 30
0.0
 10
1.69388
 20
1.83282
 30
0.0
 10
1.69388
 20
1.94323
 30
0.0
 10
1.69388
 20
1.94323
 30
0.0
 10
1.69388
 20
2.05343
 30
0.0
 10
1.69388
 20
2.05343
 30
0.0
 10
1.69388
 20
2.05343
 30
0.0
 10
1.69388
 20
2.05343
 30
0.0
 10
1.69388
 20
2.05343
 30
0.0
 10
1.52846
 20
2.04552
 30
0.0
 10
1.40223
 20
2.22679
 30
0.0
 10
1.40223
 20
2.22679
 30
0.0
 10
1.27629
 20
2.40784
 30
0.0
 10
0.96128
 20
2.40784
 30
0.0
 10
0.96128
 20
2.40784
 30
0.0
 10
0.96128
 20
2.40784
 30
0.0
 10
0.96128
 20
2.40784
 30
0.0
 10
-0.7483
 20
2.68346
 30
0.0
 10
-0.7483
 20
2.68346
 30
0.0
 10
-0.7483
 20
2.68346
 30
0.0
 10
-0.7483
 20
2.68346
 30
0.0
 10
-0.89006
 20
2.21091
 30
0.0
 10
-0.63008
 20
2.03777
 30
0.0
 10
-0.63008
 20
2.03777
 30
0.0
 10
-0.3701
 20
1.86441
 30
0.0
 10
1.20544
 20
0.91914
 30
0.0
 10
2.05605
 20
0.55669
 30
0.0
 10
2.05605
 20
0.55669
 30
0.0
 10
2.90676
 20
0.19453
 30
0.0
 10
3.23765
 20
0.11563
 30
0.0
 10
3.23765
 20
0.11563
 30
0.0
 10
3.23765
 20
0.11563
 30
0.0
 10
3.23765
 20
0.11563
 30
0.0
 10
3.33218
 20
1.58086
 30
0.0
 10
3.33218
 20
1.58086
 30
0.0
  0
SPLINE
  5
43
330
1F
100
AcDbEntity
  8
Camada 1
 62
     7
100
AcDbSpline
210
0.0
220
0.0
230
1.0
 70
    11
 71
     3
 72
    52
 73
    48
 74
     0
 42
0.0000000001
 43
0.0000000001
 12
1.0
 22
0.0
 32
0.0
 13
1.0
 23
0.0
 33
0.0
 40
0.0
 40
0.0
 40
0.0
 40
0.0
 40
0.0769230769230769
 40
0.0769230769230769
 40
0.0769230769230769
 40
0.0769230769230769
 40
0.1538461538461539
 40
0.1538461538461539
 40
0.1538461538461539
 40
0.1538461538461539
 40
0.2307692307692308
 40
0.2307692307692308
 40
0.2307692307692308
 40
0.2307692307692308
 40
0.3076923076923077
 40
0.3076923076923077
 40
0.3076923076923077
 40
0.3076923076923077
 40
0.3846153846153846
 40
0.3846153846153846
 40
0.3846153846153846
 40
0.3846153846153846
 40
0.4615384615384616
 40
0.4615384615384616
 40
0.4615384615384616
 40
0.4615384615384616
 40
0.5384615384615384
 40
0.5384615384615384
 40
0.5384615384615384
 40
0.5384615384615384
 40
0.6153846153846154
 40
0.6153846153846154
 40
0.6153846153846154
 40
0.6153846153846154
 40
0.6923076923076923
 40
0.6923076923076923
 40
0.6923076923076923
 40
0.6923076923076923
 40
0.7692307692307693
 40
0.7692307692307693
 40
0.7692307692307693
 40
0.7692307692307693
 40
0.8461538461538461
 40
0.8461538461538461
 40
0.8461538461538461
 40
0.8461538461538461
 40
1.0
 40
1.0
 40
1.0
 40
1.0
 10
-1.78815
 20
3.25853
 30
0.0
 10
-1.78815
 20
3.25853
 30
0.0
 10
-2.29215
 20
3.26644
 30
0.0
 10
-2.47345
 20
3.361
 30
0.0
 10
-2.47345
 20
3.361
 30
0.0
 10
-2.6544
 20
3.45564
 30
0.0
 10
-3.11925
 20
3.56584
 30
0.0
 10
-3.25328
 20
3.5579
 30
0.0
 10
-3.25328
 20
3.5579
 30
0.0
 10
-3.38692
 20
3.55009
 30
0.0
 10
-4.91523
 20
3.69966
 30
0.0
 10
-4.91523
 20
3.69966
 30
0.0
 10
-4.91523
 20
3.69966
 30
0.0
 10
-4.91523
 20
3.69966
 30
0.0
 10
-4.99394
 20
3.76271
 30
0.0
 10
-5.00207
 20
3.80203
 30
0.0
 10
-5.00207
 20
3.80203
 30
0.0
 10
-5.0098
 20
3.84143
 30
0.0
 10
-5.62421
 20
3.80997
 30
0.0
 10
-6.13623
 20
3.66818
 30
0.0
 10
-6.13623
 20
3.66818
 30
0.0
 10
-6.64807
 20
3.52642
 30
0.0
 10
-7.82184
 20
3.16404
 30
0.0
 10
-7.82184
 20
3.16404
 30
0.0
 10
-7.82184
 20
3.16404
 30
0.0
 10
-7.82184
 20
3.16404
 30
0.0
 10
-7.91638
 20
3.02228
 30
0.0
 10
-7.80599
 20
3.03791
 30
0.0
 10
-7.80599
 20
3.03791
 30
0.0
 10
-7.69592
 20
3.05386
 30
0.0
 10
-6.76628
 20
3.43968
 30
0.0
 10
-6.76628
 20
3.43968
 30
0.0
 10
-6.76628
 20
3.43968
 30
0.0
 10
-6.76628
 20
3.43968
 30
0.0
 10
-4.14309
 20
2.62844
 30
0.0
 10
-4.14309
 20
2.62844
 30
0.0
 10
-4.14309
 20
2.62844
 30
0.0
 10
-4.14309
 20
2.62844
 30
0.0
 10
-1.49636
 20
1.76979
 30
0.0
 10
-1.49636
 20
1.76979
 30
0.0
 10
-1.49636
 20
1.76979
 30
0.0
 10
-1.49636
 20
1.76979
 30
0.0
 10
-1.74864
 20
2.13214
 30
0.0
 10
-1.75634
 20
2.51012
 30
0.0
 10
-1.75634
 20
2.51012
 30
0.0
 10
-1.76449
 20
2.88827
 30
0.0
 10
-1.78815
 20
3.25853
 30
0.0
 10
-1.78815
 20
3.25853
 30
0.0
  0
ENDSEC
  0
SECTION
  2
OBJECTS
  0
DICTIONARY
  5
C
330
0
100
AcDbDictionary
281
     1
  3
ACAD_GROUP
350
D
  3
ACAD_LAYOUT
350
1A
  3
ACAD_MATERIAL
350
3B
  3
ACAD_MLEADERSTYLE
350
65
  3
ACAD_MLINESTYLE
350
17
  3
ACAD_PLOTSETTINGS
350
19
  3
ACAD_PLOTSTYLENAME
350
E
  3
ACAD_TABLESTYLE
350
64
  3
ACAD_VISUALSTYLE
350
2A
  0
DICTIONARY
  5
D
102
{ACAD_REACTORS
330
C
102
}
330
C
100
AcDbDictionary
281
     1
  0
DICTIONARY
  5
1A
102
{ACAD_REACTORS
330
C
102
}
330
C
100
AcDbDictionary
281
     1
  3
Layout1
350
1E
  3
Layout2
350
26
  3
Model
350
22
  0
DICTIONARY
  5
3B
102
{ACAD_REACTORS
330
C
102
}
330
C
100
AcDbDictionary
281
     1
  3
ByBlock
350
3D
  3
ByLayer
350
3C
  3
Global
350
3E
  0
DICTIONARY
  5
65
102
{ACAD_REACTORS
330
C
102
}
330
C
100
AcDbDictionary
281
     1
  0
DICTIONARY
  5
17
102
{ACAD_REACTORS
330
C
102
}
330
C
100
AcDbDictionary
281
     1
  3
Standard
350
18
  0
DICTIONARY
  5
19
102
{ACAD_REACTORS
330
C
102
}
330
C
100
AcDbDictionary
281
     1
  0
ACDBDICTIONARYWDFLT
  5
E
102
{ACAD_REACTORS
330
C
102
}
330
C
100
AcDbDictionary
281
     1
  3
Normal
350
F
100
AcDbDictionaryWithDefault
340
F
  0
DICTIONARY
  5
64
102
{ACAD_REACTORS
330
C
102
}
330
C
100
AcDbDictionary
281
     1
  0
DICTIONARY
  5
2A
102
{ACAD_REACTORS
330
C
102
}
330
C
100
AcDbDictionary
281
     1
  3
2dWireframe
350
2F
  3
3D Hidden
350
31
  3
3dWireframe
350
30
  3
Basic
350
32
  3
Brighten
350
36
  3
ColorChange
350
3A
  3
Conceptual
350
34
  3
Dim
350
35
  3
Facepattern
350
39
  3
Flat
350
2B
  3
FlatWithEdges
350
2C
  3
Gouraud
350
2D
  3
GouraudWithEdges
350
2E
  3
Linepattern
350
38
  3
Realistic
350
33
  3
Thicken
350
37
  0
LAYOUT
  5
1E
102
{ACAD_REACTORS
330
1A
102
}
330
1A
100
AcDbPlotSettings
  1

  2
none_device
  4

  6

 40
0.0
 41
0.0
 42
0.0
 43
0.0
 44
0.0
 45
0.0
 46
0.0
 47
0.0
 48
0.0
 49
0.0
140
0.0
141
0.0
142
1.0
143
1.0
 70
   688
 72
     0
 73
     0
 74
     5
  7

 75
    16
 76
     0
 77
     2
 78
   300
147
1.0
148
0.0
149
0.0
100
AcDbLayout
  1
Layout1
 70
     1
 71
     1
 10
0.0
 20
0.0
 11
12.0
 21
9.0
 12
0.0
 22
0.0
 32
0.0
 14
1.000000000000000E+20
 24
1.000000000000000E+20
 34
1.000000000000000E+20
 15
-1.000000000000000E+20
 25
-1.000000000000000E+20
 35
-1.000000000000000E+20
146
0.0
 13
0.0
 23
0.0
 33
0.0
 16
1.0
 26
0.0
 36
0.0
 17
0.0
 27
1.0
 37
0.0
 76
     0
330
1B
  0
LAYOUT
  5
26
102
{ACAD_REACTORS
330
1A
102
}
330
1A
100
AcDbPlotSettings
  1

  2
none_device
  4

  6

 40
0.0
 41
0.0
 42
0.0
 43
0.0
 44
0.0
 45
0.0
 46
0.0
 47
0.0
 48
0.0
 49
0.0
140
0.0
141
0.0
142
1.0
143
1.0
 70
   688
 72
     0
 73
     0
 74
     5
  7

 75
    16
 76
     0
 77
     2
 78
   300
147
1.0
148
0.0
149
0.0
100
AcDbLayout
  1
Layout2
 70
     1
 71
     2
 10
0.0
 20
0.0
 11
0.0
 21
0.0
 12
0.0
 22
0.0
 32
0.0
 14
0.0
 24
0.0
 34
0.0
 15
0.0
 25
0.0
 35
0.0
146
0.0
 13
0.0
 23
0.0
 33
0.0
 16
1.0
 26
0.0
 36
0.0
 17
0.0
 27
1.0
 37
0.0
 76
     0
330
23
  0
LAYOUT
  5
22
102
{ACAD_REACTORS
330
1A
102
}
330
1A
100
AcDbPlotSettings
  1

  2
none_device
  4

  6

 40
0.0
 41
0.0
 42
0.0
 43
0.0
 44
0.0
 45
0.0
 46
0.0
 47
0.0
 48
0.0
 49
0.0
140
0.0
141
0.0
142
1.0
143
1.0
 70
  1712
 72
     0
 73
     0
 74
     0
  7

 75
     0
 76
     0
 77
     2
 78
   300
147
1.0
148
0.0
149
0.0
100
AcDbLayout
  1
Model
 70
     1
 71
     0
 10
0.0
 20
0.0
 11
12.0
 21
9.0
 12
0.0
 22
0.0
 32
0.0
 14
-11.09071
 24
-5.23668
 34
0.0
 15
11.09068
 25
5.23665
 35
0.0
146
0.0
 13
0.0
 23
0.0
 33
0.0
 16
1.0
 26
0.0
 36
0.0
 17
0.0
 27
1.0
 37
0.0
 76
     0
330
1F
331
29
  0
MATERIAL
  5
3D
102
{ACAD_REACTORS
330
3B
102
}
330
3B
100
AcDbMaterial
  1
ByBlock
 72
     1
 94
      127
  0
MATERIAL
  5
3C
102
{ACAD_REACTORS
330
3B
102
}
330
3B
100
AcDbMaterial
  1
ByLayer
 72
     1
 94
      127
  0
MATERIAL
  5
3E
102
{ACAD_REACTORS
330
3B
102
}
330
3B
100
AcDbMaterial
  1
Global
 72
     1
 94
      127
  0
MLINESTYLE
  5
18
102
{ACAD_REACTORS
330
17
102
}
330
17
100
AcDbMlineStyle
  2
Standard
 70
     0
  3

 62
   256
 51
90.0
 52
90.0
 71
     2
 49
0.5
 62
   256
  6
BYLAYER
 49
-0.5
 62
   256
  6
BYLAYER
  0
ACDBPLACEHOLDER
  5
F
102
{ACAD_REACTORS
330
E
102
}
330
E
  0
VISUALSTYLE
  5
2F
102
{ACAD_REACTORS
330
2A
102
}
102
{ACAD_XDICTIONARY
360
4C
102
}
330
2A
100
AcDbVisualStyle
  2
2dWireframe
 70
     4
 71
     0
 72
     2
 73
     0
 90
        0
 40
-0.6
 41
-30.0
 62
     5
 63
     7
421
 16777215
 74
     1
 91
        4
 64
     7
 65
   257
 75
     1
175
     1
 42
1.0
 92
        0
 66
   257
 43
1.0
 76
     1
 77
     6
 78
     2
 67
     7
 79
     5
170
     0
171
     0
290
     0
174
     0
 93
        1
 44
0.0
173
     0
291
     0
 45
0.0
  0
VISUALSTYLE
  5
31
102
{ACAD_REACTORS
330
2A
102
}
102
{ACAD_XDICTIONARY
360
50
102
}
330
2A
100
AcDbVisualStyle
  2
3D Hidden
 70
     6
 71
     1
 72
     2
 73
     2
 90
        0
 40
-0.6
 41
-30.0
 62
     5
 63
     7
421
 16777215
 74
     2
 91
        2
 64
     7
 65
   257
 75
     2
175
     1
 42
40.0
 92
        0
 66
   257
 43
1.0
 76
     1
 77
     6
 78
     2
 67
     7
 79
     3
170
     0
171
     0
290
     0
174
     0
 93
        1
 44
0.0
173
     0
291
     0
 45
0.0
  0
VISUALSTYLE
  5
30
102
{ACAD_REACTORS
330
2A
102
}
102
{ACAD_XDICTIONARY
360
4E
102
}
330
2A
100
AcDbVisualStyle
  2
3dWireframe
 70
     5
 71
     0
 72
     2
 73
     0
 90
        0
 40
-0.6
 41
-30.0
 62
     5
 63
     7
421
 16777215
 74
     1
 91
        4
 64
     7
 65
   257
 75
     1
175
     1
 42
1.0
 92
        0
 66
   257
 43
1.0
 76
     1
 77
     6
 78
     2
 67
     7
 79
     5
170
     0
171
     0
290
     0
174
     0
 93
        1
 44
0.0
173
     0
291
     0
 45
0.0
  0
VISUALSTYLE
  5
32
102
{ACAD_REACTORS
330
2A
102
}
102
{ACAD_XDICTIONARY
360
52
102
}
330
2A
100
AcDbVisualStyle
  2
Basic
 70
     7
 71
     1
 72
     0
 73
     1
 90
        0
 40
-0.6
 41
-30.0
 62
     5
 63
     7
421
 16777215
 74
     0
 91
        4
 64
     7
 65
   257
 75
     1
175
     1
 42
1.0
 92
        8
 66
     7
 43
1.0
 76
     1
 77
     6
 78
     2
 67
     7
 79
     5
170
     0
171
     0
290
     0
174
     0
 93
        1
 44
0.0
173
     0
291
     1
 45
0.0
  0
VISUALSTYLE
  5
36
102
{ACAD_REACTORS
330
2A
102
}
102
{ACAD_XDICTIONARY
360
5A
102
}
330
2A
100
AcDbVisualStyle
  2
Brighten
 70
    12
 71
     2
 72
     2
 73
     0
 90
        0
 40
-0.6
 41
-30.0
 62
     5
 63
     7
421
 16777215
 74
     1
 91
        4
 64
     7
 65
   257
 75
     1
175
     1
 42
1.0
 92
        8
 66
     7
 43
1.0
 76
     1
 77
     6
 78
     2
 67
     7
 79
     5
170
     0
171
     0
290
     0
174
     0
 93
        1
 44
50.0
173
     0
291
     1
 45
0.0
  0
VISUALSTYLE
  5
3A
102
{ACAD_REACTORS
330
2A
102
}
102
{ACAD_XDICTIONARY
360
62
102
}
330
2A
100
AcDbVisualStyle
  2
ColorChange
 70
    16
 71
     2
 72
     2
 73
     3
 90
        0
 40
-0.6
 41
-30.0
 62
     5
 63
     8
421
  8421504
 74
     1
 91
        4
 64
     7
 65
   257
 75
     1
175
     1
 42
1.0
 92
        8
 66
     8
424
  8421504
 43
1.0
 76
     1
 77
     6
 78
     2
 67
     7
 79
     5
170
     0
171
     0
290
     0
174
     0
 93
        1
 44
0.0
173
     0
291
     1
 45
0.0
  0
VISUALSTYLE
  5
34
102
{ACAD_REACTORS
330
2A
102
}
102
{ACAD_XDICTIONARY
360
56
102
}
330
2A
100
AcDbVisualStyle
  2
Conceptual
 70
     9
 71
     3
 72
     2
 73
     0
 90
        0
 40
-0.6
 41
-30.0
 62
     5
 63
     7
421
 16777215
 74
     2
 91
        2
 64
     7
 65
   257
 75
     1
175
     1
 42
40.0
 92
        8
 66
     7
 43
1.0
 76
     1
 77
     6
 78
     2
 67
     7
 79
     3
170
     0
171
     0
290
     0
174
     0
 93
        1
 44
0.0
173
     0
291
     0
 45
0.0
  0
VISUALSTYLE
  5
35
102
{ACAD_REACTORS
330
2A
102
}
102
{ACAD_XDICTIONARY
360
58
102
}
330
2A
100
AcDbVisualStyle
  2
Dim
 70
    11
 71
     2
 72
     2
 73
     0
 90
        0
 40
-0.6
 41
-30.0
 62
     5
 63
     7
421
 16777215
 74
     1
 91
        4
 64
     7
 65
   257
 75
     1
175
     1
 42
1.0
 92
        8
 66
     7
 43
1.0
 76
     1
 77
     6
 78
     2
 67
     7
 79
     5
170
     0
171
     0
290
     0
174
     0
 93
        1
 44
-50.0
173
     0
291
     1
 45
0.0
  0
VISUALSTYLE
  5
39
102
{ACAD_REACTORS
330
2A
102
}
102
{ACAD_XDICTIONARY
360
60
102
}
330
2A
100
AcDbVisualStyle
  2
Facepattern
 70
    15
 71
     2
 72
     2
 73
     0
 90
        0
 40
-0.6
 41
-30.0
 62
     5
 63
     7
421
 16777215
 74
     1
 91
        4
 64
     7
 65
   257
 75
     1
175
     1
 42
1.0
 92
        8
 66
     7
 43
1.0
 76
     1
 77
     6
 78
     2
 67
     7
 79
     5
170
     0
171
     0
290
     0
174
     0
 93
        1
 44
0.0
173
     0
291
     1
 45
0.0
  0
VISUALSTYLE
  5
2B
102
{ACAD_REACTORS
330
2A
102
}
102
{ACAD_XDICTIONARY
360
44
102
}
330
2A
100
AcDbVisualStyle
  2
Flat
 70
     0
 71
     2
 72
     1
 73
     1
 90
        2
 40
-0.6
 41
30.0
 62
     5
 63
     7
421
 16777215
 74
     0
 91
        4
 64
     7
 65
   257
 75
     1
175
     1
 42
1.0
 92
        8
 66
     7
 43
1.0
 76
     1
 77
     6
 78
     2
 67
     7
 79
     5
170
     0
171
     0
290
     0
174
     0
 93
       13
 44
0.0
173
     0
291
     1
 45
0.0
  0
VISUALSTYLE
  5
2C
102
{ACAD_REACTORS
330
2A
102
}
102
{ACAD_XDICTIONARY
360
46
102
}
330
2A
100
AcDbVisualStyle
  2
FlatWithEdges
 70
     1
 71
     2
 72
     1
 73
     1
 90
        2
 40
-0.6
 41
30.0
 62
     5
 63
     7
421
 16777215
 74
     1
 91
        4
 64
     7
 65
   257
 75
     1
175
     1
 42
1.0
 92
        0
 66
   257
 43
1.0
 76
     1
 77
     6
 78
     2
 67
     7
 79
     5
170
     0
171
     0
290
     0
174
     0
 93
       13
 44
0.0
173
     0
291
     1
 45
0.0
  0
VISUALSTYLE
  5
2D
102
{ACAD_REACTORS
330
2A
102
}
102
{ACAD_XDICTIONARY
360
48
102
}
330
2A
100
AcDbVisualStyle
  2
Gouraud
 70
     2
 71
     2
 72
     2
 73
     1
 90
        2
 40
-0.6
 41
30.0
 62
     5
 63
     7
421
 16777215
 74
     0
 91
        4
 64
     7
 65
   257
 75
     1
175
     1
 42
1.0
 92
        0
 66
     7
 43
1.0
 76
     1
 77
     6
 78
     2
 67
     7
 79
     5
170
     0
171
     0
290
     0
174
     0
 93
       13
 44
0.0
173
     0
291
     1
 45
0.0
  0
VISUALSTYLE
  5
2E
102
{ACAD_REACTORS
330
2A
102
}
102
{ACAD_XDICTIONARY
360
4A
102
}
330
2A
100
AcDbVisualStyle
  2
GouraudWithEdges
 70
     3
 71
     2
 72
     2
 73
     1
 90
        2
 40
-0.6
 41
30.0
 62
     5
 63
     7
421
 16777215
 74
     1
 91
        4
 64
     7
 65
   257
 75
     1
175
     1
 42
1.0
 92
        0
 66
   257
 43
1.0
 76
     1
 77
     6
 78
     2
 67
     7
 79
     5
170
     0
171
     0
290
     0
174
     0
 93
       13
 44
0.0
173
     0
291
     1
 45
0.0
  0
VISUALSTYLE
  5
38
102
{ACAD_REACTORS
330
2A
102
}
102
{ACAD_XDICTIONARY
360
5E
102
}
330
2A
100
AcDbVisualStyle
  2
Linepattern
 70
    14
 71
     2
 72
     2
 73
     0
 90
        0
 40
-0.6
 41
-30.0
 62
     5
 63
     7
421
 16777215
 74
     1
 91
        4
 64
     7
 65
   257
 75
     7
175
     7
 42
1.0
 92
        8
 66
     7
 43
1.0
 76
     1
 77
     6
 78
     2
 67
     7
 79
     5
170
     0
171
     0
290
     0
174
     0
 93
        1
 44
0.0
173
     0
291
     1
 45
0.0
  0
VISUALSTYLE
  5
33
102
{ACAD_REACTORS
330
2A
102
}
102
{ACAD_XDICTIONARY
360
54
102
}
330
2A
100
AcDbVisualStyle
  2
Realistic
 70
     8
 71
     2
 72
     2
 73
     0
 90
        0
 40
-0.6
 41
-30.0
 62
     5
 63
     7
421
 16777215
 74
     1
 91
        0
 64
     7
 65
   257
 75
     1
175
     1
 42
1.0
 92
        8
 66
     8
424
  7895160
 43
1.0
 76
     1
 77
     6
 78
     2
 67
     7
 79
     5
170
     0
171
     0
290
     0
174
     0
 93
       13
 44
0.0
173
     0
291
     0
 45
0.0
  0
VISUALSTYLE
  5
37
102
{ACAD_REACTORS
330
2A
102
}
102
{ACAD_XDICTIONARY
360
5C
102
}
330
2A
100
AcDbVisualStyle
  2
Thicken
 70
    13
 71
     2
 72
     2
 73
     0
 90
        0
 40
-0.6
 41
-30.0
 62
     5
 63
     7
421
 16777215
 74
     1
 91
        4
 64
     7
 65
   257
 75
     1
175
     1
 42
1.0
 92
       12
 66
     7
 43
1.0
 76
     1
 77
     6
 78
     2
 67
     7
 79
     5
170
     0
171
     0
290
     0
174
     0
 93
        1
 44
0.0
173
     0
291
     1
 45
0.0
  0
DICTIONARY
  5
4C
330
2F
100
AcDbDictionary
280
     1
281
     1
  3
ACAD_XREC_ROUNDTRIP
360
4D
  0
DICTIONARY
  5
50
330
31
100
AcDbDictionary
280
     1
281
     1
  3
ACAD_XREC_ROUNDTRIP
360
51
  0
DICTIONARY
  5
4E
330
30
100
AcDbDictionary
280
     1
281
     1
  3
ACAD_XREC_ROUNDTRIP
360
4F
  0
DICTIONARY
  5
52
330
32
100
AcDbDictionary
280
     1
281
     1
  3
ACAD_XREC_ROUNDTRIP
360
53
  0
DICTIONARY
  5
5A
330
36
100
AcDbDictionary
280
     1
281
     1
  3
ACAD_XREC_ROUNDTRIP
360
5B
  0
DICTIONARY
  5
62
330
3A
100
AcDbDictionary
280
     1
281
     1
  3
ACAD_XREC_ROUNDTRIP
360
63
  0
DICTIONARY
  5
56
330
34
100
AcDbDictionary
280
     1
281
     1
  3
ACAD_XREC_ROUNDTRIP
360
57
  0
DICTIONARY
  5
58
330
35
100
AcDbDictionary
280
     1
281
     1
  3
ACAD_XREC_ROUNDTRIP
360
59
  0
DICTIONARY
  5
60
330
39
100
AcDbDictionary
280
     1
281
     1
  3
ACAD_XREC_ROUNDTRIP
360
61
  0
DICTIONARY
  5
44
330
2B
100
AcDbDictionary
280
     1
281
     1
  3
ACAD_XREC_ROUNDTRIP
360
45
  0
DICTIONARY
  5
46
330
2C
100
AcDbDictionary
280
     1
281
     1
  3
ACAD_XREC_ROUNDTRIP
360
47
  0
DICTIONARY
  5
48
330
2D
100
AcDbDictionary
280
     1
281
     1
  3
ACAD_XREC_ROUNDTRIP
360
49
  0
DICTIONARY
  5
4A
330
2E
100
AcDbDictionary
280
     1
281
     1
  3
ACAD_XREC_ROUNDTRIP
360
4B
  0
DICTIONARY
  5
5E
330
38
100
AcDbDictionary
280
     1
281
     1
  3
ACAD_XREC_ROUNDTRIP
360
5F
  0
DICTIONARY
  5
54
330
33
100
AcDbDictionary
280
     1
281
     1
  3
ACAD_XREC_ROUNDTRIP
360
55
  0
DICTIONARY
  5
5C
330
37
100
AcDbDictionary
280
     1
281
     1
  3
ACAD_XREC_ROUNDTRIP
360
5D
  0
XRECORD
  5
4D
102
{ACAD_REACTORS
330
4C
102
}
330
4C
100
AcDbXrecord
280
     1
102
RTVSPropertyOp0
 70
     1
102
RTVSPropertyOp1
 70
     1
102
RTVSPropertyOp2
 70
     1
102
RTVSPropertyOp3
 70
     1
102
RTVSPropertyOp4
 70
     1
102
RTVSPropertyOp5
 70
     1
102
RTVSPropertyOp6
 70
     1
102
RTVSPropertyOp7
 70
     1
102
RTVSPropertyOp8
 70
     1
102
RTVSPropertyOp9
 70
     1
102
RTVSPropertyOp10
 70
     1
102
RTVSPropertyOp11
 70
     1
102
RTVSPropertyOp12
 70
     1
102
RTVSPropertyOp13
 70
     1
102
RTVSPropertyOp14
 70
     1
102
RTVSPropertyOp15
 70
     1
102
RTVSPropertyOp16
 70
     1
102
RTVSPropertyOp17
 70
     1
102
RTVSPropertyOp18
 70
     1
102
RTVSPropertyOp19
 70
     1
102
RTVSPropertyOp20
 70
     1
102
RTVSPropertyOp21
 70
     1
102
RTVSPropertyOp22
 70
     1
102
RTVSPropertyOp23
 70
     1
102
RTVSPropertyOp24
 70
     1
102
RTVSPropertyOp25
 70
     1
102
RTVSPropertyOp26
 70
     1
102
RTVSPropertyOp27
 70
     1
102
RTVSPropertyOp28
 70
     1
102
RTVSPropertyOp29
 70
     1
102
RTVSPropertyOp30
 70
     1
102
RTVSPropertyOp31
 70
     1
102
RTVSPropertyOp32
 70
     1
  0
XRECORD
  5
51
102
{ACAD_REACTORS
330
50
102
}
330
50
100
AcDbXrecord
280
     1
102
RTVSPropertyOp0
 70
     1
102
RTVSPropertyOp1
 70
     1
102
RTVSPropertyOp2
 70
     1
102
RTVSPropertyOp3
 70
     1
102
RTVSPropertyOp4
 70
     1
102
RTVSPropertyOp5
 70
     1
102
RTVSPropertyOp6
 70
     1
102
RTVSPropertyOp7
 70
     1
102
RTVSPropertyOp8
 70
     1
102
RTVSPropertyOp9
 70
     1
102
RTVSPropertyOp10
 70
     1
102
RTVSPropertyOp11
 70
     1
102
RTVSPropertyOp12
 70
     1
102
RTVSPropertyOp13
 70
     1
102
RTVSPropertyOp14
 70
     1
102
RTVSPropertyOp15
 70
     1
102
RTVSPropertyOp16
 70
     1
102
RTVSPropertyOp17
 70
     1
102
RTVSPropertyOp18
 70
     1
102
RTVSPropertyOp19
 70
     1
102
RTVSPropertyOp20
 70
     1
102
RTVSPropertyOp21
 70
     1
102
RTVSPropertyOp22
 70
     1
102
RTVSPropertyOp23
 70
     1
102
RTVSPropertyOp24
 70
     1
102
RTVSPropertyOp25
 70
     1
102
RTVSPropertyOp26
 70
     1
102
RTVSPropertyOp27
 70
     1
102
RTVSPropertyOp28
 70
     1
102
RTVSPropertyOp29
 70
     1
102
RTVSPropertyOp30
 70
     1
102
RTVSPropertyOp31
 70
     1
102
RTVSPropertyOp32
 70
     1
  0
XRECORD
  5
4F
102
{ACAD_REACTORS
330
4E
102
}
330
4E
100
AcDbXrecord
280
     1
102
RTVSPropertyOp0
 70
     1
102
RTVSPropertyOp1
 70
     1
102
RTVSPropertyOp2
 70
     1
102
RTVSPropertyOp3
 70
     1
102
RTVSPropertyOp4
 70
     1
102
RTVSPropertyOp5
 70
     1
102
RTVSPropertyOp6
 70
     1
102
RTVSPropertyOp7
 70
     1
102
RTVSPropertyOp8
 70
     1
102
RTVSPropertyOp9
 70
     1
102
RTVSPropertyOp10
 70
     1
102
RTVSPropertyOp11
 70
     1
102
RTVSPropertyOp12
 70
     1
102
RTVSPropertyOp13
 70
     1
102
RTVSPropertyOp14
 70
     1
102
RTVSPropertyOp15
 70
     1
102
RTVSPropertyOp16
 70
     1
102
RTVSPropertyOp17
 70
     1
102
RTVSPropertyOp18
 70
     1
102
RTVSPropertyOp19
 70
     1
102
RTVSPropertyOp20
 70
     1
102
RTVSPropertyOp21
 70
     1
102
RTVSPropertyOp22
 70
     1
102
RTVSPropertyOp23
 70
     1
102
RTVSPropertyOp24
 70
     1
102
RTVSPropertyOp25
 70
     1
102
RTVSPropertyOp26
 70
     1
102
RTVSPropertyOp27
 70
     1
102
RTVSPropertyOp28
 70
     1
102
RTVSPropertyOp29
 70
     1
102
RTVSPropertyOp30
 70
     1
102
RTVSPropertyOp31
 70
     1
102
RTVSPropertyOp32
 70
     1
  0
XRECORD
  5
53
102
{ACAD_REACTORS
330
52
102
}
330
52
100
AcDbXrecord
280
     1
102
RTVSPropertyOp0
 70
     1
102
RTVSPropertyOp1
 70
     1
102
RTVSPropertyOp2
 70
     1
102
RTVSPropertyOp3
 70
     1
102
RTVSPropertyOp4
 70
     1
102
RTVSPropertyOp5
 70
     1
102
RTVSPropertyOp6
 70
     1
102
RTVSPropertyOp7
 70
     1
102
RTVSPropertyOp8
 70
     1
102
RTVSPropertyOp9
 70
     1
102
RTVSPropertyOp10
 70
     1
102
RTVSPropertyOp11
 70
     1
102
RTVSPropertyOp12
 70
     1
102
RTVSPropertyOp13
 70
     1
102
RTVSPropertyOp14
 70
     1
102
RTVSPropertyOp15
 70
     1
102
RTVSPropertyOp16
 70
     1
102
RTVSPropertyOp17
 70
     1
102
RTVSPropertyOp18
 70
     1
102
RTVSPropertyOp19
 70
     1
102
RTVSPropertyOp20
 70
     1
102
RTVSPropertyOp21
 70
     1
102
RTVSPropertyOp22
 70
     1
102
RTVSPropertyOp23
 70
     1
102
RTVSPropertyOp24
 70
     1
102
RTVSPropertyOp25
 70
     1
102
RTVSPropertyOp26
 70
     1
102
RTVSPropertyOp27
 70
     1
102
RTVSPropertyOp28
 70
     1
102
RTVSPropertyOp29
 70
     1
102
RTVSPropertyOp30
 70
     1
102
RTVSPropertyOp31
 70
     1
102
RTVSPropertyOp32
 70
     1
  0
XRECORD
  5
5B
102
{ACAD_REACTORS
330
5A
102
}
330
5A
100
AcDbXrecord
280
     1
102
RTVSPropertyOp0
 70
     1
102
RTVSPropertyOp1
 70
     1
102
RTVSPropertyOp2
 70
     1
102
RTVSPropertyOp3
 70
     1
102
RTVSPropertyOp4
 70
     1
102
RTVSPropertyOp5
 70
     1
102
RTVSPropertyOp6
 70
     1
102
RTVSPropertyOp7
 70
     1
102
RTVSPropertyOp8
 70
     1
102
RTVSPropertyOp9
 70
     1
102
RTVSPropertyOp10
 70
     1
102
RTVSPropertyOp11
 70
     1
102
RTVSPropertyOp12
 70
     1
102
RTVSPropertyOp13
 70
     1
102
RTVSPropertyOp14
 70
     1
102
RTVSPropertyOp15
 70
     1
102
RTVSPropertyOp16
 70
     1
102
RTVSPropertyOp17
 70
     1
102
RTVSPropertyOp18
 70
     1
102
RTVSPropertyOp19
 70
     1
102
RTVSPropertyOp20
 70
     1
102
RTVSPropertyOp21
 70
     1
102
RTVSPropertyOp22
 70
     1
102
RTVSPropertyOp23
 70
     1
102
RTVSPropertyOp24
 70
     1
102
RTVSPropertyOp25
 70
     1
102
RTVSPropertyOp26
 70
     1
102
RTVSPropertyOp27
 70
     1
102
RTVSPropertyOp28
 70
     1
102
RTVSPropertyOp29
 70
     1
102
RTVSPropertyOp30
 70
     1
102
RTVSPropertyOp31
 70
     1
102
RTVSPropertyOp32
 70
     1
  0
XRECORD
  5
63
102
{ACAD_REACTORS
330
62
102
}
330
62
100
AcDbXrecord
280
     1
102
RTVSPropertyOp0
 70
     1
102
RTVSPropertyOp1
 70
     1
102
RTVSPropertyOp2
 70
     1
102
RTVSPropertyOp3
 70
     1
102
RTVSPropertyOp4
 70
     1
102
RTVSPropertyOp5
 70
     1
102
RTVSPropertyOp6
 70
     1
102
RTVSPropertyOp7
 70
     1
102
RTVSPropertyOp8
 70
     1
102
RTVSPropertyOp9
 70
     1
102
RTVSPropertyOp10
 70
     1
102
RTVSPropertyOp11
 70
     1
102
RTVSPropertyOp12
 70
     1
102
RTVSPropertyOp13
 70
     1
102
RTVSPropertyOp14
 70
     1
102
RTVSPropertyOp15
 70
     1
102
RTVSPropertyOp16
 70
     1
102
RTVSPropertyOp17
 70
     1
102
RTVSPropertyOp18
 70
     1
102
RTVSPropertyOp19
 70
     1
102
RTVSPropertyOp20
 70
     1
102
RTVSPropertyOp21
 70
     1
102
RTVSPropertyOp22
 70
     1
102
RTVSPropertyOp23
 70
     1
102
RTVSPropertyOp24
 70
     1
102
RTVSPropertyOp25
 70
     1
102
RTVSPropertyOp26
 70
     1
102
RTVSPropertyOp27
 70
     1
102
RTVSPropertyOp28
 70
     1
102
RTVSPropertyOp29
 70
     1
102
RTVSPropertyOp30
 70
     1
102
RTVSPropertyOp31
 70
     1
102
RTVSPropertyOp32
 70
     1
  0
XRECORD
  5
57
102
{ACAD_REACTORS
330
56
102
}
330
56
100
AcDbXrecord
280
     1
102
RTVSPropertyOp0
 70
     1
102
RTVSPropertyOp1
 70
     1
102
RTVSPropertyOp2
 70
     1
102
RTVSPropertyOp3
 70
     1
102
RTVSPropertyOp4
 70
     1
102
RTVSPropertyOp5
 70
     1
102
RTVSPropertyOp6
 70
     1
102
RTVSPropertyOp7
 70
     1
102
RTVSPropertyOp8
 70
     1
102
RTVSPropertyOp9
 70
     1
102
RTVSPropertyOp10
 70
     1
102
RTVSPropertyOp11
 70
     1
102
RTVSPropertyOp12
 70
     1
102
RTVSPropertyOp13
 70
     1
102
RTVSPropertyOp14
 70
     1
102
RTVSPropertyOp15
 70
     1
102
RTVSPropertyOp16
 70
     1
102
RTVSPropertyOp17
 70
     1
102
RTVSPropertyOp18
 70
     1
102
RTVSPropertyOp19
 70
     1
102
RTVSPropertyOp20
 70
     1
102
RTVSPropertyOp21
 70
     1
102
RTVSPropertyOp22
 70
     1
102
RTVSPropertyOp23
 70
     1
102
RTVSPropertyOp24
 70
     1
102
RTVSPropertyOp25
 70
     1
102
RTVSPropertyOp26
 70
     1
102
RTVSPropertyOp27
 70
     1
102
RTVSPropertyOp28
 70
     1
102
RTVSPropertyOp29
 70
     1
102
RTVSPropertyOp30
 70
     1
102
RTVSPropertyOp31
 70
     1
102
RTVSPropertyOp32
 70
     1
  0
XRECORD
  5
59
102
{ACAD_REACTORS
330
58
102
}
330
58
100
AcDbXrecord
280
     1
102
RTVSPropertyOp0
 70
     1
102
RTVSPropertyOp1
 70
     1
102
RTVSPropertyOp2
 70
     1
102
RTVSPropertyOp3
 70
     1
102
RTVSPropertyOp4
 70
     1
102
RTVSPropertyOp5
 70
     1
102
RTVSPropertyOp6
 70
     1
102
RTVSPropertyOp7
 70
     1
102
RTVSPropertyOp8
 70
     1
102
RTVSPropertyOp9
 70
     1
102
RTVSPropertyOp10
 70
     1
102
RTVSPropertyOp11
 70
     1
102
RTVSPropertyOp12
 70
     1
102
RTVSPropertyOp13
 70
     1
102
RTVSPropertyOp14
 70
     1
102
RTVSPropertyOp15
 70
     1
102
RTVSPropertyOp16
 70
     1
102
RTVSPropertyOp17
 70
     1
102
RTVSPropertyOp18
 70
     1
102
RTVSPropertyOp19
 70
     1
102
RTVSPropertyOp20
 70
     1
102
RTVSPropertyOp21
 70
     1
102
RTVSPropertyOp22
 70
     1
102
RTVSPropertyOp23
 70
     1
102
RTVSPropertyOp24
 70
     1
102
RTVSPropertyOp25
 70
     1
102
RTVSPropertyOp26
 70
     1
102
RTVSPropertyOp27
 70
     1
102
RTVSPropertyOp28
 70
     1
102
RTVSPropertyOp29
 70
     1
102
RTVSPropertyOp30
 70
     1
102
RTVSPropertyOp31
 70
     1
102
RTVSPropertyOp32
 70
     1
  0
XRECORD
  5
61
102
{ACAD_REACTORS
330
60
102
}
330
60
100
AcDbXrecord
280
     1
102
RTVSPropertyOp0
 70
     1
102
RTVSPropertyOp1
 70
     1
102
RTVSPropertyOp2
 70
     1
102
RTVSPropertyOp3
 70
     1
102
RTVSPropertyOp4
 70
     1
102
RTVSPropertyOp5
 70
     1
102
RTVSPropertyOp6
 70
     1
102
RTVSPropertyOp7
 70
     1
102
RTVSPropertyOp8
 70
     1
102
RTVSPropertyOp9
 70
     1
102
RTVSPropertyOp10
 70
     1
102
RTVSPropertyOp11
 70
     1
102
RTVSPropertyOp12
 70
     1
102
RTVSPropertyOp13
 70
     1
102
RTVSPropertyOp14
 70
     1
102
RTVSPropertyOp15
 70
     1
102
RTVSPropertyOp16
 70
     1
102
RTVSPropertyOp17
 70
     1
102
RTVSPropertyOp18
 70
     1
102
RTVSPropertyOp19
 70
     1
102
RTVSPropertyOp20
 70
     1
102
RTVSPropertyOp21
 70
     1
102
RTVSPropertyOp22
 70
     1
102
RTVSPropertyOp23
 70
     1
102
RTVSPropertyOp24
 70
     1
102
RTVSPropertyOp25
 70
     1
102
RTVSPropertyOp26
 70
     1
102
RTVSPropertyOp27
 70
     1
102
RTVSPropertyOp28
 70
     1
102
RTVSPropertyOp29
 70
     1
102
RTVSPropertyOp30
 70
     1
102
RTVSPropertyOp31
 70
     1
102
RTVSPropertyOp32
 70
     1
  0
XRECORD
  5
45
102
{ACAD_REACTORS
330
44
102
}
330
44
100
AcDbXrecord
280
     1
102
RTVSPropertyOp0
 70
     1
102
RTVSPropertyOp1
 70
     1
102
RTVSPropertyOp2
 70
     1
102
RTVSPropertyOp3
 70
     1
102
RTVSPropertyOp4
 70
     1
102
RTVSPropertyOp5
 70
     1
102
RTVSPropertyOp6
 70
     1
102
RTVSPropertyOp7
 70
     1
102
RTVSPropertyOp8
 70
     1
102
RTVSPropertyOp9
 70
     1
102
RTVSPropertyOp10
 70
     1
102
RTVSPropertyOp11
 70
     1
102
RTVSPropertyOp12
 70
     1
102
RTVSPropertyOp13
 70
     1
102
RTVSPropertyOp14
 70
     1
102
RTVSPropertyOp15
 70
     1
102
RTVSPropertyOp16
 70
     1
102
RTVSPropertyOp17
 70
     1
102
RTVSPropertyOp18
 70
     1
102
RTVSPropertyOp19
 70
     1
102
RTVSPropertyOp20
 70
     1
102
RTVSPropertyOp21
 70
     1
102
RTVSPropertyOp22
 70
     1
102
RTVSPropertyOp23
 70
     1
102
RTVSPropertyOp24
 70
     1
102
RTVSPropertyOp25
 70
     1
102
RTVSPropertyOp26
 70
     1
102
RTVSPropertyOp27
 70
     1
102
RTVSPropertyOp28
 70
     1
102
RTVSPropertyOp29
 70
     1
102
RTVSPropertyOp30
 70
     1
102
RTVSPropertyOp31
 70
     1
102
RTVSPropertyOp32
 70
     1
  0
XRECORD
  5
47
102
{ACAD_REACTORS
330
46
102
}
330
46
100
AcDbXrecord
280
     1
102
RTVSPropertyOp0
 70
     1
102
RTVSPropertyOp1
 70
     1
102
RTVSPropertyOp2
 70
     1
102
RTVSPropertyOp3
 70
     1
102
RTVSPropertyOp4
 70
     1
102
RTVSPropertyOp5
 70
     1
102
RTVSPropertyOp6
 70
     1
102
RTVSPropertyOp7
 70
     1
102
RTVSPropertyOp8
 70
     1
102
RTVSPropertyOp9
 70
     1
102
RTVSPropertyOp10
 70
     1
102
RTVSPropertyOp11
 70
     1
102
RTVSPropertyOp12
 70
     1
102
RTVSPropertyOp13
 70
     1
102
RTVSPropertyOp14
 70
     1
102
RTVSPropertyOp15
 70
     1
102
RTVSPropertyOp16
 70
     1
102
RTVSPropertyOp17
 70
     1
102
RTVSPropertyOp18
 70
     1
102
RTVSPropertyOp19
 70
     1
102
RTVSPropertyOp20
 70
     1
102
RTVSPropertyOp21
 70
     1
102
RTVSPropertyOp22
 70
     1
102
RTVSPropertyOp23
 70
     1
102
RTVSPropertyOp24
 70
     1
102
RTVSPropertyOp25
 70
     1
102
RTVSPropertyOp26
 70
     1
102
RTVSPropertyOp27
 70
     1
102
RTVSPropertyOp28
 70
     1
102
RTVSPropertyOp29
 70
     1
102
RTVSPropertyOp30
 70
     1
102
RTVSPropertyOp31
 70
     1
102
RTVSPropertyOp32
 70
     1
  0
XRECORD
  5
49
102
{ACAD_REACTORS
330
48
102
}
330
48
100
AcDbXrecord
280
     1
102
RTVSPropertyOp0
 70
     1
102
RTVSPropertyOp1
 70
     1
102
RTVSPropertyOp2
 70
     1
102
RTVSPropertyOp3
 70
     1
102
RTVSPropertyOp4
 70
     1
102
RTVSPropertyOp5
 70
     1
102
RTVSPropertyOp6
 70
     1
102
RTVSPropertyOp7
 70
     1
102
RTVSPropertyOp8
 70
     1
102
RTVSPropertyOp9
 70
     1
102
RTVSPropertyOp10
 70
     1
102
RTVSPropertyOp11
 70
     1
102
RTVSPropertyOp12
 70
     1
102
RTVSPropertyOp13
 70
     1
102
RTVSPropertyOp14
 70
     1
102
RTVSPropertyOp15
 70
     1
102
RTVSPropertyOp16
 70
     1
102
RTVSPropertyOp17
 70
     1
102
RTVSPropertyOp18
 70
     1
102
RTVSPropertyOp19
 70
     1
102
RTVSPropertyOp20
 70
     1
102
RTVSPropertyOp21
 70
     1
102
RTVSPropertyOp22
 70
     1
102
RTVSPropertyOp23
 70
     1
102
RTVSPropertyOp24
 70
     1
102
RTVSPropertyOp25
 70
     1
102
RTVSPropertyOp26
 70
     1
102
RTVSPropertyOp27
 70
     1
102
RTVSPropertyOp28
 70
     1
102
RTVSPropertyOp29
 70
     1
102
RTVSPropertyOp30
 70
     1
102
RTVSPropertyOp31
 70
     1
102
RTVSPropertyOp32
 70
     1
  0
XRECORD
  5
4B
102
{ACAD_REACTORS
330
4A
102
}
330
4A
100
AcDbXrecord
280
     1
102
RTVSPropertyOp0
 70
     1
102
RTVSPropertyOp1
 70
     1
102
RTVSPropertyOp2
 70
     1
102
RTVSPropertyOp3
 70
     1
102
RTVSPropertyOp4
 70
     1
102
RTVSPropertyOp5
 70
     1
102
RTVSPropertyOp6
 70
     1
102
RTVSPropertyOp7
 70
     1
102
RTVSPropertyOp8
 70
     1
102
RTVSPropertyOp9
 70
     1
102
RTVSPropertyOp10
 70
     1
102
RTVSPropertyOp11
 70
     1
102
RTVSPropertyOp12
 70
     1
102
RTVSPropertyOp13
 70
     1
102
RTVSPropertyOp14
 70
     1
102
RTVSPropertyOp15
 70
     1
102
RTVSPropertyOp16
 70
     1
102
RTVSPropertyOp17
 70
     1
102
RTVSPropertyOp18
 70
     1
102
RTVSPropertyOp19
 70
     1
102
RTVSPropertyOp20
 70
     1
102
RTVSPropertyOp21
 70
     1
102
RTVSPropertyOp22
 70
     1
102
RTVSPropertyOp23
 70
     1
102
RTVSPropertyOp24
 70
     1
102
RTVSPropertyOp25
 70
     1
102
RTVSPropertyOp26
 70
     1
102
RTVSPropertyOp27
 70
     1
102
RTVSPropertyOp28
 70
     1
102
RTVSPropertyOp29
 70
     1
102
RTVSPropertyOp30
 70
     1
102
RTVSPropertyOp31
 70
     1
102
RTVSPropertyOp32
 70
     1
  0
XRECORD
  5
5F
102
{ACAD_REACTORS
330
5E
102
}
330
5E
100
AcDbXrecord
280
     1
102
RTVSPropertyOp0
 70
     1
102
RTVSPropertyOp1
 70
     1
102
RTVSPropertyOp2
 70
     1
102
RTVSPropertyOp3
 70
     1
102
RTVSPropertyOp4
 70
     1
102
RTVSPropertyOp5
 70
     1
102
RTVSPropertyOp6
 70
     1
102
RTVSPropertyOp7
 70
     1
102
RTVSPropertyOp8
 70
     1
102
RTVSPropertyOp9
 70
     1
102
RTVSPropertyOp10
 70
     1
102
RTVSPropertyOp11
 70
     1
102
RTVSPropertyOp12
 70
     1
102
RTVSPropertyOp13
 70
     1
102
RTVSPropertyOp14
 70
     1
102
RTVSPropertyOp15
 70
     1
102
RTVSPropertyOp16
 70
     1
102
RTVSPropertyOp17
 70
     1
102
RTVSPropertyOp18
 70
     1
102
RTVSPropertyOp19
 70
     1
102
RTVSPropertyOp20
 70
     1
102
RTVSPropertyOp21
 70
     1
102
RTVSPropertyOp22
 70
     1
102
RTVSPropertyOp23
 70
     1
102
RTVSPropertyOp24
 70
     1
102
RTVSPropertyOp25
 70
     1
102
RTVSPropertyOp26
 70
     1
102
RTVSPropertyOp27
 70
     1
102
RTVSPropertyOp28
 70
     1
102
RTVSPropertyOp29
 70
     1
102
RTVSPropertyOp30
 70
     1
102
RTVSPropertyOp31
 70
     1
102
RTVSPropertyOp32
 70
     1
  0
XRECORD
  5
55
102
{ACAD_REACTORS
330
54
102
}
330
54
100
AcDbXrecord
280
     1
102
RTVSPropertyOp0
 70
     1
102
RTVSPropertyOp1
 70
     1
102
RTVSPropertyOp2
 70
     1
102
RTVSPropertyOp3
 70
     1
102
RTVSPropertyOp4
 70
     1
102
RTVSPropertyOp5
 70
     1
102
RTVSPropertyOp6
 70
     1
102
RTVSPropertyOp7
 70
     1
102
RTVSPropertyOp8
 70
     1
102
RTVSPropertyOp9
 70
     1
102
RTVSPropertyOp10
 70
     1
102
RTVSPropertyOp11
 70
     1
102
RTVSPropertyOp12
 70
     1
102
RTVSPropertyOp13
 70
     1
102
RTVSPropertyOp14
 70
     1
102
RTVSPropertyOp15
 70
     1
102
RTVSPropertyOp16
 70
     1
102
RTVSPropertyOp17
 70
     1
102
RTVSPropertyOp18
 70
     1
102
RTVSPropertyOp19
 70
     1
102
RTVSPropertyOp20
 70
     1
102
RTVSPropertyOp21
 70
     1
102
RTVSPropertyOp22
 70
     1
102
RTVSPropertyOp23
 70
     1
102
RTVSPropertyOp24
 70
     1
102
RTVSPropertyOp25
 70
     1
102
RTVSPropertyOp26
 70
     1
102
RTVSPropertyOp27
 70
     1
102
RTVSPropertyOp28
 70
     1
102
RTVSPropertyOp29
 70
     1
102
RTVSPropertyOp30
 70
     1
102
RTVSPropertyOp31
 70
     1
102
RTVSPropertyOp32
 70
     1
  0
XRECORD
  5
5D
102
{ACAD_REACTORS
330
5C
102
}
330
5C
100
AcDbXrecord
280
     1
102
RTVSPropertyOp0
 70
     1
102
RTVSPropertyOp1
 70
     1
102
RTVSPropertyOp2
 70
     1
102
RTVSPropertyOp3
 70
     1
102
RTVSPropertyOp4
 70
     1
102
RTVSPropertyOp5
 70
     1
102
RTVSPropertyOp6
 70
     1
102
RTVSPropertyOp7
 70
     1
102
RTVSPropertyOp8
 70
     1
102
RTVSPropertyOp9
 70
     1
102
RTVSPropertyOp10
 70
     1
102
RTVSPropertyOp11
 70
     1
102
RTVSPropertyOp12
 70
     1
102
RTVSPropertyOp13
 70
     1
102
RTVSPropertyOp14
 70
     1
102
RTVSPropertyOp15
 70
     1
102
RTVSPropertyOp16
 70
     1
102
RTVSPropertyOp17
 70
     1
102
RTVSPropertyOp18
 70
     1
102
RTVSPropertyOp19
 70
     1
102
RTVSPropertyOp20
 70
     1
102
RTVSPropertyOp21
 70
     1
102
RTVSPropertyOp22
 70
     1
102
RTVSPropertyOp23
 70
     1
102
RTVSPropertyOp24
 70
     1
102
RTVSPropertyOp25
 70
     1
102
RTVSPropertyOp26
 70
     1
102
RTVSPropertyOp27
 70
     1
102
RTVSPropertyOp28
 70
     1
102
RTVSPropertyOp29
 70
     1
102
RTVSPropertyOp30
 70
     1
102
RTVSPropertyOp31
 70
     1
102
RTVSPropertyOp32
 70
     1
  0
ENDSEC
  0
EOF
