  0
SECTION
  2
HEADER
  9
$ACADVER
  1
AC1024
  9
$ACADMAINTVER
 70
     6
  9
$DWGCODEPAGE
  3
ANSI_1252
  9
$INSBASE
 10
0.0
 20
0.0
 30
0.0
  9
$EXTMIN
 10
1.000000000000000E+20
 20
1.000000000000000E+20
 30
1.000000000000000E+20
  9
$EXTMAX
 10
-1.000000000000000E+20
 20
-1.000000000000000E+20
 30
-1.000000000000000E+20
  9
$LIMMIN
 10
0.0
 20
0.0
  9
$LIMMAX
 10
12.0
 20
9.0
  9
$ORTHOMODE
 70
     0
  9
$REGENMODE
 70
     1
  9
$FILLMODE
 70
     1
  9
$QTEXTMODE
 70
     0
  9
$MIRRTEXT
 70
     1
  9
$LTSCALE
 40
1.0
  9
$ATTMODE
 70
     1
  9
$TEXTSIZE
 40
0.2
  9
$TRACEWID
 40
0.05
  9
$TEXTSTYLE
  7
Standard
  9
$CLAYER
  8
0
  9
$CELTYPE
  6
ByLayer
  9
$CECOLOR
 62
   256
  9
$CELTSCALE
 40
1.0
  9
$DISPSILH
 70
     0
  9
$DIMSCALE
 40
1.0
  9
$DIMASZ
 40
0.18
  9
$DIMEXO
 40
0.0625
  9
$DIMDLI
 40
0.38
  9
$DIMRND
 40
0.0
  9
$DIMDLE
 40
0.0
  9
$DIMEXE
 40
0.18
  9
$DIMTP
 40
0.0
  9
$DIMTM
 40
0.0
  9
$DIMTXT
 40
0.18
  9
$DIMCEN
 40
0.09
  9
$DIMTSZ
 40
0.0
  9
$DIMTOL
 70
     0
  9
$DIMLIM
 70
     0
  9
$DIMTIH
 70
     1
  9
$DIMTOH
 70
     1
  9
$DIMSE1
 70
     0
  9
$DIMSE2
 70
     0
  9
$DIMTAD
 70
     0
  9
$DIMZIN
 70
     0
  9
$DIMBLK
  1

  9
$DIMASO
 70
     1
  9
$DIMSHO
 70
     1
  9
$DIMPOST
  1

  9
$DIMAPOST
  1

  9
$DIMALT
 70
     0
  9
$DIMALTD
 70
     2
  9
$DIMALTF
 40
25.4
  9
$DIMLFAC
 40
1.0
  9
$DIMTOFL
 70
     0
  9
$DIMTVP
 40
0.0
  9
$DIMTIX
 70
     0
  9
$DIMSOXD
 70
     0
  9
$DIMSAH
 70
     0
  9
$DIMBLK1
  1

  9
$DIMBLK2
  1

  9
$DIMSTYLE
  2
Standard
  9
$DIMCLRD
 70
     0
  9
$DIMCLRE
 70
     0
  9
$DIMCLRT
 70
     0
  9
$DIMTFAC
 40
1.0
  9
$DIMGAP
 40
0.09
  9
$DIMJUST
 70
     0
  9
$DIMSD1
 70
     0
  9
$DIMSD2
 70
     0
  9
$DIMTOLJ
 70
     1
  9
$DIMTZIN
 70
     0
  9
$DIMALTZ
 70
     0
  9
$DIMALTTZ
 70
     0
  9
$DIMUPT
 70
     0
  9
$DIMDEC
 70
     4
  9
$DIMTDEC
 70
     4
  9
$DIMALTU
 70
     2
  9
$DIMALTTD
 70
     2
  9
$DIMTXSTY
  7
Standard
  9
$DIMAUNIT
 70
     0
  9
$DIMADEC
 70
     0
  9
$DIMALTRND
 40
0.0
  9
$DIMAZIN
 70
     0
  9
$DIMDSEP
 70
    46
  9
$DIMATFIT
 70
     3
  9
$DIMFRAC
 70
     0
  9
$DIMLDRBLK
  1

  9
$DIMLUNIT
 70
     2
  9
$DIMLWD
 70
    -2
  9
$DIMLWE
 70
    -2
  9
$DIMTMOVE
 70
     0
  9
$DIMFXL
 40
1.0
  9
$DIMFXLON
 70
     0
  9
$DIMJOGANG
 40
0.7853981633974483
  9
$DIMTFILL
 70
     0
  9
$DIMTFILLCLR
 70
     0
  9
$DIMARCSYM
 70
     0
  9
$DIMLTYPE
  6

  9
$DIMLTEX1
  6

  9
$DIMLTEX2
  6

  9
$DIMTXTDIRECTION
 70
     0
  9
$LUNITS
 70
     2
  9
$LUPREC
 70
     4
  9
$SKETCHINC
 40
0.1
  9
$FILLETRAD
 40
0.5
  9
$AUNITS
 70
     0
  9
$AUPREC
 70
     0
  9
$MENU
  1
.
  9
$ELEVATION
 40
0.0
  9
$PELEVATION
 40
0.0
  9
$THICKNESS
 40
0.0
  9
$LIMCHECK
 70
     0
  9
$CHAMFERA
 40
0.5
  9
$CHAMFERB
 40
0.5
  9
$CHAMFERC
 40
1.0
  9
$CHAMFERD
 40
0.0
  9
$SKPOLY
 70
     0
  9
$TDCREATE
 40
2459879.661647373
  9
$TDUCREATE
 40
2459879.411647373
  9
$TDUPDATE
 40
2459879.661647384
  9
$TDUUPDATE
 40
2459879.411647384
  9
$TDINDWG
 40
0.0000000116
  9
$TDUSRTIMER
 40
0.0000000116
  9
$USRTIMER
 70
     1
  9
$ANGBASE
 50
0.0
  9
$ANGDIR
 70
     0
  9
$PDMODE
 70
     0
  9
$PDSIZE
 40
0.0
  9
$PLINEWID
 40
0.0
  9
$SPLFRAME
 70
     0
  9
$SPLINETYPE
 70
     6
  9
$SPLINESEGS
 70
     8
  9
$HANDSEED
  5
63
  9
$SURFTAB1
 70
     6
  9
$SURFTAB2
 70
     6
  9
$SURFTYPE
 70
     6
  9
$SURFU
 70
     6
  9
$SURFV
 70
     6
  9
$UCSBASE
  2

  9
$UCSNAME
  2

  9
$UCSORG
 10
0.0
 20
0.0
 30
0.0
  9
$UCSXDIR
 10
1.0
 20
0.0
 30
0.0
  9
$UCSYDIR
 10
0.0
 20
1.0
 30
0.0
  9
$UCSORTHOREF
  2

  9
$UCSORTHOVIEW
 70
     0
  9
$UCSORGTOP
 10
0.0
 20
0.0
 30
0.0
  9
$UCSORGBOTTOM
 10
0.0
 20
0.0
 30
0.0
  9
$UCSORGLEFT
 10
0.0
 20
0.0
 30
0.0
  9
$UCSORGRIGHT
 10
0.0
 20
0.0
 30
0.0
  9
$UCSORGFRONT
 10
0.0
 20
0.0
 30
0.0
  9
$UCSORGBACK
 10
0.0
 20
0.0
 30
0.0
  9
$PUCSBASE
  2

  9
$PUCSNAME
  2

  9
$PUCSORG
 10
0.0
 20
0.0
 30
0.0
  9
$PUCSXDIR
 10
1.0
 20
0.0
 30
0.0
  9
$PUCSYDIR
 10
0.0
 20
1.0
 30
0.0
  9
$PUCSORTHOREF
  2

  9
$PUCSORTHOVIEW
 70
     0
  9
$PUCSORGTOP
 10
0.0
 20
0.0
 30
0.0
  9
$PUCSORGBOTTOM
 10
0.0
 20
0.0
 30
0.0
  9
$PUCSORGLEFT
 10
0.0
 20
0.0
 30
0.0
  9
$PUCSORGRIGHT
 10
0.0
 20
0.0
 30
0.0
  9
$PUCSORGFRONT
 10
0.0
 20
0.0
 30
0.0
  9
$PUCSORGBACK
 10
0.0
 20
0.0
 30
0.0
  9
$USERI1
 70
     0
  9
$USERI2
 70
     0
  9
$USERI3
 70
     0
  9
$USERI4
 70
     0
  9
$USERI5
 70
     0
  9
$USERR1
 40
0.0
  9
$USERR2
 40
0.0
  9
$USERR3
 40
0.0
  9
$USERR4
 40
0.0
  9
$USERR5
 40
0.0
  9
$WORLDVIEW
 70
     1
  9
$SHADEDGE
 70
     3
  9
$SHADEDIF
 70
    70
  9
$TILEMODE
 70
     1
  9
$MAXACTVP
 70
    64
  9
$PINSBASE
 10
0.0
 20
0.0
 30
0.0
  9
$PLIMCHECK
 70
     0
  9
$PEXTMIN
 10
1.000000000000000E+20
 20
1.000000000000000E+20
 30
1.000000000000000E+20
  9
$PEXTMAX
 10
-1.000000000000000E+20
 20
-1.000000000000000E+20
 30
-1.000000000000000E+20
  9
$PLIMMIN
 10
0.0
 20
0.0
  9
$PLIMMAX
 10
12.0
 20
9.0
  9
$UNITMODE
 70
     0
  9
$VISRETAIN
 70
     1
  9
$PLINEGEN
 70
     0
  9
$PSLTSCALE
 70
     1
  9
$TREEDEPTH
 70
  3020
  9
$CMLSTYLE
  2
Standard
  9
$CMLJUST
 70
     0
  9
$CMLSCALE
 40
1.0
  9
$PROXYGRAPHICS
 70
     1
  9
$MEASUREMENT
 70
     0
  9
$CELWEIGHT
370
    -1
  9
$ENDCAPS
280
     0
  9
$JOINSTYLE
280
     0
  9
$LWDISPLAY
290
     1
  9
$INSUNITS
 70
     0
  9
$HYPERLINKBASE
  1

  9
$STYLESHEET
  1

  9
$XEDIT
290
     1
  9
$CEPSNTYPE
380
     0
  9
$PSTYLEMODE
290
     1
  9
$FINGERPRINTGUID
  2
{98C6A0E1-1D79-43A0-962D-995494627065}
  9
$VERSIONGUID
  2
{FAEB1C32-E019-11D5-929B-00C0DF256EC4}
  9
$EXTNAMES
290
     1
  9
$PSVPSCALE
 40
0.0
  9
$OLESTARTUP
290
     0
  9
$SORTENTS
280
   127
  9
$INDEXCTL
280
     0
  9
$HIDETEXT
280
     1
  9
$XCLIPFRAME
280
     2
  9
$HALOGAP
280
     0
  9
$OBSCOLOR
 70
   257
  9
$OBSLTYPE
280
     0
  9
$INTERSECTIONDISPLAY
280
     0
  9
$INTERSECTIONCOLOR
 70
   257
  9
$DIMASSOC
280
     2
  9
$PROJECTNAME
  1

  9
$CAMERADISPLAY
290
     0
  9
$LENSLENGTH
 40
50.0
  9
$CAMERAHEIGHT
 40
0.0
  9
$STEPSPERSEC
 40
2.0
  9
$STEPSIZE
 40
6.0
  9
$3DDWFPREC
 40
2.0
  9
$PSOLWIDTH
 40
0.25
  9
$PSOLHEIGHT
 40
4.0
  9
$LOFTANG1
 40
1.570796326794897
  9
$LOFTANG2
 40
1.570796326794897
  9
$LOFTMAG1
 40
0.0
  9
$LOFTMAG2
 40
0.0
  9
$LOFTPARAM
 70
     7
  9
$LOFTNORMALS
280
     1
  9
$LATITUDE
 40
37.795
  9
$LONGITUDE
 40
-122.394
  9
$NORTHDIRECTION
 40
0.0
  9
$TIMEZONE
 70
 -8000
  9
$LIGHTGLYPHDISPLAY
280
     1
  9
$TILEMODELIGHTSYNCH
280
     1
  9
$CMATERIAL
347
3C
  9
$SOLIDHIST
280
     1
  9
$SHOWHIST
280
     1
  9
$DWFFRAME
280
     2
  9
$DGNFRAME
280
     2
  9
$REALWORLDSCALE
290
     1
  9
$INTERFERECOLOR
 62
   256
  9
$CSHADOW
280
     0
  9
$SHADOWPLANELOCATION
 40
0.0
  0
ENDSEC
  0
SECTION
  2
CLASSES
  0
CLASS
  1
ACDBDICTIONARYWDFLT
  2
AcDbDictionaryWithDefault
  3
ObjectDBX Classes
 90
        0
 91
        4
280
     0
281
     0
  0
CLASS
  1
VISUALSTYLE
  2
AcDbVisualStyle
  3
ObjectDBX Classes
 90
     4095
 91
        4
280
     0
281
     0
  0
CLASS
  1
MATERIAL
  2
AcDbMaterial
  3
ObjectDBX Classes
 90
     1153
 91
        4
280
     0
281
     0
  0
CLASS
  1
SUN
  2
AcDbSun
  3
SCENEOE
 90
     1024
 91
        4
280
     0
281
     0
  0
ENDSEC
  0
SECTION
  2
TABLES
  0
TABLE
  2
VPORT
  5
8
330
0
100
AcDbSymbolTable
 70
     1
  0
VPORT
  5
29
330
8
100
AcDbSymbolTableRecord
100
AcDbViewportTableRecord
  2
*Active
 70
     0
 10
0.0
 20
0.0
 11
1.0
 21
1.0
 12
0.0
 22
0.0
 13
0.0
 23
0.0
 14
0.5
 24
0.5
 15
0.5
 25
0.5
 16
0.0
 26
0.0
 36
1.0
 17
1500.0
 27
-1500.0
 37
0.0
 40
3000.0
 41
1.0
 42
50.0
 43
0.0
 44
0.0
 50
0.0
 51
0.0
 71
     0
 72
   100
 73
     1
 74
     3
 75
     0
 76
     0
 77
     0
 78
     0
281
     0
 65
     1
110
0.0
120
0.0
130
0.0
111
1.0
121
0.0
131
0.0
112
0.0
122
1.0
132
0.0
 79
     0
146
0.0
 60
     3
 61
     5
292
     1
282
     1
141
0.0
142
0.0
 63
   250
361
3F
  0
ENDTAB
  0
TABLE
  2
LTYPE
  5
5
330
0
100
AcDbSymbolTable
 70
     1
  0
LTYPE
  5
14
330
5
100
AcDbSymbolTableRecord
100
AcDbLinetypeTableRecord
  2
ByBlock
 70
     0
  3

 72
    65
 73
     0
 40
0.0
  0
LTYPE
  5
15
330
5
100
AcDbSymbolTableRecord
100
AcDbLinetypeTableRecord
  2
ByLayer
 70
     0
  3

 72
    65
 73
     0
 40
0.0
  0
LTYPE
  5
16
330
5
100
AcDbSymbolTableRecord
100
AcDbLinetypeTableRecord
  2
Continuous
 70
     0
  3
Solid line
 72
    65
 73
     0
 40
0.0
  0
ENDTAB
  0
TABLE
  2
LAYER
  5
2
330
0
100
AcDbSymbolTable
 70
     2
  0
LAYER
  5
10
330
2
100
AcDbSymbolTableRecord
100
AcDbLayerTableRecord
  2
0
 70
     0
 62
     7
  6
Continuous
370
    -3
390
F
347
3E
  0
LAYER
  5
40
330
2
100
AcDbSymbolTableRecord
100
AcDbLayerTableRecord
  2
Layer 1
 70
     0
 62
     7
  6
Continuous
370
    -3
390
F
347
3E
  0
ENDTAB
  0
TABLE
  2
STYLE
  5
3
330
0
100
AcDbSymbolTable
 70
     1
  0
STYLE
  5
11
330
3
100
AcDbSymbolTableRecord
100
AcDbTextStyleTableRecord
  2
Standard
 70
     0
 40
0.0
 41
1.0
 50
0.0
 71
     0
 42
0.2
  3
txt
  4

  0
ENDTAB
  0
TABLE
  2
VIEW
  5
6
330
0
100
AcDbSymbolTable
 70
     0
  0
ENDTAB
  0
TABLE
  2
UCS
  5
7
330
0
100
AcDbSymbolTable
 70
     0
  0
ENDTAB
  0
TABLE
  2
APPID
  5
9
330
0
100
AcDbSymbolTable
 70
     1
  0
APPID
  5
12
330
9
100
AcDbSymbolTableRecord
100
AcDbRegAppTableRecord
  2
ACAD
 70
     0
  0
ENDTAB
  0
TABLE
  2
DIMSTYLE
  5
A
330
0
100
AcDbSymbolTable
 70
     1
100
AcDbDimStyleTable
  0
DIMSTYLE
105
27
330
A
100
AcDbSymbolTableRecord
100
AcDbDimStyleTableRecord
  2
Standard
 70
     0
178
     0
340
11
  0
ENDTAB
  0
TABLE
  2
BLOCK_RECORD
  5
1
330
0
100
AcDbSymbolTable
 70
     1
  0
BLOCK_RECORD
  5
1F
330
1
100
AcDbSymbolTableRecord
100
AcDbBlockTableRecord
  2
*Model_Space
340
22
 70
     0
280
     1
281
     0
  0
BLOCK_RECORD
  5
1B
330
1
100
AcDbSymbolTableRecord
100
AcDbBlockTableRecord
  2
*Paper_Space
340
1E
 70
     0
280
     1
281
     0
  0
BLOCK_RECORD
  5
23
330
1
100
AcDbSymbolTableRecord
100
AcDbBlockTableRecord
  2
*Paper_Space0
340
26
 70
     0
280
     1
281
     0
  0
ENDTAB
  0
ENDSEC
  0
SECTION
  2
BLOCKS
  0
BLOCK
  5
20
330
1F
100
AcDbEntity
  8
0
100
AcDbBlockBegin
  2
*Model_Space
 70
     0
 10
0.0
 20
0.0
 30
0.0
  3
*Model_Space
  1

  0
ENDBLK
  5
21
330
1F
100
AcDbEntity
  8
0
100
AcDbBlockEnd
  0
BLOCK
  5
1C
330
1B
100
AcDbEntity
 67
     1
  8
0
100
AcDbBlockBegin
  2
*Paper_Space
 70
     0
 10
0.0
 20
0.0
 30
0.0
  3
*Paper_Space
  1

  0
ENDBLK
  5
1D
330
1B
100
AcDbEntity
 67
     1
  8
0
100
AcDbBlockEnd
  0
BLOCK
  5
24
330
23
100
AcDbEntity
  8
0
100
AcDbBlockBegin
  2
*Paper_Space0
 70
     0
 10
0.0
 20
0.0
 30
0.0
  3
*Paper_Space0
  1

  0
ENDBLK
  5
25
330
23
100
AcDbEntity
  8
0
100
AcDbBlockEnd
  0
ENDSEC
  0
SECTION
  2
ENTITIES
  0
SPLINE
  5
41
330
1F
100
AcDbEntity
  8
Layer 1
370
     0
100
AcDbSpline
210
0.0
220
0.0
230
1.0
 70
    11
 71
     3
 72
    59
 73
    55
 74
     0
 42
0.0000000001
 43
0.0000000001
 12
1.0
 22
0.0
 32
0.0
 13
1.0
 23
0.0
 33
0.0
 40
0.0
 40
0.0
 40
0.0
 40
0.0
 40
1.0
 40
1.0
 40
1.0
 40
2.0
 40
2.0
 40
2.0
 40
3.0
 40
3.0
 40
3.0
 40
4.0
 40
4.0
 40
4.0
 40
5.0
 40
5.0
 40
5.0
 40
6.0
 40
6.0
 40
6.0
 40
7.0
 40
7.0
 40
7.0
 40
8.0
 40
8.0
 40
8.0
 40
9.0
 40
9.0
 40
9.0
 40
10.0
 40
10.0
 40
10.0
 40
11.0
 40
11.0
 40
11.0
 40
12.0
 40
12.0
 40
12.0
 40
13.0
 40
13.0
 40
13.0
 40
14.0
 40
14.0
 40
14.0
 40
15.0
 40
15.0
 40
15.0
 40
16.0
 40
16.0
 40
16.0
 40
17.0
 40
17.0
 40
17.0
 40
18.0
 40
18.0
 40
18.0
 40
18.0
 10
1960.813855244402
 20
-1149.793300218216
 30
0.0
 10
1774.164712186312
 20
-704.2635164177227
 30
0.0
 10
1542.869324612589
 20
-335.4225647201383
 30
0.0
 10
1540.499485337079
 20
-331.8203627353978
 30
0.0
 10
1540.499485337079
 20
-331.8203627353978
 30
0.0
 10
1534.621173071593
 20
-322.5296207709271
 30
0.0
 10
1534.621173071593
 20
-322.5296207709271
 30
0.0
 10
1565.618855939259
 20
-309.164560403533
 30
0.0
 10
1587.421840133416
 20
-278.3566498215787
 30
0.0
 10
1587.421840133416
 20
-242.4295161170885
 30
0.0
 10
1587.421840133416
 20
-194.3696847544215
 30
0.0
 10
1548.461821301406
 20
-155.4096659223851
 30
0.0
 10
1500.401989938711
 20
-155.4096659223851
 30
0.0
 10
1452.341001427956
 20
-155.4096659223851
 30
0.0
 10
1413.38098259592
 20
-194.3696847544215
 30
0.0
 10
1413.38098259592
 20
-242.4295161170885
 30
0.0
 10
1413.38098259592
 20
-278.3566498215787
 30
0.0
 10
1435.182809642016
 20
-309.164560403533
 30
0.0
 10
1466.180492509679
 20
-322.5296207709271
 30
0.0
 10
1466.180492509679
 20
-322.5296207709271
 30
0.0
 10
1460.303337392283
 20
-331.8203627353978
 30
0.0
 10
1460.303337392283
 20
-331.8203627353978
 30
0.0
 10
1458.028384259602
 20
-335.4225647201383
 30
0.0
 10
1226.73183953783
 20
-704.2635164177227
 30
0.0
 10
1040.08385362779
 20
-1149.793300218216
 30
0.0
 10
785.9417342883953
 20
-1756.377268612192
 30
0.0
 10
731.3405448082503
 20
-2210.155203953689
 30
0.0
 10
877.7024201822551
 20
-2498.421620283099
 30
0.0
 10
925.9520238306777
 20
-2593.404963590227
 30
0.0
 10
995.6262242498615
 20
-2669.144934264437
 30
0.0
 10
1085.963618000687
 20
-2725.454074316262
 30
0.0
 10
1093.831067822159
 20
-2730.476096999728
 30
0.0
 10
1101.889447077448
 20
-2735.215775550827
 30
0.0
 10
1110.135284322305
 20
-2739.860567959035
 30
0.0
 10
1214.029825022424
 20
-2798.442346847303
 30
0.0
 10
1343.233508610485
 20
-2833.233161133556
 30
0.0
 10
1497.178175377356
 20
-2843.848837653928
 30
0.0
 10
1497.178175377356
 20
-2843.848837653928
 30
0.0
 10
1500.401989938711
 20
-2844.038609939684
 30
0.0
 10
1500.401989938711
 20
-2844.038609939684
 30
0.0
 10
1500.401989938711
 20
-2844.038609939684
 30
0.0
 10
1503.718376346782
 20
-2843.848837653928
 30
0.0
 10
1503.718376346782
 20
-2843.848837653928
 30
0.0
 10
1660.222654674917
 20
-2833.043388847806
 30
0.0
 10
1791.22801782939
 20
-2797.306027429066
 30
0.0
 10
1895.975376667238
 20
-2736.8265256834
 30
0.0
 10
1902.800236065274
 20
-2732.94082241817
 30
0.0
 10
1909.530209320377
 20
-2728.865346867156
 30
0.0
 10
1916.165296432669
 20
-2724.600099030422
 30
0.0
 10
2005.934530474357
 20
-2668.388159417673
 30
0.0
 10
2075.134300179177
 20
-2592.930532875862
 30
0.0
 10
2123.10040254707
 20
-2498.421620283099
 30
0.0
 10
2269.556006915887
 20
-2210.155203953689
 30
0.0
 10
2214.954817435731
 20
-1756.377268612192
 30
0.0
 10
1960.813855244402
 20
-1149.793300218216
 30
0.0
  0
SPLINE
  5
42
330
1F
100
AcDbEntity
  8
Layer 1
370
     0
100
AcDbSpline
210
0.0
220
0.0
230
1.0
 70
    11
 71
     3
 72
    23
 73
    19
 74
     0
 42
0.0000000001
 43
0.0000000001
 12
1.0
 22
0.0
 32
0.0
 13
1.0
 23
0.0
 33
0.0
 40
0.0
 40
0.0
 40
0.0
 40
0.0
 40
1.0
 40
1.0
 40
1.0
 40
2.0
 40
2.0
 40
2.0
 40
3.0
 40
3.0
 40
3.0
 40
4.0
 40
4.0
 40
4.0
 40
5.0
 40
5.0
 40
5.0
 40
6.0
 40
6.0
 40
6.0
 40
6.0
 10
1451.581912285013
 20
-242.4295161170885
 30
0.0
 10
1451.581912285013
 20
-215.5084659484892
 30
0.0
 10
1473.479782622026
 20
-193.6117527595343
 30
0.0
 10
1500.401989938711
 20
-193.6117527595343
 30
0.0
 10
1527.416769102116
 20
-193.6117527595343
 30
0.0
 10
1549.314639439124
 20
-215.5084659484892
 30
0.0
 10
1549.314639439124
 20
-242.4295161170885
 30
0.0
 10
1549.314639439124
 20
-264.8018171684653
 30
0.0
 10
1534.336514642973
 20
-283.6656452298412
 30
0.0
 10
1513.767050306111
 20
-289.4467570563193
 30
0.0
 10
1509.501802469376
 20
-290.6802769135975
 30
0.0
 10
1505.046782346917
 20
-291.3433227655914
 30
0.0
 10
1500.401989938711
 20
-291.3433227655914
 30
0.0
 10
1495.757197530535
 20
-291.3433227655914
 30
0.0
 10
1491.30102025996
 20
-290.6802769135975
 30
0.0
 10
1487.034615275164
 20
-289.4467570563193
 30
0.0
 10
1466.560037081153
 20
-283.6656452298412
 30
0.0
 10
1451.581912285013
 20
-264.8018171684653
 30
0.0
 10
1451.581912285013
 20
-242.4295161170885
 30
0.0
  0
SPLINE
  5
43
330
1F
100
AcDbEntity
  8
Layer 1
370
     0
100
AcDbSpline
210
0.0
220
0.0
230
1.0
 70
    11
 71
     3
 72
    35
 73
    31
 74
     0
 42
0.0000000001
 43
0.0000000001
 12
1.0
 22
0.0
 32
0.0
 13
1.0
 23
0.0
 33
0.0
 40
0.0
 40
0.0
 40
0.0
 40
0.0
 40
1.0
 40
1.0
 40
1.0
 40
2.0
 40
2.0
 40
2.0
 40
3.0
 40
3.0
 40
3.0
 40
4.0
 40
4.0
 40
4.0
 40
5.0
 40
5.0
 40
5.0
 40
6.0
 40
6.0
 40
6.0
 40
7.0
 40
7.0
 40
7.0
 40
8.0
 40
8.0
 40
8.0
 40
9.0
 40
9.0
 40
9.0
 40
10.0
 40
10.0
 40
10.0
 40
10.0
 10
1500.401989938711
 20
-448.7004192314453
 30
0.0
 10
1565.761185153568
 20
-559.2474042650974
 30
0.0
 10
1700.454379250967
 20
-796.8191630451092
 30
0.0
 10
1826.502520014628
 20
-1079.112380966142
 30
0.0
 10
1810.304761138212
 20
-1082.556053663417
 30
0.0
 10
1788.969264769888
 20
-1089.387855949928
 30
0.0
 10
1764.25026740469
 20
-1100.798493203862
 30
0.0
 10
1734.678190976201
 20
-1114.450526296014
 30
0.0
 10
1698.003539609597
 20
-1119.892593733928
 30
0.0
 10
1670.749230792846
 20
-1102.107227686573
 30
0.0
 10
1635.836915957834
 20
-1079.336867694421
 30
0.0
 10
1647.625940635118
 20
-1043.619177793074
 30
0.0
 10
1604.502502997742
 20
-989.4634903251845
 30
0.0
 10
1591.002056304549
 20
-972.4858136402763
 30
0.0
 10
1554.528748704555
 20
-926.692835373673
 30
0.0
 10
1503.999563331125
 20
-925.3320292271546
 30
0.0
 10
1449.138015532111
 20
-923.8207938298019
 30
0.0
 10
1407.476055924535
 20
-975.6101134664441
 30
0.0
 10
1396.341977062615
 20
-989.4634903251845
 30
0.0
 10
1353.319211308515
 20
-1042.965389125762
 30
0.0
 10
1365.360494268107
 20
-1079.084609412155
 30
0.0
 10
1330.095249267522
 20
-1102.107227686573
 30
0.0
 10
1302.842097598857
 20
-1119.892593733928
 30
0.0
 10
1266.166289084193
 20
-1114.450526296014
 30
0.0
 10
1236.595369803765
 20
-1100.798493203862
 30
0.0
 10
1211.911086881055
 20
-1089.401741726937
 30
0.0
 10
1190.576747660818
 20
-1082.650939806279
 30
0.0
 10
1174.375517340142
 20
-1079.246610143886
 30
0.0
 10
1300.40514373447
 20
-796.8909062263047
 30
0.0
 10
1435.074037722106
 20
-559.2543471536046
 30
0.0
 10
1500.401989938711
 20
-448.7004192314453
 30
0.0
  0
SPLINE
  5
44
330
1F
100
AcDbEntity
  8
Layer 1
370
     0
100
AcDbSpline
210
0.0
220
0.0
230
1.0
 70
    11
 71
     3
 72
    17
 73
    13
 74
     0
 42
0.0000000001
 43
0.0000000001
 12
1.0
 22
0.0
 32
0.0
 13
1.0
 23
0.0
 33
0.0
 40
0.0
 40
0.0
 40
0.0
 40
0.0
 40
1.0
 40
1.0
 40
1.0
 40
2.0
 40
2.0
 40
2.0
 40
3.0
 40
3.0
 40
3.0
 40
4.0
 40
4.0
 40
4.0
 40
4.0
 10
1504.603594630842
 20
-1099.840374590513
 30
0.0
 10
1550.094557247592
 20
-1099.840374590513
 30
0.0
 10
1588.78496057608
 20
-1136.313682190534
 30
0.0
 10
1585.107543965909
 20
-1145.28042269154
 30
0.0
 10
1582.337331453406
 20
-1151.981467244605
 30
0.0
 10
1557.19828933379
 20
-1140.444700849555
 30
0.0
 10
1503.747305048857
 20
-1140.545372732831
 30
0.0
 10
1451.304196744897
 20
-1140.69695913179
 30
0.0
 10
1426.821257588786
 20
-1151.880795361298
 30
0.0
 10
1424.099645295779
 20
-1145.28042269154
 30
0.0
 10
1420.372471318011
 20
-1136.313682190534
 30
0.0
 10
1459.061717498409
 20
-1099.840374590513
 30
0.0
 10
1504.603594630842
 20
-1099.840374590513
 30
0.0
  0
SPLINE
  5
45
330
1F
100
AcDbEntity
  8
Layer 1
370
     0
100
AcDbSpline
210
0.0
220
0.0
230
1.0
 70
    11
 71
     3
 72
    17
 73
    13
 74
     0
 42
0.0000000001
 43
0.0000000001
 12
1.0
 22
0.0
 32
0.0
 13
1.0
 23
0.0
 33
0.0
 40
0.0
 40
0.0
 40
0.0
 40
0.0
 40
1.0
 40
1.0
 40
1.0
 40
2.0
 40
2.0
 40
2.0
 40
3.0
 40
3.0
 40
3.0
 40
4.0
 40
4.0
 40
4.0
 40
4.0
 10
1428.533836752757
 20
-1044.123694357608
 30
0.0
 10
1428.533836752757
 20
-1028.454752155445
 30
0.0
 10
1441.228908379608
 20
-1015.709923160925
 30
0.0
 10
1456.895536285623
 20
-1015.709923160925
 30
0.0
 10
1472.614235855386
 20
-1015.709923160925
 30
0.0
 10
1485.309307482277
 20
-1028.454752155445
 30
0.0
 10
1485.309307482277
 20
-1044.123694357608
 30
0.0
 10
1485.309307482277
 20
-1059.790322263592
 30
0.0
 10
1472.614235855386
 20
-1072.535151258078
 30
0.0
 10
1456.895536285623
 20
-1072.535151258078
 30
0.0
 10
1441.228908379608
 20
-1072.535151258078
 30
0.0
 10
1428.533836752757
 20
-1059.790322263592
 30
0.0
 10
1428.533836752757
 20
-1044.123694357608
 30
0.0
  0
SPLINE
  5
46
330
1F
100
AcDbEntity
  8
Layer 1
370
     0
100
AcDbSpline
210
0.0
220
0.0
230
1.0
 70
    11
 71
     3
 72
    17
 73
    13
 74
     0
 42
0.0000000001
 43
0.0000000001
 12
1.0
 22
0.0
 32
0.0
 13
1.0
 23
0.0
 33
0.0
 40
0.0
 40
0.0
 40
0.0
 40
0.0
 40
1.0
 40
1.0
 40
1.0
 40
2.0
 40
2.0
 40
2.0
 40
3.0
 40
3.0
 40
3.0
 40
4.0
 40
4.0
 40
4.0
 40
4.0
 10
1523.848124411814
 20
-1044.123694357608
 30
0.0
 10
1523.848124411814
 20
-1028.454752155445
 30
0.0
 10
1536.543196038701
 20
-1015.709923160925
 30
0.0
 10
1552.260738460378
 20
-1015.709923160925
 30
0.0
 10
1567.928523514443
 20
-1015.709923160925
 30
0.0
 10
1580.673352508931
 20
-1028.454752155445
 30
0.0
 10
1580.673352508931
 20
-1044.123694357608
 30
0.0
 10
1580.673352508931
 20
-1059.790322263592
 30
0.0
 10
1567.928523514443
 20
-1072.535151258078
 30
0.0
 10
1552.260738460378
 20
-1072.535151258078
 30
0.0
 10
1536.543196038701
 20
-1072.535151258078
 30
0.0
 10
1523.848124411814
 20
-1059.790322263592
 30
0.0
 10
1523.848124411814
 20
-1044.123694357608
 30
0.0
  0
SPLINE
  5
47
330
1F
100
AcDbEntity
  8
Layer 1
370
     0
100
AcDbSpline
210
0.0
220
0.0
230
1.0
 70
    11
 71
     3
 72
    23
 73
    19
 74
     0
 42
0.0000000001
 43
0.0000000001
 12
1.0
 22
0.0
 32
0.0
 13
1.0
 23
0.0
 33
0.0
 40
0.0
 40
0.0
 40
0.0
 40
0.0
 40
1.0
 40
1.0
 40
1.0
 40
2.0
 40
2.0
 40
2.0
 40
3.0
 40
3.0
 40
3.0
 40
4.0
 40
4.0
 40
4.0
 40
5.0
 40
5.0
 40
5.0
 40
6.0
 40
6.0
 40
6.0
 40
6.0
 10
1211.659985746877
 20
-2653.88215103971
 30
0.0
 10
1211.659985746877
 20
-2653.88215103971
 30
0.0
 10
1151.940730292279
 20
-2653.88215103971
 30
0.0
 10
1151.940730292279
 20
-2653.88215103971
 30
0.0
 10
1151.276527292199
 20
-2653.599806907276
 30
0.0
 10
1150.612324292144
 20
-2653.220262335773
 30
0.0
 10
1149.949278440143
 20
-2652.74583162144
 30
0.0
 10
1149.949278440143
 20
-2652.74583162144
 30
0.0
 10
1149.949278440143
 20
-2586.200559620749
 30
0.0
 10
1149.949278440143
 20
-2586.200559620749
 30
0.0
 10
1149.949278440143
 20
-2569.137253977666
 30
0.0
 10
1163.695040527075
 20
-2555.392649038797
 30
0.0
 10
1180.757189022102
 20
-2555.392649038797
 30
0.0
 10
1197.725608522289
 20
-2555.392649038797
 30
0.0
 10
1211.659985746877
 20
-2569.137253977666
 30
0.0
 10
1211.659985746877
 20
-2586.200559620749
 30
0.0
 10
1211.659985746877
 20
-2586.200559620749
 30
0.0
 10
1211.659985746877
 20
-2653.88215103971
 30
0.0
 10
1211.659985746877
 20
-2653.88215103971
 30
0.0
  0
SPLINE
  5
48
330
1F
100
AcDbEntity
  8
Layer 1
370
     0
100
AcDbSpline
210
0.0
220
0.0
230
1.0
 70
    11
 71
     3
 72
    20
 73
    16
 74
     0
 42
0.0000000001
 43
0.0000000001
 12
1.0
 22
0.0
 32
0.0
 13
1.0
 23
0.0
 33
0.0
 40
0.0
 40
0.0
 40
0.0
 40
0.0
 40
1.0
 40
1.0
 40
1.0
 40
2.0
 40
2.0
 40
2.0
 40
3.0
 40
3.0
 40
3.0
 40
4.0
 40
4.0
 40
4.0
 40
5.0
 40
5.0
 40
5.0
 40
5.0
 10
1113.264212740762
 20
-2463.348461864414
 30
0.0
 10
1113.264212740762
 20
-2463.348461864414
 30
0.0
 10
1113.264212740762
 20
-2395.477098159732
 30
0.0
 10
1113.264212740762
 20
-2395.477098159732
 30
0.0
 10
1113.264212740762
 20
-2378.60356480237
 30
0.0
 10
1127.008817679629
 20
-2364.66918757778
 30
0.0
 10
1144.072123322718
 20
-2364.66918757778
 30
0.0
 10
1161.040542822944
 20
-2364.66918757778
 30
0.0
 10
1174.974920047558
 20
-2378.60356480237
 30
0.0
 10
1174.974920047558
 20
-2395.477098159732
 30
0.0
 10
1174.974920047558
 20
-2395.477098159732
 30
0.0
 10
1174.974920047558
 20
-2463.348461864414
 30
0.0
 10
1174.974920047558
 20
-2463.348461864414
 30
0.0
 10
1174.974920047558
 20
-2463.348461864414
 30
0.0
 10
1113.264212740762
 20
-2463.348461864414
 30
0.0
 10
1113.264212740762
 20
-2463.348461864414
 30
0.0
  0
SPLINE
  5
49
330
1F
100
AcDbEntity
  8
Layer 1
370
     0
100
AcDbSpline
210
0.0
220
0.0
230
1.0
 70
    11
 71
     3
 72
    20
 73
    16
 74
     0
 42
0.0000000001
 43
0.0000000001
 12
1.0
 22
0.0
 32
0.0
 13
1.0
 23
0.0
 33
0.0
 40
0.0
 40
0.0
 40
0.0
 40
0.0
 40
1.0
 40
1.0
 40
1.0
 40
2.0
 40
2.0
 40
2.0
 40
3.0
 40
3.0
 40
3.0
 40
4.0
 40
4.0
 40
4.0
 40
5.0
 40
5.0
 40
5.0
 40
5.0
 10
1346.45732317184
 20
-2653.88215103971
 30
0.0
 10
1346.45732317184
 20
-2653.88215103971
 30
0.0
 10
1284.746615865084
 20
-2653.88215103971
 30
0.0
 10
1284.746615865084
 20
-2653.88215103971
 30
0.0
 10
1284.746615865084
 20
-2653.88215103971
 30
0.0
 10
1284.746615865084
 20
-2586.200559620749
 30
0.0
 10
1284.746615865084
 20
-2586.200559620749
 30
0.0
 10
1284.746615865084
 20
-2569.137253977666
 30
0.0
 10
1298.491220803951
 20
-2555.392649038797
 30
0.0
 10
1315.649412589895
 20
-2555.392649038797
 30
0.0
 10
1332.711561084883
 20
-2555.392649038797
 30
0.0
 10
1346.45732317184
 20
-2569.137253977666
 30
0.0
 10
1346.45732317184
 20
-2586.200559620749
 30
0.0
 10
1346.45732317184
 20
-2586.200559620749
 30
0.0
 10
1346.45732317184
 20
-2653.88215103971
 30
0.0
 10
1346.45732317184
 20
-2653.88215103971
 30
0.0
  0
SPLINE
  5
4A
330
1F
100
AcDbEntity
  8
Layer 1
370
     0
100
AcDbSpline
210
0.0
220
0.0
230
1.0
 70
    11
 71
     3
 72
    20
 73
    16
 74
     0
 42
0.0000000001
 43
0.0000000001
 12
1.0
 22
0.0
 32
0.0
 13
1.0
 23
0.0
 33
0.0
 40
0.0
 40
0.0
 40
0.0
 40
0.0
 40
1.0
 40
1.0
 40
1.0
 40
2.0
 40
2.0
 40
2.0
 40
3.0
 40
3.0
 40
3.0
 40
4.0
 40
4.0
 40
4.0
 40
5.0
 40
5.0
 40
5.0
 40
5.0
 10
1248.155279160505
 20
-2463.348461864414
 30
0.0
 10
1248.155279160505
 20
-2463.348461864414
 30
0.0
 10
1248.155279160505
 20
-2395.477098159732
 30
0.0
 10
1248.155279160505
 20
-2395.477098159732
 30
0.0
 10
1248.155279160505
 20
-2378.60356480237
 30
0.0
 10
1261.899884099372
 20
-2364.66918757778
 30
0.0
 10
1278.96318974245
 20
-2364.66918757778
 30
0.0
 10
1296.026495385539
 20
-2364.66918757778
 30
0.0
 10
1309.771100324409
 20
-2378.60356480237
 30
0.0
 10
1309.771100324409
 20
-2395.477098159732
 30
0.0
 10
1309.771100324409
 20
-2395.477098159732
 30
0.0
 10
1309.771100324409
 20
-2463.348461864414
 30
0.0
 10
1309.771100324409
 20
-2463.348461864414
 30
0.0
 10
1309.771100324409
 20
-2463.348461864414
 30
0.0
 10
1248.155279160505
 20
-2463.348461864414
 30
0.0
 10
1248.155279160505
 20
-2463.348461864414
 30
0.0
  0
POLYLINE
  5
4B
330
1F
100
AcDbEntity
  8
Layer 1
370
     0
100
AcDb2dPolyline
 66
     1
 10
0.0
 20
0.0
 30
0.0
  0
VERTEX
  5
4C
330
4B
100
AcDbEntity
  8
Layer 1
370
     0
100
AcDbVertex
100
AcDb2dVertex
 10
1480.589300448641
 20
-2225.795217453773
 30
0.0
  0
VERTEX
  5
4D
330
4B
100
AcDbEntity
  8
Layer 1
370
     0
100
AcDbVertex
100
AcDb2dVertex
 10
1480.589300448641
 20
-2373.958772394193
 30
0.0
  0
VERTEX
  5
4E
330
4B
100
AcDbEntity
  8
Layer 1
370
     0
100
AcDbVertex
100
AcDb2dVertex
 10
1387.880910274167
 20
-2373.958772394193
 30
0.0
  0
VERTEX
  5
4F
330
4B
100
AcDbEntity
  8
Layer 1
370
     0
100
AcDbVertex
100
AcDb2dVertex
 10
1387.880910274167
 20
-2225.795217453773
 30
0.0
  0
VERTEX
  5
50
330
4B
100
AcDbEntity
  8
Layer 1
370
     0
100
AcDbVertex
100
AcDb2dVertex
 10
1480.589300448641
 20
-2225.795217453773
 30
0.0
  0
SEQEND
  5
51
330
4B
100
AcDbEntity
  8
Layer 1
370
     0
  0
SPLINE
  5
52
330
1F
100
AcDbEntity
  8
Layer 1
370
     0
100
AcDbSpline
210
0.0
220
0.0
230
1.0
 70
    11
 71
     3
 72
    17
 73
    13
 74
     0
 42
0.0000000001
 43
0.0000000001
 12
1.0
 22
0.0
 32
0.0
 13
1.0
 23
0.0
 33
0.0
 40
0.0
 40
0.0
 40
0.0
 40
0.0
 40
1.0
 40
1.0
 40
1.0
 40
2.0
 40
2.0
 40
2.0
 40
3.0
 40
3.0
 40
3.0
 40
4.0
 40
4.0
 40
4.0
 40
4.0
 10
1444.662166744141
 20
-2051.944132202032
 30
0.0
 10
1444.662166744141
 20
-2025.117968176291
 30
0.0
 10
1466.465150938298
 20
-2003.314983982138
 30
0.0
 10
1493.292472112096
 20
-2003.314983982138
 30
0.0
 10
1520.307251275497
 20
-2003.314983982138
 30
0.0
 10
1542.110235469647
 20
-2025.117968176291
 30
0.0
 10
1542.110235469647
 20
-2051.944132202032
 30
0.0
 10
1542.110235469647
 20
-2078.96006851349
 30
0.0
 10
1520.307251275497
 20
-2100.573280421922
 30
0.0
 10
1493.292472112096
 20
-2100.573280421922
 30
0.0
 10
1466.465150938298
 20
-2100.573280421922
 30
0.0
 10
1444.662166744141
 20
-2078.96006851349
 30
0.0
 10
1444.662166744141
 20
-2051.944132202032
 30
0.0
  0
SPLINE
  5
53
330
1F
100
AcDbEntity
  8
Layer 1
370
     0
100
AcDbSpline
210
0.0
220
0.0
230
1.0
 70
    11
 71
     3
 72
    26
 73
    22
 74
     0
 42
0.0000000001
 43
0.0000000001
 12
1.0
 22
0.0
 32
0.0
 13
1.0
 23
0.0
 33
0.0
 40
0.0
 40
0.0
 40
0.0
 40
0.0
 40
1.0
 40
1.0
 40
1.0
 40
2.0
 40
2.0
 40
2.0
 40
3.0
 40
3.0
 40
3.0
 40
4.0
 40
4.0
 40
4.0
 40
5.0
 40
5.0
 40
5.0
 40
6.0
 40
6.0
 40
6.0
 40
7.0
 40
7.0
 40
7.0
 40
7.0
 10
1570.643192918948
 20
-2737.965159397818
 30
0.0
 10
1564.630651475743
 20
-2740.33268437719
 30
0.0
 10
1557.914563997618
 20
-2742.568294474995
 30
0.0
 10
1550.523859186645
 20
-2744.422045705182
 30
0.0
 10
1531.169400337718
 20
-2749.277439064625
 30
0.0
 10
1513.842264931542
 20
-2749.84444162567
 30
0.0
 10
1500.401989938711
 20
-2749.055266632555
 30
0.0
 10
1465.043015943351
 20
-2746.495655071289
 30
0.0
 10
1431.107334091002
 20
-2742.609951806025
 30
0.0
 10
1398.78240237124
 20
-2737.303270693912
 30
0.0
 10
1398.78240237124
 20
-2737.303270693912
 30
0.0
 10
1400.963626509134
 20
-2571.414521406501
 30
0.0
 10
1400.963626509134
 20
-2571.414521406501
 30
0.0
 10
1400.963626509134
 20
-2571.414521406501
 30
0.0
 10
1413.949142305059
 20
-2507.428860967049
 30
0.0
 10
1486.751113994645
 20
-2502.876640405555
 30
0.0
 10
1559.553085684207
 20
-2498.13696185449
 30
0.0
 10
1570.643192918948
 20
-2571.414521406501
 30
0.0
 10
1570.643192918948
 20
-2571.414521406501
 30
0.0
 10
1570.643192918948
 20
-2571.414521406501
 30
0.0
 10
1570.643192918948
 20
-2737.965159397818
 30
0.0
 10
1570.643192918948
 20
-2737.965159397818
 30
0.0
  0
POLYLINE
  5
54
330
1F
100
AcDbEntity
  8
Layer 1
370
     0
100
AcDb2dPolyline
 66
     1
 10
0.0
 20
0.0
 30
0.0
  0
VERTEX
  5
55
330
54
100
AcDbEntity
  8
Layer 1
370
     0
100
AcDbVertex
100
AcDb2dVertex
 10
1547.229458592186
 20
-2373.958772394193
 30
0.0
  0
VERTEX
  5
56
330
54
100
AcDbEntity
  8
Layer 1
370
     0
100
AcDbVertex
100
AcDb2dVertex
 10
1547.229458592186
 20
-2225.795217453773
 30
0.0
  0
VERTEX
  5
57
330
54
100
AcDbEntity
  8
Layer 1
370
     0
100
AcDbVertex
100
AcDb2dVertex
 10
1639.93784876666
 20
-2225.795217453773
 30
0.0
  0
VERTEX
  5
58
330
54
100
AcDbEntity
  8
Layer 1
370
     0
100
AcDbVertex
100
AcDb2dVertex
 10
1639.93784876666
 20
-2373.958772394193
 30
0.0
  0
VERTEX
  5
59
330
54
100
AcDbEntity
  8
Layer 1
370
     0
100
AcDbVertex
100
AcDb2dVertex
 10
1547.229458592186
 20
-2373.958772394193
 30
0.0
  0
SEQEND
  5
5A
330
54
100
AcDbEntity
  8
Layer 1
370
     0
  0
SPLINE
  5
5B
330
1F
100
AcDbEntity
  8
Layer 1
370
     0
100
AcDbSpline
210
0.0
220
0.0
230
1.0
 70
    11
 71
     3
 72
    20
 73
    16
 74
     0
 42
0.0000000001
 43
0.0000000001
 12
1.0
 22
0.0
 32
0.0
 13
1.0
 23
0.0
 33
0.0
 40
0.0
 40
0.0
 40
0.0
 40
0.0
 40
1.0
 40
1.0
 40
1.0
 40
2.0
 40
2.0
 40
2.0
 40
3.0
 40
3.0
 40
3.0
 40
4.0
 40
4.0
 40
4.0
 40
5.0
 40
5.0
 40
5.0
 40
5.0
 10
1689.799359695733
 20
-2653.88215103971
 30
0.0
 10
1689.799359695733
 20
-2653.88215103971
 30
0.0
 10
1628.183538531865
 20
-2653.88215103971
 30
0.0
 10
1628.183538531865
 20
-2653.88215103971
 30
0.0
 10
1628.183538531865
 20
-2653.88215103971
 30
0.0
 10
1628.183538531865
 20
-2586.200559620749
 30
0.0
 10
1628.183538531865
 20
-2586.200559620749
 30
0.0
 10
1628.183538531865
 20
-2569.137253977666
 30
0.0
 10
1642.117915756453
 20
-2555.392649038797
 30
0.0
 10
1658.991449113813
 20
-2555.392649038797
 30
0.0
 10
1676.053597608816
 20
-2555.392649038797
 30
0.0
 10
1689.799359695733
 20
-2569.137253977666
 30
0.0
 10
1689.799359695733
 20
-2586.200559620749
 30
0.0
 10
1689.799359695733
 20
-2586.200559620749
 30
0.0
 10
1689.799359695733
 20
-2653.88215103971
 30
0.0
 10
1689.799359695733
 20
-2653.88215103971
 30
0.0
  0
SPLINE
  5
5C
330
1F
100
AcDbEntity
  8
Layer 1
370
     0
100
AcDbSpline
210
0.0
220
0.0
230
1.0
 70
    11
 71
     3
 72
    20
 73
    16
 74
     0
 42
0.0000000001
 43
0.0000000001
 12
1.0
 22
0.0
 32
0.0
 13
1.0
 23
0.0
 33
0.0
 40
0.0
 40
0.0
 40
0.0
 40
0.0
 40
1.0
 40
1.0
 40
1.0
 40
2.0
 40
2.0
 40
2.0
 40
3.0
 40
3.0
 40
3.0
 40
4.0
 40
4.0
 40
4.0
 40
5.0
 40
5.0
 40
5.0
 40
5.0
 10
1726.483268247028
 20
-2463.348461864414
 30
0.0
 10
1726.483268247028
 20
-2463.348461864414
 30
0.0
 10
1664.772560940231
 20
-2463.348461864414
 30
0.0
 10
1664.772560940231
 20
-2463.348461864414
 30
0.0
 10
1664.772560940231
 20
-2463.348461864414
 30
0.0
 10
1664.772560940231
 20
-2395.477098159732
 30
0.0
 10
1664.772560940231
 20
-2395.477098159732
 30
0.0
 10
1664.772560940231
 20
-2378.60356480237
 30
0.0
 10
1678.708095312943
 20
-2364.66918757778
 30
0.0
 10
1695.675357665079
 20
-2364.66918757778
 30
0.0
 10
1712.738663308121
 20
-2364.66918757778
 30
0.0
 10
1726.483268247028
 20
-2378.60356480237
 30
0.0
 10
1726.483268247028
 20
-2395.477098159732
 30
0.0
 10
1726.483268247028
 20
-2395.477098159732
 30
0.0
 10
1726.483268247028
 20
-2463.348461864414
 30
0.0
 10
1726.483268247028
 20
-2463.348461864414
 30
0.0
  0
SPLINE
  5
5D
330
1F
100
AcDbEntity
  8
Layer 1
370
     0
100
AcDbSpline
210
0.0
220
0.0
230
1.0
 70
    11
 71
     3
 72
    20
 73
    16
 74
     0
 42
0.0000000001
 43
0.0000000001
 12
1.0
 22
0.0
 32
0.0
 13
1.0
 23
0.0
 33
0.0
 40
0.0
 40
0.0
 40
0.0
 40
0.0
 40
1.0
 40
1.0
 40
1.0
 40
2.0
 40
2.0
 40
2.0
 40
3.0
 40
3.0
 40
3.0
 40
4.0
 40
4.0
 40
4.0
 40
5.0
 40
5.0
 40
5.0
 40
5.0
 10
1824.880198401193
 20
-2653.88215103971
 30
0.0
 10
1824.880198401193
 20
-2653.88215103971
 30
0.0
 10
1763.169491094459
 20
-2653.88215103971
 30
0.0
 10
1763.169491094459
 20
-2653.88215103971
 30
0.0
 10
1763.169491094459
 20
-2653.88215103971
 30
0.0
 10
1763.169491094459
 20
-2586.200559620749
 30
0.0
 10
1763.169491094459
 20
-2586.200559620749
 30
0.0
 10
1763.169491094459
 20
-2569.137253977666
 30
0.0
 10
1776.914096033304
 20
-2555.392649038797
 30
0.0
 10
1793.977401676419
 20
-2555.392649038797
 30
0.0
 10
1810.945821176609
 20
-2555.392649038797
 30
0.0
 10
1824.880198401193
 20
-2569.137253977666
 30
0.0
 10
1824.880198401193
 20
-2586.200559620749
 30
0.0
 10
1824.880198401193
 20
-2586.200559620749
 30
0.0
 10
1824.880198401193
 20
-2653.88215103971
 30
0.0
 10
1824.880198401193
 20
-2653.88215103971
 30
0.0
  0
SPLINE
  5
5E
330
1F
100
AcDbEntity
  8
Layer 1
370
     0
100
AcDbSpline
210
0.0
220
0.0
230
1.0
 70
    11
 71
     3
 72
    20
 73
    16
 74
     0
 42
0.0000000001
 43
0.0000000001
 12
1.0
 22
0.0
 32
0.0
 13
1.0
 23
0.0
 33
0.0
 40
0.0
 40
0.0
 40
0.0
 40
0.0
 40
1.0
 40
1.0
 40
1.0
 40
2.0
 40
2.0
 40
2.0
 40
3.0
 40
3.0
 40
3.0
 40
4.0
 40
4.0
 40
4.0
 40
5.0
 40
5.0
 40
5.0
 40
5.0
 10
1861.564106952488
 20
-2463.348461864414
 30
0.0
 10
1861.564106952488
 20
-2463.348461864414
 30
0.0
 10
1799.853399645717
 20
-2463.348461864414
 30
0.0
 10
1799.853399645717
 20
-2463.348461864414
 30
0.0
 10
1799.853399645717
 20
-2463.348461864414
 30
0.0
 10
1799.853399645717
 20
-2395.477098159732
 30
0.0
 10
1799.853399645717
 20
-2395.477098159732
 30
0.0
 10
1799.853399645717
 20
-2378.60356480237
 30
0.0
 10
1813.599161732674
 20
-2364.66918757778
 30
0.0
 10
1830.661310227677
 20
-2364.66918757778
 30
0.0
 10
1847.6297297279
 20
-2364.66918757778
 30
0.0
 10
1861.564106952488
 20
-2378.60356480237
 30
0.0
 10
1861.564106952488
 20
-2395.477098159732
 30
0.0
 10
1861.564106952488
 20
-2395.477098159732
 30
0.0
 10
1861.564106952488
 20
-2463.348461864414
 30
0.0
 10
1861.564106952488
 20
-2463.348461864414
 30
0.0
  0
SPLINE
  5
5F
330
1F
100
AcDbEntity
  8
Layer 1
370
     0
100
AcDbSpline
210
0.0
220
0.0
230
1.0
 70
    11
 71
     3
 72
   122
 73
   118
 74
     0
 42
0.0000000001
 43
0.0000000001
 12
1.0
 22
0.0
 32
0.0
 13
1.0
 23
0.0
 33
0.0
 40
0.0
 40
0.0
 40
0.0
 40
0.0
 40
1.0
 40
1.0
 40
1.0
 40
2.0
 40
2.0
 40
2.0
 40
3.0
 40
3.0
 40
3.0
 40
4.0
 40
4.0
 40
4.0
 40
5.0
 40
5.0
 40
5.0
 40
6.0
 40
6.0
 40
6.0
 40
7.0
 40
7.0
 40
7.0
 40
8.0
 40
8.0
 40
8.0
 40
9.0
 40
9.0
 40
9.0
 40
10.0
 40
10.0
 40
10.0
 40
11.0
 40
11.0
 40
11.0
 40
12.0
 40
12.0
 40
12.0
 40
13.0
 40
13.0
 40
13.0
 40
14.0
 40
14.0
 40
14.0
 40
15.0
 40
15.0
 40
15.0
 40
16.0
 40
16.0
 40
16.0
 40
17.0
 40
17.0
 40
17.0
 40
18.0
 40
18.0
 40
18.0
 40
19.0
 40
19.0
 40
19.0
 40
20.0
 40
20.0
 40
20.0
 40
21.0
 40
21.0
 40
21.0
 40
22.0
 40
22.0
 40
22.0
 40
23.0
 40
23.0
 40
23.0
 40
24.0
 40
24.0
 40
24.0
 40
25.0
 40
25.0
 40
25.0
 40
26.0
 40
26.0
 40
26.0
 40
27.0
 40
27.0
 40
27.0
 40
28.0
 40
28.0
 40
28.0
 40
29.0
 40
29.0
 40
29.0
 40
30.0
 40
30.0
 40
30.0
 40
31.0
 40
31.0
 40
31.0
 40
32.0
 40
32.0
 40
32.0
 40
33.0
 40
33.0
 40
33.0
 40
34.0
 40
34.0
 40
34.0
 40
35.0
 40
35.0
 40
35.0
 40
36.0
 40
36.0
 40
36.0
 40
37.0
 40
37.0
 40
37.0
 40
38.0
 40
38.0
 40
38.0
 40
39.0
 40
39.0
 40
39.0
 40
39.0
 10
2038.63900676559
 20
-2455.479854894886
 30
0.0
 10
2010.580480030623
 20
-2510.745247375118
 30
0.0
 10
1973.326097474079
 20
-2558.521577457259
 30
0.0
 10
1927.161674672569
 20
-2598.524186712764
 30
0.0
 10
1927.161674672569
 20
-2598.524186712764
 30
0.0
 10
1944.888026167677
 20
-2394.433350588175
 30
0.0
 10
1944.888026167677
 20
-2394.433350588175
 30
0.0
 10
1944.888026167677
 20
-2394.433350588175
 30
0.0
 10
2015.60365986221
 20
-2397.657165149527
 30
0.0
 10
2015.60365986221
 20
-2397.657165149527
 30
0.0
 10
2015.60365986221
 20
-2397.657165149527
 30
0.0
 10
1951.23961199941
 20
-2201.24400656069
 30
0.0
 10
1951.23961199941
 20
-2201.24400656069
 30
0.0
 10
1951.23961199941
 20
-2201.24400656069
 30
0.0
 10
1728.28494781341
 20
-2199.63209928003
 30
0.0
 10
1728.28494781341
 20
-2199.63209928003
 30
0.0
 10
1728.28494781341
 20
-2199.63209928003
 30
0.0
 10
1668.47080621595
 20
-2011.278477094529
 30
0.0
 10
1668.47080621595
 20
-2011.278477094529
 30
0.0
 10
1668.47080621595
 20
-2011.278477094529
 30
0.0
 10
1568.083581357672
 20
-2003.314983982138
 30
0.0
 10
1568.083581357672
 20
-2003.314983982138
 30
0.0
 10
1568.083581357672
 20
-2003.314983982138
 30
0.0
 10
1491.017518979441
 20
-1780.36031979614
 30
0.0
 10
1491.017518979441
 20
-1780.36031979614
 30
0.0
 10
1491.017518979441
 20
-1780.36031979614
 30
0.0
 10
1413.949142305059
 20
-2009.666569813866
 30
0.0
 10
1413.949142305059
 20
-2009.666569813866
 30
0.0
 10
1413.949142305059
 20
-2009.666569813866
 30
0.0
 10
1330.814995375613
 20
-2009.666569813866
 30
0.0
 10
1330.814995375613
 20
-2009.666569813866
 30
0.0
 10
1330.814995375613
 20
-2009.666569813866
 30
0.0
 10
1289.864681839537
 20
-2201.24400656069
 30
0.0
 10
1289.864681839537
 20
-2201.24400656069
 30
0.0
 10
1289.864681839537
 20
-2201.24400656069
 30
0.0
 10
1046.434282311458
 20
-2198.116235290287
 30
0.0
 10
1046.434282311458
 20
-2198.116235290287
 30
0.0
 10
1046.434282311458
 20
-2198.116235290287
 30
0.0
 10
985.2928918619273
 20
-2394.433350588175
 30
0.0
 10
985.2928918619273
 20
-2394.433350588175
 30
0.0
 10
985.2928918619273
 20
-2394.433350588175
 30
0.0
 10
1054.397775423886
 20
-2396.046415016926
 30
0.0
 10
1054.397775423886
 20
-2396.046415016926
 30
0.0
 10
1054.397775423886
 20
-2396.046415016926
 30
0.0
 10
1073.830920342521
 20
-2598.524186712764
 30
0.0
 10
1073.830920342521
 20
-2598.524186712764
 30
0.0
 10
1027.66534039295
 20
-2558.616463600152
 30
0.0
 10
990.4121149844668
 20
-2510.93501966087
 30
0.0
 10
962.2587021066374
 20
-2455.574741037744
 30
0.0
 10
790.8943280868789
 20
-2118.161931294988
 30
0.0
 10
964.5382838316236
 20
-1554.510471104577
 30
0.0
 10
1165.129904150928
 20
-1099.998903877973
 30
0.0
 10
1188.611910214617
 20
-1116.88400871617
 30
0.0
 10
1222.903993676757
 20
-1143.46022875579
 30
0.0
 10
1234.680289725145
 20
-1182.107817605194
 30
0.0
 10
1248.73616749856
 20
-1228.404155288241
 30
0.0
 10
1225.914892990697
 20
-1276.918745847845
 30
0.0
 10
1203.093618482859
 20
-1312.032404449472
 30
0.0
 10
1241.480849013396
 20
-1300.847411071843
 30
0.0
 10
1273.319778537987
 20
-1269.361411712825
 30
0.0
 10
1284.906302300637
 20
-1231.07369591747
 30
0.0
 10
1301.430376936687
 20
-1280.495490574744
 30
0.0
 10
1300.423658103804
 20
-1335.557224992242
 30
0.0
 10
1282.136089788133
 20
-1384.322916685995
 30
0.0
 10
1315.385582826797
 20
-1368.001342964641
 30
0.0
 10
1340.77572608059
 20
-1336.414671722319
 30
0.0
 10
1349.590880182661
 20
-1300.393809023024
 30
0.0
 10
1369.591027662313
 20
-1369.310077447353
 30
0.0
 10
1364.201031888168
 20
-1445.229406074577
 30
0.0
 10
1334.579198092082
 20
-1510.619844287694
 30
0.0
 10
1356.040823601523
 20
-1497.068483078812
 30
0.0
 10
1376.039813933085
 20
-1481.251425921932
 30
0.0
 10
1394.175795849829
 20
-1463.46605987457
 30
0.0
 10
1389.239402124515
 20
-1468.302938864677
 30
0.0
 10
1396.694907228162
 20
-1528.856498087687
 30
0.0
 10
1397.1982666446
 20
-1538.62977080312
 30
0.0
 10
1398.457243759729
 20
-1564.422601590077
 30
0.0
 10
1404.351756098369
 20
-1586.639844798192
 30
0.0
 10
1414.527716346927
 20
-1610.166979637144
 30
0.0
 10
1442.286541728177
 20
-1674.448869986007
 30
0.0
 10
1488.835137693497
 20
-1755.809108903057
 30
0.0
 10
1551.757379043966
 20
-1791.374055257322
 30
0.0
 10
1564.200192388585
 20
-1798.428029975928
 30
0.0
 10
1577.551366978978
 20
-1805.127917380874
 30
0.0
 10
1589.439906391517
 20
-1812.231649467041
 30
0.0
 10
1578.256070161975
 20
-1795.707574831018
 30
0.0
 10
1568.634383845527
 20
-1778.326053464885
 30
0.0
 10
1561.279550625184
 20
-1759.737626647408
 30
0.0
 10
1546.72031343536
 20
-1722.910231733784
 30
0.0
 10
1538.759134619124
 20
-1682.155476223837
 30
0.0
 10
1551.052675860932
 20
-1643.515987411029
 30
0.0
 10
1571.707769155984
 20
-1578.579151246731
 30
0.0
 10
1617.500747422584
 20
-1537.219207289008
 30
0.0
 10
1606.669841358615
 20
-1463.46605987457
 30
0.0
 10
1624.80466612728
 20
-1481.251425921932
 30
0.0
 10
1644.804813606932
 20
-1497.068483078812
 30
0.0
 10
1666.265281968286
 20
-1510.619844287694
 30
0.0
 10
1636.643448172197
 20
-1445.229406074577
 30
0.0
 10
1631.252295249955
 20
-1369.310077447353
 30
0.0
 10
1651.252442729607
 20
-1300.393809023024
 30
0.0
 10
1660.069911127865
 20
-1336.414671722319
 30
0.0
 10
1685.460054381658
 20
-1368.001342964641
 30
0.0
 10
1718.709547420322
 20
-1384.322916685995
 30
0.0
 10
1700.421979104651
 20
-1335.557224992242
 30
0.0
 10
1699.414103123667
 20
-1280.495490574744
 30
0.0
 10
1715.938177759728
 20
-1231.07369591747
 30
0.0
 10
1727.524701522403
 20
-1269.361411712825
 30
0.0
 10
1759.363631046961
 20
-1300.847411071843
 30
0.0
 10
1797.752018725596
 20
-1312.032404449472
 30
0.0
 10
1778.002972380125
 20
-1260.747601377361
 30
0.0
 10
1765.256986237551
 20
-1198.983665258706
 30
0.0
 10
1793.11648350207
 20
-1149.765528664195
 30
0.0
 10
1804.936751177642
 20
-1128.897520121733
 30
0.0
 10
1822.46870179468
 20
-1113.097820186093
 30
0.0
 10
1836.502593754483
 20
-1101.585353900828
 30
0.0
 10
2036.824598570251
 20
-1555.741676665706
 30
0.0
 10
2209.85179438635
 20
-2118.362117913484
 30
0.0
 10
2038.63900676559
 20
-2455.479854894886
 30
0.0
  0
HATCH
  5
60
330
1F
100
AcDbEntity
  8
Layer 1
 62
   173
420
  6844597
100
AcDbHatch
 10
0.0
 20
0.0
 30
0.0
210
0.0
220
0.0
230
1.0
  2
SOLID
 70
     1
 71
     0
 91
       19
 92
        1
 93
        1
 72
     4
 94
        3
 73
     0
 74
     1
 95
       59
 96
       55
 40
0.0
 40
0.0
 40
0.0
 40
0.0
 40
1.0
 40
1.0
 40
1.0
 40
2.0
 40
2.0
 40
2.0
 40
3.0
 40
3.0
 40
3.0
 40
4.0
 40
4.0
 40
4.0
 40
5.0
 40
5.0
 40
5.0
 40
6.0
 40
6.0
 40
6.0
 40
7.0
 40
7.0
 40
7.0
 40
8.0
 40
8.0
 40
8.0
 40
9.0
 40
9.0
 40
9.0
 40
10.0
 40
10.0
 40
10.0
 40
11.0
 40
11.0
 40
11.0
 40
12.0
 40
12.0
 40
12.0
 40
13.0
 40
13.0
 40
13.0
 40
14.0
 40
14.0
 40
14.0
 40
15.0
 40
15.0
 40
15.0
 40
16.0
 40
16.0
 40
16.0
 40
17.0
 40
17.0
 40
17.0
 40
18.0
 40
18.0
 40
18.0
 40
18.0
 10
1960.813855244402
 20
-1149.793300218216
 10
1774.164712186312
 20
-704.2635164177227
 10
1542.869324612589
 20
-335.4225647201383
 10
1540.499485337079
 20
-331.8203627353978
 10
1540.499485337079
 20
-331.8203627353978
 10
1534.621173071593
 20
-322.5296207709271
 10
1534.621173071593
 20
-322.5296207709271
 10
1565.618855939259
 20
-309.164560403533
 10
1587.421840133416
 20
-278.3566498215787
 10
1587.421840133416
 20
-242.4295161170885
 10
1587.421840133416
 20
-194.3696847544215
 10
1548.461821301406
 20
-155.4096659223851
 10
1500.401989938711
 20
-155.4096659223851
 10
1452.341001427956
 20
-155.4096659223851
 10
1413.38098259592
 20
-194.3696847544215
 10
1413.38098259592
 20
-242.4295161170885
 10
1413.38098259592
 20
-278.3566498215787
 10
1435.182809642016
 20
-309.164560403533
 10
1466.180492509679
 20
-322.5296207709271
 10
1466.180492509679
 20
-322.5296207709271
 10
1460.303337392283
 20
-331.8203627353978
 10
1460.303337392283
 20
-331.8203627353978
 10
1458.028384259602
 20
-335.4225647201383
 10
1226.73183953783
 20
-704.2635164177227
 10
1040.08385362779
 20
-1149.793300218216
 10
785.9417342883953
 20
-1756.377268612192
 10
731.3405448082503
 20
-2210.155203953689
 10
877.7024201822551
 20
-2498.421620283099
 10
925.9520238306777
 20
-2593.404963590227
 10
995.6262242498615
 20
-2669.144934264437
 10
1085.963618000687
 20
-2725.454074316262
 10
1093.831067822159
 20
-2730.476096999728
 10
1101.889447077448
 20
-2735.215775550827
 10
1110.135284322305
 20
-2739.860567959035
 10
1214.029825022424
 20
-2798.442346847303
 10
1343.233508610485
 20
-2833.233161133556
 10
1497.178175377356
 20
-2843.848837653928
 10
1497.178175377356
 20
-2843.848837653928
 10
1500.401989938711
 20
-2844.038609939684
 10
1500.401989938711
 20
-2844.038609939684
 10
1500.401989938711
 20
-2844.038609939684
 10
1503.718376346782
 20
-2843.848837653928
 10
1503.718376346782
 20
-2843.848837653928
 10
1660.222654674917
 20
-2833.043388847806
 10
1791.22801782939
 20
-2797.306027429066
 10
1895.975376667238
 20
-2736.8265256834
 10
1902.800236065274
 20
-2732.94082241817
 10
1909.530209320377
 20
-2728.865346867156
 10
1916.165296432669
 20
-2724.600099030422
 10
2005.934530474357
 20
-2668.388159417673
 10
2075.134300179177
 20
-2592.930532875862
 10
2123.10040254707
 20
-2498.421620283099
 10
2269.556006915887
 20
-2210.155203953689
 10
2214.954817435731
 20
-1756.377268612192
 10
1960.813855244402
 20
-1149.793300218216
 97
        0
 97
        0
 92
        1
 93
        1
 72
     4
 94
        3
 73
     0
 74
     1
 95
       23
 96
       19
 40
0.0
 40
0.0
 40
0.0
 40
0.0
 40
1.0
 40
1.0
 40
1.0
 40
2.0
 40
2.0
 40
2.0
 40
3.0
 40
3.0
 40
3.0
 40
4.0
 40
4.0
 40
4.0
 40
5.0
 40
5.0
 40
5.0
 40
6.0
 40
6.0
 40
6.0
 40
6.0
 10
1451.581912285013
 20
-242.4295161170885
 10
1451.581912285013
 20
-215.5084659484892
 10
1473.479782622026
 20
-193.6117527595343
 10
1500.401989938711
 20
-193.6117527595343
 10
1527.416769102116
 20
-193.6117527595343
 10
1549.314639439124
 20
-215.5084659484892
 10
1549.314639439124
 20
-242.4295161170885
 10
1549.314639439124
 20
-264.8018171684653
 10
1534.336514642973
 20
-283.6656452298412
 10
1513.767050306111
 20
-289.4467570563193
 10
1509.501802469376
 20
-290.6802769135975
 10
1505.046782346917
 20
-291.3433227655914
 10
1500.401989938711
 20
-291.3433227655914
 10
1495.757197530535
 20
-291.3433227655914
 10
1491.30102025996
 20
-290.6802769135975
 10
1487.034615275164
 20
-289.4467570563193
 10
1466.560037081153
 20
-283.6656452298412
 10
1451.581912285013
 20
-264.8018171684653
 10
1451.581912285013
 20
-242.4295161170885
 97
        0
 97
        0
 92
        1
 93
        1
 72
     4
 94
        3
 73
     0
 74
     1
 95
       35
 96
       31
 40
0.0
 40
0.0
 40
0.0
 40
0.0
 40
1.0
 40
1.0
 40
1.0
 40
2.0
 40
2.0
 40
2.0
 40
3.0
 40
3.0
 40
3.0
 40
4.0
 40
4.0
 40
4.0
 40
5.0
 40
5.0
 40
5.0
 40
6.0
 40
6.0
 40
6.0
 40
7.0
 40
7.0
 40
7.0
 40
8.0
 40
8.0
 40
8.0
 40
9.0
 40
9.0
 40
9.0
 40
10.0
 40
10.0
 40
10.0
 40
10.0
 10
1500.401989938711
 20
-448.7004192314453
 10
1565.761185153568
 20
-559.2474042650974
 10
1700.454379250967
 20
-796.8191630451092
 10
1826.502520014628
 20
-1079.112380966142
 10
1810.304761138212
 20
-1082.556053663417
 10
1788.969264769888
 20
-1089.387855949928
 10
1764.25026740469
 20
-1100.798493203862
 10
1734.678190976201
 20
-1114.450526296014
 10
1698.003539609597
 20
-1119.892593733928
 10
1670.749230792846
 20
-1102.107227686573
 10
1635.836915957834
 20
-1079.336867694421
 10
1647.625940635118
 20
-1043.619177793074
 10
1604.502502997742
 20
-989.4634903251845
 10
1591.002056304549
 20
-972.4858136402763
 10
1554.528748704555
 20
-926.692835373673
 10
1503.999563331125
 20
-925.3320292271546
 10
1449.138015532111
 20
-923.8207938298019
 10
1407.476055924535
 20
-975.6101134664441
 10
1396.341977062615
 20
-989.4634903251845
 10
1353.319211308515
 20
-1042.965389125762
 10
1365.360494268107
 20
-1079.084609412155
 10
1330.095249267522
 20
-1102.107227686573
 10
1302.842097598857
 20
-1119.892593733928
 10
1266.166289084193
 20
-1114.450526296014
 10
1236.595369803765
 20
-1100.798493203862
 10
1211.911086881055
 20
-1089.401741726937
 10
1190.576747660818
 20
-1082.650939806279
 10
1174.375517340142
 20
-1079.246610143886
 10
1300.40514373447
 20
-796.8909062263047
 10
1435.074037722106
 20
-559.2543471536046
 10
1500.401989938711
 20
-448.7004192314453
 97
        0
 97
        0
 92
        1
 93
        1
 72
     4
 94
        3
 73
     0
 74
     1
 95
       17
 96
       13
 40
0.0
 40
0.0
 40
0.0
 40
0.0
 40
1.0
 40
1.0
 40
1.0
 40
2.0
 40
2.0
 40
2.0
 40
3.0
 40
3.0
 40
3.0
 40
4.0
 40
4.0
 40
4.0
 40
4.0
 10
1504.603594630842
 20
-1099.840374590513
 10
1550.094557247592
 20
-1099.840374590513
 10
1588.78496057608
 20
-1136.313682190534
 10
1585.107543965909
 20
-1145.28042269154
 10
1582.337331453406
 20
-1151.981467244605
 10
1557.19828933379
 20
-1140.444700849555
 10
1503.747305048857
 20
-1140.545372732831
 10
1451.304196744897
 20
-1140.69695913179
 10
1426.821257588786
 20
-1151.880795361298
 10
1424.099645295779
 20
-1145.28042269154
 10
1420.372471318011
 20
-1136.313682190534
 10
1459.061717498409
 20
-1099.840374590513
 10
1504.603594630842
 20
-1099.840374590513
 97
        0
 97
        0
 92
        1
 93
        1
 72
     4
 94
        3
 73
     0
 74
     1
 95
       17
 96
       13
 40
0.0
 40
0.0
 40
0.0
 40
0.0
 40
1.0
 40
1.0
 40
1.0
 40
2.0
 40
2.0
 40
2.0
 40
3.0
 40
3.0
 40
3.0
 40
4.0
 40
4.0
 40
4.0
 40
4.0
 10
1428.533836752757
 20
-1044.123694357608
 10
1428.533836752757
 20
-1028.454752155445
 10
1441.228908379608
 20
-1015.709923160925
 10
1456.895536285623
 20
-1015.709923160925
 10
1472.614235855386
 20
-1015.709923160925
 10
1485.309307482277
 20
-1028.454752155445
 10
1485.309307482277
 20
-1044.123694357608
 10
1485.309307482277
 20
-1059.790322263592
 10
1472.614235855386
 20
-1072.535151258078
 10
1456.895536285623
 20
-1072.535151258078
 10
1441.228908379608
 20
-1072.535151258078
 10
1428.533836752757
 20
-1059.790322263592
 10
1428.533836752757
 20
-1044.123694357608
 97
        0
 97
        0
 92
        1
 93
        1
 72
     4
 94
        3
 73
     0
 74
     1
 95
       17
 96
       13
 40
0.0
 40
0.0
 40
0.0
 40
0.0
 40
1.0
 40
1.0
 40
1.0
 40
2.0
 40
2.0
 40
2.0
 40
3.0
 40
3.0
 40
3.0
 40
4.0
 40
4.0
 40
4.0
 40
4.0
 10
1523.848124411814
 20
-1044.123694357608
 10
1523.848124411814
 20
-1028.454752155445
 10
1536.543196038701
 20
-1015.709923160925
 10
1552.260738460378
 20
-1015.709923160925
 10
1567.928523514443
 20
-1015.709923160925
 10
1580.673352508931
 20
-1028.454752155445
 10
1580.673352508931
 20
-1044.123694357608
 10
1580.673352508931
 20
-1059.790322263592
 10
1567.928523514443
 20
-1072.535151258078
 10
1552.260738460378
 20
-1072.535151258078
 10
1536.543196038701
 20
-1072.535151258078
 10
1523.848124411814
 20
-1059.790322263592
 10
1523.848124411814
 20
-1044.123694357608
 97
        0
 97
        0
 92
        1
 93
        1
 72
     4
 94
        3
 73
     0
 74
     1
 95
       23
 96
       19
 40
0.0
 40
0.0
 40
0.0
 40
0.0
 40
1.0
 40
1.0
 40
1.0
 40
2.0
 40
2.0
 40
2.0
 40
3.0
 40
3.0
 40
3.0
 40
4.0
 40
4.0
 40
4.0
 40
5.0
 40
5.0
 40
5.0
 40
6.0
 40
6.0
 40
6.0
 40
6.0
 10
1211.659985746877
 20
-2653.88215103971
 10
1211.659985746877
 20
-2653.88215103971
 10
1151.940730292279
 20
-2653.88215103971
 10
1151.940730292279
 20
-2653.88215103971
 10
1151.276527292199
 20
-2653.599806907276
 10
1150.612324292144
 20
-2653.220262335773
 10
1149.949278440143
 20
-2652.74583162144
 10
1149.949278440143
 20
-2652.74583162144
 10
1149.949278440143
 20
-2586.200559620749
 10
1149.949278440143
 20
-2586.200559620749
 10
1149.949278440143
 20
-2569.137253977666
 10
1163.695040527075
 20
-2555.392649038797
 10
1180.757189022102
 20
-2555.392649038797
 10
1197.725608522289
 20
-2555.392649038797
 10
1211.659985746877
 20
-2569.137253977666
 10
1211.659985746877
 20
-2586.200559620749
 10
1211.659985746877
 20
-2586.200559620749
 10
1211.659985746877
 20
-2653.88215103971
 10
1211.659985746877
 20
-2653.88215103971
 97
        0
 97
        0
 92
        1
 93
        1
 72
     4
 94
        3
 73
     0
 74
     1
 95
       20
 96
       16
 40
0.0
 40
0.0
 40
0.0
 40
0.0
 40
1.0
 40
1.0
 40
1.0
 40
2.0
 40
2.0
 40
2.0
 40
3.0
 40
3.0
 40
3.0
 40
4.0
 40
4.0
 40
4.0
 40
5.0
 40
5.0
 40
5.0
 40
5.0
 10
1113.264212740762
 20
-2463.348461864414
 10
1113.264212740762
 20
-2463.348461864414
 10
1113.264212740762
 20
-2395.477098159732
 10
1113.264212740762
 20
-2395.477098159732
 10
1113.264212740762
 20
-2378.60356480237
 10
1127.008817679629
 20
-2364.66918757778
 10
1144.072123322718
 20
-2364.66918757778
 10
1161.040542822944
 20
-2364.66918757778
 10
1174.974920047558
 20
-2378.60356480237
 10
1174.974920047558
 20
-2395.477098159732
 10
1174.974920047558
 20
-2395.477098159732
 10
1174.974920047558
 20
-2463.348461864414
 10
1174.974920047558
 20
-2463.348461864414
 10
1174.974920047558
 20
-2463.348461864414
 10
1113.264212740762
 20
-2463.348461864414
 10
1113.264212740762
 20
-2463.348461864414
 97
        0
 97
        0
 92
        1
 93
        1
 72
     4
 94
        3
 73
     0
 74
     1
 95
       20
 96
       16
 40
0.0
 40
0.0
 40
0.0
 40
0.0
 40
1.0
 40
1.0
 40
1.0
 40
2.0
 40
2.0
 40
2.0
 40
3.0
 40
3.0
 40
3.0
 40
4.0
 40
4.0
 40
4.0
 40
5.0
 40
5.0
 40
5.0
 40
5.0
 10
1346.45732317184
 20
-2653.88215103971
 10
1346.45732317184
 20
-2653.88215103971
 10
1284.746615865084
 20
-2653.88215103971
 10
1284.746615865084
 20
-2653.88215103971
 10
1284.746615865084
 20
-2653.88215103971
 10
1284.746615865084
 20
-2586.200559620749
 10
1284.746615865084
 20
-2586.200559620749
 10
1284.746615865084
 20
-2569.137253977666
 10
1298.491220803951
 20
-2555.392649038797
 10
1315.649412589895
 20
-2555.392649038797
 10
1332.711561084883
 20
-2555.392649038797
 10
1346.45732317184
 20
-2569.137253977666
 10
1346.45732317184
 20
-2586.200559620749
 10
1346.45732317184
 20
-2586.200559620749
 10
1346.45732317184
 20
-2653.88215103971
 10
1346.45732317184
 20
-2653.88215103971
 97
        0
 97
        0
 92
        1
 93
        1
 72
     4
 94
        3
 73
     0
 74
     1
 95
       20
 96
       16
 40
0.0
 40
0.0
 40
0.0
 40
0.0
 40
1.0
 40
1.0
 40
1.0
 40
2.0
 40
2.0
 40
2.0
 40
3.0
 40
3.0
 40
3.0
 40
4.0
 40
4.0
 40
4.0
 40
5.0
 40
5.0
 40
5.0
 40
5.0
 10
1248.155279160505
 20
-2463.348461864414
 10
1248.155279160505
 20
-2463.348461864414
 10
1248.155279160505
 20
-2395.477098159732
 10
1248.155279160505
 20
-2395.477098159732
 10
1248.155279160505
 20
-2378.60356480237
 10
1261.899884099372
 20
-2364.66918757778
 10
1278.96318974245
 20
-2364.66918757778
 10
1296.026495385539
 20
-2364.66918757778
 10
1309.771100324409
 20
-2378.60356480237
 10
1309.771100324409
 20
-2395.477098159732
 10
1309.771100324409
 20
-2395.477098159732
 10
1309.771100324409
 20
-2463.348461864414
 10
1309.771100324409
 20
-2463.348461864414
 10
1309.771100324409
 20
-2463.348461864414
 10
1248.155279160505
 20
-2463.348461864414
 10
1248.155279160505
 20
-2463.348461864414
 97
        0
 97
        0
 92
        1
 93
        4
 72
     1
 10
1480.589300448641
 20
-2225.795217453773
 11
1480.589300448641
 21
-2373.958772394193
 72
     1
 10
1480.589300448641
 20
-2373.958772394193
 11
1387.880910274167
 21
-2373.958772394193
 72
     1
 10
1387.880910274167
 20
-2373.958772394193
 11
1387.880910274167
 21
-2225.795217453773
 72
     1
 10
1387.880910274167
 20
-2225.795217453773
 11
1480.589300448641
 21
-2225.795217453773
 97
        0
 92
        1
 93
        1
 72
     4
 94
        3
 73
     0
 74
     1
 95
       17
 96
       13
 40
0.0
 40
0.0
 40
0.0
 40
0.0
 40
1.0
 40
1.0
 40
1.0
 40
2.0
 40
2.0
 40
2.0
 40
3.0
 40
3.0
 40
3.0
 40
4.0
 40
4.0
 40
4.0
 40
4.0
 10
1444.662166744141
 20
-2051.944132202032
 10
1444.662166744141
 20
-2025.117968176291
 10
1466.465150938298
 20
-2003.314983982138
 10
1493.292472112096
 20
-2003.314983982138
 10
1520.307251275497
 20
-2003.314983982138
 10
1542.110235469647
 20
-2025.117968176291
 10
1542.110235469647
 20
-2051.944132202032
 10
1542.110235469647
 20
-2078.96006851349
 10
1520.307251275497
 20
-2100.573280421922
 10
1493.292472112096
 20
-2100.573280421922
 10
1466.465150938298
 20
-2100.573280421922
 10
1444.662166744141
 20
-2078.96006851349
 10
1444.662166744141
 20
-2051.944132202032
 97
        0
 97
        0
 92
        1
 93
        1
 72
     4
 94
        3
 73
     0
 74
     1
 95
       26
 96
       22
 40
0.0
 40
0.0
 40
0.0
 40
0.0
 40
1.0
 40
1.0
 40
1.0
 40
2.0
 40
2.0
 40
2.0
 40
3.0
 40
3.0
 40
3.0
 40
4.0
 40
4.0
 40
4.0
 40
5.0
 40
5.0
 40
5.0
 40
6.0
 40
6.0
 40
6.0
 40
7.0
 40
7.0
 40
7.0
 40
7.0
 10
1570.643192918948
 20
-2737.965159397818
 10
1564.630651475743
 20
-2740.33268437719
 10
1557.914563997618
 20
-2742.568294474995
 10
1550.523859186645
 20
-2744.422045705182
 10
1531.169400337718
 20
-2749.277439064625
 10
1513.842264931542
 20
-2749.84444162567
 10
1500.401989938711
 20
-2749.055266632555
 10
1465.043015943351
 20
-2746.495655071289
 10
1431.107334091002
 20
-2742.609951806025
 10
1398.78240237124
 20
-2737.303270693912
 10
1398.78240237124
 20
-2737.303270693912
 10
1400.963626509134
 20
-2571.414521406501
 10
1400.963626509134
 20
-2571.414521406501
 10
1400.963626509134
 20
-2571.414521406501
 10
1413.949142305059
 20
-2507.428860967049
 10
1486.751113994645
 20
-2502.876640405555
 10
1559.553085684207
 20
-2498.13696185449
 10
1570.643192918948
 20
-2571.414521406501
 10
1570.643192918948
 20
-2571.414521406501
 10
1570.643192918948
 20
-2571.414521406501
 10
1570.643192918948
 20
-2737.965159397818
 10
1570.643192918948
 20
-2737.965159397818
 97
        0
 97
        0
 92
        1
 93
        4
 72
     1
 10
1547.229458592186
 20
-2373.958772394193
 11
1547.229458592186
 21
-2225.795217453773
 72
     1
 10
1547.229458592186
 20
-2225.795217453773
 11
1639.93784876666
 21
-2225.795217453773
 72
     1
 10
1639.93784876666
 20
-2225.795217453773
 11
1639.93784876666
 21
-2373.958772394193
 72
     1
 10
1639.93784876666
 20
-2373.958772394193
 11
1547.229458592186
 21
-2373.958772394193
 97
        0
 92
        1
 93
        1
 72
     4
 94
        3
 73
     0
 74
     1
 95
       20
 96
       16
 40
0.0
 40
0.0
 40
0.0
 40
0.0
 40
1.0
 40
1.0
 40
1.0
 40
2.0
 40
2.0
 40
2.0
 40
3.0
 40
3.0
 40
3.0
 40
4.0
 40
4.0
 40
4.0
 40
5.0
 40
5.0
 40
5.0
 40
5.0
 10
1689.799359695733
 20
-2653.88215103971
 10
1689.799359695733
 20
-2653.88215103971
 10
1628.183538531865
 20
-2653.88215103971
 10
1628.183538531865
 20
-2653.88215103971
 10
1628.183538531865
 20
-2653.88215103971
 10
1628.183538531865
 20
-2586.200559620749
 10
1628.183538531865
 20
-2586.200559620749
 10
1628.183538531865
 20
-2569.137253977666
 10
1642.117915756453
 20
-2555.392649038797
 10
1658.991449113813
 20
-2555.392649038797
 10
1676.053597608816
 20
-2555.392649038797
 10
1689.799359695733
 20
-2569.137253977666
 10
1689.799359695733
 20
-2586.200559620749
 10
1689.799359695733
 20
-2586.200559620749
 10
1689.799359695733
 20
-2653.88215103971
 10
1689.799359695733
 20
-2653.88215103971
 97
        0
 97
        0
 92
        1
 93
        1
 72
     4
 94
        3
 73
     0
 74
     1
 95
       20
 96
       16
 40
0.0
 40
0.0
 40
0.0
 40
0.0
 40
1.0
 40
1.0
 40
1.0
 40
2.0
 40
2.0
 40
2.0
 40
3.0
 40
3.0
 40
3.0
 40
4.0
 40
4.0
 40
4.0
 40
5.0
 40
5.0
 40
5.0
 40
5.0
 10
1726.483268247028
 20
-2463.348461864414
 10
1726.483268247028
 20
-2463.348461864414
 10
1664.772560940231
 20
-2463.348461864414
 10
1664.772560940231
 20
-2463.348461864414
 10
1664.772560940231
 20
-2463.348461864414
 10
1664.772560940231
 20
-2395.477098159732
 10
1664.772560940231
 20
-2395.477098159732
 10
1664.772560940231
 20
-2378.60356480237
 10
1678.708095312943
 20
-2364.66918757778
 10
1695.675357665079
 20
-2364.66918757778
 10
1712.738663308121
 20
-2364.66918757778
 10
1726.483268247028
 20
-2378.60356480237
 10
1726.483268247028
 20
-2395.477098159732
 10
1726.483268247028
 20
-2395.477098159732
 10
1726.483268247028
 20
-2463.348461864414
 10
1726.483268247028
 20
-2463.348461864414
 97
        0
 97
        0
 92
        1
 93
        1
 72
     4
 94
        3
 73
     0
 74
     1
 95
       20
 96
       16
 40
0.0
 40
0.0
 40
0.0
 40
0.0
 40
1.0
 40
1.0
 40
1.0
 40
2.0
 40
2.0
 40
2.0
 40
3.0
 40
3.0
 40
3.0
 40
4.0
 40
4.0
 40
4.0
 40
5.0
 40
5.0
 40
5.0
 40
5.0
 10
1824.880198401193
 20
-2653.88215103971
 10
1824.880198401193
 20
-2653.88215103971
 10
1763.169491094459
 20
-2653.88215103971
 10
1763.169491094459
 20
-2653.88215103971
 10
1763.169491094459
 20
-2653.88215103971
 10
1763.169491094459
 20
-2586.200559620749
 10
1763.169491094459
 20
-2586.200559620749
 10
1763.169491094459
 20
-2569.137253977666
 10
1776.914096033304
 20
-2555.392649038797
 10
1793.977401676419
 20
-2555.392649038797
 10
1810.945821176609
 20
-2555.392649038797
 10
1824.880198401193
 20
-2569.137253977666
 10
1824.880198401193
 20
-2586.200559620749
 10
1824.880198401193
 20
-2586.200559620749
 10
1824.880198401193
 20
-2653.88215103971
 10
1824.880198401193
 20
-2653.88215103971
 97
        0
 97
        0
 92
        1
 93
        1
 72
     4
 94
        3
 73
     0
 74
     1
 95
       20
 96
       16
 40
0.0
 40
0.0
 40
0.0
 40
0.0
 40
1.0
 40
1.0
 40
1.0
 40
2.0
 40
2.0
 40
2.0
 40
3.0
 40
3.0
 40
3.0
 40
4.0
 40
4.0
 40
4.0
 40
5.0
 40
5.0
 40
5.0
 40
5.0
 10
1861.564106952488
 20
-2463.348461864414
 10
1861.564106952488
 20
-2463.348461864414
 10
1799.853399645717
 20
-2463.348461864414
 10
1799.853399645717
 20
-2463.348461864414
 10
1799.853399645717
 20
-2463.348461864414
 10
1799.853399645717
 20
-2395.477098159732
 10
1799.853399645717
 20
-2395.477098159732
 10
1799.853399645717
 20
-2378.60356480237
 10
1813.599161732674
 20
-2364.66918757778
 10
1830.661310227677
 20
-2364.66918757778
 10
1847.6297297279
 20
-2364.66918757778
 10
1861.564106952488
 20
-2378.60356480237
 10
1861.564106952488
 20
-2395.477098159732
 10
1861.564106952488
 20
-2395.477098159732
 10
1861.564106952488
 20
-2463.348461864414
 10
1861.564106952488
 20
-2463.348461864414
 97
        0
 97
        0
 92
        1
 93
        1
 72
     4
 94
        3
 73
     0
 74
     1
 95
      122
 96
      118
 40
0.0
 40
0.0
 40
0.0
 40
0.0
 40
1.0
 40
1.0
 40
1.0
 40
2.0
 40
2.0
 40
2.0
 40
3.0
 40
3.0
 40
3.0
 40
4.0
 40
4.0
 40
4.0
 40
5.0
 40
5.0
 40
5.0
 40
6.0
 40
6.0
 40
6.0
 40
7.0
 40
7.0
 40
7.0
 40
8.0
 40
8.0
 40
8.0
 40
9.0
 40
9.0
 40
9.0
 40
10.0
 40
10.0
 40
10.0
 40
11.0
 40
11.0
 40
11.0
 40
12.0
 40
12.0
 40
12.0
 40
13.0
 40
13.0
 40
13.0
 40
14.0
 40
14.0
 40
14.0
 40
15.0
 40
15.0
 40
15.0
 40
16.0
 40
16.0
 40
16.0
 40
17.0
 40
17.0
 40
17.0
 40
18.0
 40
18.0
 40
18.0
 40
19.0
 40
19.0
 40
19.0
 40
20.0
 40
20.0
 40
20.0
 40
21.0
 40
21.0
 40
21.0
 40
22.0
 40
22.0
 40
22.0
 40
23.0
 40
23.0
 40
23.0
 40
24.0
 40
24.0
 40
24.0
 40
25.0
 40
25.0
 40
25.0
 40
26.0
 40
26.0
 40
26.0
 40
27.0
 40
27.0
 40
27.0
 40
28.0
 40
28.0
 40
28.0
 40
29.0
 40
29.0
 40
29.0
 40
30.0
 40
30.0
 40
30.0
 40
31.0
 40
31.0
 40
31.0
 40
32.0
 40
32.0
 40
32.0
 40
33.0
 40
33.0
 40
33.0
 40
34.0
 40
34.0
 40
34.0
 40
35.0
 40
35.0
 40
35.0
 40
36.0
 40
36.0
 40
36.0
 40
37.0
 40
37.0
 40
37.0
 40
38.0
 40
38.0
 40
38.0
 40
39.0
 40
39.0
 40
39.0
 40
39.0
 10
2038.63900676559
 20
-2455.479854894886
 10
2010.580480030623
 20
-2510.745247375118
 10
1973.326097474079
 20
-2558.521577457259
 10
1927.161674672569
 20
-2598.524186712764
 10
1927.161674672569
 20
-2598.524186712764
 10
1944.888026167677
 20
-2394.433350588175
 10
1944.888026167677
 20
-2394.433350588175
 10
1944.888026167677
 20
-2394.433350588175
 10
2015.60365986221
 20
-2397.657165149527
 10
2015.60365986221
 20
-2397.657165149527
 10
2015.60365986221
 20
-2397.657165149527
 10
1951.23961199941
 20
-2201.24400656069
 10
1951.23961199941
 20
-2201.24400656069
 10
1951.23961199941
 20
-2201.24400656069
 10
1728.28494781341
 20
-2199.63209928003
 10
1728.28494781341
 20
-2199.63209928003
 10
1728.28494781341
 20
-2199.63209928003
 10
1668.47080621595
 20
-2011.278477094529
 10
1668.47080621595
 20
-2011.278477094529
 10
1668.47080621595
 20
-2011.278477094529
 10
1568.083581357672
 20
-2003.314983982138
 10
1568.083581357672
 20
-2003.314983982138
 10
1568.083581357672
 20
-2003.314983982138
 10
1491.017518979441
 20
-1780.36031979614
 10
1491.017518979441
 20
-1780.36031979614
 10
1491.017518979441
 20
-1780.36031979614
 10
1413.949142305059
 20
-2009.666569813866
 10
1413.949142305059
 20
-2009.666569813866
 10
1413.949142305059
 20
-2009.666569813866
 10
1330.814995375613
 20
-2009.666569813866
 10
1330.814995375613
 20
-2009.666569813866
 10
1330.814995375613
 20
-2009.666569813866
 10
1289.864681839537
 20
-2201.24400656069
 10
1289.864681839537
 20
-2201.24400656069
 10
1289.864681839537
 20
-2201.24400656069
 10
1046.434282311458
 20
-2198.116235290287
 10
1046.434282311458
 20
-2198.116235290287
 10
1046.434282311458
 20
-2198.116235290287
 10
985.2928918619273
 20
-2394.433350588175
 10
985.2928918619273
 20
-2394.433350588175
 10
985.2928918619273
 20
-2394.433350588175
 10
1054.397775423886
 20
-2396.046415016926
 10
1054.397775423886
 20
-2396.046415016926
 10
1054.397775423886
 20
-2396.046415016926
 10
1073.830920342521
 20
-2598.524186712764
 10
1073.830920342521
 20
-2598.524186712764
 10
1027.66534039295
 20
-2558.616463600152
 10
990.4121149844668
 20
-2510.93501966087
 10
962.2587021066374
 20
-2455.574741037744
 10
790.8943280868789
 20
-2118.161931294988
 10
964.5382838316236
 20
-1554.510471104577
 10
1165.129904150928
 20
-1099.998903877973
 10
1188.611910214617
 20
-1116.88400871617
 10
1222.903993676757
 20
-1143.46022875579
 10
1234.680289725145
 20
-1182.107817605194
 10
1248.73616749856
 20
-1228.404155288241
 10
1225.914892990697
 20
-1276.918745847845
 10
1203.093618482859
 20
-1312.032404449472
 10
1241.480849013396
 20
-1300.847411071843
 10
1273.319778537987
 20
-1269.361411712825
 10
1284.906302300637
 20
-1231.07369591747
 10
1301.430376936687
 20
-1280.495490574744
 10
1300.423658103804
 20
-1335.557224992242
 10
1282.136089788133
 20
-1384.322916685995
 10
1315.385582826797
 20
-1368.001342964641
 10
1340.77572608059
 20
-1336.414671722319
 10
1349.590880182661
 20
-1300.393809023024
 10
1369.591027662313
 20
-1369.310077447353
 10
1364.201031888168
 20
-1445.229406074577
 10
1334.579198092082
 20
-1510.619844287694
 10
1356.040823601523
 20
-1497.068483078812
 10
1376.039813933085
 20
-1481.251425921932
 10
1394.175795849829
 20
-1463.46605987457
 10
1389.239402124515
 20
-1468.302938864677
 10
1396.694907228162
 20
-1528.856498087687
 10
1397.1982666446
 20
-1538.62977080312
 10
1398.457243759729
 20
-1564.422601590077
 10
1404.351756098369
 20
-1586.639844798192
 10
1414.527716346927
 20
-1610.166979637144
 10
1442.286541728177
 20
-1674.448869986007
 10
1488.835137693497
 20
-1755.809108903057
 10
1551.757379043966
 20
-1791.374055257322
 10
1564.200192388585
 20
-1798.428029975928
 10
1577.551366978978
 20
-1805.127917380874
 10
1589.439906391517
 20
-1812.231649467041
 10
1578.256070161975
 20
-1795.707574831018
 10
1568.634383845527
 20
-1778.326053464885
 10
1561.279550625184
 20
-1759.737626647408
 10
1546.72031343536
 20
-1722.910231733784
 10
1538.759134619124
 20
-1682.155476223837
 10
1551.052675860932
 20
-1643.515987411029
 10
1571.707769155984
 20
-1578.579151246731
 10
1617.500747422584
 20
-1537.219207289008
 10
1606.669841358615
 20
-1463.46605987457
 10
1624.80466612728
 20
-1481.251425921932
 10
1644.804813606932
 20
-1497.068483078812
 10
1666.265281968286
 20
-1510.619844287694
 10
1636.643448172197
 20
-1445.229406074577
 10
1631.252295249955
 20
-1369.310077447353
 10
1651.252442729607
 20
-1300.393809023024
 10
1660.069911127865
 20
-1336.414671722319
 10
1685.460054381658
 20
-1368.001342964641
 10
1718.709547420322
 20
-1384.322916685995
 10
1700.421979104651
 20
-1335.557224992242
 10
1699.414103123667
 20
-1280.495490574744
 10
1715.938177759728
 20
-1231.07369591747
 10
1727.524701522403
 20
-1269.361411712825
 10
1759.363631046961
 20
-1300.847411071843
 10
1797.752018725596
 20
-1312.032404449472
 10
1778.002972380125
 20
-1260.747601377361
 10
1765.256986237551
 20
-1198.983665258706
 10
1793.11648350207
 20
-1149.765528664195
 10
1804.936751177642
 20
-1128.897520121733
 10
1822.46870179468
 20
-1113.097820186093
 10
1836.502593754483
 20
-1101.585353900828
 10
2036.824598570251
 20
-1555.741676665706
 10
2209.85179438635
 20
-2118.362117913484
 10
2038.63900676559
 20
-2455.479854894886
 97
        0
 97
        0
 75
     2
 76
     1
 98
        0
  0
ENDSEC
  0
SECTION
  2
OBJECTS
  0
DICTIONARY
  5
C
330
0
100
AcDbDictionary
281
     1
  3
ACAD_GROUP
350
D
  3
ACAD_LAYOUT
350
1A
  3
ACAD_MATERIAL
350
3B
  3
ACAD_MLEADERSTYLE
350
62
  3
ACAD_MLINESTYLE
350
17
  3
ACAD_PLOTSETTINGS
350
19
  3
ACAD_PLOTSTYLENAME
350
E
  3
ACAD_TABLESTYLE
350
61
  3
ACAD_VISUALSTYLE
350
2A
  0
SUN
  5
3F
330
29
100
AcDbSun
 90
        1
290
     0
 63
     7
421
 16777215
 40
1.0
291
     1
 91
  2455826
 92
 54000000
292
     0
 70
     2
 71
   256
280
     1
  0
DICTIONARY
  5
D
102
{ACAD_REACTORS
330
C
102
}
330
C
100
AcDbDictionary
281
     1
  0
DICTIONARY
  5
1A
102
{ACAD_REACTORS
330
C
102
}
330
C
100
AcDbDictionary
281
     1
  3
Layout1
350
1E
  3
Layout2
350
26
  3
Model
350
22
  0
DICTIONARY
  5
3B
102
{ACAD_REACTORS
330
C
102
}
330
C
100
AcDbDictionary
281
     1
  3
ByBlock
350
3D
  3
ByLayer
350
3C
  3
Global
350
3E
  0
DICTIONARY
  5
62
102
{ACAD_REACTORS
330
C
102
}
330
C
100
AcDbDictionary
281
     1
  0
DICTIONARY
  5
17
102
{ACAD_REACTORS
330
C
102
}
330
C
100
AcDbDictionary
281
     1
  3
Standard
350
18
  0
DICTIONARY
  5
19
102
{ACAD_REACTORS
330
C
102
}
330
C
100
AcDbDictionary
281
     1
  0
ACDBDICTIONARYWDFLT
  5
E
102
{ACAD_REACTORS
330
C
102
}
330
C
100
AcDbDictionary
281
     1
  3
Normal
350
F
100
AcDbDictionaryWithDefault
340
F
  0
DICTIONARY
  5
61
102
{ACAD_REACTORS
330
C
102
}
330
C
100
AcDbDictionary
281
     1
  0
DICTIONARY
  5
2A
102
{ACAD_REACTORS
330
C
102
}
330
C
100
AcDbDictionary
281
     1
  3
2dWireframe
350
2F
  3
3D Hidden
350
31
  3
3dWireframe
350
30
  3
Basic
350
32
  3
Brighten
350
36
  3
ColorChange
350
3A
  3
Conceptual
350
34
  3
Dim
350
35
  3
Facepattern
350
39
  3
Flat
350
2B
  3
FlatWithEdges
350
2C
  3
Gouraud
350
2D
  3
GouraudWithEdges
350
2E
  3
Linepattern
350
38
  3
Realistic
350
33
  3
Thicken
350
37
  0
LAYOUT
  5
1E
102
{ACAD_REACTORS
330
1A
102
}
330
1A
100
AcDbPlotSettings
  1

  2
none_device
  4

  6

 40
0.0
 41
0.0
 42
0.0
 43
0.0
 44
0.0
 45
0.0
 46
0.0
 47
0.0
 48
0.0
 49
0.0
140
0.0
141
0.0
142
1.0
143
1.0
 70
   688
 72
     0
 73
     0
 74
     5
  7

 75
    16
 76
     0
 77
     2
 78
   300
147
1.0
148
0.0
149
0.0
100
AcDbLayout
  1
Layout1
 70
     1
 71
     1
 10
0.0
 20
0.0
 11
12.0
 21
9.0
 12
0.0
 22
0.0
 32
0.0
 14
1.000000000000000E+20
 24
1.000000000000000E+20
 34
1.000000000000000E+20
 15
-1.000000000000000E+20
 25
-1.000000000000000E+20
 35
-1.000000000000000E+20
146
0.0
 13
0.0
 23
0.0
 33
0.0
 16
1.0
 26
0.0
 36
0.0
 17
0.0
 27
1.0
 37
0.0
 76
     0
330
1B
  0
LAYOUT
  5
26
102
{ACAD_REACTORS
330
1A
102
}
330
1A
100
AcDbPlotSettings
  1

  2
none_device
  4

  6

 40
0.0
 41
0.0
 42
0.0
 43
0.0
 44
0.0
 45
0.0
 46
0.0
 47
0.0
 48
0.0
 49
0.0
140
0.0
141
0.0
142
1.0
143
1.0
 70
   688
 72
     0
 73
     0
 74
     5
  7

 75
    16
 76
     0
 77
     2
 78
   300
147
1.0
148
0.0
149
0.0
100
AcDbLayout
  1
Layout2
 70
     1
 71
     2
 10
0.0
 20
0.0
 11
0.0
 21
0.0
 12
0.0
 22
0.0
 32
0.0
 14
0.0
 24
0.0
 34
0.0
 15
0.0
 25
0.0
 35
0.0
146
0.0
 13
0.0
 23
0.0
 33
0.0
 16
1.0
 26
0.0
 36
0.0
 17
0.0
 27
1.0
 37
0.0
 76
     0
330
23
  0
LAYOUT
  5
22
102
{ACAD_REACTORS
330
1A
102
}
330
1A
100
AcDbPlotSettings
  1

  2
none_device
  4

  6

 40
0.0
 41
0.0
 42
0.0
 43
0.0
 44
0.0
 45
0.0
 46
0.0
 47
0.0
 48
0.0
 49
0.0
140
0.0
141
0.0
142
1.0
143
1.0
 70
  1712
 72
     0
 73
     0
 74
     0
  7

 75
     0
 76
     0
 77
     2
 78
   300
147
1.0
148
0.0
149
0.0
100
AcDbLayout
  1
Model
 70
     1
 71
     0
 10
0.0
 20
0.0
 11
12.0
 21
9.0
 12
0.0
 22
0.0
 32
0.0
 14
1.000000000000000E+20
 24
1.000000000000000E+20
 34
1.000000000000000E+20
 15
-1.000000000000000E+20
 25
-1.000000000000000E+20
 35
-1.000000000000000E+20
146
0.0
 13
0.0
 23
0.0
 33
0.0
 16
1.0
 26
0.0
 36
0.0
 17
0.0
 27
1.0
 37
0.0
 76
     0
330
1F
331
29
  0
MATERIAL
  5
3D
102
{ACAD_REACTORS
330
3B
102
}
330
3B
100
AcDbMaterial
  1
ByBlock
 72
     1
 94
      127
  0
MATERIAL
  5
3C
102
{ACAD_REACTORS
330
3B
102
}
330
3B
100
AcDbMaterial
  1
ByLayer
 72
     1
 94
      127
  0
MATERIAL
  5
3E
102
{ACAD_REACTORS
330
3B
102
}
330
3B
100
AcDbMaterial
  1
Global
 72
     1
 94
      127
  0
MLINESTYLE
  5
18
102
{ACAD_REACTORS
330
17
102
}
330
17
100
AcDbMlineStyle
  2
Standard
 70
     0
  3

 62
   256
 51
90.0
 52
90.0
 71
     2
 49
0.5
 62
   256
  6
BYLAYER
 49
-0.5
 62
   256
  6
BYLAYER
  0
ACDBPLACEHOLDER
  5
F
102
{ACAD_REACTORS
330
E
102
}
330
E
  0
VISUALSTYLE
  5
2F
102
{ACAD_REACTORS
330
2A
102
}
330
2A
100
AcDbVisualStyle
  2
2dWireframe
 70
     4
177
     2
291
     0
 71
     0
176
     1
 72
     2
176
     1
 73
     0
176
     1
 90
        0
176
     1
 40
-0.6
176
     1
 41
-30.0
176
     1
 62
     5
 63
     7
421
 16777215
176
     1
 74
     1
176
     1
 91
        4
176
     1
 64
     7
176
     1
 65
   257
176
     1
 75
     1
176
     1
175
     1
176
     1
 42
1.0
176
     1
 92
        0
176
     1
 66
   257
176
     1
 43
1.0
176
     1
 76
     1
176
     1
 77
     6
176
     1
 78
     2
176
     1
 67
     7
176
     1
 79
     5
176
     1
170
     0
176
     1
171
     0
176
     1
290
     0
176
     1
 93
        1
176
     1
 44
0.0
176
     1
173
     0
176
     1
  0
VISUALSTYLE
  5
31
102
{ACAD_REACTORS
330
2A
102
}
330
2A
100
AcDbVisualStyle
  2
3D Hidden
 70
     6
177
     2
291
     0
 71
     1
176
     1
 72
     2
176
     1
 73
     2
176
     1
 90
        0
176
     1
 40
-0.6
176
     1
 41
-30.0
176
     1
 62
     5
 63
     7
421
 16777215
176
     1
 74
     2
176
     1
 91
        2
176
     1
 64
     7
176
     1
 65
   257
176
     1
 75
     2
176
     1
175
     1
176
     1
 42
40.0
176
     1
 92
        0
176
     1
 66
   257
176
     1
 43
1.0
176
     1
 76
     1
176
     1
 77
     6
176
     1
 78
     2
176
     1
 67
     7
176
     1
 79
     3
176
     1
170
     0
176
     1
171
     0
176
     1
290
     0
176
     1
 93
        1
176
     1
 44
0.0
176
     1
173
     0
176
     1
  0
VISUALSTYLE
  5
30
102
{ACAD_REACTORS
330
2A
102
}
330
2A
100
AcDbVisualStyle
  2
3dWireframe
 70
     5
177
     2
291
     0
 71
     0
176
     1
 72
     2
176
     1
 73
     0
176
     1
 90
        0
176
     1
 40
-0.6
176
     1
 41
-30.0
176
     1
 62
     5
 63
     7
421
 16777215
176
     1
 74
     1
176
     1
 91
        4
176
     1
 64
     7
176
     1
 65
   257
176
     1
 75
     1
176
     1
175
     1
176
     1
 42
1.0
176
     1
 92
        0
176
     1
 66
   257
176
     1
 43
1.0
176
     1
 76
     1
176
     1
 77
     6
176
     1
 78
     2
176
     1
 67
     7
176
     1
 79
     5
176
     1
170
     0
176
     1
171
     0
176
     1
290
     0
176
     1
 93
        1
176
     1
 44
0.0
176
     1
173
     0
176
     1
  0
VISUALSTYLE
  5
32
102
{ACAD_REACTORS
330
2A
102
}
330
2A
100
AcDbVisualStyle
  2
Basic
 70
     7
177
     2
291
     1
 71
     1
176
     1
 72
     0
176
     1
 73
     1
176
     1
 90
        0
176
     1
 40
-0.6
176
     1
 41
-30.0
176
     1
 62
     5
 63
     7
421
 16777215
176
     1
 74
     0
176
     1
 91
        4
176
     1
 64
     7
176
     1
 65
   257
176
     1
 75
     1
176
     1
175
     1
176
     1
 42
1.0
176
     1
 92
        8
176
     1
 66
     7
176
     1
 43
1.0
176
     1
 76
     1
176
     1
 77
     6
176
     1
 78
     2
176
     1
 67
     7
176
     1
 79
     5
176
     1
170
     0
176
     1
171
     0
176
     1
290
     0
176
     1
 93
        1
176
     1
 44
0.0
176
     1
173
     0
176
     1
  0
VISUALSTYLE
  5
36
102
{ACAD_REACTORS
330
2A
102
}
330
2A
100
AcDbVisualStyle
  2
Brighten
 70
    12
177
     2
291
     1
 71
     2
176
     1
 72
     2
176
     1
 73
     0
176
     1
 90
        0
176
     1
 40
-0.6
176
     1
 41
-30.0
176
     1
 62
     5
 63
     7
421
 16777215
176
     1
 74
     1
176
     1
 91
        4
176
     1
 64
     7
176
     1
 65
   257
176
     1
 75
     1
176
     1
175
     1
176
     1
 42
1.0
176
     1
 92
        8
176
     1
 66
     7
176
     1
 43
1.0
176
     1
 76
     1
176
     1
 77
     6
176
     1
 78
     2
176
     1
 67
     7
176
     1
 79
     5
176
     1
170
     0
176
     1
171
     0
176
     1
290
     0
176
     1
 93
        1
176
     1
 44
50.0
176
     1
173
     0
176
     1
  0
VISUALSTYLE
  5
3A
102
{ACAD_REACTORS
330
2A
102
}
330
2A
100
AcDbVisualStyle
  2
ColorChange
 70
    16
177
     2
291
     1
 71
     2
176
     1
 72
     2
176
     1
 73
     3
176
     1
 90
        0
176
     1
 40
-0.6
176
     1
 41
-30.0
176
     1
 62
     5
 63
     8
421
  8421504
176
     1
 74
     1
176
     1
 91
        4
176
     1
 64
     7
176
     1
 65
   257
176
     1
 75
     1
176
     1
175
     1
176
     1
 42
1.0
176
     1
 92
        8
176
     1
 66
     8
424
  8421504
176
     1
 43
1.0
176
     1
 76
     1
176
     1
 77
     6
176
     1
 78
     2
176
     1
 67
     7
176
     1
 79
     5
176
     1
170
     0
176
     1
171
     0
176
     1
290
     0
176
     1
 93
        1
176
     1
 44
0.0
176
     1
173
     0
176
     1
  0
VISUALSTYLE
  5
34
102
{ACAD_REACTORS
330
2A
102
}
330
2A
100
AcDbVisualStyle
  2
Conceptual
 70
     9
177
     2
291
     0
 71
     3
176
     1
 72
     2
176
     1
 73
     0
176
     1
 90
        0
176
     1
 40
-0.6
176
     1
 41
-30.0
176
     1
 62
     5
 63
     7
421
 16777215
176
     1
 74
     2
176
     1
 91
        2
176
     1
 64
     7
176
     1
 65
   257
176
     1
 75
     1
176
     1
175
     1
176
     1
 42
40.0
176
     1
 92
        8
176
     1
 66
     7
176
     1
 43
1.0
176
     1
 76
     1
176
     1
 77
     6
176
     1
 78
     2
176
     1
 67
     7
176
     1
 79
     3
176
     1
170
     0
176
     1
171
     0
176
     1
290
     0
176
     1
 93
        1
176
     1
 44
0.0
176
     1
173
     0
176
     1
  0
VISUALSTYLE
  5
35
102
{ACAD_REACTORS
330
2A
102
}
330
2A
100
AcDbVisualStyle
  2
Dim
 70
    11
177
     2
291
     1
 71
     2
176
     1
 72
     2
176
     1
 73
     0
176
     1
 90
        0
176
     1
 40
-0.6
176
     1
 41
-30.0
176
     1
 62
     5
 63
     7
421
 16777215
176
     1
 74
     1
176
     1
 91
        4
176
     1
 64
     7
176
     1
 65
   257
176
     1
 75
     1
176
     1
175
     1
176
     1
 42
1.0
176
     1
 92
        8
176
     1
 66
     7
176
     1
 43
1.0
176
     1
 76
     1
176
     1
 77
     6
176
     1
 78
     2
176
     1
 67
     7
176
     1
 79
     5
176
     1
170
     0
176
     1
171
     0
176
     1
290
     0
176
     1
 93
        1
176
     1
 44
-50.0
176
     1
173
     0
176
     1
  0
VISUALSTYLE
  5
39
102
{ACAD_REACTORS
330
2A
102
}
330
2A
100
AcDbVisualStyle
  2
Facepattern
 70
    15
177
     2
291
     1
 71
     2
176
     1
 72
     2
176
     1
 73
     0
176
     1
 90
        0
176
     1
 40
-0.6
176
     1
 41
-30.0
176
     1
 62
     5
 63
     7
421
 16777215
176
     1
 74
     1
176
     1
 91
        4
176
     1
 64
     7
176
     1
 65
   257
176
     1
 75
     1
176
     1
175
     1
176
     1
 42
1.0
176
     1
 92
        8
176
     1
 66
     7
176
     1
 43
1.0
176
     1
 76
     1
176
     1
 77
     6
176
     1
 78
     2
176
     1
 67
     7
176
     1
 79
     5
176
     1
170
     0
176
     1
171
     0
176
     1
290
     0
176
     1
 93
        1
176
     1
 44
0.0
176
     1
173
     0
176
     1
  0
VISUALSTYLE
  5
2B
102
{ACAD_REACTORS
330
2A
102
}
330
2A
100
AcDbVisualStyle
  2
Flat
 70
     0
177
     2
291
     1
 71
     2
176
     1
 72
     1
176
     1
 73
     1
176
     1
 90
        2
176
     1
 40
-0.6
176
     1
 41
30.0
176
     1
 62
     5
 63
     7
421
 16777215
176
     1
 74
     0
176
     1
 91
        4
176
     1
 64
     7
176
     1
 65
   257
176
     1
 75
     1
176
     1
175
     1
176
     1
 42
1.0
176
     1
 92
        8
176
     1
 66
     7
176
     1
 43
1.0
176
     1
 76
     1
176
     1
 77
     6
176
     1
 78
     2
176
     1
 67
     7
176
     1
 79
     5
176
     1
170
     0
176
     1
171
     0
176
     1
290
     0
176
     1
 93
       13
176
     1
 44
0.0
176
     1
173
     0
176
     1
  0
VISUALSTYLE
  5
2C
102
{ACAD_REACTORS
330
2A
102
}
330
2A
100
AcDbVisualStyle
  2
FlatWithEdges
 70
     1
177
     2
291
     1
 71
     2
176
     1
 72
     1
176
     1
 73
     1
176
     1
 90
        2
176
     1
 40
-0.6
176
     1
 41
30.0
176
     1
 62
     5
 63
     7
421
 16777215
176
     1
 74
     1
176
     1
 91
        4
176
     1
 64
     7
176
     1
 65
   257
176
     1
 75
     1
176
     1
175
     1
176
     1
 42
1.0
176
     1
 92
        0
176
     1
 66
   257
176
     1
 43
1.0
176
     1
 76
     1
176
     1
 77
     6
176
     1
 78
     2
176
     1
 67
     7
176
     1
 79
     5
176
     1
170
     0
176
     1
171
     0
176
     1
290
     0
176
     1
 93
       13
176
     1
 44
0.0
176
     1
173
     0
176
     1
  0
VISUALSTYLE
  5
2D
102
{ACAD_REACTORS
330
2A
102
}
330
2A
100
AcDbVisualStyle
  2
Gouraud
 70
     2
177
     2
291
     1
 71
     2
176
     1
 72
     2
176
     1
 73
     1
176
     1
 90
        2
176
     1
 40
-0.6
176
     1
 41
30.0
176
     1
 62
     5
 63
     7
421
 16777215
176
     1
 74
     0
176
     1
 91
        4
176
     1
 64
     7
176
     1
 65
   257
176
     1
 75
     1
176
     1
175
     1
176
     1
 42
1.0
176
     1
 92
        0
176
     1
 66
     7
176
     1
 43
1.0
176
     1
 76
     1
176
     1
 77
     6
176
     1
 78
     2
176
     1
 67
     7
176
     1
 79
     5
176
     1
170
     0
176
     1
171
     0
176
     1
290
     0
176
     1
 93
       13
176
     1
 44
0.0
176
     1
173
     0
176
     1
  0
VISUALSTYLE
  5
2E
102
{ACAD_REACTORS
330
2A
102
}
330
2A
100
AcDbVisualStyle
  2
GouraudWithEdges
 70
     3
177
     2
291
     1
 71
     2
176
     1
 72
     2
176
     1
 73
     1
176
     1
 90
        2
176
     1
 40
-0.6
176
     1
 41
30.0
176
     1
 62
     5
 63
     7
421
 16777215
176
     1
 74
     1
176
     1
 91
        4
176
     1
 64
     7
176
     1
 65
   257
176
     1
 75
     1
176
     1
175
     1
176
     1
 42
1.0
176
     1
 92
        0
176
     1
 66
   257
176
     1
 43
1.0
176
     1
 76
     1
176
     1
 77
     6
176
     1
 78
     2
176
     1
 67
     7
176
     1
 79
     5
176
     1
170
     0
176
     1
171
     0
176
     1
290
     0
176
     1
 93
       13
176
     1
 44
0.0
176
     1
173
     0
176
     1
  0
VISUALSTYLE
  5
38
102
{ACAD_REACTORS
330
2A
102
}
330
2A
100
AcDbVisualStyle
  2
Linepattern
 70
    14
177
     2
291
     1
 71
     2
176
     1
 72
     2
176
     1
 73
     0
176
     1
 90
        0
176
     1
 40
-0.6
176
     1
 41
-30.0
176
     1
 62
     5
 63
     7
421
 16777215
176
     1
 74
     1
176
     1
 91
        4
176
     1
 64
     7
176
     1
 65
   257
176
     1
 75
     7
176
     1
175
     7
176
     1
 42
1.0
176
     1
 92
        8
176
     1
 66
     7
176
     1
 43
1.0
176
     1
 76
     1
176
     1
 77
     6
176
     1
 78
     2
176
     1
 67
     7
176
     1
 79
     5
176
     1
170
     0
176
     1
171
     0
176
     1
290
     0
176
     1
 93
        1
176
     1
 44
0.0
176
     1
173
     0
176
     1
  0
VISUALSTYLE
  5
33
102
{ACAD_REACTORS
330
2A
102
}
330
2A
100
AcDbVisualStyle
  2
Realistic
 70
     8
177
     2
291
     0
 71
     2
176
     1
 72
     2
176
     1
 73
     0
176
     1
 90
        0
176
     1
 40
-0.6
176
     1
 41
-30.0
176
     1
 62
     5
 63
     7
421
 16777215
176
     1
 74
     1
176
     1
 91
        0
176
     1
 64
     7
176
     1
 65
   257
176
     1
 75
     1
176
     1
175
     1
176
     1
 42
1.0
176
     1
 92
        8
176
     1
 66
     8
424
  7895160
176
     1
 43
1.0
176
     1
 76
     1
176
     1
 77
     6
176
     1
 78
     2
176
     1
 67
     7
176
     1
 79
     5
176
     1
170
     0
176
     1
171
     0
176
     1
290
     0
176
     1
 93
       13
176
     1
 44
0.0
176
     1
173
     0
176
     1
  0
VISUALSTYLE
  5
37
102
{ACAD_REACTORS
330
2A
102
}
330
2A
100
AcDbVisualStyle
  2
Thicken
 70
    13
177
     2
291
     1
 71
     2
176
     1
 72
     2
176
     1
 73
     0
176
     1
 90
        0
176
     1
 40
-0.6
176
     1
 41
-30.0
176
     1
 62
     5
 63
     7
421
 16777215
176
     1
 74
     1
176
     1
 91
        4
176
     1
 64
     7
176
     1
 65
   257
176
     1
 75
     1
176
     1
175
     1
176
     1
 42
1.0
176
     1
 92
       12
176
     1
 66
     7
176
     1
 43
1.0
176
     1
 76
     1
176
     1
 77
     6
176
     1
 78
     2
176
     1
 67
     7
176
     1
 79
     5
176
     1
170
     0
176
     1
171
     0
176
     1
290
     0
176
     1
 93
        1
176
     1
 44
0.0
176
     1
173
     0
176
     1
  0
ENDSEC
  0
EOF
