  0
SECTION
  2
HEADER
  9
$ACADVER
  1
AC1021
  9
$ACADMAINTVER
 70
    25
  9
$DWGCODEPAGE
  3
ANSI_1252
  9
$INSBASE
 10
0.0
 20
0.0
 30
0.0
  9
$EXTMIN
 10
-7.39597
 20
-4.43998
 30
0.0
  9
$EXTMAX
 10
7.39571
 20
4.44019
 30
0.0
  9
$LIMMIN
 10
0.0
 20
0.0
  9
$LIMMAX
 10
12.0
 20
9.0
  9
$ORTHOMODE
 70
     0
  9
$REGENMODE
 70
     1
  9
$FILLMODE
 70
     1
  9
$QTEXTMODE
 70
     0
  9
$MIRRTEXT
 70
     1
  9
$LTSCALE
 40
1.0
  9
$ATTMODE
 70
     1
  9
$TEXTSIZE
 40
0.2
  9
$TRACEWID
 40
0.05
  9
$TEXTSTYLE
  7
Standard
  9
$CLAYER
  8
0
  9
$CELTYPE
  6
ByLayer
  9
$CECOLOR
 62
   256
  9
$CELTSCALE
 40
1.0
  9
$DISPSILH
 70
     0
  9
$DIMSCALE
 40
1.0
  9
$DIMASZ
 40
0.18
  9
$DIMEXO
 40
0.0625
  9
$DIMDLI
 40
0.38
  9
$DIMRND
 40
0.0
  9
$DIMDLE
 40
0.0
  9
$DIMEXE
 40
0.18
  9
$DIMTP
 40
0.0
  9
$DIMTM
 40
0.0
  9
$DIMTXT
 40
0.18
  9
$DIMCEN
 40
0.09
  9
$DIMTSZ
 40
0.0
  9
$DIMTOL
 70
     0
  9
$DIMLIM
 70
     0
  9
$DIMTIH
 70
     1
  9
$DIMTOH
 70
     1
  9
$DIMSE1
 70
     0
  9
$DIMSE2
 70
     0
  9
$DIMTAD
 70
     0
  9
$DIMZIN
 70
     0
  9
$DIMBLK
  1

  9
$DIMASO
 70
     1
  9
$DIMSHO
 70
     1
  9
$DIMPOST
  1

  9
$DIMAPOST
  1

  9
$DIMALT
 70
     0
  9
$DIMALTD
 70
     2
  9
$DIMALTF
 40
25.4
  9
$DIMLFAC
 40
1.0
  9
$DIMTOFL
 70
     0
  9
$DIMTVP
 40
0.0
  9
$DIMTIX
 70
     0
  9
$DIMSOXD
 70
     0
  9
$DIMSAH
 70
     0
  9
$DIMBLK1
  1

  9
$DIMBLK2
  1

  9
$DIMSTYLE
  2
Standard
  9
$DIMCLRD
 70
     0
  9
$DIMCLRE
 70
     0
  9
$DIMCLRT
 70
     0
  9
$DIMTFAC
 40
1.0
  9
$DIMGAP
 40
0.09
  9
$DIMJUST
 70
     0
  9
$DIMSD1
 70
     0
  9
$DIMSD2
 70
     0
  9
$DIMTOLJ
 70
     1
  9
$DIMTZIN
 70
     0
  9
$DIMALTZ
 70
     0
  9
$DIMALTTZ
 70
     0
  9
$DIMUPT
 70
     0
  9
$DIMDEC
 70
     4
  9
$DIMTDEC
 70
     4
  9
$DIMALTU
 70
     2
  9
$DIMALTTD
 70
     2
  9
$DIMTXSTY
  7
Standard
  9
$DIMAUNIT
 70
     0
  9
$DIMADEC
 70
     0
  9
$DIMALTRND
 40
0.0
  9
$DIMAZIN
 70
     0
  9
$DIMDSEP
 70
    46
  9
$DIMATFIT
 70
     3
  9
$DIMFRAC
 70
     0
  9
$DIMLDRBLK
  1

  9
$DIMLUNIT
 70
     2
  9
$DIMLWD
 70
    -2
  9
$DIMLWE
 70
    -2
  9
$DIMTMOVE
 70
     0
  9
$DIMFXL
 40
1.0
  9
$DIMFXLON
 70
     0
  9
$DIMJOGANG
 40
0.7853981633974483
  9
$DIMTFILL
 70
     0
  9
$DIMTFILLCLR
 70
     0
  9
$DIMARCSYM
 70
     0
  9
$DIMLTYPE
  6

  9
$DIMLTEX1
  6

  9
$DIMLTEX2
  6

  9
$LUNITS
 70
     2
  9
$LUPREC
 70
     4
  9
$SKETCHINC
 40
0.1
  9
$FILLETRAD
 40
0.5
  9
$AUNITS
 70
     0
  9
$AUPREC
 70
     0
  9
$MENU
  1
.
  9
$ELEVATION
 40
0.0
  9
$PELEVATION
 40
0.0
  9
$THICKNESS
 40
0.0
  9
$LIMCHECK
 70
     0
  9
$CHAMFERA
 40
0.5
  9
$CHAMFERB
 40
0.5
  9
$CHAMFERC
 40
1.0
  9
$CHAMFERD
 40
0.0
  9
$SKPOLY
 70
     0
  9
$TDCREATE
 40
2456876.743625775
  9
$TDUCREATE
 40
2456876.868625775
  9
$TDUPDATE
 40
2456876.743626134
  9
$TDUUPDATE
 40
2456876.868626134
  9
$TDINDWG
 40
0.0000000116
  9
$TDUSRTIMER
 40
0.0000000116
  9
$USRTIMER
 70
     1
  9
$ANGBASE
 50
0.0
  9
$ANGDIR
 70
     0
  9
$PDMODE
 70
     0
  9
$PDSIZE
 40
0.0
  9
$PLINEWID
 40
0.0
  9
$SPLFRAME
 70
     0
  9
$SPLINETYPE
 70
     6
  9
$SPLINESEGS
 70
     8
  9
$HANDSEED
  5
64
  9
$SURFTAB1
 70
     6
  9
$SURFTAB2
 70
     6
  9
$SURFTYPE
 70
     6
  9
$SURFU
 70
     6
  9
$SURFV
 70
     6
  9
$UCSBASE
  2

  9
$UCSNAME
  2

  9
$UCSORG
 10
0.0
 20
0.0
 30
0.0
  9
$UCSXDIR
 10
1.0
 20
0.0
 30
0.0
  9
$UCSYDIR
 10
0.0
 20
1.0
 30
0.0
  9
$UCSORTHOREF
  2

  9
$UCSORTHOVIEW
 70
     0
  9
$UCSORGTOP
 10
0.0
 20
0.0
 30
0.0
  9
$UCSORGBOTTOM
 10
0.0
 20
0.0
 30
0.0
  9
$UCSORGLEFT
 10
0.0
 20
0.0
 30
0.0
  9
$UCSORGRIGHT
 10
0.0
 20
0.0
 30
0.0
  9
$UCSORGFRONT
 10
0.0
 20
0.0
 30
0.0
  9
$UCSORGBACK
 10
0.0
 20
0.0
 30
0.0
  9
$PUCSBASE
  2

  9
$PUCSNAME
  2

  9
$PUCSORG
 10
0.0
 20
0.0
 30
0.0
  9
$PUCSXDIR
 10
1.0
 20
0.0
 30
0.0
  9
$PUCSYDIR
 10
0.0
 20
1.0
 30
0.0
  9
$PUCSORTHOREF
  2

  9
$PUCSORTHOVIEW
 70
     0
  9
$PUCSORGTOP
 10
0.0
 20
0.0
 30
0.0
  9
$PUCSORGBOTTOM
 10
0.0
 20
0.0
 30
0.0
  9
$PUCSORGLEFT
 10
0.0
 20
0.0
 30
0.0
  9
$PUCSORGRIGHT
 10
0.0
 20
0.0
 30
0.0
  9
$PUCSORGFRONT
 10
0.0
 20
0.0
 30
0.0
  9
$PUCSORGBACK
 10
0.0
 20
0.0
 30
0.0
  9
$USERI1
 70
     0
  9
$USERI2
 70
     0
  9
$USERI3
 70
     0
  9
$USERI4
 70
     0
  9
$USERI5
 70
     0
  9
$USERR1
 40
0.0
  9
$USERR2
 40
0.0
  9
$USERR3
 40
0.0
  9
$USERR4
 40
0.0
  9
$USERR5
 40
0.0
  9
$WORLDVIEW
 70
     1
  9
$SHADEDGE
 70
     3
  9
$SHADEDIF
 70
    70
  9
$TILEMODE
 70
     1
  9
$MAXACTVP
 70
    64
  9
$PINSBASE
 10
0.0
 20
0.0
 30
0.0
  9
$PLIMCHECK
 70
     0
  9
$PEXTMIN
 10
1.000000000000000E+20
 20
1.000000000000000E+20
 30
1.000000000000000E+20
  9
$PEXTMAX
 10
-1.000000000000000E+20
 20
-1.000000000000000E+20
 30
-1.000000000000000E+20
  9
$PLIMMIN
 10
0.0
 20
0.0
  9
$PLIMMAX
 10
12.0
 20
9.0
  9
$UNITMODE
 70
     0
  9
$VISRETAIN
 70
     1
  9
$PLINEGEN
 70
     0
  9
$PSLTSCALE
 70
     1
  9
$TREEDEPTH
 70
  3020
  9
$CMLSTYLE
  2
Standard
  9
$CMLJUST
 70
     0
  9
$CMLSCALE
 40
1.0
  9
$PROXYGRAPHICS
 70
     1
  9
$MEASUREMENT
 70
     0
  9
$CELWEIGHT
370
    -1
  9
$ENDCAPS
280
     0
  9
$JOINSTYLE
280
     0
  9
$LWDISPLAY
290
     0
  9
$INSUNITS
 70
     5
  9
$HYPERLINKBASE
  1

  9
$STYLESHEET
  1

  9
$XEDIT
290
     1
  9
$CEPSNTYPE
380
     0
  9
$PSTYLEMODE
290
     1
  9
$FINGERPRINTGUID
  2
{D944D41B-7D53-4C16-BB17-CA7C47D6AE67}
  9
$VERSIONGUID
  2
{FAEB1C32-E019-11D5-929B-00C0DF256EC4}
  9
$EXTNAMES
290
     1
  9
$PSVPSCALE
 40
0.0
  9
$OLESTARTUP
290
     0
  9
$SORTENTS
280
   127
  9
$INDEXCTL
280
     0
  9
$HIDETEXT
280
     1
  9
$XCLIPFRAME
290
     0
  9
$HALOGAP
280
     0
  9
$OBSCOLOR
 70
   257
  9
$OBSLTYPE
280
     0
  9
$INTERSECTIONDISPLAY
280
     0
  9
$INTERSECTIONCOLOR
 70
   257
  9
$DIMASSOC
280
     2
  9
$PROJECTNAME
  1

  9
$CAMERADISPLAY
290
     0
  9
$LENSLENGTH
 40
50.0
  9
$CAMERAHEIGHT
 40
0.0
  9
$STEPSPERSEC
 40
2.0
  9
$STEPSIZE
 40
6.0
  9
$3DDWFPREC
 40
2.0
  9
$PSOLWIDTH
 40
0.25
  9
$PSOLHEIGHT
 40
4.0
  9
$LOFTANG1
 40
1.570796326794897
  9
$LOFTANG2
 40
1.570796326794897
  9
$LOFTMAG1
 40
0.0
  9
$LOFTMAG2
 40
0.0
  9
$LOFTPARAM
 70
     7
  9
$LOFTNORMALS
280
     1
  9
$LATITUDE
 40
37.795
  9
$LONGITUDE
 40
-122.394
  9
$NORTHDIRECTION
 40
0.0
  9
$TIMEZONE
 70
 -8000
  9
$LIGHTGLYPHDISPLAY
280
     1
  9
$TILEMODELIGHTSYNCH
280
     1
  9
$SOLIDHIST
280
     1
  9
$SHOWHIST
280
     1
  9
$DWFFRAME
280
     2
  9
$DGNFRAME
280
     2
  9
$REALWORLDSCALE
290
     1
  9
$INTERFERECOLOR
 62
   256
  9
$CSHADOW
280
     0
  9
$SHADOWPLANELOCATION
 40
0.0
  0
ENDSEC
  0
SECTION
  2
CLASSES
  0
CLASS
  1
ACDBDICTIONARYWDFLT
  2
AcDbDictionaryWithDefault
  3
ObjectDBX Classes
 90
        0
 91
        4
280
     0
281
     0
  0
CLASS
  1
VISUALSTYLE
  2
AcDbVisualStyle
  3
ObjectDBX Classes
 90
     4095
 91
        4
280
     0
281
     0
  0
CLASS
  1
MATERIAL
  2
AcDbMaterial
  3
ObjectDBX Classes
 90
     1153
 91
        4
280
     0
281
     0
  0
ENDSEC
  0
SECTION
  2
TABLES
  0
TABLE
  2
VPORT
  5
8
330
0
100
AcDbSymbolTable
 70
     1
  0
VPORT
  5
29
330
8
100
AcDbSymbolTableRecord
100
AcDbViewportTableRecord
  2
*Active
 70
     0
 10
0.0
 20
0.0
 11
1.0
 21
1.0
 12
10.42990654205607
 22
4.5
 13
0.0
 23
0.0
 14
0.5
 24
0.5
 15
0.5
 25
0.5
 16
0.0
 26
0.0
 36
1.0
 17
0.0
 27
0.0
 37
0.0
 40
9.0
 41
1.972972972850329
 42
50.0
 43
0.0
 44
0.0
 50
0.0
 51
0.0
 71
     0
 72
   100
 73
     1
 74
     3
 75
     0
 76
     0
 77
     0
 78
     0
281
     0
 65
     1
110
0.0
120
0.0
130
0.0
111
1.0
121
0.0
131
0.0
112
0.0
122
1.0
132
0.0
 79
     0
146
0.0
 60
     3
 61
     5
292
     1
282
     1
141
0.0
142
0.0
 63
   250
  0
ENDTAB
  0
TABLE
  2
LTYPE
  5
5
330
0
100
AcDbSymbolTable
 70
     1
  0
LTYPE
  5
14
330
5
100
AcDbSymbolTableRecord
100
AcDbLinetypeTableRecord
  2
ByBlock
 70
     0
  3

 72
    65
 73
     0
 40
0.0
  0
LTYPE
  5
15
330
5
100
AcDbSymbolTableRecord
100
AcDbLinetypeTableRecord
  2
ByLayer
 70
     0
  3

 72
    65
 73
     0
 40
0.0
  0
LTYPE
  5
16
330
5
100
AcDbSymbolTableRecord
100
AcDbLinetypeTableRecord
  2
Continuous
 70
     0
  3
Solid line
 72
    65
 73
     0
 40
0.0
  0
ENDTAB
  0
TABLE
  2
LAYER
  5
2
330
0
100
AcDbSymbolTable
 70
     2
  0
LAYER
  5
10
330
2
100
AcDbSymbolTableRecord
100
AcDbLayerTableRecord
  2
0
 70
     0
 62
     7
  6
Continuous
370
    -3
390
F
347
3E
  0
LAYER
  5
40
330
2
100
AcDbSymbolTableRecord
100
AcDbLayerTableRecord
  2
Camada 1
 70
     0
 62
     7
  6
Continuous
370
    -3
390
F
347
3E
  0
ENDTAB
  0
TABLE
  2
STYLE
  5
3
330
0
100
AcDbSymbolTable
 70
     1
  0
STYLE
  5
11
330
3
100
AcDbSymbolTableRecord
100
AcDbTextStyleTableRecord
  2
Standard
 70
     0
 40
0.0
 41
1.0
 50
0.0
 71
     0
 42
0.2
  3
txt
  4

  0
ENDTAB
  0
TABLE
  2
VIEW
  5
6
330
0
100
AcDbSymbolTable
 70
     0
  0
ENDTAB
  0
TABLE
  2
UCS
  5
7
330
0
100
AcDbSymbolTable
 70
     0
  0
ENDTAB
  0
TABLE
  2
APPID
  5
9
330
0
100
AcDbSymbolTable
 70
     2
  0
APPID
  5
12
330
9
100
AcDbSymbolTableRecord
100
AcDbRegAppTableRecord
  2
ACAD
 70
     0
  0
APPID
  5
3F
330
9
100
AcDbSymbolTableRecord
100
AcDbRegAppTableRecord
  2
ODA
 70
     0
  0
ENDTAB
  0
TABLE
  2
DIMSTYLE
  5
A
330
0
100
AcDbSymbolTable
 70
     1
100
AcDbDimStyleTable
  0
DIMSTYLE
105
27
330
A
100
AcDbSymbolTableRecord
100
AcDbDimStyleTableRecord
  2
Standard
 70
     0
178
     0
340
11
  0
ENDTAB
  0
TABLE
  2
BLOCK_RECORD
  5
1
330
0
100
AcDbSymbolTable
 70
     1
  0
BLOCK_RECORD
  5
1F
330
1
100
AcDbSymbolTableRecord
100
AcDbBlockTableRecord
  2
*Model_Space
340
22
 70
     0
280
     1
281
     0
  0
BLOCK_RECORD
  5
1B
330
1
100
AcDbSymbolTableRecord
100
AcDbBlockTableRecord
  2
*Paper_Space
340
1E
 70
     0
280
     1
281
     0
  0
BLOCK_RECORD
  5
23
330
1
100
AcDbSymbolTableRecord
100
AcDbBlockTableRecord
  2
*Paper_Space0
340
26
 70
     0
280
     1
281
     0
  0
ENDTAB
  0
ENDSEC
  0
SECTION
  2
BLOCKS
  0
BLOCK
  5
20
330
1F
100
AcDbEntity
  8
0
100
AcDbBlockBegin
  2
*Model_Space
 70
     0
 10
0.0
 20
0.0
 30
0.0
  3
*Model_Space
  1

  0
ENDBLK
  5
21
330
1F
100
AcDbEntity
  8
0
100
AcDbBlockEnd
  0
BLOCK
  5
1C
330
1B
100
AcDbEntity
 67
     1
  8
0
100
AcDbBlockBegin
  2
*Paper_Space
 70
     0
 10
0.0
 20
0.0
 30
0.0
  3
*Paper_Space
  1

  0
ENDBLK
  5
1D
330
1B
100
AcDbEntity
 67
     1
  8
0
100
AcDbBlockEnd
  0
BLOCK
  5
24
330
23
100
AcDbEntity
  8
0
100
AcDbBlockBegin
  2
*Paper_Space0
 70
     0
 10
0.0
 20
0.0
 30
0.0
  3
*Paper_Space0
  1

  0
ENDBLK
  5
25
330
23
100
AcDbEntity
  8
0
100
AcDbBlockEnd
  0
ENDSEC
  0
SECTION
  2
ENTITIES
  0
SPLINE
  5
41
330
1F
100
AcDbEntity
  8
Camada 1
100
AcDbSpline
210
0.0
220
0.0
230
1.0
 70
    11
 71
     3
 72
   776
 73
   772
 74
     0
 42
0.0000000001
 43
0.0000000001
 12
1.0
 22
0.0
 32
0.0
 13
1.0
 23
0.0
 33
0.0
 40
0.0
 40
0.0
 40
0.0
 40
0.0
 40
0.0051546391752577
 40
0.0051546391752577
 40
0.0051546391752577
 40
0.0051546391752577
 40
0.0103092783505155
 40
0.0103092783505155
 40
0.0103092783505155
 40
0.0103092783505155
 40
0.0154639175257732
 40
0.0154639175257732
 40
0.0154639175257732
 40
0.0154639175257732
 40
0.0206185567010309
 40
0.0206185567010309
 40
0.0206185567010309
 40
0.0206185567010309
 40
0.0257731958762887
 40
0.0257731958762887
 40
0.0257731958762887
 40
0.0257731958762887
 40
0.0309278350515464
 40
0.0309278350515464
 40
0.0309278350515464
 40
0.0309278350515464
 40
0.0360824742268041
 40
0.0360824742268041
 40
0.0360824742268041
 40
0.0360824742268041
 40
0.0412371134020619
 40
0.0412371134020619
 40
0.0412371134020619
 40
0.0412371134020619
 40
0.0463917525773196
 40
0.0463917525773196
 40
0.0463917525773196
 40
0.0463917525773196
 40
0.0515463917525773
 40
0.0515463917525773
 40
0.0515463917525773
 40
0.0515463917525773
 40
0.0567010309278351
 40
0.0567010309278351
 40
0.0567010309278351
 40
0.0567010309278351
 40
0.0618556701030928
 40
0.0618556701030928
 40
0.0618556701030928
 40
0.0618556701030928
 40
0.0670103092783505
 40
0.0670103092783505
 40
0.0670103092783505
 40
0.0670103092783505
 40
0.0721649484536082
 40
0.0721649484536082
 40
0.0721649484536082
 40
0.0721649484536082
 40
0.077319587628866
 40
0.077319587628866
 40
0.077319587628866
 40
0.077319587628866
 40
0.0824742268041237
 40
0.0824742268041237
 40
0.0824742268041237
 40
0.0824742268041237
 40
0.0876288659793814
 40
0.0876288659793814
 40
0.0876288659793814
 40
0.0876288659793814
 40
0.0927835051546392
 40
0.0927835051546392
 40
0.0927835051546392
 40
0.0927835051546392
 40
0.0979381443298969
 40
0.0979381443298969
 40
0.0979381443298969
 40
0.0979381443298969
 40
0.1030927835051546
 40
0.1030927835051546
 40
0.1030927835051546
 40
0.1030927835051546
 40
0.1082474226804124
 40
0.1082474226804124
 40
0.1082474226804124
 40
0.1082474226804124
 40
0.1134020618556701
 40
0.1134020618556701
 40
0.1134020618556701
 40
0.1134020618556701
 40
0.1185567010309278
 40
0.1185567010309278
 40
0.1185567010309278
 40
0.1185567010309278
 40
0.1237113402061856
 40
0.1237113402061856
 40
0.1237113402061856
 40
0.1237113402061856
 40
0.1288659793814433
 40
0.1288659793814433
 40
0.1288659793814433
 40
0.1288659793814433
 40
0.134020618556701
 40
0.134020618556701
 40
0.134020618556701
 40
0.134020618556701
 40
0.1391752577319588
 40
0.1391752577319588
 40
0.1391752577319588
 40
0.1391752577319588
 40
0.1443298969072165
 40
0.1443298969072165
 40
0.1443298969072165
 40
0.1443298969072165
 40
0.1494845360824742
 40
0.1494845360824742
 40
0.1494845360824742
 40
0.1494845360824742
 40
0.154639175257732
 40
0.154639175257732
 40
0.154639175257732
 40
0.154639175257732
 40
0.1597938144329897
 40
0.1597938144329897
 40
0.1597938144329897
 40
0.1597938144329897
 40
0.1649484536082474
 40
0.1649484536082474
 40
0.1649484536082474
 40
0.1649484536082474
 40
0.1701030927835052
 40
0.1701030927835052
 40
0.1701030927835052
 40
0.1701030927835052
 40
0.1752577319587629
 40
0.1752577319587629
 40
0.1752577319587629
 40
0.1752577319587629
 40
0.1804123711340206
 40
0.1804123711340206
 40
0.1804123711340206
 40
0.1804123711340206
 40
0.1855670103092784
 40
0.1855670103092784
 40
0.1855670103092784
 40
0.1855670103092784
 40
0.1907216494845361
 40
0.1907216494845361
 40
0.1907216494845361
 40
0.1907216494845361
 40
0.1958762886597938
 40
0.1958762886597938
 40
0.1958762886597938
 40
0.1958762886597938
 40
0.2010309278350516
 40
0.2010309278350516
 40
0.2010309278350516
 40
0.2010309278350516
 40
0.2061855670103093
 40
0.2061855670103093
 40
0.2061855670103093
 40
0.2061855670103093
 40
0.211340206185567
 40
0.211340206185567
 40
0.211340206185567
 40
0.211340206185567
 40
0.2164948453608248
 40
0.2164948453608248
 40
0.2164948453608248
 40
0.2164948453608248
 40
0.2216494845360825
 40
0.2216494845360825
 40
0.2216494845360825
 40
0.2216494845360825
 40
0.2268041237113402
 40
0.2268041237113402
 40
0.2268041237113402
 40
0.2268041237113402
 40
0.2319587628865979
 40
0.2319587628865979
 40
0.2319587628865979
 40
0.2319587628865979
 40
0.2371134020618557
 40
0.2371134020618557
 40
0.2371134020618557
 40
0.2371134020618557
 40
0.2422680412371134
 40
0.2422680412371134
 40
0.2422680412371134
 40
0.2422680412371134
 40
0.2474226804123711
 40
0.2474226804123711
 40
0.2474226804123711
 40
0.2474226804123711
 40
0.2525773195876289
 40
0.2525773195876289
 40
0.2525773195876289
 40
0.2525773195876289
 40
0.2577319587628866
 40
0.2577319587628866
 40
0.2577319587628866
 40
0.2577319587628866
 40
0.2628865979381443
 40
0.2628865979381443
 40
0.2628865979381443
 40
0.2628865979381443
 40
0.2680412371134021
 40
0.2680412371134021
 40
0.2680412371134021
 40
0.2680412371134021
 40
0.2731958762886598
 40
0.2731958762886598
 40
0.2731958762886598
 40
0.2731958762886598
 40
0.2783505154639175
 40
0.2783505154639175
 40
0.2783505154639175
 40
0.2783505154639175
 40
0.2835051546391752
 40
0.2835051546391752
 40
0.2835051546391752
 40
0.2835051546391752
 40
0.288659793814433
 40
0.288659793814433
 40
0.288659793814433
 40
0.288659793814433
 40
0.2938144329896907
 40
0.2938144329896907
 40
0.2938144329896907
 40
0.2938144329896907
 40
0.2989690721649484
 40
0.2989690721649484
 40
0.2989690721649484
 40
0.2989690721649484
 40
0.3041237113402062
 40
0.3041237113402062
 40
0.3041237113402062
 40
0.3041237113402062
 40
0.3092783505154639
 40
0.3092783505154639
 40
0.3092783505154639
 40
0.3092783505154639
 40
0.3144329896907216
 40
0.3144329896907216
 40
0.3144329896907216
 40
0.3144329896907216
 40
0.3195876288659794
 40
0.3195876288659794
 40
0.3195876288659794
 40
0.3195876288659794
 40
0.3247422680412371
 40
0.3247422680412371
 40
0.3247422680412371
 40
0.3247422680412371
 40
0.3298969072164948
 40
0.3298969072164948
 40
0.3298969072164948
 40
0.3298969072164948
 40
0.3350515463917526
 40
0.3350515463917526
 40
0.3350515463917526
 40
0.3350515463917526
 40
0.3402061855670103
 40
0.3402061855670103
 40
0.3402061855670103
 40
0.3402061855670103
 40
0.345360824742268
 40
0.345360824742268
 40
0.345360824742268
 40
0.345360824742268
 40
0.3505154639175257
 40
0.3505154639175257
 40
0.3505154639175257
 40
0.3505154639175257
 40
0.3556701030927835
 40
0.3556701030927835
 40
0.3556701030927835
 40
0.3556701030927835
 40
0.3608247422680412
 40
0.3608247422680412
 40
0.3608247422680412
 40
0.3608247422680412
 40
0.3659793814432989
 40
0.3659793814432989
 40
0.3659793814432989
 40
0.3659793814432989
 40
0.3711340206185567
 40
0.3711340206185567
 40
0.3711340206185567
 40
0.3711340206185567
 40
0.3762886597938144
 40
0.3762886597938144
 40
0.3762886597938144
 40
0.3762886597938144
 40
0.3814432989690721
 40
0.3814432989690721
 40
0.3814432989690721
 40
0.3814432989690721
 40
0.3865979381443299
 40
0.3865979381443299
 40
0.3865979381443299
 40
0.3865979381443299
 40
0.3917525773195876
 40
0.3917525773195876
 40
0.3917525773195876
 40
0.3917525773195876
 40
0.3969072164948453
 40
0.3969072164948453
 40
0.3969072164948453
 40
0.3969072164948453
 40
0.4020618556701031
 40
0.4020618556701031
 40
0.4020618556701031
 40
0.4020618556701031
 40
0.4072164948453608
 40
0.4072164948453608
 40
0.4072164948453608
 40
0.4072164948453608
 40
0.4123711340206185
 40
0.4123711340206185
 40
0.4123711340206185
 40
0.4123711340206185
 40
0.4175257731958763
 40
0.4175257731958763
 40
0.4175257731958763
 40
0.4175257731958763
 40
0.422680412371134
 40
0.422680412371134
 40
0.422680412371134
 40
0.422680412371134
 40
0.4278350515463917
 40
0.4278350515463917
 40
0.4278350515463917
 40
0.4278350515463917
 40
0.4329896907216495
 40
0.4329896907216495
 40
0.4329896907216495
 40
0.4329896907216495
 40
0.4381443298969072
 40
0.4381443298969072
 40
0.4381443298969072
 40
0.4381443298969072
 40
0.4432989690721649
 40
0.4432989690721649
 40
0.4432989690721649
 40
0.4432989690721649
 40
0.4484536082474227
 40
0.4484536082474227
 40
0.4484536082474227
 40
0.4484536082474227
 40
0.4536082474226804
 40
0.4536082474226804
 40
0.4536082474226804
 40
0.4536082474226804
 40
0.4587628865979381
 40
0.4587628865979381
 40
0.4587628865979381
 40
0.4587628865979381
 40
0.4639175257731959
 40
0.4639175257731959
 40
0.4639175257731959
 40
0.4639175257731959
 40
0.4690721649484536
 40
0.4690721649484536
 40
0.4690721649484536
 40
0.4690721649484536
 40
0.4742268041237113
 40
0.4742268041237113
 40
0.4742268041237113
 40
0.4742268041237113
 40
0.4793814432989691
 40
0.4793814432989691
 40
0.4793814432989691
 40
0.4793814432989691
 40
0.4845360824742268
 40
0.4845360824742268
 40
0.4845360824742268
 40
0.4845360824742268
 40
0.4896907216494845
 40
0.4896907216494845
 40
0.4896907216494845
 40
0.4896907216494845
 40
0.4948453608247423
 40
0.4948453608247423
 40
0.4948453608247423
 40
0.4948453608247423
 40
0.5
 40
0.5
 40
0.5
 40
0.5
 40
0.5051546391752577
 40
0.5051546391752577
 40
0.5051546391752577
 40
0.5051546391752577
 40
0.5103092783505154
 40
0.5103092783505154
 40
0.5103092783505154
 40
0.5103092783505154
 40
0.5154639175257731
 40
0.5154639175257731
 40
0.5154639175257731
 40
0.5154639175257731
 40
0.520618556701031
 40
0.520618556701031
 40
0.520618556701031
 40
0.520618556701031
 40
0.5257731958762887
 40
0.5257731958762887
 40
0.5257731958762887
 40
0.5257731958762887
 40
0.5309278350515464
 40
0.5309278350515464
 40
0.5309278350515464
 40
0.5309278350515464
 40
0.5360824742268041
 40
0.5360824742268041
 40
0.5360824742268041
 40
0.5360824742268041
 40
0.5412371134020618
 40
0.5412371134020618
 40
0.5412371134020618
 40
0.5412371134020618
 40
0.5463917525773195
 40
0.5463917525773195
 40
0.5463917525773195
 40
0.5463917525773195
 40
0.5515463917525774
 40
0.5515463917525774
 40
0.5515463917525774
 40
0.5515463917525774
 40
0.5567010309278351
 40
0.5567010309278351
 40
0.5567010309278351
 40
0.5567010309278351
 40
0.5618556701030928
 40
0.5618556701030928
 40
0.5618556701030928
 40
0.5618556701030928
 40
0.5670103092783505
 40
0.5670103092783505
 40
0.5670103092783505
 40
0.5670103092783505
 40
0.5721649484536082
 40
0.5721649484536082
 40
0.5721649484536082
 40
0.5721649484536082
 40
0.5773195876288659
 40
0.5773195876288659
 40
0.5773195876288659
 40
0.5773195876288659
 40
0.5824742268041238
 40
0.5824742268041238
 40
0.5824742268041238
 40
0.5824742268041238
 40
0.5876288659793815
 40
0.5876288659793815
 40
0.5876288659793815
 40
0.5876288659793815
 40
0.5927835051546392
 40
0.5927835051546392
 40
0.5927835051546392
 40
0.5927835051546392
 40
0.5979381443298969
 40
0.5979381443298969
 40
0.5979381443298969
 40
0.5979381443298969
 40
0.6030927835051546
 40
0.6030927835051546
 40
0.6030927835051546
 40
0.6030927835051546
 40
0.6082474226804123
 40
0.6082474226804123
 40
0.6082474226804123
 40
0.6082474226804123
 40
0.6134020618556701
 40
0.6134020618556701
 40
0.6134020618556701
 40
0.6134020618556701
 40
0.6185567010309279
 40
0.6185567010309279
 40
0.6185567010309279
 40
0.6185567010309279
 40
0.6237113402061856
 40
0.6237113402061856
 40
0.6237113402061856
 40
0.6237113402061856
 40
0.6288659793814433
 40
0.6288659793814433
 40
0.6288659793814433
 40
0.6288659793814433
 40
0.634020618556701
 40
0.634020618556701
 40
0.634020618556701
 40
0.634020618556701
 40
0.6391752577319587
 40
0.6391752577319587
 40
0.6391752577319587
 40
0.6391752577319587
 40
0.6443298969072165
 40
0.6443298969072165
 40
0.6443298969072165
 40
0.6443298969072165
 40
0.6494845360824743
 40
0.6494845360824743
 40
0.6494845360824743
 40
0.6494845360824743
 40
0.654639175257732
 40
0.654639175257732
 40
0.654639175257732
 40
0.654639175257732
 40
0.6597938144329897
 40
0.6597938144329897
 40
0.6597938144329897
 40
0.6597938144329897
 40
0.6649484536082474
 40
0.6649484536082474
 40
0.6649484536082474
 40
0.6649484536082474
 40
0.6701030927835051
 40
0.6701030927835051
 40
0.6701030927835051
 40
0.6701030927835051
 40
0.6752577319587629
 40
0.6752577319587629
 40
0.6752577319587629
 40
0.6752577319587629
 40
0.6804123711340206
 40
0.6804123711340206
 40
0.6804123711340206
 40
0.6804123711340206
 40
0.6855670103092784
 40
0.6855670103092784
 40
0.6855670103092784
 40
0.6855670103092784
 40
0.6907216494845361
 40
0.6907216494845361
 40
0.6907216494845361
 40
0.6907216494845361
 40
0.6958762886597938
 40
0.6958762886597938
 40
0.6958762886597938
 40
0.6958762886597938
 40
0.7010309278350515
 40
0.7010309278350515
 40
0.7010309278350515
 40
0.7010309278350515
 40
0.7061855670103093
 40
0.7061855670103093
 40
0.7061855670103093
 40
0.7061855670103093
 40
0.711340206185567
 40
0.711340206185567
 40
0.711340206185567
 40
0.711340206185567
 40
0.7164948453608248
 40
0.7164948453608248
 40
0.7164948453608248
 40
0.7164948453608248
 40
0.7216494845360825
 40
0.7216494845360825
 40
0.7216494845360825
 40
0.7216494845360825
 40
0.7268041237113402
 40
0.7268041237113402
 40
0.7268041237113402
 40
0.7268041237113402
 40
0.7319587628865979
 40
0.7319587628865979
 40
0.7319587628865979
 40
0.7319587628865979
 40
0.7371134020618557
 40
0.7371134020618557
 40
0.7371134020618557
 40
0.7371134020618557
 40
0.7422680412371134
 40
0.7422680412371134
 40
0.7422680412371134
 40
0.7422680412371134
 40
0.7474226804123711
 40
0.7474226804123711
 40
0.7474226804123711
 40
0.7474226804123711
 40
0.7525773195876289
 40
0.7525773195876289
 40
0.7525773195876289
 40
0.7525773195876289
 40
0.7577319587628866
 40
0.7577319587628866
 40
0.7577319587628866
 40
0.7577319587628866
 40
0.7628865979381443
 40
0.7628865979381443
 40
0.7628865979381443
 40
0.7628865979381443
 40
0.7680412371134021
 40
0.7680412371134021
 40
0.7680412371134021
 40
0.7680412371134021
 40
0.7731958762886598
 40
0.7731958762886598
 40
0.7731958762886598
 40
0.7731958762886598
 40
0.7783505154639175
 40
0.7783505154639175
 40
0.7783505154639175
 40
0.7783505154639175
 40
0.7835051546391752
 40
0.7835051546391752
 40
0.7835051546391752
 40
0.7835051546391752
 40
0.788659793814433
 40
0.788659793814433
 40
0.788659793814433
 40
0.788659793814433
 40
0.7938144329896907
 40
0.7938144329896907
 40
0.7938144329896907
 40
0.7938144329896907
 40
0.7989690721649485
 40
0.7989690721649485
 40
0.7989690721649485
 40
0.7989690721649485
 40
0.8041237113402062
 40
0.8041237113402062
 40
0.8041237113402062
 40
0.8041237113402062
 40
0.8092783505154639
 40
0.8092783505154639
 40
0.8092783505154639
 40
0.8092783505154639
 40
0.8144329896907216
 40
0.8144329896907216
 40
0.8144329896907216
 40
0.8144329896907216
 40
0.8195876288659794
 40
0.8195876288659794
 40
0.8195876288659794
 40
0.8195876288659794
 40
0.8247422680412371
 40
0.8247422680412371
 40
0.8247422680412371
 40
0.8247422680412371
 40
0.8298969072164949
 40
0.8298969072164949
 40
0.8298969072164949
 40
0.8298969072164949
 40
0.8350515463917526
 40
0.8350515463917526
 40
0.8350515463917526
 40
0.8350515463917526
 40
0.8402061855670103
 40
0.8402061855670103
 40
0.8402061855670103
 40
0.8402061855670103
 40
0.845360824742268
 40
0.845360824742268
 40
0.845360824742268
 40
0.845360824742268
 40
0.8505154639175257
 40
0.8505154639175257
 40
0.8505154639175257
 40
0.8505154639175257
 40
0.8556701030927835
 40
0.8556701030927835
 40
0.8556701030927835
 40
0.8556701030927835
 40
0.8608247422680413
 40
0.8608247422680413
 40
0.8608247422680413
 40
0.8608247422680413
 40
0.865979381443299
 40
0.865979381443299
 40
0.865979381443299
 40
0.865979381443299
 40
0.8711340206185567
 40
0.8711340206185567
 40
0.8711340206185567
 40
0.8711340206185567
 40
0.8762886597938144
 40
0.8762886597938144
 40
0.8762886597938144
 40
0.8762886597938144
 40
0.8814432989690721
 40
0.8814432989690721
 40
0.8814432989690721
 40
0.8814432989690721
 40
0.8865979381443299
 40
0.8865979381443299
 40
0.8865979381443299
 40
0.8865979381443299
 40
0.8917525773195877
 40
0.8917525773195877
 40
0.8917525773195877
 40
0.8917525773195877
 40
0.8969072164948454
 40
0.8969072164948454
 40
0.8969072164948454
 40
0.8969072164948454
 40
0.9020618556701031
 40
0.9020618556701031
 40
0.9020618556701031
 40
0.9020618556701031
 40
0.9072164948453608
 40
0.9072164948453608
 40
0.9072164948453608
 40
0.9072164948453608
 40
0.9123711340206185
 40
0.9123711340206185
 40
0.9123711340206185
 40
0.9123711340206185
 40
0.9175257731958762
 40
0.9175257731958762
 40
0.9175257731958762
 40
0.9175257731958762
 40
0.9226804123711341
 40
0.9226804123711341
 40
0.9226804123711341
 40
0.9226804123711341
 40
0.9278350515463918
 40
0.9278350515463918
 40
0.9278350515463918
 40
0.9278350515463918
 40
0.9329896907216495
 40
0.9329896907216495
 40
0.9329896907216495
 40
0.9329896907216495
 40
0.9381443298969072
 40
0.9381443298969072
 40
0.9381443298969072
 40
0.9381443298969072
 40
0.9432989690721649
 40
0.9432989690721649
 40
0.9432989690721649
 40
0.9432989690721649
 40
0.9484536082474226
 40
0.9484536082474226
 40
0.9484536082474226
 40
0.9484536082474226
 40
0.9536082474226805
 40
0.9536082474226805
 40
0.9536082474226805
 40
0.9536082474226805
 40
0.9587628865979382
 40
0.9587628865979382
 40
0.9587628865979382
 40
0.9587628865979382
 40
0.9639175257731959
 40
0.9639175257731959
 40
0.9639175257731959
 40
0.9639175257731959
 40
0.9690721649484536
 40
0.9690721649484536
 40
0.9690721649484536
 40
0.9690721649484536
 40
0.9742268041237113
 40
0.9742268041237113
 40
0.9742268041237113
 40
0.9742268041237113
 40
0.979381443298969
 40
0.979381443298969
 40
0.979381443298969
 40
0.979381443298969
 40
0.9845360824742269
 40
0.9845360824742269
 40
0.9845360824742269
 40
0.9845360824742269
 40
0.9896907216494846
 40
0.9896907216494846
 40
0.9896907216494846
 40
0.9896907216494846
 40
1.0
 40
1.0
 40
1.0
 40
1.0
 10
0.34881
 20
-1.44424
 30
0.0
 10
0.34881
 20
-1.44424
 30
0.0
 10
0.39088
 20
-1.54457
 30
0.0
 10
0.39681
 20
-1.66985
 30
0.0
 10
0.39681
 20
-1.66985
 30
0.0
 10
0.40041
 20
-1.74703
 30
0.0
 10
0.37572
 20
-1.84553
 30
0.0
 10
0.3631
 20
-1.90086
 30
0.0
 10
0.3631
 20
-1.90086
 30
0.0
 10
0.34675
 20
-1.97217
 30
0.0
 10
0.31603
 20
-2.08186
 30
0.0
 10
0.28923
 20
-2.19513
 30
0.0
 10
0.28923
 20
-2.19513
 30
0.0
 10
0.26174
 20
-2.31208
 30
0.0
 10
0.2384
 20
-2.43246
 30
0.0
 10
0.22991
 20
-2.49773
 30
0.0
 10
0.22991
 20
-2.49773
 30
0.0
 10
0.22234
 20
-2.5566
 30
0.0
 10
0.20882
 20
-2.66643
 30
0.0
 10
0.19901
 20
-2.79512
 30
0.0
 10
0.19901
 20
-2.79512
 30
0.0
 10
0.18742
 20
-2.94744
 30
0.0
 10
0.18001
 20
-3.12164
 30
0.0
 10
0.18001
 20
-3.20165
 30
0.0
 10
0.18001
 20
-3.20165
 30
0.0
 10
0.18001
 20
-3.34902
 30
0.0
 10
0.18236
 20
-3.65819
 30
0.0
 10
0.18475
 20
-3.69147
 30
0.0
 10
0.18475
 20
-3.69147
 30
0.0
 10
0.1871
 20
-3.72475
 30
0.0
 10
0.17763
 20
-3.79376
 30
0.0
 10
0.10151
 20
-3.81754
 30
0.0
 10
0.10151
 20
-3.81754
 30
0.0
 10
0.02542
 20
-3.84133
 30
0.0
 10
-0.04353
 20
-3.85082
 30
0.0
 10
-0.10299
 20
-3.82939
 30
0.0
 10
-0.10299
 20
-3.82939
 30
0.0
 10
-0.16247
 20
-3.80801
 30
0.0
 10
-0.18382
 20
-3.79611
 30
0.0
 10
-0.19337
 20
-3.70575
 30
0.0
 10
-0.19337
 20
-3.70575
 30
0.0
 10
-0.19721
 20
-3.6686
 30
0.0
 10
-0.20612
 20
-3.53583
 30
0.0
 10
-0.22576
 20
-3.38264
 30
0.0
 10
-0.22576
 20
-3.38264
 30
0.0
 10
-0.25389
 20
-3.16351
 30
0.0
 10
-0.29413
 20
-2.90274
 30
0.0
 10
-0.31228
 20
-2.81873
 30
0.0
 10
-0.31228
 20
-2.81873
 30
0.0
 10
-0.34321
 20
-2.67601
 30
0.0
 10
-0.39314
 20
-2.49528
 30
0.0
 10
-0.455
 20
-2.30031
 30
0.0
 10
-0.455
 20
-2.30031
 30
0.0
 10
-0.51681
 20
-2.10531
 30
0.0
 10
-0.60243
 20
-1.90317
 30
0.0
 10
-0.62142
 20
-1.84853
 30
0.0
 10
-0.62142
 20
-1.84853
 30
0.0
 10
-0.6292
 20
-1.82604
 30
0.0
 10
-0.64986
 20
-1.73301
 30
0.0
 10
-0.65013
 20
-1.66774
 30
0.0
 10
-0.65013
 20
-1.66774
 30
0.0
 10
-0.65032
 20
-1.55243
 30
0.0
 10
-0.62142
 20
-1.48706
 30
0.0
 10
-0.62142
 20
-1.48706
 30
0.0
 10
-0.62142
 20
-1.48706
 30
0.0
 10
-0.62142
 20
-1.48706
 30
0.0
 10
-0.93294
 20
-1.38953
 30
0.0
 10
-1.07568
 20
-1.34913
 30
0.0
 10
-1.07568
 20
-1.34913
 30
0.0
 10
-1.21834
 20
-1.30868
 30
0.0
 10
-1.90322
 20
-1.09703
 30
0.0
 10
-2.0626
 20
-1.04713
 30
0.0
 10
-2.0626
 20
-1.04713
 30
0.0
 10
-2.22191
 20
-0.99718
 30
0.0
 10
-3.27063
 20
-0.69754
 30
0.0
 10
-3.44185
 20
-0.64279
 30
0.0
 10
-3.44185
 20
-0.64279
 30
0.0
 10
-3.61309
 20
-0.58815
 30
0.0
 10
-4.28846
 20
-0.38601
 30
0.0
 10
-4.51434
 20
-0.32177
 30
0.0
 10
-4.51434
 20
-0.32177
 30
0.0
 10
-4.74027
 20
-0.25761
 30
0.0
 10
-5.00903
 20
-0.17911
 30
0.0
 10
-5.00903
 20
-0.17911
 30
0.0
 10
-5.00903
 20
-0.17911
 30
0.0
 10
-5.00903
 20
-0.17911
 30
0.0
 10
-5.0185
 20
-0.26468
 30
0.0
 10
-5.01612
 20
-0.31227
 30
0.0
 10
-5.01612
 20
-0.31227
 30
0.0
 10
-5.01525
 20
-0.33129
 30
0.0
 10
-5.0199
 20
-0.42345
 30
0.0
 10
-5.01612
 20
-0.55704
 30
0.0
 10
-5.01612
 20
-0.55704
 30
0.0
 10
-5.01064
 20
-0.75632
 30
0.0
 10
-4.99522
 20
-1.02773
 30
0.0
 10
-4.98524
 20
-1.12314
 30
0.0
 10
-4.98524
 20
-1.12314
 30
0.0
 10
-4.96857
 20
-1.28247
 30
0.0
 10
-4.96381
 20
-1.28726
 30
0.0
 10
-4.9591
 20
-1.32057
 30
0.0
 10
-4.9591
 20
-1.32057
 30
0.0
 10
-4.95431
 20
-1.35383
 30
0.0
 10
-4.94002
 20
-1.40846
 30
0.0
 10
-5.0399
 20
-1.42519
 30
0.0
 10
-5.0399
 20
-1.42519
 30
0.0
 10
-5.11811
 20
-1.43794
 30
0.0
 10
-5.27535
 20
-1.4585
 30
0.0
 10
-5.2849
 20
-1.39423
 30
0.0
 10
-5.2849
 20
-1.39423
 30
0.0
 10
-5.2944
 20
-1.33002
 30
0.0
 10
-5.31818
 20
-1.15886
 30
0.0
 10
-5.35621
 20
-0.97095
 30
0.0
 10
-5.35621
 20
-0.97095
 30
0.0
 10
-5.39426
 20
-0.78312
 30
0.0
 10
-5.45133
 20
-0.48346
 30
0.0
 10
-5.49655
 20
-0.34794
 30
0.0
 10
-5.49655
 20
-0.34794
 30
0.0
 10
-5.54174
 20
-0.21237
 30
0.0
 10
-5.62019
 20
-0.00073
 30
0.0
 10
-5.62019
 20
-0.00073
 30
0.0
 10
-5.62019
 20
-0.00073
 30
0.0
 10
-5.62019
 20
-0.00073
 30
0.0
 10
-6.10295
 20
0.1467
 30
0.0
 10
-6.25754
 20
0.19424
 30
0.0
 10
-6.25754
 20
0.19424
 30
0.0
 10
-6.34758
 20
0.22189
 30
0.0
 10
-6.59816
 20
0.30174
 30
0.0
 10
-6.80864
 20
0.40233
 30
0.0
 10
-6.80864
 20
0.40233
 30
0.0
 10
-6.95935
 20
0.47443
 30
0.0
 10
-7.08481
 20
0.56656
 30
0.0
 10
-7.13741
 20
0.61516
 30
0.0
 10
-7.13741
 20
0.61516
 30
0.0
 10
-7.18498
 20
0.65911
 30
0.0
 10
-7.30447
 20
0.76349
 30
0.0
 10
-7.34712
 20
0.85503
 30
0.0
 10
-7.34712
 20
0.85503
 30
0.0
 10
-7.41758
 20
1.00603
 30
0.0
 10
-7.39736
 20
1.15938
 30
0.0
 10
-7.37525
 20
1.22156
 30
0.0
 10
-7.37525
 20
1.22156
 30
0.0
 10
-7.33958
 20
1.32141
 30
0.0
 10
-7.24447
 20
1.47125
 30
0.0
 10
-7.14932
 20
1.55687
 30
0.0
 10
-7.14932
 20
1.55687
 30
0.0
 10
-7.05418
 20
1.64246
 30
0.0
 10
-6.98761
 20
1.68054
 30
0.0
 10
-6.93051
 20
1.72329
 30
0.0
 10
-6.93051
 20
1.72329
 30
0.0
 10
-6.87347
 20
1.76615
 30
0.0
 10
-6.83777
 20
1.80655
 30
0.0
 10
-6.83777
 20
1.80655
 30
0.0
 10
-6.83777
 20
1.80655
 30
0.0
 10
-6.83777
 20
1.80655
 30
0.0
 10
-6.84253
 20
1.98726
 30
0.0
 10
-6.84965
 20
2.12516
 30
0.0
 10
-6.84965
 20
2.12516
 30
0.0
 10
-6.85682
 20
2.26311
 30
0.0
 10
-6.86632
 20
2.52468
 30
0.0
 10
-6.86632
 20
2.52468
 30
0.0
 10
-6.86632
 20
2.52468
 30
0.0
 10
-6.86632
 20
2.52468
 30
0.0
 10
-6.95252
 20
2.56318
 30
0.0
 10
-7.03248
 20
2.62337
 30
0.0
 10
-7.03248
 20
2.62337
 30
0.0
 10
-7.10381
 20
2.67735
 30
0.0
 10
-7.23968
 20
2.82017
 30
0.0
 10
-7.22928
 20
2.99543
 30
0.0
 10
-7.22928
 20
2.99543
 30
0.0
 10
-7.21949
 20
3.16458
 30
0.0
 10
-7.11292
 20
3.33399
 30
0.0
 10
-7.04465
 20
3.40223
 30
0.0
 10
-7.04465
 20
3.40223
 30
0.0
 10
-6.94715
 20
3.4997
 30
0.0
 10
-6.82351
 20
3.5972
 30
0.0
 10
-6.78073
 20
3.63998
 30
0.0
 10
-6.78073
 20
3.63998
 30
0.0
 10
-6.76123
 20
3.65948
 30
0.0
 10
-6.68453
 20
3.73983
 30
0.0
 10
-6.58761
 20
3.80572
 30
0.0
 10
-6.58761
 20
3.80572
 30
0.0
 10
-6.47138
 20
3.8848
 30
0.0
 10
-6.32943
 20
3.95153
 30
0.0
 10
-6.26463
 20
3.98008
 30
0.0
 10
-6.26463
 20
3.98008
 30
0.0
 10
-6.20788
 20
4.00503
 30
0.0
 10
-5.99859
 20
4.09409
 30
0.0
 10
-5.77343
 20
4.16391
 30
0.0
 10
-5.77343
 20
4.16391
 30
0.0
 10
-5.52686
 20
4.24045
 30
0.0
 10
-5.26154
 20
4.29797
 30
0.0
 10
-5.16838
 20
4.31536
 30
0.0
 10
-5.16838
 20
4.31536
 30
0.0
 10
-5.09311
 20
4.32946
 30
0.0
 10
-4.92639
 20
4.3592
 30
0.0
 10
-4.75203
 20
4.38103
 30
0.0
 10
-4.75203
 20
4.38103
 30
0.0
 10
-4.51335
 20
4.41095
 30
0.0
 10
-4.25414
 20
4.43247
 30
0.0
 10
-4.13865
 20
4.43667
 30
0.0
 10
-4.13865
 20
4.43667
 30
0.0
 10
-4.03626
 20
4.44037
 30
0.0
 10
-3.77363
 20
4.4435
 30
0.0
 10
-3.51056
 20
4.43323
 30
0.0
 10
-3.51056
 20
4.43323
 30
0.0
 10
-3.26061
 20
4.42344
 30
0.0
 10
-3.00981
 20
4.40069
 30
0.0
 10
-2.90445
 20
4.3891
 30
0.0
 10
-2.90445
 20
4.3891
 30
0.0
 10
-2.68805
 20
4.36531
 30
0.0
 10
-1.93896
 20
4.27496
 30
0.0
 10
-1.85334
 20
4.26541
 30
0.0
 10
-1.85334
 20
4.26541
 30
0.0
 10
-1.76772
 20
4.25591
 30
0.0
 10
-1.22072
 20
4.21077
 30
0.0
 10
-1.04951
 20
4.20358
 30
0.0
 10
-1.04951
 20
4.20358
 30
0.0
 10
-0.96659
 20
4.20019
 30
0.0
 10
-0.75791
 20
4.19379
 30
0.0
 10
-0.52397
 20
4.19138
 30
0.0
 10
-0.52397
 20
4.19138
 30
0.0
 10
-0.27492
 20
4.18873
 30
0.0
 10
0.00128
 20
4.19035
 30
0.0
 10
0.13
 20
4.19411
 30
0.0
 10
0.13
 20
4.19411
 30
0.0
 10
0.37971
 20
4.20125
 30
0.0
 10
0.88623
 20
4.23692
 30
0.0
 10
1.06456
 20
4.2488
 30
0.0
 10
1.06456
 20
4.2488
 30
0.0
 10
1.24292
 20
4.26068
 30
0.0
 10
1.67331
 20
4.28685
 30
0.0
 10
1.8541
 20
4.29156
 30
0.0
 10
1.8541
 20
4.29156
 30
0.0
 10
1.94268
 20
4.29397
 30
0.0
 10
2.21198
 20
4.29455
 30
0.0
 10
2.47238
 20
4.27952
 30
0.0
 10
2.47238
 20
4.27952
 30
0.0
 10
2.74347
 20
4.26394
 30
0.0
 10
3.00581
 20
4.23245
 30
0.0
 10
3.08592
 20
4.22025
 30
0.0
 10
3.08592
 20
4.22025
 30
0.0
 10
3.16559
 20
4.20824
 30
0.0
 10
3.37842
 20
4.16678
 30
0.0
 10
3.5971
 20
4.12188
 30
0.0
 10
3.5971
 20
4.12188
 30
0.0
 10
3.80885
 20
4.07844
 30
0.0
 10
4.02586
 20
4.03195
 30
0.0
 10
4.13225
 20
4.00623
 30
0.0
 10
4.13225
 20
4.00623
 30
0.0
 10
4.34868
 20
3.95392
 30
0.0
 10
4.6198
 20
3.90635
 30
0.0
 10
4.67213
 20
3.87071
 30
0.0
 10
4.67213
 20
3.87071
 30
0.0
 10
4.72444
 20
3.83502
 30
0.0
 10
4.81479
 20
3.79221
 30
0.0
 10
4.90041
 20
3.75419
 30
0.0
 10
4.90041
 20
3.75419
 30
0.0
 10
4.98598
 20
3.71612
 30
0.0
 10
5.01452
 20
3.69947
 30
0.0
 10
5.03119
 20
3.67331
 30
0.0
 10
5.03119
 20
3.67331
 30
0.0
 10
5.04783
 20
3.64717
 30
0.0
 10
5.06225
 20
3.63037
 30
0.0
 10
5.074
 20
3.621
 30
0.0
 10
5.074
 20
3.621
 30
0.0
 10
5.10014
 20
3.59957
 30
0.0
 10
5.13583
 20
3.50448
 30
0.0
 10
5.08112
 20
3.46879
 30
0.0
 10
5.08112
 20
3.46879
 30
0.0
 10
5.02643
 20
3.43312
 30
0.0
 10
4.91229
 20
3.38079
 30
0.0
 10
4.83143
 20
3.35224
 30
0.0
 10
4.83143
 20
3.35224
 30
0.0
 10
4.75055
 20
3.32374
 30
0.0
 10
4.722
 20
3.3071
 30
0.0
 10
4.70533
 20
3.29287
 30
0.0
 10
4.70533
 20
3.29287
 30
0.0
 10
4.68871
 20
3.27853
 30
0.0
 10
4.75055
 20
3.28096
 30
0.0
 10
4.76481
 20
3.27617
 30
0.0
 10
4.76481
 20
3.27617
 30
0.0
 10
4.77907
 20
3.27143
 30
0.0
 10
4.82188
 20
3.25717
 30
0.0
 10
4.84567
 20
3.25241
 30
0.0
 10
4.84567
 20
3.25241
 30
0.0
 10
4.86946
 20
3.24765
 30
0.0
 10
4.90512
 20
3.21913
 30
0.0
 10
4.93367
 20
3.18817
 30
0.0
 10
4.93367
 20
3.18817
 30
0.0
 10
4.96222
 20
3.15729
 30
0.0
 10
5.19047
 20
2.90996
 30
0.0
 10
5.25948
 20
2.82434
 30
0.0
 10
5.25948
 20
2.82434
 30
0.0
 10
5.29925
 20
2.77484
 30
0.0
 10
5.35042
 20
2.71496
 30
0.0
 10
5.38727
 20
2.66321
 30
0.0
 10
5.38727
 20
2.66321
 30
0.0
 10
5.41418
 20
2.62551
 30
0.0
 10
5.43352
 20
2.5919
 30
0.0
 10
5.43542
 20
2.56992
 30
0.0
 10
5.43542
 20
2.56992
 30
0.0
 10
5.4378
 20
2.54404
 30
0.0
 10
5.43719
 20
2.43051
 30
0.0
 10
5.43632
 20
2.30584
 30
0.0
 10
5.43632
 20
2.30584
 30
0.0
 10
5.43542
 20
2.17828
 30
0.0
 10
5.4342
 20
2.03919
 30
0.0
 10
5.43542
 20
1.97067
 30
0.0
 10
5.43542
 20
1.97067
 30
0.0
 10
5.4378
 20
1.83515
 30
0.0
 10
5.43542
 20
1.81375
 30
0.0
 10
5.4378
 20
1.78514
 30
0.0
 10
5.4378
 20
1.78514
 30
0.0
 10
5.43928
 20
1.76646
 30
0.0
 10
5.4409
 20
1.72439
 30
0.0
 10
5.43198
 20
1.69748
 30
0.0
 10
5.43198
 20
1.69748
 30
0.0
 10
5.42722
 20
1.68335
 30
0.0
 10
5.41163
 20
1.66867
 30
0.0
 10
5.41163
 20
1.66867
 30
0.0
 10
5.41163
 20
1.66867
 30
0.0
 10
5.41163
 20
1.66867
 30
0.0
 10
5.47582
 20
1.65676
 30
0.0
 10
5.51387
 20
1.63774
 30
0.0
 10
5.51387
 20
1.63774
 30
0.0
 10
5.55192
 20
1.61872
 30
0.0
 10
5.63516
 20
1.56879
 30
0.0
 10
5.67794
 20
1.5355
 30
0.0
 10
5.67794
 20
1.5355
 30
0.0
 10
5.72078
 20
1.50222
 30
0.0
 10
5.80875
 20
1.46417
 30
0.0
 10
5.83727
 20
1.44512
 30
0.0
 10
5.83727
 20
1.44512
 30
0.0
 10
5.85169
 20
1.43549
 30
0.0
 10
5.90736
 20
1.39697
 30
0.0
 10
5.92628
 20
1.34807
 30
0.0
 10
5.92628
 20
1.34807
 30
0.0
 10
5.94456
 20
1.30052
 30
0.0
 10
5.92628
 20
1.24271
 30
0.0
 10
5.9181
 20
1.21919
 30
0.0
 10
5.9181
 20
1.21919
 30
0.0
 10
5.90146
 20
1.17162
 30
0.0
 10
5.87767
 20
1.14548
 30
0.0
 10
5.82057
 20
1.12172
 30
0.0
 10
5.82057
 20
1.12172
 30
0.0
 10
5.76353
 20
1.09793
 30
0.0
 10
5.12382
 20
0.8102
 30
0.0
 10
4.99303
 20
0.7531
 30
0.0
 10
4.99303
 20
0.7531
 30
0.0
 10
4.86225
 20
0.696
 30
0.0
 10
4.44365
 20
0.50339
 30
0.0
 10
4.44365
 20
0.50339
 30
0.0
 10
4.44365
 20
0.50339
 30
0.0
 10
4.44365
 20
0.50339
 30
0.0
 10
4.49225
 20
0.41007
 30
0.0
 10
4.50136
 20
0.28535
 30
0.0
 10
4.50136
 20
0.28535
 30
0.0
 10
4.50729
 20
0.2032
 30
0.0
 10
4.48112
 20
0.09675
 30
0.0
 10
4.46509
 20
0.03254
 30
0.0
 10
4.46509
 20
0.03254
 30
0.0
 10
4.42469
 20
-0.12915
 30
0.0
 10
4.35571
 20
-0.37883
 30
0.0
 10
4.33907
 20
-0.48115
 30
0.0
 10
4.33907
 20
-0.48115
 30
0.0
 10
4.32243
 20
-0.58333
 30
0.0
 10
4.28197
 20
-0.82828
 30
0.0
 10
4.28197
 20
-0.82828
 30
0.0
 10
4.28197
 20
-0.82828
 30
0.0
 10
4.28197
 20
-0.82828
 30
0.0
 10
4.52216
 20
-0.71414
 30
0.0
 10
4.59114
 20
-0.68324
 30
0.0
 10
4.59114
 20
-0.68324
 30
0.0
 10
4.66009
 20
-0.65231
 30
0.0
 10
5.05966
 20
-0.45737
 30
0.0
 10
5.18807
 20
-0.40027
 30
0.0
 10
5.18807
 20
-0.40027
 30
0.0
 10
5.31647
 20
-0.34325
 30
0.0
 10
5.45916
 20
-0.27187
 30
0.0
 10
5.50673
 20
-0.25046
 30
0.0
 10
5.50673
 20
-0.25046
 30
0.0
 10
5.55428
 20
-0.229
 30
0.0
 10
5.61137
 20
-0.21712
 30
0.0
 10
5.71596
 20
-0.2362
 30
0.0
 10
5.71596
 20
-0.2362
 30
0.0
 10
5.8206
 20
-0.2552
 30
0.0
 10
6.34614
 20
-0.35508
 30
0.0
 10
6.49122
 20
-0.3836
 30
0.0
 10
6.49122
 20
-0.3836
 30
0.0
 10
6.63632
 20
-0.41215
 30
0.0
 10
6.92405
 20
-0.47163
 30
0.0
 10
7.00488
 20
-0.48589
 30
0.0
 10
7.00488
 20
-0.48589
 30
0.0
 10
7.08579
 20
-0.50012
 30
0.0
 10
7.15233
 20
-0.51439
 30
0.0
 10
7.19514
 20
-0.55246
 30
0.0
 10
7.19514
 20
-0.55246
 30
0.0
 10
7.23792
 20
-0.59053
 30
0.0
 10
7.27835
 20
-0.62144
 30
0.0
 10
7.30214
 20
-0.62855
 30
0.0
 10
7.30214
 20
-0.62855
 30
0.0
 10
7.32593
 20
-0.63572
 30
0.0
 10
7.35924
 20
-0.64519
 30
0.0
 10
7.3735
 20
-0.67612
 30
0.0
 10
7.3735
 20
-0.67612
 30
0.0
 10
7.38776
 20
-0.70702
 30
0.0
 10
7.38776
 20
-0.74033
 30
0.0
 10
7.3925
 20
-0.75698
 30
0.0
 10
7.3925
 20
-0.75698
 30
0.0
 10
7.39732
 20
-0.77365
 30
0.0
 10
7.40203
 20
-0.80693
 30
0.0
 10
7.36398
 20
-0.83072
 30
0.0
 10
7.36398
 20
-0.83072
 30
0.0
 10
7.32593
 20
-0.85448
 30
0.0
 10
7.18565
 20
-0.93772
 30
0.0
 10
7.18565
 20
-0.93772
 30
0.0
 10
7.18565
 20
-0.93772
 30
0.0
 10
7.18565
 20
-0.93772
 30
0.0
 10
7.19039
 20
-1.08038
 30
0.0
 10
7.19279
 20
-1.11134
 30
0.0
 10
7.19279
 20
-1.11134
 30
0.0
 10
7.19517
 20
-1.14222
 30
0.0
 10
7.20467
 20
-1.20405
 30
0.0
 10
7.15715
 20
-1.23974
 30
0.0
 10
7.15715
 20
-1.23974
 30
0.0
 10
7.10955
 20
-1.27543
 30
0.0
 10
6.97401
 20
-1.35388
 30
0.0
 10
6.97401
 20
-1.35388
 30
0.0
 10
6.97401
 20
-1.35388
 30
0.0
 10
6.97401
 20
-1.35388
 30
0.0
 10
7.03121
 20
-1.42254
 30
0.0
 10
7.05413
 20
-1.51633
 30
0.0
 10
7.05413
 20
-1.51633
 30
0.0
 10
7.07061
 20
-1.58383
 30
0.0
 10
7.05683
 20
-1.67241
 30
0.0
 10
7.05037
 20
-1.72038
 30
0.0
 10
7.05037
 20
-1.72038
 30
0.0
 10
7.0336
 20
-1.846
 30
0.0
 10
6.99351
 20
-1.99523
 30
0.0
 10
6.98825
 20
-2.03637
 30
0.0
 10
6.98825
 20
-2.03637
 30
0.0
 10
6.98439
 20
-2.06759
 30
0.0
 10
6.96534
 20
-2.17401
 30
0.0
 10
6.9493
 20
-2.30318
 30
0.0
 10
6.9493
 20
-2.30318
 30
0.0
 10
6.92625
 20
-2.4891
 30
0.0
 10
6.90437
 20
-2.71455
 30
0.0
 10
6.90025
 20
-2.76644
 30
0.0
 10
6.90025
 20
-2.76644
 30
0.0
 10
6.89308
 20
-2.85444
 30
0.0
 10
6.89308
 20
-2.96858
 30
0.0
 10
6.85985
 20
-2.9852
 30
0.0
 10
6.85985
 20
-2.9852
 30
0.0
 10
6.82654
 20
-3.00192
 30
0.0
 10
6.75761
 20
-3.00666
 30
0.0
 10
6.7124
 20
-3.00192
 30
0.0
 10
6.7124
 20
-3.00192
 30
0.0
 10
6.66721
 20
-2.9971
 30
0.0
 10
6.65057
 20
-2.9852
 30
0.0
 10
6.64342
 20
-2.95197
 30
0.0
 10
6.64342
 20
-2.95197
 30
0.0
 10
6.63987
 20
-2.93557
 30
0.0
 10
6.63265
 20
-2.84889
 30
0.0
 10
6.61982
 20
-2.75456
 30
0.0
 10
6.61982
 20
-2.75456
 30
0.0
 10
6.60659
 20
-2.65629
 30
0.0
 10
6.5877
 20
-2.54975
 30
0.0
 10
6.58161
 20
-2.50485
 30
0.0
 10
6.58161
 20
-2.50485
 30
0.0
 10
6.56978
 20
-2.41688
 30
0.0
 10
6.53168
 20
-2.17907
 30
0.0
 10
6.5103
 20
-2.10533
 30
0.0
 10
6.5103
 20
-2.10533
 30
0.0
 10
6.48887
 20
-2.03162
 30
0.0
 10
6.43894
 20
-1.82477
 30
0.0
 10
6.42468
 20
-1.7724
 30
0.0
 10
6.42468
 20
-1.7724
 30
0.0
 10
6.41042
 20
-1.72009
 30
0.0
 10
6.39854
 20
-1.64876
 30
0.0
 10
6.39854
 20
-1.64876
 30
0.0
 10
6.39854
 20
-1.64876
 30
0.0
 10
6.39854
 20
-1.64876
 30
0.0
 10
6.18925
 20
-1.75338
 30
0.0
 10
6.12504
 20
-1.78431
 30
0.0
 10
6.12504
 20
-1.78431
 30
0.0
 10
6.06085
 20
-1.81521
 30
0.0
 10
5.96097
 20
-1.8699
 30
0.0
 10
5.96097
 20
-1.8699
 30
0.0
 10
5.96097
 20
-1.8699
 30
0.0
 10
5.96097
 20
-1.8699
 30
0.0
 10
5.94192
 20
-2.01968
 30
0.0
 10
5.93247
 20
-2.1053
 30
0.0
 10
5.93247
 20
-2.1053
 30
0.0
 10
5.92294
 20
-2.19092
 30
0.0
 10
5.90625
 20
-2.34311
 30
0.0
 10
5.90625
 20
-2.39303
 30
0.0
 10
5.90625
 20
-2.39303
 30
0.0
 10
5.90625
 20
-2.44298
 30
0.0
 10
5.89913
 20
-2.62131
 30
0.0
 10
5.89913
 20
-2.65465
 30
0.0
 10
5.89913
 20
-2.65465
 30
0.0
 10
5.89913
 20
-2.68793
 30
0.0
 10
5.88487
 20
-2.73072
 30
0.0
 10
5.83253
 20
-2.73551
 30
0.0
 10
5.83253
 20
-2.73551
 30
0.0
 10
5.78017
 20
-2.74027
 30
0.0
 10
5.71839
 20
-2.73784
 30
0.0
 10
5.6827
 20
-2.72837
 30
0.0
 10
5.6827
 20
-2.72837
 30
0.0
 10
5.64698
 20
-2.71884
 30
0.0
 10
5.64227
 20
-2.6808
 30
0.0
 10
5.63754
 20
-2.64746
 30
0.0
 10
5.63754
 20
-2.64746
 30
0.0
 10
5.63272
 20
-2.61418
 30
0.0
 10
5.59949
 20
-2.38116
 30
0.0
 10
5.58759
 20
-2.3098
 30
0.0
 10
5.58759
 20
-2.3098
 30
0.0
 10
5.57571
 20
-2.23849
 30
0.0
 10
5.54483
 20
-2.08149
 30
0.0
 10
5.54483
 20
-2.08149
 30
0.0
 10
5.54483
 20
-2.08149
 30
0.0
 10
5.54483
 20
-2.08149
 30
0.0
 10
5.34261
 20
-2.18137
 30
0.0
 10
5.28316
 20
-2.21468
 30
0.0
 10
5.28316
 20
-2.21468
 30
0.0
 10
5.25747
 20
-2.2291
 30
0.0
 10
5.15447
 20
-2.28662
 30
0.0
 10
5.0571
 20
-2.33761
 30
0.0
 10
5.0571
 20
-2.33761
 30
0.0
 10
4.9296
 20
-2.40431
 30
0.0
 10
4.79969
 20
-2.46837
 30
0.0
 10
4.74574
 20
-2.49525
 30
0.0
 10
4.74574
 20
-2.49525
 30
0.0
 10
4.65062
 20
-2.54285
 30
0.0
 10
4.6411
 20
-2.54758
 30
0.0
 10
4.61731
 20
-2.55473
 30
0.0
 10
4.61731
 20
-2.55473
 30
0.0
 10
4.59352
 20
-2.56182
 30
0.0
 10
4.51978
 20
-2.61416
 30
0.0
 10
4.47465
 20
-2.63318
 30
0.0
 10
4.47465
 20
-2.63318
 30
0.0
 10
4.42943
 20
-2.65223
 30
0.0
 10
4.39612
 20
-2.66887
 30
0.0
 10
4.37712
 20
-2.68078
 30
0.0
 10
4.37712
 20
-2.68078
 30
0.0
 10
4.3581
 20
-2.69266
 30
0.0
 10
4.32005
 20
-2.70692
 30
0.0
 10
4.30103
 20
-2.72594
 30
0.0
 10
4.30103
 20
-2.72594
 30
0.0
 10
4.28198
 20
-2.74496
 30
0.0
 10
4.28198
 20
-2.75687
 30
0.0
 10
4.28198
 20
-2.75687
 30
0.0
 10
4.28198
 20
-2.75687
 30
0.0
 10
4.28198
 20
-2.75687
 30
0.0
 10
4.33077
 20
-2.81407
 30
0.0
 10
4.35527
 20
-2.89345
 30
0.0
 10
4.35527
 20
-2.89345
 30
0.0
 10
4.37477
 20
-2.95602
 30
0.0
 10
4.37178
 20
-3.04135
 30
0.0
 10
4.3676
 20
-3.06122
 30
0.0
 10
4.3676
 20
-3.06122
 30
0.0
 10
4.36376
 20
-3.07966
 30
0.0
 10
4.34559
 20
-3.17684
 30
0.0
 10
4.33016
 20
-3.27916
 30
0.0
 10
4.33016
 20
-3.27916
 30
0.0
 10
4.30767
 20
-3.42701
 30
0.0
 10
4.28571
 20
-3.5988
 30
0.0
 10
4.27724
 20
-3.66765
 30
0.0
 10
4.27724
 20
-3.66765
 30
0.0
 10
4.27118
 20
-3.71789
 30
0.0
 10
4.26226
 20
-3.80841
 30
0.0
 10
4.25631
 20
-3.89098
 30
0.0
 10
4.25631
 20
-3.89098
 30
0.0
 10
4.2484
 20
-3.99994
 30
0.0
 10
4.24422
 20
-4.10415
 30
0.0
 10
4.24157
 20
-4.17178
 30
0.0
 10
4.24157
 20
-4.17178
 30
0.0
 10
4.23683
 20
-4.29068
 30
0.0
 10
4.23445
 20
-4.34058
 30
0.0
 10
4.23445
 20
-4.36437
 30
0.0
 10
4.23445
 20
-4.36437
 30
0.0
 10
4.23445
 20
-4.38813
 30
0.0
 10
4.20114
 20
-4.43335
 30
0.0
 10
4.15833
 20
-4.43808
 30
0.0
 10
4.15833
 20
-4.43808
 30
0.0
 10
4.11552
 20
-4.4429
 30
0.0
 10
4.06557
 20
-4.43808
 30
0.0
 10
4.02517
 20
-4.42863
 30
0.0
 10
4.02517
 20
-4.42863
 30
0.0
 10
3.98474
 20
-4.4191
 30
0.0
 10
3.9776
 20
-4.39767
 30
0.0
 10
3.96807
 20
-4.34772
 30
0.0
 10
3.96807
 20
-4.34772
 30
0.0
 10
3.96452
 20
-4.3293
 30
0.0
 10
3.96156
 20
-4.2667
 30
0.0
 10
3.94505
 20
-4.17399
 30
0.0
 10
3.94505
 20
-4.17399
 30
0.0
 10
3.91666
 20
-4.01495
 30
0.0
 10
3.86671
 20
-3.78593
 30
0.0
 10
3.83969
 20
-3.67477
 30
0.0
 10
3.83969
 20
-3.67477
 30
0.0
 10
3.79683
 20
-3.4988
 30
0.0
 10
3.76833
 20
-3.37037
 30
0.0
 10
3.73264
 20
-3.28239
 30
0.0
 10
3.73264
 20
-3.28239
 30
0.0
 10
3.69697
 20
-3.19439
 30
0.0
 10
3.67081
 20
-3.12782
 30
0.0
 10
3.66843
 20
-3.07072
 30
0.0
 10
3.66843
 20
-3.07072
 30
0.0
 10
3.66727
 20
-3.04294
 30
0.0
 10
3.6588
 20
-2.95774
 30
0.0
 10
3.67335
 20
-2.89594
 30
0.0
 10
3.67335
 20
-2.89594
 30
0.0
 10
3.69105
 20
-2.82016
 30
0.0
 10
3.73264
 20
-2.76873
 30
0.0
 10
3.73264
 20
-2.76873
 30
0.0
 10
3.73264
 20
-2.76873
 30
0.0
 10
3.73264
 20
-2.76873
 30
0.0
 10
3.5781
 20
-2.73068
 30
0.0
 10
3.49724
 20
-2.71404
 30
0.0
 10
3.49724
 20
-2.71404
 30
0.0
 10
3.41638
 20
-2.6974
 30
0.0
 10
3.29989
 20
-2.67123
 30
0.0
 10
3.29989
 20
-2.67123
 30
0.0
 10
3.29989
 20
-2.67123
 30
0.0
 10
3.29989
 20
-2.67123
 30
0.0
 10
3.31889
 20
-2.7329
 30
0.0
 10
3.31873
 20
-2.82823
 30
0.0
 10
3.31873
 20
-2.82823
 30
0.0
 10
3.31873
 20
-2.89792
 30
0.0
 10
3.29465
 20
-3.00627
 30
0.0
 10
3.2856
 20
-3.05649
 30
0.0
 10
3.2856
 20
-3.05649
 30
0.0
 10
3.27713
 20
-3.10393
 30
0.0
 10
3.25925
 20
-3.19397
 30
0.0
 10
3.24604
 20
-3.28522
 30
0.0
 10
3.24604
 20
-3.28522
 30
0.0
 10
3.22601
 20
-3.42254
 30
0.0
 10
3.21752
 20
-3.55872
 30
0.0
 10
3.21186
 20
-3.61293
 30
0.0
 10
3.21186
 20
-3.61293
 30
0.0
 10
3.20233
 20
-3.70334
 30
0.0
 10
3.1881
 20
-3.94591
 30
0.0
 10
3.1881
 20
-4.01724
 30
0.0
 10
3.1881
 20
-4.01724
 30
0.0
 10
3.1881
 20
-4.08857
 30
0.0
 10
3.17625
 20
-4.129
 30
0.0
 10
3.12629
 20
-4.13612
 30
0.0
 10
3.12629
 20
-4.13612
 30
0.0
 10
3.07633
 20
-4.14324
 30
0.0
 10
3.02405
 20
-4.14086
 30
0.0
 10
2.97884
 20
-4.13138
 30
0.0
 10
2.97884
 20
-4.13138
 30
0.0
 10
2.93362
 20
-4.12185
 30
0.0
 10
2.91939
 20
-4.10042
 30
0.0
 10
2.91465
 20
-4.06238
 30
0.0
 10
2.91465
 20
-4.06238
 30
0.0
 10
2.9133
 20
-4.05196
 30
0.0
 10
2.90751
 20
-4.00105
 30
0.0
 10
2.89917
 20
-3.95075
 30
0.0
 10
2.89917
 20
-3.95075
 30
0.0
 10
2.87734
 20
-3.81764
 30
0.0
 10
2.83781
 20
-3.60346
 30
0.0
 10
2.81712
 20
-3.51546
 30
0.0
 10
2.81712
 20
-3.51546
 30
0.0
 10
2.7886
 20
-3.39417
 30
0.0
 10
2.76246
 20
-3.28718
 30
0.0
 10
2.71248
 20
-3.12787
 30
0.0
 10
2.71248
 20
-3.12787
 30
0.0
 10
2.6924
 20
-3.06363
 30
0.0
 10
2.62419
 20
-2.8798
 30
0.0
 10
2.62673
 20
-2.77113
 30
0.0
 10
2.62673
 20
-2.77113
 30
0.0
 10
2.63043
 20
-2.61021
 30
0.0
 10
2.71248
 20
-2.52147
 30
0.0
 10
2.71248
 20
-2.52147
 30
0.0
 10
2.71248
 20
-2.52147
 30
0.0
 10
2.71248
 20
-2.52147
 30
0.0
 10
2.62212
 20
-2.50004
 30
0.0
 10
2.56265
 20
-2.48104
 30
0.0
 10
2.56265
 20
-2.48104
 30
0.0
 10
2.50322
 20
-2.46199
 30
0.0
 10
2.46282
 20
-2.43823
 30
0.0
 10
2.45801
 20
-2.37642
 30
0.0
 10
2.45801
 20
-2.37642
 30
0.0
 10
2.45327
 20
-2.31453
 30
0.0
 10
2.45566
 20
-2.29551
 30
0.0
 10
2.45566
 20
-2.24799
 30
0.0
 10
2.45566
 20
-2.24799
 30
0.0
 10
2.45566
 20
-2.20047
 30
0.0
 10
2.44613
 20
-2.16713
 30
0.0
 10
2.44613
 20
-2.16713
 30
0.0
 10
2.44613
 20
-2.16713
 30
0.0
 10
2.44613
 20
-2.16713
 30
0.0
 10
2.36056
 20
-2.14334
 30
0.0
 10
2.3082
 20
-2.12432
 30
0.0
 10
2.3082
 20
-2.12432
 30
0.0
 10
2.25589
 20
-2.1053
 30
0.0
 10
2.16316
 20
-2.06013
 30
0.0
 10
2.17268
 20
-1.99827
 30
0.0
 10
2.17268
 20
-1.99827
 30
0.0
 10
2.18215
 20
-1.93649
 30
0.0
 10
2.21311
 20
-1.9103
 30
0.0
 10
2.24399
 20
-1.9008
 30
0.0
 10
2.24399
 20
-1.9008
 30
0.0
 10
2.27495
 20
-1.89127
 30
0.0
 10
2.31773
 20
-1.85323
 30
0.0
 10
2.34387
 20
-1.8223
 30
0.0
 10
2.34387
 20
-1.8223
 30
0.0
 10
2.37001
 20
-1.79137
 30
0.0
 10
2.38192
 20
-1.75809
 30
0.0
 10
2.43184
 20
-1.7248
 30
0.0
 10
2.43184
 20
-1.7248
 30
0.0
 10
2.48179
 20
-1.69149
 30
0.0
 10
2.65539
 20
-1.60825
 30
0.0
 10
2.76953
 20
-1.55356
 30
0.0
 10
2.76953
 20
-1.55356
 30
0.0
 10
2.82184
 20
-1.52845
 30
0.0
 10
2.91285
 20
-1.49054
 30
0.0
 10
3.00813
 20
-1.44566
 30
0.0
 10
3.00813
 20
-1.44566
 30
0.0
 10
3.12076
 20
-1.39258
 30
0.0
 10
3.23747
 20
-1.33266
 30
0.0
 10
3.2761
 20
-1.31339
 30
0.0
 10
3.2761
 20
-1.31339
 30
0.0
 10
3.34738
 20
-1.2777
 30
0.0
 10
3.62329
 20
-1.14213
 30
0.0
 10
3.66845
 20
-1.12313
 30
0.0
 10
3.66845
 20
-1.12313
 30
0.0
 10
3.71367
 20
-1.10411
 30
0.0
 10
3.7755
 20
-1.07558
 30
0.0
 10
3.7755
 20
-1.07558
 30
0.0
 10
3.7755
 20
-1.07558
 30
0.0
 10
3.7755
 20
-1.07558
 30
0.0
 10
3.74222
 20
-0.68561
 30
0.0
 10
3.69941
 20
-0.49535
 30
0.0
 10
3.69941
 20
-0.49535
 30
0.0
 10
3.65364
 20
-0.2917
 30
0.0
 10
3.61144
 20
-0.15287
 30
0.0
 10
3.58524
 20
-0.06016
 30
0.0
 10
3.58524
 20
-0.06016
 30
0.0
 10
3.5591
 20
0.03258
 30
0.0
 10
3.54486
 20
0.07777
 30
0.0
 10
3.54486
 20
0.07777
 30
0.0
 10
3.54486
 20
0.07777
 30
0.0
 10
3.54486
 20
0.07777
 30
0.0
 10
3.20476
 20
-0.08154
 30
0.0
 10
3.11205
 20
-0.12911
 30
0.0
 10
3.11205
 20
-0.12911
 30
0.0
 10
3.0698
 20
-0.15078
 30
0.0
 10
2.87705
 20
-0.24592
 30
0.0
 10
2.69052
 20
-0.33482
 30
0.0
 10
2.69052
 20
-0.33482
 30
0.0
 10
2.46697
 20
-0.44137
 30
0.0
 10
2.24401
 20
-0.54421
 30
0.0
 10
2.18696
 20
-0.57138
 30
0.0
 10
2.18696
 20
-0.57138
 30
0.0
 10
2.1409
 20
-0.59339
 30
0.0
 10
1.99823
 20
-0.66044
 30
0.0
 10
1.84065
 20
-0.7346
 30
0.0
 10
1.84065
 20
-0.7346
 30
0.0
 10
1.64018
 20
-0.82892
 30
0.0
 10
1.41554
 20
-0.93463
 30
0.0
 10
1.33556
 20
-0.97328
 30
0.0
 10
1.33556
 20
-0.97328
 30
0.0
 10
1.1929
 20
-1.0422
 30
0.0
 10
0.78623
 20
-1.23485
 30
0.0
 10
0.67685
 20
-1.28718
 30
0.0
 10
0.67685
 20
-1.28718
 30
0.0
 10
0.56765
 20
-1.33965
 30
0.0
 10
0.34881
 20
-1.44424
 30
0.0
 10
0.34881
 20
-1.44424
 30
0.0
  0
ENDSEC
  0
SECTION
  2
OBJECTS
  0
DICTIONARY
  5
C
330
0
100
AcDbDictionary
281
     1
  3
ACAD_GROUP
350
D
  3
ACAD_LAYOUT
350
1A
  3
ACAD_MATERIAL
350
3B
  3
ACAD_MLEADERSTYLE
350
63
  3
ACAD_MLINESTYLE
350
17
  3
ACAD_PLOTSETTINGS
350
19
  3
ACAD_PLOTSTYLENAME
350
E
  3
ACAD_TABLESTYLE
350
62
  3
ACAD_VISUALSTYLE
350
2A
  0
DICTIONARY
  5
D
102
{ACAD_REACTORS
330
C
102
}
330
C
100
AcDbDictionary
281
     1
  0
DICTIONARY
  5
1A
102
{ACAD_REACTORS
330
C
102
}
330
C
100
AcDbDictionary
281
     1
  3
Layout1
350
1E
  3
Layout2
350
26
  3
Model
350
22
  0
DICTIONARY
  5
3B
102
{ACAD_REACTORS
330
C
102
}
330
C
100
AcDbDictionary
281
     1
  3
ByBlock
350
3D
  3
ByLayer
350
3C
  3
Global
350
3E
  0
DICTIONARY
  5
63
102
{ACAD_REACTORS
330
C
102
}
330
C
100
AcDbDictionary
281
     1
  0
DICTIONARY
  5
17
102
{ACAD_REACTORS
330
C
102
}
330
C
100
AcDbDictionary
281
     1
  3
Standard
350
18
  0
DICTIONARY
  5
19
102
{ACAD_REACTORS
330
C
102
}
330
C
100
AcDbDictionary
281
     1
  0
ACDBDICTIONARYWDFLT
  5
E
102
{ACAD_REACTORS
330
C
102
}
330
C
100
AcDbDictionary
281
     1
  3
Normal
350
F
100
AcDbDictionaryWithDefault
340
F
  0
DICTIONARY
  5
62
102
{ACAD_REACTORS
330
C
102
}
330
C
100
AcDbDictionary
281
     1
  0
DICTIONARY
  5
2A
102
{ACAD_REACTORS
330
C
102
}
330
C
100
AcDbDictionary
281
     1
  3
2dWireframe
350
2F
  3
3D Hidden
350
31
  3
3dWireframe
350
30
  3
Basic
350
32
  3
Brighten
350
36
  3
ColorChange
350
3A
  3
Conceptual
350
34
  3
Dim
350
35
  3
Facepattern
350
39
  3
Flat
350
2B
  3
FlatWithEdges
350
2C
  3
Gouraud
350
2D
  3
GouraudWithEdges
350
2E
  3
Linepattern
350
38
  3
Realistic
350
33
  3
Thicken
350
37
  0
LAYOUT
  5
1E
102
{ACAD_REACTORS
330
1A
102
}
330
1A
100
AcDbPlotSettings
  1

  2
none_device
  4

  6

 40
0.0
 41
0.0
 42
0.0
 43
0.0
 44
0.0
 45
0.0
 46
0.0
 47
0.0
 48
0.0
 49
0.0
140
0.0
141
0.0
142
1.0
143
1.0
 70
   688
 72
     0
 73
     0
 74
     5
  7

 75
    16
 76
     0
 77
     2
 78
   300
147
1.0
148
0.0
149
0.0
100
AcDbLayout
  1
Layout1
 70
     1
 71
     1
 10
0.0
 20
0.0
 11
12.0
 21
9.0
 12
0.0
 22
0.0
 32
0.0
 14
1.000000000000000E+20
 24
1.000000000000000E+20
 34
1.000000000000000E+20
 15
-1.000000000000000E+20
 25
-1.000000000000000E+20
 35
-1.000000000000000E+20
146
0.0
 13
0.0
 23
0.0
 33
0.0
 16
1.0
 26
0.0
 36
0.0
 17
0.0
 27
1.0
 37
0.0
 76
     0
330
1B
  0
LAYOUT
  5
26
102
{ACAD_REACTORS
330
1A
102
}
330
1A
100
AcDbPlotSettings
  1

  2
none_device
  4

  6

 40
0.0
 41
0.0
 42
0.0
 43
0.0
 44
0.0
 45
0.0
 46
0.0
 47
0.0
 48
0.0
 49
0.0
140
0.0
141
0.0
142
1.0
143
1.0
 70
   688
 72
     0
 73
     0
 74
     5
  7

 75
    16
 76
     0
 77
     2
 78
   300
147
1.0
148
0.0
149
0.0
100
AcDbLayout
  1
Layout2
 70
     1
 71
     2
 10
0.0
 20
0.0
 11
0.0
 21
0.0
 12
0.0
 22
0.0
 32
0.0
 14
0.0
 24
0.0
 34
0.0
 15
0.0
 25
0.0
 35
0.0
146
0.0
 13
0.0
 23
0.0
 33
0.0
 16
1.0
 26
0.0
 36
0.0
 17
0.0
 27
1.0
 37
0.0
 76
     0
330
23
  0
LAYOUT
  5
22
102
{ACAD_REACTORS
330
1A
102
}
330
1A
100
AcDbPlotSettings
  1

  2
none_device
  4

  6

 40
0.0
 41
0.0
 42
0.0
 43
0.0
 44
0.0
 45
0.0
 46
0.0
 47
0.0
 48
0.0
 49
0.0
140
0.0
141
0.0
142
1.0
143
1.0
 70
  1712
 72
     0
 73
     0
 74
     0
  7

 75
     0
 76
     0
 77
     2
 78
   300
147
1.0
148
0.0
149
0.0
100
AcDbLayout
  1
Model
 70
     1
 71
     0
 10
0.0
 20
0.0
 11
12.0
 21
9.0
 12
0.0
 22
0.0
 32
0.0
 14
-7.39597
 24
-4.43998
 34
0.0
 15
7.39571
 25
4.44019
 35
0.0
146
0.0
 13
0.0
 23
0.0
 33
0.0
 16
1.0
 26
0.0
 36
0.0
 17
0.0
 27
1.0
 37
0.0
 76
     0
330
1F
331
29
  0
MATERIAL
  5
3D
102
{ACAD_REACTORS
330
3B
102
}
330
3B
100
AcDbMaterial
  1
ByBlock
 72
     1
 94
      127
  0
MATERIAL
  5
3C
102
{ACAD_REACTORS
330
3B
102
}
330
3B
100
AcDbMaterial
  1
ByLayer
 72
     1
 94
      127
  0
MATERIAL
  5
3E
102
{ACAD_REACTORS
330
3B
102
}
330
3B
100
AcDbMaterial
  1
Global
 72
     1
 94
      127
  0
MLINESTYLE
  5
18
102
{ACAD_REACTORS
330
17
102
}
330
17
100
AcDbMlineStyle
  2
Standard
 70
     0
  3

 62
   256
 51
90.0
 52
90.0
 71
     2
 49
0.5
 62
   256
  6
BYLAYER
 49
-0.5
 62
   256
  6
BYLAYER
  0
ACDBPLACEHOLDER
  5
F
102
{ACAD_REACTORS
330
E
102
}
330
E
  0
VISUALSTYLE
  5
2F
102
{ACAD_REACTORS
330
2A
102
}
102
{ACAD_XDICTIONARY
360
4A
102
}
330
2A
100
AcDbVisualStyle
  2
2dWireframe
 70
     4
 71
     0
 72
     2
 73
     0
 90
        0
 40
-0.6
 41
-30.0
 62
     5
 63
     7
421
 16777215
 74
     1
 91
        4
 64
     7
 65
   257
 75
     1
175
     1
 42
1.0
 92
        0
 66
   257
 43
1.0
 76
     1
 77
     6
 78
     2
 67
     7
 79
     5
170
     0
171
     0
290
     0
174
     0
 93
        1
 44
0.0
173
     0
291
     0
 45
0.0
  0
VISUALSTYLE
  5
31
102
{ACAD_REACTORS
330
2A
102
}
102
{ACAD_XDICTIONARY
360
4E
102
}
330
2A
100
AcDbVisualStyle
  2
3D Hidden
 70
     6
 71
     1
 72
     2
 73
     2
 90
        0
 40
-0.6
 41
-30.0
 62
     5
 63
     7
421
 16777215
 74
     2
 91
        2
 64
     7
 65
   257
 75
     2
175
     1
 42
40.0
 92
        0
 66
   257
 43
1.0
 76
     1
 77
     6
 78
     2
 67
     7
 79
     3
170
     0
171
     0
290
     0
174
     0
 93
        1
 44
0.0
173
     0
291
     0
 45
0.0
  0
VISUALSTYLE
  5
30
102
{ACAD_REACTORS
330
2A
102
}
102
{ACAD_XDICTIONARY
360
4C
102
}
330
2A
100
AcDbVisualStyle
  2
3dWireframe
 70
     5
 71
     0
 72
     2
 73
     0
 90
        0
 40
-0.6
 41
-30.0
 62
     5
 63
     7
421
 16777215
 74
     1
 91
        4
 64
     7
 65
   257
 75
     1
175
     1
 42
1.0
 92
        0
 66
   257
 43
1.0
 76
     1
 77
     6
 78
     2
 67
     7
 79
     5
170
     0
171
     0
290
     0
174
     0
 93
        1
 44
0.0
173
     0
291
     0
 45
0.0
  0
VISUALSTYLE
  5
32
102
{ACAD_REACTORS
330
2A
102
}
102
{ACAD_XDICTIONARY
360
50
102
}
330
2A
100
AcDbVisualStyle
  2
Basic
 70
     7
 71
     1
 72
     0
 73
     1
 90
        0
 40
-0.6
 41
-30.0
 62
     5
 63
     7
421
 16777215
 74
     0
 91
        4
 64
     7
 65
   257
 75
     1
175
     1
 42
1.0
 92
        8
 66
     7
 43
1.0
 76
     1
 77
     6
 78
     2
 67
     7
 79
     5
170
     0
171
     0
290
     0
174
     0
 93
        1
 44
0.0
173
     0
291
     1
 45
0.0
  0
VISUALSTYLE
  5
36
102
{ACAD_REACTORS
330
2A
102
}
102
{ACAD_XDICTIONARY
360
58
102
}
330
2A
100
AcDbVisualStyle
  2
Brighten
 70
    12
 71
     2
 72
     2
 73
     0
 90
        0
 40
-0.6
 41
-30.0
 62
     5
 63
     7
421
 16777215
 74
     1
 91
        4
 64
     7
 65
   257
 75
     1
175
     1
 42
1.0
 92
        8
 66
     7
 43
1.0
 76
     1
 77
     6
 78
     2
 67
     7
 79
     5
170
     0
171
     0
290
     0
174
     0
 93
        1
 44
50.0
173
     0
291
     1
 45
0.0
  0
VISUALSTYLE
  5
3A
102
{ACAD_REACTORS
330
2A
102
}
102
{ACAD_XDICTIONARY
360
60
102
}
330
2A
100
AcDbVisualStyle
  2
ColorChange
 70
    16
 71
     2
 72
     2
 73
     3
 90
        0
 40
-0.6
 41
-30.0
 62
     5
 63
     8
421
  8421504
 74
     1
 91
        4
 64
     7
 65
   257
 75
     1
175
     1
 42
1.0
 92
        8
 66
     8
424
  8421504
 43
1.0
 76
     1
 77
     6
 78
     2
 67
     7
 79
     5
170
     0
171
     0
290
     0
174
     0
 93
        1
 44
0.0
173
     0
291
     1
 45
0.0
  0
VISUALSTYLE
  5
34
102
{ACAD_REACTORS
330
2A
102
}
102
{ACAD_XDICTIONARY
360
54
102
}
330
2A
100
AcDbVisualStyle
  2
Conceptual
 70
     9
 71
     3
 72
     2
 73
     0
 90
        0
 40
-0.6
 41
-30.0
 62
     5
 63
     7
421
 16777215
 74
     2
 91
        2
 64
     7
 65
   257
 75
     1
175
     1
 42
40.0
 92
        8
 66
     7
 43
1.0
 76
     1
 77
     6
 78
     2
 67
     7
 79
     3
170
     0
171
     0
290
     0
174
     0
 93
        1
 44
0.0
173
     0
291
     0
 45
0.0
  0
VISUALSTYLE
  5
35
102
{ACAD_REACTORS
330
2A
102
}
102
{ACAD_XDICTIONARY
360
56
102
}
330
2A
100
AcDbVisualStyle
  2
Dim
 70
    11
 71
     2
 72
     2
 73
     0
 90
        0
 40
-0.6
 41
-30.0
 62
     5
 63
     7
421
 16777215
 74
     1
 91
        4
 64
     7
 65
   257
 75
     1
175
     1
 42
1.0
 92
        8
 66
     7
 43
1.0
 76
     1
 77
     6
 78
     2
 67
     7
 79
     5
170
     0
171
     0
290
     0
174
     0
 93
        1
 44
-50.0
173
     0
291
     1
 45
0.0
  0
VISUALSTYLE
  5
39
102
{ACAD_REACTORS
330
2A
102
}
102
{ACAD_XDICTIONARY
360
5E
102
}
330
2A
100
AcDbVisualStyle
  2
Facepattern
 70
    15
 71
     2
 72
     2
 73
     0
 90
        0
 40
-0.6
 41
-30.0
 62
     5
 63
     7
421
 16777215
 74
     1
 91
        4
 64
     7
 65
   257
 75
     1
175
     1
 42
1.0
 92
        8
 66
     7
 43
1.0
 76
     1
 77
     6
 78
     2
 67
     7
 79
     5
170
     0
171
     0
290
     0
174
     0
 93
        1
 44
0.0
173
     0
291
     1
 45
0.0
  0
VISUALSTYLE
  5
2B
102
{ACAD_REACTORS
330
2A
102
}
102
{ACAD_XDICTIONARY
360
42
102
}
330
2A
100
AcDbVisualStyle
  2
Flat
 70
     0
 71
     2
 72
     1
 73
     1
 90
        2
 40
-0.6
 41
30.0
 62
     5
 63
     7
421
 16777215
 74
     0
 91
        4
 64
     7
 65
   257
 75
     1
175
     1
 42
1.0
 92
        8
 66
     7
 43
1.0
 76
     1
 77
     6
 78
     2
 67
     7
 79
     5
170
     0
171
     0
290
     0
174
     0
 93
       13
 44
0.0
173
     0
291
     1
 45
0.0
  0
VISUALSTYLE
  5
2C
102
{ACAD_REACTORS
330
2A
102
}
102
{ACAD_XDICTIONARY
360
44
102
}
330
2A
100
AcDbVisualStyle
  2
FlatWithEdges
 70
     1
 71
     2
 72
     1
 73
     1
 90
        2
 40
-0.6
 41
30.0
 62
     5
 63
     7
421
 16777215
 74
     1
 91
        4
 64
     7
 65
   257
 75
     1
175
     1
 42
1.0
 92
        0
 66
   257
 43
1.0
 76
     1
 77
     6
 78
     2
 67
     7
 79
     5
170
     0
171
     0
290
     0
174
     0
 93
       13
 44
0.0
173
     0
291
     1
 45
0.0
  0
VISUALSTYLE
  5
2D
102
{ACAD_REACTORS
330
2A
102
}
102
{ACAD_XDICTIONARY
360
46
102
}
330
2A
100
AcDbVisualStyle
  2
Gouraud
 70
     2
 71
     2
 72
     2
 73
     1
 90
        2
 40
-0.6
 41
30.0
 62
     5
 63
     7
421
 16777215
 74
     0
 91
        4
 64
     7
 65
   257
 75
     1
175
     1
 42
1.0
 92
        0
 66
     7
 43
1.0
 76
     1
 77
     6
 78
     2
 67
     7
 79
     5
170
     0
171
     0
290
     0
174
     0
 93
       13
 44
0.0
173
     0
291
     1
 45
0.0
  0
VISUALSTYLE
  5
2E
102
{ACAD_REACTORS
330
2A
102
}
102
{ACAD_XDICTIONARY
360
48
102
}
330
2A
100
AcDbVisualStyle
  2
GouraudWithEdges
 70
     3
 71
     2
 72
     2
 73
     1
 90
        2
 40
-0.6
 41
30.0
 62
     5
 63
     7
421
 16777215
 74
     1
 91
        4
 64
     7
 65
   257
 75
     1
175
     1
 42
1.0
 92
        0
 66
   257
 43
1.0
 76
     1
 77
     6
 78
     2
 67
     7
 79
     5
170
     0
171
     0
290
     0
174
     0
 93
       13
 44
0.0
173
     0
291
     1
 45
0.0
  0
VISUALSTYLE
  5
38
102
{ACAD_REACTORS
330
2A
102
}
102
{ACAD_XDICTIONARY
360
5C
102
}
330
2A
100
AcDbVisualStyle
  2
Linepattern
 70
    14
 71
     2
 72
     2
 73
     0
 90
        0
 40
-0.6
 41
-30.0
 62
     5
 63
     7
421
 16777215
 74
     1
 91
        4
 64
     7
 65
   257
 75
     7
175
     7
 42
1.0
 92
        8
 66
     7
 43
1.0
 76
     1
 77
     6
 78
     2
 67
     7
 79
     5
170
     0
171
     0
290
     0
174
     0
 93
        1
 44
0.0
173
     0
291
     1
 45
0.0
  0
VISUALSTYLE
  5
33
102
{ACAD_REACTORS
330
2A
102
}
102
{ACAD_XDICTIONARY
360
52
102
}
330
2A
100
AcDbVisualStyle
  2
Realistic
 70
     8
 71
     2
 72
     2
 73
     0
 90
        0
 40
-0.6
 41
-30.0
 62
     5
 63
     7
421
 16777215
 74
     1
 91
        0
 64
     7
 65
   257
 75
     1
175
     1
 42
1.0
 92
        8
 66
     8
424
  7895160
 43
1.0
 76
     1
 77
     6
 78
     2
 67
     7
 79
     5
170
     0
171
     0
290
     0
174
     0
 93
       13
 44
0.0
173
     0
291
     0
 45
0.0
  0
VISUALSTYLE
  5
37
102
{ACAD_REACTORS
330
2A
102
}
102
{ACAD_XDICTIONARY
360
5A
102
}
330
2A
100
AcDbVisualStyle
  2
Thicken
 70
    13
 71
     2
 72
     2
 73
     0
 90
        0
 40
-0.6
 41
-30.0
 62
     5
 63
     7
421
 16777215
 74
     1
 91
        4
 64
     7
 65
   257
 75
     1
175
     1
 42
1.0
 92
       12
 66
     7
 43
1.0
 76
     1
 77
     6
 78
     2
 67
     7
 79
     5
170
     0
171
     0
290
     0
174
     0
 93
        1
 44
0.0
173
     0
291
     1
 45
0.0
  0
DICTIONARY
  5
4A
330
2F
100
AcDbDictionary
280
     1
281
     1
  3
ACAD_XREC_ROUNDTRIP
360
4B
  0
DICTIONARY
  5
4E
330
31
100
AcDbDictionary
280
     1
281
     1
  3
ACAD_XREC_ROUNDTRIP
360
4F
  0
DICTIONARY
  5
4C
330
30
100
AcDbDictionary
280
     1
281
     1
  3
ACAD_XREC_ROUNDTRIP
360
4D
  0
DICTIONARY
  5
50
330
32
100
AcDbDictionary
280
     1
281
     1
  3
ACAD_XREC_ROUNDTRIP
360
51
  0
DICTIONARY
  5
58
330
36
100
AcDbDictionary
280
     1
281
     1
  3
ACAD_XREC_ROUNDTRIP
360
59
  0
DICTIONARY
  5
60
330
3A
100
AcDbDictionary
280
     1
281
     1
  3
ACAD_XREC_ROUNDTRIP
360
61
  0
DICTIONARY
  5
54
330
34
100
AcDbDictionary
280
     1
281
     1
  3
ACAD_XREC_ROUNDTRIP
360
55
  0
DICTIONARY
  5
56
330
35
100
AcDbDictionary
280
     1
281
     1
  3
ACAD_XREC_ROUNDTRIP
360
57
  0
DICTIONARY
  5
5E
330
39
100
AcDbDictionary
280
     1
281
     1
  3
ACAD_XREC_ROUNDTRIP
360
5F
  0
DICTIONARY
  5
42
330
2B
100
AcDbDictionary
280
     1
281
     1
  3
ACAD_XREC_ROUNDTRIP
360
43
  0
DICTIONARY
  5
44
330
2C
100
AcDbDictionary
280
     1
281
     1
  3
ACAD_XREC_ROUNDTRIP
360
45
  0
DICTIONARY
  5
46
330
2D
100
AcDbDictionary
280
     1
281
     1
  3
ACAD_XREC_ROUNDTRIP
360
47
  0
DICTIONARY
  5
48
330
2E
100
AcDbDictionary
280
     1
281
     1
  3
ACAD_XREC_ROUNDTRIP
360
49
  0
DICTIONARY
  5
5C
330
38
100
AcDbDictionary
280
     1
281
     1
  3
ACAD_XREC_ROUNDTRIP
360
5D
  0
DICTIONARY
  5
52
330
33
100
AcDbDictionary
280
     1
281
     1
  3
ACAD_XREC_ROUNDTRIP
360
53
  0
DICTIONARY
  5
5A
330
37
100
AcDbDictionary
280
     1
281
     1
  3
ACAD_XREC_ROUNDTRIP
360
5B
  0
XRECORD
  5
4B
102
{ACAD_REACTORS
330
4A
102
}
330
4A
100
AcDbXrecord
280
     1
102
RTVSPropertyOp0
 70
     1
102
RTVSPropertyOp1
 70
     1
102
RTVSPropertyOp2
 70
     1
102
RTVSPropertyOp3
 70
     1
102
RTVSPropertyOp4
 70
     1
102
RTVSPropertyOp5
 70
     1
102
RTVSPropertyOp6
 70
     1
102
RTVSPropertyOp7
 70
     1
102
RTVSPropertyOp8
 70
     1
102
RTVSPropertyOp9
 70
     1
102
RTVSPropertyOp10
 70
     1
102
RTVSPropertyOp11
 70
     1
102
RTVSPropertyOp12
 70
     1
102
RTVSPropertyOp13
 70
     1
102
RTVSPropertyOp14
 70
     1
102
RTVSPropertyOp15
 70
     1
102
RTVSPropertyOp16
 70
     1
102
RTVSPropertyOp17
 70
     1
102
RTVSPropertyOp18
 70
     1
102
RTVSPropertyOp19
 70
     1
102
RTVSPropertyOp20
 70
     1
102
RTVSPropertyOp21
 70
     1
102
RTVSPropertyOp22
 70
     1
102
RTVSPropertyOp23
 70
     1
102
RTVSPropertyOp24
 70
     1
102
RTVSPropertyOp25
 70
     1
102
RTVSPropertyOp26
 70
     1
102
RTVSPropertyOp27
 70
     1
102
RTVSPropertyOp28
 70
     1
102
RTVSPropertyOp29
 70
     1
102
RTVSPropertyOp30
 70
     1
102
RTVSPropertyOp31
 70
     1
102
RTVSPropertyOp32
 70
     1
  0
XRECORD
  5
4F
102
{ACAD_REACTORS
330
4E
102
}
330
4E
100
AcDbXrecord
280
     1
102
RTVSPropertyOp0
 70
     1
102
RTVSPropertyOp1
 70
     1
102
RTVSPropertyOp2
 70
     1
102
RTVSPropertyOp3
 70
     1
102
RTVSPropertyOp4
 70
     1
102
RTVSPropertyOp5
 70
     1
102
RTVSPropertyOp6
 70
     1
102
RTVSPropertyOp7
 70
     1
102
RTVSPropertyOp8
 70
     1
102
RTVSPropertyOp9
 70
     1
102
RTVSPropertyOp10
 70
     1
102
RTVSPropertyOp11
 70
     1
102
RTVSPropertyOp12
 70
     1
102
RTVSPropertyOp13
 70
     1
102
RTVSPropertyOp14
 70
     1
102
RTVSPropertyOp15
 70
     1
102
RTVSPropertyOp16
 70
     1
102
RTVSPropertyOp17
 70
     1
102
RTVSPropertyOp18
 70
     1
102
RTVSPropertyOp19
 70
     1
102
RTVSPropertyOp20
 70
     1
102
RTVSPropertyOp21
 70
     1
102
RTVSPropertyOp22
 70
     1
102
RTVSPropertyOp23
 70
     1
102
RTVSPropertyOp24
 70
     1
102
RTVSPropertyOp25
 70
     1
102
RTVSPropertyOp26
 70
     1
102
RTVSPropertyOp27
 70
     1
102
RTVSPropertyOp28
 70
     1
102
RTVSPropertyOp29
 70
     1
102
RTVSPropertyOp30
 70
     1
102
RTVSPropertyOp31
 70
     1
102
RTVSPropertyOp32
 70
     1
  0
XRECORD
  5
4D
102
{ACAD_REACTORS
330
4C
102
}
330
4C
100
AcDbXrecord
280
     1
102
RTVSPropertyOp0
 70
     1
102
RTVSPropertyOp1
 70
     1
102
RTVSPropertyOp2
 70
     1
102
RTVSPropertyOp3
 70
     1
102
RTVSPropertyOp4
 70
     1
102
RTVSPropertyOp5
 70
     1
102
RTVSPropertyOp6
 70
     1
102
RTVSPropertyOp7
 70
     1
102
RTVSPropertyOp8
 70
     1
102
RTVSPropertyOp9
 70
     1
102
RTVSPropertyOp10
 70
     1
102
RTVSPropertyOp11
 70
     1
102
RTVSPropertyOp12
 70
     1
102
RTVSPropertyOp13
 70
     1
102
RTVSPropertyOp14
 70
     1
102
RTVSPropertyOp15
 70
     1
102
RTVSPropertyOp16
 70
     1
102
RTVSPropertyOp17
 70
     1
102
RTVSPropertyOp18
 70
     1
102
RTVSPropertyOp19
 70
     1
102
RTVSPropertyOp20
 70
     1
102
RTVSPropertyOp21
 70
     1
102
RTVSPropertyOp22
 70
     1
102
RTVSPropertyOp23
 70
     1
102
RTVSPropertyOp24
 70
     1
102
RTVSPropertyOp25
 70
     1
102
RTVSPropertyOp26
 70
     1
102
RTVSPropertyOp27
 70
     1
102
RTVSPropertyOp28
 70
     1
102
RTVSPropertyOp29
 70
     1
102
RTVSPropertyOp30
 70
     1
102
RTVSPropertyOp31
 70
     1
102
RTVSPropertyOp32
 70
     1
  0
XRECORD
  5
51
102
{ACAD_REACTORS
330
50
102
}
330
50
100
AcDbXrecord
280
     1
102
RTVSPropertyOp0
 70
     1
102
RTVSPropertyOp1
 70
     1
102
RTVSPropertyOp2
 70
     1
102
RTVSPropertyOp3
 70
     1
102
RTVSPropertyOp4
 70
     1
102
RTVSPropertyOp5
 70
     1
102
RTVSPropertyOp6
 70
     1
102
RTVSPropertyOp7
 70
     1
102
RTVSPropertyOp8
 70
     1
102
RTVSPropertyOp9
 70
     1
102
RTVSPropertyOp10
 70
     1
102
RTVSPropertyOp11
 70
     1
102
RTVSPropertyOp12
 70
     1
102
RTVSPropertyOp13
 70
     1
102
RTVSPropertyOp14
 70
     1
102
RTVSPropertyOp15
 70
     1
102
RTVSPropertyOp16
 70
     1
102
RTVSPropertyOp17
 70
     1
102
RTVSPropertyOp18
 70
     1
102
RTVSPropertyOp19
 70
     1
102
RTVSPropertyOp20
 70
     1
102
RTVSPropertyOp21
 70
     1
102
RTVSPropertyOp22
 70
     1
102
RTVSPropertyOp23
 70
     1
102
RTVSPropertyOp24
 70
     1
102
RTVSPropertyOp25
 70
     1
102
RTVSPropertyOp26
 70
     1
102
RTVSPropertyOp27
 70
     1
102
RTVSPropertyOp28
 70
     1
102
RTVSPropertyOp29
 70
     1
102
RTVSPropertyOp30
 70
     1
102
RTVSPropertyOp31
 70
     1
102
RTVSPropertyOp32
 70
     1
  0
XRECORD
  5
59
102
{ACAD_REACTORS
330
58
102
}
330
58
100
AcDbXrecord
280
     1
102
RTVSPropertyOp0
 70
     1
102
RTVSPropertyOp1
 70
     1
102
RTVSPropertyOp2
 70
     1
102
RTVSPropertyOp3
 70
     1
102
RTVSPropertyOp4
 70
     1
102
RTVSPropertyOp5
 70
     1
102
RTVSPropertyOp6
 70
     1
102
RTVSPropertyOp7
 70
     1
102
RTVSPropertyOp8
 70
     1
102
RTVSPropertyOp9
 70
     1
102
RTVSPropertyOp10
 70
     1
102
RTVSPropertyOp11
 70
     1
102
RTVSPropertyOp12
 70
     1
102
RTVSPropertyOp13
 70
     1
102
RTVSPropertyOp14
 70
     1
102
RTVSPropertyOp15
 70
     1
102
RTVSPropertyOp16
 70
     1
102
RTVSPropertyOp17
 70
     1
102
RTVSPropertyOp18
 70
     1
102
RTVSPropertyOp19
 70
     1
102
RTVSPropertyOp20
 70
     1
102
RTVSPropertyOp21
 70
     1
102
RTVSPropertyOp22
 70
     1
102
RTVSPropertyOp23
 70
     1
102
RTVSPropertyOp24
 70
     1
102
RTVSPropertyOp25
 70
     1
102
RTVSPropertyOp26
 70
     1
102
RTVSPropertyOp27
 70
     1
102
RTVSPropertyOp28
 70
     1
102
RTVSPropertyOp29
 70
     1
102
RTVSPropertyOp30
 70
     1
102
RTVSPropertyOp31
 70
     1
102
RTVSPropertyOp32
 70
     1
  0
XRECORD
  5
61
102
{ACAD_REACTORS
330
60
102
}
330
60
100
AcDbXrecord
280
     1
102
RTVSPropertyOp0
 70
     1
102
RTVSPropertyOp1
 70
     1
102
RTVSPropertyOp2
 70
     1
102
RTVSPropertyOp3
 70
     1
102
RTVSPropertyOp4
 70
     1
102
RTVSPropertyOp5
 70
     1
102
RTVSPropertyOp6
 70
     1
102
RTVSPropertyOp7
 70
     1
102
RTVSPropertyOp8
 70
     1
102
RTVSPropertyOp9
 70
     1
102
RTVSPropertyOp10
 70
     1
102
RTVSPropertyOp11
 70
     1
102
RTVSPropertyOp12
 70
     1
102
RTVSPropertyOp13
 70
     1
102
RTVSPropertyOp14
 70
     1
102
RTVSPropertyOp15
 70
     1
102
RTVSPropertyOp16
 70
     1
102
RTVSPropertyOp17
 70
     1
102
RTVSPropertyOp18
 70
     1
102
RTVSPropertyOp19
 70
     1
102
RTVSPropertyOp20
 70
     1
102
RTVSPropertyOp21
 70
     1
102
RTVSPropertyOp22
 70
     1
102
RTVSPropertyOp23
 70
     1
102
RTVSPropertyOp24
 70
     1
102
RTVSPropertyOp25
 70
     1
102
RTVSPropertyOp26
 70
     1
102
RTVSPropertyOp27
 70
     1
102
RTVSPropertyOp28
 70
     1
102
RTVSPropertyOp29
 70
     1
102
RTVSPropertyOp30
 70
     1
102
RTVSPropertyOp31
 70
     1
102
RTVSPropertyOp32
 70
     1
  0
XRECORD
  5
55
102
{ACAD_REACTORS
330
54
102
}
330
54
100
AcDbXrecord
280
     1
102
RTVSPropertyOp0
 70
     1
102
RTVSPropertyOp1
 70
     1
102
RTVSPropertyOp2
 70
     1
102
RTVSPropertyOp3
 70
     1
102
RTVSPropertyOp4
 70
     1
102
RTVSPropertyOp5
 70
     1
102
RTVSPropertyOp6
 70
     1
102
RTVSPropertyOp7
 70
     1
102
RTVSPropertyOp8
 70
     1
102
RTVSPropertyOp9
 70
     1
102
RTVSPropertyOp10
 70
     1
102
RTVSPropertyOp11
 70
     1
102
RTVSPropertyOp12
 70
     1
102
RTVSPropertyOp13
 70
     1
102
RTVSPropertyOp14
 70
     1
102
RTVSPropertyOp15
 70
     1
102
RTVSPropertyOp16
 70
     1
102
RTVSPropertyOp17
 70
     1
102
RTVSPropertyOp18
 70
     1
102
RTVSPropertyOp19
 70
     1
102
RTVSPropertyOp20
 70
     1
102
RTVSPropertyOp21
 70
     1
102
RTVSPropertyOp22
 70
     1
102
RTVSPropertyOp23
 70
     1
102
RTVSPropertyOp24
 70
     1
102
RTVSPropertyOp25
 70
     1
102
RTVSPropertyOp26
 70
     1
102
RTVSPropertyOp27
 70
     1
102
RTVSPropertyOp28
 70
     1
102
RTVSPropertyOp29
 70
     1
102
RTVSPropertyOp30
 70
     1
102
RTVSPropertyOp31
 70
     1
102
RTVSPropertyOp32
 70
     1
  0
XRECORD
  5
57
102
{ACAD_REACTORS
330
56
102
}
330
56
100
AcDbXrecord
280
     1
102
RTVSPropertyOp0
 70
     1
102
RTVSPropertyOp1
 70
     1
102
RTVSPropertyOp2
 70
     1
102
RTVSPropertyOp3
 70
     1
102
RTVSPropertyOp4
 70
     1
102
RTVSPropertyOp5
 70
     1
102
RTVSPropertyOp6
 70
     1
102
RTVSPropertyOp7
 70
     1
102
RTVSPropertyOp8
 70
     1
102
RTVSPropertyOp9
 70
     1
102
RTVSPropertyOp10
 70
     1
102
RTVSPropertyOp11
 70
     1
102
RTVSPropertyOp12
 70
     1
102
RTVSPropertyOp13
 70
     1
102
RTVSPropertyOp14
 70
     1
102
RTVSPropertyOp15
 70
     1
102
RTVSPropertyOp16
 70
     1
102
RTVSPropertyOp17
 70
     1
102
RTVSPropertyOp18
 70
     1
102
RTVSPropertyOp19
 70
     1
102
RTVSPropertyOp20
 70
     1
102
RTVSPropertyOp21
 70
     1
102
RTVSPropertyOp22
 70
     1
102
RTVSPropertyOp23
 70
     1
102
RTVSPropertyOp24
 70
     1
102
RTVSPropertyOp25
 70
     1
102
RTVSPropertyOp26
 70
     1
102
RTVSPropertyOp27
 70
     1
102
RTVSPropertyOp28
 70
     1
102
RTVSPropertyOp29
 70
     1
102
RTVSPropertyOp30
 70
     1
102
RTVSPropertyOp31
 70
     1
102
RTVSPropertyOp32
 70
     1
  0
XRECORD
  5
5F
102
{ACAD_REACTORS
330
5E
102
}
330
5E
100
AcDbXrecord
280
     1
102
RTVSPropertyOp0
 70
     1
102
RTVSPropertyOp1
 70
     1
102
RTVSPropertyOp2
 70
     1
102
RTVSPropertyOp3
 70
     1
102
RTVSPropertyOp4
 70
     1
102
RTVSPropertyOp5
 70
     1
102
RTVSPropertyOp6
 70
     1
102
RTVSPropertyOp7
 70
     1
102
RTVSPropertyOp8
 70
     1
102
RTVSPropertyOp9
 70
     1
102
RTVSPropertyOp10
 70
     1
102
RTVSPropertyOp11
 70
     1
102
RTVSPropertyOp12
 70
     1
102
RTVSPropertyOp13
 70
     1
102
RTVSPropertyOp14
 70
     1
102
RTVSPropertyOp15
 70
     1
102
RTVSPropertyOp16
 70
     1
102
RTVSPropertyOp17
 70
     1
102
RTVSPropertyOp18
 70
     1
102
RTVSPropertyOp19
 70
     1
102
RTVSPropertyOp20
 70
     1
102
RTVSPropertyOp21
 70
     1
102
RTVSPropertyOp22
 70
     1
102
RTVSPropertyOp23
 70
     1
102
RTVSPropertyOp24
 70
     1
102
RTVSPropertyOp25
 70
     1
102
RTVSPropertyOp26
 70
     1
102
RTVSPropertyOp27
 70
     1
102
RTVSPropertyOp28
 70
     1
102
RTVSPropertyOp29
 70
     1
102
RTVSPropertyOp30
 70
     1
102
RTVSPropertyOp31
 70
     1
102
RTVSPropertyOp32
 70
     1
  0
XRECORD
  5
43
102
{ACAD_REACTORS
330
42
102
}
330
42
100
AcDbXrecord
280
     1
102
RTVSPropertyOp0
 70
     1
102
RTVSPropertyOp1
 70
     1
102
RTVSPropertyOp2
 70
     1
102
RTVSPropertyOp3
 70
     1
102
RTVSPropertyOp4
 70
     1
102
RTVSPropertyOp5
 70
     1
102
RTVSPropertyOp6
 70
     1
102
RTVSPropertyOp7
 70
     1
102
RTVSPropertyOp8
 70
     1
102
RTVSPropertyOp9
 70
     1
102
RTVSPropertyOp10
 70
     1
102
RTVSPropertyOp11
 70
     1
102
RTVSPropertyOp12
 70
     1
102
RTVSPropertyOp13
 70
     1
102
RTVSPropertyOp14
 70
     1
102
RTVSPropertyOp15
 70
     1
102
RTVSPropertyOp16
 70
     1
102
RTVSPropertyOp17
 70
     1
102
RTVSPropertyOp18
 70
     1
102
RTVSPropertyOp19
 70
     1
102
RTVSPropertyOp20
 70
     1
102
RTVSPropertyOp21
 70
     1
102
RTVSPropertyOp22
 70
     1
102
RTVSPropertyOp23
 70
     1
102
RTVSPropertyOp24
 70
     1
102
RTVSPropertyOp25
 70
     1
102
RTVSPropertyOp26
 70
     1
102
RTVSPropertyOp27
 70
     1
102
RTVSPropertyOp28
 70
     1
102
RTVSPropertyOp29
 70
     1
102
RTVSPropertyOp30
 70
     1
102
RTVSPropertyOp31
 70
     1
102
RTVSPropertyOp32
 70
     1
  0
XRECORD
  5
45
102
{ACAD_REACTORS
330
44
102
}
330
44
100
AcDbXrecord
280
     1
102
RTVSPropertyOp0
 70
     1
102
RTVSPropertyOp1
 70
     1
102
RTVSPropertyOp2
 70
     1
102
RTVSPropertyOp3
 70
     1
102
RTVSPropertyOp4
 70
     1
102
RTVSPropertyOp5
 70
     1
102
RTVSPropertyOp6
 70
     1
102
RTVSPropertyOp7
 70
     1
102
RTVSPropertyOp8
 70
     1
102
RTVSPropertyOp9
 70
     1
102
RTVSPropertyOp10
 70
     1
102
RTVSPropertyOp11
 70
     1
102
RTVSPropertyOp12
 70
     1
102
RTVSPropertyOp13
 70
     1
102
RTVSPropertyOp14
 70
     1
102
RTVSPropertyOp15
 70
     1
102
RTVSPropertyOp16
 70
     1
102
RTVSPropertyOp17
 70
     1
102
RTVSPropertyOp18
 70
     1
102
RTVSPropertyOp19
 70
     1
102
RTVSPropertyOp20
 70
     1
102
RTVSPropertyOp21
 70
     1
102
RTVSPropertyOp22
 70
     1
102
RTVSPropertyOp23
 70
     1
102
RTVSPropertyOp24
 70
     1
102
RTVSPropertyOp25
 70
     1
102
RTVSPropertyOp26
 70
     1
102
RTVSPropertyOp27
 70
     1
102
RTVSPropertyOp28
 70
     1
102
RTVSPropertyOp29
 70
     1
102
RTVSPropertyOp30
 70
     1
102
RTVSPropertyOp31
 70
     1
102
RTVSPropertyOp32
 70
     1
  0
XRECORD
  5
47
102
{ACAD_REACTORS
330
46
102
}
330
46
100
AcDbXrecord
280
     1
102
RTVSPropertyOp0
 70
     1
102
RTVSPropertyOp1
 70
     1
102
RTVSPropertyOp2
 70
     1
102
RTVSPropertyOp3
 70
     1
102
RTVSPropertyOp4
 70
     1
102
RTVSPropertyOp5
 70
     1
102
RTVSPropertyOp6
 70
     1
102
RTVSPropertyOp7
 70
     1
102
RTVSPropertyOp8
 70
     1
102
RTVSPropertyOp9
 70
     1
102
RTVSPropertyOp10
 70
     1
102
RTVSPropertyOp11
 70
     1
102
RTVSPropertyOp12
 70
     1
102
RTVSPropertyOp13
 70
     1
102
RTVSPropertyOp14
 70
     1
102
RTVSPropertyOp15
 70
     1
102
RTVSPropertyOp16
 70
     1
102
RTVSPropertyOp17
 70
     1
102
RTVSPropertyOp18
 70
     1
102
RTVSPropertyOp19
 70
     1
102
RTVSPropertyOp20
 70
     1
102
RTVSPropertyOp21
 70
     1
102
RTVSPropertyOp22
 70
     1
102
RTVSPropertyOp23
 70
     1
102
RTVSPropertyOp24
 70
     1
102
RTVSPropertyOp25
 70
     1
102
RTVSPropertyOp26
 70
     1
102
RTVSPropertyOp27
 70
     1
102
RTVSPropertyOp28
 70
     1
102
RTVSPropertyOp29
 70
     1
102
RTVSPropertyOp30
 70
     1
102
RTVSPropertyOp31
 70
     1
102
RTVSPropertyOp32
 70
     1
  0
XRECORD
  5
49
102
{ACAD_REACTORS
330
48
102
}
330
48
100
AcDbXrecord
280
     1
102
RTVSPropertyOp0
 70
     1
102
RTVSPropertyOp1
 70
     1
102
RTVSPropertyOp2
 70
     1
102
RTVSPropertyOp3
 70
     1
102
RTVSPropertyOp4
 70
     1
102
RTVSPropertyOp5
 70
     1
102
RTVSPropertyOp6
 70
     1
102
RTVSPropertyOp7
 70
     1
102
RTVSPropertyOp8
 70
     1
102
RTVSPropertyOp9
 70
     1
102
RTVSPropertyOp10
 70
     1
102
RTVSPropertyOp11
 70
     1
102
RTVSPropertyOp12
 70
     1
102
RTVSPropertyOp13
 70
     1
102
RTVSPropertyOp14
 70
     1
102
RTVSPropertyOp15
 70
     1
102
RTVSPropertyOp16
 70
     1
102
RTVSPropertyOp17
 70
     1
102
RTVSPropertyOp18
 70
     1
102
RTVSPropertyOp19
 70
     1
102
RTVSPropertyOp20
 70
     1
102
RTVSPropertyOp21
 70
     1
102
RTVSPropertyOp22
 70
     1
102
RTVSPropertyOp23
 70
     1
102
RTVSPropertyOp24
 70
     1
102
RTVSPropertyOp25
 70
     1
102
RTVSPropertyOp26
 70
     1
102
RTVSPropertyOp27
 70
     1
102
RTVSPropertyOp28
 70
     1
102
RTVSPropertyOp29
 70
     1
102
RTVSPropertyOp30
 70
     1
102
RTVSPropertyOp31
 70
     1
102
RTVSPropertyOp32
 70
     1
  0
XRECORD
  5
5D
102
{ACAD_REACTORS
330
5C
102
}
330
5C
100
AcDbXrecord
280
     1
102
RTVSPropertyOp0
 70
     1
102
RTVSPropertyOp1
 70
     1
102
RTVSPropertyOp2
 70
     1
102
RTVSPropertyOp3
 70
     1
102
RTVSPropertyOp4
 70
     1
102
RTVSPropertyOp5
 70
     1
102
RTVSPropertyOp6
 70
     1
102
RTVSPropertyOp7
 70
     1
102
RTVSPropertyOp8
 70
     1
102
RTVSPropertyOp9
 70
     1
102
RTVSPropertyOp10
 70
     1
102
RTVSPropertyOp11
 70
     1
102
RTVSPropertyOp12
 70
     1
102
RTVSPropertyOp13
 70
     1
102
RTVSPropertyOp14
 70
     1
102
RTVSPropertyOp15
 70
     1
102
RTVSPropertyOp16
 70
     1
102
RTVSPropertyOp17
 70
     1
102
RTVSPropertyOp18
 70
     1
102
RTVSPropertyOp19
 70
     1
102
RTVSPropertyOp20
 70
     1
102
RTVSPropertyOp21
 70
     1
102
RTVSPropertyOp22
 70
     1
102
RTVSPropertyOp23
 70
     1
102
RTVSPropertyOp24
 70
     1
102
RTVSPropertyOp25
 70
     1
102
RTVSPropertyOp26
 70
     1
102
RTVSPropertyOp27
 70
     1
102
RTVSPropertyOp28
 70
     1
102
RTVSPropertyOp29
 70
     1
102
RTVSPropertyOp30
 70
     1
102
RTVSPropertyOp31
 70
     1
102
RTVSPropertyOp32
 70
     1
  0
XRECORD
  5
53
102
{ACAD_REACTORS
330
52
102
}
330
52
100
AcDbXrecord
280
     1
102
RTVSPropertyOp0
 70
     1
102
RTVSPropertyOp1
 70
     1
102
RTVSPropertyOp2
 70
     1
102
RTVSPropertyOp3
 70
     1
102
RTVSPropertyOp4
 70
     1
102
RTVSPropertyOp5
 70
     1
102
RTVSPropertyOp6
 70
     1
102
RTVSPropertyOp7
 70
     1
102
RTVSPropertyOp8
 70
     1
102
RTVSPropertyOp9
 70
     1
102
RTVSPropertyOp10
 70
     1
102
RTVSPropertyOp11
 70
     1
102
RTVSPropertyOp12
 70
     1
102
RTVSPropertyOp13
 70
     1
102
RTVSPropertyOp14
 70
     1
102
RTVSPropertyOp15
 70
     1
102
RTVSPropertyOp16
 70
     1
102
RTVSPropertyOp17
 70
     1
102
RTVSPropertyOp18
 70
     1
102
RTVSPropertyOp19
 70
     1
102
RTVSPropertyOp20
 70
     1
102
RTVSPropertyOp21
 70
     1
102
RTVSPropertyOp22
 70
     1
102
RTVSPropertyOp23
 70
     1
102
RTVSPropertyOp24
 70
     1
102
RTVSPropertyOp25
 70
     1
102
RTVSPropertyOp26
 70
     1
102
RTVSPropertyOp27
 70
     1
102
RTVSPropertyOp28
 70
     1
102
RTVSPropertyOp29
 70
     1
102
RTVSPropertyOp30
 70
     1
102
RTVSPropertyOp31
 70
     1
102
RTVSPropertyOp32
 70
     1
  0
XRECORD
  5
5B
102
{ACAD_REACTORS
330
5A
102
}
330
5A
100
AcDbXrecord
280
     1
102
RTVSPropertyOp0
 70
     1
102
RTVSPropertyOp1
 70
     1
102
RTVSPropertyOp2
 70
     1
102
RTVSPropertyOp3
 70
     1
102
RTVSPropertyOp4
 70
     1
102
RTVSPropertyOp5
 70
     1
102
RTVSPropertyOp6
 70
     1
102
RTVSPropertyOp7
 70
     1
102
RTVSPropertyOp8
 70
     1
102
RTVSPropertyOp9
 70
     1
102
RTVSPropertyOp10
 70
     1
102
RTVSPropertyOp11
 70
     1
102
RTVSPropertyOp12
 70
     1
102
RTVSPropertyOp13
 70
     1
102
RTVSPropertyOp14
 70
     1
102
RTVSPropertyOp15
 70
     1
102
RTVSPropertyOp16
 70
     1
102
RTVSPropertyOp17
 70
     1
102
RTVSPropertyOp18
 70
     1
102
RTVSPropertyOp19
 70
     1
102
RTVSPropertyOp20
 70
     1
102
RTVSPropertyOp21
 70
     1
102
RTVSPropertyOp22
 70
     1
102
RTVSPropertyOp23
 70
     1
102
RTVSPropertyOp24
 70
     1
102
RTVSPropertyOp25
 70
     1
102
RTVSPropertyOp26
 70
     1
102
RTVSPropertyOp27
 70
     1
102
RTVSPropertyOp28
 70
     1
102
RTVSPropertyOp29
 70
     1
102
RTVSPropertyOp30
 70
     1
102
RTVSPropertyOp31
 70
     1
102
RTVSPropertyOp32
 70
     1
  0
ENDSEC
  0
EOF
