  0
SECTION
  2
HEADER
  9
$ACADVER
  1
AC1021
  9
$ACADMAINTVER
 70
    25
  9
$DWGCODEPAGE
  3
ANSI_1252
  9
$INSBASE
 10
0.0
 20
0.0
 30
0.0
  9
$EXTMIN
 10
-9.55593
 20
-7.8161
 30
0.0
  9
$EXTMAX
 10
9.55593
 20
7.81599
 30
0.0
  9
$LIMMIN
 10
0.0
 20
0.0
  9
$LIMMAX
 10
12.0
 20
9.0
  9
$ORTHOMODE
 70
     0
  9
$REGENMODE
 70
     1
  9
$FILLMODE
 70
     1
  9
$QTEXTMODE
 70
     0
  9
$MIRRTEXT
 70
     1
  9
$LTSCALE
 40
1.0
  9
$ATTMODE
 70
     1
  9
$TEXTSIZE
 40
0.2
  9
$TRACEWID
 40
0.05
  9
$TEXTSTYLE
  7
Standard
  9
$CLAYER
  8
0
  9
$CELTYPE
  6
ByLayer
  9
$CECOLOR
 62
   256
  9
$CELTSCALE
 40
1.0
  9
$DISPSILH
 70
     0
  9
$DIMSCALE
 40
1.0
  9
$DIMASZ
 40
0.18
  9
$DIMEXO
 40
0.0625
  9
$DIMDLI
 40
0.38
  9
$DIMRND
 40
0.0
  9
$DIMDLE
 40
0.0
  9
$DIMEXE
 40
0.18
  9
$DIMTP
 40
0.0
  9
$DIMTM
 40
0.0
  9
$DIMTXT
 40
0.18
  9
$DIMCEN
 40
0.09
  9
$DIMTSZ
 40
0.0
  9
$DIMTOL
 70
     0
  9
$DIMLIM
 70
     0
  9
$DIMTIH
 70
     1
  9
$DIMTOH
 70
     1
  9
$DIMSE1
 70
     0
  9
$DIMSE2
 70
     0
  9
$DIMTAD
 70
     0
  9
$DIMZIN
 70
     0
  9
$DIMBLK
  1

  9
$DIMASO
 70
     1
  9
$DIMSHO
 70
     1
  9
$DIMPOST
  1

  9
$DIMAPOST
  1

  9
$DIMALT
 70
     0
  9
$DIMALTD
 70
     2
  9
$DIMALTF
 40
25.4
  9
$DIMLFAC
 40
1.0
  9
$DIMTOFL
 70
     0
  9
$DIMTVP
 40
0.0
  9
$DIMTIX
 70
     0
  9
$DIMSOXD
 70
     0
  9
$DIMSAH
 70
     0
  9
$DIMBLK1
  1

  9
$DIMBLK2
  1

  9
$DIMSTYLE
  2
Standard
  9
$DIMCLRD
 70
     0
  9
$DIMCLRE
 70
     0
  9
$DIMCLRT
 70
     0
  9
$DIMTFAC
 40
1.0
  9
$DIMGAP
 40
0.09
  9
$DIMJUST
 70
     0
  9
$DIMSD1
 70
     0
  9
$DIMSD2
 70
     0
  9
$DIMTOLJ
 70
     1
  9
$DIMTZIN
 70
     0
  9
$DIMALTZ
 70
     0
  9
$DIMALTTZ
 70
     0
  9
$DIMUPT
 70
     0
  9
$DIMDEC
 70
     4
  9
$DIMTDEC
 70
     4
  9
$DIMALTU
 70
     2
  9
$DIMALTTD
 70
     2
  9
$DIMTXSTY
  7
Standard
  9
$DIMAUNIT
 70
     0
  9
$DIMADEC
 70
     0
  9
$DIMALTRND
 40
0.0
  9
$DIMAZIN
 70
     0
  9
$DIMDSEP
 70
    46
  9
$DIMATFIT
 70
     3
  9
$DIMFRAC
 70
     0
  9
$DIMLDRBLK
  1

  9
$DIMLUNIT
 70
     2
  9
$DIMLWD
 70
    -2
  9
$DIMLWE
 70
    -2
  9
$DIMTMOVE
 70
     0
  9
$DIMFXL
 40
1.0
  9
$DIMFXLON
 70
     0
  9
$DIMJOGANG
 40
0.7853981633974483
  9
$DIMTFILL
 70
     0
  9
$DIMTFILLCLR
 70
     0
  9
$DIMARCSYM
 70
     0
  9
$DIMLTYPE
  6

  9
$DIMLTEX1
  6

  9
$DIMLTEX2
  6

  9
$LUNITS
 70
     2
  9
$LUPREC
 70
     4
  9
$SKETCHINC
 40
0.1
  9
$FILLETRAD
 40
0.5
  9
$AUNITS
 70
     0
  9
$AUPREC
 70
     0
  9
$MENU
  1
.
  9
$ELEVATION
 40
0.0
  9
$PELEVATION
 40
0.0
  9
$THICKNESS
 40
0.0
  9
$LIMCHECK
 70
     0
  9
$CHAMFERA
 40
0.5
  9
$CHAMFERB
 40
0.5
  9
$CHAMFERC
 40
1.0
  9
$CHAMFERD
 40
0.0
  9
$SKPOLY
 70
     0
  9
$TDCREATE
 40
2456878.332463044
  9
$TDUCREATE
 40
2456878.457463044
  9
$TDUPDATE
 40
2456878.332463298
  9
$TDUUPDATE
 40
2456878.457463298
  9
$TDINDWG
 40
0.0000000116
  9
$TDUSRTIMER
 40
0.0000000116
  9
$USRTIMER
 70
     1
  9
$ANGBASE
 50
0.0
  9
$ANGDIR
 70
     0
  9
$PDMODE
 70
     0
  9
$PDSIZE
 40
0.0
  9
$PLINEWID
 40
0.0
  9
$SPLFRAME
 70
     0
  9
$SPLINETYPE
 70
     6
  9
$SPLINESEGS
 70
     8
  9
$HANDSEED
  5
6A
  9
$SURFTAB1
 70
     6
  9
$SURFTAB2
 70
     6
  9
$SURFTYPE
 70
     6
  9
$SURFU
 70
     6
  9
$SURFV
 70
     6
  9
$UCSBASE
  2

  9
$UCSNAME
  2

  9
$UCSORG
 10
0.0
 20
0.0
 30
0.0
  9
$UCSXDIR
 10
1.0
 20
0.0
 30
0.0
  9
$UCSYDIR
 10
0.0
 20
1.0
 30
0.0
  9
$UCSORTHOREF
  2

  9
$UCSORTHOVIEW
 70
     0
  9
$UCSORGTOP
 10
0.0
 20
0.0
 30
0.0
  9
$UCSORGBOTTOM
 10
0.0
 20
0.0
 30
0.0
  9
$UCSORGLEFT
 10
0.0
 20
0.0
 30
0.0
  9
$UCSORGRIGHT
 10
0.0
 20
0.0
 30
0.0
  9
$UCSORGFRONT
 10
0.0
 20
0.0
 30
0.0
  9
$UCSORGBACK
 10
0.0
 20
0.0
 30
0.0
  9
$PUCSBASE
  2

  9
$PUCSNAME
  2

  9
$PUCSORG
 10
0.0
 20
0.0
 30
0.0
  9
$PUCSXDIR
 10
1.0
 20
0.0
 30
0.0
  9
$PUCSYDIR
 10
0.0
 20
1.0
 30
0.0
  9
$PUCSORTHOREF
  2

  9
$PUCSORTHOVIEW
 70
     0
  9
$PUCSORGTOP
 10
0.0
 20
0.0
 30
0.0
  9
$PUCSORGBOTTOM
 10
0.0
 20
0.0
 30
0.0
  9
$PUCSORGLEFT
 10
0.0
 20
0.0
 30
0.0
  9
$PUCSORGRIGHT
 10
0.0
 20
0.0
 30
0.0
  9
$PUCSORGFRONT
 10
0.0
 20
0.0
 30
0.0
  9
$PUCSORGBACK
 10
0.0
 20
0.0
 30
0.0
  9
$USERI1
 70
     0
  9
$USERI2
 70
     0
  9
$USERI3
 70
     0
  9
$USERI4
 70
     0
  9
$USERI5
 70
     0
  9
$USERR1
 40
0.0
  9
$USERR2
 40
0.0
  9
$USERR3
 40
0.0
  9
$USERR4
 40
0.0
  9
$USERR5
 40
0.0
  9
$WORLDVIEW
 70
     1
  9
$SHADEDGE
 70
     3
  9
$SHADEDIF
 70
    70
  9
$TILEMODE
 70
     1
  9
$MAXACTVP
 70
    64
  9
$PINSBASE
 10
0.0
 20
0.0
 30
0.0
  9
$PLIMCHECK
 70
     0
  9
$PEXTMIN
 10
1.000000000000000E+20
 20
1.000000000000000E+20
 30
1.000000000000000E+20
  9
$PEXTMAX
 10
-1.000000000000000E+20
 20
-1.000000000000000E+20
 30
-1.000000000000000E+20
  9
$PLIMMIN
 10
0.0
 20
0.0
  9
$PLIMMAX
 10
12.0
 20
9.0
  9
$UNITMODE
 70
     0
  9
$VISRETAIN
 70
     1
  9
$PLINEGEN
 70
     0
  9
$PSLTSCALE
 70
     1
  9
$TREEDEPTH
 70
  3020
  9
$CMLSTYLE
  2
Standard
  9
$CMLJUST
 70
     0
  9
$CMLSCALE
 40
1.0
  9
$PROXYGRAPHICS
 70
     1
  9
$MEASUREMENT
 70
     0
  9
$CELWEIGHT
370
    -1
  9
$ENDCAPS
280
     0
  9
$JOINSTYLE
280
     0
  9
$LWDISPLAY
290
     0
  9
$INSUNITS
 70
     5
  9
$HYPERLINKBASE
  1

  9
$STYLESHEET
  1

  9
$XEDIT
290
     1
  9
$CEPSNTYPE
380
     0
  9
$PSTYLEMODE
290
     1
  9
$FINGERPRINTGUID
  2
{9B3AA085-95A1-42C9-8E93-AAD0C8D1FEC6}
  9
$VERSIONGUID
  2
{FAEB1C32-E019-11D5-929B-00C0DF256EC4}
  9
$EXTNAMES
290
     1
  9
$PSVPSCALE
 40
0.0
  9
$OLESTARTUP
290
     0
  9
$SORTENTS
280
   127
  9
$INDEXCTL
280
     0
  9
$HIDETEXT
280
     1
  9
$XCLIPFRAME
290
     0
  9
$HALOGAP
280
     0
  9
$OBSCOLOR
 70
   257
  9
$OBSLTYPE
280
     0
  9
$INTERSECTIONDISPLAY
280
     0
  9
$INTERSECTIONCOLOR
 70
   257
  9
$DIMASSOC
280
     2
  9
$PROJECTNAME
  1

  9
$CAMERADISPLAY
290
     0
  9
$LENSLENGTH
 40
50.0
  9
$CAMERAHEIGHT
 40
0.0
  9
$STEPSPERSEC
 40
2.0
  9
$STEPSIZE
 40
6.0
  9
$3DDWFPREC
 40
2.0
  9
$PSOLWIDTH
 40
0.25
  9
$PSOLHEIGHT
 40
4.0
  9
$LOFTANG1
 40
1.570796326794897
  9
$LOFTANG2
 40
1.570796326794897
  9
$LOFTMAG1
 40
0.0
  9
$LOFTMAG2
 40
0.0
  9
$LOFTPARAM
 70
     7
  9
$LOFTNORMALS
280
     1
  9
$LATITUDE
 40
37.795
  9
$LONGITUDE
 40
-122.394
  9
$NORTHDIRECTION
 40
0.0
  9
$TIMEZONE
 70
 -8000
  9
$LIGHTGLYPHDISPLAY
280
     1
  9
$TILEMODELIGHTSYNCH
280
     1
  9
$SOLIDHIST
280
     1
  9
$SHOWHIST
280
     1
  9
$DWFFRAME
280
     2
  9
$DGNFRAME
280
     2
  9
$REALWORLDSCALE
290
     1
  9
$INTERFERECOLOR
 62
   256
  9
$CSHADOW
280
     0
  9
$SHADOWPLANELOCATION
 40
0.0
  0
ENDSEC
  0
SECTION
  2
CLASSES
  0
CLASS
  1
ACDBDICTIONARYWDFLT
  2
AcDbDictionaryWithDefault
  3
ObjectDBX Classes
 90
        0
 91
        4
280
     0
281
     0
  0
CLASS
  1
VISUALSTYLE
  2
AcDbVisualStyle
  3
ObjectDBX Classes
 90
     4095
 91
        4
280
     0
281
     0
  0
CLASS
  1
MATERIAL
  2
AcDbMaterial
  3
ObjectDBX Classes
 90
     1153
 91
        4
280
     0
281
     0
  0
ENDSEC
  0
SECTION
  2
TABLES
  0
TABLE
  2
VPORT
  5
8
330
0
100
AcDbSymbolTable
 70
     1
  0
VPORT
  5
29
330
8
100
AcDbSymbolTableRecord
100
AcDbViewportTableRecord
  2
*Active
 70
     0
 10
0.0
 20
0.0
 11
1.0
 21
1.0
 12
10.42990654205607
 22
4.5
 13
0.0
 23
0.0
 14
0.5
 24
0.5
 15
0.5
 25
0.5
 16
0.0
 26
0.0
 36
1.0
 17
0.0
 27
0.0
 37
0.0
 40
9.0
 41
1.972972972850329
 42
50.0
 43
0.0
 44
0.0
 50
0.0
 51
0.0
 71
     0
 72
   100
 73
     1
 74
     3
 75
     0
 76
     0
 77
     0
 78
     0
281
     0
 65
     1
110
0.0
120
0.0
130
0.0
111
1.0
121
0.0
131
0.0
112
0.0
122
1.0
132
0.0
 79
     0
146
0.0
 60
     3
 61
     5
292
     1
282
     1
141
0.0
142
0.0
 63
   250
  0
ENDTAB
  0
TABLE
  2
LTYPE
  5
5
330
0
100
AcDbSymbolTable
 70
     1
  0
LTYPE
  5
14
330
5
100
AcDbSymbolTableRecord
100
AcDbLinetypeTableRecord
  2
ByBlock
 70
     0
  3

 72
    65
 73
     0
 40
0.0
  0
LTYPE
  5
15
330
5
100
AcDbSymbolTableRecord
100
AcDbLinetypeTableRecord
  2
ByLayer
 70
     0
  3

 72
    65
 73
     0
 40
0.0
  0
LTYPE
  5
16
330
5
100
AcDbSymbolTableRecord
100
AcDbLinetypeTableRecord
  2
Continuous
 70
     0
  3
Solid line
 72
    65
 73
     0
 40
0.0
  0
ENDTAB
  0
TABLE
  2
LAYER
  5
2
330
0
100
AcDbSymbolTable
 70
     2
  0
LAYER
  5
10
330
2
100
AcDbSymbolTableRecord
100
AcDbLayerTableRecord
  2
0
 70
     0
 62
     7
  6
Continuous
370
    -3
390
F
347
3E
  0
LAYER
  5
40
330
2
100
AcDbSymbolTableRecord
100
AcDbLayerTableRecord
  2
Camada 1
 70
     0
 62
     7
  6
Continuous
370
    -3
390
F
347
3E
  0
ENDTAB
  0
TABLE
  2
STYLE
  5
3
330
0
100
AcDbSymbolTable
 70
     1
  0
STYLE
  5
11
330
3
100
AcDbSymbolTableRecord
100
AcDbTextStyleTableRecord
  2
Standard
 70
     0
 40
0.0
 41
1.0
 50
0.0
 71
     0
 42
0.2
  3
txt
  4

  0
ENDTAB
  0
TABLE
  2
VIEW
  5
6
330
0
100
AcDbSymbolTable
 70
     0
  0
ENDTAB
  0
TABLE
  2
UCS
  5
7
330
0
100
AcDbSymbolTable
 70
     0
  0
ENDTAB
  0
TABLE
  2
APPID
  5
9
330
0
100
AcDbSymbolTable
 70
     2
  0
APPID
  5
12
330
9
100
AcDbSymbolTableRecord
100
AcDbRegAppTableRecord
  2
ACAD
 70
     0
  0
APPID
  5
3F
330
9
100
AcDbSymbolTableRecord
100
AcDbRegAppTableRecord
  2
ODA
 70
     0
  0
ENDTAB
  0
TABLE
  2
DIMSTYLE
  5
A
330
0
100
AcDbSymbolTable
 70
     1
100
AcDbDimStyleTable
  0
DIMSTYLE
105
27
330
A
100
AcDbSymbolTableRecord
100
AcDbDimStyleTableRecord
  2
Standard
 70
     0
178
     0
340
11
  0
ENDTAB
  0
TABLE
  2
BLOCK_RECORD
  5
1
330
0
100
AcDbSymbolTable
 70
     1
  0
BLOCK_RECORD
  5
1F
330
1
100
AcDbSymbolTableRecord
100
AcDbBlockTableRecord
  2
*Model_Space
340
22
 70
     0
280
     1
281
     0
  0
BLOCK_RECORD
  5
1B
330
1
100
AcDbSymbolTableRecord
100
AcDbBlockTableRecord
  2
*Paper_Space
340
1E
 70
     0
280
     1
281
     0
  0
BLOCK_RECORD
  5
23
330
1
100
AcDbSymbolTableRecord
100
AcDbBlockTableRecord
  2
*Paper_Space0
340
26
 70
     0
280
     1
281
     0
  0
ENDTAB
  0
ENDSEC
  0
SECTION
  2
BLOCKS
  0
BLOCK
  5
20
330
1F
100
AcDbEntity
  8
0
100
AcDbBlockBegin
  2
*Model_Space
 70
     0
 10
0.0
 20
0.0
 30
0.0
  3
*Model_Space
  1

  0
ENDBLK
  5
21
330
1F
100
AcDbEntity
  8
0
100
AcDbBlockEnd
  0
BLOCK
  5
1C
330
1B
100
AcDbEntity
 67
     1
  8
0
100
AcDbBlockBegin
  2
*Paper_Space
 70
     0
 10
0.0
 20
0.0
 30
0.0
  3
*Paper_Space
  1

  0
ENDBLK
  5
1D
330
1B
100
AcDbEntity
 67
     1
  8
0
100
AcDbBlockEnd
  0
BLOCK
  5
24
330
23
100
AcDbEntity
  8
0
100
AcDbBlockBegin
  2
*Paper_Space0
 70
     0
 10
0.0
 20
0.0
 30
0.0
  3
*Paper_Space0
  1

  0
ENDBLK
  5
25
330
23
100
AcDbEntity
  8
0
100
AcDbBlockEnd
  0
ENDSEC
  0
SECTION
  2
ENTITIES
  0
SPLINE
  5
41
330
1F
100
AcDbEntity
  8
Camada 1
100
AcDbSpline
210
0.0
220
0.0
230
1.0
 70
    11
 71
     3
 72
  2456
 73
  2452
 74
     0
 42
0.0000000001
 43
0.0000000001
 12
1.0
 22
0.0
 32
0.0
 13
1.0
 23
0.0
 33
0.0
 40
0.0
 40
0.0
 40
0.0
 40
0.0
 40
0.001628664495114
 40
0.001628664495114
 40
0.001628664495114
 40
0.001628664495114
 40
0.003257328990228
 40
0.003257328990228
 40
0.003257328990228
 40
0.003257328990228
 40
0.004885993485342
 40
0.004885993485342
 40
0.004885993485342
 40
0.004885993485342
 40
0.006514657980456
 40
0.006514657980456
 40
0.006514657980456
 40
0.006514657980456
 40
0.00814332247557
 40
0.00814332247557
 40
0.00814332247557
 40
0.00814332247557
 40
0.009771986970684
 40
0.009771986970684
 40
0.009771986970684
 40
0.009771986970684
 40
0.011400651465798
 40
0.011400651465798
 40
0.011400651465798
 40
0.011400651465798
 40
0.0130293159609121
 40
0.0130293159609121
 40
0.0130293159609121
 40
0.0130293159609121
 40
0.0146579804560261
 40
0.0146579804560261
 40
0.0146579804560261
 40
0.0146579804560261
 40
0.0162866449511401
 40
0.0162866449511401
 40
0.0162866449511401
 40
0.0162866449511401
 40
0.0179153094462541
 40
0.0179153094462541
 40
0.0179153094462541
 40
0.0179153094462541
 40
0.0195439739413681
 40
0.0195439739413681
 40
0.0195439739413681
 40
0.0195439739413681
 40
0.0211726384364821
 40
0.0211726384364821
 40
0.0211726384364821
 40
0.0211726384364821
 40
0.0228013029315961
 40
0.0228013029315961
 40
0.0228013029315961
 40
0.0228013029315961
 40
0.0244299674267101
 40
0.0244299674267101
 40
0.0244299674267101
 40
0.0244299674267101
 40
0.0260586319218241
 40
0.0260586319218241
 40
0.0260586319218241
 40
0.0260586319218241
 40
0.0276872964169381
 40
0.0276872964169381
 40
0.0276872964169381
 40
0.0276872964169381
 40
0.0293159609120521
 40
0.0293159609120521
 40
0.0293159609120521
 40
0.0293159609120521
 40
0.0309446254071661
 40
0.0309446254071661
 40
0.0309446254071661
 40
0.0309446254071661
 40
0.0325732899022801
 40
0.0325732899022801
 40
0.0325732899022801
 40
0.0325732899022801
 40
0.0342019543973941
 40
0.0342019543973941
 40
0.0342019543973941
 40
0.0342019543973941
 40
0.0358306188925081
 40
0.0358306188925081
 40
0.0358306188925081
 40
0.0358306188925081
 40
0.0374592833876222
 40
0.0374592833876222
 40
0.0374592833876222
 40
0.0374592833876222
 40
0.0390879478827362
 40
0.0390879478827362
 40
0.0390879478827362
 40
0.0390879478827362
 40
0.0407166123778502
 40
0.0407166123778502
 40
0.0407166123778502
 40
0.0407166123778502
 40
0.0423452768729642
 40
0.0423452768729642
 40
0.0423452768729642
 40
0.0423452768729642
 40
0.0439739413680782
 40
0.0439739413680782
 40
0.0439739413680782
 40
0.0439739413680782
 40
0.0456026058631922
 40
0.0456026058631922
 40
0.0456026058631922
 40
0.0456026058631922
 40
0.0472312703583062
 40
0.0472312703583062
 40
0.0472312703583062
 40
0.0472312703583062
 40
0.0488599348534202
 40
0.0488599348534202
 40
0.0488599348534202
 40
0.0488599348534202
 40
0.0504885993485342
 40
0.0504885993485342
 40
0.0504885993485342
 40
0.0504885993485342
 40
0.0521172638436482
 40
0.0521172638436482
 40
0.0521172638436482
 40
0.0521172638436482
 40
0.0537459283387622
 40
0.0537459283387622
 40
0.0537459283387622
 40
0.0537459283387622
 40
0.0553745928338762
 40
0.0553745928338762
 40
0.0553745928338762
 40
0.0553745928338762
 40
0.0570032573289902
 40
0.0570032573289902
 40
0.0570032573289902
 40
0.0570032573289902
 40
0.0586319218241042
 40
0.0586319218241042
 40
0.0586319218241042
 40
0.0586319218241042
 40
0.0602605863192182
 40
0.0602605863192182
 40
0.0602605863192182
 40
0.0602605863192182
 40
0.0618892508143322
 40
0.0618892508143322
 40
0.0618892508143322
 40
0.0618892508143322
 40
0.0635179153094463
 40
0.0635179153094463
 40
0.0635179153094463
 40
0.0635179153094463
 40
0.0651465798045603
 40
0.0651465798045603
 40
0.0651465798045603
 40
0.0651465798045603
 40
0.0667752442996743
 40
0.0667752442996743
 40
0.0667752442996743
 40
0.0667752442996743
 40
0.0684039087947883
 40
0.0684039087947883
 40
0.0684039087947883
 40
0.0684039087947883
 40
0.0700325732899023
 40
0.0700325732899023
 40
0.0700325732899023
 40
0.0700325732899023
 40
0.0716612377850163
 40
0.0716612377850163
 40
0.0716612377850163
 40
0.0716612377850163
 40
0.0732899022801303
 40
0.0732899022801303
 40
0.0732899022801303
 40
0.0732899022801303
 40
0.0749185667752443
 40
0.0749185667752443
 40
0.0749185667752443
 40
0.0749185667752443
 40
0.0765472312703583
 40
0.0765472312703583
 40
0.0765472312703583
 40
0.0765472312703583
 40
0.0781758957654723
 40
0.0781758957654723
 40
0.0781758957654723
 40
0.0781758957654723
 40
0.0798045602605863
 40
0.0798045602605863
 40
0.0798045602605863
 40
0.0798045602605863
 40
0.0814332247557003
 40
0.0814332247557003
 40
0.0814332247557003
 40
0.0814332247557003
 40
0.0830618892508143
 40
0.0830618892508143
 40
0.0830618892508143
 40
0.0830618892508143
 40
0.0846905537459283
 40
0.0846905537459283
 40
0.0846905537459283
 40
0.0846905537459283
 40
0.0863192182410423
 40
0.0863192182410423
 40
0.0863192182410423
 40
0.0863192182410423
 40
0.0879478827361563
 40
0.0879478827361563
 40
0.0879478827361563
 40
0.0879478827361563
 40
0.0895765472312704
 40
0.0895765472312704
 40
0.0895765472312704
 40
0.0895765472312704
 40
0.0912052117263844
 40
0.0912052117263844
 40
0.0912052117263844
 40
0.0912052117263844
 40
0.0928338762214984
 40
0.0928338762214984
 40
0.0928338762214984
 40
0.0928338762214984
 40
0.0944625407166124
 40
0.0944625407166124
 40
0.0944625407166124
 40
0.0944625407166124
 40
0.0960912052117264
 40
0.0960912052117264
 40
0.0960912052117264
 40
0.0960912052117264
 40
0.0977198697068404
 40
0.0977198697068404
 40
0.0977198697068404
 40
0.0977198697068404
 40
0.0993485342019544
 40
0.0993485342019544
 40
0.0993485342019544
 40
0.0993485342019544
 40
0.1009771986970684
 40
0.1009771986970684
 40
0.1009771986970684
 40
0.1009771986970684
 40
0.1026058631921824
 40
0.1026058631921824
 40
0.1026058631921824
 40
0.1026058631921824
 40
0.1042345276872964
 40
0.1042345276872964
 40
0.1042345276872964
 40
0.1042345276872964
 40
0.1058631921824104
 40
0.1058631921824104
 40
0.1058631921824104
 40
0.1058631921824104
 40
0.1074918566775244
 40
0.1074918566775244
 40
0.1074918566775244
 40
0.1074918566775244
 40
0.1091205211726384
 40
0.1091205211726384
 40
0.1091205211726384
 40
0.1091205211726384
 40
0.1107491856677524
 40
0.1107491856677524
 40
0.1107491856677524
 40
0.1107491856677524
 40
0.1123778501628664
 40
0.1123778501628664
 40
0.1123778501628664
 40
0.1123778501628664
 40
0.1140065146579805
 40
0.1140065146579805
 40
0.1140065146579805
 40
0.1140065146579805
 40
0.1156351791530945
 40
0.1156351791530945
 40
0.1156351791530945
 40
0.1156351791530945
 40
0.1172638436482085
 40
0.1172638436482085
 40
0.1172638436482085
 40
0.1172638436482085
 40
0.1188925081433225
 40
0.1188925081433225
 40
0.1188925081433225
 40
0.1188925081433225
 40
0.1205211726384365
 40
0.1205211726384365
 40
0.1205211726384365
 40
0.1205211726384365
 40
0.1221498371335505
 40
0.1221498371335505
 40
0.1221498371335505
 40
0.1221498371335505
 40
0.1237785016286645
 40
0.1237785016286645
 40
0.1237785016286645
 40
0.1237785016286645
 40
0.1254071661237785
 40
0.1254071661237785
 40
0.1254071661237785
 40
0.1254071661237785
 40
0.1270358306188925
 40
0.1270358306188925
 40
0.1270358306188925
 40
0.1270358306188925
 40
0.1286644951140065
 40
0.1286644951140065
 40
0.1286644951140065
 40
0.1286644951140065
 40
0.1302931596091205
 40
0.1302931596091205
 40
0.1302931596091205
 40
0.1302931596091205
 40
0.1319218241042345
 40
0.1319218241042345
 40
0.1319218241042345
 40
0.1319218241042345
 40
0.1335504885993485
 40
0.1335504885993485
 40
0.1335504885993485
 40
0.1335504885993485
 40
0.1351791530944625
 40
0.1351791530944625
 40
0.1351791530944625
 40
0.1351791530944625
 40
0.1368078175895766
 40
0.1368078175895766
 40
0.1368078175895766
 40
0.1368078175895766
 40
0.1384364820846906
 40
0.1384364820846906
 40
0.1384364820846906
 40
0.1384364820846906
 40
0.1400651465798046
 40
0.1400651465798046
 40
0.1400651465798046
 40
0.1400651465798046
 40
0.1416938110749186
 40
0.1416938110749186
 40
0.1416938110749186
 40
0.1416938110749186
 40
0.1433224755700326
 40
0.1433224755700326
 40
0.1433224755700326
 40
0.1433224755700326
 40
0.1449511400651466
 40
0.1449511400651466
 40
0.1449511400651466
 40
0.1449511400651466
 40
0.1465798045602606
 40
0.1465798045602606
 40
0.1465798045602606
 40
0.1465798045602606
 40
0.1482084690553746
 40
0.1482084690553746
 40
0.1482084690553746
 40
0.1482084690553746
 40
0.1498371335504886
 40
0.1498371335504886
 40
0.1498371335504886
 40
0.1498371335504886
 40
0.1514657980456026
 40
0.1514657980456026
 40
0.1514657980456026
 40
0.1514657980456026
 40
0.1530944625407166
 40
0.1530944625407166
 40
0.1530944625407166
 40
0.1530944625407166
 40
0.1547231270358306
 40
0.1547231270358306
 40
0.1547231270358306
 40
0.1547231270358306
 40
0.1563517915309446
 40
0.1563517915309446
 40
0.1563517915309446
 40
0.1563517915309446
 40
0.1579804560260586
 40
0.1579804560260586
 40
0.1579804560260586
 40
0.1579804560260586
 40
0.1596091205211726
 40
0.1596091205211726
 40
0.1596091205211726
 40
0.1596091205211726
 40
0.1612377850162866
 40
0.1612377850162866
 40
0.1612377850162866
 40
0.1612377850162866
 40
0.1628664495114006
 40
0.1628664495114006
 40
0.1628664495114006
 40
0.1628664495114006
 40
0.1644951140065146
 40
0.1644951140065146
 40
0.1644951140065146
 40
0.1644951140065146
 40
0.1661237785016287
 40
0.1661237785016287
 40
0.1661237785016287
 40
0.1661237785016287
 40
0.1677524429967427
 40
0.1677524429967427
 40
0.1677524429967427
 40
0.1677524429967427
 40
0.1693811074918567
 40
0.1693811074918567
 40
0.1693811074918567
 40
0.1693811074918567
 40
0.1710097719869707
 40
0.1710097719869707
 40
0.1710097719869707
 40
0.1710097719869707
 40
0.1726384364820847
 40
0.1726384364820847
 40
0.1726384364820847
 40
0.1726384364820847
 40
0.1742671009771987
 40
0.1742671009771987
 40
0.1742671009771987
 40
0.1742671009771987
 40
0.1758957654723127
 40
0.1758957654723127
 40
0.1758957654723127
 40
0.1758957654723127
 40
0.1775244299674267
 40
0.1775244299674267
 40
0.1775244299674267
 40
0.1775244299674267
 40
0.1791530944625407
 40
0.1791530944625407
 40
0.1791530944625407
 40
0.1791530944625407
 40
0.1807817589576547
 40
0.1807817589576547
 40
0.1807817589576547
 40
0.1807817589576547
 40
0.1824104234527687
 40
0.1824104234527687
 40
0.1824104234527687
 40
0.1824104234527687
 40
0.1840390879478827
 40
0.1840390879478827
 40
0.1840390879478827
 40
0.1840390879478827
 40
0.1856677524429967
 40
0.1856677524429967
 40
0.1856677524429967
 40
0.1856677524429967
 40
0.1872964169381107
 40
0.1872964169381107
 40
0.1872964169381107
 40
0.1872964169381107
 40
0.1889250814332248
 40
0.1889250814332248
 40
0.1889250814332248
 40
0.1889250814332248
 40
0.1905537459283388
 40
0.1905537459283388
 40
0.1905537459283388
 40
0.1905537459283388
 40
0.1921824104234528
 40
0.1921824104234528
 40
0.1921824104234528
 40
0.1921824104234528
 40
0.1938110749185668
 40
0.1938110749185668
 40
0.1938110749185668
 40
0.1938110749185668
 40
0.1954397394136808
 40
0.1954397394136808
 40
0.1954397394136808
 40
0.1954397394136808
 40
0.1970684039087948
 40
0.1970684039087948
 40
0.1970684039087948
 40
0.1970684039087948
 40
0.1986970684039088
 40
0.1986970684039088
 40
0.1986970684039088
 40
0.1986970684039088
 40
0.2003257328990228
 40
0.2003257328990228
 40
0.2003257328990228
 40
0.2003257328990228
 40
0.2019543973941368
 40
0.2019543973941368
 40
0.2019543973941368
 40
0.2019543973941368
 40
0.2035830618892508
 40
0.2035830618892508
 40
0.2035830618892508
 40
0.2035830618892508
 40
0.2052117263843648
 40
0.2052117263843648
 40
0.2052117263843648
 40
0.2052117263843648
 40
0.2068403908794788
 40
0.2068403908794788
 40
0.2068403908794788
 40
0.2068403908794788
 40
0.2084690553745928
 40
0.2084690553745928
 40
0.2084690553745928
 40
0.2084690553745928
 40
0.2100977198697069
 40
0.2100977198697069
 40
0.2100977198697069
 40
0.2100977198697069
 40
0.2117263843648209
 40
0.2117263843648209
 40
0.2117263843648209
 40
0.2117263843648209
 40
0.2133550488599349
 40
0.2133550488599349
 40
0.2133550488599349
 40
0.2133550488599349
 40
0.2149837133550489
 40
0.2149837133550489
 40
0.2149837133550489
 40
0.2149837133550489
 40
0.2166123778501629
 40
0.2166123778501629
 40
0.2166123778501629
 40
0.2166123778501629
 40
0.2182410423452769
 40
0.2182410423452769
 40
0.2182410423452769
 40
0.2182410423452769
 40
0.2198697068403909
 40
0.2198697068403909
 40
0.2198697068403909
 40
0.2198697068403909
 40
0.2214983713355049
 40
0.2214983713355049
 40
0.2214983713355049
 40
0.2214983713355049
 40
0.2231270358306189
 40
0.2231270358306189
 40
0.2231270358306189
 40
0.2231270358306189
 40
0.2247557003257329
 40
0.2247557003257329
 40
0.2247557003257329
 40
0.2247557003257329
 40
0.2263843648208469
 40
0.2263843648208469
 40
0.2263843648208469
 40
0.2263843648208469
 40
0.2280130293159609
 40
0.2280130293159609
 40
0.2280130293159609
 40
0.2280130293159609
 40
0.2296416938110749
 40
0.2296416938110749
 40
0.2296416938110749
 40
0.2296416938110749
 40
0.2312703583061889
 40
0.2312703583061889
 40
0.2312703583061889
 40
0.2312703583061889
 40
0.2328990228013029
 40
0.2328990228013029
 40
0.2328990228013029
 40
0.2328990228013029
 40
0.2345276872964169
 40
0.2345276872964169
 40
0.2345276872964169
 40
0.2345276872964169
 40
0.2361563517915309
 40
0.2361563517915309
 40
0.2361563517915309
 40
0.2361563517915309
 40
0.2377850162866449
 40
0.2377850162866449
 40
0.2377850162866449
 40
0.2377850162866449
 40
0.239413680781759
 40
0.239413680781759
 40
0.239413680781759
 40
0.239413680781759
 40
0.241042345276873
 40
0.241042345276873
 40
0.241042345276873
 40
0.241042345276873
 40
0.242671009771987
 40
0.242671009771987
 40
0.242671009771987
 40
0.242671009771987
 40
0.244299674267101
 40
0.244299674267101
 40
0.244299674267101
 40
0.244299674267101
 40
0.245928338762215
 40
0.245928338762215
 40
0.245928338762215
 40
0.245928338762215
 40
0.247557003257329
 40
0.247557003257329
 40
0.247557003257329
 40
0.247557003257329
 40
0.249185667752443
 40
0.249185667752443
 40
0.249185667752443
 40
0.249185667752443
 40
0.250814332247557
 40
0.250814332247557
 40
0.250814332247557
 40
0.250814332247557
 40
0.252442996742671
 40
0.252442996742671
 40
0.252442996742671
 40
0.252442996742671
 40
0.254071661237785
 40
0.254071661237785
 40
0.254071661237785
 40
0.254071661237785
 40
0.255700325732899
 40
0.255700325732899
 40
0.255700325732899
 40
0.255700325732899
 40
0.257328990228013
 40
0.257328990228013
 40
0.257328990228013
 40
0.257328990228013
 40
0.258957654723127
 40
0.258957654723127
 40
0.258957654723127
 40
0.258957654723127
 40
0.260586319218241
 40
0.260586319218241
 40
0.260586319218241
 40
0.260586319218241
 40
0.2622149837133551
 40
0.2622149837133551
 40
0.2622149837133551
 40
0.2622149837133551
 40
0.2638436482084691
 40
0.2638436482084691
 40
0.2638436482084691
 40
0.2638436482084691
 40
0.2654723127035831
 40
0.2654723127035831
 40
0.2654723127035831
 40
0.2654723127035831
 40
0.2671009771986971
 40
0.2671009771986971
 40
0.2671009771986971
 40
0.2671009771986971
 40
0.2687296416938111
 40
0.2687296416938111
 40
0.2687296416938111
 40
0.2687296416938111
 40
0.2703583061889251
 40
0.2703583061889251
 40
0.2703583061889251
 40
0.2703583061889251
 40
0.2719869706840391
 40
0.2719869706840391
 40
0.2719869706840391
 40
0.2719869706840391
 40
0.2736156351791531
 40
0.2736156351791531
 40
0.2736156351791531
 40
0.2736156351791531
 40
0.2752442996742671
 40
0.2752442996742671
 40
0.2752442996742671
 40
0.2752442996742671
 40
0.2768729641693811
 40
0.2768729641693811
 40
0.2768729641693811
 40
0.2768729641693811
 40
0.2785016286644951
 40
0.2785016286644951
 40
0.2785016286644951
 40
0.2785016286644951
 40
0.2801302931596091
 40
0.2801302931596091
 40
0.2801302931596091
 40
0.2801302931596091
 40
0.2817589576547231
 40
0.2817589576547231
 40
0.2817589576547231
 40
0.2817589576547231
 40
0.2833876221498371
 40
0.2833876221498371
 40
0.2833876221498371
 40
0.2833876221498371
 40
0.2850162866449512
 40
0.2850162866449512
 40
0.2850162866449512
 40
0.2850162866449512
 40
0.2866449511400652
 40
0.2866449511400652
 40
0.2866449511400652
 40
0.2866449511400652
 40
0.2882736156351792
 40
0.2882736156351792
 40
0.2882736156351792
 40
0.2882736156351792
 40
0.2899022801302932
 40
0.2899022801302932
 40
0.2899022801302932
 40
0.2899022801302932
 40
0.2915309446254072
 40
0.2915309446254072
 40
0.2915309446254072
 40
0.2915309446254072
 40
0.2931596091205212
 40
0.2931596091205212
 40
0.2931596091205212
 40
0.2931596091205212
 40
0.2947882736156352
 40
0.2947882736156352
 40
0.2947882736156352
 40
0.2947882736156352
 40
0.2964169381107492
 40
0.2964169381107492
 40
0.2964169381107492
 40
0.2964169381107492
 40
0.2980456026058632
 40
0.2980456026058632
 40
0.2980456026058632
 40
0.2980456026058632
 40
0.2996742671009772
 40
0.2996742671009772
 40
0.2996742671009772
 40
0.2996742671009772
 40
0.3013029315960912
 40
0.3013029315960912
 40
0.3013029315960912
 40
0.3013029315960912
 40
0.3029315960912052
 40
0.3029315960912052
 40
0.3029315960912052
 40
0.3029315960912052
 40
0.3045602605863192
 40
0.3045602605863192
 40
0.3045602605863192
 40
0.3045602605863192
 40
0.3061889250814332
 40
0.3061889250814332
 40
0.3061889250814332
 40
0.3061889250814332
 40
0.3078175895765473
 40
0.3078175895765473
 40
0.3078175895765473
 40
0.3078175895765473
 40
0.3094462540716613
 40
0.3094462540716613
 40
0.3094462540716613
 40
0.3094462540716613
 40
0.3110749185667753
 40
0.3110749185667753
 40
0.3110749185667753
 40
0.3110749185667753
 40
0.3127035830618892
 40
0.3127035830618892
 40
0.3127035830618892
 40
0.3127035830618892
 40
0.3143322475570032
 40
0.3143322475570032
 40
0.3143322475570032
 40
0.3143322475570032
 40
0.3159609120521172
 40
0.3159609120521172
 40
0.3159609120521172
 40
0.3159609120521172
 40
0.3175895765472312
 40
0.3175895765472312
 40
0.3175895765472312
 40
0.3175895765472312
 40
0.3192182410423453
 40
0.3192182410423453
 40
0.3192182410423453
 40
0.3192182410423453
 40
0.3208469055374593
 40
0.3208469055374593
 40
0.3208469055374593
 40
0.3208469055374593
 40
0.3224755700325733
 40
0.3224755700325733
 40
0.3224755700325733
 40
0.3224755700325733
 40
0.3241042345276873
 40
0.3241042345276873
 40
0.3241042345276873
 40
0.3241042345276873
 40
0.3257328990228013
 40
0.3257328990228013
 40
0.3257328990228013
 40
0.3257328990228013
 40
0.3273615635179153
 40
0.3273615635179153
 40
0.3273615635179153
 40
0.3273615635179153
 40
0.3289902280130293
 40
0.3289902280130293
 40
0.3289902280130293
 40
0.3289902280130293
 40
0.3306188925081433
 40
0.3306188925081433
 40
0.3306188925081433
 40
0.3306188925081433
 40
0.3322475570032573
 40
0.3322475570032573
 40
0.3322475570032573
 40
0.3322475570032573
 40
0.3338762214983713
 40
0.3338762214983713
 40
0.3338762214983713
 40
0.3338762214983713
 40
0.3355048859934853
 40
0.3355048859934853
 40
0.3355048859934853
 40
0.3355048859934853
 40
0.3371335504885993
 40
0.3371335504885993
 40
0.3371335504885993
 40
0.3371335504885993
 40
0.3387622149837133
 40
0.3387622149837133
 40
0.3387622149837133
 40
0.3387622149837133
 40
0.3403908794788273
 40
0.3403908794788273
 40
0.3403908794788273
 40
0.3403908794788273
 40
0.3420195439739414
 40
0.3420195439739414
 40
0.3420195439739414
 40
0.3420195439739414
 40
0.3436482084690554
 40
0.3436482084690554
 40
0.3436482084690554
 40
0.3436482084690554
 40
0.3452768729641694
 40
0.3452768729641694
 40
0.3452768729641694
 40
0.3452768729641694
 40
0.3469055374592834
 40
0.3469055374592834
 40
0.3469055374592834
 40
0.3469055374592834
 40
0.3485342019543974
 40
0.3485342019543974
 40
0.3485342019543974
 40
0.3485342019543974
 40
0.3501628664495114
 40
0.3501628664495114
 40
0.3501628664495114
 40
0.3501628664495114
 40
0.3517915309446254
 40
0.3517915309446254
 40
0.3517915309446254
 40
0.3517915309446254
 40
0.3534201954397394
 40
0.3534201954397394
 40
0.3534201954397394
 40
0.3534201954397394
 40
0.3550488599348534
 40
0.3550488599348534
 40
0.3550488599348534
 40
0.3550488599348534
 40
0.3566775244299674
 40
0.3566775244299674
 40
0.3566775244299674
 40
0.3566775244299674
 40
0.3583061889250814
 40
0.3583061889250814
 40
0.3583061889250814
 40
0.3583061889250814
 40
0.3599348534201954
 40
0.3599348534201954
 40
0.3599348534201954
 40
0.3599348534201954
 40
0.3615635179153094
 40
0.3615635179153094
 40
0.3615635179153094
 40
0.3615635179153094
 40
0.3631921824104234
 40
0.3631921824104234
 40
0.3631921824104234
 40
0.3631921824104234
 40
0.3648208469055375
 40
0.3648208469055375
 40
0.3648208469055375
 40
0.3648208469055375
 40
0.3664495114006515
 40
0.3664495114006515
 40
0.3664495114006515
 40
0.3664495114006515
 40
0.3680781758957655
 40
0.3680781758957655
 40
0.3680781758957655
 40
0.3680781758957655
 40
0.3697068403908795
 40
0.3697068403908795
 40
0.3697068403908795
 40
0.3697068403908795
 40
0.3713355048859935
 40
0.3713355048859935
 40
0.3713355048859935
 40
0.3713355048859935
 40
0.3729641693811075
 40
0.3729641693811075
 40
0.3729641693811075
 40
0.3729641693811075
 40
0.3745928338762215
 40
0.3745928338762215
 40
0.3745928338762215
 40
0.3745928338762215
 40
0.3762214983713355
 40
0.3762214983713355
 40
0.3762214983713355
 40
0.3762214983713355
 40
0.3778501628664495
 40
0.3778501628664495
 40
0.3778501628664495
 40
0.3778501628664495
 40
0.3794788273615635
 40
0.3794788273615635
 40
0.3794788273615635
 40
0.3794788273615635
 40
0.3811074918566775
 40
0.3811074918566775
 40
0.3811074918566775
 40
0.3811074918566775
 40
0.3827361563517915
 40
0.3827361563517915
 40
0.3827361563517915
 40
0.3827361563517915
 40
0.3843648208469055
 40
0.3843648208469055
 40
0.3843648208469055
 40
0.3843648208469055
 40
0.3859934853420195
 40
0.3859934853420195
 40
0.3859934853420195
 40
0.3859934853420195
 40
0.3876221498371336
 40
0.3876221498371336
 40
0.3876221498371336
 40
0.3876221498371336
 40
0.3892508143322476
 40
0.3892508143322476
 40
0.3892508143322476
 40
0.3892508143322476
 40
0.3908794788273616
 40
0.3908794788273616
 40
0.3908794788273616
 40
0.3908794788273616
 40
0.3925081433224756
 40
0.3925081433224756
 40
0.3925081433224756
 40
0.3925081433224756
 40
0.3941368078175896
 40
0.3941368078175896
 40
0.3941368078175896
 40
0.3941368078175896
 40
0.3957654723127036
 40
0.3957654723127036
 40
0.3957654723127036
 40
0.3957654723127036
 40
0.3973941368078176
 40
0.3973941368078176
 40
0.3973941368078176
 40
0.3973941368078176
 40
0.3990228013029316
 40
0.3990228013029316
 40
0.3990228013029316
 40
0.3990228013029316
 40
0.4006514657980456
 40
0.4006514657980456
 40
0.4006514657980456
 40
0.4006514657980456
 40
0.4022801302931596
 40
0.4022801302931596
 40
0.4022801302931596
 40
0.4022801302931596
 40
0.4039087947882736
 40
0.4039087947882736
 40
0.4039087947882736
 40
0.4039087947882736
 40
0.4055374592833876
 40
0.4055374592833876
 40
0.4055374592833876
 40
0.4055374592833876
 40
0.4071661237785016
 40
0.4071661237785016
 40
0.4071661237785016
 40
0.4071661237785016
 40
0.4087947882736157
 40
0.4087947882736157
 40
0.4087947882736157
 40
0.4087947882736157
 40
0.4104234527687297
 40
0.4104234527687297
 40
0.4104234527687297
 40
0.4104234527687297
 40
0.4120521172638437
 40
0.4120521172638437
 40
0.4120521172638437
 40
0.4120521172638437
 40
0.4136807817589577
 40
0.4136807817589577
 40
0.4136807817589577
 40
0.4136807817589577
 40
0.4153094462540717
 40
0.4153094462540717
 40
0.4153094462540717
 40
0.4153094462540717
 40
0.4169381107491857
 40
0.4169381107491857
 40
0.4169381107491857
 40
0.4169381107491857
 40
0.4185667752442997
 40
0.4185667752442997
 40
0.4185667752442997
 40
0.4185667752442997
 40
0.4201954397394137
 40
0.4201954397394137
 40
0.4201954397394137
 40
0.4201954397394137
 40
0.4218241042345277
 40
0.4218241042345277
 40
0.4218241042345277
 40
0.4218241042345277
 40
0.4234527687296417
 40
0.4234527687296417
 40
0.4234527687296417
 40
0.4234527687296417
 40
0.4250814332247557
 40
0.4250814332247557
 40
0.4250814332247557
 40
0.4250814332247557
 40
0.4267100977198697
 40
0.4267100977198697
 40
0.4267100977198697
 40
0.4267100977198697
 40
0.4283387622149837
 40
0.4283387622149837
 40
0.4283387622149837
 40
0.4283387622149837
 40
0.4299674267100977
 40
0.4299674267100977
 40
0.4299674267100977
 40
0.4299674267100977
 40
0.4315960912052118
 40
0.4315960912052118
 40
0.4315960912052118
 40
0.4315960912052118
 40
0.4332247557003258
 40
0.4332247557003258
 40
0.4332247557003258
 40
0.4332247557003258
 40
0.4348534201954398
 40
0.4348534201954398
 40
0.4348534201954398
 40
0.4348534201954398
 40
0.4364820846905538
 40
0.4364820846905538
 40
0.4364820846905538
 40
0.4364820846905538
 40
0.4381107491856677
 40
0.4381107491856677
 40
0.4381107491856677
 40
0.4381107491856677
 40
0.4397394136807817
 40
0.4397394136807817
 40
0.4397394136807817
 40
0.4397394136807817
 40
0.4413680781758957
 40
0.4413680781758957
 40
0.4413680781758957
 40
0.4413680781758957
 40
0.4429967426710097
 40
0.4429967426710097
 40
0.4429967426710097
 40
0.4429967426710097
 40
0.4446254071661238
 40
0.4446254071661238
 40
0.4446254071661238
 40
0.4446254071661238
 40
0.4462540716612378
 40
0.4462540716612378
 40
0.4462540716612378
 40
0.4462540716612378
 40
0.4478827361563518
 40
0.4478827361563518
 40
0.4478827361563518
 40
0.4478827361563518
 40
0.4495114006514658
 40
0.4495114006514658
 40
0.4495114006514658
 40
0.4495114006514658
 40
0.4511400651465798
 40
0.4511400651465798
 40
0.4511400651465798
 40
0.4511400651465798
 40
0.4527687296416938
 40
0.4527687296416938
 40
0.4527687296416938
 40
0.4527687296416938
 40
0.4543973941368078
 40
0.4543973941368078
 40
0.4543973941368078
 40
0.4543973941368078
 40
0.4560260586319218
 40
0.4560260586319218
 40
0.4560260586319218
 40
0.4560260586319218
 40
0.4576547231270358
 40
0.4576547231270358
 40
0.4576547231270358
 40
0.4576547231270358
 40
0.4592833876221498
 40
0.4592833876221498
 40
0.4592833876221498
 40
0.4592833876221498
 40
0.4609120521172638
 40
0.4609120521172638
 40
0.4609120521172638
 40
0.4609120521172638
 40
0.4625407166123778
 40
0.4625407166123778
 40
0.4625407166123778
 40
0.4625407166123778
 40
0.4641693811074918
 40
0.4641693811074918
 40
0.4641693811074918
 40
0.4641693811074918
 40
0.4657980456026058
 40
0.4657980456026058
 40
0.4657980456026058
 40
0.4657980456026058
 40
0.4674267100977199
 40
0.4674267100977199
 40
0.4674267100977199
 40
0.4674267100977199
 40
0.4690553745928339
 40
0.4690553745928339
 40
0.4690553745928339
 40
0.4690553745928339
 40
0.4706840390879479
 40
0.4706840390879479
 40
0.4706840390879479
 40
0.4706840390879479
 40
0.4723127035830619
 40
0.4723127035830619
 40
0.4723127035830619
 40
0.4723127035830619
 40
0.4739413680781759
 40
0.4739413680781759
 40
0.4739413680781759
 40
0.4739413680781759
 40
0.4755700325732899
 40
0.4755700325732899
 40
0.4755700325732899
 40
0.4755700325732899
 40
0.4771986970684039
 40
0.4771986970684039
 40
0.4771986970684039
 40
0.4771986970684039
 40
0.4788273615635179
 40
0.4788273615635179
 40
0.4788273615635179
 40
0.4788273615635179
 40
0.4804560260586319
 40
0.4804560260586319
 40
0.4804560260586319
 40
0.4804560260586319
 40
0.4820846905537459
 40
0.4820846905537459
 40
0.4820846905537459
 40
0.4820846905537459
 40
0.4837133550488599
 40
0.4837133550488599
 40
0.4837133550488599
 40
0.4837133550488599
 40
0.4853420195439739
 40
0.4853420195439739
 40
0.4853420195439739
 40
0.4853420195439739
 40
0.4869706840390879
 40
0.4869706840390879
 40
0.4869706840390879
 40
0.4869706840390879
 40
0.4885993485342019
 40
0.4885993485342019
 40
0.4885993485342019
 40
0.4885993485342019
 40
0.490228013029316
 40
0.490228013029316
 40
0.490228013029316
 40
0.490228013029316
 40
0.49185667752443
 40
0.49185667752443
 40
0.49185667752443
 40
0.49185667752443
 40
0.493485342019544
 40
0.493485342019544
 40
0.493485342019544
 40
0.493485342019544
 40
0.495114006514658
 40
0.495114006514658
 40
0.495114006514658
 40
0.495114006514658
 40
0.496742671009772
 40
0.496742671009772
 40
0.496742671009772
 40
0.496742671009772
 40
0.498371335504886
 40
0.498371335504886
 40
0.498371335504886
 40
0.498371335504886
 40
0.5
 40
0.5
 40
0.5
 40
0.5
 40
0.501628664495114
 40
0.501628664495114
 40
0.501628664495114
 40
0.501628664495114
 40
0.503257328990228
 40
0.503257328990228
 40
0.503257328990228
 40
0.503257328990228
 40
0.504885993485342
 40
0.504885993485342
 40
0.504885993485342
 40
0.504885993485342
 40
0.506514657980456
 40
0.506514657980456
 40
0.506514657980456
 40
0.506514657980456
 40
0.50814332247557
 40
0.50814332247557
 40
0.50814332247557
 40
0.50814332247557
 40
0.509771986970684
 40
0.509771986970684
 40
0.509771986970684
 40
0.509771986970684
 40
0.511400651465798
 40
0.511400651465798
 40
0.511400651465798
 40
0.511400651465798
 40
0.5130293159609121
 40
0.5130293159609121
 40
0.5130293159609121
 40
0.5130293159609121
 40
0.5146579804560261
 40
0.5146579804560261
 40
0.5146579804560261
 40
0.5146579804560261
 40
0.5162866449511401
 40
0.5162866449511401
 40
0.5162866449511401
 40
0.5162866449511401
 40
0.5179153094462541
 40
0.5179153094462541
 40
0.5179153094462541
 40
0.5179153094462541
 40
0.5195439739413681
 40
0.5195439739413681
 40
0.5195439739413681
 40
0.5195439739413681
 40
0.5211726384364821
 40
0.5211726384364821
 40
0.5211726384364821
 40
0.5211726384364821
 40
0.5228013029315961
 40
0.5228013029315961
 40
0.5228013029315961
 40
0.5228013029315961
 40
0.5244299674267101
 40
0.5244299674267101
 40
0.5244299674267101
 40
0.5244299674267101
 40
0.5260586319218241
 40
0.5260586319218241
 40
0.5260586319218241
 40
0.5260586319218241
 40
0.5276872964169381
 40
0.5276872964169381
 40
0.5276872964169381
 40
0.5276872964169381
 40
0.5293159609120521
 40
0.5293159609120521
 40
0.5293159609120521
 40
0.5293159609120521
 40
0.5309446254071661
 40
0.5309446254071661
 40
0.5309446254071661
 40
0.5309446254071661
 40
0.5325732899022801
 40
0.5325732899022801
 40
0.5325732899022801
 40
0.5325732899022801
 40
0.5342019543973942
 40
0.5342019543973942
 40
0.5342019543973942
 40
0.5342019543973942
 40
0.5358306188925082
 40
0.5358306188925082
 40
0.5358306188925082
 40
0.5358306188925082
 40
0.5374592833876222
 40
0.5374592833876222
 40
0.5374592833876222
 40
0.5374592833876222
 40
0.5390879478827362
 40
0.5390879478827362
 40
0.5390879478827362
 40
0.5390879478827362
 40
0.5407166123778502
 40
0.5407166123778502
 40
0.5407166123778502
 40
0.5407166123778502
 40
0.5423452768729642
 40
0.5423452768729642
 40
0.5423452768729642
 40
0.5423452768729642
 40
0.5439739413680782
 40
0.5439739413680782
 40
0.5439739413680782
 40
0.5439739413680782
 40
0.5456026058631922
 40
0.5456026058631922
 40
0.5456026058631922
 40
0.5456026058631922
 40
0.5472312703583062
 40
0.5472312703583062
 40
0.5472312703583062
 40
0.5472312703583062
 40
0.5488599348534202
 40
0.5488599348534202
 40
0.5488599348534202
 40
0.5488599348534202
 40
0.5504885993485342
 40
0.5504885993485342
 40
0.5504885993485342
 40
0.5504885993485342
 40
0.5521172638436482
 40
0.5521172638436482
 40
0.5521172638436482
 40
0.5521172638436482
 40
0.5537459283387622
 40
0.5537459283387622
 40
0.5537459283387622
 40
0.5537459283387622
 40
0.5553745928338762
 40
0.5553745928338762
 40
0.5553745928338762
 40
0.5553745928338762
 40
0.5570032573289903
 40
0.5570032573289903
 40
0.5570032573289903
 40
0.5570032573289903
 40
0.5586319218241043
 40
0.5586319218241043
 40
0.5586319218241043
 40
0.5586319218241043
 40
0.5602605863192183
 40
0.5602605863192183
 40
0.5602605863192183
 40
0.5602605863192183
 40
0.5618892508143323
 40
0.5618892508143323
 40
0.5618892508143323
 40
0.5618892508143323
 40
0.5635179153094463
 40
0.5635179153094463
 40
0.5635179153094463
 40
0.5635179153094463
 40
0.5651465798045603
 40
0.5651465798045603
 40
0.5651465798045603
 40
0.5651465798045603
 40
0.5667752442996743
 40
0.5667752442996743
 40
0.5667752442996743
 40
0.5667752442996743
 40
0.5684039087947883
 40
0.5684039087947883
 40
0.5684039087947883
 40
0.5684039087947883
 40
0.5700325732899023
 40
0.5700325732899023
 40
0.5700325732899023
 40
0.5700325732899023
 40
0.5716612377850163
 40
0.5716612377850163
 40
0.5716612377850163
 40
0.5716612377850163
 40
0.5732899022801303
 40
0.5732899022801303
 40
0.5732899022801303
 40
0.5732899022801303
 40
0.5749185667752443
 40
0.5749185667752443
 40
0.5749185667752443
 40
0.5749185667752443
 40
0.5765472312703583
 40
0.5765472312703583
 40
0.5765472312703583
 40
0.5765472312703583
 40
0.5781758957654723
 40
0.5781758957654723
 40
0.5781758957654723
 40
0.5781758957654723
 40
0.5798045602605864
 40
0.5798045602605864
 40
0.5798045602605864
 40
0.5798045602605864
 40
0.5814332247557004
 40
0.5814332247557004
 40
0.5814332247557004
 40
0.5814332247557004
 40
0.5830618892508144
 40
0.5830618892508144
 40
0.5830618892508144
 40
0.5830618892508144
 40
0.5846905537459284
 40
0.5846905537459284
 40
0.5846905537459284
 40
0.5846905537459284
 40
0.5863192182410424
 40
0.5863192182410424
 40
0.5863192182410424
 40
0.5863192182410424
 40
0.5879478827361564
 40
0.5879478827361564
 40
0.5879478827361564
 40
0.5879478827361564
 40
0.5895765472312704
 40
0.5895765472312704
 40
0.5895765472312704
 40
0.5895765472312704
 40
0.5912052117263844
 40
0.5912052117263844
 40
0.5912052117263844
 40
0.5912052117263844
 40
0.5928338762214984
 40
0.5928338762214984
 40
0.5928338762214984
 40
0.5928338762214984
 40
0.5944625407166124
 40
0.5944625407166124
 40
0.5944625407166124
 40
0.5944625407166124
 40
0.5960912052117264
 40
0.5960912052117264
 40
0.5960912052117264
 40
0.5960912052117264
 40
0.5977198697068404
 40
0.5977198697068404
 40
0.5977198697068404
 40
0.5977198697068404
 40
0.5993485342019544
 40
0.5993485342019544
 40
0.5993485342019544
 40
0.5993485342019544
 40
0.6009771986970684
 40
0.6009771986970684
 40
0.6009771986970684
 40
0.6009771986970684
 40
0.6026058631921825
 40
0.6026058631921825
 40
0.6026058631921825
 40
0.6026058631921825
 40
0.6042345276872965
 40
0.6042345276872965
 40
0.6042345276872965
 40
0.6042345276872965
 40
0.6058631921824105
 40
0.6058631921824105
 40
0.6058631921824105
 40
0.6058631921824105
 40
0.6074918566775245
 40
0.6074918566775245
 40
0.6074918566775245
 40
0.6074918566775245
 40
0.6091205211726385
 40
0.6091205211726385
 40
0.6091205211726385
 40
0.6091205211726385
 40
0.6107491856677525
 40
0.6107491856677525
 40
0.6107491856677525
 40
0.6107491856677525
 40
0.6123778501628665
 40
0.6123778501628665
 40
0.6123778501628665
 40
0.6123778501628665
 40
0.6140065146579805
 40
0.6140065146579805
 40
0.6140065146579805
 40
0.6140065146579805
 40
0.6156351791530945
 40
0.6156351791530945
 40
0.6156351791530945
 40
0.6156351791530945
 40
0.6172638436482085
 40
0.6172638436482085
 40
0.6172638436482085
 40
0.6172638436482085
 40
0.6188925081433225
 40
0.6188925081433225
 40
0.6188925081433225
 40
0.6188925081433225
 40
0.6205211726384365
 40
0.6205211726384365
 40
0.6205211726384365
 40
0.6205211726384365
 40
0.6221498371335505
 40
0.6221498371335505
 40
0.6221498371335505
 40
0.6221498371335505
 40
0.6237785016286646
 40
0.6237785016286646
 40
0.6237785016286646
 40
0.6237785016286646
 40
0.6254071661237784
 40
0.6254071661237784
 40
0.6254071661237784
 40
0.6254071661237784
 40
0.6270358306188925
 40
0.6270358306188925
 40
0.6270358306188925
 40
0.6270358306188925
 40
0.6286644951140065
 40
0.6286644951140065
 40
0.6286644951140065
 40
0.6286644951140065
 40
0.6302931596091205
 40
0.6302931596091205
 40
0.6302931596091205
 40
0.6302931596091205
 40
0.6319218241042345
 40
0.6319218241042345
 40
0.6319218241042345
 40
0.6319218241042345
 40
0.6335504885993485
 40
0.6335504885993485
 40
0.6335504885993485
 40
0.6335504885993485
 40
0.6351791530944625
 40
0.6351791530944625
 40
0.6351791530944625
 40
0.6351791530944625
 40
0.6368078175895765
 40
0.6368078175895765
 40
0.6368078175895765
 40
0.6368078175895765
 40
0.6384364820846905
 40
0.6384364820846905
 40
0.6384364820846905
 40
0.6384364820846905
 40
0.6400651465798045
 40
0.6400651465798045
 40
0.6400651465798045
 40
0.6400651465798045
 40
0.6416938110749185
 40
0.6416938110749185
 40
0.6416938110749185
 40
0.6416938110749185
 40
0.6433224755700325
 40
0.6433224755700325
 40
0.6433224755700325
 40
0.6433224755700325
 40
0.6449511400651465
 40
0.6449511400651465
 40
0.6449511400651465
 40
0.6449511400651465
 40
0.6465798045602605
 40
0.6465798045602605
 40
0.6465798045602605
 40
0.6465798045602605
 40
0.6482084690553745
 40
0.6482084690553745
 40
0.6482084690553745
 40
0.6482084690553745
 40
0.6498371335504886
 40
0.6498371335504886
 40
0.6498371335504886
 40
0.6498371335504886
 40
0.6514657980456026
 40
0.6514657980456026
 40
0.6514657980456026
 40
0.6514657980456026
 40
0.6530944625407166
 40
0.6530944625407166
 40
0.6530944625407166
 40
0.6530944625407166
 40
0.6547231270358306
 40
0.6547231270358306
 40
0.6547231270358306
 40
0.6547231270358306
 40
0.6563517915309446
 40
0.6563517915309446
 40
0.6563517915309446
 40
0.6563517915309446
 40
0.6579804560260586
 40
0.6579804560260586
 40
0.6579804560260586
 40
0.6579804560260586
 40
0.6596091205211726
 40
0.6596091205211726
 40
0.6596091205211726
 40
0.6596091205211726
 40
0.6612377850162866
 40
0.6612377850162866
 40
0.6612377850162866
 40
0.6612377850162866
 40
0.6628664495114006
 40
0.6628664495114006
 40
0.6628664495114006
 40
0.6628664495114006
 40
0.6644951140065146
 40
0.6644951140065146
 40
0.6644951140065146
 40
0.6644951140065146
 40
0.6661237785016286
 40
0.6661237785016286
 40
0.6661237785016286
 40
0.6661237785016286
 40
0.6677524429967426
 40
0.6677524429967426
 40
0.6677524429967426
 40
0.6677524429967426
 40
0.6693811074918566
 40
0.6693811074918566
 40
0.6693811074918566
 40
0.6693811074918566
 40
0.6710097719869706
 40
0.6710097719869706
 40
0.6710097719869706
 40
0.6710097719869706
 40
0.6726384364820847
 40
0.6726384364820847
 40
0.6726384364820847
 40
0.6726384364820847
 40
0.6742671009771987
 40
0.6742671009771987
 40
0.6742671009771987
 40
0.6742671009771987
 40
0.6758957654723127
 40
0.6758957654723127
 40
0.6758957654723127
 40
0.6758957654723127
 40
0.6775244299674267
 40
0.6775244299674267
 40
0.6775244299674267
 40
0.6775244299674267
 40
0.6791530944625407
 40
0.6791530944625407
 40
0.6791530944625407
 40
0.6791530944625407
 40
0.6807817589576547
 40
0.6807817589576547
 40
0.6807817589576547
 40
0.6807817589576547
 40
0.6824104234527687
 40
0.6824104234527687
 40
0.6824104234527687
 40
0.6824104234527687
 40
0.6840390879478827
 40
0.6840390879478827
 40
0.6840390879478827
 40
0.6840390879478827
 40
0.6856677524429967
 40
0.6856677524429967
 40
0.6856677524429967
 40
0.6856677524429967
 40
0.6872964169381107
 40
0.6872964169381107
 40
0.6872964169381107
 40
0.6872964169381107
 40
0.6889250814332247
 40
0.6889250814332247
 40
0.6889250814332247
 40
0.6889250814332247
 40
0.6905537459283387
 40
0.6905537459283387
 40
0.6905537459283387
 40
0.6905537459283387
 40
0.6921824104234527
 40
0.6921824104234527
 40
0.6921824104234527
 40
0.6921824104234527
 40
0.6938110749185668
 40
0.6938110749185668
 40
0.6938110749185668
 40
0.6938110749185668
 40
0.6954397394136808
 40
0.6954397394136808
 40
0.6954397394136808
 40
0.6954397394136808
 40
0.6970684039087948
 40
0.6970684039087948
 40
0.6970684039087948
 40
0.6970684039087948
 40
0.6986970684039088
 40
0.6986970684039088
 40
0.6986970684039088
 40
0.6986970684039088
 40
0.7003257328990228
 40
0.7003257328990228
 40
0.7003257328990228
 40
0.7003257328990228
 40
0.7019543973941368
 40
0.7019543973941368
 40
0.7019543973941368
 40
0.7019543973941368
 40
0.7035830618892508
 40
0.7035830618892508
 40
0.7035830618892508
 40
0.7035830618892508
 40
0.7052117263843648
 40
0.7052117263843648
 40
0.7052117263843648
 40
0.7052117263843648
 40
0.7068403908794788
 40
0.7068403908794788
 40
0.7068403908794788
 40
0.7068403908794788
 40
0.7084690553745928
 40
0.7084690553745928
 40
0.7084690553745928
 40
0.7084690553745928
 40
0.7100977198697068
 40
0.7100977198697068
 40
0.7100977198697068
 40
0.7100977198697068
 40
0.7117263843648208
 40
0.7117263843648208
 40
0.7117263843648208
 40
0.7117263843648208
 40
0.7133550488599348
 40
0.7133550488599348
 40
0.7133550488599348
 40
0.7133550488599348
 40
0.7149837133550488
 40
0.7149837133550488
 40
0.7149837133550488
 40
0.7149837133550488
 40
0.7166123778501629
 40
0.7166123778501629
 40
0.7166123778501629
 40
0.7166123778501629
 40
0.7182410423452769
 40
0.7182410423452769
 40
0.7182410423452769
 40
0.7182410423452769
 40
0.7198697068403909
 40
0.7198697068403909
 40
0.7198697068403909
 40
0.7198697068403909
 40
0.7214983713355049
 40
0.7214983713355049
 40
0.7214983713355049
 40
0.7214983713355049
 40
0.7231270358306189
 40
0.7231270358306189
 40
0.7231270358306189
 40
0.7231270358306189
 40
0.7247557003257329
 40
0.7247557003257329
 40
0.7247557003257329
 40
0.7247557003257329
 40
0.7263843648208469
 40
0.7263843648208469
 40
0.7263843648208469
 40
0.7263843648208469
 40
0.7280130293159609
 40
0.7280130293159609
 40
0.7280130293159609
 40
0.7280130293159609
 40
0.7296416938110749
 40
0.7296416938110749
 40
0.7296416938110749
 40
0.7296416938110749
 40
0.7312703583061889
 40
0.7312703583061889
 40
0.7312703583061889
 40
0.7312703583061889
 40
0.7328990228013029
 40
0.7328990228013029
 40
0.7328990228013029
 40
0.7328990228013029
 40
0.7345276872964169
 40
0.7345276872964169
 40
0.7345276872964169
 40
0.7345276872964169
 40
0.7361563517915309
 40
0.7361563517915309
 40
0.7361563517915309
 40
0.7361563517915309
 40
0.737785016286645
 40
0.737785016286645
 40
0.737785016286645
 40
0.737785016286645
 40
0.739413680781759
 40
0.739413680781759
 40
0.739413680781759
 40
0.739413680781759
 40
0.741042345276873
 40
0.741042345276873
 40
0.741042345276873
 40
0.741042345276873
 40
0.742671009771987
 40
0.742671009771987
 40
0.742671009771987
 40
0.742671009771987
 40
0.744299674267101
 40
0.744299674267101
 40
0.744299674267101
 40
0.744299674267101
 40
0.745928338762215
 40
0.745928338762215
 40
0.745928338762215
 40
0.745928338762215
 40
0.747557003257329
 40
0.747557003257329
 40
0.747557003257329
 40
0.747557003257329
 40
0.749185667752443
 40
0.749185667752443
 40
0.749185667752443
 40
0.749185667752443
 40
0.750814332247557
 40
0.750814332247557
 40
0.750814332247557
 40
0.750814332247557
 40
0.752442996742671
 40
0.752442996742671
 40
0.752442996742671
 40
0.752442996742671
 40
0.754071661237785
 40
0.754071661237785
 40
0.754071661237785
 40
0.754071661237785
 40
0.755700325732899
 40
0.755700325732899
 40
0.755700325732899
 40
0.755700325732899
 40
0.757328990228013
 40
0.757328990228013
 40
0.757328990228013
 40
0.757328990228013
 40
0.758957654723127
 40
0.758957654723127
 40
0.758957654723127
 40
0.758957654723127
 40
0.760586319218241
 40
0.760586319218241
 40
0.760586319218241
 40
0.760586319218241
 40
0.762214983713355
 40
0.762214983713355
 40
0.762214983713355
 40
0.762214983713355
 40
0.7638436482084691
 40
0.7638436482084691
 40
0.7638436482084691
 40
0.7638436482084691
 40
0.7654723127035831
 40
0.7654723127035831
 40
0.7654723127035831
 40
0.7654723127035831
 40
0.7671009771986971
 40
0.7671009771986971
 40
0.7671009771986971
 40
0.7671009771986971
 40
0.7687296416938111
 40
0.7687296416938111
 40
0.7687296416938111
 40
0.7687296416938111
 40
0.7703583061889251
 40
0.7703583061889251
 40
0.7703583061889251
 40
0.7703583061889251
 40
0.7719869706840391
 40
0.7719869706840391
 40
0.7719869706840391
 40
0.7719869706840391
 40
0.7736156351791531
 40
0.7736156351791531
 40
0.7736156351791531
 40
0.7736156351791531
 40
0.7752442996742671
 40
0.7752442996742671
 40
0.7752442996742671
 40
0.7752442996742671
 40
0.7768729641693811
 40
0.7768729641693811
 40
0.7768729641693811
 40
0.7768729641693811
 40
0.7785016286644951
 40
0.7785016286644951
 40
0.7785016286644951
 40
0.7785016286644951
 40
0.7801302931596091
 40
0.7801302931596091
 40
0.7801302931596091
 40
0.7801302931596091
 40
0.7817589576547231
 40
0.7817589576547231
 40
0.7817589576547231
 40
0.7817589576547231
 40
0.7833876221498371
 40
0.7833876221498371
 40
0.7833876221498371
 40
0.7833876221498371
 40
0.7850162866449512
 40
0.7850162866449512
 40
0.7850162866449512
 40
0.7850162866449512
 40
0.7866449511400652
 40
0.7866449511400652
 40
0.7866449511400652
 40
0.7866449511400652
 40
0.7882736156351792
 40
0.7882736156351792
 40
0.7882736156351792
 40
0.7882736156351792
 40
0.7899022801302932
 40
0.7899022801302932
 40
0.7899022801302932
 40
0.7899022801302932
 40
0.7915309446254072
 40
0.7915309446254072
 40
0.7915309446254072
 40
0.7915309446254072
 40
0.7931596091205212
 40
0.7931596091205212
 40
0.7931596091205212
 40
0.7931596091205212
 40
0.7947882736156352
 40
0.7947882736156352
 40
0.7947882736156352
 40
0.7947882736156352
 40
0.7964169381107492
 40
0.7964169381107492
 40
0.7964169381107492
 40
0.7964169381107492
 40
0.7980456026058632
 40
0.7980456026058632
 40
0.7980456026058632
 40
0.7980456026058632
 40
0.7996742671009772
 40
0.7996742671009772
 40
0.7996742671009772
 40
0.7996742671009772
 40
0.8013029315960912
 40
0.8013029315960912
 40
0.8013029315960912
 40
0.8013029315960912
 40
0.8029315960912052
 40
0.8029315960912052
 40
0.8029315960912052
 40
0.8029315960912052
 40
0.8045602605863192
 40
0.8045602605863192
 40
0.8045602605863192
 40
0.8045602605863192
 40
0.8061889250814332
 40
0.8061889250814332
 40
0.8061889250814332
 40
0.8061889250814332
 40
0.8078175895765473
 40
0.8078175895765473
 40
0.8078175895765473
 40
0.8078175895765473
 40
0.8094462540716613
 40
0.8094462540716613
 40
0.8094462540716613
 40
0.8094462540716613
 40
0.8110749185667753
 40
0.8110749185667753
 40
0.8110749185667753
 40
0.8110749185667753
 40
0.8127035830618893
 40
0.8127035830618893
 40
0.8127035830618893
 40
0.8127035830618893
 40
0.8143322475570033
 40
0.8143322475570033
 40
0.8143322475570033
 40
0.8143322475570033
 40
0.8159609120521173
 40
0.8159609120521173
 40
0.8159609120521173
 40
0.8159609120521173
 40
0.8175895765472313
 40
0.8175895765472313
 40
0.8175895765472313
 40
0.8175895765472313
 40
0.8192182410423453
 40
0.8192182410423453
 40
0.8192182410423453
 40
0.8192182410423453
 40
0.8208469055374593
 40
0.8208469055374593
 40
0.8208469055374593
 40
0.8208469055374593
 40
0.8224755700325733
 40
0.8224755700325733
 40
0.8224755700325733
 40
0.8224755700325733
 40
0.8241042345276873
 40
0.8241042345276873
 40
0.8241042345276873
 40
0.8241042345276873
 40
0.8257328990228013
 40
0.8257328990228013
 40
0.8257328990228013
 40
0.8257328990228013
 40
0.8273615635179153
 40
0.8273615635179153
 40
0.8273615635179153
 40
0.8273615635179153
 40
0.8289902280130294
 40
0.8289902280130294
 40
0.8289902280130294
 40
0.8289902280130294
 40
0.8306188925081434
 40
0.8306188925081434
 40
0.8306188925081434
 40
0.8306188925081434
 40
0.8322475570032574
 40
0.8322475570032574
 40
0.8322475570032574
 40
0.8322475570032574
 40
0.8338762214983714
 40
0.8338762214983714
 40
0.8338762214983714
 40
0.8338762214983714
 40
0.8355048859934854
 40
0.8355048859934854
 40
0.8355048859934854
 40
0.8355048859934854
 40
0.8371335504885994
 40
0.8371335504885994
 40
0.8371335504885994
 40
0.8371335504885994
 40
0.8387622149837134
 40
0.8387622149837134
 40
0.8387622149837134
 40
0.8387622149837134
 40
0.8403908794788274
 40
0.8403908794788274
 40
0.8403908794788274
 40
0.8403908794788274
 40
0.8420195439739414
 40
0.8420195439739414
 40
0.8420195439739414
 40
0.8420195439739414
 40
0.8436482084690554
 40
0.8436482084690554
 40
0.8436482084690554
 40
0.8436482084690554
 40
0.8452768729641694
 40
0.8452768729641694
 40
0.8452768729641694
 40
0.8452768729641694
 40
0.8469055374592834
 40
0.8469055374592834
 40
0.8469055374592834
 40
0.8469055374592834
 40
0.8485342019543974
 40
0.8485342019543974
 40
0.8485342019543974
 40
0.8485342019543974
 40
0.8501628664495114
 40
0.8501628664495114
 40
0.8501628664495114
 40
0.8501628664495114
 40
0.8517915309446255
 40
0.8517915309446255
 40
0.8517915309446255
 40
0.8517915309446255
 40
0.8534201954397395
 40
0.8534201954397395
 40
0.8534201954397395
 40
0.8534201954397395
 40
0.8550488599348535
 40
0.8550488599348535
 40
0.8550488599348535
 40
0.8550488599348535
 40
0.8566775244299675
 40
0.8566775244299675
 40
0.8566775244299675
 40
0.8566775244299675
 40
0.8583061889250815
 40
0.8583061889250815
 40
0.8583061889250815
 40
0.8583061889250815
 40
0.8599348534201955
 40
0.8599348534201955
 40
0.8599348534201955
 40
0.8599348534201955
 40
0.8615635179153095
 40
0.8615635179153095
 40
0.8615635179153095
 40
0.8615635179153095
 40
0.8631921824104235
 40
0.8631921824104235
 40
0.8631921824104235
 40
0.8631921824104235
 40
0.8648208469055375
 40
0.8648208469055375
 40
0.8648208469055375
 40
0.8648208469055375
 40
0.8664495114006515
 40
0.8664495114006515
 40
0.8664495114006515
 40
0.8664495114006515
 40
0.8680781758957655
 40
0.8680781758957655
 40
0.8680781758957655
 40
0.8680781758957655
 40
0.8697068403908795
 40
0.8697068403908795
 40
0.8697068403908795
 40
0.8697068403908795
 40
0.8713355048859935
 40
0.8713355048859935
 40
0.8713355048859935
 40
0.8713355048859935
 40
0.8729641693811075
 40
0.8729641693811075
 40
0.8729641693811075
 40
0.8729641693811075
 40
0.8745928338762216
 40
0.8745928338762216
 40
0.8745928338762216
 40
0.8745928338762216
 40
0.8762214983713354
 40
0.8762214983713354
 40
0.8762214983713354
 40
0.8762214983713354
 40
0.8778501628664495
 40
0.8778501628664495
 40
0.8778501628664495
 40
0.8778501628664495
 40
0.8794788273615635
 40
0.8794788273615635
 40
0.8794788273615635
 40
0.8794788273615635
 40
0.8811074918566775
 40
0.8811074918566775
 40
0.8811074918566775
 40
0.8811074918566775
 40
0.8827361563517915
 40
0.8827361563517915
 40
0.8827361563517915
 40
0.8827361563517915
 40
0.8843648208469055
 40
0.8843648208469055
 40
0.8843648208469055
 40
0.8843648208469055
 40
0.8859934853420195
 40
0.8859934853420195
 40
0.8859934853420195
 40
0.8859934853420195
 40
0.8876221498371335
 40
0.8876221498371335
 40
0.8876221498371335
 40
0.8876221498371335
 40
0.8892508143322475
 40
0.8892508143322475
 40
0.8892508143322475
 40
0.8892508143322475
 40
0.8908794788273615
 40
0.8908794788273615
 40
0.8908794788273615
 40
0.8908794788273615
 40
0.8925081433224755
 40
0.8925081433224755
 40
0.8925081433224755
 40
0.8925081433224755
 40
0.8941368078175895
 40
0.8941368078175895
 40
0.8941368078175895
 40
0.8941368078175895
 40
0.8957654723127035
 40
0.8957654723127035
 40
0.8957654723127035
 40
0.8957654723127035
 40
0.8973941368078175
 40
0.8973941368078175
 40
0.8973941368078175
 40
0.8973941368078175
 40
0.8990228013029316
 40
0.8990228013029316
 40
0.8990228013029316
 40
0.8990228013029316
 40
0.9006514657980456
 40
0.9006514657980456
 40
0.9006514657980456
 40
0.9006514657980456
 40
0.9022801302931596
 40
0.9022801302931596
 40
0.9022801302931596
 40
0.9022801302931596
 40
0.9039087947882736
 40
0.9039087947882736
 40
0.9039087947882736
 40
0.9039087947882736
 40
0.9055374592833876
 40
0.9055374592833876
 40
0.9055374592833876
 40
0.9055374592833876
 40
0.9071661237785016
 40
0.9071661237785016
 40
0.9071661237785016
 40
0.9071661237785016
 40
0.9087947882736156
 40
0.9087947882736156
 40
0.9087947882736156
 40
0.9087947882736156
 40
0.9104234527687296
 40
0.9104234527687296
 40
0.9104234527687296
 40
0.9104234527687296
 40
0.9120521172638436
 40
0.9120521172638436
 40
0.9120521172638436
 40
0.9120521172638436
 40
0.9136807817589576
 40
0.9136807817589576
 40
0.9136807817589576
 40
0.9136807817589576
 40
0.9153094462540716
 40
0.9153094462540716
 40
0.9153094462540716
 40
0.9153094462540716
 40
0.9169381107491856
 40
0.9169381107491856
 40
0.9169381107491856
 40
0.9169381107491856
 40
0.9185667752442996
 40
0.9185667752442996
 40
0.9185667752442996
 40
0.9185667752442996
 40
0.9201954397394136
 40
0.9201954397394136
 40
0.9201954397394136
 40
0.9201954397394136
 40
0.9218241042345277
 40
0.9218241042345277
 40
0.9218241042345277
 40
0.9218241042345277
 40
0.9234527687296417
 40
0.9234527687296417
 40
0.9234527687296417
 40
0.9234527687296417
 40
0.9250814332247557
 40
0.9250814332247557
 40
0.9250814332247557
 40
0.9250814332247557
 40
0.9267100977198697
 40
0.9267100977198697
 40
0.9267100977198697
 40
0.9267100977198697
 40
0.9283387622149837
 40
0.9283387622149837
 40
0.9283387622149837
 40
0.9283387622149837
 40
0.9299674267100977
 40
0.9299674267100977
 40
0.9299674267100977
 40
0.9299674267100977
 40
0.9315960912052117
 40
0.9315960912052117
 40
0.9315960912052117
 40
0.9315960912052117
 40
0.9332247557003257
 40
0.9332247557003257
 40
0.9332247557003257
 40
0.9332247557003257
 40
0.9348534201954397
 40
0.9348534201954397
 40
0.9348534201954397
 40
0.9348534201954397
 40
0.9364820846905537
 40
0.9364820846905537
 40
0.9364820846905537
 40
0.9364820846905537
 40
0.9381107491856677
 40
0.9381107491856677
 40
0.9381107491856677
 40
0.9381107491856677
 40
0.9397394136807817
 40
0.9397394136807817
 40
0.9397394136807817
 40
0.9397394136807817
 40
0.9413680781758957
 40
0.9413680781758957
 40
0.9413680781758957
 40
0.9413680781758957
 40
0.9429967426710097
 40
0.9429967426710097
 40
0.9429967426710097
 40
0.9429967426710097
 40
0.9446254071661238
 40
0.9446254071661238
 40
0.9446254071661238
 40
0.9446254071661238
 40
0.9462540716612378
 40
0.9462540716612378
 40
0.9462540716612378
 40
0.9462540716612378
 40
0.9478827361563518
 40
0.9478827361563518
 40
0.9478827361563518
 40
0.9478827361563518
 40
0.9495114006514658
 40
0.9495114006514658
 40
0.9495114006514658
 40
0.9495114006514658
 40
0.9511400651465798
 40
0.9511400651465798
 40
0.9511400651465798
 40
0.9511400651465798
 40
0.9527687296416938
 40
0.9527687296416938
 40
0.9527687296416938
 40
0.9527687296416938
 40
0.9543973941368078
 40
0.9543973941368078
 40
0.9543973941368078
 40
0.9543973941368078
 40
0.9560260586319218
 40
0.9560260586319218
 40
0.9560260586319218
 40
0.9560260586319218
 40
0.9576547231270358
 40
0.9576547231270358
 40
0.9576547231270358
 40
0.9576547231270358
 40
0.9592833876221498
 40
0.9592833876221498
 40
0.9592833876221498
 40
0.9592833876221498
 40
0.9609120521172638
 40
0.9609120521172638
 40
0.9609120521172638
 40
0.9609120521172638
 40
0.9625407166123778
 40
0.9625407166123778
 40
0.9625407166123778
 40
0.9625407166123778
 40
0.9641693811074918
 40
0.9641693811074918
 40
0.9641693811074918
 40
0.9641693811074918
 40
0.9657980456026058
 40
0.9657980456026058
 40
0.9657980456026058
 40
0.9657980456026058
 40
0.9674267100977199
 40
0.9674267100977199
 40
0.9674267100977199
 40
0.9674267100977199
 40
0.9690553745928339
 40
0.9690553745928339
 40
0.9690553745928339
 40
0.9690553745928339
 40
0.9706840390879479
 40
0.9706840390879479
 40
0.9706840390879479
 40
0.9706840390879479
 40
0.9723127035830619
 40
0.9723127035830619
 40
0.9723127035830619
 40
0.9723127035830619
 40
0.9739413680781759
 40
0.9739413680781759
 40
0.9739413680781759
 40
0.9739413680781759
 40
0.9755700325732899
 40
0.9755700325732899
 40
0.9755700325732899
 40
0.9755700325732899
 40
0.9771986970684039
 40
0.9771986970684039
 40
0.9771986970684039
 40
0.9771986970684039
 40
0.9788273615635179
 40
0.9788273615635179
 40
0.9788273615635179
 40
0.9788273615635179
 40
0.9804560260586319
 40
0.9804560260586319
 40
0.9804560260586319
 40
0.9804560260586319
 40
0.9820846905537459
 40
0.9820846905537459
 40
0.9820846905537459
 40
0.9820846905537459
 40
0.9837133550488599
 40
0.9837133550488599
 40
0.9837133550488599
 40
0.9837133550488599
 40
0.9853420195439739
 40
0.9853420195439739
 40
0.9853420195439739
 40
0.9853420195439739
 40
0.9869706840390879
 40
0.9869706840390879
 40
0.9869706840390879
 40
0.9869706840390879
 40
0.988599348534202
 40
0.988599348534202
 40
0.988599348534202
 40
0.988599348534202
 40
0.990228013029316
 40
0.990228013029316
 40
0.990228013029316
 40
0.990228013029316
 40
0.99185667752443
 40
0.99185667752443
 40
0.99185667752443
 40
0.99185667752443
 40
0.993485342019544
 40
0.993485342019544
 40
0.993485342019544
 40
0.993485342019544
 40
0.995114006514658
 40
0.995114006514658
 40
0.995114006514658
 40
0.995114006514658
 40
0.996742671009772
 40
0.996742671009772
 40
0.996742671009772
 40
0.996742671009772
 40
1.0
 40
1.0
 40
1.0
 40
1.0
 10
9.22721
 20
-5.17975
 30
0.0
 10
9.25944
 20
-5.19264
 30
0.0
 10
9.27875
 20
-5.20557
 30
0.0
 10
9.29169
 20
-5.23129
 30
0.0
 10
9.29169
 20
-5.23129
 30
0.0
 10
9.29809
 20
-5.2442
 30
0.0
 10
9.311
 20
-5.28283
 30
0.0
 10
9.33035
 20
-5.33445
 30
0.0
 10
9.33035
 20
-5.33445
 30
0.0
 10
9.36258
 20
-5.38599
 30
0.0
 10
9.40123
 20
-5.43756
 30
0.0
 10
9.45926
 20
-5.48913
 30
0.0
 10
9.45926
 20
-5.48913
 30
0.0
 10
9.45926
 20
-5.48913
 30
0.0
 10
9.55593
 20
-5.48913
 30
0.0
 10
9.55593
 20
-5.48913
 30
0.0
 10
9.55593
 20
-5.48913
 30
0.0
 10
9.55593
 20
-5.48913
 30
0.0
 10
9.55593
 20
-5.27643
 30
0.0
 10
9.55593
 20
-5.27643
 30
0.0
 10
9.55593
 20
-5.27643
 30
0.0
 10
9.51727
 20
-5.25712
 30
0.0
 10
9.46565
 20
-5.23129
 30
0.0
 10
9.42702
 20
-5.20555
 30
0.0
 10
9.42702
 20
-5.20555
 30
0.0
 10
9.36897
 20
-5.16681
 30
0.0
 10
9.33034
 20
-5.14753
 30
0.0
 10
9.32391
 20
-5.14753
 30
0.0
 10
9.32391
 20
-5.14753
 30
0.0
 10
9.24655
 20
-5.10239
 30
0.0
 10
9.13698
 20
-5.09596
 30
0.0
 10
9.00162
 20
-5.10239
 30
0.0
 10
9.00162
 20
-5.10239
 30
0.0
 10
8.8598
 20
-5.11528
 30
0.0
 10
8.7373
 20
-5.10239
 30
0.0
 10
8.62128
 20
-5.06373
 30
0.0
 10
8.62128
 20
-5.06373
 30
0.0
 10
8.49878
 20
-5.00571
 30
0.0
 10
8.4021
 20
-4.96705
 30
0.0
 10
8.32479
 20
-4.94771
 30
0.0
 10
8.32479
 20
-4.94771
 30
0.0
 10
8.22811
 20
-4.92189
 30
0.0
 10
8.15075
 20
-4.90257
 30
0.0
 10
8.09921
 20
-4.88969
 30
0.0
 10
8.09921
 20
-4.88969
 30
0.0
 10
7.99605
 20
-4.85744
 30
0.0
 10
7.91868
 20
-4.81881
 30
0.0
 10
7.85421
 20
-4.77367
 30
0.0
 10
7.85421
 20
-4.77367
 30
0.0
 10
7.81555
 20
-4.74785
 30
0.0
 10
7.75113
 20
-4.72213
 30
0.0
 10
7.65442
 20
-4.69631
 30
0.0
 10
7.65442
 20
-4.69631
 30
0.0
 10
7.49326
 20
-4.64474
 30
0.0
 10
7.39658
 20
-4.61252
 30
0.0
 10
7.3837
 20
-4.59963
 30
0.0
 10
7.3837
 20
-4.59963
 30
0.0
 10
7.35793
 20
-4.59963
 30
0.0
 10
7.32573
 20
-4.56738
 30
0.0
 10
7.29348
 20
-4.52227
 30
0.0
 10
7.29348
 20
-4.52227
 30
0.0
 10
7.24189
 20
-4.4707
 30
0.0
 10
7.22255
 20
-4.43848
 30
0.0
 10
7.20963
 20
-4.43207
 30
0.0
 10
7.20963
 20
-4.43207
 30
0.0
 10
7.10655
 20
-4.36111
 30
0.0
 10
7.04207
 20
-4.32245
 30
0.0
 10
7.00984
 20
-4.30314
 30
0.0
 10
7.00984
 20
-4.30314
 30
0.0
 10
6.93248
 20
-4.258
 30
0.0
 10
6.79066
 20
-4.16132
 30
0.0
 10
6.59085
 20
-4.00019
 30
0.0
 10
6.59085
 20
-4.00019
 30
0.0
 10
6.5264
 20
-3.95505
 30
0.0
 10
6.47486
 20
-3.9164
 30
0.0
 10
6.42972
 20
-3.88417
 30
0.0
 10
6.42972
 20
-3.88417
 30
0.0
 10
6.35236
 20
-3.82615
 30
0.0
 10
6.2879
 20
-3.77455
 30
0.0
 10
6.23634
 20
-3.72301
 30
0.0
 10
6.23634
 20
-3.72301
 30
0.0
 10
6.07518
 20
-3.57471
 30
0.0
 10
5.99139
 20
-3.43935
 30
0.0
 10
5.99139
 20
-3.31045
 30
0.0
 10
5.99139
 20
-3.31045
 30
0.0
 10
5.99139
 20
-3.27179
 30
0.0
 10
5.99782
 20
-3.24597
 30
0.0
 10
6.0107
 20
-3.2202
 30
0.0
 10
6.0107
 20
-3.2202
 30
0.0
 10
6.03001
 20
-3.19443
 30
0.0
 10
6.03652
 20
-3.16863
 30
0.0
 10
6.03652
 20
-3.16223
 30
0.0
 10
6.03652
 20
-3.16223
 30
0.0
 10
6.03652
 20
-3.16223
 30
0.0
 10
6.02363
 20
-3.14932
 30
0.0
 10
6.00429
 20
-3.12998
 30
0.0
 10
6.00429
 20
-3.12998
 30
0.0
 10
5.9849
 20
-3.11069
 30
0.0
 10
5.97847
 20
-3.09127
 30
0.0
 10
5.97847
 20
-3.06553
 30
0.0
 10
5.97847
 20
-3.06553
 30
0.0
 10
5.97847
 20
-3.06553
 30
0.0
 10
5.98487
 20
-3.02039
 30
0.0
 10
6.00429
 20
-2.9366
 30
0.0
 10
6.00429
 20
-2.9366
 30
0.0
 10
6.01069
 20
-2.87215
 30
0.0
 10
6.01069
 20
-2.82701
 30
0.0
 10
5.99138
 20
-2.79481
 30
0.0
 10
5.99138
 20
-2.79481
 30
0.0
 10
5.99781
 20
-2.78838
 30
0.0
 10
6.03004
 20
-2.7755
 30
0.0
 10
6.08806
 20
-2.74967
 30
0.0
 10
6.08806
 20
-2.74967
 30
0.0
 10
6.12672
 20
-2.73036
 30
0.0
 10
6.13963
 20
-2.70453
 30
0.0
 10
6.1332
 20
-2.67231
 30
0.0
 10
6.1332
 20
-2.67231
 30
0.0
 10
6.1332
 20
-2.65948
 30
0.0
 10
6.12672
 20
-2.653
 30
0.0
 10
6.12031
 20
-2.64006
 30
0.0
 10
6.12031
 20
-2.64006
 30
0.0
 10
6.12671
 20
-2.64006
 30
0.0
 10
6.1332
 20
-2.64654
 30
0.0
 10
6.1332
 20
-2.64654
 30
0.0
 10
6.1332
 20
-2.64654
 30
0.0
 10
6.13963
 20
-2.65945
 30
0.0
 10
6.14603
 20
-2.66585
 30
0.0
 10
6.14603
 20
-2.66585
 30
0.0
 10
6.14603
 20
-2.66585
 30
0.0
 10
6.14603
 20
-2.66585
 30
0.0
 10
6.14603
 20
-2.56917
 30
0.0
 10
6.14603
 20
-2.56917
 30
0.0
 10
6.14603
 20
-2.56917
 30
0.0
 10
6.14603
 20
-2.56917
 30
0.0
 10
6.26213
 20
-2.56916
 30
0.0
 10
6.26213
 20
-2.56916
 30
0.0
 10
6.26213
 20
-2.56916
 30
0.0
 10
6.26213
 20
-2.52402
 30
0.0
 10
6.26213
 20
-2.48539
 30
0.0
 10
6.26853
 20
-2.45314
 30
0.0
 10
6.26853
 20
-2.45314
 30
0.0
 10
6.28142
 20
-2.408
 30
0.0
 10
6.28784
 20
-2.36289
 30
0.0
 10
6.29435
 20
-2.32423
 30
0.0
 10
6.29435
 20
-2.32423
 30
0.0
 10
6.33301
 20
-2.32423
 30
0.0
 10
6.35232
 20
-2.33063
 30
0.0
 10
6.35232
 20
-2.33712
 30
0.0
 10
6.35232
 20
-2.33712
 30
0.0
 10
6.35232
 20
-2.27267
 30
0.0
 10
6.36521
 20
-2.1953
 30
0.0
 10
6.39743
 20
-2.11154
 30
0.0
 10
6.39743
 20
-2.11154
 30
0.0
 10
6.42968
 20
-2.03418
 30
0.0
 10
6.449
 20
-1.96972
 30
0.0
 10
6.449
 20
-1.9375
 30
0.0
 10
6.449
 20
-1.9375
 30
0.0
 10
6.449
 20
-1.92459
 30
0.0
 10
6.449
 20
-1.90525
 30
0.0
 10
6.43609
 20
-1.87948
 30
0.0
 10
6.43609
 20
-1.87948
 30
0.0
 10
6.42969
 20
-1.85371
 30
0.0
 10
6.42326
 20
-1.83434
 30
0.0
 10
6.42326
 20
-1.82151
 30
0.0
 10
6.42326
 20
-1.82151
 30
0.0
 10
6.42326
 20
-1.78926
 30
0.0
 10
6.46192
 20
-1.69901
 30
0.0
 10
6.5328
 20
-1.54428
 30
0.0
 10
6.5328
 20
-1.54428
 30
0.0
 10
6.5328
 20
-1.53785
 30
0.0
 10
6.59082
 20
-1.49271
 30
0.0
 10
6.70044
 20
-1.40252
 30
0.0
 10
6.70044
 20
-1.40252
 30
0.0
 10
6.81646
 20
-1.31227
 30
0.0
 10
6.91954
 20
-1.15754
 30
0.0
 10
7.02916
 20
-0.93841
 30
0.0
 10
7.02916
 20
-0.93841
 30
0.0
 10
7.13232
 20
-0.71283
 30
0.0
 10
7.18389
 20
-0.53878
 30
0.0
 10
7.17741
 20
-0.41631
 30
0.0
 10
7.17741
 20
-0.41631
 30
0.0
 10
7.17741
 20
-0.29383
 30
0.0
 10
7.17101
 20
-0.16493
 30
0.0
 10
7.17101
 20
-0.01666
 30
0.0
 10
7.17101
 20
-0.01666
 30
0.0
 10
7.16458
 20
0.0929
 30
0.0
 10
7.1581
 20
0.17672
 30
0.0
 10
7.14519
 20
0.24118
 30
0.0
 10
7.14519
 20
0.24118
 30
0.0
 10
7.13876
 20
0.25404
 30
0.0
 10
7.13876
 20
0.27986
 30
0.0
 10
7.13876
 20
0.29272
 30
0.0
 10
7.13876
 20
0.29272
 30
0.0
 10
7.13876
 20
0.29272
 30
0.0
 10
7.13876
 20
0.29272
 30
0.0
 10
7.13876
 20
0.29272
 30
0.0
 10
7.13876
 20
0.29272
 30
0.0
 10
7.00343
 20
0.76328
 30
0.0
 10
6.87452
 20
1.07911
 30
0.0
 10
6.75202
 20
1.22736
 30
0.0
 10
6.75202
 20
1.22736
 30
0.0
 10
6.59086
 20
1.42074
 30
0.0
 10
6.46196
 20
1.54965
 30
0.0
 10
6.36528
 20
1.6141
 30
0.0
 10
6.36528
 20
1.6141
 30
0.0
 10
6.2686
 20
1.6721
 30
0.0
 10
6.19772
 20
1.73655
 30
0.0
 10
6.15258
 20
1.80103
 30
0.0
 10
6.15258
 20
1.80103
 30
0.0
 10
6.10744
 20
1.85905
 30
0.0
 10
6.0881
 20
1.92996
 30
0.0
 10
6.07522
 20
2.00084
 30
0.0
 10
6.07522
 20
2.00084
 30
0.0
 10
6.07522
 20
2.00084
 30
0.0
 10
6.07522
 20
2.00084
 30
0.0
 10
6.07522
 20
2.00084
 30
0.0
 10
6.07522
 20
2.00084
 30
0.0
 10
6.06233
 20
1.96216
 30
0.0
 10
6.04299
 20
1.92993
 30
0.0
 10
6.00434
 20
1.89771
 30
0.0
 10
6.00434
 20
1.89771
 30
0.0
 10
6.00434
 20
1.89771
 30
0.0
 10
5.86251
 20
1.89772
 30
0.0
 10
5.86251
 20
1.89772
 30
0.0
 10
5.86251
 20
1.89772
 30
0.0
 10
5.8754
 20
1.92354
 30
0.0
 10
5.89474
 20
1.96217
 30
0.0
 10
5.92699
 20
2.01377
 30
0.0
 10
5.92699
 20
2.01377
 30
0.0
 10
5.96562
 20
2.07825
 30
0.0
 10
5.99787
 20
2.12333
 30
0.0
 10
6.01719
 20
2.14913
 30
0.0
 10
6.01719
 20
2.14913
 30
0.0
 10
5.95922
 20
2.11045
 30
0.0
 10
5.91408
 20
2.06534
 30
0.0
 10
5.87543
 20
2.02022
 30
0.0
 10
5.87543
 20
2.02022
 30
0.0
 10
5.83672
 20
1.97508
 30
0.0
 10
5.8045
 20
1.94286
 30
0.0
 10
5.77875
 20
1.92994
 30
0.0
 10
5.77875
 20
1.92994
 30
0.0
 10
5.77875
 20
1.9364
 30
0.0
 10
5.77227
 20
1.9364
 30
0.0
 10
5.77227
 20
1.94285
 30
0.0
 10
5.77227
 20
1.94285
 30
0.0
 10
5.77227
 20
1.94285
 30
0.0
 10
5.75937
 20
1.94286
 30
0.0
 10
5.75937
 20
1.94286
 30
0.0
 10
5.75937
 20
1.94286
 30
0.0
 10
5.77874
 20
2.03954
 30
0.0
 10
5.77226
 20
2.17493
 30
0.0
 10
5.74006
 20
2.35537
 30
0.0
 10
5.74006
 20
2.35537
 30
0.0
 10
5.74006
 20
2.35537
 30
0.0
 10
5.72075
 20
2.34891
 30
0.0
 10
5.72075
 20
2.34891
 30
0.0
 10
5.72075
 20
2.34891
 30
0.0
 10
5.72075
 20
2.29091
 30
0.0
 10
5.72075
 20
2.23289
 30
0.0
 10
5.72075
 20
2.17489
 30
0.0
 10
5.72075
 20
2.17489
 30
0.0
 10
5.70786
 20
2.05884
 30
0.0
 10
5.67561
 20
2.00082
 30
0.0
 10
5.62407
 20
2.00082
 30
0.0
 10
5.62407
 20
2.00082
 30
0.0
 10
5.61767
 20
2.00082
 30
0.0
 10
5.59825
 20
2.01373
 30
0.0
 10
5.56605
 20
2.02662
 30
0.0
 10
5.56605
 20
2.02662
 30
0.0
 10
5.54031
 20
2.04596
 30
0.0
 10
5.51451
 20
2.05885
 30
0.0
 10
5.48874
 20
2.05885
 30
0.0
 10
5.48874
 20
2.05885
 30
0.0
 10
5.50157
 20
2.09108
 30
0.0
 10
5.52099
 20
2.12976
 30
0.0
 10
5.54671
 20
2.18135
 30
0.0
 10
5.54671
 20
2.18135
 30
0.0
 10
5.56602
 20
2.22001
 30
0.0
 10
5.58542
 20
2.25869
 30
0.0
 10
5.59825
 20
2.28446
 30
0.0
 10
5.59825
 20
2.28446
 30
0.0
 10
5.59825
 20
2.28446
 30
0.0
 10
5.59184
 20
2.28447
 30
0.0
 10
5.59184
 20
2.28447
 30
0.0
 10
5.59184
 20
2.28447
 30
0.0
 10
5.5467
 20
2.23936
 30
0.0
 10
5.51448
 20
2.19425
 30
0.0
 10
5.48222
 20
2.15554
 30
0.0
 10
5.48222
 20
2.15554
 30
0.0
 10
5.42428
 20
2.09109
 30
0.0
 10
5.38554
 20
2.05886
 30
0.0
 10
5.3598
 20
2.05886
 30
0.0
 10
5.3598
 20
2.05886
 30
0.0
 10
5.34043
 20
2.05886
 30
0.0
 10
5.33398
 20
2.05886
 30
0.0
 10
5.33398
 20
2.05886
 30
0.0
 10
5.33398
 20
2.05886
 30
0.0
 10
5.33398
 20
2.05886
 30
0.0
 10
5.32758
 20
2.06532
 30
0.0
 10
5.32109
 20
2.07177
 30
0.0
 10
5.32109
 20
2.07177
 30
0.0
 10
5.32109
 20
2.20713
 30
0.0
 10
5.32109
 20
2.31669
 30
0.0
 10
5.30818
 20
2.40697
 30
0.0
 10
5.30818
 20
2.40697
 30
0.0
 10
5.29535
 20
2.51008
 30
0.0
 10
5.26312
 20
2.60676
 30
0.0
 10
5.21798
 20
2.69058
 30
0.0
 10
5.21798
 20
2.69058
 30
0.0
 10
5.21798
 20
2.61322
 30
0.0
 10
5.19867
 20
2.48431
 30
0.0
 10
5.15996
 20
2.30381
 30
0.0
 10
5.15996
 20
2.30381
 30
0.0
 10
5.15996
 20
2.30381
 30
0.0
 10
5.14697
 20
2.30381
 30
0.0
 10
5.14697
 20
2.30381
 30
0.0
 10
5.14697
 20
2.30381
 30
0.0
 10
5.08249
 20
2.38115
 30
0.0
 10
5.05029
 20
2.49719
 30
0.0
 10
5.04386
 20
2.65187
 30
0.0
 10
5.04386
 20
2.65187
 30
0.0
 10
5.04386
 20
2.69055
 30
0.0
 10
5.04386
 20
2.73566
 30
0.0
 10
5.04386
 20
2.80012
 30
0.0
 10
5.04386
 20
2.80012
 30
0.0
 10
5.04386
 20
2.80012
 30
0.0
 10
5.03743
 20
2.80011
 30
0.0
 10
5.03743
 20
2.80011
 30
0.0
 10
5.03743
 20
2.80011
 30
0.0
 10
5.03743
 20
2.77434
 30
0.0
 10
5.03743
 20
2.755
 30
0.0
 10
5.03743
 20
2.73566
 30
0.0
 10
5.03743
 20
2.73566
 30
0.0
 10
5.03743
 20
2.60673
 30
0.0
 10
5.02454
 20
2.51005
 30
0.0
 10
5.0052
 20
2.45848
 30
0.0
 10
5.0052
 20
2.45848
 30
0.0
 10
5.0052
 20
2.45848
 30
0.0
 10
4.98583
 20
2.45848
 30
0.0
 10
4.98583
 20
2.45848
 30
0.0
 10
4.98583
 20
2.45848
 30
0.0
 10
4.98583
 20
2.49716
 30
0.0
 10
4.973
 20
2.51648
 30
0.0
 10
4.92786
 20
2.52296
 30
0.0
 10
4.92786
 20
2.52296
 30
0.0
 10
4.90855
 20
2.52942
 30
0.0
 10
4.89563
 20
2.53587
 30
0.0
 10
4.88915
 20
2.54227
 30
0.0
 10
4.88915
 20
2.54227
 30
0.0
 10
4.87632
 20
2.54873
 30
0.0
 10
4.86984
 20
2.56807
 30
0.0
 10
4.87632
 20
2.58741
 30
0.0
 10
4.87632
 20
2.58741
 30
0.0
 10
4.87632
 20
2.65186
 30
0.0
 10
4.86984
 20
2.72277
 30
0.0
 10
4.85693
 20
2.79368
 30
0.0
 10
4.85693
 20
2.79368
 30
0.0
 10
4.85053
 20
2.85168
 30
0.0
 10
4.83764
 20
2.92901
 30
0.0
 10
4.8183
 20
3.04506
 30
0.0
 10
4.8183
 20
3.04506
 30
0.0
 10
4.80539
 20
3.14819
 30
0.0
 10
4.77316
 20
3.23844
 30
0.0
 10
4.72802
 20
3.31576
 30
0.0
 10
4.72802
 20
3.31576
 30
0.0
 10
4.72802
 20
3.31576
 30
0.0
 10
4.72802
 20
2.63253
 30
0.0
 10
4.72802
 20
2.63253
 30
0.0
 10
4.72802
 20
2.63253
 30
0.0
 10
4.65714
 20
2.67116
 30
0.0
 10
4.61848
 20
2.76786
 30
0.0
 10
4.612
 20
2.89677
 30
0.0
 10
4.612
 20
2.89677
 30
0.0
 10
4.612
 20
2.89677
 30
0.0
 10
4.58626
 20
2.89676
 30
0.0
 10
4.58626
 20
2.89676
 30
0.0
 10
4.58626
 20
2.89676
 30
0.0
 10
4.58626
 20
2.89676
 30
0.0
 10
4.58626
 20
2.69052
 30
0.0
 10
4.58626
 20
2.69052
 30
0.0
 10
4.58626
 20
2.69052
 30
0.0
 10
4.58626
 20
2.69052
 30
0.0
 10
4.52824
 20
2.69052
 30
0.0
 10
4.52824
 20
2.69052
 30
0.0
 10
4.52824
 20
2.69052
 30
0.0
 10
4.48958
 20
2.81297
 30
0.0
 10
4.45733
 20
2.96767
 30
0.0
 10
4.43796
 20
3.1546
 30
0.0
 10
4.43796
 20
3.1546
 30
0.0
 10
4.43796
 20
3.16106
 30
0.0
 10
4.43796
 20
3.16106
 30
0.0
 10
4.43796
 20
3.17394
 30
0.0
 10
4.43796
 20
3.17394
 30
0.0
 10
4.43156
 20
3.27707
 30
0.0
 10
4.43156
 20
3.43178
 30
0.0
 10
4.43156
 20
3.62513
 30
0.0
 10
4.43156
 20
3.62513
 30
0.0
 10
4.43156
 20
3.64444
 30
0.0
 10
4.43156
 20
3.67024
 30
0.0
 10
4.43156
 20
3.69604
 30
0.0
 10
4.43156
 20
3.69604
 30
0.0
 10
4.43156
 20
3.83783
 30
0.0
 10
4.43156
 20
4.03119
 30
0.0
 10
4.43156
 20
4.26971
 30
0.0
 10
4.43156
 20
4.26971
 30
0.0
 10
4.43156
 20
4.50178
 30
0.0
 10
4.41225
 20
4.70156
 30
0.0
 10
4.38642
 20
4.87561
 30
0.0
 10
4.38642
 20
4.87561
 30
0.0
 10
4.35417
 20
5.08831
 30
0.0
 10
4.29622
 20
5.29458
 30
0.0
 10
4.21238
 20
5.50087
 30
0.0
 10
4.21238
 20
5.50087
 30
0.0
 10
4.17372
 20
5.59755
 30
0.0
 10
4.10284
 20
5.8167
 30
0.0
 10
3.98677
 20
6.15185
 30
0.0
 10
3.98677
 20
6.15185
 30
0.0
 10
3.903
 20
6.40969
 30
0.0
 10
3.81921
 20
6.60307
 30
0.0
 10
3.75473
 20
6.74489
 30
0.0
 10
3.75473
 20
6.74489
 30
0.0
 10
3.74833
 20
6.7642
 30
0.0
 10
3.7225
 20
6.83511
 30
0.0
 10
3.67737
 20
6.97696
 30
0.0
 10
3.67737
 20
6.97696
 30
0.0
 10
3.62583
 20
7.10587
 30
0.0
 10
3.56135
 20
7.28634
 30
0.0
 10
3.48399
 20
7.50549
 30
0.0
 10
3.48399
 20
7.50549
 30
0.0
 10
3.40022
 20
7.72467
 30
0.0
 10
3.22615
 20
7.82778
 30
0.0
 10
2.95541
 20
7.81492
 30
0.0
 10
2.95541
 20
7.81492
 30
0.0
 10
2.69117
 20
7.80846
 30
0.0
 10
2.3882
 20
7.62154
 30
0.0
 10
2.02725
 20
7.26702
 30
0.0
 10
2.02725
 20
7.26702
 30
0.0
 10
1.66625
 20
6.90605
 30
0.0
 10
1.42781
 20
6.63533
 30
0.0
 10
1.29242
 20
6.44192
 30
0.0
 10
1.29242
 20
6.44192
 30
0.0
 10
1.18931
 20
6.30013
 30
0.0
 10
1.13774
 20
6.20991
 30
0.0
 10
1.11838
 20
6.17122
 30
0.0
 10
1.11838
 20
6.17122
 30
0.0
 10
1.06041
 20
6.0294
 30
0.0
 10
0.97662
 20
5.84893
 30
0.0
 10
0.86054
 20
5.61686
 30
0.0
 10
0.86054
 20
5.61686
 30
0.0
 10
0.78323
 20
5.46216
 30
0.0
 10
0.72521
 20
5.33968
 30
0.0
 10
0.68007
 20
5.243
 30
0.0
 10
0.68007
 20
5.243
 30
0.0
 10
0.66718
 20
5.24943
 30
0.0
 10
0.65433
 20
5.24943
 30
0.0
 10
0.64784
 20
5.24943
 30
0.0
 10
0.64784
 20
5.24943
 30
0.0
 10
0.60918
 20
5.27525
 30
0.0
 10
0.58336
 20
5.28811
 30
0.0
 10
0.55764
 20
5.30102
 30
0.0
 10
0.55764
 20
5.30102
 30
0.0
 10
0.5963
 20
5.23011
 30
0.0
 10
0.62212
 20
5.17857
 30
0.0
 10
0.62852
 20
5.13343
 30
0.0
 10
0.62852
 20
5.13343
 30
0.0
 10
0.60921
 20
5.08829
 30
0.0
 10
0.59629
 20
5.06252
 30
0.0
 10
0.58986
 20
5.04964
 30
0.0
 10
0.58986
 20
5.04964
 30
0.0
 10
0.55115
 20
4.97873
 30
0.0
 10
0.52541
 20
4.90137
 30
0.0
 10
0.49318
 20
4.83046
 30
0.0
 10
0.49318
 20
4.83046
 30
0.0
 10
0.47381
 20
4.84337
 30
0.0
 10
0.46095
 20
4.85628
 30
0.0
 10
0.44804
 20
4.86914
 30
0.0
 10
0.44804
 20
4.86914
 30
0.0
 10
0.40933
 20
4.90782
 30
0.0
 10
0.39002
 20
4.9465
 30
0.0
 10
0.39002
 20
4.96582
 30
0.0
 10
0.39002
 20
4.96582
 30
0.0
 10
0.39002
 20
4.96582
 30
0.0
 10
0.39002
 20
4.92714
 30
0.0
 10
0.39002
 20
4.92714
 30
0.0
 10
0.39002
 20
4.92714
 30
0.0
 10
0.39002
 20
4.91428
 30
0.0
 10
0.3965
 20
4.88203
 30
0.0
 10
0.42227
 20
4.84335
 30
0.0
 10
0.42227
 20
4.84335
 30
0.0
 10
0.43516
 20
4.81758
 30
0.0
 10
0.4545
 20
4.79821
 30
0.0
 10
0.46738
 20
4.78535
 30
0.0
 10
0.46738
 20
4.78535
 30
0.0
 10
0.46738
 20
4.78535
 30
0.0
 10
0.47382
 20
4.78536
 30
0.0
 10
0.47382
 20
4.78536
 30
0.0
 10
0.47382
 20
4.78536
 30
0.0
 10
0.47382
 20
4.78536
 30
0.0
 10
0.47382
 20
4.78536
 30
0.0
 10
0.47382
 20
4.78536
 30
0.0
 10
0.47382
 20
4.78536
 30
0.0
 10
0.46739
 20
4.78536
 30
0.0
 10
0.46739
 20
4.78536
 30
0.0
 10
0.46739
 20
4.78536
 30
0.0
 10
0.46739
 20
4.78536
 30
0.0
 10
0.38362
 20
4.82404
 30
0.0
 10
0.33208
 20
4.84981
 30
0.0
 10
0.30626
 20
4.8627
 30
0.0
 10
0.30626
 20
4.8627
 30
0.0
 10
0.32557
 20
4.77245
 30
0.0
 10
0.33849
 20
4.708
 30
0.0
 10
0.34492
 20
4.66932
 30
0.0
 10
0.34492
 20
4.66932
 30
0.0
 10
0.36429
 20
4.62421
 30
0.0
 10
0.37715
 20
4.59198
 30
0.0
 10
0.39003
 20
4.56621
 30
0.0
 10
0.39003
 20
4.56621
 30
0.0
 10
0.33209
 20
4.41148
 30
0.0
 10
0.29983
 20
4.28258
 30
0.0
 10
0.28044
 20
4.17301
 30
0.0
 10
0.28044
 20
4.17301
 30
0.0
 10
0.28692
 20
4.16655
 30
0.0
 10
0.28692
 20
4.16655
 30
0.0
 10
0.28692
 20
4.1601
 30
0.0
 10
0.28692
 20
4.1601
 30
0.0
 10
0.28692
 20
4.1601
 30
0.0
 10
0.28043
 20
4.1601
 30
0.0
 10
0.28043
 20
4.1601
 30
0.0
 10
0.28043
 20
4.1601
 30
0.0
 10
0.28043
 20
4.16656
 30
0.0
 10
0.28043
 20
4.16656
 30
0.0
 10
0.28043
 20
4.17301
 30
0.0
 10
0.28043
 20
4.17301
 30
0.0
 10
0.2676
 20
4.19232
 30
0.0
 10
0.21595
 20
4.2568
 30
0.0
 10
0.13218
 20
4.36639
 30
0.0
 10
0.13218
 20
4.36639
 30
0.0
 10
0.10641
 20
4.40507
 30
0.0
 10
0.07421
 20
4.4373
 30
0.0
 10
0.05479
 20
4.46307
 30
0.0
 10
0.05479
 20
4.46307
 30
0.0
 10
0.08061
 20
4.43084
 30
0.0
 10
0.09993
 20
4.38571
 30
0.0
 10
0.11927
 20
4.35348
 30
0.0
 10
0.11927
 20
4.35348
 30
0.0
 10
0.19663
 20
4.21812
 30
0.0
 10
0.23534
 20
4.1021
 30
0.0
 10
0.22889
 20
4.02474
 30
0.0
 10
0.22889
 20
4.02474
 30
0.0
 10
0.22889
 20
4.02474
 30
0.0
 10
0.26112
 20
4.02474
 30
0.0
 10
0.26112
 20
4.02474
 30
0.0
 10
0.26112
 20
4.02474
 30
0.0
 10
0.24823
 20
4.01831
 30
0.0
 10
0.24181
 20
4.01188
 30
0.0
 10
0.23535
 20
4.01188
 30
0.0
 10
0.23535
 20
4.01188
 30
0.0
 10
0.20312
 20
3.99897
 30
0.0
 10
0.18376
 20
3.99251
 30
0.0
 10
0.1709
 20
3.99251
 30
0.0
 10
0.1709
 20
3.99251
 30
0.0
 10
0.10642
 20
3.99251
 30
0.0
 10
0.01617
 20
4.06342
 30
0.0
 10
-0.08694
 20
4.21812
 30
0.0
 10
-0.08694
 20
4.21812
 30
0.0
 10
-0.11917
 20
4.2568
 30
0.0
 10
-0.15142
 20
4.3148
 30
0.0
 10
-0.1901
 20
4.37928
 30
0.0
 10
-0.1901
 20
4.37928
 30
0.0
 10
-0.1901
 20
4.37928
 30
0.0
 10
-0.20941
 20
4.37285
 30
0.0
 10
-0.20941
 20
4.37285
 30
0.0
 10
-0.20941
 20
4.37285
 30
0.0
 10
-0.17075
 20
4.28257
 30
0.0
 10
-0.13853
 20
4.23103
 30
0.0
 10
-0.11913
 20
4.20526
 30
0.0
 10
-0.11913
 20
4.20526
 30
0.0
 10
-0.05468
 20
4.09567
 30
0.0
 10
0.00978
 20
4.01833
 30
0.0
 10
0.07425
 20
3.96031
 30
0.0
 10
0.07425
 20
3.96031
 30
0.0
 10
-0.08691
 20
4.05699
 30
0.0
 10
-0.28027
 20
4.1279
 30
0.0
 10
-0.51236
 20
4.17304
 30
0.0
 10
-0.51236
 20
4.17304
 30
0.0
 10
-0.73797
 20
4.21815
 30
0.0
 10
-0.94424
 20
4.23104
 30
0.0
 10
-1.11823
 20
4.21172
 30
0.0
 10
-1.11823
 20
4.21172
 30
0.0
 10
-1.11823
 20
4.21172
 30
0.0
 10
-1.11823
 20
4.19238
 30
0.0
 10
-1.11823
 20
4.19238
 30
0.0
 10
-1.11823
 20
4.19238
 30
0.0
 10
-0.97649
 20
4.1537
 30
0.0
 10
-0.78308
 20
4.12793
 30
0.0
 10
-0.5381
 20
4.0957
 30
0.0
 10
-0.5381
 20
4.0957
 30
0.0
 10
-0.5381
 20
4.0957
 30
0.0
 10
-0.5381
 20
4.0957
 30
0.0
 10
-0.5381
 20
4.0957
 30
0.0
 10
-0.5381
 20
4.0957
 30
0.0
 10
-0.4479
 20
4.08284
 30
0.0
 10
-0.37694
 20
4.06347
 30
0.0
 10
-0.3254
 20
4.04413
 30
0.0
 10
-0.3254
 20
4.04413
 30
0.0
 10
-0.26743
 20
4.0119
 30
0.0
 10
-0.22229
 20
3.97322
 30
0.0
 10
-0.20295
 20
3.92168
 30
0.0
 10
-0.20295
 20
3.92168
 30
0.0
 10
-0.20295
 20
3.92168
 30
0.0
 10
-0.20295
 20
3.85077
 30
0.0
 10
-0.20295
 20
3.85077
 30
0.0
 10
-0.20295
 20
3.85077
 30
0.0
 10
-0.26743
 20
3.84431
 30
0.0
 10
-0.33188
 20
3.86366
 30
0.0
 10
-0.38983
 20
3.92168
 30
0.0
 10
-0.38983
 20
3.92168
 30
0.0
 10
-0.39631
 20
3.92811
 30
0.0
 10
-0.40274
 20
3.93454
 30
0.0
 10
-0.40914
 20
3.94099
 30
0.0
 10
-0.40914
 20
3.94099
 30
0.0
 10
-0.46719
 20
3.99899
 30
0.0
 10
-0.5123
 20
4.05058
 30
0.0
 10
-0.54455
 20
4.08281
 30
0.0
 10
-0.54455
 20
4.08281
 30
0.0
 10
-0.53807
 20
4.04413
 30
0.0
 10
-0.52524
 20
4.0119
 30
0.0
 10
-0.49298
 20
3.98613
 30
0.0
 10
-0.49298
 20
3.98613
 30
0.0
 10
-0.48009
 20
3.97322
 30
0.0
 10
-0.46075
 20
3.9539
 30
0.0
 10
-0.41562
 20
3.92808
 30
0.0
 10
-0.41562
 20
3.92808
 30
0.0
 10
-0.40914
 20
3.92165
 30
0.0
 10
-0.40273
 20
3.92165
 30
0.0
 10
-0.39631
 20
3.91522
 30
0.0
 10
-0.39631
 20
3.91522
 30
0.0
 10
-0.37694
 20
3.89585
 30
0.0
 10
-0.36408
 20
3.88299
 30
0.0
 10
-0.3512
 20
3.87008
 30
0.0
 10
-0.3512
 20
3.87008
 30
0.0
 10
-0.33189
 20
3.85077
 30
0.0
 10
-0.32538
 20
3.81854
 30
0.0
 10
-0.33189
 20
3.7734
 30
0.0
 10
-0.33189
 20
3.7734
 30
0.0
 10
-0.51234
 20
3.67027
 30
0.0
 10
-0.60904
 20
3.62515
 30
0.0
 10
-0.61547
 20
3.62515
 30
0.0
 10
-0.61547
 20
3.62515
 30
0.0
 10
-0.63478
 20
3.62515
 30
0.0
 10
-0.66701
 20
3.63804
 30
0.0
 10
-0.70572
 20
3.68963
 30
0.0
 10
-0.70572
 20
3.68963
 30
0.0
 10
-0.71863
 20
3.70249
 30
0.0
 10
-0.73149
 20
3.72186
 30
0.0
 10
-0.75086
 20
3.74117
 30
0.0
 10
-0.75086
 20
3.74117
 30
0.0
 10
-0.77017
 20
3.76697
 30
0.0
 10
-0.79592
 20
3.79917
 30
0.0
 10
-0.82817
 20
3.83785
 30
0.0
 10
-0.82817
 20
3.83785
 30
0.0
 10
-0.84106
 20
3.86365
 30
0.0
 10
-0.85399
 20
3.87653
 30
0.0
 10
-0.8604
 20
3.88944
 30
0.0
 10
-0.8604
 20
3.88944
 30
0.0
 10
-0.96356
 20
4.02477
 30
0.0
 10
-1.04093
 20
4.09568
 30
0.0
 10
-1.1054
 20
4.12148
 30
0.0
 10
-1.1054
 20
4.12148
 30
0.0
 10
-1.08603
 20
4.08925
 30
0.0
 10
-1.05378
 20
4.05703
 30
0.0
 10
-1.01512
 20
4.00546
 30
0.0
 10
-1.01512
 20
4.00546
 30
0.0
 10
-0.9893
 20
3.97969
 30
0.0
 10
-0.94424
 20
3.93455
 30
0.0
 10
-0.88621
 20
3.8701
 30
0.0
 10
-0.88621
 20
3.8701
 30
0.0
 10
-0.87332
 20
3.85724
 30
0.0
 10
-0.86039
 20
3.83787
 30
0.0
 10
-0.84755
 20
3.83142
 30
0.0
 10
-0.84755
 20
3.83142
 30
0.0
 10
-0.79593
 20
3.76697
 30
0.0
 10
-0.7573
 20
3.72186
 30
0.0
 10
-0.73148
 20
3.67029
 30
0.0
 10
-0.73148
 20
3.67029
 30
0.0
 10
-0.70571
 20
3.63806
 30
0.0
 10
-0.69923
 20
3.60581
 30
0.0
 10
-0.68639
 20
3.57361
 30
0.0
 10
-0.68639
 20
3.57361
 30
0.0
 10
-0.71864
 20
3.56718
 30
0.0
 10
-0.75087
 20
3.54138
 30
0.0
 10
-0.78307
 20
3.49627
 30
0.0
 10
-0.78307
 20
3.49627
 30
0.0
 10
-0.80238
 20
3.45113
 30
0.0
 10
-0.83464
 20
3.43827
 30
0.0
 10
-0.87975
 20
3.43827
 30
0.0
 10
-0.87975
 20
3.43827
 30
0.0
 10
-0.94423
 20
3.43827
 30
0.0
 10
-1.05374
 20
3.50915
 30
0.0
 10
-1.2149
 20
3.67031
 30
0.0
 10
-1.2149
 20
3.67031
 30
0.0
 10
-1.31806
 20
3.77344
 30
0.0
 10
-1.37606
 20
3.83144
 30
0.0
 10
-1.38254
 20
3.8379
 30
0.0
 10
-1.38254
 20
3.8379
 30
0.0
 10
-1.44048
 20
3.88949
 30
0.0
 10
-1.47922
 20
3.92172
 30
0.0
 10
-1.50496
 20
3.92172
 30
0.0
 10
-1.50496
 20
3.92172
 30
0.0
 10
-1.3438
 20
3.75413
 30
0.0
 10
-1.24712
 20
3.64452
 30
0.0
 10
-1.2149
 20
3.61875
 30
0.0
 10
-1.2149
 20
3.61875
 30
0.0
 10
-1.13759
 20
3.53496
 30
0.0
 10
-1.02802
 20
3.44471
 30
0.0
 10
-0.89907
 20
3.33514
 30
0.0
 10
-0.89907
 20
3.33514
 30
0.0
 10
-0.89907
 20
3.30291
 30
0.0
 10
-0.92484
 20
3.27714
 30
0.0
 10
-0.95704
 20
3.25135
 30
0.0
 10
-0.95704
 20
3.25135
 30
0.0
 10
-0.98927
 20
3.22555
 30
0.0
 10
-1.01506
 20
3.21912
 30
0.0
 10
-1.04089
 20
3.21912
 30
0.0
 10
-1.04089
 20
3.21912
 30
0.0
 10
-1.04089
 20
3.21912
 30
0.0
 10
-1.15043
 20
3.28357
 30
0.0
 10
-1.35672
 20
3.42539
 30
0.0
 10
-1.35672
 20
3.42539
 30
0.0
 10
-1.55659
 20
3.55432
 30
0.0
 10
-1.68549
 20
3.63166
 30
0.0
 10
-1.75635
 20
3.65746
 30
0.0
 10
-1.75635
 20
3.65746
 30
0.0
 10
-1.76278
 20
3.66392
 30
0.0
 10
-1.76926
 20
3.66392
 30
0.0
 10
-1.77566
 20
3.66392
 30
0.0
 10
-1.77566
 20
3.66392
 30
0.0
 10
-1.77566
 20
3.66392
 30
0.0
 10
-1.78857
 20
3.67678
 30
0.0
 10
-1.78857
 20
3.67678
 30
0.0
 10
-1.78857
 20
3.67678
 30
0.0
 10
-1.87882
 20
3.74123
 30
0.0
 10
-2.00775
 20
3.82505
 30
0.0
 10
-2.1882
 20
3.92173
 30
0.0
 10
-2.1882
 20
3.92173
 30
0.0
 10
-2.1882
 20
3.92173
 30
0.0
 10
-2.37509
 20
3.92173
 30
0.0
 10
-2.37509
 20
3.92173
 30
0.0
 10
-2.37509
 20
3.92173
 30
0.0
 10
-2.37509
 20
3.91527
 30
0.0
 10
-2.37509
 20
3.91527
 30
0.0
 10
-2.37509
 20
3.90239
 30
0.0
 10
-2.37509
 20
3.90239
 30
0.0
 10
-2.36226
 20
3.90239
 30
0.0
 10
-2.36226
 20
3.89593
 30
0.0
 10
-2.36226
 20
3.89593
 30
0.0
 10
-2.36226
 20
3.89593
 30
0.0
 10
-2.11728
 20
3.83793
 30
0.0
 10
-1.89815
 20
3.72191
 30
0.0
 10
-1.72411
 20
3.53499
 30
0.0
 10
-1.72411
 20
3.53499
 30
0.0
 10
-1.55655
 20
3.35449
 30
0.0
 10
-1.44693
 20
3.15465
 30
0.0
 10
-1.40825
 20
2.92264
 30
0.0
 10
-1.40825
 20
2.92264
 30
0.0
 10
-1.40825
 20
2.92264
 30
0.0
 10
-1.40825
 20
2.81951
 30
0.0
 10
-1.40825
 20
2.81951
 30
0.0
 10
-1.40825
 20
2.81951
 30
0.0
 10
-1.40825
 20
2.81951
 30
0.0
 10
-1.41473
 20
2.81951
 30
0.0
 10
-1.41473
 20
2.81951
 30
0.0
 10
-1.41473
 20
2.81951
 30
0.0
 10
-1.44047
 20
2.85174
 30
0.0
 10
-1.47921
 20
2.89685
 30
0.0
 10
-1.53715
 20
2.9613
 30
0.0
 10
-1.53715
 20
2.9613
 30
0.0
 10
-1.60163
 20
3.02578
 30
0.0
 10
-1.64031
 20
3.0838
 30
0.0
 10
-1.66608
 20
3.12246
 30
0.0
 10
-1.66608
 20
3.12246
 30
0.0
 10
-1.6016
 20
3.00001
 30
0.0
 10
-1.52432
 20
2.86462
 30
0.0
 10
-1.42761
 20
2.69706
 30
0.0
 10
-1.42761
 20
2.69706
 30
0.0
 10
-1.42761
 20
2.67124
 30
0.0
 10
-1.42761
 20
2.66483
 30
0.0
 10
-1.42761
 20
2.66483
 30
0.0
 10
-1.42761
 20
2.66483
 30
0.0
 10
-1.44044
 20
2.63903
 30
0.0
 10
-1.45338
 20
2.6326
 30
0.0
 10
-1.47918
 20
2.6326
 30
0.0
 10
-1.47918
 20
2.6326
 30
0.0
 10
-1.62097
 20
2.6326
 30
0.0
 10
-1.84661
 20
2.79373
 30
0.0
 10
-2.14307
 20
3.10959
 30
0.0
 10
-2.14307
 20
3.10959
 30
0.0
 10
-2.15598
 20
3.12245
 30
0.0
 10
-2.1753
 20
3.14182
 30
0.0
 10
-2.18821
 20
3.1547
 30
0.0
 10
-2.18821
 20
3.1547
 30
0.0
 10
-2.26557
 20
3.23849
 30
0.0
 10
-2.33646
 20
3.31583
 30
0.0
 10
-2.40734
 20
3.39965
 30
0.0
 10
-2.40734
 20
3.39965
 30
0.0
 10
-2.50402
 20
3.50921
 30
0.0
 10
-2.60072
 20
3.63172
 30
0.0
 10
-2.6974
 20
3.75417
 30
0.0
 10
-2.6974
 20
3.75417
 30
0.0
 10
-2.61361
 20
3.63812
 30
0.0
 10
-2.52341
 20
3.5221
 30
0.0
 10
-2.41382
 20
3.3932
 30
0.0
 10
-2.41382
 20
3.3932
 30
0.0
 10
-2.33003
 20
3.29007
 30
0.0
 10
-2.26557
 20
3.2063
 30
0.0
 10
-2.20755
 20
3.14828
 30
0.0
 10
-2.20755
 20
3.14828
 30
0.0
 10
-2.18824
 20
3.12246
 30
0.0
 10
-2.18173
 20
3.1096
 30
0.0
 10
-2.16889
 20
3.09023
 30
0.0
 10
-2.16889
 20
3.09023
 30
0.0
 10
-2.00776
 20
2.89685
 30
0.0
 10
-1.87883
 20
2.70992
 30
0.0
 10
-1.78215
 20
2.51656
 30
0.0
 10
-1.78215
 20
2.51656
 30
0.0
 10
-1.82081
 20
2.53593
 30
0.0
 10
-1.85946
 20
2.54879
 30
0.0
 10
-1.89817
 20
2.57456
 30
0.0
 10
-1.89817
 20
2.57456
 30
0.0
 10
-1.97553
 20
2.63261
 30
0.0
 10
-2.0271
 20
2.66484
 30
0.0
 10
-2.0593
 20
2.67124
 30
0.0
 10
-2.0593
 20
2.67124
 30
0.0
 10
-2.0593
 20
2.67124
 30
0.0
 10
-2.0593
 20
2.66481
 30
0.0
 10
-2.0593
 20
2.66481
 30
0.0
 10
-2.0593
 20
2.66481
 30
0.0
 10
-1.99485
 20
2.58745
 30
0.0
 10
-1.95614
 20
2.5359
 30
0.0
 10
-1.93682
 20
2.50368
 30
0.0
 10
-1.93682
 20
2.50368
 30
0.0
 10
-1.93039
 20
2.49077
 30
0.0
 10
-1.92391
 20
2.465
 30
0.0
 10
-1.91105
 20
2.43277
 30
0.0
 10
-1.91105
 20
2.43277
 30
0.0
 10
-2.01416
 20
2.44566
 30
0.0
 10
-2.12378
 20
2.465
 30
0.0
 10
-2.2462
 20
2.48434
 30
0.0
 10
-2.2462
 20
2.48434
 30
0.0
 10
-2.34936
 20
2.51011
 30
0.0
 10
-2.44607
 20
2.52302
 30
0.0
 10
-2.53626
 20
2.54234
 30
0.0
 10
-2.53626
 20
2.54234
 30
0.0
 10
-2.53626
 20
2.54234
 30
0.0
 10
-2.53626
 20
2.54234
 30
0.0
 10
-2.53626
 20
2.54234
 30
0.0
 10
-2.53626
 20
2.54234
 30
0.0
 10
-2.73613
 20
2.58748
 30
0.0
 10
-2.9424
 20
2.63902
 30
0.0
 10
-3.14861
 20
2.70347
 30
0.0
 10
-3.14861
 20
2.70347
 30
0.0
 10
-3.36139
 20
2.76792
 30
0.0
 10
-3.60629
 20
2.8324
 30
0.0
 10
-3.90926
 20
2.89042
 30
0.0
 10
-3.90926
 20
2.89042
 30
0.0
 10
-4.19932
 20
2.94199
 30
0.0
 10
-4.52161
 20
2.99998
 30
0.0
 10
-4.8761
 20
3.07735
 30
0.0
 10
-4.8761
 20
3.07735
 30
0.0
 10
-5.23062
 20
3.14826
 30
0.0
 10
-5.50782
 20
3.21271
 30
0.0
 10
-5.70761
 20
3.26428
 30
0.0
 10
-5.70761
 20
3.26428
 30
0.0
 10
-5.90742
 20
3.31582
 30
0.0
 10
-6.19751
 20
3.39964
 30
0.0
 10
-6.5778
 20
3.48986
 30
0.0
 10
-6.5778
 20
3.48986
 30
0.0
 10
-6.95814
 20
3.58654
 30
0.0
 10
-7.31908
 20
3.6897
 30
0.0
 10
-7.66071
 20
3.79924
 30
0.0
 10
-7.66071
 20
3.79924
 30
0.0
 10
-8.00234
 20
3.90237
 30
0.0
 10
-8.22792
 20
3.97974
 30
0.0
 10
-8.3504
 20
4.01199
 30
0.0
 10
-8.3504
 20
4.01199
 30
0.0
 10
-8.48576
 20
4.05067
 30
0.0
 10
-8.76296
 20
4.12155
 30
0.0
 10
-9.19482
 20
4.21823
 30
0.0
 10
-9.19482
 20
4.21823
 30
0.0
 10
-9.19482
 20
4.21823
 30
0.0
 10
-9.55593
 20
4.21823
 30
0.0
 10
-9.55593
 20
4.21823
 30
0.0
 10
-9.55593
 20
4.21823
 30
0.0
 10
-9.43348
 20
4.04421
 30
0.0
 10
-9.31101
 20
3.92817
 30
0.0
 10
-9.1885
 20
3.88308
 30
0.0
 10
-9.1885
 20
3.88308
 30
0.0
 10
-9.06602
 20
3.83149
 30
0.0
 10
-8.80819
 20
3.72192
 30
0.0
 10
-8.40213
 20
3.56079
 30
0.0
 10
-8.40213
 20
3.56079
 30
0.0
 10
-8.24097
 20
3.48988
 30
0.0
 10
-7.9058
 20
3.37386
 30
0.0
 10
-7.40304
 20
3.21273
 30
0.0
 10
-7.40304
 20
3.21273
 30
0.0
 10
-6.90671
 20
3.0516
 30
0.0
 10
-6.51994
 20
2.90333
 30
0.0
 10
-6.24924
 20
2.78731
 30
0.0
 10
-6.24924
 20
2.78731
 30
0.0
 10
-5.97206
 20
2.66483
 30
0.0
 10
-5.66911
 20
2.54236
 30
0.0
 10
-5.34037
 20
2.43279
 30
0.0
 10
-5.34037
 20
2.43279
 30
0.0
 10
-5.01808
 20
2.31674
 30
0.0
 10
-4.80536
 20
2.23298
 30
0.0
 10
-4.70868
 20
2.18141
 30
0.0
 10
-4.70868
 20
2.18141
 30
0.0
 10
-4.61197
 20
2.12982
 30
0.0
 10
-4.46376
 20
2.07182
 30
0.0
 10
-4.26394
 20
2.00091
 30
0.0
 10
-4.26394
 20
2.00091
 30
0.0
 10
-4.07056
 20
1.93
 30
0.0
 10
-3.83846
 20
1.82689
 30
0.0
 10
-3.57422
 20
1.69799
 30
0.0
 10
-3.57422
 20
1.69799
 30
0.0
 10
-3.31638
 20
1.56263
 30
0.0
 10
-3.11652
 20
1.45304
 30
0.0
 10
-2.9683
 20
1.3757
 30
0.0
 10
-2.9683
 20
1.3757
 30
0.0
 10
-3.00701
 20
1.30479
 30
0.0
 10
-3.07146
 20
1.20811
 30
0.0
 10
-3.16817
 20
1.09207
 30
0.0
 10
-3.16817
 20
1.09207
 30
0.0
 10
-3.30991
 20
0.89869
 30
0.0
 10
-3.39375
 20
0.78269
 30
0.0
 10
-3.40661
 20
0.73113
 30
0.0
 10
-3.40661
 20
0.73113
 30
0.0
 10
-3.5162
 20
0.41527
 30
0.0
 10
-3.56777
 20
0.12521
 30
0.0
 10
-3.56777
 20
-0.13906
 30
0.0
 10
-3.56777
 20
-0.13906
 30
0.0
 10
-3.56777
 20
-0.22934
 30
0.0
 10
-3.55494
 20
-0.33244
 30
0.0
 10
-3.52268
 20
-0.47426
 30
0.0
 10
-3.52268
 20
-0.47426
 30
0.0
 10
-3.5162
 20
-0.51294
 30
0.0
 10
-3.50329
 20
-0.55162
 30
0.0
 10
-3.49045
 20
-0.60962
 30
0.0
 10
-3.49045
 20
-0.60962
 30
0.0
 10
-3.72889
 20
-0.69341
 30
0.0
 10
-3.9739
 20
-0.81586
 30
0.0
 10
-4.21882
 20
-0.97062
 30
0.0
 10
-4.21882
 20
-0.97062
 30
0.0
 10
-4.39929
 20
-1.09304
 30
0.0
 10
-4.61847
 20
-1.26068
 30
0.0
 10
-4.88917
 20
-1.47978
 30
0.0
 10
-4.88917
 20
-1.47978
 30
0.0
 10
-4.94717
 20
-1.5314
 30
0.0
 10
-5.02453
 20
-1.55714
 30
0.0
 10
-5.12124
 20
-1.56363
 30
0.0
 10
-5.12124
 20
-1.56363
 30
0.0
 10
-5.15347
 20
-1.56363
 30
0.0
 10
-5.19858
 20
-1.56363
 30
0.0
 10
-5.26303
 20
-1.57006
 30
0.0
 10
-5.26303
 20
-1.57006
 30
0.0
 10
-5.31462
 20
-1.57006
 30
0.0
 10
-5.37262
 20
-1.58295
 30
0.0
 10
-5.4113
 20
-1.59586
 30
0.0
 10
-5.4113
 20
-1.59586
 30
0.0
 10
-5.4693
 20
-1.60869
 30
0.0
 10
-5.52086
 20
-1.62163
 30
0.0
 10
-5.54021
 20
-1.62811
 30
0.0
 10
-5.54021
 20
-1.62811
 30
0.0
 10
-5.58532
 20
-1.64742
 30
0.0
 10
-5.63046
 20
-1.67317
 30
0.0
 10
-5.68846
 20
-1.71188
 30
0.0
 10
-5.68846
 20
-1.71188
 30
0.0
 10
-5.71423
 20
-1.72479
 30
0.0
 10
-5.81091
 20
-1.74413
 30
0.0
 10
-5.95918
 20
-1.75054
 30
0.0
 10
-5.95918
 20
-1.75054
 30
0.0
 10
-5.97207
 20
-1.75054
 30
0.0
 10
-6.04943
 20
-1.76985
 30
0.0
 10
-6.16542
 20
-1.80208
 30
0.0
 10
-6.16542
 20
-1.80208
 30
0.0
 10
-6.28147
 20
-1.8279
 30
0.0
 10
-6.37815
 20
-1.84082
 30
0.0
 10
-6.47482
 20
-1.84082
 30
0.0
 10
-6.47482
 20
-1.84082
 30
0.0
 10
-6.56507
 20
-1.83434
 30
0.0
 10
-6.65529
 20
-1.84722
 30
0.0
 10
-6.75843
 20
-1.88593
 30
0.0
 10
-6.75843
 20
-1.88593
 30
0.0
 10
-6.82288
 20
-1.91818
 30
0.0
 10
-6.86156
 20
-1.93102
 30
0.0
 10
-6.87445
 20
-1.93102
 30
0.0
 10
-6.87445
 20
-1.93102
 30
0.0
 10
-6.90668
 20
-1.94391
 30
0.0
 10
-6.94536
 20
-1.95039
 30
0.0
 10
-6.97758
 20
-1.95039
 30
0.0
 10
-6.97758
 20
-1.95039
 30
0.0
 10
-7.00338
 20
-1.95039
 30
0.0
 10
-7.06783
 20
-1.94391
 30
0.0
 10
-7.17742
 20
-1.92457
 30
0.0
 10
-7.17742
 20
-1.92457
 30
0.0
 10
-7.2741
 20
-1.92457
 30
0.0
 10
-7.35789
 20
-1.94388
 30
0.0
 10
-7.42234
 20
-1.98905
 30
0.0
 10
-7.42234
 20
-1.98905
 30
0.0
 10
-7.48679
 20
-2.04059
 30
0.0
 10
-7.53193
 20
-2.11796
 30
0.0
 10
-7.56416
 20
-2.22757
 30
0.0
 10
-7.56416
 20
-2.22757
 30
0.0
 10
-7.53193
 20
-2.22757
 30
0.0
 10
-7.49325
 20
-2.20175
 30
0.0
 10
-7.43523
 20
-2.15021
 30
0.0
 10
-7.43523
 20
-2.15021
 30
0.0
 10
-7.37723
 20
-2.09864
 30
0.0
 10
-7.33855
 20
-2.06642
 30
0.0
 10
-7.31278
 20
-2.06642
 30
0.0
 10
-7.31278
 20
-2.06642
 30
0.0
 10
-7.28055
 20
-2.06642
 30
0.0
 10
-7.22896
 20
-2.07285
 30
0.0
 10
-7.14519
 20
-2.08573
 30
0.0
 10
-7.14519
 20
-2.08573
 30
0.0
 10
-7.06783
 20
-2.09862
 30
0.0
 10
-7.01626
 20
-2.11155
 30
0.0
 10
-6.98406
 20
-2.11155
 30
0.0
 10
-6.98406
 20
-2.11155
 30
0.0
 10
-6.91958
 20
-2.11155
 30
0.0
 10
-6.8487
 20
-2.09864
 30
0.0
 10
-6.77131
 20
-2.06641
 30
0.0
 10
-6.77131
 20
-2.06641
 30
0.0
 10
-6.694
 20
-2.03418
 30
0.0
 10
-6.64886
 20
-2.02127
 30
0.0
 10
-6.62952
 20
-2.02127
 30
0.0
 10
-6.62952
 20
-2.02127
 30
0.0
 10
-6.61661
 20
-2.02127
 30
0.0
 10
-6.58438
 20
-2.0277
 30
0.0
 10
-6.55216
 20
-2.03418
 30
0.0
 10
-6.55216
 20
-2.03418
 30
0.0
 10
-6.51348
 20
-2.04707
 30
0.0
 10
-6.48771
 20
-2.05349
 30
0.0
 10
-6.47482
 20
-2.05349
 30
0.0
 10
-6.47482
 20
-2.05349
 30
0.0
 10
-6.42323
 20
-2.05349
 30
0.0
 10
-6.35877
 20
-2.03418
 30
0.0
 10
-6.30723
 20
-2.00192
 30
0.0
 10
-6.30723
 20
-2.00192
 30
0.0
 10
-6.22987
 20
-1.96969
 30
0.0
 10
-6.18478
 20
-1.9439
 30
0.0
 10
-6.15896
 20
-1.93747
 30
0.0
 10
-6.15896
 20
-1.93747
 30
0.0
 10
-6.11385
 20
-1.92456
 30
0.0
 10
-6.0494
 20
-1.92456
 30
0.0
 10
-5.97206
 20
-1.92456
 30
0.0
 10
-5.97206
 20
-1.92456
 30
0.0
 10
-5.88181
 20
-1.93099
 30
0.0
 10
-5.82381
 20
-1.93099
 30
0.0
 10
-5.79159
 20
-1.92456
 30
0.0
 10
-5.79159
 20
-1.92456
 30
0.0
 10
-5.73359
 20
-1.91167
 30
0.0
 10
-5.66914
 20
-1.89876
 30
0.0
 10
-5.58532
 20
-1.87302
 30
0.0
 10
-5.58532
 20
-1.87302
 30
0.0
 10
-5.4951
 20
-1.84079
 30
0.0
 10
-5.42419
 20
-1.82148
 30
0.0
 10
-5.37262
 20
-1.80854
 30
0.0
 10
-5.37262
 20
-1.80854
 30
0.0
 10
-5.18572
 20
-1.75052
 30
0.0
 10
-5.03745
 20
-1.72477
 30
0.0
 10
-4.91497
 20
-1.72477
 30
0.0
 10
-4.91497
 20
-1.72477
 30
0.0
 10
-4.79249
 20
-1.74408
 30
0.0
 10
-4.72159
 20
-1.75051
 30
0.0
 10
-4.69579
 20
-1.75051
 30
0.0
 10
-4.69579
 20
-1.75051
 30
0.0
 10
-4.63131
 20
-1.75051
 30
0.0
 10
-4.54754
 20
-1.71185
 30
0.0
 10
-4.43795
 20
-1.62809
 30
0.0
 10
-4.43795
 20
-1.62809
 30
0.0
 10
-4.38641
 20
-1.58295
 30
0.0
 10
-4.27682
 20
-1.49268
 30
0.0
 10
-4.12857
 20
-1.35737
 30
0.0
 10
-4.12857
 20
-1.35737
 30
0.0
 10
-3.98675
 20
-1.22844
 30
0.0
 10
-3.87722
 20
-1.13819
 30
0.0
 10
-3.79985
 20
-1.08662
 30
0.0
 10
-3.79985
 20
-1.08662
 30
0.0
 10
-3.68383
 20
-1.00285
 30
0.0
 10
-3.58715
 20
-0.96414
 30
0.0
 10
-3.5033
 20
-0.96414
 30
0.0
 10
-3.5033
 20
-0.96414
 30
0.0
 10
-3.45824
 20
-0.96414
 30
0.0
 10
-3.42602
 20
-0.97062
 30
0.0
 10
-3.40019
 20
-0.97703
 30
0.0
 10
-3.40019
 20
-0.97703
 30
0.0
 10
-3.38088
 20
-0.98351
 30
0.0
 10
-3.36796
 20
-1.00285
 30
0.0
 10
-3.34865
 20
-1.02857
 30
0.0
 10
-3.34865
 20
-1.02857
 30
0.0
 10
-3.32934
 20
-1.06082
 30
0.0
 10
-3.30994
 20
-1.07371
 30
0.0
 10
-3.30351
 20
-1.09305
 30
0.0
 10
-3.30351
 20
-1.09305
 30
0.0
 10
-3.2906
 20
-1.09953
 30
0.0
 10
-3.27771
 20
-1.11242
 30
0.0
 10
-3.25197
 20
-1.13176
 30
0.0
 10
-3.25197
 20
-1.13176
 30
0.0
 10
-3.27128
 20
-1.13176
 30
0.0
 10
-3.2842
 20
-1.14467
 30
0.0
 10
-3.30994
 20
-1.15107
 30
0.0
 10
-3.30994
 20
-1.15107
 30
0.0
 10
-3.30994
 20
-1.1575
 30
0.0
 10
-3.30994
 20
-1.16398
 30
0.0
 10
-3.31642
 20
-1.16398
 30
0.0
 10
-3.31642
 20
-1.16398
 30
0.0
 10
-3.32285
 20
-1.17038
 30
0.0
 10
-3.32285
 20
-1.17038
 30
0.0
 10
-3.32285
 20
-1.17687
 30
0.0
 10
-3.32285
 20
-1.17687
 30
0.0
 10
-3.26488
 20
-1.17039
 30
0.0
 10
-3.23906
 20
-1.19618
 30
0.0
 10
-3.23906
 20
-1.23484
 30
0.0
 10
-3.23906
 20
-1.23484
 30
0.0
 10
-3.23906
 20
-1.25415
 30
0.0
 10
-3.29708
 20
-1.34443
 30
0.0
 10
-3.41953
 20
-1.50556
 30
0.0
 10
-3.41953
 20
-1.50556
 30
0.0
 10
-3.54846
 20
-1.6796
 30
0.0
 10
-3.63223
 20
-1.79562
 30
0.0
 10
-3.65162
 20
-1.85365
 30
0.0
 10
-3.65162
 20
-1.85365
 30
0.0
 10
-3.7289
 20
-2.01481
 30
0.0
 10
-3.82561
 20
-2.25325
 30
0.0
 10
-3.95452
 20
-2.56911
 30
0.0
 10
-3.95452
 20
-2.56911
 30
0.0
 10
-3.97391
 20
-2.61425
 30
0.0
 10
-4.03837
 20
-2.73027
 30
0.0
 10
-4.13505
 20
-2.91074
 30
0.0
 10
-4.13505
 20
-2.91074
 30
0.0
 10
-4.21233
 20
-3.04613
 30
0.0
 10
-4.26398
 20
-3.16215
 30
0.0
 10
-4.2833
 20
-3.27174
 30
0.0
 10
-4.2833
 20
-3.27174
 30
0.0
 10
-4.30904
 20
-3.37485
 30
0.0
 10
-4.3735
 20
-3.49087
 30
0.0
 10
-4.47018
 20
-3.61337
 30
0.0
 10
-4.47018
 20
-3.61337
 30
0.0
 10
-4.48957
 20
-3.6456
 30
0.0
 10
-4.53463
 20
-3.69714
 30
0.0
 10
-4.59911
 20
-3.76162
 30
0.0
 10
-4.59911
 20
-3.76162
 30
0.0
 10
-4.65073
 20
-3.8261
 30
0.0
 10
-4.69579
 20
-3.89053
 30
0.0
 10
-4.72807
 20
-3.94207
 30
0.0
 10
-4.72807
 20
-3.94207
 30
0.0
 10
-4.69582
 20
-3.94207
 30
0.0
 10
-4.66356
 20
-3.92278
 30
0.0
 10
-4.61851
 20
-3.89053
 30
0.0
 10
-4.61851
 20
-3.89053
 30
0.0
 10
-4.56689
 20
-3.83899
 30
0.0
 10
-4.52183
 20
-3.81317
 30
0.0
 10
-4.50244
 20
-3.80676
 30
0.0
 10
-4.50244
 20
-3.80676
 30
0.0
 10
-4.50244
 20
-3.80676
 30
0.0
 10
-4.50244
 20
-3.87121
 30
0.0
 10
-4.50244
 20
-3.87121
 30
0.0
 10
-4.50244
 20
-3.87121
 30
0.0
 10
-4.50244
 20
-3.87764
 30
0.0
 10
-4.50892
 20
-3.92278
 30
0.0
 10
-4.54115
 20
-4.00654
 30
0.0
 10
-4.54115
 20
-4.00654
 30
0.0
 10
-4.58629
 20
-4.11616
 30
0.0
 10
-4.61851
 20
-4.22572
 30
0.0
 10
-4.66357
 20
-4.32886
 30
0.0
 10
-4.66357
 20
-4.32886
 30
0.0
 10
-4.79898
 20
-4.65115
 30
0.0
 10
-4.92143
 20
-4.87033
 30
0.0
 10
-5.04391
 20
-4.98635
 30
0.0
 10
-5.04391
 20
-4.98635
 30
0.0
 10
-5.04391
 20
-4.98635
 30
0.0
 10
-4.973
 20
-4.98634
 30
0.0
 10
-4.973
 20
-4.98634
 30
0.0
 10
-4.973
 20
-4.98634
 30
0.0
 10
-4.973
 20
-4.98634
 30
0.0
 10
-4.96654
 20
-4.97343
 30
0.0
 10
-4.95369
 20
-4.96703
 30
0.0
 10
-4.95369
 20
-4.96703
 30
0.0
 10
-4.94078
 20
-4.96703
 30
0.0
 10
-4.94078
 20
-4.96703
 30
0.0
 10
-4.92789
 20
-4.96703
 30
0.0
 10
-4.92789
 20
-4.96703
 30
0.0
 10
-4.92789
 20
-4.96703
 30
0.0
 10
-4.92789
 20
-4.96703
 30
0.0
 10
-4.92789
 20
-4.96703
 30
0.0
 10
-4.92789
 20
-4.96703
 30
0.0
 10
-4.89566
 20
-5.05082
 30
0.0
 10
-4.95369
 20
-5.09594
 30
0.0
 10
-5.08259
 20
-5.10236
 30
0.0
 10
-5.08259
 20
-5.10236
 30
0.0
 10
-5.11482
 20
-5.10236
 30
0.0
 10
-5.16638
 20
-5.10236
 30
0.0
 10
-5.24375
 20
-5.10236
 30
0.0
 10
-5.24375
 20
-5.10236
 30
0.0
 10
-5.3082
 20
-5.09593
 30
0.0
 10
-5.34043
 20
-5.09593
 30
0.0
 10
-5.35977
 20
-5.10236
 30
0.0
 10
-5.35977
 20
-5.10236
 30
0.0
 10
-5.37911
 20
-5.11525
 30
0.0
 10
-5.44356
 20
-5.13459
 30
0.0
 10
-5.54667
 20
-5.17329
 30
0.0
 10
-5.54667
 20
-5.17329
 30
0.0
 10
-5.63695
 20
-5.20554
 30
0.0
 10
-5.71426
 20
-5.23126
 30
0.0
 10
-5.77228
 20
-5.2442
 30
0.0
 10
-5.77228
 20
-5.2442
 30
0.0
 10
-5.86896
 20
-5.27643
 30
0.0
 10
-6.03012
 20
-5.31508
 30
0.0
 10
-6.26218
 20
-5.36668
 30
0.0
 10
-6.26218
 20
-5.36668
 30
0.0
 10
-6.53938
 20
-5.43116
 30
0.0
 10
-6.71337
 20
-5.46339
 30
0.0
 10
-6.78428
 20
-5.46339
 30
0.0
 10
-6.78428
 20
-5.46339
 30
0.0
 10
-6.91964
 20
-5.46339
 30
0.0
 10
-7.03566
 20
-5.45048
 30
0.0
 10
-7.11948
 20
-5.41825
 30
0.0
 10
-7.11948
 20
-5.41825
 30
0.0
 10
-7.20973
 20
-5.39243
 30
0.0
 10
-7.31286
 20
-5.37311
 30
0.0
 10
-7.43531
 20
-5.37311
 30
0.0
 10
-7.43531
 20
-5.37311
 30
0.0
 10
-7.52556
 20
-5.37311
 30
0.0
 10
-7.58356
 20
-5.37951
 30
0.0
 10
-7.59647
 20
-5.386
 30
0.0
 10
-7.59647
 20
-5.386
 30
0.0
 10
-7.64801
 20
-5.39243
 30
0.0
 10
-7.66738
 20
-5.41825
 30
0.0
 10
-7.66092
 20
-5.45048
 30
0.0
 10
-7.66092
 20
-5.45048
 30
0.0
 10
-7.71249
 20
-5.40534
 30
0.0
 10
-7.74471
 20
-5.37312
 30
0.0
 10
-7.77694
 20
-5.3538
 30
0.0
 10
-7.77694
 20
-5.3538
 30
0.0
 10
-7.82853
 20
-5.32157
 30
0.0
 10
-7.91876
 20
-5.30866
 30
0.0
 10
-8.03478
 20
-5.32157
 30
0.0
 10
-8.03478
 20
-5.32157
 30
0.0
 10
-8.11214
 20
-5.32797
 30
0.0
 10
-8.1766
 20
-5.31509
 30
0.0
 10
-8.24105
 20
-5.28283
 30
0.0
 10
-8.24105
 20
-5.28283
 30
0.0
 10
-8.27973
 20
-5.26354
 30
0.0
 10
-8.30553
 20
-5.2506
 30
0.0
 10
-8.30553
 20
-5.2506
 30
0.0
 10
-8.30553
 20
-5.2506
 30
0.0
 10
-8.33776
 20
-5.2442
 30
0.0
 10
-8.35707
 20
-5.23129
 30
0.0
 10
-8.38932
 20
-5.23129
 30
0.0
 10
-8.38932
 20
-5.23129
 30
0.0
 10
-8.40223
 20
-5.23129
 30
0.0
 10
-8.41509
 20
-5.2442
 30
0.0
 10
-8.44091
 20
-5.25711
 30
0.0
 10
-8.44091
 20
-5.25711
 30
0.0
 10
-8.47314
 20
-5.27
 30
0.0
 10
-8.49891
 20
-5.27642
 30
0.0
 10
-8.5247
 20
-5.27642
 30
0.0
 10
-8.5247
 20
-5.27642
 30
0.0
 10
-8.5827
 20
-5.27642
 30
0.0
 10
-8.66006
 20
-5.25711
 30
0.0
 10
-8.75031
 20
-5.2184
 30
0.0
 10
-8.75031
 20
-5.2184
 30
0.0
 10
-8.84056
 20
-5.17974
 30
0.0
 10
-8.90501
 20
-5.13461
 30
0.0
 10
-8.92435
 20
-5.09595
 30
0.0
 10
-8.92435
 20
-5.09595
 30
0.0
 10
-9.16927
 20
-5.28933
 30
0.0
 10
-9.30466
 20
-5.48269
 30
0.0
 10
-9.32398
 20
-5.68899
 30
0.0
 10
-9.32398
 20
-5.68899
 30
0.0
 10
-9.29175
 20
-5.67608
 30
0.0
 10
-9.2595
 20
-5.66317
 30
0.0
 10
-9.22085
 20
-5.63097
 30
0.0
 10
-9.22085
 20
-5.63097
 30
0.0
 10
-9.20799
 20
-5.62454
 30
0.0
 10
-9.16931
 20
-5.59872
 30
0.0
 10
-9.11129
 20
-5.54718
 30
0.0
 10
-9.11129
 20
-5.54718
 30
0.0
 10
-9.02104
 20
-5.46982
 30
0.0
 10
-8.93725
 20
-5.43759
 30
0.0
 10
-8.87277
 20
-5.43759
 30
0.0
 10
-8.87277
 20
-5.43759
 30
0.0
 10
-8.77609
 20
-5.43759
 30
0.0
 10
-8.6343
 20
-5.45048
 30
0.0
 10
-8.43449
 20
-5.49561
 30
0.0
 10
-8.43449
 20
-5.49561
 30
0.0
 10
-8.26042
 20
-5.53427
 30
0.0
 10
-8.14443
 20
-5.55358
 30
0.0
 10
-8.07997
 20
-5.57938
 30
0.0
 10
-8.07997
 20
-5.57938
 30
0.0
 10
-8.04129
 20
-5.59229
 30
0.0
 10
-7.98329
 20
-5.59869
 30
0.0
 10
-7.90593
 20
-5.58581
 30
0.0
 10
-7.90593
 20
-5.58581
 30
0.0
 10
-7.82214
 20
-5.57938
 30
0.0
 10
-7.76414
 20
-5.58581
 30
0.0
 10
-7.72546
 20
-5.60512
 30
0.0
 10
-7.72546
 20
-5.60512
 30
0.0
 10
-7.57076
 20
-5.68248
 30
0.0
 10
-7.44185
 20
-5.72119
 30
0.0
 10
-7.33872
 20
-5.72119
 30
0.0
 10
-7.33872
 20
-5.72119
 30
0.0
 10
-7.28072
 20
-5.72119
 30
0.0
 10
-7.22267
 20
-5.72119
 30
0.0
 10
-7.17113
 20
-5.70182
 30
0.0
 10
-7.17113
 20
-5.70182
 30
0.0
 10
-7.16467
 20
-5.70182
 30
0.0
 10
-7.11313
 20
-5.69539
 30
0.0
 10
-7.00354
 20
-5.66316
 30
0.0
 10
-7.00354
 20
-5.66316
 30
0.0
 10
-7.00354
 20
-5.66316
 30
0.0
 10
-6.74571
 20
-5.66317
 30
0.0
 10
-6.74571
 20
-5.66317
 30
0.0
 10
-6.74571
 20
-5.66317
 30
0.0
 10
-6.74571
 20
-5.6954
 30
0.0
 10
-6.75217
 20
-5.70831
 30
0.0
 10
-6.75862
 20
-5.70831
 30
0.0
 10
-6.75862
 20
-5.70831
 30
0.0
 10
-6.75862
 20
-5.70831
 30
0.0
 10
-6.75862
 20
-5.79208
 30
0.0
 10
-6.75862
 20
-5.79208
 30
0.0
 10
-6.75862
 20
-5.79208
 30
0.0
 10
-6.59103
 20
-5.7212
 30
0.0
 10
-6.26229
 20
-5.63095
 30
0.0
 10
-5.77884
 20
-5.52784
 30
0.0
 10
-5.77884
 20
-5.52784
 30
0.0
 10
-5.50814
 20
-5.46982
 30
0.0
 10
-5.32119
 20
-5.43116
 30
0.0
 10
-5.21163
 20
-5.40534
 30
0.0
 10
-5.21163
 20
-5.40534
 30
0.0
 10
-5.01182
 20
-5.36023
 30
0.0
 10
-4.8442
 20
-5.30866
 30
0.0
 10
-4.71532
 20
-5.26355
 30
0.0
 10
-4.71532
 20
-5.26355
 30
0.0
 10
-4.71532
 20
-5.26355
 30
0.0
 10
-4.71532
 20
-5.40534
 30
0.0
 10
-4.71532
 20
-5.40534
 30
0.0
 10
-4.71532
 20
-5.40534
 30
0.0
 10
-4.74106
 20
-5.46982
 30
0.0
 10
-4.76689
 20
-5.55361
 30
0.0
 10
-4.79911
 20
-5.66318
 30
0.0
 10
-4.79911
 20
-5.66318
 30
0.0
 10
-4.79911
 20
-5.66318
 30
0.0
 10
-4.79265
 20
-5.66961
 30
0.0
 10
-4.79265
 20
-5.66961
 30
0.0
 10
-4.79265
 20
-5.66961
 30
0.0
 10
-4.69594
 20
-5.5665
 30
0.0
 10
-4.61863
 20
-5.45048
 30
0.0
 10
-4.55418
 20
-5.32798
 30
0.0
 10
-4.55418
 20
-5.32798
 30
0.0
 10
-4.50256
 20
-5.2249
 30
0.0
 10
-4.4575
 20
-5.09594
 30
0.0
 10
-4.41236
 20
-4.94772
 30
0.0
 10
-4.41236
 20
-4.94772
 30
0.0
 10
-4.36722
 20
-4.76719
 30
0.0
 10
-4.32857
 20
-4.63186
 30
0.0
 10
-4.30277
 20
-4.53516
 30
0.0
 10
-4.30277
 20
-4.53516
 30
0.0
 10
-4.25763
 20
-4.35469
 30
0.0
 10
-4.20609
 20
-4.20644
 30
0.0
 10
-4.15452
 20
-4.07105
 30
0.0
 10
-4.15452
 20
-4.07105
 30
0.0
 10
-4.14804
 20
-4.07105
 30
0.0
 10
-4.14804
 20
-4.07105
 30
0.0
 10
-4.14161
 20
-4.06462
 30
0.0
 10
-4.14161
 20
-4.06462
 30
0.0
 10
-4.13518
 20
-4.06462
 30
0.0
 10
-4.13518
 20
-4.06462
 30
0.0
 10
-4.1223
 20
-4.06462
 30
0.0
 10
-4.1223
 20
-4.06462
 30
0.0
 10
-4.1223
 20
-4.06462
 30
0.0
 10
-4.10299
 20
-4.1291
 30
0.0
 10
-4.07076
 20
-4.24509
 30
0.0
 10
-4.07076
 20
-4.24509
 30
0.0
 10
-4.05137
 20
-4.30957
 30
0.0
 10
-4.04494
 20
-4.35468
 30
0.0
 10
-4.03853
 20
-4.39982
 30
0.0
 10
-4.03853
 20
-4.39982
 30
0.0
 10
-4.05784
 20
-3.87124
 30
0.0
 10
-3.93537
 20
-3.35559
 30
0.0
 10
-3.66462
 20
-2.83992
 30
0.0
 10
-3.66462
 20
-2.83992
 30
0.0
 10
-3.61953
 20
-2.74324
 30
0.0
 10
-3.57442
 20
-2.61434
 30
0.0
 10
-3.53569
 20
-2.45318
 30
0.0
 10
-3.53569
 20
-2.45318
 30
0.0
 10
-3.47772
 20
-2.234
 30
0.0
 10
-3.4519
 20
-2.10509
 30
0.0
 10
-3.43901
 20
-2.07935
 30
0.0
 10
-3.43901
 20
-2.07935
 30
0.0
 10
-3.39392
 20
-1.95042
 30
0.0
 10
-3.34233
 20
-1.85374
 30
0.0
 10
-3.27145
 20
-1.78926
 30
0.0
 10
-3.27145
 20
-1.78926
 30
0.0
 10
-3.18117
 20
-1.71833
 30
0.0
 10
-3.05875
 20
-1.67967
 30
0.0
 10
-2.91051
 20
-1.67967
 30
0.0
 10
-2.91051
 20
-1.67967
 30
0.0
 10
-2.79444
 20
-1.67967
 30
0.0
 10
-2.67842
 20
-1.7119
 30
0.0
 10
-2.55599
 20
-1.76987
 30
0.0
 10
-2.55599
 20
-1.76987
 30
0.0
 10
-2.49151
 20
-1.79569
 30
0.0
 10
-2.39483
 20
-1.84723
 30
0.0
 10
-2.27876
 20
-1.91169
 30
0.0
 10
-2.27876
 20
-1.91169
 30
0.0
 10
-2.27876
 20
-1.91169
 30
0.0
 10
-2.27876
 20
-1.90526
 30
0.0
 10
-2.27876
 20
-1.90526
 30
0.0
 10
-2.27876
 20
-1.90526
 30
0.0
 10
-2.25945
 20
-1.91169
 30
0.0
 10
-2.24013
 20
-1.91817
 30
0.0
 10
-2.22079
 20
-1.93751
 30
0.0
 10
-2.22079
 20
-1.93751
 30
0.0
 10
-2.20148
 20
-1.9504
 30
0.0
 10
-2.18856
 20
-1.96974
 30
0.0
 10
-2.18856
 20
-1.98265
 30
0.0
 10
-2.18856
 20
-1.98265
 30
0.0
 10
-2.18856
 20
-2.02771
 30
0.0
 10
-2.2337
 20
-2.05353
 30
0.0
 10
-2.31098
 20
-2.05353
 30
0.0
 10
-2.31098
 20
-2.05353
 30
0.0
 10
-2.13051
 20
-2.06642
 30
0.0
 10
-1.94363
 20
-2.11798
 30
0.0
 10
-1.75025
 20
-2.22109
 30
0.0
 10
-1.75025
 20
-2.22109
 30
0.0
 10
-1.69863
 20
-2.24691
 30
0.0
 10
-1.62132
 20
-2.29205
 30
0.0
 10
-1.52464
 20
-2.34359
 30
0.0
 10
-1.52464
 20
-2.34359
 30
0.0
 10
-1.44079
 20
-2.39513
 30
0.0
 10
-1.36351
 20
-2.42736
 30
0.0
 10
-1.29906
 20
-2.45318
 30
0.0
 10
-1.29906
 20
-2.45318
 30
0.0
 10
-1.31837
 20
-2.51115
 30
0.0
 10
-1.37637
 20
-2.5628
 30
0.0
 10
-1.45374
 20
-2.60786
 30
0.0
 10
-1.45374
 20
-2.60786
 30
0.0
 10
-1.47305
 20
-2.61434
 30
0.0
 10
-1.50528
 20
-2.63368
 30
0.0
 10
-1.55042
 20
-2.653
 30
0.0
 10
-1.55042
 20
-2.653
 30
0.0
 10
-1.58913
 20
-2.67882
 30
0.0
 10
-1.61487
 20
-2.69171
 30
0.0
 10
-1.63419
 20
-2.71102
 30
0.0
 10
-1.63419
 20
-2.71102
 30
0.0
 10
-1.57625
 20
-2.69813
 30
0.0
 10
-1.49245
 20
-2.67879
 30
0.0
 10
-1.37638
 20
-2.62723
 30
0.0
 10
-1.37638
 20
-2.62723
 30
0.0
 10
-1.2797
 20
-2.58852
 30
0.0
 10
-1.20239
 20
-2.56921
 30
0.0
 10
-1.13791
 20
-2.56921
 30
0.0
 10
-1.13791
 20
-2.56921
 30
0.0
 10
-1.11854
 20
-2.56921
 30
0.0
 10
-1.03475
 20
-2.56921
 30
0.0
 10
-0.89939
 20
-2.58212
 30
0.0
 10
-0.89939
 20
-2.58212
 30
0.0
 10
-0.89939
 20
-2.58212
 30
0.0
 10
-0.89939
 20
-2.61435
 30
0.0
 10
-0.89939
 20
-2.61435
 30
0.0
 10
-0.89939
 20
-2.61435
 30
0.0
 10
-0.92516
 20
-2.62724
 30
0.0
 10
-0.96387
 20
-2.65301
 30
0.0
 10
-1.02184
 20
-2.67883
 30
0.0
 10
-1.02184
 20
-2.67883
 30
0.0
 10
-1.06055
 20
-2.71106
 30
0.0
 10
-1.10569
 20
-2.74328
 30
0.0
 10
-1.13143
 20
-2.76903
 30
0.0
 10
-1.13143
 20
-2.76903
 30
0.0
 10
-1.10569
 20
-2.7562
 30
0.0
 10
-1.04123
 20
-2.73037
 30
0.0
 10
-0.94455
 20
-2.68524
 30
0.0
 10
-0.94455
 20
-2.68524
 30
0.0
 10
-0.88007
 20
-2.65301
 30
0.0
 10
-0.82848
 20
-2.6401
 30
0.0
 10
-0.79625
 20
-2.6401
 30
0.0
 10
-0.79625
 20
-2.6401
 30
0.0
 10
-0.78342
 20
-2.6401
 30
0.0
 10
-0.75762
 20
-2.64658
 30
0.0
 10
-0.71897
 20
-2.66592
 30
0.0
 10
-0.71897
 20
-2.66592
 30
0.0
 10
-0.68023
 20
-2.68523
 30
0.0
 10
-0.65449
 20
-2.68523
 30
0.0
 10
-0.62869
 20
-2.67883
 30
0.0
 10
-0.62869
 20
-2.67883
 30
0.0
 10
-0.6416
 20
-2.77551
 30
0.0
 10
-0.68671
 20
-2.84639
 30
0.0
 10
-0.76402
 20
-2.90441
 30
0.0
 10
-0.76402
 20
-2.90441
 30
0.0
 10
-0.78339
 20
-2.92372
 30
0.0
 10
-0.81564
 20
-2.94307
 30
0.0
 10
-0.86718
 20
-2.98177
 30
0.0
 10
-0.86718
 20
-2.98177
 30
0.0
 10
-0.91232
 20
-3.014
 30
0.0
 10
-0.94454
 20
-3.04625
 30
0.0
 10
-0.9768
 20
-3.08488
 30
0.0
 10
-0.9768
 20
-3.08488
 30
0.0
 10
-0.93166
 20
-3.06557
 30
0.0
 10
-0.84787
 20
-3.00752
 30
0.0
 10
-0.70605
 20
-2.90441
 30
0.0
 10
-0.70605
 20
-2.90441
 30
0.0
 10
-0.57714
 20
-2.80773
 30
0.0
 10
-0.50618
 20
-2.75616
 30
0.0
 10
-0.48687
 20
-2.75616
 30
0.0
 10
-0.48687
 20
-2.75616
 30
0.0
 10
-0.44824
 20
-2.75616
 30
0.0
 10
-0.39019
 20
-2.76256
 30
0.0
 10
-0.31283
 20
-2.7819
 30
0.0
 10
-0.31283
 20
-2.7819
 30
0.0
 10
-0.3
 20
-2.82704
 30
0.0
 10
-0.30643
 20
-2.85926
 30
0.0
 10
-0.33865
 20
-2.89792
 30
0.0
 10
-0.33865
 20
-2.89792
 30
0.0
 10
-0.36447
 20
-2.91729
 30
0.0
 10
-0.40313
 20
-2.94306
 30
0.0
 10
-0.46115
 20
-2.97528
 30
0.0
 10
-0.46115
 20
-2.97528
 30
0.0
 10
-0.53846
 20
-3.01399
 30
0.0
 10
-0.58357
 20
-3.03976
 30
0.0
 10
-0.60289
 20
-3.05264
 30
0.0
 10
-0.60289
 20
-3.05264
 30
0.0
 10
-0.65451
 20
-3.08489
 30
0.0
 10
-0.68025
 20
-3.11712
 30
0.0
 10
-0.68674
 20
-3.15575
 30
0.0
 10
-0.68674
 20
-3.15575
 30
0.0
 10
-0.62229
 20
-3.1235
 30
0.0
 10
-0.52561
 20
-3.06555
 30
0.0
 10
-0.39668
 20
-2.97528
 30
0.0
 10
-0.39668
 20
-2.97528
 30
0.0
 10
-0.28061
 20
-2.9044
 30
0.0
 10
-0.22264
 20
-2.8722
 30
0.0
 10
-0.2033
 20
-2.8722
 30
0.0
 10
-0.2033
 20
-2.8722
 30
0.0
 10
-0.18393
 20
-2.8722
 30
0.0
 10
-0.11945
 20
-2.8722
 30
0.0
 10
-0.00992
 20
-2.88509
 30
0.0
 10
-0.00992
 20
-2.88509
 30
0.0
 10
-0.00992
 20
-2.88509
 30
0.0
 10
-0.00992
 20
-2.91086
 30
0.0
 10
-0.00992
 20
-2.91086
 30
0.0
 10
-0.00992
 20
-2.91086
 30
0.0
 10
-0.04858
 20
-2.9624
 30
0.0
 10
-0.09371
 20
-3.00754
 30
0.0
 10
-0.15168
 20
-3.04625
 30
0.0
 10
-0.15168
 20
-3.04625
 30
0.0
 10
-0.19679
 20
-3.08491
 30
0.0
 10
-0.23553
 20
-3.11713
 30
0.0
 10
-0.25484
 20
-3.15579
 30
0.0
 10
-0.25484
 20
-3.15579
 30
0.0
 10
-0.22259
 20
-3.13002
 30
0.0
 10
-0.14522
 20
-3.08491
 30
0.0
 10
-0.02923
 20
-3.02046
 30
0.0
 10
-0.02923
 20
-3.02046
 30
0.0
 10
0.07393
 20
-2.96244
 30
0.0
 10
0.15122
 20
-2.91735
 30
0.0
 10
0.20284
 20
-2.89796
 30
0.0
 10
0.20284
 20
-2.89796
 30
0.0
 10
0.20284
 20
-2.89796
 30
0.0
 10
0.37682
 20
-2.89793
 30
0.0
 10
0.37682
 20
-2.89793
 30
0.0
 10
0.37682
 20
-2.89793
 30
0.0
 10
0.37682
 20
-2.89793
 30
0.0
 10
0.37682
 20
-2.92375
 30
0.0
 10
0.37682
 20
-2.92375
 30
0.0
 10
0.37682
 20
-2.92375
 30
0.0
 10
0.36399
 20
-2.93664
 30
0.0
 10
0.33816
 20
-2.96889
 30
0.0
 10
0.31234
 20
-3.00754
 30
0.0
 10
0.31234
 20
-3.00754
 30
0.0
 10
0.28011
 20
-3.04625
 30
0.0
 10
0.26728
 20
-3.07847
 30
0.0
 10
0.2608
 20
-3.09779
 30
0.0
 10
0.2608
 20
-3.09779
 30
0.0
 10
0.29303
 20
-3.07848
 30
0.0
 10
0.36396
 20
-3.02043
 30
0.0
 10
0.47998
 20
-2.91086
 30
0.0
 10
0.47998
 20
-2.91086
 30
0.0
 10
0.49287
 20
-2.91086
 30
0.0
 10
0.51864
 20
-2.91732
 30
0.0
 10
0.55734
 20
-2.92375
 30
0.0
 10
0.55734
 20
-2.92375
 30
0.0
 10
0.6024
 20
-2.93664
 30
0.0
 10
0.63465
 20
-2.93664
 30
0.0
 10
0.66042
 20
-2.93664
 30
0.0
 10
0.66042
 20
-2.93664
 30
0.0
 10
0.66042
 20
-2.93664
 30
0.0
 10
0.66042
 20
-2.96889
 30
0.0
 10
0.66042
 20
-2.96889
 30
0.0
 10
0.66042
 20
-2.96889
 30
0.0
 10
0.64113
 20
-3.00755
 30
0.0
 10
0.61531
 20
-3.03977
 30
0.0
 10
0.57017
 20
-3.07197
 30
0.0
 10
0.57017
 20
-3.07197
 30
0.0
 10
0.57017
 20
-3.07197
 30
0.0
 10
0.58954
 20
-3.09779
 30
0.0
 10
0.58954
 20
-3.09779
 30
0.0
 10
0.58954
 20
-3.09779
 30
0.0
 10
0.61531
 20
-3.07848
 30
0.0
 10
0.63463
 20
-3.05908
 30
0.0
 10
0.66685
 20
-3.03331
 30
0.0
 10
0.66685
 20
-3.03331
 30
0.0
 10
0.74421
 20
-2.9882
 30
0.0
 10
0.80224
 20
-2.95595
 30
0.0
 10
0.84738
 20
-2.93663
 30
0.0
 10
0.84738
 20
-2.93663
 30
0.0
 10
0.84738
 20
-2.93663
 30
0.0
 10
0.84738
 20
-3.01399
 30
0.0
 10
0.84738
 20
-3.01399
 30
0.0
 10
0.84738
 20
-3.01399
 30
0.0
 10
0.83449
 20
-3.02042
 30
0.0
 10
0.7829
 20
-3.06556
 30
0.0
 10
0.68622
 20
-3.14932
 30
0.0
 10
0.68622
 20
-3.14932
 30
0.0
 10
0.68622
 20
-3.14932
 30
0.0
 10
0.69905
 20
-3.16223
 30
0.0
 10
0.69905
 20
-3.16223
 30
0.0
 10
0.69905
 20
-3.16223
 30
0.0
 10
0.71196
 20
-3.14932
 30
0.0
 10
0.72487
 20
-3.14292
 30
0.0
 10
0.73779
 20
-3.12998
 30
0.0
 10
0.73779
 20
-3.12998
 30
0.0
 10
0.81515
 20
-3.09127
 30
0.0
 10
0.88604
 20
-3.0333
 30
0.0
 10
0.94406
 20
-2.96885
 30
0.0
 10
0.94406
 20
-2.96885
 30
0.0
 10
0.94406
 20
-2.96885
 30
0.0
 10
0.94406
 20
-3.0333
 30
0.0
 10
0.94406
 20
-3.0333
 30
0.0
 10
0.94406
 20
-3.0333
 30
0.0
 10
0.94406
 20
-3.06555
 30
0.0
 10
0.87958
 20
-3.14932
 30
0.0
 10
0.75068
 20
-3.28465
 30
0.0
 10
0.75068
 20
-3.28465
 30
0.0
 10
0.63461
 20
-3.40715
 30
0.0
 10
0.57015
 20
-3.48452
 30
0.0
 10
0.55081
 20
-3.50383
 30
0.0
 10
0.55081
 20
-3.50383
 30
0.0
 10
0.55081
 20
-3.50383
 30
0.0
 10
0.55729
 20
-3.51674
 30
0.0
 10
0.55729
 20
-3.51674
 30
0.0
 10
0.55729
 20
-3.51674
 30
0.0
 10
0.62177
 20
-3.478
 30
0.0
 10
0.71197
 20
-3.40712
 30
0.0
 10
0.82796
 20
-3.29113
 30
0.0
 10
0.82796
 20
-3.29113
 30
0.0
 10
0.92464
 20
-3.18797
 30
0.0
 10
1.002
 20
-3.12997
 30
0.0
 10
1.06003
 20
-3.11068
 30
0.0
 10
1.06003
 20
-3.11068
 30
0.0
 10
1.06003
 20
-3.13642
 30
0.0
 10
1.06643
 20
-3.16222
 30
0.0
 10
1.07934
 20
-3.17513
 30
0.0
 10
1.07934
 20
-3.17513
 30
0.0
 10
1.09865
 20
-3.19444
 30
0.0
 10
1.10516
 20
-3.20738
 30
0.0
 10
1.10516
 20
-3.22667
 30
0.0
 10
1.10516
 20
-3.22667
 30
0.0
 10
1.10516
 20
-3.30406
 30
0.0
 10
1.04068
 20
-3.43937
 30
0.0
 10
0.90529
 20
-3.64566
 30
0.0
 10
0.90529
 20
-3.64566
 30
0.0
 10
0.90529
 20
-3.64566
 30
0.0
 10
0.9246
 20
-3.65206
 30
0.0
 10
0.9246
 20
-3.65206
 30
0.0
 10
0.9246
 20
-3.65206
 30
0.0
 10
1.03419
 20
-3.49093
 30
0.0
 10
1.11153
 20
-3.37491
 30
0.0
 10
1.14378
 20
-3.31046
 30
0.0
 10
1.14378
 20
-3.31046
 30
0.0
 10
1.22755
 20
-3.31689
 30
0.0
 10
1.2598
 20
-3.362
 30
0.0
 10
1.2598
 20
-3.45228
 30
0.0
 10
1.2598
 20
-3.45228
 30
0.0
 10
1.2598
 20
-3.47159
 30
0.0
 10
1.24049
 20
-3.51676
 30
0.0
 10
1.18241
 20
-3.58119
 30
0.0
 10
1.18241
 20
-3.58119
 30
0.0
 10
1.1631
 20
-3.61985
 30
0.0
 10
1.13735
 20
-3.65855
 30
0.0
 10
1.10513
 20
-3.69721
 30
0.0
 10
1.10513
 20
-3.69721
 30
0.0
 10
1.10513
 20
-3.69721
 30
0.0
 10
1.10513
 20
-3.82614
 30
0.0
 10
1.10513
 20
-3.82614
 30
0.0
 10
1.10513
 20
-3.82614
 30
0.0
 10
1.10513
 20
-3.82614
 30
0.0
 10
1.11797
 20
-3.82617
 30
0.0
 10
1.11797
 20
-3.82617
 30
0.0
 10
1.11797
 20
-3.82617
 30
0.0
 10
1.11797
 20
-3.80686
 30
0.0
 10
1.14379
 20
-3.75526
 30
0.0
 10
1.1889
 20
-3.68435
 30
0.0
 10
1.1889
 20
-3.68435
 30
0.0
 10
1.24047
 20
-3.61987
 30
0.0
 10
1.27269
 20
-3.58124
 30
0.0
 10
1.29201
 20
-3.58124
 30
0.0
 10
1.29201
 20
-3.58124
 30
0.0
 10
1.3049
 20
-3.58124
 30
0.0
 10
1.31132
 20
-3.58767
 30
0.0
 10
1.31783
 20
-3.58767
 30
0.0
 10
1.31783
 20
-3.58767
 30
0.0
 10
1.32423
 20
-3.58767
 30
0.0
 10
1.32423
 20
-3.58767
 30
0.0
 10
1.33714
 20
-3.60056
 30
0.0
 10
1.33714
 20
-3.60056
 30
0.0
 10
1.32423
 20
-3.6521
 30
0.0
 10
1.31132
 20
-3.69724
 30
0.0
 10
1.29848
 20
-3.72949
 30
0.0
 10
1.29848
 20
-3.72949
 30
0.0
 10
1.29848
 20
-3.72949
 30
0.0
 10
1.31779
 20
-3.74238
 30
0.0
 10
1.31779
 20
-3.74238
 30
0.0
 10
1.31779
 20
-3.74238
 30
0.0
 10
1.3371
 20
-3.71015
 30
0.0
 10
1.35645
 20
-3.69084
 30
0.0
 10
1.36293
 20
-3.68436
 30
0.0
 10
1.36293
 20
-3.68436
 30
0.0
 10
1.38222
 20
-3.71018
 30
0.0
 10
1.42738
 20
-3.74238
 30
0.0
 10
1.49184
 20
-3.80686
 30
0.0
 10
1.49184
 20
-3.80686
 30
0.0
 10
1.49184
 20
-3.80686
 30
0.0
 10
1.50467
 20
-3.80038
 30
0.0
 10
1.50467
 20
-3.80038
 30
0.0
 10
1.50467
 20
-3.80038
 30
0.0
 10
1.50467
 20
-3.80686
 30
0.0
 10
1.50467
 20
-3.80686
 30
0.0
 10
1.50467
 20
-3.81327
 30
0.0
 10
1.50467
 20
-3.81327
 30
0.0
 10
1.50467
 20
-3.81327
 30
0.0
 10
1.51117
 20
-3.81325
 30
0.0
 10
1.51117
 20
-3.81325
 30
0.0
 10
1.51117
 20
-3.81325
 30
0.0
 10
1.56271
 20
-3.92287
 30
0.0
 10
1.62719
 20
-4.05177
 30
0.0
 10
1.70455
 20
-4.19999
 30
0.0
 10
1.70455
 20
-4.19999
 30
0.0
 10
1.76903
 20
-4.34181
 30
0.0
 10
1.82057
 20
-4.50296
 30
0.0
 10
1.85923
 20
-4.70275
 30
0.0
 10
1.85923
 20
-4.70275
 30
0.0
 10
1.85923
 20
-4.70275
 30
0.0
 10
1.87859
 20
-4.70276
 30
0.0
 10
1.87859
 20
-4.70276
 30
0.0
 10
1.87859
 20
-4.70276
 30
0.0
 10
1.89142
 20
-4.61256
 30
0.0
 10
1.89142
 20
-4.51588
 30
0.0
 10
1.87859
 20
-4.41918
 30
0.0
 10
1.87859
 20
-4.41918
 30
0.0
 10
1.8979
 20
-4.43849
 30
0.0
 10
1.93013
 20
-4.47072
 30
0.0
 10
1.97527
 20
-4.51586
 30
0.0
 10
1.97527
 20
-4.51586
 30
0.0
 10
2.01393
 20
-4.561
 30
0.0
 10
2.05258
 20
-4.59965
 30
0.0
 10
2.07838
 20
-4.64477
 30
0.0
 10
2.07838
 20
-4.64477
 30
0.0
 10
2.14283
 20
-4.74788
 30
0.0
 10
2.17506
 20
-4.87681
 30
0.0
 10
2.16215
 20
-5.01863
 30
0.0
 10
2.16215
 20
-5.01863
 30
0.0
 10
2.16215
 20
-5.01863
 30
0.0
 10
2.17506
 20
-5.01862
 30
0.0
 10
2.17506
 20
-5.01862
 30
0.0
 10
2.17506
 20
-5.01862
 30
0.0
 10
2.18795
 20
-4.96708
 30
0.0
 10
2.19435
 20
-4.93485
 30
0.0
 10
2.19435
 20
-4.9026
 30
0.0
 10
2.19435
 20
-4.9026
 30
0.0
 10
2.26531
 20
-4.97348
 30
0.0
 10
2.32328
 20
-5.05087
 30
0.0
 10
2.36842
 20
-5.14755
 30
0.0
 10
2.36842
 20
-5.14755
 30
0.0
 10
2.38773
 20
-5.19909
 30
0.0
 10
2.41996
 20
-5.27646
 30
0.0
 10
2.4651
 20
-5.38605
 30
0.0
 10
2.4651
 20
-5.38605
 30
0.0
 10
2.4651
 20
-5.39896
 30
0.0
 10
2.4715
 20
-5.4183
 30
0.0
 10
2.48441
 20
-5.43762
 30
0.0
 10
2.48441
 20
-5.43762
 30
0.0
 10
2.48441
 20
-5.44402
 30
0.0
 10
2.49087
 20
-5.45051
 30
0.0
 10
2.4973
 20
-5.46344
 30
0.0
 10
2.4973
 20
-5.46344
 30
0.0
 10
2.4973
 20
-5.46344
 30
0.0
 10
2.5037
 20
-5.46984
 30
0.0
 10
2.5037
 20
-5.46984
 30
0.0
 10
2.5037
 20
-5.46984
 30
0.0
 10
2.51018
 20
-5.43761
 30
0.0
 10
2.52952
 20
-5.4183
 30
0.0
 10
2.54884
 20
-5.4183
 30
0.0
 10
2.54884
 20
-5.4183
 30
0.0
 10
2.56175
 20
-5.4183
 30
0.0
 10
2.58109
 20
-5.46984
 30
0.0
 10
2.6262
 20
-5.57943
 30
0.0
 10
2.6262
 20
-5.57943
 30
0.0
 10
2.66486
 20
-5.69545
 30
0.0
 10
2.71648
 20
-5.81795
 30
0.0
 10
2.76153
 20
-5.95329
 30
0.0
 10
2.76153
 20
-5.95329
 30
0.0
 10
2.88403
 20
-6.34003
 30
0.0
 10
2.95491
 20
-6.55921
 30
0.0
 10
2.96783
 20
-6.62369
 30
0.0
 10
2.96783
 20
-6.62369
 30
0.0
 10
2.96783
 20
-6.68814
 30
0.0
 10
2.98072
 20
-6.7526
 30
0.0
 10
3.01294
 20
-6.81707
 30
0.0
 10
3.01294
 20
-6.81707
 30
0.0
 10
3.03225
 20
-6.85573
 30
0.0
 10
3.04519
 20
-6.88155
 30
0.0
 10
3.06451
 20
-6.90084
 30
0.0
 10
3.06451
 20
-6.90084
 30
0.0
 10
3.06451
 20
-6.95881
 30
0.0
 10
2.90983
 20
-7.08131
 30
0.0
 10
2.59397
 20
-7.25536
 30
0.0
 10
2.59397
 20
-7.25536
 30
0.0
 10
2.63911
 20
-7.28761
 30
0.0
 10
2.65845
 20
-7.3069
 30
0.0
 10
2.66485
 20
-7.31333
 30
0.0
 10
2.66485
 20
-7.31333
 30
0.0
 10
2.62619
 20
-7.33915
 30
0.0
 10
2.58754
 20
-7.35847
 30
0.0
 10
2.52952
 20
-7.37781
 30
0.0
 10
2.52952
 20
-7.37781
 30
0.0
 10
2.47798
 20
-7.40363
 30
0.0
 10
2.43927
 20
-7.41652
 30
0.0
 10
2.41993
 20
-7.4294
 30
0.0
 10
2.41993
 20
-7.4294
 30
0.0
 10
2.33614
 20
-7.46806
 30
0.0
 10
2.27811
 20
-7.52608
 30
0.0
 10
2.24589
 20
-7.59699
 30
0.0
 10
2.24589
 20
-7.59699
 30
0.0
 10
2.14278
 20
-7.57768
 30
0.0
 10
2.0719
 20
-7.57117
 30
0.0
 10
2.03319
 20
-7.57117
 30
0.0
 10
2.03319
 20
-7.57117
 30
0.0
 10
2.00094
 20
-7.57117
 30
0.0
 10
1.94299
 20
-7.57765
 30
0.0
 10
1.85272
 20
-7.59054
 30
0.0
 10
1.85272
 20
-7.59054
 30
0.0
 10
1.76895
 20
-7.60337
 30
0.0
 10
1.7109
 20
-7.60985
 30
0.0
 10
1.68516
 20
-7.60985
 30
0.0
 10
1.68516
 20
-7.60985
 30
0.0
 10
1.65934
 20
-7.60985
 30
0.0
 10
1.63354
 20
-7.60337
 30
0.0
 10
1.62068
 20
-7.59696
 30
0.0
 10
1.62068
 20
-7.59696
 30
0.0
 10
1.62068
 20
-7.59696
 30
0.0
 10
1.60131
 20
-7.58405
 30
0.0
 10
1.58197
 20
-7.56471
 30
0.0
 10
1.58197
 20
-7.56471
 30
0.0
 10
1.54974
 20
-7.53248
 30
0.0
 10
1.49177
 20
-7.51317
 30
0.0
 10
1.42081
 20
-7.52605
 30
0.0
 10
1.42081
 20
-7.52605
 30
0.0
 10
1.38215
 20
-7.53248
 30
0.0
 10
1.33704
 20
-7.50668
 30
0.0
 10
1.29839
 20
-7.46803
 30
0.0
 10
1.29839
 20
-7.46803
 30
0.0
 10
1.24677
 20
-7.41001
 30
0.0
 10
1.22103
 20
-7.37778
 30
0.0
 10
1.20811
 20
-7.37135
 30
0.0
 10
1.20811
 20
-7.37135
 30
0.0
 10
1.20811
 20
-7.37135
 30
0.0
 10
1.16298
 20
-7.37134
 30
0.0
 10
1.16298
 20
-7.37134
 30
0.0
 10
1.16298
 20
-7.37134
 30
0.0
 10
1.16298
 20
-7.37134
 30
0.0
 10
1.16298
 20
-7.37777
 30
0.0
 10
1.16298
 20
-7.38425
 30
0.0
 10
1.16298
 20
-7.38425
 30
0.0
 10
1.19523
 20
-7.46802
 30
0.0
 10
1.28548
 20
-7.5647
 30
0.0
 10
1.43373
 20
-7.66783
 30
0.0
 10
1.43373
 20
-7.66783
 30
0.0
 10
1.56906
 20
-7.76451
 30
0.0
 10
1.65931
 20
-7.8161
 30
0.0
 10
1.69797
 20
-7.8161
 30
0.0
 10
1.69797
 20
-7.8161
 30
0.0
 10
1.74311
 20
-7.8161
 30
0.0
 10
1.80113
 20
-7.79673
 30
0.0
 10
1.8849
 20
-7.76451
 30
0.0
 10
1.8849
 20
-7.76451
 30
0.0
 10
1.94938
 20
-7.7452
 30
0.0
 10
1.98801
 20
-7.73226
 30
0.0
 10
2.02023
 20
-7.71297
 30
0.0
 10
2.02023
 20
-7.71297
 30
0.0
 10
2.02671
 20
-7.71943
 30
0.0
 10
2.03962
 20
-7.73226
 30
0.0
 10
2.05248
 20
-7.75168
 30
0.0
 10
2.05248
 20
-7.75168
 30
0.0
 10
2.07185
 20
-7.77099
 30
0.0
 10
2.0783
 20
-7.78391
 30
0.0
 10
2.09119
 20
-7.78391
 30
0.0
 10
2.09119
 20
-7.78391
 30
0.0
 10
2.25875
 20
-7.78391
 30
0.0
 10
2.41348
 20
-7.73229
 30
0.0
 10
2.56173
 20
-7.62918
 30
0.0
 10
2.56173
 20
-7.62918
 30
0.0
 10
2.63909
 20
-7.57116
 30
0.0
 10
2.70352
 20
-7.50668
 30
0.0
 10
2.74866
 20
-7.44223
 30
0.0
 10
2.74866
 20
-7.44223
 30
0.0
 10
2.89691
 20
-7.43583
 30
0.0
 10
3.03872
 20
-7.27467
 30
0.0
 10
3.18049
 20
-6.96529
 30
0.0
 10
3.18049
 20
-6.96529
 30
0.0
 10
3.17406
 20
-6.90081
 30
0.0
 10
3.16766
 20
-6.8557
 30
0.0
 10
3.16766
 20
-6.82347
 30
0.0
 10
3.16766
 20
-6.82347
 30
0.0
 10
3.16766
 20
-6.82347
 30
0.0
 10
3.29655
 20
-6.82347
 30
0.0
 10
3.29655
 20
-6.82347
 30
0.0
 10
3.29655
 20
-6.82347
 30
0.0
 10
3.30295
 20
-6.8299
 30
0.0
 10
3.30295
 20
-6.83638
 30
0.0
 10
3.30938
 20
-6.85572
 30
0.0
 10
3.30938
 20
-6.85572
 30
0.0
 10
3.30938
 20
-6.85572
 30
0.0
 10
3.32227
 20
-6.84929
 30
0.0
 10
3.32227
 20
-6.84929
 30
0.0
 10
3.32227
 20
-6.84929
 30
0.0
 10
3.32227
 20
-6.84929
 30
0.0
 10
2.85176
 20
-5.40541
 30
0.0
 10
2.85176
 20
-5.40541
 30
0.0
 10
2.85176
 20
-5.40541
 30
0.0
 10
2.85176
 20
-5.40541
 30
0.0
 10
2.85176
 20
-5.32164
 30
0.0
 10
2.85176
 20
-5.32164
 30
0.0
 10
2.85176
 20
-5.32164
 30
0.0
 10
2.85176
 20
-5.32164
 30
0.0
 10
2.93553
 20
-5.32164
 30
0.0
 10
2.93553
 20
-5.32164
 30
0.0
 10
2.93553
 20
-5.32164
 30
0.0
 10
2.85176
 20
-5.1476
 30
0.0
 10
2.63258
 20
-4.80597
 30
0.0
 10
2.29098
 20
-4.29672
 30
0.0
 10
2.29098
 20
-4.29672
 30
0.0
 10
2.09757
 20
-4.01314
 30
0.0
 10
1.93646
 20
-3.77464
 30
0.0
 10
1.80753
 20
-3.58126
 30
0.0
 10
1.80753
 20
-3.58126
 30
0.0
 10
1.81401
 20
-3.55544
 30
0.0
 10
1.81401
 20
-3.53612
 30
0.0
 10
1.82044
 20
-3.51681
 30
0.0
 10
1.82044
 20
-3.51681
 30
0.0
 10
1.83333
 20
-3.44585
 30
0.0
 10
1.85267
 20
-3.3814
 30
0.0
 10
1.87846
 20
-3.3234
 30
0.0
 10
1.87846
 20
-3.3234
 30
0.0
 10
1.87846
 20
-3.3234
 30
0.0
 10
1.87846
 20
-3.46522
 30
0.0
 10
1.87846
 20
-3.46522
 30
0.0
 10
1.87846
 20
-3.46522
 30
0.0
 10
1.88486
 20
-3.42651
 30
0.0
 10
1.89777
 20
-3.38786
 30
0.0
 10
1.91712
 20
-3.34272
 30
0.0
 10
1.91712
 20
-3.34272
 30
0.0
 10
1.95578
 20
-3.27184
 30
0.0
 10
2.00737
 20
-3.2267
 30
0.0
 10
2.06537
 20
-3.19447
 30
0.0
 10
2.06537
 20
-3.19447
 30
0.0
 10
2.07185
 20
-3.25244
 30
0.0
 10
2.08468
 20
-3.3298
 30
0.0
 10
2.11051
 20
-3.43939
 30
0.0
 10
2.11051
 20
-3.43939
 30
0.0
 10
2.11051
 20
-3.43939
 30
0.0
 10
2.1169
 20
-3.4394
 30
0.0
 10
2.1169
 20
-3.4394
 30
0.0
 10
2.1169
 20
-3.4394
 30
0.0
 10
2.14272
 20
-3.34272
 30
0.0
 10
2.16204
 20
-3.27184
 30
0.0
 10
2.17495
 20
-3.23313
 30
0.0
 10
2.17495
 20
-3.23313
 30
0.0
 10
2.20075
 20
-3.16865
 30
0.0
 10
2.24583
 20
-3.14293
 30
0.0
 10
2.30386
 20
-3.14293
 30
0.0
 10
2.30386
 20
-3.14293
 30
0.0
 10
2.3554
 20
-3.14293
 30
0.0
 10
2.38122
 20
-3.16224
 30
0.0
 10
2.39411
 20
-3.2009
 30
0.0
 10
2.39411
 20
-3.2009
 30
0.0
 10
2.40054
 20
-3.2267
 30
0.0
 10
2.41988
 20
-3.27183
 30
0.0
 10
2.43277
 20
-3.34269
 30
0.0
 10
2.43277
 20
-3.34269
 30
0.0
 10
2.49079
 20
-3.21378
 30
0.0
 10
2.52305
 20
-3.1429
 30
0.0
 10
2.52305
 20
-3.1429
 30
0.0
 10
2.52305
 20
-3.1429
 30
0.0
 10
2.52305
 20
-3.1429
 30
0.0
 10
2.62612
 20
-3.14291
 30
0.0
 10
2.62612
 20
-3.14291
 30
0.0
 10
2.62612
 20
-3.14291
 30
0.0
 10
2.62612
 20
-3.16222
 30
0.0
 10
2.61972
 20
-3.20739
 30
0.0
 10
2.60681
 20
-3.28465
 30
0.0
 10
2.60681
 20
-3.28465
 30
0.0
 10
2.60681
 20
-3.28465
 30
0.0
 10
2.60681
 20
-3.41358
 30
0.0
 10
2.60681
 20
-3.41358
 30
0.0
 10
2.60681
 20
-3.41358
 30
0.0
 10
2.62612
 20
-3.33627
 30
0.0
 10
2.63906
 20
-3.27825
 30
0.0
 10
2.65195
 20
-3.23959
 30
0.0
 10
2.65195
 20
-3.23959
 30
0.0
 10
2.67772
 20
-3.16863
 30
0.0
 10
2.72283
 20
-3.12997
 30
0.0
 10
2.78088
 20
-3.11068
 30
0.0
 10
2.78088
 20
-3.11068
 30
0.0
 10
2.7744
 20
-3.16222
 30
0.0
 10
2.76797
 20
-3.22667
 30
0.0
 10
2.76797
 20
-3.32335
 30
0.0
 10
2.76797
 20
-3.32335
 30
0.0
 10
2.76797
 20
-3.32335
 30
0.0
 10
2.79374
 20
-3.32335
 30
0.0
 10
2.79374
 20
-3.32335
 30
0.0
 10
2.79374
 20
-3.32335
 30
0.0
 10
2.79374
 20
-3.31046
 30
0.0
 10
2.81954
 20
-3.2589
 30
0.0
 10
2.85176
 20
-3.18156
 30
0.0
 10
2.85176
 20
-3.18156
 30
0.0
 10
2.85176
 20
-3.18156
 30
0.0
 10
2.92264
 20
-3.18156
 30
0.0
 10
2.92264
 20
-3.18156
 30
0.0
 10
2.92264
 20
-3.18156
 30
0.0
 10
2.92264
 20
-3.21379
 30
0.0
 10
2.93553
 20
-3.25892
 30
0.0
 10
2.94846
 20
-3.31047
 30
0.0
 10
2.94846
 20
-3.31047
 30
0.0
 10
2.97428
 20
-3.31047
 30
0.0
 10
3.0
 20
-3.29116
 30
0.0
 10
3.03871
 20
-3.23959
 30
0.0
 10
3.03871
 20
-3.23959
 30
0.0
 10
3.04514
 20
-3.25242
 30
0.0
 10
3.07737
 20
-3.27182
 30
0.0
 10
3.11602
 20
-3.30407
 30
0.0
 10
3.11602
 20
-3.30407
 30
0.0
 10
3.15473
 20
-3.3363
 30
0.0
 10
3.1805
 20
-3.37495
 30
0.0
 10
3.19338
 20
-3.41361
 30
0.0
 10
3.19338
 20
-3.41361
 30
0.0
 10
3.21269
 20
-3.3943
 30
0.0
 10
3.22561
 20
-3.37495
 30
0.0
 10
3.23209
 20
-3.3363
 30
0.0
 10
3.23209
 20
-3.3363
 30
0.0
 10
3.23209
 20
-3.31048
 30
0.0
 10
3.23852
 20
-3.29759
 30
0.0
 10
3.2514
 20
-3.29759
 30
0.0
 10
3.2514
 20
-3.29759
 30
0.0
 10
3.30294
 20
-3.29759
 30
0.0
 10
3.33519
 20
-3.32339
 30
0.0
 10
3.34808
 20
-3.36852
 30
0.0
 10
3.34808
 20
-3.36852
 30
0.0
 10
3.35451
 20
-3.37495
 30
0.0
 10
3.35451
 20
-3.39429
 30
0.0
 10
3.36099
 20
-3.433
 30
0.0
 10
3.36099
 20
-3.433
 30
0.0
 10
3.36739
 20
-3.45874
 30
0.0
 10
3.37382
 20
-3.48454
 30
0.0
 10
3.3803
 20
-3.50388
 30
0.0
 10
3.3803
 20
-3.50388
 30
0.0
 10
3.3803
 20
-3.48457
 30
0.0
 10
3.3867
 20
-3.47165
 30
0.0
 10
3.39961
 20
-3.4394
 30
0.0
 10
3.39961
 20
-3.4394
 30
0.0
 10
3.40601
 20
-3.4136
 30
0.0
 10
3.40601
 20
-3.38786
 30
0.0
 10
3.40601
 20
-3.37495
 30
0.0
 10
3.40601
 20
-3.37495
 30
0.0
 10
3.40601
 20
-3.37495
 30
0.0
 10
3.4254
 20
-3.37495
 30
0.0
 10
3.4254
 20
-3.37495
 30
0.0
 10
3.4254
 20
-3.37495
 30
0.0
 10
3.4254
 20
-3.42009
 30
0.0
 10
3.43183
 20
-3.48454
 30
0.0
 10
3.45117
 20
-3.56833
 30
0.0
 10
3.45117
 20
-3.56833
 30
0.0
 10
3.45765
 20
-3.59415
 30
0.0
 10
3.46406
 20
-3.63278
 30
0.0
 10
3.4834
 20
-3.68435
 30
0.0
 10
3.4834
 20
-3.68435
 30
0.0
 10
3.4834
 20
-3.68435
 30
0.0
 10
3.49631
 20
-3.68435
 30
0.0
 10
3.49631
 20
-3.68435
 30
0.0
 10
3.49631
 20
-3.68435
 30
0.0
 10
3.49631
 20
-3.64569
 30
0.0
 10
3.49631
 20
-3.61347
 30
0.0
 10
3.49631
 20
-3.58124
 30
0.0
 10
3.49631
 20
-3.58124
 30
0.0
 10
3.5156
 20
-3.50388
 30
0.0
 10
3.54785
 20
-3.46522
 30
0.0
 10
3.6123
 20
-3.47165
 30
0.0
 10
3.6123
 20
-3.47165
 30
0.0
 10
3.6123
 20
-3.48454
 30
0.0
 10
3.63161
 20
-3.51679
 30
0.0
 10
3.66387
 20
-3.57473
 30
0.0
 10
3.66387
 20
-3.57473
 30
0.0
 10
3.70258
 20
-3.63921
 30
0.0
 10
3.72832
 20
-3.68435
 30
0.0
 10
3.75412
 20
-3.71014
 30
0.0
 10
3.75412
 20
-3.71014
 30
0.0
 10
3.75412
 20
-3.71014
 30
0.0
 10
3.75412
 20
-3.64566
 30
0.0
 10
3.75412
 20
-3.64566
 30
0.0
 10
3.75412
 20
-3.64566
 30
0.0
 10
3.74123
 20
-3.62635
 30
0.0
 10
3.7283
 20
-3.61343
 30
0.0
 10
3.72189
 20
-3.59412
 30
0.0
 10
3.72189
 20
-3.59412
 30
0.0
 10
3.70258
 20
-3.5683
 30
0.0
 10
3.69607
 20
-3.53607
 30
0.0
 10
3.69607
 20
-3.51676
 30
0.0
 10
3.69607
 20
-3.51676
 30
0.0
 10
3.69607
 20
-3.51676
 30
0.0
 10
3.81217
 20
-3.51676
 30
0.0
 10
3.81217
 20
-3.51676
 30
0.0
 10
3.81217
 20
-3.51676
 30
0.0
 10
3.81857
 20
-3.54899
 30
0.0
 10
3.8444
 20
-3.61344
 30
0.0
 10
3.89594
 20
-3.68432
 30
0.0
 10
3.89594
 20
-3.68432
 30
0.0
 10
3.89594
 20
-3.68432
 30
0.0
 10
3.89594
 20
-3.66501
 30
0.0
 10
3.90237
 20
-3.61984
 30
0.0
 10
3.90237
 20
-3.61984
 30
0.0
 10
3.90237
 20
-3.5941
 30
0.0
 10
3.88946
 20
-3.5747
 30
0.0
 10
3.87012
 20
-3.55536
 30
0.0
 10
3.87012
 20
-3.55536
 30
0.0
 10
3.87012
 20
-3.55536
 30
0.0
 10
3.87012
 20
-3.52962
 30
0.0
 10
3.87012
 20
-3.52962
 30
0.0
 10
3.87012
 20
-3.52962
 30
0.0
 10
3.87012
 20
-3.52962
 30
0.0
 10
3.92165
 20
-3.52962
 30
0.0
 10
3.92165
 20
-3.52962
 30
0.0
 10
3.92165
 20
-3.52962
 30
0.0
 10
3.92165
 20
-3.56185
 30
0.0
 10
3.92165
 20
-3.58759
 30
0.0
 10
3.93456
 20
-3.60693
 30
0.0
 10
3.93456
 20
-3.60693
 30
0.0
 10
3.94104
 20
-3.6263
 30
0.0
 10
3.94745
 20
-3.64564
 30
0.0
 10
3.97327
 20
-3.67138
 30
0.0
 10
3.97327
 20
-3.67138
 30
0.0
 10
3.97327
 20
-3.67138
 30
0.0
 10
3.97327
 20
-3.52964
 30
0.0
 10
3.97327
 20
-3.52964
 30
0.0
 10
3.97327
 20
-3.52964
 30
0.0
 10
4.01193
 20
-3.52964
 30
0.0
 10
4.07638
 20
-3.52316
 30
0.0
 10
4.16015
 20
-3.51675
 30
0.0
 10
4.16015
 20
-3.51675
 30
0.0
 10
4.16015
 20
-3.51675
 30
0.0
 10
4.16015
 20
-3.51675
 30
0.0
 10
4.16015
 20
-3.51675
 30
0.0
 10
4.16015
 20
-3.51675
 30
0.0
 10
4.18597
 20
-3.61343
 30
0.0
 10
4.19889
 20
-3.665
 30
0.0
 10
4.19889
 20
-3.665
 30
0.0
 10
4.19889
 20
-3.665
 30
0.0
 10
4.19889
 20
-3.67789
 30
0.0
 10
4.19241
 20
-3.68431
 30
0.0
 10
4.17307
 20
-3.69723
 30
0.0
 10
4.17307
 20
-3.69723
 30
0.0
 10
4.14725
 20
-3.71654
 30
0.0
 10
4.13441
 20
-3.73589
 30
0.0
 10
4.12153
 20
-3.74877
 30
0.0
 10
4.12153
 20
-3.74877
 30
0.0
 10
4.06996
 20
-3.79391
 30
0.0
 10
4.04414
 20
-3.83905
 30
0.0
 10
4.04414
 20
-3.89059
 30
0.0
 10
4.04414
 20
-3.89059
 30
0.0
 10
4.04414
 20
-3.97438
 30
0.0
 10
4.07639
 20
-4.06463
 30
0.0
 10
4.14082
 20
-4.16131
 30
0.0
 10
4.14082
 20
-4.16131
 30
0.0
 10
4.21173
 20
-4.26442
 30
0.0
 10
4.30198
 20
-4.32247
 30
0.0
 10
4.38577
 20
-4.32247
 30
0.0
 10
4.38577
 20
-4.32247
 30
0.0
 10
4.52759
 20
-4.32247
 30
0.0
 10
4.63069
 20
-4.26445
 30
0.0
 10
4.70163
 20
-4.16131
 30
0.0
 10
4.70163
 20
-4.16131
 30
0.0
 10
4.75317
 20
-4.08395
 30
0.0
 10
4.77251
 20
-4.00018
 30
0.0
 10
4.77251
 20
-3.89059
 30
0.0
 10
4.77251
 20
-3.89059
 30
0.0
 10
4.77251
 20
-3.83905
 30
0.0
 10
4.7596
 20
-3.79391
 30
0.0
 10
4.74028
 20
-3.76168
 30
0.0
 10
4.74028
 20
-3.76168
 30
0.0
 10
4.74028
 20
-3.74877
 30
0.0
 10
4.71451
 20
-3.72302
 30
0.0
 10
4.6758
 20
-3.6714
 30
0.0
 10
4.6758
 20
-3.6714
 30
0.0
 10
4.61132
 20
-3.59412
 30
0.0
 10
4.57912
 20
-3.48452
 30
0.0
 10
4.57269
 20
-3.32337
 30
0.0
 10
4.57269
 20
-3.32337
 30
0.0
 10
4.57269
 20
-3.32337
 30
0.0
 10
4.57269
 20
-3.31048
 30
0.0
 10
4.57269
 20
-3.31048
 30
0.0
 10
4.57269
 20
-3.31048
 30
0.0
 10
4.57269
 20
-3.31048
 30
0.0
 10
4.57912
 20
-3.32337
 30
0.0
 10
4.57912
 20
-3.32337
 30
0.0
 10
4.57912
 20
-3.32337
 30
0.0
 10
4.60494
 20
-3.30408
 30
0.0
 10
4.63714
 20
-3.28466
 30
0.0
 10
4.6758
 20
-3.25892
 30
0.0
 10
4.6758
 20
-3.25892
 30
0.0
 10
4.75957
 20
-3.2009
 30
0.0
 10
4.81119
 20
-3.16224
 30
0.0
 10
4.83053
 20
-3.1429
 30
0.0
 10
4.83053
 20
-3.1429
 30
0.0
 10
4.84342
 20
-3.16864
 30
0.0
 10
4.86919
 20
-3.19444
 30
0.0
 10
4.90789
 20
-3.20738
 30
0.0
 10
4.90789
 20
-3.20738
 30
0.0
 10
4.94655
 20
-3.23312
 30
0.0
 10
4.9852
 20
-3.23961
 30
0.0
 10
5.02391
 20
-3.23961
 30
0.0
 10
5.02391
 20
-3.23961
 30
0.0
 10
5.08188
 20
-3.23961
 30
0.0
 10
5.13353
 20
-3.2267
 30
0.0
 10
5.15924
 20
-3.2009
 30
0.0
 10
5.15924
 20
-3.2009
 30
0.0
 10
5.16572
 20
-3.19447
 30
0.0
 10
5.17855
 20
-3.18159
 30
0.0
 10
5.19795
 20
-3.16224
 30
0.0
 10
5.19795
 20
-3.16224
 30
0.0
 10
5.22372
 20
-3.13642
 30
0.0
 10
5.24304
 20
-3.1171
 30
0.0
 10
5.27526
 20
-3.09776
 30
0.0
 10
5.27526
 20
-3.09776
 30
0.0
 10
5.27526
 20
-3.11067
 30
0.0
 10
5.28815
 20
-3.1429
 30
0.0
 10
5.30749
 20
-3.18796
 30
0.0
 10
5.30749
 20
-3.18796
 30
0.0
 10
5.33331
 20
-3.22667
 30
0.0
 10
5.3462
 20
-3.25892
 30
0.0
 10
5.3462
 20
-3.27824
 30
0.0
 10
5.3462
 20
-3.27824
 30
0.0
 10
5.3462
 20
-3.29756
 30
0.0
 10
5.33331
 20
-3.34269
 30
0.0
 10
5.29466
 20
-3.40074
 30
0.0
 10
5.29466
 20
-3.40074
 30
0.0
 10
5.26243
 20
-3.45868
 30
0.0
 10
5.24307
 20
-3.49094
 30
0.0
 10
5.24307
 20
-3.50382
 30
0.0
 10
5.24307
 20
-3.50382
 30
0.0
 10
5.24307
 20
-3.52313
 30
0.0
 10
5.26887
 20
-3.54248
 30
0.0
 10
5.30109
 20
-3.56184
 30
0.0
 10
5.30109
 20
-3.56184
 30
0.0
 10
5.33975
 20
-3.58115
 30
0.0
 10
5.36554
 20
-3.58115
 30
0.0
 10
5.39134
 20
-3.56827
 30
0.0
 10
5.39134
 20
-3.56827
 30
0.0
 10
5.39134
 20
-3.61981
 30
0.0
 10
5.38486
 20
-3.69718
 30
0.0
 10
5.37197
 20
-3.80679
 30
0.0
 10
5.37197
 20
-3.80679
 30
0.0
 10
5.37197
 20
-3.89056
 30
0.0
 10
5.42999
 20
-4.00017
 30
0.0
 10
5.5267
 20
-4.14839
 30
0.0
 10
5.5267
 20
-4.14839
 30
0.0
 10
5.55893
 20
-4.18062
 30
0.0
 10
5.59118
 20
-4.23218
 30
0.0
 10
5.6492
 20
-4.29664
 30
0.0
 10
5.6492
 20
-4.29664
 30
0.0
 10
5.68786
 20
-4.35466
 30
0.0
 10
5.70717
 20
-4.38692
 30
0.0
 10
5.72008
 20
-4.41914
 30
0.0
 10
5.72008
 20
-4.41914
 30
0.0
 10
5.79096
 20
-4.62544
 30
0.0
 10
5.8297
 20
-4.74146
 30
0.0
 10
5.8361
 20
-4.74786
 30
0.0
 10
5.8361
 20
-4.74786
 30
0.0
 10
5.86833
 20
-4.85745
 30
0.0
 10
5.90058
 20
-4.99927
 30
0.0
 10
5.93278
 20
-5.14751
 30
0.0
 10
5.93278
 20
-5.14751
 30
0.0
 10
5.93278
 20
-5.14751
 30
0.0
 10
5.95209
 20
-5.14108
 30
0.0
 10
5.95209
 20
-5.14108
 30
0.0
 10
5.95209
 20
-5.14108
 30
0.0
 10
5.97146
 20
-5.1346
 30
0.0
 10
5.97791
 20
-5.1346
 30
0.0
 10
5.9908
 20
-5.1346
 30
0.0
 10
5.9908
 20
-5.1346
 30
0.0
 10
6.02946
 20
-5.21196
 30
0.0
 10
6.081
 20
-5.32155
 30
0.0
 10
6.16487
 20
-5.4634
 30
0.0
 10
6.16487
 20
-5.4634
 30
0.0
 10
6.22281
 20
-5.58582
 30
0.0
 10
6.24864
 20
-5.70184
 30
0.0
 10
6.24864
 20
-5.82434
 30
0.0
 10
6.24864
 20
-5.82434
 30
0.0
 10
6.24864
 20
-5.82434
 30
0.0
 10
6.26155
 20
-5.82435
 30
0.0
 10
6.26155
 20
-5.82435
 30
0.0
 10
6.26155
 20
-5.82435
 30
0.0
 10
6.26795
 20
-5.7921
 30
0.0
 10
6.27436
 20
-5.76633
 30
0.0
 10
6.27436
 20
-5.75347
 30
0.0
 10
6.27436
 20
-5.75347
 30
0.0
 10
6.27436
 20
-5.75347
 30
0.0
 10
6.35175
 20
-5.75347
 30
0.0
 10
6.35175
 20
-5.75347
 30
0.0
 10
6.35175
 20
-5.75347
 30
0.0
 10
6.36464
 20
-5.7921
 30
0.0
 10
6.39686
 20
-5.88238
 30
0.0
 10
6.45491
 20
-5.99839
 30
0.0
 10
6.45491
 20
-5.99839
 30
0.0
 10
6.49997
 20
-6.09507
 30
0.0
 10
6.52579
 20
-6.17886
 30
0.0
 10
6.51936
 20
-6.23691
 30
0.0
 10
6.51936
 20
-6.23691
 30
0.0
 10
6.53219
 20
-6.19817
 30
0.0
 10
6.55802
 20
-6.16595
 30
0.0
 10
6.59024
 20
-6.14663
 30
0.0
 10
6.59024
 20
-6.14663
 30
0.0
 10
6.60955
 20
-6.12732
 30
0.0
 10
6.64829
 20
-6.10797
 30
0.0
 10
6.69335
 20
-6.08218
 30
0.0
 10
6.69335
 20
-6.08218
 30
0.0
 10
6.55161
 20
-5.805
 30
0.0
 10
6.43551
 20
-5.59873
 30
0.0
 10
6.36463
 20
-5.45692
 30
0.0
 10
6.36463
 20
-5.45692
 30
0.0
 10
6.24213
 20
-5.19908
 30
0.0
 10
6.16484
 20
-4.99927
 30
0.0
 10
6.13259
 20
-4.84454
 30
0.0
 10
6.13259
 20
-4.84454
 30
0.0
 10
6.09388
 20
-4.62544
 30
0.0
 10
6.01009
 20
-4.39332
 30
0.0
 10
5.90052
 20
-4.14839
 30
0.0
 10
5.90052
 20
-4.14839
 30
0.0
 10
5.7845
 20
-3.89055
 30
0.0
 10
5.662
 20
-3.71011
 30
0.0
 10
5.546
 20
-3.60049
 30
0.0
 10
5.546
 20
-3.60049
 30
0.0
 10
5.59114
 20
-3.52313
 30
0.0
 10
5.64916
 20
-3.48447
 30
0.0
 10
5.72647
 20
-3.48447
 30
0.0
 10
5.72647
 20
-3.48447
 30
0.0
 10
5.82963
 20
-3.48447
 30
0.0
 10
5.8876
 20
-3.56826
 30
0.0
 10
5.907
 20
-3.74231
 30
0.0
 10
5.907
 20
-3.74231
 30
0.0
 10
5.907
 20
-3.7036
 30
0.0
 10
5.9134
 20
-3.66495
 30
0.0
 10
5.93274
 20
-3.63269
 30
0.0
 10
5.93274
 20
-3.63269
 30
0.0
 10
5.99722
 20
-3.65851
 30
0.0
 10
6.06167
 20
-3.71008
 30
0.0
 10
6.12612
 20
-3.76802
 30
0.0
 10
6.12612
 20
-3.76802
 30
0.0
 10
6.15837
 20
-3.80676
 30
0.0
 10
6.20991
 20
-3.8583
 30
0.0
 10
6.27437
 20
-3.93566
 30
0.0
 10
6.27437
 20
-3.93566
 30
0.0
 10
6.27437
 20
-3.93566
 30
0.0
 10
6.26798
 20
-3.93568
 30
0.0
 10
6.26798
 20
-3.93568
 30
0.0
 10
6.26798
 20
-3.93568
 30
0.0
 10
6.61607
 20
-4.1806
 30
0.0
 10
6.8739
 20
-4.37396
 30
0.0
 10
7.03506
 20
-4.51581
 30
0.0
 10
7.03506
 20
-4.51581
 30
0.0
 10
7.0608
 20
-4.53512
 30
0.0
 10
7.0866
 20
-4.58029
 30
0.0
 10
7.11234
 20
-4.63183
 30
0.0
 10
7.11234
 20
-4.63183
 30
0.0
 10
7.13816
 20
-4.67697
 30
0.0
 10
7.16396
 20
-4.70919
 30
0.0
 10
7.19619
 20
-4.72851
 30
0.0
 10
7.19619
 20
-4.72851
 30
0.0
 10
7.2155
 20
-4.74782
 30
0.0
 10
7.26067
 20
-4.76074
 30
0.0
 10
7.33152
 20
-4.76717
 30
0.0
 10
7.33152
 20
-4.76717
 30
0.0
 10
7.40243
 20
-4.77365
 30
0.0
 10
7.45402
 20
-4.78006
 30
0.0
 10
7.46685
 20
-4.79299
 30
0.0
 10
7.46685
 20
-4.79299
 30
0.0
 10
7.47976
 20
-4.79299
 30
0.0
 10
7.52487
 20
-4.81881
 30
0.0
 10
7.61515
 20
-4.85744
 30
0.0
 10
7.61515
 20
-4.85744
 30
0.0
 10
7.69892
 20
-4.90258
 30
0.0
 10
7.75048
 20
-4.93483
 30
0.0
 10
7.78271
 20
-4.94772
 30
0.0
 10
7.78271
 20
-4.94772
 30
0.0
 10
7.80202
 20
-4.96055
 30
0.0
 10
7.84073
 20
-4.99278
 30
0.0
 10
7.89233
 20
-5.0444
 30
0.0
 10
7.89233
 20
-5.0444
 30
0.0
 10
7.92456
 20
-5.07663
 30
0.0
 10
7.96321
 20
-5.09594
 30
0.0
 10
8.00832
 20
-5.09594
 30
0.0
 10
8.00832
 20
-5.09594
 30
0.0
 10
8.03414
 20
-5.09594
 30
0.0
 10
8.05989
 20
-5.08305
 30
0.0
 10
8.0986
 20
-5.07012
 30
0.0
 10
8.0986
 20
-5.07012
 30
0.0
 10
8.13726
 20
-5.05083
 30
0.0
 10
8.16308
 20
-5.05083
 30
0.0
 10
8.18239
 20
-5.05083
 30
0.0
 10
8.18239
 20
-5.05083
 30
0.0
 10
8.20813
 20
-5.05083
 30
0.0
 10
8.24033
 20
-5.05723
 30
0.0
 10
8.26616
 20
-5.07663
 30
0.0
 10
8.26616
 20
-5.07663
 30
0.0
 10
8.28547
 20
-5.08306
 30
0.0
 10
8.3113
 20
-5.10888
 30
0.0
 10
8.35644
 20
-5.14111
 30
0.0
 10
8.35644
 20
-5.14111
 30
0.0
 10
8.42732
 20
-5.19908
 30
0.0
 10
8.49818
 20
-5.23131
 30
0.0
 10
8.56266
 20
-5.23131
 30
0.0
 10
8.56266
 20
-5.23131
 30
0.0
 10
8.57555
 20
-5.23131
 30
0.0
 10
8.64651
 20
-5.22491
 30
0.0
 10
8.77541
 20
-5.19908
 30
0.0
 10
8.77541
 20
-5.19908
 30
0.0
 10
8.90434
 20
-5.17977
 30
0.0
 10
8.98811
 20
-5.16042
 30
0.0
 10
9.03965
 20
-5.16042
 30
0.0
 10
9.03965
 20
-5.16042
 30
0.0
 10
9.13053
 20
-5.16043
 30
0.0
 10
9.19499
 20
-5.16684
 30
0.0
 10
9.22721
 20
-5.17975
 30
0.0
  0
SPLINE
  5
42
330
1F
100
AcDbEntity
  8
Camada 1
100
AcDbSpline
210
0.0
220
0.0
230
1.0
 70
    11
 71
     3
 72
    36
 73
    32
 74
     0
 42
0.0000000001
 43
0.0000000001
 12
1.0
 22
0.0
 32
0.0
 13
1.0
 23
0.0
 33
0.0
 40
0.0
 40
0.0
 40
0.0
 40
0.0
 40
0.1111111111111111
 40
0.1111111111111111
 40
0.1111111111111111
 40
0.1111111111111111
 40
0.2222222222222222
 40
0.2222222222222222
 40
0.2222222222222222
 40
0.2222222222222222
 40
0.3333333333333333
 40
0.3333333333333333
 40
0.3333333333333333
 40
0.3333333333333333
 40
0.4444444444444444
 40
0.4444444444444444
 40
0.4444444444444444
 40
0.4444444444444444
 40
0.5555555555555556
 40
0.5555555555555556
 40
0.5555555555555556
 40
0.5555555555555556
 40
0.6666666666666666
 40
0.6666666666666666
 40
0.6666666666666666
 40
0.6666666666666666
 40
0.7777777777777778
 40
0.7777777777777778
 40
0.7777777777777778
 40
0.7777777777777778
 40
1.0
 40
1.0
 40
1.0
 40
1.0
 10
-1.4084
 20
3.38675
 30
0.0
 10
-1.24724
 20
3.25782
 30
0.0
 10
-1.15705
 20
3.18051
 30
0.0
 10
-1.15705
 20
3.14183
 30
0.0
 10
-1.15705
 20
3.14183
 30
0.0
 10
-1.15705
 20
3.12249
 30
0.0
 10
-1.17636
 20
3.08383
 30
0.0
 10
-1.21502
 20
3.02578
 30
0.0
 10
-1.21502
 20
3.02578
 30
0.0
 10
-1.24725
 20
2.97421
 30
0.0
 10
-1.26016
 20
2.9291
 30
0.0
 10
-1.26016
 20
2.89685
 30
0.0
 10
-1.26016
 20
2.89685
 30
0.0
 10
-1.3117
 20
2.92908
 30
0.0
 10
-1.36332
 20
2.98713
 30
0.0
 10
-1.39555
 20
3.05158
 30
0.0
 10
-1.39555
 20
3.05158
 30
0.0
 10
-1.41486
 20
3.09021
 30
0.0
 10
-1.44061
 20
3.15469
 30
0.0
 10
-1.46003
 20
3.23205
 30
0.0
 10
-1.46003
 20
3.23205
 30
0.0
 10
-1.48577
 20
3.31584
 30
0.0
 10
-1.50509
 20
3.36741
 30
0.0
 10
-1.51797
 20
3.38675
 30
0.0
 10
-1.51797
 20
3.38675
 30
0.0
 10
-1.53728
 20
3.43834
 30
0.0
 10
-1.56954
 20
3.477
 30
0.0
 10
-1.60825
 20
3.52857
 30
0.0
 10
-1.60825
 20
3.52857
 30
0.0
 10
-1.56311
 20
3.49634
 30
0.0
 10
-1.49222
 20
3.44474
 30
0.0
 10
-1.4084
 20
3.38675
 30
0.0
  0
SPLINE
  5
43
330
1F
100
AcDbEntity
  8
Camada 1
100
AcDbSpline
210
0.0
220
0.0
230
1.0
 70
    11
 71
     3
 72
    16
 73
    12
 74
     0
 42
0.0000000001
 43
0.0000000001
 12
1.0
 22
0.0
 32
0.0
 13
1.0
 23
0.0
 33
0.0
 40
0.0
 40
0.0
 40
0.0
 40
0.0
 40
0.25
 40
0.25
 40
0.25
 40
0.25
 40
0.5
 40
0.5
 40
0.5
 40
0.5
 40
1.0
 40
1.0
 40
1.0
 40
1.0
 10
-1.73067
 20
2.40699
 30
0.0
 10
-1.72427
 20
2.40699
 30
0.0
 10
-1.71784
 20
2.40699
 30
0.0
 10
-1.71784
 20
2.40699
 30
0.0
 10
-1.71784
 20
2.40699
 30
0.0
 10
-1.71784
 20
2.40699
 30
0.0
 10
-1.71784
 20
2.38765
 30
0.0
 10
-1.71784
 20
2.38765
 30
0.0
 10
-1.71784
 20
2.38765
 30
0.0
 10
-1.71783
 20
2.39408
 30
0.0
 10
-1.72426
 20
2.40054
 30
0.0
 10
-1.73067
 20
2.40699
 30
0.0
  0
SPLINE
  5
44
330
1F
100
AcDbEntity
  8
Camada 1
100
AcDbSpline
210
0.0
220
0.0
230
1.0
 70
    11
 71
     3
 72
    16
 73
    12
 74
     0
 42
0.0000000001
 43
0.0000000001
 12
1.0
 22
0.0
 32
0.0
 13
1.0
 23
0.0
 33
0.0
 40
0.0
 40
0.0
 40
0.0
 40
0.0
 40
0.25
 40
0.25
 40
0.25
 40
0.25
 40
0.5
 40
0.5
 40
0.5
 40
0.5
 40
1.0
 40
1.0
 40
1.0
 40
1.0
 10
-2.29796
 20
2.38117
 30
0.0
 10
-2.31079
 20
2.38117
 30
0.0
 10
-2.31727
 20
2.38763
 30
0.0
 10
-2.3237
 20
2.38763
 30
0.0
 10
-2.3237
 20
2.38763
 30
0.0
 10
-2.31727
 20
2.38763
 30
0.0
 10
-2.31079
 20
2.38763
 30
0.0
 10
-2.29796
 20
2.38763
 30
0.0
 10
-2.29796
 20
2.38763
 30
0.0
 10
-2.29796
 20
2.38763
 30
0.0
 10
-2.29796
 20
2.38117
 30
0.0
 10
-2.29796
 20
2.38117
 30
0.0
  0
SPLINE
  5
45
330
1F
100
AcDbEntity
  8
Camada 1
100
AcDbSpline
210
0.0
220
0.0
230
1.0
 70
    11
 71
     3
 72
    16
 73
    12
 74
     0
 42
0.0000000001
 43
0.0000000001
 12
1.0
 22
0.0
 32
0.0
 13
1.0
 23
0.0
 33
0.0
 40
0.0
 40
0.0
 40
0.0
 40
0.0
 40
0.25
 40
0.25
 40
0.25
 40
0.25
 40
0.5
 40
0.5
 40
0.5
 40
0.5
 40
1.0
 40
1.0
 40
1.0
 40
1.0
 10
1.51797
 20
-3.14291
 30
0.0
 10
1.53088
 20
-3.13
 30
0.0
 10
1.55022
 20
-3.11068
 30
0.0
 10
1.56311
 20
-3.09777
 30
0.0
 10
1.56311
 20
-3.09777
 30
0.0
 10
1.56311
 20
-3.11708
 30
0.0
 10
1.55671
 20
-3.14291
 30
0.0
 10
1.55022
 20
-3.18797
 30
0.0
 10
1.55022
 20
-3.18797
 30
0.0
 10
1.53728
 20
-3.16862
 30
0.0
 10
1.53088
 20
-3.15574
 30
0.0
 10
1.51797
 20
-3.14291
 30
0.0
  0
SPLINE
  5
46
330
1F
100
AcDbEntity
  8
Camada 1
100
AcDbSpline
210
0.0
220
0.0
230
1.0
 70
    11
 71
     3
 72
    20
 73
    16
 74
     0
 42
0.0000000001
 43
0.0000000001
 12
1.0
 22
0.0
 32
0.0
 13
1.0
 23
0.0
 33
0.0
 40
0.0
 40
0.0
 40
0.0
 40
0.0
 40
0.2
 40
0.2
 40
0.2
 40
0.2
 40
0.4
 40
0.4
 40
0.4
 40
0.4
 40
0.6
 40
0.6
 40
0.6
 40
0.6
 40
1.0
 40
1.0
 40
1.0
 40
1.0
 10
1.63399
 20
-3.14291
 30
0.0
 10
1.63399
 20
-3.14291
 30
0.0
 10
1.6469
 20
-3.14291
 30
0.0
 10
1.6469
 20
-3.14291
 30
0.0
 10
1.6469
 20
-3.14291
 30
0.0
 10
1.6469
 20
-3.14291
 30
0.0
 10
1.6469
 20
-3.3427
 30
0.0
 10
1.6469
 20
-3.3427
 30
0.0
 10
1.6469
 20
-3.3427
 30
0.0
 10
1.62759
 20
-3.31047
 30
0.0
 10
1.61465
 20
-3.28468
 30
0.0
 10
1.59533
 20
-3.25893
 30
0.0
 10
1.59533
 20
-3.25893
 30
0.0
 10
1.60176
 20
-3.21376
 30
0.0
 10
1.62113
 20
-3.17513
 30
0.0
 10
1.63399
 20
-3.14291
 30
0.0
  0
SPLINE
  5
47
330
1F
100
AcDbEntity
  8
Camada 1
100
AcDbSpline
210
0.0
220
0.0
230
1.0
 70
    11
 71
     3
 72
    28
 73
    24
 74
     0
 42
0.0000000001
 43
0.0000000001
 12
1.0
 22
0.0
 32
0.0
 13
1.0
 23
0.0
 33
0.0
 40
0.0
 40
0.0
 40
0.0
 40
0.0
 40
0.1428571428571428
 40
0.1428571428571428
 40
0.1428571428571428
 40
0.1428571428571428
 40
0.2857142857142857
 40
0.2857142857142857
 40
0.2857142857142857
 40
0.2857142857142857
 40
0.4285714285714285
 40
0.4285714285714285
 40
0.4285714285714285
 40
0.4285714285714285
 40
0.5714285714285714
 40
0.5714285714285714
 40
0.5714285714285714
 40
0.5714285714285714
 40
0.7142857142857143
 40
0.7142857142857143
 40
0.7142857142857143
 40
0.7142857142857143
 40
1.0
 40
1.0
 40
1.0
 40
1.0
 10
1.68561
 20
-3.40715
 30
0.0
 10
1.68561
 20
-3.40075
 30
0.0
 10
1.68561
 20
-3.39426
 30
0.0
 10
1.68561
 20
-3.39426
 30
0.0
 10
1.68561
 20
-3.39426
 30
0.0
 10
1.70492
 20
-3.32335
 30
0.0
 10
1.73067
 20
-3.24599
 30
0.0
 10
1.76292
 20
-3.18156
 30
0.0
 10
1.76292
 20
-3.18156
 30
0.0
 10
1.76292
 20
-3.24601
 30
0.0
 10
1.76292
 20
-3.32335
 30
0.0
 10
1.75649
 20
-3.4136
 30
0.0
 10
1.75649
 20
-3.4136
 30
0.0
 10
1.75649
 20
-3.4394
 30
0.0
 10
1.75649
 20
-3.47162
 30
0.0
 10
1.75009
 20
-3.49096
 30
0.0
 10
1.75009
 20
-3.49096
 30
0.0
 10
1.72427
 20
-3.45871
 30
0.0
 10
1.71135
 20
-3.42648
 30
0.0
 10
1.68561
 20
-3.40076
 30
0.0
 10
1.68561
 20
-3.40076
 30
0.0
 10
1.68561
 20
-3.40076
 30
0.0
 10
1.68561
 20
-3.40715
 30
0.0
 10
1.68561
 20
-3.40715
 30
0.0
  0
ENDSEC
  0
SECTION
  2
OBJECTS
  0
DICTIONARY
  5
C
330
0
100
AcDbDictionary
281
     1
  3
ACAD_GROUP
350
D
  3
ACAD_LAYOUT
350
1A
  3
ACAD_MATERIAL
350
3B
  3
ACAD_MLEADERSTYLE
350
69
  3
ACAD_MLINESTYLE
350
17
  3
ACAD_PLOTSETTINGS
350
19
  3
ACAD_PLOTSTYLENAME
350
E
  3
ACAD_TABLESTYLE
350
68
  3
ACAD_VISUALSTYLE
350
2A
  0
DICTIONARY
  5
D
102
{ACAD_REACTORS
330
C
102
}
330
C
100
AcDbDictionary
281
     1
  0
DICTIONARY
  5
1A
102
{ACAD_REACTORS
330
C
102
}
330
C
100
AcDbDictionary
281
     1
  3
Layout1
350
1E
  3
Layout2
350
26
  3
Model
350
22
  0
DICTIONARY
  5
3B
102
{ACAD_REACTORS
330
C
102
}
330
C
100
AcDbDictionary
281
     1
  3
ByBlock
350
3D
  3
ByLayer
350
3C
  3
Global
350
3E
  0
DICTIONARY
  5
69
102
{ACAD_REACTORS
330
C
102
}
330
C
100
AcDbDictionary
281
     1
  0
DICTIONARY
  5
17
102
{ACAD_REACTORS
330
C
102
}
330
C
100
AcDbDictionary
281
     1
  3
Standard
350
18
  0
DICTIONARY
  5
19
102
{ACAD_REACTORS
330
C
102
}
330
C
100
AcDbDictionary
281
     1
  0
ACDBDICTIONARYWDFLT
  5
E
102
{ACAD_REACTORS
330
C
102
}
330
C
100
AcDbDictionary
281
     1
  3
Normal
350
F
100
AcDbDictionaryWithDefault
340
F
  0
DICTIONARY
  5
68
102
{ACAD_REACTORS
330
C
102
}
330
C
100
AcDbDictionary
281
     1
  0
DICTIONARY
  5
2A
102
{ACAD_REACTORS
330
C
102
}
330
C
100
AcDbDictionary
281
     1
  3
2dWireframe
350
2F
  3
3D Hidden
350
31
  3
3dWireframe
350
30
  3
Basic
350
32
  3
Brighten
350
36
  3
ColorChange
350
3A
  3
Conceptual
350
34
  3
Dim
350
35
  3
Facepattern
350
39
  3
Flat
350
2B
  3
FlatWithEdges
350
2C
  3
Gouraud
350
2D
  3
GouraudWithEdges
350
2E
  3
Linepattern
350
38
  3
Realistic
350
33
  3
Thicken
350
37
  0
LAYOUT
  5
1E
102
{ACAD_REACTORS
330
1A
102
}
330
1A
100
AcDbPlotSettings
  1

  2
none_device
  4

  6

 40
0.0
 41
0.0
 42
0.0
 43
0.0
 44
0.0
 45
0.0
 46
0.0
 47
0.0
 48
0.0
 49
0.0
140
0.0
141
0.0
142
1.0
143
1.0
 70
   688
 72
     0
 73
     0
 74
     5
  7

 75
    16
 76
     0
 77
     2
 78
   300
147
1.0
148
0.0
149
0.0
100
AcDbLayout
  1
Layout1
 70
     1
 71
     1
 10
0.0
 20
0.0
 11
12.0
 21
9.0
 12
0.0
 22
0.0
 32
0.0
 14
1.000000000000000E+20
 24
1.000000000000000E+20
 34
1.000000000000000E+20
 15
-1.000000000000000E+20
 25
-1.000000000000000E+20
 35
-1.000000000000000E+20
146
0.0
 13
0.0
 23
0.0
 33
0.0
 16
1.0
 26
0.0
 36
0.0
 17
0.0
 27
1.0
 37
0.0
 76
     0
330
1B
  0
LAYOUT
  5
26
102
{ACAD_REACTORS
330
1A
102
}
330
1A
100
AcDbPlotSettings
  1

  2
none_device
  4

  6

 40
0.0
 41
0.0
 42
0.0
 43
0.0
 44
0.0
 45
0.0
 46
0.0
 47
0.0
 48
0.0
 49
0.0
140
0.0
141
0.0
142
1.0
143
1.0
 70
   688
 72
     0
 73
     0
 74
     5
  7

 75
    16
 76
     0
 77
     2
 78
   300
147
1.0
148
0.0
149
0.0
100
AcDbLayout
  1
Layout2
 70
     1
 71
     2
 10
0.0
 20
0.0
 11
0.0
 21
0.0
 12
0.0
 22
0.0
 32
0.0
 14
0.0
 24
0.0
 34
0.0
 15
0.0
 25
0.0
 35
0.0
146
0.0
 13
0.0
 23
0.0
 33
0.0
 16
1.0
 26
0.0
 36
0.0
 17
0.0
 27
1.0
 37
0.0
 76
     0
330
23
  0
LAYOUT
  5
22
102
{ACAD_REACTORS
330
1A
102
}
330
1A
100
AcDbPlotSettings
  1

  2
none_device
  4

  6

 40
0.0
 41
0.0
 42
0.0
 43
0.0
 44
0.0
 45
0.0
 46
0.0
 47
0.0
 48
0.0
 49
0.0
140
0.0
141
0.0
142
1.0
143
1.0
 70
  1712
 72
     0
 73
     0
 74
     0
  7

 75
     0
 76
     0
 77
     2
 78
   300
147
1.0
148
0.0
149
0.0
100
AcDbLayout
  1
Model
 70
     1
 71
     0
 10
0.0
 20
0.0
 11
12.0
 21
9.0
 12
0.0
 22
0.0
 32
0.0
 14
-9.55593
 24
-7.8161
 34
0.0
 15
9.55593
 25
7.81599
 35
0.0
146
0.0
 13
0.0
 23
0.0
 33
0.0
 16
1.0
 26
0.0
 36
0.0
 17
0.0
 27
1.0
 37
0.0
 76
     0
330
1F
331
29
  0
MATERIAL
  5
3D
102
{ACAD_REACTORS
330
3B
102
}
330
3B
100
AcDbMaterial
  1
ByBlock
 72
     1
 94
      127
  0
MATERIAL
  5
3C
102
{ACAD_REACTORS
330
3B
102
}
330
3B
100
AcDbMaterial
  1
ByLayer
 72
     1
 94
      127
  0
MATERIAL
  5
3E
102
{ACAD_REACTORS
330
3B
102
}
330
3B
100
AcDbMaterial
  1
Global
 72
     1
 94
      127
  0
MLINESTYLE
  5
18
102
{ACAD_REACTORS
330
17
102
}
330
17
100
AcDbMlineStyle
  2
Standard
 70
     0
  3

 62
   256
 51
90.0
 52
90.0
 71
     2
 49
0.5
 62
   256
  6
BYLAYER
 49
-0.5
 62
   256
  6
BYLAYER
  0
ACDBPLACEHOLDER
  5
F
102
{ACAD_REACTORS
330
E
102
}
330
E
  0
VISUALSTYLE
  5
2F
102
{ACAD_REACTORS
330
2A
102
}
102
{ACAD_XDICTIONARY
360
50
102
}
330
2A
100
AcDbVisualStyle
  2
2dWireframe
 70
     4
 71
     0
 72
     2
 73
     0
 90
        0
 40
-0.6
 41
-30.0
 62
     5
 63
     7
421
 16777215
 74
     1
 91
        4
 64
     7
 65
   257
 75
     1
175
     1
 42
1.0
 92
        0
 66
   257
 43
1.0
 76
     1
 77
     6
 78
     2
 67
     7
 79
     5
170
     0
171
     0
290
     0
174
     0
 93
        1
 44
0.0
173
     0
291
     0
 45
0.0
  0
VISUALSTYLE
  5
31
102
{ACAD_REACTORS
330
2A
102
}
102
{ACAD_XDICTIONARY
360
54
102
}
330
2A
100
AcDbVisualStyle
  2
3D Hidden
 70
     6
 71
     1
 72
     2
 73
     2
 90
        0
 40
-0.6
 41
-30.0
 62
     5
 63
     7
421
 16777215
 74
     2
 91
        2
 64
     7
 65
   257
 75
     2
175
     1
 42
40.0
 92
        0
 66
   257
 43
1.0
 76
     1
 77
     6
 78
     2
 67
     7
 79
     3
170
     0
171
     0
290
     0
174
     0
 93
        1
 44
0.0
173
     0
291
     0
 45
0.0
  0
VISUALSTYLE
  5
30
102
{ACAD_REACTORS
330
2A
102
}
102
{ACAD_XDICTIONARY
360
52
102
}
330
2A
100
AcDbVisualStyle
  2
3dWireframe
 70
     5
 71
     0
 72
     2
 73
     0
 90
        0
 40
-0.6
 41
-30.0
 62
     5
 63
     7
421
 16777215
 74
     1
 91
        4
 64
     7
 65
   257
 75
     1
175
     1
 42
1.0
 92
        0
 66
   257
 43
1.0
 76
     1
 77
     6
 78
     2
 67
     7
 79
     5
170
     0
171
     0
290
     0
174
     0
 93
        1
 44
0.0
173
     0
291
     0
 45
0.0
  0
VISUALSTYLE
  5
32
102
{ACAD_REACTORS
330
2A
102
}
102
{ACAD_XDICTIONARY
360
56
102
}
330
2A
100
AcDbVisualStyle
  2
Basic
 70
     7
 71
     1
 72
     0
 73
     1
 90
        0
 40
-0.6
 41
-30.0
 62
     5
 63
     7
421
 16777215
 74
     0
 91
        4
 64
     7
 65
   257
 75
     1
175
     1
 42
1.0
 92
        8
 66
     7
 43
1.0
 76
     1
 77
     6
 78
     2
 67
     7
 79
     5
170
     0
171
     0
290
     0
174
     0
 93
        1
 44
0.0
173
     0
291
     1
 45
0.0
  0
VISUALSTYLE
  5
36
102
{ACAD_REACTORS
330
2A
102
}
102
{ACAD_XDICTIONARY
360
5E
102
}
330
2A
100
AcDbVisualStyle
  2
Brighten
 70
    12
 71
     2
 72
     2
 73
     0
 90
        0
 40
-0.6
 41
-30.0
 62
     5
 63
     7
421
 16777215
 74
     1
 91
        4
 64
     7
 65
   257
 75
     1
175
     1
 42
1.0
 92
        8
 66
     7
 43
1.0
 76
     1
 77
     6
 78
     2
 67
     7
 79
     5
170
     0
171
     0
290
     0
174
     0
 93
        1
 44
50.0
173
     0
291
     1
 45
0.0
  0
VISUALSTYLE
  5
3A
102
{ACAD_REACTORS
330
2A
102
}
102
{ACAD_XDICTIONARY
360
66
102
}
330
2A
100
AcDbVisualStyle
  2
ColorChange
 70
    16
 71
     2
 72
     2
 73
     3
 90
        0
 40
-0.6
 41
-30.0
 62
     5
 63
     8
421
  8421504
 74
     1
 91
        4
 64
     7
 65
   257
 75
     1
175
     1
 42
1.0
 92
        8
 66
     8
424
  8421504
 43
1.0
 76
     1
 77
     6
 78
     2
 67
     7
 79
     5
170
     0
171
     0
290
     0
174
     0
 93
        1
 44
0.0
173
     0
291
     1
 45
0.0
  0
VISUALSTYLE
  5
34
102
{ACAD_REACTORS
330
2A
102
}
102
{ACAD_XDICTIONARY
360
5A
102
}
330
2A
100
AcDbVisualStyle
  2
Conceptual
 70
     9
 71
     3
 72
     2
 73
     0
 90
        0
 40
-0.6
 41
-30.0
 62
     5
 63
     7
421
 16777215
 74
     2
 91
        2
 64
     7
 65
   257
 75
     1
175
     1
 42
40.0
 92
        8
 66
     7
 43
1.0
 76
     1
 77
     6
 78
     2
 67
     7
 79
     3
170
     0
171
     0
290
     0
174
     0
 93
        1
 44
0.0
173
     0
291
     0
 45
0.0
  0
VISUALSTYLE
  5
35
102
{ACAD_REACTORS
330
2A
102
}
102
{ACAD_XDICTIONARY
360
5C
102
}
330
2A
100
AcDbVisualStyle
  2
Dim
 70
    11
 71
     2
 72
     2
 73
     0
 90
        0
 40
-0.6
 41
-30.0
 62
     5
 63
     7
421
 16777215
 74
     1
 91
        4
 64
     7
 65
   257
 75
     1
175
     1
 42
1.0
 92
        8
 66
     7
 43
1.0
 76
     1
 77
     6
 78
     2
 67
     7
 79
     5
170
     0
171
     0
290
     0
174
     0
 93
        1
 44
-50.0
173
     0
291
     1
 45
0.0
  0
VISUALSTYLE
  5
39
102
{ACAD_REACTORS
330
2A
102
}
102
{ACAD_XDICTIONARY
360
64
102
}
330
2A
100
AcDbVisualStyle
  2
Facepattern
 70
    15
 71
     2
 72
     2
 73
     0
 90
        0
 40
-0.6
 41
-30.0
 62
     5
 63
     7
421
 16777215
 74
     1
 91
        4
 64
     7
 65
   257
 75
     1
175
     1
 42
1.0
 92
        8
 66
     7
 43
1.0
 76
     1
 77
     6
 78
     2
 67
     7
 79
     5
170
     0
171
     0
290
     0
174
     0
 93
        1
 44
0.0
173
     0
291
     1
 45
0.0
  0
VISUALSTYLE
  5
2B
102
{ACAD_REACTORS
330
2A
102
}
102
{ACAD_XDICTIONARY
360
48
102
}
330
2A
100
AcDbVisualStyle
  2
Flat
 70
     0
 71
     2
 72
     1
 73
     1
 90
        2
 40
-0.6
 41
30.0
 62
     5
 63
     7
421
 16777215
 74
     0
 91
        4
 64
     7
 65
   257
 75
     1
175
     1
 42
1.0
 92
        8
 66
     7
 43
1.0
 76
     1
 77
     6
 78
     2
 67
     7
 79
     5
170
     0
171
     0
290
     0
174
     0
 93
       13
 44
0.0
173
     0
291
     1
 45
0.0
  0
VISUALSTYLE
  5
2C
102
{ACAD_REACTORS
330
2A
102
}
102
{ACAD_XDICTIONARY
360
4A
102
}
330
2A
100
AcDbVisualStyle
  2
FlatWithEdges
 70
     1
 71
     2
 72
     1
 73
     1
 90
        2
 40
-0.6
 41
30.0
 62
     5
 63
     7
421
 16777215
 74
     1
 91
        4
 64
     7
 65
   257
 75
     1
175
     1
 42
1.0
 92
        0
 66
   257
 43
1.0
 76
     1
 77
     6
 78
     2
 67
     7
 79
     5
170
     0
171
     0
290
     0
174
     0
 93
       13
 44
0.0
173
     0
291
     1
 45
0.0
  0
VISUALSTYLE
  5
2D
102
{ACAD_REACTORS
330
2A
102
}
102
{ACAD_XDICTIONARY
360
4C
102
}
330
2A
100
AcDbVisualStyle
  2
Gouraud
 70
     2
 71
     2
 72
     2
 73
     1
 90
        2
 40
-0.6
 41
30.0
 62
     5
 63
     7
421
 16777215
 74
     0
 91
        4
 64
     7
 65
   257
 75
     1
175
     1
 42
1.0
 92
        0
 66
     7
 43
1.0
 76
     1
 77
     6
 78
     2
 67
     7
 79
     5
170
     0
171
     0
290
     0
174
     0
 93
       13
 44
0.0
173
     0
291
     1
 45
0.0
  0
VISUALSTYLE
  5
2E
102
{ACAD_REACTORS
330
2A
102
}
102
{ACAD_XDICTIONARY
360
4E
102
}
330
2A
100
AcDbVisualStyle
  2
GouraudWithEdges
 70
     3
 71
     2
 72
     2
 73
     1
 90
        2
 40
-0.6
 41
30.0
 62
     5
 63
     7
421
 16777215
 74
     1
 91
        4
 64
     7
 65
   257
 75
     1
175
     1
 42
1.0
 92
        0
 66
   257
 43
1.0
 76
     1
 77
     6
 78
     2
 67
     7
 79
     5
170
     0
171
     0
290
     0
174
     0
 93
       13
 44
0.0
173
     0
291
     1
 45
0.0
  0
VISUALSTYLE
  5
38
102
{ACAD_REACTORS
330
2A
102
}
102
{ACAD_XDICTIONARY
360
62
102
}
330
2A
100
AcDbVisualStyle
  2
Linepattern
 70
    14
 71
     2
 72
     2
 73
     0
 90
        0
 40
-0.6
 41
-30.0
 62
     5
 63
     7
421
 16777215
 74
     1
 91
        4
 64
     7
 65
   257
 75
     7
175
     7
 42
1.0
 92
        8
 66
     7
 43
1.0
 76
     1
 77
     6
 78
     2
 67
     7
 79
     5
170
     0
171
     0
290
     0
174
     0
 93
        1
 44
0.0
173
     0
291
     1
 45
0.0
  0
VISUALSTYLE
  5
33
102
{ACAD_REACTORS
330
2A
102
}
102
{ACAD_XDICTIONARY
360
58
102
}
330
2A
100
AcDbVisualStyle
  2
Realistic
 70
     8
 71
     2
 72
     2
 73
     0
 90
        0
 40
-0.6
 41
-30.0
 62
     5
 63
     7
421
 16777215
 74
     1
 91
        0
 64
     7
 65
   257
 75
     1
175
     1
 42
1.0
 92
        8
 66
     8
424
  7895160
 43
1.0
 76
     1
 77
     6
 78
     2
 67
     7
 79
     5
170
     0
171
     0
290
     0
174
     0
 93
       13
 44
0.0
173
     0
291
     0
 45
0.0
  0
VISUALSTYLE
  5
37
102
{ACAD_REACTORS
330
2A
102
}
102
{ACAD_XDICTIONARY
360
60
102
}
330
2A
100
AcDbVisualStyle
  2
Thicken
 70
    13
 71
     2
 72
     2
 73
     0
 90
        0
 40
-0.6
 41
-30.0
 62
     5
 63
     7
421
 16777215
 74
     1
 91
        4
 64
     7
 65
   257
 75
     1
175
     1
 42
1.0
 92
       12
 66
     7
 43
1.0
 76
     1
 77
     6
 78
     2
 67
     7
 79
     5
170
     0
171
     0
290
     0
174
     0
 93
        1
 44
0.0
173
     0
291
     1
 45
0.0
  0
DICTIONARY
  5
50
330
2F
100
AcDbDictionary
280
     1
281
     1
  3
ACAD_XREC_ROUNDTRIP
360
51
  0
DICTIONARY
  5
54
330
31
100
AcDbDictionary
280
     1
281
     1
  3
ACAD_XREC_ROUNDTRIP
360
55
  0
DICTIONARY
  5
52
330
30
100
AcDbDictionary
280
     1
281
     1
  3
ACAD_XREC_ROUNDTRIP
360
53
  0
DICTIONARY
  5
56
330
32
100
AcDbDictionary
280
     1
281
     1
  3
ACAD_XREC_ROUNDTRIP
360
57
  0
DICTIONARY
  5
5E
330
36
100
AcDbDictionary
280
     1
281
     1
  3
ACAD_XREC_ROUNDTRIP
360
5F
  0
DICTIONARY
  5
66
330
3A
100
AcDbDictionary
280
     1
281
     1
  3
ACAD_XREC_ROUNDTRIP
360
67
  0
DICTIONARY
  5
5A
330
34
100
AcDbDictionary
280
     1
281
     1
  3
ACAD_XREC_ROUNDTRIP
360
5B
  0
DICTIONARY
  5
5C
330
35
100
AcDbDictionary
280
     1
281
     1
  3
ACAD_XREC_ROUNDTRIP
360
5D
  0
DICTIONARY
  5
64
330
39
100
AcDbDictionary
280
     1
281
     1
  3
ACAD_XREC_ROUNDTRIP
360
65
  0
DICTIONARY
  5
48
330
2B
100
AcDbDictionary
280
     1
281
     1
  3
ACAD_XREC_ROUNDTRIP
360
49
  0
DICTIONARY
  5
4A
330
2C
100
AcDbDictionary
280
     1
281
     1
  3
ACAD_XREC_ROUNDTRIP
360
4B
  0
DICTIONARY
  5
4C
330
2D
100
AcDbDictionary
280
     1
281
     1
  3
ACAD_XREC_ROUNDTRIP
360
4D
  0
DICTIONARY
  5
4E
330
2E
100
AcDbDictionary
280
     1
281
     1
  3
ACAD_XREC_ROUNDTRIP
360
4F
  0
DICTIONARY
  5
62
330
38
100
AcDbDictionary
280
     1
281
     1
  3
ACAD_XREC_ROUNDTRIP
360
63
  0
DICTIONARY
  5
58
330
33
100
AcDbDictionary
280
     1
281
     1
  3
ACAD_XREC_ROUNDTRIP
360
59
  0
DICTIONARY
  5
60
330
37
100
AcDbDictionary
280
     1
281
     1
  3
ACAD_XREC_ROUNDTRIP
360
61
  0
XRECORD
  5
51
102
{ACAD_REACTORS
330
50
102
}
330
50
100
AcDbXrecord
280
     1
102
RTVSPropertyOp0
 70
     1
102
RTVSPropertyOp1
 70
     1
102
RTVSPropertyOp2
 70
     1
102
RTVSPropertyOp3
 70
     1
102
RTVSPropertyOp4
 70
     1
102
RTVSPropertyOp5
 70
     1
102
RTVSPropertyOp6
 70
     1
102
RTVSPropertyOp7
 70
     1
102
RTVSPropertyOp8
 70
     1
102
RTVSPropertyOp9
 70
     1
102
RTVSPropertyOp10
 70
     1
102
RTVSPropertyOp11
 70
     1
102
RTVSPropertyOp12
 70
     1
102
RTVSPropertyOp13
 70
     1
102
RTVSPropertyOp14
 70
     1
102
RTVSPropertyOp15
 70
     1
102
RTVSPropertyOp16
 70
     1
102
RTVSPropertyOp17
 70
     1
102
RTVSPropertyOp18
 70
     1
102
RTVSPropertyOp19
 70
     1
102
RTVSPropertyOp20
 70
     1
102
RTVSPropertyOp21
 70
     1
102
RTVSPropertyOp22
 70
     1
102
RTVSPropertyOp23
 70
     1
102
RTVSPropertyOp24
 70
     1
102
RTVSPropertyOp25
 70
     1
102
RTVSPropertyOp26
 70
     1
102
RTVSPropertyOp27
 70
     1
102
RTVSPropertyOp28
 70
     1
102
RTVSPropertyOp29
 70
     1
102
RTVSPropertyOp30
 70
     1
102
RTVSPropertyOp31
 70
     1
102
RTVSPropertyOp32
 70
     1
  0
XRECORD
  5
55
102
{ACAD_REACTORS
330
54
102
}
330
54
100
AcDbXrecord
280
     1
102
RTVSPropertyOp0
 70
     1
102
RTVSPropertyOp1
 70
     1
102
RTVSPropertyOp2
 70
     1
102
RTVSPropertyOp3
 70
     1
102
RTVSPropertyOp4
 70
     1
102
RTVSPropertyOp5
 70
     1
102
RTVSPropertyOp6
 70
     1
102
RTVSPropertyOp7
 70
     1
102
RTVSPropertyOp8
 70
     1
102
RTVSPropertyOp9
 70
     1
102
RTVSPropertyOp10
 70
     1
102
RTVSPropertyOp11
 70
     1
102
RTVSPropertyOp12
 70
     1
102
RTVSPropertyOp13
 70
     1
102
RTVSPropertyOp14
 70
     1
102
RTVSPropertyOp15
 70
     1
102
RTVSPropertyOp16
 70
     1
102
RTVSPropertyOp17
 70
     1
102
RTVSPropertyOp18
 70
     1
102
RTVSPropertyOp19
 70
     1
102
RTVSPropertyOp20
 70
     1
102
RTVSPropertyOp21
 70
     1
102
RTVSPropertyOp22
 70
     1
102
RTVSPropertyOp23
 70
     1
102
RTVSPropertyOp24
 70
     1
102
RTVSPropertyOp25
 70
     1
102
RTVSPropertyOp26
 70
     1
102
RTVSPropertyOp27
 70
     1
102
RTVSPropertyOp28
 70
     1
102
RTVSPropertyOp29
 70
     1
102
RTVSPropertyOp30
 70
     1
102
RTVSPropertyOp31
 70
     1
102
RTVSPropertyOp32
 70
     1
  0
XRECORD
  5
53
102
{ACAD_REACTORS
330
52
102
}
330
52
100
AcDbXrecord
280
     1
102
RTVSPropertyOp0
 70
     1
102
RTVSPropertyOp1
 70
     1
102
RTVSPropertyOp2
 70
     1
102
RTVSPropertyOp3
 70
     1
102
RTVSPropertyOp4
 70
     1
102
RTVSPropertyOp5
 70
     1
102
RTVSPropertyOp6
 70
     1
102
RTVSPropertyOp7
 70
     1
102
RTVSPropertyOp8
 70
     1
102
RTVSPropertyOp9
 70
     1
102
RTVSPropertyOp10
 70
     1
102
RTVSPropertyOp11
 70
     1
102
RTVSPropertyOp12
 70
     1
102
RTVSPropertyOp13
 70
     1
102
RTVSPropertyOp14
 70
     1
102
RTVSPropertyOp15
 70
     1
102
RTVSPropertyOp16
 70
     1
102
RTVSPropertyOp17
 70
     1
102
RTVSPropertyOp18
 70
     1
102
RTVSPropertyOp19
 70
     1
102
RTVSPropertyOp20
 70
     1
102
RTVSPropertyOp21
 70
     1
102
RTVSPropertyOp22
 70
     1
102
RTVSPropertyOp23
 70
     1
102
RTVSPropertyOp24
 70
     1
102
RTVSPropertyOp25
 70
     1
102
RTVSPropertyOp26
 70
     1
102
RTVSPropertyOp27
 70
     1
102
RTVSPropertyOp28
 70
     1
102
RTVSPropertyOp29
 70
     1
102
RTVSPropertyOp30
 70
     1
102
RTVSPropertyOp31
 70
     1
102
RTVSPropertyOp32
 70
     1
  0
XRECORD
  5
57
102
{ACAD_REACTORS
330
56
102
}
330
56
100
AcDbXrecord
280
     1
102
RTVSPropertyOp0
 70
     1
102
RTVSPropertyOp1
 70
     1
102
RTVSPropertyOp2
 70
     1
102
RTVSPropertyOp3
 70
     1
102
RTVSPropertyOp4
 70
     1
102
RTVSPropertyOp5
 70
     1
102
RTVSPropertyOp6
 70
     1
102
RTVSPropertyOp7
 70
     1
102
RTVSPropertyOp8
 70
     1
102
RTVSPropertyOp9
 70
     1
102
RTVSPropertyOp10
 70
     1
102
RTVSPropertyOp11
 70
     1
102
RTVSPropertyOp12
 70
     1
102
RTVSPropertyOp13
 70
     1
102
RTVSPropertyOp14
 70
     1
102
RTVSPropertyOp15
 70
     1
102
RTVSPropertyOp16
 70
     1
102
RTVSPropertyOp17
 70
     1
102
RTVSPropertyOp18
 70
     1
102
RTVSPropertyOp19
 70
     1
102
RTVSPropertyOp20
 70
     1
102
RTVSPropertyOp21
 70
     1
102
RTVSPropertyOp22
 70
     1
102
RTVSPropertyOp23
 70
     1
102
RTVSPropertyOp24
 70
     1
102
RTVSPropertyOp25
 70
     1
102
RTVSPropertyOp26
 70
     1
102
RTVSPropertyOp27
 70
     1
102
RTVSPropertyOp28
 70
     1
102
RTVSPropertyOp29
 70
     1
102
RTVSPropertyOp30
 70
     1
102
RTVSPropertyOp31
 70
     1
102
RTVSPropertyOp32
 70
     1
  0
XRECORD
  5
5F
102
{ACAD_REACTORS
330
5E
102
}
330
5E
100
AcDbXrecord
280
     1
102
RTVSPropertyOp0
 70
     1
102
RTVSPropertyOp1
 70
     1
102
RTVSPropertyOp2
 70
     1
102
RTVSPropertyOp3
 70
     1
102
RTVSPropertyOp4
 70
     1
102
RTVSPropertyOp5
 70
     1
102
RTVSPropertyOp6
 70
     1
102
RTVSPropertyOp7
 70
     1
102
RTVSPropertyOp8
 70
     1
102
RTVSPropertyOp9
 70
     1
102
RTVSPropertyOp10
 70
     1
102
RTVSPropertyOp11
 70
     1
102
RTVSPropertyOp12
 70
     1
102
RTVSPropertyOp13
 70
     1
102
RTVSPropertyOp14
 70
     1
102
RTVSPropertyOp15
 70
     1
102
RTVSPropertyOp16
 70
     1
102
RTVSPropertyOp17
 70
     1
102
RTVSPropertyOp18
 70
     1
102
RTVSPropertyOp19
 70
     1
102
RTVSPropertyOp20
 70
     1
102
RTVSPropertyOp21
 70
     1
102
RTVSPropertyOp22
 70
     1
102
RTVSPropertyOp23
 70
     1
102
RTVSPropertyOp24
 70
     1
102
RTVSPropertyOp25
 70
     1
102
RTVSPropertyOp26
 70
     1
102
RTVSPropertyOp27
 70
     1
102
RTVSPropertyOp28
 70
     1
102
RTVSPropertyOp29
 70
     1
102
RTVSPropertyOp30
 70
     1
102
RTVSPropertyOp31
 70
     1
102
RTVSPropertyOp32
 70
     1
  0
XRECORD
  5
67
102
{ACAD_REACTORS
330
66
102
}
330
66
100
AcDbXrecord
280
     1
102
RTVSPropertyOp0
 70
     1
102
RTVSPropertyOp1
 70
     1
102
RTVSPropertyOp2
 70
     1
102
RTVSPropertyOp3
 70
     1
102
RTVSPropertyOp4
 70
     1
102
RTVSPropertyOp5
 70
     1
102
RTVSPropertyOp6
 70
     1
102
RTVSPropertyOp7
 70
     1
102
RTVSPropertyOp8
 70
     1
102
RTVSPropertyOp9
 70
     1
102
RTVSPropertyOp10
 70
     1
102
RTVSPropertyOp11
 70
     1
102
RTVSPropertyOp12
 70
     1
102
RTVSPropertyOp13
 70
     1
102
RTVSPropertyOp14
 70
     1
102
RTVSPropertyOp15
 70
     1
102
RTVSPropertyOp16
 70
     1
102
RTVSPropertyOp17
 70
     1
102
RTVSPropertyOp18
 70
     1
102
RTVSPropertyOp19
 70
     1
102
RTVSPropertyOp20
 70
     1
102
RTVSPropertyOp21
 70
     1
102
RTVSPropertyOp22
 70
     1
102
RTVSPropertyOp23
 70
     1
102
RTVSPropertyOp24
 70
     1
102
RTVSPropertyOp25
 70
     1
102
RTVSPropertyOp26
 70
     1
102
RTVSPropertyOp27
 70
     1
102
RTVSPropertyOp28
 70
     1
102
RTVSPropertyOp29
 70
     1
102
RTVSPropertyOp30
 70
     1
102
RTVSPropertyOp31
 70
     1
102
RTVSPropertyOp32
 70
     1
  0
XRECORD
  5
5B
102
{ACAD_REACTORS
330
5A
102
}
330
5A
100
AcDbXrecord
280
     1
102
RTVSPropertyOp0
 70
     1
102
RTVSPropertyOp1
 70
     1
102
RTVSPropertyOp2
 70
     1
102
RTVSPropertyOp3
 70
     1
102
RTVSPropertyOp4
 70
     1
102
RTVSPropertyOp5
 70
     1
102
RTVSPropertyOp6
 70
     1
102
RTVSPropertyOp7
 70
     1
102
RTVSPropertyOp8
 70
     1
102
RTVSPropertyOp9
 70
     1
102
RTVSPropertyOp10
 70
     1
102
RTVSPropertyOp11
 70
     1
102
RTVSPropertyOp12
 70
     1
102
RTVSPropertyOp13
 70
     1
102
RTVSPropertyOp14
 70
     1
102
RTVSPropertyOp15
 70
     1
102
RTVSPropertyOp16
 70
     1
102
RTVSPropertyOp17
 70
     1
102
RTVSPropertyOp18
 70
     1
102
RTVSPropertyOp19
 70
     1
102
RTVSPropertyOp20
 70
     1
102
RTVSPropertyOp21
 70
     1
102
RTVSPropertyOp22
 70
     1
102
RTVSPropertyOp23
 70
     1
102
RTVSPropertyOp24
 70
     1
102
RTVSPropertyOp25
 70
     1
102
RTVSPropertyOp26
 70
     1
102
RTVSPropertyOp27
 70
     1
102
RTVSPropertyOp28
 70
     1
102
RTVSPropertyOp29
 70
     1
102
RTVSPropertyOp30
 70
     1
102
RTVSPropertyOp31
 70
     1
102
RTVSPropertyOp32
 70
     1
  0
XRECORD
  5
5D
102
{ACAD_REACTORS
330
5C
102
}
330
5C
100
AcDbXrecord
280
     1
102
RTVSPropertyOp0
 70
     1
102
RTVSPropertyOp1
 70
     1
102
RTVSPropertyOp2
 70
     1
102
RTVSPropertyOp3
 70
     1
102
RTVSPropertyOp4
 70
     1
102
RTVSPropertyOp5
 70
     1
102
RTVSPropertyOp6
 70
     1
102
RTVSPropertyOp7
 70
     1
102
RTVSPropertyOp8
 70
     1
102
RTVSPropertyOp9
 70
     1
102
RTVSPropertyOp10
 70
     1
102
RTVSPropertyOp11
 70
     1
102
RTVSPropertyOp12
 70
     1
102
RTVSPropertyOp13
 70
     1
102
RTVSPropertyOp14
 70
     1
102
RTVSPropertyOp15
 70
     1
102
RTVSPropertyOp16
 70
     1
102
RTVSPropertyOp17
 70
     1
102
RTVSPropertyOp18
 70
     1
102
RTVSPropertyOp19
 70
     1
102
RTVSPropertyOp20
 70
     1
102
RTVSPropertyOp21
 70
     1
102
RTVSPropertyOp22
 70
     1
102
RTVSPropertyOp23
 70
     1
102
RTVSPropertyOp24
 70
     1
102
RTVSPropertyOp25
 70
     1
102
RTVSPropertyOp26
 70
     1
102
RTVSPropertyOp27
 70
     1
102
RTVSPropertyOp28
 70
     1
102
RTVSPropertyOp29
 70
     1
102
RTVSPropertyOp30
 70
     1
102
RTVSPropertyOp31
 70
     1
102
RTVSPropertyOp32
 70
     1
  0
XRECORD
  5
65
102
{ACAD_REACTORS
330
64
102
}
330
64
100
AcDbXrecord
280
     1
102
RTVSPropertyOp0
 70
     1
102
RTVSPropertyOp1
 70
     1
102
RTVSPropertyOp2
 70
     1
102
RTVSPropertyOp3
 70
     1
102
RTVSPropertyOp4
 70
     1
102
RTVSPropertyOp5
 70
     1
102
RTVSPropertyOp6
 70
     1
102
RTVSPropertyOp7
 70
     1
102
RTVSPropertyOp8
 70
     1
102
RTVSPropertyOp9
 70
     1
102
RTVSPropertyOp10
 70
     1
102
RTVSPropertyOp11
 70
     1
102
RTVSPropertyOp12
 70
     1
102
RTVSPropertyOp13
 70
     1
102
RTVSPropertyOp14
 70
     1
102
RTVSPropertyOp15
 70
     1
102
RTVSPropertyOp16
 70
     1
102
RTVSPropertyOp17
 70
     1
102
RTVSPropertyOp18
 70
     1
102
RTVSPropertyOp19
 70
     1
102
RTVSPropertyOp20
 70
     1
102
RTVSPropertyOp21
 70
     1
102
RTVSPropertyOp22
 70
     1
102
RTVSPropertyOp23
 70
     1
102
RTVSPropertyOp24
 70
     1
102
RTVSPropertyOp25
 70
     1
102
RTVSPropertyOp26
 70
     1
102
RTVSPropertyOp27
 70
     1
102
RTVSPropertyOp28
 70
     1
102
RTVSPropertyOp29
 70
     1
102
RTVSPropertyOp30
 70
     1
102
RTVSPropertyOp31
 70
     1
102
RTVSPropertyOp32
 70
     1
  0
XRECORD
  5
49
102
{ACAD_REACTORS
330
48
102
}
330
48
100
AcDbXrecord
280
     1
102
RTVSPropertyOp0
 70
     1
102
RTVSPropertyOp1
 70
     1
102
RTVSPropertyOp2
 70
     1
102
RTVSPropertyOp3
 70
     1
102
RTVSPropertyOp4
 70
     1
102
RTVSPropertyOp5
 70
     1
102
RTVSPropertyOp6
 70
     1
102
RTVSPropertyOp7
 70
     1
102
RTVSPropertyOp8
 70
     1
102
RTVSPropertyOp9
 70
     1
102
RTVSPropertyOp10
 70
     1
102
RTVSPropertyOp11
 70
     1
102
RTVSPropertyOp12
 70
     1
102
RTVSPropertyOp13
 70
     1
102
RTVSPropertyOp14
 70
     1
102
RTVSPropertyOp15
 70
     1
102
RTVSPropertyOp16
 70
     1
102
RTVSPropertyOp17
 70
     1
102
RTVSPropertyOp18
 70
     1
102
RTVSPropertyOp19
 70
     1
102
RTVSPropertyOp20
 70
     1
102
RTVSPropertyOp21
 70
     1
102
RTVSPropertyOp22
 70
     1
102
RTVSPropertyOp23
 70
     1
102
RTVSPropertyOp24
 70
     1
102
RTVSPropertyOp25
 70
     1
102
RTVSPropertyOp26
 70
     1
102
RTVSPropertyOp27
 70
     1
102
RTVSPropertyOp28
 70
     1
102
RTVSPropertyOp29
 70
     1
102
RTVSPropertyOp30
 70
     1
102
RTVSPropertyOp31
 70
     1
102
RTVSPropertyOp32
 70
     1
  0
XRECORD
  5
4B
102
{ACAD_REACTORS
330
4A
102
}
330
4A
100
AcDbXrecord
280
     1
102
RTVSPropertyOp0
 70
     1
102
RTVSPropertyOp1
 70
     1
102
RTVSPropertyOp2
 70
     1
102
RTVSPropertyOp3
 70
     1
102
RTVSPropertyOp4
 70
     1
102
RTVSPropertyOp5
 70
     1
102
RTVSPropertyOp6
 70
     1
102
RTVSPropertyOp7
 70
     1
102
RTVSPropertyOp8
 70
     1
102
RTVSPropertyOp9
 70
     1
102
RTVSPropertyOp10
 70
     1
102
RTVSPropertyOp11
 70
     1
102
RTVSPropertyOp12
 70
     1
102
RTVSPropertyOp13
 70
     1
102
RTVSPropertyOp14
 70
     1
102
RTVSPropertyOp15
 70
     1
102
RTVSPropertyOp16
 70
     1
102
RTVSPropertyOp17
 70
     1
102
RTVSPropertyOp18
 70
     1
102
RTVSPropertyOp19
 70
     1
102
RTVSPropertyOp20
 70
     1
102
RTVSPropertyOp21
 70
     1
102
RTVSPropertyOp22
 70
     1
102
RTVSPropertyOp23
 70
     1
102
RTVSPropertyOp24
 70
     1
102
RTVSPropertyOp25
 70
     1
102
RTVSPropertyOp26
 70
     1
102
RTVSPropertyOp27
 70
     1
102
RTVSPropertyOp28
 70
     1
102
RTVSPropertyOp29
 70
     1
102
RTVSPropertyOp30
 70
     1
102
RTVSPropertyOp31
 70
     1
102
RTVSPropertyOp32
 70
     1
  0
XRECORD
  5
4D
102
{ACAD_REACTORS
330
4C
102
}
330
4C
100
AcDbXrecord
280
     1
102
RTVSPropertyOp0
 70
     1
102
RTVSPropertyOp1
 70
     1
102
RTVSPropertyOp2
 70
     1
102
RTVSPropertyOp3
 70
     1
102
RTVSPropertyOp4
 70
     1
102
RTVSPropertyOp5
 70
     1
102
RTVSPropertyOp6
 70
     1
102
RTVSPropertyOp7
 70
     1
102
RTVSPropertyOp8
 70
     1
102
RTVSPropertyOp9
 70
     1
102
RTVSPropertyOp10
 70
     1
102
RTVSPropertyOp11
 70
     1
102
RTVSPropertyOp12
 70
     1
102
RTVSPropertyOp13
 70
     1
102
RTVSPropertyOp14
 70
     1
102
RTVSPropertyOp15
 70
     1
102
RTVSPropertyOp16
 70
     1
102
RTVSPropertyOp17
 70
     1
102
RTVSPropertyOp18
 70
     1
102
RTVSPropertyOp19
 70
     1
102
RTVSPropertyOp20
 70
     1
102
RTVSPropertyOp21
 70
     1
102
RTVSPropertyOp22
 70
     1
102
RTVSPropertyOp23
 70
     1
102
RTVSPropertyOp24
 70
     1
102
RTVSPropertyOp25
 70
     1
102
RTVSPropertyOp26
 70
     1
102
RTVSPropertyOp27
 70
     1
102
RTVSPropertyOp28
 70
     1
102
RTVSPropertyOp29
 70
     1
102
RTVSPropertyOp30
 70
     1
102
RTVSPropertyOp31
 70
     1
102
RTVSPropertyOp32
 70
     1
  0
XRECORD
  5
4F
102
{ACAD_REACTORS
330
4E
102
}
330
4E
100
AcDbXrecord
280
     1
102
RTVSPropertyOp0
 70
     1
102
RTVSPropertyOp1
 70
     1
102
RTVSPropertyOp2
 70
     1
102
RTVSPropertyOp3
 70
     1
102
RTVSPropertyOp4
 70
     1
102
RTVSPropertyOp5
 70
     1
102
RTVSPropertyOp6
 70
     1
102
RTVSPropertyOp7
 70
     1
102
RTVSPropertyOp8
 70
     1
102
RTVSPropertyOp9
 70
     1
102
RTVSPropertyOp10
 70
     1
102
RTVSPropertyOp11
 70
     1
102
RTVSPropertyOp12
 70
     1
102
RTVSPropertyOp13
 70
     1
102
RTVSPropertyOp14
 70
     1
102
RTVSPropertyOp15
 70
     1
102
RTVSPropertyOp16
 70
     1
102
RTVSPropertyOp17
 70
     1
102
RTVSPropertyOp18
 70
     1
102
RTVSPropertyOp19
 70
     1
102
RTVSPropertyOp20
 70
     1
102
RTVSPropertyOp21
 70
     1
102
RTVSPropertyOp22
 70
     1
102
RTVSPropertyOp23
 70
     1
102
RTVSPropertyOp24
 70
     1
102
RTVSPropertyOp25
 70
     1
102
RTVSPropertyOp26
 70
     1
102
RTVSPropertyOp27
 70
     1
102
RTVSPropertyOp28
 70
     1
102
RTVSPropertyOp29
 70
     1
102
RTVSPropertyOp30
 70
     1
102
RTVSPropertyOp31
 70
     1
102
RTVSPropertyOp32
 70
     1
  0
XRECORD
  5
63
102
{ACAD_REACTORS
330
62
102
}
330
62
100
AcDbXrecord
280
     1
102
RTVSPropertyOp0
 70
     1
102
RTVSPropertyOp1
 70
     1
102
RTVSPropertyOp2
 70
     1
102
RTVSPropertyOp3
 70
     1
102
RTVSPropertyOp4
 70
     1
102
RTVSPropertyOp5
 70
     1
102
RTVSPropertyOp6
 70
     1
102
RTVSPropertyOp7
 70
     1
102
RTVSPropertyOp8
 70
     1
102
RTVSPropertyOp9
 70
     1
102
RTVSPropertyOp10
 70
     1
102
RTVSPropertyOp11
 70
     1
102
RTVSPropertyOp12
 70
     1
102
RTVSPropertyOp13
 70
     1
102
RTVSPropertyOp14
 70
     1
102
RTVSPropertyOp15
 70
     1
102
RTVSPropertyOp16
 70
     1
102
RTVSPropertyOp17
 70
     1
102
RTVSPropertyOp18
 70
     1
102
RTVSPropertyOp19
 70
     1
102
RTVSPropertyOp20
 70
     1
102
RTVSPropertyOp21
 70
     1
102
RTVSPropertyOp22
 70
     1
102
RTVSPropertyOp23
 70
     1
102
RTVSPropertyOp24
 70
     1
102
RTVSPropertyOp25
 70
     1
102
RTVSPropertyOp26
 70
     1
102
RTVSPropertyOp27
 70
     1
102
RTVSPropertyOp28
 70
     1
102
RTVSPropertyOp29
 70
     1
102
RTVSPropertyOp30
 70
     1
102
RTVSPropertyOp31
 70
     1
102
RTVSPropertyOp32
 70
     1
  0
XRECORD
  5
59
102
{ACAD_REACTORS
330
58
102
}
330
58
100
AcDbXrecord
280
     1
102
RTVSPropertyOp0
 70
     1
102
RTVSPropertyOp1
 70
     1
102
RTVSPropertyOp2
 70
     1
102
RTVSPropertyOp3
 70
     1
102
RTVSPropertyOp4
 70
     1
102
RTVSPropertyOp5
 70
     1
102
RTVSPropertyOp6
 70
     1
102
RTVSPropertyOp7
 70
     1
102
RTVSPropertyOp8
 70
     1
102
RTVSPropertyOp9
 70
     1
102
RTVSPropertyOp10
 70
     1
102
RTVSPropertyOp11
 70
     1
102
RTVSPropertyOp12
 70
     1
102
RTVSPropertyOp13
 70
     1
102
RTVSPropertyOp14
 70
     1
102
RTVSPropertyOp15
 70
     1
102
RTVSPropertyOp16
 70
     1
102
RTVSPropertyOp17
 70
     1
102
RTVSPropertyOp18
 70
     1
102
RTVSPropertyOp19
 70
     1
102
RTVSPropertyOp20
 70
     1
102
RTVSPropertyOp21
 70
     1
102
RTVSPropertyOp22
 70
     1
102
RTVSPropertyOp23
 70
     1
102
RTVSPropertyOp24
 70
     1
102
RTVSPropertyOp25
 70
     1
102
RTVSPropertyOp26
 70
     1
102
RTVSPropertyOp27
 70
     1
102
RTVSPropertyOp28
 70
     1
102
RTVSPropertyOp29
 70
     1
102
RTVSPropertyOp30
 70
     1
102
RTVSPropertyOp31
 70
     1
102
RTVSPropertyOp32
 70
     1
  0
XRECORD
  5
61
102
{ACAD_REACTORS
330
60
102
}
330
60
100
AcDbXrecord
280
     1
102
RTVSPropertyOp0
 70
     1
102
RTVSPropertyOp1
 70
     1
102
RTVSPropertyOp2
 70
     1
102
RTVSPropertyOp3
 70
     1
102
RTVSPropertyOp4
 70
     1
102
RTVSPropertyOp5
 70
     1
102
RTVSPropertyOp6
 70
     1
102
RTVSPropertyOp7
 70
     1
102
RTVSPropertyOp8
 70
     1
102
RTVSPropertyOp9
 70
     1
102
RTVSPropertyOp10
 70
     1
102
RTVSPropertyOp11
 70
     1
102
RTVSPropertyOp12
 70
     1
102
RTVSPropertyOp13
 70
     1
102
RTVSPropertyOp14
 70
     1
102
RTVSPropertyOp15
 70
     1
102
RTVSPropertyOp16
 70
     1
102
RTVSPropertyOp17
 70
     1
102
RTVSPropertyOp18
 70
     1
102
RTVSPropertyOp19
 70
     1
102
RTVSPropertyOp20
 70
     1
102
RTVSPropertyOp21
 70
     1
102
RTVSPropertyOp22
 70
     1
102
RTVSPropertyOp23
 70
     1
102
RTVSPropertyOp24
 70
     1
102
RTVSPropertyOp25
 70
     1
102
RTVSPropertyOp26
 70
     1
102
RTVSPropertyOp27
 70
     1
102
RTVSPropertyOp28
 70
     1
102
RTVSPropertyOp29
 70
     1
102
RTVSPropertyOp30
 70
     1
102
RTVSPropertyOp31
 70
     1
102
RTVSPropertyOp32
 70
     1
  0
ENDSEC
  0
EOF
