  0
SECTION
  2
HEADER
  9
$ACADVER
  1
AC1021
  9
$ACADMAINTVER
 70
    25
  9
$DWGCODEPAGE
  3
ANSI_1252
  9
$INSBASE
 10
0.0
 20
0.0
 30
0.0
  9
$EXTMIN
 10
-8.46901
 20
-10.4523
 30
0.0
  9
$EXTMAX
 10
8.46901
 20
10.4523
 30
0.0
  9
$LIMMIN
 10
0.0
 20
0.0
  9
$LIMMAX
 10
12.0
 20
9.0
  9
$ORTHOMODE
 70
     0
  9
$REGENMODE
 70
     1
  9
$FILLMODE
 70
     1
  9
$QTEXTMODE
 70
     0
  9
$MIRRTEXT
 70
     1
  9
$LTSCALE
 40
1.0
  9
$ATTMODE
 70
     1
  9
$TEXTSIZE
 40
0.2
  9
$TRACEWID
 40
0.05
  9
$TEXTSTYLE
  7
Standard
  9
$CLAYER
  8
0
  9
$CELTYPE
  6
ByLayer
  9
$CECOLOR
 62
   256
  9
$CELTSCALE
 40
1.0
  9
$DISPSILH
 70
     0
  9
$DIMSCALE
 40
1.0
  9
$DIMASZ
 40
0.18
  9
$DIMEXO
 40
0.0625
  9
$DIMDLI
 40
0.38
  9
$DIMRND
 40
0.0
  9
$DIMDLE
 40
0.0
  9
$DIMEXE
 40
0.18
  9
$DIMTP
 40
0.0
  9
$DIMTM
 40
0.0
  9
$DIMTXT
 40
0.18
  9
$DIMCEN
 40
0.09
  9
$DIMTSZ
 40
0.0
  9
$DIMTOL
 70
     0
  9
$DIMLIM
 70
     0
  9
$DIMTIH
 70
     1
  9
$DIMTOH
 70
     1
  9
$DIMSE1
 70
     0
  9
$DIMSE2
 70
     0
  9
$DIMTAD
 70
     0
  9
$DIMZIN
 70
     0
  9
$DIMBLK
  1

  9
$DIMASO
 70
     1
  9
$DIMSHO
 70
     1
  9
$DIMPOST
  1

  9
$DIMAPOST
  1

  9
$DIMALT
 70
     0
  9
$DIMALTD
 70
     2
  9
$DIMALTF
 40
25.4
  9
$DIMLFAC
 40
1.0
  9
$DIMTOFL
 70
     0
  9
$DIMTVP
 40
0.0
  9
$DIMTIX
 70
     0
  9
$DIMSOXD
 70
     0
  9
$DIMSAH
 70
     0
  9
$DIMBLK1
  1

  9
$DIMBLK2
  1

  9
$DIMSTYLE
  2
Standard
  9
$DIMCLRD
 70
     0
  9
$DIMCLRE
 70
     0
  9
$DIMCLRT
 70
     0
  9
$DIMTFAC
 40
1.0
  9
$DIMGAP
 40
0.09
  9
$DIMJUST
 70
     0
  9
$DIMSD1
 70
     0
  9
$DIMSD2
 70
     0
  9
$DIMTOLJ
 70
     1
  9
$DIMTZIN
 70
     0
  9
$DIMALTZ
 70
     0
  9
$DIMALTTZ
 70
     0
  9
$DIMUPT
 70
     0
  9
$DIMDEC
 70
     4
  9
$DIMTDEC
 70
     4
  9
$DIMALTU
 70
     2
  9
$DIMALTTD
 70
     2
  9
$DIMTXSTY
  7
Standard
  9
$DIMAUNIT
 70
     0
  9
$DIMADEC
 70
     0
  9
$DIMALTRND
 40
0.0
  9
$DIMAZIN
 70
     0
  9
$DIMDSEP
 70
    46
  9
$DIMATFIT
 70
     3
  9
$DIMFRAC
 70
     0
  9
$DIMLDRBLK
  1

  9
$DIMLUNIT
 70
     2
  9
$DIMLWD
 70
    -2
  9
$DIMLWE
 70
    -2
  9
$DIMTMOVE
 70
     0
  9
$DIMFXL
 40
1.0
  9
$DIMFXLON
 70
     0
  9
$DIMJOGANG
 40
0.7853981633974483
  9
$DIMTFILL
 70
     0
  9
$DIMTFILLCLR
 70
     0
  9
$DIMARCSYM
 70
     0
  9
$DIMLTYPE
  6

  9
$DIMLTEX1
  6

  9
$DIMLTEX2
  6

  9
$LUNITS
 70
     2
  9
$LUPREC
 70
     4
  9
$SKETCHINC
 40
0.1
  9
$FILLETRAD
 40
0.5
  9
$AUNITS
 70
     0
  9
$AUPREC
 70
     0
  9
$MENU
  1
.
  9
$ELEVATION
 40
0.0
  9
$PELEVATION
 40
0.0
  9
$THICKNESS
 40
0.0
  9
$LIMCHECK
 70
     0
  9
$CHAMFERA
 40
0.5
  9
$CHAMFERB
 40
0.5
  9
$CHAMFERC
 40
1.0
  9
$CHAMFERD
 40
0.0
  9
$SKPOLY
 70
     0
  9
$TDCREATE
 40
2456878.614090452
  9
$TDUCREATE
 40
2456878.739090452
  9
$TDUPDATE
 40
2456878.614090822
  9
$TDUUPDATE
 40
2456878.739090822
  9
$TDINDWG
 40
0.0000000116
  9
$TDUSRTIMER
 40
0.0000000116
  9
$USRTIMER
 70
     1
  9
$ANGBASE
 50
0.0
  9
$ANGDIR
 70
     0
  9
$PDMODE
 70
     0
  9
$PDSIZE
 40
0.0
  9
$PLINEWID
 40
0.0
  9
$SPLFRAME
 70
     0
  9
$SPLINETYPE
 70
     6
  9
$SPLINESEGS
 70
     8
  9
$HANDSEED
  5
6C
  9
$SURFTAB1
 70
     6
  9
$SURFTAB2
 70
     6
  9
$SURFTYPE
 70
     6
  9
$SURFU
 70
     6
  9
$SURFV
 70
     6
  9
$UCSBASE
  2

  9
$UCSNAME
  2

  9
$UCSORG
 10
0.0
 20
0.0
 30
0.0
  9
$UCSXDIR
 10
1.0
 20
0.0
 30
0.0
  9
$UCSYDIR
 10
0.0
 20
1.0
 30
0.0
  9
$UCSORTHOREF
  2

  9
$UCSORTHOVIEW
 70
     0
  9
$UCSORGTOP
 10
0.0
 20
0.0
 30
0.0
  9
$UCSORGBOTTOM
 10
0.0
 20
0.0
 30
0.0
  9
$UCSORGLEFT
 10
0.0
 20
0.0
 30
0.0
  9
$UCSORGRIGHT
 10
0.0
 20
0.0
 30
0.0
  9
$UCSORGFRONT
 10
0.0
 20
0.0
 30
0.0
  9
$UCSORGBACK
 10
0.0
 20
0.0
 30
0.0
  9
$PUCSBASE
  2

  9
$PUCSNAME
  2

  9
$PUCSORG
 10
0.0
 20
0.0
 30
0.0
  9
$PUCSXDIR
 10
1.0
 20
0.0
 30
0.0
  9
$PUCSYDIR
 10
0.0
 20
1.0
 30
0.0
  9
$PUCSORTHOREF
  2

  9
$PUCSORTHOVIEW
 70
     0
  9
$PUCSORGTOP
 10
0.0
 20
0.0
 30
0.0
  9
$PUCSORGBOTTOM
 10
0.0
 20
0.0
 30
0.0
  9
$PUCSORGLEFT
 10
0.0
 20
0.0
 30
0.0
  9
$PUCSORGRIGHT
 10
0.0
 20
0.0
 30
0.0
  9
$PUCSORGFRONT
 10
0.0
 20
0.0
 30
0.0
  9
$PUCSORGBACK
 10
0.0
 20
0.0
 30
0.0
  9
$USERI1
 70
     0
  9
$USERI2
 70
     0
  9
$USERI3
 70
     0
  9
$USERI4
 70
     0
  9
$USERI5
 70
     0
  9
$USERR1
 40
0.0
  9
$USERR2
 40
0.0
  9
$USERR3
 40
0.0
  9
$USERR4
 40
0.0
  9
$USERR5
 40
0.0
  9
$WORLDVIEW
 70
     1
  9
$SHADEDGE
 70
     3
  9
$SHADEDIF
 70
    70
  9
$TILEMODE
 70
     1
  9
$MAXACTVP
 70
    64
  9
$PINSBASE
 10
0.0
 20
0.0
 30
0.0
  9
$PLIMCHECK
 70
     0
  9
$PEXTMIN
 10
1.000000000000000E+20
 20
1.000000000000000E+20
 30
1.000000000000000E+20
  9
$PEXTMAX
 10
-1.000000000000000E+20
 20
-1.000000000000000E+20
 30
-1.000000000000000E+20
  9
$PLIMMIN
 10
0.0
 20
0.0
  9
$PLIMMAX
 10
12.0
 20
9.0
  9
$UNITMODE
 70
     0
  9
$VISRETAIN
 70
     1
  9
$PLINEGEN
 70
     0
  9
$PSLTSCALE
 70
     1
  9
$TREEDEPTH
 70
  3020
  9
$CMLSTYLE
  2
Standard
  9
$CMLJUST
 70
     0
  9
$CMLSCALE
 40
1.0
  9
$PROXYGRAPHICS
 70
     1
  9
$MEASUREMENT
 70
     0
  9
$CELWEIGHT
370
    -1
  9
$ENDCAPS
280
     0
  9
$JOINSTYLE
280
     0
  9
$LWDISPLAY
290
     0
  9
$INSUNITS
 70
     5
  9
$HYPERLINKBASE
  1

  9
$STYLESHEET
  1

  9
$XEDIT
290
     1
  9
$CEPSNTYPE
380
     0
  9
$PSTYLEMODE
290
     1
  9
$FINGERPRINTGUID
  2
{502740FC-C750-4A5E-A62B-4CB69D2EF65F}
  9
$VERSIONGUID
  2
{FAEB1C32-E019-11D5-929B-00C0DF256EC4}
  9
$EXTNAMES
290
     1
  9
$PSVPSCALE
 40
0.0
  9
$OLESTARTUP
290
     0
  9
$SORTENTS
280
   127
  9
$INDEXCTL
280
     0
  9
$HIDETEXT
280
     1
  9
$XCLIPFRAME
290
     0
  9
$HALOGAP
280
     0
  9
$OBSCOLOR
 70
   257
  9
$OBSLTYPE
280
     0
  9
$INTERSECTIONDISPLAY
280
     0
  9
$INTERSECTIONCOLOR
 70
   257
  9
$DIMASSOC
280
     2
  9
$PROJECTNAME
  1

  9
$CAMERADISPLAY
290
     0
  9
$LENSLENGTH
 40
50.0
  9
$CAMERAHEIGHT
 40
0.0
  9
$STEPSPERSEC
 40
2.0
  9
$STEPSIZE
 40
6.0
  9
$3DDWFPREC
 40
2.0
  9
$PSOLWIDTH
 40
0.25
  9
$PSOLHEIGHT
 40
4.0
  9
$LOFTANG1
 40
1.570796326794897
  9
$LOFTANG2
 40
1.570796326794897
  9
$LOFTMAG1
 40
0.0
  9
$LOFTMAG2
 40
0.0
  9
$LOFTPARAM
 70
     7
  9
$LOFTNORMALS
280
     1
  9
$LATITUDE
 40
37.795
  9
$LONGITUDE
 40
-122.394
  9
$NORTHDIRECTION
 40
0.0
  9
$TIMEZONE
 70
 -8000
  9
$LIGHTGLYPHDISPLAY
280
     1
  9
$TILEMODELIGHTSYNCH
280
     1
  9
$SOLIDHIST
280
     1
  9
$SHOWHIST
280
     1
  9
$DWFFRAME
280
     2
  9
$DGNFRAME
280
     2
  9
$REALWORLDSCALE
290
     1
  9
$INTERFERECOLOR
 62
   256
  9
$CSHADOW
280
     0
  9
$SHADOWPLANELOCATION
 40
0.0
  0
ENDSEC
  0
SECTION
  2
CLASSES
  0
CLASS
  1
ACDBDICTIONARYWDFLT
  2
AcDbDictionaryWithDefault
  3
ObjectDBX Classes
 90
        0
 91
        4
280
     0
281
     0
  0
CLASS
  1
VISUALSTYLE
  2
AcDbVisualStyle
  3
ObjectDBX Classes
 90
     4095
 91
        4
280
     0
281
     0
  0
CLASS
  1
MATERIAL
  2
AcDbMaterial
  3
ObjectDBX Classes
 90
     1153
 91
        4
280
     0
281
     0
  0
ENDSEC
  0
SECTION
  2
TABLES
  0
TABLE
  2
VPORT
  5
8
330
0
100
AcDbSymbolTable
 70
     1
  0
VPORT
  5
29
330
8
100
AcDbSymbolTableRecord
100
AcDbViewportTableRecord
  2
*Active
 70
     0
 10
0.0
 20
0.0
 11
1.0
 21
1.0
 12
10.42990654205607
 22
4.5
 13
0.0
 23
0.0
 14
0.5
 24
0.5
 15
0.5
 25
0.5
 16
0.0
 26
0.0
 36
1.0
 17
0.0
 27
0.0
 37
0.0
 40
9.0
 41
1.972972972850329
 42
50.0
 43
0.0
 44
0.0
 50
0.0
 51
0.0
 71
     0
 72
   100
 73
     1
 74
     3
 75
     0
 76
     0
 77
     0
 78
     0
281
     0
 65
     1
110
0.0
120
0.0
130
0.0
111
1.0
121
0.0
131
0.0
112
0.0
122
1.0
132
0.0
 79
     0
146
0.0
 60
     3
 61
     5
292
     1
282
     1
141
0.0
142
0.0
 63
   250
  0
ENDTAB
  0
TABLE
  2
LTYPE
  5
5
330
0
100
AcDbSymbolTable
 70
     1
  0
LTYPE
  5
14
330
5
100
AcDbSymbolTableRecord
100
AcDbLinetypeTableRecord
  2
ByBlock
 70
     0
  3

 72
    65
 73
     0
 40
0.0
  0
LTYPE
  5
15
330
5
100
AcDbSymbolTableRecord
100
AcDbLinetypeTableRecord
  2
ByLayer
 70
     0
  3

 72
    65
 73
     0
 40
0.0
  0
LTYPE
  5
16
330
5
100
AcDbSymbolTableRecord
100
AcDbLinetypeTableRecord
  2
Continuous
 70
     0
  3
Solid line
 72
    65
 73
     0
 40
0.0
  0
ENDTAB
  0
TABLE
  2
LAYER
  5
2
330
0
100
AcDbSymbolTable
 70
     2
  0
LAYER
  5
10
330
2
100
AcDbSymbolTableRecord
100
AcDbLayerTableRecord
  2
0
 70
     0
 62
     7
  6
Continuous
370
    -3
390
F
347
3E
  0
LAYER
  5
40
330
2
100
AcDbSymbolTableRecord
100
AcDbLayerTableRecord
  2
Camada 1
 70
     0
 62
     7
  6
Continuous
370
    -3
390
F
347
3E
  0
ENDTAB
  0
TABLE
  2
STYLE
  5
3
330
0
100
AcDbSymbolTable
 70
     1
  0
STYLE
  5
11
330
3
100
AcDbSymbolTableRecord
100
AcDbTextStyleTableRecord
  2
Standard
 70
     0
 40
0.0
 41
1.0
 50
0.0
 71
     0
 42
0.2
  3
txt
  4

  0
ENDTAB
  0
TABLE
  2
VIEW
  5
6
330
0
100
AcDbSymbolTable
 70
     0
  0
ENDTAB
  0
TABLE
  2
UCS
  5
7
330
0
100
AcDbSymbolTable
 70
     0
  0
ENDTAB
  0
TABLE
  2
APPID
  5
9
330
0
100
AcDbSymbolTable
 70
     2
  0
APPID
  5
12
330
9
100
AcDbSymbolTableRecord
100
AcDbRegAppTableRecord
  2
ACAD
 70
     0
  0
APPID
  5
3F
330
9
100
AcDbSymbolTableRecord
100
AcDbRegAppTableRecord
  2
ODA
 70
     0
  0
ENDTAB
  0
TABLE
  2
DIMSTYLE
  5
A
330
0
100
AcDbSymbolTable
 70
     1
100
AcDbDimStyleTable
  0
DIMSTYLE
105
27
330
A
100
AcDbSymbolTableRecord
100
AcDbDimStyleTableRecord
  2
Standard
 70
     0
178
     0
340
11
  0
ENDTAB
  0
TABLE
  2
BLOCK_RECORD
  5
1
330
0
100
AcDbSymbolTable
 70
     1
  0
BLOCK_RECORD
  5
1F
330
1
100
AcDbSymbolTableRecord
100
AcDbBlockTableRecord
  2
*Model_Space
340
22
 70
     0
280
     1
281
     0
  0
BLOCK_RECORD
  5
1B
330
1
100
AcDbSymbolTableRecord
100
AcDbBlockTableRecord
  2
*Paper_Space
340
1E
 70
     0
280
     1
281
     0
  0
BLOCK_RECORD
  5
23
330
1
100
AcDbSymbolTableRecord
100
AcDbBlockTableRecord
  2
*Paper_Space0
340
26
 70
     0
280
     1
281
     0
  0
ENDTAB
  0
ENDSEC
  0
SECTION
  2
BLOCKS
  0
BLOCK
  5
20
330
1F
100
AcDbEntity
  8
0
100
AcDbBlockBegin
  2
*Model_Space
 70
     0
 10
0.0
 20
0.0
 30
0.0
  3
*Model_Space
  1

  0
ENDBLK
  5
21
330
1F
100
AcDbEntity
  8
0
100
AcDbBlockEnd
  0
BLOCK
  5
1C
330
1B
100
AcDbEntity
 67
     1
  8
0
100
AcDbBlockBegin
  2
*Paper_Space
 70
     0
 10
0.0
 20
0.0
 30
0.0
  3
*Paper_Space
  1

  0
ENDBLK
  5
1D
330
1B
100
AcDbEntity
 67
     1
  8
0
100
AcDbBlockEnd
  0
BLOCK
  5
24
330
23
100
AcDbEntity
  8
0
100
AcDbBlockBegin
  2
*Paper_Space0
 70
     0
 10
0.0
 20
0.0
 30
0.0
  3
*Paper_Space0
  1

  0
ENDBLK
  5
25
330
23
100
AcDbEntity
  8
0
100
AcDbBlockEnd
  0
ENDSEC
  0
SECTION
  2
ENTITIES
  0
SPLINE
  5
41
330
1F
100
AcDbEntity
  8
Camada 1
100
AcDbSpline
210
0.0
220
0.0
230
1.0
 70
    11
 71
     3
 72
   244
 73
   240
 74
     0
 42
0.0000000001
 43
0.0000000001
 12
1.0
 22
0.0
 32
0.0
 13
1.0
 23
0.0
 33
0.0
 40
0.0
 40
0.0
 40
0.0
 40
0.0
 40
0.0163934426229508
 40
0.0163934426229508
 40
0.0163934426229508
 40
0.0163934426229508
 40
0.0327868852459016
 40
0.0327868852459016
 40
0.0327868852459016
 40
0.0327868852459016
 40
0.0491803278688525
 40
0.0491803278688525
 40
0.0491803278688525
 40
0.0491803278688525
 40
0.0655737704918033
 40
0.0655737704918033
 40
0.0655737704918033
 40
0.0655737704918033
 40
0.0819672131147541
 40
0.0819672131147541
 40
0.0819672131147541
 40
0.0819672131147541
 40
0.0983606557377049
 40
0.0983606557377049
 40
0.0983606557377049
 40
0.0983606557377049
 40
0.1147540983606557
 40
0.1147540983606557
 40
0.1147540983606557
 40
0.1147540983606557
 40
0.1311475409836066
 40
0.1311475409836066
 40
0.1311475409836066
 40
0.1311475409836066
 40
0.1475409836065574
 40
0.1475409836065574
 40
0.1475409836065574
 40
0.1475409836065574
 40
0.1639344262295082
 40
0.1639344262295082
 40
0.1639344262295082
 40
0.1639344262295082
 40
0.180327868852459
 40
0.180327868852459
 40
0.180327868852459
 40
0.180327868852459
 40
0.1967213114754098
 40
0.1967213114754098
 40
0.1967213114754098
 40
0.1967213114754098
 40
0.2131147540983606
 40
0.2131147540983606
 40
0.2131147540983606
 40
0.2131147540983606
 40
0.2295081967213115
 40
0.2295081967213115
 40
0.2295081967213115
 40
0.2295081967213115
 40
0.2459016393442623
 40
0.2459016393442623
 40
0.2459016393442623
 40
0.2459016393442623
 40
0.2622950819672131
 40
0.2622950819672131
 40
0.2622950819672131
 40
0.2622950819672131
 40
0.2786885245901639
 40
0.2786885245901639
 40
0.2786885245901639
 40
0.2786885245901639
 40
0.2950819672131147
 40
0.2950819672131147
 40
0.2950819672131147
 40
0.2950819672131147
 40
0.3114754098360656
 40
0.3114754098360656
 40
0.3114754098360656
 40
0.3114754098360656
 40
0.3278688524590164
 40
0.3278688524590164
 40
0.3278688524590164
 40
0.3278688524590164
 40
0.3442622950819672
 40
0.3442622950819672
 40
0.3442622950819672
 40
0.3442622950819672
 40
0.360655737704918
 40
0.360655737704918
 40
0.360655737704918
 40
0.360655737704918
 40
0.3770491803278688
 40
0.3770491803278688
 40
0.3770491803278688
 40
0.3770491803278688
 40
0.3934426229508197
 40
0.3934426229508197
 40
0.3934426229508197
 40
0.3934426229508197
 40
0.4098360655737705
 40
0.4098360655737705
 40
0.4098360655737705
 40
0.4098360655737705
 40
0.4262295081967213
 40
0.4262295081967213
 40
0.4262295081967213
 40
0.4262295081967213
 40
0.4426229508196721
 40
0.4426229508196721
 40
0.4426229508196721
 40
0.4426229508196721
 40
0.459016393442623
 40
0.459016393442623
 40
0.459016393442623
 40
0.459016393442623
 40
0.4754098360655737
 40
0.4754098360655737
 40
0.4754098360655737
 40
0.4754098360655737
 40
0.4918032786885246
 40
0.4918032786885246
 40
0.4918032786885246
 40
0.4918032786885246
 40
0.5081967213114754
 40
0.5081967213114754
 40
0.5081967213114754
 40
0.5081967213114754
 40
0.5245901639344263
 40
0.5245901639344263
 40
0.5245901639344263
 40
0.5245901639344263
 40
0.5409836065573771
 40
0.5409836065573771
 40
0.5409836065573771
 40
0.5409836065573771
 40
0.5573770491803278
 40
0.5573770491803278
 40
0.5573770491803278
 40
0.5573770491803278
 40
0.5737704918032787
 40
0.5737704918032787
 40
0.5737704918032787
 40
0.5737704918032787
 40
0.5901639344262295
 40
0.5901639344262295
 40
0.5901639344262295
 40
0.5901639344262295
 40
0.6065573770491803
 40
0.6065573770491803
 40
0.6065573770491803
 40
0.6065573770491803
 40
0.6229508196721312
 40
0.6229508196721312
 40
0.6229508196721312
 40
0.6229508196721312
 40
0.639344262295082
 40
0.639344262295082
 40
0.639344262295082
 40
0.639344262295082
 40
0.6557377049180327
 40
0.6557377049180327
 40
0.6557377049180327
 40
0.6557377049180327
 40
0.6721311475409836
 40
0.6721311475409836
 40
0.6721311475409836
 40
0.6721311475409836
 40
0.6885245901639344
 40
0.6885245901639344
 40
0.6885245901639344
 40
0.6885245901639344
 40
0.7049180327868853
 40
0.7049180327868853
 40
0.7049180327868853
 40
0.7049180327868853
 40
0.7213114754098361
 40
0.7213114754098361
 40
0.7213114754098361
 40
0.7213114754098361
 40
0.7377049180327869
 40
0.7377049180327869
 40
0.7377049180327869
 40
0.7377049180327869
 40
0.7540983606557377
 40
0.7540983606557377
 40
0.7540983606557377
 40
0.7540983606557377
 40
0.7704918032786885
 40
0.7704918032786885
 40
0.7704918032786885
 40
0.7704918032786885
 40
0.7868852459016393
 40
0.7868852459016393
 40
0.7868852459016393
 40
0.7868852459016393
 40
0.8032786885245902
 40
0.8032786885245902
 40
0.8032786885245902
 40
0.8032786885245902
 40
0.819672131147541
 40
0.819672131147541
 40
0.819672131147541
 40
0.819672131147541
 40
0.8360655737704918
 40
0.8360655737704918
 40
0.8360655737704918
 40
0.8360655737704918
 40
0.8524590163934426
 40
0.8524590163934426
 40
0.8524590163934426
 40
0.8524590163934426
 40
0.8688524590163934
 40
0.8688524590163934
 40
0.8688524590163934
 40
0.8688524590163934
 40
0.8852459016393442
 40
0.8852459016393442
 40
0.8852459016393442
 40
0.8852459016393442
 40
0.9016393442622951
 40
0.9016393442622951
 40
0.9016393442622951
 40
0.9016393442622951
 40
0.9180327868852459
 40
0.9180327868852459
 40
0.9180327868852459
 40
0.9180327868852459
 40
0.9344262295081968
 40
0.9344262295081968
 40
0.9344262295081968
 40
0.9344262295081968
 40
0.9508196721311475
 40
0.9508196721311475
 40
0.9508196721311475
 40
0.9508196721311475
 40
0.9672131147540983
 40
0.9672131147540983
 40
0.9672131147540983
 40
0.9672131147540983
 40
1.0
 40
1.0
 40
1.0
 40
1.0
 10
8.46901
 20
-4.93521
 30
0.0
 10
8.46901
 20
-4.99628
 30
0.0
 10
8.46901
 20
-5.03446
 30
0.0
 10
8.46901
 20
-5.04843
 30
0.0
 10
8.46901
 20
-5.04843
 30
0.0
 10
8.46901
 20
-5.04843
 30
0.0
 10
8.3777
 20
-5.57307
 30
0.0
 10
8.3777
 20
-5.57307
 30
0.0
 10
8.3777
 20
-5.57307
 30
0.0
 10
8.3777
 20
-5.57307
 30
0.0
 10
8.3092
 20
-5.5274
 30
0.0
 10
8.3092
 20
-5.5274
 30
0.0
 10
8.3092
 20
-5.5274
 30
0.0
 10
8.26353
 20
-5.16257
 30
0.0
 10
8.08856
 20
-4.78331
 30
0.0
 10
7.78572
 20
-4.38797
 30
0.0
 10
7.78572
 20
-4.38797
 30
0.0
 10
7.43605
 20
-3.93275
 30
0.0
 10
7.0936
 20
-3.70468
 30
0.0
 10
6.75903
 20
-3.70468
 30
0.0
 10
6.75903
 20
-3.70468
 30
0.0
 10
6.60668
 20
-3.70468
 30
0.0
 10
6.34064
 20
-3.79834
 30
0.0
 10
5.96158
 20
-3.98845
 30
0.0
 10
5.96158
 20
-3.98845
 30
0.0
 10
5.58116
 20
-4.17855
 30
0.0
 10
5.26946
 20
-4.27359
 30
0.0
 10
5.02601
 20
-4.27359
 30
0.0
 10
5.02601
 20
-4.27359
 30
0.0
 10
4.67747
 20
-4.27359
 30
0.0
 10
4.41122
 20
-4.07185
 30
0.0
 10
4.22879
 20
-3.66883
 30
0.0
 10
4.22879
 20
-3.66883
 30
0.0
 10
4.04636
 20
-3.26717
 30
0.0
 10
3.84835
 20
-3.06566
 30
0.0
 10
3.63541
 20
-3.06566
 30
0.0
 10
3.63541
 20
-3.06566
 30
0.0
 10
3.2261
 20
-3.06566
 30
0.0
 10
2.85335
 20
-3.63618
 30
0.0
 10
2.51858
 20
-4.77587
 30
0.0
 10
2.51858
 20
-4.77587
 30
0.0
 10
2.24508
 20
-5.73266
 30
0.0
 10
2.10808
 20
-6.50868
 30
0.0
 10
2.10808
 20
-7.1018
 30
0.0
 10
2.10808
 20
-7.1018
 30
0.0
 10
2.10808
 20
-7.70799
 30
0.0
 10
2.14584
 20
-8.24006
 30
0.0
 10
2.22222
 20
-8.69668
 30
0.0
 10
2.22222
 20
-8.69668
 30
0.0
 10
2.23712
 20
-8.81804
 30
0.0
 10
2.31355
 20
-9.09226
 30
0.0
 10
2.45029
 20
-9.51811
 30
0.0
 10
2.45029
 20
-9.51811
 30
0.0
 10
2.57168
 20
-9.86757
 30
0.0
 10
2.63272
 20
-10.14038
 30
0.0
 10
2.63272
 20
-10.33816
 30
0.0
 10
2.63272
 20
-10.33816
 30
0.0
 10
2.63272
 20
-10.38383
 30
0.0
 10
2.60243
 20
-10.42203
 30
0.0
 10
2.54141
 20
-10.4523
 30
0.0
 10
2.54141
 20
-10.4523
 30
0.0
 10
1.9343
 20
-9.64738
 30
0.0
 10
1.56925
 20
-9.15283
 30
0.0
 10
1.44762
 20
-8.97016
 30
0.0
 10
1.44762
 20
-8.97016
 30
0.0
 10
1.06741
 20
-8.39218
 30
0.0
 10
0.79323
 20
-7.83703
 30
0.0
 10
0.62757
 20
-7.30585
 30
0.0
 10
0.62757
 20
-7.30585
 30
0.0
 10
-0.04175
 20
-5.29933
 30
0.0
 10
-0.6428
 20
-3.81883
 30
0.0
 10
-1.17395
 20
-2.8604
 30
0.0
 10
-1.17395
 20
-2.8604
 30
0.0
 10
-1.55416
 20
-2.17571
 30
0.0
 10
-1.99516
 20
-1.72843
 30
0.0
 10
-2.49578
 20
-1.51526
 30
0.0
 10
-2.49578
 20
-1.51526
 30
0.0
 10
-2.93703
 20
-1.40996
 30
0.0
 10
-3.37057
 20
-1.30349
 30
0.0
 10
-3.79528
 20
-1.19747
 30
0.0
 10
-3.79528
 20
-1.19747
 30
0.0
 10
-4.31246
 20
-1.06005
 30
0.0
 10
-4.74577
 20
-0.75622
 30
0.0
 10
-5.09592
 20
-0.28471
 30
0.0
 10
-5.09592
 20
-0.28471
 30
0.0
 10
-5.20239
 20
-0.13236
 30
0.0
 10
-5.4181
 20
0.06541
 30
0.0
 10
-5.74521
 20
0.30878
 30
0.0
 10
-5.74521
 20
0.30878
 30
0.0
 10
-6.07184
 20
0.55222
 30
0.0
 10
-6.28896
 20
0.76773
 30
0.0
 10
-6.39519
 20
0.9577
 30
0.0
 10
-6.39519
 20
0.9577
 30
0.0
 10
-6.5019
 20
1.14804
 30
0.0
 10
-6.60813
 20
1.34198
 30
0.0
 10
-6.71343
 20
1.53989
 30
0.0
 10
-6.71343
 20
1.53989
 30
0.0
 10
-6.81987
 20
1.73626
 30
0.0
 10
-6.96457
 20
1.9011
 30
0.0
 10
-7.14721
 20
2.0304
 30
0.0
 10
-7.14721
 20
2.0304
 30
0.0
 10
-7.3294
 20
2.15841
 30
0.0
 10
-7.54279
 20
2.2381
 30
0.0
 10
-7.78602
 20
2.26871
 30
0.0
 10
-7.78602
 20
2.26871
 30
0.0
 10
-7.80092
 20
2.26871
 30
0.0
 10
-7.83542
 20
2.27617
 30
0.0
 10
-7.88852
 20
2.29154
 30
0.0
 10
-7.88852
 20
2.29154
 30
0.0
 10
-7.9421
 20
2.30644
 30
0.0
 10
-7.97612
 20
2.31437
 30
0.0
 10
-7.9915
 20
2.31437
 30
0.0
 10
-7.9915
 20
2.31437
 30
0.0
 10
-8.12686
 20
2.31437
 30
0.0
 10
-8.2636
 20
2.2687
 30
0.0
 10
-8.40057
 20
2.17716
 30
0.0
 10
-8.40057
 20
2.17716
 30
0.0
 10
-8.40057
 20
2.17716
 30
0.0
 10
-8.46901
 20
2.17716
 30
0.0
 10
-8.46901
 20
2.17716
 30
0.0
 10
-8.46901
 20
2.17716
 30
0.0
 10
-8.31711
 20
2.46616
 30
0.0
 10
-7.99887
 20
2.61084
 30
0.0
 10
-7.51199
 20
2.61084
 30
0.0
 10
-7.51199
 20
2.61084
 30
0.0
 10
-7.19261
 20
2.61084
 30
0.0
 10
-6.79097
 20
2.48154
 30
0.0
 10
-6.30406
 20
2.22307
 30
0.0
 10
-6.30406
 20
2.22307
 30
0.0
 10
-5.77174
 20
1.91869
 30
0.0
 10
-5.3687
 20
1.75129
 30
0.0
 10
-5.09589
 20
1.72092
 30
0.0
 10
-5.09589
 20
1.72092
 30
0.0
 10
-4.65464
 20
1.66001
 30
0.0
 10
-4.2288
 20
1.62972
 30
0.0
 10
-3.81808
 20
1.62972
 30
0.0
 10
-3.81808
 20
1.62972
 30
0.0
 10
-2.93699
 20
1.62972
 30
0.0
 10
-2.35271
 20
1.243
 30
0.0
 10
-2.06384
 20
0.46849
 30
0.0
 10
-2.06384
 20
0.46849
 30
0.0
 10
-1.98767
 20
0.25579
 30
0.0
 10
-1.8509
 20
0.01981
 30
0.0
 10
-1.65289
 20
-0.23901
 30
0.0
 10
-1.65289
 20
-0.23901
 30
0.0
 10
-1.36402
 20
-0.60384
 30
0.0
 10
-1.19675
 20
-0.81678
 30
0.0
 10
-1.15108
 20
-0.87758
 30
0.0
 10
-1.15108
 20
-0.87758
 30
0.0
 10
-0.92277
 20
-1.24289
 30
0.0
 10
-0.711
 20
-1.81947
 30
0.0
 10
-0.5137
 20
-2.60944
 30
0.0
 10
-0.5137
 20
-2.60944
 30
0.0
 10
-0.30031
 20
-3.46116
 30
0.0
 10
-0.10275
 20
-4.06198
 30
0.0
 10
0.07989
 20
-4.41051
 30
0.0
 10
0.07989
 20
-4.41051
 30
0.0
 10
0.21665
 20
-3.6361
 30
0.0
 10
0.34596
 20
-2.86778
 30
0.0
 10
0.46756
 20
-2.10739
 30
0.0
 10
0.46756
 20
-2.10739
 30
0.0
 10
0.65044
 20
-1.3328
 30
0.0
 10
0.96844
 20
-0.61921
 30
0.0
 10
1.42503
 20
0.03497
 30
0.0
 10
1.42503
 20
0.03497
 30
0.0
 10
1.9406
 20
0.76509
 30
0.0
 10
2.22971
 20
1.1518
 30
0.0
 10
2.29075
 20
1.19736
 30
0.0
 10
2.29075
 20
1.19736
 30
0.0
 10
2.67096
 20
1.6372
 30
0.0
 10
3.08146
 20
1.85781
 30
0.0
 10
3.52268
 20
1.85781
 30
0.0
 10
3.52268
 20
1.85781
 30
0.0
 10
3.52268
 20
1.85781
 30
0.0
 10
3.63545
 20
1.83498
 30
0.0
 10
3.63545
 20
1.83498
 30
0.0
 10
3.63545
 20
1.83498
 30
0.0
 10
3.46821
 20
1.69824
 30
0.0
 10
3.25667
 20
1.5079
 30
0.0
 10
2.99807
 20
1.26583
 30
0.0
 10
2.99807
 20
1.26583
 30
0.0
 10
2.64813
 20
0.93118
 30
0.0
 10
2.16125
 20
0.26327
 30
0.0
 10
1.539
 20
-0.7408
 30
0.0
 10
1.539
 20
-0.7408
 30
0.0
 10
1.06749
 20
-1.50121
 30
0.0
 10
0.74787
 20
-2.75362
 30
0.0
 10
0.58176
 20
-4.5018
 30
0.0
 10
0.58176
 20
-4.5018
 30
0.0
 10
0.56544
 20
-4.53209
 30
0.0
 10
0.55893
 20
-4.56236
 30
0.0
 10
0.55893
 20
-4.59311
 30
0.0
 10
0.55893
 20
-4.59311
 30
0.0
 10
0.49834
 20
-5.6112
 30
0.0
 10
0.77046
 20
-6.55399
 30
0.0
 10
1.37943
 20
-7.41992
 30
0.0
 10
1.37943
 20
-7.41992
 30
0.0
 10
1.40972
 20
-6.85847
 30
0.0
 10
1.49336
 20
-6.02959
 30
0.0
 10
1.63012
 20
-4.93511
 30
0.0
 10
1.63012
 20
-4.93511
 30
0.0
 10
1.84306
 20
-3.88702
 30
0.0
 10
2.15384
 20
-2.99733
 30
0.0
 10
2.56431
 20
-2.26671
 30
0.0
 10
2.56431
 20
-2.26671
 30
0.0
 10
3.14253
 20
-1.21999
 30
0.0
 10
3.84841
 20
-0.69514
 30
0.0
 10
4.685
 20
-0.69514
 30
0.0
 10
4.685
 20
-0.69514
 30
0.0
 10
4.86788
 20
-0.69514
 30
0.0
 10
5.09828
 20
-0.7711
 30
0.0
 10
5.37995
 20
-0.92321
 30
0.0
 10
5.37995
 20
-0.92321
 30
0.0
 10
5.66136
 20
-1.07535
 30
0.0
 10
5.86287
 20
-1.16665
 30
0.0
 10
5.9845
 20
-1.1974
 30
0.0
 10
5.9845
 20
-1.1974
 30
0.0
 10
6.1809
 20
-1.22772
 30
0.0
 10
6.38381
 20
-1.26566
 30
0.0
 10
6.58809
 20
-1.31133
 30
0.0
 10
6.58809
 20
-1.31133
 30
0.0
 10
6.79335
 20
-1.35559
 30
0.0
 10
6.95292
 20
-1.45042
 30
0.0
 10
7.06709
 20
-1.59531
 30
0.0
 10
7.06709
 20
-1.59531
 30
0.0
 10
7.18123
 20
-1.73951
 30
0.0
 10
7.2574
 20
-1.92612
 30
0.0
 10
7.29516
 20
-2.15279
 30
0.0
 10
7.29516
 20
-2.15279
 30
0.0
 10
7.33313
 20
-2.38086
 30
0.0
 10
7.3676
 20
-2.60174
 30
0.0
 10
7.3979
 20
-2.81467
 30
0.0
 10
7.3979
 20
-2.81467
 30
0.0
 10
7.42819
 20
-2.89061
 30
0.0
 10
7.62621
 20
-3.13384
 30
0.0
 10
7.99012
 20
-3.54455
 30
0.0
 10
7.99012
 20
-3.54455
 30
0.0
 10
8.3092
 20
-3.89476
 30
0.0
 10
8.46901
 20
-4.35746
 30
0.0
 10
8.46901
 20
-4.93521
 30
0.0
  0
SPLINE
  5
42
330
1F
100
AcDbEntity
  8
Camada 1
100
AcDbSpline
210
0.0
220
0.0
230
1.0
 70
    11
 71
     3
 72
    64
 73
    60
 74
     0
 42
0.0000000001
 43
0.0000000001
 12
1.0
 22
0.0
 32
0.0
 13
1.0
 23
0.0
 33
0.0
 40
0.0
 40
0.0
 40
0.0
 40
0.0
 40
0.0625
 40
0.0625
 40
0.0625
 40
0.0625
 40
0.125
 40
0.125
 40
0.125
 40
0.125
 40
0.1875
 40
0.1875
 40
0.1875
 40
0.1875
 40
0.25
 40
0.25
 40
0.25
 40
0.25
 40
0.3125
 40
0.3125
 40
0.3125
 40
0.3125
 40
0.375
 40
0.375
 40
0.375
 40
0.375
 40
0.4375
 40
0.4375
 40
0.4375
 40
0.4375
 40
0.5
 40
0.5
 40
0.5
 40
0.5
 40
0.5625
 40
0.5625
 40
0.5625
 40
0.5625
 40
0.625
 40
0.625
 40
0.625
 40
0.625
 40
0.6875
 40
0.6875
 40
0.6875
 40
0.6875
 40
0.75
 40
0.75
 40
0.75
 40
0.75
 40
0.8125
 40
0.8125
 40
0.8125
 40
0.8125
 40
0.875
 40
0.875
 40
0.875
 40
0.875
 40
1.0
 40
1.0
 40
1.0
 40
1.0
 10
1.05978
 20
5.3692
 30
0.0
 10
1.05978
 20
5.23223
 30
0.0
 10
0.99898
 20
5.06485
 30
0.0
 10
0.87714
 20
4.86715
 30
0.0
 10
0.87714
 20
4.86715
 30
0.0
 10
0.43589
 20
4.04689
 30
0.0
 10
-0.22456
 20
3.63755
 30
0.0
 10
-1.10541
 20
3.63755
 30
0.0
 10
-1.10541
 20
3.63755
 30
0.0
 10
-1.33372
 20
3.63755
 30
0.0
 10
-1.64916
 20
3.71222
 30
0.0
 10
-2.05217
 20
3.86446
 30
0.0
 10
-2.05217
 20
3.86446
 30
0.0
 10
-2.45405
 20
4.0166
 30
0.0
 10
-2.76993
 20
4.09277
 30
0.0
 10
-2.99803
 20
4.09277
 30
0.0
 10
-2.99803
 20
4.09277
 30
0.0
 10
-3.22634
 20
4.09277
 30
0.0
 10
-3.49984
 20
3.9482
 30
0.0
 10
-3.81808
 20
3.66039
 30
0.0
 10
-3.81808
 20
3.66039
 30
0.0
 10
-4.06176
 20
3.44745
 30
0.0
 10
-4.30497
 20
3.23452
 30
0.0
 10
-4.54844
 20
3.02137
 30
0.0
 10
-4.54844
 20
3.02137
 30
0.0
 10
-4.54844
 20
3.02137
 30
0.0
 10
-4.57127
 20
3.06704
 30
0.0
 10
-4.57127
 20
3.06704
 30
0.0
 10
-4.57127
 20
3.06704
 30
0.0
 10
-4.14542
 20
4.05457
 30
0.0
 10
-3.55344
 20
4.90513
 30
0.0
 10
-2.79282
 20
5.62011
 30
0.0
 10
-2.79282
 20
5.62011
 30
0.0
 10
-1.91176
 20
6.45553
 30
0.0
 10
-0.98384
 20
6.87381
 30
0.0
 10
-0.01144
 20
6.87381
 30
0.0
 10
-0.01144
 20
6.87381
 30
0.0
 10
0.12553
 20
6.87381
 30
0.0
 10
0.28886
 20
6.82814
 30
0.0
 10
0.47918
 20
6.73694
 30
0.0
 10
0.47918
 20
6.73694
 30
0.0
 10
0.66812
 20
6.64561
 30
0.0
 10
0.76295
 20
6.53914
 30
0.0
 10
0.76295
 20
6.41873
 30
0.0
 10
0.76295
 20
6.41873
 30
0.0
 10
0.76295
 20
6.38717
 30
0.0
 10
0.75155
 20
6.34523
 30
0.0
 10
0.72871
 20
6.29199
 30
0.0
 10
0.72871
 20
6.29199
 30
0.0
 10
0.70588
 20
6.23862
 30
0.0
 10
0.69471
 20
6.20579
 30
0.0
 10
0.69471
 20
6.19055
 30
0.0
 10
0.69471
 20
6.19055
 30
0.0
 10
0.69471
 20
6.12975
 30
0.0
 10
0.75551
 20
6.00801
 30
0.0
 10
0.87711
 20
5.82561
 30
0.0
 10
0.87711
 20
5.82561
 30
0.0
 10
0.99897
 20
5.64294
 30
0.0
 10
1.05978
 20
5.49094
 30
0.0
 10
1.05978
 20
5.3692
 30
0.0
  0
SPLINE
  5
43
330
1F
100
AcDbEntity
  8
Camada 1
100
AcDbSpline
210
0.0
220
0.0
230
1.0
 70
    11
 71
     3
 72
    68
 73
    64
 74
     0
 42
0.0000000001
 43
0.0000000001
 12
1.0
 22
0.0
 32
0.0
 13
1.0
 23
0.0
 33
0.0
 40
0.0
 40
0.0
 40
0.0
 40
0.0
 40
0.0588235294117647
 40
0.0588235294117647
 40
0.0588235294117647
 40
0.0588235294117647
 40
0.1176470588235294
 40
0.1176470588235294
 40
0.1176470588235294
 40
0.1176470588235294
 40
0.1764705882352941
 40
0.1764705882352941
 40
0.1764705882352941
 40
0.1764705882352941
 40
0.2352941176470588
 40
0.2352941176470588
 40
0.2352941176470588
 40
0.2352941176470588
 40
0.2941176470588235
 40
0.2941176470588235
 40
0.2941176470588235
 40
0.2941176470588235
 40
0.3529411764705883
 40
0.3529411764705883
 40
0.3529411764705883
 40
0.3529411764705883
 40
0.4117647058823529
 40
0.4117647058823529
 40
0.4117647058823529
 40
0.4117647058823529
 40
0.4705882352941176
 40
0.4705882352941176
 40
0.4705882352941176
 40
0.4705882352941176
 40
0.5294117647058824
 40
0.5294117647058824
 40
0.5294117647058824
 40
0.5294117647058824
 40
0.5882352941176471
 40
0.5882352941176471
 40
0.5882352941176471
 40
0.5882352941176471
 40
0.6470588235294118
 40
0.6470588235294118
 40
0.6470588235294118
 40
0.6470588235294118
 40
0.7058823529411765
 40
0.7058823529411765
 40
0.7058823529411765
 40
0.7058823529411765
 40
0.7647058823529411
 40
0.7647058823529411
 40
0.7647058823529411
 40
0.7647058823529411
 40
0.8235294117647058
 40
0.8235294117647058
 40
0.8235294117647058
 40
0.8235294117647058
 40
0.8823529411764706
 40
0.8823529411764706
 40
0.8823529411764706
 40
0.8823529411764706
 40
1.0
 40
1.0
 40
1.0
 40
1.0
 10
0.67187
 20
6.98798
 30
0.0
 10
0.67187
 20
6.98798
 30
0.0
 10
0.67187
 20
6.94221
 30
0.0
 10
0.67187
 20
6.94221
 30
0.0
 10
0.67187
 20
6.94221
 30
0.0
 10
0.49039
 20
7.10972
 30
0.0
 10
0.21665
 20
7.19335
 30
0.0
 10
-0.14839
 20
7.19335
 30
0.0
 10
-0.14839
 20
7.19335
 30
0.0
 10
-0.31566
 20
7.19335
 30
0.0
 10
-0.53254
 20
7.14395
 30
0.0
 10
-0.79741
 20
7.04508
 30
0.0
 10
-0.79741
 20
7.04508
 30
0.0
 10
-1.06369
 20
6.94621
 30
0.0
 10
-1.27265
 20
6.89657
 30
0.0
 10
-1.42503
 20
6.89657
 30
0.0
 10
-1.42503
 20
6.89657
 30
0.0
 10
-1.60722
 20
6.89657
 30
0.0
 10
-1.79359
 20
6.96507
 30
0.0
 10
-1.98394
 20
7.10205
 30
0.0
 10
-1.98394
 20
7.10205
 30
0.0
 10
-2.17381
 20
7.23892
 30
0.0
 10
-2.33642
 20
7.30742
 30
0.0
 10
-2.47315
 20
7.30742
 30
0.0
 10
-2.47315
 20
7.30742
 30
0.0
 10
-2.54932
 20
7.30742
 30
0.0
 10
-2.66349
 20
7.29088
 30
0.0
 10
-2.8156
 20
7.26175
 30
0.0
 10
-2.8156
 20
7.26175
 30
0.0
 10
-2.96726
 20
7.24521
 30
0.0
 10
-3.08188
 20
7.24521
 30
0.0
 10
-3.15784
 20
7.26175
 30
0.0
 10
-3.15784
 20
7.26175
 30
0.0
 10
-3.15784
 20
7.26175
 30
0.0
 10
-3.15784
 20
7.30742
 30
0.0
 10
-3.15784
 20
7.30742
 30
0.0
 10
-3.15784
 20
7.30742
 30
0.0
 10
-3.15784
 20
7.38232
 30
0.0
 10
-3.07399
 20
7.50893
 30
0.0
 10
-2.9067
 20
7.6839
 30
0.0
 10
-2.9067
 20
7.6839
 30
0.0
 10
-2.73943
 20
7.85757
 30
0.0
 10
-2.61783
 20
7.96788
 30
0.0
 10
-2.54142
 20
8.01344
 30
0.0
 10
-2.54142
 20
8.01344
 30
0.0
 10
-2.35923
 20
8.10477
 30
0.0
 10
-2.11695
 20
8.15055
 30
0.0
 10
-1.8127
 20
8.15055
 30
0.0
 10
-1.8127
 20
8.15055
 30
0.0
 10
-1.76703
 20
8.15055
 30
0.0
 10
-1.63749
 20
8.19611
 30
0.0
 10
-1.42503
 20
8.28742
 30
0.0
 10
-1.42503
 20
8.28742
 30
0.0
 10
-1.21164
 20
8.37862
 30
0.0
 10
-1.03691
 20
8.42418
 30
0.0
 10
-0.89994
 20
8.42418
 30
0.0
 10
-0.89994
 20
8.42418
 30
0.0
 10
-0.5668
 20
8.42418
 30
0.0
 10
-0.22062
 20
8.26831
 30
0.0
 10
0.13699
 20
7.95777
 30
0.0
 10
0.13699
 20
7.95777
 30
0.0
 10
0.4932
 20
7.64586
 30
0.0
 10
0.67187
 20
7.32125
 30
0.0
 10
0.67187
 20
6.98798
 30
0.0
  0
SPLINE
  5
44
330
1F
100
AcDbEntity
  8
Camada 1
100
AcDbSpline
210
0.0
220
0.0
230
1.0
 70
    11
 71
     3
 72
    24
 73
    20
 74
     0
 42
0.0000000001
 43
0.0000000001
 12
1.0
 22
0.0
 32
0.0
 13
1.0
 23
0.0
 33
0.0
 40
0.0
 40
0.0
 40
0.0
 40
0.0
 40
0.1666666666666667
 40
0.1666666666666667
 40
0.1666666666666667
 40
0.1666666666666667
 40
0.3333333333333333
 40
0.3333333333333333
 40
0.3333333333333333
 40
0.3333333333333333
 40
0.5
 40
0.5
 40
0.5
 40
0.5
 40
0.6666666666666666
 40
0.6666666666666666
 40
0.6666666666666666
 40
0.6666666666666666
 40
1.0
 40
1.0
 40
1.0
 40
1.0
 10
-0.03425
 20
8.72079
 30
0.0
 10
-0.03425
 20
8.72079
 30
0.0
 10
-0.05708
 20
8.65242
 30
0.0
 10
-0.05708
 20
8.65242
 30
0.0
 10
-0.05708
 20
8.65242
 30
0.0
 10
-0.23948
 20
8.81969
 30
0.0
 10
-0.47547
 20
9.01736
 30
0.0
 10
-0.76436
 20
9.24567
 30
0.0
 10
-0.76436
 20
9.24567
 30
0.0
 10
-0.89996
 20
9.27596
 30
0.0
 10
-1.06744
 20
9.35971
 30
0.0
 10
-1.26524
 20
9.49657
 30
0.0
 10
-1.26524
 20
9.49657
 30
0.0
 10
-1.24987
 20
9.49657
 30
0.0
 10
-1.21957
 20
9.50297
 30
0.0
 10
-1.17391
 20
9.51927
 30
0.0
 10
-1.17391
 20
9.51927
 30
0.0
 10
-0.5971
 20
9.51927
 30
0.0
 10
-0.21665
 20
9.2531
 30
0.0
 10
-0.03425
 20
8.72079
 30
0.0
  0
SPLINE
  5
45
330
1F
100
AcDbEntity
  8
Camada 1
100
AcDbSpline
210
0.0
220
0.0
230
1.0
 70
    11
 71
     3
 72
    80
 73
    76
 74
     0
 42
0.0000000001
 43
0.0000000001
 12
1.0
 22
0.0
 32
0.0
 13
1.0
 23
0.0
 33
0.0
 40
0.0
 40
0.0
 40
0.0
 40
0.0
 40
0.05
 40
0.05
 40
0.05
 40
0.05
 40
0.1
 40
0.1
 40
0.1
 40
0.1
 40
0.15
 40
0.15
 40
0.15
 40
0.15
 40
0.2
 40
0.2
 40
0.2
 40
0.2
 40
0.25
 40
0.25
 40
0.25
 40
0.25
 40
0.3
 40
0.3
 40
0.3
 40
0.3
 40
0.35
 40
0.35
 40
0.35
 40
0.35
 40
0.4
 40
0.4
 40
0.4
 40
0.4
 40
0.45
 40
0.45
 40
0.45
 40
0.45
 40
0.5
 40
0.5
 40
0.5
 40
0.5
 40
0.55
 40
0.55
 40
0.55
 40
0.55
 40
0.6
 40
0.6
 40
0.6
 40
0.6
 40
0.65
 40
0.65
 40
0.65
 40
0.65
 40
0.7
 40
0.7
 40
0.7
 40
0.7
 40
0.75
 40
0.75
 40
0.75
 40
0.75
 40
0.8
 40
0.8
 40
0.8
 40
0.8
 40
0.85
 40
0.85
 40
0.85
 40
0.85
 40
0.9
 40
0.9
 40
0.9
 40
0.9
 40
1.0
 40
1.0
 40
1.0
 40
1.0
 10
2.08623
 20
2.54239
 30
0.0
 10
2.08623
 20
2.34461
 30
0.0
 10
1.89517
 20
1.98714
 30
0.0
 10
1.51616
 20
1.47099
 30
0.0
 10
1.51616
 20
1.47099
 30
0.0
 10
1.47049
 20
1.30245
 30
0.0
 10
1.42506
 20
1.14412
 30
0.0
 10
1.3794
 20
0.99201
 30
0.0
 10
1.3794
 20
0.99201
 30
0.0
 10
1.30299
 20
0.7333
 30
0.0
 10
1.10521
 20
0.55963
 30
0.0
 10
0.78581
 20
0.4684
 30
0.0
 10
0.78581
 20
0.4684
 30
0.0
 10
0.52723
 20
0.3772
 30
0.0
 10
0.36137
 20
0.29613
 30
0.0
 10
0.28517
 20
0.22773
 30
0.0
 10
0.28517
 20
0.22773
 30
0.0
 10
0.20923
 20
0.15926
 30
0.0
 10
0.10277
 20
-0.00315
 30
0.0
 10
-0.03424
 20
-0.26196
 30
0.0
 10
-0.03424
 20
-0.26196
 30
0.0
 10
-0.04961
 20
-0.15525
 30
0.0
 10
-0.05707
 20
-0.09421
 30
0.0
 10
-0.05707
 20
-0.07908
 30
0.0
 10
-0.05707
 20
-0.07908
 30
0.0
 10
-0.05707
 20
0.08795
 30
0.0
 10
-0.0114
 20
0.25567
 30
0.0
 10
0.0799
 20
0.42273
 30
0.0
 10
0.0799
 20
0.42273
 30
0.0
 10
0.17123
 20
0.59024
 30
0.0
 10
0.21666
 20
0.6876
 30
0.0
 10
0.21666
 20
0.7193
 30
0.0
 10
0.21666
 20
0.7193
 30
0.0
 10
0.21666
 20
0.7788
 30
0.0
 10
0.15213
 20
0.90075
 30
0.0
 10
0.02259
 20
1.08318
 30
0.0
 10
0.02259
 20
1.08318
 30
0.0
 10
-0.10647
 20
1.26569
 30
0.0
 10
-0.17124
 20
1.45465
 30
0.0
 10
-0.17124
 20
1.65243
 30
0.0
 10
-0.17124
 20
1.65243
 30
0.0
 10
-0.17124
 20
1.65243
 30
0.0
 10
-0.10274
 20
1.9717
 30
0.0
 10
-0.10274
 20
1.9717
 30
0.0
 10
-0.10274
 20
1.9717
 30
0.0
 10
-0.10274
 20
1.9871
 30
0.0
 10
-0.14841
 20
2.07827
 30
0.0
 10
-0.23948
 20
2.24578
 30
0.0
 10
-0.23948
 20
2.24578
 30
0.0
 10
-0.31565
 20
2.36738
 30
0.0
 10
-0.35341
 20
2.51952
 30
0.0
 10
-0.35341
 20
2.70192
 30
0.0
 10
-0.35341
 20
2.70192
 30
0.0
 10
-0.35341
 20
3.06697
 30
0.0
 10
-0.15608
 20
3.36364
 30
0.0
 10
0.23949
 20
3.59185
 30
0.0
 10
0.23949
 20
3.59185
 30
0.0
 10
0.7704
 20
3.91009
 30
0.0
 10
1.09775
 20
4.15343
 30
0.0
 10
1.21911
 20
4.3208
 30
0.0
 10
1.21911
 20
4.3208
 30
0.0
 10
1.21911
 20
4.30564
 30
0.0
 10
1.21168
 20
4.26627
 30
0.0
 10
1.19651
 20
4.20676
 30
0.0
 10
1.19651
 20
4.20676
 30
0.0
 10
1.19651
 20
4.16109
 30
0.0
 10
1.19651
 20
4.13059
 30
0.0
 10
1.19651
 20
4.11543
 30
0.0
 10
1.19651
 20
4.11543
 30
0.0
 10
1.19651
 20
3.82643
 30
0.0
 10
1.34491
 20
3.54885
 30
0.0
 10
1.64149
 20
3.28257
 30
0.0
 10
1.64149
 20
3.28257
 30
0.0
 10
1.93827
 20
3.01626
 30
0.0
 10
2.08623
 20
2.77049
 30
0.0
 10
2.08623
 20
2.54239
 30
0.0
  0
SPLINE
  5
46
330
1F
100
AcDbEntity
  8
Camada 1
100
AcDbSpline
210
0.0
220
0.0
230
1.0
 70
    11
 71
     3
 72
    44
 73
    40
 74
     0
 42
0.0000000001
 43
0.0000000001
 12
1.0
 22
0.0
 32
0.0
 13
1.0
 23
0.0
 33
0.0
 40
0.0
 40
0.0
 40
0.0
 40
0.0
 40
0.0909090909090909
 40
0.0909090909090909
 40
0.0909090909090909
 40
0.0909090909090909
 40
0.1818181818181818
 40
0.1818181818181818
 40
0.1818181818181818
 40
0.1818181818181818
 40
0.2727272727272727
 40
0.2727272727272727
 40
0.2727272727272727
 40
0.2727272727272727
 40
0.3636363636363636
 40
0.3636363636363636
 40
0.3636363636363636
 40
0.3636363636363636
 40
0.4545454545454545
 40
0.4545454545454545
 40
0.4545454545454545
 40
0.4545454545454545
 40
0.5454545454545454
 40
0.5454545454545454
 40
0.5454545454545454
 40
0.5454545454545454
 40
0.6363636363636364
 40
0.6363636363636364
 40
0.6363636363636364
 40
0.6363636363636364
 40
0.7272727272727273
 40
0.7272727272727273
 40
0.7272727272727273
 40
0.7272727272727273
 40
0.8181818181818182
 40
0.8181818181818182
 40
0.8181818181818182
 40
0.8181818181818182
 40
1.0
 40
1.0
 40
1.0
 40
1.0
 10
1.5618
 20
5.93962
 30
0.0
 10
1.5618
 20
5.93962
 30
0.0
 10
1.53897
 20
5.84842
 30
0.0
 10
1.53897
 20
5.84842
 30
0.0
 10
1.53897
 20
5.84842
 30
0.0
 10
1.53897
 20
5.84842
 30
0.0
 10
1.4933
 20
5.84842
 30
0.0
 10
1.4933
 20
5.84842
 30
0.0
 10
1.4933
 20
5.84842
 30
0.0
 10
0.99125
 20
6.80534
 30
0.0
 10
0.74014
 20
7.76993
 30
0.0
 10
0.74014
 20
8.7436
 30
0.0
 10
0.74014
 20
8.7436
 30
0.0
 10
0.74014
 20
8.88047
 30
0.0
 10
0.79697
 20
9.09341
 30
0.0
 10
0.91159
 20
9.38252
 30
0.0
 10
0.91159
 20
9.38252
 30
0.0
 10
1.02549
 20
9.67012
 30
0.0
 10
1.13569
 20
9.82236
 30
0.0
 10
1.24195
 20
9.83763
 30
0.0
 10
1.24195
 20
9.83763
 30
0.0
 10
1.24195
 20
9.83763
 30
0.0
 10
1.28807
 20
9.76902
 30
0.0
 10
1.28807
 20
9.76902
 30
0.0
 10
1.28807
 20
9.76902
 30
0.0
 10
1.10519
 20
9.37368
 30
0.0
 10
1.01412
 20
9.01737
 30
0.0
 10
1.01412
 20
8.69807
 30
0.0
 10
1.01412
 20
8.69807
 30
0.0
 10
1.01412
 20
8.18078
 30
0.0
 10
1.11313
 20
7.54187
 30
0.0
 10
1.31043
 20
6.78251
 30
0.0
 10
1.31043
 20
6.78251
 30
0.0
 10
1.31043
 20
6.75211
 30
0.0
 10
1.35657
 20
6.61524
 30
0.0
 10
1.44767
 20
6.37317
 30
0.0
 10
1.44767
 20
6.37317
 30
0.0
 10
1.52359
 20
6.19055
 30
0.0
 10
1.5618
 20
6.04598
 30
0.0
 10
1.5618
 20
5.93962
 30
0.0
  0
SPLINE
  5
47
330
1F
100
AcDbEntity
  8
Camada 1
100
AcDbSpline
210
0.0
220
0.0
230
1.0
 70
    11
 71
     3
 72
    88
 73
    84
 74
     0
 42
0.0000000001
 43
0.0000000001
 12
1.0
 22
0.0
 32
0.0
 13
1.0
 23
0.0
 33
0.0
 40
0.0
 40
0.0
 40
0.0
 40
0.0
 40
0.0454545454545455
 40
0.0454545454545455
 40
0.0454545454545455
 40
0.0454545454545455
 40
0.0909090909090909
 40
0.0909090909090909
 40
0.0909090909090909
 40
0.0909090909090909
 40
0.1363636363636364
 40
0.1363636363636364
 40
0.1363636363636364
 40
0.1363636363636364
 40
0.1818181818181818
 40
0.1818181818181818
 40
0.1818181818181818
 40
0.1818181818181818
 40
0.2272727272727273
 40
0.2272727272727273
 40
0.2272727272727273
 40
0.2272727272727273
 40
0.2727272727272727
 40
0.2727272727272727
 40
0.2727272727272727
 40
0.2727272727272727
 40
0.3181818181818182
 40
0.3181818181818182
 40
0.3181818181818182
 40
0.3181818181818182
 40
0.3636363636363636
 40
0.3636363636363636
 40
0.3636363636363636
 40
0.3636363636363636
 40
0.4090909090909091
 40
0.4090909090909091
 40
0.4090909090909091
 40
0.4090909090909091
 40
0.4545454545454545
 40
0.4545454545454545
 40
0.4545454545454545
 40
0.4545454545454545
 40
0.5
 40
0.5
 40
0.5
 40
0.5
 40
0.5454545454545454
 40
0.5454545454545454
 40
0.5454545454545454
 40
0.5454545454545454
 40
0.5909090909090909
 40
0.5909090909090909
 40
0.5909090909090909
 40
0.5909090909090909
 40
0.6363636363636364
 40
0.6363636363636364
 40
0.6363636363636364
 40
0.6363636363636364
 40
0.6818181818181818
 40
0.6818181818181818
 40
0.6818181818181818
 40
0.6818181818181818
 40
0.7272727272727273
 40
0.7272727272727273
 40
0.7272727272727273
 40
0.7272727272727273
 40
0.7727272727272727
 40
0.7727272727272727
 40
0.7727272727272727
 40
0.7727272727272727
 40
0.8181818181818182
 40
0.8181818181818182
 40
0.8181818181818182
 40
0.8181818181818182
 40
0.8636363636363636
 40
0.8636363636363636
 40
0.8636363636363636
 40
0.8636363636363636
 40
0.9090909090909091
 40
0.9090909090909091
 40
0.9090909090909091
 40
0.9090909090909091
 40
1.0
 40
1.0
 40
1.0
 40
1.0
 10
5.8931
 20
10.38393
 30
0.0
 10
5.58883
 20
10.24706
 30
0.0
 10
5.36076
 20
9.96681
 30
0.0
 10
5.20841
 20
9.54094
 30
0.0
 10
5.20841
 20
9.54094
 30
0.0
 10
5.16272
 20
9.41921
 30
0.0
 10
5.05675
 20
9.27593
 30
0.0
 10
4.89062
 20
9.1088
 30
0.0
 10
4.89062
 20
9.1088
 30
0.0
 10
4.7229
 20
8.94129
 30
0.0
 10
4.61667
 20
8.82982
 30
0.0
 10
4.571
 20
8.77789
 30
0.0
 10
4.571
 20
8.77789
 30
0.0
 10
4.52533
 20
8.72339
 30
0.0
 10
4.42656
 20
8.40141
 30
0.0
 10
4.27419
 20
7.80817
 30
0.0
 10
4.27419
 20
7.80817
 30
0.0
 10
4.16775
 20
7.36692
 30
0.0
 10
3.91682
 20
7.04882
 30
0.0
 10
3.52264
 20
6.85104
 30
0.0
 10
3.52264
 20
6.85104
 30
0.0
 10
3.32486
 20
6.72931
 30
0.0
 10
3.11217
 20
6.59617
 30
0.0
 10
2.88364
 20
6.45173
 30
0.0
 10
2.88364
 20
6.45173
 30
0.0
 10
2.65557
 20
6.30729
 30
0.0
 10
2.44263
 20
6.23612
 30
0.0
 10
2.24507
 20
6.23612
 30
0.0
 10
2.24507
 20
6.23612
 30
0.0
 10
2.25997
 20
6.23612
 30
0.0
 10
2.10016
 20
6.25895
 30
0.0
 10
1.76702
 20
6.30473
 30
0.0
 10
1.76702
 20
6.30473
 30
0.0
 10
1.85835
 20
6.48724
 30
0.0
 10
1.90402
 20
6.61527
 30
0.0
 10
1.90402
 20
6.69134
 30
0.0
 10
1.90402
 20
6.69134
 30
0.0
 10
1.90402
 20
6.78254
 30
0.0
 10
1.82808
 20
7.02225
 30
0.0
 10
1.67571
 20
7.41003
 30
0.0
 10
1.67571
 20
7.41003
 30
0.0
 10
1.52357
 20
7.79794
 30
0.0
 10
1.44764
 20
8.08191
 30
0.0
 10
1.44764
 20
8.26455
 30
0.0
 10
1.44764
 20
8.26455
 30
0.0
 10
1.44764
 20
8.82729
 30
0.0
 10
1.78988
 20
9.10881
 30
0.0
 10
2.47317
 20
9.10881
 30
0.0
 10
2.47317
 20
9.10881
 30
0.0
 10
2.56424
 20
9.10881
 30
0.0
 10
2.70124
 20
9.23031
 30
0.0
 10
2.88367
 20
9.47375
 30
0.0
 10
2.88367
 20
9.47375
 30
0.0
 10
3.06652
 20
9.71592
 30
0.0
 10
3.27179
 20
9.83763
 30
0.0
 10
3.49986
 20
9.83763
 30
0.0
 10
3.49986
 20
9.83763
 30
0.0
 10
3.54553
 20
9.83763
 30
0.0
 10
3.61263
 20
9.81863
 30
0.0
 10
3.70393
 20
9.78043
 30
0.0
 10
3.70393
 20
9.78043
 30
0.0
 10
3.79526
 20
9.74244
 30
0.0
 10
3.86374
 20
9.72347
 30
0.0
 10
3.90943
 20
9.72347
 30
0.0
 10
3.90943
 20
9.72347
 30
0.0
 10
4.00074
 20
9.72347
 30
0.0
 10
4.15287
 20
9.79954
 30
0.0
 10
4.36557
 20
9.95167
 30
0.0
 10
4.36557
 20
9.95167
 30
0.0
 10
4.57872
 20
10.10251
 30
0.0
 10
4.79935
 20
10.17974
 30
0.0
 10
5.02602
 20
10.17974
 30
0.0
 10
5.02602
 20
10.17974
 30
0.0
 10
5.10219
 20
10.17974
 30
0.0
 10
5.20845
 20
10.22541
 30
0.0
 10
5.3454
 20
10.31544
 30
0.0
 10
5.3454
 20
10.31544
 30
0.0
 10
5.48263
 20
10.40663
 30
0.0
 10
5.60399
 20
10.4523
 30
0.0
 10
5.7107
 20
10.4523
 30
0.0
 10
5.7107
 20
10.4523
 30
0.0
 10
5.69533
 20
10.4523
 30
0.0
 10
5.75634
 20
10.42946
 30
0.0
 10
5.8931
 20
10.38393
 30
0.0
  0
SPLINE
  5
48
330
1F
100
AcDbEntity
  8
Camada 1
100
AcDbSpline
210
0.0
220
0.0
230
1.0
 70
    11
 71
     3
 72
    76
 73
    72
 74
     0
 42
0.0000000001
 43
0.0000000001
 12
1.0
 22
0.0
 32
0.0
 13
1.0
 23
0.0
 33
0.0
 40
0.0
 40
0.0
 40
0.0
 40
0.0
 40
0.0526315789473684
 40
0.0526315789473684
 40
0.0526315789473684
 40
0.0526315789473684
 40
0.1052631578947368
 40
0.1052631578947368
 40
0.1052631578947368
 40
0.1052631578947368
 40
0.1578947368421053
 40
0.1578947368421053
 40
0.1578947368421053
 40
0.1578947368421053
 40
0.2105263157894737
 40
0.2105263157894737
 40
0.2105263157894737
 40
0.2105263157894737
 40
0.2631578947368421
 40
0.2631578947368421
 40
0.2631578947368421
 40
0.2631578947368421
 40
0.3157894736842105
 40
0.3157894736842105
 40
0.3157894736842105
 40
0.3157894736842105
 40
0.3684210526315789
 40
0.3684210526315789
 40
0.3684210526315789
 40
0.3684210526315789
 40
0.4210526315789473
 40
0.4210526315789473
 40
0.4210526315789473
 40
0.4210526315789473
 40
0.4736842105263158
 40
0.4736842105263158
 40
0.4736842105263158
 40
0.4736842105263158
 40
0.5263157894736842
 40
0.5263157894736842
 40
0.5263157894736842
 40
0.5263157894736842
 40
0.5789473684210527
 40
0.5789473684210527
 40
0.5789473684210527
 40
0.5789473684210527
 40
0.631578947368421
 40
0.631578947368421
 40
0.631578947368421
 40
0.631578947368421
 40
0.6842105263157895
 40
0.6842105263157895
 40
0.6842105263157895
 40
0.6842105263157895
 40
0.7368421052631579
 40
0.7368421052631579
 40
0.7368421052631579
 40
0.7368421052631579
 40
0.7894736842105263
 40
0.7894736842105263
 40
0.7894736842105263
 40
0.7894736842105263
 40
0.8421052631578947
 40
0.8421052631578947
 40
0.8421052631578947
 40
0.8421052631578947
 40
0.8947368421052632
 40
0.8947368421052632
 40
0.8947368421052632
 40
0.8947368421052632
 40
1.0
 40
1.0
 40
1.0
 40
1.0
 10
6.96406
 20
1.62963
 30
0.0
 10
6.96406
 20
1.62963
 30
0.0
 10
6.96406
 20
1.517
 30
0.0
 10
6.96406
 20
1.517
 30
0.0
 10
6.96406
 20
1.517
 30
0.0
 10
6.96406
 20
1.517
 30
0.0
 10
6.64489
 20
1.99457
 30
0.0
 10
6.64489
 20
1.99457
 30
0.0
 10
6.64489
 20
1.99457
 30
0.0
 10
6.46225
 20
2.26865
 30
0.0
 10
6.24325
 20
2.40552
 30
0.0
 10
5.98444
 20
2.40552
 30
0.0
 10
5.98444
 20
2.40552
 30
0.0
 10
5.9085
 20
2.40552
 30
0.0
 10
5.78664
 20
2.37488
 30
0.0
 10
5.61937
 20
2.31432
 30
0.0
 10
5.61937
 20
2.31432
 30
0.0
 10
5.45213
 20
2.25328
 30
0.0
 10
5.32259
 20
2.22301
 30
0.0
 10
5.23125
 20
2.22301
 30
0.0
 10
5.23125
 20
2.22301
 30
0.0
 10
5.01855
 20
2.22301
 30
0.0
 10
4.83334
 20
2.30268
 30
0.0
 10
4.67377
 20
2.46238
 30
0.0
 10
4.67377
 20
2.46238
 30
0.0
 10
4.5142
 20
2.62208
 30
0.0
 10
4.32735
 20
2.70199
 30
0.0
 10
4.11489
 20
2.70199
 30
0.0
 10
4.11489
 20
2.70199
 30
0.0
 10
3.03579
 20
2.70199
 30
0.0
 10
2.26794
 20
3.16607
 30
0.0
 10
1.81272
 20
4.0928
 30
0.0
 10
1.81272
 20
4.0928
 30
0.0
 10
1.64545
 20
4.42604
 30
0.0
 10
1.56182
 20
4.72275
 30
0.0
 10
1.56182
 20
4.98132
 30
0.0
 10
1.56182
 20
4.98132
 30
0.0
 10
1.56182
 20
4.98132
 30
0.0
 10
1.56182
 20
5.07252
 30
0.0
 10
1.56182
 20
5.07252
 30
0.0
 10
1.56182
 20
5.07252
 30
0.0
 10
1.71396
 20
5.07252
 30
0.0
 10
1.92946
 20
5.14486
 30
0.0
 10
2.21063
 20
5.2894
 30
0.0
 10
2.21063
 20
5.2894
 30
0.0
 10
2.49204
 20
5.43373
 30
0.0
 10
2.80025
 20
5.50607
 30
0.0
 10
3.13503
 20
5.50607
 30
0.0
 10
3.13503
 20
5.50607
 30
0.0
 10
3.19562
 20
5.50607
 30
0.0
 10
3.39969
 20
5.49091
 30
0.0
 10
3.74982
 20
5.4604
 30
0.0
 10
3.74982
 20
5.4604
 30
0.0
 10
4.09952
 20
5.43
 30
0.0
 10
4.49883
 20
5.14089
 30
0.0
 10
4.94751
 20
4.59331
 30
0.0
 10
4.94751
 20
4.59331
 30
0.0
 10
5.39529
 20
4.04689
 30
0.0
 10
5.70279
 20
3.74275
 30
0.0
 10
5.87054
 20
3.68322
 30
0.0
 10
5.87054
 20
3.68322
 30
0.0
 10
5.99217
 20
3.63755
 30
0.0
 10
6.18598
 20
3.41951
 30
0.0
 10
6.45088
 20
3.03163
 30
0.0
 10
6.45088
 20
3.03163
 30
0.0
 10
6.71713
 20
2.64491
 30
0.0
 10
6.873
 20
2.37491
 30
0.0
 10
6.91866
 20
2.22301
 30
0.0
 10
6.91866
 20
2.22301
 30
0.0
 10
6.9186
 20
2.0858
 30
0.0
 10
6.93376
 20
1.88837
 30
0.0
 10
6.96406
 20
1.62963
 30
0.0
  0
SPLINE
  5
49
330
1F
100
AcDbEntity
  8
Camada 1
100
AcDbSpline
210
0.0
220
0.0
230
1.0
 70
    11
 71
     3
 72
    56
 73
    52
 74
     0
 42
0.0000000001
 43
0.0000000001
 12
1.0
 22
0.0
 32
0.0
 13
1.0
 23
0.0
 33
0.0
 40
0.0
 40
0.0
 40
0.0
 40
0.0
 40
0.0714285714285714
 40
0.0714285714285714
 40
0.0714285714285714
 40
0.0714285714285714
 40
0.1428571428571428
 40
0.1428571428571428
 40
0.1428571428571428
 40
0.1428571428571428
 40
0.2142857142857143
 40
0.2142857142857143
 40
0.2142857142857143
 40
0.2142857142857143
 40
0.2857142857142857
 40
0.2857142857142857
 40
0.2857142857142857
 40
0.2857142857142857
 40
0.3571428571428572
 40
0.3571428571428572
 40
0.3571428571428572
 40
0.3571428571428572
 40
0.4285714285714285
 40
0.4285714285714285
 40
0.4285714285714285
 40
0.4285714285714285
 40
0.5
 40
0.5
 40
0.5
 40
0.5
 40
0.5714285714285714
 40
0.5714285714285714
 40
0.5714285714285714
 40
0.5714285714285714
 40
0.6428571428571429
 40
0.6428571428571429
 40
0.6428571428571429
 40
0.6428571428571429
 40
0.7142857142857143
 40
0.7142857142857143
 40
0.7142857142857143
 40
0.7142857142857143
 40
0.7857142857142857
 40
0.7857142857142857
 40
0.7857142857142857
 40
0.7857142857142857
 40
0.8571428571428571
 40
0.8571428571428571
 40
0.8571428571428571
 40
0.8571428571428571
 40
1.0
 40
1.0
 40
1.0
 40
1.0
 10
8.40051
 20
5.55163
 30
0.0
 10
8.18781
 20
5.94731
 30
0.0
 10
8.00496
 20
6.14488
 30
0.0
 10
7.85399
 20
6.14488
 30
0.0
 10
7.85399
 20
6.14488
 30
0.0
 10
7.44349
 20
5.79507
 30
0.0
 10
7.13178
 20
5.62013
 30
0.0
 10
6.91861
 20
5.62013
 30
0.0
 10
6.91861
 20
5.62013
 30
0.0
 10
6.87294
 20
5.62013
 30
0.0
 10
6.74761
 20
5.54406
 30
0.0
 10
6.54237
 20
5.39206
 30
0.0
 10
6.54237
 20
5.39206
 30
0.0
 10
6.33806
 20
5.23982
 30
0.0
 10
6.14399
 20
5.16375
 30
0.0
 10
5.96158
 20
5.16375
 30
0.0
 10
5.96158
 20
5.16375
 30
0.0
 10
5.90078
 20
5.16375
 30
0.0
 10
5.49753
 20
5.31213
 30
0.0
 10
4.75368
 20
5.6087
 30
0.0
 10
4.75368
 20
5.6087
 30
0.0
 10
4.00816
 20
5.90397
 30
0.0
 10
3.55948
 20
6.09932
 30
0.0
 10
3.40851
 20
6.19055
 30
0.0
 10
3.40851
 20
6.19055
 30
0.0
 10
3.57485
 20
6.29712
 30
0.0
 10
3.82555
 20
6.49352
 30
0.0
 10
4.1603
 20
6.78253
 30
0.0
 10
4.1603
 20
6.78253
 30
0.0
 10
4.46478
 20
7.16168
 30
0.0
 10
4.66235
 20
7.37461
 30
0.0
 10
4.75368
 20
7.42028
 30
0.0
 10
4.75368
 20
7.42028
 30
0.0
 10
4.95029
 20
7.57242
 30
0.0
 10
5.23919
 20
7.64835
 30
0.0
 10
5.61937
 20
7.64835
 30
0.0
 10
5.61937
 20
7.64835
 30
0.0
 10
5.96907
 20
7.64835
 30
0.0
 10
6.21251
 20
7.57985
 30
0.0
 10
6.34973
 20
7.44298
 30
0.0
 10
6.34973
 20
7.44298
 30
0.0
 10
6.59177
 20
7.21607
 30
0.0
 10
6.8881
 20
7.0792
 30
0.0
 10
7.23825
 20
7.03367
 30
0.0
 10
7.23825
 20
7.03367
 30
0.0
 10
7.58792
 20
6.988
 30
0.0
 10
7.81483
 20
6.91194
 30
0.0
 10
7.92154
 20
6.80536
 30
0.0
 10
7.92154
 20
6.80536
 30
0.0
 10
8.11933
 20
6.62409
 30
0.0
 10
8.27891
 20
6.20579
 30
0.0
 10
8.40051
 20
5.55163
 30
0.0
  0
ENDSEC
  0
SECTION
  2
OBJECTS
  0
DICTIONARY
  5
C
330
0
100
AcDbDictionary
281
     1
  3
ACAD_GROUP
350
D
  3
ACAD_LAYOUT
350
1A
  3
ACAD_MATERIAL
350
3B
  3
ACAD_MLEADERSTYLE
350
6B
  3
ACAD_MLINESTYLE
350
17
  3
ACAD_PLOTSETTINGS
350
19
  3
ACAD_PLOTSTYLENAME
350
E
  3
ACAD_TABLESTYLE
350
6A
  3
ACAD_VISUALSTYLE
350
2A
  0
DICTIONARY
  5
D
102
{ACAD_REACTORS
330
C
102
}
330
C
100
AcDbDictionary
281
     1
  0
DICTIONARY
  5
1A
102
{ACAD_REACTORS
330
C
102
}
330
C
100
AcDbDictionary
281
     1
  3
Layout1
350
1E
  3
Layout2
350
26
  3
Model
350
22
  0
DICTIONARY
  5
3B
102
{ACAD_REACTORS
330
C
102
}
330
C
100
AcDbDictionary
281
     1
  3
ByBlock
350
3D
  3
ByLayer
350
3C
  3
Global
350
3E
  0
DICTIONARY
  5
6B
102
{ACAD_REACTORS
330
C
102
}
330
C
100
AcDbDictionary
281
     1
  0
DICTIONARY
  5
17
102
{ACAD_REACTORS
330
C
102
}
330
C
100
AcDbDictionary
281
     1
  3
Standard
350
18
  0
DICTIONARY
  5
19
102
{ACAD_REACTORS
330
C
102
}
330
C
100
AcDbDictionary
281
     1
  0
ACDBDICTIONARYWDFLT
  5
E
102
{ACAD_REACTORS
330
C
102
}
330
C
100
AcDbDictionary
281
     1
  3
Normal
350
F
100
AcDbDictionaryWithDefault
340
F
  0
DICTIONARY
  5
6A
102
{ACAD_REACTORS
330
C
102
}
330
C
100
AcDbDictionary
281
     1
  0
DICTIONARY
  5
2A
102
{ACAD_REACTORS
330
C
102
}
330
C
100
AcDbDictionary
281
     1
  3
2dWireframe
350
2F
  3
3D Hidden
350
31
  3
3dWireframe
350
30
  3
Basic
350
32
  3
Brighten
350
36
  3
ColorChange
350
3A
  3
Conceptual
350
34
  3
Dim
350
35
  3
Facepattern
350
39
  3
Flat
350
2B
  3
FlatWithEdges
350
2C
  3
Gouraud
350
2D
  3
GouraudWithEdges
350
2E
  3
Linepattern
350
38
  3
Realistic
350
33
  3
Thicken
350
37
  0
LAYOUT
  5
1E
102
{ACAD_REACTORS
330
1A
102
}
330
1A
100
AcDbPlotSettings
  1

  2
none_device
  4

  6

 40
0.0
 41
0.0
 42
0.0
 43
0.0
 44
0.0
 45
0.0
 46
0.0
 47
0.0
 48
0.0
 49
0.0
140
0.0
141
0.0
142
1.0
143
1.0
 70
   688
 72
     0
 73
     0
 74
     5
  7

 75
    16
 76
     0
 77
     2
 78
   300
147
1.0
148
0.0
149
0.0
100
AcDbLayout
  1
Layout1
 70
     1
 71
     1
 10
0.0
 20
0.0
 11
12.0
 21
9.0
 12
0.0
 22
0.0
 32
0.0
 14
1.000000000000000E+20
 24
1.000000000000000E+20
 34
1.000000000000000E+20
 15
-1.000000000000000E+20
 25
-1.000000000000000E+20
 35
-1.000000000000000E+20
146
0.0
 13
0.0
 23
0.0
 33
0.0
 16
1.0
 26
0.0
 36
0.0
 17
0.0
 27
1.0
 37
0.0
 76
     0
330
1B
  0
LAYOUT
  5
26
102
{ACAD_REACTORS
330
1A
102
}
330
1A
100
AcDbPlotSettings
  1

  2
none_device
  4

  6

 40
0.0
 41
0.0
 42
0.0
 43
0.0
 44
0.0
 45
0.0
 46
0.0
 47
0.0
 48
0.0
 49
0.0
140
0.0
141
0.0
142
1.0
143
1.0
 70
   688
 72
     0
 73
     0
 74
     5
  7

 75
    16
 76
     0
 77
     2
 78
   300
147
1.0
148
0.0
149
0.0
100
AcDbLayout
  1
Layout2
 70
     1
 71
     2
 10
0.0
 20
0.0
 11
0.0
 21
0.0
 12
0.0
 22
0.0
 32
0.0
 14
0.0
 24
0.0
 34
0.0
 15
0.0
 25
0.0
 35
0.0
146
0.0
 13
0.0
 23
0.0
 33
0.0
 16
1.0
 26
0.0
 36
0.0
 17
0.0
 27
1.0
 37
0.0
 76
     0
330
23
  0
LAYOUT
  5
22
102
{ACAD_REACTORS
330
1A
102
}
330
1A
100
AcDbPlotSettings
  1

  2
none_device
  4

  6

 40
0.0
 41
0.0
 42
0.0
 43
0.0
 44
0.0
 45
0.0
 46
0.0
 47
0.0
 48
0.0
 49
0.0
140
0.0
141
0.0
142
1.0
143
1.0
 70
  1712
 72
     0
 73
     0
 74
     0
  7

 75
     0
 76
     0
 77
     2
 78
   300
147
1.0
148
0.0
149
0.0
100
AcDbLayout
  1
Model
 70
     1
 71
     0
 10
0.0
 20
0.0
 11
12.0
 21
9.0
 12
0.0
 22
0.0
 32
0.0
 14
-8.46901
 24
-10.4523
 34
0.0
 15
8.46901
 25
10.4523
 35
0.0
146
0.0
 13
0.0
 23
0.0
 33
0.0
 16
1.0
 26
0.0
 36
0.0
 17
0.0
 27
1.0
 37
0.0
 76
     0
330
1F
331
29
  0
MATERIAL
  5
3D
102
{ACAD_REACTORS
330
3B
102
}
330
3B
100
AcDbMaterial
  1
ByBlock
 72
     1
 94
      127
  0
MATERIAL
  5
3C
102
{ACAD_REACTORS
330
3B
102
}
330
3B
100
AcDbMaterial
  1
ByLayer
 72
     1
 94
      127
  0
MATERIAL
  5
3E
102
{ACAD_REACTORS
330
3B
102
}
330
3B
100
AcDbMaterial
  1
Global
 72
     1
 94
      127
  0
MLINESTYLE
  5
18
102
{ACAD_REACTORS
330
17
102
}
330
17
100
AcDbMlineStyle
  2
Standard
 70
     0
  3

 62
   256
 51
90.0
 52
90.0
 71
     2
 49
0.5
 62
   256
  6
BYLAYER
 49
-0.5
 62
   256
  6
BYLAYER
  0
ACDBPLACEHOLDER
  5
F
102
{ACAD_REACTORS
330
E
102
}
330
E
  0
VISUALSTYLE
  5
2F
102
{ACAD_REACTORS
330
2A
102
}
102
{ACAD_XDICTIONARY
360
52
102
}
330
2A
100
AcDbVisualStyle
  2
2dWireframe
 70
     4
 71
     0
 72
     2
 73
     0
 90
        0
 40
-0.6
 41
-30.0
 62
     5
 63
     7
421
 16777215
 74
     1
 91
        4
 64
     7
 65
   257
 75
     1
175
     1
 42
1.0
 92
        0
 66
   257
 43
1.0
 76
     1
 77
     6
 78
     2
 67
     7
 79
     5
170
     0
171
     0
290
     0
174
     0
 93
        1
 44
0.0
173
     0
291
     0
 45
0.0
  0
VISUALSTYLE
  5
31
102
{ACAD_REACTORS
330
2A
102
}
102
{ACAD_XDICTIONARY
360
56
102
}
330
2A
100
AcDbVisualStyle
  2
3D Hidden
 70
     6
 71
     1
 72
     2
 73
     2
 90
        0
 40
-0.6
 41
-30.0
 62
     5
 63
     7
421
 16777215
 74
     2
 91
        2
 64
     7
 65
   257
 75
     2
175
     1
 42
40.0
 92
        0
 66
   257
 43
1.0
 76
     1
 77
     6
 78
     2
 67
     7
 79
     3
170
     0
171
     0
290
     0
174
     0
 93
        1
 44
0.0
173
     0
291
     0
 45
0.0
  0
VISUALSTYLE
  5
30
102
{ACAD_REACTORS
330
2A
102
}
102
{ACAD_XDICTIONARY
360
54
102
}
330
2A
100
AcDbVisualStyle
  2
3dWireframe
 70
     5
 71
     0
 72
     2
 73
     0
 90
        0
 40
-0.6
 41
-30.0
 62
     5
 63
     7
421
 16777215
 74
     1
 91
        4
 64
     7
 65
   257
 75
     1
175
     1
 42
1.0
 92
        0
 66
   257
 43
1.0
 76
     1
 77
     6
 78
     2
 67
     7
 79
     5
170
     0
171
     0
290
     0
174
     0
 93
        1
 44
0.0
173
     0
291
     0
 45
0.0
  0
VISUALSTYLE
  5
32
102
{ACAD_REACTORS
330
2A
102
}
102
{ACAD_XDICTIONARY
360
58
102
}
330
2A
100
AcDbVisualStyle
  2
Basic
 70
     7
 71
     1
 72
     0
 73
     1
 90
        0
 40
-0.6
 41
-30.0
 62
     5
 63
     7
421
 16777215
 74
     0
 91
        4
 64
     7
 65
   257
 75
     1
175
     1
 42
1.0
 92
        8
 66
     7
 43
1.0
 76
     1
 77
     6
 78
     2
 67
     7
 79
     5
170
     0
171
     0
290
     0
174
     0
 93
        1
 44
0.0
173
     0
291
     1
 45
0.0
  0
VISUALSTYLE
  5
36
102
{ACAD_REACTORS
330
2A
102
}
102
{ACAD_XDICTIONARY
360
60
102
}
330
2A
100
AcDbVisualStyle
  2
Brighten
 70
    12
 71
     2
 72
     2
 73
     0
 90
        0
 40
-0.6
 41
-30.0
 62
     5
 63
     7
421
 16777215
 74
     1
 91
        4
 64
     7
 65
   257
 75
     1
175
     1
 42
1.0
 92
        8
 66
     7
 43
1.0
 76
     1
 77
     6
 78
     2
 67
     7
 79
     5
170
     0
171
     0
290
     0
174
     0
 93
        1
 44
50.0
173
     0
291
     1
 45
0.0
  0
VISUALSTYLE
  5
3A
102
{ACAD_REACTORS
330
2A
102
}
102
{ACAD_XDICTIONARY
360
68
102
}
330
2A
100
AcDbVisualStyle
  2
ColorChange
 70
    16
 71
     2
 72
     2
 73
     3
 90
        0
 40
-0.6
 41
-30.0
 62
     5
 63
     8
421
  8421504
 74
     1
 91
        4
 64
     7
 65
   257
 75
     1
175
     1
 42
1.0
 92
        8
 66
     8
424
  8421504
 43
1.0
 76
     1
 77
     6
 78
     2
 67
     7
 79
     5
170
     0
171
     0
290
     0
174
     0
 93
        1
 44
0.0
173
     0
291
     1
 45
0.0
  0
VISUALSTYLE
  5
34
102
{ACAD_REACTORS
330
2A
102
}
102
{ACAD_XDICTIONARY
360
5C
102
}
330
2A
100
AcDbVisualStyle
  2
Conceptual
 70
     9
 71
     3
 72
     2
 73
     0
 90
        0
 40
-0.6
 41
-30.0
 62
     5
 63
     7
421
 16777215
 74
     2
 91
        2
 64
     7
 65
   257
 75
     1
175
     1
 42
40.0
 92
        8
 66
     7
 43
1.0
 76
     1
 77
     6
 78
     2
 67
     7
 79
     3
170
     0
171
     0
290
     0
174
     0
 93
        1
 44
0.0
173
     0
291
     0
 45
0.0
  0
VISUALSTYLE
  5
35
102
{ACAD_REACTORS
330
2A
102
}
102
{ACAD_XDICTIONARY
360
5E
102
}
330
2A
100
AcDbVisualStyle
  2
Dim
 70
    11
 71
     2
 72
     2
 73
     0
 90
        0
 40
-0.6
 41
-30.0
 62
     5
 63
     7
421
 16777215
 74
     1
 91
        4
 64
     7
 65
   257
 75
     1
175
     1
 42
1.0
 92
        8
 66
     7
 43
1.0
 76
     1
 77
     6
 78
     2
 67
     7
 79
     5
170
     0
171
     0
290
     0
174
     0
 93
        1
 44
-50.0
173
     0
291
     1
 45
0.0
  0
VISUALSTYLE
  5
39
102
{ACAD_REACTORS
330
2A
102
}
102
{ACAD_XDICTIONARY
360
66
102
}
330
2A
100
AcDbVisualStyle
  2
Facepattern
 70
    15
 71
     2
 72
     2
 73
     0
 90
        0
 40
-0.6
 41
-30.0
 62
     5
 63
     7
421
 16777215
 74
     1
 91
        4
 64
     7
 65
   257
 75
     1
175
     1
 42
1.0
 92
        8
 66
     7
 43
1.0
 76
     1
 77
     6
 78
     2
 67
     7
 79
     5
170
     0
171
     0
290
     0
174
     0
 93
        1
 44
0.0
173
     0
291
     1
 45
0.0
  0
VISUALSTYLE
  5
2B
102
{ACAD_REACTORS
330
2A
102
}
102
{ACAD_XDICTIONARY
360
4A
102
}
330
2A
100
AcDbVisualStyle
  2
Flat
 70
     0
 71
     2
 72
     1
 73
     1
 90
        2
 40
-0.6
 41
30.0
 62
     5
 63
     7
421
 16777215
 74
     0
 91
        4
 64
     7
 65
   257
 75
     1
175
     1
 42
1.0
 92
        8
 66
     7
 43
1.0
 76
     1
 77
     6
 78
     2
 67
     7
 79
     5
170
     0
171
     0
290
     0
174
     0
 93
       13
 44
0.0
173
     0
291
     1
 45
0.0
  0
VISUALSTYLE
  5
2C
102
{ACAD_REACTORS
330
2A
102
}
102
{ACAD_XDICTIONARY
360
4C
102
}
330
2A
100
AcDbVisualStyle
  2
FlatWithEdges
 70
     1
 71
     2
 72
     1
 73
     1
 90
        2
 40
-0.6
 41
30.0
 62
     5
 63
     7
421
 16777215
 74
     1
 91
        4
 64
     7
 65
   257
 75
     1
175
     1
 42
1.0
 92
        0
 66
   257
 43
1.0
 76
     1
 77
     6
 78
     2
 67
     7
 79
     5
170
     0
171
     0
290
     0
174
     0
 93
       13
 44
0.0
173
     0
291
     1
 45
0.0
  0
VISUALSTYLE
  5
2D
102
{ACAD_REACTORS
330
2A
102
}
102
{ACAD_XDICTIONARY
360
4E
102
}
330
2A
100
AcDbVisualStyle
  2
Gouraud
 70
     2
 71
     2
 72
     2
 73
     1
 90
        2
 40
-0.6
 41
30.0
 62
     5
 63
     7
421
 16777215
 74
     0
 91
        4
 64
     7
 65
   257
 75
     1
175
     1
 42
1.0
 92
        0
 66
     7
 43
1.0
 76
     1
 77
     6
 78
     2
 67
     7
 79
     5
170
     0
171
     0
290
     0
174
     0
 93
       13
 44
0.0
173
     0
291
     1
 45
0.0
  0
VISUALSTYLE
  5
2E
102
{ACAD_REACTORS
330
2A
102
}
102
{ACAD_XDICTIONARY
360
50
102
}
330
2A
100
AcDbVisualStyle
  2
GouraudWithEdges
 70
     3
 71
     2
 72
     2
 73
     1
 90
        2
 40
-0.6
 41
30.0
 62
     5
 63
     7
421
 16777215
 74
     1
 91
        4
 64
     7
 65
   257
 75
     1
175
     1
 42
1.0
 92
        0
 66
   257
 43
1.0
 76
     1
 77
     6
 78
     2
 67
     7
 79
     5
170
     0
171
     0
290
     0
174
     0
 93
       13
 44
0.0
173
     0
291
     1
 45
0.0
  0
VISUALSTYLE
  5
38
102
{ACAD_REACTORS
330
2A
102
}
102
{ACAD_XDICTIONARY
360
64
102
}
330
2A
100
AcDbVisualStyle
  2
Linepattern
 70
    14
 71
     2
 72
     2
 73
     0
 90
        0
 40
-0.6
 41
-30.0
 62
     5
 63
     7
421
 16777215
 74
     1
 91
        4
 64
     7
 65
   257
 75
     7
175
     7
 42
1.0
 92
        8
 66
     7
 43
1.0
 76
     1
 77
     6
 78
     2
 67
     7
 79
     5
170
     0
171
     0
290
     0
174
     0
 93
        1
 44
0.0
173
     0
291
     1
 45
0.0
  0
VISUALSTYLE
  5
33
102
{ACAD_REACTORS
330
2A
102
}
102
{ACAD_XDICTIONARY
360
5A
102
}
330
2A
100
AcDbVisualStyle
  2
Realistic
 70
     8
 71
     2
 72
     2
 73
     0
 90
        0
 40
-0.6
 41
-30.0
 62
     5
 63
     7
421
 16777215
 74
     1
 91
        0
 64
     7
 65
   257
 75
     1
175
     1
 42
1.0
 92
        8
 66
     8
424
  7895160
 43
1.0
 76
     1
 77
     6
 78
     2
 67
     7
 79
     5
170
     0
171
     0
290
     0
174
     0
 93
       13
 44
0.0
173
     0
291
     0
 45
0.0
  0
VISUALSTYLE
  5
37
102
{ACAD_REACTORS
330
2A
102
}
102
{ACAD_XDICTIONARY
360
62
102
}
330
2A
100
AcDbVisualStyle
  2
Thicken
 70
    13
 71
     2
 72
     2
 73
     0
 90
        0
 40
-0.6
 41
-30.0
 62
     5
 63
     7
421
 16777215
 74
     1
 91
        4
 64
     7
 65
   257
 75
     1
175
     1
 42
1.0
 92
       12
 66
     7
 43
1.0
 76
     1
 77
     6
 78
     2
 67
     7
 79
     5
170
     0
171
     0
290
     0
174
     0
 93
        1
 44
0.0
173
     0
291
     1
 45
0.0
  0
DICTIONARY
  5
52
330
2F
100
AcDbDictionary
280
     1
281
     1
  3
ACAD_XREC_ROUNDTRIP
360
53
  0
DICTIONARY
  5
56
330
31
100
AcDbDictionary
280
     1
281
     1
  3
ACAD_XREC_ROUNDTRIP
360
57
  0
DICTIONARY
  5
54
330
30
100
AcDbDictionary
280
     1
281
     1
  3
ACAD_XREC_ROUNDTRIP
360
55
  0
DICTIONARY
  5
58
330
32
100
AcDbDictionary
280
     1
281
     1
  3
ACAD_XREC_ROUNDTRIP
360
59
  0
DICTIONARY
  5
60
330
36
100
AcDbDictionary
280
     1
281
     1
  3
ACAD_XREC_ROUNDTRIP
360
61
  0
DICTIONARY
  5
68
330
3A
100
AcDbDictionary
280
     1
281
     1
  3
ACAD_XREC_ROUNDTRIP
360
69
  0
DICTIONARY
  5
5C
330
34
100
AcDbDictionary
280
     1
281
     1
  3
ACAD_XREC_ROUNDTRIP
360
5D
  0
DICTIONARY
  5
5E
330
35
100
AcDbDictionary
280
     1
281
     1
  3
ACAD_XREC_ROUNDTRIP
360
5F
  0
DICTIONARY
  5
66
330
39
100
AcDbDictionary
280
     1
281
     1
  3
ACAD_XREC_ROUNDTRIP
360
67
  0
DICTIONARY
  5
4A
330
2B
100
AcDbDictionary
280
     1
281
     1
  3
ACAD_XREC_ROUNDTRIP
360
4B
  0
DICTIONARY
  5
4C
330
2C
100
AcDbDictionary
280
     1
281
     1
  3
ACAD_XREC_ROUNDTRIP
360
4D
  0
DICTIONARY
  5
4E
330
2D
100
AcDbDictionary
280
     1
281
     1
  3
ACAD_XREC_ROUNDTRIP
360
4F
  0
DICTIONARY
  5
50
330
2E
100
AcDbDictionary
280
     1
281
     1
  3
ACAD_XREC_ROUNDTRIP
360
51
  0
DICTIONARY
  5
64
330
38
100
AcDbDictionary
280
     1
281
     1
  3
ACAD_XREC_ROUNDTRIP
360
65
  0
DICTIONARY
  5
5A
330
33
100
AcDbDictionary
280
     1
281
     1
  3
ACAD_XREC_ROUNDTRIP
360
5B
  0
DICTIONARY
  5
62
330
37
100
AcDbDictionary
280
     1
281
     1
  3
ACAD_XREC_ROUNDTRIP
360
63
  0
XRECORD
  5
53
102
{ACAD_REACTORS
330
52
102
}
330
52
100
AcDbXrecord
280
     1
102
RTVSPropertyOp0
 70
     1
102
RTVSPropertyOp1
 70
     1
102
RTVSPropertyOp2
 70
     1
102
RTVSPropertyOp3
 70
     1
102
RTVSPropertyOp4
 70
     1
102
RTVSPropertyOp5
 70
     1
102
RTVSPropertyOp6
 70
     1
102
RTVSPropertyOp7
 70
     1
102
RTVSPropertyOp8
 70
     1
102
RTVSPropertyOp9
 70
     1
102
RTVSPropertyOp10
 70
     1
102
RTVSPropertyOp11
 70
     1
102
RTVSPropertyOp12
 70
     1
102
RTVSPropertyOp13
 70
     1
102
RTVSPropertyOp14
 70
     1
102
RTVSPropertyOp15
 70
     1
102
RTVSPropertyOp16
 70
     1
102
RTVSPropertyOp17
 70
     1
102
RTVSPropertyOp18
 70
     1
102
RTVSPropertyOp19
 70
     1
102
RTVSPropertyOp20
 70
     1
102
RTVSPropertyOp21
 70
     1
102
RTVSPropertyOp22
 70
     1
102
RTVSPropertyOp23
 70
     1
102
RTVSPropertyOp24
 70
     1
102
RTVSPropertyOp25
 70
     1
102
RTVSPropertyOp26
 70
     1
102
RTVSPropertyOp27
 70
     1
102
RTVSPropertyOp28
 70
     1
102
RTVSPropertyOp29
 70
     1
102
RTVSPropertyOp30
 70
     1
102
RTVSPropertyOp31
 70
     1
102
RTVSPropertyOp32
 70
     1
  0
XRECORD
  5
57
102
{ACAD_REACTORS
330
56
102
}
330
56
100
AcDbXrecord
280
     1
102
RTVSPropertyOp0
 70
     1
102
RTVSPropertyOp1
 70
     1
102
RTVSPropertyOp2
 70
     1
102
RTVSPropertyOp3
 70
     1
102
RTVSPropertyOp4
 70
     1
102
RTVSPropertyOp5
 70
     1
102
RTVSPropertyOp6
 70
     1
102
RTVSPropertyOp7
 70
     1
102
RTVSPropertyOp8
 70
     1
102
RTVSPropertyOp9
 70
     1
102
RTVSPropertyOp10
 70
     1
102
RTVSPropertyOp11
 70
     1
102
RTVSPropertyOp12
 70
     1
102
RTVSPropertyOp13
 70
     1
102
RTVSPropertyOp14
 70
     1
102
RTVSPropertyOp15
 70
     1
102
RTVSPropertyOp16
 70
     1
102
RTVSPropertyOp17
 70
     1
102
RTVSPropertyOp18
 70
     1
102
RTVSPropertyOp19
 70
     1
102
RTVSPropertyOp20
 70
     1
102
RTVSPropertyOp21
 70
     1
102
RTVSPropertyOp22
 70
     1
102
RTVSPropertyOp23
 70
     1
102
RTVSPropertyOp24
 70
     1
102
RTVSPropertyOp25
 70
     1
102
RTVSPropertyOp26
 70
     1
102
RTVSPropertyOp27
 70
     1
102
RTVSPropertyOp28
 70
     1
102
RTVSPropertyOp29
 70
     1
102
RTVSPropertyOp30
 70
     1
102
RTVSPropertyOp31
 70
     1
102
RTVSPropertyOp32
 70
     1
  0
XRECORD
  5
55
102
{ACAD_REACTORS
330
54
102
}
330
54
100
AcDbXrecord
280
     1
102
RTVSPropertyOp0
 70
     1
102
RTVSPropertyOp1
 70
     1
102
RTVSPropertyOp2
 70
     1
102
RTVSPropertyOp3
 70
     1
102
RTVSPropertyOp4
 70
     1
102
RTVSPropertyOp5
 70
     1
102
RTVSPropertyOp6
 70
     1
102
RTVSPropertyOp7
 70
     1
102
RTVSPropertyOp8
 70
     1
102
RTVSPropertyOp9
 70
     1
102
RTVSPropertyOp10
 70
     1
102
RTVSPropertyOp11
 70
     1
102
RTVSPropertyOp12
 70
     1
102
RTVSPropertyOp13
 70
     1
102
RTVSPropertyOp14
 70
     1
102
RTVSPropertyOp15
 70
     1
102
RTVSPropertyOp16
 70
     1
102
RTVSPropertyOp17
 70
     1
102
RTVSPropertyOp18
 70
     1
102
RTVSPropertyOp19
 70
     1
102
RTVSPropertyOp20
 70
     1
102
RTVSPropertyOp21
 70
     1
102
RTVSPropertyOp22
 70
     1
102
RTVSPropertyOp23
 70
     1
102
RTVSPropertyOp24
 70
     1
102
RTVSPropertyOp25
 70
     1
102
RTVSPropertyOp26
 70
     1
102
RTVSPropertyOp27
 70
     1
102
RTVSPropertyOp28
 70
     1
102
RTVSPropertyOp29
 70
     1
102
RTVSPropertyOp30
 70
     1
102
RTVSPropertyOp31
 70
     1
102
RTVSPropertyOp32
 70
     1
  0
XRECORD
  5
59
102
{ACAD_REACTORS
330
58
102
}
330
58
100
AcDbXrecord
280
     1
102
RTVSPropertyOp0
 70
     1
102
RTVSPropertyOp1
 70
     1
102
RTVSPropertyOp2
 70
     1
102
RTVSPropertyOp3
 70
     1
102
RTVSPropertyOp4
 70
     1
102
RTVSPropertyOp5
 70
     1
102
RTVSPropertyOp6
 70
     1
102
RTVSPropertyOp7
 70
     1
102
RTVSPropertyOp8
 70
     1
102
RTVSPropertyOp9
 70
     1
102
RTVSPropertyOp10
 70
     1
102
RTVSPropertyOp11
 70
     1
102
RTVSPropertyOp12
 70
     1
102
RTVSPropertyOp13
 70
     1
102
RTVSPropertyOp14
 70
     1
102
RTVSPropertyOp15
 70
     1
102
RTVSPropertyOp16
 70
     1
102
RTVSPropertyOp17
 70
     1
102
RTVSPropertyOp18
 70
     1
102
RTVSPropertyOp19
 70
     1
102
RTVSPropertyOp20
 70
     1
102
RTVSPropertyOp21
 70
     1
102
RTVSPropertyOp22
 70
     1
102
RTVSPropertyOp23
 70
     1
102
RTVSPropertyOp24
 70
     1
102
RTVSPropertyOp25
 70
     1
102
RTVSPropertyOp26
 70
     1
102
RTVSPropertyOp27
 70
     1
102
RTVSPropertyOp28
 70
     1
102
RTVSPropertyOp29
 70
     1
102
RTVSPropertyOp30
 70
     1
102
RTVSPropertyOp31
 70
     1
102
RTVSPropertyOp32
 70
     1
  0
XRECORD
  5
61
102
{ACAD_REACTORS
330
60
102
}
330
60
100
AcDbXrecord
280
     1
102
RTVSPropertyOp0
 70
     1
102
RTVSPropertyOp1
 70
     1
102
RTVSPropertyOp2
 70
     1
102
RTVSPropertyOp3
 70
     1
102
RTVSPropertyOp4
 70
     1
102
RTVSPropertyOp5
 70
     1
102
RTVSPropertyOp6
 70
     1
102
RTVSPropertyOp7
 70
     1
102
RTVSPropertyOp8
 70
     1
102
RTVSPropertyOp9
 70
     1
102
RTVSPropertyOp10
 70
     1
102
RTVSPropertyOp11
 70
     1
102
RTVSPropertyOp12
 70
     1
102
RTVSPropertyOp13
 70
     1
102
RTVSPropertyOp14
 70
     1
102
RTVSPropertyOp15
 70
     1
102
RTVSPropertyOp16
 70
     1
102
RTVSPropertyOp17
 70
     1
102
RTVSPropertyOp18
 70
     1
102
RTVSPropertyOp19
 70
     1
102
RTVSPropertyOp20
 70
     1
102
RTVSPropertyOp21
 70
     1
102
RTVSPropertyOp22
 70
     1
102
RTVSPropertyOp23
 70
     1
102
RTVSPropertyOp24
 70
     1
102
RTVSPropertyOp25
 70
     1
102
RTVSPropertyOp26
 70
     1
102
RTVSPropertyOp27
 70
     1
102
RTVSPropertyOp28
 70
     1
102
RTVSPropertyOp29
 70
     1
102
RTVSPropertyOp30
 70
     1
102
RTVSPropertyOp31
 70
     1
102
RTVSPropertyOp32
 70
     1
  0
XRECORD
  5
69
102
{ACAD_REACTORS
330
68
102
}
330
68
100
AcDbXrecord
280
     1
102
RTVSPropertyOp0
 70
     1
102
RTVSPropertyOp1
 70
     1
102
RTVSPropertyOp2
 70
     1
102
RTVSPropertyOp3
 70
     1
102
RTVSPropertyOp4
 70
     1
102
RTVSPropertyOp5
 70
     1
102
RTVSPropertyOp6
 70
     1
102
RTVSPropertyOp7
 70
     1
102
RTVSPropertyOp8
 70
     1
102
RTVSPropertyOp9
 70
     1
102
RTVSPropertyOp10
 70
     1
102
RTVSPropertyOp11
 70
     1
102
RTVSPropertyOp12
 70
     1
102
RTVSPropertyOp13
 70
     1
102
RTVSPropertyOp14
 70
     1
102
RTVSPropertyOp15
 70
     1
102
RTVSPropertyOp16
 70
     1
102
RTVSPropertyOp17
 70
     1
102
RTVSPropertyOp18
 70
     1
102
RTVSPropertyOp19
 70
     1
102
RTVSPropertyOp20
 70
     1
102
RTVSPropertyOp21
 70
     1
102
RTVSPropertyOp22
 70
     1
102
RTVSPropertyOp23
 70
     1
102
RTVSPropertyOp24
 70
     1
102
RTVSPropertyOp25
 70
     1
102
RTVSPropertyOp26
 70
     1
102
RTVSPropertyOp27
 70
     1
102
RTVSPropertyOp28
 70
     1
102
RTVSPropertyOp29
 70
     1
102
RTVSPropertyOp30
 70
     1
102
RTVSPropertyOp31
 70
     1
102
RTVSPropertyOp32
 70
     1
  0
XRECORD
  5
5D
102
{ACAD_REACTORS
330
5C
102
}
330
5C
100
AcDbXrecord
280
     1
102
RTVSPropertyOp0
 70
     1
102
RTVSPropertyOp1
 70
     1
102
RTVSPropertyOp2
 70
     1
102
RTVSPropertyOp3
 70
     1
102
RTVSPropertyOp4
 70
     1
102
RTVSPropertyOp5
 70
     1
102
RTVSPropertyOp6
 70
     1
102
RTVSPropertyOp7
 70
     1
102
RTVSPropertyOp8
 70
     1
102
RTVSPropertyOp9
 70
     1
102
RTVSPropertyOp10
 70
     1
102
RTVSPropertyOp11
 70
     1
102
RTVSPropertyOp12
 70
     1
102
RTVSPropertyOp13
 70
     1
102
RTVSPropertyOp14
 70
     1
102
RTVSPropertyOp15
 70
     1
102
RTVSPropertyOp16
 70
     1
102
RTVSPropertyOp17
 70
     1
102
RTVSPropertyOp18
 70
     1
102
RTVSPropertyOp19
 70
     1
102
RTVSPropertyOp20
 70
     1
102
RTVSPropertyOp21
 70
     1
102
RTVSPropertyOp22
 70
     1
102
RTVSPropertyOp23
 70
     1
102
RTVSPropertyOp24
 70
     1
102
RTVSPropertyOp25
 70
     1
102
RTVSPropertyOp26
 70
     1
102
RTVSPropertyOp27
 70
     1
102
RTVSPropertyOp28
 70
     1
102
RTVSPropertyOp29
 70
     1
102
RTVSPropertyOp30
 70
     1
102
RTVSPropertyOp31
 70
     1
102
RTVSPropertyOp32
 70
     1
  0
XRECORD
  5
5F
102
{ACAD_REACTORS
330
5E
102
}
330
5E
100
AcDbXrecord
280
     1
102
RTVSPropertyOp0
 70
     1
102
RTVSPropertyOp1
 70
     1
102
RTVSPropertyOp2
 70
     1
102
RTVSPropertyOp3
 70
     1
102
RTVSPropertyOp4
 70
     1
102
RTVSPropertyOp5
 70
     1
102
RTVSPropertyOp6
 70
     1
102
RTVSPropertyOp7
 70
     1
102
RTVSPropertyOp8
 70
     1
102
RTVSPropertyOp9
 70
     1
102
RTVSPropertyOp10
 70
     1
102
RTVSPropertyOp11
 70
     1
102
RTVSPropertyOp12
 70
     1
102
RTVSPropertyOp13
 70
     1
102
RTVSPropertyOp14
 70
     1
102
RTVSPropertyOp15
 70
     1
102
RTVSPropertyOp16
 70
     1
102
RTVSPropertyOp17
 70
     1
102
RTVSPropertyOp18
 70
     1
102
RTVSPropertyOp19
 70
     1
102
RTVSPropertyOp20
 70
     1
102
RTVSPropertyOp21
 70
     1
102
RTVSPropertyOp22
 70
     1
102
RTVSPropertyOp23
 70
     1
102
RTVSPropertyOp24
 70
     1
102
RTVSPropertyOp25
 70
     1
102
RTVSPropertyOp26
 70
     1
102
RTVSPropertyOp27
 70
     1
102
RTVSPropertyOp28
 70
     1
102
RTVSPropertyOp29
 70
     1
102
RTVSPropertyOp30
 70
     1
102
RTVSPropertyOp31
 70
     1
102
RTVSPropertyOp32
 70
     1
  0
XRECORD
  5
67
102
{ACAD_REACTORS
330
66
102
}
330
66
100
AcDbXrecord
280
     1
102
RTVSPropertyOp0
 70
     1
102
RTVSPropertyOp1
 70
     1
102
RTVSPropertyOp2
 70
     1
102
RTVSPropertyOp3
 70
     1
102
RTVSPropertyOp4
 70
     1
102
RTVSPropertyOp5
 70
     1
102
RTVSPropertyOp6
 70
     1
102
RTVSPropertyOp7
 70
     1
102
RTVSPropertyOp8
 70
     1
102
RTVSPropertyOp9
 70
     1
102
RTVSPropertyOp10
 70
     1
102
RTVSPropertyOp11
 70
     1
102
RTVSPropertyOp12
 70
     1
102
RTVSPropertyOp13
 70
     1
102
RTVSPropertyOp14
 70
     1
102
RTVSPropertyOp15
 70
     1
102
RTVSPropertyOp16
 70
     1
102
RTVSPropertyOp17
 70
     1
102
RTVSPropertyOp18
 70
     1
102
RTVSPropertyOp19
 70
     1
102
RTVSPropertyOp20
 70
     1
102
RTVSPropertyOp21
 70
     1
102
RTVSPropertyOp22
 70
     1
102
RTVSPropertyOp23
 70
     1
102
RTVSPropertyOp24
 70
     1
102
RTVSPropertyOp25
 70
     1
102
RTVSPropertyOp26
 70
     1
102
RTVSPropertyOp27
 70
     1
102
RTVSPropertyOp28
 70
     1
102
RTVSPropertyOp29
 70
     1
102
RTVSPropertyOp30
 70
     1
102
RTVSPropertyOp31
 70
     1
102
RTVSPropertyOp32
 70
     1
  0
XRECORD
  5
4B
102
{ACAD_REACTORS
330
4A
102
}
330
4A
100
AcDbXrecord
280
     1
102
RTVSPropertyOp0
 70
     1
102
RTVSPropertyOp1
 70
     1
102
RTVSPropertyOp2
 70
     1
102
RTVSPropertyOp3
 70
     1
102
RTVSPropertyOp4
 70
     1
102
RTVSPropertyOp5
 70
     1
102
RTVSPropertyOp6
 70
     1
102
RTVSPropertyOp7
 70
     1
102
RTVSPropertyOp8
 70
     1
102
RTVSPropertyOp9
 70
     1
102
RTVSPropertyOp10
 70
     1
102
RTVSPropertyOp11
 70
     1
102
RTVSPropertyOp12
 70
     1
102
RTVSPropertyOp13
 70
     1
102
RTVSPropertyOp14
 70
     1
102
RTVSPropertyOp15
 70
     1
102
RTVSPropertyOp16
 70
     1
102
RTVSPropertyOp17
 70
     1
102
RTVSPropertyOp18
 70
     1
102
RTVSPropertyOp19
 70
     1
102
RTVSPropertyOp20
 70
     1
102
RTVSPropertyOp21
 70
     1
102
RTVSPropertyOp22
 70
     1
102
RTVSPropertyOp23
 70
     1
102
RTVSPropertyOp24
 70
     1
102
RTVSPropertyOp25
 70
     1
102
RTVSPropertyOp26
 70
     1
102
RTVSPropertyOp27
 70
     1
102
RTVSPropertyOp28
 70
     1
102
RTVSPropertyOp29
 70
     1
102
RTVSPropertyOp30
 70
     1
102
RTVSPropertyOp31
 70
     1
102
RTVSPropertyOp32
 70
     1
  0
XRECORD
  5
4D
102
{ACAD_REACTORS
330
4C
102
}
330
4C
100
AcDbXrecord
280
     1
102
RTVSPropertyOp0
 70
     1
102
RTVSPropertyOp1
 70
     1
102
RTVSPropertyOp2
 70
     1
102
RTVSPropertyOp3
 70
     1
102
RTVSPropertyOp4
 70
     1
102
RTVSPropertyOp5
 70
     1
102
RTVSPropertyOp6
 70
     1
102
RTVSPropertyOp7
 70
     1
102
RTVSPropertyOp8
 70
     1
102
RTVSPropertyOp9
 70
     1
102
RTVSPropertyOp10
 70
     1
102
RTVSPropertyOp11
 70
     1
102
RTVSPropertyOp12
 70
     1
102
RTVSPropertyOp13
 70
     1
102
RTVSPropertyOp14
 70
     1
102
RTVSPropertyOp15
 70
     1
102
RTVSPropertyOp16
 70
     1
102
RTVSPropertyOp17
 70
     1
102
RTVSPropertyOp18
 70
     1
102
RTVSPropertyOp19
 70
     1
102
RTVSPropertyOp20
 70
     1
102
RTVSPropertyOp21
 70
     1
102
RTVSPropertyOp22
 70
     1
102
RTVSPropertyOp23
 70
     1
102
RTVSPropertyOp24
 70
     1
102
RTVSPropertyOp25
 70
     1
102
RTVSPropertyOp26
 70
     1
102
RTVSPropertyOp27
 70
     1
102
RTVSPropertyOp28
 70
     1
102
RTVSPropertyOp29
 70
     1
102
RTVSPropertyOp30
 70
     1
102
RTVSPropertyOp31
 70
     1
102
RTVSPropertyOp32
 70
     1
  0
XRECORD
  5
4F
102
{ACAD_REACTORS
330
4E
102
}
330
4E
100
AcDbXrecord
280
     1
102
RTVSPropertyOp0
 70
     1
102
RTVSPropertyOp1
 70
     1
102
RTVSPropertyOp2
 70
     1
102
RTVSPropertyOp3
 70
     1
102
RTVSPropertyOp4
 70
     1
102
RTVSPropertyOp5
 70
     1
102
RTVSPropertyOp6
 70
     1
102
RTVSPropertyOp7
 70
     1
102
RTVSPropertyOp8
 70
     1
102
RTVSPropertyOp9
 70
     1
102
RTVSPropertyOp10
 70
     1
102
RTVSPropertyOp11
 70
     1
102
RTVSPropertyOp12
 70
     1
102
RTVSPropertyOp13
 70
     1
102
RTVSPropertyOp14
 70
     1
102
RTVSPropertyOp15
 70
     1
102
RTVSPropertyOp16
 70
     1
102
RTVSPropertyOp17
 70
     1
102
RTVSPropertyOp18
 70
     1
102
RTVSPropertyOp19
 70
     1
102
RTVSPropertyOp20
 70
     1
102
RTVSPropertyOp21
 70
     1
102
RTVSPropertyOp22
 70
     1
102
RTVSPropertyOp23
 70
     1
102
RTVSPropertyOp24
 70
     1
102
RTVSPropertyOp25
 70
     1
102
RTVSPropertyOp26
 70
     1
102
RTVSPropertyOp27
 70
     1
102
RTVSPropertyOp28
 70
     1
102
RTVSPropertyOp29
 70
     1
102
RTVSPropertyOp30
 70
     1
102
RTVSPropertyOp31
 70
     1
102
RTVSPropertyOp32
 70
     1
  0
XRECORD
  5
51
102
{ACAD_REACTORS
330
50
102
}
330
50
100
AcDbXrecord
280
     1
102
RTVSPropertyOp0
 70
     1
102
RTVSPropertyOp1
 70
     1
102
RTVSPropertyOp2
 70
     1
102
RTVSPropertyOp3
 70
     1
102
RTVSPropertyOp4
 70
     1
102
RTVSPropertyOp5
 70
     1
102
RTVSPropertyOp6
 70
     1
102
RTVSPropertyOp7
 70
     1
102
RTVSPropertyOp8
 70
     1
102
RTVSPropertyOp9
 70
     1
102
RTVSPropertyOp10
 70
     1
102
RTVSPropertyOp11
 70
     1
102
RTVSPropertyOp12
 70
     1
102
RTVSPropertyOp13
 70
     1
102
RTVSPropertyOp14
 70
     1
102
RTVSPropertyOp15
 70
     1
102
RTVSPropertyOp16
 70
     1
102
RTVSPropertyOp17
 70
     1
102
RTVSPropertyOp18
 70
     1
102
RTVSPropertyOp19
 70
     1
102
RTVSPropertyOp20
 70
     1
102
RTVSPropertyOp21
 70
     1
102
RTVSPropertyOp22
 70
     1
102
RTVSPropertyOp23
 70
     1
102
RTVSPropertyOp24
 70
     1
102
RTVSPropertyOp25
 70
     1
102
RTVSPropertyOp26
 70
     1
102
RTVSPropertyOp27
 70
     1
102
RTVSPropertyOp28
 70
     1
102
RTVSPropertyOp29
 70
     1
102
RTVSPropertyOp30
 70
     1
102
RTVSPropertyOp31
 70
     1
102
RTVSPropertyOp32
 70
     1
  0
XRECORD
  5
65
102
{ACAD_REACTORS
330
64
102
}
330
64
100
AcDbXrecord
280
     1
102
RTVSPropertyOp0
 70
     1
102
RTVSPropertyOp1
 70
     1
102
RTVSPropertyOp2
 70
     1
102
RTVSPropertyOp3
 70
     1
102
RTVSPropertyOp4
 70
     1
102
RTVSPropertyOp5
 70
     1
102
RTVSPropertyOp6
 70
     1
102
RTVSPropertyOp7
 70
     1
102
RTVSPropertyOp8
 70
     1
102
RTVSPropertyOp9
 70
     1
102
RTVSPropertyOp10
 70
     1
102
RTVSPropertyOp11
 70
     1
102
RTVSPropertyOp12
 70
     1
102
RTVSPropertyOp13
 70
     1
102
RTVSPropertyOp14
 70
     1
102
RTVSPropertyOp15
 70
     1
102
RTVSPropertyOp16
 70
     1
102
RTVSPropertyOp17
 70
     1
102
RTVSPropertyOp18
 70
     1
102
RTVSPropertyOp19
 70
     1
102
RTVSPropertyOp20
 70
     1
102
RTVSPropertyOp21
 70
     1
102
RTVSPropertyOp22
 70
     1
102
RTVSPropertyOp23
 70
     1
102
RTVSPropertyOp24
 70
     1
102
RTVSPropertyOp25
 70
     1
102
RTVSPropertyOp26
 70
     1
102
RTVSPropertyOp27
 70
     1
102
RTVSPropertyOp28
 70
     1
102
RTVSPropertyOp29
 70
     1
102
RTVSPropertyOp30
 70
     1
102
RTVSPropertyOp31
 70
     1
102
RTVSPropertyOp32
 70
     1
  0
XRECORD
  5
5B
102
{ACAD_REACTORS
330
5A
102
}
330
5A
100
AcDbXrecord
280
     1
102
RTVSPropertyOp0
 70
     1
102
RTVSPropertyOp1
 70
     1
102
RTVSPropertyOp2
 70
     1
102
RTVSPropertyOp3
 70
     1
102
RTVSPropertyOp4
 70
     1
102
RTVSPropertyOp5
 70
     1
102
RTVSPropertyOp6
 70
     1
102
RTVSPropertyOp7
 70
     1
102
RTVSPropertyOp8
 70
     1
102
RTVSPropertyOp9
 70
     1
102
RTVSPropertyOp10
 70
     1
102
RTVSPropertyOp11
 70
     1
102
RTVSPropertyOp12
 70
     1
102
RTVSPropertyOp13
 70
     1
102
RTVSPropertyOp14
 70
     1
102
RTVSPropertyOp15
 70
     1
102
RTVSPropertyOp16
 70
     1
102
RTVSPropertyOp17
 70
     1
102
RTVSPropertyOp18
 70
     1
102
RTVSPropertyOp19
 70
     1
102
RTVSPropertyOp20
 70
     1
102
RTVSPropertyOp21
 70
     1
102
RTVSPropertyOp22
 70
     1
102
RTVSPropertyOp23
 70
     1
102
RTVSPropertyOp24
 70
     1
102
RTVSPropertyOp25
 70
     1
102
RTVSPropertyOp26
 70
     1
102
RTVSPropertyOp27
 70
     1
102
RTVSPropertyOp28
 70
     1
102
RTVSPropertyOp29
 70
     1
102
RTVSPropertyOp30
 70
     1
102
RTVSPropertyOp31
 70
     1
102
RTVSPropertyOp32
 70
     1
  0
XRECORD
  5
63
102
{ACAD_REACTORS
330
62
102
}
330
62
100
AcDbXrecord
280
     1
102
RTVSPropertyOp0
 70
     1
102
RTVSPropertyOp1
 70
     1
102
RTVSPropertyOp2
 70
     1
102
RTVSPropertyOp3
 70
     1
102
RTVSPropertyOp4
 70
     1
102
RTVSPropertyOp5
 70
     1
102
RTVSPropertyOp6
 70
     1
102
RTVSPropertyOp7
 70
     1
102
RTVSPropertyOp8
 70
     1
102
RTVSPropertyOp9
 70
     1
102
RTVSPropertyOp10
 70
     1
102
RTVSPropertyOp11
 70
     1
102
RTVSPropertyOp12
 70
     1
102
RTVSPropertyOp13
 70
     1
102
RTVSPropertyOp14
 70
     1
102
RTVSPropertyOp15
 70
     1
102
RTVSPropertyOp16
 70
     1
102
RTVSPropertyOp17
 70
     1
102
RTVSPropertyOp18
 70
     1
102
RTVSPropertyOp19
 70
     1
102
RTVSPropertyOp20
 70
     1
102
RTVSPropertyOp21
 70
     1
102
RTVSPropertyOp22
 70
     1
102
RTVSPropertyOp23
 70
     1
102
RTVSPropertyOp24
 70
     1
102
RTVSPropertyOp25
 70
     1
102
RTVSPropertyOp26
 70
     1
102
RTVSPropertyOp27
 70
     1
102
RTVSPropertyOp28
 70
     1
102
RTVSPropertyOp29
 70
     1
102
RTVSPropertyOp30
 70
     1
102
RTVSPropertyOp31
 70
     1
102
RTVSPropertyOp32
 70
     1
  0
ENDSEC
  0
EOF
