  0
SECTION
  2
HEADER
  9
$ACADVER
  1
AC1009
  9
$EXTMIN
 10
-0.00004846
 20
-0.00868866
 30
0.0
  9
$EXTMAX
 10
500.00004846
 20
300.00868866
 30
0.0
  0
ENDSEC
  0
SECTION
  2
TABLES
  0
TABLE
  2
LAYER
 70
1
 0
LAYER
 2
Nível Padrão
 70
0
 62
1
 6
CONTINUOUS
 0
ENDTAB
 0
ENDSEC
  0
SECTION
  2
ENTITIES
  0
POLYLINE
  8
Nível Padrão
 66
   1
 39
0.000000
 70
    1
  0
VERTEX
  8
0
 10
500.00004846
 20
150.00000000
  0
VERTEX
  8
0
 10
499.96905182
 20
149.42736512
  0
VERTEX
  8
0
 10
499.90960190
 20
148.85861073
  0
VERTEX
  8
0
 10
499.82218688
 20
148.29493541
  0
VERTEX
  8
0
 10
499.70729492
 20
147.73753775
  0
VERTEX
  8
0
 10
499.56541420
 20
147.18761633
  0
VERTEX
  8
0
 10
499.39703287
 20
146.64636973
  0
VERTEX
  8
0
 10
499.20263912
 20
146.11499654
  0
VERTEX
  8
0
 10
498.98272110
 20
145.59469533
  0
VERTEX
  8
0
 10
498.73776698
 20
145.08666470
  0
VERTEX
  8
0
 10
498.46826494
 20
144.59210321
  0
VERTEX
  8
0
 10
498.17470314
 20
144.11220947
  0
VERTEX
  8
0
 10
497.85756975
 20
143.64818204
  0
VERTEX
  8
0
 10
497.51735294
 20
143.20121952
  0
VERTEX
  8
0
 10
497.15454088
 20
142.77252048
  0
VERTEX
  8
0
 10
496.76962173
 20
142.36328351
  0
VERTEX
  8
0
 10
496.36308367
 20
141.97470719
  0
VERTEX
  8
0
 10
495.86183847
 20
141.08513598
  0
VERTEX
  8
0
 10
495.39964551
 20
140.16832608
  0
VERTEX
  8
0
 10
494.97455606
 20
139.22743568
  0
VERTEX
  8
0
 10
494.58462140
 20
138.26562300
  0
VERTEX
  8
0
 10
494.22789280
 20
137.28604624
  0
VERTEX
  8
0
 10
493.90242153
 20
136.29186362
  0
VERTEX
  8
0
 10
493.60625888
 20
135.28623335
  0
VERTEX
  8
0
 10
493.33745611
 20
134.27231363
  0
VERTEX
  8
0
 10
493.09406450
 20
133.25326268
  0
VERTEX
  8
0
 10
492.87413532
 20
132.23223869
  0
VERTEX
  8
0
 10
492.67571986
 20
131.21239989
  0
VERTEX
  8
0
 10
492.49686937
 20
130.19690449
  0
VERTEX
  8
0
 10
492.19006846
 20
128.19157668
  0
VERTEX
  8
0
 10
491.93814277
 20
126.24152096
  0
VERTEX
  8
0
 10
491.72550251
 20
124.37200298
  0
VERTEX
  8
0
 10
491.53655788
 20
122.60828844
  0
VERTEX
  8
0
 10
491.35571907
 20
120.97564299
  0
VERTEX
  8
0
 10
491.16739629
 20
119.49933233
  0
VERTEX
  8
0
 10
491.06555659
 20
118.82769806
  0
VERTEX
  8
0
 10
490.95599972
 20
118.20462211
  0
VERTEX
  8
0
 10
490.83677695
 20
117.63326269
  0
VERTEX
  8
0
 10
490.70593957
 20
117.11677801
  0
VERTEX
  8
0
 10
490.56153883
 20
116.65832629
  0
VERTEX
  8
0
 10
490.40162603
 20
116.26106572
  0
VERTEX
  8
0
 10
490.22425242
 20
115.92815452
  0
VERTEX
  8
0
 10
490.02746930
 20
115.66275090
  0
VERTEX
  8
0
 10
421.89705641
 20
122.39194922
  0
VERTEX
  8
0
 10
421.62344123
 20
122.53756484
  0
VERTEX
  8
0
 10
421.17975490
 20
122.82034113
  0
VERTEX
  8
0
 10
419.92300578
 20
123.69290397
  0
VERTEX
  8
0
 10
418.40848302
 20
124.80069434
  0
VERTEX
  8
0
 10
416.91786059
 20
125.93476879
  0
VERTEX
  8
0
 10
415.93864079
 20
127.06010607
  0
VERTEX
  8
0
 10
414.37716677
 20
127.35457111
  0
VERTEX
  8
0
 10
412.81348286
 20
127.62943773
  0
VERTEX
  8
0
 10
411.24774277
 20
127.88470684
  0
VERTEX
  8
0
 10
409.68010024
 20
128.12037934
  0
VERTEX
  8
0
 10
408.11070898
 20
128.33645612
  0
VERTEX
  8
0
 10
406.53972273
 20
128.53293808
  0
VERTEX
  8
0
 10
404.96729521
 20
128.70982612
  0
VERTEX
  8
0
 10
403.39358014
 20
128.86712113
  0
VERTEX
  8
0
 10
401.81873125
 20
129.00482400
  0
VERTEX
  8
0
 10
400.24290227
 20
129.12293565
  0
VERTEX
  8
0
 10
398.66624692
 20
129.22145696
  0
VERTEX
  8
0
 10
397.08891893
 20
129.30038883
  0
VERTEX
  8
0
 10
395.51107201
 20
129.35973216
  0
VERTEX
  8
0
 10
393.93285991
 20
129.39948784
  0
VERTEX
  8
0
 10
392.35443633
 20
129.41965678
  0
VERTEX
  8
0
 10
390.77595501
 20
129.42023986
  0
VERTEX
  8
0
 10
389.19756968
 20
129.40123799
  0
VERTEX
  8
0
 10
387.61943405
 20
129.36265206
  0
VERTEX
  8
0
 10
386.04170185
 20
129.30448297
  0
VERTEX
  8
0
 10
384.46452681
 20
129.22673161
  0
VERTEX
  8
0
 10
382.88806266
 20
129.12939889
  0
VERTEX
  8
0
 10
381.31246312
 20
129.01248570
  0
VERTEX
  8
0
 10
379.73788190
 20
128.87599293
  0
VERTEX
  8
0
 10
378.16447275
 20
128.71992149
  0
VERTEX
  8
0
 10
376.59238938
 20
128.54427227
  0
VERTEX
  8
0
 10
375.02178553
 20
128.34904617
  0
VERTEX
  8
0
 10
373.45281491
 20
128.13424408
  0
VERTEX
  8
0
 10
371.88563124
 20
127.89986690
  0
VERTEX
  8
0
 10
370.32038827
 20
127.64591553
  0
VERTEX
  8
0
 10
368.75723970
 20
127.37239087
  0
VERTEX
  8
0
 10
367.19633927
 20
127.07929381
  0
VERTEX
  8
0
 10
365.63784071
 20
126.76662525
  0
VERTEX
  8
0
 10
364.51052994
 20
122.52998810
  0
VERTEX
  8
0
 10
364.49976061
 20
122.51555120
  0
VERTEX
  8
0
 10
363.90967050
 20
117.49035274
  0
VERTEX
  8
0
 10
363.36802203
 20
112.78904021
  0
VERTEX
  8
0
 10
363.09680116
 20
110.53342458
  0
VERTEX
  8
0
 10
362.81541600
 20
108.32708054
  0
VERTEX
  8
0
 10
362.51644164
 20
106.15944145
  0
VERTEX
  8
0
 10
362.19245321
 20
104.01994068
  0
VERTEX
  8
0
 10
361.83602578
 20
101.89801160
  0
VERTEX
  8
0
 10
361.43973447
 20
99.78308757
  0
VERTEX
  8
0
 10
360.99615437
 20
97.66460196
  0
VERTEX
  8
0
 10
360.49786059
 20
95.53198814
  0
VERTEX
  8
0
 10
359.93742822
 20
93.37467948
  0
VERTEX
  8
0
 10
359.30743238
 20
91.18210934
  0
VERTEX
  8
0
 10
358.96402787
 20
90.06929915
  0
VERTEX
  8
0
 10
358.60044815
 20
88.94371109
  0
VERTEX
  8
0
 10
358.21576511
 20
87.80402436
  0
VERTEX
  8
0
 10
357.80905064
 20
86.64891811
  0
VERTEX
  8
0
 10
356.99027274
 20
84.44527087
  0
VERTEX
  8
0
 10
356.15334104
 20
82.34144480
  0
VERTEX
  8
0
 10
355.29601880
 20
80.33242970
  0
VERTEX
  8
0
 10
354.41606930
 20
78.41321539
  0
VERTEX
  8
0
 10
353.51125581
 20
76.57879167
  0
VERTEX
  8
0
 10
353.04882609
 20
75.69181060
  0
VERTEX
  8
0
 10
352.57934160
 20
74.82414835
  0
VERTEX
  8
0
 10
352.10252275
 20
73.97517865
  0
VERTEX
  8
0
 10
351.61808995
 20
73.14427523
  0
VERTEX
  8
0
 10
351.12576361
 20
72.33081182
  0
VERTEX
  8
0
 10
350.62526413
 20
71.53416213
  0
VERTEX
  8
0
 10
350.11631193
 20
70.75369990
  0
VERTEX
  8
0
 10
349.59862742
 20
69.98879886
  0
VERTEX
  8
0
 10
349.07193100
 20
69.23883272
  0
VERTEX
  8
0
 10
348.53594308
 20
68.50317521
  0
VERTEX
  8
0
 10
347.99038408
 20
67.78120006
  0
VERTEX
  8
0
 10
347.43497440
 20
67.07228100
  0
VERTEX
  8
0
 10
346.86943445
 20
66.37579175
  0
VERTEX
  8
0
 10
346.29348464
 20
65.69110604
  0
VERTEX
  8
0
 10
345.70684539
 20
65.01759759
  0
VERTEX
  8
0
 10
345.10923709
 20
64.35464013
  0
VERTEX
  8
0
 10
343.87999500
 20
63.05787308
  0
VERTEX
  8
0
 10
342.60352166
 20
61.79579470
  0
VERTEX
  8
0
 10
341.27758035
 20
60.56339480
  0
VERTEX
  8
0
 10
339.85163616
 20
59.30824214
  0
VERTEX
  8
0
 10
338.38629948
 20
58.08126462
  0
VERTEX
  8
0
 10
336.88234298
 20
56.88477076
  0
VERTEX
  8
0
 10
335.34053937
 20
55.72106910
  0
VERTEX
  8
0
 10
333.76166132
 20
54.59246815
  0
VERTEX
  8
0
 10
332.14648153
 20
53.50127645
  0
VERTEX
  8
0
 10
330.49577269
 20
52.44980253
  0
VERTEX
  8
0
 10
328.81030748
 20
51.44035490
  0
VERTEX
  8
0
 10
327.09085860
 20
50.47524211
  0
VERTEX
  8
0
 10
325.33819874
 20
49.55677267
  0
VERTEX
  8
0
 10
323.55310057
 20
48.68725512
  0
VERTEX
  8
0
 10
322.64862860
 20
48.27157471
  0
VERTEX
  8
0
 10
321.73633681
 20
47.86899797
  0
VERTEX
  8
0
 10
320.81632179
 20
47.47981347
  0
VERTEX
  8
0
 10
319.88868012
 20
47.10430976
  0
VERTEX
  8
0
 10
318.95350840
 20
46.74277543
  0
VERTEX
  8
0
 10
318.01090321
 20
46.39549902
  0
VERTEX
  8
0
 10
317.06096114
 20
46.06276911
  0
VERTEX
  8
0
 10
316.10377876
 20
45.74487427
  0
VERTEX
  8
0
 10
315.13945268
 20
45.44210306
  0
VERTEX
  8
0
 10
314.16807946
 20
45.15474404
  0
VERTEX
  8
0
 10
313.18975571
 20
44.88308578
  0
VERTEX
  8
0
 10
312.20457801
 20
44.62741685
  0
VERTEX
  8
0
 10
311.21264293
 20
44.38802582
  0
VERTEX
  8
0
 10
310.21404708
 20
44.16520124
  0
VERTEX
  8
0
 10
309.20888703
 20
43.95923169
  0
VERTEX
  8
0
 10
308.19725937
 20
43.77040573
  0
VERTEX
  8
0
 10
307.17926069
 20
43.59901193
  0
VERTEX
  8
0
 10
306.15498758
 20
43.44533885
  0
VERTEX
  8
0
 10
305.12453661
 20
43.30967506
  0
VERTEX
  8
0
 10
304.08800438
 20
43.19230912
  0
VERTEX
  8
0
 10
303.04548747
 20
43.09352961
  0
VERTEX
  8
0
 10
301.99708247
 20
43.01362508
  0
VERTEX
  8
0
 10
300.94288596
 20
42.95288410
  0
VERTEX
  8
0
 10
299.88299453
 20
42.91159525
  0
VERTEX
  8
0
 10
298.81750477
 20
42.89004707
  0
VERTEX
  8
0
 10
297.74651327
 20
42.88852815
  0
VERTEX
  8
0
 10
296.67011660
 20
42.90732704
  0
VERTEX
  8
0
 10
295.58841136
 20
42.94673231
  0
VERTEX
  8
0
 10
294.50149412
 20
43.00703254
  0
VERTEX
  8
0
 10
293.40946149
 20
43.08851627
  0
VERTEX
  8
0
 10
292.31241004
 20
43.19147209
  0
VERTEX
  8
0
 10
291.21043636
 20
43.31618855
  0
VERTEX
  8
0
 10
290.10363704
 20
43.46295422
  0
VERTEX
  8
0
 10
288.99210866
 20
43.63205767
  0
VERTEX
  8
0
 10
287.87594780
 20
43.82378747
  0
VERTEX
  8
0
 10
286.75525106
 20
44.03843217
  0
VERTEX
  8
0
 10
285.63011503
 20
44.27628035
  0
VERTEX
  8
0
 10
284.50063627
 20
44.53762056
  0
VERTEX
  8
0
 10
283.36691140
 20
44.82274139
  0
VERTEX
  8
0
 10
282.22903698
 20
45.13193139
  0
VERTEX
  8
0
 10
281.08710961
 20
45.46547913
  0
VERTEX
  8
0
 10
279.94122586
 20
45.82367317
  0
VERTEX
  8
0
 10
276.09331785
 20
47.04802206
  0
VERTEX
  8
0
 10
272.23120100
 20
48.24897262
  0
VERTEX
  8
0
 10
264.47486761
 20
50.62640987
  0
VERTEX
  8
0
 10
260.58591447
 20
51.82576212
  0
VERTEX
  8
0
 10
256.69327930
 20
53.04744717
  0
VERTEX
  8
0
 10
252.79959381
 20
54.30289781
  0
VERTEX
  8
0
 10
248.90748971
 20
55.60354680
  0
VERTEX
  8
0
 10
246.66023688
 20
56.34184167
  0
VERTEX
  8
0
 10
245.54991872
 20
56.68404264
  0
VERTEX
  8
0
 10
244.44767654
 20
57.00748492
  0
VERTEX
  8
0
 10
243.35291319
 20
57.31157272
  0
VERTEX
  8
0
 10
242.26503154
 20
57.59571023
  0
VERTEX
  8
0
 10
241.18343443
 20
57.85930167
  0
VERTEX
  8
0
 10
240.10752472
 20
58.10175124
  0
VERTEX
  8
0
 10
239.03670527
 20
58.32246315
  0
VERTEX
  8
0
 10
237.97037894
 20
58.52084161
  0
VERTEX
  8
0
 10
236.90794858
 20
58.69629083
  0
VERTEX
  8
0
 10
235.84881704
 20
58.84821501
  0
VERTEX
  8
0
 10
234.79238718
 20
58.97601836
  0
VERTEX
  8
0
 10
233.73806186
 20
59.07910509
  0
VERTEX
  8
0
 10
232.68524394
 20
59.15687940
  0
VERTEX
  8
0
 10
231.63333626
 20
59.20874550
  0
VERTEX
  8
0
 10
230.58174169
 20
59.23410761
  0
VERTEX
  8
0
 10
229.52986308
 20
59.23236992
  0
VERTEX
  8
0
 10
228.47710328
 20
59.20293664
  0
VERTEX
  8
0
 10
227.42286516
 20
59.14521198
  0
VERTEX
  8
0
 10
226.36655157
 20
59.05860015
  0
VERTEX
  8
0
 10
225.30756536
 20
58.94250536
  0
VERTEX
  8
0
 10
224.24530939
 20
58.79633181
  0
VERTEX
  8
0
 10
223.17918651
 20
58.61948370
  0
VERTEX
  8
0
 10
222.10859959
 20
58.41136526
  0
VERTEX
  8
0
 10
221.03295147
 20
58.17138068
  0
VERTEX
  8
0
 10
219.95164502
 20
57.89893417
  0
VERTEX
  8
0
 10
218.86408308
 20
57.59342994
  0
VERTEX
  8
0
 10
217.76966852
 20
57.25427219
  0
VERTEX
  8
0
 10
216.66780419
 20
56.88086514
  0
VERTEX
  8
0
 10
215.55789295
 20
56.47261298
  0
VERTEX
  8
0
 10
214.43933765
 20
56.02891994
  0
VERTEX
  8
0
 10
213.52871258
 20
55.64520996
  0
VERTEX
  8
0
 10
212.62793751
 20
55.24727748
  0
VERTEX
  8
0
 10
211.73666013
 20
54.83584971
  0
VERTEX
  8
0
 10
210.85452816
 20
54.41165384
  0
VERTEX
  8
0
 10
209.11629129
 20
53.52786660
  0
VERTEX
  8
0
 10
207.41040858
 20
52.60173335
  0
VERTEX
  8
0
 10
205.73406173
 20
51.63907170
  0
VERTEX
  8
0
 10
204.08443241
 20
50.64569923
  0
VERTEX
  8
0
 10
202.45870233
 20
49.62743354
  0
VERTEX
  8
0
 10
200.85405316
 20
48.59009222
  0
VERTEX
  8
0
 10
199.26766659
 20
47.53949286
  0
VERTEX
  8
0
 10
197.69672431
 20
46.48145306
  0
VERTEX
  8
0
 10
194.58989939
 20
44.36632251
  0
VERTEX
  8
0
 10
191.51103189
 20
42.29124129
  0
VERTEX
  8
0
 10
189.97503639
 20
41.28326318
  0
VERTEX
  8
0
 10
188.43757531
 20
40.30275017
  0
VERTEX
  8
0
 10
185.96939606
 20
38.74421887
  0
VERTEX
  8
0
 10
183.50762262
 20
37.17010814
  0
VERTEX
  8
0
 10
178.59650102
 20
33.98940774
  0
VERTEX
  8
0
 10
173.69062624
 20
30.78916755
  0
VERTEX
  8
0
 10
168.77641398
 20
27.59790615
  0
VERTEX
  8
0
 10
166.31193620
 20
26.01455456
  0
VERTEX
  8
0
 10
163.84027995
 20
24.44414212
  0
VERTEX
  8
0
 10
161.35974719
 20
22.89023368
  0
VERTEX
  8
0
 10
158.86863988
 20
21.35639405
  0
VERTEX
  8
0
 10
156.36525999
 20
19.84618805
  0
VERTEX
  8
0
 10
153.84790947
 20
18.36318050
  0
VERTEX
  8
0
 10
151.31489030
 20
16.91093623
  0
VERTEX
  8
0
 10
148.76450444
 20
15.49302007
  0
VERTEX
  8
0
 10
146.19505385
 20
14.11299682
  0
VERTEX
  8
0
 10
143.60484050
 20
12.77443133
  0
VERTEX
  8
0
 10
140.99216634
 20
11.48088840
  0
VERTEX
  8
0
 10
138.35533336
 20
10.23593286
  0
VERTEX
  8
0
 10
137.02732666
 20
9.63278937
  0
VERTEX
  8
0
 10
135.69264350
 20
9.04312953
  0
VERTEX
  8
0
 10
134.35107161
 20
8.46739896
  0
VERTEX
  8
0
 10
133.00239873
 20
7.90604324
  0
VERTEX
  8
0
 10
131.64641262
 20
7.35950799
  0
VERTEX
  8
0
 10
130.28290103
 20
6.82823881
  0
VERTEX
  8
0
 10
128.91165168
 20
6.31268130
  0
VERTEX
  8
0
 10
127.53245234
 20
5.81328106
  0
VERTEX
  8
0
 10
126.14509074
 20
5.33048370
  0
VERTEX
  8
0
 10
124.74935464
 20
4.86473481
  0
VERTEX
  8
0
 10
123.34503177
 20
4.41648001
  0
VERTEX
  8
0
 10
121.93190989
 20
3.98616489
  0
VERTEX
  8
0
 10
120.50977673
 20
3.57423506
  0
VERTEX
  8
0
 10
119.07842005
 20
3.18113612
  0
VERTEX
  8
0
 10
117.63762759
 20
2.80731367
  0
VERTEX
  8
0
 10
116.18718709
 20
2.45321332
  0
VERTEX
  8
0
 10
114.72688631
 20
2.11928067
  0
VERTEX
  8
0
 10
113.25651298
 20
1.80596131
  0
VERTEX
  8
0
 10
111.77585485
 20
1.51370086
  0
VERTEX
  8
0
 10
110.28469967
 20
1.24294492
  0
VERTEX
  8
0
 10
108.78283518
 20
0.99413909
  0
VERTEX
  8
0
 10
107.27004913
 20
0.76772897
  0
VERTEX
  8
0
 10
105.74612926
 20
0.56416016
  0
VERTEX
  8
0
 10
104.21086333
 20
0.38387828
  0
VERTEX
  8
0
 10
102.67677673
 20
0.23427357
  0
VERTEX
  8
0
 10
101.14345813
 20
0.12067632
  0
VERTEX
  8
0
 10
99.61131115
 20
0.04262474
  0
VERTEX
  8
0
 10
98.08073945
 20
-0.00034299
  0
VERTEX
  8
0
 10
96.55214663
 20
-0.00868866
  0
VERTEX
  8
0
 10
95.02593635
 20
0.01712594
  0
VERTEX
  8
0
 10
93.50251222
 20
0.07663900
  0
VERTEX
  8
0
 10
91.98227788
 20
0.16938872
  0
VERTEX
  8
0
 10
90.46563696
 20
0.29491331
  0
VERTEX
  8
0
 10
88.95299309
 20
0.45275096
  0
VERTEX
  8
0
 10
87.44474992
 20
0.64243988
  0
VERTEX
  8
0
 10
85.94131106
 20
0.86351826
  0
VERTEX
  8
0
 10
84.44308014
 20
1.11552432
  0
VERTEX
  8
0
 10
82.95046081
 20
1.39799624
  0
VERTEX
  8
0
 10
81.46385669
 20
1.71047223
  0
VERTEX
  8
0
 10
79.98367142
 20
2.05249050
  0
VERTEX
  8
0
 10
78.51030862
 20
2.42358923
  0
VERTEX
  8
0
 10
77.04417194
 20
2.82330664
  0
VERTEX
  8
0
 10
75.58566499
 20
3.25118092
  0
VERTEX
  8
0
 10
74.13519141
 20
3.70675027
  0
VERTEX
  8
0
 10
72.69315484
 20
4.18955290
  0
VERTEX
  8
0
 10
71.25995890
 20
4.69912701
  0
VERTEX
  8
0
 10
69.83600723
 20
5.23501079
  0
VERTEX
  8
0
 10
68.42170347
 20
5.79674245
  0
VERTEX
  8
0
 10
67.01745123
 20
6.38386019
  0
VERTEX
  8
0
 10
65.62365415
 20
6.99590221
  0
VERTEX
  8
0
 10
64.24071587
 20
7.63240670
  0
VERTEX
  8
0
 10
62.86904002
 20
8.29291188
  0
VERTEX
  8
0
 10
61.50903023
 20
8.97695595
  0
VERTEX
  8
0
 10
60.16109012
 20
9.68407709
  0
VERTEX
  8
0
 10
58.82562334
 20
10.41381352
  0
VERTEX
  8
0
 10
57.50303352
 20
11.16570343
  0
VERTEX
  8
0
 10
56.19372428
 20
11.93928503
  0
VERTEX
  8
0
 10
54.89809926
 20
12.73409651
  0
VERTEX
  8
0
 10
53.61656208
 20
13.54967608
  0
VERTEX
  8
0
 10
52.34951639
 20
14.38556194
  0
VERTEX
  8
0
 10
51.09736582
 20
15.24129229
  0
VERTEX
  8
0
 10
49.86051398
 20
16.11640533
  0
VERTEX
  8
0
 10
48.63936453
 20
17.01043926
  0
VERTEX
  8
0
 10
47.43432109
 20
17.92293228
  0
VERTEX
  8
0
 10
46.24578728
 20
18.85342259
  0
VERTEX
  8
0
 10
45.07416675
 20
19.80144840
  0
VERTEX
  8
0
 10
43.91986312
 20
20.76654790
  0
VERTEX
  8
0
 10
42.78328003
 20
21.74825930
  0
VERTEX
  8
0
 10
41.66482111
 20
22.74612079
  0
VERTEX
  8
0
 10
40.56488999
 20
23.75967058
  0
VERTEX
  8
0
 10
39.48389030
 20
24.78844687
  0
VERTEX
  8
0
 10
38.42222568
 20
25.83198785
  0
VERTEX
  8
0
 10
37.38029975
 20
26.88983174
  0
VERTEX
  8
0
 10
36.35851614
 20
27.96151672
  0
VERTEX
  8
0
 10
35.35727850
 20
29.04658101
  0
VERTEX
  8
0
 10
34.37699045
 20
30.14456280
  0
VERTEX
  8
0
 10
33.41805562
 20
31.25500029
  0
VERTEX
  8
0
 10
32.48087765
 20
32.37743169
  0
VERTEX
  8
0
 10
31.56586016
 20
33.51139519
  0
VERTEX
  8
0
 10
30.67340679
 20
34.65642899
  0
VERTEX
  8
0
 10
29.80392118
 20
35.81207130
  0
VERTEX
  8
0
 10
28.95780694
 20
36.97786032
  0
VERTEX
  8
0
 10
28.13546772
 20
38.15333425
  0
VERTEX
  8
0
 10
27.33730715
 20
39.33803129
  0
VERTEX
  8
0
 10
26.56372885
 20
40.53148964
  0
VERTEX
  8
0
 10
25.81513647
 20
41.73324749
  0
VERTEX
  8
0
 10
25.09193362
 20
42.94284306
  0
VERTEX
  8
0
 10
24.39452395
 20
44.15981455
  0
VERTEX
  8
0
 10
23.42353347
 20
45.91997591
  0
VERTEX
  8
0
 10
22.48211610
 20
47.68398073
  0
VERTEX
  8
0
 10
21.56853002
 20
49.45415947
  0
VERTEX
  8
0
 10
20.68103342
 20
51.23284257
  0
VERTEX
  8
0
 10
19.81788451
 20
53.02236050
  0
VERTEX
  8
0
 10
18.97734147
 20
54.82504372
  0
VERTEX
  8
0
 10
18.15766249
 20
56.64322267
  0
VERTEX
  8
0
 10
17.35710577
 20
58.47922783
  0
VERTEX
  8
0
 10
16.57392951
 20
60.33538965
  0
VERTEX
  8
0
 10
15.80639189
 20
62.21403858
  0
VERTEX
  8
0
 10
15.05275111
 20
64.11750508
  0
VERTEX
  8
0
 10
14.31126536
 20
66.04811962
  0
VERTEX
  8
0
 10
13.58019283
 20
68.00821264
  0
VERTEX
  8
0
 10
12.85779173
 20
70.00011461
  0
VERTEX
  8
0
 10
12.14232023
 20
72.02615598
  0
VERTEX
  8
0
 10
11.43203654
 20
74.08866722
  0
VERTEX
  8
0
 10
10.78053148
 20
76.04296089
  0
VERTEX
  8
0
 10
10.13608844
 20
78.05514620
  0
VERTEX
  8
0
 10
9.50044699
 20
80.11906675
  0
VERTEX
  8
0
 10
8.87534674
 20
82.22856612
  0
VERTEX
  8
0
 10
8.26252728
 20
84.37748791
  0
VERTEX
  8
0
 10
7.66372820
 20
86.55967571
  0
VERTEX
  8
0
 10
7.08068911
 20
88.76897311
  0
VERTEX
  8
0
 10
6.51514958
 20
90.99922371
  0
VERTEX
  8
0
 10
5.96884922
 20
93.24427110
  0
VERTEX
  8
0
 10
5.44352762
 20
95.49795886
  0
VERTEX
  8
0
 10
4.94092438
 20
97.75413059
  0
VERTEX
  8
0
 10
4.46277908
 20
100.00662988
  0
VERTEX
  8
0
 10
4.01083133
 20
102.24930033
  0
VERTEX
  8
0
 10
3.58682071
 20
104.47598553
  0
VERTEX
  8
0
 10
3.19248683
 20
106.68052907
  0
VERTEX
  8
0
 10
2.82956927
 20
108.85677453
  0
VERTEX
  8
0
 10
2.50757416
 20
110.97119556
  0
VERTEX
  8
0
 10
2.20498522
 20
113.17623707
  0
VERTEX
  8
0
 10
1.92179095
 20
115.46553841
  0
VERTEX
  8
0
 10
1.65797985
 20
117.83273892
  0
VERTEX
  8
0
 10
1.41354045
 20
120.27147793
  0
VERTEX
  8
0
 10
1.18846123
 20
122.77539479
  0
VERTEX
  8
0
 10
0.98273072
 20
125.33812884
  0
VERTEX
  8
0
 10
0.79633742
 20
127.95331942
  0
VERTEX
  8
0
 10
0.62926983
 20
130.61460586
  0
VERTEX
  8
0
 10
0.48151648
 20
133.31562752
  0
VERTEX
  8
0
 10
0.35306585
 20
136.05002374
  0
VERTEX
  8
0
 10
0.24390647
 20
138.81143384
  0
VERTEX
  8
0
 10
0.15402684
 20
141.59349718
  0
VERTEX
  8
0
 10
0.08341547
 20
144.38985309
  0
VERTEX
  8
0
 10
0.03206087
 20
147.19414092
  0
VERTEX
  8
0
 10
-0.00004846
 20
150.00000000
  0
VERTEX
  8
0
 10
0.03206087
 20
152.80585908
  0
VERTEX
  8
0
 10
0.08341547
 20
155.61014691
  0
VERTEX
  8
0
 10
0.15402684
 20
158.40650282
  0
VERTEX
  8
0
 10
0.24390647
 20
161.18856616
  0
VERTEX
  8
0
 10
0.35306585
 20
163.94997626
  0
VERTEX
  8
0
 10
0.48151648
 20
166.68437248
  0
VERTEX
  8
0
 10
0.62926983
 20
169.38539414
  0
VERTEX
  8
0
 10
0.79633742
 20
172.04668058
  0
VERTEX
  8
0
 10
0.98273072
 20
174.66187116
  0
VERTEX
  8
0
 10
1.18846123
 20
177.22460521
  0
VERTEX
  8
0
 10
1.41354045
 20
179.72852207
  0
VERTEX
  8
0
 10
1.65797985
 20
182.16726108
  0
VERTEX
  8
0
 10
1.92179095
 20
184.53446159
  0
VERTEX
  8
0
 10
2.20498522
 20
186.82376293
  0
VERTEX
  8
0
 10
2.50757416
 20
189.02880444
  0
VERTEX
  8
0
 10
2.82956927
 20
191.14322547
  0
VERTEX
  8
0
 10
3.19248683
 20
193.31947093
  0
VERTEX
  8
0
 10
3.58682071
 20
195.52401447
  0
VERTEX
  8
0
 10
4.01083133
 20
197.75069967
  0
VERTEX
  8
0
 10
4.46277908
 20
199.99337012
  0
VERTEX
  8
0
 10
4.94092438
 20
202.24586941
  0
VERTEX
  8
0
 10
5.44352762
 20
204.50204114
  0
VERTEX
  8
0
 10
5.96884922
 20
206.75572890
  0
VERTEX
  8
0
 10
6.51514958
 20
209.00077629
  0
VERTEX
  8
0
 10
7.08068911
 20
211.23102689
  0
VERTEX
  8
0
 10
7.66372820
 20
213.44032429
  0
VERTEX
  8
0
 10
8.26252728
 20
215.62251209
  0
VERTEX
  8
0
 10
8.87534674
 20
217.77143388
  0
VERTEX
  8
0
 10
9.50044699
 20
219.88093325
  0
VERTEX
  8
0
 10
10.13608844
 20
221.94485380
  0
VERTEX
  8
0
 10
10.78053148
 20
223.95703911
  0
VERTEX
  8
0
 10
11.43203654
 20
225.91133278
  0
VERTEX
  8
0
 10
12.14232023
 20
227.97384402
  0
VERTEX
  8
0
 10
12.85779173
 20
229.99988539
  0
VERTEX
  8
0
 10
13.58019283
 20
231.99178736
  0
VERTEX
  8
0
 10
14.31126536
 20
233.95188038
  0
VERTEX
  8
0
 10
15.05275111
 20
235.88249492
  0
VERTEX
  8
0
 10
15.80639189
 20
237.78596142
  0
VERTEX
  8
0
 10
16.57392951
 20
239.66461035
  0
VERTEX
  8
0
 10
17.35710577
 20
241.52077217
  0
VERTEX
  8
0
 10
18.15766249
 20
243.35677733
  0
VERTEX
  8
0
 10
18.97734147
 20
245.17495628
  0
VERTEX
  8
0
 10
19.81788451
 20
246.97763950
  0
VERTEX
  8
0
 10
20.68103342
 20
248.76715743
  0
VERTEX
  8
0
 10
21.56853002
 20
250.54584053
  0
VERTEX
  8
0
 10
22.48211610
 20
252.31601927
  0
VERTEX
  8
0
 10
23.42353347
 20
254.08002409
  0
VERTEX
  8
0
 10
24.39452395
 20
255.84018545
  0
VERTEX
  8
0
 10
25.09193362
 20
257.05715694
  0
VERTEX
  8
0
 10
25.81513647
 20
258.26675251
  0
VERTEX
  8
0
 10
26.56372885
 20
259.46851036
  0
VERTEX
  8
0
 10
27.33730715
 20
260.66196871
  0
VERTEX
  8
0
 10
28.13546772
 20
261.84666575
  0
VERTEX
  8
0
 10
28.95780694
 20
263.02213968
  0
VERTEX
  8
0
 10
29.80392118
 20
264.18792870
  0
VERTEX
  8
0
 10
30.67340679
 20
265.34357101
  0
VERTEX
  8
0
 10
31.56586016
 20
266.48860481
  0
VERTEX
  8
0
 10
32.48087765
 20
267.62256831
  0
VERTEX
  8
0
 10
33.41805562
 20
268.74499971
  0
VERTEX
  8
0
 10
34.37699045
 20
269.85543720
  0
VERTEX
  8
0
 10
35.35727850
 20
270.95341899
  0
VERTEX
  8
0
 10
36.35851614
 20
272.03848328
  0
VERTEX
  8
0
 10
37.38029975
 20
273.11016826
  0
VERTEX
  8
0
 10
38.42222568
 20
274.16801215
  0
VERTEX
  8
0
 10
39.48389030
 20
275.21155313
  0
VERTEX
  8
0
 10
40.56488999
 20
276.24032942
  0
VERTEX
  8
0
 10
41.66482111
 20
277.25387921
  0
VERTEX
  8
0
 10
42.78328003
 20
278.25174070
  0
VERTEX
  8
0
 10
43.91986312
 20
279.23345210
  0
VERTEX
  8
0
 10
45.07416675
 20
280.19855160
  0
VERTEX
  8
0
 10
46.24578728
 20
281.14657741
  0
VERTEX
  8
0
 10
47.43432109
 20
282.07706772
  0
VERTEX
  8
0
 10
48.63936453
 20
282.98956074
  0
VERTEX
  8
0
 10
49.86051398
 20
283.88359467
  0
VERTEX
  8
0
 10
51.09736582
 20
284.75870771
  0
VERTEX
  8
0
 10
52.34951639
 20
285.61443806
  0
VERTEX
  8
0
 10
53.61656208
 20
286.45032392
  0
VERTEX
  8
0
 10
54.89809926
 20
287.26590349
  0
VERTEX
  8
0
 10
56.19372428
 20
288.06071497
  0
VERTEX
  8
0
 10
57.50303352
 20
288.83429657
  0
VERTEX
  8
0
 10
58.82562334
 20
289.58618648
  0
VERTEX
  8
0
 10
60.16109012
 20
290.31592291
  0
VERTEX
  8
0
 10
61.50903023
 20
291.02304405
  0
VERTEX
  8
0
 10
62.86904002
 20
291.70708812
  0
VERTEX
  8
0
 10
64.24071587
 20
292.36759330
  0
VERTEX
  8
0
 10
65.62365415
 20
293.00409779
  0
VERTEX
  8
0
 10
67.01745123
 20
293.61613981
  0
VERTEX
  8
0
 10
68.42170347
 20
294.20325755
  0
VERTEX
  8
0
 10
69.83600723
 20
294.76498921
  0
VERTEX
  8
0
 10
71.25995890
 20
295.30087299
  0
VERTEX
  8
0
 10
72.69315484
 20
295.81044710
  0
VERTEX
  8
0
 10
74.13519141
 20
296.29324973
  0
VERTEX
  8
0
 10
75.58566499
 20
296.74881908
  0
VERTEX
  8
0
 10
77.04417194
 20
297.17669336
  0
VERTEX
  8
0
 10
78.51030862
 20
297.57641077
  0
VERTEX
  8
0
 10
79.98367142
 20
297.94750950
  0
VERTEX
  8
0
 10
81.46385669
 20
298.28952777
  0
VERTEX
  8
0
 10
82.95046081
 20
298.60200376
  0
VERTEX
  8
0
 10
84.44308014
 20
298.88447568
  0
VERTEX
  8
0
 10
85.94131106
 20
299.13648174
  0
VERTEX
  8
0
 10
87.44474992
 20
299.35756012
  0
VERTEX
  8
0
 10
88.95299309
 20
299.54724904
  0
VERTEX
  8
0
 10
90.46563696
 20
299.70508669
  0
VERTEX
  8
0
 10
91.98227788
 20
299.83061128
  0
VERTEX
  8
0
 10
93.50251222
 20
299.92336100
  0
VERTEX
  8
0
 10
95.02593635
 20
299.98287406
  0
VERTEX
  8
0
 10
96.55214663
 20
300.00868866
  0
VERTEX
  8
0
 10
98.08073945
 20
300.00034299
  0
VERTEX
  8
0
 10
99.61131115
 20
299.95737526
  0
VERTEX
  8
0
 10
101.14345813
 20
299.87932368
  0
VERTEX
  8
0
 10
102.67677673
 20
299.76572643
  0
VERTEX
  8
0
 10
104.21086333
 20
299.61612172
  0
VERTEX
  8
0
 10
105.74612926
 20
299.43583984
  0
VERTEX
  8
0
 10
107.27004913
 20
299.23227103
  0
VERTEX
  8
0
 10
108.78283518
 20
299.00586091
  0
VERTEX
  8
0
 10
110.28469967
 20
298.75705508
  0
VERTEX
  8
0
 10
111.77585485
 20
298.48629914
  0
VERTEX
  8
0
 10
113.25651298
 20
298.19403869
  0
VERTEX
  8
0
 10
114.72688631
 20
297.88071933
  0
VERTEX
  8
0
 10
116.18718709
 20
297.54678668
  0
VERTEX
  8
0
 10
117.63762759
 20
297.19268633
  0
VERTEX
  8
0
 10
119.07842005
 20
296.81886388
  0
VERTEX
  8
0
 10
120.50977673
 20
296.42576494
  0
VERTEX
  8
0
 10
121.93190989
 20
296.01383511
  0
VERTEX
  8
0
 10
123.34503177
 20
295.58351999
  0
VERTEX
  8
0
 10
124.74935464
 20
295.13526519
  0
VERTEX
  8
0
 10
126.14509074
 20
294.66951630
  0
VERTEX
  8
0
 10
127.53245234
 20
294.18671894
  0
VERTEX
  8
0
 10
128.91165168
 20
293.68731870
  0
VERTEX
  8
0
 10
130.28290103
 20
293.17176119
  0
VERTEX
  8
0
 10
131.64641262
 20
292.64049201
  0
VERTEX
  8
0
 10
133.00239873
 20
292.09395676
  0
VERTEX
  8
0
 10
134.35107161
 20
291.53260104
  0
VERTEX
  8
0
 10
135.69264350
 20
290.95687047
  0
VERTEX
  8
0
 10
137.02732666
 20
290.36721063
  0
VERTEX
  8
0
 10
138.35533336
 20
289.76406714
  0
VERTEX
  8
0
 10
140.99216634
 20
288.51911160
  0
VERTEX
  8
0
 10
143.60484050
 20
287.22556867
  0
VERTEX
  8
0
 10
146.19505385
 20
285.88700318
  0
VERTEX
  8
0
 10
148.76450444
 20
284.50697993
  0
VERTEX
  8
0
 10
151.31489030
 20
283.08906377
  0
VERTEX
  8
0
 10
153.84790947
 20
281.63681950
  0
VERTEX
  8
0
 10
156.36525999
 20
280.15381195
  0
VERTEX
  8
0
 10
158.86863988
 20
278.64360595
  0
VERTEX
  8
0
 10
161.35974719
 20
277.10976632
  0
VERTEX
  8
0
 10
163.84027995
 20
275.55585788
  0
VERTEX
  8
0
 10
166.31193620
 20
273.98544544
  0
VERTEX
  8
0
 10
168.77641398
 20
272.40209385
  0
VERTEX
  8
0
 10
173.69062624
 20
269.21083245
  0
VERTEX
  8
0
 10
178.59650102
 20
266.01059226
  0
VERTEX
  8
0
 10
183.50762262
 20
262.82989186
  0
VERTEX
  8
0
 10
185.96939606
 20
261.25578113
  0
VERTEX
  8
0
 10
188.43757531
 20
259.69724983
  0
VERTEX
  8
0
 10
189.97503639
 20
258.71673682
  0
VERTEX
  8
0
 10
191.51103189
 20
257.70875871
  0
VERTEX
  8
0
 10
194.58989939
 20
255.63367749
  0
VERTEX
  8
0
 10
197.69672431
 20
253.51854694
  0
VERTEX
  8
0
 10
199.26766659
 20
252.46050714
  0
VERTEX
  8
0
 10
200.85405316
 20
251.40990778
  0
VERTEX
  8
0
 10
202.45870233
 20
250.37256646
  0
VERTEX
  8
0
 10
204.08443241
 20
249.35430077
  0
VERTEX
  8
0
 10
205.73406173
 20
248.36092830
  0
VERTEX
  8
0
 10
207.41040858
 20
247.39826665
  0
VERTEX
  8
0
 10
209.11629129
 20
246.47213340
  0
VERTEX
  8
0
 10
210.85452816
 20
245.58834616
  0
VERTEX
  8
0
 10
211.73666013
 20
245.16415029
  0
VERTEX
  8
0
 10
212.62793751
 20
244.75272252
  0
VERTEX
  8
0
 10
213.52871258
 20
244.35479004
  0
VERTEX
  8
0
 10
214.43933765
 20
243.97108006
  0
VERTEX
  8
0
 10
215.55789295
 20
243.52738702
  0
VERTEX
  8
0
 10
216.66780419
 20
243.11913486
  0
VERTEX
  8
0
 10
217.76966852
 20
242.74572781
  0
VERTEX
  8
0
 10
218.86408308
 20
242.40657006
  0
VERTEX
  8
0
 10
219.95164502
 20
242.10106583
  0
VERTEX
  8
0
 10
221.03295147
 20
241.82861932
  0
VERTEX
  8
0
 10
222.10859959
 20
241.58863474
  0
VERTEX
  8
0
 10
223.17918651
 20
241.38051630
  0
VERTEX
  8
0
 10
224.24530939
 20
241.20366819
  0
VERTEX
  8
0
 10
225.30756536
 20
241.05749464
  0
VERTEX
  8
0
 10
226.36655157
 20
240.94139985
  0
VERTEX
  8
0
 10
227.42286516
 20
240.85478802
  0
VERTEX
  8
0
 10
228.47710328
 20
240.79706336
  0
VERTEX
  8
0
 10
229.52986308
 20
240.76763008
  0
VERTEX
  8
0
 10
230.58174169
 20
240.76589239
  0
VERTEX
  8
0
 10
231.63333626
 20
240.79125450
  0
VERTEX
  8
0
 10
232.68524394
 20
240.84312060
  0
VERTEX
  8
0
 10
233.73806186
 20
240.92089491
  0
VERTEX
  8
0
 10
234.79238718
 20
241.02398164
  0
VERTEX
  8
0
 10
235.84881704
 20
241.15178499
  0
VERTEX
  8
0
 10
236.90794858
 20
241.30370917
  0
VERTEX
  8
0
 10
237.97037894
 20
241.47915839
  0
VERTEX
  8
0
 10
239.03670527
 20
241.67753685
  0
VERTEX
  8
0
 10
240.10752472
 20
241.89824876
  0
VERTEX
  8
0
 10
241.18343443
 20
242.14069833
  0
VERTEX
  8
0
 10
242.26503154
 20
242.40428977
  0
VERTEX
  8
0
 10
243.35291319
 20
242.68842728
  0
VERTEX
  8
0
 10
244.44767654
 20
242.99251508
  0
VERTEX
  8
0
 10
245.54991872
 20
243.31595736
  0
VERTEX
  8
0
 10
246.66023688
 20
243.65815833
  0
VERTEX
  8
0
 10
248.90748971
 20
244.39645320
  0
VERTEX
  8
0
 10
252.79959381
 20
245.69710219
  0
VERTEX
  8
0
 10
256.69327930
 20
246.95255283
  0
VERTEX
  8
0
 10
260.58591447
 20
248.17423788
  0
VERTEX
  8
0
 10
264.47486761
 20
249.37359013
  0
VERTEX
  8
0
 10
272.23120100
 20
251.75102738
  0
VERTEX
  8
0
 10
276.09331785
 20
252.95197794
  0
VERTEX
  8
0
 10
279.94122586
 20
254.17632683
  0
VERTEX
  8
0
 10
281.08710961
 20
254.53452087
  0
VERTEX
  8
0
 10
282.22903698
 20
254.86806861
  0
VERTEX
  8
0
 10
283.36691140
 20
255.17725861
  0
VERTEX
  8
0
 10
284.50063627
 20
255.46237944
  0
VERTEX
  8
0
 10
285.63011503
 20
255.72371965
  0
VERTEX
  8
0
 10
286.75525106
 20
255.96156783
  0
VERTEX
  8
0
 10
287.87594780
 20
256.17621253
  0
VERTEX
  8
0
 10
288.99210866
 20
256.36794233
  0
VERTEX
  8
0
 10
290.10363704
 20
256.53704578
  0
VERTEX
  8
0
 10
291.21043636
 20
256.68381145
  0
VERTEX
  8
0
 10
292.31241004
 20
256.80852791
  0
VERTEX
  8
0
 10
293.40946149
 20
256.91148373
  0
VERTEX
  8
0
 10
294.50149412
 20
256.99296746
  0
VERTEX
  8
0
 10
295.58841136
 20
257.05326769
  0
VERTEX
  8
0
 10
296.67011660
 20
257.09267296
  0
VERTEX
  8
0
 10
297.74651327
 20
257.11147185
  0
VERTEX
  8
0
 10
298.81750477
 20
257.10995293
  0
VERTEX
  8
0
 10
299.88299453
 20
257.08840475
  0
VERTEX
  8
0
 10
300.94288596
 20
257.04711590
  0
VERTEX
  8
0
 10
301.99708247
 20
256.98637492
  0
VERTEX
  8
0
 10
303.04548747
 20
256.90647039
  0
VERTEX
  8
0
 10
304.08800438
 20
256.80769088
  0
VERTEX
  8
0
 10
305.12453661
 20
256.69032494
  0
VERTEX
  8
0
 10
306.15498758
 20
256.55466115
  0
VERTEX
  8
0
 10
307.17926069
 20
256.40098807
  0
VERTEX
  8
0
 10
308.19725937
 20
256.22959427
  0
VERTEX
  8
0
 10
309.20888703
 20
256.04076831
  0
VERTEX
  8
0
 10
310.21404708
 20
255.83479876
  0
VERTEX
  8
0
 10
311.21264293
 20
255.61197418
  0
VERTEX
  8
0
 10
312.20457801
 20
255.37258315
  0
VERTEX
  8
0
 10
313.18975571
 20
255.11691422
  0
VERTEX
  8
0
 10
314.16807946
 20
254.84525596
  0
VERTEX
  8
0
 10
315.13945268
 20
254.55789694
  0
VERTEX
  8
0
 10
316.10377876
 20
254.25512573
  0
VERTEX
  8
0
 10
317.06096114
 20
253.93723089
  0
VERTEX
  8
0
 10
318.01090321
 20
253.60450098
  0
VERTEX
  8
0
 10
318.95350840
 20
253.25722457
  0
VERTEX
  8
0
 10
319.88868012
 20
252.89569024
  0
VERTEX
  8
0
 10
320.81632179
 20
252.52018653
  0
VERTEX
  8
0
 10
321.73633681
 20
252.13100203
  0
VERTEX
  8
0
 10
322.64862860
 20
251.72842529
  0
VERTEX
  8
0
 10
323.55310057
 20
251.31274488
  0
VERTEX
  8
0
 10
325.33819874
 20
250.44322733
  0
VERTEX
  8
0
 10
327.09085860
 20
249.52475789
  0
VERTEX
  8
0
 10
328.81030748
 20
248.55964510
  0
VERTEX
  8
0
 10
330.49577269
 20
247.55019747
  0
VERTEX
  8
0
 10
332.14648153
 20
246.49872355
  0
VERTEX
  8
0
 10
333.76166132
 20
245.40753185
  0
VERTEX
  8
0
 10
335.34053937
 20
244.27893090
  0
VERTEX
  8
0
 10
336.88234298
 20
243.11522924
  0
VERTEX
  8
0
 10
338.38629948
 20
241.91873538
  0
VERTEX
  8
0
 10
339.85163616
 20
240.69175786
  0
VERTEX
  8
0
 10
341.27758035
 20
239.43660520
  0
VERTEX
  8
0
 10
342.60352166
 20
238.20420530
  0
VERTEX
  8
0
 10
343.87999500
 20
236.94212692
  0
VERTEX
  8
0
 10
345.10923709
 20
235.64535987
  0
VERTEX
  8
0
 10
345.70684539
 20
234.98240241
  0
VERTEX
  8
0
 10
346.29348464
 20
234.30889396
  0
VERTEX
  8
0
 10
346.86943445
 20
233.62420825
  0
VERTEX
  8
0
 10
347.43497440
 20
232.92771900
  0
VERTEX
  8
0
 10
347.99038408
 20
232.21879994
  0
VERTEX
  8
0
 10
348.53594308
 20
231.49682479
  0
VERTEX
  8
0
 10
349.07193100
 20
230.76116728
  0
VERTEX
  8
0
 10
349.59862742
 20
230.01120114
  0
VERTEX
  8
0
 10
350.11631193
 20
229.24630010
  0
VERTEX
  8
0
 10
350.62526413
 20
228.46583787
  0
VERTEX
  8
0
 10
351.12576361
 20
227.66918818
  0
VERTEX
  8
0
 10
351.61808995
 20
226.85572477
  0
VERTEX
  8
0
 10
352.10252275
 20
226.02482135
  0
VERTEX
  8
0
 10
352.57934160
 20
225.17585165
  0
VERTEX
  8
0
 10
353.04882609
 20
224.30818940
  0
VERTEX
  8
0
 10
353.51125581
 20
223.42120833
  0
VERTEX
  8
0
 10
354.41606930
 20
221.58678461
  0
VERTEX
  8
0
 10
355.29601880
 20
219.66757030
  0
VERTEX
  8
0
 10
356.15334104
 20
217.65855520
  0
VERTEX
  8
0
 10
356.99027274
 20
215.55472913
  0
VERTEX
  8
0
 10
357.80905064
 20
213.35108189
  0
VERTEX
  8
0
 10
358.21576511
 20
212.19597564
  0
VERTEX
  8
0
 10
358.60044815
 20
211.05628891
  0
VERTEX
  8
0
 10
358.96402787
 20
209.93070085
  0
VERTEX
  8
0
 10
359.30743238
 20
208.81789066
  0
VERTEX
  8
0
 10
359.93742822
 20
206.62532052
  0
VERTEX
  8
0
 10
360.49786059
 20
204.46801186
  0
VERTEX
  8
0
 10
360.99615437
 20
202.33539804
  0
VERTEX
  8
0
 10
361.43973447
 20
200.21691243
  0
VERTEX
  8
0
 10
361.83602578
 20
198.10198840
  0
VERTEX
  8
0
 10
362.19245321
 20
195.98005932
  0
VERTEX
  8
0
 10
362.51644164
 20
193.84055855
  0
VERTEX
  8
0
 10
362.81541600
 20
191.67291946
  0
VERTEX
  8
0
 10
363.09680116
 20
189.46657542
  0
VERTEX
  8
0
 10
363.36802203
 20
187.21095979
  0
VERTEX
  8
0
 10
363.90967050
 20
182.50964726
  0
VERTEX
  8
0
 10
364.49976061
 20
177.48444880
  0
VERTEX
  8
0
 10
364.51052994
 20
177.47001190
  0
VERTEX
  8
0
 10
365.63784071
 20
173.23337475
  0
VERTEX
  8
0
 10
367.19633927
 20
172.92070619
  0
VERTEX
  8
0
 10
368.75723970
 20
172.62760913
  0
VERTEX
  8
0
 10
370.32038827
 20
172.35408447
  0
VERTEX
  8
0
 10
371.88563124
 20
172.10013310
  0
VERTEX
  8
0
 10
373.45281491
 20
171.86575592
  0
VERTEX
  8
0
 10
375.02178553
 20
171.65095383
  0
VERTEX
  8
0
 10
376.59238938
 20
171.45572773
  0
VERTEX
  8
0
 10
378.16447275
 20
171.28007851
  0
VERTEX
  8
0
 10
379.73788190
 20
171.12400707
  0
VERTEX
  8
0
 10
381.31246312
 20
170.98751430
  0
VERTEX
  8
0
 10
382.88806266
 20
170.87060111
  0
VERTEX
  8
0
 10
384.46452681
 20
170.77326839
  0
VERTEX
  8
0
 10
386.04170185
 20
170.69551703
  0
VERTEX
  8
0
 10
387.61943405
 20
170.63734794
  0
VERTEX
  8
0
 10
389.19756968
 20
170.59876201
  0
VERTEX
  8
0
 10
390.77595501
 20
170.57976014
  0
VERTEX
  8
0
 10
392.35443633
 20
170.58034322
  0
VERTEX
  8
0
 10
393.93285991
 20
170.60051216
  0
VERTEX
  8
0
 10
395.51107201
 20
170.64026784
  0
VERTEX
  8
0
 10
397.08891893
 20
170.69961117
  0
VERTEX
  8
0
 10
398.66624692
 20
170.77854304
  0
VERTEX
  8
0
 10
400.24290227
 20
170.87706435
  0
VERTEX
  8
0
 10
401.81873125
 20
170.99517600
  0
VERTEX
  8
0
 10
403.39358014
 20
171.13287887
  0
VERTEX
  8
0
 10
404.96729521
 20
171.29017388
  0
VERTEX
  8
0
 10
406.53972273
 20
171.46706192
  0
VERTEX
  8
0
 10
408.11070898
 20
171.66354388
  0
VERTEX
  8
0
 10
409.68010024
 20
171.87962066
  0
VERTEX
  8
0
 10
411.24774277
 20
172.11529316
  0
VERTEX
  8
0
 10
412.81348286
 20
172.37056227
  0
VERTEX
  8
0
 10
414.37716677
 20
172.64542889
  0
VERTEX
  8
0
 10
415.93864079
 20
172.93989393
  0
VERTEX
  8
0
 10
416.91786059
 20
174.06523121
  0
VERTEX
  8
0
 10
418.40848302
 20
175.19930566
  0
VERTEX
  8
0
 10
419.92300578
 20
176.30709603
  0
VERTEX
  8
0
 10
421.17975490
 20
177.17965887
  0
VERTEX
  8
0
 10
421.62344123
 20
177.46243516
  0
VERTEX
  8
0
 10
421.89705641
 20
177.60805078
  0
VERTEX
  8
0
 10
490.02746930
 20
184.33724910
  0
VERTEX
  8
0
 10
490.22425242
 20
184.07184548
  0
VERTEX
  8
0
 10
490.40162603
 20
183.73893428
  0
VERTEX
  8
0
 10
490.56153883
 20
183.34167371
  0
VERTEX
  8
0
 10
490.70593957
 20
182.88322199
  0
VERTEX
  8
0
 10
490.83677695
 20
182.36673731
  0
VERTEX
  8
0
 10
490.95599972
 20
181.79537789
  0
VERTEX
  8
0
 10
491.06555659
 20
181.17230194
  0
VERTEX
  8
0
 10
491.16739629
 20
180.50066767
  0
VERTEX
  8
0
 10
491.35571907
 20
179.02435701
  0
VERTEX
  8
0
 10
491.53655788
 20
177.39171156
  0
VERTEX
  8
0
 10
491.72550251
 20
175.62799702
  0
VERTEX
  8
0
 10
491.93814277
 20
173.75847904
  0
VERTEX
  8
0
 10
492.19006846
 20
171.80842332
  0
VERTEX
  8
0
 10
492.49686937
 20
169.80309551
  0
VERTEX
  8
0
 10
492.67571986
 20
168.78760011
  0
VERTEX
  8
0
 10
492.87413532
 20
167.76776131
  0
VERTEX
  8
0
 10
493.09406450
 20
166.74673732
  0
VERTEX
  8
0
 10
493.33745611
 20
165.72768637
  0
VERTEX
  8
0
 10
493.60625888
 20
164.71376665
  0
VERTEX
  8
0
 10
493.90242153
 20
163.70813638
  0
VERTEX
  8
0
 10
494.22789280
 20
162.71395376
  0
VERTEX
  8
0
 10
494.58462140
 20
161.73437700
  0
VERTEX
  8
0
 10
494.97455606
 20
160.77256432
  0
VERTEX
  8
0
 10
495.39964551
 20
159.83167392
  0
VERTEX
  8
0
 10
495.86183847
 20
158.91486402
  0
VERTEX
  8
0
 10
496.36308367
 20
158.02529281
  0
VERTEX
  8
0
 10
496.76962173
 20
157.63671649
  0
VERTEX
  8
0
 10
497.15454088
 20
157.22747952
  0
VERTEX
  8
0
 10
497.51735294
 20
156.79878048
  0
VERTEX
  8
0
 10
497.85756975
 20
156.35181796
  0
VERTEX
  8
0
 10
498.17470314
 20
155.88779053
  0
VERTEX
  8
0
 10
498.46826494
 20
155.40789679
  0
VERTEX
  8
0
 10
498.73776698
 20
154.91333530
  0
VERTEX
  8
0
 10
498.98272110
 20
154.40530467
  0
VERTEX
  8
0
 10
499.20263912
 20
153.88500346
  0
VERTEX
  8
0
 10
499.39703287
 20
153.35363027
  0
VERTEX
  8
0
 10
499.56541420
 20
152.81238367
  0
VERTEX
  8
0
 10
499.70729492
 20
152.26246225
  0
VERTEX
  8
0
 10
499.82218688
 20
151.70506459
  0
VERTEX
  8
0
 10
499.90960190
 20
151.14138927
  0
VERTEX
  8
0
 10
499.96905182
 20
150.57263488
  0
VERTEX
  8
0
 10
500.00004846
 20
150.00000000
  0
SEQEND
  0
POLYLINE
  8
Nível Padrão
 66
   1
 39
0.000000
 70
    1
  0
VERTEX
  8
0
 10
41.93452505
 20
53.77196317
 42
0.02517446
  0
VERTEX
  8
0
 10
45.14893779
 20
48.71923631
 42
0.02376865
  0
VERTEX
  8
0
 10
49.02524194
 20
43.77778923
 42
0.02772572
  0
VERTEX
  8
0
 10
54.47281292
 20
38.13717915
 42
0.05833931
  0
VERTEX
  8
0
 10
68.19513981
 20
28.08906723
 42
0.03069453
  0
VERTEX
  8
0
 10
75.74219208
 20
24.41021753
 42
0.03018622
  0
VERTEX
  8
0
 10
82.86529078
 20
21.96200700
 42
0.03088304
  0
VERTEX
  8
0
 10
89.66962833
 20
20.52570604
 42
0.03401547
  0
VERTEX
  8
0
 10
96.56941283
 20
19.99097119
 42
0.03225384
  0
VERTEX
  8
0
 10
102.73351689
 20
20.34479545
 42
0.03238684
  0
VERTEX
  8
0
 10
112.80759821
 20
22.21520467
 42
0.02331210
  0
VERTEX
  8
0
 10
120.78345501
 20
24.64067318
 42
0.01559585
  0
VERTEX
  8
0
 10
126.82243707
 20
26.99916937
 42
0.01300661
  0
VERTEX
  8
0
 10
132.68848003
 20
29.68243114
 42
0.01019263
  0
VERTEX
  8
0
 10
138.17258605
 20
32.50081317
 42
0.00898276
  0
VERTEX
  8
0
 10
144.23213522
 20
35.90862466
 42
0.00659230
  0
VERTEX
  8
0
 10
150.35428851
 20
39.59911043
 42
0.00304791
  0
VERTEX
  8
0
 10
154.29735313
 20
42.07385760
  0
VERTEX
  8
0
 10
160.36253441
 20
45.97705588
  0
VERTEX
  8
0
 10
167.67423557
 20
50.74363459
  0
VERTEX
  8
0
 10
167.69261136
 20
50.75559963
 42
-0.00027410
  0
VERTEX
  8
0
 10
171.39310668
 20
53.15646127
 42
-0.00325459
  0
VERTEX
  8
0
 10
178.05793371
 20
57.40184033
  0
VERTEX
  8
0
 10
180.47466577
 20
58.97140033
  0
VERTEX
  8
0
 10
183.37910173
 20
60.92891895
  0
VERTEX
  8
0
 10
187.23671595
 20
63.55125241
 42
-0.00312569
  0
VERTEX
  8
0
 10
187.44438688
 20
63.69053306
  0
VERTEX
  8
0
 10
190.61786459
 20
65.79027738
 42
-0.00694708
  0
VERTEX
  8
0
 10
193.56150494
 20
67.65321558
 42
-0.01611721
  0
VERTEX
  8
0
 10
199.56058105
 20
71.09937931
 42
-0.02115044
  0
VERTEX
  8
0
 10
205.93861861
 20
74.15202638
 42
-0.01851308
  0
VERTEX
  8
0
 10
210.65606908
 20
75.96508219
 42
-0.02930773
  0
VERTEX
  8
0
 10
217.70571701
 20
77.92323311
 42
-0.06113247
  0
VERTEX
  8
0
 10
232.10703858
 20
79.20377146
 42
-0.02540221
  0
VERTEX
  8
0
 10
238.58778941
 20
78.65993679
 42
-0.02005726
  0
VERTEX
  8
0
 10
244.39201320
 20
77.63774655
 42
-0.01966274
  0
VERTEX
  8
0
 10
251.24402488
 20
75.85607045
 42
-0.00942341
  0
VERTEX
  8
0
 10
255.36491393
 20
74.53241494
 42
0.00526121
  0
VERTEX
  8
0
 10
262.69361561
 20
72.12616563
  0
VERTEX
  8
0
 10
268.44332518
 20
70.33022292
 42
-0.00057871
  0
VERTEX
  8
0
 10
280.04762246
 20
66.76566166
  0
VERTEX
  8
0
 10
280.19432121
 20
66.71988876
  0
VERTEX
  8
0
 10
285.97167603
 20
64.89285435
 42
0.03185016
  0
VERTEX
  8
0
 10
291.18276935
 20
63.55113043
 42
0.04209635
  0
VERTEX
  8
0
 10
297.51926162
 20
62.89312367
 42
0.05554883
  0
VERTEX
  8
0
 10
305.74850121
 20
63.66322391
 42
0.03651533
  0
VERTEX
  8
0
 10
311.44299158
 20
65.28749208
 42
0.04003994
  0
VERTEX
  8
0
 10
318.09660676
 20
68.35453289
 42
0.03168286
  0
VERTEX
  8
0
 10
323.60496564
 20
71.91741835
 42
0.02805786
  0
VERTEX
  8
0
 10
328.38587120
 20
75.87632738
 42
0.02343380
  0
VERTEX
  8
0
 10
330.72390517
 20
78.26536540
 42
0.04052056
  0
VERTEX
  8
0
 10
333.88108379
 20
82.47434427
 42
0.01949744
  0
VERTEX
  8
0
 10
335.42132147
 20
85.14076673
 42
0.01574192
  0
VERTEX
  8
0
 10
336.81893493
 20
88.00587747
 42
0.01321175
  0
VERTEX
  8
0
 10
338.17403544
 20
91.24009533
 42
0.01711211
  0
VERTEX
  8
0
 10
339.92968462
 20
96.21096074
 42
0.02732800
  0
VERTEX
  8
0
 10
341.81378573
 20
103.63613627
 42
0.01092054
  0
VERTEX
  8
0
 10
342.51119691
 20
107.61364436
 42
0.00585355
  0
VERTEX
  8
0
 10
342.97584844
 20
110.85624538
  0
VERTEX
  8
0
 10
343.50919871
 20
115.16272632
  0
VERTEX
  8
0
 10
343.92120532
 20
118.73879444
  0
VERTEX
  8
0
 10
343.72087502
 20
118.73879444
  0
VERTEX
  8
0
 10
337.00954788
 20
117.00000000
 42
-0.41421356
  0
VERTEX
  8
0
 10
327.00954788
 20
127.00000000
  0
VERTEX
  8
0
 10
327.00954788
 20
173.00000000
 42
-0.41421356
  0
VERTEX
  8
0
 10
337.00954788
 20
183.00000000
  0
VERTEX
  8
0
 10
343.72080967
 20
181.84080371
  0
VERTEX
  8
0
 10
343.85432379
 20
181.84080371
  0
VERTEX
  8
0
 10
343.50915747
 20
184.83760667
  0
VERTEX
  8
0
 10
342.97584844
 20
189.14375462
 42
0.01025338
  0
VERTEX
  8
0
 10
342.18242846
 20
194.39077956
 42
0.01468646
  0
VERTEX
  8
0
 10
341.22870599
 20
199.06368437
 42
0.02773172
  0
VERTEX
  8
0
 10
339.03247683
 20
206.46159140
 42
0.01548263
  0
VERTEX
  8
0
 10
337.30968033
 20
210.87709955
 42
0.01431260
  0
VERTEX
  8
0
 10
335.96639717
 20
213.79592549
 42
0.01771533
  0
VERTEX
  8
0
 10
334.50151532
 20
216.50897895
 42
0.02412356
  0
VERTEX
  8
0
 10
332.66232821
 20
219.32368706
 42
0.03903036
  0
VERTEX
  8
0
 10
329.35843395
 20
223.18372448
 42
0.01457957
  0
VERTEX
  8
0
 10
327.69844861
 20
224.74987514
 42
0.03659794
  0
VERTEX
  8
0
 10
321.32690915
 20
229.67615994
 42
0.02658110
  0
VERTEX
  8
0
 10
316.75137430
 20
232.37078638
 42
0.02764588
  0
VERTEX
  8
0
 10
312.16795210
 20
234.44011482
 42
0.03133132
  0
VERTEX
  8
0
 10
307.23505861
 20
235.99932378
 42
0.03930756
  0
VERTEX
  8
0
 10
301.35267400
 20
236.97810841
 42
0.06108404
  0
VERTEX
  8
0
 10
292.28210468
 20
236.64000883
 42
0.03337458
  0
VERTEX
  8
0
 10
286.96002620
 20
235.41622977
 42
0.00507111
  0
VERTEX
  8
0
 10
286.00536434
 20
235.11783202
  0
VERTEX
  8
0
 10
282.15745633
 20
233.89348313
  0
VERTEX
  8
0
 10
282.01211573
 20
233.84784667
  0
VERTEX
  8
0
 10
276.21443455
 20
232.05162246
  0
VERTEX
  8
0
 10
276.15631192
 20
232.03371185
  0
VERTEX
  8
0
 10
268.44287290
 20
229.66963581
  0
VERTEX
  8
0
 10
262.69361561
 20
227.87383437
 42
0.00543669
  0
VERTEX
  8
0
 10
254.96150089
 20
225.33049995
 42
-0.01354427
  0
VERTEX
  8
0
 10
249.28904099
 20
223.57769118
 42
-0.01547433
  0
VERTEX
  8
0
 10
244.07538315
 20
222.29460841
 42
-0.02385673
  0
VERTEX
  8
0
 10
237.27203340
 20
221.17637514
 42
-0.03238963
  0
VERTEX
  8
0
 10
229.16251283
 20
220.77037224
 42
-0.06364118
  0
VERTEX
  8
0
 10
214.26147688
 20
222.92266440
 42
-0.02702955
  0
VERTEX
  8
0
 10
207.67481343
 20
225.13446507
 42
-0.01673627
  0
VERTEX
  8
0
 10
202.93456119
 20
227.20328869
 42
-0.01470852
  0
VERTEX
  8
0
 10
198.27135366
 20
229.59730554
 42
-0.01145416
  0
VERTEX
  8
0
 10
194.01075222
 20
232.07182509
 42
-0.00791503
  0
VERTEX
  8
0
 10
190.61786459
 20
234.20972262
  0
VERTEX
  8
0
 10
187.44438688
 20
236.30946694
 42
-0.00312569
  0
VERTEX
  8
0
 10
187.23671595
 20
236.44874759
  0
VERTEX
  8
0
 10
183.37910173
 20
239.07108105
  0
VERTEX
  8
0
 10
180.47466577
 20
241.02859967
  0
VERTEX
  8
0
 10
178.02571248
 20
242.61908592
  0
VERTEX
  8
0
 10
174.03884122
 20
245.14342074
  0
VERTEX
  8
0
 10
173.88110127
 20
245.24433323
  0
VERTEX
  8
0
 10
167.73978755
 20
249.21381362
  0
VERTEX
  8
0
 10
167.67423557
 20
249.25636541
  0
VERTEX
  8
0
 10
160.35337860
 20
254.02891288
  0
VERTEX
  8
0
 10
155.49957356
 20
257.16004706
 42
0.00577743
  0
VERTEX
  8
0
 10
147.96648075
 20
261.86619396
 42
0.00680967
  0
VERTEX
  8
0
 10
142.17466103
 20
265.28060381
 42
0.00942263
  0
VERTEX
  8
0
 10
136.10622612
 20
268.59446415
 42
0.01174541
  0
VERTEX
  8
0
 10
130.11572931
 20
271.53994293
 42
0.01396627
  0
VERTEX
  8
0
 10
124.16786533
 20
274.09108345
 42
0.01680674
  0
VERTEX
  8
0
 10
117.96452079
 20
276.30935708
 42
0.02120923
  0
VERTEX
  8
0
 10
110.95688332
 20
278.22913100
 42
0.02980143
  0
VERTEX
  8
0
 10
101.79106280
 20
279.76121728
 42
0.03991919
  0
VERTEX
  8
0
 10
94.15848623
 20
279.92990419
 42
0.02759676
  0
VERTEX
  8
0
 10
88.51074229
 20
279.29106737
 42
0.02937010
  0
VERTEX
  8
0
 10
82.07827962
 20
277.81351661
 42
0.02976745
  0
VERTEX
  8
0
 10
75.12874689
 20
275.33170800
 42
0.03264111
  0
VERTEX
  8
0
 10
67.19374692
 20
271.33230322
 42
0.03810977
  0
VERTEX
  8
0
 10
58.06952060
 20
264.99085679
 42
0.04239304
  0
VERTEX
  8
0
 10
49.25677651
 20
256.49030661
 42
0.02885938
  0
VERTEX
  8
0
 10
44.59515217
 20
250.48651480
 42
0.02409106
  0
VERTEX
  8
0
 10
41.59102917
 20
245.61374179
 42
0.01782843
  0
VERTEX
  8
0
 10
37.48173761
 20
237.54275754
 42
0.01377615
  0
VERTEX
  8
0
 10
34.26655258
 20
230.08519283
 42
0.00954593
  0
VERTEX
  8
0
 10
31.62003938
 20
223.06932700
 42
0.00378633
  0
VERTEX
  8
0
 10
30.40159570
 20
219.57362753
  0
VERTEX
  8
0
 10
29.33205788
 20
216.31645478
 42
0.01126302
  0
VERTEX
  8
0
 10
26.88320119
 20
207.89448183
 42
0.01709776
  0
VERTEX
  8
0
 10
23.58284296
 20
193.62731348
 42
0.00907092
  0
VERTEX
  8
0
 10
22.50650068
 20
187.52613345
 42
0.01047279
  0
VERTEX
  8
0
 10
21.72085472
 20
181.64009882
 42
0.00860696
  0
VERTEX
  8
0
 10
21.00822394
 20
174.21418031
 42
0.00858127
  0
VERTEX
  8
0
 10
20.36520454
 20
163.78664532
 42
0.00913803
  0
VERTEX
  8
0
 10
20.00060238
 20
150.00157357
 42
0.01031458
  0
VERTEX
  8
0
 10
20.43854868
 20
134.67752798
 42
0.00870081
  0
VERTEX
  8
0
 10
21.11753371
 20
124.45194341
 42
0.00877669
  0
VERTEX
  8
0
 10
21.85973907
 20
117.16889538
 42
0.00757611
  0
VERTEX
  8
0
 10
22.44139455
 20
112.89667351
 42
0.00922107
  0
VERTEX
  8
0
 10
23.45916967
 20
107.01777447
 42
0.01360271
  0
VERTEX
  8
0
 10
25.91141237
 20
95.87561259
 42
0.01304797
  0
VERTEX
  8
0
 10
28.77290810
 20
85.48477007
 42
0.00644777
  0
VERTEX
  8
0
 10
30.05627961
 20
81.45155573
  0
VERTEX
  8
0
 10
31.04859202
 20
78.54964791
 42
0.00976257
  0
VERTEX
  8
0
 10
33.86985396
 20
70.91409116
 42
0.01180778
  0
VERTEX
  8
0
 10
36.70453671
 20
64.15930226
 42
0.02286004
  0
VERTEX
  8
0
 10
41.93452505
 20
53.77196317
  0
SEQEND
  0
POLYLINE
  8
Nível Padrão
 66
   1
 39
0.000000
 70
    1
  0
VERTEX
  8
0
 10
421.76230886
 20
160.29364285
  0
VERTEX
  8
0
 10
421.90134788
 20
159.94387700
  0
VERTEX
  8
0
 10
422.05610351
 20
159.60253710
  0
VERTEX
  8
0
 10
422.22614317
 20
159.26987094
  0
VERTEX
  8
0
 10
422.41103429
 20
158.94612626
  0
VERTEX
  8
0
 10
422.61034428
 20
158.63155083
  0
VERTEX
  8
0
 10
422.82364057
 20
158.32639240
  0
VERTEX
  8
0
 10
423.05049059
 20
158.03089874
  0
VERTEX
  8
0
 10
423.29046175
 20
157.74531762
  0
VERTEX
  8
0
 10
423.54312148
 20
157.46989677
  0
VERTEX
  8
0
 10
423.80803721
 20
157.20488399
  0
VERTEX
  8
0
 10
424.37290634
 20
156.70707362
  0
VERTEX
  8
0
 10
424.98160852
 20
156.25386860
  0
VERTEX
  8
0
 10
425.63068313
 20
155.84725103
  0
VERTEX
  8
0
 10
426.31666958
 20
155.48920297
  0
VERTEX
  8
0
 10
427.03610723
 20
155.18170655
  0
VERTEX
  8
0
 10
427.78553549
 20
154.92674383
  0
VERTEX
  8
0
 10
428.56149372
 20
154.72629691
  0
VERTEX
  8
0
 10
429.36052133
 20
154.58234789
  0
VERTEX
  8
0
 10
430.17915769
 20
154.49687885
  0
VERTEX
  8
0
 10
431.01394220
 20
154.47187189
  0
VERTEX
  8
0
 10
431.86141423
 20
154.50930909
  0
VERTEX
  8
0
 10
474.74400499
 20
157.99559032
  0
VERTEX
  8
0
 10
475.58725627
 20
158.09560603
  0
VERTEX
  8
0
 10
476.40958098
 20
158.25533314
  0
VERTEX
  8
0
 10
477.20782215
 20
158.47225154
  0
VERTEX
  8
0
 10
477.97882284
 20
158.74384118
  0
VERTEX
  8
0
 10
478.71942608
 20
159.06758195
  0
VERTEX
  8
0
 10
479.42647492
 20
159.44095377
  0
VERTEX
  8
0
 10
480.09681241
 20
159.86143654
  0
VERTEX
  8
0
 10
480.72728159
 20
160.32651018
  0
VERTEX
  8
0
 10
481.31472551
 20
160.83365460
  0
VERTEX
  8
0
 10
481.85598721
 20
161.38034971
  0
VERTEX
  8
0
 10
482.34790975
 20
161.96407543
  0
VERTEX
  8
0
 10
482.57438228
 20
162.26903724
  0
VERTEX
  8
0
 10
482.78733616
 20
162.58231167
  0
VERTEX
  8
0
 10
482.98637677
 20
162.90358370
  0
VERTEX
  8
0
 10
483.17110949
 20
163.23253834
  0
VERTEX
  8
0
 10
483.34113970
 20
163.56886055
  0
VERTEX
  8
0
 10
483.49607279
 20
163.91223534
  0
VERTEX
  8
0
 10
483.63551412
 20
164.26234770
  0
VERTEX
  8
0
 10
483.75906909
 20
164.61888259
  0
VERTEX
  8
0
 10
483.86634308
 20
164.98152504
  0
VERTEX
  8
0
 10
483.95694146
 20
165.34996002
  0
VERTEX
  8
0
 10
483.81790244
 20
165.69972587
  0
VERTEX
  8
0
 10
483.66314681
 20
166.04106576
  0
VERTEX
  8
0
 10
483.49310715
 20
166.37373192
  0
VERTEX
  8
0
 10
483.30821603
 20
166.69747660
  0
VERTEX
  8
0
 10
483.10890604
 20
167.01205203
  0
VERTEX
  8
0
 10
482.89560975
 20
167.31721046
  0
VERTEX
  8
0
 10
482.66875973
 20
167.61270412
  0
VERTEX
  8
0
 10
482.42878857
 20
167.89828525
  0
VERTEX
  8
0
 10
482.17612884
 20
168.17370609
  0
VERTEX
  8
0
 10
481.91121311
 20
168.43871887
  0
VERTEX
  8
0
 10
481.34634398
 20
168.93652924
  0
VERTEX
  8
0
 10
480.73764180
 20
169.38973426
  0
VERTEX
  8
0
 10
480.08856719
 20
169.79635183
  0
VERTEX
  8
0
 10
479.40258074
 20
170.15439989
  0
VERTEX
  8
0
 10
478.68314309
 20
170.46189631
  0
VERTEX
  8
0
 10
477.93371483
 20
170.71685904
  0
VERTEX
  8
0
 10
477.15775660
 20
170.91730595
  0
VERTEX
  8
0
 10
476.35872899
 20
171.06125498
  0
VERTEX
  8
0
 10
475.54009263
 20
171.14672401
  0
VERTEX
  8
0
 10
474.70530812
 20
171.17173098
  0
VERTEX
  8
0
 10
473.85783609
 20
171.13429378
  0
VERTEX
  8
0
 10
430.97524533
 20
167.64801255
  0
VERTEX
  8
0
 10
430.13199405
 20
167.54799683
  0
VERTEX
  8
0
 10
429.30966934
 20
167.38826972
  0
VERTEX
  8
0
 10
428.51142817
 20
167.17135132
  0
VERTEX
  8
0
 10
427.74042748
 20
166.89976168
  0
VERTEX
  8
0
 10
426.99982424
 20
166.57602091
  0
VERTEX
  8
0
 10
426.29277540
 20
166.20264909
  0
VERTEX
  8
0
 10
425.62243791
 20
165.78216632
  0
VERTEX
  8
0
 10
424.99196873
 20
165.31709269
  0
VERTEX
  8
0
 10
424.40452481
 20
164.80994826
  0
VERTEX
  8
0
 10
423.86326311
 20
164.26325315
  0
VERTEX
  8
0
 10
423.37134057
 20
163.67952743
  0
VERTEX
  8
0
 10
423.14486804
 20
163.37456563
  0
VERTEX
  8
0
 10
422.93191416
 20
163.06129119
  0
VERTEX
  8
0
 10
422.73287355
 20
162.74001916
  0
VERTEX
  8
0
 10
422.54814083
 20
162.41106453
  0
VERTEX
  8
0
 10
422.37811062
 20
162.07474231
  0
VERTEX
  8
0
 10
422.22317753
 20
161.73136753
  0
VERTEX
  8
0
 10
422.08373620
 20
161.38125518
  0
VERTEX
  8
0
 10
421.96018123
 20
161.02472027
  0
VERTEX
  8
0
 10
421.85290724
 20
160.66207782
  0
VERTEX
  8
0
 10
421.76230886
 20
160.29364285
  0
SEQEND
  0
POLYLINE
  8
Nível Padrão
 66
   1
 39
0.000000
 70
    1
  0
VERTEX
  8
0
 10
421.76230886
 20
139.70635715
  0
VERTEX
  8
0
 10
421.90134788
 20
140.05612300
  0
VERTEX
  8
0
 10
422.05610351
 20
140.39746290
  0
VERTEX
  8
0
 10
422.22614317
 20
140.73012906
  0
VERTEX
  8
0
 10
422.41103429
 20
141.05387374
  0
VERTEX
  8
0
 10
422.61034428
 20
141.36844917
  0
VERTEX
  8
0
 10
422.82364057
 20
141.67360760
  0
VERTEX
  8
0
 10
423.05049059
 20
141.96910126
  0
VERTEX
  8
0
 10
423.29046175
 20
142.25468238
  0
VERTEX
  8
0
 10
423.54312148
 20
142.53010323
  0
VERTEX
  8
0
 10
423.80803721
 20
142.79511601
  0
VERTEX
  8
0
 10
424.37290634
 20
143.29292638
  0
VERTEX
  8
0
 10
424.98160852
 20
143.74613140
  0
VERTEX
  8
0
 10
425.63068313
 20
144.15274897
  0
VERTEX
  8
0
 10
426.31666958
 20
144.51079703
  0
VERTEX
  8
0
 10
427.03610723
 20
144.81829345
  0
VERTEX
  8
0
 10
427.78553549
 20
145.07325617
  0
VERTEX
  8
0
 10
428.56149372
 20
145.27370309
  0
VERTEX
  8
0
 10
429.36052133
 20
145.41765211
  0
VERTEX
  8
0
 10
430.17915769
 20
145.50312115
  0
VERTEX
  8
0
 10
431.01394220
 20
145.52812811
  0
VERTEX
  8
0
 10
431.86141423
 20
145.49069091
  0
VERTEX
  8
0
 10
474.74400499
 20
142.00440968
  0
VERTEX
  8
0
 10
475.58725627
 20
141.90439397
  0
VERTEX
  8
0
 10
476.40958098
 20
141.74466686
  0
VERTEX
  8
0
 10
477.20782215
 20
141.52774846
  0
VERTEX
  8
0
 10
477.97882284
 20
141.25615882
  0
VERTEX
  8
0
 10
478.71942608
 20
140.93241805
  0
VERTEX
  8
0
 10
479.42647492
 20
140.55904623
  0
VERTEX
  8
0
 10
480.09681241
 20
140.13856346
  0
VERTEX
  8
0
 10
480.72728159
 20
139.67348982
  0
VERTEX
  8
0
 10
481.31472551
 20
139.16634540
  0
VERTEX
  8
0
 10
481.85598721
 20
138.61965029
  0
VERTEX
  8
0
 10
482.34790975
 20
138.03592457
  0
VERTEX
  8
0
 10
482.57438228
 20
137.73096276
  0
VERTEX
  8
0
 10
482.78733616
 20
137.41768833
  0
VERTEX
  8
0
 10
482.98637677
 20
137.09641630
  0
VERTEX
  8
0
 10
483.17110949
 20
136.76746166
  0
VERTEX
  8
0
 10
483.34113970
 20
136.43113945
  0
VERTEX
  8
0
 10
483.49607279
 20
136.08776466
  0
VERTEX
  8
0
 10
483.63551412
 20
135.73765230
  0
VERTEX
  8
0
 10
483.75906909
 20
135.38111741
  0
VERTEX
  8
0
 10
483.86634308
 20
135.01847496
  0
VERTEX
  8
0
 10
483.95694146
 20
134.65003998
  0
VERTEX
  8
0
 10
483.81790244
 20
134.30027413
  0
VERTEX
  8
0
 10
483.66314681
 20
133.95893424
  0
VERTEX
  8
0
 10
483.49310715
 20
133.62626808
  0
VERTEX
  8
0
 10
483.30821603
 20
133.30252340
  0
VERTEX
  8
0
 10
483.10890604
 20
132.98794797
  0
VERTEX
  8
0
 10
482.89560975
 20
132.68278954
  0
VERTEX
  8
0
 10
482.66875973
 20
132.38729588
  0
VERTEX
  8
0
 10
482.42878857
 20
132.10171475
  0
VERTEX
  8
0
 10
482.17612884
 20
131.82629391
  0
VERTEX
  8
0
 10
481.91121311
 20
131.56128113
  0
VERTEX
  8
0
 10
481.34634398
 20
131.06347076
  0
VERTEX
  8
0
 10
480.73764180
 20
130.61026574
  0
VERTEX
  8
0
 10
480.08856719
 20
130.20364817
  0
VERTEX
  8
0
 10
479.40258074
 20
129.84560011
  0
VERTEX
  8
0
 10
478.68314309
 20
129.53810369
  0
VERTEX
  8
0
 10
477.93371483
 20
129.28314096
  0
VERTEX
  8
0
 10
477.15775660
 20
129.08269405
  0
VERTEX
  8
0
 10
476.35872899
 20
128.93874502
  0
VERTEX
  8
0
 10
475.54009263
 20
128.85327599
  0
VERTEX
  8
0
 10
474.70530812
 20
128.82826902
  0
VERTEX
  8
0
 10
473.85783609
 20
128.86570622
  0
VERTEX
  8
0
 10
430.97524533
 20
132.35198745
  0
VERTEX
  8
0
 10
430.13199405
 20
132.45200317
  0
VERTEX
  8
0
 10
429.30966934
 20
132.61173028
  0
VERTEX
  8
0
 10
428.51142817
 20
132.82864868
  0
VERTEX
  8
0
 10
427.74042748
 20
133.10023832
  0
VERTEX
  8
0
 10
426.99982424
 20
133.42397909
  0
VERTEX
  8
0
 10
426.29277540
 20
133.79735091
  0
VERTEX
  8
0
 10
425.62243791
 20
134.21783368
  0
VERTEX
  8
0
 10
424.99196873
 20
134.68290731
  0
VERTEX
  8
0
 10
424.40452481
 20
135.19005174
  0
VERTEX
  8
0
 10
423.86326311
 20
135.73674685
  0
VERTEX
  8
0
 10
423.37134057
 20
136.32047257
  0
VERTEX
  8
0
 10
423.14486804
 20
136.62543437
  0
VERTEX
  8
0
 10
422.93191416
 20
136.93870881
  0
VERTEX
  8
0
 10
422.73287355
 20
137.25998084
  0
VERTEX
  8
0
 10
422.54814083
 20
137.58893547
  0
VERTEX
  8
0
 10
422.37811062
 20
137.92525769
  0
VERTEX
  8
0
 10
422.22317753
 20
138.26863247
  0
VERTEX
  8
0
 10
422.08373620
 20
138.61874482
  0
VERTEX
  8
0
 10
421.96018123
 20
138.97527973
  0
VERTEX
  8
0
 10
421.85290724
 20
139.33792218
  0
VERTEX
  8
0
 10
421.76230886
 20
139.70635715
  0
SEQEND
  0
ENDSEC
  0
EOF
