  0
SECTION
  2
HEADER
  9
$ACADVER
  1
AC1024
  9
$ACADMAINTVER
 70
     6
  9
$DWGCODEPAGE
  3
ANSI_1251
  9
$INSBASE
 10
0.0
 20
0.0
 30
0.0
  9
$EXTMIN
 10
1.000000000000000E+20
 20
1.000000000000000E+20
 30
1.000000000000000E+20
  9
$EXTMAX
 10
-1.000000000000000E+20
 20
-1.000000000000000E+20
 30
-1.000000000000000E+20
  9
$LIMMIN
 10
0.0
 20
0.0
  9
$LIMMAX
 10
12.0
 20
9.0
  9
$ORTHOMODE
 70
     0
  9
$REGENMODE
 70
     1
  9
$FILLMODE
 70
     1
  9
$QTEXTMODE
 70
     0
  9
$MIRRTEXT
 70
     1
  9
$LTSCALE
 40
1.0
  9
$ATTMODE
 70
     1
  9
$TEXTSIZE
 40
0.2
  9
$TRACEWID
 40
0.05
  9
$TEXTSTYLE
  7
Standard
  9
$CLAYER
  8
0
  9
$CELTYPE
  6
ByLayer
  9
$CECOLOR
 62
   256
  9
$CELTSCALE
 40
1.0
  9
$DISPSILH
 70
     0
  9
$DIMSCALE
 40
1.0
  9
$DIMASZ
 40
0.18
  9
$DIMEXO
 40
0.0625
  9
$DIMDLI
 40
0.38
  9
$DIMRND
 40
0.0
  9
$DIMDLE
 40
0.0
  9
$DIMEXE
 40
0.18
  9
$DIMTP
 40
0.0
  9
$DIMTM
 40
0.0
  9
$DIMTXT
 40
0.18
  9
$DIMCEN
 40
0.09
  9
$DIMTSZ
 40
0.0
  9
$DIMTOL
 70
     0
  9
$DIMLIM
 70
     0
  9
$DIMTIH
 70
     1
  9
$DIMTOH
 70
     1
  9
$DIMSE1
 70
     0
  9
$DIMSE2
 70
     0
  9
$DIMTAD
 70
     0
  9
$DIMZIN
 70
     0
  9
$DIMBLK
  1

  9
$DIMASO
 70
     1
  9
$DIMSHO
 70
     1
  9
$DIMPOST
  1

  9
$DIMAPOST
  1

  9
$DIMALT
 70
     0
  9
$DIMALTD
 70
     2
  9
$DIMALTF
 40
25.4
  9
$DIMLFAC
 40
1.0
  9
$DIMTOFL
 70
     0
  9
$DIMTVP
 40
0.0
  9
$DIMTIX
 70
     0
  9
$DIMSOXD
 70
     0
  9
$DIMSAH
 70
     0
  9
$DIMBLK1
  1

  9
$DIMBLK2
  1

  9
$DIMSTYLE
  2
Standard
  9
$DIMCLRD
 70
     0
  9
$DIMCLRE
 70
     0
  9
$DIMCLRT
 70
     0
  9
$DIMTFAC
 40
1.0
  9
$DIMGAP
 40
0.09
  9
$DIMJUST
 70
     0
  9
$DIMSD1
 70
     0
  9
$DIMSD2
 70
     0
  9
$DIMTOLJ
 70
     1
  9
$DIMTZIN
 70
     0
  9
$DIMALTZ
 70
     0
  9
$DIMALTTZ
 70
     0
  9
$DIMUPT
 70
     0
  9
$DIMDEC
 70
     4
  9
$DIMTDEC
 70
     4
  9
$DIMALTU
 70
     2
  9
$DIMALTTD
 70
     2
  9
$DIMTXSTY
  7
Standard
  9
$DIMAUNIT
 70
     0
  9
$DIMADEC
 70
     0
  9
$DIMALTRND
 40
0.0
  9
$DIMAZIN
 70
     0
  9
$DIMDSEP
 70
    46
  9
$DIMATFIT
 70
     3
  9
$DIMFRAC
 70
     0
  9
$DIMLDRBLK
  1

  9
$DIMLUNIT
 70
     2
  9
$DIMLWD
 70
    -2
  9
$DIMLWE
 70
    -2
  9
$DIMTMOVE
 70
     0
  9
$DIMFXL
 40
1.0
  9
$DIMFXLON
 70
     0
  9
$DIMJOGANG
 40
0.7853981633974483
  9
$DIMTFILL
 70
     0
  9
$DIMTFILLCLR
 70
     0
  9
$DIMARCSYM
 70
     0
  9
$DIMLTYPE
  6

  9
$DIMLTEX1
  6

  9
$DIMLTEX2
  6

  9
$DIMTXTDIRECTION
 70
     0
  9
$LUNITS
 70
     2
  9
$LUPREC
 70
     4
  9
$SKETCHINC
 40
0.1
  9
$FILLETRAD
 40
0.5
  9
$AUNITS
 70
     0
  9
$AUPREC
 70
     0
  9
$MENU
  1
.
  9
$ELEVATION
 40
0.0
  9
$PELEVATION
 40
0.0
  9
$THICKNESS
 40
0.0
  9
$LIMCHECK
 70
     0
  9
$CHAMFERA
 40
0.5
  9
$CHAMFERB
 40
0.5
  9
$CHAMFERC
 40
1.0
  9
$CHAMFERD
 40
0.0
  9
$SKPOLY
 70
     0
  9
$TDCREATE
 40
2459963.861666042
  9
$TDUCREATE
 40
2459963.778332708
  9
$TDUPDATE
 40
2459963.861666076
  9
$TDUUPDATE
 40
2459963.778332743
  9
$TDINDWG
 40
0.0000000116
  9
$TDUSRTIMER
 40
0.0000000116
  9
$USRTIMER
 70
     1
  9
$ANGBASE
 50
0.0
  9
$ANGDIR
 70
     0
  9
$PDMODE
 70
     0
  9
$PDSIZE
 40
0.0
  9
$PLINEWID
 40
0.0
  9
$SPLFRAME
 70
     0
  9
$SPLINETYPE
 70
     6
  9
$SPLINESEGS
 70
     8
  9
$HANDSEED
  5
6C
  9
$SURFTAB1
 70
     6
  9
$SURFTAB2
 70
     6
  9
$SURFTYPE
 70
     6
  9
$SURFU
 70
     6
  9
$SURFV
 70
     6
  9
$UCSBASE
  2

  9
$UCSNAME
  2

  9
$UCSORG
 10
0.0
 20
0.0
 30
0.0
  9
$UCSXDIR
 10
1.0
 20
0.0
 30
0.0
  9
$UCSYDIR
 10
0.0
 20
1.0
 30
0.0
  9
$UCSORTHOREF
  2

  9
$UCSORTHOVIEW
 70
     0
  9
$UCSORGTOP
 10
0.0
 20
0.0
 30
0.0
  9
$UCSORGBOTTOM
 10
0.0
 20
0.0
 30
0.0
  9
$UCSORGLEFT
 10
0.0
 20
0.0
 30
0.0
  9
$UCSORGRIGHT
 10
0.0
 20
0.0
 30
0.0
  9
$UCSORGFRONT
 10
0.0
 20
0.0
 30
0.0
  9
$UCSORGBACK
 10
0.0
 20
0.0
 30
0.0
  9
$PUCSBASE
  2

  9
$PUCSNAME
  2

  9
$PUCSORG
 10
0.0
 20
0.0
 30
0.0
  9
$PUCSXDIR
 10
1.0
 20
0.0
 30
0.0
  9
$PUCSYDIR
 10
0.0
 20
1.0
 30
0.0
  9
$PUCSORTHOREF
  2

  9
$PUCSORTHOVIEW
 70
     0
  9
$PUCSORGTOP
 10
0.0
 20
0.0
 30
0.0
  9
$PUCSORGBOTTOM
 10
0.0
 20
0.0
 30
0.0
  9
$PUCSORGLEFT
 10
0.0
 20
0.0
 30
0.0
  9
$PUCSORGRIGHT
 10
0.0
 20
0.0
 30
0.0
  9
$PUCSORGFRONT
 10
0.0
 20
0.0
 30
0.0
  9
$PUCSORGBACK
 10
0.0
 20
0.0
 30
0.0
  9
$USERI1
 70
     0
  9
$USERI2
 70
     0
  9
$USERI3
 70
     0
  9
$USERI4
 70
     0
  9
$USERI5
 70
     0
  9
$USERR1
 40
0.0
  9
$USERR2
 40
0.0
  9
$USERR3
 40
0.0
  9
$USERR4
 40
0.0
  9
$USERR5
 40
0.0
  9
$WORLDVIEW
 70
     1
  9
$SHADEDGE
 70
     3
  9
$SHADEDIF
 70
    70
  9
$TILEMODE
 70
     1
  9
$MAXACTVP
 70
    64
  9
$PINSBASE
 10
0.0
 20
0.0
 30
0.0
  9
$PLIMCHECK
 70
     0
  9
$PEXTMIN
 10
1.000000000000000E+20
 20
1.000000000000000E+20
 30
1.000000000000000E+20
  9
$PEXTMAX
 10
-1.000000000000000E+20
 20
-1.000000000000000E+20
 30
-1.000000000000000E+20
  9
$PLIMMIN
 10
0.0
 20
0.0
  9
$PLIMMAX
 10
12.0
 20
9.0
  9
$UNITMODE
 70
     0
  9
$VISRETAIN
 70
     1
  9
$PLINEGEN
 70
     0
  9
$PSLTSCALE
 70
     1
  9
$TREEDEPTH
 70
  3020
  9
$CMLSTYLE
  2
Standard
  9
$CMLJUST
 70
     0
  9
$CMLSCALE
 40
1.0
  9
$PROXYGRAPHICS
 70
     1
  9
$MEASUREMENT
 70
     0
  9
$CELWEIGHT
370
    -1
  9
$ENDCAPS
280
     0
  9
$JOINSTYLE
280
     0
  9
$LWDISPLAY
290
     1
  9
$INSUNITS
 70
     1
  9
$HYPERLINKBASE
  1

  9
$STYLESHEET
  1

  9
$XEDIT
290
     1
  9
$CEPSNTYPE
380
     0
  9
$PSTYLEMODE
290
     1
  9
$FINGERPRINTGUID
  2
{E501CE20-6770-4FDB-BA2C-23814CC5E4C6}
  9
$VERSIONGUID
  2
{FAEB1C32-E019-11D5-929B-00C0DF256EC4}
  9
$EXTNAMES
290
     1
  9
$PSVPSCALE
 40
0.0
  9
$OLESTARTUP
290
     0
  9
$SORTENTS
280
   127
  9
$INDEXCTL
280
     0
  9
$HIDETEXT
280
     1
  9
$XCLIPFRAME
280
     2
  9
$HALOGAP
280
     0
  9
$OBSCOLOR
 70
   257
  9
$OBSLTYPE
280
     0
  9
$INTERSECTIONDISPLAY
280
     0
  9
$INTERSECTIONCOLOR
 70
   257
  9
$DIMASSOC
280
     2
  9
$PROJECTNAME
  1

  9
$CAMERADISPLAY
290
     0
  9
$LENSLENGTH
 40
50.0
  9
$CAMERAHEIGHT
 40
0.0
  9
$STEPSPERSEC
 40
2.0
  9
$STEPSIZE
 40
6.0
  9
$3DDWFPREC
 40
2.0
  9
$PSOLWIDTH
 40
0.25
  9
$PSOLHEIGHT
 40
4.0
  9
$LOFTANG1
 40
1.570796326794897
  9
$LOFTANG2
 40
1.570796326794897
  9
$LOFTMAG1
 40
0.0
  9
$LOFTMAG2
 40
0.0
  9
$LOFTPARAM
 70
     7
  9
$LOFTNORMALS
280
     1
  9
$LATITUDE
 40
37.795
  9
$LONGITUDE
 40
-122.394
  9
$NORTHDIRECTION
 40
0.0
  9
$TIMEZONE
 70
 -8000
  9
$LIGHTGLYPHDISPLAY
280
     1
  9
$TILEMODELIGHTSYNCH
280
     1
  9
$CMATERIAL
347
3C
  9
$SOLIDHIST
280
     1
  9
$SHOWHIST
280
     1
  9
$DWFFRAME
280
     2
  9
$DGNFRAME
280
     2
  9
$REALWORLDSCALE
290
     1
  9
$INTERFERECOLOR
 62
   256
  9
$CSHADOW
280
     0
  9
$SHADOWPLANELOCATION
 40
0.0
  0
ENDSEC
  0
SECTION
  2
CLASSES
  0
CLASS
  1
ACDBDICTIONARYWDFLT
  2
AcDbDictionaryWithDefault
  3
ObjectDBX Classes
 90
        0
 91
        4
280
     0
281
     0
  0
CLASS
  1
VISUALSTYLE
  2
AcDbVisualStyle
  3
ObjectDBX Classes
 90
     4095
 91
        4
280
     0
281
     0
  0
CLASS
  1
MATERIAL
  2
AcDbMaterial
  3
ObjectDBX Classes
 90
     1153
 91
        4
280
     0
281
     0
  0
CLASS
  1
SUN
  2
AcDbSun
  3
SCENEOE
 90
     1024
 91
        4
280
     0
281
     0
  0
ENDSEC
  0
SECTION
  2
TABLES
  0
TABLE
  2
VPORT
  5
8
330
0
100
AcDbSymbolTable
 70
     1
  0
VPORT
  5
29
330
8
100
AcDbSymbolTableRecord
100
AcDbViewportTableRecord
  2
*Active
 70
     0
 10
0.0
 20
0.0
 11
1.0
 21
1.0
 12
0.0
 22
0.0
 13
0.0
 23
0.0
 14
0.5
 24
0.5
 15
0.5
 25
0.5
 16
0.0
 26
0.0
 36
1.0
 17
5.000000455772694
 27
-5.000000455772694
 37
0.0
 40
10.00000091154539
 41
1.0
 42
50.0
 43
0.0
 44
0.0
 50
0.0
 51
0.0
 71
     0
 72
   100
 73
     1
 74
     3
 75
     0
 76
     0
 77
     0
 78
     0
281
     0
 65
     1
110
0.0
120
0.0
130
0.0
111
1.0
121
0.0
131
0.0
112
0.0
122
1.0
132
0.0
 79
     0
146
0.0
 60
     3
 61
     5
292
     1
282
     1
141
0.0
142
0.0
 63
   250
361
3F
  0
ENDTAB
  0
TABLE
  2
LTYPE
  5
5
330
0
100
AcDbSymbolTable
 70
     1
  0
LTYPE
  5
14
330
5
100
AcDbSymbolTableRecord
100
AcDbLinetypeTableRecord
  2
ByBlock
 70
     0
  3

 72
    65
 73
     0
 40
0.0
  0
LTYPE
  5
15
330
5
100
AcDbSymbolTableRecord
100
AcDbLinetypeTableRecord
  2
ByLayer
 70
     0
  3

 72
    65
 73
     0
 40
0.0
  0
LTYPE
  5
16
330
5
100
AcDbSymbolTableRecord
100
AcDbLinetypeTableRecord
  2
Continuous
 70
     0
  3
Solid line
 72
    65
 73
     0
 40
0.0
  0
ENDTAB
  0
TABLE
  2
LAYER
  5
2
330
0
100
AcDbSymbolTable
 70
     2
  0
LAYER
  5
10
330
2
100
AcDbSymbolTableRecord
100
AcDbLayerTableRecord
  2
0
 70
     0
 62
     7
  6
Continuous
370
    -3
390
F
347
3E
  0
LAYER
  5
40
330
2
100
AcDbSymbolTableRecord
100
AcDbLayerTableRecord
  2
1
 70
     0
 62
     7
  6
Continuous
370
    -3
390
F
347
3E
  0
ENDTAB
  0
TABLE
  2
STYLE
  5
3
330
0
100
AcDbSymbolTable
 70
     1
  0
STYLE
  5
11
330
3
100
AcDbSymbolTableRecord
100
AcDbTextStyleTableRecord
  2
Standard
 70
     0
 40
0.0
 41
1.0
 50
0.0
 71
     0
 42
0.2
  3
txt
  4

  0
ENDTAB
  0
TABLE
  2
VIEW
  5
6
330
0
100
AcDbSymbolTable
 70
     0
  0
ENDTAB
  0
TABLE
  2
UCS
  5
7
330
0
100
AcDbSymbolTable
 70
     0
  0
ENDTAB
  0
TABLE
  2
APPID
  5
9
330
0
100
AcDbSymbolTable
 70
     1
  0
APPID
  5
12
330
9
100
AcDbSymbolTableRecord
100
AcDbRegAppTableRecord
  2
ACAD
 70
     0
  0
ENDTAB
  0
TABLE
  2
DIMSTYLE
  5
A
330
0
100
AcDbSymbolTable
 70
     1
100
AcDbDimStyleTable
  0
DIMSTYLE
105
27
330
A
100
AcDbSymbolTableRecord
100
AcDbDimStyleTableRecord
  2
Standard
 70
     0
178
     0
340
11
  0
ENDTAB
  0
TABLE
  2
BLOCK_RECORD
  5
1
330
0
100
AcDbSymbolTable
 70
     7
  0
BLOCK_RECORD
  5
1F
330
1
100
AcDbSymbolTableRecord
100
AcDbBlockTableRecord
  2
*Model_Space
340
22
 70
     0
280
     1
281
     0
  0
BLOCK_RECORD
  5
1B
330
1
100
AcDbSymbolTableRecord
100
AcDbBlockTableRecord
  2
*Paper_Space
340
1E
 70
     0
280
     1
281
     0
  0
BLOCK_RECORD
  5
23
330
1
100
AcDbSymbolTableRecord
100
AcDbBlockTableRecord
  2
*Paper_Space0
340
26
 70
     0
280
     1
281
     0
  0
BLOCK_RECORD
  5
43
330
1
100
AcDbSymbolTableRecord
100
AcDbBlockTableRecord
  2
block 2
340
0
102
{BLKREFS
331
44
102
}
 70
     0
280
     1
281
     0
  0
BLOCK_RECORD
  5
4C
330
1
100
AcDbSymbolTableRecord
100
AcDbBlockTableRecord
  2
block 3
340
0
102
{BLKREFS
331
4D
102
}
 70
     0
280
     1
281
     0
  0
BLOCK_RECORD
  5
52
330
1
100
AcDbSymbolTableRecord
100
AcDbBlockTableRecord
  2
block 4
340
0
102
{BLKREFS
331
53
102
}
 70
     0
280
     1
281
     0
  0
BLOCK_RECORD
  5
58
330
1
100
AcDbSymbolTableRecord
100
AcDbBlockTableRecord
  2
block 5
340
0
102
{BLKREFS
331
59
102
}
 70
     0
280
     1
281
     0
  0
BLOCK_RECORD
  5
5E
330
1
100
AcDbSymbolTableRecord
100
AcDbBlockTableRecord
  2
block 6
340
0
102
{BLKREFS
331
5F
102
}
 70
     0
280
     1
281
     0
  0
BLOCK_RECORD
  5
62
330
1
100
AcDbSymbolTableRecord
100
AcDbBlockTableRecord
  2
block 7
340
0
102
{BLKREFS
331
63
102
}
 70
     0
280
     1
281
     0
  0
ENDTAB
  0
ENDSEC
  0
SECTION
  2
BLOCKS
  0
BLOCK
  5
20
330
1F
100
AcDbEntity
  8
0
100
AcDbBlockBegin
  2
*Model_Space
 70
     0
 10
0.0
 20
0.0
 30
0.0
  3
*Model_Space
  1

  0
ENDBLK
  5
21
330
1F
100
AcDbEntity
  8
0
100
AcDbBlockEnd
  0
BLOCK
  5
1C
330
1B
100
AcDbEntity
 67
     1
  8
0
100
AcDbBlockBegin
  2
*Paper_Space
 70
     0
 10
0.0
 20
0.0
 30
0.0
  3
*Paper_Space
  1

  0
ENDBLK
  5
1D
330
1B
100
AcDbEntity
 67
     1
  8
0
100
AcDbBlockEnd
  0
BLOCK
  5
24
330
23
100
AcDbEntity
  8
0
100
AcDbBlockBegin
  2
*Paper_Space0
 70
     0
 10
0.0
 20
0.0
 30
0.0
  3
*Paper_Space0
  1

  0
ENDBLK
  5
25
330
23
100
AcDbEntity
  8
0
100
AcDbBlockEnd
  0
BLOCK
  5
45
330
43
100
AcDbEntity
  8
0
100
AcDbBlockBegin
  2
block 2
 70
     0
 10
0.0
 20
0.0
 30
0.0
  3
block 2
  1

  0
SPLINE
  5
47
330
43
100
AcDbEntity
  8
1
370
     0
100
AcDbSpline
210
0.0
220
0.0
230
1.0
 70
    11
 71
     3
 72
   164
 73
   160
 74
     0
 42
0.0000000001
 43
0.0000000001
 12
1.0
 22
0.0
 32
0.0
 13
1.0
 23
0.0
 33
0.0
 40
0.0
 40
0.0
 40
0.0
 40
0.0
 40
1.0
 40
1.0
 40
1.0
 40
2.0
 40
2.0
 40
2.0
 40
3.0
 40
3.0
 40
3.0
 40
4.0
 40
4.0
 40
4.0
 40
5.0
 40
5.0
 40
5.0
 40
6.0
 40
6.0
 40
6.0
 40
7.0
 40
7.0
 40
7.0
 40
8.0
 40
8.0
 40
8.0
 40
9.0
 40
9.0
 40
9.0
 40
10.0
 40
10.0
 40
10.0
 40
11.0
 40
11.0
 40
11.0
 40
12.0
 40
12.0
 40
12.0
 40
13.0
 40
13.0
 40
13.0
 40
14.0
 40
14.0
 40
14.0
 40
15.0
 40
15.0
 40
15.0
 40
16.0
 40
16.0
 40
16.0
 40
17.0
 40
17.0
 40
17.0
 40
18.0
 40
18.0
 40
18.0
 40
19.0
 40
19.0
 40
19.0
 40
20.0
 40
20.0
 40
20.0
 40
21.0
 40
21.0
 40
21.0
 40
22.0
 40
22.0
 40
22.0
 40
23.0
 40
23.0
 40
23.0
 40
24.0
 40
24.0
 40
24.0
 40
25.0
 40
25.0
 40
25.0
 40
26.0
 40
26.0
 40
26.0
 40
27.0
 40
27.0
 40
27.0
 40
28.0
 40
28.0
 40
28.0
 40
29.0
 40
29.0
 40
29.0
 40
30.0
 40
30.0
 40
30.0
 40
31.0
 40
31.0
 40
31.0
 40
32.0
 40
32.0
 40
32.0
 40
33.0
 40
33.0
 40
33.0
 40
34.0
 40
34.0
 40
34.0
 40
35.0
 40
35.0
 40
35.0
 40
36.0
 40
36.0
 40
36.0
 40
37.0
 40
37.0
 40
37.0
 40
38.0
 40
38.0
 40
38.0
 40
39.0
 40
39.0
 40
39.0
 40
40.0
 40
40.0
 40
40.0
 40
41.0
 40
41.0
 40
41.0
 40
42.0
 40
42.0
 40
42.0
 40
43.0
 40
43.0
 40
43.0
 40
44.0
 40
44.0
 40
44.0
 40
45.0
 40
45.0
 40
45.0
 40
46.0
 40
46.0
 40
46.0
 40
47.0
 40
47.0
 40
47.0
 40
48.0
 40
48.0
 40
48.0
 40
49.0
 40
49.0
 40
49.0
 40
50.0
 40
50.0
 40
50.0
 40
51.0
 40
51.0
 40
51.0
 40
52.0
 40
52.0
 40
52.0
 40
53.0
 40
53.0
 40
53.0
 40
53.0
 10
7.822053272665017
 20
-3.864447721256095
 30
0.0
 10
7.822053272665017
 20
-3.342583554719906
 30
0.0
 10
7.397513450162597
 20
-2.918043721492706
 30
0.0
 10
6.875649296809794
 20
-2.918043721492706
 30
0.0
 10
6.836900186687255
 20
-2.918043721492706
 30
0.0
 10
6.798789604326203
 20
-2.921137582603045
 30
0.0
 10
6.761084716399247
 20
-2.925727221490797
 30
0.0
 10
6.770722776085078
 20
-2.728108165984633
 30
0.0
 10
6.75057546666736
 20
-2.534062749366475
 30
0.0
 10
6.701017245709473
 20
-2.348914388301675
 30
0.0
 10
6.531553388921745
 20
-1.716119249570986
 30
0.0
 10
5.87874165557636
 20
-1.339225582998532
 30
0.0
 10
5.246154671714999
 20
-1.50855186073397
 30
0.0
 10
4.743446351206823
 20
-1.643185971811412
 30
0.0
 10
4.389737249119583
 20
-2.088603193922288
 30
0.0
 10
4.367653360794101
 20
-2.604265527126726
 30
0.0
 10
4.090909784521084
 20
-2.168563805013406
 30
0.0
 10
3.561848964685217
 20
-1.959550027287889
 30
0.0
 10
3.059243027012979
 20
-2.094117110587595
 30
0.0
 10
2.426447888282289
 20
-2.263580971656322
 30
0.0
 10
2.049483666154283
 20
-2.916219860382051
 30
0.0
 10
2.21891577722305
 20
-3.548944443557221
 30
0.0
 10
2.676147527108743
 20
-5.256575859796992
 30
0.0
 10
4.871120276559988
 20
-5.529255443062136
 30
0.0
 10
5.119891980491784
 20
-5.554715415277996
 30
0.0
 10
5.120512869364833
 20
-5.554782443055732
 30
0.0
 10
5.121098609830867
 20
-5.554817720833508
 30
0.0
 10
5.121715841556365
 20
-5.554817720833508
 30
0.0
 10
5.124361674822197
 20
-5.554817720833508
 30
0.0
 10
5.126799369204451
 20
-5.554076887500337
 30
0.0
 10
5.129071387606607
 20
-5.553007970833989
 30
0.0
 10
5.131724146856587
 20
-5.554912970833517
 30
0.0
 10
5.134359396789356
 20
-5.556765054166379
 30
0.0
 10
5.136998174499813
 20
-5.558648887499202
 30
0.0
 10
5.134257220938674
 20
-5.59941235971126
 30
0.0
 10
5.112554202901209
 20
-5.92003091518668
 30
0.0
 10
5.103216175361664
 20
-5.9983722762782
 30
0.0
 10
5.102492980935669
 20
-6.004263665165597
 30
0.0
 10
5.104803675321163
 20
-6.010088026275258
 30
0.0
 10
5.109315832056009
 20
-6.013912137385384
 30
0.0
 10
5.131089146872787
 20
-6.032411804047435
 30
0.0
 10
5.165435590440981
 20
-6.042021470711693
 30
0.0
 10
5.207363228260206
 20
-6.042021470711693
 30
0.0
 10
5.22500211669909
 20
-6.042021470711693
 30
0.0
 10
5.243985088437016
 20
-6.040299915156615
 30
0.0
 10
5.263931143483705
 20
-6.03685680404633
 30
0.0
 10
5.330870725109268
 20
-6.0252468873826
 30
0.0
 10
5.422543556103832
 20
-5.988279304058461
 30
0.0
 10
5.460611943079314
 20
-5.922341609630504
 30
0.0
 10
5.464125471709656
 20
-5.916312637409819
 30
0.0
 10
5.463712721720186
 20
-5.908801998522792
 30
0.0
 10
5.459613444046989
 20
-5.903150498524195
 30
0.0
 10
5.412327111920031
 20
-5.838055942984922
 30
0.0
 10
5.321973669780695
 20
-5.723533693013592
 30
0.0
 10
5.254949421490626
 20
-5.639480859701243
 30
0.0
 10
5.317631109781731
 20
-5.680650026357599
 30
0.0
 10
5.37891200166141
 20
-5.718182054126029
 30
0.0
 10
5.437702416828209
 20
-5.752306248561951
 30
0.0
 10
5.438252750147502
 20
-5.753272859672786
 30
0.0
 10
5.438570250139402
 20
-5.75431355411699
 30
0.0
 10
5.439321666786898
 20
-5.755184915227882
 30
0.0
 10
5.677171494052177
 20
-6.030273970714675
 30
0.0
 10
5.715409076409988
 20
-6.372613053962389
 30
0.0
 10
5.57571260775172
 20
-6.97615938714487
 30
0.0
 10
5.427814055969371
 20
-7.615018775874022
 30
0.0
 10
5.509806664988676
 20
-7.938410164682043
 30
0.0
 10
5.678409744020587
 20
-8.227419831276455
 30
0.0
 10
5.681683521714843
 20
-8.233036053497274
 30
0.0
 10
5.687574910453431
 20
-8.236168720163207
 30
0.0
 10
5.693639160298718
 20
-8.236168720163207
 30
0.0
 10
5.696669521332518
 20
-8.236168720163207
 30
0.0
 10
5.699735160143197
 20
-8.235410247941147
 30
0.0
 10
5.702525632294228
 20
-8.233759247941558
 30
0.0
 10
5.710932326524199
 20
-8.22886622016502
 30
0.0
 10
5.713793354228986
 20
-8.218050053501061
 30
0.0
 10
5.708865048799162
 20
-8.209643359058687
 30
0.0
 10
5.544498830770272
 20
-7.927869164684726
 30
0.0
 10
5.464813388358772
 20
-7.611642692541538
 30
0.0
 10
5.610094329096792
 20
-6.984082776031762
 30
0.0
 10
5.742040270175014
 20
-6.414110303952049
 30
0.0
 10
5.716954243037234
 20
-6.071167970704453
 30
0.0
 10
5.517465470348839
 20
-5.797419470772897
 30
0.0
 10
5.703647465598941
 20
-5.899894359636112
 30
0.0
 10
5.855109072845944
 20
-5.964283359620055
 30
0.0
 10
5.926733543240874
 20
-5.992748998501813
 30
0.0
 10
5.778118852587906
 20
-6.140467637353757
 30
0.0
 10
5.732324770422878
 20
-6.341960192858958
 30
0.0
 10
5.80773807405448
 20
-6.520822053925319
 30
0.0
 10
5.847393823042776
 20
-6.614837331679624
 30
0.0
 10
5.918326849010902
 20
-6.703927831657367
 30
0.0
 10
5.986885831836624
 20
-6.790090276080267
 30
0.0
 10
6.043933373584191
 20
-6.861750026062372
 30
0.0
 10
6.102914442918687
 20
-6.935854526043838
 30
0.0
 10
6.142153759967269
 20
-7.010989137136122
 30
0.0
 10
6.319234088782906
 20
-7.350160275940257
 30
0.0
 10
6.304523255824877
 20
-7.72078508140316
 30
0.0
 10
6.100744705468146
 20
-8.054579886875276
 30
0.0
 10
6.089649998477615
 20
-8.072769109092908
 30
0.0
 10
6.078008331813861
 20
-8.090856025755095
 30
0.0
 10
6.066362984123074
 20
-8.108942942417215
 30
0.0
 10
6.030983054047821
 20
-8.16385633129237
 30
0.0
 10
5.994396319292431
 20
-8.22063238683371
 30
0.0
 10
5.973483653159291
 20
-8.280163636818827
 30
0.0
 10
5.950193264864589
 20
-8.34654935902449
 30
0.0
 10
5.938653904047872
 20
-8.443252803444771
 30
0.0
 10
6.015996902074687
 20
-8.526797636757182
 30
0.0
 10
6.019475290874835
 20
-8.530554720089572
 30
0.0
 10
6.02419545742108
 20
-8.53244913675578
 30
0.0
 10
6.028947373966515
 20
-8.53244913675578
 30
0.0
 10
6.033254790523291
 20
-8.53244913675578
 30
0.0
 10
6.037526929303188
 20
-8.53089691453395
 30
0.0
 10
6.040938290327269
 20
-8.527764247868083
 30
0.0
 10
6.048067929034265
 20
-8.521149664536402
 30
0.0
 10
6.048516109598972
 20
-8.509984247872499
 30
0.0
 10
6.041901373636032
 20
-8.5028193312076
 30
0.0
 10
5.976446986417023
 20
-8.432161470114172
 30
0.0
 10
5.986677541711575
 20
-8.349099942357178
 30
0.0
 10
6.006761180088088
 20
-8.291875859038134
 30
0.0
 10
6.026294485145307
 20
-8.236239275718694
 30
0.0
 10
6.061745276262331
 20
-8.181220053510273
 30
0.0
 10
6.096024538921901
 20
-8.128028220190195
 30
0.0
 10
6.107807316399075
 20
-8.109701414639273
 30
0.0
 10
6.119625371653127
 20
-8.091371081310472
 30
0.0
 10
6.130854442911747
 20
-8.072973720203997
 30
0.0
 10
6.341349727107579
 20
-7.728189886956859
 30
0.0
 10
6.356473310055077
 20
-7.345231970385943
 30
0.0
 10
6.173434720678891
 20
-6.99465905380692
 30
0.0
 10
6.132611121321833
 20
-6.916525831604176
 30
0.0
 10
6.072564817298186
 20
-6.841077248289722
 30
0.0
 10
6.014479957668943
 20
-6.768112220530221
 30
0.0
 10
5.947402792713557
 20
-6.683808914995687
 30
0.0
 10
5.878018609641577
 20
-6.596648109461927
 30
0.0
 10
5.840260656558092
 20
-6.507109581706542
 30
0.0
 10
5.77042138744628
 20
-6.341522748414637
 30
0.0
 10
5.813569490572374
 20
-6.154331804016959
 30
0.0
 10
5.952458098140141
 20
-6.016864887384682
 30
0.0
 10
5.928275182090433
 20
-6.087568609589208
 30
0.0
 10
5.861561378236888
 20
-6.281741026207335
 30
0.0
 10
5.841191989867665
 20
-6.332752692861246
 30
0.0
 10
5.838987128812805
 20
-6.338231331748777
 30
0.0
 10
5.839675045461921
 20
-6.344468442858304
 30
0.0
 10
5.843051128709123
 20
-6.349361470634905
 30
0.0
 10
5.861998822670173
 20
-6.376712331739156
 30
0.0
 10
5.904476942968296
 20
-6.395247276178981
 30
0.0
 10
5.959563042403324
 20
-6.400210859511072
 30
0.0
 10
5.96786743108035
 20
-6.400965803955314
 30
0.0
 10
5.976722153076669
 20
-6.401346803955219
 30
0.0
 10
5.985954347285581
 20
-6.401346803955219
 30
0.0
 10
6.037287040420419
 20
-6.401346803955219
 30
0.0
 10
6.099746344382505
 20
-6.388738526180566
 30
0.0
 10
6.136710554021367
 20
-6.35177094285649
 30
0.0
 10
6.141638704424853
 20
-6.346846165079929
 30
0.0
 10
6.143187398829787
 20
-6.339473109526254
 30
0.0
 10
6.140707371115281
 20
-6.332960831750087
 30
0.0
 10
6.106995927530886
 20
-6.245214415105332
 30
0.0
 10
6.022576207462391
 20
-6.053504387375518
 30
0.0
 10
5.999941985817616
 20
-6.002302220721655
 30
0.0
 10
6.177364509068967
 20
-5.919678137408982
 30
0.0
 10
7.822053272665017
 20
-5.119253582053508
 30
0.0
 10
7.822053272665017
 20
-3.864447721256095
 30
0.0
  0
SPLINE
  5
48
330
43
100
AcDbEntity
  8
1
370
     0
100
AcDbSpline
210
0.0
220
0.0
230
1.0
 70
    11
 71
     3
 72
    17
 73
    13
 74
     0
 42
0.0000000001
 43
0.0000000001
 12
1.0
 22
0.0
 32
0.0
 13
1.0
 23
0.0
 33
0.0
 40
0.0
 40
0.0
 40
0.0
 40
0.0
 40
1.0
 40
1.0
 40
1.0
 40
2.0
 40
2.0
 40
2.0
 40
3.0
 40
3.0
 40
3.0
 40
4.0
 40
4.0
 40
4.0
 40
4.0
 10
5.257902171415295
 20
-6.002094081832814
 30
0.0
 10
5.208015867132445
 20
-6.010775942941764
 30
0.0
 10
5.163886896036047
 20
-6.006881276276087
 30
0.0
 10
5.139390007772126
 20
-5.992205720724162
 30
0.0
 10
5.148004840885676
 20
-5.911384331855505
 30
0.0
 10
5.164264368248639
 20
-5.677739609691709
 30
0.0
 10
5.170222784763294
 20
-5.590095498602467
 30
0.0
 10
5.226448505551079
 20
-5.660030165251677
 30
0.0
 10
5.358292141076356
 20
-5.824946720765963
 30
0.0
 10
5.423954667178943
 20
-5.914139526299219
 30
0.0
 10
5.394226084604049
 20
-5.955516831844479
 30
0.0
 10
5.330697864002567
 20
-5.989485804058161
 30
0.0
 10
5.257902171415295
 20
-6.002094081832814
 30
0.0
  0
SPLINE
  5
49
330
43
100
AcDbEntity
  8
1
370
     0
100
AcDbSpline
210
0.0
220
0.0
230
1.0
 70
    11
 71
     3
 72
    44
 73
    40
 74
     0
 42
0.0000000001
 43
0.0000000001
 12
1.0
 22
0.0
 32
0.0
 13
1.0
 23
0.0
 33
0.0
 40
0.0
 40
0.0
 40
0.0
 40
0.0
 40
1.0
 40
1.0
 40
1.0
 40
2.0
 40
2.0
 40
2.0
 40
3.0
 40
3.0
 40
3.0
 40
4.0
 40
4.0
 40
4.0
 40
5.0
 40
5.0
 40
5.0
 40
6.0
 40
6.0
 40
6.0
 40
7.0
 40
7.0
 40
7.0
 40
8.0
 40
8.0
 40
8.0
 40
9.0
 40
9.0
 40
9.0
 40
10.0
 40
10.0
 40
10.0
 40
11.0
 40
11.0
 40
11.0
 40
12.0
 40
12.0
 40
12.0
 40
13.0
 40
13.0
 40
13.0
 40
13.0
 10
2.253022332770084
 20
-3.539849832448372
 30
0.0
 10
2.088620832811175
 20
-2.925864804824085
 30
0.0
 10
2.454387888275285
 20
-2.292621638315722
 30
0.0
 10
3.068337638121796
 20
-2.128223666134597
 30
0.0
 10
3.575970658769388
 20
-1.992277221724158
 30
0.0
 10
4.110443089578304
 20
-2.217208332779044
 30
0.0
 10
4.368895138540199
 20
-2.674923388220155
 30
0.0
 10
4.372856943351227
 20
-2.68191897155174
 30
0.0
 10
4.38112594378372
 20
-2.685295054884224
 30
0.0
 10
4.388809443587698
 20
-2.683294804884721
 30
0.0
 10
4.396595248944621
 20
-2.68119577710749
 30
0.0
 10
4.401968054363105
 20
-2.674133165998136
 30
0.0
 10
4.401901026587037
 20
-2.666068666000139
 30
0.0
 10
4.397110304487036
 20
-2.140450943909345
 30
0.0
 10
4.748028934423245
 20
-1.678499027358147
 30
0.0
 10
5.255249282594087
 20
-1.542658416281004
 30
0.0
 10
5.869304998532666
 20
-1.378154610766583
 30
0.0
 10
6.502544472995158
 20
-1.744059249563982
 30
0.0
 10
6.666910691024048
 20
-2.358008999410492
 30
0.0
 10
6.716038523104026
 20
-2.541460499364637
 30
0.0
 10
6.735779967044825
 20
-2.733833749316534
 30
0.0
 10
6.725683467302408
 20
-2.929861777045308
 30
0.0
 10
6.725683467302408
 20
-2.929914693711972
 30
0.0
 10
6.72571168952391
 20
-2.929957027045284
 30
0.0
 10
6.725701106190847
 20
-2.930016999267484
 30
0.0
 10
6.379072253922974
 20
-2.985568915920267
 30
0.0
 10
6.088154066900471
 20
-3.230791804747866
 30
0.0
 10
5.977343041949719
 20
-3.569373804663222
 30
0.0
 10
5.850907489619803
 20
-3.182937499204278
 30
0.0
 10
5.489825332165109
 20
-2.918043721492706
 30
0.0
 10
5.079033259311955
 20
-2.918043721492706
 30
0.0
 10
4.557169105959152
 20
-2.918043721492706
 30
0.0
 10
4.132629283456732
 20
-3.342583554719906
 30
0.0
 10
4.132629283456732
 20
-3.864447721256095
 30
0.0
 10
4.132629283456732
 20
-4.622747082177634
 30
0.0
 10
4.608741687976759
 20
-5.164761915375495
 30
0.0
 10
5.076447398266814
 20
-5.514354109732547
 30
0.0
 10
4.67703240845674
 20
-5.465984748633518
 30
0.0
 10
2.682917332662599
 20
-5.145549637602483
 30
0.0
 10
2.253022332770084
 20
-3.539849832448372
 30
0.0
  0
SPLINE
  5
4A
330
43
100
AcDbEntity
  8
1
370
     0
100
AcDbSpline
210
0.0
220
0.0
230
1.0
 70
    11
 71
     3
 72
    17
 73
    13
 74
     0
 42
0.0000000001
 43
0.0000000001
 12
1.0
 22
0.0
 32
0.0
 13
1.0
 23
0.0
 33
0.0
 40
0.0
 40
0.0
 40
0.0
 40
0.0
 40
1.0
 40
1.0
 40
1.0
 40
2.0
 40
2.0
 40
2.0
 40
3.0
 40
3.0
 40
3.0
 40
4.0
 40
4.0
 40
4.0
 40
4.0
 10
5.962734514544635
 20
-6.365070665075401
 30
0.0
 10
5.924839126622538
 20
-6.361659303965141
 30
0.0
 10
5.893523044088145
 20
-6.350737303967854
 30
0.0
 10
5.877813850044475
 20
-6.335888887304929
 30
0.0
 10
5.900342238358617
 20
-6.277013803986294
 30
0.0
 10
5.954052653655017
 20
-6.121054276247536
 30
0.0
 10
5.98016526409994
 20
-6.044882498488799
 30
0.0
 10
6.010860457761284
 20
-6.114679581804657
 30
0.0
 10
6.072596567297376
 20
-6.256030581769355
 30
0.0
 10
6.103327038735599
 20
-6.334202609527563
 30
0.0
 10
6.072596567297376
 20
-6.35779991507724
 30
0.0
 10
6.017958346469091
 20
-6.369960165074187
 30
0.0
 10
5.962734514544635
 20
-6.365070665075401
 30
0.0
  0
SPLINE
  5
4B
330
43
100
AcDbEntity
  8
1
370
     0
100
AcDbSpline
210
0.0
220
0.0
230
1.0
 70
    11
 71
     3
 72
    26
 73
    22
 74
     0
 42
0.0000000001
 43
0.0000000001
 12
1.0
 22
0.0
 32
0.0
 13
1.0
 23
0.0
 33
0.0
 40
0.0
 40
0.0
 40
0.0
 40
0.0
 40
1.0
 40
1.0
 40
1.0
 40
2.0
 40
2.0
 40
2.0
 40
3.0
 40
3.0
 40
3.0
 40
4.0
 40
4.0
 40
4.0
 40
5.0
 40
5.0
 40
5.0
 40
6.0
 40
6.0
 40
6.0
 40
7.0
 40
7.0
 40
7.0
 40
7.0
 10
5.976616319746037
 20
-5.974189359617593
 30
0.0
 10
5.856798878358389
 20
-5.929848720739779
 30
0.0
 10
4.167907060334499
 20
-5.277936554236084
 30
0.0
 10
4.167907060334499
 20
-3.864447721256095
 30
0.0
 10
4.167907060334499
 20
-3.362049832492823
 30
0.0
 10
4.576635383240303
 20
-2.953321499261664
 30
0.0
 10
5.079033259311955
 20
-2.953321499261664
 30
0.0
 10
5.494132748721884
 20
-2.953321499261664
 30
0.0
 10
5.856488433921865
 20
-3.234305471413638
 30
0.0
 10
5.960254486830128
 20
-3.636623832424175
 30
0.0
 10
5.964283208949569
 20
-3.652124887975862
 30
0.0
 10
5.990328791618424
 20
-3.652195443531383
 30
0.0
 10
5.994428069291621
 20
-3.636623832424175
 30
0.0
 10
6.098229399976762
 20
-3.234305471413638
 30
0.0
 10
6.460585085176742
 20
-2.953321499261664
 30
0.0
 10
6.875649296809794
 20
-2.953321499261664
 30
0.0
 10
7.378047172881446
 20
-2.953321499261664
 30
0.0
 10
7.78677549578725
 20
-3.362049832492823
 30
0.0
 10
7.78677549578725
 20
-3.864447721256095
 30
0.0
 10
7.78677549578725
 20
-5.121941748719486
 30
0.0
 10
6.095199038942961
 20
-5.919928609631103
 30
0.0
 10
5.976616319746037
 20
-5.974189359617593
 30
0.0
  0
ENDBLK
  5
46
330
43
100
AcDbEntity
  8
0
100
AcDbBlockEnd
  0
BLOCK
  5
4E
330
4C
100
AcDbEntity
  8
0
100
AcDbBlockBegin
  2
block 3
 70
     0
 10
0.0
 20
0.0
 30
0.0
  3
block 3
  1

  0
SPLINE
  5
50
330
4C
100
AcDbEntity
  8
1
370
     0
100
AcDbSpline
210
0.0
220
0.0
230
1.0
 70
    11
 71
     3
 72
    26
 73
    22
 74
     0
 42
0.0000000001
 43
0.0000000001
 12
1.0
 22
0.0
 32
0.0
 13
1.0
 23
0.0
 33
0.0
 40
0.0
 40
0.0
 40
0.0
 40
0.0
 40
1.0
 40
1.0
 40
1.0
 40
2.0
 40
2.0
 40
2.0
 40
3.0
 40
3.0
 40
3.0
 40
4.0
 40
4.0
 40
4.0
 40
5.0
 40
5.0
 40
5.0
 40
6.0
 40
6.0
 40
6.0
 40
7.0
 40
7.0
 40
7.0
 40
7.0
 10
7.466760198395965
 20
-3.426368276921182
 30
0.0
 10
7.438784921331896
 20
-3.357777693604992
 30
0.0
 10
7.385042756036307
 20
-3.285807499178535
 30
0.0
 10
7.315415007812658
 20
-3.223729193638512
 30
0.0
 10
7.24572375959063
 20
-3.16161208254293
 30
0.0
 10
7.168105594904167
 20
-3.11644594366532
 30
0.0
 10
7.096791568945762
 20
-3.096535165892545
 30
0.0
 10
7.021240681984337
 20
-3.075449638120029
 30
0.0
 10
6.960675794640587
 20
-3.084992277006519
 30
0.0
 10
6.926361101071584
 20
-3.123441526996905
 30
0.0
 10
6.857699963934387
 20
-3.200474082533213
 30
0.0
 10
6.9209882956531
 20
-3.365217776936467
 30
0.0
 10
7.070435541840383
 20
-3.498476054680928
 30
0.0
 10
7.170204622628395
 20
-3.587393693547607
 30
0.0
 10
7.279519869839531
 20
-3.636588554646399
 30
0.0
 10
7.361579506634904
 20
-3.636588554646399
 30
0.0
 10
7.402508783368488
 20
-3.636588554646399
 30
0.0
 10
7.436650615830791
 20
-3.624357749093899
 30
0.0
 10
7.459489448581458
 20
-3.598760193544751
 30
0.0
 10
7.493804142150461
 20
-3.560279193554373
 30
0.0
 10
7.496351387014829
 20
-3.49906166579189
 30
0.0
 10
7.466760198395965
 20
-3.426368276921182
 30
0.0
  0
SPLINE
  5
51
330
4C
100
AcDbEntity
  8
1
370
     0
100
AcDbSpline
210
0.0
220
0.0
230
1.0
 70
    11
 71
     3
 72
    26
 73
    22
 74
     0
 42
0.0000000001
 43
0.0000000001
 12
1.0
 22
0.0
 32
0.0
 13
1.0
 23
0.0
 33
0.0
 40
0.0
 40
0.0
 40
0.0
 40
0.0
 40
1.0
 40
1.0
 40
1.0
 40
2.0
 40
2.0
 40
2.0
 40
3.0
 40
3.0
 40
3.0
 40
4.0
 40
4.0
 40
4.0
 40
5.0
 40
5.0
 40
5.0
 40
6.0
 40
6.0
 40
6.0
 40
7.0
 40
7.0
 40
7.0
 40
7.0
 10
7.433168887030586
 20
-3.575265193550619
 30
0.0
 10
7.379493561733434
 20
-3.635519637980019
 30
0.0
 10
7.224154926807564
 20
-3.588183915769625
 30
0.0
 10
7.093930541240976
 20
-3.47215530468753
 30
0.0
 10
6.963706155674387
 20
-3.356052610272098
 30
0.0
 10
6.899041990657441
 20
-3.207123943642669
 30
0.0
 10
6.952681850400086
 20
-3.146936526991037
 30
0.0
 10
6.968013572231163
 20
-3.129745665884232
 30
0.0
 10
6.992919682706866
 20
-3.120961499219768
 30
0.0
 10
7.024373348571083
 20
-3.120961499219768
 30
0.0
 10
7.043218736979186
 20
-3.120961499219768
 30
0.0
 10
7.064406569771973
 20
-3.124094165885635
 30
0.0
 10
7.087280680299517
 20
-3.130504138106259
 30
0.0
 10
7.153532345275963
 20
-3.149003804768309
 30
0.0
 10
7.226186926755723
 20
-3.191446499202133
 30
0.0
 10
7.291920008412066
 20
-3.250049943631943
 30
0.0
 10
7.357653090068409
 20
-3.308614582506192
 30
0.0
 10
7.408125005447429
 20
-3.375966915822689
 30
0.0
 10
7.434064754785651
 20
-3.439667999140094
 30
0.0
 10
7.457976031953401
 20
-3.498370221347632
 30
0.0
 10
7.457665587516877
 20
-3.547808499113041
 30
0.0
 10
7.433168887030586
 20
-3.575265193550619
 30
0.0
  0
ENDBLK
  5
4F
330
4C
100
AcDbEntity
  8
0
100
AcDbBlockEnd
  0
BLOCK
  5
54
330
52
100
AcDbEntity
  8
0
100
AcDbBlockBegin
  2
block 4
 70
     0
 10
0.0
 20
0.0
 30
0.0
  3
block 4
  1

  0
SPLINE
  5
56
330
52
100
AcDbEntity
  8
1
370
     0
100
AcDbSpline
210
0.0
220
0.0
230
1.0
 70
    11
 71
     3
 72
    32
 73
    28
 74
     0
 42
0.0000000001
 43
0.0000000001
 12
1.0
 22
0.0
 32
0.0
 13
1.0
 23
0.0
 33
0.0
 40
0.0
 40
0.0
 40
0.0
 40
0.0
 40
1.0
 40
1.0
 40
1.0
 40
2.0
 40
2.0
 40
2.0
 40
3.0
 40
3.0
 40
3.0
 40
4.0
 40
4.0
 40
4.0
 40
5.0
 40
5.0
 40
5.0
 40
6.0
 40
6.0
 40
6.0
 40
7.0
 40
7.0
 40
7.0
 40
8.0
 40
8.0
 40
8.0
 40
9.0
 40
9.0
 40
9.0
 40
9.0
 10
7.617618555658359
 20
-3.695738804631611
 30
0.0
 10
7.615000944614029
 20
-3.676999249080759
 30
0.0
 10
7.605253886987587
 20
-3.66042927686266
 30
0.0
 10
7.590130111915204
 20
-3.649059249087731
 30
0.0
 10
7.575003001190017
 20
-3.637622193535035
 30
0.0
 10
7.556263446112547
 20
-3.632764443536241
 30
0.0
 10
7.537693224364091
 20
-3.635484360202243
 30
0.0
 10
7.518953669286621
 20
-3.638105499090484
 30
0.0
 10
7.502380169709446
 20
-3.647852749088031
 30
0.0
 10
7.490978392222552
 20
-3.662944582417605
 30
0.0
 10
7.479608364734847
 20
-3.678068165747139
 30
0.0
 10
7.474785892635657
 20
-3.696670137964734
 30
0.0
 10
7.477403503679987
 20
-3.715413221293369
 30
0.0
 10
7.480024642502006
 20
-3.734152776844252
 30
0.0
 10
7.489771892253333
 20
-3.750722749062319
 30
0.0
 10
7.504895475200831
 20
-3.762092776837248
 30
0.0
 10
7.517299141551054
 20
-3.771462554612706
 30
0.0
 10
7.53207700228515
 20
-3.77639086016702
 30
0.0
 10
7.547306418563283
 20
-3.77639086016702
 30
0.0
 10
7.550647224033606
 20
-3.77639086016702
 30
0.0
 10
7.553988029503931
 20
-3.776147443500403
 30
0.0
 10
7.557332362751944
 20
-3.775667665722737
 30
0.0
 10
7.576071917829413
 20
-3.773050054612279
 30
0.0
 10
7.5926418896289
 20
-3.763299276836948
 30
0.0
 10
7.604047194893482
 20
-3.748210971285158
 30
0.0
 10
7.615413886985063
 20
-3.73308386017784
 30
0.0
 10
7.620239694480377
 20
-3.714481887960278
 30
0.0
 10
7.617618555658359
 20
-3.695738804631611
 30
0.0
  0
SPLINE
  5
57
330
52
100
AcDbEntity
  8
1
370
     0
100
AcDbSpline
210
0.0
220
0.0
230
1.0
 70
    11
 71
     3
 72
    32
 73
    28
 74
     0
 42
0.0000000001
 43
0.0000000001
 12
1.0
 22
0.0
 32
0.0
 13
1.0
 23
0.0
 33
0.0
 40
0.0
 40
0.0
 40
0.0
 40
0.0
 40
1.0
 40
1.0
 40
1.0
 40
2.0
 40
2.0
 40
2.0
 40
3.0
 40
3.0
 40
3.0
 40
4.0
 40
4.0
 40
4.0
 40
5.0
 40
5.0
 40
5.0
 40
6.0
 40
6.0
 40
6.0
 40
7.0
 40
7.0
 40
7.0
 40
8.0
 40
8.0
 40
8.0
 40
9.0
 40
9.0
 40
9.0
 40
9.0
 10
7.575867498106025
 20
-3.72695258240161
 30
0.0
 10
7.570145251313948
 20
-3.734533776844157
 30
0.0
 10
7.56184439041461
 20
-3.739423276842911
 30
0.0
 10
7.552439335098997
 20
-3.740732082398156
 30
0.0
 10
7.543171863113208
 20
-3.742111443508921
 30
0.0
 10
7.53366450224465
 20
-3.739666693509528
 30
0.0
 10
7.526118585770496
 20
-3.733948165733163
 30
0.0
 10
7.518541109231468
 20
-3.728226110179047
 30
0.0
 10
7.513647891644205
 20
-3.719925249070033
 30
0.0
 10
7.51233908612204
 20
-3.710520193516799
 30
0.0
 10
7.511030280599875
 20
-3.701115137963598
 30
0.0
 10
7.513439752760626
 20
-3.691777110188164
 30
0.0
 10
7.519158280392512
 20
-3.684199443523401
 30
0.0
 10
7.524876808024398
 20
-3.676621776858606
 30
0.0
 10
7.533181387005617
 20
-3.671728749082069
 30
0.0
 10
7.542586252017037
 20
-3.670419943526824
 30
0.0
 10
7.544272529751794
 20
-3.670176526860239
 30
0.0
 10
7.545962335264239
 20
-3.670074221304695
 30
0.0
 10
7.547648612998996
 20
-3.670074221304695
 30
0.0
 10
7.555296835026097
 20
-3.670074221304695
 30
0.0
 10
7.562705168170427
 20
-3.672518971304088
 30
0.0
 10
7.568907001345539
 20
-3.6772073879696
 30
0.0
 10
7.576484667818883
 20
-3.682925915745933
 30
0.0
 10
7.581377695471829
 20
-3.691226776854978
 30
0.0
 10
7.582686500993995
 20
-3.70063183240818
 30
0.0
 10
7.58399530651616
 20
-3.710036887961382
 30
0.0
 10
7.581585834355408
 20
-3.719374915736815
 30
0.0
 10
7.575867498106025
 20
-3.72695258240161
 30
0.0
  0
ENDBLK
  5
55
330
52
100
AcDbEntity
  8
0
100
AcDbBlockEnd
  0
BLOCK
  5
5A
330
58
100
AcDbEntity
  8
0
100
AcDbBlockBegin
  2
block 5
 70
     0
 10
0.0
 20
0.0
 30
0.0
  3
block 5
  1

  0
SPLINE
  5
5C
330
58
100
AcDbEntity
  8
1
370
     0
100
AcDbSpline
210
0.0
220
0.0
230
1.0
 70
    11
 71
     3
 72
    26
 73
    22
 74
     0
 42
0.0000000001
 43
0.0000000001
 12
1.0
 22
0.0
 32
0.0
 13
1.0
 23
0.0
 33
0.0
 40
0.0
 40
0.0
 40
0.0
 40
0.0
 40
1.0
 40
1.0
 40
1.0
 40
2.0
 40
2.0
 40
2.0
 40
3.0
 40
3.0
 40
3.0
 40
4.0
 40
4.0
 40
4.0
 40
5.0
 40
5.0
 40
5.0
 40
6.0
 40
6.0
 40
6.0
 40
7.0
 40
7.0
 40
7.0
 40
7.0
 10
5.443971277779388
 20
-3.171292304762741
 30
0.0
 10
5.375380831989474
 20
-3.135912221438238
 30
0.0
 10
5.302412142501973
 20
-3.118961249220265
 30
0.0
 10
5.238023144144674
 20
-3.123028776997008
 30
0.0
 10
5.170603784753574
 20
-3.127576082551448
 30
0.0
 10
5.120512869364833
 20
-3.155103332544547
 30
0.0
 10
5.09704961996343
 20
-3.200541110310981
 30
0.0
 10
5.049403454512318
 20
-3.29280308251012
 30
0.0
 10
5.127159202528604
 20
-3.424473860255007
 30
0.0
 10
5.274024115448435
 20
-3.500335193569359
 30
0.0
 10
5.335693331999395
 20
-3.532166332450281
 30
0.0
 10
5.401010001097644
 20
-3.549254888001574
 30
0.0
 10
5.460234332920038
 20
-3.549254888001574
 30
0.0
 10
5.466880666083809
 20
-3.549254888001574
 30
0.0
 10
5.473463499249201
 20
-3.549014999112741
 30
0.0
 10
5.479972249083149
 20
-3.54859872133506
 30
0.0
 10
5.547395276390922
 20
-3.544051415780651
 30
0.0
 10
5.597486051640677
 20
-3.516527693565305
 30
0.0
 10
5.620945773264392
 20
-3.471086388021118
 30
0.0
 10
5.668591938715504
 20
-3.378792665821956
 30
0.0
 10
5.590836190699219
 20
-3.2471218880771
 30
0.0
 10
5.443971277779388
 20
-3.171292304762741
 30
0.0
  0
SPLINE
  5
5D
330
58
100
AcDbEntity
  8
1
370
     0
100
AcDbSpline
210
0.0
220
0.0
230
1.0
 70
    11
 71
     3
 72
    26
 73
    22
 74
     0
 42
0.0000000001
 43
0.0000000001
 12
1.0
 22
0.0
 32
0.0
 13
1.0
 23
0.0
 33
0.0
 40
0.0
 40
0.0
 40
0.0
 40
0.0
 40
1.0
 40
1.0
 40
1.0
 40
2.0
 40
2.0
 40
2.0
 40
3.0
 40
3.0
 40
3.0
 40
4.0
 40
4.0
 40
4.0
 40
5.0
 40
5.0
 40
5.0
 40
6.0
 40
6.0
 40
6.0
 40
7.0
 40
7.0
 40
7.0
 40
7.0
 10
5.589594412953121
 20
-3.454893888025172
 30
0.0
 10
5.572026080067993
 20
-3.48896516579443
 30
0.0
 10
5.53223627552756
 20
-3.509740249122561
 30
0.0
 10
5.477594526921587
 20
-3.513391499121654
 30
0.0
 10
5.419372220867407
 20
-3.517145054676259
 30
0.0
 10
5.353159224540641
 20
-3.501471138013507
 30
0.0
 10
5.290216615035329
 20
-3.468983832466102
 30
0.0
 10
5.165227451557402
 20
-3.404421971371127
 30
0.0
 10
5.091126481225653
 20
-3.288908415844442
 30
0.0
 10
5.128401109828989
 20
-3.216733610306927
 30
0.0
 10
5.14596944315798
 20
-3.182662332537669
 30
0.0
 10
5.185762776481322
 20
-3.161887249209539
 30
0.0
 10
5.240400866306235
 20
-3.158235999210446
 30
0.0
 10
5.246154671714999
 20
-3.157858526988325
 30
0.0
 10
5.252010782676708
 20
-3.157650388099484
 30
0.0
 10
5.257902171415295
 20
-3.157650388099484
 30
0.0
 10
5.311475003381871
 20
-3.157650388099484
 30
0.0
 10
5.37107327963917
 20
-3.17335958253998
 30
0.0
 10
5.427778778192493
 20
-3.202643665865997
 30
0.0
 10
5.55276794167042
 20
-3.267170249183196
 30
0.0
 10
5.626872439779858
 20
-3.382683804709882
 30
0.0
 10
5.589594412953121
 20
-3.454893888025172
 30
0.0
  0
ENDBLK
  5
5B
330
58
100
AcDbEntity
  8
0
100
AcDbBlockEnd
  0
BLOCK
  5
60
330
5E
100
AcDbEntity
  8
0
100
AcDbBlockBegin
  2
block 6
 70
     0
 10
0.0
 20
0.0
 30
0.0
  3
block 6
  1

  0
INSERT
  5
63
330
5E
100
AcDbEntity
  8
1
100
AcDbBlockReference
  2
block 7
 10
0.0
 20
0.0
 30
0.0
  0
ENDBLK
  5
61
330
5E
100
AcDbEntity
  8
0
100
AcDbBlockEnd
  0
BLOCK
  5
64
330
62
100
AcDbEntity
  8
0
100
AcDbBlockBegin
  2
block 7
 70
     0
 10
0.0
 20
0.0
 30
0.0
  3
block 7
  1

  0
SPLINE
  5
66
330
62
100
AcDbEntity
  8
1
370
     0
100
AcDbSpline
210
0.0
220
0.0
230
1.0
 70
    11
 71
     3
 72
    29
 73
    25
 74
     0
 42
0.0000000001
 43
0.0000000001
 12
1.0
 22
0.0
 32
0.0
 13
1.0
 23
0.0
 33
0.0
 40
0.0
 40
0.0
 40
0.0
 40
0.0
 40
1.0
 40
1.0
 40
1.0
 40
2.0
 40
2.0
 40
2.0
 40
3.0
 40
3.0
 40
3.0
 40
4.0
 40
4.0
 40
4.0
 40
5.0
 40
5.0
 40
5.0
 40
6.0
 40
6.0
 40
6.0
 40
7.0
 40
7.0
 40
7.0
 40
8.0
 40
8.0
 40
8.0
 40
8.0
 10
6.175607675780455
 20
-2.208907471669998
 30
0.0
 10
6.163722592750335
 20
-2.208907471669998
 30
0.0
 10
6.151283648623235
 20
-2.208321860559036
 30
0.0
 10
6.138262776243197
 20
-2.207115360559336
 30
0.0
 10
6.052340067814162
 20
-2.199329555005732
 30
0.0
 10
5.950091109623611
 20
-2.166634110569455
 30
0.0
 10
5.850321878523632
 20
-2.115096805026782
 30
0.0
 10
5.750517519958741
 20
-2.063555971706326
 30
0.0
 10
5.664665522149009
 20
-1.999099943944679
 30
0.0
 10
5.608577384691047
 20
-1.933610277294364
 30
0.0
 10
5.548943830656871
 20
-1.863947249534011
 30
0.0
 10
5.529375247822773
 20
-1.799939249550006
 30
0.0
 10
5.553424108320347
 20
-1.753397277339415
 30
0.0
 10
5.60103499599458
 20
-1.661170582918053
 30
0.0
 10
5.806154101872668
 20
-1.675500416247784
 30
0.0
 10
6.020233763077707
 20
-1.786053916220164
 30
0.0
 10
6.234345174281937
 20
-1.896642693970288
 30
0.0
 10
6.364742420955226
 20
-2.055530277263889
 30
0.0
 10
6.317131533280992
 20
-2.147788721685275
 30
0.0
 10
6.317131533280992
 20
-2.147788721685275
 30
0.0
 10
6.317131533280992
 20
-2.147788721685275
 30
0.0
 10
6.317131533280992
 20
-2.147788721685275
 30
0.0
 10
6.296529311584376
 20
-2.18771963834197
 30
0.0
 10
6.246886423961983
 20
-2.208907471669998
 30
0.0
 10
6.175607675780455
 20
-2.208907471669998
 30
0.0
  0
SPLINE
  5
67
330
62
100
AcDbEntity
  8
1
370
     0
100
AcDbSpline
210
0.0
220
0.0
230
1.0
 70
    11
 71
     3
 72
    26
 73
    22
 74
     0
 42
0.0000000001
 43
0.0000000001
 12
1.0
 22
0.0
 32
0.0
 13
1.0
 23
0.0
 33
0.0
 40
0.0
 40
0.0
 40
0.0
 40
0.0
 40
1.0
 40
1.0
 40
1.0
 40
2.0
 40
2.0
 40
2.0
 40
3.0
 40
3.0
 40
3.0
 40
4.0
 40
4.0
 40
4.0
 40
5.0
 40
5.0
 40
5.0
 40
6.0
 40
6.0
 40
6.0
 40
7.0
 40
7.0
 40
7.0
 40
7.0
 10
5.695808887464941
 20
-1.72731641623485
 30
0.0
 10
5.638619939480153
 20
-1.72731641623485
 30
0.0
 10
5.59886188493891
 20
-1.742337694008871
 30
0.0
 10
5.584771940853931
 20
-1.769586249557609
 30
0.0
 10
5.567993830170865
 20
-1.802073555105045
 30
0.0
 10
5.586426468589497
 20
-1.853476805092181
 30
0.0
 10
5.635381439562774
 20
-1.91066561063345
 30
0.0
 10
5.688573271539071
 20
-1.972779193951249
 30
0.0
 10
5.77067171388901
 20
-2.034275416158093
 30
0.0
 10
5.866514378110526
 20
-2.083745443923494
 30
0.0
 10
5.962353514554355
 20
-2.133250749466703
 30
0.0
 10
6.059988289841263
 20
-2.164566832792183
 30
0.0
 10
6.141465843318152
 20
-2.171975166123666
 30
0.0
 10
6.216501674737162
 20
-2.178864916121955
 30
0.0
 10
6.269002220654961
 20
-2.164087055014518
 30
0.0
 10
6.28578017296972
 20
-2.131599749467113
 30
0.0
 10
6.318990831753556
 20
-2.067277777260971
 30
0.0
 10
6.213675924809253
 20
-1.925683360629688
 30
0.0
 10
6.004041263490812
 20
-1.81740527732342
 30
0.0
 10
5.883257211016715
 20
-1.755048277339005
 30
0.0
 10
5.773493936039231
 20
-1.72731641623485
 30
0.0
 10
5.695808887464941
 20
-1.72731641623485
 30
0.0
  0
SPLINE
  5
68
330
62
100
AcDbEntity
  8
1
370
     0
100
AcDbSpline
210
0.0
220
0.0
230
1.0
 70
    27
 71
     3
 72
    11
 73
     7
 74
     0
 42
0.0000000001
 43
0.0000000001
 12
1.0
 22
0.0
 32
0.0
 13
1.0
 23
0.0
 33
0.0
 40
0.0
 40
0.0
 40
0.0
 40
0.0
 40
1.0
 40
1.0
 40
1.0
 40
2.0
 40
2.0
 40
2.0
 40
2.0
 10
6.301457776202406
 20
-2.139692471687286
 30
0.0
 10
6.301457776202406
 20
-2.139692471687286
 30
0.0
 10
6.301799811449914
 20
-2.139692471687286
 30
0.0
 10
6.301799811449914
 20
-2.139692471687286
 30
0.0
 10
6.301799811449914
 20
-2.139692471687286
 30
0.0
 10
6.301457776202406
 20
-2.139692471687286
 30
0.0
 10
6.301457776202406
 20
-2.139692471687286
 30
0.0
  0
ENDBLK
  5
65
330
62
100
AcDbEntity
  8
0
100
AcDbBlockEnd
  0
ENDSEC
  0
SECTION
  2
ENTITIES
  0
SPLINE
  5
41
330
1F
100
AcDbEntity
  8
1
 62
    12
420
 13631511
370
     9
100
AcDbSpline
210
0.0
220
0.0
230
1.0
 70
    11
 71
     3
 72
   116
 73
   112
 74
     0
 42
0.0000000001
 43
0.0000000001
 12
1.0
 22
0.0
 32
0.0
 13
1.0
 23
0.0
 33
0.0
 40
0.0
 40
0.0
 40
0.0
 40
0.0
 40
1.0
 40
1.0
 40
1.0
 40
2.0
 40
2.0
 40
2.0
 40
3.0
 40
3.0
 40
3.0
 40
4.0
 40
4.0
 40
4.0
 40
5.0
 40
5.0
 40
5.0
 40
6.0
 40
6.0
 40
6.0
 40
7.0
 40
7.0
 40
7.0
 40
8.0
 40
8.0
 40
8.0
 40
9.0
 40
9.0
 40
9.0
 40
10.0
 40
10.0
 40
10.0
 40
11.0
 40
11.0
 40
11.0
 40
12.0
 40
12.0
 40
12.0
 40
13.0
 40
13.0
 40
13.0
 40
14.0
 40
14.0
 40
14.0
 40
15.0
 40
15.0
 40
15.0
 40
16.0
 40
16.0
 40
16.0
 40
17.0
 40
17.0
 40
17.0
 40
18.0
 40
18.0
 40
18.0
 40
19.0
 40
19.0
 40
19.0
 40
20.0
 40
20.0
 40
20.0
 40
21.0
 40
21.0
 40
21.0
 40
22.0
 40
22.0
 40
22.0
 40
23.0
 40
23.0
 40
23.0
 40
24.0
 40
24.0
 40
24.0
 40
25.0
 40
25.0
 40
25.0
 40
26.0
 40
26.0
 40
26.0
 40
27.0
 40
27.0
 40
27.0
 40
28.0
 40
28.0
 40
28.0
 40
29.0
 40
29.0
 40
29.0
 40
30.0
 40
30.0
 40
30.0
 40
31.0
 40
31.0
 40
31.0
 40
32.0
 40
32.0
 40
32.0
 40
33.0
 40
33.0
 40
33.0
 40
34.0
 40
34.0
 40
34.0
 40
35.0
 40
35.0
 40
35.0
 40
36.0
 40
36.0
 40
36.0
 40
37.0
 40
37.0
 40
37.0
 40
37.0
 10
8.000001434791848
 20
-3.864447721256095
 30
0.0
 10
8.000001434791848
 20
-3.265903776961295
 30
0.0
 10
7.529889780118729
 20
-2.775133443750674
 30
0.0
 10
6.93950560073624
 20
-2.741940582647843
 30
0.0
 10
6.933250850895812
 20
-2.592147610463059
 30
0.0
 10
6.910962351464438
 20
-2.44512747161094
 30
0.0
 10
6.872869407991826
 20
-2.302869832757607
 30
0.0
 10
6.778497827066112
 20
-1.950402499512409
 30
0.0
 10
6.552518971720202
 20
-1.655811888474922
 30
0.0
 10
6.23661000755749
 20
-1.473344638520564
 30
0.0
 10
5.920634165186498
 20
-1.290884444121711
 30
0.0
 10
5.552577441675281
 20
-1.242306944133873
 30
0.0
 10
5.200180672887893
 20
-1.336710277443587
 30
0.0
 10
4.751387498812167
 20
-1.456894610746897
 30
0.0
 10
4.406455387581957
 20
-1.788456332886212
 30
0.0
 10
4.262285696815588
 20
-2.210509082780708
 30
0.0
 10
4.004412203394488
 20
-1.984985305059324
 30
0.0
 10
3.670659739687001
 20
-1.865464193978064
 30
0.0
 10
3.32640163805728
 20
-1.876333277308687
 30
0.0
 10
3.338060943609922
 20
-1.844311638427813
 30
0.0
 10
3.34475313805269
 20
-1.809894638436425
 30
0.0
 10
3.34475313805269
 20
-1.773840749556552
 30
0.0
 10
3.34475313805269
 20
-1.608151610709071
 30
0.0
 10
3.210429471419601
 20
-1.47383499963155
 30
0.0
 10
3.044747388127687
 20
-1.47383499963155
 30
0.0
 10
2.879065304835774
 20
-1.47383499963155
 30
0.0
 10
2.744748693758253
 20
-1.608151610709071
 30
0.0
 10
2.744748693758253
 20
-1.773840749556552
 30
0.0
 10
2.744748693758253
 20
-1.856129693980415
 30
0.0
 10
2.777934499305516
 20
-1.930636360628458
 30
0.0
 10
2.831591999292092
 20
-1.984837138392684
 30
0.0
 10
2.559946054915583
 20
-2.099789777252831
 30
0.0
 10
2.33385077719431
 20
-2.298590638314239
 30
0.0
 10
2.183687388342972
 20
-2.558496138249266
 30
0.0
 10
2.001220138388582
 20
-2.874472138170269
 30
0.0
 10
1.952713193956265
 20
-3.242571054744908
 30
0.0
 10
2.047056555043778
 20
-3.59497136021237
 30
0.0
 10
2.481784610490663
 20
-5.218489970917592
 30
0.0
 10
4.35846361002148
 20
-5.623873970816259
 30
0.0
 10
4.947990554318551
 20
-5.711973165238646
 30
0.0
 10
4.940317512850888
 20
-5.819125887434119
 30
0.0
 10
4.931392235300813
 20
-5.936868998515756
 30
0.0
 10
4.926672068754568
 20
-5.976556498505834
 30
0.0
 10
4.918575818961121
 20
-6.041834498489556
 30
0.0
 10
4.94364773498815
 20
-6.106350498473403
 30
0.0
 10
4.9942044431959
 20
-6.149579887351526
 30
0.0
 10
5.066181565195384
 20
-6.210659831780657
 30
0.0
 10
5.173161423577212
 20
-6.233089442886161
 30
0.0
 10
5.29430883715315
 20
-6.212148554002502
 30
0.0
 10
5.322816943113733
 20
-6.207216720670436
 30
0.0
 10
5.387749084769291
 20
-6.192953915118442
 30
0.0
 10
5.455150805271952
 20
-6.157916026238284
 30
0.0
 10
5.496743304210839
 20
-6.329895192861955
 30
0.0
 10
5.48788858221452
 20
-6.566736081691667
 30
0.0
 10
5.402407001062003
 20
-6.935974470488238
 30
0.0
 10
5.231771922081934
 20
-7.673033081415086
 30
0.0
 10
5.360384113245208
 20
-8.035364081324511
 30
0.0
 10
5.524690359053406
 20
-8.317000692365184
 30
0.0
 10
5.55962241371777
 20
-8.376891775683566
 30
0.0
 10
5.624350078733097
 20
-8.414081609007619
 30
0.0
 10
5.693653271409469
 20
-8.414081609007619
 30
0.0
 10
5.723480631759621
 20
-8.414081609007619
 30
0.0
 10
5.752891714342615
 20
-8.407244775675963
 30
0.0
 10
5.778799713681647
 20
-8.39463649790131
 30
0.0
 10
5.783131824682237
 20
-8.48856710898899
 30
0.0
 10
5.819316387434071
 20
-8.576200636744847
 30
0.0
 10
5.885493822070765
 20
-8.647729858949168
 30
0.0
 10
5.92240848779566
 20
-8.687530247828143
 30
0.0
 10
5.974697208683886
 20
-8.71036908115576
 30
0.0
 10
6.028975596188018
 20
-8.71036908115576
 30
0.0
 10
6.078135178267186
 20
-8.71036908115576
 30
0.0
 10
6.125153399289873
 20
-8.692042275604775
 30
0.0
 10
6.161965759461823
 20
-8.658217942279885
 30
0.0
 10
6.240846868560509
 20
-8.585055358964864
 30
0.0
 10
6.245644646215885
 20
-8.461202136773604
 30
0.0
 10
6.172478536971397
 20
-8.381964720126737
 30
0.0
 10
6.170397148135609
 20
-8.379710470127264
 30
0.0
 10
6.169733925930307
 20
-8.378461636794283
 30
0.0
 10
6.169733925930307
 20
-8.378461636794283
 30
0.0
 10
6.16928589816396
 20
-8.376824747905765
 30
0.0
 10
6.168802592620734
 20
-8.367486720130332
 30
0.0
 10
6.174634165123024
 20
-8.350856775690033
 30
0.0
 10
6.187235231039367
 20
-8.314986331254577
 30
0.0
 10
6.21688620250513
 20
-8.268941775710571
 30
0.0
 10
6.245577776216414
 20
-8.224431803499444
 30
0.0
 10
6.245577776216414
 20
-8.224396525721668
 30
0.0
 10
6.247514368390407
 20
-8.221373220166882
 30
0.0
 10
6.247549646167284
 20
-8.221337942389106
 30
0.0
 10
6.259459423641219
 20
-8.202831220171486
 30
0.0
 10
6.271372728892841
 20
-8.184285692398404
 30
0.0
 10
6.282721589714418
 20
-8.165683720180777
 30
0.0
 10
6.527030777926016
 20
-7.765534942503089
 30
0.0
 10
6.544221638598551
 20
-7.320428164836566
 30
0.0
 10
6.331126387306112
 20
-6.912260748271913
 30
0.0
 10
6.282379395278704
 20
-6.818961609406387
 30
0.0
 10
6.214011063689592
 20
-6.733056692761175
 30
0.0
 10
6.153523787454973
 20
-6.657085998335711
 30
0.0
 10
6.130399204711597
 20
-6.627988887231863
 30
0.0
 10
6.106928899754819
 20
-6.598542526128133
 30
0.0
 10
6.085257761418807
 20
-6.569448942802102
 30
0.0
 10
6.15581331517434
 20
-6.554551137250265
 30
0.0
 10
6.216921480282007
 20
-6.523199776147008
 30
0.0
 10
6.262518006896521
 20
-6.477567970602804
 30
0.0
 10
6.316923394397413
 20
-6.423197859505297
 30
0.0
 10
6.334389421729595
 20
-6.341558026192414
 30
0.0
 10
6.30678808910043
 20
-6.269168026210458
 30
0.0
 10
6.289322220649915
 20
-6.223649109555216
 30
0.0
 10
6.259565256971852
 20
-6.153153526239467
 30
0.0
 10
6.230573979933704
 20
-6.085825887367426
 30
0.0
 10
6.707063856666323
 20
-5.83454227631915
 30
0.0
 10
8.000001434791848
 20
-5.043875554294575
 30
0.0
 10
8.000001434791848
 20
-3.864447721256095
 30
0.0
  0
SPLINE
  5
42
330
1F
100
AcDbEntity
  8
1
 62
    12
420
 13631511
370
     9
100
AcDbSpline
210
0.0
220
0.0
230
1.0
 70
    11
 71
     3
 72
    17
 73
    13
 74
     0
 42
0.0000000001
 43
0.0000000001
 12
1.0
 22
0.0
 32
0.0
 13
1.0
 23
0.0
 33
0.0
 40
0.0
 40
0.0
 40
0.0
 40
0.0
 40
1.0
 40
1.0
 40
1.0
 40
2.0
 40
2.0
 40
2.0
 40
3.0
 40
3.0
 40
3.0
 40
4.0
 40
4.0
 40
4.0
 40
4.0
 10
3.044747388127687
 20
-1.923841860630145
 30
0.0
 10
2.961908110370639
 20
-1.923841860630145
 30
0.0
 10
2.894746277054094
 20
-1.856680027313601
 30
0.0
 10
2.894746277054094
 20
-1.773840749556552
 30
0.0
 10
2.894746277054094
 20
-1.690997944021688
 30
0.0
 10
2.961908110370639
 20
-1.623843166260711
 30
0.0
 10
3.044747388127687
 20
-1.623843166260711
 30
0.0
 10
3.127593721440336
 20
-1.623843166260711
 30
0.0
 10
3.194744971423528
 20
-1.690997944021688
 30
0.0
 10
3.194744971423528
 20
-1.773840749556552
 30
0.0
 10
3.194744971423528
 20
-1.856680027313601
 30
0.0
 10
3.127593721440336
 20
-1.923841860630145
 30
0.0
 10
3.044747388127687
 20
-1.923841860630145
 30
0.0
  0
INSERT
  5
44
330
1F
100
AcDbEntity
  8
1
100
AcDbBlockReference
  2
block 2
 10
0.0
 20
0.0
 30
0.0
  0
INSERT
  5
4D
330
1F
100
AcDbEntity
  8
1
100
AcDbBlockReference
  2
block 3
 10
0.0
 20
0.0
 30
0.0
  0
INSERT
  5
53
330
1F
100
AcDbEntity
  8
1
100
AcDbBlockReference
  2
block 4
 10
0.0
 20
0.0
 30
0.0
  0
INSERT
  5
59
330
1F
100
AcDbEntity
  8
1
100
AcDbBlockReference
  2
block 5
 10
0.0
 20
0.0
 30
0.0
  0
INSERT
  5
5F
330
1F
100
AcDbEntity
  8
1
100
AcDbBlockReference
  2
block 6
 10
0.0
 20
0.0
 30
0.0
  0
HATCH
  5
69
330
1F
100
AcDbEntity
  8
1
 62
     7
420
 16777215
100
AcDbHatch
 10
0.0
 20
0.0
 30
0.0
210
0.0
220
0.0
230
1.0
  2
SOLID
 70
     1
 71
     0
 91
       14
 92
        1
 93
        1
 72
     4
 94
        3
 73
     0
 74
     1
 95
      164
 96
      160
 40
0.0
 40
0.0
 40
0.0
 40
0.0
 40
1.0
 40
1.0
 40
1.0
 40
2.0
 40
2.0
 40
2.0
 40
3.0
 40
3.0
 40
3.0
 40
4.0
 40
4.0
 40
4.0
 40
5.0
 40
5.0
 40
5.0
 40
6.0
 40
6.0
 40
6.0
 40
7.0
 40
7.0
 40
7.0
 40
8.0
 40
8.0
 40
8.0
 40
9.0
 40
9.0
 40
9.0
 40
10.0
 40
10.0
 40
10.0
 40
11.0
 40
11.0
 40
11.0
 40
12.0
 40
12.0
 40
12.0
 40
13.0
 40
13.0
 40
13.0
 40
14.0
 40
14.0
 40
14.0
 40
15.0
 40
15.0
 40
15.0
 40
16.0
 40
16.0
 40
16.0
 40
17.0
 40
17.0
 40
17.0
 40
18.0
 40
18.0
 40
18.0
 40
19.0
 40
19.0
 40
19.0
 40
20.0
 40
20.0
 40
20.0
 40
21.0
 40
21.0
 40
21.0
 40
22.0
 40
22.0
 40
22.0
 40
23.0
 40
23.0
 40
23.0
 40
24.0
 40
24.0
 40
24.0
 40
25.0
 40
25.0
 40
25.0
 40
26.0
 40
26.0
 40
26.0
 40
27.0
 40
27.0
 40
27.0
 40
28.0
 40
28.0
 40
28.0
 40
29.0
 40
29.0
 40
29.0
 40
30.0
 40
30.0
 40
30.0
 40
31.0
 40
31.0
 40
31.0
 40
32.0
 40
32.0
 40
32.0
 40
33.0
 40
33.0
 40
33.0
 40
34.0
 40
34.0
 40
34.0
 40
35.0
 40
35.0
 40
35.0
 40
36.0
 40
36.0
 40
36.0
 40
37.0
 40
37.0
 40
37.0
 40
38.0
 40
38.0
 40
38.0
 40
39.0
 40
39.0
 40
39.0
 40
40.0
 40
40.0
 40
40.0
 40
41.0
 40
41.0
 40
41.0
 40
42.0
 40
42.0
 40
42.0
 40
43.0
 40
43.0
 40
43.0
 40
44.0
 40
44.0
 40
44.0
 40
45.0
 40
45.0
 40
45.0
 40
46.0
 40
46.0
 40
46.0
 40
47.0
 40
47.0
 40
47.0
 40
48.0
 40
48.0
 40
48.0
 40
49.0
 40
49.0
 40
49.0
 40
50.0
 40
50.0
 40
50.0
 40
51.0
 40
51.0
 40
51.0
 40
52.0
 40
52.0
 40
52.0
 40
53.0
 40
53.0
 40
53.0
 40
53.0
 10
7.822053272665017
 20
-3.864447721256095
 10
7.822053272665017
 20
-3.342583554719906
 10
7.397513450162597
 20
-2.918043721492706
 10
6.875649296809794
 20
-2.918043721492706
 10
6.836900186687255
 20
-2.918043721492706
 10
6.798789604326203
 20
-2.921137582603045
 10
6.761084716399247
 20
-2.925727221490797
 10
6.770722776085078
 20
-2.728108165984633
 10
6.75057546666736
 20
-2.534062749366475
 10
6.701017245709473
 20
-2.348914388301675
 10
6.531553388921745
 20
-1.716119249570986
 10
5.87874165557636
 20
-1.339225582998532
 10
5.246154671714999
 20
-1.50855186073397
 10
4.743446351206823
 20
-1.643185971811412
 10
4.389737249119583
 20
-2.088603193922288
 10
4.367653360794101
 20
-2.604265527126726
 10
4.090909784521084
 20
-2.168563805013406
 10
3.561848964685217
 20
-1.959550027287889
 10
3.059243027012979
 20
-2.094117110587595
 10
2.426447888282289
 20
-2.263580971656322
 10
2.049483666154283
 20
-2.916219860382051
 10
2.21891577722305
 20
-3.548944443557221
 10
2.676147527108743
 20
-5.256575859796992
 10
4.871120276559988
 20
-5.529255443062136
 10
5.119891980491784
 20
-5.554715415277996
 10
5.120512869364833
 20
-5.554782443055732
 10
5.121098609830867
 20
-5.554817720833508
 10
5.121715841556365
 20
-5.554817720833508
 10
5.124361674822197
 20
-5.554817720833508
 10
5.126799369204451
 20
-5.554076887500337
 10
5.129071387606607
 20
-5.553007970833989
 10
5.131724146856587
 20
-5.554912970833517
 10
5.134359396789356
 20
-5.556765054166379
 10
5.136998174499813
 20
-5.558648887499202
 10
5.134257220938674
 20
-5.59941235971126
 10
5.112554202901209
 20
-5.92003091518668
 10
5.103216175361664
 20
-5.9983722762782
 10
5.102492980935669
 20
-6.004263665165597
 10
5.104803675321163
 20
-6.010088026275258
 10
5.109315832056009
 20
-6.013912137385384
 10
5.131089146872787
 20
-6.032411804047435
 10
5.165435590440981
 20
-6.042021470711693
 10
5.207363228260206
 20
-6.042021470711693
 10
5.22500211669909
 20
-6.042021470711693
 10
5.243985088437016
 20
-6.040299915156615
 10
5.263931143483705
 20
-6.03685680404633
 10
5.330870725109268
 20
-6.0252468873826
 10
5.422543556103832
 20
-5.988279304058461
 10
5.460611943079314
 20
-5.922341609630504
 10
5.464125471709656
 20
-5.916312637409819
 10
5.463712721720186
 20
-5.908801998522792
 10
5.459613444046989
 20
-5.903150498524195
 10
5.412327111920031
 20
-5.838055942984922
 10
5.321973669780695
 20
-5.723533693013592
 10
5.254949421490626
 20
-5.639480859701243
 10
5.317631109781731
 20
-5.680650026357599
 10
5.37891200166141
 20
-5.718182054126029
 10
5.437702416828209
 20
-5.752306248561951
 10
5.438252750147502
 20
-5.753272859672786
 10
5.438570250139402
 20
-5.75431355411699
 10
5.439321666786898
 20
-5.755184915227882
 10
5.677171494052177
 20
-6.030273970714675
 10
5.715409076409988
 20
-6.372613053962389
 10
5.57571260775172
 20
-6.97615938714487
 10
5.427814055969371
 20
-7.615018775874022
 10
5.509806664988676
 20
-7.938410164682043
 10
5.678409744020587
 20
-8.227419831276455
 10
5.681683521714843
 20
-8.233036053497274
 10
5.687574910453431
 20
-8.236168720163207
 10
5.693639160298718
 20
-8.236168720163207
 10
5.696669521332518
 20
-8.236168720163207
 10
5.699735160143197
 20
-8.235410247941147
 10
5.702525632294228
 20
-8.233759247941558
 10
5.710932326524199
 20
-8.22886622016502
 10
5.713793354228986
 20
-8.218050053501061
 10
5.708865048799162
 20
-8.209643359058687
 10
5.544498830770272
 20
-7.927869164684726
 10
5.464813388358772
 20
-7.611642692541538
 10
5.610094329096792
 20
-6.984082776031762
 10
5.742040270175014
 20
-6.414110303952049
 10
5.716954243037234
 20
-6.071167970704453
 10
5.517465470348839
 20
-5.797419470772897
 10
5.703647465598941
 20
-5.899894359636112
 10
5.855109072845944
 20
-5.964283359620055
 10
5.926733543240874
 20
-5.992748998501813
 10
5.778118852587906
 20
-6.140467637353757
 10
5.732324770422878
 20
-6.341960192858958
 10
5.80773807405448
 20
-6.520822053925319
 10
5.847393823042776
 20
-6.614837331679624
 10
5.918326849010902
 20
-6.703927831657367
 10
5.986885831836624
 20
-6.790090276080267
 10
6.043933373584191
 20
-6.861750026062372
 10
6.102914442918687
 20
-6.935854526043838
 10
6.142153759967269
 20
-7.010989137136122
 10
6.319234088782906
 20
-7.350160275940257
 10
6.304523255824877
 20
-7.72078508140316
 10
6.100744705468146
 20
-8.054579886875276
 10
6.089649998477615
 20
-8.072769109092908
 10
6.078008331813861
 20
-8.090856025755095
 10
6.066362984123074
 20
-8.108942942417215
 10
6.030983054047821
 20
-8.16385633129237
 10
5.994396319292431
 20
-8.22063238683371
 10
5.973483653159291
 20
-8.280163636818827
 10
5.950193264864589
 20
-8.34654935902449
 10
5.938653904047872
 20
-8.443252803444771
 10
6.015996902074687
 20
-8.526797636757182
 10
6.019475290874835
 20
-8.530554720089572
 10
6.02419545742108
 20
-8.53244913675578
 10
6.028947373966515
 20
-8.53244913675578
 10
6.033254790523291
 20
-8.53244913675578
 10
6.037526929303188
 20
-8.53089691453395
 10
6.040938290327269
 20
-8.527764247868083
 10
6.048067929034265
 20
-8.521149664536402
 10
6.048516109598972
 20
-8.509984247872499
 10
6.041901373636032
 20
-8.5028193312076
 10
5.976446986417023
 20
-8.432161470114172
 10
5.986677541711575
 20
-8.349099942357178
 10
6.006761180088088
 20
-8.291875859038134
 10
6.026294485145307
 20
-8.236239275718694
 10
6.061745276262331
 20
-8.181220053510273
 10
6.096024538921901
 20
-8.128028220190195
 10
6.107807316399075
 20
-8.109701414639273
 10
6.119625371653127
 20
-8.091371081310472
 10
6.130854442911747
 20
-8.072973720203997
 10
6.341349727107579
 20
-7.728189886956859
 10
6.356473310055077
 20
-7.345231970385943
 10
6.173434720678891
 20
-6.99465905380692
 10
6.132611121321833
 20
-6.916525831604176
 10
6.072564817298186
 20
-6.841077248289722
 10
6.014479957668943
 20
-6.768112220530221
 10
5.947402792713557
 20
-6.683808914995687
 10
5.878018609641577
 20
-6.596648109461927
 10
5.840260656558092
 20
-6.507109581706542
 10
5.77042138744628
 20
-6.341522748414637
 10
5.813569490572374
 20
-6.154331804016959
 10
5.952458098140141
 20
-6.016864887384682
 10
5.928275182090433
 20
-6.087568609589208
 10
5.861561378236888
 20
-6.281741026207335
 10
5.841191989867665
 20
-6.332752692861246
 10
5.838987128812805
 20
-6.338231331748777
 10
5.839675045461921
 20
-6.344468442858304
 10
5.843051128709123
 20
-6.349361470634905
 10
5.861998822670173
 20
-6.376712331739156
 10
5.904476942968296
 20
-6.395247276178981
 10
5.959563042403324
 20
-6.400210859511072
 10
5.96786743108035
 20
-6.400965803955314
 10
5.976722153076669
 20
-6.401346803955219
 10
5.985954347285581
 20
-6.401346803955219
 10
6.037287040420419
 20
-6.401346803955219
 10
6.099746344382505
 20
-6.388738526180566
 10
6.136710554021367
 20
-6.35177094285649
 10
6.141638704424853
 20
-6.346846165079929
 10
6.143187398829787
 20
-6.339473109526254
 10
6.140707371115281
 20
-6.332960831750087
 10
6.106995927530886
 20
-6.245214415105332
 10
6.022576207462391
 20
-6.053504387375518
 10
5.999941985817616
 20
-6.002302220721655
 10
6.177364509068967
 20
-5.919678137408982
 10
7.822053272665017
 20
-5.119253582053508
 10
7.822053272665017
 20
-3.864447721256095
 97
        0
 97
        0
 92
        1
 93
        1
 72
     4
 94
        3
 73
     0
 74
     1
 95
       17
 96
       13
 40
0.0
 40
0.0
 40
0.0
 40
0.0
 40
1.0
 40
1.0
 40
1.0
 40
2.0
 40
2.0
 40
2.0
 40
3.0
 40
3.0
 40
3.0
 40
4.0
 40
4.0
 40
4.0
 40
4.0
 10
5.257902171415295
 20
-6.002094081832814
 10
5.208015867132445
 20
-6.010775942941764
 10
5.163886896036047
 20
-6.006881276276087
 10
5.139390007772126
 20
-5.992205720724162
 10
5.148004840885676
 20
-5.911384331855505
 10
5.164264368248639
 20
-5.677739609691709
 10
5.170222784763294
 20
-5.590095498602467
 10
5.226448505551079
 20
-5.660030165251677
 10
5.358292141076356
 20
-5.824946720765963
 10
5.423954667178943
 20
-5.914139526299219
 10
5.394226084604049
 20
-5.955516831844479
 10
5.330697864002567
 20
-5.989485804058161
 10
5.257902171415295
 20
-6.002094081832814
 97
        0
 97
        0
 92
        1
 93
        1
 72
     4
 94
        3
 73
     0
 74
     1
 95
       44
 96
       40
 40
0.0
 40
0.0
 40
0.0
 40
0.0
 40
1.0
 40
1.0
 40
1.0
 40
2.0
 40
2.0
 40
2.0
 40
3.0
 40
3.0
 40
3.0
 40
4.0
 40
4.0
 40
4.0
 40
5.0
 40
5.0
 40
5.0
 40
6.0
 40
6.0
 40
6.0
 40
7.0
 40
7.0
 40
7.0
 40
8.0
 40
8.0
 40
8.0
 40
9.0
 40
9.0
 40
9.0
 40
10.0
 40
10.0
 40
10.0
 40
11.0
 40
11.0
 40
11.0
 40
12.0
 40
12.0
 40
12.0
 40
13.0
 40
13.0
 40
13.0
 40
13.0
 10
2.253022332770084
 20
-3.539849832448372
 10
2.088620832811175
 20
-2.925864804824085
 10
2.454387888275285
 20
-2.292621638315722
 10
3.068337638121796
 20
-2.128223666134597
 10
3.575970658769388
 20
-1.992277221724158
 10
4.110443089578304
 20
-2.217208332779044
 10
4.368895138540199
 20
-2.674923388220155
 10
4.372856943351227
 20
-2.68191897155174
 10
4.38112594378372
 20
-2.685295054884224
 10
4.388809443587698
 20
-2.683294804884721
 10
4.396595248944621
 20
-2.68119577710749
 10
4.401968054363105
 20
-2.674133165998136
 10
4.401901026587037
 20
-2.666068666000139
 10
4.397110304487036
 20
-2.140450943909345
 10
4.748028934423245
 20
-1.678499027358147
 10
5.255249282594087
 20
-1.542658416281004
 10
5.869304998532666
 20
-1.378154610766583
 10
6.502544472995158
 20
-1.744059249563982
 10
6.666910691024048
 20
-2.358008999410492
 10
6.716038523104026
 20
-2.541460499364637
 10
6.735779967044825
 20
-2.733833749316534
 10
6.725683467302408
 20
-2.929861777045308
 10
6.725683467302408
 20
-2.929914693711972
 10
6.72571168952391
 20
-2.929957027045284
 10
6.725701106190847
 20
-2.930016999267484
 10
6.379072253922974
 20
-2.985568915920267
 10
6.088154066900471
 20
-3.230791804747866
 10
5.977343041949719
 20
-3.569373804663222
 10
5.850907489619803
 20
-3.182937499204278
 10
5.489825332165109
 20
-2.918043721492706
 10
5.079033259311955
 20
-2.918043721492706
 10
4.557169105959152
 20
-2.918043721492706
 10
4.132629283456732
 20
-3.342583554719906
 10
4.132629283456732
 20
-3.864447721256095
 10
4.132629283456732
 20
-4.622747082177634
 10
4.608741687976759
 20
-5.164761915375495
 10
5.076447398266814
 20
-5.514354109732547
 10
4.67703240845674
 20
-5.465984748633518
 10
2.682917332662599
 20
-5.145549637602483
 10
2.253022332770084
 20
-3.539849832448372
 97
        0
 97
        0
 92
        1
 93
        1
 72
     4
 94
        3
 73
     0
 74
     1
 95
       17
 96
       13
 40
0.0
 40
0.0
 40
0.0
 40
0.0
 40
1.0
 40
1.0
 40
1.0
 40
2.0
 40
2.0
 40
2.0
 40
3.0
 40
3.0
 40
3.0
 40
4.0
 40
4.0
 40
4.0
 40
4.0
 10
5.962734514544635
 20
-6.365070665075401
 10
5.924839126622538
 20
-6.361659303965141
 10
5.893523044088145
 20
-6.350737303967854
 10
5.877813850044475
 20
-6.335888887304929
 10
5.900342238358617
 20
-6.277013803986294
 10
5.954052653655017
 20
-6.121054276247536
 10
5.98016526409994
 20
-6.044882498488799
 10
6.010860457761284
 20
-6.114679581804657
 10
6.072596567297376
 20
-6.256030581769355
 10
6.103327038735599
 20
-6.334202609527563
 10
6.072596567297376
 20
-6.35779991507724
 10
6.017958346469091
 20
-6.369960165074187
 10
5.962734514544635
 20
-6.365070665075401
 97
        0
 97
        0
 92
        1
 93
        1
 72
     4
 94
        3
 73
     0
 74
     1
 95
       26
 96
       22
 40
0.0
 40
0.0
 40
0.0
 40
0.0
 40
1.0
 40
1.0
 40
1.0
 40
2.0
 40
2.0
 40
2.0
 40
3.0
 40
3.0
 40
3.0
 40
4.0
 40
4.0
 40
4.0
 40
5.0
 40
5.0
 40
5.0
 40
6.0
 40
6.0
 40
6.0
 40
7.0
 40
7.0
 40
7.0
 40
7.0
 10
5.976616319746037
 20
-5.974189359617593
 10
5.856798878358389
 20
-5.929848720739779
 10
4.167907060334499
 20
-5.277936554236084
 10
4.167907060334499
 20
-3.864447721256095
 10
4.167907060334499
 20
-3.362049832492823
 10
4.576635383240303
 20
-2.953321499261664
 10
5.079033259311955
 20
-2.953321499261664
 10
5.494132748721884
 20
-2.953321499261664
 10
5.856488433921865
 20
-3.234305471413638
 10
5.960254486830128
 20
-3.636623832424175
 10
5.964283208949569
 20
-3.652124887975862
 10
5.990328791618424
 20
-3.652195443531383
 10
5.994428069291621
 20
-3.636623832424175
 10
6.098229399976762
 20
-3.234305471413638
 10
6.460585085176742
 20
-2.953321499261664
 10
6.875649296809794
 20
-2.953321499261664
 10
7.378047172881446
 20
-2.953321499261664
 10
7.78677549578725
 20
-3.362049832492823
 10
7.78677549578725
 20
-3.864447721256095
 10
7.78677549578725
 20
-5.121941748719486
 10
6.095199038942961
 20
-5.919928609631103
 10
5.976616319746037
 20
-5.974189359617593
 97
        0
 97
        0
 92
        1
 93
        1
 72
     4
 94
        3
 73
     0
 74
     1
 95
       26
 96
       22
 40
0.0
 40
0.0
 40
0.0
 40
0.0
 40
1.0
 40
1.0
 40
1.0
 40
2.0
 40
2.0
 40
2.0
 40
3.0
 40
3.0
 40
3.0
 40
4.0
 40
4.0
 40
4.0
 40
5.0
 40
5.0
 40
5.0
 40
6.0
 40
6.0
 40
6.0
 40
7.0
 40
7.0
 40
7.0
 40
7.0
 10
7.466760198395965
 20
-3.426368276921182
 10
7.438784921331896
 20
-3.357777693604992
 10
7.385042756036307
 20
-3.285807499178535
 10
7.315415007812658
 20
-3.223729193638512
 10
7.24572375959063
 20
-3.16161208254293
 10
7.168105594904167
 20
-3.11644594366532
 10
7.096791568945762
 20
-3.096535165892545
 10
7.021240681984337
 20
-3.075449638120029
 10
6.960675794640587
 20
-3.084992277006519
 10
6.926361101071584
 20
-3.123441526996905
 10
6.857699963934387
 20
-3.200474082533213
 10
6.9209882956531
 20
-3.365217776936467
 10
7.070435541840383
 20
-3.498476054680928
 10
7.170204622628395
 20
-3.587393693547607
 10
7.279519869839531
 20
-3.636588554646399
 10
7.361579506634904
 20
-3.636588554646399
 10
7.402508783368488
 20
-3.636588554646399
 10
7.436650615830791
 20
-3.624357749093899
 10
7.459489448581458
 20
-3.598760193544751
 10
7.493804142150461
 20
-3.560279193554373
 10
7.496351387014829
 20
-3.49906166579189
 10
7.466760198395965
 20
-3.426368276921182
 97
        0
 97
        0
 92
        1
 93
        1
 72
     4
 94
        3
 73
     0
 74
     1
 95
       26
 96
       22
 40
0.0
 40
0.0
 40
0.0
 40
0.0
 40
1.0
 40
1.0
 40
1.0
 40
2.0
 40
2.0
 40
2.0
 40
3.0
 40
3.0
 40
3.0
 40
4.0
 40
4.0
 40
4.0
 40
5.0
 40
5.0
 40
5.0
 40
6.0
 40
6.0
 40
6.0
 40
7.0
 40
7.0
 40
7.0
 40
7.0
 10
7.433168887030586
 20
-3.575265193550619
 10
7.379493561733434
 20
-3.635519637980019
 10
7.224154926807564
 20
-3.588183915769625
 10
7.093930541240976
 20
-3.47215530468753
 10
6.963706155674387
 20
-3.356052610272098
 10
6.899041990657441
 20
-3.207123943642669
 10
6.952681850400086
 20
-3.146936526991037
 10
6.968013572231163
 20
-3.129745665884232
 10
6.992919682706866
 20
-3.120961499219768
 10
7.024373348571083
 20
-3.120961499219768
 10
7.043218736979186
 20
-3.120961499219768
 10
7.064406569771973
 20
-3.124094165885635
 10
7.087280680299517
 20
-3.130504138106259
 10
7.153532345275963
 20
-3.149003804768309
 10
7.226186926755723
 20
-3.191446499202133
 10
7.291920008412066
 20
-3.250049943631943
 10
7.357653090068409
 20
-3.308614582506192
 10
7.408125005447429
 20
-3.375966915822689
 10
7.434064754785651
 20
-3.439667999140094
 10
7.457976031953401
 20
-3.498370221347632
 10
7.457665587516877
 20
-3.547808499113041
 10
7.433168887030586
 20
-3.575265193550619
 97
        0
 97
        0
 92
        1
 93
        1
 72
     4
 94
        3
 73
     0
 74
     1
 95
       32
 96
       28
 40
0.0
 40
0.0
 40
0.0
 40
0.0
 40
1.0
 40
1.0
 40
1.0
 40
2.0
 40
2.0
 40
2.0
 40
3.0
 40
3.0
 40
3.0
 40
4.0
 40
4.0
 40
4.0
 40
5.0
 40
5.0
 40
5.0
 40
6.0
 40
6.0
 40
6.0
 40
7.0
 40
7.0
 40
7.0
 40
8.0
 40
8.0
 40
8.0
 40
9.0
 40
9.0
 40
9.0
 40
9.0
 10
7.617618555658359
 20
-3.695738804631611
 10
7.615000944614029
 20
-3.676999249080759
 10
7.605253886987587
 20
-3.66042927686266
 10
7.590130111915204
 20
-3.649059249087731
 10
7.575003001190017
 20
-3.637622193535035
 10
7.556263446112547
 20
-3.632764443536241
 10
7.537693224364091
 20
-3.635484360202243
 10
7.518953669286621
 20
-3.638105499090484
 10
7.502380169709446
 20
-3.647852749088031
 10
7.490978392222552
 20
-3.662944582417605
 10
7.479608364734847
 20
-3.678068165747139
 10
7.474785892635657
 20
-3.696670137964734
 10
7.477403503679987
 20
-3.715413221293369
 10
7.480024642502006
 20
-3.734152776844252
 10
7.489771892253333
 20
-3.750722749062319
 10
7.504895475200831
 20
-3.762092776837248
 10
7.517299141551054
 20
-3.771462554612706
 10
7.53207700228515
 20
-3.77639086016702
 10
7.547306418563283
 20
-3.77639086016702
 10
7.550647224033606
 20
-3.77639086016702
 10
7.553988029503931
 20
-3.776147443500403
 10
7.557332362751944
 20
-3.775667665722737
 10
7.576071917829413
 20
-3.773050054612279
 10
7.5926418896289
 20
-3.763299276836948
 10
7.604047194893482
 20
-3.748210971285158
 10
7.615413886985063
 20
-3.73308386017784
 10
7.620239694480377
 20
-3.714481887960278
 10
7.617618555658359
 20
-3.695738804631611
 97
        0
 97
        0
 92
        1
 93
        1
 72
     4
 94
        3
 73
     0
 74
     1
 95
       32
 96
       28
 40
0.0
 40
0.0
 40
0.0
 40
0.0
 40
1.0
 40
1.0
 40
1.0
 40
2.0
 40
2.0
 40
2.0
 40
3.0
 40
3.0
 40
3.0
 40
4.0
 40
4.0
 40
4.0
 40
5.0
 40
5.0
 40
5.0
 40
6.0
 40
6.0
 40
6.0
 40
7.0
 40
7.0
 40
7.0
 40
8.0
 40
8.0
 40
8.0
 40
9.0
 40
9.0
 40
9.0
 40
9.0
 10
7.575867498106025
 20
-3.72695258240161
 10
7.570145251313948
 20
-3.734533776844157
 10
7.56184439041461
 20
-3.739423276842911
 10
7.552439335098997
 20
-3.740732082398156
 10
7.543171863113208
 20
-3.742111443508921
 10
7.53366450224465
 20
-3.739666693509528
 10
7.526118585770496
 20
-3.733948165733163
 10
7.518541109231468
 20
-3.728226110179047
 10
7.513647891644205
 20
-3.719925249070033
 10
7.51233908612204
 20
-3.710520193516799
 10
7.511030280599875
 20
-3.701115137963598
 10
7.513439752760626
 20
-3.691777110188164
 10
7.519158280392512
 20
-3.684199443523401
 10
7.524876808024398
 20
-3.676621776858606
 10
7.533181387005617
 20
-3.671728749082069
 10
7.542586252017037
 20
-3.670419943526824
 10
7.544272529751794
 20
-3.670176526860239
 10
7.545962335264239
 20
-3.670074221304695
 10
7.547648612998996
 20
-3.670074221304695
 10
7.555296835026097
 20
-3.670074221304695
 10
7.562705168170427
 20
-3.672518971304088
 10
7.568907001345539
 20
-3.6772073879696
 10
7.576484667818883
 20
-3.682925915745933
 10
7.581377695471829
 20
-3.691226776854978
 10
7.582686500993995
 20
-3.70063183240818
 10
7.58399530651616
 20
-3.710036887961382
 10
7.581585834355408
 20
-3.719374915736815
 10
7.575867498106025
 20
-3.72695258240161
 97
        0
 97
        0
 92
        1
 93
        1
 72
     4
 94
        3
 73
     0
 74
     1
 95
       26
 96
       22
 40
0.0
 40
0.0
 40
0.0
 40
0.0
 40
1.0
 40
1.0
 40
1.0
 40
2.0
 40
2.0
 40
2.0
 40
3.0
 40
3.0
 40
3.0
 40
4.0
 40
4.0
 40
4.0
 40
5.0
 40
5.0
 40
5.0
 40
6.0
 40
6.0
 40
6.0
 40
7.0
 40
7.0
 40
7.0
 40
7.0
 10
5.443971277779388
 20
-3.171292304762741
 10
5.375380831989474
 20
-3.135912221438238
 10
5.302412142501973
 20
-3.118961249220265
 10
5.238023144144674
 20
-3.123028776997008
 10
5.170603784753574
 20
-3.127576082551448
 10
5.120512869364833
 20
-3.155103332544547
 10
5.09704961996343
 20
-3.200541110310981
 10
5.049403454512318
 20
-3.29280308251012
 10
5.127159202528604
 20
-3.424473860255007
 10
5.274024115448435
 20
-3.500335193569359
 10
5.335693331999395
 20
-3.532166332450281
 10
5.401010001097644
 20
-3.549254888001574
 10
5.460234332920038
 20
-3.549254888001574
 10
5.466880666083809
 20
-3.549254888001574
 10
5.473463499249201
 20
-3.549014999112741
 10
5.479972249083149
 20
-3.54859872133506
 10
5.547395276390922
 20
-3.544051415780651
 10
5.597486051640677
 20
-3.516527693565305
 10
5.620945773264392
 20
-3.471086388021118
 10
5.668591938715504
 20
-3.378792665821956
 10
5.590836190699219
 20
-3.2471218880771
 10
5.443971277779388
 20
-3.171292304762741
 97
        0
 97
        0
 92
        1
 93
        1
 72
     4
 94
        3
 73
     0
 74
     1
 95
       26
 96
       22
 40
0.0
 40
0.0
 40
0.0
 40
0.0
 40
1.0
 40
1.0
 40
1.0
 40
2.0
 40
2.0
 40
2.0
 40
3.0
 40
3.0
 40
3.0
 40
4.0
 40
4.0
 40
4.0
 40
5.0
 40
5.0
 40
5.0
 40
6.0
 40
6.0
 40
6.0
 40
7.0
 40
7.0
 40
7.0
 40
7.0
 10
5.589594412953121
 20
-3.454893888025172
 10
5.572026080067993
 20
-3.48896516579443
 10
5.53223627552756
 20
-3.509740249122561
 10
5.477594526921587
 20
-3.513391499121654
 10
5.419372220867407
 20
-3.517145054676259
 10
5.353159224540641
 20
-3.501471138013507
 10
5.290216615035329
 20
-3.468983832466102
 10
5.165227451557402
 20
-3.404421971371127
 10
5.091126481225653
 20
-3.288908415844442
 10
5.128401109828989
 20
-3.216733610306927
 10
5.14596944315798
 20
-3.182662332537669
 10
5.185762776481322
 20
-3.161887249209539
 10
5.240400866306235
 20
-3.158235999210446
 10
5.246154671714999
 20
-3.157858526988325
 10
5.252010782676708
 20
-3.157650388099484
 10
5.257902171415295
 20
-3.157650388099484
 10
5.311475003381871
 20
-3.157650388099484
 10
5.37107327963917
 20
-3.17335958253998
 10
5.427778778192493
 20
-3.202643665865997
 10
5.55276794167042
 20
-3.267170249183196
 10
5.626872439779858
 20
-3.382683804709882
 10
5.589594412953121
 20
-3.454893888025172
 97
        0
 97
        0
 92
        1
 93
        1
 72
     4
 94
        3
 73
     0
 74
     1
 95
       29
 96
       25
 40
0.0
 40
0.0
 40
0.0
 40
0.0
 40
1.0
 40
1.0
 40
1.0
 40
2.0
 40
2.0
 40
2.0
 40
3.0
 40
3.0
 40
3.0
 40
4.0
 40
4.0
 40
4.0
 40
5.0
 40
5.0
 40
5.0
 40
6.0
 40
6.0
 40
6.0
 40
7.0
 40
7.0
 40
7.0
 40
8.0
 40
8.0
 40
8.0
 40
8.0
 10
6.175607675780455
 20
-2.208907471669998
 10
6.163722592750335
 20
-2.208907471669998
 10
6.151283648623235
 20
-2.208321860559036
 10
6.138262776243197
 20
-2.207115360559336
 10
6.052340067814162
 20
-2.199329555005732
 10
5.950091109623611
 20
-2.166634110569455
 10
5.850321878523632
 20
-2.115096805026782
 10
5.750517519958741
 20
-2.063555971706326
 10
5.664665522149009
 20
-1.999099943944679
 10
5.608577384691047
 20
-1.933610277294364
 10
5.548943830656871
 20
-1.863947249534011
 10
5.529375247822773
 20
-1.799939249550006
 10
5.553424108320347
 20
-1.753397277339415
 10
5.60103499599458
 20
-1.661170582918053
 10
5.806154101872668
 20
-1.675500416247784
 10
6.020233763077707
 20
-1.786053916220164
 10
6.234345174281937
 20
-1.896642693970288
 10
6.364742420955226
 20
-2.055530277263889
 10
6.317131533280992
 20
-2.147788721685275
 10
6.317131533280992
 20
-2.147788721685275
 10
6.317131533280992
 20
-2.147788721685275
 10
6.317131533280992
 20
-2.147788721685275
 10
6.296529311584376
 20
-2.18771963834197
 10
6.246886423961983
 20
-2.208907471669998
 10
6.175607675780455
 20
-2.208907471669998
 97
        0
 97
        0
 92
        1
 93
        1
 72
     4
 94
        3
 73
     0
 74
     1
 95
       26
 96
       22
 40
0.0
 40
0.0
 40
0.0
 40
0.0
 40
1.0
 40
1.0
 40
1.0
 40
2.0
 40
2.0
 40
2.0
 40
3.0
 40
3.0
 40
3.0
 40
4.0
 40
4.0
 40
4.0
 40
5.0
 40
5.0
 40
5.0
 40
6.0
 40
6.0
 40
6.0
 40
7.0
 40
7.0
 40
7.0
 40
7.0
 10
5.695808887464941
 20
-1.72731641623485
 10
5.638619939480153
 20
-1.72731641623485
 10
5.59886188493891
 20
-1.742337694008871
 10
5.584771940853931
 20
-1.769586249557609
 10
5.567993830170865
 20
-1.802073555105045
 10
5.586426468589497
 20
-1.853476805092181
 10
5.635381439562774
 20
-1.91066561063345
 10
5.688573271539071
 20
-1.972779193951249
 10
5.77067171388901
 20
-2.034275416158093
 10
5.866514378110526
 20
-2.083745443923494
 10
5.962353514554355
 20
-2.133250749466703
 10
6.059988289841263
 20
-2.164566832792183
 10
6.141465843318152
 20
-2.171975166123666
 10
6.216501674737162
 20
-2.178864916121955
 10
6.269002220654961
 20
-2.164087055014518
 10
6.28578017296972
 20
-2.131599749467113
 10
6.318990831753556
 20
-2.067277777260971
 10
6.213675924809253
 20
-1.925683360629688
 10
6.004041263490812
 20
-1.81740527732342
 10
5.883257211016715
 20
-1.755048277339005
 10
5.773493936039231
 20
-1.72731641623485
 10
5.695808887464941
 20
-1.72731641623485
 97
        0
 97
        0
 92
        1
 93
        1
 72
     4
 94
        3
 73
     0
 74
     1
 95
       11
 96
        7
 40
0.0
 40
0.0
 40
0.0
 40
0.0
 40
1.0
 40
1.0
 40
1.0
 40
2.0
 40
2.0
 40
2.0
 40
2.0
 10
6.301457776202406
 20
-2.139692471687286
 10
6.301457776202406
 20
-2.139692471687286
 10
6.301799811449914
 20
-2.139692471687286
 10
6.301799811449914
 20
-2.139692471687286
 10
6.301799811449914
 20
-2.139692471687286
 10
6.301457776202406
 20
-2.139692471687286
 10
6.301457776202406
 20
-2.139692471687286
 97
        0
 97
        0
 75
     2
 76
     1
 98
        0
  0
ENDSEC
  0
SECTION
  2
OBJECTS
  0
DICTIONARY
  5
C
330
0
100
AcDbDictionary
281
     1
  3
ACAD_GROUP
350
D
  3
ACAD_LAYOUT
350
1A
  3
ACAD_MATERIAL
350
3B
  3
ACAD_MLEADERSTYLE
350
6B
  3
ACAD_MLINESTYLE
350
17
  3
ACAD_PLOTSETTINGS
350
19
  3
ACAD_PLOTSTYLENAME
350
E
  3
ACAD_TABLESTYLE
350
6A
  3
ACAD_VISUALSTYLE
350
2A
  0
SUN
  5
3F
330
29
100
AcDbSun
 90
        1
290
     0
 63
     7
421
 16777215
 40
1.0
291
     1
 91
  2455826
 92
 54000000
292
     0
 70
     2
 71
   256
280
     1
  0
DICTIONARY
  5
D
102
{ACAD_REACTORS
330
C
102
}
330
C
100
AcDbDictionary
281
     1
  0
DICTIONARY
  5
1A
102
{ACAD_REACTORS
330
C
102
}
330
C
100
AcDbDictionary
281
     1
  3
Layout1
350
1E
  3
Layout2
350
26
  3
Model
350
22
  0
DICTIONARY
  5
3B
102
{ACAD_REACTORS
330
C
102
}
330
C
100
AcDbDictionary
281
     1
  3
ByBlock
350
3D
  3
ByLayer
350
3C
  3
Global
350
3E
  0
DICTIONARY
  5
6B
102
{ACAD_REACTORS
330
C
102
}
330
C
100
AcDbDictionary
281
     1
  0
DICTIONARY
  5
17
102
{ACAD_REACTORS
330
C
102
}
330
C
100
AcDbDictionary
281
     1
  3
Standard
350
18
  0
DICTIONARY
  5
19
102
{ACAD_REACTORS
330
C
102
}
330
C
100
AcDbDictionary
281
     1
  0
ACDBDICTIONARYWDFLT
  5
E
102
{ACAD_REACTORS
330
C
102
}
330
C
100
AcDbDictionary
281
     1
  3
Normal
350
F
100
AcDbDictionaryWithDefault
340
F
  0
DICTIONARY
  5
6A
102
{ACAD_REACTORS
330
C
102
}
330
C
100
AcDbDictionary
281
     1
  0
DICTIONARY
  5
2A
102
{ACAD_REACTORS
330
C
102
}
330
C
100
AcDbDictionary
281
     1
  3
2dWireframe
350
2F
  3
3D Hidden
350
31
  3
3dWireframe
350
30
  3
Basic
350
32
  3
Brighten
350
36
  3
ColorChange
350
3A
  3
Conceptual
350
34
  3
Dim
350
35
  3
Facepattern
350
39
  3
Flat
350
2B
  3
FlatWithEdges
350
2C
  3
Gouraud
350
2D
  3
GouraudWithEdges
350
2E
  3
Linepattern
350
38
  3
Realistic
350
33
  3
Thicken
350
37
  0
LAYOUT
  5
1E
102
{ACAD_REACTORS
330
1A
102
}
330
1A
100
AcDbPlotSettings
  1

  2
none_device
  4

  6

 40
0.0
 41
0.0
 42
0.0
 43
0.0
 44
0.0
 45
0.0
 46
0.0
 47
0.0
 48
0.0
 49
0.0
140
0.0
141
0.0
142
1.0
143
1.0
 70
   688
 72
     0
 73
     0
 74
     5
  7

 75
    16
 76
     0
 77
     2
 78
   300
147
1.0
148
0.0
149
0.0
100
AcDbLayout
  1
Layout1
 70
     1
 71
     1
 10
0.0
 20
0.0
 11
12.0
 21
9.0
 12
0.0
 22
0.0
 32
0.0
 14
1.000000000000000E+20
 24
1.000000000000000E+20
 34
1.000000000000000E+20
 15
-1.000000000000000E+20
 25
-1.000000000000000E+20
 35
-1.000000000000000E+20
146
0.0
 13
0.0
 23
0.0
 33
0.0
 16
1.0
 26
0.0
 36
0.0
 17
0.0
 27
1.0
 37
0.0
 76
     0
330
1B
  0
LAYOUT
  5
26
102
{ACAD_REACTORS
330
1A
102
}
330
1A
100
AcDbPlotSettings
  1

  2
none_device
  4

  6

 40
0.0
 41
0.0
 42
0.0
 43
0.0
 44
0.0
 45
0.0
 46
0.0
 47
0.0
 48
0.0
 49
0.0
140
0.0
141
0.0
142
1.0
143
1.0
 70
   688
 72
     0
 73
     0
 74
     5
  7

 75
    16
 76
     0
 77
     2
 78
   300
147
1.0
148
0.0
149
0.0
100
AcDbLayout
  1
Layout2
 70
     1
 71
     2
 10
0.0
 20
0.0
 11
0.0
 21
0.0
 12
0.0
 22
0.0
 32
0.0
 14
0.0
 24
0.0
 34
0.0
 15
0.0
 25
0.0
 35
0.0
146
0.0
 13
0.0
 23
0.0
 33
0.0
 16
1.0
 26
0.0
 36
0.0
 17
0.0
 27
1.0
 37
0.0
 76
     0
330
23
  0
LAYOUT
  5
22
102
{ACAD_REACTORS
330
1A
102
}
330
1A
100
AcDbPlotSettings
  1

  2
none_device
  4

  6

 40
0.0
 41
0.0
 42
0.0
 43
0.0
 44
0.0
 45
0.0
 46
0.0
 47
0.0
 48
0.0
 49
0.0
140
0.0
141
0.0
142
1.0
143
1.0
 70
  1712
 72
     0
 73
     0
 74
     0
  7

 75
     0
 76
     0
 77
     2
 78
   300
147
1.0
148
0.0
149
0.0
100
AcDbLayout
  1
Model
 70
     1
 71
     0
 10
0.0
 20
0.0
 11
12.0
 21
9.0
 12
0.0
 22
0.0
 32
0.0
 14
1.000000000000000E+20
 24
1.000000000000000E+20
 34
1.000000000000000E+20
 15
-1.000000000000000E+20
 25
-1.000000000000000E+20
 35
-1.000000000000000E+20
146
0.0
 13
0.0
 23
0.0
 33
0.0
 16
1.0
 26
0.0
 36
0.0
 17
0.0
 27
1.0
 37
0.0
 76
     0
330
1F
331
29
  0
MATERIAL
  5
3D
102
{ACAD_REACTORS
330
3B
102
}
330
3B
100
AcDbMaterial
  1
ByBlock
 72
     1
 94
      127
  0
MATERIAL
  5
3C
102
{ACAD_REACTORS
330
3B
102
}
330
3B
100
AcDbMaterial
  1
ByLayer
 72
     1
 94
      127
  0
MATERIAL
  5
3E
102
{ACAD_REACTORS
330
3B
102
}
330
3B
100
AcDbMaterial
  1
Global
 72
     1
 94
      127
  0
MLINESTYLE
  5
18
102
{ACAD_REACTORS
330
17
102
}
330
17
100
AcDbMlineStyle
  2
Standard
 70
     0
  3

 62
   256
 51
90.0
 52
90.0
 71
     2
 49
0.5
 62
   256
  6
BYLAYER
 49
-0.5
 62
   256
  6
BYLAYER
  0
ACDBPLACEHOLDER
  5
F
102
{ACAD_REACTORS
330
E
102
}
330
E
  0
VISUALSTYLE
  5
2F
102
{ACAD_REACTORS
330
2A
102
}
330
2A
100
AcDbVisualStyle
  2
2dWireframe
 70
     4
177
     2
291
     0
 71
     0
176
     1
 72
     2
176
     1
 73
     0
176
     1
 90
        0
176
     1
 40
-0.6
176
     1
 41
-30.0
176
     1
 62
     5
 63
     7
421
 16777215
176
     1
 74
     1
176
     1
 91
        4
176
     1
 64
     7
176
     1
 65
   257
176
     1
 75
     1
176
     1
175
     1
176
     1
 42
1.0
176
     1
 92
        0
176
     1
 66
   257
176
     1
 43
1.0
176
     1
 76
     1
176
     1
 77
     6
176
     1
 78
     2
176
     1
 67
     7
176
     1
 79
     5
176
     1
170
     0
176
     1
171
     0
176
     1
290
     0
176
     1
 93
        1
176
     1
 44
0.0
176
     1
173
     0
176
     1
  0
VISUALSTYLE
  5
31
102
{ACAD_REACTORS
330
2A
102
}
330
2A
100
AcDbVisualStyle
  2
3D Hidden
 70
     6
177
     2
291
     0
 71
     1
176
     1
 72
     2
176
     1
 73
     2
176
     1
 90
        0
176
     1
 40
-0.6
176
     1
 41
-30.0
176
     1
 62
     5
 63
     7
421
 16777215
176
     1
 74
     2
176
     1
 91
        2
176
     1
 64
     7
176
     1
 65
   257
176
     1
 75
     2
176
     1
175
     1
176
     1
 42
40.0
176
     1
 92
        0
176
     1
 66
   257
176
     1
 43
1.0
176
     1
 76
     1
176
     1
 77
     6
176
     1
 78
     2
176
     1
 67
     7
176
     1
 79
     3
176
     1
170
     0
176
     1
171
     0
176
     1
290
     0
176
     1
 93
        1
176
     1
 44
0.0
176
     1
173
     0
176
     1
  0
VISUALSTYLE
  5
30
102
{ACAD_REACTORS
330
2A
102
}
330
2A
100
AcDbVisualStyle
  2
3dWireframe
 70
     5
177
     2
291
     0
 71
     0
176
     1
 72
     2
176
     1
 73
     0
176
     1
 90
        0
176
     1
 40
-0.6
176
     1
 41
-30.0
176
     1
 62
     5
 63
     7
421
 16777215
176
     1
 74
     1
176
     1
 91
        4
176
     1
 64
     7
176
     1
 65
   257
176
     1
 75
     1
176
     1
175
     1
176
     1
 42
1.0
176
     1
 92
        0
176
     1
 66
   257
176
     1
 43
1.0
176
     1
 76
     1
176
     1
 77
     6
176
     1
 78
     2
176
     1
 67
     7
176
     1
 79
     5
176
     1
170
     0
176
     1
171
     0
176
     1
290
     0
176
     1
 93
        1
176
     1
 44
0.0
176
     1
173
     0
176
     1
  0
VISUALSTYLE
  5
32
102
{ACAD_REACTORS
330
2A
102
}
330
2A
100
AcDbVisualStyle
  2
Basic
 70
     7
177
     2
291
     1
 71
     1
176
     1
 72
     0
176
     1
 73
     1
176
     1
 90
        0
176
     1
 40
-0.6
176
     1
 41
-30.0
176
     1
 62
     5
 63
     7
421
 16777215
176
     1
 74
     0
176
     1
 91
        4
176
     1
 64
     7
176
     1
 65
   257
176
     1
 75
     1
176
     1
175
     1
176
     1
 42
1.0
176
     1
 92
        8
176
     1
 66
     7
176
     1
 43
1.0
176
     1
 76
     1
176
     1
 77
     6
176
     1
 78
     2
176
     1
 67
     7
176
     1
 79
     5
176
     1
170
     0
176
     1
171
     0
176
     1
290
     0
176
     1
 93
        1
176
     1
 44
0.0
176
     1
173
     0
176
     1
  0
VISUALSTYLE
  5
36
102
{ACAD_REACTORS
330
2A
102
}
330
2A
100
AcDbVisualStyle
  2
Brighten
 70
    12
177
     2
291
     1
 71
     2
176
     1
 72
     2
176
     1
 73
     0
176
     1
 90
        0
176
     1
 40
-0.6
176
     1
 41
-30.0
176
     1
 62
     5
 63
     7
421
 16777215
176
     1
 74
     1
176
     1
 91
        4
176
     1
 64
     7
176
     1
 65
   257
176
     1
 75
     1
176
     1
175
     1
176
     1
 42
1.0
176
     1
 92
        8
176
     1
 66
     7
176
     1
 43
1.0
176
     1
 76
     1
176
     1
 77
     6
176
     1
 78
     2
176
     1
 67
     7
176
     1
 79
     5
176
     1
170
     0
176
     1
171
     0
176
     1
290
     0
176
     1
 93
        1
176
     1
 44
50.0
176
     1
173
     0
176
     1
  0
VISUALSTYLE
  5
3A
102
{ACAD_REACTORS
330
2A
102
}
330
2A
100
AcDbVisualStyle
  2
ColorChange
 70
    16
177
     2
291
     1
 71
     2
176
     1
 72
     2
176
     1
 73
     3
176
     1
 90
        0
176
     1
 40
-0.6
176
     1
 41
-30.0
176
     1
 62
     5
 63
     8
421
  8421504
176
     1
 74
     1
176
     1
 91
        4
176
     1
 64
     7
176
     1
 65
   257
176
     1
 75
     1
176
     1
175
     1
176
     1
 42
1.0
176
     1
 92
        8
176
     1
 66
     8
424
  8421504
176
     1
 43
1.0
176
     1
 76
     1
176
     1
 77
     6
176
     1
 78
     2
176
     1
 67
     7
176
     1
 79
     5
176
     1
170
     0
176
     1
171
     0
176
     1
290
     0
176
     1
 93
        1
176
     1
 44
0.0
176
     1
173
     0
176
     1
  0
VISUALSTYLE
  5
34
102
{ACAD_REACTORS
330
2A
102
}
330
2A
100
AcDbVisualStyle
  2
Conceptual
 70
     9
177
     2
291
     0
 71
     3
176
     1
 72
     2
176
     1
 73
     0
176
     1
 90
        0
176
     1
 40
-0.6
176
     1
 41
-30.0
176
     1
 62
     5
 63
     7
421
 16777215
176
     1
 74
     2
176
     1
 91
        2
176
     1
 64
     7
176
     1
 65
   257
176
     1
 75
     1
176
     1
175
     1
176
     1
 42
40.0
176
     1
 92
        8
176
     1
 66
     7
176
     1
 43
1.0
176
     1
 76
     1
176
     1
 77
     6
176
     1
 78
     2
176
     1
 67
     7
176
     1
 79
     3
176
     1
170
     0
176
     1
171
     0
176
     1
290
     0
176
     1
 93
        1
176
     1
 44
0.0
176
     1
173
     0
176
     1
  0
VISUALSTYLE
  5
35
102
{ACAD_REACTORS
330
2A
102
}
330
2A
100
AcDbVisualStyle
  2
Dim
 70
    11
177
     2
291
     1
 71
     2
176
     1
 72
     2
176
     1
 73
     0
176
     1
 90
        0
176
     1
 40
-0.6
176
     1
 41
-30.0
176
     1
 62
     5
 63
     7
421
 16777215
176
     1
 74
     1
176
     1
 91
        4
176
     1
 64
     7
176
     1
 65
   257
176
     1
 75
     1
176
     1
175
     1
176
     1
 42
1.0
176
     1
 92
        8
176
     1
 66
     7
176
     1
 43
1.0
176
     1
 76
     1
176
     1
 77
     6
176
     1
 78
     2
176
     1
 67
     7
176
     1
 79
     5
176
     1
170
     0
176
     1
171
     0
176
     1
290
     0
176
     1
 93
        1
176
     1
 44
-50.0
176
     1
173
     0
176
     1
  0
VISUALSTYLE
  5
39
102
{ACAD_REACTORS
330
2A
102
}
330
2A
100
AcDbVisualStyle
  2
Facepattern
 70
    15
177
     2
291
     1
 71
     2
176
     1
 72
     2
176
     1
 73
     0
176
     1
 90
        0
176
     1
 40
-0.6
176
     1
 41
-30.0
176
     1
 62
     5
 63
     7
421
 16777215
176
     1
 74
     1
176
     1
 91
        4
176
     1
 64
     7
176
     1
 65
   257
176
     1
 75
     1
176
     1
175
     1
176
     1
 42
1.0
176
     1
 92
        8
176
     1
 66
     7
176
     1
 43
1.0
176
     1
 76
     1
176
     1
 77
     6
176
     1
 78
     2
176
     1
 67
     7
176
     1
 79
     5
176
     1
170
     0
176
     1
171
     0
176
     1
290
     0
176
     1
 93
        1
176
     1
 44
0.0
176
     1
173
     0
176
     1
  0
VISUALSTYLE
  5
2B
102
{ACAD_REACTORS
330
2A
102
}
330
2A
100
AcDbVisualStyle
  2
Flat
 70
     0
177
     2
291
     1
 71
     2
176
     1
 72
     1
176
     1
 73
     1
176
     1
 90
        2
176
     1
 40
-0.6
176
     1
 41
30.0
176
     1
 62
     5
 63
     7
421
 16777215
176
     1
 74
     0
176
     1
 91
        4
176
     1
 64
     7
176
     1
 65
   257
176
     1
 75
     1
176
     1
175
     1
176
     1
 42
1.0
176
     1
 92
        8
176
     1
 66
     7
176
     1
 43
1.0
176
     1
 76
     1
176
     1
 77
     6
176
     1
 78
     2
176
     1
 67
     7
176
     1
 79
     5
176
     1
170
     0
176
     1
171
     0
176
     1
290
     0
176
     1
 93
       13
176
     1
 44
0.0
176
     1
173
     0
176
     1
  0
VISUALSTYLE
  5
2C
102
{ACAD_REACTORS
330
2A
102
}
330
2A
100
AcDbVisualStyle
  2
FlatWithEdges
 70
     1
177
     2
291
     1
 71
     2
176
     1
 72
     1
176
     1
 73
     1
176
     1
 90
        2
176
     1
 40
-0.6
176
     1
 41
30.0
176
     1
 62
     5
 63
     7
421
 16777215
176
     1
 74
     1
176
     1
 91
        4
176
     1
 64
     7
176
     1
 65
   257
176
     1
 75
     1
176
     1
175
     1
176
     1
 42
1.0
176
     1
 92
        0
176
     1
 66
   257
176
     1
 43
1.0
176
     1
 76
     1
176
     1
 77
     6
176
     1
 78
     2
176
     1
 67
     7
176
     1
 79
     5
176
     1
170
     0
176
     1
171
     0
176
     1
290
     0
176
     1
 93
       13
176
     1
 44
0.0
176
     1
173
     0
176
     1
  0
VISUALSTYLE
  5
2D
102
{ACAD_REACTORS
330
2A
102
}
330
2A
100
AcDbVisualStyle
  2
Gouraud
 70
     2
177
     2
291
     1
 71
     2
176
     1
 72
     2
176
     1
 73
     1
176
     1
 90
        2
176
     1
 40
-0.6
176
     1
 41
30.0
176
     1
 62
     5
 63
     7
421
 16777215
176
     1
 74
     0
176
     1
 91
        4
176
     1
 64
     7
176
     1
 65
   257
176
     1
 75
     1
176
     1
175
     1
176
     1
 42
1.0
176
     1
 92
        0
176
     1
 66
     7
176
     1
 43
1.0
176
     1
 76
     1
176
     1
 77
     6
176
     1
 78
     2
176
     1
 67
     7
176
     1
 79
     5
176
     1
170
     0
176
     1
171
     0
176
     1
290
     0
176
     1
 93
       13
176
     1
 44
0.0
176
     1
173
     0
176
     1
  0
VISUALSTYLE
  5
2E
102
{ACAD_REACTORS
330
2A
102
}
330
2A
100
AcDbVisualStyle
  2
GouraudWithEdges
 70
     3
177
     2
291
     1
 71
     2
176
     1
 72
     2
176
     1
 73
     1
176
     1
 90
        2
176
     1
 40
-0.6
176
     1
 41
30.0
176
     1
 62
     5
 63
     7
421
 16777215
176
     1
 74
     1
176
     1
 91
        4
176
     1
 64
     7
176
     1
 65
   257
176
     1
 75
     1
176
     1
175
     1
176
     1
 42
1.0
176
     1
 92
        0
176
     1
 66
   257
176
     1
 43
1.0
176
     1
 76
     1
176
     1
 77
     6
176
     1
 78
     2
176
     1
 67
     7
176
     1
 79
     5
176
     1
170
     0
176
     1
171
     0
176
     1
290
     0
176
     1
 93
       13
176
     1
 44
0.0
176
     1
173
     0
176
     1
  0
VISUALSTYLE
  5
38
102
{ACAD_REACTORS
330
2A
102
}
330
2A
100
AcDbVisualStyle
  2
Linepattern
 70
    14
177
     2
291
     1
 71
     2
176
     1
 72
     2
176
     1
 73
     0
176
     1
 90
        0
176
     1
 40
-0.6
176
     1
 41
-30.0
176
     1
 62
     5
 63
     7
421
 16777215
176
     1
 74
     1
176
     1
 91
        4
176
     1
 64
     7
176
     1
 65
   257
176
     1
 75
     7
176
     1
175
     7
176
     1
 42
1.0
176
     1
 92
        8
176
     1
 66
     7
176
     1
 43
1.0
176
     1
 76
     1
176
     1
 77
     6
176
     1
 78
     2
176
     1
 67
     7
176
     1
 79
     5
176
     1
170
     0
176
     1
171
     0
176
     1
290
     0
176
     1
 93
        1
176
     1
 44
0.0
176
     1
173
     0
176
     1
  0
VISUALSTYLE
  5
33
102
{ACAD_REACTORS
330
2A
102
}
330
2A
100
AcDbVisualStyle
  2
Realistic
 70
     8
177
     2
291
     0
 71
     2
176
     1
 72
     2
176
     1
 73
     0
176
     1
 90
        0
176
     1
 40
-0.6
176
     1
 41
-30.0
176
     1
 62
     5
 63
     7
421
 16777215
176
     1
 74
     1
176
     1
 91
        0
176
     1
 64
     7
176
     1
 65
   257
176
     1
 75
     1
176
     1
175
     1
176
     1
 42
1.0
176
     1
 92
        8
176
     1
 66
     8
424
  7895160
176
     1
 43
1.0
176
     1
 76
     1
176
     1
 77
     6
176
     1
 78
     2
176
     1
 67
     7
176
     1
 79
     5
176
     1
170
     0
176
     1
171
     0
176
     1
290
     0
176
     1
 93
       13
176
     1
 44
0.0
176
     1
173
     0
176
     1
  0
VISUALSTYLE
  5
37
102
{ACAD_REACTORS
330
2A
102
}
330
2A
100
AcDbVisualStyle
  2
Thicken
 70
    13
177
     2
291
     1
 71
     2
176
     1
 72
     2
176
     1
 73
     0
176
     1
 90
        0
176
     1
 40
-0.6
176
     1
 41
-30.0
176
     1
 62
     5
 63
     7
421
 16777215
176
     1
 74
     1
176
     1
 91
        4
176
     1
 64
     7
176
     1
 65
   257
176
     1
 75
     1
176
     1
175
     1
176
     1
 42
1.0
176
     1
 92
       12
176
     1
 66
     7
176
     1
 43
1.0
176
     1
 76
     1
176
     1
 77
     6
176
     1
 78
     2
176
     1
 67
     7
176
     1
 79
     5
176
     1
170
     0
176
     1
171
     0
176
     1
290
     0
176
     1
 93
        1
176
     1
 44
0.0
176
     1
173
     0
176
     1
  0
ENDSEC
  0
EOF
