  0
SECTION
  2
HEADER
  9
$ACADVER
  1
AC1018
  9
$ACADMAINTVER
 70
     0
  9
$DWGCODEPAGE
  3
ANSI_1252
  9
$INSBASE
 10
0.0
 20
0.0
 30
0.0
  9
$EXTMIN
 10
1.000000000000000E+20
 20
1.000000000000000E+20
 30
1.000000000000000E+20
  9
$EXTMAX
 10
-1.000000000000000E+20
 20
-1.000000000000000E+20
 30
-1.000000000000000E+20
  9
$LIMMIN
 10
0.0
 20
0.0
  9
$LIMMAX
 10
12.0
 20
9.0
  9
$ORTHOMODE
 70
     0
  9
$REGENMODE
 70
     1
  9
$FILLMODE
 70
     1
  9
$QTEXTMODE
 70
     0
  9
$MIRRTEXT
 70
     1
  9
$LTSCALE
 40
1.0
  9
$ATTMODE
 70
     1
  9
$TEXTSIZE
 40
0.2
  9
$TRACEWID
 40
0.05
  9
$TEXTSTYLE
  7
Standard
  9
$CLAYER
  8
0
  9
$CELTYPE
  6
ByLayer
  9
$CECOLOR
 62
   256
  9
$CELTSCALE
 40
1.0
  9
$DISPSILH
 70
     0
  9
$DIMSCALE
 40
1.0
  9
$DIMASZ
 40
0.18
  9
$DIMEXO
 40
0.0625
  9
$DIMDLI
 40
0.38
  9
$DIMRND
 40
0.0
  9
$DIMDLE
 40
0.0
  9
$DIMEXE
 40
0.18
  9
$DIMTP
 40
0.0
  9
$DIMTM
 40
0.0
  9
$DIMTXT
 40
0.18
  9
$DIMCEN
 40
0.09
  9
$DIMTSZ
 40
0.0
  9
$DIMTOL
 70
     0
  9
$DIMLIM
 70
     0
  9
$DIMTIH
 70
     1
  9
$DIMTOH
 70
     1
  9
$DIMSE1
 70
     0
  9
$DIMSE2
 70
     0
  9
$DIMTAD
 70
     0
  9
$DIMZIN
 70
     0
  9
$DIMBLK
  1

  9
$DIMASO
 70
     1
  9
$DIMSHO
 70
     1
  9
$DIMPOST
  1

  9
$DIMAPOST
  1

  9
$DIMALT
 70
     0
  9
$DIMALTD
 70
     2
  9
$DIMALTF
 40
25.4
  9
$DIMLFAC
 40
1.0
  9
$DIMTOFL
 70
     0
  9
$DIMTVP
 40
0.0
  9
$DIMTIX
 70
     0
  9
$DIMSOXD
 70
     0
  9
$DIMSAH
 70
     0
  9
$DIMBLK1
  1

  9
$DIMBLK2
  1

  9
$DIMSTYLE
  2
Standard
  9
$DIMCLRD
 70
     0
  9
$DIMCLRE
 70
     0
  9
$DIMCLRT
 70
     0
  9
$DIMTFAC
 40
1.0
  9
$DIMGAP
 40
0.09
  9
$DIMJUST
 70
     0
  9
$DIMSD1
 70
     0
  9
$DIMSD2
 70
     0
  9
$DIMTOLJ
 70
     1
  9
$DIMTZIN
 70
     0
  9
$DIMALTZ
 70
     0
  9
$DIMALTTZ
 70
     0
  9
$DIMUPT
 70
     0
  9
$DIMDEC
 70
     4
  9
$DIMTDEC
 70
     4
  9
$DIMALTU
 70
     2
  9
$DIMALTTD
 70
     2
  9
$DIMTXSTY
  7
Standard
  9
$DIMAUNIT
 70
     0
  9
$DIMADEC
 70
     0
  9
$DIMALTRND
 40
0.0
  9
$DIMAZIN
 70
     0
  9
$DIMDSEP
 70
    46
  9
$DIMATFIT
 70
     3
  9
$DIMFRAC
 70
     0
  9
$DIMLDRBLK
  1

  9
$DIMLUNIT
 70
     2
  9
$DIMLWD
 70
    -2
  9
$DIMLWE
 70
    -2
  9
$DIMTMOVE
 70
     0
  9
$LUNITS
 70
     2
  9
$LUPREC
 70
     4
  9
$SKETCHINC
 40
0.1
  9
$FILLETRAD
 40
0.5
  9
$AUNITS
 70
     0
  9
$AUPREC
 70
     0
  9
$MENU
  1
.
  9
$ELEVATION
 40
0.0
  9
$PELEVATION
 40
0.0
  9
$THICKNESS
 40
0.0
  9
$LIMCHECK
 70
     0
  9
$CHAMFERA
 40
0.5
  9
$CHAMFERB
 40
0.5
  9
$CHAMFERC
 40
1.0
  9
$CHAMFERD
 40
0.0
  9
$SKPOLY
 70
     0
  9
$TDCREATE
 40
2455736.681204016
  9
$TDUCREATE
 40
2455736.931204016
  9
$TDUPDATE
 40
2455736.681204028
  9
$TDUUPDATE
 40
2455736.931204028
  9
$TDINDWG
 40
0.0000000116
  9
$TDUSRTIMER
 40
0.0000000116
  9
$USRTIMER
 70
     1
  9
$ANGBASE
 50
0.0
  9
$ANGDIR
 70
     0
  9
$PDMODE
 70
     0
  9
$PDSIZE
 40
0.0
  9
$PLINEWID
 40
0.0
  9
$SPLFRAME
 70
     0
  9
$SPLINETYPE
 70
     6
  9
$SPLINESEGS
 70
     8
  9
$HANDSEED
  5
47
  9
$SURFTAB1
 70
     6
  9
$SURFTAB2
 70
     6
  9
$SURFTYPE
 70
     6
  9
$SURFU
 70
     6
  9
$SURFV
 70
     6
  9
$UCSBASE
  2

  9
$UCSNAME
  2

  9
$UCSORG
 10
0.0
 20
0.0
 30
0.0
  9
$UCSXDIR
 10
1.0
 20
0.0
 30
0.0
  9
$UCSYDIR
 10
0.0
 20
1.0
 30
0.0
  9
$UCSORTHOREF
  2

  9
$UCSORTHOVIEW
 70
     0
  9
$UCSORGTOP
 10
0.0
 20
0.0
 30
0.0
  9
$UCSORGBOTTOM
 10
0.0
 20
0.0
 30
0.0
  9
$UCSORGLEFT
 10
0.0
 20
0.0
 30
0.0
  9
$UCSORGRIGHT
 10
0.0
 20
0.0
 30
0.0
  9
$UCSORGFRONT
 10
0.0
 20
0.0
 30
0.0
  9
$UCSORGBACK
 10
0.0
 20
0.0
 30
0.0
  9
$PUCSBASE
  2

  9
$PUCSNAME
  2

  9
$PUCSORG
 10
0.0
 20
0.0
 30
0.0
  9
$PUCSXDIR
 10
1.0
 20
0.0
 30
0.0
  9
$PUCSYDIR
 10
0.0
 20
1.0
 30
0.0
  9
$PUCSORTHOREF
  2

  9
$PUCSORTHOVIEW
 70
     0
  9
$PUCSORGTOP
 10
0.0
 20
0.0
 30
0.0
  9
$PUCSORGBOTTOM
 10
0.0
 20
0.0
 30
0.0
  9
$PUCSORGLEFT
 10
0.0
 20
0.0
 30
0.0
  9
$PUCSORGRIGHT
 10
0.0
 20
0.0
 30
0.0
  9
$PUCSORGFRONT
 10
0.0
 20
0.0
 30
0.0
  9
$PUCSORGBACK
 10
0.0
 20
0.0
 30
0.0
  9
$USERI1
 70
     0
  9
$USERI2
 70
     0
  9
$USERI3
 70
     0
  9
$USERI4
 70
     0
  9
$USERI5
 70
     0
  9
$USERR1
 40
0.0
  9
$USERR2
 40
0.0
  9
$USERR3
 40
0.0
  9
$USERR4
 40
0.0
  9
$USERR5
 40
0.0
  9
$WORLDVIEW
 70
     1
  9
$SHADEDGE
 70
     3
  9
$SHADEDIF
 70
    70
  9
$TILEMODE
 70
     1
  9
$MAXACTVP
 70
    64
  9
$PINSBASE
 10
0.0
 20
0.0
 30
0.0
  9
$PLIMCHECK
 70
     0
  9
$PEXTMIN
 10
1.000000000000000E+20
 20
1.000000000000000E+20
 30
1.000000000000000E+20
  9
$PEXTMAX
 10
-1.000000000000000E+20
 20
-1.000000000000000E+20
 30
-1.000000000000000E+20
  9
$PLIMMIN
 10
0.0
 20
0.0
  9
$PLIMMAX
 10
12.0
 20
9.0
  9
$UNITMODE
 70
     0
  9
$VISRETAIN
 70
     1
  9
$PLINEGEN
 70
     0
  9
$PSLTSCALE
 70
     1
  9
$TREEDEPTH
 70
  3020
  9
$CMLSTYLE
  2
Standard
  9
$CMLJUST
 70
     0
  9
$CMLSCALE
 40
1.0
  9
$PROXYGRAPHICS
 70
     1
  9
$MEASUREMENT
 70
     0
  9
$CELWEIGHT
370
    -1
  9
$ENDCAPS
280
     0
  9
$JOINSTYLE
280
     0
  9
$LWDISPLAY
290
     1
  9
$INSUNITS
 70
     1
  9
$HYPERLINKBASE
  1

  9
$STYLESHEET
  1

  9
$XEDIT
290
     1
  9
$CEPSNTYPE
380
     0
  9
$PSTYLEMODE
290
     1
  9
$FINGERPRINTGUID
  2
{2B8CDA1B-3C50-4980-8053-F605FD3FE4C8}
  9
$VERSIONGUID
  2
{FAEB1C32-E019-11D5-929B-00C0DF256EC4}
  9
$EXTNAMES
290
     1
  9
$PSVPSCALE
 40
0.0
  9
$OLESTARTUP
290
     0
  9
$SORTENTS
280
   127
  9
$INDEXCTL
280
     0
  9
$HIDETEXT
280
     1
  9
$XCLIPFRAME
290
     0
  9
$HALOGAP
280
     0
  9
$OBSCOLOR
 70
   257
  9
$OBSLTYPE
280
     0
  9
$INTERSECTIONDISPLAY
280
     0
  9
$INTERSECTIONCOLOR
 70
   257
  9
$DIMASSOC
280
     2
  9
$PROJECTNAME
  1

  0
ENDSEC
  0
SECTION
  2
CLASSES
  0
CLASS
  1
ACDBDICTIONARYWDFLT
  2
AcDbDictionaryWithDefault
  3
ObjectDBX Classes
 90
        0
 91
        3
280
     0
281
     0
  0
CLASS
  1
VISUALSTYLE
  2
AcDbVisualStyle
  3
ObjectDBX Classes
 90
     4095
 91
        3
280
     0
281
     0
  0
ENDSEC
  0
SECTION
  2
TABLES
  0
TABLE
  2
VPORT
  5
8
330
0
100
AcDbSymbolTable
 70
     1
  0
VPORT
  5
29
330
8
100
AcDbSymbolTableRecord
100
AcDbViewportTableRecord
  2
*Active
 70
     0
 10
0.0
 20
0.0
 11
1.0
 21
1.0
 12
0.0
 22
0.0
 13
0.0
 23
0.0
 14
0.5
 24
0.5
 15
0.5
 25
0.5
 16
0.0
 26
0.0
 36
1.0
 17
50.7999999873
 27
40.52999809099597
 37
0.0
 40
81.05999618199195
 41
1.253392607452049
 42
50.0
 43
0.0
 44
0.0
 50
0.0
 51
0.0
 71
     0
 72
   100
 73
     1
 74
     3
 75
     0
 76
     0
 77
     0
 78
     0
281
     0
 65
     1
110
0.0
120
0.0
130
0.0
111
1.0
121
0.0
131
0.0
112
0.0
122
1.0
132
0.0
 79
     0
146
0.0
  0
ENDTAB
  0
TABLE
  2
LTYPE
  5
5
330
0
100
AcDbSymbolTable
 70
     1
  0
LTYPE
  5
14
330
5
100
AcDbSymbolTableRecord
100
AcDbLinetypeTableRecord
  2
ByBlock
 70
     0
  3

 72
    65
 73
     0
 40
0.0
  0
LTYPE
  5
15
330
5
100
AcDbSymbolTableRecord
100
AcDbLinetypeTableRecord
  2
ByLayer
 70
     0
  3

 72
    65
 73
     0
 40
0.0
  0
LTYPE
  5
16
330
5
100
AcDbSymbolTableRecord
100
AcDbLinetypeTableRecord
  2
Continuous
 70
     0
  3
Solid line
 72
    65
 73
     0
 40
0.0
  0
ENDTAB
  0
TABLE
  2
LAYER
  5
2
330
0
100
AcDbSymbolTable
 70
     2
  0
LAYER
  5
10
330
2
100
AcDbSymbolTableRecord
100
AcDbLayerTableRecord
  2
0
 70
     0
 62
     7
  6
Continuous
370
    -3
390
F
  0
LAYER
  5
3B
330
2
100
AcDbSymbolTableRecord
100
AcDbLayerTableRecord
  2
Layer 1
 70
     0
 62
     7
  6
Continuous
370
    -3
390
F
  0
ENDTAB
  0
TABLE
  2
STYLE
  5
3
330
0
100
AcDbSymbolTable
 70
     1
  0
STYLE
  5
11
330
3
100
AcDbSymbolTableRecord
100
AcDbTextStyleTableRecord
  2
Standard
 70
     0
 40
0.0
 41
1.0
 50
0.0
 71
     0
 42
0.2
  3
txt
  4

  0
ENDTAB
  0
TABLE
  2
VIEW
  5
6
330
0
100
AcDbSymbolTable
 70
     0
  0
ENDTAB
  0
TABLE
  2
UCS
  5
7
330
0
100
AcDbSymbolTable
 70
     0
  0
ENDTAB
  0
TABLE
  2
APPID
  5
9
330
0
100
AcDbSymbolTable
 70
     1
  0
APPID
  5
12
330
9
100
AcDbSymbolTableRecord
100
AcDbRegAppTableRecord
  2
ACAD
 70
     0
  0
ENDTAB
  0
TABLE
  2
DIMSTYLE
  5
A
330
0
100
AcDbSymbolTable
 70
     1
100
AcDbDimStyleTable
  0
DIMSTYLE
105
27
330
A
100
AcDbSymbolTableRecord
100
AcDbDimStyleTableRecord
  2
Standard
 70
     0
340
11
  0
ENDTAB
  0
TABLE
  2
BLOCK_RECORD
  5
1
330
0
100
AcDbSymbolTable
 70
     1
  0
BLOCK_RECORD
  5
1F
330
1
100
AcDbSymbolTableRecord
100
AcDbBlockTableRecord
  2
*Model_Space
340
22
  0
BLOCK_RECORD
  5
1B
330
1
100
AcDbSymbolTableRecord
100
AcDbBlockTableRecord
  2
*Paper_Space
340
1E
  0
BLOCK_RECORD
  5
23
330
1
100
AcDbSymbolTableRecord
100
AcDbBlockTableRecord
  2
*Paper_Space0
340
26
  0
ENDTAB
  0
ENDSEC
  0
SECTION
  2
BLOCKS
  0
BLOCK
  5
20
330
1F
100
AcDbEntity
  8
0
100
AcDbBlockBegin
  2
*Model_Space
 70
     0
 71
     0
 10
0.0
 20
0.0
 30
0.0
  3
*Model_Space
  1

  0
ENDBLK
  5
21
330
1F
100
AcDbEntity
  8
0
100
AcDbBlockEnd
  0
BLOCK
  5
1C
330
1B
100
AcDbEntity
 67
     1
  8
0
100
AcDbBlockBegin
  2
*Paper_Space
 70
     0
 71
     0
 10
0.0
 20
0.0
 30
0.0
  3
*Paper_Space
  1

  0
ENDBLK
  5
1D
330
1B
100
AcDbEntity
 67
     1
  8
0
100
AcDbBlockEnd
  0
BLOCK
  5
24
330
23
100
AcDbEntity
  8
0
100
AcDbBlockBegin
  2
*Paper_Space0
 70
     0
 71
     0
 10
0.0
 20
0.0
 30
0.0
  3
*Paper_Space0
  1

  0
ENDBLK
  5
25
330
23
100
AcDbEntity
  8
0
100
AcDbBlockEnd
  0
ENDSEC
  0
SECTION
  2
ENTITIES
  0
SPLINE
  5
3C
330
1F
100
AcDbEntity
  8
Layer 1
370
     0
100
AcDbSpline
210
0.0
220
0.0
230
1.0
 70
    11
 71
     3
 72
   275
 73
   271
 74
     0
 42
0.0000000001
 43
0.0000000001
 40
0.0
 40
0.0
 40
0.0
 40
0.0
 40
1.0
 40
1.0
 40
1.0
 40
2.0
 40
2.0
 40
2.0
 40
3.0
 40
3.0
 40
3.0
 40
4.0
 40
4.0
 40
4.0
 40
5.0
 40
5.0
 40
5.0
 40
6.0
 40
6.0
 40
6.0
 40
7.0
 40
7.0
 40
7.0
 40
8.0
 40
8.0
 40
8.0
 40
9.0
 40
9.0
 40
9.0
 40
10.0
 40
10.0
 40
10.0
 40
11.0
 40
11.0
 40
11.0
 40
12.0
 40
12.0
 40
12.0
 40
13.0
 40
13.0
 40
13.0
 40
14.0
 40
14.0
 40
14.0
 40
15.0
 40
15.0
 40
15.0
 40
16.0
 40
16.0
 40
16.0
 40
17.0
 40
17.0
 40
17.0
 40
18.0
 40
18.0
 40
18.0
 40
19.0
 40
19.0
 40
19.0
 40
20.0
 40
20.0
 40
20.0
 40
21.0
 40
21.0
 40
21.0
 40
22.0
 40
22.0
 40
22.0
 40
23.0
 40
23.0
 40
23.0
 40
24.0
 40
24.0
 40
24.0
 40
25.0
 40
25.0
 40
25.0
 40
26.0
 40
26.0
 40
26.0
 40
27.0
 40
27.0
 40
27.0
 40
28.0
 40
28.0
 40
28.0
 40
29.0
 40
29.0
 40
29.0
 40
30.0
 40
30.0
 40
30.0
 40
31.0
 40
31.0
 40
31.0
 40
32.0
 40
32.0
 40
32.0
 40
33.0
 40
33.0
 40
33.0
 40
34.0
 40
34.0
 40
34.0
 40
35.0
 40
35.0
 40
35.0
 40
36.0
 40
36.0
 40
36.0
 40
37.0
 40
37.0
 40
37.0
 40
38.0
 40
38.0
 40
38.0
 40
39.0
 40
39.0
 40
39.0
 40
40.0
 40
40.0
 40
40.0
 40
41.0
 40
41.0
 40
41.0
 40
42.0
 40
42.0
 40
42.0
 40
43.0
 40
43.0
 40
43.0
 40
44.0
 40
44.0
 40
44.0
 40
45.0
 40
45.0
 40
45.0
 40
46.0
 40
46.0
 40
46.0
 40
47.0
 40
47.0
 40
47.0
 40
48.0
 40
48.0
 40
48.0
 40
49.0
 40
49.0
 40
49.0
 40
50.0
 40
50.0
 40
50.0
 40
51.0
 40
51.0
 40
51.0
 40
52.0
 40
52.0
 40
52.0
 40
53.0
 40
53.0
 40
53.0
 40
54.0
 40
54.0
 40
54.0
 40
55.0
 40
55.0
 40
55.0
 40
56.0
 40
56.0
 40
56.0
 40
57.0
 40
57.0
 40
57.0
 40
58.0
 40
58.0
 40
58.0
 40
59.0
 40
59.0
 40
59.0
 40
60.0
 40
60.0
 40
60.0
 40
61.0
 40
61.0
 40
61.0
 40
62.0
 40
62.0
 40
62.0
 40
63.0
 40
63.0
 40
63.0
 40
64.0
 40
64.0
 40
64.0
 40
65.0
 40
65.0
 40
65.0
 40
66.0
 40
66.0
 40
66.0
 40
67.0
 40
67.0
 40
67.0
 40
68.0
 40
68.0
 40
68.0
 40
69.0
 40
69.0
 40
69.0
 40
70.0
 40
70.0
 40
70.0
 40
71.0
 40
71.0
 40
71.0
 40
72.0
 40
72.0
 40
72.0
 40
73.0
 40
73.0
 40
73.0
 40
74.0
 40
74.0
 40
74.0
 40
75.0
 40
75.0
 40
75.0
 40
76.0
 40
76.0
 40
76.0
 40
77.0
 40
77.0
 40
77.0
 40
78.0
 40
78.0
 40
78.0
 40
79.0
 40
79.0
 40
79.0
 40
80.0
 40
80.0
 40
80.0
 40
81.0
 40
81.0
 40
81.0
 40
82.0
 40
82.0
 40
82.0
 40
83.0
 40
83.0
 40
83.0
 40
84.0
 40
84.0
 40
84.0
 40
85.0
 40
85.0
 40
85.0
 40
86.0
 40
86.0
 40
86.0
 40
87.0
 40
87.0
 40
87.0
 40
88.0
 40
88.0
 40
88.0
 40
89.0
 40
89.0
 40
89.0
 40
90.0
 40
90.0
 40
90.0
 40
90.0
 10
1.663981119375672
 20
70.8938639145682
 30
0.0
 10
2.251025390062244
 20
70.03999699854903
 30
0.0
 10
2.522498914299931
 20
69.09604083559057
 30
0.0
 10
3.043397351669706
 20
68.20841198381595
 30
0.0
 10
4.206289332715789
 20
66.22662080592599
 30
0.0
 10
5.167987737423281
 20
63.92719182429598
 30
0.0
 10
5.381239147960246
 20
61.63620332660484
 30
0.0
 10
5.617744953022648
 20
59.09010550823095
 30
0.0
 10
5.840125866595525
 20
56.52023653100883
 30
0.0
 10
5.726437715582279
 20
53.93968775778244
 30
0.0
 10
5.643410914387759
 20
52.05263670573684
 30
0.0
 10
5.132158744376683
 20
50.22604707945738
 30
0.0
 10
4.772835285265125
 20
48.40479735118005
 30
0.0
 10
4.454680717202303
 20
46.79180364498608
 30
0.0
 10
3.766178384475122
 20
45.20189207854328
 30
0.0
 10
4.838464354259134
 20
43.64436440966183
 30
0.0
 10
5.614816621860185
 20
42.51592338346824
 30
0.0
 10
7.183540851068699
 20
41.56352673657093
 30
0.0
 10
8.407411022203704
 20
40.94582111606563
 30
0.0
 10
11.01948241912013
 20
39.6278998381833
 30
0.0
 10
13.92335340363722
 20
39.69370116195158
 30
0.0
 10
16.79621852878706
 20
39.8428737964629
 30
0.0
 10
17.67230631068609
 20
39.88903807596524
 30
0.0
 10
20.60838893799027
 20
40.07989636584809
 30
0.0
 10
20.10385470417543
 20
38.78350693474857
 30
0.0
 10
19.91334092384111
 20
38.29602592358572
 30
0.0
 10
18.92545979344572
 20
37.65937227791155
 30
0.0
 10
18.52806802922215
 20
37.31210665299837
 30
0.0
 10
17.04374863940226
 20
36.01675075054442
 30
0.0
 10
15.3420437244631
 20
34.98391112406652
 30
0.0
 10
13.9348944735128
 20
33.59760470080199
 30
0.0
 10
12.20390624694902
 20
31.89055988786069
 30
0.0
 10
11.9078002899918
 20
30.18282605582235
 30
0.0
 10
11.34556070679903
 20
27.90906303555746
 30
0.0
 10
10.78883327638265
 20
25.65665960730112
 30
0.0
 10
11.64959038337233
 20
23.10074326679426
 30
0.0
 10
12.19477674391311
 20
20.92378742966489
 30
0.0
 10
12.64694552635215
 20
19.1133897521661
 30
0.0
 10
13.69890543277319
 20
17.5772216752932
 30
0.0
 10
14.5401977502712
 20
15.9390787720569
 30
0.0
 10
15.39337564719332
 20
14.2775092195209
 30
0.0
 10
15.92168103985639
 20
12.50879719739364
 30
0.0
 10
16.35938042125738
 20
10.69908853899189
 30
0.0
 10
16.56970350063188
 20
9.829890948063362
 30
0.0
 10
16.67770724409446
 20
9.082994246861196
 30
0.0
 10
16.79621852878706
 20
8.195882159409363
 30
0.0
 10
16.94074028439329
 20
7.115844724783539
 30
0.0
 10
17.43735079859205
 20
6.665570744861386
 30
0.0
 10
18.29070095028844
 20
5.938655597473669
 30
0.0
 10
19.64410671166884
 20
4.7835150812694
 30
0.0
 10
21.38422444126853
 20
4.682229274003054
 30
0.0
 10
22.70076768095675
 20
3.629408093710704
 30
0.0
 10
23.30865477932909
 20
3.143649630290477
 30
0.0
 10
23.6025214242209
 20
2.397441948185362
 30
0.0
 10
24.14701876566464
 20
1.875854491718536
 30
0.0
 10
24.7946967168916
 20
1.255392794825041
 30
0.0
 10
25.6668226389826
 20
0.7896158852192627
 30
0.0
 10
26.48210448556697
 20
0.4296034070106547
 30
0.0
 10
27.93559027079388
 20
-0.211873372342865
 30
0.0
 10
29.12604301572196
 20
-0.1974039713048157
 30
0.0
 10
30.2868679394769
 20
0.9064046221692322
 30
0.0
 10
30.99104545666196
 20
1.574753146307701
 30
0.0
 10
31.21308186068632
 20
2.134925672209324
 30
0.0
 10
31.60341117916512
 20
2.982419161580784
 30
0.0
 10
32.04197183443743
 20
3.92982042002449
 30
0.0
 10
33.07705077298074
 20
4.751131183708051
 30
0.0
 10
33.71663274981737
 20
5.582777233847361
 30
0.0
 10
35.5351264017065
 20
7.949557832213999
 30
0.0
 10
37.76703151182561
 20
9.546015080078774
 30
0.0
 10
39.89541150261295
 20
11.59171277922013
 30
0.0
 10
42.12817788660337
 20
13.73594020923963
 30
0.0
 10
43.6977633896832
 20
16.4396511460637
 30
0.0
 10
45.39033880158645
 20
19.001768658444
 30
0.0
 10
46.46228026182193
 20
20.62406412244815
 30
0.0
 10
47.59657795034044
 20
22.19916177830438
 30
0.0
 10
48.58532035460714
 20
23.86417642632562
 30
0.0
 10
48.86971298691452
 20
20.0924858890741
 30
0.0
 10
49.11362574727021
 20
16.319761823177
 30
0.0
 10
49.17236462529372
 20
12.54083658540646
 30
0.0
 10
49.18924559317144
 20
11.59205728876865
 30
0.0
 10
49.90772025662029
 20
10.82311197646089
 30
0.0
 10
50.80068900639705
 20
10.82311197646089
 30
0.0
 10
51.69193520843118
 20
10.82311197646089
 30
0.0
 10
52.41127114575135
 20
11.59205728876865
 30
0.0
 10
52.42884113272613
 20
12.54083658540646
 30
0.0
 10
52.48740775597538
 20
16.31872829453143
 30
0.0
 10
52.73132051633106
 20
20.09076334133148
 30
0.0
 10
53.01554089386417
 20
23.86142034993743
 30
0.0
 10
54.0046278076794
 20
22.19778374011028
 30
0.0
 10
55.13737520322955
 20
20.62303059380258
 30
0.0
 10
56.20948891823929
 20
19.001768658444
 30
0.0
 10
57.90275334923959
 20
16.4396511460637
 30
0.0
 10
59.47130532367385
 20
13.73594020923963
 30
0.0
 10
61.70441621721279
 20
11.59067925057455
 30
0.0
 10
63.83279620800014
 20
9.546015080078774
 30
0.0
 10
66.06452906334498
 20
7.949213322665475
 30
0.0
 10
67.8835394795569
 20
5.582432724298837
 30
0.0
 10
68.52260469207074
 20
4.751131183708051
 30
0.0
 10
69.55785588538832
 20
3.92982042002449
 30
0.0
 10
69.99641654066062
 20
2.982074652032259
 30
0.0
 10
70.38674585913942
 20
2.134581162660799
 30
0.0
 10
70.60895451793805
 20
1.574753146307701
 30
0.0
 10
71.31278752557458
 20
0.9057156030721822
 30
0.0
 10
72.4741292136523
 20
-0.1980929904018656
 30
0.0
 10
73.66440970380613
 20
-0.211873372342865
 30
0.0
 10
75.1175509794845
 20
0.4296034070106547
 30
0.0
 10
75.93300508084315
 20
0.7896158852192627
 30
0.0
 10
76.80495874815988
 20
1.255392794825041
 30
0.0
 10
77.45263669938684
 20
1.875854491718536
 30
0.0
 10
77.99730629560484
 20
2.397441948185362
 30
0.0
 10
78.29117294049665
 20
3.143305120741952
 30
0.0
 10
78.89923229364325
 20
3.629408093710704
 30
0.0
 10
80.21560327855721
 20
4.681540254906004
 30
0.0
 10
81.95572100815691
 20
4.7835150812694
 30
0.0
 10
83.3096435338601
 20
5.938311087925145
 30
0.0
 10
84.16264917600795
 20
6.66522623531286
 30
0.0
 10
84.65908743543245
 20
7.115844724783539
 30
0.0
 10
84.80343693626442
 20
8.195882159409363
 30
0.0
 10
84.92194822095702
 20
9.082994246861196
 30
0.0
 10
85.03046872874239
 20
9.829546438514836
 30
0.0
 10
85.2402750437941
 20
10.69908853899189
 30
0.0
 10
85.67814667996936
 20
12.50879719739364
 30
0.0
 10
86.20662432740669
 20
14.2775092195209
 30
0.0
 10
87.05962996955454
 20
15.93873426250837
 30
0.0
 10
87.9016113061496
 20
17.57653265619615
 30
0.0
 10
88.95339895779638
 20
19.1133897521661
 30
0.0
 10
89.40505097591263
 20
20.92344292011636
 30
0.0
 10
89.95006508167916
 20
23.10074326679426
 30
0.0
 10
90.81168346254015
 20
25.65665960730112
 30
0.0
 10
90.25461152257525
 20
27.90906303555746
 30
0.0
 10
89.69202742983394
 20
30.1821370367253
 30
0.0
 10
89.39574921810245
 20
31.89055988786069
 30
0.0
 10
87.66458873676441
 20
33.59760470080199
 30
0.0
 10
86.25761174058837
 20
34.98391112406652
 30
0.0
 10
84.55573457087496
 20
36.01675075054442
 30
0.0
 10
83.07158743582933
 20
37.31141763390131
 30
0.0
 10
82.6740234168315
 20
37.6586832588145
 30
0.0
 10
81.68631454121036
 20
38.29568141403719
 30
0.0
 10
81.49580076087605
 20
38.78316242520005
 30
0.0
 10
80.99143878183548
 20
40.07920734675103
 30
0.0
 10
83.92734915436539
 20
39.88903807596524
 30
0.0
 10
84.80343693626442
 20
39.8428737964629
 30
0.0
 10
87.67595755186574
 20
39.69370116195158
 30
0.0
 10
90.58120657457692
 20
39.6278998381833
 30
0.0
 10
93.1925889523963
 20
40.9454766065171
 30
0.0
 10
94.41628686875704
 20
41.5631822270224
 30
0.0
 10
95.98449433364277
 20
42.51592338346824
 30
0.0
 10
96.76205238466366
 20
43.6440199001133
 30
0.0
 10
97.83347708057636
 20
45.20137531422049
 30
0.0
 10
97.14549151217196
 20
46.79180364498608
 30
0.0
 10
96.8261311606893
 20
48.40479735118005
 30
0.0
 10
96.46680770157775
 20
50.22604707945738
 30
0.0
 10
95.95693356976076
 20
52.05229219618832
 30
0.0
 10
95.87356225901773
 20
53.93968775778244
 30
0.0
 10
95.75952959845596
 20
56.51989202146031
 30
0.0
 10
95.98208276680309
 20
59.09010550823095
 30
0.0
 10
96.21841631709124
 20
61.63551430750779
 30
0.0
 10
96.43235674672525
 20
63.92719182429598
 30
0.0
 10
97.39422740620701
 20
66.22662080592599
 30
0.0
 10
98.55625811338177
 20
68.20806747426744
 30
0.0
 10
99.07681204120303
 20
69.09604083559057
 30
0.0
 10
99.34966360363481
 20
70.03999699854903
 30
0.0
 10
99.9356743456758
 20
70.89369165979394
 30
0.0
 10
100.5368435078519
 20
71.76891816782167
 30
0.0
 10
100.8982340242546
 20
72.7547322409259
 30
0.0
 10
101.1724636248805
 20
73.80634763779841
 30
0.0
 10
101.5896646881443
 20
75.40452743340582
 30
0.0
 10
101.9558783382263
 20
77.454703756678
 30
0.0
 10
100.9754041631242
 20
78.9316161912046
 30
0.0
 10
100.0955267761914
 20
80.25797795302579
 30
0.0
 10
98.63549530954252
 20
80.72840574153665
 30
0.0
 10
97.15065915539984
 20
80.93993460433099
 30
0.0
 10
95.27308211593868
 20
81.20934107127754
 30
0.0
 10
93.1788085704553
 20
81.0069417115191
 30
0.0
 10
91.37392304573291
 20
80.50964217822329
 30
0.0
 10
89.54905596719607
 20
80.00751951124812
 30
0.0
 10
87.33592662747158
 20
79.69246552912203
 30
0.0
 10
85.66850041261065
 20
78.75884465261932
 30
0.0
 10
82.00360783540188
 20
76.70780705547583
 30
0.0
 10
78.15405814018371
 20
74.44575735986079
 30
0.0
 10
74.92875974689281
 20
71.7361897607118
 30
0.0
 10
69.898231319331
 20
67.50802407166466
 30
0.0
 10
64.46359319134939
 20
63.13499211746278
 30
0.0
 10
60.3091525456866
 20
58.02281492690055
 30
0.0
 10
58.18387314083598
 20
55.40815970837019
 30
0.0
 10
56.51024575410161
 20
52.43366426640547
 30
0.0
 10
55.11532659212395
 20
49.33480087742325
 30
0.0
 10
54.64886066342112
 20
50.13544106819531
 30
0.0
 10
54.10281302900902
 20
50.84116887834874
 30
0.0
 10
53.4792507461788
 20
51.38911131527772
 30
0.0
 10
56.17848305887205
 20
52.67085909056492
 30
0.0
 10
57.50415580159618
 20
55.49325356685586
 30
0.0
 10
56.59189451710203
 20
57.52052000515112
 30
0.0
 10
55.83500703899264
 20
59.31455347909498
 30
0.0
 10
54.78459742553996
 20
60.98886988492639
 30
0.0
 10
53.48166231301848
 20
62.0051730530751
 30
0.0
 10
53.8943847521514
 20
64.4644544652207
 30
0.0
 10
55.38266600177933
 20
67.21639673883827
 30
0.0
 10
56.32800020293189
 20
69.14651148444949
 30
0.0
 10
57.25541990756115
 20
71.04165851088543
 30
0.0
 10
58.31857637430925
 20
72.90924477343935
 30
0.0
 10
59.65802949897439
 20
74.5466986575786
 30
0.0
 10
60.12105033219196
 20
75.11307235535368
 30
0.0
 10
61.4701497242158
 20
76.10370956213727
 30
0.0
 10
61.4053819290931
 20
76.88540172774046
 30
0.0
 10
61.38161077024488
 20
77.17392847463013
 30
0.0
 10
61.31133082234578
 20
77.3623751976733
 30
0.0
 10
61.21142305327353
 20
77.47468531049245
 30
0.0
 10
60.83521862628425
 20
77.89515921446718
 30
0.0
 10
60.03423392596367
 20
77.24403616775497
 30
0.0
 10
59.64562715522749
 20
76.78773327073363
 30
0.0
 10
57.0425130065727
 20
74.37186006170218
 30
0.0
 10
53.42033961338103
 20
67.19073077747315
 30
0.0
 10
51.71501734818236
 20
62.89573023601218
 30
0.0
 10
51.4190836459994
 20
62.96824949597669
 30
0.0
 10
51.11436495032905
 20
63.0076958392828
 30
0.0
 10
50.80068900639705
 20
63.00752358450854
 30
0.0
 10
50.49166394137014
 20
63.0076958392828
 30
0.0
 10
50.19159612460488
 20
62.96859400552522
 30
0.0
 10
49.89979653700422
 20
62.89814180285185
 30
0.0
 10
48.75464679770717
 20
65.90037026347282
 30
0.0
 10
47.26774358627335
 20
68.81664359173682
 30
0.0
 10
45.67714300073349
 20
71.58150497342407
 30
0.0
 10
44.76315916849671
 20
73.16934948257573
 30
0.0
 10
43.78974743913937
 20
74.75736624650163
 30
0.0
 10
42.58069117859094
 20
76.14057208382944
 30
0.0
 10
42.17279187313736
 20
76.60721026730653
 30
0.0
 10
41.44880505691211
 20
77.6181735374531
 30
0.0
 10
40.73343097939998
 20
77.51292587037872
 30
0.0
 10
40.51845702112039
 20
77.48123099191442
 30
0.0
 10
40.3723849725458
 20
77.41715221588878
 30
0.0
 10
40.28074543263815
 20
77.33085257398326
 30
0.0
 10
39.91246472526494
 20
76.98513724203845
 30
0.0
 10
40.40804171081813
 20
76.27803139369091
 30
0.0
 10
40.78390162825889
 20
75.81862791073284
 30
0.0
 10
44.30220539257029
 20
72.42589787685881
 30
0.0
 10
47.18592256849866
 20
65.3346855847948
 30
0.0
 10
47.98862981656188
 20
61.89630803574121
 30
0.0
 10
46.74701740367783
 20
60.8717366384279
 30
0.0
 10
45.73967148379078
 20
59.25374754378031
 30
0.0
 10
45.00931124091781
 20
57.52052000515112
 30
0.0
 10
44.09756672074644
 20
55.49325356685586
 30
0.0
 10
45.42341171824484
 20
52.67085909056492
 30
0.0
 10
48.12195501184104
 20
51.38911131527772
 30
0.0
 10
47.4980482194623
 20
50.84082436880021
 30
0.0
 10
46.95148382072741
 20
50.13492430387252
 30
0.0
 10
46.48536240157311
 20
49.33376734877767
 30
0.0
 10
45.09044323959544
 20
52.43280299253416
 30
0.0
 10
43.41629908853829
 20
55.40781519882166
 30
0.0
 10
41.29067517413914
 20
58.02281492690055
 30
0.0
 10
37.13606227370209
 20
63.13516437223704
 30
0.0
 10
31.70159640049474
 20
67.50802407166466
 30
0.0
 10
26.67089571815866
 20
71.7361897607118
 30
0.0
 10
23.44576957964203
 20
74.44575735986079
 30
0.0
 10
19.5960476296496
 20
76.70815156502435
 30
0.0
 10
15.93115505244082
 20
78.75918916216784
 30
0.0
 10
14.2637288375799
 20
79.69281003867056
 30
0.0
 10
12.05059949785541
 20
80.00751951124812
 30
0.0
 10
10.22538790977004
 20
80.50981443299754
 30
0.0
 10
8.421363658918965
 20
81.0069417115191
 30
0.0
 10
6.326056584790014
 20
81.20934107127754
 30
0.0
 10
4.448651800103115
 20
80.94045136865378
 30
0.0
 10
2.964332410283223
 20
80.72840574153665
 30
0.0
 10
1.504473198408604
 20
80.25849471734857
 30
0.0
 10
0.6242513019272705
 20
78.9316161912046
 30
0.0
 10
-0.3562228731748332
 20
77.454703756678
 30
0.0
 10
0.0106797960042745
 20
75.40452743340582
 30
0.0
 10
0.4275363497195048
 20
73.80634763779841
 30
0.0
 10
0.7017659503453919
 20
72.7547322409259
 30
0.0
 10
1.062639702425312
 20
71.76943493214445
 30
0.0
 10
1.663981119375672
 20
70.8938639145682
 30
0.0
  0
SPLINE
  5
3D
330
1F
100
AcDbEntity
  8
Layer 1
370
     0
100
AcDbSpline
210
0.0
220
0.0
230
1.0
 70
    11
 71
     3
 72
    23
 73
    19
 74
     0
 42
0.0000000001
 43
0.0000000001
 40
0.0
 40
0.0
 40
0.0
 40
0.0
 40
1.0
 40
1.0
 40
1.0
 40
2.0
 40
2.0
 40
2.0
 40
3.0
 40
3.0
 40
3.0
 40
4.0
 40
4.0
 40
4.0
 40
5.0
 40
5.0
 40
5.0
 40
6.0
 40
6.0
 40
6.0
 40
6.0
 10
85.1493245229835
 20
65.35466713860926
 30
0.0
 10
84.9092013676616
 20
63.69895424839818
 30
0.0
 10
82.15622556539844
 20
65.48799233388843
 30
0.0
 10
81.34421655952507
 20
65.61098224271184
 30
0.0
 10
80.72651093901976
 20
65.70572236855621
 30
0.0
 10
80.0884792551515
 20
65.65645750311714
 30
0.0
 10
79.44424639940978
 20
65.59479029393117
 30
0.0
 10
78.96089950282922
 20
65.54879826920308
 30
0.0
 10
78.08963485460954
 20
65.12074515516079
 30
0.0
 10
77.62351343545524
 20
65.42046846237753
 30
0.0
 10
76.28474932988715
 20
66.28001978594736
 30
0.0
 10
80.43540037051615
 20
66.8190049746147
 30
0.0
 10
80.91426864296588
 20
66.80780841428763
 30
0.0
 10
81.88785262709749
 20
66.78334823634236
 30
0.0
 10
85.05010577300831
 20
67.15559080352361
 30
0.0
 10
85.1603488285363
 20
65.63285859904317
 30
0.0
 10
85.16723901950681
 20
65.54604219281488
 30
0.0
 10
85.16344941447304
 20
65.45354137903593
 30
0.0
 10
85.1493245229835
 20
65.35466713860926
 30
0.0
  0
SPLINE
  5
3E
330
1F
100
AcDbEntity
  8
Layer 1
370
     0
100
AcDbSpline
210
0.0
220
0.0
230
1.0
 70
    11
 71
     3
 72
    26
 73
    22
 74
     0
 42
0.0000000001
 43
0.0000000001
 40
0.0
 40
0.0
 40
0.0
 40
0.0
 40
1.0
 40
1.0
 40
1.0
 40
2.0
 40
2.0
 40
2.0
 40
3.0
 40
3.0
 40
3.0
 40
4.0
 40
4.0
 40
4.0
 40
5.0
 40
5.0
 40
5.0
 40
6.0
 40
6.0
 40
6.0
 40
7.0
 40
7.0
 40
7.0
 40
7.0
 10
73.61652287656115
 20
68.36947019775138
 30
0.0
 10
74.2859049293452
 20
69.66293129768843
 30
0.0
 10
76.75603839226933
 20
70.80136310078925
 30
0.0
 10
78.05415037111146
 20
71.32226153815903
 30
0.0
 10
78.9288601148164
 20
71.6728000037832
 30
0.0
 10
79.86833765364403
 20
72.10981036608713
 30
0.0
 10
80.82607419854348
 20
72.27465818505634
 30
0.0
 10
82.50073511392343
 20
72.56473522491437
 30
0.0
 10
84.44686955354106
 20
72.43347708692636
 30
0.0
 10
85.49211152376587
 20
70.9655219006614
 30
0.0
 10
86.84706757811463
 20
69.06296791893217
 30
0.0
 10
85.43836803419596
 20
68.29746770210967
 30
0.0
 10
83.48568791315635
 20
68.12228459668471
 30
0.0
 10
80.9339056872318
 20
67.89335800168986
 30
0.0
 10
78.41760794480533
 20
68.12572969216995
 30
0.0
 10
76.00225150009666
 20
67.1487006125531
 30
0.0
 10
75.30048554975127
 20
66.8653415088913
 30
0.0
 10
74.22182615331954
 20
65.95049640278322
 30
0.0
 10
73.41291773338288
 20
66.20750052598285
 30
0.0
 10
72.53304034645008
 20
66.48689776983662
 30
0.0
 10
73.2696017611965
 20
67.69991589019308
 30
0.0
 10
73.61652287656115
 20
68.36947019775138
 30
0.0
  0
SPLINE
  5
3F
330
1F
100
AcDbEntity
  8
Layer 1
370
     0
100
AcDbSpline
210
0.0
220
0.0
230
1.0
 70
    11
 71
     3
 72
    35
 73
    31
 74
     0
 42
0.0000000001
 43
0.0000000001
 40
0.0
 40
0.0
 40
0.0
 40
0.0
 40
1.0
 40
1.0
 40
1.0
 40
2.0
 40
2.0
 40
2.0
 40
3.0
 40
3.0
 40
3.0
 40
4.0
 40
4.0
 40
4.0
 40
5.0
 40
5.0
 40
5.0
 40
6.0
 40
6.0
 40
6.0
 40
7.0
 40
7.0
 40
7.0
 40
8.0
 40
8.0
 40
8.0
 40
9.0
 40
9.0
 40
9.0
 40
10.0
 40
10.0
 40
10.0
 40
10.0
 10
72.69633787245093
 20
51.62630613943718
 30
0.0
 10
72.81588268578909
 20
54.54257946770117
 30
0.0
 10
73.77327472114001
 20
58.06708440388601
 30
0.0
 10
75.92301430393591
 20
60.14413247194314
 30
0.0
 10
77.52153860909183
 20
61.68770750410933
 30
0.0
 10
79.77497556599376
 20
65.50986869021976
 30
0.0
 10
82.487988260628
 20
64.4225965550749
 30
0.0
 10
83.67034503116575
 20
63.94906818062732
 30
0.0
 10
82.95514320842788
 20
61.48909774938468
 30
0.0
 10
82.80976017895034
 20
60.51224092454208
 30
0.0
 10
82.38187931968231
 20
57.63851452552093
 30
0.0
 10
82.43768986654337
 20
54.13846976728136
 30
0.0
 10
82.72845592549845
 20
51.25819768683823
 30
0.0
 10
82.8821071841406
 20
49.73667126577764
 30
0.0
 10
83.06331920666473
 20
48.25372991415185
 30
0.0
 10
83.35580781336245
 20
46.76148680471588
 30
0.0
 10
83.60902233152831
 20
45.46595864748768
 30
0.0
 10
84.5619357427484
 20
43.83160534928516
 30
0.0
 10
82.81940644630905
 20
43.21183267148871
 30
0.0
 10
81.53610837805347
 20
42.75552977446737
 30
0.0
 10
80.6372829659518
 20
42.65062661694151
 30
0.0
 10
79.46560599141833
 20
41.80778400647514
 30
0.0
 10
78.24776473738251
 20
40.93169622457611
 30
0.0
 10
77.2025227671577
 20
40.82248669769368
 30
0.0
 10
75.9006211832818
 20
41.5535359596637
 30
0.0
 10
74.32448999878
 20
42.43909775414717
 30
0.0
 10
73.23549531589252
 20
43.80008272559512
 30
0.0
 10
72.88685165278524
 20
45.55105250597335
 30
0.0
 10
72.49617782475791
 20
47.51200085617756
 30
0.0
 10
72.61296656170788
 20
49.59766166294781
 30
0.0
 10
72.69633787245093
 20
51.62630613943718
 30
0.0
  0
SPLINE
  5
40
330
1F
100
AcDbEntity
  8
Layer 1
370
     0
100
AcDbSpline
210
0.0
220
0.0
230
1.0
 70
    11
 71
     3
 72
    41
 73
    37
 74
     0
 42
0.0000000001
 43
0.0000000001
 40
0.0
 40
0.0
 40
0.0
 40
0.0
 40
1.0
 40
1.0
 40
1.0
 40
2.0
 40
2.0
 40
2.0
 40
3.0
 40
3.0
 40
3.0
 40
4.0
 40
4.0
 40
4.0
 40
5.0
 40
5.0
 40
5.0
 40
6.0
 40
6.0
 40
6.0
 40
7.0
 40
7.0
 40
7.0
 40
8.0
 40
8.0
 40
8.0
 40
9.0
 40
9.0
 40
9.0
 40
10.0
 40
10.0
 40
10.0
 40
11.0
 40
11.0
 40
11.0
 40
12.0
 40
12.0
 40
12.0
 40
12.0
 10
64.24069551345372
 20
29.01356064812856
 30
0.0
 10
65.04271374241988
 20
29.33739962374204
 30
0.0
 10
66.00010577777081
 20
28.95568304397636
 30
0.0
 10
66.62125649376135
 20
29.72772894222085
 30
0.0
 10
68.01100801251114
 20
31.45406628987954
 30
0.0
 10
65.93223739671139
 20
34.73999836371083
 30
0.0
 10
68.63009167121054
 20
35.91305337643841
 30
0.0
 10
72.04314776844755
 20
37.39754502103256
 30
0.0
 10
76.76499564053098
 20
33.9438367970696
 30
0.0
 10
78.62224661662917
 20
31.3293538333135
 30
0.0
 10
80.48500974550375
 20
28.70763616903837
 30
0.0
 10
80.77853188084704
 20
25.29285752405873
 30
0.0
 10
80.21973739313951
 20
22.18675943455748
 30
0.0
 10
79.55690102177745
 20
18.49465060301523
 30
0.0
 10
75.09619138747595
 20
17.30092501737616
 30
0.0
 10
73.19415417006952
 20
14.41979166306172
 30
0.0
 10
72.77006291583527
 20
13.77762586461115
 30
0.0
 10
72.37284340638595
 20
13.01074760959454
 30
0.0
 10
72.26191133176091
 20
12.25558267922777
 30
0.0
 10
72.1540798430726
 20
11.52074381222398
 30
0.0
 10
72.35940753399349
 20
10.88650173338949
 30
0.0
 10
71.9832031070042
 20
10.20023871272772
 30
0.0
 10
71.31898869744803
 20
8.9879096114683
 30
0.0
 10
69.09345701397663
 20
8.77017957680051
 30
0.0
 10
68.09162324686599
 20
9.64316677276282
 30
0.0
 10
66.84863279578785
 20
10.72596028377684
 30
0.0
 10
66.31636554331675
 20
12.8074869759648
 30
0.0
 10
65.80063474917485
 20
14.3092040979852
 30
0.0
 10
65.1367648491672
 20
16.24052462701626
 30
0.0
 10
65.29351669374607
 20
18.36373697457573
 30
0.0
 10
65.17293835176233
 20
20.38221841938361
 30
0.0
 10
65.07578665907828
 20
22.00554741203334
 30
0.0
 10
64.76607257495432
 20
23.69123263296608
 30
0.0
 10
64.24069551345372
 20
25.15849880013399
 30
0.0
 10
63.80385740592404
 20
26.37806260191243
 30
0.0
 10
62.48851994965565
 20
28.30800509274939
 30
0.0
 10
64.24069551345372
 20
29.01356064812856
 30
0.0
  0
SPLINE
  5
41
330
1F
100
AcDbEntity
  8
Layer 1
370
     0
100
AcDbSpline
210
0.0
220
0.0
230
1.0
 70
    11
 71
     3
 72
    23
 73
    19
 74
     0
 42
0.0000000001
 43
0.0000000001
 40
0.0
 40
0.0
 40
0.0
 40
0.0
 40
1.0
 40
1.0
 40
1.0
 40
2.0
 40
2.0
 40
2.0
 40
3.0
 40
3.0
 40
3.0
 40
4.0
 40
4.0
 40
4.0
 40
5.0
 40
5.0
 40
5.0
 40
6.0
 40
6.0
 40
6.0
 40
6.0
 10
16.45084770639076
 20
65.35466713860926
 30
0.0
 10
16.43637830535271
 20
65.45354137903593
 30
0.0
 10
16.43258870031894
 20
65.5463867023634
 30
0.0
 10
16.43930663651517
 20
65.6332031085917
 30
0.0
 10
16.54954969204317
 20
67.15593531307213
 30
0.0
 10
19.71180283795399
 20
66.78352049111662
 30
0.0
 10
20.6853868220856
 20
66.80815292383616
 30
0.0
 10
21.16408283976106
 20
66.8190049746147
 30
0.0
 10
25.31525064471285
 20
66.28070880504441
 30
0.0
 10
23.97614202959624
 20
65.42046846237753
 30
0.0
 10
23.5101928652162
 20
65.12126191948357
 30
0.0
 10
22.63910047177078
 20
65.5491427787516
 30
0.0
 10
22.15558132041597
 20
65.5951348034797
 30
0.0
 10
21.51134846467425
 20
65.65680201266566
 30
0.0
 10
20.87331678080598
 20
65.70572236855621
 30
0.0
 10
20.25526665075216
 20
65.61132675226037
 30
0.0
 10
19.44342989965303
 20
65.48799233388843
 30
0.0
 10
16.69062635216415
 20
63.69929875794671
 30
0.0
 10
16.45084770639076
 20
65.35466713860926
 30
0.0
  0
SPLINE
  5
42
330
1F
100
AcDbEntity
  8
Layer 1
370
     0
100
AcDbSpline
210
0.0
220
0.0
230
1.0
 70
    11
 71
     3
 72
    41
 73
    37
 74
     0
 42
0.0000000001
 43
0.0000000001
 40
0.0
 40
0.0
 40
0.0
 40
0.0
 40
1.0
 40
1.0
 40
1.0
 40
2.0
 40
2.0
 40
2.0
 40
3.0
 40
3.0
 40
3.0
 40
4.0
 40
4.0
 40
4.0
 40
5.0
 40
5.0
 40
5.0
 40
6.0
 40
6.0
 40
6.0
 40
7.0
 40
7.0
 40
7.0
 40
8.0
 40
8.0
 40
8.0
 40
9.0
 40
9.0
 40
9.0
 40
10.0
 40
10.0
 40
10.0
 40
11.0
 40
11.0
 40
11.0
 40
12.0
 40
12.0
 40
12.0
 40
12.0
 10
32.9697360486152
 20
35.91339788598693
 30
0.0
 10
35.66741806834009
 20
34.73999836371083
 30
0.0
 10
33.58864745254034
 20
31.45475530897659
 30
0.0
 10
34.97839897129013
 20
29.72772894222085
 30
0.0
 10
35.5998941968292
 20
28.95568304397636
 30
0.0
 10
36.55676946785734
 20
29.33739962374204
 30
0.0
 10
37.35913220637202
 20
29.01356064812856
 30
0.0
 10
39.11130777017009
 20
28.30834960229791
 30
0.0
 10
37.79579805912744
 20
26.37875162100948
 30
0.0
 10
37.35913220637202
 20
25.15918781923104
 30
0.0
 10
36.83375514487143
 20
23.69157714251461
 30
0.0
 10
36.52404106074746
 20
22.00554741203334
 30
0.0
 10
36.42706162283768
 20
20.38221841938361
 30
0.0
 10
36.30631102607968
 20
18.36442599367278
 30
0.0
 10
36.46289061588428
 20
16.24052462701626
 30
0.0
 10
35.79988198974794
 20
14.30989311708225
 30
0.0
 10
35.28328992173473
 20
12.8074869759648
 30
0.0
 10
34.7511949240379
 20
10.72630479332537
 30
0.0
 10
33.50803221818549
 20
9.643511282311344
 30
0.0
 10
32.5063707058491
 20
8.77017957680051
 30
0.0
 10
30.28066676760345
 20
8.98859863056535
 30
0.0
 10
29.61662461282154
 20
10.20023871272772
 30
0.0
 10
29.24076469538078
 20
10.88650173338949
 30
0.0
 10
29.44557562197889
 20
11.52108832177251
 30
0.0
 10
29.33791638806483
 20
12.2559271887763
 30
0.0
 10
29.22698431343978
 20
13.01074760959454
 30
0.0
 10
28.82959254921622
 20
13.77762586461115
 30
0.0
 10
28.40567354975622
 20
14.41979166306172
 30
0.0
 10
26.50329182280126
 20
17.30126952692468
 30
0.0
 10
22.0429266980483
 20
18.49533962211228
 30
0.0
 10
21.38009032668623
 20
22.187103944106
 30
0.0
 10
20.82129583897871
 20
25.29320203360725
 30
0.0
 10
21.11481797432199
 20
28.70763616903837
 30
0.0
 10
22.97740884842231
 20
31.3293538333135
 30
0.0
 10
24.8346598245205
 20
33.9438367970696
 30
0.0
 10
29.55650769660393
 20
37.39754502103256
 30
0.0
 10
32.9697360486152
 20
35.91339788598693
 30
0.0
  0
SPLINE
  5
43
330
1F
100
AcDbEntity
  8
Layer 1
370
     0
100
AcDbSpline
210
0.0
220
0.0
230
1.0
 70
    11
 71
     3
 72
    35
 73
    31
 74
     0
 42
0.0000000001
 43
0.0000000001
 40
0.0
 40
0.0
 40
0.0
 40
0.0
 40
1.0
 40
1.0
 40
1.0
 40
2.0
 40
2.0
 40
2.0
 40
3.0
 40
3.0
 40
3.0
 40
4.0
 40
4.0
 40
4.0
 40
5.0
 40
5.0
 40
5.0
 40
6.0
 40
6.0
 40
6.0
 40
7.0
 40
7.0
 40
7.0
 40
8.0
 40
8.0
 40
8.0
 40
9.0
 40
9.0
 40
9.0
 40
10.0
 40
10.0
 40
10.0
 40
10.0
 10
28.71314832181477
 20
45.55105250597335
 30
0.0
 10
28.36450465870749
 20
43.80042723514364
 30
0.0
 10
27.27533772104575
 20
42.43909775414717
 30
0.0
 10
25.69955104609247
 20
41.55405272398649
 30
0.0
 10
24.39713269789377
 20
40.82248669769368
 30
0.0
 10
23.3522352372175
 20
40.93169622457611
 30
0.0
 10
22.13404947363316
 20
41.80830077079793
 30
0.0
 10
20.96237249909969
 20
42.65062661694151
 30
0.0
 10
20.06389159654653
 20
42.75552977446737
 30
0.0
 10
18.78093803783949
 20
43.21183267148871
 30
0.0
 10
17.03754746752881
 20
43.83160534928516
 30
0.0
 10
17.9909776430717
 20
45.46613090226194
 30
0.0
 10
18.2440199064633
 20
46.76148680471588
 30
0.0
 10
18.53633625838675
 20
48.25372991415185
 30
0.0
 10
18.71754828091089
 20
49.73667126577764
 30
0.0
 10
18.87154404910156
 20
51.25888670593528
 30
0.0
 10
19.16196559850812
 20
54.13846976728136
 30
0.0
 10
19.21777614536917
 20
57.63851452552093
 30
0.0
 10
18.7900675408754
 20
60.51224092454208
 30
0.0
 10
18.64468451139786
 20
61.48909774938468
 30
0.0
 10
17.92931043388573
 20
63.94906818062732
 30
0.0
 10
19.11183945919774
 20
64.42294106462343
 30
0.0
 10
21.82485215383198
 20
65.50986869021976
 30
0.0
 10
24.07794460118538
 20
61.68770750410933
 30
0.0
 10
25.67681341588982
 20
60.1443047267174
 30
0.0
 10
27.82638074391146
 20
58.06708440388601
 30
0.0
 10
28.78394503403666
 20
54.54257946770117
 30
0.0
 10
28.90331759260056
 20
51.62630613943718
 30
0.0
 10
28.98651664856935
 20
49.59800617249633
 30
0.0
 10
29.10364989506784
 20
47.51200085617756
 30
0.0
 10
28.71314832181477
 20
45.55105250597335
 30
0.0
  0
SPLINE
  5
44
330
1F
100
AcDbEntity
  8
Layer 1
370
     0
100
AcDbSpline
210
0.0
220
0.0
230
1.0
 70
    11
 71
     3
 72
    26
 73
    22
 74
     0
 42
0.0000000001
 43
0.0000000001
 40
0.0
 40
0.0
 40
0.0
 40
0.0
 40
1.0
 40
1.0
 40
1.0
 40
2.0
 40
2.0
 40
2.0
 40
3.0
 40
3.0
 40
3.0
 40
4.0
 40
4.0
 40
4.0
 40
5.0
 40
5.0
 40
5.0
 40
6.0
 40
6.0
 40
6.0
 40
7.0
 40
7.0
 40
7.0
 40
7.0
 10
16.10771619605988
 20
70.96586641020993
 30
0.0
 10
17.15261365673615
 20
72.43382159647489
 30
0.0
 10
19.09892035112805
 20
72.56473522491437
 30
0.0
 10
20.77409803083078
 20
72.27500269460486
 30
0.0
 10
21.73131781140745
 20
72.11049938518418
 30
0.0
 10
22.67148436933213
 20
71.67297225855745
 30
0.0
 10
23.54550509394002
 20
71.32260604770755
 30
0.0
 10
24.84378932755642
 20
70.80187986511203
 30
0.0
 10
27.31392279048055
 20
69.66362031678548
 30
0.0
 10
27.98330484326459
 20
68.36964245252565
 30
0.0
 10
28.33022595862925
 20
67.69991589019308
 30
0.0
 10
29.06644286382714
 20
66.48689776983662
 30
0.0
 10
28.18673773166859
 20
66.20750052598285
 30
0.0
 10
27.3780015665062
 20
65.95049640278322
 30
0.0
 10
26.29985893439726
 20
66.8653415088913
 30
0.0
 10
25.59740396495482
 20
67.14904512210163
 30
0.0
 10
23.18204752024615
 20
68.12572969216995
 30
0.0
 10
20.66592203259394
 20
67.89335800168986
 30
0.0
 10
18.11396755189512
 20
68.12228459668471
 30
0.0
 10
16.16145968562978
 20
68.29781221165818
 30
0.0
 10
14.75258788693685
 20
69.06296791893217
 30
0.0
 10
16.10771619605988
 20
70.96586641020993
 30
0.0
  0
HATCH
  5
45
330
1F
100
AcDbEntity
  8
Layer 1
 62
   232
420
 14756438
100
AcDbHatch
 10
0.0
 20
0.0
 30
0.0
210
0.0
220
0.0
230
1.0
  2
SOLID
 70
     1
 71
     0
 91
        9
 92
        1
 93
        1
 72
     4
 94
        3
 73
     0
 74
     1
 95
      275
 96
      271
 40
0.0
 40
0.0
 40
0.0
 40
0.0
 40
1.0
 40
1.0
 40
1.0
 40
2.0
 40
2.0
 40
2.0
 40
3.0
 40
3.0
 40
3.0
 40
4.0
 40
4.0
 40
4.0
 40
5.0
 40
5.0
 40
5.0
 40
6.0
 40
6.0
 40
6.0
 40
7.0
 40
7.0
 40
7.0
 40
8.0
 40
8.0
 40
8.0
 40
9.0
 40
9.0
 40
9.0
 40
10.0
 40
10.0
 40
10.0
 40
11.0
 40
11.0
 40
11.0
 40
12.0
 40
12.0
 40
12.0
 40
13.0
 40
13.0
 40
13.0
 40
14.0
 40
14.0
 40
14.0
 40
15.0
 40
15.0
 40
15.0
 40
16.0
 40
16.0
 40
16.0
 40
17.0
 40
17.0
 40
17.0
 40
18.0
 40
18.0
 40
18.0
 40
19.0
 40
19.0
 40
19.0
 40
20.0
 40
20.0
 40
20.0
 40
21.0
 40
21.0
 40
21.0
 40
22.0
 40
22.0
 40
22.0
 40
23.0
 40
23.0
 40
23.0
 40
24.0
 40
24.0
 40
24.0
 40
25.0
 40
25.0
 40
25.0
 40
26.0
 40
26.0
 40
26.0
 40
27.0
 40
27.0
 40
27.0
 40
28.0
 40
28.0
 40
28.0
 40
29.0
 40
29.0
 40
29.0
 40
30.0
 40
30.0
 40
30.0
 40
31.0
 40
31.0
 40
31.0
 40
32.0
 40
32.0
 40
32.0
 40
33.0
 40
33.0
 40
33.0
 40
34.0
 40
34.0
 40
34.0
 40
35.0
 40
35.0
 40
35.0
 40
36.0
 40
36.0
 40
36.0
 40
37.0
 40
37.0
 40
37.0
 40
38.0
 40
38.0
 40
38.0
 40
39.0
 40
39.0
 40
39.0
 40
40.0
 40
40.0
 40
40.0
 40
41.0
 40
41.0
 40
41.0
 40
42.0
 40
42.0
 40
42.0
 40
43.0
 40
43.0
 40
43.0
 40
44.0
 40
44.0
 40
44.0
 40
45.0
 40
45.0
 40
45.0
 40
46.0
 40
46.0
 40
46.0
 40
47.0
 40
47.0
 40
47.0
 40
48.0
 40
48.0
 40
48.0
 40
49.0
 40
49.0
 40
49.0
 40
50.0
 40
50.0
 40
50.0
 40
51.0
 40
51.0
 40
51.0
 40
52.0
 40
52.0
 40
52.0
 40
53.0
 40
53.0
 40
53.0
 40
54.0
 40
54.0
 40
54.0
 40
55.0
 40
55.0
 40
55.0
 40
56.0
 40
56.0
 40
56.0
 40
57.0
 40
57.0
 40
57.0
 40
58.0
 40
58.0
 40
58.0
 40
59.0
 40
59.0
 40
59.0
 40
60.0
 40
60.0
 40
60.0
 40
61.0
 40
61.0
 40
61.0
 40
62.0
 40
62.0
 40
62.0
 40
63.0
 40
63.0
 40
63.0
 40
64.0
 40
64.0
 40
64.0
 40
65.0
 40
65.0
 40
65.0
 40
66.0
 40
66.0
 40
66.0
 40
67.0
 40
67.0
 40
67.0
 40
68.0
 40
68.0
 40
68.0
 40
69.0
 40
69.0
 40
69.0
 40
70.0
 40
70.0
 40
70.0
 40
71.0
 40
71.0
 40
71.0
 40
72.0
 40
72.0
 40
72.0
 40
73.0
 40
73.0
 40
73.0
 40
74.0
 40
74.0
 40
74.0
 40
75.0
 40
75.0
 40
75.0
 40
76.0
 40
76.0
 40
76.0
 40
77.0
 40
77.0
 40
77.0
 40
78.0
 40
78.0
 40
78.0
 40
79.0
 40
79.0
 40
79.0
 40
80.0
 40
80.0
 40
80.0
 40
81.0
 40
81.0
 40
81.0
 40
82.0
 40
82.0
 40
82.0
 40
83.0
 40
83.0
 40
83.0
 40
84.0
 40
84.0
 40
84.0
 40
85.0
 40
85.0
 40
85.0
 40
86.0
 40
86.0
 40
86.0
 40
87.0
 40
87.0
 40
87.0
 40
88.0
 40
88.0
 40
88.0
 40
89.0
 40
89.0
 40
89.0
 40
90.0
 40
90.0
 40
90.0
 40
90.0
 10
1.663981119375672
 20
70.8938639145682
 10
2.251025390062244
 20
70.03999699854903
 10
2.522498914299931
 20
69.09604083559057
 10
3.043397351669706
 20
68.20841198381595
 10
4.206289332715789
 20
66.22662080592599
 10
5.167987737423281
 20
63.92719182429598
 10
5.381239147960246
 20
61.63620332660484
 10
5.617744953022648
 20
59.09010550823095
 10
5.840125866595525
 20
56.52023653100883
 10
5.726437715582279
 20
53.93968775778244
 10
5.643410914387759
 20
52.05263670573684
 10
5.132158744376683
 20
50.22604707945738
 10
4.772835285265125
 20
48.40479735118005
 10
4.454680717202303
 20
46.79180364498608
 10
3.766178384475122
 20
45.20189207854328
 10
4.838464354259134
 20
43.64436440966183
 10
5.614816621860185
 20
42.51592338346824
 10
7.183540851068699
 20
41.56352673657093
 10
8.407411022203704
 20
40.94582111606563
 10
11.01948241912013
 20
39.6278998381833
 10
13.92335340363722
 20
39.69370116195158
 10
16.79621852878706
 20
39.8428737964629
 10
17.67230631068609
 20
39.88903807596524
 10
20.60838893799027
 20
40.07989636584809
 10
20.10385470417543
 20
38.78350693474857
 10
19.91334092384111
 20
38.29602592358572
 10
18.92545979344572
 20
37.65937227791155
 10
18.52806802922215
 20
37.31210665299837
 10
17.04374863940226
 20
36.01675075054442
 10
15.3420437244631
 20
34.98391112406652
 10
13.9348944735128
 20
33.59760470080199
 10
12.20390624694902
 20
31.89055988786069
 10
11.9078002899918
 20
30.18282605582235
 10
11.34556070679903
 20
27.90906303555746
 10
10.78883327638265
 20
25.65665960730112
 10
11.64959038337233
 20
23.10074326679426
 10
12.19477674391311
 20
20.92378742966489
 10
12.64694552635215
 20
19.1133897521661
 10
13.69890543277319
 20
17.5772216752932
 10
14.5401977502712
 20
15.9390787720569
 10
15.39337564719332
 20
14.2775092195209
 10
15.92168103985639
 20
12.50879719739364
 10
16.35938042125738
 20
10.69908853899189
 10
16.56970350063188
 20
9.829890948063362
 10
16.67770724409446
 20
9.082994246861196
 10
16.79621852878706
 20
8.195882159409363
 10
16.94074028439329
 20
7.115844724783539
 10
17.43735079859205
 20
6.665570744861386
 10
18.29070095028844
 20
5.938655597473669
 10
19.64410671166884
 20
4.7835150812694
 10
21.38422444126853
 20
4.682229274003054
 10
22.70076768095675
 20
3.629408093710704
 10
23.30865477932909
 20
3.143649630290477
 10
23.6025214242209
 20
2.397441948185362
 10
24.14701876566464
 20
1.875854491718536
 10
24.7946967168916
 20
1.255392794825041
 10
25.6668226389826
 20
0.7896158852192627
 10
26.48210448556697
 20
0.4296034070106547
 10
27.93559027079388
 20
-0.211873372342865
 10
29.12604301572196
 20
-0.1974039713048157
 10
30.2868679394769
 20
0.9064046221692322
 10
30.99104545666196
 20
1.574753146307701
 10
31.21308186068632
 20
2.134925672209324
 10
31.60341117916512
 20
2.982419161580784
 10
32.04197183443743
 20
3.92982042002449
 10
33.07705077298074
 20
4.751131183708051
 10
33.71663274981737
 20
5.582777233847361
 10
35.5351264017065
 20
7.949557832213999
 10
37.76703151182561
 20
9.546015080078774
 10
39.89541150261295
 20
11.59171277922013
 10
42.12817788660337
 20
13.73594020923963
 10
43.6977633896832
 20
16.4396511460637
 10
45.39033880158645
 20
19.001768658444
 10
46.46228026182193
 20
20.62406412244815
 10
47.59657795034044
 20
22.19916177830438
 10
48.58532035460714
 20
23.86417642632562
 10
48.86971298691452
 20
20.0924858890741
 10
49.11362574727021
 20
16.319761823177
 10
49.17236462529372
 20
12.54083658540646
 10
49.18924559317144
 20
11.59205728876865
 10
49.90772025662029
 20
10.82311197646089
 10
50.80068900639705
 20
10.82311197646089
 10
51.69193520843118
 20
10.82311197646089
 10
52.41127114575135
 20
11.59205728876865
 10
52.42884113272613
 20
12.54083658540646
 10
52.48740775597538
 20
16.31872829453143
 10
52.73132051633106
 20
20.09076334133148
 10
53.01554089386417
 20
23.86142034993743
 10
54.0046278076794
 20
22.19778374011028
 10
55.13737520322955
 20
20.62303059380258
 10
56.20948891823929
 20
19.001768658444
 10
57.90275334923959
 20
16.4396511460637
 10
59.47130532367385
 20
13.73594020923963
 10
61.70441621721279
 20
11.59067925057455
 10
63.83279620800014
 20
9.546015080078774
 10
66.06452906334498
 20
7.949213322665475
 10
67.8835394795569
 20
5.582432724298837
 10
68.52260469207074
 20
4.751131183708051
 10
69.55785588538832
 20
3.92982042002449
 10
69.99641654066062
 20
2.982074652032259
 10
70.38674585913942
 20
2.134581162660799
 10
70.60895451793805
 20
1.574753146307701
 10
71.31278752557458
 20
0.9057156030721822
 10
72.4741292136523
 20
-0.1980929904018656
 10
73.66440970380613
 20
-0.211873372342865
 10
75.1175509794845
 20
0.4296034070106547
 10
75.93300508084315
 20
0.7896158852192627
 10
76.80495874815988
 20
1.255392794825041
 10
77.45263669938684
 20
1.875854491718536
 10
77.99730629560484
 20
2.397441948185362
 10
78.29117294049665
 20
3.143305120741952
 10
78.89923229364325
 20
3.629408093710704
 10
80.21560327855721
 20
4.681540254906004
 10
81.95572100815691
 20
4.7835150812694
 10
83.3096435338601
 20
5.938311087925145
 10
84.16264917600795
 20
6.66522623531286
 10
84.65908743543245
 20
7.115844724783539
 10
84.80343693626442
 20
8.195882159409363
 10
84.92194822095702
 20
9.082994246861196
 10
85.03046872874239
 20
9.829546438514836
 10
85.2402750437941
 20
10.69908853899189
 10
85.67814667996936
 20
12.50879719739364
 10
86.20662432740669
 20
14.2775092195209
 10
87.05962996955454
 20
15.93873426250837
 10
87.9016113061496
 20
17.57653265619615
 10
88.95339895779638
 20
19.1133897521661
 10
89.40505097591263
 20
20.92344292011636
 10
89.95006508167916
 20
23.10074326679426
 10
90.81168346254015
 20
25.65665960730112
 10
90.25461152257525
 20
27.90906303555746
 10
89.69202742983394
 20
30.1821370367253
 10
89.39574921810245
 20
31.89055988786069
 10
87.66458873676441
 20
33.59760470080199
 10
86.25761174058837
 20
34.98391112406652
 10
84.55573457087496
 20
36.01675075054442
 10
83.07158743582933
 20
37.31141763390131
 10
82.6740234168315
 20
37.6586832588145
 10
81.68631454121036
 20
38.29568141403719
 10
81.49580076087605
 20
38.78316242520005
 10
80.99143878183548
 20
40.07920734675103
 10
83.92734915436539
 20
39.88903807596524
 10
84.80343693626442
 20
39.8428737964629
 10
87.67595755186574
 20
39.69370116195158
 10
90.58120657457692
 20
39.6278998381833
 10
93.1925889523963
 20
40.9454766065171
 10
94.41628686875704
 20
41.5631822270224
 10
95.98449433364277
 20
42.51592338346824
 10
96.76205238466366
 20
43.6440199001133
 10
97.83347708057636
 20
45.20137531422049
 10
97.14549151217196
 20
46.79180364498608
 10
96.8261311606893
 20
48.40479735118005
 10
96.46680770157775
 20
50.22604707945738
 10
95.95693356976076
 20
52.05229219618832
 10
95.87356225901773
 20
53.93968775778244
 10
95.75952959845596
 20
56.51989202146031
 10
95.98208276680309
 20
59.09010550823095
 10
96.21841631709124
 20
61.63551430750779
 10
96.43235674672525
 20
63.92719182429598
 10
97.39422740620701
 20
66.22662080592599
 10
98.55625811338177
 20
68.20806747426744
 10
99.07681204120303
 20
69.09604083559057
 10
99.34966360363481
 20
70.03999699854903
 10
99.9356743456758
 20
70.89369165979394
 10
100.5368435078519
 20
71.76891816782167
 10
100.8982340242546
 20
72.7547322409259
 10
101.1724636248805
 20
73.80634763779841
 10
101.5896646881443
 20
75.40452743340582
 10
101.9558783382263
 20
77.454703756678
 10
100.9754041631242
 20
78.9316161912046
 10
100.0955267761914
 20
80.25797795302579
 10
98.63549530954252
 20
80.72840574153665
 10
97.15065915539984
 20
80.93993460433099
 10
95.27308211593868
 20
81.20934107127754
 10
93.1788085704553
 20
81.0069417115191
 10
91.37392304573291
 20
80.50964217822329
 10
89.54905596719607
 20
80.00751951124812
 10
87.33592662747158
 20
79.69246552912203
 10
85.66850041261065
 20
78.75884465261932
 10
82.00360783540188
 20
76.70780705547583
 10
78.15405814018371
 20
74.44575735986079
 10
74.92875974689281
 20
71.7361897607118
 10
69.898231319331
 20
67.50802407166466
 10
64.46359319134939
 20
63.13499211746278
 10
60.3091525456866
 20
58.02281492690055
 10
58.18387314083598
 20
55.40815970837019
 10
56.51024575410161
 20
52.43366426640547
 10
55.11532659212395
 20
49.33480087742325
 10
54.64886066342112
 20
50.13544106819531
 10
54.10281302900902
 20
50.84116887834874
 10
53.4792507461788
 20
51.38911131527772
 10
56.17848305887205
 20
52.67085909056492
 10
57.50415580159618
 20
55.49325356685586
 10
56.59189451710203
 20
57.52052000515112
 10
55.83500703899264
 20
59.31455347909498
 10
54.78459742553996
 20
60.98886988492639
 10
53.48166231301848
 20
62.0051730530751
 10
53.8943847521514
 20
64.4644544652207
 10
55.38266600177933
 20
67.21639673883827
 10
56.32800020293189
 20
69.14651148444949
 10
57.25541990756115
 20
71.04165851088543
 10
58.31857637430925
 20
72.90924477343935
 10
59.65802949897439
 20
74.5466986575786
 10
60.12105033219196
 20
75.11307235535368
 10
61.4701497242158
 20
76.10370956213727
 10
61.4053819290931
 20
76.88540172774046
 10
61.38161077024488
 20
77.17392847463013
 10
61.31133082234578
 20
77.3623751976733
 10
61.21142305327353
 20
77.47468531049245
 10
60.83521862628425
 20
77.89515921446718
 10
60.03423392596367
 20
77.24403616775497
 10
59.64562715522749
 20
76.78773327073363
 10
57.0425130065727
 20
74.37186006170218
 10
53.42033961338103
 20
67.19073077747315
 10
51.71501734818236
 20
62.89573023601218
 10
51.4190836459994
 20
62.96824949597669
 10
51.11436495032905
 20
63.0076958392828
 10
50.80068900639705
 20
63.00752358450854
 10
50.49166394137014
 20
63.0076958392828
 10
50.19159612460488
 20
62.96859400552522
 10
49.89979653700422
 20
62.89814180285185
 10
48.75464679770717
 20
65.90037026347282
 10
47.26774358627335
 20
68.81664359173682
 10
45.67714300073349
 20
71.58150497342407
 10
44.76315916849671
 20
73.16934948257573
 10
43.78974743913937
 20
74.75736624650163
 10
42.58069117859094
 20
76.14057208382944
 10
42.17279187313736
 20
76.60721026730653
 10
41.44880505691211
 20
77.6181735374531
 10
40.73343097939998
 20
77.51292587037872
 10
40.51845702112039
 20
77.48123099191442
 10
40.3723849725458
 20
77.41715221588878
 10
40.28074543263815
 20
77.33085257398326
 10
39.91246472526494
 20
76.98513724203845
 10
40.40804171081813
 20
76.27803139369091
 10
40.78390162825889
 20
75.81862791073284
 10
44.30220539257029
 20
72.42589787685881
 10
47.18592256849866
 20
65.3346855847948
 10
47.98862981656188
 20
61.89630803574121
 10
46.74701740367783
 20
60.8717366384279
 10
45.73967148379078
 20
59.25374754378031
 10
45.00931124091781
 20
57.52052000515112
 10
44.09756672074644
 20
55.49325356685586
 10
45.42341171824484
 20
52.67085909056492
 10
48.12195501184104
 20
51.38911131527772
 10
47.4980482194623
 20
50.84082436880021
 10
46.95148382072741
 20
50.13492430387252
 10
46.48536240157311
 20
49.33376734877767
 10
45.09044323959544
 20
52.43280299253416
 10
43.41629908853829
 20
55.40781519882166
 10
41.29067517413914
 20
58.02281492690055
 10
37.13606227370209
 20
63.13516437223704
 10
31.70159640049474
 20
67.50802407166466
 10
26.67089571815866
 20
71.7361897607118
 10
23.44576957964203
 20
74.44575735986079
 10
19.5960476296496
 20
76.70815156502435
 10
15.93115505244082
 20
78.75918916216784
 10
14.2637288375799
 20
79.69281003867056
 10
12.05059949785541
 20
80.00751951124812
 10
10.22538790977004
 20
80.50981443299754
 10
8.421363658918965
 20
81.0069417115191
 10
6.326056584790014
 20
81.20934107127754
 10
4.448651800103115
 20
80.94045136865378
 10
2.964332410283223
 20
80.72840574153665
 10
1.504473198408604
 20
80.25849471734857
 10
0.6242513019272705
 20
78.9316161912046
 10
-0.3562228731748332
 20
77.454703756678
 10
0.0106797960042745
 20
75.40452743340582
 10
0.4275363497195048
 20
73.80634763779841
 10
0.7017659503453919
 20
72.7547322409259
 10
1.062639702425312
 20
71.76943493214445
 10
1.663981119375672
 20
70.8938639145682
 97
        0
 92
        1
 93
        1
 72
     4
 94
        3
 73
     0
 74
     1
 95
       23
 96
       19
 40
0.0
 40
0.0
 40
0.0
 40
0.0
 40
1.0
 40
1.0
 40
1.0
 40
2.0
 40
2.0
 40
2.0
 40
3.0
 40
3.0
 40
3.0
 40
4.0
 40
4.0
 40
4.0
 40
5.0
 40
5.0
 40
5.0
 40
6.0
 40
6.0
 40
6.0
 40
6.0
 10
85.1493245229835
 20
65.35466713860926
 10
84.9092013676616
 20
63.69895424839818
 10
82.15622556539844
 20
65.48799233388843
 10
81.34421655952507
 20
65.61098224271184
 10
80.72651093901976
 20
65.70572236855621
 10
80.0884792551515
 20
65.65645750311714
 10
79.44424639940978
 20
65.59479029393117
 10
78.96089950282922
 20
65.54879826920308
 10
78.08963485460954
 20
65.12074515516079
 10
77.62351343545524
 20
65.42046846237753
 10
76.28474932988715
 20
66.28001978594736
 10
80.43540037051615
 20
66.8190049746147
 10
80.91426864296588
 20
66.80780841428763
 10
81.88785262709749
 20
66.78334823634236
 10
85.05010577300831
 20
67.15559080352361
 10
85.1603488285363
 20
65.63285859904317
 10
85.16723901950681
 20
65.54604219281488
 10
85.16344941447304
 20
65.45354137903593
 10
85.1493245229835
 20
65.35466713860926
 97
        0
 92
        1
 93
        1
 72
     4
 94
        3
 73
     0
 74
     1
 95
       26
 96
       22
 40
0.0
 40
0.0
 40
0.0
 40
0.0
 40
1.0
 40
1.0
 40
1.0
 40
2.0
 40
2.0
 40
2.0
 40
3.0
 40
3.0
 40
3.0
 40
4.0
 40
4.0
 40
4.0
 40
5.0
 40
5.0
 40
5.0
 40
6.0
 40
6.0
 40
6.0
 40
7.0
 40
7.0
 40
7.0
 40
7.0
 10
73.61652287656115
 20
68.36947019775138
 10
74.2859049293452
 20
69.66293129768843
 10
76.75603839226933
 20
70.80136310078925
 10
78.05415037111146
 20
71.32226153815903
 10
78.9288601148164
 20
71.6728000037832
 10
79.86833765364403
 20
72.10981036608713
 10
80.82607419854348
 20
72.27465818505634
 10
82.50073511392343
 20
72.56473522491437
 10
84.44686955354106
 20
72.43347708692636
 10
85.49211152376587
 20
70.9655219006614
 10
86.84706757811463
 20
69.06296791893217
 10
85.43836803419596
 20
68.29746770210967
 10
83.48568791315635
 20
68.12228459668471
 10
80.9339056872318
 20
67.89335800168986
 10
78.41760794480533
 20
68.12572969216995
 10
76.00225150009666
 20
67.1487006125531
 10
75.30048554975127
 20
66.8653415088913
 10
74.22182615331954
 20
65.95049640278322
 10
73.41291773338288
 20
66.20750052598285
 10
72.53304034645008
 20
66.48689776983662
 10
73.2696017611965
 20
67.69991589019308
 10
73.61652287656115
 20
68.36947019775138
 97
        0
 92
        1
 93
        1
 72
     4
 94
        3
 73
     0
 74
     1
 95
       35
 96
       31
 40
0.0
 40
0.0
 40
0.0
 40
0.0
 40
1.0
 40
1.0
 40
1.0
 40
2.0
 40
2.0
 40
2.0
 40
3.0
 40
3.0
 40
3.0
 40
4.0
 40
4.0
 40
4.0
 40
5.0
 40
5.0
 40
5.0
 40
6.0
 40
6.0
 40
6.0
 40
7.0
 40
7.0
 40
7.0
 40
8.0
 40
8.0
 40
8.0
 40
9.0
 40
9.0
 40
9.0
 40
10.0
 40
10.0
 40
10.0
 40
10.0
 10
72.69633787245093
 20
51.62630613943718
 10
72.81588268578909
 20
54.54257946770117
 10
73.77327472114001
 20
58.06708440388601
 10
75.92301430393591
 20
60.14413247194314
 10
77.52153860909183
 20
61.68770750410933
 10
79.77497556599376
 20
65.50986869021976
 10
82.487988260628
 20
64.4225965550749
 10
83.67034503116575
 20
63.94906818062732
 10
82.95514320842788
 20
61.48909774938468
 10
82.80976017895034
 20
60.51224092454208
 10
82.38187931968231
 20
57.63851452552093
 10
82.43768986654337
 20
54.13846976728136
 10
82.72845592549845
 20
51.25819768683823
 10
82.8821071841406
 20
49.73667126577764
 10
83.06331920666473
 20
48.25372991415185
 10
83.35580781336245
 20
46.76148680471588
 10
83.60902233152831
 20
45.46595864748768
 10
84.5619357427484
 20
43.83160534928516
 10
82.81940644630905
 20
43.21183267148871
 10
81.53610837805347
 20
42.75552977446737
 10
80.6372829659518
 20
42.65062661694151
 10
79.46560599141833
 20
41.80778400647514
 10
78.24776473738251
 20
40.93169622457611
 10
77.2025227671577
 20
40.82248669769368
 10
75.9006211832818
 20
41.5535359596637
 10
74.32448999878
 20
42.43909775414717
 10
73.23549531589252
 20
43.80008272559512
 10
72.88685165278524
 20
45.55105250597335
 10
72.49617782475791
 20
47.51200085617756
 10
72.61296656170788
 20
49.59766166294781
 10
72.69633787245093
 20
51.62630613943718
 97
        0
 92
        1
 93
        1
 72
     4
 94
        3
 73
     0
 74
     1
 95
       41
 96
       37
 40
0.0
 40
0.0
 40
0.0
 40
0.0
 40
1.0
 40
1.0
 40
1.0
 40
2.0
 40
2.0
 40
2.0
 40
3.0
 40
3.0
 40
3.0
 40
4.0
 40
4.0
 40
4.0
 40
5.0
 40
5.0
 40
5.0
 40
6.0
 40
6.0
 40
6.0
 40
7.0
 40
7.0
 40
7.0
 40
8.0
 40
8.0
 40
8.0
 40
9.0
 40
9.0
 40
9.0
 40
10.0
 40
10.0
 40
10.0
 40
11.0
 40
11.0
 40
11.0
 40
12.0
 40
12.0
 40
12.0
 40
12.0
 10
64.24069551345372
 20
29.01356064812856
 10
65.04271374241988
 20
29.33739962374204
 10
66.00010577777081
 20
28.95568304397636
 10
66.62125649376135
 20
29.72772894222085
 10
68.01100801251114
 20
31.45406628987954
 10
65.93223739671139
 20
34.73999836371083
 10
68.63009167121054
 20
35.91305337643841
 10
72.04314776844755
 20
37.39754502103256
 10
76.76499564053098
 20
33.9438367970696
 10
78.62224661662917
 20
31.3293538333135
 10
80.48500974550375
 20
28.70763616903837
 10
80.77853188084704
 20
25.29285752405873
 10
80.21973739313951
 20
22.18675943455748
 10
79.55690102177745
 20
18.49465060301523
 10
75.09619138747595
 20
17.30092501737616
 10
73.19415417006952
 20
14.41979166306172
 10
72.77006291583527
 20
13.77762586461115
 10
72.37284340638595
 20
13.01074760959454
 10
72.26191133176091
 20
12.25558267922777
 10
72.1540798430726
 20
11.52074381222398
 10
72.35940753399349
 20
10.88650173338949
 10
71.9832031070042
 20
10.20023871272772
 10
71.31898869744803
 20
8.9879096114683
 10
69.09345701397663
 20
8.77017957680051
 10
68.09162324686599
 20
9.64316677276282
 10
66.84863279578785
 20
10.72596028377684
 10
66.31636554331675
 20
12.8074869759648
 10
65.80063474917485
 20
14.3092040979852
 10
65.1367648491672
 20
16.24052462701626
 10
65.29351669374607
 20
18.36373697457573
 10
65.17293835176233
 20
20.38221841938361
 10
65.07578665907828
 20
22.00554741203334
 10
64.76607257495432
 20
23.69123263296608
 10
64.24069551345372
 20
25.15849880013399
 10
63.80385740592404
 20
26.37806260191243
 10
62.48851994965565
 20
28.30800509274939
 10
64.24069551345372
 20
29.01356064812856
 97
        0
 92
        1
 93
        1
 72
     4
 94
        3
 73
     0
 74
     1
 95
       23
 96
       19
 40
0.0
 40
0.0
 40
0.0
 40
0.0
 40
1.0
 40
1.0
 40
1.0
 40
2.0
 40
2.0
 40
2.0
 40
3.0
 40
3.0
 40
3.0
 40
4.0
 40
4.0
 40
4.0
 40
5.0
 40
5.0
 40
5.0
 40
6.0
 40
6.0
 40
6.0
 40
6.0
 10
16.45084770639076
 20
65.35466713860926
 10
16.43637830535271
 20
65.45354137903593
 10
16.43258870031894
 20
65.5463867023634
 10
16.43930663651517
 20
65.6332031085917
 10
16.54954969204317
 20
67.15593531307213
 10
19.71180283795399
 20
66.78352049111662
 10
20.6853868220856
 20
66.80815292383616
 10
21.16408283976106
 20
66.8190049746147
 10
25.31525064471285
 20
66.28070880504441
 10
23.97614202959624
 20
65.42046846237753
 10
23.5101928652162
 20
65.12126191948357
 10
22.63910047177078
 20
65.5491427787516
 10
22.15558132041597
 20
65.5951348034797
 10
21.51134846467425
 20
65.65680201266566
 10
20.87331678080598
 20
65.70572236855621
 10
20.25526665075216
 20
65.61132675226037
 10
19.44342989965303
 20
65.48799233388843
 10
16.69062635216415
 20
63.69929875794671
 10
16.45084770639076
 20
65.35466713860926
 97
        0
 92
        1
 93
        1
 72
     4
 94
        3
 73
     0
 74
     1
 95
       41
 96
       37
 40
0.0
 40
0.0
 40
0.0
 40
0.0
 40
1.0
 40
1.0
 40
1.0
 40
2.0
 40
2.0
 40
2.0
 40
3.0
 40
3.0
 40
3.0
 40
4.0
 40
4.0
 40
4.0
 40
5.0
 40
5.0
 40
5.0
 40
6.0
 40
6.0
 40
6.0
 40
7.0
 40
7.0
 40
7.0
 40
8.0
 40
8.0
 40
8.0
 40
9.0
 40
9.0
 40
9.0
 40
10.0
 40
10.0
 40
10.0
 40
11.0
 40
11.0
 40
11.0
 40
12.0
 40
12.0
 40
12.0
 40
12.0
 10
32.9697360486152
 20
35.91339788598693
 10
35.66741806834009
 20
34.73999836371083
 10
33.58864745254034
 20
31.45475530897659
 10
34.97839897129013
 20
29.72772894222085
 10
35.5998941968292
 20
28.95568304397636
 10
36.55676946785734
 20
29.33739962374204
 10
37.35913220637202
 20
29.01356064812856
 10
39.11130777017009
 20
28.30834960229791
 10
37.79579805912744
 20
26.37875162100948
 10
37.35913220637202
 20
25.15918781923104
 10
36.83375514487143
 20
23.69157714251461
 10
36.52404106074746
 20
22.00554741203334
 10
36.42706162283768
 20
20.38221841938361
 10
36.30631102607968
 20
18.36442599367278
 10
36.46289061588428
 20
16.24052462701626
 10
35.79988198974794
 20
14.30989311708225
 10
35.28328992173473
 20
12.8074869759648
 10
34.7511949240379
 20
10.72630479332537
 10
33.50803221818549
 20
9.643511282311344
 10
32.5063707058491
 20
8.77017957680051
 10
30.28066676760345
 20
8.98859863056535
 10
29.61662461282154
 20
10.20023871272772
 10
29.24076469538078
 20
10.88650173338949
 10
29.44557562197889
 20
11.52108832177251
 10
29.33791638806483
 20
12.2559271887763
 10
29.22698431343978
 20
13.01074760959454
 10
28.82959254921622
 20
13.77762586461115
 10
28.40567354975622
 20
14.41979166306172
 10
26.50329182280126
 20
17.30126952692468
 10
22.0429266980483
 20
18.49533962211228
 10
21.38009032668623
 20
22.187103944106
 10
20.82129583897871
 20
25.29320203360725
 10
21.11481797432199
 20
28.70763616903837
 10
22.97740884842231
 20
31.3293538333135
 10
24.8346598245205
 20
33.9438367970696
 10
29.55650769660393
 20
37.39754502103256
 10
32.9697360486152
 20
35.91339788598693
 97
        0
 92
        1
 93
        1
 72
     4
 94
        3
 73
     0
 74
     1
 95
       35
 96
       31
 40
0.0
 40
0.0
 40
0.0
 40
0.0
 40
1.0
 40
1.0
 40
1.0
 40
2.0
 40
2.0
 40
2.0
 40
3.0
 40
3.0
 40
3.0
 40
4.0
 40
4.0
 40
4.0
 40
5.0
 40
5.0
 40
5.0
 40
6.0
 40
6.0
 40
6.0
 40
7.0
 40
7.0
 40
7.0
 40
8.0
 40
8.0
 40
8.0
 40
9.0
 40
9.0
 40
9.0
 40
10.0
 40
10.0
 40
10.0
 40
10.0
 10
28.71314832181477
 20
45.55105250597335
 10
28.36450465870749
 20
43.80042723514364
 10
27.27533772104575
 20
42.43909775414717
 10
25.69955104609247
 20
41.55405272398649
 10
24.39713269789377
 20
40.82248669769368
 10
23.3522352372175
 20
40.93169622457611
 10
22.13404947363316
 20
41.80830077079793
 10
20.96237249909969
 20
42.65062661694151
 10
20.06389159654653
 20
42.75552977446737
 10
18.78093803783949
 20
43.21183267148871
 10
17.03754746752881
 20
43.83160534928516
 10
17.9909776430717
 20
45.46613090226194
 10
18.2440199064633
 20
46.76148680471588
 10
18.53633625838675
 20
48.25372991415185
 10
18.71754828091089
 20
49.73667126577764
 10
18.87154404910156
 20
51.25888670593528
 10
19.16196559850812
 20
54.13846976728136
 10
19.21777614536917
 20
57.63851452552093
 10
18.7900675408754
 20
60.51224092454208
 10
18.64468451139786
 20
61.48909774938468
 10
17.92931043388573
 20
63.94906818062732
 10
19.11183945919774
 20
64.42294106462343
 10
21.82485215383198
 20
65.50986869021976
 10
24.07794460118538
 20
61.68770750410933
 10
25.67681341588982
 20
60.1443047267174
 10
27.82638074391146
 20
58.06708440388601
 10
28.78394503403666
 20
54.54257946770117
 10
28.90331759260056
 20
51.62630613943718
 10
28.98651664856935
 20
49.59800617249633
 10
29.10364989506784
 20
47.51200085617756
 10
28.71314832181477
 20
45.55105250597335
 97
        0
 92
        1
 93
        1
 72
     4
 94
        3
 73
     0
 74
     1
 95
       26
 96
       22
 40
0.0
 40
0.0
 40
0.0
 40
0.0
 40
1.0
 40
1.0
 40
1.0
 40
2.0
 40
2.0
 40
2.0
 40
3.0
 40
3.0
 40
3.0
 40
4.0
 40
4.0
 40
4.0
 40
5.0
 40
5.0
 40
5.0
 40
6.0
 40
6.0
 40
6.0
 40
7.0
 40
7.0
 40
7.0
 40
7.0
 10
16.10771619605988
 20
70.96586641020993
 10
17.15261365673615
 20
72.43382159647489
 10
19.09892035112805
 20
72.56473522491437
 10
20.77409803083078
 20
72.27500269460486
 10
21.73131781140745
 20
72.11049938518418
 10
22.67148436933213
 20
71.67297225855745
 10
23.54550509394002
 20
71.32260604770755
 10
24.84378932755642
 20
70.80187986511203
 10
27.31392279048055
 20
69.66362031678548
 10
27.98330484326459
 20
68.36964245252565
 10
28.33022595862925
 20
67.69991589019308
 10
29.06644286382714
 20
66.48689776983662
 10
28.18673773166859
 20
66.20750052598285
 10
27.3780015665062
 20
65.95049640278322
 10
26.29985893439726
 20
66.8653415088913
 10
25.59740396495482
 20
67.14904512210163
 10
23.18204752024615
 20
68.12572969216995
 10
20.66592203259394
 20
67.89335800168986
 10
18.11396755189512
 20
68.12228459668471
 10
16.16145968562978
 20
68.29781221165818
 10
14.75258788693685
 20
69.06296791893217
 10
16.10771619605988
 20
70.96586641020993
 97
        0
 75
     2
 76
     1
 98
        0
  0
ENDSEC
  0
SECTION
  2
OBJECTS
  0
DICTIONARY
  5
C
330
0
100
AcDbDictionary
281
     1
  3
ACAD_GROUP
350
D
  3
ACAD_LAYOUT
350
1A
  3
ACAD_MLINESTYLE
350
17
  3
ACAD_PLOTSETTINGS
350
19
  3
ACAD_PLOTSTYLENAME
350
E
  3
ACAD_TABLESTYLE
350
46
  3
ACAD_VISUALSTYLE
350
2A
  0
DICTIONARY
  5
D
102
{ACAD_REACTORS
330
C
102
}
330
C
100
AcDbDictionary
281
     1
  0
DICTIONARY
  5
1A
102
{ACAD_REACTORS
330
C
102
}
330
C
100
AcDbDictionary
281
     1
  3
Layout1
350
1E
  3
Layout2
350
26
  3
Model
350
22
  0
DICTIONARY
  5
17
102
{ACAD_REACTORS
330
C
102
}
330
C
100
AcDbDictionary
281
     1
  3
Standard
350
18
  0
DICTIONARY
  5
19
102
{ACAD_REACTORS
330
C
102
}
330
C
100
AcDbDictionary
281
     1
  0
ACDBDICTIONARYWDFLT
  5
E
102
{ACAD_REACTORS
330
C
102
}
330
C
100
AcDbDictionary
281
     1
  3
Normal
350
F
100
AcDbDictionaryWithDefault
340
F
  0
DICTIONARY
  5
46
102
{ACAD_REACTORS
330
C
102
}
330
C
100
AcDbDictionary
281
     1
  0
DICTIONARY
  5
2A
102
{ACAD_REACTORS
330
C
102
}
330
C
100
AcDbDictionary
281
     1
  3
2dWireframe
350
2F
  3
3D Hidden
350
31
  3
3dWireframe
350
30
  3
Basic
350
32
  3
Brighten
350
36
  3
ColorChange
350
3A
  3
Conceptual
350
34
  3
Dim
350
35
  3
Facepattern
350
39
  3
Flat
350
2B
  3
FlatWithEdges
350
2C
  3
Gouraud
350
2D
  3
GouraudWithEdges
350
2E
  3
Linepattern
350
38
  3
Realistic
350
33
  3
Thicken
350
37
  0
LAYOUT
  5
1E
102
{ACAD_REACTORS
330
1A
102
}
330
1A
100
AcDbPlotSettings
  1

  2
none_device
  4

  6

 40
0.0
 41
0.0
 42
0.0
 43
0.0
 44
0.0
 45
0.0
 46
0.0
 47
0.0
 48
0.0
 49
0.0
140
0.0
141
0.0
142
1.0
143
1.0
 70
   688
 72
     0
 73
     0
 74
     5
  7

 75
    16
 76
     0
 77
     2
 78
   300
147
1.0
148
0.0
149
0.0
100
AcDbLayout
  1
Layout1
 70
     1
 71
     1
 10
0.0
 20
0.0
 11
12.0
 21
9.0
 12
0.0
 22
0.0
 32
0.0
 14
1.000000000000000E+20
 24
1.000000000000000E+20
 34
1.000000000000000E+20
 15
-1.000000000000000E+20
 25
-1.000000000000000E+20
 35
-1.000000000000000E+20
146
0.0
 13
0.0
 23
0.0
 33
0.0
 16
1.0
 26
0.0
 36
0.0
 17
0.0
 27
1.0
 37
0.0
 76
     0
330
1B
  0
LAYOUT
  5
26
102
{ACAD_REACTORS
330
1A
102
}
330
1A
100
AcDbPlotSettings
  1

  2
none_device
  4

  6

 40
0.0
 41
0.0
 42
0.0
 43
0.0
 44
0.0
 45
0.0
 46
0.0
 47
0.0
 48
0.0
 49
0.0
140
0.0
141
0.0
142
1.0
143
1.0
 70
   688
 72
     0
 73
     0
 74
     5
  7

 75
    16
 76
     0
 77
     2
 78
   300
147
1.0
148
0.0
149
0.0
100
AcDbLayout
  1
Layout2
 70
     1
 71
     2
 10
0.0
 20
0.0
 11
0.0
 21
0.0
 12
0.0
 22
0.0
 32
0.0
 14
0.0
 24
0.0
 34
0.0
 15
0.0
 25
0.0
 35
0.0
146
0.0
 13
0.0
 23
0.0
 33
0.0
 16
1.0
 26
0.0
 36
0.0
 17
0.0
 27
1.0
 37
0.0
 76
     0
330
23
  0
LAYOUT
  5
22
102
{ACAD_REACTORS
330
1A
102
}
330
1A
100
AcDbPlotSettings
  1

  2
none_device
  4

  6

 40
0.0
 41
0.0
 42
0.0
 43
0.0
 44
0.0
 45
0.0
 46
0.0
 47
0.0
 48
0.0
 49
0.0
140
0.0
141
0.0
142
1.0
143
1.0
 70
  1712
 72
     0
 73
     0
 74
     0
  7

 75
     0
 76
     0
 77
     2
 78
   300
147
1.0
148
0.0
149
0.0
100
AcDbLayout
  1
Model
 70
     1
 71
     0
 10
0.0
 20
0.0
 11
12.0
 21
9.0
 12
0.0
 22
0.0
 32
0.0
 14
1.000000000000000E+20
 24
1.000000000000000E+20
 34
1.000000000000000E+20
 15
-1.000000000000000E+20
 25
-1.000000000000000E+20
 35
-1.000000000000000E+20
146
0.0
 13
0.0
 23
0.0
 33
0.0
 16
1.0
 26
0.0
 36
0.0
 17
0.0
 27
1.0
 37
0.0
 76
     0
330
1F
331
29
  0
MLINESTYLE
  5
18
102
{ACAD_REACTORS
330
17
102
}
330
17
100
AcDbMlineStyle
  2
Standard
 70
     0
  3

 62
   256
 51
90.0
 52
90.0
 71
     2
 49
0.5
 62
   256
  6
BYLAYER
 49
-0.5
 62
   256
  6
BYLAYER
  0
ACDBPLACEHOLDER
  5
F
102
{ACAD_REACTORS
330
E
102
}
330
E
  0
VISUALSTYLE
  5
2F
102
{ACAD_REACTORS
330
2A
102
}
330
2A
100
AcDbVisualStyle
  2
2dWireframe
 70
     4
 71
     0
 72
     2
 73
     0
 90
        0
 40
-0.6
 41
-30.0
 62
     5
 63
     7
421
 16777215
 74
     1
 91
        4
 64
     7
 65
   257
 75
     1
175
     1
 42
1.0
 92
        0
 66
   257
 43
1.0
 76
     1
 77
     6
 78
     2
 67
     7
 79
     5
170
     0
171
     0
290
     0
174
     0
 93
        1
 44
0.0
173
     0
291
     0
 45
0.0
1001
ACAD
1000
AcDbSavedByObjectVersion
1070
     0
  0
VISUALSTYLE
  5
31
102
{ACAD_REACTORS
330
2A
102
}
330
2A
100
AcDbVisualStyle
  2
3D Hidden
 70
     6
 71
     1
 72
     2
 73
     2
 90
        0
 40
-0.6
 41
-30.0
 62
     5
 63
     7
421
 16777215
 74
     2
 91
        2
 64
     7
 65
   257
 75
     2
175
     1
 42
40.0
 92
        0
 66
   257
 43
1.0
 76
     1
 77
     6
 78
     2
 67
     7
 79
     3
170
     0
171
     0
290
     0
174
     0
 93
        1
 44
0.0
173
     0
291
     0
 45
0.0
1001
ACAD
1000
AcDbSavedByObjectVersion
1070
     0
  0
VISUALSTYLE
  5
30
102
{ACAD_REACTORS
330
2A
102
}
330
2A
100
AcDbVisualStyle
  2
3dWireframe
 70
     5
 71
     0
 72
     2
 73
     0
 90
        0
 40
-0.6
 41
-30.0
 62
     5
 63
     7
421
 16777215
 74
     1
 91
        4
 64
     7
 65
   257
 75
     1
175
     1
 42
1.0
 92
        0
 66
   257
 43
1.0
 76
     1
 77
     6
 78
     2
 67
     7
 79
     5
170
     0
171
     0
290
     0
174
     0
 93
        1
 44
0.0
173
     0
291
     0
 45
0.0
1001
ACAD
1000
AcDbSavedByObjectVersion
1070
     0
  0
VISUALSTYLE
  5
32
102
{ACAD_REACTORS
330
2A
102
}
330
2A
100
AcDbVisualStyle
  2
Basic
 70
     7
 71
     1
 72
     0
 73
     1
 90
        0
 40
-0.6
 41
-30.0
 62
     5
 63
     7
421
 16777215
 74
     0
 91
        4
 64
     7
 65
   257
 75
     1
175
     1
 42
1.0
 92
        8
 66
     7
 43
1.0
 76
     1
 77
     6
 78
     2
 67
     7
 79
     5
170
     0
171
     0
290
     0
174
     0
 93
        1
 44
0.0
173
     0
291
     1
 45
0.0
1001
ACAD
1000
AcDbSavedByObjectVersion
1070
     0
  0
VISUALSTYLE
  5
36
102
{ACAD_REACTORS
330
2A
102
}
330
2A
100
AcDbVisualStyle
  2
Brighten
 70
    12
 71
     2
 72
     2
 73
     0
 90
        0
 40
-0.6
 41
-30.0
 62
     5
 63
     7
421
 16777215
 74
     1
 91
        4
 64
     7
 65
   257
 75
     1
175
     1
 42
1.0
 92
        8
 66
     7
 43
1.0
 76
     1
 77
     6
 78
     2
 67
     7
 79
     5
170
     0
171
     0
290
     0
174
     0
 93
        1
 44
50.0
173
     0
291
     1
 45
0.0
1001
ACAD
1000
AcDbSavedByObjectVersion
1070
     0
  0
VISUALSTYLE
  5
3A
102
{ACAD_REACTORS
330
2A
102
}
330
2A
100
AcDbVisualStyle
  2
ColorChange
 70
    16
 71
     2
 72
     2
 73
     3
 90
        0
 40
-0.6
 41
-30.0
 62
     5
 63
     8
421
  8421504
 74
     1
 91
        4
 64
     7
 65
   257
 75
     1
175
     1
 42
1.0
 92
        8
 66
     8
424
  8421504
 43
1.0
 76
     1
 77
     6
 78
     2
 67
     7
 79
     5
170
     0
171
     0
290
     0
174
     0
 93
        1
 44
0.0
173
     0
291
     1
 45
0.0
1001
ACAD
1000
AcDbSavedByObjectVersion
1070
     0
  0
VISUALSTYLE
  5
34
102
{ACAD_REACTORS
330
2A
102
}
330
2A
100
AcDbVisualStyle
  2
Conceptual
 70
     9
 71
     3
 72
     2
 73
     0
 90
        0
 40
-0.6
 41
-30.0
 62
     5
 63
     7
421
 16777215
 74
     2
 91
        2
 64
     7
 65
   257
 75
     1
175
     1
 42
40.0
 92
        8
 66
     7
 43
1.0
 76
     1
 77
     6
 78
     2
 67
     7
 79
     3
170
     0
171
     0
290
     0
174
     0
 93
        1
 44
0.0
173
     0
291
     0
 45
0.0
1001
ACAD
1000
AcDbSavedByObjectVersion
1070
     0
  0
VISUALSTYLE
  5
35
102
{ACAD_REACTORS
330
2A
102
}
330
2A
100
AcDbVisualStyle
  2
Dim
 70
    11
 71
     2
 72
     2
 73
     0
 90
        0
 40
-0.6
 41
-30.0
 62
     5
 63
     7
421
 16777215
 74
     1
 91
        4
 64
     7
 65
   257
 75
     1
175
     1
 42
1.0
 92
        8
 66
     7
 43
1.0
 76
     1
 77
     6
 78
     2
 67
     7
 79
     5
170
     0
171
     0
290
     0
174
     0
 93
        1
 44
-50.0
173
     0
291
     1
 45
0.0
1001
ACAD
1000
AcDbSavedByObjectVersion
1070
     0
  0
VISUALSTYLE
  5
39
102
{ACAD_REACTORS
330
2A
102
}
330
2A
100
AcDbVisualStyle
  2
Facepattern
 70
    15
 71
     2
 72
     2
 73
     0
 90
        0
 40
-0.6
 41
-30.0
 62
     5
 63
     7
421
 16777215
 74
     1
 91
        4
 64
     7
 65
   257
 75
     1
175
     1
 42
1.0
 92
        8
 66
     7
 43
1.0
 76
     1
 77
     6
 78
     2
 67
     7
 79
     5
170
     0
171
     0
290
     0
174
     0
 93
        1
 44
0.0
173
     0
291
     1
 45
0.0
1001
ACAD
1000
AcDbSavedByObjectVersion
1070
     0
  0
VISUALSTYLE
  5
2B
102
{ACAD_REACTORS
330
2A
102
}
330
2A
100
AcDbVisualStyle
  2
Flat
 70
     0
 71
     2
 72
     1
 73
     1
 90
        2
 40
-0.6
 41
30.0
 62
     5
 63
     7
421
 16777215
 74
     0
 91
        4
 64
     7
 65
   257
 75
     1
175
     1
 42
1.0
 92
        8
 66
     7
 43
1.0
 76
     1
 77
     6
 78
     2
 67
     7
 79
     5
170
     0
171
     0
290
     0
174
     0
 93
       13
 44
0.0
173
     0
291
     1
 45
0.0
1001
ACAD
1000
AcDbSavedByObjectVersion
1070
     0
  0
VISUALSTYLE
  5
2C
102
{ACAD_REACTORS
330
2A
102
}
330
2A
100
AcDbVisualStyle
  2
FlatWithEdges
 70
     1
 71
     2
 72
     1
 73
     1
 90
        2
 40
-0.6
 41
30.0
 62
     5
 63
     7
421
 16777215
 74
     1
 91
        4
 64
     7
 65
   257
 75
     1
175
     1
 42
1.0
 92
        0
 66
   257
 43
1.0
 76
     1
 77
     6
 78
     2
 67
     7
 79
     5
170
     0
171
     0
290
     0
174
     0
 93
       13
 44
0.0
173
     0
291
     1
 45
0.0
1001
ACAD
1000
AcDbSavedByObjectVersion
1070
     0
  0
VISUALSTYLE
  5
2D
102
{ACAD_REACTORS
330
2A
102
}
330
2A
100
AcDbVisualStyle
  2
Gouraud
 70
     2
 71
     2
 72
     2
 73
     1
 90
        2
 40
-0.6
 41
30.0
 62
     5
 63
     7
421
 16777215
 74
     0
 91
        4
 64
     7
 65
   257
 75
     1
175
     1
 42
1.0
 92
        0
 66
     7
 43
1.0
 76
     1
 77
     6
 78
     2
 67
     7
 79
     5
170
     0
171
     0
290
     0
174
     0
 93
       13
 44
0.0
173
     0
291
     1
 45
0.0
1001
ACAD
1000
AcDbSavedByObjectVersion
1070
     0
  0
VISUALSTYLE
  5
2E
102
{ACAD_REACTORS
330
2A
102
}
330
2A
100
AcDbVisualStyle
  2
GouraudWithEdges
 70
     3
 71
     2
 72
     2
 73
     1
 90
        2
 40
-0.6
 41
30.0
 62
     5
 63
     7
421
 16777215
 74
     1
 91
        4
 64
     7
 65
   257
 75
     1
175
     1
 42
1.0
 92
        0
 66
   257
 43
1.0
 76
     1
 77
     6
 78
     2
 67
     7
 79
     5
170
     0
171
     0
290
     0
174
     0
 93
       13
 44
0.0
173
     0
291
     1
 45
0.0
1001
ACAD
1000
AcDbSavedByObjectVersion
1070
     0
  0
VISUALSTYLE
  5
38
102
{ACAD_REACTORS
330
2A
102
}
330
2A
100
AcDbVisualStyle
  2
Linepattern
 70
    14
 71
     2
 72
     2
 73
     0
 90
        0
 40
-0.6
 41
-30.0
 62
     5
 63
     7
421
 16777215
 74
     1
 91
        4
 64
     7
 65
   257
 75
     7
175
     7
 42
1.0
 92
        8
 66
     7
 43
1.0
 76
     1
 77
     6
 78
     2
 67
     7
 79
     5
170
     0
171
     0
290
     0
174
     0
 93
        1
 44
0.0
173
     0
291
     1
 45
0.0
1001
ACAD
1000
AcDbSavedByObjectVersion
1070
     0
  0
VISUALSTYLE
  5
33
102
{ACAD_REACTORS
330
2A
102
}
330
2A
100
AcDbVisualStyle
  2
Realistic
 70
     8
 71
     2
 72
     2
 73
     0
 90
        0
 40
-0.6
 41
-30.0
 62
     5
 63
     7
421
 16777215
 74
     1
 91
        0
 64
     7
 65
   257
 75
     1
175
     1
 42
1.0
 92
        8
 66
     8
424
  7895160
 43
1.0
 76
     1
 77
     6
 78
     2
 67
     7
 79
     5
170
     0
171
     0
290
     0
174
     0
 93
       13
 44
0.0
173
     0
291
     0
 45
0.0
1001
ACAD
1000
AcDbSavedByObjectVersion
1070
     0
  0
VISUALSTYLE
  5
37
102
{ACAD_REACTORS
330
2A
102
}
330
2A
100
AcDbVisualStyle
  2
Thicken
 70
    13
 71
     2
 72
     2
 73
     0
 90
        0
 40
-0.6
 41
-30.0
 62
     5
 63
     7
421
 16777215
 74
     1
 91
        4
 64
     7
 65
   257
 75
     1
175
     1
 42
1.0
 92
       12
 66
     7
 43
1.0
 76
     1
 77
     6
 78
     2
 67
     7
 79
     5
170
     0
171
     0
290
     0
174
     0
 93
        1
 44
0.0
173
     0
291
     1
 45
0.0
1001
ACAD
1000
AcDbSavedByObjectVersion
1070
     0
  0
ENDSEC
  0
EOF
