  0
SECTION
  2
HEADER
  9
$ACADVER
  1
AC1018
  9
$ACADMAINTVER
 70
     0
  9
$DWGCODEPAGE
  3
ANSI_1252
  9
$INSBASE
 10
0.0
 20
0.0
 30
0.0
  9
$EXTMIN
 10
1.000000000000000E+20
 20
1.000000000000000E+20
 30
1.000000000000000E+20
  9
$EXTMAX
 10
-1.000000000000000E+20
 20
-1.000000000000000E+20
 30
-1.000000000000000E+20
  9
$LIMMIN
 10
0.0
 20
0.0
  9
$LIMMAX
 10
12.0
 20
9.0
  9
$ORTHOMODE
 70
     0
  9
$REGENMODE
 70
     1
  9
$FILLMODE
 70
     1
  9
$QTEXTMODE
 70
     0
  9
$MIRRTEXT
 70
     1
  9
$LTSCALE
 40
1.0
  9
$ATTMODE
 70
     1
  9
$TEXTSIZE
 40
0.2
  9
$TRACEWID
 40
0.05
  9
$TEXTSTYLE
  7
Standard
  9
$CLAYER
  8
0
  9
$CELTYPE
  6
ByLayer
  9
$CECOLOR
 62
   256
  9
$CELTSCALE
 40
1.0
  9
$DISPSILH
 70
     0
  9
$DIMSCALE
 40
1.0
  9
$DIMASZ
 40
0.18
  9
$DIMEXO
 40
0.0625
  9
$DIMDLI
 40
0.38
  9
$DIMRND
 40
0.0
  9
$DIMDLE
 40
0.0
  9
$DIMEXE
 40
0.18
  9
$DIMTP
 40
0.0
  9
$DIMTM
 40
0.0
  9
$DIMTXT
 40
0.18
  9
$DIMCEN
 40
0.09
  9
$DIMTSZ
 40
0.0
  9
$DIMTOL
 70
     0
  9
$DIMLIM
 70
     0
  9
$DIMTIH
 70
     1
  9
$DIMTOH
 70
     1
  9
$DIMSE1
 70
     0
  9
$DIMSE2
 70
     0
  9
$DIMTAD
 70
     0
  9
$DIMZIN
 70
     0
  9
$DIMBLK
  1

  9
$DIMASO
 70
     1
  9
$DIMSHO
 70
     1
  9
$DIMPOST
  1

  9
$DIMAPOST
  1

  9
$DIMALT
 70
     0
  9
$DIMALTD
 70
     2
  9
$DIMALTF
 40
25.4
  9
$DIMLFAC
 40
1.0
  9
$DIMTOFL
 70
     0
  9
$DIMTVP
 40
0.0
  9
$DIMTIX
 70
     0
  9
$DIMSOXD
 70
     0
  9
$DIMSAH
 70
     0
  9
$DIMBLK1
  1

  9
$DIMBLK2
  1

  9
$DIMSTYLE
  2
Standard
  9
$DIMCLRD
 70
     0
  9
$DIMCLRE
 70
     0
  9
$DIMCLRT
 70
     0
  9
$DIMTFAC
 40
1.0
  9
$DIMGAP
 40
0.09
  9
$DIMJUST
 70
     0
  9
$DIMSD1
 70
     0
  9
$DIMSD2
 70
     0
  9
$DIMTOLJ
 70
     1
  9
$DIMTZIN
 70
     0
  9
$DIMALTZ
 70
     0
  9
$DIMALTTZ
 70
     0
  9
$DIMUPT
 70
     0
  9
$DIMDEC
 70
     4
  9
$DIMTDEC
 70
     4
  9
$DIMALTU
 70
     2
  9
$DIMALTTD
 70
     2
  9
$DIMTXSTY
  7
Standard
  9
$DIMAUNIT
 70
     0
  9
$DIMADEC
 70
     0
  9
$DIMALTRND
 40
0.0
  9
$DIMAZIN
 70
     0
  9
$DIMDSEP
 70
    46
  9
$DIMATFIT
 70
     3
  9
$DIMFRAC
 70
     0
  9
$DIMLDRBLK
  1

  9
$DIMLUNIT
 70
     2
  9
$DIMLWD
 70
    -2
  9
$DIMLWE
 70
    -2
  9
$DIMTMOVE
 70
     0
  9
$LUNITS
 70
     2
  9
$LUPREC
 70
     4
  9
$SKETCHINC
 40
0.1
  9
$FILLETRAD
 40
0.5
  9
$AUNITS
 70
     0
  9
$AUPREC
 70
     0
  9
$MENU
  1
.
  9
$ELEVATION
 40
0.0
  9
$PELEVATION
 40
0.0
  9
$THICKNESS
 40
0.0
  9
$LIMCHECK
 70
     0
  9
$CHAMFERA
 40
0.5
  9
$CHAMFERB
 40
0.5
  9
$CHAMFERC
 40
1.0
  9
$CHAMFERD
 40
0.0
  9
$SKPOLY
 70
     0
  9
$TDCREATE
 40
2455737.119011678
  9
$TDUCREATE
 40
2455737.369011678
  9
$TDUPDATE
 40
2455737.11901169
  9
$TDUUPDATE
 40
2455737.36901169
  9
$TDINDWG
 40
0.0000000116
  9
$TDUSRTIMER
 40
0.0000000116
  9
$USRTIMER
 70
     1
  9
$ANGBASE
 50
0.0
  9
$ANGDIR
 70
     0
  9
$PDMODE
 70
     0
  9
$PDSIZE
 40
0.0
  9
$PLINEWID
 40
0.0
  9
$SPLFRAME
 70
     0
  9
$SPLINETYPE
 70
     6
  9
$SPLINESEGS
 70
     8
  9
$HANDSEED
  5
4F
  9
$SURFTAB1
 70
     6
  9
$SURFTAB2
 70
     6
  9
$SURFTYPE
 70
     6
  9
$SURFU
 70
     6
  9
$SURFV
 70
     6
  9
$UCSBASE
  2

  9
$UCSNAME
  2

  9
$UCSORG
 10
0.0
 20
0.0
 30
0.0
  9
$UCSXDIR
 10
1.0
 20
0.0
 30
0.0
  9
$UCSYDIR
 10
0.0
 20
1.0
 30
0.0
  9
$UCSORTHOREF
  2

  9
$UCSORTHOVIEW
 70
     0
  9
$UCSORGTOP
 10
0.0
 20
0.0
 30
0.0
  9
$UCSORGBOTTOM
 10
0.0
 20
0.0
 30
0.0
  9
$UCSORGLEFT
 10
0.0
 20
0.0
 30
0.0
  9
$UCSORGRIGHT
 10
0.0
 20
0.0
 30
0.0
  9
$UCSORGFRONT
 10
0.0
 20
0.0
 30
0.0
  9
$UCSORGBACK
 10
0.0
 20
0.0
 30
0.0
  9
$PUCSBASE
  2

  9
$PUCSNAME
  2

  9
$PUCSORG
 10
0.0
 20
0.0
 30
0.0
  9
$PUCSXDIR
 10
1.0
 20
0.0
 30
0.0
  9
$PUCSYDIR
 10
0.0
 20
1.0
 30
0.0
  9
$PUCSORTHOREF
  2

  9
$PUCSORTHOVIEW
 70
     0
  9
$PUCSORGTOP
 10
0.0
 20
0.0
 30
0.0
  9
$PUCSORGBOTTOM
 10
0.0
 20
0.0
 30
0.0
  9
$PUCSORGLEFT
 10
0.0
 20
0.0
 30
0.0
  9
$PUCSORGRIGHT
 10
0.0
 20
0.0
 30
0.0
  9
$PUCSORGFRONT
 10
0.0
 20
0.0
 30
0.0
  9
$PUCSORGBACK
 10
0.0
 20
0.0
 30
0.0
  9
$USERI1
 70
     0
  9
$USERI2
 70
     0
  9
$USERI3
 70
     0
  9
$USERI4
 70
     0
  9
$USERI5
 70
     0
  9
$USERR1
 40
0.0
  9
$USERR2
 40
0.0
  9
$USERR3
 40
0.0
  9
$USERR4
 40
0.0
  9
$USERR5
 40
0.0
  9
$WORLDVIEW
 70
     1
  9
$SHADEDGE
 70
     3
  9
$SHADEDIF
 70
    70
  9
$TILEMODE
 70
     1
  9
$MAXACTVP
 70
    64
  9
$PINSBASE
 10
0.0
 20
0.0
 30
0.0
  9
$PLIMCHECK
 70
     0
  9
$PEXTMIN
 10
1.000000000000000E+20
 20
1.000000000000000E+20
 30
1.000000000000000E+20
  9
$PEXTMAX
 10
-1.000000000000000E+20
 20
-1.000000000000000E+20
 30
-1.000000000000000E+20
  9
$PLIMMIN
 10
0.0
 20
0.0
  9
$PLIMMAX
 10
12.0
 20
9.0
  9
$UNITMODE
 70
     0
  9
$VISRETAIN
 70
     1
  9
$PLINEGEN
 70
     0
  9
$PSLTSCALE
 70
     1
  9
$TREEDEPTH
 70
  3020
  9
$CMLSTYLE
  2
Standard
  9
$CMLJUST
 70
     0
  9
$CMLSCALE
 40
1.0
  9
$PROXYGRAPHICS
 70
     1
  9
$MEASUREMENT
 70
     0
  9
$CELWEIGHT
370
    -1
  9
$ENDCAPS
280
     0
  9
$JOINSTYLE
280
     0
  9
$LWDISPLAY
290
     1
  9
$INSUNITS
 70
     1
  9
$HYPERLINKBASE
  1

  9
$STYLESHEET
  1

  9
$XEDIT
290
     1
  9
$CEPSNTYPE
380
     0
  9
$PSTYLEMODE
290
     1
  9
$FINGERPRINTGUID
  2
{9810F626-F497-4CA1-AA91-01668857768A}
  9
$VERSIONGUID
  2
{FAEB1C32-E019-11D5-929B-00C0DF256EC4}
  9
$EXTNAMES
290
     1
  9
$PSVPSCALE
 40
0.0
  9
$OLESTARTUP
290
     0
  9
$SORTENTS
280
   127
  9
$INDEXCTL
280
     0
  9
$HIDETEXT
280
     1
  9
$XCLIPFRAME
290
     0
  9
$HALOGAP
280
     0
  9
$OBSCOLOR
 70
   257
  9
$OBSLTYPE
280
     0
  9
$INTERSECTIONDISPLAY
280
     0
  9
$INTERSECTIONCOLOR
 70
   257
  9
$DIMASSOC
280
     2
  9
$PROJECTNAME
  1

  0
ENDSEC
  0
SECTION
  2
CLASSES
  0
CLASS
  1
ACDBDICTIONARYWDFLT
  2
AcDbDictionaryWithDefault
  3
ObjectDBX Classes
 90
        0
 91
        3
280
     0
281
     0
  0
CLASS
  1
VISUALSTYLE
  2
AcDbVisualStyle
  3
ObjectDBX Classes
 90
     4095
 91
        3
280
     0
281
     0
  0
ENDSEC
  0
SECTION
  2
TABLES
  0
TABLE
  2
VPORT
  5
8
330
0
100
AcDbSymbolTable
 70
     1
  0
VPORT
  5
29
330
8
100
AcDbSymbolTableRecord
100
AcDbViewportTableRecord
  2
*Active
 70
     0
 10
0.0
 20
0.0
 11
1.0
 21
1.0
 12
0.0
 22
0.0
 13
0.0
 23
0.0
 14
0.5
 24
0.5
 15
0.5
 25
0.5
 16
0.0
 26
0.0
 36
1.0
 17
50.7999999873
 27
30.95797254000356
 37
0.0
 40
61.91594508000713
 41
1.640934331912621
 42
50.0
 43
0.0
 44
0.0
 50
0.0
 51
0.0
 71
     0
 72
   100
 73
     1
 74
     3
 75
     0
 76
     0
 77
     0
 78
     0
281
     0
 65
     1
110
0.0
120
0.0
130
0.0
111
1.0
121
0.0
131
0.0
112
0.0
122
1.0
132
0.0
 79
     0
146
0.0
  0
ENDTAB
  0
TABLE
  2
LTYPE
  5
5
330
0
100
AcDbSymbolTable
 70
     1
  0
LTYPE
  5
14
330
5
100
AcDbSymbolTableRecord
100
AcDbLinetypeTableRecord
  2
ByBlock
 70
     0
  3

 72
    65
 73
     0
 40
0.0
  0
LTYPE
  5
15
330
5
100
AcDbSymbolTableRecord
100
AcDbLinetypeTableRecord
  2
ByLayer
 70
     0
  3

 72
    65
 73
     0
 40
0.0
  0
LTYPE
  5
16
330
5
100
AcDbSymbolTableRecord
100
AcDbLinetypeTableRecord
  2
Continuous
 70
     0
  3
Solid line
 72
    65
 73
     0
 40
0.0
  0
ENDTAB
  0
TABLE
  2
LAYER
  5
2
330
0
100
AcDbSymbolTable
 70
     2
  0
LAYER
  5
10
330
2
100
AcDbSymbolTableRecord
100
AcDbLayerTableRecord
  2
0
 70
     0
 62
     7
  6
Continuous
370
    -3
390
F
  0
LAYER
  5
3B
330
2
100
AcDbSymbolTableRecord
100
AcDbLayerTableRecord
  2
Layer 1
 70
     0
 62
     7
  6
Continuous
370
    -3
390
F
  0
ENDTAB
  0
TABLE
  2
STYLE
  5
3
330
0
100
AcDbSymbolTable
 70
     1
  0
STYLE
  5
11
330
3
100
AcDbSymbolTableRecord
100
AcDbTextStyleTableRecord
  2
Standard
 70
     0
 40
0.0
 41
1.0
 50
0.0
 71
     0
 42
0.2
  3
txt
  4

  0
ENDTAB
  0
TABLE
  2
VIEW
  5
6
330
0
100
AcDbSymbolTable
 70
     0
  0
ENDTAB
  0
TABLE
  2
UCS
  5
7
330
0
100
AcDbSymbolTable
 70
     0
  0
ENDTAB
  0
TABLE
  2
APPID
  5
9
330
0
100
AcDbSymbolTable
 70
     1
  0
APPID
  5
12
330
9
100
AcDbSymbolTableRecord
100
AcDbRegAppTableRecord
  2
ACAD
 70
     0
  0
ENDTAB
  0
TABLE
  2
DIMSTYLE
  5
A
330
0
100
AcDbSymbolTable
 70
     1
100
AcDbDimStyleTable
  0
DIMSTYLE
105
27
330
A
100
AcDbSymbolTableRecord
100
AcDbDimStyleTableRecord
  2
Standard
 70
     0
340
11
  0
ENDTAB
  0
TABLE
  2
BLOCK_RECORD
  5
1
330
0
100
AcDbSymbolTable
 70
     1
  0
BLOCK_RECORD
  5
1F
330
1
100
AcDbSymbolTableRecord
100
AcDbBlockTableRecord
  2
*Model_Space
340
22
  0
BLOCK_RECORD
  5
1B
330
1
100
AcDbSymbolTableRecord
100
AcDbBlockTableRecord
  2
*Paper_Space
340
1E
  0
BLOCK_RECORD
  5
23
330
1
100
AcDbSymbolTableRecord
100
AcDbBlockTableRecord
  2
*Paper_Space0
340
26
  0
ENDTAB
  0
ENDSEC
  0
SECTION
  2
BLOCKS
  0
BLOCK
  5
20
330
1F
100
AcDbEntity
  8
0
100
AcDbBlockBegin
  2
*Model_Space
 70
     0
 71
     0
 10
0.0
 20
0.0
 30
0.0
  3
*Model_Space
  1

  0
ENDBLK
  5
21
330
1F
100
AcDbEntity
  8
0
100
AcDbBlockEnd
  0
BLOCK
  5
1C
330
1B
100
AcDbEntity
 67
     1
  8
0
100
AcDbBlockBegin
  2
*Paper_Space
 70
     0
 71
     0
 10
0.0
 20
0.0
 30
0.0
  3
*Paper_Space
  1

  0
ENDBLK
  5
1D
330
1B
100
AcDbEntity
 67
     1
  8
0
100
AcDbBlockEnd
  0
BLOCK
  5
24
330
23
100
AcDbEntity
  8
0
100
AcDbBlockBegin
  2
*Paper_Space0
 70
     0
 71
     0
 10
0.0
 20
0.0
 30
0.0
  3
*Paper_Space0
  1

  0
ENDBLK
  5
25
330
23
100
AcDbEntity
  8
0
100
AcDbBlockEnd
  0
ENDSEC
  0
SECTION
  2
ENTITIES
  0
SPLINE
  5
3C
330
1F
100
AcDbEntity
  8
Layer 1
370
     0
100
AcDbSpline
210
0.0
220
0.0
230
1.0
 70
    11
 71
     3
 72
   104
 73
   100
 74
     0
 42
0.0000000001
 43
0.0000000001
 40
0.0
 40
0.0
 40
0.0
 40
0.0
 40
1.0
 40
1.0
 40
1.0
 40
2.0
 40
2.0
 40
2.0
 40
3.0
 40
3.0
 40
3.0
 40
4.0
 40
4.0
 40
4.0
 40
5.0
 40
5.0
 40
5.0
 40
6.0
 40
6.0
 40
6.0
 40
7.0
 40
7.0
 40
7.0
 40
8.0
 40
8.0
 40
8.0
 40
9.0
 40
9.0
 40
9.0
 40
10.0
 40
10.0
 40
10.0
 40
11.0
 40
11.0
 40
11.0
 40
12.0
 40
12.0
 40
12.0
 40
13.0
 40
13.0
 40
13.0
 40
14.0
 40
14.0
 40
14.0
 40
15.0
 40
15.0
 40
15.0
 40
16.0
 40
16.0
 40
16.0
 40
17.0
 40
17.0
 40
17.0
 40
18.0
 40
18.0
 40
18.0
 40
19.0
 40
19.0
 40
19.0
 40
20.0
 40
20.0
 40
20.0
 40
21.0
 40
21.0
 40
21.0
 40
22.0
 40
22.0
 40
22.0
 40
23.0
 40
23.0
 40
23.0
 40
24.0
 40
24.0
 40
24.0
 40
25.0
 40
25.0
 40
25.0
 40
26.0
 40
26.0
 40
26.0
 40
27.0
 40
27.0
 40
27.0
 40
28.0
 40
28.0
 40
28.0
 40
29.0
 40
29.0
 40
29.0
 40
30.0
 40
30.0
 40
30.0
 40
31.0
 40
31.0
 40
31.0
 40
32.0
 40
32.0
 40
32.0
 40
33.0
 40
33.0
 40
33.0
 40
33.0
 10
94.95406627400455
 20
27.26172959387901
 30
0.0
 10
99.05269637280628
 20
30.45429958006004
 30
0.0
 10
102.0158229996697
 20
35.15220403852098
 30
0.0
 10
101.5524576569036
 20
40.50398762008234
 30
0.0
 10
101.0708333080656
 20
46.06454398804984
 30
0.0
 10
97.33221568747251
 20
50.66736381111788
 30
0.0
 10
92.67789168689997
 20
53.45892468281583
 30
0.0
 10
87.83546547283281
 20
56.36382919597849
 30
0.0
 10
82.4177083127289
 20
57.52034775037686
 30
0.0
 10
76.81529403461562
 20
56.81461994022343
 30
0.0
 10
74.1095160405004
 20
56.47372774195796
 30
0.0
 10
71.45024683543605
 20
55.77161728206404
 30
0.0
 10
68.91052244370987
 20
54.78235811347455
 30
0.0
 10
67.67855629818453
 20
54.30245631237925
 30
0.0
 10
66.47346189744414
 20
53.75330809203042
 30
0.0
 10
65.30385198020181
 20
53.1366360001707
 30
0.0
 10
64.36575247956829
 20
52.64226479803735
 30
0.0
 10
63.04731443736318
 20
51.40771483089807
 30
0.0
 10
61.99621580481345
 20
51.33295625886815
 30
0.0
 10
61.99621580481345
 20
51.33295625886815
 30
0.0
 10
62.02894421192332
 20
51.16552461828501
 30
0.0
 10
62.02894421192332
 20
51.16552461828501
 30
0.0
 10
59.03136663020744
 20
49.11121418043053
 30
0.0
 10
56.33833548938764
 20
46.51481796797199
 30
0.0
 10
54.48074000374093
 20
43.3703070638102
 30
0.0
 10
53.0682508547885
 20
46.55994871882876
 30
0.0
 10
50.88095973120338
 20
49.59800617249633
 30
0.0
 10
47.18471678507882
 20
50.06722817758736
 30
0.0
 10
46.83521184810023
 20
52.66000703978639
 30
0.0
 10
44.40142414254548
 20
57.36583521786341
 30
0.0
 10
47.56040444774532
 20
59.19001327730319
 30
0.0
 10
48.07958033737247
 20
59.48973658451993
 30
0.0
 10
50.31906465755912
 20
60.08401555572553
 30
0.0
 10
50.70353731371301
 20
59.25667587494278
 30
0.0
 10
50.92454018909179
 20
58.73818900441267
 30
0.0
 10
50.92712401070572
 20
58.27206758525838
 30
0.0
 10
51.58996038206779
 20
58.10136310396425
 30
0.0
 10
52.33926865010963
 20
57.90826550201599
 30
0.0
 10
53.0792751603413
 20
58.52528210342424
 30
0.0
 10
53.0255316707714
 20
59.29629447302315
 30
0.0
 10
52.78575302499801
 20
62.78031953725631
 30
0.0
 10
47.60415716040799
 20
62.29593911203018
 30
0.0
 10
45.69247367564286
 20
60.68053383899654
 30
0.0
 10
42.31042343777309
 20
57.82265487920753
 30
0.0
 10
44.24260524067546
 20
53.62256671836519
 30
0.0
 10
44.85393743453304
 20
50.07842473791442
 30
0.0
 10
43.77338323558443
 20
49.94630532605509
 30
0.0
 10
42.75001762169097
 20
49.62057154792472
 30
0.0
 10
41.82759330551533
 20
49.11190319952758
 30
0.0
 10
40.57271727501307
 20
52.75905353498732
 30
0.0
 10
37.90638562420396
 20
55.6992702768738
 30
0.0
 10
33.72231715736803
 20
55.39851344101149
 30
0.0
 10
32.07263318425615
 20
55.27965764677037
 30
0.0
 10
30.64154051968337
 20
54.29160426160071
 30
0.0
 10
30.44861517250937
 20
52.56595593303907
 30
0.0
 10
30.22657876848502
 20
50.57779132850139
 30
0.0
 10
32.86069877650705
 20
50.14026420187466
 30
0.0
 10
32.73271347923001
 20
51.96409775176592
 30
0.0
 10
32.73271347923001
 20
51.96409775176592
 30
0.0
 10
32.73271347923001
 20
51.96444226131445
 30
0.0
 10
32.73271347923001
 20
51.96444226131445
 30
0.0
 10
32.59628769801412
 20
53.92849119745538
 30
0.0
 10
35.82520344156453
 20
52.92527939215063
 30
0.0
 10
36.75158961754821
 20
52.47845050771372
 30
0.0
 10
38.55802543523897
 20
51.60994193588224
 30
0.0
 10
39.34953612297512
 20
49.40473631577382
 30
0.0
 10
39.89299993577328
 20
47.60984156795865
 30
0.0
 10
37.24906140561829
 20
44.80329453089988
 30
0.0
 10
37.65334336081236
 20
41.29429252439865
 30
0.0
 10
39.27305500320257
 20
38.06313746878283
 30
0.0
 10
29.75408392268301
 20
39.06600476453906
 30
0.0
 10
19.3636759391695
 20
38.62968342133217
 30
0.0
 10
11.04497612571098
 20
33.36816134148435
 30
0.0
 10
3.589272731307543
 20
28.65251464127437
 30
0.0
 10
-2.768478731946769
 20
19.24223632331444
 30
0.0
 10
1.240234374689941
 20
10.28981119534421
 30
0.0
 10
5.107354056882884
 20
1.653301323371397
 30
0.0
 10
15.92822672127836
 20
-0.9939100474945781
 30
0.0
 10
24.52218966400834
 20
0.316948784642985
 30
0.0
 10
33.48477782366006
 20
1.68396267319012
 30
0.0
 10
42.48078340951869
 20
7.052110458306418
 30
0.0
 10
48.72846407201928
 20
13.51717664592626
 30
0.0
 10
49.79282632218721
 20
14.61891818210916
 30
0.0
 10
50.79689940136328
 20
15.78129339883245
 30
0.0
 10
51.69469128481938
 20
17.0229058117165
 30
0.0
 10
52.23040363277573
 20
15.56804198829549
 30
0.0
 10
52.67516545992149
 20
14.10938855984071
 30
0.0
 10
52.77059460486291
 20
12.55702853418713
 30
0.0
 10
52.84225259095611
 20
11.38604057875071
 30
0.0
 10
52.81434731752558
 20
9.941512041785456
 30
0.0
 10
53.61705456558879
 20
8.989632159210926
 30
0.0
 10
54.68055554188542
 20
7.727693682963911
 30
0.0
 10
55.60315211283532
 20
8.956903752101052
 30
0.0
 10
56.0730631370234
 20
10.0359076580813
 30
0.0
 10
57.68330076682918
 20
13.7300835469147
 30
0.0
 10
58.02574325806301
 20
18.40886772543251
 30
0.0
 10
58.16561413476416
 20
22.34867892236422
 30
0.0
 10
70.10872665347976
 20
19.31113823301944
 30
0.0
 10
84.7603732426988
 20
19.32319606721781
 30
0.0
 10
94.95406627400455
 20
27.26172959387901
 30
0.0
  0
SPLINE
  5
3D
330
1F
100
AcDbEntity
  8
Layer 1
370
     0
100
AcDbSpline
210
0.0
220
0.0
230
1.0
 70
    11
 71
     3
 72
    20
 73
    16
 74
     0
 42
0.0000000001
 43
0.0000000001
 40
0.0
 40
0.0
 40
0.0
 40
0.0
 40
1.0
 40
1.0
 40
1.0
 40
2.0
 40
2.0
 40
2.0
 40
3.0
 40
3.0
 40
3.0
 40
4.0
 40
4.0
 40
4.0
 40
5.0
 40
5.0
 40
5.0
 40
5.0
 10
72.07932127104267
 20
22.90643988142617
 30
0.0
 10
71.21081269921119
 20
22.90643988142617
 30
0.0
 10
70.34540471331643
 20
22.93400064530817
 30
0.0
 10
69.48240829426135
 20
22.98498805848986
 30
0.0
 10
69.48240829426135
 20
22.98498805848986
 30
0.0
 10
67.76537270441283
 20
31.7417317628979
 30
0.0
 10
67.76537270441283
 20
31.7417317628979
 30
0.0
 10
70.70541719152504
 20
31.71451550856443
 30
0.0
 10
73.64132756405495
 20
31.70245767436606
 30
0.0
 10
76.55139972044549
 20
32.03869899372643
 30
0.0
 10
76.55139972044549
 20
32.03869899372643
 30
0.0
 10
77.83090818366728
 20
23.30986056274892
 30
0.0
 10
77.83090818366728
 20
23.30986056274892
 30
0.0
 10
75.92508136122707
 20
23.04183213399649
 30
0.0
 10
74.00375160910323
 20
22.90643988142617
 30
0.0
 10
72.07932127104267
 20
22.90643988142617
 30
0.0
  0
SPLINE
  5
3E
330
1F
100
AcDbEntity
  8
Layer 1
370
     0
100
AcDbSpline
210
0.0
220
0.0
230
1.0
 70
    11
 71
     3
 72
    26
 73
    22
 74
     0
 42
0.0000000001
 43
0.0000000001
 40
0.0
 40
0.0
 40
0.0
 40
0.0
 40
1.0
 40
1.0
 40
1.0
 40
2.0
 40
2.0
 40
2.0
 40
3.0
 40
3.0
 40
3.0
 40
4.0
 40
4.0
 40
4.0
 40
5.0
 40
5.0
 40
5.0
 40
6.0
 40
6.0
 40
6.0
 40
7.0
 40
7.0
 40
7.0
 40
7.0
 10
2.484602863962183
 20
16.08859591611674
 30
0.0
 10
2.484258354413658
 20
22.18779296320305
 30
0.0
 10
6.83593071660699
 20
27.54043781863572
 30
0.0
 10
11.66698811557284
 20
30.82568087336997
 30
0.0
 10
11.66698811557284
 20
30.82568087336997
 30
0.0
 10
11.66698811557284
 20
22.86303167831202
 30
0.0
 10
11.66698811557284
 20
22.86303167831202
 30
0.0
 10
9.770979815265589
 20
21.50635307622063
 30
0.0
 10
7.1504679344103
 20
19.01727158812763
 30
0.0
 10
8.24411349620286
 20
16.40209960527448
 30
0.0
 10
8.69473198567354
 20
15.3241292279398
 30
0.0
 10
9.701561141237805
 20
14.60513780016816
 30
0.0
 10
10.74318576120309
 20
14.15658636798863
 30
0.0
 10
11.68007947841679
 20
13.75282117711735
 30
0.0
 10
11.66698811557284
 20
13.97606336456154
 30
0.0
 10
11.66698811557284
 20
13.06552462781001
 30
0.0
 10
11.66698811557284
 20
10.04348686814885
 30
0.0
 10
11.66698811557284
 20
7.021449108487694
 30
0.0
 10
11.66698811557284
 20
3.999755858375061
 30
0.0
 10
6.603559026126888
 20
6.017548284085891
 30
0.0
 10
2.485291883059233
 20
10.39592013628991
 30
0.0
 10
2.484602863962183
 20
16.08859591611674
 30
0.0
  0
SPLINE
  5
3F
330
1F
100
AcDbEntity
  8
Layer 1
370
     0
100
AcDbSpline
210
0.0
220
0.0
230
1.0
 70
    11
 71
     3
 72
    17
 73
    13
 74
     0
 42
0.0000000001
 43
0.0000000001
 40
0.0
 40
0.0
 40
0.0
 40
0.0
 40
1.0
 40
1.0
 40
1.0
 40
2.0
 40
2.0
 40
2.0
 40
3.0
 40
3.0
 40
3.0
 40
4.0
 40
4.0
 40
4.0
 40
4.0
 10
62.55018715884162
 20
48.50797796096329
 30
0.0
 10
62.55018715884162
 20
48.50797796096329
 30
0.0
 10
64.29926213670296
 20
39.58828124010293
 30
0.0
 10
64.29926213670296
 20
39.58828124010293
 30
0.0
 10
61.69718151669376
 20
38.50204263360366
 30
0.0
 10
59.34900443394747
 20
37.02271863223738
 30
0.0
 10
56.95466307169884
 20
35.55217962435849
 30
0.0
 10
56.59775117942695
 20
37.13812933099324
 30
0.0
 10
56.16091307189728
 20
38.70599228633045
 30
0.0
 10
55.65758462150227
 20
40.25180663056205
 30
0.0
 10
57.08695473833243
 20
43.59768336583669
 30
0.0
 10
59.65630695123176
 20
46.35961641636149
 30
0.0
 10
62.55018715884162
 20
48.50797796096329
 30
0.0
  0
SPLINE
  5
40
330
1F
100
AcDbEntity
  8
Layer 1
370
     0
100
AcDbSpline
210
0.0
220
0.0
230
1.0
 70
    11
 71
     3
 72
    23
 73
    19
 74
     0
 42
0.0000000001
 43
0.0000000001
 40
0.0
 40
0.0
 40
0.0
 40
0.0
 40
1.0
 40
1.0
 40
1.0
 40
2.0
 40
2.0
 40
2.0
 40
3.0
 40
3.0
 40
3.0
 40
4.0
 40
4.0
 40
4.0
 40
5.0
 40
5.0
 40
5.0
 40
6.0
 40
6.0
 40
6.0
 40
6.0
 10
99.13537866445228
 20
39.34264593200461
 30
0.0
 10
99.13537866445228
 20
34.03926594201102
 30
0.0
 10
95.09255911251158
 20
29.89550509235251
 30
0.0
 10
90.75277232974237
 20
27.42020398620051
 30
0.0
 10
90.75277232974237
 20
27.42020398620051
 30
0.0
 10
90.65699867525242
 20
35.47001409703527
 30
0.0
 10
90.65699867525242
 20
35.47001409703527
 30
0.0
 10
91.97888181294279
 20
36.34816893622546
 30
0.0
 10
93.47026364850744
 20
37.84161782908127
 30
0.0
 10
93.55018986376524
 20
39.53195392891909
 30
0.0
 10
93.63149411721713
 20
41.25191784993008
 30
0.0
 10
91.92203773743616
 20
42.30887314480473
 30
0.0
 10
90.56811521173297
 20
42.95276149099792
 30
0.0
 10
90.56811521173297
 20
42.95276149099792
 30
0.0
 10
90.46200627078728
 20
51.8824489887655
 30
0.0
 10
90.46200627078728
 20
51.8824489887655
 30
0.0
 10
95.11701929045687
 20
49.36839055840444
 30
0.0
 10
99.13537866445228
 20
44.91405435075065
 30
0.0
 10
99.13537866445228
 20
39.34264593200461
 30
0.0
  0
SPLINE
  5
41
330
1F
100
AcDbEntity
  8
Layer 1
370
     0
100
AcDbSpline
210
0.0
220
0.0
230
1.0
 70
    11
 71
     3
 72
    17
 73
    13
 74
     0
 42
0.0000000001
 43
0.0000000001
 40
0.0
 40
0.0
 40
0.0
 40
0.0
 40
1.0
 40
1.0
 40
1.0
 40
2.0
 40
2.0
 40
2.0
 40
3.0
 40
3.0
 40
3.0
 40
4.0
 40
4.0
 40
4.0
 40
4.0
 10
79.69814993667269
 20
23.61130641770828
 30
0.0
 10
79.69814993667269
 20
23.61130641770828
 30
0.0
 10
78.42484264532435
 20
32.29983723150838
 30
0.0
 10
78.42484264532435
 20
32.29983723150838
 30
0.0
 10
81.39899357774053
 20
32.7323689696815
 30
0.0
 10
85.53138561229771
 20
33.0882473333078
 30
0.0
 10
88.77769908804864
 20
34.47179768018414
 30
0.0
 10
88.77769908804864
 20
34.47179768018414
 30
0.0
 10
88.87347274253858
 20
26.44558647342333
 30
0.0
 10
88.87347274253858
 20
26.44558647342333
 30
0.0
 10
85.96787921027887
 20
25.07891709442472
 30
0.0
 10
82.85110132477334
 20
24.18525932555091
 30
0.0
 10
79.69814993667269
 20
23.61130641770828
 30
0.0
  0
SPLINE
  5
42
330
1F
100
AcDbEntity
  8
Layer 1
370
     0
100
AcDbSpline
210
0.0
220
0.0
230
1.0
 70
    11
 71
     3
 72
    17
 73
    13
 74
     0
 42
0.0000000001
 43
0.0000000001
 40
0.0
 40
0.0
 40
0.0
 40
0.0
 40
1.0
 40
1.0
 40
1.0
 40
2.0
 40
2.0
 40
2.0
 40
3.0
 40
3.0
 40
3.0
 40
4.0
 40
4.0
 40
4.0
 40
4.0
 10
88.5592800342838
 20
52.80883516474918
 30
0.0
 10
88.5592800342838
 20
52.80883516474918
 30
0.0
 10
88.66745603252065
 20
43.73204208976144
 30
0.0
 10
88.66745603252065
 20
43.73204208976144
 30
0.0
 10
84.80653752220115
 20
45.15245495832994
 30
0.0
 10
80.653819424281
 20
45.23341470223332
 30
0.0
 10
76.67783472475415
 20
44.21952310092428
 30
0.0
 10
76.67783472475415
 20
44.21952310092428
 30
0.0
 10
75.23571775462857
 20
54.06284992138012
 30
0.0
 10
75.23571775462857
 20
54.06284992138012
 30
0.0
 10
79.76980792276588
 20
54.94462211082982
 30
0.0
 10
84.30320907180615
 20
54.66470810265327
 30
0.0
 10
88.5592800342838
 20
52.80883516474918
 30
0.0
  0
SPLINE
  5
43
330
1F
100
AcDbEntity
  8
Layer 1
370
     0
100
AcDbSpline
210
0.0
220
0.0
230
1.0
 70
    11
 71
     3
 72
    17
 73
    13
 74
     0
 42
0.0000000001
 43
0.0000000001
 40
0.0
 40
0.0
 40
0.0
 40
0.0
 40
1.0
 40
1.0
 40
1.0
 40
2.0
 40
2.0
 40
2.0
 40
3.0
 40
3.0
 40
3.0
 40
4.0
 40
4.0
 40
4.0
 40
4.0
 10
74.84745549344092
 20
43.66865233283284
 30
0.0
 10
71.90568845858608
 20
42.64373642597101
 30
0.0
 10
69.0045735504572
 20
41.40264077740976
 30
0.0
 10
66.08726669354763
 20
40.29728189096735
 30
0.0
 10
66.08726669354763
 20
40.29728189096735
 30
0.0
 10
64.24793021397274
 20
49.67655434956003
 30
0.0
 10
64.24793021397274
 20
49.67655434956003
 30
0.0
 10
67.05706107264545
 20
51.46662596369585
 30
0.0
 10
70.16281465259819
 20
52.80590683358672
 30
0.0
 10
73.38570147904942
 20
53.64340954605095
 30
0.0
 10
73.38570147904942
 20
53.64340954605095
 30
0.0
 10
74.84745549344092
 20
43.66865233283284
 30
0.0
 10
74.84745549344092
 20
43.66865233283284
 30
0.0
  0
SPLINE
  5
44
330
1F
100
AcDbEntity
  8
Layer 1
370
     0
100
AcDbSpline
210
0.0
220
0.0
230
1.0
 70
    11
 71
     3
 72
    20
 73
    16
 74
     0
 42
0.0000000001
 43
0.0000000001
 40
0.0
 40
0.0
 40
0.0
 40
0.0
 40
1.0
 40
1.0
 40
1.0
 40
2.0
 40
2.0
 40
2.0
 40
3.0
 40
3.0
 40
3.0
 40
4.0
 40
4.0
 40
4.0
 40
5.0
 40
5.0
 40
5.0
 40
5.0
 10
42.78240151925232
 20
32.48897297364859
 30
0.0
 10
43.50587157115478
 20
31.4170315134131
 30
0.0
 10
44.26396483268401
 20
30.30512694554872
 30
0.0
 10
45.02722573744111
 20
29.16238877309135
 30
0.0
 10
41.08913708825202
 20
29.18891600832777
 30
0.0
 10
37.16982420945754
 20
28.6652614945698
 30
0.0
 10
33.25395642614832
 20
28.31696234101104
 30
0.0
 10
33.25395642614832
 20
28.31696234101104
 30
0.0
 10
31.18310952996464
 20
36.01950682693263
 30
0.0
 10
31.18310952996464
 20
36.01950682693263
 30
0.0
 10
34.40392929912471
 20
36.04362249532937
 30
0.0
 10
37.62233750144511
 20
35.80384384955598
 30
0.0
 10
40.8164577805945
 20
35.40093993255601
 30
0.0
 10
41.50237629170774
 20
34.33657768238808
 30
0.0
 10
42.20173067521346
 20
33.34990233541252
 30
0.0
 10
42.78240151925232
 20
32.48897297364859
 30
0.0
  0
SPLINE
  5
45
330
1F
100
AcDbEntity
  8
Layer 1
370
     0
100
AcDbSpline
210
0.0
220
0.0
230
1.0
 70
    11
 71
     3
 72
    20
 73
    16
 74
     0
 42
0.0000000001
 43
0.0000000001
 40
0.0
 40
0.0
 40
0.0
 40
0.0
 40
1.0
 40
1.0
 40
1.0
 40
2.0
 40
2.0
 40
2.0
 40
3.0
 40
3.0
 40
3.0
 40
4.0
 40
4.0
 40
4.0
 40
5.0
 40
5.0
 40
5.0
 40
5.0
 10
15.24678683429594
 20
32.85880397399016
 30
0.0
 10
16.40864528669645
 20
33.40295680588537
 30
0.0
 10
17.61253390401701
 20
33.86614989387721
 30
0.0
 10
18.85001220231875
 20
34.25716823145307
 30
0.0
 10
18.85001220231875
 20
34.25716823145307
 30
0.0
 10
20.18843179833831
 20
26.48727212879485
 30
0.0
 10
20.18843179833831
 20
26.48727212879485
 30
0.0
 10
17.89537624335602
 20
25.90642902998173
 30
0.0
 10
15.62626410199621
 20
25.16125487652219
 30
0.0
 10
13.55817328220074
 20
24.04159884381599
 30
0.0
 10
13.55817328220074
 20
24.04159884381599
 30
0.0
 10
13.55817328220074
 20
31.99219020467557
 30
0.0
 10
13.55817328220074
 20
31.99219020467557
 30
0.0
 10
14.11076659803481
 20
32.30087076015395
 30
0.0
 10
14.67352294555037
 20
32.59025878091494
 30
0.0
 10
15.24678683429594
 20
32.85880397399016
 30
0.0
  0
SPLINE
  5
46
330
1F
100
AcDbEntity
  8
Layer 1
370
     0
100
AcDbSpline
210
0.0
220
0.0
230
1.0
 70
    11
 71
     3
 72
    17
 73
    13
 74
     0
 42
0.0000000001
 43
0.0000000001
 40
0.0
 40
0.0
 40
0.0
 40
0.0
 40
1.0
 40
1.0
 40
1.0
 40
2.0
 40
2.0
 40
2.0
 40
3.0
 40
3.0
 40
3.0
 40
4.0
 40
4.0
 40
4.0
 40
4.0
 10
20.67953015976067
 20
34.77754990450006
 30
0.0
 10
23.47798122242912
 20
35.48723957446153
 30
0.0
 10
26.35618624558109
 20
35.84656303357308
 30
0.0
 10
29.23800861899258
 20
35.97041421626781
 30
0.0
 10
29.23800861899258
 20
35.97041421626781
 30
0.0
 10
31.34123941273761
 20
28.14608560494265
 30
0.0
 10
31.34123941273761
 20
28.14608560494265
 30
0.0
 10
28.21722682671306
 20
27.86324326560364
 30
0.0
 10
25.08460150197538
 20
27.5400933090872
 30
0.0
 10
22.03483072365796
 20
26.91067436393206
 30
0.0
 10
22.03483072365796
 20
26.91067436393206
 30
0.0
 10
20.67953015976067
 20
34.77754990450006
 30
0.0
 10
20.67953015976067
 20
34.77754990450006
 30
0.0
  0
SPLINE
  5
47
330
1F
100
AcDbEntity
  8
Layer 1
370
     0
100
AcDbSpline
210
0.0
220
0.0
230
1.0
 70
    11
 71
     3
 72
    17
 73
    13
 74
     0
 42
0.0000000001
 43
0.0000000001
 40
0.0
 40
0.0
 40
0.0
 40
0.0
 40
1.0
 40
1.0
 40
1.0
 40
2.0
 40
2.0
 40
2.0
 40
3.0
 40
3.0
 40
3.0
 40
4.0
 40
4.0
 40
4.0
 40
4.0
 10
13.55817328220074
 20
3.353455945342192
 30
0.0
 10
13.55817328220074
 20
3.353455945342192
 30
0.0
 10
13.55817328220074
 20
13.41451280046582
 30
0.0
 10
13.55817328220074
 20
13.41451280046582
 30
0.0
 10
16.41415743947285
 20
12.97216254015974
 30
0.0
 10
19.47099066353503
 20
13.134426537515
 30
0.0
 10
22.38812526567033
 20
13.72009277000748
 30
0.0
 10
22.38812526567033
 20
13.72009277000748
 30
0.0
 10
24.27379827952183
 20
2.775368922917269
 30
0.0
 10
24.27379827952183
 20
2.775368922917269
 30
0.0
 10
20.72362738197187
 20
2.214851887467121
 30
0.0
 10
17.0201497353283
 20
2.357823350104989
 30
0.0
 10
13.55817328220074
 20
3.353455945342192
 30
0.0
  0
SPLINE
  5
48
330
1F
100
AcDbEntity
  8
Layer 1
370
     0
100
AcDbSpline
210
0.0
220
0.0
230
1.0
 70
    11
 71
     3
 72
    20
 73
    16
 74
     0
 42
0.0000000001
 43
0.0000000001
 40
0.0
 40
0.0
 40
0.0
 40
0.0
 40
1.0
 40
1.0
 40
1.0
 40
2.0
 40
2.0
 40
2.0
 40
3.0
 40
3.0
 40
3.0
 40
4.0
 40
4.0
 40
4.0
 40
5.0
 40
5.0
 40
5.0
 40
5.0
 10
29.67415770742521
 20
4.163053384375903
 30
0.0
 10
28.51074896205634
 20
3.750675454791498
 30
0.0
 10
27.32890895584138
 20
3.403754339426839
 30
0.0
 10
26.13139376516854
 20
3.132625324737677
 30
0.0
 10
26.13139376516854
 20
3.132625324737677
 30
0.0
 10
24.23297389802162
 20
14.15141872476076
 30
0.0
 10
24.23297389802162
 20
14.15141872476076
 30
0.0
 10
27.57368299006838
 20
15.04300943634341
 30
0.0
 10
30.97950438678637
 20
16.24707030843823
 30
0.0
 10
34.20445827052875
 20
17.49626193138982
 30
0.0
 10
34.20445827052875
 20
17.49626193138982
 30
0.0
 10
36.86820609972392
 20
7.588167315811292
 30
0.0
 10
36.86820609972392
 20
7.588167315811292
 30
0.0
 10
34.562920455769
 20
6.254915363019605
 30
0.0
 10
32.18804388301202
 20
5.054644095958562
 30
0.0
 10
29.67415770742521
 20
4.163053384375903
 30
0.0
  0
SPLINE
  5
49
330
1F
100
AcDbEntity
  8
Layer 1
370
     0
100
AcDbSpline
210
0.0
220
0.0
230
1.0
 70
    11
 71
     3
 72
    20
 73
    16
 74
     0
 42
0.0000000001
 43
0.0000000001
 40
0.0
 40
0.0
 40
0.0
 40
0.0
 40
1.0
 40
1.0
 40
1.0
 40
2.0
 40
2.0
 40
2.0
 40
3.0
 40
3.0
 40
3.0
 40
4.0
 40
4.0
 40
4.0
 40
5.0
 40
5.0
 40
5.0
 40
5.0
 10
45.82011446337136
 20
14.10318738796726
 30
0.0
 10
43.63420137798034
 20
12.00822482338683
 30
0.0
 10
41.16647948189588
 20
10.21160752782904
 30
0.0
 10
38.55544161362503
 20
8.597235783440969
 30
0.0
 10
38.55544161362503
 20
8.597235783440969
 30
0.0
 10
35.96231824187748
 20
18.24315863259199
 30
0.0
 10
35.96231824187748
 20
18.24315863259199
 30
0.0
 10
39.91453178255609
 20
20.09868706094755
 30
0.0
 10
44.09463838958398
 20
22.7221272729653
 30
0.0
 10
47.25499673297792
 20
25.72108289287529
 30
0.0
 10
48.45440672616765
 20
23.79114040203833
 30
0.0
 10
49.59025470765452
 20
21.79884168291835
 30
0.0
 10
50.5386894947438
 20
19.77450357578554
 30
0.0
 10
49.39422877454381
 20
17.63372124125129
 30
0.0
 10
47.5586819000027
 20
15.76820203598851
 30
0.0
 10
45.82011446337136
 20
14.10318738796726
 30
0.0
  0
SPLINE
  5
4A
330
1F
100
AcDbEntity
  8
Layer 1
370
     0
100
AcDbSpline
210
0.0
220
0.0
230
1.0
 70
    11
 71
     3
 72
    20
 73
    16
 74
     0
 42
0.0000000001
 43
0.0000000001
 40
0.0
 40
0.0
 40
0.0
 40
0.0
 40
1.0
 40
1.0
 40
1.0
 40
2.0
 40
2.0
 40
2.0
 40
3.0
 40
3.0
 40
3.0
 40
4.0
 40
4.0
 40
4.0
 40
5.0
 40
5.0
 40
5.0
 40
5.0
 10
58.06984048027421
 20
27.94075791402176
 30
0.0
 10
57.97751192126951
 20
29.24954968886817
 30
0.0
 10
57.83488496818017
 20
30.55437960390655
 30
0.0
 10
57.6436821687488
 20
31.85163030887737
 30
0.0
 10
60.13379718548739
 20
30.99138996621049
 30
0.0
 10
63.24575193731356
 20
31.77411566045925
 30
0.0
 10
65.83474119447882
 20
31.75792371167858
 30
0.0
 10
65.83474119447882
 20
31.75792371167858
 30
0.0
 10
67.52456052999386
 20
23.14208441261726
 30
0.0
 10
67.52456052999386
 20
23.14208441261726
 30
0.0
 10
64.37195365144174
 20
23.46041123545434
 30
0.0
 10
61.25827635187294
 20
24.08535155647866
 30
0.0
 10
58.19524195593731
 20
24.88874782363893
 30
0.0
 10
58.18283961219041
 20
25.90711804907878
 30
0.0
 10
58.14149846636741
 20
26.92479925542158
 30
0.0
 10
58.06984048027421
 20
27.94075791402176
 30
0.0
  0
SPLINE
  5
4B
330
1F
100
AcDbEntity
  8
Layer 1
370
     0
100
AcDbSpline
210
0.0
220
0.0
230
1.0
 70
    11
 71
     3
 72
    11
 73
     7
 74
     0
 42
0.0000000001
 43
0.0000000001
 40
0.0
 40
0.0
 40
0.0
 40
0.0
 40
1.0
 40
1.0
 40
1.0
 40
2.0
 40
2.0
 40
2.0
 40
2.0
 10
48.35846081690345
 20
44.91508787939623
 30
0.0
 10
48.35846081690345
 20
43.62007648649082
 30
0.0
 10
46.3508314228741
 20
43.62007648649082
 30
0.0
 10
46.3508314228741
 20
44.91508787939623
 30
0.0
 10
46.3508314228741
 20
46.20975476275312
 30
0.0
 10
48.35846081690345
 20
46.20975476275312
 30
0.0
 10
48.35846081690345
 20
44.91508787939623
 30
0.0
  0
SPLINE
  5
4C
330
1F
100
AcDbEntity
  8
Layer 1
370
     0
100
AcDbSpline
210
0.0
220
0.0
230
1.0
 70
    11
 71
     3
 72
    11
 73
     7
 74
     0
 42
0.0000000001
 43
0.0000000001
 40
0.0
 40
0.0
 40
0.0
 40
0.0
 40
1.0
 40
1.0
 40
1.0
 40
2.0
 40
2.0
 40
2.0
 40
2.0
 10
43.99421385618895
 20
43.54273409284696
 30
0.0
 10
43.99421385618895
 20
42.24806720949007
 30
0.0
 10
41.98675671693387
 20
42.24806720949007
 30
0.0
 10
41.98675671693387
 20
43.54273409284696
 30
0.0
 10
41.98675671693387
 20
44.83774548575237
 30
0.0
 10
43.99421385618895
 20
44.83757323097811
 30
0.0
 10
43.99421385618895
 20
43.54273409284696
 30
0.0
  0
HATCH
  5
4D
330
1F
100
AcDbEntity
  8
Layer 1
 62
   134
420
   100246
100
AcDbHatch
 10
0.0
 20
0.0
 30
0.0
210
0.0
220
0.0
230
1.0
  2
SOLID
 70
     1
 71
     0
 91
       17
 92
        1
 93
        2
 72
     4
 94
        3
 73
     0
 74
     0
 95
      104
 96
      100
 40
0.0
 40
0.0
 40
0.0
 40
0.0
 40
0.3527777776895833
 40
0.3527777776895833
 40
0.3527777776895833
 40
0.7055555553791667
 40
0.7055555553791667
 40
0.7055555553791667
 40
1.05833333306875
 40
1.05833333306875
 40
1.05833333306875
 40
1.411111110758333
 40
1.411111110758333
 40
1.411111110758333
 40
1.763888888447917
 40
1.763888888447917
 40
1.763888888447917
 40
2.1166666661375
 40
2.1166666661375
 40
2.1166666661375
 40
2.469444443827083
 40
2.469444443827083
 40
2.469444443827083
 40
2.822222221516667
 40
2.822222221516667
 40
2.822222221516667
 40
3.17499999920625
 40
3.17499999920625
 40
3.17499999920625
 40
3.527777776895833
 40
3.527777776895833
 40
3.527777776895833
 40
3.880555554585417
 40
3.880555554585417
 40
3.880555554585417
 40
4.233333332275
 40
4.233333332275
 40
4.233333332275
 40
4.586111109964584
 40
4.586111109964584
 40
4.586111109964584
 40
4.938888887654167
 40
4.938888887654167
 40
4.938888887654167
 40
5.29166666534375
 40
5.29166666534375
 40
5.29166666534375
 40
5.644444443033334
 40
5.644444443033334
 40
5.644444443033334
 40
5.997222220722917
 40
5.997222220722917
 40
5.997222220722917
 40
6.349999998412501
 40
6.349999998412501
 40
6.349999998412501
 40
6.702777776102083
 40
6.702777776102083
 40
6.702777776102083
 40
7.055555553791667
 40
7.055555553791667
 40
7.055555553791667
 40
7.40833333148125
 40
7.40833333148125
 40
7.40833333148125
 40
7.761111109170834
 40
7.761111109170834
 40
7.761111109170834
 40
8.113888886860417
 40
8.113888886860417
 40
8.113888886860417
 40
8.46666666455
 40
8.46666666455
 40
8.46666666455
 40
8.819444442239584
 40
8.819444442239584
 40
8.819444442239584
 40
9.172222219929168
 40
9.172222219929168
 40
9.172222219929168
 40
9.52499999761875
 40
9.52499999761875
 40
9.52499999761875
 40
9.877777775308333
 40
9.877777775308333
 40
9.877777775308333
 40
10.23055555299792
 40
10.23055555299792
 40
10.23055555299792
 40
10.5833333306875
 40
10.5833333306875
 40
10.5833333306875
 40
10.93611110837708
 40
10.93611110837708
 40
10.93611110837708
 40
11.28888888606667
 40
11.28888888606667
 40
11.28888888606667
 40
11.64166666375625
 40
11.64166666375625
 40
11.64166666375625
 40
11.64166666375625
 10
94.95406627400455
 20
27.26172959387901
 10
99.05269637280628
 20
30.45429958006004
 10
102.0158229996697
 20
35.15220403852098
 10
101.5524576569036
 20
40.50398762008234
 10
101.0708333080656
 20
46.06454398804984
 10
97.33221568747251
 20
50.66736381111788
 10
92.67789168689997
 20
53.45892468281583
 10
87.83546547283281
 20
56.36382919597849
 10
82.4177083127289
 20
57.52034775037686
 10
76.81529403461562
 20
56.81461994022343
 10
74.1095160405004
 20
56.47372774195796
 10
71.45024683543605
 20
55.77161728206404
 10
68.91052244370987
 20
54.78235811347455
 10
67.67855629818453
 20
54.30245631237925
 10
66.47346189744414
 20
53.75330809203042
 10
65.30385198020181
 20
53.1366360001707
 10
64.36575247956829
 20
52.64226479803735
 10
63.04731443736318
 20
51.40771483089807
 10
61.99621580481345
 20
51.33295625886815
 10
61.99621580481345
 20
51.33295625886815
 10
62.02894421192332
 20
51.16552461828501
 10
62.02894421192332
 20
51.16552461828501
 10
59.03136663020744
 20
49.11121418043053
 10
56.33833548938764
 20
46.51481796797199
 10
54.48074000374093
 20
43.3703070638102
 10
53.0682508547885
 20
46.55994871882876
 10
50.88095973120338
 20
49.59800617249633
 10
47.18471678507882
 20
50.06722817758736
 10
46.83521184810023
 20
52.66000703978639
 10
44.40142414254548
 20
57.36583521786341
 10
47.56040444774532
 20
59.19001327730319
 10
48.07958033737247
 20
59.48973658451993
 10
50.31906465755912
 20
60.08401555572553
 10
50.70353731371301
 20
59.25667587494278
 10
50.92454018909179
 20
58.73818900441267
 10
50.92712401070572
 20
58.27206758525838
 10
51.58996038206779
 20
58.10136310396425
 10
52.33926865010963
 20
57.90826550201599
 10
53.0792751603413
 20
58.52528210342424
 10
53.0255316707714
 20
59.29629447302315
 10
52.78575302499801
 20
62.78031953725631
 10
47.60415716040799
 20
62.29593911203018
 10
45.69247367564286
 20
60.68053383899654
 10
42.31042343777309
 20
57.82265487920753
 10
44.24260524067546
 20
53.62256671836519
 10
44.85393743453304
 20
50.07842473791442
 10
43.77338323558443
 20
49.94630532605509
 10
42.75001762169097
 20
49.62057154792472
 10
41.82759330551533
 20
49.11190319952758
 10
40.57271727501307
 20
52.75905353498732
 10
37.90638562420396
 20
55.6992702768738
 10
33.72231715736803
 20
55.39851344101149
 10
32.07263318425615
 20
55.27965764677037
 10
30.64154051968337
 20
54.29160426160071
 10
30.44861517250937
 20
52.56595593303907
 10
30.22657876848502
 20
50.57779132850139
 10
32.86069877650705
 20
50.14026420187466
 10
32.73271347923001
 20
51.96409775176592
 10
32.73271347923001
 20
51.96409775176592
 10
32.73271347923001
 20
51.96444226131445
 10
32.73271347923001
 20
51.96444226131445
 10
32.59628769801412
 20
53.92849119745538
 10
35.82520344156453
 20
52.92527939215063
 10
36.75158961754821
 20
52.47845050771372
 10
38.55802543523897
 20
51.60994193588224
 10
39.34953612297512
 20
49.40473631577382
 10
39.89299993577328
 20
47.60984156795865
 10
37.24906140561829
 20
44.80329453089988
 10
37.65334336081236
 20
41.29429252439865
 10
39.27305500320257
 20
38.06313746878283
 10
29.75408392268301
 20
39.06600476453906
 10
19.3636759391695
 20
38.62968342133217
 10
11.04497612571098
 20
33.36816134148435
 10
3.589272731307543
 20
28.65251464127437
 10
-2.768478731946769
 20
19.24223632331444
 10
1.240234374689941
 20
10.28981119534421
 10
5.107354056882884
 20
1.653301323371397
 10
15.92822672127836
 20
-0.9939100474945781
 10
24.52218966400834
 20
0.316948784642985
 10
33.48477782366006
 20
1.68396267319012
 10
42.48078340951869
 20
7.052110458306418
 10
48.72846407201928
 20
13.51717664592626
 10
49.79282632218721
 20
14.61891818210916
 10
50.79689940136328
 20
15.78129339883245
 10
51.69469128481938
 20
17.0229058117165
 10
52.23040363277573
 20
15.56804198829549
 10
52.67516545992149
 20
14.10938855984071
 10
52.77059460486291
 20
12.55702853418713
 10
52.84225259095611
 20
11.38604057875071
 10
52.81434731752558
 20
9.941512041785456
 10
53.61705456558879
 20
8.989632159210926
 10
54.68055554188542
 20
7.727693682963911
 10
55.60315211283532
 20
8.956903752101052
 10
56.0730631370234
 20
10.0359076580813
 10
57.68330076682918
 20
13.7300835469147
 10
58.02574325806301
 20
18.40886772543251
 10
58.16561413476416
 20
22.34867892236422
 10
70.10872665347976
 20
19.31113823301944
 10
84.7603732426988
 20
19.32319606721781
 10
94.95406627400455
 20
27.26172959387901
 72
     1
 10
94.95406627400455
 20
27.26172959387901
 11
94.95406627400455
 21
27.26172959387901
 97
        0
 92
        1
 93
        2
 72
     4
 94
        3
 73
     0
 74
     0
 95
       20
 96
       16
 40
0.0
 40
0.0
 40
0.0
 40
0.0
 40
0.3527777776895833
 40
0.3527777776895833
 40
0.3527777776895833
 40
0.7055555553791667
 40
0.7055555553791667
 40
0.7055555553791667
 40
1.05833333306875
 40
1.05833333306875
 40
1.05833333306875
 40
1.411111110758333
 40
1.411111110758333
 40
1.411111110758333
 40
1.763888888447917
 40
1.763888888447917
 40
1.763888888447917
 40
1.763888888447917
 10
72.07932127104267
 20
22.90643988142617
 10
71.21081269921119
 20
22.90643988142617
 10
70.34540471331643
 20
22.93400064530817
 10
69.48240829426135
 20
22.98498805848986
 10
69.48240829426135
 20
22.98498805848986
 10
67.76537270441283
 20
31.7417317628979
 10
67.76537270441283
 20
31.7417317628979
 10
70.70541719152504
 20
31.71451550856443
 10
73.64132756405495
 20
31.70245767436606
 10
76.55139972044549
 20
32.03869899372643
 10
76.55139972044549
 20
32.03869899372643
 10
77.83090818366728
 20
23.30986056274892
 10
77.83090818366728
 20
23.30986056274892
 10
75.92508136122707
 20
23.04183213399649
 10
74.00375160910323
 20
22.90643988142617
 10
72.07932127104267
 20
22.90643988142617
 72
     1
 10
72.07932127104267
 20
22.90643988142617
 11
72.07932127104267
 21
22.90643988142617
 97
        0
 92
        1
 93
        2
 72
     4
 94
        3
 73
     0
 74
     0
 95
       26
 96
       22
 40
0.0
 40
0.0
 40
0.0
 40
0.0
 40
0.3527777776895833
 40
0.3527777776895833
 40
0.3527777776895833
 40
0.7055555553791667
 40
0.7055555553791667
 40
0.7055555553791667
 40
1.05833333306875
 40
1.05833333306875
 40
1.05833333306875
 40
1.411111110758333
 40
1.411111110758333
 40
1.411111110758333
 40
1.763888888447917
 40
1.763888888447917
 40
1.763888888447917
 40
2.1166666661375
 40
2.1166666661375
 40
2.1166666661375
 40
2.469444443827083
 40
2.469444443827083
 40
2.469444443827083
 40
2.469444443827083
 10
2.484602863962183
 20
16.08859591611674
 10
2.484258354413658
 20
22.18779296320305
 10
6.83593071660699
 20
27.54043781863572
 10
11.66698811557284
 20
30.82568087336997
 10
11.66698811557284
 20
30.82568087336997
 10
11.66698811557284
 20
22.86303167831202
 10
11.66698811557284
 20
22.86303167831202
 10
9.770979815265589
 20
21.50635307622063
 10
7.1504679344103
 20
19.01727158812763
 10
8.24411349620286
 20
16.40209960527448
 10
8.69473198567354
 20
15.3241292279398
 10
9.701561141237805
 20
14.60513780016816
 10
10.74318576120309
 20
14.15658636798863
 10
11.68007947841679
 20
13.75282117711735
 10
11.66698811557284
 20
13.97606336456154
 10
11.66698811557284
 20
13.06552462781001
 10
11.66698811557284
 20
10.04348686814885
 10
11.66698811557284
 20
7.021449108487694
 10
11.66698811557284
 20
3.999755858375061
 10
6.603559026126888
 20
6.017548284085891
 10
2.485291883059233
 20
10.39592013628991
 10
2.484602863962183
 20
16.08859591611674
 72
     1
 10
2.484602863962183
 20
16.08859591611674
 11
2.484602863962183
 21
16.08859591611674
 97
        0
 92
        1
 93
        2
 72
     4
 94
        3
 73
     0
 74
     0
 95
       17
 96
       13
 40
0.0
 40
0.0
 40
0.0
 40
0.0
 40
0.3527777776895833
 40
0.3527777776895833
 40
0.3527777776895833
 40
0.7055555553791667
 40
0.7055555553791667
 40
0.7055555553791667
 40
1.05833333306875
 40
1.05833333306875
 40
1.05833333306875
 40
1.411111110758333
 40
1.411111110758333
 40
1.411111110758333
 40
1.411111110758333
 10
62.55018715884162
 20
48.50797796096329
 10
62.55018715884162
 20
48.50797796096329
 10
64.29926213670296
 20
39.58828124010293
 10
64.29926213670296
 20
39.58828124010293
 10
61.69718151669376
 20
38.50204263360366
 10
59.34900443394747
 20
37.02271863223738
 10
56.95466307169884
 20
35.55217962435849
 10
56.59775117942695
 20
37.13812933099324
 10
56.16091307189728
 20
38.70599228633045
 10
55.65758462150227
 20
40.25180663056205
 10
57.08695473833243
 20
43.59768336583669
 10
59.65630695123176
 20
46.35961641636149
 10
62.55018715884162
 20
48.50797796096329
 72
     1
 10
62.55018715884162
 20
48.50797796096329
 11
62.55018715884162
 21
48.50797796096329
 97
        0
 92
        1
 93
        2
 72
     4
 94
        3
 73
     0
 74
     0
 95
       23
 96
       19
 40
0.0
 40
0.0
 40
0.0
 40
0.0
 40
0.3527777776895833
 40
0.3527777776895833
 40
0.3527777776895833
 40
0.7055555553791667
 40
0.7055555553791667
 40
0.7055555553791667
 40
1.05833333306875
 40
1.05833333306875
 40
1.05833333306875
 40
1.411111110758333
 40
1.411111110758333
 40
1.411111110758333
 40
1.763888888447917
 40
1.763888888447917
 40
1.763888888447917
 40
2.1166666661375
 40
2.1166666661375
 40
2.1166666661375
 40
2.1166666661375
 10
99.13537866445228
 20
39.34264593200461
 10
99.13537866445228
 20
34.03926594201102
 10
95.09255911251158
 20
29.89550509235251
 10
90.75277232974237
 20
27.42020398620051
 10
90.75277232974237
 20
27.42020398620051
 10
90.65699867525242
 20
35.47001409703527
 10
90.65699867525242
 20
35.47001409703527
 10
91.97888181294279
 20
36.34816893622546
 10
93.47026364850744
 20
37.84161782908127
 10
93.55018986376524
 20
39.53195392891909
 10
93.63149411721713
 20
41.25191784993008
 10
91.92203773743616
 20
42.30887314480473
 10
90.56811521173297
 20
42.95276149099792
 10
90.56811521173297
 20
42.95276149099792
 10
90.46200627078728
 20
51.8824489887655
 10
90.46200627078728
 20
51.8824489887655
 10
95.11701929045687
 20
49.36839055840444
 10
99.13537866445228
 20
44.91405435075065
 10
99.13537866445228
 20
39.34264593200461
 72
     1
 10
99.13537866445228
 20
39.34264593200461
 11
99.13537866445228
 21
39.34264593200461
 97
        0
 92
        1
 93
        2
 72
     4
 94
        3
 73
     0
 74
     0
 95
       17
 96
       13
 40
0.0
 40
0.0
 40
0.0
 40
0.0
 40
0.3527777776895833
 40
0.3527777776895833
 40
0.3527777776895833
 40
0.7055555553791667
 40
0.7055555553791667
 40
0.7055555553791667
 40
1.05833333306875
 40
1.05833333306875
 40
1.05833333306875
 40
1.411111110758333
 40
1.411111110758333
 40
1.411111110758333
 40
1.411111110758333
 10
79.69814993667269
 20
23.61130641770828
 10
79.69814993667269
 20
23.61130641770828
 10
78.42484264532435
 20
32.29983723150838
 10
78.42484264532435
 20
32.29983723150838
 10
81.39899357774053
 20
32.7323689696815
 10
85.53138561229771
 20
33.0882473333078
 10
88.77769908804864
 20
34.47179768018414
 10
88.77769908804864
 20
34.47179768018414
 10
88.87347274253858
 20
26.44558647342333
 10
88.87347274253858
 20
26.44558647342333
 10
85.96787921027887
 20
25.07891709442472
 10
82.85110132477334
 20
24.18525932555091
 10
79.69814993667269
 20
23.61130641770828
 72
     1
 10
79.69814993667269
 20
23.61130641770828
 11
79.69814993667269
 21
23.61130641770828
 97
        0
 92
        1
 93
        2
 72
     4
 94
        3
 73
     0
 74
     0
 95
       17
 96
       13
 40
0.0
 40
0.0
 40
0.0
 40
0.0
 40
0.3527777776895833
 40
0.3527777776895833
 40
0.3527777776895833
 40
0.7055555553791667
 40
0.7055555553791667
 40
0.7055555553791667
 40
1.05833333306875
 40
1.05833333306875
 40
1.05833333306875
 40
1.411111110758333
 40
1.411111110758333
 40
1.411111110758333
 40
1.411111110758333
 10
88.5592800342838
 20
52.80883516474918
 10
88.5592800342838
 20
52.80883516474918
 10
88.66745603252065
 20
43.73204208976144
 10
88.66745603252065
 20
43.73204208976144
 10
84.80653752220115
 20
45.15245495832994
 10
80.653819424281
 20
45.23341470223332
 10
76.67783472475415
 20
44.21952310092428
 10
76.67783472475415
 20
44.21952310092428
 10
75.23571775462857
 20
54.06284992138012
 10
75.23571775462857
 20
54.06284992138012
 10
79.76980792276588
 20
54.94462211082982
 10
84.30320907180615
 20
54.66470810265327
 10
88.5592800342838
 20
52.80883516474918
 72
     1
 10
88.5592800342838
 20
52.80883516474918
 11
88.5592800342838
 21
52.80883516474918
 97
        0
 92
        1
 93
        2
 72
     4
 94
        3
 73
     0
 74
     0
 95
       17
 96
       13
 40
0.0
 40
0.0
 40
0.0
 40
0.0
 40
0.3527777776895833
 40
0.3527777776895833
 40
0.3527777776895833
 40
0.7055555553791667
 40
0.7055555553791667
 40
0.7055555553791667
 40
1.05833333306875
 40
1.05833333306875
 40
1.05833333306875
 40
1.411111110758333
 40
1.411111110758333
 40
1.411111110758333
 40
1.411111110758333
 10
74.84745549344092
 20
43.66865233283284
 10
71.90568845858608
 20
42.64373642597101
 10
69.0045735504572
 20
41.40264077740976
 10
66.08726669354763
 20
40.29728189096735
 10
66.08726669354763
 20
40.29728189096735
 10
64.24793021397274
 20
49.67655434956003
 10
64.24793021397274
 20
49.67655434956003
 10
67.05706107264545
 20
51.46662596369585
 10
70.16281465259819
 20
52.80590683358672
 10
73.38570147904942
 20
53.64340954605095
 10
73.38570147904942
 20
53.64340954605095
 10
74.84745549344092
 20
43.66865233283284
 10
74.84745549344092
 20
43.66865233283284
 72
     1
 10
74.84745549344092
 20
43.66865233283284
 11
74.84745549344092
 21
43.66865233283284
 97
        0
 92
        1
 93
        2
 72
     4
 94
        3
 73
     0
 74
     0
 95
       20
 96
       16
 40
0.0
 40
0.0
 40
0.0
 40
0.0
 40
0.3527777776895833
 40
0.3527777776895833
 40
0.3527777776895833
 40
0.7055555553791667
 40
0.7055555553791667
 40
0.7055555553791667
 40
1.05833333306875
 40
1.05833333306875
 40
1.05833333306875
 40
1.411111110758333
 40
1.411111110758333
 40
1.411111110758333
 40
1.763888888447917
 40
1.763888888447917
 40
1.763888888447917
 40
1.763888888447917
 10
42.78240151925232
 20
32.48897297364859
 10
43.50587157115478
 20
31.4170315134131
 10
44.26396483268401
 20
30.30512694554872
 10
45.02722573744111
 20
29.16238877309135
 10
41.08913708825202
 20
29.18891600832777
 10
37.16982420945754
 20
28.6652614945698
 10
33.25395642614832
 20
28.31696234101104
 10
33.25395642614832
 20
28.31696234101104
 10
31.18310952996464
 20
36.01950682693263
 10
31.18310952996464
 20
36.01950682693263
 10
34.40392929912471
 20
36.04362249532937
 10
37.62233750144511
 20
35.80384384955598
 10
40.8164577805945
 20
35.40093993255601
 10
41.50237629170774
 20
34.33657768238808
 10
42.20173067521346
 20
33.34990233541252
 10
42.78240151925232
 20
32.48897297364859
 72
     1
 10
42.78240151925232
 20
32.48897297364859
 11
42.78240151925232
 21
32.48897297364859
 97
        0
 92
        1
 93
        2
 72
     4
 94
        3
 73
     0
 74
     0
 95
       20
 96
       16
 40
0.0
 40
0.0
 40
0.0
 40
0.0
 40
0.3527777776895833
 40
0.3527777776895833
 40
0.3527777776895833
 40
0.7055555553791667
 40
0.7055555553791667
 40
0.7055555553791667
 40
1.05833333306875
 40
1.05833333306875
 40
1.05833333306875
 40
1.411111110758333
 40
1.411111110758333
 40
1.411111110758333
 40
1.763888888447917
 40
1.763888888447917
 40
1.763888888447917
 40
1.763888888447917
 10
15.24678683429594
 20
32.85880397399016
 10
16.40864528669645
 20
33.40295680588537
 10
17.61253390401701
 20
33.86614989387721
 10
18.85001220231875
 20
34.25716823145307
 10
18.85001220231875
 20
34.25716823145307
 10
20.18843179833831
 20
26.48727212879485
 10
20.18843179833831
 20
26.48727212879485
 10
17.89537624335602
 20
25.90642902998173
 10
15.62626410199621
 20
25.16125487652219
 10
13.55817328220074
 20
24.04159884381599
 10
13.55817328220074
 20
24.04159884381599
 10
13.55817328220074
 20
31.99219020467557
 10
13.55817328220074
 20
31.99219020467557
 10
14.11076659803481
 20
32.30087076015395
 10
14.67352294555037
 20
32.59025878091494
 10
15.24678683429594
 20
32.85880397399016
 72
     1
 10
15.24678683429594
 20
32.85880397399016
 11
15.24678683429594
 21
32.85880397399016
 97
        0
 92
        1
 93
        2
 72
     4
 94
        3
 73
     0
 74
     0
 95
       17
 96
       13
 40
0.0
 40
0.0
 40
0.0
 40
0.0
 40
0.3527777776895833
 40
0.3527777776895833
 40
0.3527777776895833
 40
0.7055555553791667
 40
0.7055555553791667
 40
0.7055555553791667
 40
1.05833333306875
 40
1.05833333306875
 40
1.05833333306875
 40
1.411111110758333
 40
1.411111110758333
 40
1.411111110758333
 40
1.411111110758333
 10
20.67953015976067
 20
34.77754990450006
 10
23.47798122242912
 20
35.48723957446153
 10
26.35618624558109
 20
35.84656303357308
 10
29.23800861899258
 20
35.97041421626781
 10
29.23800861899258
 20
35.97041421626781
 10
31.34123941273761
 20
28.14608560494265
 10
31.34123941273761
 20
28.14608560494265
 10
28.21722682671306
 20
27.86324326560364
 10
25.08460150197538
 20
27.5400933090872
 10
22.03483072365796
 20
26.91067436393206
 10
22.03483072365796
 20
26.91067436393206
 10
20.67953015976067
 20
34.77754990450006
 10
20.67953015976067
 20
34.77754990450006
 72
     1
 10
20.67953015976067
 20
34.77754990450006
 11
20.67953015976067
 21
34.77754990450006
 97
        0
 92
        1
 93
        2
 72
     4
 94
        3
 73
     0
 74
     0
 95
       17
 96
       13
 40
0.0
 40
0.0
 40
0.0
 40
0.0
 40
0.3527777776895833
 40
0.3527777776895833
 40
0.3527777776895833
 40
0.7055555553791667
 40
0.7055555553791667
 40
0.7055555553791667
 40
1.05833333306875
 40
1.05833333306875
 40
1.05833333306875
 40
1.411111110758333
 40
1.411111110758333
 40
1.411111110758333
 40
1.411111110758333
 10
13.55817328220074
 20
3.353455945342192
 10
13.55817328220074
 20
3.353455945342192
 10
13.55817328220074
 20
13.41451280046582
 10
13.55817328220074
 20
13.41451280046582
 10
16.41415743947285
 20
12.97216254015974
 10
19.47099066353503
 20
13.134426537515
 10
22.38812526567033
 20
13.72009277000748
 10
22.38812526567033
 20
13.72009277000748
 10
24.27379827952183
 20
2.775368922917269
 10
24.27379827952183
 20
2.775368922917269
 10
20.72362738197187
 20
2.214851887467121
 10
17.0201497353283
 20
2.357823350104989
 10
13.55817328220074
 20
3.353455945342192
 72
     1
 10
13.55817328220074
 20
3.353455945342192
 11
13.55817328220074
 21
3.353455945342192
 97
        0
 92
        1
 93
        2
 72
     4
 94
        3
 73
     0
 74
     0
 95
       20
 96
       16
 40
0.0
 40
0.0
 40
0.0
 40
0.0
 40
0.3527777776895833
 40
0.3527777776895833
 40
0.3527777776895833
 40
0.7055555553791667
 40
0.7055555553791667
 40
0.7055555553791667
 40
1.05833333306875
 40
1.05833333306875
 40
1.05833333306875
 40
1.411111110758333
 40
1.411111110758333
 40
1.411111110758333
 40
1.763888888447917
 40
1.763888888447917
 40
1.763888888447917
 40
1.763888888447917
 10
29.67415770742521
 20
4.163053384375903
 10
28.51074896205634
 20
3.750675454791498
 10
27.32890895584138
 20
3.403754339426839
 10
26.13139376516854
 20
3.132625324737677
 10
26.13139376516854
 20
3.132625324737677
 10
24.23297389802162
 20
14.15141872476076
 10
24.23297389802162
 20
14.15141872476076
 10
27.57368299006838
 20
15.04300943634341
 10
30.97950438678637
 20
16.24707030843823
 10
34.20445827052875
 20
17.49626193138982
 10
34.20445827052875
 20
17.49626193138982
 10
36.86820609972392
 20
7.588167315811292
 10
36.86820609972392
 20
7.588167315811292
 10
34.562920455769
 20
6.254915363019605
 10
32.18804388301202
 20
5.054644095958562
 10
29.67415770742521
 20
4.163053384375903
 72
     1
 10
29.67415770742521
 20
4.163053384375903
 11
29.67415770742521
 21
4.163053384375903
 97
        0
 92
        1
 93
        2
 72
     4
 94
        3
 73
     0
 74
     0
 95
       20
 96
       16
 40
0.0
 40
0.0
 40
0.0
 40
0.0
 40
0.3527777776895833
 40
0.3527777776895833
 40
0.3527777776895833
 40
0.7055555553791667
 40
0.7055555553791667
 40
0.7055555553791667
 40
1.05833333306875
 40
1.05833333306875
 40
1.05833333306875
 40
1.411111110758333
 40
1.411111110758333
 40
1.411111110758333
 40
1.763888888447917
 40
1.763888888447917
 40
1.763888888447917
 40
1.763888888447917
 10
45.82011446337136
 20
14.10318738796726
 10
43.63420137798034
 20
12.00822482338683
 10
41.16647948189588
 20
10.21160752782904
 10
38.55544161362503
 20
8.597235783440969
 10
38.55544161362503
 20
8.597235783440969
 10
35.96231824187748
 20
18.24315863259199
 10
35.96231824187748
 20
18.24315863259199
 10
39.91453178255609
 20
20.09868706094755
 10
44.09463838958398
 20
22.7221272729653
 10
47.25499673297792
 20
25.72108289287529
 10
48.45440672616765
 20
23.79114040203833
 10
49.59025470765452
 20
21.79884168291835
 10
50.5386894947438
 20
19.77450357578554
 10
49.39422877454381
 20
17.63372124125129
 10
47.5586819000027
 20
15.76820203598851
 10
45.82011446337136
 20
14.10318738796726
 72
     1
 10
45.82011446337136
 20
14.10318738796726
 11
45.82011446337136
 21
14.10318738796726
 97
        0
 92
        1
 93
        2
 72
     4
 94
        3
 73
     0
 74
     0
 95
       20
 96
       16
 40
0.0
 40
0.0
 40
0.0
 40
0.0
 40
0.3527777776895833
 40
0.3527777776895833
 40
0.3527777776895833
 40
0.7055555553791667
 40
0.7055555553791667
 40
0.7055555553791667
 40
1.05833333306875
 40
1.05833333306875
 40
1.05833333306875
 40
1.411111110758333
 40
1.411111110758333
 40
1.411111110758333
 40
1.763888888447917
 40
1.763888888447917
 40
1.763888888447917
 40
1.763888888447917
 10
58.06984048027421
 20
27.94075791402176
 10
57.97751192126951
 20
29.24954968886817
 10
57.83488496818017
 20
30.55437960390655
 10
57.6436821687488
 20
31.85163030887737
 10
60.13379718548739
 20
30.99138996621049
 10
63.24575193731356
 20
31.77411566045925
 10
65.83474119447882
 20
31.75792371167858
 10
65.83474119447882
 20
31.75792371167858
 10
67.52456052999386
 20
23.14208441261726
 10
67.52456052999386
 20
23.14208441261726
 10
64.37195365144174
 20
23.46041123545434
 10
61.25827635187294
 20
24.08535155647866
 10
58.19524195593731
 20
24.88874782363893
 10
58.18283961219041
 20
25.90711804907878
 10
58.14149846636741
 20
26.92479925542158
 10
58.06984048027421
 20
27.94075791402176
 72
     1
 10
58.06984048027421
 20
27.94075791402176
 11
58.06984048027421
 21
27.94075791402176
 97
        0
 92
        1
 93
        2
 72
     4
 94
        3
 73
     0
 74
     0
 95
       11
 96
        7
 40
0.0
 40
0.0
 40
0.0
 40
0.0
 40
0.3527777776895833
 40
0.3527777776895833
 40
0.3527777776895833
 40
0.7055555553791667
 40
0.7055555553791667
 40
0.7055555553791667
 40
0.7055555553791667
 10
48.35846081690345
 20
44.91508787939623
 10
48.35846081690345
 20
43.62007648649082
 10
46.3508314228741
 20
43.62007648649082
 10
46.3508314228741
 20
44.91508787939623
 10
46.3508314228741
 20
46.20975476275312
 10
48.35846081690345
 20
46.20975476275312
 10
48.35846081690345
 20
44.91508787939623
 72
     1
 10
48.35846081690345
 20
44.91508787939623
 11
48.35846081690345
 21
44.91508787939623
 97
        0
 92
        1
 93
        2
 72
     4
 94
        3
 73
     0
 74
     0
 95
       11
 96
        7
 40
0.0
 40
0.0
 40
0.0
 40
0.0
 40
0.3527777776895833
 40
0.3527777776895833
 40
0.3527777776895833
 40
0.7055555553791667
 40
0.7055555553791667
 40
0.7055555553791667
 40
0.7055555553791667
 10
43.99421385618895
 20
43.54273409284696
 10
43.99421385618895
 20
42.24806720949007
 10
41.98675671693387
 20
42.24806720949007
 10
41.98675671693387
 20
43.54273409284696
 10
41.98675671693387
 20
44.83774548575237
 10
43.99421385618895
 20
44.83757323097811
 10
43.99421385618895
 20
43.54273409284696
 72
     1
 10
43.99421385618895
 20
43.54273409284696
 11
43.99421385618895
 21
43.54273409284696
 97
        0
 75
     2
 76
     1
 98
        0
  0
ENDSEC
  0
SECTION
  2
OBJECTS
  0
DICTIONARY
  5
C
330
0
100
AcDbDictionary
281
     1
  3
ACAD_GROUP
350
D
  3
ACAD_LAYOUT
350
1A
  3
ACAD_MLINESTYLE
350
17
  3
ACAD_PLOTSETTINGS
350
19
  3
ACAD_PLOTSTYLENAME
350
E
  3
ACAD_TABLESTYLE
350
4E
  3
ACAD_VISUALSTYLE
350
2A
  0
DICTIONARY
  5
D
102
{ACAD_REACTORS
330
C
102
}
330
C
100
AcDbDictionary
281
     1
  0
DICTIONARY
  5
1A
102
{ACAD_REACTORS
330
C
102
}
330
C
100
AcDbDictionary
281
     1
  3
Layout1
350
1E
  3
Layout2
350
26
  3
Model
350
22
  0
DICTIONARY
  5
17
102
{ACAD_REACTORS
330
C
102
}
330
C
100
AcDbDictionary
281
     1
  3
Standard
350
18
  0
DICTIONARY
  5
19
102
{ACAD_REACTORS
330
C
102
}
330
C
100
AcDbDictionary
281
     1
  0
ACDBDICTIONARYWDFLT
  5
E
102
{ACAD_REACTORS
330
C
102
}
330
C
100
AcDbDictionary
281
     1
  3
Normal
350
F
100
AcDbDictionaryWithDefault
340
F
  0
DICTIONARY
  5
4E
102
{ACAD_REACTORS
330
C
102
}
330
C
100
AcDbDictionary
281
     1
  0
DICTIONARY
  5
2A
102
{ACAD_REACTORS
330
C
102
}
330
C
100
AcDbDictionary
281
     1
  3
2dWireframe
350
2F
  3
3D Hidden
350
31
  3
3dWireframe
350
30
  3
Basic
350
32
  3
Brighten
350
36
  3
ColorChange
350
3A
  3
Conceptual
350
34
  3
Dim
350
35
  3
Facepattern
350
39
  3
Flat
350
2B
  3
FlatWithEdges
350
2C
  3
Gouraud
350
2D
  3
GouraudWithEdges
350
2E
  3
Linepattern
350
38
  3
Realistic
350
33
  3
Thicken
350
37
  0
LAYOUT
  5
1E
102
{ACAD_REACTORS
330
1A
102
}
330
1A
100
AcDbPlotSettings
  1

  2
none_device
  4

  6

 40
0.0
 41
0.0
 42
0.0
 43
0.0
 44
0.0
 45
0.0
 46
0.0
 47
0.0
 48
0.0
 49
0.0
140
0.0
141
0.0
142
1.0
143
1.0
 70
   688
 72
     0
 73
     0
 74
     5
  7

 75
    16
 76
     0
 77
     2
 78
   300
147
1.0
148
0.0
149
0.0
100
AcDbLayout
  1
Layout1
 70
     1
 71
     1
 10
0.0
 20
0.0
 11
12.0
 21
9.0
 12
0.0
 22
0.0
 32
0.0
 14
1.000000000000000E+20
 24
1.000000000000000E+20
 34
1.000000000000000E+20
 15
-1.000000000000000E+20
 25
-1.000000000000000E+20
 35
-1.000000000000000E+20
146
0.0
 13
0.0
 23
0.0
 33
0.0
 16
1.0
 26
0.0
 36
0.0
 17
0.0
 27
1.0
 37
0.0
 76
     0
330
1B
  0
LAYOUT
  5
26
102
{ACAD_REACTORS
330
1A
102
}
330
1A
100
AcDbPlotSettings
  1

  2
none_device
  4

  6

 40
0.0
 41
0.0
 42
0.0
 43
0.0
 44
0.0
 45
0.0
 46
0.0
 47
0.0
 48
0.0
 49
0.0
140
0.0
141
0.0
142
1.0
143
1.0
 70
   688
 72
     0
 73
     0
 74
     5
  7

 75
    16
 76
     0
 77
     2
 78
   300
147
1.0
148
0.0
149
0.0
100
AcDbLayout
  1
Layout2
 70
     1
 71
     2
 10
0.0
 20
0.0
 11
0.0
 21
0.0
 12
0.0
 22
0.0
 32
0.0
 14
0.0
 24
0.0
 34
0.0
 15
0.0
 25
0.0
 35
0.0
146
0.0
 13
0.0
 23
0.0
 33
0.0
 16
1.0
 26
0.0
 36
0.0
 17
0.0
 27
1.0
 37
0.0
 76
     0
330
23
  0
LAYOUT
  5
22
102
{ACAD_REACTORS
330
1A
102
}
330
1A
100
AcDbPlotSettings
  1

  2
none_device
  4

  6

 40
0.0
 41
0.0
 42
0.0
 43
0.0
 44
0.0
 45
0.0
 46
0.0
 47
0.0
 48
0.0
 49
0.0
140
0.0
141
0.0
142
1.0
143
1.0
 70
  1712
 72
     0
 73
     0
 74
     0
  7

 75
     0
 76
     0
 77
     2
 78
   300
147
1.0
148
0.0
149
0.0
100
AcDbLayout
  1
Model
 70
     1
 71
     0
 10
0.0
 20
0.0
 11
12.0
 21
9.0
 12
0.0
 22
0.0
 32
0.0
 14
1.000000000000000E+20
 24
1.000000000000000E+20
 34
1.000000000000000E+20
 15
-1.000000000000000E+20
 25
-1.000000000000000E+20
 35
-1.000000000000000E+20
146
0.0
 13
0.0
 23
0.0
 33
0.0
 16
1.0
 26
0.0
 36
0.0
 17
0.0
 27
1.0
 37
0.0
 76
     0
330
1F
331
29
  0
MLINESTYLE
  5
18
102
{ACAD_REACTORS
330
17
102
}
330
17
100
AcDbMlineStyle
  2
Standard
 70
     0
  3

 62
   256
 51
90.0
 52
90.0
 71
     2
 49
0.5
 62
   256
  6
BYLAYER
 49
-0.5
 62
   256
  6
BYLAYER
  0
ACDBPLACEHOLDER
  5
F
102
{ACAD_REACTORS
330
E
102
}
330
E
  0
VISUALSTYLE
  5
2F
102
{ACAD_REACTORS
330
2A
102
}
330
2A
100
AcDbVisualStyle
  2
2dWireframe
 70
     4
 71
     0
 72
     2
 73
     0
 90
        0
 40
-0.6
 41
-30.0
 62
     5
 63
     7
421
 16777215
 74
     1
 91
        4
 64
     7
 65
   257
 75
     1
175
     1
 42
1.0
 92
        0
 66
   257
 43
1.0
 76
     1
 77
     6
 78
     2
 67
     7
 79
     5
170
     0
171
     0
290
     0
174
     0
 93
        1
 44
0.0
173
     0
291
     0
 45
0.0
1001
ACAD
1000
AcDbSavedByObjectVersion
1070
     0
  0
VISUALSTYLE
  5
31
102
{ACAD_REACTORS
330
2A
102
}
330
2A
100
AcDbVisualStyle
  2
3D Hidden
 70
     6
 71
     1
 72
     2
 73
     2
 90
        0
 40
-0.6
 41
-30.0
 62
     5
 63
     7
421
 16777215
 74
     2
 91
        2
 64
     7
 65
   257
 75
     2
175
     1
 42
40.0
 92
        0
 66
   257
 43
1.0
 76
     1
 77
     6
 78
     2
 67
     7
 79
     3
170
     0
171
     0
290
     0
174
     0
 93
        1
 44
0.0
173
     0
291
     0
 45
0.0
1001
ACAD
1000
AcDbSavedByObjectVersion
1070
     0
  0
VISUALSTYLE
  5
30
102
{ACAD_REACTORS
330
2A
102
}
330
2A
100
AcDbVisualStyle
  2
3dWireframe
 70
     5
 71
     0
 72
     2
 73
     0
 90
        0
 40
-0.6
 41
-30.0
 62
     5
 63
     7
421
 16777215
 74
     1
 91
        4
 64
     7
 65
   257
 75
     1
175
     1
 42
1.0
 92
        0
 66
   257
 43
1.0
 76
     1
 77
     6
 78
     2
 67
     7
 79
     5
170
     0
171
     0
290
     0
174
     0
 93
        1
 44
0.0
173
     0
291
     0
 45
0.0
1001
ACAD
1000
AcDbSavedByObjectVersion
1070
     0
  0
VISUALSTYLE
  5
32
102
{ACAD_REACTORS
330
2A
102
}
330
2A
100
AcDbVisualStyle
  2
Basic
 70
     7
 71
     1
 72
     0
 73
     1
 90
        0
 40
-0.6
 41
-30.0
 62
     5
 63
     7
421
 16777215
 74
     0
 91
        4
 64
     7
 65
   257
 75
     1
175
     1
 42
1.0
 92
        8
 66
     7
 43
1.0
 76
     1
 77
     6
 78
     2
 67
     7
 79
     5
170
     0
171
     0
290
     0
174
     0
 93
        1
 44
0.0
173
     0
291
     1
 45
0.0
1001
ACAD
1000
AcDbSavedByObjectVersion
1070
     0
  0
VISUALSTYLE
  5
36
102
{ACAD_REACTORS
330
2A
102
}
330
2A
100
AcDbVisualStyle
  2
Brighten
 70
    12
 71
     2
 72
     2
 73
     0
 90
        0
 40
-0.6
 41
-30.0
 62
     5
 63
     7
421
 16777215
 74
     1
 91
        4
 64
     7
 65
   257
 75
     1
175
     1
 42
1.0
 92
        8
 66
     7
 43
1.0
 76
     1
 77
     6
 78
     2
 67
     7
 79
     5
170
     0
171
     0
290
     0
174
     0
 93
        1
 44
50.0
173
     0
291
     1
 45
0.0
1001
ACAD
1000
AcDbSavedByObjectVersion
1070
     0
  0
VISUALSTYLE
  5
3A
102
{ACAD_REACTORS
330
2A
102
}
330
2A
100
AcDbVisualStyle
  2
ColorChange
 70
    16
 71
     2
 72
     2
 73
     3
 90
        0
 40
-0.6
 41
-30.0
 62
     5
 63
     8
421
  8421504
 74
     1
 91
        4
 64
     7
 65
   257
 75
     1
175
     1
 42
1.0
 92
        8
 66
     8
424
  8421504
 43
1.0
 76
     1
 77
     6
 78
     2
 67
     7
 79
     5
170
     0
171
     0
290
     0
174
     0
 93
        1
 44
0.0
173
     0
291
     1
 45
0.0
1001
ACAD
1000
AcDbSavedByObjectVersion
1070
     0
  0
VISUALSTYLE
  5
34
102
{ACAD_REACTORS
330
2A
102
}
330
2A
100
AcDbVisualStyle
  2
Conceptual
 70
     9
 71
     3
 72
     2
 73
     0
 90
        0
 40
-0.6
 41
-30.0
 62
     5
 63
     7
421
 16777215
 74
     2
 91
        2
 64
     7
 65
   257
 75
     1
175
     1
 42
40.0
 92
        8
 66
     7
 43
1.0
 76
     1
 77
     6
 78
     2
 67
     7
 79
     3
170
     0
171
     0
290
     0
174
     0
 93
        1
 44
0.0
173
     0
291
     0
 45
0.0
1001
ACAD
1000
AcDbSavedByObjectVersion
1070
     0
  0
VISUALSTYLE
  5
35
102
{ACAD_REACTORS
330
2A
102
}
330
2A
100
AcDbVisualStyle
  2
Dim
 70
    11
 71
     2
 72
     2
 73
     0
 90
        0
 40
-0.6
 41
-30.0
 62
     5
 63
     7
421
 16777215
 74
     1
 91
        4
 64
     7
 65
   257
 75
     1
175
     1
 42
1.0
 92
        8
 66
     7
 43
1.0
 76
     1
 77
     6
 78
     2
 67
     7
 79
     5
170
     0
171
     0
290
     0
174
     0
 93
        1
 44
-50.0
173
     0
291
     1
 45
0.0
1001
ACAD
1000
AcDbSavedByObjectVersion
1070
     0
  0
VISUALSTYLE
  5
39
102
{ACAD_REACTORS
330
2A
102
}
330
2A
100
AcDbVisualStyle
  2
Facepattern
 70
    15
 71
     2
 72
     2
 73
     0
 90
        0
 40
-0.6
 41
-30.0
 62
     5
 63
     7
421
 16777215
 74
     1
 91
        4
 64
     7
 65
   257
 75
     1
175
     1
 42
1.0
 92
        8
 66
     7
 43
1.0
 76
     1
 77
     6
 78
     2
 67
     7
 79
     5
170
     0
171
     0
290
     0
174
     0
 93
        1
 44
0.0
173
     0
291
     1
 45
0.0
1001
ACAD
1000
AcDbSavedByObjectVersion
1070
     0
  0
VISUALSTYLE
  5
2B
102
{ACAD_REACTORS
330
2A
102
}
330
2A
100
AcDbVisualStyle
  2
Flat
 70
     0
 71
     2
 72
     1
 73
     1
 90
        2
 40
-0.6
 41
30.0
 62
     5
 63
     7
421
 16777215
 74
     0
 91
        4
 64
     7
 65
   257
 75
     1
175
     1
 42
1.0
 92
        8
 66
     7
 43
1.0
 76
     1
 77
     6
 78
     2
 67
     7
 79
     5
170
     0
171
     0
290
     0
174
     0
 93
       13
 44
0.0
173
     0
291
     1
 45
0.0
1001
ACAD
1000
AcDbSavedByObjectVersion
1070
     0
  0
VISUALSTYLE
  5
2C
102
{ACAD_REACTORS
330
2A
102
}
330
2A
100
AcDbVisualStyle
  2
FlatWithEdges
 70
     1
 71
     2
 72
     1
 73
     1
 90
        2
 40
-0.6
 41
30.0
 62
     5
 63
     7
421
 16777215
 74
     1
 91
        4
 64
     7
 65
   257
 75
     1
175
     1
 42
1.0
 92
        0
 66
   257
 43
1.0
 76
     1
 77
     6
 78
     2
 67
     7
 79
     5
170
     0
171
     0
290
     0
174
     0
 93
       13
 44
0.0
173
     0
291
     1
 45
0.0
1001
ACAD
1000
AcDbSavedByObjectVersion
1070
     0
  0
VISUALSTYLE
  5
2D
102
{ACAD_REACTORS
330
2A
102
}
330
2A
100
AcDbVisualStyle
  2
Gouraud
 70
     2
 71
     2
 72
     2
 73
     1
 90
        2
 40
-0.6
 41
30.0
 62
     5
 63
     7
421
 16777215
 74
     0
 91
        4
 64
     7
 65
   257
 75
     1
175
     1
 42
1.0
 92
        0
 66
     7
 43
1.0
 76
     1
 77
     6
 78
     2
 67
     7
 79
     5
170
     0
171
     0
290
     0
174
     0
 93
       13
 44
0.0
173
     0
291
     1
 45
0.0
1001
ACAD
1000
AcDbSavedByObjectVersion
1070
     0
  0
VISUALSTYLE
  5
2E
102
{ACAD_REACTORS
330
2A
102
}
330
2A
100
AcDbVisualStyle
  2
GouraudWithEdges
 70
     3
 71
     2
 72
     2
 73
     1
 90
        2
 40
-0.6
 41
30.0
 62
     5
 63
     7
421
 16777215
 74
     1
 91
        4
 64
     7
 65
   257
 75
     1
175
     1
 42
1.0
 92
        0
 66
   257
 43
1.0
 76
     1
 77
     6
 78
     2
 67
     7
 79
     5
170
     0
171
     0
290
     0
174
     0
 93
       13
 44
0.0
173
     0
291
     1
 45
0.0
1001
ACAD
1000
AcDbSavedByObjectVersion
1070
     0
  0
VISUALSTYLE
  5
38
102
{ACAD_REACTORS
330
2A
102
}
330
2A
100
AcDbVisualStyle
  2
Linepattern
 70
    14
 71
     2
 72
     2
 73
     0
 90
        0
 40
-0.6
 41
-30.0
 62
     5
 63
     7
421
 16777215
 74
     1
 91
        4
 64
     7
 65
   257
 75
     7
175
     7
 42
1.0
 92
        8
 66
     7
 43
1.0
 76
     1
 77
     6
 78
     2
 67
     7
 79
     5
170
     0
171
     0
290
     0
174
     0
 93
        1
 44
0.0
173
     0
291
     1
 45
0.0
1001
ACAD
1000
AcDbSavedByObjectVersion
1070
     0
  0
VISUALSTYLE
  5
33
102
{ACAD_REACTORS
330
2A
102
}
330
2A
100
AcDbVisualStyle
  2
Realistic
 70
     8
 71
     2
 72
     2
 73
     0
 90
        0
 40
-0.6
 41
-30.0
 62
     5
 63
     7
421
 16777215
 74
     1
 91
        0
 64
     7
 65
   257
 75
     1
175
     1
 42
1.0
 92
        8
 66
     8
424
  7895160
 43
1.0
 76
     1
 77
     6
 78
     2
 67
     7
 79
     5
170
     0
171
     0
290
     0
174
     0
 93
       13
 44
0.0
173
     0
291
     0
 45
0.0
1001
ACAD
1000
AcDbSavedByObjectVersion
1070
     0
  0
VISUALSTYLE
  5
37
102
{ACAD_REACTORS
330
2A
102
}
330
2A
100
AcDbVisualStyle
  2
Thicken
 70
    13
 71
     2
 72
     2
 73
     0
 90
        0
 40
-0.6
 41
-30.0
 62
     5
 63
     7
421
 16777215
 74
     1
 91
        4
 64
     7
 65
   257
 75
     1
175
     1
 42
1.0
 92
       12
 66
     7
 43
1.0
 76
     1
 77
     6
 78
     2
 67
     7
 79
     5
170
     0
171
     0
290
     0
174
     0
 93
        1
 44
0.0
173
     0
291
     1
 45
0.0
1001
ACAD
1000
AcDbSavedByObjectVersion
1070
     0
  0
ENDSEC
  0
EOF
