  0
SECTION
  2
HEADER
  9
$ACADVER
  1
AC1021
  9
$ACADMAINTVER
 70
    25
  9
$DWGCODEPAGE
  3
ANSI_1252
  9
$INSBASE
 10
0.0
 20
0.0
 30
0.0
  9
$EXTMIN
 10
-6.38203
 20
-8.10209
 30
0.0
  9
$EXTMAX
 10
5.73502
 20
8.10209
 30
0.0
  9
$LIMMIN
 10
0.0
 20
0.0
  9
$LIMMAX
 10
12.0
 20
9.0
  9
$ORTHOMODE
 70
     0
  9
$REGENMODE
 70
     1
  9
$FILLMODE
 70
     1
  9
$QTEXTMODE
 70
     0
  9
$MIRRTEXT
 70
     1
  9
$LTSCALE
 40
1.0
  9
$ATTMODE
 70
     1
  9
$TEXTSIZE
 40
0.2
  9
$TRACEWID
 40
0.05
  9
$TEXTSTYLE
  7
Standard
  9
$CLAYER
  8
0
  9
$CELTYPE
  6
ByLayer
  9
$CECOLOR
 62
   256
  9
$CELTSCALE
 40
1.0
  9
$DISPSILH
 70
     0
  9
$DIMSCALE
 40
1.0
  9
$DIMASZ
 40
0.18
  9
$DIMEXO
 40
0.0625
  9
$DIMDLI
 40
0.38
  9
$DIMRND
 40
0.0
  9
$DIMDLE
 40
0.0
  9
$DIMEXE
 40
0.18
  9
$DIMTP
 40
0.0
  9
$DIMTM
 40
0.0
  9
$DIMTXT
 40
0.18
  9
$DIMCEN
 40
0.09
  9
$DIMTSZ
 40
0.0
  9
$DIMTOL
 70
     0
  9
$DIMLIM
 70
     0
  9
$DIMTIH
 70
     1
  9
$DIMTOH
 70
     1
  9
$DIMSE1
 70
     0
  9
$DIMSE2
 70
     0
  9
$DIMTAD
 70
     0
  9
$DIMZIN
 70
     0
  9
$DIMBLK
  1

  9
$DIMASO
 70
     1
  9
$DIMSHO
 70
     1
  9
$DIMPOST
  1

  9
$DIMAPOST
  1

  9
$DIMALT
 70
     0
  9
$DIMALTD
 70
     2
  9
$DIMALTF
 40
25.4
  9
$DIMLFAC
 40
1.0
  9
$DIMTOFL
 70
     0
  9
$DIMTVP
 40
0.0
  9
$DIMTIX
 70
     0
  9
$DIMSOXD
 70
     0
  9
$DIMSAH
 70
     0
  9
$DIMBLK1
  1

  9
$DIMBLK2
  1

  9
$DIMSTYLE
  2
Standard
  9
$DIMCLRD
 70
     0
  9
$DIMCLRE
 70
     0
  9
$DIMCLRT
 70
     0
  9
$DIMTFAC
 40
1.0
  9
$DIMGAP
 40
0.09
  9
$DIMJUST
 70
     0
  9
$DIMSD1
 70
     0
  9
$DIMSD2
 70
     0
  9
$DIMTOLJ
 70
     1
  9
$DIMTZIN
 70
     0
  9
$DIMALTZ
 70
     0
  9
$DIMALTTZ
 70
     0
  9
$DIMUPT
 70
     0
  9
$DIMDEC
 70
     4
  9
$DIMTDEC
 70
     4
  9
$DIMALTU
 70
     2
  9
$DIMALTTD
 70
     2
  9
$DIMTXSTY
  7
Standard
  9
$DIMAUNIT
 70
     0
  9
$DIMADEC
 70
     0
  9
$DIMALTRND
 40
0.0
  9
$DIMAZIN
 70
     0
  9
$DIMDSEP
 70
    46
  9
$DIMATFIT
 70
     3
  9
$DIMFRAC
 70
     0
  9
$DIMLDRBLK
  1

  9
$DIMLUNIT
 70
     2
  9
$DIMLWD
 70
    -2
  9
$DIMLWE
 70
    -2
  9
$DIMTMOVE
 70
     0
  9
$DIMFXL
 40
1.0
  9
$DIMFXLON
 70
     0
  9
$DIMJOGANG
 40
0.7853981633974483
  9
$DIMTFILL
 70
     0
  9
$DIMTFILLCLR
 70
     0
  9
$DIMARCSYM
 70
     0
  9
$DIMLTYPE
  6

  9
$DIMLTEX1
  6

  9
$DIMLTEX2
  6

  9
$LUNITS
 70
     2
  9
$LUPREC
 70
     4
  9
$SKETCHINC
 40
0.1
  9
$FILLETRAD
 40
0.5
  9
$AUNITS
 70
     0
  9
$AUPREC
 70
     0
  9
$MENU
  1
.
  9
$ELEVATION
 40
0.0
  9
$PELEVATION
 40
0.0
  9
$THICKNESS
 40
0.0
  9
$LIMCHECK
 70
     0
  9
$CHAMFERA
 40
0.5
  9
$CHAMFERB
 40
0.5
  9
$CHAMFERC
 40
1.0
  9
$CHAMFERD
 40
0.0
  9
$SKPOLY
 70
     0
  9
$TDCREATE
 40
2456866.806354271
  9
$TDUCREATE
 40
2456866.931354271
  9
$TDUPDATE
 40
2456866.806354641
  9
$TDUUPDATE
 40
2456866.931354641
  9
$TDINDWG
 40
0.0000000116
  9
$TDUSRTIMER
 40
0.0000000116
  9
$USRTIMER
 70
     1
  9
$ANGBASE
 50
0.0
  9
$ANGDIR
 70
     0
  9
$PDMODE
 70
     0
  9
$PDSIZE
 40
0.0
  9
$PLINEWID
 40
0.0
  9
$SPLFRAME
 70
     0
  9
$SPLINETYPE
 70
     6
  9
$SPLINESEGS
 70
     8
  9
$HANDSEED
  5
A1
  9
$SURFTAB1
 70
     6
  9
$SURFTAB2
 70
     6
  9
$SURFTYPE
 70
     6
  9
$SURFU
 70
     6
  9
$SURFV
 70
     6
  9
$UCSBASE
  2

  9
$UCSNAME
  2

  9
$UCSORG
 10
0.0
 20
0.0
 30
0.0
  9
$UCSXDIR
 10
1.0
 20
0.0
 30
0.0
  9
$UCSYDIR
 10
0.0
 20
1.0
 30
0.0
  9
$UCSORTHOREF
  2

  9
$UCSORTHOVIEW
 70
     0
  9
$UCSORGTOP
 10
0.0
 20
0.0
 30
0.0
  9
$UCSORGBOTTOM
 10
0.0
 20
0.0
 30
0.0
  9
$UCSORGLEFT
 10
0.0
 20
0.0
 30
0.0
  9
$UCSORGRIGHT
 10
0.0
 20
0.0
 30
0.0
  9
$UCSORGFRONT
 10
0.0
 20
0.0
 30
0.0
  9
$UCSORGBACK
 10
0.0
 20
0.0
 30
0.0
  9
$PUCSBASE
  2

  9
$PUCSNAME
  2

  9
$PUCSORG
 10
0.0
 20
0.0
 30
0.0
  9
$PUCSXDIR
 10
1.0
 20
0.0
 30
0.0
  9
$PUCSYDIR
 10
0.0
 20
1.0
 30
0.0
  9
$PUCSORTHOREF
  2

  9
$PUCSORTHOVIEW
 70
     0
  9
$PUCSORGTOP
 10
0.0
 20
0.0
 30
0.0
  9
$PUCSORGBOTTOM
 10
0.0
 20
0.0
 30
0.0
  9
$PUCSORGLEFT
 10
0.0
 20
0.0
 30
0.0
  9
$PUCSORGRIGHT
 10
0.0
 20
0.0
 30
0.0
  9
$PUCSORGFRONT
 10
0.0
 20
0.0
 30
0.0
  9
$PUCSORGBACK
 10
0.0
 20
0.0
 30
0.0
  9
$USERI1
 70
     0
  9
$USERI2
 70
     0
  9
$USERI3
 70
     0
  9
$USERI4
 70
     0
  9
$USERI5
 70
     0
  9
$USERR1
 40
0.0
  9
$USERR2
 40
0.0
  9
$USERR3
 40
0.0
  9
$USERR4
 40
0.0
  9
$USERR5
 40
0.0
  9
$WORLDVIEW
 70
     1
  9
$SHADEDGE
 70
     3
  9
$SHADEDIF
 70
    70
  9
$TILEMODE
 70
     1
  9
$MAXACTVP
 70
    64
  9
$PINSBASE
 10
0.0
 20
0.0
 30
0.0
  9
$PLIMCHECK
 70
     0
  9
$PEXTMIN
 10
1.000000000000000E+20
 20
1.000000000000000E+20
 30
1.000000000000000E+20
  9
$PEXTMAX
 10
-1.000000000000000E+20
 20
-1.000000000000000E+20
 30
-1.000000000000000E+20
  9
$PLIMMIN
 10
0.0
 20
0.0
  9
$PLIMMAX
 10
12.0
 20
9.0
  9
$UNITMODE
 70
     0
  9
$VISRETAIN
 70
     1
  9
$PLINEGEN
 70
     0
  9
$PSLTSCALE
 70
     1
  9
$TREEDEPTH
 70
  3020
  9
$CMLSTYLE
  2
Standard
  9
$CMLJUST
 70
     0
  9
$CMLSCALE
 40
1.0
  9
$PROXYGRAPHICS
 70
     1
  9
$MEASUREMENT
 70
     0
  9
$CELWEIGHT
370
    -1
  9
$ENDCAPS
280
     0
  9
$JOINSTYLE
280
     0
  9
$LWDISPLAY
290
     0
  9
$INSUNITS
 70
     5
  9
$HYPERLINKBASE
  1

  9
$STYLESHEET
  1

  9
$XEDIT
290
     1
  9
$CEPSNTYPE
380
     0
  9
$PSTYLEMODE
290
     1
  9
$FINGERPRINTGUID
  2
{C40F573D-8DFB-4B57-B9A9-0B06706676AB}
  9
$VERSIONGUID
  2
{FAEB1C32-E019-11D5-929B-00C0DF256EC4}
  9
$EXTNAMES
290
     1
  9
$PSVPSCALE
 40
0.0
  9
$OLESTARTUP
290
     0
  9
$SORTENTS
280
   127
  9
$INDEXCTL
280
     0
  9
$HIDETEXT
280
     1
  9
$XCLIPFRAME
290
     0
  9
$HALOGAP
280
     0
  9
$OBSCOLOR
 70
   257
  9
$OBSLTYPE
280
     0
  9
$INTERSECTIONDISPLAY
280
     0
  9
$INTERSECTIONCOLOR
 70
   257
  9
$DIMASSOC
280
     2
  9
$PROJECTNAME
  1

  9
$CAMERADISPLAY
290
     0
  9
$LENSLENGTH
 40
50.0
  9
$CAMERAHEIGHT
 40
0.0
  9
$STEPSPERSEC
 40
2.0
  9
$STEPSIZE
 40
6.0
  9
$3DDWFPREC
 40
2.0
  9
$PSOLWIDTH
 40
0.25
  9
$PSOLHEIGHT
 40
4.0
  9
$LOFTANG1
 40
1.570796326794897
  9
$LOFTANG2
 40
1.570796326794897
  9
$LOFTMAG1
 40
0.0
  9
$LOFTMAG2
 40
0.0
  9
$LOFTPARAM
 70
     7
  9
$LOFTNORMALS
280
     1
  9
$LATITUDE
 40
37.795
  9
$LONGITUDE
 40
-122.394
  9
$NORTHDIRECTION
 40
0.0
  9
$TIMEZONE
 70
 -8000
  9
$LIGHTGLYPHDISPLAY
280
     1
  9
$TILEMODELIGHTSYNCH
280
     1
  9
$SOLIDHIST
280
     1
  9
$SHOWHIST
280
     1
  9
$DWFFRAME
280
     2
  9
$DGNFRAME
280
     2
  9
$REALWORLDSCALE
290
     1
  9
$INTERFERECOLOR
 62
   256
  9
$CSHADOW
280
     0
  9
$SHADOWPLANELOCATION
 40
0.0
  0
ENDSEC
  0
SECTION
  2
CLASSES
  0
CLASS
  1
ACDBDICTIONARYWDFLT
  2
AcDbDictionaryWithDefault
  3
ObjectDBX Classes
 90
        0
 91
        4
280
     0
281
     0
  0
CLASS
  1
VISUALSTYLE
  2
AcDbVisualStyle
  3
ObjectDBX Classes
 90
     4095
 91
        4
280
     0
281
     0
  0
CLASS
  1
MATERIAL
  2
AcDbMaterial
  3
ObjectDBX Classes
 90
     1153
 91
        4
280
     0
281
     0
  0
ENDSEC
  0
SECTION
  2
TABLES
  0
TABLE
  2
VPORT
  5
8
330
0
100
AcDbSymbolTable
 70
     1
  0
VPORT
  5
29
330
8
100
AcDbSymbolTableRecord
100
AcDbViewportTableRecord
  2
*Active
 70
     0
 10
0.0
 20
0.0
 11
1.0
 21
1.0
 12
10.42990654205607
 22
4.5
 13
0.0
 23
0.0
 14
0.5
 24
0.5
 15
0.5
 25
0.5
 16
0.0
 26
0.0
 36
1.0
 17
0.0
 27
0.0
 37
0.0
 40
9.0
 41
1.972972972850329
 42
50.0
 43
0.0
 44
0.0
 50
0.0
 51
0.0
 71
     0
 72
   100
 73
     1
 74
     3
 75
     0
 76
     0
 77
     0
 78
     0
281
     0
 65
     1
110
0.0
120
0.0
130
0.0
111
1.0
121
0.0
131
0.0
112
0.0
122
1.0
132
0.0
 79
     0
146
0.0
 60
     3
 61
     5
292
     1
282
     1
141
0.0
142
0.0
 63
   250
  0
ENDTAB
  0
TABLE
  2
LTYPE
  5
5
330
0
100
AcDbSymbolTable
 70
     1
  0
LTYPE
  5
14
330
5
100
AcDbSymbolTableRecord
100
AcDbLinetypeTableRecord
  2
ByBlock
 70
     0
  3

 72
    65
 73
     0
 40
0.0
  0
LTYPE
  5
15
330
5
100
AcDbSymbolTableRecord
100
AcDbLinetypeTableRecord
  2
ByLayer
 70
     0
  3

 72
    65
 73
     0
 40
0.0
  0
LTYPE
  5
16
330
5
100
AcDbSymbolTableRecord
100
AcDbLinetypeTableRecord
  2
Continuous
 70
     0
  3
Solid line
 72
    65
 73
     0
 40
0.0
  0
ENDTAB
  0
TABLE
  2
LAYER
  5
2
330
0
100
AcDbSymbolTable
 70
     2
  0
LAYER
  5
10
330
2
100
AcDbSymbolTableRecord
100
AcDbLayerTableRecord
  2
0
 70
     0
 62
     7
  6
Continuous
370
    -3
390
F
347
3E
  0
LAYER
  5
40
330
2
100
AcDbSymbolTableRecord
100
AcDbLayerTableRecord
  2
Camada 1
 70
     0
 62
     7
  6
Continuous
370
    -3
390
F
347
3E
  0
ENDTAB
  0
TABLE
  2
STYLE
  5
3
330
0
100
AcDbSymbolTable
 70
     1
  0
STYLE
  5
11
330
3
100
AcDbSymbolTableRecord
100
AcDbTextStyleTableRecord
  2
Standard
 70
     0
 40
0.0
 41
1.0
 50
0.0
 71
     0
 42
0.2
  3
txt
  4

  0
ENDTAB
  0
TABLE
  2
VIEW
  5
6
330
0
100
AcDbSymbolTable
 70
     0
  0
ENDTAB
  0
TABLE
  2
UCS
  5
7
330
0
100
AcDbSymbolTable
 70
     0
  0
ENDTAB
  0
TABLE
  2
APPID
  5
9
330
0
100
AcDbSymbolTable
 70
     2
  0
APPID
  5
12
330
9
100
AcDbSymbolTableRecord
100
AcDbRegAppTableRecord
  2
ACAD
 70
     0
  0
APPID
  5
3F
330
9
100
AcDbSymbolTableRecord
100
AcDbRegAppTableRecord
  2
ODA
 70
     0
  0
ENDTAB
  0
TABLE
  2
DIMSTYLE
  5
A
330
0
100
AcDbSymbolTable
 70
     1
100
AcDbDimStyleTable
  0
DIMSTYLE
105
27
330
A
100
AcDbSymbolTableRecord
100
AcDbDimStyleTableRecord
  2
Standard
 70
     0
178
     0
340
11
  0
ENDTAB
  0
TABLE
  2
BLOCK_RECORD
  5
1
330
0
100
AcDbSymbolTable
 70
     1
  0
BLOCK_RECORD
  5
1F
330
1
100
AcDbSymbolTableRecord
100
AcDbBlockTableRecord
  2
*Model_Space
340
22
 70
     0
280
     1
281
     0
  0
BLOCK_RECORD
  5
1B
330
1
100
AcDbSymbolTableRecord
100
AcDbBlockTableRecord
  2
*Paper_Space
340
1E
 70
     0
280
     1
281
     0
  0
BLOCK_RECORD
  5
23
330
1
100
AcDbSymbolTableRecord
100
AcDbBlockTableRecord
  2
*Paper_Space0
340
26
 70
     0
280
     1
281
     0
  0
ENDTAB
  0
ENDSEC
  0
SECTION
  2
BLOCKS
  0
BLOCK
  5
20
330
1F
100
AcDbEntity
  8
0
100
AcDbBlockBegin
  2
*Model_Space
 70
     0
 10
0.0
 20
0.0
 30
0.0
  3
*Model_Space
  1

  0
ENDBLK
  5
21
330
1F
100
AcDbEntity
  8
0
100
AcDbBlockEnd
  0
BLOCK
  5
1C
330
1B
100
AcDbEntity
 67
     1
  8
0
100
AcDbBlockBegin
  2
*Paper_Space
 70
     0
 10
0.0
 20
0.0
 30
0.0
  3
*Paper_Space
  1

  0
ENDBLK
  5
1D
330
1B
100
AcDbEntity
 67
     1
  8
0
100
AcDbBlockEnd
  0
BLOCK
  5
24
330
23
100
AcDbEntity
  8
0
100
AcDbBlockBegin
  2
*Paper_Space0
 70
     0
 10
0.0
 20
0.0
 30
0.0
  3
*Paper_Space0
  1

  0
ENDBLK
  5
25
330
23
100
AcDbEntity
  8
0
100
AcDbBlockEnd
  0
ENDSEC
  0
SECTION
  2
ENTITIES
  0
SPLINE
  5
41
330
1F
100
AcDbEntity
  8
Camada 1
 62
   156
100
AcDbSpline
210
0.0
220
0.0
230
1.0
 70
    11
 71
     3
 72
   376
 73
   372
 74
     0
 42
0.0000000001
 43
0.0000000001
 12
1.0
 22
0.0
 32
0.0
 13
1.0
 23
0.0
 33
0.0
 40
0.0
 40
0.0
 40
0.0
 40
0.0
 40
0.0106382978723404
 40
0.0106382978723404
 40
0.0106382978723404
 40
0.0106382978723404
 40
0.0212765957446809
 40
0.0212765957446809
 40
0.0212765957446809
 40
0.0212765957446809
 40
0.0319148936170213
 40
0.0319148936170213
 40
0.0319148936170213
 40
0.0319148936170213
 40
0.0425531914893617
 40
0.0425531914893617
 40
0.0425531914893617
 40
0.0425531914893617
 40
0.0531914893617021
 40
0.0531914893617021
 40
0.0531914893617021
 40
0.0531914893617021
 40
0.0638297872340425
 40
0.0638297872340425
 40
0.0638297872340425
 40
0.0638297872340425
 40
0.074468085106383
 40
0.074468085106383
 40
0.074468085106383
 40
0.074468085106383
 40
0.0851063829787234
 40
0.0851063829787234
 40
0.0851063829787234
 40
0.0851063829787234
 40
0.0957446808510638
 40
0.0957446808510638
 40
0.0957446808510638
 40
0.0957446808510638
 40
0.1063829787234043
 40
0.1063829787234043
 40
0.1063829787234043
 40
0.1063829787234043
 40
0.1170212765957447
 40
0.1170212765957447
 40
0.1170212765957447
 40
0.1170212765957447
 40
0.1276595744680851
 40
0.1276595744680851
 40
0.1276595744680851
 40
0.1276595744680851
 40
0.1382978723404255
 40
0.1382978723404255
 40
0.1382978723404255
 40
0.1382978723404255
 40
0.148936170212766
 40
0.148936170212766
 40
0.148936170212766
 40
0.148936170212766
 40
0.1595744680851064
 40
0.1595744680851064
 40
0.1595744680851064
 40
0.1595744680851064
 40
0.1702127659574468
 40
0.1702127659574468
 40
0.1702127659574468
 40
0.1702127659574468
 40
0.1808510638297872
 40
0.1808510638297872
 40
0.1808510638297872
 40
0.1808510638297872
 40
0.1914893617021277
 40
0.1914893617021277
 40
0.1914893617021277
 40
0.1914893617021277
 40
0.2021276595744681
 40
0.2021276595744681
 40
0.2021276595744681
 40
0.2021276595744681
 40
0.2127659574468085
 40
0.2127659574468085
 40
0.2127659574468085
 40
0.2127659574468085
 40
0.2234042553191489
 40
0.2234042553191489
 40
0.2234042553191489
 40
0.2234042553191489
 40
0.2340425531914894
 40
0.2340425531914894
 40
0.2340425531914894
 40
0.2340425531914894
 40
0.2446808510638298
 40
0.2446808510638298
 40
0.2446808510638298
 40
0.2446808510638298
 40
0.2553191489361702
 40
0.2553191489361702
 40
0.2553191489361702
 40
0.2553191489361702
 40
0.2659574468085106
 40
0.2659574468085106
 40
0.2659574468085106
 40
0.2659574468085106
 40
0.2765957446808511
 40
0.2765957446808511
 40
0.2765957446808511
 40
0.2765957446808511
 40
0.2872340425531915
 40
0.2872340425531915
 40
0.2872340425531915
 40
0.2872340425531915
 40
0.2978723404255319
 40
0.2978723404255319
 40
0.2978723404255319
 40
0.2978723404255319
 40
0.3085106382978723
 40
0.3085106382978723
 40
0.3085106382978723
 40
0.3085106382978723
 40
0.3191489361702128
 40
0.3191489361702128
 40
0.3191489361702128
 40
0.3191489361702128
 40
0.3297872340425532
 40
0.3297872340425532
 40
0.3297872340425532
 40
0.3297872340425532
 40
0.3404255319148936
 40
0.3404255319148936
 40
0.3404255319148936
 40
0.3404255319148936
 40
0.351063829787234
 40
0.351063829787234
 40
0.351063829787234
 40
0.351063829787234
 40
0.3617021276595745
 40
0.3617021276595745
 40
0.3617021276595745
 40
0.3617021276595745
 40
0.3723404255319149
 40
0.3723404255319149
 40
0.3723404255319149
 40
0.3723404255319149
 40
0.3829787234042553
 40
0.3829787234042553
 40
0.3829787234042553
 40
0.3829787234042553
 40
0.3936170212765958
 40
0.3936170212765958
 40
0.3936170212765958
 40
0.3936170212765958
 40
0.4042553191489361
 40
0.4042553191489361
 40
0.4042553191489361
 40
0.4042553191489361
 40
0.4148936170212766
 40
0.4148936170212766
 40
0.4148936170212766
 40
0.4148936170212766
 40
0.425531914893617
 40
0.425531914893617
 40
0.425531914893617
 40
0.425531914893617
 40
0.4361702127659575
 40
0.4361702127659575
 40
0.4361702127659575
 40
0.4361702127659575
 40
0.4468085106382979
 40
0.4468085106382979
 40
0.4468085106382979
 40
0.4468085106382979
 40
0.4574468085106383
 40
0.4574468085106383
 40
0.4574468085106383
 40
0.4574468085106383
 40
0.4680851063829787
 40
0.4680851063829787
 40
0.4680851063829787
 40
0.4680851063829787
 40
0.4787234042553192
 40
0.4787234042553192
 40
0.4787234042553192
 40
0.4787234042553192
 40
0.4893617021276596
 40
0.4893617021276596
 40
0.4893617021276596
 40
0.4893617021276596
 40
0.5
 40
0.5
 40
0.5
 40
0.5
 40
0.5106382978723404
 40
0.5106382978723404
 40
0.5106382978723404
 40
0.5106382978723404
 40
0.5212765957446809
 40
0.5212765957446809
 40
0.5212765957446809
 40
0.5212765957446809
 40
0.5319148936170213
 40
0.5319148936170213
 40
0.5319148936170213
 40
0.5319148936170213
 40
0.5425531914893617
 40
0.5425531914893617
 40
0.5425531914893617
 40
0.5425531914893617
 40
0.5531914893617021
 40
0.5531914893617021
 40
0.5531914893617021
 40
0.5531914893617021
 40
0.5638297872340425
 40
0.5638297872340425
 40
0.5638297872340425
 40
0.5638297872340425
 40
0.574468085106383
 40
0.574468085106383
 40
0.574468085106383
 40
0.574468085106383
 40
0.5851063829787234
 40
0.5851063829787234
 40
0.5851063829787234
 40
0.5851063829787234
 40
0.5957446808510638
 40
0.5957446808510638
 40
0.5957446808510638
 40
0.5957446808510638
 40
0.6063829787234043
 40
0.6063829787234043
 40
0.6063829787234043
 40
0.6063829787234043
 40
0.6170212765957447
 40
0.6170212765957447
 40
0.6170212765957447
 40
0.6170212765957447
 40
0.6276595744680851
 40
0.6276595744680851
 40
0.6276595744680851
 40
0.6276595744680851
 40
0.6382978723404256
 40
0.6382978723404256
 40
0.6382978723404256
 40
0.6382978723404256
 40
0.648936170212766
 40
0.648936170212766
 40
0.648936170212766
 40
0.648936170212766
 40
0.6595744680851063
 40
0.6595744680851063
 40
0.6595744680851063
 40
0.6595744680851063
 40
0.6702127659574468
 40
0.6702127659574468
 40
0.6702127659574468
 40
0.6702127659574468
 40
0.6808510638297872
 40
0.6808510638297872
 40
0.6808510638297872
 40
0.6808510638297872
 40
0.6914893617021277
 40
0.6914893617021277
 40
0.6914893617021277
 40
0.6914893617021277
 40
0.7021276595744681
 40
0.7021276595744681
 40
0.7021276595744681
 40
0.7021276595744681
 40
0.7127659574468085
 40
0.7127659574468085
 40
0.7127659574468085
 40
0.7127659574468085
 40
0.723404255319149
 40
0.723404255319149
 40
0.723404255319149
 40
0.723404255319149
 40
0.7340425531914894
 40
0.7340425531914894
 40
0.7340425531914894
 40
0.7340425531914894
 40
0.7446808510638298
 40
0.7446808510638298
 40
0.7446808510638298
 40
0.7446808510638298
 40
0.7553191489361702
 40
0.7553191489361702
 40
0.7553191489361702
 40
0.7553191489361702
 40
0.7659574468085106
 40
0.7659574468085106
 40
0.7659574468085106
 40
0.7659574468085106
 40
0.776595744680851
 40
0.776595744680851
 40
0.776595744680851
 40
0.776595744680851
 40
0.7872340425531915
 40
0.7872340425531915
 40
0.7872340425531915
 40
0.7872340425531915
 40
0.7978723404255319
 40
0.7978723404255319
 40
0.7978723404255319
 40
0.7978723404255319
 40
0.8085106382978723
 40
0.8085106382978723
 40
0.8085106382978723
 40
0.8085106382978723
 40
0.8191489361702128
 40
0.8191489361702128
 40
0.8191489361702128
 40
0.8191489361702128
 40
0.8297872340425532
 40
0.8297872340425532
 40
0.8297872340425532
 40
0.8297872340425532
 40
0.8404255319148937
 40
0.8404255319148937
 40
0.8404255319148937
 40
0.8404255319148937
 40
0.851063829787234
 40
0.851063829787234
 40
0.851063829787234
 40
0.851063829787234
 40
0.8617021276595744
 40
0.8617021276595744
 40
0.8617021276595744
 40
0.8617021276595744
 40
0.8723404255319149
 40
0.8723404255319149
 40
0.8723404255319149
 40
0.8723404255319149
 40
0.8829787234042553
 40
0.8829787234042553
 40
0.8829787234042553
 40
0.8829787234042553
 40
0.8936170212765957
 40
0.8936170212765957
 40
0.8936170212765957
 40
0.8936170212765957
 40
0.9042553191489362
 40
0.9042553191489362
 40
0.9042553191489362
 40
0.9042553191489362
 40
0.9148936170212766
 40
0.9148936170212766
 40
0.9148936170212766
 40
0.9148936170212766
 40
0.925531914893617
 40
0.925531914893617
 40
0.925531914893617
 40
0.925531914893617
 40
0.9361702127659575
 40
0.9361702127659575
 40
0.9361702127659575
 40
0.9361702127659575
 40
0.9468085106382979
 40
0.9468085106382979
 40
0.9468085106382979
 40
0.9468085106382979
 40
0.9574468085106383
 40
0.9574468085106383
 40
0.9574468085106383
 40
0.9574468085106383
 40
0.9680851063829787
 40
0.9680851063829787
 40
0.9680851063829787
 40
0.9680851063829787
 40
0.9787234042553191
 40
0.9787234042553191
 40
0.9787234042553191
 40
0.9787234042553191
 40
1.0
 40
1.0
 40
1.0
 40
1.0
 10
1.24142
 20
8.03778
 30
0.0
 10
1.43403
 20
8.12527
 30
0.0
 10
1.66298
 20
8.1221
 30
0.0
 10
1.85596
 20
8.03673
 30
0.0
 10
1.85596
 20
8.03673
 30
0.0
 10
2.04645
 20
7.94606
 30
0.0
 10
2.25459
 20
8.04555
 30
0.0
 10
2.45285
 20
8.00815
 30
0.0
 10
2.45285
 20
8.00815
 30
0.0
 10
2.782
 20
7.96759
 30
0.0
 10
3.07833
 20
7.78414
 30
0.0
 10
3.30305
 20
7.54672
 30
0.0
 10
3.30305
 20
7.54672
 30
0.0
 10
3.49179
 20
7.33893
 30
0.0
 10
3.64418
 20
7.09975
 30
0.0
 10
3.76412
 20
6.84611
 30
0.0
 10
3.76412
 20
6.84611
 30
0.0
 10
3.81105
 20
6.73286
 30
0.0
 10
3.93381
 20
6.68524
 30
0.0
 10
4.01954
 20
6.60621
 30
0.0
 10
4.01954
 20
6.60621
 30
0.0
 10
4.53602
 20
6.16947
 30
0.0
 10
4.98932
 20
5.60785
 30
0.0
 10
5.13608
 20
4.9337
 30
0.0
 10
5.13608
 20
4.9337
 30
0.0
 10
5.18617
 20
4.73614
 30
0.0
 10
5.17031
 20
4.53118
 30
0.0
 10
5.17277
 20
4.32974
 30
0.0
 10
5.17277
 20
4.32974
 30
0.0
 10
5.42854
 20
3.79528
 30
0.0
 10
5.6268
 20
3.22553
 30
0.0
 10
5.69453
 20
2.63394
 30
0.0
 10
5.69453
 20
2.63394
 30
0.0
 10
5.69806
 20
2.59231
 30
0.0
 10
5.7083
 20
2.55245
 30
0.0
 10
5.72523
 20
2.51398
 30
0.0
 10
5.72523
 20
2.51398
 30
0.0
 10
5.75944
 20
2.12841
 30
0.0
 10
5.70299
 20
1.74035
 30
0.0
 10
5.57035
 20
1.37735
 30
0.0
 10
5.57035
 20
1.37735
 30
0.0
 10
5.65467
 20
1.14733
 30
0.0
 10
5.66666
 20
0.90144
 30
0.0
 10
5.69066
 20
0.66014
 30
0.0
 10
5.69066
 20
0.66014
 30
0.0
 10
5.70864
 20
0.13733
 30
0.0
 10
5.71251
 20
-0.41265
 30
0.0
 10
5.48111
 20
-0.89489
 30
0.0
 10
5.48111
 20
-0.89489
 30
0.0
 10
5.42254
 20
-1.0293
 30
0.0
 10
5.32095
 20
-1.13584
 30
0.0
 10
5.22886
 20
-1.24731
 30
0.0
 10
5.22886
 20
-1.24731
 30
0.0
 10
5.12585
 20
-1.36761
 30
0.0
 10
5.18546
 20
-1.53342
 30
0.0
 10
5.16149
 20
-1.67595
 30
0.0
 10
5.16149
 20
-1.67595
 30
0.0
 10
5.1188
 20
-2.02907
 30
0.0
 10
4.97204
 20
-2.421
 30
0.0
 10
4.62843
 20
-2.58082
 30
0.0
 10
4.62843
 20
-2.58082
 30
0.0
 10
4.41147
 20
-2.69265
 30
0.0
 10
4.16382
 20
-2.65771
 30
0.0
 10
3.92994
 20
-2.65666
 30
0.0
 10
3.92994
 20
-2.65666
 30
0.0
 10
3.8174
 20
-2.68559
 30
0.0
 10
3.72709
 20
-2.76778
 30
0.0
 10
3.61526
 20
-2.79848
 30
0.0
 10
3.61526
 20
-2.79848
 30
0.0
 10
3.32634
 20
-2.89162
 30
0.0
 10
3.018
 20
-2.7872
 30
0.0
 10
2.75836
 20
-2.65666
 30
0.0
 10
2.75836
 20
-2.65666
 30
0.0
 10
2.36819
 20
-2.4591
 30
0.0
 10
2.02528
 20
-2.17688
 30
0.0
 10
1.73107
 20
-1.85514
 30
0.0
 10
1.73107
 20
-1.85514
 30
0.0
 10
1.62029
 20
-1.76626
 30
0.0
 10
1.48978
 20
-1.70099
 30
0.0
 10
1.3977
 20
-1.58917
 30
0.0
 10
1.3977
 20
-1.58917
 30
0.0
 10
0.97647
 20
-1.12103
 30
0.0
 10
0.65792
 20
-0.57316
 30
0.0
 10
0.33619
 20
-0.03517
 30
0.0
 10
0.33619
 20
-0.03517
 30
0.0
 10
0.30726
 20
0.02232
 30
0.0
 10
0.22611
 20
-0.02565
 30
0.0
 10
0.17709
 20
-0.00942
 30
0.0
 10
0.17709
 20
-0.00942
 30
0.0
 10
-0.33584
 20
0.18072
 30
0.0
 10
-0.89358
 20
0.15497
 30
0.0
 10
-1.43193
 20
0.17295
 30
0.0
 10
-1.43193
 20
0.17295
 30
0.0
 10
-2.67652
 20
0.17895
 30
0.0
 10
-3.91936
 20
0.09675
 30
0.0
 10
-5.16044
 20
0.00539
 30
0.0
 10
-5.16044
 20
0.00539
 30
0.0
 10
-5.20912
 20
-0.07715
 30
0.0
 10
-5.20206
 20
-0.17346
 30
0.0
 10
-5.20417
 20
-0.26554
 30
0.0
 10
-5.20417
 20
-0.26554
 30
0.0
 10
-5.08918
 20
-0.33856
 30
0.0
 10
-4.95194
 20
-0.42076
 30
0.0
 10
-4.93854
 20
-0.5714
 30
0.0
 10
-4.93854
 20
-0.5714
 30
0.0
 10
-4.94417
 20
-0.74426
 30
0.0
 10
-5.07646
 20
-0.87479
 30
0.0
 10
-5.1876
 20
-0.99261
 30
0.0
 10
-5.1876
 20
-0.99261
 30
0.0
 10
-5.08141
 20
-1.1242
 30
0.0
 10
-4.90185
 20
-1.20216
 30
0.0
 10
-4.73357
 20
-1.16406
 30
0.0
 10
-4.73357
 20
-1.16406
 30
0.0
 10
-4.3808
 20
-1.09421
 30
0.0
 10
-4.10104
 20
-0.85255
 30
0.0
 10
-3.77966
 20
-0.70862
 30
0.0
 10
-3.77966
 20
-0.70862
 30
0.0
 10
-3.66606
 20
-0.64371
 30
0.0
 10
-3.52319
 20
-0.71814
 30
0.0
 10
-3.41489
 20
-0.64125
 30
0.0
 10
-3.41489
 20
-0.64125
 30
0.0
 10
-3.20004
 20
-0.51777
 30
0.0
 10
-2.94216
 20
-0.52623
 30
0.0
 10
-2.70333
 20
-0.54353
 30
0.0
 10
-2.70333
 20
-0.54353
 30
0.0
 10
-2.50754
 20
-0.55622
 30
0.0
 10
-2.32375
 20
-0.62714
 30
0.0
 10
-2.13571
 20
-0.67582
 30
0.0
 10
-2.13571
 20
-0.67582
 30
0.0
 10
-1.93498
 20
-0.6289
 30
0.0
 10
-1.71204
 20
-0.59009
 30
0.0
 10
-1.52013
 20
-0.68993
 30
0.0
 10
-1.52013
 20
-0.68993
 30
0.0
 10
-1.33563
 20
-0.79294
 30
0.0
 10
-1.24953
 20
-1.0046
 30
0.0
 10
-1.22697
 20
-1.20569
 30
0.0
 10
-1.22697
 20
-1.20569
 30
0.0
 10
-1.19415
 20
-1.43605
 30
0.0
 10
-1.28059
 20
-1.70628
 30
0.0
 10
-1.50529
 20
-1.80824
 30
0.0
 10
-1.50529
 20
-1.80824
 30
0.0
 10
-1.8302
 20
-1.9698
 30
0.0
 10
-2.32587
 20
-1.85904
 30
0.0
 10
-2.4518
 20
-1.48862
 30
0.0
 10
-2.4518
 20
-1.48862
 30
0.0
 10
-2.51107
 20
-1.34963
 30
0.0
 10
-2.4832
 20
-1.19687
 30
0.0
 10
-2.49943
 20
-1.05118
 30
0.0
 10
-2.49943
 20
-1.05118
 30
0.0
 10
-2.63983
 20
-0.93263
 30
0.0
 10
-2.83739
 20
-0.96757
 30
0.0
 10
-3.00109
 20
-1.00496
 30
0.0
 10
-3.00109
 20
-1.00496
 30
0.0
 10
-3.10656
 20
-1.15207
 30
0.0
 10
-3.29072
 20
-1.21768
 30
0.0
 10
-3.46499
 20
-1.23461
 30
0.0
 10
-3.46499
 20
-1.23461
 30
0.0
 10
-3.98392
 20
-1.6202
 30
0.0
 10
-4.66266
 20
-1.89113
 30
0.0
 10
-5.31071
 20
-1.71403
 30
0.0
 10
-5.31071
 20
-1.71403
 30
0.0
 10
-5.32518
 20
-1.73379
 30
0.0
 10
-5.3534
 20
-1.77331
 30
0.0
 10
-5.36751
 20
-1.79306
 30
0.0
 10
-5.36751
 20
-1.79306
 30
0.0
 10
-5.26415
 20
-1.88973
 30
0.0
 10
-5.16149
 20
-2.01321
 30
0.0
 10
-5.17102
 20
-2.16382
 30
0.0
 10
-5.17102
 20
-2.16382
 30
0.0
 10
-5.1763
 20
-2.38114
 30
0.0
 10
-5.15796
 20
-2.61751
 30
0.0
 10
-5.01933
 20
-2.79531
 30
0.0
 10
-5.01933
 20
-2.79531
 30
0.0
 10
-4.94524
 20
-2.83059
 30
0.0
 10
-4.88138
 20
-2.76496
 30
0.0
 10
-4.81719
 20
-2.73709
 30
0.0
 10
-4.81719
 20
-2.73709
 30
0.0
 10
-4.43654
 20
-2.5413
 30
0.0
 10
-4.02978
 20
-2.38714
 30
0.0
 10
-3.60432
 20
-2.32647
 30
0.0
 10
-3.60432
 20
-2.32647
 30
0.0
 10
-2.93299
 20
-2.22346
 30
0.0
 10
-2.25285
 20
-2.14019
 30
0.0
 10
-1.57304
 20
-2.19523
 30
0.0
 10
-1.57304
 20
-2.19523
 30
0.0
 10
-1.28023
 20
-2.19418
 30
0.0
 10
-0.98777
 20
-2.21886
 30
0.0
 10
-0.69709
 20
-2.25309
 30
0.0
 10
-0.69709
 20
-2.25309
 30
0.0
 10
-0.38417
 20
-2.30177
 30
0.0
 10
-0.05115
 20
-2.36068
 30
0.0
 10
0.19473
 20
-2.57729
 30
0.0
 10
0.19473
 20
-2.57729
 30
0.0
 10
0.29316
 20
-2.64821
 30
0.0
 10
0.32525
 20
-2.77061
 30
0.0
 10
0.39758
 20
-2.86268
 30
0.0
 10
0.39758
 20
-2.86268
 30
0.0
 10
0.52951
 20
-2.88738
 30
0.0
 10
0.66004
 20
-2.91913
 30
0.0
 10
0.7888
 20
-2.95828
 30
0.0
 10
0.7888
 20
-2.95828
 30
0.0
 10
0.90487
 20
-2.78895
 30
0.0
 10
1.00083
 20
-2.59034
 30
0.0
 10
1.18814
 20
-2.48698
 30
0.0
 10
1.18814
 20
-2.48698
 30
0.0
 10
1.26471
 20
-2.43371
 30
0.0
 10
1.37971
 20
-2.41783
 30
0.0
 10
1.44955
 20
-2.49156
 30
0.0
 10
1.44955
 20
-2.49156
 30
0.0
 10
1.54974
 20
-2.57553
 30
0.0
 10
1.52893
 20
-2.72086
 30
0.0
 10
1.49577
 20
-2.83271
 30
0.0
 10
1.49577
 20
-2.83271
 30
0.0
 10
1.43756
 20
-2.88173
 30
0.0
 10
1.37476
 20
-2.92478
 30
0.0
 10
1.31091
 20
-2.96571
 30
0.0
 10
1.31091
 20
-2.96571
 30
0.0
 10
1.38217
 20
-2.98474
 30
0.0
 10
1.49294
 20
-2.96076
 30
0.0
 10
1.52788
 20
-3.04472
 30
0.0
 10
1.52788
 20
-3.04472
 30
0.0
 10
1.54021
 20
-3.13538
 30
0.0
 10
1.53916
 20
-3.2271
 30
0.0
 10
1.53492
 20
-3.31848
 30
0.0
 10
1.53492
 20
-3.31848
 30
0.0
 10
1.37617
 20
-3.38268
 30
0.0
 10
1.21108
 20
-3.43136
 30
0.0
 10
1.05621
 20
-3.50474
 30
0.0
 10
1.05621
 20
-3.50474
 30
0.0
 10
1.08654
 20
-4.16725
 30
0.0
 10
1.10455
 20
-4.83012
 30
0.0
 10
1.14652
 20
-5.49229
 30
0.0
 10
1.14652
 20
-5.49229
 30
0.0
 10
1.23577
 20
-5.4736
 30
0.0
 10
1.32715
 20
-5.46795
 30
0.0
 10
1.41781
 20
-5.48171
 30
0.0
 10
1.41781
 20
-5.48171
 30
0.0
 10
1.43544
 20
-5.51592
 30
0.0
 10
1.45379
 20
-5.55049
 30
0.0
 10
1.47214
 20
-5.58508
 30
0.0
 10
1.47214
 20
-5.58508
 30
0.0
 10
1.54869
 20
-5.59283
 30
0.0
 10
1.62489
 20
-5.60694
 30
0.0
 10
1.69967
 20
-5.62599
 30
0.0
 10
1.69967
 20
-5.62599
 30
0.0
 10
1.71979
 20
-5.67257
 30
0.0
 10
1.73989
 20
-5.71913
 30
0.0
 10
1.75965
 20
-5.76605
 30
0.0
 10
1.75965
 20
-5.76605
 30
0.0
 10
1.79527
 20
-5.75723
 30
0.0
 10
1.83125
 20
-5.74876
 30
0.0
 10
1.86724
 20
-5.73994
 30
0.0
 10
1.86724
 20
-5.73994
 30
0.0
 10
1.99036
 20
-5.76569
 30
0.0
 10
2.06938
 20
-5.86835
 30
0.0
 10
2.16887
 20
-5.93574
 30
0.0
 10
2.16887
 20
-5.93574
 30
0.0
 10
2.16817
 20
-5.99217
 30
0.0
 10
2.1678
 20
-6.04898
 30
0.0
 10
2.1678
 20
-6.10577
 30
0.0
 10
2.1678
 20
-6.10577
 30
0.0
 10
0.88194
 20
-6.76723
 30
0.0
 10
-0.41275
 20
-7.4121
 30
0.0
 10
-1.70285
 20
-8.06581
 30
0.0
 10
-1.70285
 20
-8.06581
 30
0.0
 10
-1.76988
 20
-8.10813
 30
0.0
 10
-1.85067
 20
-8.11096
 30
0.0
 10
-1.92475
 20
-8.08698
 30
0.0
 10
-1.92475
 20
-8.08698
 30
0.0
 10
-3.39831
 20
-7.62801
 30
0.0
 10
-4.8761
 20
-7.1835
 30
0.0
 10
-6.34894
 20
-6.72348
 30
0.0
 10
-6.34894
 20
-6.72348
 30
0.0
 10
-6.3634
 20
-6.65329
 30
0.0
 10
-6.40115
 20
-6.5799
 30
0.0
 10
-6.37011
 20
-6.509
 30
0.0
 10
-6.37011
 20
-6.509
 30
0.0
 10
-6.33835
 20
-6.44832
 30
0.0
 10
-6.26674
 20
-6.46842
 30
0.0
 10
-6.21136
 20
-6.46137
 30
0.0
 10
-6.21136
 20
-6.46137
 30
0.0
 10
-6.20713
 20
-6.37106
 30
0.0
 10
-6.11011
 20
-6.37106
 30
0.0
 10
-6.04521
 20
-6.34919
 30
0.0
 10
-6.04521
 20
-6.34919
 30
0.0
 10
-6.04379
 20
-6.24053
 30
0.0
 10
-5.94924
 20
-6.1848
 30
0.0
 10
-5.86069
 20
-6.14811
 30
0.0
 10
-5.86069
 20
-6.14811
 30
0.0
 10
-5.818
 20
-6.06803
 30
0.0
 10
-5.72418
 20
-6.00452
 30
0.0
 10
-5.73829
 20
-5.90434
 30
0.0
 10
-5.73829
 20
-5.90434
 30
0.0
 10
-5.76615
 20
-5.44397
 30
0.0
 10
-5.79826
 20
-4.98358
 30
0.0
 10
-5.818
 20
-4.52285
 30
0.0
 10
-5.818
 20
-4.52285
 30
0.0
 10
-5.82682
 20
-4.33518
 30
0.0
 10
-5.87445
 20
-4.14186
 30
0.0
 10
-5.80848
 20
-3.95948
 30
0.0
 10
-5.80848
 20
-3.95948
 30
0.0
 10
-5.9482
 20
-3.87304
 30
0.0
 10
-6.13728
 20
-3.88539
 30
0.0
 10
-6.26957
 20
-3.78097
 30
0.0
 10
-6.26957
 20
-3.78097
 30
0.0
 10
-6.26358
 20
-3.73617
 30
0.0
 10
-6.24945
 20
-3.69383
 30
0.0
 10
-6.23712
 20
-3.65114
 30
0.0
 10
-6.23712
 20
-3.65114
 30
0.0
 10
-5.9556
 20
-3.54178
 30
0.0
 10
-5.67231
 20
-3.43453
 30
0.0
 10
-5.3975
 20
-3.30896
 30
0.0
 10
-5.3975
 20
-3.30896
 30
0.0
 10
-5.43842
 20
-3.21053
 30
0.0
 10
-5.50791
 20
-3.12514
 30
0.0
 10
-5.53297
 20
-3.02038
 30
0.0
 10
-5.53297
 20
-3.02038
 30
0.0
 10
-5.60071
 20
-2.72546
 30
0.0
 10
-5.60141
 20
-2.40796
 30
0.0
 10
-5.74464
 20
-2.13526
 30
0.0
 10
-5.74464
 20
-2.13526
 30
0.0
 10
-5.81025
 20
-1.98709
 30
0.0
 10
-6.00075
 20
-1.96945
 30
0.0
 10
-6.07554
 20
-1.82975
 30
0.0
 10
-6.07554
 20
-1.82975
 30
0.0
 10
-6.21595
 20
-1.58705
 30
0.0
 10
-6.229
 20
-1.29141
 30
0.0
 10
-6.20606
 20
-1.01837
 30
0.0
 10
-6.20606
 20
-1.01837
 30
0.0
 10
-6.17714
 20
-0.85043
 30
0.0
 10
-6.27415
 20
-0.68252
 30
0.0
 10
-6.217
 20
-0.51707
 30
0.0
 10
-6.217
 20
-0.51707
 30
0.0
 10
-6.15915
 20
-0.36361
 30
0.0
 10
-6.01875
 20
-0.26272
 30
0.0
 10
-5.88327
 20
-0.18122
 30
0.0
 10
-5.88327
 20
-0.18122
 30
0.0
 10
-5.95911
 20
0.04349
 30
0.0
 10
-5.94749
 20
0.2862
 30
0.0
 10
-5.94783
 20
0.52008
 30
0.0
 10
-5.94783
 20
0.52008
 30
0.0
 10
-5.95841
 20
0.62803
 30
0.0
 10
-5.85399
 20
0.68519
 30
0.0
 10
-5.7711
 20
0.72505
 30
0.0
 10
-5.7711
 20
0.72505
 30
0.0
 10
-4.81329
 20
1.14098
 30
0.0
 10
-3.87879
 20
1.61123
 30
0.0
 10
-2.97463
 20
2.13404
 30
0.0
 10
-2.97463
 20
2.13404
 30
0.0
 10
-2.13289
 20
2.63429
 30
0.0
 10
-1.29716
 20
3.17298
 30
0.0
 10
-0.61913
 20
3.8877
 30
0.0
 10
-0.61913
 20
3.8877
 30
0.0
 10
-0.68757
 20
4.11561
 30
0.0
 10
-0.72178
 20
4.37418
 30
0.0
 10
-0.60113
 20
4.5915
 30
0.0
 10
-0.60113
 20
4.5915
 30
0.0
 10
-0.55739
 20
4.68993
 30
0.0
 10
-0.44415
 20
4.77001
 30
0.0
 10
-0.47802
 20
4.88924
 30
0.0
 10
-0.47802
 20
4.88924
 30
0.0
 10
-0.54892
 20
5.57574
 30
0.0
 10
-0.35947
 20
6.29365
 30
0.0
 10
0.07866
 20
6.832
 30
0.0
 10
0.07866
 20
6.832
 30
0.0
 10
0.16016
 20
6.94241
 30
0.0
 10
0.27622
 20
7.02637
 30
0.0
 10
0.33689
 20
7.15196
 30
0.0
 10
0.33689
 20
7.15196
 30
0.0
 10
0.53128
 20
7.53225
 30
0.0
 10
0.82795
 20
7.89068
 30
0.0
 10
1.24142
 20
8.03778
 30
0.0
  0
SPLINE
  5
42
330
1F
100
AcDbEntity
  8
Camada 1
 62
   156
100
AcDbSpline
210
0.0
220
0.0
230
1.0
 70
    11
 71
     3
 72
    88
 73
    84
 74
     0
 42
0.0000000001
 43
0.0000000001
 12
1.0
 22
0.0
 32
0.0
 13
1.0
 23
0.0
 33
0.0
 40
0.0
 40
0.0
 40
0.0
 40
0.0
 40
0.0454545454545455
 40
0.0454545454545455
 40
0.0454545454545455
 40
0.0454545454545455
 40
0.0909090909090909
 40
0.0909090909090909
 40
0.0909090909090909
 40
0.0909090909090909
 40
0.1363636363636364
 40
0.1363636363636364
 40
0.1363636363636364
 40
0.1363636363636364
 40
0.1818181818181818
 40
0.1818181818181818
 40
0.1818181818181818
 40
0.1818181818181818
 40
0.2272727272727273
 40
0.2272727272727273
 40
0.2272727272727273
 40
0.2272727272727273
 40
0.2727272727272727
 40
0.2727272727272727
 40
0.2727272727272727
 40
0.2727272727272727
 40
0.3181818181818182
 40
0.3181818181818182
 40
0.3181818181818182
 40
0.3181818181818182
 40
0.3636363636363636
 40
0.3636363636363636
 40
0.3636363636363636
 40
0.3636363636363636
 40
0.4090909090909091
 40
0.4090909090909091
 40
0.4090909090909091
 40
0.4090909090909091
 40
0.4545454545454545
 40
0.4545454545454545
 40
0.4545454545454545
 40
0.4545454545454545
 40
0.5
 40
0.5
 40
0.5
 40
0.5
 40
0.5454545454545454
 40
0.5454545454545454
 40
0.5454545454545454
 40
0.5454545454545454
 40
0.5909090909090909
 40
0.5909090909090909
 40
0.5909090909090909
 40
0.5909090909090909
 40
0.6363636363636364
 40
0.6363636363636364
 40
0.6363636363636364
 40
0.6363636363636364
 40
0.6818181818181818
 40
0.6818181818181818
 40
0.6818181818181818
 40
0.6818181818181818
 40
0.7272727272727273
 40
0.7272727272727273
 40
0.7272727272727273
 40
0.7272727272727273
 40
0.7727272727272727
 40
0.7727272727272727
 40
0.7727272727272727
 40
0.7727272727272727
 40
0.8181818181818182
 40
0.8181818181818182
 40
0.8181818181818182
 40
0.8181818181818182
 40
0.8636363636363636
 40
0.8636363636363636
 40
0.8636363636363636
 40
0.8636363636363636
 40
0.9090909090909091
 40
0.9090909090909091
 40
0.9090909090909091
 40
0.9090909090909091
 40
1.0
 40
1.0
 40
1.0
 40
1.0
 10
1.59242
 20
7.64478
 30
0.0
 10
1.59242
 20
7.64478
 30
0.0
 10
1.59242
 20
7.64478
 30
0.0
 10
1.59242
 20
7.64478
 30
0.0
 10
1.59242
 20
7.64478
 30
0.0
 10
1.63793
 20
7.53366
 30
0.0
 10
1.68733
 20
7.40737
 30
0.0
 10
1.64005
 20
7.28813
 30
0.0
 10
1.64005
 20
7.28813
 30
0.0
 10
1.58396
 20
7.10821
 30
0.0
 10
1.36594
 20
7.02038
 30
0.0
 10
1.19238
 20
7.06377
 30
0.0
 10
1.19238
 20
7.06377
 30
0.0
 10
1.03821
 20
7.1008
 30
0.0
 10
1.00999
 20
7.35798
 30
0.0
 10
1.16027
 20
7.41548
 30
0.0
 10
1.16027
 20
7.41548
 30
0.0
 10
1.22519
 20
7.44405
 30
0.0
 10
1.27387
 20
7.38762
 30
0.0
 10
1.30986
 20
7.34141
 30
0.0
 10
1.30986
 20
7.34141
 30
0.0
 10
1.36102
 20
7.34492
 30
0.0
 10
1.40652
 20
7.36645
 30
0.0
 10
1.45097
 20
7.39079
 30
0.0
 10
1.45097
 20
7.39079
 30
0.0
 10
1.42451
 20
7.52873
 30
0.0
 10
1.28305
 20
7.6268
 30
0.0
 10
1.14511
 20
7.5961
 30
0.0
 10
1.14511
 20
7.5961
 30
0.0
 10
0.9906
 20
7.54143
 30
0.0
 10
0.86854
 20
7.38726
 30
0.0
 10
0.86993
 20
7.2204
 30
0.0
 10
0.86993
 20
7.2204
 30
0.0
 10
0.8777
 20
7.07894
 30
0.0
 10
0.9659
 20
6.95686
 30
0.0
 10
1.07173
 20
6.86903
 30
0.0
 10
1.07173
 20
6.86903
 30
0.0
 10
1.21671
 20
6.7505
 30
0.0
 10
1.2633
 20
6.55365
 30
0.0
 10
1.27669
 20
6.37514
 30
0.0
 10
1.27669
 20
6.37514
 30
0.0
 10
1.27987
 20
6.20721
 30
0.0
 10
1.25411
 20
5.99203
 30
0.0
 10
1.07772
 20
5.91758
 30
0.0
 10
1.07772
 20
5.91758
 30
0.0
 10
1.00541
 20
5.9504
 30
0.0
 10
0.9024
 20
5.97791
 30
0.0
 10
0.92533
 20
6.07881
 30
0.0
 10
0.92533
 20
6.07881
 30
0.0
 10
0.98283
 20
6.12644
 30
0.0
 10
1.03962
 20
6.18075
 30
0.0
 10
1.04561
 20
6.26013
 30
0.0
 10
1.04561
 20
6.26013
 30
0.0
 10
0.97895
 20
6.31517
 30
0.0
 10
0.87911
 20
6.34939
 30
0.0
 10
0.80432
 20
6.2873
 30
0.0
 10
0.80432
 20
6.2873
 30
0.0
 10
0.71613
 20
6.20475
 30
0.0
 10
0.66886
 20
6.06717
 30
0.0
 10
0.71401
 20
5.95111
 30
0.0
 10
0.71401
 20
5.95111
 30
0.0
 10
0.82937
 20
5.74156
 30
0.0
 10
1.17369
 20
5.67524
 30
0.0
 10
1.3282
 20
5.87526
 30
0.0
 10
1.3282
 20
5.87526
 30
0.0
 10
1.4552
 20
6.0527
 30
0.0
 10
1.47884
 20
6.28659
 30
0.0
 10
1.44709
 20
6.49721
 30
0.0
 10
1.44709
 20
6.49721
 30
0.0
 10
1.43121
 20
6.60833
 30
0.0
 10
1.36947
 20
6.71664
 30
0.0
 10
1.38923
 20
6.83058
 30
0.0
 10
1.38923
 20
6.83058
 30
0.0
 10
1.50423
 20
6.91384
 30
0.0
 10
1.64041
 20
6.97487
 30
0.0
 10
1.72295
 20
7.09551
 30
0.0
 10
1.72295
 20
7.09551
 30
0.0
 10
1.83761
 20
7.23769
 30
0.0
 10
1.85137
 20
7.42571
 30
0.0
 10
1.86689
 20
7.60034
 30
0.0
 10
1.86689
 20
7.60034
 30
0.0
 10
1.77834
 20
7.62997
 30
0.0
 10
1.68592
 20
7.64549
 30
0.0
 10
1.59242
 20
7.64478
 30
0.0
  0
SPLINE
  5
43
330
1F
100
AcDbEntity
  8
Camada 1
 62
   156
100
AcDbSpline
210
0.0
220
0.0
230
1.0
 70
    11
 71
     3
 72
    72
 73
    68
 74
     0
 42
0.0000000001
 43
0.0000000001
 12
1.0
 22
0.0
 32
0.0
 13
1.0
 23
0.0
 33
0.0
 40
0.0
 40
0.0
 40
0.0
 40
0.0
 40
0.0555555555555556
 40
0.0555555555555556
 40
0.0555555555555556
 40
0.0555555555555556
 40
0.1111111111111111
 40
0.1111111111111111
 40
0.1111111111111111
 40
0.1111111111111111
 40
0.1666666666666667
 40
0.1666666666666667
 40
0.1666666666666667
 40
0.1666666666666667
 40
0.2222222222222222
 40
0.2222222222222222
 40
0.2222222222222222
 40
0.2222222222222222
 40
0.2777777777777778
 40
0.2777777777777778
 40
0.2777777777777778
 40
0.2777777777777778
 40
0.3333333333333333
 40
0.3333333333333333
 40
0.3333333333333333
 40
0.3333333333333333
 40
0.3888888888888889
 40
0.3888888888888889
 40
0.3888888888888889
 40
0.3888888888888889
 40
0.4444444444444444
 40
0.4444444444444444
 40
0.4444444444444444
 40
0.4444444444444444
 40
0.5
 40
0.5
 40
0.5
 40
0.5
 40
0.5555555555555556
 40
0.5555555555555556
 40
0.5555555555555556
 40
0.5555555555555556
 40
0.6111111111111112
 40
0.6111111111111112
 40
0.6111111111111112
 40
0.6111111111111112
 40
0.6666666666666666
 40
0.6666666666666666
 40
0.6666666666666666
 40
0.6666666666666666
 40
0.7222222222222222
 40
0.7222222222222222
 40
0.7222222222222222
 40
0.7222222222222222
 40
0.7777777777777778
 40
0.7777777777777778
 40
0.7777777777777778
 40
0.7777777777777778
 40
0.8333333333333334
 40
0.8333333333333334
 40
0.8333333333333334
 40
0.8333333333333334
 40
0.8888888888888888
 40
0.8888888888888888
 40
0.8888888888888888
 40
0.8888888888888888
 40
1.0
 40
1.0
 40
1.0
 40
1.0
 10
2.08455
 20
7.57247
 30
0.0
 10
2.08455
 20
7.57247
 30
0.0
 10
2.08455
 20
7.57247
 30
0.0
 10
2.08455
 20
7.57247
 30
0.0
 10
2.08455
 20
7.57247
 30
0.0
 10
2.06375
 20
7.44089
 30
0.0
 10
2.03692
 20
7.31001
 30
0.0
 10
2.01012
 20
7.17913
 30
0.0
 10
2.01012
 20
7.17913
 30
0.0
 10
2.04752
 20
7.16643
 30
0.0
 10
2.08526
 20
7.15513
 30
0.0
 10
2.12371
 20
7.1456
 30
0.0
 10
2.12371
 20
7.1456
 30
0.0
 10
2.34102
 20
7.33081
 30
0.0
 10
2.70579
 20
7.27156
 30
0.0
 10
2.8649
 20
7.03943
 30
0.0
 10
2.8649
 20
7.03943
 30
0.0
 10
2.95839
 20
6.87256
 30
0.0
 10
2.94321
 20
6.6616
 30
0.0
 10
2.86278
 20
6.49262
 30
0.0
 10
2.86278
 20
6.49262
 30
0.0
 10
2.74036
 20
6.312
 30
0.0
 10
2.52058
 20
6.24249
 30
0.0
 10
2.35089
 20
6.11868
 30
0.0
 10
2.35089
 20
6.11868
 30
0.0
 10
2.17382
 20
5.94545
 30
0.0
 10
2.31033
 20
5.6089
 30
0.0
 10
2.52623
 20
5.53377
 30
0.0
 10
2.52623
 20
5.53377
 30
0.0
 10
2.68781
 20
5.49885
 30
0.0
 10
2.82468
 20
5.64666
 30
0.0
 10
2.85572
 20
5.79447
 30
0.0
 10
2.85572
 20
5.79447
 30
0.0
 10
2.81233
 20
5.84561
 30
0.0
 10
2.7693
 20
5.89677
 30
0.0
 10
2.72732
 20
5.94864
 30
0.0
 10
2.72732
 20
5.94864
 30
0.0
 10
2.75307
 20
5.98638
 30
0.0
 10
2.77883
 20
6.02448
 30
0.0
 10
2.80458
 20
6.06259
 30
0.0
 10
2.80458
 20
6.06259
 30
0.0
 10
2.88147
 20
6.06293
 30
0.0
 10
2.96896
 20
6.06223
 30
0.0
 10
3.02048
 20
5.99415
 30
0.0
 10
3.02048
 20
5.99415
 30
0.0
 10
3.12666
 20
5.86961
 30
0.0
 10
3.0734
 20
5.69534
 30
0.0
 10
3.01871
 20
5.56058
 30
0.0
 10
3.01871
 20
5.56058
 30
0.0
 10
3.06704
 20
5.59268
 30
0.0
 10
3.12137
 20
5.61984
 30
0.0
 10
3.15629
 20
5.66852
 30
0.0
 10
3.15629
 20
5.66852
 30
0.0
 10
3.32634
 20
5.87526
 30
0.0
 10
3.47839
 20
6.0968
 30
0.0
 10
3.61207
 20
6.32893
 30
0.0
 10
3.61207
 20
6.32893
 30
0.0
 10
3.46816
 20
6.62173
 30
0.0
 10
3.29952
 20
6.90395
 30
0.0
 10
3.08892
 20
7.15442
 30
0.0
 10
3.08892
 20
7.15442
 30
0.0
 10
2.94428
 20
7.32306
 30
0.0
 10
2.76436
 20
7.47404
 30
0.0
 10
2.54458
 20
7.52979
 30
0.0
 10
2.54458
 20
7.52979
 30
0.0
 10
2.39289
 20
7.55871
 30
0.0
 10
2.23836
 20
7.56506
 30
0.0
 10
2.08455
 20
7.57247
 30
0.0
  0
SPLINE
  5
44
330
1F
100
AcDbEntity
  8
Camada 1
 62
   156
100
AcDbSpline
210
0.0
220
0.0
230
1.0
 70
    11
 71
     3
 72
    52
 73
    48
 74
     0
 42
0.0000000001
 43
0.0000000001
 12
1.0
 22
0.0
 32
0.0
 13
1.0
 23
0.0
 33
0.0
 40
0.0
 40
0.0
 40
0.0
 40
0.0
 40
0.0769230769230769
 40
0.0769230769230769
 40
0.0769230769230769
 40
0.0769230769230769
 40
0.1538461538461539
 40
0.1538461538461539
 40
0.1538461538461539
 40
0.1538461538461539
 40
0.2307692307692308
 40
0.2307692307692308
 40
0.2307692307692308
 40
0.2307692307692308
 40
0.3076923076923077
 40
0.3076923076923077
 40
0.3076923076923077
 40
0.3076923076923077
 40
0.3846153846153846
 40
0.3846153846153846
 40
0.3846153846153846
 40
0.3846153846153846
 40
0.4615384615384616
 40
0.4615384615384616
 40
0.4615384615384616
 40
0.4615384615384616
 40
0.5384615384615384
 40
0.5384615384615384
 40
0.5384615384615384
 40
0.5384615384615384
 40
0.6153846153846154
 40
0.6153846153846154
 40
0.6153846153846154
 40
0.6153846153846154
 40
0.6923076923076923
 40
0.6923076923076923
 40
0.6923076923076923
 40
0.6923076923076923
 40
0.7692307692307693
 40
0.7692307692307693
 40
0.7692307692307693
 40
0.7692307692307693
 40
0.8461538461538461
 40
0.8461538461538461
 40
0.8461538461538461
 40
0.8461538461538461
 40
1.0
 40
1.0
 40
1.0
 40
1.0
 10
2.35267
 20
6.96322
 30
0.0
 10
2.35267
 20
6.96322
 30
0.0
 10
2.35267
 20
6.96322
 30
0.0
 10
2.35267
 20
6.96322
 30
0.0
 10
2.35267
 20
6.96322
 30
0.0
 10
2.28776
 20
6.88526
 30
0.0
 10
2.37136
 20
6.80165
 30
0.0
 10
2.401
 20
6.72722
 30
0.0
 10
2.401
 20
6.72722
 30
0.0
 10
2.39394
 20
6.70641
 30
0.0
 10
2.37983
 20
6.66548
 30
0.0
 10
2.37243
 20
6.64467
 30
0.0
 10
2.37243
 20
6.64467
 30
0.0
 10
2.19638
 20
6.60833
 30
0.0
 10
2.0655
 20
6.76778
 30
0.0
 10
1.94768
 20
6.87291
 30
0.0
 10
1.94768
 20
6.87291
 30
0.0
 10
1.77411
 20
6.37127
 30
0.0
 10
1.67604
 20
5.79482
 30
0.0
 10
1.25236
 20
5.4304
 30
0.0
 10
1.25236
 20
5.4304
 30
0.0
 10
1.48871
 20
5.43358
 30
0.0
 10
1.69862
 20
5.31152
 30
0.0
 10
1.91523
 20
5.23461
 30
0.0
 10
1.91523
 20
5.23461
 30
0.0
 10
2.1029
 20
5.16934
 30
0.0
 10
2.27576
 20
5.07021
 30
0.0
 10
2.4585
 20
4.99402
 30
0.0
 10
2.4585
 20
4.99402
 30
0.0
 10
2.59221
 20
5.12666
 30
0.0
 10
2.75978
 20
5.22896
 30
0.0
 10
2.86313
 20
5.38948
 30
0.0
 10
2.86313
 20
5.38948
 30
0.0
 10
2.74601
 20
5.33304
 30
0.0
 10
2.62008
 20
5.26424
 30
0.0
 10
2.4853
 20
5.29423
 30
0.0
 10
2.4853
 20
5.29423
 30
0.0
 10
2.01824
 20
5.39512
 30
0.0
 10
1.86231
 20
6.1416
 30
0.0
 10
2.28316
 20
6.39383
 30
0.0
 10
2.28316
 20
6.39383
 30
0.0
 10
2.4398
 20
6.47922
 30
0.0
 10
2.64653
 20
6.53706
 30
0.0
 10
2.70016
 20
6.73216
 30
0.0
 10
2.70016
 20
6.73216
 30
0.0
 10
2.77529
 20
6.92583
 30
0.0
 10
2.50294
 20
7.07471
 30
0.0
 10
2.35267
 20
6.96322
 30
0.0
  0
SPLINE
  5
45
330
1F
100
AcDbEntity
  8
Camada 1
 62
   156
100
AcDbSpline
210
0.0
220
0.0
230
1.0
 70
    11
 71
     3
 72
    36
 73
    32
 74
     0
 42
0.0000000001
 43
0.0000000001
 12
1.0
 22
0.0
 32
0.0
 13
1.0
 23
0.0
 33
0.0
 40
0.0
 40
0.0
 40
0.0
 40
0.0
 40
0.1111111111111111
 40
0.1111111111111111
 40
0.1111111111111111
 40
0.1111111111111111
 40
0.2222222222222222
 40
0.2222222222222222
 40
0.2222222222222222
 40
0.2222222222222222
 40
0.3333333333333333
 40
0.3333333333333333
 40
0.3333333333333333
 40
0.3333333333333333
 40
0.4444444444444444
 40
0.4444444444444444
 40
0.4444444444444444
 40
0.4444444444444444
 40
0.5555555555555556
 40
0.5555555555555556
 40
0.5555555555555556
 40
0.5555555555555556
 40
0.6666666666666666
 40
0.6666666666666666
 40
0.6666666666666666
 40
0.6666666666666666
 40
0.7777777777777778
 40
0.7777777777777778
 40
0.7777777777777778
 40
0.7777777777777778
 40
1.0
 40
1.0
 40
1.0
 40
1.0
 10
0.36547
 20
6.69123
 30
0.0
 10
0.36547
 20
6.69123
 30
0.0
 10
0.36547
 20
6.69123
 30
0.0
 10
0.36547
 20
6.69123
 30
0.0
 10
0.36547
 20
6.69123
 30
0.0
 10
0.42438
 20
6.43652
 30
0.0
 10
0.44731
 20
6.17547
 30
0.0
 10
0.44696
 20
5.91441
 30
0.0
 10
0.44696
 20
5.91441
 30
0.0
 10
0.45402
 20
5.4244
 30
0.0
 10
0.36159
 20
4.91394
 30
0.0
 10
0.08183
 20
4.50225
 30
0.0
 10
0.08183
 20
4.50225
 30
0.0
 10
0.02397
 20
4.407
 30
0.0
 10
-0.08149
 20
4.33856
 30
0.0
 10
-0.09842
 20
4.22213
 30
0.0
 10
-0.09842
 20
4.22213
 30
0.0
 10
-0.04974
 20
4.22213
 30
0.0
 10
0.0007
 20
4.23131
 30
0.0
 10
0.02857
 20
4.27612
 30
0.0
 10
0.02857
 20
4.27612
 30
0.0
 10
0.369
 20
4.65465
 30
0.0
 10
0.50975
 20
5.16971
 30
0.0
 10
0.53974
 20
5.66818
 30
0.0
 10
0.53974
 20
5.66818
 30
0.0
 10
0.54186
 20
6.02801
 30
0.0
 10
0.55808
 20
6.4016
 30
0.0
 10
0.43849
 20
6.74627
 30
0.0
 10
0.43849
 20
6.74627
 30
0.0
 10
0.42014
 20
6.7325
 30
0.0
 10
0.38381
 20
6.705
 30
0.0
 10
0.36547
 20
6.69123
 30
0.0
  0
SPLINE
  5
46
330
1F
100
AcDbEntity
  8
Camada 1
 62
   156
100
AcDbSpline
210
0.0
220
0.0
230
1.0
 70
    11
 71
     3
 72
    32
 73
    28
 74
     0
 42
0.0000000001
 43
0.0000000001
 12
1.0
 22
0.0
 32
0.0
 13
1.0
 23
0.0
 33
0.0
 40
0.0
 40
0.0
 40
0.0
 40
0.0
 40
0.125
 40
0.125
 40
0.125
 40
0.125
 40
0.25
 40
0.25
 40
0.25
 40
0.25
 40
0.375
 40
0.375
 40
0.375
 40
0.375
 40
0.5
 40
0.5
 40
0.5
 40
0.5
 40
0.625
 40
0.625
 40
0.625
 40
0.625
 40
0.75
 40
0.75
 40
0.75
 40
0.75
 40
1.0
 40
1.0
 40
1.0
 40
1.0
 10
3.75813
 20
6.0594
 30
0.0
 10
3.75813
 20
6.0594
 30
0.0
 10
3.75813
 20
6.0594
 30
0.0
 10
3.75813
 20
6.0594
 30
0.0
 10
3.75813
 20
6.0594
 30
0.0
 10
3.6837
 20
5.91407
 30
0.0
 10
3.57998
 20
5.78707
 30
0.0
 10
3.46638
 20
5.671
 30
0.0
 10
3.46638
 20
5.671
 30
0.0
 10
3.19897
 20
5.39478
 30
0.0
 10
2.9157
 20
5.13336
 30
0.0
 10
2.6176
 20
4.89102
 30
0.0
 10
2.6176
 20
4.89102
 30
0.0
 10
2.73614
 20
4.77424
 30
0.0
 10
2.85643
 20
4.65888
 30
0.0
 10
2.97144
 20
4.53858
 30
0.0
 10
2.97144
 20
4.53858
 30
0.0
 10
2.97003
 20
4.95239
 30
0.0
 10
3.27554
 20
5.34751
 30
0.0
 10
3.67593
 20
5.45298
 30
0.0
 10
3.67593
 20
5.45298
 30
0.0
 10
3.92217
 20
5.53623
 30
0.0
 10
4.18429
 20
5.48509
 30
0.0
 10
4.43018
 20
5.42864
 30
0.0
 10
4.43018
 20
5.42864
 30
0.0
 10
4.23686
 20
5.66888
 30
0.0
 10
3.98673
 20
5.8548
 30
0.0
 10
3.75813
 20
6.0594
 30
0.0
  0
SPLINE
  5
47
330
1F
100
AcDbEntity
  8
Camada 1
 62
   156
100
AcDbSpline
210
0.0
220
0.0
230
1.0
 70
    11
 71
     3
 72
    72
 73
    68
 74
     0
 42
0.0000000001
 43
0.0000000001
 12
1.0
 22
0.0
 32
0.0
 13
1.0
 23
0.0
 33
0.0
 40
0.0
 40
0.0
 40
0.0
 40
0.0
 40
0.0555555555555556
 40
0.0555555555555556
 40
0.0555555555555556
 40
0.0555555555555556
 40
0.1111111111111111
 40
0.1111111111111111
 40
0.1111111111111111
 40
0.1111111111111111
 40
0.1666666666666667
 40
0.1666666666666667
 40
0.1666666666666667
 40
0.1666666666666667
 40
0.2222222222222222
 40
0.2222222222222222
 40
0.2222222222222222
 40
0.2222222222222222
 40
0.2777777777777778
 40
0.2777777777777778
 40
0.2777777777777778
 40
0.2777777777777778
 40
0.3333333333333333
 40
0.3333333333333333
 40
0.3333333333333333
 40
0.3333333333333333
 40
0.3888888888888889
 40
0.3888888888888889
 40
0.3888888888888889
 40
0.3888888888888889
 40
0.4444444444444444
 40
0.4444444444444444
 40
0.4444444444444444
 40
0.4444444444444444
 40
0.5
 40
0.5
 40
0.5
 40
0.5
 40
0.5555555555555556
 40
0.5555555555555556
 40
0.5555555555555556
 40
0.5555555555555556
 40
0.6111111111111112
 40
0.6111111111111112
 40
0.6111111111111112
 40
0.6111111111111112
 40
0.6666666666666666
 40
0.6666666666666666
 40
0.6666666666666666
 40
0.6666666666666666
 40
0.7222222222222222
 40
0.7222222222222222
 40
0.7222222222222222
 40
0.7222222222222222
 40
0.7777777777777778
 40
0.7777777777777778
 40
0.7777777777777778
 40
0.7777777777777778
 40
0.8333333333333334
 40
0.8333333333333334
 40
0.8333333333333334
 40
0.8333333333333334
 40
0.8888888888888888
 40
0.8888888888888888
 40
0.8888888888888888
 40
0.8888888888888888
 40
1.0
 40
1.0
 40
1.0
 40
1.0
 10
3.31857
 20
4.97921
 30
0.0
 10
3.31857
 20
4.97921
 30
0.0
 10
3.31857
 20
4.97921
 30
0.0
 10
3.31857
 20
4.97921
 30
0.0
 10
3.31857
 20
4.97921
 30
0.0
 10
3.16581
 20
4.77495
 30
0.0
 10
3.14218
 20
4.50048
 30
0.0
 10
3.19193
 20
4.25777
 30
0.0
 10
3.19193
 20
4.25777
 30
0.0
 10
3.27271
 20
4.0648
 30
0.0
 10
3.40888
 20
3.90005
 30
0.0
 10
3.49778
 20
3.7106
 30
0.0
 10
3.49778
 20
3.7106
 30
0.0
 10
3.73274
 20
3.75224
 30
0.0
 10
3.96485
 20
3.81292
 30
0.0
 10
4.18746
 20
3.89864
 30
0.0
 10
4.18746
 20
3.89864
 30
0.0
 10
4.25731
 20
3.91593
 30
0.0
 10
4.27743
 20
3.98719
 30
0.0
 10
4.29048
 20
4.04893
 30
0.0
 10
4.29048
 20
4.04893
 30
0.0
 10
4.14937
 20
4.0281
 30
0.0
 10
4.00931
 20
3.98861
 30
0.0
 10
3.86537
 20
4.00271
 30
0.0
 10
3.86537
 20
4.00271
 30
0.0
 10
3.69887
 20
4.01224
 30
0.0
 10
3.56975
 20
4.15052
 30
0.0
 10
3.51296
 20
4.2987
 30
0.0
 10
3.51296
 20
4.2987
 30
0.0
 10
3.43746
 20
4.49202
 30
0.0
 10
3.43958
 20
4.73261
 30
0.0
 10
3.56517
 20
4.90476
 30
0.0
 10
3.56517
 20
4.90476
 30
0.0
 10
3.71791
 20
5.11925
 30
0.0
 10
4.06293
 20
5.14395
 30
0.0
 10
4.25167
 20
4.96333
 30
0.0
 10
4.25167
 20
4.96333
 30
0.0
 10
4.36421
 20
4.85608
 30
0.0
 10
4.38114
 20
4.64054
 30
0.0
 10
4.24849
 20
4.54316
 30
0.0
 10
4.24849
 20
4.54316
 30
0.0
 10
4.19206
 20
4.49061
 30
0.0
 10
4.08303
 20
4.46732
 30
0.0
 10
4.03577
 20
4.54353
 30
0.0
 10
4.03577
 20
4.54353
 30
0.0
 10
4.02378
 20
4.63454
 30
0.0
 10
4.03331
 20
4.72625
 30
0.0
 10
4.03577
 20
4.81727
 30
0.0
 10
4.03577
 20
4.81727
 30
0.0
 10
3.92394
 20
4.89665
 30
0.0
 10
3.79377
 20
4.83562
 30
0.0
 10
3.71615
 20
4.74072
 30
0.0
 10
3.71615
 20
4.74072
 30
0.0
 10
3.68935
 20
4.6095
 30
0.0
 10
3.72251
 20
4.4585
 30
0.0
 10
3.84104
 20
4.3823
 30
0.0
 10
3.84104
 20
4.3823
 30
0.0
 10
4.0326
 20
4.2299
 30
0.0
 10
4.34021
 20
4.28457
 30
0.0
 10
4.47638
 20
4.48355
 30
0.0
 10
4.47638
 20
4.48355
 30
0.0
 10
4.59527
 20
4.75025
 30
0.0
 10
4.49121
 20
5.12985
 30
0.0
 10
4.20651
 20
5.24484
 30
0.0
 10
4.20651
 20
5.24484
 30
0.0
 10
3.895
 20
5.37255
 30
0.0
 10
3.51048
 20
5.25295
 30
0.0
 10
3.31857
 20
4.97921
 30
0.0
  0
SPLINE
  5
48
330
1F
100
AcDbEntity
  8
Camada 1
 62
   156
100
AcDbSpline
210
0.0
220
0.0
230
1.0
 70
    11
 71
     3
 72
    28
 73
    24
 74
     0
 42
0.0000000001
 43
0.0000000001
 12
1.0
 22
0.0
 32
0.0
 13
1.0
 23
0.0
 33
0.0
 40
0.0
 40
0.0
 40
0.0
 40
0.0
 40
0.1428571428571428
 40
0.1428571428571428
 40
0.1428571428571428
 40
0.1428571428571428
 40
0.2857142857142857
 40
0.2857142857142857
 40
0.2857142857142857
 40
0.2857142857142857
 40
0.4285714285714285
 40
0.4285714285714285
 40
0.4285714285714285
 40
0.4285714285714285
 40
0.5714285714285714
 40
0.5714285714285714
 40
0.5714285714285714
 40
0.5714285714285714
 40
0.7142857142857143
 40
0.7142857142857143
 40
0.7142857142857143
 40
0.7142857142857143
 40
1.0
 40
1.0
 40
1.0
 40
1.0
 10
4.62702
 20
5.22226
 30
0.0
 10
4.62702
 20
5.22226
 30
0.0
 10
4.62702
 20
5.22226
 30
0.0
 10
4.62702
 20
5.22226
 30
0.0
 10
4.62702
 20
5.22226
 30
0.0
 10
4.66548
 20
4.99473
 30
0.0
 10
4.75438
 20
4.77142
 30
0.0
 10
4.73886
 20
4.53612
 30
0.0
 10
4.73886
 20
4.53612
 30
0.0
 10
4.72193
 20
4.39852
 30
0.0
 10
4.64043
 20
4.27894
 30
0.0
 10
4.53953
 20
4.18756
 30
0.0
 10
4.53953
 20
4.18756
 30
0.0
 10
4.548
 20
4.17345
 30
0.0
 10
4.56528
 20
4.14524
 30
0.0
 10
4.57376
 20
4.13113
 30
0.0
 10
4.57376
 20
4.13113
 30
0.0
 10
4.69194
 20
4.21155
 30
0.0
 10
4.86127
 20
4.26483
 30
0.0
 10
4.90466
 20
4.41616
 30
0.0
 10
4.90466
 20
4.41616
 30
0.0
 10
4.94805
 20
4.70191
 30
0.0
 10
4.90889
 20
5.06846
 30
0.0
 10
4.62702
 20
5.22226
 30
0.0
  0
SPLINE
  5
49
330
1F
100
AcDbEntity
  8
Camada 1
 62
   156
100
AcDbSpline
210
0.0
220
0.0
230
1.0
 70
    11
 71
     3
 72
   176
 73
   172
 74
     0
 42
0.0000000001
 43
0.0000000001
 12
1.0
 22
0.0
 32
0.0
 13
1.0
 23
0.0
 33
0.0
 40
0.0
 40
0.0
 40
0.0
 40
0.0
 40
0.0227272727272727
 40
0.0227272727272727
 40
0.0227272727272727
 40
0.0227272727272727
 40
0.0454545454545455
 40
0.0454545454545455
 40
0.0454545454545455
 40
0.0454545454545455
 40
0.0681818181818182
 40
0.0681818181818182
 40
0.0681818181818182
 40
0.0681818181818182
 40
0.0909090909090909
 40
0.0909090909090909
 40
0.0909090909090909
 40
0.0909090909090909
 40
0.1136363636363636
 40
0.1136363636363636
 40
0.1136363636363636
 40
0.1136363636363636
 40
0.1363636363636364
 40
0.1363636363636364
 40
0.1363636363636364
 40
0.1363636363636364
 40
0.1590909090909091
 40
0.1590909090909091
 40
0.1590909090909091
 40
0.1590909090909091
 40
0.1818181818181818
 40
0.1818181818181818
 40
0.1818181818181818
 40
0.1818181818181818
 40
0.2045454545454546
 40
0.2045454545454546
 40
0.2045454545454546
 40
0.2045454545454546
 40
0.2272727272727273
 40
0.2272727272727273
 40
0.2272727272727273
 40
0.2272727272727273
 40
0.25
 40
0.25
 40
0.25
 40
0.25
 40
0.2727272727272727
 40
0.2727272727272727
 40
0.2727272727272727
 40
0.2727272727272727
 40
0.2954545454545455
 40
0.2954545454545455
 40
0.2954545454545455
 40
0.2954545454545455
 40
0.3181818181818182
 40
0.3181818181818182
 40
0.3181818181818182
 40
0.3181818181818182
 40
0.3409090909090909
 40
0.3409090909090909
 40
0.3409090909090909
 40
0.3409090909090909
 40
0.3636363636363636
 40
0.3636363636363636
 40
0.3636363636363636
 40
0.3636363636363636
 40
0.3863636363636364
 40
0.3863636363636364
 40
0.3863636363636364
 40
0.3863636363636364
 40
0.4090909090909091
 40
0.4090909090909091
 40
0.4090909090909091
 40
0.4090909090909091
 40
0.4318181818181818
 40
0.4318181818181818
 40
0.4318181818181818
 40
0.4318181818181818
 40
0.4545454545454545
 40
0.4545454545454545
 40
0.4545454545454545
 40
0.4545454545454545
 40
0.4772727272727273
 40
0.4772727272727273
 40
0.4772727272727273
 40
0.4772727272727273
 40
0.5
 40
0.5
 40
0.5
 40
0.5
 40
0.5227272727272727
 40
0.5227272727272727
 40
0.5227272727272727
 40
0.5227272727272727
 40
0.5454545454545454
 40
0.5454545454545454
 40
0.5454545454545454
 40
0.5454545454545454
 40
0.5681818181818182
 40
0.5681818181818182
 40
0.5681818181818182
 40
0.5681818181818182
 40
0.5909090909090909
 40
0.5909090909090909
 40
0.5909090909090909
 40
0.5909090909090909
 40
0.6136363636363636
 40
0.6136363636363636
 40
0.6136363636363636
 40
0.6136363636363636
 40
0.6363636363636364
 40
0.6363636363636364
 40
0.6363636363636364
 40
0.6363636363636364
 40
0.6590909090909091
 40
0.6590909090909091
 40
0.6590909090909091
 40
0.6590909090909091
 40
0.6818181818181818
 40
0.6818181818181818
 40
0.6818181818181818
 40
0.6818181818181818
 40
0.7045454545454546
 40
0.7045454545454546
 40
0.7045454545454546
 40
0.7045454545454546
 40
0.7272727272727273
 40
0.7272727272727273
 40
0.7272727272727273
 40
0.7272727272727273
 40
0.75
 40
0.75
 40
0.75
 40
0.75
 40
0.7727272727272727
 40
0.7727272727272727
 40
0.7727272727272727
 40
0.7727272727272727
 40
0.7954545454545454
 40
0.7954545454545454
 40
0.7954545454545454
 40
0.7954545454545454
 40
0.8181818181818182
 40
0.8181818181818182
 40
0.8181818181818182
 40
0.8181818181818182
 40
0.8409090909090909
 40
0.8409090909090909
 40
0.8409090909090909
 40
0.8409090909090909
 40
0.8636363636363636
 40
0.8636363636363636
 40
0.8636363636363636
 40
0.8636363636363636
 40
0.8863636363636364
 40
0.8863636363636364
 40
0.8863636363636364
 40
0.8863636363636364
 40
0.9090909090909091
 40
0.9090909090909091
 40
0.9090909090909091
 40
0.9090909090909091
 40
0.9318181818181818
 40
0.9318181818181818
 40
0.9318181818181818
 40
0.9318181818181818
 40
0.9545454545454546
 40
0.9545454545454546
 40
0.9545454545454546
 40
0.9545454545454546
 40
1.0
 40
1.0
 40
1.0
 40
1.0
 10
1.84502
 20
4.72908
 30
0.0
 10
1.84502
 20
4.72908
 30
0.0
 10
1.84502
 20
4.72908
 30
0.0
 10
1.84502
 20
4.72908
 30
0.0
 10
1.84502
 20
4.72908
 30
0.0
 10
2.13571
 20
4.5033
 30
0.0
 10
2.34032
 20
4.13042
 30
0.0
 10
2.27965
 20
3.75612
 30
0.0
 10
2.27965
 20
3.75612
 30
0.0
 10
2.23448
 20
3.40935
 30
0.0
 10
1.85384
 20
3.18039
 30
0.0
 10
1.52293
 20
3.24283
 30
0.0
 10
1.52293
 20
3.24283
 30
0.0
 10
1.33984
 20
3.27353
 30
0.0
 10
1.19203
 20
3.43898
 30
0.0
 10
1.17651
 20
3.62311
 30
0.0
 10
1.17651
 20
3.62311
 30
0.0
 10
1.16699
 20
3.72895
 30
0.0
 10
1.16874
 20
3.8362
 30
0.0
 10
1.18109
 20
3.94203
 30
0.0
 10
1.18109
 20
3.94203
 30
0.0
 10
1.20931
 20
4.10855
 30
0.0
 10
1.46931
 20
4.17523
 30
0.0
 10
1.56491
 20
4.03022
 30
0.0
 10
1.56491
 20
4.03022
 30
0.0
 10
1.61924
 20
3.88736
 30
0.0
 10
1.41323
 20
3.76988
 30
0.0
 10
1.50142
 20
3.63405
 30
0.0
 10
1.50142
 20
3.63405
 30
0.0
 10
1.57268
 20
3.50812
 30
0.0
 10
1.75117
 20
3.54198
 30
0.0
 10
1.83761
 20
3.63193
 30
0.0
 10
1.83761
 20
3.63193
 30
0.0
 10
1.97872
 20
3.75965
 30
0.0
 10
1.94274
 20
3.9819
 30
0.0
 10
1.86477
 20
4.13464
 30
0.0
 10
1.86477
 20
4.13464
 30
0.0
 10
1.76211
 20
4.37243
 30
0.0
 10
1.46578
 20
4.49872
 30
0.0
 10
1.22166
 20
4.42181
 30
0.0
 10
1.22166
 20
4.42181
 30
0.0
 10
1.03786
 20
4.35232
 30
0.0
 10
0.9412
 20
4.16288
 30
0.0
 10
0.87875
 20
3.98861
 30
0.0
 10
0.87875
 20
3.98861
 30
0.0
 10
0.73693
 20
3.55327
 30
0.0
 10
0.72354
 20
3.08761
 30
0.0
 10
0.75599
 20
2.63463
 30
0.0
 10
0.75599
 20
2.63463
 30
0.0
 10
0.78951
 20
2.15275
 30
0.0
 10
0.91897
 20
1.67932
 30
0.0
 10
1.12077
 20
1.24082
 30
0.0
 10
1.12077
 20
1.24082
 30
0.0
 10
1.20578
 20
1.40485
 30
0.0
 10
1.31692
 20
1.56431
 30
0.0
 10
1.4813
 20
1.65674
 30
0.0
 10
1.4813
 20
1.65674
 30
0.0
 10
1.72013
 20
1.80173
 30
0.0
 10
2.06126
 20
1.76045
 30
0.0
 10
2.24367
 20
1.5435
 30
0.0
 10
2.24367
 20
1.5435
 30
0.0
 10
2.35231
 20
1.41191
 30
0.0
 10
2.43451
 20
1.23623
 30
0.0
 10
2.39253
 20
1.06267
 30
0.0
 10
2.39253
 20
1.06267
 30
0.0
 10
2.33115
 20
0.87498
 30
0.0
 10
2.17382
 20
0.73635
 30
0.0
 10
2.00693
 20
0.64144
 30
0.0
 10
2.00693
 20
0.64144
 30
0.0
 10
1.88806
 20
0.61005
 30
0.0
 10
1.75648
 20
0.70178
 30
0.0
 10
1.72895
 20
0.81748
 30
0.0
 10
1.72895
 20
0.81748
 30
0.0
 10
1.71238
 20
0.8838
 30
0.0
 10
1.77093
 20
0.93355
 30
0.0
 10
1.81361
 20
0.97411
 30
0.0
 10
1.81361
 20
0.97411
 30
0.0
 10
1.881
 20
0.98223
 30
0.0
 10
1.95014
 20
0.99246
 30
0.0
 10
2.01012
 20
1.02703
 30
0.0
 10
2.01012
 20
1.02703
 30
0.0
 10
2.08314
 20
1.075
 30
0.0
 10
2.0588
 20
1.17413
 30
0.0
 10
2.06092
 20
1.24788
 30
0.0
 10
2.06092
 20
1.24788
 30
0.0
 10
1.99
 20
1.3075
 30
0.0
 10
1.90887
 20
1.36641
 30
0.0
 10
1.81151
 20
1.36324
 30
0.0
 10
1.81151
 20
1.36324
 30
0.0
 10
1.53704
 20
1.34348
 30
0.0
 10
1.31339
 20
1.04362
 30
0.0
 10
1.39593
 20
0.77585
 30
0.0
 10
1.39593
 20
0.77585
 30
0.0
 10
1.47954
 20
0.55889
 30
0.0
 10
1.65805
 20
0.39802
 30
0.0
 10
1.8302
 20
0.24987
 30
0.0
 10
1.8302
 20
0.24987
 30
0.0
 10
2.01646
 20
0.09146
 30
0.0
 10
2.2807
 20
0.0315
 30
0.0
 10
2.51424
 20
0.11122
 30
0.0
 10
2.51424
 20
0.11122
 30
0.0
 10
2.94815
 20
0.26503
 30
0.0
 10
3.25613
 20
0.72293
 30
0.0
 10
3.22967
 20
1.18366
 30
0.0
 10
3.22967
 20
1.18366
 30
0.0
 10
3.22085
 20
1.29268
 30
0.0
 10
3.17923
 20
1.41932
 30
0.0
 10
3.07162
 20
1.46766
 30
0.0
 10
3.07162
 20
1.46766
 30
0.0
 10
2.97707
 20
1.48352
 30
0.0
 10
2.92946
 20
1.35581
 30
0.0
 10
2.83703
 20
1.36182
 30
0.0
 10
2.83703
 20
1.36182
 30
0.0
 10
2.74777
 20
1.359
 30
0.0
 10
2.63877
 20
1.41085
 30
0.0
 10
2.63311
 20
1.51034
 30
0.0
 10
2.63311
 20
1.51034
 30
0.0
 10
2.61796
 20
1.65498
 30
0.0
 10
2.76718
 20
1.7273
 30
0.0
 10
2.84444
 20
1.82572
 30
0.0
 10
2.84444
 20
1.82572
 30
0.0
 10
2.9806
 20
1.95977
 30
0.0
 10
3.018
 20
2.16544
 30
0.0
 10
2.97673
 20
2.34748
 30
0.0
 10
2.97673
 20
2.34748
 30
0.0
 10
2.94815
 20
2.52387
 30
0.0
 10
2.80492
 20
2.65792
 30
0.0
 10
2.65075
 20
2.73342
 30
0.0
 10
2.65075
 20
2.73342
 30
0.0
 10
2.50754
 20
2.80327
 30
0.0
 10
2.30786
 20
2.79903
 30
0.0
 10
2.21049
 20
2.65616
 30
0.0
 10
2.21049
 20
2.65616
 30
0.0
 10
2.11983
 20
2.55949
 30
0.0
 10
2.16921
 20
2.41239
 30
0.0
 10
2.27117
 20
2.34607
 30
0.0
 10
2.27117
 20
2.34607
 30
0.0
 10
2.36078
 20
2.35701
 30
0.0
 10
2.44791
 20
2.38205
 30
0.0
 10
2.534
 20
2.40886
 30
0.0
 10
2.534
 20
2.40886
 30
0.0
 10
2.55586
 20
2.40286
 30
0.0
 10
2.59925
 20
2.39051
 30
0.0
 10
2.62113
 20
2.38452
 30
0.0
 10
2.62113
 20
2.38452
 30
0.0
 10
2.72803
 20
2.24552
 30
0.0
 10
2.6289
 20
2.02892
 30
0.0
 10
2.45638
 20
2.01164
 30
0.0
 10
2.45638
 20
2.01164
 30
0.0
 10
2.27083
 20
2.04127
 30
0.0
 10
2.05527
 20
2.06455
 30
0.0
 10
1.92933
 20
2.2226
 30
0.0
 10
1.92933
 20
2.2226
 30
0.0
 10
1.73073
 20
2.50234
 30
0.0
 10
1.87995
 20
2.92991
 30
0.0
 10
2.18122
 20
3.07102
 30
0.0
 10
2.18122
 20
3.07102
 30
0.0
 10
2.4652
 20
3.21532
 30
0.0
 10
2.80882
 20
3.12747
 30
0.0
 10
3.05857
 20
2.95284
 30
0.0
 10
3.05857
 20
2.95284
 30
0.0
 10
3.18769
 20
3.30033
 30
0.0
 10
3.11714
 20
3.68909
 30
0.0
 10
2.9351
 20
4.00342
 30
0.0
 10
2.9351
 20
4.00342
 30
0.0
 10
2.72979
 20
4.36677
 30
0.0
 10
2.43804
 20
4.73015
 30
0.0
 10
2.01717
 20
4.84127
 30
0.0
 10
2.01717
 20
4.84127
 30
0.0
 10
1.93498
 20
4.86631
 30
0.0
 10
1.87783
 20
4.79329
 30
0.0
 10
1.84502
 20
4.72908
 30
0.0
  0
SPLINE
  5
4A
330
1F
100
AcDbEntity
  8
Camada 1
 62
   156
100
AcDbSpline
210
0.0
220
0.0
230
1.0
 70
    11
 71
     3
 72
   100
 73
    96
 74
     0
 42
0.0000000001
 43
0.0000000001
 12
1.0
 22
0.0
 32
0.0
 13
1.0
 23
0.0
 33
0.0
 40
0.0
 40
0.0
 40
0.0
 40
0.0
 40
0.04
 40
0.04
 40
0.04
 40
0.04
 40
0.08
 40
0.08
 40
0.08
 40
0.08
 40
0.12
 40
0.12
 40
0.12
 40
0.12
 40
0.16
 40
0.16
 40
0.16
 40
0.16
 40
0.2
 40
0.2
 40
0.2
 40
0.2
 40
0.24
 40
0.24
 40
0.24
 40
0.24
 40
0.28
 40
0.28
 40
0.28
 40
0.28
 40
0.32
 40
0.32
 40
0.32
 40
0.32
 40
0.36
 40
0.36
 40
0.36
 40
0.36
 40
0.4
 40
0.4
 40
0.4
 40
0.4
 40
0.44
 40
0.44
 40
0.44
 40
0.44
 40
0.48
 40
0.48
 40
0.48
 40
0.48
 40
0.52
 40
0.52
 40
0.52
 40
0.52
 40
0.56
 40
0.56
 40
0.56
 40
0.56
 40
0.6
 40
0.6
 40
0.6
 40
0.6
 40
0.64
 40
0.64
 40
0.64
 40
0.64
 40
0.68
 40
0.68
 40
0.68
 40
0.68
 40
0.72
 40
0.72
 40
0.72
 40
0.72
 40
0.76
 40
0.76
 40
0.76
 40
0.76
 40
0.8
 40
0.8
 40
0.8
 40
0.8
 40
0.84
 40
0.84
 40
0.84
 40
0.84
 40
0.88
 40
0.88
 40
0.88
 40
0.88
 40
0.92
 40
0.92
 40
0.92
 40
0.92
 40
1.0
 40
1.0
 40
1.0
 40
1.0
 10
3.57645
 20
3.49189
 30
0.0
 10
3.57645
 20
3.49189
 30
0.0
 10
3.57645
 20
3.49189
 30
0.0
 10
3.57645
 20
3.49189
 30
0.0
 10
3.57645
 20
3.49189
 30
0.0
 10
3.56446
 20
3.23542
 30
0.0
 10
3.65758
 20
2.99235
 30
0.0
 10
3.72497
 20
2.74965
 30
0.0
 10
3.72497
 20
2.74965
 30
0.0
 10
3.79448
 20
2.51858
 30
0.0
 10
3.895
 20
2.27869
 30
0.0
 10
4.09751
 20
2.13334
 30
0.0
 10
4.09751
 20
2.13334
 30
0.0
 10
4.23367
 20
2.03174
 30
0.0
 10
4.42665
 20
1.99541
 30
0.0
 10
4.56988
 20
2.10478
 30
0.0
 10
4.56988
 20
2.10478
 30
0.0
 10
4.5674
 20
2.16581
 30
0.0
 10
4.54625
 20
2.22048
 30
0.0
 10
4.50637
 20
2.26633
 30
0.0
 10
4.50637
 20
2.26633
 30
0.0
 10
4.44605
 20
2.26316
 30
0.0
 10
4.38608
 20
2.26105
 30
0.0
 10
4.32645
 20
2.25822
 30
0.0
 10
4.32645
 20
2.25822
 30
0.0
 10
4.31341
 20
2.2741
 30
0.0
 10
4.288
 20
2.30585
 30
0.0
 10
4.27531
 20
2.32173
 30
0.0
 10
4.27531
 20
2.32173
 30
0.0
 10
4.30847
 20
2.37287
 30
0.0
 10
4.34762
 20
2.41945
 30
0.0
 10
4.39067
 20
2.46248
 30
0.0
 10
4.39067
 20
2.46248
 30
0.0
 10
4.53777
 20
2.49388
 30
0.0
 10
4.6743
 20
2.42086
 30
0.0
 10
4.77025
 20
2.31291
 30
0.0
 10
4.77025
 20
2.31291
 30
0.0
 10
4.8514
 20
2.54926
 30
0.0
 10
4.81083
 20
2.80926
 30
0.0
 10
4.72193
 20
3.03681
 30
0.0
 10
4.72193
 20
3.03681
 30
0.0
 10
4.6362
 20
3.23048
 30
0.0
 10
4.34657
 20
3.30632
 30
0.0
 10
4.20158
 20
3.13558
 30
0.0
 10
4.20158
 20
3.13558
 30
0.0
 10
4.11726
 20
3.05657
 30
0.0
 10
4.14937
 20
2.88228
 30
0.0
 10
4.27777
 20
2.88123
 30
0.0
 10
4.27777
 20
2.88123
 30
0.0
 10
4.33668
 20
2.86712
 30
0.0
 10
4.3388
 20
2.95213
 30
0.0
 10
4.36138
 20
2.98636
 30
0.0
 10
4.36138
 20
2.98636
 30
0.0
 10
4.37761
 20
2.99764
 30
0.0
 10
4.40972
 20
3.02022
 30
0.0
 10
4.42558
 20
3.03151
 30
0.0
 10
4.42558
 20
3.03151
 30
0.0
 10
4.51236
 20
2.98036
 30
0.0
 10
4.54447
 20
2.86712
 30
0.0
 10
4.48944
 20
2.78069
 30
0.0
 10
4.48944
 20
2.78069
 30
0.0
 10
4.38784
 20
2.59796
 30
0.0
 10
4.08798
 20
2.63463
 30
0.0
 10
4.00402
 20
2.81455
 30
0.0
 10
4.00402
 20
2.81455
 30
0.0
 10
3.91724
 20
2.98741
 30
0.0
 10
3.96309
 20
3.2125
 30
0.0
 10
4.10386
 20
3.34301
 30
0.0
 10
4.10386
 20
3.34301
 30
0.0
 10
4.27848
 20
3.49542
 30
0.0
 10
4.57129
 20
3.50565
 30
0.0
 10
4.74096
 20
3.33914
 30
0.0
 10
4.74096
 20
3.33914
 30
0.0
 10
5.01049
 20
3.0728
 30
0.0
 10
5.11527
 20
2.64064
 30
0.0
 10
4.99251
 20
2.28117
 30
0.0
 10
4.99251
 20
2.28117
 30
0.0
 10
4.93253
 20
2.11923
 30
0.0
 10
4.79812
 20
1.97424
 30
0.0
 10
4.82916
 20
1.78903
 30
0.0
 10
4.82916
 20
1.78903
 30
0.0
 10
4.85069
 20
1.59959
 30
0.0
 10
4.95616
 20
1.35934
 30
0.0
 10
5.1756
 20
1.34699
 30
0.0
 10
5.1756
 20
1.34699
 30
0.0
 10
5.2031
 20
1.72905
 30
0.0
 10
5.23697
 20
2.11112
 30
0.0
 10
5.24862
 20
2.49388
 30
0.0
 10
5.24862
 20
2.49388
 30
0.0
 10
5.2585
 20
3.03363
 30
0.0
 10
4.98722
 20
3.51694
 30
0.0
 10
4.83269
 20
4.01965
 30
0.0
 10
4.83269
 20
4.01965
 30
0.0
 10
4.47109
 20
3.73567
 30
0.0
 10
4.0393
 20
3.52788
 30
0.0
 10
3.57645
 20
3.49189
 30
0.0
  0
SPLINE
  5
4B
330
1F
100
AcDbEntity
  8
Camada 1
 62
   156
100
AcDbSpline
210
0.0
220
0.0
230
1.0
 70
    11
 71
     3
 72
    32
 73
    28
 74
     0
 42
0.0000000001
 43
0.0000000001
 12
1.0
 22
0.0
 32
0.0
 13
1.0
 23
0.0
 33
0.0
 40
0.0
 40
0.0
 40
0.0
 40
0.0
 40
0.125
 40
0.125
 40
0.125
 40
0.125
 40
0.25
 40
0.25
 40
0.25
 40
0.25
 40
0.375
 40
0.375
 40
0.375
 40
0.375
 40
0.5
 40
0.5
 40
0.5
 40
0.5
 40
0.625
 40
0.625
 40
0.625
 40
0.625
 40
0.75
 40
0.75
 40
0.75
 40
0.75
 40
1.0
 40
1.0
 40
1.0
 40
1.0
 10
0.00353
 20
3.5187
 30
0.0
 10
0.00353
 20
3.5187
 30
0.0
 10
0.00353
 20
3.5187
 30
0.0
 10
0.00353
 20
3.5187
 30
0.0
 10
0.00353
 20
3.5187
 30
0.0
 10
0.11465
 20
2.96943
 30
0.0
 10
0.22823
 20
2.41909
 30
0.0
 10
0.29067
 20
1.86135
 30
0.0
 10
0.29067
 20
1.86135
 30
0.0
 10
0.30902
 20
1.67155
 30
0.0
 10
0.31643
 20
1.47965
 30
0.0
 10
0.28821
 20
1.2902
 30
0.0
 10
0.28821
 20
1.2902
 30
0.0
 10
0.33406
 20
1.27821
 30
0.0
 10
0.39404
 20
1.30184
 30
0.0
 10
0.39334
 20
1.35547
 30
0.0
 10
0.39334
 20
1.35547
 30
0.0
 10
0.41168
 20
1.50857
 30
0.0
 10
0.40357
 20
1.6638
 30
0.0
 10
0.39263
 20
1.8169
 30
0.0
 10
0.39263
 20
1.8169
 30
0.0
 10
0.32948
 20
2.39511
 30
0.0
 10
0.22012
 20
2.96731
 30
0.0
 10
0.0956
 20
3.53492
 30
0.0
 10
0.0956
 20
3.53492
 30
0.0
 10
0.09735
 20
3.61536
 30
0.0
 10
-0.02046
 20
3.58891
 30
0.0
 10
0.00353
 20
3.5187
 30
0.0
  0
SPLINE
  5
4C
330
1F
100
AcDbEntity
  8
Camada 1
 62
   156
100
AcDbSpline
210
0.0
220
0.0
230
1.0
 70
    11
 71
     3
 72
    36
 73
    32
 74
     0
 42
0.0000000001
 43
0.0000000001
 12
1.0
 22
0.0
 32
0.0
 13
1.0
 23
0.0
 33
0.0
 40
0.0
 40
0.0
 40
0.0
 40
0.0
 40
0.1111111111111111
 40
0.1111111111111111
 40
0.1111111111111111
 40
0.1111111111111111
 40
0.2222222222222222
 40
0.2222222222222222
 40
0.2222222222222222
 40
0.2222222222222222
 40
0.3333333333333333
 40
0.3333333333333333
 40
0.3333333333333333
 40
0.3333333333333333
 40
0.4444444444444444
 40
0.4444444444444444
 40
0.4444444444444444
 40
0.4444444444444444
 40
0.5555555555555556
 40
0.5555555555555556
 40
0.5555555555555556
 40
0.5555555555555556
 40
0.6666666666666666
 40
0.6666666666666666
 40
0.6666666666666666
 40
0.6666666666666666
 40
0.7777777777777778
 40
0.7777777777777778
 40
0.7777777777777778
 40
0.7777777777777778
 40
1.0
 40
1.0
 40
1.0
 40
1.0
 10
-0.53905
 20
3.36806
 30
0.0
 10
-0.53905
 20
3.36806
 30
0.0
 10
-0.53905
 20
3.36806
 30
0.0
 10
-0.53905
 20
3.36806
 30
0.0
 10
-0.53905
 20
3.36806
 30
0.0
 10
-0.58597
 20
3.32432
 30
0.0
 10
-0.56303
 20
3.25589
 30
0.0
 10
-0.56973
 20
3.20014
 30
0.0
 10
-0.56973
 20
3.20014
 30
0.0
 10
-0.56515
 20
2.7066
 30
0.0
 10
-0.53586
 20
2.20672
 30
0.0
 10
-0.39723
 20
1.73047
 30
0.0
 10
-0.39723
 20
1.73047
 30
0.0
 10
-0.32914
 20
1.51351
 30
0.0
 10
-0.24694
 20
1.28986
 30
0.0
 10
-0.08326
 20
1.12545
 30
0.0
 10
-0.08326
 20
1.12545
 30
0.0
 10
-0.0702
 20
1.14098
 30
0.0
 10
-0.04409
 20
1.17202
 30
0.0
 10
-0.03104
 20
1.18755
 30
0.0
 10
-0.03104
 20
1.18755
 30
0.0
 10
-0.16016
 20
1.37523
 30
0.0
 10
-0.26282
 20
1.5809
 30
0.0
 10
-0.31679
 20
1.8035
 30
0.0
 10
-0.31679
 20
1.8035
 30
0.0
 10
-0.44803
 20
2.29527
 30
0.0
 10
-0.47661
 20
2.80785
 30
0.0
 10
-0.47412
 20
3.3148
 30
0.0
 10
-0.47412
 20
3.3148
 30
0.0
 10
-0.47873
 20
3.35395
 30
0.0
 10
-0.50058
 20
3.37159
 30
0.0
 10
-0.53905
 20
3.36806
 30
0.0
  0
SPLINE
  5
4D
330
1F
100
AcDbEntity
  8
Camada 1
 62
   156
100
AcDbSpline
210
0.0
220
0.0
230
1.0
 70
    11
 71
     3
 72
    48
 73
    44
 74
     0
 42
0.0000000001
 43
0.0000000001
 12
1.0
 22
0.0
 32
0.0
 13
1.0
 23
0.0
 33
0.0
 40
0.0
 40
0.0
 40
0.0
 40
0.0
 40
0.0833333333333333
 40
0.0833333333333333
 40
0.0833333333333333
 40
0.0833333333333333
 40
0.1666666666666667
 40
0.1666666666666667
 40
0.1666666666666667
 40
0.1666666666666667
 40
0.25
 40
0.25
 40
0.25
 40
0.25
 40
0.3333333333333333
 40
0.3333333333333333
 40
0.3333333333333333
 40
0.3333333333333333
 40
0.4166666666666667
 40
0.4166666666666667
 40
0.4166666666666667
 40
0.4166666666666667
 40
0.5
 40
0.5
 40
0.5
 40
0.5
 40
0.5833333333333334
 40
0.5833333333333334
 40
0.5833333333333334
 40
0.5833333333333334
 40
0.6666666666666666
 40
0.6666666666666666
 40
0.6666666666666666
 40
0.6666666666666666
 40
0.75
 40
0.75
 40
0.75
 40
0.75
 40
0.8333333333333334
 40
0.8333333333333334
 40
0.8333333333333334
 40
0.8333333333333334
 40
1.0
 40
1.0
 40
1.0
 40
1.0
 10
-1.82245
 20
2.41309
 30
0.0
 10
-1.82245
 20
2.41309
 30
0.0
 10
-1.82245
 20
2.41309
 30
0.0
 10
-1.82245
 20
2.41309
 30
0.0
 10
-1.82245
 20
2.41309
 30
0.0
 10
-1.8549
 20
2.39017
 30
0.0
 10
-1.88843
 20
2.36054
 30
0.0
 10
-1.89194
 20
2.31749
 30
0.0
 10
-1.89194
 20
2.31749
 30
0.0
 10
-1.93216
 20
2.1471
 30
0.0
 10
-1.83127
 20
1.97989
 30
0.0
 10
-1.71062
 20
1.8677
 30
0.0
 10
-1.71062
 20
1.8677
 30
0.0
 10
-1.63054
 20
1.78867
 30
0.0
 10
-1.49438
 20
1.75517
 30
0.0
 10
-1.39841
 20
1.82607
 30
0.0
 10
-1.39841
 20
1.82607
 30
0.0
 10
-1.3215
 20
1.86911
 30
0.0
 10
-1.29716
 20
1.95977
 30
0.0
 10
-1.27353
 20
2.03773
 30
0.0
 10
-1.27353
 20
2.03773
 30
0.0
 10
-1.28693
 20
2.05255
 30
0.0
 10
-1.31375
 20
2.08219
 30
0.0
 10
-1.32715
 20
2.09701
 30
0.0
 10
-1.32715
 20
2.09701
 30
0.0
 10
-1.40477
 20
2.1097
 30
0.0
 10
-1.4859
 20
2.12276
 30
0.0
 10
-1.54588
 20
2.17814
 30
0.0
 10
-1.54588
 20
2.17814
 30
0.0
 10
-1.50283
 20
2.254
 30
0.0
 10
-1.44638
 20
2.32631
 30
0.0
 10
-1.35996
 20
2.35453
 30
0.0
 10
-1.35996
 20
2.35453
 30
0.0
 10
-1.23895
 20
2.4198
 30
0.0
 10
-1.10243
 20
2.369
 30
0.0
 10
-0.9779
 20
2.3422
 30
0.0
 10
-0.9779
 20
2.3422
 30
0.0
 10
-0.99236
 20
2.58525
 30
0.0
 10
-0.97579
 20
2.82936
 30
0.0
 10
-0.92499
 20
3.06749
 30
0.0
 10
-0.92499
 20
3.06749
 30
0.0
 10
-1.21532
 20
2.83748
 30
0.0
 10
-1.5173
 20
2.62264
 30
0.0
 10
-1.82245
 20
2.41309
 30
0.0
  0
SPLINE
  5
4E
330
1F
100
AcDbEntity
  8
Camada 1
 62
   156
100
AcDbSpline
210
0.0
220
0.0
230
1.0
 70
    11
 71
     3
 72
    28
 73
    24
 74
     0
 42
0.0000000001
 43
0.0000000001
 12
1.0
 22
0.0
 32
0.0
 13
1.0
 23
0.0
 33
0.0
 40
0.0
 40
0.0
 40
0.0
 40
0.0
 40
0.1428571428571428
 40
0.1428571428571428
 40
0.1428571428571428
 40
0.1428571428571428
 40
0.2857142857142857
 40
0.2857142857142857
 40
0.2857142857142857
 40
0.2857142857142857
 40
0.4285714285714285
 40
0.4285714285714285
 40
0.4285714285714285
 40
0.4285714285714285
 40
0.5714285714285714
 40
0.5714285714285714
 40
0.5714285714285714
 40
0.5714285714285714
 40
0.7142857142857143
 40
0.7142857142857143
 40
0.7142857142857143
 40
0.7142857142857143
 40
1.0
 40
1.0
 40
1.0
 40
1.0
 10
3.54612
 20
2.58242
 30
0.0
 10
3.54612
 20
2.58242
 30
0.0
 10
3.54612
 20
2.58242
 30
0.0
 10
3.54612
 20
2.58242
 30
0.0
 10
3.54612
 20
2.58242
 30
0.0
 10
3.53518
 20
2.18097
 30
0.0
 10
3.56481
 20
1.77069
 30
0.0
 10
3.68723
 20
1.38651
 30
0.0
 10
3.68723
 20
1.38651
 30
0.0
 10
4.03577
 20
1.32689
 30
0.0
 10
4.3896
 20
1.36853
 30
0.0
 10
4.74062
 20
1.36429
 30
0.0
 10
4.74062
 20
1.36429
 30
0.0
 10
4.6623
 20
1.49411
 30
0.0
 10
4.61644
 20
1.64015
 30
0.0
 10
4.58998
 20
1.78903
 30
0.0
 10
4.58998
 20
1.78903
 30
0.0
 10
4.37761
 20
1.73436
 30
0.0
 10
4.15924
 20
1.82502
 30
0.0
 10
3.99131
 20
1.95273
 30
0.0
 10
3.99131
 20
1.95273
 30
0.0
 10
3.78882
 20
2.11428
 30
0.0
 10
3.59443
 20
2.3182
 30
0.0
 10
3.54612
 20
2.58242
 30
0.0
  0
SPLINE
  5
4F
330
1F
100
AcDbEntity
  8
Camada 1
 62
   156
100
AcDbSpline
210
0.0
220
0.0
230
1.0
 70
    11
 71
     3
 72
    44
 73
    40
 74
     0
 42
0.0000000001
 43
0.0000000001
 12
1.0
 22
0.0
 32
0.0
 13
1.0
 23
0.0
 33
0.0
 40
0.0
 40
0.0
 40
0.0
 40
0.0
 40
0.0909090909090909
 40
0.0909090909090909
 40
0.0909090909090909
 40
0.0909090909090909
 40
0.1818181818181818
 40
0.1818181818181818
 40
0.1818181818181818
 40
0.1818181818181818
 40
0.2727272727272727
 40
0.2727272727272727
 40
0.2727272727272727
 40
0.2727272727272727
 40
0.3636363636363636
 40
0.3636363636363636
 40
0.3636363636363636
 40
0.3636363636363636
 40
0.4545454545454545
 40
0.4545454545454545
 40
0.4545454545454545
 40
0.4545454545454545
 40
0.5454545454545454
 40
0.5454545454545454
 40
0.5454545454545454
 40
0.5454545454545454
 40
0.6363636363636364
 40
0.6363636363636364
 40
0.6363636363636364
 40
0.6363636363636364
 40
0.7272727272727273
 40
0.7272727272727273
 40
0.7272727272727273
 40
0.7272727272727273
 40
0.8181818181818182
 40
0.8181818181818182
 40
0.8181818181818182
 40
0.8181818181818182
 40
1.0
 40
1.0
 40
1.0
 40
1.0
 10
-3.21451
 20
1.59394
 30
0.0
 10
-3.21451
 20
1.59394
 30
0.0
 10
-3.21451
 20
1.59394
 30
0.0
 10
-3.21451
 20
1.59394
 30
0.0
 10
-3.21451
 20
1.59394
 30
0.0
 10
-3.41982
 20
1.27397
 30
0.0
 10
-3.3528
 20
0.81536
 30
0.0
 10
-3.06071
 20
0.56912
 30
0.0
 10
-3.06071
 20
0.56912
 30
0.0
 10
-3.00884
 20
0.88804
 30
0.0
 10
-2.78871
 20
1.21506
 30
0.0
 10
-2.45358
 20
1.27433
 30
0.0
 10
-2.45358
 20
1.27433
 30
0.0
 10
-2.02459
 20
1.35759
 30
0.0
 10
-1.55329
 20
0.9667
 30
0.0
 10
-1.63407
 20
0.51762
 30
0.0
 10
-1.63407
 20
0.51762
 30
0.0
 10
-1.19133
 20
0.52115
 30
0.0
 10
-0.74789
 20
0.50033
 30
0.0
 10
-0.30726
 20
0.46329
 30
0.0
 10
-0.30726
 20
0.46329
 30
0.0
 10
-0.58702
 20
0.85488
 30
0.0
 10
-0.79516
 20
1.29868
 30
0.0
 10
-0.90347
 20
1.76857
 30
0.0
 10
-0.90347
 20
1.76857
 30
0.0
 10
-1.00365
 20
1.63593
 30
0.0
 10
-1.12818
 20
1.50857
 30
0.0
 10
-1.29363
 20
1.46413
 30
0.0
 10
-1.29363
 20
1.46413
 30
0.0
 10
-1.55645
 20
1.38122
 30
0.0
 10
-1.85844
 20
1.46978
 30
0.0
 10
-2.04435
 20
1.6705
 30
0.0
 10
-2.04435
 20
1.6705
 30
0.0
 10
-2.16887
 20
1.80244
 30
0.0
 10
-2.22286
 20
1.988
 30
0.0
 10
-2.21686
 20
2.16686
 30
0.0
 10
-2.21686
 20
2.16686
 30
0.0
 10
-2.53787
 20
1.95624
 30
0.0
 10
-2.88113
 20
1.78233
 30
0.0
 10
-3.21451
 20
1.59394
 30
0.0
  0
SPLINE
  5
50
330
1F
100
AcDbEntity
  8
Camada 1
 62
   156
100
AcDbSpline
210
0.0
220
0.0
230
1.0
 70
    11
 71
     3
 72
    56
 73
    52
 74
     0
 42
0.0000000001
 43
0.0000000001
 12
1.0
 22
0.0
 32
0.0
 13
1.0
 23
0.0
 33
0.0
 40
0.0
 40
0.0
 40
0.0
 40
0.0
 40
0.0714285714285714
 40
0.0714285714285714
 40
0.0714285714285714
 40
0.0714285714285714
 40
0.1428571428571428
 40
0.1428571428571428
 40
0.1428571428571428
 40
0.1428571428571428
 40
0.2142857142857143
 40
0.2142857142857143
 40
0.2142857142857143
 40
0.2142857142857143
 40
0.2857142857142857
 40
0.2857142857142857
 40
0.2857142857142857
 40
0.2857142857142857
 40
0.3571428571428572
 40
0.3571428571428572
 40
0.3571428571428572
 40
0.3571428571428572
 40
0.4285714285714285
 40
0.4285714285714285
 40
0.4285714285714285
 40
0.4285714285714285
 40
0.5
 40
0.5
 40
0.5
 40
0.5
 40
0.5714285714285714
 40
0.5714285714285714
 40
0.5714285714285714
 40
0.5714285714285714
 40
0.6428571428571429
 40
0.6428571428571429
 40
0.6428571428571429
 40
0.6428571428571429
 40
0.7142857142857143
 40
0.7142857142857143
 40
0.7142857142857143
 40
0.7142857142857143
 40
0.7857142857142857
 40
0.7857142857142857
 40
0.7857142857142857
 40
0.7857142857142857
 40
0.8571428571428571
 40
0.8571428571428571
 40
0.8571428571428571
 40
0.8571428571428571
 40
1.0
 40
1.0
 40
1.0
 40
1.0
 10
-4.74909
 20
0.93072
 30
0.0
 10
-4.74909
 20
0.93072
 30
0.0
 10
-4.74909
 20
0.93072
 30
0.0
 10
-4.74909
 20
0.93072
 30
0.0
 10
-4.74909
 20
0.93072
 30
0.0
 10
-4.80518
 20
0.70317
 30
0.0
 10
-4.73533
 20
0.4333
 30
0.0
 10
-4.52756
 20
0.30596
 30
0.0
 10
-4.52756
 20
0.30596
 30
0.0
 10
-4.39526
 20
0.33947
 30
0.0
 10
-4.25696
 20
0.3437
 30
0.0
 10
-4.1275
 20
0.38779
 30
0.0
 10
-4.1275
 20
0.38779
 30
0.0
 10
-4.01143
 20
0.46999
 30
0.0
 10
-4.06646
 20
0.6224
 30
0.0
 10
-4.11797
 20
0.72576
 30
0.0
 10
-4.11797
 20
0.72576
 30
0.0
 10
-4.18606
 20
0.76915
 30
0.0
 10
-4.26191
 20
0.77021
 30
0.0
 10
-4.32964
 20
0.72541
 30
0.0
 10
-4.32964
 20
0.72541
 30
0.0
 10
-4.30213
 20
0.66226
 30
0.0
 10
-4.2418
 20
0.59558
 30
0.0
 10
-4.28943
 20
0.52644
 30
0.0
 10
-4.28943
 20
0.52644
 30
0.0
 10
-4.32647
 20
0.51445
 30
0.0
 10
-4.36316
 20
0.5021
 30
0.0
 10
-4.39949
 20
0.48904
 30
0.0
 10
-4.39949
 20
0.48904
 30
0.0
 10
-4.47815
 20
0.52785
 30
0.0
 10
-4.56812
 20
0.59064
 30
0.0
 10
-4.56283
 20
0.68907
 30
0.0
 10
-4.56283
 20
0.68907
 30
0.0
 10
-4.54237
 20
0.83512
 30
0.0
 10
-4.39173
 20
0.92967
 30
0.0
 10
-4.25555
 20
0.94695
 30
0.0
 10
-4.25555
 20
0.94695
 30
0.0
 10
-3.98004
 20
0.98576
 30
0.0
 10
-3.79518
 20
0.65238
 30
0.0
 10
-3.86503
 20
0.41213
 30
0.0
 10
-3.86503
 20
0.41213
 30
0.0
 10
-3.73133
 20
0.41425
 30
0.0
 10
-3.59798
 20
0.41673
 30
0.0
 10
-3.46428
 20
0.41284
 30
0.0
 10
-3.46428
 20
0.41284
 30
0.0
 10
-3.73909
 20
0.65556
 30
0.0
 10
-3.86891
 20
1.04503
 30
0.0
 10
-3.79484
 20
1.40415
 30
0.0
 10
-3.79484
 20
1.40415
 30
0.0
 10
-4.11022
 20
1.24116
 30
0.0
 10
-4.42843
 20
1.08277
 30
0.0
 10
-4.74909
 20
0.93072
 30
0.0
  0
SPLINE
  5
51
330
1F
100
AcDbEntity
  8
Camada 1
 62
   156
100
AcDbSpline
210
0.0
220
0.0
230
1.0
 70
    11
 71
     3
 72
    24
 73
    20
 74
     0
 42
0.0000000001
 43
0.0000000001
 12
1.0
 22
0.0
 32
0.0
 13
1.0
 23
0.0
 33
0.0
 40
0.0
 40
0.0
 40
0.0
 40
0.0
 40
0.1666666666666667
 40
0.1666666666666667
 40
0.1666666666666667
 40
0.1666666666666667
 40
0.3333333333333333
 40
0.3333333333333333
 40
0.3333333333333333
 40
0.3333333333333333
 40
0.5
 40
0.5
 40
0.5
 40
0.5
 40
0.6666666666666666
 40
0.6666666666666666
 40
0.6666666666666666
 40
0.6666666666666666
 40
1.0
 40
1.0
 40
1.0
 40
1.0
 10
3.72356
 20
1.09936
 30
0.0
 10
3.72356
 20
1.09936
 30
0.0
 10
3.72356
 20
1.09936
 30
0.0
 10
3.72356
 20
1.09936
 30
0.0
 10
3.72356
 20
1.09936
 30
0.0
 10
3.71157
 20
0.84289
 30
0.0
 10
3.57575
 20
0.61605
 30
0.0
 10
3.48049
 20
0.38392
 30
0.0
 10
3.48049
 20
0.38392
 30
0.0
 10
3.55282
 20
0.34018
 30
0.0
 10
3.62442
 20
0.29538
 30
0.0
 10
3.69427
 20
0.24775
 30
0.0
 10
3.69427
 20
0.24775
 30
0.0
 10
3.72955
 20
0.63544
 30
0.0
 10
4.0393
 20
1.00798
 30
0.0
 10
4.42911
 20
1.07008
 30
0.0
 10
4.42911
 20
1.07008
 30
0.0
 10
4.19416
 20
1.08453
 30
0.0
 10
3.95815
 20
1.07783
 30
0.0
 10
3.72356
 20
1.09936
 30
0.0
  0
SPLINE
  5
52
330
1F
100
AcDbEntity
  8
Camada 1
 62
   156
100
AcDbSpline
210
0.0
220
0.0
230
1.0
 70
    11
 71
     3
 72
    24
 73
    20
 74
     0
 42
0.0000000001
 43
0.0000000001
 12
1.0
 22
0.0
 32
0.0
 13
1.0
 23
0.0
 33
0.0
 40
0.0
 40
0.0
 40
0.0
 40
0.0
 40
0.1666666666666667
 40
0.1666666666666667
 40
0.1666666666666667
 40
0.1666666666666667
 40
0.3333333333333333
 40
0.3333333333333333
 40
0.3333333333333333
 40
0.3333333333333333
 40
0.5
 40
0.5
 40
0.5
 40
0.5
 40
0.6666666666666666
 40
0.6666666666666666
 40
0.6666666666666666
 40
0.6666666666666666
 40
1.0
 40
1.0
 40
1.0
 40
1.0
 10
4.86304
 20
1.04184
 30
0.0
 10
4.86304
 20
1.04184
 30
0.0
 10
4.86304
 20
1.04184
 30
0.0
 10
4.86304
 20
1.04184
 30
0.0
 10
4.86304
 20
1.04184
 30
0.0
 10
5.0807
 20
0.92473
 30
0.0
 10
5.22111
 20
0.70636
 30
0.0
 10
5.27049
 20
0.46717
 30
0.0
 10
5.27049
 20
0.46717
 30
0.0
 10
5.32411
 20
0.60686
 30
0.0
 10
5.35903
 20
0.75857
 30
0.0
 10
5.34458
 20
0.9085
 30
0.0
 10
5.34458
 20
0.9085
 30
0.0
 10
5.34351
 20
0.96988
 30
0.0
 10
5.29237
 20
1.02315
 30
0.0
 10
5.23134
 20
1.02668
 30
0.0
 10
5.23134
 20
1.02668
 30
0.0
 10
5.10857
 20
1.0355
 30
0.0
 10
4.9851
 20
1.02739
 30
0.0
 10
4.86304
 20
1.04184
 30
0.0
  0
SPLINE
  5
53
330
1F
100
AcDbEntity
  8
Camada 1
 62
   156
100
AcDbSpline
210
0.0
220
0.0
230
1.0
 70
    11
 71
     3
 72
    24
 73
    20
 74
     0
 42
0.0000000001
 43
0.0000000001
 12
1.0
 22
0.0
 32
0.0
 13
1.0
 23
0.0
 33
0.0
 40
0.0
 40
0.0
 40
0.0
 40
0.0
 40
0.1666666666666667
 40
0.1666666666666667
 40
0.1666666666666667
 40
0.1666666666666667
 40
0.3333333333333333
 40
0.3333333333333333
 40
0.3333333333333333
 40
0.3333333333333333
 40
0.5
 40
0.5
 40
0.5
 40
0.5
 40
0.6666666666666666
 40
0.6666666666666666
 40
0.6666666666666666
 40
0.6666666666666666
 40
1.0
 40
1.0
 40
1.0
 40
1.0
 10
-2.60032
 20
0.80654
 30
0.0
 10
-2.60032
 20
0.80654
 30
0.0
 10
-2.60032
 20
0.80654
 30
0.0
 10
-2.60032
 20
0.80654
 30
0.0
 10
-2.60032
 20
0.80654
 30
0.0
 10
-2.71004
 20
0.73353
 30
0.0
 10
-2.73439
 20
0.59558
 30
0.0
 10
-2.7425
 20
0.47387
 30
0.0
 10
-2.7425
 20
0.47387
 30
0.0
 10
-2.50861
 20
0.49328
 30
0.0
 10
-2.27471
 20
0.50951
 30
0.0
 10
-2.04047
 20
0.51621
 30
0.0
 10
-2.04047
 20
0.51621
 30
0.0
 10
-2.01153
 20
0.6291
 30
0.0
 10
-1.98296
 20
0.76844
 30
0.0
 10
-2.08138
 20
0.857
 30
0.0
 10
-2.08138
 20
0.857
 30
0.0
 10
-2.2345
 20
0.98047
 30
0.0
 10
-2.45499
 20
0.90743
 30
0.0
 10
-2.60032
 20
0.80654
 30
0.0
  0
SPLINE
  5
54
330
1F
100
AcDbEntity
  8
Camada 1
 62
   156
100
AcDbSpline
210
0.0
220
0.0
230
1.0
 70
    11
 71
     3
 72
    24
 73
    20
 74
     0
 42
0.0000000001
 43
0.0000000001
 12
1.0
 22
0.0
 32
0.0
 13
1.0
 23
0.0
 33
0.0
 40
0.0
 40
0.0
 40
0.0
 40
0.0
 40
0.1666666666666667
 40
0.1666666666666667
 40
0.1666666666666667
 40
0.1666666666666667
 40
0.3333333333333333
 40
0.3333333333333333
 40
0.3333333333333333
 40
0.3333333333333333
 40
0.5
 40
0.5
 40
0.5
 40
0.5
 40
0.6666666666666666
 40
0.6666666666666666
 40
0.6666666666666666
 40
0.6666666666666666
 40
1.0
 40
1.0
 40
1.0
 40
1.0
 10
-0.00458
 20
0.80337
 30
0.0
 10
-0.00458
 20
0.80337
 30
0.0
 10
-0.00458
 20
0.80337
 30
0.0
 10
-0.00458
 20
0.80337
 30
0.0
 10
-0.00458
 20
0.80337
 30
0.0
 10
0.02256
 20
0.63756
 30
0.0
 10
0.05715
 20
0.45201
 30
0.0
 10
0.19261
 20
0.33736
 30
0.0
 10
0.19261
 20
0.33736
 30
0.0
 10
0.20107
 20
0.355
 30
0.0
 10
0.218
 20
0.39098
 30
0.0
 10
0.22647
 20
0.40862
 30
0.0
 10
0.22647
 20
0.40862
 30
0.0
 10
0.15768
 20
0.54125
 30
0.0
 10
0.11007
 20
0.68166
 30
0.0
 10
0.08607
 20
0.82913
 30
0.0
 10
0.08607
 20
0.82913
 30
0.0
 10
0.09947
 20
0.90955
 30
0.0
 10
-0.04409
 20
0.8704
 30
0.0
 10
-0.00458
 20
0.80337
 30
0.0
  0
SPLINE
  5
55
330
1F
100
AcDbEntity
  8
Camada 1
 62
   156
100
AcDbSpline
210
0.0
220
0.0
230
1.0
 70
    11
 71
     3
 72
    64
 73
    60
 74
     0
 42
0.0000000001
 43
0.0000000001
 12
1.0
 22
0.0
 32
0.0
 13
1.0
 23
0.0
 33
0.0
 40
0.0
 40
0.0
 40
0.0
 40
0.0
 40
0.0625
 40
0.0625
 40
0.0625
 40
0.0625
 40
0.125
 40
0.125
 40
0.125
 40
0.125
 40
0.1875
 40
0.1875
 40
0.1875
 40
0.1875
 40
0.25
 40
0.25
 40
0.25
 40
0.25
 40
0.3125
 40
0.3125
 40
0.3125
 40
0.3125
 40
0.375
 40
0.375
 40
0.375
 40
0.375
 40
0.4375
 40
0.4375
 40
0.4375
 40
0.4375
 40
0.5
 40
0.5
 40
0.5
 40
0.5
 40
0.5625
 40
0.5625
 40
0.5625
 40
0.5625
 40
0.625
 40
0.625
 40
0.625
 40
0.625
 40
0.6875
 40
0.6875
 40
0.6875
 40
0.6875
 40
0.75
 40
0.75
 40
0.75
 40
0.75
 40
0.8125
 40
0.8125
 40
0.8125
 40
0.8125
 40
0.875
 40
0.875
 40
0.875
 40
0.875
 40
1.0
 40
1.0
 40
1.0
 40
1.0
 10
4.22627
 20
0.74517
 30
0.0
 10
4.22627
 20
0.74517
 30
0.0
 10
4.22627
 20
0.74517
 30
0.0
 10
4.22627
 20
0.74517
 30
0.0
 10
4.22627
 20
0.74517
 30
0.0
 10
4.03789
 20
0.58818
 30
0.0
 10
3.9056
 20
0.35146
 30
0.0
 10
3.91442
 20
0.10135
 30
0.0
 10
3.91442
 20
0.10135
 30
0.0
 10
4.13843
 20
-0.0207
 30
0.0
 10
4.3448
 20
-0.17134
 30
0.0
 10
4.56423
 20
-0.30082
 30
0.0
 10
4.56423
 20
-0.30082
 30
0.0
 10
4.72581
 20
-0.39394
 30
0.0
 10
4.86021
 20
-0.54175
 30
0.0
 10
5.0493
 20
-0.58022
 30
0.0
 10
5.0493
 20
-0.58022
 30
0.0
 10
5.10151
 20
-0.40417
 30
0.0
 10
5.1181
 20
-0.22038
 30
0.0
 10
5.15408
 20
-0.04082
 30
0.0
 10
5.15408
 20
-0.04082
 30
0.0
 10
4.98615
 20
-0.08385
 30
0.0
 10
4.81434
 20
-0.1516
 30
0.0
 10
4.63866
 20
-0.11172
 30
0.0
 10
4.63866
 20
-0.11172
 30
0.0
 10
4.43618
 20
-0.07503
 30
0.0
 10
4.28625
 20
0.11404
 30
0.0
 10
4.26261
 20
0.31301
 30
0.0
 10
4.26261
 20
0.31301
 30
0.0
 10
4.26154
 20
0.44495
 30
0.0
 10
4.35397
 20
0.57054
 30
0.0
 10
4.48451
 20
0.60087
 30
0.0
 10
4.48451
 20
0.60087
 30
0.0
 10
4.62068
 20
0.65238
 30
0.0
 10
4.76496
 20
0.58112
 30
0.0
 10
4.85386
 20
0.47669
 30
0.0
 10
4.85386
 20
0.47669
 30
0.0
 10
4.84716
 20
0.40967
 30
0.0
 10
4.85493
 20
0.31689
 30
0.0
 10
4.77624
 20
0.28866
 30
0.0
 10
4.77624
 20
0.28866
 30
0.0
 10
4.68135
 20
0.27491
 30
0.0
 10
4.6228
 20
0.37015
 30
0.0
 10
4.55646
 20
0.42061
 30
0.0
 10
4.55646
 20
0.42061
 30
0.0
 10
4.46968
 20
0.35641
 30
0.0
 10
4.47321
 20
0.22341
 30
0.0
 10
4.554
 20
0.15603
 30
0.0
 10
4.554
 20
0.15603
 30
0.0
 10
4.66794
 20
0.05867
 30
0.0
 10
4.8514
 20
0.06147
 30
0.0
 10
4.97346
 20
0.14297
 30
0.0
 10
4.97346
 20
0.14297
 30
0.0
 10
5.1068
 20
0.24317
 30
0.0
 10
5.07434
 20
0.44283
 30
0.0
 10
5.0112
 20
0.57512
 30
0.0
 10
5.0112
 20
0.57512
 30
0.0
 10
4.88349
 20
0.86616
 30
0.0
 10
4.46546
 20
0.94166
 30
0.0
 10
4.22627
 20
0.74517
 30
0.0
  0
SPLINE
  5
56
330
1F
100
AcDbEntity
  8
Camada 1
 62
   156
100
AcDbSpline
210
0.0
220
0.0
230
1.0
 70
    11
 71
     3
 72
    40
 73
    36
 74
     0
 42
0.0000000001
 43
0.0000000001
 12
1.0
 22
0.0
 32
0.0
 13
1.0
 23
0.0
 33
0.0
 40
0.0
 40
0.0
 40
0.0
 40
0.0
 40
0.1
 40
0.1
 40
0.1
 40
0.1
 40
0.2
 40
0.2
 40
0.2
 40
0.2
 40
0.3
 40
0.3
 40
0.3
 40
0.3
 40
0.4
 40
0.4
 40
0.4
 40
0.4
 40
0.5
 40
0.5
 40
0.5
 40
0.5
 40
0.6
 40
0.6
 40
0.6
 40
0.6
 40
0.7
 40
0.7
 40
0.7
 40
0.7
 40
0.8
 40
0.8
 40
0.8
 40
0.8
 40
1.0
 40
1.0
 40
1.0
 40
1.0
 10
0.55703
 20
0.4372
 30
0.0
 10
0.55703
 20
0.4372
 30
0.0
 10
0.55703
 20
0.4372
 30
0.0
 10
0.55703
 20
0.4372
 30
0.0
 10
0.55703
 20
0.4372
 30
0.0
 10
0.55703
 20
0.4372
 30
0.0
 10
0.53657
 20
0.41003
 30
0.0
 10
0.53657
 20
0.41003
 30
0.0
 10
0.53657
 20
0.41003
 30
0.0
 10
0.82303
 20
0.24246
 30
0.0
 10
1.03611
 20
-0.01965
 30
0.0
 10
1.21954
 20
-0.29129
 30
0.0
 10
1.21954
 20
-0.29129
 30
0.0
 10
1.45379
 20
-0.64653
 30
0.0
 10
1.66368
 20
-1.03035
 30
0.0
 10
1.74025
 20
-1.45334
 30
0.0
 10
1.74025
 20
-1.45334
 30
0.0
 10
1.74025
 20
-1.51331
 30
0.0
 10
1.83196
 20
-1.47768
 30
0.0
 10
1.83091
 20
-1.435
 30
0.0
 10
1.83091
 20
-1.435
 30
0.0
 10
1.7921
 20
-1.14218
 30
0.0
 10
1.6658
 20
-0.86985
 30
0.0
 10
1.52788
 20
-0.6116
 30
0.0
 10
1.52788
 20
-0.6116
 30
0.0
 10
1.35641
 20
-0.30258
 30
0.0
 10
1.15851
 20
-0.00413
 30
0.0
 10
0.9084
 20
0.24739
 30
0.0
 10
0.9084
 20
0.24739
 30
0.0
 10
0.81385
 20
0.33806
 30
0.0
 10
0.7126
 20
0.43084
 30
0.0
 10
0.5849
 20
0.47106
 30
0.0
 10
0.5849
 20
0.47106
 30
0.0
 10
0.5849
 20
0.47106
 30
0.0
 10
0.55703
 20
0.4372
 30
0.0
 10
0.55703
 20
0.4372
 30
0.0
  0
SPLINE
  5
57
330
1F
100
AcDbEntity
  8
Camada 1
 62
   156
100
AcDbSpline
210
0.0
220
0.0
230
1.0
 70
    11
 71
     3
 72
    60
 73
    56
 74
     0
 42
0.0000000001
 43
0.0000000001
 12
1.0
 22
0.0
 32
0.0
 13
1.0
 23
0.0
 33
0.0
 40
0.0
 40
0.0
 40
0.0
 40
0.0
 40
0.0666666666666667
 40
0.0666666666666667
 40
0.0666666666666667
 40
0.0666666666666667
 40
0.1333333333333333
 40
0.1333333333333333
 40
0.1333333333333333
 40
0.1333333333333333
 40
0.2
 40
0.2
 40
0.2
 40
0.2
 40
0.2666666666666667
 40
0.2666666666666667
 40
0.2666666666666667
 40
0.2666666666666667
 40
0.3333333333333333
 40
0.3333333333333333
 40
0.3333333333333333
 40
0.3333333333333333
 40
0.4
 40
0.4
 40
0.4
 40
0.4
 40
0.4666666666666667
 40
0.4666666666666667
 40
0.4666666666666667
 40
0.4666666666666667
 40
0.5333333333333333
 40
0.5333333333333333
 40
0.5333333333333333
 40
0.5333333333333333
 40
0.6
 40
0.6
 40
0.6
 40
0.6
 40
0.6666666666666666
 40
0.6666666666666666
 40
0.6666666666666666
 40
0.6666666666666666
 40
0.7333333333333333
 40
0.7333333333333333
 40
0.7333333333333333
 40
0.7333333333333333
 40
0.8
 40
0.8
 40
0.8
 40
0.8
 40
0.8666666666666667
 40
0.8666666666666667
 40
0.8666666666666667
 40
0.8666666666666667
 40
1.0
 40
1.0
 40
1.0
 40
1.0
 10
2.68181
 20
-0.18122
 30
0.0
 10
2.68181
 20
-0.18122
 30
0.0
 10
2.68181
 20
-0.18122
 30
0.0
 10
2.68181
 20
-0.18122
 30
0.0
 10
2.68181
 20
-0.18122
 30
0.0
 10
2.52906
 20
-0.26448
 30
0.0
 10
2.37455
 20
-0.36008
 30
0.0
 10
2.19779
 20
-0.37878
 30
0.0
 10
2.19779
 20
-0.37878
 30
0.0
 10
2.50754
 20
-0.47614
 30
0.0
 10
2.74601
 20
-0.71074
 30
0.0
 10
2.9799
 20
-0.92488
 30
0.0
 10
2.9799
 20
-0.92488
 30
0.0
 10
3.16547
 20
-1.10232
 30
0.0
 10
3.33056
 20
-1.29952
 30
0.0
 10
3.49673
 20
-1.49425
 30
0.0
 10
3.49673
 20
-1.49425
 30
0.0
 10
3.55669
 20
-1.36973
 30
0.0
 10
3.46285
 20
-1.23778
 30
0.0
 10
3.48614
 20
-1.10727
 30
0.0
 10
3.48614
 20
-1.10727
 30
0.0
 10
3.49566
 20
-0.85996
 30
0.0
 10
3.60574
 20
-0.62113
 30
0.0
 10
3.56868
 20
-0.37243
 30
0.0
 10
3.56868
 20
-0.37243
 30
0.0
 10
3.53447
 20
-0.24189
 30
0.0
 10
3.38596
 20
-0.17945
 30
0.0
 10
3.2646
 20
-0.23307
 30
0.0
 10
3.2646
 20
-0.23307
 30
0.0
 10
3.25649
 20
-0.25602
 30
0.0
 10
3.24026
 20
-0.30187
 30
0.0
 10
3.23215
 20
-0.32516
 30
0.0
 10
3.23215
 20
-0.32516
 30
0.0
 10
3.2706
 20
-0.38019
 30
0.0
 10
3.34079
 20
-0.42464
 30
0.0
 10
3.33938
 20
-0.49943
 30
0.0
 10
3.33938
 20
-0.49943
 30
0.0
 10
3.32386
 20
-0.58656
 30
0.0
 10
3.25013
 20
-0.65606
 30
0.0
 10
3.15982
 20
-0.65535
 30
0.0
 10
3.15982
 20
-0.65535
 30
0.0
 10
3.05187
 20
-0.54036
 30
0.0
 10
2.9739
 20
-0.37137
 30
0.0
 10
3.0353
 20
-0.21509
 30
0.0
 10
3.0353
 20
-0.21509
 30
0.0
 10
3.05964
 20
-0.11737
 30
0.0
 10
3.15241
 20
-0.06869
 30
0.0
 10
3.22121
 20
-0.00554
 30
0.0
 10
3.22121
 20
-0.00554
 30
0.0
 10
3.23919
 20
0.06607
 30
0.0
 10
3.24343
 20
0.1405
 30
0.0
 10
3.25895
 20
0.21282
 30
0.0
 10
3.25895
 20
0.21282
 30
0.0
 10
3.08503
 20
0.05689
 30
0.0
 10
2.88359
 20
-0.0648
 30
0.0
 10
2.68181
 20
-0.18122
 30
0.0
  0
SPLINE
  5
58
330
1F
100
AcDbEntity
  8
Camada 1
 62
   156
100
AcDbSpline
210
0.0
220
0.0
230
1.0
 70
    11
 71
     3
 72
    76
 73
    72
 74
     0
 42
0.0000000001
 43
0.0000000001
 12
1.0
 22
0.0
 32
0.0
 13
1.0
 23
0.0
 33
0.0
 40
0.0
 40
0.0
 40
0.0
 40
0.0
 40
0.0526315789473684
 40
0.0526315789473684
 40
0.0526315789473684
 40
0.0526315789473684
 40
0.1052631578947368
 40
0.1052631578947368
 40
0.1052631578947368
 40
0.1052631578947368
 40
0.1578947368421053
 40
0.1578947368421053
 40
0.1578947368421053
 40
0.1578947368421053
 40
0.2105263157894737
 40
0.2105263157894737
 40
0.2105263157894737
 40
0.2105263157894737
 40
0.2631578947368421
 40
0.2631578947368421
 40
0.2631578947368421
 40
0.2631578947368421
 40
0.3157894736842105
 40
0.3157894736842105
 40
0.3157894736842105
 40
0.3157894736842105
 40
0.3684210526315789
 40
0.3684210526315789
 40
0.3684210526315789
 40
0.3684210526315789
 40
0.4210526315789473
 40
0.4210526315789473
 40
0.4210526315789473
 40
0.4210526315789473
 40
0.4736842105263158
 40
0.4736842105263158
 40
0.4736842105263158
 40
0.4736842105263158
 40
0.5263157894736842
 40
0.5263157894736842
 40
0.5263157894736842
 40
0.5263157894736842
 40
0.5789473684210527
 40
0.5789473684210527
 40
0.5789473684210527
 40
0.5789473684210527
 40
0.631578947368421
 40
0.631578947368421
 40
0.631578947368421
 40
0.631578947368421
 40
0.6842105263157895
 40
0.6842105263157895
 40
0.6842105263157895
 40
0.6842105263157895
 40
0.7368421052631579
 40
0.7368421052631579
 40
0.7368421052631579
 40
0.7368421052631579
 40
0.7894736842105263
 40
0.7894736842105263
 40
0.7894736842105263
 40
0.7894736842105263
 40
0.8421052631578947
 40
0.8421052631578947
 40
0.8421052631578947
 40
0.8421052631578947
 40
0.8947368421052632
 40
0.8947368421052632
 40
0.8947368421052632
 40
0.8947368421052632
 40
1.0
 40
1.0
 40
1.0
 40
1.0
 10
3.63889
 20
-0.12407
 30
0.0
 10
3.63889
 20
-0.12407
 30
0.0
 10
3.63889
 20
-0.12407
 30
0.0
 10
3.63889
 20
-0.12407
 30
0.0
 10
3.63889
 20
-0.12407
 30
0.0
 10
3.71439
 20
-0.21051
 30
0.0
 10
3.77331
 20
-0.31527
 30
0.0
 10
3.78636
 20
-0.43134
 30
0.0
 10
3.78636
 20
-0.43134
 30
0.0
 10
3.81669
 20
-0.73931
 30
0.0
 10
3.66112
 20
-1.03917
 30
0.0
 10
3.72743
 20
-1.3468
 30
0.0
 10
3.72743
 20
-1.3468
 30
0.0
 10
3.76378
 20
-1.46533
 30
0.0
 10
3.83892
 20
-1.58493
 30
0.0
 10
3.95993
 20
-1.63008
 30
0.0
 10
3.95993
 20
-1.63008
 30
0.0
 10
4.155
 20
-1.68689
 30
0.0
 10
4.34939
 20
-1.43042
 30
0.0
 10
4.23226
 20
-1.26424
 30
0.0
 10
4.23226
 20
-1.26424
 30
0.0
 10
4.14619
 20
-1.2004
 30
0.0
 10
4.09821
 20
-1.32846
 30
0.0
 10
4.05304
 20
-1.38101
 30
0.0
 10
4.05304
 20
-1.38101
 30
0.0
 10
4.03012
 20
-1.38737
 30
0.0
 10
3.98426
 20
-1.40006
 30
0.0
 10
3.96134
 20
-1.40642
 30
0.0
 10
3.96134
 20
-1.40642
 30
0.0
 10
3.80893
 20
-1.27871
 30
0.0
 10
3.94933
 20
-0.99015
 30
0.0
 10
4.14301
 20
-1.0106
 30
0.0
 10
4.14301
 20
-1.0106
 30
0.0
 10
4.38396
 20
-1.03318
 30
0.0
 10
4.5413
 20
-1.3348
 30
0.0
 10
4.44005
 20
-1.54999
 30
0.0
 10
4.44005
 20
-1.54999
 30
0.0
 10
4.36915
 20
-1.72638
 30
0.0
 10
4.18182
 20
-1.83258
 30
0.0
 10
3.99908
 20
-1.8488
 30
0.0
 10
3.99908
 20
-1.8488
 30
0.0
 10
3.85339
 20
-1.85692
 30
0.0
 10
3.74227
 20
-1.75674
 30
0.0
 10
3.63784
 20
-1.67135
 30
0.0
 10
3.63784
 20
-1.67135
 30
0.0
 10
3.7352
 20
-1.83151
 30
0.0
 10
3.83222
 20
-1.99238
 30
0.0
 10
3.9056
 20
-2.16524
 30
0.0
 10
3.9056
 20
-2.16524
 30
0.0
 10
4.04318
 20
-2.1081
 30
0.0
 10
4.18853
 20
-2.06505
 30
0.0
 10
4.31411
 20
-1.98215
 30
0.0
 10
4.31411
 20
-1.98215
 30
0.0
 10
4.50673
 20
-1.85621
 30
0.0
 10
4.6295
 20
-1.65512
 30
0.0
 10
4.73816
 20
-1.45792
 30
0.0
 10
4.73816
 20
-1.45792
 30
0.0
 10
4.82175
 20
-1.30376
 30
0.0
 10
4.92936
 20
-1.14678
 30
0.0
 10
4.92371
 20
-0.96403
 30
0.0
 10
4.92371
 20
-0.96403
 30
0.0
 10
4.91489
 20
-0.8448
 30
0.0
 10
4.80976
 20
-0.7686
 30
0.0
 10
4.73214
 20
-0.69063
 30
0.0
 10
4.73214
 20
-0.69063
 30
0.0
 10
4.42841
 20
-0.42429
 30
0.0
 10
4.06011
 20
-0.24895
 30
0.0
 10
3.70239
 20
-0.06833
 30
0.0
 10
3.70239
 20
-0.06833
 30
0.0
 10
3.66852
 20
-0.04328
 30
0.0
 10
3.66006
 20
-0.10889
 30
0.0
 10
3.63889
 20
-0.12407
 30
0.0
  0
SPLINE
  5
59
330
1F
100
AcDbEntity
  8
Camada 1
 62
   156
100
AcDbSpline
210
0.0
220
0.0
230
1.0
 70
    11
 71
     3
 72
    28
 73
    24
 74
     0
 42
0.0000000001
 43
0.0000000001
 12
1.0
 22
0.0
 32
0.0
 13
1.0
 23
0.0
 33
0.0
 40
0.0
 40
0.0
 40
0.0
 40
0.0
 40
0.1428571428571428
 40
0.1428571428571428
 40
0.1428571428571428
 40
0.1428571428571428
 40
0.2857142857142857
 40
0.2857142857142857
 40
0.2857142857142857
 40
0.2857142857142857
 40
0.4285714285714285
 40
0.4285714285714285
 40
0.4285714285714285
 40
0.4285714285714285
 40
0.5714285714285714
 40
0.5714285714285714
 40
0.5714285714285714
 40
0.5714285714285714
 40
0.7142857142857143
 40
0.7142857142857143
 40
0.7142857142857143
 40
0.7142857142857143
 40
1.0
 40
1.0
 40
1.0
 40
1.0
 10
-5.89138
 20
-0.58621
 30
0.0
 10
-5.89138
 20
-0.58621
 30
0.0
 10
-5.89138
 20
-0.58621
 30
0.0
 10
-5.89138
 20
-0.58621
 30
0.0
 10
-5.89138
 20
-0.58621
 30
0.0
 10
-5.72629
 20
-0.6998
 30
0.0
 10
-5.51285
 20
-0.72345
 30
0.0
 10
-5.32024
 20
-0.67864
 30
0.0
 10
-5.32024
 20
-0.67864
 30
0.0
 10
-5.31108
 20
-0.66276
 30
0.0
 10
-5.29273
 20
-0.63136
 30
0.0
 10
-5.28321
 20
-0.6155
 30
0.0
 10
-5.28321
 20
-0.6155
 30
0.0
 10
-5.33013
 20
-0.56575
 30
0.0
 10
-5.39537
 20
-0.59467
 30
0.0
 10
-5.45289
 20
-0.59961
 30
0.0
 10
-5.45289
 20
-0.59961
 30
0.0
 10
-5.59259
 20
-0.62395
 30
0.0
 10
-5.72664
 20
-0.5647
 30
0.0
 10
-5.84941
 20
-0.50577
 30
0.0
 10
-5.84941
 20
-0.50577
 30
0.0
 10
-5.90939
 20
-0.45921
 30
0.0
 10
-5.94113
 20
-0.56046
 30
0.0
 10
-5.89138
 20
-0.58621
 30
0.0
  0
SPLINE
  5
5A
330
1F
100
AcDbEntity
  8
Camada 1
 62
   156
100
AcDbSpline
210
0.0
220
0.0
230
1.0
 70
    11
 71
     3
 72
    88
 73
    84
 74
     0
 42
0.0000000001
 43
0.0000000001
 12
1.0
 22
0.0
 32
0.0
 13
1.0
 23
0.0
 33
0.0
 40
0.0
 40
0.0
 40
0.0
 40
0.0
 40
0.0454545454545455
 40
0.0454545454545455
 40
0.0454545454545455
 40
0.0454545454545455
 40
0.0909090909090909
 40
0.0909090909090909
 40
0.0909090909090909
 40
0.0909090909090909
 40
0.1363636363636364
 40
0.1363636363636364
 40
0.1363636363636364
 40
0.1363636363636364
 40
0.1818181818181818
 40
0.1818181818181818
 40
0.1818181818181818
 40
0.1818181818181818
 40
0.2272727272727273
 40
0.2272727272727273
 40
0.2272727272727273
 40
0.2272727272727273
 40
0.2727272727272727
 40
0.2727272727272727
 40
0.2727272727272727
 40
0.2727272727272727
 40
0.3181818181818182
 40
0.3181818181818182
 40
0.3181818181818182
 40
0.3181818181818182
 40
0.3636363636363636
 40
0.3636363636363636
 40
0.3636363636363636
 40
0.3636363636363636
 40
0.4090909090909091
 40
0.4090909090909091
 40
0.4090909090909091
 40
0.4090909090909091
 40
0.4545454545454545
 40
0.4545454545454545
 40
0.4545454545454545
 40
0.4545454545454545
 40
0.5
 40
0.5
 40
0.5
 40
0.5
 40
0.5454545454545454
 40
0.5454545454545454
 40
0.5454545454545454
 40
0.5454545454545454
 40
0.5909090909090909
 40
0.5909090909090909
 40
0.5909090909090909
 40
0.5909090909090909
 40
0.6363636363636364
 40
0.6363636363636364
 40
0.6363636363636364
 40
0.6363636363636364
 40
0.6818181818181818
 40
0.6818181818181818
 40
0.6818181818181818
 40
0.6818181818181818
 40
0.7272727272727273
 40
0.7272727272727273
 40
0.7272727272727273
 40
0.7272727272727273
 40
0.7727272727272727
 40
0.7727272727272727
 40
0.7727272727272727
 40
0.7727272727272727
 40
0.8181818181818182
 40
0.8181818181818182
 40
0.8181818181818182
 40
0.8181818181818182
 40
0.8636363636363636
 40
0.8636363636363636
 40
0.8636363636363636
 40
0.8636363636363636
 40
0.9090909090909091
 40
0.9090909090909091
 40
0.9090909090909091
 40
0.9090909090909091
 40
1.0
 40
1.0
 40
1.0
 40
1.0
 10
1.92792
 20
-1.10444
 30
0.0
 10
1.92792
 20
-1.10444
 30
0.0
 10
1.92792
 20
-1.10444
 30
0.0
 10
1.92792
 20
-1.10444
 30
0.0
 10
1.92792
 20
-1.10444
 30
0.0
 10
1.94062
 20
-1.21804
 30
0.0
 10
2.02917
 20
-1.31647
 30
0.0
 10
2.13359
 20
-1.35809
 30
0.0
 10
2.13359
 20
-1.35809
 30
0.0
 10
2.2232
 20
-1.3976
 30
0.0
 10
2.36078
 20
-1.31823
 30
0.0
 10
2.34068
 20
-1.21415
 30
0.0
 10
2.34068
 20
-1.21415
 30
0.0
 10
2.27612
 20
-1.1556
 30
0.0
 10
2.18792
 20
-1.12914
 30
0.0
 10
2.13041
 20
-1.0621
 30
0.0
 10
2.13041
 20
-1.0621
 30
0.0
 10
2.16605
 20
-1.0159
 30
0.0
 10
2.20238
 20
-0.97039
 30
0.0
 10
2.24013
 20
-0.92559
 30
0.0
 10
2.24013
 20
-0.92559
 30
0.0
 10
2.28246
 20
-0.92559
 30
0.0
 10
2.32514
 20
-0.92559
 30
0.0
 10
2.36784
 20
-0.92523
 30
0.0
 10
2.36784
 20
-0.92523
 30
0.0
 10
2.56292
 20
-1.07764
 30
0.0
 10
2.67088
 20
-1.32105
 30
0.0
 10
2.6677
 20
-1.56729
 30
0.0
 10
2.6677
 20
-1.56729
 30
0.0
 10
2.68886
 20
-1.74297
 30
0.0
 10
2.534
 20
-1.8795
 30
0.0
 10
2.55128
 20
-2.05482
 30
0.0
 10
2.55128
 20
-2.05482
 30
0.0
 10
2.53223
 20
-2.28837
 30
0.0
 10
2.7887
 20
-2.47533
 30
0.0
 10
3.00672
 20
-2.41959
 30
0.0
 10
3.00672
 20
-2.41959
 30
0.0
 10
3.13302
 20
-2.37761
 30
0.0
 10
3.2085
 20
-2.23157
 30
0.0
 10
3.15841
 20
-2.10562
 30
0.0
 10
3.15841
 20
-2.10562
 30
0.0
 10
3.13124
 20
-2.10951
 30
0.0
 10
3.07728
 20
-2.11726
 30
0.0
 10
3.05011
 20
-2.12114
 30
0.0
 10
3.05011
 20
-2.12114
 30
0.0
 10
3.00177
 20
-2.15537
 30
0.0
 10
3.00177
 20
-2.23474
 30
0.0
 10
2.94004
 20
-2.25555
 30
0.0
 10
2.94004
 20
-2.25555
 30
0.0
 10
2.82185
 20
-2.29153
 30
0.0
 10
2.7379
 20
-2.15924
 30
0.0
 10
2.73685
 20
-2.05765
 30
0.0
 10
2.73685
 20
-2.05765
 30
0.0
 10
2.7626
 20
-1.86362
 30
0.0
 10
3.01766
 20
-1.80753
 30
0.0
 10
3.175
 20
-1.86538
 30
0.0
 10
3.175
 20
-1.86538
 30
0.0
 10
3.35772
 20
-1.92394
 30
0.0
 10
3.41135
 20
-2.13878
 30
0.0
 10
3.40535
 20
-2.30988
 30
0.0
 10
3.40535
 20
-2.30988
 30
0.0
 10
3.4865
 20
-2.26544
 30
0.0
 10
3.56481
 20
-2.21569
 30
0.0
 10
3.63853
 20
-2.15924
 30
0.0
 10
3.63853
 20
-2.15924
 30
0.0
 10
3.56376
 20
-2.00156
 30
0.0
 10
3.47167
 20
-1.83928
 30
0.0
 10
3.31611
 20
-1.74931
 30
0.0
 10
3.31611
 20
-1.74931
 30
0.0
 10
3.18557
 20
-1.66535
 30
0.0
 10
3.02612
 20
-1.66077
 30
0.0
 10
2.87867
 20
-1.62902
 30
0.0
 10
2.87867
 20
-1.62902
 30
0.0
 10
2.82963
 20
-1.4417
 30
0.0
 10
2.83174
 20
-1.23849
 30
0.0
 10
2.72767
 20
-1.06882
 30
0.0
 10
2.72767
 20
-1.06882
 30
0.0
 10
2.649
 20
-0.92771
 30
0.0
 10
2.5361
 20
-0.78341
 30
0.0
 10
2.37348
 20
-0.73967
 30
0.0
 10
2.37348
 20
-0.73967
 30
0.0
 10
2.16181
 20
-0.71427
 30
0.0
 10
1.93745
 20
-0.88607
 30
0.0
 10
1.92792
 20
-1.10444
 30
0.0
  0
SPLINE
  5
5B
330
1F
100
AcDbEntity
  8
Camada 1
 62
   156
100
AcDbSpline
210
0.0
220
0.0
230
1.0
 70
    11
 71
     3
 72
    20
 73
    16
 74
     0
 42
0.0000000001
 43
0.0000000001
 12
1.0
 22
0.0
 32
0.0
 13
1.0
 23
0.0
 33
0.0
 40
0.0
 40
0.0
 40
0.0
 40
0.0
 40
0.2
 40
0.2
 40
0.2
 40
0.2
 40
0.4
 40
0.4
 40
0.4
 40
0.4
 40
0.6
 40
0.6
 40
0.6
 40
0.6
 40
1.0
 40
1.0
 40
1.0
 40
1.0
 10
-1.92158
 20
-1.04165
 30
0.0
 10
-1.92158
 20
-1.04165
 30
0.0
 10
-1.92158
 20
-1.04165
 30
0.0
 10
-1.92158
 20
-1.04165
 30
0.0
 10
-1.92158
 20
-1.04165
 30
0.0
 10
-2.10431
 20
-1.10902
 30
0.0
 10
-2.12266
 20
-1.39054
 30
0.0
 10
-1.95438
 20
-1.48543
 30
0.0
 10
-1.95438
 20
-1.48543
 30
0.0
 10
-1.81327
 20
-1.5948
 30
0.0
 10
-1.58362
 20
-1.49144
 30
0.0
 10
-1.56422
 20
-1.31576
 30
0.0
 10
-1.56422
 20
-1.31576
 30
0.0
 10
-1.52435
 20
-1.1242
 30
0.0
 10
-1.74519
 20
-0.95098
 30
0.0
 10
-1.92158
 20
-1.04165
 30
0.0
  0
SPLINE
  5
5C
330
1F
100
AcDbEntity
  8
Camada 1
 62
   156
100
AcDbSpline
210
0.0
220
0.0
230
1.0
 70
    11
 71
     3
 72
    36
 73
    32
 74
     0
 42
0.0000000001
 43
0.0000000001
 12
1.0
 22
0.0
 32
0.0
 13
1.0
 23
0.0
 33
0.0
 40
0.0
 40
0.0
 40
0.0
 40
0.0
 40
0.1111111111111111
 40
0.1111111111111111
 40
0.1111111111111111
 40
0.1111111111111111
 40
0.2222222222222222
 40
0.2222222222222222
 40
0.2222222222222222
 40
0.2222222222222222
 40
0.3333333333333333
 40
0.3333333333333333
 40
0.3333333333333333
 40
0.3333333333333333
 40
0.4444444444444444
 40
0.4444444444444444
 40
0.4444444444444444
 40
0.4444444444444444
 40
0.5555555555555556
 40
0.5555555555555556
 40
0.5555555555555556
 40
0.5555555555555556
 40
0.6666666666666666
 40
0.6666666666666666
 40
0.6666666666666666
 40
0.6666666666666666
 40
0.7777777777777778
 40
0.7777777777777778
 40
0.7777777777777778
 40
0.7777777777777778
 40
1.0
 40
1.0
 40
1.0
 40
1.0
 10
-1.29011
 20
-2.6101
 30
0.0
 10
-1.29011
 20
-2.6101
 30
0.0
 10
-1.29011
 20
-2.6101
 30
0.0
 10
-1.29011
 20
-2.6101
 30
0.0
 10
-1.29011
 20
-2.6101
 30
0.0
 10
-1.18392
 20
-2.67396
 30
0.0
 10
-1.06257
 20
-2.72334
 30
0.0
 10
-0.99942
 20
-2.838
 30
0.0
 10
-0.99942
 20
-2.838
 30
0.0
 10
-1.05974
 20
-2.95652
 30
0.0
 10
-1.17581
 20
-3.02532
 30
0.0
 10
-1.29222
 20
-3.07965
 30
0.0
 10
-1.29222
 20
-3.07965
 30
0.0
 10
-1.34374
 20
-3.09447
 30
0.0
 10
-1.36596
 20
-3.14068
 30
0.0
 10
-1.37371
 20
-3.19041
 30
0.0
 10
-1.37371
 20
-3.19041
 30
0.0
 10
-1.25589
 20
-3.19007
 30
0.0
 10
-1.15464
 20
-3.12409
 30
0.0
 10
-1.06151
 20
-3.05953
 30
0.0
 10
-1.06151
 20
-3.05953
 30
0.0
 10
-0.98848
 20
-3.00873
 30
0.0
 10
-0.92533
 20
-2.93289
 30
0.0
 10
-0.91792
 20
-2.84153
 30
0.0
 10
-0.91792
 20
-2.84153
 30
0.0
 10
-0.93062
 20
-2.69511
 30
0.0
 10
-1.07314
 20
-2.60869
 30
0.0
 10
-1.19556
 20
-2.55753
 30
0.0
 10
-1.19556
 20
-2.55753
 30
0.0
 10
-1.23579
 20
-2.53002
 30
0.0
 10
-1.30422
 20
-2.55471
 30
0.0
 10
-1.29011
 20
-2.6101
 30
0.0
  0
SPLINE
  5
5D
330
1F
100
AcDbEntity
  8
Camada 1
 62
   156
100
AcDbSpline
210
0.0
220
0.0
230
1.0
 70
    11
 71
     3
 72
    40
 73
    36
 74
     0
 42
0.0000000001
 43
0.0000000001
 12
1.0
 22
0.0
 32
0.0
 13
1.0
 23
0.0
 33
0.0
 40
0.0
 40
0.0
 40
0.0
 40
0.0
 40
0.1
 40
0.1
 40
0.1
 40
0.1
 40
0.2
 40
0.2
 40
0.2
 40
0.2
 40
0.3
 40
0.3
 40
0.3
 40
0.3
 40
0.4
 40
0.4
 40
0.4
 40
0.4
 40
0.5
 40
0.5
 40
0.5
 40
0.5
 40
0.6
 40
0.6
 40
0.6
 40
0.6
 40
0.7
 40
0.7
 40
0.7
 40
0.7
 40
0.8
 40
0.8
 40
0.8
 40
0.8
 40
1.0
 40
1.0
 40
1.0
 40
1.0
 10
-2.76966
 20
-2.61256
 30
0.0
 10
-2.76966
 20
-2.61256
 30
0.0
 10
-2.76966
 20
-2.61256
 30
0.0
 10
-2.76966
 20
-2.61256
 30
0.0
 10
-2.76966
 20
-2.61256
 30
0.0
 10
-2.95027
 20
-2.6542
 30
0.0
 10
-3.16089
 20
-2.69477
 30
0.0
 10
-3.26531
 20
-2.86621
 30
0.0
 10
-3.26531
 20
-2.86621
 30
0.0
 10
-3.26284
 20
-2.90326
 30
0.0
 10
-3.26107
 20
-2.94064
 30
0.0
 10
-3.26107
 20
-2.97804
 30
0.0
 10
-3.26107
 20
-2.97804
 30
0.0
 10
-3.01412
 20
-3.21475
 30
0.0
 10
-2.64125
 20
-3.23239
 30
0.0
 10
-2.31846
 20
-3.20313
 30
0.0
 10
-2.31846
 20
-3.20313
 30
0.0
 10
-2.26942
 20
-3.20206
 30
0.0
 10
-2.13783
 20
-3.17913
 30
0.0
 10
-2.21085
 20
-3.10611
 30
0.0
 10
-2.21085
 20
-3.10611
 30
0.0
 10
-2.53858
 20
-3.1181
 30
0.0
 10
-2.92242
 20
-3.15302
 30
0.0
 10
-3.18876
 20
-2.9163
 30
0.0
 10
-3.18876
 20
-2.9163
 30
0.0
 10
-3.00955
 20
-2.70323
 30
0.0
 10
-2.70123
 20
-2.70994
 30
0.0
 10
-2.44934
 20
-2.66019
 30
0.0
 10
-2.44934
 20
-2.66019
 30
0.0
 10
-2.45321
 20
-2.64149
 30
0.0
 10
-2.46098
 20
-2.60411
 30
0.0
 10
-2.46486
 20
-2.5854
 30
0.0
 10
-2.46486
 20
-2.5854
 30
0.0
 10
-2.56575
 20
-2.56423
 30
0.0
 10
-2.66982
 20
-2.59493
 30
0.0
 10
-2.76966
 20
-2.61256
 30
0.0
  0
SPLINE
  5
5E
330
1F
100
AcDbEntity
  8
Camada 1
 62
   156
100
AcDbSpline
210
0.0
220
0.0
230
1.0
 70
    11
 71
     3
 72
    36
 73
    32
 74
     0
 42
0.0000000001
 43
0.0000000001
 12
1.0
 22
0.0
 32
0.0
 13
1.0
 23
0.0
 33
0.0
 40
0.0
 40
0.0
 40
0.0
 40
0.0
 40
0.1111111111111111
 40
0.1111111111111111
 40
0.1111111111111111
 40
0.1111111111111111
 40
0.2222222222222222
 40
0.2222222222222222
 40
0.2222222222222222
 40
0.2222222222222222
 40
0.3333333333333333
 40
0.3333333333333333
 40
0.3333333333333333
 40
0.3333333333333333
 40
0.4444444444444444
 40
0.4444444444444444
 40
0.4444444444444444
 40
0.4444444444444444
 40
0.5555555555555556
 40
0.5555555555555556
 40
0.5555555555555556
 40
0.5555555555555556
 40
0.6666666666666666
 40
0.6666666666666666
 40
0.6666666666666666
 40
0.6666666666666666
 40
0.7777777777777778
 40
0.7777777777777778
 40
0.7777777777777778
 40
0.7777777777777778
 40
1.0
 40
1.0
 40
1.0
 40
1.0
 10
-2.03799
 20
-2.66302
 30
0.0
 10
-2.03799
 20
-2.66302
 30
0.0
 10
-2.03799
 20
-2.66302
 30
0.0
 10
-2.03799
 20
-2.66302
 30
0.0
 10
-2.03799
 20
-2.66302
 30
0.0
 10
-1.88312
 20
-2.68595
 30
0.0
 10
-1.70427
 20
-2.70042
 30
0.0
 10
-1.59985
 20
-2.8341
 30
0.0
 10
-1.59985
 20
-2.8341
 30
0.0
 10
-1.66758
 20
-2.95582
 30
0.0
 10
-1.80552
 20
-2.98934
 30
0.0
 10
-1.92193
 20
-3.04508
 30
0.0
 10
-1.92193
 20
-3.04508
 30
0.0
 10
-1.91169
 20
-3.06306
 30
0.0
 10
-1.89089
 20
-3.09975
 30
0.0
 10
-1.88031
 20
-3.11774
 30
0.0
 10
-1.88031
 20
-3.11774
 30
0.0
 10
-1.77377
 20
-3.08458
 30
0.0
 10
-1.6577
 20
-3.05529
 30
0.0
 10
-1.57938
 20
-2.96958
 30
0.0
 10
-1.57938
 20
-2.96958
 30
0.0
 10
-1.4926
 20
-2.89444
 30
0.0
 10
-1.51306
 20
-2.7431
 30
0.0
 10
-1.60972
 20
-2.68595
 30
0.0
 10
-1.60972
 20
-2.68595
 30
0.0
 10
-1.71591
 20
-2.62068
 30
0.0
 10
-1.84043
 20
-2.58611
 30
0.0
 10
-1.96461
 20
-2.5787
 30
0.0
 10
-1.96461
 20
-2.5787
 30
0.0
 10
-2.01965
 20
-2.57517
 30
0.0
 10
-2.04399
 20
-2.60304
 30
0.0
 10
-2.03799
 20
-2.66302
 30
0.0
  0
SPLINE
  5
5F
330
1F
100
AcDbEntity
  8
Camada 1
 62
   156
100
AcDbSpline
210
0.0
220
0.0
230
1.0
 70
    11
 71
     3
 72
    32
 73
    28
 74
     0
 42
0.0000000001
 43
0.0000000001
 12
1.0
 22
0.0
 32
0.0
 13
1.0
 23
0.0
 33
0.0
 40
0.0
 40
0.0
 40
0.0
 40
0.0
 40
0.125
 40
0.125
 40
0.125
 40
0.125
 40
0.25
 40
0.25
 40
0.25
 40
0.25
 40
0.375
 40
0.375
 40
0.375
 40
0.375
 40
0.5
 40
0.5
 40
0.5
 40
0.5
 40
0.625
 40
0.625
 40
0.625
 40
0.625
 40
0.75
 40
0.75
 40
0.75
 40
0.75
 40
1.0
 40
1.0
 40
1.0
 40
1.0
 10
-0.61948
 20
-2.57553
 30
0.0
 10
-0.61948
 20
-2.57553
 30
0.0
 10
-0.61948
 20
-2.57553
 30
0.0
 10
-0.61948
 20
-2.57553
 30
0.0
 10
-0.61948
 20
-2.57553
 30
0.0
 10
-0.62971
 20
-2.59458
 30
0.0
 10
-0.64981
 20
-2.63338
 30
0.0
 10
-0.6597
 20
-2.65279
 30
0.0
 10
-0.6597
 20
-2.65279
 30
0.0
 10
-0.58597
 20
-2.71204
 30
0.0
 10
-0.49671
 20
-2.7699
 30
0.0
 10
-0.47554
 20
-2.86974
 30
0.0
 10
-0.47554
 20
-2.86974
 30
0.0
 10
-0.5066
 20
-3.01049
 30
0.0
 10
-0.6484
 20
-3.07471
 30
0.0
 10
-0.75142
 20
-3.15655
 30
0.0
 10
-0.75142
 20
-3.15655
 30
0.0
 10
-0.7373
 20
-3.17455
 30
0.0
 10
-0.70945
 20
-3.21017
 30
0.0
 10
-0.69568
 20
-3.22817
 30
0.0
 10
-0.69568
 20
-3.22817
 30
0.0
 10
-0.56938
 20
-3.14809
 30
0.0
 10
-0.41521
 20
-3.05989
 30
0.0
 10
-0.387
 20
-2.89973
 30
0.0
 10
-0.387
 20
-2.89973
 30
0.0
 10
-0.37182
 20
-2.75121
 30
0.0
 10
-0.49847
 20
-2.63691
 30
0.0
 10
-0.61948
 20
-2.57553
 30
0.0
  0
SPLINE
  5
60
330
1F
100
AcDbEntity
  8
Camada 1
 62
   156
100
AcDbSpline
210
0.0
220
0.0
230
1.0
 70
    11
 71
     3
 72
    32
 73
    28
 74
     0
 42
0.0000000001
 43
0.0000000001
 12
1.0
 22
0.0
 32
0.0
 13
1.0
 23
0.0
 33
0.0
 40
0.0
 40
0.0
 40
0.0
 40
0.0
 40
0.125
 40
0.125
 40
0.125
 40
0.125
 40
0.25
 40
0.25
 40
0.25
 40
0.25
 40
0.375
 40
0.375
 40
0.375
 40
0.375
 40
0.5
 40
0.5
 40
0.5
 40
0.5
 40
0.625
 40
0.625
 40
0.625
 40
0.625
 40
0.75
 40
0.75
 40
0.75
 40
0.75
 40
1.0
 40
1.0
 40
1.0
 40
1.0
 10
-3.81952
 20
-2.97699
 30
0.0
 10
-3.81952
 20
-2.97699
 30
0.0
 10
-3.81952
 20
-2.97699
 30
0.0
 10
-3.81952
 20
-2.97699
 30
0.0
 10
-3.81952
 20
-2.97699
 30
0.0
 10
-3.79024
 20
-3.1495
 30
0.0
 10
-3.62727
 20
-3.25533
 30
0.0
 10
-3.48333
 20
-3.32941
 30
0.0
 10
-3.48333
 20
-3.32941
 30
0.0
 10
-3.46216
 20
-3.31954
 30
0.0
 10
-3.42053
 20
-3.29943
 30
0.0
 10
-3.39972
 20
-3.28955
 30
0.0
 10
-3.39972
 20
-3.28955
 30
0.0
 10
-3.50801
 20
-3.18583
 30
0.0
 10
-3.67454
 20
-3.12938
 30
0.0
 10
-3.72392
 20
-2.97521
 30
0.0
 10
-3.72392
 20
-2.97521
 30
0.0
 10
-3.72075
 20
-2.8341
 30
0.0
 10
-3.55742
 20
-2.78613
 30
0.0
 10
-3.46886
 20
-2.70252
 30
0.0
 10
-3.46886
 20
-2.70252
 30
0.0
 10
-3.48862
 20
-2.68948
 30
0.0
 10
-3.52743
 20
-2.66372
 30
0.0
 10
-3.54719
 20
-2.65067
 30
0.0
 10
-3.54719
 20
-2.65067
 30
0.0
 10
-3.67066
 20
-2.72052
 30
0.0
 10
-3.82763
 20
-2.814
 30
0.0
 10
-3.81952
 20
-2.97699
 30
0.0
  0
SPLINE
  5
61
330
1F
100
AcDbEntity
  8
Camada 1
 62
   156
100
AcDbSpline
210
0.0
220
0.0
230
1.0
 70
    11
 71
     3
 72
    32
 73
    28
 74
     0
 42
0.0000000001
 43
0.0000000001
 12
1.0
 22
0.0
 32
0.0
 13
1.0
 23
0.0
 33
0.0
 40
0.0
 40
0.0
 40
0.0
 40
0.0
 40
0.125
 40
0.125
 40
0.125
 40
0.125
 40
0.25
 40
0.25
 40
0.25
 40
0.25
 40
0.375
 40
0.375
 40
0.375
 40
0.375
 40
0.5
 40
0.5
 40
0.5
 40
0.5
 40
0.625
 40
0.625
 40
0.625
 40
0.625
 40
0.75
 40
0.75
 40
0.75
 40
0.75
 40
1.0
 40
1.0
 40
1.0
 40
1.0
 10
-4.16031
 20
-2.74098
 30
0.0
 10
-4.16031
 20
-2.74098
 30
0.0
 10
-4.16031
 20
-2.74098
 30
0.0
 10
-4.16031
 20
-2.74098
 30
0.0
 10
-4.16031
 20
-2.74098
 30
0.0
 10
-4.26826
 20
-2.80484
 30
0.0
 10
-4.36245
 20
-2.91771
 30
0.0
 10
-4.35645
 20
-3.04966
 30
0.0
 10
-4.35645
 20
-3.04966
 30
0.0
 10
-4.32681
 20
-3.20912
 30
0.0
 10
-4.17337
 20
-3.29802
 30
0.0
 10
-4.03789
 20
-3.3594
 30
0.0
 10
-4.03789
 20
-3.3594
 30
0.0
 10
-3.99345
 20
-3.36292
 30
0.0
 10
-3.97123
 20
-3.34246
 30
0.0
 10
-3.97123
 20
-3.29766
 30
0.0
 10
-3.97123
 20
-3.29766
 30
0.0
 10
-4.06858
 20
-3.2197
 30
0.0
 10
-4.21216
 20
-3.18196
 30
0.0
 10
-4.25662
 20
-3.05319
 30
0.0
 10
-4.25662
 20
-3.05319
 30
0.0
 10
-4.27743
 20
-2.9477
 30
0.0
 10
-4.17442
 20
-2.88702
 30
0.0
 10
-4.1208
 20
-2.81366
 30
0.0
 10
-4.1208
 20
-2.81366
 30
0.0
 10
-4.08834
 20
-2.78331
 30
0.0
 10
-4.13173
 20
-2.74839
 30
0.0
 10
-4.16031
 20
-2.74098
 30
0.0
  0
SPLINE
  5
62
330
1F
100
AcDbEntity
  8
Camada 1
 62
   156
100
AcDbSpline
210
0.0
220
0.0
230
1.0
 70
    11
 71
     3
 72
    44
 73
    40
 74
     0
 42
0.0000000001
 43
0.0000000001
 12
1.0
 22
0.0
 32
0.0
 13
1.0
 23
0.0
 33
0.0
 40
0.0
 40
0.0
 40
0.0
 40
0.0
 40
0.0909090909090909
 40
0.0909090909090909
 40
0.0909090909090909
 40
0.0909090909090909
 40
0.1818181818181818
 40
0.1818181818181818
 40
0.1818181818181818
 40
0.1818181818181818
 40
0.2727272727272727
 40
0.2727272727272727
 40
0.2727272727272727
 40
0.2727272727272727
 40
0.3636363636363636
 40
0.3636363636363636
 40
0.3636363636363636
 40
0.3636363636363636
 40
0.4545454545454545
 40
0.4545454545454545
 40
0.4545454545454545
 40
0.4545454545454545
 40
0.5454545454545454
 40
0.5454545454545454
 40
0.5454545454545454
 40
0.5454545454545454
 40
0.6363636363636364
 40
0.6363636363636364
 40
0.6363636363636364
 40
0.6363636363636364
 40
0.7272727272727273
 40
0.7272727272727273
 40
0.7272727272727273
 40
0.7272727272727273
 40
0.8181818181818182
 40
0.8181818181818182
 40
0.8181818181818182
 40
0.8181818181818182
 40
1.0
 40
1.0
 40
1.0
 40
1.0
 10
-0.38876
 20
-3.27967
 30
0.0
 10
-0.38876
 20
-3.27967
 30
0.0
 10
-0.38876
 20
-3.27967
 30
0.0
 10
-0.38876
 20
-3.27967
 30
0.0
 10
-0.38876
 20
-3.27967
 30
0.0
 10
-1.18109
 20
-3.62716
 30
0.0
 10
-2.05987
 20
-3.69948
 30
0.0
 10
-2.91535
 20
-3.70793
 30
0.0
 10
-2.91535
 20
-3.70793
 30
0.0
 10
-3.45122
 20
-3.68959
 30
0.0
 10
-4.01391
 20
-3.7083
 30
0.0
 10
-4.51063
 20
-3.47511
 30
0.0
 10
-4.51063
 20
-3.47511
 30
0.0
 10
-4.69159
 20
-3.39574
 30
0.0
 10
-4.83624
 20
-3.2585
 30
0.0
 10
-4.96641
 20
-3.11352
 30
0.0
 10
-4.96641
 20
-3.11352
 30
0.0
 10
-5.06095
 20
-3.19077
 30
0.0
 10
-4.94524
 20
-3.27086
 30
0.0
 10
-4.89303
 20
-3.33189
 30
0.0
 10
-4.89303
 20
-3.33189
 30
0.0
 10
-4.55295
 20
-3.65221
 30
0.0
 10
-4.07105
 20
-3.74287
 30
0.0
 10
-3.62162
 20
-3.78097
 30
0.0
 10
-3.62162
 20
-3.78097
 30
0.0
 10
-2.79259
 20
-3.82083
 30
0.0
 10
-1.95157
 20
-3.81484
 30
0.0
 10
-1.13877
 20
-3.62751
 30
0.0
 10
-1.13877
 20
-3.62751
 30
0.0
 10
-0.67697
 20
-3.51815
 30
0.0
 10
-0.21307
 20
-3.3594
 30
0.0
 10
0.16228
 20
-3.05989
 30
0.0
 10
0.16228
 20
-3.05989
 30
0.0
 10
0.14569
 20
-3.03414
 30
0.0
 10
0.12876
 20
-3.0091
 30
0.0
 10
0.11182
 20
-2.98403
 30
0.0
 10
0.11182
 20
-2.98403
 30
0.0
 10
-0.04867
 20
-3.09269
 30
0.0
 10
-0.2092
 20
-3.20347
 30
0.0
 10
-0.38876
 20
-3.27967
 30
0.0
  0
SPLINE
  5
63
330
1F
100
AcDbEntity
  8
Camada 1
 62
   156
100
AcDbSpline
210
0.0
220
0.0
230
1.0
 70
    11
 71
     3
 72
    32
 73
    28
 74
     0
 42
0.0000000001
 43
0.0000000001
 12
1.0
 22
0.0
 32
0.0
 13
1.0
 23
0.0
 33
0.0
 40
0.0
 40
0.0
 40
0.0
 40
0.0
 40
0.125
 40
0.125
 40
0.125
 40
0.125
 40
0.25
 40
0.25
 40
0.25
 40
0.25
 40
0.375
 40
0.375
 40
0.375
 40
0.375
 40
0.5
 40
0.5
 40
0.5
 40
0.5
 40
0.625
 40
0.625
 40
0.625
 40
0.625
 40
0.75
 40
0.75
 40
0.75
 40
0.75
 40
1.0
 40
1.0
 40
1.0
 40
1.0
 10
0.29738
 20
-3.67938
 30
0.0
 10
0.29738
 20
-3.67938
 30
0.0
 10
0.29738
 20
-3.67938
 30
0.0
 10
0.29738
 20
-3.67938
 30
0.0
 10
0.29738
 20
-3.67938
 30
0.0
 10
-0.33937
 20
-3.92491
 30
0.0
 10
-0.97579
 20
-4.1722
 30
0.0
 10
-1.61254
 20
-4.41809
 30
0.0
 10
-1.61254
 20
-4.41809
 30
0.0
 10
-1.67111
 20
-4.42513
 30
0.0
 10
-1.6771
 20
-4.48017
 30
0.0
 10
-1.68628
 20
-4.5278
 30
0.0
 10
-1.68628
 20
-4.5278
 30
0.0
 10
-1.63653
 20
-4.52074
 30
0.0
 10
-1.58608
 20
-4.51369
 30
0.0
 10
-1.53916
 20
-4.49498
 30
0.0
 10
-1.53916
 20
-4.49498
 30
0.0
 10
-0.83538
 20
-4.22158
 30
0.0
 10
-0.13088
 20
-3.94959
 30
0.0
 10
0.5736
 20
-3.67726
 30
0.0
 10
0.5736
 20
-3.67726
 30
0.0
 10
0.6311
 20
-3.6649
 30
0.0
 10
0.65756
 20
-3.61869
 30
0.0
 10
0.6558
 20
-3.56153
 30
0.0
 10
0.6558
 20
-3.56153
 30
0.0
 10
0.5288
 20
-3.57494
 30
0.0
 10
0.41592
 20
-3.63704
 30
0.0
 10
0.29738
 20
-3.67938
 30
0.0
  0
SPLINE
  5
64
330
1F
100
AcDbEntity
  8
Camada 1
 62
   156
100
AcDbSpline
210
0.0
220
0.0
230
1.0
 70
    11
 71
     3
 72
    36
 73
    32
 74
     0
 42
0.0000000001
 43
0.0000000001
 12
1.0
 22
0.0
 32
0.0
 13
1.0
 23
0.0
 33
0.0
 40
0.0
 40
0.0
 40
0.0
 40
0.0
 40
0.1111111111111111
 40
0.1111111111111111
 40
0.1111111111111111
 40
0.1111111111111111
 40
0.2222222222222222
 40
0.2222222222222222
 40
0.2222222222222222
 40
0.2222222222222222
 40
0.3333333333333333
 40
0.3333333333333333
 40
0.3333333333333333
 40
0.3333333333333333
 40
0.4444444444444444
 40
0.4444444444444444
 40
0.4444444444444444
 40
0.4444444444444444
 40
0.5555555555555556
 40
0.5555555555555556
 40
0.5555555555555556
 40
0.5555555555555556
 40
0.6666666666666666
 40
0.6666666666666666
 40
0.6666666666666666
 40
0.6666666666666666
 40
0.7777777777777778
 40
0.7777777777777778
 40
0.7777777777777778
 40
0.7777777777777778
 40
1.0
 40
1.0
 40
1.0
 40
1.0
 10
-2.27719
 20
-3.9951
 30
0.0
 10
-2.27719
 20
-3.9951
 30
0.0
 10
-2.27719
 20
-3.9951
 30
0.0
 10
-2.27719
 20
-3.9951
 30
0.0
 10
-2.27719
 20
-3.9951
 30
0.0
 10
-2.60772
 20
-4.0018
 30
0.0
 10
-2.93864
 20
-4.00569
 30
0.0
 10
-3.26884
 20
-3.98346
 30
0.0
 10
-3.26884
 20
-3.98346
 30
0.0
 10
-3.31788
 20
-3.98311
 30
0.0
 10
-3.34434
 20
-4.00991
 30
0.0
 10
-3.34751
 20
-4.06424
 30
0.0
 10
-3.34751
 20
-4.06424
 30
0.0
 10
-2.83951
 20
-4.12739
 30
0.0
 10
-2.32516
 20
-4.09918
 30
0.0
 10
-1.81609
 20
-4.06037
 30
0.0
 10
-1.81609
 20
-4.06037
 30
0.0
 10
-1.40935
 20
-4.02014
 30
0.0
 10
-1.00049
 20
-3.95241
 30
0.0
 10
-0.61877
 20
-3.80178
 30
0.0
 10
-0.61877
 20
-3.80178
 30
0.0
 10
-0.55915
 20
-3.78026
 30
0.0
 10
-0.50411
 20
-3.74816
 30
0.0
 10
-0.45332
 20
-3.71041
 30
0.0
 10
-0.45332
 20
-3.71041
 30
0.0
 10
-0.46567
 20
-3.69383
 30
0.0
 10
-0.49035
 20
-3.66032
 30
0.0
 10
-0.5027
 20
-3.64373
 30
0.0
 10
-0.5027
 20
-3.64373
 30
0.0
 10
-1.0548
 20
-3.9062
 30
0.0
 10
-1.67534
 20
-3.95982
 30
0.0
 10
-2.27719
 20
-3.9951
 30
0.0
  0
SPLINE
  5
65
330
1F
100
AcDbEntity
  8
Camada 1
 62
   156
100
AcDbSpline
210
0.0
220
0.0
230
1.0
 70
    11
 71
     3
 72
    28
 73
    24
 74
     0
 42
0.0000000001
 43
0.0000000001
 12
1.0
 22
0.0
 32
0.0
 13
1.0
 23
0.0
 33
0.0
 40
0.0
 40
0.0
 40
0.0
 40
0.0
 40
0.1428571428571428
 40
0.1428571428571428
 40
0.1428571428571428
 40
0.1428571428571428
 40
0.2857142857142857
 40
0.2857142857142857
 40
0.2857142857142857
 40
0.2857142857142857
 40
0.4285714285714285
 40
0.4285714285714285
 40
0.4285714285714285
 40
0.4285714285714285
 40
0.5714285714285714
 40
0.5714285714285714
 40
0.5714285714285714
 40
0.5714285714285714
 40
0.7142857142857143
 40
0.7142857142857143
 40
0.7142857142857143
 40
0.7142857142857143
 40
1.0
 40
1.0
 40
1.0
 40
1.0
 10
-5.35798
 20
-3.93054
 30
0.0
 10
-5.35798
 20
-3.93054
 30
0.0
 10
-5.35798
 20
-3.93054
 30
0.0
 10
-5.35798
 20
-3.93054
 30
0.0
 10
-5.35798
 20
-3.93054
 30
0.0
 10
-5.23804
 20
-4.00216
 30
0.0
 10
-5.09622
 20
-4.01239
 30
0.0
 10
-4.96322
 20
-4.04519
 30
0.0
 10
-4.96322
 20
-4.04519
 30
0.0
 10
-4.04249
 20
-4.25052
 30
0.0
 10
-3.12067
 20
-4.45159
 30
0.0
 10
-2.19993
 20
-4.65904
 30
0.0
 10
-2.19993
 20
-4.65904
 30
0.0
 10
-2.14524
 20
-4.68338
 30
0.0
 10
-2.12867
 20
-4.61
 30
0.0
 10
-2.13113
 20
-4.5719
 30
0.0
 10
-2.13113
 20
-4.5719
 30
0.0
 10
-3.15772
 20
-4.34646
 30
0.0
 10
-4.1836
 20
-4.11823
 30
0.0
 10
-5.20946
 20
-3.89104
 30
0.0
 10
-5.20946
 20
-3.89104
 30
0.0
 10
-5.26873
 20
-3.86775
 30
0.0
 10
-5.31848
 20
-3.88115
 30
0.0
 10
-5.35798
 20
-3.93054
 30
0.0
  0
SPLINE
  5
66
330
1F
100
AcDbEntity
  8
Camada 1
 62
   156
100
AcDbSpline
210
0.0
220
0.0
230
1.0
 70
    11
 71
     3
 72
    36
 73
    32
 74
     0
 42
0.0000000001
 43
0.0000000001
 12
1.0
 22
0.0
 32
0.0
 13
1.0
 23
0.0
 33
0.0
 40
0.0
 40
0.0
 40
0.0
 40
0.0
 40
0.1111111111111111
 40
0.1111111111111111
 40
0.1111111111111111
 40
0.1111111111111111
 40
0.2222222222222222
 40
0.2222222222222222
 40
0.2222222222222222
 40
0.2222222222222222
 40
0.3333333333333333
 40
0.3333333333333333
 40
0.3333333333333333
 40
0.3333333333333333
 40
0.4444444444444444
 40
0.4444444444444444
 40
0.4444444444444444
 40
0.4444444444444444
 40
0.5555555555555556
 40
0.5555555555555556
 40
0.5555555555555556
 40
0.5555555555555556
 40
0.6666666666666666
 40
0.6666666666666666
 40
0.6666666666666666
 40
0.6666666666666666
 40
0.7777777777777778
 40
0.7777777777777778
 40
0.7777777777777778
 40
0.7777777777777778
 40
1.0
 40
1.0
 40
1.0
 40
1.0
 10
0.2942
 20
-3.96406
 30
0.0
 10
0.2942
 20
-3.96406
 30
0.0
 10
0.2942
 20
-3.96406
 30
0.0
 10
0.2942
 20
-3.96406
 30
0.0
 10
0.2942
 20
-3.96406
 30
0.0
 10
0.27162
 20
-3.98806
 30
0.0
 10
0.24906
 20
-4.01239
 30
0.0
 10
0.22682
 20
-4.03708
 30
0.0
 10
0.22682
 20
-4.03708
 30
0.0
 10
0.22647
 20
-4.06178
 30
0.0
 10
0.22611
 20
-4.11082
 30
0.0
 10
0.22577
 20
-4.13551
 30
0.0
 10
0.22577
 20
-4.13551
 30
0.0
 10
0.24977
 20
-4.15984
 30
0.0
 10
0.2741
 20
-4.18418
 30
0.0
 10
0.29808
 20
-4.20888
 30
0.0
 10
0.29808
 20
-4.20888
 30
0.0
 10
0.3249
 20
-4.20888
 30
0.0
 10
0.37782
 20
-4.20959
 30
0.0
 10
0.40462
 20
-4.20959
 30
0.0
 10
0.40462
 20
-4.20959
 30
0.0
 10
0.43885
 20
-4.16232
 30
0.0
 10
0.46777
 20
-4.11153
 30
0.0
 10
0.47907
 20
-4.05367
 30
0.0
 10
0.47907
 20
-4.05367
 30
0.0
 10
0.45154
 20
-4.02438
 30
0.0
 10
0.42474
 20
-3.99476
 30
0.0
 10
0.39792
 20
-3.96547
 30
0.0
 10
0.39792
 20
-3.96547
 30
0.0
 10
0.37182
 20
-3.96511
 30
0.0
 10
0.31996
 20
-3.96441
 30
0.0
 10
0.2942
 20
-3.96406
 30
0.0
  0
SPLINE
  5
67
330
1F
100
AcDbEntity
  8
Camada 1
 62
   156
100
AcDbSpline
210
0.0
220
0.0
230
1.0
 70
    11
 71
     3
 72
    44
 73
    40
 74
     0
 42
0.0000000001
 43
0.0000000001
 12
1.0
 22
0.0
 32
0.0
 13
1.0
 23
0.0
 33
0.0
 40
0.0
 40
0.0
 40
0.0
 40
0.0
 40
0.0909090909090909
 40
0.0909090909090909
 40
0.0909090909090909
 40
0.0909090909090909
 40
0.1818181818181818
 40
0.1818181818181818
 40
0.1818181818181818
 40
0.1818181818181818
 40
0.2727272727272727
 40
0.2727272727272727
 40
0.2727272727272727
 40
0.2727272727272727
 40
0.3636363636363636
 40
0.3636363636363636
 40
0.3636363636363636
 40
0.3636363636363636
 40
0.4545454545454545
 40
0.4545454545454545
 40
0.4545454545454545
 40
0.4545454545454545
 40
0.5454545454545454
 40
0.5454545454545454
 40
0.5454545454545454
 40
0.5454545454545454
 40
0.6363636363636364
 40
0.6363636363636364
 40
0.6363636363636364
 40
0.6363636363636364
 40
0.7272727272727273
 40
0.7272727272727273
 40
0.7272727272727273
 40
0.7272727272727273
 40
0.8181818181818182
 40
0.8181818181818182
 40
0.8181818181818182
 40
0.8181818181818182
 40
1.0
 40
1.0
 40
1.0
 40
1.0
 10
0.63958
 20
-4.07094
 30
0.0
 10
0.63958
 20
-4.07094
 30
0.0
 10
0.63958
 20
-4.07094
 30
0.0
 10
0.63958
 20
-4.07094
 30
0.0
 10
0.63958
 20
-4.07094
 30
0.0
 10
0.65439
 20
-4.58001
 30
0.0
 10
0.70307
 20
-5.08766
 30
0.0
 10
0.72565
 20
-5.596
 30
0.0
 10
0.72565
 20
-5.596
 30
0.0
 10
0.09136
 20
-5.90081
 30
0.0
 10
-0.54363
 20
-6.20384
 30
0.0
 10
-1.17722
 20
-6.50935
 30
0.0
 10
-1.17722
 20
-6.50935
 30
0.0
 10
-1.28834
 20
-6.56156
 30
0.0
 10
-1.40299
 20
-6.60848
 30
0.0
 10
-1.50178
 20
-6.68221
 30
0.0
 10
-1.50178
 20
-6.68221
 30
0.0
 10
-1.44816
 20
-6.77605
 30
0.0
 10
-1.3656
 20
-6.70267
 30
0.0
 10
-1.29716
 20
-6.67446
 30
0.0
 10
-1.29716
 20
-6.67446
 30
0.0
 10
-0.60571
 20
-6.34355
 30
0.0
 10
0.08429
 20
-6.00947
 30
0.0
 10
0.77716
 20
-5.68139
 30
0.0
 10
0.77716
 20
-5.68139
 30
0.0
 10
0.79268
 20
-5.6514
 30
0.0
 10
0.80856
 20
-5.62175
 30
0.0
 10
0.82479
 20
-5.59249
 30
0.0
 10
0.82479
 20
-5.59249
 30
0.0
 10
0.78705
 20
-5.08518
 30
0.0
 10
0.77292
 20
-4.57577
 30
0.0
 10
0.72283
 20
-4.06989
 30
0.0
 10
0.72283
 20
-4.06989
 30
0.0
 10
0.72283
 20
-4.06989
 30
0.0
 10
0.68121
 20
-4.04872
 30
0.0
 10
0.68121
 20
-4.04872
 30
0.0
 10
0.68121
 20
-4.04872
 30
0.0
 10
0.68121
 20
-4.04872
 30
0.0
 10
0.63958
 20
-4.07094
 30
0.0
 10
0.63958
 20
-4.07094
 30
0.0
  0
SPLINE
  5
68
330
1F
100
AcDbEntity
  8
Camada 1
 62
   156
100
AcDbSpline
210
0.0
220
0.0
230
1.0
 70
    11
 71
     3
 72
    24
 73
    20
 74
     0
 42
0.0000000001
 43
0.0000000001
 12
1.0
 22
0.0
 32
0.0
 13
1.0
 23
0.0
 33
0.0
 40
0.0
 40
0.0
 40
0.0
 40
0.0
 40
0.1666666666666667
 40
0.1666666666666667
 40
0.1666666666666667
 40
0.1666666666666667
 40
0.3333333333333333
 40
0.3333333333333333
 40
0.3333333333333333
 40
0.3333333333333333
 40
0.5
 40
0.5
 40
0.5
 40
0.5
 40
0.6666666666666666
 40
0.6666666666666666
 40
0.6666666666666666
 40
0.6666666666666666
 40
1.0
 40
1.0
 40
1.0
 40
1.0
 10
-5.12974
 20
-4.28896
 30
0.0
 10
-5.12974
 20
-4.28896
 30
0.0
 10
-5.12974
 20
-4.28896
 30
0.0
 10
-5.12974
 20
-4.28896
 30
0.0
 10
-5.12974
 20
-4.28896
 30
0.0
 10
-5.14492
 20
-4.33623
 30
0.0
 10
-5.19007
 20
-4.38598
 30
0.0
 10
-5.15725
 20
-4.43643
 30
0.0
 10
-5.15725
 20
-4.43643
 30
0.0
 10
-5.1382
 20
-4.50205
 30
0.0
 10
-5.06484
 20
-4.51369
 30
0.0
 10
-5.00909
 20
-4.53238
 30
0.0
 10
-5.00909
 20
-4.53238
 30
0.0
 10
-4.9544
 20
-4.48794
 30
0.0
 10
-4.90255
 20
-4.43042
 30
0.0
 10
-4.92653
 20
-4.35423
 30
0.0
 10
-4.92653
 20
-4.35423
 30
0.0
 10
-4.94312
 20
-4.25722
 30
0.0
 10
-5.05812
 20
-4.26709
 30
0.0
 10
-5.12974
 20
-4.28896
 30
0.0
  0
SPLINE
  5
69
330
1F
100
AcDbEntity
  8
Camada 1
 62
   156
100
AcDbSpline
210
0.0
220
0.0
230
1.0
 70
    11
 71
     3
 72
    20
 73
    16
 74
     0
 42
0.0000000001
 43
0.0000000001
 12
1.0
 22
0.0
 32
0.0
 13
1.0
 23
0.0
 33
0.0
 40
0.0
 40
0.0
 40
0.0
 40
0.0
 40
0.2
 40
0.2
 40
0.2
 40
0.2
 40
0.4
 40
0.4
 40
0.4
 40
0.4
 40
0.6
 40
0.6
 40
0.6
 40
0.6
 40
1.0
 40
1.0
 40
1.0
 40
1.0
 10
0.34466
 20
-4.40221
 30
0.0
 10
0.34466
 20
-4.40221
 30
0.0
 10
0.34466
 20
-4.40221
 30
0.0
 10
0.34466
 20
-4.40221
 30
0.0
 10
0.34466
 20
-4.40221
 30
0.0
 10
0.28151
 20
-4.42126
 30
0.0
 10
0.236
 20
-4.4904
 30
0.0
 10
0.25717
 20
-4.55637
 30
0.0
 10
0.25717
 20
-4.55637
 30
0.0
 10
0.2734
 20
-4.65797
 30
0.0
 10
0.43144
 20
-4.68479
 30
0.0
 10
0.47941
 20
-4.59236
 30
0.0
 10
0.47941
 20
-4.59236
 30
0.0
 10
0.54785
 20
-4.50558
 30
0.0
 10
0.44767
 20
-4.37117
 30
0.0
 10
0.34466
 20
-4.40221
 30
0.0
  0
SPLINE
  5
6A
330
1F
100
AcDbEntity
  8
Camada 1
 62
   156
100
AcDbSpline
210
0.0
220
0.0
230
1.0
 70
    11
 71
     3
 72
    20
 73
    16
 74
     0
 42
0.0000000001
 43
0.0000000001
 12
1.0
 22
0.0
 32
0.0
 13
1.0
 23
0.0
 33
0.0
 40
0.0
 40
0.0
 40
0.0
 40
0.0
 40
0.2
 40
0.2
 40
0.2
 40
0.2
 40
0.4
 40
0.4
 40
0.4
 40
0.4
 40
0.6
 40
0.6
 40
0.6
 40
0.6
 40
1.0
 40
1.0
 40
1.0
 40
1.0
 10
-5.14103
 20
-4.77686
 30
0.0
 10
-5.14103
 20
-4.77686
 30
0.0
 10
-5.14103
 20
-4.77686
 30
0.0
 10
-5.14103
 20
-4.77686
 30
0.0
 10
-5.14103
 20
-4.77686
 30
0.0
 10
-5.13362
 20
-4.83682
 30
0.0
 10
-5.14456
 20
-4.92362
 30
0.0
 10
-5.07012
 20
-4.94548
 30
0.0
 10
-5.07012
 20
-4.94548
 30
0.0
 10
-4.95265
 20
-5.01182
 30
0.0
 10
-4.8207
 20
-4.83012
 30
0.0
 10
-4.93184
 20
-4.74616
 30
0.0
 10
-4.93184
 20
-4.74616
 30
0.0
 10
-4.99145
 20
-4.66467
 30
0.0
 10
-5.08776
 20
-4.72007
 30
0.0
 10
-5.14103
 20
-4.77686
 30
0.0
  0
SPLINE
  5
6B
330
1F
100
AcDbEntity
  8
Camada 1
 62
   156
100
AcDbSpline
210
0.0
220
0.0
230
1.0
 70
    11
 71
     3
 72
    24
 73
    20
 74
     0
 42
0.0000000001
 43
0.0000000001
 12
1.0
 22
0.0
 32
0.0
 13
1.0
 23
0.0
 33
0.0
 40
0.0
 40
0.0
 40
0.0
 40
0.0
 40
0.1666666666666667
 40
0.1666666666666667
 40
0.1666666666666667
 40
0.1666666666666667
 40
0.3333333333333333
 40
0.3333333333333333
 40
0.3333333333333333
 40
0.3333333333333333
 40
0.5
 40
0.5
 40
0.5
 40
0.5
 40
0.6666666666666666
 40
0.6666666666666666
 40
0.6666666666666666
 40
0.6666666666666666
 40
1.0
 40
1.0
 40
1.0
 40
1.0
 10
-0.53057
 20
-4.6855
 30
0.0
 10
-0.53057
 20
-4.6855
 30
0.0
 10
-0.53057
 20
-4.6855
 30
0.0
 10
-0.53057
 20
-4.6855
 30
0.0
 10
-0.53057
 20
-4.6855
 30
0.0
 10
-0.65546
 20
-4.84706
 30
0.0
 10
-0.77647
 20
-5.01216
 30
0.0
 10
-0.90382
 20
-5.17196
 30
0.0
 10
-0.90382
 20
-5.17196
 30
0.0
 10
-0.7486
 20
-5.27428
 30
0.0
 10
-0.60184
 20
-5.38893
 30
0.0
 10
-0.45402
 20
-5.50111
 30
0.0
 10
-0.45402
 20
-5.50111
 30
0.0
 10
-0.33055
 20
-5.33814
 30
0.0
 10
-0.20603
 20
-5.1762
 30
0.0
 10
-0.08326
 20
-5.01251
 30
0.0
 10
-0.08326
 20
-5.01251
 30
0.0
 10
-0.23636
 20
-4.90879
 30
0.0
 10
-0.38276
 20
-4.79626
 30
0.0
 10
-0.53057
 20
-4.6855
 30
0.0
  0
SPLINE
  5
6C
330
1F
100
AcDbEntity
  8
Camada 1
 62
   156
100
AcDbSpline
210
0.0
220
0.0
230
1.0
 70
    11
 71
     3
 72
    20
 73
    16
 74
     0
 42
0.0000000001
 43
0.0000000001
 12
1.0
 22
0.0
 32
0.0
 13
1.0
 23
0.0
 33
0.0
 40
0.0
 40
0.0
 40
0.0
 40
0.0
 40
0.2
 40
0.2
 40
0.2
 40
0.2
 40
0.4
 40
0.4
 40
0.4
 40
0.4
 40
0.6
 40
0.6
 40
0.6
 40
0.6
 40
1.0
 40
1.0
 40
1.0
 40
1.0
 10
-1.77623
 20
-4.8146
 30
0.0
 10
-1.77623
 20
-4.8146
 30
0.0
 10
-1.77623
 20
-4.8146
 30
0.0
 10
-1.77623
 20
-4.8146
 30
0.0
 10
-1.77623
 20
-4.8146
 30
0.0
 10
-1.83303
 20
-4.85024
 30
0.0
 10
-1.8729
 20
-4.93067
 30
0.0
 10
-1.82669
 20
-4.99028
 30
0.0
 10
-1.82669
 20
-4.99028
 30
0.0
 10
-1.78611
 20
-5.08025
 30
0.0
 10
-1.64959
 20
-5.07355
 30
0.0
 10
-1.61395
 20
-4.98429
 30
0.0
 10
-1.61395
 20
-4.98429
 30
0.0
 10
-1.54975
 20
-4.88622
 30
0.0
 10
-1.6771
 20
-4.76064
 30
0.0
 10
-1.77623
 20
-4.8146
 30
0.0
  0
SPLINE
  5
6D
330
1F
100
AcDbEntity
  8
Camada 1
 62
   156
100
AcDbSpline
210
0.0
220
0.0
230
1.0
 70
    11
 71
     3
 72
    24
 73
    20
 74
     0
 42
0.0000000001
 43
0.0000000001
 12
1.0
 22
0.0
 32
0.0
 13
1.0
 23
0.0
 33
0.0
 40
0.0
 40
0.0
 40
0.0
 40
0.0
 40
0.1666666666666667
 40
0.1666666666666667
 40
0.1666666666666667
 40
0.1666666666666667
 40
0.3333333333333333
 40
0.3333333333333333
 40
0.3333333333333333
 40
0.3333333333333333
 40
0.5
 40
0.5
 40
0.5
 40
0.5
 40
0.6666666666666666
 40
0.6666666666666666
 40
0.6666666666666666
 40
0.6666666666666666
 40
1.0
 40
1.0
 40
1.0
 40
1.0
 10
0.34042
 20
-4.84001
 30
0.0
 10
0.34042
 20
-4.84001
 30
0.0
 10
0.34042
 20
-4.84001
 30
0.0
 10
0.34042
 20
-4.84001
 30
0.0
 10
0.34042
 20
-4.84001
 30
0.0
 10
0.28609
 20
-4.89892
 30
0.0
 10
0.26882
 20
-4.97264
 30
0.0
 10
0.29457
 20
-5.04885
 30
0.0
 10
0.29457
 20
-5.04885
 30
0.0
 10
0.34466
 20
-5.0672
 30
0.0
 10
0.40321
 20
-5.11341
 30
0.0
 10
0.4572
 20
-5.07884
 30
0.0
 10
0.4572
 20
-5.07884
 30
0.0
 10
0.5348
 20
-5.04568
 30
0.0
 10
0.5535
 20
-4.91761
 30
0.0
 10
0.47978
 20
-4.87
 30
0.0
 10
0.47978
 20
-4.87
 30
0.0
 10
0.44379
 20
-4.83295
 30
0.0
 10
0.38593
 20
-4.85024
 30
0.0
 10
0.34042
 20
-4.84001
 30
0.0
  0
SPLINE
  5
6E
330
1F
100
AcDbEntity
  8
Camada 1
 62
   156
100
AcDbSpline
210
0.0
220
0.0
230
1.0
 70
    11
 71
     3
 72
    20
 73
    16
 74
     0
 42
0.0000000001
 43
0.0000000001
 12
1.0
 22
0.0
 32
0.0
 13
1.0
 23
0.0
 33
0.0
 40
0.0
 40
0.0
 40
0.0
 40
0.0
 40
0.2
 40
0.2
 40
0.2
 40
0.2
 40
0.4
 40
0.4
 40
0.4
 40
0.4
 40
0.6
 40
0.6
 40
0.6
 40
0.6
 40
1.0
 40
1.0
 40
1.0
 40
1.0
 10
-2.6536
 20
-4.89222
 30
0.0
 10
-2.6536
 20
-4.89222
 30
0.0
 10
-2.6536
 20
-4.89222
 30
0.0
 10
-2.6536
 20
-4.89222
 30
0.0
 10
-2.6536
 20
-4.89222
 30
0.0
 10
-2.72661
 20
-4.94266
 30
0.0
 10
-2.71497
 20
-5.06013
 30
0.0
 10
-2.63525
 20
-5.09719
 30
0.0
 10
-2.63525
 20
-5.09719
 30
0.0
 10
-2.56153
 20
-5.1494
 30
0.0
 10
-2.44016
 20
-5.07495
 30
0.0
 10
-2.45638
 20
-4.9857
 30
0.0
 10
-2.45638
 20
-4.9857
 30
0.0
 10
-2.44298
 20
-4.88552
 30
0.0
 10
-2.58268
 20
-4.82096
 30
0.0
 10
-2.6536
 20
-4.89222
 30
0.0
  0
SPLINE
  5
6F
330
1F
100
AcDbEntity
  8
Camada 1
 62
   156
100
AcDbSpline
210
0.0
220
0.0
230
1.0
 70
    11
 71
     3
 72
    24
 73
    20
 74
     0
 42
0.0000000001
 43
0.0000000001
 12
1.0
 22
0.0
 32
0.0
 13
1.0
 23
0.0
 33
0.0
 40
0.0
 40
0.0
 40
0.0
 40
0.0
 40
0.1666666666666667
 40
0.1666666666666667
 40
0.1666666666666667
 40
0.1666666666666667
 40
0.3333333333333333
 40
0.3333333333333333
 40
0.3333333333333333
 40
0.3333333333333333
 40
0.5
 40
0.5
 40
0.5
 40
0.5
 40
0.6666666666666666
 40
0.6666666666666666
 40
0.6666666666666666
 40
0.6666666666666666
 40
1.0
 40
1.0
 40
1.0
 40
1.0
 10
-4.33563
 20
-5.32754
 30
0.0
 10
-4.33563
 20
-5.32754
 30
0.0
 10
-4.33563
 20
-5.32754
 30
0.0
 10
-4.33563
 20
-5.32754
 30
0.0
 10
-4.33563
 20
-5.32754
 30
0.0
 10
-4.19946
 20
-5.47747
 30
0.0
 10
-4.05765
 20
-5.62317
 30
0.0
 10
-3.92783
 20
-5.77911
 30
0.0
 10
-3.92783
 20
-5.77911
 30
0.0
 10
-3.78743
 20
-5.65669
 30
0.0
 10
-3.65337
 20
-5.52686
 30
0.0
 10
-3.50731
 20
-5.41079
 30
0.0
 10
-3.50731
 20
-5.41079
 30
0.0
 10
-3.64666
 20
-5.26122
 30
0.0
 10
-3.78319
 20
-5.10952
 30
0.0
 10
-3.91831
 20
-4.95678
 30
0.0
 10
-3.91831
 20
-4.95678
 30
0.0
 10
-4.05341
 20
-5.08484
 30
0.0
 10
-4.19876
 20
-5.20161
 30
0.0
 10
-4.33563
 20
-5.32754
 30
0.0
  0
SPLINE
  5
70
330
1F
100
AcDbEntity
  8
Camada 1
 62
   156
100
AcDbSpline
210
0.0
220
0.0
230
1.0
 70
    11
 71
     3
 72
    28
 73
    24
 74
     0
 42
0.0000000001
 43
0.0000000001
 12
1.0
 22
0.0
 32
0.0
 13
1.0
 23
0.0
 33
0.0
 40
0.0
 40
0.0
 40
0.0
 40
0.0
 40
0.1428571428571428
 40
0.1428571428571428
 40
0.1428571428571428
 40
0.1428571428571428
 40
0.2857142857142857
 40
0.2857142857142857
 40
0.2857142857142857
 40
0.2857142857142857
 40
0.4285714285714285
 40
0.4285714285714285
 40
0.4285714285714285
 40
0.4285714285714285
 40
0.5714285714285714
 40
0.5714285714285714
 40
0.5714285714285714
 40
0.5714285714285714
 40
0.7142857142857143
 40
0.7142857142857143
 40
0.7142857142857143
 40
0.7142857142857143
 40
1.0
 40
1.0
 40
1.0
 40
1.0
 10
-2.16994
 20
-5.02239
 30
0.0
 10
-2.16994
 20
-5.02239
 30
0.0
 10
-2.16994
 20
-5.02239
 30
0.0
 10
-2.16994
 20
-5.02239
 30
0.0
 10
-2.16994
 20
-5.02239
 30
0.0
 10
-2.15971
 20
-5.42139
 30
0.0
 10
-2.11208
 20
-5.81826
 30
0.0
 10
-2.0895
 20
-6.2169
 30
0.0
 10
-2.0895
 20
-6.2169
 30
0.0
 10
-2.06021
 20
-6.42785
 30
0.0
 10
-2.07785
 20
-6.64481
 30
0.0
 10
-2.02847
 20
-6.85296
 30
0.0
 10
-2.02847
 20
-6.85296
 30
0.0
 10
-1.95721
 20
-6.88753
 30
0.0
 10
-1.93569
 20
-6.80251
 30
0.0
 10
-1.95157
 20
-6.751
 30
0.0
 10
-1.95157
 20
-6.751
 30
0.0
 10
-1.99178
 20
-6.17704
 30
0.0
 10
-2.03906
 20
-5.60377
 30
0.0
 10
-2.07997
 20
-5.03014
 30
0.0
 10
-2.07997
 20
-5.03014
 30
0.0
 10
-2.10255
 20
-5.02804
 30
0.0
 10
-2.14736
 20
-5.02451
 30
0.0
 10
-2.16994
 20
-5.02239
 30
0.0
  0
SPLINE
  5
71
330
1F
100
AcDbEntity
  8
Camada 1
 62
   156
100
AcDbSpline
210
0.0
220
0.0
230
1.0
 70
    11
 71
     3
 72
    28
 73
    24
 74
     0
 42
0.0000000001
 43
0.0000000001
 12
1.0
 22
0.0
 32
0.0
 13
1.0
 23
0.0
 33
0.0
 40
0.0
 40
0.0
 40
0.0
 40
0.0
 40
0.1428571428571428
 40
0.1428571428571428
 40
0.1428571428571428
 40
0.1428571428571428
 40
0.2857142857142857
 40
0.2857142857142857
 40
0.2857142857142857
 40
0.2857142857142857
 40
0.4285714285714285
 40
0.4285714285714285
 40
0.4285714285714285
 40
0.4285714285714285
 40
0.5714285714285714
 40
0.5714285714285714
 40
0.5714285714285714
 40
0.5714285714285714
 40
0.7142857142857143
 40
0.7142857142857143
 40
0.7142857142857143
 40
0.7142857142857143
 40
1.0
 40
1.0
 40
1.0
 40
1.0
 10
-5.10857
 20
-5.23689
 30
0.0
 10
-5.10857
 20
-5.23689
 30
0.0
 10
-5.10857
 20
-5.23689
 30
0.0
 10
-5.10857
 20
-5.23689
 30
0.0
 10
-5.10857
 20
-5.23689
 30
0.0
 10
-5.1495
 20
-5.33424
 30
0.0
 10
-5.00627
 20
-5.45313
 30
0.0
 10
-4.92302
 20
-5.37658
 30
0.0
 10
-4.92302
 20
-5.37658
 30
0.0
 10
-4.87997
 20
-5.35047
 30
0.0
 10
-4.87469
 20
-5.2965
 30
0.0
 10
-4.8588
 20
-5.25382
 30
0.0
 10
-4.8588
 20
-5.25382
 30
0.0
 10
-4.87151
 20
-5.23511
 30
0.0
 10
-4.89656
 20
-5.19771
 30
0.0
 10
-4.90926
 20
-5.17939
 30
0.0
 10
-4.90926
 20
-5.17939
 30
0.0
 10
-4.93254
 20
-5.16845
 30
0.0
 10
-4.9791
 20
-5.14728
 30
0.0
 10
-5.00239
 20
-5.13634
 30
0.0
 10
-5.00239
 20
-5.13634
 30
0.0
 10
-5.03943
 20
-5.16704
 30
0.0
 10
-5.09834
 20
-5.18361
 30
0.0
 10
-5.10857
 20
-5.23689
 30
0.0
  0
SPLINE
  5
72
330
1F
100
AcDbEntity
  8
Camada 1
 62
   156
100
AcDbSpline
210
0.0
220
0.0
230
1.0
 70
    11
 71
     3
 72
    20
 73
    16
 74
     0
 42
0.0000000001
 43
0.0000000001
 12
1.0
 22
0.0
 32
0.0
 13
1.0
 23
0.0
 33
0.0
 40
0.0
 40
0.0
 40
0.0
 40
0.0
 40
0.2
 40
0.2
 40
0.2
 40
0.2
 40
0.4
 40
0.4
 40
0.4
 40
0.4
 40
0.6
 40
0.6
 40
0.6
 40
0.6
 40
1.0
 40
1.0
 40
1.0
 40
1.0
 10
-1.81999
 20
-5.37481
 30
0.0
 10
-1.81999
 20
-5.37481
 30
0.0
 10
-1.81999
 20
-5.37481
 30
0.0
 10
-1.81999
 20
-5.37481
 30
0.0
 10
-1.81999
 20
-5.37481
 30
0.0
 10
-1.82774
 20
-5.49723
 30
0.0
 10
-1.63196
 20
-5.53991
 30
0.0
 10
-1.58891
 20
-5.42456
 30
0.0
 10
-1.58891
 20
-5.42456
 30
0.0
 10
-1.53246
 20
-5.33424
 30
0.0
 10
-1.62489
 20
-5.2651
 30
0.0
 10
-1.69403
 20
-5.22454
 30
0.0
 10
-1.69403
 20
-5.22454
 30
0.0
 10
-1.74519
 20
-5.26405
 30
0.0
 10
-1.83938
 20
-5.29333
 30
0.0
 10
-1.81999
 20
-5.37481
 30
0.0
  0
SPLINE
  5
73
330
1F
100
AcDbEntity
  8
Camada 1
 62
   156
100
AcDbSpline
210
0.0
220
0.0
230
1.0
 70
    11
 71
     3
 72
    36
 73
    32
 74
     0
 42
0.0000000001
 43
0.0000000001
 12
1.0
 22
0.0
 32
0.0
 13
1.0
 23
0.0
 33
0.0
 40
0.0
 40
0.0
 40
0.0
 40
0.0
 40
0.1111111111111111
 40
0.1111111111111111
 40
0.1111111111111111
 40
0.1111111111111111
 40
0.2222222222222222
 40
0.2222222222222222
 40
0.2222222222222222
 40
0.2222222222222222
 40
0.3333333333333333
 40
0.3333333333333333
 40
0.3333333333333333
 40
0.3333333333333333
 40
0.4444444444444444
 40
0.4444444444444444
 40
0.4444444444444444
 40
0.4444444444444444
 40
0.5555555555555556
 40
0.5555555555555556
 40
0.5555555555555556
 40
0.5555555555555556
 40
0.6666666666666666
 40
0.6666666666666666
 40
0.6666666666666666
 40
0.6666666666666666
 40
0.7777777777777778
 40
0.7777777777777778
 40
0.7777777777777778
 40
0.7777777777777778
 40
1.0
 40
1.0
 40
1.0
 40
1.0
 10
-5.40385
 20
-5.40799
 30
0.0
 10
-5.40385
 20
-5.40799
 30
0.0
 10
-5.40385
 20
-5.40799
 30
0.0
 10
-5.40385
 20
-5.40799
 30
0.0
 10
-5.40385
 20
-5.40799
 30
0.0
 10
-5.3781
 20
-5.61505
 30
0.0
 10
-5.39186
 20
-5.82672
 30
0.0
 10
-5.33965
 20
-6.03027
 30
0.0
 10
-5.33965
 20
-6.03027
 30
0.0
 10
-4.43371
 20
-6.28004
 30
0.0
 10
-3.53306
 20
-6.54991
 30
0.0
 10
-2.62926
 20
-6.80745
 30
0.0
 10
-2.62926
 20
-6.80745
 30
0.0
 10
-2.58092
 20
-6.82015
 30
0.0
 10
-2.53154
 20
-6.82509
 30
0.0
 10
-2.48108
 20
-6.82191
 30
0.0
 10
-2.48108
 20
-6.82191
 30
0.0
 10
-2.48603
 20
-6.76899
 30
0.0
 10
-2.51812
 20
-6.73161
 30
0.0
 10
-2.56998
 20
-6.72279
 30
0.0
 10
-2.56998
 20
-6.72279
 30
0.0
 10
-3.46957
 20
-6.46313
 30
0.0
 10
-4.36951
 20
-6.20596
 30
0.0
 10
-5.26768
 20
-5.94315
 30
0.0
 10
-5.26768
 20
-5.94315
 30
0.0
 10
-5.28321
 20
-5.72089
 30
0.0
 10
-5.2892
 20
-5.49689
 30
0.0
 10
-5.32589
 20
-5.27709
 30
0.0
 10
-5.32589
 20
-5.27709
 30
0.0
 10
-5.41796
 20
-5.22807
 30
0.0
 10
-5.41197
 20
-5.35047
 30
0.0
 10
-5.40385
 20
-5.40799
 30
0.0
  0
SPLINE
  5
74
330
1F
100
AcDbEntity
  8
Camada 1
 62
   156
100
AcDbSpline
210
0.0
220
0.0
230
1.0
 70
    11
 71
     3
 72
    24
 73
    20
 74
     0
 42
0.0000000001
 43
0.0000000001
 12
1.0
 22
0.0
 32
0.0
 13
1.0
 23
0.0
 33
0.0
 40
0.0
 40
0.0
 40
0.0
 40
0.0
 40
0.1666666666666667
 40
0.1666666666666667
 40
0.1666666666666667
 40
0.1666666666666667
 40
0.3333333333333333
 40
0.3333333333333333
 40
0.3333333333333333
 40
0.3333333333333333
 40
0.5
 40
0.5
 40
0.5
 40
0.5
 40
0.6666666666666666
 40
0.6666666666666666
 40
0.6666666666666666
 40
0.6666666666666666
 40
1.0
 40
1.0
 40
1.0
 40
1.0
 10
0.33265
 20
-5.30637
 30
0.0
 10
0.33265
 20
-5.30637
 30
0.0
 10
0.33265
 20
-5.30637
 30
0.0
 10
0.33265
 20
-5.30637
 30
0.0
 10
0.33265
 20
-5.30637
 30
0.0
 10
0.30232
 20
-5.37023
 30
0.0
 10
0.30339
 20
-5.43725
 30
0.0
 10
0.34006
 20
-5.49864
 30
0.0
 10
0.34006
 20
-5.49864
 30
0.0
 10
0.36583
 20
-5.50817
 30
0.0
 10
0.41697
 20
-5.52793
 30
0.0
 10
0.44272
 20
-5.5378
 30
0.0
 10
0.44272
 20
-5.5378
 30
0.0
 10
0.5401
 20
-5.505
 30
0.0
 10
0.5796
 20
-5.40762
 30
0.0
 10
0.53269
 20
-5.3159
 30
0.0
 10
0.53269
 20
-5.3159
 30
0.0
 10
0.46884
 20
-5.27569
 30
0.0
 10
0.3997
 20
-5.2718
 30
0.0
 10
0.33265
 20
-5.30637
 30
0.0
  0
SPLINE
  5
75
330
1F
100
AcDbEntity
  8
Camada 1
 62
   156
100
AcDbSpline
210
0.0
220
0.0
230
1.0
 70
    11
 71
     3
 72
    24
 73
    20
 74
     0
 42
0.0000000001
 43
0.0000000001
 12
1.0
 22
0.0
 32
0.0
 13
1.0
 23
0.0
 33
0.0
 40
0.0
 40
0.0
 40
0.0
 40
0.0
 40
0.1666666666666667
 40
0.1666666666666667
 40
0.1666666666666667
 40
0.1666666666666667
 40
0.3333333333333333
 40
0.3333333333333333
 40
0.3333333333333333
 40
0.3333333333333333
 40
0.5
 40
0.5
 40
0.5
 40
0.5
 40
0.6666666666666666
 40
0.6666666666666666
 40
0.6666666666666666
 40
0.6666666666666666
 40
1.0
 40
1.0
 40
1.0
 40
1.0
 10
-2.61445
 20
-5.32013
 30
0.0
 10
-2.61445
 20
-5.32013
 30
0.0
 10
-2.61445
 20
-5.32013
 30
0.0
 10
-2.61445
 20
-5.32013
 30
0.0
 10
-2.61445
 20
-5.32013
 30
0.0
 10
-2.68746
 20
-5.35366
 30
0.0
 10
-2.661
 20
-5.4429
 30
0.0
 10
-2.66629
 20
-5.50639
 30
0.0
 10
-2.66629
 20
-5.50639
 30
0.0
 10
-2.61196
 20
-5.53604
 30
0.0
 10
-2.552
 20
-5.55015
 30
0.0
 10
-2.49061
 20
-5.55473
 30
0.0
 10
-2.49061
 20
-5.55473
 30
0.0
 10
-2.46768
 20
-5.51699
 30
0.0
 10
-2.43487
 20
-5.48417
 30
0.0
 10
-2.42147
 20
-5.4422
 30
0.0
 10
-2.42147
 20
-5.4422
 30
0.0
 10
-2.42005
 20
-5.35012
 30
0.0
 10
-2.53047
 20
-5.2644
 30
0.0
 10
-2.61445
 20
-5.32013
 30
0.0
  0
SPLINE
  5
76
330
1F
100
AcDbEntity
  8
Camada 1
 62
   156
100
AcDbSpline
210
0.0
220
0.0
230
1.0
 70
    11
 71
     3
 72
    20
 73
    16
 74
     0
 42
0.0000000001
 43
0.0000000001
 12
1.0
 22
0.0
 32
0.0
 13
1.0
 23
0.0
 33
0.0
 40
0.0
 40
0.0
 40
0.0
 40
0.0
 40
0.2
 40
0.2
 40
0.2
 40
0.2
 40
0.4
 40
0.4
 40
0.4
 40
0.4
 40
0.6
 40
0.6
 40
0.6
 40
0.6
 40
1.0
 40
1.0
 40
1.0
 40
1.0
 10
-5.03767
 20
-5.61083
 30
0.0
 10
-5.03767
 20
-5.61083
 30
0.0
 10
-5.03767
 20
-5.61083
 30
0.0
 10
-5.03767
 20
-5.61083
 30
0.0
 10
-5.03767
 20
-5.61083
 30
0.0
 10
-5.12516
 20
-5.66974
 30
0.0
 10
-5.08248
 20
-5.77699
 30
0.0
 10
-5.0225
 20
-5.83766
 30
0.0
 10
-5.0225
 20
-5.83766
 30
0.0
 10
-4.959
 20
-5.83132
 30
0.0
 10
-4.86657
 20
-5.8359
 30
0.0
 10
-4.84928
 20
-5.75582
 30
0.0
 10
-4.84928
 20
-5.75582
 30
0.0
 10
-4.80272
 20
-5.64928
 30
0.0
 10
-4.94911
 20
-5.52898
 30
0.0
 10
-5.03767
 20
-5.61083
 30
0.0
  0
SPLINE
  5
77
330
1F
100
AcDbEntity
  8
Camada 1
 62
   156
100
AcDbSpline
210
0.0
220
0.0
230
1.0
 70
    11
 71
     3
 72
    20
 73
    16
 74
     0
 42
0.0000000001
 43
0.0000000001
 12
1.0
 22
0.0
 32
0.0
 13
1.0
 23
0.0
 33
0.0
 40
0.0
 40
0.0
 40
0.0
 40
0.0
 40
0.2
 40
0.2
 40
0.2
 40
0.2
 40
0.4
 40
0.4
 40
0.4
 40
0.4
 40
0.6
 40
0.6
 40
0.6
 40
0.6
 40
1.0
 40
1.0
 40
1.0
 40
1.0
 10
-1.78082
 20
-5.88811
 30
0.0
 10
-1.78082
 20
-5.88811
 30
0.0
 10
-1.78082
 20
-5.88811
 30
0.0
 10
-1.78082
 20
-5.88811
 30
0.0
 10
-1.78082
 20
-5.88811
 30
0.0
 10
-1.71696
 20
-5.93255
 30
0.0
 10
-1.64641
 20
-5.94208
 30
0.0
 10
-1.57726
 20
-5.90327
 30
0.0
 10
-1.57726
 20
-5.90327
 30
0.0
 10
-1.50178
 20
-5.80874
 30
0.0
 10
-1.58396
 20
-5.65174
 30
0.0
 10
-1.7078
 20
-5.68631
 30
0.0
 10
-1.7078
 20
-5.68631
 30
0.0
 10
-1.80235
 20
-5.70395
 30
0.0
 10
-1.79987
 20
-5.81473
 30
0.0
 10
-1.78082
 20
-5.88811
 30
0.0
  0
SPLINE
  5
78
330
1F
100
AcDbEntity
  8
Camada 1
 62
   156
100
AcDbSpline
210
0.0
220
0.0
230
1.0
 70
    11
 71
     3
 72
    20
 73
    16
 74
     0
 42
0.0000000001
 43
0.0000000001
 12
1.0
 22
0.0
 32
0.0
 13
1.0
 23
0.0
 33
0.0
 40
0.0
 40
0.0
 40
0.0
 40
0.0
 40
0.2
 40
0.2
 40
0.2
 40
0.2
 40
0.4
 40
0.4
 40
0.4
 40
0.4
 40
0.6
 40
0.6
 40
0.6
 40
0.6
 40
1.0
 40
1.0
 40
1.0
 40
1.0
 10
-2.66135
 20
-5.86977
 30
0.0
 10
-2.66135
 20
-5.86977
 30
0.0
 10
-2.66135
 20
-5.86977
 30
0.0
 10
-2.66135
 20
-5.86977
 30
0.0
 10
-2.66135
 20
-5.86977
 30
0.0
 10
-2.63067
 20
-5.9375
 30
0.0
 10
-2.57846
 20
-6.01653
 30
0.0
 10
-2.49061
 20
-5.989
 30
0.0
 10
-2.49061
 20
-5.989
 30
0.0
 10
-2.35656
 20
-5.95937
 30
0.0
 10
-2.38514
 20
-5.72971
 30
0.0
 10
-2.52694
 20
-5.74417
 30
0.0
 10
-2.52694
 20
-5.74417
 30
0.0
 10
-2.60492
 20
-5.72971
 30
0.0
 10
-2.6296
 20
-5.81931
 30
0.0
 10
-2.66135
 20
-5.86977
 30
0.0
  0
SPLINE
  5
79
330
1F
100
AcDbEntity
  8
Camada 1
 62
   156
100
AcDbSpline
210
0.0
220
0.0
230
1.0
 70
    11
 71
     3
 72
    36
 73
    32
 74
     0
 42
0.0000000001
 43
0.0000000001
 12
1.0
 22
0.0
 32
0.0
 13
1.0
 23
0.0
 33
0.0
 40
0.0
 40
0.0
 40
0.0
 40
0.0
 40
0.1111111111111111
 40
0.1111111111111111
 40
0.1111111111111111
 40
0.1111111111111111
 40
0.2222222222222222
 40
0.2222222222222222
 40
0.2222222222222222
 40
0.2222222222222222
 40
0.3333333333333333
 40
0.3333333333333333
 40
0.3333333333333333
 40
0.3333333333333333
 40
0.4444444444444444
 40
0.4444444444444444
 40
0.4444444444444444
 40
0.4444444444444444
 40
0.5555555555555556
 40
0.5555555555555556
 40
0.5555555555555556
 40
0.5555555555555556
 40
0.6666666666666666
 40
0.6666666666666666
 40
0.6666666666666666
 40
0.6666666666666666
 40
0.7777777777777778
 40
0.7777777777777778
 40
0.7777777777777778
 40
0.7777777777777778
 40
1.0
 40
1.0
 40
1.0
 40
1.0
 10
-0.32526
 20
-6.44515
 30
0.0
 10
-0.32526
 20
-6.44515
 30
0.0
 10
-0.32526
 20
-6.44515
 30
0.0
 10
-0.32526
 20
-6.44515
 30
0.0
 10
-0.32526
 20
-6.44515
 30
0.0
 10
-0.78811
 20
-6.67869
 30
0.0
 10
-1.25764
 20
-6.89987
 30
0.0
 10
-1.71767
 20
-7.13835
 30
0.0
 10
-1.71767
 20
-7.13835
 30
0.0
 10
-1.76988
 20
-7.15424
 30
0.0
 10
-1.70604
 20
-7.20362
 30
0.0
 10
-1.70322
 20
-7.23395
 30
0.0
 10
-1.70322
 20
-7.23395
 30
0.0
 10
-1.10666
 20
-6.94396
 30
0.0
 10
-0.5133
 20
-6.64622
 30
0.0
 10
0.08183
 20
-6.35306
 30
0.0
 10
0.08183
 20
-6.35306
 30
0.0
 10
0.43285
 20
-6.17386
 30
0.0
 10
0.79338
 20
-6.01229
 30
0.0
 10
1.13875
 20
-5.82284
 30
0.0
 10
1.13875
 20
-5.82284
 30
0.0
 10
1.13734
 20
-5.81015
 30
0.0
 10
1.13488
 20
-5.78474
 30
0.0
 10
1.13347
 20
-5.77205
 30
0.0
 10
1.13347
 20
-5.77205
 30
0.0
 10
1.13347
 20
-5.77205
 30
0.0
 10
1.09924
 20
-5.75017
 30
0.0
 10
1.09924
 20
-5.75017
 30
0.0
 10
1.09924
 20
-5.75017
 30
0.0
 10
0.61877
 20
-5.9689
 30
0.0
 10
0.15098
 20
-6.2169
 30
0.0
 10
-0.32526
 20
-6.44515
 30
0.0
  0
SPLINE
  5
7A
330
1F
100
AcDbEntity
  8
Camada 1
 62
   156
100
AcDbSpline
210
0.0
220
0.0
230
1.0
 70
    11
 71
     3
 72
    28
 73
    24
 74
     0
 42
0.0000000001
 43
0.0000000001
 12
1.0
 22
0.0
 32
0.0
 13
1.0
 23
0.0
 33
0.0
 40
0.0
 40
0.0
 40
0.0
 40
0.0
 40
0.1428571428571428
 40
0.1428571428571428
 40
0.1428571428571428
 40
0.1428571428571428
 40
0.2857142857142857
 40
0.2857142857142857
 40
0.2857142857142857
 40
0.2857142857142857
 40
0.4285714285714285
 40
0.4285714285714285
 40
0.4285714285714285
 40
0.4285714285714285
 40
0.5714285714285714
 40
0.5714285714285714
 40
0.5714285714285714
 40
0.5714285714285714
 40
0.7142857142857143
 40
0.7142857142857143
 40
0.7142857142857143
 40
0.7142857142857143
 40
1.0
 40
1.0
 40
1.0
 40
1.0
 10
1.31692
 20
-6.07473
 30
0.0
 10
1.31692
 20
-6.07473
 30
0.0
 10
1.31692
 20
-6.07473
 30
0.0
 10
1.31692
 20
-6.07473
 30
0.0
 10
1.31692
 20
-6.07473
 30
0.0
 10
0.28363
 20
-6.58378
 30
0.0
 10
-0.75318
 20
-7.08685
 30
0.0
 10
-1.78505
 20
-7.59872
 30
0.0
 10
-1.78505
 20
-7.59872
 30
0.0
 10
-1.84962
 20
-7.61495
 30
0.0
 10
-1.80199
 20
-7.67422
 30
0.0
 10
-1.79353
 20
-7.71232
 30
0.0
 10
-1.79353
 20
-7.71232
 30
0.0
 10
-0.72848
 20
-7.18245
 30
0.0
 10
0.34218
 20
-6.66316
 30
0.0
 10
1.41004
 20
-6.13859
 30
0.0
 10
1.41004
 20
-6.13859
 30
0.0
 10
1.48412
 20
-6.09519
 30
0.0
 10
1.59948
 20
-6.0779
 30
0.0
 10
1.60937
 20
-5.97419
 30
0.0
 10
1.60937
 20
-5.97419
 30
0.0
 10
1.50071
 20
-5.96642
 30
0.0
 10
1.41004
 20
-6.03064
 30
0.0
 10
1.31692
 20
-6.07473
 30
0.0
  0
SPLINE
  5
7B
330
1F
100
AcDbEntity
  8
Camada 1
 62
   156
100
AcDbSpline
210
0.0
220
0.0
230
1.0
 70
    11
 71
     3
 72
    20
 73
    16
 74
     0
 42
0.0000000001
 43
0.0000000001
 12
1.0
 22
0.0
 32
0.0
 13
1.0
 23
0.0
 33
0.0
 40
0.0
 40
0.0
 40
0.0
 40
0.0
 40
0.2
 40
0.2
 40
0.2
 40
0.2
 40
0.4
 40
0.4
 40
0.4
 40
0.4
 40
0.6
 40
0.6
 40
0.6
 40
0.6
 40
1.0
 40
1.0
 40
1.0
 40
1.0
 10
-1.67111
 20
-6.12059
 30
0.0
 10
-1.67111
 20
-6.12059
 30
0.0
 10
-1.67111
 20
-6.12059
 30
0.0
 10
-1.67111
 20
-6.12059
 30
0.0
 10
-1.67111
 20
-6.12059
 30
0.0
 10
-1.75472
 20
-6.14
 30
0.0
 10
-1.80374
 20
-6.24583
 30
0.0
 10
-1.74483
 20
-6.31568
 30
0.0
 10
-1.74483
 20
-6.31568
 30
0.0
 10
-1.70744
 20
-6.38765
 30
0.0
 10
-1.58291
 20
-6.39082
 30
0.0
 10
-1.54658
 20
-6.31639
 30
0.0
 10
-1.54658
 20
-6.31639
 30
0.0
 10
-1.46967
 20
-6.23419
 30
0.0
 10
-1.57268
 20
-6.09342
 30
0.0
 10
-1.67111
 20
-6.12059
 30
0.0
  0
SPLINE
  5
7C
330
1F
100
AcDbEntity
  8
Camada 1
 62
   156
100
AcDbSpline
210
0.0
220
0.0
230
1.0
 70
    11
 71
     3
 72
    24
 73
    20
 74
     0
 42
0.0000000001
 43
0.0000000001
 12
1.0
 22
0.0
 32
0.0
 13
1.0
 23
0.0
 33
0.0
 40
0.0
 40
0.0
 40
0.0
 40
0.0
 40
0.1666666666666667
 40
0.1666666666666667
 40
0.1666666666666667
 40
0.1666666666666667
 40
0.3333333333333333
 40
0.3333333333333333
 40
0.3333333333333333
 40
0.3333333333333333
 40
0.5
 40
0.5
 40
0.5
 40
0.5
 40
0.6666666666666666
 40
0.6666666666666666
 40
0.6666666666666666
 40
0.6666666666666666
 40
1.0
 40
1.0
 40
1.0
 40
1.0
 10
-2.55235
 20
-6.17845
 30
0.0
 10
-2.55235
 20
-6.17845
 30
0.0
 10
-2.55235
 20
-6.17845
 30
0.0
 10
-2.55235
 20
-6.17845
 30
0.0
 10
-2.55235
 20
-6.17845
 30
0.0
 10
-2.58127
 20
-6.22466
 30
0.0
 10
-2.63243
 20
-6.26557
 30
0.0
 10
-2.6296
 20
-6.32555
 30
0.0
 10
-2.6296
 20
-6.32555
 30
0.0
 10
-2.6028
 20
-6.4021
 30
0.0
 10
-2.51566
 20
-6.46737
 30
0.0
 10
-2.43735
 20
-6.4148
 30
0.0
 10
-2.43735
 20
-6.4148
 30
0.0
 10
-2.36185
 20
-6.38412
 30
0.0
 10
-2.3869
 20
-6.28886
 30
0.0
 10
-2.3876
 20
-6.22537
 30
0.0
 10
-2.3876
 20
-6.22537
 30
0.0
 10
-2.43981
 20
-6.20137
 30
0.0
 10
-2.49555
 20
-6.18656
 30
0.0
 10
-2.55235
 20
-6.17845
 30
0.0
  0
SPLINE
  5
7D
330
1F
100
AcDbEntity
  8
Camada 1
 62
   156
100
AcDbSpline
210
0.0
220
0.0
230
1.0
 70
    11
 71
     3
 72
    32
 73
    28
 74
     0
 42
0.0000000001
 43
0.0000000001
 12
1.0
 22
0.0
 32
0.0
 13
1.0
 23
0.0
 33
0.0
 40
0.0
 40
0.0
 40
0.0
 40
0.0
 40
0.125
 40
0.125
 40
0.125
 40
0.125
 40
0.25
 40
0.25
 40
0.25
 40
0.25
 40
0.375
 40
0.375
 40
0.375
 40
0.375
 40
0.5
 40
0.5
 40
0.5
 40
0.5
 40
0.625
 40
0.625
 40
0.625
 40
0.625
 40
0.75
 40
0.75
 40
0.75
 40
0.75
 40
1.0
 40
1.0
 40
1.0
 40
1.0
 10
-5.45431
 20
-6.35237
 30
0.0
 10
-5.45431
 20
-6.35237
 30
0.0
 10
-5.45431
 20
-6.35237
 30
0.0
 10
-5.45431
 20
-6.35237
 30
0.0
 10
-5.45431
 20
-6.35237
 30
0.0
 10
-5.37069
 20
-6.39928
 30
0.0
 10
-5.27439
 20
-6.41445
 30
0.0
 10
-5.18371
 20
-6.44338
 30
0.0
 10
-5.18371
 20
-6.44338
 30
0.0
 10
-4.23262
 20
-6.71996
 30
0.0
 10
-3.28119
 20
-6.99619
 30
0.0
 10
-2.33081
 20
-7.27593
 30
0.0
 10
-2.33081
 20
-7.27593
 30
0.0
 10
-2.31739
 20
-7.25866
 30
0.0
 10
-2.29129
 20
-7.22479
 30
0.0
 10
-2.27789
 20
-7.20786
 30
0.0
 10
-2.27789
 20
-7.20786
 30
0.0
 10
-2.37525
 20
-7.15246
 30
0.0
 10
-2.48425
 20
-7.12636
 30
0.0
 10
-2.59115
 20
-7.09708
 30
0.0
 10
-2.59115
 20
-7.09708
 30
0.0
 10
-3.50097
 20
-6.83143
 30
0.0
 10
-4.41149
 20
-6.56721
 30
0.0
 10
-5.32131
 20
-6.30121
 30
0.0
 10
-5.32131
 20
-6.30121
 30
0.0
 10
-5.37352
 20
-6.28499
 30
0.0
 10
-5.4797
 20
-6.26135
 30
0.0
 10
-5.45431
 20
-6.35237
 30
0.0
  0
SPLINE
  5
7E
330
1F
100
AcDbEntity
  8
Camada 1
 62
   156
100
AcDbSpline
210
0.0
220
0.0
230
1.0
 70
    11
 71
     3
 72
    28
 73
    24
 74
     0
 42
0.0000000001
 43
0.0000000001
 12
1.0
 22
0.0
 32
0.0
 13
1.0
 23
0.0
 33
0.0
 40
0.0
 40
0.0
 40
0.0
 40
0.0
 40
0.1428571428571428
 40
0.1428571428571428
 40
0.1428571428571428
 40
0.1428571428571428
 40
0.2857142857142857
 40
0.2857142857142857
 40
0.2857142857142857
 40
0.2857142857142857
 40
0.4285714285714285
 40
0.4285714285714285
 40
0.4285714285714285
 40
0.4285714285714285
 40
0.5714285714285714
 40
0.5714285714285714
 40
0.5714285714285714
 40
0.5714285714285714
 40
0.7142857142857143
 40
0.7142857142857143
 40
0.7142857142857143
 40
0.7142857142857143
 40
1.0
 40
1.0
 40
1.0
 40
1.0
 10
-5.81413
 20
-6.53722
 30
0.0
 10
-5.81413
 20
-6.53722
 30
0.0
 10
-5.81413
 20
-6.53722
 30
0.0
 10
-5.81413
 20
-6.53722
 30
0.0
 10
-5.81413
 20
-6.53722
 30
0.0
 10
-5.80567
 20
-6.58414
 30
0.0
 10
-5.79261
 20
-6.63847
 30
0.0
 10
-5.73405
 20
-6.64023
 30
0.0
 10
-5.73405
 20
-6.64023
 30
0.0
 10
-4.54554
 20
-6.98948
 30
0.0
 10
-3.35633
 20
-7.33696
 30
0.0
 10
-2.16853
 20
-7.68903
 30
0.0
 10
-2.16853
 20
-7.68903
 30
0.0
 10
-2.10326
 20
-7.64776
 30
0.0
 10
-2.12938
 20
-7.59168
 30
0.0
 10
-2.19604
 20
-7.57862
 30
0.0
 10
-2.19604
 20
-7.57862
 30
0.0
 10
-3.34115
 20
-7.24031
 30
0.0
 10
-4.48768
 20
-6.90658
 30
0.0
 10
-5.63245
 20
-6.56721
 30
0.0
 10
-5.63245
 20
-6.56721
 30
0.0
 10
-5.69102
 20
-6.54745
 30
0.0
 10
-5.75275
 20
-6.54075
 30
0.0
 10
-5.81413
 20
-6.53722
 30
0.0
  0
ENDSEC
  0
SECTION
  2
OBJECTS
  0
DICTIONARY
  5
C
330
0
100
AcDbDictionary
281
     1
  3
ACAD_GROUP
350
D
  3
ACAD_LAYOUT
350
1A
  3
ACAD_MATERIAL
350
3B
  3
ACAD_MLEADERSTYLE
350
A0
  3
ACAD_MLINESTYLE
350
17
  3
ACAD_PLOTSETTINGS
350
19
  3
ACAD_PLOTSTYLENAME
350
E
  3
ACAD_TABLESTYLE
350
9F
  3
ACAD_VISUALSTYLE
350
2A
  0
DICTIONARY
  5
D
102
{ACAD_REACTORS
330
C
102
}
330
C
100
AcDbDictionary
281
     1
  0
DICTIONARY
  5
1A
102
{ACAD_REACTORS
330
C
102
}
330
C
100
AcDbDictionary
281
     1
  3
Layout1
350
1E
  3
Layout2
350
26
  3
Model
350
22
  0
DICTIONARY
  5
3B
102
{ACAD_REACTORS
330
C
102
}
330
C
100
AcDbDictionary
281
     1
  3
ByBlock
350
3D
  3
ByLayer
350
3C
  3
Global
350
3E
  0
DICTIONARY
  5
A0
102
{ACAD_REACTORS
330
C
102
}
330
C
100
AcDbDictionary
281
     1
  0
DICTIONARY
  5
17
102
{ACAD_REACTORS
330
C
102
}
330
C
100
AcDbDictionary
281
     1
  3
Standard
350
18
  0
DICTIONARY
  5
19
102
{ACAD_REACTORS
330
C
102
}
330
C
100
AcDbDictionary
281
     1
  0
ACDBDICTIONARYWDFLT
  5
E
102
{ACAD_REACTORS
330
C
102
}
330
C
100
AcDbDictionary
281
     1
  3
Normal
350
F
100
AcDbDictionaryWithDefault
340
F
  0
DICTIONARY
  5
9F
102
{ACAD_REACTORS
330
C
102
}
330
C
100
AcDbDictionary
281
     1
  0
DICTIONARY
  5
2A
102
{ACAD_REACTORS
330
C
102
}
330
C
100
AcDbDictionary
281
     1
  3
2dWireframe
350
2F
  3
3D Hidden
350
31
  3
3dWireframe
350
30
  3
Basic
350
32
  3
Brighten
350
36
  3
ColorChange
350
3A
  3
Conceptual
350
34
  3
Dim
350
35
  3
Facepattern
350
39
  3
Flat
350
2B
  3
FlatWithEdges
350
2C
  3
Gouraud
350
2D
  3
GouraudWithEdges
350
2E
  3
Linepattern
350
38
  3
Realistic
350
33
  3
Thicken
350
37
  0
LAYOUT
  5
1E
102
{ACAD_REACTORS
330
1A
102
}
330
1A
100
AcDbPlotSettings
  1

  2
none_device
  4

  6

 40
0.0
 41
0.0
 42
0.0
 43
0.0
 44
0.0
 45
0.0
 46
0.0
 47
0.0
 48
0.0
 49
0.0
140
0.0
141
0.0
142
1.0
143
1.0
 70
   688
 72
     0
 73
     0
 74
     5
  7

 75
    16
 76
     0
 77
     2
 78
   300
147
1.0
148
0.0
149
0.0
100
AcDbLayout
  1
Layout1
 70
     1
 71
     1
 10
0.0
 20
0.0
 11
12.0
 21
9.0
 12
0.0
 22
0.0
 32
0.0
 14
1.000000000000000E+20
 24
1.000000000000000E+20
 34
1.000000000000000E+20
 15
-1.000000000000000E+20
 25
-1.000000000000000E+20
 35
-1.000000000000000E+20
146
0.0
 13
0.0
 23
0.0
 33
0.0
 16
1.0
 26
0.0
 36
0.0
 17
0.0
 27
1.0
 37
0.0
 76
     0
330
1B
  0
LAYOUT
  5
26
102
{ACAD_REACTORS
330
1A
102
}
330
1A
100
AcDbPlotSettings
  1

  2
none_device
  4

  6

 40
0.0
 41
0.0
 42
0.0
 43
0.0
 44
0.0
 45
0.0
 46
0.0
 47
0.0
 48
0.0
 49
0.0
140
0.0
141
0.0
142
1.0
143
1.0
 70
   688
 72
     0
 73
     0
 74
     5
  7

 75
    16
 76
     0
 77
     2
 78
   300
147
1.0
148
0.0
149
0.0
100
AcDbLayout
  1
Layout2
 70
     1
 71
     2
 10
0.0
 20
0.0
 11
0.0
 21
0.0
 12
0.0
 22
0.0
 32
0.0
 14
0.0
 24
0.0
 34
0.0
 15
0.0
 25
0.0
 35
0.0
146
0.0
 13
0.0
 23
0.0
 33
0.0
 16
1.0
 26
0.0
 36
0.0
 17
0.0
 27
1.0
 37
0.0
 76
     0
330
23
  0
LAYOUT
  5
22
102
{ACAD_REACTORS
330
1A
102
}
330
1A
100
AcDbPlotSettings
  1

  2
none_device
  4

  6

 40
0.0
 41
0.0
 42
0.0
 43
0.0
 44
0.0
 45
0.0
 46
0.0
 47
0.0
 48
0.0
 49
0.0
140
0.0
141
0.0
142
1.0
143
1.0
 70
  1712
 72
     0
 73
     0
 74
     0
  7

 75
     0
 76
     0
 77
     2
 78
   300
147
1.0
148
0.0
149
0.0
100
AcDbLayout
  1
Model
 70
     1
 71
     0
 10
0.0
 20
0.0
 11
12.0
 21
9.0
 12
0.0
 22
0.0
 32
0.0
 14
-6.38203
 24
-8.10209
 34
0.0
 15
5.73502
 25
8.10209
 35
0.0
146
0.0
 13
0.0
 23
0.0
 33
0.0
 16
1.0
 26
0.0
 36
0.0
 17
0.0
 27
1.0
 37
0.0
 76
     0
330
1F
331
29
  0
MATERIAL
  5
3D
102
{ACAD_REACTORS
330
3B
102
}
330
3B
100
AcDbMaterial
  1
ByBlock
 72
     1
 94
      127
  0
MATERIAL
  5
3C
102
{ACAD_REACTORS
330
3B
102
}
330
3B
100
AcDbMaterial
  1
ByLayer
 72
     1
 94
      127
  0
MATERIAL
  5
3E
102
{ACAD_REACTORS
330
3B
102
}
330
3B
100
AcDbMaterial
  1
Global
 72
     1
 94
      127
  0
MLINESTYLE
  5
18
102
{ACAD_REACTORS
330
17
102
}
330
17
100
AcDbMlineStyle
  2
Standard
 70
     0
  3

 62
   256
 51
90.0
 52
90.0
 71
     2
 49
0.5
 62
   256
  6
BYLAYER
 49
-0.5
 62
   256
  6
BYLAYER
  0
ACDBPLACEHOLDER
  5
F
102
{ACAD_REACTORS
330
E
102
}
330
E
  0
VISUALSTYLE
  5
2F
102
{ACAD_REACTORS
330
2A
102
}
102
{ACAD_XDICTIONARY
360
87
102
}
330
2A
100
AcDbVisualStyle
  2
2dWireframe
 70
     4
 71
     0
 72
     2
 73
     0
 90
        0
 40
-0.6
 41
-30.0
 62
     5
 63
     7
421
 16777215
 74
     1
 91
        4
 64
     7
 65
   257
 75
     1
175
     1
 42
1.0
 92
        0
 66
   257
 43
1.0
 76
     1
 77
     6
 78
     2
 67
     7
 79
     5
170
     0
171
     0
290
     0
174
     0
 93
        1
 44
0.0
173
     0
291
     0
 45
0.0
  0
VISUALSTYLE
  5
31
102
{ACAD_REACTORS
330
2A
102
}
102
{ACAD_XDICTIONARY
360
8B
102
}
330
2A
100
AcDbVisualStyle
  2
3D Hidden
 70
     6
 71
     1
 72
     2
 73
     2
 90
        0
 40
-0.6
 41
-30.0
 62
     5
 63
     7
421
 16777215
 74
     2
 91
        2
 64
     7
 65
   257
 75
     2
175
     1
 42
40.0
 92
        0
 66
   257
 43
1.0
 76
     1
 77
     6
 78
     2
 67
     7
 79
     3
170
     0
171
     0
290
     0
174
     0
 93
        1
 44
0.0
173
     0
291
     0
 45
0.0
  0
VISUALSTYLE
  5
30
102
{ACAD_REACTORS
330
2A
102
}
102
{ACAD_XDICTIONARY
360
89
102
}
330
2A
100
AcDbVisualStyle
  2
3dWireframe
 70
     5
 71
     0
 72
     2
 73
     0
 90
        0
 40
-0.6
 41
-30.0
 62
     5
 63
     7
421
 16777215
 74
     1
 91
        4
 64
     7
 65
   257
 75
     1
175
     1
 42
1.0
 92
        0
 66
   257
 43
1.0
 76
     1
 77
     6
 78
     2
 67
     7
 79
     5
170
     0
171
     0
290
     0
174
     0
 93
        1
 44
0.0
173
     0
291
     0
 45
0.0
  0
VISUALSTYLE
  5
32
102
{ACAD_REACTORS
330
2A
102
}
102
{ACAD_XDICTIONARY
360
8D
102
}
330
2A
100
AcDbVisualStyle
  2
Basic
 70
     7
 71
     1
 72
     0
 73
     1
 90
        0
 40
-0.6
 41
-30.0
 62
     5
 63
     7
421
 16777215
 74
     0
 91
        4
 64
     7
 65
   257
 75
     1
175
     1
 42
1.0
 92
        8
 66
     7
 43
1.0
 76
     1
 77
     6
 78
     2
 67
     7
 79
     5
170
     0
171
     0
290
     0
174
     0
 93
        1
 44
0.0
173
     0
291
     1
 45
0.0
  0
VISUALSTYLE
  5
36
102
{ACAD_REACTORS
330
2A
102
}
102
{ACAD_XDICTIONARY
360
95
102
}
330
2A
100
AcDbVisualStyle
  2
Brighten
 70
    12
 71
     2
 72
     2
 73
     0
 90
        0
 40
-0.6
 41
-30.0
 62
     5
 63
     7
421
 16777215
 74
     1
 91
        4
 64
     7
 65
   257
 75
     1
175
     1
 42
1.0
 92
        8
 66
     7
 43
1.0
 76
     1
 77
     6
 78
     2
 67
     7
 79
     5
170
     0
171
     0
290
     0
174
     0
 93
        1
 44
50.0
173
     0
291
     1
 45
0.0
  0
VISUALSTYLE
  5
3A
102
{ACAD_REACTORS
330
2A
102
}
102
{ACAD_XDICTIONARY
360
9D
102
}
330
2A
100
AcDbVisualStyle
  2
ColorChange
 70
    16
 71
     2
 72
     2
 73
     3
 90
        0
 40
-0.6
 41
-30.0
 62
     5
 63
     8
421
  8421504
 74
     1
 91
        4
 64
     7
 65
   257
 75
     1
175
     1
 42
1.0
 92
        8
 66
     8
424
  8421504
 43
1.0
 76
     1
 77
     6
 78
     2
 67
     7
 79
     5
170
     0
171
     0
290
     0
174
     0
 93
        1
 44
0.0
173
     0
291
     1
 45
0.0
  0
VISUALSTYLE
  5
34
102
{ACAD_REACTORS
330
2A
102
}
102
{ACAD_XDICTIONARY
360
91
102
}
330
2A
100
AcDbVisualStyle
  2
Conceptual
 70
     9
 71
     3
 72
     2
 73
     0
 90
        0
 40
-0.6
 41
-30.0
 62
     5
 63
     7
421
 16777215
 74
     2
 91
        2
 64
     7
 65
   257
 75
     1
175
     1
 42
40.0
 92
        8
 66
     7
 43
1.0
 76
     1
 77
     6
 78
     2
 67
     7
 79
     3
170
     0
171
     0
290
     0
174
     0
 93
        1
 44
0.0
173
     0
291
     0
 45
0.0
  0
VISUALSTYLE
  5
35
102
{ACAD_REACTORS
330
2A
102
}
102
{ACAD_XDICTIONARY
360
93
102
}
330
2A
100
AcDbVisualStyle
  2
Dim
 70
    11
 71
     2
 72
     2
 73
     0
 90
        0
 40
-0.6
 41
-30.0
 62
     5
 63
     7
421
 16777215
 74
     1
 91
        4
 64
     7
 65
   257
 75
     1
175
     1
 42
1.0
 92
        8
 66
     7
 43
1.0
 76
     1
 77
     6
 78
     2
 67
     7
 79
     5
170
     0
171
     0
290
     0
174
     0
 93
        1
 44
-50.0
173
     0
291
     1
 45
0.0
  0
VISUALSTYLE
  5
39
102
{ACAD_REACTORS
330
2A
102
}
102
{ACAD_XDICTIONARY
360
9B
102
}
330
2A
100
AcDbVisualStyle
  2
Facepattern
 70
    15
 71
     2
 72
     2
 73
     0
 90
        0
 40
-0.6
 41
-30.0
 62
     5
 63
     7
421
 16777215
 74
     1
 91
        4
 64
     7
 65
   257
 75
     1
175
     1
 42
1.0
 92
        8
 66
     7
 43
1.0
 76
     1
 77
     6
 78
     2
 67
     7
 79
     5
170
     0
171
     0
290
     0
174
     0
 93
        1
 44
0.0
173
     0
291
     1
 45
0.0
  0
VISUALSTYLE
  5
2B
102
{ACAD_REACTORS
330
2A
102
}
102
{ACAD_XDICTIONARY
360
7F
102
}
330
2A
100
AcDbVisualStyle
  2
Flat
 70
     0
 71
     2
 72
     1
 73
     1
 90
        2
 40
-0.6
 41
30.0
 62
     5
 63
     7
421
 16777215
 74
     0
 91
        4
 64
     7
 65
   257
 75
     1
175
     1
 42
1.0
 92
        8
 66
     7
 43
1.0
 76
     1
 77
     6
 78
     2
 67
     7
 79
     5
170
     0
171
     0
290
     0
174
     0
 93
       13
 44
0.0
173
     0
291
     1
 45
0.0
  0
VISUALSTYLE
  5
2C
102
{ACAD_REACTORS
330
2A
102
}
102
{ACAD_XDICTIONARY
360
81
102
}
330
2A
100
AcDbVisualStyle
  2
FlatWithEdges
 70
     1
 71
     2
 72
     1
 73
     1
 90
        2
 40
-0.6
 41
30.0
 62
     5
 63
     7
421
 16777215
 74
     1
 91
        4
 64
     7
 65
   257
 75
     1
175
     1
 42
1.0
 92
        0
 66
   257
 43
1.0
 76
     1
 77
     6
 78
     2
 67
     7
 79
     5
170
     0
171
     0
290
     0
174
     0
 93
       13
 44
0.0
173
     0
291
     1
 45
0.0
  0
VISUALSTYLE
  5
2D
102
{ACAD_REACTORS
330
2A
102
}
102
{ACAD_XDICTIONARY
360
83
102
}
330
2A
100
AcDbVisualStyle
  2
Gouraud
 70
     2
 71
     2
 72
     2
 73
     1
 90
        2
 40
-0.6
 41
30.0
 62
     5
 63
     7
421
 16777215
 74
     0
 91
        4
 64
     7
 65
   257
 75
     1
175
     1
 42
1.0
 92
        0
 66
     7
 43
1.0
 76
     1
 77
     6
 78
     2
 67
     7
 79
     5
170
     0
171
     0
290
     0
174
     0
 93
       13
 44
0.0
173
     0
291
     1
 45
0.0
  0
VISUALSTYLE
  5
2E
102
{ACAD_REACTORS
330
2A
102
}
102
{ACAD_XDICTIONARY
360
85
102
}
330
2A
100
AcDbVisualStyle
  2
GouraudWithEdges
 70
     3
 71
     2
 72
     2
 73
     1
 90
        2
 40
-0.6
 41
30.0
 62
     5
 63
     7
421
 16777215
 74
     1
 91
        4
 64
     7
 65
   257
 75
     1
175
     1
 42
1.0
 92
        0
 66
   257
 43
1.0
 76
     1
 77
     6
 78
     2
 67
     7
 79
     5
170
     0
171
     0
290
     0
174
     0
 93
       13
 44
0.0
173
     0
291
     1
 45
0.0
  0
VISUALSTYLE
  5
38
102
{ACAD_REACTORS
330
2A
102
}
102
{ACAD_XDICTIONARY
360
99
102
}
330
2A
100
AcDbVisualStyle
  2
Linepattern
 70
    14
 71
     2
 72
     2
 73
     0
 90
        0
 40
-0.6
 41
-30.0
 62
     5
 63
     7
421
 16777215
 74
     1
 91
        4
 64
     7
 65
   257
 75
     7
175
     7
 42
1.0
 92
        8
 66
     7
 43
1.0
 76
     1
 77
     6
 78
     2
 67
     7
 79
     5
170
     0
171
     0
290
     0
174
     0
 93
        1
 44
0.0
173
     0
291
     1
 45
0.0
  0
VISUALSTYLE
  5
33
102
{ACAD_REACTORS
330
2A
102
}
102
{ACAD_XDICTIONARY
360
8F
102
}
330
2A
100
AcDbVisualStyle
  2
Realistic
 70
     8
 71
     2
 72
     2
 73
     0
 90
        0
 40
-0.6
 41
-30.0
 62
     5
 63
     7
421
 16777215
 74
     1
 91
        0
 64
     7
 65
   257
 75
     1
175
     1
 42
1.0
 92
        8
 66
     8
424
  7895160
 43
1.0
 76
     1
 77
     6
 78
     2
 67
     7
 79
     5
170
     0
171
     0
290
     0
174
     0
 93
       13
 44
0.0
173
     0
291
     0
 45
0.0
  0
VISUALSTYLE
  5
37
102
{ACAD_REACTORS
330
2A
102
}
102
{ACAD_XDICTIONARY
360
97
102
}
330
2A
100
AcDbVisualStyle
  2
Thicken
 70
    13
 71
     2
 72
     2
 73
     0
 90
        0
 40
-0.6
 41
-30.0
 62
     5
 63
     7
421
 16777215
 74
     1
 91
        4
 64
     7
 65
   257
 75
     1
175
     1
 42
1.0
 92
       12
 66
     7
 43
1.0
 76
     1
 77
     6
 78
     2
 67
     7
 79
     5
170
     0
171
     0
290
     0
174
     0
 93
        1
 44
0.0
173
     0
291
     1
 45
0.0
  0
DICTIONARY
  5
87
330
2F
100
AcDbDictionary
280
     1
281
     1
  3
ACAD_XREC_ROUNDTRIP
360
88
  0
DICTIONARY
  5
8B
330
31
100
AcDbDictionary
280
     1
281
     1
  3
ACAD_XREC_ROUNDTRIP
360
8C
  0
DICTIONARY
  5
89
330
30
100
AcDbDictionary
280
     1
281
     1
  3
ACAD_XREC_ROUNDTRIP
360
8A
  0
DICTIONARY
  5
8D
330
32
100
AcDbDictionary
280
     1
281
     1
  3
ACAD_XREC_ROUNDTRIP
360
8E
  0
DICTIONARY
  5
95
330
36
100
AcDbDictionary
280
     1
281
     1
  3
ACAD_XREC_ROUNDTRIP
360
96
  0
DICTIONARY
  5
9D
330
3A
100
AcDbDictionary
280
     1
281
     1
  3
ACAD_XREC_ROUNDTRIP
360
9E
  0
DICTIONARY
  5
91
330
34
100
AcDbDictionary
280
     1
281
     1
  3
ACAD_XREC_ROUNDTRIP
360
92
  0
DICTIONARY
  5
93
330
35
100
AcDbDictionary
280
     1
281
     1
  3
ACAD_XREC_ROUNDTRIP
360
94
  0
DICTIONARY
  5
9B
330
39
100
AcDbDictionary
280
     1
281
     1
  3
ACAD_XREC_ROUNDTRIP
360
9C
  0
DICTIONARY
  5
7F
330
2B
100
AcDbDictionary
280
     1
281
     1
  3
ACAD_XREC_ROUNDTRIP
360
80
  0
DICTIONARY
  5
81
330
2C
100
AcDbDictionary
280
     1
281
     1
  3
ACAD_XREC_ROUNDTRIP
360
82
  0
DICTIONARY
  5
83
330
2D
100
AcDbDictionary
280
     1
281
     1
  3
ACAD_XREC_ROUNDTRIP
360
84
  0
DICTIONARY
  5
85
330
2E
100
AcDbDictionary
280
     1
281
     1
  3
ACAD_XREC_ROUNDTRIP
360
86
  0
DICTIONARY
  5
99
330
38
100
AcDbDictionary
280
     1
281
     1
  3
ACAD_XREC_ROUNDTRIP
360
9A
  0
DICTIONARY
  5
8F
330
33
100
AcDbDictionary
280
     1
281
     1
  3
ACAD_XREC_ROUNDTRIP
360
90
  0
DICTIONARY
  5
97
330
37
100
AcDbDictionary
280
     1
281
     1
  3
ACAD_XREC_ROUNDTRIP
360
98
  0
XRECORD
  5
88
102
{ACAD_REACTORS
330
87
102
}
330
87
100
AcDbXrecord
280
     1
102
RTVSPropertyOp0
 70
     1
102
RTVSPropertyOp1
 70
     1
102
RTVSPropertyOp2
 70
     1
102
RTVSPropertyOp3
 70
     1
102
RTVSPropertyOp4
 70
     1
102
RTVSPropertyOp5
 70
     1
102
RTVSPropertyOp6
 70
     1
102
RTVSPropertyOp7
 70
     1
102
RTVSPropertyOp8
 70
     1
102
RTVSPropertyOp9
 70
     1
102
RTVSPropertyOp10
 70
     1
102
RTVSPropertyOp11
 70
     1
102
RTVSPropertyOp12
 70
     1
102
RTVSPropertyOp13
 70
     1
102
RTVSPropertyOp14
 70
     1
102
RTVSPropertyOp15
 70
     1
102
RTVSPropertyOp16
 70
     1
102
RTVSPropertyOp17
 70
     1
102
RTVSPropertyOp18
 70
     1
102
RTVSPropertyOp19
 70
     1
102
RTVSPropertyOp20
 70
     1
102
RTVSPropertyOp21
 70
     1
102
RTVSPropertyOp22
 70
     1
102
RTVSPropertyOp23
 70
     1
102
RTVSPropertyOp24
 70
     1
102
RTVSPropertyOp25
 70
     1
102
RTVSPropertyOp26
 70
     1
102
RTVSPropertyOp27
 70
     1
102
RTVSPropertyOp28
 70
     1
102
RTVSPropertyOp29
 70
     1
102
RTVSPropertyOp30
 70
     1
102
RTVSPropertyOp31
 70
     1
102
RTVSPropertyOp32
 70
     1
  0
XRECORD
  5
8C
102
{ACAD_REACTORS
330
8B
102
}
330
8B
100
AcDbXrecord
280
     1
102
RTVSPropertyOp0
 70
     1
102
RTVSPropertyOp1
 70
     1
102
RTVSPropertyOp2
 70
     1
102
RTVSPropertyOp3
 70
     1
102
RTVSPropertyOp4
 70
     1
102
RTVSPropertyOp5
 70
     1
102
RTVSPropertyOp6
 70
     1
102
RTVSPropertyOp7
 70
     1
102
RTVSPropertyOp8
 70
     1
102
RTVSPropertyOp9
 70
     1
102
RTVSPropertyOp10
 70
     1
102
RTVSPropertyOp11
 70
     1
102
RTVSPropertyOp12
 70
     1
102
RTVSPropertyOp13
 70
     1
102
RTVSPropertyOp14
 70
     1
102
RTVSPropertyOp15
 70
     1
102
RTVSPropertyOp16
 70
     1
102
RTVSPropertyOp17
 70
     1
102
RTVSPropertyOp18
 70
     1
102
RTVSPropertyOp19
 70
     1
102
RTVSPropertyOp20
 70
     1
102
RTVSPropertyOp21
 70
     1
102
RTVSPropertyOp22
 70
     1
102
RTVSPropertyOp23
 70
     1
102
RTVSPropertyOp24
 70
     1
102
RTVSPropertyOp25
 70
     1
102
RTVSPropertyOp26
 70
     1
102
RTVSPropertyOp27
 70
     1
102
RTVSPropertyOp28
 70
     1
102
RTVSPropertyOp29
 70
     1
102
RTVSPropertyOp30
 70
     1
102
RTVSPropertyOp31
 70
     1
102
RTVSPropertyOp32
 70
     1
  0
XRECORD
  5
8A
102
{ACAD_REACTORS
330
89
102
}
330
89
100
AcDbXrecord
280
     1
102
RTVSPropertyOp0
 70
     1
102
RTVSPropertyOp1
 70
     1
102
RTVSPropertyOp2
 70
     1
102
RTVSPropertyOp3
 70
     1
102
RTVSPropertyOp4
 70
     1
102
RTVSPropertyOp5
 70
     1
102
RTVSPropertyOp6
 70
     1
102
RTVSPropertyOp7
 70
     1
102
RTVSPropertyOp8
 70
     1
102
RTVSPropertyOp9
 70
     1
102
RTVSPropertyOp10
 70
     1
102
RTVSPropertyOp11
 70
     1
102
RTVSPropertyOp12
 70
     1
102
RTVSPropertyOp13
 70
     1
102
RTVSPropertyOp14
 70
     1
102
RTVSPropertyOp15
 70
     1
102
RTVSPropertyOp16
 70
     1
102
RTVSPropertyOp17
 70
     1
102
RTVSPropertyOp18
 70
     1
102
RTVSPropertyOp19
 70
     1
102
RTVSPropertyOp20
 70
     1
102
RTVSPropertyOp21
 70
     1
102
RTVSPropertyOp22
 70
     1
102
RTVSPropertyOp23
 70
     1
102
RTVSPropertyOp24
 70
     1
102
RTVSPropertyOp25
 70
     1
102
RTVSPropertyOp26
 70
     1
102
RTVSPropertyOp27
 70
     1
102
RTVSPropertyOp28
 70
     1
102
RTVSPropertyOp29
 70
     1
102
RTVSPropertyOp30
 70
     1
102
RTVSPropertyOp31
 70
     1
102
RTVSPropertyOp32
 70
     1
  0
XRECORD
  5
8E
102
{ACAD_REACTORS
330
8D
102
}
330
8D
100
AcDbXrecord
280
     1
102
RTVSPropertyOp0
 70
     1
102
RTVSPropertyOp1
 70
     1
102
RTVSPropertyOp2
 70
     1
102
RTVSPropertyOp3
 70
     1
102
RTVSPropertyOp4
 70
     1
102
RTVSPropertyOp5
 70
     1
102
RTVSPropertyOp6
 70
     1
102
RTVSPropertyOp7
 70
     1
102
RTVSPropertyOp8
 70
     1
102
RTVSPropertyOp9
 70
     1
102
RTVSPropertyOp10
 70
     1
102
RTVSPropertyOp11
 70
     1
102
RTVSPropertyOp12
 70
     1
102
RTVSPropertyOp13
 70
     1
102
RTVSPropertyOp14
 70
     1
102
RTVSPropertyOp15
 70
     1
102
RTVSPropertyOp16
 70
     1
102
RTVSPropertyOp17
 70
     1
102
RTVSPropertyOp18
 70
     1
102
RTVSPropertyOp19
 70
     1
102
RTVSPropertyOp20
 70
     1
102
RTVSPropertyOp21
 70
     1
102
RTVSPropertyOp22
 70
     1
102
RTVSPropertyOp23
 70
     1
102
RTVSPropertyOp24
 70
     1
102
RTVSPropertyOp25
 70
     1
102
RTVSPropertyOp26
 70
     1
102
RTVSPropertyOp27
 70
     1
102
RTVSPropertyOp28
 70
     1
102
RTVSPropertyOp29
 70
     1
102
RTVSPropertyOp30
 70
     1
102
RTVSPropertyOp31
 70
     1
102
RTVSPropertyOp32
 70
     1
  0
XRECORD
  5
96
102
{ACAD_REACTORS
330
95
102
}
330
95
100
AcDbXrecord
280
     1
102
RTVSPropertyOp0
 70
     1
102
RTVSPropertyOp1
 70
     1
102
RTVSPropertyOp2
 70
     1
102
RTVSPropertyOp3
 70
     1
102
RTVSPropertyOp4
 70
     1
102
RTVSPropertyOp5
 70
     1
102
RTVSPropertyOp6
 70
     1
102
RTVSPropertyOp7
 70
     1
102
RTVSPropertyOp8
 70
     1
102
RTVSPropertyOp9
 70
     1
102
RTVSPropertyOp10
 70
     1
102
RTVSPropertyOp11
 70
     1
102
RTVSPropertyOp12
 70
     1
102
RTVSPropertyOp13
 70
     1
102
RTVSPropertyOp14
 70
     1
102
RTVSPropertyOp15
 70
     1
102
RTVSPropertyOp16
 70
     1
102
RTVSPropertyOp17
 70
     1
102
RTVSPropertyOp18
 70
     1
102
RTVSPropertyOp19
 70
     1
102
RTVSPropertyOp20
 70
     1
102
RTVSPropertyOp21
 70
     1
102
RTVSPropertyOp22
 70
     1
102
RTVSPropertyOp23
 70
     1
102
RTVSPropertyOp24
 70
     1
102
RTVSPropertyOp25
 70
     1
102
RTVSPropertyOp26
 70
     1
102
RTVSPropertyOp27
 70
     1
102
RTVSPropertyOp28
 70
     1
102
RTVSPropertyOp29
 70
     1
102
RTVSPropertyOp30
 70
     1
102
RTVSPropertyOp31
 70
     1
102
RTVSPropertyOp32
 70
     1
  0
XRECORD
  5
9E
102
{ACAD_REACTORS
330
9D
102
}
330
9D
100
AcDbXrecord
280
     1
102
RTVSPropertyOp0
 70
     1
102
RTVSPropertyOp1
 70
     1
102
RTVSPropertyOp2
 70
     1
102
RTVSPropertyOp3
 70
     1
102
RTVSPropertyOp4
 70
     1
102
RTVSPropertyOp5
 70
     1
102
RTVSPropertyOp6
 70
     1
102
RTVSPropertyOp7
 70
     1
102
RTVSPropertyOp8
 70
     1
102
RTVSPropertyOp9
 70
     1
102
RTVSPropertyOp10
 70
     1
102
RTVSPropertyOp11
 70
     1
102
RTVSPropertyOp12
 70
     1
102
RTVSPropertyOp13
 70
     1
102
RTVSPropertyOp14
 70
     1
102
RTVSPropertyOp15
 70
     1
102
RTVSPropertyOp16
 70
     1
102
RTVSPropertyOp17
 70
     1
102
RTVSPropertyOp18
 70
     1
102
RTVSPropertyOp19
 70
     1
102
RTVSPropertyOp20
 70
     1
102
RTVSPropertyOp21
 70
     1
102
RTVSPropertyOp22
 70
     1
102
RTVSPropertyOp23
 70
     1
102
RTVSPropertyOp24
 70
     1
102
RTVSPropertyOp25
 70
     1
102
RTVSPropertyOp26
 70
     1
102
RTVSPropertyOp27
 70
     1
102
RTVSPropertyOp28
 70
     1
102
RTVSPropertyOp29
 70
     1
102
RTVSPropertyOp30
 70
     1
102
RTVSPropertyOp31
 70
     1
102
RTVSPropertyOp32
 70
     1
  0
XRECORD
  5
92
102
{ACAD_REACTORS
330
91
102
}
330
91
100
AcDbXrecord
280
     1
102
RTVSPropertyOp0
 70
     1
102
RTVSPropertyOp1
 70
     1
102
RTVSPropertyOp2
 70
     1
102
RTVSPropertyOp3
 70
     1
102
RTVSPropertyOp4
 70
     1
102
RTVSPropertyOp5
 70
     1
102
RTVSPropertyOp6
 70
     1
102
RTVSPropertyOp7
 70
     1
102
RTVSPropertyOp8
 70
     1
102
RTVSPropertyOp9
 70
     1
102
RTVSPropertyOp10
 70
     1
102
RTVSPropertyOp11
 70
     1
102
RTVSPropertyOp12
 70
     1
102
RTVSPropertyOp13
 70
     1
102
RTVSPropertyOp14
 70
     1
102
RTVSPropertyOp15
 70
     1
102
RTVSPropertyOp16
 70
     1
102
RTVSPropertyOp17
 70
     1
102
RTVSPropertyOp18
 70
     1
102
RTVSPropertyOp19
 70
     1
102
RTVSPropertyOp20
 70
     1
102
RTVSPropertyOp21
 70
     1
102
RTVSPropertyOp22
 70
     1
102
RTVSPropertyOp23
 70
     1
102
RTVSPropertyOp24
 70
     1
102
RTVSPropertyOp25
 70
     1
102
RTVSPropertyOp26
 70
     1
102
RTVSPropertyOp27
 70
     1
102
RTVSPropertyOp28
 70
     1
102
RTVSPropertyOp29
 70
     1
102
RTVSPropertyOp30
 70
     1
102
RTVSPropertyOp31
 70
     1
102
RTVSPropertyOp32
 70
     1
  0
XRECORD
  5
94
102
{ACAD_REACTORS
330
93
102
}
330
93
100
AcDbXrecord
280
     1
102
RTVSPropertyOp0
 70
     1
102
RTVSPropertyOp1
 70
     1
102
RTVSPropertyOp2
 70
     1
102
RTVSPropertyOp3
 70
     1
102
RTVSPropertyOp4
 70
     1
102
RTVSPropertyOp5
 70
     1
102
RTVSPropertyOp6
 70
     1
102
RTVSPropertyOp7
 70
     1
102
RTVSPropertyOp8
 70
     1
102
RTVSPropertyOp9
 70
     1
102
RTVSPropertyOp10
 70
     1
102
RTVSPropertyOp11
 70
     1
102
RTVSPropertyOp12
 70
     1
102
RTVSPropertyOp13
 70
     1
102
RTVSPropertyOp14
 70
     1
102
RTVSPropertyOp15
 70
     1
102
RTVSPropertyOp16
 70
     1
102
RTVSPropertyOp17
 70
     1
102
RTVSPropertyOp18
 70
     1
102
RTVSPropertyOp19
 70
     1
102
RTVSPropertyOp20
 70
     1
102
RTVSPropertyOp21
 70
     1
102
RTVSPropertyOp22
 70
     1
102
RTVSPropertyOp23
 70
     1
102
RTVSPropertyOp24
 70
     1
102
RTVSPropertyOp25
 70
     1
102
RTVSPropertyOp26
 70
     1
102
RTVSPropertyOp27
 70
     1
102
RTVSPropertyOp28
 70
     1
102
RTVSPropertyOp29
 70
     1
102
RTVSPropertyOp30
 70
     1
102
RTVSPropertyOp31
 70
     1
102
RTVSPropertyOp32
 70
     1
  0
XRECORD
  5
9C
102
{ACAD_REACTORS
330
9B
102
}
330
9B
100
AcDbXrecord
280
     1
102
RTVSPropertyOp0
 70
     1
102
RTVSPropertyOp1
 70
     1
102
RTVSPropertyOp2
 70
     1
102
RTVSPropertyOp3
 70
     1
102
RTVSPropertyOp4
 70
     1
102
RTVSPropertyOp5
 70
     1
102
RTVSPropertyOp6
 70
     1
102
RTVSPropertyOp7
 70
     1
102
RTVSPropertyOp8
 70
     1
102
RTVSPropertyOp9
 70
     1
102
RTVSPropertyOp10
 70
     1
102
RTVSPropertyOp11
 70
     1
102
RTVSPropertyOp12
 70
     1
102
RTVSPropertyOp13
 70
     1
102
RTVSPropertyOp14
 70
     1
102
RTVSPropertyOp15
 70
     1
102
RTVSPropertyOp16
 70
     1
102
RTVSPropertyOp17
 70
     1
102
RTVSPropertyOp18
 70
     1
102
RTVSPropertyOp19
 70
     1
102
RTVSPropertyOp20
 70
     1
102
RTVSPropertyOp21
 70
     1
102
RTVSPropertyOp22
 70
     1
102
RTVSPropertyOp23
 70
     1
102
RTVSPropertyOp24
 70
     1
102
RTVSPropertyOp25
 70
     1
102
RTVSPropertyOp26
 70
     1
102
RTVSPropertyOp27
 70
     1
102
RTVSPropertyOp28
 70
     1
102
RTVSPropertyOp29
 70
     1
102
RTVSPropertyOp30
 70
     1
102
RTVSPropertyOp31
 70
     1
102
RTVSPropertyOp32
 70
     1
  0
XRECORD
  5
80
102
{ACAD_REACTORS
330
7F
102
}
330
7F
100
AcDbXrecord
280
     1
102
RTVSPropertyOp0
 70
     1
102
RTVSPropertyOp1
 70
     1
102
RTVSPropertyOp2
 70
     1
102
RTVSPropertyOp3
 70
     1
102
RTVSPropertyOp4
 70
     1
102
RTVSPropertyOp5
 70
     1
102
RTVSPropertyOp6
 70
     1
102
RTVSPropertyOp7
 70
     1
102
RTVSPropertyOp8
 70
     1
102
RTVSPropertyOp9
 70
     1
102
RTVSPropertyOp10
 70
     1
102
RTVSPropertyOp11
 70
     1
102
RTVSPropertyOp12
 70
     1
102
RTVSPropertyOp13
 70
     1
102
RTVSPropertyOp14
 70
     1
102
RTVSPropertyOp15
 70
     1
102
RTVSPropertyOp16
 70
     1
102
RTVSPropertyOp17
 70
     1
102
RTVSPropertyOp18
 70
     1
102
RTVSPropertyOp19
 70
     1
102
RTVSPropertyOp20
 70
     1
102
RTVSPropertyOp21
 70
     1
102
RTVSPropertyOp22
 70
     1
102
RTVSPropertyOp23
 70
     1
102
RTVSPropertyOp24
 70
     1
102
RTVSPropertyOp25
 70
     1
102
RTVSPropertyOp26
 70
     1
102
RTVSPropertyOp27
 70
     1
102
RTVSPropertyOp28
 70
     1
102
RTVSPropertyOp29
 70
     1
102
RTVSPropertyOp30
 70
     1
102
RTVSPropertyOp31
 70
     1
102
RTVSPropertyOp32
 70
     1
  0
XRECORD
  5
82
102
{ACAD_REACTORS
330
81
102
}
330
81
100
AcDbXrecord
280
     1
102
RTVSPropertyOp0
 70
     1
102
RTVSPropertyOp1
 70
     1
102
RTVSPropertyOp2
 70
     1
102
RTVSPropertyOp3
 70
     1
102
RTVSPropertyOp4
 70
     1
102
RTVSPropertyOp5
 70
     1
102
RTVSPropertyOp6
 70
     1
102
RTVSPropertyOp7
 70
     1
102
RTVSPropertyOp8
 70
     1
102
RTVSPropertyOp9
 70
     1
102
RTVSPropertyOp10
 70
     1
102
RTVSPropertyOp11
 70
     1
102
RTVSPropertyOp12
 70
     1
102
RTVSPropertyOp13
 70
     1
102
RTVSPropertyOp14
 70
     1
102
RTVSPropertyOp15
 70
     1
102
RTVSPropertyOp16
 70
     1
102
RTVSPropertyOp17
 70
     1
102
RTVSPropertyOp18
 70
     1
102
RTVSPropertyOp19
 70
     1
102
RTVSPropertyOp20
 70
     1
102
RTVSPropertyOp21
 70
     1
102
RTVSPropertyOp22
 70
     1
102
RTVSPropertyOp23
 70
     1
102
RTVSPropertyOp24
 70
     1
102
RTVSPropertyOp25
 70
     1
102
RTVSPropertyOp26
 70
     1
102
RTVSPropertyOp27
 70
     1
102
RTVSPropertyOp28
 70
     1
102
RTVSPropertyOp29
 70
     1
102
RTVSPropertyOp30
 70
     1
102
RTVSPropertyOp31
 70
     1
102
RTVSPropertyOp32
 70
     1
  0
XRECORD
  5
84
102
{ACAD_REACTORS
330
83
102
}
330
83
100
AcDbXrecord
280
     1
102
RTVSPropertyOp0
 70
     1
102
RTVSPropertyOp1
 70
     1
102
RTVSPropertyOp2
 70
     1
102
RTVSPropertyOp3
 70
     1
102
RTVSPropertyOp4
 70
     1
102
RTVSPropertyOp5
 70
     1
102
RTVSPropertyOp6
 70
     1
102
RTVSPropertyOp7
 70
     1
102
RTVSPropertyOp8
 70
     1
102
RTVSPropertyOp9
 70
     1
102
RTVSPropertyOp10
 70
     1
102
RTVSPropertyOp11
 70
     1
102
RTVSPropertyOp12
 70
     1
102
RTVSPropertyOp13
 70
     1
102
RTVSPropertyOp14
 70
     1
102
RTVSPropertyOp15
 70
     1
102
RTVSPropertyOp16
 70
     1
102
RTVSPropertyOp17
 70
     1
102
RTVSPropertyOp18
 70
     1
102
RTVSPropertyOp19
 70
     1
102
RTVSPropertyOp20
 70
     1
102
RTVSPropertyOp21
 70
     1
102
RTVSPropertyOp22
 70
     1
102
RTVSPropertyOp23
 70
     1
102
RTVSPropertyOp24
 70
     1
102
RTVSPropertyOp25
 70
     1
102
RTVSPropertyOp26
 70
     1
102
RTVSPropertyOp27
 70
     1
102
RTVSPropertyOp28
 70
     1
102
RTVSPropertyOp29
 70
     1
102
RTVSPropertyOp30
 70
     1
102
RTVSPropertyOp31
 70
     1
102
RTVSPropertyOp32
 70
     1
  0
XRECORD
  5
86
102
{ACAD_REACTORS
330
85
102
}
330
85
100
AcDbXrecord
280
     1
102
RTVSPropertyOp0
 70
     1
102
RTVSPropertyOp1
 70
     1
102
RTVSPropertyOp2
 70
     1
102
RTVSPropertyOp3
 70
     1
102
RTVSPropertyOp4
 70
     1
102
RTVSPropertyOp5
 70
     1
102
RTVSPropertyOp6
 70
     1
102
RTVSPropertyOp7
 70
     1
102
RTVSPropertyOp8
 70
     1
102
RTVSPropertyOp9
 70
     1
102
RTVSPropertyOp10
 70
     1
102
RTVSPropertyOp11
 70
     1
102
RTVSPropertyOp12
 70
     1
102
RTVSPropertyOp13
 70
     1
102
RTVSPropertyOp14
 70
     1
102
RTVSPropertyOp15
 70
     1
102
RTVSPropertyOp16
 70
     1
102
RTVSPropertyOp17
 70
     1
102
RTVSPropertyOp18
 70
     1
102
RTVSPropertyOp19
 70
     1
102
RTVSPropertyOp20
 70
     1
102
RTVSPropertyOp21
 70
     1
102
RTVSPropertyOp22
 70
     1
102
RTVSPropertyOp23
 70
     1
102
RTVSPropertyOp24
 70
     1
102
RTVSPropertyOp25
 70
     1
102
RTVSPropertyOp26
 70
     1
102
RTVSPropertyOp27
 70
     1
102
RTVSPropertyOp28
 70
     1
102
RTVSPropertyOp29
 70
     1
102
RTVSPropertyOp30
 70
     1
102
RTVSPropertyOp31
 70
     1
102
RTVSPropertyOp32
 70
     1
  0
XRECORD
  5
9A
102
{ACAD_REACTORS
330
99
102
}
330
99
100
AcDbXrecord
280
     1
102
RTVSPropertyOp0
 70
     1
102
RTVSPropertyOp1
 70
     1
102
RTVSPropertyOp2
 70
     1
102
RTVSPropertyOp3
 70
     1
102
RTVSPropertyOp4
 70
     1
102
RTVSPropertyOp5
 70
     1
102
RTVSPropertyOp6
 70
     1
102
RTVSPropertyOp7
 70
     1
102
RTVSPropertyOp8
 70
     1
102
RTVSPropertyOp9
 70
     1
102
RTVSPropertyOp10
 70
     1
102
RTVSPropertyOp11
 70
     1
102
RTVSPropertyOp12
 70
     1
102
RTVSPropertyOp13
 70
     1
102
RTVSPropertyOp14
 70
     1
102
RTVSPropertyOp15
 70
     1
102
RTVSPropertyOp16
 70
     1
102
RTVSPropertyOp17
 70
     1
102
RTVSPropertyOp18
 70
     1
102
RTVSPropertyOp19
 70
     1
102
RTVSPropertyOp20
 70
     1
102
RTVSPropertyOp21
 70
     1
102
RTVSPropertyOp22
 70
     1
102
RTVSPropertyOp23
 70
     1
102
RTVSPropertyOp24
 70
     1
102
RTVSPropertyOp25
 70
     1
102
RTVSPropertyOp26
 70
     1
102
RTVSPropertyOp27
 70
     1
102
RTVSPropertyOp28
 70
     1
102
RTVSPropertyOp29
 70
     1
102
RTVSPropertyOp30
 70
     1
102
RTVSPropertyOp31
 70
     1
102
RTVSPropertyOp32
 70
     1
  0
XRECORD
  5
90
102
{ACAD_REACTORS
330
8F
102
}
330
8F
100
AcDbXrecord
280
     1
102
RTVSPropertyOp0
 70
     1
102
RTVSPropertyOp1
 70
     1
102
RTVSPropertyOp2
 70
     1
102
RTVSPropertyOp3
 70
     1
102
RTVSPropertyOp4
 70
     1
102
RTVSPropertyOp5
 70
     1
102
RTVSPropertyOp6
 70
     1
102
RTVSPropertyOp7
 70
     1
102
RTVSPropertyOp8
 70
     1
102
RTVSPropertyOp9
 70
     1
102
RTVSPropertyOp10
 70
     1
102
RTVSPropertyOp11
 70
     1
102
RTVSPropertyOp12
 70
     1
102
RTVSPropertyOp13
 70
     1
102
RTVSPropertyOp14
 70
     1
102
RTVSPropertyOp15
 70
     1
102
RTVSPropertyOp16
 70
     1
102
RTVSPropertyOp17
 70
     1
102
RTVSPropertyOp18
 70
     1
102
RTVSPropertyOp19
 70
     1
102
RTVSPropertyOp20
 70
     1
102
RTVSPropertyOp21
 70
     1
102
RTVSPropertyOp22
 70
     1
102
RTVSPropertyOp23
 70
     1
102
RTVSPropertyOp24
 70
     1
102
RTVSPropertyOp25
 70
     1
102
RTVSPropertyOp26
 70
     1
102
RTVSPropertyOp27
 70
     1
102
RTVSPropertyOp28
 70
     1
102
RTVSPropertyOp29
 70
     1
102
RTVSPropertyOp30
 70
     1
102
RTVSPropertyOp31
 70
     1
102
RTVSPropertyOp32
 70
     1
  0
XRECORD
  5
98
102
{ACAD_REACTORS
330
97
102
}
330
97
100
AcDbXrecord
280
     1
102
RTVSPropertyOp0
 70
     1
102
RTVSPropertyOp1
 70
     1
102
RTVSPropertyOp2
 70
     1
102
RTVSPropertyOp3
 70
     1
102
RTVSPropertyOp4
 70
     1
102
RTVSPropertyOp5
 70
     1
102
RTVSPropertyOp6
 70
     1
102
RTVSPropertyOp7
 70
     1
102
RTVSPropertyOp8
 70
     1
102
RTVSPropertyOp9
 70
     1
102
RTVSPropertyOp10
 70
     1
102
RTVSPropertyOp11
 70
     1
102
RTVSPropertyOp12
 70
     1
102
RTVSPropertyOp13
 70
     1
102
RTVSPropertyOp14
 70
     1
102
RTVSPropertyOp15
 70
     1
102
RTVSPropertyOp16
 70
     1
102
RTVSPropertyOp17
 70
     1
102
RTVSPropertyOp18
 70
     1
102
RTVSPropertyOp19
 70
     1
102
RTVSPropertyOp20
 70
     1
102
RTVSPropertyOp21
 70
     1
102
RTVSPropertyOp22
 70
     1
102
RTVSPropertyOp23
 70
     1
102
RTVSPropertyOp24
 70
     1
102
RTVSPropertyOp25
 70
     1
102
RTVSPropertyOp26
 70
     1
102
RTVSPropertyOp27
 70
     1
102
RTVSPropertyOp28
 70
     1
102
RTVSPropertyOp29
 70
     1
102
RTVSPropertyOp30
 70
     1
102
RTVSPropertyOp31
 70
     1
102
RTVSPropertyOp32
 70
     1
  0
ENDSEC
  0
EOF
