  0
SECTION
  2
HEADER
  9
$ACADVER
  1
AC1021
  9
$ACADMAINTVER
 70
    25
  9
$DWGCODEPAGE
  3
ANSI_1252
  9
$INSBASE
 10
0.0
 20
0.0
 30
0.0
  9
$EXTMIN
 10
-6.17536
 20
-3.75614
 30
0.0
  9
$EXTMAX
 10
6.17595
 20
3.74661
 30
0.0
  9
$LIMMIN
 10
0.0
 20
0.0
  9
$LIMMAX
 10
12.0
 20
9.0
  9
$ORTHOMODE
 70
     0
  9
$REGENMODE
 70
     1
  9
$FILLMODE
 70
     1
  9
$QTEXTMODE
 70
     0
  9
$MIRRTEXT
 70
     1
  9
$LTSCALE
 40
1.0
  9
$ATTMODE
 70
     1
  9
$TEXTSIZE
 40
0.2
  9
$TRACEWID
 40
0.05
  9
$TEXTSTYLE
  7
Standard
  9
$CLAYER
  8
0
  9
$CELTYPE
  6
ByLayer
  9
$CECOLOR
 62
   256
  9
$CELTSCALE
 40
1.0
  9
$DISPSILH
 70
     0
  9
$DIMSCALE
 40
1.0
  9
$DIMASZ
 40
0.18
  9
$DIMEXO
 40
0.0625
  9
$DIMDLI
 40
0.38
  9
$DIMRND
 40
0.0
  9
$DIMDLE
 40
0.0
  9
$DIMEXE
 40
0.18
  9
$DIMTP
 40
0.0
  9
$DIMTM
 40
0.0
  9
$DIMTXT
 40
0.18
  9
$DIMCEN
 40
0.09
  9
$DIMTSZ
 40
0.0
  9
$DIMTOL
 70
     0
  9
$DIMLIM
 70
     0
  9
$DIMTIH
 70
     1
  9
$DIMTOH
 70
     1
  9
$DIMSE1
 70
     0
  9
$DIMSE2
 70
     0
  9
$DIMTAD
 70
     0
  9
$DIMZIN
 70
     0
  9
$DIMBLK
  1

  9
$DIMASO
 70
     1
  9
$DIMSHO
 70
     1
  9
$DIMPOST
  1

  9
$DIMAPOST
  1

  9
$DIMALT
 70
     0
  9
$DIMALTD
 70
     2
  9
$DIMALTF
 40
25.4
  9
$DIMLFAC
 40
1.0
  9
$DIMTOFL
 70
     0
  9
$DIMTVP
 40
0.0
  9
$DIMTIX
 70
     0
  9
$DIMSOXD
 70
     0
  9
$DIMSAH
 70
     0
  9
$DIMBLK1
  1

  9
$DIMBLK2
  1

  9
$DIMSTYLE
  2
Standard
  9
$DIMCLRD
 70
     0
  9
$DIMCLRE
 70
     0
  9
$DIMCLRT
 70
     0
  9
$DIMTFAC
 40
1.0
  9
$DIMGAP
 40
0.09
  9
$DIMJUST
 70
     0
  9
$DIMSD1
 70
     0
  9
$DIMSD2
 70
     0
  9
$DIMTOLJ
 70
     1
  9
$DIMTZIN
 70
     0
  9
$DIMALTZ
 70
     0
  9
$DIMALTTZ
 70
     0
  9
$DIMUPT
 70
     0
  9
$DIMDEC
 70
     4
  9
$DIMTDEC
 70
     4
  9
$DIMALTU
 70
     2
  9
$DIMALTTD
 70
     2
  9
$DIMTXSTY
  7
Standard
  9
$DIMAUNIT
 70
     0
  9
$DIMADEC
 70
     0
  9
$DIMALTRND
 40
0.0
  9
$DIMAZIN
 70
     0
  9
$DIMDSEP
 70
    46
  9
$DIMATFIT
 70
     3
  9
$DIMFRAC
 70
     0
  9
$DIMLDRBLK
  1

  9
$DIMLUNIT
 70
     2
  9
$DIMLWD
 70
    -2
  9
$DIMLWE
 70
    -2
  9
$DIMTMOVE
 70
     0
  9
$DIMFXL
 40
1.0
  9
$DIMFXLON
 70
     0
  9
$DIMJOGANG
 40
0.7853981633974483
  9
$DIMTFILL
 70
     0
  9
$DIMTFILLCLR
 70
     0
  9
$DIMARCSYM
 70
     0
  9
$DIMLTYPE
  6

  9
$DIMLTEX1
  6

  9
$DIMLTEX2
  6

  9
$LUNITS
 70
     2
  9
$LUPREC
 70
     4
  9
$SKETCHINC
 40
0.1
  9
$FILLETRAD
 40
0.5
  9
$AUNITS
 70
     0
  9
$AUPREC
 70
     0
  9
$MENU
  1
.
  9
$ELEVATION
 40
0.0
  9
$PELEVATION
 40
0.0
  9
$THICKNESS
 40
0.0
  9
$LIMCHECK
 70
     0
  9
$CHAMFERA
 40
0.5
  9
$CHAMFERB
 40
0.5
  9
$CHAMFERC
 40
1.0
  9
$CHAMFERD
 40
0.0
  9
$SKPOLY
 70
     0
  9
$TDCREATE
 40
2456866.797204572
  9
$TDUCREATE
 40
2456866.922204572
  9
$TDUPDATE
 40
2456866.797204757
  9
$TDUUPDATE
 40
2456866.922204757
  9
$TDINDWG
 40
0.0000000116
  9
$TDUSRTIMER
 40
0.0000000116
  9
$USRTIMER
 70
     1
  9
$ANGBASE
 50
0.0
  9
$ANGDIR
 70
     0
  9
$PDMODE
 70
     0
  9
$PDSIZE
 40
0.0
  9
$PLINEWID
 40
0.0
  9
$SPLFRAME
 70
     0
  9
$SPLINETYPE
 70
     6
  9
$SPLINESEGS
 70
     8
  9
$HANDSEED
  5
77
  9
$SURFTAB1
 70
     6
  9
$SURFTAB2
 70
     6
  9
$SURFTYPE
 70
     6
  9
$SURFU
 70
     6
  9
$SURFV
 70
     6
  9
$UCSBASE
  2

  9
$UCSNAME
  2

  9
$UCSORG
 10
0.0
 20
0.0
 30
0.0
  9
$UCSXDIR
 10
1.0
 20
0.0
 30
0.0
  9
$UCSYDIR
 10
0.0
 20
1.0
 30
0.0
  9
$UCSORTHOREF
  2

  9
$UCSORTHOVIEW
 70
     0
  9
$UCSORGTOP
 10
0.0
 20
0.0
 30
0.0
  9
$UCSORGBOTTOM
 10
0.0
 20
0.0
 30
0.0
  9
$UCSORGLEFT
 10
0.0
 20
0.0
 30
0.0
  9
$UCSORGRIGHT
 10
0.0
 20
0.0
 30
0.0
  9
$UCSORGFRONT
 10
0.0
 20
0.0
 30
0.0
  9
$UCSORGBACK
 10
0.0
 20
0.0
 30
0.0
  9
$PUCSBASE
  2

  9
$PUCSNAME
  2

  9
$PUCSORG
 10
0.0
 20
0.0
 30
0.0
  9
$PUCSXDIR
 10
1.0
 20
0.0
 30
0.0
  9
$PUCSYDIR
 10
0.0
 20
1.0
 30
0.0
  9
$PUCSORTHOREF
  2

  9
$PUCSORTHOVIEW
 70
     0
  9
$PUCSORGTOP
 10
0.0
 20
0.0
 30
0.0
  9
$PUCSORGBOTTOM
 10
0.0
 20
0.0
 30
0.0
  9
$PUCSORGLEFT
 10
0.0
 20
0.0
 30
0.0
  9
$PUCSORGRIGHT
 10
0.0
 20
0.0
 30
0.0
  9
$PUCSORGFRONT
 10
0.0
 20
0.0
 30
0.0
  9
$PUCSORGBACK
 10
0.0
 20
0.0
 30
0.0
  9
$USERI1
 70
     0
  9
$USERI2
 70
     0
  9
$USERI3
 70
     0
  9
$USERI4
 70
     0
  9
$USERI5
 70
     0
  9
$USERR1
 40
0.0
  9
$USERR2
 40
0.0
  9
$USERR3
 40
0.0
  9
$USERR4
 40
0.0
  9
$USERR5
 40
0.0
  9
$WORLDVIEW
 70
     1
  9
$SHADEDGE
 70
     3
  9
$SHADEDIF
 70
    70
  9
$TILEMODE
 70
     1
  9
$MAXACTVP
 70
    64
  9
$PINSBASE
 10
0.0
 20
0.0
 30
0.0
  9
$PLIMCHECK
 70
     0
  9
$PEXTMIN
 10
1.000000000000000E+20
 20
1.000000000000000E+20
 30
1.000000000000000E+20
  9
$PEXTMAX
 10
-1.000000000000000E+20
 20
-1.000000000000000E+20
 30
-1.000000000000000E+20
  9
$PLIMMIN
 10
0.0
 20
0.0
  9
$PLIMMAX
 10
12.0
 20
9.0
  9
$UNITMODE
 70
     0
  9
$VISRETAIN
 70
     1
  9
$PLINEGEN
 70
     0
  9
$PSLTSCALE
 70
     1
  9
$TREEDEPTH
 70
  3020
  9
$CMLSTYLE
  2
Standard
  9
$CMLJUST
 70
     0
  9
$CMLSCALE
 40
1.0
  9
$PROXYGRAPHICS
 70
     1
  9
$MEASUREMENT
 70
     0
  9
$CELWEIGHT
370
    -1
  9
$ENDCAPS
280
     0
  9
$JOINSTYLE
280
     0
  9
$LWDISPLAY
290
     0
  9
$INSUNITS
 70
     5
  9
$HYPERLINKBASE
  1

  9
$STYLESHEET
  1

  9
$XEDIT
290
     1
  9
$CEPSNTYPE
380
     0
  9
$PSTYLEMODE
290
     1
  9
$FINGERPRINTGUID
  2
{1288E85A-18A3-48F7-BFE0-E0E5C56006A1}
  9
$VERSIONGUID
  2
{FAEB1C32-E019-11D5-929B-00C0DF256EC4}
  9
$EXTNAMES
290
     1
  9
$PSVPSCALE
 40
0.0
  9
$OLESTARTUP
290
     0
  9
$SORTENTS
280
   127
  9
$INDEXCTL
280
     0
  9
$HIDETEXT
280
     1
  9
$XCLIPFRAME
290
     0
  9
$HALOGAP
280
     0
  9
$OBSCOLOR
 70
   257
  9
$OBSLTYPE
280
     0
  9
$INTERSECTIONDISPLAY
280
     0
  9
$INTERSECTIONCOLOR
 70
   257
  9
$DIMASSOC
280
     2
  9
$PROJECTNAME
  1

  9
$CAMERADISPLAY
290
     0
  9
$LENSLENGTH
 40
50.0
  9
$CAMERAHEIGHT
 40
0.0
  9
$STEPSPERSEC
 40
2.0
  9
$STEPSIZE
 40
6.0
  9
$3DDWFPREC
 40
2.0
  9
$PSOLWIDTH
 40
0.25
  9
$PSOLHEIGHT
 40
4.0
  9
$LOFTANG1
 40
1.570796326794897
  9
$LOFTANG2
 40
1.570796326794897
  9
$LOFTMAG1
 40
0.0
  9
$LOFTMAG2
 40
0.0
  9
$LOFTPARAM
 70
     7
  9
$LOFTNORMALS
280
     1
  9
$LATITUDE
 40
37.795
  9
$LONGITUDE
 40
-122.394
  9
$NORTHDIRECTION
 40
0.0
  9
$TIMEZONE
 70
 -8000
  9
$LIGHTGLYPHDISPLAY
280
     1
  9
$TILEMODELIGHTSYNCH
280
     1
  9
$SOLIDHIST
280
     1
  9
$SHOWHIST
280
     1
  9
$DWFFRAME
280
     2
  9
$DGNFRAME
280
     2
  9
$REALWORLDSCALE
290
     1
  9
$INTERFERECOLOR
 62
   256
  9
$CSHADOW
280
     0
  9
$SHADOWPLANELOCATION
 40
0.0
  0
ENDSEC
  0
SECTION
  2
CLASSES
  0
CLASS
  1
ACDBDICTIONARYWDFLT
  2
AcDbDictionaryWithDefault
  3
ObjectDBX Classes
 90
        0
 91
        4
280
     0
281
     0
  0
CLASS
  1
VISUALSTYLE
  2
AcDbVisualStyle
  3
ObjectDBX Classes
 90
     4095
 91
        4
280
     0
281
     0
  0
CLASS
  1
MATERIAL
  2
AcDbMaterial
  3
ObjectDBX Classes
 90
     1153
 91
        4
280
     0
281
     0
  0
ENDSEC
  0
SECTION
  2
TABLES
  0
TABLE
  2
VPORT
  5
8
330
0
100
AcDbSymbolTable
 70
     1
  0
VPORT
  5
29
330
8
100
AcDbSymbolTableRecord
100
AcDbViewportTableRecord
  2
*Active
 70
     0
 10
0.0
 20
0.0
 11
1.0
 21
1.0
 12
10.42990654205607
 22
4.5
 13
0.0
 23
0.0
 14
0.5
 24
0.5
 15
0.5
 25
0.5
 16
0.0
 26
0.0
 36
1.0
 17
0.0
 27
0.0
 37
0.0
 40
9.0
 41
1.972972972850329
 42
50.0
 43
0.0
 44
0.0
 50
0.0
 51
0.0
 71
     0
 72
   100
 73
     1
 74
     3
 75
     0
 76
     0
 77
     0
 78
     0
281
     0
 65
     1
110
0.0
120
0.0
130
0.0
111
1.0
121
0.0
131
0.0
112
0.0
122
1.0
132
0.0
 79
     0
146
0.0
 60
     3
 61
     5
292
     1
282
     1
141
0.0
142
0.0
 63
   250
  0
ENDTAB
  0
TABLE
  2
LTYPE
  5
5
330
0
100
AcDbSymbolTable
 70
     1
  0
LTYPE
  5
14
330
5
100
AcDbSymbolTableRecord
100
AcDbLinetypeTableRecord
  2
ByBlock
 70
     0
  3

 72
    65
 73
     0
 40
0.0
  0
LTYPE
  5
15
330
5
100
AcDbSymbolTableRecord
100
AcDbLinetypeTableRecord
  2
ByLayer
 70
     0
  3

 72
    65
 73
     0
 40
0.0
  0
LTYPE
  5
16
330
5
100
AcDbSymbolTableRecord
100
AcDbLinetypeTableRecord
  2
Continuous
 70
     0
  3
Solid line
 72
    65
 73
     0
 40
0.0
  0
ENDTAB
  0
TABLE
  2
LAYER
  5
2
330
0
100
AcDbSymbolTable
 70
     2
  0
LAYER
  5
10
330
2
100
AcDbSymbolTableRecord
100
AcDbLayerTableRecord
  2
0
 70
     0
 62
     7
  6
Continuous
370
    -3
390
F
347
3E
  0
LAYER
  5
40
330
2
100
AcDbSymbolTableRecord
100
AcDbLayerTableRecord
  2
Camada 1
 70
     0
 62
     7
  6
Continuous
370
    -3
390
F
347
3E
  0
ENDTAB
  0
TABLE
  2
STYLE
  5
3
330
0
100
AcDbSymbolTable
 70
     1
  0
STYLE
  5
11
330
3
100
AcDbSymbolTableRecord
100
AcDbTextStyleTableRecord
  2
Standard
 70
     0
 40
0.0
 41
1.0
 50
0.0
 71
     0
 42
0.2
  3
txt
  4

  0
ENDTAB
  0
TABLE
  2
VIEW
  5
6
330
0
100
AcDbSymbolTable
 70
     0
  0
ENDTAB
  0
TABLE
  2
UCS
  5
7
330
0
100
AcDbSymbolTable
 70
     0
  0
ENDTAB
  0
TABLE
  2
APPID
  5
9
330
0
100
AcDbSymbolTable
 70
     2
  0
APPID
  5
12
330
9
100
AcDbSymbolTableRecord
100
AcDbRegAppTableRecord
  2
ACAD
 70
     0
  0
APPID
  5
3F
330
9
100
AcDbSymbolTableRecord
100
AcDbRegAppTableRecord
  2
ODA
 70
     0
  0
ENDTAB
  0
TABLE
  2
DIMSTYLE
  5
A
330
0
100
AcDbSymbolTable
 70
     1
100
AcDbDimStyleTable
  0
DIMSTYLE
105
27
330
A
100
AcDbSymbolTableRecord
100
AcDbDimStyleTableRecord
  2
Standard
 70
     0
178
     0
340
11
  0
ENDTAB
  0
TABLE
  2
BLOCK_RECORD
  5
1
330
0
100
AcDbSymbolTable
 70
     1
  0
BLOCK_RECORD
  5
1F
330
1
100
AcDbSymbolTableRecord
100
AcDbBlockTableRecord
  2
*Model_Space
340
22
 70
     0
280
     1
281
     0
  0
BLOCK_RECORD
  5
1B
330
1
100
AcDbSymbolTableRecord
100
AcDbBlockTableRecord
  2
*Paper_Space
340
1E
 70
     0
280
     1
281
     0
  0
BLOCK_RECORD
  5
23
330
1
100
AcDbSymbolTableRecord
100
AcDbBlockTableRecord
  2
*Paper_Space0
340
26
 70
     0
280
     1
281
     0
  0
ENDTAB
  0
ENDSEC
  0
SECTION
  2
BLOCKS
  0
BLOCK
  5
20
330
1F
100
AcDbEntity
  8
0
100
AcDbBlockBegin
  2
*Model_Space
 70
     0
 10
0.0
 20
0.0
 30
0.0
  3
*Model_Space
  1

  0
ENDBLK
  5
21
330
1F
100
AcDbEntity
  8
0
100
AcDbBlockEnd
  0
BLOCK
  5
1C
330
1B
100
AcDbEntity
 67
     1
  8
0
100
AcDbBlockBegin
  2
*Paper_Space
 70
     0
 10
0.0
 20
0.0
 30
0.0
  3
*Paper_Space
  1

  0
ENDBLK
  5
1D
330
1B
100
AcDbEntity
 67
     1
  8
0
100
AcDbBlockEnd
  0
BLOCK
  5
24
330
23
100
AcDbEntity
  8
0
100
AcDbBlockBegin
  2
*Paper_Space0
 70
     0
 10
0.0
 20
0.0
 30
0.0
  3
*Paper_Space0
  1

  0
ENDBLK
  5
25
330
23
100
AcDbEntity
  8
0
100
AcDbBlockEnd
  0
ENDSEC
  0
SECTION
  2
ENTITIES
  0
SPLINE
  5
41
330
1F
100
AcDbEntity
  8
Camada 1
 62
   143
100
AcDbSpline
210
0.0
220
0.0
230
1.0
 70
    11
 71
     3
 72
   304
 73
   300
 74
     0
 42
0.0000000001
 43
0.0000000001
 12
1.0
 22
0.0
 32
0.0
 13
1.0
 23
0.0
 33
0.0
 40
0.0
 40
0.0
 40
0.0
 40
0.0
 40
0.0131578947368421
 40
0.0131578947368421
 40
0.0131578947368421
 40
0.0131578947368421
 40
0.0263157894736842
 40
0.0263157894736842
 40
0.0263157894736842
 40
0.0263157894736842
 40
0.0394736842105263
 40
0.0394736842105263
 40
0.0394736842105263
 40
0.0394736842105263
 40
0.0526315789473684
 40
0.0526315789473684
 40
0.0526315789473684
 40
0.0526315789473684
 40
0.0657894736842105
 40
0.0657894736842105
 40
0.0657894736842105
 40
0.0657894736842105
 40
0.0789473684210526
 40
0.0789473684210526
 40
0.0789473684210526
 40
0.0789473684210526
 40
0.0921052631578947
 40
0.0921052631578947
 40
0.0921052631578947
 40
0.0921052631578947
 40
0.1052631578947368
 40
0.1052631578947368
 40
0.1052631578947368
 40
0.1052631578947368
 40
0.1184210526315789
 40
0.1184210526315789
 40
0.1184210526315789
 40
0.1184210526315789
 40
0.131578947368421
 40
0.131578947368421
 40
0.131578947368421
 40
0.131578947368421
 40
0.1447368421052632
 40
0.1447368421052632
 40
0.1447368421052632
 40
0.1447368421052632
 40
0.1578947368421053
 40
0.1578947368421053
 40
0.1578947368421053
 40
0.1578947368421053
 40
0.1710526315789474
 40
0.1710526315789474
 40
0.1710526315789474
 40
0.1710526315789474
 40
0.1842105263157895
 40
0.1842105263157895
 40
0.1842105263157895
 40
0.1842105263157895
 40
0.1973684210526316
 40
0.1973684210526316
 40
0.1973684210526316
 40
0.1973684210526316
 40
0.2105263157894737
 40
0.2105263157894737
 40
0.2105263157894737
 40
0.2105263157894737
 40
0.2236842105263158
 40
0.2236842105263158
 40
0.2236842105263158
 40
0.2236842105263158
 40
0.2368421052631579
 40
0.2368421052631579
 40
0.2368421052631579
 40
0.2368421052631579
 40
0.25
 40
0.25
 40
0.25
 40
0.25
 40
0.2631578947368421
 40
0.2631578947368421
 40
0.2631578947368421
 40
0.2631578947368421
 40
0.2763157894736842
 40
0.2763157894736842
 40
0.2763157894736842
 40
0.2763157894736842
 40
0.2894736842105263
 40
0.2894736842105263
 40
0.2894736842105263
 40
0.2894736842105263
 40
0.3026315789473684
 40
0.3026315789473684
 40
0.3026315789473684
 40
0.3026315789473684
 40
0.3157894736842105
 40
0.3157894736842105
 40
0.3157894736842105
 40
0.3157894736842105
 40
0.3289473684210527
 40
0.3289473684210527
 40
0.3289473684210527
 40
0.3289473684210527
 40
0.3421052631578947
 40
0.3421052631578947
 40
0.3421052631578947
 40
0.3421052631578947
 40
0.3552631578947368
 40
0.3552631578947368
 40
0.3552631578947368
 40
0.3552631578947368
 40
0.3684210526315789
 40
0.3684210526315789
 40
0.3684210526315789
 40
0.3684210526315789
 40
0.3815789473684211
 40
0.3815789473684211
 40
0.3815789473684211
 40
0.3815789473684211
 40
0.3947368421052632
 40
0.3947368421052632
 40
0.3947368421052632
 40
0.3947368421052632
 40
0.4078947368421053
 40
0.4078947368421053
 40
0.4078947368421053
 40
0.4078947368421053
 40
0.4210526315789473
 40
0.4210526315789473
 40
0.4210526315789473
 40
0.4210526315789473
 40
0.4342105263157895
 40
0.4342105263157895
 40
0.4342105263157895
 40
0.4342105263157895
 40
0.4473684210526316
 40
0.4473684210526316
 40
0.4473684210526316
 40
0.4473684210526316
 40
0.4605263157894737
 40
0.4605263157894737
 40
0.4605263157894737
 40
0.4605263157894737
 40
0.4736842105263158
 40
0.4736842105263158
 40
0.4736842105263158
 40
0.4736842105263158
 40
0.4868421052631579
 40
0.4868421052631579
 40
0.4868421052631579
 40
0.4868421052631579
 40
0.5
 40
0.5
 40
0.5
 40
0.5
 40
0.5131578947368421
 40
0.5131578947368421
 40
0.5131578947368421
 40
0.5131578947368421
 40
0.5263157894736842
 40
0.5263157894736842
 40
0.5263157894736842
 40
0.5263157894736842
 40
0.5394736842105263
 40
0.5394736842105263
 40
0.5394736842105263
 40
0.5394736842105263
 40
0.5526315789473685
 40
0.5526315789473685
 40
0.5526315789473685
 40
0.5526315789473685
 40
0.5657894736842105
 40
0.5657894736842105
 40
0.5657894736842105
 40
0.5657894736842105
 40
0.5789473684210527
 40
0.5789473684210527
 40
0.5789473684210527
 40
0.5789473684210527
 40
0.5921052631578947
 40
0.5921052631578947
 40
0.5921052631578947
 40
0.5921052631578947
 40
0.6052631578947368
 40
0.6052631578947368
 40
0.6052631578947368
 40
0.6052631578947368
 40
0.618421052631579
 40
0.618421052631579
 40
0.618421052631579
 40
0.618421052631579
 40
0.631578947368421
 40
0.631578947368421
 40
0.631578947368421
 40
0.631578947368421
 40
0.6447368421052632
 40
0.6447368421052632
 40
0.6447368421052632
 40
0.6447368421052632
 40
0.6578947368421053
 40
0.6578947368421053
 40
0.6578947368421053
 40
0.6578947368421053
 40
0.6710526315789473
 40
0.6710526315789473
 40
0.6710526315789473
 40
0.6710526315789473
 40
0.6842105263157895
 40
0.6842105263157895
 40
0.6842105263157895
 40
0.6842105263157895
 40
0.6973684210526315
 40
0.6973684210526315
 40
0.6973684210526315
 40
0.6973684210526315
 40
0.7105263157894737
 40
0.7105263157894737
 40
0.7105263157894737
 40
0.7105263157894737
 40
0.7236842105263158
 40
0.7236842105263158
 40
0.7236842105263158
 40
0.7236842105263158
 40
0.7368421052631579
 40
0.7368421052631579
 40
0.7368421052631579
 40
0.7368421052631579
 40
0.75
 40
0.75
 40
0.75
 40
0.75
 40
0.7631578947368421
 40
0.7631578947368421
 40
0.7631578947368421
 40
0.7631578947368421
 40
0.7763157894736842
 40
0.7763157894736842
 40
0.7763157894736842
 40
0.7763157894736842
 40
0.7894736842105263
 40
0.7894736842105263
 40
0.7894736842105263
 40
0.7894736842105263
 40
0.8026315789473685
 40
0.8026315789473685
 40
0.8026315789473685
 40
0.8026315789473685
 40
0.8157894736842105
 40
0.8157894736842105
 40
0.8157894736842105
 40
0.8157894736842105
 40
0.8289473684210527
 40
0.8289473684210527
 40
0.8289473684210527
 40
0.8289473684210527
 40
0.8421052631578947
 40
0.8421052631578947
 40
0.8421052631578947
 40
0.8421052631578947
 40
0.8552631578947368
 40
0.8552631578947368
 40
0.8552631578947368
 40
0.8552631578947368
 40
0.868421052631579
 40
0.868421052631579
 40
0.868421052631579
 40
0.868421052631579
 40
0.881578947368421
 40
0.881578947368421
 40
0.881578947368421
 40
0.881578947368421
 40
0.8947368421052632
 40
0.8947368421052632
 40
0.8947368421052632
 40
0.8947368421052632
 40
0.9078947368421053
 40
0.9078947368421053
 40
0.9078947368421053
 40
0.9078947368421053
 40
0.9210526315789473
 40
0.9210526315789473
 40
0.9210526315789473
 40
0.9210526315789473
 40
0.9342105263157895
 40
0.9342105263157895
 40
0.9342105263157895
 40
0.9342105263157895
 40
0.9473684210526315
 40
0.9473684210526315
 40
0.9473684210526315
 40
0.9473684210526315
 40
0.9605263157894737
 40
0.9605263157894737
 40
0.9605263157894737
 40
0.9605263157894737
 40
0.9736842105263158
 40
0.9736842105263158
 40
0.9736842105263158
 40
0.9736842105263158
 40
1.0
 40
1.0
 40
1.0
 40
1.0
 10
0.71508
 20
3.7419
 30
0.0
 10
0.79903
 20
3.7412
 30
0.0
 10
0.88935
 20
3.76061
 30
0.0
 10
0.96908
 20
3.72533
 30
0.0
 10
0.96908
 20
3.72533
 30
0.0
 10
1.03011
 20
3.65548
 30
0.0
 10
1.06469
 20
3.56059
 30
0.0
 10
1.14652
 20
3.51048
 30
0.0
 10
1.14652
 20
3.51048
 30
0.0
 10
1.25095
 20
3.44557
 30
0.0
 10
1.37054
 20
3.41277
 30
0.0
 10
1.48412
 20
3.36832
 30
0.0
 10
1.48412
 20
3.36832
 30
0.0
 10
1.46261
 20
3.28753
 30
0.0
 10
1.43544
 20
3.20781
 30
0.0
 10
1.40053
 20
3.13124
 30
0.0
 10
1.40053
 20
3.13124
 30
0.0
 10
1.64499
 20
2.57457
 30
0.0
 10
1.89371
 20
2.0193
 30
0.0
 10
2.12724
 20
1.45767
 30
0.0
 10
2.12724
 20
1.45767
 30
0.0
 10
2.16782
 20
1.36065
 30
0.0
 10
2.21156
 20
1.26364
 30
0.0
 10
2.27682
 20
1.18004
 30
0.0
 10
2.27682
 20
1.18004
 30
0.0
 10
2.30399
 20
1.56598
 30
0.0
 10
2.22144
 20
1.94839
 30
0.0
 10
2.20098
 20
2.33257
 30
0.0
 10
2.20098
 20
2.33257
 30
0.0
 10
2.19745
 20
2.48355
 30
0.0
 10
2.16146
 20
2.62924
 30
0.0
 10
2.10043
 20
2.76647
 30
0.0
 10
2.10043
 20
2.76647
 30
0.0
 10
2.0655
 20
2.86173
 30
0.0
 10
2.17735
 20
2.92805
 30
0.0
 10
2.2606
 20
2.91889
 30
0.0
 10
2.2606
 20
2.91889
 30
0.0
 10
2.44122
 20
2.9157
 30
0.0
 10
2.61796
 20
2.95875
 30
0.0
 10
2.79858
 20
2.96298
 30
0.0
 10
2.79858
 20
2.96298
 30
0.0
 10
3.36761
 20
3.04482
 30
0.0
 10
3.94299
 20
3.08044
 30
0.0
 10
4.51167
 20
3.16089
 30
0.0
 10
4.51167
 20
3.16089
 30
0.0
 10
4.61963
 20
3.16688
 30
0.0
 10
4.71346
 20
3.09527
 30
0.0
 10
4.7833
 20
3.02012
 30
0.0
 10
4.7833
 20
3.02012
 30
0.0
 10
4.87644
 20
2.92981
 30
0.0
 10
4.76496
 20
2.80704
 30
0.0
 10
4.77307
 20
2.70016
 30
0.0
 10
4.77307
 20
2.70016
 30
0.0
 10
4.77767
 20
2.3869
 30
0.0
 10
4.83693
 20
2.0768
 30
0.0
 10
4.85705
 20
1.76423
 30
0.0
 10
4.85705
 20
1.76423
 30
0.0
 10
4.86092
 20
1.64324
 30
0.0
 10
4.90889
 20
1.51729
 30
0.0
 10
4.87574
 20
1.39805
 30
0.0
 10
4.87574
 20
1.39805
 30
0.0
 10
4.75051
 20
1.16628
 30
0.0
 10
4.68629
 20
0.90628
 30
0.0
 10
4.63797
 20
0.6491
 30
0.0
 10
4.63797
 20
0.6491
 30
0.0
 10
4.79602
 20
0.55562
 30
0.0
 10
4.97733
 20
0.50729
 30
0.0
 10
5.12938
 20
0.40145
 30
0.0
 10
5.12938
 20
0.40145
 30
0.0
 10
5.42113
 20
0.20672
 30
0.0
 10
5.68783
 20
-0.04056
 30
0.0
 10
5.85857
 20
-0.35065
 30
0.0
 10
5.85857
 20
-0.35065
 30
0.0
 10
6.19195
 20
-0.89358
 30
0.0
 10
6.26321
 20
-1.58326
 30
0.0
 10
6.06989
 20
-2.18792
 30
0.0
 10
6.06989
 20
-2.18792
 30
0.0
 10
5.90373
 20
-2.72908
 30
0.0
 10
5.5185
 20
-3.19829
 30
0.0
 10
5.02214
 20
-3.46957
 30
0.0
 10
5.02214
 20
-3.46957
 30
0.0
 10
4.54306
 20
-3.74261
 30
0.0
 10
3.96098
 20
-3.81881
 30
0.0
 10
3.42406
 20
-3.70134
 30
0.0
 10
3.42406
 20
-3.70134
 30
0.0
 10
2.89243
 20
-3.58598
 30
0.0
 10
2.41969
 20
-3.26143
 30
0.0
 10
2.09373
 20
-2.82963
 30
0.0
 10
2.09373
 20
-2.82963
 30
0.0
 10
2.02706
 20
-2.96087
 30
0.0
 10
1.95297
 20
-3.09033
 30
0.0
 10
1.85773
 20
-3.20321
 30
0.0
 10
1.85773
 20
-3.20321
 30
0.0
 10
1.75894
 20
-3.21556
 30
0.0
 10
1.72931
 20
-3.10444
 30
0.0
 10
1.69333
 20
-3.03494
 30
0.0
 10
1.69333
 20
-3.03494
 30
0.0
 10
1.5748
 20
-2.73085
 30
0.0
 10
1.52047
 20
-2.40558
 30
0.0
 10
1.47778
 20
-2.0835
 30
0.0
 10
1.47778
 20
-2.0835
 30
0.0
 10
1.44604
 20
-1.77129
 30
0.0
 10
1.41464
 20
-1.45486
 30
0.0
 10
1.4619
 20
-1.14265
 30
0.0
 10
1.4619
 20
-1.14265
 30
0.0
 10
1.54235
 20
-0.54256
 30
0.0
 10
1.86055
 20
0.01517
 30
0.0
 10
2.32409
 20
0.40216
 30
0.0
 10
2.32409
 20
0.40216
 30
0.0
 10
2.2941
 20
0.48294
 30
0.0
 10
2.26236
 20
0.56339
 30
0.0
 10
2.23026
 20
0.64347
 30
0.0
 10
2.23026
 20
0.64347
 30
0.0
 10
1.89476
 20
0.34042
 30
0.0
 10
1.60197
 20
-0.00706
 30
0.0
 10
1.28517
 20
-0.32948
 30
0.0
 10
1.28517
 20
-0.32948
 30
0.0
 10
0.99554
 20
-0.61736
 30
0.0
 10
0.71825
 20
-0.91722
 30
0.0
 10
0.43992
 20
-1.21567
 30
0.0
 10
0.43992
 20
-1.21567
 30
0.0
 10
0.59407
 20
-1.24001
 30
0.0
 10
0.77505
 20
-1.18356
 30
0.0
 10
0.90981
 20
-1.27635
 30
0.0
 10
0.90981
 20
-1.27635
 30
0.0
 10
0.95391
 20
-1.37089
 30
0.0
 10
0.9779
 20
-1.54622
 30
0.0
 10
0.86147
 20
-1.60055
 30
0.0
 10
0.86147
 20
-1.60055
 30
0.0
 10
0.70801
 20
-1.62913
 30
0.0
 10
0.54997
 20
-1.6122
 30
0.0
 10
0.39441
 20
-1.61607
 30
0.0
 10
0.39441
 20
-1.61607
 30
0.0
 10
0.40815
 20
-1.86407
 30
0.0
 10
0.3884
 20
-2.13747
 30
0.0
 10
0.21978
 20
-2.33469
 30
0.0
 10
0.21978
 20
-2.33469
 30
0.0
 10
0.05574
 20
-2.52906
 30
0.0
 10
-0.22119
 20
-2.56187
 30
0.0
 10
-0.46002
 20
-2.54669
 30
0.0
 10
-0.46002
 20
-2.54669
 30
0.0
 10
-0.74471
 20
-2.5206
 30
0.0
 10
-1.0234
 20
-2.45285
 30
0.0
 10
-1.30386
 20
-2.4003
 30
0.0
 10
-1.30386
 20
-2.4003
 30
0.0
 10
-1.52364
 20
-2.86773
 30
0.0
 10
-1.8856
 20
-3.27342
 30
0.0
 10
-2.3502
 20
-3.50626
 30
0.0
 10
-2.3502
 20
-3.50626
 30
0.0
 10
-2.91499
 20
-3.80118
 30
0.0
 10
-3.60856
 20
-3.83821
 30
0.0
 10
-4.19981
 20
-3.60045
 30
0.0
 10
-4.19981
 20
-3.60045
 30
0.0
 10
-4.60798
 20
-3.45052
 30
0.0
 10
-4.95511
 20
-3.16264
 30
0.0
 10
-5.21582
 20
-2.81869
 30
0.0
 10
-5.21582
 20
-2.81869
 30
0.0
 10
-5.50228
 20
-2.41828
 30
0.0
 10
-5.64761
 20
-1.92651
 30
0.0
 10
-5.63738
 20
-1.4351
 30
0.0
 10
-5.63738
 20
-1.4351
 30
0.0
 10
-5.71146
 20
-1.4351
 30
0.0
 10
-5.78555
 20
-1.4351
 30
0.0
 10
-5.85964
 20
-1.43474
 30
0.0
 10
-5.85964
 20
-1.43474
 30
0.0
 10
-5.87445
 20
-1.17016
 30
0.0
 10
-5.81659
 20
-0.91015
 30
0.0
 10
-5.75486
 20
-0.6551
 30
0.0
 10
-5.75486
 20
-0.6551
 30
0.0
 10
-5.89526
 20
-0.65758
 30
0.0
 10
-6.03566
 20
-0.65651
 30
0.0
 10
-6.17536
 20
-0.6424
 30
0.0
 10
-6.17536
 20
-0.6424
 30
0.0
 10
-6.16795
 20
-0.58878
 30
0.0
 10
-6.16479
 20
-0.53445
 30
0.0
 10
-6.14644
 20
-0.48365
 30
0.0
 10
-6.14644
 20
-0.48365
 30
0.0
 10
-5.99581
 20
-0.45649
 30
0.0
 10
-5.84129
 20
-0.47166
 30
0.0
 10
-5.68924
 20
-0.47059
 30
0.0
 10
-5.68924
 20
-0.47059
 30
0.0
 10
-5.73475
 20
-0.25011
 30
0.0
 10
-5.6536
 20
-0.0388
 30
0.0
 10
-5.62222
 20
0.17638
 30
0.0
 10
-5.62222
 20
0.17638
 30
0.0
 10
-5.44936
 20
0.20813
 30
0.0
 10
-5.25144
 20
0.18908
 30
0.0
 10
-5.10998
 20
0.31114
 30
0.0
 10
-5.10998
 20
0.31114
 30
0.0
 10
-4.93323
 20
0.45578
 30
0.0
 10
-4.74661
 20
0.58807
 30
0.0
 10
-4.55153
 20
0.70767
 30
0.0
 10
-4.55153
 20
0.70767
 30
0.0
 10
-4.58681
 20
0.83502
 30
0.0
 10
-4.62421
 20
0.96202
 30
0.0
 10
-4.6616
 20
1.08902
 30
0.0
 10
-4.6616
 20
1.08902
 30
0.0
 10
-4.7826
 20
1.10031
 30
0.0
 10
-4.90536
 20
1.09926
 30
0.0
 10
-5.02462
 20
1.12323
 30
0.0
 10
-5.02462
 20
1.12323
 30
0.0
 10
-5.1121
 20
1.14618
 30
0.0
 10
-5.08987
 20
1.25482
 30
0.0
 10
-5.1054
 20
1.32257
 30
0.0
 10
-5.1054
 20
1.32257
 30
0.0
 10
-5.00379
 20
1.33879
 30
0.0
 10
-4.90044
 20
1.35042
 30
0.0
 10
-4.79743
 20
1.3395
 30
0.0
 10
-4.79743
 20
1.3395
 30
0.0
 10
-4.08834
 20
1.27881
 30
0.0
 10
-3.37819
 20
1.22802
 30
0.0
 10
-2.66805
 20
1.17615
 30
0.0
 10
-2.66805
 20
1.17615
 30
0.0
 10
-2.48567
 20
1.15992
 30
0.0
 10
-2.30258
 20
1.1437
 30
0.0
 10
-2.11912
 20
1.14582
 30
0.0
 10
-2.11912
 20
1.14582
 30
0.0
 10
-2.07327
 20
1.2467
 30
0.0
 10
-2.01083
 20
1.3416
 30
0.0
 10
-1.98402
 20
1.45026
 30
0.0
 10
-1.98402
 20
1.45026
 30
0.0
 10
-1.99777
 20
1.57339
 30
0.0
 10
-2.05634
 20
1.69087
 30
0.0
 10
-2.12865
 20
1.79034
 30
0.0
 10
-2.12865
 20
1.79034
 30
0.0
 10
-2.28952
 20
1.79775
 30
0.0
 10
-2.43662
 20
1.71097
 30
0.0
 10
-2.59503
 20
1.7078
 30
0.0
 10
-2.59503
 20
1.7078
 30
0.0
 10
-2.65888
 20
1.74449
 30
0.0
 10
-2.71497
 20
1.7928
 30
0.0
 10
-2.77283
 20
1.83797
 30
0.0
 10
-2.77283
 20
1.83797
 30
0.0
 10
-2.77388
 20
1.94344
 30
0.0
 10
-2.77917
 20
2.05246
 30
0.0
 10
-2.83138
 20
2.147
 30
0.0
 10
-2.83138
 20
2.147
 30
0.0
 10
-2.90018
 20
2.2546
 30
0.0
 10
-2.85184
 20
2.40805
 30
0.0
 10
-2.7492
 20
2.47509
 30
0.0
 10
-2.7492
 20
2.47509
 30
0.0
 10
-2.56258
 20
2.5026
 30
0.0
 10
-2.37596
 20
2.45533
 30
0.0
 10
-2.18934
 20
2.44651
 30
0.0
 10
-2.18934
 20
2.44651
 30
0.0
 10
-1.90923
 20
2.42252
 30
0.0
 10
-1.6323
 20
2.52024
 30
0.0
 10
-1.35254
 20
2.46873
 30
0.0
 10
-1.35254
 20
2.46873
 30
0.0
 10
-1.37653
 20
2.39783
 30
0.0
 10
-1.40263
 20
2.32375
 30
0.0
 10
-1.46578
 20
2.27824
 30
0.0
 10
-1.46578
 20
2.27824
 30
0.0
 10
-1.60479
 20
2.165
 30
0.0
 10
-1.73214
 20
2.03904
 30
0.0
 10
-1.85313
 20
1.90712
 30
0.0
 10
-1.85313
 20
1.90712
 30
0.0
 10
-1.4619
 20
0.99976
 30
0.0
 10
-1.0555
 20
0.09913
 30
0.0
 10
-0.66111
 20
-0.8068
 30
0.0
 10
-0.66111
 20
-0.8068
 30
0.0
 10
-0.34149
 20
-0.72989
 30
0.0
 10
-0.02611
 20
-0.62793
 30
0.0
 10
0.2667
 20
-0.47695
 30
0.0
 10
0.2667
 20
-0.47695
 30
0.0
 10
0.55104
 20
-0.32985
 30
0.0
 10
0.79409
 20
-0.10442
 30
0.0
 10
0.95919
 20
0.17003
 30
0.0
 10
0.95919
 20
0.17003
 30
0.0
 10
1.2841
 20
0.67839
 30
0.0
 10
1.50777
 20
1.26188
 30
0.0
 10
1.54269
 20
1.86725
 30
0.0
 10
1.54269
 20
1.86725
 30
0.0
 10
1.54693
 20
2.03376
 30
0.0
 10
1.56069
 20
2.21014
 30
0.0
 10
1.48412
 20
2.36395
 30
0.0
 10
1.48412
 20
2.36395
 30
0.0
 10
1.35995
 20
2.63983
 30
0.0
 10
1.23437
 20
2.91499
 30
0.0
 10
1.113
 20
3.19193
 30
0.0
 10
1.113
 20
3.19193
 30
0.0
 10
1.07209
 20
3.29988
 30
0.0
 10
0.94262
 20
3.40535
 30
0.0
 10
0.82656
 20
3.34327
 30
0.0
 10
0.82656
 20
3.34327
 30
0.0
 10
0.57114
 20
3.22896
 30
0.0
 10
0.31396
 20
3.07552
 30
0.0
 10
0.02258
 20
3.09986
 30
0.0
 10
0.02258
 20
3.09986
 30
0.0
 10
0.02187
 20
3.15948
 30
0.0
 10
0.01834
 20
3.21944
 30
0.0
 10
0.02857
 20
3.27837
 30
0.0
 10
0.02857
 20
3.27837
 30
0.0
 10
0.22436
 20
3.37538
 30
0.0
 10
0.45931
 20
3.38878
 30
0.0
 10
0.63534
 20
3.52777
 30
0.0
 10
0.63534
 20
3.52777
 30
0.0
 10
0.68545
 20
3.58705
 30
0.0
 10
0.69037
 20
3.67064
 30
0.0
 10
0.71508
 20
3.7419
 30
0.0
  0
SPLINE
  5
42
330
1F
100
AcDbEntity
  8
Camada 1
 62
   143
100
AcDbSpline
210
0.0
220
0.0
230
1.0
 70
    11
 71
     3
 72
    44
 73
    40
 74
     0
 42
0.0000000001
 43
0.0000000001
 12
1.0
 22
0.0
 32
0.0
 13
1.0
 23
0.0
 33
0.0
 40
0.0
 40
0.0
 40
0.0
 40
0.0
 40
0.0909090909090909
 40
0.0909090909090909
 40
0.0909090909090909
 40
0.0909090909090909
 40
0.1818181818181818
 40
0.1818181818181818
 40
0.1818181818181818
 40
0.1818181818181818
 40
0.2727272727272727
 40
0.2727272727272727
 40
0.2727272727272727
 40
0.2727272727272727
 40
0.3636363636363636
 40
0.3636363636363636
 40
0.3636363636363636
 40
0.3636363636363636
 40
0.4545454545454545
 40
0.4545454545454545
 40
0.4545454545454545
 40
0.4545454545454545
 40
0.5454545454545454
 40
0.5454545454545454
 40
0.5454545454545454
 40
0.5454545454545454
 40
0.6363636363636364
 40
0.6363636363636364
 40
0.6363636363636364
 40
0.6363636363636364
 40
0.7272727272727273
 40
0.7272727272727273
 40
0.7272727272727273
 40
0.7272727272727273
 40
0.8181818181818182
 40
0.8181818181818182
 40
0.8181818181818182
 40
0.8181818181818182
 40
1.0
 40
1.0
 40
1.0
 40
1.0
 10
4.26649
 20
2.73261
 30
0.0
 10
4.26649
 20
2.73261
 30
0.0
 10
4.26649
 20
2.73261
 30
0.0
 10
4.26649
 20
2.73261
 30
0.0
 10
4.26649
 20
2.73261
 30
0.0
 10
3.62513
 20
2.65219
 30
0.0
 10
2.97814
 20
2.61691
 30
0.0
 10
2.3389
 20
2.51882
 30
0.0
 10
2.3389
 20
2.51882
 30
0.0
 10
2.33432
 20
2.20169
 30
0.0
 10
2.39606
 20
1.88911
 30
0.0
 10
2.41335
 20
1.57339
 30
0.0
 10
2.41335
 20
1.57339
 30
0.0
 10
2.42252
 20
1.46861
 30
0.0
 10
2.42569
 20
1.36102
 30
0.0
 10
2.4645
 20
1.26188
 30
0.0
 10
2.4645
 20
1.26188
 30
0.0
 10
2.49943
 20
1.17897
 30
0.0
 10
2.59749
 20
1.15675
 30
0.0
 10
2.67899
 20
1.15958
 30
0.0
 10
2.67899
 20
1.15958
 30
0.0
 10
2.90547
 20
1.16311
 30
0.0
 10
3.12807
 20
1.20967
 30
0.0
 10
3.3535
 20
1.22872
 30
0.0
 10
3.3535
 20
1.22872
 30
0.0
 10
3.81528
 20
1.2707
 30
0.0
 10
4.27177
 20
1.35819
 30
0.0
 10
4.73499
 20
1.38711
 30
0.0
 10
4.73499
 20
1.38711
 30
0.0
 10
4.72369
 20
1.6143
 30
0.0
 10
4.69229
 20
1.84009
 30
0.0
 10
4.67606
 20
2.06691
 30
0.0
 10
4.67606
 20
2.06691
 30
0.0
 10
4.64996
 20
2.27471
 30
0.0
 10
4.66302
 20
2.49132
 30
0.0
 10
4.59281
 20
2.69098
 30
0.0
 10
4.59281
 20
2.69098
 30
0.0
 10
4.53107
 20
2.82151
 30
0.0
 10
4.37232
 20
2.73861
 30
0.0
 10
4.26649
 20
2.73261
 30
0.0
  0
SPLINE
  5
43
330
1F
100
AcDbEntity
  8
Camada 1
 62
   143
100
AcDbSpline
210
0.0
220
0.0
230
1.0
 70
    11
 71
     3
 72
    28
 73
    24
 74
     0
 42
0.0000000001
 43
0.0000000001
 12
1.0
 22
0.0
 32
0.0
 13
1.0
 23
0.0
 33
0.0
 40
0.0
 40
0.0
 40
0.0
 40
0.0
 40
0.1428571428571428
 40
0.1428571428571428
 40
0.1428571428571428
 40
0.1428571428571428
 40
0.2857142857142857
 40
0.2857142857142857
 40
0.2857142857142857
 40
0.2857142857142857
 40
0.4285714285714285
 40
0.4285714285714285
 40
0.4285714285714285
 40
0.4285714285714285
 40
0.5714285714285714
 40
0.5714285714285714
 40
0.5714285714285714
 40
0.5714285714285714
 40
0.7142857142857143
 40
0.7142857142857143
 40
0.7142857142857143
 40
0.7142857142857143
 40
1.0
 40
1.0
 40
1.0
 40
1.0
 10
1.80657
 20
1.59137
 30
0.0
 10
1.80657
 20
1.59137
 30
0.0
 10
1.80657
 20
1.59137
 30
0.0
 10
1.80657
 20
1.59137
 30
0.0
 10
1.80657
 20
1.59137
 30
0.0
 10
1.73496
 20
1.25623
 30
0.0
 10
1.64958
 20
0.92251
 30
0.0
 10
1.51165
 20
0.60783
 30
0.0
 10
1.51165
 20
0.60783
 30
0.0
 10
1.43262
 20
0.40993
 30
0.0
 10
1.31621
 20
0.23071
 30
0.0
 10
1.23084
 20
0.03598
 30
0.0
 10
1.23084
 20
0.03598
 30
0.0
 10
1.46227
 20
0.25259
 30
0.0
 10
1.66616
 20
0.49635
 30
0.0
 10
1.89194
 20
0.71895
 30
0.0
 10
1.89194
 20
0.71895
 30
0.0
 10
1.95579
 20
0.78527
 30
0.0
 10
2.02635
 20
0.84737
 30
0.0
 10
2.0768
 20
0.92499
 30
0.0
 10
2.0768
 20
0.92499
 30
0.0
 10
2.032
 20
1.16134
 30
0.0
 10
1.89971
 20
1.37159
 30
0.0
 10
1.80657
 20
1.59137
 30
0.0
  0
SPLINE
  5
44
330
1F
100
AcDbEntity
  8
Camada 1
 62
   143
100
AcDbSpline
210
0.0
220
0.0
230
1.0
 70
    11
 71
     3
 72
    28
 73
    24
 74
     0
 42
0.0000000001
 43
0.0000000001
 12
1.0
 22
0.0
 32
0.0
 13
1.0
 23
0.0
 33
0.0
 40
0.0
 40
0.0
 40
0.0
 40
0.0
 40
0.1428571428571428
 40
0.1428571428571428
 40
0.1428571428571428
 40
0.1428571428571428
 40
0.2857142857142857
 40
0.2857142857142857
 40
0.2857142857142857
 40
0.2857142857142857
 40
0.4285714285714285
 40
0.4285714285714285
 40
0.4285714285714285
 40
0.4285714285714285
 40
0.5714285714285714
 40
0.5714285714285714
 40
0.5714285714285714
 40
0.5714285714285714
 40
0.7142857142857143
 40
0.7142857142857143
 40
0.7142857142857143
 40
0.7142857142857143
 40
1.0
 40
1.0
 40
1.0
 40
1.0
 10
-1.90183
 20
1.1617
 30
0.0
 10
-1.90183
 20
1.1617
 30
0.0
 10
-1.90183
 20
1.1617
 30
0.0
 10
-1.90183
 20
1.1617
 30
0.0
 10
-1.90183
 20
1.1617
 30
0.0
 10
-1.99565
 20
0.998
 30
0.0
 10
-2.07856
 20
0.82727
 30
0.0
 10
-2.15053
 20
0.65263
 30
0.0
 10
-2.15053
 20
0.65263
 30
0.0
 10
-1.96849
 20
0.54044
 30
0.0
 10
-1.79069
 20
0.41839
 30
0.0
 10
-1.63971
 20
0.26563
 30
0.0
 10
-1.63971
 20
0.26563
 30
0.0
 10
-1.46719
 20
0.10548
 30
0.0
 10
-1.34301
 20
-0.09596
 30
0.0
 10
-1.20332
 20
-0.28327
 30
0.0
 10
-1.20332
 20
-0.28327
 30
0.0
 10
-1.39841
 20
0.19685
 30
0.0
 10
-1.62172
 20
0.66533
 30
0.0
 10
-1.82562
 20
1.14158
 30
0.0
 10
-1.82562
 20
1.14158
 30
0.0
 10
-1.82879
 20
1.18533
 30
0.0
 10
-1.88207
 20
1.20473
 30
0.0
 10
-1.90183
 20
1.1617
 30
0.0
  0
SPLINE
  5
45
330
1F
100
AcDbEntity
  8
Camada 1
 62
   143
100
AcDbSpline
210
0.0
220
0.0
230
1.0
 70
    11
 71
     3
 72
    36
 73
    32
 74
     0
 42
0.0000000001
 43
0.0000000001
 12
1.0
 22
0.0
 32
0.0
 13
1.0
 23
0.0
 33
0.0
 40
0.0
 40
0.0
 40
0.0
 40
0.0
 40
0.1111111111111111
 40
0.1111111111111111
 40
0.1111111111111111
 40
0.1111111111111111
 40
0.2222222222222222
 40
0.2222222222222222
 40
0.2222222222222222
 40
0.2222222222222222
 40
0.3333333333333333
 40
0.3333333333333333
 40
0.3333333333333333
 40
0.3333333333333333
 40
0.4444444444444444
 40
0.4444444444444444
 40
0.4444444444444444
 40
0.4444444444444444
 40
0.5555555555555556
 40
0.5555555555555556
 40
0.5555555555555556
 40
0.5555555555555556
 40
0.6666666666666666
 40
0.6666666666666666
 40
0.6666666666666666
 40
0.6666666666666666
 40
0.7777777777777778
 40
0.7777777777777778
 40
0.7777777777777778
 40
0.7777777777777778
 40
1.0
 40
1.0
 40
1.0
 40
1.0
 10
3.23144
 20
1.03716
 30
0.0
 10
3.23144
 20
1.03716
 30
0.0
 10
3.23144
 20
1.03716
 30
0.0
 10
3.23144
 20
1.03716
 30
0.0
 10
3.23144
 20
1.03716
 30
0.0
 10
2.94181
 20
0.99694
 30
0.0
 10
2.649
 20
0.98071
 30
0.0
 10
2.36114
 20
0.92745
 30
0.0
 10
2.36114
 20
0.92745
 30
0.0
 10
2.41123
 20
0.80503
 30
0.0
 10
2.4645
 20
0.68403
 30
0.0
 10
2.52024
 20
0.56444
 30
0.0
 10
2.52024
 20
0.56444
 30
0.0
 10
2.82327
 20
0.7306
 30
0.0
 10
3.1376
 20
0.89464
 30
0.0
 10
3.48684
 20
0.93451
 30
0.0
 10
3.48684
 20
0.93451
 30
0.0
 10
3.4798
 20
0.86006
 30
0.0
 10
3.47274
 20
0.78527
 30
0.0
 10
3.46604
 20
0.71084
 30
0.0
 10
3.46604
 20
0.71084
 30
0.0
 10
3.7906
 20
0.76975
 30
0.0
 10
4.11938
 20
0.75106
 30
0.0
 10
4.44394
 20
0.70343
 30
0.0
 10
4.44394
 20
0.70343
 30
0.0
 10
4.4898
 20
0.86184
 30
0.0
 10
4.5346
 20
1.02093
 30
0.0
 10
4.56988
 20
1.18251
 30
0.0
 10
4.56988
 20
1.18251
 30
0.0
 10
4.12221
 20
1.15005
 30
0.0
 10
3.6777
 20
1.08338
 30
0.0
 10
3.23144
 20
1.03716
 30
0.0
  0
SPLINE
  5
46
330
1F
100
AcDbEntity
  8
Camada 1
 62
   143
100
AcDbSpline
210
0.0
220
0.0
230
1.0
 70
    11
 71
     3
 72
    20
 73
    16
 74
     0
 42
0.0000000001
 43
0.0000000001
 12
1.0
 22
0.0
 32
0.0
 13
1.0
 23
0.0
 33
0.0
 40
0.0
 40
0.0
 40
0.0
 40
0.0
 40
0.2
 40
0.2
 40
0.2
 40
0.2
 40
0.4
 40
0.4
 40
0.4
 40
0.4
 40
0.6
 40
0.6
 40
0.6
 40
0.6
 40
1.0
 40
1.0
 40
1.0
 40
1.0
 10
-4.44641
 20
1.08303
 30
0.0
 10
-4.44641
 20
1.08303
 30
0.0
 10
-4.44641
 20
1.08303
 30
0.0
 10
-4.44641
 20
1.08303
 30
0.0
 10
-4.44641
 20
1.08303
 30
0.0
 10
-4.43301
 20
0.96555
 30
0.0
 10
-4.41501
 20
0.83679
 30
0.0
 10
-4.31095
 20
0.7627
 30
0.0
 10
-4.31095
 20
0.7627
 30
0.0
 10
-4.31375
 20
0.86642
 30
0.0
 10
-4.33317
 20
0.96801
 30
0.0
 10
-4.35856
 20
1.06785
 30
0.0
 10
-4.35856
 20
1.06785
 30
0.0
 10
-4.38043
 20
1.07173
 30
0.0
 10
-4.42419
 20
1.07914
 30
0.0
 10
-4.44641
 20
1.08303
 30
0.0
  0
SPLINE
  5
47
330
1F
100
AcDbEntity
  8
Camada 1
 62
   143
100
AcDbSpline
210
0.0
220
0.0
230
1.0
 70
    11
 71
     3
 72
    28
 73
    24
 74
     0
 42
0.0000000001
 43
0.0000000001
 12
1.0
 22
0.0
 32
0.0
 13
1.0
 23
0.0
 33
0.0
 40
0.0
 40
0.0
 40
0.0
 40
0.0
 40
0.1428571428571428
 40
0.1428571428571428
 40
0.1428571428571428
 40
0.1428571428571428
 40
0.2857142857142857
 40
0.2857142857142857
 40
0.2857142857142857
 40
0.2857142857142857
 40
0.4285714285714285
 40
0.4285714285714285
 40
0.4285714285714285
 40
0.4285714285714285
 40
0.5714285714285714
 40
0.5714285714285714
 40
0.5714285714285714
 40
0.5714285714285714
 40
0.7142857142857143
 40
0.7142857142857143
 40
0.7142857142857143
 40
0.7142857142857143
 40
1.0
 40
1.0
 40
1.0
 40
1.0
 10
-4.1596
 20
1.04705
 30
0.0
 10
-4.1596
 20
1.04705
 30
0.0
 10
-4.1596
 20
1.04705
 30
0.0
 10
-4.1596
 20
1.04705
 30
0.0
 10
-4.1596
 20
1.04705
 30
0.0
 10
-4.14584
 20
0.99377
 30
0.0
 10
-4.13173
 20
0.94014
 30
0.0
 10
-4.11762
 20
0.88618
 30
0.0
 10
-4.11762
 20
0.88618
 30
0.0
 10
-3.85304
 20
0.93591
 30
0.0
 10
-3.58668
 20
0.98777
 30
0.0
 10
-3.31576
 20
0.97649
 30
0.0
 10
-3.31576
 20
0.97649
 30
0.0
 10
-2.97356
 20
0.98
 30
0.0
 10
-2.643
 20
0.88018
 30
0.0
 10
-2.33045
 20
0.74824
 30
0.0
 10
-2.33045
 20
0.74824
 30
0.0
 10
-2.30575
 20
0.80081
 30
0.0
 10
-2.28106
 20
0.85302
 30
0.0
 10
-2.25636
 20
0.90557
 30
0.0
 10
-2.25636
 20
0.90557
 30
0.0
 10
-2.89031
 20
0.95778
 30
0.0
 10
-3.5246
 20
1.00965
 30
0.0
 10
-4.1596
 20
1.04705
 30
0.0
  0
SPLINE
  5
48
330
1F
100
AcDbEntity
  8
Camada 1
 62
   143
100
AcDbSpline
210
0.0
220
0.0
230
1.0
 70
    11
 71
     3
 72
    28
 73
    24
 74
     0
 42
0.0000000001
 43
0.0000000001
 12
1.0
 22
0.0
 32
0.0
 13
1.0
 23
0.0
 33
0.0
 40
0.0
 40
0.0
 40
0.0
 40
0.0
 40
0.1428571428571428
 40
0.1428571428571428
 40
0.1428571428571428
 40
0.1428571428571428
 40
0.2857142857142857
 40
0.2857142857142857
 40
0.2857142857142857
 40
0.2857142857142857
 40
0.4285714285714285
 40
0.4285714285714285
 40
0.4285714285714285
 40
0.4285714285714285
 40
0.5714285714285714
 40
0.5714285714285714
 40
0.5714285714285714
 40
0.5714285714285714
 40
0.7142857142857143
 40
0.7142857142857143
 40
0.7142857142857143
 40
0.7142857142857143
 40
1.0
 40
1.0
 40
1.0
 40
1.0
 10
2.75766
 20
0.03174
 30
0.0
 10
2.75766
 20
0.03174
 30
0.0
 10
2.75766
 20
0.03174
 30
0.0
 10
2.75766
 20
0.03174
 30
0.0
 10
2.75766
 20
0.03174
 30
0.0
 10
2.97885
 20
-0.3884
 30
0.0
 10
3.17782
 20
-0.83431
 30
0.0
 10
3.51472
 20
-1.17792
 30
0.0
 10
3.51472
 20
-1.17792
 30
0.0
 10
3.6135
 20
-1.2774
 30
0.0
 10
3.73238
 20
-1.38041
 30
0.0
 10
3.88301
 20
-1.3663
 30
0.0
 10
3.88301
 20
-1.3663
 30
0.0
 10
3.95887
 20
-1.03187
 30
0.0
 10
4.06188
 20
-0.70484
 30
0.0
 10
4.14655
 20
-0.37253
 30
0.0
 10
4.14655
 20
-0.37253
 30
0.0
 10
4.20933
 20
-0.121
 30
0.0
 10
4.30106
 20
0.12347
 30
0.0
 10
4.34057
 20
0.38064
 30
0.0
 10
4.34057
 20
0.38064
 30
0.0
 10
3.79341
 20
0.49742
 30
0.0
 10
3.2025
 20
0.37324
 30
0.0
 10
2.75766
 20
0.03174
 30
0.0
  0
SPLINE
  5
49
330
1F
100
AcDbEntity
  8
Camada 1
 62
   143
100
AcDbSpline
210
0.0
220
0.0
230
1.0
 70
    11
 71
     3
 72
    72
 73
    68
 74
     0
 42
0.0000000001
 43
0.0000000001
 12
1.0
 22
0.0
 32
0.0
 13
1.0
 23
0.0
 33
0.0
 40
0.0
 40
0.0
 40
0.0
 40
0.0
 40
0.0555555555555556
 40
0.0555555555555556
 40
0.0555555555555556
 40
0.0555555555555556
 40
0.1111111111111111
 40
0.1111111111111111
 40
0.1111111111111111
 40
0.1111111111111111
 40
0.1666666666666667
 40
0.1666666666666667
 40
0.1666666666666667
 40
0.1666666666666667
 40
0.2222222222222222
 40
0.2222222222222222
 40
0.2222222222222222
 40
0.2222222222222222
 40
0.2777777777777778
 40
0.2777777777777778
 40
0.2777777777777778
 40
0.2777777777777778
 40
0.3333333333333333
 40
0.3333333333333333
 40
0.3333333333333333
 40
0.3333333333333333
 40
0.3888888888888889
 40
0.3888888888888889
 40
0.3888888888888889
 40
0.3888888888888889
 40
0.4444444444444444
 40
0.4444444444444444
 40
0.4444444444444444
 40
0.4444444444444444
 40
0.5
 40
0.5
 40
0.5
 40
0.5
 40
0.5555555555555556
 40
0.5555555555555556
 40
0.5555555555555556
 40
0.5555555555555556
 40
0.6111111111111112
 40
0.6111111111111112
 40
0.6111111111111112
 40
0.6111111111111112
 40
0.6666666666666666
 40
0.6666666666666666
 40
0.6666666666666666
 40
0.6666666666666666
 40
0.7222222222222222
 40
0.7222222222222222
 40
0.7222222222222222
 40
0.7222222222222222
 40
0.7777777777777778
 40
0.7777777777777778
 40
0.7777777777777778
 40
0.7777777777777778
 40
0.8333333333333334
 40
0.8333333333333334
 40
0.8333333333333334
 40
0.8333333333333334
 40
0.8888888888888888
 40
0.8888888888888888
 40
0.8888888888888888
 40
0.8888888888888888
 40
1.0
 40
1.0
 40
1.0
 40
1.0
 10
4.53002
 20
0.31679
 30
0.0
 10
4.53002
 20
0.31679
 30
0.0
 10
4.53002
 20
0.31679
 30
0.0
 10
4.53002
 20
0.31679
 30
0.0
 10
4.53002
 20
0.31679
 30
0.0
 10
4.46439
 20
0.06984
 30
0.0
 10
4.39561
 20
-0.17638
 30
0.0
 10
4.33634
 20
-0.42509
 30
0.0
 10
4.33634
 20
-0.42509
 30
0.0
 10
4.40019
 20
-0.3824
 30
0.0
 10
4.46298
 20
-0.33725
 30
0.0
 10
4.53178
 20
-0.30232
 30
0.0
 10
4.53178
 20
-0.30232
 30
0.0
 10
4.6302
 20
-0.24906
 30
0.0
 10
4.74556
 20
-0.26317
 30
0.0
 10
4.85352
 20
-0.25646
 30
0.0
 10
4.85352
 20
-0.25646
 30
0.0
 10
4.87539
 20
-0.44484
 30
0.0
 10
4.91137
 20
-0.67098
 30
0.0
 10
4.78225
 20
-0.82902
 30
0.0
 10
4.78225
 20
-0.82902
 30
0.0
 10
4.67325
 20
-0.83114
 30
0.0
 10
4.56917
 20
-0.78139
 30
0.0
 10
4.46051
 20
-0.79199
 30
0.0
 10
4.46051
 20
-0.79199
 30
0.0
 10
4.35468
 20
-0.85831
 30
0.0
 10
4.26402
 20
-0.94721
 30
0.0
 10
4.18217
 20
-1.04104
 30
0.0
 10
4.18217
 20
-1.04104
 30
0.0
 10
4.07916
 20
-1.19027
 30
0.0
 10
4.07387
 20
-1.37936
 30
0.0
 10
4.07599
 20
-1.55434
 30
0.0
 10
4.07599
 20
-1.55434
 30
0.0
 10
4.08727
 20
-1.64535
 30
0.0
 10
3.97544
 20
-1.66475
 30
0.0
 10
3.90877
 20
-1.67993
 30
0.0
 10
3.90877
 20
-1.67993
 30
0.0
 10
3.36656
 20
-1.77236
 30
0.0
 10
2.82539
 20
-1.87359
 30
0.0
 10
2.28318
 20
-1.96673
 30
0.0
 10
2.28318
 20
-1.96673
 30
0.0
 10
2.21509
 20
-1.97943
 30
0.0
 10
2.14665
 20
-1.99319
 30
0.0
 10
2.08138
 20
-2.01719
 30
0.0
 10
2.08138
 20
-2.01719
 30
0.0
 10
2.0902
 20
-2.12901
 30
0.0
 10
2.13395
 20
-2.23378
 30
0.0
 10
2.18298
 20
-2.33327
 30
0.0
 10
2.18298
 20
-2.33327
 30
0.0
 10
2.44333
 20
-2.88642
 30
0.0
 10
2.98484
 20
-3.29952
 30
0.0
 10
3.5888
 20
-3.39831
 30
0.0
 10
3.5888
 20
-3.39831
 30
0.0
 10
3.90243
 20
-3.45827
 30
0.0
 10
4.22875
 20
-3.43181
 30
0.0
 10
4.53107
 20
-3.33092
 30
0.0
 10
4.53107
 20
-3.33092
 30
0.0
 10
5.09905
 20
-3.14713
 30
0.0
 10
5.56083
 20
-2.67794
 30
0.0
 10
5.75098
 20
-2.11349
 30
0.0
 10
5.75098
 20
-2.11349
 30
0.0
 10
5.93724
 20
-1.56774
 30
0.0
 10
5.85611
 20
-0.94051
 30
0.0
 10
5.54107
 20
-0.4579
 30
0.0
 10
5.54107
 20
-0.4579
 30
0.0
 10
5.30153
 20
-0.09947
 30
0.0
 10
4.94841
 20
0.19649
 30
0.0
 10
4.53002
 20
0.31679
 30
0.0
  0
SPLINE
  5
4A
330
1F
100
AcDbEntity
  8
Camada 1
 62
   143
100
AcDbSpline
210
0.0
220
0.0
230
1.0
 70
    11
 71
     3
 72
    28
 73
    24
 74
     0
 42
0.0000000001
 43
0.0000000001
 12
1.0
 22
0.0
 32
0.0
 13
1.0
 23
0.0
 33
0.0
 40
0.0
 40
0.0
 40
0.0
 40
0.0
 40
0.1428571428571428
 40
0.1428571428571428
 40
0.1428571428571428
 40
0.1428571428571428
 40
0.2857142857142857
 40
0.2857142857142857
 40
0.2857142857142857
 40
0.2857142857142857
 40
0.4285714285714285
 40
0.4285714285714285
 40
0.4285714285714285
 40
0.4285714285714285
 40
0.5714285714285714
 40
0.5714285714285714
 40
0.5714285714285714
 40
0.5714285714285714
 40
0.7142857142857143
 40
0.7142857142857143
 40
0.7142857142857143
 40
0.7142857142857143
 40
1.0
 40
1.0
 40
1.0
 40
1.0
 10
-4.197
 20
0.23812
 30
0.0
 10
-4.197
 20
0.23812
 30
0.0
 10
-4.197
 20
0.23812
 30
0.0
 10
-4.197
 20
0.23812
 30
0.0
 10
-4.197
 20
0.23812
 30
0.0
 10
-4.09963
 20
-0.13616
 30
0.0
 10
-3.97262
 20
-0.50165
 30
0.0
 10
-3.86785
 20
-0.87383
 30
0.0
 10
-3.86785
 20
-0.87383
 30
0.0
 10
-3.8347
 20
-0.9839
 30
0.0
 10
-3.81282
 20
-1.10878
 30
0.0
 10
-3.71122
 20
-1.17863
 30
0.0
 10
-3.71122
 20
-1.17863
 30
0.0
 10
-3.71228
 20
-0.97895
 30
0.0
 10
-3.79659
 20
-0.79516
 30
0.0
 10
-3.85197
 20
-0.60713
 30
0.0
 10
-3.85197
 20
-0.60713
 30
0.0
 10
-3.94088
 20
-0.33126
 30
0.0
 10
-4.01355
 20
-0.05009
 30
0.0
 10
-4.11621
 20
0.22083
 30
0.0
 10
-4.11621
 20
0.22083
 30
0.0
 10
-4.13666
 20
0.22506
 30
0.0
 10
-4.17688
 20
0.23388
 30
0.0
 10
-4.197
 20
0.23812
 30
0.0
  0
SPLINE
  5
4B
330
1F
100
AcDbEntity
  8
Camada 1
 62
   143
100
AcDbSpline
210
0.0
220
0.0
230
1.0
 70
    11
 71
     3
 72
    20
 73
    16
 74
     0
 42
0.0000000001
 43
0.0000000001
 12
1.0
 22
0.0
 32
0.0
 13
1.0
 23
0.0
 33
0.0
 40
0.0
 40
0.0
 40
0.0
 40
0.0
 40
0.2
 40
0.2
 40
0.2
 40
0.2
 40
0.4
 40
0.4
 40
0.4
 40
0.4
 40
0.6
 40
0.6
 40
0.6
 40
0.6
 40
1.0
 40
1.0
 40
1.0
 40
1.0
 10
-5.13221
 20
-0.70343
 30
0.0
 10
-5.13221
 20
-0.70343
 30
0.0
 10
-5.13221
 20
-0.70343
 30
0.0
 10
-5.13221
 20
-0.70343
 30
0.0
 10
-5.13221
 20
-0.70343
 30
0.0
 10
-4.74732
 20
-0.88229
 30
0.0
 10
-4.36033
 20
-1.06079
 30
0.0
 10
-3.96134
 20
-1.20543
 30
0.0
 10
-3.96134
 20
-1.20543
 30
0.0
 10
-4.09609
 20
-0.75423
 30
0.0
 10
-4.23509
 20
-0.30444
 30
0.0
 10
-4.37797
 20
0.14427
 30
0.0
 10
-4.37797
 20
0.14427
 30
0.0
 10
-4.70605
 20
-0.05574
 30
0.0
 10
-4.97557
 20
-0.35136
 30
0.0
 10
-5.13221
 20
-0.70343
 30
0.0
  0
SPLINE
  5
4C
330
1F
100
AcDbEntity
  8
Camada 1
 62
   143
100
AcDbSpline
210
0.0
220
0.0
230
1.0
 70
    11
 71
     3
 72
    24
 73
    20
 74
     0
 42
0.0000000001
 43
0.0000000001
 12
1.0
 22
0.0
 32
0.0
 13
1.0
 23
0.0
 33
0.0
 40
0.0
 40
0.0
 40
0.0
 40
0.0
 40
0.1666666666666667
 40
0.1666666666666667
 40
0.1666666666666667
 40
0.1666666666666667
 40
0.3333333333333333
 40
0.3333333333333333
 40
0.3333333333333333
 40
0.3333333333333333
 40
0.5
 40
0.5
 40
0.5
 40
0.5
 40
0.6666666666666666
 40
0.6666666666666666
 40
0.6666666666666666
 40
0.6666666666666666
 40
1.0
 40
1.0
 40
1.0
 40
1.0
 10
-3.81
 20
-0.06702
 30
0.0
 10
-3.81
 20
-0.06702
 30
0.0
 10
-3.81
 20
-0.06702
 30
0.0
 10
-3.81
 20
-0.06702
 30
0.0
 10
-3.81
 20
-0.06702
 30
0.0
 10
-3.72674
 20
-0.42298
 30
0.0
 10
-3.59867
 20
-0.76624
 30
0.0
 10
-3.49744
 20
-1.11724
 30
0.0
 10
-3.49744
 20
-1.11724
 30
0.0
 10
-3.42864
 20
-1.11019
 30
0.0
 10
-3.35845
 20
-1.10983
 30
0.0
 10
-3.2914
 20
-1.09044
 30
0.0
 10
-3.2914
 20
-1.09044
 30
0.0
 10
-3.19229
 20
-0.96731
 30
0.0
 10
-3.14042
 20
-0.81526
 30
0.0
 10
-3.07128
 20
-0.67522
 30
0.0
 10
-3.07128
 20
-0.67522
 30
0.0
 10
-3.31786
 20
-0.47271
 30
0.0
 10
-3.54894
 20
-0.25082
 30
0.0
 10
-3.81
 20
-0.06702
 30
0.0
  0
SPLINE
  5
4D
330
1F
100
AcDbEntity
  8
Camada 1
 62
   143
100
AcDbSpline
210
0.0
220
0.0
230
1.0
 70
    11
 71
     3
 72
    32
 73
    28
 74
     0
 42
0.0000000001
 43
0.0000000001
 12
1.0
 22
0.0
 32
0.0
 13
1.0
 23
0.0
 33
0.0
 40
0.0
 40
0.0
 40
0.0
 40
0.0
 40
0.125
 40
0.125
 40
0.125
 40
0.125
 40
0.25
 40
0.25
 40
0.25
 40
0.25
 40
0.375
 40
0.375
 40
0.375
 40
0.375
 40
0.5
 40
0.5
 40
0.5
 40
0.5
 40
0.625
 40
0.625
 40
0.625
 40
0.625
 40
0.75
 40
0.75
 40
0.75
 40
0.75
 40
1.0
 40
1.0
 40
1.0
 40
1.0
 10
2.49943
 20
-0.2046
 30
0.0
 10
2.49943
 20
-0.2046
 30
0.0
 10
2.49943
 20
-0.2046
 30
0.0
 10
2.49943
 20
-0.2046
 30
0.0
 10
2.49943
 20
-0.2046
 30
0.0
 10
2.11208
 20
-0.62052
 30
0.0
 10
1.93569
 20
-1.20967
 30
0.0
 10
2.00659
 20
-1.77165
 30
0.0
 10
2.00659
 20
-1.77165
 30
0.0
 10
2.27436
 20
-1.7212
 30
0.0
 10
2.53259
 20
-1.63442
 30
0.0
 10
2.79505
 20
-1.5635
 30
0.0
 10
2.79505
 20
-1.5635
 30
0.0
 10
2.99154
 20
-1.512
 30
0.0
 10
3.18876
 20
-1.46227
 30
0.0
 10
3.37889
 20
-1.38994
 30
0.0
 10
3.37889
 20
-1.38994
 30
0.0
 10
3.19298
 20
-1.18321
 30
0.0
 10
3.01941
 20
-0.96343
 30
0.0
 10
2.88607
 20
-0.71825
 30
0.0
 10
2.88607
 20
-0.71825
 30
0.0
 10
2.77883
 20
-0.53657
 30
0.0
 10
2.69662
 20
-0.34149
 30
0.0
 10
2.58903
 20
-0.16016
 30
0.0
 10
2.58903
 20
-0.16016
 30
0.0
 10
2.54952
 20
-0.1471
 30
0.0
 10
2.52377
 20
-0.17992
 30
0.0
 10
2.49943
 20
-0.2046
 30
0.0
  0
SPLINE
  5
4E
330
1F
100
AcDbEntity
  8
Camada 1
 62
   143
100
AcDbSpline
210
0.0
220
0.0
230
1.0
 70
    11
 71
     3
 72
    28
 73
    24
 74
     0
 42
0.0000000001
 43
0.0000000001
 12
1.0
 22
0.0
 32
0.0
 13
1.0
 23
0.0
 33
0.0
 40
0.0
 40
0.0
 40
0.0
 40
0.0
 40
0.1428571428571428
 40
0.1428571428571428
 40
0.1428571428571428
 40
0.1428571428571428
 40
0.2857142857142857
 40
0.2857142857142857
 40
0.2857142857142857
 40
0.2857142857142857
 40
0.4285714285714285
 40
0.4285714285714285
 40
0.4285714285714285
 40
0.4285714285714285
 40
0.5714285714285714
 40
0.5714285714285714
 40
0.5714285714285714
 40
0.5714285714285714
 40
0.7142857142857143
 40
0.7142857142857143
 40
0.7142857142857143
 40
0.7142857142857143
 40
1.0
 40
1.0
 40
1.0
 40
1.0
 10
0.01235
 20
-0.89712
 30
0.0
 10
0.01235
 20
-0.89712
 30
0.0
 10
0.01235
 20
-0.89712
 30
0.0
 10
0.01235
 20
-0.89712
 30
0.0
 10
0.01235
 20
-0.89712
 30
0.0
 10
-0.17073
 20
-0.96767
 30
0.0
 10
-0.3623
 20
-1.01318
 30
0.0
 10
-0.54609
 20
-1.08091
 30
0.0
 10
-0.54609
 20
-1.08091
 30
0.0
 10
-0.50977
 20
-1.1109
 30
0.0
 10
-0.47378
 20
-1.15076
 30
0.0
 10
-0.42121
 20
-1.14511
 30
0.0
 10
-0.42121
 20
-1.14511
 30
0.0
 10
-0.25858
 20
-1.1504
 30
0.0
 10
-0.09525
 20
-1.15534
 30
0.0
 10
0.06456
 20
-1.18991
 30
0.0
 10
0.06456
 20
-1.18991
 30
0.0
 10
0.25259
 20
-0.99236
 30
0.0
 10
0.44272
 20
-0.79657
 30
0.0
 10
0.63041
 20
-0.59901
 30
0.0
 10
0.63041
 20
-0.59901
 30
0.0
 10
0.43039
 20
-0.70979
 30
0.0
 10
0.22754
 20
-0.81808
 30
0.0
 10
0.01235
 20
-0.89712
 30
0.0
  0
SPLINE
  5
4F
330
1F
100
AcDbEntity
  8
Camada 1
 62
   143
100
AcDbSpline
210
0.0
220
0.0
230
1.0
 70
    11
 71
     3
 72
    28
 73
    24
 74
     0
 42
0.0000000001
 43
0.0000000001
 12
1.0
 22
0.0
 32
0.0
 13
1.0
 23
0.0
 33
0.0
 40
0.0
 40
0.0
 40
0.0
 40
0.0
 40
0.1428571428571428
 40
0.1428571428571428
 40
0.1428571428571428
 40
0.1428571428571428
 40
0.2857142857142857
 40
0.2857142857142857
 40
0.2857142857142857
 40
0.2857142857142857
 40
0.4285714285714285
 40
0.4285714285714285
 40
0.4285714285714285
 40
0.4285714285714285
 40
0.5714285714285714
 40
0.5714285714285714
 40
0.5714285714285714
 40
0.5714285714285714
 40
0.7142857142857143
 40
0.7142857142857143
 40
0.7142857142857143
 40
0.7142857142857143
 40
1.0
 40
1.0
 40
1.0
 40
1.0
 10
-3.06846
 20
-1.10912
 30
0.0
 10
-3.06846
 20
-1.10912
 30
0.0
 10
-3.06846
 20
-1.10912
 30
0.0
 10
-3.06846
 20
-1.10912
 30
0.0
 10
-3.06846
 20
-1.10912
 30
0.0
 10
-2.54387
 20
-1.10808
 30
0.0
 10
-2.01894
 20
-1.11653
 30
0.0
 10
-1.49436
 20
-1.11972
 30
0.0
 10
-1.49436
 20
-1.11972
 30
0.0
 10
-1.50988
 20
-1.05127
 30
0.0
 10
-1.524
 20
-0.98142
 30
0.0
 10
-1.55539
 20
-0.91792
 30
0.0
 10
-1.55539
 20
-0.91792
 30
0.0
 10
-1.69016
 20
-0.88123
 30
0.0
 10
-1.8302
 20
-0.87029
 30
0.0
 10
-1.96778
 20
-0.84771
 30
0.0
 10
-1.96778
 20
-0.84771
 30
0.0
 10
-2.26518
 20
-0.81138
 30
0.0
 10
-2.55869
 20
-0.73837
 30
0.0
 10
-2.85784
 20
-0.72178
 30
0.0
 10
-2.85784
 20
-0.72178
 30
0.0
 10
-2.95098
 20
-0.83679
 30
0.0
 10
-3.0046
 20
-0.97683
 30
0.0
 10
-3.06846
 20
-1.10912
 30
0.0
  0
SPLINE
  5
50
330
1F
100
AcDbEntity
  8
Camada 1
 62
   143
100
AcDbSpline
210
0.0
220
0.0
230
1.0
 70
    11
 71
     3
 72
    16
 73
    12
 74
     0
 42
0.0000000001
 43
0.0000000001
 12
1.0
 22
0.0
 32
0.0
 13
1.0
 23
0.0
 33
0.0
 40
0.0
 40
0.0
 40
0.0
 40
0.0
 40
0.25
 40
0.25
 40
0.25
 40
0.25
 40
0.5
 40
0.5
 40
0.5
 40
0.5
 40
1.0
 40
1.0
 40
1.0
 40
1.0
 10
-0.98354
 20
-0.77364
 30
0.0
 10
-0.98354
 20
-0.77364
 30
0.0
 10
-0.98354
 20
-0.77364
 30
0.0
 10
-0.98354
 20
-0.77364
 30
0.0
 10
-0.98354
 20
-0.77364
 30
0.0
 10
-0.95919
 20
-0.90416
 30
0.0
 10
-0.99484
 20
-1.11407
 30
0.0
 10
-0.82196
 20
-1.1444
 30
0.0
 10
-0.82196
 20
-1.1444
 30
0.0
 10
-0.86713
 20
-1.01706
 30
0.0
 10
-0.92287
 20
-0.89393
 30
0.0
 10
-0.98354
 20
-0.77364
 30
0.0
  0
SPLINE
  5
51
330
1F
100
AcDbEntity
  8
Camada 1
 62
   143
100
AcDbSpline
210
0.0
220
0.0
230
1.0
 70
    11
 71
     3
 72
    44
 73
    40
 74
     0
 42
0.0000000001
 43
0.0000000001
 12
1.0
 22
0.0
 32
0.0
 13
1.0
 23
0.0
 33
0.0
 40
0.0
 40
0.0
 40
0.0
 40
0.0
 40
0.0909090909090909
 40
0.0909090909090909
 40
0.0909090909090909
 40
0.0909090909090909
 40
0.1818181818181818
 40
0.1818181818181818
 40
0.1818181818181818
 40
0.1818181818181818
 40
0.2727272727272727
 40
0.2727272727272727
 40
0.2727272727272727
 40
0.2727272727272727
 40
0.3636363636363636
 40
0.3636363636363636
 40
0.3636363636363636
 40
0.3636363636363636
 40
0.4545454545454545
 40
0.4545454545454545
 40
0.4545454545454545
 40
0.4545454545454545
 40
0.5454545454545454
 40
0.5454545454545454
 40
0.5454545454545454
 40
0.5454545454545454
 40
0.6363636363636364
 40
0.6363636363636364
 40
0.6363636363636364
 40
0.6363636363636364
 40
0.7272727272727273
 40
0.7272727272727273
 40
0.7272727272727273
 40
0.7272727272727273
 40
0.8181818181818182
 40
0.8181818181818182
 40
0.8181818181818182
 40
0.8181818181818182
 40
1.0
 40
1.0
 40
1.0
 40
1.0
 10
-5.27578
 20
-1.14723
 30
0.0
 10
-5.27578
 20
-1.14723
 30
0.0
 10
-5.27578
 20
-1.14723
 30
0.0
 10
-5.27578
 20
-1.14723
 30
0.0
 10
-5.27578
 20
-1.14723
 30
0.0
 10
-5.3908
 20
-1.72895
 30
0.0
 10
-5.21124
 20
-2.35937
 30
0.0
 10
-4.80694
 20
-2.7933
 30
0.0
 10
-4.80694
 20
-2.7933
 30
0.0
 10
-4.4217
 20
-3.23179
 30
0.0
 10
-3.82481
 20
-3.46957
 30
0.0
 10
-3.24379
 20
-3.42547
 30
0.0
 10
-3.24379
 20
-3.42547
 30
0.0
 10
-2.80034
 20
-3.39019
 30
0.0
 10
-2.36643
 20
-3.20357
 30
0.0
 10
-2.04752
 20
-2.89136
 30
0.0
 10
-2.04752
 20
-2.89136
 30
0.0
 10
-1.88241
 20
-2.72767
 30
0.0
 10
-1.72614
 20
-2.54458
 30
0.0
 10
-1.6524
 20
-2.32056
 30
0.0
 10
-1.6524
 20
-2.32056
 30
0.0
 10
-2.26201
 20
-2.20239
 30
0.0
 10
-2.8649
 20
-2.05105
 30
0.0
 10
-3.47132
 20
-1.91664
 30
0.0
 10
-3.47132
 20
-1.91664
 30
0.0
 10
-3.62584
 20
-1.8817
 30
0.0
 10
-3.79377
 20
-1.83973
 30
0.0
 10
-3.90102
 20
-1.71379
 30
0.0
 10
-3.90102
 20
-1.71379
 30
0.0
 10
-3.97333
 20
-1.63264
 30
0.0
 10
-3.96804
 20
-1.51729
 30
0.0
 10
-3.98073
 20
-1.41639
 30
0.0
 10
-3.98073
 20
-1.41639
 30
0.0
 10
-4.38572
 20
-1.25201
 30
0.0
 10
-4.78013
 20
-1.06115
 30
0.0
 10
-5.18759
 20
-0.90275
 30
0.0
 10
-5.18759
 20
-0.90275
 30
0.0
 10
-5.25144
 20
-0.96485
 30
0.0
 10
-5.25392
 20
-1.06503
 30
0.0
 10
-5.27578
 20
-1.14723
 30
0.0
  0
SPLINE
  5
52
330
1F
100
AcDbEntity
  8
Camada 1
 62
   143
100
AcDbSpline
210
0.0
220
0.0
230
1.0
 70
    11
 71
     3
 72
    48
 73
    44
 74
     0
 42
0.0000000001
 43
0.0000000001
 12
1.0
 22
0.0
 32
0.0
 13
1.0
 23
0.0
 33
0.0
 40
0.0
 40
0.0
 40
0.0
 40
0.0
 40
0.0833333333333333
 40
0.0833333333333333
 40
0.0833333333333333
 40
0.0833333333333333
 40
0.1666666666666667
 40
0.1666666666666667
 40
0.1666666666666667
 40
0.1666666666666667
 40
0.25
 40
0.25
 40
0.25
 40
0.25
 40
0.3333333333333333
 40
0.3333333333333333
 40
0.3333333333333333
 40
0.3333333333333333
 40
0.4166666666666667
 40
0.4166666666666667
 40
0.4166666666666667
 40
0.4166666666666667
 40
0.5
 40
0.5
 40
0.5
 40
0.5
 40
0.5833333333333334
 40
0.5833333333333334
 40
0.5833333333333334
 40
0.5833333333333334
 40
0.6666666666666666
 40
0.6666666666666666
 40
0.6666666666666666
 40
0.6666666666666666
 40
0.75
 40
0.75
 40
0.75
 40
0.75
 40
0.8333333333333334
 40
0.8333333333333334
 40
0.8333333333333334
 40
0.8333333333333334
 40
1.0
 40
1.0
 40
1.0
 40
1.0
 10
-3.37149
 20
-1.21673
 30
0.0
 10
-3.37149
 20
-1.21673
 30
0.0
 10
-3.37149
 20
-1.21673
 30
0.0
 10
-3.37149
 20
-1.21673
 30
0.0
 10
-3.37149
 20
-1.21673
 30
0.0
 10
-3.49956
 20
-1.22307
 30
0.0
 10
-3.63607
 20
-1.22907
 30
0.0
 10
-3.74896
 20
-1.29645
 30
0.0
 10
-3.74896
 20
-1.29645
 30
0.0
 10
-3.86608
 20
-1.36277
 30
0.0
 10
-3.88338
 20
-1.54657
 30
0.0
 10
-3.78566
 20
-1.63688
 30
0.0
 10
-3.78566
 20
-1.63688
 30
0.0
 10
-3.69851
 20
-1.71767
 30
0.0
 10
-3.57857
 20
-1.7459
 30
0.0
 10
-3.46674
 20
-1.77482
 30
0.0
 10
-3.46674
 20
-1.77482
 30
0.0
 10
-2.87338
 20
-1.90782
 30
0.0
 10
-2.28564
 20
-2.06587
 30
0.0
 10
-1.68804
 20
-2.18052
 30
0.0
 10
-1.68804
 20
-2.18052
 30
0.0
 10
-1.36102
 20
-2.24155
 30
0.0
 10
-1.03786
 20
-2.32833
 30
0.0
 10
-0.70555
 20
-2.35866
 30
0.0
 10
-0.70555
 20
-2.35866
 30
0.0
 10
-0.48577
 20
-2.37771
 30
0.0
 10
-0.25752
 20
-2.41969
 30
0.0
 10
-0.04092
 20
-2.35654
 30
0.0
 10
-0.04092
 20
-2.35654
 30
0.0
 10
0.10337
 20
-2.31598
 30
0.0
 10
0.2159
 20
-2.19004
 30
0.0
 10
0.24236
 20
-2.04328
 30
0.0
 10
0.24236
 20
-2.04328
 30
0.0
 10
0.28751
 20
-1.83832
 30
0.0
 10
0.26423
 20
-1.59666
 30
0.0
 10
0.1143
 20
-1.43862
 30
0.0
 10
0.1143
 20
-1.43862
 30
0.0
 10
-0.05362
 20
-1.29998
 30
0.0
 10
-0.28222
 20
-1.27316
 30
0.0
 10
-0.49247
 20
-1.27105
 30
0.0
 10
-0.49247
 20
-1.27105
 30
0.0
 10
-1.45238
 20
-1.27175
 30
0.0
 10
-2.41194
 20
-1.24142
 30
0.0
 10
-3.37149
 20
-1.21673
 30
0.0
  0
SPLINE
  5
53
330
1F
100
AcDbEntity
  8
Camada 1
 62
   145
100
AcDbSpline
210
0.0
220
0.0
230
1.0
 70
    11
 71
     3
 72
    40
 73
    36
 74
     0
 42
0.0000000001
 43
0.0000000001
 12
1.0
 22
0.0
 32
0.0
 13
1.0
 23
0.0
 33
0.0
 40
0.0
 40
0.0
 40
0.0
 40
0.0
 40
0.1
 40
0.1
 40
0.1
 40
0.1
 40
0.2
 40
0.2
 40
0.2
 40
0.2
 40
0.3
 40
0.3
 40
0.3
 40
0.3
 40
0.4
 40
0.4
 40
0.4
 40
0.4
 40
0.5
 40
0.5
 40
0.5
 40
0.5
 40
0.6
 40
0.6
 40
0.6
 40
0.6
 40
0.7
 40
0.7
 40
0.7
 40
0.7
 40
0.8
 40
0.8
 40
0.8
 40
0.8
 40
1.0
 40
1.0
 40
1.0
 40
1.0
 10
4.26649
 20
2.73261
 30
0.0
 10
4.37232
 20
2.73861
 30
0.0
 10
4.53107
 20
2.82151
 30
0.0
 10
4.59281
 20
2.69098
 30
0.0
 10
4.59281
 20
2.69098
 30
0.0
 10
4.66302
 20
2.49132
 30
0.0
 10
4.64996
 20
2.27471
 30
0.0
 10
4.67606
 20
2.06691
 30
0.0
 10
4.67606
 20
2.06691
 30
0.0
 10
4.69229
 20
1.84009
 30
0.0
 10
4.72369
 20
1.6143
 30
0.0
 10
4.73499
 20
1.38711
 30
0.0
 10
4.73499
 20
1.38711
 30
0.0
 10
4.27177
 20
1.35819
 30
0.0
 10
3.81528
 20
1.2707
 30
0.0
 10
3.3535
 20
1.22872
 30
0.0
 10
3.3535
 20
1.22872
 30
0.0
 10
3.12807
 20
1.20967
 30
0.0
 10
2.90547
 20
1.16311
 30
0.0
 10
2.67899
 20
1.15958
 30
0.0
 10
2.67899
 20
1.15958
 30
0.0
 10
2.59749
 20
1.15675
 30
0.0
 10
2.49943
 20
1.17897
 30
0.0
 10
2.4645
 20
1.26188
 30
0.0
 10
2.4645
 20
1.26188
 30
0.0
 10
2.42569
 20
1.36102
 30
0.0
 10
2.42252
 20
1.46861
 30
0.0
 10
2.41335
 20
1.57339
 30
0.0
 10
2.41335
 20
1.57339
 30
0.0
 10
2.39606
 20
1.88911
 30
0.0
 10
2.33432
 20
2.20169
 30
0.0
 10
2.3389
 20
2.51882
 30
0.0
 10
2.3389
 20
2.51882
 30
0.0
 10
2.97814
 20
2.61691
 30
0.0
 10
3.62513
 20
2.65219
 30
0.0
 10
4.26649
 20
2.73261
 30
0.0
  0
SPLINE
  5
54
330
1F
100
AcDbEntity
  8
Camada 1
 62
   145
100
AcDbSpline
210
0.0
220
0.0
230
1.0
 70
    11
 71
     3
 72
    44
 73
    40
 74
     0
 42
0.0000000001
 43
0.0000000001
 12
1.0
 22
0.0
 32
0.0
 13
1.0
 23
0.0
 33
0.0
 40
0.0
 40
0.0
 40
0.0
 40
0.0
 40
0.0909090909090909
 40
0.0909090909090909
 40
0.0909090909090909
 40
0.0909090909090909
 40
0.1818181818181818
 40
0.1818181818181818
 40
0.1818181818181818
 40
0.1818181818181818
 40
0.2727272727272727
 40
0.2727272727272727
 40
0.2727272727272727
 40
0.2727272727272727
 40
0.3636363636363636
 40
0.3636363636363636
 40
0.3636363636363636
 40
0.3636363636363636
 40
0.4545454545454545
 40
0.4545454545454545
 40
0.4545454545454545
 40
0.4545454545454545
 40
0.5454545454545454
 40
0.5454545454545454
 40
0.5454545454545454
 40
0.5454545454545454
 40
0.6363636363636364
 40
0.6363636363636364
 40
0.6363636363636364
 40
0.6363636363636364
 40
0.7272727272727273
 40
0.7272727272727273
 40
0.7272727272727273
 40
0.7272727272727273
 40
0.8181818181818182
 40
0.8181818181818182
 40
0.8181818181818182
 40
0.8181818181818182
 40
1.0
 40
1.0
 40
1.0
 40
1.0
 10
-3.37149
 20
-1.21673
 30
0.0
 10
-2.41194
 20
-1.24142
 30
0.0
 10
-1.45238
 20
-1.27175
 30
0.0
 10
-0.49247
 20
-1.27105
 30
0.0
 10
-0.49247
 20
-1.27105
 30
0.0
 10
-0.28222
 20
-1.27316
 30
0.0
 10
-0.05362
 20
-1.29998
 30
0.0
 10
0.1143
 20
-1.43862
 30
0.0
 10
0.1143
 20
-1.43862
 30
0.0
 10
0.26423
 20
-1.59666
 30
0.0
 10
0.28751
 20
-1.83832
 30
0.0
 10
0.24236
 20
-2.04328
 30
0.0
 10
0.24236
 20
-2.04328
 30
0.0
 10
0.2159
 20
-2.19004
 30
0.0
 10
0.10337
 20
-2.31598
 30
0.0
 10
-0.04092
 20
-2.35654
 30
0.0
 10
-0.04092
 20
-2.35654
 30
0.0
 10
-0.25752
 20
-2.41969
 30
0.0
 10
-0.48577
 20
-2.37771
 30
0.0
 10
-0.70555
 20
-2.35866
 30
0.0
 10
-0.70555
 20
-2.35866
 30
0.0
 10
-1.03786
 20
-2.32833
 30
0.0
 10
-1.36102
 20
-2.24155
 30
0.0
 10
-1.68804
 20
-2.18052
 30
0.0
 10
-1.68804
 20
-2.18052
 30
0.0
 10
-2.28564
 20
-2.06587
 30
0.0
 10
-2.87338
 20
-1.90782
 30
0.0
 10
-3.46674
 20
-1.77482
 30
0.0
 10
-3.46674
 20
-1.77482
 30
0.0
 10
-3.57857
 20
-1.7459
 30
0.0
 10
-3.69851
 20
-1.71767
 30
0.0
 10
-3.78566
 20
-1.63688
 30
0.0
 10
-3.78566
 20
-1.63688
 30
0.0
 10
-3.88338
 20
-1.54657
 30
0.0
 10
-3.86608
 20
-1.36277
 30
0.0
 10
-3.74896
 20
-1.29645
 30
0.0
 10
-3.74896
 20
-1.29645
 30
0.0
 10
-3.63607
 20
-1.22907
 30
0.0
 10
-3.49956
 20
-1.22307
 30
0.0
 10
-3.37149
 20
-1.21673
 30
0.0
  0
ENDSEC
  0
SECTION
  2
OBJECTS
  0
DICTIONARY
  5
C
330
0
100
AcDbDictionary
281
     1
  3
ACAD_GROUP
350
D
  3
ACAD_LAYOUT
350
1A
  3
ACAD_MATERIAL
350
3B
  3
ACAD_MLEADERSTYLE
350
76
  3
ACAD_MLINESTYLE
350
17
  3
ACAD_PLOTSETTINGS
350
19
  3
ACAD_PLOTSTYLENAME
350
E
  3
ACAD_TABLESTYLE
350
75
  3
ACAD_VISUALSTYLE
350
2A
  0
DICTIONARY
  5
D
102
{ACAD_REACTORS
330
C
102
}
330
C
100
AcDbDictionary
281
     1
  0
DICTIONARY
  5
1A
102
{ACAD_REACTORS
330
C
102
}
330
C
100
AcDbDictionary
281
     1
  3
Layout1
350
1E
  3
Layout2
350
26
  3
Model
350
22
  0
DICTIONARY
  5
3B
102
{ACAD_REACTORS
330
C
102
}
330
C
100
AcDbDictionary
281
     1
  3
ByBlock
350
3D
  3
ByLayer
350
3C
  3
Global
350
3E
  0
DICTIONARY
  5
76
102
{ACAD_REACTORS
330
C
102
}
330
C
100
AcDbDictionary
281
     1
  0
DICTIONARY
  5
17
102
{ACAD_REACTORS
330
C
102
}
330
C
100
AcDbDictionary
281
     1
  3
Standard
350
18
  0
DICTIONARY
  5
19
102
{ACAD_REACTORS
330
C
102
}
330
C
100
AcDbDictionary
281
     1
  0
ACDBDICTIONARYWDFLT
  5
E
102
{ACAD_REACTORS
330
C
102
}
330
C
100
AcDbDictionary
281
     1
  3
Normal
350
F
100
AcDbDictionaryWithDefault
340
F
  0
DICTIONARY
  5
75
102
{ACAD_REACTORS
330
C
102
}
330
C
100
AcDbDictionary
281
     1
  0
DICTIONARY
  5
2A
102
{ACAD_REACTORS
330
C
102
}
330
C
100
AcDbDictionary
281
     1
  3
2dWireframe
350
2F
  3
3D Hidden
350
31
  3
3dWireframe
350
30
  3
Basic
350
32
  3
Brighten
350
36
  3
ColorChange
350
3A
  3
Conceptual
350
34
  3
Dim
350
35
  3
Facepattern
350
39
  3
Flat
350
2B
  3
FlatWithEdges
350
2C
  3
Gouraud
350
2D
  3
GouraudWithEdges
350
2E
  3
Linepattern
350
38
  3
Realistic
350
33
  3
Thicken
350
37
  0
LAYOUT
  5
1E
102
{ACAD_REACTORS
330
1A
102
}
330
1A
100
AcDbPlotSettings
  1

  2
none_device
  4

  6

 40
0.0
 41
0.0
 42
0.0
 43
0.0
 44
0.0
 45
0.0
 46
0.0
 47
0.0
 48
0.0
 49
0.0
140
0.0
141
0.0
142
1.0
143
1.0
 70
   688
 72
     0
 73
     0
 74
     5
  7

 75
    16
 76
     0
 77
     2
 78
   300
147
1.0
148
0.0
149
0.0
100
AcDbLayout
  1
Layout1
 70
     1
 71
     1
 10
0.0
 20
0.0
 11
12.0
 21
9.0
 12
0.0
 22
0.0
 32
0.0
 14
1.000000000000000E+20
 24
1.000000000000000E+20
 34
1.000000000000000E+20
 15
-1.000000000000000E+20
 25
-1.000000000000000E+20
 35
-1.000000000000000E+20
146
0.0
 13
0.0
 23
0.0
 33
0.0
 16
1.0
 26
0.0
 36
0.0
 17
0.0
 27
1.0
 37
0.0
 76
     0
330
1B
  0
LAYOUT
  5
26
102
{ACAD_REACTORS
330
1A
102
}
330
1A
100
AcDbPlotSettings
  1

  2
none_device
  4

  6

 40
0.0
 41
0.0
 42
0.0
 43
0.0
 44
0.0
 45
0.0
 46
0.0
 47
0.0
 48
0.0
 49
0.0
140
0.0
141
0.0
142
1.0
143
1.0
 70
   688
 72
     0
 73
     0
 74
     5
  7

 75
    16
 76
     0
 77
     2
 78
   300
147
1.0
148
0.0
149
0.0
100
AcDbLayout
  1
Layout2
 70
     1
 71
     2
 10
0.0
 20
0.0
 11
0.0
 21
0.0
 12
0.0
 22
0.0
 32
0.0
 14
0.0
 24
0.0
 34
0.0
 15
0.0
 25
0.0
 35
0.0
146
0.0
 13
0.0
 23
0.0
 33
0.0
 16
1.0
 26
0.0
 36
0.0
 17
0.0
 27
1.0
 37
0.0
 76
     0
330
23
  0
LAYOUT
  5
22
102
{ACAD_REACTORS
330
1A
102
}
330
1A
100
AcDbPlotSettings
  1

  2
none_device
  4

  6

 40
0.0
 41
0.0
 42
0.0
 43
0.0
 44
0.0
 45
0.0
 46
0.0
 47
0.0
 48
0.0
 49
0.0
140
0.0
141
0.0
142
1.0
143
1.0
 70
  1712
 72
     0
 73
     0
 74
     0
  7

 75
     0
 76
     0
 77
     2
 78
   300
147
1.0
148
0.0
149
0.0
100
AcDbLayout
  1
Model
 70
     1
 71
     0
 10
0.0
 20
0.0
 11
12.0
 21
9.0
 12
0.0
 22
0.0
 32
0.0
 14
-6.17536
 24
-3.75614
 34
0.0
 15
6.17595
 25
3.74661
 35
0.0
146
0.0
 13
0.0
 23
0.0
 33
0.0
 16
1.0
 26
0.0
 36
0.0
 17
0.0
 27
1.0
 37
0.0
 76
     0
330
1F
331
29
  0
MATERIAL
  5
3D
102
{ACAD_REACTORS
330
3B
102
}
330
3B
100
AcDbMaterial
  1
ByBlock
 72
     1
 94
      127
  0
MATERIAL
  5
3C
102
{ACAD_REACTORS
330
3B
102
}
330
3B
100
AcDbMaterial
  1
ByLayer
 72
     1
 94
      127
  0
MATERIAL
  5
3E
102
{ACAD_REACTORS
330
3B
102
}
330
3B
100
AcDbMaterial
  1
Global
 72
     1
 94
      127
  0
MLINESTYLE
  5
18
102
{ACAD_REACTORS
330
17
102
}
330
17
100
AcDbMlineStyle
  2
Standard
 70
     0
  3

 62
   256
 51
90.0
 52
90.0
 71
     2
 49
0.5
 62
   256
  6
BYLAYER
 49
-0.5
 62
   256
  6
BYLAYER
  0
ACDBPLACEHOLDER
  5
F
102
{ACAD_REACTORS
330
E
102
}
330
E
  0
VISUALSTYLE
  5
2F
102
{ACAD_REACTORS
330
2A
102
}
102
{ACAD_XDICTIONARY
360
5D
102
}
330
2A
100
AcDbVisualStyle
  2
2dWireframe
 70
     4
 71
     0
 72
     2
 73
     0
 90
        0
 40
-0.6
 41
-30.0
 62
     5
 63
     7
421
 16777215
 74
     1
 91
        4
 64
     7
 65
   257
 75
     1
175
     1
 42
1.0
 92
        0
 66
   257
 43
1.0
 76
     1
 77
     6
 78
     2
 67
     7
 79
     5
170
     0
171
     0
290
     0
174
     0
 93
        1
 44
0.0
173
     0
291
     0
 45
0.0
  0
VISUALSTYLE
  5
31
102
{ACAD_REACTORS
330
2A
102
}
102
{ACAD_XDICTIONARY
360
61
102
}
330
2A
100
AcDbVisualStyle
  2
3D Hidden
 70
     6
 71
     1
 72
     2
 73
     2
 90
        0
 40
-0.6
 41
-30.0
 62
     5
 63
     7
421
 16777215
 74
     2
 91
        2
 64
     7
 65
   257
 75
     2
175
     1
 42
40.0
 92
        0
 66
   257
 43
1.0
 76
     1
 77
     6
 78
     2
 67
     7
 79
     3
170
     0
171
     0
290
     0
174
     0
 93
        1
 44
0.0
173
     0
291
     0
 45
0.0
  0
VISUALSTYLE
  5
30
102
{ACAD_REACTORS
330
2A
102
}
102
{ACAD_XDICTIONARY
360
5F
102
}
330
2A
100
AcDbVisualStyle
  2
3dWireframe
 70
     5
 71
     0
 72
     2
 73
     0
 90
        0
 40
-0.6
 41
-30.0
 62
     5
 63
     7
421
 16777215
 74
     1
 91
        4
 64
     7
 65
   257
 75
     1
175
     1
 42
1.0
 92
        0
 66
   257
 43
1.0
 76
     1
 77
     6
 78
     2
 67
     7
 79
     5
170
     0
171
     0
290
     0
174
     0
 93
        1
 44
0.0
173
     0
291
     0
 45
0.0
  0
VISUALSTYLE
  5
32
102
{ACAD_REACTORS
330
2A
102
}
102
{ACAD_XDICTIONARY
360
63
102
}
330
2A
100
AcDbVisualStyle
  2
Basic
 70
     7
 71
     1
 72
     0
 73
     1
 90
        0
 40
-0.6
 41
-30.0
 62
     5
 63
     7
421
 16777215
 74
     0
 91
        4
 64
     7
 65
   257
 75
     1
175
     1
 42
1.0
 92
        8
 66
     7
 43
1.0
 76
     1
 77
     6
 78
     2
 67
     7
 79
     5
170
     0
171
     0
290
     0
174
     0
 93
        1
 44
0.0
173
     0
291
     1
 45
0.0
  0
VISUALSTYLE
  5
36
102
{ACAD_REACTORS
330
2A
102
}
102
{ACAD_XDICTIONARY
360
6B
102
}
330
2A
100
AcDbVisualStyle
  2
Brighten
 70
    12
 71
     2
 72
     2
 73
     0
 90
        0
 40
-0.6
 41
-30.0
 62
     5
 63
     7
421
 16777215
 74
     1
 91
        4
 64
     7
 65
   257
 75
     1
175
     1
 42
1.0
 92
        8
 66
     7
 43
1.0
 76
     1
 77
     6
 78
     2
 67
     7
 79
     5
170
     0
171
     0
290
     0
174
     0
 93
        1
 44
50.0
173
     0
291
     1
 45
0.0
  0
VISUALSTYLE
  5
3A
102
{ACAD_REACTORS
330
2A
102
}
102
{ACAD_XDICTIONARY
360
73
102
}
330
2A
100
AcDbVisualStyle
  2
ColorChange
 70
    16
 71
     2
 72
     2
 73
     3
 90
        0
 40
-0.6
 41
-30.0
 62
     5
 63
     8
421
  8421504
 74
     1
 91
        4
 64
     7
 65
   257
 75
     1
175
     1
 42
1.0
 92
        8
 66
     8
424
  8421504
 43
1.0
 76
     1
 77
     6
 78
     2
 67
     7
 79
     5
170
     0
171
     0
290
     0
174
     0
 93
        1
 44
0.0
173
     0
291
     1
 45
0.0
  0
VISUALSTYLE
  5
34
102
{ACAD_REACTORS
330
2A
102
}
102
{ACAD_XDICTIONARY
360
67
102
}
330
2A
100
AcDbVisualStyle
  2
Conceptual
 70
     9
 71
     3
 72
     2
 73
     0
 90
        0
 40
-0.6
 41
-30.0
 62
     5
 63
     7
421
 16777215
 74
     2
 91
        2
 64
     7
 65
   257
 75
     1
175
     1
 42
40.0
 92
        8
 66
     7
 43
1.0
 76
     1
 77
     6
 78
     2
 67
     7
 79
     3
170
     0
171
     0
290
     0
174
     0
 93
        1
 44
0.0
173
     0
291
     0
 45
0.0
  0
VISUALSTYLE
  5
35
102
{ACAD_REACTORS
330
2A
102
}
102
{ACAD_XDICTIONARY
360
69
102
}
330
2A
100
AcDbVisualStyle
  2
Dim
 70
    11
 71
     2
 72
     2
 73
     0
 90
        0
 40
-0.6
 41
-30.0
 62
     5
 63
     7
421
 16777215
 74
     1
 91
        4
 64
     7
 65
   257
 75
     1
175
     1
 42
1.0
 92
        8
 66
     7
 43
1.0
 76
     1
 77
     6
 78
     2
 67
     7
 79
     5
170
     0
171
     0
290
     0
174
     0
 93
        1
 44
-50.0
173
     0
291
     1
 45
0.0
  0
VISUALSTYLE
  5
39
102
{ACAD_REACTORS
330
2A
102
}
102
{ACAD_XDICTIONARY
360
71
102
}
330
2A
100
AcDbVisualStyle
  2
Facepattern
 70
    15
 71
     2
 72
     2
 73
     0
 90
        0
 40
-0.6
 41
-30.0
 62
     5
 63
     7
421
 16777215
 74
     1
 91
        4
 64
     7
 65
   257
 75
     1
175
     1
 42
1.0
 92
        8
 66
     7
 43
1.0
 76
     1
 77
     6
 78
     2
 67
     7
 79
     5
170
     0
171
     0
290
     0
174
     0
 93
        1
 44
0.0
173
     0
291
     1
 45
0.0
  0
VISUALSTYLE
  5
2B
102
{ACAD_REACTORS
330
2A
102
}
102
{ACAD_XDICTIONARY
360
55
102
}
330
2A
100
AcDbVisualStyle
  2
Flat
 70
     0
 71
     2
 72
     1
 73
     1
 90
        2
 40
-0.6
 41
30.0
 62
     5
 63
     7
421
 16777215
 74
     0
 91
        4
 64
     7
 65
   257
 75
     1
175
     1
 42
1.0
 92
        8
 66
     7
 43
1.0
 76
     1
 77
     6
 78
     2
 67
     7
 79
     5
170
     0
171
     0
290
     0
174
     0
 93
       13
 44
0.0
173
     0
291
     1
 45
0.0
  0
VISUALSTYLE
  5
2C
102
{ACAD_REACTORS
330
2A
102
}
102
{ACAD_XDICTIONARY
360
57
102
}
330
2A
100
AcDbVisualStyle
  2
FlatWithEdges
 70
     1
 71
     2
 72
     1
 73
     1
 90
        2
 40
-0.6
 41
30.0
 62
     5
 63
     7
421
 16777215
 74
     1
 91
        4
 64
     7
 65
   257
 75
     1
175
     1
 42
1.0
 92
        0
 66
   257
 43
1.0
 76
     1
 77
     6
 78
     2
 67
     7
 79
     5
170
     0
171
     0
290
     0
174
     0
 93
       13
 44
0.0
173
     0
291
     1
 45
0.0
  0
VISUALSTYLE
  5
2D
102
{ACAD_REACTORS
330
2A
102
}
102
{ACAD_XDICTIONARY
360
59
102
}
330
2A
100
AcDbVisualStyle
  2
Gouraud
 70
     2
 71
     2
 72
     2
 73
     1
 90
        2
 40
-0.6
 41
30.0
 62
     5
 63
     7
421
 16777215
 74
     0
 91
        4
 64
     7
 65
   257
 75
     1
175
     1
 42
1.0
 92
        0
 66
     7
 43
1.0
 76
     1
 77
     6
 78
     2
 67
     7
 79
     5
170
     0
171
     0
290
     0
174
     0
 93
       13
 44
0.0
173
     0
291
     1
 45
0.0
  0
VISUALSTYLE
  5
2E
102
{ACAD_REACTORS
330
2A
102
}
102
{ACAD_XDICTIONARY
360
5B
102
}
330
2A
100
AcDbVisualStyle
  2
GouraudWithEdges
 70
     3
 71
     2
 72
     2
 73
     1
 90
        2
 40
-0.6
 41
30.0
 62
     5
 63
     7
421
 16777215
 74
     1
 91
        4
 64
     7
 65
   257
 75
     1
175
     1
 42
1.0
 92
        0
 66
   257
 43
1.0
 76
     1
 77
     6
 78
     2
 67
     7
 79
     5
170
     0
171
     0
290
     0
174
     0
 93
       13
 44
0.0
173
     0
291
     1
 45
0.0
  0
VISUALSTYLE
  5
38
102
{ACAD_REACTORS
330
2A
102
}
102
{ACAD_XDICTIONARY
360
6F
102
}
330
2A
100
AcDbVisualStyle
  2
Linepattern
 70
    14
 71
     2
 72
     2
 73
     0
 90
        0
 40
-0.6
 41
-30.0
 62
     5
 63
     7
421
 16777215
 74
     1
 91
        4
 64
     7
 65
   257
 75
     7
175
     7
 42
1.0
 92
        8
 66
     7
 43
1.0
 76
     1
 77
     6
 78
     2
 67
     7
 79
     5
170
     0
171
     0
290
     0
174
     0
 93
        1
 44
0.0
173
     0
291
     1
 45
0.0
  0
VISUALSTYLE
  5
33
102
{ACAD_REACTORS
330
2A
102
}
102
{ACAD_XDICTIONARY
360
65
102
}
330
2A
100
AcDbVisualStyle
  2
Realistic
 70
     8
 71
     2
 72
     2
 73
     0
 90
        0
 40
-0.6
 41
-30.0
 62
     5
 63
     7
421
 16777215
 74
     1
 91
        0
 64
     7
 65
   257
 75
     1
175
     1
 42
1.0
 92
        8
 66
     8
424
  7895160
 43
1.0
 76
     1
 77
     6
 78
     2
 67
     7
 79
     5
170
     0
171
     0
290
     0
174
     0
 93
       13
 44
0.0
173
     0
291
     0
 45
0.0
  0
VISUALSTYLE
  5
37
102
{ACAD_REACTORS
330
2A
102
}
102
{ACAD_XDICTIONARY
360
6D
102
}
330
2A
100
AcDbVisualStyle
  2
Thicken
 70
    13
 71
     2
 72
     2
 73
     0
 90
        0
 40
-0.6
 41
-30.0
 62
     5
 63
     7
421
 16777215
 74
     1
 91
        4
 64
     7
 65
   257
 75
     1
175
     1
 42
1.0
 92
       12
 66
     7
 43
1.0
 76
     1
 77
     6
 78
     2
 67
     7
 79
     5
170
     0
171
     0
290
     0
174
     0
 93
        1
 44
0.0
173
     0
291
     1
 45
0.0
  0
DICTIONARY
  5
5D
330
2F
100
AcDbDictionary
280
     1
281
     1
  3
ACAD_XREC_ROUNDTRIP
360
5E
  0
DICTIONARY
  5
61
330
31
100
AcDbDictionary
280
     1
281
     1
  3
ACAD_XREC_ROUNDTRIP
360
62
  0
DICTIONARY
  5
5F
330
30
100
AcDbDictionary
280
     1
281
     1
  3
ACAD_XREC_ROUNDTRIP
360
60
  0
DICTIONARY
  5
63
330
32
100
AcDbDictionary
280
     1
281
     1
  3
ACAD_XREC_ROUNDTRIP
360
64
  0
DICTIONARY
  5
6B
330
36
100
AcDbDictionary
280
     1
281
     1
  3
ACAD_XREC_ROUNDTRIP
360
6C
  0
DICTIONARY
  5
73
330
3A
100
AcDbDictionary
280
     1
281
     1
  3
ACAD_XREC_ROUNDTRIP
360
74
  0
DICTIONARY
  5
67
330
34
100
AcDbDictionary
280
     1
281
     1
  3
ACAD_XREC_ROUNDTRIP
360
68
  0
DICTIONARY
  5
69
330
35
100
AcDbDictionary
280
     1
281
     1
  3
ACAD_XREC_ROUNDTRIP
360
6A
  0
DICTIONARY
  5
71
330
39
100
AcDbDictionary
280
     1
281
     1
  3
ACAD_XREC_ROUNDTRIP
360
72
  0
DICTIONARY
  5
55
330
2B
100
AcDbDictionary
280
     1
281
     1
  3
ACAD_XREC_ROUNDTRIP
360
56
  0
DICTIONARY
  5
57
330
2C
100
AcDbDictionary
280
     1
281
     1
  3
ACAD_XREC_ROUNDTRIP
360
58
  0
DICTIONARY
  5
59
330
2D
100
AcDbDictionary
280
     1
281
     1
  3
ACAD_XREC_ROUNDTRIP
360
5A
  0
DICTIONARY
  5
5B
330
2E
100
AcDbDictionary
280
     1
281
     1
  3
ACAD_XREC_ROUNDTRIP
360
5C
  0
DICTIONARY
  5
6F
330
38
100
AcDbDictionary
280
     1
281
     1
  3
ACAD_XREC_ROUNDTRIP
360
70
  0
DICTIONARY
  5
65
330
33
100
AcDbDictionary
280
     1
281
     1
  3
ACAD_XREC_ROUNDTRIP
360
66
  0
DICTIONARY
  5
6D
330
37
100
AcDbDictionary
280
     1
281
     1
  3
ACAD_XREC_ROUNDTRIP
360
6E
  0
XRECORD
  5
5E
102
{ACAD_REACTORS
330
5D
102
}
330
5D
100
AcDbXrecord
280
     1
102
RTVSPropertyOp0
 70
     1
102
RTVSPropertyOp1
 70
     1
102
RTVSPropertyOp2
 70
     1
102
RTVSPropertyOp3
 70
     1
102
RTVSPropertyOp4
 70
     1
102
RTVSPropertyOp5
 70
     1
102
RTVSPropertyOp6
 70
     1
102
RTVSPropertyOp7
 70
     1
102
RTVSPropertyOp8
 70
     1
102
RTVSPropertyOp9
 70
     1
102
RTVSPropertyOp10
 70
     1
102
RTVSPropertyOp11
 70
     1
102
RTVSPropertyOp12
 70
     1
102
RTVSPropertyOp13
 70
     1
102
RTVSPropertyOp14
 70
     1
102
RTVSPropertyOp15
 70
     1
102
RTVSPropertyOp16
 70
     1
102
RTVSPropertyOp17
 70
     1
102
RTVSPropertyOp18
 70
     1
102
RTVSPropertyOp19
 70
     1
102
RTVSPropertyOp20
 70
     1
102
RTVSPropertyOp21
 70
     1
102
RTVSPropertyOp22
 70
     1
102
RTVSPropertyOp23
 70
     1
102
RTVSPropertyOp24
 70
     1
102
RTVSPropertyOp25
 70
     1
102
RTVSPropertyOp26
 70
     1
102
RTVSPropertyOp27
 70
     1
102
RTVSPropertyOp28
 70
     1
102
RTVSPropertyOp29
 70
     1
102
RTVSPropertyOp30
 70
     1
102
RTVSPropertyOp31
 70
     1
102
RTVSPropertyOp32
 70
     1
  0
XRECORD
  5
62
102
{ACAD_REACTORS
330
61
102
}
330
61
100
AcDbXrecord
280
     1
102
RTVSPropertyOp0
 70
     1
102
RTVSPropertyOp1
 70
     1
102
RTVSPropertyOp2
 70
     1
102
RTVSPropertyOp3
 70
     1
102
RTVSPropertyOp4
 70
     1
102
RTVSPropertyOp5
 70
     1
102
RTVSPropertyOp6
 70
     1
102
RTVSPropertyOp7
 70
     1
102
RTVSPropertyOp8
 70
     1
102
RTVSPropertyOp9
 70
     1
102
RTVSPropertyOp10
 70
     1
102
RTVSPropertyOp11
 70
     1
102
RTVSPropertyOp12
 70
     1
102
RTVSPropertyOp13
 70
     1
102
RTVSPropertyOp14
 70
     1
102
RTVSPropertyOp15
 70
     1
102
RTVSPropertyOp16
 70
     1
102
RTVSPropertyOp17
 70
     1
102
RTVSPropertyOp18
 70
     1
102
RTVSPropertyOp19
 70
     1
102
RTVSPropertyOp20
 70
     1
102
RTVSPropertyOp21
 70
     1
102
RTVSPropertyOp22
 70
     1
102
RTVSPropertyOp23
 70
     1
102
RTVSPropertyOp24
 70
     1
102
RTVSPropertyOp25
 70
     1
102
RTVSPropertyOp26
 70
     1
102
RTVSPropertyOp27
 70
     1
102
RTVSPropertyOp28
 70
     1
102
RTVSPropertyOp29
 70
     1
102
RTVSPropertyOp30
 70
     1
102
RTVSPropertyOp31
 70
     1
102
RTVSPropertyOp32
 70
     1
  0
XRECORD
  5
60
102
{ACAD_REACTORS
330
5F
102
}
330
5F
100
AcDbXrecord
280
     1
102
RTVSPropertyOp0
 70
     1
102
RTVSPropertyOp1
 70
     1
102
RTVSPropertyOp2
 70
     1
102
RTVSPropertyOp3
 70
     1
102
RTVSPropertyOp4
 70
     1
102
RTVSPropertyOp5
 70
     1
102
RTVSPropertyOp6
 70
     1
102
RTVSPropertyOp7
 70
     1
102
RTVSPropertyOp8
 70
     1
102
RTVSPropertyOp9
 70
     1
102
RTVSPropertyOp10
 70
     1
102
RTVSPropertyOp11
 70
     1
102
RTVSPropertyOp12
 70
     1
102
RTVSPropertyOp13
 70
     1
102
RTVSPropertyOp14
 70
     1
102
RTVSPropertyOp15
 70
     1
102
RTVSPropertyOp16
 70
     1
102
RTVSPropertyOp17
 70
     1
102
RTVSPropertyOp18
 70
     1
102
RTVSPropertyOp19
 70
     1
102
RTVSPropertyOp20
 70
     1
102
RTVSPropertyOp21
 70
     1
102
RTVSPropertyOp22
 70
     1
102
RTVSPropertyOp23
 70
     1
102
RTVSPropertyOp24
 70
     1
102
RTVSPropertyOp25
 70
     1
102
RTVSPropertyOp26
 70
     1
102
RTVSPropertyOp27
 70
     1
102
RTVSPropertyOp28
 70
     1
102
RTVSPropertyOp29
 70
     1
102
RTVSPropertyOp30
 70
     1
102
RTVSPropertyOp31
 70
     1
102
RTVSPropertyOp32
 70
     1
  0
XRECORD
  5
64
102
{ACAD_REACTORS
330
63
102
}
330
63
100
AcDbXrecord
280
     1
102
RTVSPropertyOp0
 70
     1
102
RTVSPropertyOp1
 70
     1
102
RTVSPropertyOp2
 70
     1
102
RTVSPropertyOp3
 70
     1
102
RTVSPropertyOp4
 70
     1
102
RTVSPropertyOp5
 70
     1
102
RTVSPropertyOp6
 70
     1
102
RTVSPropertyOp7
 70
     1
102
RTVSPropertyOp8
 70
     1
102
RTVSPropertyOp9
 70
     1
102
RTVSPropertyOp10
 70
     1
102
RTVSPropertyOp11
 70
     1
102
RTVSPropertyOp12
 70
     1
102
RTVSPropertyOp13
 70
     1
102
RTVSPropertyOp14
 70
     1
102
RTVSPropertyOp15
 70
     1
102
RTVSPropertyOp16
 70
     1
102
RTVSPropertyOp17
 70
     1
102
RTVSPropertyOp18
 70
     1
102
RTVSPropertyOp19
 70
     1
102
RTVSPropertyOp20
 70
     1
102
RTVSPropertyOp21
 70
     1
102
RTVSPropertyOp22
 70
     1
102
RTVSPropertyOp23
 70
     1
102
RTVSPropertyOp24
 70
     1
102
RTVSPropertyOp25
 70
     1
102
RTVSPropertyOp26
 70
     1
102
RTVSPropertyOp27
 70
     1
102
RTVSPropertyOp28
 70
     1
102
RTVSPropertyOp29
 70
     1
102
RTVSPropertyOp30
 70
     1
102
RTVSPropertyOp31
 70
     1
102
RTVSPropertyOp32
 70
     1
  0
XRECORD
  5
6C
102
{ACAD_REACTORS
330
6B
102
}
330
6B
100
AcDbXrecord
280
     1
102
RTVSPropertyOp0
 70
     1
102
RTVSPropertyOp1
 70
     1
102
RTVSPropertyOp2
 70
     1
102
RTVSPropertyOp3
 70
     1
102
RTVSPropertyOp4
 70
     1
102
RTVSPropertyOp5
 70
     1
102
RTVSPropertyOp6
 70
     1
102
RTVSPropertyOp7
 70
     1
102
RTVSPropertyOp8
 70
     1
102
RTVSPropertyOp9
 70
     1
102
RTVSPropertyOp10
 70
     1
102
RTVSPropertyOp11
 70
     1
102
RTVSPropertyOp12
 70
     1
102
RTVSPropertyOp13
 70
     1
102
RTVSPropertyOp14
 70
     1
102
RTVSPropertyOp15
 70
     1
102
RTVSPropertyOp16
 70
     1
102
RTVSPropertyOp17
 70
     1
102
RTVSPropertyOp18
 70
     1
102
RTVSPropertyOp19
 70
     1
102
RTVSPropertyOp20
 70
     1
102
RTVSPropertyOp21
 70
     1
102
RTVSPropertyOp22
 70
     1
102
RTVSPropertyOp23
 70
     1
102
RTVSPropertyOp24
 70
     1
102
RTVSPropertyOp25
 70
     1
102
RTVSPropertyOp26
 70
     1
102
RTVSPropertyOp27
 70
     1
102
RTVSPropertyOp28
 70
     1
102
RTVSPropertyOp29
 70
     1
102
RTVSPropertyOp30
 70
     1
102
RTVSPropertyOp31
 70
     1
102
RTVSPropertyOp32
 70
     1
  0
XRECORD
  5
74
102
{ACAD_REACTORS
330
73
102
}
330
73
100
AcDbXrecord
280
     1
102
RTVSPropertyOp0
 70
     1
102
RTVSPropertyOp1
 70
     1
102
RTVSPropertyOp2
 70
     1
102
RTVSPropertyOp3
 70
     1
102
RTVSPropertyOp4
 70
     1
102
RTVSPropertyOp5
 70
     1
102
RTVSPropertyOp6
 70
     1
102
RTVSPropertyOp7
 70
     1
102
RTVSPropertyOp8
 70
     1
102
RTVSPropertyOp9
 70
     1
102
RTVSPropertyOp10
 70
     1
102
RTVSPropertyOp11
 70
     1
102
RTVSPropertyOp12
 70
     1
102
RTVSPropertyOp13
 70
     1
102
RTVSPropertyOp14
 70
     1
102
RTVSPropertyOp15
 70
     1
102
RTVSPropertyOp16
 70
     1
102
RTVSPropertyOp17
 70
     1
102
RTVSPropertyOp18
 70
     1
102
RTVSPropertyOp19
 70
     1
102
RTVSPropertyOp20
 70
     1
102
RTVSPropertyOp21
 70
     1
102
RTVSPropertyOp22
 70
     1
102
RTVSPropertyOp23
 70
     1
102
RTVSPropertyOp24
 70
     1
102
RTVSPropertyOp25
 70
     1
102
RTVSPropertyOp26
 70
     1
102
RTVSPropertyOp27
 70
     1
102
RTVSPropertyOp28
 70
     1
102
RTVSPropertyOp29
 70
     1
102
RTVSPropertyOp30
 70
     1
102
RTVSPropertyOp31
 70
     1
102
RTVSPropertyOp32
 70
     1
  0
XRECORD
  5
68
102
{ACAD_REACTORS
330
67
102
}
330
67
100
AcDbXrecord
280
     1
102
RTVSPropertyOp0
 70
     1
102
RTVSPropertyOp1
 70
     1
102
RTVSPropertyOp2
 70
     1
102
RTVSPropertyOp3
 70
     1
102
RTVSPropertyOp4
 70
     1
102
RTVSPropertyOp5
 70
     1
102
RTVSPropertyOp6
 70
     1
102
RTVSPropertyOp7
 70
     1
102
RTVSPropertyOp8
 70
     1
102
RTVSPropertyOp9
 70
     1
102
RTVSPropertyOp10
 70
     1
102
RTVSPropertyOp11
 70
     1
102
RTVSPropertyOp12
 70
     1
102
RTVSPropertyOp13
 70
     1
102
RTVSPropertyOp14
 70
     1
102
RTVSPropertyOp15
 70
     1
102
RTVSPropertyOp16
 70
     1
102
RTVSPropertyOp17
 70
     1
102
RTVSPropertyOp18
 70
     1
102
RTVSPropertyOp19
 70
     1
102
RTVSPropertyOp20
 70
     1
102
RTVSPropertyOp21
 70
     1
102
RTVSPropertyOp22
 70
     1
102
RTVSPropertyOp23
 70
     1
102
RTVSPropertyOp24
 70
     1
102
RTVSPropertyOp25
 70
     1
102
RTVSPropertyOp26
 70
     1
102
RTVSPropertyOp27
 70
     1
102
RTVSPropertyOp28
 70
     1
102
RTVSPropertyOp29
 70
     1
102
RTVSPropertyOp30
 70
     1
102
RTVSPropertyOp31
 70
     1
102
RTVSPropertyOp32
 70
     1
  0
XRECORD
  5
6A
102
{ACAD_REACTORS
330
69
102
}
330
69
100
AcDbXrecord
280
     1
102
RTVSPropertyOp0
 70
     1
102
RTVSPropertyOp1
 70
     1
102
RTVSPropertyOp2
 70
     1
102
RTVSPropertyOp3
 70
     1
102
RTVSPropertyOp4
 70
     1
102
RTVSPropertyOp5
 70
     1
102
RTVSPropertyOp6
 70
     1
102
RTVSPropertyOp7
 70
     1
102
RTVSPropertyOp8
 70
     1
102
RTVSPropertyOp9
 70
     1
102
RTVSPropertyOp10
 70
     1
102
RTVSPropertyOp11
 70
     1
102
RTVSPropertyOp12
 70
     1
102
RTVSPropertyOp13
 70
     1
102
RTVSPropertyOp14
 70
     1
102
RTVSPropertyOp15
 70
     1
102
RTVSPropertyOp16
 70
     1
102
RTVSPropertyOp17
 70
     1
102
RTVSPropertyOp18
 70
     1
102
RTVSPropertyOp19
 70
     1
102
RTVSPropertyOp20
 70
     1
102
RTVSPropertyOp21
 70
     1
102
RTVSPropertyOp22
 70
     1
102
RTVSPropertyOp23
 70
     1
102
RTVSPropertyOp24
 70
     1
102
RTVSPropertyOp25
 70
     1
102
RTVSPropertyOp26
 70
     1
102
RTVSPropertyOp27
 70
     1
102
RTVSPropertyOp28
 70
     1
102
RTVSPropertyOp29
 70
     1
102
RTVSPropertyOp30
 70
     1
102
RTVSPropertyOp31
 70
     1
102
RTVSPropertyOp32
 70
     1
  0
XRECORD
  5
72
102
{ACAD_REACTORS
330
71
102
}
330
71
100
AcDbXrecord
280
     1
102
RTVSPropertyOp0
 70
     1
102
RTVSPropertyOp1
 70
     1
102
RTVSPropertyOp2
 70
     1
102
RTVSPropertyOp3
 70
     1
102
RTVSPropertyOp4
 70
     1
102
RTVSPropertyOp5
 70
     1
102
RTVSPropertyOp6
 70
     1
102
RTVSPropertyOp7
 70
     1
102
RTVSPropertyOp8
 70
     1
102
RTVSPropertyOp9
 70
     1
102
RTVSPropertyOp10
 70
     1
102
RTVSPropertyOp11
 70
     1
102
RTVSPropertyOp12
 70
     1
102
RTVSPropertyOp13
 70
     1
102
RTVSPropertyOp14
 70
     1
102
RTVSPropertyOp15
 70
     1
102
RTVSPropertyOp16
 70
     1
102
RTVSPropertyOp17
 70
     1
102
RTVSPropertyOp18
 70
     1
102
RTVSPropertyOp19
 70
     1
102
RTVSPropertyOp20
 70
     1
102
RTVSPropertyOp21
 70
     1
102
RTVSPropertyOp22
 70
     1
102
RTVSPropertyOp23
 70
     1
102
RTVSPropertyOp24
 70
     1
102
RTVSPropertyOp25
 70
     1
102
RTVSPropertyOp26
 70
     1
102
RTVSPropertyOp27
 70
     1
102
RTVSPropertyOp28
 70
     1
102
RTVSPropertyOp29
 70
     1
102
RTVSPropertyOp30
 70
     1
102
RTVSPropertyOp31
 70
     1
102
RTVSPropertyOp32
 70
     1
  0
XRECORD
  5
56
102
{ACAD_REACTORS
330
55
102
}
330
55
100
AcDbXrecord
280
     1
102
RTVSPropertyOp0
 70
     1
102
RTVSPropertyOp1
 70
     1
102
RTVSPropertyOp2
 70
     1
102
RTVSPropertyOp3
 70
     1
102
RTVSPropertyOp4
 70
     1
102
RTVSPropertyOp5
 70
     1
102
RTVSPropertyOp6
 70
     1
102
RTVSPropertyOp7
 70
     1
102
RTVSPropertyOp8
 70
     1
102
RTVSPropertyOp9
 70
     1
102
RTVSPropertyOp10
 70
     1
102
RTVSPropertyOp11
 70
     1
102
RTVSPropertyOp12
 70
     1
102
RTVSPropertyOp13
 70
     1
102
RTVSPropertyOp14
 70
     1
102
RTVSPropertyOp15
 70
     1
102
RTVSPropertyOp16
 70
     1
102
RTVSPropertyOp17
 70
     1
102
RTVSPropertyOp18
 70
     1
102
RTVSPropertyOp19
 70
     1
102
RTVSPropertyOp20
 70
     1
102
RTVSPropertyOp21
 70
     1
102
RTVSPropertyOp22
 70
     1
102
RTVSPropertyOp23
 70
     1
102
RTVSPropertyOp24
 70
     1
102
RTVSPropertyOp25
 70
     1
102
RTVSPropertyOp26
 70
     1
102
RTVSPropertyOp27
 70
     1
102
RTVSPropertyOp28
 70
     1
102
RTVSPropertyOp29
 70
     1
102
RTVSPropertyOp30
 70
     1
102
RTVSPropertyOp31
 70
     1
102
RTVSPropertyOp32
 70
     1
  0
XRECORD
  5
58
102
{ACAD_REACTORS
330
57
102
}
330
57
100
AcDbXrecord
280
     1
102
RTVSPropertyOp0
 70
     1
102
RTVSPropertyOp1
 70
     1
102
RTVSPropertyOp2
 70
     1
102
RTVSPropertyOp3
 70
     1
102
RTVSPropertyOp4
 70
     1
102
RTVSPropertyOp5
 70
     1
102
RTVSPropertyOp6
 70
     1
102
RTVSPropertyOp7
 70
     1
102
RTVSPropertyOp8
 70
     1
102
RTVSPropertyOp9
 70
     1
102
RTVSPropertyOp10
 70
     1
102
RTVSPropertyOp11
 70
     1
102
RTVSPropertyOp12
 70
     1
102
RTVSPropertyOp13
 70
     1
102
RTVSPropertyOp14
 70
     1
102
RTVSPropertyOp15
 70
     1
102
RTVSPropertyOp16
 70
     1
102
RTVSPropertyOp17
 70
     1
102
RTVSPropertyOp18
 70
     1
102
RTVSPropertyOp19
 70
     1
102
RTVSPropertyOp20
 70
     1
102
RTVSPropertyOp21
 70
     1
102
RTVSPropertyOp22
 70
     1
102
RTVSPropertyOp23
 70
     1
102
RTVSPropertyOp24
 70
     1
102
RTVSPropertyOp25
 70
     1
102
RTVSPropertyOp26
 70
     1
102
RTVSPropertyOp27
 70
     1
102
RTVSPropertyOp28
 70
     1
102
RTVSPropertyOp29
 70
     1
102
RTVSPropertyOp30
 70
     1
102
RTVSPropertyOp31
 70
     1
102
RTVSPropertyOp32
 70
     1
  0
XRECORD
  5
5A
102
{ACAD_REACTORS
330
59
102
}
330
59
100
AcDbXrecord
280
     1
102
RTVSPropertyOp0
 70
     1
102
RTVSPropertyOp1
 70
     1
102
RTVSPropertyOp2
 70
     1
102
RTVSPropertyOp3
 70
     1
102
RTVSPropertyOp4
 70
     1
102
RTVSPropertyOp5
 70
     1
102
RTVSPropertyOp6
 70
     1
102
RTVSPropertyOp7
 70
     1
102
RTVSPropertyOp8
 70
     1
102
RTVSPropertyOp9
 70
     1
102
RTVSPropertyOp10
 70
     1
102
RTVSPropertyOp11
 70
     1
102
RTVSPropertyOp12
 70
     1
102
RTVSPropertyOp13
 70
     1
102
RTVSPropertyOp14
 70
     1
102
RTVSPropertyOp15
 70
     1
102
RTVSPropertyOp16
 70
     1
102
RTVSPropertyOp17
 70
     1
102
RTVSPropertyOp18
 70
     1
102
RTVSPropertyOp19
 70
     1
102
RTVSPropertyOp20
 70
     1
102
RTVSPropertyOp21
 70
     1
102
RTVSPropertyOp22
 70
     1
102
RTVSPropertyOp23
 70
     1
102
RTVSPropertyOp24
 70
     1
102
RTVSPropertyOp25
 70
     1
102
RTVSPropertyOp26
 70
     1
102
RTVSPropertyOp27
 70
     1
102
RTVSPropertyOp28
 70
     1
102
RTVSPropertyOp29
 70
     1
102
RTVSPropertyOp30
 70
     1
102
RTVSPropertyOp31
 70
     1
102
RTVSPropertyOp32
 70
     1
  0
XRECORD
  5
5C
102
{ACAD_REACTORS
330
5B
102
}
330
5B
100
AcDbXrecord
280
     1
102
RTVSPropertyOp0
 70
     1
102
RTVSPropertyOp1
 70
     1
102
RTVSPropertyOp2
 70
     1
102
RTVSPropertyOp3
 70
     1
102
RTVSPropertyOp4
 70
     1
102
RTVSPropertyOp5
 70
     1
102
RTVSPropertyOp6
 70
     1
102
RTVSPropertyOp7
 70
     1
102
RTVSPropertyOp8
 70
     1
102
RTVSPropertyOp9
 70
     1
102
RTVSPropertyOp10
 70
     1
102
RTVSPropertyOp11
 70
     1
102
RTVSPropertyOp12
 70
     1
102
RTVSPropertyOp13
 70
     1
102
RTVSPropertyOp14
 70
     1
102
RTVSPropertyOp15
 70
     1
102
RTVSPropertyOp16
 70
     1
102
RTVSPropertyOp17
 70
     1
102
RTVSPropertyOp18
 70
     1
102
RTVSPropertyOp19
 70
     1
102
RTVSPropertyOp20
 70
     1
102
RTVSPropertyOp21
 70
     1
102
RTVSPropertyOp22
 70
     1
102
RTVSPropertyOp23
 70
     1
102
RTVSPropertyOp24
 70
     1
102
RTVSPropertyOp25
 70
     1
102
RTVSPropertyOp26
 70
     1
102
RTVSPropertyOp27
 70
     1
102
RTVSPropertyOp28
 70
     1
102
RTVSPropertyOp29
 70
     1
102
RTVSPropertyOp30
 70
     1
102
RTVSPropertyOp31
 70
     1
102
RTVSPropertyOp32
 70
     1
  0
XRECORD
  5
70
102
{ACAD_REACTORS
330
6F
102
}
330
6F
100
AcDbXrecord
280
     1
102
RTVSPropertyOp0
 70
     1
102
RTVSPropertyOp1
 70
     1
102
RTVSPropertyOp2
 70
     1
102
RTVSPropertyOp3
 70
     1
102
RTVSPropertyOp4
 70
     1
102
RTVSPropertyOp5
 70
     1
102
RTVSPropertyOp6
 70
     1
102
RTVSPropertyOp7
 70
     1
102
RTVSPropertyOp8
 70
     1
102
RTVSPropertyOp9
 70
     1
102
RTVSPropertyOp10
 70
     1
102
RTVSPropertyOp11
 70
     1
102
RTVSPropertyOp12
 70
     1
102
RTVSPropertyOp13
 70
     1
102
RTVSPropertyOp14
 70
     1
102
RTVSPropertyOp15
 70
     1
102
RTVSPropertyOp16
 70
     1
102
RTVSPropertyOp17
 70
     1
102
RTVSPropertyOp18
 70
     1
102
RTVSPropertyOp19
 70
     1
102
RTVSPropertyOp20
 70
     1
102
RTVSPropertyOp21
 70
     1
102
RTVSPropertyOp22
 70
     1
102
RTVSPropertyOp23
 70
     1
102
RTVSPropertyOp24
 70
     1
102
RTVSPropertyOp25
 70
     1
102
RTVSPropertyOp26
 70
     1
102
RTVSPropertyOp27
 70
     1
102
RTVSPropertyOp28
 70
     1
102
RTVSPropertyOp29
 70
     1
102
RTVSPropertyOp30
 70
     1
102
RTVSPropertyOp31
 70
     1
102
RTVSPropertyOp32
 70
     1
  0
XRECORD
  5
66
102
{ACAD_REACTORS
330
65
102
}
330
65
100
AcDbXrecord
280
     1
102
RTVSPropertyOp0
 70
     1
102
RTVSPropertyOp1
 70
     1
102
RTVSPropertyOp2
 70
     1
102
RTVSPropertyOp3
 70
     1
102
RTVSPropertyOp4
 70
     1
102
RTVSPropertyOp5
 70
     1
102
RTVSPropertyOp6
 70
     1
102
RTVSPropertyOp7
 70
     1
102
RTVSPropertyOp8
 70
     1
102
RTVSPropertyOp9
 70
     1
102
RTVSPropertyOp10
 70
     1
102
RTVSPropertyOp11
 70
     1
102
RTVSPropertyOp12
 70
     1
102
RTVSPropertyOp13
 70
     1
102
RTVSPropertyOp14
 70
     1
102
RTVSPropertyOp15
 70
     1
102
RTVSPropertyOp16
 70
     1
102
RTVSPropertyOp17
 70
     1
102
RTVSPropertyOp18
 70
     1
102
RTVSPropertyOp19
 70
     1
102
RTVSPropertyOp20
 70
     1
102
RTVSPropertyOp21
 70
     1
102
RTVSPropertyOp22
 70
     1
102
RTVSPropertyOp23
 70
     1
102
RTVSPropertyOp24
 70
     1
102
RTVSPropertyOp25
 70
     1
102
RTVSPropertyOp26
 70
     1
102
RTVSPropertyOp27
 70
     1
102
RTVSPropertyOp28
 70
     1
102
RTVSPropertyOp29
 70
     1
102
RTVSPropertyOp30
 70
     1
102
RTVSPropertyOp31
 70
     1
102
RTVSPropertyOp32
 70
     1
  0
XRECORD
  5
6E
102
{ACAD_REACTORS
330
6D
102
}
330
6D
100
AcDbXrecord
280
     1
102
RTVSPropertyOp0
 70
     1
102
RTVSPropertyOp1
 70
     1
102
RTVSPropertyOp2
 70
     1
102
RTVSPropertyOp3
 70
     1
102
RTVSPropertyOp4
 70
     1
102
RTVSPropertyOp5
 70
     1
102
RTVSPropertyOp6
 70
     1
102
RTVSPropertyOp7
 70
     1
102
RTVSPropertyOp8
 70
     1
102
RTVSPropertyOp9
 70
     1
102
RTVSPropertyOp10
 70
     1
102
RTVSPropertyOp11
 70
     1
102
RTVSPropertyOp12
 70
     1
102
RTVSPropertyOp13
 70
     1
102
RTVSPropertyOp14
 70
     1
102
RTVSPropertyOp15
 70
     1
102
RTVSPropertyOp16
 70
     1
102
RTVSPropertyOp17
 70
     1
102
RTVSPropertyOp18
 70
     1
102
RTVSPropertyOp19
 70
     1
102
RTVSPropertyOp20
 70
     1
102
RTVSPropertyOp21
 70
     1
102
RTVSPropertyOp22
 70
     1
102
RTVSPropertyOp23
 70
     1
102
RTVSPropertyOp24
 70
     1
102
RTVSPropertyOp25
 70
     1
102
RTVSPropertyOp26
 70
     1
102
RTVSPropertyOp27
 70
     1
102
RTVSPropertyOp28
 70
     1
102
RTVSPropertyOp29
 70
     1
102
RTVSPropertyOp30
 70
     1
102
RTVSPropertyOp31
 70
     1
102
RTVSPropertyOp32
 70
     1
  0
ENDSEC
  0
EOF
