  0
SECTION
  2
HEADER
  9
$ACADVER
  1
AC1021
  9
$ACADMAINTVER
 70
    25
  9
$DWGCODEPAGE
  3
ANSI_1252
  9
$INSBASE
 10
0.0
 20
0.0
 30
0.0
  9
$EXTMIN
 10
-8.8194
 20
-6.86969
 30
0.0
  9
$EXTMAX
 10
8.7815
 20
6.45013
 30
0.0
  9
$LIMMIN
 10
0.0
 20
0.0
  9
$LIMMAX
 10
12.0
 20
9.0
  9
$ORTHOMODE
 70
     0
  9
$REGENMODE
 70
     1
  9
$FILLMODE
 70
     1
  9
$QTEXTMODE
 70
     0
  9
$MIRRTEXT
 70
     1
  9
$LTSCALE
 40
1.0
  9
$ATTMODE
 70
     1
  9
$TEXTSIZE
 40
0.2
  9
$TRACEWID
 40
0.05
  9
$TEXTSTYLE
  7
Standard
  9
$CLAYER
  8
0
  9
$CELTYPE
  6
ByLayer
  9
$CECOLOR
 62
   256
  9
$CELTSCALE
 40
1.0
  9
$DISPSILH
 70
     0
  9
$DIMSCALE
 40
1.0
  9
$DIMASZ
 40
0.18
  9
$DIMEXO
 40
0.0625
  9
$DIMDLI
 40
0.38
  9
$DIMRND
 40
0.0
  9
$DIMDLE
 40
0.0
  9
$DIMEXE
 40
0.18
  9
$DIMTP
 40
0.0
  9
$DIMTM
 40
0.0
  9
$DIMTXT
 40
0.18
  9
$DIMCEN
 40
0.09
  9
$DIMTSZ
 40
0.0
  9
$DIMTOL
 70
     0
  9
$DIMLIM
 70
     0
  9
$DIMTIH
 70
     1
  9
$DIMTOH
 70
     1
  9
$DIMSE1
 70
     0
  9
$DIMSE2
 70
     0
  9
$DIMTAD
 70
     0
  9
$DIMZIN
 70
     0
  9
$DIMBLK
  1

  9
$DIMASO
 70
     1
  9
$DIMSHO
 70
     1
  9
$DIMPOST
  1

  9
$DIMAPOST
  1

  9
$DIMALT
 70
     0
  9
$DIMALTD
 70
     2
  9
$DIMALTF
 40
25.4
  9
$DIMLFAC
 40
1.0
  9
$DIMTOFL
 70
     0
  9
$DIMTVP
 40
0.0
  9
$DIMTIX
 70
     0
  9
$DIMSOXD
 70
     0
  9
$DIMSAH
 70
     0
  9
$DIMBLK1
  1

  9
$DIMBLK2
  1

  9
$DIMSTYLE
  2
Standard
  9
$DIMCLRD
 70
     0
  9
$DIMCLRE
 70
     0
  9
$DIMCLRT
 70
     0
  9
$DIMTFAC
 40
1.0
  9
$DIMGAP
 40
0.09
  9
$DIMJUST
 70
     0
  9
$DIMSD1
 70
     0
  9
$DIMSD2
 70
     0
  9
$DIMTOLJ
 70
     1
  9
$DIMTZIN
 70
     0
  9
$DIMALTZ
 70
     0
  9
$DIMALTTZ
 70
     0
  9
$DIMUPT
 70
     0
  9
$DIMDEC
 70
     4
  9
$DIMTDEC
 70
     4
  9
$DIMALTU
 70
     2
  9
$DIMALTTD
 70
     2
  9
$DIMTXSTY
  7
Standard
  9
$DIMAUNIT
 70
     0
  9
$DIMADEC
 70
     0
  9
$DIMALTRND
 40
0.0
  9
$DIMAZIN
 70
     0
  9
$DIMDSEP
 70
    46
  9
$DIMATFIT
 70
     3
  9
$DIMFRAC
 70
     0
  9
$DIMLDRBLK
  1

  9
$DIMLUNIT
 70
     2
  9
$DIMLWD
 70
    -2
  9
$DIMLWE
 70
    -2
  9
$DIMTMOVE
 70
     0
  9
$DIMFXL
 40
1.0
  9
$DIMFXLON
 70
     0
  9
$DIMJOGANG
 40
0.7853981633974483
  9
$DIMTFILL
 70
     0
  9
$DIMTFILLCLR
 70
     0
  9
$DIMARCSYM
 70
     0
  9
$DIMLTYPE
  6

  9
$DIMLTEX1
  6

  9
$DIMLTEX2
  6

  9
$LUNITS
 70
     2
  9
$LUPREC
 70
     4
  9
$SKETCHINC
 40
0.1
  9
$FILLETRAD
 40
0.5
  9
$AUNITS
 70
     0
  9
$AUPREC
 70
     0
  9
$MENU
  1
.
  9
$ELEVATION
 40
0.0
  9
$PELEVATION
 40
0.0
  9
$THICKNESS
 40
0.0
  9
$LIMCHECK
 70
     0
  9
$CHAMFERA
 40
0.5
  9
$CHAMFERB
 40
0.5
  9
$CHAMFERC
 40
1.0
  9
$CHAMFERD
 40
0.0
  9
$SKPOLY
 70
     0
  9
$TDCREATE
 40
2456871.802132616
  9
$TDUCREATE
 40
2456871.927132616
  9
$TDUPDATE
 40
2456871.802132871
  9
$TDUUPDATE
 40
2456871.927132871
  9
$TDINDWG
 40
0.0000000116
  9
$TDUSRTIMER
 40
0.0000000116
  9
$USRTIMER
 70
     1
  9
$ANGBASE
 50
0.0
  9
$ANGDIR
 70
     0
  9
$PDMODE
 70
     0
  9
$PDSIZE
 40
0.0
  9
$PLINEWID
 40
0.0
  9
$SPLFRAME
 70
     0
  9
$SPLINETYPE
 70
     6
  9
$SPLINESEGS
 70
     8
  9
$HANDSEED
  5
B4
  9
$SURFTAB1
 70
     6
  9
$SURFTAB2
 70
     6
  9
$SURFTYPE
 70
     6
  9
$SURFU
 70
     6
  9
$SURFV
 70
     6
  9
$UCSBASE
  2

  9
$UCSNAME
  2

  9
$UCSORG
 10
0.0
 20
0.0
 30
0.0
  9
$UCSXDIR
 10
1.0
 20
0.0
 30
0.0
  9
$UCSYDIR
 10
0.0
 20
1.0
 30
0.0
  9
$UCSORTHOREF
  2

  9
$UCSORTHOVIEW
 70
     0
  9
$UCSORGTOP
 10
0.0
 20
0.0
 30
0.0
  9
$UCSORGBOTTOM
 10
0.0
 20
0.0
 30
0.0
  9
$UCSORGLEFT
 10
0.0
 20
0.0
 30
0.0
  9
$UCSORGRIGHT
 10
0.0
 20
0.0
 30
0.0
  9
$UCSORGFRONT
 10
0.0
 20
0.0
 30
0.0
  9
$UCSORGBACK
 10
0.0
 20
0.0
 30
0.0
  9
$PUCSBASE
  2

  9
$PUCSNAME
  2

  9
$PUCSORG
 10
0.0
 20
0.0
 30
0.0
  9
$PUCSXDIR
 10
1.0
 20
0.0
 30
0.0
  9
$PUCSYDIR
 10
0.0
 20
1.0
 30
0.0
  9
$PUCSORTHOREF
  2

  9
$PUCSORTHOVIEW
 70
     0
  9
$PUCSORGTOP
 10
0.0
 20
0.0
 30
0.0
  9
$PUCSORGBOTTOM
 10
0.0
 20
0.0
 30
0.0
  9
$PUCSORGLEFT
 10
0.0
 20
0.0
 30
0.0
  9
$PUCSORGRIGHT
 10
0.0
 20
0.0
 30
0.0
  9
$PUCSORGFRONT
 10
0.0
 20
0.0
 30
0.0
  9
$PUCSORGBACK
 10
0.0
 20
0.0
 30
0.0
  9
$USERI1
 70
     0
  9
$USERI2
 70
     0
  9
$USERI3
 70
     0
  9
$USERI4
 70
     0
  9
$USERI5
 70
     0
  9
$USERR1
 40
0.0
  9
$USERR2
 40
0.0
  9
$USERR3
 40
0.0
  9
$USERR4
 40
0.0
  9
$USERR5
 40
0.0
  9
$WORLDVIEW
 70
     1
  9
$SHADEDGE
 70
     3
  9
$SHADEDIF
 70
    70
  9
$TILEMODE
 70
     1
  9
$MAXACTVP
 70
    64
  9
$PINSBASE
 10
0.0
 20
0.0
 30
0.0
  9
$PLIMCHECK
 70
     0
  9
$PEXTMIN
 10
1.000000000000000E+20
 20
1.000000000000000E+20
 30
1.000000000000000E+20
  9
$PEXTMAX
 10
-1.000000000000000E+20
 20
-1.000000000000000E+20
 30
-1.000000000000000E+20
  9
$PLIMMIN
 10
0.0
 20
0.0
  9
$PLIMMAX
 10
12.0
 20
9.0
  9
$UNITMODE
 70
     0
  9
$VISRETAIN
 70
     1
  9
$PLINEGEN
 70
     0
  9
$PSLTSCALE
 70
     1
  9
$TREEDEPTH
 70
  3020
  9
$CMLSTYLE
  2
Standard
  9
$CMLJUST
 70
     0
  9
$CMLSCALE
 40
1.0
  9
$PROXYGRAPHICS
 70
     1
  9
$MEASUREMENT
 70
     0
  9
$CELWEIGHT
370
    -1
  9
$ENDCAPS
280
     0
  9
$JOINSTYLE
280
     0
  9
$LWDISPLAY
290
     0
  9
$INSUNITS
 70
     5
  9
$HYPERLINKBASE
  1

  9
$STYLESHEET
  1

  9
$XEDIT
290
     1
  9
$CEPSNTYPE
380
     0
  9
$PSTYLEMODE
290
     1
  9
$FINGERPRINTGUID
  2
{EFD19350-8CBF-47CB-98F8-2865DCDF4DA1}
  9
$VERSIONGUID
  2
{FAEB1C32-E019-11D5-929B-00C0DF256EC4}
  9
$EXTNAMES
290
     1
  9
$PSVPSCALE
 40
0.0
  9
$OLESTARTUP
290
     0
  9
$SORTENTS
280
   127
  9
$INDEXCTL
280
     0
  9
$HIDETEXT
280
     1
  9
$XCLIPFRAME
290
     0
  9
$HALOGAP
280
     0
  9
$OBSCOLOR
 70
   257
  9
$OBSLTYPE
280
     0
  9
$INTERSECTIONDISPLAY
280
     0
  9
$INTERSECTIONCOLOR
 70
   257
  9
$DIMASSOC
280
     2
  9
$PROJECTNAME
  1

  9
$CAMERADISPLAY
290
     0
  9
$LENSLENGTH
 40
50.0
  9
$CAMERAHEIGHT
 40
0.0
  9
$STEPSPERSEC
 40
2.0
  9
$STEPSIZE
 40
6.0
  9
$3DDWFPREC
 40
2.0
  9
$PSOLWIDTH
 40
0.25
  9
$PSOLHEIGHT
 40
4.0
  9
$LOFTANG1
 40
1.570796326794897
  9
$LOFTANG2
 40
1.570796326794897
  9
$LOFTMAG1
 40
0.0
  9
$LOFTMAG2
 40
0.0
  9
$LOFTPARAM
 70
     7
  9
$LOFTNORMALS
280
     1
  9
$LATITUDE
 40
37.795
  9
$LONGITUDE
 40
-122.394
  9
$NORTHDIRECTION
 40
0.0
  9
$TIMEZONE
 70
 -8000
  9
$LIGHTGLYPHDISPLAY
280
     1
  9
$TILEMODELIGHTSYNCH
280
     1
  9
$SOLIDHIST
280
     1
  9
$SHOWHIST
280
     1
  9
$DWFFRAME
280
     2
  9
$DGNFRAME
280
     2
  9
$REALWORLDSCALE
290
     1
  9
$INTERFERECOLOR
 62
   256
  9
$CSHADOW
280
     0
  9
$SHADOWPLANELOCATION
 40
0.0
  0
ENDSEC
  0
SECTION
  2
CLASSES
  0
CLASS
  1
ACDBDICTIONARYWDFLT
  2
AcDbDictionaryWithDefault
  3
ObjectDBX Classes
 90
        0
 91
        4
280
     0
281
     0
  0
CLASS
  1
VISUALSTYLE
  2
AcDbVisualStyle
  3
ObjectDBX Classes
 90
     4095
 91
        4
280
     0
281
     0
  0
CLASS
  1
MATERIAL
  2
AcDbMaterial
  3
ObjectDBX Classes
 90
     1153
 91
        4
280
     0
281
     0
  0
ENDSEC
  0
SECTION
  2
TABLES
  0
TABLE
  2
VPORT
  5
8
330
0
100
AcDbSymbolTable
 70
     1
  0
VPORT
  5
29
330
8
100
AcDbSymbolTableRecord
100
AcDbViewportTableRecord
  2
*Active
 70
     0
 10
0.0
 20
0.0
 11
1.0
 21
1.0
 12
10.42990654205607
 22
4.5
 13
0.0
 23
0.0
 14
0.5
 24
0.5
 15
0.5
 25
0.5
 16
0.0
 26
0.0
 36
1.0
 17
0.0
 27
0.0
 37
0.0
 40
9.0
 41
1.972972972850329
 42
50.0
 43
0.0
 44
0.0
 50
0.0
 51
0.0
 71
     0
 72
   100
 73
     1
 74
     3
 75
     0
 76
     0
 77
     0
 78
     0
281
     0
 65
     1
110
0.0
120
0.0
130
0.0
111
1.0
121
0.0
131
0.0
112
0.0
122
1.0
132
0.0
 79
     0
146
0.0
 60
     3
 61
     5
292
     1
282
     1
141
0.0
142
0.0
 63
   250
  0
ENDTAB
  0
TABLE
  2
LTYPE
  5
5
330
0
100
AcDbSymbolTable
 70
     1
  0
LTYPE
  5
14
330
5
100
AcDbSymbolTableRecord
100
AcDbLinetypeTableRecord
  2
ByBlock
 70
     0
  3

 72
    65
 73
     0
 40
0.0
  0
LTYPE
  5
15
330
5
100
AcDbSymbolTableRecord
100
AcDbLinetypeTableRecord
  2
ByLayer
 70
     0
  3

 72
    65
 73
     0
 40
0.0
  0
LTYPE
  5
16
330
5
100
AcDbSymbolTableRecord
100
AcDbLinetypeTableRecord
  2
Continuous
 70
     0
  3
Solid line
 72
    65
 73
     0
 40
0.0
  0
ENDTAB
  0
TABLE
  2
LAYER
  5
2
330
0
100
AcDbSymbolTable
 70
     2
  0
LAYER
  5
10
330
2
100
AcDbSymbolTableRecord
100
AcDbLayerTableRecord
  2
0
 70
     0
 62
     7
  6
Continuous
370
    -3
390
F
347
3E
  0
LAYER
  5
40
330
2
100
AcDbSymbolTableRecord
100
AcDbLayerTableRecord
  2
Camada 1
 70
     0
 62
     7
  6
Continuous
370
    -3
390
F
347
3E
  0
ENDTAB
  0
TABLE
  2
STYLE
  5
3
330
0
100
AcDbSymbolTable
 70
     1
  0
STYLE
  5
11
330
3
100
AcDbSymbolTableRecord
100
AcDbTextStyleTableRecord
  2
Standard
 70
     0
 40
0.0
 41
1.0
 50
0.0
 71
     0
 42
0.2
  3
txt
  4

  0
ENDTAB
  0
TABLE
  2
VIEW
  5
6
330
0
100
AcDbSymbolTable
 70
     0
  0
ENDTAB
  0
TABLE
  2
UCS
  5
7
330
0
100
AcDbSymbolTable
 70
     0
  0
ENDTAB
  0
TABLE
  2
APPID
  5
9
330
0
100
AcDbSymbolTable
 70
     2
  0
APPID
  5
12
330
9
100
AcDbSymbolTableRecord
100
AcDbRegAppTableRecord
  2
ACAD
 70
     0
  0
APPID
  5
3F
330
9
100
AcDbSymbolTableRecord
100
AcDbRegAppTableRecord
  2
ODA
 70
     0
  0
ENDTAB
  0
TABLE
  2
DIMSTYLE
  5
A
330
0
100
AcDbSymbolTable
 70
     1
100
AcDbDimStyleTable
  0
DIMSTYLE
105
27
330
A
100
AcDbSymbolTableRecord
100
AcDbDimStyleTableRecord
  2
Standard
 70
     0
178
     0
340
11
  0
ENDTAB
  0
TABLE
  2
BLOCK_RECORD
  5
1
330
0
100
AcDbSymbolTable
 70
     1
  0
BLOCK_RECORD
  5
1F
330
1
100
AcDbSymbolTableRecord
100
AcDbBlockTableRecord
  2
*Model_Space
340
22
 70
     0
280
     1
281
     0
  0
BLOCK_RECORD
  5
1B
330
1
100
AcDbSymbolTableRecord
100
AcDbBlockTableRecord
  2
*Paper_Space
340
1E
 70
     0
280
     1
281
     0
  0
BLOCK_RECORD
  5
23
330
1
100
AcDbSymbolTableRecord
100
AcDbBlockTableRecord
  2
*Paper_Space0
340
26
 70
     0
280
     1
281
     0
  0
ENDTAB
  0
ENDSEC
  0
SECTION
  2
BLOCKS
  0
BLOCK
  5
20
330
1F
100
AcDbEntity
  8
0
100
AcDbBlockBegin
  2
*Model_Space
 70
     0
 10
0.0
 20
0.0
 30
0.0
  3
*Model_Space
  1

  0
ENDBLK
  5
21
330
1F
100
AcDbEntity
  8
0
100
AcDbBlockEnd
  0
BLOCK
  5
1C
330
1B
100
AcDbEntity
 67
     1
  8
0
100
AcDbBlockBegin
  2
*Paper_Space
 70
     0
 10
0.0
 20
0.0
 30
0.0
  3
*Paper_Space
  1

  0
ENDBLK
  5
1D
330
1B
100
AcDbEntity
 67
     1
  8
0
100
AcDbBlockEnd
  0
BLOCK
  5
24
330
23
100
AcDbEntity
  8
0
100
AcDbBlockBegin
  2
*Paper_Space0
 70
     0
 10
0.0
 20
0.0
 30
0.0
  3
*Paper_Space0
  1

  0
ENDBLK
  5
25
330
23
100
AcDbEntity
  8
0
100
AcDbBlockEnd
  0
ENDSEC
  0
SECTION
  2
ENTITIES
  0
SPLINE
  5
41
330
1F
100
AcDbEntity
  8
Camada 1
100
AcDbSpline
210
0.0
220
0.0
230
1.0
 70
    11
 71
     3
 72
    52
 73
    48
 74
     0
 42
0.0000000001
 43
0.0000000001
 12
1.0
 22
0.0
 32
0.0
 13
1.0
 23
0.0
 33
0.0
 40
0.0
 40
0.0
 40
0.0
 40
0.0
 40
0.0769230769230769
 40
0.0769230769230769
 40
0.0769230769230769
 40
0.0769230769230769
 40
0.1538461538461539
 40
0.1538461538461539
 40
0.1538461538461539
 40
0.1538461538461539
 40
0.2307692307692308
 40
0.2307692307692308
 40
0.2307692307692308
 40
0.2307692307692308
 40
0.3076923076923077
 40
0.3076923076923077
 40
0.3076923076923077
 40
0.3076923076923077
 40
0.3846153846153846
 40
0.3846153846153846
 40
0.3846153846153846
 40
0.3846153846153846
 40
0.4615384615384616
 40
0.4615384615384616
 40
0.4615384615384616
 40
0.4615384615384616
 40
0.5384615384615384
 40
0.5384615384615384
 40
0.5384615384615384
 40
0.5384615384615384
 40
0.6153846153846154
 40
0.6153846153846154
 40
0.6153846153846154
 40
0.6153846153846154
 40
0.6923076923076923
 40
0.6923076923076923
 40
0.6923076923076923
 40
0.6923076923076923
 40
0.7692307692307693
 40
0.7692307692307693
 40
0.7692307692307693
 40
0.7692307692307693
 40
0.8461538461538461
 40
0.8461538461538461
 40
0.8461538461538461
 40
0.8461538461538461
 40
1.0
 40
1.0
 40
1.0
 40
1.0
 10
1.28376
 20
6.43254
 30
0.0
 10
1.88348
 20
6.52251
 30
0.0
 10
2.4652
 20
6.2491
 30
0.0
 10
2.93511
 20
5.8995
 30
0.0
 10
2.93511
 20
5.8995
 30
0.0
 10
3.22403
 20
6.08471
 30
0.0
 10
3.51649
 20
6.27873
 30
0.0
 10
3.85163
 20
6.37151
 30
0.0
 10
3.85163
 20
6.37151
 30
0.0
 10
4.21569
 20
6.48229
 30
0.0
 10
4.62738
 20
6.48794
 30
0.0
 10
4.97204
 20
6.31084
 30
0.0
 10
4.97204
 20
6.31084
 30
0.0
 10
5.36256
 20
6.10446
 30
0.0
 10
5.67302
 20
5.72947
 30
0.0
 10
5.76155
 20
5.29237
 30
0.0
 10
5.76155
 20
5.29237
 30
0.0
 10
5.84834
 20
4.8648
 30
0.0
 10
5.73229
 20
4.42489
 30
0.0
 10
5.5513
 20
4.03718
 30
0.0
 10
5.5513
 20
4.03718
 30
0.0
 10
5.27755
 20
3.46604
 30
0.0
 10
4.86587
 20
2.97427
 30
0.0
 10
4.421
 20
2.52871
 30
0.0
 10
4.421
 20
2.52871
 30
0.0
 10
3.98885
 20
2.10855
 30
0.0
 10
3.51895
 20
1.72755
 30
0.0
 10
3.02083
 20
1.38818
 30
0.0
 10
3.02083
 20
1.38818
 30
0.0
 10
2.98202
 20
1.36136
 30
0.0
 10
2.92981
 20
1.33173
 30
0.0
 10
2.8896
 20
1.37371
 30
0.0
 10
2.8896
 20
1.37371
 30
0.0
 10
2.32974
 20
1.75436
 30
0.0
 10
1.79916
 20
2.18086
 30
0.0
 10
1.32679
 20
2.66664
 30
0.0
 10
1.32679
 20
2.66664
 30
0.0
 10
0.85443
 20
3.16723
 30
0.0
 10
0.41275
 20
3.72674
 30
0.0
 10
0.19578
 20
4.38925
 30
0.0
 10
0.19578
 20
4.38925
 30
0.0
 10
0.07584
 20
4.75402
 30
0.0
 10
0.04726
 20
5.16254
 30
0.0
 10
0.19368
 20
5.52414
 30
0.0
 10
0.19368
 20
5.52414
 30
0.0
 10
0.37818
 20
5.97923
 30
0.0
 10
0.79516
 20
6.34717
 30
0.0
 10
1.28376
 20
6.43254
 30
0.0
  0
SPLINE
  5
42
330
1F
100
AcDbEntity
  8
Camada 1
100
AcDbSpline
210
0.0
220
0.0
230
1.0
 70
    11
 71
     3
 72
   292
 73
   288
 74
     0
 42
0.0000000001
 43
0.0000000001
 12
1.0
 22
0.0
 32
0.0
 13
1.0
 23
0.0
 33
0.0
 40
0.0
 40
0.0
 40
0.0
 40
0.0
 40
0.0136986301369863
 40
0.0136986301369863
 40
0.0136986301369863
 40
0.0136986301369863
 40
0.0273972602739726
 40
0.0273972602739726
 40
0.0273972602739726
 40
0.0273972602739726
 40
0.0410958904109589
 40
0.0410958904109589
 40
0.0410958904109589
 40
0.0410958904109589
 40
0.0547945205479452
 40
0.0547945205479452
 40
0.0547945205479452
 40
0.0547945205479452
 40
0.0684931506849315
 40
0.0684931506849315
 40
0.0684931506849315
 40
0.0684931506849315
 40
0.0821917808219178
 40
0.0821917808219178
 40
0.0821917808219178
 40
0.0821917808219178
 40
0.0958904109589041
 40
0.0958904109589041
 40
0.0958904109589041
 40
0.0958904109589041
 40
0.1095890410958904
 40
0.1095890410958904
 40
0.1095890410958904
 40
0.1095890410958904
 40
0.1232876712328767
 40
0.1232876712328767
 40
0.1232876712328767
 40
0.1232876712328767
 40
0.136986301369863
 40
0.136986301369863
 40
0.136986301369863
 40
0.136986301369863
 40
0.1506849315068493
 40
0.1506849315068493
 40
0.1506849315068493
 40
0.1506849315068493
 40
0.1643835616438356
 40
0.1643835616438356
 40
0.1643835616438356
 40
0.1643835616438356
 40
0.1780821917808219
 40
0.1780821917808219
 40
0.1780821917808219
 40
0.1780821917808219
 40
0.1917808219178082
 40
0.1917808219178082
 40
0.1917808219178082
 40
0.1917808219178082
 40
0.2054794520547945
 40
0.2054794520547945
 40
0.2054794520547945
 40
0.2054794520547945
 40
0.2191780821917808
 40
0.2191780821917808
 40
0.2191780821917808
 40
0.2191780821917808
 40
0.2328767123287671
 40
0.2328767123287671
 40
0.2328767123287671
 40
0.2328767123287671
 40
0.2465753424657534
 40
0.2465753424657534
 40
0.2465753424657534
 40
0.2465753424657534
 40
0.2602739726027397
 40
0.2602739726027397
 40
0.2602739726027397
 40
0.2602739726027397
 40
0.273972602739726
 40
0.273972602739726
 40
0.273972602739726
 40
0.273972602739726
 40
0.2876712328767123
 40
0.2876712328767123
 40
0.2876712328767123
 40
0.2876712328767123
 40
0.3013698630136986
 40
0.3013698630136986
 40
0.3013698630136986
 40
0.3013698630136986
 40
0.3150684931506849
 40
0.3150684931506849
 40
0.3150684931506849
 40
0.3150684931506849
 40
0.3287671232876712
 40
0.3287671232876712
 40
0.3287671232876712
 40
0.3287671232876712
 40
0.3424657534246575
 40
0.3424657534246575
 40
0.3424657534246575
 40
0.3424657534246575
 40
0.3561643835616438
 40
0.3561643835616438
 40
0.3561643835616438
 40
0.3561643835616438
 40
0.3698630136986301
 40
0.3698630136986301
 40
0.3698630136986301
 40
0.3698630136986301
 40
0.3835616438356164
 40
0.3835616438356164
 40
0.3835616438356164
 40
0.3835616438356164
 40
0.3972602739726027
 40
0.3972602739726027
 40
0.3972602739726027
 40
0.3972602739726027
 40
0.410958904109589
 40
0.410958904109589
 40
0.410958904109589
 40
0.410958904109589
 40
0.4246575342465753
 40
0.4246575342465753
 40
0.4246575342465753
 40
0.4246575342465753
 40
0.4383561643835616
 40
0.4383561643835616
 40
0.4383561643835616
 40
0.4383561643835616
 40
0.4520547945205479
 40
0.4520547945205479
 40
0.4520547945205479
 40
0.4520547945205479
 40
0.4657534246575342
 40
0.4657534246575342
 40
0.4657534246575342
 40
0.4657534246575342
 40
0.4794520547945205
 40
0.4794520547945205
 40
0.4794520547945205
 40
0.4794520547945205
 40
0.4931506849315068
 40
0.4931506849315068
 40
0.4931506849315068
 40
0.4931506849315068
 40
0.5068493150684932
 40
0.5068493150684932
 40
0.5068493150684932
 40
0.5068493150684932
 40
0.5205479452054794
 40
0.5205479452054794
 40
0.5205479452054794
 40
0.5205479452054794
 40
0.5342465753424658
 40
0.5342465753424658
 40
0.5342465753424658
 40
0.5342465753424658
 40
0.547945205479452
 40
0.547945205479452
 40
0.547945205479452
 40
0.547945205479452
 40
0.5616438356164384
 40
0.5616438356164384
 40
0.5616438356164384
 40
0.5616438356164384
 40
0.5753424657534246
 40
0.5753424657534246
 40
0.5753424657534246
 40
0.5753424657534246
 40
0.589041095890411
 40
0.589041095890411
 40
0.589041095890411
 40
0.589041095890411
 40
0.6027397260273972
 40
0.6027397260273972
 40
0.6027397260273972
 40
0.6027397260273972
 40
0.6164383561643836
 40
0.6164383561643836
 40
0.6164383561643836
 40
0.6164383561643836
 40
0.6301369863013698
 40
0.6301369863013698
 40
0.6301369863013698
 40
0.6301369863013698
 40
0.6438356164383562
 40
0.6438356164383562
 40
0.6438356164383562
 40
0.6438356164383562
 40
0.6575342465753424
 40
0.6575342465753424
 40
0.6575342465753424
 40
0.6575342465753424
 40
0.6712328767123288
 40
0.6712328767123288
 40
0.6712328767123288
 40
0.6712328767123288
 40
0.684931506849315
 40
0.684931506849315
 40
0.684931506849315
 40
0.684931506849315
 40
0.6986301369863014
 40
0.6986301369863014
 40
0.6986301369863014
 40
0.6986301369863014
 40
0.7123287671232876
 40
0.7123287671232876
 40
0.7123287671232876
 40
0.7123287671232876
 40
0.726027397260274
 40
0.726027397260274
 40
0.726027397260274
 40
0.726027397260274
 40
0.7397260273972602
 40
0.7397260273972602
 40
0.7397260273972602
 40
0.7397260273972602
 40
0.7534246575342466
 40
0.7534246575342466
 40
0.7534246575342466
 40
0.7534246575342466
 40
0.7671232876712328
 40
0.7671232876712328
 40
0.7671232876712328
 40
0.7671232876712328
 40
0.7808219178082192
 40
0.7808219178082192
 40
0.7808219178082192
 40
0.7808219178082192
 40
0.7945205479452054
 40
0.7945205479452054
 40
0.7945205479452054
 40
0.7945205479452054
 40
0.8082191780821918
 40
0.8082191780821918
 40
0.8082191780821918
 40
0.8082191780821918
 40
0.821917808219178
 40
0.821917808219178
 40
0.821917808219178
 40
0.821917808219178
 40
0.8356164383561644
 40
0.8356164383561644
 40
0.8356164383561644
 40
0.8356164383561644
 40
0.8493150684931506
 40
0.8493150684931506
 40
0.8493150684931506
 40
0.8493150684931506
 40
0.863013698630137
 40
0.863013698630137
 40
0.863013698630137
 40
0.863013698630137
 40
0.8767123287671232
 40
0.8767123287671232
 40
0.8767123287671232
 40
0.8767123287671232
 40
0.8904109589041096
 40
0.8904109589041096
 40
0.8904109589041096
 40
0.8904109589041096
 40
0.9041095890410958
 40
0.9041095890410958
 40
0.9041095890410958
 40
0.9041095890410958
 40
0.9178082191780822
 40
0.9178082191780822
 40
0.9178082191780822
 40
0.9178082191780822
 40
0.9315068493150684
 40
0.9315068493150684
 40
0.9315068493150684
 40
0.9315068493150684
 40
0.9452054794520548
 40
0.9452054794520548
 40
0.9452054794520548
 40
0.9452054794520548
 40
0.958904109589041
 40
0.958904109589041
 40
0.958904109589041
 40
0.958904109589041
 40
0.9726027397260274
 40
0.9726027397260274
 40
0.9726027397260274
 40
0.9726027397260274
 40
1.0
 40
1.0
 40
1.0
 40
1.0
 10
-5.17277
 20
6.15597
 30
0.0
 10
-5.10222
 20
6.1595
 30
0.0
 10
-5.02884
 20
6.17573
 30
0.0
 10
-4.9604
 20
6.15032
 30
0.0
 10
-4.9604
 20
6.15032
 30
0.0
 10
-4.89303
 20
6.11575
 30
0.0
 10
-4.8715
 20
6.04026
 30
0.0
 10
-4.84433
 20
5.9757
 30
0.0
 10
-4.84433
 20
5.9757
 30
0.0
 10
-4.76815
 20
5.99968
 30
0.0
 10
-4.67959
 20
6.03673
 30
0.0
 10
-4.60903
 20
5.97675
 30
0.0
 10
-4.60903
 20
5.97675
 30
0.0
 10
-4.51979
 20
5.93407
 30
0.0
 10
-4.51731
 20
5.82753
 30
0.0
 10
-4.50074
 20
5.74357
 30
0.0
 10
-4.50074
 20
5.74357
 30
0.0
 10
-4.43159
 20
5.73617
 30
0.0
 10
-4.35044
 20
5.74321
 30
0.0
 10
-4.30213
 20
5.68218
 30
0.0
 10
-4.30213
 20
5.68218
 30
0.0
 10
-4.22909
 20
5.62997
 30
0.0
 10
-4.25167
 20
5.53261
 30
0.0
 10
-4.24602
 20
5.4557
 30
0.0
 10
-4.24602
 20
5.4557
 30
0.0
 10
-4.17583
 20
5.4557
 30
0.0
 10
-4.10527
 20
5.45465
 30
0.0
 10
-4.03506
 20
5.45217
 30
0.0
 10
-4.03506
 20
5.45217
 30
0.0
 10
-4.02978
 20
5.52767
 30
0.0
 10
-4.04988
 20
5.62081
 30
0.0
 10
-3.98144
 20
5.67407
 30
0.0
 10
-3.98144
 20
5.67407
 30
0.0
 10
-3.92852
 20
5.73722
 30
0.0
 10
-3.8414
 20
5.73263
 30
0.0
 10
-3.76731
 20
5.74075
 30
0.0
 10
-3.76731
 20
5.74075
 30
0.0
 10
-3.75708
 20
5.81342
 30
0.0
 10
-3.7592
 20
5.90196
 30
0.0
 10
-3.69393
 20
5.95029
 30
0.0
 10
-3.69393
 20
5.95029
 30
0.0
 10
-3.62091
 20
6.01698
 30
0.0
 10
-3.51508
 20
5.98523
 30
0.0
 10
-3.42759
 20
5.9757
 30
0.0
 10
-3.42759
 20
5.9757
 30
0.0
 10
-3.39124
 20
6.06531
 30
0.0
 10
-3.32458
 20
6.17784
 30
0.0
 10
-3.21062
 20
6.15738
 30
0.0
 10
-3.21062
 20
6.15738
 30
0.0
 10
-3.10549
 20
6.16232
 30
0.0
 10
-3.00389
 20
6.06531
 30
0.0
 10
-3.01342
 20
5.95841
 30
0.0
 10
-3.01342
 20
5.95841
 30
0.0
 10
-3.00389
 20
5.88573
 30
0.0
 10
-3.05681
 20
5.8314
 30
0.0
 10
-3.09667
 20
5.77814
 30
0.0
 10
-3.09667
 20
5.77814
 30
0.0
 10
-3.04658
 20
5.71887
 30
0.0
 10
-2.9718
 20
5.66103
 30
0.0
 10
-2.98131
 20
5.57459
 30
0.0
 10
-2.98131
 20
5.57459
 30
0.0
 10
-2.97673
 20
5.47652
 30
0.0
 10
-3.0554
 20
5.41338
 30
0.0
 10
-3.1309
 20
5.36787
 30
0.0
 10
-3.1309
 20
5.36787
 30
0.0
 10
-3.10161
 20
5.30224
 30
0.0
 10
-3.06422
 20
5.23346
 30
0.0
 10
-3.08327
 20
5.15937
 30
0.0
 10
-3.08327
 20
5.15937
 30
0.0
 10
-3.08997
 20
5.07259
 30
0.0
 10
-3.18557
 20
5.04119
 30
0.0
 10
-3.2445
 20
4.99392
 30
0.0
 10
-3.2445
 20
4.99392
 30
0.0
 10
-3.21098
 20
4.93182
 30
0.0
 10
-3.17712
 20
4.86938
 30
0.0
 10
-3.14607
 20
4.80589
 30
0.0
 10
-3.14607
 20
4.80589
 30
0.0
 10
-3.08997
 20
4.84011
 30
0.0
 10
-3.03494
 20
4.89267
 30
0.0
 10
-2.96403
 20
4.88385
 30
0.0
 10
-2.96403
 20
4.88385
 30
0.0
 10
-2.87338
 20
4.87997
 30
0.0
 10
-2.81763
 20
4.79918
 30
0.0
 10
-2.77071
 20
4.7318
 30
0.0
 10
-2.77071
 20
4.7318
 30
0.0
 10
-2.68887
 20
4.75509
 30
0.0
 10
-2.59644
 20
4.80518
 30
0.0
 10
-2.51529
 20
4.75085
 30
0.0
 10
-2.51529
 20
4.75085
 30
0.0
 10
-2.43733
 20
4.72227
 30
0.0
 10
-2.42887
 20
4.62808
 30
0.0
 10
-2.40417
 20
4.55999
 30
0.0
 10
-2.40417
 20
4.55999
 30
0.0
 10
-2.32587
 20
4.54625
 30
0.0
 10
-2.22849
 20
4.56388
 30
0.0
 10
-2.16817
 20
4.50108
 30
0.0
 10
-2.16817
 20
4.50108
 30
0.0
 10
-2.08104
 20
4.43018
 30
0.0
 10
-2.07644
 20
4.28166
 30
0.0
 10
-2.16181
 20
4.20722
 30
0.0
 10
-2.16181
 20
4.20722
 30
0.0
 10
-2.22179
 20
4.13173
 30
0.0
 10
-2.32304
 20
4.14937
 30
0.0
 10
-2.407
 20
4.15325
 30
0.0
 10
-2.407
 20
4.15325
 30
0.0
 10
-2.42534
 20
4.08023
 30
0.0
 10
-2.43981
 20
3.98992
 30
0.0
 10
-2.51848
 20
3.95676
 30
0.0
 10
-2.51848
 20
3.95676
 30
0.0
 10
-2.59891
 20
3.90455
 30
0.0
 10
-2.69275
 20
3.94723
 30
0.0
 10
-2.77176
 20
3.97862
 30
0.0
 10
-2.77176
 20
3.97862
 30
0.0
 10
-2.82046
 20
3.91478
 30
0.0
 10
-2.87479
 20
3.83821
 30
0.0
 10
-2.96228
 20
3.83117
 30
0.0
 10
-2.96228
 20
3.83117
 30
0.0
 10
-3.03283
 20
3.82235
 30
0.0
 10
-3.09174
 20
3.87032
 30
0.0
 10
-3.15241
 20
3.89748
 30
0.0
 10
-3.15241
 20
3.89748
 30
0.0
 10
-3.18523
 20
3.8414
 30
0.0
 10
-3.22014
 20
3.7867
 30
0.0
 10
-3.25649
 20
3.73274
 30
0.0
 10
-3.25649
 20
3.73274
 30
0.0
 10
-3.19158
 20
3.67524
 30
0.0
 10
-3.08539
 20
3.62902
 30
0.0
 10
-3.08821
 20
3.52812
 30
0.0
 10
-3.08821
 20
3.52812
 30
0.0
 10
-3.08115
 20
3.46321
 30
0.0
 10
-3.11855
 20
3.40535
 30
0.0
 10
-3.13901
 20
3.3461
 30
0.0
 10
-3.13901
 20
3.3461
 30
0.0
 10
-3.07516
 20
3.29318
 30
0.0
 10
-2.99049
 20
3.23603
 30
0.0
 10
-3.00601
 20
3.14006
 30
0.0
 10
-3.00601
 20
3.14006
 30
0.0
 10
-2.99154
 20
3.05576
 30
0.0
 10
-3.06034
 20
2.9979
 30
0.0
 10
-3.10797
 20
2.93899
 30
0.0
 10
-3.10797
 20
2.93899
 30
0.0
 10
-3.02753
 20
2.84056
 30
0.0
 10
-3.00143
 20
2.66876
 30
0.0
 10
-3.12278
 20
2.59079
 30
0.0
 10
-3.12278
 20
2.59079
 30
0.0
 10
-3.24979
 20
2.49519
 30
0.0
 10
-3.41841
 20
2.60032
 30
0.0
 10
-3.44874
 20
2.74109
 30
0.0
 10
-3.44874
 20
2.74109
 30
0.0
 10
-3.53764
 20
2.72908
 30
0.0
 10
-3.64313
 20
2.70403
 30
0.0
 10
-3.71756
 20
2.77001
 30
0.0
 10
-3.71756
 20
2.77001
 30
0.0
 10
-3.78283
 20
2.81905
 30
0.0
 10
-3.77189
 20
2.91112
 30
0.0
 10
-3.78953
 20
2.98238
 30
0.0
 10
-3.78953
 20
2.98238
 30
0.0
 10
-3.86715
 20
2.98484
 30
0.0
 10
-3.95216
 20
2.99332
 30
0.0
 10
-4.00755
 20
3.05469
 30
0.0
 10
-4.00755
 20
3.05469
 30
0.0
 10
-4.05977
 20
3.11431
 30
0.0
 10
-4.04035
 20
3.19863
 30
0.0
 10
-4.04495
 20
3.2706
 30
0.0
 10
-4.04495
 20
3.2706
 30
0.0
 10
-4.11514
 20
3.26918
 30
0.0
 10
-4.18535
 20
3.26989
 30
0.0
 10
-4.25555
 20
3.27271
 30
0.0
 10
-4.25555
 20
3.27271
 30
0.0
 10
-4.25626
 20
3.19475
 30
0.0
 10
-4.25343
 20
3.10409
 30
0.0
 10
-4.31977
 20
3.04906
 30
0.0
 10
-4.31977
 20
3.04906
 30
0.0
 10
-4.37198
 20
2.98908
 30
0.0
 10
-4.4591
 20
2.99578
 30
0.0
 10
-4.53036
 20
2.98167
 30
0.0
 10
-4.53036
 20
2.98167
 30
0.0
 10
-4.5339
 20
2.91394
 30
0.0
 10
-4.52931
 20
2.83739
 30
0.0
 10
-4.58576
 20
2.78799
 30
0.0
 10
-4.58576
 20
2.78799
 30
0.0
 10
-4.65632
 20
2.70686
 30
0.0
 10
-4.77131
 20
2.73649
 30
0.0
 10
-4.86445
 20
2.74319
 30
0.0
 10
-4.86445
 20
2.74319
 30
0.0
 10
-4.9022
 20
2.67757
 30
0.0
 10
-4.93818
 20
2.59503
 30
0.0
 10
-5.02108
 20
2.57844
 30
0.0
 10
-5.02108
 20
2.57844
 30
0.0
 10
-5.13608
 20
2.53012
 30
0.0
 10
-5.27897
 20
2.63207
 30
0.0
 10
-5.28143
 20
2.75449
 30
0.0
 10
-5.28143
 20
2.75449
 30
0.0
 10
-5.28884
 20
2.83316
 30
0.0
 10
-5.23416
 20
2.8963
 30
0.0
 10
-5.1957
 20
2.95875
 30
0.0
 10
-5.1957
 20
2.95875
 30
0.0
 10
-5.2511
 20
3.01871
 30
0.0
 10
-5.33152
 20
3.08044
 30
0.0
 10
-5.30965
 20
3.17287
 30
0.0
 10
-5.30965
 20
3.17287
 30
0.0
 10
-5.31354
 20
3.26284
 30
0.0
 10
-5.22393
 20
3.30799
 30
0.0
 10
-5.16536
 20
3.3595
 30
0.0
 10
-5.16536
 20
3.3595
 30
0.0
 10
-5.20276
 20
3.43853
 30
0.0
 10
-5.23027
 20
3.52777
 30
0.0
 10
-5.19888
 20
3.61385
 30
0.0
 10
-5.19888
 20
3.61385
 30
0.0
 10
-5.16573
 20
3.67205
 30
0.0
 10
-5.09869
 20
3.69817
 30
0.0
 10
-5.04542
 20
3.7345
 30
0.0
 10
-5.04542
 20
3.7345
 30
0.0
 10
-5.07965
 20
3.79306
 30
0.0
 10
-5.11245
 20
3.85234
 30
0.0
 10
-5.14419
 20
3.9123
 30
0.0
 10
-5.14419
 20
3.9123
 30
0.0
 10
-5.21723
 20
3.87068
 30
0.0
 10
-5.30083
 20
3.83222
 30
0.0
 10
-5.38621
 20
3.86115
 30
0.0
 10
-5.38621
 20
3.86115
 30
0.0
 10
-5.46169
 20
3.87278
 30
0.0
 10
-5.48852
 20
3.95393
 30
0.0
 10
-5.52626
 20
4.00897
 30
0.0
 10
-5.52626
 20
4.00897
 30
0.0
 10
-5.60882
 20
3.95534
 30
0.0
 10
-5.72416
 20
3.9257
 30
0.0
 10
-5.80495
 20
3.99944
 30
0.0
 10
-5.80495
 20
3.99944
 30
0.0
 10
-5.86809
 20
4.0393
 30
0.0
 10
-5.87798
 20
4.11268
 30
0.0
 10
-5.88503
 20
4.18007
 30
0.0
 10
-5.88503
 20
4.18007
 30
0.0
 10
-5.95417
 20
4.18041
 30
0.0
 10
-6.02862
 20
4.16382
 30
0.0
 10
-6.09353
 20
4.19488
 30
0.0
 10
-6.09353
 20
4.19488
 30
0.0
 10
-6.19724
 20
4.26261
 30
0.0
 10
-6.22969
 20
4.42348
 30
0.0
 10
-6.13903
 20
4.51555
 30
0.0
 10
-6.13903
 20
4.51555
 30
0.0
 10
-6.08259
 20
4.59846
 30
0.0
 10
-5.97217
 20
4.56881
 30
0.0
 10
-5.88785
 20
4.572
 30
0.0
 10
-5.88785
 20
4.572
 30
0.0
 10
-5.8734
 20
4.64467
 30
0.0
 10
-5.85257
 20
4.72475
 30
0.0
 10
-5.78343
 20
4.76496
 30
0.0
 10
-5.78343
 20
4.76496
 30
0.0
 10
-5.70159
 20
4.81999
 30
0.0
 10
-5.60563
 20
4.77061
 30
0.0
 10
-5.52097
 20
4.75014
 30
0.0
 10
-5.52097
 20
4.75014
 30
0.0
 10
-5.46876
 20
4.79989
 30
0.0
 10
-5.43348
 20
4.88314
 30
0.0
 10
-5.35269
 20
4.88984
 30
0.0
 10
-5.35269
 20
4.88984
 30
0.0
 10
-5.27578
 20
4.90819
 30
0.0
 10
-5.20664
 20
4.86375
 30
0.0
 10
-5.13961
 20
4.83305
 30
0.0
 10
-5.13961
 20
4.83305
 30
0.0
 10
-5.1047
 20
4.89126
 30
0.0
 10
-5.06942
 20
4.94911
 30
0.0
 10
-5.03273
 20
5.00627
 30
0.0
 10
-5.03273
 20
5.00627
 30
0.0
 10
-5.09588
 20
5.04506
 30
0.0
 10
-5.17065
 20
5.08
 30
0.0
 10
-5.19923
 20
5.15372
 30
0.0
 10
-5.19923
 20
5.15372
 30
0.0
 10
-5.21687
 20
5.23416
 30
0.0
 10
-5.1823
 20
5.31001
 30
0.0
 10
-5.15479
 20
5.38339
 30
0.0
 10
-5.15479
 20
5.38339
 30
0.0
 10
-5.21828
 20
5.43031
 30
0.0
 10
-5.29766
 20
5.48252
 30
0.0
 10
-5.28708
 20
5.57354
 30
0.0
 10
-5.28708
 20
5.57354
 30
0.0
 10
-5.30119
 20
5.66137
 30
0.0
 10
-5.24228
 20
5.72947
 30
0.0
 10
-5.18478
 20
5.7866
 30
0.0
 10
-5.18478
 20
5.7866
 30
0.0
 10
-5.21616
 20
5.8427
 30
0.0
 10
-5.25392
 20
5.89774
 30
0.0
 10
-5.26591
 20
5.96194
 30
0.0
 10
-5.26591
 20
5.96194
 30
0.0
 10
-5.25568
 20
6.03496
 30
0.0
 10
-5.21263
 20
6.09599
 30
0.0
 10
-5.17277
 20
6.15597
 30
0.0
  0
SPLINE
  5
43
330
1F
100
AcDbEntity
  8
Camada 1
100
AcDbSpline
210
0.0
220
0.0
230
1.0
 70
    11
 71
     3
 72
    88
 73
    84
 74
     0
 42
0.0000000001
 43
0.0000000001
 12
1.0
 22
0.0
 32
0.0
 13
1.0
 23
0.0
 33
0.0
 40
0.0
 40
0.0
 40
0.0
 40
0.0
 40
0.0454545454545455
 40
0.0454545454545455
 40
0.0454545454545455
 40
0.0454545454545455
 40
0.0909090909090909
 40
0.0909090909090909
 40
0.0909090909090909
 40
0.0909090909090909
 40
0.1363636363636364
 40
0.1363636363636364
 40
0.1363636363636364
 40
0.1363636363636364
 40
0.1818181818181818
 40
0.1818181818181818
 40
0.1818181818181818
 40
0.1818181818181818
 40
0.2272727272727273
 40
0.2272727272727273
 40
0.2272727272727273
 40
0.2272727272727273
 40
0.2727272727272727
 40
0.2727272727272727
 40
0.2727272727272727
 40
0.2727272727272727
 40
0.3181818181818182
 40
0.3181818181818182
 40
0.3181818181818182
 40
0.3181818181818182
 40
0.3636363636363636
 40
0.3636363636363636
 40
0.3636363636363636
 40
0.3636363636363636
 40
0.4090909090909091
 40
0.4090909090909091
 40
0.4090909090909091
 40
0.4090909090909091
 40
0.4545454545454545
 40
0.4545454545454545
 40
0.4545454545454545
 40
0.4545454545454545
 40
0.5
 40
0.5
 40
0.5
 40
0.5
 40
0.5454545454545454
 40
0.5454545454545454
 40
0.5454545454545454
 40
0.5454545454545454
 40
0.5909090909090909
 40
0.5909090909090909
 40
0.5909090909090909
 40
0.5909090909090909
 40
0.6363636363636364
 40
0.6363636363636364
 40
0.6363636363636364
 40
0.6363636363636364
 40
0.6818181818181818
 40
0.6818181818181818
 40
0.6818181818181818
 40
0.6818181818181818
 40
0.7272727272727273
 40
0.7272727272727273
 40
0.7272727272727273
 40
0.7272727272727273
 40
0.7727272727272727
 40
0.7727272727272727
 40
0.7727272727272727
 40
0.7727272727272727
 40
0.8181818181818182
 40
0.8181818181818182
 40
0.8181818181818182
 40
0.8181818181818182
 40
0.8636363636363636
 40
0.8636363636363636
 40
0.8636363636363636
 40
0.8636363636363636
 40
0.9090909090909091
 40
0.9090909090909091
 40
0.9090909090909091
 40
0.9090909090909091
 40
1.0
 40
1.0
 40
1.0
 40
1.0
 10
-5.10399
 20
6.01873
 30
0.0
 10
-5.10399
 20
6.01873
 30
0.0
 10
-5.10399
 20
6.01873
 30
0.0
 10
-5.10399
 20
6.01873
 30
0.0
 10
-5.10399
 20
6.01873
 30
0.0
 10
-5.10292
 20
6.00004
 30
0.0
 10
-5.1001
 20
5.96265
 30
0.0
 10
-5.09905
 20
5.94395
 30
0.0
 10
-5.09905
 20
5.94395
 30
0.0
 10
-4.98086
 20
5.81978
 30
0.0
 10
-4.90078
 20
5.66313
 30
0.0
 10
-4.84258
 20
5.50333
 30
0.0
 10
-4.84258
 20
5.50333
 30
0.0
 10
-4.947
 20
5.53895
 30
0.0
 10
-5.04119
 20
5.59647
 30
0.0
 10
-5.13608
 20
5.6508
 30
0.0
 10
-5.13608
 20
5.6508
 30
0.0
 10
-5.13503
 20
5.61128
 30
0.0
 10
-5.13396
 20
5.57142
 30
0.0
 10
-5.13257
 20
5.53154
 30
0.0
 10
-5.13257
 20
5.53154
 30
0.0
 10
-5.00627
 20
5.53402
 30
0.0
 10
-4.8895
 20
5.47792
 30
0.0
 10
-4.78437
 20
5.41372
 30
0.0
 10
-4.78437
 20
5.41372
 30
0.0
 10
-4.70393
 20
5.33541
 30
0.0
 10
-4.66019
 20
5.22781
 30
0.0
 10
-4.62244
 20
5.12409
 30
0.0
 10
-4.62244
 20
5.12409
 30
0.0
 10
-4.77485
 20
5.14914
 30
0.0
 10
-4.91031
 20
5.22427
 30
0.0
 10
-5.04825
 20
5.2892
 30
0.0
 10
-5.04825
 20
5.2892
 30
0.0
 10
-5.05283
 20
5.25144
 30
0.0
 10
-5.05741
 20
5.2137
 30
0.0
 10
-5.06165
 20
5.17596
 30
0.0
 10
-5.06165
 20
5.17596
 30
0.0
 10
-4.89444
 20
5.17701
 30
0.0
 10
-4.73463
 20
5.11774
 30
0.0
 10
-4.58364
 20
5.05107
 30
0.0
 10
-4.58364
 20
5.05107
 30
0.0
 10
-4.52154
 20
4.98052
 30
0.0
 10
-4.47922
 20
4.89444
 30
0.0
 10
-4.41184
 20
4.82847
 30
0.0
 10
-4.41184
 20
4.82847
 30
0.0
 10
-4.44076
 20
4.92441
 30
0.0
 10
-4.51626
 20
5.00944
 30
0.0
 10
-4.50497
 20
5.11457
 30
0.0
 10
-4.50497
 20
5.11457
 30
0.0
 10
-4.49862
 20
5.27755
 30
0.0
 10
-4.44605
 20
5.43453
 30
0.0
 10
-4.38221
 20
5.58305
 30
0.0
 10
-4.38221
 20
5.58305
 30
0.0
 10
-4.42066
 20
5.58729
 30
0.0
 10
-4.45947
 20
5.59152
 30
0.0
 10
-4.49826
 20
5.59576
 30
0.0
 10
-4.49826
 20
5.59576
 30
0.0
 10
-4.48839
 20
5.44583
 30
0.0
 10
-4.48486
 20
5.28672
 30
0.0
 10
-4.5787
 20
5.15972
 30
0.0
 10
-4.5787
 20
5.15972
 30
0.0
 10
-4.63479
 20
5.26803
 30
0.0
 10
-4.73145
 20
5.37069
 30
0.0
 10
-4.71452
 20
5.50157
 30
0.0
 10
-4.71452
 20
5.50157
 30
0.0
 10
-4.72015
 20
5.61764
 30
0.0
 10
-4.70322
 20
5.73369
 30
0.0
 10
-4.64185
 20
5.83423
 30
0.0
 10
-4.64185
 20
5.83423
 30
0.0
 10
-4.68806
 20
5.84517
 30
0.0
 10
-4.73533
 20
5.84482
 30
0.0
 10
-4.78225
 20
5.83776
 30
0.0
 10
-4.78225
 20
5.83776
 30
0.0
 10
-4.73569
 20
5.74462
 30
0.0
 10
-4.72263
 20
5.62926
 30
0.0
 10
-4.79142
 20
5.54177
 30
0.0
 10
-4.79142
 20
5.54177
 30
0.0
 10
-4.86833
 20
5.69489
 30
0.0
 10
-4.98792
 20
5.83564
 30
0.0
 10
-5.00591
 20
6.01132
 30
0.0
 10
-5.00591
 20
6.01132
 30
0.0
 10
-5.03872
 20
6.0138
 30
0.0
 10
-5.07152
 20
6.01627
 30
0.0
 10
-5.10399
 20
6.01873
 30
0.0
  0
SPLINE
  5
44
330
1F
100
AcDbEntity
  8
Camada 1
100
AcDbSpline
210
0.0
220
0.0
230
1.0
 70
    11
 71
     3
 72
    88
 73
    84
 74
     0
 42
0.0000000001
 43
0.0000000001
 12
1.0
 22
0.0
 32
0.0
 13
1.0
 23
0.0
 33
0.0
 40
0.0
 40
0.0
 40
0.0
 40
0.0
 40
0.0454545454545455
 40
0.0454545454545455
 40
0.0454545454545455
 40
0.0454545454545455
 40
0.0909090909090909
 40
0.0909090909090909
 40
0.0909090909090909
 40
0.0909090909090909
 40
0.1363636363636364
 40
0.1363636363636364
 40
0.1363636363636364
 40
0.1363636363636364
 40
0.1818181818181818
 40
0.1818181818181818
 40
0.1818181818181818
 40
0.1818181818181818
 40
0.2272727272727273
 40
0.2272727272727273
 40
0.2272727272727273
 40
0.2272727272727273
 40
0.2727272727272727
 40
0.2727272727272727
 40
0.2727272727272727
 40
0.2727272727272727
 40
0.3181818181818182
 40
0.3181818181818182
 40
0.3181818181818182
 40
0.3181818181818182
 40
0.3636363636363636
 40
0.3636363636363636
 40
0.3636363636363636
 40
0.3636363636363636
 40
0.4090909090909091
 40
0.4090909090909091
 40
0.4090909090909091
 40
0.4090909090909091
 40
0.4545454545454545
 40
0.4545454545454545
 40
0.4545454545454545
 40
0.4545454545454545
 40
0.5
 40
0.5
 40
0.5
 40
0.5
 40
0.5454545454545454
 40
0.5454545454545454
 40
0.5454545454545454
 40
0.5454545454545454
 40
0.5909090909090909
 40
0.5909090909090909
 40
0.5909090909090909
 40
0.5909090909090909
 40
0.6363636363636364
 40
0.6363636363636364
 40
0.6363636363636364
 40
0.6363636363636364
 40
0.6818181818181818
 40
0.6818181818181818
 40
0.6818181818181818
 40
0.6818181818181818
 40
0.7272727272727273
 40
0.7272727272727273
 40
0.7272727272727273
 40
0.7272727272727273
 40
0.7727272727272727
 40
0.7727272727272727
 40
0.7727272727272727
 40
0.7727272727272727
 40
0.8181818181818182
 40
0.8181818181818182
 40
0.8181818181818182
 40
0.8181818181818182
 40
0.8636363636363636
 40
0.8636363636363636
 40
0.8636363636363636
 40
0.8636363636363636
 40
0.9090909090909091
 40
0.9090909090909091
 40
0.9090909090909091
 40
0.9090909090909091
 40
1.0
 40
1.0
 40
1.0
 40
1.0
 10
-3.25013
 20
6.0138
 30
0.0
 10
-3.25013
 20
6.0138
 30
0.0
 10
-3.25013
 20
6.0138
 30
0.0
 10
-3.25013
 20
6.0138
 30
0.0
 10
-3.25013
 20
6.0138
 30
0.0
 10
-3.28365
 20
5.8307
 30
0.0
 10
-3.40713
 20
5.6843
 30
0.0
 10
-3.49637
 20
5.52662
 30
0.0
 10
-3.49637
 20
5.52662
 30
0.0
 10
-3.56658
 20
5.62539
 30
0.0
 10
-3.53165
 20
5.7358
 30
0.0
 10
-3.49885
 20
5.83988
 30
0.0
 10
-3.49885
 20
5.83988
 30
0.0
 10
-3.54083
 20
5.84022
 30
0.0
 10
-3.58245
 20
5.83988
 30
0.0
 10
-3.62408
 20
5.83952
 30
0.0
 10
-3.62408
 20
5.83952
 30
0.0
 10
-3.56059
 20
5.70194
 30
0.0
 10
-3.56834
 20
5.54567
 30
0.0
 10
-3.57611
 20
5.39784
 30
0.0
 10
-3.57611
 20
5.39784
 30
0.0
 10
-3.60749
 20
5.31106
 30
0.0
 10
-3.66572
 20
5.23733
 30
0.0
 10
-3.71369
 20
5.15937
 30
0.0
 10
-3.71369
 20
5.15937
 30
0.0
 10
-3.79377
 20
5.2966
 30
0.0
 10
-3.79835
 20
5.45394
 30
0.0
 10
-3.79482
 20
5.60775
 30
0.0
 10
-3.79482
 20
5.60775
 30
0.0
 10
-3.82693
 20
5.59717
 30
0.0
 10
-3.85867
 20
5.58553
 30
0.0
 10
-3.89008
 20
5.57354
 30
0.0
 10
-3.89008
 20
5.57354
 30
0.0
 10
-3.83892
 20
5.41019
 30
0.0
 10
-3.79095
 20
5.24544
 30
0.0
 10
-3.7525
 20
5.07824
 30
0.0
 10
-3.7525
 20
5.07824
 30
0.0
 10
-3.80259
 20
5.00238
 30
0.0
 10
-3.85127
 20
4.92548
 30
0.0
 10
-3.90136
 20
4.84964
 30
0.0
 10
-3.90136
 20
4.84964
 30
0.0
 10
-3.88549
 20
4.85104
 30
0.0
 10
-3.85304
 20
4.85352
 30
0.0
 10
-3.8368
 20
4.85457
 30
0.0
 10
-3.8368
 20
4.85457
 30
0.0
 10
-3.7973
 20
4.92337
 30
0.0
 10
-3.76695
 20
5.00238
 30
0.0
 10
-3.7017
 20
5.05178
 30
0.0
 10
-3.7017
 20
5.05178
 30
0.0
 10
-3.544
 20
5.1075
 30
0.0
 10
-3.38278
 20
5.16573
 30
0.0
 10
-3.21415
 20
5.17384
 30
0.0
 10
-3.21415
 20
5.17384
 30
0.0
 10
-3.22333
 20
5.20629
 30
0.0
 10
-3.23285
 20
5.2384
 30
0.0
 10
-3.24309
 20
5.27049
 30
0.0
 10
-3.24309
 20
5.27049
 30
0.0
 10
-3.38384
 20
5.21511
 30
0.0
 10
-3.51437
 20
5.12268
 30
0.0
 10
-3.67205
 20
5.12409
 30
0.0
 10
-3.67205
 20
5.12409
 30
0.0
 10
-3.62303
 20
5.22286
 30
0.0
 10
-3.57716
 20
5.32906
 30
0.0
 10
-3.4932
 20
5.40419
 30
0.0
 10
-3.4932
 20
5.40419
 30
0.0
 10
-3.3842
 20
5.47722
 30
0.0
 10
-3.25613
 20
5.52309
 30
0.0
 10
-3.1249
 20
5.53191
 30
0.0
 10
-3.1249
 20
5.53191
 30
0.0
 10
-3.12807
 20
5.56789
 30
0.0
 10
-3.1316
 20
5.60387
 30
0.0
 10
-3.13477
 20
5.63986
 30
0.0
 10
-3.13477
 20
5.63986
 30
0.0
 10
-3.24061
 20
5.59118
 30
0.0
 10
-3.33798
 20
5.52484
 30
0.0
 10
-3.44945
 20
5.48852
 30
0.0
 10
-3.44945
 20
5.48852
 30
0.0
 10
-3.38101
 20
5.68006
 30
0.0
 10
-3.2399
 20
5.82965
 30
0.0
 10
-3.1443
 20
6.00533
 30
0.0
 10
-3.1443
 20
6.00533
 30
0.0
 10
-3.17994
 20
6.00816
 30
0.0
 10
-3.21486
 20
6.01098
 30
0.0
 10
-3.25013
 20
6.0138
 30
0.0
  0
SPLINE
  5
45
330
1F
100
AcDbEntity
  8
Camada 1
100
AcDbSpline
210
0.0
220
0.0
230
1.0
 70
    11
 71
     3
 72
    20
 73
    16
 74
     0
 42
0.0000000001
 43
0.0000000001
 12
1.0
 22
0.0
 32
0.0
 13
1.0
 23
0.0
 33
0.0
 40
0.0
 40
0.0
 40
0.0
 40
0.0
 40
0.2
 40
0.2
 40
0.2
 40
0.2
 40
0.4
 40
0.4
 40
0.4
 40
0.4
 40
0.6
 40
0.6
 40
0.6
 40
0.6
 40
1.0
 40
1.0
 40
1.0
 40
1.0
 10
-4.26861
 20
5.0366
 30
0.0
 10
-4.26861
 20
5.0366
 30
0.0
 10
-4.26861
 20
5.0366
 30
0.0
 10
-4.26861
 20
5.0366
 30
0.0
 10
-4.26861
 20
5.0366
 30
0.0
 10
-4.32859
 20
4.88492
 30
0.0
 10
-4.22063
 20
4.72968
 30
0.0
 10
-4.15395
 20
4.59739
 30
0.0
 10
-4.15395
 20
4.59739
 30
0.0
 10
-4.06471
 20
4.73779
 30
0.0
 10
-4.00614
 20
4.9022
 30
0.0
 10
-4.03472
 20
5.07012
 30
0.0
 10
-4.03472
 20
5.07012
 30
0.0
 10
-4.11091
 20
5.08565
 30
0.0
 10
-4.23121
 20
5.13574
 30
0.0
 10
-4.26861
 20
5.0366
 30
0.0
  0
SPLINE
  5
46
330
1F
100
AcDbEntity
  8
Camada 1
100
AcDbSpline
210
0.0
220
0.0
230
1.0
 70
    11
 71
     3
 72
    20
 73
    16
 74
     0
 42
0.0000000001
 43
0.0000000001
 12
1.0
 22
0.0
 32
0.0
 13
1.0
 23
0.0
 33
0.0
 40
0.0
 40
0.0
 40
0.0
 40
0.0
 40
0.2
 40
0.2
 40
0.2
 40
0.2
 40
0.4
 40
0.4
 40
0.4
 40
0.4
 40
0.6
 40
0.6
 40
0.6
 40
0.6
 40
1.0
 40
1.0
 40
1.0
 40
1.0
 10
-4.80659
 20
4.62597
 30
0.0
 10
-4.80659
 20
4.62597
 30
0.0
 10
-4.80659
 20
4.62597
 30
0.0
 10
-4.80659
 20
4.62597
 30
0.0
 10
-4.80659
 20
4.62597
 30
0.0
 10
-4.71981
 20
4.46933
 30
0.0
 10
-4.50673
 20
4.48062
 30
0.0
 10
-4.35186
 20
4.47145
 30
0.0
 10
-4.35186
 20
4.47145
 30
0.0
 10
-4.41289
 20
4.5921
 30
0.0
 10
-4.50003
 20
4.70146
 30
0.0
 10
-4.61222
 20
4.77801
 30
0.0
 10
-4.61222
 20
4.77801
 30
0.0
 10
-4.71452
 20
4.83129
 30
0.0
 10
-4.82528
 20
4.73109
 30
0.0
 10
-4.80659
 20
4.62597
 30
0.0
  0
SPLINE
  5
47
330
1F
100
AcDbEntity
  8
Camada 1
100
AcDbSpline
210
0.0
220
0.0
230
1.0
 70
    11
 71
     3
 72
    20
 73
    16
 74
     0
 42
0.0000000001
 43
0.0000000001
 12
1.0
 22
0.0
 32
0.0
 13
1.0
 23
0.0
 33
0.0
 40
0.0
 40
0.0
 40
0.0
 40
0.0
 40
0.2
 40
0.2
 40
0.2
 40
0.2
 40
0.4
 40
0.4
 40
0.4
 40
0.4
 40
0.6
 40
0.6
 40
0.6
 40
0.6
 40
1.0
 40
1.0
 40
1.0
 40
1.0
 10
-3.9504
 20
4.48944
 30
0.0
 10
-3.9504
 20
4.48944
 30
0.0
 10
-3.9504
 20
4.48944
 30
0.0
 10
-3.9504
 20
4.48944
 30
0.0
 10
-3.9504
 20
4.48944
 30
0.0
 10
-3.80505
 20
4.48875
 30
0.0
 10
-3.64418
 20
4.49192
 30
0.0
 10
-3.52319
 20
4.58328
 30
0.0
 10
-3.52319
 20
4.58328
 30
0.0
 10
-3.44699
 20
4.67995
 30
0.0
 10
-3.53942
 20
4.78649
 30
0.0
 10
-3.63185
 20
4.82389
 30
0.0
 10
-3.63185
 20
4.82389
 30
0.0
 10
-3.77718
 20
4.7558
 30
0.0
 10
-3.87314
 20
4.62492
 30
0.0
 10
-3.9504
 20
4.48944
 30
0.0
  0
SPLINE
  5
48
330
1F
100
AcDbEntity
  8
Camada 1
100
AcDbSpline
210
0.0
220
0.0
230
1.0
 70
    11
 71
     3
 72
    96
 73
    92
 74
     0
 42
0.0000000001
 43
0.0000000001
 12
1.0
 22
0.0
 32
0.0
 13
1.0
 23
0.0
 33
0.0
 40
0.0
 40
0.0
 40
0.0
 40
0.0
 40
0.0416666666666667
 40
0.0416666666666667
 40
0.0416666666666667
 40
0.0416666666666667
 40
0.0833333333333333
 40
0.0833333333333333
 40
0.0833333333333333
 40
0.0833333333333333
 40
0.125
 40
0.125
 40
0.125
 40
0.125
 40
0.1666666666666667
 40
0.1666666666666667
 40
0.1666666666666667
 40
0.1666666666666667
 40
0.2083333333333333
 40
0.2083333333333333
 40
0.2083333333333333
 40
0.2083333333333333
 40
0.25
 40
0.25
 40
0.25
 40
0.25
 40
0.2916666666666667
 40
0.2916666666666667
 40
0.2916666666666667
 40
0.2916666666666667
 40
0.3333333333333333
 40
0.3333333333333333
 40
0.3333333333333333
 40
0.3333333333333333
 40
0.375
 40
0.375
 40
0.375
 40
0.375
 40
0.4166666666666667
 40
0.4166666666666667
 40
0.4166666666666667
 40
0.4166666666666667
 40
0.4583333333333333
 40
0.4583333333333333
 40
0.4583333333333333
 40
0.4583333333333333
 40
0.5
 40
0.5
 40
0.5
 40
0.5
 40
0.5416666666666666
 40
0.5416666666666666
 40
0.5416666666666666
 40
0.5416666666666666
 40
0.5833333333333334
 40
0.5833333333333334
 40
0.5833333333333334
 40
0.5833333333333334
 40
0.625
 40
0.625
 40
0.625
 40
0.625
 40
0.6666666666666666
 40
0.6666666666666666
 40
0.6666666666666666
 40
0.6666666666666666
 40
0.7083333333333334
 40
0.7083333333333334
 40
0.7083333333333334
 40
0.7083333333333334
 40
0.75
 40
0.75
 40
0.75
 40
0.75
 40
0.7916666666666666
 40
0.7916666666666666
 40
0.7916666666666666
 40
0.7916666666666666
 40
0.8333333333333334
 40
0.8333333333333334
 40
0.8333333333333334
 40
0.8333333333333334
 40
0.875
 40
0.875
 40
0.875
 40
0.875
 40
0.9166666666666666
 40
0.9166666666666666
 40
0.9166666666666666
 40
0.9166666666666666
 40
1.0
 40
1.0
 40
1.0
 40
1.0
 10
-5.34282
 20
4.74802
 30
0.0
 10
-5.34282
 20
4.74802
 30
0.0
 10
-5.34282
 20
4.74802
 30
0.0
 10
-5.34282
 20
4.74802
 30
0.0
 10
-5.34282
 20
4.74802
 30
0.0
 10
-5.35552
 20
4.72263
 30
0.0
 10
-5.36821
 20
4.69759
 30
0.0
 10
-5.38091
 20
4.67218
 30
0.0
 10
-5.38091
 20
4.67218
 30
0.0
 10
-5.24262
 20
4.61573
 30
0.0
 10
-5.13221
 20
4.51202
 30
0.0
 10
-5.03943
 20
4.39702
 30
0.0
 10
-5.03943
 20
4.39702
 30
0.0
 10
-5.14597
 20
4.39349
 30
0.0
 10
-5.25285
 20
4.38572
 30
0.0
 10
-5.35905
 20
4.39737
 30
0.0
 10
-5.35905
 20
4.39737
 30
0.0
 10
-5.47441
 20
4.45557
 30
0.0
 10
-5.56577
 20
4.54766
 30
0.0
 10
-5.66067
 20
4.63303
 30
0.0
 10
-5.66067
 20
4.63303
 30
0.0
 10
-5.68642
 20
4.63656
 30
0.0
 10
-5.71253
 20
4.63868
 30
0.0
 10
-5.73863
 20
4.63937
 30
0.0
 10
-5.73863
 20
4.63937
 30
0.0
 10
-5.73546
 20
4.6161
 30
0.0
 10
-5.7284
 20
4.56917
 30
0.0
 10
-5.72523
 20
4.54554
 30
0.0
 10
-5.72523
 20
4.54554
 30
0.0
 10
-5.62256
 20
4.54342
 30
0.0
 10
-5.54036
 20
4.48203
 30
0.0
 10
-5.48604
 20
4.39773
 30
0.0
 10
-5.48604
 20
4.39773
 30
0.0
 10
-5.67265
 20
4.39313
 30
0.0
 10
-5.86458
 20
4.37268
 30
0.0
 10
-6.04485
 20
4.43442
 30
0.0
 10
-6.04485
 20
4.43442
 30
0.0
 10
-6.04519
 20
4.3949
 30
0.0
 10
-6.04519
 20
4.35504
 30
0.0
 10
-6.04519
 20
4.31517
 30
0.0
 10
-6.04519
 20
4.31517
 30
0.0
 10
-5.86281
 20
4.36562
 30
0.0
 10
-5.65114
 20
4.39067
 30
0.0
 10
-5.47616
 20
4.31095
 30
0.0
 10
-5.47616
 20
4.31095
 30
0.0
 10
-5.55412
 20
4.25944
 30
0.0
 10
-5.63562
 20
4.20899
 30
0.0
 10
-5.73122
 20
4.20158
 30
0.0
 10
-5.73122
 20
4.20158
 30
0.0
 10
-5.73017
 20
4.16418
 30
0.0
 10
-5.72876
 20
4.12679
 30
0.0
 10
-5.72735
 20
4.08905
 30
0.0
 10
-5.72735
 20
4.08905
 30
0.0
 10
-5.62115
 20
4.13456
 30
0.0
 10
-5.54672
 20
4.22733
 30
0.0
 10
-5.45076
 20
4.28871
 30
0.0
 10
-5.45076
 20
4.28871
 30
0.0
 10
-5.33822
 20
4.38467
 30
0.0
 10
-5.16784
 20
4.37479
 30
0.0
 10
-5.04048
 20
4.31729
 30
0.0
 10
-5.04048
 20
4.31729
 30
0.0
 10
-5.14314
 20
4.2238
 30
0.0
 10
-5.25322
 20
4.13914
 30
0.0
 10
-5.37245
 20
4.06788
 30
0.0
 10
-5.37245
 20
4.06788
 30
0.0
 10
-5.39221
 20
4.01284
 30
0.0
 10
-5.35657
 20
3.9945
 30
0.0
 10
-5.30542
 20
4.00261
 30
0.0
 10
-5.30542
 20
4.00261
 30
0.0
 10
-5.18795
 20
4.12396
 30
0.0
 10
-5.07646
 20
4.2545
 30
0.0
 10
-4.93747
 20
4.35222
 30
0.0
 10
-4.93747
 20
4.35222
 30
0.0
 10
-4.8588
 20
4.35785
 30
0.0
 10
-4.77979
 20
4.35363
 30
0.0
 10
-4.70076
 20
4.35222
 30
0.0
 10
-4.70076
 20
4.35222
 30
0.0
 10
-4.70146
 20
4.36174
 30
0.0
 10
-4.70322
 20
4.38114
 30
0.0
 10
-4.70393
 20
4.39103
 30
0.0
 10
-4.70393
 20
4.39103
 30
0.0
 10
-4.78613
 20
4.39103
 30
0.0
 10
-4.86798
 20
4.39103
 30
0.0
 10
-4.94946
 20
4.38855
 30
0.0
 10
-4.94946
 20
4.38855
 30
0.0
 10
-5.06341
 20
4.50532
 30
0.0
 10
-5.20206
 20
4.60162
 30
0.0
 10
-5.2853
 20
4.74486
 30
0.0
 10
-5.2853
 20
4.74486
 30
0.0
 10
-5.29978
 20
4.74556
 30
0.0
 10
-5.3287
 20
4.74732
 30
0.0
 10
-5.34282
 20
4.74802
 30
0.0
  0
SPLINE
  5
49
330
1F
100
AcDbEntity
  8
Camada 1
100
AcDbSpline
210
0.0
220
0.0
230
1.0
 70
    11
 71
     3
 72
    92
 73
    88
 74
     0
 42
0.0000000001
 43
0.0000000001
 12
1.0
 22
0.0
 32
0.0
 13
1.0
 23
0.0
 33
0.0
 40
0.0
 40
0.0
 40
0.0
 40
0.0
 40
0.0434782608695652
 40
0.0434782608695652
 40
0.0434782608695652
 40
0.0434782608695652
 40
0.0869565217391304
 40
0.0869565217391304
 40
0.0869565217391304
 40
0.0869565217391304
 40
0.1304347826086956
 40
0.1304347826086956
 40
0.1304347826086956
 40
0.1304347826086956
 40
0.1739130434782609
 40
0.1739130434782609
 40
0.1739130434782609
 40
0.1739130434782609
 40
0.2173913043478261
 40
0.2173913043478261
 40
0.2173913043478261
 40
0.2173913043478261
 40
0.2608695652173913
 40
0.2608695652173913
 40
0.2608695652173913
 40
0.2608695652173913
 40
0.3043478260869565
 40
0.3043478260869565
 40
0.3043478260869565
 40
0.3043478260869565
 40
0.3478260869565217
 40
0.3478260869565217
 40
0.3478260869565217
 40
0.3478260869565217
 40
0.391304347826087
 40
0.391304347826087
 40
0.391304347826087
 40
0.391304347826087
 40
0.4347826086956522
 40
0.4347826086956522
 40
0.4347826086956522
 40
0.4347826086956522
 40
0.4782608695652174
 40
0.4782608695652174
 40
0.4782608695652174
 40
0.4782608695652174
 40
0.5217391304347826
 40
0.5217391304347826
 40
0.5217391304347826
 40
0.5217391304347826
 40
0.5652173913043478
 40
0.5652173913043478
 40
0.5652173913043478
 40
0.5652173913043478
 40
0.6086956521739131
 40
0.6086956521739131
 40
0.6086956521739131
 40
0.6086956521739131
 40
0.6521739130434783
 40
0.6521739130434783
 40
0.6521739130434783
 40
0.6521739130434783
 40
0.6956521739130435
 40
0.6956521739130435
 40
0.6956521739130435
 40
0.6956521739130435
 40
0.7391304347826086
 40
0.7391304347826086
 40
0.7391304347826086
 40
0.7391304347826086
 40
0.782608695652174
 40
0.782608695652174
 40
0.782608695652174
 40
0.782608695652174
 40
0.8260869565217391
 40
0.8260869565217391
 40
0.8260869565217391
 40
0.8260869565217391
 40
0.8695652173913043
 40
0.8695652173913043
 40
0.8695652173913043
 40
0.8695652173913043
 40
0.9130434782608695
 40
0.9130434782608695
 40
0.9130434782608695
 40
0.9130434782608695
 40
1.0
 40
1.0
 40
1.0
 40
1.0
 10
-2.98131
 20
4.74944
 30
0.0
 10
-2.98131
 20
4.74944
 30
0.0
 10
-2.98131
 20
4.74944
 30
0.0
 10
-2.98131
 20
4.74944
 30
0.0
 10
-2.98131
 20
4.74944
 30
0.0
 10
-3.08256
 20
4.61081
 30
0.0
 10
-3.20886
 20
4.48909
 30
0.0
 10
-3.34856
 20
4.39032
 30
0.0
 10
-3.34856
 20
4.39032
 30
0.0
 10
-3.42864
 20
4.38538
 30
0.0
 10
-3.50872
 20
4.38925
 30
0.0
 10
-3.5888
 20
4.39103
 30
0.0
 10
-3.5888
 20
4.39103
 30
0.0
 10
-3.5888
 20
4.38185
 30
0.0
 10
-3.5888
 20
4.36316
 30
0.0
 10
-3.5888
 20
4.35397
 30
0.0
 10
-3.5888
 20
4.35397
 30
0.0
 10
-3.51296
 20
4.34833
 30
0.0
 10
-3.43076
 20
4.36915
 30
0.0
 10
-3.35915
 20
4.33951
 30
0.0
 10
-3.35915
 20
4.33951
 30
0.0
 10
-3.21062
 20
4.22663
 30
0.0
 10
-3.08609
 20
4.08657
 30
0.0
 10
-2.95945
 20
3.9504
 30
0.0
 10
-2.95945
 20
3.9504
 30
0.0
 10
-2.95098
 20
3.98814
 30
0.0
 10
-2.94252
 20
4.0259
 30
0.0
 10
-2.93441
 20
4.0633
 30
0.0
 10
-2.93441
 20
4.0633
 30
0.0
 10
-3.05964
 20
4.12184
 30
0.0
 10
-3.15911
 20
4.21957
 30
0.0
 10
-3.25895
 20
4.31236
 30
0.0
 10
-3.25895
 20
4.31236
 30
0.0
 10
-3.1757
 20
4.3434
 30
0.0
 10
-3.08785
 20
4.36562
 30
0.0
 10
-2.99861
 20
4.35292
 30
0.0
 10
-2.99861
 20
4.35292
 30
0.0
 10
-2.82434
 20
4.31058
 30
0.0
 10
-2.72908
 20
4.13526
 30
0.0
 10
-2.57033
 20
4.06505
 30
0.0
 10
-2.57033
 20
4.06505
 30
0.0
 10
-2.56504
 20
4.09928
 30
0.0
 10
-2.5601
 20
4.13349
 30
0.0
 10
-2.55481
 20
4.16772
 30
0.0
 10
-2.55481
 20
4.16772
 30
0.0
 10
-2.65888
 20
4.19311
 30
0.0
 10
-2.75237
 20
4.24709
 30
0.0
 10
-2.83562
 20
4.31305
 30
0.0
 10
-2.83562
 20
4.31305
 30
0.0
 10
-2.77388
 20
4.32893
 30
0.0
 10
-2.71073
 20
4.34199
 30
0.0
 10
-2.64653
 20
4.3328
 30
0.0
 10
-2.64653
 20
4.3328
 30
0.0
 10
-2.52377
 20
4.31765
 30
0.0
 10
-2.39289
 20
4.34586
 30
0.0
 10
-2.27787
 20
4.28871
 30
0.0
 10
-2.27787
 20
4.28871
 30
0.0
 10
-2.26377
 20
4.32505
 30
0.0
 10
-2.2493
 20
4.36138
 30
0.0
 10
-2.23555
 20
4.39773
 30
0.0
 10
-2.23555
 20
4.39773
 30
0.0
 10
-2.43311
 20
4.37232
 30
0.0
 10
-2.63735
 20
4.32505
 30
0.0
 10
-2.83069
 20
4.40443
 30
0.0
 10
-2.83069
 20
4.40443
 30
0.0
 10
-2.7453
 20
4.46405
 30
0.0
 10
-2.65324
 20
4.5152
 30
0.0
 10
-2.55198
 20
4.54306
 30
0.0
 10
-2.55198
 20
4.54306
 30
0.0
 10
-2.55905
 20
4.57799
 30
0.0
 10
-2.56611
 20
4.61327
 30
0.0
 10
-2.57315
 20
4.64819
 30
0.0
 10
-2.57315
 20
4.64819
 30
0.0
 10
-2.69521
 20
4.57446
 30
0.0
 10
-2.78835
 20
4.46051
 30
0.0
 10
-2.91429
 20
4.39278
 30
0.0
 10
-2.91429
 20
4.39278
 30
0.0
 10
-3.0293
 20
4.37902
 30
0.0
 10
-3.14537
 20
4.38784
 30
0.0
 10
-3.26002
 20
4.39807
 30
0.0
 10
-3.26002
 20
4.39807
 30
0.0
 10
-3.15524
 20
4.50497
 30
0.0
 10
-3.03776
 20
4.60058
 30
0.0
 10
-2.90264
 20
4.66653
 30
0.0
 10
-2.90264
 20
4.66653
 30
0.0
 10
-2.92876
 20
4.6944
 30
0.0
 10
-2.95485
 20
4.72193
 30
0.0
 10
-2.98131
 20
4.74944
 30
0.0
  0
SPLINE
  5
4A
330
1F
100
AcDbEntity
  8
Camada 1
100
AcDbSpline
210
0.0
220
0.0
230
1.0
 70
    11
 71
     3
 72
    36
 73
    32
 74
     0
 42
0.0000000001
 43
0.0000000001
 12
1.0
 22
0.0
 32
0.0
 13
1.0
 23
0.0
 33
0.0
 40
0.0
 40
0.0
 40
0.0
 40
0.0
 40
0.1111111111111111
 40
0.1111111111111111
 40
0.1111111111111111
 40
0.1111111111111111
 40
0.2222222222222222
 40
0.2222222222222222
 40
0.2222222222222222
 40
0.2222222222222222
 40
0.3333333333333333
 40
0.3333333333333333
 40
0.3333333333333333
 40
0.3333333333333333
 40
0.4444444444444444
 40
0.4444444444444444
 40
0.4444444444444444
 40
0.4444444444444444
 40
0.5555555555555556
 40
0.5555555555555556
 40
0.5555555555555556
 40
0.5555555555555556
 40
0.6666666666666666
 40
0.6666666666666666
 40
0.6666666666666666
 40
0.6666666666666666
 40
0.7777777777777778
 40
0.7777777777777778
 40
0.7777777777777778
 40
0.7777777777777778
 40
1.0
 40
1.0
 40
1.0
 40
1.0
 10
-4.22768
 20
4.48663
 30
0.0
 10
-4.22768
 20
4.48663
 30
0.0
 10
-4.22768
 20
4.48663
 30
0.0
 10
-4.22768
 20
4.48663
 30
0.0
 10
-4.22768
 20
4.48663
 30
0.0
 10
-4.24356
 20
4.44041
 30
0.0
 10
-4.2612
 20
4.3949
 30
0.0
 10
-4.28096
 20
4.35044
 30
0.0
 10
-4.28096
 20
4.35044
 30
0.0
 10
-4.25767
 20
4.31729
 30
0.0
 10
-4.23474
 20
4.28378
 30
0.0
 10
-4.21252
 20
4.24956
 30
0.0
 10
-4.21252
 20
4.24956
 30
0.0
 10
-4.16701
 20
4.24992
 30
0.0
 10
-4.12184
 20
4.24992
 30
0.0
 10
-4.07634
 20
4.24885
 30
0.0
 10
-4.07634
 20
4.24885
 30
0.0
 10
-4.052
 20
4.28907
 30
0.0
 10
-4.0266
 20
4.32822
 30
0.0
 10
-4.00015
 20
4.36667
 30
0.0
 10
-4.00015
 20
4.36667
 30
0.0
 10
-4.02943
 20
4.39242
 30
0.0
 10
-4.0587
 20
4.41783
 30
0.0
 10
-4.08798
 20
4.44358
 30
0.0
 10
-4.08798
 20
4.44358
 30
0.0
 10
-4.07458
 20
4.45664
 30
0.0
 10
-4.04812
 20
4.48274
 30
0.0
 10
-4.03472
 20
4.49545
 30
0.0
 10
-4.03472
 20
4.49545
 30
0.0
 10
-4.09892
 20
4.49121
 30
0.0
 10
-4.16348
 20
4.48875
 30
0.0
 10
-4.22768
 20
4.48663
 30
0.0
  0
SPLINE
  5
4B
330
1F
100
AcDbEntity
  8
Camada 1
100
AcDbSpline
210
0.0
220
0.0
230
1.0
 70
    11
 71
     3
 72
    20
 73
    16
 74
     0
 42
0.0000000001
 43
0.0000000001
 12
1.0
 22
0.0
 32
0.0
 13
1.0
 23
0.0
 33
0.0
 40
0.0
 40
0.0
 40
0.0
 40
0.0
 40
0.2
 40
0.2
 40
0.2
 40
0.2
 40
0.4
 40
0.4
 40
0.4
 40
0.4
 40
0.6
 40
0.6
 40
0.6
 40
0.6
 40
1.0
 40
1.0
 40
1.0
 40
1.0
 10
-4.77979
 20
4.13631
 30
0.0
 10
-4.77979
 20
4.13631
 30
0.0
 10
-4.77979
 20
4.13631
 30
0.0
 10
-4.77979
 20
4.13631
 30
0.0
 10
-4.77979
 20
4.13631
 30
0.0
 10
-4.82776
 20
4.03684
 30
0.0
 10
-4.75333
 20
3.88902
 30
0.0
 10
-4.63091
 20
3.92923
 30
0.0
 10
-4.63091
 20
3.92923
 30
0.0
 10
-4.49757
 20
3.98955
 30
0.0
 10
-4.41147
 20
4.12291
 30
0.0
 10
-4.33987
 20
4.24602
 30
0.0
 10
-4.33987
 20
4.24602
 30
0.0
 10
-4.49085
 20
4.24285
 30
0.0
 10
-4.65349
 20
4.22663
 30
0.0
 10
-4.77979
 20
4.13631
 30
0.0
  0
SPLINE
  5
4C
330
1F
100
AcDbEntity
  8
Camada 1
100
AcDbSpline
210
0.0
220
0.0
230
1.0
 70
    11
 71
     3
 72
    20
 73
    16
 74
     0
 42
0.0000000001
 43
0.0000000001
 12
1.0
 22
0.0
 32
0.0
 13
1.0
 23
0.0
 33
0.0
 40
0.0
 40
0.0
 40
0.0
 40
0.0
 40
0.2
 40
0.2
 40
0.2
 40
0.2
 40
0.4
 40
0.4
 40
0.4
 40
0.4
 40
0.6
 40
0.6
 40
0.6
 40
0.6
 40
1.0
 40
1.0
 40
1.0
 40
1.0
 10
-3.94229
 20
4.24956
 30
0.0
 10
-3.94229
 20
4.24956
 30
0.0
 10
-3.94229
 20
4.24956
 30
0.0
 10
-3.94229
 20
4.24956
 30
0.0
 10
-3.94229
 20
4.24956
 30
0.0
 10
-3.86432
 20
4.12503
 30
0.0
 10
-3.78071
 20
3.98215
 30
0.0
 10
-3.6329
 20
3.93242
 30
0.0
 10
-3.6329
 20
3.93242
 30
0.0
 10
-3.52
 20
3.91583
 30
0.0
 10
-3.43746
 20
4.08834
 30
0.0
 10
-3.52602
 20
4.16277
 30
0.0
 10
-3.52602
 20
4.16277
 30
0.0
 10
-3.64559
 20
4.24885
 30
0.0
 10
-3.80083
 20
4.25309
 30
0.0
 10
-3.94229
 20
4.24956
 30
0.0
  0
SPLINE
  5
4D
330
1F
100
AcDbEntity
  8
Camada 1
100
AcDbSpline
210
0.0
220
0.0
230
1.0
 70
    11
 71
     3
 72
    20
 73
    16
 74
     0
 42
0.0000000001
 43
0.0000000001
 12
1.0
 22
0.0
 32
0.0
 13
1.0
 23
0.0
 33
0.0
 40
0.0
 40
0.0
 40
0.0
 40
0.0
 40
0.2
 40
0.2
 40
0.2
 40
0.2
 40
0.4
 40
0.4
 40
0.4
 40
0.4
 40
0.6
 40
0.6
 40
0.6
 40
0.6
 40
1.0
 40
1.0
 40
1.0
 40
1.0
 10
-4.24921
 20
3.64737
 30
0.0
 10
-4.24921
 20
3.64737
 30
0.0
 10
-4.24921
 20
3.64737
 30
0.0
 10
-4.24921
 20
3.64737
 30
0.0
 10
-4.24921
 20
3.64737
 30
0.0
 10
-4.17971
 20
3.64243
 30
0.0
 10
-4.10986
 20
3.64137
 30
0.0
 10
-4.04001
 20
3.64559
 30
0.0
 10
-4.04001
 20
3.64559
 30
0.0
 10
-3.95887
 20
3.80858
 30
0.0
 10
-4.05236
 20
3.97898
 30
0.0
 10
-4.13526
 20
4.11938
 30
0.0
 10
-4.13526
 20
4.11938
 30
0.0
 10
-4.23721
 20
3.9885
 30
0.0
 10
-4.2986
 20
3.81141
 30
0.0
 10
-4.24921
 20
3.64737
 30
0.0
  0
SPLINE
  5
4E
330
1F
100
AcDbEntity
  8
Camada 1
100
AcDbSpline
210
0.0
220
0.0
230
1.0
 70
    11
 71
     3
 72
    84
 73
    80
 74
     0
 42
0.0000000001
 43
0.0000000001
 12
1.0
 22
0.0
 32
0.0
 13
1.0
 23
0.0
 33
0.0
 40
0.0
 40
0.0
 40
0.0
 40
0.0
 40
0.0476190476190476
 40
0.0476190476190476
 40
0.0476190476190476
 40
0.0476190476190476
 40
0.0952380952380952
 40
0.0952380952380952
 40
0.0952380952380952
 40
0.0952380952380952
 40
0.1428571428571428
 40
0.1428571428571428
 40
0.1428571428571428
 40
0.1428571428571428
 40
0.1904761904761905
 40
0.1904761904761905
 40
0.1904761904761905
 40
0.1904761904761905
 40
0.2380952380952381
 40
0.2380952380952381
 40
0.2380952380952381
 40
0.2380952380952381
 40
0.2857142857142857
 40
0.2857142857142857
 40
0.2857142857142857
 40
0.2857142857142857
 40
0.3333333333333333
 40
0.3333333333333333
 40
0.3333333333333333
 40
0.3333333333333333
 40
0.3809523809523809
 40
0.3809523809523809
 40
0.3809523809523809
 40
0.3809523809523809
 40
0.4285714285714285
 40
0.4285714285714285
 40
0.4285714285714285
 40
0.4285714285714285
 40
0.4761904761904762
 40
0.4761904761904762
 40
0.4761904761904762
 40
0.4761904761904762
 40
0.5238095238095238
 40
0.5238095238095238
 40
0.5238095238095238
 40
0.5238095238095238
 40
0.5714285714285714
 40
0.5714285714285714
 40
0.5714285714285714
 40
0.5714285714285714
 40
0.6190476190476191
 40
0.6190476190476191
 40
0.6190476190476191
 40
0.6190476190476191
 40
0.6666666666666666
 40
0.6666666666666666
 40
0.6666666666666666
 40
0.6666666666666666
 40
0.7142857142857143
 40
0.7142857142857143
 40
0.7142857142857143
 40
0.7142857142857143
 40
0.7619047619047619
 40
0.7619047619047619
 40
0.7619047619047619
 40
0.7619047619047619
 40
0.8095238095238095
 40
0.8095238095238095
 40
0.8095238095238095
 40
0.8095238095238095
 40
0.8571428571428571
 40
0.8571428571428571
 40
0.8571428571428571
 40
0.8571428571428571
 40
0.9047619047619048
 40
0.9047619047619048
 40
0.9047619047619048
 40
0.9047619047619048
 40
1.0
 40
1.0
 40
1.0
 40
1.0
 10
-4.65349
 20
3.65548
 30
0.0
 10
-4.65349
 20
3.65548
 30
0.0
 10
-4.65349
 20
3.65548
 30
0.0
 10
-4.65349
 20
3.65548
 30
0.0
 10
-4.65349
 20
3.65548
 30
0.0
 10
-4.78649
 20
3.60715
 30
0.0
 10
-4.92337
 20
3.5627
 30
0.0
 10
-5.06694
 20
3.57222
 30
0.0
 10
-5.06694
 20
3.57222
 30
0.0
 10
-5.06411
 20
3.53447
 30
0.0
 10
-5.06095
 20
3.49673
 30
0.0
 10
-5.05777
 20
3.45863
 30
0.0
 10
-5.05777
 20
3.45863
 30
0.0
 10
-4.91983
 20
3.52
 30
0.0
 10
-4.7826
 20
3.59445
 30
0.0
 10
-4.62738
 20
3.59516
 30
0.0
 10
-4.62738
 20
3.59516
 30
0.0
 10
-4.67184
 20
3.50519
 30
0.0
 10
-4.70958
 20
3.40676
 30
0.0
 10
-4.7833
 20
3.33621
 30
0.0
 10
-4.7833
 20
3.33621
 30
0.0
 10
-4.90078
 20
3.25542
 30
0.0
 10
-5.03695
 20
3.20392
 30
0.0
 10
-5.17701
 20
3.17958
 30
0.0
 10
-5.17701
 20
3.17958
 30
0.0
 10
-5.15832
 20
3.14501
 30
0.0
 10
-5.13927
 20
3.11009
 30
0.0
 10
-5.12092
 20
3.07516
 30
0.0
 10
-5.12092
 20
3.07516
 30
0.0
 10
-5.04647
 20
3.14325
 30
0.0
 10
-4.96252
 20
3.20075
 30
0.0
 10
-4.86938
 20
3.24026
 30
0.0
 10
-4.86938
 20
3.24026
 30
0.0
 10
-4.90007
 20
3.04623
 30
0.0
 10
-5.03836
 20
2.89207
 30
0.0
 10
-5.15443
 20
2.74002
 30
0.0
 10
-5.15443
 20
2.74002
 30
0.0
 10
-5.11493
 20
2.73578
 30
0.0
 10
-5.07576
 20
2.73156
 30
0.0
 10
-5.03624
 20
2.72696
 30
0.0
 10
-5.03624
 20
2.72696
 30
0.0
 10
-5.00133
 20
2.90829
 30
0.0
 10
-4.88032
 20
3.05399
 30
0.0
 10
-4.79212
 20
3.21098
 30
0.0
 10
-4.79212
 20
3.21098
 30
0.0
 10
-4.73709
 20
3.10232
 30
0.0
 10
-4.76074
 20
2.98944
 30
0.0
 10
-4.79
 20
2.8776
 30
0.0
 10
-4.79
 20
2.8776
 30
0.0
 10
-4.75192
 20
2.87796
 30
0.0
 10
-4.71382
 20
2.87796
 30
0.0
 10
-4.67571
 20
2.88042
 30
0.0
 10
-4.67571
 20
2.88042
 30
0.0
 10
-4.69864
 20
3.01342
 30
0.0
 10
-4.75614
 20
3.14218
 30
0.0
 10
-4.7431
 20
3.27978
 30
0.0
 10
-4.7431
 20
3.27978
 30
0.0
 10
-4.70288
 20
3.38101
 30
0.0
 10
-4.64043
 20
3.47169
 30
0.0
 10
-4.58187
 20
3.5627
 30
0.0
 10
-4.58187
 20
3.5627
 30
0.0
 10
-4.50778
 20
3.43393
 30
0.0
 10
-4.48627
 20
3.28789
 30
0.0
 10
-4.50003
 20
3.14184
 30
0.0
 10
-4.50003
 20
3.14184
 30
0.0
 10
-4.46334
 20
3.14924
 30
0.0
 10
-4.4263
 20
3.15665
 30
0.0
 10
-4.38925
 20
3.16371
 30
0.0
 10
-4.38925
 20
3.16371
 30
0.0
 10
-4.47004
 20
3.30763
 30
0.0
 10
-4.50497
 20
3.47169
 30
0.0
 10
-4.5346
 20
3.6322
 30
0.0
 10
-4.5346
 20
3.6322
 30
0.0
 10
-4.49967
 20
3.72215
 30
0.0
 10
-4.44287
 20
3.80152
 30
0.0
 10
-4.41042
 20
3.89254
 30
0.0
 10
-4.41042
 20
3.89254
 30
0.0
 10
-4.49967
 20
3.82093
 30
0.0
 10
-4.53531
 20
3.68757
 30
0.0
 10
-4.65349
 20
3.65548
 30
0.0
  0
SPLINE
  5
4F
330
1F
100
AcDbEntity
  8
Camada 1
100
AcDbSpline
210
0.0
220
0.0
230
1.0
 70
    11
 71
     3
 72
    84
 73
    80
 74
     0
 42
0.0000000001
 43
0.0000000001
 12
1.0
 22
0.0
 32
0.0
 13
1.0
 23
0.0
 33
0.0
 40
0.0
 40
0.0
 40
0.0
 40
0.0
 40
0.0476190476190476
 40
0.0476190476190476
 40
0.0476190476190476
 40
0.0476190476190476
 40
0.0952380952380952
 40
0.0952380952380952
 40
0.0952380952380952
 40
0.0952380952380952
 40
0.1428571428571428
 40
0.1428571428571428
 40
0.1428571428571428
 40
0.1428571428571428
 40
0.1904761904761905
 40
0.1904761904761905
 40
0.1904761904761905
 40
0.1904761904761905
 40
0.2380952380952381
 40
0.2380952380952381
 40
0.2380952380952381
 40
0.2380952380952381
 40
0.2857142857142857
 40
0.2857142857142857
 40
0.2857142857142857
 40
0.2857142857142857
 40
0.3333333333333333
 40
0.3333333333333333
 40
0.3333333333333333
 40
0.3333333333333333
 40
0.3809523809523809
 40
0.3809523809523809
 40
0.3809523809523809
 40
0.3809523809523809
 40
0.4285714285714285
 40
0.4285714285714285
 40
0.4285714285714285
 40
0.4285714285714285
 40
0.4761904761904762
 40
0.4761904761904762
 40
0.4761904761904762
 40
0.4761904761904762
 40
0.5238095238095238
 40
0.5238095238095238
 40
0.5238095238095238
 40
0.5238095238095238
 40
0.5714285714285714
 40
0.5714285714285714
 40
0.5714285714285714
 40
0.5714285714285714
 40
0.6190476190476191
 40
0.6190476190476191
 40
0.6190476190476191
 40
0.6190476190476191
 40
0.6666666666666666
 40
0.6666666666666666
 40
0.6666666666666666
 40
0.6666666666666666
 40
0.7142857142857143
 40
0.7142857142857143
 40
0.7142857142857143
 40
0.7142857142857143
 40
0.7619047619047619
 40
0.7619047619047619
 40
0.7619047619047619
 40
0.7619047619047619
 40
0.8095238095238095
 40
0.8095238095238095
 40
0.8095238095238095
 40
0.8095238095238095
 40
0.8571428571428571
 40
0.8571428571428571
 40
0.8571428571428571
 40
0.8571428571428571
 40
0.9047619047619048
 40
0.9047619047619048
 40
0.9047619047619048
 40
0.9047619047619048
 40
1.0
 40
1.0
 40
1.0
 40
1.0
 10
-3.87809
 20
3.89078
 30
0.0
 10
-3.87809
 20
3.89078
 30
0.0
 10
-3.87809
 20
3.89078
 30
0.0
 10
-3.87809
 20
3.89078
 30
0.0
 10
-3.87809
 20
3.89078
 30
0.0
 10
-3.84493
 20
3.78283
 30
0.0
 10
-3.75954
 20
3.68406
 30
0.0
 10
-3.78989
 20
3.5641
 30
0.0
 10
-3.78989
 20
3.5641
 30
0.0
 10
-3.79448
 20
3.41312
 30
0.0
 10
-3.88902
 20
3.28224
 30
0.0
 10
-3.8996
 20
3.13407
 30
0.0
 10
-3.8996
 20
3.13407
 30
0.0
 10
-3.86503
 20
3.13195
 30
0.0
 10
-3.83046
 20
3.13195
 30
0.0
 10
-3.79589
 20
3.13231
 30
0.0
 10
-3.79589
 20
3.13231
 30
0.0
 10
-3.80259
 20
3.27978
 30
0.0
 10
-3.7973
 20
3.42935
 30
0.0
 10
-3.74261
 20
3.5687
 30
0.0
 10
-3.74261
 20
3.5687
 30
0.0
 10
-3.67558
 20
3.49425
 30
0.0
 10
-3.60961
 20
3.41312
 30
0.0
 10
-3.57928
 20
3.31645
 30
0.0
 10
-3.57928
 20
3.31645
 30
0.0
 10
-3.57222
 20
3.16864
 30
0.0
 10
-3.57046
 20
3.01378
 30
0.0
 10
-3.65019
 20
2.8829
 30
0.0
 10
-3.65019
 20
2.8829
 30
0.0
 10
-3.6061
 20
2.87972
 30
0.0
 10
-3.562
 20
2.87725
 30
0.0
 10
-3.5179
 20
2.87479
 30
0.0
 10
-3.5179
 20
2.87479
 30
0.0
 10
-3.55494
 20
2.97568
 30
0.0
 10
-3.54787
 20
3.08397
 30
0.0
 10
-3.5373
 20
3.1891
 30
0.0
 10
-3.5373
 20
3.1891
 30
0.0
 10
-3.41488
 20
3.05469
 30
0.0
 10
-3.29847
 20
2.88924
 30
0.0
 10
-3.28577
 20
2.70262
 30
0.0
 10
-3.28577
 20
2.70262
 30
0.0
 10
-3.24979
 20
2.70369
 30
0.0
 10
-3.2138
 20
2.70474
 30
0.0
 10
-3.17782
 20
2.70615
 30
0.0
 10
-3.17782
 20
2.70615
 30
0.0
 10
-3.24202
 20
2.88678
 30
0.0
 10
-3.39865
 20
3.02224
 30
0.0
 10
-3.45227
 20
3.21132
 30
0.0
 10
-3.45227
 20
3.21132
 30
0.0
 10
-3.34256
 20
3.19475
 30
0.0
 10
-3.25332
 20
3.12737
 30
0.0
 10
-3.1623
 20
3.06987
 30
0.0
 10
-3.1623
 20
3.06987
 30
0.0
 10
-3.15877
 20
3.10797
 30
0.0
 10
-3.15524
 20
3.14607
 30
0.0
 10
-3.1517
 20
3.18416
 30
0.0
 10
-3.1517
 20
3.18416
 30
0.0
 10
-3.27518
 20
3.19475
 30
0.0
 10
-3.39478
 20
3.23956
 30
0.0
 10
-3.49778
 20
3.30834
 30
0.0
 10
-3.49778
 20
3.30834
 30
0.0
 10
-3.57893
 20
3.38349
 30
0.0
 10
-3.61914
 20
3.49074
 30
0.0
 10
-3.66818
 20
3.58739
 30
0.0
 10
-3.66818
 20
3.58739
 30
0.0
 10
-3.51155
 20
3.60009
 30
0.0
 10
-3.38912
 20
3.48755
 30
0.0
 10
-3.24696
 20
3.4484
 30
0.0
 10
-3.24696
 20
3.4484
 30
0.0
 10
-3.23744
 20
3.47732
 30
0.0
 10
-3.22862
 20
3.50697
 30
0.0
 10
-3.22014
 20
3.53625
 30
0.0
 10
-3.22014
 20
3.53625
 30
0.0
 10
-3.38666
 20
3.54965
 30
0.0
 10
-3.54471
 20
3.60785
 30
0.0
 10
-3.69992
 20
3.66606
 30
0.0
 10
-3.69992
 20
3.66606
 30
0.0
 10
-3.77013
 20
3.73167
 30
0.0
 10
-3.80541
 20
3.82693
 30
0.0
 10
-3.87809
 20
3.89078
 30
0.0
  0
SPLINE
  5
50
330
1F
100
AcDbEntity
  8
Camada 1
100
AcDbSpline
210
0.0
220
0.0
230
1.0
 70
    11
 71
     3
 72
   500
 73
   496
 74
     0
 42
0.0000000001
 43
0.0000000001
 12
1.0
 22
0.0
 32
0.0
 13
1.0
 23
0.0
 33
0.0
 40
0.0
 40
0.0
 40
0.0
 40
0.0
 40
0.008
 40
0.008
 40
0.008
 40
0.008
 40
0.016
 40
0.016
 40
0.016
 40
0.016
 40
0.024
 40
0.024
 40
0.024
 40
0.024
 40
0.032
 40
0.032
 40
0.032
 40
0.032
 40
0.04
 40
0.04
 40
0.04
 40
0.04
 40
0.048
 40
0.048
 40
0.048
 40
0.048
 40
0.056
 40
0.056
 40
0.056
 40
0.056
 40
0.064
 40
0.064
 40
0.064
 40
0.064
 40
0.072
 40
0.072
 40
0.072
 40
0.072
 40
0.08
 40
0.08
 40
0.08
 40
0.08
 40
0.088
 40
0.088
 40
0.088
 40
0.088
 40
0.096
 40
0.096
 40
0.096
 40
0.096
 40
0.104
 40
0.104
 40
0.104
 40
0.104
 40
0.112
 40
0.112
 40
0.112
 40
0.112
 40
0.12
 40
0.12
 40
0.12
 40
0.12
 40
0.128
 40
0.128
 40
0.128
 40
0.128
 40
0.136
 40
0.136
 40
0.136
 40
0.136
 40
0.144
 40
0.144
 40
0.144
 40
0.144
 40
0.152
 40
0.152
 40
0.152
 40
0.152
 40
0.16
 40
0.16
 40
0.16
 40
0.16
 40
0.168
 40
0.168
 40
0.168
 40
0.168
 40
0.176
 40
0.176
 40
0.176
 40
0.176
 40
0.184
 40
0.184
 40
0.184
 40
0.184
 40
0.192
 40
0.192
 40
0.192
 40
0.192
 40
0.2
 40
0.2
 40
0.2
 40
0.2
 40
0.208
 40
0.208
 40
0.208
 40
0.208
 40
0.216
 40
0.216
 40
0.216
 40
0.216
 40
0.224
 40
0.224
 40
0.224
 40
0.224
 40
0.232
 40
0.232
 40
0.232
 40
0.232
 40
0.24
 40
0.24
 40
0.24
 40
0.24
 40
0.248
 40
0.248
 40
0.248
 40
0.248
 40
0.256
 40
0.256
 40
0.256
 40
0.256
 40
0.264
 40
0.264
 40
0.264
 40
0.264
 40
0.272
 40
0.272
 40
0.272
 40
0.272
 40
0.28
 40
0.28
 40
0.28
 40
0.28
 40
0.288
 40
0.288
 40
0.288
 40
0.288
 40
0.296
 40
0.296
 40
0.296
 40
0.296
 40
0.304
 40
0.304
 40
0.304
 40
0.304
 40
0.312
 40
0.312
 40
0.312
 40
0.312
 40
0.32
 40
0.32
 40
0.32
 40
0.32
 40
0.328
 40
0.328
 40
0.328
 40
0.328
 40
0.336
 40
0.336
 40
0.336
 40
0.336
 40
0.344
 40
0.344
 40
0.344
 40
0.344
 40
0.352
 40
0.352
 40
0.352
 40
0.352
 40
0.36
 40
0.36
 40
0.36
 40
0.36
 40
0.368
 40
0.368
 40
0.368
 40
0.368
 40
0.376
 40
0.376
 40
0.376
 40
0.376
 40
0.384
 40
0.384
 40
0.384
 40
0.384
 40
0.392
 40
0.392
 40
0.392
 40
0.392
 40
0.4
 40
0.4
 40
0.4
 40
0.4
 40
0.408
 40
0.408
 40
0.408
 40
0.408
 40
0.416
 40
0.416
 40
0.416
 40
0.416
 40
0.424
 40
0.424
 40
0.424
 40
0.424
 40
0.432
 40
0.432
 40
0.432
 40
0.432
 40
0.44
 40
0.44
 40
0.44
 40
0.44
 40
0.448
 40
0.448
 40
0.448
 40
0.448
 40
0.456
 40
0.456
 40
0.456
 40
0.456
 40
0.464
 40
0.464
 40
0.464
 40
0.464
 40
0.472
 40
0.472
 40
0.472
 40
0.472
 40
0.48
 40
0.48
 40
0.48
 40
0.48
 40
0.488
 40
0.488
 40
0.488
 40
0.488
 40
0.496
 40
0.496
 40
0.496
 40
0.496
 40
0.504
 40
0.504
 40
0.504
 40
0.504
 40
0.512
 40
0.512
 40
0.512
 40
0.512
 40
0.52
 40
0.52
 40
0.52
 40
0.52
 40
0.528
 40
0.528
 40
0.528
 40
0.528
 40
0.536
 40
0.536
 40
0.536
 40
0.536
 40
0.544
 40
0.544
 40
0.544
 40
0.544
 40
0.552
 40
0.552
 40
0.552
 40
0.552
 40
0.56
 40
0.56
 40
0.56
 40
0.56
 40
0.568
 40
0.568
 40
0.568
 40
0.568
 40
0.576
 40
0.576
 40
0.576
 40
0.576
 40
0.584
 40
0.584
 40
0.584
 40
0.584
 40
0.592
 40
0.592
 40
0.592
 40
0.592
 40
0.6
 40
0.6
 40
0.6
 40
0.6
 40
0.608
 40
0.608
 40
0.608
 40
0.608
 40
0.616
 40
0.616
 40
0.616
 40
0.616
 40
0.624
 40
0.624
 40
0.624
 40
0.624
 40
0.632
 40
0.632
 40
0.632
 40
0.632
 40
0.64
 40
0.64
 40
0.64
 40
0.64
 40
0.648
 40
0.648
 40
0.648
 40
0.648
 40
0.656
 40
0.656
 40
0.656
 40
0.656
 40
0.664
 40
0.664
 40
0.664
 40
0.664
 40
0.672
 40
0.672
 40
0.672
 40
0.672
 40
0.68
 40
0.68
 40
0.68
 40
0.68
 40
0.688
 40
0.688
 40
0.688
 40
0.688
 40
0.696
 40
0.696
 40
0.696
 40
0.696
 40
0.704
 40
0.704
 40
0.704
 40
0.704
 40
0.712
 40
0.712
 40
0.712
 40
0.712
 40
0.72
 40
0.72
 40
0.72
 40
0.72
 40
0.728
 40
0.728
 40
0.728
 40
0.728
 40
0.736
 40
0.736
 40
0.736
 40
0.736
 40
0.744
 40
0.744
 40
0.744
 40
0.744
 40
0.752
 40
0.752
 40
0.752
 40
0.752
 40
0.76
 40
0.76
 40
0.76
 40
0.76
 40
0.768
 40
0.768
 40
0.768
 40
0.768
 40
0.776
 40
0.776
 40
0.776
 40
0.776
 40
0.784
 40
0.784
 40
0.784
 40
0.784
 40
0.792
 40
0.792
 40
0.792
 40
0.792
 40
0.8
 40
0.8
 40
0.8
 40
0.8
 40
0.808
 40
0.808
 40
0.808
 40
0.808
 40
0.816
 40
0.816
 40
0.816
 40
0.816
 40
0.824
 40
0.824
 40
0.824
 40
0.824
 40
0.832
 40
0.832
 40
0.832
 40
0.832
 40
0.84
 40
0.84
 40
0.84
 40
0.84
 40
0.848
 40
0.848
 40
0.848
 40
0.848
 40
0.856
 40
0.856
 40
0.856
 40
0.856
 40
0.864
 40
0.864
 40
0.864
 40
0.864
 40
0.872
 40
0.872
 40
0.872
 40
0.872
 40
0.88
 40
0.88
 40
0.88
 40
0.88
 40
0.888
 40
0.888
 40
0.888
 40
0.888
 40
0.896
 40
0.896
 40
0.896
 40
0.896
 40
0.904
 40
0.904
 40
0.904
 40
0.904
 40
0.912
 40
0.912
 40
0.912
 40
0.912
 40
0.92
 40
0.92
 40
0.92
 40
0.92
 40
0.928
 40
0.928
 40
0.928
 40
0.928
 40
0.936
 40
0.936
 40
0.936
 40
0.936
 40
0.944
 40
0.944
 40
0.944
 40
0.944
 40
0.952
 40
0.952
 40
0.952
 40
0.952
 40
0.96
 40
0.96
 40
0.96
 40
0.96
 40
0.968
 40
0.968
 40
0.968
 40
0.968
 40
0.976
 40
0.976
 40
0.976
 40
0.976
 40
0.984
 40
0.984
 40
0.984
 40
0.984
 40
1.0
 40
1.0
 40
1.0
 40
1.0
 10
-6.62586
 20
1.40828
 30
0.0
 10
-6.56449
 20
1.45803
 30
0.0
 10
-6.50804
 20
1.53353
 30
0.0
 10
-6.4216
 20
1.53246
 30
0.0
 10
-6.4216
 20
1.53246
 30
0.0
 10
-6.32882
 20
1.5501
 30
0.0
 10
-6.25544
 20
1.48132
 30
0.0
 10
-6.18384
 20
1.43474
 30
0.0
 10
-6.18384
 20
1.43474
 30
0.0
 10
-6.12705
 20
1.47601
 30
0.0
 10
-6.07342
 20
1.53634
 30
0.0
 10
-5.99687
 20
1.53458
 30
0.0
 10
-5.99687
 20
1.53458
 30
0.0
 10
-5.89845
 20
1.55081
 30
0.0
 10
-5.8293
 20
1.46507
 30
0.0
 10
-5.75768
 20
1.41216
 30
0.0
 10
-5.75768
 20
1.41216
 30
0.0
 10
-5.68113
 20
1.4478
 30
0.0
 10
-5.6
 20
1.48836
 30
0.0
 10
-5.51249
 20
1.46967
 30
0.0
 10
-5.51249
 20
1.46967
 30
0.0
 10
-5.40948
 20
1.46614
 30
0.0
 10
-5.36928
 20
1.35924
 30
0.0
 10
-5.3294
 20
1.28128
 30
0.0
 10
-5.3294
 20
1.28128
 30
0.0
 10
-5.25604
 20
1.32326
 30
0.0
 10
-5.17313
 20
1.38112
 30
0.0
 10
-5.08528
 20
1.34513
 30
0.0
 10
-5.08528
 20
1.34513
 30
0.0
 10
-4.99779
 20
1.32291
 30
0.0
 10
-4.95229
 20
1.24037
 30
0.0
 10
-4.90784
 20
1.16981
 30
0.0
 10
-4.90784
 20
1.16981
 30
0.0
 10
-4.81965
 20
1.17439
 30
0.0
 10
-4.71628
 20
1.20826
 30
0.0
 10
-4.64114
 20
1.14477
 30
0.0
 10
-4.64114
 20
1.14477
 30
0.0
 10
-4.57624
 20
1.10559
 30
0.0
 10
-4.55824
 20
1.02799
 30
0.0
 10
-4.53073
 20
0.96273
 30
0.0
 10
-4.53073
 20
0.96273
 30
0.0
 10
-4.4263
 20
0.9906
 30
0.0
 10
-4.32328
 20
0.97119
 30
0.0
 10
-4.22697
 20
0.92569
 30
0.0
 10
-4.22697
 20
0.92569
 30
0.0
 10
-4.12326
 20
0.9599
 30
0.0
 10
-4.01742
 20
0.99625
 30
0.0
 10
-3.90666
 20
0.96307
 30
0.0
 10
-3.90666
 20
0.96307
 30
0.0
 10
-3.87419
 20
1.04457
 30
0.0
 10
-3.83821
 20
1.13875
 30
0.0
 10
-3.75002
 20
1.17403
 30
0.0
 10
-3.75002
 20
1.17403
 30
0.0
 10
-3.677
 20
1.19238
 30
0.0
 10
-3.60115
 20
1.17651
 30
0.0
 10
-3.52707
 20
1.17016
 30
0.0
 10
-3.52707
 20
1.17016
 30
0.0
 10
-3.47873
 20
1.25024
 30
0.0
 10
-3.4177
 20
1.34479
 30
0.0
 10
-3.3154
 20
1.35431
 30
0.0
 10
-3.3154
 20
1.35431
 30
0.0
 10
-3.23814
 20
1.36842
 30
0.0
 10
-3.17358
 20
1.31762
 30
0.0
 10
-3.10797
 20
1.28588
 30
0.0
 10
-3.10797
 20
1.28588
 30
0.0
 10
-3.06987
 20
1.3663
 30
0.0
 10
-3.01871
 20
1.46261
 30
0.0
 10
-2.91818
 20
1.46931
 30
0.0
 10
-2.91818
 20
1.46931
 30
0.0
 10
-2.83138
 20
1.48907
 30
0.0
 10
-2.75061
 20
1.44885
 30
0.0
 10
-2.67828
 20
1.40511
 30
0.0
 10
-2.67828
 20
1.40511
 30
0.0
 10
-2.61866
 20
1.45908
 30
0.0
 10
-2.5601
 20
1.53634
 30
0.0
 10
-2.4712
 20
1.53423
 30
0.0
 10
-2.4712
 20
1.53423
 30
0.0
 10
-2.3823
 20
1.5501
 30
0.0
 10
-2.31527
 20
1.4799
 30
0.0
 10
-2.24825
 20
1.4344
 30
0.0
 10
-2.24825
 20
1.4344
 30
0.0
 10
-2.18581
 20
1.4753
 30
0.0
 10
-2.12548
 20
1.53634
 30
0.0
 10
-2.0454
 20
1.53387
 30
0.0
 10
-2.0454
 20
1.53387
 30
0.0
 10
-1.94697
 20
1.54693
 30
0.0
 10
-1.87819
 20
1.46473
 30
0.0
 10
-1.81151
 20
1.40652
 30
0.0
 10
-1.81151
 20
1.40652
 30
0.0
 10
-1.74449
 20
1.43756
 30
0.0
 10
-1.67498
 20
1.47884
 30
0.0
 10
-1.59773
 20
1.46332
 30
0.0
 10
-1.59773
 20
1.46332
 30
0.0
 10
-1.50741
 20
1.46085
 30
0.0
 10
-1.45415
 20
1.37759
 30
0.0
 10
-1.39912
 20
1.31762
 30
0.0
 10
-1.39912
 20
1.31762
 30
0.0
 10
-1.32856
 20
1.32679
 30
0.0
 10
-1.25236
 20
1.3656
 30
0.0
 10
-1.18497
 20
1.32467
 30
0.0
 10
-1.18497
 20
1.32467
 30
0.0
 10
-1.113
 20
1.29821
 30
0.0
 10
-1.07562
 20
1.22695
 30
0.0
 10
-1.03116
 20
1.16945
 30
0.0
 10
-1.03116
 20
1.16945
 30
0.0
 10
-0.95391
 20
1.17228
 30
0.0
 10
-0.86924
 20
1.18604
 30
0.0
 10
-0.80115
 20
1.13875
 30
0.0
 10
-0.80115
 20
1.13875
 30
0.0
 10
-0.72284
 20
1.10067
 30
0.0
 10
-0.70484
 20
1.00894
 30
0.0
 10
-0.68226
 20
0.9331
 30
0.0
 10
-0.68226
 20
0.9331
 30
0.0
 10
-0.5916
 20
0.92816
 30
0.0
 10
-0.48012
 20
0.92991
 30
0.0
 10
-0.42157
 20
0.84666
 30
0.0
 10
-0.42157
 20
0.84666
 30
0.0
 10
-0.37146
 20
0.79199
 30
0.0
 10
-0.37217
 20
0.71508
 30
0.0
 10
-0.36547
 20
0.64557
 30
0.0
 10
-0.36547
 20
0.64557
 30
0.0
 10
-0.28963
 20
0.62652
 30
0.0
 10
-0.19967
 20
0.62652
 30
0.0
 10
-0.14464
 20
0.56232
 30
0.0
 10
-0.14464
 20
0.56232
 30
0.0
 10
-0.0695
 20
0.50058
 30
0.0
 10
-0.08819
 20
0.39722
 30
0.0
 10
-0.08678
 20
0.31184
 30
0.0
 10
-0.08678
 20
0.31184
 30
0.0
 10
-0.01622
 20
0.2801
 30
0.0
 10
0.07196
 20
0.25858
 30
0.0
 10
0.11041
 20
0.18345
 30
0.0
 10
0.11041
 20
0.18345
 30
0.0
 10
0.15205
 20
0.10478
 30
0.0
 10
0.12629
 20
0.01164
 30
0.0
 10
0.11677
 20
-0.07196
 30
0.0
 10
0.11677
 20
-0.07196
 30
0.0
 10
0.17744
 20
-0.11148
 30
0.0
 10
0.25259
 20
-0.14605
 30
0.0
 10
0.27586
 20
-0.22119
 30
0.0
 10
0.27586
 20
-0.22119
 30
0.0
 10
0.32315
 20
-0.29986
 30
0.0
 10
0.27727
 20
-0.38452
 30
0.0
 10
0.25188
 20
-0.46143
 30
0.0
 10
0.25188
 20
-0.46143
 30
0.0
 10
0.30585
 20
-0.5221
 30
0.0
 10
0.37782
 20
-0.5849
 30
0.0
 10
0.37358
 20
-0.67415
 30
0.0
 10
0.37358
 20
-0.67415
 30
0.0
 10
0.37958
 20
-0.75564
 30
0.0
 10
0.32385
 20
-0.82091
 30
0.0
 10
0.28468
 20
-0.88618
 30
0.0
 10
0.28468
 20
-0.88618
 30
0.0
 10
0.32702
 20
-0.94933
 30
0.0
 10
0.38981
 20
-1.01035
 30
0.0
 10
0.38099
 20
-1.0929
 30
0.0
 10
0.38099
 20
-1.0929
 30
0.0
 10
0.39758
 20
-1.18886
 30
0.0
 10
0.31925
 20
-1.25411
 30
0.0
 10
0.25858
 20
-1.31444
 30
0.0
 10
0.25858
 20
-1.31444
 30
0.0
 10
0.30232
 20
-1.39064
 30
0.0
 10
0.36159
 20
-1.47601
 30
0.0
 10
0.32526
 20
-1.56774
 30
0.0
 10
0.32526
 20
-1.56774
 30
0.0
 10
0.30656
 20
-1.64641
 30
0.0
 10
0.23883
 20
-1.69333
 30
0.0
 10
0.1778
 20
-1.73813
 30
0.0
 10
0.1778
 20
-1.73813
 30
0.0
 10
0.20179
 20
-1.81397
 30
0.0
 10
0.24377
 20
-1.89159
 30
0.0
 10
0.22189
 20
-1.97379
 30
0.0
 10
0.22189
 20
-1.97379
 30
0.0
 10
0.19719
 20
-2.06021
 30
0.0
 10
0.1143
 20
-2.10467
 30
0.0
 10
0.04409
 20
-2.14948
 30
0.0
 10
0.04409
 20
-2.14948
 30
0.0
 10
0.06809
 20
-2.22744
 30
0.0
 10
0.11852
 20
-2.3121
 30
0.0
 10
0.07584
 20
-2.39323
 30
0.0
 10
0.07584
 20
-2.39323
 30
0.0
 10
0.05537
 20
-2.47931
 30
0.0
 10
-0.03245
 20
-2.51142
 30
0.0
 10
-0.10159
 20
-2.55023
 30
0.0
 10
-0.10159
 20
-2.55023
 30
0.0
 10
-0.09947
 20
-2.6363
 30
0.0
 10
-0.06561
 20
-2.73227
 30
0.0
 10
-0.1164
 20
-2.81057
 30
0.0
 10
-0.1164
 20
-2.81057
 30
0.0
 10
-0.14286
 20
-2.87338
 30
0.0
 10
-0.21412
 20
-2.89243
 30
0.0
 10
-0.26846
 20
-2.92311
 30
0.0
 10
-0.26846
 20
-2.92311
 30
0.0
 10
-0.27199
 20
-3.00143
 30
0.0
 10
-0.24482
 20
-3.08997
 30
0.0
 10
-0.29527
 20
-3.15841
 30
0.0
 10
-0.29527
 20
-3.15841
 30
0.0
 10
-0.33267
 20
-3.23179
 30
0.0
 10
-0.41556
 20
-3.25472
 30
0.0
 10
-0.48577
 20
-3.28365
 30
0.0
 10
-0.48577
 20
-3.28365
 30
0.0
 10
-0.44062
 20
-3.44664
 30
0.0
 10
-0.54363
 20
-3.62654
 30
0.0
 10
-0.72143
 20
-3.6322
 30
0.0
 10
-0.72143
 20
-3.6322
 30
0.0
 10
-0.72354
 20
-3.71686
 30
0.0
 10
-0.70626
 20
-3.81706
 30
0.0
 10
-0.77364
 20
-3.88338
 30
0.0
 10
-0.77364
 20
-3.88338
 30
0.0
 10
-0.82125
 20
-3.94475
 30
0.0
 10
-0.9024
 20
-3.95323
 30
0.0
 10
-0.97225
 20
-3.97228
 30
0.0
 10
-0.97225
 20
-3.97228
 30
0.0
 10
-0.97367
 20
-4.06471
 30
0.0
 10
-0.9733
 20
-4.17547
 30
0.0
 10
-1.05657
 20
-4.23615
 30
0.0
 10
-1.05657
 20
-4.23615
 30
0.0
 10
-1.10912
 20
-4.28412
 30
0.0
 10
-1.18251
 20
-4.28625
 30
0.0
 10
-1.24882
 20
-4.29577
 30
0.0
 10
-1.24882
 20
-4.29577
 30
0.0
 10
-1.22273
 20
-4.45523
 30
0.0
 10
-1.33772
 20
-4.59387
 30
0.0
 10
-1.49472
 20
-4.61151
 30
0.0
 10
-1.49472
 20
-4.61151
 30
0.0
 10
-1.51377
 20
-4.67959
 30
0.0
 10
-1.52047
 20
-4.75862
 30
0.0
 10
-1.57551
 20
-4.80905
 30
0.0
 10
-1.57551
 20
-4.80905
 30
0.0
 10
-1.62736
 20
-4.85493
 30
0.0
 10
-1.69862
 20
-4.86339
 30
0.0
 10
-1.76213
 20
-4.88421
 30
0.0
 10
-1.76213
 20
-4.88421
 30
0.0
 10
-1.78399
 20
-4.95618
 30
0.0
 10
-1.79704
 20
-5.03836
 30
0.0
 10
-1.85702
 20
-5.09057
 30
0.0
 10
-1.85702
 20
-5.09057
 30
0.0
 10
-1.91664
 20
-5.1516
 30
0.0
 10
-2.00907
 20
-5.13467
 30
0.0
 10
-2.08562
 20
-5.14278
 30
0.0
 10
-2.08562
 20
-5.14278
 30
0.0
 10
-2.1029
 20
-5.21263
 30
0.0
 10
-2.11172
 20
-5.29237
 30
0.0
 10
-2.16746
 20
-5.34492
 30
0.0
 10
-2.16746
 20
-5.34492
 30
0.0
 10
-2.22815
 20
-5.40843
 30
0.0
 10
-2.32233
 20
-5.40702
 30
0.0
 10
-2.40347
 20
-5.41619
 30
0.0
 10
-2.40347
 20
-5.41619
 30
0.0
 10
-2.42217
 20
-5.49416
 30
0.0
 10
-2.44581
 20
-5.58517
 30
0.0
 10
-2.52411
 20
-5.62397
 30
0.0
 10
-2.52411
 20
-5.62397
 30
0.0
 10
-2.58163
 20
-5.6469
 30
0.0
 10
-2.64371
 20
-5.65502
 30
0.0
 10
-2.7044
 20
-5.66454
 30
0.0
 10
-2.7044
 20
-5.66454
 30
0.0
 10
-2.72555
 20
-5.73829
 30
0.0
 10
-2.73614
 20
-5.82507
 30
0.0
 10
-2.80528
 20
-5.87199
 30
0.0
 10
-2.80528
 20
-5.87199
 30
0.0
 10
-2.86066
 20
-5.92278
 30
0.0
 10
-2.9404
 20
-5.90868
 30
0.0
 10
-3.00884
 20
-5.91502
 30
0.0
 10
-3.00884
 20
-5.91502
 30
0.0
 10
-3.03671
 20
-5.98699
 30
0.0
 10
-3.05505
 20
-6.06989
 30
0.0
 10
-3.12032
 20
-6.11928
 30
0.0
 10
-3.12032
 20
-6.11928
 30
0.0
 10
-3.17287
 20
-6.17502
 30
0.0
 10
-3.25754
 20
-6.15032
 30
0.0
 10
-3.32527
 20
-6.16091
 30
0.0
 10
-3.32527
 20
-6.16091
 30
0.0
 10
-3.34997
 20
-6.23464
 30
0.0
 10
-3.36515
 20
-6.32142
 30
0.0
 10
-3.43464
 20
-6.36834
 30
0.0
 10
-3.43464
 20
-6.36834
 30
0.0
 10
-3.48862
 20
-6.41914
 30
0.0
 10
-3.5687
 20
-6.40326
 30
0.0
 10
-3.63573
 20
-6.41349
 30
0.0
 10
-3.63573
 20
-6.41349
 30
0.0
 10
-3.66148
 20
-6.48794
 30
0.0
 10
-3.68335
 20
-6.57189
 30
0.0
 10
-3.75284
 20
-6.61846
 30
0.0
 10
-3.75284
 20
-6.61846
 30
0.0
 10
-3.81669
 20
-6.66891
 30
0.0
 10
-3.90313
 20
-6.6502
 30
0.0
 10
-3.97862
 20
-6.65551
 30
0.0
 10
-3.97862
 20
-6.65551
 30
0.0
 10
-4.00967
 20
-6.7705
 30
0.0
 10
-4.09892
 20
-6.88199
 30
0.0
 10
-4.23016
 20
-6.86859
 30
0.0
 10
-4.23016
 20
-6.86859
 30
0.0
 10
-4.36033
 20
-6.88162
 30
0.0
 10
-4.42665
 20
-6.75534
 30
0.0
 10
-4.47357
 20
-6.65621
 30
0.0
 10
-4.47357
 20
-6.65621
 30
0.0
 10
-4.63337
 20
-6.68901
 30
0.0
 10
-4.78613
 20
-6.58283
 30
0.0
 10
-4.79565
 20
-6.41702
 30
0.0
 10
-4.79565
 20
-6.41702
 30
0.0
 10
-4.86375
 20
-6.40785
 30
0.0
 10
-4.9403
 20
-6.41597
 30
0.0
 10
-4.99745
 20
-6.37046
 30
0.0
 10
-4.99745
 20
-6.37046
 30
0.0
 10
-5.07083
 20
-6.32707
 30
0.0
 10
-5.08316
 20
-6.2371
 30
0.0
 10
-5.10716
 20
-6.16303
 30
0.0
 10
-5.10716
 20
-6.16303
 30
0.0
 10
-5.17525
 20
-6.15421
 30
0.0
 10
-5.25604
 20
-6.17007
 30
0.0
 10
-5.31142
 20
-6.11964
 30
0.0
 10
-5.31142
 20
-6.11964
 30
0.0
 10
-5.37915
 20
-6.07236
 30
0.0
 10
-5.3982
 20
-5.98805
 30
0.0
 10
-5.42678
 20
-5.91572
 30
0.0
 10
-5.42678
 20
-5.91572
 30
0.0
 10
-5.49346
 20
-5.90656
 30
0.0
 10
-5.57318
 20
-5.92384
 30
0.0
 10
-5.6268
 20
-5.8734
 30
0.0
 10
-5.6268
 20
-5.8734
 30
0.0
 10
-5.69841
 20
-5.82719
 30
0.0
 10
-5.71005
 20
-5.73899
 30
0.0
 10
-5.73088
 20
-5.66349
 30
0.0
 10
-5.73088
 20
-5.66349
 30
0.0
 10
-5.88715
 20
-5.67619
 30
0.0
 10
-6.0152
 20
-5.56789
 30
0.0
 10
-6.03849
 20
-5.41513
 30
0.0
 10
-6.03849
 20
-5.41513
 30
0.0
 10
-6.12386
 20
-5.40737
 30
0.0
 10
-6.22723
 20
-5.40631
 30
0.0
 10
-6.28261
 20
-5.32906
 30
0.0
 10
-6.28261
 20
-5.32906
 30
0.0
 10
-6.33095
 20
-5.27861
 30
0.0
 10
-6.33411
 20
-5.20664
 30
0.0
 10
-6.34646
 20
-5.14208
 30
0.0
 10
-6.34646
 20
-5.14208
 30
0.0
 10
-6.41068
 20
-5.13856
 30
0.0
 10
-6.47629
 20
-5.14244
 30
0.0
 10
-6.53837
 20
-5.12339
 30
0.0
 10
-6.53837
 20
-5.12339
 30
0.0
 10
-6.62622
 20
-5.07541
 30
0.0
 10
-6.65268
 20
-4.97275
 30
0.0
 10
-6.67066
 20
-4.88209
 30
0.0
 10
-6.67066
 20
-4.88209
 30
0.0
 10
-6.73347
 20
-4.86268
 30
0.0
 10
-6.80473
 20
-4.85705
 30
0.0
 10
-6.85694
 20
-4.81295
 30
0.0
 10
-6.85694
 20
-4.81295
 30
0.0
 10
-6.91515
 20
-4.7632
 30
0.0
 10
-6.92572
 20
-4.68347
 30
0.0
 10
-6.9409
 20
-4.61327
 30
0.0
 10
-6.9409
 20
-4.61327
 30
0.0
 10
-7.01392
 20
-4.58716
 30
0.0
 10
-7.09612
 20
-4.56706
 30
0.0
 10
-7.1448
 20
-4.50144
 30
0.0
 10
-7.1448
 20
-4.50144
 30
0.0
 10
-7.1942
 20
-4.44605
 30
0.0
 10
-7.17585
 20
-4.36491
 30
0.0
 10
-7.18572
 20
-4.29753
 30
0.0
 10
-7.18572
 20
-4.29753
 30
0.0
 10
-7.26722
 20
-4.28695
 30
0.0
 10
-7.35999
 20
-4.27601
 30
0.0
 10
-7.41045
 20
-4.20229
 30
0.0
 10
-7.41045
 20
-4.20229
 30
0.0
 10
-7.47112
 20
-4.14126
 30
0.0
 10
-7.46054
 20
-4.05341
 30
0.0
 10
-7.4609
 20
-3.9751
 30
0.0
 10
-7.4609
 20
-3.9751
 30
0.0
 10
-7.53109
 20
-3.95676
 30
0.0
 10
-7.60976
 20
-3.94404
 30
0.0
 10
-7.6588
 20
-3.88479
 30
0.0
 10
-7.6588
 20
-3.88479
 30
0.0
 10
-7.72442
 20
-3.83151
 30
0.0
 10
-7.70819
 20
-3.74156
 30
0.0
 10
-7.72054
 20
-3.66783
 30
0.0
 10
-7.72054
 20
-3.66783
 30
0.0
 10
-7.7784
 20
-3.60362
 30
0.0
 10
-7.87788
 20
-3.58846
 30
0.0
 10
-7.92409
 20
-3.51013
 30
0.0
 10
-7.92409
 20
-3.51013
 30
0.0
 10
-7.97947
 20
-3.44346
 30
0.0
 10
-7.94773
 20
-3.35314
 30
0.0
 10
-7.93361
 20
-3.27766
 30
0.0
 10
-7.93361
 20
-3.27766
 30
0.0
 10
-8.01193
 20
-3.2646
 30
0.0
 10
-8.09271
 20
-3.23532
 30
0.0
 10
-8.13611
 20
-3.16442
 30
0.0
 10
-8.13611
 20
-3.16442
 30
0.0
 10
-8.19079
 20
-3.09986
 30
0.0
 10
-8.16468
 20
-3.00989
 30
0.0
 10
-8.16468
 20
-2.9337
 30
0.0
 10
-8.16468
 20
-2.9337
 30
0.0
 10
-8.22713
 20
-2.89665
 30
0.0
 10
-8.29627
 20
-2.86066
 30
0.0
 10
-8.33225
 20
-2.79435
 30
0.0
 10
-8.33225
 20
-2.79435
 30
0.0
 10
-8.358
 20
-2.71533
 30
0.0
 10
-8.33931
 20
-2.63172
 30
0.0
 10
-8.33261
 20
-2.55164
 30
0.0
 10
-8.33261
 20
-2.55164
 30
0.0
 10
-8.41057
 20
-2.50577
 30
0.0
 10
-8.51923
 20
-2.45957
 30
0.0
 10
-8.5224
 20
-2.35408
 30
0.0
 10
-8.5224
 20
-2.35408
 30
0.0
 10
-8.53581
 20
-2.28211
 30
0.0
 10
-8.50652
 20
-2.21402
 30
0.0
 10
-8.47866
 20
-2.14982
 30
0.0
 10
-8.47866
 20
-2.14982
 30
0.0
 10
-8.55591
 20
-2.10996
 30
0.0
 10
-8.64093
 20
-2.05598
 30
0.0
 10
-8.65751
 20
-1.96356
 30
0.0
 10
-8.65751
 20
-1.96356
 30
0.0
 10
-8.6748
 20
-1.88453
 30
0.0
 10
-8.636
 20
-1.81081
 30
0.0
 10
-8.61166
 20
-1.73813
 30
0.0
 10
-8.61166
 20
-1.73813
 30
0.0
 10
-8.67868
 20
-1.68909
 30
0.0
 10
-8.76299
 20
-1.63583
 30
0.0
 10
-8.76652
 20
-1.54305
 30
0.0
 10
-8.76652
 20
-1.54305
 30
0.0
 10
-8.78416
 20
-1.45979
 30
0.0
 10
-8.73653
 20
-1.3857
 30
0.0
 10
-8.70302
 20
-1.31375
 30
0.0
 10
-8.70302
 20
-1.31375
 30
0.0
 10
-8.75876
 20
-1.2527
 30
0.0
 10
-8.82685
 20
-1.18568
 30
0.0
 10
-8.81873
 20
-1.09536
 30
0.0
 10
-8.81873
 20
-1.09536
 30
0.0
 10
-8.82649
 20
-1.0107
 30
0.0
 10
-8.76405
 20
-0.94721
 30
0.0
 10
-8.71749
 20
-0.88477
 30
0.0
 10
-8.71749
 20
-0.88477
 30
0.0
 10
-8.76159
 20
-0.82125
 30
0.0
 10
-8.82015
 20
-0.75635
 30
0.0
 10
-8.80815
 20
-0.6731
 30
0.0
 10
-8.80815
 20
-0.6731
 30
0.0
 10
-8.81732
 20
-0.58173
 30
0.0
 10
-8.74148
 20
-0.5228
 30
0.0
 10
-8.68538
 20
-0.46389
 30
0.0
 10
-8.68538
 20
-0.46389
 30
0.0
 10
-8.71573
 20
-0.387
 30
0.0
 10
-8.75206
 20
-0.30091
 30
0.0
 10
-8.71466
 20
-0.21943
 30
0.0
 10
-8.71466
 20
-0.21943
 30
0.0
 10
-8.6875
 20
-0.14605
 30
0.0
 10
-8.61271
 20
-0.11148
 30
0.0
 10
-8.55168
 20
-0.07196
 30
0.0
 10
-8.55168
 20
-0.07196
 30
0.0
 10
-8.56509
 20
0.00423
 30
0.0
 10
-8.59719
 20
0.08502
 30
0.0
 10
-8.55839
 20
0.15909
 30
0.0
 10
-8.55839
 20
0.15909
 30
0.0
 10
-8.53087
 20
0.25293
 30
0.0
 10
-8.4275
 20
0.27939
 30
0.0
 10
-8.34743
 20
0.31009
 30
0.0
 10
-8.34743
 20
0.31009
 30
0.0
 10
-8.34777
 20
0.39616
 30
0.0
 10
-8.36612
 20
0.502
 30
0.0
 10
-8.28957
 20
0.56373
 30
0.0
 10
-8.28957
 20
0.56373
 30
0.0
 10
-8.23595
 20
0.6283
 30
0.0
 10
-8.14598
 20
0.62723
 30
0.0
 10
-8.0712
 20
0.64628
 30
0.0
 10
-8.0712
 20
0.64628
 30
0.0
 10
-8.06061
 20
0.71542
 30
0.0
 10
-8.06802
 20
0.79691
 30
0.0
 10
-8.01263
 20
0.84949
 30
0.0
 10
-8.01263
 20
0.84949
 30
0.0
 10
-7.94985
 20
0.92569
 30
0.0
 10
-7.84577
 20
0.93169
 30
0.0
 10
-7.75475
 20
0.93239
 30
0.0
 10
-7.75475
 20
0.93239
 30
0.0
 10
-7.73182
 20
1.00858
 30
0.0
 10
-7.71313
 20
1.10101
 30
0.0
 10
-7.6341
 20
1.13911
 30
0.0
 10
-7.6341
 20
1.13911
 30
0.0
 10
-7.5632
 20
1.1818
 30
0.0
 10
-7.47994
 20
1.17228
 30
0.0
 10
-7.40127
 20
1.17016
 30
0.0
 10
-7.40127
 20
1.17016
 30
0.0
 10
-7.35929
 20
1.22943
 30
0.0
 10
-7.32401
 20
1.30527
 30
0.0
 10
-7.24853
 20
1.32785
 30
0.0
 10
-7.24853
 20
1.32785
 30
0.0
 10
-7.17973
 20
1.36455
 30
0.0
 10
-7.10459
 20
1.32856
 30
0.0
 10
-7.03367
 20
1.31867
 30
0.0
 10
-7.03367
 20
1.31867
 30
0.0
 10
-6.97476
 20
1.38677
 30
0.0
 10
-6.90667
 20
1.4746
 30
0.0
 10
-6.80614
 20
1.46507
 30
0.0
 10
-6.80614
 20
1.46507
 30
0.0
 10
-6.74088
 20
1.4679
 30
0.0
 10
-6.68372
 20
1.43262
 30
0.0
 10
-6.62586
 20
1.40828
 30
0.0
  0
SPLINE
  5
51
330
1F
100
AcDbEntity
  8
Camada 1
100
AcDbSpline
210
0.0
220
0.0
230
1.0
 70
    11
 71
     3
 72
    20
 73
    16
 74
     0
 42
0.0000000001
 43
0.0000000001
 12
1.0
 22
0.0
 32
0.0
 13
1.0
 23
0.0
 33
0.0
 40
0.0
 40
0.0
 40
0.0
 40
0.0
 40
0.2
 40
0.2
 40
0.2
 40
0.2
 40
0.4
 40
0.4
 40
0.4
 40
0.4
 40
0.6
 40
0.6
 40
0.6
 40
0.6
 40
1.0
 40
1.0
 40
1.0
 40
1.0
 10
-6.52497
 20
1.29329
 30
0.0
 10
-6.52497
 20
1.29329
 30
0.0
 10
-6.52497
 20
1.29329
 30
0.0
 10
-6.52497
 20
1.29329
 30
0.0
 10
-6.52497
 20
1.29329
 30
0.0
 10
-6.44418
 20
1.29292
 30
0.0
 10
-6.3634
 20
1.29611
 30
0.0
 10
-6.28261
 20
1.30174
 30
0.0
 10
-6.28261
 20
1.30174
 30
0.0
 10
-6.31155
 20
1.3402
 30
0.0
 10
-6.32882
 20
1.40334
 30
0.0
 10
-6.38844
 20
1.39946
 30
0.0
 10
-6.38844
 20
1.39946
 30
0.0
 10
-6.45865
 20
1.41357
 30
0.0
 10
-6.48582
 20
1.33526
 30
0.0
 10
-6.52497
 20
1.29329
 30
0.0
  0
SPLINE
  5
52
330
1F
100
AcDbEntity
  8
Camada 1
100
AcDbSpline
210
0.0
220
0.0
230
1.0
 70
    11
 71
     3
 72
    24
 73
    20
 74
     0
 42
0.0000000001
 43
0.0000000001
 12
1.0
 22
0.0
 32
0.0
 13
1.0
 23
0.0
 33
0.0
 40
0.0
 40
0.0
 40
0.0
 40
0.0
 40
0.1666666666666667
 40
0.1666666666666667
 40
0.1666666666666667
 40
0.1666666666666667
 40
0.3333333333333333
 40
0.3333333333333333
 40
0.3333333333333333
 40
0.3333333333333333
 40
0.5
 40
0.5
 40
0.5
 40
0.5
 40
0.6666666666666666
 40
0.6666666666666666
 40
0.6666666666666666
 40
0.6666666666666666
 40
1.0
 40
1.0
 40
1.0
 40
1.0
 10
-6.04343
 20
1.391
 30
0.0
 10
-6.04343
 20
1.391
 30
0.0
 10
-6.04343
 20
1.391
 30
0.0
 10
-6.04343
 20
1.391
 30
0.0
 10
-6.04343
 20
1.391
 30
0.0
 10
-6.05437
 20
1.36065
 30
0.0
 10
-6.06424
 20
1.33032
 30
0.0
 10
-6.07272
 20
1.29928
 30
0.0
 10
-6.07272
 20
1.29928
 30
0.0
 10
-6.00816
 20
1.29575
 30
0.0
 10
-5.94325
 20
1.29187
 30
0.0
 10
-5.87833
 20
1.28729
 30
0.0
 10
-5.87833
 20
1.28729
 30
0.0
 10
-5.87903
 20
1.30703
 30
0.0
 10
-5.88044
 20
1.34691
 30
0.0
 10
-5.88115
 20
1.36666
 30
0.0
 10
-5.88115
 20
1.36666
 30
0.0
 10
-5.93266
 20
1.3857
 30
0.0
 10
-5.98805
 20
1.41393
 30
0.0
 10
-6.04343
 20
1.391
 30
0.0
  0
SPLINE
  5
53
330
1F
100
AcDbEntity
  8
Camada 1
100
AcDbSpline
210
0.0
220
0.0
230
1.0
 70
    11
 71
     3
 72
    24
 73
    20
 74
     0
 42
0.0000000001
 43
0.0000000001
 12
1.0
 22
0.0
 32
0.0
 13
1.0
 23
0.0
 33
0.0
 40
0.0
 40
0.0
 40
0.0
 40
0.0
 40
0.1666666666666667
 40
0.1666666666666667
 40
0.1666666666666667
 40
0.1666666666666667
 40
0.3333333333333333
 40
0.3333333333333333
 40
0.3333333333333333
 40
0.3333333333333333
 40
0.5
 40
0.5
 40
0.5
 40
0.5
 40
0.6666666666666666
 40
0.6666666666666666
 40
0.6666666666666666
 40
0.6666666666666666
 40
1.0
 40
1.0
 40
1.0
 40
1.0
 10
-2.55235
 20
1.36877
 30
0.0
 10
-2.55235
 20
1.36877
 30
0.0
 10
-2.55235
 20
1.36877
 30
0.0
 10
-2.55235
 20
1.36877
 30
0.0
 10
-2.55235
 20
1.36877
 30
0.0
 10
-2.5541
 20
1.34866
 30
0.0
 10
-2.55729
 20
1.30844
 30
0.0
 10
-2.55869
 20
1.28834
 30
0.0
 10
-2.55869
 20
1.28834
 30
0.0
 10
-2.49802
 20
1.29151
 30
0.0
 10
-2.43699
 20
1.29399
 30
0.0
 10
-2.3763
 20
1.29575
 30
0.0
 10
-2.3763
 20
1.29575
 30
0.0
 10
-2.37384
 20
1.31833
 30
0.0
 10
-2.3696
 20
1.36384
 30
0.0
 10
-2.36748
 20
1.3864
 30
0.0
 10
-2.36748
 20
1.3864
 30
0.0
 10
-2.43028
 20
1.40088
 30
0.0
 10
-2.49414
 20
1.397
 30
0.0
 10
-2.55235
 20
1.36877
 30
0.0
  0
SPLINE
  5
54
330
1F
100
AcDbEntity
  8
Camada 1
100
AcDbSpline
210
0.0
220
0.0
230
1.0
 70
    11
 71
     3
 72
    24
 73
    20
 74
     0
 42
0.0000000001
 43
0.0000000001
 12
1.0
 22
0.0
 32
0.0
 13
1.0
 23
0.0
 33
0.0
 40
0.0
 40
0.0
 40
0.0
 40
0.0
 40
0.1666666666666667
 40
0.1666666666666667
 40
0.1666666666666667
 40
0.1666666666666667
 40
0.3333333333333333
 40
0.3333333333333333
 40
0.3333333333333333
 40
0.3333333333333333
 40
0.5
 40
0.5
 40
0.5
 40
0.5
 40
0.6666666666666666
 40
0.6666666666666666
 40
0.6666666666666666
 40
0.6666666666666666
 40
1.0
 40
1.0
 40
1.0
 40
1.0
 10
-2.12266
 20
1.38923
 30
0.0
 10
-2.12266
 20
1.38923
 30
0.0
 10
-2.12266
 20
1.38923
 30
0.0
 10
-2.12266
 20
1.38923
 30
0.0
 10
-2.12266
 20
1.38923
 30
0.0
 10
-2.12831
 20
1.3589
 30
0.0
 10
-2.13395
 20
1.3282
 30
0.0
 10
-2.13995
 20
1.2975
 30
0.0
 10
-2.13995
 20
1.2975
 30
0.0
 10
-2.07327
 20
1.29575
 30
0.0
 10
-2.00659
 20
1.29258
 30
0.0
 10
-1.94027
 20
1.28869
 30
0.0
 10
-1.94027
 20
1.28869
 30
0.0
 10
-1.94875
 20
1.32362
 30
0.0
 10
-1.95686
 20
1.3589
 30
0.0
 10
-1.96532
 20
1.39381
 30
0.0
 10
-1.96532
 20
1.39381
 30
0.0
 10
-2.01789
 20
1.39381
 30
0.0
 10
-2.07044
 20
1.39242
 30
0.0
 10
-2.12266
 20
1.38923
 30
0.0
  0
SPLINE
  5
55
330
1F
100
AcDbEntity
  8
Camada 1
100
AcDbSpline
210
0.0
220
0.0
230
1.0
 70
    11
 71
     3
 72
    20
 73
    16
 74
     0
 42
0.0000000001
 43
0.0000000001
 12
1.0
 22
0.0
 32
0.0
 13
1.0
 23
0.0
 33
0.0
 40
0.0
 40
0.0
 40
0.0
 40
0.0
 40
0.2
 40
0.2
 40
0.2
 40
0.2
 40
0.4
 40
0.4
 40
0.4
 40
0.4
 40
0.6
 40
0.6
 40
0.6
 40
0.6
 40
1.0
 40
1.0
 40
1.0
 40
1.0
 10
-6.89434
 20
1.30598
 30
0.0
 10
-6.89434
 20
1.30598
 30
0.0
 10
-6.89434
 20
1.30598
 30
0.0
 10
-6.89434
 20
1.30598
 30
0.0
 10
-6.89434
 20
1.30598
 30
0.0
 10
-6.8968
 20
1.27987
 30
0.0
 10
-6.90138
 20
1.22765
 30
0.0
 10
-6.90386
 20
1.20156
 30
0.0
 10
-6.90386
 20
1.20156
 30
0.0
 10
-6.83365
 20
1.22096
 30
0.0
 10
-6.7638
 20
1.24107
 30
0.0
 10
-6.69395
 20
1.26223
 30
0.0
 10
-6.69395
 20
1.26223
 30
0.0
 10
-6.73981
 20
1.33914
 30
0.0
 10
-6.82025
 20
1.3402
 30
0.0
 10
-6.89434
 20
1.30598
 30
0.0
  0
SPLINE
  5
56
330
1F
100
AcDbEntity
  8
Camada 1
100
AcDbSpline
210
0.0
220
0.0
230
1.0
 70
    11
 71
     3
 72
    20
 73
    16
 74
     0
 42
0.0000000001
 43
0.0000000001
 12
1.0
 22
0.0
 32
0.0
 13
1.0
 23
0.0
 33
0.0
 40
0.0
 40
0.0
 40
0.0
 40
0.0
 40
0.2
 40
0.2
 40
0.2
 40
0.2
 40
0.4
 40
0.4
 40
0.4
 40
0.4
 40
0.6
 40
0.6
 40
0.6
 40
0.6
 40
1.0
 40
1.0
 40
1.0
 40
1.0
 10
-5.68537
 20
1.27387
 30
0.0
 10
-5.68537
 20
1.27387
 30
0.0
 10
-5.68537
 20
1.27387
 30
0.0
 10
-5.68537
 20
1.27387
 30
0.0
 10
-5.68537
 20
1.27387
 30
0.0
 10
-5.61128
 20
1.25165
 30
0.0
 10
-5.53685
 20
1.23084
 30
0.0
 10
-5.46206
 20
1.21108
 30
0.0
 10
-5.46206
 20
1.21108
 30
0.0
 10
-5.48181
 20
1.24989
 30
0.0
 10
-5.46876
 20
1.31797
 30
0.0
 10
-5.51921
 20
1.33244
 30
0.0
 10
-5.51921
 20
1.33244
 30
0.0
 10
-5.58305
 20
1.38148
 30
0.0
 10
-5.63421
 20
1.30457
 30
0.0
 10
-5.68537
 20
1.27387
 30
0.0
  0
SPLINE
  5
57
330
1F
100
AcDbEntity
  8
Camada 1
100
AcDbSpline
210
0.0
220
0.0
230
1.0
 70
    11
 71
     3
 72
    20
 73
    16
 74
     0
 42
0.0000000001
 43
0.0000000001
 12
1.0
 22
0.0
 32
0.0
 13
1.0
 23
0.0
 33
0.0
 40
0.0
 40
0.0
 40
0.0
 40
0.0
 40
0.2
 40
0.2
 40
0.2
 40
0.2
 40
0.4
 40
0.4
 40
0.4
 40
0.4
 40
0.6
 40
0.6
 40
0.6
 40
0.6
 40
1.0
 40
1.0
 40
1.0
 40
1.0
 10
-2.99225
 20
1.21072
 30
0.0
 10
-2.99225
 20
1.21072
 30
0.0
 10
-2.99225
 20
1.21072
 30
0.0
 10
-2.99225
 20
1.21072
 30
0.0
 10
-2.99225
 20
1.21072
 30
0.0
 10
-2.91217
 20
1.22624
 30
0.0
 10
-2.8335
 20
1.24919
 30
0.0
 10
-2.7559
 20
1.27423
 30
0.0
 10
-2.7559
 20
1.27423
 30
0.0
 10
-2.7887
 20
1.30352
 30
0.0
 10
-2.82327
 20
1.33032
 30
0.0
 10
-2.85962
 20
1.35466
 30
0.0
 10
-2.85962
 20
1.35466
 30
0.0
 10
-2.93334
 20
1.33879
 30
0.0
 10
-2.96545
 20
1.27316
 30
0.0
 10
-2.99225
 20
1.21072
 30
0.0
  0
SPLINE
  5
58
330
1F
100
AcDbEntity
  8
Camada 1
100
AcDbSpline
210
0.0
220
0.0
230
1.0
 70
    11
 71
     3
 72
    20
 73
    16
 74
     0
 42
0.0000000001
 43
0.0000000001
 12
1.0
 22
0.0
 32
0.0
 13
1.0
 23
0.0
 33
0.0
 40
0.0
 40
0.0
 40
0.0
 40
0.0
 40
0.2
 40
0.2
 40
0.2
 40
0.2
 40
0.4
 40
0.4
 40
0.4
 40
0.4
 40
0.6
 40
0.6
 40
0.6
 40
0.6
 40
1.0
 40
1.0
 40
1.0
 40
1.0
 10
-1.71591
 20
1.25095
 30
0.0
 10
-1.71591
 20
1.25095
 30
0.0
 10
-1.71591
 20
1.25095
 30
0.0
 10
-1.71591
 20
1.25095
 30
0.0
 10
-1.71591
 20
1.25095
 30
0.0
 10
-1.65135
 20
1.22836
 30
0.0
 10
-1.58362
 20
1.21708
 30
0.0
 10
-1.51589
 20
1.20755
 30
0.0
 10
-1.51589
 20
1.20755
 30
0.0
 10
-1.53423
 20
1.24707
 30
0.0
 10
-1.55046
 20
1.28763
 30
0.0
 10
-1.57585
 20
1.32326
 30
0.0
 10
-1.57585
 20
1.32326
 30
0.0
 10
-1.62947
 20
1.34126
 30
0.0
 10
-1.74308
 20
1.33278
 30
0.0
 10
-1.71591
 20
1.25095
 30
0.0
  0
SPLINE
  5
59
330
1F
100
AcDbEntity
  8
Camada 1
100
AcDbSpline
210
0.0
220
0.0
230
1.0
 70
    11
 71
     3
 72
    24
 73
    20
 74
     0
 42
0.0000000001
 43
0.0000000001
 12
1.0
 22
0.0
 32
0.0
 13
1.0
 23
0.0
 33
0.0
 40
0.0
 40
0.0
 40
0.0
 40
0.0
 40
0.1666666666666667
 40
0.1666666666666667
 40
0.1666666666666667
 40
0.1666666666666667
 40
0.3333333333333333
 40
0.3333333333333333
 40
0.3333333333333333
 40
0.3333333333333333
 40
0.5
 40
0.5
 40
0.5
 40
0.5
 40
0.6666666666666666
 40
0.6666666666666666
 40
0.6666666666666666
 40
0.6666666666666666
 40
1.0
 40
1.0
 40
1.0
 40
1.0
 10
-7.24534
 20
1.17827
 30
0.0
 10
-7.24534
 20
1.17827
 30
0.0
 10
-7.24534
 20
1.17827
 30
0.0
 10
-7.24534
 20
1.17827
 30
0.0
 10
-7.24534
 20
1.17827
 30
0.0
 10
-7.25594
 20
1.14053
 30
0.0
 10
-7.26475
 20
1.10208
 30
0.0
 10
-7.27145
 20
1.06327
 30
0.0
 10
-7.27145
 20
1.06327
 30
0.0
 10
-7.21218
 20
1.08513
 30
0.0
 10
-7.15327
 20
1.10878
 30
0.0
 10
-7.094
 20
1.13135
 30
0.0
 10
-7.094
 20
1.13135
 30
0.0
 10
-7.0986
 20
1.155
 30
0.0
 10
-7.10776
 20
1.20261
 30
0.0
 10
-7.11234
 20
1.22624
 30
0.0
 10
-7.11234
 20
1.22624
 30
0.0
 10
-7.15751
 20
1.2125
 30
0.0
 10
-7.20336
 20
1.19979
 30
0.0
 10
-7.24534
 20
1.17827
 30
0.0
  0
SPLINE
  5
5A
330
1F
100
AcDbEntity
  8
Camada 1
100
AcDbSpline
210
0.0
220
0.0
230
1.0
 70
    11
 71
     3
 72
    20
 73
    16
 74
     0
 42
0.0000000001
 43
0.0000000001
 12
1.0
 22
0.0
 32
0.0
 13
1.0
 23
0.0
 33
0.0
 40
0.0
 40
0.0
 40
0.0
 40
0.0
 40
0.2
 40
0.2
 40
0.2
 40
0.2
 40
0.4
 40
0.4
 40
0.4
 40
0.4
 40
0.6
 40
0.6
 40
0.6
 40
0.6
 40
1.0
 40
1.0
 40
1.0
 40
1.0
 10
-5.25921
 20
1.16662
 30
0.0
 10
-5.25921
 20
1.16662
 30
0.0
 10
-5.25921
 20
1.16662
 30
0.0
 10
-5.25921
 20
1.16662
 30
0.0
 10
-5.25921
 20
1.16662
 30
0.0
 10
-5.19041
 20
1.13312
 30
0.0
 10
-5.12022
 20
1.10313
 30
0.0
 10
-5.04895
 20
1.07597
 30
0.0
 10
-5.04895
 20
1.07597
 30
0.0
 10
-5.05495
 20
1.1236
 30
0.0
 10
-5.06165
 20
1.17122
 30
0.0
 10
-5.06871
 20
1.21849
 30
0.0
 10
-5.06871
 20
1.21849
 30
0.0
 10
-5.13785
 20
1.22485
 30
0.0
 10
-5.20347
 20
1.20896
 30
0.0
 10
-5.25921
 20
1.16662
 30
0.0
  0
SPLINE
  5
5B
330
1F
100
AcDbEntity
  8
Camada 1
100
AcDbSpline
210
0.0
220
0.0
230
1.0
 70
    11
 71
     3
 72
    20
 73
    16
 74
     0
 42
0.0000000001
 43
0.0000000001
 12
1.0
 22
0.0
 32
0.0
 13
1.0
 23
0.0
 33
0.0
 40
0.0
 40
0.0
 40
0.0
 40
0.0
 40
0.2
 40
0.2
 40
0.2
 40
0.2
 40
0.4
 40
0.4
 40
0.4
 40
0.4
 40
0.6
 40
0.6
 40
0.6
 40
0.6
 40
1.0
 40
1.0
 40
1.0
 40
1.0
 10
-3.34327
 20
1.22765
 30
0.0
 10
-3.34327
 20
1.22765
 30
0.0
 10
-3.34327
 20
1.22765
 30
0.0
 10
-3.34327
 20
1.22765
 30
0.0
 10
-3.34327
 20
1.22765
 30
0.0
 10
-3.36267
 20
1.17792
 30
0.0
 10
-3.37925
 20
1.12713
 30
0.0
 10
-3.39372
 20
1.07597
 30
0.0
 10
-3.39372
 20
1.07597
 30
0.0
 10
-3.3355
 20
1.09677
 30
0.0
 10
-3.27554
 20
1.11407
 30
0.0
 10
-3.22085
 20
1.1437
 30
0.0
 10
-3.22085
 20
1.1437
 30
0.0
 10
-3.17217
 20
1.22943
 30
0.0
 10
-3.29318
 20
1.21002
 30
0.0
 10
-3.34327
 20
1.22765
 30
0.0
  0
SPLINE
  5
5C
330
1F
100
AcDbEntity
  8
Camada 1
100
AcDbSpline
210
0.0
220
0.0
230
1.0
 70
    11
 71
     3
 72
    24
 73
    20
 74
     0
 42
0.0000000001
 43
0.0000000001
 12
1.0
 22
0.0
 32
0.0
 13
1.0
 23
0.0
 33
0.0
 40
0.0
 40
0.0
 40
0.0
 40
0.0
 40
0.1666666666666667
 40
0.1666666666666667
 40
0.1666666666666667
 40
0.1666666666666667
 40
0.3333333333333333
 40
0.3333333333333333
 40
0.3333333333333333
 40
0.3333333333333333
 40
0.5
 40
0.5
 40
0.5
 40
0.5
 40
0.6666666666666666
 40
0.6666666666666666
 40
0.6666666666666666
 40
0.6666666666666666
 40
1.0
 40
1.0
 40
1.0
 40
1.0
 10
-1.34584
 20
1.20543
 30
0.0
 10
-1.34584
 20
1.20543
 30
0.0
 10
-1.34584
 20
1.20543
 30
0.0
 10
-1.34584
 20
1.20543
 30
0.0
 10
-1.34584
 20
1.20543
 30
0.0
 10
-1.35042
 20
1.18816
 30
0.0
 10
-1.35924
 20
1.15393
 30
0.0
 10
-1.36384
 20
1.13665
 30
0.0
 10
-1.36384
 20
1.13665
 30
0.0
 10
-1.2954
 20
1.11337
 30
0.0
 10
-1.22695
 20
1.08973
 30
0.0
 10
-1.15746
 20
1.06856
 30
0.0
 10
-1.15746
 20
1.06856
 30
0.0
 10
-1.1751
 20
1.11794
 30
0.0
 10
-1.19415
 20
1.16628
 30
0.0
 10
-1.21462
 20
1.21391
 30
0.0
 10
-1.21462
 20
1.21391
 30
0.0
 10
-1.25871
 20
1.21108
 30
0.0
 10
-1.30245
 20
1.20826
 30
0.0
 10
-1.34584
 20
1.20543
 30
0.0
  0
SPLINE
  5
5D
330
1F
100
AcDbEntity
  8
Camada 1
100
AcDbSpline
210
0.0
220
0.0
230
1.0
 70
    11
 71
     3
 72
    20
 73
    16
 74
     0
 42
0.0000000001
 43
0.0000000001
 12
1.0
 22
0.0
 32
0.0
 13
1.0
 23
0.0
 33
0.0
 40
0.0
 40
0.0
 40
0.0
 40
0.0
 40
0.2
 40
0.2
 40
0.2
 40
0.2
 40
0.4
 40
0.4
 40
0.4
 40
0.4
 40
0.6
 40
0.6
 40
0.6
 40
0.6
 40
1.0
 40
1.0
 40
1.0
 40
1.0
 10
-7.57132
 20
1.04705
 30
0.0
 10
-7.57132
 20
1.04705
 30
0.0
 10
-7.57132
 20
1.04705
 30
0.0
 10
-7.57132
 20
1.04705
 30
0.0
 10
-7.57132
 20
1.04705
 30
0.0
 10
-7.59213
 20
0.99272
 30
0.0
 10
-7.60942
 20
0.93732
 30
0.0
 10
-7.62353
 20
0.88089
 30
0.0
 10
-7.62353
 20
0.88089
 30
0.0
 10
-7.54556
 20
0.90699
 30
0.0
 10
-7.47394
 20
0.94755
 30
0.0
 10
-7.40587
 20
0.99272
 30
0.0
 10
-7.40587
 20
0.99272
 30
0.0
 10
-7.45878
 20
1.01669
 30
0.0
 10
-7.51416
 20
1.03504
 30
0.0
 10
-7.57132
 20
1.04705
 30
0.0
  0
SPLINE
  5
5E
330
1F
100
AcDbEntity
  8
Camada 1
100
AcDbSpline
210
0.0
220
0.0
230
1.0
 70
    11
 71
     3
 72
    20
 73
    16
 74
     0
 42
0.0000000001
 43
0.0000000001
 12
1.0
 22
0.0
 32
0.0
 13
1.0
 23
0.0
 33
0.0
 40
0.0
 40
0.0
 40
0.0
 40
0.0
 40
0.2
 40
0.2
 40
0.2
 40
0.2
 40
0.4
 40
0.4
 40
0.4
 40
0.4
 40
0.6
 40
0.6
 40
0.6
 40
0.6
 40
1.0
 40
1.0
 40
1.0
 40
1.0
 10
-4.87469
 20
1.00117
 30
0.0
 10
-4.87469
 20
1.00117
 30
0.0
 10
-4.87469
 20
1.00117
 30
0.0
 10
-4.87469
 20
1.00117
 30
0.0
 10
-4.87469
 20
1.00117
 30
0.0
 10
-4.80484
 20
0.9666
 30
0.0
 10
-4.73357
 20
0.93415
 30
0.0
 10
-4.66054
 20
0.90628
 30
0.0
 10
-4.66054
 20
0.90628
 30
0.0
 10
-4.67535
 20
0.95603
 30
0.0
 10
-4.69194
 20
1.00507
 30
0.0
 10
-4.70887
 20
1.05409
 30
0.0
 10
-4.70887
 20
1.05409
 30
0.0
 10
-4.76778
 20
1.0488
 30
0.0
 10
-4.82564
 20
1.03611
 30
0.0
 10
-4.87469
 20
1.00117
 30
0.0
  0
SPLINE
  5
5F
330
1F
100
AcDbEntity
  8
Camada 1
100
AcDbSpline
210
0.0
220
0.0
230
1.0
 70
    11
 71
     3
 72
    20
 73
    16
 74
     0
 42
0.0000000001
 43
0.0000000001
 12
1.0
 22
0.0
 32
0.0
 13
1.0
 23
0.0
 33
0.0
 40
0.0
 40
0.0
 40
0.0
 40
0.0
 40
0.2
 40
0.2
 40
0.2
 40
0.2
 40
0.4
 40
0.4
 40
0.4
 40
0.4
 40
0.6
 40
0.6
 40
0.6
 40
0.6
 40
1.0
 40
1.0
 40
1.0
 40
1.0
 10
-3.74791
 20
1.04281
 30
0.0
 10
-3.74791
 20
1.04281
 30
0.0
 10
-3.74791
 20
1.04281
 30
0.0
 10
-3.74791
 20
1.04281
 30
0.0
 10
-3.74791
 20
1.04281
 30
0.0
 10
-3.75391
 20
0.99694
 30
0.0
 10
-3.75954
 20
0.95074
 30
0.0
 10
-3.76449
 20
0.90416
 30
0.0
 10
-3.76449
 20
0.90416
 30
0.0
 10
-3.69534
 20
0.9352
 30
0.0
 10
-3.62761
 20
0.96872
 30
0.0
 10
-3.56093
 20
1.00471
 30
0.0
 10
-3.56093
 20
1.00471
 30
0.0
 10
-3.61667
 20
1.04281
 30
0.0
 10
-3.68194
 20
1.04985
 30
0.0
 10
-3.74791
 20
1.04281
 30
0.0
  0
SPLINE
  5
60
330
1F
100
AcDbEntity
  8
Camada 1
100
AcDbSpline
210
0.0
220
0.0
230
1.0
 70
    11
 71
     3
 72
    20
 73
    16
 74
     0
 42
0.0000000001
 43
0.0000000001
 12
1.0
 22
0.0
 32
0.0
 13
1.0
 23
0.0
 33
0.0
 40
0.0
 40
0.0
 40
0.0
 40
0.0
 40
0.2
 40
0.2
 40
0.2
 40
0.2
 40
0.4
 40
0.4
 40
0.4
 40
0.4
 40
0.6
 40
0.6
 40
0.6
 40
0.6
 40
1.0
 40
1.0
 40
1.0
 40
1.0
 10
-1.03222
 20
0.99024
 30
0.0
 10
-1.03222
 20
0.99024
 30
0.0
 10
-1.03222
 20
0.99024
 30
0.0
 10
-1.03222
 20
0.99024
 30
0.0
 10
-1.03222
 20
0.99024
 30
0.0
 10
-0.96378
 20
0.94826
 30
0.0
 10
-0.89358
 20
0.9091
 30
0.0
 10
-0.81845
 20
0.88053
 30
0.0
 10
-0.81845
 20
0.88053
 30
0.0
 10
-0.83114
 20
0.93132
 30
0.0
 10
-0.81455
 20
1.00541
 30
0.0
 10
-0.87736
 20
1.02551
 30
0.0
 10
-0.87736
 20
1.02551
 30
0.0
 10
-0.9285
 20
1.07102
 30
0.0
 10
-0.98248
 20
1.00646
 30
0.0
 10
-1.03222
 20
0.99024
 30
0.0
  0
SPLINE
  5
61
330
1F
100
AcDbEntity
  8
Camada 1
100
AcDbSpline
210
0.0
220
0.0
230
1.0
 70
    11
 71
     3
 72
    20
 73
    16
 74
     0
 42
0.0000000001
 43
0.0000000001
 12
1.0
 22
0.0
 32
0.0
 13
1.0
 23
0.0
 33
0.0
 40
0.0
 40
0.0
 40
0.0
 40
0.0
 40
0.2
 40
0.2
 40
0.2
 40
0.2
 40
0.4
 40
0.4
 40
0.4
 40
0.4
 40
0.6
 40
0.6
 40
0.6
 40
0.6
 40
1.0
 40
1.0
 40
1.0
 40
1.0
 10
-4.4965
 20
0.83361
 30
0.0
 10
-4.4965
 20
0.83361
 30
0.0
 10
-4.4965
 20
0.83361
 30
0.0
 10
-4.4965
 20
0.83361
 30
0.0
 10
-4.4965
 20
0.83361
 30
0.0
 10
-4.45135
 20
0.76517
 30
0.0
 10
-4.37938
 20
0.7246
 30
0.0
 10
-4.30776
 20
0.68826
 30
0.0
 10
-4.30776
 20
0.68826
 30
0.0
 10
-4.31058
 20
0.7373
 30
0.0
 10
-4.31411
 20
0.78634
 30
0.0
 10
-4.31835
 20
0.83502
 30
0.0
 10
-4.31835
 20
0.83502
 30
0.0
 10
-4.37761
 20
0.83679
 30
0.0
 10
-4.43723
 20
0.83679
 30
0.0
 10
-4.4965
 20
0.83361
 30
0.0
  0
SPLINE
  5
62
330
1F
100
AcDbEntity
  8
Camada 1
100
AcDbSpline
210
0.0
220
0.0
230
1.0
 70
    11
 71
     3
 72
    20
 73
    16
 74
     0
 42
0.0000000001
 43
0.0000000001
 12
1.0
 22
0.0
 32
0.0
 13
1.0
 23
0.0
 33
0.0
 40
0.0
 40
0.0
 40
0.0
 40
0.0
 40
0.2
 40
0.2
 40
0.2
 40
0.2
 40
0.4
 40
0.4
 40
0.4
 40
0.4
 40
0.6
 40
0.6
 40
0.6
 40
0.6
 40
1.0
 40
1.0
 40
1.0
 40
1.0
 10
-4.1035
 20
0.82479
 30
0.0
 10
-4.1035
 20
0.82479
 30
0.0
 10
-4.1035
 20
0.82479
 30
0.0
 10
-4.1035
 20
0.82479
 30
0.0
 10
-4.1035
 20
0.82479
 30
0.0
 10
-4.12467
 20
0.78739
 30
0.0
 10
-4.13985
 20
0.74682
 30
0.0
 10
-4.15571
 20
0.7066
 30
0.0
 10
-4.15571
 20
0.7066
 30
0.0
 10
-4.064
 20
0.70626
 30
0.0
 10
-3.99062
 20
0.75917
 30
0.0
 10
-3.94053
 20
0.83255
 30
0.0
 10
-3.94053
 20
0.83255
 30
0.0
 10
-3.99379
 20
0.82973
 30
0.0
 10
-4.05518
 20
0.85478
 30
0.0
 10
-4.1035
 20
0.82479
 30
0.0
  0
SPLINE
  5
63
330
1F
100
AcDbEntity
  8
Camada 1
100
AcDbSpline
210
0.0
220
0.0
230
1.0
 70
    11
 71
     3
 72
    20
 73
    16
 74
     0
 42
0.0000000001
 43
0.0000000001
 12
1.0
 22
0.0
 32
0.0
 13
1.0
 23
0.0
 33
0.0
 40
0.0
 40
0.0
 40
0.0
 40
0.0
 40
0.2
 40
0.2
 40
0.2
 40
0.2
 40
0.4
 40
0.4
 40
0.4
 40
0.4
 40
0.6
 40
0.6
 40
0.6
 40
0.6
 40
1.0
 40
1.0
 40
1.0
 40
1.0
 10
-7.91668
 20
0.78951
 30
0.0
 10
-7.91668
 20
0.78951
 30
0.0
 10
-7.91668
 20
0.78951
 30
0.0
 10
-7.91668
 20
0.78951
 30
0.0
 10
-7.91668
 20
0.78951
 30
0.0
 10
-7.92268
 20
0.73413
 30
0.0
 10
-7.92726
 20
0.67875
 30
0.0
 10
-7.93009
 20
0.62301
 30
0.0
 10
-7.93009
 20
0.62301
 30
0.0
 10
-7.85883
 20
0.66569
 30
0.0
 10
-7.79426
 20
0.71931
 30
0.0
 10
-7.75124
 20
0.79128
 30
0.0
 10
-7.75124
 20
0.79128
 30
0.0
 10
-7.80625
 20
0.79269
 30
0.0
 10
-7.86165
 20
0.79199
 30
0.0
 10
-7.91668
 20
0.78951
 30
0.0
  0
SPLINE
  5
64
330
1F
100
AcDbEntity
  8
Camada 1
100
AcDbSpline
210
0.0
220
0.0
230
1.0
 70
    11
 71
     3
 72
    20
 73
    16
 74
     0
 42
0.0000000001
 43
0.0000000001
 12
1.0
 22
0.0
 32
0.0
 13
1.0
 23
0.0
 33
0.0
 40
0.0
 40
0.0
 40
0.0
 40
0.0
 40
0.2
 40
0.2
 40
0.2
 40
0.2
 40
0.4
 40
0.4
 40
0.4
 40
0.4
 40
0.6
 40
0.6
 40
0.6
 40
0.6
 40
1.0
 40
1.0
 40
1.0
 40
1.0
 10
-0.67944
 20
0.79304
 30
0.0
 10
-0.67944
 20
0.79304
 30
0.0
 10
-0.67944
 20
0.79304
 30
0.0
 10
-0.67944
 20
0.79304
 30
0.0
 10
-0.67944
 20
0.79304
 30
0.0
 10
-0.64805
 20
0.71261
 30
0.0
 10
-0.57502
 20
0.66569
 30
0.0
 10
-0.50341
 20
0.62442
 30
0.0
 10
-0.50341
 20
0.62442
 30
0.0
 10
-0.50658
 20
0.6798
 30
0.0
 10
-0.51082
 20
0.73483
 30
0.0
 10
-0.51681
 20
0.78987
 30
0.0
 10
-0.51681
 20
0.78987
 30
0.0
 10
-0.5708
 20
0.79233
 30
0.0
 10
-0.62547
 20
0.79375
 30
0.0
 10
-0.67944
 20
0.79304
 30
0.0
  0
SPLINE
  5
65
330
1F
100
AcDbEntity
  8
Camada 1
100
AcDbSpline
210
0.0
220
0.0
230
1.0
 70
    11
 71
     3
 72
    20
 73
    16
 74
     0
 42
0.0000000001
 43
0.0000000001
 12
1.0
 22
0.0
 32
0.0
 13
1.0
 23
0.0
 33
0.0
 40
0.0
 40
0.0
 40
0.0
 40
0.0
 40
0.2
 40
0.2
 40
0.2
 40
0.2
 40
0.4
 40
0.4
 40
0.4
 40
0.4
 40
0.6
 40
0.6
 40
0.6
 40
0.6
 40
1.0
 40
1.0
 40
1.0
 40
1.0
 10
-8.20102
 20
0.47412
 30
0.0
 10
-8.20102
 20
0.47412
 30
0.0
 10
-8.20102
 20
0.47412
 30
0.0
 10
-8.20102
 20
0.47412
 30
0.0
 10
-8.20102
 20
0.47412
 30
0.0
 10
-8.22995
 20
0.41909
 30
0.0
 10
-8.20701
 20
0.35842
 30
0.0
 10
-8.19502
 20
0.30232
 30
0.0
 10
-8.19502
 20
0.30232
 30
0.0
 10
-8.13822
 20
0.36371
 30
0.0
 10
-8.08743
 20
0.43074
 30
0.0
 10
-8.04545
 20
0.50305
 30
0.0
 10
-8.04545
 20
0.50305
 30
0.0
 10
-8.09837
 20
0.50058
 30
0.0
 10
-8.1534
 20
0.50095
 30
0.0
 10
-8.20102
 20
0.47412
 30
0.0
  0
SPLINE
  5
66
330
1F
100
AcDbEntity
  8
Camada 1
100
AcDbSpline
210
0.0
220
0.0
230
1.0
 70
    11
 71
     3
 72
    20
 73
    16
 74
     0
 42
0.0000000001
 43
0.0000000001
 12
1.0
 22
0.0
 32
0.0
 13
1.0
 23
0.0
 33
0.0
 40
0.0
 40
0.0
 40
0.0
 40
0.0
 40
0.2
 40
0.2
 40
0.2
 40
0.2
 40
0.4
 40
0.4
 40
0.4
 40
0.4
 40
0.6
 40
0.6
 40
0.6
 40
0.6
 40
1.0
 40
1.0
 40
1.0
 40
1.0
 10
-0.38347
 20
0.49954
 30
0.0
 10
-0.38347
 20
0.49954
 30
0.0
 10
-0.38347
 20
0.49954
 30
0.0
 10
-0.38347
 20
0.49954
 30
0.0
 10
-0.38347
 20
0.49954
 30
0.0
 10
-0.3489
 20
0.42438
 30
0.0
 10
-0.29491
 20
0.36054
 30
0.0
 10
-0.23707
 20
0.30198
 30
0.0
 10
-0.23707
 20
0.30198
 30
0.0
 10
-0.22647
 20
0.35913
 30
0.0
 10
-0.22119
 20
0.41697
 30
0.0
 10
-0.21943
 20
0.47519
 30
0.0
 10
-0.21943
 20
0.47519
 30
0.0
 10
-0.2741
 20
0.48506
 30
0.0
 10
-0.32843
 20
0.496
 30
0.0
 10
-0.38347
 20
0.49954
 30
0.0
  0
SPLINE
  5
67
330
1F
100
AcDbEntity
  8
Camada 1
100
AcDbSpline
210
0.0
220
0.0
230
1.0
 70
    11
 71
     3
 72
    24
 73
    20
 74
     0
 42
0.0000000001
 43
0.0000000001
 12
1.0
 22
0.0
 32
0.0
 13
1.0
 23
0.0
 33
0.0
 40
0.0
 40
0.0
 40
0.0
 40
0.0
 40
0.1666666666666667
 40
0.1666666666666667
 40
0.1666666666666667
 40
0.1666666666666667
 40
0.3333333333333333
 40
0.3333333333333333
 40
0.3333333333333333
 40
0.3333333333333333
 40
0.5
 40
0.5
 40
0.5
 40
0.5
 40
0.6666666666666666
 40
0.6666666666666666
 40
0.6666666666666666
 40
0.6666666666666666
 40
1.0
 40
1.0
 40
1.0
 40
1.0
 10
-8.42115
 20
0.15628
 30
0.0
 10
-8.42115
 20
0.15628
 30
0.0
 10
-8.42115
 20
0.15628
 30
0.0
 10
-8.42115
 20
0.15628
 30
0.0
 10
-8.42115
 20
0.15628
 30
0.0
 10
-8.43315
 20
0.10407
 30
0.0
 10
-8.44268
 20
0.05115
 30
0.0
 10
-8.44832
 20
-0.00246
 30
0.0
 10
-8.44832
 20
-0.00246
 30
0.0
 10
-8.43138
 20
-0.00776
 30
0.0
 10
-8.39681
 20
-0.01869
 30
0.0
 10
-8.37988
 20
-0.02399
 30
0.0
 10
-8.37988
 20
-0.02399
 30
0.0
 10
-8.35413
 20
0.03774
 30
0.0
 10
-8.32767
 20
0.09947
 30
0.0
 10
-8.30157
 20
0.16087
 30
0.0
 10
-8.30157
 20
0.16087
 30
0.0
 10
-8.34143
 20
0.15945
 30
0.0
 10
-8.38129
 20
0.15804
 30
0.0
 10
-8.42115
 20
0.15628
 30
0.0
  0
SPLINE
  5
68
330
1F
100
AcDbEntity
  8
Camada 1
100
AcDbSpline
210
0.0
220
0.0
230
1.0
 70
    11
 71
     3
 72
    20
 73
    16
 74
     0
 42
0.0000000001
 43
0.0000000001
 12
1.0
 22
0.0
 32
0.0
 13
1.0
 23
0.0
 33
0.0
 40
0.0
 40
0.0
 40
0.0
 40
0.0
 40
0.2
 40
0.2
 40
0.2
 40
0.2
 40
0.4
 40
0.4
 40
0.4
 40
0.4
 40
0.6
 40
0.6
 40
0.6
 40
0.6
 40
1.0
 40
1.0
 40
1.0
 40
1.0
 10
-0.13511
 20
0.17604
 30
0.0
 10
-0.13511
 20
0.17604
 30
0.0
 10
-0.13511
 20
0.17604
 30
0.0
 10
-0.13511
 20
0.17604
 30
0.0
 10
-0.13511
 20
0.17604
 30
0.0
 10
-0.10865
 20
0.09842
 30
0.0
 10
-0.07408
 20
0.02399
 30
0.0
 10
-0.03527
 20
-0.04833
 30
0.0
 10
-0.03527
 20
-0.04833
 30
0.0
 10
-0.01658
 20
-0.00212
 30
0.0
 10
0.00952
 20
0.04197
 30
0.0
 10
0.01622
 20
0.09172
 30
0.0
 10
0.01622
 20
0.09172
 30
0.0
 10
-0.01481
 20
0.14781
 30
0.0
 10
-0.07796
 20
0.16228
 30
0.0
 10
-0.13511
 20
0.17604
 30
0.0
  0
SPLINE
  5
69
330
1F
100
AcDbEntity
  8
Camada 1
100
AcDbSpline
210
0.0
220
0.0
230
1.0
 70
    11
 71
     3
 72
    20
 73
    16
 74
     0
 42
0.0000000001
 43
0.0000000001
 12
1.0
 22
0.0
 32
0.0
 13
1.0
 23
0.0
 33
0.0
 40
0.0
 40
0.0
 40
0.0
 40
0.0
 40
0.2
 40
0.2
 40
0.2
 40
0.2
 40
0.4
 40
0.4
 40
0.4
 40
0.4
 40
0.6
 40
0.6
 40
0.6
 40
0.6
 40
1.0
 40
1.0
 40
1.0
 40
1.0
 10
-8.60213
 20
-0.36795
 30
0.0
 10
-8.60213
 20
-0.36795
 30
0.0
 10
-8.60213
 20
-0.36795
 30
0.0
 10
-8.60213
 20
-0.36795
 30
0.0
 10
-8.60213
 20
-0.36795
 30
0.0
 10
-8.57708
 20
-0.37182
 30
0.0
 10
-8.52628
 20
-0.37889
 30
0.0
 10
-8.50123
 20
-0.38276
 30
0.0
 10
-8.50123
 20
-0.38276
 30
0.0
 10
-8.491
 20
-0.31962
 30
0.0
 10
-8.48112
 20
-0.2561
 30
0.0
 10
-8.47301
 20
-0.19297
 30
0.0
 10
-8.47301
 20
-0.19297
 30
0.0
 10
-8.56791
 20
-0.20849
 30
0.0
 10
-8.60565
 20
-0.27727
 30
0.0
 10
-8.60213
 20
-0.36795
 30
0.0
  0
SPLINE
  5
6A
330
1F
100
AcDbEntity
  8
Camada 1
100
AcDbSpline
210
0.0
220
0.0
230
1.0
 70
    11
 71
     3
 72
    24
 73
    20
 74
     0
 42
0.0000000001
 43
0.0000000001
 12
1.0
 22
0.0
 32
0.0
 13
1.0
 23
0.0
 33
0.0
 40
0.0
 40
0.0
 40
0.0
 40
0.0
 40
0.1666666666666667
 40
0.1666666666666667
 40
0.1666666666666667
 40
0.1666666666666667
 40
0.3333333333333333
 40
0.3333333333333333
 40
0.3333333333333333
 40
0.3333333333333333
 40
0.5
 40
0.5
 40
0.5
 40
0.5
 40
0.6666666666666666
 40
0.6666666666666666
 40
0.6666666666666666
 40
0.6666666666666666
 40
1.0
 40
1.0
 40
1.0
 40
1.0
 10
0.03774
 20
-0.20672
 30
0.0
 10
0.03774
 20
-0.20672
 30
0.0
 10
0.03774
 20
-0.20672
 30
0.0
 10
0.03774
 20
-0.20672
 30
0.0
 10
0.03774
 20
-0.20672
 30
0.0
 10
0.04585
 20
-0.26423
 30
0.0
 10
0.05503
 20
-0.32137
 30
0.0
 10
0.06385
 20
-0.37889
 30
0.0
 10
0.06385
 20
-0.37889
 30
0.0
 10
0.0956
 20
-0.37818
 30
0.0
 10
0.1277
 20
-0.37782
 30
0.0
 10
0.1598
 20
-0.37711
 30
0.0
 10
0.1598
 20
-0.37711
 30
0.0
 10
0.15769
 20
-0.32985
 30
0.0
 10
0.15521
 20
-0.28222
 30
0.0
 10
0.15239
 20
-0.23495
 30
0.0
 10
0.15239
 20
-0.23495
 30
0.0
 10
0.11394
 20
-0.22542
 30
0.0
 10
0.07584
 20
-0.21624
 30
0.0
 10
0.03774
 20
-0.20672
 30
0.0
  0
SPLINE
  5
6B
330
1F
100
AcDbEntity
  8
Camada 1
100
AcDbSpline
210
0.0
220
0.0
230
1.0
 70
    11
 71
     3
 72
    20
 73
    16
 74
     0
 42
0.0000000001
 43
0.0000000001
 12
1.0
 22
0.0
 32
0.0
 13
1.0
 23
0.0
 33
0.0
 40
0.0
 40
0.0
 40
0.0
 40
0.0
 40
0.2
 40
0.2
 40
0.2
 40
0.2
 40
0.4
 40
0.4
 40
0.4
 40
0.4
 40
0.6
 40
0.6
 40
0.6
 40
0.6
 40
1.0
 40
1.0
 40
1.0
 40
1.0
 10
-8.66245
 20
-0.62089
 30
0.0
 10
-8.66245
 20
-0.62089
 30
0.0
 10
-8.66245
 20
-0.62089
 30
0.0
 10
-8.66245
 20
-0.62089
 30
0.0
 10
-8.66245
 20
-0.62089
 30
0.0
 10
-8.69738
 20
-0.69144
 30
0.0
 10
-8.65928
 20
-0.77223
 30
0.0
 10
-8.5852
 20
-0.79587
 30
0.0
 10
-8.5852
 20
-0.79587
 30
0.0
 10
-8.57214
 20
-0.71931
 30
0.0
 10
-8.56156
 20
-0.6424
 30
0.0
 10
-8.55909
 20
-0.56515
 30
0.0
 10
-8.55909
 20
-0.56515
 30
0.0
 10
-8.59402
 20
-0.58242
 30
0.0
 10
-8.62965
 20
-0.59901
 30
0.0
 10
-8.66245
 20
-0.62089
 30
0.0
  0
SPLINE
  5
6C
330
1F
100
AcDbEntity
  8
Camada 1
100
AcDbSpline
210
0.0
220
0.0
230
1.0
 70
    11
 71
     3
 72
    24
 73
    20
 74
     0
 42
0.0000000001
 43
0.0000000001
 12
1.0
 22
0.0
 32
0.0
 13
1.0
 23
0.0
 33
0.0
 40
0.0
 40
0.0
 40
0.0
 40
0.0
 40
0.1666666666666667
 40
0.1666666666666667
 40
0.1666666666666667
 40
0.1666666666666667
 40
0.3333333333333333
 40
0.3333333333333333
 40
0.3333333333333333
 40
0.3333333333333333
 40
0.5
 40
0.5
 40
0.5
 40
0.5
 40
0.6666666666666666
 40
0.6666666666666666
 40
0.6666666666666666
 40
0.6666666666666666
 40
1.0
 40
1.0
 40
1.0
 40
1.0
 10
0.12452
 20
-0.58032
 30
0.0
 10
0.12452
 20
-0.58032
 30
0.0
 10
0.12452
 20
-0.58032
 30
0.0
 10
0.12452
 20
-0.58032
 30
0.0
 10
0.12452
 20
-0.58032
 30
0.0
 10
0.1277
 20
-0.64169
 30
0.0
 10
0.13053
 20
-0.70343
 30
0.0
 10
0.13263
 20
-0.76553
 30
0.0
 10
0.13263
 20
-0.76553
 30
0.0
 10
0.15416
 20
-0.76658
 30
0.0
 10
0.19755
 20
-0.76941
 30
0.0
 10
0.21907
 20
-0.77082
 30
0.0
 10
0.21907
 20
-0.77082
 30
0.0
 10
0.23988
 20
-0.70838
 30
0.0
 10
0.23847
 20
-0.64416
 30
0.0
 10
0.20567
 20
-0.58596
 30
0.0
 10
0.20567
 20
-0.58596
 30
0.0
 10
0.18555
 20
-0.58454
 30
0.0
 10
0.14498
 20
-0.58173
 30
0.0
 10
0.12452
 20
-0.58032
 30
0.0
  0
SPLINE
  5
6D
330
1F
100
AcDbEntity
  8
Camada 1
100
AcDbSpline
210
0.0
220
0.0
230
1.0
 70
    11
 71
     3
 72
    20
 73
    16
 74
     0
 42
0.0000000001
 43
0.0000000001
 12
1.0
 22
0.0
 32
0.0
 13
1.0
 23
0.0
 33
0.0
 40
0.0
 40
0.0
 40
0.0
 40
0.0
 40
0.2
 40
0.2
 40
0.2
 40
0.2
 40
0.4
 40
0.4
 40
0.4
 40
0.4
 40
0.6
 40
0.6
 40
0.6
 40
0.6
 40
1.0
 40
1.0
 40
1.0
 40
1.0
 10
-8.71184
 20
-1.09536
 30
0.0
 10
-8.71184
 20
-1.09536
 30
0.0
 10
-8.71184
 20
-1.09536
 30
0.0
 10
-8.71184
 20
-1.09536
 30
0.0
 10
-8.71184
 20
-1.09536
 30
0.0
 10
-8.67304
 20
-1.13875
 30
0.0
 10
-8.63141
 20
-1.17968
 30
0.0
 10
-8.5859
 20
-1.21673
 30
0.0
 10
-8.5859
 20
-1.21673
 30
0.0
 10
-8.58096
 20
-1.13558
 30
0.0
 10
-8.58343
 20
-1.05409
 30
0.0
 10
-8.59225
 20
-0.97367
 30
0.0
 10
-8.59225
 20
-0.97367
 30
0.0
 10
-8.63458
 20
-1.01177
 30
0.0
 10
-8.67409
 20
-1.05268
 30
0.0
 10
-8.71184
 20
-1.09536
 30
0.0
  0
SPLINE
  5
6E
330
1F
100
AcDbEntity
  8
Camada 1
100
AcDbSpline
210
0.0
220
0.0
230
1.0
 70
    11
 71
     3
 72
    24
 73
    20
 74
     0
 42
0.0000000001
 43
0.0000000001
 12
1.0
 22
0.0
 32
0.0
 13
1.0
 23
0.0
 33
0.0
 40
0.0
 40
0.0
 40
0.0
 40
0.0
 40
0.1666666666666667
 40
0.1666666666666667
 40
0.1666666666666667
 40
0.1666666666666667
 40
0.3333333333333333
 40
0.3333333333333333
 40
0.3333333333333333
 40
0.3333333333333333
 40
0.5
 40
0.5
 40
0.5
 40
0.5
 40
0.6666666666666666
 40
0.6666666666666666
 40
0.6666666666666666
 40
0.6666666666666666
 40
1.0
 40
1.0
 40
1.0
 40
1.0
 10
0.14958
 20
-0.99024
 30
0.0
 10
0.14958
 20
-0.99024
 30
0.0
 10
0.14958
 20
-0.99024
 30
0.0
 10
0.14958
 20
-0.99024
 30
0.0
 10
0.14958
 20
-0.99024
 30
0.0
 10
0.14958
 20
-1.06574
 30
0.0
 10
0.14993
 20
-1.14123
 30
0.0
 10
0.15487
 20
-1.21673
 30
0.0
 10
0.15487
 20
-1.21673
 30
0.0
 10
0.19437
 20
-1.18109
 30
0.0
 10
0.23247
 20
-1.14335
 30
0.0
 10
0.26846
 20
-1.10418
 30
0.0
 10
0.26846
 20
-1.10418
 30
0.0
 10
0.25646
 20
-1.08126
 30
0.0
 10
0.23213
 20
-1.0354
 30
0.0
 10
0.22014
 20
-1.01247
 30
0.0
 10
0.22014
 20
-1.01247
 30
0.0
 10
0.2025
 20
-1.00682
 30
0.0
 10
0.16722
 20
-0.99554
 30
0.0
 10
0.14958
 20
-0.99024
 30
0.0
  0
SPLINE
  5
6F
330
1F
100
AcDbEntity
  8
Camada 1
100
AcDbSpline
210
0.0
220
0.0
230
1.0
 70
    11
 71
     3
 72
    20
 73
    16
 74
     0
 42
0.0000000001
 43
0.0000000001
 12
1.0
 22
0.0
 32
0.0
 13
1.0
 23
0.0
 33
0.0
 40
0.0
 40
0.0
 40
0.0
 40
0.0
 40
0.2
 40
0.2
 40
0.2
 40
0.2
 40
0.4
 40
0.4
 40
0.4
 40
0.4
 40
0.6
 40
0.6
 40
0.6
 40
0.6
 40
1.0
 40
1.0
 40
1.0
 40
1.0
 10
-8.60319
 20
-1.41851
 30
0.0
 10
-8.60319
 20
-1.41851
 30
0.0
 10
-8.60319
 20
-1.41851
 30
0.0
 10
-8.60319
 20
-1.41851
 30
0.0
 10
-8.60319
 20
-1.41851
 30
0.0
 10
-8.65786
 20
-1.47072
 30
0.0
 10
-8.62682
 20
-1.5434
 30
0.0
 10
-8.60495
 20
-1.60301
 30
0.0
 10
-8.60495
 20
-1.60301
 30
0.0
 10
-8.58202
 20
-1.60301
 30
0.0
 10
-8.53581
 20
-1.60301
 30
0.0
 10
-8.51252
 20
-1.60301
 30
0.0
 10
-8.51252
 20
-1.60301
 30
0.0
 10
-8.54075
 20
-1.54269
 30
0.0
 10
-8.50618
 20
-1.39876
 30
0.0
 10
-8.60319
 20
-1.41851
 30
0.0
  0
SPLINE
  5
70
330
1F
100
AcDbEntity
  8
Camada 1
100
AcDbSpline
210
0.0
220
0.0
230
1.0
 70
    11
 71
     3
 72
    20
 73
    16
 74
     0
 42
0.0000000001
 43
0.0000000001
 12
1.0
 22
0.0
 32
0.0
 13
1.0
 23
0.0
 33
0.0
 40
0.0
 40
0.0
 40
0.0
 40
0.0
 40
0.2
 40
0.2
 40
0.2
 40
0.2
 40
0.4
 40
0.4
 40
0.4
 40
0.4
 40
0.6
 40
0.6
 40
0.6
 40
0.6
 40
1.0
 40
1.0
 40
1.0
 40
1.0
 10
0.11219
 20
-1.41427
 30
0.0
 10
0.11219
 20
-1.41427
 30
0.0
 10
0.11219
 20
-1.41427
 30
0.0
 10
0.11219
 20
-1.41427
 30
0.0
 10
0.11219
 20
-1.41427
 30
0.0
 10
0.09277
 20
-1.48201
 30
0.0
 10
0.09031
 20
-1.55256
 30
0.0
 10
0.08607
 20
-1.62277
 30
0.0
 10
0.08607
 20
-1.62277
 30
0.0
 10
0.12064
 20
-1.60267
 30
0.0
 10
0.15592
 20
-1.58396
 30
0.0
 10
0.18803
 20
-1.56033
 30
0.0
 10
0.18803
 20
-1.56033
 30
0.0
 10
0.22119
 20
-1.49613
 30
0.0
 10
0.19649
 20
-1.40616
 30
0.0
 10
0.11219
 20
-1.41427
 30
0.0
  0
SPLINE
  5
71
330
1F
100
AcDbEntity
  8
Camada 1
100
AcDbSpline
210
0.0
220
0.0
230
1.0
 70
    11
 71
     3
 72
    20
 73
    16
 74
     0
 42
0.0000000001
 43
0.0000000001
 12
1.0
 22
0.0
 32
0.0
 13
1.0
 23
0.0
 33
0.0
 40
0.0
 40
0.0
 40
0.0
 40
0.0
 40
0.2
 40
0.2
 40
0.2
 40
0.2
 40
0.4
 40
0.4
 40
0.4
 40
0.4
 40
0.6
 40
0.6
 40
0.6
 40
0.6
 40
1.0
 40
1.0
 40
1.0
 40
1.0
 10
-8.52522
 20
-1.9879
 30
0.0
 10
-8.52522
 20
-1.9879
 30
0.0
 10
-8.52522
 20
-1.9879
 30
0.0
 10
-8.52522
 20
-1.9879
 30
0.0
 10
-8.52522
 20
-1.9879
 30
0.0
 10
-8.48289
 20
-1.99424
 30
0.0
 10
-8.4402
 20
-2.00025
 30
0.0
 10
-8.39752
 20
-2.00589
 30
0.0
 10
-8.39752
 20
-2.00589
 30
0.0
 10
-8.41833
 20
-1.93533
 30
0.0
 10
-8.44091
 20
-1.86513
 30
0.0
 10
-8.4656
 20
-1.79599
 30
0.0
 10
-8.4656
 20
-1.79599
 30
0.0
 10
-8.51711
 20
-1.84891
 30
0.0
 10
-8.53474
 20
-1.91593
 30
0.0
 10
-8.52522
 20
-1.9879
 30
0.0
  0
SPLINE
  5
72
330
1F
100
AcDbEntity
  8
Camada 1
100
AcDbSpline
210
0.0
220
0.0
230
1.0
 70
    11
 71
     3
 72
    20
 73
    16
 74
     0
 42
0.0000000001
 43
0.0000000001
 12
1.0
 22
0.0
 32
0.0
 13
1.0
 23
0.0
 33
0.0
 40
0.0
 40
0.0
 40
0.0
 40
0.0
 40
0.2
 40
0.2
 40
0.2
 40
0.2
 40
0.4
 40
0.4
 40
0.4
 40
0.4
 40
0.6
 40
0.6
 40
0.6
 40
0.6
 40
1.0
 40
1.0
 40
1.0
 40
1.0
 10
-0.03422
 20
-2.00625
 30
0.0
 10
-0.03422
 20
-2.00625
 30
0.0
 10
-0.03422
 20
-2.00625
 30
0.0
 10
-0.03422
 20
-2.00625
 30
0.0
 10
-0.03422
 20
-2.00625
 30
0.0
 10
0.00599
 20
-1.99989
 30
0.0
 10
0.04621
 20
-1.99354
 30
0.0
 10
0.08643
 20
-1.98754
 30
0.0
 10
0.08643
 20
-1.98754
 30
0.0
 10
0.08678
 20
-1.93462
 30
0.0
 10
0.08573
 20
-1.8817
 30
0.0
 10
0.08395
 20
-1.82915
 30
0.0
 10
0.08395
 20
-1.82915
 30
0.0
 10
-0.01693
 20
-1.82667
 30
0.0
 10
-0.01658
 20
-1.93357
 30
0.0
 10
-0.03422
 20
-2.00625
 30
0.0
  0
SPLINE
  5
73
330
1F
100
AcDbEntity
  8
Camada 1
100
AcDbSpline
210
0.0
220
0.0
230
1.0
 70
    11
 71
     3
 72
    20
 73
    16
 74
     0
 42
0.0000000001
 43
0.0000000001
 12
1.0
 22
0.0
 32
0.0
 13
1.0
 23
0.0
 33
0.0
 40
0.0
 40
0.0
 40
0.0
 40
0.0
 40
0.2
 40
0.2
 40
0.2
 40
0.2
 40
0.4
 40
0.4
 40
0.4
 40
0.4
 40
0.6
 40
0.6
 40
0.6
 40
0.6
 40
1.0
 40
1.0
 40
1.0
 40
1.0
 10
-8.36189
 20
-2.20169
 30
0.0
 10
-8.36189
 20
-2.20169
 30
0.0
 10
-8.36189
 20
-2.20169
 30
0.0
 10
-8.36189
 20
-2.20169
 30
0.0
 10
-8.36189
 20
-2.20169
 30
0.0
 10
-8.37388
 20
-2.25777
 30
0.0
 10
-8.40881
 20
-2.3188
 30
0.0
 10
-8.37599
 20
-2.37455
 30
0.0
 10
-8.37599
 20
-2.37455
 30
0.0
 10
-8.33895
 20
-2.39747
 30
0.0
 10
-8.29803
 20
-2.41299
 30
0.0
 10
-8.25782
 20
-2.42992
 30
0.0
 10
-8.25782
 20
-2.42992
 30
0.0
 10
-8.2684
 20
-2.34456
 30
0.0
 10
-8.30968
 20
-2.26871
 30
0.0
 10
-8.36189
 20
-2.20169
 30
0.0
  0
SPLINE
  5
74
330
1F
100
AcDbEntity
  8
Camada 1
100
AcDbSpline
210
0.0
220
0.0
230
1.0
 70
    11
 71
     3
 72
    24
 73
    20
 74
     0
 42
0.0000000001
 43
0.0000000001
 12
1.0
 22
0.0
 32
0.0
 13
1.0
 23
0.0
 33
0.0
 40
0.0
 40
0.0
 40
0.0
 40
0.0
 40
0.1666666666666667
 40
0.1666666666666667
 40
0.1666666666666667
 40
0.1666666666666667
 40
0.3333333333333333
 40
0.3333333333333333
 40
0.3333333333333333
 40
0.3333333333333333
 40
0.5
 40
0.5
 40
0.5
 40
0.5
 40
0.6666666666666666
 40
0.6666666666666666
 40
0.6666666666666666
 40
0.6666666666666666
 40
1.0
 40
1.0
 40
1.0
 40
1.0
 10
-0.11994
 20
-2.23519
 30
0.0
 10
-0.11994
 20
-2.23519
 30
0.0
 10
-0.11994
 20
-2.23519
 30
0.0
 10
-0.11994
 20
-2.23519
 30
0.0
 10
-0.11994
 20
-2.23519
 30
0.0
 10
-0.14145
 20
-2.29941
 30
0.0
 10
-0.16262
 20
-2.36395
 30
0.0
 10
-0.17638
 20
-2.43063
 30
0.0
 10
-0.17638
 20
-2.43063
 30
0.0
 10
-0.13582
 20
-2.41265
 30
0.0
 10
-0.09455
 20
-2.39572
 30
0.0
 10
-0.05644
 20
-2.37277
 30
0.0
 10
-0.05644
 20
-2.37277
 30
0.0
 10
-0.04762
 20
-2.32903
 30
0.0
 10
-0.04833
 20
-2.28423
 30
0.0
 10
-0.04585
 20
-2.24013
 30
0.0
 10
-0.04585
 20
-2.24013
 30
0.0
 10
-0.06419
 20
-2.23872
 30
0.0
 10
-0.10125
 20
-2.2366
 30
0.0
 10
-0.11994
 20
-2.23519
 30
0.0
  0
SPLINE
  5
75
330
1F
100
AcDbEntity
  8
Camada 1
100
AcDbSpline
210
0.0
220
0.0
230
1.0
 70
    11
 71
     3
 72
    24
 73
    20
 74
     0
 42
0.0000000001
 43
0.0000000001
 12
1.0
 22
0.0
 32
0.0
 13
1.0
 23
0.0
 33
0.0
 40
0.0
 40
0.0
 40
0.0
 40
0.0
 40
0.1666666666666667
 40
0.1666666666666667
 40
0.1666666666666667
 40
0.1666666666666667
 40
0.3333333333333333
 40
0.3333333333333333
 40
0.3333333333333333
 40
0.3333333333333333
 40
0.5
 40
0.5
 40
0.5
 40
0.5
 40
0.6666666666666666
 40
0.6666666666666666
 40
0.6666666666666666
 40
0.6666666666666666
 40
1.0
 40
1.0
 40
1.0
 40
1.0
 10
-8.2176
 20
-2.62924
 30
0.0
 10
-8.2176
 20
-2.62924
 30
0.0
 10
-8.2176
 20
-2.62924
 30
0.0
 10
-8.2176
 20
-2.62924
 30
0.0
 10
-8.2176
 20
-2.62924
 30
0.0
 10
-8.21302
 20
-2.67404
 30
0.0
 10
-8.20949
 20
-2.71955
 30
0.0
 10
-8.19925
 20
-2.76401
 30
0.0
 10
-8.19925
 20
-2.76401
 30
0.0
 10
-8.15728
 20
-2.78024
 30
0.0
 10
-8.11459
 20
-2.794
 30
0.0
 10
-8.07085
 20
-2.80599
 30
0.0
 10
-8.07085
 20
-2.80599
 30
0.0
 10
-8.08848
 20
-2.74319
 30
0.0
 10
-8.10789
 20
-2.68145
 30
0.0
 10
-8.12764
 20
-2.61972
 30
0.0
 10
-8.12764
 20
-2.61972
 30
0.0
 10
-8.15022
 20
-2.6222
 30
0.0
 10
-8.19502
 20
-2.62678
 30
0.0
 10
-8.2176
 20
-2.62924
 30
0.0
  0
SPLINE
  5
76
330
1F
100
AcDbEntity
  8
Camada 1
100
AcDbSpline
210
0.0
220
0.0
230
1.0
 70
    11
 71
     3
 72
    20
 73
    16
 74
     0
 42
0.0000000001
 43
0.0000000001
 12
1.0
 22
0.0
 32
0.0
 13
1.0
 23
0.0
 33
0.0
 40
0.0
 40
0.0
 40
0.0
 40
0.0
 40
0.2
 40
0.2
 40
0.2
 40
0.2
 40
0.4
 40
0.4
 40
0.4
 40
0.4
 40
0.6
 40
0.6
 40
0.6
 40
0.6
 40
1.0
 40
1.0
 40
1.0
 40
1.0
 10
-0.36724
 20
-2.80458
 30
0.0
 10
-0.36724
 20
-2.80458
 30
0.0
 10
-0.36724
 20
-2.80458
 30
0.0
 10
-0.36724
 20
-2.80458
 30
0.0
 10
-0.36724
 20
-2.80458
 30
0.0
 10
-0.32173
 20
-2.79259
 30
0.0
 10
-0.27657
 20
-2.77812
 30
0.0
 10
-0.23247
 20
-2.76083
 30
0.0
 10
-0.23247
 20
-2.76083
 30
0.0
 10
-0.22718
 20
-2.71709
 30
0.0
 10
-0.19897
 20
-2.64089
 30
0.0
 10
-0.25118
 20
-2.61832
 30
0.0
 10
-0.25118
 20
-2.61832
 30
0.0
 10
-0.34642
 20
-2.60561
 30
0.0
 10
-0.33197
 20
-2.74567
 30
0.0
 10
-0.36724
 20
-2.80458
 30
0.0
  0
SPLINE
  5
77
330
1F
100
AcDbEntity
  8
Camada 1
100
AcDbSpline
210
0.0
220
0.0
230
1.0
 70
    11
 71
     3
 72
    20
 73
    16
 74
     0
 42
0.0000000001
 43
0.0000000001
 12
1.0
 22
0.0
 32
0.0
 13
1.0
 23
0.0
 33
0.0
 40
0.0
 40
0.0
 40
0.0
 40
0.0
 40
0.2
 40
0.2
 40
0.2
 40
0.2
 40
0.4
 40
0.4
 40
0.4
 40
0.4
 40
0.6
 40
0.6
 40
0.6
 40
0.6
 40
1.0
 40
1.0
 40
1.0
 40
1.0
 10
-8.02816
 20
-2.95134
 30
0.0
 10
-8.02816
 20
-2.95134
 30
0.0
 10
-8.02816
 20
-2.95134
 30
0.0
 10
-8.02816
 20
-2.95134
 30
0.0
 10
-8.02816
 20
-2.95134
 30
0.0
 10
-8.03062
 20
-3.00637
 30
0.0
 10
-8.03839
 20
-3.0628
 30
0.0
 10
-8.02251
 20
-3.11714
 30
0.0
 10
-8.02251
 20
-3.11714
 30
0.0
 10
-7.97383
 20
-3.12914
 30
0.0
 10
-7.92374
 20
-3.13584
 30
0.0
 10
-7.87435
 20
-3.14395
 30
0.0
 10
-7.87435
 20
-3.14395
 30
0.0
 10
-7.91422
 20
-3.07162
 30
0.0
 10
-7.93997
 20
-2.9778
 30
0.0
 10
-8.02816
 20
-2.95134
 30
0.0
  0
SPLINE
  5
78
330
1F
100
AcDbEntity
  8
Camada 1
100
AcDbSpline
210
0.0
220
0.0
230
1.0
 70
    11
 71
     3
 72
    20
 73
    16
 74
     0
 42
0.0000000001
 43
0.0000000001
 12
1.0
 22
0.0
 32
0.0
 13
1.0
 23
0.0
 33
0.0
 40
0.0
 40
0.0
 40
0.0
 40
0.0
 40
0.2
 40
0.2
 40
0.2
 40
0.2
 40
0.4
 40
0.4
 40
0.4
 40
0.4
 40
0.6
 40
0.6
 40
0.6
 40
0.6
 40
1.0
 40
1.0
 40
1.0
 40
1.0
 10
-0.5602
 20
-3.13407
 30
0.0
 10
-0.5602
 20
-3.13407
 30
0.0
 10
-0.5602
 20
-3.13407
 30
0.0
 10
-0.5602
 20
-3.13407
 30
0.0
 10
-0.5602
 20
-3.13407
 30
0.0
 10
-0.5087
 20
-3.13124
 30
0.0
 10
-0.45685
 20
-3.12737
 30
0.0
 10
-0.40534
 20
-3.12242
 30
0.0
 10
-0.40534
 20
-3.12242
 30
0.0
 10
-0.40286
 20
-3.06351
 30
0.0
 10
-0.39828
 20
-3.00284
 30
0.0
 10
-0.42228
 20
-2.94745
 30
0.0
 10
-0.42228
 20
-2.94745
 30
0.0
 10
-0.496
 20
-2.9845
 30
0.0
 10
-0.52246
 20
-3.0667
 30
0.0
 10
-0.5602
 20
-3.13407
 30
0.0
  0
SPLINE
  5
79
330
1F
100
AcDbEntity
  8
Camada 1
100
AcDbSpline
210
0.0
220
0.0
230
1.0
 70
    11
 71
     3
 72
    20
 73
    16
 74
     0
 42
0.0000000001
 43
0.0000000001
 12
1.0
 22
0.0
 32
0.0
 13
1.0
 23
0.0
 33
0.0
 40
0.0
 40
0.0
 40
0.0
 40
0.0
 40
0.2
 40
0.2
 40
0.2
 40
0.2
 40
0.4
 40
0.4
 40
0.4
 40
0.4
 40
0.6
 40
0.6
 40
0.6
 40
0.6
 40
1.0
 40
1.0
 40
1.0
 40
1.0
 10
-7.81261
 20
-3.30799
 30
0.0
 10
-7.81261
 20
-3.30799
 30
0.0
 10
-7.81261
 20
-3.30799
 30
0.0
 10
-7.81261
 20
-3.30799
 30
0.0
 10
-7.81261
 20
-3.30799
 30
0.0
 10
-7.81473
 20
-3.36408
 30
0.0
 10
-7.81507
 20
-3.42018
 30
0.0
 10
-7.81332
 20
-3.47661
 30
0.0
 10
-7.81332
 20
-3.47661
 30
0.0
 10
-7.7597
 20
-3.48085
 30
0.0
 10
-7.70607
 20
-3.48402
 30
0.0
 10
-7.65245
 20
-3.48614
 30
0.0
 10
-7.65245
 20
-3.48614
 30
0.0
 10
-7.69408
 20
-3.41736
 30
0.0
 10
-7.73253
 20
-3.33833
 30
0.0
 10
-7.81261
 20
-3.30799
 30
0.0
  0
SPLINE
  5
7A
330
1F
100
AcDbEntity
  8
Camada 1
100
AcDbSpline
210
0.0
220
0.0
230
1.0
 70
    11
 71
     3
 72
    24
 73
    20
 74
     0
 42
0.0000000001
 43
0.0000000001
 12
1.0
 22
0.0
 32
0.0
 13
1.0
 23
0.0
 33
0.0
 40
0.0
 40
0.0
 40
0.0
 40
0.0
 40
0.1666666666666667
 40
0.1666666666666667
 40
0.1666666666666667
 40
0.1666666666666667
 40
0.3333333333333333
 40
0.3333333333333333
 40
0.3333333333333333
 40
0.3333333333333333
 40
0.5
 40
0.5
 40
0.5
 40
0.5
 40
0.6666666666666666
 40
0.6666666666666666
 40
0.6666666666666666
 40
0.6666666666666666
 40
1.0
 40
1.0
 40
1.0
 40
1.0
 10
-0.69427
 20
-3.32705
 30
0.0
 10
-0.69427
 20
-3.32705
 30
0.0
 10
-0.69427
 20
-3.32705
 30
0.0
 10
-0.69427
 20
-3.32705
 30
0.0
 10
-0.69427
 20
-3.32705
 30
0.0
 10
-0.72143
 20
-3.38172
 30
0.0
 10
-0.74824
 20
-3.43641
 30
0.0
 10
-0.77364
 20
-3.49179
 30
0.0
 10
-0.77364
 20
-3.49179
 30
0.0
 10
-0.72354
 20
-3.4865
 30
0.0
 10
-0.6738
 20
-3.48014
 30
0.0
 10
-0.62371
 20
-3.47345
 30
0.0
 10
-0.62371
 20
-3.47345
 30
0.0
 10
-0.61948
 20
-3.42547
 30
0.0
 10
-0.6156
 20
-3.37819
 30
0.0
 10
-0.61207
 20
-3.33058
 30
0.0
 10
-0.61207
 20
-3.33058
 30
0.0
 10
-0.63253
 20
-3.32987
 30
0.0
 10
-0.6738
 20
-3.32809
 30
0.0
 10
-0.69427
 20
-3.32705
 30
0.0
  0
SPLINE
  5
7B
330
1F
100
AcDbEntity
  8
Camada 1
100
AcDbSpline
210
0.0
220
0.0
230
1.0
 70
    11
 71
     3
 72
    20
 73
    16
 74
     0
 42
0.0000000001
 43
0.0000000001
 12
1.0
 22
0.0
 32
0.0
 13
1.0
 23
0.0
 33
0.0
 40
0.0
 40
0.0
 40
0.0
 40
0.0
 40
0.2
 40
0.2
 40
0.2
 40
0.2
 40
0.4
 40
0.4
 40
0.4
 40
0.4
 40
0.6
 40
0.6
 40
0.6
 40
0.6
 40
1.0
 40
1.0
 40
1.0
 40
1.0
 10
-1.022
 20
-3.83329
 30
0.0
 10
-1.022
 20
-3.83329
 30
0.0
 10
-1.022
 20
-3.83329
 30
0.0
 10
-1.022
 20
-3.83329
 30
0.0
 10
-1.022
 20
-3.83329
 30
0.0
 10
-0.97437
 20
-3.82622
 30
0.0
 10
-0.9218
 20
-3.83433
 30
0.0
 10
-0.87877
 20
-3.80894
 30
0.0
 10
-0.87877
 20
-3.80894
 30
0.0
 10
-0.83467
 20
-3.75425
 30
0.0
 10
-0.86713
 20
-3.68335
 30
0.0
 10
-0.87841
 20
-3.62374
 30
0.0
 10
-0.87841
 20
-3.62374
 30
0.0
 10
-0.9331
 20
-3.68828
 30
0.0
 10
-0.98142
 20
-3.75849
 30
0.0
 10
-1.022
 20
-3.83329
 30
0.0
  0
SPLINE
  5
7C
330
1F
100
AcDbEntity
  8
Camada 1
100
AcDbSpline
210
0.0
220
0.0
230
1.0
 70
    11
 71
     3
 72
    20
 73
    16
 74
     0
 42
0.0000000001
 43
0.0000000001
 12
1.0
 22
0.0
 32
0.0
 13
1.0
 23
0.0
 33
0.0
 40
0.0
 40
0.0
 40
0.0
 40
0.0
 40
0.2
 40
0.2
 40
0.2
 40
0.2
 40
0.4
 40
0.4
 40
0.4
 40
0.4
 40
0.6
 40
0.6
 40
0.6
 40
0.6
 40
1.0
 40
1.0
 40
1.0
 40
1.0
 10
-7.58013
 20
-3.80012
 30
0.0
 10
-7.58013
 20
-3.80012
 30
0.0
 10
-7.58013
 20
-3.80012
 30
0.0
 10
-7.58013
 20
-3.80012
 30
0.0
 10
-7.58013
 20
-3.80012
 30
0.0
 10
-7.52897
 20
-3.81565
 30
0.0
 10
-7.47676
 20
-3.82939
 30
0.0
 10
-7.42385
 20
-3.84069
 30
0.0
 10
-7.42385
 20
-3.84069
 30
0.0
 10
-7.45137
 20
-3.76096
 30
0.0
 10
-7.49864
 20
-3.69076
 30
0.0
 10
-7.55543
 20
-3.62902
 30
0.0
 10
-7.55543
 20
-3.62902
 30
0.0
 10
-7.5692
 20
-3.68477
 30
0.0
 10
-7.57872
 20
-3.74227
 30
0.0
 10
-7.58013
 20
-3.80012
 30
0.0
  0
SPLINE
  5
7D
330
1F
100
AcDbEntity
  8
Camada 1
100
AcDbSpline
210
0.0
220
0.0
230
1.0
 70
    11
 71
     3
 72
    20
 73
    16
 74
     0
 42
0.0000000001
 43
0.0000000001
 12
1.0
 22
0.0
 32
0.0
 13
1.0
 23
0.0
 33
0.0
 40
0.0
 40
0.0
 40
0.0
 40
0.0
 40
0.2
 40
0.2
 40
0.2
 40
0.2
 40
0.4
 40
0.4
 40
0.4
 40
0.4
 40
0.6
 40
0.6
 40
0.6
 40
0.6
 40
1.0
 40
1.0
 40
1.0
 40
1.0
 10
-7.32189
 20
-3.97403
 30
0.0
 10
-7.32189
 20
-3.97403
 30
0.0
 10
-7.32189
 20
-3.97403
 30
0.0
 10
-7.32189
 20
-3.97403
 30
0.0
 10
-7.32189
 20
-3.97403
 30
0.0
 10
-7.32296
 20
-4.03014
 30
0.0
 10
-7.32155
 20
-4.08657
 30
0.0
 10
-7.31838
 20
-4.14267
 30
0.0
 10
-7.31838
 20
-4.14267
 30
0.0
 10
-7.26298
 20
-4.14655
 30
0.0
 10
-7.20794
 20
-4.14901
 30
0.0
 10
-7.15256
 20
-4.15008
 30
0.0
 10
-7.15256
 20
-4.15008
 30
0.0
 10
-7.19807
 20
-4.08164
 30
0.0
 10
-7.25416
 20
-4.02061
 30
0.0
 10
-7.32189
 20
-3.97403
 30
0.0
  0
SPLINE
  5
7E
330
1F
100
AcDbEntity
  8
Camada 1
100
AcDbSpline
210
0.0
220
0.0
230
1.0
 70
    11
 71
     3
 72
    20
 73
    16
 74
     0
 42
0.0000000001
 43
0.0000000001
 12
1.0
 22
0.0
 32
0.0
 13
1.0
 23
0.0
 33
0.0
 40
0.0
 40
0.0
 40
0.0
 40
0.0
 40
0.2
 40
0.2
 40
0.2
 40
0.2
 40
0.4
 40
0.4
 40
0.4
 40
0.4
 40
0.6
 40
0.6
 40
0.6
 40
0.6
 40
1.0
 40
1.0
 40
1.0
 40
1.0
 10
-1.27881
 20
-4.15536
 30
0.0
 10
-1.27881
 20
-4.15536
 30
0.0
 10
-1.27881
 20
-4.15536
 30
0.0
 10
-1.27881
 20
-4.15536
 30
0.0
 10
-1.27881
 20
-4.15536
 30
0.0
 10
-1.23189
 20
-4.14372
 30
0.0
 10
-1.16275
 20
-4.16877
 30
0.0
 10
-1.1303
 20
-4.12396
 30
0.0
 10
-1.1303
 20
-4.12396
 30
0.0
 10
-1.08408
 20
-4.08094
 30
0.0
 10
-1.12041
 20
-4.01778
 30
0.0
 10
-1.1243
 20
-3.96628
 30
0.0
 10
-1.1243
 20
-3.96628
 30
0.0
 10
-1.18285
 20
-4.02307
 30
0.0
 10
-1.23789
 20
-4.0841
 30
0.0
 10
-1.27881
 20
-4.15536
 30
0.0
  0
SPLINE
  5
7F
330
1F
100
AcDbEntity
  8
Camada 1
100
AcDbSpline
210
0.0
220
0.0
230
1.0
 70
    11
 71
     3
 72
    20
 73
    16
 74
     0
 42
0.0000000001
 43
0.0000000001
 12
1.0
 22
0.0
 32
0.0
 13
1.0
 23
0.0
 33
0.0
 40
0.0
 40
0.0
 40
0.0
 40
0.0
 40
0.2
 40
0.2
 40
0.2
 40
0.2
 40
0.4
 40
0.4
 40
0.4
 40
0.4
 40
0.6
 40
0.6
 40
0.6
 40
0.6
 40
1.0
 40
1.0
 40
1.0
 40
1.0
 10
-7.04144
 20
-4.2859
 30
0.0
 10
-7.04144
 20
-4.2859
 30
0.0
 10
-7.04144
 20
-4.2859
 30
0.0
 10
-7.04144
 20
-4.2859
 30
0.0
 10
-7.04144
 20
-4.2859
 30
0.0
 10
-7.04285
 20
-4.33775
 30
0.0
 10
-7.0432
 20
-4.38962
 30
0.0
 10
-7.04249
 20
-4.44183
 30
0.0
 10
-7.04249
 20
-4.44183
 30
0.0
 10
-6.98816
 20
-4.4524
 30
0.0
 10
-6.93313
 20
-4.45981
 30
0.0
 10
-6.87811
 20
-4.4651
 30
0.0
 10
-6.87811
 20
-4.4651
 30
0.0
 10
-6.92431
 20
-4.39844
 30
0.0
 10
-6.97971
 20
-4.33846
 30
0.0
 10
-7.04144
 20
-4.2859
 30
0.0
  0
SPLINE
  5
80
330
1F
100
AcDbEntity
  8
Camada 1
100
AcDbSpline
210
0.0
220
0.0
230
1.0
 70
    11
 71
     3
 72
    20
 73
    16
 74
     0
 42
0.0000000001
 43
0.0000000001
 12
1.0
 22
0.0
 32
0.0
 13
1.0
 23
0.0
 33
0.0
 40
0.0
 40
0.0
 40
0.0
 40
0.0
 40
0.2
 40
0.2
 40
0.2
 40
0.2
 40
0.4
 40
0.4
 40
0.4
 40
0.4
 40
0.6
 40
0.6
 40
0.6
 40
0.6
 40
1.0
 40
1.0
 40
1.0
 40
1.0
 10
-1.55539
 20
-4.46298
 30
0.0
 10
-1.55539
 20
-4.46298
 30
0.0
 10
-1.55539
 20
-4.46298
 30
0.0
 10
-1.55539
 20
-4.46298
 30
0.0
 10
-1.55539
 20
-4.46298
 30
0.0
 10
-1.50213
 20
-4.45593
 30
0.0
 10
-1.43228
 20
-4.4771
 30
0.0
 10
-1.39805
 20
-4.42277
 30
0.0
 10
-1.39805
 20
-4.42277
 30
0.0
 10
-1.38923
 20
-4.37938
 30
0.0
 10
-1.3843
 20
-4.33599
 30
0.0
 10
-1.38324
 20
-4.2919
 30
0.0
 10
-1.38324
 20
-4.2919
 30
0.0
 10
-1.45555
 20
-4.33175
 30
0.0
 10
-1.51306
 20
-4.39242
 30
0.0
 10
-1.55539
 20
-4.46298
 30
0.0
  0
SPLINE
  5
81
330
1F
100
AcDbEntity
  8
Camada 1
100
AcDbSpline
210
0.0
220
0.0
230
1.0
 70
    11
 71
     3
 72
    20
 73
    16
 74
     0
 42
0.0000000001
 43
0.0000000001
 12
1.0
 22
0.0
 32
0.0
 13
1.0
 23
0.0
 33
0.0
 40
0.0
 40
0.0
 40
0.0
 40
0.0
 40
0.2
 40
0.2
 40
0.2
 40
0.2
 40
0.4
 40
0.4
 40
0.4
 40
0.4
 40
0.6
 40
0.6
 40
0.6
 40
0.6
 40
1.0
 40
1.0
 40
1.0
 40
1.0
 10
-6.79202
 20
-4.54942
 30
0.0
 10
-6.79202
 20
-4.54942
 30
0.0
 10
-6.79202
 20
-4.54942
 30
0.0
 10
-6.79202
 20
-4.54942
 30
0.0
 10
-6.79202
 20
-4.54942
 30
0.0
 10
-6.79272
 20
-4.60021
 30
0.0
 10
-6.79696
 20
-4.65242
 30
0.0
 10
-6.78638
 20
-4.70322
 30
0.0
 10
-6.78638
 20
-4.70322
 30
0.0
 10
-6.74017
 20
-4.73463
 30
0.0
 10
-6.68301
 20
-4.7392
 30
0.0
 10
-6.62939
 20
-4.74732
 30
0.0
 10
-6.62939
 20
-4.74732
 30
0.0
 10
-6.65127
 20
-4.65912
 30
0.0
 10
-6.72324
 20
-4.60162
 30
0.0
 10
-6.79202
 20
-4.54942
 30
0.0
  0
SPLINE
  5
82
330
1F
100
AcDbEntity
  8
Camada 1
100
AcDbSpline
210
0.0
220
0.0
230
1.0
 70
    11
 71
     3
 72
    20
 73
    16
 74
     0
 42
0.0000000001
 43
0.0000000001
 12
1.0
 22
0.0
 32
0.0
 13
1.0
 23
0.0
 33
0.0
 40
0.0
 40
0.0
 40
0.0
 40
0.0
 40
0.2
 40
0.2
 40
0.2
 40
0.2
 40
0.4
 40
0.4
 40
0.4
 40
0.4
 40
0.6
 40
0.6
 40
0.6
 40
0.6
 40
1.0
 40
1.0
 40
1.0
 40
1.0
 10
-1.80869
 20
-4.73638
 30
0.0
 10
-1.80869
 20
-4.73638
 30
0.0
 10
-1.80869
 20
-4.73638
 30
0.0
 10
-1.80869
 20
-4.73638
 30
0.0
 10
-1.80869
 20
-4.73638
 30
0.0
 10
-1.76176
 20
-4.73709
 30
0.0
 10
-1.71484
 20
-4.73779
 30
0.0
 10
-1.66758
 20
-4.73816
 30
0.0
 10
-1.66758
 20
-4.73816
 30
0.0
 10
-1.64818
 20
-4.67713
 30
0.0
 10
-1.63865
 20
-4.61432
 30
0.0
 10
-1.63653
 20
-4.55083
 30
0.0
 10
-1.63653
 20
-4.55083
 30
0.0
 10
-1.70921
 20
-4.59668
 30
0.0
 10
-1.77058
 20
-4.65878
 30
0.0
 10
-1.80869
 20
-4.73638
 30
0.0
  0
SPLINE
  5
83
330
1F
100
AcDbEntity
  8
Camada 1
100
AcDbSpline
210
0.0
220
0.0
230
1.0
 70
    11
 71
     3
 72
    20
 73
    16
 74
     0
 42
0.0000000001
 43
0.0000000001
 12
1.0
 22
0.0
 32
0.0
 13
1.0
 23
0.0
 33
0.0
 40
0.0
 40
0.0
 40
0.0
 40
0.0
 40
0.2
 40
0.2
 40
0.2
 40
0.2
 40
0.4
 40
0.4
 40
0.4
 40
0.4
 40
0.6
 40
0.6
 40
0.6
 40
0.6
 40
1.0
 40
1.0
 40
1.0
 40
1.0
 10
-6.51968
 20
-4.82952
 30
0.0
 10
-6.51968
 20
-4.82952
 30
0.0
 10
-6.51968
 20
-4.82952
 30
0.0
 10
-6.51968
 20
-4.82952
 30
0.0
 10
-6.51968
 20
-4.82952
 30
0.0
 10
-6.51862
 20
-4.8828
 30
0.0
 10
-6.5211
 20
-4.93713
 30
0.0
 10
-6.50558
 20
-4.98897
 30
0.0
 10
-6.50558
 20
-4.98897
 30
0.0
 10
-6.453
 20
-5.00486
 30
0.0
 10
-6.39762
 20
-4.9985
 30
0.0
 10
-6.34364
 20
-4.99745
 30
0.0
 10
-6.34364
 20
-4.99745
 30
0.0
 10
-6.39234
 20
-4.93182
 30
0.0
 10
-6.4523
 20
-4.87539
 30
0.0
 10
-6.51968
 20
-4.82952
 30
0.0
  0
SPLINE
  5
84
330
1F
100
AcDbEntity
  8
Camada 1
100
AcDbSpline
210
0.0
220
0.0
230
1.0
 70
    11
 71
     3
 72
    20
 73
    16
 74
     0
 42
0.0000000001
 43
0.0000000001
 12
1.0
 22
0.0
 32
0.0
 13
1.0
 23
0.0
 33
0.0
 40
0.0
 40
0.0
 40
0.0
 40
0.0
 40
0.2
 40
0.2
 40
0.2
 40
0.2
 40
0.4
 40
0.4
 40
0.4
 40
0.4
 40
0.6
 40
0.6
 40
0.6
 40
0.6
 40
1.0
 40
1.0
 40
1.0
 40
1.0
 10
-2.08986
 20
-4.99816
 30
0.0
 10
-2.08986
 20
-4.99816
 30
0.0
 10
-2.08986
 20
-4.99816
 30
0.0
 10
-2.08986
 20
-4.99816
 30
0.0
 10
-2.08986
 20
-4.99816
 30
0.0
 10
-2.03482
 20
-4.99886
 30
0.0
 10
-1.97872
 20
-5.00062
 30
0.0
 10
-1.92405
 20
-4.99039
 30
0.0
 10
-1.92405
 20
-4.99039
 30
0.0
 10
-1.91523
 20
-4.93606
 30
0.0
 10
-1.91593
 20
-4.88102
 30
0.0
 10
-1.91593
 20
-4.82635
 30
0.0
 10
-1.91593
 20
-4.82635
 30
0.0
 10
-1.98261
 20
-4.87432
 30
0.0
 10
-2.04294
 20
-4.93041
 30
0.0
 10
-2.08986
 20
-4.99816
 30
0.0
  0
SPLINE
  5
85
330
1F
100
AcDbEntity
  8
Camada 1
100
AcDbSpline
210
0.0
220
0.0
230
1.0
 70
    11
 71
     3
 72
    20
 73
    16
 74
     0
 42
0.0000000001
 43
0.0000000001
 12
1.0
 22
0.0
 32
0.0
 13
1.0
 23
0.0
 33
0.0
 40
0.0
 40
0.0
 40
0.0
 40
0.0
 40
0.2
 40
0.2
 40
0.2
 40
0.2
 40
0.4
 40
0.4
 40
0.4
 40
0.4
 40
0.6
 40
0.6
 40
0.6
 40
0.6
 40
1.0
 40
1.0
 40
1.0
 40
1.0
 10
-6.20783
 20
-5.10645
 30
0.0
 10
-6.20783
 20
-5.10645
 30
0.0
 10
-6.20783
 20
-5.10645
 30
0.0
 10
-6.20783
 20
-5.10645
 30
0.0
 10
-6.20783
 20
-5.10645
 30
0.0
 10
-6.20218
 20
-5.16502
 30
0.0
 10
-6.19054
 20
-5.22286
 30
0.0
 10
-6.17044
 20
-5.27861
 30
0.0
 10
-6.17044
 20
-5.27861
 30
0.0
 10
-6.12174
 20
-5.27297
 30
0.0
 10
-6.07306
 20
-5.26732
 30
0.0
 10
-6.02438
 20
-5.26026
 30
0.0
 10
-6.02438
 20
-5.26026
 30
0.0
 10
-6.08047
 20
-5.20312
 30
0.0
 10
-6.13938
 20
-5.14843
 30
0.0
 10
-6.20783
 20
-5.10645
 30
0.0
  0
SPLINE
  5
86
330
1F
100
AcDbEntity
  8
Camada 1
100
AcDbSpline
210
0.0
220
0.0
230
1.0
 70
    11
 71
     3
 72
    20
 73
    16
 74
     0
 42
0.0000000001
 43
0.0000000001
 12
1.0
 22
0.0
 32
0.0
 13
1.0
 23
0.0
 33
0.0
 40
0.0
 40
0.0
 40
0.0
 40
0.0
 40
0.2
 40
0.2
 40
0.2
 40
0.2
 40
0.4
 40
0.4
 40
0.4
 40
0.4
 40
0.6
 40
0.6
 40
0.6
 40
0.6
 40
1.0
 40
1.0
 40
1.0
 40
1.0
 10
-2.41123
 20
-5.2645
 30
0.0
 10
-2.41123
 20
-5.2645
 30
0.0
 10
-2.41123
 20
-5.2645
 30
0.0
 10
-2.41123
 20
-5.2645
 30
0.0
 10
-2.41123
 20
-5.2645
 30
0.0
 10
-2.35303
 20
-5.27332
 30
0.0
 10
-2.28847
 20
-5.28355
 30
0.0
 10
-2.24189
 20
-5.23769
 30
0.0
 10
-2.24189
 20
-5.23769
 30
0.0
 10
-2.23519
 20
-5.19324
 30
0.0
 10
-2.23131
 20
-5.14914
 30
0.0
 10
-2.23061
 20
-5.1047
 30
0.0
 10
-2.23061
 20
-5.1047
 30
0.0
 10
-2.29693
 20
-5.15055
 30
0.0
 10
-2.35584
 20
-5.20593
 30
0.0
 10
-2.41123
 20
-5.2645
 30
0.0
  0
SPLINE
  5
87
330
1F
100
AcDbEntity
  8
Camada 1
100
AcDbSpline
210
0.0
220
0.0
230
1.0
 70
    11
 71
     3
 72
    24
 73
    20
 74
     0
 42
0.0000000001
 43
0.0000000001
 12
1.0
 22
0.0
 32
0.0
 13
1.0
 23
0.0
 33
0.0
 40
0.0
 40
0.0
 40
0.0
 40
0.0
 40
0.1666666666666667
 40
0.1666666666666667
 40
0.1666666666666667
 40
0.1666666666666667
 40
0.3333333333333333
 40
0.3333333333333333
 40
0.3333333333333333
 40
0.3333333333333333
 40
0.5
 40
0.5
 40
0.5
 40
0.5
 40
0.6666666666666666
 40
0.6666666666666666
 40
0.6666666666666666
 40
0.6666666666666666
 40
1.0
 40
1.0
 40
1.0
 40
1.0
 10
-5.8861
 20
-5.36046
 30
0.0
 10
-5.8861
 20
-5.36046
 30
0.0
 10
-5.8861
 20
-5.36046
 30
0.0
 10
-5.8861
 20
-5.36046
 30
0.0
 10
-5.8861
 20
-5.36046
 30
0.0
 10
-5.88432
 20
-5.40773
 30
0.0
 10
-5.88186
 20
-5.45499
 30
0.0
 10
-5.87869
 20
-5.50228
 30
0.0
 10
-5.87869
 20
-5.50228
 30
0.0
 10
-5.83035
 20
-5.51249
 30
0.0
 10
-5.78131
 20
-5.52097
 30
0.0
 10
-5.73229
 20
-5.52908
 30
0.0
 10
-5.73229
 20
-5.52908
 30
0.0
 10
-5.73334
 20
-5.5118
 30
0.0
 10
-5.7351
 20
-5.47792
 30
0.0
 10
-5.73617
 20
-5.46099
 30
0.0
 10
-5.73617
 20
-5.46099
 30
0.0
 10
-5.78626
 20
-5.42748
 30
0.0
 10
-5.83564
 20
-5.39291
 30
0.0
 10
-5.8861
 20
-5.36046
 30
0.0
  0
SPLINE
  5
88
330
1F
100
AcDbEntity
  8
Camada 1
100
AcDbSpline
210
0.0
220
0.0
230
1.0
 70
    11
 71
     3
 72
    20
 73
    16
 74
     0
 42
0.0000000001
 43
0.0000000001
 12
1.0
 22
0.0
 32
0.0
 13
1.0
 23
0.0
 33
0.0
 40
0.0
 40
0.0
 40
0.0
 40
0.0
 40
0.2
 40
0.2
 40
0.2
 40
0.2
 40
0.4
 40
0.4
 40
0.4
 40
0.4
 40
0.6
 40
0.6
 40
0.6
 40
0.6
 40
1.0
 40
1.0
 40
1.0
 40
1.0
 10
-2.72486
 20
-5.5185
 30
0.0
 10
-2.72486
 20
-5.5185
 30
0.0
 10
-2.72486
 20
-5.5185
 30
0.0
 10
-2.72486
 20
-5.5185
 30
0.0
 10
-2.72486
 20
-5.5185
 30
0.0
 10
-2.68181
 20
-5.52097
 30
0.0
 10
-2.63877
 20
-5.51956
 30
0.0
 10
-2.59574
 20
-5.51461
 30
0.0
 10
-2.59574
 20
-5.51461
 30
0.0
 10
-2.53646
 20
-5.48569
 30
0.0
 10
-2.55305
 20
-5.41231
 30
0.0
 10
-2.54212
 20
-5.35905
 30
0.0
 10
-2.54212
 20
-5.35905
 30
0.0
 10
-2.61408
 20
-5.39784
 30
0.0
 10
-2.67935
 20
-5.44936
 30
0.0
 10
-2.72486
 20
-5.5185
 30
0.0
  0
SPLINE
  5
89
330
1F
100
AcDbEntity
  8
Camada 1
100
AcDbSpline
210
0.0
220
0.0
230
1.0
 70
    11
 71
     3
 72
    20
 73
    16
 74
     0
 42
0.0000000001
 43
0.0000000001
 12
1.0
 22
0.0
 32
0.0
 13
1.0
 23
0.0
 33
0.0
 40
0.0
 40
0.0
 40
0.0
 40
0.0
 40
0.2
 40
0.2
 40
0.2
 40
0.2
 40
0.4
 40
0.4
 40
0.4
 40
0.4
 40
0.6
 40
0.6
 40
0.6
 40
0.6
 40
1.0
 40
1.0
 40
1.0
 40
1.0
 10
-5.57742
 20
-5.60563
 30
0.0
 10
-5.57742
 20
-5.60563
 30
0.0
 10
-5.57742
 20
-5.60563
 30
0.0
 10
-5.57742
 20
-5.60563
 30
0.0
 10
-5.57742
 20
-5.60563
 30
0.0
 10
-5.58446
 20
-5.65185
 30
0.0
 10
-5.59047
 20
-5.69841
 30
0.0
 10
-5.59611
 20
-5.74498
 30
0.0
 10
-5.59611
 20
-5.74498
 30
0.0
 10
-5.53191
 20
-5.77744
 30
0.0
 10
-5.46099
 20
-5.78097
 30
0.0
 10
-5.39114
 20
-5.76721
 30
0.0
 10
-5.39114
 20
-5.76721
 30
0.0
 10
-5.44125
 20
-5.70089
 30
0.0
 10
-5.50721
 20
-5.64973
 30
0.0
 10
-5.57742
 20
-5.60563
 30
0.0
  0
SPLINE
  5
8A
330
1F
100
AcDbEntity
  8
Camada 1
100
AcDbSpline
210
0.0
220
0.0
230
1.0
 70
    11
 71
     3
 72
    20
 73
    16
 74
     0
 42
0.0000000001
 43
0.0000000001
 12
1.0
 22
0.0
 32
0.0
 13
1.0
 23
0.0
 33
0.0
 40
0.0
 40
0.0
 40
0.0
 40
0.0
 40
0.2
 40
0.2
 40
0.2
 40
0.2
 40
0.4
 40
0.4
 40
0.4
 40
0.4
 40
0.6
 40
0.6
 40
0.6
 40
0.6
 40
1.0
 40
1.0
 40
1.0
 40
1.0
 10
-3.04095
 20
-5.76686
 30
0.0
 10
-3.04095
 20
-5.76686
 30
0.0
 10
-3.04095
 20
-5.76686
 30
0.0
 10
-3.04095
 20
-5.76686
 30
0.0
 10
-3.04095
 20
-5.76686
 30
0.0
 10
-2.96827
 20
-5.78309
 30
0.0
 10
-2.89489
 20
-5.77673
 30
0.0
 10
-2.83279
 20
-5.73334
 30
0.0
 10
-2.83279
 20
-5.73334
 30
0.0
 10
-2.84551
 20
-5.69029
 30
0.0
 10
-2.84585
 20
-5.63808
 30
0.0
 10
-2.88854
 20
-5.61199
 30
0.0
 10
-2.88854
 20
-5.61199
 30
0.0
 10
-2.94464
 20
-5.65784
 30
0.0
 10
-2.99473
 20
-5.71112
 30
0.0
 10
-3.04095
 20
-5.76686
 30
0.0
  0
SPLINE
  5
8B
330
1F
100
AcDbEntity
  8
Camada 1
100
AcDbSpline
210
0.0
220
0.0
230
1.0
 70
    11
 71
     3
 72
    20
 73
    16
 74
     0
 42
0.0000000001
 43
0.0000000001
 12
1.0
 22
0.0
 32
0.0
 13
1.0
 23
0.0
 33
0.0
 40
0.0
 40
0.0
 40
0.0
 40
0.0
 40
0.2
 40
0.2
 40
0.2
 40
0.2
 40
0.4
 40
0.4
 40
0.4
 40
0.4
 40
0.6
 40
0.6
 40
0.6
 40
0.6
 40
1.0
 40
1.0
 40
1.0
 40
1.0
 10
-5.27402
 20
-5.85152
 30
0.0
 10
-5.27402
 20
-5.85152
 30
0.0
 10
-5.27402
 20
-5.85152
 30
0.0
 10
-5.27402
 20
-5.85152
 30
0.0
 10
-5.27402
 20
-5.85152
 30
0.0
 10
-5.27402
 20
-5.90515
 30
0.0
 10
-5.27227
 20
-5.95911
 30
0.0
 10
-5.26908
 20
-6.0131
 30
0.0
 10
-5.26908
 20
-6.0131
 30
0.0
 10
-5.20559
 20
-6.01768
 30
0.0
 10
-5.14173
 20
-6.01839
 30
0.0
 10
-5.07787
 20
-6.01415
 30
0.0
 10
-5.07787
 20
-6.01415
 30
0.0
 10
-5.13503
 20
-5.95066
 30
0.0
 10
-5.20206
 20
-5.89667
 30
0.0
 10
-5.27402
 20
-5.85152
 30
0.0
  0
SPLINE
  5
8C
330
1F
100
AcDbEntity
  8
Camada 1
100
AcDbSpline
210
0.0
220
0.0
230
1.0
 70
    11
 71
     3
 72
    20
 73
    16
 74
     0
 42
0.0000000001
 43
0.0000000001
 12
1.0
 22
0.0
 32
0.0
 13
1.0
 23
0.0
 33
0.0
 40
0.0
 40
0.0
 40
0.0
 40
0.0
 40
0.2
 40
0.2
 40
0.2
 40
0.2
 40
0.4
 40
0.4
 40
0.4
 40
0.4
 40
0.6
 40
0.6
 40
0.6
 40
0.6
 40
1.0
 40
1.0
 40
1.0
 40
1.0
 10
-3.35421
 20
-6.01661
 30
0.0
 10
-3.35421
 20
-6.01661
 30
0.0
 10
-3.35421
 20
-6.01661
 30
0.0
 10
-3.35421
 20
-6.01661
 30
0.0
 10
-3.35421
 20
-6.01661
 30
0.0
 10
-3.302
 20
-6.01802
 30
0.0
 10
-3.24908
 20
-6.02402
 30
0.0
 10
-3.19687
 20
-6.0152
 30
0.0
 10
-3.19687
 20
-6.0152
 30
0.0
 10
-3.14854
 20
-5.97605
 30
0.0
 10
-3.16335
 20
-5.90973
 30
0.0
 10
-3.15736
 20
-5.8554
 30
0.0
 10
-3.15736
 20
-5.8554
 30
0.0
 10
-3.23673
 20
-5.89033
 30
0.0
 10
-3.30234
 20
-5.94783
 30
0.0
 10
-3.35421
 20
-6.01661
 30
0.0
  0
SPLINE
  5
8D
330
1F
100
AcDbEntity
  8
Camada 1
100
AcDbSpline
210
0.0
220
0.0
230
1.0
 70
    11
 71
     3
 72
    20
 73
    16
 74
     0
 42
0.0000000001
 43
0.0000000001
 12
1.0
 22
0.0
 32
0.0
 13
1.0
 23
0.0
 33
0.0
 40
0.0
 40
0.0
 40
0.0
 40
0.0
 40
0.2
 40
0.2
 40
0.2
 40
0.2
 40
0.4
 40
0.4
 40
0.4
 40
0.4
 40
0.6
 40
0.6
 40
0.6
 40
0.6
 40
1.0
 40
1.0
 40
1.0
 40
1.0
 10
-4.95757
 20
-6.10164
 30
0.0
 10
-4.95757
 20
-6.10164
 30
0.0
 10
-4.95757
 20
-6.10164
 30
0.0
 10
-4.95757
 20
-6.10164
 30
0.0
 10
-4.95757
 20
-6.10164
 30
0.0
 10
-4.95864
 20
-6.15421
 30
0.0
 10
-4.95723
 20
-6.20713
 30
0.0
 10
-4.95477
 20
-6.26004
 30
0.0
 10
-4.95477
 20
-6.26004
 30
0.0
 10
-4.8962
 20
-6.26533
 30
0.0
 10
-4.83729
 20
-6.2685
 30
0.0
 10
-4.77838
 20
-6.26957
 30
0.0
 10
-4.77838
 20
-6.26957
 30
0.0
 10
-4.82282
 20
-6.19865
 30
0.0
 10
-4.88772
 20
-6.14539
 30
0.0
 10
-4.95757
 20
-6.10164
 30
0.0
  0
SPLINE
  5
8E
330
1F
100
AcDbEntity
  8
Camada 1
100
AcDbSpline
210
0.0
220
0.0
230
1.0
 70
    11
 71
     3
 72
    20
 73
    16
 74
     0
 42
0.0000000001
 43
0.0000000001
 12
1.0
 22
0.0
 32
0.0
 13
1.0
 23
0.0
 33
0.0
 40
0.0
 40
0.0
 40
0.0
 40
0.0
 40
0.2
 40
0.2
 40
0.2
 40
0.2
 40
0.4
 40
0.4
 40
0.4
 40
0.4
 40
0.6
 40
0.6
 40
0.6
 40
0.6
 40
1.0
 40
1.0
 40
1.0
 40
1.0
 10
-3.65441
 20
-6.27486
 30
0.0
 10
-3.65441
 20
-6.27486
 30
0.0
 10
-3.65441
 20
-6.27486
 30
0.0
 10
-3.65441
 20
-6.27486
 30
0.0
 10
-3.65441
 20
-6.27486
 30
0.0
 10
-3.59798
 20
-6.27027
 30
0.0
 10
-3.54012
 20
-6.26957
 30
0.0
 10
-3.4858
 20
-6.25157
 30
0.0
 10
-3.4858
 20
-6.25157
 30
0.0
 10
-3.4752
 20
-6.20253
 30
0.0
 10
-3.47451
 20
-6.15173
 30
0.0
 10
-3.47239
 20
-6.102
 30
0.0
 10
-3.47239
 20
-6.102
 30
0.0
 10
-3.54576
 20
-6.14432
 30
0.0
 10
-3.61879
 20
-6.19441
 30
0.0
 10
-3.65441
 20
-6.27486
 30
0.0
  0
SPLINE
  5
8F
330
1F
100
AcDbEntity
  8
Camada 1
100
AcDbSpline
210
0.0
220
0.0
230
1.0
 70
    11
 71
     3
 72
    20
 73
    16
 74
     0
 42
0.0000000001
 43
0.0000000001
 12
1.0
 22
0.0
 32
0.0
 13
1.0
 23
0.0
 33
0.0
 40
0.0
 40
0.0
 40
0.0
 40
0.0
 40
0.2
 40
0.2
 40
0.2
 40
0.2
 40
0.4
 40
0.4
 40
0.4
 40
0.4
 40
0.6
 40
0.6
 40
0.6
 40
0.6
 40
1.0
 40
1.0
 40
1.0
 40
1.0
 10
-4.64361
 20
-6.34929
 30
0.0
 10
-4.64361
 20
-6.34929
 30
0.0
 10
-4.64361
 20
-6.34929
 30
0.0
 10
-4.64361
 20
-6.34929
 30
0.0
 10
-4.64361
 20
-6.34929
 30
0.0
 10
-4.64431
 20
-6.40326
 30
0.0
 10
-4.64326
 20
-6.45724
 30
0.0
 10
-4.64078
 20
-6.51121
 30
0.0
 10
-4.64078
 20
-6.51121
 30
0.0
 10
-4.58364
 20
-6.51474
 30
0.0
 10
-4.52613
 20
-6.5151
 30
0.0
 10
-4.46863
 20
-6.51228
 30
0.0
 10
-4.46863
 20
-6.51228
 30
0.0
 10
-4.51309
 20
-6.44455
 30
0.0
 10
-4.57588
 20
-6.39268
 30
0.0
 10
-4.64361
 20
-6.34929
 30
0.0
  0
SPLINE
  5
90
330
1F
100
AcDbEntity
  8
Camada 1
100
AcDbSpline
210
0.0
220
0.0
230
1.0
 70
    11
 71
     3
 72
    20
 73
    16
 74
     0
 42
0.0000000001
 43
0.0000000001
 12
1.0
 22
0.0
 32
0.0
 13
1.0
 23
0.0
 33
0.0
 40
0.0
 40
0.0
 40
0.0
 40
0.0
 40
0.2
 40
0.2
 40
0.2
 40
0.2
 40
0.4
 40
0.4
 40
0.4
 40
0.4
 40
0.6
 40
0.6
 40
0.6
 40
0.6
 40
1.0
 40
1.0
 40
1.0
 40
1.0
 10
-3.96558
 20
-6.52003
 30
0.0
 10
-3.96558
 20
-6.52003
 30
0.0
 10
-3.96558
 20
-6.52003
 30
0.0
 10
-3.96558
 20
-6.52003
 30
0.0
 10
-3.96558
 20
-6.52003
 30
0.0
 10
-3.90806
 20
-6.51898
 30
0.0
 10
-3.85092
 20
-6.51544
 30
0.0
 10
-3.79377
 20
-6.50945
 30
0.0
 10
-3.79377
 20
-6.50945
 30
0.0
 10
-3.7913
 20
-6.45548
 30
0.0
 10
-3.78989
 20
-6.40186
 30
0.0
 10
-3.78953
 20
-6.34824
 30
0.0
 10
-3.78953
 20
-6.34824
 30
0.0
 10
-3.85797
 20
-6.39444
 30
0.0
 10
-3.92888
 20
-6.44277
 30
0.0
 10
-3.96558
 20
-6.52003
 30
0.0
  0
SPLINE
  5
91
330
1F
100
AcDbEntity
  8
Camada 1
100
AcDbSpline
210
0.0
220
0.0
230
1.0
 70
    11
 71
     3
 72
    60
 73
    56
 74
     0
 42
0.0000000001
 43
0.0000000001
 12
1.0
 22
0.0
 32
0.0
 13
1.0
 23
0.0
 33
0.0
 40
0.0
 40
0.0
 40
0.0
 40
0.0
 40
0.0666666666666667
 40
0.0666666666666667
 40
0.0666666666666667
 40
0.0666666666666667
 40
0.1333333333333333
 40
0.1333333333333333
 40
0.1333333333333333
 40
0.1333333333333333
 40
0.2
 40
0.2
 40
0.2
 40
0.2
 40
0.2666666666666667
 40
0.2666666666666667
 40
0.2666666666666667
 40
0.2666666666666667
 40
0.3333333333333333
 40
0.3333333333333333
 40
0.3333333333333333
 40
0.3333333333333333
 40
0.4
 40
0.4
 40
0.4
 40
0.4
 40
0.4666666666666667
 40
0.4666666666666667
 40
0.4666666666666667
 40
0.4666666666666667
 40
0.5333333333333333
 40
0.5333333333333333
 40
0.5333333333333333
 40
0.5333333333333333
 40
0.6
 40
0.6
 40
0.6
 40
0.6
 40
0.6666666666666666
 40
0.6666666666666666
 40
0.6666666666666666
 40
0.6666666666666666
 40
0.7333333333333333
 40
0.7333333333333333
 40
0.7333333333333333
 40
0.7333333333333333
 40
0.8
 40
0.8
 40
0.8
 40
0.8
 40
0.8666666666666667
 40
0.8666666666666667
 40
0.8666666666666667
 40
0.8666666666666667
 40
1.0
 40
1.0
 40
1.0
 40
1.0
 10
1.11512
 20
-0.37394
 30
0.0
 10
1.48943
 20
0.06208
 30
0.0
 10
2.03341
 20
0.36089
 30
0.0
 10
2.60984
 20
0.40464
 30
0.0
 10
2.60984
 20
0.40464
 30
0.0
 10
3.25472
 20
0.4512
 30
0.0
 10
3.88972
 20
0.22119
 30
0.0
 10
4.4277
 20
-0.12171
 30
0.0
 10
4.4277
 20
-0.12171
 30
0.0
 10
4.54271
 20
-0.19049
 30
0.0
 10
4.64078
 20
-0.28434
 30
0.0
 10
4.75826
 20
-0.34924
 30
0.0
 10
4.75826
 20
-0.34924
 30
0.0
 10
5.18653
 20
-0.0254
 30
0.0
 10
5.6709
 20
0.24058
 30
0.0
 10
6.19972
 20
0.35277
 30
0.0
 10
6.19972
 20
0.35277
 30
0.0
 10
6.69854
 20
0.46637
 30
0.0
 10
7.2411
 20
0.41627
 30
0.0
 10
7.6962
 20
0.17568
 30
0.0
 10
7.6962
 20
0.17568
 30
0.0
 10
8.18373
 20
-0.07301
 30
0.0
 10
8.60424
 20
-0.502
 30
0.0
 10
8.73054
 20
-1.04739
 30
0.0
 10
8.73054
 20
-1.04739
 30
0.0
 10
8.8392
 20
-1.54374
 30
0.0
 10
8.76477
 20
-2.0648
 30
0.0
 10
8.59542
 20
-2.53894
 30
0.0
 10
8.59542
 20
-2.53894
 30
0.0
 10
8.37459
 20
-3.1577
 30
0.0
 10
8.03098
 20
-3.72638
 30
0.0
 10
7.62987
 20
-4.2439
 30
0.0
 10
7.62987
 20
-4.2439
 30
0.0
 10
7.25628
 20
-4.72369
 30
0.0
 10
6.8319
 20
-5.16643
 30
0.0
 10
6.35105
 20
-5.53966
 30
0.0
 10
6.35105
 20
-5.53966
 30
0.0
 10
5.82259
 20
-5.97076
 30
0.0
 10
5.29096
 20
-6.39762
 30
0.0
 10
4.75684
 20
-6.82166
 30
0.0
 10
4.75684
 20
-6.82166
 30
0.0
 10
4.22697
 20
-6.40997
 30
0.0
 10
3.70804
 20
-5.98452
 30
0.0
 10
3.18664
 20
-5.5619
 30
0.0
 10
3.18664
 20
-5.5619
 30
0.0
 10
2.55376
 20
-5.06906
 30
0.0
 10
2.00837
 20
-4.46722
 30
0.0
 10
1.56104
 20
-3.80223
 30
0.0
 10
1.56104
 20
-3.80223
 30
0.0
 10
1.16733
 20
-3.20357
 30
0.0
 10
0.83538
 20
-2.54105
 30
0.0
 10
0.74224
 20
-1.82279
 30
0.0
 10
0.74224
 20
-1.82279
 30
0.0
 10
0.67239
 20
-1.31692
 30
0.0
 10
0.78422
 20
-0.77257
 30
0.0
 10
1.11512
 20
-0.37394
 30
0.0
  0
ENDSEC
  0
SECTION
  2
OBJECTS
  0
DICTIONARY
  5
C
330
0
100
AcDbDictionary
281
     1
  3
ACAD_GROUP
350
D
  3
ACAD_LAYOUT
350
1A
  3
ACAD_MATERIAL
350
3B
  3
ACAD_MLEADERSTYLE
350
B3
  3
ACAD_MLINESTYLE
350
17
  3
ACAD_PLOTSETTINGS
350
19
  3
ACAD_PLOTSTYLENAME
350
E
  3
ACAD_TABLESTYLE
350
B2
  3
ACAD_VISUALSTYLE
350
2A
  0
DICTIONARY
  5
D
102
{ACAD_REACTORS
330
C
102
}
330
C
100
AcDbDictionary
281
     1
  0
DICTIONARY
  5
1A
102
{ACAD_REACTORS
330
C
102
}
330
C
100
AcDbDictionary
281
     1
  3
Layout1
350
1E
  3
Layout2
350
26
  3
Model
350
22
  0
DICTIONARY
  5
3B
102
{ACAD_REACTORS
330
C
102
}
330
C
100
AcDbDictionary
281
     1
  3
ByBlock
350
3D
  3
ByLayer
350
3C
  3
Global
350
3E
  0
DICTIONARY
  5
B3
102
{ACAD_REACTORS
330
C
102
}
330
C
100
AcDbDictionary
281
     1
  0
DICTIONARY
  5
17
102
{ACAD_REACTORS
330
C
102
}
330
C
100
AcDbDictionary
281
     1
  3
Standard
350
18
  0
DICTIONARY
  5
19
102
{ACAD_REACTORS
330
C
102
}
330
C
100
AcDbDictionary
281
     1
  0
ACDBDICTIONARYWDFLT
  5
E
102
{ACAD_REACTORS
330
C
102
}
330
C
100
AcDbDictionary
281
     1
  3
Normal
350
F
100
AcDbDictionaryWithDefault
340
F
  0
DICTIONARY
  5
B2
102
{ACAD_REACTORS
330
C
102
}
330
C
100
AcDbDictionary
281
     1
  0
DICTIONARY
  5
2A
102
{ACAD_REACTORS
330
C
102
}
330
C
100
AcDbDictionary
281
     1
  3
2dWireframe
350
2F
  3
3D Hidden
350
31
  3
3dWireframe
350
30
  3
Basic
350
32
  3
Brighten
350
36
  3
ColorChange
350
3A
  3
Conceptual
350
34
  3
Dim
350
35
  3
Facepattern
350
39
  3
Flat
350
2B
  3
FlatWithEdges
350
2C
  3
Gouraud
350
2D
  3
GouraudWithEdges
350
2E
  3
Linepattern
350
38
  3
Realistic
350
33
  3
Thicken
350
37
  0
LAYOUT
  5
1E
102
{ACAD_REACTORS
330
1A
102
}
330
1A
100
AcDbPlotSettings
  1

  2
none_device
  4

  6

 40
0.0
 41
0.0
 42
0.0
 43
0.0
 44
0.0
 45
0.0
 46
0.0
 47
0.0
 48
0.0
 49
0.0
140
0.0
141
0.0
142
1.0
143
1.0
 70
   688
 72
     0
 73
     0
 74
     5
  7

 75
    16
 76
     0
 77
     2
 78
   300
147
1.0
148
0.0
149
0.0
100
AcDbLayout
  1
Layout1
 70
     1
 71
     1
 10
0.0
 20
0.0
 11
12.0
 21
9.0
 12
0.0
 22
0.0
 32
0.0
 14
1.000000000000000E+20
 24
1.000000000000000E+20
 34
1.000000000000000E+20
 15
-1.000000000000000E+20
 25
-1.000000000000000E+20
 35
-1.000000000000000E+20
146
0.0
 13
0.0
 23
0.0
 33
0.0
 16
1.0
 26
0.0
 36
0.0
 17
0.0
 27
1.0
 37
0.0
 76
     0
330
1B
  0
LAYOUT
  5
26
102
{ACAD_REACTORS
330
1A
102
}
330
1A
100
AcDbPlotSettings
  1

  2
none_device
  4

  6

 40
0.0
 41
0.0
 42
0.0
 43
0.0
 44
0.0
 45
0.0
 46
0.0
 47
0.0
 48
0.0
 49
0.0
140
0.0
141
0.0
142
1.0
143
1.0
 70
   688
 72
     0
 73
     0
 74
     5
  7

 75
    16
 76
     0
 77
     2
 78
   300
147
1.0
148
0.0
149
0.0
100
AcDbLayout
  1
Layout2
 70
     1
 71
     2
 10
0.0
 20
0.0
 11
0.0
 21
0.0
 12
0.0
 22
0.0
 32
0.0
 14
0.0
 24
0.0
 34
0.0
 15
0.0
 25
0.0
 35
0.0
146
0.0
 13
0.0
 23
0.0
 33
0.0
 16
1.0
 26
0.0
 36
0.0
 17
0.0
 27
1.0
 37
0.0
 76
     0
330
23
  0
LAYOUT
  5
22
102
{ACAD_REACTORS
330
1A
102
}
330
1A
100
AcDbPlotSettings
  1

  2
none_device
  4

  6

 40
0.0
 41
0.0
 42
0.0
 43
0.0
 44
0.0
 45
0.0
 46
0.0
 47
0.0
 48
0.0
 49
0.0
140
0.0
141
0.0
142
1.0
143
1.0
 70
  1712
 72
     0
 73
     0
 74
     0
  7

 75
     0
 76
     0
 77
     2
 78
   300
147
1.0
148
0.0
149
0.0
100
AcDbLayout
  1
Model
 70
     1
 71
     0
 10
0.0
 20
0.0
 11
12.0
 21
9.0
 12
0.0
 22
0.0
 32
0.0
 14
-8.8194
 24
-6.86969
 34
0.0
 15
8.7815
 25
6.45013
 35
0.0
146
0.0
 13
0.0
 23
0.0
 33
0.0
 16
1.0
 26
0.0
 36
0.0
 17
0.0
 27
1.0
 37
0.0
 76
     0
330
1F
331
29
  0
MATERIAL
  5
3D
102
{ACAD_REACTORS
330
3B
102
}
330
3B
100
AcDbMaterial
  1
ByBlock
 72
     1
 94
      127
  0
MATERIAL
  5
3C
102
{ACAD_REACTORS
330
3B
102
}
330
3B
100
AcDbMaterial
  1
ByLayer
 72
     1
 94
      127
  0
MATERIAL
  5
3E
102
{ACAD_REACTORS
330
3B
102
}
330
3B
100
AcDbMaterial
  1
Global
 72
     1
 94
      127
  0
MLINESTYLE
  5
18
102
{ACAD_REACTORS
330
17
102
}
330
17
100
AcDbMlineStyle
  2
Standard
 70
     0
  3

 62
   256
 51
90.0
 52
90.0
 71
     2
 49
0.5
 62
   256
  6
BYLAYER
 49
-0.5
 62
   256
  6
BYLAYER
  0
ACDBPLACEHOLDER
  5
F
102
{ACAD_REACTORS
330
E
102
}
330
E
  0
VISUALSTYLE
  5
2F
102
{ACAD_REACTORS
330
2A
102
}
102
{ACAD_XDICTIONARY
360
9A
102
}
330
2A
100
AcDbVisualStyle
  2
2dWireframe
 70
     4
 71
     0
 72
     2
 73
     0
 90
        0
 40
-0.6
 41
-30.0
 62
     5
 63
     7
421
 16777215
 74
     1
 91
        4
 64
     7
 65
   257
 75
     1
175
     1
 42
1.0
 92
        0
 66
   257
 43
1.0
 76
     1
 77
     6
 78
     2
 67
     7
 79
     5
170
     0
171
     0
290
     0
174
     0
 93
        1
 44
0.0
173
     0
291
     0
 45
0.0
  0
VISUALSTYLE
  5
31
102
{ACAD_REACTORS
330
2A
102
}
102
{ACAD_XDICTIONARY
360
9E
102
}
330
2A
100
AcDbVisualStyle
  2
3D Hidden
 70
     6
 71
     1
 72
     2
 73
     2
 90
        0
 40
-0.6
 41
-30.0
 62
     5
 63
     7
421
 16777215
 74
     2
 91
        2
 64
     7
 65
   257
 75
     2
175
     1
 42
40.0
 92
        0
 66
   257
 43
1.0
 76
     1
 77
     6
 78
     2
 67
     7
 79
     3
170
     0
171
     0
290
     0
174
     0
 93
        1
 44
0.0
173
     0
291
     0
 45
0.0
  0
VISUALSTYLE
  5
30
102
{ACAD_REACTORS
330
2A
102
}
102
{ACAD_XDICTIONARY
360
9C
102
}
330
2A
100
AcDbVisualStyle
  2
3dWireframe
 70
     5
 71
     0
 72
     2
 73
     0
 90
        0
 40
-0.6
 41
-30.0
 62
     5
 63
     7
421
 16777215
 74
     1
 91
        4
 64
     7
 65
   257
 75
     1
175
     1
 42
1.0
 92
        0
 66
   257
 43
1.0
 76
     1
 77
     6
 78
     2
 67
     7
 79
     5
170
     0
171
     0
290
     0
174
     0
 93
        1
 44
0.0
173
     0
291
     0
 45
0.0
  0
VISUALSTYLE
  5
32
102
{ACAD_REACTORS
330
2A
102
}
102
{ACAD_XDICTIONARY
360
A0
102
}
330
2A
100
AcDbVisualStyle
  2
Basic
 70
     7
 71
     1
 72
     0
 73
     1
 90
        0
 40
-0.6
 41
-30.0
 62
     5
 63
     7
421
 16777215
 74
     0
 91
        4
 64
     7
 65
   257
 75
     1
175
     1
 42
1.0
 92
        8
 66
     7
 43
1.0
 76
     1
 77
     6
 78
     2
 67
     7
 79
     5
170
     0
171
     0
290
     0
174
     0
 93
        1
 44
0.0
173
     0
291
     1
 45
0.0
  0
VISUALSTYLE
  5
36
102
{ACAD_REACTORS
330
2A
102
}
102
{ACAD_XDICTIONARY
360
A8
102
}
330
2A
100
AcDbVisualStyle
  2
Brighten
 70
    12
 71
     2
 72
     2
 73
     0
 90
        0
 40
-0.6
 41
-30.0
 62
     5
 63
     7
421
 16777215
 74
     1
 91
        4
 64
     7
 65
   257
 75
     1
175
     1
 42
1.0
 92
        8
 66
     7
 43
1.0
 76
     1
 77
     6
 78
     2
 67
     7
 79
     5
170
     0
171
     0
290
     0
174
     0
 93
        1
 44
50.0
173
     0
291
     1
 45
0.0
  0
VISUALSTYLE
  5
3A
102
{ACAD_REACTORS
330
2A
102
}
102
{ACAD_XDICTIONARY
360
B0
102
}
330
2A
100
AcDbVisualStyle
  2
ColorChange
 70
    16
 71
     2
 72
     2
 73
     3
 90
        0
 40
-0.6
 41
-30.0
 62
     5
 63
     8
421
  8421504
 74
     1
 91
        4
 64
     7
 65
   257
 75
     1
175
     1
 42
1.0
 92
        8
 66
     8
424
  8421504
 43
1.0
 76
     1
 77
     6
 78
     2
 67
     7
 79
     5
170
     0
171
     0
290
     0
174
     0
 93
        1
 44
0.0
173
     0
291
     1
 45
0.0
  0
VISUALSTYLE
  5
34
102
{ACAD_REACTORS
330
2A
102
}
102
{ACAD_XDICTIONARY
360
A4
102
}
330
2A
100
AcDbVisualStyle
  2
Conceptual
 70
     9
 71
     3
 72
     2
 73
     0
 90
        0
 40
-0.6
 41
-30.0
 62
     5
 63
     7
421
 16777215
 74
     2
 91
        2
 64
     7
 65
   257
 75
     1
175
     1
 42
40.0
 92
        8
 66
     7
 43
1.0
 76
     1
 77
     6
 78
     2
 67
     7
 79
     3
170
     0
171
     0
290
     0
174
     0
 93
        1
 44
0.0
173
     0
291
     0
 45
0.0
  0
VISUALSTYLE
  5
35
102
{ACAD_REACTORS
330
2A
102
}
102
{ACAD_XDICTIONARY
360
A6
102
}
330
2A
100
AcDbVisualStyle
  2
Dim
 70
    11
 71
     2
 72
     2
 73
     0
 90
        0
 40
-0.6
 41
-30.0
 62
     5
 63
     7
421
 16777215
 74
     1
 91
        4
 64
     7
 65
   257
 75
     1
175
     1
 42
1.0
 92
        8
 66
     7
 43
1.0
 76
     1
 77
     6
 78
     2
 67
     7
 79
     5
170
     0
171
     0
290
     0
174
     0
 93
        1
 44
-50.0
173
     0
291
     1
 45
0.0
  0
VISUALSTYLE
  5
39
102
{ACAD_REACTORS
330
2A
102
}
102
{ACAD_XDICTIONARY
360
AE
102
}
330
2A
100
AcDbVisualStyle
  2
Facepattern
 70
    15
 71
     2
 72
     2
 73
     0
 90
        0
 40
-0.6
 41
-30.0
 62
     5
 63
     7
421
 16777215
 74
     1
 91
        4
 64
     7
 65
   257
 75
     1
175
     1
 42
1.0
 92
        8
 66
     7
 43
1.0
 76
     1
 77
     6
 78
     2
 67
     7
 79
     5
170
     0
171
     0
290
     0
174
     0
 93
        1
 44
0.0
173
     0
291
     1
 45
0.0
  0
VISUALSTYLE
  5
2B
102
{ACAD_REACTORS
330
2A
102
}
102
{ACAD_XDICTIONARY
360
92
102
}
330
2A
100
AcDbVisualStyle
  2
Flat
 70
     0
 71
     2
 72
     1
 73
     1
 90
        2
 40
-0.6
 41
30.0
 62
     5
 63
     7
421
 16777215
 74
     0
 91
        4
 64
     7
 65
   257
 75
     1
175
     1
 42
1.0
 92
        8
 66
     7
 43
1.0
 76
     1
 77
     6
 78
     2
 67
     7
 79
     5
170
     0
171
     0
290
     0
174
     0
 93
       13
 44
0.0
173
     0
291
     1
 45
0.0
  0
VISUALSTYLE
  5
2C
102
{ACAD_REACTORS
330
2A
102
}
102
{ACAD_XDICTIONARY
360
94
102
}
330
2A
100
AcDbVisualStyle
  2
FlatWithEdges
 70
     1
 71
     2
 72
     1
 73
     1
 90
        2
 40
-0.6
 41
30.0
 62
     5
 63
     7
421
 16777215
 74
     1
 91
        4
 64
     7
 65
   257
 75
     1
175
     1
 42
1.0
 92
        0
 66
   257
 43
1.0
 76
     1
 77
     6
 78
     2
 67
     7
 79
     5
170
     0
171
     0
290
     0
174
     0
 93
       13
 44
0.0
173
     0
291
     1
 45
0.0
  0
VISUALSTYLE
  5
2D
102
{ACAD_REACTORS
330
2A
102
}
102
{ACAD_XDICTIONARY
360
96
102
}
330
2A
100
AcDbVisualStyle
  2
Gouraud
 70
     2
 71
     2
 72
     2
 73
     1
 90
        2
 40
-0.6
 41
30.0
 62
     5
 63
     7
421
 16777215
 74
     0
 91
        4
 64
     7
 65
   257
 75
     1
175
     1
 42
1.0
 92
        0
 66
     7
 43
1.0
 76
     1
 77
     6
 78
     2
 67
     7
 79
     5
170
     0
171
     0
290
     0
174
     0
 93
       13
 44
0.0
173
     0
291
     1
 45
0.0
  0
VISUALSTYLE
  5
2E
102
{ACAD_REACTORS
330
2A
102
}
102
{ACAD_XDICTIONARY
360
98
102
}
330
2A
100
AcDbVisualStyle
  2
GouraudWithEdges
 70
     3
 71
     2
 72
     2
 73
     1
 90
        2
 40
-0.6
 41
30.0
 62
     5
 63
     7
421
 16777215
 74
     1
 91
        4
 64
     7
 65
   257
 75
     1
175
     1
 42
1.0
 92
        0
 66
   257
 43
1.0
 76
     1
 77
     6
 78
     2
 67
     7
 79
     5
170
     0
171
     0
290
     0
174
     0
 93
       13
 44
0.0
173
     0
291
     1
 45
0.0
  0
VISUALSTYLE
  5
38
102
{ACAD_REACTORS
330
2A
102
}
102
{ACAD_XDICTIONARY
360
AC
102
}
330
2A
100
AcDbVisualStyle
  2
Linepattern
 70
    14
 71
     2
 72
     2
 73
     0
 90
        0
 40
-0.6
 41
-30.0
 62
     5
 63
     7
421
 16777215
 74
     1
 91
        4
 64
     7
 65
   257
 75
     7
175
     7
 42
1.0
 92
        8
 66
     7
 43
1.0
 76
     1
 77
     6
 78
     2
 67
     7
 79
     5
170
     0
171
     0
290
     0
174
     0
 93
        1
 44
0.0
173
     0
291
     1
 45
0.0
  0
VISUALSTYLE
  5
33
102
{ACAD_REACTORS
330
2A
102
}
102
{ACAD_XDICTIONARY
360
A2
102
}
330
2A
100
AcDbVisualStyle
  2
Realistic
 70
     8
 71
     2
 72
     2
 73
     0
 90
        0
 40
-0.6
 41
-30.0
 62
     5
 63
     7
421
 16777215
 74
     1
 91
        0
 64
     7
 65
   257
 75
     1
175
     1
 42
1.0
 92
        8
 66
     8
424
  7895160
 43
1.0
 76
     1
 77
     6
 78
     2
 67
     7
 79
     5
170
     0
171
     0
290
     0
174
     0
 93
       13
 44
0.0
173
     0
291
     0
 45
0.0
  0
VISUALSTYLE
  5
37
102
{ACAD_REACTORS
330
2A
102
}
102
{ACAD_XDICTIONARY
360
AA
102
}
330
2A
100
AcDbVisualStyle
  2
Thicken
 70
    13
 71
     2
 72
     2
 73
     0
 90
        0
 40
-0.6
 41
-30.0
 62
     5
 63
     7
421
 16777215
 74
     1
 91
        4
 64
     7
 65
   257
 75
     1
175
     1
 42
1.0
 92
       12
 66
     7
 43
1.0
 76
     1
 77
     6
 78
     2
 67
     7
 79
     5
170
     0
171
     0
290
     0
174
     0
 93
        1
 44
0.0
173
     0
291
     1
 45
0.0
  0
DICTIONARY
  5
9A
330
2F
100
AcDbDictionary
280
     1
281
     1
  3
ACAD_XREC_ROUNDTRIP
360
9B
  0
DICTIONARY
  5
9E
330
31
100
AcDbDictionary
280
     1
281
     1
  3
ACAD_XREC_ROUNDTRIP
360
9F
  0
DICTIONARY
  5
9C
330
30
100
AcDbDictionary
280
     1
281
     1
  3
ACAD_XREC_ROUNDTRIP
360
9D
  0
DICTIONARY
  5
A0
330
32
100
AcDbDictionary
280
     1
281
     1
  3
ACAD_XREC_ROUNDTRIP
360
A1
  0
DICTIONARY
  5
A8
330
36
100
AcDbDictionary
280
     1
281
     1
  3
ACAD_XREC_ROUNDTRIP
360
A9
  0
DICTIONARY
  5
B0
330
3A
100
AcDbDictionary
280
     1
281
     1
  3
ACAD_XREC_ROUNDTRIP
360
B1
  0
DICTIONARY
  5
A4
330
34
100
AcDbDictionary
280
     1
281
     1
  3
ACAD_XREC_ROUNDTRIP
360
A5
  0
DICTIONARY
  5
A6
330
35
100
AcDbDictionary
280
     1
281
     1
  3
ACAD_XREC_ROUNDTRIP
360
A7
  0
DICTIONARY
  5
AE
330
39
100
AcDbDictionary
280
     1
281
     1
  3
ACAD_XREC_ROUNDTRIP
360
AF
  0
DICTIONARY
  5
92
330
2B
100
AcDbDictionary
280
     1
281
     1
  3
ACAD_XREC_ROUNDTRIP
360
93
  0
DICTIONARY
  5
94
330
2C
100
AcDbDictionary
280
     1
281
     1
  3
ACAD_XREC_ROUNDTRIP
360
95
  0
DICTIONARY
  5
96
330
2D
100
AcDbDictionary
280
     1
281
     1
  3
ACAD_XREC_ROUNDTRIP
360
97
  0
DICTIONARY
  5
98
330
2E
100
AcDbDictionary
280
     1
281
     1
  3
ACAD_XREC_ROUNDTRIP
360
99
  0
DICTIONARY
  5
AC
330
38
100
AcDbDictionary
280
     1
281
     1
  3
ACAD_XREC_ROUNDTRIP
360
AD
  0
DICTIONARY
  5
A2
330
33
100
AcDbDictionary
280
     1
281
     1
  3
ACAD_XREC_ROUNDTRIP
360
A3
  0
DICTIONARY
  5
AA
330
37
100
AcDbDictionary
280
     1
281
     1
  3
ACAD_XREC_ROUNDTRIP
360
AB
  0
XRECORD
  5
9B
102
{ACAD_REACTORS
330
9A
102
}
330
9A
100
AcDbXrecord
280
     1
102
RTVSPropertyOp0
 70
     1
102
RTVSPropertyOp1
 70
     1
102
RTVSPropertyOp2
 70
     1
102
RTVSPropertyOp3
 70
     1
102
RTVSPropertyOp4
 70
     1
102
RTVSPropertyOp5
 70
     1
102
RTVSPropertyOp6
 70
     1
102
RTVSPropertyOp7
 70
     1
102
RTVSPropertyOp8
 70
     1
102
RTVSPropertyOp9
 70
     1
102
RTVSPropertyOp10
 70
     1
102
RTVSPropertyOp11
 70
     1
102
RTVSPropertyOp12
 70
     1
102
RTVSPropertyOp13
 70
     1
102
RTVSPropertyOp14
 70
     1
102
RTVSPropertyOp15
 70
     1
102
RTVSPropertyOp16
 70
     1
102
RTVSPropertyOp17
 70
     1
102
RTVSPropertyOp18
 70
     1
102
RTVSPropertyOp19
 70
     1
102
RTVSPropertyOp20
 70
     1
102
RTVSPropertyOp21
 70
     1
102
RTVSPropertyOp22
 70
     1
102
RTVSPropertyOp23
 70
     1
102
RTVSPropertyOp24
 70
     1
102
RTVSPropertyOp25
 70
     1
102
RTVSPropertyOp26
 70
     1
102
RTVSPropertyOp27
 70
     1
102
RTVSPropertyOp28
 70
     1
102
RTVSPropertyOp29
 70
     1
102
RTVSPropertyOp30
 70
     1
102
RTVSPropertyOp31
 70
     1
102
RTVSPropertyOp32
 70
     1
  0
XRECORD
  5
9F
102
{ACAD_REACTORS
330
9E
102
}
330
9E
100
AcDbXrecord
280
     1
102
RTVSPropertyOp0
 70
     1
102
RTVSPropertyOp1
 70
     1
102
RTVSPropertyOp2
 70
     1
102
RTVSPropertyOp3
 70
     1
102
RTVSPropertyOp4
 70
     1
102
RTVSPropertyOp5
 70
     1
102
RTVSPropertyOp6
 70
     1
102
RTVSPropertyOp7
 70
     1
102
RTVSPropertyOp8
 70
     1
102
RTVSPropertyOp9
 70
     1
102
RTVSPropertyOp10
 70
     1
102
RTVSPropertyOp11
 70
     1
102
RTVSPropertyOp12
 70
     1
102
RTVSPropertyOp13
 70
     1
102
RTVSPropertyOp14
 70
     1
102
RTVSPropertyOp15
 70
     1
102
RTVSPropertyOp16
 70
     1
102
RTVSPropertyOp17
 70
     1
102
RTVSPropertyOp18
 70
     1
102
RTVSPropertyOp19
 70
     1
102
RTVSPropertyOp20
 70
     1
102
RTVSPropertyOp21
 70
     1
102
RTVSPropertyOp22
 70
     1
102
RTVSPropertyOp23
 70
     1
102
RTVSPropertyOp24
 70
     1
102
RTVSPropertyOp25
 70
     1
102
RTVSPropertyOp26
 70
     1
102
RTVSPropertyOp27
 70
     1
102
RTVSPropertyOp28
 70
     1
102
RTVSPropertyOp29
 70
     1
102
RTVSPropertyOp30
 70
     1
102
RTVSPropertyOp31
 70
     1
102
RTVSPropertyOp32
 70
     1
  0
XRECORD
  5
9D
102
{ACAD_REACTORS
330
9C
102
}
330
9C
100
AcDbXrecord
280
     1
102
RTVSPropertyOp0
 70
     1
102
RTVSPropertyOp1
 70
     1
102
RTVSPropertyOp2
 70
     1
102
RTVSPropertyOp3
 70
     1
102
RTVSPropertyOp4
 70
     1
102
RTVSPropertyOp5
 70
     1
102
RTVSPropertyOp6
 70
     1
102
RTVSPropertyOp7
 70
     1
102
RTVSPropertyOp8
 70
     1
102
RTVSPropertyOp9
 70
     1
102
RTVSPropertyOp10
 70
     1
102
RTVSPropertyOp11
 70
     1
102
RTVSPropertyOp12
 70
     1
102
RTVSPropertyOp13
 70
     1
102
RTVSPropertyOp14
 70
     1
102
RTVSPropertyOp15
 70
     1
102
RTVSPropertyOp16
 70
     1
102
RTVSPropertyOp17
 70
     1
102
RTVSPropertyOp18
 70
     1
102
RTVSPropertyOp19
 70
     1
102
RTVSPropertyOp20
 70
     1
102
RTVSPropertyOp21
 70
     1
102
RTVSPropertyOp22
 70
     1
102
RTVSPropertyOp23
 70
     1
102
RTVSPropertyOp24
 70
     1
102
RTVSPropertyOp25
 70
     1
102
RTVSPropertyOp26
 70
     1
102
RTVSPropertyOp27
 70
     1
102
RTVSPropertyOp28
 70
     1
102
RTVSPropertyOp29
 70
     1
102
RTVSPropertyOp30
 70
     1
102
RTVSPropertyOp31
 70
     1
102
RTVSPropertyOp32
 70
     1
  0
XRECORD
  5
A1
102
{ACAD_REACTORS
330
A0
102
}
330
A0
100
AcDbXrecord
280
     1
102
RTVSPropertyOp0
 70
     1
102
RTVSPropertyOp1
 70
     1
102
RTVSPropertyOp2
 70
     1
102
RTVSPropertyOp3
 70
     1
102
RTVSPropertyOp4
 70
     1
102
RTVSPropertyOp5
 70
     1
102
RTVSPropertyOp6
 70
     1
102
RTVSPropertyOp7
 70
     1
102
RTVSPropertyOp8
 70
     1
102
RTVSPropertyOp9
 70
     1
102
RTVSPropertyOp10
 70
     1
102
RTVSPropertyOp11
 70
     1
102
RTVSPropertyOp12
 70
     1
102
RTVSPropertyOp13
 70
     1
102
RTVSPropertyOp14
 70
     1
102
RTVSPropertyOp15
 70
     1
102
RTVSPropertyOp16
 70
     1
102
RTVSPropertyOp17
 70
     1
102
RTVSPropertyOp18
 70
     1
102
RTVSPropertyOp19
 70
     1
102
RTVSPropertyOp20
 70
     1
102
RTVSPropertyOp21
 70
     1
102
RTVSPropertyOp22
 70
     1
102
RTVSPropertyOp23
 70
     1
102
RTVSPropertyOp24
 70
     1
102
RTVSPropertyOp25
 70
     1
102
RTVSPropertyOp26
 70
     1
102
RTVSPropertyOp27
 70
     1
102
RTVSPropertyOp28
 70
     1
102
RTVSPropertyOp29
 70
     1
102
RTVSPropertyOp30
 70
     1
102
RTVSPropertyOp31
 70
     1
102
RTVSPropertyOp32
 70
     1
  0
XRECORD
  5
A9
102
{ACAD_REACTORS
330
A8
102
}
330
A8
100
AcDbXrecord
280
     1
102
RTVSPropertyOp0
 70
     1
102
RTVSPropertyOp1
 70
     1
102
RTVSPropertyOp2
 70
     1
102
RTVSPropertyOp3
 70
     1
102
RTVSPropertyOp4
 70
     1
102
RTVSPropertyOp5
 70
     1
102
RTVSPropertyOp6
 70
     1
102
RTVSPropertyOp7
 70
     1
102
RTVSPropertyOp8
 70
     1
102
RTVSPropertyOp9
 70
     1
102
RTVSPropertyOp10
 70
     1
102
RTVSPropertyOp11
 70
     1
102
RTVSPropertyOp12
 70
     1
102
RTVSPropertyOp13
 70
     1
102
RTVSPropertyOp14
 70
     1
102
RTVSPropertyOp15
 70
     1
102
RTVSPropertyOp16
 70
     1
102
RTVSPropertyOp17
 70
     1
102
RTVSPropertyOp18
 70
     1
102
RTVSPropertyOp19
 70
     1
102
RTVSPropertyOp20
 70
     1
102
RTVSPropertyOp21
 70
     1
102
RTVSPropertyOp22
 70
     1
102
RTVSPropertyOp23
 70
     1
102
RTVSPropertyOp24
 70
     1
102
RTVSPropertyOp25
 70
     1
102
RTVSPropertyOp26
 70
     1
102
RTVSPropertyOp27
 70
     1
102
RTVSPropertyOp28
 70
     1
102
RTVSPropertyOp29
 70
     1
102
RTVSPropertyOp30
 70
     1
102
RTVSPropertyOp31
 70
     1
102
RTVSPropertyOp32
 70
     1
  0
XRECORD
  5
B1
102
{ACAD_REACTORS
330
B0
102
}
330
B0
100
AcDbXrecord
280
     1
102
RTVSPropertyOp0
 70
     1
102
RTVSPropertyOp1
 70
     1
102
RTVSPropertyOp2
 70
     1
102
RTVSPropertyOp3
 70
     1
102
RTVSPropertyOp4
 70
     1
102
RTVSPropertyOp5
 70
     1
102
RTVSPropertyOp6
 70
     1
102
RTVSPropertyOp7
 70
     1
102
RTVSPropertyOp8
 70
     1
102
RTVSPropertyOp9
 70
     1
102
RTVSPropertyOp10
 70
     1
102
RTVSPropertyOp11
 70
     1
102
RTVSPropertyOp12
 70
     1
102
RTVSPropertyOp13
 70
     1
102
RTVSPropertyOp14
 70
     1
102
RTVSPropertyOp15
 70
     1
102
RTVSPropertyOp16
 70
     1
102
RTVSPropertyOp17
 70
     1
102
RTVSPropertyOp18
 70
     1
102
RTVSPropertyOp19
 70
     1
102
RTVSPropertyOp20
 70
     1
102
RTVSPropertyOp21
 70
     1
102
RTVSPropertyOp22
 70
     1
102
RTVSPropertyOp23
 70
     1
102
RTVSPropertyOp24
 70
     1
102
RTVSPropertyOp25
 70
     1
102
RTVSPropertyOp26
 70
     1
102
RTVSPropertyOp27
 70
     1
102
RTVSPropertyOp28
 70
     1
102
RTVSPropertyOp29
 70
     1
102
RTVSPropertyOp30
 70
     1
102
RTVSPropertyOp31
 70
     1
102
RTVSPropertyOp32
 70
     1
  0
XRECORD
  5
A5
102
{ACAD_REACTORS
330
A4
102
}
330
A4
100
AcDbXrecord
280
     1
102
RTVSPropertyOp0
 70
     1
102
RTVSPropertyOp1
 70
     1
102
RTVSPropertyOp2
 70
     1
102
RTVSPropertyOp3
 70
     1
102
RTVSPropertyOp4
 70
     1
102
RTVSPropertyOp5
 70
     1
102
RTVSPropertyOp6
 70
     1
102
RTVSPropertyOp7
 70
     1
102
RTVSPropertyOp8
 70
     1
102
RTVSPropertyOp9
 70
     1
102
RTVSPropertyOp10
 70
     1
102
RTVSPropertyOp11
 70
     1
102
RTVSPropertyOp12
 70
     1
102
RTVSPropertyOp13
 70
     1
102
RTVSPropertyOp14
 70
     1
102
RTVSPropertyOp15
 70
     1
102
RTVSPropertyOp16
 70
     1
102
RTVSPropertyOp17
 70
     1
102
RTVSPropertyOp18
 70
     1
102
RTVSPropertyOp19
 70
     1
102
RTVSPropertyOp20
 70
     1
102
RTVSPropertyOp21
 70
     1
102
RTVSPropertyOp22
 70
     1
102
RTVSPropertyOp23
 70
     1
102
RTVSPropertyOp24
 70
     1
102
RTVSPropertyOp25
 70
     1
102
RTVSPropertyOp26
 70
     1
102
RTVSPropertyOp27
 70
     1
102
RTVSPropertyOp28
 70
     1
102
RTVSPropertyOp29
 70
     1
102
RTVSPropertyOp30
 70
     1
102
RTVSPropertyOp31
 70
     1
102
RTVSPropertyOp32
 70
     1
  0
XRECORD
  5
A7
102
{ACAD_REACTORS
330
A6
102
}
330
A6
100
AcDbXrecord
280
     1
102
RTVSPropertyOp0
 70
     1
102
RTVSPropertyOp1
 70
     1
102
RTVSPropertyOp2
 70
     1
102
RTVSPropertyOp3
 70
     1
102
RTVSPropertyOp4
 70
     1
102
RTVSPropertyOp5
 70
     1
102
RTVSPropertyOp6
 70
     1
102
RTVSPropertyOp7
 70
     1
102
RTVSPropertyOp8
 70
     1
102
RTVSPropertyOp9
 70
     1
102
RTVSPropertyOp10
 70
     1
102
RTVSPropertyOp11
 70
     1
102
RTVSPropertyOp12
 70
     1
102
RTVSPropertyOp13
 70
     1
102
RTVSPropertyOp14
 70
     1
102
RTVSPropertyOp15
 70
     1
102
RTVSPropertyOp16
 70
     1
102
RTVSPropertyOp17
 70
     1
102
RTVSPropertyOp18
 70
     1
102
RTVSPropertyOp19
 70
     1
102
RTVSPropertyOp20
 70
     1
102
RTVSPropertyOp21
 70
     1
102
RTVSPropertyOp22
 70
     1
102
RTVSPropertyOp23
 70
     1
102
RTVSPropertyOp24
 70
     1
102
RTVSPropertyOp25
 70
     1
102
RTVSPropertyOp26
 70
     1
102
RTVSPropertyOp27
 70
     1
102
RTVSPropertyOp28
 70
     1
102
RTVSPropertyOp29
 70
     1
102
RTVSPropertyOp30
 70
     1
102
RTVSPropertyOp31
 70
     1
102
RTVSPropertyOp32
 70
     1
  0
XRECORD
  5
AF
102
{ACAD_REACTORS
330
AE
102
}
330
AE
100
AcDbXrecord
280
     1
102
RTVSPropertyOp0
 70
     1
102
RTVSPropertyOp1
 70
     1
102
RTVSPropertyOp2
 70
     1
102
RTVSPropertyOp3
 70
     1
102
RTVSPropertyOp4
 70
     1
102
RTVSPropertyOp5
 70
     1
102
RTVSPropertyOp6
 70
     1
102
RTVSPropertyOp7
 70
     1
102
RTVSPropertyOp8
 70
     1
102
RTVSPropertyOp9
 70
     1
102
RTVSPropertyOp10
 70
     1
102
RTVSPropertyOp11
 70
     1
102
RTVSPropertyOp12
 70
     1
102
RTVSPropertyOp13
 70
     1
102
RTVSPropertyOp14
 70
     1
102
RTVSPropertyOp15
 70
     1
102
RTVSPropertyOp16
 70
     1
102
RTVSPropertyOp17
 70
     1
102
RTVSPropertyOp18
 70
     1
102
RTVSPropertyOp19
 70
     1
102
RTVSPropertyOp20
 70
     1
102
RTVSPropertyOp21
 70
     1
102
RTVSPropertyOp22
 70
     1
102
RTVSPropertyOp23
 70
     1
102
RTVSPropertyOp24
 70
     1
102
RTVSPropertyOp25
 70
     1
102
RTVSPropertyOp26
 70
     1
102
RTVSPropertyOp27
 70
     1
102
RTVSPropertyOp28
 70
     1
102
RTVSPropertyOp29
 70
     1
102
RTVSPropertyOp30
 70
     1
102
RTVSPropertyOp31
 70
     1
102
RTVSPropertyOp32
 70
     1
  0
XRECORD
  5
93
102
{ACAD_REACTORS
330
92
102
}
330
92
100
AcDbXrecord
280
     1
102
RTVSPropertyOp0
 70
     1
102
RTVSPropertyOp1
 70
     1
102
RTVSPropertyOp2
 70
     1
102
RTVSPropertyOp3
 70
     1
102
RTVSPropertyOp4
 70
     1
102
RTVSPropertyOp5
 70
     1
102
RTVSPropertyOp6
 70
     1
102
RTVSPropertyOp7
 70
     1
102
RTVSPropertyOp8
 70
     1
102
RTVSPropertyOp9
 70
     1
102
RTVSPropertyOp10
 70
     1
102
RTVSPropertyOp11
 70
     1
102
RTVSPropertyOp12
 70
     1
102
RTVSPropertyOp13
 70
     1
102
RTVSPropertyOp14
 70
     1
102
RTVSPropertyOp15
 70
     1
102
RTVSPropertyOp16
 70
     1
102
RTVSPropertyOp17
 70
     1
102
RTVSPropertyOp18
 70
     1
102
RTVSPropertyOp19
 70
     1
102
RTVSPropertyOp20
 70
     1
102
RTVSPropertyOp21
 70
     1
102
RTVSPropertyOp22
 70
     1
102
RTVSPropertyOp23
 70
     1
102
RTVSPropertyOp24
 70
     1
102
RTVSPropertyOp25
 70
     1
102
RTVSPropertyOp26
 70
     1
102
RTVSPropertyOp27
 70
     1
102
RTVSPropertyOp28
 70
     1
102
RTVSPropertyOp29
 70
     1
102
RTVSPropertyOp30
 70
     1
102
RTVSPropertyOp31
 70
     1
102
RTVSPropertyOp32
 70
     1
  0
XRECORD
  5
95
102
{ACAD_REACTORS
330
94
102
}
330
94
100
AcDbXrecord
280
     1
102
RTVSPropertyOp0
 70
     1
102
RTVSPropertyOp1
 70
     1
102
RTVSPropertyOp2
 70
     1
102
RTVSPropertyOp3
 70
     1
102
RTVSPropertyOp4
 70
     1
102
RTVSPropertyOp5
 70
     1
102
RTVSPropertyOp6
 70
     1
102
RTVSPropertyOp7
 70
     1
102
RTVSPropertyOp8
 70
     1
102
RTVSPropertyOp9
 70
     1
102
RTVSPropertyOp10
 70
     1
102
RTVSPropertyOp11
 70
     1
102
RTVSPropertyOp12
 70
     1
102
RTVSPropertyOp13
 70
     1
102
RTVSPropertyOp14
 70
     1
102
RTVSPropertyOp15
 70
     1
102
RTVSPropertyOp16
 70
     1
102
RTVSPropertyOp17
 70
     1
102
RTVSPropertyOp18
 70
     1
102
RTVSPropertyOp19
 70
     1
102
RTVSPropertyOp20
 70
     1
102
RTVSPropertyOp21
 70
     1
102
RTVSPropertyOp22
 70
     1
102
RTVSPropertyOp23
 70
     1
102
RTVSPropertyOp24
 70
     1
102
RTVSPropertyOp25
 70
     1
102
RTVSPropertyOp26
 70
     1
102
RTVSPropertyOp27
 70
     1
102
RTVSPropertyOp28
 70
     1
102
RTVSPropertyOp29
 70
     1
102
RTVSPropertyOp30
 70
     1
102
RTVSPropertyOp31
 70
     1
102
RTVSPropertyOp32
 70
     1
  0
XRECORD
  5
97
102
{ACAD_REACTORS
330
96
102
}
330
96
100
AcDbXrecord
280
     1
102
RTVSPropertyOp0
 70
     1
102
RTVSPropertyOp1
 70
     1
102
RTVSPropertyOp2
 70
     1
102
RTVSPropertyOp3
 70
     1
102
RTVSPropertyOp4
 70
     1
102
RTVSPropertyOp5
 70
     1
102
RTVSPropertyOp6
 70
     1
102
RTVSPropertyOp7
 70
     1
102
RTVSPropertyOp8
 70
     1
102
RTVSPropertyOp9
 70
     1
102
RTVSPropertyOp10
 70
     1
102
RTVSPropertyOp11
 70
     1
102
RTVSPropertyOp12
 70
     1
102
RTVSPropertyOp13
 70
     1
102
RTVSPropertyOp14
 70
     1
102
RTVSPropertyOp15
 70
     1
102
RTVSPropertyOp16
 70
     1
102
RTVSPropertyOp17
 70
     1
102
RTVSPropertyOp18
 70
     1
102
RTVSPropertyOp19
 70
     1
102
RTVSPropertyOp20
 70
     1
102
RTVSPropertyOp21
 70
     1
102
RTVSPropertyOp22
 70
     1
102
RTVSPropertyOp23
 70
     1
102
RTVSPropertyOp24
 70
     1
102
RTVSPropertyOp25
 70
     1
102
RTVSPropertyOp26
 70
     1
102
RTVSPropertyOp27
 70
     1
102
RTVSPropertyOp28
 70
     1
102
RTVSPropertyOp29
 70
     1
102
RTVSPropertyOp30
 70
     1
102
RTVSPropertyOp31
 70
     1
102
RTVSPropertyOp32
 70
     1
  0
XRECORD
  5
99
102
{ACAD_REACTORS
330
98
102
}
330
98
100
AcDbXrecord
280
     1
102
RTVSPropertyOp0
 70
     1
102
RTVSPropertyOp1
 70
     1
102
RTVSPropertyOp2
 70
     1
102
RTVSPropertyOp3
 70
     1
102
RTVSPropertyOp4
 70
     1
102
RTVSPropertyOp5
 70
     1
102
RTVSPropertyOp6
 70
     1
102
RTVSPropertyOp7
 70
     1
102
RTVSPropertyOp8
 70
     1
102
RTVSPropertyOp9
 70
     1
102
RTVSPropertyOp10
 70
     1
102
RTVSPropertyOp11
 70
     1
102
RTVSPropertyOp12
 70
     1
102
RTVSPropertyOp13
 70
     1
102
RTVSPropertyOp14
 70
     1
102
RTVSPropertyOp15
 70
     1
102
RTVSPropertyOp16
 70
     1
102
RTVSPropertyOp17
 70
     1
102
RTVSPropertyOp18
 70
     1
102
RTVSPropertyOp19
 70
     1
102
RTVSPropertyOp20
 70
     1
102
RTVSPropertyOp21
 70
     1
102
RTVSPropertyOp22
 70
     1
102
RTVSPropertyOp23
 70
     1
102
RTVSPropertyOp24
 70
     1
102
RTVSPropertyOp25
 70
     1
102
RTVSPropertyOp26
 70
     1
102
RTVSPropertyOp27
 70
     1
102
RTVSPropertyOp28
 70
     1
102
RTVSPropertyOp29
 70
     1
102
RTVSPropertyOp30
 70
     1
102
RTVSPropertyOp31
 70
     1
102
RTVSPropertyOp32
 70
     1
  0
XRECORD
  5
AD
102
{ACAD_REACTORS
330
AC
102
}
330
AC
100
AcDbXrecord
280
     1
102
RTVSPropertyOp0
 70
     1
102
RTVSPropertyOp1
 70
     1
102
RTVSPropertyOp2
 70
     1
102
RTVSPropertyOp3
 70
     1
102
RTVSPropertyOp4
 70
     1
102
RTVSPropertyOp5
 70
     1
102
RTVSPropertyOp6
 70
     1
102
RTVSPropertyOp7
 70
     1
102
RTVSPropertyOp8
 70
     1
102
RTVSPropertyOp9
 70
     1
102
RTVSPropertyOp10
 70
     1
102
RTVSPropertyOp11
 70
     1
102
RTVSPropertyOp12
 70
     1
102
RTVSPropertyOp13
 70
     1
102
RTVSPropertyOp14
 70
     1
102
RTVSPropertyOp15
 70
     1
102
RTVSPropertyOp16
 70
     1
102
RTVSPropertyOp17
 70
     1
102
RTVSPropertyOp18
 70
     1
102
RTVSPropertyOp19
 70
     1
102
RTVSPropertyOp20
 70
     1
102
RTVSPropertyOp21
 70
     1
102
RTVSPropertyOp22
 70
     1
102
RTVSPropertyOp23
 70
     1
102
RTVSPropertyOp24
 70
     1
102
RTVSPropertyOp25
 70
     1
102
RTVSPropertyOp26
 70
     1
102
RTVSPropertyOp27
 70
     1
102
RTVSPropertyOp28
 70
     1
102
RTVSPropertyOp29
 70
     1
102
RTVSPropertyOp30
 70
     1
102
RTVSPropertyOp31
 70
     1
102
RTVSPropertyOp32
 70
     1
  0
XRECORD
  5
A3
102
{ACAD_REACTORS
330
A2
102
}
330
A2
100
AcDbXrecord
280
     1
102
RTVSPropertyOp0
 70
     1
102
RTVSPropertyOp1
 70
     1
102
RTVSPropertyOp2
 70
     1
102
RTVSPropertyOp3
 70
     1
102
RTVSPropertyOp4
 70
     1
102
RTVSPropertyOp5
 70
     1
102
RTVSPropertyOp6
 70
     1
102
RTVSPropertyOp7
 70
     1
102
RTVSPropertyOp8
 70
     1
102
RTVSPropertyOp9
 70
     1
102
RTVSPropertyOp10
 70
     1
102
RTVSPropertyOp11
 70
     1
102
RTVSPropertyOp12
 70
     1
102
RTVSPropertyOp13
 70
     1
102
RTVSPropertyOp14
 70
     1
102
RTVSPropertyOp15
 70
     1
102
RTVSPropertyOp16
 70
     1
102
RTVSPropertyOp17
 70
     1
102
RTVSPropertyOp18
 70
     1
102
RTVSPropertyOp19
 70
     1
102
RTVSPropertyOp20
 70
     1
102
RTVSPropertyOp21
 70
     1
102
RTVSPropertyOp22
 70
     1
102
RTVSPropertyOp23
 70
     1
102
RTVSPropertyOp24
 70
     1
102
RTVSPropertyOp25
 70
     1
102
RTVSPropertyOp26
 70
     1
102
RTVSPropertyOp27
 70
     1
102
RTVSPropertyOp28
 70
     1
102
RTVSPropertyOp29
 70
     1
102
RTVSPropertyOp30
 70
     1
102
RTVSPropertyOp31
 70
     1
102
RTVSPropertyOp32
 70
     1
  0
XRECORD
  5
AB
102
{ACAD_REACTORS
330
AA
102
}
330
AA
100
AcDbXrecord
280
     1
102
RTVSPropertyOp0
 70
     1
102
RTVSPropertyOp1
 70
     1
102
RTVSPropertyOp2
 70
     1
102
RTVSPropertyOp3
 70
     1
102
RTVSPropertyOp4
 70
     1
102
RTVSPropertyOp5
 70
     1
102
RTVSPropertyOp6
 70
     1
102
RTVSPropertyOp7
 70
     1
102
RTVSPropertyOp8
 70
     1
102
RTVSPropertyOp9
 70
     1
102
RTVSPropertyOp10
 70
     1
102
RTVSPropertyOp11
 70
     1
102
RTVSPropertyOp12
 70
     1
102
RTVSPropertyOp13
 70
     1
102
RTVSPropertyOp14
 70
     1
102
RTVSPropertyOp15
 70
     1
102
RTVSPropertyOp16
 70
     1
102
RTVSPropertyOp17
 70
     1
102
RTVSPropertyOp18
 70
     1
102
RTVSPropertyOp19
 70
     1
102
RTVSPropertyOp20
 70
     1
102
RTVSPropertyOp21
 70
     1
102
RTVSPropertyOp22
 70
     1
102
RTVSPropertyOp23
 70
     1
102
RTVSPropertyOp24
 70
     1
102
RTVSPropertyOp25
 70
     1
102
RTVSPropertyOp26
 70
     1
102
RTVSPropertyOp27
 70
     1
102
RTVSPropertyOp28
 70
     1
102
RTVSPropertyOp29
 70
     1
102
RTVSPropertyOp30
 70
     1
102
RTVSPropertyOp31
 70
     1
102
RTVSPropertyOp32
 70
     1
  0
ENDSEC
  0
EOF
