  0
SECTION
  2
HEADER
  9
$ACADVER
  1
AC1015
  9
$ACADMAINTVER
 70
     6
  9
$DWGCODEPAGE
  3
DOS850
  9
$INSBASE
 10
0.0
 20
0.0
 30
0.0
  9
$EXTMIN
 10
-5.24865
 20
-4.9688
 30
1.000000E+20
  9
$EXTMAX
 10
5.25422
 20
4.96112
 30
-1.000000E+20
  9
$LIMMIN
 10
0.0
 20
0.0
  9
$LIMMAX
 10
0.0
 20
0.0
  9
$ORTHOMODE
 70
     0
  9
$REGENMODE
 70
     1
  9
$FILLMODE
 70
     1
  9
$QTEXTMODE
 70
     0
  9
$MIRRTEXT
 70
     1
  9
$LTSCALE
 40
1.0
  9
$ATTMODE
 70
     1
  9
$TEXTSIZE
 40
0.2
  9
$TRACEWID
 40
0.05
  9
$TEXTSTYLE
  7
Standard
  9
$CLAYER
  8
0
  9
$CELTYPE
  6
Continuous
  9
$CECOLOR
 62
   256
  9
$CELTSCALE
 40
1.0
  9
$DISPSILH
 70
     0
  9
$DIMSCALE
 40
1.0
  9
$DIMASZ
 40
0.18
  9
$DIMEXO
 40
0.0625
  9
$DIMDLI
 40
0.38
  9
$DIMRND
 40
0.0
  9
$DIMDLE
 40
0.0
  9
$DIMEXE
 40
0.18
  9
$DIMTP
 40
0.0
  9
$DIMTM
 40
0.0
  9
$DIMTXT
 40
0.18
  9
$DIMCEN
 40
0.09
  9
$DIMTSZ
 40
0.0
  9
$DIMTOL
 70
     0
  9
$DIMLIM
 70
     0
  9
$DIMTIH
 70
     1
  9
$DIMTOH
 70
     1
  9
$DIMSE1
 70
     0
  9
$DIMSE2
 70
     0
  9
$DIMTAD
 70
     0
  9
$DIMZIN
 70
     0
  9
$DIMBLK
  1

  9
$DIMASO
 70
     1
  9
$DIMSHO
 70
     1
  9
$DIMPOST
  1

  9
$DIMAPOST
  1

  9
$DIMALT
 70
     0
  9
$DIMALTD
 70
     2
  9
$DIMALTF
 40
25.4
  9
$DIMLFAC
 40
1.0
  9
$DIMTOFL
 70
     0
  9
$DIMTVP
 40
0.0
  9
$DIMTIX
 70
     0
  9
$DIMSOXD
 70
     0
  9
$DIMSAH
 70
     0
  9
$DIMBLK1
  1

  9
$DIMBLK2
  1

  9
$DIMSTYLE
  2
Standard
  9
$DIMCLRD
 70
     0
  9
$DIMCLRE
 70
     0
  9
$DIMCLRT
 70
     0
  9
$DIMTFAC
 40
1.0
  9
$DIMGAP
 40
0.09
  9
$DIMJUST
 70
     0
  9
$DIMSD1
 70
     0
  9
$DIMSD2
 70
     0
  9
$DIMTOLJ
 70
     1
  9
$DIMTZIN
 70
     0
  9
$DIMALTZ
 70
     0
  9
$DIMALTTZ
 70
     0
  9
$DIMUPT
 70
     0
  9
$DIMDEC
 70
     4
  9
$DIMTDEC
 70
     4
  9
$DIMALTU
 70
     2
  9
$DIMALTTD
 70
     2
  9
$DIMTXSTY
  7
Standard
  9
$DIMAUNIT
 70
     0
  9
$DIMADEC
 70
     0
  9
$DIMALTRND
 40
0.0
  9
$DIMAZIN
 70
     0
  9
$DIMDSEP
 70
     0
  9
$DIMATFIT
 70
     3
  9
$DIMFRAC
 70
     0
  9
$DIMLDRBLK
  1

  9
$DIMLUNIT
 70
     2
  9
$DIMLWD
 70
     0
  9
$DIMLWE
 70
     0
  9
$DIMTMOVE
 70
     0
  9
$LUNITS
 70
     2
  9
$LUPREC
 70
     4
  9
$SKETCHINC
 40
0.1
  9
$FILLETRAD
 40
0.0
  9
$AUNITS
 70
     0
  9
$AUPREC
 70
     0
  9
$MENU
  1
acad
  9
$ELEVATION
 40
0.0
  9
$PELEVATION
 40
0.0
  9
$THICKNESS
 40
0.0
  9
$LIMCHECK
 70
     0
  9
$CHAMFERA
 40
0.0
  9
$CHAMFERB
 40
0.0
  9
$CHAMFERC
 40
0.0
  9
$CHAMFERD
 40
0.0
  9
$SKPOLY
 70
     0
  9
$TDCREATE
 40
0.000000000
  9
$TDUCREATE
 40
0.000000000
  9
$TDUPDATE
 40
0.000000000
  9
$TDUUPDATE
 40
0.000000000
  9
$TDINDWG
 40
0.0000000000
  9
$TDUSRTIMER
 40
0.0000000000
  9
$USRTIMER
 70
     1
  9
$ANGBASE
 50
0.0
  9
$ANGDIR
 70
     0
  9
$PDMODE
 70
     0
  9
$PDSIZE
 40
0.0
  9
$PLINEWID
 40
0.0
  9
$SPLFRAME
 70
     0
  9
$SPLINETYPE
 70
     6
  9
$SPLINESEGS
 70
     8
  9
$HANDSEED
  5
3D
  9
$SURFTAB1
 70
     6
  9
$SURFTAB2
 70
     6
  9
$SURFTYPE
 70
     6
  9
$SURFU
 70
     6
  9
$SURFV
 70
     6
  9
$UCSBASE
  2

  9
$UCSNAME
  2

  9
$UCSORG
 10
0.0
 20
0.0
 30
0.0
  9
$UCSXDIR
 10
1.0
 20
0.0
 30
0.0
  9
$UCSYDIR
 10
0.0
 20
1.0
 30
0.0
  9
$UCSORTHOREF
  2

  9
$UCSORTHOVIEW
 70
     0
  9
$UCSORGTOP
 10
0.0
 20
0.0
 30
0.0
  9
$UCSORGBOTTOM
 10
0.0
 20
0.0
 30
0.0
  9
$UCSORGLEFT
 10
0.0
 20
0.0
 30
0.0
  9
$UCSORGRIGHT
 10
0.0
 20
0.0
 30
0.0
  9
$UCSORGFRONT
 10
0.0
 20
0.0
 30
0.0
  9
$UCSORGBACK
 10
0.0
 20
0.0
 30
0.0
  9
$PUCSBASE
  2

  9
$PUCSNAME
  2

  9
$PUCSORG
 10
0.0
 20
0.0
 30
0.0
  9
$PUCSXDIR
 10
1.0
 20
0.0
 30
0.0
  9
$PUCSYDIR
 10
0.0
 20
1.0
 30
0.0
  9
$PUCSORTHOREF
  2

  9
$PUCSORTHOVIEW
 70
     0
  9
$PUCSORGTOP
 10
0.0
 20
0.0
 30
0.0
  9
$PUCSORGBOTTOM
 10
0.0
 20
0.0
 30
0.0
  9
$PUCSORGLEFT
 10
0.0
 20
0.0
 30
0.0
  9
$PUCSORGRIGHT
 10
0.0
 20
0.0
 30
0.0
  9
$PUCSORGFRONT
 10
0.0
 20
0.0
 30
0.0
  9
$PUCSORGBACK
 10
0.0
 20
0.0
 30
0.0
  9
$USERI1
 70
     0
  9
$USERI2
 70
     0
  9
$USERI3
 70
     0
  9
$USERI4
 70
     0
  9
$USERI5
 70
     0
  9
$USERR1
 40
0.0
  9
$USERR2
 40
0.0
  9
$USERR3
 40
0.0
  9
$USERR4
 40
0.0
  9
$USERR5
 40
0.0
  9
$WORLDVIEW
 70
     1
  9
$SHADEDGE
 70
     3
  9
$SHADEDIF
 70
    70
  9
$TILEMODE
 70
     1
  9
$MAXACTVP
 70
    16
  9
$PINSBASE
 10
0.0
 20
0.0
 30
0.0
  9
$PLIMCHECK
 70
     0
  9
$PEXTMIN
 10
1.000000E+20
 20
1.000000E+20
 30
1.000000E+20
  9
$PEXTMAX
 10
-1.000000E+20
 20
-1.000000E+20
 30
-1.000000E+20
  9
$PLIMMIN
 10
0.0
 20
0.0
  9
$PLIMMAX
 10
12.0
 20
9.0
  9
$UNITMODE
 70
     0
  9
$VISRETAIN
 70
     0
  9
$PLINEGEN
 70
     1
  9
$PSLTSCALE
 70
     0
  9
$TREEDEPTH
 70
  3020
  9
$CMLSTYLE
  2
Standard
  9
$CMLJUST
 70
     0
  9
$CMLSCALE
 40
1.0
  9
$PROXYGRAPHICS
 70
     0
  9
$MEASUREMENT
 70
     0
  9
$CELWEIGHT
370
     0
  9
$ENDCAPS
280
     0
  9
$JOINSTYLE
280
     0
  9
$LWDISPLAY
290
     0
  9
$INSUNITS
 70
     5
  9
$HYPERLINKBASE
  1

  9
$XEDIT
290
     1
  9
$CEPSNTYPE
380
     0
  9
$PSTYLEMODE
290
     1
  9
$FINGERPRINTGUID
  2

  9
$VERSIONGUID
  2

  9
$EXTNAMES
290
     1
  9
$PSVPSCALE
 40
0.0
  0
ENDSEC
  0
SECTION
  2
CLASSES
  0
CLASS
  1
LWPOLYLINE
  2
AcDbPolyline
  3
AutoCAD 2000
 90
    32768
280
     0
281
     1
  0
CLASS
  1
IMAGE
  2
AcDbRasterImage
  3
ISM
 90
    32895
280
     0
281
     1
  0
CLASS
  1
OLE2FRAME
  2
AcDbOle2Frame
  3
AutoCAD 2000
 90
    32768
280
     0
281
     1
  0
CLASS
  1
HATCH
  2
AcDbHatch
  3
AutoCAD 2000
 90
    32768
280
     0
281
     1
  0
CLASS
  1
DICTIONARYVAR
  2
AcDbDictionaryVar
  3
AutoCAD 2000
 90
    32768
280
     0
281
     0
  0
CLASS
  1
RASTERVARIABLES
  2
AcDbRasterVariables
  3
ISM
 90
    32768
280
     0
281
     0
  0
CLASS
  1
IMAGEDEF
  2
AcDbRasterImageDef
  3
ISM
 90
    32768
280
     0
281
     0
  0
CLASS
  1
IMAGEDEF_REACTOR
  2
AcDbRasterImageDefReactor
  3
ISM
 90
    32769
280
     0
281
     0
  0
CLASS
  1
IDBUFFER
  2
AcDbIdBuffer
  3
AutoCAD 2000
 90
    32768
280
     0
281
     0
  0
CLASS
  1
SPATIAL_FILTER
  2
AcDbSpatialFilter
  3
AutoCAD 2000
 90
    32768
280
     0
281
     0
  0
CLASS
  1
XRECORD
  2
AcDbXrecord
  3
AutoCAD 2000
 90
    32768
280
     0
281
     0
  0
CLASS
  1
SORTENTSTABLE
  2
AcDbSortentsTable
  3
AutoCAD 2000
 90
    32768
280
     0
281
     0
  0
CLASS
  1
LAYER_INDEX
  2
AcDbLayerIndex
  3
AutoCAD 2000
 90
    32768
280
     0
281
     0
  0
CLASS
  1
SPATIAL_INDEX
  2
AcDbSpatialIndex
  3
AutoCAD 2000
 90
    32768
280
     0
281
     0
  0
CLASS
  1
OBJECT_PTR
  2
CAseDLPNTableRecord
  3
"ASE-LPNTableRecord"
 90
    32769
280
     0
281
     0
  0
CLASS
  1
LAYOUT
  2
AcDbLayout
  3
AutoCAD 2000
 90
        0
280
     0
281
     0
  0
CLASS
  1
PLOTSETTINGS
  2
AcDbPlotSettings
  3
AutoCAD 2000
 90
    32768
280
     0
281
     0
  0
CLASS
  1
ACDBDICTIONARYWDFLT
  2
AcDbDictionaryWithDefault
  3
AutoCAD 2000
 90
        0
280
     0
281
     0
  0
CLASS
  1
ACDBPLACEHOLDER
  2
AcDbPlaceHolder
  3
AutoCAD 2000
 90
        0
280
     0
281
     0
  0
CLASS
  1
VBA_PROJECT
  2
AcDbVbaProject
  3
acadvba
 90
    32768
280
     0
281
     0
  0
CLASS
  1
WIPEOUT
  2
AcDbWipeout
  3
WipeOut|AutoCAD Express Tool|expresstools@autodesk.com
 90
    32895
280
     0
281
     1
  0
CLASS
  1
WIPEOUTVARIABLES
  2
AcDbWipeoutVariables
  3
WipeOut|AutoCAD Express Tool|expresstools@autodesk.com
 90
        0
280
     0
281
     0
  0
CLASS
  1
RTEXT
  2
RText
  3
RText|AutoCAD Express Tool|expresstools@autodesk.com
 90
    32768
280
     0
281
     1
  0
CLASS
  1
ARCALIGNEDTEXT
  2
AcDbArcAlignedText
  3
ATEXT|AutoCAD Express Tool|expresstools@autodesk.com
 90
    32768
280
     0
281
     1
  0
ENDSEC
  0
SECTION
  2
TABLES
  0
TABLE
  2
VPORT
  5
7
100
AcDbSymbolTable
 70
     1
  0
VPORT
  5
15
100
AcDbSymbolTableRecord
100
AcDbViewportTableRecord
  2
*ACTIVE
 70
     0
 10
0.0
 20
0.0
 11
1.0
 21
1.0
 12
6.591288
 22
4.579184
 13
0.0
 23
0.0
 14
1.0
 24
1.0
 15
0.0
 25
0.0
 16
0.0
 26
0.0
 36
1.0
 17
0.0
 27
0.0
 37
0.0
 40
9.158369
 41
0.688564
 42
50.0
 43
0.0
 44
0.0
 50
0.0
 51
0.0
 71
     0
 72
   100
 73
     1
 74
     1
 75
     0
 76
     0
 77
     0
 78
     0
281
     0
 65
     0
110
0.0
120
0.0
130
0.0
111
1.0
121
0.0
131
0.0
112
0.0
122
1.0
132
0.0
345
0
346
0
 79
     0
146
0.0
  0
ENDTAB
  0
TABLE
  2
LTYPE
  5
4
100
AcDbSymbolTable
 70
     3
  0
LTYPE
  5
11
100
AcDbSymbolTableRecord
100
AcDbLinetypeTableRecord
  2
ByBlock
 70
    64
  3

 72
    65
 73
     0
 40
0.0
  0
LTYPE
  5
12
100
AcDbSymbolTableRecord
100
AcDbLinetypeTableRecord
  2
ByLayer
 70
    64
  3

 72
    65
 73
     0
 40
0.0
  0
LTYPE
  5
13
100
AcDbSymbolTableRecord
100
AcDbLinetypeTableRecord
  2
Continuous
 70
    64
  3
Solid line
 72
    65
 73
     0
 40
0.0
  0
ENDTAB
  0
TABLE
  2
LAYER
  5
2
100
AcDbSymbolTable
 70
     2
  0
LAYER
  5
14
100
AcDbSymbolTableRecord
100
AcDbLayerTableRecord
  2
0
 70
     0
 62
     7
  6
Continuous
290
     1
370
    -3
390
1D
  0
LAYER
  5
24
100
AcDbSymbolTableRecord
100
AcDbLayerTableRecord
  2
Ebene 1
 70
     0
 62
     7
  6
Continuous
290
     1
370
    -3
390
1F
  0
ENDTAB
  0
TABLE
  2
STYLE
  5
3
100
AcDbSymbolTable
 70
     1
  0
STYLE
  5
17
100
AcDbSymbolTableRecord
100
AcDbTextStyleTableRecord
  2
Standard
 70
     0
 40
0.0
 41
1.0
 50
0.0
 71
     0
 42
0.0
  3
txt
  4

  0
ENDTAB
  0
TABLE
  2
VIEW
  5
5
100
AcDbSymbolTable
 70
     0
  0
ENDTAB
  0
TABLE
  2
UCS
  5
6
100
AcDbSymbolTable
 70
     0
  0
ENDTAB
  0
TABLE
  2
APPID
  5
8
100
AcDbSymbolTable
 70
     1
  0
APPID
  5
16
100
AcDbSymbolTableRecord
100
AcDbRegAppTableRecord
  2
ACAD
 70
     0
  0
ENDTAB
  0
TABLE
  2
DIMSTYLE
  5
9
100
AcDbSymbolTable
 70
     1
100
AcDbDimStyleTable
 71
     0
  0
DIMSTYLE
105
18
100
AcDbSymbolTableRecord
100
AcDbDimStyleTableRecord
  2
Standard
 70
     0
  3

  4

 40
1.0
 41
0.18
 42
0.0625
 43
0.38
 44
0.18
 45
0.0
 46
0.0
 47
0.0
 48
0.0
 71
     0
 72
     0
 73
     1
 74
     1
 75
     0
 76
     0
 77
     0
 78
     0
 79
     0
140
0.18
141
0.09
142
0.0
143
25.4
144
1.0
145
0.0
146
1.0
147
0.09
148
0.0
170
     0
171
     2
172
     0
173
     0
174
     0
175
     0
176
     0
177
     0
178
     0
179
     0
271
     4
272
     4
273
     2
274
     2
275
     0
276
     0
277
     2
278
    46
279
     0
280
     0
281
     0
282
     0
283
     1
284
     0
285
     0
286
     0
288
     0
340
17
341
0
342
0
343
0
344
0
371
    -2
372
    -2
  0
ENDTAB
  0
TABLE
  2
BLOCK_RECORD
  5
1
100
AcDbSymbolTable
 70
     0
  0
BLOCK_RECORD
  5
A
100
AcDbSymbolTableRecord
100
AcDbBlockTableRecord
  2
*MODEL_SPACE
340
20
  0
BLOCK_RECORD
  5
B
100
AcDbSymbolTableRecord
100
AcDbBlockTableRecord
  2
*PAPER_SPACE
340
21
  0
ENDTAB
  0
ENDSEC
  0
SECTION
  2
BLOCKS
  0
BLOCK
  5
D
100
AcDbEntity
  8
0
100
AcDbBlockBegin
  2
*MODEL_SPACE
 70
     0
 10
0.0
 20
0.0
 30
0.0
  3
*MODEL_SPACE
  1

  0
ENDBLK
  5
E
100
AcDbEntity
  8
0
100
AcDbBlockEnd
  0
BLOCK
  5
F
100
AcDbEntity
 67
     1
  8
0
100
AcDbBlockBegin
  2
*PAPER_SPACE
 70
     0
 10
0.0
 20
0.0
 30
0.0
  3
*PAPER_SPACE
  1

  0
ENDBLK
  5
10
100
AcDbEntity
 67
     1
  8
0
100
AcDbBlockEnd
  0
ENDSEC
  0
SECTION
  2
ENTITIES
  0
SPLINE
  5
25
100
AcDbEntity
  8
Ebene 1
100
AcDbSpline
210
0.0
220
0.0
230
1.0
 70
     1
 71
     3
 72
   116
 73
   112
 74
     0
 42
0.0000000001
 43
0.0000000001
 40
0.0
 40
0.0
 40
0.0
 40
0.0
 40
0.0357142857142857
 40
0.0357142857142857
 40
0.0357142857142857
 40
0.0357142857142857
 40
0.0714285714285714
 40
0.0714285714285714
 40
0.0714285714285714
 40
0.0714285714285714
 40
0.1071428571428571
 40
0.1071428571428571
 40
0.1071428571428571
 40
0.1071428571428571
 40
0.1428571428571429
 40
0.1428571428571429
 40
0.1428571428571429
 40
0.1428571428571429
 40
0.1785714285714286
 40
0.1785714285714286
 40
0.1785714285714286
 40
0.1785714285714286
 40
0.2142857142857143
 40
0.2142857142857143
 40
0.2142857142857143
 40
0.2142857142857143
 40
0.2499999999999999
 40
0.2499999999999999
 40
0.2499999999999999
 40
0.2499999999999999
 40
0.2857142857142856
 40
0.2857142857142856
 40
0.2857142857142856
 40
0.2857142857142856
 40
0.3214285714285713
 40
0.3214285714285713
 40
0.3214285714285713
 40
0.3214285714285713
 40
0.357142857142857
 40
0.357142857142857
 40
0.357142857142857
 40
0.357142857142857
 40
0.3928571428571427
 40
0.3928571428571427
 40
0.3928571428571427
 40
0.3928571428571427
 40
0.4285714285714284
 40
0.4285714285714284
 40
0.4285714285714284
 40
0.4285714285714284
 40
0.4642857142857141
 40
0.4642857142857141
 40
0.4642857142857141
 40
0.4642857142857141
 40
0.4999999999999998
 40
0.4999999999999998
 40
0.4999999999999998
 40
0.4999999999999998
 40
0.5357142857142856
 40
0.5357142857142856
 40
0.5357142857142856
 40
0.5357142857142856
 40
0.5714285714285713
 40
0.5714285714285713
 40
0.5714285714285713
 40
0.5714285714285713
 40
0.607142857142857
 40
0.607142857142857
 40
0.607142857142857
 40
0.607142857142857
 40
0.6428571428571427
 40
0.6428571428571427
 40
0.6428571428571427
 40
0.6428571428571427
 40
0.6785714285714284
 40
0.6785714285714284
 40
0.6785714285714284
 40
0.6785714285714284
 40
0.7142857142857141
 40
0.7142857142857141
 40
0.7142857142857141
 40
0.7142857142857141
 40
0.7499999999999998
 40
0.7499999999999998
 40
0.7499999999999998
 40
0.7499999999999998
 40
0.7857142857142855
 40
0.7857142857142855
 40
0.7857142857142855
 40
0.7857142857142855
 40
0.8214285714285712
 40
0.8214285714285712
 40
0.8214285714285712
 40
0.8214285714285712
 40
0.8571428571428569
 40
0.8571428571428569
 40
0.8571428571428569
 40
0.8571428571428569
 40
0.8928571428571426
 40
0.8928571428571426
 40
0.8928571428571426
 40
0.8928571428571426
 40
0.9285714285714283
 40
0.9285714285714283
 40
0.9285714285714283
 40
0.9285714285714283
 40
0.964285714285714
 40
0.964285714285714
 40
0.964285714285714
 40
0.964285714285714
 40
1.0
 40
1.0
 40
1.0
 40
1.0
 10
-1.2342900000000001
 20
4.9194100000000001
 30
0.0
 10
0.7545200000000001
 20
5.2191300000000007
 30
0.0
 10
2.4614000000000003
 20
3.8627700000000003
 30
0.0
 10
3.2513400000000003
 20
2.1558900000000003
 30
0.0
 10
3.2513400000000003
 20
2.1558900000000003
 30
0.0
 10
3.3453200000000001
 20
2.0746100000000003
 30
0.0
 10
3.5358200000000002
 20
2.0796900000000003
 30
0.0
 10
3.6145600000000004
 20
1.9831700000000001
 30
0.0
 10
3.6145600000000004
 20
1.9831700000000001
 30
0.0
 10
3.4266000000000001
 20
1.5107300000000001
 30
0.0
 10
3.9803200000000003
 20
1.0382900000000002
 30
0.0
 10
3.6171000000000002
 20
0.64205
 30
0.0
 10
3.6171000000000002
 20
0.64205
 30
0.0
 10
4.5645200000000008
 20
1.19577
 30
0.0
 10
4.5467400000000007
 20
-0.16566
 30
0.0
 10
4.2927400000000002
 20
-0.78034
 30
0.0
 10
4.2927400000000002
 20
-0.78034
 30
0.0
 10
4.6737400000000004
 20
-1.4915400000000001
 30
0.0
 10
5.3519200000000007
 20
-2.13924
 30
0.0
 10
5.2427000000000001
 20
-3.0257000000000001
 30
0.0
 10
5.2427000000000001
 20
-3.0257000000000001
 30
0.0
 10
4.9734600000000002
 20
-3.0079200000000004
 30
0.0
 10
4.7194600000000007
 20
-2.8656800000000002
 30
0.0
 10
4.4984800000000007
 20
-2.7717000000000001
 30
0.0
 10
4.4984800000000007
 20
-2.7717000000000001
 30
0.0
 10
4.4045000000000005
 20
-3.5133800000000002
 30
0.0
 10
3.7415600000000002
 20
-3.9553400000000005
 30
0.0
 10
3.1243400000000001
 20
-4.2398199999999999
 30
0.0
 10
3.1243400000000001
 20
-4.2398199999999999
 30
0.0
 10
3.1573600000000002
 20
-3.7521400000000003
 30
0.0
 10
3.1243400000000001
 20
-3.0409400000000004
 30
0.0
 10
2.9186000000000001
 20
-2.5024600000000001
 30
0.0
 10
2.9186000000000001
 20
-2.5024600000000001
 30
0.0
 10
2.2404200000000003
 20
-2.9622000000000002
 30
0.0
 10
1.1660000000000001
 20
-3.5464000000000002
 30
0.0
 10
0.34304
 20
-2.9291800000000001
 30
0.0
 10
0.34304
 20
-2.9291800000000001
 30
0.0
 10
0.01284
 20
-3.0409400000000004
 30
0.0
 10
-0.25385
 20
-3.0257000000000001
 30
0.0
 10
-0.5840500000000001
 20
-2.94442
 30
0.0
 10
-0.5840500000000001
 20
-2.94442
 30
0.0
 10
-0.75931
 20
-3.0561800000000003
 30
0.0
 10
-0.94981
 20
-3.0866600000000002
 30
0.0
 10
-1.1377700000000002
 20
-3.1349200000000002
 30
0.0
 10
-1.1377700000000002
 20
-3.1349200000000002
 30
0.0
 10
-1.04379
 20
-3.4829000000000003
 30
0.0
 10
-1.29525
 20
-4.1306000000000003
 30
0.0
 10
-1.6610100000000001
 20
-3.7521400000000003
 30
0.0
 10
-1.6610100000000001
 20
-3.7521400000000003
 30
0.0
 10
-1.8489700000000002
 20
-4.0823400000000003
 30
0.0
 10
-2.0064500000000001
 20
-4.2728400000000004
 30
0.0
 10
-2.2452100000000002
 20
-3.9248600000000002
 30
0.0
 10
-2.2452100000000002
 20
-3.9248600000000002
 30
0.0
 10
-2.3391900000000003
 20
-4.2398199999999999
 30
0.0
 10
-2.2452100000000002
 20
-4.7630600000000003
 30
0.0
 10
-2.65415
 20
-4.9688000000000008
 30
0.0
 10
-2.65415
 20
-4.9688000000000008
 30
0.0
 10
-2.57287
 20
-4.4938200000000004
 30
0.0
 10
-2.8522700000000003
 20
-4.01884
 30
0.0
 10
-3.1164300000000003
 20
-4.6665400000000004
 30
0.0
 10
-3.1164300000000003
 20
-4.6665400000000004
 30
0.0
 10
-3.2764500000000001
 20
-4.3211000000000004
 30
0.0
 10
-3.6701500000000005
 20
-4.3211000000000004
 30
0.0
 10
-3.7615900000000004
 20
-4.7478200000000008
 30
0.0
 10
-3.7615900000000004
 20
-4.7478200000000008
 30
0.0
 10
-3.8733500000000003
 20
-4.6665400000000004
 30
0.0
 10
-3.8708100000000005
 20
-4.4455600000000004
 30
0.0
 10
-4.0079700000000003
 20
-4.3515800000000002
 30
0.0
 10
-4.0079700000000003
 20
-4.3515800000000002
 30
0.0
 10
-4.10703
 20
-4.7630600000000003
 30
0.0
 10
-4.2391100000000002
 20
-4.6843200000000005
 30
0.0
 10
-4.4092900000000004
 20
-4.4150800000000006
 30
0.0
 10
-4.4092900000000004
 20
-4.4150800000000006
 30
0.0
 10
-4.4651700000000005
 20
-4.5420800000000003
 30
0.0
 10
-4.3229300000000004
 20
-4.7478200000000008
 30
0.0
 10
-4.4346900000000007
 20
-4.8087800000000005
 30
0.0
 10
-4.4346900000000007
 20
-4.8087800000000005
 30
0.0
 10
-4.72933
 20
-3.9883600000000001
 30
0.0
 10
-5.0722300000000002
 20
-2.9139400000000002
 30
0.0
 10
-4.6455100000000007
 20
-2.0909800000000001
 30
0.0
 10
-4.6455100000000007
 20
-2.0909800000000001
 30
0.0
 10
-4.85379
 20
-2.0122400000000003
 30
0.0
 10
-4.86395
 20
-1.7938000000000001
 30
0.0
 10
-4.8385500000000006
 20
-1.58806
 30
0.0
 10
-4.8385500000000006
 20
-1.58806
 30
0.0
 10
-5.5624500000000001
 20
-1.0140200000000001
 30
0.0
 10
-5.1738300000000006
 20
-0.48316
 30
0.0
 10
-4.8461700000000008
 20
0.3474100000000001
 30
0.0
 10
-4.8461700000000008
 20
0.3474100000000001
 30
0.0
 10
-4.7979100000000008
 20
0.46679
 30
0.0
 10
-5.0163500000000001
 20
0.5912500000000001
 30
0.0
 10
-5.0442900000000002
 20
0.72333
 30
0.0
 10
-5.0442900000000002
 20
0.72333
 30
0.0
 10
-5.07477
 20
0.8579500000000001
 30
0.0
 10
-5.0722300000000002
 20
1.0840100000000001
 30
0.0
 10
-5.0417500000000004
 20
1.19069
 30
0.0
 10
-5.0417500000000004
 20
1.19069
 30
0.0
 10
-5.0417500000000004
 20
1.19069
 30
0.0
 10
-4.5515300000000005
 20
1.9653900000000002
 30
0.0
 10
-4.5515300000000005
 20
1.9653900000000002
 30
0.0
 10
-4.5515300000000005
 20
1.9653900000000002
 30
0.0
 10
-4.7318700000000007
 20
2.2016100000000001
 30
0.0
 10
-4.6963100000000004
 20
2.4556100000000001
 30
0.0
 10
-4.4880300000000002
 20
2.7248500000000004
 30
0.0
 10
-4.4880300000000002
 20
2.7248500000000004
 30
0.0
 10
-4.4524699999999999
 20
2.9128100000000003
 30
0.0
 10
-4.4346900000000007
 20
3.0702900000000004
 30
0.0
 10
-4.51851
 20
3.2303100000000002
 30
0.0
 10
-4.51851
 20
3.2303100000000002
 30
0.0
 10
-3.8327100000000005
 20
4.38347
 30
0.0
 10
-2.4661900000000001
 20
4.7924100000000003
 30
0.0
 10
-1.2342900000000001
 20
4.9194100000000001
 30
0.0
  0
SPLINE
  5
26
100
AcDbEntity
  8
Ebene 1
 62
     7
100
AcDbSpline
210
0.0
220
0.0
230
1.0
 70
     1
 71
     3
 72
    28
 73
    24
 74
     0
 42
0.0000000001
 43
0.0000000001
 40
0.0
 40
0.0
 40
0.0
 40
0.0
 40
0.1666666666666667
 40
0.1666666666666667
 40
0.1666666666666667
 40
0.1666666666666667
 40
0.3333333333333333
 40
0.3333333333333333
 40
0.3333333333333333
 40
0.3333333333333333
 40
0.5
 40
0.5
 40
0.5
 40
0.5
 40
0.6666666666666666
 40
0.6666666666666666
 40
0.6666666666666666
 40
0.6666666666666666
 40
0.8333333333333333
 40
0.8333333333333333
 40
0.8333333333333333
 40
0.8333333333333333
 40
1.0
 40
1.0
 40
1.0
 40
1.0
 10
-1.0742700000000001
 20
4.8889300000000002
 30
0.0
 10
-0.11161
 20
4.8736900000000007
 30
0.0
 10
0.9602600000000001
 20
4.7771700000000008
 30
0.0
 10
1.6409800000000001
 20
4.0507300000000006
 30
0.0
 10
1.6409800000000001
 20
4.0507300000000006
 30
0.0
 10
2.16168
 20
3.5300300000000004
 30
0.0
 10
2.6671400000000003
 20
2.9610700000000003
 30
0.0
 10
2.9033600000000002
 20
2.2828900000000001
 30
0.0
 10
2.9033600000000002
 20
2.2828900000000001
 30
0.0
 10
2.5706200000000003
 20
2.1863700000000001
 30
0.0
 10
2.1921600000000003
 20
2.4073500000000001
 30
0.0
 10
1.8594200000000001
 20
2.47085
 30
0.0
 10
1.8594200000000001
 20
2.47085
 30
0.0
 10
0.29732
 20
3.6875100000000005
 30
0.0
 10
-1.7854700000000001
 20
3.9237300000000004
 30
0.0
 10
-3.7082500000000005
 20
3.7967300000000002
 30
0.0
 10
-3.7082500000000005
 20
3.7967300000000002
 30
0.0
 10
-3.5329900000000003
 20
4.0507300000000006
 30
0.0
 10
-3.2942300000000002
 20
4.2564700000000002
 30
0.0
 10
-3.0351500000000002
 20
4.3987100000000003
 30
0.0
 10
-3.0351500000000002
 20
4.3987100000000003
 30
0.0
 10
-2.4331700000000001
 20
4.7136700000000005
 30
0.0
 10
-1.7372100000000001
 20
4.7924100000000003
 30
0.0
 10
-1.0742700000000001
 20
4.8889300000000002
 30
0.0
  0
SPLINE
  5
27
100
AcDbEntity
  8
Ebene 1
 62
     7
100
AcDbSpline
210
0.0
220
0.0
230
1.0
 70
     1
 71
     3
 72
    48
 73
    44
 74
     0
 42
0.0000000001
 43
0.0000000001
 40
0.0
 40
0.0
 40
0.0
 40
0.0
 40
0.0909090909090909
 40
0.0909090909090909
 40
0.0909090909090909
 40
0.0909090909090909
 40
0.1818181818181818
 40
0.1818181818181818
 40
0.1818181818181818
 40
0.1818181818181818
 40
0.2727272727272727
 40
0.2727272727272727
 40
0.2727272727272727
 40
0.2727272727272727
 40
0.3636363636363637
 40
0.3636363636363637
 40
0.3636363636363637
 40
0.3636363636363637
 40
0.4545454545454546
 40
0.4545454545454546
 40
0.4545454545454546
 40
0.4545454545454546
 40
0.5454545454545455
 40
0.5454545454545455
 40
0.5454545454545455
 40
0.5454545454545455
 40
0.6363636363636365
 40
0.6363636363636365
 40
0.6363636363636365
 40
0.6363636363636365
 40
0.7272727272727274
 40
0.7272727272727274
 40
0.7272727272727274
 40
0.7272727272727274
 40
0.8181818181818183
 40
0.8181818181818183
 40
0.8181818181818183
 40
0.8181818181818183
 40
0.9090909090909093
 40
0.9090909090909093
 40
0.9090909090909093
 40
0.9090909090909093
 40
1.0
 40
1.0
 40
1.0
 40
1.0
 10
-2.4966700000000004
 20
3.7662500000000003
 30
0.0
 10
-1.3435100000000002
 20
3.7205300000000001
 30
0.0
 10
-0.22083
 20
3.5782900000000004
 30
0.0
 10
0.78754
 20
3.0702900000000004
 30
0.0
 10
0.78754
 20
3.0702900000000004
 30
0.0
 10
1.6079600000000001
 20
2.5343500000000003
 30
0.0
 10
2.4461600000000003
 20
1.9984100000000002
 30
0.0
 10
3.4570800000000004
 20
1.9501500000000001
 30
0.0
 10
3.4570800000000004
 20
1.9501500000000001
 30
0.0
 10
3.4570800000000004
 20
1.9501500000000001
 30
0.0
 10
3.5205800000000003
 20
1.8079100000000001
 30
0.0
 10
3.5205800000000003
 20
1.8079100000000001
 30
0.0
 10
3.5205800000000003
 20
1.8079100000000001
 30
0.0
 10
3.2513400000000003
 20
1.5539100000000001
 30
0.0
 10
3.6628200000000004
 20
1.1271900000000001
 30
0.0
 10
3.5993200000000001
 20
0.8427100000000001
 30
0.0
 10
3.5993200000000001
 20
0.8427100000000001
 30
0.0
 10
1.4174600000000002
 20
1.06369
 30
0.0
 10
-0.34783
 20
2.7400900000000004
 30
0.0
 10
-2.6719300000000001
 20
2.4556100000000001
 30
0.0
 10
-2.6719300000000001
 20
2.4556100000000001
 30
0.0
 10
-3.1062700000000003
 20
2.5013300000000003
 30
0.0
 10
-3.5380700000000003
 20
2.4073500000000001
 30
0.0
 10
-3.9673300000000005
 20
2.3768700000000003
 30
0.0
 10
-3.9673300000000005
 20
2.3768700000000003
 30
0.0
 10
-4.1705300000000003
 20
2.3768700000000003
 30
0.0
 10
-4.3838900000000001
 20
2.2651100000000004
 30
0.0
 10
-4.5769299999999999
 20
2.29813
 30
0.0
 10
-4.5769299999999999
 20
2.29813
 30
0.0
 10
-4.5616900000000005
 20
2.5648300000000002
 30
0.0
 10
-4.2162500000000005
 20
2.5191100000000004
 30
0.0
 10
-4.0282900000000001
 20
2.5648300000000002
 30
0.0
 10
-4.0282900000000001
 20
2.5648300000000002
 30
0.0
 10
-3.7565100000000005
 20
2.6435700000000004
 30
0.0
 10
-4.3381700000000007
 20
2.5648300000000002
 30
0.0
 10
-4.4346900000000007
 20
2.67659
 30
0.0
 10
-4.4346900000000007
 20
2.67659
 30
0.0
 10
-4.3000700000000007
 20
2.8975700000000004
 30
0.0
 10
-4.5108900000000007
 20
3.1337900000000003
 30
0.0
 10
-4.40421
 20
3.3242900000000004
 30
0.0
 10
-4.40421
 20
3.3242900000000004
 30
0.0
 10
-3.8758900000000005
 20
3.7510100000000004
 30
0.0
 10
-3.1291300000000004
 20
3.6392500000000001
 30
0.0
 10
-2.4966700000000004
 20
3.7662500000000003
 30
0.0
  0
SPLINE
  5
28
100
AcDbEntity
  8
Ebene 1
100
AcDbSpline
210
0.0
220
0.0
230
1.0
 70
     1
 71
     3
 72
    28
 73
    24
 74
     0
 42
0.0000000001
 43
0.0000000001
 40
0.0
 40
0.0
 40
0.0
 40
0.0
 40
0.1666666666666667
 40
0.1666666666666667
 40
0.1666666666666667
 40
0.1666666666666667
 40
0.3333333333333333
 40
0.3333333333333333
 40
0.3333333333333333
 40
0.3333333333333333
 40
0.5
 40
0.5
 40
0.5
 40
0.5
 40
0.6666666666666666
 40
0.6666666666666666
 40
0.6666666666666666
 40
0.6666666666666666
 40
0.8333333333333333
 40
0.8333333333333333
 40
0.8333333333333333
 40
0.8333333333333333
 40
1.0
 40
1.0
 40
1.0
 40
1.0
 10
-0.08113
 20
3.2938100000000001
 30
0.0
 10
1.1660000000000001
 20
3.0093300000000003
 30
0.0
 10
2.0346800000000003
 20
1.82315
 30
0.0
 10
3.3453200000000001
 20
1.69615
 30
0.0
 10
3.3453200000000001
 20
1.69615
 30
0.0
 10
3.3453200000000001
 20
1.57169
 30
0.0
 10
3.1573600000000002
 20
1.6478900000000001
 30
0.0
 10
3.0938600000000003
 20
1.57169
 30
0.0
 10
3.0938600000000003
 20
1.57169
 30
0.0
 10
3.1573600000000002
 20
1.4599300000000002
 30
0.0
 10
3.3148400000000002
 20
1.3964300000000001
 30
0.0
 10
3.3148400000000002
 20
1.2541900000000001
 30
0.0
 10
3.3148400000000002
 20
1.2541900000000001
 30
0.0
 10
2.6036400000000004
 20
1.7901300000000002
 30
0.0
 10
1.7832200000000002
 20
2.2016100000000001
 30
0.0
 10
0.9297800000000001
 20
2.4556100000000001
 30
0.0
 10
0.9297800000000001
 20
2.4556100000000001
 30
0.0
 10
0.912
 20
2.5648300000000002
 30
0.0
 10
1.1329800000000001
 20
2.4403700000000002
 30
0.0
 10
1.2295
 20
2.4556100000000001
 30
0.0
 10
1.2295
 20
2.4556100000000001
 30
0.0
 10
0.9297800000000001
 20
2.9128100000000003
 30
0.0
 10
0.31256
 20
3.0398100000000001
 30
0.0
 10
-0.08113
 20
3.2938100000000001
 30
0.0
  0
SPLINE
  5
29
100
AcDbEntity
  8
Ebene 1
100
AcDbSpline
210
0.0
220
0.0
230
1.0
 70
     1
 71
     3
 72
    48
 73
    44
 74
     0
 42
0.0000000001
 43
0.0000000001
 40
0.0
 40
0.0
 40
0.0
 40
0.0
 40
0.0909090909090909
 40
0.0909090909090909
 40
0.0909090909090909
 40
0.0909090909090909
 40
0.1818181818181818
 40
0.1818181818181818
 40
0.1818181818181818
 40
0.1818181818181818
 40
0.2727272727272727
 40
0.2727272727272727
 40
0.2727272727272727
 40
0.2727272727272727
 40
0.3636363636363637
 40
0.3636363636363637
 40
0.3636363636363637
 40
0.3636363636363637
 40
0.4545454545454546
 40
0.4545454545454546
 40
0.4545454545454546
 40
0.4545454545454546
 40
0.5454545454545455
 40
0.5454545454545455
 40
0.5454545454545455
 40
0.5454545454545455
 40
0.6363636363636365
 40
0.6363636363636365
 40
0.6363636363636365
 40
0.6363636363636365
 40
0.7272727272727274
 40
0.7272727272727274
 40
0.7272727272727274
 40
0.7272727272727274
 40
0.8181818181818183
 40
0.8181818181818183
 40
0.8181818181818183
 40
0.8181818181818183
 40
0.9090909090909093
 40
0.9090909090909093
 40
0.9090909090909093
 40
0.9090909090909093
 40
1.0
 40
1.0
 40
1.0
 40
1.0
 10
-1.37653
 20
3.1185500000000004
 30
0.0
 10
-1.37653
 20
3.1185500000000004
 30
0.0
 10
-1.2012700000000001
 20
3.1185500000000004
 30
0.0
 10
-1.2012700000000001
 20
3.1185500000000004
 30
0.0
 10
-1.2012700000000001
 20
3.1185500000000004
 30
0.0
 10
-1.1860300000000001
 20
3.0398100000000001
 30
0.0
 10
-1.29525
 20
3.0398100000000001
 30
0.0
 10
-1.3130300000000001
 20
2.9763100000000002
 30
0.0
 10
-1.3130300000000001
 20
2.9763100000000002
 30
0.0
 10
-1.3130300000000001
 20
2.9763100000000002
 30
0.0
 10
-0.6653300000000001
 20
3.0245700000000002
 30
0.0
 10
-0.6653300000000001
 20
3.0245700000000002
 30
0.0
 10
-0.6653300000000001
 20
3.0245700000000002
 30
0.0
 10
-0.47483
 20
2.9915500000000002
 30
0.0
 10
-0.69581
 20
2.8493100000000005
 30
0.0
 10
-0.74407
 20
2.7705700000000002
 30
0.0
 10
-0.74407
 20
2.7705700000000002
 30
0.0
 10
-0.74407
 20
2.7705700000000002
 30
0.0
 10
-0.3325900000000001
 20
2.6283300000000001
 30
0.0
 10
-0.3325900000000001
 20
2.6283300000000001
 30
0.0
 10
-0.3325900000000001
 20
2.6283300000000001
 30
0.0
 10
-0.3325900000000001
 20
2.6283300000000001
 30
0.0
 10
0.05856
 20
2.5343500000000003
 30
0.0
 10
0.05856
 20
2.5343500000000003
 30
0.0
 10
0.05856
 20
2.5343500000000003
 30
0.0
 10
-0.3960900000000001
 20
2.5495900000000002
 30
0.0
 10
-0.86853
 20
2.7070700000000003
 30
0.0
 10
-1.3587500000000001
 20
2.7248500000000004
 30
0.0
 10
-1.3587500000000001
 20
2.7248500000000004
 30
0.0
 10
-1.4070100000000001
 20
2.8035900000000002
 30
0.0
 10
-1.2165100000000002
 20
2.7858100000000001
 30
0.0
 10
-1.29525
 20
2.8340700000000001
 30
0.0
 10
-1.29525
 20
2.8340700000000001
 30
0.0
 10
-2.3061700000000003
 20
2.8493100000000005
 30
0.0
 10
-3.1316700000000002
 20
2.6130900000000001
 30
0.0
 10
-4.0460700000000003
 20
2.7070700000000003
 30
0.0
 10
-4.0460700000000003
 20
2.7070700000000003
 30
0.0
 10
-3.7209500000000002
 20
2.8670900000000001
 30
0.0
 10
-3.2002500000000005
 20
2.7553300000000003
 30
0.0
 10
-2.8090900000000003
 20
2.8493100000000005
 30
0.0
 10
-2.8090900000000003
 20
2.8493100000000005
 30
0.0
 10
-2.3239500000000004
 20
2.8823300000000001
 30
0.0
 10
-1.8337300000000001
 20
2.9915500000000002
 30
0.0
 10
-1.37653
 20
3.1185500000000004
 30
0.0
  0
SPLINE
  5
2A
100
AcDbEntity
  8
Ebene 1
 62
     7
100
AcDbSpline
210
0.0
220
0.0
230
1.0
 70
     1
 71
     3
 72
   176
 73
   172
 74
     0
 42
0.0000000001
 43
0.0000000001
 40
0.0
 40
0.0
 40
0.0
 40
0.0
 40
0.0232558139534884
 40
0.0232558139534884
 40
0.0232558139534884
 40
0.0232558139534884
 40
0.0465116279069767
 40
0.0465116279069767
 40
0.0465116279069767
 40
0.0465116279069767
 40
0.0697674418604651
 40
0.0697674418604651
 40
0.0697674418604651
 40
0.0697674418604651
 40
0.0930232558139535
 40
0.0930232558139535
 40
0.0930232558139535
 40
0.0930232558139535
 40
0.1162790697674419
 40
0.1162790697674419
 40
0.1162790697674419
 40
0.1162790697674419
 40
0.1395348837209302
 40
0.1395348837209302
 40
0.1395348837209302
 40
0.1395348837209302
 40
0.1627906976744186
 40
0.1627906976744186
 40
0.1627906976744186
 40
0.1627906976744186
 40
0.186046511627907
 40
0.186046511627907
 40
0.186046511627907
 40
0.186046511627907
 40
0.2093023255813953
 40
0.2093023255813953
 40
0.2093023255813953
 40
0.2093023255813953
 40
0.2325581395348837
 40
0.2325581395348837
 40
0.2325581395348837
 40
0.2325581395348837
 40
0.2558139534883721
 40
0.2558139534883721
 40
0.2558139534883721
 40
0.2558139534883721
 40
0.2790697674418604
 40
0.2790697674418604
 40
0.2790697674418604
 40
0.2790697674418604
 40
0.3023255813953488
 40
0.3023255813953488
 40
0.3023255813953488
 40
0.3023255813953488
 40
0.3255813953488371
 40
0.3255813953488371
 40
0.3255813953488371
 40
0.3255813953488371
 40
0.3488372093023255
 40
0.3488372093023255
 40
0.3488372093023255
 40
0.3488372093023255
 40
0.3720930232558138
 40
0.3720930232558138
 40
0.3720930232558138
 40
0.3720930232558138
 40
0.3953488372093022
 40
0.3953488372093022
 40
0.3953488372093022
 40
0.3953488372093022
 40
0.4186046511627906
 40
0.4186046511627906
 40
0.4186046511627906
 40
0.4186046511627906
 40
0.4418604651162789
 40
0.4418604651162789
 40
0.4418604651162789
 40
0.4418604651162789
 40
0.4651162790697673
 40
0.4651162790697673
 40
0.4651162790697673
 40
0.4651162790697673
 40
0.4883720930232556
 40
0.4883720930232556
 40
0.4883720930232556
 40
0.4883720930232556
 40
0.511627906976744
 40
0.511627906976744
 40
0.511627906976744
 40
0.511627906976744
 40
0.5348837209302324
 40
0.5348837209302324
 40
0.5348837209302324
 40
0.5348837209302324
 40
0.5581395348837208
 40
0.5581395348837208
 40
0.5581395348837208
 40
0.5581395348837208
 40
0.5813953488372092
 40
0.5813953488372092
 40
0.5813953488372092
 40
0.5813953488372092
 40
0.6046511627906976
 40
0.6046511627906976
 40
0.6046511627906976
 40
0.6046511627906976
 40
0.6279069767441861
 40
0.6279069767441861
 40
0.6279069767441861
 40
0.6279069767441861
 40
0.6511627906976745
 40
0.6511627906976745
 40
0.6511627906976745
 40
0.6511627906976745
 40
0.6744186046511629
 40
0.6744186046511629
 40
0.6744186046511629
 40
0.6744186046511629
 40
0.6976744186046513
 40
0.6976744186046513
 40
0.6976744186046513
 40
0.6976744186046513
 40
0.7209302325581397
 40
0.7209302325581397
 40
0.7209302325581397
 40
0.7209302325581397
 40
0.7441860465116281
 40
0.7441860465116281
 40
0.7441860465116281
 40
0.7441860465116281
 40
0.7674418604651165
 40
0.7674418604651165
 40
0.7674418604651165
 40
0.7674418604651165
 40
0.790697674418605
 40
0.790697674418605
 40
0.790697674418605
 40
0.790697674418605
 40
0.8139534883720934
 40
0.8139534883720934
 40
0.8139534883720934
 40
0.8139534883720934
 40
0.8372093023255818
 40
0.8372093023255818
 40
0.8372093023255818
 40
0.8372093023255818
 40
0.8604651162790702
 40
0.8604651162790702
 40
0.8604651162790702
 40
0.8604651162790702
 40
0.8837209302325586
 40
0.8837209302325586
 40
0.8837209302325586
 40
0.8837209302325586
 40
0.906976744186047
 40
0.906976744186047
 40
0.906976744186047
 40
0.906976744186047
 40
0.9302325581395354
 40
0.9302325581395354
 40
0.9302325581395354
 40
0.9302325581395354
 40
0.9534883720930238
 40
0.9534883720930238
 40
0.9534883720930238
 40
0.9534883720930238
 40
0.9767441860465123
 40
0.9767441860465123
 40
0.9767441860465123
 40
0.9767441860465123
 40
1.0
 40
1.0
 40
1.0
 40
1.0
 10
-1.4298700000000002
 20
-3.0206200000000001
 30
0.0
 10
-1.5263900000000001
 20
-3.0358600000000004
 30
0.0
 10
-1.6254500000000001
 20
-3.1044400000000003
 30
0.0
 10
-1.6762500000000002
 20
-3.1831800000000001
 30
0.0
 10
-1.6762500000000002
 20
-3.1831800000000001
 30
0.0
 10
-1.6762500000000002
 20
-3.1831800000000001
 30
0.0
 10
-1.7702300000000002
 20
-2.5354800000000002
 30
0.0
 10
-1.7702300000000002
 20
-2.5354800000000002
 30
0.0
 10
-1.7702300000000002
 20
-2.5354800000000002
 30
0.0
 10
-1.8337300000000001
 20
-2.81996
 30
0.0
 10
-1.6762500000000002
 20
-3.1349200000000002
 30
0.0
 10
-1.75499
 20
-3.4346400000000004
 30
0.0
 10
-1.75499
 20
-3.4346400000000004
 30
0.0
 10
-1.9454900000000002
 20
-3.0714200000000003
 30
0.0
 10
-2.1639300000000001
 20
-3.4676600000000004
 30
0.0
 10
-2.2452100000000002
 20
-3.6708600000000002
 30
0.0
 10
-2.2452100000000002
 20
-3.6708600000000002
 30
0.0
 10
-2.2452100000000002
 20
-3.6708600000000002
 30
0.0
 10
-2.2909300000000004
 20
-3.3101800000000003
 30
0.0
 10
-2.2909300000000004
 20
-3.3101800000000003
 30
0.0
 10
-2.2909300000000004
 20
-3.3101800000000003
 30
0.0
 10
-2.4331700000000001
 20
-3.0079200000000004
 30
0.0
 10
-2.1969500000000002
 20
-3.7673800000000002
 30
0.0
 10
-2.3239500000000004
 20
-3.9096200000000003
 30
0.0
 10
-2.3239500000000004
 20
-3.9096200000000003
 30
0.0
 10
-2.3391900000000003
 20
-3.6556200000000003
 30
0.0
 10
-2.61097
 20
-3.2136600000000004
 30
0.0
 10
-2.7506700000000004
 20
-3.6708600000000002
 30
0.0
 10
-2.7506700000000004
 20
-3.6708600000000002
 30
0.0
 10
-2.7506700000000004
 20
-3.6708600000000002
 30
0.0
 10
-2.85989
 20
-3.19842
 30
0.0
 10
-2.85989
 20
-3.19842
 30
0.0
 10
-2.85989
 20
-3.19842
 30
0.0
 10
-2.8802100000000004
 20
-3.3863800000000004
 30
0.0
 10
-2.7201900000000001
 20
-3.7038800000000003
 30
0.0
 10
-2.85989
 20
-3.9248600000000002
 30
0.0
 10
-2.85989
 20
-3.9248600000000002
 30
0.0
 10
-3.0021300000000002
 20
-3.7826200000000001
 30
0.0
 10
-2.9487900000000002
 20
-3.3254200000000003
 30
0.0
 10
-3.2561300000000002
 20
-3.4829000000000003
 30
0.0
 10
-3.2561300000000002
 20
-3.4829000000000003
 30
0.0
 10
-3.3196300000000001
 20
-3.9553400000000005
 30
0.0
 10
-3.4872700000000001
 20
-4.2398199999999999
 30
0.0
 10
-3.4288500000000002
 20
-3.5616400000000001
 30
0.0
 10
-3.4288500000000002
 20
-3.5616400000000001
 30
0.0
 10
-3.4948900000000003
 20
-3.5616400000000001
 30
0.0
 10
-3.4390100000000001
 20
-3.8943800000000004
 30
0.0
 10
-3.4796500000000004
 20
-4.0036000000000005
 30
0.0
 10
-3.4796500000000004
 20
-4.0036000000000005
 30
0.0
 10
-3.6244300000000003
 20
-3.8308800000000005
 30
0.0
 10
-3.5329900000000003
 20
-3.5768800000000005
 30
0.0
 10
-3.6549100000000001
 20
-3.3863800000000004
 30
0.0
 10
-3.6549100000000001
 20
-3.3863800000000004
 30
0.0
 10
-3.9876500000000004
 20
-3.3101800000000003
 30
0.0
 10
-3.9876500000000004
 20
-3.5286200000000001
 30
0.0
 10
-4.0638500000000004
 20
-3.7673800000000002
 30
0.0
 10
-4.0638500000000004
 20
-3.7673800000000002
 30
0.0
 10
-4.10703
 20
-3.5768800000000005
 30
0.0
 10
-4.2772100000000002
 20
-3.1349200000000002
 30
0.0
 10
-4.4194500000000003
 20
-3.4981400000000002
 30
0.0
 10
-4.4194500000000003
 20
-3.4981400000000002
 30
0.0
 10
-4.5261300000000002
 20
-3.2924000000000002
 30
0.0
 10
-4.3788100000000005
 20
-3.0079200000000004
 30
0.0
 10
-4.4524699999999999
 20
-2.8021800000000003
 30
0.0
 10
-4.4524699999999999
 20
-2.8021800000000003
 30
0.0
 10
-4.4956500000000004
 20
-3.0561800000000003
 30
0.0
 10
-4.5210500000000007
 20
-3.2797000000000001
 30
0.0
 10
-4.52867
 20
-3.5337000000000005
 30
0.0
 10
-4.52867
 20
-3.5337000000000005
 30
0.0
 10
-5.0315900000000005
 20
-3.0968200000000001
 30
0.0
 10
-4.6709100000000001
 20
-2.4084800000000004
 30
0.0
 10
-4.5032700000000006
 20
-1.7938000000000001
 30
0.0
 10
-4.5032700000000006
 20
-1.7938000000000001
 30
0.0
 10
-4.6201100000000004
 20
-1.71252
 30
0.0
 10
-4.5718500000000004
 20
-1.9182600000000001
 30
0.0
 10
-4.6455100000000007
 20
-1.9487400000000001
 30
0.0
 10
-4.6455100000000007
 20
-1.9487400000000001
 30
0.0
 10
-4.8334700000000002
 20
-1.8547600000000002
 30
0.0
 10
-4.73949
 20
-1.58806
 30
0.0
 10
-4.7902900000000006
 20
-1.4128000000000001
 30
0.0
 10
-4.7902900000000006
 20
-1.4128000000000001
 30
0.0
 10
-5.6005500000000001
 20
-1.0826
 30
0.0
 10
-4.7242500000000005
 20
-0.19614
 30
0.0
 10
-4.6937700000000007
 20
0.44901
 30
0.0
 10
-4.6937700000000007
 20
0.44901
 30
0.0
 10
-5.2551100000000002
 20
1.06369
 30
0.0
 10
-4.6302700000000003
 20
1.6326500000000002
 30
0.0
 10
-4.2924500000000005
 20
2.21685
 30
0.0
 10
-4.2924500000000005
 20
2.21685
 30
0.0
 10
-2.4915900000000004
 20
2.6283300000000001
 30
0.0
 10
-0.44181
 20
2.3921100000000002
 30
0.0
 10
1.1660000000000001
 20
1.4751700000000001
 30
0.0
 10
1.1660000000000001
 20
1.4751700000000001
 30
0.0
 10
0.78754
 20
1.14497
 30
0.0
 10
0.4090800000000001
 20
0.9062100000000001
 30
0.0
 10
0.6910200000000001
 20
0.3372500000000001
 30
0.0
 10
0.6910200000000001
 20
0.3372500000000001
 30
0.0
 10
-0.17511
 20
-0.29012
 30
0.0
 10
0.5030600000000001
 20
-1.1130800000000001
 30
0.0
 10
0.3913
 20
-1.8547600000000002
 30
0.0
 10
0.3913
 20
-1.8547600000000002
 30
0.0
 10
0.47004
 20
-1.8065000000000002
 30
0.0
 10
0.5487800000000001
 20
-1.7607800000000002
 30
0.0
 10
0.5640200000000001
 20
-1.6642600000000001
 30
0.0
 10
0.5640200000000001
 20
-1.6642600000000001
 30
0.0
 10
0.17032
 20
-0.7016000000000001
 30
0.0
 10
0.7545200000000001
 20
0.03753
 30
0.0
 10
0.8662800000000001
 20
0.9214500000000001
 30
0.0
 10
0.8662800000000001
 20
0.9214500000000001
 30
0.0
 10
1.6232000000000002
 20
1.69615
 30
0.0
 10
2.5401400000000001
 20
0.7182500000000001
 30
0.0
 10
3.4240600000000003
 20
0.7792100000000001
 30
0.0
 10
3.4240600000000003
 20
0.7792100000000001
 30
0.0
 10
3.5663000000000005
 20
-0.29012
 30
0.0
 10
3.4088200000000004
 20
-2.5177
 30
0.0
 10
1.8289400000000002
 20
-2.0122400000000003
 30
0.0
 10
1.8289400000000002
 20
-2.0122400000000003
 30
0.0
 10
1.7349600000000001
 20
-2.0122400000000003
 30
0.0
 10
1.5927200000000001
 20
-1.9360400000000002
 30
0.0
 10
1.52922
 20
-2.0300200000000004
 30
0.0
 10
1.52922
 20
-2.0300200000000004
 30
0.0
 10
1.9559400000000002
 20
-2.36022
 30
0.0
 10
2.5706200000000003
 20
-2.0452600000000003
 30
0.0
 10
2.8398600000000003
 20
-2.4084800000000004
 30
0.0
 10
2.8398600000000003
 20
-2.4084800000000004
 30
0.0
 10
2.3674200000000001
 20
-3.0866600000000002
 30
0.0
 10
1.7832200000000002
 20
-2.4237200000000003
 30
0.0
 10
1.1812400000000001
 20
-2.4719800000000003
 30
0.0
 10
1.1812400000000001
 20
-2.4719800000000003
 30
0.0
 10
0.7392800000000001
 20
-2.5024600000000001
 30
0.0
 10
0.09158
 20
-2.2814800000000002
 30
0.0
 10
0.07634
 20
-1.83952
 30
0.0
 10
0.07634
 20
-1.83952
 30
0.0
 10
-0.01509
 20
-2.0452600000000003
 30
0.0
 10
-0.28687
 20
-2.0300200000000004
 30
0.0
 10
-0.4900700000000001
 20
-2.0452600000000003
 30
0.0
 10
-0.4900700000000001
 20
-2.0452600000000003
 30
0.0
 10
-0.63231
 20
-2.0300200000000004
 30
0.0
 10
-0.5230900000000001
 20
-1.9030200000000002
 30
0.0
 10
-0.5230900000000001
 20
-1.8242800000000001
 30
0.0
 10
-0.5230900000000001
 20
-1.8242800000000001
 30
0.0
 10
-0.4595900000000001
 20
-1.3975600000000001
 30
0.0
 10
-0.8075700000000001
 20
-2.2332200000000002
 30
0.0
 10
-1.0920500000000002
 20
-2.1544800000000004
 30
0.0
 10
-1.0920500000000002
 20
-2.1544800000000004
 30
0.0
 10
-1.5340100000000001
 20
-1.9970000000000001
 30
0.0
 10
-0.9650500000000001
 20
-1.71252
 30
0.0
 10
-0.9650500000000001
 20
-1.4458200000000001
 30
0.0
 10
-0.9650500000000001
 20
-1.4458200000000001
 30
0.0
 10
-1.3282700000000001
 20
-1.7277600000000002
 30
0.0
 10
-1.8032500000000002
 20
-2.2967200000000001
 30
0.0
 10
-2.2909300000000004
 20
-2.2027400000000004
 30
0.0
 10
-2.2909300000000004
 20
-2.2027400000000004
 30
0.0
 10
-1.9454900000000002
 20
-2.39324
 30
0.0
 10
-2.4661900000000001
 20
-2.6142200000000004
 30
0.0
 10
-2.3391900000000003
 20
-2.9774400000000001
 30
0.0
 10
-2.3391900000000003
 20
-2.9774400000000001
 30
0.0
 10
-2.3239500000000004
 20
-2.7234400000000001
 30
0.0
 10
-2.0877300000000001
 20
-2.2662400000000003
 30
0.0
 10
-1.75499
 20
-2.2510000000000003
 30
0.0
 10
-1.75499
 20
-2.2510000000000003
 30
0.0
 10
-1.75499
 20
-2.2510000000000003
 30
0.0
 10
-1.7067300000000001
 20
-2.4237200000000003
 30
0.0
 10
-1.7067300000000001
 20
-2.4237200000000003
 30
0.0
 10
-1.7067300000000001
 20
-2.4237200000000003
 30
0.0
 10
-1.5695700000000001
 20
-1.9741400000000002
 30
0.0
 10
-1.2571500000000002
 20
-2.4542000000000002
 30
0.0
 10
-1.2215900000000002
 20
-2.8098000000000001
 30
0.0
 10
-1.2215900000000002
 20
-2.8098000000000001
 30
0.0
 10
-1.1885700000000001
 20
-3.1146000000000003
 30
0.0
 10
-1.2622300000000002
 20
-2.9952200000000002
 30
0.0
 10
-1.4298700000000002
 20
-3.0206200000000001
 30
0.0
  0
SPLINE
  5
2B
100
AcDbEntity
  8
Ebene 1
100
AcDbSpline
210
0.0
220
0.0
230
1.0
 70
     1
 71
     3
 72
    20
 73
    16
 74
     0
 42
0.0000000001
 43
0.0000000001
 40
0.0
 40
0.0
 40
0.0
 40
0.0
 40
0.25
 40
0.25
 40
0.25
 40
0.25
 40
0.5
 40
0.5
 40
0.5
 40
0.5
 40
0.75
 40
0.75
 40
0.75
 40
0.75
 40
1.0
 40
1.0
 40
1.0
 40
1.0
 10
-1.6127500000000001
 20
2.1228700000000003
 30
0.0
 10
-1.6127500000000001
 20
2.1228700000000003
 30
0.0
 10
-1.5340100000000001
 20
2.1076300000000003
 30
0.0
 10
-1.5340100000000001
 20
2.1076300000000003
 30
0.0
 10
-1.5340100000000001
 20
2.1076300000000003
 30
0.0
 10
-1.6914900000000002
 20
1.3964300000000001
 30
0.0
 10
-2.6287500000000001
 20
1.6478900000000001
 30
0.0
 10
-3.0529300000000004
 20
1.2059300000000002
 30
0.0
 10
-3.0529300000000004
 20
1.2059300000000002
 30
0.0
 10
-3.0529300000000004
 20
1.2059300000000002
 30
0.0
 10
-3.1240500000000004
 20
1.2059300000000002
 30
0.0
 10
-3.1240500000000004
 20
1.2059300000000002
 30
0.0
 10
-3.1240500000000004
 20
1.2059300000000002
 30
0.0
 10
-2.6998700000000002
 20
1.6174100000000002
 30
0.0
 10
-1.9277100000000003
 20
1.5234300000000001
 30
0.0
 10
-1.6127500000000001
 20
2.1228700000000003
 30
0.0
  0
SPLINE
  5
2C
100
AcDbEntity
  8
Ebene 1
100
AcDbSpline
210
0.0
220
0.0
230
1.0
 70
     1
 71
     3
 72
    28
 73
    24
 74
     0
 42
0.0000000001
 43
0.0000000001
 40
0.0
 40
0.0
 40
0.0
 40
0.0
 40
0.1666666666666667
 40
0.1666666666666667
 40
0.1666666666666667
 40
0.1666666666666667
 40
0.3333333333333333
 40
0.3333333333333333
 40
0.3333333333333333
 40
0.3333333333333333
 40
0.5
 40
0.5
 40
0.5
 40
0.5
 40
0.6666666666666666
 40
0.6666666666666666
 40
0.6666666666666666
 40
0.6666666666666666
 40
0.8333333333333333
 40
0.8333333333333333
 40
0.8333333333333333
 40
0.8333333333333333
 40
1.0
 40
1.0
 40
1.0
 40
1.0
 10
-3.8555700000000002
 20
2.0593700000000004
 30
0.0
 10
-3.8555700000000002
 20
2.0593700000000004
 30
0.0
 10
-3.7615900000000004
 20
2.04413
 30
0.0
 10
-3.7615900000000004
 20
2.04413
 30
0.0
 10
-3.7615900000000004
 20
2.04413
 30
0.0
 10
-3.8784300000000003
 20
1.9806300000000001
 30
0.0
 10
-3.9978100000000003
 20
1.8714100000000002
 30
0.0
 10
-4.0613100000000006
 20
1.7444100000000002
 30
0.0
 10
-4.0613100000000006
 20
1.7444100000000002
 30
0.0
 10
-4.0054300000000005
 20
1.5081900000000001
 30
0.0
 10
-3.7488900000000003
 20
1.3964300000000001
 30
0.0
 10
-3.5736300000000001
 20
1.2541900000000001
 30
0.0
 10
-3.5736300000000001
 20
1.2541900000000001
 30
0.0
 10
-3.8200100000000003
 20
1.19069
 30
0.0
 10
-3.9520900000000001
 20
1.5386700000000002
 30
0.0
 10
-4.1679900000000005
 20
1.6021700000000001
 30
0.0
 10
-4.1679900000000005
 20
1.6021700000000001
 30
0.0
 10
-4.1679900000000005
 20
1.6021700000000001
 30
0.0
 10
-4.2035500000000008
 20
1.6809100000000001
 30
0.0
 10
-4.2035500000000008
 20
1.6809100000000001
 30
0.0
 10
-4.2035500000000008
 20
1.6809100000000001
 30
0.0
 10
-4.18323
 20
1.8714100000000002
 30
0.0
 10
-4.0079700000000003
 20
1.9984100000000002
 30
0.0
 10
-3.8555700000000002
 20
2.0593700000000004
 30
0.0
  0
SPLINE
  5
2D
100
AcDbEntity
  8
Ebene 1
100
AcDbSpline
210
0.0
220
0.0
230
1.0
 70
     1
 71
     3
 72
    24
 73
    20
 74
     0
 42
0.0000000001
 43
0.0000000001
 40
0.0
 40
0.0
 40
0.0
 40
0.0
 40
0.2
 40
0.2
 40
0.2
 40
0.2
 40
0.4
 40
0.4
 40
0.4
 40
0.4
 40
0.6000000000000001
 40
0.6000000000000001
 40
0.6000000000000001
 40
0.6000000000000001
 40
0.8
 40
0.8
 40
0.8
 40
0.8
 40
1.0
 40
1.0
 40
1.0
 40
1.0
 10
-0.6653300000000001
 20
1.9806300000000001
 30
0.0
 10
-0.5840500000000001
 20
1.9806300000000001
 30
0.0
 10
-0.50531
 20
1.9806300000000001
 30
0.0
 10
-0.44181
 20
1.9501500000000001
 30
0.0
 10
-0.44181
 20
1.9501500000000001
 30
0.0
 10
-0.75931
 20
1.8866500000000002
 30
0.0
 10
-1.1072900000000001
 20
1.9171300000000002
 30
0.0
 10
-1.37653
 20
1.7291700000000001
 30
0.0
 10
-1.37653
 20
1.7291700000000001
 30
0.0
 10
-1.4070100000000001
 20
1.7291700000000001
 30
0.0
 10
-1.42225
 20
1.7291700000000001
 30
0.0
 10
-1.4374900000000002
 20
1.7444100000000002
 30
0.0
 10
-1.4374900000000002
 20
1.7444100000000002
 30
0.0
 10
-1.37653
 20
1.8561700000000001
 30
0.0
 10
-1.2342900000000001
 20
1.8561700000000001
 30
0.0
 10
-1.12253
 20
1.8866500000000002
 30
0.0
 10
-1.12253
 20
1.8866500000000002
 30
0.0
 10
-1.12253
 20
1.8866500000000002
 30
0.0
 10
-0.6653300000000001
 20
1.9806300000000001
 30
0.0
 10
-0.6653300000000001
 20
1.9806300000000001
 30
0.0
  0
SPLINE
  5
2E
100
AcDbEntity
  8
Ebene 1
100
AcDbSpline
210
0.0
220
0.0
230
1.0
 70
     1
 71
     3
 72
    72
 73
    68
 74
     0
 42
0.0000000001
 43
0.0000000001
 40
0.0
 40
0.0
 40
0.0
 40
0.0
 40
0.0588235294117647
 40
0.0588235294117647
 40
0.0588235294117647
 40
0.0588235294117647
 40
0.1176470588235294
 40
0.1176470588235294
 40
0.1176470588235294
 40
0.1176470588235294
 40
0.1764705882352941
 40
0.1764705882352941
 40
0.1764705882352941
 40
0.1764705882352941
 40
0.2352941176470588
 40
0.2352941176470588
 40
0.2352941176470588
 40
0.2352941176470588
 40
0.2941176470588235
 40
0.2941176470588235
 40
0.2941176470588235
 40
0.2941176470588235
 40
0.3529411764705883
 40
0.3529411764705883
 40
0.3529411764705883
 40
0.3529411764705883
 40
0.411764705882353
 40
0.411764705882353
 40
0.411764705882353
 40
0.411764705882353
 40
0.4705882352941177
 40
0.4705882352941177
 40
0.4705882352941177
 40
0.4705882352941177
 40
0.5294117647058824
 40
0.5294117647058824
 40
0.5294117647058824
 40
0.5294117647058824
 40
0.5882352941176471
 40
0.5882352941176471
 40
0.5882352941176471
 40
0.5882352941176471
 40
0.6470588235294118
 40
0.6470588235294118
 40
0.6470588235294118
 40
0.6470588235294118
 40
0.7058823529411765
 40
0.7058823529411765
 40
0.7058823529411765
 40
0.7058823529411765
 40
0.7647058823529412
 40
0.7647058823529412
 40
0.7647058823529412
 40
0.7647058823529412
 40
0.823529411764706
 40
0.823529411764706
 40
0.823529411764706
 40
0.823529411764706
 40
0.8823529411764707
 40
0.8823529411764707
 40
0.8823529411764707
 40
0.8823529411764707
 40
0.9411764705882354
 40
0.9411764705882354
 40
0.9411764705882354
 40
0.9411764705882354
 40
1.0
 40
1.0
 40
1.0
 40
1.0
 10
-1.2165100000000002
 20
1.2872100000000002
 30
0.0
 10
-1.12253
 20
1.19069
 30
0.0
 10
-1.3587500000000001
 20
0.9214500000000001
 30
0.0
 10
-1.29525
 20
0.76397
 30
0.0
 10
-1.29525
 20
0.76397
 30
0.0
 10
-0.9167900000000001
 20
0.6699900000000001
 30
0.0
 10
-0.8075700000000001
 20
1.11195
 30
0.0
 10
-0.55357
 20
1.2237100000000001
 30
0.0
 10
-0.55357
 20
1.2237100000000001
 30
0.0
 10
-0.55357
 20
1.2237100000000001
 30
0.0
 10
-0.63231
 20
1.0814700000000002
 30
0.0
 10
-0.63231
 20
1.0814700000000002
 30
0.0
 10
-0.63231
 20
1.0814700000000002
 30
0.0
 10
-0.69581
 20
1.01797
 30
0.0
 10
-0.75931
 20
0.8427100000000001
 30
0.0
 10
-0.6018300000000001
 20
0.89097
 30
0.0
 10
-0.6018300000000001
 20
0.89097
 30
0.0
 10
-0.6018300000000001
 20
0.89097
 30
0.0
 10
-0.01509
 20
1.11195
 30
0.0
 10
-0.01509
 20
1.11195
 30
0.0
 10
-0.01509
 20
1.11195
 30
0.0
 10
-0.08113
 20
0.9392300000000001
 30
0.0
 10
-0.38085
 20
0.9214500000000001
 30
0.0
 10
-0.44181
 20
0.7334900000000001
 30
0.0
 10
-0.44181
 20
0.7334900000000001
 30
0.0
 10
-0.26909
 20
0.6064900000000001
 30
0.0
 10
-0.06335
 20
0.44901
 30
0.0
 10
0.01284
 20
0.22803
 30
0.0
 10
0.01284
 20
0.22803
 30
0.0
 10
-0.06335
 20
0.21025
 30
0.0
 10
-0.06335
 20
0.32201
 30
0.0
 10
-0.12685
 20
0.35249
 30
0.0
 10
-0.12685
 20
0.35249
 30
0.0
 10
-0.17511
 20
0.38551
 30
0.0
 10
-0.23861
 20
0.5277500000000001
 30
0.0
 10
-0.22083
 20
0.4007500000000001
 30
0.0
 10
-0.22083
 20
0.4007500000000001
 30
0.0
 10
-0.17511
 20
-0.07168
 30
0.0
 10
-0.6653300000000001
 20
-0.5136400000000001
 30
0.0
 10
-0.3325900000000001
 20
-0.9860800000000001
 30
0.0
 10
-0.3325900000000001
 20
-0.9860800000000001
 30
0.0
 10
-0.5230900000000001
 20
-0.8133600000000001
 30
0.0
 10
-1.1377700000000002
 20
-0.9556000000000001
 30
0.0
 10
-0.86853
 20
-1.1765800000000002
 30
0.0
 10
-0.86853
 20
-1.1765800000000002
 30
0.0
 10
-1.1072900000000001
 20
-1.0953000000000002
 30
0.0
 10
-1.2800100000000001
 20
-0.6863600000000001
 30
0.0
 10
-1.5797300000000001
 20
-0.8286000000000001
 30
0.0
 10
-1.5797300000000001
 20
-0.8286000000000001
 30
0.0
 10
-1.5644900000000002
 20
-0.90734
 30
0.0
 10
-1.3917700000000002
 20
-1.00132
 30
0.0
 10
-1.4552700000000001
 20
-1.0826
 30
0.0
 10
-1.4552700000000001
 20
-1.0826
 30
0.0
 10
-1.75499
 20
-0.8590800000000001
 30
0.0
 10
-1.9124700000000001
 20
-0.4171200000000001
 30
0.0
 10
-2.3061700000000003
 20
-0.45014
 30
0.0
 10
-2.3061700000000003
 20
-0.45014
 30
0.0
 10
-2.48143
 20
-0.5746
 30
0.0
 10
-2.5220700000000003
 20
-0.8590800000000001
 30
0.0
 10
-2.6668500000000002
 20
-1.00132
 30
0.0
 10
-2.6668500000000002
 20
-1.00132
 30
0.0
 10
-2.4661900000000001
 20
-0.59238
 30
0.0
 10
-2.4331700000000001
 20
-0.1174
 30
0.0
 10
-2.2121900000000001
 20
0.27629
 30
0.0
 10
-2.2121900000000001
 20
0.27629
 30
0.0
 10
-1.8032500000000002
 20
0.5277500000000001
 30
0.0
 10
-1.3130300000000001
 20
0.76397
 30
0.0
 10
-1.2165100000000002
 20
1.2872100000000002
 30
0.0
  0
SPLINE
  5
2F
100
AcDbEntity
  8
Ebene 1
100
AcDbSpline
210
0.0
220
0.0
230
1.0
 70
     1
 71
     3
 72
   100
 73
    96
 74
     0
 42
0.0000000001
 43
0.0000000001
 40
0.0
 40
0.0
 40
0.0
 40
0.0
 40
0.0416666666666667
 40
0.0416666666666667
 40
0.0416666666666667
 40
0.0416666666666667
 40
0.0833333333333333
 40
0.0833333333333333
 40
0.0833333333333333
 40
0.0833333333333333
 40
0.125
 40
0.125
 40
0.125
 40
0.125
 40
0.1666666666666667
 40
0.1666666666666667
 40
0.1666666666666667
 40
0.1666666666666667
 40
0.2083333333333333
 40
0.2083333333333333
 40
0.2083333333333333
 40
0.2083333333333333
 40
0.25
 40
0.25
 40
0.25
 40
0.25
 40
0.2916666666666666
 40
0.2916666666666666
 40
0.2916666666666666
 40
0.2916666666666666
 40
0.3333333333333333
 40
0.3333333333333333
 40
0.3333333333333333
 40
0.3333333333333333
 40
0.375
 40
0.375
 40
0.375
 40
0.375
 40
0.4166666666666667
 40
0.4166666666666667
 40
0.4166666666666667
 40
0.4166666666666667
 40
0.4583333333333334
 40
0.4583333333333334
 40
0.4583333333333334
 40
0.4583333333333334
 40
0.5
 40
0.5
 40
0.5
 40
0.5
 40
0.5416666666666666
 40
0.5416666666666666
 40
0.5416666666666666
 40
0.5416666666666666
 40
0.5833333333333333
 40
0.5833333333333333
 40
0.5833333333333333
 40
0.5833333333333333
 40
0.6249999999999999
 40
0.6249999999999999
 40
0.6249999999999999
 40
0.6249999999999999
 40
0.6666666666666665
 40
0.6666666666666665
 40
0.6666666666666665
 40
0.6666666666666665
 40
0.7083333333333332
 40
0.7083333333333332
 40
0.7083333333333332
 40
0.7083333333333332
 40
0.7499999999999998
 40
0.7499999999999998
 40
0.7499999999999998
 40
0.7499999999999998
 40
0.7916666666666664
 40
0.7916666666666664
 40
0.7916666666666664
 40
0.7916666666666664
 40
0.833333333333333
 40
0.833333333333333
 40
0.833333333333333
 40
0.833333333333333
 40
0.8749999999999997
 40
0.8749999999999997
 40
0.8749999999999997
 40
0.8749999999999997
 40
0.9166666666666663
 40
0.9166666666666663
 40
0.9166666666666663
 40
0.9166666666666663
 40
0.9583333333333329
 40
0.9583333333333329
 40
0.9583333333333329
 40
0.9583333333333329
 40
1.0
 40
1.0
 40
1.0
 40
1.0
 10
-4.4550100000000006
 20
1.06369
 30
0.0
 10
-4.43215
 20
1.4243700000000001
 30
0.0
 10
-4.3762700000000008
 20
0.93669
 30
0.0
 10
-4.2975300000000001
 20
0.8046100000000001
 30
0.0
 10
-4.2975300000000001
 20
0.8046100000000001
 30
0.0
 10
-4.1679900000000005
 20
0.58109
 30
0.0
 10
-3.9978100000000003
 20
0.28391
 30
0.0
 10
-3.8911300000000004
 20
0.51251
 30
0.0
 10
-3.8911300000000004
 20
0.51251
 30
0.0
 10
-3.7996900000000005
 20
0.30677
 30
0.0
 10
-3.5583900000000002
 20
0.29153
 30
0.0
 10
-3.4009100000000001
 20
0.41599
 30
0.0
 10
-3.4009100000000001
 20
0.41599
 30
0.0
 10
-3.4517100000000003
 20
0.5429900000000001
 30
0.0
 10
-3.5380700000000003
 20
0.68523
 30
0.0
 10
-3.4618700000000002
 20
0.8122300000000001
 30
0.0
 10
-3.4618700000000002
 20
0.8122300000000001
 30
0.0
 10
-3.3932900000000004
 20
0.7792100000000001
 30
0.0
 10
-3.4491700000000001
 20
0.6547500000000001
 30
0.0
 10
-3.4136100000000003
 20
0.5912500000000001
 30
0.0
 10
-3.4136100000000003
 20
0.5912500000000001
 30
0.0
 10
-3.2154900000000004
 20
0.16453
 30
0.0
 10
-2.65415
 20
0.14929
 30
0.0
 10
-2.2909300000000004
 20
0.35249
 30
0.0
 10
-2.2909300000000004
 20
0.35249
 30
0.0
 10
-2.5550900000000003
 20
0.11373
 30
0.0
 10
-2.4407900000000002
 20
-0.346
 30
0.0
 10
-2.7659100000000003
 20
-0.52888
 30
0.0
 10
-2.7659100000000003
 20
-0.52888
 30
0.0
 10
-2.3696700000000002
 20
-0.00564
 30
0.0
 10
-3.1799300000000001
 20
0.4642500000000001
 30
0.0
 10
-3.6015700000000002
 20
0.25851
 30
0.0
 10
-3.6015700000000002
 20
0.25851
 30
0.0
 10
-3.6015700000000002
 20
0.25851
 30
0.0
 10
-3.7717500000000004
 20
0.30677
 30
0.0
 10
-3.7717500000000004
 20
0.30677
 30
0.0
 10
-3.7717500000000004
 20
0.30677
 30
0.0
 10
-4.1679900000000005
 20
-0.06406
 30
0.0
 10
-4.3838900000000001
 20
-0.61524
 30
0.0
 10
-4.2822900000000006
 20
-1.1435600000000001
 30
0.0
 10
-4.2822900000000006
 20
-1.1435600000000001
 30
0.0
 10
-4.2518100000000008
 20
-0.8590800000000001
 30
0.0
 10
-4.0054300000000005
 20
-0.5136400000000001
 30
0.0
 10
-3.8708100000000005
 20
-0.9403600000000001
 30
0.0
 10
-3.8708100000000005
 20
-0.9403600000000001
 30
0.0
 10
-3.7234900000000004
 20
-0.90734
 30
0.0
 10
-3.6218900000000005
 20
-0.71684
 30
0.0
 10
-3.4644100000000004
 20
-0.71684
 30
0.0
 10
-3.4644100000000004
 20
-0.71684
 30
0.0
 10
-3.3069300000000004
 20
-1.1130800000000001
 30
0.0
 10
-3.1799300000000001
 20
-1.5220200000000002
 30
0.0
 10
-3.1951700000000001
 20
-1.9665200000000003
 30
0.0
 10
-3.1951700000000001
 20
-1.9665200000000003
 30
0.0
 10
-3.3958300000000001
 20
-2.0782800000000003
 30
0.0
 10
-3.4999700000000002
 20
-2.36022
 30
0.0
 10
-3.7438100000000003
 20
-2.39324
 30
0.0
 10
-3.7438100000000003
 20
-2.39324
 30
0.0
 10
-3.7438100000000003
 20
-2.39324
 30
0.0
 10
-4.0333700000000006
 20
-2.1875
 30
0.0
 10
-4.0333700000000006
 20
-2.1875
 30
0.0
 10
-4.0333700000000006
 20
-2.1875
 30
0.0
 10
-4.1197300000000006
 20
-2.1722600000000001
 30
0.0
 10
-4.1171899999999999
 20
-2.3449800000000001
 30
0.0
 10
-4.2187900000000003
 20
-2.2967200000000001
 30
0.0
 10
-4.2187900000000003
 20
-2.2967200000000001
 30
0.0
 10
-4.6988500000000002
 20
-1.9360400000000002
 30
0.0
 10
-4.31785
 20
-1.33406
 30
0.0
 10
-4.39405
 20
-0.7981200000000001
 30
0.0
 10
-4.39405
 20
-0.7981200000000001
 30
0.0
 10
-4.5769299999999999
 20
-0.4171200000000001
 30
0.0
 10
-4.95031
 20
-1.2705600000000001
 30
0.0
 10
-4.78775
 20
-0.8133600000000001
 30
0.0
 10
-4.78775
 20
-0.8133600000000001
 30
0.0
 10
-4.7623500000000005
 20
-0.71684
 30
0.0
 10
-4.6226500000000001
 20
-0.6863600000000001
 30
0.0
 10
-4.6175700000000006
 20
-0.59238
 30
0.0
 10
-4.6175700000000006
 20
-0.59238
 30
0.0
 10
-4.6556700000000006
 20
-0.4882400000000001
 30
0.0
 10
-4.7115500000000008
 20
-0.57206
 30
0.0
 10
-4.7826700000000004
 20
-0.5873
 30
0.0
 10
-4.7826700000000004
 20
-0.5873
 30
0.0
 10
-4.8512500000000003
 20
-0.6025400000000001
 30
0.0
 10
-5.1179500000000004
 20
-0.8590800000000001
 30
0.0
 10
-4.98841
 20
-0.59238
 30
0.0
 10
-4.98841
 20
-0.59238
 30
0.0
 10
-4.64297
 20
-0.33838
 30
0.0
 10
-4.6226500000000001
 20
0.14929
 30
0.0
 10
-4.6099500000000004
 20
0.55823
 30
0.0
 10
-4.6099500000000004
 20
0.55823
 30
0.0
 10
-4.6099500000000004
 20
0.55823
 30
0.0
 10
-4.4092900000000004
 20
0.5912500000000001
 30
0.0
 10
-4.4092900000000004
 20
0.5912500000000001
 30
0.0
 10
-4.4092900000000004
 20
0.5912500000000001
 30
0.0
 10
-4.4092900000000004
 20
0.5912500000000001
 30
0.0
 10
-4.4550100000000006
 20
1.06369
 30
0.0
 10
-4.4550100000000006
 20
1.06369
 30
0.0
  0
SPLINE
  5
30
100
AcDbEntity
  8
Ebene 1
 62
     7
100
AcDbSpline
210
0.0
220
0.0
230
1.0
 70
     1
 71
     3
 72
    20
 73
    16
 74
     0
 42
0.0000000001
 43
0.0000000001
 40
0.0
 40
0.0
 40
0.0
 40
0.0
 40
0.25
 40
0.25
 40
0.25
 40
0.25
 40
0.5
 40
0.5
 40
0.5
 40
0.5
 40
0.75
 40
0.75
 40
0.75
 40
0.75
 40
1.0
 40
1.0
 40
1.0
 40
1.0
 10
3.9625400000000002
 20
0.62173
 30
0.0
 10
4.1505000000000001
 20
0.62173
 30
0.0
 10
4.19876
 20
0.38551
 30
0.0
 10
4.2622600000000004
 20
0.25851
 30
0.0
 10
4.2622600000000004
 20
0.25851
 30
0.0
 10
4.19876
 20
0.11627
 30
0.0
 10
4.1200200000000002
 20
-0.00564
 30
0.0
 10
3.9625400000000002
 20
-0.03866
 30
0.0
 10
3.9625400000000002
 20
-0.03866
 30
0.0
 10
3.9142800000000002
 20
-0.02342
 30
0.0
 10
3.8990400000000003
 20
0.00705
 30
0.0
 10
3.8660200000000002
 20
0.03753
 30
0.0
 10
3.8660200000000002
 20
0.03753
 30
0.0
 10
3.5663000000000005
 20
0.11627
 30
0.0
 10
3.6298000000000004
 20
0.68523
 30
0.0
 10
3.9625400000000002
 20
0.62173
 30
0.0
  0
SPLINE
  5
31
100
AcDbEntity
  8
Ebene 1
 62
     7
100
AcDbSpline
210
0.0
220
0.0
230
1.0
 70
     1
 71
     3
 72
    20
 73
    16
 74
     0
 42
0.0000000001
 43
0.0000000001
 40
0.0
 40
0.0
 40
0.0
 40
0.0
 40
0.25
 40
0.25
 40
0.25
 40
0.25
 40
0.5
 40
0.5
 40
0.5
 40
0.5
 40
0.75
 40
0.75
 40
0.75
 40
0.75
 40
1.0
 40
1.0
 40
1.0
 40
1.0
 10
4.1505000000000001
 20
-0.03866
 30
0.0
 10
4.4349800000000004
 20
-0.19614
 30
0.0
 10
4.24702
 20
-0.78034
 30
0.0
 10
3.9142800000000002
 20
-0.7346200000000001
 30
0.0
 10
3.9142800000000002
 20
-0.7346200000000001
 30
0.0
 10
3.9625400000000002
 20
-0.6381
 30
0.0
 10
4.1352600000000006
 20
-0.6228600000000001
 30
0.0
 10
4.1047800000000008
 20
-0.49586
 30
0.0
 10
4.1047800000000008
 20
-0.49586
 30
0.0
 10
3.9625400000000002
 20
-0.49586
 30
0.0
 10
3.7898200000000002
 20
-0.5136400000000001
 30
0.0
 10
3.7237800000000001
 20
-0.3714
 30
0.0
 10
3.7237800000000001
 20
-0.3714
 30
0.0
 10
3.8203000000000005
 20
-0.21392
 30
0.0
 10
3.9930200000000005
 20
-0.1174
 30
0.0
 10
4.1505000000000001
 20
-0.03866
 30
0.0
  0
SPLINE
  5
32
100
AcDbEntity
  8
Ebene 1
 62
     7
100
AcDbSpline
210
0.0
220
0.0
230
1.0
 70
     1
 71
     3
 72
    48
 73
    44
 74
     0
 42
0.0000000001
 43
0.0000000001
 40
0.0
 40
0.0
 40
0.0
 40
0.0
 40
0.0909090909090909
 40
0.0909090909090909
 40
0.0909090909090909
 40
0.0909090909090909
 40
0.1818181818181818
 40
0.1818181818181818
 40
0.1818181818181818
 40
0.1818181818181818
 40
0.2727272727272727
 40
0.2727272727272727
 40
0.2727272727272727
 40
0.2727272727272727
 40
0.3636363636363637
 40
0.3636363636363637
 40
0.3636363636363637
 40
0.3636363636363637
 40
0.4545454545454546
 40
0.4545454545454546
 40
0.4545454545454546
 40
0.4545454545454546
 40
0.5454545454545455
 40
0.5454545454545455
 40
0.5454545454545455
 40
0.5454545454545455
 40
0.6363636363636365
 40
0.6363636363636365
 40
0.6363636363636365
 40
0.6363636363636365
 40
0.7272727272727274
 40
0.7272727272727274
 40
0.7272727272727274
 40
0.7272727272727274
 40
0.8181818181818183
 40
0.8181818181818183
 40
0.8181818181818183
 40
0.8181818181818183
 40
0.9090909090909093
 40
0.9090909090909093
 40
0.9090909090909093
 40
0.9090909090909093
 40
1.0
 40
1.0
 40
1.0
 40
1.0
 10
4.0666800000000007
 20
-0.84384
 30
0.0
 10
3.8584000000000005
 20
-1.5093200000000002
 30
0.0
 10
4.7397800000000005
 20
-2.0122400000000003
 30
0.0
 10
4.4553000000000003
 20
-2.7234400000000001
 30
0.0
 10
4.4553000000000003
 20
-2.7234400000000001
 30
0.0
 10
4.3664000000000005
 20
-3.2771600000000003
 30
0.0
 10
3.9015800000000005
 20
-3.7038800000000003
 30
0.0
 10
3.4393000000000002
 20
-3.9248600000000002
 30
0.0
 10
3.4393000000000002
 20
-3.9248600000000002
 30
0.0
 10
3.3046800000000003
 20
-3.0561800000000003
 30
0.0
 10
2.7814400000000004
 20
-2.0605000000000002
 30
0.0
 10
3.4088200000000004
 20
-1.2705600000000001
 30
0.0
 10
3.4088200000000004
 20
-1.2705600000000001
 30
0.0
 10
3.5129600000000001
 20
-1.16134
 30
0.0
 10
3.6171000000000002
 20
-1.03434
 30
0.0
 10
3.7517200000000002
 20
-0.9556000000000001
 30
0.0
 10
3.7517200000000002
 20
-0.9556000000000001
 30
0.0
 10
3.6171000000000002
 20
-1.20706
 30
0.0
 10
3.5282000000000004
 20
-1.4915400000000001
 30
0.0
 10
3.5129600000000001
 20
-1.7760200000000002
 30
0.0
 10
3.5129600000000001
 20
-1.7760200000000002
 30
0.0
 10
3.4697800000000001
 20
-1.9182600000000001
 30
0.0
 10
3.5891600000000001
 20
-2.3754600000000003
 30
0.0
 10
3.6475800000000005
 20
-2.0452600000000003
 30
0.0
 10
3.6475800000000005
 20
-2.0452600000000003
 30
0.0
 10
3.6628200000000004
 20
-1.9487400000000001
 30
0.0
 10
3.6933000000000002
 20
-1.8547600000000002
 30
0.0
 10
3.6628200000000004
 20
-1.7455400000000001
 30
0.0
 10
3.6628200000000004
 20
-1.7455400000000001
 30
0.0
 10
3.6628200000000004
 20
-1.7455400000000001
 30
0.0
 10
3.6780600000000003
 20
-1.46106
 30
0.0
 10
3.6780600000000003
 20
-1.46106
 30
0.0
 10
3.6780600000000003
 20
-1.46106
 30
0.0
 10
3.6323400000000001
 20
-1.2553200000000002
 30
0.0
 10
3.7974400000000004
 20
-0.8921000000000001
 30
0.0
 10
3.9473000000000003
 20
-0.9225800000000001
 30
0.0
 10
3.9473000000000003
 20
-0.9225800000000001
 30
0.0
 10
3.8279200000000002
 20
-1.1918200000000001
 30
0.0
 10
3.6780600000000003
 20
-1.7455400000000001
 30
0.0
 10
4.0819200000000002
 20
-1.8065000000000002
 30
0.0
 10
4.0819200000000002
 20
-1.8065000000000002
 30
0.0
 10
4.0209600000000005
 20
-1.4915400000000001
 30
0.0
 10
3.7822000000000005
 20
-1.12832
 30
0.0
 10
4.0666800000000007
 20
-0.84384
 30
0.0
  0
SPLINE
  5
33
100
AcDbEntity
  8
Ebene 1
 62
     7
100
AcDbSpline
210
0.0
220
0.0
230
1.0
 70
     1
 71
     3
 72
    24
 73
    20
 74
     0
 42
0.0000000001
 43
0.0000000001
 40
0.0
 40
0.0
 40
0.0
 40
0.0
 40
0.2
 40
0.2
 40
0.2
 40
0.2
 40
0.4
 40
0.4
 40
0.4
 40
0.4
 40
0.6000000000000001
 40
0.6000000000000001
 40
0.6000000000000001
 40
0.6000000000000001
 40
0.8
 40
0.8
 40
0.8
 40
0.8
 40
1.0
 40
1.0
 40
1.0
 40
1.0
 10
4.3257600000000007
 20
-1.12832
 30
0.0
 10
4.7042200000000003
 20
-1.6033000000000002
 30
0.0
 10
5.3519200000000007
 20
-2.13924
 30
0.0
 10
5.0369600000000005
 20
-2.7869400000000004
 30
0.0
 10
5.0369600000000005
 20
-2.7869400000000004
 30
0.0
 10
4.5619800000000001
 20
-2.5812000000000004
 30
0.0
 10
4.6585000000000001
 20
-1.9487400000000001
 30
0.0
 10
4.2927400000000002
 20
-1.6337800000000002
 30
0.0
 10
4.2927400000000002
 20
-1.6337800000000002
 30
0.0
 10
4.2927400000000002
 20
-1.6337800000000002
 30
0.0
 10
4.24702
 20
-1.5093200000000002
 30
0.0
 10
4.24702
 20
-1.5093200000000002
 30
0.0
 10
4.24702
 20
-1.5093200000000002
 30
0.0
 10
4.24702
 20
-1.5093200000000002
 30
0.0
 10
4.19876
 20
-1.1765800000000002
 30
0.0
 10
4.19876
 20
-1.1765800000000002
 30
0.0
 10
4.19876
 20
-1.1765800000000002
 30
0.0
 10
4.2140000000000004
 20
-1.1918200000000001
 30
0.0
 10
4.3257600000000007
 20
-1.2248400000000002
 30
0.0
 10
4.3257600000000007
 20
-1.12832
 30
0.0
  0
SPLINE
  5
34
100
AcDbEntity
  8
Ebene 1
 62
     7
100
AcDbSpline
210
0.0
220
0.0
230
1.0
 70
     1
 71
     3
 72
    12
 73
     8
 74
     0
 42
0.0000000001
 43
0.0000000001
 40
0.0
 40
0.0
 40
0.0
 40
0.0
 40
0.5
 40
0.5
 40
0.5
 40
0.5
 40
1.0
 40
1.0
 40
1.0
 40
1.0
 10
-4.39405
 20
-1.6972800000000001
 30
0.0
 10
-4.4143700000000008
 20
-1.5550400000000002
 30
0.0
 10
-4.3915100000000002
 20
-1.37978
 30
0.0
 10
-4.3127700000000004
 20
-1.2705600000000001
 30
0.0
 10
-4.3127700000000004
 20
-1.2705600000000001
 30
0.0
 10
-4.25943
 20
-1.4128000000000001
 30
0.0
 10
-4.34579
 20
-1.5702800000000001
 30
0.0
 10
-4.39405
 20
-1.6972800000000001
 30
0.0
  0
SPLINE
  5
35
100
AcDbEntity
  8
Ebene 1
100
AcDbSpline
210
0.0
220
0.0
230
1.0
 70
     1
 71
     3
 72
    16
 73
    12
 74
     0
 42
0.0000000001
 43
0.0000000001
 40
0.0
 40
0.0
 40
0.0
 40
0.0
 40
0.3333333333333333
 40
0.3333333333333333
 40
0.3333333333333333
 40
0.3333333333333333
 40
0.6666666666666666
 40
0.6666666666666666
 40
0.6666666666666666
 40
0.6666666666666666
 40
1.0
 40
1.0
 40
1.0
 40
1.0
 10
-2.4966700000000004
 20
-1.3188200000000001
 30
0.0
 10
-2.3061700000000003
 20
-1.4763000000000002
 30
0.0
 10
-2.2452100000000002
 20
-1.7455400000000001
 30
0.0
 10
-2.2909300000000004
 20
-1.9665200000000003
 30
0.0
 10
-2.2909300000000004
 20
-1.9665200000000003
 30
0.0
 10
-2.3239500000000004
 20
-1.7760200000000002
 30
0.0
 10
-2.3391900000000003
 20
-1.5550400000000002
 30
0.0
 10
-2.4915900000000004
 20
-1.3975600000000001
 30
0.0
 10
-2.4915900000000004
 20
-1.3975600000000001
 30
0.0
 10
-2.4915900000000004
 20
-1.3975600000000001
 30
0.0
 10
-2.4966700000000004
 20
-1.3188200000000001
 30
0.0
 10
-2.4966700000000004
 20
-1.3188200000000001
 30
0.0
  0
SPLINE
  5
36
100
AcDbEntity
  8
Ebene 1
 62
     7
100
AcDbSpline
210
0.0
220
0.0
230
1.0
 70
     1
 71
     3
 72
    20
 73
    16
 74
     0
 42
0.0000000001
 43
0.0000000001
 40
0.0
 40
0.0
 40
0.0
 40
0.0
 40
0.25
 40
0.25
 40
0.25
 40
0.25
 40
0.5
 40
0.5
 40
0.5
 40
0.5
 40
0.75
 40
0.75
 40
0.75
 40
0.75
 40
1.0
 40
1.0
 40
1.0
 40
1.0
 10
-1.42225
 20
-3.0714200000000003
 30
0.0
 10
-1.1530100000000001
 20
-3.1196800000000002
 30
0.0
 10
-1.2012700000000001
 20
-3.4676600000000004
 30
0.0
 10
-1.2012700000000001
 20
-3.6556200000000003
 30
0.0
 10
-1.2012700000000001
 20
-3.6556200000000003
 30
0.0
 10
-1.2647700000000002
 20
-3.7191200000000002
 30
0.0
 10
-1.3435100000000002
 20
-3.7521400000000003
 30
0.0
 10
-1.42225
 20
-3.7826200000000001
 30
0.0
 10
-1.42225
 20
-3.7826200000000001
 30
0.0
 10
-1.5644900000000002
 20
-3.6099000000000001
 30
0.0
 10
-1.5949700000000002
 20
-3.3559000000000001
 30
0.0
 10
-1.54925
 20
-3.1349200000000002
 30
0.0
 10
-1.54925
 20
-3.1349200000000002
 30
0.0
 10
-1.54925
 20
-3.1349200000000002
 30
0.0
 10
-1.42225
 20
-3.0714200000000003
 30
0.0
 10
-1.42225
 20
-3.0714200000000003
 30
0.0
  0
SPLINE
  5
37
100
AcDbEntity
  8
Ebene 1
 62
     7
100
AcDbSpline
210
0.0
220
0.0
230
1.0
 70
     1
 71
     3
 72
    16
 73
    12
 74
     0
 42
0.0000000001
 43
0.0000000001
 40
0.0
 40
0.0
 40
0.0
 40
0.0
 40
0.3333333333333333
 40
0.3333333333333333
 40
0.3333333333333333
 40
0.3333333333333333
 40
0.6666666666666666
 40
0.6666666666666666
 40
0.6666666666666666
 40
0.6666666666666666
 40
1.0
 40
1.0
 40
1.0
 40
1.0
 10
-1.9607300000000001
 20
-3.3559000000000001
 30
0.0
 10
-1.7372100000000001
 20
-3.3711400000000005
 30
0.0
 10
-1.6610100000000001
 20
-3.7826200000000001
 30
0.0
 10
-1.8642100000000001
 20
-3.8613600000000003
 30
0.0
 10
-1.8642100000000001
 20
-3.8613600000000003
 30
0.0
 10
-1.8642100000000001
 20
-3.8613600000000003
 30
0.0
 10
-1.9607300000000001
 20
-3.9401000000000002
 30
0.0
 10
-1.9607300000000001
 20
-3.9401000000000002
 30
0.0
 10
-1.9607300000000001
 20
-3.9401000000000002
 30
0.0
 10
-2.0877300000000001
 20
-3.7826200000000001
 30
0.0
 10
-2.06995
 20
-3.5133800000000002
 30
0.0
 10
-1.9607300000000001
 20
-3.3559000000000001
 30
0.0
  0
SPLINE
  5
38
100
AcDbEntity
  8
Ebene 1
 62
     7
100
AcDbSpline
210
0.0
220
0.0
230
1.0
 70
     1
 71
     3
 72
    20
 73
    16
 74
     0
 42
0.0000000001
 43
0.0000000001
 40
0.0
 40
0.0
 40
0.0
 40
0.0
 40
0.25
 40
0.25
 40
0.25
 40
0.25
 40
0.5
 40
0.5
 40
0.5
 40
0.5
 40
0.75
 40
0.75
 40
0.75
 40
0.75
 40
1.0
 40
1.0
 40
1.0
 40
1.0
 10
-3.8504900000000002
 20
-3.4651200000000002
 30
0.0
 10
-3.8022300000000002
 20
-3.4651200000000002
 30
0.0
 10
-3.7488900000000003
 20
-3.4803600000000001
 30
0.0
 10
-3.7107900000000003
 20
-3.5133800000000002
 30
0.0
 10
-3.7107900000000003
 20
-3.5133800000000002
 30
0.0
 10
-3.6472900000000004
 20
-3.7800800000000003
 30
0.0
 10
-3.5736300000000001
 20
-3.9731200000000002
 30
0.0
 10
-3.4923500000000001
 20
-4.2245800000000004
 30
0.0
 10
-3.4923500000000001
 20
-4.2245800000000004
 30
0.0
 10
-3.5660100000000003
 20
-4.3211000000000004
 30
0.0
 10
-3.6701500000000005
 20
-4.3820600000000001
 30
0.0
 10
-3.7615900000000004
 20
-4.4455600000000004
 30
0.0
 10
-3.7615900000000004
 20
-4.4455600000000004
 30
0.0
 10
-3.9520900000000001
 20
-4.1458400000000006
 30
0.0
 10
-3.9571700000000005
 20
-3.7953200000000002
 30
0.0
 10
-3.8504900000000002
 20
-3.4651200000000002
 30
0.0
  0
SPLINE
  5
39
100
AcDbEntity
  8
Ebene 1
 62
     7
100
AcDbSpline
210
0.0
220
0.0
230
1.0
 70
     1
 71
     3
 72
    20
 73
    16
 74
     0
 42
0.0000000001
 43
0.0000000001
 40
0.0
 40
0.0
 40
0.0
 40
0.0
 40
0.25
 40
0.25
 40
0.25
 40
0.25
 40
0.5
 40
0.5
 40
0.5
 40
0.5
 40
0.75
 40
0.75
 40
0.75
 40
0.75
 40
1.0
 40
1.0
 40
1.0
 40
1.0
 10
-4.2975300000000001
 20
-3.4041600000000001
 30
0.0
 10
-4.2975300000000001
 20
-3.4041600000000001
 30
0.0
 10
-4.2391100000000002
 20
-3.4194000000000004
 30
0.0
 10
-4.2391100000000002
 20
-3.4194000000000004
 30
0.0
 10
-4.2391100000000002
 20
-3.4194000000000004
 30
0.0
 10
-4.18323
 20
-3.6099000000000001
 30
0.0
 10
-4.0917900000000005
 20
-3.7826200000000001
 30
0.0
 10
-4.1095700000000006
 20
-3.9883600000000001
 30
0.0
 10
-4.1095700000000006
 20
-3.9883600000000001
 30
0.0
 10
-4.0308299999999999
 20
-4.1306000000000003
 30
0.0
 10
-4.0613100000000006
 20
-4.3033200000000003
 30
0.0
 10
-4.1756100000000007
 20
-4.43032
 30
0.0
 10
-4.1756100000000007
 20
-4.43032
 30
0.0
 10
-4.4346900000000007
 20
-4.1458400000000006
 30
0.0
 10
-4.4346900000000007
 20
-3.7521400000000003
 30
0.0
 10
-4.2975300000000001
 20
-3.4041600000000001
 30
0.0
  0
SPLINE
  5
3A
100
AcDbEntity
  8
Ebene 1
 62
     7
100
AcDbSpline
210
0.0
220
0.0
230
1.0
 70
     1
 71
     3
 72
    20
 73
    16
 74
     0
 42
0.0000000001
 43
0.0000000001
 40
0.0
 40
0.0
 40
0.0
 40
0.0
 40
0.25
 40
0.25
 40
0.25
 40
0.25
 40
0.5
 40
0.5
 40
0.5
 40
0.5
 40
0.75
 40
0.75
 40
0.75
 40
0.75
 40
1.0
 40
1.0
 40
1.0
 40
1.0
 10
-4.6785300000000003
 20
-3.4829000000000003
 30
0.0
 10
-4.4727900000000007
 20
-3.6556200000000003
 30
0.0
 10
-4.5413700000000006
 20
-3.9731200000000002
 30
0.0
 10
-4.51851
 20
-4.2245800000000004
 30
0.0
 10
-4.51851
 20
-4.2245800000000004
 30
0.0
 10
-4.51851
 20
-4.2245800000000004
 30
0.0
 10
-4.5540700000000003
 20
-4.2880800000000008
 30
0.0
 10
-4.5540700000000003
 20
-4.2880800000000008
 30
0.0
 10
-4.5540700000000003
 20
-4.2880800000000008
 30
0.0
 10
-4.5540700000000003
 20
-4.2880800000000008
 30
0.0
 10
-4.7242500000000005
 20
-3.5616400000000001
 30
0.0
 10
-4.7242500000000005
 20
-3.5616400000000001
 30
0.0
 10
-4.7242500000000005
 20
-3.5616400000000001
 30
0.0
 10
-4.7242500000000005
 20
-3.5616400000000001
 30
0.0
 10
-4.6785300000000003
 20
-3.4829000000000003
 30
0.0
 10
-4.6785300000000003
 20
-3.4829000000000003
 30
0.0
  0
SPLINE
  5
3B
100
AcDbEntity
  8
Ebene 1
 62
     7
100
AcDbSpline
210
0.0
220
0.0
230
1.0
 70
     1
 71
     3
 72
    16
 73
    12
 74
     0
 42
0.0000000001
 43
0.0000000001
 40
0.0
 40
0.0
 40
0.0
 40
0.0
 40
0.3333333333333333
 40
0.3333333333333333
 40
0.3333333333333333
 40
0.3333333333333333
 40
0.6666666666666666
 40
0.6666666666666666
 40
0.6666666666666666
 40
0.6666666666666666
 40
1.0
 40
1.0
 40
1.0
 40
1.0
 10
-2.5754100000000002
 20
-3.5387800000000005
 30
0.0
 10
-2.4331700000000001
 20
-3.6200600000000005
 30
0.0
 10
-2.4026900000000002
 20
-3.7826200000000001
 30
0.0
 10
-2.4026900000000002
 20
-3.9401000000000002
 30
0.0
 10
-2.4026900000000002
 20
-3.9401000000000002
 30
0.0
 10
-2.27569
 20
-4.1788600000000002
 30
0.0
 10
-2.3874500000000003
 20
-4.4455600000000004
 30
0.0
 10
-2.5398500000000004
 20
-4.6513
 30
0.0
 10
-2.5398500000000004
 20
-4.6513
 30
0.0
 10
-2.6465300000000003
 20
-4.2880800000000008
 30
0.0
 10
-2.7633700000000001
 20
-3.9045400000000003
 30
0.0
 10
-2.5754100000000002
 20
-3.5387800000000005
 30
0.0
  0
SPLINE
  5
3C
100
AcDbEntity
  8
Ebene 1
 62
     7
100
AcDbSpline
210
0.0
220
0.0
230
1.0
 70
     1
 71
     3
 72
    20
 73
    16
 74
     0
 42
0.0000000001
 43
0.0000000001
 40
0.0
 40
0.0
 40
0.0
 40
0.0
 40
0.25
 40
0.25
 40
0.25
 40
0.25
 40
0.5
 40
0.5
 40
0.5
 40
0.5
 40
0.75
 40
0.75
 40
0.75
 40
0.75
 40
1.0
 40
1.0
 40
1.0
 40
1.0
 10
-3.1291300000000004
 20
-3.5286200000000001
 30
0.0
 10
-2.9843500000000001
 20
-3.6403800000000004
 30
0.0
 10
-2.9640300000000002
 20
-3.9096200000000003
 30
0.0
 10
-2.8929100000000001
 20
-4.0823400000000003
 30
0.0
 10
-2.8929100000000001
 20
-4.0823400000000003
 30
0.0
 10
-2.8929100000000001
 20
-4.0823400000000003
 30
0.0
 10
-3.1392900000000004
 20
-4.4938200000000004
 30
0.0
 10
-3.1392900000000004
 20
-4.4938200000000004
 30
0.0
 10
-3.1392900000000004
 20
-4.4938200000000004
 30
0.0
 10
-3.1392900000000004
 20
-4.4938200000000004
 30
0.0
 10
-3.3018500000000004
 20
-4.2245800000000004
 30
0.0
 10
-3.3018500000000004
 20
-4.2245800000000004
 30
0.0
 10
-3.3018500000000004
 20
-4.2245800000000004
 30
0.0
 10
-3.3018500000000004
 20
-4.2245800000000004
 30
0.0
 10
-3.1291300000000004
 20
-3.5286200000000001
 30
0.0
 10
-3.1291300000000004
 20
-3.5286200000000001
 30
0.0
  0
ENDSEC
  0
SECTION
  2
OBJECTS
  0
DICTIONARY
  5
19
100
AcDbDictionary
280
     0
281
     1
  3
ACAD_GROUP
350
1A
  3
ACAD_MLINESTYLE
350
1B
  3
ACAD_LAYOUT
350
1E
  3
ACAD_PLOTSETTINGS
350
22
  3
ACAD_PLOTSTYLENAME
350
1F
  3
ACAD_WIPEOUT_VARS
350
23
  0
DICTIONARY
  5
1A
102
{ACAD_REACTORS
330
19
102
}
100
AcDbDictionary
280
     0
281
     1
  0
DICTIONARY
  5
1B
102
{ACAD_REACTORS
330
19
102
}
100
AcDbDictionary
280
     0
281
     1
  3
Standard
350
1C
  0
MLINESTYLE
  5
1C
102
{ACAD_REACTORS
330
1B
102
}
100
AcDbMlineStyle
  2
Standard
 70
     0
  3

 62
     0
 51
90.0
 52
90.0
 71
     2
 49
0.5
 62
   256
  6
BYLAYER
 49
-0.5
 62
   256
  6
BYLAYER
  0
ACDBDICTIONARYWDFLT
  5
1F
102
{ACAD_REACTORS
330
19
102
}
100
AcDbDictionary
281
     1
  3
Normal
350
1D
100
AcDbDictionaryWithDefault
340
1D
  0
ACDBPLACEHOLDER
  5
1D
102
{ACAD_REACTORS
330
1F
102
}
  0
LAYOUT
  5
20
102
{ACAD_REACTORS
330
1E
102
}
100
AcDbPlotSettings
  1

  2

  4

  6

 40
0.0
 41
0.0
 42
0.0
 43
0.0
 44
0.0
 45
0.0
 46
0.0
 47
0.0
 48
0.0
 49
0.0
140
0.0
141
0.0
142
1.0
143
1.0
 70
  1024
 72
     0
 73
     0
 74
     0
  7

 75
     0
147
1.0
148
0.0
149
0.0
100
AcDbLayout
  1
Model
 70
     0
 71
     0
 10
0.0
 20
0.0
 11
0.0
 21
0.0
 12
0.0
 22
0.0
 32
0.0
 14
0.0
 24
0.0
 34
0.0
 15
0.0
 25
0.0
 35
0.0
146
0.0
 13
0.0
 23
0.0
 33
0.0
 16
0.0
 26
0.0
 36
0.0
 17
0.0
 27
0.0
 37
0.0
 76
     0
330
A
331
0
345
0
346
0
  0
LAYOUT
  5
21
102
{ACAD_REACTORS
330
1E
102
}
100
AcDbPlotSettings
  1

  2

  4

  6

 40
0.0
 41
0.0
 42
0.0
 43
0.0
 44
0.0
 45
0.0
 46
0.0
 47
0.0
 48
0.0
 49
0.0
140
0.0
141
0.0
142
1.0
143
1.0
 70
     0
 72
     0
 73
     0
 74
     0
  7

 75
     0
147
1.0
148
0.0
149
0.0
100
AcDbLayout
  1
Layout1
 70
     0
 71
     0
 10
0.0
 20
0.0
 11
0.0
 21
0.0
 12
0.0
 22
0.0
 32
0.0
 14
0.0
 24
0.0
 34
0.0
 15
0.0
 25
0.0
 35
0.0
146
0.0
 13
0.0
 23
0.0
 33
0.0
 16
0.0
 26
0.0
 36
0.0
 17
0.0
 27
0.0
 37
0.0
 76
     0
330
B
331
0
345
0
346
0
  0
DICTIONARY
  5
1E
102
{ACAD_REACTORS
330
19
102
}
100
AcDbDictionary
280
     0
281
     1
  3
Layout1
350
21
  3
Model
350
20
  0
DICTIONARY
  5
22
102
{ACAD_REACTORS
330
19
102
}
100
AcDbDictionary
280
     0
281
     1
  0
WIPEOUTVARIABLES
  5
23
100
AcDbWipeoutVariables
 70
     1
  0
ENDSEC
  0
EOF
