  0
SECTION
  2
HEADER
  9
$ACADVER
  1
AC1015
  9
$ACADMAINTVER
 70
     6
  9
$DWGCODEPAGE
  3
DOS850
  9
$INSBASE
 10
0.0
 20
0.0
 30
0.0
  9
$EXTMIN
 10
-3.11389
 20
-6.91952
 30
1.000000E+20
  9
$EXTMAX
 10
3.11963
 20
6.91331
 30
-1.000000E+20
  9
$LIMMIN
 10
0.0
 20
0.0
  9
$LIMMAX
 10
0.0
 20
0.0
  9
$ORTHOMODE
 70
     0
  9
$REGENMODE
 70
     1
  9
$FILLMODE
 70
     1
  9
$QTEXTMODE
 70
     0
  9
$MIRRTEXT
 70
     1
  9
$LTSCALE
 40
1.0
  9
$ATTMODE
 70
     1
  9
$TEXTSIZE
 40
0.2
  9
$TRACEWID
 40
0.05
  9
$TEXTSTYLE
  7
Standard
  9
$CLAYER
  8
0
  9
$CELTYPE
  6
Continuous
  9
$CECOLOR
 62
   256
  9
$CELTSCALE
 40
1.0
  9
$DISPSILH
 70
     0
  9
$DIMSCALE
 40
1.0
  9
$DIMASZ
 40
0.18
  9
$DIMEXO
 40
0.0625
  9
$DIMDLI
 40
0.38
  9
$DIMRND
 40
0.0
  9
$DIMDLE
 40
0.0
  9
$DIMEXE
 40
0.18
  9
$DIMTP
 40
0.0
  9
$DIMTM
 40
0.0
  9
$DIMTXT
 40
0.18
  9
$DIMCEN
 40
0.09
  9
$DIMTSZ
 40
0.0
  9
$DIMTOL
 70
     0
  9
$DIMLIM
 70
     0
  9
$DIMTIH
 70
     1
  9
$DIMTOH
 70
     1
  9
$DIMSE1
 70
     0
  9
$DIMSE2
 70
     0
  9
$DIMTAD
 70
     0
  9
$DIMZIN
 70
     0
  9
$DIMBLK
  1

  9
$DIMASO
 70
     1
  9
$DIMSHO
 70
     1
  9
$DIMPOST
  1

  9
$DIMAPOST
  1

  9
$DIMALT
 70
     0
  9
$DIMALTD
 70
     2
  9
$DIMALTF
 40
25.4
  9
$DIMLFAC
 40
1.0
  9
$DIMTOFL
 70
     0
  9
$DIMTVP
 40
0.0
  9
$DIMTIX
 70
     0
  9
$DIMSOXD
 70
     0
  9
$DIMSAH
 70
     0
  9
$DIMBLK1
  1

  9
$DIMBLK2
  1

  9
$DIMSTYLE
  2
Standard
  9
$DIMCLRD
 70
     0
  9
$DIMCLRE
 70
     0
  9
$DIMCLRT
 70
     0
  9
$DIMTFAC
 40
1.0
  9
$DIMGAP
 40
0.09
  9
$DIMJUST
 70
     0
  9
$DIMSD1
 70
     0
  9
$DIMSD2
 70
     0
  9
$DIMTOLJ
 70
     1
  9
$DIMTZIN
 70
     0
  9
$DIMALTZ
 70
     0
  9
$DIMALTTZ
 70
     0
  9
$DIMUPT
 70
     0
  9
$DIMDEC
 70
     4
  9
$DIMTDEC
 70
     4
  9
$DIMALTU
 70
     2
  9
$DIMALTTD
 70
     2
  9
$DIMTXSTY
  7
Standard
  9
$DIMAUNIT
 70
     0
  9
$DIMADEC
 70
     0
  9
$DIMALTRND
 40
0.0
  9
$DIMAZIN
 70
     0
  9
$DIMDSEP
 70
     0
  9
$DIMATFIT
 70
     3
  9
$DIMFRAC
 70
     0
  9
$DIMLDRBLK
  1

  9
$DIMLUNIT
 70
     2
  9
$DIMLWD
 70
     0
  9
$DIMLWE
 70
     0
  9
$DIMTMOVE
 70
     0
  9
$LUNITS
 70
     2
  9
$LUPREC
 70
     4
  9
$SKETCHINC
 40
0.1
  9
$FILLETRAD
 40
0.0
  9
$AUNITS
 70
     0
  9
$AUPREC
 70
     0
  9
$MENU
  1
acad
  9
$ELEVATION
 40
0.0
  9
$PELEVATION
 40
0.0
  9
$THICKNESS
 40
0.0
  9
$LIMCHECK
 70
     0
  9
$CHAMFERA
 40
0.0
  9
$CHAMFERB
 40
0.0
  9
$CHAMFERC
 40
0.0
  9
$CHAMFERD
 40
0.0
  9
$SKPOLY
 70
     0
  9
$TDCREATE
 40
0.000000000
  9
$TDUCREATE
 40
0.000000000
  9
$TDUPDATE
 40
0.000000000
  9
$TDUUPDATE
 40
0.000000000
  9
$TDINDWG
 40
0.0000000000
  9
$TDUSRTIMER
 40
0.0000000000
  9
$USRTIMER
 70
     1
  9
$ANGBASE
 50
0.0
  9
$ANGDIR
 70
     0
  9
$PDMODE
 70
     0
  9
$PDSIZE
 40
0.0
  9
$PLINEWID
 40
0.0
  9
$SPLFRAME
 70
     0
  9
$SPLINETYPE
 70
     6
  9
$SPLINESEGS
 70
     8
  9
$HANDSEED
  5
3E
  9
$SURFTAB1
 70
     6
  9
$SURFTAB2
 70
     6
  9
$SURFTYPE
 70
     6
  9
$SURFU
 70
     6
  9
$SURFV
 70
     6
  9
$UCSBASE
  2

  9
$UCSNAME
  2

  9
$UCSORG
 10
0.0
 20
0.0
 30
0.0
  9
$UCSXDIR
 10
1.0
 20
0.0
 30
0.0
  9
$UCSYDIR
 10
0.0
 20
1.0
 30
0.0
  9
$UCSORTHOREF
  2

  9
$UCSORTHOVIEW
 70
     0
  9
$UCSORGTOP
 10
0.0
 20
0.0
 30
0.0
  9
$UCSORGBOTTOM
 10
0.0
 20
0.0
 30
0.0
  9
$UCSORGLEFT
 10
0.0
 20
0.0
 30
0.0
  9
$UCSORGRIGHT
 10
0.0
 20
0.0
 30
0.0
  9
$UCSORGFRONT
 10
0.0
 20
0.0
 30
0.0
  9
$UCSORGBACK
 10
0.0
 20
0.0
 30
0.0
  9
$PUCSBASE
  2

  9
$PUCSNAME
  2

  9
$PUCSORG
 10
0.0
 20
0.0
 30
0.0
  9
$PUCSXDIR
 10
1.0
 20
0.0
 30
0.0
  9
$PUCSYDIR
 10
0.0
 20
1.0
 30
0.0
  9
$PUCSORTHOREF
  2

  9
$PUCSORTHOVIEW
 70
     0
  9
$PUCSORGTOP
 10
0.0
 20
0.0
 30
0.0
  9
$PUCSORGBOTTOM
 10
0.0
 20
0.0
 30
0.0
  9
$PUCSORGLEFT
 10
0.0
 20
0.0
 30
0.0
  9
$PUCSORGRIGHT
 10
0.0
 20
0.0
 30
0.0
  9
$PUCSORGFRONT
 10
0.0
 20
0.0
 30
0.0
  9
$PUCSORGBACK
 10
0.0
 20
0.0
 30
0.0
  9
$USERI1
 70
     0
  9
$USERI2
 70
     0
  9
$USERI3
 70
     0
  9
$USERI4
 70
     0
  9
$USERI5
 70
     0
  9
$USERR1
 40
0.0
  9
$USERR2
 40
0.0
  9
$USERR3
 40
0.0
  9
$USERR4
 40
0.0
  9
$USERR5
 40
0.0
  9
$WORLDVIEW
 70
     1
  9
$SHADEDGE
 70
     3
  9
$SHADEDIF
 70
    70
  9
$TILEMODE
 70
     1
  9
$MAXACTVP
 70
    16
  9
$PINSBASE
 10
0.0
 20
0.0
 30
0.0
  9
$PLIMCHECK
 70
     0
  9
$PEXTMIN
 10
1.000000E+20
 20
1.000000E+20
 30
1.000000E+20
  9
$PEXTMAX
 10
-1.000000E+20
 20
-1.000000E+20
 30
-1.000000E+20
  9
$PLIMMIN
 10
0.0
 20
0.0
  9
$PLIMMAX
 10
12.0
 20
9.0
  9
$UNITMODE
 70
     0
  9
$VISRETAIN
 70
     0
  9
$PLINEGEN
 70
     1
  9
$PSLTSCALE
 70
     0
  9
$TREEDEPTH
 70
  3020
  9
$CMLSTYLE
  2
Standard
  9
$CMLJUST
 70
     0
  9
$CMLSCALE
 40
1.0
  9
$PROXYGRAPHICS
 70
     0
  9
$MEASUREMENT
 70
     0
  9
$CELWEIGHT
370
     0
  9
$ENDCAPS
280
     0
  9
$JOINSTYLE
280
     0
  9
$LWDISPLAY
290
     0
  9
$INSUNITS
 70
     5
  9
$HYPERLINKBASE
  1

  9
$XEDIT
290
     1
  9
$CEPSNTYPE
380
     0
  9
$PSTYLEMODE
290
     1
  9
$FINGERPRINTGUID
  2

  9
$VERSIONGUID
  2

  9
$EXTNAMES
290
     1
  9
$PSVPSCALE
 40
0.0
  0
ENDSEC
  0
SECTION
  2
CLASSES
  0
CLASS
  1
LWPOLYLINE
  2
AcDbPolyline
  3
AutoCAD 2000
 90
    32768
280
     0
281
     1
  0
CLASS
  1
IMAGE
  2
AcDbRasterImage
  3
ISM
 90
    32895
280
     0
281
     1
  0
CLASS
  1
OLE2FRAME
  2
AcDbOle2Frame
  3
AutoCAD 2000
 90
    32768
280
     0
281
     1
  0
CLASS
  1
HATCH
  2
AcDbHatch
  3
AutoCAD 2000
 90
    32768
280
     0
281
     1
  0
CLASS
  1
DICTIONARYVAR
  2
AcDbDictionaryVar
  3
AutoCAD 2000
 90
    32768
280
     0
281
     0
  0
CLASS
  1
RASTERVARIABLES
  2
AcDbRasterVariables
  3
ISM
 90
    32768
280
     0
281
     0
  0
CLASS
  1
IMAGEDEF
  2
AcDbRasterImageDef
  3
ISM
 90
    32768
280
     0
281
     0
  0
CLASS
  1
IMAGEDEF_REACTOR
  2
AcDbRasterImageDefReactor
  3
ISM
 90
    32769
280
     0
281
     0
  0
CLASS
  1
IDBUFFER
  2
AcDbIdBuffer
  3
AutoCAD 2000
 90
    32768
280
     0
281
     0
  0
CLASS
  1
SPATIAL_FILTER
  2
AcDbSpatialFilter
  3
AutoCAD 2000
 90
    32768
280
     0
281
     0
  0
CLASS
  1
XRECORD
  2
AcDbXrecord
  3
AutoCAD 2000
 90
    32768
280
     0
281
     0
  0
CLASS
  1
SORTENTSTABLE
  2
AcDbSortentsTable
  3
AutoCAD 2000
 90
    32768
280
     0
281
     0
  0
CLASS
  1
LAYER_INDEX
  2
AcDbLayerIndex
  3
AutoCAD 2000
 90
    32768
280
     0
281
     0
  0
CLASS
  1
SPATIAL_INDEX
  2
AcDbSpatialIndex
  3
AutoCAD 2000
 90
    32768
280
     0
281
     0
  0
CLASS
  1
OBJECT_PTR
  2
CAseDLPNTableRecord
  3
"ASE-LPNTableRecord"
 90
    32769
280
     0
281
     0
  0
CLASS
  1
LAYOUT
  2
AcDbLayout
  3
AutoCAD 2000
 90
        0
280
     0
281
     0
  0
CLASS
  1
PLOTSETTINGS
  2
AcDbPlotSettings
  3
AutoCAD 2000
 90
    32768
280
     0
281
     0
  0
CLASS
  1
ACDBDICTIONARYWDFLT
  2
AcDbDictionaryWithDefault
  3
AutoCAD 2000
 90
        0
280
     0
281
     0
  0
CLASS
  1
ACDBPLACEHOLDER
  2
AcDbPlaceHolder
  3
AutoCAD 2000
 90
        0
280
     0
281
     0
  0
CLASS
  1
VBA_PROJECT
  2
AcDbVbaProject
  3
acadvba
 90
    32768
280
     0
281
     0
  0
CLASS
  1
WIPEOUT
  2
AcDbWipeout
  3
WipeOut|AutoCAD Express Tool|expresstools@autodesk.com
 90
    32895
280
     0
281
     1
  0
CLASS
  1
WIPEOUTVARIABLES
  2
AcDbWipeoutVariables
  3
WipeOut|AutoCAD Express Tool|expresstools@autodesk.com
 90
        0
280
     0
281
     0
  0
CLASS
  1
RTEXT
  2
RText
  3
RText|AutoCAD Express Tool|expresstools@autodesk.com
 90
    32768
280
     0
281
     1
  0
CLASS
  1
ARCALIGNEDTEXT
  2
AcDbArcAlignedText
  3
ATEXT|AutoCAD Express Tool|expresstools@autodesk.com
 90
    32768
280
     0
281
     1
  0
ENDSEC
  0
SECTION
  2
TABLES
  0
TABLE
  2
VPORT
  5
7
100
AcDbSymbolTable
 70
     1
  0
VPORT
  5
15
100
AcDbSymbolTableRecord
100
AcDbViewportTableRecord
  2
*ACTIVE
 70
     0
 10
0.0
 20
0.0
 11
1.0
 21
1.0
 12
6.591288
 22
4.579184
 13
0.0
 23
0.0
 14
1.0
 24
1.0
 15
0.0
 25
0.0
 16
0.0
 26
0.0
 36
1.0
 17
0.0
 27
0.0
 37
0.0
 40
9.158369
 41
0.688564
 42
50.0
 43
0.0
 44
0.0
 50
0.0
 51
0.0
 71
     0
 72
   100
 73
     1
 74
     1
 75
     0
 76
     0
 77
     0
 78
     0
281
     0
 65
     0
110
0.0
120
0.0
130
0.0
111
1.0
121
0.0
131
0.0
112
0.0
122
1.0
132
0.0
345
0
346
0
 79
     0
146
0.0
  0
ENDTAB
  0
TABLE
  2
LTYPE
  5
4
100
AcDbSymbolTable
 70
     3
  0
LTYPE
  5
11
100
AcDbSymbolTableRecord
100
AcDbLinetypeTableRecord
  2
ByBlock
 70
    64
  3

 72
    65
 73
     0
 40
0.0
  0
LTYPE
  5
12
100
AcDbSymbolTableRecord
100
AcDbLinetypeTableRecord
  2
ByLayer
 70
    64
  3

 72
    65
 73
     0
 40
0.0
  0
LTYPE
  5
13
100
AcDbSymbolTableRecord
100
AcDbLinetypeTableRecord
  2
Continuous
 70
    64
  3
Solid line
 72
    65
 73
     0
 40
0.0
  0
ENDTAB
  0
TABLE
  2
LAYER
  5
2
100
AcDbSymbolTable
 70
     2
  0
LAYER
  5
14
100
AcDbSymbolTableRecord
100
AcDbLayerTableRecord
  2
0
 70
     0
 62
     7
  6
Continuous
290
     1
370
    -3
390
1D
  0
LAYER
  5
24
100
AcDbSymbolTableRecord
100
AcDbLayerTableRecord
  2
Ebene 1
 70
     0
 62
     7
  6
Continuous
290
     1
370
    -3
390
1F
  0
ENDTAB
  0
TABLE
  2
STYLE
  5
3
100
AcDbSymbolTable
 70
     1
  0
STYLE
  5
17
100
AcDbSymbolTableRecord
100
AcDbTextStyleTableRecord
  2
Standard
 70
     0
 40
0.0
 41
1.0
 50
0.0
 71
     0
 42
0.0
  3
txt
  4

  0
ENDTAB
  0
TABLE
  2
VIEW
  5
5
100
AcDbSymbolTable
 70
     0
  0
ENDTAB
  0
TABLE
  2
UCS
  5
6
100
AcDbSymbolTable
 70
     0
  0
ENDTAB
  0
TABLE
  2
APPID
  5
8
100
AcDbSymbolTable
 70
     1
  0
APPID
  5
16
100
AcDbSymbolTableRecord
100
AcDbRegAppTableRecord
  2
ACAD
 70
     0
  0
ENDTAB
  0
TABLE
  2
DIMSTYLE
  5
9
100
AcDbSymbolTable
 70
     1
100
AcDbDimStyleTable
 71
     0
  0
DIMSTYLE
105
18
100
AcDbSymbolTableRecord
100
AcDbDimStyleTableRecord
  2
Standard
 70
     0
  3

  4

 40
1.0
 41
0.18
 42
0.0625
 43
0.38
 44
0.18
 45
0.0
 46
0.0
 47
0.0
 48
0.0
 71
     0
 72
     0
 73
     1
 74
     1
 75
     0
 76
     0
 77
     0
 78
     0
 79
     0
140
0.18
141
0.09
142
0.0
143
25.4
144
1.0
145
0.0
146
1.0
147
0.09
148
0.0
170
     0
171
     2
172
     0
173
     0
174
     0
175
     0
176
     0
177
     0
178
     0
179
     0
271
     4
272
     4
273
     2
274
     2
275
     0
276
     0
277
     2
278
    46
279
     0
280
     0
281
     0
282
     0
283
     1
284
     0
285
     0
286
     0
288
     0
340
17
341
0
342
0
343
0
344
0
371
    -2
372
    -2
  0
ENDTAB
  0
TABLE
  2
BLOCK_RECORD
  5
1
100
AcDbSymbolTable
 70
     0
  0
BLOCK_RECORD
  5
A
100
AcDbSymbolTableRecord
100
AcDbBlockTableRecord
  2
*MODEL_SPACE
340
20
  0
BLOCK_RECORD
  5
B
100
AcDbSymbolTableRecord
100
AcDbBlockTableRecord
  2
*PAPER_SPACE
340
21
  0
ENDTAB
  0
ENDSEC
  0
SECTION
  2
BLOCKS
  0
BLOCK
  5
D
100
AcDbEntity
  8
0
100
AcDbBlockBegin
  2
*MODEL_SPACE
 70
     0
 10
0.0
 20
0.0
 30
0.0
  3
*MODEL_SPACE
  1

  0
ENDBLK
  5
E
100
AcDbEntity
  8
0
100
AcDbBlockEnd
  0
BLOCK
  5
F
100
AcDbEntity
 67
     1
  8
0
100
AcDbBlockBegin
  2
*PAPER_SPACE
 70
     0
 10
0.0
 20
0.0
 30
0.0
  3
*PAPER_SPACE
  1

  0
ENDBLK
  5
10
100
AcDbEntity
 67
     1
  8
0
100
AcDbBlockEnd
  0
ENDSEC
  0
SECTION
  2
ENTITIES
  0
SPLINE
  5
25
100
AcDbEntity
  8
Ebene 1
100
AcDbSpline
210
0.0
220
0.0
230
1.0
 70
     1
 71
     3
 72
   132
 73
   128
 74
     0
 42
0.0000000001
 43
0.0000000001
 40
0.0
 40
0.0
 40
0.0
 40
0.0
 40
0.03125
 40
0.03125
 40
0.03125
 40
0.03125
 40
0.0625
 40
0.0625
 40
0.0625
 40
0.0625
 40
0.09375
 40
0.09375
 40
0.09375
 40
0.09375
 40
0.125
 40
0.125
 40
0.125
 40
0.125
 40
0.15625
 40
0.15625
 40
0.15625
 40
0.15625
 40
0.1875
 40
0.1875
 40
0.1875
 40
0.1875
 40
0.21875
 40
0.21875
 40
0.21875
 40
0.21875
 40
0.25
 40
0.25
 40
0.25
 40
0.25
 40
0.28125
 40
0.28125
 40
0.28125
 40
0.28125
 40
0.3125
 40
0.3125
 40
0.3125
 40
0.3125
 40
0.34375
 40
0.34375
 40
0.34375
 40
0.34375
 40
0.375
 40
0.375
 40
0.375
 40
0.375
 40
0.40625
 40
0.40625
 40
0.40625
 40
0.40625
 40
0.4375
 40
0.4375
 40
0.4375
 40
0.4375
 40
0.46875
 40
0.46875
 40
0.46875
 40
0.46875
 40
0.5
 40
0.5
 40
0.5
 40
0.5
 40
0.53125
 40
0.53125
 40
0.53125
 40
0.53125
 40
0.5625
 40
0.5625
 40
0.5625
 40
0.5625
 40
0.59375
 40
0.59375
 40
0.59375
 40
0.59375
 40
0.625
 40
0.625
 40
0.625
 40
0.625
 40
0.65625
 40
0.65625
 40
0.65625
 40
0.65625
 40
0.6875
 40
0.6875
 40
0.6875
 40
0.6875
 40
0.71875
 40
0.71875
 40
0.71875
 40
0.71875
 40
0.75
 40
0.75
 40
0.75
 40
0.75
 40
0.78125
 40
0.78125
 40
0.78125
 40
0.78125
 40
0.8125
 40
0.8125
 40
0.8125
 40
0.8125
 40
0.84375
 40
0.84375
 40
0.84375
 40
0.84375
 40
0.875
 40
0.875
 40
0.875
 40
0.875
 40
0.90625
 40
0.90625
 40
0.90625
 40
0.90625
 40
0.9375
 40
0.9375
 40
0.9375
 40
0.9375
 40
0.96875
 40
0.96875
 40
0.96875
 40
0.96875
 40
1.0
 40
1.0
 40
1.0
 40
1.0
 10
-0.09129
 20
6.913310000000001
 30
0.0
 10
0.38368
 20
6.913310000000001
 30
0.0
 10
0.8764400000000001
 20
6.8345700000000003
 30
0.0
 10
1.2625200000000001
 20
6.5246900000000005
 30
0.0
 10
1.2625200000000001
 20
6.5246900000000005
 30
0.0
 10
1.5470000000000002
 20
6.5119900000000008
 30
0.0
 10
1.8060800000000001
 20
6.3951500000000001
 30
0.0
 10
2.0397600000000002
 20
6.2402100000000003
 30
0.0
 10
2.0397600000000002
 20
6.2402100000000003
 30
0.0
 10
2.9668600000000001
 20
5.2292900000000007
 30
0.0
 10
3.2589600000000001
 20
3.8500700000000001
 30
0.0
 10
3.0608400000000002
 20
2.5292700000000004
 30
0.0
 10
3.0608400000000002
 20
2.5292700000000004
 30
0.0
 10
2.9211400000000003
 20
1.6047100000000001
 30
0.0
 10
2.5426800000000003
 20
0.7106300000000001
 30
0.0
 10
1.9737200000000001
 20
-0.01072
 30
0.0
 10
1.9737200000000001
 20
-0.01072
 30
0.0
 10
1.8568800000000001
 20
-0.21392
 30
0.0
 10
1.7425800000000002
 20
-0.4171200000000001
 30
0.0
 10
1.6765400000000001
 20
-0.6406400000000001
 30
0.0
 10
1.6765400000000001
 20
-0.6406400000000001
 30
0.0
 10
1.5597000000000001
 20
-1.04196
 30
0.0
 10
1.4301600000000001
 20
-1.6388600000000002
 30
0.0
 10
1.8441800000000002
 20
-1.8776200000000001
 30
0.0
 10
1.8441800000000002
 20
-1.8776200000000001
 30
0.0
 10
1.7527400000000002
 20
-1.92334
 30
0.0
 10
1.6384400000000001
 20
-1.9004800000000002
 30
0.0
 10
1.5470000000000002
 20
-1.8522200000000002
 30
0.0
 10
1.5470000000000002
 20
-1.8522200000000002
 30
0.0
 10
1.40476
 20
-1.7506200000000001
 30
0.0
 10
1.3285600000000002
 20
-1.6236200000000001
 30
0.0
 10
1.23712
 20
-1.4839200000000001
 30
0.0
 10
1.23712
 20
-1.4839200000000001
 30
0.0
 10
0.91454
 20
-2.0071600000000003
 30
0.0
 10
-0.09129
 20
-2.4084800000000004
 30
0.0
 10
0.24144
 20
-3.15524
 30
0.0
 10
0.24144
 20
-3.15524
 30
0.0
 10
0.33288
 20
-3.2238200000000004
 30
0.0
 10
0.4624200000000001
 20
-3.2111200000000002
 30
0.0
 10
0.5665600000000001
 20
-3.2009600000000002
 30
0.0
 10
0.5665600000000001
 20
-3.2009600000000002
 30
0.0
 10
0.5665600000000001
 20
-3.2009600000000002
 30
0.0
 10
0.48782
 20
-3.2924000000000002
 30
0.0
 10
0.48782
 20
-3.2924000000000002
 30
0.0
 10
0.48782
 20
-3.2924000000000002
 30
0.0
 10
0.3455800000000001
 20
-3.3762200000000004
 30
0.0
 10
0.15254
 20
-3.4295600000000004
 30
0.0
 10
-0.01255
 20
-3.3635200000000003
 30
0.0
 10
-0.01255
 20
-3.3635200000000003
 30
0.0
 10
-0.28433
 20
-3.1958800000000003
 30
0.0
 10
-0.29703
 20
-2.8555200000000003
 30
0.0
 10
-0.25893
 20
-2.5685000000000002
 30
0.0
 10
-0.25893
 20
-2.5685000000000002
 30
0.0
 10
-1.6533900000000001
 20
-3.9045400000000003
 30
0.0
 10
0.43702
 20
-5.4387000000000008
 30
0.0
 10
-0.33513
 20
-6.9195200000000003
 30
0.0
 10
-0.33513
 20
-6.9195200000000003
 30
0.0
 10
0.0357
 20
-5.3574200000000003
 30
0.0
 10
-2.4661900000000001
 20
-4.7833800000000002
 30
0.0
 10
-1.8337300000000001
 20
-3.1501600000000001
 30
0.0
 10
-1.8337300000000001
 20
-3.1501600000000001
 30
0.0
 10
-2.1309100000000001
 20
-3.3178000000000001
 30
0.0
 10
-2.5068300000000003
 20
-3.0282400000000003
 30
0.0
 10
-2.4661900000000001
 20
-2.6955
 30
0.0
 10
-2.4661900000000001
 20
-2.6955
 30
0.0
 10
-2.4407900000000002
 20
-2.4973800000000002
 30
0.0
 10
-2.2731500000000002
 20
-2.1367000000000003
 30
0.0
 10
-2.0140700000000002
 20
-2.2840200000000004
 30
0.0
 10
-2.0140700000000002
 20
-2.2840200000000004
 30
0.0
 10
-2.1690100000000001
 20
-2.3246600000000002
 30
0.0
 10
-2.2985500000000001
 20
-2.5812000000000004
 30
0.0
 10
-2.1436100000000002
 20
-2.7183600000000001
 30
0.0
 10
-2.1436100000000002
 20
-2.7183600000000001
 30
0.0
 10
-1.6533900000000001
 20
-2.8987000000000003
 30
0.0
 10
-1.4857500000000001
 20
-2.0732000000000004
 30
0.0
 10
-1.4984500000000001
 20
-1.8141200000000002
 30
0.0
 10
-1.4984500000000001
 20
-1.8141200000000002
 30
0.0
 10
-1.62799
 20
-1.9741400000000002
 30
0.0
 10
-1.6152900000000001
 20
-2.2027400000000004
 30
0.0
 10
-1.7194300000000002
 20
-2.36022
 30
0.0
 10
-1.7194300000000002
 20
-2.36022
 30
0.0
 10
-1.8718300000000001
 20
-1.7201400000000002
 30
0.0
 10
-1.4984500000000001
 20
-1.1029200000000001
 30
0.0
 10
-1.2012700000000001
 20
-0.55428
 30
0.0
 10
-1.2012700000000001
 20
-0.55428
 30
0.0
 10
-1.5238500000000001
 20
-0.8514600000000001
 30
0.0
 10
-1.9505700000000001
 20
-0.6685800000000001
 30
0.0
 10
-2.3366500000000001
 20
-0.7016000000000001
 30
0.0
 10
-2.3366500000000001
 20
-0.7016000000000001
 30
0.0
 10
-2.5068300000000003
 20
-0.6000000000000001
 30
0.0
 10
-2.4407900000000002
 20
0.44901
 30
0.0
 10
-2.6363700000000003
 20
-0.09962
 30
0.0
 10
-2.6363700000000003
 20
-0.09962
 30
0.0
 10
-2.64907
 20
-0.16058
 30
0.0
 10
-2.61097
 20
-0.35616
 30
0.0
 10
-2.6947900000000002
 20
-0.26218
 30
0.0
 10
-2.6947900000000002
 20
-0.26218
 30
0.0
 10
-2.6795500000000003
 20
0.26867
 30
0.0
 10
-2.9640300000000002
 20
0.72587
 30
0.0
 10
-2.9716500000000003
 20
1.2414900000000002
 30
0.0
 10
-2.9716500000000003
 20
1.2414900000000002
 30
0.0
 10
-2.8522700000000003
 20
1.1856100000000001
 30
0.0
 10
-2.86497
 20
0.8630300000000001
 30
0.0
 10
-2.7151100000000001
 20
0.76905
 30
0.0
 10
-2.7151100000000001
 20
0.76905
 30
0.0
 10
-2.7659100000000003
 20
1.2211700000000001
 30
0.0
 10
-2.7481300000000002
 20
1.6351900000000001
 30
0.0
 10
-2.7252700000000001
 20
2.08223
 30
0.0
 10
-2.7252700000000001
 20
2.08223
 30
0.0
 10
-2.9208500000000002
 20
2.1101700000000001
 30
0.0
 10
-3.0580100000000003
 20
2.3260700000000001
 30
0.0
 10
-3.11389
 20
2.50895
 30
0.0
 10
-3.11389
 20
2.50895
 30
0.0
 10
-3.0478500000000004
 20
2.7248500000000004
 30
0.0
 10
-2.8700500000000004
 20
2.9178900000000003
 30
0.0
 10
-2.8421100000000004
 20
3.1541100000000002
 30
0.0
 10
-2.8421100000000004
 20
3.1541100000000002
 30
0.0
 10
-2.8014700000000001
 20
3.5020900000000004
 30
0.0
 10
-2.9945100000000004
 20
3.7840300000000004
 30
0.0
 10
-3.0097500000000004
 20
4.1218500000000002
 30
0.0
 10
-3.0097500000000004
 20
4.1218500000000002
 30
0.0
 10
-2.9716500000000003
 20
4.3174300000000008
 30
0.0
 10
-2.8014700000000001
 20
4.4393500000000001
 30
0.0
 10
-2.7024100000000004
 20
4.6044500000000008
 30
0.0
 10
-2.7024100000000004
 20
4.6044500000000008
 30
0.0
 10
-2.5957300000000001
 20
5.9176300000000008
 30
0.0
 10
-1.3562100000000001
 20
6.8726700000000003
 30
0.0
 10
-0.09129
 20
6.913310000000001
 30
0.0
  0
SPLINE
  5
26
100
AcDbEntity
  8
Ebene 1
 62
     7
100
AcDbSpline
210
0.0
220
0.0
230
1.0
 70
     1
 71
     3
 72
   168
 73
   164
 74
     0
 42
0.0000000001
 43
0.0000000001
 40
0.0
 40
0.0
 40
0.0
 40
0.0
 40
0.024390243902439
 40
0.024390243902439
 40
0.024390243902439
 40
0.024390243902439
 40
0.0487804878048781
 40
0.0487804878048781
 40
0.0487804878048781
 40
0.0487804878048781
 40
0.0731707317073171
 40
0.0731707317073171
 40
0.0731707317073171
 40
0.0731707317073171
 40
0.0975609756097561
 40
0.0975609756097561
 40
0.0975609756097561
 40
0.0975609756097561
 40
0.1219512195121951
 40
0.1219512195121951
 40
0.1219512195121951
 40
0.1219512195121951
 40
0.1463414634146341
 40
0.1463414634146341
 40
0.1463414634146341
 40
0.1463414634146341
 40
0.1707317073170732
 40
0.1707317073170732
 40
0.1707317073170732
 40
0.1707317073170732
 40
0.1951219512195122
 40
0.1951219512195122
 40
0.1951219512195122
 40
0.1951219512195122
 40
0.2195121951219512
 40
0.2195121951219512
 40
0.2195121951219512
 40
0.2195121951219512
 40
0.2439024390243902
 40
0.2439024390243902
 40
0.2439024390243902
 40
0.2439024390243902
 40
0.2682926829268292
 40
0.2682926829268292
 40
0.2682926829268292
 40
0.2682926829268292
 40
0.2926829268292683
 40
0.2926829268292683
 40
0.2926829268292683
 40
0.2926829268292683
 40
0.3170731707317073
 40
0.3170731707317073
 40
0.3170731707317073
 40
0.3170731707317073
 40
0.3414634146341464
 40
0.3414634146341464
 40
0.3414634146341464
 40
0.3414634146341464
 40
0.3658536585365854
 40
0.3658536585365854
 40
0.3658536585365854
 40
0.3658536585365854
 40
0.3902439024390245
 40
0.3902439024390245
 40
0.3902439024390245
 40
0.3902439024390245
 40
0.4146341463414635
 40
0.4146341463414635
 40
0.4146341463414635
 40
0.4146341463414635
 40
0.4390243902439026
 40
0.4390243902439026
 40
0.4390243902439026
 40
0.4390243902439026
 40
0.4634146341463416
 40
0.4634146341463416
 40
0.4634146341463416
 40
0.4634146341463416
 40
0.4878048780487806
 40
0.4878048780487806
 40
0.4878048780487806
 40
0.4878048780487806
 40
0.5121951219512196
 40
0.5121951219512196
 40
0.5121951219512196
 40
0.5121951219512196
 40
0.5365853658536587
 40
0.5365853658536587
 40
0.5365853658536587
 40
0.5365853658536587
 40
0.5609756097560977
 40
0.5609756097560977
 40
0.5609756097560977
 40
0.5609756097560977
 40
0.5853658536585368
 40
0.5853658536585368
 40
0.5853658536585368
 40
0.5853658536585368
 40
0.6097560975609758
 40
0.6097560975609758
 40
0.6097560975609758
 40
0.6097560975609758
 40
0.6341463414634149
 40
0.6341463414634149
 40
0.6341463414634149
 40
0.6341463414634149
 40
0.6585365853658539
 40
0.6585365853658539
 40
0.6585365853658539
 40
0.6585365853658539
 40
0.682926829268293
 40
0.682926829268293
 40
0.682926829268293
 40
0.682926829268293
 40
0.707317073170732
 40
0.707317073170732
 40
0.707317073170732
 40
0.707317073170732
 40
0.7317073170731711
 40
0.7317073170731711
 40
0.7317073170731711
 40
0.7317073170731711
 40
0.7560975609756101
 40
0.7560975609756101
 40
0.7560975609756101
 40
0.7560975609756101
 40
0.7804878048780491
 40
0.7804878048780491
 40
0.7804878048780491
 40
0.7804878048780491
 40
0.8048780487804882
 40
0.8048780487804882
 40
0.8048780487804882
 40
0.8048780487804882
 40
0.8292682926829272
 40
0.8292682926829272
 40
0.8292682926829272
 40
0.8292682926829272
 40
0.8536585365853663
 40
0.8536585365853663
 40
0.8536585365853663
 40
0.8536585365853663
 40
0.8780487804878053
 40
0.8780487804878053
 40
0.8780487804878053
 40
0.8780487804878053
 40
0.9024390243902444
 40
0.9024390243902444
 40
0.9024390243902444
 40
0.9024390243902444
 40
0.9268292682926834
 40
0.9268292682926834
 40
0.9268292682926834
 40
0.9268292682926834
 40
0.9512195121951225
 40
0.9512195121951225
 40
0.9512195121951225
 40
0.9512195121951225
 40
0.9756097560975615
 40
0.9756097560975615
 40
0.9756097560975615
 40
0.9756097560975615
 40
1.0
 40
1.0
 40
1.0
 40
1.0
 10
1.2117200000000001
 20
3.9796100000000005
 30
0.0
 10
1.2117200000000001
 20
3.9796100000000005
 30
0.0
 10
1.2117200000000001
 20
4.0939100000000002
 30
0.0
 10
1.2117200000000001
 20
4.0939100000000002
 30
0.0
 10
1.2117200000000001
 20
4.0939100000000002
 30
0.0
 10
1.02376
 20
3.9745300000000001
 30
0.0
 10
1.1787000000000001
 20
3.7459300000000004
 30
0.0
 10
1.2168000000000001
 20
3.6011500000000001
 30
0.0
 10
1.2168000000000001
 20
3.6011500000000001
 30
0.0
 10
1.27522
 20
3.3852500000000001
 30
0.0
 10
1.09996
 20
3.1668100000000003
 30
0.0
 10
1.0567800000000001
 20
2.9509100000000004
 30
0.0
 10
1.0567800000000001
 20
2.9509100000000004
 30
0.0
 10
1.1990200000000002
 20
2.6867500000000004
 30
0.0
 10
1.4708000000000001
 20
2.4810100000000004
 30
0.0
 10
1.5089000000000001
 20
2.17367
 30
0.0
 10
1.5089000000000001
 20
2.17367
 30
0.0
 10
1.4708000000000001
 20
1.9095100000000003
 30
0.0
 10
1.10758
 20
1.9120500000000002
 30
0.0
 10
0.9272400000000001
 20
1.9653900000000002
 30
0.0
 10
0.9272400000000001
 20
1.9653900000000002
 30
0.0
 10
0.9653400000000001
 20
2.0085700000000002
 30
0.0
 10
1.23712
 20
2.0796900000000003
 30
0.0
 10
1.0821800000000001
 20
2.1076300000000003
 30
0.0
 10
1.0821800000000001
 20
2.1076300000000003
 30
0.0
 10
0.8129400000000001
 20
2.0238100000000001
 30
0.0
 10
0.57926
 20
1.8587100000000001
 30
0.0
 10
0.28208
 20
1.8612500000000001
 30
0.0
 10
0.28208
 20
1.8612500000000001
 30
0.0
 10
-0.12939
 20
2.1965300000000001
 30
0.0
 10
-0.6729500000000001
 20
2.1381100000000002
 30
0.0
 10
-1.1504700000000001
 20
2.0288900000000001
 30
0.0
 10
-1.1504700000000001
 20
2.0288900000000001
 30
0.0
 10
-1.2774700000000001
 20
2.0669900000000001
 30
0.0
 10
-1.33081
 20
2.21685
 30
0.0
 10
-1.4476500000000001
 20
2.2473300000000003
 30
0.0
 10
-1.4476500000000001
 20
2.2473300000000003
 30
0.0
 10
-1.5619500000000002
 20
2.09239
 30
0.0
 10
-1.6152900000000001
 20
1.9018900000000001
 30
0.0
 10
-1.6406900000000002
 20
1.7240900000000001
 30
0.0
 10
-1.6406900000000002
 20
1.7240900000000001
 30
0.0
 10
-1.4984500000000001
 20
1.9349100000000001
 30
0.0
 10
-1.3689100000000001
 20
2.0339700000000001
 30
0.0
 10
-1.0971300000000002
 20
1.9374500000000001
 30
0.0
 10
-1.0971300000000002
 20
1.9374500000000001
 30
0.0
 10
-1.12507
 20
1.8815700000000002
 30
0.0
 10
-1.1377700000000002
 20
1.8104500000000001
 30
0.0
 10
-1.1504700000000001
 20
1.7444100000000002
 30
0.0
 10
-1.1504700000000001
 20
1.7444100000000002
 30
0.0
 10
-1.3562100000000001
 20
1.3329300000000002
 30
0.0
 10
-1.0717300000000001
 20
0.8808100000000001
 30
0.0
 10
-1.1885700000000001
 20
0.4413900000000001
 30
0.0
 10
-1.1885700000000001
 20
0.4413900000000001
 30
0.0
 10
-1.1885700000000001
 20
0.4413900000000001
 30
0.0
 10
-1.21397
 20
0.32963
 30
0.0
 10
-1.21397
 20
0.32963
 30
0.0
 10
-1.21397
 20
0.32963
 30
0.0
 10
-1.33589
 20
0.4540900000000001
 30
0.0
 10
-1.3435100000000002
 20
0.55823
 30
0.0
 10
-1.3028700000000002
 20
0.72079
 30
0.0
 10
-1.3028700000000002
 20
0.72079
 30
0.0
 10
-1.2444500000000001
 20
0.9519300000000001
 30
0.0
 10
-1.4044700000000001
 20
0.9392300000000001
 30
0.0
 10
-1.3943100000000002
 20
0.9316100000000001
 30
0.0
 10
-1.3943100000000002
 20
0.9316100000000001
 30
0.0
 10
-1.3943100000000002
 20
0.9316100000000001
 30
0.0
 10
-1.41971
 20
0.82747
 30
0.0
 10
-1.41971
 20
0.82747
 30
0.0
 10
-1.41971
 20
0.82747
 30
0.0
 10
-1.5619500000000002
 20
0.21279
 30
0.0
 10
-1.5619500000000002
 20
1.5513700000000001
 30
0.0
 10
-1.6406900000000002
 20
1.1678300000000001
 30
0.0
 10
-1.6406900000000002
 20
1.1678300000000001
 30
0.0
 10
-1.6406900000000002
 20
1.1678300000000001
 30
0.0
 10
-1.6914900000000002
 20
0.99765
 30
0.0
 10
-1.6914900000000002
 20
0.99765
 30
0.0
 10
-1.6914900000000002
 20
0.99765
 30
0.0
 10
-1.6914900000000002
 20
0.99765
 30
0.0
 10
-1.75753
 20
0.7411100000000001
 30
0.0
 10
-1.75753
 20
0.7411100000000001
 30
0.0
 10
-1.75753
 20
0.7411100000000001
 30
0.0
 10
-1.8997700000000002
 20
0.35249
 30
0.0
 10
-1.8591300000000002
 20
0.97733
 30
0.0
 10
-1.8845300000000003
 20
1.0738500000000002
 30
0.0
 10
-1.8845300000000003
 20
1.0738500000000002
 30
0.0
 10
-1.8845300000000003
 20
1.0738500000000002
 30
0.0
 10
-1.9429500000000002
 20
0.72079
 30
0.0
 10
-1.9429500000000002
 20
0.72079
 30
0.0
 10
-1.9429500000000002
 20
0.72079
 30
0.0
 10
-2.1867900000000002
 20
0.7512700000000001
 30
0.0
 10
-2.2071100000000001
 20
0.7182500000000001
 30
0.0
 10
-2.18425
 20
1.0078100000000001
 30
0.0
 10
-2.18425
 20
1.0078100000000001
 30
0.0
 10
-2.26553
 20
1.1246500000000001
 30
0.0
 10
-2.2350500000000002
 20
0.85287
 30
0.0
 10
-2.27061
 20
0.78937
 30
0.0
 10
-2.27061
 20
0.78937
 30
0.0
 10
-2.35189
 20
0.64205
 30
0.0
 10
-2.4636500000000003
 20
0.59379
 30
0.0
 10
-2.4534900000000004
 20
0.8960500000000001
 30
0.0
 10
-2.4534900000000004
 20
0.8960500000000001
 30
0.0
 10
-2.4534900000000004
 20
0.8960500000000001
 30
0.0
 10
-2.4534900000000004
 20
0.9697100000000001
 30
0.0
 10
-2.4534900000000004
 20
0.9697100000000001
 30
0.0
 10
-2.4534900000000004
 20
0.9697100000000001
 30
0.0
 10
-2.4788900000000003
 20
1.1271900000000001
 30
0.0
 10
-2.5068300000000003
 20
1.0027300000000001
 30
0.0
 10
-2.4941300000000002
 20
0.9062100000000001
 30
0.0
 10
-2.4941300000000002
 20
0.9062100000000001
 30
0.0
 10
-2.4941300000000002
 20
0.8122300000000001
 30
0.0
 10
-2.51953
 20
0.7817500000000001
 30
0.0
 10
-2.6084300000000002
 20
0.78937
 30
0.0
 10
-2.6084300000000002
 20
0.78937
 30
0.0
 10
-2.8065500000000001
 20
1.2541900000000001
 30
0.0
 10
-2.6592300000000004
 20
1.7799700000000001
 30
0.0
 10
-2.5957300000000001
 20
2.2752700000000003
 30
0.0
 10
-2.5957300000000001
 20
2.2752700000000003
 30
0.0
 10
-2.9919700000000002
 20
1.9476100000000001
 30
0.0
 10
-3.1519900000000001
 20
2.80105
 30
0.0
 10
-2.7151100000000001
 20
2.88741
 30
0.0
 10
-2.7151100000000001
 20
2.88741
 30
0.0
 10
-2.7151100000000001
 20
2.88741
 30
0.0
 10
-2.7125700000000004
 20
3.0499700000000001
 30
0.0
 10
-2.7125700000000004
 20
3.0499700000000001
 30
0.0
 10
-2.7125700000000004
 20
3.0499700000000001
 30
0.0
 10
-2.8268700000000004
 20
3.4868500000000004
 30
0.0
 10
-3.2104100000000004
 20
4.46983
 30
0.0
 10
-2.4153900000000004
 20
4.4368100000000004
 30
0.0
 10
-2.4153900000000004
 20
4.4368100000000004
 30
0.0
 10
-2.7989300000000004
 20
5.3816900000000008
 30
0.0
 10
-1.8464300000000002
 20
6.5119900000000008
 30
0.0
 10
-0.82535
 20
6.616130000000001
 30
0.0
 10
-0.82535
 20
6.616130000000001
 30
0.0
 10
-0.8380500000000001
 20
6.5246900000000005
 30
0.0
 10
-1.0209300000000001
 20
6.3697500000000007
 30
0.0
 10
-0.8913900000000001
 20
6.3316500000000007
 30
0.0
 10
-0.8913900000000001
 20
6.3316500000000007
 30
0.0
 10
-0.07859
 20
7.1723900000000009
 30
0.0
 10
1.5343000000000002
 20
6.7583700000000002
 30
0.0
 10
1.7298800000000001
 20
5.5569500000000005
 30
0.0
 10
1.7298800000000001
 20
5.5569500000000005
 30
0.0
 10
1.7679800000000001
 20
5.3435900000000007
 30
0.0
 10
1.7933800000000002
 20
5.1226100000000008
 30
0.0
 10
1.7933800000000002
 20
4.9016300000000008
 30
0.0
 10
1.7933800000000002
 20
4.9016300000000008
 30
0.0
 10
1.5216000000000001
 20
4.8686100000000003
 30
0.0
 10
1.06948
 20
4.3809300000000002
 30
0.0
 10
1.27776
 20
4.3021900000000004
 30
0.0
 10
1.27776
 20
4.3021900000000004
 30
0.0
 10
1.2879200000000002
 20
4.37331
 30
0.0
 10
1.2879200000000002
 20
4.4444300000000005
 30
0.0
 10
1.3285600000000002
 20
4.50793
 30
0.0
 10
1.3285600000000002
 20
4.50793
 30
0.0
 10
2.2201
 20
4.9879900000000008
 30
0.0
 10
1.9864200000000001
 20
3.1947500000000004
 30
0.0
 10
1.3920600000000001
 20
3.0804500000000004
 30
0.0
 10
1.3920600000000001
 20
3.0804500000000004
 30
0.0
 10
1.2625200000000001
 20
3.1871300000000002
 30
0.0
 10
1.3539600000000001
 20
3.3598500000000002
 30
0.0
 10
1.3412600000000001
 20
3.4893900000000002
 30
0.0
 10
1.3412600000000001
 20
3.4893900000000002
 30
0.0
 10
1.27776
 20
3.6468700000000003
 30
0.0
 10
1.1609200000000002
 20
3.8322900000000004
 30
0.0
 10
1.2117200000000001
 20
3.9796100000000005
 30
0.0
  0
SPLINE
  5
27
100
AcDbEntity
  8
Ebene 1
 62
     7
100
AcDbSpline
210
0.0
220
0.0
230
1.0
 70
     1
 71
     3
 72
   280
 73
   276
 74
     0
 42
0.0000000001
 43
0.0000000001
 40
0.0
 40
0.0
 40
0.0
 40
0.0
 40
0.0144927536231884
 40
0.0144927536231884
 40
0.0144927536231884
 40
0.0144927536231884
 40
0.0289855072463768
 40
0.0289855072463768
 40
0.0289855072463768
 40
0.0289855072463768
 40
0.0434782608695652
 40
0.0434782608695652
 40
0.0434782608695652
 40
0.0434782608695652
 40
0.0579710144927536
 40
0.0579710144927536
 40
0.0579710144927536
 40
0.0579710144927536
 40
0.072463768115942
 40
0.072463768115942
 40
0.072463768115942
 40
0.072463768115942
 40
0.0869565217391304
 40
0.0869565217391304
 40
0.0869565217391304
 40
0.0869565217391304
 40
0.1014492753623188
 40
0.1014492753623188
 40
0.1014492753623188
 40
0.1014492753623188
 40
0.1159420289855072
 40
0.1159420289855072
 40
0.1159420289855072
 40
0.1159420289855072
 40
0.1304347826086957
 40
0.1304347826086957
 40
0.1304347826086957
 40
0.1304347826086957
 40
0.1449275362318841
 40
0.1449275362318841
 40
0.1449275362318841
 40
0.1449275362318841
 40
0.1594202898550725
 40
0.1594202898550725
 40
0.1594202898550725
 40
0.1594202898550725
 40
0.1739130434782609
 40
0.1739130434782609
 40
0.1739130434782609
 40
0.1739130434782609
 40
0.1884057971014493
 40
0.1884057971014493
 40
0.1884057971014493
 40
0.1884057971014493
 40
0.2028985507246377
 40
0.2028985507246377
 40
0.2028985507246377
 40
0.2028985507246377
 40
0.2173913043478261
 40
0.2173913043478261
 40
0.2173913043478261
 40
0.2173913043478261
 40
0.2318840579710146
 40
0.2318840579710146
 40
0.2318840579710146
 40
0.2318840579710146
 40
0.246376811594203
 40
0.246376811594203
 40
0.246376811594203
 40
0.246376811594203
 40
0.2608695652173914
 40
0.2608695652173914
 40
0.2608695652173914
 40
0.2608695652173914
 40
0.2753623188405798
 40
0.2753623188405798
 40
0.2753623188405798
 40
0.2753623188405798
 40
0.2898550724637682
 40
0.2898550724637682
 40
0.2898550724637682
 40
0.2898550724637682
 40
0.3043478260869566
 40
0.3043478260869566
 40
0.3043478260869566
 40
0.3043478260869566
 40
0.318840579710145
 40
0.318840579710145
 40
0.318840579710145
 40
0.318840579710145
 40
0.3333333333333334
 40
0.3333333333333334
 40
0.3333333333333334
 40
0.3333333333333334
 40
0.3478260869565218
 40
0.3478260869565218
 40
0.3478260869565218
 40
0.3478260869565218
 40
0.3623188405797103
 40
0.3623188405797103
 40
0.3623188405797103
 40
0.3623188405797103
 40
0.3768115942028987
 40
0.3768115942028987
 40
0.3768115942028987
 40
0.3768115942028987
 40
0.3913043478260871
 40
0.3913043478260871
 40
0.3913043478260871
 40
0.3913043478260871
 40
0.4057971014492755
 40
0.4057971014492755
 40
0.4057971014492755
 40
0.4057971014492755
 40
0.4202898550724639
 40
0.4202898550724639
 40
0.4202898550724639
 40
0.4202898550724639
 40
0.4347826086956523
 40
0.4347826086956523
 40
0.4347826086956523
 40
0.4347826086956523
 40
0.4492753623188407
 40
0.4492753623188407
 40
0.4492753623188407
 40
0.4492753623188407
 40
0.4637681159420292
 40
0.4637681159420292
 40
0.4637681159420292
 40
0.4637681159420292
 40
0.4782608695652176
 40
0.4782608695652176
 40
0.4782608695652176
 40
0.4782608695652176
 40
0.492753623188406
 40
0.492753623188406
 40
0.492753623188406
 40
0.492753623188406
 40
0.5072463768115944
 40
0.5072463768115944
 40
0.5072463768115944
 40
0.5072463768115944
 40
0.5217391304347827
 40
0.5217391304347827
 40
0.5217391304347827
 40
0.5217391304347827
 40
0.5362318840579711
 40
0.5362318840579711
 40
0.5362318840579711
 40
0.5362318840579711
 40
0.5507246376811594
 40
0.5507246376811594
 40
0.5507246376811594
 40
0.5507246376811594
 40
0.5652173913043478
 40
0.5652173913043478
 40
0.5652173913043478
 40
0.5652173913043478
 40
0.5797101449275361
 40
0.5797101449275361
 40
0.5797101449275361
 40
0.5797101449275361
 40
0.5942028985507245
 40
0.5942028985507245
 40
0.5942028985507245
 40
0.5942028985507245
 40
0.6086956521739129
 40
0.6086956521739129
 40
0.6086956521739129
 40
0.6086956521739129
 40
0.6231884057971012
 40
0.6231884057971012
 40
0.6231884057971012
 40
0.6231884057971012
 40
0.6376811594202896
 40
0.6376811594202896
 40
0.6376811594202896
 40
0.6376811594202896
 40
0.6521739130434779
 40
0.6521739130434779
 40
0.6521739130434779
 40
0.6521739130434779
 40
0.6666666666666663
 40
0.6666666666666663
 40
0.6666666666666663
 40
0.6666666666666663
 40
0.6811594202898547
 40
0.6811594202898547
 40
0.6811594202898547
 40
0.6811594202898547
 40
0.695652173913043
 40
0.695652173913043
 40
0.695652173913043
 40
0.695652173913043
 40
0.7101449275362314
 40
0.7101449275362314
 40
0.7101449275362314
 40
0.7101449275362314
 40
0.7246376811594197
 40
0.7246376811594197
 40
0.7246376811594197
 40
0.7246376811594197
 40
0.7391304347826081
 40
0.7391304347826081
 40
0.7391304347826081
 40
0.7391304347826081
 40
0.7536231884057965
 40
0.7536231884057965
 40
0.7536231884057965
 40
0.7536231884057965
 40
0.7681159420289848
 40
0.7681159420289848
 40
0.7681159420289848
 40
0.7681159420289848
 40
0.7826086956521732
 40
0.7826086956521732
 40
0.7826086956521732
 40
0.7826086956521732
 40
0.7971014492753615
 40
0.7971014492753615
 40
0.7971014492753615
 40
0.7971014492753615
 40
0.8115942028985499
 40
0.8115942028985499
 40
0.8115942028985499
 40
0.8115942028985499
 40
0.8260869565217383
 40
0.8260869565217383
 40
0.8260869565217383
 40
0.8260869565217383
 40
0.8405797101449266
 40
0.8405797101449266
 40
0.8405797101449266
 40
0.8405797101449266
 40
0.855072463768115
 40
0.855072463768115
 40
0.855072463768115
 40
0.855072463768115
 40
0.8695652173913033
 40
0.8695652173913033
 40
0.8695652173913033
 40
0.8695652173913033
 40
0.8840579710144917
 40
0.8840579710144917
 40
0.8840579710144917
 40
0.8840579710144917
 40
0.89855072463768
 40
0.89855072463768
 40
0.89855072463768
 40
0.89855072463768
 40
0.9130434782608684
 40
0.9130434782608684
 40
0.9130434782608684
 40
0.9130434782608684
 40
0.9275362318840568
 40
0.9275362318840568
 40
0.9275362318840568
 40
0.9275362318840568
 40
0.9420289855072451
 40
0.9420289855072451
 40
0.9420289855072451
 40
0.9420289855072451
 40
0.9565217391304335
 40
0.9565217391304335
 40
0.9565217391304335
 40
0.9565217391304335
 40
0.9710144927536218
 40
0.9710144927536218
 40
0.9710144927536218
 40
0.9710144927536218
 40
0.9855072463768102
 40
0.9855072463768102
 40
0.9855072463768102
 40
0.9855072463768102
 40
1.0
 40
1.0
 40
1.0
 40
1.0
 10
2.1845400000000001
 20
5.7245900000000001
 30
0.0
 10
2.1083400000000001
 20
5.8820700000000006
 30
0.0
 10
1.9965800000000002
 20
6.0319300000000009
 30
0.0
 10
1.9102200000000003
 20
6.1894100000000005
 30
0.0
 10
1.9102200000000003
 20
6.1894100000000005
 30
0.0
 10
2.16676
 20
6.1259100000000002
 30
0.0
 10
2.2886800000000003
 20
5.8947700000000003
 30
0.0
 10
2.4436200000000001
 20
5.6534700000000004
 30
0.0
 10
2.4436200000000001
 20
5.6534700000000004
 30
0.0
 10
2.63666
 20
5.1810300000000007
 30
0.0
 10
2.6976200000000001
 20
4.6781100000000002
 30
0.0
 10
2.7763600000000004
 20
4.17265
 30
0.0
 10
2.7763600000000004
 20
4.17265
 30
0.0
 10
2.7890600000000001
 20
4.1548700000000007
 30
0.0
 10
2.7890600000000001
 20
4.1218500000000002
 30
0.0
 10
2.8271600000000001
 20
4.1396300000000004
 30
0.0
 10
2.8271600000000001
 20
4.1396300000000004
 30
0.0
 10
2.8271600000000001
 20
4.1396300000000004
 30
0.0
 10
2.7357200000000002
 20
4.9625900000000005
 30
0.0
 10
2.7357200000000002
 20
4.9625900000000005
 30
0.0
 10
2.7357200000000002
 20
4.9625900000000005
 30
0.0
 10
3.1243400000000001
 20
4.2666300000000001
 30
0.0
 10
3.0075000000000003
 20
3.3293700000000004
 30
0.0
 10
2.8398600000000003
 20
2.6207100000000003
 30
0.0
 10
2.8398600000000003
 20
2.6207100000000003
 30
0.0
 10
2.9033600000000002
 20
2.6359500000000002
 30
0.0
 10
2.9160600000000003
 20
2.7908900000000001
 30
0.0
 10
2.9414600000000002
 20
2.8696300000000003
 30
0.0
 10
2.9414600000000002
 20
2.8696300000000003
 30
0.0
 10
2.9414600000000002
 20
2.8696300000000003
 30
0.0
 10
3.0075000000000003
 20
3.1134700000000004
 30
0.0
 10
3.0075000000000003
 20
3.1134700000000004
 30
0.0
 10
3.0075000000000003
 20
3.1134700000000004
 30
0.0
 10
3.0608400000000002
 20
2.93059
 30
0.0
 10
3.0506800000000003
 20
2.7375500000000001
 30
0.0
 10
3.0252800000000004
 20
2.54705
 30
0.0
 10
3.0252800000000004
 20
2.54705
 30
0.0
 10
3.0024200000000003
 20
2.3641700000000001
 30
0.0
 10
2.9643200000000003
 20
2.1838300000000004
 30
0.0
 10
2.8652600000000001
 20
2.0339700000000001
 30
0.0
 10
2.8652600000000001
 20
2.0339700000000001
 30
0.0
 10
2.8652600000000001
 20
2.0339700000000001
 30
0.0
 10
2.8652600000000001
 20
2.1330300000000002
 30
0.0
 10
2.8652600000000001
 20
2.1330300000000002
 30
0.0
 10
2.8652600000000001
 20
2.1330300000000002
 30
0.0
 10
2.8652600000000001
 20
2.1330300000000002
 30
0.0
 10
2.8779600000000003
 20
2.5445100000000003
 30
0.0
 10
2.8779600000000003
 20
2.5445100000000003
 30
0.0
 10
2.8779600000000003
 20
2.5445100000000003
 30
0.0
 10
2.7763600000000004
 20
2.4683100000000002
 30
0.0
 10
2.8271600000000001
 20
2.2447900000000001
 30
0.0
 10
2.8144600000000004
 20
2.1076300000000003
 30
0.0
 10
2.8144600000000004
 20
2.1076300000000003
 30
0.0
 10
2.79922
 20
1.7012300000000002
 30
0.0
 10
2.6722200000000003
 20
1.3075300000000001
 30
0.0
 10
2.42584
 20
0.9874900000000001
 30
0.0
 10
2.42584
 20
0.9874900000000001
 30
0.0
 10
2.4131400000000003
 20
1.3456300000000001
 30
0.0
 10
2.5807800000000003
 20
1.6783700000000001
 30
0.0
 10
2.5680800000000001
 20
2.0542899999999999
 30
0.0
 10
2.5680800000000001
 20
2.0542899999999999
 30
0.0
 10
2.5680800000000001
 20
2.0542899999999999
 30
0.0
 10
2.5172800000000004
 20
1.9399900000000001
 30
0.0
 10
2.5172800000000004
 20
1.9399900000000001
 30
0.0
 10
2.5172800000000004
 20
1.9399900000000001
 30
0.0
 10
2.4004400000000001
 20
0.6953900000000001
 30
0.0
 10
1.6892400000000001
 20
-0.3637800000000001
 30
0.0
 10
1.2244200000000001
 20
-1.4001000000000001
 30
0.0
 10
1.2244200000000001
 20
-1.4001000000000001
 30
0.0
 10
1.14822
 20
-1.4864600000000001
 30
0.0
 10
1.06948
 20
-1.6236200000000001
 30
0.0
 10
0.95264
 20
-1.6566400000000001
 30
0.0
 10
0.95264
 20
-1.6566400000000001
 30
0.0
 10
1.0796400000000002
 20
-1.2578600000000002
 30
0.0
 10
1.3412600000000001
 20
-0.9149600000000001
 30
0.0
 10
1.5063600000000001
 20
-0.52888
 30
0.0
 10
1.5063600000000001
 20
-0.52888
 30
0.0
 10
1.6003400000000001
 20
-0.3104400000000001
 30
0.0
 10
1.6206600000000002
 20
-0.18344
 30
0.0
 10
1.4809600000000001
 20
-0.47046
 30
0.0
 10
1.4809600000000001
 20
-0.47046
 30
0.0
 10
1.11266
 20
-1.2324600000000001
 30
0.0
 10
0.61736
 20
-1.9512800000000001
 30
0.0
 10
0.10174
 20
-2.6294600000000004
 30
0.0
 10
0.10174
 20
-2.6294600000000004
 30
0.0
 10
0.0611
 20
-2.8656800000000002
 30
0.0
 10
0.08904
 20
-3.1044400000000003
 30
0.0
 10
0.25668
 20
-3.2720800000000003
 30
0.0
 10
0.25668
 20
-3.2720800000000003
 30
0.0
 10
-0.34783
 20
-3.0434800000000002
 30
0.0
 10
0.0611
 20
-2.1697200000000003
 30
0.0
 10
0.35828
 20
-1.7938000000000001
 30
0.0
 10
0.35828
 20
-1.7938000000000001
 30
0.0
 10
0.57926
 20
-1.5525000000000002
 30
0.0
 10
0.7342000000000001
 20
-1.2604000000000002
 30
0.0
 10
0.85104
 20
-0.9657600000000001
 30
0.0
 10
0.85104
 20
-0.9657600000000001
 30
0.0
 10
0.3455800000000001
 20
-1.9309600000000002
 30
0.0
 10
-0.7110500000000001
 20
-2.6294600000000004
 30
0.0
 10
-0.9040900000000001
 20
-3.7369000000000003
 30
0.0
 10
-0.9040900000000001
 20
-3.7369000000000003
 30
0.0
 10
-0.9828300000000001
 20
-3.5845000000000002
 30
0.0
 10
-0.99553
 20
-3.3914600000000004
 30
0.0
 10
-1.0082300000000002
 20
-3.2111200000000002
 30
0.0
 10
-1.0082300000000002
 20
-3.2111200000000002
 30
0.0
 10
-0.99553
 20
-2.9317200000000003
 30
0.0
 10
-0.9167900000000001
 20
-2.6675600000000004
 30
0.0
 10
-0.8126500000000001
 20
-2.4135600000000004
 30
0.0
 10
-0.8126500000000001
 20
-2.4135600000000004
 30
0.0
 10
-0.8126500000000001
 20
-2.4135600000000004
 30
0.0
 10
-0.5434100000000001
 20
-1.4305800000000002
 30
0.0
 10
-0.5434100000000001
 20
-1.4305800000000002
 30
0.0
 10
-0.5434100000000001
 20
-1.4305800000000002
 30
0.0
 10
-1.2266700000000001
 20
-2.6243800000000004
 30
0.0
 10
-1.2673100000000002
 20
-4.1433
 30
0.0
 10
-0.38847
 20
-5.2685200000000005
 30
0.0
 10
-0.38847
 20
-5.2685200000000005
 30
0.0
 10
-0.34783
 20
-5.4996600000000004
 30
0.0
 10
-0.28433
 20
-5.7282600000000006
 30
0.0
 10
-0.29703
 20
-5.9721000000000002
 30
0.0
 10
-0.29703
 20
-5.9721000000000002
 30
0.0
 10
-0.56881
 20
-5.4133000000000004
 30
0.0
 10
-1.2266700000000001
 20
-5.0145200000000001
 30
0.0
 10
-1.2774700000000001
 20
-4.3363400000000007
 30
0.0
 10
-1.2774700000000001
 20
-4.3363400000000007
 30
0.0
 10
-1.3435100000000002
 20
-4.0620200000000004
 30
0.0
 10
-1.29017
 20
-3.7546800000000005
 30
0.0
 10
-1.29017
 20
-3.4829000000000003
 30
0.0
 10
-1.29017
 20
-3.4829000000000003
 30
0.0
 10
-1.3435100000000002
 20
-3.6048200000000001
 30
0.0
 10
-1.3435100000000002
 20
-3.7648400000000004
 30
0.0
 10
-1.3562100000000001
 20
-3.9096200000000003
 30
0.0
 10
-1.3562100000000001
 20
-3.9096200000000003
 30
0.0
 10
-1.3562100000000001
 20
-4.2474400000000001
 30
0.0
 10
-1.29017
 20
-4.5700200000000004
 30
0.0
 10
-1.2266700000000001
 20
-4.8875200000000003
 30
0.0
 10
-1.2266700000000001
 20
-4.8875200000000003
 30
0.0
 10
-1.7778500000000002
 20
-4.3871400000000005
 30
0.0
 10
-1.9404100000000002
 20
-3.5362400000000003
 30
0.0
 10
-1.5594100000000002
 20
-2.8885400000000003
 30
0.0
 10
-1.5594100000000002
 20
-2.8885400000000003
 30
0.0
 10
-1.5187700000000002
 20
-2.81996
 30
0.0
 10
-1.5111500000000002
 20
-2.7310600000000003
 30
0.0
 10
-1.46035
 20
-2.6701000000000001
 30
0.0
 10
-1.46035
 20
-2.6701000000000001
 30
0.0
 10
-1.5187700000000002
 20
-2.5862800000000004
 30
0.0
 10
-1.6178300000000001
 20
-2.8656800000000002
 30
0.0
 10
-1.7118100000000001
 20
-2.9291800000000001
 30
0.0
 10
-1.7118100000000001
 20
-2.9291800000000001
 30
0.0
 10
-1.9505700000000001
 20
-3.0942800000000004
 30
0.0
 10
-2.3163300000000002
 20
-3.2060400000000002
 30
0.0
 10
-2.3645900000000002
 20
-2.7717000000000001
 30
0.0
 10
-2.3645900000000002
 20
-2.7717000000000001
 30
0.0
 10
-2.3899900000000001
 20
-2.4999200000000004
 30
0.0
 10
-2.2071100000000001
 20
-2.9825200000000001
 30
0.0
 10
-2.0140700000000002
 20
-2.9164800000000004
 30
0.0
 10
-2.0140700000000002
 20
-2.9164800000000004
 30
0.0
 10
-1.46035
 20
-2.7056600000000004
 30
0.0
 10
-1.4476500000000001
 20
-2.0097
 30
0.0
 10
-1.38161
 20
-1.5347200000000001
 30
0.0
 10
-1.38161
 20
-1.5347200000000001
 30
0.0
 10
-1.4984500000000001
 20
-1.6134600000000001
 30
0.0
 10
-1.5746500000000001
 20
-1.79634
 30
0.0
 10
-1.6533900000000001
 20
-1.8598400000000002
 30
0.0
 10
-1.6533900000000001
 20
-1.8598400000000002
 30
0.0
 10
-1.5746500000000001
 20
-0.9810000000000001
 30
0.0
 10
-0.8532900000000001
 20
-0.27996
 30
0.0
 10
-0.01255
 20
-0.08946
 30
0.0
 10
-0.01255
 20
-0.08946
 30
0.0
 10
-0.07859
 20
-0.24948
 30
0.0
 10
-0.25893
 20
-0.3333
 30
0.0
 10
-0.36053
 20
-0.47554
 30
0.0
 10
-0.36053
 20
-0.47554
 30
0.0
 10
-0.5154700000000001
 20
-0.5873
 30
0.0
 10
-0.36053
 20
-0.5492
 30
0.0
 10
-0.29703
 20
-0.45014
 30
0.0
 10
-0.29703
 20
-0.45014
 30
0.0
 10
-0.14209
 20
-0.3206000000000001
 30
0.0
 10
0.023
 20
-0.22408
 30
0.0
 10
0.21858
 20
-0.17582
 30
0.0
 10
0.21858
 20
-0.17582
 30
0.0
 10
0.21858
 20
-0.17582
 30
0.0
 10
-0.34783
 20
-0.6508000000000001
 30
0.0
 10
-0.34783
 20
-0.6508000000000001
 30
0.0
 10
-0.34783
 20
-0.6508000000000001
 30
0.0
 10
-0.4900700000000001
 20
-0.7676400000000001
 30
0.0
 10
-0.59421
 20
-0.9124200000000001
 30
0.0
 10
-0.6856500000000001
 20
-1.0673600000000001
 30
0.0
 10
-0.6856500000000001
 20
-1.0673600000000001
 30
0.0
 10
-0.6856500000000001
 20
-1.1588000000000001
 30
0.0
 10
-0.7872500000000001
 20
-1.25024
 30
0.0
 10
-0.7364500000000001
 20
-1.3391400000000002
 30
0.0
 10
-0.7364500000000001
 20
-1.3391400000000002
 30
0.0
 10
-0.5434100000000001
 20
-0.6127
 30
0.0
 10
0.26938
 20
-0.3637800000000001
 30
0.0
 10
0.6961000000000001
 20
0.15437
 30
0.0
 10
0.6961000000000001
 20
0.15437
 30
0.0
 10
0.5665600000000001
 20
0.13659
 30
0.0
 10
0.4497200000000001
 20
0.06039
 30
0.0
 10
0.3455800000000001
 20
0.00451
 30
0.0
 10
0.3455800000000001
 20
0.00451
 30
0.0
 10
0.28208
 20
-0.04628
 30
0.0
 10
0.17794
 20
-0.0539
 30
0.0
 10
0.28208
 20
0.02483
 30
0.0
 10
0.28208
 20
0.02483
 30
0.0
 10
0.4624200000000001
 20
0.15691
 30
0.0
 10
0.65546
 20
0.29407
 30
0.0
 10
0.7977000000000001
 20
0.4515500000000001
 30
0.0
 10
0.7977000000000001
 20
0.4515500000000001
 30
0.0
 10
0.59196
 20
0.38297
 30
0.0
 10
0.41162
 20
0.21279
 30
0.0
 10
0.20334
 20
0.13151
 30
0.0
 10
0.20334
 20
0.13151
 30
0.0
 10
-0.22083
 20
-0.05136
 30
0.0
 10
-0.6729500000000001
 20
-0.22916
 30
0.0
 10
-1.03363
 20
-0.5212600000000001
 30
0.0
 10
-1.03363
 20
-0.5212600000000001
 30
0.0
 10
-0.8532900000000001
 20
-0.03612
 30
0.0
 10
-0.3224300000000001
 20
0.15691
 30
0.0
 10
0.10174
 20
0.3677300000000001
 30
0.0
 10
0.10174
 20
0.3677300000000001
 30
0.0
 10
0.10174
 20
0.3677300000000001
 30
0.0
 10
0.25668
 20
0.4413900000000001
 30
0.0
 10
0.25668
 20
0.4413900000000001
 30
0.0
 10
0.25668
 20
0.4413900000000001
 30
0.0
 10
0.55386
 20
0.55315
 30
0.0
 10
0.9018400000000001
 20
0.63951
 30
0.0
 10
1.0948800000000001
 20
0.9163700000000001
 30
0.0
 10
1.0948800000000001
 20
0.9163700000000001
 30
0.0
 10
0.7596000000000001
 20
0.7385700000000001
 30
0.0
 10
0.41162
 20
0.48965
 30
0.0
 10
0.023
 20
0.49219
 30
0.0
 10
0.023
 20
0.49219
 30
0.0
 10
0.47512
 20
0.6928500000000001
 30
0.0
 10
0.91454
 20
0.9316100000000001
 30
0.0
 10
1.23712
 20
1.3303900000000002
 30
0.0
 10
1.23712
 20
1.3303900000000002
 30
0.0
 10
1.0821800000000001
 20
1.2668900000000001
 30
0.0
 10
0.8358000000000001
 20
1.1170300000000002
 30
0.0
 10
0.7215
 20
1.1602100000000002
 30
0.0
 10
0.7215
 20
1.1602100000000002
 30
0.0
 10
1.5089000000000001
 20
1.48787
 30
0.0
 10
1.78068
 20
2.3235300000000003
 30
0.0
 10
1.8441800000000002
 20
3.0906100000000003
 30
0.0
 10
1.8441800000000002
 20
3.0906100000000003
 30
0.0
 10
2.1540600000000003
 20
2.29305
 30
0.0
 10
1.7527400000000002
 20
1.3354700000000002
 30
0.0
 10
1.4708000000000001
 20
0.63951
 30
0.0
 10
1.4708000000000001
 20
0.63951
 30
0.0
 10
1.4911200000000002
 20
0.57601
 30
0.0
 10
1.5317600000000002
 20
0.7106300000000001
 30
0.0
 10
1.5546200000000001
 20
0.74873
 30
0.0
 10
1.5546200000000001
 20
0.74873
 30
0.0
 10
2.25312
 20
1.9780900000000001
 30
0.0
 10
1.9483200000000001
 20
3.4258900000000003
 30
0.0
 10
1.9102200000000003
 20
4.7822500000000003
 30
0.0
 10
1.9102200000000003
 20
4.7822500000000003
 30
0.0
 10
1.9483200000000001
 20
5.0489500000000005
 30
0.0
 10
1.78068
 20
5.2953300000000008
 30
0.0
 10
1.8314800000000002
 20
5.5798100000000002
 30
0.0
 10
1.8314800000000002
 20
5.5798100000000002
 30
0.0
 10
2.2455000000000003
 20
5.1251500000000005
 30
0.0
 10
2.2963
 20
4.9956100000000001
 30
0.0
 10
2.4131400000000003
 20
4.2513900000000007
 30
0.0
 10
2.4131400000000003
 20
4.2513900000000007
 30
0.0
 10
2.4512400000000003
 20
5.0260900000000008
 30
0.0
 10
2.1159600000000003
 20
5.7626900000000001
 30
0.0
 10
1.5343000000000002
 20
6.2935500000000006
 30
0.0
 10
1.5343000000000002
 20
6.2935500000000006
 30
0.0
 10
1.8391000000000002
 20
6.2706900000000001
 30
0.0
 10
2.0169000000000001
 20
5.9303300000000005
 30
0.0
 10
2.17692
 20
5.6737900000000003
 30
0.0
 10
2.17692
 20
5.6737900000000003
 30
0.0
 10
2.3115400000000004
 20
5.4553500000000001
 30
0.0
 10
2.2836000000000003
 20
5.5188500000000005
 30
0.0
 10
2.1845400000000001
 20
5.7245900000000001
 30
0.0
  0
SPLINE
  5
28
100
AcDbEntity
  8
Ebene 1
100
AcDbSpline
210
0.0
220
0.0
230
1.0
 70
     1
 71
     3
 72
    16
 73
    12
 74
     0
 42
0.0000000001
 43
0.0000000001
 40
0.0
 40
0.0
 40
0.0
 40
0.0
 40
0.3333333333333333
 40
0.3333333333333333
 40
0.3333333333333333
 40
0.3333333333333333
 40
0.6666666666666666
 40
0.6666666666666666
 40
0.6666666666666666
 40
0.6666666666666666
 40
1.0
 40
1.0
 40
1.0
 40
1.0
 10
-1.6660900000000001
 20
5.1683300000000001
 30
0.0
 10
-1.7702300000000002
 20
4.9041700000000006
 30
0.0
 10
-1.8845300000000003
 20
4.6450900000000006
 30
0.0
 10
-1.8997700000000002
 20
4.3580700000000006
 30
0.0
 10
-1.8997700000000002
 20
4.3580700000000006
 30
0.0
 10
-1.9124700000000001
 20
4.33521
 30
0.0
 10
-1.9378700000000002
 20
4.3428300000000002
 30
0.0
 10
-1.9632700000000001
 20
4.3428300000000002
 30
0.0
 10
-1.9632700000000001
 20
4.3428300000000002
 30
0.0
 10
-1.9505700000000001
 20
4.6196900000000003
 30
0.0
 10
-1.8210300000000001
 20
4.9219500000000007
 30
0.0
 10
-1.6660900000000001
 20
5.1683300000000001
 30
0.0
  0
SPLINE
  5
29
100
AcDbEntity
  8
Ebene 1
100
AcDbSpline
210
0.0
220
0.0
230
1.0
 70
     1
 71
     3
 72
    28
 73
    24
 74
     0
 42
0.0000000001
 43
0.0000000001
 40
0.0
 40
0.0
 40
0.0
 40
0.0
 40
0.1666666666666667
 40
0.1666666666666667
 40
0.1666666666666667
 40
0.1666666666666667
 40
0.3333333333333333
 40
0.3333333333333333
 40
0.3333333333333333
 40
0.3333333333333333
 40
0.5
 40
0.5
 40
0.5
 40
0.5
 40
0.6666666666666666
 40
0.6666666666666666
 40
0.6666666666666666
 40
0.6666666666666666
 40
0.8333333333333333
 40
0.8333333333333333
 40
0.8333333333333333
 40
0.8333333333333333
 40
1.0
 40
1.0
 40
1.0
 40
1.0
 10
-0.12939
 20
4.7543100000000003
 30
0.0
 10
0.09412
 20
4.8203500000000004
 30
0.0
 10
0.41416
 20
4.7492300000000007
 30
0.0
 10
0.6300600000000001
 20
4.5866700000000007
 30
0.0
 10
0.6300600000000001
 20
4.5866700000000007
 30
0.0
 10
0.5665600000000001
 20
4.5663500000000008
 30
0.0
 10
0.4624200000000001
 20
4.6527100000000008
 30
0.0
 10
0.38368
 20
4.58413
 30
0.0
 10
0.38368
 20
4.58413
 30
0.0
 10
0.35828
 20
4.3529900000000001
 30
0.0
 10
0.28208
 20
4.0405700000000007
 30
0.0
 10
0.023
 20
3.9719900000000004
 30
0.0
 10
0.023
 20
3.9719900000000004
 30
0.0
 10
0.11444
 20
4.1091500000000005
 30
0.0
 10
0.24144
 20
4.2539300000000004
 30
0.0
 10
0.24144
 20
4.4317299999999999
 30
0.0
 10
0.24144
 20
4.4317299999999999
 30
0.0
 10
0.30748
 20
4.6781100000000002
 30
0.0
 10
0.0484
 20
4.7746300000000002
 30
0.0
 10
-0.15479
 20
4.7339900000000004
 30
0.0
 10
-0.15479
 20
4.7339900000000004
 30
0.0
 10
-0.15479
 20
4.7339900000000004
 30
0.0
 10
-0.12939
 20
4.7543100000000003
 30
0.0
 10
-0.12939
 20
4.7543100000000003
 30
0.0
  0
SPLINE
  5
2A
100
AcDbEntity
  8
Ebene 1
100
AcDbSpline
210
0.0
220
0.0
230
1.0
 70
     1
 71
     3
 72
    24
 73
    20
 74
     0
 42
0.0000000001
 43
0.0000000001
 40
0.0
 40
0.0
 40
0.0
 40
0.0
 40
0.2
 40
0.2
 40
0.2
 40
0.2
 40
0.4
 40
0.4
 40
0.4
 40
0.4
 40
0.6000000000000001
 40
0.6000000000000001
 40
0.6000000000000001
 40
0.6000000000000001
 40
0.8
 40
0.8
 40
0.8
 40
0.8
 40
1.0
 40
1.0
 40
1.0
 40
1.0
 10
-1.0082300000000002
 20
4.5866700000000007
 30
0.0
 10
-0.9828300000000001
 20
4.5917500000000002
 30
0.0
 10
-0.9548900000000001
 20
4.58413
 30
0.0
 10
-0.9828300000000001
 20
4.5663500000000008
 30
0.0
 10
-0.9828300000000001
 20
4.5663500000000008
 30
0.0
 10
-1.3943100000000002
 20
4.3885500000000004
 30
0.0
 10
-1.8718300000000001
 20
4.2386900000000001
 30
0.0
 10
-2.1309100000000001
 20
3.8297500000000002
 30
0.0
 10
-2.1309100000000001
 20
3.8297500000000002
 30
0.0
 10
-2.1563100000000004
 20
3.9796100000000005
 30
0.0
 10
-2.1055100000000002
 20
4.1193100000000005
 30
0.0
 10
-2.0140700000000002
 20
4.24885
 30
0.0
 10
-2.0140700000000002
 20
4.24885
 30
0.0
 10
-2.0140700000000002
 20
4.24885
 30
0.0
 10
-1.9505700000000001
 20
4.2259900000000004
 30
0.0
 10
-1.9505700000000001
 20
4.2259900000000004
 30
0.0
 10
-1.9505700000000001
 20
4.2259900000000004
 30
0.0
 10
-1.6406900000000002
 20
4.34537
 30
0.0
 10
-1.3181100000000001
 20
4.4825300000000006
 30
0.0
 10
-1.0082300000000002
 20
4.5866700000000007
 30
0.0
  0
SPLINE
  5
2B
100
AcDbEntity
  8
Ebene 1
100
AcDbSpline
210
0.0
220
0.0
230
1.0
 70
     1
 71
     3
 72
    20
 73
    16
 74
     0
 42
0.0000000001
 43
0.0000000001
 40
0.0
 40
0.0
 40
0.0
 40
0.0
 40
0.25
 40
0.25
 40
0.25
 40
0.25
 40
0.5
 40
0.5
 40
0.5
 40
0.5
 40
0.75
 40
0.75
 40
0.75
 40
0.75
 40
1.0
 40
1.0
 40
1.0
 40
1.0
 10
-2.3366500000000001
 20
4.45967
 30
0.0
 10
-2.2350500000000002
 20
4.4291900000000002
 30
0.0
 10
-2.18425
 20
4.3021900000000004
 30
0.0
 10
-2.0801100000000003
 20
4.2742500000000003
 30
0.0
 10
-2.0801100000000003
 20
4.2742500000000003
 30
0.0
 10
-2.0801100000000003
 20
4.2742500000000003
 30
0.0
 10
-2.1690100000000001
 20
4.1015300000000003
 30
0.0
 10
-2.1690100000000001
 20
4.1015300000000003
 30
0.0
 10
-2.1690100000000001
 20
4.1015300000000003
 30
0.0
 10
-2.18425
 20
4.2158300000000004
 30
0.0
 10
-2.22235
 20
4.33521
 30
0.0
 10
-2.3366500000000001
 20
4.4114100000000001
 30
0.0
 10
-2.3366500000000001
 20
4.4114100000000001
 30
0.0
 10
-2.3366500000000001
 20
4.4114100000000001
 30
0.0
 10
-2.3366500000000001
 20
4.45967
 30
0.0
 10
-2.3366500000000001
 20
4.45967
 30
0.0
  0
SPLINE
  5
2C
100
AcDbEntity
  8
Ebene 1
100
AcDbSpline
210
0.0
220
0.0
230
1.0
 70
     1
 71
     3
 72
    24
 73
    20
 74
     0
 42
0.0000000001
 43
0.0000000001
 40
0.0
 40
0.0
 40
0.0
 40
0.0
 40
0.2
 40
0.2
 40
0.2
 40
0.2
 40
0.4
 40
0.4
 40
0.4
 40
0.4
 40
0.6000000000000001
 40
0.6000000000000001
 40
0.6000000000000001
 40
0.6000000000000001
 40
0.8
 40
0.8
 40
0.8
 40
0.8
 40
1.0
 40
1.0
 40
1.0
 40
1.0
 10
2.3623400000000001
 20
4.2259900000000004
 30
0.0
 10
2.5299800000000001
 20
3.7814900000000002
 30
0.0
 10
2.5299800000000001
 20
3.2531700000000003
 30
0.0
 10
2.59348
 20
2.7705700000000002
 30
0.0
 10
2.59348
 20
2.7705700000000002
 30
0.0
 10
2.6595200000000001
 20
2.7781900000000004
 30
0.0
 10
2.6595200000000001
 20
2.9407500000000004
 30
0.0
 10
2.7103200000000003
 20
2.8696300000000003
 30
0.0
 10
2.7103200000000003
 20
2.8696300000000003
 30
0.0
 10
2.63158
 20
2.5013300000000003
 30
0.0
 10
2.4004400000000001
 20
2.1762100000000002
 30
0.0
 10
2.3344
 20
1.8104500000000001
 30
0.0
 10
2.3344
 20
1.8104500000000001
 30
0.0
 10
2.2759800000000001
 20
1.8739500000000002
 30
0.0
 10
2.2937600000000002
 20
1.9501500000000001
 30
0.0
 10
2.3344
 20
2.08223
 30
0.0
 10
2.3344
 20
2.08223
 30
0.0
 10
2.5680800000000001
 20
2.7604100000000003
 30
0.0
 10
2.4131400000000003
 20
3.5376500000000002
 30
0.0
 10
2.3623400000000001
 20
4.2259900000000004
 30
0.0
  0
SPLINE
  5
2D
100
AcDbEntity
  8
Ebene 1
100
AcDbSpline
210
0.0
220
0.0
230
1.0
 70
     1
 71
     3
 72
    64
 73
    60
 74
     0
 42
0.0000000001
 43
0.0000000001
 40
0.0
 40
0.0
 40
0.0
 40
0.0
 40
0.0666666666666667
 40
0.0666666666666667
 40
0.0666666666666667
 40
0.0666666666666667
 40
0.1333333333333333
 40
0.1333333333333333
 40
0.1333333333333333
 40
0.1333333333333333
 40
0.2
 40
0.2
 40
0.2
 40
0.2
 40
0.2666666666666667
 40
0.2666666666666667
 40
0.2666666666666667
 40
0.2666666666666667
 40
0.3333333333333333
 40
0.3333333333333333
 40
0.3333333333333333
 40
0.3333333333333333
 40
0.4
 40
0.4
 40
0.4
 40
0.4
 40
0.4666666666666666
 40
0.4666666666666666
 40
0.4666666666666666
 40
0.4666666666666666
 40
0.5333333333333333
 40
0.5333333333333333
 40
0.5333333333333333
 40
0.5333333333333333
 40
0.6
 40
0.6
 40
0.6
 40
0.6
 40
0.6666666666666666
 40
0.6666666666666666
 40
0.6666666666666666
 40
0.6666666666666666
 40
0.7333333333333333
 40
0.7333333333333333
 40
0.7333333333333333
 40
0.7333333333333333
 40
0.7999999999999999
 40
0.7999999999999999
 40
0.7999999999999999
 40
0.7999999999999999
 40
0.8666666666666666
 40
0.8666666666666666
 40
0.8666666666666666
 40
0.8666666666666666
 40
0.9333333333333332
 40
0.9333333333333332
 40
0.9333333333333332
 40
0.9333333333333332
 40
1.0
 40
1.0
 40
1.0
 40
1.0
 10
0.7215
 20
4.0710500000000005
 30
0.0
 10
0.7342000000000001
 20
4.07613
 30
0.0
 10
0.7723000000000001
 20
4.0558100000000001
 30
0.0
 10
0.7596000000000001
 20
4.0354900000000002
 30
0.0
 10
0.7596000000000001
 20
4.0354900000000002
 30
0.0
 10
0.7596000000000001
 20
4.0354900000000002
 30
0.0
 10
0.0103
 20
3.7992700000000004
 30
0.0
 10
0.0103
 20
3.7992700000000004
 30
0.0
 10
0.0103
 20
3.7992700000000004
 30
0.0
 10
-0.01255
 20
3.7941900000000004
 30
0.0
 10
-0.05065
 20
3.7814900000000002
 30
0.0
 10
-0.06335
 20
3.7611700000000003
 30
0.0
 10
-0.06335
 20
3.7611700000000003
 30
0.0
 10
0.23128
 20
3.5935300000000003
 30
0.0
 10
0.5665600000000001
 20
3.5528900000000001
 30
0.0
 10
0.85104
 20
3.4131900000000002
 30
0.0
 10
0.85104
 20
3.4131900000000002
 30
0.0
 10
0.5665600000000001
 20
3.4741500000000003
 30
0.0
 10
0.29478
 20
3.2709500000000005
 30
0.0
 10
0.0611
 20
3.1058500000000002
 30
0.0
 10
0.0611
 20
3.1058500000000002
 30
0.0
 10
0.0611
 20
3.1058500000000002
 30
0.0
 10
0.33288
 20
3.3700100000000002
 30
0.0
 10
0.33288
 20
3.3700100000000002
 30
0.0
 10
0.33288
 20
3.3700100000000002
 30
0.0
 10
0.4624200000000001
 20
3.4436700000000005
 30
0.0
 10
0.28208
 20
3.4462100000000002
 30
0.0
 10
0.21858
 20
3.4385900000000005
 30
0.0
 10
0.21858
 20
3.4385900000000005
 30
0.0
 10
-0.25893
 20
3.0855300000000003
 30
0.0
 10
-0.8380500000000001
 20
2.7781900000000004
 30
0.0
 10
-1.4324100000000002
 20
3.0753700000000004
 30
0.0
 10
-1.4324100000000002
 20
3.0753700000000004
 30
0.0
 10
-1.4324100000000002
 20
3.0753700000000004
 30
0.0
 10
-1.7041900000000001
 20
2.88741
 30
0.0
 10
-1.7041900000000001
 20
2.88741
 30
0.0
 10
-1.7041900000000001
 20
2.88741
 30
0.0
 10
-1.7194300000000002
 20
3.0144100000000003
 30
0.0
 10
-1.5746500000000001
 20
3.0829900000000001
 30
0.0
 10
-1.5238500000000001
 20
3.1896700000000004
 30
0.0
 10
-1.5238500000000001
 20
3.1896700000000004
 30
0.0
 10
-1.7702300000000002
 20
3.2353900000000002
 30
0.0
 10
-2.1436100000000002
 20
3.3166700000000002
 30
0.0
 10
-2.0674100000000002
 20
3.6544900000000005
 30
0.0
 10
-2.0674100000000002
 20
3.6544900000000005
 30
0.0
 10
-1.6660900000000001
 20
2.9966300000000001
 30
0.0
 10
-0.8913900000000001
 20
3.5452700000000004
 30
0.0
 10
-0.41387
 20
3.8221300000000005
 30
0.0
 10
-0.41387
 20
3.8221300000000005
 30
0.0
 10
-0.41387
 20
3.8221300000000005
 30
0.0
 10
-0.11669
 20
4.0329500000000005
 30
0.0
 10
-0.11669
 20
4.0329500000000005
 30
0.0
 10
-0.11669
 20
4.0329500000000005
 30
0.0
 10
-0.07859
 20
3.9516700000000005
 30
0.0
 10
-0.27163
 20
3.8830900000000002
 30
0.0
 10
-0.3224300000000001
 20
3.8170500000000005
 30
0.0
 10
-0.3224300000000001
 20
3.8170500000000005
 30
0.0
 10
-0.3224300000000001
 20
3.8170500000000005
 30
0.0
 10
0.7215
 20
4.0710500000000005
 30
0.0
 10
0.7215
 20
4.0710500000000005
 30
0.0
  0
SPLINE
  5
2E
100
AcDbEntity
  8
Ebene 1
100
AcDbSpline
210
0.0
220
0.0
230
1.0
 70
     1
 71
     3
 72
    64
 73
    60
 74
     0
 42
0.0000000001
 43
0.0000000001
 40
0.0
 40
0.0
 40
0.0
 40
0.0
 40
0.0666666666666667
 40
0.0666666666666667
 40
0.0666666666666667
 40
0.0666666666666667
 40
0.1333333333333333
 40
0.1333333333333333
 40
0.1333333333333333
 40
0.1333333333333333
 40
0.2
 40
0.2
 40
0.2
 40
0.2
 40
0.2666666666666667
 40
0.2666666666666667
 40
0.2666666666666667
 40
0.2666666666666667
 40
0.3333333333333333
 40
0.3333333333333333
 40
0.3333333333333333
 40
0.3333333333333333
 40
0.4
 40
0.4
 40
0.4
 40
0.4
 40
0.4666666666666666
 40
0.4666666666666666
 40
0.4666666666666666
 40
0.4666666666666666
 40
0.5333333333333333
 40
0.5333333333333333
 40
0.5333333333333333
 40
0.5333333333333333
 40
0.6
 40
0.6
 40
0.6
 40
0.6
 40
0.6666666666666666
 40
0.6666666666666666
 40
0.6666666666666666
 40
0.6666666666666666
 40
0.7333333333333333
 40
0.7333333333333333
 40
0.7333333333333333
 40
0.7333333333333333
 40
0.7999999999999999
 40
0.7999999999999999
 40
0.7999999999999999
 40
0.7999999999999999
 40
0.8666666666666666
 40
0.8666666666666666
 40
0.8666666666666666
 40
0.8666666666666666
 40
0.9333333333333332
 40
0.9333333333333332
 40
0.9333333333333332
 40
0.9333333333333332
 40
1.0
 40
1.0
 40
1.0
 40
1.0
 10
-2.8675100000000002
 20
3.8500700000000001
 30
0.0
 10
-2.6617700000000002
 20
3.7256100000000001
 30
0.0
 10
-2.2350500000000002
 20
3.1058500000000002
 30
0.0
 10
-2.1690100000000001
 20
3.6798900000000003
 30
0.0
 10
-2.1690100000000001
 20
3.6798900000000003
 30
0.0
 10
-2.1563100000000004
 20
3.6214700000000004
 30
0.0
 10
-1.9632700000000001
 20
3.2328500000000004
 30
0.0
 10
-2.18425
 20
3.3319100000000001
 30
0.0
 10
-2.18425
 20
3.3319100000000001
 30
0.0
 10
-2.18425
 20
3.3319100000000001
 30
0.0
 10
-2.2731500000000002
 20
3.2658700000000001
 30
0.0
 10
-2.2731500000000002
 20
3.2658700000000001
 30
0.0
 10
-2.2731500000000002
 20
3.2658700000000001
 30
0.0
 10
-2.2350500000000002
 20
3.1058500000000002
 30
0.0
 10
-2.3112500000000002
 20
2.9610700000000003
 30
0.0
 10
-2.3899900000000001
 20
2.8315300000000003
 30
0.0
 10
-2.3899900000000001
 20
2.8315300000000003
 30
0.0
 10
-2.3645900000000002
 20
2.7781900000000004
 30
0.0
 10
-2.3239500000000004
 20
2.7350100000000004
 30
0.0
 10
-2.2604500000000001
 20
2.7654900000000002
 30
0.0
 10
-2.2604500000000001
 20
2.7654900000000002
 30
0.0
 10
-2.1690100000000001
 20
2.8289900000000001
 30
0.0
 10
-2.0928100000000001
 20
2.9178900000000003
 30
0.0
 10
-1.9759700000000002
 20
2.8797900000000003
 30
0.0
 10
-1.9759700000000002
 20
2.8797900000000003
 30
0.0
 10
-1.9886700000000002
 20
2.55213
 30
0.0
 10
-1.8718300000000001
 20
2.1177900000000003
 30
0.0
 10
-1.9632700000000001
 20
1.7367900000000001
 30
0.0
 10
-1.9632700000000001
 20
1.7367900000000001
 30
0.0
 10
-2.1309100000000001
 20
1.61233
 30
0.0
 10
-2.3899900000000001
 20
1.6478900000000001
 30
0.0
 10
-2.4280900000000001
 20
1.8739500000000002
 30
0.0
 10
-2.4280900000000001
 20
1.8739500000000002
 30
0.0
 10
-2.56779
 20
1.6859900000000001
 30
0.0
 10
-2.40523
 20
1.4319900000000001
 30
0.0
 10
-2.5068300000000003
 20
1.2465700000000002
 30
0.0
 10
-2.5068300000000003
 20
1.2465700000000002
 30
0.0
 10
-2.5068300000000003
 20
1.2465700000000002
 30
0.0
 10
-2.51953
 20
1.4370700000000001
 30
0.0
 10
-2.51953
 20
1.4370700000000001
 30
0.0
 10
-2.51953
 20
1.4370700000000001
 30
0.0
 10
-2.5322300000000002
 20
1.49041
 30
0.0
 10
-2.5576300000000001
 20
1.4142100000000002
 30
0.0
 10
-2.5830300000000004
 20
1.4523100000000002
 30
0.0
 10
-2.5830300000000004
 20
1.4523100000000002
 30
0.0
 10
-2.6617700000000002
 20
1.8993500000000001
 30
0.0
 10
-2.4661900000000001
 20
2.3133700000000004
 30
0.0
 10
-2.4941300000000002
 20
2.7908900000000001
 30
0.0
 10
-2.4941300000000002
 20
2.7908900000000001
 30
0.0
 10
-2.4407900000000002
 20
2.8645500000000004
 30
0.0
 10
-2.3899900000000001
 20
2.9509100000000004
 30
0.0
 10
-2.3645900000000002
 20
3.0372700000000004
 30
0.0
 10
-2.3645900000000002
 20
3.0372700000000004
 30
0.0
 10
-2.6338300000000001
 20
2.9966300000000001
 30
0.0
 10
-2.8548100000000001
 20
3.3725500000000004
 30
0.0
 10
-2.7252700000000001
 20
3.6189300000000002
 30
0.0
 10
-2.7252700000000001
 20
3.6189300000000002
 30
0.0
 10
-2.77861
 20
3.6925900000000005
 30
0.0
 10
-2.8421100000000004
 20
3.7662500000000003
 30
0.0
 10
-2.8675100000000002
 20
3.8500700000000001
 30
0.0
  0
SPLINE
  5
2F
100
AcDbEntity
  8
Ebene 1
 62
     7
100
AcDbSpline
210
0.0
220
0.0
230
1.0
 70
     1
 71
     3
 72
    16
 73
    12
 74
     0
 42
0.0000000001
 43
0.0000000001
 40
0.0
 40
0.0
 40
0.0
 40
0.0
 40
0.3333333333333333
 40
0.3333333333333333
 40
0.3333333333333333
 40
0.3333333333333333
 40
0.6666666666666666
 40
0.6666666666666666
 40
0.6666666666666666
 40
0.6666666666666666
 40
1.0
 40
1.0
 40
1.0
 40
1.0
 10
-0.8913900000000001
 20
3.3598500000000002
 30
0.0
 10
-0.8913900000000001
 20
3.3598500000000002
 30
0.0
 10
-0.82535
 20
3.3522300000000005
 30
0.0
 10
-0.82535
 20
3.3522300000000005
 30
0.0
 10
-0.82535
 20
3.3522300000000005
 30
0.0
 10
-0.7110500000000001
 20
3.2836500000000002
 30
0.0
 10
-1.04633
 20
3.2557100000000001
 30
0.0
 10
-0.9548900000000001
 20
3.3319100000000001
 30
0.0
 10
-0.9548900000000001
 20
3.3319100000000001
 30
0.0
 10
-0.9548900000000001
 20
3.3319100000000001
 30
0.0
 10
-0.8913900000000001
 20
3.3598500000000002
 30
0.0
 10
-0.8913900000000001
 20
3.3598500000000002
 30
0.0
  0
SPLINE
  5
30
100
AcDbEntity
  8
Ebene 1
 62
     7
100
AcDbSpline
210
0.0
220
0.0
230
1.0
 70
     1
 71
     3
 72
    12
 73
     8
 74
     0
 42
0.0000000001
 43
0.0000000001
 40
0.0
 40
0.0
 40
0.0
 40
0.0
 40
0.5
 40
0.5
 40
0.5
 40
0.5
 40
1.0
 40
1.0
 40
1.0
 40
1.0
 10
-2.5449300000000004
 20
3.3217500000000002
 30
0.0
 10
-2.5449300000000004
 20
3.3217500000000002
 30
0.0
 10
-2.5068300000000003
 20
3.3217500000000002
 30
0.0
 10
-2.5068300000000003
 20
3.3217500000000002
 30
0.0
 10
-2.5068300000000003
 20
3.3217500000000002
 30
0.0
 10
-2.4280900000000001
 20
3.2912700000000004
 30
0.0
 10
-2.5957300000000001
 20
3.2607900000000001
 30
0.0
 10
-2.5449300000000004
 20
3.3217500000000002
 30
0.0
  0
SPLINE
  5
31
100
AcDbEntity
  8
Ebene 1
 62
     7
100
AcDbSpline
210
0.0
220
0.0
230
1.0
 70
     1
 71
     3
 72
    24
 73
    20
 74
     0
 42
0.0000000001
 43
0.0000000001
 40
0.0
 40
0.0
 40
0.0
 40
0.0
 40
0.2
 40
0.2
 40
0.2
 40
0.2
 40
0.4
 40
0.4
 40
0.4
 40
0.4
 40
0.6000000000000001
 40
0.6000000000000001
 40
0.6000000000000001
 40
0.6000000000000001
 40
0.8
 40
0.8
 40
0.8
 40
0.8
 40
1.0
 40
1.0
 40
1.0
 40
1.0
 10
-0.6450100000000001
 20
2.0034900000000002
 30
0.0
 10
-0.63231
 20
2.00095
 30
0.0
 10
-0.6069100000000001
 20
2.01111
 30
0.0
 10
-0.6069100000000001
 20
1.9907900000000001
 30
0.0
 10
-0.6069100000000001
 20
1.9907900000000001
 30
0.0
 10
-0.65771
 20
1.6758300000000002
 30
0.0
 10
-0.53071
 20
1.3659500000000002
 30
0.0
 10
-0.5027700000000001
 20
1.0509900000000001
 30
0.0
 10
-0.5027700000000001
 20
1.0509900000000001
 30
0.0
 10
-0.5027700000000001
 20
1.0509900000000001
 30
0.0
 10
-0.7110500000000001
 20
0.99765
 30
0.0
 10
-0.7110500000000001
 20
0.99765
 30
0.0
 10
-0.7110500000000001
 20
0.99765
 30
0.0
 10
-0.7872500000000001
 20
1.27959
 30
0.0
 10
-0.8126500000000001
 20
1.6402700000000001
 30
0.0
 10
-0.7364500000000001
 20
1.9374500000000001
 30
0.0
 10
-0.7364500000000001
 20
1.9374500000000001
 30
0.0
 10
-0.7364500000000001
 20
1.9374500000000001
 30
0.0
 10
-0.6450100000000001
 20
2.0034900000000002
 30
0.0
 10
-0.6450100000000001
 20
2.0034900000000002
 30
0.0
  0
SPLINE
  5
32
100
AcDbEntity
  8
Ebene 1
 62
     7
100
AcDbSpline
210
0.0
220
0.0
230
1.0
 70
     1
 71
     3
 72
    20
 73
    16
 74
     0
 42
0.0000000001
 43
0.0000000001
 40
0.0
 40
0.0
 40
0.0
 40
0.0
 40
0.25
 40
0.25
 40
0.25
 40
0.25
 40
0.5
 40
0.5
 40
0.5
 40
0.5
 40
0.75
 40
0.75
 40
0.75
 40
0.75
 40
1.0
 40
1.0
 40
1.0
 40
1.0
 10
-0.4392700000000001
 20
2.0034900000000002
 30
0.0
 10
-0.40117
 20
1.9933300000000003
 30
0.0
 10
-0.40117
 20
1.9526900000000003
 30
0.0
 10
-0.38847
 20
1.9272900000000002
 30
0.0
 10
-0.38847
 20
1.9272900000000002
 30
0.0
 10
-0.4392700000000001
 20
1.6682100000000002
 30
0.0
 10
-0.25893
 20
1.3735700000000002
 30
0.0
 10
-0.4392700000000001
 20
1.15005
 30
0.0
 10
-0.4392700000000001
 20
1.15005
 30
0.0
 10
-0.5154700000000001
 20
1.2999100000000001
 30
0.0
 10
-0.53071
 20
1.4827900000000001
 30
0.0
 10
-0.53071
 20
1.65551
 30
0.0
 10
-0.53071
 20
1.65551
 30
0.0
 10
-0.6069100000000001
 20
1.7698100000000001
 30
0.0
 10
-0.5434100000000001
 20
1.9272900000000002
 30
0.0
 10
-0.4392700000000001
 20
2.0034900000000002
 30
0.0
  0
SPLINE
  5
33
100
AcDbEntity
  8
Ebene 1
 62
     7
100
AcDbSpline
210
0.0
220
0.0
230
1.0
 70
     1
 71
     3
 72
    32
 73
    28
 74
     0
 42
0.0000000001
 43
0.0000000001
 40
0.0
 40
0.0
 40
0.0
 40
0.0
 40
0.1428571428571429
 40
0.1428571428571429
 40
0.1428571428571429
 40
0.1428571428571429
 40
0.2857142857142857
 40
0.2857142857142857
 40
0.2857142857142857
 40
0.2857142857142857
 40
0.4285714285714286
 40
0.4285714285714286
 40
0.4285714285714286
 40
0.4285714285714286
 40
0.5714285714285714
 40
0.5714285714285714
 40
0.5714285714285714
 40
0.5714285714285714
 40
0.7142857142857142
 40
0.7142857142857142
 40
0.7142857142857142
 40
0.7142857142857142
 40
0.857142857142857
 40
0.857142857142857
 40
0.857142857142857
 40
0.857142857142857
 40
1.0
 40
1.0
 40
1.0
 40
1.0
 10
-0.86599
 20
1.9526900000000003
 30
0.0
 10
-0.86599
 20
1.9526900000000003
 30
0.0
 10
-0.82535
 20
1.9501500000000001
 30
0.0
 10
-0.82535
 20
1.9501500000000001
 30
0.0
 10
-0.82535
 20
1.9501500000000001
 30
0.0
 10
-0.82535
 20
1.9501500000000001
 30
0.0
 10
-0.7999500000000001
 20
1.10433
 30
0.0
 10
-0.7999500000000001
 20
1.10433
 30
0.0
 10
-0.7999500000000001
 20
1.10433
 30
0.0
 10
-0.7999500000000001
 20
1.10433
 30
0.0
 10
-0.9167900000000001
 20
1.02559
 30
0.0
 10
-0.9167900000000001
 20
1.02559
 30
0.0
 10
-0.9167900000000001
 20
1.02559
 30
0.0
 10
-0.92949
 20
1.0941700000000001
 30
0.0
 10
-0.92949
 20
1.1729100000000001
 30
0.0
 10
-0.9675900000000001
 20
1.23387
 30
0.0
 10
-0.9675900000000001
 20
1.23387
 30
0.0
 10
-1.0209300000000001
 20
1.3481700000000001
 30
0.0
 10
-1.0717300000000001
 20
1.2110100000000001
 30
0.0
 10
-1.04633
 20
1.1373500000000001
 30
0.0
 10
-1.04633
 20
1.1373500000000001
 30
0.0
 10
-1.04633
 20
1.0408300000000001
 30
0.0
 10
-0.99553
 20
0.9087500000000001
 30
0.0
 10
-1.0717300000000001
 20
0.82747
 30
0.0
 10
-1.0717300000000001
 20
0.82747
 30
0.0
 10
-1.1885700000000001
 20
1.2160900000000001
 30
0.0
 10
-1.2012700000000001
 20
1.65551
 30
0.0
 10
-0.86599
 20
1.9526900000000003
 30
0.0
  0
SPLINE
  5
34
100
AcDbEntity
  8
Ebene 1
 62
     7
100
AcDbSpline
210
0.0
220
0.0
230
1.0
 70
     1
 71
     3
 72
   132
 73
   128
 74
     0
 42
0.0000000001
 43
0.0000000001
 40
0.0
 40
0.0
 40
0.0
 40
0.0
 40
0.03125
 40
0.03125
 40
0.03125
 40
0.03125
 40
0.0625
 40
0.0625
 40
0.0625
 40
0.0625
 40
0.09375
 40
0.09375
 40
0.09375
 40
0.09375
 40
0.125
 40
0.125
 40
0.125
 40
0.125
 40
0.15625
 40
0.15625
 40
0.15625
 40
0.15625
 40
0.1875
 40
0.1875
 40
0.1875
 40
0.1875
 40
0.21875
 40
0.21875
 40
0.21875
 40
0.21875
 40
0.25
 40
0.25
 40
0.25
 40
0.25
 40
0.28125
 40
0.28125
 40
0.28125
 40
0.28125
 40
0.3125
 40
0.3125
 40
0.3125
 40
0.3125
 40
0.34375
 40
0.34375
 40
0.34375
 40
0.34375
 40
0.375
 40
0.375
 40
0.375
 40
0.375
 40
0.40625
 40
0.40625
 40
0.40625
 40
0.40625
 40
0.4375
 40
0.4375
 40
0.4375
 40
0.4375
 40
0.46875
 40
0.46875
 40
0.46875
 40
0.46875
 40
0.5
 40
0.5
 40
0.5
 40
0.5
 40
0.53125
 40
0.53125
 40
0.53125
 40
0.53125
 40
0.5625
 40
0.5625
 40
0.5625
 40
0.5625
 40
0.59375
 40
0.59375
 40
0.59375
 40
0.59375
 40
0.625
 40
0.625
 40
0.625
 40
0.625
 40
0.65625
 40
0.65625
 40
0.65625
 40
0.65625
 40
0.6875
 40
0.6875
 40
0.6875
 40
0.6875
 40
0.71875
 40
0.71875
 40
0.71875
 40
0.71875
 40
0.75
 40
0.75
 40
0.75
 40
0.75
 40
0.78125
 40
0.78125
 40
0.78125
 40
0.78125
 40
0.8125
 40
0.8125
 40
0.8125
 40
0.8125
 40
0.84375
 40
0.84375
 40
0.84375
 40
0.84375
 40
0.875
 40
0.875
 40
0.875
 40
0.875
 40
0.90625
 40
0.90625
 40
0.90625
 40
0.90625
 40
0.9375
 40
0.9375
 40
0.9375
 40
0.9375
 40
0.96875
 40
0.96875
 40
0.96875
 40
0.96875
 40
1.0
 40
1.0
 40
1.0
 40
1.0
 10
-0.92949
 20
0.5048900000000001
 30
0.0
 10
-0.86599
 20
0.43885
 30
0.0
 10
-0.9421900000000001
 20
0.15945
 30
0.0
 10
-0.86599
 20
0.18231
 30
0.0
 10
-0.86599
 20
0.18231
 30
0.0
 10
-0.9040900000000001
 20
0.31947
 30
0.0
 10
-0.8532900000000001
 20
0.6496700000000001
 30
0.0
 10
-0.7872500000000001
 20
0.36265
 30
0.0
 10
-0.7872500000000001
 20
0.36265
 30
0.0
 10
-0.6856500000000001
 20
0.3677300000000001
 30
0.0
 10
-0.76185
 20
0.7563500000000001
 30
0.0
 10
-0.6856500000000001
 20
0.6344300000000001
 30
0.0
 10
-0.6856500000000001
 20
0.6344300000000001
 30
0.0
 10
-0.6856500000000001
 20
0.6344300000000001
 30
0.0
 10
-0.65771
 20
0.5429900000000001
 30
0.0
 10
-0.65771
 20
0.5429900000000001
 30
0.0
 10
-0.65771
 20
0.5429900000000001
 30
0.0
 10
-0.3224300000000001
 20
0.48203
 30
0.0
 10
-0.86599
 20
0.72587
 30
0.0
 10
-0.5027700000000001
 20
0.8808100000000001
 30
0.0
 10
-0.5027700000000001
 20
0.8808100000000001
 30
0.0
 10
-0.55611
 20
0.12389
 30
0.0
 10
0.20334
 20
0.91129
 30
0.0
 10
-0.05065
 20
1.3049900000000001
 30
0.0
 10
-0.05065
 20
1.3049900000000001
 30
0.0
 10
-0.06335
 20
1.4624700000000002
 30
0.0
 10
-0.09129
 20
1.6377300000000001
 30
0.0
 10
-0.06335
 20
1.7952100000000002
 30
0.0
 10
-0.06335
 20
1.7952100000000002
 30
0.0
 10
0.10174
 20
1.8612500000000001
 30
0.0
 10
0.08904
 20
1.6377300000000001
 30
0.0
 10
0.0611
 20
1.5386700000000002
 30
0.0
 10
0.0611
 20
1.5386700000000002
 30
0.0
 10
0.0611
 20
1.4167500000000002
 30
0.0
 10
0.0611
 20
1.2237100000000001
 30
0.0
 10
0.21858
 20
1.19069
 30
0.0
 10
0.21858
 20
1.19069
 30
0.0
 10
0.4497200000000001
 20
1.2973700000000001
 30
0.0
 10
0.47512
 20
1.5564500000000001
 30
0.0
 10
0.64276
 20
1.6910700000000001
 30
0.0
 10
0.64276
 20
1.6910700000000001
 30
0.0
 10
0.57926
 20
1.4751700000000001
 30
0.0
 10
0.7088000000000001
 20
1.1170300000000002
 30
0.0
 10
0.35828
 20
1.1602100000000002
 30
0.0
 10
0.35828
 20
1.1602100000000002
 30
0.0
 10
0.32018
 20
1.1398900000000001
 30
0.0
 10
0.33288
 20
1.0992500000000001
 30
0.0
 10
0.37098
 20
1.0865500000000001
 30
0.0
 10
0.37098
 20
1.0865500000000001
 30
0.0
 10
0.4497200000000001
 20
1.07131
 30
0.0
 10
0.55386
 20
1.0535300000000001
 30
0.0
 10
0.6300600000000001
 20
1.06115
 30
0.0
 10
0.6300600000000001
 20
1.06115
 30
0.0
 10
0.51322
 20
0.7309500000000001
 30
0.0
 10
-0.03795
 20
0.5633100000000001
 30
0.0
 10
-0.40117
 20
0.4515500000000001
 30
0.0
 10
-0.40117
 20
0.4515500000000001
 30
0.0
 10
-0.33513
 20
0.3575700000000001
 30
0.0
 10
-0.15479
 20
0.40583
 30
0.0
 10
-0.03795
 20
0.38551
 30
0.0
 10
-0.03795
 20
0.38551
 30
0.0
 10
-0.69581
 20
0.19755
 30
0.0
 10
-1.04633
 20
-0.4806200000000001
 30
0.0
 10
-1.6787900000000002
 20
-0.6660400000000001
 30
0.0
 10
-1.6787900000000002
 20
-0.6660400000000001
 30
0.0
 10
-1.9378700000000002
 20
-0.5644400000000001
 30
0.0
 10
-2.1690100000000001
 20
-0.5136400000000001
 30
0.0
 10
-2.3239500000000004
 20
-0.54666
 30
0.0
 10
-2.3239500000000004
 20
-0.54666
 30
0.0
 10
-2.3772900000000003
 20
-0.26218
 30
0.0
 10
-2.3772900000000003
 20
0.03753
 30
0.0
 10
-2.5068300000000003
 20
0.29661
 30
0.0
 10
-2.5068300000000003
 20
0.29661
 30
0.0
 10
-2.4407900000000002
 20
0.28645
 30
0.0
 10
-2.4534900000000004
 20
0.18739
 30
0.0
 10
-2.4153900000000004
 20
0.14675
 30
0.0
 10
-2.4153900000000004
 20
0.14675
 30
0.0
 10
-2.3366500000000001
 20
0.17723
 30
0.0
 10
-2.5068300000000003
 20
0.36011
 30
0.0
 10
-2.4280900000000001
 20
0.43885
 30
0.0
 10
-2.4280900000000001
 20
0.43885
 30
0.0
 10
-2.22235
 20
0.40583
 30
0.0
 10
-2.1969500000000002
 20
0.32201
 30
0.0
 10
-2.1690100000000001
 20
0.09595
 30
0.0
 10
-2.1690100000000001
 20
0.09595
 30
0.0
 10
-2.1182100000000004
 20
-0.07422
 30
0.0
 10
-2.0674100000000002
 20
-0.27742
 30
0.0
 10
-1.9632700000000001
 20
-0.4171200000000001
 30
0.0
 10
-1.9632700000000001
 20
-0.4171200000000001
 30
0.0
 10
-1.8997700000000002
 20
-0.17328
 30
0.0
 10
-1.9124700000000001
 20
0.11881
 30
0.0
 10
-1.8210300000000001
 20
0.36011
 30
0.0
 10
-1.8210300000000001
 20
0.36011
 30
0.0
 10
-1.8210300000000001
 20
0.27121
 30
0.0
 10
-1.8210300000000001
 20
0.16707
 30
0.0
 10
-1.7956300000000001
 20
0.09087
 30
0.0
 10
-1.7956300000000001
 20
0.09087
 30
0.0
 10
-1.7702300000000002
 20
0.29915
 30
0.0
 10
-1.8337300000000001
 20
0.47949
 30
0.0
 10
-1.5746500000000001
 20
0.4515500000000001
 30
0.0
 10
-1.5746500000000001
 20
0.4515500000000001
 30
0.0
 10
-1.6025900000000002
 20
0.32963
 30
0.0
 10
-1.6406900000000002
 20
0.18485
 30
0.0
 10
-1.62799
 20
0.07055
 30
0.0
 10
-1.62799
 20
0.07055
 30
0.0
 10
-1.62799
 20
0.07055
 30
0.0
 10
-1.38161
 20
0.5048900000000001
 30
0.0
 10
-1.38161
 20
0.5048900000000001
 30
0.0
 10
-1.38161
 20
0.5048900000000001
 30
0.0
 10
-1.38161
 20
0.5048900000000001
 30
0.0
 10
-1.2012700000000001
 20
0.19501
 30
0.0
 10
-1.2012700000000001
 20
0.19501
 30
0.0
 10
-1.2012700000000001
 20
0.19501
 30
0.0
 10
-1.1377700000000002
 20
0.27121
 30
0.0
 10
-1.1758700000000002
 20
0.41345
 30
0.0
 10
-1.12507
 20
0.48965
 30
0.0
 10
-1.12507
 20
0.48965
 30
0.0
 10
-1.12507
 20
0.48965
 30
0.0
 10
-1.08443
 20
0.19247
 30
0.0
 10
-1.08443
 20
0.19247
 30
0.0
 10
-1.08443
 20
0.19247
 30
0.0
 10
-1.08443
 20
0.19247
 30
0.0
 10
-1.0209300000000001
 20
0.10611
 30
0.0
 10
-1.0209300000000001
 20
0.10611
 30
0.0
 10
-1.0209300000000001
 20
0.10611
 30
0.0
 10
-1.03363
 20
0.28137
 30
0.0
 10
-1.04633
 20
0.39313
 30
0.0
 10
-0.92949
 20
0.5048900000000001
 30
0.0
  0
SPLINE
  5
35
100
AcDbEntity
  8
Ebene 1
 62
     7
100
AcDbSpline
210
0.0
220
0.0
230
1.0
 70
     1
 71
     3
 72
    12
 73
     8
 74
     0
 42
0.0000000001
 43
0.0000000001
 40
0.0
 40
0.0
 40
0.0
 40
0.0
 40
0.5
 40
0.5
 40
0.5
 40
0.5
 40
1.0
 40
1.0
 40
1.0
 40
1.0
 10
-0.33513
 20
1.22879
 30
0.0
 10
-0.23099
 20
1.15005
 30
0.0
 10
-0.25893
 20
0.9519300000000001
 30
0.0
 10
-0.29703
 20
0.8427100000000001
 30
0.0
 10
-0.29703
 20
0.8427100000000001
 30
0.0
 10
-0.38847
 20
0.9468500000000001
 30
0.0
 10
-0.4392700000000001
 20
1.11195
 30
0.0
 10
-0.33513
 20
1.22879
 30
0.0
  0
SPLINE
  5
36
100
AcDbEntity
  8
Ebene 1
 62
     7
100
AcDbSpline
210
0.0
220
0.0
230
1.0
 70
     1
 71
     3
 72
    16
 73
    12
 74
     0
 42
0.0000000001
 43
0.0000000001
 40
0.0
 40
0.0
 40
0.0
 40
0.0
 40
0.3333333333333333
 40
0.3333333333333333
 40
0.3333333333333333
 40
0.3333333333333333
 40
0.6666666666666666
 40
0.6666666666666666
 40
0.6666666666666666
 40
0.6666666666666666
 40
1.0
 40
1.0
 40
1.0
 40
1.0
 10
-0.8126500000000001
 20
1.06115
 30
0.0
 10
-0.76185
 20
1.02559
 30
0.0
 10
-0.76185
 20
0.93669
 30
0.0
 10
-0.7745500000000001
 20
0.8808100000000001
 30
0.0
 10
-0.7745500000000001
 20
0.8808100000000001
 30
0.0
 10
-0.7364500000000001
 20
0.7944500000000001
 30
0.0
 10
-0.76185
 20
0.70047
 30
0.0
 10
-0.7745500000000001
 20
0.6115700000000001
 30
0.0
 10
-0.7745500000000001
 20
0.6115700000000001
 30
0.0
 10
-0.8532900000000001
 20
0.7385700000000001
 30
0.0
 10
-0.9421900000000001
 20
0.9468500000000001
 30
0.0
 10
-0.8126500000000001
 20
1.06115
 30
0.0
  0
SPLINE
  5
37
100
AcDbEntity
  8
Ebene 1
 62
     7
100
AcDbSpline
210
0.0
220
0.0
230
1.0
 70
     1
 71
     3
 72
    12
 73
     8
 74
     0
 42
0.0000000001
 43
0.0000000001
 40
0.0
 40
0.0
 40
0.0
 40
0.0
 40
0.5
 40
0.5
 40
0.5
 40
0.5
 40
1.0
 40
1.0
 40
1.0
 40
1.0
 10
-1.6152900000000001
 20
0.9316100000000001
 30
0.0
 10
-1.6025900000000002
 20
0.84779
 30
0.0
 10
-1.5619500000000002
 20
0.6877700000000001
 30
0.0
 10
-1.6406900000000002
 20
0.62173
 30
0.0
 10
-1.6406900000000002
 20
0.62173
 30
0.0
 10
-1.6914900000000002
 20
0.70301
 30
0.0
 10
-1.62799
 20
0.8350900000000001
 30
0.0
 10
-1.6152900000000001
 20
0.9316100000000001
 30
0.0
  0
SPLINE
  5
38
100
AcDbEntity
  8
Ebene 1
 62
     7
100
AcDbSpline
210
0.0
220
0.0
230
1.0
 70
     1
 71
     3
 72
    12
 73
     8
 74
     0
 42
0.0000000001
 43
0.0000000001
 40
0.0
 40
0.0
 40
0.0
 40
0.0
 40
0.5
 40
0.5
 40
0.5
 40
0.5
 40
1.0
 40
1.0
 40
1.0
 40
1.0
 10
-2.8294100000000002
 20
0.8147700000000001
 30
0.0
 10
-2.7938500000000004
 20
0.76905
 30
0.0
 10
-2.7328900000000003
 20
0.6877700000000001
 30
0.0
 10
-2.7405100000000004
 20
0.63951
 30
0.0
 10
-2.7405100000000004
 20
0.63951
 30
0.0
 10
-2.8065500000000001
 20
0.6547500000000001
 30
0.0
 10
-2.8090900000000003
 20
0.7588900000000001
 30
0.0
 10
-2.8294100000000002
 20
0.8147700000000001
 30
0.0
  0
SPLINE
  5
39
100
AcDbEntity
  8
Ebene 1
 62
     7
100
AcDbSpline
210
0.0
220
0.0
230
1.0
 70
     1
 71
     3
 72
    16
 73
    12
 74
     0
 42
0.0000000001
 43
0.0000000001
 40
0.0
 40
0.0
 40
0.0
 40
0.0
 40
0.3333333333333333
 40
0.3333333333333333
 40
0.3333333333333333
 40
0.3333333333333333
 40
0.6666666666666666
 40
0.6666666666666666
 40
0.6666666666666666
 40
0.6666666666666666
 40
1.0
 40
1.0
 40
1.0
 40
1.0
 10
-0.99553
 20
0.46933
 30
0.0
 10
-0.99553
 20
0.46933
 30
0.0
 10
-0.9828300000000001
 20
0.7995300000000001
 30
0.0
 10
-0.9828300000000001
 20
0.7995300000000001
 30
0.0
 10
-0.9828300000000001
 20
0.7995300000000001
 30
0.0
 10
-0.9548900000000001
 20
0.8350900000000001
 30
0.0
 10
-0.9421900000000001
 20
0.7995300000000001
 30
0.0
 10
-0.92949
 20
0.7766700000000001
 30
0.0
 10
-0.92949
 20
0.7766700000000001
 30
0.0
 10
-0.92949
 20
0.6471300000000001
 30
0.0
 10
-0.9218700000000001
 20
0.57855
 30
0.0
 10
-0.99553
 20
0.46933
 30
0.0
  0
SPLINE
  5
3A
100
AcDbEntity
  8
Ebene 1
 62
     7
100
AcDbSpline
210
0.0
220
0.0
230
1.0
 70
     1
 71
     3
 72
    16
 73
    12
 74
     0
 42
0.0000000001
 43
0.0000000001
 40
0.0
 40
0.0
 40
0.0
 40
0.0
 40
0.3333333333333333
 40
0.3333333333333333
 40
0.3333333333333333
 40
0.3333333333333333
 40
0.6666666666666666
 40
0.6666666666666666
 40
0.6666666666666666
 40
0.6666666666666666
 40
1.0
 40
1.0
 40
1.0
 40
1.0
 10
-2.5830300000000004
 20
0.7385700000000001
 30
0.0
 10
-2.5703300000000002
 20
0.7411100000000001
 30
0.0
 10
-2.5576300000000001
 20
0.7334900000000001
 30
0.0
 10
-2.5449300000000004
 20
0.72333
 30
0.0
 10
-2.5449300000000004
 20
0.72333
 30
0.0
 10
-2.5068300000000003
 20
0.5226700000000001
 30
0.0
 10
-2.6084300000000002
 20
0.33471
 30
0.0
 10
-2.6566900000000002
 20
0.15945
 30
0.0
 10
-2.6566900000000002
 20
0.15945
 30
0.0
 10
-2.6439900000000001
 20
0.34995
 30
0.0
 10
-2.7100300000000002
 20
0.59379
 30
0.0
 10
-2.5830300000000004
 20
0.7385700000000001
 30
0.0
  0
SPLINE
  5
3B
100
AcDbEntity
  8
Ebene 1
 62
     7
100
AcDbSpline
210
0.0
220
0.0
230
1.0
 70
     1
 71
     3
 72
    20
 73
    16
 74
     0
 42
0.0000000001
 43
0.0000000001
 40
0.0
 40
0.0
 40
0.0
 40
0.0
 40
0.25
 40
0.25
 40
0.25
 40
0.25
 40
0.5
 40
0.5
 40
0.5
 40
0.5
 40
0.75
 40
0.75
 40
0.75
 40
0.75
 40
1.0
 40
1.0
 40
1.0
 40
1.0
 10
-2.0928100000000001
 20
0.6725300000000001
 30
0.0
 10
-2.05471
 20
0.6750700000000001
 30
0.0
 10
-2.02677
 20
0.6750700000000001
 30
0.0
 10
-1.9886700000000002
 20
0.65729
 30
0.0
 10
-1.9886700000000002
 20
0.65729
 30
0.0
 10
-1.8464300000000002
 20
0.4109100000000001
 30
0.0
 10
-1.9632700000000001
 20
0.10611
 30
0.0
 10
-2.0013700000000001
 20
-0.14534
 30
0.0
 10
-2.0013700000000001
 20
-0.14534
 30
0.0
 10
-2.0928100000000001
 20
0.08071
 30
0.0
 10
-2.1690100000000001
 20
0.34487
 30
0.0
 10
-2.18425
 20
0.6064900000000001
 30
0.0
 10
-2.18425
 20
0.6064900000000001
 30
0.0
 10
-2.18425
 20
0.6064900000000001
 30
0.0
 10
-2.0928100000000001
 20
0.6725300000000001
 30
0.0
 10
-2.0928100000000001
 20
0.6725300000000001
 30
0.0
  0
SPLINE
  5
3C
100
AcDbEntity
  8
Ebene 1
 62
     7
100
AcDbSpline
210
0.0
220
0.0
230
1.0
 70
     1
 71
     3
 72
    16
 73
    12
 74
     0
 42
0.0000000001
 43
0.0000000001
 40
0.0
 40
0.0
 40
0.0
 40
0.0
 40
0.3333333333333333
 40
0.3333333333333333
 40
0.3333333333333333
 40
0.3333333333333333
 40
0.6666666666666666
 40
0.6666666666666666
 40
0.6666666666666666
 40
0.6666666666666666
 40
1.0
 40
1.0
 40
1.0
 40
1.0
 10
-1.4984500000000001
 20
0.55569
 30
0.0
 10
-1.3562100000000001
 20
0.5861700000000001
 30
0.0
 10
-1.4730500000000002
 20
0.44901
 30
0.0
 10
-1.4984500000000001
 20
0.39313
 30
0.0
 10
-1.4984500000000001
 20
0.39313
 30
0.0
 10
-1.5365500000000001
 20
0.38297
 30
0.0
 10
-1.5238500000000001
 20
0.44901
 30
0.0
 10
-1.5111500000000002
 20
0.46679
 30
0.0
 10
-1.5111500000000002
 20
0.46679
 30
0.0
 10
-1.5111500000000002
 20
0.4972700000000001
 30
0.0
 10
-1.5238500000000001
 20
0.53283
 30
0.0
 10
-1.4984500000000001
 20
0.55569
 30
0.0
  0
SPLINE
  5
3D
100
AcDbEntity
  8
Ebene 1
 62
     7
100
AcDbSpline
210
0.0
220
0.0
230
1.0
 70
     1
 71
     3
 72
    12
 73
     8
 74
     0
 42
0.0000000001
 43
0.0000000001
 40
0.0
 40
0.0
 40
0.0
 40
0.0
 40
0.5
 40
0.5
 40
0.5
 40
0.5
 40
1.0
 40
1.0
 40
1.0
 40
1.0
 10
1.4708000000000001
 20
-1.1715
 30
0.0
 10
1.4708000000000001
 20
-1.1715
 30
0.0
 10
1.5343000000000002
 20
-1.6439400000000002
 30
0.0
 10
1.5343000000000002
 20
-1.6439400000000002
 30
0.0
 10
1.5343000000000002
 20
-1.6439400000000002
 30
0.0
 10
1.4174600000000002
 20
-1.5575800000000002
 30
0.0
 10
1.40476
 20
-1.3086600000000002
 30
0.0
 10
1.4708000000000001
 20
-1.1715
 30
0.0
  0
ENDSEC
  0
SECTION
  2
OBJECTS
  0
DICTIONARY
  5
19
100
AcDbDictionary
280
     0
281
     1
  3
ACAD_GROUP
350
1A
  3
ACAD_MLINESTYLE
350
1B
  3
ACAD_LAYOUT
350
1E
  3
ACAD_PLOTSETTINGS
350
22
  3
ACAD_PLOTSTYLENAME
350
1F
  3
ACAD_WIPEOUT_VARS
350
23
  0
DICTIONARY
  5
1A
102
{ACAD_REACTORS
330
19
102
}
100
AcDbDictionary
280
     0
281
     1
  0
DICTIONARY
  5
1B
102
{ACAD_REACTORS
330
19
102
}
100
AcDbDictionary
280
     0
281
     1
  3
Standard
350
1C
  0
MLINESTYLE
  5
1C
102
{ACAD_REACTORS
330
1B
102
}
100
AcDbMlineStyle
  2
Standard
 70
     0
  3

 62
     0
 51
90.0
 52
90.0
 71
     2
 49
0.5
 62
   256
  6
BYLAYER
 49
-0.5
 62
   256
  6
BYLAYER
  0
ACDBDICTIONARYWDFLT
  5
1F
102
{ACAD_REACTORS
330
19
102
}
100
AcDbDictionary
281
     1
  3
Normal
350
1D
100
AcDbDictionaryWithDefault
340
1D
  0
ACDBPLACEHOLDER
  5
1D
102
{ACAD_REACTORS
330
1F
102
}
  0
LAYOUT
  5
20
102
{ACAD_REACTORS
330
1E
102
}
100
AcDbPlotSettings
  1

  2

  4

  6

 40
0.0
 41
0.0
 42
0.0
 43
0.0
 44
0.0
 45
0.0
 46
0.0
 47
0.0
 48
0.0
 49
0.0
140
0.0
141
0.0
142
1.0
143
1.0
 70
  1024
 72
     0
 73
     0
 74
     0
  7

 75
     0
147
1.0
148
0.0
149
0.0
100
AcDbLayout
  1
Model
 70
     0
 71
     0
 10
0.0
 20
0.0
 11
0.0
 21
0.0
 12
0.0
 22
0.0
 32
0.0
 14
0.0
 24
0.0
 34
0.0
 15
0.0
 25
0.0
 35
0.0
146
0.0
 13
0.0
 23
0.0
 33
0.0
 16
0.0
 26
0.0
 36
0.0
 17
0.0
 27
0.0
 37
0.0
 76
     0
330
A
331
0
345
0
346
0
  0
LAYOUT
  5
21
102
{ACAD_REACTORS
330
1E
102
}
100
AcDbPlotSettings
  1

  2

  4

  6

 40
0.0
 41
0.0
 42
0.0
 43
0.0
 44
0.0
 45
0.0
 46
0.0
 47
0.0
 48
0.0
 49
0.0
140
0.0
141
0.0
142
1.0
143
1.0
 70
     0
 72
     0
 73
     0
 74
     0
  7

 75
     0
147
1.0
148
0.0
149
0.0
100
AcDbLayout
  1
Layout1
 70
     0
 71
     0
 10
0.0
 20
0.0
 11
0.0
 21
0.0
 12
0.0
 22
0.0
 32
0.0
 14
0.0
 24
0.0
 34
0.0
 15
0.0
 25
0.0
 35
0.0
146
0.0
 13
0.0
 23
0.0
 33
0.0
 16
0.0
 26
0.0
 36
0.0
 17
0.0
 27
0.0
 37
0.0
 76
     0
330
B
331
0
345
0
346
0
  0
DICTIONARY
  5
1E
102
{ACAD_REACTORS
330
19
102
}
100
AcDbDictionary
280
     0
281
     1
  3
Layout1
350
21
  3
Model
350
20
  0
DICTIONARY
  5
22
102
{ACAD_REACTORS
330
19
102
}
100
AcDbDictionary
280
     0
281
     1
  0
WIPEOUTVARIABLES
  5
23
100
AcDbWipeoutVariables
 70
     1
  0
ENDSEC
  0
EOF
