  0
SECTION
  2
HEADER
  9
$ACADVER
  1
AC1021
  9
$ACADMAINTVER
 70
    25
  9
$DWGCODEPAGE
  3
ANSI_1252
  9
$INSBASE
 10
0.0
 20
0.0
 30
0.0
  9
$EXTMIN
 10
-4.66799
 20
-8.59371
 30
0.0
  9
$EXTMAX
 10
4.66799
 20
8.59371
 30
0.0
  9
$LIMMIN
 10
0.0
 20
0.0
  9
$LIMMAX
 10
12.0
 20
9.0
  9
$ORTHOMODE
 70
     0
  9
$REGENMODE
 70
     1
  9
$FILLMODE
 70
     1
  9
$QTEXTMODE
 70
     0
  9
$MIRRTEXT
 70
     1
  9
$LTSCALE
 40
1.0
  9
$ATTMODE
 70
     1
  9
$TEXTSIZE
 40
0.2
  9
$TRACEWID
 40
0.05
  9
$TEXTSTYLE
  7
Standard
  9
$CLAYER
  8
0
  9
$CELTYPE
  6
ByLayer
  9
$CECOLOR
 62
   256
  9
$CELTSCALE
 40
1.0
  9
$DISPSILH
 70
     0
  9
$DIMSCALE
 40
1.0
  9
$DIMASZ
 40
0.18
  9
$DIMEXO
 40
0.0625
  9
$DIMDLI
 40
0.38
  9
$DIMRND
 40
0.0
  9
$DIMDLE
 40
0.0
  9
$DIMEXE
 40
0.18
  9
$DIMTP
 40
0.0
  9
$DIMTM
 40
0.0
  9
$DIMTXT
 40
0.18
  9
$DIMCEN
 40
0.09
  9
$DIMTSZ
 40
0.0
  9
$DIMTOL
 70
     0
  9
$DIMLIM
 70
     0
  9
$DIMTIH
 70
     1
  9
$DIMTOH
 70
     1
  9
$DIMSE1
 70
     0
  9
$DIMSE2
 70
     0
  9
$DIMTAD
 70
     0
  9
$DIMZIN
 70
     0
  9
$DIMBLK
  1

  9
$DIMASO
 70
     1
  9
$DIMSHO
 70
     1
  9
$DIMPOST
  1

  9
$DIMAPOST
  1

  9
$DIMALT
 70
     0
  9
$DIMALTD
 70
     2
  9
$DIMALTF
 40
25.4
  9
$DIMLFAC
 40
1.0
  9
$DIMTOFL
 70
     0
  9
$DIMTVP
 40
0.0
  9
$DIMTIX
 70
     0
  9
$DIMSOXD
 70
     0
  9
$DIMSAH
 70
     0
  9
$DIMBLK1
  1

  9
$DIMBLK2
  1

  9
$DIMSTYLE
  2
Standard
  9
$DIMCLRD
 70
     0
  9
$DIMCLRE
 70
     0
  9
$DIMCLRT
 70
     0
  9
$DIMTFAC
 40
1.0
  9
$DIMGAP
 40
0.09
  9
$DIMJUST
 70
     0
  9
$DIMSD1
 70
     0
  9
$DIMSD2
 70
     0
  9
$DIMTOLJ
 70
     1
  9
$DIMTZIN
 70
     0
  9
$DIMALTZ
 70
     0
  9
$DIMALTTZ
 70
     0
  9
$DIMUPT
 70
     0
  9
$DIMDEC
 70
     4
  9
$DIMTDEC
 70
     4
  9
$DIMALTU
 70
     2
  9
$DIMALTTD
 70
     2
  9
$DIMTXSTY
  7
Standard
  9
$DIMAUNIT
 70
     0
  9
$DIMADEC
 70
     0
  9
$DIMALTRND
 40
0.0
  9
$DIMAZIN
 70
     0
  9
$DIMDSEP
 70
    46
  9
$DIMATFIT
 70
     3
  9
$DIMFRAC
 70
     0
  9
$DIMLDRBLK
  1

  9
$DIMLUNIT
 70
     2
  9
$DIMLWD
 70
    -2
  9
$DIMLWE
 70
    -2
  9
$DIMTMOVE
 70
     0
  9
$DIMFXL
 40
1.0
  9
$DIMFXLON
 70
     0
  9
$DIMJOGANG
 40
0.7853981633974483
  9
$DIMTFILL
 70
     0
  9
$DIMTFILLCLR
 70
     0
  9
$DIMARCSYM
 70
     0
  9
$DIMLTYPE
  6

  9
$DIMLTEX1
  6

  9
$DIMLTEX2
  6

  9
$LUNITS
 70
     2
  9
$LUPREC
 70
     4
  9
$SKETCHINC
 40
0.1
  9
$FILLETRAD
 40
0.5
  9
$AUNITS
 70
     0
  9
$AUPREC
 70
     0
  9
$MENU
  1
.
  9
$ELEVATION
 40
0.0
  9
$PELEVATION
 40
0.0
  9
$THICKNESS
 40
0.0
  9
$LIMCHECK
 70
     0
  9
$CHAMFERA
 40
0.5
  9
$CHAMFERB
 40
0.5
  9
$CHAMFERC
 40
1.0
  9
$CHAMFERD
 40
0.0
  9
$SKPOLY
 70
     0
  9
$TDCREATE
 40
2456878.328030799
  9
$TDUCREATE
 40
2456878.453030799
  9
$TDUPDATE
 40
2456878.328030996
  9
$TDUUPDATE
 40
2456878.453030996
  9
$TDINDWG
 40
0.0000000116
  9
$TDUSRTIMER
 40
0.0000000116
  9
$USRTIMER
 70
     1
  9
$ANGBASE
 50
0.0
  9
$ANGDIR
 70
     0
  9
$PDMODE
 70
     0
  9
$PDSIZE
 40
0.0
  9
$PLINEWID
 40
0.0
  9
$SPLFRAME
 70
     0
  9
$SPLINETYPE
 70
     6
  9
$SPLINESEGS
 70
     8
  9
$HANDSEED
  5
65
  9
$SURFTAB1
 70
     6
  9
$SURFTAB2
 70
     6
  9
$SURFTYPE
 70
     6
  9
$SURFU
 70
     6
  9
$SURFV
 70
     6
  9
$UCSBASE
  2

  9
$UCSNAME
  2

  9
$UCSORG
 10
0.0
 20
0.0
 30
0.0
  9
$UCSXDIR
 10
1.0
 20
0.0
 30
0.0
  9
$UCSYDIR
 10
0.0
 20
1.0
 30
0.0
  9
$UCSORTHOREF
  2

  9
$UCSORTHOVIEW
 70
     0
  9
$UCSORGTOP
 10
0.0
 20
0.0
 30
0.0
  9
$UCSORGBOTTOM
 10
0.0
 20
0.0
 30
0.0
  9
$UCSORGLEFT
 10
0.0
 20
0.0
 30
0.0
  9
$UCSORGRIGHT
 10
0.0
 20
0.0
 30
0.0
  9
$UCSORGFRONT
 10
0.0
 20
0.0
 30
0.0
  9
$UCSORGBACK
 10
0.0
 20
0.0
 30
0.0
  9
$PUCSBASE
  2

  9
$PUCSNAME
  2

  9
$PUCSORG
 10
0.0
 20
0.0
 30
0.0
  9
$PUCSXDIR
 10
1.0
 20
0.0
 30
0.0
  9
$PUCSYDIR
 10
0.0
 20
1.0
 30
0.0
  9
$PUCSORTHOREF
  2

  9
$PUCSORTHOVIEW
 70
     0
  9
$PUCSORGTOP
 10
0.0
 20
0.0
 30
0.0
  9
$PUCSORGBOTTOM
 10
0.0
 20
0.0
 30
0.0
  9
$PUCSORGLEFT
 10
0.0
 20
0.0
 30
0.0
  9
$PUCSORGRIGHT
 10
0.0
 20
0.0
 30
0.0
  9
$PUCSORGFRONT
 10
0.0
 20
0.0
 30
0.0
  9
$PUCSORGBACK
 10
0.0
 20
0.0
 30
0.0
  9
$USERI1
 70
     0
  9
$USERI2
 70
     0
  9
$USERI3
 70
     0
  9
$USERI4
 70
     0
  9
$USERI5
 70
     0
  9
$USERR1
 40
0.0
  9
$USERR2
 40
0.0
  9
$USERR3
 40
0.0
  9
$USERR4
 40
0.0
  9
$USERR5
 40
0.0
  9
$WORLDVIEW
 70
     1
  9
$SHADEDGE
 70
     3
  9
$SHADEDIF
 70
    70
  9
$TILEMODE
 70
     1
  9
$MAXACTVP
 70
    64
  9
$PINSBASE
 10
0.0
 20
0.0
 30
0.0
  9
$PLIMCHECK
 70
     0
  9
$PEXTMIN
 10
1.000000000000000E+20
 20
1.000000000000000E+20
 30
1.000000000000000E+20
  9
$PEXTMAX
 10
-1.000000000000000E+20
 20
-1.000000000000000E+20
 30
-1.000000000000000E+20
  9
$PLIMMIN
 10
0.0
 20
0.0
  9
$PLIMMAX
 10
12.0
 20
9.0
  9
$UNITMODE
 70
     0
  9
$VISRETAIN
 70
     1
  9
$PLINEGEN
 70
     0
  9
$PSLTSCALE
 70
     1
  9
$TREEDEPTH
 70
  3020
  9
$CMLSTYLE
  2
Standard
  9
$CMLJUST
 70
     0
  9
$CMLSCALE
 40
1.0
  9
$PROXYGRAPHICS
 70
     1
  9
$MEASUREMENT
 70
     0
  9
$CELWEIGHT
370
    -1
  9
$ENDCAPS
280
     0
  9
$JOINSTYLE
280
     0
  9
$LWDISPLAY
290
     0
  9
$INSUNITS
 70
     5
  9
$HYPERLINKBASE
  1

  9
$STYLESHEET
  1

  9
$XEDIT
290
     1
  9
$CEPSNTYPE
380
     0
  9
$PSTYLEMODE
290
     1
  9
$FINGERPRINTGUID
  2
{BD2C245E-EAF3-4043-A3B7-CAE752817FC3}
  9
$VERSIONGUID
  2
{FAEB1C32-E019-11D5-929B-00C0DF256EC4}
  9
$EXTNAMES
290
     1
  9
$PSVPSCALE
 40
0.0
  9
$OLESTARTUP
290
     0
  9
$SORTENTS
280
   127
  9
$INDEXCTL
280
     0
  9
$HIDETEXT
280
     1
  9
$XCLIPFRAME
290
     0
  9
$HALOGAP
280
     0
  9
$OBSCOLOR
 70
   257
  9
$OBSLTYPE
280
     0
  9
$INTERSECTIONDISPLAY
280
     0
  9
$INTERSECTIONCOLOR
 70
   257
  9
$DIMASSOC
280
     2
  9
$PROJECTNAME
  1

  9
$CAMERADISPLAY
290
     0
  9
$LENSLENGTH
 40
50.0
  9
$CAMERAHEIGHT
 40
0.0
  9
$STEPSPERSEC
 40
2.0
  9
$STEPSIZE
 40
6.0
  9
$3DDWFPREC
 40
2.0
  9
$PSOLWIDTH
 40
0.25
  9
$PSOLHEIGHT
 40
4.0
  9
$LOFTANG1
 40
1.570796326794897
  9
$LOFTANG2
 40
1.570796326794897
  9
$LOFTMAG1
 40
0.0
  9
$LOFTMAG2
 40
0.0
  9
$LOFTPARAM
 70
     7
  9
$LOFTNORMALS
280
     1
  9
$LATITUDE
 40
37.795
  9
$LONGITUDE
 40
-122.394
  9
$NORTHDIRECTION
 40
0.0
  9
$TIMEZONE
 70
 -8000
  9
$LIGHTGLYPHDISPLAY
280
     1
  9
$TILEMODELIGHTSYNCH
280
     1
  9
$SOLIDHIST
280
     1
  9
$SHOWHIST
280
     1
  9
$DWFFRAME
280
     2
  9
$DGNFRAME
280
     2
  9
$REALWORLDSCALE
290
     1
  9
$INTERFERECOLOR
 62
   256
  9
$CSHADOW
280
     0
  9
$SHADOWPLANELOCATION
 40
0.0
  0
ENDSEC
  0
SECTION
  2
CLASSES
  0
CLASS
  1
ACDBDICTIONARYWDFLT
  2
AcDbDictionaryWithDefault
  3
ObjectDBX Classes
 90
        0
 91
        4
280
     0
281
     0
  0
CLASS
  1
VISUALSTYLE
  2
AcDbVisualStyle
  3
ObjectDBX Classes
 90
     4095
 91
        4
280
     0
281
     0
  0
CLASS
  1
MATERIAL
  2
AcDbMaterial
  3
ObjectDBX Classes
 90
     1153
 91
        4
280
     0
281
     0
  0
ENDSEC
  0
SECTION
  2
TABLES
  0
TABLE
  2
VPORT
  5
8
330
0
100
AcDbSymbolTable
 70
     1
  0
VPORT
  5
29
330
8
100
AcDbSymbolTableRecord
100
AcDbViewportTableRecord
  2
*Active
 70
     0
 10
0.0
 20
0.0
 11
1.0
 21
1.0
 12
10.42990654205607
 22
4.5
 13
0.0
 23
0.0
 14
0.5
 24
0.5
 15
0.5
 25
0.5
 16
0.0
 26
0.0
 36
1.0
 17
0.0
 27
0.0
 37
0.0
 40
9.0
 41
1.972972972850329
 42
50.0
 43
0.0
 44
0.0
 50
0.0
 51
0.0
 71
     0
 72
   100
 73
     1
 74
     3
 75
     0
 76
     0
 77
     0
 78
     0
281
     0
 65
     1
110
0.0
120
0.0
130
0.0
111
1.0
121
0.0
131
0.0
112
0.0
122
1.0
132
0.0
 79
     0
146
0.0
 60
     3
 61
     5
292
     1
282
     1
141
0.0
142
0.0
 63
   250
  0
ENDTAB
  0
TABLE
  2
LTYPE
  5
5
330
0
100
AcDbSymbolTable
 70
     1
  0
LTYPE
  5
14
330
5
100
AcDbSymbolTableRecord
100
AcDbLinetypeTableRecord
  2
ByBlock
 70
     0
  3

 72
    65
 73
     0
 40
0.0
  0
LTYPE
  5
15
330
5
100
AcDbSymbolTableRecord
100
AcDbLinetypeTableRecord
  2
ByLayer
 70
     0
  3

 72
    65
 73
     0
 40
0.0
  0
LTYPE
  5
16
330
5
100
AcDbSymbolTableRecord
100
AcDbLinetypeTableRecord
  2
Continuous
 70
     0
  3
Solid line
 72
    65
 73
     0
 40
0.0
  0
ENDTAB
  0
TABLE
  2
LAYER
  5
2
330
0
100
AcDbSymbolTable
 70
     2
  0
LAYER
  5
10
330
2
100
AcDbSymbolTableRecord
100
AcDbLayerTableRecord
  2
0
 70
     0
 62
     7
  6
Continuous
370
    -3
390
F
347
3E
  0
LAYER
  5
40
330
2
100
AcDbSymbolTableRecord
100
AcDbLayerTableRecord
  2
Camada 1
 70
     0
 62
     7
  6
Continuous
370
    -3
390
F
347
3E
  0
ENDTAB
  0
TABLE
  2
STYLE
  5
3
330
0
100
AcDbSymbolTable
 70
     1
  0
STYLE
  5
11
330
3
100
AcDbSymbolTableRecord
100
AcDbTextStyleTableRecord
  2
Standard
 70
     0
 40
0.0
 41
1.0
 50
0.0
 71
     0
 42
0.2
  3
txt
  4

  0
ENDTAB
  0
TABLE
  2
VIEW
  5
6
330
0
100
AcDbSymbolTable
 70
     0
  0
ENDTAB
  0
TABLE
  2
UCS
  5
7
330
0
100
AcDbSymbolTable
 70
     0
  0
ENDTAB
  0
TABLE
  2
APPID
  5
9
330
0
100
AcDbSymbolTable
 70
     2
  0
APPID
  5
12
330
9
100
AcDbSymbolTableRecord
100
AcDbRegAppTableRecord
  2
ACAD
 70
     0
  0
APPID
  5
3F
330
9
100
AcDbSymbolTableRecord
100
AcDbRegAppTableRecord
  2
ODA
 70
     0
  0
ENDTAB
  0
TABLE
  2
DIMSTYLE
  5
A
330
0
100
AcDbSymbolTable
 70
     1
100
AcDbDimStyleTable
  0
DIMSTYLE
105
27
330
A
100
AcDbSymbolTableRecord
100
AcDbDimStyleTableRecord
  2
Standard
 70
     0
178
     0
340
11
  0
ENDTAB
  0
TABLE
  2
BLOCK_RECORD
  5
1
330
0
100
AcDbSymbolTable
 70
     1
  0
BLOCK_RECORD
  5
1F
330
1
100
AcDbSymbolTableRecord
100
AcDbBlockTableRecord
  2
*Model_Space
340
22
 70
     0
280
     1
281
     0
  0
BLOCK_RECORD
  5
1B
330
1
100
AcDbSymbolTableRecord
100
AcDbBlockTableRecord
  2
*Paper_Space
340
1E
 70
     0
280
     1
281
     0
  0
BLOCK_RECORD
  5
23
330
1
100
AcDbSymbolTableRecord
100
AcDbBlockTableRecord
  2
*Paper_Space0
340
26
 70
     0
280
     1
281
     0
  0
ENDTAB
  0
ENDSEC
  0
SECTION
  2
BLOCKS
  0
BLOCK
  5
20
330
1F
100
AcDbEntity
  8
0
100
AcDbBlockBegin
  2
*Model_Space
 70
     0
 10
0.0
 20
0.0
 30
0.0
  3
*Model_Space
  1

  0
ENDBLK
  5
21
330
1F
100
AcDbEntity
  8
0
100
AcDbBlockEnd
  0
BLOCK
  5
1C
330
1B
100
AcDbEntity
 67
     1
  8
0
100
AcDbBlockBegin
  2
*Paper_Space
 70
     0
 10
0.0
 20
0.0
 30
0.0
  3
*Paper_Space
  1

  0
ENDBLK
  5
1D
330
1B
100
AcDbEntity
 67
     1
  8
0
100
AcDbBlockEnd
  0
BLOCK
  5
24
330
23
100
AcDbEntity
  8
0
100
AcDbBlockBegin
  2
*Paper_Space0
 70
     0
 10
0.0
 20
0.0
 30
0.0
  3
*Paper_Space0
  1

  0
ENDBLK
  5
25
330
23
100
AcDbEntity
  8
0
100
AcDbBlockEnd
  0
ENDSEC
  0
SECTION
  2
ENTITIES
  0
SPLINE
  5
41
330
1F
100
AcDbEntity
  8
Camada 1
100
AcDbSpline
210
0.0
220
0.0
230
1.0
 70
    11
 71
     3
 72
   852
 73
   848
 74
     0
 42
0.0000000001
 43
0.0000000001
 12
1.0
 22
0.0
 32
0.0
 13
1.0
 23
0.0
 33
0.0
 40
0.0
 40
0.0
 40
0.0
 40
0.0
 40
0.0046948356807512
 40
0.0046948356807512
 40
0.0046948356807512
 40
0.0046948356807512
 40
0.0093896713615023
 40
0.0093896713615023
 40
0.0093896713615023
 40
0.0093896713615023
 40
0.0140845070422535
 40
0.0140845070422535
 40
0.0140845070422535
 40
0.0140845070422535
 40
0.0187793427230047
 40
0.0187793427230047
 40
0.0187793427230047
 40
0.0187793427230047
 40
0.0234741784037559
 40
0.0234741784037559
 40
0.0234741784037559
 40
0.0234741784037559
 40
0.028169014084507
 40
0.028169014084507
 40
0.028169014084507
 40
0.028169014084507
 40
0.0328638497652582
 40
0.0328638497652582
 40
0.0328638497652582
 40
0.0328638497652582
 40
0.0375586854460094
 40
0.0375586854460094
 40
0.0375586854460094
 40
0.0375586854460094
 40
0.0422535211267606
 40
0.0422535211267606
 40
0.0422535211267606
 40
0.0422535211267606
 40
0.0469483568075117
 40
0.0469483568075117
 40
0.0469483568075117
 40
0.0469483568075117
 40
0.0516431924882629
 40
0.0516431924882629
 40
0.0516431924882629
 40
0.0516431924882629
 40
0.0563380281690141
 40
0.0563380281690141
 40
0.0563380281690141
 40
0.0563380281690141
 40
0.0610328638497653
 40
0.0610328638497653
 40
0.0610328638497653
 40
0.0610328638497653
 40
0.0657276995305164
 40
0.0657276995305164
 40
0.0657276995305164
 40
0.0657276995305164
 40
0.0704225352112676
 40
0.0704225352112676
 40
0.0704225352112676
 40
0.0704225352112676
 40
0.0751173708920188
 40
0.0751173708920188
 40
0.0751173708920188
 40
0.0751173708920188
 40
0.07981220657277
 40
0.07981220657277
 40
0.07981220657277
 40
0.07981220657277
 40
0.0845070422535211
 40
0.0845070422535211
 40
0.0845070422535211
 40
0.0845070422535211
 40
0.0892018779342723
 40
0.0892018779342723
 40
0.0892018779342723
 40
0.0892018779342723
 40
0.0938967136150235
 40
0.0938967136150235
 40
0.0938967136150235
 40
0.0938967136150235
 40
0.0985915492957746
 40
0.0985915492957746
 40
0.0985915492957746
 40
0.0985915492957746
 40
0.1032863849765258
 40
0.1032863849765258
 40
0.1032863849765258
 40
0.1032863849765258
 40
0.107981220657277
 40
0.107981220657277
 40
0.107981220657277
 40
0.107981220657277
 40
0.1126760563380282
 40
0.1126760563380282
 40
0.1126760563380282
 40
0.1126760563380282
 40
0.1173708920187793
 40
0.1173708920187793
 40
0.1173708920187793
 40
0.1173708920187793
 40
0.1220657276995305
 40
0.1220657276995305
 40
0.1220657276995305
 40
0.1220657276995305
 40
0.1267605633802817
 40
0.1267605633802817
 40
0.1267605633802817
 40
0.1267605633802817
 40
0.1314553990610329
 40
0.1314553990610329
 40
0.1314553990610329
 40
0.1314553990610329
 40
0.136150234741784
 40
0.136150234741784
 40
0.136150234741784
 40
0.136150234741784
 40
0.1408450704225352
 40
0.1408450704225352
 40
0.1408450704225352
 40
0.1408450704225352
 40
0.1455399061032864
 40
0.1455399061032864
 40
0.1455399061032864
 40
0.1455399061032864
 40
0.1502347417840376
 40
0.1502347417840376
 40
0.1502347417840376
 40
0.1502347417840376
 40
0.1549295774647887
 40
0.1549295774647887
 40
0.1549295774647887
 40
0.1549295774647887
 40
0.1596244131455399
 40
0.1596244131455399
 40
0.1596244131455399
 40
0.1596244131455399
 40
0.1643192488262911
 40
0.1643192488262911
 40
0.1643192488262911
 40
0.1643192488262911
 40
0.1690140845070423
 40
0.1690140845070423
 40
0.1690140845070423
 40
0.1690140845070423
 40
0.1737089201877934
 40
0.1737089201877934
 40
0.1737089201877934
 40
0.1737089201877934
 40
0.1784037558685446
 40
0.1784037558685446
 40
0.1784037558685446
 40
0.1784037558685446
 40
0.1830985915492958
 40
0.1830985915492958
 40
0.1830985915492958
 40
0.1830985915492958
 40
0.1877934272300469
 40
0.1877934272300469
 40
0.1877934272300469
 40
0.1877934272300469
 40
0.1924882629107981
 40
0.1924882629107981
 40
0.1924882629107981
 40
0.1924882629107981
 40
0.1971830985915493
 40
0.1971830985915493
 40
0.1971830985915493
 40
0.1971830985915493
 40
0.2018779342723005
 40
0.2018779342723005
 40
0.2018779342723005
 40
0.2018779342723005
 40
0.2065727699530517
 40
0.2065727699530517
 40
0.2065727699530517
 40
0.2065727699530517
 40
0.2112676056338028
 40
0.2112676056338028
 40
0.2112676056338028
 40
0.2112676056338028
 40
0.215962441314554
 40
0.215962441314554
 40
0.215962441314554
 40
0.215962441314554
 40
0.2206572769953052
 40
0.2206572769953052
 40
0.2206572769953052
 40
0.2206572769953052
 40
0.2253521126760563
 40
0.2253521126760563
 40
0.2253521126760563
 40
0.2253521126760563
 40
0.2300469483568075
 40
0.2300469483568075
 40
0.2300469483568075
 40
0.2300469483568075
 40
0.2347417840375587
 40
0.2347417840375587
 40
0.2347417840375587
 40
0.2347417840375587
 40
0.2394366197183098
 40
0.2394366197183098
 40
0.2394366197183098
 40
0.2394366197183098
 40
0.244131455399061
 40
0.244131455399061
 40
0.244131455399061
 40
0.244131455399061
 40
0.2488262910798122
 40
0.2488262910798122
 40
0.2488262910798122
 40
0.2488262910798122
 40
0.2535211267605634
 40
0.2535211267605634
 40
0.2535211267605634
 40
0.2535211267605634
 40
0.2582159624413146
 40
0.2582159624413146
 40
0.2582159624413146
 40
0.2582159624413146
 40
0.2629107981220657
 40
0.2629107981220657
 40
0.2629107981220657
 40
0.2629107981220657
 40
0.2676056338028169
 40
0.2676056338028169
 40
0.2676056338028169
 40
0.2676056338028169
 40
0.2723004694835681
 40
0.2723004694835681
 40
0.2723004694835681
 40
0.2723004694835681
 40
0.2769953051643192
 40
0.2769953051643192
 40
0.2769953051643192
 40
0.2769953051643192
 40
0.2816901408450704
 40
0.2816901408450704
 40
0.2816901408450704
 40
0.2816901408450704
 40
0.2863849765258216
 40
0.2863849765258216
 40
0.2863849765258216
 40
0.2863849765258216
 40
0.2910798122065728
 40
0.2910798122065728
 40
0.2910798122065728
 40
0.2910798122065728
 40
0.2957746478873239
 40
0.2957746478873239
 40
0.2957746478873239
 40
0.2957746478873239
 40
0.3004694835680751
 40
0.3004694835680751
 40
0.3004694835680751
 40
0.3004694835680751
 40
0.3051643192488263
 40
0.3051643192488263
 40
0.3051643192488263
 40
0.3051643192488263
 40
0.3098591549295774
 40
0.3098591549295774
 40
0.3098591549295774
 40
0.3098591549295774
 40
0.3145539906103286
 40
0.3145539906103286
 40
0.3145539906103286
 40
0.3145539906103286
 40
0.3192488262910798
 40
0.3192488262910798
 40
0.3192488262910798
 40
0.3192488262910798
 40
0.323943661971831
 40
0.323943661971831
 40
0.323943661971831
 40
0.323943661971831
 40
0.3286384976525822
 40
0.3286384976525822
 40
0.3286384976525822
 40
0.3286384976525822
 40
0.3333333333333333
 40
0.3333333333333333
 40
0.3333333333333333
 40
0.3333333333333333
 40
0.3380281690140845
 40
0.3380281690140845
 40
0.3380281690140845
 40
0.3380281690140845
 40
0.3427230046948357
 40
0.3427230046948357
 40
0.3427230046948357
 40
0.3427230046948357
 40
0.3474178403755869
 40
0.3474178403755869
 40
0.3474178403755869
 40
0.3474178403755869
 40
0.352112676056338
 40
0.352112676056338
 40
0.352112676056338
 40
0.352112676056338
 40
0.3568075117370892
 40
0.3568075117370892
 40
0.3568075117370892
 40
0.3568075117370892
 40
0.3615023474178404
 40
0.3615023474178404
 40
0.3615023474178404
 40
0.3615023474178404
 40
0.3661971830985916
 40
0.3661971830985916
 40
0.3661971830985916
 40
0.3661971830985916
 40
0.3708920187793427
 40
0.3708920187793427
 40
0.3708920187793427
 40
0.3708920187793427
 40
0.3755868544600939
 40
0.3755868544600939
 40
0.3755868544600939
 40
0.3755868544600939
 40
0.3802816901408451
 40
0.3802816901408451
 40
0.3802816901408451
 40
0.3802816901408451
 40
0.3849765258215962
 40
0.3849765258215962
 40
0.3849765258215962
 40
0.3849765258215962
 40
0.3896713615023474
 40
0.3896713615023474
 40
0.3896713615023474
 40
0.3896713615023474
 40
0.3943661971830986
 40
0.3943661971830986
 40
0.3943661971830986
 40
0.3943661971830986
 40
0.3990610328638498
 40
0.3990610328638498
 40
0.3990610328638498
 40
0.3990610328638498
 40
0.4037558685446009
 40
0.4037558685446009
 40
0.4037558685446009
 40
0.4037558685446009
 40
0.4084507042253521
 40
0.4084507042253521
 40
0.4084507042253521
 40
0.4084507042253521
 40
0.4131455399061033
 40
0.4131455399061033
 40
0.4131455399061033
 40
0.4131455399061033
 40
0.4178403755868544
 40
0.4178403755868544
 40
0.4178403755868544
 40
0.4178403755868544
 40
0.4225352112676056
 40
0.4225352112676056
 40
0.4225352112676056
 40
0.4225352112676056
 40
0.4272300469483568
 40
0.4272300469483568
 40
0.4272300469483568
 40
0.4272300469483568
 40
0.431924882629108
 40
0.431924882629108
 40
0.431924882629108
 40
0.431924882629108
 40
0.4366197183098591
 40
0.4366197183098591
 40
0.4366197183098591
 40
0.4366197183098591
 40
0.4413145539906103
 40
0.4413145539906103
 40
0.4413145539906103
 40
0.4413145539906103
 40
0.4460093896713615
 40
0.4460093896713615
 40
0.4460093896713615
 40
0.4460093896713615
 40
0.4507042253521127
 40
0.4507042253521127
 40
0.4507042253521127
 40
0.4507042253521127
 40
0.4553990610328639
 40
0.4553990610328639
 40
0.4553990610328639
 40
0.4553990610328639
 40
0.460093896713615
 40
0.460093896713615
 40
0.460093896713615
 40
0.460093896713615
 40
0.4647887323943662
 40
0.4647887323943662
 40
0.4647887323943662
 40
0.4647887323943662
 40
0.4694835680751174
 40
0.4694835680751174
 40
0.4694835680751174
 40
0.4694835680751174
 40
0.4741784037558686
 40
0.4741784037558686
 40
0.4741784037558686
 40
0.4741784037558686
 40
0.4788732394366197
 40
0.4788732394366197
 40
0.4788732394366197
 40
0.4788732394366197
 40
0.4835680751173709
 40
0.4835680751173709
 40
0.4835680751173709
 40
0.4835680751173709
 40
0.4882629107981221
 40
0.4882629107981221
 40
0.4882629107981221
 40
0.4882629107981221
 40
0.4929577464788732
 40
0.4929577464788732
 40
0.4929577464788732
 40
0.4929577464788732
 40
0.4976525821596244
 40
0.4976525821596244
 40
0.4976525821596244
 40
0.4976525821596244
 40
0.5023474178403756
 40
0.5023474178403756
 40
0.5023474178403756
 40
0.5023474178403756
 40
0.5070422535211268
 40
0.5070422535211268
 40
0.5070422535211268
 40
0.5070422535211268
 40
0.5117370892018779
 40
0.5117370892018779
 40
0.5117370892018779
 40
0.5117370892018779
 40
0.5164319248826291
 40
0.5164319248826291
 40
0.5164319248826291
 40
0.5164319248826291
 40
0.5211267605633803
 40
0.5211267605633803
 40
0.5211267605633803
 40
0.5211267605633803
 40
0.5258215962441315
 40
0.5258215962441315
 40
0.5258215962441315
 40
0.5258215962441315
 40
0.5305164319248826
 40
0.5305164319248826
 40
0.5305164319248826
 40
0.5305164319248826
 40
0.5352112676056338
 40
0.5352112676056338
 40
0.5352112676056338
 40
0.5352112676056338
 40
0.539906103286385
 40
0.539906103286385
 40
0.539906103286385
 40
0.539906103286385
 40
0.5446009389671361
 40
0.5446009389671361
 40
0.5446009389671361
 40
0.5446009389671361
 40
0.5492957746478874
 40
0.5492957746478874
 40
0.5492957746478874
 40
0.5492957746478874
 40
0.5539906103286385
 40
0.5539906103286385
 40
0.5539906103286385
 40
0.5539906103286385
 40
0.5586854460093896
 40
0.5586854460093896
 40
0.5586854460093896
 40
0.5586854460093896
 40
0.5633802816901409
 40
0.5633802816901409
 40
0.5633802816901409
 40
0.5633802816901409
 40
0.568075117370892
 40
0.568075117370892
 40
0.568075117370892
 40
0.568075117370892
 40
0.5727699530516432
 40
0.5727699530516432
 40
0.5727699530516432
 40
0.5727699530516432
 40
0.5774647887323944
 40
0.5774647887323944
 40
0.5774647887323944
 40
0.5774647887323944
 40
0.5821596244131455
 40
0.5821596244131455
 40
0.5821596244131455
 40
0.5821596244131455
 40
0.5868544600938967
 40
0.5868544600938967
 40
0.5868544600938967
 40
0.5868544600938967
 40
0.5915492957746479
 40
0.5915492957746479
 40
0.5915492957746479
 40
0.5915492957746479
 40
0.596244131455399
 40
0.596244131455399
 40
0.596244131455399
 40
0.596244131455399
 40
0.6009389671361502
 40
0.6009389671361502
 40
0.6009389671361502
 40
0.6009389671361502
 40
0.6056338028169014
 40
0.6056338028169014
 40
0.6056338028169014
 40
0.6056338028169014
 40
0.6103286384976526
 40
0.6103286384976526
 40
0.6103286384976526
 40
0.6103286384976526
 40
0.6150234741784038
 40
0.6150234741784038
 40
0.6150234741784038
 40
0.6150234741784038
 40
0.6197183098591549
 40
0.6197183098591549
 40
0.6197183098591549
 40
0.6197183098591549
 40
0.6244131455399061
 40
0.6244131455399061
 40
0.6244131455399061
 40
0.6244131455399061
 40
0.6291079812206573
 40
0.6291079812206573
 40
0.6291079812206573
 40
0.6291079812206573
 40
0.6338028169014085
 40
0.6338028169014085
 40
0.6338028169014085
 40
0.6338028169014085
 40
0.6384976525821596
 40
0.6384976525821596
 40
0.6384976525821596
 40
0.6384976525821596
 40
0.6431924882629108
 40
0.6431924882629108
 40
0.6431924882629108
 40
0.6431924882629108
 40
0.647887323943662
 40
0.647887323943662
 40
0.647887323943662
 40
0.647887323943662
 40
0.6525821596244131
 40
0.6525821596244131
 40
0.6525821596244131
 40
0.6525821596244131
 40
0.6572769953051644
 40
0.6572769953051644
 40
0.6572769953051644
 40
0.6572769953051644
 40
0.6619718309859155
 40
0.6619718309859155
 40
0.6619718309859155
 40
0.6619718309859155
 40
0.6666666666666666
 40
0.6666666666666666
 40
0.6666666666666666
 40
0.6666666666666666
 40
0.6713615023474179
 40
0.6713615023474179
 40
0.6713615023474179
 40
0.6713615023474179
 40
0.676056338028169
 40
0.676056338028169
 40
0.676056338028169
 40
0.676056338028169
 40
0.6807511737089202
 40
0.6807511737089202
 40
0.6807511737089202
 40
0.6807511737089202
 40
0.6854460093896714
 40
0.6854460093896714
 40
0.6854460093896714
 40
0.6854460093896714
 40
0.6901408450704225
 40
0.6901408450704225
 40
0.6901408450704225
 40
0.6901408450704225
 40
0.6948356807511737
 40
0.6948356807511737
 40
0.6948356807511737
 40
0.6948356807511737
 40
0.6995305164319249
 40
0.6995305164319249
 40
0.6995305164319249
 40
0.6995305164319249
 40
0.704225352112676
 40
0.704225352112676
 40
0.704225352112676
 40
0.704225352112676
 40
0.7089201877934272
 40
0.7089201877934272
 40
0.7089201877934272
 40
0.7089201877934272
 40
0.7136150234741784
 40
0.7136150234741784
 40
0.7136150234741784
 40
0.7136150234741784
 40
0.7183098591549296
 40
0.7183098591549296
 40
0.7183098591549296
 40
0.7183098591549296
 40
0.7230046948356808
 40
0.7230046948356808
 40
0.7230046948356808
 40
0.7230046948356808
 40
0.7276995305164319
 40
0.7276995305164319
 40
0.7276995305164319
 40
0.7276995305164319
 40
0.7323943661971831
 40
0.7323943661971831
 40
0.7323943661971831
 40
0.7323943661971831
 40
0.7370892018779343
 40
0.7370892018779343
 40
0.7370892018779343
 40
0.7370892018779343
 40
0.7417840375586855
 40
0.7417840375586855
 40
0.7417840375586855
 40
0.7417840375586855
 40
0.7464788732394366
 40
0.7464788732394366
 40
0.7464788732394366
 40
0.7464788732394366
 40
0.7511737089201878
 40
0.7511737089201878
 40
0.7511737089201878
 40
0.7511737089201878
 40
0.755868544600939
 40
0.755868544600939
 40
0.755868544600939
 40
0.755868544600939
 40
0.7605633802816901
 40
0.7605633802816901
 40
0.7605633802816901
 40
0.7605633802816901
 40
0.7652582159624414
 40
0.7652582159624414
 40
0.7652582159624414
 40
0.7652582159624414
 40
0.7699530516431925
 40
0.7699530516431925
 40
0.7699530516431925
 40
0.7699530516431925
 40
0.7746478873239436
 40
0.7746478873239436
 40
0.7746478873239436
 40
0.7746478873239436
 40
0.7793427230046949
 40
0.7793427230046949
 40
0.7793427230046949
 40
0.7793427230046949
 40
0.784037558685446
 40
0.784037558685446
 40
0.784037558685446
 40
0.784037558685446
 40
0.7887323943661971
 40
0.7887323943661971
 40
0.7887323943661971
 40
0.7887323943661971
 40
0.7934272300469484
 40
0.7934272300469484
 40
0.7934272300469484
 40
0.7934272300469484
 40
0.7981220657276995
 40
0.7981220657276995
 40
0.7981220657276995
 40
0.7981220657276995
 40
0.8028169014084507
 40
0.8028169014084507
 40
0.8028169014084507
 40
0.8028169014084507
 40
0.8075117370892019
 40
0.8075117370892019
 40
0.8075117370892019
 40
0.8075117370892019
 40
0.812206572769953
 40
0.812206572769953
 40
0.812206572769953
 40
0.812206572769953
 40
0.8169014084507042
 40
0.8169014084507042
 40
0.8169014084507042
 40
0.8169014084507042
 40
0.8215962441314554
 40
0.8215962441314554
 40
0.8215962441314554
 40
0.8215962441314554
 40
0.8262910798122066
 40
0.8262910798122066
 40
0.8262910798122066
 40
0.8262910798122066
 40
0.8309859154929577
 40
0.8309859154929577
 40
0.8309859154929577
 40
0.8309859154929577
 40
0.8356807511737089
 40
0.8356807511737089
 40
0.8356807511737089
 40
0.8356807511737089
 40
0.8403755868544601
 40
0.8403755868544601
 40
0.8403755868544601
 40
0.8403755868544601
 40
0.8450704225352113
 40
0.8450704225352113
 40
0.8450704225352113
 40
0.8450704225352113
 40
0.8497652582159625
 40
0.8497652582159625
 40
0.8497652582159625
 40
0.8497652582159625
 40
0.8544600938967136
 40
0.8544600938967136
 40
0.8544600938967136
 40
0.8544600938967136
 40
0.8591549295774648
 40
0.8591549295774648
 40
0.8591549295774648
 40
0.8591549295774648
 40
0.863849765258216
 40
0.863849765258216
 40
0.863849765258216
 40
0.863849765258216
 40
0.8685446009389671
 40
0.8685446009389671
 40
0.8685446009389671
 40
0.8685446009389671
 40
0.8732394366197183
 40
0.8732394366197183
 40
0.8732394366197183
 40
0.8732394366197183
 40
0.8779342723004695
 40
0.8779342723004695
 40
0.8779342723004695
 40
0.8779342723004695
 40
0.8826291079812206
 40
0.8826291079812206
 40
0.8826291079812206
 40
0.8826291079812206
 40
0.8873239436619719
 40
0.8873239436619719
 40
0.8873239436619719
 40
0.8873239436619719
 40
0.892018779342723
 40
0.892018779342723
 40
0.892018779342723
 40
0.892018779342723
 40
0.8967136150234741
 40
0.8967136150234741
 40
0.8967136150234741
 40
0.8967136150234741
 40
0.9014084507042254
 40
0.9014084507042254
 40
0.9014084507042254
 40
0.9014084507042254
 40
0.9061032863849765
 40
0.9061032863849765
 40
0.9061032863849765
 40
0.9061032863849765
 40
0.9107981220657277
 40
0.9107981220657277
 40
0.9107981220657277
 40
0.9107981220657277
 40
0.9154929577464789
 40
0.9154929577464789
 40
0.9154929577464789
 40
0.9154929577464789
 40
0.92018779342723
 40
0.92018779342723
 40
0.92018779342723
 40
0.92018779342723
 40
0.9248826291079812
 40
0.9248826291079812
 40
0.9248826291079812
 40
0.9248826291079812
 40
0.9295774647887324
 40
0.9295774647887324
 40
0.9295774647887324
 40
0.9295774647887324
 40
0.9342723004694836
 40
0.9342723004694836
 40
0.9342723004694836
 40
0.9342723004694836
 40
0.9389671361502347
 40
0.9389671361502347
 40
0.9389671361502347
 40
0.9389671361502347
 40
0.9436619718309859
 40
0.9436619718309859
 40
0.9436619718309859
 40
0.9436619718309859
 40
0.9483568075117371
 40
0.9483568075117371
 40
0.9483568075117371
 40
0.9483568075117371
 40
0.9530516431924883
 40
0.9530516431924883
 40
0.9530516431924883
 40
0.9530516431924883
 40
0.9577464788732394
 40
0.9577464788732394
 40
0.9577464788732394
 40
0.9577464788732394
 40
0.9624413145539906
 40
0.9624413145539906
 40
0.9624413145539906
 40
0.9624413145539906
 40
0.9671361502347418
 40
0.9671361502347418
 40
0.9671361502347418
 40
0.9671361502347418
 40
0.971830985915493
 40
0.971830985915493
 40
0.971830985915493
 40
0.971830985915493
 40
0.9765258215962441
 40
0.9765258215962441
 40
0.9765258215962441
 40
0.9765258215962441
 40
0.9812206572769953
 40
0.9812206572769953
 40
0.9812206572769953
 40
0.9812206572769953
 40
0.9859154929577465
 40
0.9859154929577465
 40
0.9859154929577465
 40
0.9859154929577465
 40
0.9906103286384976
 40
0.9906103286384976
 40
0.9906103286384976
 40
0.9906103286384976
 40
1.0
 40
1.0
 40
1.0
 40
1.0
 10
4.26265
 20
3.31703
 30
0.0
 10
4.34398
 20
3.22297
 30
0.0
 10
4.42145
 20
3.11145
 30
0.0
 10
4.45003
 20
3.06703
 30
0.0
 10
4.45003
 20
3.06703
 30
0.0
 10
4.47845
 20
3.02261
 30
0.0
 10
4.51358
 20
3.01943
 30
0.0
 10
4.54523
 20
2.95924
 30
0.0
 10
4.54523
 20
2.95924
 30
0.0
 10
4.57701
 20
2.89907
 30
0.0
 10
4.54843
 20
2.76562
 30
0.0
 10
4.54843
 20
2.76562
 30
0.0
 10
4.54843
 20
2.76562
 30
0.0
 10
4.54843
 20
2.76562
 30
0.0
 10
4.57126
 20
2.71011
 30
0.0
 10
4.59457
 20
2.65947
 30
0.0
 10
4.59457
 20
2.65947
 30
0.0
 10
4.59457
 20
2.65947
 30
0.0
 10
4.6387
 20
2.56176
 30
0.0
 10
4.6387
 20
2.56176
 30
0.0
 10
4.6387
 20
2.56176
 30
0.0
 10
4.6387
 20
2.56176
 30
0.0
 10
4.68982
 20
2.4749
 30
0.0
 10
4.65698
 20
2.43098
 30
0.0
 10
4.65698
 20
2.43098
 30
0.0
 10
4.63264
 20
2.39807
 30
0.0
 10
4.5961
 20
2.41553
 30
0.0
 10
4.56287
 20
2.44725
 30
0.0
 10
4.56287
 20
2.44725
 30
0.0
 10
4.54453
 20
2.46482
 30
0.0
 10
4.53403
 20
2.48829
 30
0.0
 10
4.53403
 20
2.48829
 30
0.0
 10
4.53403
 20
2.48829
 30
0.0
 10
4.53403
 20
2.48829
 30
0.0
 10
4.4867
 20
2.54293
 30
0.0
 10
4.4867
 20
2.54293
 30
0.0
 10
4.4867
 20
2.54293
 30
0.0
 10
4.4867
 20
2.54293
 30
0.0
 10
4.49109
 20
2.50353
 30
0.0
 10
4.48567
 20
2.45263
 30
0.0
 10
4.48567
 20
2.45263
 30
0.0
 10
4.48551
 20
2.45041
 30
0.0
 10
4.48181
 20
2.36693
 30
0.0
 10
4.46067
 20
2.25274
 30
0.0
 10
4.46067
 20
2.25274
 30
0.0
 10
4.42733
 20
2.07219
 30
0.0
 10
4.40704
 20
2.05827
 30
0.0
 10
4.37489
 20
2.03679
 30
0.0
 10
4.37489
 20
2.03679
 30
0.0
 10
4.34269
 20
2.01531
 30
0.0
 10
4.27284
 20
2.03949
 30
0.0
 10
4.26488
 20
2.08505
 30
0.0
 10
4.26488
 20
2.08505
 30
0.0
 10
4.25676
 20
2.13069
 30
0.0
 10
4.27015
 20
2.14141
 30
0.0
 10
4.27015
 20
2.14141
 30
0.0
 10
4.27015
 20
2.14141
 30
0.0
 10
4.27015
 20
2.14141
 30
0.0
 10
4.24332
 20
2.16289
 30
0.0
 10
4.24864
 20
2.1897
 30
0.0
 10
4.24864
 20
2.1897
 30
0.0
 10
4.25406
 20
2.21653
 30
0.0
 10
4.27552
 20
2.26934
 30
0.0
 10
4.27552
 20
2.26934
 30
0.0
 10
4.27552
 20
2.26934
 30
0.0
 10
4.27552
 20
2.26934
 30
0.0
 10
4.2893
 20
2.29416
 30
0.0
 10
4.29634
 20
2.33419
 30
0.0
 10
4.29634
 20
2.33419
 30
0.0
 10
4.30631
 20
2.39192
 30
0.0
 10
4.30777
 20
2.46063
 30
0.0
 10
4.30777
 20
2.46063
 30
0.0
 10
4.30777
 20
2.46063
 30
0.0
 10
4.30777
 20
2.46063
 30
0.0
 10
4.32923
 20
2.55101
 30
0.0
 10
4.31309
 20
2.58051
 30
0.0
 10
4.31309
 20
2.58051
 30
0.0
 10
4.29695
 20
2.61001
 30
0.0
 10
4.28176
 20
2.62075
 30
0.0
 10
4.29515
 20
2.69854
 30
0.0
 10
4.29515
 20
2.69854
 30
0.0
 10
4.29785
 20
2.71397
 30
0.0
 10
4.19805
 20
2.79728
 30
0.0
 10
4.18037
 20
2.82731
 30
0.0
 10
4.18037
 20
2.82731
 30
0.0
 10
4.16693
 20
2.84993
 30
0.0
 10
4.1333
 20
2.86266
 30
0.0
 10
4.1333
 20
2.86266
 30
0.0
 10
4.1333
 20
2.86266
 30
0.0
 10
4.1333
 20
2.86266
 30
0.0
 10
4.10613
 20
2.79294
 30
0.0
 10
4.04509
 20
2.7822
 30
0.0
 10
4.04509
 20
2.7822
 30
0.0
 10
3.98281
 20
2.77133
 30
0.0
 10
3.94701
 20
2.8057
 30
0.0
 10
3.91962
 20
2.8779
 30
0.0
 10
3.91962
 20
2.8779
 30
0.0
 10
3.90287
 20
2.92269
 30
0.0
 10
3.89798
 20
2.97487
 30
0.0
 10
3.89798
 20
2.97487
 30
0.0
 10
3.89798
 20
2.97487
 30
0.0
 10
3.89798
 20
2.97487
 30
0.0
 10
3.90438
 20
2.9953
 30
0.0
 10
3.85602
 20
3.01405
 30
0.0
 10
3.85602
 20
3.01405
 30
0.0
 10
3.794
 20
3.03818
 30
0.0
 10
3.79366
 20
3.11599
 30
0.0
 10
3.80863
 20
3.18674
 30
0.0
 10
3.80863
 20
3.18674
 30
0.0
 10
3.80977
 20
3.19243
 30
0.0
 10
3.57738
 20
3.32522
 30
0.0
 10
3.38691
 20
3.39732
 30
0.0
 10
3.38691
 20
3.39732
 30
0.0
 10
3.2049
 20
3.4664
 30
0.0
 10
3.07597
 20
3.51935
 30
0.0
 10
3.07597
 20
3.51935
 30
0.0
 10
3.07597
 20
3.51935
 30
0.0
 10
3.07597
 20
3.51935
 30
0.0
 10
2.96725
 20
3.56063
 30
0.0
 10
2.85893
 20
3.59907
 30
0.0
 10
2.85893
 20
3.59907
 30
0.0
 10
2.77717
 20
3.62807
 30
0.0
 10
2.69915
 20
3.65405
 30
0.0
 10
2.64845
 20
3.66593
 30
0.0
 10
2.64845
 20
3.66593
 30
0.0
 10
2.6266
 20
3.67112
 30
0.0
 10
2.5377
 20
3.70416
 30
0.0
 10
2.44009
 20
3.75311
 30
0.0
 10
2.44009
 20
3.75311
 30
0.0
 10
2.36283
 20
3.79185
 30
0.0
 10
2.28303
 20
3.83812
 30
0.0
 10
2.20186
 20
3.88053
 30
0.0
 10
2.20186
 20
3.88053
 30
0.0
 10
2.20186
 20
3.88053
 30
0.0
 10
1.89693
 20
4.04063
 30
0.0
 10
1.89693
 20
4.04063
 30
0.0
 10
1.89693
 20
4.04063
 30
0.0
 10
1.89693
 20
4.04063
 30
0.0
 10
1.67415
 20
4.14628
 30
0.0
 10
1.51453
 20
4.21213
 30
0.0
 10
1.51453
 20
4.21213
 30
0.0
 10
1.3765
 20
4.26917
 30
0.0
 10
1.27918
 20
4.29701
 30
0.0
 10
1.19904
 20
4.32214
 30
0.0
 10
1.19904
 20
4.32214
 30
0.0
 10
1.10442
 20
4.35183
 30
0.0
 10
0.96737
 20
4.40363
 30
0.0
 10
0.96737
 20
4.40363
 30
0.0
 10
0.96737
 20
4.40363
 30
0.0
 10
0.96737
 20
4.40363
 30
0.0
 10
0.62378
 20
4.51732
 30
0.0
 10
0.62378
 20
4.51732
 30
0.0
 10
0.62378
 20
4.51732
 30
0.0
 10
0.62378
 20
4.51732
 30
0.0
 10
0.56393
 20
4.53155
 30
0.0
 10
0.47278
 20
4.52886
 30
0.0
 10
0.47278
 20
4.52886
 30
0.0
 10
0.38153
 20
4.52621
 30
0.0
 10
0.29474
 20
4.4905
 30
0.0
 10
0.21156
 20
4.37781
 30
0.0
 10
0.21156
 20
4.37781
 30
0.0
 10
0.20235
 20
4.3654
 30
0.0
 10
0.19042
 20
4.26867
 30
0.0
 10
0.14179
 20
4.12315
 30
0.0
 10
0.14179
 20
4.12315
 30
0.0
 10
0.07689
 20
3.92916
 30
0.0
 10
-0.02564
 20
3.68034
 30
0.0
 10
-0.02564
 20
3.68034
 30
0.0
 10
-0.02564
 20
3.68034
 30
0.0
 10
-0.02564
 20
3.68034
 30
0.0
 10
-0.13515
 20
3.40652
 30
0.0
 10
-0.19307
 20
3.03415
 30
0.0
 10
-0.19307
 20
3.03415
 30
0.0
 10
-0.23948
 20
2.73472
 30
0.0
 10
-0.20625
 20
2.43376
 30
0.0
 10
-0.20625
 20
2.43376
 30
0.0
 10
-0.20625
 20
2.43376
 30
0.0
 10
-0.20625
 20
2.43376
 30
0.0
 10
-0.1858
 20
2.31607
 30
0.0
 10
-0.14569
 20
2.19635
 30
0.0
 10
-0.14569
 20
2.19635
 30
0.0
 10
-0.12593
 20
2.13735
 30
0.0
 10
-0.08346
 20
2.05752
 30
0.0
 10
-0.05864
 20
2.00254
 30
0.0
 10
-0.05864
 20
2.00254
 30
0.0
 10
0.01182
 20
1.84543
 30
0.0
 10
0.10045
 20
1.71213
 30
0.0
 10
0.10045
 20
1.71213
 30
0.0
 10
0.10045
 20
1.71213
 30
0.0
 10
0.10045
 20
1.71213
 30
0.0
 10
0.20216
 20
1.54293
 30
0.0
 10
0.25671
 20
1.33319
 30
0.0
 10
0.25671
 20
1.33319
 30
0.0
 10
0.25671
 20
1.33319
 30
0.0
 10
0.35278
 20
0.96283
 30
0.0
 10
0.35278
 20
0.96283
 30
0.0
 10
0.35278
 20
0.96283
 30
0.0
 10
0.35278
 20
0.96283
 30
0.0
 10
0.43866
 20
0.56998
 30
0.0
 10
0.42543
 20
0.22427
 30
0.0
 10
0.42543
 20
0.22427
 30
0.0
 10
0.40059
 20
-0.42499
 30
0.0
 10
0.18307
 20
-1.11791
 30
0.0
 10
0.15098
 20
-1.20715
 30
0.0
 10
0.15098
 20
-1.20715
 30
0.0
 10
0.13894
 20
-1.24065
 30
0.0
 10
-0.0206
 20
-1.68009
 30
0.0
 10
-0.10514
 20
-2.00339
 30
0.0
 10
-0.10514
 20
-2.00339
 30
0.0
 10
-0.19102
 20
-2.33118
 30
0.0
 10
-0.22317
 20
-2.60614
 30
0.0
 10
-0.22317
 20
-2.60614
 30
0.0
 10
-0.22317
 20
-2.60614
 30
0.0
 10
-0.22317
 20
-2.60614
 30
0.0
 10
-0.29842
 20
-2.90673
 30
0.0
 10
-0.34596
 20
-3.22632
 30
0.0
 10
-0.34596
 20
-3.22632
 30
0.0
 10
-0.3965
 20
-3.56602
 30
0.0
 10
-0.43251
 20
-3.9625
 30
0.0
 10
-0.43251
 20
-3.9625
 30
0.0
 10
-0.43251
 20
-3.9625
 30
0.0
 10
-0.43251
 20
-3.9625
 30
0.0
 10
-0.41865
 20
-4.30037
 30
0.0
 10
-0.44492
 20
-4.54562
 30
0.0
 10
-0.44492
 20
-4.54562
 30
0.0
 10
-0.44492
 20
-4.54562
 30
0.0
 10
-0.49691
 20
-5.02483
 30
0.0
 10
-0.49691
 20
-5.02483
 30
0.0
 10
-0.49691
 20
-5.02483
 30
0.0
 10
-0.49691
 20
-5.02483
 30
0.0
 10
-0.46124
 20
-5.23591
 30
0.0
 10
-0.46124
 20
-5.48274
 30
0.0
 10
-0.46124
 20
-5.48274
 30
0.0
 10
-0.46124
 20
-5.72957
 30
0.0
 10
-0.50418
 20
-5.96023
 30
0.0
 10
-0.50418
 20
-5.96023
 30
0.0
 10
-0.50418
 20
-5.96023
 30
0.0
 10
-0.50418
 20
-5.96023
 30
0.0
 10
-0.55776
 20
-6.29879
 30
0.0
 10
-0.55776
 20
-6.56652
 30
0.0
 10
-0.55776
 20
-6.56652
 30
0.0
 10
-0.55776
 20
-6.86812
 30
0.0
 10
-0.53096
 20
-7.06817
 30
0.0
 10
-0.53096
 20
-7.06817
 30
0.0
 10
-0.53096
 20
-7.06817
 30
0.0
 10
-0.53096
 20
-7.06817
 30
0.0
 10
-0.51217
 20
-7.20763
 30
0.0
 10
-0.51217
 20
-7.20763
 30
0.0
 10
-0.51217
 20
-7.20763
 30
0.0
 10
-0.51217
 20
-7.20763
 30
0.0
 10
-0.46391
 20
-7.2801
 30
0.0
 10
-0.45396
 20
-7.35267
 30
0.0
 10
-0.45396
 20
-7.35267
 30
0.0
 10
-0.44536
 20
-7.41617
 30
0.0
 10
-0.45311
 20
-7.49734
 30
0.0
 10
-0.45311
 20
-7.49734
 30
0.0
 10
-0.45311
 20
-7.49734
 30
0.0
 10
-0.45311
 20
-7.49734
 30
0.0
 10
-0.39495
 20
-7.82918
 30
0.0
 10
-0.39495
 20
-7.82918
 30
0.0
 10
-0.39495
 20
-7.82918
 30
0.0
 10
-0.39495
 20
-7.82918
 30
0.0
 10
-0.3138
 20
-7.84373
 30
0.0
 10
-0.22485
 20
-7.87919
 30
0.0
 10
-0.22485
 20
-7.87919
 30
0.0
 10
-0.19117
 20
-7.8926
 30
0.0
 10
-0.11235
 20
-7.94385
 30
0.0
 10
-0.04512
 20
-7.97791
 30
0.0
 10
-0.04512
 20
-7.97791
 30
0.0
 10
0.01984
 20
-8.01077
 30
0.0
 10
0.07249
 20
-8.02567
 30
0.0
 10
0.1372
 20
-8.06996
 30
0.0
 10
0.1372
 20
-8.06996
 30
0.0
 10
0.27124
 20
-8.16209
 30
0.0
 10
0.29746
 20
-8.2404
 30
0.0
 10
0.29746
 20
-8.2404
 30
0.0
 10
0.29746
 20
-8.2404
 30
0.0
 10
0.29746
 20
-8.2404
 30
0.0
 10
0.32148
 20
-8.30903
 30
0.0
 10
0.28587
 20
-8.37542
 30
0.0
 10
0.28587
 20
-8.37542
 30
0.0
 10
0.25555
 20
-8.43233
 30
0.0
 10
0.18154
 20
-8.47504
 30
0.0
 10
0.05767
 20
-8.5035
 30
0.0
 10
0.05767
 20
-8.5035
 30
0.0
 10
0.03793
 20
-8.50805
 30
0.0
 10
-0.05928
 20
-8.49599
 30
0.0
 10
-0.16548
 20
-8.48453
 30
0.0
 10
-0.16548
 20
-8.48453
 30
0.0
 10
-0.25544
 20
-8.47482
 30
0.0
 10
-0.35421
 20
-8.46564
 30
0.0
 10
-0.35421
 20
-8.46564
 30
0.0
 10
-0.35421
 20
-8.46564
 30
0.0
 10
-0.35421
 20
-8.46564
 30
0.0
 10
-0.37855
 20
-8.49427
 30
0.0
 10
-0.43049
 20
-8.51737
 30
0.0
 10
-0.43049
 20
-8.51737
 30
0.0
 10
-0.48084
 20
-8.53967
 30
0.0
 10
-0.55643
 20
-8.55626
 30
0.0
 10
-0.67941
 20
-8.56505
 30
0.0
 10
-0.67941
 20
-8.56505
 30
0.0
 10
-0.7372
 20
-8.5691
 30
0.0
 10
-0.921
 20
-8.55846
 30
0.0
 10
-1.01321
 20
-8.52293
 30
0.0
 10
-1.01321
 20
-8.52293
 30
0.0
 10
-1.03123
 20
-8.51608
 30
0.0
 10
-1.31195
 20
-8.52666
 30
0.0
 10
-1.31195
 20
-8.52666
 30
0.0
 10
-1.31195
 20
-8.52666
 30
0.0
 10
-1.31195
 20
-8.52666
 30
0.0
 10
-1.37048
 20
-8.49877
 30
0.0
 10
-1.46223
 20
-8.50417
 30
0.0
 10
-1.46223
 20
-8.50417
 30
0.0
 10
-1.49713
 20
-8.50637
 30
0.0
 10
-1.58653
 20
-8.50417
 30
0.0
 10
-1.58653
 20
-8.50417
 30
0.0
 10
-1.58653
 20
-8.50417
 30
0.0
 10
-1.58653
 20
-8.50417
 30
0.0
 10
-1.71985
 20
-8.54545
 30
0.0
 10
-1.71985
 20
-8.54545
 30
0.0
 10
-1.71985
 20
-8.54545
 30
0.0
 10
-1.71985
 20
-8.54545
 30
0.0
 10
-1.80221
 20
-8.54545
 30
0.0
 10
-1.83174
 20
-8.55884
 30
0.0
 10
-1.83174
 20
-8.55884
 30
0.0
 10
-1.86143
 20
-8.57236
 30
0.0
 10
-1.94443
 20
-8.59371
 30
0.0
 10
-1.94443
 20
-8.59371
 30
0.0
 10
-1.94443
 20
-8.59371
 30
0.0
 10
-1.94443
 20
-8.59371
 30
0.0
 10
-2.17073
 20
-8.58381
 30
0.0
 10
-2.17073
 20
-8.58381
 30
0.0
 10
-2.17073
 20
-8.58381
 30
0.0
 10
-2.18147
 20
-8.58111
 30
0.0
 10
-2.52498
 20
-8.56423
 30
0.0
 10
-2.52498
 20
-8.56423
 30
0.0
 10
-2.52498
 20
-8.56423
 30
0.0
 10
-2.52498
 20
-8.56423
 30
0.0
 10
-2.58136
 20
-8.55695
 30
0.0
 10
-2.5921
 20
-8.55695
 30
0.0
 10
-2.5921
 20
-8.55695
 30
0.0
 10
-2.60284
 20
-8.55695
 30
0.0
 10
-2.61358
 20
-8.56507
 30
0.0
 10
-2.64036
 20
-8.54901
 30
0.0
 10
-2.64036
 20
-8.54901
 30
0.0
 10
-2.66719
 20
-8.53284
 30
0.0
 10
-2.70481
 20
-8.51411
 30
0.0
 10
-2.7236
 20
-8.4604
 30
0.0
 10
-2.7236
 20
-8.4604
 30
0.0
 10
-2.74236
 20
-8.4068
 30
0.0
 10
-2.70749
 20
-8.34777
 30
0.0
 10
-2.68867
 20
-8.32091
 30
0.0
 10
-2.68867
 20
-8.32091
 30
0.0
 10
-2.66991
 20
-8.29408
 30
0.0
 10
-2.65835
 20
-8.2762
 30
0.0
 10
-2.65835
 20
-8.2762
 30
0.0
 10
-2.65835
 20
-8.2762
 30
0.0
 10
-2.65835
 20
-8.2762
 30
0.0
 10
-2.67258
 20
-8.13772
 30
0.0
 10
-2.43375
 20
-8.12695
 30
0.0
 10
-2.43375
 20
-8.12695
 30
0.0
 10
-2.40909
 20
-8.12579
 30
0.0
 10
-1.93456
 20
-8.0803
 30
0.0
 10
-1.93456
 20
-8.0803
 30
0.0
 10
-1.93456
 20
-8.0803
 30
0.0
 10
-1.93456
 20
-8.0803
 30
0.0
 10
-1.8554
 20
-8.07496
 30
0.0
 10
-1.6954
 20
-7.99598
 30
0.0
 10
-1.6954
 20
-7.99598
 30
0.0
 10
-1.5634
 20
-7.93079
 30
0.0
 10
-1.48641
 20
-7.87028
 30
0.0
 10
-1.48641
 20
-7.87028
 30
0.0
 10
-1.48641
 20
-7.87028
 30
0.0
 10
-1.48641
 20
-7.87028
 30
0.0
 10
-1.47218
 20
-7.63768
 30
0.0
 10
-1.47218
 20
-7.63768
 30
0.0
 10
-1.47218
 20
-7.63768
 30
0.0
 10
-1.47218
 20
-7.63768
 30
0.0
 10
-1.47065
 20
-7.58688
 30
0.0
 10
-1.46665
 20
-7.56455
 30
0.0
 10
-1.46665
 20
-7.56455
 30
0.0
 10
-1.46361
 20
-7.5478
 30
0.0
 10
-1.45273
 20
-7.54143
 30
0.0
 10
-1.45152
 20
-7.53219
 30
0.0
 10
-1.45152
 20
-7.53219
 30
0.0
 10
-1.44885
 20
-7.51071
 30
0.0
 10
-1.42014
 20
-7.3954
 30
0.0
 10
-1.42287
 20
-7.37127
 30
0.0
 10
-1.42287
 20
-7.37127
 30
0.0
 10
-1.42554
 20
-7.34709
 30
0.0
 10
-1.40139
 20
-7.2398
 30
0.0
 10
-1.39874
 20
-7.20493
 30
0.0
 10
-1.39874
 20
-7.20493
 30
0.0
 10
-1.39755
 20
-7.18816
 30
0.0
 10
-1.39064
 20
-7.03594
 30
0.0
 10
-1.38784
 20
-6.89926
 30
0.0
 10
-1.38784
 20
-6.89926
 30
0.0
 10
-1.38464
 20
-6.75194
 30
0.0
 10
-1.39064
 20
-6.6183
 30
0.0
 10
-1.39064
 20
-6.6183
 30
0.0
 10
-1.39064
 20
-6.6183
 30
0.0
 10
-1.39064
 20
-6.6183
 30
0.0
 10
-1.39321
 20
-6.41978
 30
0.0
 10
-1.40239
 20
-6.22897
 30
0.0
 10
-1.40239
 20
-6.22897
 30
0.0
 10
-1.41062
 20
-6.05728
 30
0.0
 10
-1.40591
 20
-5.79122
 30
0.0
 10
-1.40591
 20
-5.79122
 30
0.0
 10
-1.40591
 20
-5.79122
 30
0.0
 10
-1.40591
 20
-5.79122
 30
0.0
 10
-1.46261
 20
-5.52092
 30
0.0
 10
-1.49984
 20
-5.28579
 30
0.0
 10
-1.49984
 20
-5.28579
 30
0.0
 10
-1.53408
 20
-5.06918
 30
0.0
 10
-1.5554
 20
-4.83804
 30
0.0
 10
-1.59043
 20
-4.61867
 30
0.0
 10
-1.59043
 20
-4.61867
 30
0.0
 10
-1.61559
 20
-4.46127
 30
0.0
 10
-1.6421
 20
-4.31577
 30
0.0
 10
-1.6421
 20
-4.31577
 30
0.0
 10
-1.6421
 20
-4.31577
 30
0.0
 10
-1.6421
 20
-4.31577
 30
0.0
 10
-1.70195
 20
-4.1707
 30
0.0
 10
-1.74037
 20
-4.05251
 30
0.0
 10
-1.74037
 20
-4.05251
 30
0.0
 10
-1.73754
 20
-4.0614
 30
0.0
 10
-1.78151
 20
-3.98224
 30
0.0
 10
-1.83028
 20
-3.79946
 30
0.0
 10
-1.83028
 20
-3.79946
 30
0.0
 10
-1.86616
 20
-3.66585
 30
0.0
 10
-1.88293
 20
-3.51215
 30
0.0
 10
-1.90743
 20
-3.39608
 30
0.0
 10
-1.90743
 20
-3.39608
 30
0.0
 10
-1.92283
 20
-3.32231
 30
0.0
 10
-1.95423
 20
-3.25104
 30
0.0
 10
-1.95423
 20
-3.25104
 30
0.0
 10
-1.95423
 20
-3.25104
 30
0.0
 10
-1.95423
 20
-3.25104
 30
0.0
 10
-2.02522
 20
-3.09033
 30
0.0
 10
-2.097
 20
-2.91976
 30
0.0
 10
-2.097
 20
-2.91976
 30
0.0
 10
-2.14767
 20
-2.7994
 30
0.0
 10
-2.23183
 20
-2.59686
 30
0.0
 10
-2.30314
 20
-2.40033
 30
0.0
 10
-2.30314
 20
-2.40033
 30
0.0
 10
-2.35378
 20
-2.26031
 30
0.0
 10
-2.39522
 20
-2.12352
 30
0.0
 10
-2.42509
 20
-2.0219
 30
0.0
 10
-2.42509
 20
-2.0219
 30
0.0
 10
-2.46602
 20
-1.88291
 30
0.0
 10
-2.52203
 20
-1.68643
 30
0.0
 10
-2.57434
 20
-1.46627
 30
0.0
 10
-2.57434
 20
-1.46627
 30
0.0
 10
-2.62337
 20
-1.25987
 30
0.0
 10
-2.66914
 20
-1.03
 30
0.0
 10
-2.696
 20
-0.88281
 30
0.0
 10
-2.696
 20
-0.88281
 30
0.0
 10
-2.75151
 20
-0.57994
 30
0.0
 10
-2.79342
 20
-0.21664
 30
0.0
 10
-2.79342
 20
-0.21664
 30
0.0
 10
-2.79342
 20
-0.21664
 30
0.0
 10
-2.79342
 20
-0.21664
 30
0.0
 10
-2.81625
 20
0.04442
 30
0.0
 10
-2.8203
 20
0.31988
 30
0.0
 10
-2.8203
 20
0.31988
 30
0.0
 10
-2.82432
 20
0.59708
 30
0.0
 10
-2.7908
 20
0.88596
 30
0.0
 10
-2.7908
 20
0.88596
 30
0.0
 10
-2.7908
 20
0.88596
 30
0.0
 10
-2.7908
 20
0.88596
 30
0.0
 10
-2.78876
 20
1.03013
 30
0.0
 10
-2.7858
 20
1.15959
 30
0.0
 10
-2.7858
 20
1.15959
 30
0.0
 10
-2.78141
 20
1.34403
 30
0.0
 10
-2.67806
 20
1.6237
 30
0.0
 10
-2.67806
 20
1.6237
 30
0.0
 10
-2.67806
 20
1.6237
 30
0.0
 10
-2.67806
 20
1.6237
 30
0.0
 10
-2.72084
 20
1.6277
 30
0.0
 10
-2.77641
 20
1.63725
 30
0.0
 10
-2.77641
 20
1.63725
 30
0.0
 10
-2.84081
 20
1.64868
 30
0.0
 10
-2.92132
 20
1.65503
 30
0.0
 10
-2.91108
 20
1.65336
 30
0.0
 10
-2.91108
 20
1.65336
 30
0.0
 10
-2.92569
 20
1.65569
 30
0.0
 10
-2.95185
 20
1.65635
 30
0.0
 10
-2.96791
 20
1.6532
 30
0.0
 10
-2.96791
 20
1.6532
 30
0.0
 10
-2.97746
 20
1.65135
 30
0.0
 10
-3.00802
 20
1.65704
 30
0.0
 10
-3.04035
 20
1.6577
 30
0.0
 10
-3.04035
 20
1.6577
 30
0.0
 10
-3.05781
 20
1.65807
 30
0.0
 10
-3.0758
 20
1.6532
 30
0.0
 10
-3.09136
 20
1.65336
 30
0.0
 10
-3.09136
 20
1.65336
 30
0.0
 10
-3.14287
 20
1.65402
 30
0.0
 10
-3.17992
 20
1.66392
 30
0.0
 10
-3.17992
 20
1.66392
 30
0.0
 10
-3.17992
 20
1.66392
 30
0.0
 10
-3.17992
 20
1.66392
 30
0.0
 10
-3.22019
 20
1.68268
 30
0.0
 10
-3.28464
 20
1.71485
 30
0.0
 10
-3.28464
 20
1.71485
 30
0.0
 10
-3.29803
 20
1.72157
 30
0.0
 10
-3.371
 20
1.74136
 30
0.0
 10
-3.42707
 20
1.76181
 30
0.0
 10
-3.42707
 20
1.76181
 30
0.0
 10
-3.47012
 20
1.77758
 30
0.0
 10
-3.49914
 20
1.78459
 30
0.0
 10
-3.53036
 20
1.79803
 30
0.0
 10
-3.53036
 20
1.79803
 30
0.0
 10
-3.56825
 20
1.81409
 30
0.0
 10
-3.60415
 20
1.82904
 30
0.0
 10
-3.62627
 20
1.83912
 30
0.0
 10
-3.62627
 20
1.83912
 30
0.0
 10
-3.63955
 20
1.84513
 30
0.0
 10
-3.72255
 20
1.8741
 30
0.0
 10
-3.86294
 20
1.9667
 30
0.0
 10
-3.86294
 20
1.9667
 30
0.0
 10
-3.97367
 20
2.03978
 30
0.0
 10
-3.99579
 20
2.19236
 30
0.0
 10
-3.99579
 20
2.19236
 30
0.0
 10
-3.99579
 20
2.19236
 30
0.0
 10
-3.99579
 20
2.19236
 30
0.0
 10
-4.08162
 20
2.32029
 30
0.0
 10
-4.08162
 20
2.32029
 30
0.0
 10
-4.08162
 20
2.32029
 30
0.0
 10
-4.08162
 20
2.32029
 30
0.0
 10
-4.39476
 20
2.79326
 30
0.0
 10
-4.39476
 20
2.79326
 30
0.0
 10
-4.39476
 20
2.79326
 30
0.0
 10
-4.39476
 20
2.79326
 30
0.0
 10
-4.48363
 20
2.96931
 30
0.0
 10
-4.53533
 20
3.06642
 30
0.0
 10
-4.53533
 20
3.06642
 30
0.0
 10
-4.58433
 20
3.15828
 30
0.0
 10
-4.6237
 20
3.24933
 30
0.0
 10
-4.6237
 20
3.24933
 30
0.0
 10
-4.6237
 20
3.24933
 30
0.0
 10
-4.6237
 20
3.24933
 30
0.0
 10
-4.70691
 20
3.38345
 30
0.0
 10
-4.64521
 20
3.45052
 30
0.0
 10
-4.64521
 20
3.45052
 30
0.0
 10
-4.62894
 20
3.4683
 30
0.0
 10
-4.59605
 20
3.52265
 30
0.0
 10
-4.54438
 20
3.60059
 30
0.0
 10
-4.54438
 20
3.60059
 30
0.0
 10
-4.48982
 20
3.68293
 30
0.0
 10
-4.4404
 20
3.76625
 30
0.0
 10
-4.4404
 20
3.76625
 30
0.0
 10
-4.4404
 20
3.76625
 30
0.0
 10
-4.4404
 20
3.76625
 30
0.0
 10
-4.37648
 20
3.85901
 30
0.0
 10
-4.28604
 20
3.97482
 30
0.0
 10
-4.28604
 20
3.97482
 30
0.0
 10
-4.18156
 20
4.10867
 30
0.0
 10
-4.0395
 20
4.26422
 30
0.0
 10
-4.0395
 20
4.26422
 30
0.0
 10
-4.0395
 20
4.26422
 30
0.0
 10
-4.0395
 20
4.26422
 30
0.0
 10
-3.96012
 20
4.35077
 30
0.0
 10
-3.87345
 20
4.45186
 30
0.0
 10
-3.87345
 20
4.45186
 30
0.0
 10
-3.87345
 20
4.45186
 30
0.0
 10
-3.65303
 20
4.70787
 30
0.0
 10
-3.65303
 20
4.70787
 30
0.0
 10
-3.65303
 20
4.70787
 30
0.0
 10
-3.65303
 20
4.70787
 30
0.0
 10
-3.56447
 20
4.81421
 30
0.0
 10
-3.40347
 20
5.14417
 30
0.0
 10
-3.40347
 20
5.14417
 30
0.0
 10
-3.39357
 20
5.16444
 30
0.0
 10
-3.30751
 20
5.31819
 30
0.0
 10
-3.17786
 20
5.43638
 30
0.0
 10
-3.17786
 20
5.43638
 30
0.0
 10
-3.14648
 20
5.46503
 30
0.0
 10
-3.07256
 20
5.52742
 30
0.0
 10
-3.02054
 20
5.56431
 30
0.0
 10
-3.02054
 20
5.56431
 30
0.0
 10
-2.96852
 20
5.60122
 30
0.0
 10
-2.79731
 20
5.72748
 30
0.0
 10
-2.63293
 20
5.73684
 30
0.0
 10
-2.63293
 20
5.73684
 30
0.0
 10
-2.53244
 20
5.7425
 30
0.0
 10
-2.44992
 20
5.70935
 30
0.0
 10
-2.44992
 20
5.70935
 30
0.0
 10
-2.44992
 20
5.70935
 30
0.0
 10
-2.44992
 20
5.70935
 30
0.0
 10
-2.36404
 20
5.70665
 30
0.0
 10
-2.36404
 20
5.70665
 30
0.0
 10
-2.36404
 20
5.70665
 30
0.0
 10
-2.36404
 20
5.70665
 30
0.0
 10
-2.12435
 20
5.77391
 30
0.0
 10
-2.08313
 20
5.78949
 30
0.0
 10
-2.08313
 20
5.78949
 30
0.0
 10
-2.08313
 20
5.78949
 30
0.0
 10
-1.9293
 20
5.84881
 30
0.0
 10
-1.9293
 20
5.84881
 30
0.0
 10
-1.9293
 20
5.84881
 30
0.0
 10
-1.9293
 20
5.84881
 30
0.0
 10
-1.80754
 20
5.88453
 30
0.0
 10
-1.75602
 20
5.97004
 30
0.0
 10
-1.75602
 20
5.97004
 30
0.0
 10
-1.68927
 20
6.08103
 30
0.0
 10
-1.61531
 20
6.33437
 30
0.0
 10
-1.61531
 20
6.33437
 30
0.0
 10
-1.61531
 20
6.33437
 30
0.0
 10
-1.61531
 20
6.33437
 30
0.0
 10
-1.61597
 20
6.50373
 30
0.0
 10
-1.63846
 20
6.68899
 30
0.0
 10
-1.63846
 20
6.68899
 30
0.0
 10
-1.66161
 20
6.87928
 30
0.0
 10
-1.71643
 20
7.09624
 30
0.0
 10
-1.71643
 20
7.09624
 30
0.0
 10
-1.71643
 20
7.09624
 30
0.0
 10
-1.71643
 20
7.09624
 30
0.0
 10
-1.72932
 20
7.05031
 30
0.0
 10
-1.77517
 20
7.04626
 30
0.0
 10
-1.77517
 20
7.04626
 30
0.0
 10
-1.83571
 20
7.0411
 30
0.0
 10
-1.85867
 20
7.1373
 30
0.0
 10
-1.85867
 20
7.1373
 30
0.0
 10
-1.85867
 20
7.1373
 30
0.0
 10
-1.85867
 20
7.1373
 30
0.0
 10
-1.88836
 20
7.18863
 30
0.0
 10
-1.90243
 20
7.25369
 30
0.0
 10
-1.90243
 20
7.25369
 30
0.0
 10
-1.89637
 20
7.22617
 30
0.0
 10
-1.92627
 20
7.30264
 30
0.0
 10
-1.93751
 20
7.38326
 30
0.0
 10
-1.93751
 20
7.38326
 30
0.0
 10
-1.94521
 20
7.43689
 30
0.0
 10
-1.94756
 20
7.48938
 30
0.0
 10
-1.91502
 20
7.52542
 30
0.0
 10
-1.91502
 20
7.52542
 30
0.0
 10
-1.90444
 20
7.53701
 30
0.0
 10
-1.89438
 20
7.56029
 30
0.0
 10
-1.89705
 20
7.59786
 30
0.0
 10
-1.89705
 20
7.59786
 30
0.0
 10
-1.89821
 20
7.61434
 30
0.0
 10
-1.91049
 20
7.72108
 30
0.0
 10
-1.89856
 20
7.79656
 30
0.0
 10
-1.89856
 20
7.79656
 30
0.0
 10
-1.88348
 20
7.89282
 30
0.0
 10
-1.85766
 20
7.96724
 30
0.0
 10
-1.85766
 20
7.96724
 30
0.0
 10
-1.85766
 20
7.96724
 30
0.0
 10
-1.85766
 20
7.96724
 30
0.0
 10
-1.83448
 20
8.06749
 30
0.0
 10
-1.78421
 20
8.16422
 30
0.0
 10
-1.78421
 20
8.16422
 30
0.0
 10
-1.72515
 20
8.27807
 30
0.0
 10
-1.60638
 20
8.40451
 30
0.0
 10
-1.60638
 20
8.40451
 30
0.0
 10
-1.60638
 20
8.40451
 30
0.0
 10
-1.60638
 20
8.40451
 30
0.0
 10
-1.49047
 20
8.52352
 30
0.0
 10
-1.37976
 20
8.55654
 30
0.0
 10
-1.37976
 20
8.55654
 30
0.0
 10
-1.3479
 20
8.56607
 30
0.0
 10
-1.27559
 20
8.58641
 30
0.0
 10
-1.22175
 20
8.59059
 30
0.0
 10
-1.22175
 20
8.59059
 30
0.0
 10
-1.13171
 20
8.59768
 30
0.0
 10
-1.05173
 20
8.59043
 30
0.0
 10
-1.05173
 20
8.59043
 30
0.0
 10
-1.05173
 20
8.59043
 30
0.0
 10
-1.05173
 20
8.59043
 30
0.0
 10
-0.9858
 20
8.59747
 30
0.0
 10
-0.94079
 20
8.5582
 30
0.0
 10
-0.94079
 20
8.5582
 30
0.0
 10
-0.93108
 20
8.54984
 30
0.0
 10
-0.89753
 20
8.54193
 30
0.0
 10
-0.8331
 20
8.51311
 30
0.0
 10
-0.8331
 20
8.51311
 30
0.0
 10
-0.78111
 20
8.48964
 30
0.0
 10
-0.68128
 20
8.42408
 30
0.0
 10
-0.68128
 20
8.42408
 30
0.0
 10
-0.68128
 20
8.42408
 30
0.0
 10
-0.68128
 20
8.42408
 30
0.0
 10
-0.62212
 20
8.38066
 30
0.0
 10
-0.53071
 20
8.24684
 30
0.0
 10
-0.53071
 20
8.24684
 30
0.0
 10
-0.49166
 20
8.19006
 30
0.0
 10
-0.45893
 20
8.12447
 30
0.0
 10
-0.4366
 20
8.06965
 30
0.0
 10
-0.4366
 20
8.06965
 30
0.0
 10
-0.4076
 20
7.99792
 30
0.0
 10
-0.39485
 20
7.94241
 30
0.0
 10
-0.39149
 20
7.92966
 30
0.0
 10
-0.39149
 20
7.92966
 30
0.0
 10
-0.38032
 20
7.88857
 30
0.0
 10
-0.36519
 20
7.84518
 30
0.0
 10
-0.35783
 20
7.78462
 30
0.0
 10
-0.35783
 20
7.78462
 30
0.0
 10
-0.34272
 20
7.65823
 30
0.0
 10
-0.3673
 20
7.48972
 30
0.0
 10
-0.3673
 20
7.48972
 30
0.0
 10
-0.3673
 20
7.48972
 30
0.0
 10
-0.3673
 20
7.48972
 30
0.0
 10
-0.32375
 20
7.46506
 30
0.0
 10
-0.3169
 20
7.36166
 30
0.0
 10
-0.3169
 20
7.36166
 30
0.0
 10
-0.31166
 20
7.28152
 30
0.0
 10
-0.33973
 20
7.20352
 30
0.0
 10
-0.33973
 20
7.20352
 30
0.0
 10
-0.33973
 20
7.20352
 30
0.0
 10
-0.33973
 20
7.20352
 30
0.0
 10
-0.35224
 20
7.10142
 30
0.0
 10
-0.37878
 20
7.04392
 30
0.0
 10
-0.37878
 20
7.04392
 30
0.0
 10
-0.4041
 20
6.98891
 30
0.0
 10
-0.48631
 20
6.98442
 30
0.0
 10
-0.48631
 20
6.98442
 30
0.0
 10
-0.48631
 20
6.98442
 30
0.0
 10
-0.48631
 20
6.98442
 30
0.0
 10
-0.48909
 20
6.91989
 30
0.0
 10
-0.52642
 20
6.83017
 30
0.0
 10
-0.52642
 20
6.83017
 30
0.0
 10
-0.56039
 20
6.74796
 30
0.0
 10
-0.6304
 20
6.68849
 30
0.0
 10
-0.6304
 20
6.68849
 30
0.0
 10
-0.6304
 20
6.68849
 30
0.0
 10
-0.6304
 20
6.68849
 30
0.0
 10
-0.64797
 20
6.64523
 30
0.0
 10
-0.66961
 20
6.56072
 30
0.0
 10
-0.66961
 20
6.56072
 30
0.0
 10
-0.69226
 20
6.47235
 30
0.0
 10
-0.6993
 20
6.33249
 30
0.0
 10
-0.6993
 20
6.33249
 30
0.0
 10
-0.6993
 20
6.33249
 30
0.0
 10
-0.6993
 20
6.33249
 30
0.0
 10
-0.72422
 20
6.08759
 30
0.0
 10
-0.67715
 20
5.98816
 30
0.0
 10
-0.67715
 20
5.98816
 30
0.0
 10
-0.62146
 20
5.87061
 30
0.0
 10
-0.4444
 20
5.7675
 30
0.0
 10
-0.4444
 20
5.7675
 30
0.0
 10
-0.4444
 20
5.7675
 30
0.0
 10
-0.4444
 20
5.7675
 30
0.0
 10
-0.35005
 20
5.70662
 30
0.0
 10
-0.28409
 20
5.68164
 30
0.0
 10
-0.28409
 20
5.68164
 30
0.0
 10
-0.22271
 20
5.65852
 30
0.0
 10
-0.17148
 20
5.66373
 30
0.0
 10
-0.17148
 20
5.66373
 30
0.0
 10
-0.17148
 20
5.66373
 30
0.0
 10
-0.17148
 20
5.66373
 30
0.0
 10
-0.09893
 20
5.65651
 30
0.0
 10
-0.09893
 20
5.65651
 30
0.0
 10
-0.09893
 20
5.65651
 30
0.0
 10
-0.09893
 20
5.65651
 30
0.0
 10
-0.02183
 20
5.66691
 30
0.0
 10
0.04887
 20
5.66519
 30
0.0
 10
0.04887
 20
5.66519
 30
0.0
 10
0.14214
 20
5.66305
 30
0.0
 10
0.2607
 20
5.65651
 30
0.0
 10
0.35981
 20
5.61222
 30
0.0
 10
0.35981
 20
5.61222
 30
0.0
 10
0.43426
 20
5.57923
 30
0.0
 10
0.5183
 20
5.55909
 30
0.0
 10
0.5183
 20
5.55909
 30
0.0
 10
0.5183
 20
5.55909
 30
0.0
 10
0.5183
 20
5.55909
 30
0.0
 10
0.64945
 20
5.52824
 30
0.0
 10
0.73616
 20
5.48797
 30
0.0
 10
0.73616
 20
5.48797
 30
0.0
 10
0.83398
 20
5.4427
 30
0.0
 10
0.90205
 20
5.382
 30
0.0
 10
0.90205
 20
5.382
 30
0.0
 10
0.90205
 20
5.382
 30
0.0
 10
0.90205
 20
5.382
 30
0.0
 10
0.94872
 20
5.35086
 30
0.0
 10
1.01249
 20
5.2958
 30
0.0
 10
1.01249
 20
5.2958
 30
0.0
 10
1.0517
 20
5.26212
 30
0.0
 10
1.11936
 20
5.20148
 30
0.0
 10
1.16793
 20
5.16335
 30
0.0
 10
1.16793
 20
5.16335
 30
0.0
 10
1.30109
 20
5.05924
 30
0.0
 10
1.47829
 20
4.95626
 30
0.0
 10
1.47829
 20
4.95626
 30
0.0
 10
1.47829
 20
4.95626
 30
0.0
 10
1.47829
 20
4.95626
 30
0.0
 10
1.82495
 20
4.77693
 30
0.0
 10
1.82495
 20
4.77693
 30
0.0
 10
1.82495
 20
4.77693
 30
0.0
 10
1.97545
 20
4.69943
 30
0.0
 10
2.09549
 20
4.63355
 30
0.0
 10
2.09549
 20
4.63355
 30
0.0
 10
2.09549
 20
4.63355
 30
0.0
 10
2.09549
 20
4.63355
 30
0.0
 10
2.31827
 20
4.5147
 30
0.0
 10
2.31827
 20
4.5147
 30
0.0
 10
2.31827
 20
4.5147
 30
0.0
 10
2.31827
 20
4.5147
 30
0.0
 10
2.36788
 20
4.49001
 30
0.0
 10
2.41471
 20
4.47528
 30
0.0
 10
2.41471
 20
4.47528
 30
0.0
 10
2.46252
 20
4.46004
 30
0.0
 10
2.54033
 20
4.43837
 30
0.0
 10
2.59764
 20
4.41628
 30
0.0
 10
2.59764
 20
4.41628
 30
0.0
 10
2.68731
 20
4.38194
 30
0.0
 10
2.76457
 20
4.33847
 30
0.0
 10
2.75737
 20
4.33847
 30
0.0
 10
2.75737
 20
4.33847
 30
0.0
 10
2.75054
 20
4.33847
 30
0.0
 10
2.81008
 20
4.31365
 30
0.0
 10
2.90419
 20
4.26841
 30
0.0
 10
2.90419
 20
4.26841
 30
0.0
 10
3.02667
 20
4.20954
 30
0.0
 10
3.14655
 20
4.14538
 30
0.0
 10
3.14655
 20
4.14538
 30
0.0
 10
3.14655
 20
4.14538
 30
0.0
 10
3.14655
 20
4.14538
 30
0.0
 10
3.25207
 20
4.09741
 30
0.0
 10
3.36282
 20
4.02235
 30
0.0
 10
3.36282
 20
4.02235
 30
0.0
 10
3.46508
 20
3.95295
 30
0.0
 10
3.59655
 20
3.83423
 30
0.0
 10
3.59655
 20
3.83423
 30
0.0
 10
3.59655
 20
3.83423
 30
0.0
 10
3.59655
 20
3.83423
 30
0.0
 10
3.67738
 20
3.77549
 30
0.0
 10
3.7648
 20
3.7048
 30
0.0
 10
3.7648
 20
3.7048
 30
0.0
 10
3.84473
 20
3.64022
 30
0.0
 10
3.92127
 20
3.57402
 30
0.0
 10
3.92127
 20
3.57402
 30
0.0
 10
3.92127
 20
3.57402
 30
0.0
 10
3.92127
 20
3.57402
 30
0.0
 10
4.00125
 20
3.51835
 30
0.0
 10
4.00125
 20
3.51835
 30
0.0
 10
4.00125
 20
3.51835
 30
0.0
 10
4.0271
 20
3.50038
 30
0.0
 10
4.08089
 20
3.47088
 30
0.0
 10
4.12325
 20
3.44088
 30
0.0
 10
4.12325
 20
3.44088
 30
0.0
 10
4.18089
 20
3.40003
 30
0.0
 10
4.22884
 20
3.35595
 30
0.0
 10
4.26265
 20
3.31703
 30
0.0
 10
4.26265
 20
3.31703
 30
0.0
 10
4.26265
 20
3.31703
 30
0.0
 10
4.26265
 20
3.31703
 30
0.0
 10
4.26265
 20
3.31703
 30
0.0
  0
SPLINE
  5
42
330
1F
100
AcDbEntity
  8
Camada 1
100
AcDbSpline
210
0.0
220
0.0
230
1.0
 70
    11
 71
     3
 72
   172
 73
   168
 74
     0
 42
0.0000000001
 43
0.0000000001
 12
1.0
 22
0.0
 32
0.0
 13
1.0
 23
0.0
 33
0.0
 40
0.0
 40
0.0
 40
0.0
 40
0.0
 40
0.0232558139534884
 40
0.0232558139534884
 40
0.0232558139534884
 40
0.0232558139534884
 40
0.0465116279069767
 40
0.0465116279069767
 40
0.0465116279069767
 40
0.0465116279069767
 40
0.0697674418604651
 40
0.0697674418604651
 40
0.0697674418604651
 40
0.0697674418604651
 40
0.0930232558139535
 40
0.0930232558139535
 40
0.0930232558139535
 40
0.0930232558139535
 40
0.1162790697674419
 40
0.1162790697674419
 40
0.1162790697674419
 40
0.1162790697674419
 40
0.1395348837209302
 40
0.1395348837209302
 40
0.1395348837209302
 40
0.1395348837209302
 40
0.1627906976744186
 40
0.1627906976744186
 40
0.1627906976744186
 40
0.1627906976744186
 40
0.186046511627907
 40
0.186046511627907
 40
0.186046511627907
 40
0.186046511627907
 40
0.2093023255813954
 40
0.2093023255813954
 40
0.2093023255813954
 40
0.2093023255813954
 40
0.2325581395348837
 40
0.2325581395348837
 40
0.2325581395348837
 40
0.2325581395348837
 40
0.2558139534883721
 40
0.2558139534883721
 40
0.2558139534883721
 40
0.2558139534883721
 40
0.2790697674418605
 40
0.2790697674418605
 40
0.2790697674418605
 40
0.2790697674418605
 40
0.3023255813953488
 40
0.3023255813953488
 40
0.3023255813953488
 40
0.3023255813953488
 40
0.3255813953488372
 40
0.3255813953488372
 40
0.3255813953488372
 40
0.3255813953488372
 40
0.3488372093023256
 40
0.3488372093023256
 40
0.3488372093023256
 40
0.3488372093023256
 40
0.3720930232558139
 40
0.3720930232558139
 40
0.3720930232558139
 40
0.3720930232558139
 40
0.3953488372093023
 40
0.3953488372093023
 40
0.3953488372093023
 40
0.3953488372093023
 40
0.4186046511627907
 40
0.4186046511627907
 40
0.4186046511627907
 40
0.4186046511627907
 40
0.4418604651162791
 40
0.4418604651162791
 40
0.4418604651162791
 40
0.4418604651162791
 40
0.4651162790697674
 40
0.4651162790697674
 40
0.4651162790697674
 40
0.4651162790697674
 40
0.4883720930232558
 40
0.4883720930232558
 40
0.4883720930232558
 40
0.4883720930232558
 40
0.5116279069767442
 40
0.5116279069767442
 40
0.5116279069767442
 40
0.5116279069767442
 40
0.5348837209302325
 40
0.5348837209302325
 40
0.5348837209302325
 40
0.5348837209302325
 40
0.5581395348837209
 40
0.5581395348837209
 40
0.5581395348837209
 40
0.5581395348837209
 40
0.5813953488372093
 40
0.5813953488372093
 40
0.5813953488372093
 40
0.5813953488372093
 40
0.6046511627906976
 40
0.6046511627906976
 40
0.6046511627906976
 40
0.6046511627906976
 40
0.627906976744186
 40
0.627906976744186
 40
0.627906976744186
 40
0.627906976744186
 40
0.6511627906976745
 40
0.6511627906976745
 40
0.6511627906976745
 40
0.6511627906976745
 40
0.6744186046511628
 40
0.6744186046511628
 40
0.6744186046511628
 40
0.6744186046511628
 40
0.6976744186046512
 40
0.6976744186046512
 40
0.6976744186046512
 40
0.6976744186046512
 40
0.7209302325581395
 40
0.7209302325581395
 40
0.7209302325581395
 40
0.7209302325581395
 40
0.7441860465116279
 40
0.7441860465116279
 40
0.7441860465116279
 40
0.7441860465116279
 40
0.7674418604651163
 40
0.7674418604651163
 40
0.7674418604651163
 40
0.7674418604651163
 40
0.7906976744186046
 40
0.7906976744186046
 40
0.7906976744186046
 40
0.7906976744186046
 40
0.813953488372093
 40
0.813953488372093
 40
0.813953488372093
 40
0.813953488372093
 40
0.8372093023255814
 40
0.8372093023255814
 40
0.8372093023255814
 40
0.8372093023255814
 40
0.8604651162790697
 40
0.8604651162790697
 40
0.8604651162790697
 40
0.8604651162790697
 40
0.8837209302325582
 40
0.8837209302325582
 40
0.8837209302325582
 40
0.8837209302325582
 40
0.9069767441860465
 40
0.9069767441860465
 40
0.9069767441860465
 40
0.9069767441860465
 40
0.9302325581395349
 40
0.9302325581395349
 40
0.9302325581395349
 40
0.9302325581395349
 40
0.9534883720930233
 40
0.9534883720930233
 40
0.9534883720930233
 40
0.9534883720930233
 40
1.0
 40
1.0
 40
1.0
 40
1.0
 10
-3.18254
 20
2.4901
 30
0.0
 10
-3.18254
 20
2.4901
 30
0.0
 10
-3.13206
 20
2.42938
 30
0.0
 10
-3.06612
 20
2.40342
 30
0.0
 10
-3.06612
 20
2.40342
 30
0.0
 10
-2.96751
 20
2.36421
 30
0.0
 10
-2.88467
 20
2.34794
 30
0.0
 10
-2.88467
 20
2.34794
 30
0.0
 10
-2.88467
 20
2.34794
 30
0.0
 10
-2.88467
 20
2.34794
 30
0.0
 10
-2.74611
 20
2.30584
 30
0.0
 10
-2.73288
 20
2.25068
 30
0.0
 10
-2.73288
 20
2.25068
 30
0.0
 10
-2.72283
 20
2.20909
 30
0.0
 10
-2.75754
 20
2.17554
 30
0.0
 10
-2.78103
 20
2.15964
 30
0.0
 10
-2.78103
 20
2.15964
 30
0.0
 10
-2.81778
 20
2.13432
 30
0.0
 10
-2.87845
 20
2.13371
 30
0.0
 10
-2.93412
 20
2.15612
 30
0.0
 10
-2.93412
 20
2.15612
 30
0.0
 10
-2.97627
 20
2.17321
 30
0.0
 10
-3.04839
 20
2.20573
 30
0.0
 10
-3.04839
 20
2.20573
 30
0.0
 10
-3.04839
 20
2.20573
 30
0.0
 10
-3.04839
 20
2.20573
 30
0.0
 10
-3.15835
 20
2.25402
 30
0.0
 10
-3.15835
 20
2.25402
 30
0.0
 10
-3.15835
 20
2.25402
 30
0.0
 10
-3.15835
 20
2.25402
 30
0.0
 10
-3.22309
 20
2.26344
 30
0.0
 10
-3.1262
 20
2.18697
 30
0.0
 10
-3.1262
 20
2.18697
 30
0.0
 10
-3.11612
 20
2.1789
 30
0.0
 10
-3.06278
 20
2.15964
 30
0.0
 10
-3.02015
 20
2.12979
 30
0.0
 10
-3.02015
 20
2.12979
 30
0.0
 10
-2.97906
 20
2.10077
 30
0.0
 10
-2.92223
 20
2.04478
 30
0.0
 10
-2.92223
 20
2.04478
 30
0.0
 10
-2.92223
 20
2.04478
 30
0.0
 10
-2.92223
 20
2.04478
 30
0.0
 10
-2.85712
 20
2.02335
 30
0.0
 10
-2.78615
 20
1.98678
 30
0.0
 10
-2.78615
 20
1.98678
 30
0.0
 10
-2.71908
 20
1.95225
 30
0.0
 10
-2.67259
 20
1.92675
 30
0.0
 10
-2.67259
 20
1.92675
 30
0.0
 10
-2.67259
 20
1.92675
 30
0.0
 10
-2.67259
 20
1.92675
 30
0.0
 10
-2.66185
 20
1.91752
 30
0.0
 10
-2.63534
 20
1.91167
 30
0.0
 10
-2.63534
 20
1.91167
 30
0.0
 10
-2.61407
 20
1.90699
 30
0.0
 10
-2.57599
 20
1.90529
 30
0.0
 10
-2.57599
 20
1.90529
 30
0.0
 10
-2.57599
 20
1.90529
 30
0.0
 10
-2.57599
 20
1.90529
 30
0.0
 10
-2.55451
 20
1.97506
 30
0.0
 10
-2.55451
 20
1.97506
 30
0.0
 10
-2.55451
 20
1.97506
 30
0.0
 10
-2.55451
 20
1.97506
 30
0.0
 10
-2.5349
 20
2.05351
 30
0.0
 10
-2.524
 20
2.12373
 30
0.0
 10
-2.524
 20
2.12373
 30
0.0
 10
-2.51138
 20
2.2049
 30
0.0
 10
-2.50672
 20
2.28759
 30
0.0
 10
-2.49918
 20
2.42856
 30
0.0
 10
-2.49918
 20
2.42856
 30
0.0
 10
-2.49042
 20
2.58834
 30
0.0
 10
-2.5572
 20
2.96222
 30
0.0
 10
-2.5572
 20
2.96222
 30
0.0
 10
-2.5572
 20
2.96222
 30
0.0
 10
-2.5572
 20
2.96222
 30
0.0
 10
-2.61356
 20
3.38344
 30
0.0
 10
-2.60284
 20
3.43982
 30
0.0
 10
-2.60284
 20
3.43982
 30
0.0
 10
-2.59678
 20
3.47178
 30
0.0
 10
-2.6216
 20
3.56317
 30
0.0
 10
-2.6189
 20
3.61683
 30
0.0
 10
-2.6189
 20
3.61683
 30
0.0
 10
-2.6162
 20
3.67043
 30
0.0
 10
-2.64036
 20
3.76434
 30
0.0
 10
-2.64036
 20
3.81265
 30
0.0
 10
-2.64036
 20
3.81265
 30
0.0
 10
-2.64036
 20
3.86091
 30
0.0
 10
-2.66719
 20
3.93605
 30
0.0
 10
-2.66991
 20
3.99238
 30
0.0
 10
-2.66991
 20
3.99238
 30
0.0
 10
-2.67258
 20
4.04876
 30
0.0
 10
-2.69674
 20
4.13454
 30
0.0
 10
-2.70206
 20
4.18018
 30
0.0
 10
-2.70206
 20
4.18018
 30
0.0
 10
-2.70428
 20
4.19841
 30
0.0
 10
-2.71267
 20
4.22193
 30
0.0
 10
-2.71553
 20
4.2531
 30
0.0
 10
-2.71553
 20
4.2531
 30
0.0
 10
-2.71974
 20
4.30006
 30
0.0
 10
-2.71826
 20
4.35454
 30
0.0
 10
-2.71826
 20
4.35454
 30
0.0
 10
-2.71826
 20
4.35454
 30
0.0
 10
-2.71826
 20
4.35454
 30
0.0
 10
-2.75916
 20
4.41021
 30
0.0
 10
-2.71553
 20
4.41092
 30
0.0
 10
-2.71553
 20
4.41092
 30
0.0
 10
-2.70868
 20
4.41108
 30
0.0
 10
-2.73096
 20
4.44389
 30
0.0
 10
-2.74739
 20
4.47561
 30
0.0
 10
-2.74739
 20
4.47561
 30
0.0
 10
-2.77356
 20
4.52641
 30
0.0
 10
-2.8034
 20
4.54768
 30
0.0
 10
-2.84386
 20
4.53813
 30
0.0
 10
-2.84386
 20
4.53813
 30
0.0
 10
-2.91294
 20
4.52167
 30
0.0
 10
-2.96597
 20
4.44304
 30
0.0
 10
-2.96597
 20
4.44304
 30
0.0
 10
-2.96597
 20
4.44304
 30
0.0
 10
-2.96597
 20
4.44304
 30
0.0
 10
-3.21201
 20
4.16404
 30
0.0
 10
-3.21201
 20
4.16404
 30
0.0
 10
-3.21201
 20
4.16404
 30
0.0
 10
-3.21201
 20
4.16404
 30
0.0
 10
-3.56541
 20
3.7796
 30
0.0
 10
-3.56541
 20
3.7796
 30
0.0
 10
-3.56541
 20
3.7796
 30
0.0
 10
-3.56541
 20
3.7796
 30
0.0
 10
-3.69455
 20
3.6463
 30
0.0
 10
-3.79904
 20
3.54552
 30
0.0
 10
-3.79904
 20
3.54552
 30
0.0
 10
-3.87056
 20
3.47649
 30
0.0
 10
-3.93863
 20
3.42061
 30
0.0
 10
-3.93477
 20
3.41376
 30
0.0
 10
-3.93477
 20
3.41376
 30
0.0
 10
-3.92136
 20
3.38963
 30
0.0
 10
-3.84182
 20
2.95685
 30
0.0
 10
-3.84182
 20
2.92201
 30
0.0
 10
-3.84182
 20
2.92201
 30
0.0
 10
-3.84182
 20
2.8737
 30
0.0
 10
-3.77811
 20
2.68743
 30
0.0
 10
-3.75861
 20
2.64838
 30
0.0
 10
-3.75861
 20
2.64838
 30
0.0
 10
-3.70493
 20
2.54109
 30
0.0
 10
-3.71318
 20
2.48344
 30
0.0
 10
-3.70765
 20
2.48024
 30
0.0
 10
-3.70765
 20
2.48024
 30
0.0
 10
-3.65397
 20
2.45074
 30
0.0
 10
-3.58766
 20
2.47135
 30
0.0
 10
-3.56089
 20
2.48204
 30
0.0
 10
-3.56089
 20
2.48204
 30
0.0
 10
-3.53253
 20
2.49347
 30
0.0
 10
-3.48842
 20
2.5035
 30
0.0
 10
-3.46964
 20
2.5035
 30
0.0
 10
-3.46964
 20
2.5035
 30
0.0
 10
-3.45086
 20
2.5035
 30
0.0
 10
-3.3328
 20
2.50887
 30
0.0
 10
-3.3328
 20
2.50887
 30
0.0
 10
-3.3328
 20
2.50887
 30
0.0
 10
-3.3328
 20
2.50887
 30
0.0
 10
-3.28277
 20
2.51715
 30
0.0
 10
-3.25694
 20
2.51392
 30
0.0
 10
-3.25694
 20
2.51392
 30
0.0
 10
-3.21286
 20
2.50838
 30
0.0
 10
-3.18254
 20
2.4901
 30
0.0
 10
-3.18254
 20
2.4901
 30
0.0
 10
-3.18254
 20
2.4901
 30
0.0
 10
-3.18254
 20
2.4901
 30
0.0
 10
-3.18254
 20
2.4901
 30
0.0
 10
-3.18254
 20
2.4901
 30
0.0
  0
ENDSEC
  0
SECTION
  2
OBJECTS
  0
DICTIONARY
  5
C
330
0
100
AcDbDictionary
281
     1
  3
ACAD_GROUP
350
D
  3
ACAD_LAYOUT
350
1A
  3
ACAD_MATERIAL
350
3B
  3
ACAD_MLEADERSTYLE
350
64
  3
ACAD_MLINESTYLE
350
17
  3
ACAD_PLOTSETTINGS
350
19
  3
ACAD_PLOTSTYLENAME
350
E
  3
ACAD_TABLESTYLE
350
63
  3
ACAD_VISUALSTYLE
350
2A
  0
DICTIONARY
  5
D
102
{ACAD_REACTORS
330
C
102
}
330
C
100
AcDbDictionary
281
     1
  0
DICTIONARY
  5
1A
102
{ACAD_REACTORS
330
C
102
}
330
C
100
AcDbDictionary
281
     1
  3
Layout1
350
1E
  3
Layout2
350
26
  3
Model
350
22
  0
DICTIONARY
  5
3B
102
{ACAD_REACTORS
330
C
102
}
330
C
100
AcDbDictionary
281
     1
  3
ByBlock
350
3D
  3
ByLayer
350
3C
  3
Global
350
3E
  0
DICTIONARY
  5
64
102
{ACAD_REACTORS
330
C
102
}
330
C
100
AcDbDictionary
281
     1
  0
DICTIONARY
  5
17
102
{ACAD_REACTORS
330
C
102
}
330
C
100
AcDbDictionary
281
     1
  3
Standard
350
18
  0
DICTIONARY
  5
19
102
{ACAD_REACTORS
330
C
102
}
330
C
100
AcDbDictionary
281
     1
  0
ACDBDICTIONARYWDFLT
  5
E
102
{ACAD_REACTORS
330
C
102
}
330
C
100
AcDbDictionary
281
     1
  3
Normal
350
F
100
AcDbDictionaryWithDefault
340
F
  0
DICTIONARY
  5
63
102
{ACAD_REACTORS
330
C
102
}
330
C
100
AcDbDictionary
281
     1
  0
DICTIONARY
  5
2A
102
{ACAD_REACTORS
330
C
102
}
330
C
100
AcDbDictionary
281
     1
  3
2dWireframe
350
2F
  3
3D Hidden
350
31
  3
3dWireframe
350
30
  3
Basic
350
32
  3
Brighten
350
36
  3
ColorChange
350
3A
  3
Conceptual
350
34
  3
Dim
350
35
  3
Facepattern
350
39
  3
Flat
350
2B
  3
FlatWithEdges
350
2C
  3
Gouraud
350
2D
  3
GouraudWithEdges
350
2E
  3
Linepattern
350
38
  3
Realistic
350
33
  3
Thicken
350
37
  0
LAYOUT
  5
1E
102
{ACAD_REACTORS
330
1A
102
}
330
1A
100
AcDbPlotSettings
  1

  2
none_device
  4

  6

 40
0.0
 41
0.0
 42
0.0
 43
0.0
 44
0.0
 45
0.0
 46
0.0
 47
0.0
 48
0.0
 49
0.0
140
0.0
141
0.0
142
1.0
143
1.0
 70
   688
 72
     0
 73
     0
 74
     5
  7

 75
    16
 76
     0
 77
     2
 78
   300
147
1.0
148
0.0
149
0.0
100
AcDbLayout
  1
Layout1
 70
     1
 71
     1
 10
0.0
 20
0.0
 11
12.0
 21
9.0
 12
0.0
 22
0.0
 32
0.0
 14
1.000000000000000E+20
 24
1.000000000000000E+20
 34
1.000000000000000E+20
 15
-1.000000000000000E+20
 25
-1.000000000000000E+20
 35
-1.000000000000000E+20
146
0.0
 13
0.0
 23
0.0
 33
0.0
 16
1.0
 26
0.0
 36
0.0
 17
0.0
 27
1.0
 37
0.0
 76
     0
330
1B
  0
LAYOUT
  5
26
102
{ACAD_REACTORS
330
1A
102
}
330
1A
100
AcDbPlotSettings
  1

  2
none_device
  4

  6

 40
0.0
 41
0.0
 42
0.0
 43
0.0
 44
0.0
 45
0.0
 46
0.0
 47
0.0
 48
0.0
 49
0.0
140
0.0
141
0.0
142
1.0
143
1.0
 70
   688
 72
     0
 73
     0
 74
     5
  7

 75
    16
 76
     0
 77
     2
 78
   300
147
1.0
148
0.0
149
0.0
100
AcDbLayout
  1
Layout2
 70
     1
 71
     2
 10
0.0
 20
0.0
 11
0.0
 21
0.0
 12
0.0
 22
0.0
 32
0.0
 14
0.0
 24
0.0
 34
0.0
 15
0.0
 25
0.0
 35
0.0
146
0.0
 13
0.0
 23
0.0
 33
0.0
 16
1.0
 26
0.0
 36
0.0
 17
0.0
 27
1.0
 37
0.0
 76
     0
330
23
  0
LAYOUT
  5
22
102
{ACAD_REACTORS
330
1A
102
}
330
1A
100
AcDbPlotSettings
  1

  2
none_device
  4

  6

 40
0.0
 41
0.0
 42
0.0
 43
0.0
 44
0.0
 45
0.0
 46
0.0
 47
0.0
 48
0.0
 49
0.0
140
0.0
141
0.0
142
1.0
143
1.0
 70
  1712
 72
     0
 73
     0
 74
     0
  7

 75
     0
 76
     0
 77
     2
 78
   300
147
1.0
148
0.0
149
0.0
100
AcDbLayout
  1
Model
 70
     1
 71
     0
 10
0.0
 20
0.0
 11
12.0
 21
9.0
 12
0.0
 22
0.0
 32
0.0
 14
-4.66799
 24
-8.59371
 34
0.0
 15
4.66799
 25
8.59371
 35
0.0
146
0.0
 13
0.0
 23
0.0
 33
0.0
 16
1.0
 26
0.0
 36
0.0
 17
0.0
 27
1.0
 37
0.0
 76
     0
330
1F
331
29
  0
MATERIAL
  5
3D
102
{ACAD_REACTORS
330
3B
102
}
330
3B
100
AcDbMaterial
  1
ByBlock
 72
     1
 94
      127
  0
MATERIAL
  5
3C
102
{ACAD_REACTORS
330
3B
102
}
330
3B
100
AcDbMaterial
  1
ByLayer
 72
     1
 94
      127
  0
MATERIAL
  5
3E
102
{ACAD_REACTORS
330
3B
102
}
330
3B
100
AcDbMaterial
  1
Global
 72
     1
 94
      127
  0
MLINESTYLE
  5
18
102
{ACAD_REACTORS
330
17
102
}
330
17
100
AcDbMlineStyle
  2
Standard
 70
     0
  3

 62
   256
 51
90.0
 52
90.0
 71
     2
 49
0.5
 62
   256
  6
BYLAYER
 49
-0.5
 62
   256
  6
BYLAYER
  0
ACDBPLACEHOLDER
  5
F
102
{ACAD_REACTORS
330
E
102
}
330
E
  0
VISUALSTYLE
  5
2F
102
{ACAD_REACTORS
330
2A
102
}
102
{ACAD_XDICTIONARY
360
4B
102
}
330
2A
100
AcDbVisualStyle
  2
2dWireframe
 70
     4
 71
     0
 72
     2
 73
     0
 90
        0
 40
-0.6
 41
-30.0
 62
     5
 63
     7
421
 16777215
 74
     1
 91
        4
 64
     7
 65
   257
 75
     1
175
     1
 42
1.0
 92
        0
 66
   257
 43
1.0
 76
     1
 77
     6
 78
     2
 67
     7
 79
     5
170
     0
171
     0
290
     0
174
     0
 93
        1
 44
0.0
173
     0
291
     0
 45
0.0
  0
VISUALSTYLE
  5
31
102
{ACAD_REACTORS
330
2A
102
}
102
{ACAD_XDICTIONARY
360
4F
102
}
330
2A
100
AcDbVisualStyle
  2
3D Hidden
 70
     6
 71
     1
 72
     2
 73
     2
 90
        0
 40
-0.6
 41
-30.0
 62
     5
 63
     7
421
 16777215
 74
     2
 91
        2
 64
     7
 65
   257
 75
     2
175
     1
 42
40.0
 92
        0
 66
   257
 43
1.0
 76
     1
 77
     6
 78
     2
 67
     7
 79
     3
170
     0
171
     0
290
     0
174
     0
 93
        1
 44
0.0
173
     0
291
     0
 45
0.0
  0
VISUALSTYLE
  5
30
102
{ACAD_REACTORS
330
2A
102
}
102
{ACAD_XDICTIONARY
360
4D
102
}
330
2A
100
AcDbVisualStyle
  2
3dWireframe
 70
     5
 71
     0
 72
     2
 73
     0
 90
        0
 40
-0.6
 41
-30.0
 62
     5
 63
     7
421
 16777215
 74
     1
 91
        4
 64
     7
 65
   257
 75
     1
175
     1
 42
1.0
 92
        0
 66
   257
 43
1.0
 76
     1
 77
     6
 78
     2
 67
     7
 79
     5
170
     0
171
     0
290
     0
174
     0
 93
        1
 44
0.0
173
     0
291
     0
 45
0.0
  0
VISUALSTYLE
  5
32
102
{ACAD_REACTORS
330
2A
102
}
102
{ACAD_XDICTIONARY
360
51
102
}
330
2A
100
AcDbVisualStyle
  2
Basic
 70
     7
 71
     1
 72
     0
 73
     1
 90
        0
 40
-0.6
 41
-30.0
 62
     5
 63
     7
421
 16777215
 74
     0
 91
        4
 64
     7
 65
   257
 75
     1
175
     1
 42
1.0
 92
        8
 66
     7
 43
1.0
 76
     1
 77
     6
 78
     2
 67
     7
 79
     5
170
     0
171
     0
290
     0
174
     0
 93
        1
 44
0.0
173
     0
291
     1
 45
0.0
  0
VISUALSTYLE
  5
36
102
{ACAD_REACTORS
330
2A
102
}
102
{ACAD_XDICTIONARY
360
59
102
}
330
2A
100
AcDbVisualStyle
  2
Brighten
 70
    12
 71
     2
 72
     2
 73
     0
 90
        0
 40
-0.6
 41
-30.0
 62
     5
 63
     7
421
 16777215
 74
     1
 91
        4
 64
     7
 65
   257
 75
     1
175
     1
 42
1.0
 92
        8
 66
     7
 43
1.0
 76
     1
 77
     6
 78
     2
 67
     7
 79
     5
170
     0
171
     0
290
     0
174
     0
 93
        1
 44
50.0
173
     0
291
     1
 45
0.0
  0
VISUALSTYLE
  5
3A
102
{ACAD_REACTORS
330
2A
102
}
102
{ACAD_XDICTIONARY
360
61
102
}
330
2A
100
AcDbVisualStyle
  2
ColorChange
 70
    16
 71
     2
 72
     2
 73
     3
 90
        0
 40
-0.6
 41
-30.0
 62
     5
 63
     8
421
  8421504
 74
     1
 91
        4
 64
     7
 65
   257
 75
     1
175
     1
 42
1.0
 92
        8
 66
     8
424
  8421504
 43
1.0
 76
     1
 77
     6
 78
     2
 67
     7
 79
     5
170
     0
171
     0
290
     0
174
     0
 93
        1
 44
0.0
173
     0
291
     1
 45
0.0
  0
VISUALSTYLE
  5
34
102
{ACAD_REACTORS
330
2A
102
}
102
{ACAD_XDICTIONARY
360
55
102
}
330
2A
100
AcDbVisualStyle
  2
Conceptual
 70
     9
 71
     3
 72
     2
 73
     0
 90
        0
 40
-0.6
 41
-30.0
 62
     5
 63
     7
421
 16777215
 74
     2
 91
        2
 64
     7
 65
   257
 75
     1
175
     1
 42
40.0
 92
        8
 66
     7
 43
1.0
 76
     1
 77
     6
 78
     2
 67
     7
 79
     3
170
     0
171
     0
290
     0
174
     0
 93
        1
 44
0.0
173
     0
291
     0
 45
0.0
  0
VISUALSTYLE
  5
35
102
{ACAD_REACTORS
330
2A
102
}
102
{ACAD_XDICTIONARY
360
57
102
}
330
2A
100
AcDbVisualStyle
  2
Dim
 70
    11
 71
     2
 72
     2
 73
     0
 90
        0
 40
-0.6
 41
-30.0
 62
     5
 63
     7
421
 16777215
 74
     1
 91
        4
 64
     7
 65
   257
 75
     1
175
     1
 42
1.0
 92
        8
 66
     7
 43
1.0
 76
     1
 77
     6
 78
     2
 67
     7
 79
     5
170
     0
171
     0
290
     0
174
     0
 93
        1
 44
-50.0
173
     0
291
     1
 45
0.0
  0
VISUALSTYLE
  5
39
102
{ACAD_REACTORS
330
2A
102
}
102
{ACAD_XDICTIONARY
360
5F
102
}
330
2A
100
AcDbVisualStyle
  2
Facepattern
 70
    15
 71
     2
 72
     2
 73
     0
 90
        0
 40
-0.6
 41
-30.0
 62
     5
 63
     7
421
 16777215
 74
     1
 91
        4
 64
     7
 65
   257
 75
     1
175
     1
 42
1.0
 92
        8
 66
     7
 43
1.0
 76
     1
 77
     6
 78
     2
 67
     7
 79
     5
170
     0
171
     0
290
     0
174
     0
 93
        1
 44
0.0
173
     0
291
     1
 45
0.0
  0
VISUALSTYLE
  5
2B
102
{ACAD_REACTORS
330
2A
102
}
102
{ACAD_XDICTIONARY
360
43
102
}
330
2A
100
AcDbVisualStyle
  2
Flat
 70
     0
 71
     2
 72
     1
 73
     1
 90
        2
 40
-0.6
 41
30.0
 62
     5
 63
     7
421
 16777215
 74
     0
 91
        4
 64
     7
 65
   257
 75
     1
175
     1
 42
1.0
 92
        8
 66
     7
 43
1.0
 76
     1
 77
     6
 78
     2
 67
     7
 79
     5
170
     0
171
     0
290
     0
174
     0
 93
       13
 44
0.0
173
     0
291
     1
 45
0.0
  0
VISUALSTYLE
  5
2C
102
{ACAD_REACTORS
330
2A
102
}
102
{ACAD_XDICTIONARY
360
45
102
}
330
2A
100
AcDbVisualStyle
  2
FlatWithEdges
 70
     1
 71
     2
 72
     1
 73
     1
 90
        2
 40
-0.6
 41
30.0
 62
     5
 63
     7
421
 16777215
 74
     1
 91
        4
 64
     7
 65
   257
 75
     1
175
     1
 42
1.0
 92
        0
 66
   257
 43
1.0
 76
     1
 77
     6
 78
     2
 67
     7
 79
     5
170
     0
171
     0
290
     0
174
     0
 93
       13
 44
0.0
173
     0
291
     1
 45
0.0
  0
VISUALSTYLE
  5
2D
102
{ACAD_REACTORS
330
2A
102
}
102
{ACAD_XDICTIONARY
360
47
102
}
330
2A
100
AcDbVisualStyle
  2
Gouraud
 70
     2
 71
     2
 72
     2
 73
     1
 90
        2
 40
-0.6
 41
30.0
 62
     5
 63
     7
421
 16777215
 74
     0
 91
        4
 64
     7
 65
   257
 75
     1
175
     1
 42
1.0
 92
        0
 66
     7
 43
1.0
 76
     1
 77
     6
 78
     2
 67
     7
 79
     5
170
     0
171
     0
290
     0
174
     0
 93
       13
 44
0.0
173
     0
291
     1
 45
0.0
  0
VISUALSTYLE
  5
2E
102
{ACAD_REACTORS
330
2A
102
}
102
{ACAD_XDICTIONARY
360
49
102
}
330
2A
100
AcDbVisualStyle
  2
GouraudWithEdges
 70
     3
 71
     2
 72
     2
 73
     1
 90
        2
 40
-0.6
 41
30.0
 62
     5
 63
     7
421
 16777215
 74
     1
 91
        4
 64
     7
 65
   257
 75
     1
175
     1
 42
1.0
 92
        0
 66
   257
 43
1.0
 76
     1
 77
     6
 78
     2
 67
     7
 79
     5
170
     0
171
     0
290
     0
174
     0
 93
       13
 44
0.0
173
     0
291
     1
 45
0.0
  0
VISUALSTYLE
  5
38
102
{ACAD_REACTORS
330
2A
102
}
102
{ACAD_XDICTIONARY
360
5D
102
}
330
2A
100
AcDbVisualStyle
  2
Linepattern
 70
    14
 71
     2
 72
     2
 73
     0
 90
        0
 40
-0.6
 41
-30.0
 62
     5
 63
     7
421
 16777215
 74
     1
 91
        4
 64
     7
 65
   257
 75
     7
175
     7
 42
1.0
 92
        8
 66
     7
 43
1.0
 76
     1
 77
     6
 78
     2
 67
     7
 79
     5
170
     0
171
     0
290
     0
174
     0
 93
        1
 44
0.0
173
     0
291
     1
 45
0.0
  0
VISUALSTYLE
  5
33
102
{ACAD_REACTORS
330
2A
102
}
102
{ACAD_XDICTIONARY
360
53
102
}
330
2A
100
AcDbVisualStyle
  2
Realistic
 70
     8
 71
     2
 72
     2
 73
     0
 90
        0
 40
-0.6
 41
-30.0
 62
     5
 63
     7
421
 16777215
 74
     1
 91
        0
 64
     7
 65
   257
 75
     1
175
     1
 42
1.0
 92
        8
 66
     8
424
  7895160
 43
1.0
 76
     1
 77
     6
 78
     2
 67
     7
 79
     5
170
     0
171
     0
290
     0
174
     0
 93
       13
 44
0.0
173
     0
291
     0
 45
0.0
  0
VISUALSTYLE
  5
37
102
{ACAD_REACTORS
330
2A
102
}
102
{ACAD_XDICTIONARY
360
5B
102
}
330
2A
100
AcDbVisualStyle
  2
Thicken
 70
    13
 71
     2
 72
     2
 73
     0
 90
        0
 40
-0.6
 41
-30.0
 62
     5
 63
     7
421
 16777215
 74
     1
 91
        4
 64
     7
 65
   257
 75
     1
175
     1
 42
1.0
 92
       12
 66
     7
 43
1.0
 76
     1
 77
     6
 78
     2
 67
     7
 79
     5
170
     0
171
     0
290
     0
174
     0
 93
        1
 44
0.0
173
     0
291
     1
 45
0.0
  0
DICTIONARY
  5
4B
330
2F
100
AcDbDictionary
280
     1
281
     1
  3
ACAD_XREC_ROUNDTRIP
360
4C
  0
DICTIONARY
  5
4F
330
31
100
AcDbDictionary
280
     1
281
     1
  3
ACAD_XREC_ROUNDTRIP
360
50
  0
DICTIONARY
  5
4D
330
30
100
AcDbDictionary
280
     1
281
     1
  3
ACAD_XREC_ROUNDTRIP
360
4E
  0
DICTIONARY
  5
51
330
32
100
AcDbDictionary
280
     1
281
     1
  3
ACAD_XREC_ROUNDTRIP
360
52
  0
DICTIONARY
  5
59
330
36
100
AcDbDictionary
280
     1
281
     1
  3
ACAD_XREC_ROUNDTRIP
360
5A
  0
DICTIONARY
  5
61
330
3A
100
AcDbDictionary
280
     1
281
     1
  3
ACAD_XREC_ROUNDTRIP
360
62
  0
DICTIONARY
  5
55
330
34
100
AcDbDictionary
280
     1
281
     1
  3
ACAD_XREC_ROUNDTRIP
360
56
  0
DICTIONARY
  5
57
330
35
100
AcDbDictionary
280
     1
281
     1
  3
ACAD_XREC_ROUNDTRIP
360
58
  0
DICTIONARY
  5
5F
330
39
100
AcDbDictionary
280
     1
281
     1
  3
ACAD_XREC_ROUNDTRIP
360
60
  0
DICTIONARY
  5
43
330
2B
100
AcDbDictionary
280
     1
281
     1
  3
ACAD_XREC_ROUNDTRIP
360
44
  0
DICTIONARY
  5
45
330
2C
100
AcDbDictionary
280
     1
281
     1
  3
ACAD_XREC_ROUNDTRIP
360
46
  0
DICTIONARY
  5
47
330
2D
100
AcDbDictionary
280
     1
281
     1
  3
ACAD_XREC_ROUNDTRIP
360
48
  0
DICTIONARY
  5
49
330
2E
100
AcDbDictionary
280
     1
281
     1
  3
ACAD_XREC_ROUNDTRIP
360
4A
  0
DICTIONARY
  5
5D
330
38
100
AcDbDictionary
280
     1
281
     1
  3
ACAD_XREC_ROUNDTRIP
360
5E
  0
DICTIONARY
  5
53
330
33
100
AcDbDictionary
280
     1
281
     1
  3
ACAD_XREC_ROUNDTRIP
360
54
  0
DICTIONARY
  5
5B
330
37
100
AcDbDictionary
280
     1
281
     1
  3
ACAD_XREC_ROUNDTRIP
360
5C
  0
XRECORD
  5
4C
102
{ACAD_REACTORS
330
4B
102
}
330
4B
100
AcDbXrecord
280
     1
102
RTVSPropertyOp0
 70
     1
102
RTVSPropertyOp1
 70
     1
102
RTVSPropertyOp2
 70
     1
102
RTVSPropertyOp3
 70
     1
102
RTVSPropertyOp4
 70
     1
102
RTVSPropertyOp5
 70
     1
102
RTVSPropertyOp6
 70
     1
102
RTVSPropertyOp7
 70
     1
102
RTVSPropertyOp8
 70
     1
102
RTVSPropertyOp9
 70
     1
102
RTVSPropertyOp10
 70
     1
102
RTVSPropertyOp11
 70
     1
102
RTVSPropertyOp12
 70
     1
102
RTVSPropertyOp13
 70
     1
102
RTVSPropertyOp14
 70
     1
102
RTVSPropertyOp15
 70
     1
102
RTVSPropertyOp16
 70
     1
102
RTVSPropertyOp17
 70
     1
102
RTVSPropertyOp18
 70
     1
102
RTVSPropertyOp19
 70
     1
102
RTVSPropertyOp20
 70
     1
102
RTVSPropertyOp21
 70
     1
102
RTVSPropertyOp22
 70
     1
102
RTVSPropertyOp23
 70
     1
102
RTVSPropertyOp24
 70
     1
102
RTVSPropertyOp25
 70
     1
102
RTVSPropertyOp26
 70
     1
102
RTVSPropertyOp27
 70
     1
102
RTVSPropertyOp28
 70
     1
102
RTVSPropertyOp29
 70
     1
102
RTVSPropertyOp30
 70
     1
102
RTVSPropertyOp31
 70
     1
102
RTVSPropertyOp32
 70
     1
  0
XRECORD
  5
50
102
{ACAD_REACTORS
330
4F
102
}
330
4F
100
AcDbXrecord
280
     1
102
RTVSPropertyOp0
 70
     1
102
RTVSPropertyOp1
 70
     1
102
RTVSPropertyOp2
 70
     1
102
RTVSPropertyOp3
 70
     1
102
RTVSPropertyOp4
 70
     1
102
RTVSPropertyOp5
 70
     1
102
RTVSPropertyOp6
 70
     1
102
RTVSPropertyOp7
 70
     1
102
RTVSPropertyOp8
 70
     1
102
RTVSPropertyOp9
 70
     1
102
RTVSPropertyOp10
 70
     1
102
RTVSPropertyOp11
 70
     1
102
RTVSPropertyOp12
 70
     1
102
RTVSPropertyOp13
 70
     1
102
RTVSPropertyOp14
 70
     1
102
RTVSPropertyOp15
 70
     1
102
RTVSPropertyOp16
 70
     1
102
RTVSPropertyOp17
 70
     1
102
RTVSPropertyOp18
 70
     1
102
RTVSPropertyOp19
 70
     1
102
RTVSPropertyOp20
 70
     1
102
RTVSPropertyOp21
 70
     1
102
RTVSPropertyOp22
 70
     1
102
RTVSPropertyOp23
 70
     1
102
RTVSPropertyOp24
 70
     1
102
RTVSPropertyOp25
 70
     1
102
RTVSPropertyOp26
 70
     1
102
RTVSPropertyOp27
 70
     1
102
RTVSPropertyOp28
 70
     1
102
RTVSPropertyOp29
 70
     1
102
RTVSPropertyOp30
 70
     1
102
RTVSPropertyOp31
 70
     1
102
RTVSPropertyOp32
 70
     1
  0
XRECORD
  5
4E
102
{ACAD_REACTORS
330
4D
102
}
330
4D
100
AcDbXrecord
280
     1
102
RTVSPropertyOp0
 70
     1
102
RTVSPropertyOp1
 70
     1
102
RTVSPropertyOp2
 70
     1
102
RTVSPropertyOp3
 70
     1
102
RTVSPropertyOp4
 70
     1
102
RTVSPropertyOp5
 70
     1
102
RTVSPropertyOp6
 70
     1
102
RTVSPropertyOp7
 70
     1
102
RTVSPropertyOp8
 70
     1
102
RTVSPropertyOp9
 70
     1
102
RTVSPropertyOp10
 70
     1
102
RTVSPropertyOp11
 70
     1
102
RTVSPropertyOp12
 70
     1
102
RTVSPropertyOp13
 70
     1
102
RTVSPropertyOp14
 70
     1
102
RTVSPropertyOp15
 70
     1
102
RTVSPropertyOp16
 70
     1
102
RTVSPropertyOp17
 70
     1
102
RTVSPropertyOp18
 70
     1
102
RTVSPropertyOp19
 70
     1
102
RTVSPropertyOp20
 70
     1
102
RTVSPropertyOp21
 70
     1
102
RTVSPropertyOp22
 70
     1
102
RTVSPropertyOp23
 70
     1
102
RTVSPropertyOp24
 70
     1
102
RTVSPropertyOp25
 70
     1
102
RTVSPropertyOp26
 70
     1
102
RTVSPropertyOp27
 70
     1
102
RTVSPropertyOp28
 70
     1
102
RTVSPropertyOp29
 70
     1
102
RTVSPropertyOp30
 70
     1
102
RTVSPropertyOp31
 70
     1
102
RTVSPropertyOp32
 70
     1
  0
XRECORD
  5
52
102
{ACAD_REACTORS
330
51
102
}
330
51
100
AcDbXrecord
280
     1
102
RTVSPropertyOp0
 70
     1
102
RTVSPropertyOp1
 70
     1
102
RTVSPropertyOp2
 70
     1
102
RTVSPropertyOp3
 70
     1
102
RTVSPropertyOp4
 70
     1
102
RTVSPropertyOp5
 70
     1
102
RTVSPropertyOp6
 70
     1
102
RTVSPropertyOp7
 70
     1
102
RTVSPropertyOp8
 70
     1
102
RTVSPropertyOp9
 70
     1
102
RTVSPropertyOp10
 70
     1
102
RTVSPropertyOp11
 70
     1
102
RTVSPropertyOp12
 70
     1
102
RTVSPropertyOp13
 70
     1
102
RTVSPropertyOp14
 70
     1
102
RTVSPropertyOp15
 70
     1
102
RTVSPropertyOp16
 70
     1
102
RTVSPropertyOp17
 70
     1
102
RTVSPropertyOp18
 70
     1
102
RTVSPropertyOp19
 70
     1
102
RTVSPropertyOp20
 70
     1
102
RTVSPropertyOp21
 70
     1
102
RTVSPropertyOp22
 70
     1
102
RTVSPropertyOp23
 70
     1
102
RTVSPropertyOp24
 70
     1
102
RTVSPropertyOp25
 70
     1
102
RTVSPropertyOp26
 70
     1
102
RTVSPropertyOp27
 70
     1
102
RTVSPropertyOp28
 70
     1
102
RTVSPropertyOp29
 70
     1
102
RTVSPropertyOp30
 70
     1
102
RTVSPropertyOp31
 70
     1
102
RTVSPropertyOp32
 70
     1
  0
XRECORD
  5
5A
102
{ACAD_REACTORS
330
59
102
}
330
59
100
AcDbXrecord
280
     1
102
RTVSPropertyOp0
 70
     1
102
RTVSPropertyOp1
 70
     1
102
RTVSPropertyOp2
 70
     1
102
RTVSPropertyOp3
 70
     1
102
RTVSPropertyOp4
 70
     1
102
RTVSPropertyOp5
 70
     1
102
RTVSPropertyOp6
 70
     1
102
RTVSPropertyOp7
 70
     1
102
RTVSPropertyOp8
 70
     1
102
RTVSPropertyOp9
 70
     1
102
RTVSPropertyOp10
 70
     1
102
RTVSPropertyOp11
 70
     1
102
RTVSPropertyOp12
 70
     1
102
RTVSPropertyOp13
 70
     1
102
RTVSPropertyOp14
 70
     1
102
RTVSPropertyOp15
 70
     1
102
RTVSPropertyOp16
 70
     1
102
RTVSPropertyOp17
 70
     1
102
RTVSPropertyOp18
 70
     1
102
RTVSPropertyOp19
 70
     1
102
RTVSPropertyOp20
 70
     1
102
RTVSPropertyOp21
 70
     1
102
RTVSPropertyOp22
 70
     1
102
RTVSPropertyOp23
 70
     1
102
RTVSPropertyOp24
 70
     1
102
RTVSPropertyOp25
 70
     1
102
RTVSPropertyOp26
 70
     1
102
RTVSPropertyOp27
 70
     1
102
RTVSPropertyOp28
 70
     1
102
RTVSPropertyOp29
 70
     1
102
RTVSPropertyOp30
 70
     1
102
RTVSPropertyOp31
 70
     1
102
RTVSPropertyOp32
 70
     1
  0
XRECORD
  5
62
102
{ACAD_REACTORS
330
61
102
}
330
61
100
AcDbXrecord
280
     1
102
RTVSPropertyOp0
 70
     1
102
RTVSPropertyOp1
 70
     1
102
RTVSPropertyOp2
 70
     1
102
RTVSPropertyOp3
 70
     1
102
RTVSPropertyOp4
 70
     1
102
RTVSPropertyOp5
 70
     1
102
RTVSPropertyOp6
 70
     1
102
RTVSPropertyOp7
 70
     1
102
RTVSPropertyOp8
 70
     1
102
RTVSPropertyOp9
 70
     1
102
RTVSPropertyOp10
 70
     1
102
RTVSPropertyOp11
 70
     1
102
RTVSPropertyOp12
 70
     1
102
RTVSPropertyOp13
 70
     1
102
RTVSPropertyOp14
 70
     1
102
RTVSPropertyOp15
 70
     1
102
RTVSPropertyOp16
 70
     1
102
RTVSPropertyOp17
 70
     1
102
RTVSPropertyOp18
 70
     1
102
RTVSPropertyOp19
 70
     1
102
RTVSPropertyOp20
 70
     1
102
RTVSPropertyOp21
 70
     1
102
RTVSPropertyOp22
 70
     1
102
RTVSPropertyOp23
 70
     1
102
RTVSPropertyOp24
 70
     1
102
RTVSPropertyOp25
 70
     1
102
RTVSPropertyOp26
 70
     1
102
RTVSPropertyOp27
 70
     1
102
RTVSPropertyOp28
 70
     1
102
RTVSPropertyOp29
 70
     1
102
RTVSPropertyOp30
 70
     1
102
RTVSPropertyOp31
 70
     1
102
RTVSPropertyOp32
 70
     1
  0
XRECORD
  5
56
102
{ACAD_REACTORS
330
55
102
}
330
55
100
AcDbXrecord
280
     1
102
RTVSPropertyOp0
 70
     1
102
RTVSPropertyOp1
 70
     1
102
RTVSPropertyOp2
 70
     1
102
RTVSPropertyOp3
 70
     1
102
RTVSPropertyOp4
 70
     1
102
RTVSPropertyOp5
 70
     1
102
RTVSPropertyOp6
 70
     1
102
RTVSPropertyOp7
 70
     1
102
RTVSPropertyOp8
 70
     1
102
RTVSPropertyOp9
 70
     1
102
RTVSPropertyOp10
 70
     1
102
RTVSPropertyOp11
 70
     1
102
RTVSPropertyOp12
 70
     1
102
RTVSPropertyOp13
 70
     1
102
RTVSPropertyOp14
 70
     1
102
RTVSPropertyOp15
 70
     1
102
RTVSPropertyOp16
 70
     1
102
RTVSPropertyOp17
 70
     1
102
RTVSPropertyOp18
 70
     1
102
RTVSPropertyOp19
 70
     1
102
RTVSPropertyOp20
 70
     1
102
RTVSPropertyOp21
 70
     1
102
RTVSPropertyOp22
 70
     1
102
RTVSPropertyOp23
 70
     1
102
RTVSPropertyOp24
 70
     1
102
RTVSPropertyOp25
 70
     1
102
RTVSPropertyOp26
 70
     1
102
RTVSPropertyOp27
 70
     1
102
RTVSPropertyOp28
 70
     1
102
RTVSPropertyOp29
 70
     1
102
RTVSPropertyOp30
 70
     1
102
RTVSPropertyOp31
 70
     1
102
RTVSPropertyOp32
 70
     1
  0
XRECORD
  5
58
102
{ACAD_REACTORS
330
57
102
}
330
57
100
AcDbXrecord
280
     1
102
RTVSPropertyOp0
 70
     1
102
RTVSPropertyOp1
 70
     1
102
RTVSPropertyOp2
 70
     1
102
RTVSPropertyOp3
 70
     1
102
RTVSPropertyOp4
 70
     1
102
RTVSPropertyOp5
 70
     1
102
RTVSPropertyOp6
 70
     1
102
RTVSPropertyOp7
 70
     1
102
RTVSPropertyOp8
 70
     1
102
RTVSPropertyOp9
 70
     1
102
RTVSPropertyOp10
 70
     1
102
RTVSPropertyOp11
 70
     1
102
RTVSPropertyOp12
 70
     1
102
RTVSPropertyOp13
 70
     1
102
RTVSPropertyOp14
 70
     1
102
RTVSPropertyOp15
 70
     1
102
RTVSPropertyOp16
 70
     1
102
RTVSPropertyOp17
 70
     1
102
RTVSPropertyOp18
 70
     1
102
RTVSPropertyOp19
 70
     1
102
RTVSPropertyOp20
 70
     1
102
RTVSPropertyOp21
 70
     1
102
RTVSPropertyOp22
 70
     1
102
RTVSPropertyOp23
 70
     1
102
RTVSPropertyOp24
 70
     1
102
RTVSPropertyOp25
 70
     1
102
RTVSPropertyOp26
 70
     1
102
RTVSPropertyOp27
 70
     1
102
RTVSPropertyOp28
 70
     1
102
RTVSPropertyOp29
 70
     1
102
RTVSPropertyOp30
 70
     1
102
RTVSPropertyOp31
 70
     1
102
RTVSPropertyOp32
 70
     1
  0
XRECORD
  5
60
102
{ACAD_REACTORS
330
5F
102
}
330
5F
100
AcDbXrecord
280
     1
102
RTVSPropertyOp0
 70
     1
102
RTVSPropertyOp1
 70
     1
102
RTVSPropertyOp2
 70
     1
102
RTVSPropertyOp3
 70
     1
102
RTVSPropertyOp4
 70
     1
102
RTVSPropertyOp5
 70
     1
102
RTVSPropertyOp6
 70
     1
102
RTVSPropertyOp7
 70
     1
102
RTVSPropertyOp8
 70
     1
102
RTVSPropertyOp9
 70
     1
102
RTVSPropertyOp10
 70
     1
102
RTVSPropertyOp11
 70
     1
102
RTVSPropertyOp12
 70
     1
102
RTVSPropertyOp13
 70
     1
102
RTVSPropertyOp14
 70
     1
102
RTVSPropertyOp15
 70
     1
102
RTVSPropertyOp16
 70
     1
102
RTVSPropertyOp17
 70
     1
102
RTVSPropertyOp18
 70
     1
102
RTVSPropertyOp19
 70
     1
102
RTVSPropertyOp20
 70
     1
102
RTVSPropertyOp21
 70
     1
102
RTVSPropertyOp22
 70
     1
102
RTVSPropertyOp23
 70
     1
102
RTVSPropertyOp24
 70
     1
102
RTVSPropertyOp25
 70
     1
102
RTVSPropertyOp26
 70
     1
102
RTVSPropertyOp27
 70
     1
102
RTVSPropertyOp28
 70
     1
102
RTVSPropertyOp29
 70
     1
102
RTVSPropertyOp30
 70
     1
102
RTVSPropertyOp31
 70
     1
102
RTVSPropertyOp32
 70
     1
  0
XRECORD
  5
44
102
{ACAD_REACTORS
330
43
102
}
330
43
100
AcDbXrecord
280
     1
102
RTVSPropertyOp0
 70
     1
102
RTVSPropertyOp1
 70
     1
102
RTVSPropertyOp2
 70
     1
102
RTVSPropertyOp3
 70
     1
102
RTVSPropertyOp4
 70
     1
102
RTVSPropertyOp5
 70
     1
102
RTVSPropertyOp6
 70
     1
102
RTVSPropertyOp7
 70
     1
102
RTVSPropertyOp8
 70
     1
102
RTVSPropertyOp9
 70
     1
102
RTVSPropertyOp10
 70
     1
102
RTVSPropertyOp11
 70
     1
102
RTVSPropertyOp12
 70
     1
102
RTVSPropertyOp13
 70
     1
102
RTVSPropertyOp14
 70
     1
102
RTVSPropertyOp15
 70
     1
102
RTVSPropertyOp16
 70
     1
102
RTVSPropertyOp17
 70
     1
102
RTVSPropertyOp18
 70
     1
102
RTVSPropertyOp19
 70
     1
102
RTVSPropertyOp20
 70
     1
102
RTVSPropertyOp21
 70
     1
102
RTVSPropertyOp22
 70
     1
102
RTVSPropertyOp23
 70
     1
102
RTVSPropertyOp24
 70
     1
102
RTVSPropertyOp25
 70
     1
102
RTVSPropertyOp26
 70
     1
102
RTVSPropertyOp27
 70
     1
102
RTVSPropertyOp28
 70
     1
102
RTVSPropertyOp29
 70
     1
102
RTVSPropertyOp30
 70
     1
102
RTVSPropertyOp31
 70
     1
102
RTVSPropertyOp32
 70
     1
  0
XRECORD
  5
46
102
{ACAD_REACTORS
330
45
102
}
330
45
100
AcDbXrecord
280
     1
102
RTVSPropertyOp0
 70
     1
102
RTVSPropertyOp1
 70
     1
102
RTVSPropertyOp2
 70
     1
102
RTVSPropertyOp3
 70
     1
102
RTVSPropertyOp4
 70
     1
102
RTVSPropertyOp5
 70
     1
102
RTVSPropertyOp6
 70
     1
102
RTVSPropertyOp7
 70
     1
102
RTVSPropertyOp8
 70
     1
102
RTVSPropertyOp9
 70
     1
102
RTVSPropertyOp10
 70
     1
102
RTVSPropertyOp11
 70
     1
102
RTVSPropertyOp12
 70
     1
102
RTVSPropertyOp13
 70
     1
102
RTVSPropertyOp14
 70
     1
102
RTVSPropertyOp15
 70
     1
102
RTVSPropertyOp16
 70
     1
102
RTVSPropertyOp17
 70
     1
102
RTVSPropertyOp18
 70
     1
102
RTVSPropertyOp19
 70
     1
102
RTVSPropertyOp20
 70
     1
102
RTVSPropertyOp21
 70
     1
102
RTVSPropertyOp22
 70
     1
102
RTVSPropertyOp23
 70
     1
102
RTVSPropertyOp24
 70
     1
102
RTVSPropertyOp25
 70
     1
102
RTVSPropertyOp26
 70
     1
102
RTVSPropertyOp27
 70
     1
102
RTVSPropertyOp28
 70
     1
102
RTVSPropertyOp29
 70
     1
102
RTVSPropertyOp30
 70
     1
102
RTVSPropertyOp31
 70
     1
102
RTVSPropertyOp32
 70
     1
  0
XRECORD
  5
48
102
{ACAD_REACTORS
330
47
102
}
330
47
100
AcDbXrecord
280
     1
102
RTVSPropertyOp0
 70
     1
102
RTVSPropertyOp1
 70
     1
102
RTVSPropertyOp2
 70
     1
102
RTVSPropertyOp3
 70
     1
102
RTVSPropertyOp4
 70
     1
102
RTVSPropertyOp5
 70
     1
102
RTVSPropertyOp6
 70
     1
102
RTVSPropertyOp7
 70
     1
102
RTVSPropertyOp8
 70
     1
102
RTVSPropertyOp9
 70
     1
102
RTVSPropertyOp10
 70
     1
102
RTVSPropertyOp11
 70
     1
102
RTVSPropertyOp12
 70
     1
102
RTVSPropertyOp13
 70
     1
102
RTVSPropertyOp14
 70
     1
102
RTVSPropertyOp15
 70
     1
102
RTVSPropertyOp16
 70
     1
102
RTVSPropertyOp17
 70
     1
102
RTVSPropertyOp18
 70
     1
102
RTVSPropertyOp19
 70
     1
102
RTVSPropertyOp20
 70
     1
102
RTVSPropertyOp21
 70
     1
102
RTVSPropertyOp22
 70
     1
102
RTVSPropertyOp23
 70
     1
102
RTVSPropertyOp24
 70
     1
102
RTVSPropertyOp25
 70
     1
102
RTVSPropertyOp26
 70
     1
102
RTVSPropertyOp27
 70
     1
102
RTVSPropertyOp28
 70
     1
102
RTVSPropertyOp29
 70
     1
102
RTVSPropertyOp30
 70
     1
102
RTVSPropertyOp31
 70
     1
102
RTVSPropertyOp32
 70
     1
  0
XRECORD
  5
4A
102
{ACAD_REACTORS
330
49
102
}
330
49
100
AcDbXrecord
280
     1
102
RTVSPropertyOp0
 70
     1
102
RTVSPropertyOp1
 70
     1
102
RTVSPropertyOp2
 70
     1
102
RTVSPropertyOp3
 70
     1
102
RTVSPropertyOp4
 70
     1
102
RTVSPropertyOp5
 70
     1
102
RTVSPropertyOp6
 70
     1
102
RTVSPropertyOp7
 70
     1
102
RTVSPropertyOp8
 70
     1
102
RTVSPropertyOp9
 70
     1
102
RTVSPropertyOp10
 70
     1
102
RTVSPropertyOp11
 70
     1
102
RTVSPropertyOp12
 70
     1
102
RTVSPropertyOp13
 70
     1
102
RTVSPropertyOp14
 70
     1
102
RTVSPropertyOp15
 70
     1
102
RTVSPropertyOp16
 70
     1
102
RTVSPropertyOp17
 70
     1
102
RTVSPropertyOp18
 70
     1
102
RTVSPropertyOp19
 70
     1
102
RTVSPropertyOp20
 70
     1
102
RTVSPropertyOp21
 70
     1
102
RTVSPropertyOp22
 70
     1
102
RTVSPropertyOp23
 70
     1
102
RTVSPropertyOp24
 70
     1
102
RTVSPropertyOp25
 70
     1
102
RTVSPropertyOp26
 70
     1
102
RTVSPropertyOp27
 70
     1
102
RTVSPropertyOp28
 70
     1
102
RTVSPropertyOp29
 70
     1
102
RTVSPropertyOp30
 70
     1
102
RTVSPropertyOp31
 70
     1
102
RTVSPropertyOp32
 70
     1
  0
XRECORD
  5
5E
102
{ACAD_REACTORS
330
5D
102
}
330
5D
100
AcDbXrecord
280
     1
102
RTVSPropertyOp0
 70
     1
102
RTVSPropertyOp1
 70
     1
102
RTVSPropertyOp2
 70
     1
102
RTVSPropertyOp3
 70
     1
102
RTVSPropertyOp4
 70
     1
102
RTVSPropertyOp5
 70
     1
102
RTVSPropertyOp6
 70
     1
102
RTVSPropertyOp7
 70
     1
102
RTVSPropertyOp8
 70
     1
102
RTVSPropertyOp9
 70
     1
102
RTVSPropertyOp10
 70
     1
102
RTVSPropertyOp11
 70
     1
102
RTVSPropertyOp12
 70
     1
102
RTVSPropertyOp13
 70
     1
102
RTVSPropertyOp14
 70
     1
102
RTVSPropertyOp15
 70
     1
102
RTVSPropertyOp16
 70
     1
102
RTVSPropertyOp17
 70
     1
102
RTVSPropertyOp18
 70
     1
102
RTVSPropertyOp19
 70
     1
102
RTVSPropertyOp20
 70
     1
102
RTVSPropertyOp21
 70
     1
102
RTVSPropertyOp22
 70
     1
102
RTVSPropertyOp23
 70
     1
102
RTVSPropertyOp24
 70
     1
102
RTVSPropertyOp25
 70
     1
102
RTVSPropertyOp26
 70
     1
102
RTVSPropertyOp27
 70
     1
102
RTVSPropertyOp28
 70
     1
102
RTVSPropertyOp29
 70
     1
102
RTVSPropertyOp30
 70
     1
102
RTVSPropertyOp31
 70
     1
102
RTVSPropertyOp32
 70
     1
  0
XRECORD
  5
54
102
{ACAD_REACTORS
330
53
102
}
330
53
100
AcDbXrecord
280
     1
102
RTVSPropertyOp0
 70
     1
102
RTVSPropertyOp1
 70
     1
102
RTVSPropertyOp2
 70
     1
102
RTVSPropertyOp3
 70
     1
102
RTVSPropertyOp4
 70
     1
102
RTVSPropertyOp5
 70
     1
102
RTVSPropertyOp6
 70
     1
102
RTVSPropertyOp7
 70
     1
102
RTVSPropertyOp8
 70
     1
102
RTVSPropertyOp9
 70
     1
102
RTVSPropertyOp10
 70
     1
102
RTVSPropertyOp11
 70
     1
102
RTVSPropertyOp12
 70
     1
102
RTVSPropertyOp13
 70
     1
102
RTVSPropertyOp14
 70
     1
102
RTVSPropertyOp15
 70
     1
102
RTVSPropertyOp16
 70
     1
102
RTVSPropertyOp17
 70
     1
102
RTVSPropertyOp18
 70
     1
102
RTVSPropertyOp19
 70
     1
102
RTVSPropertyOp20
 70
     1
102
RTVSPropertyOp21
 70
     1
102
RTVSPropertyOp22
 70
     1
102
RTVSPropertyOp23
 70
     1
102
RTVSPropertyOp24
 70
     1
102
RTVSPropertyOp25
 70
     1
102
RTVSPropertyOp26
 70
     1
102
RTVSPropertyOp27
 70
     1
102
RTVSPropertyOp28
 70
     1
102
RTVSPropertyOp29
 70
     1
102
RTVSPropertyOp30
 70
     1
102
RTVSPropertyOp31
 70
     1
102
RTVSPropertyOp32
 70
     1
  0
XRECORD
  5
5C
102
{ACAD_REACTORS
330
5B
102
}
330
5B
100
AcDbXrecord
280
     1
102
RTVSPropertyOp0
 70
     1
102
RTVSPropertyOp1
 70
     1
102
RTVSPropertyOp2
 70
     1
102
RTVSPropertyOp3
 70
     1
102
RTVSPropertyOp4
 70
     1
102
RTVSPropertyOp5
 70
     1
102
RTVSPropertyOp6
 70
     1
102
RTVSPropertyOp7
 70
     1
102
RTVSPropertyOp8
 70
     1
102
RTVSPropertyOp9
 70
     1
102
RTVSPropertyOp10
 70
     1
102
RTVSPropertyOp11
 70
     1
102
RTVSPropertyOp12
 70
     1
102
RTVSPropertyOp13
 70
     1
102
RTVSPropertyOp14
 70
     1
102
RTVSPropertyOp15
 70
     1
102
RTVSPropertyOp16
 70
     1
102
RTVSPropertyOp17
 70
     1
102
RTVSPropertyOp18
 70
     1
102
RTVSPropertyOp19
 70
     1
102
RTVSPropertyOp20
 70
     1
102
RTVSPropertyOp21
 70
     1
102
RTVSPropertyOp22
 70
     1
102
RTVSPropertyOp23
 70
     1
102
RTVSPropertyOp24
 70
     1
102
RTVSPropertyOp25
 70
     1
102
RTVSPropertyOp26
 70
     1
102
RTVSPropertyOp27
 70
     1
102
RTVSPropertyOp28
 70
     1
102
RTVSPropertyOp29
 70
     1
102
RTVSPropertyOp30
 70
     1
102
RTVSPropertyOp31
 70
     1
102
RTVSPropertyOp32
 70
     1
  0
ENDSEC
  0
EOF
