  0
SECTION
  2
HEADER
  9
$ACADVER
  1
AC1021
  9
$ACADMAINTVER
 70
    25
  9
$DWGCODEPAGE
  3
ANSI_1252
  9
$INSBASE
 10
0.0
 20
0.0
 30
0.0
  9
$EXTMIN
 10
-10.07184
 20
-8.95212
 30
0.0
  9
$EXTMAX
 10
10.07205
 20
8.95214
 30
0.0
  9
$LIMMIN
 10
0.0
 20
0.0
  9
$LIMMAX
 10
12.0
 20
9.0
  9
$ORTHOMODE
 70
     0
  9
$REGENMODE
 70
     1
  9
$FILLMODE
 70
     1
  9
$QTEXTMODE
 70
     0
  9
$MIRRTEXT
 70
     1
  9
$LTSCALE
 40
1.0
  9
$ATTMODE
 70
     1
  9
$TEXTSIZE
 40
0.2
  9
$TRACEWID
 40
0.05
  9
$TEXTSTYLE
  7
Standard
  9
$CLAYER
  8
0
  9
$CELTYPE
  6
ByLayer
  9
$CECOLOR
 62
   256
  9
$CELTSCALE
 40
1.0
  9
$DISPSILH
 70
     0
  9
$DIMSCALE
 40
1.0
  9
$DIMASZ
 40
0.18
  9
$DIMEXO
 40
0.0625
  9
$DIMDLI
 40
0.38
  9
$DIMRND
 40
0.0
  9
$DIMDLE
 40
0.0
  9
$DIMEXE
 40
0.18
  9
$DIMTP
 40
0.0
  9
$DIMTM
 40
0.0
  9
$DIMTXT
 40
0.18
  9
$DIMCEN
 40
0.09
  9
$DIMTSZ
 40
0.0
  9
$DIMTOL
 70
     0
  9
$DIMLIM
 70
     0
  9
$DIMTIH
 70
     1
  9
$DIMTOH
 70
     1
  9
$DIMSE1
 70
     0
  9
$DIMSE2
 70
     0
  9
$DIMTAD
 70
     0
  9
$DIMZIN
 70
     0
  9
$DIMBLK
  1

  9
$DIMASO
 70
     1
  9
$DIMSHO
 70
     1
  9
$DIMPOST
  1

  9
$DIMAPOST
  1

  9
$DIMALT
 70
     0
  9
$DIMALTD
 70
     2
  9
$DIMALTF
 40
25.4
  9
$DIMLFAC
 40
1.0
  9
$DIMTOFL
 70
     0
  9
$DIMTVP
 40
0.0
  9
$DIMTIX
 70
     0
  9
$DIMSOXD
 70
     0
  9
$DIMSAH
 70
     0
  9
$DIMBLK1
  1

  9
$DIMBLK2
  1

  9
$DIMSTYLE
  2
Standard
  9
$DIMCLRD
 70
     0
  9
$DIMCLRE
 70
     0
  9
$DIMCLRT
 70
     0
  9
$DIMTFAC
 40
1.0
  9
$DIMGAP
 40
0.09
  9
$DIMJUST
 70
     0
  9
$DIMSD1
 70
     0
  9
$DIMSD2
 70
     0
  9
$DIMTOLJ
 70
     1
  9
$DIMTZIN
 70
     0
  9
$DIMALTZ
 70
     0
  9
$DIMALTTZ
 70
     0
  9
$DIMUPT
 70
     0
  9
$DIMDEC
 70
     4
  9
$DIMTDEC
 70
     4
  9
$DIMALTU
 70
     2
  9
$DIMALTTD
 70
     2
  9
$DIMTXSTY
  7
Standard
  9
$DIMAUNIT
 70
     0
  9
$DIMADEC
 70
     0
  9
$DIMALTRND
 40
0.0
  9
$DIMAZIN
 70
     0
  9
$DIMDSEP
 70
    46
  9
$DIMATFIT
 70
     3
  9
$DIMFRAC
 70
     0
  9
$DIMLDRBLK
  1

  9
$DIMLUNIT
 70
     2
  9
$DIMLWD
 70
    -2
  9
$DIMLWE
 70
    -2
  9
$DIMTMOVE
 70
     0
  9
$DIMFXL
 40
1.0
  9
$DIMFXLON
 70
     0
  9
$DIMJOGANG
 40
0.7853981633974483
  9
$DIMTFILL
 70
     0
  9
$DIMTFILLCLR
 70
     0
  9
$DIMARCSYM
 70
     0
  9
$DIMLTYPE
  6

  9
$DIMLTEX1
  6

  9
$DIMLTEX2
  6

  9
$LUNITS
 70
     2
  9
$LUPREC
 70
     4
  9
$SKETCHINC
 40
0.1
  9
$FILLETRAD
 40
0.5
  9
$AUNITS
 70
     0
  9
$AUPREC
 70
     0
  9
$MENU
  1
.
  9
$ELEVATION
 40
0.0
  9
$PELEVATION
 40
0.0
  9
$THICKNESS
 40
0.0
  9
$LIMCHECK
 70
     0
  9
$CHAMFERA
 40
0.5
  9
$CHAMFERB
 40
0.5
  9
$CHAMFERC
 40
1.0
  9
$CHAMFERD
 40
0.0
  9
$SKPOLY
 70
     0
  9
$TDCREATE
 40
2456878.327975636
  9
$TDUCREATE
 40
2456878.452975636
  9
$TDUPDATE
 40
2456878.327975822
  9
$TDUUPDATE
 40
2456878.452975822
  9
$TDINDWG
 40
0.0000000116
  9
$TDUSRTIMER
 40
0.0000000116
  9
$USRTIMER
 70
     1
  9
$ANGBASE
 50
0.0
  9
$ANGDIR
 70
     0
  9
$PDMODE
 70
     0
  9
$PDSIZE
 40
0.0
  9
$PLINEWID
 40
0.0
  9
$SPLFRAME
 70
     0
  9
$SPLINETYPE
 70
     6
  9
$SPLINESEGS
 70
     8
  9
$HANDSEED
  5
65
  9
$SURFTAB1
 70
     6
  9
$SURFTAB2
 70
     6
  9
$SURFTYPE
 70
     6
  9
$SURFU
 70
     6
  9
$SURFV
 70
     6
  9
$UCSBASE
  2

  9
$UCSNAME
  2

  9
$UCSORG
 10
0.0
 20
0.0
 30
0.0
  9
$UCSXDIR
 10
1.0
 20
0.0
 30
0.0
  9
$UCSYDIR
 10
0.0
 20
1.0
 30
0.0
  9
$UCSORTHOREF
  2

  9
$UCSORTHOVIEW
 70
     0
  9
$UCSORGTOP
 10
0.0
 20
0.0
 30
0.0
  9
$UCSORGBOTTOM
 10
0.0
 20
0.0
 30
0.0
  9
$UCSORGLEFT
 10
0.0
 20
0.0
 30
0.0
  9
$UCSORGRIGHT
 10
0.0
 20
0.0
 30
0.0
  9
$UCSORGFRONT
 10
0.0
 20
0.0
 30
0.0
  9
$UCSORGBACK
 10
0.0
 20
0.0
 30
0.0
  9
$PUCSBASE
  2

  9
$PUCSNAME
  2

  9
$PUCSORG
 10
0.0
 20
0.0
 30
0.0
  9
$PUCSXDIR
 10
1.0
 20
0.0
 30
0.0
  9
$PUCSYDIR
 10
0.0
 20
1.0
 30
0.0
  9
$PUCSORTHOREF
  2

  9
$PUCSORTHOVIEW
 70
     0
  9
$PUCSORGTOP
 10
0.0
 20
0.0
 30
0.0
  9
$PUCSORGBOTTOM
 10
0.0
 20
0.0
 30
0.0
  9
$PUCSORGLEFT
 10
0.0
 20
0.0
 30
0.0
  9
$PUCSORGRIGHT
 10
0.0
 20
0.0
 30
0.0
  9
$PUCSORGFRONT
 10
0.0
 20
0.0
 30
0.0
  9
$PUCSORGBACK
 10
0.0
 20
0.0
 30
0.0
  9
$USERI1
 70
     0
  9
$USERI2
 70
     0
  9
$USERI3
 70
     0
  9
$USERI4
 70
     0
  9
$USERI5
 70
     0
  9
$USERR1
 40
0.0
  9
$USERR2
 40
0.0
  9
$USERR3
 40
0.0
  9
$USERR4
 40
0.0
  9
$USERR5
 40
0.0
  9
$WORLDVIEW
 70
     1
  9
$SHADEDGE
 70
     3
  9
$SHADEDIF
 70
    70
  9
$TILEMODE
 70
     1
  9
$MAXACTVP
 70
    64
  9
$PINSBASE
 10
0.0
 20
0.0
 30
0.0
  9
$PLIMCHECK
 70
     0
  9
$PEXTMIN
 10
1.000000000000000E+20
 20
1.000000000000000E+20
 30
1.000000000000000E+20
  9
$PEXTMAX
 10
-1.000000000000000E+20
 20
-1.000000000000000E+20
 30
-1.000000000000000E+20
  9
$PLIMMIN
 10
0.0
 20
0.0
  9
$PLIMMAX
 10
12.0
 20
9.0
  9
$UNITMODE
 70
     0
  9
$VISRETAIN
 70
     1
  9
$PLINEGEN
 70
     0
  9
$PSLTSCALE
 70
     1
  9
$TREEDEPTH
 70
  3020
  9
$CMLSTYLE
  2
Standard
  9
$CMLJUST
 70
     0
  9
$CMLSCALE
 40
1.0
  9
$PROXYGRAPHICS
 70
     1
  9
$MEASUREMENT
 70
     0
  9
$CELWEIGHT
370
    -1
  9
$ENDCAPS
280
     0
  9
$JOINSTYLE
280
     0
  9
$LWDISPLAY
290
     0
  9
$INSUNITS
 70
     5
  9
$HYPERLINKBASE
  1

  9
$STYLESHEET
  1

  9
$XEDIT
290
     1
  9
$CEPSNTYPE
380
     0
  9
$PSTYLEMODE
290
     1
  9
$FINGERPRINTGUID
  2
{68CF788E-7C44-446C-8381-5DF272265D20}
  9
$VERSIONGUID
  2
{FAEB1C32-E019-11D5-929B-00C0DF256EC4}
  9
$EXTNAMES
290
     1
  9
$PSVPSCALE
 40
0.0
  9
$OLESTARTUP
290
     0
  9
$SORTENTS
280
   127
  9
$INDEXCTL
280
     0
  9
$HIDETEXT
280
     1
  9
$XCLIPFRAME
290
     0
  9
$HALOGAP
280
     0
  9
$OBSCOLOR
 70
   257
  9
$OBSLTYPE
280
     0
  9
$INTERSECTIONDISPLAY
280
     0
  9
$INTERSECTIONCOLOR
 70
   257
  9
$DIMASSOC
280
     2
  9
$PROJECTNAME
  1

  9
$CAMERADISPLAY
290
     0
  9
$LENSLENGTH
 40
50.0
  9
$CAMERAHEIGHT
 40
0.0
  9
$STEPSPERSEC
 40
2.0
  9
$STEPSIZE
 40
6.0
  9
$3DDWFPREC
 40
2.0
  9
$PSOLWIDTH
 40
0.25
  9
$PSOLHEIGHT
 40
4.0
  9
$LOFTANG1
 40
1.570796326794897
  9
$LOFTANG2
 40
1.570796326794897
  9
$LOFTMAG1
 40
0.0
  9
$LOFTMAG2
 40
0.0
  9
$LOFTPARAM
 70
     7
  9
$LOFTNORMALS
280
     1
  9
$LATITUDE
 40
37.795
  9
$LONGITUDE
 40
-122.394
  9
$NORTHDIRECTION
 40
0.0
  9
$TIMEZONE
 70
 -8000
  9
$LIGHTGLYPHDISPLAY
280
     1
  9
$TILEMODELIGHTSYNCH
280
     1
  9
$SOLIDHIST
280
     1
  9
$SHOWHIST
280
     1
  9
$DWFFRAME
280
     2
  9
$DGNFRAME
280
     2
  9
$REALWORLDSCALE
290
     1
  9
$INTERFERECOLOR
 62
   256
  9
$CSHADOW
280
     0
  9
$SHADOWPLANELOCATION
 40
0.0
  0
ENDSEC
  0
SECTION
  2
CLASSES
  0
CLASS
  1
ACDBDICTIONARYWDFLT
  2
AcDbDictionaryWithDefault
  3
ObjectDBX Classes
 90
        0
 91
        4
280
     0
281
     0
  0
CLASS
  1
VISUALSTYLE
  2
AcDbVisualStyle
  3
ObjectDBX Classes
 90
     4095
 91
        4
280
     0
281
     0
  0
CLASS
  1
MATERIAL
  2
AcDbMaterial
  3
ObjectDBX Classes
 90
     1153
 91
        4
280
     0
281
     0
  0
ENDSEC
  0
SECTION
  2
TABLES
  0
TABLE
  2
VPORT
  5
8
330
0
100
AcDbSymbolTable
 70
     1
  0
VPORT
  5
29
330
8
100
AcDbSymbolTableRecord
100
AcDbViewportTableRecord
  2
*Active
 70
     0
 10
0.0
 20
0.0
 11
1.0
 21
1.0
 12
10.42990654205607
 22
4.5
 13
0.0
 23
0.0
 14
0.5
 24
0.5
 15
0.5
 25
0.5
 16
0.0
 26
0.0
 36
1.0
 17
0.0
 27
0.0
 37
0.0
 40
9.0
 41
1.972972972850329
 42
50.0
 43
0.0
 44
0.0
 50
0.0
 51
0.0
 71
     0
 72
   100
 73
     1
 74
     3
 75
     0
 76
     0
 77
     0
 78
     0
281
     0
 65
     1
110
0.0
120
0.0
130
0.0
111
1.0
121
0.0
131
0.0
112
0.0
122
1.0
132
0.0
 79
     0
146
0.0
 60
     3
 61
     5
292
     1
282
     1
141
0.0
142
0.0
 63
   250
  0
ENDTAB
  0
TABLE
  2
LTYPE
  5
5
330
0
100
AcDbSymbolTable
 70
     1
  0
LTYPE
  5
14
330
5
100
AcDbSymbolTableRecord
100
AcDbLinetypeTableRecord
  2
ByBlock
 70
     0
  3

 72
    65
 73
     0
 40
0.0
  0
LTYPE
  5
15
330
5
100
AcDbSymbolTableRecord
100
AcDbLinetypeTableRecord
  2
ByLayer
 70
     0
  3

 72
    65
 73
     0
 40
0.0
  0
LTYPE
  5
16
330
5
100
AcDbSymbolTableRecord
100
AcDbLinetypeTableRecord
  2
Continuous
 70
     0
  3
Solid line
 72
    65
 73
     0
 40
0.0
  0
ENDTAB
  0
TABLE
  2
LAYER
  5
2
330
0
100
AcDbSymbolTable
 70
     2
  0
LAYER
  5
10
330
2
100
AcDbSymbolTableRecord
100
AcDbLayerTableRecord
  2
0
 70
     0
 62
     7
  6
Continuous
370
    -3
390
F
347
3E
  0
LAYER
  5
40
330
2
100
AcDbSymbolTableRecord
100
AcDbLayerTableRecord
  2
Camada 1
 70
     0
 62
     7
  6
Continuous
370
    -3
390
F
347
3E
  0
ENDTAB
  0
TABLE
  2
STYLE
  5
3
330
0
100
AcDbSymbolTable
 70
     1
  0
STYLE
  5
11
330
3
100
AcDbSymbolTableRecord
100
AcDbTextStyleTableRecord
  2
Standard
 70
     0
 40
0.0
 41
1.0
 50
0.0
 71
     0
 42
0.2
  3
txt
  4

  0
ENDTAB
  0
TABLE
  2
VIEW
  5
6
330
0
100
AcDbSymbolTable
 70
     0
  0
ENDTAB
  0
TABLE
  2
UCS
  5
7
330
0
100
AcDbSymbolTable
 70
     0
  0
ENDTAB
  0
TABLE
  2
APPID
  5
9
330
0
100
AcDbSymbolTable
 70
     2
  0
APPID
  5
12
330
9
100
AcDbSymbolTableRecord
100
AcDbRegAppTableRecord
  2
ACAD
 70
     0
  0
APPID
  5
3F
330
9
100
AcDbSymbolTableRecord
100
AcDbRegAppTableRecord
  2
ODA
 70
     0
  0
ENDTAB
  0
TABLE
  2
DIMSTYLE
  5
A
330
0
100
AcDbSymbolTable
 70
     1
100
AcDbDimStyleTable
  0
DIMSTYLE
105
27
330
A
100
AcDbSymbolTableRecord
100
AcDbDimStyleTableRecord
  2
Standard
 70
     0
178
     0
340
11
  0
ENDTAB
  0
TABLE
  2
BLOCK_RECORD
  5
1
330
0
100
AcDbSymbolTable
 70
     1
  0
BLOCK_RECORD
  5
1F
330
1
100
AcDbSymbolTableRecord
100
AcDbBlockTableRecord
  2
*Model_Space
340
22
 70
     0
280
     1
281
     0
  0
BLOCK_RECORD
  5
1B
330
1
100
AcDbSymbolTableRecord
100
AcDbBlockTableRecord
  2
*Paper_Space
340
1E
 70
     0
280
     1
281
     0
  0
BLOCK_RECORD
  5
23
330
1
100
AcDbSymbolTableRecord
100
AcDbBlockTableRecord
  2
*Paper_Space0
340
26
 70
     0
280
     1
281
     0
  0
ENDTAB
  0
ENDSEC
  0
SECTION
  2
BLOCKS
  0
BLOCK
  5
20
330
1F
100
AcDbEntity
  8
0
100
AcDbBlockBegin
  2
*Model_Space
 70
     0
 10
0.0
 20
0.0
 30
0.0
  3
*Model_Space
  1

  0
ENDBLK
  5
21
330
1F
100
AcDbEntity
  8
0
100
AcDbBlockEnd
  0
BLOCK
  5
1C
330
1B
100
AcDbEntity
 67
     1
  8
0
100
AcDbBlockBegin
  2
*Paper_Space
 70
     0
 10
0.0
 20
0.0
 30
0.0
  3
*Paper_Space
  1

  0
ENDBLK
  5
1D
330
1B
100
AcDbEntity
 67
     1
  8
0
100
AcDbBlockEnd
  0
BLOCK
  5
24
330
23
100
AcDbEntity
  8
0
100
AcDbBlockBegin
  2
*Paper_Space0
 70
     0
 10
0.0
 20
0.0
 30
0.0
  3
*Paper_Space0
  1

  0
ENDBLK
  5
25
330
23
100
AcDbEntity
  8
0
100
AcDbBlockEnd
  0
ENDSEC
  0
SECTION
  2
ENTITIES
  0
SPLINE
  5
41
330
1F
100
AcDbEntity
  8
Camada 1
100
AcDbSpline
210
0.0
220
0.0
230
1.0
 70
    11
 71
     3
 72
    28
 73
    24
 74
     0
 42
0.0000000001
 43
0.0000000001
 12
1.0
 22
0.0
 32
0.0
 13
1.0
 23
0.0
 33
0.0
 40
0.0
 40
0.0
 40
0.0
 40
0.0
 40
0.1428571428571428
 40
0.1428571428571428
 40
0.1428571428571428
 40
0.1428571428571428
 40
0.2857142857142857
 40
0.2857142857142857
 40
0.2857142857142857
 40
0.2857142857142857
 40
0.4285714285714285
 40
0.4285714285714285
 40
0.4285714285714285
 40
0.4285714285714285
 40
0.5714285714285714
 40
0.5714285714285714
 40
0.5714285714285714
 40
0.5714285714285714
 40
0.7142857142857143
 40
0.7142857142857143
 40
0.7142857142857143
 40
0.7142857142857143
 40
1.0
 40
1.0
 40
1.0
 40
1.0
 10
-2.98318
 20
-6.12569
 30
0.0
 10
-2.98318
 20
-6.12569
 30
0.0
 10
-2.47708
 20
-5.63634
 30
0.0
 10
-2.28404
 20
-5.40896
 30
0.0
 10
-2.28404
 20
-5.40896
 30
0.0
 10
-2.09111
 20
-5.18139
 30
0.0
 10
-1.80369
 20
-5.00121
 30
0.0
 10
-1.52492
 20
-5.24579
 30
0.0
 10
-1.52492
 20
-5.24579
 30
0.0
 10
-1.2461
 20
-5.4905
 30
0.0
 10
-0.8601
 20
-5.85534
 30
0.0
 10
-0.8601
 20
-5.85534
 30
0.0
 10
-0.8601
 20
-5.85534
 30
0.0
 10
-0.8601
 20
-5.85534
 30
0.0
 10
-1.26139
 20
-5.86428
 30
0.0
 10
-1.76159
 20
-5.92776
 30
0.0
 10
-1.76159
 20
-5.92776
 30
0.0
 10
-2.31971
 20
-5.99879
 30
0.0
 10
-2.98318
 20
-6.12569
 30
0.0
 10
-2.98318
 20
-6.12569
 30
0.0
 10
-2.98318
 20
-6.12569
 30
0.0
 10
-2.98318
 20
-6.12569
 30
0.0
 10
-2.98318
 20
-6.12569
 30
0.0
 10
-2.98318
 20
-6.12569
 30
0.0
  0
SPLINE
  5
42
330
1F
100
AcDbEntity
  8
Camada 1
100
AcDbSpline
210
0.0
220
0.0
230
1.0
 70
    11
 71
     3
 72
   848
 73
   844
 74
     0
 42
0.0000000001
 43
0.0000000001
 12
1.0
 22
0.0
 32
0.0
 13
1.0
 23
0.0
 33
0.0
 40
0.0
 40
0.0
 40
0.0
 40
0.0
 40
0.0047169811320755
 40
0.0047169811320755
 40
0.0047169811320755
 40
0.0047169811320755
 40
0.0094339622641509
 40
0.0094339622641509
 40
0.0094339622641509
 40
0.0094339622641509
 40
0.0141509433962264
 40
0.0141509433962264
 40
0.0141509433962264
 40
0.0141509433962264
 40
0.0188679245283019
 40
0.0188679245283019
 40
0.0188679245283019
 40
0.0188679245283019
 40
0.0235849056603774
 40
0.0235849056603774
 40
0.0235849056603774
 40
0.0235849056603774
 40
0.0283018867924528
 40
0.0283018867924528
 40
0.0283018867924528
 40
0.0283018867924528
 40
0.0330188679245283
 40
0.0330188679245283
 40
0.0330188679245283
 40
0.0330188679245283
 40
0.0377358490566038
 40
0.0377358490566038
 40
0.0377358490566038
 40
0.0377358490566038
 40
0.0424528301886792
 40
0.0424528301886792
 40
0.0424528301886792
 40
0.0424528301886792
 40
0.0471698113207547
 40
0.0471698113207547
 40
0.0471698113207547
 40
0.0471698113207547
 40
0.0518867924528302
 40
0.0518867924528302
 40
0.0518867924528302
 40
0.0518867924528302
 40
0.0566037735849057
 40
0.0566037735849057
 40
0.0566037735849057
 40
0.0566037735849057
 40
0.0613207547169811
 40
0.0613207547169811
 40
0.0613207547169811
 40
0.0613207547169811
 40
0.0660377358490566
 40
0.0660377358490566
 40
0.0660377358490566
 40
0.0660377358490566
 40
0.0707547169811321
 40
0.0707547169811321
 40
0.0707547169811321
 40
0.0707547169811321
 40
0.0754716981132075
 40
0.0754716981132075
 40
0.0754716981132075
 40
0.0754716981132075
 40
0.080188679245283
 40
0.080188679245283
 40
0.080188679245283
 40
0.080188679245283
 40
0.0849056603773585
 40
0.0849056603773585
 40
0.0849056603773585
 40
0.0849056603773585
 40
0.089622641509434
 40
0.089622641509434
 40
0.089622641509434
 40
0.089622641509434
 40
0.0943396226415094
 40
0.0943396226415094
 40
0.0943396226415094
 40
0.0943396226415094
 40
0.0990566037735849
 40
0.0990566037735849
 40
0.0990566037735849
 40
0.0990566037735849
 40
0.1037735849056604
 40
0.1037735849056604
 40
0.1037735849056604
 40
0.1037735849056604
 40
0.1084905660377359
 40
0.1084905660377359
 40
0.1084905660377359
 40
0.1084905660377359
 40
0.1132075471698113
 40
0.1132075471698113
 40
0.1132075471698113
 40
0.1132075471698113
 40
0.1179245283018868
 40
0.1179245283018868
 40
0.1179245283018868
 40
0.1179245283018868
 40
0.1226415094339623
 40
0.1226415094339623
 40
0.1226415094339623
 40
0.1226415094339623
 40
0.1273584905660377
 40
0.1273584905660377
 40
0.1273584905660377
 40
0.1273584905660377
 40
0.1320754716981132
 40
0.1320754716981132
 40
0.1320754716981132
 40
0.1320754716981132
 40
0.1367924528301887
 40
0.1367924528301887
 40
0.1367924528301887
 40
0.1367924528301887
 40
0.1415094339622641
 40
0.1415094339622641
 40
0.1415094339622641
 40
0.1415094339622641
 40
0.1462264150943396
 40
0.1462264150943396
 40
0.1462264150943396
 40
0.1462264150943396
 40
0.1509433962264151
 40
0.1509433962264151
 40
0.1509433962264151
 40
0.1509433962264151
 40
0.1556603773584906
 40
0.1556603773584906
 40
0.1556603773584906
 40
0.1556603773584906
 40
0.160377358490566
 40
0.160377358490566
 40
0.160377358490566
 40
0.160377358490566
 40
0.1650943396226415
 40
0.1650943396226415
 40
0.1650943396226415
 40
0.1650943396226415
 40
0.169811320754717
 40
0.169811320754717
 40
0.169811320754717
 40
0.169811320754717
 40
0.1745283018867924
 40
0.1745283018867924
 40
0.1745283018867924
 40
0.1745283018867924
 40
0.1792452830188679
 40
0.1792452830188679
 40
0.1792452830188679
 40
0.1792452830188679
 40
0.1839622641509434
 40
0.1839622641509434
 40
0.1839622641509434
 40
0.1839622641509434
 40
0.1886792452830189
 40
0.1886792452830189
 40
0.1886792452830189
 40
0.1886792452830189
 40
0.1933962264150944
 40
0.1933962264150944
 40
0.1933962264150944
 40
0.1933962264150944
 40
0.1981132075471698
 40
0.1981132075471698
 40
0.1981132075471698
 40
0.1981132075471698
 40
0.2028301886792453
 40
0.2028301886792453
 40
0.2028301886792453
 40
0.2028301886792453
 40
0.2075471698113208
 40
0.2075471698113208
 40
0.2075471698113208
 40
0.2075471698113208
 40
0.2122641509433962
 40
0.2122641509433962
 40
0.2122641509433962
 40
0.2122641509433962
 40
0.2169811320754717
 40
0.2169811320754717
 40
0.2169811320754717
 40
0.2169811320754717
 40
0.2216981132075472
 40
0.2216981132075472
 40
0.2216981132075472
 40
0.2216981132075472
 40
0.2264150943396226
 40
0.2264150943396226
 40
0.2264150943396226
 40
0.2264150943396226
 40
0.2311320754716981
 40
0.2311320754716981
 40
0.2311320754716981
 40
0.2311320754716981
 40
0.2358490566037736
 40
0.2358490566037736
 40
0.2358490566037736
 40
0.2358490566037736
 40
0.2405660377358491
 40
0.2405660377358491
 40
0.2405660377358491
 40
0.2405660377358491
 40
0.2452830188679245
 40
0.2452830188679245
 40
0.2452830188679245
 40
0.2452830188679245
 40
0.25
 40
0.25
 40
0.25
 40
0.25
 40
0.2547169811320755
 40
0.2547169811320755
 40
0.2547169811320755
 40
0.2547169811320755
 40
0.2594339622641509
 40
0.2594339622641509
 40
0.2594339622641509
 40
0.2594339622641509
 40
0.2641509433962264
 40
0.2641509433962264
 40
0.2641509433962264
 40
0.2641509433962264
 40
0.2688679245283019
 40
0.2688679245283019
 40
0.2688679245283019
 40
0.2688679245283019
 40
0.2735849056603774
 40
0.2735849056603774
 40
0.2735849056603774
 40
0.2735849056603774
 40
0.2783018867924528
 40
0.2783018867924528
 40
0.2783018867924528
 40
0.2783018867924528
 40
0.2830188679245283
 40
0.2830188679245283
 40
0.2830188679245283
 40
0.2830188679245283
 40
0.2877358490566038
 40
0.2877358490566038
 40
0.2877358490566038
 40
0.2877358490566038
 40
0.2924528301886792
 40
0.2924528301886792
 40
0.2924528301886792
 40
0.2924528301886792
 40
0.2971698113207547
 40
0.2971698113207547
 40
0.2971698113207547
 40
0.2971698113207547
 40
0.3018867924528302
 40
0.3018867924528302
 40
0.3018867924528302
 40
0.3018867924528302
 40
0.3066037735849056
 40
0.3066037735849056
 40
0.3066037735849056
 40
0.3066037735849056
 40
0.3113207547169811
 40
0.3113207547169811
 40
0.3113207547169811
 40
0.3113207547169811
 40
0.3160377358490566
 40
0.3160377358490566
 40
0.3160377358490566
 40
0.3160377358490566
 40
0.3207547169811321
 40
0.3207547169811321
 40
0.3207547169811321
 40
0.3207547169811321
 40
0.3254716981132075
 40
0.3254716981132075
 40
0.3254716981132075
 40
0.3254716981132075
 40
0.330188679245283
 40
0.330188679245283
 40
0.330188679245283
 40
0.330188679245283
 40
0.3349056603773585
 40
0.3349056603773585
 40
0.3349056603773585
 40
0.3349056603773585
 40
0.3396226415094339
 40
0.3396226415094339
 40
0.3396226415094339
 40
0.3396226415094339
 40
0.3443396226415094
 40
0.3443396226415094
 40
0.3443396226415094
 40
0.3443396226415094
 40
0.3490566037735849
 40
0.3490566037735849
 40
0.3490566037735849
 40
0.3490566037735849
 40
0.3537735849056604
 40
0.3537735849056604
 40
0.3537735849056604
 40
0.3537735849056604
 40
0.3584905660377358
 40
0.3584905660377358
 40
0.3584905660377358
 40
0.3584905660377358
 40
0.3632075471698113
 40
0.3632075471698113
 40
0.3632075471698113
 40
0.3632075471698113
 40
0.3679245283018868
 40
0.3679245283018868
 40
0.3679245283018868
 40
0.3679245283018868
 40
0.3726415094339622
 40
0.3726415094339622
 40
0.3726415094339622
 40
0.3726415094339622
 40
0.3773584905660378
 40
0.3773584905660378
 40
0.3773584905660378
 40
0.3773584905660378
 40
0.3820754716981132
 40
0.3820754716981132
 40
0.3820754716981132
 40
0.3820754716981132
 40
0.3867924528301887
 40
0.3867924528301887
 40
0.3867924528301887
 40
0.3867924528301887
 40
0.3915094339622642
 40
0.3915094339622642
 40
0.3915094339622642
 40
0.3915094339622642
 40
0.3962264150943396
 40
0.3962264150943396
 40
0.3962264150943396
 40
0.3962264150943396
 40
0.4009433962264151
 40
0.4009433962264151
 40
0.4009433962264151
 40
0.4009433962264151
 40
0.4056603773584906
 40
0.4056603773584906
 40
0.4056603773584906
 40
0.4056603773584906
 40
0.4103773584905661
 40
0.4103773584905661
 40
0.4103773584905661
 40
0.4103773584905661
 40
0.4150943396226415
 40
0.4150943396226415
 40
0.4150943396226415
 40
0.4150943396226415
 40
0.419811320754717
 40
0.419811320754717
 40
0.419811320754717
 40
0.419811320754717
 40
0.4245283018867925
 40
0.4245283018867925
 40
0.4245283018867925
 40
0.4245283018867925
 40
0.4292452830188679
 40
0.4292452830188679
 40
0.4292452830188679
 40
0.4292452830188679
 40
0.4339622641509434
 40
0.4339622641509434
 40
0.4339622641509434
 40
0.4339622641509434
 40
0.4386792452830189
 40
0.4386792452830189
 40
0.4386792452830189
 40
0.4386792452830189
 40
0.4433962264150944
 40
0.4433962264150944
 40
0.4433962264150944
 40
0.4433962264150944
 40
0.4481132075471698
 40
0.4481132075471698
 40
0.4481132075471698
 40
0.4481132075471698
 40
0.4528301886792453
 40
0.4528301886792453
 40
0.4528301886792453
 40
0.4528301886792453
 40
0.4575471698113208
 40
0.4575471698113208
 40
0.4575471698113208
 40
0.4575471698113208
 40
0.4622641509433962
 40
0.4622641509433962
 40
0.4622641509433962
 40
0.4622641509433962
 40
0.4669811320754717
 40
0.4669811320754717
 40
0.4669811320754717
 40
0.4669811320754717
 40
0.4716981132075472
 40
0.4716981132075472
 40
0.4716981132075472
 40
0.4716981132075472
 40
0.4764150943396226
 40
0.4764150943396226
 40
0.4764150943396226
 40
0.4764150943396226
 40
0.4811320754716981
 40
0.4811320754716981
 40
0.4811320754716981
 40
0.4811320754716981
 40
0.4858490566037736
 40
0.4858490566037736
 40
0.4858490566037736
 40
0.4858490566037736
 40
0.4905660377358491
 40
0.4905660377358491
 40
0.4905660377358491
 40
0.4905660377358491
 40
0.4952830188679245
 40
0.4952830188679245
 40
0.4952830188679245
 40
0.4952830188679245
 40
0.5
 40
0.5
 40
0.5
 40
0.5
 40
0.5047169811320755
 40
0.5047169811320755
 40
0.5047169811320755
 40
0.5047169811320755
 40
0.5094339622641509
 40
0.5094339622641509
 40
0.5094339622641509
 40
0.5094339622641509
 40
0.5141509433962265
 40
0.5141509433962265
 40
0.5141509433962265
 40
0.5141509433962265
 40
0.5188679245283019
 40
0.5188679245283019
 40
0.5188679245283019
 40
0.5188679245283019
 40
0.5235849056603774
 40
0.5235849056603774
 40
0.5235849056603774
 40
0.5235849056603774
 40
0.5283018867924528
 40
0.5283018867924528
 40
0.5283018867924528
 40
0.5283018867924528
 40
0.5330188679245284
 40
0.5330188679245284
 40
0.5330188679245284
 40
0.5330188679245284
 40
0.5377358490566038
 40
0.5377358490566038
 40
0.5377358490566038
 40
0.5377358490566038
 40
0.5424528301886793
 40
0.5424528301886793
 40
0.5424528301886793
 40
0.5424528301886793
 40
0.5471698113207547
 40
0.5471698113207547
 40
0.5471698113207547
 40
0.5471698113207547
 40
0.5518867924528302
 40
0.5518867924528302
 40
0.5518867924528302
 40
0.5518867924528302
 40
0.5566037735849056
 40
0.5566037735849056
 40
0.5566037735849056
 40
0.5566037735849056
 40
0.5613207547169812
 40
0.5613207547169812
 40
0.5613207547169812
 40
0.5613207547169812
 40
0.5660377358490566
 40
0.5660377358490566
 40
0.5660377358490566
 40
0.5660377358490566
 40
0.5707547169811321
 40
0.5707547169811321
 40
0.5707547169811321
 40
0.5707547169811321
 40
0.5754716981132075
 40
0.5754716981132075
 40
0.5754716981132075
 40
0.5754716981132075
 40
0.5801886792452831
 40
0.5801886792452831
 40
0.5801886792452831
 40
0.5801886792452831
 40
0.5849056603773585
 40
0.5849056603773585
 40
0.5849056603773585
 40
0.5849056603773585
 40
0.589622641509434
 40
0.589622641509434
 40
0.589622641509434
 40
0.589622641509434
 40
0.5943396226415094
 40
0.5943396226415094
 40
0.5943396226415094
 40
0.5943396226415094
 40
0.5990566037735849
 40
0.5990566037735849
 40
0.5990566037735849
 40
0.5990566037735849
 40
0.6037735849056604
 40
0.6037735849056604
 40
0.6037735849056604
 40
0.6037735849056604
 40
0.6084905660377359
 40
0.6084905660377359
 40
0.6084905660377359
 40
0.6084905660377359
 40
0.6132075471698113
 40
0.6132075471698113
 40
0.6132075471698113
 40
0.6132075471698113
 40
0.6179245283018868
 40
0.6179245283018868
 40
0.6179245283018868
 40
0.6179245283018868
 40
0.6226415094339622
 40
0.6226415094339622
 40
0.6226415094339622
 40
0.6226415094339622
 40
0.6273584905660378
 40
0.6273584905660378
 40
0.6273584905660378
 40
0.6273584905660378
 40
0.6320754716981132
 40
0.6320754716981132
 40
0.6320754716981132
 40
0.6320754716981132
 40
0.6367924528301887
 40
0.6367924528301887
 40
0.6367924528301887
 40
0.6367924528301887
 40
0.6415094339622641
 40
0.6415094339622641
 40
0.6415094339622641
 40
0.6415094339622641
 40
0.6462264150943396
 40
0.6462264150943396
 40
0.6462264150943396
 40
0.6462264150943396
 40
0.6509433962264151
 40
0.6509433962264151
 40
0.6509433962264151
 40
0.6509433962264151
 40
0.6556603773584906
 40
0.6556603773584906
 40
0.6556603773584906
 40
0.6556603773584906
 40
0.660377358490566
 40
0.660377358490566
 40
0.660377358490566
 40
0.660377358490566
 40
0.6650943396226415
 40
0.6650943396226415
 40
0.6650943396226415
 40
0.6650943396226415
 40
0.6698113207547169
 40
0.6698113207547169
 40
0.6698113207547169
 40
0.6698113207547169
 40
0.6745283018867925
 40
0.6745283018867925
 40
0.6745283018867925
 40
0.6745283018867925
 40
0.6792452830188679
 40
0.6792452830188679
 40
0.6792452830188679
 40
0.6792452830188679
 40
0.6839622641509434
 40
0.6839622641509434
 40
0.6839622641509434
 40
0.6839622641509434
 40
0.6886792452830188
 40
0.6886792452830188
 40
0.6886792452830188
 40
0.6886792452830188
 40
0.6933962264150944
 40
0.6933962264150944
 40
0.6933962264150944
 40
0.6933962264150944
 40
0.6981132075471698
 40
0.6981132075471698
 40
0.6981132075471698
 40
0.6981132075471698
 40
0.7028301886792453
 40
0.7028301886792453
 40
0.7028301886792453
 40
0.7028301886792453
 40
0.7075471698113207
 40
0.7075471698113207
 40
0.7075471698113207
 40
0.7075471698113207
 40
0.7122641509433962
 40
0.7122641509433962
 40
0.7122641509433962
 40
0.7122641509433962
 40
0.7169811320754716
 40
0.7169811320754716
 40
0.7169811320754716
 40
0.7169811320754716
 40
0.7216981132075472
 40
0.7216981132075472
 40
0.7216981132075472
 40
0.7216981132075472
 40
0.7264150943396226
 40
0.7264150943396226
 40
0.7264150943396226
 40
0.7264150943396226
 40
0.7311320754716981
 40
0.7311320754716981
 40
0.7311320754716981
 40
0.7311320754716981
 40
0.7358490566037735
 40
0.7358490566037735
 40
0.7358490566037735
 40
0.7358490566037735
 40
0.7405660377358491
 40
0.7405660377358491
 40
0.7405660377358491
 40
0.7405660377358491
 40
0.7452830188679245
 40
0.7452830188679245
 40
0.7452830188679245
 40
0.7452830188679245
 40
0.75
 40
0.75
 40
0.75
 40
0.75
 40
0.7547169811320755
 40
0.7547169811320755
 40
0.7547169811320755
 40
0.7547169811320755
 40
0.7594339622641509
 40
0.7594339622641509
 40
0.7594339622641509
 40
0.7594339622641509
 40
0.7641509433962265
 40
0.7641509433962265
 40
0.7641509433962265
 40
0.7641509433962265
 40
0.7688679245283019
 40
0.7688679245283019
 40
0.7688679245283019
 40
0.7688679245283019
 40
0.7735849056603774
 40
0.7735849056603774
 40
0.7735849056603774
 40
0.7735849056603774
 40
0.7783018867924528
 40
0.7783018867924528
 40
0.7783018867924528
 40
0.7783018867924528
 40
0.7830188679245284
 40
0.7830188679245284
 40
0.7830188679245284
 40
0.7830188679245284
 40
0.7877358490566038
 40
0.7877358490566038
 40
0.7877358490566038
 40
0.7877358490566038
 40
0.7924528301886793
 40
0.7924528301886793
 40
0.7924528301886793
 40
0.7924528301886793
 40
0.7971698113207547
 40
0.7971698113207547
 40
0.7971698113207547
 40
0.7971698113207547
 40
0.8018867924528302
 40
0.8018867924528302
 40
0.8018867924528302
 40
0.8018867924528302
 40
0.8066037735849056
 40
0.8066037735849056
 40
0.8066037735849056
 40
0.8066037735849056
 40
0.8113207547169812
 40
0.8113207547169812
 40
0.8113207547169812
 40
0.8113207547169812
 40
0.8160377358490566
 40
0.8160377358490566
 40
0.8160377358490566
 40
0.8160377358490566
 40
0.8207547169811321
 40
0.8207547169811321
 40
0.8207547169811321
 40
0.8207547169811321
 40
0.8254716981132075
 40
0.8254716981132075
 40
0.8254716981132075
 40
0.8254716981132075
 40
0.8301886792452831
 40
0.8301886792452831
 40
0.8301886792452831
 40
0.8301886792452831
 40
0.8349056603773585
 40
0.8349056603773585
 40
0.8349056603773585
 40
0.8349056603773585
 40
0.839622641509434
 40
0.839622641509434
 40
0.839622641509434
 40
0.839622641509434
 40
0.8443396226415094
 40
0.8443396226415094
 40
0.8443396226415094
 40
0.8443396226415094
 40
0.8490566037735849
 40
0.8490566037735849
 40
0.8490566037735849
 40
0.8490566037735849
 40
0.8537735849056604
 40
0.8537735849056604
 40
0.8537735849056604
 40
0.8537735849056604
 40
0.8584905660377359
 40
0.8584905660377359
 40
0.8584905660377359
 40
0.8584905660377359
 40
0.8632075471698113
 40
0.8632075471698113
 40
0.8632075471698113
 40
0.8632075471698113
 40
0.8679245283018868
 40
0.8679245283018868
 40
0.8679245283018868
 40
0.8679245283018868
 40
0.8726415094339622
 40
0.8726415094339622
 40
0.8726415094339622
 40
0.8726415094339622
 40
0.8773584905660378
 40
0.8773584905660378
 40
0.8773584905660378
 40
0.8773584905660378
 40
0.8820754716981132
 40
0.8820754716981132
 40
0.8820754716981132
 40
0.8820754716981132
 40
0.8867924528301887
 40
0.8867924528301887
 40
0.8867924528301887
 40
0.8867924528301887
 40
0.8915094339622641
 40
0.8915094339622641
 40
0.8915094339622641
 40
0.8915094339622641
 40
0.8962264150943396
 40
0.8962264150943396
 40
0.8962264150943396
 40
0.8962264150943396
 40
0.9009433962264151
 40
0.9009433962264151
 40
0.9009433962264151
 40
0.9009433962264151
 40
0.9056603773584906
 40
0.9056603773584906
 40
0.9056603773584906
 40
0.9056603773584906
 40
0.910377358490566
 40
0.910377358490566
 40
0.910377358490566
 40
0.910377358490566
 40
0.9150943396226415
 40
0.9150943396226415
 40
0.9150943396226415
 40
0.9150943396226415
 40
0.9198113207547169
 40
0.9198113207547169
 40
0.9198113207547169
 40
0.9198113207547169
 40
0.9245283018867925
 40
0.9245283018867925
 40
0.9245283018867925
 40
0.9245283018867925
 40
0.9292452830188679
 40
0.9292452830188679
 40
0.9292452830188679
 40
0.9292452830188679
 40
0.9339622641509434
 40
0.9339622641509434
 40
0.9339622641509434
 40
0.9339622641509434
 40
0.9386792452830188
 40
0.9386792452830188
 40
0.9386792452830188
 40
0.9386792452830188
 40
0.9433962264150944
 40
0.9433962264150944
 40
0.9433962264150944
 40
0.9433962264150944
 40
0.9481132075471698
 40
0.9481132075471698
 40
0.9481132075471698
 40
0.9481132075471698
 40
0.9528301886792453
 40
0.9528301886792453
 40
0.9528301886792453
 40
0.9528301886792453
 40
0.9575471698113207
 40
0.9575471698113207
 40
0.9575471698113207
 40
0.9575471698113207
 40
0.9622641509433962
 40
0.9622641509433962
 40
0.9622641509433962
 40
0.9622641509433962
 40
0.9669811320754716
 40
0.9669811320754716
 40
0.9669811320754716
 40
0.9669811320754716
 40
0.9716981132075472
 40
0.9716981132075472
 40
0.9716981132075472
 40
0.9716981132075472
 40
0.9764150943396226
 40
0.9764150943396226
 40
0.9764150943396226
 40
0.9764150943396226
 40
0.9811320754716981
 40
0.9811320754716981
 40
0.9811320754716981
 40
0.9811320754716981
 40
0.9858490566037735
 40
0.9858490566037735
 40
0.9858490566037735
 40
0.9858490566037735
 40
0.9905660377358491
 40
0.9905660377358491
 40
0.9905660377358491
 40
0.9905660377358491
 40
1.0
 40
1.0
 40
1.0
 40
1.0
 10
-3.71525
 20
8.2259
 30
0.0
 10
-3.74097
 20
8.31604
 30
0.0
 10
-3.8246
 20
8.50213
 30
0.0
 10
-3.84098
 20
8.59206
 30
0.0
 10
-3.84098
 20
8.59206
 30
0.0
 10
-3.87961
 20
8.80238
 30
0.0
 10
-3.9353
 20
8.80674
 30
0.0
 10
-3.9353
 20
8.80674
 30
0.0
 10
-3.9353
 20
8.80674
 30
0.0
 10
-3.9353
 20
8.80674
 30
0.0
 10
-3.9353
 20
8.90966
 30
0.0
 10
-4.03396
 20
8.94835
 30
0.0
 10
-4.03396
 20
8.94835
 30
0.0
 10
-4.13262
 20
8.98693
 30
0.0
 10
-4.07976
 20
8.71792
 30
0.0
 10
-4.07976
 20
8.71792
 30
0.0
 10
-4.07976
 20
8.71792
 30
0.0
 10
-4.07976
 20
8.71792
 30
0.0
 10
-4.05965
 20
8.59634
 30
0.0
 10
-4.05965
 20
8.50628
 30
0.0
 10
-4.05965
 20
8.50628
 30
0.0
 10
-4.05965
 20
8.41611
 30
0.0
 10
-4.03232
 20
8.20283
 30
0.0
 10
-4.03232
 20
8.20283
 30
0.0
 10
-4.03232
 20
8.20283
 30
0.0
 10
-4.03232
 20
8.20283
 30
0.0
 10
-4.11995
 20
8.29371
 30
0.0
 10
-4.17144
 20
8.35034
 30
0.0
 10
-4.17144
 20
8.35034
 30
0.0
 10
-4.19774
 20
8.37934
 30
0.0
 10
-4.21618
 20
8.4086
 30
0.0
 10
-4.24245
 20
8.43924
 30
0.0
 10
-4.24245
 20
8.43924
 30
0.0
 10
-4.31971
 20
8.52933
 30
0.0
 10
-4.39474
 20
8.59849
 30
0.0
 10
-4.44565
 20
8.59206
 30
0.0
 10
-4.44565
 20
8.59206
 30
0.0
 10
-4.51243
 20
8.58359
 30
0.0
 10
-4.50439
 20
8.53197
 30
0.0
 10
-4.41864
 20
8.42035
 30
0.0
 10
-4.41864
 20
8.42035
 30
0.0
 10
-4.33286
 20
8.3088
 30
0.0
 10
-4.20978
 20
8.11137
 30
0.0
 10
-4.12831
 20
7.99979
 30
0.0
 10
-4.12831
 20
7.99979
 30
0.0
 10
-4.04684
 20
7.88814
 30
0.0
 10
-3.91812
 20
7.74217
 30
0.0
 10
-3.91812
 20
7.74217
 30
0.0
 10
-3.91812
 20
7.74217
 30
0.0
 10
-3.91812
 20
7.74217
 30
0.0
 10
-3.9508
 20
7.60784
 30
0.0
 10
-3.86078
 20
7.49198
 30
0.0
 10
-3.86078
 20
7.49198
 30
0.0
 10
-3.77064
 20
7.37615
 30
0.0
 10
-3.69081
 20
7.26147
 30
0.0
 10
-3.60503
 20
7.08979
 30
0.0
 10
-3.60503
 20
7.08979
 30
0.0
 10
-3.56317
 20
7.00589
 30
0.0
 10
-3.49086
 20
6.87259
 30
0.0
 10
-3.4353
 20
6.75451
 30
0.0
 10
-3.4353
 20
6.75451
 30
0.0
 10
-3.37712
 20
6.63082
 30
0.0
 10
-3.33587
 20
6.52271
 30
0.0
 10
-3.2919
 20
6.45453
 30
0.0
 10
-3.2919
 20
6.45453
 30
0.0
 10
-3.20612
 20
6.32147
 30
0.0
 10
-3.07185
 20
6.18418
 30
0.0
 10
-2.99467
 20
6.07686
 30
0.0
 10
-2.99467
 20
6.07686
 30
0.0
 10
-2.91746
 20
5.96957
 30
0.0
 10
-2.49842
 20
5.30004
 30
0.0
 10
-2.39983
 20
5.13261
 30
0.0
 10
-2.39983
 20
5.13261
 30
0.0
 10
-2.36115
 20
5.06686
 30
0.0
 10
-2.27995
 20
4.93415
 30
0.0
 10
-2.1784
 20
4.775
 30
0.0
 10
-2.1784
 20
4.775
 30
0.0
 10
-2.02079
 20
4.52825
 30
0.0
 10
-1.81089
 20
4.21572
 30
0.0
 10
-1.70659
 20
4.06944
 30
0.0
 10
-1.70659
 20
4.06944
 30
0.0
 10
-1.53503
 20
3.82915
 30
0.0
 10
-1.46775
 20
3.74464
 30
0.0
 10
-1.37769
 20
3.61155
 30
0.0
 10
-1.37769
 20
3.61155
 30
0.0
 10
-1.2876
 20
3.47852
 30
0.0
 10
-1.1946
 20
3.4029
 30
0.0
 10
-1.09594
 20
3.33847
 30
0.0
 10
-1.09594
 20
3.33847
 30
0.0
 10
-1.0576
 20
3.31355
 30
0.0
 10
-0.89491
 20
3.15358
 30
0.0
 10
-0.74426
 20
3.00896
 30
0.0
 10
-0.74426
 20
3.00896
 30
0.0
 10
-0.50592
 20
2.78052
 30
0.0
 10
-0.21642
 20
2.51763
 30
0.0
 10
-0.10093
 20
2.40711
 30
0.0
 10
-0.10093
 20
2.40711
 30
0.0
 10
-0.00819
 20
2.3185
 30
0.0
 10
0.10095
 20
2.19489
 30
0.0
 10
0.27414
 20
2.04034
 30
0.0
 10
0.27414
 20
2.04034
 30
0.0
 10
0.45347
 20
1.88043
 30
0.0
 10
0.67136
 20
1.69834
 30
0.0
 10
0.77833
 20
1.60873
 30
0.0
 10
0.77833
 20
1.60873
 30
0.0
 10
0.98846
 20
1.43273
 30
0.0
 10
1.25273
 20
1.25382
 30
0.0
 10
1.4115
 20
1.06498
 30
0.0
 10
1.4115
 20
1.06498
 30
0.0
 10
1.57017
 20
0.87615
 30
0.0
 10
1.64904
 20
0.66451
 30
0.0
 10
1.67899
 20
0.52282
 30
0.0
 10
1.67899
 20
0.52282
 30
0.0
 10
1.70905
 20
0.38116
 30
0.0
 10
1.71468
 20
0.11645
 30
0.0
 10
1.71468
 20
0.11645
 30
0.0
 10
1.71468
 20
0.11645
 30
0.0
 10
1.71468
 20
0.11645
 30
0.0
 10
1.67121
 20
0.04824
 30
0.0
 10
1.60416
 20
-0.09416
 30
0.0
 10
1.60416
 20
-0.09416
 30
0.0
 10
1.54791
 20
-0.21325
 30
0.0
 10
1.48444
 20
-0.36245
 30
0.0
 10
1.42141
 20
-0.54289
 30
0.0
 10
1.42141
 20
-0.54289
 30
0.0
 10
1.38461
 20
-0.64849
 30
0.0
 10
1.34071
 20
-0.77366
 30
0.0
 10
1.31873
 20
-0.88502
 30
0.0
 10
1.31873
 20
-0.88502
 30
0.0
 10
1.22004
 20
-1.38286
 30
0.0
 10
1.2887
 20
-1.6104
 30
0.0
 10
1.2973
 20
-1.77352
 30
0.0
 10
1.2973
 20
-1.77352
 30
0.0
 10
1.30585
 20
-1.93661
 30
0.0
 10
1.31445
 20
-2.29708
 30
0.0
 10
1.30156
 20
-2.5546
 30
0.0
 10
1.30156
 20
-2.5546
 30
0.0
 10
1.2887
 20
-2.81215
 30
0.0
 10
1.30156
 20
-2.93237
 30
0.0
 10
1.30585
 20
-3.23707
 30
0.0
 10
1.30585
 20
-3.23707
 30
0.0
 10
1.31011
 20
-3.54184
 30
0.0
 10
1.29302
 20
-3.81648
 30
0.0
 10
1.25867
 20
-4.06119
 30
0.0
 10
1.25867
 20
-4.06119
 30
0.0
 10
1.22435
 20
-4.30585
 30
0.0
 10
1.11286
 20
-4.60628
 30
0.0
 10
1.11286
 20
-4.60628
 30
0.0
 10
1.11286
 20
-4.60628
 30
0.0
 10
1.11286
 20
-4.60628
 30
0.0
 10
0.2722
 20
-4.13413
 30
0.0
 10
-0.414
 20
-3.82081
 30
0.0
 10
-0.414
 20
-3.82081
 30
0.0
 10
-1.10028
 20
-3.50749
 30
0.0
 10
-1.49911
 20
-3.33152
 30
0.0
 10
-1.898
 20
-3.2886
 30
0.0
 10
-1.898
 20
-3.2886
 30
0.0
 10
-2.0663
 20
-3.27058
 30
0.0
 10
-2.19285
 20
-3.28508
 30
0.0
 10
-2.34004
 20
-3.37118
 30
0.0
 10
-2.34004
 20
-3.37118
 30
0.0
 10
-2.54163
 20
-3.48929
 30
0.0
 10
-2.75954
 20
-3.71591
 30
0.0
 10
-2.97025
 20
-3.93678
 30
0.0
 10
-2.97025
 20
-3.93678
 30
0.0
 10
-3.33479
 20
-4.31865
 30
0.0
 10
-3.96958
 20
-4.93257
 30
0.0
 10
-4.30415
 20
-5.21578
 30
0.0
 10
-4.30415
 20
-5.21578
 30
0.0
 10
-4.63872
 20
-5.49904
 30
0.0
 10
-5.85249
 20
-6.28888
 30
0.0
 10
-6.127
 20
-6.4562
 30
0.0
 10
-6.127
 20
-6.4562
 30
0.0
 10
-6.40148
 20
-6.62365
 30
0.0
 10
-6.55584
 20
-6.6752
 30
0.0
 10
-6.55584
 20
-6.6752
 30
0.0
 10
-6.55584
 20
-6.6752
 30
0.0
 10
-6.55584
 20
-6.6752
 30
0.0
 10
-6.57732
 20
-6.66229
 30
0.0
 10
-6.69737
 20
-6.7137
 30
0.0
 10
-6.69737
 20
-6.7137
 30
0.0
 10
-6.81749
 20
-6.76516
 30
0.0
 10
-6.88612
 20
-6.83824
 30
0.0
 10
-6.88612
 20
-6.83824
 30
0.0
 10
-6.88612
 20
-6.83824
 30
0.0
 10
-6.88612
 20
-6.83824
 30
0.0
 10
-7.06199
 20
-6.87687
 30
0.0
 10
-7.17774
 20
-6.92402
 30
0.0
 10
-7.17774
 20
-6.92402
 30
0.0
 10
-7.29355
 20
-6.97122
 30
0.0
 10
-7.42224
 20
-7.04853
 30
0.0
 10
-7.55088
 20
-7.10867
 30
0.0
 10
-7.55088
 20
-7.10867
 30
0.0
 10
-7.67957
 20
-7.16876
 30
0.0
 10
-8.52455
 20
-7.53362
 30
0.0
 10
-8.6403
 20
-7.56785
 30
0.0
 10
-8.6403
 20
-7.56785
 30
0.0
 10
-8.75611
 20
-7.60222
 30
0.0
 10
-9.27072
 20
-7.79957
 30
0.0
 10
-9.49805
 20
-7.89839
 30
0.0
 10
-9.49805
 20
-7.89839
 30
0.0
 10
-9.72541
 20
-7.99705
 30
0.0
 10
-9.96986
 20
-8.14742
 30
0.0
 10
-10.00843
 20
-8.2374
 30
0.0
 10
-10.00843
 20
-8.2374
 30
0.0
 10
-10.04701
 20
-8.32757
 30
0.0
 10
-10.09852
 20
-8.41343
 30
0.0
 10
-10.05563
 20
-8.49071
 30
0.0
 10
-10.05563
 20
-8.49071
 30
0.0
 10
-10.01271
 20
-8.56792
 30
0.0
 10
-9.87548
 20
-8.70095
 30
0.0
 10
-9.79401
 20
-8.7954
 30
0.0
 10
-9.79401
 20
-8.7954
 30
0.0
 10
-9.71247
 20
-8.88986
 30
0.0
 10
-9.5452
 20
-8.88986
 30
0.0
 10
-9.33932
 20
-8.85983
 30
0.0
 10
-9.33932
 20
-8.85983
 30
0.0
 10
-9.13345
 20
-8.8298
 30
0.0
 10
-8.92332
 20
-8.8126
 30
0.0
 10
-8.76036
 20
-8.74826
 30
0.0
 10
-8.76036
 20
-8.74826
 30
0.0
 10
-8.59738
 20
-8.68386
 30
0.0
 10
-8.12134
 20
-8.56795
 30
0.0
 10
-7.88541
 20
-8.53794
 30
0.0
 10
-7.88541
 20
-8.53794
 30
0.0
 10
-7.64951
 20
-8.50783
 30
0.0
 10
-7.60236
 20
-8.50354
 30
0.0
 10
-7.54658
 20
-8.5164
 30
0.0
 10
-7.54658
 20
-8.5164
 30
0.0
 10
-7.49083
 20
-8.52931
 30
0.0
 10
-7.26776
 20
-8.53794
 30
0.0
 10
-7.10914
 20
-8.4693
 30
0.0
 10
-7.10914
 20
-8.4693
 30
0.0
 10
-6.95042
 20
-8.40053
 30
0.0
 10
-6.92467
 20
-8.33621
 30
0.0
 10
-6.86892
 20
-8.27187
 30
0.0
 10
-6.86892
 20
-8.27187
 30
0.0
 10
-6.83757
 20
-8.23567
 30
0.0
 10
-6.77214
 20
-8.16233
 30
0.0
 10
-6.70567
 20
-8.02956
 30
0.0
 10
-6.70567
 20
-8.02956
 30
0.0
 10
-6.65371
 20
-7.92579
 30
0.0
 10
-6.59439
 20
-7.75249
 30
0.0
 10
-6.59439
 20
-7.75249
 30
0.0
 10
-6.59439
 20
-7.75249
 30
0.0
 10
-6.59439
 20
-7.75249
 30
0.0
 10
-6.58156
 20
-7.71381
 30
0.0
 10
-6.49147
 20
-7.64517
 30
0.0
 10
-6.49147
 20
-7.64517
 30
0.0
 10
-6.40146
 20
-7.57656
 30
0.0
 10
-5.73664
 20
-7.28031
 30
0.0
 10
-5.46213
 20
-7.17299
 30
0.0
 10
-5.46213
 20
-7.17299
 30
0.0
 10
-5.18765
 20
-7.06567
 30
0.0
 10
-4.13686
 20
-6.68367
 30
0.0
 10
-4.13686
 20
-6.68367
 30
0.0
 10
-4.13686
 20
-6.68367
 30
0.0
 10
-4.13686
 20
-6.68367
 30
0.0
 10
-4.22269
 20
-6.95841
 30
0.0
 10
-4.1712
 20
-7.28462
 30
0.0
 10
-4.1712
 20
-7.28462
 30
0.0
 10
-4.11969
 20
-7.61077
 30
0.0
 10
-3.86238
 20
-7.86403
 30
0.0
 10
-3.46781
 20
-7.99283
 30
0.0
 10
-3.46781
 20
-7.99283
 30
0.0
 10
-3.26027
 20
-8.06067
 30
0.0
 10
-3.1011
 20
-8.08297
 30
0.0
 10
-2.91991
 20
-8.10705
 30
0.0
 10
-2.91991
 20
-8.10705
 30
0.0
 10
-2.75666
 20
-8.12877
 30
0.0
 10
-2.57061
 20
-8.15356
 30
0.0
 10
-2.39987
 20
-8.18587
 30
0.0
 10
-2.39987
 20
-8.18587
 30
0.0
 10
-2.03956
 20
-8.25471
 30
0.0
 10
-1.68359
 20
-8.34047
 30
0.0
 10
-1.16032
 20
-8.38336
 30
0.0
 10
-1.16032
 20
-8.38336
 30
0.0
 10
-0.63711
 20
-8.42635
 30
0.0
 10
-0.21682
 20
-8.43064
 30
0.0
 10
0.17358
 20
-8.46927
 30
0.0
 10
0.17358
 20
-8.46927
 30
0.0
 10
0.56384
 20
-8.50782
 30
0.0
 10
1.18148
 20
-8.60654
 30
0.0
 10
1.18148
 20
-8.60654
 30
0.0
 10
1.18148
 20
-8.60654
 30
0.0
 10
1.18148
 20
-8.60654
 30
0.0
 10
1.19857
 20
-8.6366
 30
0.0
 10
1.25866
 20
-8.6366
 30
0.0
 10
1.25866
 20
-8.6366
 30
0.0
 10
1.31872
 20
-8.6366
 30
0.0
 10
1.3959
 20
-8.671
 30
0.0
 10
1.45167
 20
-8.67523
 30
0.0
 10
1.45167
 20
-8.67523
 30
0.0
 10
1.50744
 20
-8.67954
 30
0.0
 10
1.62323
 20
-8.71817
 30
0.0
 10
1.72189
 20
-8.72248
 30
0.0
 10
1.72189
 20
-8.72248
 30
0.0
 10
1.8205
 20
-8.72671
 30
0.0
 10
2.065
 20
-8.72671
 30
0.0
 10
2.13795
 20
-8.73103
 30
0.0
 10
2.13795
 20
-8.73103
 30
0.0
 10
2.21084
 20
-8.73537
 30
0.0
 10
2.32244
 20
-8.72672
 30
0.0
 10
2.42097
 20
-8.76111
 30
0.0
 10
2.42097
 20
-8.76111
 30
0.0
 10
2.51966
 20
-8.7954
 30
0.0
 10
2.72545
 20
-8.81691
 30
0.0
 10
2.92709
 20
-8.81691
 30
0.0
 10
2.92709
 20
-8.81691
 30
0.0
 10
3.12862
 20
-8.81691
 30
0.0
 10
3.29589
 20
-8.81257
 30
0.0
 10
3.39461
 20
-8.81691
 30
0.0
 10
3.39461
 20
-8.81691
 30
0.0
 10
3.49327
 20
-8.82117
 30
0.0
 10
3.579
 20
-8.8598
 30
0.0
 10
3.579
 20
-8.8598
 30
0.0
 10
3.579
 20
-8.8598
 30
0.0
 10
3.579
 20
-8.8598
 30
0.0
 10
3.61326
 20
-8.8942
 30
0.0
 10
3.69478
 20
-8.88986
 30
0.0
 10
3.69478
 20
-8.88986
 30
0.0
 10
3.7763
 20
-8.88552
 30
0.0
 10
3.81921
 20
-8.87266
 30
0.0
 10
3.81921
 20
-8.87266
 30
0.0
 10
3.81921
 20
-8.87266
 30
0.0
 10
3.81921
 20
-8.87266
 30
0.0
 10
4.0208
 20
-8.91134
 30
0.0
 10
4.07226
 20
-8.91134
 30
0.0
 10
4.07226
 20
-8.91134
 30
0.0
 10
4.12372
 20
-8.91134
 30
0.0
 10
4.13655
 20
-8.88128
 30
0.0
 10
4.13655
 20
-8.88128
 30
0.0
 10
4.13655
 20
-8.88128
 30
0.0
 10
4.13655
 20
-8.88128
 30
0.0
 10
4.26093
 20
-8.92843
 30
0.0
 10
4.49681
 20
-8.94573
 30
0.0
 10
4.49681
 20
-8.94573
 30
0.0
 10
4.73277
 20
-8.96282
 30
0.0
 10
4.98147
 20
-8.96713
 30
0.0
 10
5.04587
 20
-8.66662
 30
0.0
 10
5.04587
 20
-8.66662
 30
0.0
 10
5.11014
 20
-8.36621
 30
0.0
 10
5.02436
 20
-8.16878
 30
0.0
 10
4.74559
 20
-8.05726
 30
0.0
 10
4.74559
 20
-8.05726
 30
0.0
 10
4.46682
 20
-7.9455
 30
0.0
 10
4.18801
 20
-7.907
 30
0.0
 10
3.9693
 20
-7.907
 30
0.0
 10
3.9693
 20
-7.907
 30
0.0
 10
3.75054
 20
-7.907
 30
0.0
 10
3.4246
 20
-7.87263
 30
0.0
 10
3.4246
 20
-7.87263
 30
0.0
 10
3.4246
 20
-7.87263
 30
0.0
 10
3.4246
 20
-7.87263
 30
0.0
 10
3.52215
 20
-7.79725
 30
0.0
 10
3.63124
 20
-7.68075
 30
0.0
 10
3.63124
 20
-7.68075
 30
0.0
 10
3.74311
 20
-7.56174
 30
0.0
 10
3.86185
 20
-7.40191
 30
0.0
 10
3.97787
 20
-7.1786
 30
0.0
 10
3.97787
 20
-7.1786
 30
0.0
 10
4.14699
 20
-6.85269
 30
0.0
 10
4.22743
 20
-6.36609
 30
0.0
 10
4.24372
 20
-6.12707
 30
0.0
 10
4.24372
 20
-6.12707
 30
0.0
 10
4.26335
 20
-5.83992
 30
0.0
 10
4.23684
 20
-5.38005
 30
0.0
 10
4.18776
 20
-5.00304
 30
0.0
 10
4.18776
 20
-5.00304
 30
0.0
 10
4.14058
 20
-4.64141
 30
0.0
 10
4.08026
 20
-4.3541
 30
0.0
 10
4.05936
 20
-4.20715
 30
0.0
 10
4.05936
 20
-4.20715
 30
0.0
 10
4.01647
 20
-3.90666
 30
0.0
 10
3.97787
 20
-3.66639
 30
0.0
 10
3.96501
 20
-3.52034
 30
0.0
 10
3.96501
 20
-3.52034
 30
0.0
 10
3.95212
 20
-3.37448
 30
0.0
 10
3.96501
 20
-3.31865
 30
0.0
 10
3.99501
 20
-3.25859
 30
0.0
 10
3.99501
 20
-3.25859
 30
0.0
 10
4.02509
 20
-3.19845
 30
0.0
 10
4.06367
 20
-3.10828
 30
0.0
 10
4.07227
 20
-3.08254
 30
0.0
 10
4.07227
 20
-3.08254
 30
0.0
 10
4.08076
 20
-3.05688
 30
0.0
 10
4.07227
 20
-3.03968
 30
0.0
 10
4.0937
 20
-3.00536
 30
0.0
 10
4.0937
 20
-3.00536
 30
0.0
 10
4.11516
 20
-2.97102
 30
0.0
 10
4.14516
 20
-2.90664
 30
0.0
 10
4.15373
 20
-2.88516
 30
0.0
 10
4.15373
 20
-2.88516
 30
0.0
 10
4.1623
 20
-2.8637
 30
0.0
 10
4.27377
 20
-2.7349
 30
0.0
 10
4.31243
 20
-2.6749
 30
0.0
 10
4.31243
 20
-2.6749
 30
0.0
 10
4.33497
 20
-2.63976
 30
0.0
 10
4.39583
 20
-2.58955
 30
0.0
 10
4.45298
 20
-2.49676
 30
0.0
 10
4.45298
 20
-2.49676
 30
0.0
 10
4.49338
 20
-2.43075
 30
0.0
 10
4.53413
 20
-2.31319
 30
0.0
 10
4.54834
 20
-2.29711
 30
0.0
 10
4.54834
 20
-2.29711
 30
0.0
 10
4.58271
 20
-2.25848
 30
0.0
 10
4.66849
 20
-2.18125
 30
0.0
 10
4.73709
 20
-2.1427
 30
0.0
 10
4.73709
 20
-2.1427
 30
0.0
 10
4.78241
 20
-2.11717
 30
0.0
 10
4.95045
 20
-1.99427
 30
0.0
 10
5.0625
 20
-1.87539
 30
0.0
 10
5.0625
 20
-1.87539
 30
0.0
 10
5.1201
 20
-1.8143
 30
0.0
 10
5.16598
 20
-1.71339
 30
0.0
 10
5.16598
 20
-1.71339
 30
0.0
 10
5.16598
 20
-1.71339
 30
0.0
 10
5.16598
 20
-1.71339
 30
0.0
 10
5.1831
 20
-1.73919
 30
0.0
 10
5.18749
 20
-1.76922
 30
0.0
 10
5.18749
 20
-1.76922
 30
0.0
 10
5.18955
 20
-1.78483
 30
0.0
 10
5.19061
 20
-1.91921
 30
0.0
 10
5.23858
 20
-2.14268
 30
0.0
 10
5.23858
 20
-2.14268
 30
0.0
 10
5.28316
 20
-2.34974
 30
0.0
 10
5.38069
 20
-2.64809
 30
0.0
 10
5.44482
 20
-2.84219
 30
0.0
 10
5.44482
 20
-2.84219
 30
0.0
 10
5.57769
 20
-3.24576
 30
0.0
 10
5.69776
 20
-3.55897
 30
0.0
 10
5.80074
 20
-3.8724
 30
0.0
 10
5.80074
 20
-3.8724
 30
0.0
 10
5.90372
 20
-4.18564
 30
0.0
 10
5.96796
 20
-4.47327
 30
0.0
 10
5.98084
 20
-4.58921
 30
0.0
 10
5.98084
 20
-4.58921
 30
0.0
 10
5.99373
 20
-4.70502
 30
0.0
 10
6.00791
 20
-4.74232
 30
0.0
 10
6.12808
 20
-4.90552
 30
0.0
 10
6.12808
 20
-4.90552
 30
0.0
 10
6.24812
 20
-5.06856
 30
0.0
 10
6.59851
 20
-5.71366
 30
0.0
 10
6.7272
 20
-5.94975
 30
0.0
 10
6.7272
 20
-5.94975
 30
0.0
 10
6.85584
 20
-6.18586
 30
0.0
 10
7.2874
 20
-6.92109
 30
0.0
 10
7.40747
 20
-7.14008
 30
0.0
 10
7.40747
 20
-7.14008
 30
0.0
 10
7.52762
 20
-7.35889
 30
0.0
 10
7.60906
 20
-7.54942
 30
0.0
 10
7.66914
 20
-7.64379
 30
0.0
 10
7.66914
 20
-7.64379
 30
0.0
 10
7.72917
 20
-7.73819
 30
0.0
 10
7.77365
 20
-7.71811
 30
0.0
 10
7.78654
 20
-7.76537
 30
0.0
 10
7.78654
 20
-7.76537
 30
0.0
 10
7.79943
 20
-7.81257
 30
0.0
 10
7.87795
 20
-7.90536
 30
0.0
 10
7.95095
 20
-7.93116
 30
0.0
 10
7.95095
 20
-7.93116
 30
0.0
 10
8.02382
 20
-7.95685
 30
0.0
 10
8.05385
 20
-8.08433
 30
0.0
 10
8.23826
 20
-8.1745
 30
0.0
 10
8.23826
 20
-8.1745
 30
0.0
 10
8.4227
 20
-8.26459
 30
0.0
 10
8.61005
 20
-8.29327
 30
0.0
 10
8.77298
 20
-8.31039
 30
0.0
 10
8.77298
 20
-8.31039
 30
0.0
 10
8.93602
 20
-8.32761
 30
0.0
 10
8.96179
 20
-8.37048
 30
0.0
 10
9.19761
 20
-8.40487
 30
0.0
 10
9.19761
 20
-8.40487
 30
0.0
 10
9.34215
 20
-8.42585
 30
0.0
 10
9.42417
 20
-8.4513
 30
0.0
 10
9.44555
 20
-8.3156
 30
0.0
 10
9.44555
 20
-8.3156
 30
0.0
 10
9.45711
 20
-8.23966
 30
0.0
 10
9.28609
 20
-8.19614
 30
0.0
 10
9.28609
 20
-8.19614
 30
0.0
 10
9.28609
 20
-8.19614
 30
0.0
 10
9.28609
 20
-8.19614
 30
0.0
 10
9.42068
 20
-8.19027
 30
0.0
 10
9.53649
 20
-8.17312
 30
0.0
 10
9.53649
 20
-8.17312
 30
0.0
 10
9.6523
 20
-8.15595
 30
0.0
 10
9.76379
 20
-8.14746
 30
0.0
 10
9.8582
 20
-8.13878
 30
0.0
 10
9.8582
 20
-8.13878
 30
0.0
 10
9.95247
 20
-8.13018
 30
0.0
 10
10.0211
 20
-8.12163
 30
0.0
 10
10.04256
 20
-8.06573
 30
0.0
 10
10.04256
 20
-8.06573
 30
0.0
 10
10.06404
 20
-8.01006
 30
0.0
 10
10.05113
 20
-7.99707
 30
0.0
 10
10.05113
 20
-7.99707
 30
0.0
 10
10.05113
 20
-7.99707
 30
0.0
 10
10.05113
 20
-7.99707
 30
0.0
 10
10.11982
 20
-7.90269
 30
0.0
 10
10.00824
 20
-7.88121
 30
0.0
 10
10.00824
 20
-7.88121
 30
0.0
 10
9.89669
 20
-7.85978
 30
0.0
 10
9.77824
 20
-7.88552
 30
0.0
 10
9.77824
 20
-7.88552
 30
0.0
 10
9.77824
 20
-7.88552
 30
0.0
 10
9.77824
 20
-7.88552
 30
0.0
 10
9.72948
 20
-7.8298
 30
0.0
 10
9.6523
 20
-7.82109
 30
0.0
 10
9.6523
 20
-7.82109
 30
0.0
 10
9.57512
 20
-7.81254
 30
0.0
 10
9.38367
 20
-7.83128
 30
0.0
 10
9.30223
 20
-7.82696
 30
0.0
 10
9.30223
 20
-7.82696
 30
0.0
 10
9.22074
 20
-7.82275
 30
0.0
 10
9.20627
 20
-7.79958
 30
0.0
 10
9.12472
 20
-7.77822
 30
0.0
 10
9.12472
 20
-7.77822
 30
0.0
 10
9.04318
 20
-7.75674
 30
0.0
 10
8.97034
 20
-7.75674
 30
0.0
 10
8.89742
 20
-7.74382
 30
0.0
 10
8.89742
 20
-7.74382
 30
0.0
 10
8.82453
 20
-7.73093
 30
0.0
 10
8.77735
 20
-7.76395
 30
0.0
 10
8.77735
 20
-7.76395
 30
0.0
 10
8.77735
 20
-7.76395
 30
0.0
 10
8.77735
 20
-7.76395
 30
0.0
 10
8.59071
 20
-7.68452
 30
0.0
 10
8.42429
 20
-7.59599
 30
0.0
 10
8.42429
 20
-7.59599
 30
0.0
 10
8.32274
 20
-7.54212
 30
0.0
 10
8.22913
 20
-7.4809
 30
0.0
 10
8.16402
 20
-7.39615
 30
0.0
 10
8.16402
 20
-7.39615
 30
0.0
 10
8.06964
 20
-7.27322
 30
0.0
 10
7.95974
 20
-7.02298
 30
0.0
 10
7.85038
 20
-6.74832
 30
0.0
 10
7.85038
 20
-6.74832
 30
0.0
 10
7.85038
 20
-6.74832
 30
0.0
 10
7.61371
 20
-6.15579
 30
0.0
 10
7.61371
 20
-6.15579
 30
0.0
 10
7.61371
 20
-6.15579
 30
0.0
 10
7.57508
 20
-6.05916
 30
0.0
 10
7.50182
 20
-5.86089
 30
0.0
 10
7.43919
 20
-5.65565
 30
0.0
 10
7.43919
 20
-5.65565
 30
0.0
 10
7.3622
 20
-5.404
 30
0.0
 10
7.29415
 20
-5.13474
 30
0.0
 10
7.23758
 20
-4.94101
 30
0.0
 10
7.23758
 20
-4.94101
 30
0.0
 10
7.18392
 20
-4.75805
 30
0.0
 10
7.12643
 20
-4.58771
 30
0.0
 10
7.0333
 20
-4.39729
 30
0.0
 10
7.0333
 20
-4.39729
 30
0.0
 10
6.94752
 20
-4.22132
 30
0.0
 10
6.8261
 20
-4.02148
 30
0.0
 10
6.78292
 20
-3.94099
 30
0.0
 10
6.78292
 20
-3.94099
 30
0.0
 10
6.74186
 20
-3.86505
 30
0.0
 10
6.68989
 20
-3.65201
 30
0.0
 10
6.61962
 20
-3.40849
 30
0.0
 10
6.61962
 20
-3.40849
 30
0.0
 10
6.53527
 20
-3.11578
 30
0.0
 10
6.43314
 20
-2.77995
 30
0.0
 10
6.40973
 20
-2.60178
 30
0.0
 10
6.40973
 20
-2.60178
 30
0.0
 10
6.36692
 20
-2.27571
 30
0.0
 10
6.33549
 20
-2.04817
 30
0.0
 10
6.34409
 20
-1.69193
 30
0.0
 10
6.34409
 20
-1.69193
 30
0.0
 10
6.35266
 20
-1.33564
 30
0.0
 10
6.3755
 20
-0.90646
 30
0.0
 10
6.19968
 20
-0.54591
 30
0.0
 10
6.19968
 20
-0.54591
 30
0.0
 10
6.10792
 20
-0.35819
 30
0.0
 10
5.98227
 20
-0.13837
 30
0.0
 10
5.81312
 20
-0.00373
 30
0.0
 10
5.81312
 20
-0.00373
 30
0.0
 10
5.65739
 20
0.12017
 30
0.0
 10
5.45331
 20
0.15243
 30
0.0
 10
5.45331
 20
0.15243
 30
0.0
 10
5.45331
 20
0.15243
 30
0.0
 10
5.45331
 20
0.15243
 30
0.0
 10
5.40195
 20
0.19667
 30
0.0
 10
5.40195
 20
0.19667
 30
0.0
 10
5.40195
 20
0.19667
 30
0.0
 10
5.40195
 20
0.19667
 30
0.0
 10
5.30194
 20
0.27948
 30
0.0
 10
5.18015
 20
0.38524
 30
0.0
 10
5.18015
 20
0.38524
 30
0.0
 10
5.08958
 20
0.46422
 30
0.0
 10
4.98081
 20
0.55695
 30
0.0
 10
4.92583
 20
0.63019
 30
0.0
 10
4.92583
 20
0.63019
 30
0.0
 10
4.79711
 20
0.80183
 30
0.0
 10
4.78002
 20
0.93488
 30
0.0
 10
4.82714
 20
1.15811
 30
0.0
 10
4.82714
 20
1.15811
 30
0.0
 10
4.87437
 20
1.38126
 30
0.0
 10
4.95583
 20
1.40274
 30
0.0
 10
4.95583
 20
1.40274
 30
0.0
 10
4.95583
 20
1.40274
 30
0.0
 10
4.95583
 20
1.40274
 30
0.0
 10
5.11876
 20
1.37689
 30
0.0
 10
5.11876
 20
1.37689
 30
0.0
 10
5.11876
 20
1.37689
 30
0.0
 10
5.11876
 20
1.37689
 30
0.0
 10
5.14024
 20
1.34268
 30
0.0
 10
5.14024
 20
1.34268
 30
0.0
 10
5.14024
 20
1.34268
 30
0.0
 10
5.14024
 20
1.34268
 30
0.0
 10
5.11876
 20
1.15811
 30
0.0
 10
5.22176
 20
1.06794
 30
0.0
 10
5.22176
 20
1.06794
 30
0.0
 10
5.32468
 20
0.9778
 30
0.0
 10
5.43618
 20
0.95647
 30
0.0
 10
5.43618
 20
0.95647
 30
0.0
 10
5.43618
 20
0.95647
 30
0.0
 10
5.43618
 20
0.95647
 30
0.0
 10
5.51336
 20
0.86627
 30
0.0
 10
5.64208
 20
0.85765
 30
0.0
 10
5.64208
 20
0.85765
 30
0.0
 10
5.7708
 20
0.8491
 30
0.0
 10
5.86089
 20
0.87485
 30
0.0
 10
5.90799
 20
0.92205
 30
0.0
 10
5.90799
 20
0.92205
 30
0.0
 10
5.95522
 20
0.96928
 30
0.0
 10
5.97239
 20
1.02511
 30
0.0
 10
5.97239
 20
1.02511
 30
0.0
 10
5.97239
 20
1.02511
 30
0.0
 10
5.97239
 20
1.02511
 30
0.0
 10
6.04097
 20
1.04223
 30
0.0
 10
6.05819
 20
1.05943
 30
0.0
 10
6.05819
 20
1.05943
 30
0.0
 10
6.07528
 20
1.07663
 30
0.0
 10
6.10529
 20
1.09375
 30
0.0
 10
6.10529
 20
1.09375
 30
0.0
 10
6.10529
 20
1.09375
 30
0.0
 10
6.10529
 20
1.09375
 30
0.0
 10
6.19107
 20
1.04647
 30
0.0
 10
6.25549
 20
1.14098
 30
0.0
 10
6.25549
 20
1.14098
 30
0.0
 10
6.31973
 20
1.23538
 30
0.0
 10
6.32399
 20
1.35566
 30
0.0
 10
6.28549
 20
1.45004
 30
0.0
 10
6.28549
 20
1.45004
 30
0.0
 10
6.24681
 20
1.54444
 30
0.0
 10
6.14822
 20
1.64305
 30
0.0
 10
6.14822
 20
1.64305
 30
0.0
 10
6.14822
 20
1.64305
 30
0.0
 10
6.14822
 20
1.64305
 30
0.0
 10
6.2898
 20
1.7505
 30
0.0
 10
6.44842
 20
1.96939
 30
0.0
 10
6.44842
 20
1.96939
 30
0.0
 10
6.60709
 20
2.18825
 30
0.0
 10
6.94436
 20
2.77626
 30
0.0
 10
6.66985
 20
3.27842
 30
0.0
 10
6.66985
 20
3.27842
 30
0.0
 10
6.58301
 20
3.4373
 30
0.0
 10
6.49374
 20
3.56094
 30
0.0
 10
6.40601
 20
3.66371
 30
0.0
 10
6.40601
 20
3.66371
 30
0.0
 10
6.37579
 20
3.69914
 30
0.0
 10
6.36849
 20
3.74039
 30
0.0
 10
6.33907
 20
3.77126
 30
0.0
 10
6.33907
 20
3.77126
 30
0.0
 10
6.29642
 20
3.81576
 30
0.0
 10
6.23178
 20
3.84741
 30
0.0
 10
6.19138
 20
3.88556
 30
0.0
 10
6.19138
 20
3.88556
 30
0.0
 10
6.08306
 20
3.98716
 30
0.0
 10
6.00024
 20
4.0741
 30
0.0
 10
5.91227
 20
4.13691
 30
0.0
 10
5.91227
 20
4.13691
 30
0.0
 10
5.70219
 20
4.28711
 30
0.0
 10
5.43038
 20
4.34127
 30
0.0
 10
5.07444
 20
4.25121
 30
0.0
 10
5.07444
 20
4.25121
 30
0.0
 10
4.71842
 20
4.16101
 30
0.0
 10
4.64253
 20
4.11947
 30
0.0
 10
4.53562
 20
4.02962
 30
0.0
 10
4.53562
 20
4.02962
 30
0.0
 10
4.45408
 20
3.96096
 30
0.0
 10
4.48839
 20
3.9037
 30
0.0
 10
4.35115
 20
3.9037
 30
0.0
 10
4.35115
 20
3.9037
 30
0.0
 10
4.21388
 20
3.9037
 30
0.0
 10
4.01822
 20
3.90944
 30
0.0
 10
3.90665
 20
3.8879
 30
0.0
 10
3.90665
 20
3.8879
 30
0.0
 10
3.79518
 20
3.86655
 30
0.0
 10
3.80211
 20
3.75063
 30
0.0
 10
3.82791
 20
3.69483
 30
0.0
 10
3.82791
 20
3.69483
 30
0.0
 10
3.85357
 20
3.63895
 30
0.0
 10
3.88789
 20
3.60466
 30
0.0
 10
3.85357
 20
3.58318
 30
0.0
 10
3.85357
 20
3.58318
 30
0.0
 10
3.83484
 20
3.57146
 30
0.0
 10
3.77774
 20
3.55799
 30
0.0
 10
3.74954
 20
3.52873
 30
0.0
 10
3.74954
 20
3.52873
 30
0.0
 10
3.72626
 20
3.50455
 30
0.0
 10
3.74076
 20
3.45711
 30
0.0
 10
3.74076
 20
3.45711
 30
0.0
 10
3.74076
 20
3.45711
 30
0.0
 10
3.74076
 20
3.45711
 30
0.0
 10
3.65795
 20
3.35011
 30
0.0
 10
3.65795
 20
3.35011
 30
0.0
 10
3.65795
 20
3.35011
 30
0.0
 10
3.65795
 20
3.35011
 30
0.0
 10
3.55339
 20
3.36003
 30
0.0
 10
3.52336
 20
3.29137
 30
0.0
 10
3.52336
 20
3.29137
 30
0.0
 10
3.49336
 20
3.2226
 30
0.0
 10
3.48904
 20
3.19263
 30
0.0
 10
3.39472
 20
3.14971
 30
0.0
 10
3.39472
 20
3.14971
 30
0.0
 10
3.30032
 20
3.10677
 30
0.0
 10
3.12424
 20
2.93265
 30
0.0
 10
3.28317
 20
2.82057
 30
0.0
 10
3.28317
 20
2.82057
 30
0.0
 10
3.38903
 20
2.74601
 30
0.0
 10
3.48044
 20
2.61311
 30
0.0
 10
3.54053
 20
2.42862
 30
0.0
 10
3.54053
 20
2.42862
 30
0.0
 10
3.60056
 20
2.24405
 30
0.0
 10
3.6534
 20
1.97232
 30
0.0
 10
3.59331
 20
1.73626
 30
0.0
 10
3.59331
 20
1.73626
 30
0.0
 10
3.53328
 20
1.5002
 30
0.0
 10
3.39043
 20
1.36423
 30
0.0
 10
3.39043
 20
1.36423
 30
0.0
 10
3.39043
 20
1.36423
 30
0.0
 10
3.39043
 20
1.36423
 30
0.0
 10
3.33466
 20
1.33846
 30
0.0
 10
3.21453
 20
1.37698
 30
0.0
 10
3.21453
 20
1.37698
 30
0.0
 10
3.09449
 20
1.41564
 30
0.0
 10
2.99151
 20
1.46718
 30
0.0
 10
2.99151
 20
1.46718
 30
0.0
 10
2.99151
 20
1.46718
 30
0.0
 10
2.99151
 20
1.46718
 30
0.0
 10
2.95291
 20
1.50158
 30
0.0
 10
2.95291
 20
1.50158
 30
0.0
 10
2.95291
 20
1.50158
 30
0.0
 10
2.95291
 20
1.50158
 30
0.0
 10
2.94005
 20
1.57447
 30
0.0
 10
2.83279
 20
1.66033
 30
0.0
 10
2.83279
 20
1.66033
 30
0.0
 10
2.72555
 20
1.74619
 30
0.0
 10
2.46404
 20
1.8879
 30
0.0
 10
2.39538
 20
1.94785
 30
0.0
 10
2.39538
 20
1.94785
 30
0.0
 10
2.32672
 20
2.00804
 30
0.0
 10
2.2466
 20
2.15399
 30
0.0
 10
2.10505
 20
2.26128
 30
0.0
 10
2.10505
 20
2.26128
 30
0.0
 10
2.03909
 20
2.31121
 30
0.0
 10
1.90032
 20
2.3664
 30
0.0
 10
1.7335
 20
2.41873
 30
0.0
 10
1.7335
 20
2.41873
 30
0.0
 10
1.54234
 20
2.47879
 30
0.0
 10
1.33141
 20
2.53621
 30
0.0
 10
1.23304
 20
2.60029
 30
0.0
 10
1.23304
 20
2.60029
 30
0.0
 10
1.20333
 20
2.6196
 30
0.0
 10
1.13491
 20
2.65212
 30
0.0
 10
1.07995
 20
2.68945
 30
0.0
 10
1.07995
 20
2.68945
 30
0.0
 10
0.98295
 20
2.75486
 30
0.0
 10
0.87921
 20
2.84124
 30
0.0
 10
0.75933
 20
2.93813
 30
0.0
 10
0.75933
 20
2.93813
 30
0.0
 10
0.52483
 20
3.12778
 30
0.0
 10
0.29245
 20
3.33942
 30
0.0
 10
0.16373
 20
3.44428
 30
0.0
 10
0.16373
 20
3.44428
 30
0.0
 10
-0.06789
 20
3.63311
 30
0.0
 10
-0.38224
 20
3.80909
 30
0.0
 10
-0.48953
 20
3.92074
 30
0.0
 10
-0.48953
 20
3.92074
 30
0.0
 10
-0.59674
 20
4.03226
 30
0.0
 10
-0.87286
 20
4.47599
 30
0.0
 10
-1.04867
 20
4.68631
 30
0.0
 10
-1.04867
 20
4.68631
 30
0.0
 10
-1.15427
 20
4.81268
 30
0.0
 10
-1.53818
 20
5.19285
 30
0.0
 10
-1.86171
 20
5.53859
 30
0.0
 10
-1.86171
 20
5.53859
 30
0.0
 10
-2.07724
 20
5.76872
 30
0.0
 10
-2.24504
 20
5.96888
 30
0.0
 10
-2.3324
 20
6.07696
 30
0.0
 10
-2.3324
 20
6.07696
 30
0.0
 10
-2.55118
 20
6.34742
 30
0.0
 10
-2.69133
 20
6.49757
 30
0.0
 10
-2.78571
 20
6.66076
 30
0.0
 10
-2.78571
 20
6.66076
 30
0.0
 10
-2.88003
 20
6.8238
 30
0.0
 10
-2.89297
 20
6.90971
 30
0.0
 10
-2.86723
 20
6.97405
 30
0.0
 10
-2.86723
 20
6.97405
 30
0.0
 10
-2.84151
 20
7.03848
 30
0.0
 10
-2.82431
 20
7.10708
 30
0.0
 10
-2.90581
 20
7.27448
 30
0.0
 10
-2.90581
 20
7.27448
 30
0.0
 10
-2.9873
 20
7.44193
 30
0.0
 10
-3.05027
 20
7.52639
 30
0.0
 10
-3.09321
 20
7.56076
 30
0.0
 10
-3.09321
 20
7.56076
 30
0.0
 10
-3.13607
 20
7.595
 30
0.0
 10
-3.19478
 20
7.6409
 30
0.0
 10
-3.22481
 20
7.71821
 30
0.0
 10
-3.22481
 20
7.71821
 30
0.0
 10
-3.25484
 20
7.79542
 30
0.0
 10
-3.30175
 20
7.96792
 30
0.0
 10
-3.39901
 20
8.07146
 30
0.0
 10
-3.39901
 20
8.07146
 30
0.0
 10
-3.53493
 20
8.21611
 30
0.0
 10
-3.60755
 20
8.1675
 30
0.0
 10
-3.62208
 20
8.11303
 30
0.0
 10
-3.62208
 20
8.11303
 30
0.0
 10
-3.63653
 20
8.05858
 30
0.0
 10
-3.60224
 20
7.98129
 30
0.0
 10
-3.56792
 20
7.91266
 30
0.0
 10
-3.56792
 20
7.91266
 30
0.0
 10
-3.5336
 20
7.844
 30
0.0
 10
-3.49638
 20
7.7496
 30
0.0
 10
-3.49638
 20
7.7496
 30
0.0
 10
-3.49638
 20
7.7496
 30
0.0
 10
-3.49638
 20
7.7496
 30
0.0
 10
-3.5221
 20
7.76672
 30
0.0
 10
-3.55345
 20
7.80667
 30
0.0
 10
-3.55345
 20
7.80667
 30
0.0
 10
-3.58483
 20
7.84662
 30
0.0
 10
-3.64243
 20
7.99254
 30
0.0
 10
-3.6623
 20
8.07276
 30
0.0
 10
-3.6623
 20
8.07276
 30
0.0
 10
-3.68223
 20
8.1529
 30
0.0
 10
-3.68951
 20
8.13575
 30
0.0
 10
-3.71525
 20
8.2259
 30
0.0
 10
-3.71525
 20
8.2259
 30
0.0
 10
-3.71525
 20
8.2259
 30
0.0
 10
-3.71525
 20
8.2259
 30
0.0
 10
-3.71525
 20
8.2259
 30
0.0
  0
ENDSEC
  0
SECTION
  2
OBJECTS
  0
DICTIONARY
  5
C
330
0
100
AcDbDictionary
281
     1
  3
ACAD_GROUP
350
D
  3
ACAD_LAYOUT
350
1A
  3
ACAD_MATERIAL
350
3B
  3
ACAD_MLEADERSTYLE
350
64
  3
ACAD_MLINESTYLE
350
17
  3
ACAD_PLOTSETTINGS
350
19
  3
ACAD_PLOTSTYLENAME
350
E
  3
ACAD_TABLESTYLE
350
63
  3
ACAD_VISUALSTYLE
350
2A
  0
DICTIONARY
  5
D
102
{ACAD_REACTORS
330
C
102
}
330
C
100
AcDbDictionary
281
     1
  0
DICTIONARY
  5
1A
102
{ACAD_REACTORS
330
C
102
}
330
C
100
AcDbDictionary
281
     1
  3
Layout1
350
1E
  3
Layout2
350
26
  3
Model
350
22
  0
DICTIONARY
  5
3B
102
{ACAD_REACTORS
330
C
102
}
330
C
100
AcDbDictionary
281
     1
  3
ByBlock
350
3D
  3
ByLayer
350
3C
  3
Global
350
3E
  0
DICTIONARY
  5
64
102
{ACAD_REACTORS
330
C
102
}
330
C
100
AcDbDictionary
281
     1
  0
DICTIONARY
  5
17
102
{ACAD_REACTORS
330
C
102
}
330
C
100
AcDbDictionary
281
     1
  3
Standard
350
18
  0
DICTIONARY
  5
19
102
{ACAD_REACTORS
330
C
102
}
330
C
100
AcDbDictionary
281
     1
  0
ACDBDICTIONARYWDFLT
  5
E
102
{ACAD_REACTORS
330
C
102
}
330
C
100
AcDbDictionary
281
     1
  3
Normal
350
F
100
AcDbDictionaryWithDefault
340
F
  0
DICTIONARY
  5
63
102
{ACAD_REACTORS
330
C
102
}
330
C
100
AcDbDictionary
281
     1
  0
DICTIONARY
  5
2A
102
{ACAD_REACTORS
330
C
102
}
330
C
100
AcDbDictionary
281
     1
  3
2dWireframe
350
2F
  3
3D Hidden
350
31
  3
3dWireframe
350
30
  3
Basic
350
32
  3
Brighten
350
36
  3
ColorChange
350
3A
  3
Conceptual
350
34
  3
Dim
350
35
  3
Facepattern
350
39
  3
Flat
350
2B
  3
FlatWithEdges
350
2C
  3
Gouraud
350
2D
  3
GouraudWithEdges
350
2E
  3
Linepattern
350
38
  3
Realistic
350
33
  3
Thicken
350
37
  0
LAYOUT
  5
1E
102
{ACAD_REACTORS
330
1A
102
}
330
1A
100
AcDbPlotSettings
  1

  2
none_device
  4

  6

 40
0.0
 41
0.0
 42
0.0
 43
0.0
 44
0.0
 45
0.0
 46
0.0
 47
0.0
 48
0.0
 49
0.0
140
0.0
141
0.0
142
1.0
143
1.0
 70
   688
 72
     0
 73
     0
 74
     5
  7

 75
    16
 76
     0
 77
     2
 78
   300
147
1.0
148
0.0
149
0.0
100
AcDbLayout
  1
Layout1
 70
     1
 71
     1
 10
0.0
 20
0.0
 11
12.0
 21
9.0
 12
0.0
 22
0.0
 32
0.0
 14
1.000000000000000E+20
 24
1.000000000000000E+20
 34
1.000000000000000E+20
 15
-1.000000000000000E+20
 25
-1.000000000000000E+20
 35
-1.000000000000000E+20
146
0.0
 13
0.0
 23
0.0
 33
0.0
 16
1.0
 26
0.0
 36
0.0
 17
0.0
 27
1.0
 37
0.0
 76
     0
330
1B
  0
LAYOUT
  5
26
102
{ACAD_REACTORS
330
1A
102
}
330
1A
100
AcDbPlotSettings
  1

  2
none_device
  4

  6

 40
0.0
 41
0.0
 42
0.0
 43
0.0
 44
0.0
 45
0.0
 46
0.0
 47
0.0
 48
0.0
 49
0.0
140
0.0
141
0.0
142
1.0
143
1.0
 70
   688
 72
     0
 73
     0
 74
     5
  7

 75
    16
 76
     0
 77
     2
 78
   300
147
1.0
148
0.0
149
0.0
100
AcDbLayout
  1
Layout2
 70
     1
 71
     2
 10
0.0
 20
0.0
 11
0.0
 21
0.0
 12
0.0
 22
0.0
 32
0.0
 14
0.0
 24
0.0
 34
0.0
 15
0.0
 25
0.0
 35
0.0
146
0.0
 13
0.0
 23
0.0
 33
0.0
 16
1.0
 26
0.0
 36
0.0
 17
0.0
 27
1.0
 37
0.0
 76
     0
330
23
  0
LAYOUT
  5
22
102
{ACAD_REACTORS
330
1A
102
}
330
1A
100
AcDbPlotSettings
  1

  2
none_device
  4

  6

 40
0.0
 41
0.0
 42
0.0
 43
0.0
 44
0.0
 45
0.0
 46
0.0
 47
0.0
 48
0.0
 49
0.0
140
0.0
141
0.0
142
1.0
143
1.0
 70
  1712
 72
     0
 73
     0
 74
     0
  7

 75
     0
 76
     0
 77
     2
 78
   300
147
1.0
148
0.0
149
0.0
100
AcDbLayout
  1
Model
 70
     1
 71
     0
 10
0.0
 20
0.0
 11
12.0
 21
9.0
 12
0.0
 22
0.0
 32
0.0
 14
-10.07184
 24
-8.95212
 34
0.0
 15
10.07205
 25
8.95214
 35
0.0
146
0.0
 13
0.0
 23
0.0
 33
0.0
 16
1.0
 26
0.0
 36
0.0
 17
0.0
 27
1.0
 37
0.0
 76
     0
330
1F
331
29
  0
MATERIAL
  5
3D
102
{ACAD_REACTORS
330
3B
102
}
330
3B
100
AcDbMaterial
  1
ByBlock
 72
     1
 94
      127
  0
MATERIAL
  5
3C
102
{ACAD_REACTORS
330
3B
102
}
330
3B
100
AcDbMaterial
  1
ByLayer
 72
     1
 94
      127
  0
MATERIAL
  5
3E
102
{ACAD_REACTORS
330
3B
102
}
330
3B
100
AcDbMaterial
  1
Global
 72
     1
 94
      127
  0
MLINESTYLE
  5
18
102
{ACAD_REACTORS
330
17
102
}
330
17
100
AcDbMlineStyle
  2
Standard
 70
     0
  3

 62
   256
 51
90.0
 52
90.0
 71
     2
 49
0.5
 62
   256
  6
BYLAYER
 49
-0.5
 62
   256
  6
BYLAYER
  0
ACDBPLACEHOLDER
  5
F
102
{ACAD_REACTORS
330
E
102
}
330
E
  0
VISUALSTYLE
  5
2F
102
{ACAD_REACTORS
330
2A
102
}
102
{ACAD_XDICTIONARY
360
4B
102
}
330
2A
100
AcDbVisualStyle
  2
2dWireframe
 70
     4
 71
     0
 72
     2
 73
     0
 90
        0
 40
-0.6
 41
-30.0
 62
     5
 63
     7
421
 16777215
 74
     1
 91
        4
 64
     7
 65
   257
 75
     1
175
     1
 42
1.0
 92
        0
 66
   257
 43
1.0
 76
     1
 77
     6
 78
     2
 67
     7
 79
     5
170
     0
171
     0
290
     0
174
     0
 93
        1
 44
0.0
173
     0
291
     0
 45
0.0
  0
VISUALSTYLE
  5
31
102
{ACAD_REACTORS
330
2A
102
}
102
{ACAD_XDICTIONARY
360
4F
102
}
330
2A
100
AcDbVisualStyle
  2
3D Hidden
 70
     6
 71
     1
 72
     2
 73
     2
 90
        0
 40
-0.6
 41
-30.0
 62
     5
 63
     7
421
 16777215
 74
     2
 91
        2
 64
     7
 65
   257
 75
     2
175
     1
 42
40.0
 92
        0
 66
   257
 43
1.0
 76
     1
 77
     6
 78
     2
 67
     7
 79
     3
170
     0
171
     0
290
     0
174
     0
 93
        1
 44
0.0
173
     0
291
     0
 45
0.0
  0
VISUALSTYLE
  5
30
102
{ACAD_REACTORS
330
2A
102
}
102
{ACAD_XDICTIONARY
360
4D
102
}
330
2A
100
AcDbVisualStyle
  2
3dWireframe
 70
     5
 71
     0
 72
     2
 73
     0
 90
        0
 40
-0.6
 41
-30.0
 62
     5
 63
     7
421
 16777215
 74
     1
 91
        4
 64
     7
 65
   257
 75
     1
175
     1
 42
1.0
 92
        0
 66
   257
 43
1.0
 76
     1
 77
     6
 78
     2
 67
     7
 79
     5
170
     0
171
     0
290
     0
174
     0
 93
        1
 44
0.0
173
     0
291
     0
 45
0.0
  0
VISUALSTYLE
  5
32
102
{ACAD_REACTORS
330
2A
102
}
102
{ACAD_XDICTIONARY
360
51
102
}
330
2A
100
AcDbVisualStyle
  2
Basic
 70
     7
 71
     1
 72
     0
 73
     1
 90
        0
 40
-0.6
 41
-30.0
 62
     5
 63
     7
421
 16777215
 74
     0
 91
        4
 64
     7
 65
   257
 75
     1
175
     1
 42
1.0
 92
        8
 66
     7
 43
1.0
 76
     1
 77
     6
 78
     2
 67
     7
 79
     5
170
     0
171
     0
290
     0
174
     0
 93
        1
 44
0.0
173
     0
291
     1
 45
0.0
  0
VISUALSTYLE
  5
36
102
{ACAD_REACTORS
330
2A
102
}
102
{ACAD_XDICTIONARY
360
59
102
}
330
2A
100
AcDbVisualStyle
  2
Brighten
 70
    12
 71
     2
 72
     2
 73
     0
 90
        0
 40
-0.6
 41
-30.0
 62
     5
 63
     7
421
 16777215
 74
     1
 91
        4
 64
     7
 65
   257
 75
     1
175
     1
 42
1.0
 92
        8
 66
     7
 43
1.0
 76
     1
 77
     6
 78
     2
 67
     7
 79
     5
170
     0
171
     0
290
     0
174
     0
 93
        1
 44
50.0
173
     0
291
     1
 45
0.0
  0
VISUALSTYLE
  5
3A
102
{ACAD_REACTORS
330
2A
102
}
102
{ACAD_XDICTIONARY
360
61
102
}
330
2A
100
AcDbVisualStyle
  2
ColorChange
 70
    16
 71
     2
 72
     2
 73
     3
 90
        0
 40
-0.6
 41
-30.0
 62
     5
 63
     8
421
  8421504
 74
     1
 91
        4
 64
     7
 65
   257
 75
     1
175
     1
 42
1.0
 92
        8
 66
     8
424
  8421504
 43
1.0
 76
     1
 77
     6
 78
     2
 67
     7
 79
     5
170
     0
171
     0
290
     0
174
     0
 93
        1
 44
0.0
173
     0
291
     1
 45
0.0
  0
VISUALSTYLE
  5
34
102
{ACAD_REACTORS
330
2A
102
}
102
{ACAD_XDICTIONARY
360
55
102
}
330
2A
100
AcDbVisualStyle
  2
Conceptual
 70
     9
 71
     3
 72
     2
 73
     0
 90
        0
 40
-0.6
 41
-30.0
 62
     5
 63
     7
421
 16777215
 74
     2
 91
        2
 64
     7
 65
   257
 75
     1
175
     1
 42
40.0
 92
        8
 66
     7
 43
1.0
 76
     1
 77
     6
 78
     2
 67
     7
 79
     3
170
     0
171
     0
290
     0
174
     0
 93
        1
 44
0.0
173
     0
291
     0
 45
0.0
  0
VISUALSTYLE
  5
35
102
{ACAD_REACTORS
330
2A
102
}
102
{ACAD_XDICTIONARY
360
57
102
}
330
2A
100
AcDbVisualStyle
  2
Dim
 70
    11
 71
     2
 72
     2
 73
     0
 90
        0
 40
-0.6
 41
-30.0
 62
     5
 63
     7
421
 16777215
 74
     1
 91
        4
 64
     7
 65
   257
 75
     1
175
     1
 42
1.0
 92
        8
 66
     7
 43
1.0
 76
     1
 77
     6
 78
     2
 67
     7
 79
     5
170
     0
171
     0
290
     0
174
     0
 93
        1
 44
-50.0
173
     0
291
     1
 45
0.0
  0
VISUALSTYLE
  5
39
102
{ACAD_REACTORS
330
2A
102
}
102
{ACAD_XDICTIONARY
360
5F
102
}
330
2A
100
AcDbVisualStyle
  2
Facepattern
 70
    15
 71
     2
 72
     2
 73
     0
 90
        0
 40
-0.6
 41
-30.0
 62
     5
 63
     7
421
 16777215
 74
     1
 91
        4
 64
     7
 65
   257
 75
     1
175
     1
 42
1.0
 92
        8
 66
     7
 43
1.0
 76
     1
 77
     6
 78
     2
 67
     7
 79
     5
170
     0
171
     0
290
     0
174
     0
 93
        1
 44
0.0
173
     0
291
     1
 45
0.0
  0
VISUALSTYLE
  5
2B
102
{ACAD_REACTORS
330
2A
102
}
102
{ACAD_XDICTIONARY
360
43
102
}
330
2A
100
AcDbVisualStyle
  2
Flat
 70
     0
 71
     2
 72
     1
 73
     1
 90
        2
 40
-0.6
 41
30.0
 62
     5
 63
     7
421
 16777215
 74
     0
 91
        4
 64
     7
 65
   257
 75
     1
175
     1
 42
1.0
 92
        8
 66
     7
 43
1.0
 76
     1
 77
     6
 78
     2
 67
     7
 79
     5
170
     0
171
     0
290
     0
174
     0
 93
       13
 44
0.0
173
     0
291
     1
 45
0.0
  0
VISUALSTYLE
  5
2C
102
{ACAD_REACTORS
330
2A
102
}
102
{ACAD_XDICTIONARY
360
45
102
}
330
2A
100
AcDbVisualStyle
  2
FlatWithEdges
 70
     1
 71
     2
 72
     1
 73
     1
 90
        2
 40
-0.6
 41
30.0
 62
     5
 63
     7
421
 16777215
 74
     1
 91
        4
 64
     7
 65
   257
 75
     1
175
     1
 42
1.0
 92
        0
 66
   257
 43
1.0
 76
     1
 77
     6
 78
     2
 67
     7
 79
     5
170
     0
171
     0
290
     0
174
     0
 93
       13
 44
0.0
173
     0
291
     1
 45
0.0
  0
VISUALSTYLE
  5
2D
102
{ACAD_REACTORS
330
2A
102
}
102
{ACAD_XDICTIONARY
360
47
102
}
330
2A
100
AcDbVisualStyle
  2
Gouraud
 70
     2
 71
     2
 72
     2
 73
     1
 90
        2
 40
-0.6
 41
30.0
 62
     5
 63
     7
421
 16777215
 74
     0
 91
        4
 64
     7
 65
   257
 75
     1
175
     1
 42
1.0
 92
        0
 66
     7
 43
1.0
 76
     1
 77
     6
 78
     2
 67
     7
 79
     5
170
     0
171
     0
290
     0
174
     0
 93
       13
 44
0.0
173
     0
291
     1
 45
0.0
  0
VISUALSTYLE
  5
2E
102
{ACAD_REACTORS
330
2A
102
}
102
{ACAD_XDICTIONARY
360
49
102
}
330
2A
100
AcDbVisualStyle
  2
GouraudWithEdges
 70
     3
 71
     2
 72
     2
 73
     1
 90
        2
 40
-0.6
 41
30.0
 62
     5
 63
     7
421
 16777215
 74
     1
 91
        4
 64
     7
 65
   257
 75
     1
175
     1
 42
1.0
 92
        0
 66
   257
 43
1.0
 76
     1
 77
     6
 78
     2
 67
     7
 79
     5
170
     0
171
     0
290
     0
174
     0
 93
       13
 44
0.0
173
     0
291
     1
 45
0.0
  0
VISUALSTYLE
  5
38
102
{ACAD_REACTORS
330
2A
102
}
102
{ACAD_XDICTIONARY
360
5D
102
}
330
2A
100
AcDbVisualStyle
  2
Linepattern
 70
    14
 71
     2
 72
     2
 73
     0
 90
        0
 40
-0.6
 41
-30.0
 62
     5
 63
     7
421
 16777215
 74
     1
 91
        4
 64
     7
 65
   257
 75
     7
175
     7
 42
1.0
 92
        8
 66
     7
 43
1.0
 76
     1
 77
     6
 78
     2
 67
     7
 79
     5
170
     0
171
     0
290
     0
174
     0
 93
        1
 44
0.0
173
     0
291
     1
 45
0.0
  0
VISUALSTYLE
  5
33
102
{ACAD_REACTORS
330
2A
102
}
102
{ACAD_XDICTIONARY
360
53
102
}
330
2A
100
AcDbVisualStyle
  2
Realistic
 70
     8
 71
     2
 72
     2
 73
     0
 90
        0
 40
-0.6
 41
-30.0
 62
     5
 63
     7
421
 16777215
 74
     1
 91
        0
 64
     7
 65
   257
 75
     1
175
     1
 42
1.0
 92
        8
 66
     8
424
  7895160
 43
1.0
 76
     1
 77
     6
 78
     2
 67
     7
 79
     5
170
     0
171
     0
290
     0
174
     0
 93
       13
 44
0.0
173
     0
291
     0
 45
0.0
  0
VISUALSTYLE
  5
37
102
{ACAD_REACTORS
330
2A
102
}
102
{ACAD_XDICTIONARY
360
5B
102
}
330
2A
100
AcDbVisualStyle
  2
Thicken
 70
    13
 71
     2
 72
     2
 73
     0
 90
        0
 40
-0.6
 41
-30.0
 62
     5
 63
     7
421
 16777215
 74
     1
 91
        4
 64
     7
 65
   257
 75
     1
175
     1
 42
1.0
 92
       12
 66
     7
 43
1.0
 76
     1
 77
     6
 78
     2
 67
     7
 79
     5
170
     0
171
     0
290
     0
174
     0
 93
        1
 44
0.0
173
     0
291
     1
 45
0.0
  0
DICTIONARY
  5
4B
330
2F
100
AcDbDictionary
280
     1
281
     1
  3
ACAD_XREC_ROUNDTRIP
360
4C
  0
DICTIONARY
  5
4F
330
31
100
AcDbDictionary
280
     1
281
     1
  3
ACAD_XREC_ROUNDTRIP
360
50
  0
DICTIONARY
  5
4D
330
30
100
AcDbDictionary
280
     1
281
     1
  3
ACAD_XREC_ROUNDTRIP
360
4E
  0
DICTIONARY
  5
51
330
32
100
AcDbDictionary
280
     1
281
     1
  3
ACAD_XREC_ROUNDTRIP
360
52
  0
DICTIONARY
  5
59
330
36
100
AcDbDictionary
280
     1
281
     1
  3
ACAD_XREC_ROUNDTRIP
360
5A
  0
DICTIONARY
  5
61
330
3A
100
AcDbDictionary
280
     1
281
     1
  3
ACAD_XREC_ROUNDTRIP
360
62
  0
DICTIONARY
  5
55
330
34
100
AcDbDictionary
280
     1
281
     1
  3
ACAD_XREC_ROUNDTRIP
360
56
  0
DICTIONARY
  5
57
330
35
100
AcDbDictionary
280
     1
281
     1
  3
ACAD_XREC_ROUNDTRIP
360
58
  0
DICTIONARY
  5
5F
330
39
100
AcDbDictionary
280
     1
281
     1
  3
ACAD_XREC_ROUNDTRIP
360
60
  0
DICTIONARY
  5
43
330
2B
100
AcDbDictionary
280
     1
281
     1
  3
ACAD_XREC_ROUNDTRIP
360
44
  0
DICTIONARY
  5
45
330
2C
100
AcDbDictionary
280
     1
281
     1
  3
ACAD_XREC_ROUNDTRIP
360
46
  0
DICTIONARY
  5
47
330
2D
100
AcDbDictionary
280
     1
281
     1
  3
ACAD_XREC_ROUNDTRIP
360
48
  0
DICTIONARY
  5
49
330
2E
100
AcDbDictionary
280
     1
281
     1
  3
ACAD_XREC_ROUNDTRIP
360
4A
  0
DICTIONARY
  5
5D
330
38
100
AcDbDictionary
280
     1
281
     1
  3
ACAD_XREC_ROUNDTRIP
360
5E
  0
DICTIONARY
  5
53
330
33
100
AcDbDictionary
280
     1
281
     1
  3
ACAD_XREC_ROUNDTRIP
360
54
  0
DICTIONARY
  5
5B
330
37
100
AcDbDictionary
280
     1
281
     1
  3
ACAD_XREC_ROUNDTRIP
360
5C
  0
XRECORD
  5
4C
102
{ACAD_REACTORS
330
4B
102
}
330
4B
100
AcDbXrecord
280
     1
102
RTVSPropertyOp0
 70
     1
102
RTVSPropertyOp1
 70
     1
102
RTVSPropertyOp2
 70
     1
102
RTVSPropertyOp3
 70
     1
102
RTVSPropertyOp4
 70
     1
102
RTVSPropertyOp5
 70
     1
102
RTVSPropertyOp6
 70
     1
102
RTVSPropertyOp7
 70
     1
102
RTVSPropertyOp8
 70
     1
102
RTVSPropertyOp9
 70
     1
102
RTVSPropertyOp10
 70
     1
102
RTVSPropertyOp11
 70
     1
102
RTVSPropertyOp12
 70
     1
102
RTVSPropertyOp13
 70
     1
102
RTVSPropertyOp14
 70
     1
102
RTVSPropertyOp15
 70
     1
102
RTVSPropertyOp16
 70
     1
102
RTVSPropertyOp17
 70
     1
102
RTVSPropertyOp18
 70
     1
102
RTVSPropertyOp19
 70
     1
102
RTVSPropertyOp20
 70
     1
102
RTVSPropertyOp21
 70
     1
102
RTVSPropertyOp22
 70
     1
102
RTVSPropertyOp23
 70
     1
102
RTVSPropertyOp24
 70
     1
102
RTVSPropertyOp25
 70
     1
102
RTVSPropertyOp26
 70
     1
102
RTVSPropertyOp27
 70
     1
102
RTVSPropertyOp28
 70
     1
102
RTVSPropertyOp29
 70
     1
102
RTVSPropertyOp30
 70
     1
102
RTVSPropertyOp31
 70
     1
102
RTVSPropertyOp32
 70
     1
  0
XRECORD
  5
50
102
{ACAD_REACTORS
330
4F
102
}
330
4F
100
AcDbXrecord
280
     1
102
RTVSPropertyOp0
 70
     1
102
RTVSPropertyOp1
 70
     1
102
RTVSPropertyOp2
 70
     1
102
RTVSPropertyOp3
 70
     1
102
RTVSPropertyOp4
 70
     1
102
RTVSPropertyOp5
 70
     1
102
RTVSPropertyOp6
 70
     1
102
RTVSPropertyOp7
 70
     1
102
RTVSPropertyOp8
 70
     1
102
RTVSPropertyOp9
 70
     1
102
RTVSPropertyOp10
 70
     1
102
RTVSPropertyOp11
 70
     1
102
RTVSPropertyOp12
 70
     1
102
RTVSPropertyOp13
 70
     1
102
RTVSPropertyOp14
 70
     1
102
RTVSPropertyOp15
 70
     1
102
RTVSPropertyOp16
 70
     1
102
RTVSPropertyOp17
 70
     1
102
RTVSPropertyOp18
 70
     1
102
RTVSPropertyOp19
 70
     1
102
RTVSPropertyOp20
 70
     1
102
RTVSPropertyOp21
 70
     1
102
RTVSPropertyOp22
 70
     1
102
RTVSPropertyOp23
 70
     1
102
RTVSPropertyOp24
 70
     1
102
RTVSPropertyOp25
 70
     1
102
RTVSPropertyOp26
 70
     1
102
RTVSPropertyOp27
 70
     1
102
RTVSPropertyOp28
 70
     1
102
RTVSPropertyOp29
 70
     1
102
RTVSPropertyOp30
 70
     1
102
RTVSPropertyOp31
 70
     1
102
RTVSPropertyOp32
 70
     1
  0
XRECORD
  5
4E
102
{ACAD_REACTORS
330
4D
102
}
330
4D
100
AcDbXrecord
280
     1
102
RTVSPropertyOp0
 70
     1
102
RTVSPropertyOp1
 70
     1
102
RTVSPropertyOp2
 70
     1
102
RTVSPropertyOp3
 70
     1
102
RTVSPropertyOp4
 70
     1
102
RTVSPropertyOp5
 70
     1
102
RTVSPropertyOp6
 70
     1
102
RTVSPropertyOp7
 70
     1
102
RTVSPropertyOp8
 70
     1
102
RTVSPropertyOp9
 70
     1
102
RTVSPropertyOp10
 70
     1
102
RTVSPropertyOp11
 70
     1
102
RTVSPropertyOp12
 70
     1
102
RTVSPropertyOp13
 70
     1
102
RTVSPropertyOp14
 70
     1
102
RTVSPropertyOp15
 70
     1
102
RTVSPropertyOp16
 70
     1
102
RTVSPropertyOp17
 70
     1
102
RTVSPropertyOp18
 70
     1
102
RTVSPropertyOp19
 70
     1
102
RTVSPropertyOp20
 70
     1
102
RTVSPropertyOp21
 70
     1
102
RTVSPropertyOp22
 70
     1
102
RTVSPropertyOp23
 70
     1
102
RTVSPropertyOp24
 70
     1
102
RTVSPropertyOp25
 70
     1
102
RTVSPropertyOp26
 70
     1
102
RTVSPropertyOp27
 70
     1
102
RTVSPropertyOp28
 70
     1
102
RTVSPropertyOp29
 70
     1
102
RTVSPropertyOp30
 70
     1
102
RTVSPropertyOp31
 70
     1
102
RTVSPropertyOp32
 70
     1
  0
XRECORD
  5
52
102
{ACAD_REACTORS
330
51
102
}
330
51
100
AcDbXrecord
280
     1
102
RTVSPropertyOp0
 70
     1
102
RTVSPropertyOp1
 70
     1
102
RTVSPropertyOp2
 70
     1
102
RTVSPropertyOp3
 70
     1
102
RTVSPropertyOp4
 70
     1
102
RTVSPropertyOp5
 70
     1
102
RTVSPropertyOp6
 70
     1
102
RTVSPropertyOp7
 70
     1
102
RTVSPropertyOp8
 70
     1
102
RTVSPropertyOp9
 70
     1
102
RTVSPropertyOp10
 70
     1
102
RTVSPropertyOp11
 70
     1
102
RTVSPropertyOp12
 70
     1
102
RTVSPropertyOp13
 70
     1
102
RTVSPropertyOp14
 70
     1
102
RTVSPropertyOp15
 70
     1
102
RTVSPropertyOp16
 70
     1
102
RTVSPropertyOp17
 70
     1
102
RTVSPropertyOp18
 70
     1
102
RTVSPropertyOp19
 70
     1
102
RTVSPropertyOp20
 70
     1
102
RTVSPropertyOp21
 70
     1
102
RTVSPropertyOp22
 70
     1
102
RTVSPropertyOp23
 70
     1
102
RTVSPropertyOp24
 70
     1
102
RTVSPropertyOp25
 70
     1
102
RTVSPropertyOp26
 70
     1
102
RTVSPropertyOp27
 70
     1
102
RTVSPropertyOp28
 70
     1
102
RTVSPropertyOp29
 70
     1
102
RTVSPropertyOp30
 70
     1
102
RTVSPropertyOp31
 70
     1
102
RTVSPropertyOp32
 70
     1
  0
XRECORD
  5
5A
102
{ACAD_REACTORS
330
59
102
}
330
59
100
AcDbXrecord
280
     1
102
RTVSPropertyOp0
 70
     1
102
RTVSPropertyOp1
 70
     1
102
RTVSPropertyOp2
 70
     1
102
RTVSPropertyOp3
 70
     1
102
RTVSPropertyOp4
 70
     1
102
RTVSPropertyOp5
 70
     1
102
RTVSPropertyOp6
 70
     1
102
RTVSPropertyOp7
 70
     1
102
RTVSPropertyOp8
 70
     1
102
RTVSPropertyOp9
 70
     1
102
RTVSPropertyOp10
 70
     1
102
RTVSPropertyOp11
 70
     1
102
RTVSPropertyOp12
 70
     1
102
RTVSPropertyOp13
 70
     1
102
RTVSPropertyOp14
 70
     1
102
RTVSPropertyOp15
 70
     1
102
RTVSPropertyOp16
 70
     1
102
RTVSPropertyOp17
 70
     1
102
RTVSPropertyOp18
 70
     1
102
RTVSPropertyOp19
 70
     1
102
RTVSPropertyOp20
 70
     1
102
RTVSPropertyOp21
 70
     1
102
RTVSPropertyOp22
 70
     1
102
RTVSPropertyOp23
 70
     1
102
RTVSPropertyOp24
 70
     1
102
RTVSPropertyOp25
 70
     1
102
RTVSPropertyOp26
 70
     1
102
RTVSPropertyOp27
 70
     1
102
RTVSPropertyOp28
 70
     1
102
RTVSPropertyOp29
 70
     1
102
RTVSPropertyOp30
 70
     1
102
RTVSPropertyOp31
 70
     1
102
RTVSPropertyOp32
 70
     1
  0
XRECORD
  5
62
102
{ACAD_REACTORS
330
61
102
}
330
61
100
AcDbXrecord
280
     1
102
RTVSPropertyOp0
 70
     1
102
RTVSPropertyOp1
 70
     1
102
RTVSPropertyOp2
 70
     1
102
RTVSPropertyOp3
 70
     1
102
RTVSPropertyOp4
 70
     1
102
RTVSPropertyOp5
 70
     1
102
RTVSPropertyOp6
 70
     1
102
RTVSPropertyOp7
 70
     1
102
RTVSPropertyOp8
 70
     1
102
RTVSPropertyOp9
 70
     1
102
RTVSPropertyOp10
 70
     1
102
RTVSPropertyOp11
 70
     1
102
RTVSPropertyOp12
 70
     1
102
RTVSPropertyOp13
 70
     1
102
RTVSPropertyOp14
 70
     1
102
RTVSPropertyOp15
 70
     1
102
RTVSPropertyOp16
 70
     1
102
RTVSPropertyOp17
 70
     1
102
RTVSPropertyOp18
 70
     1
102
RTVSPropertyOp19
 70
     1
102
RTVSPropertyOp20
 70
     1
102
RTVSPropertyOp21
 70
     1
102
RTVSPropertyOp22
 70
     1
102
RTVSPropertyOp23
 70
     1
102
RTVSPropertyOp24
 70
     1
102
RTVSPropertyOp25
 70
     1
102
RTVSPropertyOp26
 70
     1
102
RTVSPropertyOp27
 70
     1
102
RTVSPropertyOp28
 70
     1
102
RTVSPropertyOp29
 70
     1
102
RTVSPropertyOp30
 70
     1
102
RTVSPropertyOp31
 70
     1
102
RTVSPropertyOp32
 70
     1
  0
XRECORD
  5
56
102
{ACAD_REACTORS
330
55
102
}
330
55
100
AcDbXrecord
280
     1
102
RTVSPropertyOp0
 70
     1
102
RTVSPropertyOp1
 70
     1
102
RTVSPropertyOp2
 70
     1
102
RTVSPropertyOp3
 70
     1
102
RTVSPropertyOp4
 70
     1
102
RTVSPropertyOp5
 70
     1
102
RTVSPropertyOp6
 70
     1
102
RTVSPropertyOp7
 70
     1
102
RTVSPropertyOp8
 70
     1
102
RTVSPropertyOp9
 70
     1
102
RTVSPropertyOp10
 70
     1
102
RTVSPropertyOp11
 70
     1
102
RTVSPropertyOp12
 70
     1
102
RTVSPropertyOp13
 70
     1
102
RTVSPropertyOp14
 70
     1
102
RTVSPropertyOp15
 70
     1
102
RTVSPropertyOp16
 70
     1
102
RTVSPropertyOp17
 70
     1
102
RTVSPropertyOp18
 70
     1
102
RTVSPropertyOp19
 70
     1
102
RTVSPropertyOp20
 70
     1
102
RTVSPropertyOp21
 70
     1
102
RTVSPropertyOp22
 70
     1
102
RTVSPropertyOp23
 70
     1
102
RTVSPropertyOp24
 70
     1
102
RTVSPropertyOp25
 70
     1
102
RTVSPropertyOp26
 70
     1
102
RTVSPropertyOp27
 70
     1
102
RTVSPropertyOp28
 70
     1
102
RTVSPropertyOp29
 70
     1
102
RTVSPropertyOp30
 70
     1
102
RTVSPropertyOp31
 70
     1
102
RTVSPropertyOp32
 70
     1
  0
XRECORD
  5
58
102
{ACAD_REACTORS
330
57
102
}
330
57
100
AcDbXrecord
280
     1
102
RTVSPropertyOp0
 70
     1
102
RTVSPropertyOp1
 70
     1
102
RTVSPropertyOp2
 70
     1
102
RTVSPropertyOp3
 70
     1
102
RTVSPropertyOp4
 70
     1
102
RTVSPropertyOp5
 70
     1
102
RTVSPropertyOp6
 70
     1
102
RTVSPropertyOp7
 70
     1
102
RTVSPropertyOp8
 70
     1
102
RTVSPropertyOp9
 70
     1
102
RTVSPropertyOp10
 70
     1
102
RTVSPropertyOp11
 70
     1
102
RTVSPropertyOp12
 70
     1
102
RTVSPropertyOp13
 70
     1
102
RTVSPropertyOp14
 70
     1
102
RTVSPropertyOp15
 70
     1
102
RTVSPropertyOp16
 70
     1
102
RTVSPropertyOp17
 70
     1
102
RTVSPropertyOp18
 70
     1
102
RTVSPropertyOp19
 70
     1
102
RTVSPropertyOp20
 70
     1
102
RTVSPropertyOp21
 70
     1
102
RTVSPropertyOp22
 70
     1
102
RTVSPropertyOp23
 70
     1
102
RTVSPropertyOp24
 70
     1
102
RTVSPropertyOp25
 70
     1
102
RTVSPropertyOp26
 70
     1
102
RTVSPropertyOp27
 70
     1
102
RTVSPropertyOp28
 70
     1
102
RTVSPropertyOp29
 70
     1
102
RTVSPropertyOp30
 70
     1
102
RTVSPropertyOp31
 70
     1
102
RTVSPropertyOp32
 70
     1
  0
XRECORD
  5
60
102
{ACAD_REACTORS
330
5F
102
}
330
5F
100
AcDbXrecord
280
     1
102
RTVSPropertyOp0
 70
     1
102
RTVSPropertyOp1
 70
     1
102
RTVSPropertyOp2
 70
     1
102
RTVSPropertyOp3
 70
     1
102
RTVSPropertyOp4
 70
     1
102
RTVSPropertyOp5
 70
     1
102
RTVSPropertyOp6
 70
     1
102
RTVSPropertyOp7
 70
     1
102
RTVSPropertyOp8
 70
     1
102
RTVSPropertyOp9
 70
     1
102
RTVSPropertyOp10
 70
     1
102
RTVSPropertyOp11
 70
     1
102
RTVSPropertyOp12
 70
     1
102
RTVSPropertyOp13
 70
     1
102
RTVSPropertyOp14
 70
     1
102
RTVSPropertyOp15
 70
     1
102
RTVSPropertyOp16
 70
     1
102
RTVSPropertyOp17
 70
     1
102
RTVSPropertyOp18
 70
     1
102
RTVSPropertyOp19
 70
     1
102
RTVSPropertyOp20
 70
     1
102
RTVSPropertyOp21
 70
     1
102
RTVSPropertyOp22
 70
     1
102
RTVSPropertyOp23
 70
     1
102
RTVSPropertyOp24
 70
     1
102
RTVSPropertyOp25
 70
     1
102
RTVSPropertyOp26
 70
     1
102
RTVSPropertyOp27
 70
     1
102
RTVSPropertyOp28
 70
     1
102
RTVSPropertyOp29
 70
     1
102
RTVSPropertyOp30
 70
     1
102
RTVSPropertyOp31
 70
     1
102
RTVSPropertyOp32
 70
     1
  0
XRECORD
  5
44
102
{ACAD_REACTORS
330
43
102
}
330
43
100
AcDbXrecord
280
     1
102
RTVSPropertyOp0
 70
     1
102
RTVSPropertyOp1
 70
     1
102
RTVSPropertyOp2
 70
     1
102
RTVSPropertyOp3
 70
     1
102
RTVSPropertyOp4
 70
     1
102
RTVSPropertyOp5
 70
     1
102
RTVSPropertyOp6
 70
     1
102
RTVSPropertyOp7
 70
     1
102
RTVSPropertyOp8
 70
     1
102
RTVSPropertyOp9
 70
     1
102
RTVSPropertyOp10
 70
     1
102
RTVSPropertyOp11
 70
     1
102
RTVSPropertyOp12
 70
     1
102
RTVSPropertyOp13
 70
     1
102
RTVSPropertyOp14
 70
     1
102
RTVSPropertyOp15
 70
     1
102
RTVSPropertyOp16
 70
     1
102
RTVSPropertyOp17
 70
     1
102
RTVSPropertyOp18
 70
     1
102
RTVSPropertyOp19
 70
     1
102
RTVSPropertyOp20
 70
     1
102
RTVSPropertyOp21
 70
     1
102
RTVSPropertyOp22
 70
     1
102
RTVSPropertyOp23
 70
     1
102
RTVSPropertyOp24
 70
     1
102
RTVSPropertyOp25
 70
     1
102
RTVSPropertyOp26
 70
     1
102
RTVSPropertyOp27
 70
     1
102
RTVSPropertyOp28
 70
     1
102
RTVSPropertyOp29
 70
     1
102
RTVSPropertyOp30
 70
     1
102
RTVSPropertyOp31
 70
     1
102
RTVSPropertyOp32
 70
     1
  0
XRECORD
  5
46
102
{ACAD_REACTORS
330
45
102
}
330
45
100
AcDbXrecord
280
     1
102
RTVSPropertyOp0
 70
     1
102
RTVSPropertyOp1
 70
     1
102
RTVSPropertyOp2
 70
     1
102
RTVSPropertyOp3
 70
     1
102
RTVSPropertyOp4
 70
     1
102
RTVSPropertyOp5
 70
     1
102
RTVSPropertyOp6
 70
     1
102
RTVSPropertyOp7
 70
     1
102
RTVSPropertyOp8
 70
     1
102
RTVSPropertyOp9
 70
     1
102
RTVSPropertyOp10
 70
     1
102
RTVSPropertyOp11
 70
     1
102
RTVSPropertyOp12
 70
     1
102
RTVSPropertyOp13
 70
     1
102
RTVSPropertyOp14
 70
     1
102
RTVSPropertyOp15
 70
     1
102
RTVSPropertyOp16
 70
     1
102
RTVSPropertyOp17
 70
     1
102
RTVSPropertyOp18
 70
     1
102
RTVSPropertyOp19
 70
     1
102
RTVSPropertyOp20
 70
     1
102
RTVSPropertyOp21
 70
     1
102
RTVSPropertyOp22
 70
     1
102
RTVSPropertyOp23
 70
     1
102
RTVSPropertyOp24
 70
     1
102
RTVSPropertyOp25
 70
     1
102
RTVSPropertyOp26
 70
     1
102
RTVSPropertyOp27
 70
     1
102
RTVSPropertyOp28
 70
     1
102
RTVSPropertyOp29
 70
     1
102
RTVSPropertyOp30
 70
     1
102
RTVSPropertyOp31
 70
     1
102
RTVSPropertyOp32
 70
     1
  0
XRECORD
  5
48
102
{ACAD_REACTORS
330
47
102
}
330
47
100
AcDbXrecord
280
     1
102
RTVSPropertyOp0
 70
     1
102
RTVSPropertyOp1
 70
     1
102
RTVSPropertyOp2
 70
     1
102
RTVSPropertyOp3
 70
     1
102
RTVSPropertyOp4
 70
     1
102
RTVSPropertyOp5
 70
     1
102
RTVSPropertyOp6
 70
     1
102
RTVSPropertyOp7
 70
     1
102
RTVSPropertyOp8
 70
     1
102
RTVSPropertyOp9
 70
     1
102
RTVSPropertyOp10
 70
     1
102
RTVSPropertyOp11
 70
     1
102
RTVSPropertyOp12
 70
     1
102
RTVSPropertyOp13
 70
     1
102
RTVSPropertyOp14
 70
     1
102
RTVSPropertyOp15
 70
     1
102
RTVSPropertyOp16
 70
     1
102
RTVSPropertyOp17
 70
     1
102
RTVSPropertyOp18
 70
     1
102
RTVSPropertyOp19
 70
     1
102
RTVSPropertyOp20
 70
     1
102
RTVSPropertyOp21
 70
     1
102
RTVSPropertyOp22
 70
     1
102
RTVSPropertyOp23
 70
     1
102
RTVSPropertyOp24
 70
     1
102
RTVSPropertyOp25
 70
     1
102
RTVSPropertyOp26
 70
     1
102
RTVSPropertyOp27
 70
     1
102
RTVSPropertyOp28
 70
     1
102
RTVSPropertyOp29
 70
     1
102
RTVSPropertyOp30
 70
     1
102
RTVSPropertyOp31
 70
     1
102
RTVSPropertyOp32
 70
     1
  0
XRECORD
  5
4A
102
{ACAD_REACTORS
330
49
102
}
330
49
100
AcDbXrecord
280
     1
102
RTVSPropertyOp0
 70
     1
102
RTVSPropertyOp1
 70
     1
102
RTVSPropertyOp2
 70
     1
102
RTVSPropertyOp3
 70
     1
102
RTVSPropertyOp4
 70
     1
102
RTVSPropertyOp5
 70
     1
102
RTVSPropertyOp6
 70
     1
102
RTVSPropertyOp7
 70
     1
102
RTVSPropertyOp8
 70
     1
102
RTVSPropertyOp9
 70
     1
102
RTVSPropertyOp10
 70
     1
102
RTVSPropertyOp11
 70
     1
102
RTVSPropertyOp12
 70
     1
102
RTVSPropertyOp13
 70
     1
102
RTVSPropertyOp14
 70
     1
102
RTVSPropertyOp15
 70
     1
102
RTVSPropertyOp16
 70
     1
102
RTVSPropertyOp17
 70
     1
102
RTVSPropertyOp18
 70
     1
102
RTVSPropertyOp19
 70
     1
102
RTVSPropertyOp20
 70
     1
102
RTVSPropertyOp21
 70
     1
102
RTVSPropertyOp22
 70
     1
102
RTVSPropertyOp23
 70
     1
102
RTVSPropertyOp24
 70
     1
102
RTVSPropertyOp25
 70
     1
102
RTVSPropertyOp26
 70
     1
102
RTVSPropertyOp27
 70
     1
102
RTVSPropertyOp28
 70
     1
102
RTVSPropertyOp29
 70
     1
102
RTVSPropertyOp30
 70
     1
102
RTVSPropertyOp31
 70
     1
102
RTVSPropertyOp32
 70
     1
  0
XRECORD
  5
5E
102
{ACAD_REACTORS
330
5D
102
}
330
5D
100
AcDbXrecord
280
     1
102
RTVSPropertyOp0
 70
     1
102
RTVSPropertyOp1
 70
     1
102
RTVSPropertyOp2
 70
     1
102
RTVSPropertyOp3
 70
     1
102
RTVSPropertyOp4
 70
     1
102
RTVSPropertyOp5
 70
     1
102
RTVSPropertyOp6
 70
     1
102
RTVSPropertyOp7
 70
     1
102
RTVSPropertyOp8
 70
     1
102
RTVSPropertyOp9
 70
     1
102
RTVSPropertyOp10
 70
     1
102
RTVSPropertyOp11
 70
     1
102
RTVSPropertyOp12
 70
     1
102
RTVSPropertyOp13
 70
     1
102
RTVSPropertyOp14
 70
     1
102
RTVSPropertyOp15
 70
     1
102
RTVSPropertyOp16
 70
     1
102
RTVSPropertyOp17
 70
     1
102
RTVSPropertyOp18
 70
     1
102
RTVSPropertyOp19
 70
     1
102
RTVSPropertyOp20
 70
     1
102
RTVSPropertyOp21
 70
     1
102
RTVSPropertyOp22
 70
     1
102
RTVSPropertyOp23
 70
     1
102
RTVSPropertyOp24
 70
     1
102
RTVSPropertyOp25
 70
     1
102
RTVSPropertyOp26
 70
     1
102
RTVSPropertyOp27
 70
     1
102
RTVSPropertyOp28
 70
     1
102
RTVSPropertyOp29
 70
     1
102
RTVSPropertyOp30
 70
     1
102
RTVSPropertyOp31
 70
     1
102
RTVSPropertyOp32
 70
     1
  0
XRECORD
  5
54
102
{ACAD_REACTORS
330
53
102
}
330
53
100
AcDbXrecord
280
     1
102
RTVSPropertyOp0
 70
     1
102
RTVSPropertyOp1
 70
     1
102
RTVSPropertyOp2
 70
     1
102
RTVSPropertyOp3
 70
     1
102
RTVSPropertyOp4
 70
     1
102
RTVSPropertyOp5
 70
     1
102
RTVSPropertyOp6
 70
     1
102
RTVSPropertyOp7
 70
     1
102
RTVSPropertyOp8
 70
     1
102
RTVSPropertyOp9
 70
     1
102
RTVSPropertyOp10
 70
     1
102
RTVSPropertyOp11
 70
     1
102
RTVSPropertyOp12
 70
     1
102
RTVSPropertyOp13
 70
     1
102
RTVSPropertyOp14
 70
     1
102
RTVSPropertyOp15
 70
     1
102
RTVSPropertyOp16
 70
     1
102
RTVSPropertyOp17
 70
     1
102
RTVSPropertyOp18
 70
     1
102
RTVSPropertyOp19
 70
     1
102
RTVSPropertyOp20
 70
     1
102
RTVSPropertyOp21
 70
     1
102
RTVSPropertyOp22
 70
     1
102
RTVSPropertyOp23
 70
     1
102
RTVSPropertyOp24
 70
     1
102
RTVSPropertyOp25
 70
     1
102
RTVSPropertyOp26
 70
     1
102
RTVSPropertyOp27
 70
     1
102
RTVSPropertyOp28
 70
     1
102
RTVSPropertyOp29
 70
     1
102
RTVSPropertyOp30
 70
     1
102
RTVSPropertyOp31
 70
     1
102
RTVSPropertyOp32
 70
     1
  0
XRECORD
  5
5C
102
{ACAD_REACTORS
330
5B
102
}
330
5B
100
AcDbXrecord
280
     1
102
RTVSPropertyOp0
 70
     1
102
RTVSPropertyOp1
 70
     1
102
RTVSPropertyOp2
 70
     1
102
RTVSPropertyOp3
 70
     1
102
RTVSPropertyOp4
 70
     1
102
RTVSPropertyOp5
 70
     1
102
RTVSPropertyOp6
 70
     1
102
RTVSPropertyOp7
 70
     1
102
RTVSPropertyOp8
 70
     1
102
RTVSPropertyOp9
 70
     1
102
RTVSPropertyOp10
 70
     1
102
RTVSPropertyOp11
 70
     1
102
RTVSPropertyOp12
 70
     1
102
RTVSPropertyOp13
 70
     1
102
RTVSPropertyOp14
 70
     1
102
RTVSPropertyOp15
 70
     1
102
RTVSPropertyOp16
 70
     1
102
RTVSPropertyOp17
 70
     1
102
RTVSPropertyOp18
 70
     1
102
RTVSPropertyOp19
 70
     1
102
RTVSPropertyOp20
 70
     1
102
RTVSPropertyOp21
 70
     1
102
RTVSPropertyOp22
 70
     1
102
RTVSPropertyOp23
 70
     1
102
RTVSPropertyOp24
 70
     1
102
RTVSPropertyOp25
 70
     1
102
RTVSPropertyOp26
 70
     1
102
RTVSPropertyOp27
 70
     1
102
RTVSPropertyOp28
 70
     1
102
RTVSPropertyOp29
 70
     1
102
RTVSPropertyOp30
 70
     1
102
RTVSPropertyOp31
 70
     1
102
RTVSPropertyOp32
 70
     1
  0
ENDSEC
  0
EOF
