  0
SECTION
  2
HEADER
  9
$ACADVER
  1
AC1021
  9
$ACADMAINTVER
 70
    25
  9
$DWGCODEPAGE
  3
ANSI_1252
  9
$INSBASE
 10
0.0
 20
0.0
 30
0.0
  9
$EXTMIN
 10
-7.5609
 20
-3.5195
 30
0.0
  9
$EXTMAX
 10
7.56078
 20
3.51939
 30
0.0
  9
$LIMMIN
 10
0.0
 20
0.0
  9
$LIMMAX
 10
12.0
 20
9.0
  9
$ORTHOMODE
 70
     0
  9
$REGENMODE
 70
     1
  9
$FILLMODE
 70
     1
  9
$QTEXTMODE
 70
     0
  9
$MIRRTEXT
 70
     1
  9
$LTSCALE
 40
1.0
  9
$ATTMODE
 70
     1
  9
$TEXTSIZE
 40
0.2
  9
$TRACEWID
 40
0.05
  9
$TEXTSTYLE
  7
Standard
  9
$CLAYER
  8
0
  9
$CELTYPE
  6
ByLayer
  9
$CECOLOR
 62
   256
  9
$CELTSCALE
 40
1.0
  9
$DISPSILH
 70
     0
  9
$DIMSCALE
 40
1.0
  9
$DIMASZ
 40
0.18
  9
$DIMEXO
 40
0.0625
  9
$DIMDLI
 40
0.38
  9
$DIMRND
 40
0.0
  9
$DIMDLE
 40
0.0
  9
$DIMEXE
 40
0.18
  9
$DIMTP
 40
0.0
  9
$DIMTM
 40
0.0
  9
$DIMTXT
 40
0.18
  9
$DIMCEN
 40
0.09
  9
$DIMTSZ
 40
0.0
  9
$DIMTOL
 70
     0
  9
$DIMLIM
 70
     0
  9
$DIMTIH
 70
     1
  9
$DIMTOH
 70
     1
  9
$DIMSE1
 70
     0
  9
$DIMSE2
 70
     0
  9
$DIMTAD
 70
     0
  9
$DIMZIN
 70
     0
  9
$DIMBLK
  1

  9
$DIMASO
 70
     1
  9
$DIMSHO
 70
     1
  9
$DIMPOST
  1

  9
$DIMAPOST
  1

  9
$DIMALT
 70
     0
  9
$DIMALTD
 70
     2
  9
$DIMALTF
 40
25.4
  9
$DIMLFAC
 40
1.0
  9
$DIMTOFL
 70
     0
  9
$DIMTVP
 40
0.0
  9
$DIMTIX
 70
     0
  9
$DIMSOXD
 70
     0
  9
$DIMSAH
 70
     0
  9
$DIMBLK1
  1

  9
$DIMBLK2
  1

  9
$DIMSTYLE
  2
Standard
  9
$DIMCLRD
 70
     0
  9
$DIMCLRE
 70
     0
  9
$DIMCLRT
 70
     0
  9
$DIMTFAC
 40
1.0
  9
$DIMGAP
 40
0.09
  9
$DIMJUST
 70
     0
  9
$DIMSD1
 70
     0
  9
$DIMSD2
 70
     0
  9
$DIMTOLJ
 70
     1
  9
$DIMTZIN
 70
     0
  9
$DIMALTZ
 70
     0
  9
$DIMALTTZ
 70
     0
  9
$DIMUPT
 70
     0
  9
$DIMDEC
 70
     4
  9
$DIMTDEC
 70
     4
  9
$DIMALTU
 70
     2
  9
$DIMALTTD
 70
     2
  9
$DIMTXSTY
  7
Standard
  9
$DIMAUNIT
 70
     0
  9
$DIMADEC
 70
     0
  9
$DIMALTRND
 40
0.0
  9
$DIMAZIN
 70
     0
  9
$DIMDSEP
 70
    46
  9
$DIMATFIT
 70
     3
  9
$DIMFRAC
 70
     0
  9
$DIMLDRBLK
  1

  9
$DIMLUNIT
 70
     2
  9
$DIMLWD
 70
    -2
  9
$DIMLWE
 70
    -2
  9
$DIMTMOVE
 70
     0
  9
$DIMFXL
 40
1.0
  9
$DIMFXLON
 70
     0
  9
$DIMJOGANG
 40
0.7853981633974483
  9
$DIMTFILL
 70
     0
  9
$DIMTFILLCLR
 70
     0
  9
$DIMARCSYM
 70
     0
  9
$DIMLTYPE
  6

  9
$DIMLTEX1
  6

  9
$DIMLTEX2
  6

  9
$LUNITS
 70
     2
  9
$LUPREC
 70
     4
  9
$SKETCHINC
 40
0.1
  9
$FILLETRAD
 40
0.5
  9
$AUNITS
 70
     0
  9
$AUPREC
 70
     0
  9
$MENU
  1
.
  9
$ELEVATION
 40
0.0
  9
$PELEVATION
 40
0.0
  9
$THICKNESS
 40
0.0
  9
$LIMCHECK
 70
     0
  9
$CHAMFERA
 40
0.5
  9
$CHAMFERB
 40
0.5
  9
$CHAMFERC
 40
1.0
  9
$CHAMFERD
 40
0.0
  9
$SKPOLY
 70
     0
  9
$TDCREATE
 40
2456876.680040382
  9
$TDUCREATE
 40
2456876.805040382
  9
$TDUPDATE
 40
2456876.680040556
  9
$TDUUPDATE
 40
2456876.805040556
  9
$TDINDWG
 40
0.0000000116
  9
$TDUSRTIMER
 40
0.0000000116
  9
$USRTIMER
 70
     1
  9
$ANGBASE
 50
0.0
  9
$ANGDIR
 70
     0
  9
$PDMODE
 70
     0
  9
$PDSIZE
 40
0.0
  9
$PLINEWID
 40
0.0
  9
$SPLFRAME
 70
     0
  9
$SPLINETYPE
 70
     6
  9
$SPLINESEGS
 70
     8
  9
$HANDSEED
  5
65
  9
$SURFTAB1
 70
     6
  9
$SURFTAB2
 70
     6
  9
$SURFTYPE
 70
     6
  9
$SURFU
 70
     6
  9
$SURFV
 70
     6
  9
$UCSBASE
  2

  9
$UCSNAME
  2

  9
$UCSORG
 10
0.0
 20
0.0
 30
0.0
  9
$UCSXDIR
 10
1.0
 20
0.0
 30
0.0
  9
$UCSYDIR
 10
0.0
 20
1.0
 30
0.0
  9
$UCSORTHOREF
  2

  9
$UCSORTHOVIEW
 70
     0
  9
$UCSORGTOP
 10
0.0
 20
0.0
 30
0.0
  9
$UCSORGBOTTOM
 10
0.0
 20
0.0
 30
0.0
  9
$UCSORGLEFT
 10
0.0
 20
0.0
 30
0.0
  9
$UCSORGRIGHT
 10
0.0
 20
0.0
 30
0.0
  9
$UCSORGFRONT
 10
0.0
 20
0.0
 30
0.0
  9
$UCSORGBACK
 10
0.0
 20
0.0
 30
0.0
  9
$PUCSBASE
  2

  9
$PUCSNAME
  2

  9
$PUCSORG
 10
0.0
 20
0.0
 30
0.0
  9
$PUCSXDIR
 10
1.0
 20
0.0
 30
0.0
  9
$PUCSYDIR
 10
0.0
 20
1.0
 30
0.0
  9
$PUCSORTHOREF
  2

  9
$PUCSORTHOVIEW
 70
     0
  9
$PUCSORGTOP
 10
0.0
 20
0.0
 30
0.0
  9
$PUCSORGBOTTOM
 10
0.0
 20
0.0
 30
0.0
  9
$PUCSORGLEFT
 10
0.0
 20
0.0
 30
0.0
  9
$PUCSORGRIGHT
 10
0.0
 20
0.0
 30
0.0
  9
$PUCSORGFRONT
 10
0.0
 20
0.0
 30
0.0
  9
$PUCSORGBACK
 10
0.0
 20
0.0
 30
0.0
  9
$USERI1
 70
     0
  9
$USERI2
 70
     0
  9
$USERI3
 70
     0
  9
$USERI4
 70
     0
  9
$USERI5
 70
     0
  9
$USERR1
 40
0.0
  9
$USERR2
 40
0.0
  9
$USERR3
 40
0.0
  9
$USERR4
 40
0.0
  9
$USERR5
 40
0.0
  9
$WORLDVIEW
 70
     1
  9
$SHADEDGE
 70
     3
  9
$SHADEDIF
 70
    70
  9
$TILEMODE
 70
     1
  9
$MAXACTVP
 70
    64
  9
$PINSBASE
 10
0.0
 20
0.0
 30
0.0
  9
$PLIMCHECK
 70
     0
  9
$PEXTMIN
 10
1.000000000000000E+20
 20
1.000000000000000E+20
 30
1.000000000000000E+20
  9
$PEXTMAX
 10
-1.000000000000000E+20
 20
-1.000000000000000E+20
 30
-1.000000000000000E+20
  9
$PLIMMIN
 10
0.0
 20
0.0
  9
$PLIMMAX
 10
12.0
 20
9.0
  9
$UNITMODE
 70
     0
  9
$VISRETAIN
 70
     1
  9
$PLINEGEN
 70
     0
  9
$PSLTSCALE
 70
     1
  9
$TREEDEPTH
 70
  3020
  9
$CMLSTYLE
  2
Standard
  9
$CMLJUST
 70
     0
  9
$CMLSCALE
 40
1.0
  9
$PROXYGRAPHICS
 70
     1
  9
$MEASUREMENT
 70
     0
  9
$CELWEIGHT
370
    -1
  9
$ENDCAPS
280
     0
  9
$JOINSTYLE
280
     0
  9
$LWDISPLAY
290
     0
  9
$INSUNITS
 70
     5
  9
$HYPERLINKBASE
  1

  9
$STYLESHEET
  1

  9
$XEDIT
290
     1
  9
$CEPSNTYPE
380
     0
  9
$PSTYLEMODE
290
     1
  9
$FINGERPRINTGUID
  2
{9D6183FE-9856-46CA-8E8E-CBC9862747D8}
  9
$VERSIONGUID
  2
{FAEB1C32-E019-11D5-929B-00C0DF256EC4}
  9
$EXTNAMES
290
     1
  9
$PSVPSCALE
 40
0.0
  9
$OLESTARTUP
290
     0
  9
$SORTENTS
280
   127
  9
$INDEXCTL
280
     0
  9
$HIDETEXT
280
     1
  9
$XCLIPFRAME
290
     0
  9
$HALOGAP
280
     0
  9
$OBSCOLOR
 70
   257
  9
$OBSLTYPE
280
     0
  9
$INTERSECTIONDISPLAY
280
     0
  9
$INTERSECTIONCOLOR
 70
   257
  9
$DIMASSOC
280
     2
  9
$PROJECTNAME
  1

  9
$CAMERADISPLAY
290
     0
  9
$LENSLENGTH
 40
50.0
  9
$CAMERAHEIGHT
 40
0.0
  9
$STEPSPERSEC
 40
2.0
  9
$STEPSIZE
 40
6.0
  9
$3DDWFPREC
 40
2.0
  9
$PSOLWIDTH
 40
0.25
  9
$PSOLHEIGHT
 40
4.0
  9
$LOFTANG1
 40
1.570796326794897
  9
$LOFTANG2
 40
1.570796326794897
  9
$LOFTMAG1
 40
0.0
  9
$LOFTMAG2
 40
0.0
  9
$LOFTPARAM
 70
     7
  9
$LOFTNORMALS
280
     1
  9
$LATITUDE
 40
37.795
  9
$LONGITUDE
 40
-122.394
  9
$NORTHDIRECTION
 40
0.0
  9
$TIMEZONE
 70
 -8000
  9
$LIGHTGLYPHDISPLAY
280
     1
  9
$TILEMODELIGHTSYNCH
280
     1
  9
$SOLIDHIST
280
     1
  9
$SHOWHIST
280
     1
  9
$DWFFRAME
280
     2
  9
$DGNFRAME
280
     2
  9
$REALWORLDSCALE
290
     1
  9
$INTERFERECOLOR
 62
   256
  9
$CSHADOW
280
     0
  9
$SHADOWPLANELOCATION
 40
0.0
  0
ENDSEC
  0
SECTION
  2
CLASSES
  0
CLASS
  1
ACDBDICTIONARYWDFLT
  2
AcDbDictionaryWithDefault
  3
ObjectDBX Classes
 90
        0
 91
        4
280
     0
281
     0
  0
CLASS
  1
VISUALSTYLE
  2
AcDbVisualStyle
  3
ObjectDBX Classes
 90
     4095
 91
        4
280
     0
281
     0
  0
CLASS
  1
MATERIAL
  2
AcDbMaterial
  3
ObjectDBX Classes
 90
     1153
 91
        4
280
     0
281
     0
  0
ENDSEC
  0
SECTION
  2
TABLES
  0
TABLE
  2
VPORT
  5
8
330
0
100
AcDbSymbolTable
 70
     1
  0
VPORT
  5
29
330
8
100
AcDbSymbolTableRecord
100
AcDbViewportTableRecord
  2
*Active
 70
     0
 10
0.0
 20
0.0
 11
1.0
 21
1.0
 12
10.42990654205607
 22
4.5
 13
0.0
 23
0.0
 14
0.5
 24
0.5
 15
0.5
 25
0.5
 16
0.0
 26
0.0
 36
1.0
 17
0.0
 27
0.0
 37
0.0
 40
9.0
 41
1.972972972850329
 42
50.0
 43
0.0
 44
0.0
 50
0.0
 51
0.0
 71
     0
 72
   100
 73
     1
 74
     3
 75
     0
 76
     0
 77
     0
 78
     0
281
     0
 65
     1
110
0.0
120
0.0
130
0.0
111
1.0
121
0.0
131
0.0
112
0.0
122
1.0
132
0.0
 79
     0
146
0.0
 60
     3
 61
     5
292
     1
282
     1
141
0.0
142
0.0
 63
   250
  0
ENDTAB
  0
TABLE
  2
LTYPE
  5
5
330
0
100
AcDbSymbolTable
 70
     1
  0
LTYPE
  5
14
330
5
100
AcDbSymbolTableRecord
100
AcDbLinetypeTableRecord
  2
ByBlock
 70
     0
  3

 72
    65
 73
     0
 40
0.0
  0
LTYPE
  5
15
330
5
100
AcDbSymbolTableRecord
100
AcDbLinetypeTableRecord
  2
ByLayer
 70
     0
  3

 72
    65
 73
     0
 40
0.0
  0
LTYPE
  5
16
330
5
100
AcDbSymbolTableRecord
100
AcDbLinetypeTableRecord
  2
Continuous
 70
     0
  3
Solid line
 72
    65
 73
     0
 40
0.0
  0
ENDTAB
  0
TABLE
  2
LAYER
  5
2
330
0
100
AcDbSymbolTable
 70
     2
  0
LAYER
  5
10
330
2
100
AcDbSymbolTableRecord
100
AcDbLayerTableRecord
  2
0
 70
     0
 62
     7
  6
Continuous
370
    -3
390
F
347
3E
  0
LAYER
  5
40
330
2
100
AcDbSymbolTableRecord
100
AcDbLayerTableRecord
  2
Camada 1
 70
     0
 62
     7
  6
Continuous
370
    -3
390
F
347
3E
  0
ENDTAB
  0
TABLE
  2
STYLE
  5
3
330
0
100
AcDbSymbolTable
 70
     1
  0
STYLE
  5
11
330
3
100
AcDbSymbolTableRecord
100
AcDbTextStyleTableRecord
  2
Standard
 70
     0
 40
0.0
 41
1.0
 50
0.0
 71
     0
 42
0.2
  3
txt
  4

  0
ENDTAB
  0
TABLE
  2
VIEW
  5
6
330
0
100
AcDbSymbolTable
 70
     0
  0
ENDTAB
  0
TABLE
  2
UCS
  5
7
330
0
100
AcDbSymbolTable
 70
     0
  0
ENDTAB
  0
TABLE
  2
APPID
  5
9
330
0
100
AcDbSymbolTable
 70
     2
  0
APPID
  5
12
330
9
100
AcDbSymbolTableRecord
100
AcDbRegAppTableRecord
  2
ACAD
 70
     0
  0
APPID
  5
3F
330
9
100
AcDbSymbolTableRecord
100
AcDbRegAppTableRecord
  2
ODA
 70
     0
  0
ENDTAB
  0
TABLE
  2
DIMSTYLE
  5
A
330
0
100
AcDbSymbolTable
 70
     1
100
AcDbDimStyleTable
  0
DIMSTYLE
105
27
330
A
100
AcDbSymbolTableRecord
100
AcDbDimStyleTableRecord
  2
Standard
 70
     0
178
     0
340
11
  0
ENDTAB
  0
TABLE
  2
BLOCK_RECORD
  5
1
330
0
100
AcDbSymbolTable
 70
     1
  0
BLOCK_RECORD
  5
1F
330
1
100
AcDbSymbolTableRecord
100
AcDbBlockTableRecord
  2
*Model_Space
340
22
 70
     0
280
     1
281
     0
  0
BLOCK_RECORD
  5
1B
330
1
100
AcDbSymbolTableRecord
100
AcDbBlockTableRecord
  2
*Paper_Space
340
1E
 70
     0
280
     1
281
     0
  0
BLOCK_RECORD
  5
23
330
1
100
AcDbSymbolTableRecord
100
AcDbBlockTableRecord
  2
*Paper_Space0
340
26
 70
     0
280
     1
281
     0
  0
ENDTAB
  0
ENDSEC
  0
SECTION
  2
BLOCKS
  0
BLOCK
  5
20
330
1F
100
AcDbEntity
  8
0
100
AcDbBlockBegin
  2
*Model_Space
 70
     0
 10
0.0
 20
0.0
 30
0.0
  3
*Model_Space
  1

  0
ENDBLK
  5
21
330
1F
100
AcDbEntity
  8
0
100
AcDbBlockEnd
  0
BLOCK
  5
1C
330
1B
100
AcDbEntity
 67
     1
  8
0
100
AcDbBlockBegin
  2
*Paper_Space
 70
     0
 10
0.0
 20
0.0
 30
0.0
  3
*Paper_Space
  1

  0
ENDBLK
  5
1D
330
1B
100
AcDbEntity
 67
     1
  8
0
100
AcDbBlockEnd
  0
BLOCK
  5
24
330
23
100
AcDbEntity
  8
0
100
AcDbBlockBegin
  2
*Paper_Space0
 70
     0
 10
0.0
 20
0.0
 30
0.0
  3
*Paper_Space0
  1

  0
ENDBLK
  5
25
330
23
100
AcDbEntity
  8
0
100
AcDbBlockEnd
  0
ENDSEC
  0
SECTION
  2
ENTITIES
  0
SPLINE
  5
41
330
1F
100
AcDbEntity
  8
Camada 1
100
AcDbSpline
210
0.0
220
0.0
230
1.0
 70
    11
 71
     3
 72
   392
 73
   388
 74
     0
 42
0.0000000001
 43
0.0000000001
 12
1.0
 22
0.0
 32
0.0
 13
1.0
 23
0.0
 33
0.0
 40
0.0
 40
0.0
 40
0.0
 40
0.0
 40
0.0102040816326531
 40
0.0102040816326531
 40
0.0102040816326531
 40
0.0102040816326531
 40
0.0204081632653061
 40
0.0204081632653061
 40
0.0204081632653061
 40
0.0204081632653061
 40
0.0306122448979592
 40
0.0306122448979592
 40
0.0306122448979592
 40
0.0306122448979592
 40
0.0408163265306122
 40
0.0408163265306122
 40
0.0408163265306122
 40
0.0408163265306122
 40
0.0510204081632653
 40
0.0510204081632653
 40
0.0510204081632653
 40
0.0510204081632653
 40
0.0612244897959184
 40
0.0612244897959184
 40
0.0612244897959184
 40
0.0612244897959184
 40
0.0714285714285714
 40
0.0714285714285714
 40
0.0714285714285714
 40
0.0714285714285714
 40
0.0816326530612245
 40
0.0816326530612245
 40
0.0816326530612245
 40
0.0816326530612245
 40
0.0918367346938776
 40
0.0918367346938776
 40
0.0918367346938776
 40
0.0918367346938776
 40
0.1020408163265306
 40
0.1020408163265306
 40
0.1020408163265306
 40
0.1020408163265306
 40
0.1122448979591837
 40
0.1122448979591837
 40
0.1122448979591837
 40
0.1122448979591837
 40
0.1224489795918367
 40
0.1224489795918367
 40
0.1224489795918367
 40
0.1224489795918367
 40
0.1326530612244898
 40
0.1326530612244898
 40
0.1326530612244898
 40
0.1326530612244898
 40
0.1428571428571428
 40
0.1428571428571428
 40
0.1428571428571428
 40
0.1428571428571428
 40
0.1530612244897959
 40
0.1530612244897959
 40
0.1530612244897959
 40
0.1530612244897959
 40
0.163265306122449
 40
0.163265306122449
 40
0.163265306122449
 40
0.163265306122449
 40
0.173469387755102
 40
0.173469387755102
 40
0.173469387755102
 40
0.173469387755102
 40
0.1836734693877551
 40
0.1836734693877551
 40
0.1836734693877551
 40
0.1836734693877551
 40
0.1938775510204082
 40
0.1938775510204082
 40
0.1938775510204082
 40
0.1938775510204082
 40
0.2040816326530612
 40
0.2040816326530612
 40
0.2040816326530612
 40
0.2040816326530612
 40
0.2142857142857143
 40
0.2142857142857143
 40
0.2142857142857143
 40
0.2142857142857143
 40
0.2244897959183673
 40
0.2244897959183673
 40
0.2244897959183673
 40
0.2244897959183673
 40
0.2346938775510204
 40
0.2346938775510204
 40
0.2346938775510204
 40
0.2346938775510204
 40
0.2448979591836735
 40
0.2448979591836735
 40
0.2448979591836735
 40
0.2448979591836735
 40
0.2551020408163265
 40
0.2551020408163265
 40
0.2551020408163265
 40
0.2551020408163265
 40
0.2653061224489796
 40
0.2653061224489796
 40
0.2653061224489796
 40
0.2653061224489796
 40
0.2755102040816326
 40
0.2755102040816326
 40
0.2755102040816326
 40
0.2755102040816326
 40
0.2857142857142857
 40
0.2857142857142857
 40
0.2857142857142857
 40
0.2857142857142857
 40
0.2959183673469388
 40
0.2959183673469388
 40
0.2959183673469388
 40
0.2959183673469388
 40
0.3061224489795918
 40
0.3061224489795918
 40
0.3061224489795918
 40
0.3061224489795918
 40
0.3163265306122449
 40
0.3163265306122449
 40
0.3163265306122449
 40
0.3163265306122449
 40
0.3265306122448979
 40
0.3265306122448979
 40
0.3265306122448979
 40
0.3265306122448979
 40
0.336734693877551
 40
0.336734693877551
 40
0.336734693877551
 40
0.336734693877551
 40
0.3469387755102041
 40
0.3469387755102041
 40
0.3469387755102041
 40
0.3469387755102041
 40
0.3571428571428572
 40
0.3571428571428572
 40
0.3571428571428572
 40
0.3571428571428572
 40
0.3673469387755102
 40
0.3673469387755102
 40
0.3673469387755102
 40
0.3673469387755102
 40
0.3775510204081632
 40
0.3775510204081632
 40
0.3775510204081632
 40
0.3775510204081632
 40
0.3877551020408163
 40
0.3877551020408163
 40
0.3877551020408163
 40
0.3877551020408163
 40
0.3979591836734694
 40
0.3979591836734694
 40
0.3979591836734694
 40
0.3979591836734694
 40
0.4081632653061225
 40
0.4081632653061225
 40
0.4081632653061225
 40
0.4081632653061225
 40
0.4183673469387755
 40
0.4183673469387755
 40
0.4183673469387755
 40
0.4183673469387755
 40
0.4285714285714285
 40
0.4285714285714285
 40
0.4285714285714285
 40
0.4285714285714285
 40
0.4387755102040816
 40
0.4387755102040816
 40
0.4387755102040816
 40
0.4387755102040816
 40
0.4489795918367347
 40
0.4489795918367347
 40
0.4489795918367347
 40
0.4489795918367347
 40
0.4591836734693878
 40
0.4591836734693878
 40
0.4591836734693878
 40
0.4591836734693878
 40
0.4693877551020408
 40
0.4693877551020408
 40
0.4693877551020408
 40
0.4693877551020408
 40
0.4795918367346939
 40
0.4795918367346939
 40
0.4795918367346939
 40
0.4795918367346939
 40
0.4897959183673469
 40
0.4897959183673469
 40
0.4897959183673469
 40
0.4897959183673469
 40
0.5
 40
0.5
 40
0.5
 40
0.5
 40
0.5102040816326531
 40
0.5102040816326531
 40
0.5102040816326531
 40
0.5102040816326531
 40
0.5204081632653061
 40
0.5204081632653061
 40
0.5204081632653061
 40
0.5204081632653061
 40
0.5306122448979592
 40
0.5306122448979592
 40
0.5306122448979592
 40
0.5306122448979592
 40
0.5408163265306123
 40
0.5408163265306123
 40
0.5408163265306123
 40
0.5408163265306123
 40
0.5510204081632653
 40
0.5510204081632653
 40
0.5510204081632653
 40
0.5510204081632653
 40
0.5612244897959183
 40
0.5612244897959183
 40
0.5612244897959183
 40
0.5612244897959183
 40
0.5714285714285714
 40
0.5714285714285714
 40
0.5714285714285714
 40
0.5714285714285714
 40
0.5816326530612245
 40
0.5816326530612245
 40
0.5816326530612245
 40
0.5816326530612245
 40
0.5918367346938775
 40
0.5918367346938775
 40
0.5918367346938775
 40
0.5918367346938775
 40
0.6020408163265306
 40
0.6020408163265306
 40
0.6020408163265306
 40
0.6020408163265306
 40
0.6122448979591837
 40
0.6122448979591837
 40
0.6122448979591837
 40
0.6122448979591837
 40
0.6224489795918368
 40
0.6224489795918368
 40
0.6224489795918368
 40
0.6224489795918368
 40
0.6326530612244898
 40
0.6326530612244898
 40
0.6326530612244898
 40
0.6326530612244898
 40
0.6428571428571429
 40
0.6428571428571429
 40
0.6428571428571429
 40
0.6428571428571429
 40
0.6530612244897959
 40
0.6530612244897959
 40
0.6530612244897959
 40
0.6530612244897959
 40
0.6632653061224489
 40
0.6632653061224489
 40
0.6632653061224489
 40
0.6632653061224489
 40
0.673469387755102
 40
0.673469387755102
 40
0.673469387755102
 40
0.673469387755102
 40
0.6836734693877551
 40
0.6836734693877551
 40
0.6836734693877551
 40
0.6836734693877551
 40
0.6938775510204082
 40
0.6938775510204082
 40
0.6938775510204082
 40
0.6938775510204082
 40
0.7040816326530612
 40
0.7040816326530612
 40
0.7040816326530612
 40
0.7040816326530612
 40
0.7142857142857143
 40
0.7142857142857143
 40
0.7142857142857143
 40
0.7142857142857143
 40
0.7244897959183674
 40
0.7244897959183674
 40
0.7244897959183674
 40
0.7244897959183674
 40
0.7346938775510204
 40
0.7346938775510204
 40
0.7346938775510204
 40
0.7346938775510204
 40
0.7448979591836735
 40
0.7448979591836735
 40
0.7448979591836735
 40
0.7448979591836735
 40
0.7551020408163265
 40
0.7551020408163265
 40
0.7551020408163265
 40
0.7551020408163265
 40
0.7653061224489796
 40
0.7653061224489796
 40
0.7653061224489796
 40
0.7653061224489796
 40
0.7755102040816326
 40
0.7755102040816326
 40
0.7755102040816326
 40
0.7755102040816326
 40
0.7857142857142857
 40
0.7857142857142857
 40
0.7857142857142857
 40
0.7857142857142857
 40
0.7959183673469388
 40
0.7959183673469388
 40
0.7959183673469388
 40
0.7959183673469388
 40
0.8061224489795918
 40
0.8061224489795918
 40
0.8061224489795918
 40
0.8061224489795918
 40
0.8163265306122449
 40
0.8163265306122449
 40
0.8163265306122449
 40
0.8163265306122449
 40
0.826530612244898
 40
0.826530612244898
 40
0.826530612244898
 40
0.826530612244898
 40
0.8367346938775511
 40
0.8367346938775511
 40
0.8367346938775511
 40
0.8367346938775511
 40
0.8469387755102041
 40
0.8469387755102041
 40
0.8469387755102041
 40
0.8469387755102041
 40
0.8571428571428571
 40
0.8571428571428571
 40
0.8571428571428571
 40
0.8571428571428571
 40
0.8673469387755102
 40
0.8673469387755102
 40
0.8673469387755102
 40
0.8673469387755102
 40
0.8775510204081632
 40
0.8775510204081632
 40
0.8775510204081632
 40
0.8775510204081632
 40
0.8877551020408163
 40
0.8877551020408163
 40
0.8877551020408163
 40
0.8877551020408163
 40
0.8979591836734694
 40
0.8979591836734694
 40
0.8979591836734694
 40
0.8979591836734694
 40
0.9081632653061225
 40
0.9081632653061225
 40
0.9081632653061225
 40
0.9081632653061225
 40
0.9183673469387755
 40
0.9183673469387755
 40
0.9183673469387755
 40
0.9183673469387755
 40
0.9285714285714286
 40
0.9285714285714286
 40
0.9285714285714286
 40
0.9285714285714286
 40
0.9387755102040817
 40
0.9387755102040817
 40
0.9387755102040817
 40
0.9387755102040817
 40
0.9489795918367347
 40
0.9489795918367347
 40
0.9489795918367347
 40
0.9489795918367347
 40
0.9591836734693877
 40
0.9591836734693877
 40
0.9591836734693877
 40
0.9591836734693877
 40
0.9693877551020408
 40
0.9693877551020408
 40
0.9693877551020408
 40
0.9693877551020408
 40
0.9795918367346939
 40
0.9795918367346939
 40
0.9795918367346939
 40
0.9795918367346939
 40
1.0
 40
1.0
 40
1.0
 40
1.0
 10
-6.24123
 20
3.5022
 30
0.0
 10
-6.17844
 20
3.50191
 30
0.0
 10
-6.00199
 20
3.50156
 30
0.0
 10
-5.96389
 20
3.50069
 30
0.0
 10
-5.96389
 20
3.50069
 30
0.0
 10
-5.92576
 20
3.49984
 30
0.0
 10
-5.75638
 20
3.50143
 30
0.0
 10
-5.69915
 20
3.50212
 30
0.0
 10
-5.69915
 20
3.50212
 30
0.0
 10
-5.64187
 20
3.50283
 30
0.0
 10
-5.47251
 20
3.5044
 30
0.0
 10
-5.43285
 20
3.50273
 30
0.0
 10
-5.43285
 20
3.50273
 30
0.0
 10
-5.39319
 20
3.50104
 30
0.0
 10
-5.1938
 20
3.49807
 30
0.0
 10
-5.15258
 20
3.49556
 30
0.0
 10
-5.15258
 20
3.49556
 30
0.0
 10
-5.20502
 20
3.49879
 30
0.0
 10
-5.03606
 20
3.50048
 30
0.0
 10
-4.82955
 20
3.50072
 30
0.0
 10
-4.82955
 20
3.50072
 30
0.0
 10
-4.62529
 20
3.50098
 30
0.0
 10
-4.38428
 20
3.49985
 30
0.0
 10
-4.28451
 20
3.49749
 30
0.0
 10
-4.28451
 20
3.49749
 30
0.0
 10
-4.24244
 20
3.49648
 30
0.0
 10
-3.97839
 20
3.50032
 30
0.0
 10
-3.92904
 20
3.50138
 30
0.0
 10
-3.92904
 20
3.50138
 30
0.0
 10
-3.87972
 20
3.50246
 30
0.0
 10
-3.59286
 20
3.49974
 30
0.0
 10
-3.55391
 20
3.50048
 30
0.0
 10
-3.55391
 20
3.50048
 30
0.0
 10
-3.51494
 20
3.50122
 30
0.0
 10
-3.22948
 20
3.50334
 30
0.0
 10
-3.18654
 20
3.50389
 30
0.0
 10
-3.18654
 20
3.50389
 30
0.0
 10
-3.1436
 20
3.50445
 30
0.0
 10
-2.80504
 20
3.50355
 30
0.0
 10
-2.7685
 20
3.50355
 30
0.0
 10
-2.7685
 20
3.50355
 30
0.0
 10
-2.73193
 20
3.5036
 30
0.0
 10
-2.50926
 20
3.50604
 30
0.0
 10
-2.46717
 20
3.50503
 30
0.0
 10
-2.46717
 20
3.50503
 30
0.0
 10
-2.42507
 20
3.50408
 30
0.0
 10
-2.25741
 20
3.50241
 30
0.0
 10
-2.22399
 20
3.50424
 30
0.0
 10
-2.22399
 20
3.50424
 30
0.0
 10
-2.19052
 20
3.50596
 30
0.0
 10
-2.17121
 20
3.51152
 30
0.0
 10
-2.15798
 20
3.50617
 30
0.0
 10
-2.15798
 20
3.50617
 30
0.0
 10
-2.14467
 20
3.50083
 30
0.0
 10
-1.98939
 20
3.4513
 30
0.0
 10
-1.9456
 20
3.43513
 30
0.0
 10
-1.9456
 20
3.43513
 30
0.0
 10
-1.90176
 20
3.41896
 30
0.0
 10
-1.74557
 20
3.37099
 30
0.0
 10
-1.71507
 20
3.36009
 30
0.0
 10
-1.71507
 20
3.36009
 30
0.0
 10
-1.68456
 20
3.34929
 30
0.0
 10
-1.65813
 20
3.33466
 30
0.0
 10
-1.64898
 20
3.34379
 30
0.0
 10
-1.64898
 20
3.34379
 30
0.0
 10
-1.63985
 20
3.35297
 30
0.0
 10
-1.60278
 20
3.3649
 30
0.0
 10
-1.57847
 20
3.35752
 30
0.0
 10
-1.57847
 20
3.35752
 30
0.0
 10
-1.55413
 20
3.35014
 30
0.0
 10
-1.52344
 20
3.34323
 30
0.0
 10
-1.52344
 20
3.34323
 30
0.0
 10
-1.52344
 20
3.34323
 30
0.0
 10
-1.52344
 20
3.34323
 30
0.0
 10
-1.49103
 20
3.35776
 30
0.0
 10
-1.4714
 20
3.35291
 30
0.0
 10
-1.4714
 20
3.35291
 30
0.0
 10
-1.45171
 20
3.34809
 30
0.0
 10
-1.41322
 20
3.33693
 30
0.0
 10
-1.40134
 20
3.3364
 30
0.0
 10
-1.40134
 20
3.3364
 30
0.0
 10
-1.38946
 20
3.3359
 30
0.0
 10
-1.36771
 20
3.34217
 30
0.0
 10
-1.35427
 20
3.34077
 30
0.0
 10
-1.35427
 20
3.34077
 30
0.0
 10
-1.34078
 20
3.33939
 30
0.0
 10
-1.33096
 20
3.32788
 30
0.0
 10
-1.32601
 20
3.35151
 30
0.0
 10
-1.32601
 20
3.35151
 30
0.0
 10
-1.32104
 20
3.37514
 30
0.0
 10
-1.30191
 20
3.41324
 30
0.0
 10
-1.28455
 20
3.43001
 30
0.0
 10
-1.28455
 20
3.43001
 30
0.0
 10
-1.26714
 20
3.44673
 30
0.0
 10
-1.26127
 20
3.47189
 30
0.0
 10
-1.23005
 20
3.47692
 30
0.0
 10
-1.23005
 20
3.47692
 30
0.0
 10
-1.19888
 20
3.48195
 30
0.0
 10
-1.1792
 20
3.47718
 30
0.0
 10
-1.16007
 20
3.47869
 30
0.0
 10
-1.16007
 20
3.47869
 30
0.0
 10
-1.14089
 20
3.48025
 30
0.0
 10
-1.11967
 20
3.47459
 30
0.0
 10
-1.09175
 20
3.47739
 30
0.0
 10
-1.09175
 20
3.47739
 30
0.0
 10
-1.06376
 20
3.48014
 30
0.0
 10
-1.04841
 20
3.46755
 30
0.0
 10
-1.03759
 20
3.47982
 30
0.0
 10
-1.03759
 20
3.47982
 30
0.0
 10
-1.02674
 20
3.4921
 30
0.0
 10
-1.00952
 20
3.52316
 30
0.0
 10
-0.96914
 20
3.519
 30
0.0
 10
-0.96914
 20
3.519
 30
0.0
 10
-0.92876
 20
3.51493
 30
0.0
 10
-0.8596
 20
3.51514
 30
0.0
 10
-0.82857
 20
3.5162
 30
0.0
 10
-0.82857
 20
3.5162
 30
0.0
 10
-0.79756
 20
3.51726
 30
0.0
 10
-0.78341
 20
3.5135
 30
0.0
 10
-0.7675
 20
3.51279
 30
0.0
 10
-0.7675
 20
3.51279
 30
0.0
 10
-0.75162
 20
3.51215
 30
0.0
 10
-0.68924
 20
3.52218
 30
0.0
 10
-0.66265
 20
3.51152
 30
0.0
 10
-0.66265
 20
3.51152
 30
0.0
 10
-0.63606
 20
3.50086
 30
0.0
 10
-0.59928
 20
3.45003
 30
0.0
 10
-0.58809
 20
3.43363
 30
0.0
 10
-0.58809
 20
3.43363
 30
0.0
 10
-0.57685
 20
3.41728
 30
0.0
 10
-0.54316
 20
3.36817
 30
0.0
 10
-0.54454
 20
3.35473
 30
0.0
 10
-0.54454
 20
3.35473
 30
0.0
 10
-0.54589
 20
3.34126
 30
0.0
 10
-0.52845
 20
3.30319
 30
0.0
 10
-0.5203
 20
3.27027
 30
0.0
 10
-0.5203
 20
3.27027
 30
0.0
 10
-0.51215
 20
3.23735
 30
0.0
 10
-0.49543
 20
3.23823
 30
0.0
 10
-0.47469
 20
3.20235
 30
0.0
 10
-0.47469
 20
3.20235
 30
0.0
 10
-0.45395
 20
3.16653
 30
0.0
 10
-0.42685
 20
3.13115
 30
0.0
 10
-0.41989
 20
3.10702
 30
0.0
 10
-0.41989
 20
3.10702
 30
0.0
 10
-0.41605
 20
3.09363
 30
0.0
 10
-0.39232
 20
3.02974
 30
0.0
 10
-0.37531
 20
2.96301
 30
0.0
 10
-0.37531
 20
2.96301
 30
0.0
 10
-0.36166
 20
2.90951
 30
0.0
 10
-0.35375
 20
2.84911
 30
0.0
 10
-0.35375
 20
2.84911
 30
0.0
 10
-0.35375
 20
2.84911
 30
0.0
 10
-0.35375
 20
2.84911
 30
0.0
 10
0.67212
 20
2.86104
 30
0.0
 10
0.67212
 20
2.86104
 30
0.0
 10
0.67212
 20
2.86104
 30
0.0
 10
0.67212
 20
2.86104
 30
0.0
 10
1.60377
 20
2.86424
 30
0.0
 10
1.65314
 20
2.86533
 30
0.0
 10
1.65314
 20
2.86533
 30
0.0
 10
1.70243
 20
2.86639
 30
0.0
 10
2.73039
 20
2.87107
 30
0.0
 10
2.77881
 20
2.87057
 30
0.0
 10
2.77881
 20
2.87057
 30
0.0
 10
2.82728
 20
2.87009
 30
0.0
 10
4.27625
 20
2.887
 30
0.0
 10
4.3493
 20
2.88708
 30
0.0
 10
4.3493
 20
2.88708
 30
0.0
 10
4.42248
 20
2.88713
 30
0.0
 10
6.20583
 20
2.86282
 30
0.0
 10
6.26158
 20
2.86441
 30
0.0
 10
6.26158
 20
2.86441
 30
0.0
 10
6.31727
 20
2.866
 30
0.0
 10
7.26866
 20
2.86436
 30
0.0
 10
7.27956
 20
2.85835
 30
0.0
 10
7.27956
 20
2.85835
 30
0.0
 10
7.29041
 20
2.85232
 30
0.0
 10
7.40757
 20
2.78535
 30
0.0
 10
7.43553
 20
2.76985
 30
0.0
 10
7.43553
 20
2.76985
 30
0.0
 10
7.46349
 20
2.75435
 30
0.0
 10
7.52287
 20
2.72955
 30
0.0
 10
7.54065
 20
2.71762
 30
0.0
 10
7.54065
 20
2.71762
 30
0.0
 10
7.55843
 20
2.70579
 30
0.0
 10
7.56743
 20
2.67439
 30
0.0
 10
7.55502
 20
2.66301
 30
0.0
 10
7.55502
 20
2.66301
 30
0.0
 10
7.54261
 20
2.65163
 30
0.0
 10
7.49382
 20
2.62592
 30
0.0
 10
7.47006
 20
2.60864
 30
0.0
 10
7.47006
 20
2.60864
 30
0.0
 10
7.4463
 20
2.59136
 30
0.0
 10
7.36917
 20
2.53667
 30
0.0
 10
7.34438
 20
2.53212
 30
0.0
 10
7.34438
 20
2.53212
 30
0.0
 10
7.31956
 20
2.5276
 30
0.0
 10
7.29146
 20
2.50259
 30
0.0
 10
7.28268
 20
2.50138
 30
0.0
 10
7.28268
 20
2.50138
 30
0.0
 10
7.2739
 20
2.50017
 30
0.0
 10
6.23157
 20
2.5136
 30
0.0
 10
6.23157
 20
2.5136
 30
0.0
 10
6.23157
 20
2.5136
 30
0.0
 10
6.23157
 20
2.5136
 30
0.0
 10
5.0229
 20
2.51982
 30
0.0
 10
5.0229
 20
2.51982
 30
0.0
 10
5.0229
 20
2.51982
 30
0.0
 10
5.0229
 20
2.51982
 30
0.0
 10
4.04844
 20
2.52001
 30
0.0
 10
4.04844
 20
2.52001
 30
0.0
 10
4.04844
 20
2.52001
 30
0.0
 10
4.04844
 20
2.52001
 30
0.0
 10
2.91446
 20
2.5072
 30
0.0
 10
2.91446
 20
2.5072
 30
0.0
 10
2.91446
 20
2.5072
 30
0.0
 10
2.91446
 20
2.5072
 30
0.0
 10
1.85758
 20
2.49421
 30
0.0
 10
1.85758
 20
2.49421
 30
0.0
 10
1.85758
 20
2.49421
 30
0.0
 10
1.85758
 20
2.49421
 30
0.0
 10
0.56594
 20
2.47537
 30
0.0
 10
0.56594
 20
2.47537
 30
0.0
 10
0.56594
 20
2.47537
 30
0.0
 10
0.56594
 20
2.47537
 30
0.0
 10
-0.35174
 20
2.46442
 30
0.0
 10
-0.35174
 20
2.46442
 30
0.0
 10
-0.35174
 20
2.46442
 30
0.0
 10
-0.35174
 20
2.46442
 30
0.0
 10
-0.37383
 20
2.33282
 30
0.0
 10
-0.41127
 20
2.22069
 30
0.0
 10
-0.41127
 20
2.22069
 30
0.0
 10
-0.44088
 20
2.1319
 30
0.0
 10
-0.49192
 20
2.06509
 30
0.0
 10
-0.49192
 20
2.06509
 30
0.0
 10
-0.49192
 20
2.06509
 30
0.0
 10
-0.49192
 20
2.06509
 30
0.0
 10
-0.49343
 20
2.02937
 30
0.0
 10
-0.49943
 20
2.01852
 30
0.0
 10
-0.49943
 20
2.01852
 30
0.0
 10
-0.50549
 20
2.00765
 30
0.0
 10
-0.57754
 20
1.84464
 30
0.0
 10
-0.58566
 20
1.84101
 30
0.0
 10
-0.58566
 20
1.84101
 30
0.0
 10
-0.59378
 20
1.83738
 30
0.0
 10
-0.65271
 20
1.83355
 30
0.0
 10
-0.68861
 20
1.83106
 30
0.0
 10
-0.68861
 20
1.83106
 30
0.0
 10
-0.72449
 20
1.82863
 30
0.0
 10
-0.7768
 20
1.83326
 30
0.0
 10
-0.7768
 20
1.83326
 30
0.0
 10
-0.7768
 20
1.83326
 30
0.0
 10
-0.7768
 20
1.83326
 30
0.0
 10
-0.78762
 20
1.82098
 30
0.0
 10
-0.80262
 20
1.80492
 30
0.0
 10
-0.80262
 20
1.80492
 30
0.0
 10
-0.81762
 20
1.78894
 30
0.0
 10
-0.81982
 20
1.77391
 30
0.0
 10
-0.83916
 20
1.76838
 30
0.0
 10
-0.83916
 20
1.76838
 30
0.0
 10
-0.85847
 20
1.76282
 30
0.0
 10
-0.95452
 20
1.76539
 30
0.0
 10
-0.98489
 20
1.7619
 30
0.0
 10
-0.98489
 20
1.7619
 30
0.0
 10
-1.01526
 20
1.75841
 30
0.0
 10
-1.11819
 20
1.74849
 30
0.0
 10
-1.14425
 20
1.7528
 30
0.0
 10
-1.14425
 20
1.7528
 30
0.0
 10
-1.17026
 20
1.75706
 30
0.0
 10
-1.2355
 20
1.81151
 30
0.0
 10
-1.25749
 20
1.85615
 30
0.0
 10
-1.25749
 20
1.85615
 30
0.0
 10
-1.27942
 20
1.90081
 30
0.0
 10
-1.28641
 20
1.96143
 30
0.0
 10
-1.28641
 20
1.96143
 30
0.0
 10
-1.28641
 20
1.96143
 30
0.0
 10
-1.28641
 20
1.96143
 30
0.0
 10
-1.31229
 20
1.95146
 30
0.0
 10
-1.33851
 20
1.95177
 30
0.0
 10
-1.33851
 20
1.95177
 30
0.0
 10
-1.36468
 20
1.95211
 30
0.0
 10
-1.38508
 20
1.95934
 30
0.0
 10
-1.38508
 20
1.95934
 30
0.0
 10
-1.38508
 20
1.95934
 30
0.0
 10
-1.38508
 20
1.95934
 30
0.0
 10
-1.41794
 20
1.93291
 30
0.0
 10
-1.45213
 20
1.93354
 30
0.0
 10
-1.45213
 20
1.93354
 30
0.0
 10
-1.48631
 20
1.93423
 30
0.0
 10
-1.50751
 20
1.93992
 30
0.0
 10
-1.50751
 20
1.93992
 30
0.0
 10
-1.50751
 20
1.93992
 30
0.0
 10
-1.50751
 20
1.93992
 30
0.0
 10
-1.5499
 20
1.91465
 30
0.0
 10
-1.58458
 20
1.92172
 30
0.0
 10
-1.58458
 20
1.92172
 30
0.0
 10
-1.61927
 20
1.92876
 30
0.0
 10
-1.63911
 20
1.94786
 30
0.0
 10
-1.63911
 20
1.94786
 30
0.0
 10
-1.63911
 20
1.94786
 30
0.0
 10
-1.63911
 20
1.94786
 30
0.0
 10
-1.95259
 20
1.82933
 30
0.0
 10
-2.01186
 20
1.81753
 30
0.0
 10
-2.01186
 20
1.81753
 30
0.0
 10
-2.07121
 20
1.80573
 30
0.0
 10
-2.23017
 20
1.76803
 30
0.0
 10
-2.23017
 20
1.76803
 30
0.0
 10
-2.23017
 20
1.76803
 30
0.0
 10
-2.23017
 20
1.76803
 30
0.0
 10
-2.29862
 20
1.74707
 30
0.0
 10
-2.33571
 20
1.73514
 30
0.0
 10
-2.33571
 20
1.73514
 30
0.0
 10
-2.37273
 20
1.72321
 30
0.0
 10
-2.44191
 20
1.72297
 30
0.0
 10
-2.47917
 20
1.7254
 30
0.0
 10
-2.47917
 20
1.7254
 30
0.0
 10
-2.51642
 20
1.72775
 30
0.0
 10
-2.62871
 20
1.72299
 30
0.0
 10
-2.67718
 20
1.72349
 30
0.0
 10
-2.67718
 20
1.72349
 30
0.0
 10
-2.73256
 20
1.72405
 30
0.0
 10
-3.1456
 20
1.71177
 30
0.0
 10
-3.19182
 20
1.71444
 30
0.0
 10
-3.19182
 20
1.71444
 30
0.0
 10
-3.24386
 20
1.71743
 30
0.0
 10
-3.68532
 20
1.70047
 30
0.0
 10
-3.7344
 20
1.70259
 30
0.0
 10
-3.7344
 20
1.70259
 30
0.0
 10
-3.74154
 20
1.70293
 30
0.0
 10
-4.25171
 20
1.69084
 30
0.0
 10
-4.36771
 20
1.68828
 30
0.0
 10
-4.36771
 20
1.68828
 30
0.0
 10
-4.41989
 20
1.68709
 30
0.0
 10
-5.03877
 20
1.68018
 30
0.0
 10
-5.14725
 20
1.67381
 30
0.0
 10
-5.14725
 20
1.67381
 30
0.0
 10
-5.20162
 20
1.67061
 30
0.0
 10
-5.39011
 20
1.66421
 30
0.0
 10
-5.56757
 20
1.66362
 30
0.0
 10
-5.56757
 20
1.66362
 30
0.0
 10
-5.65128
 20
1.66338
 30
0.0
 10
-5.79948
 20
1.6573
 30
0.0
 10
-5.92767
 20
1.65687
 30
0.0
 10
-5.92767
 20
1.65687
 30
0.0
 10
-6.05732
 20
1.65645
 30
0.0
 10
-6.1741
 20
1.65565
 30
0.0
 10
-6.20606
 20
1.65375
 30
0.0
 10
-6.20606
 20
1.65375
 30
0.0
 10
-6.269
 20
1.65005
 30
0.0
 10
-6.41455
 20
1.64756
 30
0.0
 10
-6.46784
 20
1.64663
 30
0.0
 10
-6.46784
 20
1.64663
 30
0.0
 10
-6.52115
 20
1.64576
 30
0.0
 10
-6.57822
 20
1.63068
 30
0.0
 10
-6.59788
 20
1.63552
 30
0.0
 10
-6.59788
 20
1.63552
 30
0.0
 10
-6.61754
 20
1.64031
 30
0.0
 10
-6.6296
 20
1.61853
 30
0.0
 10
-6.69054
 20
1.66248
 30
0.0
 10
-6.69054
 20
1.66248
 30
0.0
 10
-6.75148
 20
1.70643
 30
0.0
 10
-6.96791
 20
1.94219
 30
0.0
 10
-7.03913
 20
2.26792
 30
0.0
 10
-7.03913
 20
2.26792
 30
0.0
 10
-7.05416
 20
2.33666
 30
0.0
 10
-7.10345
 20
2.58772
 30
0.0
 10
-7.02794
 20
2.92546
 30
0.0
 10
-7.02794
 20
2.92546
 30
0.0
 10
-7.00341
 20
3.03505
 30
0.0
 10
-6.95611
 20
3.17586
 30
0.0
 10
-6.84591
 20
3.31977
 30
0.0
 10
-6.84591
 20
3.31977
 30
0.0
 10
-6.78254
 20
3.40251
 30
0.0
 10
-6.69843
 20
3.47955
 30
0.0
 10
-6.66483
 20
3.48535
 30
0.0
 10
-6.66483
 20
3.48535
 30
0.0
 10
-6.6312
 20
3.49104
 30
0.0
 10
-6.52182
 20
3.48318
 30
0.0
 10
-6.52182
 20
3.48318
 30
0.0
 10
-6.52182
 20
3.48318
 30
0.0
 10
-6.52182
 20
3.48318
 30
0.0
 10
-6.47049
 20
3.51358
 30
0.0
 10
-6.44131
 20
3.50757
 30
0.0
 10
-6.44131
 20
3.50757
 30
0.0
 10
-6.41212
 20
3.50156
 30
0.0
 10
-6.30402
 20
3.50254
 30
0.0
 10
-6.24123
 20
3.5022
 30
0.0
  0
SPLINE
  5
42
330
1F
100
AcDbEntity
  8
Camada 1
100
AcDbSpline
210
0.0
220
0.0
230
1.0
 70
    11
 71
     3
 72
   496
 73
   492
 74
     0
 42
0.0000000001
 43
0.0000000001
 12
1.0
 22
0.0
 32
0.0
 13
1.0
 23
0.0
 33
0.0
 40
0.0
 40
0.0
 40
0.0
 40
0.0
 40
0.0080645161290323
 40
0.0080645161290323
 40
0.0080645161290323
 40
0.0080645161290323
 40
0.0161290322580645
 40
0.0161290322580645
 40
0.0161290322580645
 40
0.0161290322580645
 40
0.0241935483870968
 40
0.0241935483870968
 40
0.0241935483870968
 40
0.0241935483870968
 40
0.032258064516129
 40
0.032258064516129
 40
0.032258064516129
 40
0.032258064516129
 40
0.0403225806451613
 40
0.0403225806451613
 40
0.0403225806451613
 40
0.0403225806451613
 40
0.0483870967741935
 40
0.0483870967741935
 40
0.0483870967741935
 40
0.0483870967741935
 40
0.0564516129032258
 40
0.0564516129032258
 40
0.0564516129032258
 40
0.0564516129032258
 40
0.0645161290322581
 40
0.0645161290322581
 40
0.0645161290322581
 40
0.0645161290322581
 40
0.0725806451612903
 40
0.0725806451612903
 40
0.0725806451612903
 40
0.0725806451612903
 40
0.0806451612903226
 40
0.0806451612903226
 40
0.0806451612903226
 40
0.0806451612903226
 40
0.0887096774193548
 40
0.0887096774193548
 40
0.0887096774193548
 40
0.0887096774193548
 40
0.0967741935483871
 40
0.0967741935483871
 40
0.0967741935483871
 40
0.0967741935483871
 40
0.1048387096774194
 40
0.1048387096774194
 40
0.1048387096774194
 40
0.1048387096774194
 40
0.1129032258064516
 40
0.1129032258064516
 40
0.1129032258064516
 40
0.1129032258064516
 40
0.1209677419354839
 40
0.1209677419354839
 40
0.1209677419354839
 40
0.1209677419354839
 40
0.1290322580645161
 40
0.1290322580645161
 40
0.1290322580645161
 40
0.1290322580645161
 40
0.1370967741935484
 40
0.1370967741935484
 40
0.1370967741935484
 40
0.1370967741935484
 40
0.1451612903225807
 40
0.1451612903225807
 40
0.1451612903225807
 40
0.1451612903225807
 40
0.1532258064516129
 40
0.1532258064516129
 40
0.1532258064516129
 40
0.1532258064516129
 40
0.1612903225806452
 40
0.1612903225806452
 40
0.1612903225806452
 40
0.1612903225806452
 40
0.1693548387096774
 40
0.1693548387096774
 40
0.1693548387096774
 40
0.1693548387096774
 40
0.1774193548387097
 40
0.1774193548387097
 40
0.1774193548387097
 40
0.1774193548387097
 40
0.1854838709677419
 40
0.1854838709677419
 40
0.1854838709677419
 40
0.1854838709677419
 40
0.1935483870967742
 40
0.1935483870967742
 40
0.1935483870967742
 40
0.1935483870967742
 40
0.2016129032258064
 40
0.2016129032258064
 40
0.2016129032258064
 40
0.2016129032258064
 40
0.2096774193548387
 40
0.2096774193548387
 40
0.2096774193548387
 40
0.2096774193548387
 40
0.217741935483871
 40
0.217741935483871
 40
0.217741935483871
 40
0.217741935483871
 40
0.2258064516129032
 40
0.2258064516129032
 40
0.2258064516129032
 40
0.2258064516129032
 40
0.2338709677419355
 40
0.2338709677419355
 40
0.2338709677419355
 40
0.2338709677419355
 40
0.2419354838709677
 40
0.2419354838709677
 40
0.2419354838709677
 40
0.2419354838709677
 40
0.25
 40
0.25
 40
0.25
 40
0.25
 40
0.2580645161290323
 40
0.2580645161290323
 40
0.2580645161290323
 40
0.2580645161290323
 40
0.2661290322580645
 40
0.2661290322580645
 40
0.2661290322580645
 40
0.2661290322580645
 40
0.2741935483870968
 40
0.2741935483870968
 40
0.2741935483870968
 40
0.2741935483870968
 40
0.2822580645161291
 40
0.2822580645161291
 40
0.2822580645161291
 40
0.2822580645161291
 40
0.2903225806451613
 40
0.2903225806451613
 40
0.2903225806451613
 40
0.2903225806451613
 40
0.2983870967741936
 40
0.2983870967741936
 40
0.2983870967741936
 40
0.2983870967741936
 40
0.3064516129032258
 40
0.3064516129032258
 40
0.3064516129032258
 40
0.3064516129032258
 40
0.3145161290322581
 40
0.3145161290322581
 40
0.3145161290322581
 40
0.3145161290322581
 40
0.3225806451612903
 40
0.3225806451612903
 40
0.3225806451612903
 40
0.3225806451612903
 40
0.3306451612903226
 40
0.3306451612903226
 40
0.3306451612903226
 40
0.3306451612903226
 40
0.3387096774193548
 40
0.3387096774193548
 40
0.3387096774193548
 40
0.3387096774193548
 40
0.3467741935483871
 40
0.3467741935483871
 40
0.3467741935483871
 40
0.3467741935483871
 40
0.3548387096774194
 40
0.3548387096774194
 40
0.3548387096774194
 40
0.3548387096774194
 40
0.3629032258064516
 40
0.3629032258064516
 40
0.3629032258064516
 40
0.3629032258064516
 40
0.3709677419354839
 40
0.3709677419354839
 40
0.3709677419354839
 40
0.3709677419354839
 40
0.3790322580645161
 40
0.3790322580645161
 40
0.3790322580645161
 40
0.3790322580645161
 40
0.3870967741935484
 40
0.3870967741935484
 40
0.3870967741935484
 40
0.3870967741935484
 40
0.3951612903225806
 40
0.3951612903225806
 40
0.3951612903225806
 40
0.3951612903225806
 40
0.4032258064516129
 40
0.4032258064516129
 40
0.4032258064516129
 40
0.4032258064516129
 40
0.4112903225806452
 40
0.4112903225806452
 40
0.4112903225806452
 40
0.4112903225806452
 40
0.4193548387096774
 40
0.4193548387096774
 40
0.4193548387096774
 40
0.4193548387096774
 40
0.4274193548387097
 40
0.4274193548387097
 40
0.4274193548387097
 40
0.4274193548387097
 40
0.4354838709677419
 40
0.4354838709677419
 40
0.4354838709677419
 40
0.4354838709677419
 40
0.4435483870967742
 40
0.4435483870967742
 40
0.4435483870967742
 40
0.4435483870967742
 40
0.4516129032258064
 40
0.4516129032258064
 40
0.4516129032258064
 40
0.4516129032258064
 40
0.4596774193548387
 40
0.4596774193548387
 40
0.4596774193548387
 40
0.4596774193548387
 40
0.4677419354838709
 40
0.4677419354838709
 40
0.4677419354838709
 40
0.4677419354838709
 40
0.4758064516129032
 40
0.4758064516129032
 40
0.4758064516129032
 40
0.4758064516129032
 40
0.4838709677419355
 40
0.4838709677419355
 40
0.4838709677419355
 40
0.4838709677419355
 40
0.4919354838709677
 40
0.4919354838709677
 40
0.4919354838709677
 40
0.4919354838709677
 40
0.5
 40
0.5
 40
0.5
 40
0.5
 40
0.5080645161290323
 40
0.5080645161290323
 40
0.5080645161290323
 40
0.5080645161290323
 40
0.5161290322580645
 40
0.5161290322580645
 40
0.5161290322580645
 40
0.5161290322580645
 40
0.5241935483870968
 40
0.5241935483870968
 40
0.5241935483870968
 40
0.5241935483870968
 40
0.532258064516129
 40
0.532258064516129
 40
0.532258064516129
 40
0.532258064516129
 40
0.5403225806451613
 40
0.5403225806451613
 40
0.5403225806451613
 40
0.5403225806451613
 40
0.5483870967741935
 40
0.5483870967741935
 40
0.5483870967741935
 40
0.5483870967741935
 40
0.5564516129032258
 40
0.5564516129032258
 40
0.5564516129032258
 40
0.5564516129032258
 40
0.5645161290322581
 40
0.5645161290322581
 40
0.5645161290322581
 40
0.5645161290322581
 40
0.5725806451612904
 40
0.5725806451612904
 40
0.5725806451612904
 40
0.5725806451612904
 40
0.5806451612903226
 40
0.5806451612903226
 40
0.5806451612903226
 40
0.5806451612903226
 40
0.5887096774193549
 40
0.5887096774193549
 40
0.5887096774193549
 40
0.5887096774193549
 40
0.5967741935483871
 40
0.5967741935483871
 40
0.5967741935483871
 40
0.5967741935483871
 40
0.6048387096774194
 40
0.6048387096774194
 40
0.6048387096774194
 40
0.6048387096774194
 40
0.6129032258064516
 40
0.6129032258064516
 40
0.6129032258064516
 40
0.6129032258064516
 40
0.6209677419354839
 40
0.6209677419354839
 40
0.6209677419354839
 40
0.6209677419354839
 40
0.6290322580645161
 40
0.6290322580645161
 40
0.6290322580645161
 40
0.6290322580645161
 40
0.6370967741935484
 40
0.6370967741935484
 40
0.6370967741935484
 40
0.6370967741935484
 40
0.6451612903225806
 40
0.6451612903225806
 40
0.6451612903225806
 40
0.6451612903225806
 40
0.6532258064516129
 40
0.6532258064516129
 40
0.6532258064516129
 40
0.6532258064516129
 40
0.6612903225806451
 40
0.6612903225806451
 40
0.6612903225806451
 40
0.6612903225806451
 40
0.6693548387096774
 40
0.6693548387096774
 40
0.6693548387096774
 40
0.6693548387096774
 40
0.6774193548387096
 40
0.6774193548387096
 40
0.6774193548387096
 40
0.6774193548387096
 40
0.6854838709677419
 40
0.6854838709677419
 40
0.6854838709677419
 40
0.6854838709677419
 40
0.6935483870967742
 40
0.6935483870967742
 40
0.6935483870967742
 40
0.6935483870967742
 40
0.7016129032258065
 40
0.7016129032258065
 40
0.7016129032258065
 40
0.7016129032258065
 40
0.7096774193548387
 40
0.7096774193548387
 40
0.7096774193548387
 40
0.7096774193548387
 40
0.717741935483871
 40
0.717741935483871
 40
0.717741935483871
 40
0.717741935483871
 40
0.7258064516129032
 40
0.7258064516129032
 40
0.7258064516129032
 40
0.7258064516129032
 40
0.7338709677419355
 40
0.7338709677419355
 40
0.7338709677419355
 40
0.7338709677419355
 40
0.7419354838709677
 40
0.7419354838709677
 40
0.7419354838709677
 40
0.7419354838709677
 40
0.75
 40
0.75
 40
0.75
 40
0.75
 40
0.7580645161290323
 40
0.7580645161290323
 40
0.7580645161290323
 40
0.7580645161290323
 40
0.7661290322580645
 40
0.7661290322580645
 40
0.7661290322580645
 40
0.7661290322580645
 40
0.7741935483870968
 40
0.7741935483870968
 40
0.7741935483870968
 40
0.7741935483870968
 40
0.782258064516129
 40
0.782258064516129
 40
0.782258064516129
 40
0.782258064516129
 40
0.7903225806451613
 40
0.7903225806451613
 40
0.7903225806451613
 40
0.7903225806451613
 40
0.7983870967741935
 40
0.7983870967741935
 40
0.7983870967741935
 40
0.7983870967741935
 40
0.8064516129032258
 40
0.8064516129032258
 40
0.8064516129032258
 40
0.8064516129032258
 40
0.8145161290322581
 40
0.8145161290322581
 40
0.8145161290322581
 40
0.8145161290322581
 40
0.8225806451612904
 40
0.8225806451612904
 40
0.8225806451612904
 40
0.8225806451612904
 40
0.8306451612903226
 40
0.8306451612903226
 40
0.8306451612903226
 40
0.8306451612903226
 40
0.8387096774193549
 40
0.8387096774193549
 40
0.8387096774193549
 40
0.8387096774193549
 40
0.8467741935483871
 40
0.8467741935483871
 40
0.8467741935483871
 40
0.8467741935483871
 40
0.8548387096774194
 40
0.8548387096774194
 40
0.8548387096774194
 40
0.8548387096774194
 40
0.8629032258064516
 40
0.8629032258064516
 40
0.8629032258064516
 40
0.8629032258064516
 40
0.8709677419354839
 40
0.8709677419354839
 40
0.8709677419354839
 40
0.8709677419354839
 40
0.8790322580645161
 40
0.8790322580645161
 40
0.8790322580645161
 40
0.8790322580645161
 40
0.8870967741935484
 40
0.8870967741935484
 40
0.8870967741935484
 40
0.8870967741935484
 40
0.8951612903225806
 40
0.8951612903225806
 40
0.8951612903225806
 40
0.8951612903225806
 40
0.9032258064516129
 40
0.9032258064516129
 40
0.9032258064516129
 40
0.9032258064516129
 40
0.9112903225806451
 40
0.9112903225806451
 40
0.9112903225806451
 40
0.9112903225806451
 40
0.9193548387096774
 40
0.9193548387096774
 40
0.9193548387096774
 40
0.9193548387096774
 40
0.9274193548387096
 40
0.9274193548387096
 40
0.9274193548387096
 40
0.9274193548387096
 40
0.9354838709677419
 40
0.9354838709677419
 40
0.9354838709677419
 40
0.9354838709677419
 40
0.9435483870967742
 40
0.9435483870967742
 40
0.9435483870967742
 40
0.9435483870967742
 40
0.9516129032258065
 40
0.9516129032258065
 40
0.9516129032258065
 40
0.9516129032258065
 40
0.9596774193548387
 40
0.9596774193548387
 40
0.9596774193548387
 40
0.9596774193548387
 40
0.967741935483871
 40
0.967741935483871
 40
0.967741935483871
 40
0.967741935483871
 40
0.9758064516129032
 40
0.9758064516129032
 40
0.9758064516129032
 40
0.9758064516129032
 40
0.9838709677419355
 40
0.9838709677419355
 40
0.9838709677419355
 40
0.9838709677419355
 40
1.0
 40
1.0
 40
1.0
 40
1.0
 10
6.97055
 20
-3.19756
 30
0.0
 10
6.95277
 20
-3.23309
 30
0.0
 10
6.86085
 20
-3.36562
 30
0.0
 10
6.83659
 20
-3.38663
 30
0.0
 10
6.83659
 20
-3.38663
 30
0.0
 10
6.81243
 20
-3.40761
 30
0.0
 10
6.76237
 20
-3.44153
 30
0.0
 10
6.73658
 20
-3.44957
 30
0.0
 10
6.73658
 20
-3.44957
 30
0.0
 10
6.71078
 20
-3.45772
 30
0.0
 10
6.71565
 20
-3.46582
 30
0.0
 10
6.67366
 20
-3.46582
 30
0.0
 10
6.67366
 20
-3.46582
 30
0.0
 10
6.63167
 20
-3.46582
 30
0.0
 10
6.45744
 20
-3.46251
 30
0.0
 10
6.39773
 20
-3.46415
 30
0.0
 10
6.39773
 20
-3.46415
 30
0.0
 10
6.33804
 20
-3.46582
 30
0.0
 10
6.04276
 20
-3.46248
 30
0.0
 10
5.95725
 20
-3.46582
 30
0.0
 10
5.95725
 20
-3.46582
 30
0.0
 10
5.87174
 20
-3.469
 30
0.0
 10
5.60228
 20
-3.47066
 30
0.0
 10
5.52164
 20
-3.47066
 30
0.0
 10
5.52164
 20
-3.47066
 30
0.0
 10
5.44094
 20
-3.47066
 30
0.0
 10
5.04399
 20
-3.47704
 30
0.0
 10
4.99237
 20
-3.47548
 30
0.0
 10
4.99237
 20
-3.47548
 30
0.0
 10
4.94072
 20
-3.47387
 30
0.0
 10
4.62772
 20
-3.47548
 30
0.0
 10
4.55671
 20
-3.47707
 30
0.0
 10
4.55671
 20
-3.47707
 30
0.0
 10
4.48572
 20
-3.47879
 30
0.0
 10
4.0985
 20
-3.48038
 30
0.0
 10
4.05977
 20
-3.48199
 30
0.0
 10
4.05977
 20
-3.48199
 30
0.0
 10
4.02103
 20
-3.48358
 30
0.0
 10
3.72415
 20
-3.48686
 30
0.0
 10
3.66282
 20
-3.48522
 30
0.0
 10
3.66282
 20
-3.48522
 30
0.0
 10
3.60157
 20
-3.48355
 30
0.0
 10
3.2288
 20
-3.49168
 30
0.0
 10
3.18043
 20
-3.49168
 30
0.0
 10
3.18043
 20
-3.49168
 30
0.0
 10
3.13204
 20
-3.49168
 30
0.0
 10
2.85288
 20
-3.49652
 30
0.0
 10
2.7948
 20
-3.49652
 30
0.0
 10
2.7948
 20
-3.49652
 30
0.0
 10
2.7367
 20
-3.49652
 30
0.0
 10
2.61248
 20
-3.50462
 30
0.0
 10
2.59147
 20
-3.49977
 30
0.0
 10
2.59147
 20
-3.49977
 30
0.0
 10
2.57046
 20
-3.4949
 30
0.0
 10
2.51884
 20
-3.48199
 30
0.0
 10
2.45592
 20
-3.46905
 30
0.0
 10
2.45592
 20
-3.46905
 30
0.0
 10
2.393
 20
-3.45611
 30
0.0
 10
2.26394
 20
-3.42058
 30
0.0
 10
2.20748
 20
-3.40605
 30
0.0
 10
2.20748
 20
-3.40605
 30
0.0
 10
2.15096
 20
-3.39152
 30
0.0
 10
2.04772
 20
-3.36081
 30
0.0
 10
2.02513
 20
-3.35432
 30
0.0
 10
2.02513
 20
-3.35432
 30
0.0
 10
2.00253
 20
-3.34786
 30
0.0
 10
1.97999
 20
-3.34297
 30
0.0
 10
1.97351
 20
-3.34297
 30
0.0
 10
1.97351
 20
-3.34297
 30
0.0
 10
1.96703
 20
-3.34297
 30
0.0
 10
1.93798
 20
-3.364
 30
0.0
 10
1.92504
 20
-3.364
 30
0.0
 10
1.92504
 20
-3.364
 30
0.0
 10
1.91218
 20
-3.364
 30
0.0
 10
1.90573
 20
-3.35432
 30
0.0
 10
1.88313
 20
-3.34469
 30
0.0
 10
1.88313
 20
-3.34469
 30
0.0
 10
1.86056
 20
-3.3349
 30
0.0
 10
1.83312
 20
-3.35115
 30
0.0
 10
1.82021
 20
-3.35755
 30
0.0
 10
1.82021
 20
-3.35755
 30
0.0
 10
1.80727
 20
-3.36401
 30
0.0
 10
1.78145
 20
-3.34787
 30
0.0
 10
1.77338
 20
-3.3398
 30
0.0
 10
1.77338
 20
-3.3398
 30
0.0
 10
1.76534
 20
-3.3317
 30
0.0
 10
1.75081
 20
-3.31718
 30
0.0
 10
1.73954
 20
-3.33012
 30
0.0
 10
1.73954
 20
-3.33012
 30
0.0
 10
1.72819
 20
-3.34298
 30
0.0
 10
1.70726
 20
-3.36081
 30
0.0
 10
1.69109
 20
-3.35115
 30
0.0
 10
1.69109
 20
-3.35115
 30
0.0
 10
1.67498
 20
-3.34139
 30
0.0
 10
1.66691
 20
-3.32197
 30
0.0
 10
1.64915
 20
-3.32686
 30
0.0
 10
1.64915
 20
-3.32686
 30
0.0
 10
1.6314
 20
-3.33173
 30
0.0
 10
1.61039
 20
-3.34469
 30
0.0
 10
1.59586
 20
-3.34946
 30
0.0
 10
1.59586
 20
-3.34946
 30
0.0
 10
1.58133
 20
-3.35433
 30
0.0
 10
1.56845
 20
-3.3398
 30
0.0
 10
1.54908
 20
-3.33332
 30
0.0
 10
1.54908
 20
-3.33332
 30
0.0
 10
1.52971
 20
-3.32686
 30
0.0
 10
1.51847
 20
-3.33171
 30
0.0
 10
1.51042
 20
-3.35433
 30
0.0
 10
1.51042
 20
-3.35433
 30
0.0
 10
1.50227
 20
-3.37695
 30
0.0
 10
1.47489
 20
-3.42058
 30
0.0
 10
1.46195
 20
-3.44318
 30
0.0
 10
1.46195
 20
-3.44318
 30
0.0
 10
1.44901
 20
-3.46585
 30
0.0
 10
1.42972
 20
-3.50943
 30
0.0
 10
1.4184
 20
-3.51271
 30
0.0
 10
1.4184
 20
-3.51271
 30
0.0
 10
1.4071
 20
-3.51589
 30
0.0
 10
1.32807
 20
-3.52078
 30
0.0
 10
1.29415
 20
-3.51919
 30
0.0
 10
1.29415
 20
-3.51919
 30
0.0
 10
1.26031
 20
-3.51752
 30
0.0
 10
1.22642
 20
-3.51588
 30
0.0
 10
1.2103
 20
-3.51588
 30
0.0
 10
1.2103
 20
-3.51588
 30
0.0
 10
1.19413
 20
-3.51588
 30
0.0
 10
1.12796
 20
-3.51755
 30
0.0
 10
1.11669
 20
-3.51588
 30
0.0
 10
1.11669
 20
-3.51588
 30
0.0
 10
1.10539
 20
-3.51427
 30
0.0
 10
1.0828
 20
-3.47389
 30
0.0
 10
1.07801
 20
-3.46098
 30
0.0
 10
1.07801
 20
-3.46098
 30
0.0
 10
1.07312
 20
-3.44804
 30
0.0
 10
1.05213
 20
-3.42547
 30
0.0
 10
1.05377
 20
-3.40439
 30
0.0
 10
1.05377
 20
-3.40439
 30
0.0
 10
1.05536
 20
-3.38343
 30
0.0
 10
1.05536
 20
-3.34785
 30
0.0
 10
1.04247
 20
-3.34137
 30
0.0
 10
1.04247
 20
-3.34137
 30
0.0
 10
1.02953
 20
-3.33489
 30
0.0
 10
0.98278
 20
-3.34785
 30
0.0
 10
0.96495
 20
-3.33171
 30
0.0
 10
0.96495
 20
-3.33171
 30
0.0
 10
0.94725
 20
-3.31552
 30
0.0
 10
0.93921
 20
-3.31716
 30
0.0
 10
0.92788
 20
-3.24609
 30
0.0
 10
0.92788
 20
-3.24609
 30
0.0
 10
0.91661
 20
-3.17497
 30
0.0
 10
0.90687
 20
-3.0667
 30
0.0
 10
0.9037
 20
-3.02313
 30
0.0
 10
0.9037
 20
-3.02313
 30
0.0
 10
0.9005
 20
-2.97942
 30
0.0
 10
0.89883
 20
-2.90677
 30
0.0
 10
0.89883
 20
-2.90677
 30
0.0
 10
0.89883
 20
-2.90677
 30
0.0
 10
0.89883
 20
-2.90677
 30
0.0
 10
0.66166
 20
-2.90836
 30
0.0
 10
0.58416
 20
-2.91
 30
0.0
 10
0.58416
 20
-2.91
 30
0.0
 10
0.50677
 20
-2.91161
 30
0.0
 10
0.27439
 20
-2.91161
 30
0.0
 10
0.22755
 20
-2.91325
 30
0.0
 10
0.22755
 20
-2.91325
 30
0.0
 10
0.18077
 20
-2.91484
 30
0.0
 10
-0.03055
 20
-2.91325
 30
0.0
 10
-0.09836
 20
-2.91484
 30
0.0
 10
-0.09836
 20
-2.91484
 30
0.0
 10
-0.16609
 20
-2.91648
 30
0.0
 10
-0.32588
 20
-2.91804
 30
0.0
 10
-0.36779
 20
-2.91971
 30
0.0
 10
-0.36779
 20
-2.91971
 30
0.0
 10
-0.4097
 20
-2.92132
 30
0.0
 10
-0.58724
 20
-2.92296
 30
0.0
 10
-0.63563
 20
-2.92296
 30
0.0
 10
-0.63563
 20
-2.92296
 30
0.0
 10
-0.6841
 20
-2.92296
 30
0.0
 10
-0.92929
 20
-2.92296
 30
0.0
 10
-0.96964
 20
-2.92455
 30
0.0
 10
-0.96964
 20
-2.92455
 30
0.0
 10
-1.00996
 20
-2.92616
 30
0.0
 10
-1.26494
 20
-2.9278
 30
0.0
 10
-1.3069
 20
-2.92947
 30
0.0
 10
-1.3069
 20
-2.92947
 30
0.0
 10
-1.34878
 20
-2.93103
 30
0.0
 10
-1.63279
 20
-2.9278
 30
0.0
 10
-1.69089
 20
-2.93259
 30
0.0
 10
-1.69089
 20
-2.93259
 30
0.0
 10
-1.74897
 20
-2.93751
 30
0.0
 10
-2.0717
 20
-2.93751
 30
0.0
 10
-2.12978
 20
-2.93907
 30
0.0
 10
-2.12978
 20
-2.93907
 30
0.0
 10
-2.18786
 20
-2.94074
 30
0.0
 10
-2.40407
 20
-2.94238
 30
0.0
 10
-2.43794
 20
-2.94074
 30
0.0
 10
-2.43794
 20
-2.94074
 30
0.0
 10
-2.47181
 20
-2.9391
 30
0.0
 10
-2.82521
 20
-2.94886
 30
0.0
 10
-2.88329
 20
-2.94886
 30
0.0
 10
-2.88329
 20
-2.94886
 30
0.0
 10
-2.94134
 20
-2.94886
 30
0.0
 10
-3.24627
 20
-2.94886
 30
0.0
 10
-3.30437
 20
-2.9537
 30
0.0
 10
-3.30437
 20
-2.9537
 30
0.0
 10
-3.3625
 20
-2.95854
 30
0.0
 10
-3.72556
 20
-2.95537
 30
0.0
 10
-3.79168
 20
-2.95693
 30
0.0
 10
-3.79168
 20
-2.95693
 30
0.0
 10
-3.85783
 20
-2.95854
 30
0.0
 10
-4.22409
 20
-2.96339
 30
0.0
 10
-4.28383
 20
-2.96497
 30
0.0
 10
-4.28383
 20
-2.96497
 30
0.0
 10
-4.34352
 20
-2.96664
 30
0.0
 10
-4.75818
 20
-2.97145
 30
0.0
 10
-4.8308
 20
-2.96664
 30
0.0
 10
-4.8308
 20
-2.96664
 30
0.0
 10
-4.90343
 20
-2.96175
 30
0.0
 10
-5.29062
 20
-2.96175
 30
0.0
 10
-5.36973
 20
-2.96175
 30
0.0
 10
-5.36973
 20
-2.96175
 30
0.0
 10
-5.44884
 20
-2.96175
 30
0.0
 10
-5.7424
 20
-2.96498
 30
0.0
 10
-5.80373
 20
-2.96014
 30
0.0
 10
-5.80373
 20
-2.96014
 30
0.0
 10
-5.86506
 20
-2.95535
 30
0.0
 10
-6.20714
 20
-2.95535
 30
0.0
 10
-6.26844
 20
-2.95694
 30
0.0
 10
-6.26844
 20
-2.95694
 30
0.0
 10
-6.32974
 20
-2.95855
 30
0.0
 10
-6.5008
 20
-2.96176
 30
0.0
 10
-6.5766
 20
-2.96014
 30
0.0
 10
-6.5766
 20
-2.96014
 30
0.0
 10
-6.6524
 20
-2.95852
 30
0.0
 10
-6.76054
 20
-2.95535
 30
0.0
 10
-6.78313
 20
-2.95535
 30
0.0
 10
-6.78313
 20
-2.95535
 30
0.0
 10
-6.80573
 20
-2.95535
 30
0.0
 10
-7.01549
 20
-2.95694
 30
0.0
 10
-7.04774
 20
-2.95853
 30
0.0
 10
-7.04774
 20
-2.95853
 30
0.0
 10
-7.07999
 20
-2.96014
 30
0.0
 10
-7.1849
 20
-2.9634
 30
0.0
 10
-7.21557
 20
-2.9634
 30
0.0
 10
-7.21557
 20
-2.9634
 30
0.0
 10
-7.24621
 20
-2.9634
 30
0.0
 10
-7.26558
 20
-2.96015
 30
0.0
 10
-7.28497
 20
-2.94887
 30
0.0
 10
-7.28497
 20
-2.94887
 30
0.0
 10
-7.30431
 20
-2.93752
 30
0.0
 10
-7.38175
 20
-2.8987
 30
0.0
 10
-7.40271
 20
-2.89066
 30
0.0
 10
-7.40271
 20
-2.89066
 30
0.0
 10
-7.42369
 20
-2.88259
 30
0.0
 10
-7.48661
 20
-2.84221
 30
0.0
 10
-7.50278
 20
-2.83891
 30
0.0
 10
-7.50278
 20
-2.83891
 30
0.0
 10
-7.51895
 20
-2.83573
 30
0.0
 10
-7.54472
 20
-2.84058
 30
0.0
 10
-7.54638
 20
-2.82282
 30
0.0
 10
-7.54638
 20
-2.82282
 30
0.0
 10
-7.54797
 20
-2.80501
 30
0.0
 10
-7.57218
 20
-2.77596
 30
0.0
 10
-7.55442
 20
-2.75816
 30
0.0
 10
-7.55442
 20
-2.75816
 30
0.0
 10
-7.53667
 20
-2.74038
 30
0.0
 10
-7.48825
 20
-2.72104
 30
0.0
 10
-7.4479
 20
-2.69678
 30
0.0
 10
-7.4479
 20
-2.69678
 30
0.0
 10
-7.40834
 20
-2.67307
 30
0.0
 10
-7.36564
 20
-2.66445
 30
0.0
 10
-7.33331
 20
-2.64185
 30
0.0
 10
-7.33331
 20
-2.64185
 30
0.0
 10
-7.30106
 20
-2.61925
 30
0.0
 10
-7.2914
 20
-2.61441
 30
0.0
 10
-7.24944
 20
-2.61113
 30
0.0
 10
-7.24944
 20
-2.61113
 30
0.0
 10
-7.2075
 20
-2.60795
 30
0.0
 10
-7.06227
 20
-2.62089
 30
0.0
 10
-7.00256
 20
-2.61441
 30
0.0
 10
-7.00256
 20
-2.61441
 30
0.0
 10
-6.94287
 20
-2.60795
 30
0.0
 10
-6.73149
 20
-2.61441
 30
0.0
 10
-6.65082
 20
-2.61764
 30
0.0
 10
-6.65082
 20
-2.61764
 30
0.0
 10
-6.57015
 20
-2.62089
 30
0.0
 10
-6.41685
 20
-2.61764
 30
0.0
 10
-6.33136
 20
-2.61764
 30
0.0
 10
-6.33136
 20
-2.61764
 30
0.0
 10
-6.24585
 20
-2.61764
 30
0.0
 10
-5.98446
 20
-2.62089
 30
0.0
 10
-5.9167
 20
-2.61925
 30
0.0
 10
-5.9167
 20
-2.61925
 30
0.0
 10
-5.84889
 20
-2.61764
 30
0.0
 10
-5.44069
 20
-2.62092
 30
0.0
 10
-5.34393
 20
-2.62092
 30
0.0
 10
-5.34393
 20
-2.62092
 30
0.0
 10
-5.24707
 20
-2.62092
 30
0.0
 10
-4.85016
 20
-2.62092
 30
0.0
 10
-4.78725
 20
-2.6241
 30
0.0
 10
-4.78725
 20
-2.6241
 30
0.0
 10
-4.72433
 20
-2.62735
 30
0.0
 10
-4.3677
 20
-2.6241
 30
0.0
 10
-4.30155
 20
-2.62092
 30
0.0
 10
-4.30155
 20
-2.62092
 30
0.0
 10
-4.2354
 20
-2.61767
 30
0.0
 10
-3.93047
 20
-2.62092
 30
0.0
 10
-3.88695
 20
-2.62092
 30
0.0
 10
-3.88695
 20
-2.62092
 30
0.0
 10
-3.84332
 20
-2.62092
 30
0.0
 10
-3.56583
 20
-2.61925
 30
0.0
 10
-3.49804
 20
-2.61767
 30
0.0
 10
-3.49804
 20
-2.61767
 30
0.0
 10
-3.43023
 20
-2.616
 30
0.0
 10
-3.13987
 20
-2.61767
 30
0.0
 10
-3.04949
 20
-2.61444
 30
0.0
 10
-3.04949
 20
-2.61444
 30
0.0
 10
-2.95911
 20
-2.61116
 30
0.0
 10
-2.60578
 20
-2.60798
 30
0.0
 10
-2.53961
 20
-2.60476
 30
0.0
 10
-2.53961
 20
-2.60476
 30
0.0
 10
-2.47346
 20
-2.60151
 30
0.0
 10
-2.11686
 20
-2.60309
 30
0.0
 10
-2.05233
 20
-2.59984
 30
0.0
 10
-2.05233
 20
-2.59984
 30
0.0
 10
-1.98777
 20
-2.59664
 30
0.0
 10
-1.68281
 20
-2.59502
 30
0.0
 10
-1.63765
 20
-2.59502
 30
0.0
 10
-1.63765
 20
-2.59502
 30
0.0
 10
-1.59249
 20
-2.59502
 30
0.0
 10
-1.37307
 20
-2.58531
 30
0.0
 10
-1.31973
 20
-2.58695
 30
0.0
 10
-1.31973
 20
-2.58695
 30
0.0
 10
-1.2665
 20
-2.58854
 30
0.0
 10
-0.79382
 20
-2.58208
 30
0.0
 10
-0.72595
 20
-2.57891
 30
0.0
 10
-0.72595
 20
-2.57891
 30
0.0
 10
-0.65822
 20
-2.5756
 30
0.0
 10
-0.27743
 20
-2.57399
 30
0.0
 10
-0.22422
 20
-2.57243
 30
0.0
 10
-0.22422
 20
-2.57243
 30
0.0
 10
-0.17099
 20
-2.57076
 30
0.0
 10
0.27436
 20
-2.56915
 30
0.0
 10
0.32601
 20
-2.56756
 30
0.0
 10
0.32601
 20
-2.56756
 30
0.0
 10
0.49132
 20
-2.56232
 30
0.0
 10
0.8923
 20
-2.56108
 30
0.0
 10
0.8923
 20
-2.56108
 30
0.0
 10
0.8923
 20
-2.56108
 30
0.0
 10
0.8923
 20
-2.56108
 30
0.0
 10
0.90045
 20
-2.43342
 30
0.0
 10
0.90045
 20
-2.40109
 30
0.0
 10
0.90045
 20
-2.40109
 30
0.0
 10
0.90045
 20
-2.36881
 30
0.0
 10
0.90204
 20
-2.2993
 30
0.0
 10
0.90849
 20
-2.26377
 30
0.0
 10
0.90849
 20
-2.26377
 30
0.0
 10
0.91497
 20
-2.22816
 30
0.0
 10
0.91627
 20
-2.20106
 30
0.0
 10
0.91817
 20
-2.17648
 30
0.0
 10
0.91817
 20
-2.17648
 30
0.0
 10
0.92465
 20
-2.09245
 30
0.0
 10
1.00043
 20
-2.12968
 30
0.0
 10
1.01014
 20
-2.11835
 30
0.0
 10
1.01014
 20
-2.11835
 30
0.0
 10
1.01985
 20
-2.10697
 30
0.0
 10
1.06179
 20
-2.01326
 30
0.0
 10
1.06345
 20
-1.99717
 30
0.0
 10
1.06345
 20
-1.99717
 30
0.0
 10
1.0648
 20
-1.98272
 30
0.0
 10
1.06983
 20
-1.98743
 30
0.0
 10
1.07798
 20
-1.981
 30
0.0
 10
1.07798
 20
-1.981
 30
0.0
 10
1.08602
 20
-1.97452
 30
0.0
 10
1.10214
 20
-1.93086
 30
0.0
 10
1.10698
 20
-1.92284
 30
0.0
 10
1.10698
 20
-1.92284
 30
0.0
 10
1.11182
 20
-1.91472
 30
0.0
 10
1.24739
 20
-1.91636
 30
0.0
 10
1.26832
 20
-1.91472
 30
0.0
 10
1.26832
 20
-1.91472
 30
0.0
 10
1.28933
 20
-1.91313
 30
0.0
 10
1.41522
 20
-1.90832
 30
0.0
 10
1.41522
 20
-1.90832
 30
0.0
 10
1.41522
 20
-1.90832
 30
0.0
 10
1.41522
 20
-1.90832
 30
0.0
 10
1.44099
 20
-1.97132
 30
0.0
 10
1.44099
 20
-1.97132
 30
0.0
 10
1.44099
 20
-1.97132
 30
0.0
 10
1.44099
 20
-1.97132
 30
0.0
 10
1.49261
 20
-2.09414
 30
0.0
 10
1.50396
 20
-2.107
 30
0.0
 10
1.50396
 20
-2.107
 30
0.0
 10
1.5152
 20
-2.11994
 30
0.0
 10
1.54423
 20
-2.10218
 30
0.0
 10
1.55876
 20
-2.09091
 30
0.0
 10
1.55876
 20
-2.09091
 30
0.0
 10
1.57329
 20
-2.07956
 30
0.0
 10
1.61528
 20
-2.107
 30
0.0
 10
1.6298
 20
-2.10872
 30
0.0
 10
1.6298
 20
-2.10872
 30
0.0
 10
1.64433
 20
-2.11031
 30
0.0
 10
1.65237
 20
-2.09578
 30
0.0
 10
1.67179
 20
-2.09091
 30
0.0
 10
1.67179
 20
-2.09091
 30
0.0
 10
1.69108
 20
-2.08599
 30
0.0
 10
1.7105
 20
-2.09737
 30
0.0
 10
1.72981
 20
-2.107
 30
0.0
 10
1.72981
 20
-2.107
 30
0.0
 10
1.74915
 20
-2.11676
 30
0.0
 10
1.7605
 20
-2.08599
 30
0.0
 10
1.78627
 20
-2.07795
 30
0.0
 10
1.78627
 20
-2.07795
 30
0.0
 10
1.81217
 20
-2.06988
 30
0.0
 10
1.82336
 20
-2.09248
 30
0.0
 10
1.83789
 20
-2.09412
 30
0.0
 10
1.83789
 20
-2.09412
 30
0.0
 10
1.85242
 20
-2.09576
 30
0.0
 10
1.87181
 20
-2.07473
 30
0.0
 10
1.89118
 20
-2.06824
 30
0.0
 10
1.89118
 20
-2.06824
 30
0.0
 10
1.91049
 20
-2.06176
 30
0.0
 10
1.94603
 20
-2.08755
 30
0.0
 10
1.94603
 20
-2.08755
 30
0.0
 10
1.94603
 20
-2.08755
 30
0.0
 10
1.94603
 20
-2.08755
 30
0.0
 10
2.02993
 20
-2.06009
 30
0.0
 10
2.02993
 20
-2.06009
 30
0.0
 10
2.02993
 20
-2.06009
 30
0.0
 10
2.02993
 20
-2.06009
 30
0.0
 10
2.38003
 20
-1.94867
 30
0.0
 10
2.38003
 20
-1.94867
 30
0.0
 10
2.38003
 20
-1.94867
 30
0.0
 10
2.38003
 20
-1.94867
 30
0.0
 10
2.61403
 20
-1.88401
 30
0.0
 10
2.61403
 20
-1.88401
 30
0.0
 10
2.61403
 20
-1.88401
 30
0.0
 10
2.61403
 20
-1.88401
 30
0.0
 10
2.94643
 20
-1.87912
 30
0.0
 10
3.00614
 20
-1.87912
 30
0.0
 10
3.00614
 20
-1.87912
 30
0.0
 10
3.06583
 20
-1.87912
 30
0.0
 10
3.40307
 20
-1.88243
 30
0.0
 10
3.44498
 20
-1.87751
 30
0.0
 10
3.44498
 20
-1.87751
 30
0.0
 10
3.48692
 20
-1.87272
 30
0.0
 10
3.79508
 20
-1.87592
 30
0.0
 10
3.82902
 20
-1.87108
 30
0.0
 10
3.82902
 20
-1.87108
 30
0.0
 10
3.86289
 20
-1.86616
 30
0.0
 10
4.1937
 20
-1.8646
 30
0.0
 10
4.24203
 20
-1.8646
 30
0.0
 10
4.24203
 20
-1.8646
 30
0.0
 10
4.2905
 20
-1.8646
 30
0.0
 10
4.63898
 20
-1.85814
 30
0.0
 10
4.68251
 20
-1.85656
 30
0.0
 10
4.68251
 20
-1.85656
 30
0.0
 10
4.72606
 20
-1.85495
 30
0.0
 10
5.10047
 20
-1.85008
 30
0.0
 10
5.14886
 20
-1.84521
 30
0.0
 10
5.14886
 20
-1.84521
 30
0.0
 10
5.19723
 20
-1.84037
 30
0.0
 10
5.67488
 20
-1.84203
 30
0.0
 10
5.71681
 20
-1.84037
 30
0.0
 10
5.71681
 20
-1.84037
 30
0.0
 10
5.75874
 20
-1.83871
 30
0.0
 10
6.21375
 20
-1.83227
 30
0.0
 10
6.27027
 20
-1.83066
 30
0.0
 10
6.27027
 20
-1.83066
 30
0.0
 10
6.32671
 20
-1.82907
 30
0.0
 10
6.5752
 20
-1.82584
 30
0.0
 10
6.60425
 20
-1.82259
 30
0.0
 10
6.60425
 20
-1.82259
 30
0.0
 10
6.6333
 20
-1.81936
 30
0.0
 10
6.65262
 20
-1.81447
 30
0.0
 10
6.66558
 20
-1.81613
 30
0.0
 10
6.66558
 20
-1.81613
 30
0.0
 10
6.67849
 20
-1.81774
 30
0.0
 10
6.7398
 20
-1.83711
 30
0.0
 10
6.76723
 20
-1.85494
 30
0.0
 10
6.76723
 20
-1.85494
 30
0.0
 10
6.79461
 20
-1.87272
 30
0.0
 10
6.99475
 20
-2.00517
 30
0.0
 10
7.06737
 20
-2.41239
 30
0.0
 10
7.06737
 20
-2.41239
 30
0.0
 10
7.08063
 20
-2.48682
 30
0.0
 10
7.09941
 20
-2.65258
 30
0.0
 10
7.07568
 20
-2.83969
 30
0.0
 10
7.07568
 20
-2.83969
 30
0.0
 10
7.04869
 20
-3.05256
 30
0.0
 10
6.98026
 20
-3.17819
 30
0.0
 10
6.97055
 20
-3.19756
 30
0.0
  0
ENDSEC
  0
SECTION
  2
OBJECTS
  0
DICTIONARY
  5
C
330
0
100
AcDbDictionary
281
     1
  3
ACAD_GROUP
350
D
  3
ACAD_LAYOUT
350
1A
  3
ACAD_MATERIAL
350
3B
  3
ACAD_MLEADERSTYLE
350
64
  3
ACAD_MLINESTYLE
350
17
  3
ACAD_PLOTSETTINGS
350
19
  3
ACAD_PLOTSTYLENAME
350
E
  3
ACAD_TABLESTYLE
350
63
  3
ACAD_VISUALSTYLE
350
2A
  0
DICTIONARY
  5
D
102
{ACAD_REACTORS
330
C
102
}
330
C
100
AcDbDictionary
281
     1
  0
DICTIONARY
  5
1A
102
{ACAD_REACTORS
330
C
102
}
330
C
100
AcDbDictionary
281
     1
  3
Layout1
350
1E
  3
Layout2
350
26
  3
Model
350
22
  0
DICTIONARY
  5
3B
102
{ACAD_REACTORS
330
C
102
}
330
C
100
AcDbDictionary
281
     1
  3
ByBlock
350
3D
  3
ByLayer
350
3C
  3
Global
350
3E
  0
DICTIONARY
  5
64
102
{ACAD_REACTORS
330
C
102
}
330
C
100
AcDbDictionary
281
     1
  0
DICTIONARY
  5
17
102
{ACAD_REACTORS
330
C
102
}
330
C
100
AcDbDictionary
281
     1
  3
Standard
350
18
  0
DICTIONARY
  5
19
102
{ACAD_REACTORS
330
C
102
}
330
C
100
AcDbDictionary
281
     1
  0
ACDBDICTIONARYWDFLT
  5
E
102
{ACAD_REACTORS
330
C
102
}
330
C
100
AcDbDictionary
281
     1
  3
Normal
350
F
100
AcDbDictionaryWithDefault
340
F
  0
DICTIONARY
  5
63
102
{ACAD_REACTORS
330
C
102
}
330
C
100
AcDbDictionary
281
     1
  0
DICTIONARY
  5
2A
102
{ACAD_REACTORS
330
C
102
}
330
C
100
AcDbDictionary
281
     1
  3
2dWireframe
350
2F
  3
3D Hidden
350
31
  3
3dWireframe
350
30
  3
Basic
350
32
  3
Brighten
350
36
  3
ColorChange
350
3A
  3
Conceptual
350
34
  3
Dim
350
35
  3
Facepattern
350
39
  3
Flat
350
2B
  3
FlatWithEdges
350
2C
  3
Gouraud
350
2D
  3
GouraudWithEdges
350
2E
  3
Linepattern
350
38
  3
Realistic
350
33
  3
Thicken
350
37
  0
LAYOUT
  5
1E
102
{ACAD_REACTORS
330
1A
102
}
330
1A
100
AcDbPlotSettings
  1

  2
none_device
  4

  6

 40
0.0
 41
0.0
 42
0.0
 43
0.0
 44
0.0
 45
0.0
 46
0.0
 47
0.0
 48
0.0
 49
0.0
140
0.0
141
0.0
142
1.0
143
1.0
 70
   688
 72
     0
 73
     0
 74
     5
  7

 75
    16
 76
     0
 77
     2
 78
   300
147
1.0
148
0.0
149
0.0
100
AcDbLayout
  1
Layout1
 70
     1
 71
     1
 10
0.0
 20
0.0
 11
12.0
 21
9.0
 12
0.0
 22
0.0
 32
0.0
 14
1.000000000000000E+20
 24
1.000000000000000E+20
 34
1.000000000000000E+20
 15
-1.000000000000000E+20
 25
-1.000000000000000E+20
 35
-1.000000000000000E+20
146
0.0
 13
0.0
 23
0.0
 33
0.0
 16
1.0
 26
0.0
 36
0.0
 17
0.0
 27
1.0
 37
0.0
 76
     0
330
1B
  0
LAYOUT
  5
26
102
{ACAD_REACTORS
330
1A
102
}
330
1A
100
AcDbPlotSettings
  1

  2
none_device
  4

  6

 40
0.0
 41
0.0
 42
0.0
 43
0.0
 44
0.0
 45
0.0
 46
0.0
 47
0.0
 48
0.0
 49
0.0
140
0.0
141
0.0
142
1.0
143
1.0
 70
   688
 72
     0
 73
     0
 74
     5
  7

 75
    16
 76
     0
 77
     2
 78
   300
147
1.0
148
0.0
149
0.0
100
AcDbLayout
  1
Layout2
 70
     1
 71
     2
 10
0.0
 20
0.0
 11
0.0
 21
0.0
 12
0.0
 22
0.0
 32
0.0
 14
0.0
 24
0.0
 34
0.0
 15
0.0
 25
0.0
 35
0.0
146
0.0
 13
0.0
 23
0.0
 33
0.0
 16
1.0
 26
0.0
 36
0.0
 17
0.0
 27
1.0
 37
0.0
 76
     0
330
23
  0
LAYOUT
  5
22
102
{ACAD_REACTORS
330
1A
102
}
330
1A
100
AcDbPlotSettings
  1

  2
none_device
  4

  6

 40
0.0
 41
0.0
 42
0.0
 43
0.0
 44
0.0
 45
0.0
 46
0.0
 47
0.0
 48
0.0
 49
0.0
140
0.0
141
0.0
142
1.0
143
1.0
 70
  1712
 72
     0
 73
     0
 74
     0
  7

 75
     0
 76
     0
 77
     2
 78
   300
147
1.0
148
0.0
149
0.0
100
AcDbLayout
  1
Model
 70
     1
 71
     0
 10
0.0
 20
0.0
 11
12.0
 21
9.0
 12
0.0
 22
0.0
 32
0.0
 14
-7.5609
 24
-3.5195
 34
0.0
 15
7.56078
 25
3.51939
 35
0.0
146
0.0
 13
0.0
 23
0.0
 33
0.0
 16
1.0
 26
0.0
 36
0.0
 17
0.0
 27
1.0
 37
0.0
 76
     0
330
1F
331
29
  0
MATERIAL
  5
3D
102
{ACAD_REACTORS
330
3B
102
}
330
3B
100
AcDbMaterial
  1
ByBlock
 72
     1
 94
      127
  0
MATERIAL
  5
3C
102
{ACAD_REACTORS
330
3B
102
}
330
3B
100
AcDbMaterial
  1
ByLayer
 72
     1
 94
      127
  0
MATERIAL
  5
3E
102
{ACAD_REACTORS
330
3B
102
}
330
3B
100
AcDbMaterial
  1
Global
 72
     1
 94
      127
  0
MLINESTYLE
  5
18
102
{ACAD_REACTORS
330
17
102
}
330
17
100
AcDbMlineStyle
  2
Standard
 70
     0
  3

 62
   256
 51
90.0
 52
90.0
 71
     2
 49
0.5
 62
   256
  6
BYLAYER
 49
-0.5
 62
   256
  6
BYLAYER
  0
ACDBPLACEHOLDER
  5
F
102
{ACAD_REACTORS
330
E
102
}
330
E
  0
VISUALSTYLE
  5
2F
102
{ACAD_REACTORS
330
2A
102
}
102
{ACAD_XDICTIONARY
360
4B
102
}
330
2A
100
AcDbVisualStyle
  2
2dWireframe
 70
     4
 71
     0
 72
     2
 73
     0
 90
        0
 40
-0.6
 41
-30.0
 62
     5
 63
     7
421
 16777215
 74
     1
 91
        4
 64
     7
 65
   257
 75
     1
175
     1
 42
1.0
 92
        0
 66
   257
 43
1.0
 76
     1
 77
     6
 78
     2
 67
     7
 79
     5
170
     0
171
     0
290
     0
174
     0
 93
        1
 44
0.0
173
     0
291
     0
 45
0.0
  0
VISUALSTYLE
  5
31
102
{ACAD_REACTORS
330
2A
102
}
102
{ACAD_XDICTIONARY
360
4F
102
}
330
2A
100
AcDbVisualStyle
  2
3D Hidden
 70
     6
 71
     1
 72
     2
 73
     2
 90
        0
 40
-0.6
 41
-30.0
 62
     5
 63
     7
421
 16777215
 74
     2
 91
        2
 64
     7
 65
   257
 75
     2
175
     1
 42
40.0
 92
        0
 66
   257
 43
1.0
 76
     1
 77
     6
 78
     2
 67
     7
 79
     3
170
     0
171
     0
290
     0
174
     0
 93
        1
 44
0.0
173
     0
291
     0
 45
0.0
  0
VISUALSTYLE
  5
30
102
{ACAD_REACTORS
330
2A
102
}
102
{ACAD_XDICTIONARY
360
4D
102
}
330
2A
100
AcDbVisualStyle
  2
3dWireframe
 70
     5
 71
     0
 72
     2
 73
     0
 90
        0
 40
-0.6
 41
-30.0
 62
     5
 63
     7
421
 16777215
 74
     1
 91
        4
 64
     7
 65
   257
 75
     1
175
     1
 42
1.0
 92
        0
 66
   257
 43
1.0
 76
     1
 77
     6
 78
     2
 67
     7
 79
     5
170
     0
171
     0
290
     0
174
     0
 93
        1
 44
0.0
173
     0
291
     0
 45
0.0
  0
VISUALSTYLE
  5
32
102
{ACAD_REACTORS
330
2A
102
}
102
{ACAD_XDICTIONARY
360
51
102
}
330
2A
100
AcDbVisualStyle
  2
Basic
 70
     7
 71
     1
 72
     0
 73
     1
 90
        0
 40
-0.6
 41
-30.0
 62
     5
 63
     7
421
 16777215
 74
     0
 91
        4
 64
     7
 65
   257
 75
     1
175
     1
 42
1.0
 92
        8
 66
     7
 43
1.0
 76
     1
 77
     6
 78
     2
 67
     7
 79
     5
170
     0
171
     0
290
     0
174
     0
 93
        1
 44
0.0
173
     0
291
     1
 45
0.0
  0
VISUALSTYLE
  5
36
102
{ACAD_REACTORS
330
2A
102
}
102
{ACAD_XDICTIONARY
360
59
102
}
330
2A
100
AcDbVisualStyle
  2
Brighten
 70
    12
 71
     2
 72
     2
 73
     0
 90
        0
 40
-0.6
 41
-30.0
 62
     5
 63
     7
421
 16777215
 74
     1
 91
        4
 64
     7
 65
   257
 75
     1
175
     1
 42
1.0
 92
        8
 66
     7
 43
1.0
 76
     1
 77
     6
 78
     2
 67
     7
 79
     5
170
     0
171
     0
290
     0
174
     0
 93
        1
 44
50.0
173
     0
291
     1
 45
0.0
  0
VISUALSTYLE
  5
3A
102
{ACAD_REACTORS
330
2A
102
}
102
{ACAD_XDICTIONARY
360
61
102
}
330
2A
100
AcDbVisualStyle
  2
ColorChange
 70
    16
 71
     2
 72
     2
 73
     3
 90
        0
 40
-0.6
 41
-30.0
 62
     5
 63
     8
421
  8421504
 74
     1
 91
        4
 64
     7
 65
   257
 75
     1
175
     1
 42
1.0
 92
        8
 66
     8
424
  8421504
 43
1.0
 76
     1
 77
     6
 78
     2
 67
     7
 79
     5
170
     0
171
     0
290
     0
174
     0
 93
        1
 44
0.0
173
     0
291
     1
 45
0.0
  0
VISUALSTYLE
  5
34
102
{ACAD_REACTORS
330
2A
102
}
102
{ACAD_XDICTIONARY
360
55
102
}
330
2A
100
AcDbVisualStyle
  2
Conceptual
 70
     9
 71
     3
 72
     2
 73
     0
 90
        0
 40
-0.6
 41
-30.0
 62
     5
 63
     7
421
 16777215
 74
     2
 91
        2
 64
     7
 65
   257
 75
     1
175
     1
 42
40.0
 92
        8
 66
     7
 43
1.0
 76
     1
 77
     6
 78
     2
 67
     7
 79
     3
170
     0
171
     0
290
     0
174
     0
 93
        1
 44
0.0
173
     0
291
     0
 45
0.0
  0
VISUALSTYLE
  5
35
102
{ACAD_REACTORS
330
2A
102
}
102
{ACAD_XDICTIONARY
360
57
102
}
330
2A
100
AcDbVisualStyle
  2
Dim
 70
    11
 71
     2
 72
     2
 73
     0
 90
        0
 40
-0.6
 41
-30.0
 62
     5
 63
     7
421
 16777215
 74
     1
 91
        4
 64
     7
 65
   257
 75
     1
175
     1
 42
1.0
 92
        8
 66
     7
 43
1.0
 76
     1
 77
     6
 78
     2
 67
     7
 79
     5
170
     0
171
     0
290
     0
174
     0
 93
        1
 44
-50.0
173
     0
291
     1
 45
0.0
  0
VISUALSTYLE
  5
39
102
{ACAD_REACTORS
330
2A
102
}
102
{ACAD_XDICTIONARY
360
5F
102
}
330
2A
100
AcDbVisualStyle
  2
Facepattern
 70
    15
 71
     2
 72
     2
 73
     0
 90
        0
 40
-0.6
 41
-30.0
 62
     5
 63
     7
421
 16777215
 74
     1
 91
        4
 64
     7
 65
   257
 75
     1
175
     1
 42
1.0
 92
        8
 66
     7
 43
1.0
 76
     1
 77
     6
 78
     2
 67
     7
 79
     5
170
     0
171
     0
290
     0
174
     0
 93
        1
 44
0.0
173
     0
291
     1
 45
0.0
  0
VISUALSTYLE
  5
2B
102
{ACAD_REACTORS
330
2A
102
}
102
{ACAD_XDICTIONARY
360
43
102
}
330
2A
100
AcDbVisualStyle
  2
Flat
 70
     0
 71
     2
 72
     1
 73
     1
 90
        2
 40
-0.6
 41
30.0
 62
     5
 63
     7
421
 16777215
 74
     0
 91
        4
 64
     7
 65
   257
 75
     1
175
     1
 42
1.0
 92
        8
 66
     7
 43
1.0
 76
     1
 77
     6
 78
     2
 67
     7
 79
     5
170
     0
171
     0
290
     0
174
     0
 93
       13
 44
0.0
173
     0
291
     1
 45
0.0
  0
VISUALSTYLE
  5
2C
102
{ACAD_REACTORS
330
2A
102
}
102
{ACAD_XDICTIONARY
360
45
102
}
330
2A
100
AcDbVisualStyle
  2
FlatWithEdges
 70
     1
 71
     2
 72
     1
 73
     1
 90
        2
 40
-0.6
 41
30.0
 62
     5
 63
     7
421
 16777215
 74
     1
 91
        4
 64
     7
 65
   257
 75
     1
175
     1
 42
1.0
 92
        0
 66
   257
 43
1.0
 76
     1
 77
     6
 78
     2
 67
     7
 79
     5
170
     0
171
     0
290
     0
174
     0
 93
       13
 44
0.0
173
     0
291
     1
 45
0.0
  0
VISUALSTYLE
  5
2D
102
{ACAD_REACTORS
330
2A
102
}
102
{ACAD_XDICTIONARY
360
47
102
}
330
2A
100
AcDbVisualStyle
  2
Gouraud
 70
     2
 71
     2
 72
     2
 73
     1
 90
        2
 40
-0.6
 41
30.0
 62
     5
 63
     7
421
 16777215
 74
     0
 91
        4
 64
     7
 65
   257
 75
     1
175
     1
 42
1.0
 92
        0
 66
     7
 43
1.0
 76
     1
 77
     6
 78
     2
 67
     7
 79
     5
170
     0
171
     0
290
     0
174
     0
 93
       13
 44
0.0
173
     0
291
     1
 45
0.0
  0
VISUALSTYLE
  5
2E
102
{ACAD_REACTORS
330
2A
102
}
102
{ACAD_XDICTIONARY
360
49
102
}
330
2A
100
AcDbVisualStyle
  2
GouraudWithEdges
 70
     3
 71
     2
 72
     2
 73
     1
 90
        2
 40
-0.6
 41
30.0
 62
     5
 63
     7
421
 16777215
 74
     1
 91
        4
 64
     7
 65
   257
 75
     1
175
     1
 42
1.0
 92
        0
 66
   257
 43
1.0
 76
     1
 77
     6
 78
     2
 67
     7
 79
     5
170
     0
171
     0
290
     0
174
     0
 93
       13
 44
0.0
173
     0
291
     1
 45
0.0
  0
VISUALSTYLE
  5
38
102
{ACAD_REACTORS
330
2A
102
}
102
{ACAD_XDICTIONARY
360
5D
102
}
330
2A
100
AcDbVisualStyle
  2
Linepattern
 70
    14
 71
     2
 72
     2
 73
     0
 90
        0
 40
-0.6
 41
-30.0
 62
     5
 63
     7
421
 16777215
 74
     1
 91
        4
 64
     7
 65
   257
 75
     7
175
     7
 42
1.0
 92
        8
 66
     7
 43
1.0
 76
     1
 77
     6
 78
     2
 67
     7
 79
     5
170
     0
171
     0
290
     0
174
     0
 93
        1
 44
0.0
173
     0
291
     1
 45
0.0
  0
VISUALSTYLE
  5
33
102
{ACAD_REACTORS
330
2A
102
}
102
{ACAD_XDICTIONARY
360
53
102
}
330
2A
100
AcDbVisualStyle
  2
Realistic
 70
     8
 71
     2
 72
     2
 73
     0
 90
        0
 40
-0.6
 41
-30.0
 62
     5
 63
     7
421
 16777215
 74
     1
 91
        0
 64
     7
 65
   257
 75
     1
175
     1
 42
1.0
 92
        8
 66
     8
424
  7895160
 43
1.0
 76
     1
 77
     6
 78
     2
 67
     7
 79
     5
170
     0
171
     0
290
     0
174
     0
 93
       13
 44
0.0
173
     0
291
     0
 45
0.0
  0
VISUALSTYLE
  5
37
102
{ACAD_REACTORS
330
2A
102
}
102
{ACAD_XDICTIONARY
360
5B
102
}
330
2A
100
AcDbVisualStyle
  2
Thicken
 70
    13
 71
     2
 72
     2
 73
     0
 90
        0
 40
-0.6
 41
-30.0
 62
     5
 63
     7
421
 16777215
 74
     1
 91
        4
 64
     7
 65
   257
 75
     1
175
     1
 42
1.0
 92
       12
 66
     7
 43
1.0
 76
     1
 77
     6
 78
     2
 67
     7
 79
     5
170
     0
171
     0
290
     0
174
     0
 93
        1
 44
0.0
173
     0
291
     1
 45
0.0
  0
DICTIONARY
  5
4B
330
2F
100
AcDbDictionary
280
     1
281
     1
  3
ACAD_XREC_ROUNDTRIP
360
4C
  0
DICTIONARY
  5
4F
330
31
100
AcDbDictionary
280
     1
281
     1
  3
ACAD_XREC_ROUNDTRIP
360
50
  0
DICTIONARY
  5
4D
330
30
100
AcDbDictionary
280
     1
281
     1
  3
ACAD_XREC_ROUNDTRIP
360
4E
  0
DICTIONARY
  5
51
330
32
100
AcDbDictionary
280
     1
281
     1
  3
ACAD_XREC_ROUNDTRIP
360
52
  0
DICTIONARY
  5
59
330
36
100
AcDbDictionary
280
     1
281
     1
  3
ACAD_XREC_ROUNDTRIP
360
5A
  0
DICTIONARY
  5
61
330
3A
100
AcDbDictionary
280
     1
281
     1
  3
ACAD_XREC_ROUNDTRIP
360
62
  0
DICTIONARY
  5
55
330
34
100
AcDbDictionary
280
     1
281
     1
  3
ACAD_XREC_ROUNDTRIP
360
56
  0
DICTIONARY
  5
57
330
35
100
AcDbDictionary
280
     1
281
     1
  3
ACAD_XREC_ROUNDTRIP
360
58
  0
DICTIONARY
  5
5F
330
39
100
AcDbDictionary
280
     1
281
     1
  3
ACAD_XREC_ROUNDTRIP
360
60
  0
DICTIONARY
  5
43
330
2B
100
AcDbDictionary
280
     1
281
     1
  3
ACAD_XREC_ROUNDTRIP
360
44
  0
DICTIONARY
  5
45
330
2C
100
AcDbDictionary
280
     1
281
     1
  3
ACAD_XREC_ROUNDTRIP
360
46
  0
DICTIONARY
  5
47
330
2D
100
AcDbDictionary
280
     1
281
     1
  3
ACAD_XREC_ROUNDTRIP
360
48
  0
DICTIONARY
  5
49
330
2E
100
AcDbDictionary
280
     1
281
     1
  3
ACAD_XREC_ROUNDTRIP
360
4A
  0
DICTIONARY
  5
5D
330
38
100
AcDbDictionary
280
     1
281
     1
  3
ACAD_XREC_ROUNDTRIP
360
5E
  0
DICTIONARY
  5
53
330
33
100
AcDbDictionary
280
     1
281
     1
  3
ACAD_XREC_ROUNDTRIP
360
54
  0
DICTIONARY
  5
5B
330
37
100
AcDbDictionary
280
     1
281
     1
  3
ACAD_XREC_ROUNDTRIP
360
5C
  0
XRECORD
  5
4C
102
{ACAD_REACTORS
330
4B
102
}
330
4B
100
AcDbXrecord
280
     1
102
RTVSPropertyOp0
 70
     1
102
RTVSPropertyOp1
 70
     1
102
RTVSPropertyOp2
 70
     1
102
RTVSPropertyOp3
 70
     1
102
RTVSPropertyOp4
 70
     1
102
RTVSPropertyOp5
 70
     1
102
RTVSPropertyOp6
 70
     1
102
RTVSPropertyOp7
 70
     1
102
RTVSPropertyOp8
 70
     1
102
RTVSPropertyOp9
 70
     1
102
RTVSPropertyOp10
 70
     1
102
RTVSPropertyOp11
 70
     1
102
RTVSPropertyOp12
 70
     1
102
RTVSPropertyOp13
 70
     1
102
RTVSPropertyOp14
 70
     1
102
RTVSPropertyOp15
 70
     1
102
RTVSPropertyOp16
 70
     1
102
RTVSPropertyOp17
 70
     1
102
RTVSPropertyOp18
 70
     1
102
RTVSPropertyOp19
 70
     1
102
RTVSPropertyOp20
 70
     1
102
RTVSPropertyOp21
 70
     1
102
RTVSPropertyOp22
 70
     1
102
RTVSPropertyOp23
 70
     1
102
RTVSPropertyOp24
 70
     1
102
RTVSPropertyOp25
 70
     1
102
RTVSPropertyOp26
 70
     1
102
RTVSPropertyOp27
 70
     1
102
RTVSPropertyOp28
 70
     1
102
RTVSPropertyOp29
 70
     1
102
RTVSPropertyOp30
 70
     1
102
RTVSPropertyOp31
 70
     1
102
RTVSPropertyOp32
 70
     1
  0
XRECORD
  5
50
102
{ACAD_REACTORS
330
4F
102
}
330
4F
100
AcDbXrecord
280
     1
102
RTVSPropertyOp0
 70
     1
102
RTVSPropertyOp1
 70
     1
102
RTVSPropertyOp2
 70
     1
102
RTVSPropertyOp3
 70
     1
102
RTVSPropertyOp4
 70
     1
102
RTVSPropertyOp5
 70
     1
102
RTVSPropertyOp6
 70
     1
102
RTVSPropertyOp7
 70
     1
102
RTVSPropertyOp8
 70
     1
102
RTVSPropertyOp9
 70
     1
102
RTVSPropertyOp10
 70
     1
102
RTVSPropertyOp11
 70
     1
102
RTVSPropertyOp12
 70
     1
102
RTVSPropertyOp13
 70
     1
102
RTVSPropertyOp14
 70
     1
102
RTVSPropertyOp15
 70
     1
102
RTVSPropertyOp16
 70
     1
102
RTVSPropertyOp17
 70
     1
102
RTVSPropertyOp18
 70
     1
102
RTVSPropertyOp19
 70
     1
102
RTVSPropertyOp20
 70
     1
102
RTVSPropertyOp21
 70
     1
102
RTVSPropertyOp22
 70
     1
102
RTVSPropertyOp23
 70
     1
102
RTVSPropertyOp24
 70
     1
102
RTVSPropertyOp25
 70
     1
102
RTVSPropertyOp26
 70
     1
102
RTVSPropertyOp27
 70
     1
102
RTVSPropertyOp28
 70
     1
102
RTVSPropertyOp29
 70
     1
102
RTVSPropertyOp30
 70
     1
102
RTVSPropertyOp31
 70
     1
102
RTVSPropertyOp32
 70
     1
  0
XRECORD
  5
4E
102
{ACAD_REACTORS
330
4D
102
}
330
4D
100
AcDbXrecord
280
     1
102
RTVSPropertyOp0
 70
     1
102
RTVSPropertyOp1
 70
     1
102
RTVSPropertyOp2
 70
     1
102
RTVSPropertyOp3
 70
     1
102
RTVSPropertyOp4
 70
     1
102
RTVSPropertyOp5
 70
     1
102
RTVSPropertyOp6
 70
     1
102
RTVSPropertyOp7
 70
     1
102
RTVSPropertyOp8
 70
     1
102
RTVSPropertyOp9
 70
     1
102
RTVSPropertyOp10
 70
     1
102
RTVSPropertyOp11
 70
     1
102
RTVSPropertyOp12
 70
     1
102
RTVSPropertyOp13
 70
     1
102
RTVSPropertyOp14
 70
     1
102
RTVSPropertyOp15
 70
     1
102
RTVSPropertyOp16
 70
     1
102
RTVSPropertyOp17
 70
     1
102
RTVSPropertyOp18
 70
     1
102
RTVSPropertyOp19
 70
     1
102
RTVSPropertyOp20
 70
     1
102
RTVSPropertyOp21
 70
     1
102
RTVSPropertyOp22
 70
     1
102
RTVSPropertyOp23
 70
     1
102
RTVSPropertyOp24
 70
     1
102
RTVSPropertyOp25
 70
     1
102
RTVSPropertyOp26
 70
     1
102
RTVSPropertyOp27
 70
     1
102
RTVSPropertyOp28
 70
     1
102
RTVSPropertyOp29
 70
     1
102
RTVSPropertyOp30
 70
     1
102
RTVSPropertyOp31
 70
     1
102
RTVSPropertyOp32
 70
     1
  0
XRECORD
  5
52
102
{ACAD_REACTORS
330
51
102
}
330
51
100
AcDbXrecord
280
     1
102
RTVSPropertyOp0
 70
     1
102
RTVSPropertyOp1
 70
     1
102
RTVSPropertyOp2
 70
     1
102
RTVSPropertyOp3
 70
     1
102
RTVSPropertyOp4
 70
     1
102
RTVSPropertyOp5
 70
     1
102
RTVSPropertyOp6
 70
     1
102
RTVSPropertyOp7
 70
     1
102
RTVSPropertyOp8
 70
     1
102
RTVSPropertyOp9
 70
     1
102
RTVSPropertyOp10
 70
     1
102
RTVSPropertyOp11
 70
     1
102
RTVSPropertyOp12
 70
     1
102
RTVSPropertyOp13
 70
     1
102
RTVSPropertyOp14
 70
     1
102
RTVSPropertyOp15
 70
     1
102
RTVSPropertyOp16
 70
     1
102
RTVSPropertyOp17
 70
     1
102
RTVSPropertyOp18
 70
     1
102
RTVSPropertyOp19
 70
     1
102
RTVSPropertyOp20
 70
     1
102
RTVSPropertyOp21
 70
     1
102
RTVSPropertyOp22
 70
     1
102
RTVSPropertyOp23
 70
     1
102
RTVSPropertyOp24
 70
     1
102
RTVSPropertyOp25
 70
     1
102
RTVSPropertyOp26
 70
     1
102
RTVSPropertyOp27
 70
     1
102
RTVSPropertyOp28
 70
     1
102
RTVSPropertyOp29
 70
     1
102
RTVSPropertyOp30
 70
     1
102
RTVSPropertyOp31
 70
     1
102
RTVSPropertyOp32
 70
     1
  0
XRECORD
  5
5A
102
{ACAD_REACTORS
330
59
102
}
330
59
100
AcDbXrecord
280
     1
102
RTVSPropertyOp0
 70
     1
102
RTVSPropertyOp1
 70
     1
102
RTVSPropertyOp2
 70
     1
102
RTVSPropertyOp3
 70
     1
102
RTVSPropertyOp4
 70
     1
102
RTVSPropertyOp5
 70
     1
102
RTVSPropertyOp6
 70
     1
102
RTVSPropertyOp7
 70
     1
102
RTVSPropertyOp8
 70
     1
102
RTVSPropertyOp9
 70
     1
102
RTVSPropertyOp10
 70
     1
102
RTVSPropertyOp11
 70
     1
102
RTVSPropertyOp12
 70
     1
102
RTVSPropertyOp13
 70
     1
102
RTVSPropertyOp14
 70
     1
102
RTVSPropertyOp15
 70
     1
102
RTVSPropertyOp16
 70
     1
102
RTVSPropertyOp17
 70
     1
102
RTVSPropertyOp18
 70
     1
102
RTVSPropertyOp19
 70
     1
102
RTVSPropertyOp20
 70
     1
102
RTVSPropertyOp21
 70
     1
102
RTVSPropertyOp22
 70
     1
102
RTVSPropertyOp23
 70
     1
102
RTVSPropertyOp24
 70
     1
102
RTVSPropertyOp25
 70
     1
102
RTVSPropertyOp26
 70
     1
102
RTVSPropertyOp27
 70
     1
102
RTVSPropertyOp28
 70
     1
102
RTVSPropertyOp29
 70
     1
102
RTVSPropertyOp30
 70
     1
102
RTVSPropertyOp31
 70
     1
102
RTVSPropertyOp32
 70
     1
  0
XRECORD
  5
62
102
{ACAD_REACTORS
330
61
102
}
330
61
100
AcDbXrecord
280
     1
102
RTVSPropertyOp0
 70
     1
102
RTVSPropertyOp1
 70
     1
102
RTVSPropertyOp2
 70
     1
102
RTVSPropertyOp3
 70
     1
102
RTVSPropertyOp4
 70
     1
102
RTVSPropertyOp5
 70
     1
102
RTVSPropertyOp6
 70
     1
102
RTVSPropertyOp7
 70
     1
102
RTVSPropertyOp8
 70
     1
102
RTVSPropertyOp9
 70
     1
102
RTVSPropertyOp10
 70
     1
102
RTVSPropertyOp11
 70
     1
102
RTVSPropertyOp12
 70
     1
102
RTVSPropertyOp13
 70
     1
102
RTVSPropertyOp14
 70
     1
102
RTVSPropertyOp15
 70
     1
102
RTVSPropertyOp16
 70
     1
102
RTVSPropertyOp17
 70
     1
102
RTVSPropertyOp18
 70
     1
102
RTVSPropertyOp19
 70
     1
102
RTVSPropertyOp20
 70
     1
102
RTVSPropertyOp21
 70
     1
102
RTVSPropertyOp22
 70
     1
102
RTVSPropertyOp23
 70
     1
102
RTVSPropertyOp24
 70
     1
102
RTVSPropertyOp25
 70
     1
102
RTVSPropertyOp26
 70
     1
102
RTVSPropertyOp27
 70
     1
102
RTVSPropertyOp28
 70
     1
102
RTVSPropertyOp29
 70
     1
102
RTVSPropertyOp30
 70
     1
102
RTVSPropertyOp31
 70
     1
102
RTVSPropertyOp32
 70
     1
  0
XRECORD
  5
56
102
{ACAD_REACTORS
330
55
102
}
330
55
100
AcDbXrecord
280
     1
102
RTVSPropertyOp0
 70
     1
102
RTVSPropertyOp1
 70
     1
102
RTVSPropertyOp2
 70
     1
102
RTVSPropertyOp3
 70
     1
102
RTVSPropertyOp4
 70
     1
102
RTVSPropertyOp5
 70
     1
102
RTVSPropertyOp6
 70
     1
102
RTVSPropertyOp7
 70
     1
102
RTVSPropertyOp8
 70
     1
102
RTVSPropertyOp9
 70
     1
102
RTVSPropertyOp10
 70
     1
102
RTVSPropertyOp11
 70
     1
102
RTVSPropertyOp12
 70
     1
102
RTVSPropertyOp13
 70
     1
102
RTVSPropertyOp14
 70
     1
102
RTVSPropertyOp15
 70
     1
102
RTVSPropertyOp16
 70
     1
102
RTVSPropertyOp17
 70
     1
102
RTVSPropertyOp18
 70
     1
102
RTVSPropertyOp19
 70
     1
102
RTVSPropertyOp20
 70
     1
102
RTVSPropertyOp21
 70
     1
102
RTVSPropertyOp22
 70
     1
102
RTVSPropertyOp23
 70
     1
102
RTVSPropertyOp24
 70
     1
102
RTVSPropertyOp25
 70
     1
102
RTVSPropertyOp26
 70
     1
102
RTVSPropertyOp27
 70
     1
102
RTVSPropertyOp28
 70
     1
102
RTVSPropertyOp29
 70
     1
102
RTVSPropertyOp30
 70
     1
102
RTVSPropertyOp31
 70
     1
102
RTVSPropertyOp32
 70
     1
  0
XRECORD
  5
58
102
{ACAD_REACTORS
330
57
102
}
330
57
100
AcDbXrecord
280
     1
102
RTVSPropertyOp0
 70
     1
102
RTVSPropertyOp1
 70
     1
102
RTVSPropertyOp2
 70
     1
102
RTVSPropertyOp3
 70
     1
102
RTVSPropertyOp4
 70
     1
102
RTVSPropertyOp5
 70
     1
102
RTVSPropertyOp6
 70
     1
102
RTVSPropertyOp7
 70
     1
102
RTVSPropertyOp8
 70
     1
102
RTVSPropertyOp9
 70
     1
102
RTVSPropertyOp10
 70
     1
102
RTVSPropertyOp11
 70
     1
102
RTVSPropertyOp12
 70
     1
102
RTVSPropertyOp13
 70
     1
102
RTVSPropertyOp14
 70
     1
102
RTVSPropertyOp15
 70
     1
102
RTVSPropertyOp16
 70
     1
102
RTVSPropertyOp17
 70
     1
102
RTVSPropertyOp18
 70
     1
102
RTVSPropertyOp19
 70
     1
102
RTVSPropertyOp20
 70
     1
102
RTVSPropertyOp21
 70
     1
102
RTVSPropertyOp22
 70
     1
102
RTVSPropertyOp23
 70
     1
102
RTVSPropertyOp24
 70
     1
102
RTVSPropertyOp25
 70
     1
102
RTVSPropertyOp26
 70
     1
102
RTVSPropertyOp27
 70
     1
102
RTVSPropertyOp28
 70
     1
102
RTVSPropertyOp29
 70
     1
102
RTVSPropertyOp30
 70
     1
102
RTVSPropertyOp31
 70
     1
102
RTVSPropertyOp32
 70
     1
  0
XRECORD
  5
60
102
{ACAD_REACTORS
330
5F
102
}
330
5F
100
AcDbXrecord
280
     1
102
RTVSPropertyOp0
 70
     1
102
RTVSPropertyOp1
 70
     1
102
RTVSPropertyOp2
 70
     1
102
RTVSPropertyOp3
 70
     1
102
RTVSPropertyOp4
 70
     1
102
RTVSPropertyOp5
 70
     1
102
RTVSPropertyOp6
 70
     1
102
RTVSPropertyOp7
 70
     1
102
RTVSPropertyOp8
 70
     1
102
RTVSPropertyOp9
 70
     1
102
RTVSPropertyOp10
 70
     1
102
RTVSPropertyOp11
 70
     1
102
RTVSPropertyOp12
 70
     1
102
RTVSPropertyOp13
 70
     1
102
RTVSPropertyOp14
 70
     1
102
RTVSPropertyOp15
 70
     1
102
RTVSPropertyOp16
 70
     1
102
RTVSPropertyOp17
 70
     1
102
RTVSPropertyOp18
 70
     1
102
RTVSPropertyOp19
 70
     1
102
RTVSPropertyOp20
 70
     1
102
RTVSPropertyOp21
 70
     1
102
RTVSPropertyOp22
 70
     1
102
RTVSPropertyOp23
 70
     1
102
RTVSPropertyOp24
 70
     1
102
RTVSPropertyOp25
 70
     1
102
RTVSPropertyOp26
 70
     1
102
RTVSPropertyOp27
 70
     1
102
RTVSPropertyOp28
 70
     1
102
RTVSPropertyOp29
 70
     1
102
RTVSPropertyOp30
 70
     1
102
RTVSPropertyOp31
 70
     1
102
RTVSPropertyOp32
 70
     1
  0
XRECORD
  5
44
102
{ACAD_REACTORS
330
43
102
}
330
43
100
AcDbXrecord
280
     1
102
RTVSPropertyOp0
 70
     1
102
RTVSPropertyOp1
 70
     1
102
RTVSPropertyOp2
 70
     1
102
RTVSPropertyOp3
 70
     1
102
RTVSPropertyOp4
 70
     1
102
RTVSPropertyOp5
 70
     1
102
RTVSPropertyOp6
 70
     1
102
RTVSPropertyOp7
 70
     1
102
RTVSPropertyOp8
 70
     1
102
RTVSPropertyOp9
 70
     1
102
RTVSPropertyOp10
 70
     1
102
RTVSPropertyOp11
 70
     1
102
RTVSPropertyOp12
 70
     1
102
RTVSPropertyOp13
 70
     1
102
RTVSPropertyOp14
 70
     1
102
RTVSPropertyOp15
 70
     1
102
RTVSPropertyOp16
 70
     1
102
RTVSPropertyOp17
 70
     1
102
RTVSPropertyOp18
 70
     1
102
RTVSPropertyOp19
 70
     1
102
RTVSPropertyOp20
 70
     1
102
RTVSPropertyOp21
 70
     1
102
RTVSPropertyOp22
 70
     1
102
RTVSPropertyOp23
 70
     1
102
RTVSPropertyOp24
 70
     1
102
RTVSPropertyOp25
 70
     1
102
RTVSPropertyOp26
 70
     1
102
RTVSPropertyOp27
 70
     1
102
RTVSPropertyOp28
 70
     1
102
RTVSPropertyOp29
 70
     1
102
RTVSPropertyOp30
 70
     1
102
RTVSPropertyOp31
 70
     1
102
RTVSPropertyOp32
 70
     1
  0
XRECORD
  5
46
102
{ACAD_REACTORS
330
45
102
}
330
45
100
AcDbXrecord
280
     1
102
RTVSPropertyOp0
 70
     1
102
RTVSPropertyOp1
 70
     1
102
RTVSPropertyOp2
 70
     1
102
RTVSPropertyOp3
 70
     1
102
RTVSPropertyOp4
 70
     1
102
RTVSPropertyOp5
 70
     1
102
RTVSPropertyOp6
 70
     1
102
RTVSPropertyOp7
 70
     1
102
RTVSPropertyOp8
 70
     1
102
RTVSPropertyOp9
 70
     1
102
RTVSPropertyOp10
 70
     1
102
RTVSPropertyOp11
 70
     1
102
RTVSPropertyOp12
 70
     1
102
RTVSPropertyOp13
 70
     1
102
RTVSPropertyOp14
 70
     1
102
RTVSPropertyOp15
 70
     1
102
RTVSPropertyOp16
 70
     1
102
RTVSPropertyOp17
 70
     1
102
RTVSPropertyOp18
 70
     1
102
RTVSPropertyOp19
 70
     1
102
RTVSPropertyOp20
 70
     1
102
RTVSPropertyOp21
 70
     1
102
RTVSPropertyOp22
 70
     1
102
RTVSPropertyOp23
 70
     1
102
RTVSPropertyOp24
 70
     1
102
RTVSPropertyOp25
 70
     1
102
RTVSPropertyOp26
 70
     1
102
RTVSPropertyOp27
 70
     1
102
RTVSPropertyOp28
 70
     1
102
RTVSPropertyOp29
 70
     1
102
RTVSPropertyOp30
 70
     1
102
RTVSPropertyOp31
 70
     1
102
RTVSPropertyOp32
 70
     1
  0
XRECORD
  5
48
102
{ACAD_REACTORS
330
47
102
}
330
47
100
AcDbXrecord
280
     1
102
RTVSPropertyOp0
 70
     1
102
RTVSPropertyOp1
 70
     1
102
RTVSPropertyOp2
 70
     1
102
RTVSPropertyOp3
 70
     1
102
RTVSPropertyOp4
 70
     1
102
RTVSPropertyOp5
 70
     1
102
RTVSPropertyOp6
 70
     1
102
RTVSPropertyOp7
 70
     1
102
RTVSPropertyOp8
 70
     1
102
RTVSPropertyOp9
 70
     1
102
RTVSPropertyOp10
 70
     1
102
RTVSPropertyOp11
 70
     1
102
RTVSPropertyOp12
 70
     1
102
RTVSPropertyOp13
 70
     1
102
RTVSPropertyOp14
 70
     1
102
RTVSPropertyOp15
 70
     1
102
RTVSPropertyOp16
 70
     1
102
RTVSPropertyOp17
 70
     1
102
RTVSPropertyOp18
 70
     1
102
RTVSPropertyOp19
 70
     1
102
RTVSPropertyOp20
 70
     1
102
RTVSPropertyOp21
 70
     1
102
RTVSPropertyOp22
 70
     1
102
RTVSPropertyOp23
 70
     1
102
RTVSPropertyOp24
 70
     1
102
RTVSPropertyOp25
 70
     1
102
RTVSPropertyOp26
 70
     1
102
RTVSPropertyOp27
 70
     1
102
RTVSPropertyOp28
 70
     1
102
RTVSPropertyOp29
 70
     1
102
RTVSPropertyOp30
 70
     1
102
RTVSPropertyOp31
 70
     1
102
RTVSPropertyOp32
 70
     1
  0
XRECORD
  5
4A
102
{ACAD_REACTORS
330
49
102
}
330
49
100
AcDbXrecord
280
     1
102
RTVSPropertyOp0
 70
     1
102
RTVSPropertyOp1
 70
     1
102
RTVSPropertyOp2
 70
     1
102
RTVSPropertyOp3
 70
     1
102
RTVSPropertyOp4
 70
     1
102
RTVSPropertyOp5
 70
     1
102
RTVSPropertyOp6
 70
     1
102
RTVSPropertyOp7
 70
     1
102
RTVSPropertyOp8
 70
     1
102
RTVSPropertyOp9
 70
     1
102
RTVSPropertyOp10
 70
     1
102
RTVSPropertyOp11
 70
     1
102
RTVSPropertyOp12
 70
     1
102
RTVSPropertyOp13
 70
     1
102
RTVSPropertyOp14
 70
     1
102
RTVSPropertyOp15
 70
     1
102
RTVSPropertyOp16
 70
     1
102
RTVSPropertyOp17
 70
     1
102
RTVSPropertyOp18
 70
     1
102
RTVSPropertyOp19
 70
     1
102
RTVSPropertyOp20
 70
     1
102
RTVSPropertyOp21
 70
     1
102
RTVSPropertyOp22
 70
     1
102
RTVSPropertyOp23
 70
     1
102
RTVSPropertyOp24
 70
     1
102
RTVSPropertyOp25
 70
     1
102
RTVSPropertyOp26
 70
     1
102
RTVSPropertyOp27
 70
     1
102
RTVSPropertyOp28
 70
     1
102
RTVSPropertyOp29
 70
     1
102
RTVSPropertyOp30
 70
     1
102
RTVSPropertyOp31
 70
     1
102
RTVSPropertyOp32
 70
     1
  0
XRECORD
  5
5E
102
{ACAD_REACTORS
330
5D
102
}
330
5D
100
AcDbXrecord
280
     1
102
RTVSPropertyOp0
 70
     1
102
RTVSPropertyOp1
 70
     1
102
RTVSPropertyOp2
 70
     1
102
RTVSPropertyOp3
 70
     1
102
RTVSPropertyOp4
 70
     1
102
RTVSPropertyOp5
 70
     1
102
RTVSPropertyOp6
 70
     1
102
RTVSPropertyOp7
 70
     1
102
RTVSPropertyOp8
 70
     1
102
RTVSPropertyOp9
 70
     1
102
RTVSPropertyOp10
 70
     1
102
RTVSPropertyOp11
 70
     1
102
RTVSPropertyOp12
 70
     1
102
RTVSPropertyOp13
 70
     1
102
RTVSPropertyOp14
 70
     1
102
RTVSPropertyOp15
 70
     1
102
RTVSPropertyOp16
 70
     1
102
RTVSPropertyOp17
 70
     1
102
RTVSPropertyOp18
 70
     1
102
RTVSPropertyOp19
 70
     1
102
RTVSPropertyOp20
 70
     1
102
RTVSPropertyOp21
 70
     1
102
RTVSPropertyOp22
 70
     1
102
RTVSPropertyOp23
 70
     1
102
RTVSPropertyOp24
 70
     1
102
RTVSPropertyOp25
 70
     1
102
RTVSPropertyOp26
 70
     1
102
RTVSPropertyOp27
 70
     1
102
RTVSPropertyOp28
 70
     1
102
RTVSPropertyOp29
 70
     1
102
RTVSPropertyOp30
 70
     1
102
RTVSPropertyOp31
 70
     1
102
RTVSPropertyOp32
 70
     1
  0
XRECORD
  5
54
102
{ACAD_REACTORS
330
53
102
}
330
53
100
AcDbXrecord
280
     1
102
RTVSPropertyOp0
 70
     1
102
RTVSPropertyOp1
 70
     1
102
RTVSPropertyOp2
 70
     1
102
RTVSPropertyOp3
 70
     1
102
RTVSPropertyOp4
 70
     1
102
RTVSPropertyOp5
 70
     1
102
RTVSPropertyOp6
 70
     1
102
RTVSPropertyOp7
 70
     1
102
RTVSPropertyOp8
 70
     1
102
RTVSPropertyOp9
 70
     1
102
RTVSPropertyOp10
 70
     1
102
RTVSPropertyOp11
 70
     1
102
RTVSPropertyOp12
 70
     1
102
RTVSPropertyOp13
 70
     1
102
RTVSPropertyOp14
 70
     1
102
RTVSPropertyOp15
 70
     1
102
RTVSPropertyOp16
 70
     1
102
RTVSPropertyOp17
 70
     1
102
RTVSPropertyOp18
 70
     1
102
RTVSPropertyOp19
 70
     1
102
RTVSPropertyOp20
 70
     1
102
RTVSPropertyOp21
 70
     1
102
RTVSPropertyOp22
 70
     1
102
RTVSPropertyOp23
 70
     1
102
RTVSPropertyOp24
 70
     1
102
RTVSPropertyOp25
 70
     1
102
RTVSPropertyOp26
 70
     1
102
RTVSPropertyOp27
 70
     1
102
RTVSPropertyOp28
 70
     1
102
RTVSPropertyOp29
 70
     1
102
RTVSPropertyOp30
 70
     1
102
RTVSPropertyOp31
 70
     1
102
RTVSPropertyOp32
 70
     1
  0
XRECORD
  5
5C
102
{ACAD_REACTORS
330
5B
102
}
330
5B
100
AcDbXrecord
280
     1
102
RTVSPropertyOp0
 70
     1
102
RTVSPropertyOp1
 70
     1
102
RTVSPropertyOp2
 70
     1
102
RTVSPropertyOp3
 70
     1
102
RTVSPropertyOp4
 70
     1
102
RTVSPropertyOp5
 70
     1
102
RTVSPropertyOp6
 70
     1
102
RTVSPropertyOp7
 70
     1
102
RTVSPropertyOp8
 70
     1
102
RTVSPropertyOp9
 70
     1
102
RTVSPropertyOp10
 70
     1
102
RTVSPropertyOp11
 70
     1
102
RTVSPropertyOp12
 70
     1
102
RTVSPropertyOp13
 70
     1
102
RTVSPropertyOp14
 70
     1
102
RTVSPropertyOp15
 70
     1
102
RTVSPropertyOp16
 70
     1
102
RTVSPropertyOp17
 70
     1
102
RTVSPropertyOp18
 70
     1
102
RTVSPropertyOp19
 70
     1
102
RTVSPropertyOp20
 70
     1
102
RTVSPropertyOp21
 70
     1
102
RTVSPropertyOp22
 70
     1
102
RTVSPropertyOp23
 70
     1
102
RTVSPropertyOp24
 70
     1
102
RTVSPropertyOp25
 70
     1
102
RTVSPropertyOp26
 70
     1
102
RTVSPropertyOp27
 70
     1
102
RTVSPropertyOp28
 70
     1
102
RTVSPropertyOp29
 70
     1
102
RTVSPropertyOp30
 70
     1
102
RTVSPropertyOp31
 70
     1
102
RTVSPropertyOp32
 70
     1
  0
ENDSEC
  0
EOF
