0
SECTION
2
HEADER
9
$ACADVER
1
AC1003
9
$INSBASE
10
0.0
20
0.0
30
0.0
9
$EXTMIN
10
0.000
20
0.000
30
0.0
9
$EXTMAX
10
1258.000
20
1824.000
30
0.0
9
$LIMMIN
10
0.000
20
0.000
9
$LIMMAX
10
1258.000
20
1824.000
9
$LTSCALE
40
1.0
9
$LUNITS
70
2
9
$LUPREC
70
3
9
$LIMCHECK
70
0
9
$UCSNAME
2

9
$UCSORG
10
0.0
20
0.0
30
0.0
9
$UCSXDIR
10
1.0
20
0.0
30
0.0
9
$UCSYDIR
10
0.0
20
1.0
30
0.0
9
$WORLDVIEW
70
1
9
$UNITMODE
70
0
0
ENDSEC
0
SECTION
2
TABLES
0
TABLE
2
VPORT
70
1
0
VPORT
2
*ACTIVE
70
0
10
0.0
20
0.0
11
1.0
21
1.0
12
629.000
22
912.000
13
0.0
23
0.0
14
1.0
24
1.0
15
0.0
25
0.0
16
0.0
26
0.0
36
1.0
17
0.0
27
0.0
37
0.0
40
500.0
41
1.450
42
50.0
43
0.0
44
0.0
50
0.0
51
0.0
71
0
72
100
73
1
74
1
75
0
76
0
77
0
78
0
0
ENDTAB
0
TABLE
2
LTYPE
70
1
0
LTYPE
2
CONTINUOUS
70
64
3
Solid line
72
65
73
0
40
0.000
0
ENDTAB
0
TABLE
2
LAYER
70
1
0
LAYER
2
0
70
64
62
7
6
CONTINUOUS
0
ENDTAB
0
ENDSEC
0
SECTION
2
BLOCKS
0
ENDSEC
0
SECTION
2
ENTITIES
0
POLYLINE
8
0
6
CONTINUOUS
66
1
62
250
10
0.0
20
0.0
30
0.000000
0
VERTEX
8
0
10
639.000000
20
1696.000000
0
VERTEX
8
0
10
654.000000
20
1696.000000
0
SEQEND
0
POLYLINE
8
0
6
CONTINUOUS
66
1
62
250
10
0.0
20
0.0
30
0.000000
0
VERTEX
8
0
10
658.000000
20
1696.000000
0
VERTEX
8
0
10
670.000000
20
1696.000000
0
SEQEND
0
POLYLINE
8
0
6
CONTINUOUS
66
1
62
250
10
0.0
20
0.0
30
0.000000
0
VERTEX
8
0
10
683.000000
20
1696.000000
0
VERTEX
8
0
10
695.000000
20
1696.000000
0
SEQEND
0
POLYLINE
8
0
6
CONTINUOUS
66
1
62
250
10
0.0
20
0.0
30
0.000000
0
VERTEX
8
0
10
708.000000
20
1696.000000
0
VERTEX
8
0
10
720.000000
20
1696.000000
0
SEQEND
0
POLYLINE
8
0
6
CONTINUOUS
66
1
62
250
10
0.0
20
0.0
30
0.000000
0
VERTEX
8
0
10
733.000000
20
1696.000000
0
VERTEX
8
0
10
745.000000
20
1696.000000
0
SEQEND
0
POLYLINE
8
0
6
CONTINUOUS
66
1
62
250
10
0.0
20
0.0
30
0.000000
0
VERTEX
8
0
10
758.000000
20
1696.000000
0
VERTEX
8
0
10
770.000000
20
1696.000000
0
SEQEND
0
POLYLINE
8
0
6
CONTINUOUS
66
1
62
250
10
0.0
20
0.0
30
0.000000
0
VERTEX
8
0
10
783.000000
20
1696.000000
0
VERTEX
8
0
10
795.000000
20
1696.000000
0
SEQEND
0
POLYLINE
8
0
6
CONTINUOUS
66
1
62
250
10
0.0
20
0.0
30
0.000000
0
VERTEX
8
0
10
808.000000
20
1696.000000
0
VERTEX
8
0
10
820.000000
20
1696.000000
0
SEQEND
0
POLYLINE
8
0
6
CONTINUOUS
66
1
62
250
10
0.0
20
0.0
30
0.000000
0
VERTEX
8
0
10
833.000000
20
1696.000000
0
VERTEX
8
0
10
845.000000
20
1696.000000
0
SEQEND
0
POLYLINE
8
0
6
CONTINUOUS
66
1
62
250
10
0.0
20
0.0
30
0.000000
0
VERTEX
8
0
10
858.000000
20
1696.000000
0
VERTEX
8
0
10
870.000000
20
1696.000000
0
SEQEND
0
POLYLINE
8
0
6
CONTINUOUS
66
1
62
250
10
0.0
20
0.0
30
0.000000
0
VERTEX
8
0
10
883.000000
20
1696.000000
0
VERTEX
8
0
10
895.000000
20
1696.000000
0
SEQEND
0
POLYLINE
8
0
6
CONTINUOUS
66
1
62
250
10
0.0
20
0.0
30
0.000000
0
VERTEX
8
0
10
908.000000
20
1696.000000
0
VERTEX
8
0
10
920.000000
20
1696.000000
0
SEQEND
0
POLYLINE
8
0
6
CONTINUOUS
66
1
62
250
10
0.0
20
0.0
30
0.000000
0
VERTEX
8
0
10
933.000000
20
1696.000000
0
VERTEX
8
0
10
945.000000
20
1696.000000
0
SEQEND
0
POLYLINE
8
0
6
CONTINUOUS
66
1
62
250
10
0.0
20
0.0
30
0.000000
0
VERTEX
8
0
10
958.000000
20
1696.000000
0
VERTEX
8
0
10
962.000000
20
1696.000000
0
SEQEND
0
POLYLINE
8
0
6
CONTINUOUS
66
1
62
250
10
0.0
20
0.0
30
0.000000
0
VERTEX
8
0
10
966.000000
20
1696.000000
0
VERTEX
8
0
10
982.000000
20
1696.000000
0
SEQEND
0
POLYLINE
8
0
6
CONTINUOUS
66
1
62
250
10
0.0
20
0.0
30
0.000000
0
VERTEX
8
0
10
508.000000
20
1553.000000
0
VERTEX
8
0
10
520.000000
20
1553.000000
0
SEQEND
0
POLYLINE
8
0
6
CONTINUOUS
66
1
62
250
10
0.0
20
0.0
30
0.000000
0
VERTEX
8
0
10
533.000000
20
1553.000000
0
VERTEX
8
0
10
545.000000
20
1553.000000
0
SEQEND
0
POLYLINE
8
0
6
CONTINUOUS
66
1
62
250
10
0.0
20
0.0
30
0.000000
0
VERTEX
8
0
10
558.000000
20
1553.000000
0
VERTEX
8
0
10
570.000000
20
1553.000000
0
SEQEND
0
POLYLINE
8
0
6
CONTINUOUS
66
1
62
250
10
0.0
20
0.0
30
0.000000
0
VERTEX
8
0
10
583.000000
20
1553.000000
0
VERTEX
8
0
10
595.000000
20
1553.000000
0
SEQEND
0
POLYLINE
8
0
6
CONTINUOUS
66
1
62
250
10
0.0
20
0.0
30
0.000000
0
VERTEX
8
0
10
608.000000
20
1553.000000
0
VERTEX
8
0
10
620.000000
20
1553.000000
0
SEQEND
0
POLYLINE
8
0
6
CONTINUOUS
66
1
62
250
10
0.0
20
0.0
30
0.000000
0
VERTEX
8
0
10
633.000000
20
1553.000000
0
VERTEX
8
0
10
638.000000
20
1554.000000
0
VERTEX
8
0
10
645.000000
20
1553.000000
0
SEQEND
0
POLYLINE
8
0
6
CONTINUOUS
66
1
62
250
10
0.0
20
0.0
30
0.000000
0
VERTEX
8
0
10
658.000000
20
1553.000000
0
VERTEX
8
0
10
670.000000
20
1553.000000
0
SEQEND
0
POLYLINE
8
0
6
CONTINUOUS
66
1
62
250
10
0.0
20
0.0
30
0.000000
0
VERTEX
8
0
10
683.000000
20
1553.000000
0
VERTEX
8
0
10
695.000000
20
1553.000000
0
SEQEND
0
POLYLINE
8
0
6
CONTINUOUS
66
1
62
250
10
0.0
20
0.0
30
0.000000
0
VERTEX
8
0
10
708.000000
20
1553.000000
0
VERTEX
8
0
10
720.000000
20
1553.000000
0
SEQEND
0
POLYLINE
8
0
6
CONTINUOUS
66
1
62
250
10
0.0
20
0.0
30
0.000000
0
VERTEX
8
0
10
733.000000
20
1553.000000
0
VERTEX
8
0
10
745.000000
20
1553.000000
0
SEQEND
0
POLYLINE
8
0
6
CONTINUOUS
66
1
62
250
10
0.0
20
0.0
30
0.000000
0
VERTEX
8
0
10
758.000000
20
1553.000000
0
VERTEX
8
0
10
770.000000
20
1553.000000
0
SEQEND
0
POLYLINE
8
0
6
CONTINUOUS
66
1
62
250
10
0.0
20
0.0
30
0.000000
0
VERTEX
8
0
10
783.000000
20
1553.000000
0
VERTEX
8
0
10
795.000000
20
1553.000000
0
SEQEND
0
POLYLINE
8
0
6
CONTINUOUS
66
1
62
250
10
0.0
20
0.0
30
0.000000
0
VERTEX
8
0
10
808.000000
20
1553.000000
0
VERTEX
8
0
10
820.000000
20
1553.000000
0
SEQEND
0
POLYLINE
8
0
6
CONTINUOUS
66
1
62
250
10
0.0
20
0.0
30
0.000000
0
VERTEX
8
0
10
833.000000
20
1553.000000
0
VERTEX
8
0
10
845.000000
20
1553.000000
0
SEQEND
0
POLYLINE
8
0
6
CONTINUOUS
66
1
62
250
10
0.0
20
0.0
30
0.000000
0
VERTEX
8
0
10
858.000000
20
1553.000000
0
VERTEX
8
0
10
870.000000
20
1553.000000
0
SEQEND
0
POLYLINE
8
0
6
CONTINUOUS
66
1
62
250
10
0.0
20
0.0
30
0.000000
0
VERTEX
8
0
10
883.000000
20
1553.000000
0
VERTEX
8
0
10
895.000000
20
1553.000000
0
SEQEND
0
POLYLINE
8
0
6
CONTINUOUS
66
1
62
250
10
0.0
20
0.0
30
0.000000
0
VERTEX
8
0
10
908.000000
20
1553.000000
0
VERTEX
8
0
10
920.000000
20
1553.000000
0
SEQEND
0
POLYLINE
8
0
6
CONTINUOUS
66
1
62
250
10
0.0
20
0.0
30
0.000000
0
VERTEX
8
0
10
933.000000
20
1553.000000
0
VERTEX
8
0
10
945.000000
20
1553.000000
0
SEQEND
0
POLYLINE
8
0
6
CONTINUOUS
66
1
62
250
10
0.0
20
0.0
30
0.000000
0
VERTEX
8
0
10
958.000000
20
1553.000000
0
VERTEX
8
0
10
970.000000
20
1553.000000
0
SEQEND
0
POLYLINE
8
0
6
CONTINUOUS
66
1
62
250
10
0.0
20
0.0
30
0.000000
0
VERTEX
8
0
10
995.000000
20
1553.000000
0
VERTEX
8
0
10
986.000000
20
1553.000000
0
VERTEX
8
0
10
984.000000
20
1555.000000
0
SEQEND
0
POLYLINE
8
0
6
CONTINUOUS
66
1
62
250
10
0.0
20
0.0
30
0.000000
0
VERTEX
8
0
10
1008.000000
20
1553.000000
0
VERTEX
8
0
10
1020.000000
20
1553.000000
0
SEQEND
0
POLYLINE
8
0
6
CONTINUOUS
66
1
62
250
10
0.0
20
0.0
30
0.000000
0
VERTEX
8
0
10
1033.000000
20
1553.000000
0
VERTEX
8
0
10
1045.000000
20
1553.000000
0
SEQEND
0
POLYLINE
8
0
6
CONTINUOUS
66
1
62
250
10
0.0
20
0.0
30
0.000000
0
VERTEX
8
0
10
1058.000000
20
1553.000000
0
VERTEX
8
0
10
1070.000000
20
1553.000000
0
SEQEND
0
POLYLINE
8
0
6
CONTINUOUS
66
1
62
250
10
0.0
20
0.0
30
0.000000
0
VERTEX
8
0
10
1083.000000
20
1553.000000
0
VERTEX
8
0
10
1095.000000
20
1553.000000
0
SEQEND
0
POLYLINE
8
0
6
CONTINUOUS
66
1
62
250
10
0.0
20
0.0
30
0.000000
0
VERTEX
8
0
10
1108.000000
20
1553.000000
0
VERTEX
8
0
10
1117.000000
20
1553.000000
0
SEQEND
0
POLYLINE
8
0
6
CONTINUOUS
66
1
62
250
10
0.0
20
0.0
30
0.000000
0
VERTEX
8
0
10
179.000000
20
1541.000000
0
VERTEX
8
0
10
179.000000
20
1552.000000
0
SEQEND
0
POLYLINE
8
0
6
CONTINUOUS
66
1
62
250
10
0.0
20
0.0
30
0.000000
0
VERTEX
8
0
10
503.000000
20
1541.000000
42
0.094028
0
VERTEX
8
0
10
502.000000
20
1553.000000
0
VERTEX
8
0
10
503.450820
20
1565.959016
0
VERTEX
8
0
10
511.384615
20
1609.923077
0
VERTEX
8
0
10
512.615385
20
1617.076923
42
-0.136207
0
VERTEX
8
0
10
516.000000
20
1627.000000
0
VERTEX
8
0
10
628.000000
20
1626.000000
0
VERTEX
8
0
10
631.000000
20
1623.000000
0
VERTEX
8
0
10
632.472376
20
1587.024862
42
0.112258
0
VERTEX
8
0
10
635.000000
20
1573.000000
0
VERTEX
8
0
10
636.000000
20
1573.000000
0
VERTEX
8
0
10
636.200000
20
1573.900000
0
VERTEX
8
0
10
637.504237
20
1577.004166
0
VERTEX
8
0
10
639.000000
20
1696.000000
42
-0.287762
0
VERTEX
8
0
10
658.900000
20
1737.200000
0
VERTEX
8
0
10
663.000000
20
1739.000000
0
VERTEX
8
0
10
957.000000
20
1739.000000
42
-0.336375
0
VERTEX
8
0
10
982.430769
20
1702.053846
42
-0.174218
0
VERTEX
8
0
10
982.000000
20
1696.000000
0
VERTEX
8
0
10
983.496154
20
1565.003787
42
0.144857
0
VERTEX
8
0
10
985.000000
20
1562.000000
0
VERTEX
8
0
10
984.000000
20
1555.000000
0
VERTEX
8
0
10
983.000000
20
1554.000000
0
VERTEX
8
0
10
983.000000
20
1541.000000
0
SEQEND
0
POLYLINE
8
0
6
CONTINUOUS
66
1
62
251
10
0.0
20
0.0
30
0.000000
0
VERTEX
8
0
10
639.000000
20
1541.000000
0
VERTEX
8
0
10
638.000000
20
1554.000000
0
VERTEX
8
0
10
637.700000
20
1555.900000
0
VERTEX
8
0
10
636.458824
20
1561.035294
0
VERTEX
8
0
10
636.000000
20
1573.000000
0
SEQEND
0
POLYLINE
8
0
6
CONTINUOUS
66
1
62
250
10
0.0
20
0.0
30
0.000000
0
VERTEX
8
0
10
179.000000
20
1516.000000
0
VERTEX
8
0
10
179.000000
20
1527.000000
0
SEQEND
0
POLYLINE
8
0
6
CONTINUOUS
66
1
62
250
10
0.0
20
0.0
30
0.000000
0
VERTEX
8
0
10
503.000000
20
1516.000000
0
VERTEX
8
0
10
503.000000
20
1527.000000
0
SEQEND
0
POLYLINE
8
0
6
CONTINUOUS
66
1
62
251
10
0.0
20
0.0
30
0.000000
0
VERTEX
8
0
10
639.000000
20
1516.000000
0
VERTEX
8
0
10
639.000000
20
1527.000000
0
SEQEND
0
POLYLINE
8
0
6
CONTINUOUS
66
1
62
251
10
0.0
20
0.0
30
0.000000
0
VERTEX
8
0
10
983.000000
20
1516.000000
0
VERTEX
8
0
10
983.000000
20
1527.000000
0
SEQEND
0
POLYLINE
8
0
6
CONTINUOUS
66
1
62
250
10
0.0
20
0.0
30
0.000000
0
VERTEX
8
0
10
179.000000
20
1491.000000
0
VERTEX
8
0
10
179.000000
20
1502.000000
0
SEQEND
0
POLYLINE
8
0
6
CONTINUOUS
66
1
62
250
10
0.0
20
0.0
30
0.000000
0
VERTEX
8
0
10
503.000000
20
1491.000000
0
VERTEX
8
0
10
503.000000
20
1502.000000
0
SEQEND
0
POLYLINE
8
0
6
CONTINUOUS
66
1
62
251
10
0.0
20
0.0
30
0.000000
0
VERTEX
8
0
10
639.000000
20
1491.000000
0
VERTEX
8
0
10
639.000000
20
1502.000000
0
SEQEND
0
POLYLINE
8
0
6
CONTINUOUS
66
1
62
251
10
0.0
20
0.0
30
0.000000
0
VERTEX
8
0
10
983.000000
20
1491.000000
0
VERTEX
8
0
10
983.000000
20
1502.000000
0
SEQEND
0
POLYLINE
8
0
6
CONTINUOUS
66
1
62
250
10
0.0
20
0.0
30
0.000000
0
VERTEX
8
0
10
179.000000
20
1466.000000
0
VERTEX
8
0
10
179.000000
20
1477.000000
0
SEQEND
0
POLYLINE
8
0
6
CONTINUOUS
66
1
62
250
10
0.0
20
0.0
30
0.000000
0
VERTEX
8
0
10
503.000000
20
1466.000000
0
VERTEX
8
0
10
503.000000
20
1477.000000
0
SEQEND
0
POLYLINE
8
0
6
CONTINUOUS
66
1
62
251
10
0.0
20
0.0
30
0.000000
0
VERTEX
8
0
10
639.000000
20
1466.000000
0
VERTEX
8
0
10
639.000000
20
1477.000000
0
SEQEND
0
POLYLINE
8
0
6
CONTINUOUS
66
1
62
251
10
0.0
20
0.0
30
0.000000
0
VERTEX
8
0
10
983.000000
20
1466.000000
0
VERTEX
8
0
10
983.000000
20
1477.000000
0
SEQEND
0
POLYLINE
8
0
6
CONTINUOUS
66
1
62
250
10
0.0
20
0.0
30
0.000000
0
VERTEX
8
0
10
179.000000
20
1441.000000
0
VERTEX
8
0
10
179.000000
20
1452.000000
0
SEQEND
0
POLYLINE
8
0
6
CONTINUOUS
66
1
62
250
10
0.0
20
0.0
30
0.000000
0
VERTEX
8
0
10
503.000000
20
1441.000000
0
VERTEX
8
0
10
503.000000
20
1452.000000
0
SEQEND
0
POLYLINE
8
0
6
CONTINUOUS
66
1
62
251
10
0.0
20
0.0
30
0.000000
0
VERTEX
8
0
10
639.000000
20
1441.000000
0
VERTEX
8
0
10
639.000000
20
1452.000000
0
SEQEND
0
POLYLINE
8
0
6
CONTINUOUS
66
1
62
251
10
0.0
20
0.0
30
0.000000
0
VERTEX
8
0
10
983.000000
20
1441.000000
0
VERTEX
8
0
10
983.000000
20
1452.000000
0
SEQEND
0
POLYLINE
8
0
6
CONTINUOUS
66
1
62
250
10
0.0
20
0.0
30
0.000000
0
VERTEX
8
0
10
179.000000
20
1416.000000
0
VERTEX
8
0
10
179.000000
20
1427.000000
0
SEQEND
0
POLYLINE
8
0
6
CONTINUOUS
66
1
62
250
10
0.0
20
0.0
30
0.000000
0
VERTEX
8
0
10
503.000000
20
1416.000000
0
VERTEX
8
0
10
503.000000
20
1427.000000
0
SEQEND
0
POLYLINE
8
0
6
CONTINUOUS
66
1
62
251
10
0.0
20
0.0
30
0.000000
0
VERTEX
8
0
10
639.000000
20
1416.000000
0
VERTEX
8
0
10
639.000000
20
1427.000000
0
SEQEND
0
POLYLINE
8
0
6
CONTINUOUS
66
1
62
251
10
0.0
20
0.0
30
0.000000
0
VERTEX
8
0
10
983.000000
20
1416.000000
0
VERTEX
8
0
10
983.000000
20
1427.000000
0
SEQEND
0
POLYLINE
8
0
6
CONTINUOUS
66
1
62
250
10
0.0
20
0.0
30
0.000000
0
VERTEX
8
0
10
179.000000
20
1391.000000
0
VERTEX
8
0
10
179.000000
20
1402.000000
0
SEQEND
0
POLYLINE
8
0
6
CONTINUOUS
66
1
62
250
10
0.0
20
0.0
30
0.000000
0
VERTEX
8
0
10
503.000000
20
1391.000000
0
VERTEX
8
0
10
503.000000
20
1402.000000
0
SEQEND
0
POLYLINE
8
0
6
CONTINUOUS
66
1
62
251
10
0.0
20
0.0
30
0.000000
0
VERTEX
8
0
10
639.000000
20
1391.000000
0
VERTEX
8
0
10
639.000000
20
1402.000000
0
SEQEND
0
POLYLINE
8
0
6
CONTINUOUS
66
1
62
251
10
0.0
20
0.0
30
0.000000
0
VERTEX
8
0
10
983.000000
20
1391.000000
0
VERTEX
8
0
10
983.000000
20
1402.000000
0
SEQEND
0
POLYLINE
8
0
6
CONTINUOUS
66
1
62
250
10
0.0
20
0.0
30
0.000000
0
VERTEX
8
0
10
179.000000
20
1366.000000
0
VERTEX
8
0
10
179.000000
20
1377.000000
0
SEQEND
0
POLYLINE
8
0
6
CONTINUOUS
66
1
62
250
10
0.0
20
0.0
30
0.000000
0
VERTEX
8
0
10
503.000000
20
1366.000000
0
VERTEX
8
0
10
503.000000
20
1377.000000
0
SEQEND
0
POLYLINE
8
0
6
CONTINUOUS
66
1
62
251
10
0.0
20
0.0
30
0.000000
0
VERTEX
8
0
10
639.000000
20
1366.000000
0
VERTEX
8
0
10
639.000000
20
1377.000000
0
SEQEND
0
POLYLINE
8
0
6
CONTINUOUS
66
1
62
251
10
0.0
20
0.0
30
0.000000
0
VERTEX
8
0
10
983.000000
20
1366.000000
0
VERTEX
8
0
10
983.000000
20
1377.000000
0
SEQEND
0
POLYLINE
8
0
6
CONTINUOUS
66
1
62
250
10
0.0
20
0.0
30
0.000000
0
VERTEX
8
0
10
179.000000
20
1341.000000
0
VERTEX
8
0
10
179.000000
20
1352.000000
0
SEQEND
0
POLYLINE
8
0
6
CONTINUOUS
66
1
62
250
10
0.0
20
0.0
30
0.000000
0
VERTEX
8
0
10
503.000000
20
1341.000000
0
VERTEX
8
0
10
503.000000
20
1352.000000
0
SEQEND
0
POLYLINE
8
0
6
CONTINUOUS
66
1
62
251
10
0.0
20
0.0
30
0.000000
0
VERTEX
8
0
10
639.000000
20
1341.000000
0
VERTEX
8
0
10
639.000000
20
1352.000000
0
SEQEND
0
POLYLINE
8
0
6
CONTINUOUS
66
1
62
251
10
0.0
20
0.0
30
0.000000
0
VERTEX
8
0
10
983.000000
20
1341.000000
0
VERTEX
8
0
10
983.000000
20
1352.000000
0
SEQEND
0
POLYLINE
8
0
6
CONTINUOUS
66
1
62
250
10
0.0
20
0.0
30
0.000000
0
VERTEX
8
0
10
179.000000
20
1316.000000
0
VERTEX
8
0
10
179.000000
20
1327.000000
0
SEQEND
0
POLYLINE
8
0
6
CONTINUOUS
66
1
62
250
10
0.0
20
0.0
30
0.000000
0
VERTEX
8
0
10
503.000000
20
1316.000000
0
VERTEX
8
0
10
503.000000
20
1327.000000
0
SEQEND
0
POLYLINE
8
0
6
CONTINUOUS
66
1
62
251
10
0.0
20
0.0
30
0.000000
0
VERTEX
8
0
10
639.000000
20
1316.000000
0
VERTEX
8
0
10
639.000000
20
1327.000000
0
SEQEND
0
POLYLINE
8
0
6
CONTINUOUS
66
1
62
251
10
0.0
20
0.0
30
0.000000
0
VERTEX
8
0
10
983.000000
20
1316.000000
0
VERTEX
8
0
10
983.000000
20
1327.000000
0
SEQEND
0
POLYLINE
8
0
6
CONTINUOUS
66
1
62
250
10
0.0
20
0.0
30
0.000000
0
VERTEX
8
0
10
179.000000
20
1291.000000
0
VERTEX
8
0
10
179.000000
20
1302.000000
0
SEQEND
0
POLYLINE
8
0
6
CONTINUOUS
66
1
62
250
10
0.0
20
0.0
30
0.000000
0
VERTEX
8
0
10
503.000000
20
1291.000000
0
VERTEX
8
0
10
503.000000
20
1302.000000
0
SEQEND
0
POLYLINE
8
0
6
CONTINUOUS
66
1
62
251
10
0.0
20
0.0
30
0.000000
0
VERTEX
8
0
10
639.000000
20
1291.000000
0
VERTEX
8
0
10
639.000000
20
1302.000000
0
SEQEND
0
POLYLINE
8
0
6
CONTINUOUS
66
1
62
251
10
0.0
20
0.0
30
0.000000
0
VERTEX
8
0
10
983.000000
20
1291.000000
0
VERTEX
8
0
10
983.000000
20
1302.000000
0
SEQEND
0
POLYLINE
8
0
6
CONTINUOUS
66
1
62
250
10
0.0
20
0.0
30
0.000000
0
VERTEX
8
0
10
179.000000
20
1266.000000
0
VERTEX
8
0
10
179.000000
20
1277.000000
0
SEQEND
0
POLYLINE
8
0
6
CONTINUOUS
66
1
62
250
10
0.0
20
0.0
30
0.000000
0
VERTEX
8
0
10
503.000000
20
1266.000000
0
VERTEX
8
0
10
503.000000
20
1277.000000
0
SEQEND
0
POLYLINE
8
0
6
CONTINUOUS
66
1
62
251
10
0.0
20
0.0
30
0.000000
0
VERTEX
8
0
10
639.000000
20
1266.000000
0
VERTEX
8
0
10
639.000000
20
1277.000000
0
SEQEND
0
POLYLINE
8
0
6
CONTINUOUS
66
1
62
251
10
0.0
20
0.0
30
0.000000
0
VERTEX
8
0
10
983.000000
20
1266.000000
0
VERTEX
8
0
10
983.000000
20
1277.000000
0
SEQEND
0
POLYLINE
8
0
6
CONTINUOUS
66
1
62
250
10
0.0
20
0.0
30
0.000000
0
VERTEX
8
0
10
179.000000
20
1241.000000
0
VERTEX
8
0
10
179.000000
20
1252.000000
0
SEQEND
0
POLYLINE
8
0
6
CONTINUOUS
66
1
62
250
10
0.0
20
0.0
30
0.000000
0
VERTEX
8
0
10
503.000000
20
1241.000000
0
VERTEX
8
0
10
503.000000
20
1252.000000
0
SEQEND
0
POLYLINE
8
0
6
CONTINUOUS
66
1
62
251
10
0.0
20
0.0
30
0.000000
0
VERTEX
8
0
10
639.000000
20
1241.000000
0
VERTEX
8
0
10
639.000000
20
1252.000000
0
SEQEND
0
POLYLINE
8
0
6
CONTINUOUS
66
1
62
251
10
0.0
20
0.0
30
0.000000
0
VERTEX
8
0
10
983.000000
20
1241.000000
0
VERTEX
8
0
10
983.000000
20
1252.000000
0
SEQEND
0
POLYLINE
8
0
6
CONTINUOUS
66
1
62
250
10
0.0
20
0.0
30
0.000000
0
VERTEX
8
0
10
179.000000
20
1216.000000
0
VERTEX
8
0
10
179.000000
20
1227.000000
0
SEQEND
0
POLYLINE
8
0
6
CONTINUOUS
66
1
62
250
10
0.0
20
0.0
30
0.000000
0
VERTEX
8
0
10
503.000000
20
1216.000000
0
VERTEX
8
0
10
503.000000
20
1227.000000
0
SEQEND
0
POLYLINE
8
0
6
CONTINUOUS
66
1
62
251
10
0.0
20
0.0
30
0.000000
0
VERTEX
8
0
10
639.000000
20
1216.000000
0
VERTEX
8
0
10
639.000000
20
1227.000000
0
SEQEND
0
POLYLINE
8
0
6
CONTINUOUS
66
1
62
251
10
0.0
20
0.0
30
0.000000
0
VERTEX
8
0
10
983.000000
20
1216.000000
0
VERTEX
8
0
10
983.000000
20
1227.000000
0
SEQEND
0
POLYLINE
8
0
6
CONTINUOUS
66
1
62
250
10
0.0
20
0.0
30
0.000000
0
VERTEX
8
0
10
179.000000
20
1191.000000
0
VERTEX
8
0
10
179.000000
20
1202.000000
0
SEQEND
0
POLYLINE
8
0
6
CONTINUOUS
66
1
62
250
10
0.0
20
0.0
30
0.000000
0
VERTEX
8
0
10
503.000000
20
1191.000000
0
VERTEX
8
0
10
503.000000
20
1202.000000
0
SEQEND
0
POLYLINE
8
0
6
CONTINUOUS
66
1
62
251
10
0.0
20
0.0
30
0.000000
0
VERTEX
8
0
10
639.000000
20
1191.000000
0
VERTEX
8
0
10
639.000000
20
1202.000000
0
SEQEND
0
POLYLINE
8
0
6
CONTINUOUS
66
1
62
251
10
0.0
20
0.0
30
0.000000
0
VERTEX
8
0
10
983.000000
20
1191.000000
0
VERTEX
8
0
10
983.000000
20
1202.000000
0
SEQEND
0
POLYLINE
8
0
6
CONTINUOUS
66
1
62
250
10
0.0
20
0.0
30
0.000000
0
VERTEX
8
0
10
179.000000
20
1166.000000
0
VERTEX
8
0
10
179.000000
20
1177.000000
0
SEQEND
0
POLYLINE
8
0
6
CONTINUOUS
66
1
62
250
10
0.0
20
0.0
30
0.000000
0
VERTEX
8
0
10
503.000000
20
1166.000000
0
VERTEX
8
0
10
503.000000
20
1177.000000
0
SEQEND
0
POLYLINE
8
0
6
CONTINUOUS
66
1
62
251
10
0.0
20
0.0
30
0.000000
0
VERTEX
8
0
10
639.000000
20
1166.000000
0
VERTEX
8
0
10
639.000000
20
1177.000000
0
SEQEND
0
POLYLINE
8
0
6
CONTINUOUS
66
1
62
251
10
0.0
20
0.0
30
0.000000
0
VERTEX
8
0
10
983.000000
20
1166.000000
0
VERTEX
8
0
10
983.000000
20
1177.000000
0
SEQEND
0
POLYLINE
8
0
6
CONTINUOUS
66
1
62
250
10
0.0
20
0.0
30
0.000000
0
VERTEX
8
0
10
179.000000
20
1141.000000
0
VERTEX
8
0
10
179.000000
20
1152.000000
0
SEQEND
0
POLYLINE
8
0
6
CONTINUOUS
66
1
62
250
10
0.0
20
0.0
30
0.000000
0
VERTEX
8
0
10
503.000000
20
1141.000000
0
VERTEX
8
0
10
503.000000
20
1152.000000
0
SEQEND
0
POLYLINE
8
0
6
CONTINUOUS
66
1
62
251
10
0.0
20
0.0
30
0.000000
0
VERTEX
8
0
10
639.000000
20
1141.000000
0
VERTEX
8
0
10
639.000000
20
1152.000000
0
SEQEND
0
POLYLINE
8
0
6
CONTINUOUS
66
1
62
251
10
0.0
20
0.0
30
0.000000
0
VERTEX
8
0
10
983.000000
20
1141.000000
0
VERTEX
8
0
10
983.000000
20
1152.000000
0
SEQEND
0
POLYLINE
8
0
6
CONTINUOUS
66
1
62
250
10
0.0
20
0.0
30
0.000000
0
VERTEX
8
0
10
179.000000
20
1116.000000
0
VERTEX
8
0
10
179.000000
20
1127.000000
0
SEQEND
0
POLYLINE
8
0
6
CONTINUOUS
66
1
62
250
10
0.0
20
0.0
30
0.000000
0
VERTEX
8
0
10
503.000000
20
1116.000000
0
VERTEX
8
0
10
503.000000
20
1127.000000
0
SEQEND
0
POLYLINE
8
0
6
CONTINUOUS
66
1
62
251
10
0.0
20
0.0
30
0.000000
0
VERTEX
8
0
10
639.000000
20
1116.000000
0
VERTEX
8
0
10
639.000000
20
1127.000000
0
SEQEND
0
POLYLINE
8
0
6
CONTINUOUS
66
1
62
251
10
0.0
20
0.0
30
0.000000
0
VERTEX
8
0
10
983.000000
20
1116.000000
0
VERTEX
8
0
10
983.000000
20
1127.000000
0
SEQEND
0
POLYLINE
8
0
6
CONTINUOUS
66
1
62
250
10
0.0
20
0.0
30
0.000000
0
VERTEX
8
0
10
516.000000
20
1104.000000
0
VERTEX
8
0
10
176.900000
20
1104.700000
0
VERTEX
8
0
10
149.000000
20
1114.000000
0
VERTEX
8
0
10
148.000000
20
1115.000000
0
VERTEX
8
0
10
148.000000
20
1542.000000
42
-0.080474
0
VERTEX
8
0
10
179.000000
20
1552.000000
0
VERTEX
8
0
10
180.000000
20
1553.000000
0
VERTEX
8
0
10
502.000000
20
1553.000000
0
SEQEND
0
POLYLINE
8
0
6
CONTINUOUS
66
1
62
250
10
0.0
20
0.0
30
0.000000
0
VERTEX
8
0
10
529.000000
20
1104.000000
0
VERTEX
8
0
10
541.000000
20
1104.000000
0
SEQEND
0
POLYLINE
8
0
6
CONTINUOUS
66
1
62
250
10
0.0
20
0.0
30
0.000000
0
VERTEX
8
0
10
554.000000
20
1104.000000
0
VERTEX
8
0
10
566.000000
20
1104.000000
0
SEQEND
0
POLYLINE
8
0
6
CONTINUOUS
66
1
62
250
10
0.0
20
0.0
30
0.000000
0
VERTEX
8
0
10
579.000000
20
1104.000000
0
VERTEX
8
0
10
591.000000
20
1104.000000
0
SEQEND
0
POLYLINE
8
0
6
CONTINUOUS
66
1
62
250
10
0.0
20
0.0
30
0.000000
0
VERTEX
8
0
10
604.000000
20
1104.000000
0
VERTEX
8
0
10
616.000000
20
1104.000000
0
SEQEND
0
POLYLINE
8
0
6
CONTINUOUS
66
1
62
250
10
0.0
20
0.0
30
0.000000
0
VERTEX
8
0
10
641.000000
20
1104.000000
0
VERTEX
8
0
10
639.000000
20
1105.000000
0
SEQEND
0
POLYLINE
8
0
6
CONTINUOUS
66
1
62
250
10
0.0
20
0.0
30
0.000000
0
VERTEX
8
0
10
654.000000
20
1104.000000
0
VERTEX
8
0
10
666.000000
20
1104.000000
0
SEQEND
0
POLYLINE
8
0
6
CONTINUOUS
66
1
62
250
10
0.0
20
0.0
30
0.000000
0
VERTEX
8
0
10
679.000000
20
1104.000000
0
VERTEX
8
0
10
691.000000
20
1104.000000
0
SEQEND
0
POLYLINE
8
0
6
CONTINUOUS
66
1
62
250
10
0.0
20
0.0
30
0.000000
0
VERTEX
8
0
10
704.000000
20
1104.000000
0
VERTEX
8
0
10
716.000000
20
1104.000000
0
SEQEND
0
POLYLINE
8
0
6
CONTINUOUS
66
1
62
250
10
0.0
20
0.0
30
0.000000
0
VERTEX
8
0
10
729.000000
20
1104.000000
0
VERTEX
8
0
10
741.000000
20
1104.000000
0
SEQEND
0
POLYLINE
8
0
6
CONTINUOUS
66
1
62
250
10
0.0
20
0.0
30
0.000000
0
VERTEX
8
0
10
754.000000
20
1104.000000
0
VERTEX
8
0
10
766.000000
20
1104.000000
0
SEQEND
0
POLYLINE
8
0
6
CONTINUOUS
66
1
62
250
10
0.0
20
0.0
30
0.000000
0
VERTEX
8
0
10
779.000000
20
1104.000000
0
VERTEX
8
0
10
791.000000
20
1104.000000
0
SEQEND
0
POLYLINE
8
0
6
CONTINUOUS
66
1
62
250
10
0.0
20
0.0
30
0.000000
0
VERTEX
8
0
10
804.000000
20
1104.000000
0
VERTEX
8
0
10
816.000000
20
1104.000000
0
SEQEND
0
POLYLINE
8
0
6
CONTINUOUS
66
1
62
250
10
0.0
20
0.0
30
0.000000
0
VERTEX
8
0
10
829.000000
20
1104.000000
0
VERTEX
8
0
10
841.000000
20
1104.000000
0
SEQEND
0
POLYLINE
8
0
6
CONTINUOUS
66
1
62
250
10
0.0
20
0.0
30
0.000000
0
VERTEX
8
0
10
854.000000
20
1104.000000
0
VERTEX
8
0
10
866.000000
20
1104.000000
0
SEQEND
0
POLYLINE
8
0
6
CONTINUOUS
66
1
62
250
10
0.0
20
0.0
30
0.000000
0
VERTEX
8
0
10
879.000000
20
1104.000000
0
VERTEX
8
0
10
891.000000
20
1104.000000
0
SEQEND
0
POLYLINE
8
0
6
CONTINUOUS
66
1
62
250
10
0.0
20
0.0
30
0.000000
0
VERTEX
8
0
10
904.000000
20
1104.000000
0
VERTEX
8
0
10
916.000000
20
1104.000000
0
SEQEND
0
POLYLINE
8
0
6
CONTINUOUS
66
1
62
250
10
0.0
20
0.0
30
0.000000
0
VERTEX
8
0
10
929.000000
20
1104.000000
0
VERTEX
8
0
10
941.000000
20
1104.000000
0
SEQEND
0
POLYLINE
8
0
6
CONTINUOUS
66
1
62
250
10
0.0
20
0.0
30
0.000000
0
VERTEX
8
0
10
954.000000
20
1104.000000
0
VERTEX
8
0
10
966.000000
20
1104.000000
0
SEQEND
0
POLYLINE
8
0
6
CONTINUOUS
66
1
62
250
10
0.0
20
0.0
30
0.000000
0
VERTEX
8
0
10
1004.000000
20
1104.000000
0
VERTEX
8
0
10
1016.000000
20
1104.000000
0
SEQEND
0
POLYLINE
8
0
6
CONTINUOUS
66
1
62
250
10
0.0
20
0.0
30
0.000000
0
VERTEX
8
0
10
1029.000000
20
1104.000000
0
VERTEX
8
0
10
1041.000000
20
1104.000000
0
SEQEND
0
POLYLINE
8
0
6
CONTINUOUS
66
1
62
250
10
0.0
20
0.0
30
0.000000
0
VERTEX
8
0
10
1054.000000
20
1104.000000
0
VERTEX
8
0
10
1066.000000
20
1104.000000
0
SEQEND
0
POLYLINE
8
0
6
CONTINUOUS
66
1
62
250
10
0.0
20
0.0
30
0.000000
0
VERTEX
8
0
10
1079.000000
20
1104.000000
0
VERTEX
8
0
10
1091.000000
20
1104.000000
0
SEQEND
0
POLYLINE
8
0
6
CONTINUOUS
66
1
62
250
10
0.0
20
0.0
30
0.000000
0
VERTEX
8
0
10
1104.000000
20
1104.000000
0
VERTEX
8
0
10
1117.000000
20
1104.000000
0
SEQEND
0
POLYLINE
8
0
6
CONTINUOUS
66
1
62
250
10
0.0
20
0.0
30
0.000000
0
VERTEX
8
0
10
979.000000
20
1104.000000
0
VERTEX
8
0
10
982.000000
20
1104.000000
0
VERTEX
8
0
10
983.000000
20
1103.000000
42
-0.063434
0
VERTEX
8
0
10
991.000000
20
1104.000000
0
SEQEND
0
POLYLINE
8
0
6
CONTINUOUS
66
1
62
250
10
0.0
20
0.0
30
0.000000
0
VERTEX
8
0
10
637.000000
20
1103.000000
42
0.063434
0
VERTEX
8
0
10
629.000000
20
1104.000000
0
SEQEND
0
POLYLINE
8
0
6
CONTINUOUS
66
1
62
250
10
0.0
20
0.0
30
0.000000
0
VERTEX
8
0
10
502.000000
20
1104.000000
0
VERTEX
8
0
10
513.594595
20
1030.932432
42
0.355358
0
VERTEX
8
0
10
517.000000
20
1025.000000
0
VERTEX
8
0
10
607.000000
20
1025.000000
0
VERTEX
8
0
10
627.900990
20
1026.990099
42
0.083379
0
VERTEX
8
0
10
630.468966
20
1053.972414
0
VERTEX
8
0
10
632.468966
20
1087.972414
42
-0.106041
0
VERTEX
8
0
10
634.500000
20
1096.500000
0
VERTEX
8
0
10
636.000000
20
1097.000000
0
VERTEX
8
0
10
637.000000
20
1103.000000
0
VERTEX
8
0
10
639.000000
20
1105.000000
0
VERTEX
8
0
10
639.000000
20
1108.000000
0
SEQEND
0
POLYLINE
8
0
6
CONTINUOUS
66
1
62
250
10
0.0
20
0.0
30
0.000000
0
VERTEX
8
0
10
981.000000
20
1107.000000
0
VERTEX
8
0
10
982.000000
20
1106.000000
0
VERTEX
8
0
10
982.000000
20
1104.000000
0
VERTEX
8
0
10
983.000000
20
1103.000000
0
VERTEX
8
0
10
984.300000
20
1098.100000
42
-0.070456
0
VERTEX
8
0
10
986.000000
20
1091.000000
42
-0.088653
0
VERTEX
8
0
10
988.529231
20
1085.973846
0
VERTEX
8
0
10
990.529231
20
1050.973846
0
VERTEX
8
0
10
992.000000
20
1027.000000
0
VERTEX
8
0
10
994.000000
20
1025.000000
0
VERTEX
8
0
10
1097.000000
20
1025.000000
0
VERTEX
8
0
10
1099.000000
20
1026.000000
0
VERTEX
8
0
10
1100.000000
20
1027.000000
0
VERTEX
8
0
10
1112.700000
20
1074.100000
0
VERTEX
8
0
10
1113.300000
20
1075.900000
0
VERTEX
8
0
10
1118.000000
20
1092.000000
0
VERTEX
8
0
10
1118.000000
20
1103.000000
0
VERTEX
8
0
10
1117.000000
20
1104.000000
0
VERTEX
8
0
10
1117.200000
20
1104.900000
0
VERTEX
8
0
10
1118.000000
20
1106.000000
0
VERTEX
8
0
10
1118.000000
20
1552.000000
0
VERTEX
8
0
10
1117.000000
20
1553.000000
42
0.165282
0
VERTEX
8
0
10
1114.647059
20
1573.911765
0
VERTEX
8
0
10
1114.300000
20
1575.100000
0
VERTEX
8
0
10
1101.000000
20
1624.000000
0
VERTEX
8
0
10
1098.000000
20
1627.000000
0
VERTEX
8
0
10
993.000000
20
1627.000000
42
0.197186
0
VERTEX
8
0
10
990.470769
20
1620.973846
0
VERTEX
8
0
10
987.527624
20
1567.024862
42
-0.090597
0
VERTEX
8
0
10
985.000000
20
1562.000000
0
SEQEND
0
POLYLINE
8
0
6
CONTINUOUS
66
1
62
250
10
0.0
20
0.0
30
0.000000
0
VERTEX
8
0
10
636.000000
20
1097.000000
0
VERTEX
8
0
10
636.800000
20
1094.900000
0
VERTEX
8
0
10
638.615385
20
961.923077
0
VERTEX
8
0
10
639.384615
20
958.076923
0
VERTEX
8
0
10
642.800000
20
947.900000
0
VERTEX
8
0
10
647.000000
20
940.000000
42
0.114877
0
VERTEX
8
0
10
661.000000
20
931.000000
0
VERTEX
8
0
10
961.000000
20
931.000000
42
0.214846
0
VERTEX
8
0
10
978.200000
20
949.900000
0
VERTEX
8
0
10
979.300000
20
952.900000
0
VERTEX
8
0
10
982.420000
20
967.940000
0
VERTEX
8
0
10
983.495727
20
1085.995799
42
-0.094375
0
VERTEX
8
0
10
986.000000
20
1091.000000
0
SEQEND
0
POLYLINE
8
0
6
CONTINUOUS
66
1
62
250
10
0.0
20
0.0
30
0.000000
0
VERTEX
8
0
10
472.000000
20
828.000000
0
VERTEX
8
0
10
467.000000
20
828.000000
0
VERTEX
8
0
10
465.000000
20
830.000000
0
VERTEX
8
0
10
465.000000
20
831.000000
0
VERTEX
8
0
10
466.513141
20
834.012484
0
VERTEX
8
0
10
467.000000
20
872.000000
42
-0.086744
0
VERTEX
8
0
10
470.011615
20
874.512181
0
VERTEX
8
0
10
511.000000
20
875.000000
0
VERTEX
8
0
10
512.200000
20
876.900000
0
VERTEX
8
0
10
512.800000
20
878.100000
42
-0.088951
0
VERTEX
8
0
10
519.000000
20
888.000000
0
VERTEX
8
0
10
578.000000
20
888.000000
0
VERTEX
8
0
10
582.000000
20
884.000000
0
VERTEX
8
0
10
585.000000
20
877.000000
0
VERTEX
8
0
10
587.000000
20
875.000000
0
VERTEX
8
0
10
670.000000
20
875.000000
42
0.067868
0
VERTEX
8
0
10
675.200000
20
883.900000
0
VERTEX
8
0
10
676.000000
20
885.000000
0
VERTEX
8
0
10
679.000000
20
888.000000
0
VERTEX
8
0
10
738.000000
20
888.000000
42
-0.096900
0
VERTEX
8
0
10
745.000000
20
876.000000
0
VERTEX
8
0
10
746.000000
20
875.000000
0
VERTEX
8
0
10
786.988385
20
874.512181
42
-0.173277
0
VERTEX
8
0
10
790.000000
20
873.000000
0
VERTEX
8
0
10
791.385787
20
834.098985
0
VERTEX
8
0
10
793.000000
20
830.000000
42
-0.217143
0
VERTEX
8
0
10
785.000000
20
828.000000
0
SEQEND
0
POLYLINE
8
0
6
CONTINUOUS
66
1
62
251
10
0.0
20
0.0
30
0.000000
0
VERTEX
8
0
10
485.000000
20
828.000000
0
VERTEX
8
0
10
497.000000
20
828.000000
0
SEQEND
0
POLYLINE
8
0
6
CONTINUOUS
66
1
62
251
10
0.0
20
0.0
30
0.000000
0
VERTEX
8
0
10
510.000000
20
828.000000
0
VERTEX
8
0
10
522.000000
20
828.000000
0
SEQEND
0
POLYLINE
8
0
6
CONTINUOUS
66
1
62
251
10
0.0
20
0.0
30
0.000000
0
VERTEX
8
0
10
535.000000
20
828.000000
0
VERTEX
8
0
10
547.000000
20
828.000000
0
SEQEND
0
POLYLINE
8
0
6
CONTINUOUS
66
1
62
251
10
0.0
20
0.0
30
0.000000
0
VERTEX
8
0
10
560.000000
20
828.000000
0
VERTEX
8
0
10
572.000000
20
828.000000
0
SEQEND
0
POLYLINE
8
0
6
CONTINUOUS
66
1
62
251
10
0.0
20
0.0
30
0.000000
0
VERTEX
8
0
10
585.000000
20
828.000000
0
VERTEX
8
0
10
597.000000
20
828.000000
0
SEQEND
0
POLYLINE
8
0
6
CONTINUOUS
66
1
62
251
10
0.0
20
0.0
30
0.000000
0
VERTEX
8
0
10
610.000000
20
828.000000
0
VERTEX
8
0
10
622.000000
20
828.000000
0
SEQEND
0
POLYLINE
8
0
6
CONTINUOUS
66
1
62
251
10
0.0
20
0.0
30
0.000000
0
VERTEX
8
0
10
635.000000
20
828.000000
0
VERTEX
8
0
10
647.000000
20
828.000000
0
SEQEND
0
POLYLINE
8
0
6
CONTINUOUS
66
1
62
251
10
0.0
20
0.0
30
0.000000
0
VERTEX
8
0
10
660.000000
20
828.000000
0
VERTEX
8
0
10
672.000000
20
828.000000
0
SEQEND
0
POLYLINE
8
0
6
CONTINUOUS
66
1
62
251
10
0.0
20
0.0
30
0.000000
0
VERTEX
8
0
10
685.000000
20
828.000000
0
VERTEX
8
0
10
697.000000
20
828.000000
0
SEQEND
0
POLYLINE
8
0
6
CONTINUOUS
66
1
62
251
10
0.0
20
0.0
30
0.000000
0
VERTEX
8
0
10
710.000000
20
828.000000
0
VERTEX
8
0
10
722.000000
20
828.000000
0
SEQEND
0
POLYLINE
8
0
6
CONTINUOUS
66
1
62
251
10
0.0
20
0.0
30
0.000000
0
VERTEX
8
0
10
735.000000
20
828.000000
0
VERTEX
8
0
10
747.000000
20
828.000000
0
SEQEND
0
POLYLINE
8
0
6
CONTINUOUS
66
1
62
251
10
0.0
20
0.0
30
0.000000
0
VERTEX
8
0
10
760.000000
20
828.000000
0
VERTEX
8
0
10
772.000000
20
828.000000
0
SEQEND
0
POLYLINE
8
0
6
CONTINUOUS
66
1
62
250
10
0.0
20
0.0
30
0.000000
0
VERTEX
8
0
10
388.000000
20
733.000000
0
VERTEX
8
0
10
389.000000
20
734.000000
0
VERTEX
8
0
10
383.352941
20
809.088235
0
VERTEX
8
0
10
383.000000
20
812.000000
0
SEQEND
0
POLYLINE
8
0
6
CONTINUOUS
66
1
62
250
10
0.0
20
0.0
30
0.000000
0
VERTEX
8
0
10
394.000000
20
733.000000
0
VERTEX
8
0
10
405.000000
20
733.000000
0
SEQEND
0
POLYLINE
8
0
6
CONTINUOUS
66
1
62
250
10
0.0
20
0.0
30
0.000000
0
VERTEX
8
0
10
419.000000
20
733.000000
0
VERTEX
8
0
10
430.000000
20
733.000000
0
SEQEND
0
POLYLINE
8
0
6
CONTINUOUS
66
1
62
250
10
0.0
20
0.0
30
0.000000
0
VERTEX
8
0
10
444.000000
20
733.000000
0
VERTEX
8
0
10
452.000000
20
733.000000
0
SEQEND
0
POLYLINE
8
0
6
CONTINUOUS
66
1
62
250
10
0.0
20
0.0
30
0.000000
0
VERTEX
8
0
10
805.000000
20
733.000000
0
VERTEX
8
0
10
814.000000
20
733.000000
0
SEQEND
0
POLYLINE
8
0
6
CONTINUOUS
66
1
62
250
10
0.0
20
0.0
30
0.000000
0
VERTEX
8
0
10
828.000000
20
733.000000
0
VERTEX
8
0
10
839.000000
20
733.000000
0
SEQEND
0
POLYLINE
8
0
6
CONTINUOUS
66
1
62
250
10
0.0
20
0.0
30
0.000000
0
VERTEX
8
0
10
853.000000
20
733.000000
0
VERTEX
8
0
10
864.000000
20
733.000000
0
SEQEND
0
POLYLINE
8
0
6
CONTINUOUS
66
1
62
250
10
0.0
20
0.0
30
0.000000
0
VERTEX
8
0
10
869.000000
20
733.000000
0
VERTEX
8
0
10
874.000000
20
812.000000
0
SEQEND
0
POLYLINE
8
0
6
CONTINUOUS
66
1
62
250
10
0.0
20
0.0
30
0.000000
0
VERTEX
8
0
10
538.000000
20
723.000000
42
0.296478
0
VERTEX
8
0
10
555.000000
20
745.000000
42
0.477672
0
VERTEX
8
0
10
525.900000
20
763.200000
42
0.890886
0
VERTEX
8
0
10
538.000000
20
723.000000
0
SEQEND
0
POLYLINE
8
0
6
CONTINUOUS
66
1
62
250
10
0.0
20
0.0
30
0.000000
0
VERTEX
8
0
10
728.000000
20
723.000000
42
0.296478
0
VERTEX
8
0
10
745.000000
20
745.000000
42
0.477672
0
VERTEX
8
0
10
715.900000
20
763.200000
42
0.890886
0
VERTEX
8
0
10
728.000000
20
723.000000
0
SEQEND
0
POLYLINE
8
0
6
CONTINUOUS
66
1
62
250
10
0.0
20
0.0
30
0.000000
0
VERTEX
8
0
10
351.000000
20
698.000000
42
-0.088179
0
VERTEX
8
0
10
341.000000
20
699.000000
0
SEQEND
0
POLYLINE
8
0
6
CONTINUOUS
66
1
62
250
10
0.0
20
0.0
30
0.000000
0
VERTEX
8
0
10
364.000000
20
698.000000
0
VERTEX
8
0
10
376.000000
20
698.000000
0
SEQEND
0
POLYLINE
8
0
6
CONTINUOUS
66
1
62
250
10
0.0
20
0.0
30
0.000000
0
VERTEX
8
0
10
389.000000
20
698.000000
0
VERTEX
8
0
10
401.000000
20
698.000000
0
SEQEND
0
POLYLINE
8
0
6
CONTINUOUS
66
1
62
250
10
0.0
20
0.0
30
0.000000
0
VERTEX
8
0
10
414.000000
20
698.000000
0
VERTEX
8
0
10
426.000000
20
698.000000
0
SEQEND
0
POLYLINE
8
0
6
CONTINUOUS
66
1
62
250
10
0.0
20
0.0
30
0.000000
0
VERTEX
8
0
10
439.000000
20
698.000000
0
VERTEX
8
0
10
451.000000
20
698.000000
0
SEQEND
0
POLYLINE
8
0
6
CONTINUOUS
66
1
62
250
10
0.0
20
0.0
30
0.000000
0
VERTEX
8
0
10
461.000000
20
698.000000
0
VERTEX
8
0
10
472.000000
20
698.000000
0
SEQEND
0
POLYLINE
8
0
6
CONTINUOUS
66
1
62
250
10
0.0
20
0.0
30
0.000000
0
VERTEX
8
0
10
485.000000
20
698.000000
0
VERTEX
8
0
10
497.000000
20
698.000000
0
SEQEND
0
POLYLINE
8
0
6
CONTINUOUS
66
1
62
250
10
0.0
20
0.0
30
0.000000
0
VERTEX
8
0
10
510.000000
20
698.000000
0
VERTEX
8
0
10
522.000000
20
698.000000
0
SEQEND
0
POLYLINE
8
0
6
CONTINUOUS
66
1
62
250
10
0.0
20
0.0
30
0.000000
0
VERTEX
8
0
10
535.000000
20
698.000000
0
VERTEX
8
0
10
547.000000
20
698.000000
0
SEQEND
0
POLYLINE
8
0
6
CONTINUOUS
66
1
62
250
10
0.0
20
0.0
30
0.000000
0
VERTEX
8
0
10
560.000000
20
698.000000
0
VERTEX
8
0
10
572.000000
20
698.000000
0
SEQEND
0
POLYLINE
8
0
6
CONTINUOUS
66
1
62
250
10
0.0
20
0.0
30
0.000000
0
VERTEX
8
0
10
585.000000
20
698.000000
0
VERTEX
8
0
10
597.000000
20
698.000000
0
SEQEND
0
POLYLINE
8
0
6
CONTINUOUS
66
1
62
250
10
0.0
20
0.0
30
0.000000
0
VERTEX
8
0
10
610.000000
20
698.000000
0
VERTEX
8
0
10
622.000000
20
698.000000
0
SEQEND
0
POLYLINE
8
0
6
CONTINUOUS
66
1
62
250
10
0.0
20
0.0
30
0.000000
0
VERTEX
8
0
10
635.000000
20
698.000000
0
VERTEX
8
0
10
647.000000
20
698.000000
0
SEQEND
0
POLYLINE
8
0
6
CONTINUOUS
66
1
62
250
10
0.0
20
0.0
30
0.000000
0
VERTEX
8
0
10
660.000000
20
698.000000
0
VERTEX
8
0
10
672.000000
20
698.000000
0
SEQEND
0
POLYLINE
8
0
6
CONTINUOUS
66
1
62
250
10
0.0
20
0.0
30
0.000000
0
VERTEX
8
0
10
685.000000
20
698.000000
0
VERTEX
8
0
10
697.000000
20
698.000000
0
SEQEND
0
POLYLINE
8
0
6
CONTINUOUS
66
1
62
250
10
0.0
20
0.0
30
0.000000
0
VERTEX
8
0
10
710.000000
20
698.000000
0
VERTEX
8
0
10
722.000000
20
698.000000
0
SEQEND
0
POLYLINE
8
0
6
CONTINUOUS
66
1
62
250
10
0.0
20
0.0
30
0.000000
0
VERTEX
8
0
10
735.000000
20
698.000000
0
VERTEX
8
0
10
747.000000
20
698.000000
0
SEQEND
0
POLYLINE
8
0
6
CONTINUOUS
66
1
62
250
10
0.0
20
0.0
30
0.000000
0
VERTEX
8
0
10
760.000000
20
698.000000
0
VERTEX
8
0
10
772.000000
20
698.000000
0
SEQEND
0
POLYLINE
8
0
6
CONTINUOUS
66
1
62
250
10
0.0
20
0.0
30
0.000000
0
VERTEX
8
0
10
785.000000
20
698.000000
0
VERTEX
8
0
10
797.000000
20
698.000000
0
SEQEND
0
POLYLINE
8
0
6
CONTINUOUS
66
1
62
250
10
0.0
20
0.0
30
0.000000
0
VERTEX
8
0
10
804.000000
20
698.000000
0
VERTEX
8
0
10
816.000000
20
698.000000
0
SEQEND
0
POLYLINE
8
0
6
CONTINUOUS
66
1
62
250
10
0.0
20
0.0
30
0.000000
0
VERTEX
8
0
10
829.000000
20
698.000000
0
VERTEX
8
0
10
841.000000
20
698.000000
0
SEQEND
0
POLYLINE
8
0
6
CONTINUOUS
66
1
62
250
10
0.0
20
0.0
30
0.000000
0
VERTEX
8
0
10
854.000000
20
698.000000
0
VERTEX
8
0
10
866.000000
20
698.000000
0
SEQEND
0
POLYLINE
8
0
6
CONTINUOUS
66
1
62
250
10
0.0
20
0.0
30
0.000000
0
VERTEX
8
0
10
879.000000
20
698.000000
0
VERTEX
8
0
10
891.000000
20
698.000000
0
SEQEND
0
POLYLINE
8
0
6
CONTINUOUS
66
1
62
250
10
0.0
20
0.0
30
0.000000
0
VERTEX
8
0
10
904.000000
20
698.000000
42
0.094028
0
VERTEX
8
0
10
916.000000
20
699.000000
0
SEQEND
0
POLYLINE
8
0
6
CONTINUOUS
66
1
62
250
10
0.0
20
0.0
30
0.000000
0
VERTEX
8
0
10
168.000000
20
688.000000
0
VERTEX
8
0
10
288.995936
20
688.495868
0
VERTEX
8
0
10
295.000000
20
692.000000
0
VERTEX
8
0
10
296.000000
20
693.000000
0
VERTEX
8
0
10
334.000000
20
693.000000
0
VERTEX
8
0
10
336.900000
20
695.200000
42
0.121788
0
VERTEX
8
0
10
341.000000
20
699.000000
0
VERTEX
8
0
10
341.491530
20
757.991808
0
VERTEX
8
0
10
348.405405
20
806.932432
42
-0.252722
0
VERTEX
8
0
10
353.053846
20
809.569231
0
VERTEX
8
0
10
377.000000
20
813.000000
42
-0.075203
0
VERTEX
8
0
10
383.000000
20
812.000000
42
-0.071355
0
VERTEX
8
0
10
414.946154
20
817.430769
0
VERTEX
8
0
10
423.053846
20
818.569231
0
VERTEX
8
0
10
451.000000
20
822.000000
0
VERTEX
8
0
10
453.000000
20
820.000000
0
VERTEX
8
0
10
453.000000
20
735.000000
0
VERTEX
8
0
10
452.000000
20
733.000000
0
VERTEX
8
0
10
453.910345
20
709.075862
42
0.342781
0
VERTEX
8
0
10
458.000000
20
704.000000
0
SEQEND
0
POLYLINE
8
0
6
CONTINUOUS
66
1
62
250
10
0.0
20
0.0
30
0.000000
0
VERTEX
8
0
10
1089.000000
20
688.000000
0
VERTEX
8
0
10
968.004064
20
688.495868
0
VERTEX
8
0
10
963.000000
20
691.000000
0
VERTEX
8
0
10
960.952618
20
692.052369
0
VERTEX
8
0
10
923.047382
20
693.947631
42
-0.220155
0
VERTEX
8
0
10
916.000000
20
699.000000
0
VERTEX
8
0
10
915.507933
20
761.992311
0
VERTEX
8
0
10
912.580000
20
783.940000
0
VERTEX
8
0
10
912.420000
20
785.060000
0
VERTEX
8
0
10
909.000000
20
807.000000
0
VERTEX
8
0
10
907.000000
20
809.000000
0
VERTEX
8
0
10
880.000000
20
813.000000
42
0.075203
0
VERTEX
8
0
10
874.000000
20
812.000000
42
0.071355
0
VERTEX
8
0
10
842.053846
20
817.430769
0
VERTEX
8
0
10
840.940000
20
817.580000
0
VERTEX
8
0
10
805.000000
20
822.000000
0
VERTEX
8
0
10
805.000000
20
733.000000
0
VERTEX
8
0
10
804.522642
20
711.020755
42
-0.207015
0
VERTEX
8
0
10
799.000000
20
704.000000
0
SEQEND
0
POLYLINE
8
0
6
CONTINUOUS
66
1
62
250
10
0.0
20
0.0
30
0.000000
0
VERTEX
8
0
10
461.000000
20
683.000000
0
VERTEX
8
0
10
461.000000
20
698.000000
0
VERTEX
8
0
10
458.000000
20
704.000000
0
VERTEX
8
0
10
458.200000
20
704.900000
0
VERTEX
8
0
10
459.504166
20
708.004098
0
VERTEX
8
0
10
460.495834
20
827.995902
42
-0.239004
0
VERTEX
8
0
10
465.000000
20
831.000000
0
SEQEND
0
POLYLINE
8
0
6
CONTINUOUS
66
1
62
250
10
0.0
20
0.0
30
0.000000
0
VERTEX
8
0
10
795.000000
20
683.000000
42
-0.153685
0
VERTEX
8
0
10
797.000000
20
698.000000
0
VERTEX
8
0
10
797.800000
20
700.100000
42
0.113888
0
VERTEX
8
0
10
799.000000
20
704.000000
0
VERTEX
8
0
10
798.495868
20
706.004064
0
VERTEX
8
0
10
798.000000
20
827.000000
0
VERTEX
8
0
10
795.000000
20
830.000000
0
VERTEX
8
0
10
793.000000
20
830.000000
0
SEQEND
0
POLYLINE
8
0
6
CONTINUOUS
66
1
62
250
10
0.0
20
0.0
30
0.000000
0
VERTEX
8
0
10
334.000000
20
682.000000
0
VERTEX
8
0
10
334.000000
20
693.000000
0
SEQEND
0
POLYLINE
8
0
6
CONTINUOUS
66
1
62
250
10
0.0
20
0.0
30
0.000000
0
VERTEX
8
0
10
923.000000
20
682.000000
42
-0.091428
0
VERTEX
8
0
10
924.000000
20
693.000000
0
SEQEND
0
POLYLINE
8
0
6
CONTINUOUS
66
1
62
250
10
0.0
20
0.0
30
0.000000
0
VERTEX
8
0
10
296.000000
20
681.000000
0
VERTEX
8
0
10
295.000000
20
692.000000
0
SEQEND
0
POLYLINE
8
0
6
CONTINUOUS
66
1
62
251
10
0.0
20
0.0
30
0.000000
0
VERTEX
8
0
10
962.000000
20
681.000000
0
VERTEX
8
0
10
962.000000
20
690.000000
0
VERTEX
8
0
10
963.000000
20
691.000000
0
SEQEND
0
POLYLINE
8
0
6
CONTINUOUS
66
1
62
250
10
0.0
20
0.0
30
0.000000
0
VERTEX
8
0
10
86.000000
20
669.000000
0
VERTEX
8
0
10
85.000000
20
683.000000
0
SEQEND
0
POLYLINE
8
0
6
CONTINUOUS
66
1
62
251
10
0.0
20
0.0
30
0.000000
0
VERTEX
8
0
10
1172.000000
20
669.000000
0
VERTEX
8
0
10
1172.000000
20
683.000000
0
SEQEND
0
POLYLINE
8
0
6
CONTINUOUS
66
1
62
250
10
0.0
20
0.0
30
0.000000
0
VERTEX
8
0
10
461.000000
20
658.000000
0
VERTEX
8
0
10
461.000000
20
669.000000
0
SEQEND
0
POLYLINE
8
0
6
CONTINUOUS
66
1
62
250
10
0.0
20
0.0
30
0.000000
0
VERTEX
8
0
10
795.000000
20
658.000000
0
VERTEX
8
0
10
795.000000
20
669.000000
0
SEQEND
0
POLYLINE
8
0
6
CONTINUOUS
66
1
62
250
10
0.0
20
0.0
30
0.000000
0
VERTEX
8
0
10
334.000000
20
657.000000
0
VERTEX
8
0
10
334.000000
20
667.000000
0
SEQEND
0
POLYLINE
8
0
6
CONTINUOUS
66
1
62
250
10
0.0
20
0.0
30
0.000000
0
VERTEX
8
0
10
923.000000
20
657.000000
0
VERTEX
8
0
10
923.000000
20
667.000000
0
SEQEND
0
POLYLINE
8
0
6
CONTINUOUS
66
1
62
250
10
0.0
20
0.0
30
0.000000
0
VERTEX
8
0
10
296.000000
20
656.000000
0
VERTEX
8
0
10
296.000000
20
667.000000
0
SEQEND
0
POLYLINE
8
0
6
CONTINUOUS
66
1
62
251
10
0.0
20
0.0
30
0.000000
0
VERTEX
8
0
10
962.000000
20
656.000000
0
VERTEX
8
0
10
962.000000
20
667.000000
0
SEQEND
0
POLYLINE
8
0
6
CONTINUOUS
66
1
62
251
10
0.0
20
0.0
30
0.000000
0
VERTEX
8
0
10
168.000000
20
651.000000
0
VERTEX
8
0
10
168.000000
20
661.000000
0
VERTEX
8
0
10
167.000000
20
662.000000
0
SEQEND
0
POLYLINE
8
0
6
CONTINUOUS
66
1
62
250
10
0.0
20
0.0
30
0.000000
0
VERTEX
8
0
10
1090.000000
20
651.000000
0
VERTEX
8
0
10
1090.000000
20
662.000000
0
SEQEND
0
POLYLINE
8
0
6
CONTINUOUS
66
1
62
250
10
0.0
20
0.0
30
0.000000
0
VERTEX
8
0
10
86.000000
20
644.000000
0
VERTEX
8
0
10
86.000000
20
655.000000
0
SEQEND
0
POLYLINE
8
0
6
CONTINUOUS
66
1
62
251
10
0.0
20
0.0
30
0.000000
0
VERTEX
8
0
10
1172.000000
20
644.000000
0
VERTEX
8
0
10
1172.000000
20
655.000000
0
SEQEND
0
POLYLINE
8
0
6
CONTINUOUS
66
1
62
250
10
0.0
20
0.0
30
0.000000
0
VERTEX
8
0
10
461.000000
20
633.000000
0
VERTEX
8
0
10
461.000000
20
644.000000
0
SEQEND
0
POLYLINE
8
0
6
CONTINUOUS
66
1
62
250
10
0.0
20
0.0
30
0.000000
0
VERTEX
8
0
10
795.000000
20
633.000000
0
VERTEX
8
0
10
795.000000
20
644.000000
0
SEQEND
0
POLYLINE
8
0
6
CONTINUOUS
66
1
62
250
10
0.0
20
0.0
30
0.000000
0
VERTEX
8
0
10
334.000000
20
632.000000
0
VERTEX
8
0
10
334.000000
20
642.000000
0
SEQEND
0
POLYLINE
8
0
6
CONTINUOUS
66
1
62
250
10
0.0
20
0.0
30
0.000000
0
VERTEX
8
0
10
923.000000
20
632.000000
0
VERTEX
8
0
10
923.000000
20
642.000000
0
SEQEND
0
POLYLINE
8
0
6
CONTINUOUS
66
1
62
251
10
0.0
20
0.0
30
0.000000
0
VERTEX
8
0
10
168.000000
20
631.000000
0
VERTEX
8
0
10
168.000000
20
636.000000
0
VERTEX
8
0
10
167.000000
20
637.000000
0
SEQEND
0
POLYLINE
8
0
6
CONTINUOUS
66
1
62
250
10
0.0
20
0.0
30
0.000000
0
VERTEX
8
0
10
296.000000
20
631.000000
0
VERTEX
8
0
10
296.000000
20
642.000000
0
SEQEND
0
POLYLINE
8
0
6
CONTINUOUS
66
1
62
251
10
0.0
20
0.0
30
0.000000
0
VERTEX
8
0
10
962.000000
20
631.000000
0
VERTEX
8
0
10
962.000000
20
642.000000
0
SEQEND
0
POLYLINE
8
0
6
CONTINUOUS
66
1
62
250
10
0.0
20
0.0
30
0.000000
0
VERTEX
8
0
10
1090.000000
20
631.000000
0
VERTEX
8
0
10
1090.000000
20
637.000000
0
SEQEND
0
POLYLINE
8
0
6
CONTINUOUS
66
1
62
250
10
0.0
20
0.0
30
0.000000
0
VERTEX
8
0
10
86.000000
20
619.000000
0
VERTEX
8
0
10
86.000000
20
630.000000
0
SEQEND
0
POLYLINE
8
0
6
CONTINUOUS
66
1
62
251
10
0.0
20
0.0
30
0.000000
0
VERTEX
8
0
10
1172.000000
20
619.000000
0
VERTEX
8
0
10
1172.000000
20
630.000000
0
SEQEND
0
POLYLINE
8
0
6
CONTINUOUS
66
1
62
250
10
0.0
20
0.0
30
0.000000
0
VERTEX
8
0
10
461.000000
20
608.000000
0
VERTEX
8
0
10
461.000000
20
619.000000
0
SEQEND
0
POLYLINE
8
0
6
CONTINUOUS
66
1
62
250
10
0.0
20
0.0
30
0.000000
0
VERTEX
8
0
10
795.000000
20
608.000000
0
VERTEX
8
0
10
795.000000
20
619.000000
0
SEQEND
0
POLYLINE
8
0
6
CONTINUOUS
66
1
62
250
10
0.0
20
0.0
30
0.000000
0
VERTEX
8
0
10
334.000000
20
607.000000
0
VERTEX
8
0
10
334.000000
20
617.000000
0
SEQEND
0
POLYLINE
8
0
6
CONTINUOUS
66
1
62
250
10
0.0
20
0.0
30
0.000000
0
VERTEX
8
0
10
923.000000
20
607.000000
0
VERTEX
8
0
10
923.000000
20
617.000000
0
SEQEND
0
POLYLINE
8
0
6
CONTINUOUS
66
1
62
250
10
0.0
20
0.0
30
0.000000
0
VERTEX
8
0
10
296.000000
20
606.000000
0
VERTEX
8
0
10
296.000000
20
617.000000
0
SEQEND
0
POLYLINE
8
0
6
CONTINUOUS
66
1
62
251
10
0.0
20
0.0
30
0.000000
0
VERTEX
8
0
10
962.000000
20
606.000000
0
VERTEX
8
0
10
962.000000
20
617.000000
0
SEQEND
0
POLYLINE
8
0
6
CONTINUOUS
66
1
62
250
10
0.0
20
0.0
30
0.000000
0
VERTEX
8
0
10
86.000000
20
594.000000
0
VERTEX
8
0
10
86.000000
20
605.000000
0
SEQEND
0
POLYLINE
8
0
6
CONTINUOUS
66
1
62
251
10
0.0
20
0.0
30
0.000000
0
VERTEX
8
0
10
1172.000000
20
594.000000
0
VERTEX
8
0
10
1172.000000
20
605.000000
0
SEQEND
0
POLYLINE
8
0
6
CONTINUOUS
66
1
62
250
10
0.0
20
0.0
30
0.000000
0
VERTEX
8
0
10
132.000000
20
620.000000
0
VERTEX
8
0
10
166.986507
20
619.514264
0
VERTEX
8
0
10
205.820000
20
589.760000
0
VERTEX
8
0
10
209.000000
20
587.000000
0
VERTEX
8
0
10
245.000000
20
588.000000
0
SEQEND
0
POLYLINE
8
0
6
CONTINUOUS
66
1
62
250
10
0.0
20
0.0
30
0.000000
0
VERTEX
8
0
10
1012.000000
20
588.000000
0
VERTEX
8
0
10
1048.000000
20
587.000000
0
VERTEX
8
0
10
1050.000000
20
589.000000
0
VERTEX
8
0
10
1090.013139
20
619.513869
0
VERTEX
8
0
10
1126.000000
20
620.000000
0
SEQEND
0
POLYLINE
8
0
6
CONTINUOUS
66
1
62
250
10
0.0
20
0.0
30
0.000000
0
VERTEX
8
0
10
131.000000
20
584.000000
0
VERTEX
8
0
10
131.000000
20
594.000000
0
SEQEND
0
POLYLINE
8
0
6
CONTINUOUS
66
1
62
250
10
0.0
20
0.0
30
0.000000
0
VERTEX
8
0
10
1126.000000
20
584.000000
0
VERTEX
8
0
10
1126.000000
20
594.000000
0
SEQEND
0
POLYLINE
8
0
6
CONTINUOUS
66
1
62
250
10
0.0
20
0.0
30
0.000000
0
VERTEX
8
0
10
461.000000
20
583.000000
0
VERTEX
8
0
10
461.000000
20
594.000000
0
SEQEND
0
POLYLINE
8
0
6
CONTINUOUS
66
1
62
250
10
0.0
20
0.0
30
0.000000
0
VERTEX
8
0
10
795.000000
20
583.000000
0
VERTEX
8
0
10
795.000000
20
594.000000
0
SEQEND
0
POLYLINE
8
0
6
CONTINUOUS
66
1
62
250
10
0.0
20
0.0
30
0.000000
0
VERTEX
8
0
10
334.000000
20
582.000000
0
VERTEX
8
0
10
334.000000
20
592.000000
0
SEQEND
0
POLYLINE
8
0
6
CONTINUOUS
66
1
62
250
10
0.0
20
0.0
30
0.000000
0
VERTEX
8
0
10
923.000000
20
582.000000
0
VERTEX
8
0
10
923.000000
20
592.000000
0
SEQEND
0
POLYLINE
8
0
6
CONTINUOUS
66
1
62
250
10
0.0
20
0.0
30
0.000000
0
VERTEX
8
0
10
296.000000
20
581.000000
0
VERTEX
8
0
10
296.000000
20
592.000000
0
SEQEND
0
POLYLINE
8
0
6
CONTINUOUS
66
1
62
251
10
0.0
20
0.0
30
0.000000
0
VERTEX
8
0
10
962.000000
20
581.000000
0
VERTEX
8
0
10
962.000000
20
592.000000
0
SEQEND
0
POLYLINE
8
0
6
CONTINUOUS
66
1
62
250
10
0.0
20
0.0
30
0.000000
0
VERTEX
8
0
10
209.000000
20
576.000000
0
VERTEX
8
0
10
209.000000
20
587.000000
0
SEQEND
0
POLYLINE
8
0
6
CONTINUOUS
66
1
62
251
10
0.0
20
0.0
30
0.000000
0
VERTEX
8
0
10
1049.000000
20
576.000000
42
0.091428
0
VERTEX
8
0
10
1048.000000
20
587.000000
0
SEQEND
0
POLYLINE
8
0
6
CONTINUOUS
66
1
62
250
10
0.0
20
0.0
30
0.000000
0
VERTEX
8
0
10
248.000000
20
575.000000
0
VERTEX
8
0
10
248.000000
20
585.000000
0
VERTEX
8
0
10
245.000000
20
588.000000
42
0.212549
0
VERTEX
8
0
10
211.989141
20
630.511352
0
VERTEX
8
0
10
168.000000
20
631.000000
0
VERTEX
8
0
10
132.000000
20
630.000000
0
VERTEX
8
0
10
131.000000
20
629.000000
0
VERTEX
8
0
10
131.000000
20
621.000000
0
VERTEX
8
0
10
132.000000
20
620.000000
42
0.079254
0
VERTEX
8
0
10
131.000000
20
609.000000
0
SEQEND
0
POLYLINE
8
0
6
CONTINUOUS
66
1
62
250
10
0.0
20
0.0
30
0.000000
0
VERTEX
8
0
10
1010.000000
20
575.000000
0
VERTEX
8
0
10
1010.455172
20
585.962069
0
VERTEX
8
0
10
1012.000000
20
588.000000
42
-0.200443
0
VERTEX
8
0
10
1045.010628
20
630.511101
0
VERTEX
8
0
10
1090.000000
20
631.000000
0
VERTEX
8
0
10
1124.000000
20
631.000000
0
VERTEX
8
0
10
1127.000000
20
628.000000
0
VERTEX
8
0
10
1127.000000
20
623.000000
0
VERTEX
8
0
10
1126.000000
20
620.000000
0
VERTEX
8
0
10
1126.000000
20
609.000000
0
SEQEND
0
POLYLINE
8
0
6
CONTINUOUS
66
1
62
250
10
0.0
20
0.0
30
0.000000
0
VERTEX
8
0
10
86.000000
20
569.000000
0
VERTEX
8
0
10
86.000000
20
580.000000
0
SEQEND
0
POLYLINE
8
0
6
CONTINUOUS
66
1
62
251
10
0.0
20
0.0
30
0.000000
0
VERTEX
8
0
10
1172.000000
20
569.000000
0
VERTEX
8
0
10
1172.000000
20
580.000000
0
SEQEND
0
POLYLINE
8
0
6
CONTINUOUS
66
1
62
250
10
0.0
20
0.0
30
0.000000
0
VERTEX
8
0
10
131.000000
20
559.000000
0
VERTEX
8
0
10
131.000000
20
569.000000
0
SEQEND
0
POLYLINE
8
0
6
CONTINUOUS
66
1
62
250
10
0.0
20
0.0
30
0.000000
0
VERTEX
8
0
10
1126.000000
20
559.000000
0
VERTEX
8
0
10
1126.000000
20
569.000000
0
SEQEND
0
POLYLINE
8
0
6
CONTINUOUS
66
1
62
250
10
0.0
20
0.0
30
0.000000
0
VERTEX
8
0
10
461.000000
20
558.000000
0
VERTEX
8
0
10
461.000000
20
569.000000
0
SEQEND
0
POLYLINE
8
0
6
CONTINUOUS
66
1
62
250
10
0.0
20
0.0
30
0.000000
0
VERTEX
8
0
10
795.000000
20
558.000000
0
VERTEX
8
0
10
795.000000
20
569.000000
0
SEQEND
0
POLYLINE
8
0
6
CONTINUOUS
66
1
62
250
10
0.0
20
0.0
30
0.000000
0
VERTEX
8
0
10
334.000000
20
557.000000
0
VERTEX
8
0
10
334.000000
20
567.000000
0
SEQEND
0
POLYLINE
8
0
6
CONTINUOUS
66
1
62
250
10
0.0
20
0.0
30
0.000000
0
VERTEX
8
0
10
923.000000
20
557.000000
0
VERTEX
8
0
10
923.000000
20
567.000000
0
SEQEND
0
POLYLINE
8
0
6
CONTINUOUS
66
1
62
250
10
0.0
20
0.0
30
0.000000
0
VERTEX
8
0
10
296.000000
20
556.000000
0
VERTEX
8
0
10
296.000000
20
567.000000
0
SEQEND
0
POLYLINE
8
0
6
CONTINUOUS
66
1
62
251
10
0.0
20
0.0
30
0.000000
0
VERTEX
8
0
10
962.000000
20
556.000000
0
VERTEX
8
0
10
962.000000
20
567.000000
0
SEQEND
0
POLYLINE
8
0
6
CONTINUOUS
66
1
62
250
10
0.0
20
0.0
30
0.000000
0
VERTEX
8
0
10
209.000000
20
551.000000
0
VERTEX
8
0
10
209.000000
20
562.000000
0
SEQEND
0
POLYLINE
8
0
6
CONTINUOUS
66
1
62
251
10
0.0
20
0.0
30
0.000000
0
VERTEX
8
0
10
1049.000000
20
551.000000
0
VERTEX
8
0
10
1049.000000
20
562.000000
0
SEQEND
0
POLYLINE
8
0
6
CONTINUOUS
66
1
62
250
10
0.0
20
0.0
30
0.000000
0
VERTEX
8
0
10
86.000000
20
544.000000
0
VERTEX
8
0
10
86.000000
20
555.000000
0
SEQEND
0
POLYLINE
8
0
6
CONTINUOUS
66
1
62
251
10
0.0
20
0.0
30
0.000000
0
VERTEX
8
0
10
1172.000000
20
544.000000
0
VERTEX
8
0
10
1172.000000
20
555.000000
0
SEQEND
0
POLYLINE
8
0
6
CONTINUOUS
66
1
62
250
10
0.0
20
0.0
30
0.000000
0
VERTEX
8
0
10
131.000000
20
534.000000
0
VERTEX
8
0
10
131.000000
20
544.000000
0
SEQEND
0
POLYLINE
8
0
6
CONTINUOUS
66
1
62
250
10
0.0
20
0.0
30
0.000000
0
VERTEX
8
0
10
1126.000000
20
534.000000
0
VERTEX
8
0
10
1126.000000
20
544.000000
0
SEQEND
0
POLYLINE
8
0
6
CONTINUOUS
66
1
62
250
10
0.0
20
0.0
30
0.000000
0
VERTEX
8
0
10
461.000000
20
533.000000
0
VERTEX
8
0
10
461.000000
20
544.000000
0
SEQEND
0
POLYLINE
8
0
6
CONTINUOUS
66
1
62
250
10
0.0
20
0.0
30
0.000000
0
VERTEX
8
0
10
795.000000
20
533.000000
0
VERTEX
8
0
10
795.000000
20
544.000000
0
SEQEND
0
POLYLINE
8
0
6
CONTINUOUS
66
1
62
250
10
0.0
20
0.0
30
0.000000
0
VERTEX
8
0
10
334.000000
20
532.000000
0
VERTEX
8
0
10
334.000000
20
542.000000
0
SEQEND
0
POLYLINE
8
0
6
CONTINUOUS
66
1
62
250
10
0.0
20
0.0
30
0.000000
0
VERTEX
8
0
10
923.000000
20
532.000000
0
VERTEX
8
0
10
923.000000
20
542.000000
0
SEQEND
0
POLYLINE
8
0
6
CONTINUOUS
66
1
62
250
10
0.0
20
0.0
30
0.000000
0
VERTEX
8
0
10
296.000000
20
531.000000
0
VERTEX
8
0
10
296.000000
20
542.000000
0
SEQEND
0
POLYLINE
8
0
6
CONTINUOUS
66
1
62
251
10
0.0
20
0.0
30
0.000000
0
VERTEX
8
0
10
962.000000
20
531.000000
0
VERTEX
8
0
10
962.000000
20
542.000000
0
SEQEND
0
POLYLINE
8
0
6
CONTINUOUS
66
1
62
250
10
0.0
20
0.0
30
0.000000
0
VERTEX
8
0
10
86.000000
20
519.000000
0
VERTEX
8
0
10
86.000000
20
530.000000
0
SEQEND
0
POLYLINE
8
0
6
CONTINUOUS
66
1
62
251
10
0.0
20
0.0
30
0.000000
0
VERTEX
8
0
10
1172.000000
20
519.000000
0
VERTEX
8
0
10
1172.000000
20
530.000000
0
SEQEND
0
POLYLINE
8
0
6
CONTINUOUS
66
1
62
250
10
0.0
20
0.0
30
0.000000
0
VERTEX
8
0
10
131.000000
20
514.000000
0
VERTEX
8
0
10
168.100000
20
514.800000
0
VERTEX
8
0
10
209.000000
20
547.000000
0
VERTEX
8
0
10
243.000000
20
547.000000
0
VERTEX
8
0
10
245.000000
20
546.000000
0
SEQEND
0
POLYLINE
8
0
6
CONTINUOUS
66
1
62
250
10
0.0
20
0.0
30
0.000000
0
VERTEX
8
0
10
1126.000000
20
514.000000
0
VERTEX
8
0
10
1090.013139
20
514.486131
0
VERTEX
8
0
10
1048.000000
20
547.000000
0
VERTEX
8
0
10
1014.000000
20
547.000000
0
VERTEX
8
0
10
1013.000000
20
546.000000
0
SEQEND
0
POLYLINE
8
0
6
CONTINUOUS
66
1
62
250
10
0.0
20
0.0
30
0.000000
0
VERTEX
8
0
10
334.000000
20
507.000000
0
VERTEX
8
0
10
334.000000
20
517.000000
0
SEQEND
0
POLYLINE
8
0
6
CONTINUOUS
66
1
62
250
10
0.0
20
0.0
30
0.000000
0
VERTEX
8
0
10
923.000000
20
507.000000
0
VERTEX
8
0
10
923.000000
20
517.000000
0
SEQEND
0
POLYLINE
8
0
6
CONTINUOUS
66
1
62
250
10
0.0
20
0.0
30
0.000000
0
VERTEX
8
0
10
296.000000
20
506.000000
0
VERTEX
8
0
10
296.000000
20
517.000000
0
SEQEND
0
POLYLINE
8
0
6
CONTINUOUS
66
1
62
251
10
0.0
20
0.0
30
0.000000
0
VERTEX
8
0
10
962.000000
20
506.000000
0
VERTEX
8
0
10
962.000000
20
517.000000
0
SEQEND
0
POLYLINE
8
0
6
CONTINUOUS
66
1
62
250
10
0.0
20
0.0
30
0.000000
0
VERTEX
8
0
10
542.000000
20
505.000000
0
VERTEX
8
0
10
540.100000
20
504.700000
0
VERTEX
8
0
10
539.000000
20
504.000000
0
VERTEX
8
0
10
437.000000
20
504.000000
0
VERTEX
8
0
10
386.009608
20
505.490008
0
VERTEX
8
0
10
384.000000
20
506.000000
0
SEQEND
0
POLYLINE
8
0
6
CONTINUOUS
66
1
62
250
10
0.0
20
0.0
30
0.000000
0
VERTEX
8
0
10
716.000000
20
505.000000
0
VERTEX
8
0
10
716.900000
20
504.800000
0
VERTEX
8
0
10
718.000000
20
504.000000
0
VERTEX
8
0
10
820.000000
20
504.000000
0
VERTEX
8
0
10
870.990392
20
505.490008
0
VERTEX
8
0
10
873.000000
20
506.000000
0
SEQEND
0
POLYLINE
8
0
6
CONTINUOUS
66
1
62
250
10
0.0
20
0.0
30
0.000000
0
VERTEX
8
0
10
131.000000
20
519.000000
0
VERTEX
8
0
10
131.000000
20
514.000000
0
VERTEX
8
0
10
131.000000
20
505.000000
0
VERTEX
8
0
10
133.000000
20
503.000000
0
VERTEX
8
0
10
211.000000
20
503.000000
42
0.193534
0
VERTEX
8
0
10
245.000000
20
546.000000
0
VERTEX
8
0
10
245.200000
20
546.900000
0
VERTEX
8
0
10
247.544828
20
550.037931
0
VERTEX
8
0
10
248.000000
20
561.000000
0
SEQEND
0
POLYLINE
8
0
6
CONTINUOUS
66
1
62
250
10
0.0
20
0.0
30
0.000000
0
VERTEX
8
0
10
1010.000000
20
561.000000
0
VERTEX
8
0
10
1010.000000
20
549.000000
0
VERTEX
8
0
10
1013.000000
20
546.000000
42
0.219191
0
VERTEX
8
0
10
1046.000000
20
503.000000
0
VERTEX
8
0
10
1124.000000
20
503.000000
42
0.414214
0
VERTEX
8
0
10
1126.000000
20
514.000000
0
VERTEX
8
0
10
1126.000000
20
519.000000
0
SEQEND
0
POLYLINE
8
0
6
CONTINUOUS
66
1
62
250
10
0.0
20
0.0
30
0.000000
0
VERTEX
8
0
10
86.000000
20
494.000000
0
VERTEX
8
0
10
86.000000
20
505.000000
0
SEQEND
0
POLYLINE
8
0
6
CONTINUOUS
66
1
62
250
10
0.0
20
0.0
30
0.000000
0
VERTEX
8
0
10
461.000000
20
494.000000
0
VERTEX
8
0
10
461.000000
20
504.000000
0
SEQEND
0
POLYLINE
8
0
6
CONTINUOUS
66
1
62
251
10
0.0
20
0.0
30
0.000000
0
VERTEX
8
0
10
1172.000000
20
494.000000
0
VERTEX
8
0
10
1172.000000
20
505.000000
0
SEQEND
0
POLYLINE
8
0
6
CONTINUOUS
66
1
62
250
10
0.0
20
0.0
30
0.000000
0
VERTEX
8
0
10
795.000000
20
493.000000
0
VERTEX
8
0
10
795.000000
20
504.000000
0
SEQEND
0
POLYLINE
8
0
6
CONTINUOUS
66
1
62
250
10
0.0
20
0.0
30
0.000000
0
VERTEX
8
0
10
384.000000
20
492.000000
0
VERTEX
8
0
10
384.000000
20
506.000000
42
-0.287600
0
VERTEX
8
0
10
400.088235
20
516.647059
0
VERTEX
8
0
10
402.911765
20
517.352941
0
VERTEX
8
0
10
453.076923
20
530.615385
0
VERTEX
8
0
10
456.923077
20
531.384615
42
0.092595
0
VERTEX
8
0
10
461.000000
20
533.000000
0
VERTEX
8
0
10
537.000000
20
513.000000
42
-0.253532
0
VERTEX
8
0
10
542.000000
20
505.000000
0
VERTEX
8
0
10
542.000000
20
492.000000
0
SEQEND
0
POLYLINE
8
0
6
CONTINUOUS
66
1
62
250
10
0.0
20
0.0
30
0.000000
0
VERTEX
8
0
10
715.000000
20
492.000000
42
-0.096159
0
VERTEX
8
0
10
716.000000
20
505.000000
42
-0.434663
0
VERTEX
8
0
10
726.088235
20
514.647059
0
VERTEX
8
0
10
795.000000
20
533.000000
0
VERTEX
8
0
10
807.923077
20
529.615385
0
VERTEX
8
0
10
863.911765
20
514.647059
0
VERTEX
8
0
10
865.100000
20
514.200000
0
VERTEX
8
0
10
868.000000
20
513.000000
0
VERTEX
8
0
10
873.000000
20
508.000000
0
VERTEX
8
0
10
873.000000
20
506.000000
42
-0.087465
0
VERTEX
8
0
10
874.000000
20
492.000000
0
SEQEND
0
POLYLINE
8
0
6
CONTINUOUS
66
1
62
251
10
0.0
20
0.0
30
0.000000
0
VERTEX
8
0
10
168.000000
20
491.000000
0
VERTEX
8
0
10
168.000000
20
503.000000
0
SEQEND
0
POLYLINE
8
0
6
CONTINUOUS
66
1
62
250
10
0.0
20
0.0
30
0.000000
0
VERTEX
8
0
10
1090.000000
20
491.000000
0
VERTEX
8
0
10
1090.000000
20
503.000000
0
SEQEND
0
POLYLINE
8
0
6
CONTINUOUS
66
1
62
250
10
0.0
20
0.0
30
0.000000
0
VERTEX
8
0
10
334.000000
20
482.000000
0
VERTEX
8
0
10
334.000000
20
492.000000
0
SEQEND
0
POLYLINE
8
0
6
CONTINUOUS
66
1
62
250
10
0.0
20
0.0
30
0.000000
0
VERTEX
8
0
10
923.000000
20
482.000000
0
VERTEX
8
0
10
923.000000
20
492.000000
0
SEQEND
0
POLYLINE
8
0
6
CONTINUOUS
66
1
62
250
10
0.0
20
0.0
30
0.000000
0
VERTEX
8
0
10
296.000000
20
481.000000
0
VERTEX
8
0
10
296.000000
20
492.000000
0
SEQEND
0
POLYLINE
8
0
6
CONTINUOUS
66
1
62
251
10
0.0
20
0.0
30
0.000000
0
VERTEX
8
0
10
962.000000
20
481.000000
0
VERTEX
8
0
10
962.000000
20
492.000000
0
SEQEND
0
POLYLINE
8
0
6
CONTINUOUS
66
1
62
250
10
0.0
20
0.0
30
0.000000
0
VERTEX
8
0
10
86.000000
20
469.000000
0
VERTEX
8
0
10
86.000000
20
480.000000
0
SEQEND
0
POLYLINE
8
0
6
CONTINUOUS
66
1
62
250
10
0.0
20
0.0
30
0.000000
0
VERTEX
8
0
10
461.000000
20
469.000000
0
VERTEX
8
0
10
461.000000
20
479.000000
0
SEQEND
0
POLYLINE
8
0
6
CONTINUOUS
66
1
62
251
10
0.0
20
0.0
30
0.000000
0
VERTEX
8
0
10
1172.000000
20
469.000000
0
VERTEX
8
0
10
1172.000000
20
480.000000
0
SEQEND
0
POLYLINE
8
0
6
CONTINUOUS
66
1
62
250
10
0.0
20
0.0
30
0.000000
0
VERTEX
8
0
10
795.000000
20
468.000000
0
VERTEX
8
0
10
795.000000
20
479.000000
0
SEQEND
0
POLYLINE
8
0
6
CONTINUOUS
66
1
62
251
10
0.0
20
0.0
30
0.000000
0
VERTEX
8
0
10
384.000000
20
467.000000
0
VERTEX
8
0
10
384.000000
20
477.000000
0
VERTEX
8
0
10
383.000000
20
478.000000
0
SEQEND
0
POLYLINE
8
0
6
CONTINUOUS
66
1
62
250
10
0.0
20
0.0
30
0.000000
0
VERTEX
8
0
10
542.000000
20
467.000000
0
VERTEX
8
0
10
542.000000
20
477.000000
0
SEQEND
0
POLYLINE
8
0
6
CONTINUOUS
66
1
62
250
10
0.0
20
0.0
30
0.000000
0
VERTEX
8
0
10
715.000000
20
467.000000
0
VERTEX
8
0
10
715.000000
20
477.000000
0
SEQEND
0
POLYLINE
8
0
6
CONTINUOUS
66
1
62
250
10
0.0
20
0.0
30
0.000000
0
VERTEX
8
0
10
874.000000
20
467.000000
0
VERTEX
8
0
10
874.000000
20
478.000000
0
SEQEND
0
POLYLINE
8
0
6
CONTINUOUS
66
1
62
251
10
0.0
20
0.0
30
0.000000
0
VERTEX
8
0
10
168.000000
20
466.000000
0
VERTEX
8
0
10
168.000000
20
476.000000
0
VERTEX
8
0
10
167.000000
20
477.000000
0
SEQEND
0
POLYLINE
8
0
6
CONTINUOUS
66
1
62
250
10
0.0
20
0.0
30
0.000000
0
VERTEX
8
0
10
1090.000000
20
466.000000
0
VERTEX
8
0
10
1090.000000
20
477.000000
0
SEQEND
0
POLYLINE
8
0
6
CONTINUOUS
66
1
62
250
10
0.0
20
0.0
30
0.000000
0
VERTEX
8
0
10
334.000000
20
457.000000
0
VERTEX
8
0
10
334.000000
20
467.000000
0
SEQEND
0
POLYLINE
8
0
6
CONTINUOUS
66
1
62
250
10
0.0
20
0.0
30
0.000000
0
VERTEX
8
0
10
923.000000
20
457.000000
0
VERTEX
8
0
10
923.000000
20
467.000000
0
SEQEND
0
POLYLINE
8
0
6
CONTINUOUS
66
1
62
250
10
0.0
20
0.0
30
0.000000
0
VERTEX
8
0
10
296.000000
20
456.000000
0
VERTEX
8
0
10
296.000000
20
467.000000
0
SEQEND
0
POLYLINE
8
0
6
CONTINUOUS
66
1
62
251
10
0.0
20
0.0
30
0.000000
0
VERTEX
8
0
10
962.000000
20
456.000000
0
VERTEX
8
0
10
962.000000
20
467.000000
0
SEQEND
0
POLYLINE
8
0
6
CONTINUOUS
66
1
62
250
10
0.0
20
0.0
30
0.000000
0
VERTEX
8
0
10
85.000000
20
442.000000
0
VERTEX
8
0
10
86.000000
20
455.000000
0
SEQEND
0
POLYLINE
8
0
6
CONTINUOUS
66
1
62
251
10
0.0
20
0.0
30
0.000000
0
VERTEX
8
0
10
1172.000000
20
442.000000
0
VERTEX
8
0
10
1172.000000
20
455.000000
0
SEQEND
0
POLYLINE
8
0
6
CONTINUOUS
66
1
62
250
10
0.0
20
0.0
30
0.000000
0
VERTEX
8
0
10
180.000000
20
441.000000
0
VERTEX
8
0
10
169.000000
20
441.000000
0
VERTEX
8
0
10
168.000000
20
442.000000
0
SEQEND
0
POLYLINE
8
0
6
CONTINUOUS
66
1
62
250
10
0.0
20
0.0
30
0.000000
0
VERTEX
8
0
10
193.000000
20
441.000000
0
VERTEX
8
0
10
205.000000
20
441.000000
0
SEQEND
0
POLYLINE
8
0
6
CONTINUOUS
66
1
62
250
10
0.0
20
0.0
30
0.000000
0
VERTEX
8
0
10
218.000000
20
441.000000
0
VERTEX
8
0
10
230.000000
20
441.000000
0
SEQEND
0
POLYLINE
8
0
6
CONTINUOUS
66
1
62
250
10
0.0
20
0.0
30
0.000000
0
VERTEX
8
0
10
243.000000
20
441.000000
0
VERTEX
8
0
10
255.000000
20
441.000000
0
SEQEND
0
POLYLINE
8
0
6
CONTINUOUS
66
1
62
250
10
0.0
20
0.0
30
0.000000
0
VERTEX
8
0
10
268.000000
20
441.000000
0
VERTEX
8
0
10
280.000000
20
441.000000
0
SEQEND
0
POLYLINE
8
0
6
CONTINUOUS
66
1
62
250
10
0.0
20
0.0
30
0.000000
0
VERTEX
8
0
10
318.000000
20
441.000000
0
VERTEX
8
0
10
330.000000
20
441.000000
0
SEQEND
0
POLYLINE
8
0
6
CONTINUOUS
66
1
62
250
10
0.0
20
0.0
30
0.000000
0
VERTEX
8
0
10
927.000000
20
441.000000
0
VERTEX
8
0
10
939.000000
20
441.000000
0
SEQEND
0
POLYLINE
8
0
6
CONTINUOUS
66
1
62
250
10
0.0
20
0.0
30
0.000000
0
VERTEX
8
0
10
977.000000
20
441.000000
0
VERTEX
8
0
10
989.000000
20
441.000000
0
SEQEND
0
POLYLINE
8
0
6
CONTINUOUS
66
1
62
250
10
0.0
20
0.0
30
0.000000
0
VERTEX
8
0
10
1002.000000
20
441.000000
0
VERTEX
8
0
10
1014.000000
20
441.000000
0
SEQEND
0
POLYLINE
8
0
6
CONTINUOUS
66
1
62
250
10
0.0
20
0.0
30
0.000000
0
VERTEX
8
0
10
1027.000000
20
441.000000
0
VERTEX
8
0
10
1039.000000
20
441.000000
0
SEQEND
0
POLYLINE
8
0
6
CONTINUOUS
66
1
62
250
10
0.0
20
0.0
30
0.000000
0
VERTEX
8
0
10
1052.000000
20
441.000000
0
VERTEX
8
0
10
1064.000000
20
441.000000
0
SEQEND
0
POLYLINE
8
0
6
CONTINUOUS
66
1
62
250
10
0.0
20
0.0
30
0.000000
0
VERTEX
8
0
10
1090.000000
20
441.000000
0
VERTEX
8
0
10
1090.000000
20
452.000000
0
SEQEND
0
POLYLINE
8
0
6
CONTINUOUS
66
1
62
250
10
0.0
20
0.0
30
0.000000
0
VERTEX
8
0
10
1077.000000
20
441.000000
0
VERTEX
8
0
10
1090.000000
20
441.000000
0
VERTEX
8
0
10
1091.000000
20
440.000000
0
VERTEX
8
0
10
1172.000000
20
442.000000
0
VERTEX
8
0
10
1177.940000
20
442.420000
0
VERTEX
8
0
10
1194.923077
20
445.384615
42
0.254136
0
VERTEX
8
0
10
1199.000000
20
449.000000
0
VERTEX
8
0
10
1199.000000
20
673.000000
0
VERTEX
8
0
10
1195.100000
20
676.200000
0
VERTEX
8
0
10
1141.000000
20
693.000000
0
VERTEX
8
0
10
1090.000000
20
693.000000
0
VERTEX
8
0
10
1089.300000
20
689.900000
0
VERTEX
8
0
10
1089.000000
20
688.000000
42
-0.082510
0
VERTEX
8
0
10
1090.000000
20
676.000000
0
SEQEND
0
POLYLINE
8
0
6
CONTINUOUS
66
1
62
250
10
0.0
20
0.0
30
0.000000
0
VERTEX
8
0
10
167.000000
20
440.000000
0
VERTEX
8
0
10
85.000000
20
442.000000
0
VERTEX
8
0
10
79.060000
20
442.420000
0
VERTEX
8
0
10
59.000000
20
446.000000
0
VERTEX
8
0
10
59.000000
20
674.000000
42
-0.070514
0
VERTEX
8
0
10
81.900000
20
682.300000
0
VERTEX
8
0
10
85.911765
20
683.352941
0
VERTEX
8
0
10
116.000000
20
693.000000
0
VERTEX
8
0
10
166.000000
20
693.000000
0
VERTEX
8
0
10
168.000000
20
691.000000
0
VERTEX
8
0
10
168.000000
20
688.000000
0
VERTEX
8
0
10
168.000000
20
676.000000
0
SEQEND
0
POLYLINE
8
0
6
CONTINUOUS
66
1
62
250
10
0.0
20
0.0
30
0.000000
0
VERTEX
8
0
10
296.000000
20
435.000000
42
0.120666
0
VERTEX
8
0
10
294.000000
20
439.000000
0
SEQEND
0
POLYLINE
8
0
6
CONTINUOUS
66
1
62
251
10
0.0
20
0.0
30
0.000000
0
VERTEX
8
0
10
962.000000
20
435.000000
0
VERTEX
8
0
10
962.000000
20
437.000000
0
VERTEX
8
0
10
963.000000
20
438.000000
0
SEQEND
0
POLYLINE
8
0
6
CONTINUOUS
66
1
62
250
10
0.0
20
0.0
30
0.000000
0
VERTEX
8
0
10
334.000000
20
432.000000
0
VERTEX
8
0
10
334.000000
20
442.000000
0
SEQEND
0
POLYLINE
8
0
6
CONTINUOUS
66
1
62
250
10
0.0
20
0.0
30
0.000000
0
VERTEX
8
0
10
923.000000
20
432.000000
0
VERTEX
8
0
10
923.000000
20
442.000000
0
SEQEND
0
POLYLINE
8
0
6
CONTINUOUS
66
1
62
250
10
0.0
20
0.0
30
0.000000
0
VERTEX
8
0
10
466.000000
20
427.000000
0
VERTEX
8
0
10
533.900000
20
445.300000
42
0.199353
0
VERTEX
8
0
10
542.000000
20
452.000000
0
VERTEX
8
0
10
539.000000
20
455.000000
0
VERTEX
8
0
10
385.000000
20
454.000000
0
VERTEX
8
0
10
384.000000
20
453.000000
0
VERTEX
8
0
10
384.000000
20
450.000000
42
0.098511
0
VERTEX
8
0
10
411.100000
20
439.300000
0
VERTEX
8
0
10
453.076923
20
428.384615
42
0.065450
0
VERTEX
8
0
10
466.000000
20
427.000000
0
SEQEND
0
POLYLINE
8
0
6
CONTINUOUS
66
1
62
250
10
0.0
20
0.0
30
0.000000
0
VERTEX
8
0
10
799.000000
20
427.000000
0
VERTEX
8
0
10
805.088235
20
428.647059
0
VERTEX
8
0
10
861.100000
20
443.700000
0
VERTEX
8
0
10
865.900000
20
445.300000
42
0.173301
0
VERTEX
8
0
10
874.000000
20
452.000000
0
VERTEX
8
0
10
872.000000
20
454.000000
0
VERTEX
8
0
10
810.000000
20
455.000000
0
VERTEX
8
0
10
718.000000
20
455.000000
42
0.696683
0
VERTEX
8
0
10
721.100000
20
446.200000
0
VERTEX
8
0
10
723.100000
20
445.300000
0
VERTEX
8
0
10
782.088235
20
429.352941
0
VERTEX
8
0
10
784.911765
20
428.647059
42
0.064517
0
VERTEX
8
0
10
799.000000
20
427.000000
0
SEQEND
0
POLYLINE
8
0
6
CONTINUOUS
66
1
62
250
10
0.0
20
0.0
30
0.000000
0
VERTEX
8
0
10
462.000000
20
416.000000
0
VERTEX
8
0
10
462.000000
20
427.000000
0
SEQEND
0
POLYLINE
8
0
6
CONTINUOUS
66
1
62
250
10
0.0
20
0.0
30
0.000000
0
VERTEX
8
0
10
796.000000
20
416.000000
0
VERTEX
8
0
10
795.000000
20
427.000000
0
SEQEND
0
POLYLINE
8
0
6
CONTINUOUS
66
1
62
250
10
0.0
20
0.0
30
0.000000
0
VERTEX
8
0
10
334.000000
20
407.000000
0
VERTEX
8
0
10
334.000000
20
417.000000
0
SEQEND
0
POLYLINE
8
0
6
CONTINUOUS
66
1
62
250
10
0.0
20
0.0
30
0.000000
0
VERTEX
8
0
10
923.000000
20
407.000000
0
VERTEX
8
0
10
923.000000
20
417.000000
0
SEQEND
0
POLYLINE
8
0
6
CONTINUOUS
66
1
62
250
10
0.0
20
0.0
30
0.000000
0
VERTEX
8
0
10
462.000000
20
391.000000
0
VERTEX
8
0
10
462.000000
20
402.000000
0
SEQEND
0
POLYLINE
8
0
6
CONTINUOUS
66
1
62
250
10
0.0
20
0.0
30
0.000000
0
VERTEX
8
0
10
796.000000
20
391.000000
0
VERTEX
8
0
10
796.000000
20
402.000000
0
SEQEND
0
POLYLINE
8
0
6
CONTINUOUS
66
1
62
250
10
0.0
20
0.0
30
0.000000
0
VERTEX
8
0
10
334.000000
20
382.000000
0
VERTEX
8
0
10
334.000000
20
392.000000
0
SEQEND
0
POLYLINE
8
0
6
CONTINUOUS
66
1
62
250
10
0.0
20
0.0
30
0.000000
0
VERTEX
8
0
10
923.000000
20
382.000000
0
VERTEX
8
0
10
923.000000
20
392.000000
0
SEQEND
0
POLYLINE
8
0
6
CONTINUOUS
66
1
62
250
10
0.0
20
0.0
30
0.000000
0
VERTEX
8
0
10
167.000000
20
452.000000
0
VERTEX
8
0
10
168.000000
20
451.000000
0
VERTEX
8
0
10
168.000000
20
442.000000
0
VERTEX
8
0
10
167.000000
20
440.000000
0
VERTEX
8
0
10
167.507809
20
437.992428
0
VERTEX
8
0
10
168.000000
20
374.000000
0
VERTEX
8
0
10
170.000000
20
372.000000
0
VERTEX
8
0
10
222.000000
20
372.000000
0
VERTEX
8
0
10
294.000000
20
439.000000
0
VERTEX
8
0
10
295.000000
20
440.000000
0
VERTEX
8
0
10
305.000000
20
441.000000
0
SEQEND
0
POLYLINE
8
0
6
CONTINUOUS
66
1
62
250
10
0.0
20
0.0
30
0.000000
0
VERTEX
8
0
10
1035.000000
20
372.000000
0
VERTEX
8
0
10
1086.990747
20
372.490391
0
VERTEX
8
0
10
1089.507809
20
375.007572
0
VERTEX
8
0
10
1091.000000
20
440.000000
0
SEQEND
0
POLYLINE
8
0
6
CONTINUOUS
66
1
62
250
10
0.0
20
0.0
30
0.000000
0
VERTEX
8
0
10
462.000000
20
366.000000
0
VERTEX
8
0
10
462.000000
20
377.000000
0
SEQEND
0
POLYLINE
8
0
6
CONTINUOUS
66
1
62
250
10
0.0
20
0.0
30
0.000000
0
VERTEX
8
0
10
796.000000
20
366.000000
0
VERTEX
8
0
10
796.000000
20
377.000000
0
SEQEND
0
POLYLINE
8
0
6
CONTINUOUS
66
1
62
250
10
0.0
20
0.0
30
0.000000
0
VERTEX
8
0
10
334.000000
20
357.000000
0
VERTEX
8
0
10
334.000000
20
367.000000
0
SEQEND
0
POLYLINE
8
0
6
CONTINUOUS
66
1
62
250
10
0.0
20
0.0
30
0.000000
0
VERTEX
8
0
10
923.000000
20
357.000000
0
VERTEX
8
0
10
923.000000
20
367.000000
0
SEQEND
0
POLYLINE
8
0
6
CONTINUOUS
66
1
62
250
10
0.0
20
0.0
30
0.000000
0
VERTEX
8
0
10
462.000000
20
341.000000
0
VERTEX
8
0
10
462.000000
20
352.000000
0
SEQEND
0
POLYLINE
8
0
6
CONTINUOUS
66
1
62
250
10
0.0
20
0.0
30
0.000000
0
VERTEX
8
0
10
796.000000
20
341.000000
0
VERTEX
8
0
10
796.000000
20
352.000000
0
SEQEND
0
POLYLINE
8
0
6
CONTINUOUS
66
1
62
250
10
0.0
20
0.0
30
0.000000
0
VERTEX
8
0
10
334.000000
20
332.000000
0
VERTEX
8
0
10
334.000000
20
342.000000
0
SEQEND
0
POLYLINE
8
0
6
CONTINUOUS
66
1
62
250
10
0.0
20
0.0
30
0.000000
0
VERTEX
8
0
10
923.000000
20
332.000000
0
VERTEX
8
0
10
923.000000
20
342.000000
0
SEQEND
0
POLYLINE
8
0
6
CONTINUOUS
66
1
62
250
10
0.0
20
0.0
30
0.000000
0
VERTEX
8
0
10
462.000000
20
316.000000
0
VERTEX
8
0
10
462.000000
20
327.000000
0
SEQEND
0
POLYLINE
8
0
6
CONTINUOUS
66
1
62
250
10
0.0
20
0.0
30
0.000000
0
VERTEX
8
0
10
796.000000
20
316.000000
0
VERTEX
8
0
10
796.000000
20
327.000000
0
SEQEND
0
POLYLINE
8
0
6
CONTINUOUS
66
1
62
250
10
0.0
20
0.0
30
0.000000
0
VERTEX
8
0
10
334.000000
20
307.000000
0
VERTEX
8
0
10
334.000000
20
317.000000
0
SEQEND
0
POLYLINE
8
0
6
CONTINUOUS
66
1
62
250
10
0.0
20
0.0
30
0.000000
0
VERTEX
8
0
10
923.000000
20
307.000000
0
VERTEX
8
0
10
923.000000
20
317.000000
0
SEQEND
0
POLYLINE
8
0
6
CONTINUOUS
66
1
62
250
10
0.0
20
0.0
30
0.000000
0
VERTEX
8
0
10
334.000000
20
282.000000
0
VERTEX
8
0
10
334.000000
20
292.000000
0
SEQEND
0
POLYLINE
8
0
6
CONTINUOUS
66
1
62
250
10
0.0
20
0.0
30
0.000000
0
VERTEX
8
0
10
923.000000
20
282.000000
0
VERTEX
8
0
10
923.000000
20
292.000000
0
SEQEND
0
POLYLINE
8
0
6
CONTINUOUS
66
1
62
252
10
0.0
20
0.0
30
0.000000
0
VERTEX
8
0
10
332.000000
20
265.000000
42
-0.720759
0
VERTEX
8
0
10
335.000000
20
268.000000
0
SEQEND
0
POLYLINE
8
0
6
CONTINUOUS
66
1
62
250
10
0.0
20
0.0
30
0.000000
0
VERTEX
8
0
10
359.000000
20
265.000000
0
VERTEX
8
0
10
371.000000
20
265.000000
0
SEQEND
0
POLYLINE
8
0
6
CONTINUOUS
66
1
62
250
10
0.0
20
0.0
30
0.000000
0
VERTEX
8
0
10
384.000000
20
265.000000
0
VERTEX
8
0
10
396.000000
20
265.000000
0
SEQEND
0
POLYLINE
8
0
6
CONTINUOUS
66
1
62
250
10
0.0
20
0.0
30
0.000000
0
VERTEX
8
0
10
409.000000
20
265.000000
0
VERTEX
8
0
10
421.000000
20
265.000000
0
SEQEND
0
POLYLINE
8
0
6
CONTINUOUS
66
1
62
250
10
0.0
20
0.0
30
0.000000
0
VERTEX
8
0
10
434.000000
20
265.000000
0
VERTEX
8
0
10
439.000000
20
265.000000
0
VERTEX
8
0
10
439.200000
20
265.900000
0
VERTEX
8
0
10
461.000000
20
288.000000
0
VERTEX
8
0
10
462.000000
20
288.000000
0
SEQEND
0
POLYLINE
8
0
6
CONTINUOUS
66
1
62
250
10
0.0
20
0.0
30
0.000000
0
VERTEX
8
0
10
484.000000
20
265.000000
0
VERTEX
8
0
10
497.000000
20
265.000000
0
SEQEND
0
POLYLINE
8
0
6
CONTINUOUS
66
1
62
250
10
0.0
20
0.0
30
0.000000
0
VERTEX
8
0
10
510.000000
20
265.000000
0
VERTEX
8
0
10
522.000000
20
265.000000
0
SEQEND
0
POLYLINE
8
0
6
CONTINUOUS
66
1
62
250
10
0.0
20
0.0
30
0.000000
0
VERTEX
8
0
10
535.000000
20
265.000000
0
VERTEX
8
0
10
547.000000
20
265.000000
0
SEQEND
0
POLYLINE
8
0
6
CONTINUOUS
66
1
62
250
10
0.0
20
0.0
30
0.000000
0
VERTEX
8
0
10
560.000000
20
265.000000
0
VERTEX
8
0
10
572.000000
20
265.000000
0
SEQEND
0
POLYLINE
8
0
6
CONTINUOUS
66
1
62
250
10
0.0
20
0.0
30
0.000000
0
VERTEX
8
0
10
585.000000
20
265.000000
0
VERTEX
8
0
10
597.000000
20
265.000000
0
SEQEND
0
POLYLINE
8
0
6
CONTINUOUS
66
1
62
250
10
0.0
20
0.0
30
0.000000
0
VERTEX
8
0
10
610.000000
20
265.000000
0
VERTEX
8
0
10
622.000000
20
265.000000
0
SEQEND
0
POLYLINE
8
0
6
CONTINUOUS
66
1
62
250
10
0.0
20
0.0
30
0.000000
0
VERTEX
8
0
10
635.000000
20
265.000000
0
VERTEX
8
0
10
647.000000
20
265.000000
0
SEQEND
0
POLYLINE
8
0
6
CONTINUOUS
66
1
62
250
10
0.0
20
0.0
30
0.000000
0
VERTEX
8
0
10
660.000000
20
265.000000
0
VERTEX
8
0
10
672.000000
20
265.000000
0
SEQEND
0
POLYLINE
8
0
6
CONTINUOUS
66
1
62
250
10
0.0
20
0.0
30
0.000000
0
VERTEX
8
0
10
685.000000
20
265.000000
0
VERTEX
8
0
10
697.000000
20
265.000000
0
SEQEND
0
POLYLINE
8
0
6
CONTINUOUS
66
1
62
250
10
0.0
20
0.0
30
0.000000
0
VERTEX
8
0
10
710.000000
20
265.000000
0
VERTEX
8
0
10
722.000000
20
265.000000
0
SEQEND
0
POLYLINE
8
0
6
CONTINUOUS
66
1
62
250
10
0.0
20
0.0
30
0.000000
0
VERTEX
8
0
10
735.000000
20
265.000000
0
VERTEX
8
0
10
747.000000
20
265.000000
0
SEQEND
0
POLYLINE
8
0
6
CONTINUOUS
66
1
62
250
10
0.0
20
0.0
30
0.000000
0
VERTEX
8
0
10
773.000000
20
265.000000
42
-0.071068
0
VERTEX
8
0
10
781.000000
20
274.000000
0
VERTEX
8
0
10
782.000000
20
275.000000
0
VERTEX
8
0
10
795.000000
20
288.000000
0
VERTEX
8
0
10
796.000000
20
288.000000
0
SEQEND
0
POLYLINE
8
0
6
CONTINUOUS
66
1
62
250
10
0.0
20
0.0
30
0.000000
0
VERTEX
8
0
10
823.000000
20
265.000000
0
VERTEX
8
0
10
818.000000
20
265.000000
0
VERTEX
8
0
10
818.000000
20
266.000000
0
VERTEX
8
0
10
796.000000
20
288.000000
0
VERTEX
8
0
10
796.000000
20
302.000000
0
SEQEND
0
POLYLINE
8
0
6
CONTINUOUS
66
1
62
250
10
0.0
20
0.0
30
0.000000
0
VERTEX
8
0
10
836.000000
20
265.000000
0
VERTEX
8
0
10
848.000000
20
265.000000
0
SEQEND
0
POLYLINE
8
0
6
CONTINUOUS
66
1
62
250
10
0.0
20
0.0
30
0.000000
0
VERTEX
8
0
10
861.000000
20
265.000000
0
VERTEX
8
0
10
873.000000
20
265.000000
0
SEQEND
0
POLYLINE
8
0
6
CONTINUOUS
66
1
62
250
10
0.0
20
0.0
30
0.000000
0
VERTEX
8
0
10
886.000000
20
265.000000
0
VERTEX
8
0
10
898.000000
20
265.000000
0
SEQEND
0
POLYLINE
8
0
6
CONTINUOUS
66
1
62
251
10
0.0
20
0.0
30
0.000000
0
VERTEX
8
0
10
926.000000
20
265.000000
42
0.333890
0
VERTEX
8
0
10
922.000000
20
268.000000
0
SEQEND
0
POLYLINE
8
0
6
CONTINUOUS
66
1
62
250
10
0.0
20
0.0
30
0.000000
0
VERTEX
8
0
10
335.000000
20
263.000000
0
VERTEX
8
0
10
335.000000
20
264.000000
0
VERTEX
8
0
10
336.000000
20
265.000000
0
VERTEX
8
0
10
346.000000
20
265.000000
0
SEQEND
0
POLYLINE
8
0
6
CONTINUOUS
66
1
62
250
10
0.0
20
0.0
30
0.000000
0
VERTEX
8
0
10
922.000000
20
263.000000
0
VERTEX
8
0
10
922.000000
20
264.000000
0
VERTEX
8
0
10
921.000000
20
265.000000
0
VERTEX
8
0
10
911.000000
20
265.000000
0
SEQEND
0
POLYLINE
8
0
6
CONTINUOUS
66
1
62
250
10
0.0
20
0.0
30
0.000000
0
VERTEX
8
0
10
441.000000
20
245.000000
0
VERTEX
8
0
10
449.000000
20
253.000000
0
SEQEND
0
POLYLINE
8
0
6
CONTINUOUS
66
1
62
250
10
0.0
20
0.0
30
0.000000
0
VERTEX
8
0
10
817.000000
20
245.000000
0
VERTEX
8
0
10
816.000000
20
245.000000
0
VERTEX
8
0
10
808.000000
20
253.000000
0
SEQEND
0
POLYLINE
8
0
6
CONTINUOUS
66
1
62
250
10
0.0
20
0.0
30
0.000000
0
VERTEX
8
0
10
462.000000
20
242.000000
0
VERTEX
8
0
10
463.000000
20
243.000000
0
VERTEX
8
0
10
483.800000
20
264.100000
0
VERTEX
8
0
10
484.000000
20
265.000000
0
VERTEX
8
0
10
484.000000
20
266.000000
0
VERTEX
8
0
10
462.000000
20
288.000000
0
VERTEX
8
0
10
462.000000
20
302.000000
0
SEQEND
0
POLYLINE
8
0
6
CONTINUOUS
66
1
62
250
10
0.0
20
0.0
30
0.000000
0
VERTEX
8
0
10
796.000000
20
242.000000
0
VERTEX
8
0
10
807.000000
20
253.000000
0
VERTEX
8
0
10
808.000000
20
253.000000
0
VERTEX
8
0
10
808.200000
20
253.900000
0
VERTEX
8
0
10
814.000000
20
260.000000
42
0.099020
0
VERTEX
8
0
10
818.000000
20
265.000000
0
SEQEND
0
POLYLINE
8
0
6
CONTINUOUS
66
1
62
250
10
0.0
20
0.0
30
0.000000
0
VERTEX
8
0
10
796.000000
20
239.000000
0
VERTEX
8
0
10
796.000000
20
242.000000
0
VERTEX
8
0
10
795.000000
20
242.000000
0
VERTEX
8
0
10
773.000000
20
264.000000
0
VERTEX
8
0
10
773.000000
20
265.000000
0
VERTEX
8
0
10
760.000000
20
265.000000
0
SEQEND
0
POLYLINE
8
0
6
CONTINUOUS
66
1
62
250
10
0.0
20
0.0
30
0.000000
0
VERTEX
8
0
10
424.000000
20
228.000000
42
-0.071068
0
VERTEX
8
0
10
432.000000
20
235.000000
0
SEQEND
0
POLYLINE
8
0
6
CONTINUOUS
66
1
62
250
10
0.0
20
0.0
30
0.000000
0
VERTEX
8
0
10
462.000000
20
227.000000
0
VERTEX
8
0
10
462.000000
20
242.000000
0
VERTEX
8
0
10
449.000000
20
253.000000
0
VERTEX
8
0
10
439.000000
20
265.000000
0
SEQEND
0
POLYLINE
8
0
6
CONTINUOUS
66
1
62
250
10
0.0
20
0.0
30
0.000000
0
VERTEX
8
0
10
834.000000
20
227.000000
0
VERTEX
8
0
10
826.000000
20
235.000000
0
SEQEND
0
POLYLINE
8
0
6
CONTINUOUS
66
1
62
250
10
0.0
20
0.0
30
0.000000
0
VERTEX
8
0
10
796.000000
20
214.000000
0
VERTEX
8
0
10
796.000000
20
225.000000
0
SEQEND
0
POLYLINE
8
0
6
CONTINUOUS
66
1
62
250
10
0.0
20
0.0
30
0.000000
0
VERTEX
8
0
10
405.000000
20
209.000000
0
VERTEX
8
0
10
405.900000
20
209.200000
0
VERTEX
8
0
10
411.800000
20
215.100000
42
-0.499124
0
VERTEX
8
0
10
414.000000
20
217.000000
0
SEQEND
0
POLYLINE
8
0
6
CONTINUOUS
66
1
62
250
10
0.0
20
0.0
30
0.000000
0
VERTEX
8
0
10
852.000000
20
209.000000
42
-0.123857
0
VERTEX
8
0
10
844.000000
20
217.000000
0
SEQEND
0
POLYLINE
8
0
6
CONTINUOUS
66
1
62
250
10
0.0
20
0.0
30
0.000000
0
VERTEX
8
0
10
538.000000
20
207.000000
42
0.348993
0
VERTEX
8
0
10
554.384615
20
230.076923
42
0.261174
0
VERTEX
8
0
10
543.100000
20
246.200000
42
0.269623
0
VERTEX
8
0
10
522.000000
20
245.000000
42
0.817038
0
VERTEX
8
0
10
538.000000
20
207.000000
0
SEQEND
0
POLYLINE
8
0
6
CONTINUOUS
66
1
62
250
10
0.0
20
0.0
30
0.000000
0
VERTEX
8
0
10
728.000000
20
207.000000
42
0.348993
0
VERTEX
8
0
10
744.384615
20
230.076923
42
0.261174
0
VERTEX
8
0
10
733.100000
20
246.200000
42
0.325140
0
VERTEX
8
0
10
710.000000
20
243.000000
42
0.634574
0
VERTEX
8
0
10
719.044554
20
207.445545
0
VERTEX
8
0
10
728.000000
20
207.000000
0
SEQEND
0
POLYLINE
8
0
6
CONTINUOUS
66
1
62
250
10
0.0
20
0.0
30
0.000000
0
VERTEX
8
0
10
462.000000
20
202.000000
0
VERTEX
8
0
10
462.000000
20
213.000000
0
SEQEND
0
POLYLINE
8
0
6
CONTINUOUS
66
1
62
250
10
0.0
20
0.0
30
0.000000
0
VERTEX
8
0
10
389.000000
20
192.000000
42
-0.071068
0
VERTEX
8
0
10
397.000000
20
199.000000
0
SEQEND
0
POLYLINE
8
0
6
CONTINUOUS
66
1
62
250
10
0.0
20
0.0
30
0.000000
0
VERTEX
8
0
10
869.000000
20
191.000000
0
VERTEX
8
0
10
861.000000
20
199.000000
0
SEQEND
0
POLYLINE
8
0
6
CONTINUOUS
66
1
62
250
10
0.0
20
0.0
30
0.000000
0
VERTEX
8
0
10
796.000000
20
189.000000
0
VERTEX
8
0
10
796.000000
20
200.000000
0
SEQEND
0
POLYLINE
8
0
6
CONTINUOUS
66
1
62
250
10
0.0
20
0.0
30
0.000000
0
VERTEX
8
0
10
462.000000
20
177.000000
0
VERTEX
8
0
10
462.000000
20
188.000000
0
SEQEND
0
POLYLINE
8
0
6
CONTINUOUS
66
1
62
250
10
0.0
20
0.0
30
0.000000
0
VERTEX
8
0
10
370.000000
20
175.000000
0
VERTEX
8
0
10
371.900000
20
175.300000
0
VERTEX
8
0
10
376.000000
20
179.000000
42
-0.184026
0
VERTEX
8
0
10
379.000000
20
181.000000
0
SEQEND
0
POLYLINE
8
0
6
CONTINUOUS
66
1
62
250
10
0.0
20
0.0
30
0.000000
0
VERTEX
8
0
10
887.000000
20
175.000000
0
VERTEX
8
0
10
885.000000
20
175.000000
0
VERTEX
8
0
10
879.000000
20
181.000000
0
SEQEND
0
POLYLINE
8
0
6
CONTINUOUS
66
1
62
250
10
0.0
20
0.0
30
0.000000
0
VERTEX
8
0
10
796.000000
20
164.000000
0
VERTEX
8
0
10
796.000000
20
175.000000
0
SEQEND
0
POLYLINE
8
0
6
CONTINUOUS
66
1
62
250
10
0.0
20
0.0
30
0.000000
0
VERTEX
8
0
10
462.000000
20
152.000000
0
VERTEX
8
0
10
462.000000
20
163.000000
0
SEQEND
0
POLYLINE
8
0
6
CONTINUOUS
66
1
62
250
10
0.0
20
0.0
30
0.000000
0
VERTEX
8
0
10
466.000000
20
143.000000
0
VERTEX
8
0
10
478.000000
20
143.000000
0
SEQEND
0
POLYLINE
8
0
6
CONTINUOUS
66
1
62
250
10
0.0
20
0.0
30
0.000000
0
VERTEX
8
0
10
491.000000
20
143.000000
0
VERTEX
8
0
10
503.000000
20
143.000000
0
SEQEND
0
POLYLINE
8
0
6
CONTINUOUS
66
1
62
250
10
0.0
20
0.0
30
0.000000
0
VERTEX
8
0
10
516.000000
20
143.000000
0
VERTEX
8
0
10
528.000000
20
143.000000
0
SEQEND
0
POLYLINE
8
0
6
CONTINUOUS
66
1
62
250
10
0.0
20
0.0
30
0.000000
0
VERTEX
8
0
10
541.000000
20
143.000000
0
VERTEX
8
0
10
553.000000
20
143.000000
0
SEQEND
0
POLYLINE
8
0
6
CONTINUOUS
66
1
62
250
10
0.0
20
0.0
30
0.000000
0
VERTEX
8
0
10
566.000000
20
143.000000
0
VERTEX
8
0
10
578.000000
20
143.000000
0
SEQEND
0
POLYLINE
8
0
6
CONTINUOUS
66
1
62
250
10
0.0
20
0.0
30
0.000000
0
VERTEX
8
0
10
591.000000
20
143.000000
0
VERTEX
8
0
10
603.000000
20
143.000000
0
SEQEND
0
POLYLINE
8
0
6
CONTINUOUS
66
1
62
250
10
0.0
20
0.0
30
0.000000
0
VERTEX
8
0
10
616.000000
20
143.000000
0
VERTEX
8
0
10
628.000000
20
143.000000
0
SEQEND
0
POLYLINE
8
0
6
CONTINUOUS
66
1
62
250
10
0.0
20
0.0
30
0.000000
0
VERTEX
8
0
10
641.000000
20
143.000000
0
VERTEX
8
0
10
653.000000
20
143.000000
0
SEQEND
0
POLYLINE
8
0
6
CONTINUOUS
66
1
62
250
10
0.0
20
0.0
30
0.000000
0
VERTEX
8
0
10
666.000000
20
143.000000
0
VERTEX
8
0
10
678.000000
20
143.000000
0
SEQEND
0
POLYLINE
8
0
6
CONTINUOUS
66
1
62
250
10
0.0
20
0.0
30
0.000000
0
VERTEX
8
0
10
691.000000
20
143.000000
0
VERTEX
8
0
10
703.000000
20
143.000000
0
SEQEND
0
POLYLINE
8
0
6
CONTINUOUS
66
1
62
250
10
0.0
20
0.0
30
0.000000
0
VERTEX
8
0
10
716.000000
20
143.000000
0
VERTEX
8
0
10
728.000000
20
143.000000
0
SEQEND
0
POLYLINE
8
0
6
CONTINUOUS
66
1
62
250
10
0.0
20
0.0
30
0.000000
0
VERTEX
8
0
10
741.000000
20
143.000000
0
VERTEX
8
0
10
753.000000
20
143.000000
0
SEQEND
0
POLYLINE
8
0
6
CONTINUOUS
66
1
62
250
10
0.0
20
0.0
30
0.000000
0
VERTEX
8
0
10
766.000000
20
143.000000
0
VERTEX
8
0
10
778.000000
20
143.000000
0
SEQEND
0
POLYLINE
8
0
6
CONTINUOUS
66
1
62
250
10
0.0
20
0.0
30
0.000000
0
VERTEX
8
0
10
791.000000
20
143.000000
0
VERTEX
8
0
10
793.911765
20
143.352941
0
VERTEX
8
0
10
795.594595
20
145.067568
0
VERTEX
8
0
10
796.000000
20
150.000000
0
SEQEND
0
POLYLINE
8
0
6
CONTINUOUS
66
1
62
250
10
0.0
20
0.0
30
0.000000
0
VERTEX
8
0
10
462.000000
20
105.000000
0
VERTEX
8
0
10
461.000000
20
116.000000
0
VERTEX
8
0
10
462.000000
20
117.000000
0
VERTEX
8
0
10
462.000000
20
133.000000
42
0.199359
0
VERTEX
8
0
10
450.932432
20
142.594595
0
VERTEX
8
0
10
396.940000
20
150.580000
0
VERTEX
8
0
10
378.000000
20
154.000000
0
VERTEX
8
0
10
370.000000
20
175.000000
0
VERTEX
8
0
10
341.800000
20
248.900000
42
0.092513
0
VERTEX
8
0
10
335.240000
20
262.180000
0
VERTEX
8
0
10
335.000000
20
263.000000
0
VERTEX
8
0
10
334.000000
20
263.000000
0
VERTEX
8
0
10
332.000000
20
265.000000
0
VERTEX
8
0
10
317.982533
20
267.131004
0
VERTEX
8
0
10
317.000000
20
282.000000
0
VERTEX
8
0
10
312.100000
20
286.200000
0
VERTEX
8
0
10
223.000000
20
287.000000
0
VERTEX
8
0
10
222.200000
20
371.100000
0
VERTEX
8
0
10
222.000000
20
372.000000
0
SEQEND
0
POLYLINE
8
0
6
CONTINUOUS
66
1
62
250
10
0.0
20
0.0
30
0.000000
0
VERTEX
8
0
10
796.000000
20
104.000000
0
VERTEX
8
0
10
796.000000
20
116.000000
0
VERTEX
8
0
10
796.472376
20
133.975138
42
-0.138681
0
VERTEX
8
0
10
798.000000
20
137.000000
42
-0.212039
0
VERTEX
8
0
10
819.060000
20
144.580000
0
VERTEX
8
0
10
826.060000
20
145.580000
0
VERTEX
8
0
10
876.911765
20
153.352941
0
VERTEX
8
0
10
879.000000
20
154.000000
42
0.071789
0
VERTEX
8
0
10
883.800000
20
165.100000
42
0.064386
0
VERTEX
8
0
10
887.000000
20
175.000000
0
VERTEX
8
0
10
888.200000
20
176.900000
0
VERTEX
8
0
10
920.000000
20
260.000000
0
VERTEX
8
0
10
921.000000
20
261.000000
0
VERTEX
8
0
10
922.000000
20
263.000000
42
0.120666
0
VERTEX
8
0
10
926.000000
20
265.000000
0
VERTEX
8
0
10
927.040984
20
265.549180
0
VERTEX
8
0
10
939.020000
20
267.140000
0
VERTEX
8
0
10
940.464602
20
280.969027
42
-0.289875
0
VERTEX
8
0
10
946.005554
20
286.505680
0
VERTEX
8
0
10
1033.977284
20
287.999484
0
VERTEX
8
0
10
1034.506096
20
290.005951
0
VERTEX
8
0
10
1035.000000
20
372.000000
0
VERTEX
8
0
10
963.000000
20
438.000000
0
VERTEX
8
0
10
963.000000
20
439.000000
0
VERTEX
8
0
10
961.000000
20
441.000000
0
VERTEX
8
0
10
952.000000
20
441.000000
0
SEQEND
0
POLYLINE
8
0
6
CONTINUOUS
66
1
62
250
10
0.0
20
0.0
30
0.000000
0
VERTEX
8
0
10
461.000000
20
116.000000
0
VERTEX
8
0
10
458.900000
20
115.200000
0
VERTEX
8
0
10
448.000000
20
111.000000
0
VERTEX
8
0
10
448.000000
20
87.000000
0
VERTEX
8
0
10
450.000000
20
85.000000
42
0.136715
0
VERTEX
8
0
10
462.000000
20
86.000000
0
VERTEX
8
0
10
463.000000
20
85.000000
0
VERTEX
8
0
10
794.000000
20
85.000000
0
VERTEX
8
0
10
796.000000
20
86.000000
42
0.169501
0
VERTEX
8
0
10
810.000000
20
86.000000
0
VERTEX
8
0
10
810.000000
20
109.000000
0
VERTEX
8
0
10
807.000000
20
112.000000
0
VERTEX
8
0
10
796.900000
20
115.800000
0
VERTEX
8
0
10
796.000000
20
116.000000
0
SEQEND
0
POLYLINE
8
0
6
CONTINUOUS
66
1
62
250
10
0.0
20
0.0
30
0.000000
0
VERTEX
8
0
10
462.000000
20
86.000000
0
VERTEX
8
0
10
462.000000
20
91.000000
0
SEQEND
0
POLYLINE
8
0
6
CONTINUOUS
66
1
62
250
10
0.0
20
0.0
30
0.000000
0
VERTEX
8
0
10
796.000000
20
86.000000
0
VERTEX
8
0
10
796.000000
20
90.000000
0
SEQEND
0
ENDSEC
0
EOF
