0
SECTION
2
HEADER
9
$ACADVER
1
AC1003
9
$INSBASE
10
0.0
20
0.0
30
0.0
9
$EXTMIN
10
0.000
20
0.000
30
0.0
9
$EXTMAX
10
1304.000
20
1824.000
30
0.0
9
$LIMMIN
10
0.000
20
0.000
9
$LIMMAX
10
1304.000
20
1824.000
9
$LTSCALE
40
1.0
9
$LUNITS
70
2
9
$LUPREC
70
3
9
$LIMCHECK
70
0
9
$UCSNAME
2

9
$UCSORG
10
0.0
20
0.0
30
0.0
9
$UCSXDIR
10
1.0
20
0.0
30
0.0
9
$UCSYDIR
10
0.0
20
1.0
30
0.0
9
$WORLDVIEW
70
1
9
$UNITMODE
70
0
0
ENDSEC
0
SECTION
2
TABLES
0
TABLE
2
VPORT
70
1
0
VPORT
2
*ACTIVE
70
0
10
0.0
20
0.0
11
1.0
21
1.0
12
652.000
22
912.000
13
0.0
23
0.0
14
1.0
24
1.0
15
0.0
25
0.0
16
0.0
26
0.0
36
1.0
17
0.0
27
0.0
37
0.0
40
500.0
41
1.399
42
50.0
43
0.0
44
0.0
50
0.0
51
0.0
71
0
72
100
73
1
74
1
75
0
76
0
77
0
78
0
0
ENDTAB
0
TABLE
2
LTYPE
70
1
0
LTYPE
2
CONTINUOUS
70
64
3
Solid line
72
65
73
0
40
0.000
0
ENDTAB
0
TABLE
2
LAYER
70
1
0
LAYER
2
0
70
64
62
7
6
CONTINUOUS
0
ENDTAB
0
ENDSEC
0
SECTION
2
BLOCKS
0
ENDSEC
0
SECTION
2
ENTITIES
0
POLYLINE
8
0
6
CONTINUOUS
66
1
62
250
10
0.0
20
0.0
30
0.000000
0
VERTEX
8
0
10
168.000000
20
1728.000000
0
VERTEX
8
0
10
163.000000
20
1737.000000
0
SEQEND
0
POLYLINE
8
0
6
CONTINUOUS
66
1
62
250
10
0.0
20
0.0
30
0.000000
0
VERTEX
8
0
10
1138.000000
20
1728.000000
0
VERTEX
8
0
10
1138.700000
20
1730.100000
42
0.066240
0
VERTEX
8
0
10
1141.000000
20
1739.000000
0
SEQEND
0
POLYLINE
8
0
6
CONTINUOUS
66
1
62
250
10
0.0
20
0.0
30
0.000000
0
VERTEX
8
0
10
177.000000
20
1705.000000
42
0.081845
0
VERTEX
8
0
10
173.000000
20
1715.000000
0
SEQEND
0
POLYLINE
8
0
6
CONTINUOUS
66
1
62
250
10
0.0
20
0.0
30
0.000000
0
VERTEX
8
0
10
1129.000000
20
1705.000000
0
VERTEX
8
0
10
1132.000000
20
1715.000000
0
SEQEND
0
POLYLINE
8
0
6
CONTINUOUS
66
1
62
250
10
0.0
20
0.0
30
0.000000
0
VERTEX
8
0
10
186.000000
20
1682.000000
0
VERTEX
8
0
10
182.000000
20
1692.000000
0
SEQEND
0
POLYLINE
8
0
6
CONTINUOUS
66
1
62
250
10
0.0
20
0.0
30
0.000000
0
VERTEX
8
0
10
1120.000000
20
1682.000000
0
VERTEX
8
0
10
1123.000000
20
1692.000000
0
SEQEND
0
POLYLINE
8
0
6
CONTINUOUS
66
1
62
250
10
0.0
20
0.0
30
0.000000
0
VERTEX
8
0
10
195.000000
20
1658.000000
42
-0.084978
0
VERTEX
8
0
10
191.700000
20
1665.900000
0
VERTEX
8
0
10
191.000000
20
1668.000000
0
SEQEND
0
POLYLINE
8
0
6
CONTINUOUS
66
1
62
250
10
0.0
20
0.0
30
0.000000
0
VERTEX
8
0
10
1111.000000
20
1658.000000
0
VERTEX
8
0
10
1115.000000
20
1668.000000
0
SEQEND
0
POLYLINE
8
0
6
CONTINUOUS
66
1
62
250
10
0.0
20
0.0
30
0.000000
0
VERTEX
8
0
10
202.000000
20
1634.000000
0
VERTEX
8
0
10
199.000000
20
1645.000000
0
SEQEND
0
POLYLINE
8
0
6
CONTINUOUS
66
1
62
250
10
0.0
20
0.0
30
0.000000
0
VERTEX
8
0
10
1104.000000
20
1634.000000
0
VERTEX
8
0
10
1104.647059
20
1637.088235
42
0.092126
0
VERTEX
8
0
10
1106.000000
20
1645.000000
0
SEQEND
0
POLYLINE
8
0
6
CONTINUOUS
66
1
62
250
10
0.0
20
0.0
30
0.000000
0
VERTEX
8
0
10
209.000000
20
1610.000000
0
VERTEX
8
0
10
206.000000
20
1621.000000
0
SEQEND
0
POLYLINE
8
0
6
CONTINUOUS
66
1
62
250
10
0.0
20
0.0
30
0.000000
0
VERTEX
8
0
10
1097.000000
20
1610.000000
0
VERTEX
8
0
10
1099.000000
20
1620.000000
0
SEQEND
0
POLYLINE
8
0
6
CONTINUOUS
66
1
62
250
10
0.0
20
0.0
30
0.000000
0
VERTEX
8
0
10
216.000000
20
1586.000000
0
VERTEX
8
0
10
213.000000
20
1597.000000
0
SEQEND
0
POLYLINE
8
0
6
CONTINUOUS
66
1
62
250
10
0.0
20
0.0
30
0.000000
0
VERTEX
8
0
10
1090.000000
20
1586.000000
0
VERTEX
8
0
10
1090.200000
20
1586.900000
0
VERTEX
8
0
10
1092.500000
20
1596.000000
0
VERTEX
8
0
10
1092.000000
20
1597.000000
0
SEQEND
0
POLYLINE
8
0
6
CONTINUOUS
66
1
62
27
10
0.0
20
0.0
30
0.000000
0
VERTEX
8
0
10
1084.000000
20
1563.000000
0
VERTEX
8
0
10
1087.000000
20
1572.000000
0
SEQEND
0
POLYLINE
8
0
6
CONTINUOUS
66
1
62
250
10
0.0
20
0.0
30
0.000000
0
VERTEX
8
0
10
222.000000
20
1562.000000
0
VERTEX
8
0
10
219.000000
20
1572.000000
0
SEQEND
0
POLYLINE
8
0
6
CONTINUOUS
66
1
62
250
10
0.0
20
0.0
30
0.000000
0
VERTEX
8
0
10
227.000000
20
1537.000000
0
VERTEX
8
0
10
225.000000
20
1548.000000
0
SEQEND
0
POLYLINE
8
0
6
CONTINUOUS
66
1
62
250
10
0.0
20
0.0
30
0.000000
0
VERTEX
8
0
10
1079.000000
20
1537.000000
0
VERTEX
8
0
10
1081.000000
20
1548.000000
0
SEQEND
0
POLYLINE
8
0
6
CONTINUOUS
66
1
62
250
10
0.0
20
0.0
30
0.000000
0
VERTEX
8
0
10
232.000000
20
1513.000000
0
VERTEX
8
0
10
230.000000
20
1523.000000
0
SEQEND
0
POLYLINE
8
0
6
CONTINUOUS
66
1
62
27
10
0.0
20
0.0
30
0.000000
0
VERTEX
8
0
10
1074.000000
20
1513.000000
0
VERTEX
8
0
10
1076.000000
20
1523.000000
0
SEQEND
0
POLYLINE
8
0
6
CONTINUOUS
66
1
62
250
10
0.0
20
0.0
30
0.000000
0
VERTEX
8
0
10
236.000000
20
1488.000000
42
0.078284
0
VERTEX
8
0
10
234.000000
20
1499.000000
0
SEQEND
0
POLYLINE
8
0
6
CONTINUOUS
66
1
62
250
10
0.0
20
0.0
30
0.000000
0
VERTEX
8
0
10
1070.000000
20
1488.000000
0
VERTEX
8
0
10
1071.000000
20
1499.000000
0
SEQEND
0
POLYLINE
8
0
6
CONTINUOUS
66
1
62
27
10
0.0
20
0.0
30
0.000000
0
VERTEX
8
0
10
240.000000
20
1463.000000
0
VERTEX
8
0
10
238.000000
20
1474.000000
0
SEQEND
0
POLYLINE
8
0
6
CONTINUOUS
66
1
62
250
10
0.0
20
0.0
30
0.000000
0
VERTEX
8
0
10
1066.000000
20
1463.000000
0
VERTEX
8
0
10
1067.000000
20
1474.000000
0
SEQEND
0
POLYLINE
8
0
6
CONTINUOUS
66
1
62
250
10
0.0
20
0.0
30
0.000000
0
VERTEX
8
0
10
243.000000
20
1439.000000
0
VERTEX
8
0
10
242.000000
20
1449.000000
0
SEQEND
0
POLYLINE
8
0
6
CONTINUOUS
66
1
62
250
10
0.0
20
0.0
30
0.000000
0
VERTEX
8
0
10
1063.000000
20
1439.000000
0
VERTEX
8
0
10
1064.000000
20
1449.000000
0
SEQEND
0
POLYLINE
8
0
6
CONTINUOUS
66
1
62
250
10
0.0
20
0.0
30
0.000000
0
VERTEX
8
0
10
245.000000
20
1415.000000
0
VERTEX
8
0
10
245.000000
20
1424.000000
0
VERTEX
8
0
10
244.000000
20
1425.000000
0
SEQEND
0
POLYLINE
8
0
6
CONTINUOUS
66
1
62
250
10
0.0
20
0.0
30
0.000000
0
VERTEX
8
0
10
1060.000000
20
1415.000000
0
VERTEX
8
0
10
1061.000000
20
1425.000000
0
SEQEND
0
POLYLINE
8
0
6
CONTINUOUS
66
1
62
27
10
0.0
20
0.0
30
0.000000
0
VERTEX
8
0
10
1058.000000
20
1390.000000
42
0.075231
0
VERTEX
8
0
10
1059.000000
20
1400.000000
0
SEQEND
0
POLYLINE
8
0
6
CONTINUOUS
66
1
62
250
10
0.0
20
0.0
30
0.000000
0
VERTEX
8
0
10
247.000000
20
1389.000000
0
VERTEX
8
0
10
247.000000
20
1400.000000
0
SEQEND
0
POLYLINE
8
0
6
CONTINUOUS
66
1
62
247
10
0.0
20
0.0
30
0.000000
0
VERTEX
8
0
10
249.000000
20
1364.000000
0
VERTEX
8
0
10
248.000000
20
1375.000000
0
SEQEND
0
POLYLINE
8
0
6
CONTINUOUS
66
1
62
250
10
0.0
20
0.0
30
0.000000
0
VERTEX
8
0
10
1057.000000
20
1364.000000
42
0.159525
0
VERTEX
8
0
10
1057.000000
20
1375.000000
0
SEQEND
0
POLYLINE
8
0
6
CONTINUOUS
66
1
62
250
10
0.0
20
0.0
30
0.000000
0
VERTEX
8
0
10
249.000000
20
1339.000000
0
VERTEX
8
0
10
249.000000
20
1350.000000
0
SEQEND
0
POLYLINE
8
0
6
CONTINUOUS
66
1
62
251
10
0.0
20
0.0
30
0.000000
0
VERTEX
8
0
10
1057.000000
20
1339.000000
0
VERTEX
8
0
10
1057.000000
20
1349.000000
0
VERTEX
8
0
10
1056.000000
20
1350.000000
0
SEQEND
0
POLYLINE
8
0
6
CONTINUOUS
66
1
62
250
10
0.0
20
0.0
30
0.000000
0
VERTEX
8
0
10
249.000000
20
1314.000000
0
VERTEX
8
0
10
249.000000
20
1325.000000
0
SEQEND
0
POLYLINE
8
0
6
CONTINUOUS
66
1
62
251
10
0.0
20
0.0
30
0.000000
0
VERTEX
8
0
10
1057.000000
20
1314.000000
0
VERTEX
8
0
10
1057.000000
20
1324.000000
0
VERTEX
8
0
10
1056.000000
20
1325.000000
0
SEQEND
0
POLYLINE
8
0
6
CONTINUOUS
66
1
62
251
10
0.0
20
0.0
30
0.000000
0
VERTEX
8
0
10
248.000000
20
1290.000000
42
0.156339
0
VERTEX
8
0
10
248.000000
20
1300.000000
0
SEQEND
0
POLYLINE
8
0
6
CONTINUOUS
66
1
62
250
10
0.0
20
0.0
30
0.000000
0
VERTEX
8
0
10
1057.000000
20
1290.000000
0
VERTEX
8
0
10
1057.000000
20
1300.000000
0
SEQEND
0
POLYLINE
8
0
6
CONTINUOUS
66
1
62
250
10
0.0
20
0.0
30
0.000000
0
VERTEX
8
0
10
247.000000
20
1264.000000
0
VERTEX
8
0
10
247.000000
20
1274.000000
0
SEQEND
0
POLYLINE
8
0
6
CONTINUOUS
66
1
62
197
10
0.0
20
0.0
30
0.000000
0
VERTEX
8
0
10
1059.000000
20
1264.000000
0
VERTEX
8
0
10
1058.000000
20
1275.000000
0
SEQEND
0
POLYLINE
8
0
6
CONTINUOUS
66
1
62
247
10
0.0
20
0.0
30
0.000000
0
VERTEX
8
0
10
245.000000
20
1239.000000
42
-0.091428
0
VERTEX
8
0
10
246.000000
20
1250.000000
0
SEQEND
0
POLYLINE
8
0
6
CONTINUOUS
66
1
62
250
10
0.0
20
0.0
30
0.000000
0
VERTEX
8
0
10
1061.000000
20
1239.000000
0
VERTEX
8
0
10
1060.000000
20
1250.000000
0
SEQEND
0
POLYLINE
8
0
6
CONTINUOUS
66
1
62
250
10
0.0
20
0.0
30
0.000000
0
VERTEX
8
0
10
242.000000
20
1214.000000
0
VERTEX
8
0
10
243.000000
20
1225.000000
0
SEQEND
0
POLYLINE
8
0
6
CONTINUOUS
66
1
62
250
10
0.0
20
0.0
30
0.000000
0
VERTEX
8
0
10
1064.000000
20
1214.000000
0
VERTEX
8
0
10
1063.000000
20
1225.000000
0
SEQEND
0
POLYLINE
8
0
6
CONTINUOUS
66
1
62
250
10
0.0
20
0.0
30
0.000000
0
VERTEX
8
0
10
1067.000000
20
1190.000000
0
VERTEX
8
0
10
1066.000000
20
1200.000000
0
SEQEND
0
POLYLINE
8
0
6
CONTINUOUS
66
1
62
27
10
0.0
20
0.0
30
0.000000
0
VERTEX
8
0
10
238.000000
20
1189.000000
0
VERTEX
8
0
10
240.000000
20
1200.000000
0
SEQEND
0
POLYLINE
8
0
6
CONTINUOUS
66
1
62
250
10
0.0
20
0.0
30
0.000000
0
VERTEX
8
0
10
234.000000
20
1165.000000
0
VERTEX
8
0
10
236.000000
20
1175.000000
0
SEQEND
0
POLYLINE
8
0
6
CONTINUOUS
66
1
62
250
10
0.0
20
0.0
30
0.000000
0
VERTEX
8
0
10
1072.000000
20
1165.000000
0
VERTEX
8
0
10
1070.000000
20
1175.000000
0
SEQEND
0
POLYLINE
8
0
6
CONTINUOUS
66
1
62
250
10
0.0
20
0.0
30
0.000000
0
VERTEX
8
0
10
229.000000
20
1140.000000
0
VERTEX
8
0
10
231.000000
20
1151.000000
0
SEQEND
0
POLYLINE
8
0
6
CONTINUOUS
66
1
62
250
10
0.0
20
0.0
30
0.000000
0
VERTEX
8
0
10
1077.000000
20
1140.000000
0
VERTEX
8
0
10
1074.000000
20
1151.000000
0
SEQEND
0
POLYLINE
8
0
6
CONTINUOUS
66
1
62
250
10
0.0
20
0.0
30
0.000000
0
VERTEX
8
0
10
223.000000
20
1116.000000
0
VERTEX
8
0
10
226.000000
20
1126.000000
0
SEQEND
0
POLYLINE
8
0
6
CONTINUOUS
66
1
62
250
10
0.0
20
0.0
30
0.000000
0
VERTEX
8
0
10
1082.000000
20
1116.000000
0
VERTEX
8
0
10
1080.000000
20
1126.000000
0
SEQEND
0
POLYLINE
8
0
6
CONTINUOUS
66
1
62
247
10
0.0
20
0.0
30
0.000000
0
VERTEX
8
0
10
217.000000
20
1092.000000
0
VERTEX
8
0
10
220.000000
20
1102.000000
0
SEQEND
0
POLYLINE
8
0
6
CONTINUOUS
66
1
62
250
10
0.0
20
0.0
30
0.000000
0
VERTEX
8
0
10
1089.000000
20
1092.000000
42
-0.084895
0
VERTEX
8
0
10
1086.000000
20
1102.000000
0
SEQEND
0
POLYLINE
8
0
6
CONTINUOUS
66
1
62
247
10
0.0
20
0.0
30
0.000000
0
VERTEX
8
0
10
210.000000
20
1068.000000
0
VERTEX
8
0
10
214.000000
20
1079.000000
0
SEQEND
0
POLYLINE
8
0
6
CONTINUOUS
66
1
62
250
10
0.0
20
0.0
30
0.000000
0
VERTEX
8
0
10
1096.000000
20
1068.000000
0
VERTEX
8
0
10
1094.700000
20
1070.900000
42
0.079845
0
VERTEX
8
0
10
1091.000000
20
1079.000000
0
SEQEND
0
POLYLINE
8
0
6
CONTINUOUS
66
1
62
250
10
0.0
20
0.0
30
0.000000
0
VERTEX
8
0
10
202.000000
20
1044.000000
0
VERTEX
8
0
10
206.000000
20
1054.000000
0
SEQEND
0
POLYLINE
8
0
6
CONTINUOUS
66
1
62
250
10
0.0
20
0.0
30
0.000000
0
VERTEX
8
0
10
1104.000000
20
1044.000000
42
-0.084978
0
VERTEX
8
0
10
1100.700000
20
1051.900000
0
VERTEX
8
0
10
1100.000000
20
1054.000000
0
SEQEND
0
POLYLINE
8
0
6
CONTINUOUS
66
1
62
250
10
0.0
20
0.0
30
0.000000
0
VERTEX
8
0
10
194.000000
20
1020.000000
0
VERTEX
8
0
10
195.200000
20
1023.900000
42
0.073400
0
VERTEX
8
0
10
197.000000
20
1030.000000
0
SEQEND
0
POLYLINE
8
0
6
CONTINUOUS
66
1
62
250
10
0.0
20
0.0
30
0.000000
0
VERTEX
8
0
10
1112.000000
20
1020.000000
0
VERTEX
8
0
10
1108.000000
20
1031.000000
0
SEQEND
0
POLYLINE
8
0
6
CONTINUOUS
66
1
62
250
10
0.0
20
0.0
30
0.000000
0
VERTEX
8
0
10
185.000000
20
997.000000
42
-0.081845
0
VERTEX
8
0
10
189.000000
20
1007.000000
0
SEQEND
0
POLYLINE
8
0
6
CONTINUOUS
66
1
62
250
10
0.0
20
0.0
30
0.000000
0
VERTEX
8
0
10
1121.000000
20
997.000000
0
VERTEX
8
0
10
1117.000000
20
1007.000000
0
SEQEND
0
POLYLINE
8
0
6
CONTINUOUS
66
1
62
250
10
0.0
20
0.0
30
0.000000
0
VERTEX
8
0
10
175.000000
20
974.000000
42
-0.114006
0
VERTEX
8
0
10
179.000000
20
984.000000
0
SEQEND
0
POLYLINE
8
0
6
CONTINUOUS
66
1
62
250
10
0.0
20
0.0
30
0.000000
0
VERTEX
8
0
10
1131.000000
20
974.000000
0
VERTEX
8
0
10
1127.000000
20
984.000000
0
SEQEND
0
POLYLINE
8
0
6
CONTINUOUS
66
1
62
250
10
0.0
20
0.0
30
0.000000
0
VERTEX
8
0
10
164.000000
20
954.000000
0
VERTEX
8
0
10
168.000000
20
962.000000
0
SEQEND
0
POLYLINE
8
0
6
CONTINUOUS
66
1
62
250
10
0.0
20
0.0
30
0.000000
0
VERTEX
8
0
10
1141.000000
20
954.000000
0
VERTEX
8
0
10
1137.000000
20
962.000000
0
SEQEND
0
POLYLINE
8
0
6
CONTINUOUS
66
1
62
197
10
0.0
20
0.0
30
0.000000
0
VERTEX
8
0
10
161.000000
20
953.000000
0
VERTEX
8
0
10
163.000000
20
953.000000
0
VERTEX
8
0
10
164.000000
20
954.000000
0
VERTEX
8
0
10
169.000000
20
953.000000
0
SEQEND
0
POLYLINE
8
0
6
CONTINUOUS
66
1
62
251
10
0.0
20
0.0
30
0.000000
0
VERTEX
8
0
10
182.000000
20
953.000000
0
VERTEX
8
0
10
194.000000
20
953.000000
0
SEQEND
0
POLYLINE
8
0
6
CONTINUOUS
66
1
62
251
10
0.0
20
0.0
30
0.000000
0
VERTEX
8
0
10
207.000000
20
953.000000
0
VERTEX
8
0
10
219.000000
20
953.000000
0
SEQEND
0
POLYLINE
8
0
6
CONTINUOUS
66
1
62
251
10
0.0
20
0.0
30
0.000000
0
VERTEX
8
0
10
232.000000
20
953.000000
0
VERTEX
8
0
10
244.000000
20
953.000000
0
SEQEND
0
POLYLINE
8
0
6
CONTINUOUS
66
1
62
251
10
0.0
20
0.0
30
0.000000
0
VERTEX
8
0
10
257.000000
20
953.000000
0
VERTEX
8
0
10
269.000000
20
953.000000
0
SEQEND
0
POLYLINE
8
0
6
CONTINUOUS
66
1
62
251
10
0.0
20
0.0
30
0.000000
0
VERTEX
8
0
10
282.000000
20
953.000000
0
VERTEX
8
0
10
294.000000
20
953.000000
0
SEQEND
0
POLYLINE
8
0
6
CONTINUOUS
66
1
62
251
10
0.0
20
0.0
30
0.000000
0
VERTEX
8
0
10
307.000000
20
953.000000
0
VERTEX
8
0
10
319.000000
20
953.000000
0
SEQEND
0
POLYLINE
8
0
6
CONTINUOUS
66
1
62
251
10
0.0
20
0.0
30
0.000000
0
VERTEX
8
0
10
332.000000
20
953.000000
0
VERTEX
8
0
10
344.000000
20
953.000000
0
SEQEND
0
POLYLINE
8
0
6
CONTINUOUS
66
1
62
251
10
0.0
20
0.0
30
0.000000
0
VERTEX
8
0
10
357.000000
20
953.000000
0
VERTEX
8
0
10
369.000000
20
953.000000
0
SEQEND
0
POLYLINE
8
0
6
CONTINUOUS
66
1
62
251
10
0.0
20
0.0
30
0.000000
0
VERTEX
8
0
10
382.000000
20
953.000000
0
VERTEX
8
0
10
394.000000
20
953.000000
0
SEQEND
0
POLYLINE
8
0
6
CONTINUOUS
66
1
62
251
10
0.0
20
0.0
30
0.000000
0
VERTEX
8
0
10
407.000000
20
953.000000
0
VERTEX
8
0
10
419.000000
20
953.000000
0
SEQEND
0
POLYLINE
8
0
6
CONTINUOUS
66
1
62
251
10
0.0
20
0.0
30
0.000000
0
VERTEX
8
0
10
432.000000
20
953.000000
0
VERTEX
8
0
10
444.000000
20
953.000000
0
SEQEND
0
POLYLINE
8
0
6
CONTINUOUS
66
1
62
251
10
0.0
20
0.0
30
0.000000
0
VERTEX
8
0
10
457.000000
20
953.000000
0
VERTEX
8
0
10
469.000000
20
953.000000
0
SEQEND
0
POLYLINE
8
0
6
CONTINUOUS
66
1
62
251
10
0.0
20
0.0
30
0.000000
0
VERTEX
8
0
10
482.000000
20
953.000000
0
VERTEX
8
0
10
494.000000
20
953.000000
0
SEQEND
0
POLYLINE
8
0
6
CONTINUOUS
66
1
62
251
10
0.0
20
0.0
30
0.000000
0
VERTEX
8
0
10
507.000000
20
953.000000
0
VERTEX
8
0
10
519.000000
20
953.000000
0
SEQEND
0
POLYLINE
8
0
6
CONTINUOUS
66
1
62
251
10
0.0
20
0.0
30
0.000000
0
VERTEX
8
0
10
532.000000
20
953.000000
0
VERTEX
8
0
10
544.000000
20
953.000000
0
SEQEND
0
POLYLINE
8
0
6
CONTINUOUS
66
1
62
251
10
0.0
20
0.0
30
0.000000
0
VERTEX
8
0
10
557.000000
20
953.000000
0
VERTEX
8
0
10
569.000000
20
953.000000
0
SEQEND
0
POLYLINE
8
0
6
CONTINUOUS
66
1
62
251
10
0.0
20
0.0
30
0.000000
0
VERTEX
8
0
10
582.000000
20
953.000000
0
VERTEX
8
0
10
594.000000
20
953.000000
0
SEQEND
0
POLYLINE
8
0
6
CONTINUOUS
66
1
62
251
10
0.0
20
0.0
30
0.000000
0
VERTEX
8
0
10
607.000000
20
953.000000
0
VERTEX
8
0
10
619.000000
20
953.000000
0
SEQEND
0
POLYLINE
8
0
6
CONTINUOUS
66
1
62
252
10
0.0
20
0.0
30
0.000000
0
VERTEX
8
0
10
632.000000
20
953.000000
0
VERTEX
8
0
10
643.000000
20
953.000000
0
VERTEX
8
0
10
644.000000
20
954.000000
0
SEQEND
0
POLYLINE
8
0
6
CONTINUOUS
66
1
62
252
10
0.0
20
0.0
30
0.000000
0
VERTEX
8
0
10
657.000000
20
953.000000
0
VERTEX
8
0
10
668.000000
20
953.000000
0
VERTEX
8
0
10
669.000000
20
954.000000
0
SEQEND
0
POLYLINE
8
0
6
CONTINUOUS
66
1
62
252
10
0.0
20
0.0
30
0.000000
0
VERTEX
8
0
10
682.000000
20
953.000000
0
VERTEX
8
0
10
693.000000
20
953.000000
0
VERTEX
8
0
10
694.000000
20
954.000000
0
SEQEND
0
POLYLINE
8
0
6
CONTINUOUS
66
1
62
252
10
0.0
20
0.0
30
0.000000
0
VERTEX
8
0
10
707.000000
20
953.000000
0
VERTEX
8
0
10
718.000000
20
953.000000
0
VERTEX
8
0
10
719.000000
20
954.000000
0
SEQEND
0
POLYLINE
8
0
6
CONTINUOUS
66
1
62
252
10
0.0
20
0.0
30
0.000000
0
VERTEX
8
0
10
732.000000
20
953.000000
0
VERTEX
8
0
10
743.000000
20
953.000000
0
VERTEX
8
0
10
744.000000
20
954.000000
0
SEQEND
0
POLYLINE
8
0
6
CONTINUOUS
66
1
62
252
10
0.0
20
0.0
30
0.000000
0
VERTEX
8
0
10
757.000000
20
953.000000
0
VERTEX
8
0
10
768.000000
20
953.000000
0
VERTEX
8
0
10
769.000000
20
954.000000
0
SEQEND
0
POLYLINE
8
0
6
CONTINUOUS
66
1
62
252
10
0.0
20
0.0
30
0.000000
0
VERTEX
8
0
10
782.000000
20
953.000000
0
VERTEX
8
0
10
793.000000
20
953.000000
0
VERTEX
8
0
10
794.000000
20
954.000000
0
SEQEND
0
POLYLINE
8
0
6
CONTINUOUS
66
1
62
252
10
0.0
20
0.0
30
0.000000
0
VERTEX
8
0
10
807.000000
20
953.000000
0
VERTEX
8
0
10
818.000000
20
953.000000
0
VERTEX
8
0
10
819.000000
20
954.000000
0
SEQEND
0
POLYLINE
8
0
6
CONTINUOUS
66
1
62
252
10
0.0
20
0.0
30
0.000000
0
VERTEX
8
0
10
832.000000
20
953.000000
0
VERTEX
8
0
10
843.000000
20
953.000000
0
VERTEX
8
0
10
844.000000
20
954.000000
0
SEQEND
0
POLYLINE
8
0
6
CONTINUOUS
66
1
62
252
10
0.0
20
0.0
30
0.000000
0
VERTEX
8
0
10
857.000000
20
953.000000
0
VERTEX
8
0
10
868.000000
20
953.000000
0
VERTEX
8
0
10
869.000000
20
954.000000
0
SEQEND
0
POLYLINE
8
0
6
CONTINUOUS
66
1
62
252
10
0.0
20
0.0
30
0.000000
0
VERTEX
8
0
10
882.000000
20
953.000000
0
VERTEX
8
0
10
893.000000
20
953.000000
0
VERTEX
8
0
10
894.000000
20
954.000000
0
SEQEND
0
POLYLINE
8
0
6
CONTINUOUS
66
1
62
252
10
0.0
20
0.0
30
0.000000
0
VERTEX
8
0
10
907.000000
20
953.000000
0
VERTEX
8
0
10
918.000000
20
953.000000
0
VERTEX
8
0
10
919.000000
20
954.000000
0
SEQEND
0
POLYLINE
8
0
6
CONTINUOUS
66
1
62
252
10
0.0
20
0.0
30
0.000000
0
VERTEX
8
0
10
932.000000
20
953.000000
0
VERTEX
8
0
10
943.000000
20
953.000000
0
VERTEX
8
0
10
944.000000
20
954.000000
0
SEQEND
0
POLYLINE
8
0
6
CONTINUOUS
66
1
62
252
10
0.0
20
0.0
30
0.000000
0
VERTEX
8
0
10
957.000000
20
953.000000
0
VERTEX
8
0
10
968.000000
20
953.000000
0
VERTEX
8
0
10
969.000000
20
954.000000
0
SEQEND
0
POLYLINE
8
0
6
CONTINUOUS
66
1
62
252
10
0.0
20
0.0
30
0.000000
0
VERTEX
8
0
10
982.000000
20
953.000000
0
VERTEX
8
0
10
993.000000
20
953.000000
0
VERTEX
8
0
10
994.000000
20
954.000000
0
SEQEND
0
POLYLINE
8
0
6
CONTINUOUS
66
1
62
252
10
0.0
20
0.0
30
0.000000
0
VERTEX
8
0
10
1007.000000
20
953.000000
0
VERTEX
8
0
10
1018.000000
20
953.000000
0
VERTEX
8
0
10
1019.000000
20
954.000000
0
SEQEND
0
POLYLINE
8
0
6
CONTINUOUS
66
1
62
252
10
0.0
20
0.0
30
0.000000
0
VERTEX
8
0
10
1032.000000
20
953.000000
0
VERTEX
8
0
10
1043.000000
20
953.000000
0
VERTEX
8
0
10
1044.000000
20
954.000000
0
SEQEND
0
POLYLINE
8
0
6
CONTINUOUS
66
1
62
252
10
0.0
20
0.0
30
0.000000
0
VERTEX
8
0
10
1057.000000
20
953.000000
0
VERTEX
8
0
10
1068.000000
20
953.000000
0
VERTEX
8
0
10
1069.000000
20
954.000000
0
SEQEND
0
POLYLINE
8
0
6
CONTINUOUS
66
1
62
252
10
0.0
20
0.0
30
0.000000
0
VERTEX
8
0
10
1082.000000
20
953.000000
0
VERTEX
8
0
10
1093.000000
20
953.000000
0
VERTEX
8
0
10
1094.000000
20
954.000000
0
SEQEND
0
POLYLINE
8
0
6
CONTINUOUS
66
1
62
252
10
0.0
20
0.0
30
0.000000
0
VERTEX
8
0
10
1107.000000
20
953.000000
0
VERTEX
8
0
10
1118.000000
20
953.000000
0
VERTEX
8
0
10
1119.000000
20
954.000000
0
SEQEND
0
POLYLINE
8
0
6
CONTINUOUS
66
1
62
251
10
0.0
20
0.0
30
0.000000
0
VERTEX
8
0
10
1132.000000
20
953.000000
42
0.083987
0
VERTEX
8
0
10
1141.000000
20
954.000000
0
VERTEX
8
0
10
1142.000000
20
953.000000
0
VERTEX
8
0
10
1144.000000
20
953.000000
0
SEQEND
0
POLYLINE
8
0
6
CONTINUOUS
66
1
62
250
10
0.0
20
0.0
30
0.000000
0
VERTEX
8
0
10
167.000000
20
943.000000
0
VERTEX
8
0
10
164.300000
20
947.100000
42
0.476540
0
VERTEX
8
0
10
161.000000
20
951.000000
0
VERTEX
8
0
10
161.000000
20
953.000000
0
VERTEX
8
0
10
148.230769
20
976.153846
0
VERTEX
8
0
10
130.200000
20
1013.100000
0
VERTEX
8
0
10
120.300000
20
1035.100000
0
VERTEX
8
0
10
98.700000
20
1091.900000
0
VERTEX
8
0
10
85.647059
20
1134.911765
0
VERTEX
8
0
10
74.384615
20
1182.076923
0
VERTEX
8
0
10
70.594595
20
1201.932432
0
VERTEX
8
0
10
64.445545
20
1245.044554
0
VERTEX
8
0
10
63.554455
20
1253.955446
0
VERTEX
8
0
10
61.000000
20
1284.000000
0
VERTEX
8
0
10
61.000000
20
1311.000000
42
0.558948
0
VERTEX
8
0
10
96.769231
20
1366.846154
0
VERTEX
8
0
10
95.230769
20
1369.153846
0
VERTEX
8
0
10
86.000000
20
1379.000000
0
VERTEX
8
0
10
85.153846
20
1379.230769
42
0.122500
0
VERTEX
8
0
10
63.000000
20
1386.000000
0
VERTEX
8
0
10
61.000000
20
1388.000000
0
VERTEX
8
0
10
61.000000
20
1406.000000
0
VERTEX
8
0
10
62.458824
20
1418.964706
0
VERTEX
8
0
10
63.439024
20
1427.951220
0
VERTEX
8
0
10
69.615385
20
1468.076923
0
VERTEX
8
0
10
73.352941
20
1485.911765
0
VERTEX
8
0
10
85.700000
20
1535.100000
0
VERTEX
8
0
10
99.352941
20
1579.911765
0
VERTEX
8
0
10
123.300000
20
1646.900000
0
VERTEX
8
0
10
129.300000
20
1661.900000
0
VERTEX
8
0
10
156.200000
20
1725.900000
0
VERTEX
8
0
10
156.800000
20
1727.100000
0
VERTEX
8
0
10
162.000000
20
1736.000000
0
VERTEX
8
0
10
163.000000
20
1737.000000
0
VERTEX
8
0
10
164.000000
20
1738.000000
0
VERTEX
8
0
10
165.000000
20
1739.000000
0
VERTEX
8
0
10
1144.000000
20
1739.000000
0
VERTEX
8
0
10
1147.000000
20
1736.000000
0
VERTEX
8
0
10
1148.700000
20
1731.900000
0
VERTEX
8
0
10
1150.200000
20
1728.100000
0
VERTEX
8
0
10
1179.200000
20
1654.100000
0
VERTEX
8
0
10
1184.200000
20
1640.100000
0
VERTEX
8
0
10
1205.352941
20
1576.088235
0
VERTEX
8
0
10
1218.352941
20
1531.088235
0
VERTEX
8
0
10
1230.615385
20
1479.923077
0
VERTEX
8
0
10
1235.405405
20
1454.067568
0
VERTEX
8
0
10
1239.549180
20
1423.959016
0
VERTEX
8
0
10
1242.000000
20
1396.000000
0
VERTEX
8
0
10
1242.000000
20
1389.000000
0
VERTEX
8
0
10
1238.940000
20
1386.420000
0
VERTEX
8
0
10
1233.060000
20
1385.580000
42
0.230610
0
VERTEX
8
0
10
1206.200000
20
1368.900000
42
0.355621
0
VERTEX
8
0
10
1216.000000
20
1318.000000
0
VERTEX
8
0
10
1218.100000
20
1317.200000
0
VERTEX
8
0
10
1230.900000
20
1311.700000
0
VERTEX
8
0
10
1235.923077
20
1310.615385
42
-0.167610
0
VERTEX
8
0
10
1241.000000
20
1308.000000
0
VERTEX
8
0
10
1241.000000
20
1294.000000
0
VERTEX
8
0
10
1236.560976
20
1245.048780
0
VERTEX
8
0
10
1230.594595
20
1203.067568
0
VERTEX
8
0
10
1226.615385
20
1181.076923
0
VERTEX
8
0
10
1215.352941
20
1131.911765
0
VERTEX
8
0
10
1214.647059
20
1129.088235
0
VERTEX
8
0
10
1200.700000
20
1082.100000
0
VERTEX
8
0
10
1184.800000
20
1039.100000
0
VERTEX
8
0
10
1175.200000
20
1015.900000
0
VERTEX
8
0
10
1153.800000
20
972.100000
0
VERTEX
8
0
10
1144.000000
20
953.000000
0
VERTEX
8
0
10
1144.000000
20
952.000000
0
VERTEX
8
0
10
1139.000000
20
943.000000
0
SEQEND
0
POLYLINE
8
0
6
CONTINUOUS
66
1
62
250
10
0.0
20
0.0
30
0.000000
0
VERTEX
8
0
10
175.000000
20
920.000000
0
VERTEX
8
0
10
172.000000
20
930.000000
0
SEQEND
0
POLYLINE
8
0
6
CONTINUOUS
66
1
62
250
10
0.0
20
0.0
30
0.000000
0
VERTEX
8
0
10
1130.000000
20
919.000000
42
-0.064772
0
VERTEX
8
0
10
1134.000000
20
930.000000
0
SEQEND
0
POLYLINE
8
0
6
CONTINUOUS
66
1
62
250
10
0.0
20
0.0
30
0.000000
0
VERTEX
8
0
10
185.000000
20
896.000000
0
VERTEX
8
0
10
181.000000
20
906.000000
0
SEQEND
0
POLYLINE
8
0
6
CONTINUOUS
66
1
62
250
10
0.0
20
0.0
30
0.000000
0
VERTEX
8
0
10
1121.000000
20
896.000000
0
VERTEX
8
0
10
1124.000000
20
906.000000
0
SEQEND
0
POLYLINE
8
0
6
CONTINUOUS
66
1
62
250
10
0.0
20
0.0
30
0.000000
0
VERTEX
8
0
10
192.000000
20
873.000000
42
0.098611
0
VERTEX
8
0
10
189.000000
20
883.000000
0
SEQEND
0
POLYLINE
8
0
6
CONTINUOUS
66
1
62
250
10
0.0
20
0.0
30
0.000000
0
VERTEX
8
0
10
1113.000000
20
872.000000
0
VERTEX
8
0
10
1116.000000
20
883.000000
0
SEQEND
0
POLYLINE
8
0
6
CONTINUOUS
66
1
62
247
10
0.0
20
0.0
30
0.000000
0
VERTEX
8
0
10
1105.000000
20
850.000000
0
VERTEX
8
0
10
1109.000000
20
860.000000
0
SEQEND
0
POLYLINE
8
0
6
CONTINUOUS
66
1
62
250
10
0.0
20
0.0
30
0.000000
0
VERTEX
8
0
10
201.000000
20
849.000000
0
VERTEX
8
0
10
199.700000
20
851.900000
42
0.079845
0
VERTEX
8
0
10
196.000000
20
860.000000
0
SEQEND
0
POLYLINE
8
0
6
CONTINUOUS
66
1
62
250
10
0.0
20
0.0
30
0.000000
0
VERTEX
8
0
10
208.000000
20
825.000000
0
VERTEX
8
0
10
205.000000
20
835.000000
0
SEQEND
0
POLYLINE
8
0
6
CONTINUOUS
66
1
62
250
10
0.0
20
0.0
30
0.000000
0
VERTEX
8
0
10
1098.000000
20
825.000000
0
VERTEX
8
0
10
1101.000000
20
835.000000
0
SEQEND
0
POLYLINE
8
0
6
CONTINUOUS
66
1
62
250
10
0.0
20
0.0
30
0.000000
0
VERTEX
8
0
10
215.000000
20
801.000000
42
-0.144513
0
VERTEX
8
0
10
212.000000
20
811.000000
0
SEQEND
0
POLYLINE
8
0
6
CONTINUOUS
66
1
62
250
10
0.0
20
0.0
30
0.000000
0
VERTEX
8
0
10
1091.000000
20
801.000000
0
VERTEX
8
0
10
1094.000000
20
811.000000
0
SEQEND
0
POLYLINE
8
0
6
CONTINUOUS
66
1
62
250
10
0.0
20
0.0
30
0.000000
0
VERTEX
8
0
10
220.000000
20
777.000000
0
VERTEX
8
0
10
218.000000
20
787.000000
0
SEQEND
0
POLYLINE
8
0
6
CONTINUOUS
66
1
62
250
10
0.0
20
0.0
30
0.000000
0
VERTEX
8
0
10
1085.000000
20
777.000000
0
VERTEX
8
0
10
1088.000000
20
787.000000
0
SEQEND
0
POLYLINE
8
0
6
CONTINUOUS
66
1
62
250
10
0.0
20
0.0
30
0.000000
0
VERTEX
8
0
10
226.000000
20
752.000000
0
VERTEX
8
0
10
224.000000
20
762.000000
0
SEQEND
0
POLYLINE
8
0
6
CONTINUOUS
66
1
62
250
10
0.0
20
0.0
30
0.000000
0
VERTEX
8
0
10
1080.000000
20
752.000000
0
VERTEX
8
0
10
1082.000000
20
762.000000
0
SEQEND
0
POLYLINE
8
0
6
CONTINUOUS
66
1
62
250
10
0.0
20
0.0
30
0.000000
0
VERTEX
8
0
10
231.000000
20
727.000000
0
VERTEX
8
0
10
229.000000
20
738.000000
0
SEQEND
0
POLYLINE
8
0
6
CONTINUOUS
66
1
62
250
10
0.0
20
0.0
30
0.000000
0
VERTEX
8
0
10
1075.000000
20
727.000000
0
VERTEX
8
0
10
1077.000000
20
738.000000
0
SEQEND
0
POLYLINE
8
0
6
CONTINUOUS
66
1
62
197
10
0.0
20
0.0
30
0.000000
0
VERTEX
8
0
10
235.000000
20
703.000000
42
0.097790
0
VERTEX
8
0
10
233.000000
20
713.000000
0
SEQEND
0
POLYLINE
8
0
6
CONTINUOUS
66
1
62
250
10
0.0
20
0.0
30
0.000000
0
VERTEX
8
0
10
1071.000000
20
703.000000
0
VERTEX
8
0
10
1072.000000
20
713.000000
0
SEQEND
0
POLYLINE
8
0
6
CONTINUOUS
66
1
62
237
10
0.0
20
0.0
30
0.000000
0
VERTEX
8
0
10
239.000000
20
678.000000
0
VERTEX
8
0
10
237.000000
20
689.000000
0
SEQEND
0
POLYLINE
8
0
6
CONTINUOUS
66
1
62
250
10
0.0
20
0.0
30
0.000000
0
VERTEX
8
0
10
1067.000000
20
678.000000
0
VERTEX
8
0
10
1068.000000
20
689.000000
0
SEQEND
0
POLYLINE
8
0
6
CONTINUOUS
66
1
62
250
10
0.0
20
0.0
30
0.000000
0
VERTEX
8
0
10
242.000000
20
653.000000
0
VERTEX
8
0
10
241.000000
20
664.000000
0
SEQEND
0
POLYLINE
8
0
6
CONTINUOUS
66
1
62
250
10
0.0
20
0.0
30
0.000000
0
VERTEX
8
0
10
1064.000000
20
653.000000
0
VERTEX
8
0
10
1065.000000
20
664.000000
0
SEQEND
0
POLYLINE
8
0
6
CONTINUOUS
66
1
62
27
10
0.0
20
0.0
30
0.000000
0
VERTEX
8
0
10
244.000000
20
628.000000
0
VERTEX
8
0
10
245.000000
20
629.000000
0
VERTEX
8
0
10
244.439024
20
631.048780
0
VERTEX
8
0
10
244.000000
20
639.000000
0
SEQEND
0
POLYLINE
8
0
6
CONTINUOUS
66
1
62
250
10
0.0
20
0.0
30
0.000000
0
VERTEX
8
0
10
1061.000000
20
628.000000
0
VERTEX
8
0
10
1062.000000
20
639.000000
0
SEQEND
0
POLYLINE
8
0
6
CONTINUOUS
66
1
62
247
10
0.0
20
0.0
30
0.000000
0
VERTEX
8
0
10
246.000000
20
603.000000
0
VERTEX
8
0
10
247.000000
20
604.000000
0
VERTEX
8
0
10
246.439024
20
606.048780
0
VERTEX
8
0
10
246.000000
20
614.000000
0
SEQEND
0
POLYLINE
8
0
6
CONTINUOUS
66
1
62
250
10
0.0
20
0.0
30
0.000000
0
VERTEX
8
0
10
1059.000000
20
603.000000
0
VERTEX
8
0
10
1060.000000
20
614.000000
0
SEQEND
0
POLYLINE
8
0
6
CONTINUOUS
66
1
62
251
10
0.0
20
0.0
30
0.000000
0
VERTEX
8
0
10
248.000000
20
578.000000
0
VERTEX
8
0
10
248.000000
20
588.000000
0
VERTEX
8
0
10
247.000000
20
589.000000
0
SEQEND
0
POLYLINE
8
0
6
CONTINUOUS
66
1
62
250
10
0.0
20
0.0
30
0.000000
0
VERTEX
8
0
10
1058.000000
20
578.000000
0
VERTEX
8
0
10
1058.000000
20
589.000000
0
SEQEND
0
POLYLINE
8
0
6
CONTINUOUS
66
1
62
251
10
0.0
20
0.0
30
0.000000
0
VERTEX
8
0
10
248.000000
20
553.000000
0
VERTEX
8
0
10
249.000000
20
554.000000
0
VERTEX
8
0
10
248.405405
20
559.067568
0
VERTEX
8
0
10
248.000000
20
564.000000
0
SEQEND
0
POLYLINE
8
0
6
CONTINUOUS
66
1
62
250
10
0.0
20
0.0
30
0.000000
0
VERTEX
8
0
10
1057.000000
20
553.000000
0
VERTEX
8
0
10
1057.000000
20
564.000000
0
SEQEND
0
POLYLINE
8
0
6
CONTINUOUS
66
1
62
252
10
0.0
20
0.0
30
0.000000
0
VERTEX
8
0
10
248.000000
20
528.000000
0
VERTEX
8
0
10
249.000000
20
529.000000
0
VERTEX
8
0
10
249.000000
20
539.000000
0
SEQEND
0
POLYLINE
8
0
6
CONTINUOUS
66
1
62
250
10
0.0
20
0.0
30
0.000000
0
VERTEX
8
0
10
1057.000000
20
528.000000
0
VERTEX
8
0
10
1057.000000
20
539.000000
0
SEQEND
0
POLYLINE
8
0
6
CONTINUOUS
66
1
62
250
10
0.0
20
0.0
30
0.000000
0
VERTEX
8
0
10
248.000000
20
503.000000
0
VERTEX
8
0
10
248.000000
20
514.000000
0
VERTEX
8
0
10
249.000000
20
515.000000
0
SEQEND
0
POLYLINE
8
0
6
CONTINUOUS
66
1
62
251
10
0.0
20
0.0
30
0.000000
0
VERTEX
8
0
10
1058.000000
20
503.000000
0
VERTEX
8
0
10
1058.000000
20
513.000000
0
VERTEX
8
0
10
1056.000000
20
515.000000
0
SEQEND
0
POLYLINE
8
0
6
CONTINUOUS
66
1
62
237
10
0.0
20
0.0
30
0.000000
0
VERTEX
8
0
10
246.000000
20
478.000000
0
VERTEX
8
0
10
247.000000
20
479.000000
0
VERTEX
8
0
10
247.000000
20
489.000000
0
SEQEND
0
POLYLINE
8
0
6
CONTINUOUS
66
1
62
27
10
0.0
20
0.0
30
0.000000
0
VERTEX
8
0
10
1059.000000
20
478.000000
0
VERTEX
8
0
10
1059.000000
20
489.000000
0
SEQEND
0
POLYLINE
8
0
6
CONTINUOUS
66
1
62
250
10
0.0
20
0.0
30
0.000000
0
VERTEX
8
0
10
244.000000
20
454.000000
0
VERTEX
8
0
10
245.000000
20
455.000000
0
VERTEX
8
0
10
245.000000
20
464.000000
0
SEQEND
0
POLYLINE
8
0
6
CONTINUOUS
66
1
62
250
10
0.0
20
0.0
30
0.000000
0
VERTEX
8
0
10
1061.000000
20
453.000000
42
0.091428
0
VERTEX
8
0
10
1060.000000
20
464.000000
0
SEQEND
0
POLYLINE
8
0
6
CONTINUOUS
66
1
62
250
10
0.0
20
0.0
30
0.000000
0
VERTEX
8
0
10
242.000000
20
429.000000
0
VERTEX
8
0
10
243.000000
20
439.000000
0
SEQEND
0
POLYLINE
8
0
6
CONTINUOUS
66
1
62
250
10
0.0
20
0.0
30
0.000000
0
VERTEX
8
0
10
1064.000000
20
429.000000
0
VERTEX
8
0
10
1063.000000
20
439.000000
0
SEQEND
0
POLYLINE
8
0
6
CONTINUOUS
66
1
62
250
10
0.0
20
0.0
30
0.000000
0
VERTEX
8
0
10
238.000000
20
405.000000
0
VERTEX
8
0
10
240.000000
20
415.000000
0
SEQEND
0
POLYLINE
8
0
6
CONTINUOUS
66
1
62
250
10
0.0
20
0.0
30
0.000000
0
VERTEX
8
0
10
1067.000000
20
404.000000
0
VERTEX
8
0
10
1066.000000
20
415.000000
0
SEQEND
0
POLYLINE
8
0
6
CONTINUOUS
66
1
62
250
10
0.0
20
0.0
30
0.000000
0
VERTEX
8
0
10
234.000000
20
380.000000
42
0.063906
0
VERTEX
8
0
10
236.000000
20
390.000000
0
SEQEND
0
POLYLINE
8
0
6
CONTINUOUS
66
1
62
250
10
0.0
20
0.0
30
0.000000
0
VERTEX
8
0
10
1072.000000
20
379.000000
42
-0.078284
0
VERTEX
8
0
10
1070.000000
20
390.000000
0
SEQEND
0
POLYLINE
8
0
6
CONTINUOUS
66
1
62
250
10
0.0
20
0.0
30
0.000000
0
VERTEX
8
0
10
230.000000
20
355.000000
42
-0.097790
0
VERTEX
8
0
10
232.000000
20
365.000000
0
SEQEND
0
POLYLINE
8
0
6
CONTINUOUS
66
1
62
250
10
0.0
20
0.0
30
0.000000
0
VERTEX
8
0
10
1076.000000
20
355.000000
0
VERTEX
8
0
10
1074.000000
20
365.000000
0
SEQEND
0
POLYLINE
8
0
6
CONTINUOUS
66
1
62
250
10
0.0
20
0.0
30
0.000000
0
VERTEX
8
0
10
224.000000
20
330.000000
0
VERTEX
8
0
10
226.000000
20
341.000000
0
SEQEND
0
POLYLINE
8
0
6
CONTINUOUS
66
1
62
27
10
0.0
20
0.0
30
0.000000
0
VERTEX
8
0
10
1082.000000
20
330.000000
0
VERTEX
8
0
10
1079.000000
20
341.000000
0
SEQEND
0
POLYLINE
8
0
6
CONTINUOUS
66
1
62
250
10
0.0
20
0.0
30
0.000000
0
VERTEX
8
0
10
218.000000
20
306.000000
0
VERTEX
8
0
10
220.000000
20
316.000000
0
SEQEND
0
POLYLINE
8
0
6
CONTINUOUS
66
1
62
250
10
0.0
20
0.0
30
0.000000
0
VERTEX
8
0
10
1088.000000
20
306.000000
0
VERTEX
8
0
10
1085.000000
20
317.000000
0
SEQEND
0
POLYLINE
8
0
6
CONTINUOUS
66
1
62
250
10
0.0
20
0.0
30
0.000000
0
VERTEX
8
0
10
211.000000
20
282.000000
0
VERTEX
8
0
10
214.000000
20
292.000000
0
SEQEND
0
POLYLINE
8
0
6
CONTINUOUS
66
1
62
250
10
0.0
20
0.0
30
0.000000
0
VERTEX
8
0
10
1095.000000
20
282.000000
0
VERTEX
8
0
10
1092.000000
20
292.000000
0
SEQEND
0
POLYLINE
8
0
6
CONTINUOUS
66
1
62
250
10
0.0
20
0.0
30
0.000000
0
VERTEX
8
0
10
204.000000
20
258.000000
42
-0.098611
0
VERTEX
8
0
10
207.000000
20
268.000000
0
SEQEND
0
POLYLINE
8
0
6
CONTINUOUS
66
1
62
250
10
0.0
20
0.0
30
0.000000
0
VERTEX
8
0
10
1102.000000
20
258.000000
0
VERTEX
8
0
10
1099.000000
20
268.000000
0
SEQEND
0
POLYLINE
8
0
6
CONTINUOUS
66
1
62
250
10
0.0
20
0.0
30
0.000000
0
VERTEX
8
0
10
1110.000000
20
235.000000
0
VERTEX
8
0
10
1107.000000
20
245.000000
0
SEQEND
0
POLYLINE
8
0
6
CONTINUOUS
66
1
62
250
10
0.0
20
0.0
30
0.000000
0
VERTEX
8
0
10
195.000000
20
234.000000
0
VERTEX
8
0
10
199.000000
20
245.000000
0
SEQEND
0
POLYLINE
8
0
6
CONTINUOUS
66
1
62
250
10
0.0
20
0.0
30
0.000000
0
VERTEX
8
0
10
186.000000
20
212.000000
0
VERTEX
8
0
10
190.000000
20
221.000000
0
SEQEND
0
POLYLINE
8
0
6
CONTINUOUS
66
1
62
250
10
0.0
20
0.0
30
0.000000
0
VERTEX
8
0
10
1120.000000
20
211.000000
0
VERTEX
8
0
10
1116.000000
20
221.000000
0
SEQEND
0
POLYLINE
8
0
6
CONTINUOUS
66
1
62
250
10
0.0
20
0.0
30
0.000000
0
VERTEX
8
0
10
176.000000
20
189.000000
42
0.078690
0
VERTEX
8
0
10
180.000000
20
198.000000
0
SEQEND
0
POLYLINE
8
0
6
CONTINUOUS
66
1
62
250
10
0.0
20
0.0
30
0.000000
0
VERTEX
8
0
10
1130.000000
20
188.000000
0
VERTEX
8
0
10
1126.700000
20
194.900000
42
0.089945
0
VERTEX
8
0
10
1125.000000
20
198.000000
0
SEQEND
0
POLYLINE
8
0
6
CONTINUOUS
66
1
62
250
10
0.0
20
0.0
30
0.000000
0
VERTEX
8
0
10
165.000000
20
167.000000
0
VERTEX
8
0
10
170.000000
20
175.000000
0
SEQEND
0
POLYLINE
8
0
6
CONTINUOUS
66
1
62
250
10
0.0
20
0.0
30
0.000000
0
VERTEX
8
0
10
1141.000000
20
166.000000
42
-0.093395
0
VERTEX
8
0
10
1136.000000
20
175.000000
0
SEQEND
0
POLYLINE
8
0
6
CONTINUOUS
66
1
62
250
10
0.0
20
0.0
30
0.000000
0
VERTEX
8
0
10
186.000000
20
159.000000
0
VERTEX
8
0
10
198.000000
20
159.000000
0
SEQEND
0
POLYLINE
8
0
6
CONTINUOUS
66
1
62
250
10
0.0
20
0.0
30
0.000000
0
VERTEX
8
0
10
211.000000
20
159.000000
0
VERTEX
8
0
10
223.000000
20
159.000000
0
SEQEND
0
POLYLINE
8
0
6
CONTINUOUS
66
1
62
250
10
0.0
20
0.0
30
0.000000
0
VERTEX
8
0
10
236.000000
20
159.000000
0
VERTEX
8
0
10
248.000000
20
159.000000
0
SEQEND
0
POLYLINE
8
0
6
CONTINUOUS
66
1
62
250
10
0.0
20
0.0
30
0.000000
0
VERTEX
8
0
10
261.000000
20
159.000000
0
VERTEX
8
0
10
273.000000
20
159.000000
0
SEQEND
0
POLYLINE
8
0
6
CONTINUOUS
66
1
62
250
10
0.0
20
0.0
30
0.000000
0
VERTEX
8
0
10
286.000000
20
159.000000
0
VERTEX
8
0
10
298.000000
20
159.000000
0
SEQEND
0
POLYLINE
8
0
6
CONTINUOUS
66
1
62
250
10
0.0
20
0.0
30
0.000000
0
VERTEX
8
0
10
311.000000
20
159.000000
0
VERTEX
8
0
10
323.000000
20
159.000000
0
SEQEND
0
POLYLINE
8
0
6
CONTINUOUS
66
1
62
250
10
0.0
20
0.0
30
0.000000
0
VERTEX
8
0
10
336.000000
20
159.000000
0
VERTEX
8
0
10
348.000000
20
159.000000
0
SEQEND
0
POLYLINE
8
0
6
CONTINUOUS
66
1
62
250
10
0.0
20
0.0
30
0.000000
0
VERTEX
8
0
10
361.000000
20
159.000000
0
VERTEX
8
0
10
373.000000
20
159.000000
0
SEQEND
0
POLYLINE
8
0
6
CONTINUOUS
66
1
62
250
10
0.0
20
0.0
30
0.000000
0
VERTEX
8
0
10
386.000000
20
159.000000
0
VERTEX
8
0
10
398.000000
20
159.000000
0
SEQEND
0
POLYLINE
8
0
6
CONTINUOUS
66
1
62
250
10
0.0
20
0.0
30
0.000000
0
VERTEX
8
0
10
411.000000
20
159.000000
0
VERTEX
8
0
10
423.000000
20
159.000000
0
SEQEND
0
POLYLINE
8
0
6
CONTINUOUS
66
1
62
250
10
0.0
20
0.0
30
0.000000
0
VERTEX
8
0
10
436.000000
20
159.000000
0
VERTEX
8
0
10
448.000000
20
159.000000
0
SEQEND
0
POLYLINE
8
0
6
CONTINUOUS
66
1
62
250
10
0.0
20
0.0
30
0.000000
0
VERTEX
8
0
10
461.000000
20
159.000000
0
VERTEX
8
0
10
473.000000
20
159.000000
0
SEQEND
0
POLYLINE
8
0
6
CONTINUOUS
66
1
62
250
10
0.0
20
0.0
30
0.000000
0
VERTEX
8
0
10
486.000000
20
159.000000
0
VERTEX
8
0
10
498.000000
20
159.000000
0
SEQEND
0
POLYLINE
8
0
6
CONTINUOUS
66
1
62
250
10
0.0
20
0.0
30
0.000000
0
VERTEX
8
0
10
511.000000
20
159.000000
0
VERTEX
8
0
10
523.000000
20
159.000000
0
SEQEND
0
POLYLINE
8
0
6
CONTINUOUS
66
1
62
250
10
0.0
20
0.0
30
0.000000
0
VERTEX
8
0
10
536.000000
20
159.000000
0
VERTEX
8
0
10
548.000000
20
159.000000
0
SEQEND
0
POLYLINE
8
0
6
CONTINUOUS
66
1
62
250
10
0.0
20
0.0
30
0.000000
0
VERTEX
8
0
10
561.000000
20
159.000000
0
VERTEX
8
0
10
573.000000
20
159.000000
0
SEQEND
0
POLYLINE
8
0
6
CONTINUOUS
66
1
62
250
10
0.0
20
0.0
30
0.000000
0
VERTEX
8
0
10
586.000000
20
159.000000
0
VERTEX
8
0
10
598.000000
20
159.000000
0
SEQEND
0
POLYLINE
8
0
6
CONTINUOUS
66
1
62
250
10
0.0
20
0.0
30
0.000000
0
VERTEX
8
0
10
611.000000
20
159.000000
0
VERTEX
8
0
10
623.000000
20
159.000000
0
SEQEND
0
POLYLINE
8
0
6
CONTINUOUS
66
1
62
250
10
0.0
20
0.0
30
0.000000
0
VERTEX
8
0
10
636.000000
20
159.000000
0
VERTEX
8
0
10
648.000000
20
159.000000
0
SEQEND
0
POLYLINE
8
0
6
CONTINUOUS
66
1
62
250
10
0.0
20
0.0
30
0.000000
0
VERTEX
8
0
10
661.000000
20
159.000000
0
VERTEX
8
0
10
673.000000
20
159.000000
0
SEQEND
0
POLYLINE
8
0
6
CONTINUOUS
66
1
62
250
10
0.0
20
0.0
30
0.000000
0
VERTEX
8
0
10
686.000000
20
159.000000
0
VERTEX
8
0
10
698.000000
20
159.000000
0
SEQEND
0
POLYLINE
8
0
6
CONTINUOUS
66
1
62
250
10
0.0
20
0.0
30
0.000000
0
VERTEX
8
0
10
711.000000
20
159.000000
0
VERTEX
8
0
10
723.000000
20
159.000000
0
SEQEND
0
POLYLINE
8
0
6
CONTINUOUS
66
1
62
250
10
0.0
20
0.0
30
0.000000
0
VERTEX
8
0
10
736.000000
20
159.000000
0
VERTEX
8
0
10
748.000000
20
159.000000
0
SEQEND
0
POLYLINE
8
0
6
CONTINUOUS
66
1
62
250
10
0.0
20
0.0
30
0.000000
0
VERTEX
8
0
10
761.000000
20
159.000000
0
VERTEX
8
0
10
773.000000
20
159.000000
0
SEQEND
0
POLYLINE
8
0
6
CONTINUOUS
66
1
62
250
10
0.0
20
0.0
30
0.000000
0
VERTEX
8
0
10
786.000000
20
159.000000
0
VERTEX
8
0
10
798.000000
20
159.000000
0
SEQEND
0
POLYLINE
8
0
6
CONTINUOUS
66
1
62
250
10
0.0
20
0.0
30
0.000000
0
VERTEX
8
0
10
811.000000
20
159.000000
0
VERTEX
8
0
10
823.000000
20
159.000000
0
SEQEND
0
POLYLINE
8
0
6
CONTINUOUS
66
1
62
250
10
0.0
20
0.0
30
0.000000
0
VERTEX
8
0
10
836.000000
20
159.000000
0
VERTEX
8
0
10
848.000000
20
159.000000
0
SEQEND
0
POLYLINE
8
0
6
CONTINUOUS
66
1
62
250
10
0.0
20
0.0
30
0.000000
0
VERTEX
8
0
10
861.000000
20
159.000000
0
VERTEX
8
0
10
873.000000
20
159.000000
0
SEQEND
0
POLYLINE
8
0
6
CONTINUOUS
66
1
62
250
10
0.0
20
0.0
30
0.000000
0
VERTEX
8
0
10
886.000000
20
159.000000
0
VERTEX
8
0
10
898.000000
20
159.000000
0
SEQEND
0
POLYLINE
8
0
6
CONTINUOUS
66
1
62
250
10
0.0
20
0.0
30
0.000000
0
VERTEX
8
0
10
911.000000
20
159.000000
0
VERTEX
8
0
10
923.000000
20
159.000000
0
SEQEND
0
POLYLINE
8
0
6
CONTINUOUS
66
1
62
250
10
0.0
20
0.0
30
0.000000
0
VERTEX
8
0
10
936.000000
20
159.000000
0
VERTEX
8
0
10
948.000000
20
159.000000
0
SEQEND
0
POLYLINE
8
0
6
CONTINUOUS
66
1
62
250
10
0.0
20
0.0
30
0.000000
0
VERTEX
8
0
10
961.000000
20
159.000000
0
VERTEX
8
0
10
973.000000
20
159.000000
0
SEQEND
0
POLYLINE
8
0
6
CONTINUOUS
66
1
62
250
10
0.0
20
0.0
30
0.000000
0
VERTEX
8
0
10
986.000000
20
159.000000
0
VERTEX
8
0
10
998.000000
20
159.000000
0
SEQEND
0
POLYLINE
8
0
6
CONTINUOUS
66
1
62
250
10
0.0
20
0.0
30
0.000000
0
VERTEX
8
0
10
1011.000000
20
159.000000
0
VERTEX
8
0
10
1023.000000
20
159.000000
0
SEQEND
0
POLYLINE
8
0
6
CONTINUOUS
66
1
62
250
10
0.0
20
0.0
30
0.000000
0
VERTEX
8
0
10
1036.000000
20
159.000000
0
VERTEX
8
0
10
1048.000000
20
159.000000
0
SEQEND
0
POLYLINE
8
0
6
CONTINUOUS
66
1
62
250
10
0.0
20
0.0
30
0.000000
0
VERTEX
8
0
10
1061.000000
20
159.000000
0
VERTEX
8
0
10
1073.000000
20
159.000000
0
SEQEND
0
POLYLINE
8
0
6
CONTINUOUS
66
1
62
250
10
0.0
20
0.0
30
0.000000
0
VERTEX
8
0
10
1086.000000
20
159.000000
0
VERTEX
8
0
10
1098.000000
20
159.000000
0
SEQEND
0
POLYLINE
8
0
6
CONTINUOUS
66
1
62
250
10
0.0
20
0.0
30
0.000000
0
VERTEX
8
0
10
1111.000000
20
159.000000
0
VERTEX
8
0
10
1123.000000
20
159.000000
0
SEQEND
0
POLYLINE
8
0
6
CONTINUOUS
66
1
62
250
10
0.0
20
0.0
30
0.000000
0
VERTEX
8
0
10
165.000000
20
157.000000
0
VERTEX
8
0
10
165.000000
20
158.000000
0
VERTEX
8
0
10
166.000000
20
159.000000
0
VERTEX
8
0
10
173.000000
20
159.000000
0
SEQEND
0
POLYLINE
8
0
6
CONTINUOUS
66
1
62
250
10
0.0
20
0.0
30
0.000000
0
VERTEX
8
0
10
1140.000000
20
157.000000
42
0.720759
0
VERTEX
8
0
10
1136.000000
20
159.000000
0
SEQEND
0
POLYLINE
8
0
6
CONTINUOUS
66
1
62
250
10
0.0
20
0.0
30
0.000000
0
VERTEX
8
0
10
161.000000
20
951.000000
0
VERTEX
8
0
10
157.200000
20
945.900000
0
VERTEX
8
0
10
135.300000
20
896.900000
0
VERTEX
8
0
10
133.300000
20
891.900000
0
VERTEX
8
0
10
111.300000
20
831.900000
0
VERTEX
8
0
10
104.700000
20
811.100000
0
VERTEX
8
0
10
90.647059
20
762.088235
0
VERTEX
8
0
10
84.647059
20
738.088235
42
0.063911
0
VERTEX
8
0
10
61.000000
20
511.000000
0
VERTEX
8
0
10
65.445545
20
459.044554
0
VERTEX
8
0
10
71.405405
20
416.067568
0
VERTEX
8
0
10
75.405405
20
394.067568
0
VERTEX
8
0
10
87.352941
20
342.088235
0
VERTEX
8
0
10
101.300000
20
295.100000
0
VERTEX
8
0
10
118.200000
20
249.100000
0
VERTEX
8
0
10
128.700000
20
223.900000
0
VERTEX
8
0
10
147.800000
20
182.900000
0
VERTEX
8
0
10
161.000000
20
159.000000
42
0.145376
0
VERTEX
8
0
10
165.000000
20
157.000000
0
VERTEX
8
0
10
166.000000
20
155.000000
42
-0.068668
0
VERTEX
8
0
10
179.000000
20
145.000000
0
VERTEX
8
0
10
185.430769
20
94.053846
42
0.255381
0
VERTEX
8
0
10
189.000000
20
85.000000
0
VERTEX
8
0
10
1118.000000
20
85.000000
42
0.290476
0
VERTEX
8
0
10
1121.430769
20
94.946154
0
VERTEX
8
0
10
1127.300000
20
145.900000
0
VERTEX
8
0
10
1129.100000
20
147.800000
0
VERTEX
8
0
10
1140.000000
20
156.000000
0
VERTEX
8
0
10
1140.000000
20
157.000000
42
0.195816
0
VERTEX
8
0
10
1148.000000
20
165.000000
0
VERTEX
8
0
10
1158.800000
20
183.100000
42
-0.118981
0
VERTEX
8
0
10
1161.000000
20
186.000000
0
VERTEX
8
0
10
1161.800000
20
188.100000
42
0.094968
0
VERTEX
8
0
10
1234.420000
20
424.940000
42
0.120052
0
VERTEX
8
0
10
1186.800000
20
859.900000
0
VERTEX
8
0
10
1177.200000
20
885.100000
0
VERTEX
8
0
10
1156.800000
20
929.900000
0
VERTEX
8
0
10
1156.200000
20
931.100000
0
VERTEX
8
0
10
1146.760000
20
948.820000
0
VERTEX
8
0
10
1144.000000
20
952.000000
0
SEQEND
0
ENDSEC
0
EOF
