0
SECTION
2
HEADER
9
$ACADVER
1
AC1003
9
$INSBASE
10
0.0
20
0.0
30
0.0
9
$EXTMIN
10
0.000
20
0.000
30
0.0
9
$EXTMAX
10
1824.000
20
1603.000
30
0.0
9
$LIMMIN
10
0.000
20
0.000
9
$LIMMAX
10
1824.000
20
1603.000
9
$LTSCALE
40
1.0
9
$LUNITS
70
2
9
$LUPREC
70
3
9
$LIMCHECK
70
0
9
$UCSNAME
2

9
$UCSORG
10
0.0
20
0.0
30
0.0
9
$UCSXDIR
10
1.0
20
0.0
30
0.0
9
$UCSYDIR
10
0.0
20
1.0
30
0.0
9
$WORLDVIEW
70
1
9
$UNITMODE
70
0
0
ENDSEC
0
SECTION
2
TABLES
0
TABLE
2
VPORT
70
1
0
VPORT
2
*ACTIVE
70
0
10
0.0
20
0.0
11
1.0
21
1.0
12
912.000
22
801.500
13
0.0
23
0.0
14
1.0
24
1.0
15
0.0
25
0.0
16
0.0
26
0.0
36
1.0
17
0.0
27
0.0
37
0.0
40
500.0
41
0.879
42
50.0
43
0.0
44
0.0
50
0.0
51
0.0
71
0
72
100
73
1
74
1
75
0
76
0
77
0
78
0
0
ENDTAB
0
TABLE
2
LTYPE
70
1
0
LTYPE
2
CONTINUOUS
70
64
3
Solid line
72
65
73
0
40
0.000
0
ENDTAB
0
TABLE
2
LAYER
70
1
0
LAYER
2
0
70
64
62
7
6
CONTINUOUS
0
ENDTAB
0
ENDSEC
0
SECTION
2
BLOCKS
0
ENDSEC
0
SECTION
2
ENTITIES
0
POLYLINE
8
0
6
CONTINUOUS
66
1
62
250
10
0.0
20
0.0
30
0.000000
0
VERTEX
8
0
10
100.000000
20
1340.000000
0
VERTEX
8
0
10
112.000000
20
1340.000000
0
SEQEND
0
POLYLINE
8
0
6
CONTINUOUS
66
1
62
250
10
0.0
20
0.0
30
0.000000
0
VERTEX
8
0
10
125.000000
20
1340.000000
0
VERTEX
8
0
10
137.000000
20
1340.000000
0
SEQEND
0
POLYLINE
8
0
6
CONTINUOUS
66
1
62
250
10
0.0
20
0.0
30
0.000000
0
VERTEX
8
0
10
150.000000
20
1340.000000
0
VERTEX
8
0
10
162.000000
20
1340.000000
0
SEQEND
0
POLYLINE
8
0
6
CONTINUOUS
66
1
62
250
10
0.0
20
0.0
30
0.000000
0
VERTEX
8
0
10
175.000000
20
1340.000000
0
VERTEX
8
0
10
187.000000
20
1340.000000
0
SEQEND
0
POLYLINE
8
0
6
CONTINUOUS
66
1
62
250
10
0.0
20
0.0
30
0.000000
0
VERTEX
8
0
10
200.000000
20
1340.000000
0
VERTEX
8
0
10
212.000000
20
1340.000000
0
SEQEND
0
POLYLINE
8
0
6
CONTINUOUS
66
1
62
250
10
0.0
20
0.0
30
0.000000
0
VERTEX
8
0
10
225.000000
20
1340.000000
0
VERTEX
8
0
10
237.000000
20
1340.000000
0
SEQEND
0
POLYLINE
8
0
6
CONTINUOUS
66
1
62
250
10
0.0
20
0.0
30
0.000000
0
VERTEX
8
0
10
250.000000
20
1340.000000
0
VERTEX
8
0
10
262.000000
20
1340.000000
0
SEQEND
0
POLYLINE
8
0
6
CONTINUOUS
66
1
62
250
10
0.0
20
0.0
30
0.000000
0
VERTEX
8
0
10
500.000000
20
1340.000000
0
VERTEX
8
0
10
512.000000
20
1340.000000
0
SEQEND
0
POLYLINE
8
0
6
CONTINUOUS
66
1
62
250
10
0.0
20
0.0
30
0.000000
0
VERTEX
8
0
10
525.000000
20
1340.000000
0
VERTEX
8
0
10
537.000000
20
1340.000000
0
SEQEND
0
POLYLINE
8
0
6
CONTINUOUS
66
1
62
250
10
0.0
20
0.0
30
0.000000
0
VERTEX
8
0
10
550.000000
20
1340.000000
0
VERTEX
8
0
10
562.000000
20
1340.000000
0
SEQEND
0
POLYLINE
8
0
6
CONTINUOUS
66
1
62
250
10
0.0
20
0.0
30
0.000000
0
VERTEX
8
0
10
575.000000
20
1340.000000
0
VERTEX
8
0
10
587.000000
20
1340.000000
0
SEQEND
0
POLYLINE
8
0
6
CONTINUOUS
66
1
62
250
10
0.0
20
0.0
30
0.000000
0
VERTEX
8
0
10
600.000000
20
1340.000000
0
VERTEX
8
0
10
612.000000
20
1340.000000
0
SEQEND
0
POLYLINE
8
0
6
CONTINUOUS
66
1
62
250
10
0.0
20
0.0
30
0.000000
0
VERTEX
8
0
10
625.000000
20
1340.000000
0
VERTEX
8
0
10
637.000000
20
1340.000000
0
SEQEND
0
POLYLINE
8
0
6
CONTINUOUS
66
1
62
250
10
0.0
20
0.0
30
0.000000
0
VERTEX
8
0
10
650.000000
20
1340.000000
0
VERTEX
8
0
10
662.000000
20
1340.000000
0
SEQEND
0
POLYLINE
8
0
6
CONTINUOUS
66
1
62
250
10
0.0
20
0.0
30
0.000000
0
VERTEX
8
0
10
674.000000
20
1340.000000
0
VERTEX
8
0
10
687.000000
20
1340.000000
0
SEQEND
0
POLYLINE
8
0
6
CONTINUOUS
66
1
62
250
10
0.0
20
0.0
30
0.000000
0
VERTEX
8
0
10
700.000000
20
1340.000000
0
VERTEX
8
0
10
712.000000
20
1340.000000
0
SEQEND
0
POLYLINE
8
0
6
CONTINUOUS
66
1
62
250
10
0.0
20
0.0
30
0.000000
0
VERTEX
8
0
10
725.000000
20
1340.000000
0
VERTEX
8
0
10
737.000000
20
1340.000000
0
SEQEND
0
POLYLINE
8
0
6
CONTINUOUS
66
1
62
250
10
0.0
20
0.0
30
0.000000
0
VERTEX
8
0
10
750.000000
20
1340.000000
0
VERTEX
8
0
10
762.000000
20
1340.000000
0
SEQEND
0
POLYLINE
8
0
6
CONTINUOUS
66
1
62
250
10
0.0
20
0.0
30
0.000000
0
VERTEX
8
0
10
775.000000
20
1340.000000
0
VERTEX
8
0
10
787.000000
20
1340.000000
0
SEQEND
0
POLYLINE
8
0
6
CONTINUOUS
66
1
62
250
10
0.0
20
0.0
30
0.000000
0
VERTEX
8
0
10
800.000000
20
1340.000000
0
VERTEX
8
0
10
812.000000
20
1340.000000
0
SEQEND
0
POLYLINE
8
0
6
CONTINUOUS
66
1
62
250
10
0.0
20
0.0
30
0.000000
0
VERTEX
8
0
10
825.000000
20
1340.000000
0
VERTEX
8
0
10
837.000000
20
1340.000000
0
SEQEND
0
POLYLINE
8
0
6
CONTINUOUS
66
1
62
250
10
0.0
20
0.0
30
0.000000
0
VERTEX
8
0
10
850.000000
20
1340.000000
0
VERTEX
8
0
10
862.000000
20
1340.000000
0
SEQEND
0
POLYLINE
8
0
6
CONTINUOUS
66
1
62
250
10
0.0
20
0.0
30
0.000000
0
VERTEX
8
0
10
878.000000
20
1340.000000
0
VERTEX
8
0
10
892.000000
20
1340.000000
0
SEQEND
0
POLYLINE
8
0
6
CONTINUOUS
66
1
62
250
10
0.0
20
0.0
30
0.000000
0
VERTEX
8
0
10
905.000000
20
1340.000000
0
VERTEX
8
0
10
917.000000
20
1340.000000
0
SEQEND
0
POLYLINE
8
0
6
CONTINUOUS
66
1
62
250
10
0.0
20
0.0
30
0.000000
0
VERTEX
8
0
10
930.000000
20
1340.000000
0
VERTEX
8
0
10
942.000000
20
1340.000000
0
SEQEND
0
POLYLINE
8
0
6
CONTINUOUS
66
1
62
250
10
0.0
20
0.0
30
0.000000
0
VERTEX
8
0
10
955.000000
20
1340.000000
0
VERTEX
8
0
10
967.000000
20
1340.000000
0
SEQEND
0
POLYLINE
8
0
6
CONTINUOUS
66
1
62
250
10
0.0
20
0.0
30
0.000000
0
VERTEX
8
0
10
980.000000
20
1340.000000
0
VERTEX
8
0
10
992.000000
20
1340.000000
0
SEQEND
0
POLYLINE
8
0
6
CONTINUOUS
66
1
62
250
10
0.0
20
0.0
30
0.000000
0
VERTEX
8
0
10
1005.000000
20
1340.000000
0
VERTEX
8
0
10
1017.000000
20
1340.000000
0
SEQEND
0
POLYLINE
8
0
6
CONTINUOUS
66
1
62
250
10
0.0
20
0.0
30
0.000000
0
VERTEX
8
0
10
1030.000000
20
1340.000000
0
VERTEX
8
0
10
1042.000000
20
1340.000000
0
SEQEND
0
POLYLINE
8
0
6
CONTINUOUS
66
1
62
250
10
0.0
20
0.0
30
0.000000
0
VERTEX
8
0
10
1055.000000
20
1340.000000
0
VERTEX
8
0
10
1067.000000
20
1340.000000
0
SEQEND
0
POLYLINE
8
0
6
CONTINUOUS
66
1
62
250
10
0.0
20
0.0
30
0.000000
0
VERTEX
8
0
10
1080.000000
20
1340.000000
0
VERTEX
8
0
10
1092.000000
20
1340.000000
0
SEQEND
0
POLYLINE
8
0
6
CONTINUOUS
66
1
62
250
10
0.0
20
0.0
30
0.000000
0
VERTEX
8
0
10
1105.000000
20
1340.000000
0
VERTEX
8
0
10
1117.000000
20
1340.000000
0
SEQEND
0
POLYLINE
8
0
6
CONTINUOUS
66
1
62
250
10
0.0
20
0.0
30
0.000000
0
VERTEX
8
0
10
1130.000000
20
1340.000000
0
VERTEX
8
0
10
1142.000000
20
1340.000000
0
SEQEND
0
POLYLINE
8
0
6
CONTINUOUS
66
1
62
250
10
0.0
20
0.0
30
0.000000
0
VERTEX
8
0
10
1155.000000
20
1340.000000
0
VERTEX
8
0
10
1167.000000
20
1340.000000
0
SEQEND
0
POLYLINE
8
0
6
CONTINUOUS
66
1
62
250
10
0.0
20
0.0
30
0.000000
0
VERTEX
8
0
10
1180.000000
20
1340.000000
0
VERTEX
8
0
10
1192.000000
20
1340.000000
0
SEQEND
0
POLYLINE
8
0
6
CONTINUOUS
66
1
62
250
10
0.0
20
0.0
30
0.000000
0
VERTEX
8
0
10
1205.000000
20
1340.000000
0
VERTEX
8
0
10
1217.000000
20
1340.000000
0
SEQEND
0
POLYLINE
8
0
6
CONTINUOUS
66
1
62
250
10
0.0
20
0.0
30
0.000000
0
VERTEX
8
0
10
1230.000000
20
1340.000000
0
VERTEX
8
0
10
1242.000000
20
1340.000000
0
SEQEND
0
POLYLINE
8
0
6
CONTINUOUS
66
1
62
250
10
0.0
20
0.0
30
0.000000
0
VERTEX
8
0
10
1255.000000
20
1340.000000
0
VERTEX
8
0
10
1267.000000
20
1340.000000
0
SEQEND
0
POLYLINE
8
0
6
CONTINUOUS
66
1
62
250
10
0.0
20
0.0
30
0.000000
0
VERTEX
8
0
10
1280.000000
20
1340.000000
0
VERTEX
8
0
10
1292.000000
20
1340.000000
0
SEQEND
0
POLYLINE
8
0
6
CONTINUOUS
66
1
62
250
10
0.0
20
0.0
30
0.000000
0
VERTEX
8
0
10
1305.000000
20
1340.000000
0
VERTEX
8
0
10
1317.000000
20
1340.000000
0
SEQEND
0
POLYLINE
8
0
6
CONTINUOUS
66
1
62
250
10
0.0
20
0.0
30
0.000000
0
VERTEX
8
0
10
1330.000000
20
1340.000000
0
VERTEX
8
0
10
1342.000000
20
1340.000000
0
SEQEND
0
POLYLINE
8
0
6
CONTINUOUS
66
1
62
250
10
0.0
20
0.0
30
0.000000
0
VERTEX
8
0
10
1355.000000
20
1340.000000
0
VERTEX
8
0
10
1367.000000
20
1340.000000
0
SEQEND
0
POLYLINE
8
0
6
CONTINUOUS
66
1
62
250
10
0.0
20
0.0
30
0.000000
0
VERTEX
8
0
10
1380.000000
20
1340.000000
0
VERTEX
8
0
10
1392.000000
20
1340.000000
0
SEQEND
0
POLYLINE
8
0
6
CONTINUOUS
66
1
62
250
10
0.0
20
0.0
30
0.000000
0
VERTEX
8
0
10
1405.000000
20
1340.000000
0
VERTEX
8
0
10
1417.000000
20
1340.000000
0
SEQEND
0
POLYLINE
8
0
6
CONTINUOUS
66
1
62
250
10
0.0
20
0.0
30
0.000000
0
VERTEX
8
0
10
1430.000000
20
1340.000000
0
VERTEX
8
0
10
1443.000000
20
1340.000000
0
SEQEND
0
POLYLINE
8
0
6
CONTINUOUS
66
1
62
250
10
0.0
20
0.0
30
0.000000
0
VERTEX
8
0
10
1456.000000
20
1340.000000
0
VERTEX
8
0
10
1469.000000
20
1340.000000
0
SEQEND
0
POLYLINE
8
0
6
CONTINUOUS
66
1
62
250
10
0.0
20
0.0
30
0.000000
0
VERTEX
8
0
10
1482.000000
20
1340.000000
0
VERTEX
8
0
10
1494.000000
20
1340.000000
0
SEQEND
0
POLYLINE
8
0
6
CONTINUOUS
66
1
62
250
10
0.0
20
0.0
30
0.000000
0
VERTEX
8
0
10
1507.000000
20
1340.000000
0
VERTEX
8
0
10
1519.000000
20
1340.000000
0
SEQEND
0
POLYLINE
8
0
6
CONTINUOUS
66
1
62
250
10
0.0
20
0.0
30
0.000000
0
VERTEX
8
0
10
1532.000000
20
1340.000000
0
VERTEX
8
0
10
1544.000000
20
1340.000000
0
SEQEND
0
POLYLINE
8
0
6
CONTINUOUS
66
1
62
250
10
0.0
20
0.0
30
0.000000
0
VERTEX
8
0
10
1557.000000
20
1340.000000
0
VERTEX
8
0
10
1569.000000
20
1340.000000
0
SEQEND
0
POLYLINE
8
0
6
CONTINUOUS
66
1
62
250
10
0.0
20
0.0
30
0.000000
0
VERTEX
8
0
10
1582.000000
20
1340.000000
0
VERTEX
8
0
10
1594.000000
20
1340.000000
0
SEQEND
0
POLYLINE
8
0
6
CONTINUOUS
66
1
62
250
10
0.0
20
0.0
30
0.000000
0
VERTEX
8
0
10
1607.000000
20
1340.000000
0
VERTEX
8
0
10
1619.000000
20
1340.000000
0
SEQEND
0
POLYLINE
8
0
6
CONTINUOUS
66
1
62
250
10
0.0
20
0.0
30
0.000000
0
VERTEX
8
0
10
1632.000000
20
1340.000000
0
VERTEX
8
0
10
1644.000000
20
1340.000000
0
SEQEND
0
POLYLINE
8
0
6
CONTINUOUS
66
1
62
250
10
0.0
20
0.0
30
0.000000
0
VERTEX
8
0
10
487.000000
20
1340.000000
0
VERTEX
8
0
10
480.000000
20
1340.000000
0
VERTEX
8
0
10
479.000000
20
1339.000000
0
VERTEX
8
0
10
478.100000
20
1339.200000
0
VERTEX
8
0
10
477.000000
20
1340.000000
0
VERTEX
8
0
10
268.000000
20
1340.000000
0
VERTEX
8
0
10
268.000000
20
1331.000000
0
VERTEX
8
0
10
270.000000
20
1329.000000
0
VERTEX
8
0
10
476.000000
20
1329.000000
0
VERTEX
8
0
10
478.047059
20
1330.211765
0
VERTEX
8
0
10
479.000000
20
1339.000000
0
SEQEND
0
POLYLINE
8
0
6
CONTINUOUS
66
1
62
251
10
0.0
20
0.0
30
0.000000
0
VERTEX
8
0
10
85.000000
20
1279.000000
0
VERTEX
8
0
10
97.000000
20
1279.000000
0
SEQEND
0
POLYLINE
8
0
6
CONTINUOUS
66
1
62
251
10
0.0
20
0.0
30
0.000000
0
VERTEX
8
0
10
110.000000
20
1279.000000
0
VERTEX
8
0
10
122.000000
20
1279.000000
0
SEQEND
0
POLYLINE
8
0
6
CONTINUOUS
66
1
62
251
10
0.0
20
0.0
30
0.000000
0
VERTEX
8
0
10
135.000000
20
1279.000000
0
VERTEX
8
0
10
147.000000
20
1279.000000
0
SEQEND
0
POLYLINE
8
0
6
CONTINUOUS
66
1
62
251
10
0.0
20
0.0
30
0.000000
0
VERTEX
8
0
10
160.000000
20
1279.000000
0
VERTEX
8
0
10
172.000000
20
1279.000000
0
SEQEND
0
POLYLINE
8
0
6
CONTINUOUS
66
1
62
251
10
0.0
20
0.0
30
0.000000
0
VERTEX
8
0
10
185.000000
20
1279.000000
0
VERTEX
8
0
10
197.000000
20
1279.000000
0
SEQEND
0
POLYLINE
8
0
6
CONTINUOUS
66
1
62
251
10
0.0
20
0.0
30
0.000000
0
VERTEX
8
0
10
210.000000
20
1279.000000
0
VERTEX
8
0
10
222.000000
20
1279.000000
0
SEQEND
0
POLYLINE
8
0
6
CONTINUOUS
66
1
62
251
10
0.0
20
0.0
30
0.000000
0
VERTEX
8
0
10
235.000000
20
1279.000000
0
VERTEX
8
0
10
247.000000
20
1279.000000
0
SEQEND
0
POLYLINE
8
0
6
CONTINUOUS
66
1
62
251
10
0.0
20
0.0
30
0.000000
0
VERTEX
8
0
10
260.000000
20
1279.000000
0
VERTEX
8
0
10
272.000000
20
1279.000000
0
SEQEND
0
POLYLINE
8
0
6
CONTINUOUS
66
1
62
251
10
0.0
20
0.0
30
0.000000
0
VERTEX
8
0
10
285.000000
20
1279.000000
0
VERTEX
8
0
10
297.000000
20
1279.000000
0
SEQEND
0
POLYLINE
8
0
6
CONTINUOUS
66
1
62
251
10
0.0
20
0.0
30
0.000000
0
VERTEX
8
0
10
310.000000
20
1279.000000
0
VERTEX
8
0
10
322.000000
20
1279.000000
0
SEQEND
0
POLYLINE
8
0
6
CONTINUOUS
66
1
62
251
10
0.0
20
0.0
30
0.000000
0
VERTEX
8
0
10
335.000000
20
1279.000000
0
VERTEX
8
0
10
347.000000
20
1279.000000
0
SEQEND
0
POLYLINE
8
0
6
CONTINUOUS
66
1
62
251
10
0.0
20
0.0
30
0.000000
0
VERTEX
8
0
10
360.000000
20
1279.000000
0
VERTEX
8
0
10
372.000000
20
1279.000000
0
SEQEND
0
POLYLINE
8
0
6
CONTINUOUS
66
1
62
251
10
0.0
20
0.0
30
0.000000
0
VERTEX
8
0
10
385.000000
20
1279.000000
0
VERTEX
8
0
10
397.000000
20
1279.000000
0
SEQEND
0
POLYLINE
8
0
6
CONTINUOUS
66
1
62
251
10
0.0
20
0.0
30
0.000000
0
VERTEX
8
0
10
410.000000
20
1279.000000
0
VERTEX
8
0
10
422.000000
20
1279.000000
0
SEQEND
0
POLYLINE
8
0
6
CONTINUOUS
66
1
62
251
10
0.0
20
0.0
30
0.000000
0
VERTEX
8
0
10
435.000000
20
1279.000000
0
VERTEX
8
0
10
447.000000
20
1279.000000
0
SEQEND
0
POLYLINE
8
0
6
CONTINUOUS
66
1
62
251
10
0.0
20
0.0
30
0.000000
0
VERTEX
8
0
10
460.000000
20
1279.000000
0
VERTEX
8
0
10
472.000000
20
1279.000000
0
SEQEND
0
POLYLINE
8
0
6
CONTINUOUS
66
1
62
251
10
0.0
20
0.0
30
0.000000
0
VERTEX
8
0
10
485.000000
20
1279.000000
0
VERTEX
8
0
10
497.000000
20
1279.000000
0
SEQEND
0
POLYLINE
8
0
6
CONTINUOUS
66
1
62
251
10
0.0
20
0.0
30
0.000000
0
VERTEX
8
0
10
510.000000
20
1279.000000
0
VERTEX
8
0
10
522.000000
20
1279.000000
0
SEQEND
0
POLYLINE
8
0
6
CONTINUOUS
66
1
62
251
10
0.0
20
0.0
30
0.000000
0
VERTEX
8
0
10
535.000000
20
1279.000000
0
VERTEX
8
0
10
547.000000
20
1279.000000
0
SEQEND
0
POLYLINE
8
0
6
CONTINUOUS
66
1
62
251
10
0.0
20
0.0
30
0.000000
0
VERTEX
8
0
10
560.000000
20
1279.000000
0
VERTEX
8
0
10
572.000000
20
1279.000000
0
SEQEND
0
POLYLINE
8
0
6
CONTINUOUS
66
1
62
251
10
0.0
20
0.0
30
0.000000
0
VERTEX
8
0
10
585.000000
20
1279.000000
0
VERTEX
8
0
10
597.000000
20
1279.000000
0
SEQEND
0
POLYLINE
8
0
6
CONTINUOUS
66
1
62
251
10
0.0
20
0.0
30
0.000000
0
VERTEX
8
0
10
610.000000
20
1279.000000
0
VERTEX
8
0
10
622.000000
20
1279.000000
0
SEQEND
0
POLYLINE
8
0
6
CONTINUOUS
66
1
62
251
10
0.0
20
0.0
30
0.000000
0
VERTEX
8
0
10
635.000000
20
1279.000000
0
VERTEX
8
0
10
647.000000
20
1279.000000
0
SEQEND
0
POLYLINE
8
0
6
CONTINUOUS
66
1
62
251
10
0.0
20
0.0
30
0.000000
0
VERTEX
8
0
10
685.000000
20
1279.000000
0
VERTEX
8
0
10
697.000000
20
1279.000000
0
SEQEND
0
POLYLINE
8
0
6
CONTINUOUS
66
1
62
251
10
0.0
20
0.0
30
0.000000
0
VERTEX
8
0
10
710.000000
20
1279.000000
0
VERTEX
8
0
10
722.000000
20
1279.000000
0
SEQEND
0
POLYLINE
8
0
6
CONTINUOUS
66
1
62
251
10
0.0
20
0.0
30
0.000000
0
VERTEX
8
0
10
735.000000
20
1279.000000
0
VERTEX
8
0
10
747.000000
20
1279.000000
0
SEQEND
0
POLYLINE
8
0
6
CONTINUOUS
66
1
62
251
10
0.0
20
0.0
30
0.000000
0
VERTEX
8
0
10
760.000000
20
1279.000000
0
VERTEX
8
0
10
772.000000
20
1279.000000
0
SEQEND
0
POLYLINE
8
0
6
CONTINUOUS
66
1
62
251
10
0.0
20
0.0
30
0.000000
0
VERTEX
8
0
10
785.000000
20
1279.000000
0
VERTEX
8
0
10
797.000000
20
1279.000000
0
SEQEND
0
POLYLINE
8
0
6
CONTINUOUS
66
1
62
251
10
0.0
20
0.0
30
0.000000
0
VERTEX
8
0
10
810.000000
20
1279.000000
0
VERTEX
8
0
10
822.000000
20
1279.000000
0
SEQEND
0
POLYLINE
8
0
6
CONTINUOUS
66
1
62
251
10
0.0
20
0.0
30
0.000000
0
VERTEX
8
0
10
835.000000
20
1279.000000
0
VERTEX
8
0
10
847.000000
20
1279.000000
0
SEQEND
0
POLYLINE
8
0
6
CONTINUOUS
66
1
62
250
10
0.0
20
0.0
30
0.000000
0
VERTEX
8
0
10
860.000000
20
1279.000000
42
0.070182
0
VERTEX
8
0
10
867.000000
20
1280.000000
42
0.206423
0
VERTEX
8
0
10
877.001110
20
1280.033296
0
VERTEX
8
0
10
878.000000
20
1340.000000
0
VERTEX
8
0
10
878.496970
20
1504.997006
42
-0.238466
0
VERTEX
8
0
10
885.040984
20
1507.549180
0
VERTEX
8
0
10
1051.940000
20
1522.420000
0
VERTEX
8
0
10
1053.000000
20
1523.000000
42
0.278194
0
VERTEX
8
0
10
1055.000000
20
1528.000000
0
VERTEX
8
0
10
1262.000000
20
1528.000000
0
VERTEX
8
0
10
1264.000000
20
1526.000000
0
VERTEX
8
0
10
1264.692308
20
1523.461538
0
VERTEX
8
0
10
1265.900000
20
1522.700000
0
VERTEX
8
0
10
1319.962069
20
1517.544828
0
VERTEX
8
0
10
1332.037931
20
1516.455172
0
VERTEX
8
0
10
1354.962069
20
1514.544828
0
VERTEX
8
0
10
1367.037931
20
1513.455172
0
VERTEX
8
0
10
1389.962069
20
1511.544828
0
VERTEX
8
0
10
1402.037931
20
1510.455172
0
VERTEX
8
0
10
1442.000000
20
1507.000000
0
VERTEX
8
0
10
1444.000000
20
1505.000000
0
VERTEX
8
0
10
1444.000000
20
1342.000000
0
VERTEX
8
0
10
1443.000000
20
1340.000000
0
VERTEX
8
0
10
1444.000000
20
1339.000000
0
VERTEX
8
0
10
1444.000000
20
1280.000000
0
SEQEND
0
POLYLINE
8
0
6
CONTINUOUS
66
1
62
251
10
0.0
20
0.0
30
0.000000
0
VERTEX
8
0
10
885.000000
20
1279.000000
0
VERTEX
8
0
10
897.000000
20
1279.000000
0
SEQEND
0
POLYLINE
8
0
6
CONTINUOUS
66
1
62
251
10
0.0
20
0.0
30
0.000000
0
VERTEX
8
0
10
910.000000
20
1279.000000
0
VERTEX
8
0
10
922.000000
20
1279.000000
0
SEQEND
0
POLYLINE
8
0
6
CONTINUOUS
66
1
62
251
10
0.0
20
0.0
30
0.000000
0
VERTEX
8
0
10
935.000000
20
1279.000000
0
VERTEX
8
0
10
947.000000
20
1279.000000
0
SEQEND
0
POLYLINE
8
0
6
CONTINUOUS
66
1
62
251
10
0.0
20
0.0
30
0.000000
0
VERTEX
8
0
10
960.000000
20
1279.000000
0
VERTEX
8
0
10
972.000000
20
1279.000000
0
SEQEND
0
POLYLINE
8
0
6
CONTINUOUS
66
1
62
251
10
0.0
20
0.0
30
0.000000
0
VERTEX
8
0
10
985.000000
20
1279.000000
0
VERTEX
8
0
10
997.000000
20
1279.000000
0
SEQEND
0
POLYLINE
8
0
6
CONTINUOUS
66
1
62
251
10
0.0
20
0.0
30
0.000000
0
VERTEX
8
0
10
1010.000000
20
1279.000000
0
VERTEX
8
0
10
1022.000000
20
1279.000000
0
SEQEND
0
POLYLINE
8
0
6
CONTINUOUS
66
1
62
251
10
0.0
20
0.0
30
0.000000
0
VERTEX
8
0
10
1035.000000
20
1279.000000
0
VERTEX
8
0
10
1047.000000
20
1279.000000
0
SEQEND
0
POLYLINE
8
0
6
CONTINUOUS
66
1
62
251
10
0.0
20
0.0
30
0.000000
0
VERTEX
8
0
10
1060.000000
20
1279.000000
0
VERTEX
8
0
10
1072.000000
20
1279.000000
0
SEQEND
0
POLYLINE
8
0
6
CONTINUOUS
66
1
62
251
10
0.0
20
0.0
30
0.000000
0
VERTEX
8
0
10
1085.000000
20
1279.000000
0
VERTEX
8
0
10
1097.000000
20
1279.000000
0
SEQEND
0
POLYLINE
8
0
6
CONTINUOUS
66
1
62
251
10
0.0
20
0.0
30
0.000000
0
VERTEX
8
0
10
1110.000000
20
1279.000000
0
VERTEX
8
0
10
1122.000000
20
1279.000000
0
SEQEND
0
POLYLINE
8
0
6
CONTINUOUS
66
1
62
251
10
0.0
20
0.0
30
0.000000
0
VERTEX
8
0
10
1135.000000
20
1279.000000
0
VERTEX
8
0
10
1147.000000
20
1279.000000
0
SEQEND
0
POLYLINE
8
0
6
CONTINUOUS
66
1
62
251
10
0.0
20
0.0
30
0.000000
0
VERTEX
8
0
10
1160.000000
20
1279.000000
0
VERTEX
8
0
10
1172.000000
20
1279.000000
0
SEQEND
0
POLYLINE
8
0
6
CONTINUOUS
66
1
62
251
10
0.0
20
0.0
30
0.000000
0
VERTEX
8
0
10
1185.000000
20
1279.000000
0
VERTEX
8
0
10
1197.000000
20
1279.000000
0
SEQEND
0
POLYLINE
8
0
6
CONTINUOUS
66
1
62
251
10
0.0
20
0.0
30
0.000000
0
VERTEX
8
0
10
1210.000000
20
1279.000000
0
VERTEX
8
0
10
1222.000000
20
1279.000000
0
SEQEND
0
POLYLINE
8
0
6
CONTINUOUS
66
1
62
251
10
0.0
20
0.0
30
0.000000
0
VERTEX
8
0
10
1235.000000
20
1279.000000
0
VERTEX
8
0
10
1247.000000
20
1279.000000
0
SEQEND
0
POLYLINE
8
0
6
CONTINUOUS
66
1
62
251
10
0.0
20
0.0
30
0.000000
0
VERTEX
8
0
10
1260.000000
20
1279.000000
0
VERTEX
8
0
10
1272.000000
20
1279.000000
0
SEQEND
0
POLYLINE
8
0
6
CONTINUOUS
66
1
62
251
10
0.0
20
0.0
30
0.000000
0
VERTEX
8
0
10
1285.000000
20
1279.000000
0
VERTEX
8
0
10
1297.000000
20
1279.000000
0
SEQEND
0
POLYLINE
8
0
6
CONTINUOUS
66
1
62
251
10
0.0
20
0.0
30
0.000000
0
VERTEX
8
0
10
1310.000000
20
1279.000000
0
VERTEX
8
0
10
1322.000000
20
1279.000000
0
SEQEND
0
POLYLINE
8
0
6
CONTINUOUS
66
1
62
251
10
0.0
20
0.0
30
0.000000
0
VERTEX
8
0
10
1335.000000
20
1279.000000
0
VERTEX
8
0
10
1347.000000
20
1279.000000
0
SEQEND
0
POLYLINE
8
0
6
CONTINUOUS
66
1
62
251
10
0.0
20
0.0
30
0.000000
0
VERTEX
8
0
10
1360.000000
20
1279.000000
0
VERTEX
8
0
10
1372.000000
20
1279.000000
0
SEQEND
0
POLYLINE
8
0
6
CONTINUOUS
66
1
62
251
10
0.0
20
0.0
30
0.000000
0
VERTEX
8
0
10
1385.000000
20
1279.000000
0
VERTEX
8
0
10
1397.000000
20
1279.000000
0
SEQEND
0
POLYLINE
8
0
6
CONTINUOUS
66
1
62
251
10
0.0
20
0.0
30
0.000000
0
VERTEX
8
0
10
1410.000000
20
1279.000000
0
VERTEX
8
0
10
1422.000000
20
1279.000000
0
SEQEND
0
POLYLINE
8
0
6
CONTINUOUS
66
1
62
250
10
0.0
20
0.0
30
0.000000
0
VERTEX
8
0
10
1435.000000
20
1279.000000
42
0.083987
0
VERTEX
8
0
10
1444.000000
20
1280.000000
42
0.223537
0
VERTEX
8
0
10
1454.000000
20
1280.000000
0
VERTEX
8
0
10
1455.000000
20
1281.000000
0
VERTEX
8
0
10
1456.000000
20
1282.000000
0
VERTEX
8
0
10
1456.000000
20
1340.000000
0
VERTEX
8
0
10
1456.000000
20
1528.000000
0
VERTEX
8
0
10
1642.000000
20
1528.000000
0
VERTEX
8
0
10
1644.000000
20
1526.000000
0
VERTEX
8
0
10
1644.000000
20
1340.000000
0
VERTEX
8
0
10
1644.000000
20
1280.000000
0
SEQEND
0
POLYLINE
8
0
6
CONTINUOUS
66
1
62
251
10
0.0
20
0.0
30
0.000000
0
VERTEX
8
0
10
1460.000000
20
1279.000000
0
VERTEX
8
0
10
1472.000000
20
1279.000000
0
SEQEND
0
POLYLINE
8
0
6
CONTINUOUS
66
1
62
251
10
0.0
20
0.0
30
0.000000
0
VERTEX
8
0
10
1485.000000
20
1279.000000
0
VERTEX
8
0
10
1497.000000
20
1279.000000
0
SEQEND
0
POLYLINE
8
0
6
CONTINUOUS
66
1
62
251
10
0.0
20
0.0
30
0.000000
0
VERTEX
8
0
10
1510.000000
20
1279.000000
0
VERTEX
8
0
10
1522.000000
20
1279.000000
0
SEQEND
0
POLYLINE
8
0
6
CONTINUOUS
66
1
62
251
10
0.0
20
0.0
30
0.000000
0
VERTEX
8
0
10
1535.000000
20
1279.000000
0
VERTEX
8
0
10
1547.000000
20
1279.000000
0
SEQEND
0
POLYLINE
8
0
6
CONTINUOUS
66
1
62
251
10
0.0
20
0.0
30
0.000000
0
VERTEX
8
0
10
1560.000000
20
1279.000000
0
VERTEX
8
0
10
1572.000000
20
1279.000000
0
SEQEND
0
POLYLINE
8
0
6
CONTINUOUS
66
1
62
251
10
0.0
20
0.0
30
0.000000
0
VERTEX
8
0
10
1585.000000
20
1279.000000
0
VERTEX
8
0
10
1597.000000
20
1279.000000
0
SEQEND
0
POLYLINE
8
0
6
CONTINUOUS
66
1
62
251
10
0.0
20
0.0
30
0.000000
0
VERTEX
8
0
10
1610.000000
20
1279.000000
0
VERTEX
8
0
10
1622.000000
20
1279.000000
0
SEQEND
0
POLYLINE
8
0
6
CONTINUOUS
66
1
62
251
10
0.0
20
0.0
30
0.000000
0
VERTEX
8
0
10
668.000000
20
1267.000000
0
VERTEX
8
0
10
669.000000
20
1268.000000
0
VERTEX
8
0
10
669.000000
20
1279.000000
0
SEQEND
0
POLYLINE
8
0
6
CONTINUOUS
66
1
62
251
10
0.0
20
0.0
30
0.000000
0
VERTEX
8
0
10
871.000000
20
1267.000000
0
VERTEX
8
0
10
872.000000
20
1268.000000
0
VERTEX
8
0
10
872.000000
20
1279.000000
0
SEQEND
0
POLYLINE
8
0
6
CONTINUOUS
66
1
62
250
10
0.0
20
0.0
30
0.000000
0
VERTEX
8
0
10
1448.000000
20
1267.000000
0
VERTEX
8
0
10
1448.000000
20
1279.000000
0
SEQEND
0
POLYLINE
8
0
6
CONTINUOUS
66
1
62
251
10
0.0
20
0.0
30
0.000000
0
VERTEX
8
0
10
1645.000000
20
1252.000000
0
VERTEX
8
0
10
1645.000000
20
1262.000000
0
VERTEX
8
0
10
1644.000000
20
1263.000000
0
SEQEND
0
POLYLINE
8
0
6
CONTINUOUS
66
1
62
252
10
0.0
20
0.0
30
0.000000
0
VERTEX
8
0
10
668.000000
20
1242.000000
0
VERTEX
8
0
10
669.000000
20
1243.000000
0
VERTEX
8
0
10
669.000000
20
1253.000000
0
SEQEND
0
POLYLINE
8
0
6
CONTINUOUS
66
1
62
252
10
0.0
20
0.0
30
0.000000
0
VERTEX
8
0
10
871.000000
20
1242.000000
0
VERTEX
8
0
10
872.000000
20
1243.000000
0
VERTEX
8
0
10
872.000000
20
1253.000000
0
SEQEND
0
POLYLINE
8
0
6
CONTINUOUS
66
1
62
250
10
0.0
20
0.0
30
0.000000
0
VERTEX
8
0
10
1448.000000
20
1242.000000
0
VERTEX
8
0
10
1448.000000
20
1253.000000
0
SEQEND
0
POLYLINE
8
0
6
CONTINUOUS
66
1
62
251
10
0.0
20
0.0
30
0.000000
0
VERTEX
8
0
10
1645.000000
20
1227.000000
0
VERTEX
8
0
10
1645.000000
20
1237.000000
0
VERTEX
8
0
10
1644.000000
20
1238.000000
0
SEQEND
0
POLYLINE
8
0
6
CONTINUOUS
66
1
62
252
10
0.0
20
0.0
30
0.000000
0
VERTEX
8
0
10
668.000000
20
1217.000000
0
VERTEX
8
0
10
669.000000
20
1218.000000
0
VERTEX
8
0
10
669.000000
20
1228.000000
0
SEQEND
0
POLYLINE
8
0
6
CONTINUOUS
66
1
62
252
10
0.0
20
0.0
30
0.000000
0
VERTEX
8
0
10
871.000000
20
1217.000000
0
VERTEX
8
0
10
872.000000
20
1218.000000
0
VERTEX
8
0
10
872.000000
20
1228.000000
0
SEQEND
0
POLYLINE
8
0
6
CONTINUOUS
66
1
62
250
10
0.0
20
0.0
30
0.000000
0
VERTEX
8
0
10
1448.000000
20
1217.000000
0
VERTEX
8
0
10
1448.000000
20
1228.000000
0
SEQEND
0
POLYLINE
8
0
6
CONTINUOUS
66
1
62
251
10
0.0
20
0.0
30
0.000000
0
VERTEX
8
0
10
1645.000000
20
1202.000000
0
VERTEX
8
0
10
1645.000000
20
1212.000000
0
VERTEX
8
0
10
1644.000000
20
1213.000000
0
SEQEND
0
POLYLINE
8
0
6
CONTINUOUS
66
1
62
252
10
0.0
20
0.0
30
0.000000
0
VERTEX
8
0
10
668.000000
20
1192.000000
0
VERTEX
8
0
10
669.000000
20
1193.000000
0
VERTEX
8
0
10
669.000000
20
1203.000000
0
SEQEND
0
POLYLINE
8
0
6
CONTINUOUS
66
1
62
252
10
0.0
20
0.0
30
0.000000
0
VERTEX
8
0
10
871.000000
20
1192.000000
0
VERTEX
8
0
10
872.000000
20
1193.000000
0
VERTEX
8
0
10
872.000000
20
1203.000000
0
SEQEND
0
POLYLINE
8
0
6
CONTINUOUS
66
1
62
250
10
0.0
20
0.0
30
0.000000
0
VERTEX
8
0
10
1448.000000
20
1192.000000
0
VERTEX
8
0
10
1448.000000
20
1203.000000
0
SEQEND
0
POLYLINE
8
0
6
CONTINUOUS
66
1
62
251
10
0.0
20
0.0
30
0.000000
0
VERTEX
8
0
10
1645.000000
20
1177.000000
0
VERTEX
8
0
10
1645.000000
20
1187.000000
0
VERTEX
8
0
10
1644.000000
20
1188.000000
0
SEQEND
0
POLYLINE
8
0
6
CONTINUOUS
66
1
62
252
10
0.0
20
0.0
30
0.000000
0
VERTEX
8
0
10
668.000000
20
1167.000000
0
VERTEX
8
0
10
669.000000
20
1168.000000
0
VERTEX
8
0
10
669.000000
20
1178.000000
0
SEQEND
0
POLYLINE
8
0
6
CONTINUOUS
66
1
62
252
10
0.0
20
0.0
30
0.000000
0
VERTEX
8
0
10
871.000000
20
1167.000000
0
VERTEX
8
0
10
872.000000
20
1168.000000
0
VERTEX
8
0
10
872.000000
20
1178.000000
0
SEQEND
0
POLYLINE
8
0
6
CONTINUOUS
66
1
62
250
10
0.0
20
0.0
30
0.000000
0
VERTEX
8
0
10
1448.000000
20
1167.000000
0
VERTEX
8
0
10
1448.000000
20
1178.000000
0
SEQEND
0
POLYLINE
8
0
6
CONTINUOUS
66
1
62
251
10
0.0
20
0.0
30
0.000000
0
VERTEX
8
0
10
1645.000000
20
1152.000000
0
VERTEX
8
0
10
1645.000000
20
1162.000000
0
VERTEX
8
0
10
1644.000000
20
1163.000000
0
SEQEND
0
POLYLINE
8
0
6
CONTINUOUS
66
1
62
252
10
0.0
20
0.0
30
0.000000
0
VERTEX
8
0
10
668.000000
20
1142.000000
0
VERTEX
8
0
10
669.000000
20
1143.000000
0
VERTEX
8
0
10
669.000000
20
1153.000000
0
SEQEND
0
POLYLINE
8
0
6
CONTINUOUS
66
1
62
252
10
0.0
20
0.0
30
0.000000
0
VERTEX
8
0
10
871.000000
20
1142.000000
0
VERTEX
8
0
10
872.000000
20
1143.000000
0
VERTEX
8
0
10
872.000000
20
1153.000000
0
SEQEND
0
POLYLINE
8
0
6
CONTINUOUS
66
1
62
250
10
0.0
20
0.0
30
0.000000
0
VERTEX
8
0
10
1448.000000
20
1142.000000
0
VERTEX
8
0
10
1448.000000
20
1153.000000
0
SEQEND
0
POLYLINE
8
0
6
CONTINUOUS
66
1
62
251
10
0.0
20
0.0
30
0.000000
0
VERTEX
8
0
10
1645.000000
20
1127.000000
0
VERTEX
8
0
10
1645.000000
20
1137.000000
0
VERTEX
8
0
10
1644.000000
20
1138.000000
0
SEQEND
0
POLYLINE
8
0
6
CONTINUOUS
66
1
62
252
10
0.0
20
0.0
30
0.000000
0
VERTEX
8
0
10
668.000000
20
1117.000000
0
VERTEX
8
0
10
669.000000
20
1118.000000
0
VERTEX
8
0
10
669.000000
20
1128.000000
0
SEQEND
0
POLYLINE
8
0
6
CONTINUOUS
66
1
62
252
10
0.0
20
0.0
30
0.000000
0
VERTEX
8
0
10
871.000000
20
1117.000000
0
VERTEX
8
0
10
872.000000
20
1118.000000
0
VERTEX
8
0
10
872.000000
20
1128.000000
0
SEQEND
0
POLYLINE
8
0
6
CONTINUOUS
66
1
62
250
10
0.0
20
0.0
30
0.000000
0
VERTEX
8
0
10
1448.000000
20
1117.000000
0
VERTEX
8
0
10
1448.000000
20
1128.000000
0
SEQEND
0
POLYLINE
8
0
6
CONTINUOUS
66
1
62
251
10
0.0
20
0.0
30
0.000000
0
VERTEX
8
0
10
1645.000000
20
1102.000000
0
VERTEX
8
0
10
1645.000000
20
1112.000000
0
VERTEX
8
0
10
1644.000000
20
1113.000000
0
SEQEND
0
POLYLINE
8
0
6
CONTINUOUS
66
1
62
252
10
0.0
20
0.0
30
0.000000
0
VERTEX
8
0
10
668.000000
20
1092.000000
0
VERTEX
8
0
10
669.000000
20
1093.000000
0
VERTEX
8
0
10
669.000000
20
1103.000000
0
SEQEND
0
POLYLINE
8
0
6
CONTINUOUS
66
1
62
252
10
0.0
20
0.0
30
0.000000
0
VERTEX
8
0
10
871.000000
20
1092.000000
0
VERTEX
8
0
10
872.000000
20
1093.000000
0
VERTEX
8
0
10
872.000000
20
1103.000000
0
SEQEND
0
POLYLINE
8
0
6
CONTINUOUS
66
1
62
250
10
0.0
20
0.0
30
0.000000
0
VERTEX
8
0
10
1448.000000
20
1092.000000
0
VERTEX
8
0
10
1448.000000
20
1103.000000
0
SEQEND
0
POLYLINE
8
0
6
CONTINUOUS
66
1
62
251
10
0.0
20
0.0
30
0.000000
0
VERTEX
8
0
10
1645.000000
20
1077.000000
0
VERTEX
8
0
10
1645.000000
20
1087.000000
0
VERTEX
8
0
10
1644.000000
20
1088.000000
0
SEQEND
0
POLYLINE
8
0
6
CONTINUOUS
66
1
62
252
10
0.0
20
0.0
30
0.000000
0
VERTEX
8
0
10
668.000000
20
1067.000000
0
VERTEX
8
0
10
669.000000
20
1068.000000
0
VERTEX
8
0
10
669.000000
20
1078.000000
0
SEQEND
0
POLYLINE
8
0
6
CONTINUOUS
66
1
62
252
10
0.0
20
0.0
30
0.000000
0
VERTEX
8
0
10
871.000000
20
1067.000000
0
VERTEX
8
0
10
872.000000
20
1068.000000
0
VERTEX
8
0
10
872.000000
20
1078.000000
0
SEQEND
0
POLYLINE
8
0
6
CONTINUOUS
66
1
62
250
10
0.0
20
0.0
30
0.000000
0
VERTEX
8
0
10
1448.000000
20
1067.000000
0
VERTEX
8
0
10
1448.000000
20
1078.000000
0
SEQEND
0
POLYLINE
8
0
6
CONTINUOUS
66
1
62
251
10
0.0
20
0.0
30
0.000000
0
VERTEX
8
0
10
1645.000000
20
1052.000000
0
VERTEX
8
0
10
1645.000000
20
1062.000000
0
VERTEX
8
0
10
1644.000000
20
1063.000000
0
SEQEND
0
POLYLINE
8
0
6
CONTINUOUS
66
1
62
252
10
0.0
20
0.0
30
0.000000
0
VERTEX
8
0
10
668.000000
20
1042.000000
0
VERTEX
8
0
10
669.000000
20
1043.000000
0
VERTEX
8
0
10
669.000000
20
1053.000000
0
SEQEND
0
POLYLINE
8
0
6
CONTINUOUS
66
1
62
252
10
0.0
20
0.0
30
0.000000
0
VERTEX
8
0
10
871.000000
20
1042.000000
0
VERTEX
8
0
10
872.000000
20
1043.000000
0
VERTEX
8
0
10
872.000000
20
1053.000000
0
SEQEND
0
POLYLINE
8
0
6
CONTINUOUS
66
1
62
250
10
0.0
20
0.0
30
0.000000
0
VERTEX
8
0
10
1448.000000
20
1042.000000
0
VERTEX
8
0
10
1448.000000
20
1053.000000
0
SEQEND
0
POLYLINE
8
0
6
CONTINUOUS
66
1
62
251
10
0.0
20
0.0
30
0.000000
0
VERTEX
8
0
10
1645.000000
20
1027.000000
0
VERTEX
8
0
10
1645.000000
20
1037.000000
0
VERTEX
8
0
10
1644.000000
20
1038.000000
0
SEQEND
0
POLYLINE
8
0
6
CONTINUOUS
66
1
62
252
10
0.0
20
0.0
30
0.000000
0
VERTEX
8
0
10
668.000000
20
1017.000000
0
VERTEX
8
0
10
669.000000
20
1018.000000
0
VERTEX
8
0
10
669.000000
20
1028.000000
0
SEQEND
0
POLYLINE
8
0
6
CONTINUOUS
66
1
62
252
10
0.0
20
0.0
30
0.000000
0
VERTEX
8
0
10
871.000000
20
1017.000000
0
VERTEX
8
0
10
872.000000
20
1018.000000
0
VERTEX
8
0
10
872.000000
20
1028.000000
0
SEQEND
0
POLYLINE
8
0
6
CONTINUOUS
66
1
62
250
10
0.0
20
0.0
30
0.000000
0
VERTEX
8
0
10
1448.000000
20
1017.000000
0
VERTEX
8
0
10
1448.000000
20
1028.000000
0
SEQEND
0
POLYLINE
8
0
6
CONTINUOUS
66
1
62
251
10
0.0
20
0.0
30
0.000000
0
VERTEX
8
0
10
1645.000000
20
1002.000000
0
VERTEX
8
0
10
1645.000000
20
1012.000000
0
VERTEX
8
0
10
1644.000000
20
1013.000000
0
SEQEND
0
POLYLINE
8
0
6
CONTINUOUS
66
1
62
252
10
0.0
20
0.0
30
0.000000
0
VERTEX
8
0
10
668.000000
20
992.000000
0
VERTEX
8
0
10
669.000000
20
993.000000
0
VERTEX
8
0
10
669.000000
20
1003.000000
0
SEQEND
0
POLYLINE
8
0
6
CONTINUOUS
66
1
62
252
10
0.0
20
0.0
30
0.000000
0
VERTEX
8
0
10
871.000000
20
992.000000
0
VERTEX
8
0
10
872.000000
20
993.000000
0
VERTEX
8
0
10
872.000000
20
1003.000000
0
SEQEND
0
POLYLINE
8
0
6
CONTINUOUS
66
1
62
250
10
0.0
20
0.0
30
0.000000
0
VERTEX
8
0
10
1448.000000
20
992.000000
0
VERTEX
8
0
10
1448.000000
20
1003.000000
0
SEQEND
0
POLYLINE
8
0
6
CONTINUOUS
66
1
62
251
10
0.0
20
0.0
30
0.000000
0
VERTEX
8
0
10
1645.000000
20
977.000000
0
VERTEX
8
0
10
1645.000000
20
987.000000
0
VERTEX
8
0
10
1644.000000
20
988.000000
0
SEQEND
0
POLYLINE
8
0
6
CONTINUOUS
66
1
62
252
10
0.0
20
0.0
30
0.000000
0
VERTEX
8
0
10
668.000000
20
967.000000
0
VERTEX
8
0
10
669.000000
20
968.000000
0
VERTEX
8
0
10
669.000000
20
978.000000
0
SEQEND
0
POLYLINE
8
0
6
CONTINUOUS
66
1
62
252
10
0.0
20
0.0
30
0.000000
0
VERTEX
8
0
10
871.000000
20
967.000000
0
VERTEX
8
0
10
872.000000
20
968.000000
0
VERTEX
8
0
10
872.000000
20
978.000000
0
SEQEND
0
POLYLINE
8
0
6
CONTINUOUS
66
1
62
250
10
0.0
20
0.0
30
0.000000
0
VERTEX
8
0
10
1448.000000
20
967.000000
0
VERTEX
8
0
10
1448.000000
20
978.000000
0
SEQEND
0
POLYLINE
8
0
6
CONTINUOUS
66
1
62
251
10
0.0
20
0.0
30
0.000000
0
VERTEX
8
0
10
1645.000000
20
952.000000
0
VERTEX
8
0
10
1645.000000
20
962.000000
0
VERTEX
8
0
10
1644.000000
20
963.000000
0
SEQEND
0
POLYLINE
8
0
6
CONTINUOUS
66
1
62
252
10
0.0
20
0.0
30
0.000000
0
VERTEX
8
0
10
668.000000
20
942.000000
0
VERTEX
8
0
10
669.000000
20
943.000000
0
VERTEX
8
0
10
669.000000
20
953.000000
0
SEQEND
0
POLYLINE
8
0
6
CONTINUOUS
66
1
62
252
10
0.0
20
0.0
30
0.000000
0
VERTEX
8
0
10
871.000000
20
942.000000
0
VERTEX
8
0
10
872.000000
20
943.000000
0
VERTEX
8
0
10
872.000000
20
953.000000
0
SEQEND
0
POLYLINE
8
0
6
CONTINUOUS
66
1
62
250
10
0.0
20
0.0
30
0.000000
0
VERTEX
8
0
10
1448.000000
20
942.000000
0
VERTEX
8
0
10
1448.000000
20
953.000000
0
SEQEND
0
POLYLINE
8
0
6
CONTINUOUS
66
1
62
251
10
0.0
20
0.0
30
0.000000
0
VERTEX
8
0
10
1645.000000
20
927.000000
0
VERTEX
8
0
10
1645.000000
20
937.000000
0
VERTEX
8
0
10
1644.000000
20
938.000000
0
SEQEND
0
POLYLINE
8
0
6
CONTINUOUS
66
1
62
252
10
0.0
20
0.0
30
0.000000
0
VERTEX
8
0
10
668.000000
20
917.000000
0
VERTEX
8
0
10
669.000000
20
918.000000
0
VERTEX
8
0
10
669.000000
20
928.000000
0
SEQEND
0
POLYLINE
8
0
6
CONTINUOUS
66
1
62
252
10
0.0
20
0.0
30
0.000000
0
VERTEX
8
0
10
871.000000
20
917.000000
0
VERTEX
8
0
10
872.000000
20
918.000000
0
VERTEX
8
0
10
872.000000
20
928.000000
0
SEQEND
0
POLYLINE
8
0
6
CONTINUOUS
66
1
62
250
10
0.0
20
0.0
30
0.000000
0
VERTEX
8
0
10
1448.000000
20
917.000000
0
VERTEX
8
0
10
1448.000000
20
928.000000
0
SEQEND
0
POLYLINE
8
0
6
CONTINUOUS
66
1
62
251
10
0.0
20
0.0
30
0.000000
0
VERTEX
8
0
10
1645.000000
20
902.000000
0
VERTEX
8
0
10
1645.000000
20
912.000000
0
VERTEX
8
0
10
1644.000000
20
913.000000
0
SEQEND
0
POLYLINE
8
0
6
CONTINUOUS
66
1
62
252
10
0.0
20
0.0
30
0.000000
0
VERTEX
8
0
10
668.000000
20
892.000000
0
VERTEX
8
0
10
669.000000
20
893.000000
0
VERTEX
8
0
10
669.000000
20
903.000000
0
SEQEND
0
POLYLINE
8
0
6
CONTINUOUS
66
1
62
252
10
0.0
20
0.0
30
0.000000
0
VERTEX
8
0
10
871.000000
20
892.000000
0
VERTEX
8
0
10
872.000000
20
893.000000
0
VERTEX
8
0
10
872.000000
20
903.000000
0
SEQEND
0
POLYLINE
8
0
6
CONTINUOUS
66
1
62
250
10
0.0
20
0.0
30
0.000000
0
VERTEX
8
0
10
1448.000000
20
892.000000
0
VERTEX
8
0
10
1448.000000
20
903.000000
0
SEQEND
0
POLYLINE
8
0
6
CONTINUOUS
66
1
62
251
10
0.0
20
0.0
30
0.000000
0
VERTEX
8
0
10
1645.000000
20
877.000000
0
VERTEX
8
0
10
1645.000000
20
887.000000
0
VERTEX
8
0
10
1644.000000
20
888.000000
0
SEQEND
0
POLYLINE
8
0
6
CONTINUOUS
66
1
62
252
10
0.0
20
0.0
30
0.000000
0
VERTEX
8
0
10
668.000000
20
867.000000
0
VERTEX
8
0
10
669.000000
20
868.000000
0
VERTEX
8
0
10
669.000000
20
878.000000
0
SEQEND
0
POLYLINE
8
0
6
CONTINUOUS
66
1
62
252
10
0.0
20
0.0
30
0.000000
0
VERTEX
8
0
10
871.000000
20
867.000000
0
VERTEX
8
0
10
872.000000
20
868.000000
0
VERTEX
8
0
10
872.000000
20
878.000000
0
SEQEND
0
POLYLINE
8
0
6
CONTINUOUS
66
1
62
250
10
0.0
20
0.0
30
0.000000
0
VERTEX
8
0
10
1448.000000
20
867.000000
0
VERTEX
8
0
10
1448.000000
20
878.000000
0
SEQEND
0
POLYLINE
8
0
6
CONTINUOUS
66
1
62
251
10
0.0
20
0.0
30
0.000000
0
VERTEX
8
0
10
1645.000000
20
852.000000
0
VERTEX
8
0
10
1645.000000
20
862.000000
0
VERTEX
8
0
10
1644.000000
20
863.000000
0
SEQEND
0
POLYLINE
8
0
6
CONTINUOUS
66
1
62
252
10
0.0
20
0.0
30
0.000000
0
VERTEX
8
0
10
668.000000
20
842.000000
0
VERTEX
8
0
10
669.000000
20
843.000000
0
VERTEX
8
0
10
669.000000
20
853.000000
0
SEQEND
0
POLYLINE
8
0
6
CONTINUOUS
66
1
62
252
10
0.0
20
0.0
30
0.000000
0
VERTEX
8
0
10
871.000000
20
842.000000
0
VERTEX
8
0
10
872.000000
20
843.000000
0
VERTEX
8
0
10
872.000000
20
853.000000
0
SEQEND
0
POLYLINE
8
0
6
CONTINUOUS
66
1
62
250
10
0.0
20
0.0
30
0.000000
0
VERTEX
8
0
10
1448.000000
20
842.000000
0
VERTEX
8
0
10
1448.000000
20
853.000000
0
SEQEND
0
POLYLINE
8
0
6
CONTINUOUS
66
1
62
251
10
0.0
20
0.0
30
0.000000
0
VERTEX
8
0
10
1645.000000
20
827.000000
0
VERTEX
8
0
10
1645.000000
20
837.000000
0
VERTEX
8
0
10
1644.000000
20
838.000000
0
SEQEND
0
POLYLINE
8
0
6
CONTINUOUS
66
1
62
252
10
0.0
20
0.0
30
0.000000
0
VERTEX
8
0
10
668.000000
20
817.000000
0
VERTEX
8
0
10
669.000000
20
818.000000
0
VERTEX
8
0
10
669.000000
20
828.000000
0
SEQEND
0
POLYLINE
8
0
6
CONTINUOUS
66
1
62
252
10
0.0
20
0.0
30
0.000000
0
VERTEX
8
0
10
871.000000
20
817.000000
0
VERTEX
8
0
10
872.000000
20
818.000000
0
VERTEX
8
0
10
872.000000
20
828.000000
0
SEQEND
0
POLYLINE
8
0
6
CONTINUOUS
66
1
62
250
10
0.0
20
0.0
30
0.000000
0
VERTEX
8
0
10
1448.000000
20
817.000000
0
VERTEX
8
0
10
1448.000000
20
828.000000
0
SEQEND
0
POLYLINE
8
0
6
CONTINUOUS
66
1
62
251
10
0.0
20
0.0
30
0.000000
0
VERTEX
8
0
10
1645.000000
20
802.000000
0
VERTEX
8
0
10
1645.000000
20
812.000000
0
VERTEX
8
0
10
1644.000000
20
813.000000
0
SEQEND
0
POLYLINE
8
0
6
CONTINUOUS
66
1
62
252
10
0.0
20
0.0
30
0.000000
0
VERTEX
8
0
10
668.000000
20
792.000000
0
VERTEX
8
0
10
669.000000
20
793.000000
0
VERTEX
8
0
10
669.000000
20
803.000000
0
SEQEND
0
POLYLINE
8
0
6
CONTINUOUS
66
1
62
252
10
0.0
20
0.0
30
0.000000
0
VERTEX
8
0
10
871.000000
20
792.000000
0
VERTEX
8
0
10
872.000000
20
793.000000
0
VERTEX
8
0
10
872.000000
20
803.000000
0
SEQEND
0
POLYLINE
8
0
6
CONTINUOUS
66
1
62
250
10
0.0
20
0.0
30
0.000000
0
VERTEX
8
0
10
1448.000000
20
792.000000
0
VERTEX
8
0
10
1448.000000
20
803.000000
0
SEQEND
0
POLYLINE
8
0
6
CONTINUOUS
66
1
62
251
10
0.0
20
0.0
30
0.000000
0
VERTEX
8
0
10
1645.000000
20
777.000000
0
VERTEX
8
0
10
1645.000000
20
787.000000
0
VERTEX
8
0
10
1644.000000
20
788.000000
0
SEQEND
0
POLYLINE
8
0
6
CONTINUOUS
66
1
62
252
10
0.0
20
0.0
30
0.000000
0
VERTEX
8
0
10
668.000000
20
767.000000
0
VERTEX
8
0
10
669.000000
20
768.000000
0
VERTEX
8
0
10
669.000000
20
778.000000
0
SEQEND
0
POLYLINE
8
0
6
CONTINUOUS
66
1
62
252
10
0.0
20
0.0
30
0.000000
0
VERTEX
8
0
10
871.000000
20
767.000000
0
VERTEX
8
0
10
872.000000
20
768.000000
0
VERTEX
8
0
10
872.000000
20
778.000000
0
SEQEND
0
POLYLINE
8
0
6
CONTINUOUS
66
1
62
250
10
0.0
20
0.0
30
0.000000
0
VERTEX
8
0
10
1448.000000
20
767.000000
0
VERTEX
8
0
10
1448.000000
20
778.000000
0
SEQEND
0
POLYLINE
8
0
6
CONTINUOUS
66
1
62
251
10
0.0
20
0.0
30
0.000000
0
VERTEX
8
0
10
1645.000000
20
752.000000
0
VERTEX
8
0
10
1645.000000
20
762.000000
0
VERTEX
8
0
10
1644.000000
20
763.000000
0
SEQEND
0
POLYLINE
8
0
6
CONTINUOUS
66
1
62
252
10
0.0
20
0.0
30
0.000000
0
VERTEX
8
0
10
668.000000
20
742.000000
0
VERTEX
8
0
10
669.000000
20
743.000000
0
VERTEX
8
0
10
669.000000
20
753.000000
0
SEQEND
0
POLYLINE
8
0
6
CONTINUOUS
66
1
62
252
10
0.0
20
0.0
30
0.000000
0
VERTEX
8
0
10
871.000000
20
742.000000
0
VERTEX
8
0
10
872.000000
20
743.000000
0
VERTEX
8
0
10
872.000000
20
753.000000
0
SEQEND
0
POLYLINE
8
0
6
CONTINUOUS
66
1
62
250
10
0.0
20
0.0
30
0.000000
0
VERTEX
8
0
10
1448.000000
20
742.000000
0
VERTEX
8
0
10
1448.000000
20
753.000000
0
SEQEND
0
POLYLINE
8
0
6
CONTINUOUS
66
1
62
251
10
0.0
20
0.0
30
0.000000
0
VERTEX
8
0
10
1645.000000
20
727.000000
0
VERTEX
8
0
10
1645.000000
20
737.000000
0
VERTEX
8
0
10
1644.000000
20
738.000000
0
SEQEND
0
POLYLINE
8
0
6
CONTINUOUS
66
1
62
252
10
0.0
20
0.0
30
0.000000
0
VERTEX
8
0
10
668.000000
20
717.000000
0
VERTEX
8
0
10
669.000000
20
718.000000
0
VERTEX
8
0
10
669.000000
20
728.000000
0
SEQEND
0
POLYLINE
8
0
6
CONTINUOUS
66
1
62
252
10
0.0
20
0.0
30
0.000000
0
VERTEX
8
0
10
871.000000
20
717.000000
0
VERTEX
8
0
10
872.000000
20
718.000000
0
VERTEX
8
0
10
872.000000
20
728.000000
0
SEQEND
0
POLYLINE
8
0
6
CONTINUOUS
66
1
62
250
10
0.0
20
0.0
30
0.000000
0
VERTEX
8
0
10
1448.000000
20
717.000000
0
VERTEX
8
0
10
1448.000000
20
728.000000
0
SEQEND
0
POLYLINE
8
0
6
CONTINUOUS
66
1
62
251
10
0.0
20
0.0
30
0.000000
0
VERTEX
8
0
10
1645.000000
20
702.000000
0
VERTEX
8
0
10
1645.000000
20
712.000000
0
VERTEX
8
0
10
1644.000000
20
713.000000
0
SEQEND
0
POLYLINE
8
0
6
CONTINUOUS
66
1
62
252
10
0.0
20
0.0
30
0.000000
0
VERTEX
8
0
10
668.000000
20
692.000000
0
VERTEX
8
0
10
669.000000
20
693.000000
0
VERTEX
8
0
10
669.000000
20
703.000000
0
SEQEND
0
POLYLINE
8
0
6
CONTINUOUS
66
1
62
252
10
0.0
20
0.0
30
0.000000
0
VERTEX
8
0
10
871.000000
20
692.000000
0
VERTEX
8
0
10
872.000000
20
693.000000
0
VERTEX
8
0
10
872.000000
20
703.000000
0
SEQEND
0
POLYLINE
8
0
6
CONTINUOUS
66
1
62
250
10
0.0
20
0.0
30
0.000000
0
VERTEX
8
0
10
1448.000000
20
692.000000
0
VERTEX
8
0
10
1448.000000
20
703.000000
0
SEQEND
0
POLYLINE
8
0
6
CONTINUOUS
66
1
62
251
10
0.0
20
0.0
30
0.000000
0
VERTEX
8
0
10
1645.000000
20
677.000000
0
VERTEX
8
0
10
1645.000000
20
687.000000
0
VERTEX
8
0
10
1644.000000
20
688.000000
0
SEQEND
0
POLYLINE
8
0
6
CONTINUOUS
66
1
62
252
10
0.0
20
0.0
30
0.000000
0
VERTEX
8
0
10
668.000000
20
667.000000
0
VERTEX
8
0
10
669.000000
20
668.000000
0
VERTEX
8
0
10
669.000000
20
678.000000
0
SEQEND
0
POLYLINE
8
0
6
CONTINUOUS
66
1
62
252
10
0.0
20
0.0
30
0.000000
0
VERTEX
8
0
10
871.000000
20
667.000000
0
VERTEX
8
0
10
872.000000
20
668.000000
0
VERTEX
8
0
10
872.000000
20
678.000000
0
SEQEND
0
POLYLINE
8
0
6
CONTINUOUS
66
1
62
250
10
0.0
20
0.0
30
0.000000
0
VERTEX
8
0
10
1448.000000
20
667.000000
0
VERTEX
8
0
10
1448.000000
20
678.000000
0
SEQEND
0
POLYLINE
8
0
6
CONTINUOUS
66
1
62
251
10
0.0
20
0.0
30
0.000000
0
VERTEX
8
0
10
1645.000000
20
652.000000
0
VERTEX
8
0
10
1645.000000
20
662.000000
0
VERTEX
8
0
10
1644.000000
20
663.000000
0
SEQEND
0
POLYLINE
8
0
6
CONTINUOUS
66
1
62
252
10
0.0
20
0.0
30
0.000000
0
VERTEX
8
0
10
668.000000
20
642.000000
0
VERTEX
8
0
10
669.000000
20
643.000000
0
VERTEX
8
0
10
669.000000
20
653.000000
0
SEQEND
0
POLYLINE
8
0
6
CONTINUOUS
66
1
62
252
10
0.0
20
0.0
30
0.000000
0
VERTEX
8
0
10
871.000000
20
642.000000
0
VERTEX
8
0
10
872.000000
20
643.000000
0
VERTEX
8
0
10
872.000000
20
653.000000
0
SEQEND
0
POLYLINE
8
0
6
CONTINUOUS
66
1
62
250
10
0.0
20
0.0
30
0.000000
0
VERTEX
8
0
10
1448.000000
20
642.000000
0
VERTEX
8
0
10
1448.000000
20
653.000000
0
SEQEND
0
POLYLINE
8
0
6
CONTINUOUS
66
1
62
251
10
0.0
20
0.0
30
0.000000
0
VERTEX
8
0
10
1645.000000
20
627.000000
0
VERTEX
8
0
10
1645.000000
20
637.000000
0
VERTEX
8
0
10
1644.000000
20
638.000000
0
SEQEND
0
POLYLINE
8
0
6
CONTINUOUS
66
1
62
252
10
0.0
20
0.0
30
0.000000
0
VERTEX
8
0
10
668.000000
20
617.000000
0
VERTEX
8
0
10
669.000000
20
618.000000
0
VERTEX
8
0
10
669.000000
20
628.000000
0
SEQEND
0
POLYLINE
8
0
6
CONTINUOUS
66
1
62
252
10
0.0
20
0.0
30
0.000000
0
VERTEX
8
0
10
871.000000
20
617.000000
0
VERTEX
8
0
10
872.000000
20
618.000000
0
VERTEX
8
0
10
872.000000
20
628.000000
0
SEQEND
0
POLYLINE
8
0
6
CONTINUOUS
66
1
62
250
10
0.0
20
0.0
30
0.000000
0
VERTEX
8
0
10
1448.000000
20
617.000000
0
VERTEX
8
0
10
1448.000000
20
628.000000
0
SEQEND
0
POLYLINE
8
0
6
CONTINUOUS
66
1
62
251
10
0.0
20
0.0
30
0.000000
0
VERTEX
8
0
10
1645.000000
20
602.000000
0
VERTEX
8
0
10
1645.000000
20
612.000000
0
VERTEX
8
0
10
1644.000000
20
613.000000
0
SEQEND
0
POLYLINE
8
0
6
CONTINUOUS
66
1
62
252
10
0.0
20
0.0
30
0.000000
0
VERTEX
8
0
10
668.000000
20
592.000000
0
VERTEX
8
0
10
669.000000
20
593.000000
0
VERTEX
8
0
10
669.000000
20
603.000000
0
SEQEND
0
POLYLINE
8
0
6
CONTINUOUS
66
1
62
252
10
0.0
20
0.0
30
0.000000
0
VERTEX
8
0
10
871.000000
20
592.000000
0
VERTEX
8
0
10
872.000000
20
593.000000
0
VERTEX
8
0
10
872.000000
20
603.000000
0
SEQEND
0
POLYLINE
8
0
6
CONTINUOUS
66
1
62
250
10
0.0
20
0.0
30
0.000000
0
VERTEX
8
0
10
1448.000000
20
592.000000
0
VERTEX
8
0
10
1448.000000
20
603.000000
0
SEQEND
0
POLYLINE
8
0
6
CONTINUOUS
66
1
62
251
10
0.0
20
0.0
30
0.000000
0
VERTEX
8
0
10
1645.000000
20
577.000000
0
VERTEX
8
0
10
1645.000000
20
587.000000
0
VERTEX
8
0
10
1644.000000
20
588.000000
0
SEQEND
0
POLYLINE
8
0
6
CONTINUOUS
66
1
62
252
10
0.0
20
0.0
30
0.000000
0
VERTEX
8
0
10
668.000000
20
567.000000
0
VERTEX
8
0
10
669.000000
20
568.000000
0
VERTEX
8
0
10
669.000000
20
578.000000
0
SEQEND
0
POLYLINE
8
0
6
CONTINUOUS
66
1
62
252
10
0.0
20
0.0
30
0.000000
0
VERTEX
8
0
10
871.000000
20
567.000000
0
VERTEX
8
0
10
872.000000
20
568.000000
0
VERTEX
8
0
10
872.000000
20
578.000000
0
SEQEND
0
POLYLINE
8
0
6
CONTINUOUS
66
1
62
250
10
0.0
20
0.0
30
0.000000
0
VERTEX
8
0
10
1448.000000
20
567.000000
0
VERTEX
8
0
10
1448.000000
20
578.000000
0
SEQEND
0
POLYLINE
8
0
6
CONTINUOUS
66
1
62
251
10
0.0
20
0.0
30
0.000000
0
VERTEX
8
0
10
1645.000000
20
552.000000
0
VERTEX
8
0
10
1645.000000
20
562.000000
0
VERTEX
8
0
10
1644.000000
20
563.000000
0
SEQEND
0
POLYLINE
8
0
6
CONTINUOUS
66
1
62
252
10
0.0
20
0.0
30
0.000000
0
VERTEX
8
0
10
668.000000
20
542.000000
0
VERTEX
8
0
10
669.000000
20
543.000000
0
VERTEX
8
0
10
669.000000
20
553.000000
0
SEQEND
0
POLYLINE
8
0
6
CONTINUOUS
66
1
62
252
10
0.0
20
0.0
30
0.000000
0
VERTEX
8
0
10
871.000000
20
542.000000
0
VERTEX
8
0
10
872.000000
20
543.000000
0
VERTEX
8
0
10
872.000000
20
553.000000
0
SEQEND
0
POLYLINE
8
0
6
CONTINUOUS
66
1
62
250
10
0.0
20
0.0
30
0.000000
0
VERTEX
8
0
10
1448.000000
20
542.000000
0
VERTEX
8
0
10
1448.000000
20
553.000000
0
SEQEND
0
POLYLINE
8
0
6
CONTINUOUS
66
1
62
251
10
0.0
20
0.0
30
0.000000
0
VERTEX
8
0
10
1645.000000
20
527.000000
0
VERTEX
8
0
10
1645.000000
20
537.000000
0
VERTEX
8
0
10
1644.000000
20
538.000000
0
SEQEND
0
POLYLINE
8
0
6
CONTINUOUS
66
1
62
252
10
0.0
20
0.0
30
0.000000
0
VERTEX
8
0
10
668.000000
20
517.000000
0
VERTEX
8
0
10
669.000000
20
518.000000
0
VERTEX
8
0
10
669.000000
20
528.000000
0
SEQEND
0
POLYLINE
8
0
6
CONTINUOUS
66
1
62
252
10
0.0
20
0.0
30
0.000000
0
VERTEX
8
0
10
871.000000
20
517.000000
0
VERTEX
8
0
10
872.000000
20
518.000000
0
VERTEX
8
0
10
872.000000
20
528.000000
0
SEQEND
0
POLYLINE
8
0
6
CONTINUOUS
66
1
62
250
10
0.0
20
0.0
30
0.000000
0
VERTEX
8
0
10
1448.000000
20
517.000000
0
VERTEX
8
0
10
1448.000000
20
528.000000
0
SEQEND
0
POLYLINE
8
0
6
CONTINUOUS
66
1
62
250
10
0.0
20
0.0
30
0.000000
0
VERTEX
8
0
10
1192.000000
20
512.000000
0
VERTEX
8
0
10
1221.946154
20
515.430769
0
VERTEX
8
0
10
1254.923077
20
521.384615
0
VERTEX
8
0
10
1266.911765
20
524.352941
0
VERTEX
8
0
10
1292.100000
20
531.800000
0
VERTEX
8
0
10
1300.100000
20
534.700000
0
VERTEX
8
0
10
1314.900000
20
541.200000
0
VERTEX
8
0
10
1316.000000
20
542.000000
0
VERTEX
8
0
10
1318.384615
20
552.923077
0
VERTEX
8
0
10
1318.700000
20
554.100000
42
-0.328305
0
VERTEX
8
0
10
1344.940000
20
572.420000
42
0.102944
0
VERTEX
8
0
10
1348.000000
20
575.000000
0
VERTEX
8
0
10
1348.000000
20
1063.000000
0
VERTEX
8
0
10
1345.000000
20
1066.000000
0
VERTEX
8
0
10
1340.067568
20
1066.405405
0
VERTEX
8
0
10
1332.100000
20
1069.200000
0
VERTEX
8
0
10
1327.846154
20
1071.769231
0
VERTEX
8
0
10
1322.000000
20
1077.000000
0
VERTEX
8
0
10
1320.800000
20
1079.900000
0
VERTEX
8
0
10
1318.384615
20
1086.076923
0
VERTEX
8
0
10
1317.000000
20
1095.000000
0
VERTEX
8
0
10
1313.000000
20
1099.000000
0
VERTEX
8
0
10
1296.900000
20
1104.800000
0
VERTEX
8
0
10
1293.100000
20
1106.300000
0
VERTEX
8
0
10
1259.911765
20
1115.647059
0
VERTEX
8
0
10
1253.088235
20
1117.352941
42
0.119405
0
VERTEX
8
0
10
1051.911765
20
1111.352941
0
VERTEX
8
0
10
1039.100000
20
1107.700000
0
VERTEX
8
0
10
1017.000000
20
1100.000000
0
VERTEX
8
0
10
1012.800000
20
1086.100000
42
-0.296705
0
VERTEX
8
0
10
983.053846
20
1067.569231
42
0.104664
0
VERTEX
8
0
10
980.000000
20
1065.000000
0
VERTEX
8
0
10
980.000000
20
573.000000
0
VERTEX
8
0
10
982.000000
20
571.000000
0
VERTEX
8
0
10
984.911765
20
570.647059
42
-0.403054
0
VERTEX
8
0
10
1016.000000
20
539.000000
0
VERTEX
8
0
10
1017.000000
20
538.000000
0
VERTEX
8
0
10
1040.100000
20
530.300000
0
VERTEX
8
0
10
1041.900000
20
529.700000
0
VERTEX
8
0
10
1075.076923
20
521.384615
0
VERTEX
8
0
10
1088.923077
20
518.615385
0
VERTEX
8
0
10
1124.951220
20
513.560976
0
VERTEX
8
0
10
1139.009085
20
512.490573
0
VERTEX
8
0
10
1192.000000
20
512.000000
0
SEQEND
0
POLYLINE
8
0
6
CONTINUOUS
66
1
62
251
10
0.0
20
0.0
30
0.000000
0
VERTEX
8
0
10
1645.000000
20
502.000000
0
VERTEX
8
0
10
1645.000000
20
512.000000
0
VERTEX
8
0
10
1644.000000
20
513.000000
0
SEQEND
0
POLYLINE
8
0
6
CONTINUOUS
66
1
62
252
10
0.0
20
0.0
30
0.000000
0
VERTEX
8
0
10
668.000000
20
492.000000
0
VERTEX
8
0
10
669.000000
20
493.000000
0
VERTEX
8
0
10
669.000000
20
503.000000
0
SEQEND
0
POLYLINE
8
0
6
CONTINUOUS
66
1
62
252
10
0.0
20
0.0
30
0.000000
0
VERTEX
8
0
10
871.000000
20
492.000000
0
VERTEX
8
0
10
872.000000
20
493.000000
0
VERTEX
8
0
10
872.000000
20
503.000000
0
SEQEND
0
POLYLINE
8
0
6
CONTINUOUS
66
1
62
250
10
0.0
20
0.0
30
0.000000
0
VERTEX
8
0
10
1448.000000
20
492.000000
0
VERTEX
8
0
10
1448.000000
20
503.000000
0
SEQEND
0
POLYLINE
8
0
6
CONTINUOUS
66
1
62
251
10
0.0
20
0.0
30
0.000000
0
VERTEX
8
0
10
1645.000000
20
477.000000
0
VERTEX
8
0
10
1645.000000
20
487.000000
0
VERTEX
8
0
10
1644.000000
20
488.000000
0
SEQEND
0
POLYLINE
8
0
6
CONTINUOUS
66
1
62
252
10
0.0
20
0.0
30
0.000000
0
VERTEX
8
0
10
668.000000
20
467.000000
0
VERTEX
8
0
10
669.000000
20
468.000000
0
VERTEX
8
0
10
669.000000
20
478.000000
0
SEQEND
0
POLYLINE
8
0
6
CONTINUOUS
66
1
62
252
10
0.0
20
0.0
30
0.000000
0
VERTEX
8
0
10
871.000000
20
467.000000
0
VERTEX
8
0
10
872.000000
20
468.000000
0
VERTEX
8
0
10
872.000000
20
478.000000
0
SEQEND
0
POLYLINE
8
0
6
CONTINUOUS
66
1
62
250
10
0.0
20
0.0
30
0.000000
0
VERTEX
8
0
10
1448.000000
20
467.000000
0
VERTEX
8
0
10
1448.000000
20
478.000000
0
SEQEND
0
POLYLINE
8
0
6
CONTINUOUS
66
1
62
251
10
0.0
20
0.0
30
0.000000
0
VERTEX
8
0
10
1645.000000
20
452.000000
0
VERTEX
8
0
10
1645.000000
20
462.000000
0
VERTEX
8
0
10
1644.000000
20
463.000000
0
SEQEND
0
POLYLINE
8
0
6
CONTINUOUS
66
1
62
252
10
0.0
20
0.0
30
0.000000
0
VERTEX
8
0
10
668.000000
20
442.000000
0
VERTEX
8
0
10
669.000000
20
443.000000
0
VERTEX
8
0
10
669.000000
20
453.000000
0
SEQEND
0
POLYLINE
8
0
6
CONTINUOUS
66
1
62
252
10
0.0
20
0.0
30
0.000000
0
VERTEX
8
0
10
871.000000
20
442.000000
0
VERTEX
8
0
10
872.000000
20
443.000000
0
VERTEX
8
0
10
872.000000
20
453.000000
0
SEQEND
0
POLYLINE
8
0
6
CONTINUOUS
66
1
62
250
10
0.0
20
0.0
30
0.000000
0
VERTEX
8
0
10
1448.000000
20
442.000000
0
VERTEX
8
0
10
1448.000000
20
453.000000
0
SEQEND
0
POLYLINE
8
0
6
CONTINUOUS
66
1
62
251
10
0.0
20
0.0
30
0.000000
0
VERTEX
8
0
10
1645.000000
20
427.000000
0
VERTEX
8
0
10
1645.000000
20
437.000000
0
VERTEX
8
0
10
1644.000000
20
438.000000
0
SEQEND
0
POLYLINE
8
0
6
CONTINUOUS
66
1
62
252
10
0.0
20
0.0
30
0.000000
0
VERTEX
8
0
10
668.000000
20
417.000000
0
VERTEX
8
0
10
669.000000
20
418.000000
0
VERTEX
8
0
10
669.000000
20
428.000000
0
SEQEND
0
POLYLINE
8
0
6
CONTINUOUS
66
1
62
252
10
0.0
20
0.0
30
0.000000
0
VERTEX
8
0
10
871.000000
20
417.000000
0
VERTEX
8
0
10
872.000000
20
418.000000
0
VERTEX
8
0
10
872.000000
20
428.000000
0
SEQEND
0
POLYLINE
8
0
6
CONTINUOUS
66
1
62
250
10
0.0
20
0.0
30
0.000000
0
VERTEX
8
0
10
1448.000000
20
417.000000
0
VERTEX
8
0
10
1448.000000
20
428.000000
0
SEQEND
0
POLYLINE
8
0
6
CONTINUOUS
66
1
62
251
10
0.0
20
0.0
30
0.000000
0
VERTEX
8
0
10
1645.000000
20
402.000000
0
VERTEX
8
0
10
1645.000000
20
412.000000
0
VERTEX
8
0
10
1644.000000
20
413.000000
0
SEQEND
0
POLYLINE
8
0
6
CONTINUOUS
66
1
62
252
10
0.0
20
0.0
30
0.000000
0
VERTEX
8
0
10
668.000000
20
392.000000
0
VERTEX
8
0
10
669.000000
20
393.000000
0
VERTEX
8
0
10
669.000000
20
403.000000
0
SEQEND
0
POLYLINE
8
0
6
CONTINUOUS
66
1
62
252
10
0.0
20
0.0
30
0.000000
0
VERTEX
8
0
10
871.000000
20
392.000000
0
VERTEX
8
0
10
872.000000
20
393.000000
0
VERTEX
8
0
10
872.000000
20
403.000000
0
SEQEND
0
POLYLINE
8
0
6
CONTINUOUS
66
1
62
250
10
0.0
20
0.0
30
0.000000
0
VERTEX
8
0
10
1448.000000
20
392.000000
0
VERTEX
8
0
10
1448.000000
20
403.000000
0
SEQEND
0
POLYLINE
8
0
6
CONTINUOUS
66
1
62
251
10
0.0
20
0.0
30
0.000000
0
VERTEX
8
0
10
1645.000000
20
377.000000
0
VERTEX
8
0
10
1645.000000
20
387.000000
0
VERTEX
8
0
10
1644.000000
20
388.000000
0
SEQEND
0
POLYLINE
8
0
6
CONTINUOUS
66
1
62
252
10
0.0
20
0.0
30
0.000000
0
VERTEX
8
0
10
668.000000
20
367.000000
0
VERTEX
8
0
10
669.000000
20
368.000000
0
VERTEX
8
0
10
669.000000
20
378.000000
0
SEQEND
0
POLYLINE
8
0
6
CONTINUOUS
66
1
62
252
10
0.0
20
0.0
30
0.000000
0
VERTEX
8
0
10
871.000000
20
367.000000
0
VERTEX
8
0
10
872.000000
20
368.000000
0
VERTEX
8
0
10
872.000000
20
378.000000
0
SEQEND
0
POLYLINE
8
0
6
CONTINUOUS
66
1
62
250
10
0.0
20
0.0
30
0.000000
0
VERTEX
8
0
10
1448.000000
20
367.000000
0
VERTEX
8
0
10
1448.000000
20
378.000000
0
SEQEND
0
POLYLINE
8
0
6
CONTINUOUS
66
1
62
251
10
0.0
20
0.0
30
0.000000
0
VERTEX
8
0
10
1645.000000
20
352.000000
0
VERTEX
8
0
10
1645.000000
20
362.000000
0
VERTEX
8
0
10
1644.000000
20
363.000000
0
SEQEND
0
POLYLINE
8
0
6
CONTINUOUS
66
1
62
252
10
0.0
20
0.0
30
0.000000
0
VERTEX
8
0
10
668.000000
20
342.000000
0
VERTEX
8
0
10
669.000000
20
343.000000
0
VERTEX
8
0
10
669.000000
20
353.000000
0
SEQEND
0
POLYLINE
8
0
6
CONTINUOUS
66
1
62
252
10
0.0
20
0.0
30
0.000000
0
VERTEX
8
0
10
871.000000
20
342.000000
0
VERTEX
8
0
10
872.000000
20
343.000000
0
VERTEX
8
0
10
872.000000
20
353.000000
0
SEQEND
0
POLYLINE
8
0
6
CONTINUOUS
66
1
62
250
10
0.0
20
0.0
30
0.000000
0
VERTEX
8
0
10
1448.000000
20
342.000000
0
VERTEX
8
0
10
1448.000000
20
353.000000
0
SEQEND
0
POLYLINE
8
0
6
CONTINUOUS
66
1
62
251
10
0.0
20
0.0
30
0.000000
0
VERTEX
8
0
10
669.000000
20
325.000000
0
VERTEX
8
0
10
669.000000
20
328.000000
0
SEQEND
0
POLYLINE
8
0
6
CONTINUOUS
66
1
62
251
10
0.0
20
0.0
30
0.000000
0
VERTEX
8
0
10
872.000000
20
325.000000
0
VERTEX
8
0
10
872.000000
20
328.000000
0
SEQEND
0
POLYLINE
8
0
6
CONTINUOUS
66
1
62
250
10
0.0
20
0.0
30
0.000000
0
VERTEX
8
0
10
96.000000
20
324.000000
0
VERTEX
8
0
10
108.000000
20
324.000000
0
SEQEND
0
POLYLINE
8
0
6
CONTINUOUS
66
1
62
250
10
0.0
20
0.0
30
0.000000
0
VERTEX
8
0
10
121.000000
20
324.000000
0
VERTEX
8
0
10
133.000000
20
324.000000
0
SEQEND
0
POLYLINE
8
0
6
CONTINUOUS
66
1
62
250
10
0.0
20
0.0
30
0.000000
0
VERTEX
8
0
10
146.000000
20
324.000000
0
VERTEX
8
0
10
158.000000
20
324.000000
0
SEQEND
0
POLYLINE
8
0
6
CONTINUOUS
66
1
62
250
10
0.0
20
0.0
30
0.000000
0
VERTEX
8
0
10
171.000000
20
324.000000
0
VERTEX
8
0
10
183.000000
20
324.000000
0
SEQEND
0
POLYLINE
8
0
6
CONTINUOUS
66
1
62
250
10
0.0
20
0.0
30
0.000000
0
VERTEX
8
0
10
196.000000
20
324.000000
0
VERTEX
8
0
10
208.000000
20
324.000000
0
SEQEND
0
POLYLINE
8
0
6
CONTINUOUS
66
1
62
250
10
0.0
20
0.0
30
0.000000
0
VERTEX
8
0
10
221.000000
20
324.000000
0
VERTEX
8
0
10
233.000000
20
324.000000
0
SEQEND
0
POLYLINE
8
0
6
CONTINUOUS
66
1
62
250
10
0.0
20
0.0
30
0.000000
0
VERTEX
8
0
10
246.000000
20
324.000000
0
VERTEX
8
0
10
258.000000
20
324.000000
0
SEQEND
0
POLYLINE
8
0
6
CONTINUOUS
66
1
62
250
10
0.0
20
0.0
30
0.000000
0
VERTEX
8
0
10
271.000000
20
324.000000
0
VERTEX
8
0
10
283.000000
20
324.000000
0
SEQEND
0
POLYLINE
8
0
6
CONTINUOUS
66
1
62
250
10
0.0
20
0.0
30
0.000000
0
VERTEX
8
0
10
296.000000
20
324.000000
0
VERTEX
8
0
10
308.000000
20
324.000000
0
SEQEND
0
POLYLINE
8
0
6
CONTINUOUS
66
1
62
250
10
0.0
20
0.0
30
0.000000
0
VERTEX
8
0
10
321.000000
20
324.000000
0
VERTEX
8
0
10
333.000000
20
324.000000
0
SEQEND
0
POLYLINE
8
0
6
CONTINUOUS
66
1
62
250
10
0.0
20
0.0
30
0.000000
0
VERTEX
8
0
10
346.000000
20
324.000000
0
VERTEX
8
0
10
358.000000
20
324.000000
0
SEQEND
0
POLYLINE
8
0
6
CONTINUOUS
66
1
62
250
10
0.0
20
0.0
30
0.000000
0
VERTEX
8
0
10
371.000000
20
324.000000
0
VERTEX
8
0
10
383.000000
20
324.000000
0
SEQEND
0
POLYLINE
8
0
6
CONTINUOUS
66
1
62
250
10
0.0
20
0.0
30
0.000000
0
VERTEX
8
0
10
396.000000
20
324.000000
0
VERTEX
8
0
10
408.000000
20
324.000000
0
SEQEND
0
POLYLINE
8
0
6
CONTINUOUS
66
1
62
250
10
0.0
20
0.0
30
0.000000
0
VERTEX
8
0
10
421.000000
20
324.000000
0
VERTEX
8
0
10
433.000000
20
324.000000
0
SEQEND
0
POLYLINE
8
0
6
CONTINUOUS
66
1
62
250
10
0.0
20
0.0
30
0.000000
0
VERTEX
8
0
10
446.000000
20
324.000000
0
VERTEX
8
0
10
458.000000
20
324.000000
0
SEQEND
0
POLYLINE
8
0
6
CONTINUOUS
66
1
62
250
10
0.0
20
0.0
30
0.000000
0
VERTEX
8
0
10
471.000000
20
324.000000
0
VERTEX
8
0
10
483.000000
20
324.000000
0
SEQEND
0
POLYLINE
8
0
6
CONTINUOUS
66
1
62
250
10
0.0
20
0.0
30
0.000000
0
VERTEX
8
0
10
496.000000
20
324.000000
0
VERTEX
8
0
10
508.000000
20
324.000000
0
SEQEND
0
POLYLINE
8
0
6
CONTINUOUS
66
1
62
250
10
0.0
20
0.0
30
0.000000
0
VERTEX
8
0
10
521.000000
20
324.000000
0
VERTEX
8
0
10
533.000000
20
324.000000
0
SEQEND
0
POLYLINE
8
0
6
CONTINUOUS
66
1
62
250
10
0.0
20
0.0
30
0.000000
0
VERTEX
8
0
10
546.000000
20
324.000000
0
VERTEX
8
0
10
558.000000
20
324.000000
0
SEQEND
0
POLYLINE
8
0
6
CONTINUOUS
66
1
62
250
10
0.0
20
0.0
30
0.000000
0
VERTEX
8
0
10
571.000000
20
324.000000
0
VERTEX
8
0
10
583.000000
20
324.000000
0
SEQEND
0
POLYLINE
8
0
6
CONTINUOUS
66
1
62
250
10
0.0
20
0.0
30
0.000000
0
VERTEX
8
0
10
596.000000
20
324.000000
0
VERTEX
8
0
10
608.000000
20
324.000000
0
SEQEND
0
POLYLINE
8
0
6
CONTINUOUS
66
1
62
250
10
0.0
20
0.0
30
0.000000
0
VERTEX
8
0
10
621.000000
20
324.000000
0
VERTEX
8
0
10
633.000000
20
324.000000
0
SEQEND
0
POLYLINE
8
0
6
CONTINUOUS
66
1
62
250
10
0.0
20
0.0
30
0.000000
0
VERTEX
8
0
10
646.000000
20
324.000000
0
VERTEX
8
0
10
658.000000
20
324.000000
0
SEQEND
0
POLYLINE
8
0
6
CONTINUOUS
66
1
62
250
10
0.0
20
0.0
30
0.000000
0
VERTEX
8
0
10
696.000000
20
324.000000
0
VERTEX
8
0
10
708.000000
20
324.000000
0
SEQEND
0
POLYLINE
8
0
6
CONTINUOUS
66
1
62
250
10
0.0
20
0.0
30
0.000000
0
VERTEX
8
0
10
721.000000
20
324.000000
0
VERTEX
8
0
10
733.000000
20
324.000000
0
SEQEND
0
POLYLINE
8
0
6
CONTINUOUS
66
1
62
250
10
0.0
20
0.0
30
0.000000
0
VERTEX
8
0
10
746.000000
20
324.000000
0
VERTEX
8
0
10
758.000000
20
324.000000
0
SEQEND
0
POLYLINE
8
0
6
CONTINUOUS
66
1
62
250
10
0.0
20
0.0
30
0.000000
0
VERTEX
8
0
10
771.000000
20
324.000000
0
VERTEX
8
0
10
783.000000
20
324.000000
0
SEQEND
0
POLYLINE
8
0
6
CONTINUOUS
66
1
62
250
10
0.0
20
0.0
30
0.000000
0
VERTEX
8
0
10
796.000000
20
324.000000
0
VERTEX
8
0
10
808.000000
20
324.000000
0
SEQEND
0
POLYLINE
8
0
6
CONTINUOUS
66
1
62
250
10
0.0
20
0.0
30
0.000000
0
VERTEX
8
0
10
821.000000
20
324.000000
0
VERTEX
8
0
10
833.000000
20
324.000000
0
SEQEND
0
POLYLINE
8
0
6
CONTINUOUS
66
1
62
250
10
0.0
20
0.0
30
0.000000
0
VERTEX
8
0
10
846.000000
20
324.000000
0
VERTEX
8
0
10
858.000000
20
324.000000
0
SEQEND
0
POLYLINE
8
0
6
CONTINUOUS
66
1
62
250
10
0.0
20
0.0
30
0.000000
0
VERTEX
8
0
10
896.000000
20
324.000000
0
VERTEX
8
0
10
908.000000
20
324.000000
0
SEQEND
0
POLYLINE
8
0
6
CONTINUOUS
66
1
62
250
10
0.0
20
0.0
30
0.000000
0
VERTEX
8
0
10
921.000000
20
324.000000
0
VERTEX
8
0
10
933.000000
20
324.000000
0
SEQEND
0
POLYLINE
8
0
6
CONTINUOUS
66
1
62
250
10
0.0
20
0.0
30
0.000000
0
VERTEX
8
0
10
946.000000
20
324.000000
0
VERTEX
8
0
10
958.000000
20
324.000000
0
SEQEND
0
POLYLINE
8
0
6
CONTINUOUS
66
1
62
250
10
0.0
20
0.0
30
0.000000
0
VERTEX
8
0
10
971.000000
20
324.000000
0
VERTEX
8
0
10
983.000000
20
324.000000
0
SEQEND
0
POLYLINE
8
0
6
CONTINUOUS
66
1
62
250
10
0.0
20
0.0
30
0.000000
0
VERTEX
8
0
10
996.000000
20
324.000000
0
VERTEX
8
0
10
1008.000000
20
324.000000
0
SEQEND
0
POLYLINE
8
0
6
CONTINUOUS
66
1
62
250
10
0.0
20
0.0
30
0.000000
0
VERTEX
8
0
10
1021.000000
20
324.000000
0
VERTEX
8
0
10
1033.000000
20
324.000000
0
SEQEND
0
POLYLINE
8
0
6
CONTINUOUS
66
1
62
250
10
0.0
20
0.0
30
0.000000
0
VERTEX
8
0
10
1046.000000
20
324.000000
0
VERTEX
8
0
10
1058.000000
20
324.000000
0
SEQEND
0
POLYLINE
8
0
6
CONTINUOUS
66
1
62
250
10
0.0
20
0.0
30
0.000000
0
VERTEX
8
0
10
1071.000000
20
324.000000
0
VERTEX
8
0
10
1083.000000
20
324.000000
0
SEQEND
0
POLYLINE
8
0
6
CONTINUOUS
66
1
62
250
10
0.0
20
0.0
30
0.000000
0
VERTEX
8
0
10
1096.000000
20
324.000000
0
VERTEX
8
0
10
1108.000000
20
324.000000
0
SEQEND
0
POLYLINE
8
0
6
CONTINUOUS
66
1
62
250
10
0.0
20
0.0
30
0.000000
0
VERTEX
8
0
10
1121.000000
20
324.000000
0
VERTEX
8
0
10
1133.000000
20
324.000000
0
SEQEND
0
POLYLINE
8
0
6
CONTINUOUS
66
1
62
250
10
0.0
20
0.0
30
0.000000
0
VERTEX
8
0
10
1146.000000
20
324.000000
0
VERTEX
8
0
10
1158.000000
20
324.000000
0
SEQEND
0
POLYLINE
8
0
6
CONTINUOUS
66
1
62
250
10
0.0
20
0.0
30
0.000000
0
VERTEX
8
0
10
1171.000000
20
324.000000
0
VERTEX
8
0
10
1183.000000
20
324.000000
0
SEQEND
0
POLYLINE
8
0
6
CONTINUOUS
66
1
62
250
10
0.0
20
0.0
30
0.000000
0
VERTEX
8
0
10
1196.000000
20
324.000000
0
VERTEX
8
0
10
1208.000000
20
324.000000
0
SEQEND
0
POLYLINE
8
0
6
CONTINUOUS
66
1
62
250
10
0.0
20
0.0
30
0.000000
0
VERTEX
8
0
10
1221.000000
20
324.000000
0
VERTEX
8
0
10
1233.000000
20
324.000000
0
SEQEND
0
POLYLINE
8
0
6
CONTINUOUS
66
1
62
250
10
0.0
20
0.0
30
0.000000
0
VERTEX
8
0
10
1246.000000
20
324.000000
0
VERTEX
8
0
10
1258.000000
20
324.000000
0
SEQEND
0
POLYLINE
8
0
6
CONTINUOUS
66
1
62
250
10
0.0
20
0.0
30
0.000000
0
VERTEX
8
0
10
1271.000000
20
324.000000
0
VERTEX
8
0
10
1283.000000
20
324.000000
0
SEQEND
0
POLYLINE
8
0
6
CONTINUOUS
66
1
62
250
10
0.0
20
0.0
30
0.000000
0
VERTEX
8
0
10
1296.000000
20
324.000000
0
VERTEX
8
0
10
1308.000000
20
324.000000
0
SEQEND
0
POLYLINE
8
0
6
CONTINUOUS
66
1
62
250
10
0.0
20
0.0
30
0.000000
0
VERTEX
8
0
10
1321.000000
20
324.000000
0
VERTEX
8
0
10
1333.000000
20
324.000000
0
SEQEND
0
POLYLINE
8
0
6
CONTINUOUS
66
1
62
250
10
0.0
20
0.0
30
0.000000
0
VERTEX
8
0
10
1346.000000
20
324.000000
0
VERTEX
8
0
10
1358.000000
20
324.000000
0
SEQEND
0
POLYLINE
8
0
6
CONTINUOUS
66
1
62
250
10
0.0
20
0.0
30
0.000000
0
VERTEX
8
0
10
1371.000000
20
324.000000
0
VERTEX
8
0
10
1383.000000
20
324.000000
0
SEQEND
0
POLYLINE
8
0
6
CONTINUOUS
66
1
62
250
10
0.0
20
0.0
30
0.000000
0
VERTEX
8
0
10
1396.000000
20
324.000000
0
VERTEX
8
0
10
1408.000000
20
324.000000
0
SEQEND
0
POLYLINE
8
0
6
CONTINUOUS
66
1
62
250
10
0.0
20
0.0
30
0.000000
0
VERTEX
8
0
10
1421.000000
20
324.000000
0
VERTEX
8
0
10
1433.000000
20
324.000000
0
SEQEND
0
POLYLINE
8
0
6
CONTINUOUS
66
1
62
250
10
0.0
20
0.0
30
0.000000
0
VERTEX
8
0
10
1459.000000
20
324.000000
0
VERTEX
8
0
10
1449.000000
20
324.000000
0
VERTEX
8
0
10
1448.000000
20
325.000000
0
SEQEND
0
POLYLINE
8
0
6
CONTINUOUS
66
1
62
250
10
0.0
20
0.0
30
0.000000
0
VERTEX
8
0
10
1472.000000
20
324.000000
0
VERTEX
8
0
10
1484.000000
20
324.000000
0
SEQEND
0
POLYLINE
8
0
6
CONTINUOUS
66
1
62
250
10
0.0
20
0.0
30
0.000000
0
VERTEX
8
0
10
1497.000000
20
324.000000
0
VERTEX
8
0
10
1509.000000
20
324.000000
0
SEQEND
0
POLYLINE
8
0
6
CONTINUOUS
66
1
62
250
10
0.0
20
0.0
30
0.000000
0
VERTEX
8
0
10
1522.000000
20
324.000000
0
VERTEX
8
0
10
1534.000000
20
324.000000
0
SEQEND
0
POLYLINE
8
0
6
CONTINUOUS
66
1
62
250
10
0.0
20
0.0
30
0.000000
0
VERTEX
8
0
10
1547.000000
20
324.000000
0
VERTEX
8
0
10
1559.000000
20
324.000000
0
SEQEND
0
POLYLINE
8
0
6
CONTINUOUS
66
1
62
250
10
0.0
20
0.0
30
0.000000
0
VERTEX
8
0
10
1572.000000
20
324.000000
0
VERTEX
8
0
10
1584.000000
20
324.000000
0
SEQEND
0
POLYLINE
8
0
6
CONTINUOUS
66
1
62
250
10
0.0
20
0.0
30
0.000000
0
VERTEX
8
0
10
1597.000000
20
324.000000
0
VERTEX
8
0
10
1609.000000
20
324.000000
0
SEQEND
0
POLYLINE
8
0
6
CONTINUOUS
66
1
62
250
10
0.0
20
0.0
30
0.000000
0
VERTEX
8
0
10
1622.000000
20
324.000000
0
VERTEX
8
0
10
1634.000000
20
324.000000
0
SEQEND
0
POLYLINE
8
0
6
CONTINUOUS
66
1
62
250
10
0.0
20
0.0
30
0.000000
0
VERTEX
8
0
10
1645.000000
20
324.000000
0
VERTEX
8
0
10
1645.900000
20
324.200000
0
VERTEX
8
0
10
1738.000000
20
346.000000
0
VERTEX
8
0
10
1738.200000
20
346.900000
0
VERTEX
8
0
10
1739.000000
20
348.000000
0
VERTEX
8
0
10
1739.000000
20
1256.000000
0
VERTEX
8
0
10
1736.000000
20
1259.000000
0
VERTEX
8
0
10
1733.088235
20
1259.352941
0
VERTEX
8
0
10
1647.100000
20
1279.200000
0
VERTEX
8
0
10
1644.000000
20
1280.000000
0
VERTEX
8
0
10
1635.000000
20
1279.000000
0
SEQEND
0
POLYLINE
8
0
6
CONTINUOUS
66
1
62
250
10
0.0
20
0.0
30
0.000000
0
VERTEX
8
0
10
100.000000
20
269.000000
0
VERTEX
8
0
10
112.000000
20
269.000000
0
SEQEND
0
POLYLINE
8
0
6
CONTINUOUS
66
1
62
250
10
0.0
20
0.0
30
0.000000
0
VERTEX
8
0
10
125.000000
20
269.000000
0
VERTEX
8
0
10
137.000000
20
269.000000
0
SEQEND
0
POLYLINE
8
0
6
CONTINUOUS
66
1
62
250
10
0.0
20
0.0
30
0.000000
0
VERTEX
8
0
10
150.000000
20
269.000000
0
VERTEX
8
0
10
162.000000
20
269.000000
0
SEQEND
0
POLYLINE
8
0
6
CONTINUOUS
66
1
62
250
10
0.0
20
0.0
30
0.000000
0
VERTEX
8
0
10
175.000000
20
269.000000
0
VERTEX
8
0
10
187.000000
20
269.000000
0
SEQEND
0
POLYLINE
8
0
6
CONTINUOUS
66
1
62
250
10
0.0
20
0.0
30
0.000000
0
VERTEX
8
0
10
200.000000
20
269.000000
0
VERTEX
8
0
10
212.000000
20
269.000000
0
SEQEND
0
POLYLINE
8
0
6
CONTINUOUS
66
1
62
250
10
0.0
20
0.0
30
0.000000
0
VERTEX
8
0
10
225.000000
20
269.000000
0
VERTEX
8
0
10
237.000000
20
269.000000
0
SEQEND
0
POLYLINE
8
0
6
CONTINUOUS
66
1
62
250
10
0.0
20
0.0
30
0.000000
0
VERTEX
8
0
10
250.000000
20
269.000000
0
VERTEX
8
0
10
262.000000
20
269.000000
0
SEQEND
0
POLYLINE
8
0
6
CONTINUOUS
66
1
62
250
10
0.0
20
0.0
30
0.000000
0
VERTEX
8
0
10
487.000000
20
269.000000
0
VERTEX
8
0
10
479.000000
20
271.000000
0
VERTEX
8
0
10
477.100000
20
270.700000
0
VERTEX
8
0
10
476.000000
20
270.000000
0
VERTEX
8
0
10
270.000000
20
270.000000
0
VERTEX
8
0
10
268.000000
20
272.000000
0
VERTEX
8
0
10
268.000000
20
281.000000
0
VERTEX
8
0
10
477.000000
20
281.000000
0
VERTEX
8
0
10
479.000000
20
279.000000
0
VERTEX
8
0
10
479.000000
20
271.000000
0
SEQEND
0
POLYLINE
8
0
6
CONTINUOUS
66
1
62
250
10
0.0
20
0.0
30
0.000000
0
VERTEX
8
0
10
500.000000
20
269.000000
0
VERTEX
8
0
10
512.000000
20
269.000000
0
SEQEND
0
POLYLINE
8
0
6
CONTINUOUS
66
1
62
250
10
0.0
20
0.0
30
0.000000
0
VERTEX
8
0
10
525.000000
20
269.000000
0
VERTEX
8
0
10
537.000000
20
269.000000
0
SEQEND
0
POLYLINE
8
0
6
CONTINUOUS
66
1
62
250
10
0.0
20
0.0
30
0.000000
0
VERTEX
8
0
10
550.000000
20
269.000000
0
VERTEX
8
0
10
562.000000
20
269.000000
0
SEQEND
0
POLYLINE
8
0
6
CONTINUOUS
66
1
62
250
10
0.0
20
0.0
30
0.000000
0
VERTEX
8
0
10
575.000000
20
269.000000
0
VERTEX
8
0
10
587.000000
20
269.000000
0
SEQEND
0
POLYLINE
8
0
6
CONTINUOUS
66
1
62
250
10
0.0
20
0.0
30
0.000000
0
VERTEX
8
0
10
600.000000
20
269.000000
0
VERTEX
8
0
10
612.000000
20
269.000000
0
SEQEND
0
POLYLINE
8
0
6
CONTINUOUS
66
1
62
250
10
0.0
20
0.0
30
0.000000
0
VERTEX
8
0
10
625.000000
20
269.000000
0
VERTEX
8
0
10
637.000000
20
269.000000
0
SEQEND
0
POLYLINE
8
0
6
CONTINUOUS
66
1
62
250
10
0.0
20
0.0
30
0.000000
0
VERTEX
8
0
10
650.000000
20
269.000000
0
VERTEX
8
0
10
662.000000
20
269.000000
0
SEQEND
0
POLYLINE
8
0
6
CONTINUOUS
66
1
62
250
10
0.0
20
0.0
30
0.000000
0
VERTEX
8
0
10
674.000000
20
269.000000
0
VERTEX
8
0
10
687.000000
20
269.000000
0
SEQEND
0
POLYLINE
8
0
6
CONTINUOUS
66
1
62
250
10
0.0
20
0.0
30
0.000000
0
VERTEX
8
0
10
700.000000
20
269.000000
0
VERTEX
8
0
10
712.000000
20
269.000000
0
SEQEND
0
POLYLINE
8
0
6
CONTINUOUS
66
1
62
250
10
0.0
20
0.0
30
0.000000
0
VERTEX
8
0
10
725.000000
20
269.000000
0
VERTEX
8
0
10
737.000000
20
269.000000
0
SEQEND
0
POLYLINE
8
0
6
CONTINUOUS
66
1
62
250
10
0.0
20
0.0
30
0.000000
0
VERTEX
8
0
10
750.000000
20
269.000000
0
VERTEX
8
0
10
762.000000
20
269.000000
0
SEQEND
0
POLYLINE
8
0
6
CONTINUOUS
66
1
62
250
10
0.0
20
0.0
30
0.000000
0
VERTEX
8
0
10
775.000000
20
269.000000
0
VERTEX
8
0
10
787.000000
20
269.000000
0
SEQEND
0
POLYLINE
8
0
6
CONTINUOUS
66
1
62
250
10
0.0
20
0.0
30
0.000000
0
VERTEX
8
0
10
800.000000
20
269.000000
0
VERTEX
8
0
10
812.000000
20
269.000000
0
SEQEND
0
POLYLINE
8
0
6
CONTINUOUS
66
1
62
250
10
0.0
20
0.0
30
0.000000
0
VERTEX
8
0
10
825.000000
20
269.000000
0
VERTEX
8
0
10
837.000000
20
269.000000
0
SEQEND
0
POLYLINE
8
0
6
CONTINUOUS
66
1
62
250
10
0.0
20
0.0
30
0.000000
0
VERTEX
8
0
10
850.000000
20
269.000000
0
VERTEX
8
0
10
862.000000
20
269.000000
0
SEQEND
0
POLYLINE
8
0
6
CONTINUOUS
66
1
62
250
10
0.0
20
0.0
30
0.000000
0
VERTEX
8
0
10
878.000000
20
269.000000
0
VERTEX
8
0
10
892.000000
20
269.000000
0
SEQEND
0
POLYLINE
8
0
6
CONTINUOUS
66
1
62
250
10
0.0
20
0.0
30
0.000000
0
VERTEX
8
0
10
905.000000
20
269.000000
0
VERTEX
8
0
10
917.000000
20
269.000000
0
SEQEND
0
POLYLINE
8
0
6
CONTINUOUS
66
1
62
250
10
0.0
20
0.0
30
0.000000
0
VERTEX
8
0
10
930.000000
20
269.000000
0
VERTEX
8
0
10
942.000000
20
269.000000
0
SEQEND
0
POLYLINE
8
0
6
CONTINUOUS
66
1
62
250
10
0.0
20
0.0
30
0.000000
0
VERTEX
8
0
10
955.000000
20
269.000000
0
VERTEX
8
0
10
967.000000
20
269.000000
0
SEQEND
0
POLYLINE
8
0
6
CONTINUOUS
66
1
62
250
10
0.0
20
0.0
30
0.000000
0
VERTEX
8
0
10
980.000000
20
269.000000
0
VERTEX
8
0
10
992.000000
20
269.000000
0
SEQEND
0
POLYLINE
8
0
6
CONTINUOUS
66
1
62
250
10
0.0
20
0.0
30
0.000000
0
VERTEX
8
0
10
1005.000000
20
269.000000
0
VERTEX
8
0
10
1017.000000
20
269.000000
0
SEQEND
0
POLYLINE
8
0
6
CONTINUOUS
66
1
62
250
10
0.0
20
0.0
30
0.000000
0
VERTEX
8
0
10
1030.000000
20
269.000000
0
VERTEX
8
0
10
1042.000000
20
269.000000
0
SEQEND
0
POLYLINE
8
0
6
CONTINUOUS
66
1
62
250
10
0.0
20
0.0
30
0.000000
0
VERTEX
8
0
10
1055.000000
20
269.000000
0
VERTEX
8
0
10
1067.000000
20
269.000000
0
SEQEND
0
POLYLINE
8
0
6
CONTINUOUS
66
1
62
250
10
0.0
20
0.0
30
0.000000
0
VERTEX
8
0
10
1080.000000
20
269.000000
0
VERTEX
8
0
10
1092.000000
20
269.000000
0
SEQEND
0
POLYLINE
8
0
6
CONTINUOUS
66
1
62
250
10
0.0
20
0.0
30
0.000000
0
VERTEX
8
0
10
1105.000000
20
269.000000
0
VERTEX
8
0
10
1117.000000
20
269.000000
0
SEQEND
0
POLYLINE
8
0
6
CONTINUOUS
66
1
62
250
10
0.0
20
0.0
30
0.000000
0
VERTEX
8
0
10
1130.000000
20
269.000000
0
VERTEX
8
0
10
1142.000000
20
269.000000
0
SEQEND
0
POLYLINE
8
0
6
CONTINUOUS
66
1
62
250
10
0.0
20
0.0
30
0.000000
0
VERTEX
8
0
10
1155.000000
20
269.000000
0
VERTEX
8
0
10
1167.000000
20
269.000000
0
SEQEND
0
POLYLINE
8
0
6
CONTINUOUS
66
1
62
250
10
0.0
20
0.0
30
0.000000
0
VERTEX
8
0
10
1180.000000
20
269.000000
0
VERTEX
8
0
10
1192.000000
20
269.000000
0
SEQEND
0
POLYLINE
8
0
6
CONTINUOUS
66
1
62
250
10
0.0
20
0.0
30
0.000000
0
VERTEX
8
0
10
1205.000000
20
269.000000
0
VERTEX
8
0
10
1217.000000
20
269.000000
0
SEQEND
0
POLYLINE
8
0
6
CONTINUOUS
66
1
62
250
10
0.0
20
0.0
30
0.000000
0
VERTEX
8
0
10
1230.000000
20
269.000000
0
VERTEX
8
0
10
1242.000000
20
269.000000
0
SEQEND
0
POLYLINE
8
0
6
CONTINUOUS
66
1
62
250
10
0.0
20
0.0
30
0.000000
0
VERTEX
8
0
10
1255.000000
20
269.000000
0
VERTEX
8
0
10
1267.000000
20
269.000000
0
SEQEND
0
POLYLINE
8
0
6
CONTINUOUS
66
1
62
250
10
0.0
20
0.0
30
0.000000
0
VERTEX
8
0
10
1280.000000
20
269.000000
0
VERTEX
8
0
10
1292.000000
20
269.000000
0
SEQEND
0
POLYLINE
8
0
6
CONTINUOUS
66
1
62
250
10
0.0
20
0.0
30
0.000000
0
VERTEX
8
0
10
1305.000000
20
269.000000
0
VERTEX
8
0
10
1317.000000
20
269.000000
0
SEQEND
0
POLYLINE
8
0
6
CONTINUOUS
66
1
62
250
10
0.0
20
0.0
30
0.000000
0
VERTEX
8
0
10
1330.000000
20
269.000000
0
VERTEX
8
0
10
1342.000000
20
269.000000
0
SEQEND
0
POLYLINE
8
0
6
CONTINUOUS
66
1
62
250
10
0.0
20
0.0
30
0.000000
0
VERTEX
8
0
10
1355.000000
20
269.000000
0
VERTEX
8
0
10
1367.000000
20
269.000000
0
SEQEND
0
POLYLINE
8
0
6
CONTINUOUS
66
1
62
250
10
0.0
20
0.0
30
0.000000
0
VERTEX
8
0
10
1380.000000
20
269.000000
0
VERTEX
8
0
10
1392.000000
20
269.000000
0
SEQEND
0
POLYLINE
8
0
6
CONTINUOUS
66
1
62
250
10
0.0
20
0.0
30
0.000000
0
VERTEX
8
0
10
1405.000000
20
269.000000
0
VERTEX
8
0
10
1417.000000
20
269.000000
0
SEQEND
0
POLYLINE
8
0
6
CONTINUOUS
66
1
62
250
10
0.0
20
0.0
30
0.000000
0
VERTEX
8
0
10
1430.000000
20
269.000000
0
VERTEX
8
0
10
1443.000000
20
269.000000
0
SEQEND
0
POLYLINE
8
0
6
CONTINUOUS
66
1
62
250
10
0.0
20
0.0
30
0.000000
0
VERTEX
8
0
10
1456.000000
20
269.000000
0
VERTEX
8
0
10
1469.000000
20
269.000000
0
SEQEND
0
POLYLINE
8
0
6
CONTINUOUS
66
1
62
250
10
0.0
20
0.0
30
0.000000
0
VERTEX
8
0
10
1482.000000
20
269.000000
0
VERTEX
8
0
10
1494.000000
20
269.000000
0
SEQEND
0
POLYLINE
8
0
6
CONTINUOUS
66
1
62
250
10
0.0
20
0.0
30
0.000000
0
VERTEX
8
0
10
1507.000000
20
269.000000
0
VERTEX
8
0
10
1519.000000
20
269.000000
0
SEQEND
0
POLYLINE
8
0
6
CONTINUOUS
66
1
62
250
10
0.0
20
0.0
30
0.000000
0
VERTEX
8
0
10
1532.000000
20
269.000000
0
VERTEX
8
0
10
1544.000000
20
269.000000
0
SEQEND
0
POLYLINE
8
0
6
CONTINUOUS
66
1
62
250
10
0.0
20
0.0
30
0.000000
0
VERTEX
8
0
10
1557.000000
20
269.000000
0
VERTEX
8
0
10
1569.000000
20
269.000000
0
SEQEND
0
POLYLINE
8
0
6
CONTINUOUS
66
1
62
250
10
0.0
20
0.0
30
0.000000
0
VERTEX
8
0
10
1582.000000
20
269.000000
0
VERTEX
8
0
10
1594.000000
20
269.000000
0
SEQEND
0
POLYLINE
8
0
6
CONTINUOUS
66
1
62
250
10
0.0
20
0.0
30
0.000000
0
VERTEX
8
0
10
1607.000000
20
269.000000
0
VERTEX
8
0
10
1619.000000
20
269.000000
0
SEQEND
0
POLYLINE
8
0
6
CONTINUOUS
66
1
62
250
10
0.0
20
0.0
30
0.000000
0
VERTEX
8
0
10
1632.000000
20
269.000000
0
VERTEX
8
0
10
1644.000000
20
269.000000
0
SEQEND
0
POLYLINE
8
0
6
CONTINUOUS
66
1
62
250
10
0.0
20
0.0
30
0.000000
0
VERTEX
8
0
10
867.000000
20
1280.000000
0
VERTEX
8
0
10
867.000000
20
1526.000000
0
VERTEX
8
0
10
865.000000
20
1528.000000
0
VERTEX
8
0
10
676.000000
20
1528.000000
0
VERTEX
8
0
10
675.000000
20
1527.000000
0
VERTEX
8
0
10
674.000000
20
1340.000000
0
VERTEX
8
0
10
673.001110
20
1280.033296
0
VERTEX
8
0
10
671.000000
20
1279.000000
42
-0.188065
0
VERTEX
8
0
10
662.998890
20
1280.033296
0
VERTEX
8
0
10
662.000000
20
1340.000000
0
VERTEX
8
0
10
662.000000
20
1526.000000
0
VERTEX
8
0
10
660.000000
20
1528.000000
0
VERTEX
8
0
10
85.000000
20
1528.000000
0
VERTEX
8
0
10
85.000000
20
1279.000000
0
VERTEX
8
0
10
85.000000
20
77.000000
0
VERTEX
8
0
10
87.000000
20
75.000000
0
VERTEX
8
0
10
659.000000
20
75.000000
0
VERTEX
8
0
10
660.100000
20
75.700000
0
VERTEX
8
0
10
661.000107
20
76.010362
0
VERTEX
8
0
10
662.000000
20
269.000000
0
VERTEX
8
0
10
662.490573
20
321.990915
42
-0.183679
0
VERTEX
8
0
10
669.000000
20
325.000000
42
0.078207
0
VERTEX
8
0
10
674.000000
20
323.000000
0
VERTEX
8
0
10
675.000000
20
324.000000
0
VERTEX
8
0
10
683.000000
20
324.000000
0
SEQEND
0
POLYLINE
8
0
6
CONTINUOUS
66
1
62
250
10
0.0
20
0.0
30
0.000000
0
VERTEX
8
0
10
674.000000
20
323.000000
0
VERTEX
8
0
10
674.000000
20
269.000000
0
VERTEX
8
0
10
674.999893
20
76.010362
0
VERTEX
8
0
10
677.000000
20
75.000000
0
VERTEX
8
0
10
864.000000
20
75.000000
42
0.087433
0
VERTEX
8
0
10
866.502032
20
78.002016
0
VERTEX
8
0
10
868.499777
20
323.981710
0
VERTEX
8
0
10
871.100000
20
324.800000
0
VERTEX
8
0
10
872.000000
20
325.000000
0
VERTEX
8
0
10
878.000000
20
323.000000
0
VERTEX
8
0
10
879.000000
20
324.000000
0
VERTEX
8
0
10
883.000000
20
324.000000
0
SEQEND
0
POLYLINE
8
0
6
CONTINUOUS
66
1
62
250
10
0.0
20
0.0
30
0.000000
0
VERTEX
8
0
10
878.000000
20
323.000000
0
VERTEX
8
0
10
878.000000
20
269.000000
0
VERTEX
8
0
10
878.999865
20
97.011626
0
VERTEX
8
0
10
902.040984
20
94.450820
0
VERTEX
8
0
10
1053.000000
20
81.000000
0
VERTEX
8
0
10
1057.000000
20
75.000000
0
VERTEX
8
0
10
1261.000000
20
75.000000
0
VERTEX
8
0
10
1262.100000
20
75.700000
0
VERTEX
8
0
10
1263.307692
20
76.461538
0
VERTEX
8
0
10
1264.352941
20
78.911765
42
-0.245172
0
VERTEX
8
0
10
1268.037931
20
81.544828
0
VERTEX
8
0
10
1440.955446
20
96.445545
42
0.106921
0
VERTEX
8
0
10
1444.000000
20
99.000000
0
VERTEX
8
0
10
1444.000000
20
268.000000
0
VERTEX
8
0
10
1443.000000
20
269.000000
0
VERTEX
8
0
10
1443.509427
20
271.009085
0
VERTEX
8
0
10
1444.998578
20
323.962318
0
VERTEX
8
0
10
1448.000000
20
325.000000
0
VERTEX
8
0
10
1448.000000
20
328.000000
0
SEQEND
0
POLYLINE
8
0
6
CONTINUOUS
66
1
62
250
10
0.0
20
0.0
30
0.000000
0
VERTEX
8
0
10
1455.000000
20
324.000000
0
VERTEX
8
0
10
1456.000000
20
269.000000
0
VERTEX
8
0
10
1456.000000
20
77.000000
0
VERTEX
8
0
10
1458.000000
20
75.000000
0
VERTEX
8
0
10
1641.000000
20
75.000000
0
VERTEX
8
0
10
1642.100000
20
75.700000
0
VERTEX
8
0
10
1643.000107
20
76.010362
0
VERTEX
8
0
10
1644.000000
20
269.000000
0
VERTEX
8
0
10
1645.000000
20
324.000000
0
VERTEX
8
0
10
1645.000000
20
337.000000
0
VERTEX
8
0
10
1644.000000
20
338.000000
0
SEQEND
0
ENDSEC
0
EOF
