0
SECTION
2
HEADER
9
$ACADVER
1
AC1003
9
$INSBASE
10
0.0
20
0.0
30
0.0
9
$EXTMIN
10
0.000
20
0.000
30
0.0
9
$EXTMAX
10
684.000
20
1824.000
30
0.0
9
$LIMMIN
10
0.000
20
0.000
9
$LIMMAX
10
684.000
20
1824.000
9
$LTSCALE
40
1.0
9
$LUNITS
70
2
9
$LUPREC
70
3
9
$LIMCHECK
70
0
9
$UCSNAME
2

9
$UCSORG
10
0.0
20
0.0
30
0.0
9
$UCSXDIR
10
1.0
20
0.0
30
0.0
9
$UCSYDIR
10
0.0
20
1.0
30
0.0
9
$WORLDVIEW
70
1
9
$UNITMODE
70
0
0
ENDSEC
0
SECTION
2
TABLES
0
TABLE
2
VPORT
70
1
0
VPORT
2
*ACTIVE
70
0
10
0.0
20
0.0
11
1.0
21
1.0
12
342.000
22
912.000
13
0.0
23
0.0
14
1.0
24
1.0
15
0.0
25
0.0
16
0.0
26
0.0
36
1.0
17
0.0
27
0.0
37
0.0
40
500.0
41
2.667
42
50.0
43
0.0
44
0.0
50
0.0
51
0.0
71
0
72
100
73
1
74
1
75
0
76
0
77
0
78
0
0
ENDTAB
0
TABLE
2
LTYPE
70
1
0
LTYPE
2
CONTINUOUS
70
64
3
Solid line
72
65
73
0
40
0.000
0
ENDTAB
0
TABLE
2
LAYER
70
1
0
LAYER
2
0
70
64
62
7
6
CONTINUOUS
0
ENDTAB
0
ENDSEC
0
SECTION
2
BLOCKS
0
ENDSEC
0
SECTION
2
ENTITIES
0
POLYLINE
8
0
6
CONTINUOUS
66
1
62
250
10
0.0
20
0.0
30
0.000000
0
VERTEX
8
0
10
322.000000
20
461.000000
0
VERTEX
8
0
10
323.000000
20
462.000000
0
VERTEX
8
0
10
324.000000
20
463.000000
0
VERTEX
8
0
10
324.000000
20
520.000000
0
VERTEX
8
0
10
322.000000
20
522.000000
0
VERTEX
8
0
10
187.900000
20
522.700000
0
VERTEX
8
0
10
186.000000
20
523.000000
0
VERTEX
8
0
10
186.000000
20
537.000000
0
VERTEX
8
0
10
187.000000
20
538.000000
0
VERTEX
8
0
10
320.996297
20
539.496241
0
VERTEX
8
0
10
322.100000
20
539.700000
0
VERTEX
8
0
10
324.000000
20
540.000000
0
VERTEX
8
0
10
324.000000
20
895.000000
0
VERTEX
8
0
10
322.000000
20
897.000000
0
VERTEX
8
0
10
186.000000
20
898.000000
0
VERTEX
8
0
10
186.000000
20
911.000000
42
-0.087323
0
VERTEX
8
0
10
189.003703
20
913.503759
0
VERTEX
8
0
10
321.996297
20
914.496241
0
VERTEX
8
0
10
324.000000
20
916.000000
0
VERTEX
8
0
10
324.000000
20
1270.000000
42
0.215500
0
VERTEX
8
0
10
320.996297
20
1271.503759
0
VERTEX
8
0
10
188.000000
20
1272.000000
0
VERTEX
8
0
10
186.000000
20
1274.000000
0
VERTEX
8
0
10
186.000000
20
1286.000000
0
VERTEX
8
0
10
188.003703
20
1287.503759
0
VERTEX
8
0
10
324.000000
20
1289.000000
0
VERTEX
8
0
10
324.000000
20
1644.000000
0
VERTEX
8
0
10
322.000000
20
1646.000000
0
VERTEX
8
0
10
187.900000
20
1646.700000
0
VERTEX
8
0
10
186.000000
20
1647.000000
0
VERTEX
8
0
10
186.000000
20
1660.000000
42
-0.087323
0
VERTEX
8
0
10
189.003703
20
1662.503759
0
VERTEX
8
0
10
321.996297
20
1663.496241
0
VERTEX
8
0
10
324.000000
20
1665.000000
0
VERTEX
8
0
10
324.000000
20
1737.000000
0
VERTEX
8
0
10
322.000000
20
1739.000000
0
VERTEX
8
0
10
33.000000
20
1739.000000
0
VERTEX
8
0
10
33.000000
20
461.000000
0
VERTEX
8
0
10
322.000000
20
461.000000
0
SEQEND
0
POLYLINE
8
0
6
CONTINUOUS
66
1
62
250
10
0.0
20
0.0
30
0.000000
0
VERTEX
8
0
10
648.000000
20
85.000000
0
VERTEX
8
0
10
651.000000
20
88.000000
0
VERTEX
8
0
10
651.000000
20
145.000000
0
VERTEX
8
0
10
648.000000
20
148.000000
0
VERTEX
8
0
10
510.000000
20
148.000000
0
VERTEX
8
0
10
510.000000
20
163.000000
0
VERTEX
8
0
10
511.000000
20
164.000000
0
VERTEX
8
0
10
649.985510
20
165.999790
0
VERTEX
8
0
10
650.300000
20
166.900000
0
VERTEX
8
0
10
651.000000
20
168.000000
0
VERTEX
8
0
10
651.000000
20
520.000000
0
VERTEX
8
0
10
649.000000
20
522.000000
0
VERTEX
8
0
10
512.000000
20
522.000000
0
VERTEX
8
0
10
510.000000
20
524.000000
0
VERTEX
8
0
10
510.000000
20
539.000000
0
VERTEX
8
0
10
647.996429
20
539.496377
42
0.113509
0
VERTEX
8
0
10
651.000000
20
542.000000
0
VERTEX
8
0
10
651.000000
20
895.000000
0
VERTEX
8
0
10
649.000000
20
897.000000
0
VERTEX
8
0
10
512.000000
20
897.000000
0
VERTEX
8
0
10
510.000000
20
899.000000
0
VERTEX
8
0
10
510.000000
20
912.000000
0
VERTEX
8
0
10
512.003571
20
913.503623
0
VERTEX
8
0
10
649.985510
20
914.999790
0
VERTEX
8
0
10
650.300000
20
915.900000
0
VERTEX
8
0
10
651.000000
20
917.000000
0
VERTEX
8
0
10
651.000000
20
1269.000000
0
VERTEX
8
0
10
648.000000
20
1272.000000
0
VERTEX
8
0
10
510.000000
20
1272.000000
0
VERTEX
8
0
10
510.000000
20
1288.000000
0
VERTEX
8
0
10
647.996429
20
1288.496377
42
0.113509
0
VERTEX
8
0
10
651.000000
20
1291.000000
0
VERTEX
8
0
10
651.000000
20
1644.000000
0
VERTEX
8
0
10
649.000000
20
1646.000000
0
VERTEX
8
0
10
512.000000
20
1646.000000
0
VERTEX
8
0
10
510.000000
20
1648.000000
0
VERTEX
8
0
10
510.000000
20
1661.000000
0
VERTEX
8
0
10
511.000000
20
1662.000000
0
VERTEX
8
0
10
649.985510
20
1663.999790
0
VERTEX
8
0
10
650.300000
20
1664.900000
0
VERTEX
8
0
10
651.000000
20
1666.000000
0
VERTEX
8
0
10
651.000000
20
1735.000000
0
VERTEX
8
0
10
648.000000
20
1738.000000
0
VERTEX
8
0
10
362.000000
20
1738.000000
0
VERTEX
8
0
10
359.000000
20
1735.000000
0
VERTEX
8
0
10
359.000000
20
86.000000
0
VERTEX
8
0
10
362.001736
20
85.498252
0
VERTEX
8
0
10
648.000000
20
85.000000
0
SEQEND
0
ENDSEC
0
EOF
