  0
SECTION
  2
HEADER
  9
$ACADVER
  1
AC1024
  9
$ACADMAINTVER
 70
     6
  9
$DWGCODEPAGE
  3
ANSI_1251
  9
$INSBASE
 10
0.0
 20
0.0
 30
0.0
  9
$EXTMIN
 10
1.000000000000000E+20
 20
1.000000000000000E+20
 30
1.000000000000000E+20
  9
$EXTMAX
 10
-1.000000000000000E+20
 20
-1.000000000000000E+20
 30
-1.000000000000000E+20
  9
$LIMMIN
 10
0.0
 20
0.0
  9
$LIMMAX
 10
12.0
 20
9.0
  9
$ORTHOMODE
 70
     0
  9
$REGENMODE
 70
     1
  9
$FILLMODE
 70
     1
  9
$QTEXTMODE
 70
     0
  9
$MIRRTEXT
 70
     1
  9
$LTSCALE
 40
1.0
  9
$ATTMODE
 70
     1
  9
$TEXTSIZE
 40
0.2
  9
$TRACEWID
 40
0.05
  9
$TEXTSTYLE
  7
Standard
  9
$CLAYER
  8
0
  9
$CELTYPE
  6
ByLayer
  9
$CECOLOR
 62
   256
  9
$CELTSCALE
 40
1.0
  9
$DISPSILH
 70
     0
  9
$DIMSCALE
 40
1.0
  9
$DIMASZ
 40
0.18
  9
$DIMEXO
 40
0.0625
  9
$DIMDLI
 40
0.38
  9
$DIMRND
 40
0.0
  9
$DIMDLE
 40
0.0
  9
$DIMEXE
 40
0.18
  9
$DIMTP
 40
0.0
  9
$DIMTM
 40
0.0
  9
$DIMTXT
 40
0.18
  9
$DIMCEN
 40
0.09
  9
$DIMTSZ
 40
0.0
  9
$DIMTOL
 70
     0
  9
$DIMLIM
 70
     0
  9
$DIMTIH
 70
     1
  9
$DIMTOH
 70
     1
  9
$DIMSE1
 70
     0
  9
$DIMSE2
 70
     0
  9
$DIMTAD
 70
     0
  9
$DIMZIN
 70
     0
  9
$DIMBLK
  1

  9
$DIMASO
 70
     1
  9
$DIMSHO
 70
     1
  9
$DIMPOST
  1

  9
$DIMAPOST
  1

  9
$DIMALT
 70
     0
  9
$DIMALTD
 70
     2
  9
$DIMALTF
 40
25.4
  9
$DIMLFAC
 40
1.0
  9
$DIMTOFL
 70
     0
  9
$DIMTVP
 40
0.0
  9
$DIMTIX
 70
     0
  9
$DIMSOXD
 70
     0
  9
$DIMSAH
 70
     0
  9
$DIMBLK1
  1

  9
$DIMBLK2
  1

  9
$DIMSTYLE
  2
Standard
  9
$DIMCLRD
 70
     0
  9
$DIMCLRE
 70
     0
  9
$DIMCLRT
 70
     0
  9
$DIMTFAC
 40
1.0
  9
$DIMGAP
 40
0.09
  9
$DIMJUST
 70
     0
  9
$DIMSD1
 70
     0
  9
$DIMSD2
 70
     0
  9
$DIMTOLJ
 70
     1
  9
$DIMTZIN
 70
     0
  9
$DIMALTZ
 70
     0
  9
$DIMALTTZ
 70
     0
  9
$DIMUPT
 70
     0
  9
$DIMDEC
 70
     4
  9
$DIMTDEC
 70
     4
  9
$DIMALTU
 70
     2
  9
$DIMALTTD
 70
     2
  9
$DIMTXSTY
  7
Standard
  9
$DIMAUNIT
 70
     0
  9
$DIMADEC
 70
     0
  9
$DIMALTRND
 40
0.0
  9
$DIMAZIN
 70
     0
  9
$DIMDSEP
 70
    46
  9
$DIMATFIT
 70
     3
  9
$DIMFRAC
 70
     0
  9
$DIMLDRBLK
  1

  9
$DIMLUNIT
 70
     2
  9
$DIMLWD
 70
    -2
  9
$DIMLWE
 70
    -2
  9
$DIMTMOVE
 70
     0
  9
$DIMFXL
 40
1.0
  9
$DIMFXLON
 70
     0
  9
$DIMJOGANG
 40
0.7853981633974483
  9
$DIMTFILL
 70
     0
  9
$DIMTFILLCLR
 70
     0
  9
$DIMARCSYM
 70
     0
  9
$DIMLTYPE
  6

  9
$DIMLTEX1
  6

  9
$DIMLTEX2
  6

  9
$DIMTXTDIRECTION
 70
     0
  9
$LUNITS
 70
     2
  9
$LUPREC
 70
     4
  9
$SKETCHINC
 40
0.1
  9
$FILLETRAD
 40
0.5
  9
$AUNITS
 70
     0
  9
$AUPREC
 70
     0
  9
$MENU
  1
.
  9
$ELEVATION
 40
0.0
  9
$PELEVATION
 40
0.0
  9
$THICKNESS
 40
0.0
  9
$LIMCHECK
 70
     0
  9
$CHAMFERA
 40
0.5
  9
$CHAMFERB
 40
0.5
  9
$CHAMFERC
 40
1.0
  9
$CHAMFERD
 40
0.0
  9
$SKPOLY
 70
     0
  9
$TDCREATE
 40
2460105.574391262
  9
$TDUCREATE
 40
2460105.449391262
  9
$TDUPDATE
 40
2460105.574392234
  9
$TDUUPDATE
 40
2460105.449392234
  9
$TDINDWG
 40
0.0000000116
  9
$TDUSRTIMER
 40
0.0000000116
  9
$USRTIMER
 70
     1
  9
$ANGBASE
 50
0.0
  9
$ANGDIR
 70
     0
  9
$PDMODE
 70
     0
  9
$PDSIZE
 40
0.0
  9
$PLINEWID
 40
0.0
  9
$SPLFRAME
 70
     0
  9
$SPLINETYPE
 70
     6
  9
$SPLINESEGS
 70
     8
  9
$HANDSEED
  5
F4
  9
$SURFTAB1
 70
     6
  9
$SURFTAB2
 70
     6
  9
$SURFTYPE
 70
     6
  9
$SURFU
 70
     6
  9
$SURFV
 70
     6
  9
$UCSBASE
  2

  9
$UCSNAME
  2

  9
$UCSORG
 10
0.0
 20
0.0
 30
0.0
  9
$UCSXDIR
 10
1.0
 20
0.0
 30
0.0
  9
$UCSYDIR
 10
0.0
 20
1.0
 30
0.0
  9
$UCSORTHOREF
  2

  9
$UCSORTHOVIEW
 70
     0
  9
$UCSORGTOP
 10
0.0
 20
0.0
 30
0.0
  9
$UCSORGBOTTOM
 10
0.0
 20
0.0
 30
0.0
  9
$UCSORGLEFT
 10
0.0
 20
0.0
 30
0.0
  9
$UCSORGRIGHT
 10
0.0
 20
0.0
 30
0.0
  9
$UCSORGFRONT
 10
0.0
 20
0.0
 30
0.0
  9
$UCSORGBACK
 10
0.0
 20
0.0
 30
0.0
  9
$PUCSBASE
  2

  9
$PUCSNAME
  2

  9
$PUCSORG
 10
0.0
 20
0.0
 30
0.0
  9
$PUCSXDIR
 10
1.0
 20
0.0
 30
0.0
  9
$PUCSYDIR
 10
0.0
 20
1.0
 30
0.0
  9
$PUCSORTHOREF
  2

  9
$PUCSORTHOVIEW
 70
     0
  9
$PUCSORGTOP
 10
0.0
 20
0.0
 30
0.0
  9
$PUCSORGBOTTOM
 10
0.0
 20
0.0
 30
0.0
  9
$PUCSORGLEFT
 10
0.0
 20
0.0
 30
0.0
  9
$PUCSORGRIGHT
 10
0.0
 20
0.0
 30
0.0
  9
$PUCSORGFRONT
 10
0.0
 20
0.0
 30
0.0
  9
$PUCSORGBACK
 10
0.0
 20
0.0
 30
0.0
  9
$USERI1
 70
     0
  9
$USERI2
 70
     0
  9
$USERI3
 70
     0
  9
$USERI4
 70
     0
  9
$USERI5
 70
     0
  9
$USERR1
 40
0.0
  9
$USERR2
 40
0.0
  9
$USERR3
 40
0.0
  9
$USERR4
 40
0.0
  9
$USERR5
 40
0.0
  9
$WORLDVIEW
 70
     1
  9
$SHADEDGE
 70
     3
  9
$SHADEDIF
 70
    70
  9
$TILEMODE
 70
     1
  9
$MAXACTVP
 70
    64
  9
$PINSBASE
 10
0.0
 20
0.0
 30
0.0
  9
$PLIMCHECK
 70
     0
  9
$PEXTMIN
 10
1.000000000000000E+20
 20
1.000000000000000E+20
 30
1.000000000000000E+20
  9
$PEXTMAX
 10
-1.000000000000000E+20
 20
-1.000000000000000E+20
 30
-1.000000000000000E+20
  9
$PLIMMIN
 10
0.0
 20
0.0
  9
$PLIMMAX
 10
12.0
 20
9.0
  9
$UNITMODE
 70
     0
  9
$VISRETAIN
 70
     1
  9
$PLINEGEN
 70
     0
  9
$PSLTSCALE
 70
     1
  9
$TREEDEPTH
 70
  3020
  9
$CMLSTYLE
  2
Standard
  9
$CMLJUST
 70
     0
  9
$CMLSCALE
 40
1.0
  9
$PROXYGRAPHICS
 70
     1
  9
$MEASUREMENT
 70
     0
  9
$CELWEIGHT
370
    -1
  9
$ENDCAPS
280
     0
  9
$JOINSTYLE
280
     0
  9
$LWDISPLAY
290
     1
  9
$INSUNITS
 70
     1
  9
$HYPERLINKBASE
  1

  9
$STYLESHEET
  1

  9
$XEDIT
290
     1
  9
$CEPSNTYPE
380
     0
  9
$PSTYLEMODE
290
     1
  9
$FINGERPRINTGUID
  2
{71CE45D8-5C3B-404E-A49E-96113C1B3E78}
  9
$VERSIONGUID
  2
{FAEB1C32-E019-11D5-929B-00C0DF256EC4}
  9
$EXTNAMES
290
     1
  9
$PSVPSCALE
 40
0.0
  9
$OLESTARTUP
290
     0
  9
$SORTENTS
280
   127
  9
$INDEXCTL
280
     0
  9
$HIDETEXT
280
     1
  9
$XCLIPFRAME
280
     2
  9
$HALOGAP
280
     0
  9
$OBSCOLOR
 70
   257
  9
$OBSLTYPE
280
     0
  9
$INTERSECTIONDISPLAY
280
     0
  9
$INTERSECTIONCOLOR
 70
   257
  9
$DIMASSOC
280
     2
  9
$PROJECTNAME
  1

  9
$CAMERADISPLAY
290
     0
  9
$LENSLENGTH
 40
50.0
  9
$CAMERAHEIGHT
 40
0.0
  9
$STEPSPERSEC
 40
2.0
  9
$STEPSIZE
 40
6.0
  9
$3DDWFPREC
 40
2.0
  9
$PSOLWIDTH
 40
0.25
  9
$PSOLHEIGHT
 40
4.0
  9
$LOFTANG1
 40
1.570796326794897
  9
$LOFTANG2
 40
1.570796326794897
  9
$LOFTMAG1
 40
0.0
  9
$LOFTMAG2
 40
0.0
  9
$LOFTPARAM
 70
     7
  9
$LOFTNORMALS
280
     1
  9
$LATITUDE
 40
37.795
  9
$LONGITUDE
 40
-122.394
  9
$NORTHDIRECTION
 40
0.0
  9
$TIMEZONE
 70
 -8000
  9
$LIGHTGLYPHDISPLAY
280
     1
  9
$TILEMODELIGHTSYNCH
280
     1
  9
$CMATERIAL
347
3C
  9
$SOLIDHIST
280
     1
  9
$SHOWHIST
280
     1
  9
$DWFFRAME
280
     2
  9
$DGNFRAME
280
     2
  9
$REALWORLDSCALE
290
     1
  9
$INTERFERECOLOR
 62
   256
  9
$CSHADOW
280
     0
  9
$SHADOWPLANELOCATION
 40
0.0
  0
ENDSEC
  0
SECTION
  2
CLASSES
  0
CLASS
  1
ACDBDICTIONARYWDFLT
  2
AcDbDictionaryWithDefault
  3
ObjectDBX Classes
 90
        0
 91
        4
280
     0
281
     0
  0
CLASS
  1
VISUALSTYLE
  2
AcDbVisualStyle
  3
ObjectDBX Classes
 90
     4095
 91
        4
280
     0
281
     0
  0
CLASS
  1
MATERIAL
  2
AcDbMaterial
  3
ObjectDBX Classes
 90
     1153
 91
        4
280
     0
281
     0
  0
CLASS
  1
SUN
  2
AcDbSun
  3
SCENEOE
 90
     1024
 91
        4
280
     0
281
     0
  0
ENDSEC
  0
SECTION
  2
TABLES
  0
TABLE
  2
VPORT
  5
8
330
0
100
AcDbSymbolTable
 70
     1
  0
VPORT
  5
29
330
8
100
AcDbSymbolTableRecord
100
AcDbViewportTableRecord
  2
*Active
 70
     0
 10
0.0
 20
0.0
 11
1.0
 21
1.0
 12
0.0
 22
0.0
 13
0.0
 23
0.0
 14
0.5
 24
0.5
 15
0.5
 25
0.5
 16
0.0
 26
0.0
 36
1.0
 17
721.7833331528875
 27
1021.557290439055
 37
0.0
 40
367.0631962971231
 41
1.564641260339679
 42
50.0
 43
0.0
 44
0.0
 50
0.0
 51
0.0
 71
     0
 72
   100
 73
     1
 74
     3
 75
     0
 76
     0
 77
     0
 78
     0
281
     0
 65
     1
110
0.0
120
0.0
130
0.0
111
1.0
121
0.0
131
0.0
112
0.0
122
1.0
132
0.0
 79
     0
146
0.0
 60
     3
 61
     5
292
     1
282
     1
141
0.0
142
0.0
 63
   250
361
3F
  0
ENDTAB
  0
TABLE
  2
LTYPE
  5
5
330
0
100
AcDbSymbolTable
 70
     1
  0
LTYPE
  5
14
330
5
100
AcDbSymbolTableRecord
100
AcDbLinetypeTableRecord
  2
ByBlock
 70
     0
  3

 72
    65
 73
     0
 40
0.0
  0
LTYPE
  5
15
330
5
100
AcDbSymbolTableRecord
100
AcDbLinetypeTableRecord
  2
ByLayer
 70
     0
  3

 72
    65
 73
     0
 40
0.0
  0
LTYPE
  5
16
330
5
100
AcDbSymbolTableRecord
100
AcDbLinetypeTableRecord
  2
Continuous
 70
     0
  3
Solid line
 72
    65
 73
     0
 40
0.0
  0
ENDTAB
  0
TABLE
  2
LAYER
  5
2
330
0
100
AcDbSymbolTable
 70
     2
  0
LAYER
  5
10
330
2
100
AcDbSymbolTableRecord
100
AcDbLayerTableRecord
  2
0
 70
     0
 62
     7
  6
Continuous
370
    -3
390
F
347
3E
  0
LAYER
  5
40
330
2
100
AcDbSymbolTableRecord
100
AcDbLayerTableRecord
  2
_U+0421_U+043B_U+043E_U+0439 1
 70
     0
 62
     7
  6
Continuous
370
    -3
390
F
347
3E
  0
ENDTAB
  0
TABLE
  2
STYLE
  5
3
330
0
100
AcDbSymbolTable
 70
     1
  0
STYLE
  5
11
330
3
100
AcDbSymbolTableRecord
100
AcDbTextStyleTableRecord
  2
Standard
 70
     0
 40
0.0
 41
1.0
 50
0.0
 71
     0
 42
0.2
  3
txt
  4

  0
ENDTAB
  0
TABLE
  2
VIEW
  5
6
330
0
100
AcDbSymbolTable
 70
     0
  0
ENDTAB
  0
TABLE
  2
UCS
  5
7
330
0
100
AcDbSymbolTable
 70
     0
  0
ENDTAB
  0
TABLE
  2
APPID
  5
9
330
0
100
AcDbSymbolTable
 70
     1
  0
APPID
  5
12
330
9
100
AcDbSymbolTableRecord
100
AcDbRegAppTableRecord
  2
ACAD
 70
     0
  0
ENDTAB
  0
TABLE
  2
DIMSTYLE
  5
A
330
0
100
AcDbSymbolTable
 70
     1
100
AcDbDimStyleTable
  0
DIMSTYLE
105
27
330
A
100
AcDbSymbolTableRecord
100
AcDbDimStyleTableRecord
  2
Standard
 70
     0
178
     0
340
11
  0
ENDTAB
  0
TABLE
  2
BLOCK_RECORD
  5
1
330
0
100
AcDbSymbolTable
 70
     1
  0
BLOCK_RECORD
  5
1F
330
1
100
AcDbSymbolTableRecord
100
AcDbBlockTableRecord
  2
*Model_Space
340
22
 70
     0
280
     1
281
     0
  0
BLOCK_RECORD
  5
1B
330
1
100
AcDbSymbolTableRecord
100
AcDbBlockTableRecord
  2
*Paper_Space
340
1E
 70
     0
280
     1
281
     0
  0
BLOCK_RECORD
  5
23
330
1
100
AcDbSymbolTableRecord
100
AcDbBlockTableRecord
  2
*Paper_Space0
340
26
 70
     0
280
     1
281
     0
  0
ENDTAB
  0
ENDSEC
  0
SECTION
  2
BLOCKS
  0
BLOCK
  5
20
330
1F
100
AcDbEntity
  8
0
100
AcDbBlockBegin
  2
*Model_Space
 70
     0
 10
0.0
 20
0.0
 30
0.0
  3
*Model_Space
  1

  0
ENDBLK
  5
21
330
1F
100
AcDbEntity
  8
0
100
AcDbBlockEnd
  0
BLOCK
  5
1C
330
1B
100
AcDbEntity
 67
     1
  8
0
100
AcDbBlockBegin
  2
*Paper_Space
 70
     0
 10
0.0
 20
0.0
 30
0.0
  3
*Paper_Space
  1

  0
ENDBLK
  5
1D
330
1B
100
AcDbEntity
 67
     1
  8
0
100
AcDbBlockEnd
  0
BLOCK
  5
24
330
23
100
AcDbEntity
  8
0
100
AcDbBlockBegin
  2
*Paper_Space0
 70
     0
 10
0.0
 20
0.0
 30
0.0
  3
*Paper_Space0
  1

  0
ENDBLK
  5
25
330
23
100
AcDbEntity
  8
0
100
AcDbBlockEnd
  0
ENDSEC
  0
SECTION
  2
ENTITIES
  0
POLYLINE
  5
41
330
1F
100
AcDbEntity
  8
_U+0421_U+043B_U+043E_U+0439 1
 62
     1
420
 16711693
370
     5
100
AcDb2dPolyline
 66
     1
 10
0.0
 20
0.0
 30
0.0
  0
VERTEX
  5
42
330
41
100
AcDbEntity
  8
_U+0421_U+043B_U+043E_U+0439 1
 62
     1
420
 16711693
370
     5
100
AcDbVertex
100
AcDb2dVertex
 10
738.9388812041542
 20
992.4496841963323
 30
0.0
  0
VERTEX
  5
43
330
41
100
AcDbEntity
  8
_U+0421_U+043B_U+043E_U+0439 1
 62
     1
420
 16711693
370
     5
100
AcDbVertex
100
AcDb2dVertex
 10
742.2167864811124
 20
986.4510861422765
 30
0.0
  0
VERTEX
  5
44
330
41
100
AcDbEntity
  8
_U+0421_U+043B_U+043E_U+0439 1
 62
     1
420
 16711693
370
     5
100
AcDbVertex
100
AcDb2dVertex
 10
736.1852037048423
 20
989.728920863679
 30
0.0
  0
VERTEX
  5
45
330
41
100
AcDbEntity
  8
_U+0421_U+043B_U+043E_U+0439 1
 62
     1
420
 16711693
370
     5
100
AcDbVertex
100
AcDb2dVertex
 10
731.727680094846
 20
974.5851233674653
 30
0.0
  0
VERTEX
  5
46
330
41
100
AcDbEntity
  8
_U+0421_U+043B_U+043E_U+0439 1
 62
     1
420
 16711693
370
     5
100
AcDbVertex
100
AcDb2dVertex
 10
727.3021887070635
 20
989.728920863679
 30
0.0
  0
VERTEX
  5
47
330
41
100
AcDbEntity
  8
_U+0421_U+043B_U+043E_U+0439 1
 62
     1
420
 16711693
370
     5
100
AcDbVertex
100
AcDb2dVertex
 10
721.270993986349
 20
986.4510861422765
 30
0.0
  0
VERTEX
  5
48
330
41
100
AcDbEntity
  8
_U+0421_U+043B_U+043E_U+0439 1
 62
     1
420
 16711693
370
     5
100
AcDbVertex
100
AcDb2dVertex
 10
724.5488992633075
 20
992.4496841963323
 30
0.0
  0
VERTEX
  5
49
330
41
100
AcDbEntity
  8
_U+0421_U+043B_U+043E_U+0439 1
 62
     1
420
 16711693
370
     5
100
AcDbVertex
100
AcDb2dVertex
 10
709.4378748226407
 20
996.9075253063288
 30
0.0
  0
VERTEX
  5
4A
330
41
100
AcDbEntity
  8
_U+0421_U+043B_U+043E_U+0439 1
 62
     1
420
 16711693
370
     5
100
AcDbVertex
100
AcDb2dVertex
 10
724.5488992633075
 20
1001.365401694103
 30
0.0
  0
VERTEX
  5
4B
330
41
100
AcDbEntity
  8
_U+0421_U+043B_U+043E_U+0439 1
 62
     1
420
 16711693
370
     5
100
AcDbVertex
100
AcDb2dVertex
 10
721.270993986349
 20
1007.396808081485
 30
0.0
  0
VERTEX
  5
4C
330
41
100
AcDbEntity
  8
_U+0421_U+043B_U+043E_U+0439 1
 62
     1
420
 16711693
370
     5
100
AcDbVertex
100
AcDb2dVertex
 10
727.3021887070635
 20
1004.118902804526
 30
0.0
  0
VERTEX
  5
4D
330
41
100
AcDbEntity
  8
_U+0421_U+043B_U+043E_U+0439 1
 62
     1
420
 16711693
370
     5
100
AcDbVertex
100
AcDb2dVertex
 10
731.727680094846
 20
1019.22996252297
 30
0.0
  0
VERTEX
  5
4E
330
41
100
AcDbEntity
  8
_U+0421_U+043B_U+043E_U+0439 1
 62
     1
420
 16711693
370
     5
100
AcDbVertex
100
AcDb2dVertex
 10
736.1852037048423
 20
1004.118902804526
 30
0.0
  0
VERTEX
  5
4F
330
41
100
AcDbEntity
  8
_U+0421_U+043B_U+043E_U+0439 1
 62
     1
420
 16711693
370
     5
100
AcDbVertex
100
AcDb2dVertex
 10
742.2167864811124
 20
1007.396808081485
 30
0.0
  0
VERTEX
  5
50
330
41
100
AcDbEntity
  8
_U+0421_U+043B_U+043E_U+0439 1
 62
     1
420
 16711693
370
     5
100
AcDbVertex
100
AcDb2dVertex
 10
738.9388812041542
 20
1001.365401694103
 30
0.0
  0
VERTEX
  5
51
330
41
100
AcDbEntity
  8
_U+0421_U+043B_U+043E_U+0439 1
 62
     1
420
 16711693
370
     5
100
AcDbVertex
100
AcDb2dVertex
 10
754.0499409225989
 20
996.9075253063288
 30
0.0
  0
VERTEX
  5
52
330
41
100
AcDbEntity
  8
_U+0421_U+043B_U+043E_U+0439 1
 62
     1
420
 16711693
370
     5
100
AcDbVertex
100
AcDb2dVertex
 10
738.9388812041542
 20
992.4496841963323
 30
0.0
  0
SEQEND
  5
53
330
41
100
AcDbEntity
  8
_U+0421_U+043B_U+043E_U+0439 1
 62
     1
420
 16711693
370
     5
  0
SPLINE
  5
54
330
1F
100
AcDbEntity
  8
_U+0421_U+043B_U+043E_U+0439 1
 62
     1
420
 16711693
370
     5
100
AcDbSpline
210
0.0
220
0.0
230
1.0
 70
    11
 71
     3
 72
   239
 73
   235
 74
     0
 42
0.0000000001
 43
0.0000000001
 12
1.0
 22
0.0
 32
0.0
 13
1.0
 23
0.0
 33
0.0
 40
0.0
 40
0.0
 40
0.0
 40
0.0
 40
1.0
 40
1.0
 40
1.0
 40
2.0
 40
2.0
 40
2.0
 40
3.0
 40
3.0
 40
3.0
 40
4.0
 40
4.0
 40
4.0
 40
5.0
 40
5.0
 40
5.0
 40
6.0
 40
6.0
 40
6.0
 40
7.0
 40
7.0
 40
7.0
 40
8.0
 40
8.0
 40
8.0
 40
9.0
 40
9.0
 40
9.0
 40
10.0
 40
10.0
 40
10.0
 40
11.0
 40
11.0
 40
11.0
 40
12.0
 40
12.0
 40
12.0
 40
13.0
 40
13.0
 40
13.0
 40
14.0
 40
14.0
 40
14.0
 40
15.0
 40
15.0
 40
15.0
 40
16.0
 40
16.0
 40
16.0
 40
17.0
 40
17.0
 40
17.0
 40
18.0
 40
18.0
 40
18.0
 40
19.0
 40
19.0
 40
19.0
 40
20.0
 40
20.0
 40
20.0
 40
21.0
 40
21.0
 40
21.0
 40
22.0
 40
22.0
 40
22.0
 40
23.0
 40
23.0
 40
23.0
 40
24.0
 40
24.0
 40
24.0
 40
25.0
 40
25.0
 40
25.0
 40
26.0
 40
26.0
 40
26.0
 40
27.0
 40
27.0
 40
27.0
 40
28.0
 40
28.0
 40
28.0
 40
29.0
 40
29.0
 40
29.0
 40
30.0
 40
30.0
 40
30.0
 40
31.0
 40
31.0
 40
31.0
 40
32.0
 40
32.0
 40
32.0
 40
33.0
 40
33.0
 40
33.0
 40
34.0
 40
34.0
 40
34.0
 40
35.0
 40
35.0
 40
35.0
 40
36.0
 40
36.0
 40
36.0
 40
37.0
 40
37.0
 40
37.0
 40
38.0
 40
38.0
 40
38.0
 40
39.0
 40
39.0
 40
39.0
 40
40.0
 40
40.0
 40
40.0
 40
41.0
 40
41.0
 40
41.0
 40
42.0
 40
42.0
 40
42.0
 40
43.0
 40
43.0
 40
43.0
 40
44.0
 40
44.0
 40
44.0
 40
45.0
 40
45.0
 40
45.0
 40
46.0
 40
46.0
 40
46.0
 40
47.0
 40
47.0
 40
47.0
 40
48.0
 40
48.0
 40
48.0
 40
49.0
 40
49.0
 40
49.0
 40
50.0
 40
50.0
 40
50.0
 40
51.0
 40
51.0
 40
51.0
 40
52.0
 40
52.0
 40
52.0
 40
53.0
 40
53.0
 40
53.0
 40
54.0
 40
54.0
 40
54.0
 40
55.0
 40
55.0
 40
55.0
 40
56.0
 40
56.0
 40
56.0
 40
57.0
 40
57.0
 40
57.0
 40
58.0
 40
58.0
 40
58.0
 40
59.0
 40
59.0
 40
59.0
 40
60.0
 40
60.0
 40
60.0
 40
61.0
 40
61.0
 40
61.0
 40
62.0
 40
62.0
 40
62.0
 40
63.0
 40
63.0
 40
63.0
 40
64.0
 40
64.0
 40
64.0
 40
65.0
 40
65.0
 40
65.0
 40
66.0
 40
66.0
 40
66.0
 40
67.0
 40
67.0
 40
67.0
 40
68.0
 40
68.0
 40
68.0
 40
69.0
 40
69.0
 40
69.0
 40
70.0
 40
70.0
 40
70.0
 40
71.0
 40
71.0
 40
71.0
 40
72.0
 40
72.0
 40
72.0
 40
73.0
 40
73.0
 40
73.0
 40
74.0
 40
74.0
 40
74.0
 40
75.0
 40
75.0
 40
75.0
 40
76.0
 40
76.0
 40
76.0
 40
77.0
 40
77.0
 40
77.0
 40
78.0
 40
78.0
 40
78.0
 40
78.0
 10
782.1993850822276
 20
1130.609103606237
 30
0.0
 10
783.8758556373643
 20
1133.334100272222
 30
0.0
 10
773.4126431399802
 20
1134.632110827453
 30
0.0
 10
778.2639373054344
 20
1139.698211381742
 30
0.0
 10
763.4443425869166
 20
1146.93629415771
 30
0.0
 10
764.8065586976877
 20
1145.304520547007
 30
0.0
 10
767.3376686970545
 20
1148.371499990685
 30
0.0
 10
756.8459517552332
 20
1150.151934156906
 30
0.0
 10
757.9155034216327
 20
1148.908427768328
 30
0.0
 10
761.3331086985555
 20
1153.573525822718
 30
0.0
 10
746.7508981466456
 20
1153.573525822718
 30
0.0
 10
748.3433017573585
 20
1153.237540267246
 30
0.0
 10
748.0572695352081
 20
1154.463125544718
 30
0.0
 10
749.4399467570848
 20
1155.294693322287
 30
0.0
 10
750.8226592567393
 20
1156.116594988749
 30
0.0
 10
752.7758487006952
 20
1157.286547210678
 30
0.0
 10
738.6635381486672
 20
1157.286547210678
 30
0.0
 10
729.2662437065724
 20
1157.226610266249
 30
0.0
 10
743.5126803696778
 20
1159.752216932284
 30
0.0
 10
743.5126803696778
 20
1166.298220263981
 30
0.0
 10
750.7259275900961
 20
1163.910020542356
 30
0.0
 10
753.5203156449536
 20
1167.197486097089
 30
0.0
 10
749.1535970349336
 20
1168.43668859678
 30
0.0
 10
749.7612214792263
 20
1167.982981096893
 30
0.0
 10
749.7977339792176
 20
1169.44076470764
 30
0.0
 10
777.947707305513
 20
1172.622326373511
 30
0.0
 10
762.295945087204
 20
1170.344510818525
 30
0.0
 10
763.6826792535238
 20
1175.135938595105
 30
0.0
 10
776.6674767502777
 20
1173.949441095402
 30
0.0
 10
774.8410050840675
 20
1173.214781373363
 30
0.0
 10
774.3091573064231
 20
1177.089128039061
 30
0.0
 10
779.9315531383509
 20
1176.032593872659
 30
0.0
 10
791.3085306355067
 20
1177.393151927874
 30
0.0
 10
791.6752078576365
 20
1177.533980816728
 30
0.0
 10
786.937225914377
 20
1179.458066094024
 30
0.0
 10
783.2629395264065
 20
1180.947211649208
 30
0.0
 10
779.0954345274487
 20
1182.639274982118
 30
0.0
 10
786.3793784145165
 20
1185.661733870251
 30
0.0
 10
776.2435789726059
 20
1182.771037482085
 30
0.0
 10
774.0771353620368
 20
1184.399106926123
 30
0.0
 10
768.9716648077575
 20
1188.209988869614
 30
0.0
 10
766.6202245305673
 20
1184.42761137056
 30
0.0
 10
758.5774556436892
 20
1181.66268026014
 30
0.0
 10
760.0895317544224
 20
1187.670485814194
 30
0.0
 10
761.5399070318371
 20
1187.78090525861
 30
0.0
 10
750.9774228678112
 20
1179.303373038508
 30
0.0
 10
750.9774228678112
 20
1185.801010536883
 30
0.0
 10
751.6810734231908
 20
1185.927516647963
 30
0.0
 10
741.3855009257651
 20
1174.507464984151
 30
0.0
 10
739.2466798151888
 20
1175.70479276163
 30
0.0
 10
748.4064137017875
 20
1193.013411090636
 30
0.0
 10
731.2231373171942
 20
1164.87687859767
 30
0.0
 10
729.4257698176435
 20
1169.918849151965
 30
0.0
 10
730.1778214841219
 20
1169.748069429785
 30
0.0
 10
728.2449520401609
 20
1165.834105819653
 30
0.0
 10
727.5197467625648
 20
1168.667158318945
 30
0.0
 10
729.2989109287864
 20
1171.094234151671
 30
0.0
 10
725.760020651893
 20
1172.989391651197
 30
0.0
 10
722.9860231525869
 20
1174.464919984161
 30
0.0
 10
726.8789612071689
 20
1189.014322202747
 30
0.0
 10
721.9503381528457
 20
1174.990911650697
 30
0.0
 10
717.9157245427435
 20
1190.750588591201
 30
0.0
 10
719.3366781534991
 20
1189.261513591574
 30
0.0
 10
715.6749153766368
 20
1185.327300537002
 30
0.0
 10
711.5008487110139
 20
1195.928378589907
 30
0.0
 10
712.6224703773998
 20
1195.154772201211
 30
0.0
 10
710.2505337113264
 20
1191.061138868902
 30
0.0
 10
709.618003155929
 20
1192.036110813102
 30
0.0
 10
703.7552245462836
 20
1201.282416366346
 30
0.0
 10
702.2057187133374
 20
1200.749721922035
 30
0.0
 10
697.1629720479315
 20
1199.019911366912
 30
0.0
 10
689.0666867721778
 20
1209.992640808613
 30
0.0
 10
693.165012048931
 20
1202.354860810522
 30
0.0
 10
681.681954274024
 20
1204.063293032318
 30
0.0
 10
676.229879553165
 20
1205.344687754219
 30
0.0
 10
688.3981023279006
 20
1200.314676366588
 30
0.0
 10
685.6417084397008
 20
1197.134243589605
 30
0.0
 10
684.8552609398973
 20
1198.397646644845
 30
0.0
 10
694.5477598263631
 20
1194.928888590157
 30
0.0
 10
692.3523178824677
 20
1191.624666090983
 30
0.0
 10
691.0990042716699
 20
1193.210719701697
 30
0.0
 10
702.9212578798251
 20
1187.754270536395
 30
0.0
 10
700.8921506581103
 20
1183.339150815277
 30
0.0
 10
690.4261512162825
 20
1191.776184146501
 30
0.0
 10
711.4108550999252
 20
1175.899808317136
 30
0.0
 10
706.9153373232713
 20
1170.162936096348
 30
0.0
 10
721.6350253751468
 20
1161.968190542842
 30
0.0
 10
698.6861959364395
 20
1175.812813317158
 30
0.0
 10
699.748727325063
 20
1169.644458596478
 30
0.0
 10
701.2935059357877
 20
1170.04115720749
 30
0.0
 10
690.6799748273303
 20
1175.251967206187
 30
0.0
 10
691.8733514936984
 20
1170.203576096338
 30
0.0
 10
693.0108481600806
 20
1172.06179776254
 30
0.0
 10
680.7110039964891
 20
1173.115121651166
 30
0.0
 10
680.7110039964891
 20
1173.115121651166
 30
0.0
 10
676.8968412196648
 20
1170.408645818509
 30
0.0
 10
669.7945073325515
 20
1169.005648596638
 30
0.0
 10
672.3330609430279
 20
1166.261108041768
 30
0.0
 10
651.29879178162
 20
1154.563631933581
 30
0.0
 10
669.1080017771676
 20
1162.478906931603
 30
0.0
 10
669.9552681658445
 20
1158.771812210307
 30
0.0
 10
668.3531631662449
 20
1158.95345748804
 30
0.0
 10
677.6651912194726
 20
1163.1557110981
 30
0.0
 10
679.2613695524069
 20
1155.175489711206
 30
0.0
 10
691.409977882703
 20
1173.372719984435
 30
0.0
 10
685.5746806619399
 20
1158.176146932678
 30
0.0
 10
692.6331642712862
 20
1162.101858042808
 30
0.0
 10
698.860185936396
 20
1163.059085264791
 30
0.0
 10
706.1701295456799
 20
1160.622449154289
 30
0.0
 10
704.2846028794846
 20
1159.684518876746
 30
0.0
 10
703.0566187131247
 20
1159.075342210231
 30
0.0
 10
701.6739062134704
 20
1158.38880137707
 30
0.0
 10
710.6244428778997
 20
1154.156526378127
 30
0.0
 10
712.164529544181
 20
1154.012839989275
 30
0.0
 10
695.9786970482276
 20
1155.430089433365
 30
0.0
 10
696.5105801036502
 20
1153.786250822665
 30
0.0
 10
696.8490351035655
 20
1152.722661100708
 30
0.0
 10
697.2357501034688
 20
1151.523675267675
 30
0.0
 10
690.7966737161898
 20
1151.833731656486
 30
0.0
 10
682.5409681626982
 20
1152.409500267453
 30
0.0
 10
690.9313995494896
 20
1149.454457212636
 30
0.0
 10
685.2845562175676
 20
1147.704291379741
 30
0.0
 10
681.020495940856
 20
1146.389276935625
 30
0.0
 10
676.6982626086034
 20
1145.045264158183
 30
0.0
 10
678.1375959415768
 20
1141.557103325722
 30
0.0
 10
679.349175941274
 20
1143.192651658646
 30
0.0
 10
669.0306023327425
 20
1136.68143221583
 30
0.0
 10
671.4381695543628
 20
1136.981152215755
 30
0.0
 10
672.3471720541354
 20
1137.097180826837
 30
0.0
 10
673.2851023316788
 20
1137.213279993475
 30
0.0
 10
659.7166340017375
 20
1114.399176388067
 30
0.0
 10
672.5148120540935
 20
1136.077159160425
 30
0.0
 10
674.8128064979635
 20
1128.752645828923
 30
0.0
 10
681.7327895517891
 20
1136.995721937973
 30
0.0
 10
680.4151292743409
 20
1136.736818326927
 30
0.0
 10
682.1324514961335
 20
1132.659024716835
 30
0.0
 10
690.6549276051139
 20
1140.885837770334
 30
0.0
 10
692.1004698269749
 20
1143.450779158582
 30
0.0
 10
690.1385314941322
 20
1135.550144438335
 30
0.0
 10
705.7687742680023
 20
1144.62866888051
 30
0.0
 10
708.1760592674005
 20
1146.727167491096
 30
0.0
 10
703.4627364908011
 20
1140.171991937179
 30
0.0
 10
711.555917322111
 20
1142.270243603321
 30
0.0
 10
712.0586962108744
 20
1142.250876103326
 30
0.0
 10
713.7217964882362
 20
1136.826388604682
 30
0.0
 10
714.1956123214511
 20
1135.289018327289
 30
0.0
 10
713.3350109327773
 20
1132.920080272326
 30
0.0
 10
712.3584162107993
 20
1131.411743606036
 30
0.0
 10
699.4693626029105
 20
1111.58975999988
 30
0.0
 10
689.2489670499101
 20
1090.568931671802
 30
0.0
 10
683.6117898290971
 20
1067.498076399793
 30
0.0
 10
679.6510478856429
 20
1051.283457237179
 30
0.0
 10
673.812787331547
 20
1035.374625852268
 30
0.0
 10
674.6657687202224
 20
1018.346113078747
 30
0.0
 10
674.6657687202224
 20
1018.346113078747
 30
0.0
 10
675.8452812199275
 20
1018.346113078747
 30
0.0
 10
675.8452812199275
 20
1018.346113078747
 30
0.0
 10
675.8452812199275
 20
1018.346113078747
 30
0.0
 10
675.8452812199275
 20
1015.346126135053
 30
0.0
 10
675.8452812199275
 20
1015.346126135053
 30
0.0
 10
675.8452812199275
 20
1015.346126135053
 30
0.0
 10
685.8452612174277
 20
1015.346126135053
 30
0.0
 10
685.8452612174277
 20
1015.346126135053
 30
0.0
 10
685.8452612174277
 20
1015.346126135053
 30
0.0
 10
685.8452612174277
 20
1018.346113078747
 30
0.0
 10
685.8452612174277
 20
1018.346113078747
 30
0.0
 10
685.8452612174277
 20
1018.346113078747
 30
0.0
 10
687.3258342726131
 20
1018.346113078747
 30
0.0
 10
687.3258342726131
 20
1018.346113078747
 30
0.0
 10
687.0918367726715
 20
1021.423711133533
 30
0.0
 10
686.9994795504723
 20
1024.497675577209
 30
0.0
 10
687.305408439285
 20
1027.525496687563
 30
0.0
 10
689.9161403830766
 20
1053.303674458897
 30
0.0
 10
692.5654662157476
 20
1079.091412508005
 30
0.0
 10
705.6189495458177
 20
1102.374922224406
 30
0.0
 10
710.7339803778722
 20
1111.483397499907
 30
0.0
 10
714.9304837101563
 20
1121.104247219724
 30
0.0
 10
720.0358131533245
 20
1130.222318050778
 30
0.0
 10
723.8648631523673
 20
1137.039219437963
 30
0.0
 10
729.434271762086
 20
1137.029482771298
 30
0.0
 10
734.1915506497853
 20
1130.763796661754
 30
0.0
 10
738.6874564819948
 20
1124.856850274341
 30
0.0
 10
737.785968148887
 20
1125.388768607542
 30
0.0
 10
738.9347537041555
 20
1125.837925274096
 30
0.0
 10
737.768505648891
 20
1137.6451858267
 30
0.0
 10
740.2573175927137
 20
1129.67074999536
 30
0.0
 10
746.4520953689427
 20
1114.558243888027
 30
0.0
 10
748.8074514794652
 20
1121.885191386195
 30
0.0
 10
748.6506064795041
 20
1121.570901664052
 30
0.0
 10
751.41243314548
 20
1108.495651945098
 30
0.0
 10
754.81317564463
 20
1110.121745833581
 30
0.0
 10
753.8707650893102
 20
1111.453164444359
 30
0.0
 10
755.1931878667571
 20
1100.943914446987
 30
0.0
 10
758.9963086991398
 20
1102.164772502237
 30
0.0
 10
758.1270289771352
 20
1103.26667389085
 30
0.0
 10
758.8480714769545
 20
1094.001424170944
 30
0.0
 10
760.3467773099136
 20
1097.385656670098
 30
0.0
 10
759.5443489767806
 20
1102.007504168943
 30
0.0
 10
761.4878017540725
 20
1104.221819723945
 30
0.0
 10
765.1041267531685
 20
1108.302188611814
 30
0.0
 10
759.6507114767538
 20
1110.69052944455
 30
0.0
 10
760.878625087558
 20
1113.475286666076
 30
0.0
 10
762.928546198157
 20
1118.126167776024
 30
0.0
 10
758.6160495325681
 20
1119.537878609005
 30
0.0
 10
757.0593117551796
 20
1122.303233052758
 30
0.0
 10
754.6511800891151
 20
1126.619010551679
 30
0.0
 10
750.8587484233964
 20
1125.478409440853
 30
0.0
 10
757.4268003661987
 20
1126.72209221832
 30
0.0
 10
747.6647689797505
 20
1133.42726888331
 30
0.0
 10
748.0419237018787
 20
1131.833595272597
 30
0.0
 10
754.1005645336968
 20
1133.993406660946
 30
0.0
 10
749.9040964791908
 20
1136.101183327086
 30
0.0
 10
746.7905856466355
 20
1137.677323882247
 30
0.0
 10
743.7254053696244
 20
1139.214799992974
 30
0.0
 10
746.496298424487
 20
1142.94055665871
 30
0.0
 10
730.6995092617695
 20
1151.432376378809
 30
0.0
 10
751.1224498122198
 20
1139.495117215126
 30
0.0
 10
744.2512206472707
 20
1149.399106379317
 30
0.0
 10
752.4103356452306
 20
1141.722485547903
 30
0.0
 10
761.4531942540814
 20
1133.9109624943
 30
0.0
 10
761.9704723095077
 20
1133.464134161078
 30
0.0
 10
762.7617175870874
 20
1133.935621660961
 30
0.0
 10
762.6095292537923
 20
1134.602054160794
 30
0.0
 10
761.4204564763118
 20
1139.810183048381
 30
0.0
 10
761.62619647626
 20
1139.972637215007
 30
0.0
 10
769.118596752165
 20
1130.031959161937
 30
0.0
 10
769.5872973076036
 20
1129.410117773203
 30
0.0
 10
770.380271196294
 20
1129.178977773261
 30
0.0
 10
771.142518140548
 20
1129.33822166211
 30
0.0
 10
775.5867773061032
 20
1130.266309439656
 30
0.0
 10
785.2667173036834
 20
1116.241593609829
 30
0.0
 10
783.4465956374717
 20
1121.094616386393
 30
0.0
 10
778.9877667496976
 20
1133.202408327811
 30
0.0
 10
778.2748028609867
 20
1131.978022494784
 30
0.0
 10
782.1993850822276
 20
1130.609103606237
 30
0.0
  0
SPLINE
  5
55
330
1F
100
AcDbEntity
  8
_U+0421_U+043B_U+043E_U+0439 1
 62
     1
420
 16711693
370
     5
100
AcDbSpline
210
0.0
220
0.0
230
1.0
 70
    11
 71
     3
 72
   239
 73
   235
 74
     0
 42
0.0000000001
 43
0.0000000001
 12
1.0
 22
0.0
 32
0.0
 13
1.0
 23
0.0
 33
0.0
 40
0.0
 40
0.0
 40
0.0
 40
0.0
 40
1.0
 40
1.0
 40
1.0
 40
2.0
 40
2.0
 40
2.0
 40
3.0
 40
3.0
 40
3.0
 40
4.0
 40
4.0
 40
4.0
 40
5.0
 40
5.0
 40
5.0
 40
6.0
 40
6.0
 40
6.0
 40
7.0
 40
7.0
 40
7.0
 40
8.0
 40
8.0
 40
8.0
 40
9.0
 40
9.0
 40
9.0
 40
10.0
 40
10.0
 40
10.0
 40
11.0
 40
11.0
 40
11.0
 40
12.0
 40
12.0
 40
12.0
 40
13.0
 40
13.0
 40
13.0
 40
14.0
 40
14.0
 40
14.0
 40
15.0
 40
15.0
 40
15.0
 40
16.0
 40
16.0
 40
16.0
 40
17.0
 40
17.0
 40
17.0
 40
18.0
 40
18.0
 40
18.0
 40
19.0
 40
19.0
 40
19.0
 40
20.0
 40
20.0
 40
20.0
 40
21.0
 40
21.0
 40
21.0
 40
22.0
 40
22.0
 40
22.0
 40
23.0
 40
23.0
 40
23.0
 40
24.0
 40
24.0
 40
24.0
 40
25.0
 40
25.0
 40
25.0
 40
26.0
 40
26.0
 40
26.0
 40
27.0
 40
27.0
 40
27.0
 40
28.0
 40
28.0
 40
28.0
 40
29.0
 40
29.0
 40
29.0
 40
30.0
 40
30.0
 40
30.0
 40
31.0
 40
31.0
 40
31.0
 40
32.0
 40
32.0
 40
32.0
 40
33.0
 40
33.0
 40
33.0
 40
34.0
 40
34.0
 40
34.0
 40
35.0
 40
35.0
 40
35.0
 40
36.0
 40
36.0
 40
36.0
 40
37.0
 40
37.0
 40
37.0
 40
38.0
 40
38.0
 40
38.0
 40
39.0
 40
39.0
 40
39.0
 40
40.0
 40
40.0
 40
40.0
 40
41.0
 40
41.0
 40
41.0
 40
42.0
 40
42.0
 40
42.0
 40
43.0
 40
43.0
 40
43.0
 40
44.0
 40
44.0
 40
44.0
 40
45.0
 40
45.0
 40
45.0
 40
46.0
 40
46.0
 40
46.0
 40
47.0
 40
47.0
 40
47.0
 40
48.0
 40
48.0
 40
48.0
 40
49.0
 40
49.0
 40
49.0
 40
50.0
 40
50.0
 40
50.0
 40
51.0
 40
51.0
 40
51.0
 40
52.0
 40
52.0
 40
52.0
 40
53.0
 40
53.0
 40
53.0
 40
54.0
 40
54.0
 40
54.0
 40
55.0
 40
55.0
 40
55.0
 40
56.0
 40
56.0
 40
56.0
 40
57.0
 40
57.0
 40
57.0
 40
58.0
 40
58.0
 40
58.0
 40
59.0
 40
59.0
 40
59.0
 40
60.0
 40
60.0
 40
60.0
 40
61.0
 40
61.0
 40
61.0
 40
62.0
 40
62.0
 40
62.0
 40
63.0
 40
63.0
 40
63.0
 40
64.0
 40
64.0
 40
64.0
 40
65.0
 40
65.0
 40
65.0
 40
66.0
 40
66.0
 40
66.0
 40
67.0
 40
67.0
 40
67.0
 40
68.0
 40
68.0
 40
68.0
 40
69.0
 40
69.0
 40
69.0
 40
70.0
 40
70.0
 40
70.0
 40
71.0
 40
71.0
 40
71.0
 40
72.0
 40
72.0
 40
72.0
 40
73.0
 40
73.0
 40
73.0
 40
74.0
 40
74.0
 40
74.0
 40
75.0
 40
75.0
 40
75.0
 40
76.0
 40
76.0
 40
76.0
 40
77.0
 40
77.0
 40
77.0
 40
78.0
 40
78.0
 40
78.0
 40
78.0
 10
838.3929339570689
 20
1092.611691393514
 30
0.0
 10
836.2802184020412
 20
1085.083978062063
 30
0.0
 10
840.2252970121659
 20
1081.15262250749
 30
0.0
 10
848.019639787995
 20
1082.219210840557
 30
0.0
 10
855.375620897267
 20
1083.217007506973
 30
0.0
 10
854.3620550641875
 20
1083.478310006908
 30
0.0
 10
854.8566847862859
 20
1082.348398062746
 30
0.0
 10
845.6830867330237
 20
1074.824141953516
 30
0.0
 10
853.0817892311742
 20
1078.702968896991
 30
0.0
 10
868.1482931162961
 20
1085.008695284303
 30
0.0
 10
864.632827283842
 20
1078.16237223046
 30
0.0
 10
864.7441286727031
 20
1078.495500285932
 30
0.0
 10
875.9427417254591
 20
1085.788263617442
 30
0.0
 10
877.197537002923
 20
1082.233674729442
 30
0.0
 10
875.589717003325
 20
1081.958578618399
 30
0.0
 10
883.9558772790109
 20
1088.454663894553
 30
0.0
 10
885.7819256118877
 20
1084.902262228775
 30
0.0
 10
884.3880653344589
 20
1084.737761951038
 30
0.0
 10
891.44947699936
 20
1090.779398893972
 30
0.0
 10
890.1161181108045
 20
1087.326551117057
 30
0.0
 10
886.2806122784297
 20
1084.625860839955
 30
0.0
 10
886.0890539451443
 20
1081.685916674023
 30
0.0
 10
885.7609353341154
 20
1076.243508064273
 30
0.0
 10
880.2159389466127
 20
1078.410833619286
 30
0.0
 10
879.1151664468878
 20
1075.573441953329
 30
0.0
 10
877.2759947806807
 20
1070.835248343402
 30
0.0
 10
873.2283636705818
 20
1072.886439454001
 30
0.0
 10
870.1722145046792
 20
1072.03180000977
 30
0.0
 10
865.41761672809
 20
1070.682883621218
 30
0.0
 10
863.5424617285589
 20
1074.171115009235
 30
0.0
 10
867.3074472831731
 20
1068.647355843949
 30
0.0
 10
855.6632758971949
 20
1070.808790010075
 30
0.0
 10
857.0568892301804
 20
1071.669109176527
 30
0.0
 10
859.8138475628241
 20
1065.857765566869
 30
0.0
 10
855.3559711750502
 20
1067.334669733166
 30
0.0
 10
852.0399658981014
 20
1068.421789732895
 30
0.0
 10
848.7854145100259
 20
1069.50199528818
 30
0.0
 10
848.1101625657503
 20
1064.90822890044
 30
0.0
 10
830.9354939589327
 20
1070.073530565815
 30
0.0
 10
853.817648397657
 20
1064.073309733982
 30
0.0
 10
841.9557425672886
 20
1061.928808901185
 30
0.0
 10
853.1533678422675
 20
1061.587672790159
 30
0.0
 10
865.0711536726213
 20
1060.716981957043
 30
0.0
 10
865.7529320057843
 20
1060.667134457055
 30
0.0
 10
865.9790272835049
 20
1059.774253901723
 30
0.0
 10
865.4001542280946
 20
1059.410610568481
 30
0.0
 10
860.8766611736698
 20
1056.568738624747
 30
0.0
 10
860.9073175625512
 20
1056.308388624812
 30
0.0
 10
873.2343961705806
 20
1058.039645568823
 30
0.0
 10
874.0054625592767
 20
1058.147807235463
 30
0.0
 10
874.7295389479845
 20
1057.750579457785
 30
0.0
 10
875.1560472812114
 20
1057.09903418017
 30
0.0
 10
877.6423897805897
 20
1053.30014668112
 30
0.0
 10
894.4040614430659
 20
1056.372382513685
 30
0.0
 10
889.6854117220231
 20
1054.227811125332
 30
0.0
 10
877.9710375582853
 20
1048.819198626684
 30
0.0
 10
878.3327053359726
 20
1050.189140570786
 30
0.0
 10
882.0757128350368
 20
1048.382001126794
 30
0.0
 10
881.3343150574444
 20
1045.269689738682
 30
0.0
 10
873.0178611706343
 20
1051.750429181507
 30
0.0
 10
872.8659197817838
 20
1044.737771405482
 30
0.0
 10
857.2688733967939
 20
1050.098688348586
 30
0.0
 10
859.3859633962649
 20
1050.289294181872
 30
0.0
 10
859.0070095074703
 20
1046.330810016195
 30
0.0
 10
850.329311176307
 20
1052.490698070211
 30
0.0
 10
851.9648947870086
 20
1052.613711681291
 30
0.0
 10
851.0827739538964
 20
1046.898358904942
 30
0.0
 10
840.771608678696
 20
1057.20955945792
 30
0.0
 10
842.1351653450218
 20
1056.321053347031
 30
0.0
 10
841.0663192341779
 20
1055.656737513864
 30
0.0
 10
841.4559622896359
 20
1054.091039180922
 30
0.0
 10
841.8524845117595
 20
1052.53214945909
 30
0.0
 10
842.4062750671764
 20
1050.323760570753
 30
0.0
 10
832.4273911807818
 20
1060.302644457147
 30
0.0
 10
825.8249434046547
 20
1066.98990001103
 30
0.0
 10
834.112822291472
 20
1055.13025195844
 30
0.0
 10
829.4840956259623
 20
1050.501595848486
 30
0.0
 10
836.273339235376
 20
1047.089740849339
 30
0.0
 10
835.9246889576858
 20
1042.789238628192
 30
0.0
 10
831.960666180899
 20
1045.000731960972
 30
0.0
 10
832.7112009029338
 20
1044.891864738777
 30
0.0
 10
831.7061722920736
 20
1043.835260016819
 30
0.0
 10
849.3616064543262
 20
1021.680533355691
 30
0.0
 10
839.9046220122463
 20
1034.358731685855
 30
0.0
 10
837.4971959017366
 20
1029.990002242502
 30
0.0
 10
847.5178486770095
 20
1021.647372244588
 30
0.0
 10
846.7458297883132
 20
1023.458356966358
 30
0.0
 10
843.6301670113145
 20
1021.094781133615
 30
0.0
 10
848.3528736768008
 20
1017.866300023311
 30
0.0
 10
855.4355578416968
 20
1008.859530581118
 30
0.0
 10
855.5953308972125
 20
1008.500720303431
 30
0.0
 10
850.884407009501
 20
1010.490351691822
 30
0.0
 10
847.2333686770808
 20
1012.03555363588
 30
0.0
 10
843.090064233672
 20
1013.78582530211
 30
0.0
 10
846.1033861773631
 20
1006.498247803931
 30
0.0
 10
840.9802767341996
 20
1015.709310857184
 30
0.0
 10
838.2971547904259
 20
1016.089993357089
 30
0.0
 10
831.9923809031129
 20
1017.005451690193
 30
0.0
 10
833.0041122917493
 20
1021.34264280022
 30
0.0
 10
829.272217292682
 20
1028.984903076087
 30
0.0
 10
826.0931603490321
 20
1023.667483632972
 30
0.0
 10
827.0407214599062
 20
1022.563853633248
 30
0.0
 10
825.5663925713864
 20
1036.027194185438
 30
0.0
 10
820.9719559058682
 20
1031.432722242142
 30
0.0
 10
821.3800139613215
 20
1030.845594186733
 30
0.0
 10
822.175139794456
 20
1046.20091723845
 30
0.0
 10
819.8161147950465
 20
1046.866679460506
 30
0.0
 10
814.0540189631535
 20
1028.150689465185
 30
0.0
 10
821.7991139612168
 20
1060.196599457173
 30
0.0
 10
816.9629539624264
 20
1057.902344457747
 30
0.0
 10
817.6155575733741
 20
1057.491358346738
 30
0.0
 10
819.0163322952461
 20
1061.625631679038
 30
0.0
 10
816.5002859069859
 20
1060.135110290522
 30
0.0
 10
816.0421686848782
 20
1057.160981957932
 30
0.0
 10
812.1996778525058
 20
1058.323173068753
 30
0.0
 10
809.1948931310349
 20
1059.241453624079
 30
0.0
 10
801.6595950773633
 20
1046.200670294006
 30
0.0
 10
808.0905575757554
 20
1059.601816123988
 30
0.0
 10
794.0938170236986
 20
1051.310868070506
 30
0.0
 10
796.1515698009622
 20
1051.359092792716
 30
0.0
 10
796.3441511898033
 20
1056.730240291373
 30
0.0
 10
785.8965667479706
 20
1052.185651125843
 30
0.0
 10
787.2366989698573
 20
1051.939588625904
 30
0.0
 10
788.4540998028863
 20
1056.511376958094
 30
0.0
 10
787.3174850809487
 20
1056.269300847044
 30
0.0
 10
776.6338217502861
 20
1053.876761958753
 30
0.0
 10
775.9147548060214
 20
1055.349115291719
 30
0.0
 10
773.5721692510514
 20
1060.138038346077
 30
0.0
 10
760.0883323099778
 20
1058.104062791029
 30
0.0
 10
768.3870414745697
 20
1060.606844734849
 30
0.0
 10
759.0592795324574
 20
1067.518572788676
 30
0.0
 10
754.297978978092
 20
1070.46765389905
 30
0.0
 10
766.4589698083854
 20
1065.420250566978
 30
0.0
 10
766.7587250860885
 20
1069.618165010373
 30
0.0
 10
765.3092670308951
 20
1069.280909454902
 30
0.0
 10
774.6156859174574
 20
1064.880041956002
 30
0.0
 10
775.399699250595
 20
1068.768887788364
 30
0.0
 10
773.3920761955408
 20
1068.5336555662
 30
0.0
 10
785.6099348035979
 20
1064.03238751177
 30
0.0
 10
787.297094525398
 20
1068.589112232853
 30
0.0
 10
773.9305209176289
 20
1070.023753621383
 30
0.0
 10
799.9952600777792
 20
1066.411661955619
 30
0.0
 10
800.8730770220039
 20
1073.6470283427
 30
0.0
 10
817.0760545179534
 20
1069.033188899408
 30
0.0
 10
791.0592225800132
 20
1075.470889453355
 30
0.0
 10
796.1721720231792
 20
1079.081252508008
 30
0.0
 10
796.9839842451985
 20
1077.708382508351
 30
0.0
 10
785.7945081368849
 20
1081.528648340729
 30
0.0
 10
790.2081109135588
 20
1084.254562228936
 30
0.0
 10
789.6983823025756
 20
1082.136343340577
 30
0.0
 10
780.2563203604916
 20
1090.088836394145
 30
0.0
 10
780.2563203604916
 20
1090.088836394145
 30
0.0
 10
779.4730831384653
 20
1094.699571392992
 30
0.0
 10
775.443020361695
 20
1100.713691669266
 30
0.0
 10
779.1787959163163
 20
1100.85942416923
 30
0.0
 10
772.5766303624114
 20
1124.004256941221
 30
0.0
 10
779.5726723051067
 20
1105.814258612435
 30
0.0
 10
782.7931453598577
 20
1107.83641611193
 30
0.0
 10
781.5317884157283
 20
1108.840845000568
 30
0.0
 10
785.1449384148251
 20
1099.28483583629
 30
0.0
 10
791.9165078575766
 20
1103.799050835162
 30
0.0
 10
787.6394300808681
 20
1082.341342507193
 30
0.0
 10
794.2589170236577
 20
1097.21311305903
 30
0.0
 10
796.4741145231039
 20
1089.44614583875
 30
0.0
 10
800.2004356332833
 20
1084.366040006686
 30
0.0
 10
807.0923375760045
 20
1080.920141951992
 30
0.0
 10
806.4222714650609
 20
1082.916581951493
 30
0.0
 10
805.984650631837
 20
1084.215650840057
 30
0.0
 10
805.4924197986267
 20
1085.67886722858
 30
0.0
 10
814.8140786851858
 20
1082.342541951637
 30
0.0
 10
816.0047036848881
 20
1081.355187507439
 30
0.0
 10
803.5575042435554
 20
1091.798115282606
 30
0.0
 10
805.0958975765036
 20
1092.584386393521
 30
0.0
 10
806.0872384095893
 20
1093.097113615614
 30
0.0
 10
807.2085072981981
 20
1093.671471115471
 30
0.0
 10
802.4361295216135
 20
1098.005346114388
 30
0.0
 10
796.1913631342852
 20
1103.435830835252
 30
0.0
 10
804.2137767433915
 20
1099.592493336213
 30
0.0
 10
801.4584764663022
 20
1104.82291777935
 30
0.0
 10
799.3731717446009
 20
1108.767996389475
 30
0.0
 10
797.2672648006832
 20
1112.774634721806
 30
0.0
 10
800.7514745220344
 20
1114.223281388111
 30
0.0
 10
800.4517545221095
 20
1112.210154999725
 30
0.0
 10
797.7595661894492
 20
1124.110548885639
 30
0.0
 10
799.2500170224096
 20
1122.196270830562
 30
0.0
 10
799.8106867444915
 20
1121.471418330744
 30
0.0
 10
800.3918881332354
 20
1120.726175275374
 30
0.0
 10
806.9294600760453
 20
1146.452494713387
 30
0.0
 10
800.6505095220595
 20
1122.074139163926
 30
0.0
 10
807.45467563147
 20
1125.628445829704
 30
0.0
 10
806.5191442428147
 20
1114.906611943496
 30
0.0
 10
805.7704439652243
 20
1116.021354443217
 30
0.0
 10
809.868240075311
 20
1117.690416665022
 30
0.0
 10
810.0773314641473
 20
1105.846961112427
 30
0.0
 10
809.2857334087897
 20
1103.011051113136
 30
0.0
 10
813.4850589632954
 20
1109.984973889171
 30
0.0
 10
818.117842573248
 20
1092.513231115761
 30
0.0
 10
818.3361767398605
 20
1089.327118616557
 30
0.0
 10
819.638526461757
 20
1097.295204447899
 30
0.0
 10
823.8776100718081
 20
1090.088765838589
 30
0.0
 10
824.2468625717161
 20
1089.746924172008
 30
0.0
 10
829.2584236815743
 20
1092.406621671343
 30
0.0
 10
830.6805767367746
 20
1093.158673337822
 30
0.0
 10
831.7471650698412
 20
1095.442345003917
 30
0.0
 10
832.1231909030804
 20
1097.199531114589
 30
0.0
 10
837.0254967351883
 20
1120.329617775473
 30
0.0
 10
844.6625711777235
 20
1142.420526936617
 30
0.0
 10
856.9900731190863
 20
1162.720171653765
 30
0.0
 10
865.654824505809
 20
1176.986293316865
 30
0.0
 10
872.7758556151393
 20
1192.363841368576
 30
0.0
 10
885.4198697786451
 20
1203.801637754605
 30
0.0
 10
885.4198697786451
 20
1203.801637754605
 30
0.0
 10
886.2539070006587
 20
1202.967565254814
 30
0.0
 10
886.2539070006587
 20
1202.967565254814
 30
0.0
 10
886.2539070006587
 20
1202.967565254814
 30
0.0
 10
888.3752303334616
 20
1205.088888587617
 30
0.0
 10
888.3752303334616
 20
1205.088888587617
 30
0.0
 10
888.3752303334616
 20
1205.088888587617
 30
0.0
 10
895.446272831694
 20
1198.017846089385
 30
0.0
 10
895.446272831694
 20
1198.017846089385
 30
0.0
 10
895.446272831694
 20
1198.017846089385
 30
0.0
 10
893.3249847766688
 20
1195.896522756582
 30
0.0
 10
893.3249847766688
 20
1195.896522756582
 30
0.0
 10
893.3249847766688
 20
1195.896522756582
 30
0.0
 10
894.3719233875184
 20
1194.849548867954
 30
0.0
 10
894.3719233875184
 20
1194.849548867954
 30
0.0
 10
892.0302903325479
 20
1192.838891924013
 30
0.0
 10
889.7914214442186
 20
1190.730586091207
 30
0.0
 10
887.8667364446999
 20
1188.373289702907
 30
0.0
 10
871.4848653376845
 20
1168.299316930148
 30
0.0
 10
855.1235258973303
 20
1148.191230546286
 30
0.0
 10
847.8897470102501
 20
1122.497013886042
 30
0.0
 10
845.0659725665116
 20
1112.439601666335
 30
0.0
 10
841.2303961785811
 20
1102.669209446555
 30
0.0
 10
838.3929339570689
 20
1092.611691393514
 30
0.0
  0
SPLINE
  5
56
330
1F
100
AcDbEntity
  8
_U+0421_U+043B_U+043E_U+0439 1
 62
     1
420
 16711693
370
     5
100
AcDbSpline
210
0.0
220
0.0
230
1.0
 70
    11
 71
     3
 72
   362
 73
   358
 74
     0
 42
0.0000000001
 43
0.0000000001
 12
1.0
 22
0.0
 32
0.0
 13
1.0
 23
0.0
 33
0.0
 40
0.0
 40
0.0
 40
0.0
 40
0.0
 40
1.0
 40
1.0
 40
1.0
 40
2.0
 40
2.0
 40
2.0
 40
3.0
 40
3.0
 40
3.0
 40
4.0
 40
4.0
 40
4.0
 40
5.0
 40
5.0
 40
5.0
 40
6.0
 40
6.0
 40
6.0
 40
7.0
 40
7.0
 40
7.0
 40
8.0
 40
8.0
 40
8.0
 40
9.0
 40
9.0
 40
9.0
 40
10.0
 40
10.0
 40
10.0
 40
11.0
 40
11.0
 40
11.0
 40
12.0
 40
12.0
 40
12.0
 40
13.0
 40
13.0
 40
13.0
 40
14.0
 40
14.0
 40
14.0
 40
15.0
 40
15.0
 40
15.0
 40
16.0
 40
16.0
 40
16.0
 40
17.0
 40
17.0
 40
17.0
 40
18.0
 40
18.0
 40
18.0
 40
19.0
 40
19.0
 40
19.0
 40
20.0
 40
20.0
 40
20.0
 40
21.0
 40
21.0
 40
21.0
 40
22.0
 40
22.0
 40
22.0
 40
23.0
 40
23.0
 40
23.0
 40
24.0
 40
24.0
 40
24.0
 40
25.0
 40
25.0
 40
25.0
 40
26.0
 40
26.0
 40
26.0
 40
27.0
 40
27.0
 40
27.0
 40
28.0
 40
28.0
 40
28.0
 40
29.0
 40
29.0
 40
29.0
 40
30.0
 40
30.0
 40
30.0
 40
31.0
 40
31.0
 40
31.0
 40
32.0
 40
32.0
 40
32.0
 40
33.0
 40
33.0
 40
33.0
 40
34.0
 40
34.0
 40
34.0
 40
35.0
 40
35.0
 40
35.0
 40
36.0
 40
36.0
 40
36.0
 40
37.0
 40
37.0
 40
37.0
 40
38.0
 40
38.0
 40
38.0
 40
39.0
 40
39.0
 40
39.0
 40
40.0
 40
40.0
 40
40.0
 40
41.0
 40
41.0
 40
41.0
 40
42.0
 40
42.0
 40
42.0
 40
43.0
 40
43.0
 40
43.0
 40
44.0
 40
44.0
 40
44.0
 40
45.0
 40
45.0
 40
45.0
 40
46.0
 40
46.0
 40
46.0
 40
47.0
 40
47.0
 40
47.0
 40
48.0
 40
48.0
 40
48.0
 40
49.0
 40
49.0
 40
49.0
 40
50.0
 40
50.0
 40
50.0
 40
51.0
 40
51.0
 40
51.0
 40
52.0
 40
52.0
 40
52.0
 40
53.0
 40
53.0
 40
53.0
 40
54.0
 40
54.0
 40
54.0
 40
55.0
 40
55.0
 40
55.0
 40
56.0
 40
56.0
 40
56.0
 40
57.0
 40
57.0
 40
57.0
 40
58.0
 40
58.0
 40
58.0
 40
59.0
 40
59.0
 40
59.0
 40
60.0
 40
60.0
 40
60.0
 40
61.0
 40
61.0
 40
61.0
 40
62.0
 40
62.0
 40
62.0
 40
63.0
 40
63.0
 40
63.0
 40
64.0
 40
64.0
 40
64.0
 40
65.0
 40
65.0
 40
65.0
 40
66.0
 40
66.0
 40
66.0
 40
67.0
 40
67.0
 40
67.0
 40
68.0
 40
68.0
 40
68.0
 40
69.0
 40
69.0
 40
69.0
 40
70.0
 40
70.0
 40
70.0
 40
71.0
 40
71.0
 40
71.0
 40
72.0
 40
72.0
 40
72.0
 40
73.0
 40
73.0
 40
73.0
 40
74.0
 40
74.0
 40
74.0
 40
75.0
 40
75.0
 40
75.0
 40
76.0
 40
76.0
 40
76.0
 40
77.0
 40
77.0
 40
77.0
 40
78.0
 40
78.0
 40
78.0
 40
79.0
 40
79.0
 40
79.0
 40
80.0
 40
80.0
 40
80.0
 40
81.0
 40
81.0
 40
81.0
 40
82.0
 40
82.0
 40
82.0
 40
83.0
 40
83.0
 40
83.0
 40
84.0
 40
84.0
 40
84.0
 40
85.0
 40
85.0
 40
85.0
 40
86.0
 40
86.0
 40
86.0
 40
87.0
 40
87.0
 40
87.0
 40
88.0
 40
88.0
 40
88.0
 40
89.0
 40
89.0
 40
89.0
 40
90.0
 40
90.0
 40
90.0
 40
91.0
 40
91.0
 40
91.0
 40
92.0
 40
92.0
 40
92.0
 40
93.0
 40
93.0
 40
93.0
 40
94.0
 40
94.0
 40
94.0
 40
95.0
 40
95.0
 40
95.0
 40
96.0
 40
96.0
 40
96.0
 40
97.0
 40
97.0
 40
97.0
 40
98.0
 40
98.0
 40
98.0
 40
99.0
 40
99.0
 40
99.0
 40
100.0
 40
100.0
 40
100.0
 40
101.0
 40
101.0
 40
101.0
 40
102.0
 40
102.0
 40
102.0
 40
103.0
 40
103.0
 40
103.0
 40
104.0
 40
104.0
 40
104.0
 40
105.0
 40
105.0
 40
105.0
 40
106.0
 40
106.0
 40
106.0
 40
107.0
 40
107.0
 40
107.0
 40
108.0
 40
108.0
 40
108.0
 40
109.0
 40
109.0
 40
109.0
 40
110.0
 40
110.0
 40
110.0
 40
111.0
 40
111.0
 40
111.0
 40
112.0
 40
112.0
 40
112.0
 40
113.0
 40
113.0
 40
113.0
 40
114.0
 40
114.0
 40
114.0
 40
115.0
 40
115.0
 40
115.0
 40
116.0
 40
116.0
 40
116.0
 40
117.0
 40
117.0
 40
117.0
 40
118.0
 40
118.0
 40
118.0
 40
119.0
 40
119.0
 40
119.0
 40
119.0
 10
656.5549337247501
 20
1126.147381940686
 30
0.0
 10
655.3766912250447
 20
1127.562020829221
 30
0.0
 10
654.117274558693
 20
1128.930763328878
 30
0.0
 10
652.7096912257116
 20
1130.130172495245
 30
0.0
 10
652.0993856703085
 20
1130.655881939558
 30
0.0
 10
651.4572948371357
 20
1131.146207772769
 30
0.0
 10
650.7870523373034
 20
1131.597763328212
 30
0.0
 10
649.6687467820275
 20
1132.345687494692
 30
0.0
 10
648.3987467823448
 20
1132.917152216771
 30
0.0
 10
647.0828856715628
 20
1133.439263327751
 30
0.0
 10
643.7985245612726
 20
1134.740978049648
 30
0.0
 10
640.2460170621608
 20
1135.753485549395
 30
0.0
 10
638.2140170626687
 20
1138.561596659804
 30
0.0
 10
639.1524765068787
 20
1138.734457770872
 30
0.0
 10
640.0943578955321
 20
1138.910846659717
 30
0.0
 10
641.0327115064084
 20
1139.083707770784
 30
0.0
 10
641.2796912285689
 20
1139.122548604108
 30
0.0
 10
641.3361356729991
 20
1139.46121527069
 30
0.0
 10
641.1703301174854
 20
1139.612874437319
 30
0.0
 10
638.8313781736255
 20
1141.782493047888
 30
0.0
 10
636.2526078964923
 20
1143.641631936312
 30
0.0
 10
633.4585726194133
 20
1145.215020824807
 30
0.0
 10
634.5522190080287
 20
1145.546631935836
 30
0.0
 10
635.497628174459
 20
1146.082854157924
 30
0.0
 10
636.3584059520215
 20
1146.869548602172
 30
0.0
 10
636.5383226186432
 20
1147.031791102131
 30
0.0
 10
636.4430726186669
 20
1147.352783602051
 30
0.0
 10
636.206746785393
 20
1147.402243046483
 30
0.0
 10
630.5375726201434
 20
1148.576922490634
 30
0.0
 10
625.1048301215017
 20
1150.503089156819
 30
0.0
 10
619.9754059561174
 20
1153.131354156162
 30
0.0
 10
620.8150170670186
 20
1153.487659711628
 30
0.0
 10
621.3512745668844
 20
1154.32014471142
 30
0.0
 10
621.4959134557371
 20
1155.276243044515
 30
0.0
 10
621.7851559556649
 20
1157.156513321822
 30
0.0
 10
620.3670598449083
 20
1158.472339154826
 30
0.0
 10
618.7054412342126
 20
1159.149743043546
 30
0.0
 10
616.0349134571026
 20
1160.236228043274
 30
0.0
 10
612.8634412356732
 20
1160.479715265436
 30
0.0
 10
610.0376912363796
 20
1161.019394709745
 30
0.0
 10
608.6724059589432
 20
1161.273465265238
 30
0.0
 10
607.1660448482085
 20
1161.456909709636
 30
0.0
 10
605.9489615151795
 20
1162.158866931683
 30
0.0
 10
604.5131912377608
 20
1162.980874431477
 30
0.0
 10
603.3384412380544
 20
1165.810152208548
 30
0.0
 10
605.6843781819123
 20
1166.413402208397
 30
0.0
 10
606.0548301262642
 20
1166.505124430596
 30
0.0
 10
605.9419059596258
 20
1167.013159708247
 30
0.0
 10
605.5820726263822
 20
1167.03429109713
 30
0.0
 10
602.0366912383797
 20
1167.242465263745
 30
0.0
 10
598.4842190170457
 20
1167.447076374805
 30
0.0
 10
594.9388023512654
 20
1167.655179985864
 30
0.0
 10
594.4978301291534
 20
1167.679874430302
 30
0.0
 10
594.0603856848184
 20
1167.686965263634
 30
0.0
 10
593.629996796037
 20
1167.75042998584
 30
0.0
 10
593.287802351678
 20
1167.771631930279
 30
0.0
 10
592.9667392962027
 20
1167.856263319147
 30
0.0
 10
592.6528023518367
 20
1168.000902208
 30
0.0
 10
592.61748929629
 20
1168.572437485635
 30
0.0
 10
592.5822467962988
 20
1169.136811374382
 30
0.0
 10
592.550496796307
 20
1169.704818874241
 30
0.0
 10
592.6422190185061
 20
1170.170450263013
 30
0.0
 10
592.9773226295337
 20
1170.516243040704
 30
0.0
 10
593.0232190184108
 20
1171.027735540577
 30
0.0
 10
593.1043579072796
 20
1171.87789470703
 30
0.0
 10
592.7586356851436
 20
1172.675207762387
 30
0.0
 10
592.2400170741623
 20
1173.349048595552
 30
0.0
 10
590.7759892967507
 20
1175.23990220619
 30
0.0
 10
588.3982670751227
 20
1175.472770817243
 30
0.0
 10
586.1334690201334
 20
1175.254013317298
 30
0.0
 10
583.3641281874925
 20
1174.982374428477
 30
0.0
 10
578.9579337441496
 20
1174.0440208176
 30
0.0
 10
577.5291837445064
 20
1177.180179983483
 30
0.0
 10
579.1131912441108
 20
1177.709346650017
 30
0.0
 10
580.3796634660164
 20
1178.623076372011
 30
0.0
 10
581.3885726324306
 20
1179.945993038347
 30
0.0
 10
581.4944412435154
 20
1180.087068871645
 30
0.0
 10
581.4062467990931
 20
1180.302298593813
 30
0.0
 10
581.265135688017
 20
1180.383437482682
 30
0.0
 10
577.5115448556222
 20
1182.528326371035
 30
0.0
 10
573.666267078806
 20
1184.500318870541
 30
0.0
 10
569.7257745797907
 20
1186.310033592312
 30
0.0
 10
570.0114893019417
 20
1186.8886244255
 30
0.0
 10
570.2937468018712
 20
1187.463616925356
 30
0.0
 10
570.5724059684682
 20
1188.038679980768
 30
0.0
 10
570.6676559684445
 20
1188.239798591829
 30
0.0
 10
570.575933746245
 20
1188.426700258449
 30
0.0
 10
570.3713579129627
 20
1188.50085414732
 30
0.0
 10
566.8894412471665
 20
1189.770783591447
 30
0.0
 10
563.4075245813704
 20
1191.033763313353
 30
0.0
 10
559.9256079155742
 20
1192.303798590813
 30
0.0
 10
561.9434615261808
 20
1192.790596646247
 30
0.0
 10
563.9578579145663
 20
1193.280993035013
 30
0.0
 10
565.9722190251738
 20
1193.771318868224
 30
0.0
 10
566.2438579139946
 20
1193.841874423762
 30
0.0
 10
566.2861559695398
 20
1194.229965256998
 30
0.0
 10
566.0427393029338
 20
1194.35343747919
 30
0.0
 10
563.9472745812353
 20
1195.436429978919
 30
0.0
 10
561.7670726373361
 20
1196.198465256506
 30
0.0
 10
559.4528856934701
 20
1196.664096645279
 30
0.0
 10
560.7299059709288
 20
1198.001124422722
 30
0.0
 10
560.747544859813
 20
1200.223624422166
 30
0.0
 10
558.9272468047127
 20
1201.236061366358
 30
0.0
 10
558.242857915995
 20
1201.620624421817
 30
0.0
 10
556.7223856941529
 20
1201.976929977284
 30
0.0
 10
556.0379968054352
 20
1201.363096644104
 30
0.0
 10
555.6887468055222
 20
1201.052616921959
 30
0.0
 10
555.664052361084
 20
1200.442311366556
 30
0.0
 10
555.5334893055611
 20
1200.011922477775
 30
0.0
 10
555.3006912500639
 20
1199.25348553352
 30
0.0
 10
555.064294861234
 20
1198.487922478156
 30
0.0
 10
554.8314615279589
 20
1197.725957756124
 30
0.0
 10
554.1964968058954
 20
1200.318909699921
 30
0.0
 10
553.08877458395
 20
1202.728311365985
 30
0.0
 10
551.5189134732315
 20
1204.940228032099
 30
0.0
 10
551.3778023621554
 20
1205.141346643159
 30
0.0
 10
551.08852458445
 20
1205.137818865382
 30
0.0
 10
550.9544337511502
 20
1204.933172476545
 30
0.0
 10
549.8714412514211
 20
1203.321048588059
 30
0.0
 10
548.6049690295155
 20
1201.9099374773
 30
0.0
 10
547.1232670854414
 20
1200.643429977617
 30
0.0
 10
545.4299690303092
 20
1201.123243033052
 30
0.0
 10
544.0188579195509
 20
1203.45859664358
 30
0.0
 10
542.1385170866876
 20
1202.664846643778
 30
0.0
 10
540.2547190316029
 20
1201.871096643977
 30
0.0
 10
540.459294864885
 20
1199.832005811153
 30
0.0
 10
540.932052364767
 20
1198.202243033783
 30
0.0
 10
539.0975726430033
 20
1198.935950255822
 30
0.0
 10
537.2314134768034
 20
1199.578041088994
 30
0.0
 10
535.3299059772788
 20
1200.11779108886
 30
0.0
 10
535.1182745884428
 20
1200.177728033289
 30
0.0
 10
534.9242468107135
 20
1200.004866922221
 30
0.0
 10
534.9207190329365
 20
1199.80738192227
 30
0.0
 10
534.8854412551674
 20
1198.08226331159
 30
0.0
 10
534.8501634773986
 20
1196.364200256465
 30
0.0
 10
534.8148504218517
 20
1194.63915220134
 30
0.0
 10
532.6170448668457
 20
1195.115437478999
 30
0.0
 10
530.4263301451713
 20
1195.595144701101
 30
0.0
 10
528.232052367942
 20
1196.07142997876
 30
0.0
 10
527.8580726458134
 20
1196.149041089852
 30
0.0
 10
527.6816837569686
 20
1195.683339145524
 30
0.0
 10
527.9921634791133
 20
1195.485854145573
 30
0.0
 10
529.1845523677038
 20
1194.706215256879
 30
0.0
 10
530.3769412562947
 20
1193.933596645961
 30
0.0
 10
531.5799134782161
 20
1193.153957757267
 30
0.0
 10
532.1972745891728
 20
1192.748228035146
 30
0.0
 10
533.1180245889428
 20
1192.346096646358
 30
0.0
 10
533.6224968110388
 20
1191.8204577576
 30
0.0
 10
533.7953579221069
 20
1191.707604146517
 30
0.0
 10
533.9646912553977
 20
1191.594715257657
 30
0.0
 10
534.1375523664656
 20
1191.488846646572
 30
0.0
 10
534.4197745886173
 20
1190.342318869082
 30
0.0
 10
534.0493579220431
 20
1189.668478035916
 30
0.0
 10
533.0263023667435
 20
1189.47804859152
 30
0.0
 10
530.4510245896095
 20
1188.419715258451
 30
0.0
 10
527.6322948680919
 20
1188.024568869661
 30
0.0
 10
524.9264893132128
 20
1187.428374425365
 30
0.0
 10
520.7884059809141
 20
1186.507589147818
 30
0.0
 10
516.5057190375403
 20
1184.980131925977
 30
0.0
 10
514.2549615381029
 20
1181.230068871359
 30
0.0
 10
514.1350523714663
 20
1181.025422482521
 30
0.0
 10
514.3008579269805
 20
1180.739743038149
 30
0.0
 10
514.5513301491401
 20
1180.750326371479
 30
0.0
 10
516.2093504265032
 20
1180.824409704794
 30
0.0
 10
517.8709337594212
 20
1180.891402204777
 30
0.0
 10
519.52902459234
 20
1180.965485538092
 30
0.0
 10
519.8676912589219
 20
1180.976068871423
 30
0.0
 10
521.8185523695456
 20
1181.279493038013
 30
0.0
 10
522.0196004250507
 20
1181.067791093622
 30
0.0
 10
522.9121282026052
 20
1180.125909704969
 30
0.0
 10
521.0071634808595
 20
1179.423881927366
 30
0.0
 10
520.4497393143321
 20
1179.162826371876
 30
0.0
 10
517.4088301484257
 20
1177.70581887224
 30
0.0
 10
514.2408857047732
 20
1176.46756887255
 30
0.0
 10
511.0588301500133
 20
1175.349263317274
 30
0.0
 10
504.9945448737514
 20
1173.218485540029
 30
0.0
 10
498.7397948753152
 20
1171.659243040419
 30
0.0
 10
492.3792115435721
 20
1170.63964470734
 30
0.0
 10
492.0123579325524
 20
1170.583235540688
 30
0.0
 10
492.1111357103055
 20
1170.004715263055
 30
0.0
 10
492.4779893213251
 20
1170.018755818606
 30
0.0
 10
493.6139337654856
 20
1170.043485540823
 30
0.0
 10
494.7604615429768
 20
1170.099965263031
 30
0.0
 10
495.8964412649148
 20
1170.096366929698
 30
0.0
 10
496.2174690426123
 20
1170.110478040806
 30
0.0
 10
496.5314059869783
 20
1170.103422485252
 30
0.0
 10
496.8524337646758
 20
1170.064687485262
 30
0.0
 10
496.9089134868839
 20
1169.715437485349
 30
0.0
 10
496.9653226535366
 20
1169.369715263213
 30
0.0
 10
497.0218023757445
 20
1169.0204652633
 30
0.0
 10
496.7607468202543
 20
1168.515922485649
 30
0.0
 10
495.4978023761255
 20
1168.233770819053
 30
0.0
 10
494.9968579318063
 20
1168.060839152429
 30
0.0
 10
492.9401634878761
 20
1167.351826374829
 30
0.0
 10
490.8058226550762
 20
1166.872013319393
 30
0.0
 10
488.65387821117
 20
1166.526291097258
 30
0.0
 10
488.3822746001267
 20
1166.483993041712
 30
0.0
 10
488.34696154458
 20
1166.057061375152
 30
0.0
 10
488.5833579334096
 20
1165.944172486292
 30
0.0
 10
489.4123857109802
 20
1165.573826375273
 30
0.0
 10
490.2273023774433
 20
1165.203374430922
 30
0.0
 10
491.0562948772362
 20
1164.832957764347
 30
0.0
 10
488.6962115444927
 20
1163.922755820131
 30
0.0
 10
486.3008504339804
 20
1163.121950264775
 30
0.0
 10
483.8596634901463
 20
1162.441089153834
 30
0.0
 10
483.4998301569028
 20
1162.33885415386
 30
0.0
 10
483.5844615457707
 20
1161.820200265101
 30
0.0
 10
483.9513857123457
 20
1161.816672487324
 30
0.0
 10
485.1367190453826
 20
1161.809687487325
 30
0.0
 10
486.237385711774
 20
1161.643811376256
 30
0.0
 10
487.3239412670579
 20
1161.308707765228
 30
0.0
 10
483.1117746014444
 20
1160.719604154265
 30
0.0
 10
478.9701634913685
 20
1159.784672487832
 30
0.0
 10
474.9272948812683
 20
1158.479429988158
 30
0.0
 10
474.6415801591174
 20
1158.387707765959
 30
0.0
 10
474.5957190480178
 20
1157.922076377186
 30
0.0
 10
474.9378782145989
 20
1157.862068877201
 30
0.0
 10
476.0950246031985
 20
1157.675061377248
 30
0.0
 10
477.1850726584815
 20
1157.375270821767
 30
0.0
 10
478.2575523804357
 20
1156.95193748854
 30
0.0
 10
474.048878214821
 20
1155.897061377693
 30
0.0
 10
469.8190726603229
 20
1154.937505822377
 30
0.0
 10
465.5681004391637
 20
1154.066179989261
 30
0.0
 10
465.2012468281441
 20
1153.9991522115
 30
0.0
 10
465.2929690503435
 20
1153.427616933865
 30
0.0
 10
465.6598226613628
 20
1153.44525582275
 30
0.0
 10
467.3919968275964
 20
1153.529922489395
 30
0.0
 10
469.0359412716298
 20
1153.297124433898
 30
0.0
 10
470.6375523823405
 20
1152.736172489594
 30
0.0
 10
467.9740448830066
 20
1152.101243045308
 30
0.0
 10
465.3141004392272
 20
1151.466243045467
 30
0.0
 10
462.6541912732253
 20
1150.827679990071
 30
0.0
 10
461.352405995773
 20
1150.517200267926
 30
0.0
 10
459.2463579407439
 20
1150.083283601368
 30
0.0
 10
459.4439134962502
 20
1148.379437490683
 30
0.0
 10
459.4615171073569
 20
1148.245346657383
 30
0.0
 10
459.5391634962263
 20
1148.100707768531
 30
0.0
 10
459.6837671073014
 20
1148.079541101869
 30
0.0
 10
460.8232393292386
 20
1147.864311379701
 30
0.0
 10
461.9591837733992
 20
1147.656207768642
 30
0.0
 10
463.0916357175606
 20
1147.448033602027
 30
0.0
 10
454.5755801641339
 20
1142.978374436478
 30
0.0
 10
440.591469056519
 20
1146.195672491229
 30
0.0
 10
435.7054968355181
 20
1136.289743049261
 30
0.0
 10
435.6102468355418
 20
1136.095679993754
 30
0.0
 10
435.7231357244027
 20
1135.774616938279
 30
0.0
 10
435.9912468354465
 20
1135.809929993825
 30
0.0
 10
439.6530448900866
 20
1136.335533604805
 30
0.0
 10
443.3184060002815
 20
1136.861172493563
 30
0.0
 10
446.9802393326994
 20
1137.379826382322
 30
0.0
 10
445.4492190553044
 20
1136.011013327109
 30
0.0
 10
443.8687746112549
 20
1134.695152216326
 30
0.0
 10
442.2424690561061
 20
1133.439263327751
 30
0.0
 10
441.5192746118423
 20
1132.878311383447
 30
0.0
 10
440.7889893342472
 20
1132.328048605807
 30
0.0
 10
440.0481912788767
 20
1131.795354161496
 30
0.0
 10
439.670719056749
 20
1131.523715272675
 30
0.0
 10
439.2932115568434
 20
1131.252041106076
 30
0.0
 10
438.9122115569387
 20
1130.987457772809
 30
0.0
 10
438.6088579459033
 20
1130.775755828417
 30
0.0
 10
438.8064135014096
 20
1130.345402217414
 30
0.0
 10
439.1767948902059
 20
1130.412465272952
 30
0.0
 10
439.4660726679112
 20
1130.465381939606
 30
0.0
 10
439.7589135011714
 20
1130.518263328482
 30
0.0
 10
440.0481912788767
 20
1130.571144717357
 30
0.0
 10
441.5827393340487
 20
1130.849839161732
 30
0.0
 10
443.1103023892225
 20
1131.12500582833
 30
0.0
 10
444.6484134999492
 20
1131.403735550482
 30
0.0
 10
443.875794889031
 20
1129.156576384377
 30
0.0
 10
441.9849412783928
 20
1127.586644718104
 30
0.0
 10
440.0481912788767
 20
1126.059187496263
 30
0.0
 10
437.4411282239731
 20
1124.005985552332
 30
0.0
 10
434.756524613533
 20
1122.026937497271
 30
0.0
 10
434.6224337802334
 20
1118.566187498136
 30
0.0
 10
434.6153782246795
 20
1118.40736694262
 30
0.0
 10
434.7812190579715
 20
1118.241631942662
 30
0.0
 10
434.9540801690393
 20
1118.252144720437
 30
0.0
 10
436.8026357241326
 20
1118.393326387069
 30
0.0
 10
438.5383023903655
 20
1118.954172498039
 30
0.0
 10
440.0481912788767
 20
1119.860846664479
 30
0.0
 10
440.0481912788767
 20
1119.860846664479
 30
0.0
 10
440.0481912788767
 20
1017.139048634604
 30
0.0
 10
440.0481912788767
 20
1017.139048634604
 30
0.0
 10
440.0481912788767
 20
1017.139048634604
 30
0.0
 10
440.0487910010991
 20
1017.139048634604
 30
0.0
 10
440.0487910010991
 20
1017.139048634604
 30
0.0
 10
440.0487910010991
 20
1017.139048634604
 30
0.0
 10
440.0487910010991
 20
1014.138955857576
 30
0.0
 10
440.0487910010991
 20
1014.138955857576
 30
0.0
 10
440.0487910010991
 20
1014.138955857576
 30
0.0
 10
450.0488062763768
 20
1014.138955857576
 30
0.0
 10
450.0488062763768
 20
1014.138955857576
 30
0.0
 10
450.0488062763768
 20
1014.138955857576
 30
0.0
 10
450.0488062763768
 20
1017.139048634604
 30
0.0
 10
450.0488062763768
 20
1017.139048634604
 30
0.0
 10
450.0488062763768
 20
1017.139048634604
 30
0.0
 10
450.0494059985987
 20
1017.139048634604
 30
0.0
 10
450.0494059985987
 20
1017.139048634604
 30
0.0
 10
450.0822143319238
 20
1017.378126134545
 30
0.0
 10
450.4080046096204
 20
1106.525917223369
 30
0.0
 10
450.410791554064
 20
1107.270983889849
 30
0.0
 10
453.3256884977798
 20
1110.282083333541
 30
0.0
 10
456.6369312747298
 20
1112.907596666218
 30
0.0
 10
459.8055812739376
 20
1115.345608610053
 30
0.0
 10
464.0730987728705
 20
1118.629405275898
 30
0.0
 10
470.984720993365
 20
1123.681183052413
 30
0.0
 10
476.2195551587229
 20
1127.254433884853
 30
0.0
 10
476.2195551587229
 20
1127.254433884853
 30
0.0
 10
616.3508259570234
 20
1127.254433884853
 30
0.0
 10
616.3508259570234
 20
1127.254433884853
 30
0.0
 10
619.9561442894553
 20
1124.773629996585
 30
0.0
 10
624.0086790106645
 20
1121.59623110849
 30
0.0
 10
627.6254626208714
 20
1118.759368609199
 30
0.0
 10
629.0589751205132
 20
1117.634889442814
 30
0.0
 10
630.4129009535078
 20
1116.572922498635
 30
0.0
 10
631.7113701198501
 20
1115.573855832218
 30
0.0
 10
634.8065717857427
 20
1113.19218249948
 30
0.0
 10
639.479148729019
 20
1109.145292222714
 30
0.0
 10
642.708405950434
 20
1105.950748334624
 30
0.0
 10
642.708405950434
 20
1105.950748334624
 30
0.0
 10
642.708405950434
 20
1017.139048634604
 30
0.0
 10
642.708405950434
 20
1017.139048634604
 30
0.0
 10
642.708405950434
 20
1017.139048634604
 30
0.0
 10
642.7090762282116
 20
1017.139048634604
 30
0.0
 10
642.7090762282116
 20
1017.139048634604
 30
0.0
 10
642.7090762282116
 20
1017.139048634604
 30
0.0
 10
642.7090762282116
 20
1014.138955857576
 30
0.0
 10
642.7090762282116
 20
1014.138955857576
 30
0.0
 10
642.7090762282116
 20
1014.138955857576
 30
0.0
 10
652.7090915034896
 20
1014.138955857576
 30
0.0
 10
652.7090915034896
 20
1014.138955857576
 30
0.0
 10
652.7090915034896
 20
1014.138955857576
 30
0.0
 10
652.7090915034896
 20
1017.139048634604
 30
0.0
 10
652.7090915034896
 20
1017.139048634604
 30
0.0
 10
652.7090915034896
 20
1017.139048634604
 30
0.0
 10
652.7096912257116
 20
1017.139048634604
 30
0.0
 10
652.7096912257116
 20
1017.139048634604
 30
0.0
 10
652.7096912257116
 20
1017.139048634604
 30
0.0
 10
652.7096912257116
 20
1115.373513332268
 30
0.0
 10
652.7096912257116
 20
1115.373513332268
 30
0.0
 10
653.6092745588201
 20
1114.696144721326
 30
0.0
 10
654.4700523363825
 20
1113.969457777063
 30
0.0
 10
655.2920598361771
 20
1113.193381943924
 30
0.0
 10
655.4754337250201
 20
1113.024048610633
 30
0.0
 10
655.7647115027255
 20
1113.115700277277
 30
0.0
 10
655.8388301138182
 20
1113.341513332776
 30
0.0
 10
656.660767058057
 20
1115.84627083215
 30
0.0
 10
656.2409967803841
 20
1118.414422498174
 30
0.0
 10
654.7558023363113
 20
1120.538144719866
 30
0.0
 10
656.2056837248375
 20
1120.464096664329
 30
0.0
 10
657.6591634466964
 20
1120.38295777546
 30
0.0
 10
659.1125726129995
 20
1120.298291108814
 30
0.0
 10
659.2572467796301
 20
1120.294763331037
 30
0.0
 10
659.3806837240437
 20
1120.411215275453
 30
0.0
 10
659.4230523351443
 20
1120.538144719866
 30
0.0
 10
660.1074412238622
 20
1122.640700274895
 30
0.0
 10
657.8037670577716
 20
1124.658659718835
 30
0.0
 10
656.5549337247501
 20
1126.147381940686
 30
0.0
  0
SPLINE
  5
57
330
1F
100
AcDbEntity
  8
_U+0421_U+043B_U+043E_U+0439 1
 62
     1
420
 16711693
370
     5
100
AcDbSpline
210
0.0
220
0.0
230
1.0
 70
    11
 71
     3
 72
    38
 73
    34
 74
     0
 42
0.0000000001
 43
0.0000000001
 12
1.0
 22
0.0
 32
0.0
 13
1.0
 23
0.0
 33
0.0
 40
0.0
 40
0.0
 40
0.0
 40
0.0
 40
1.0
 40
1.0
 40
1.0
 40
2.0
 40
2.0
 40
2.0
 40
3.0
 40
3.0
 40
3.0
 40
4.0
 40
4.0
 40
4.0
 40
5.0
 40
5.0
 40
5.0
 40
6.0
 40
6.0
 40
6.0
 40
7.0
 40
7.0
 40
7.0
 40
8.0
 40
8.0
 40
8.0
 40
9.0
 40
9.0
 40
9.0
 40
10.0
 40
10.0
 40
10.0
 40
11.0
 40
11.0
 40
11.0
 40
11.0
 10
456.5785465525221
 20
1119.539324997893
 30
0.0
 10
454.5449943308083
 20
1117.974649720506
 30
0.0
 10
452.4525987757758
 20
1116.329541109807
 30
0.0
 10
450.410791554064
 20
1114.546531665808
 30
0.0
 10
450.410791554064
 20
1114.546531665808
 30
0.0
 10
450.410791554064
 20
1125.421224163089
 30
0.0
 10
450.410791554064
 20
1125.421224163089
 30
0.0
 10
450.9302215539341
 20
1126.019711662939
 30
0.0
 10
451.435505164919
 20
1126.630899162787
 30
0.0
 10
451.9259721092408
 20
1127.254433884853
 30
0.0
 10
451.9259721092408
 20
1127.254433884853
 30
0.0
 10
453.2669157200166
 20
1127.254433884853
 30
0.0
 10
453.2669157200166
 20
1127.254433884853
 30
0.0
 10
453.8080415532148
 20
1124.707589996601
 30
0.0
 10
454.3490615530794
 20
1122.160781386127
 30
0.0
 10
454.8930801640544
 20
1119.613902220097
 30
0.0
 10
454.949524608485
 20
1119.352881942384
 30
0.0
 10
455.3693301639354
 20
1119.306950275729
 30
0.0
 10
455.4892393305722
 20
1119.543381942336
 30
0.0
 10
456.7906012746913
 20
1122.127620275024
 30
0.0
 10
458.1175043299152
 20
1124.694572496604
 30
0.0
 10
459.4564018295803
 20
1127.254433884853
 30
0.0
 10
459.4564018295803
 20
1127.254433884853
 30
0.0
 10
462.8274404398487
 20
1127.254433884853
 30
0.0
 10
462.8274404398487
 20
1127.254433884853
 30
0.0
 10
462.9175398842706
 20
1126.341656662859
 30
0.0
 10
462.9680929398137
 20
1125.422705829756
 30
0.0
 10
462.975219050923
 20
1124.496381941098
 30
0.0
 10
462.9758893287007
 20
1124.44385333
 30
0.0
 10
462.9913409953633
 20
1124.3995797189
 30
0.0
 10
463.012472384247
 20
1124.359609996688
 30
0.0
 10
460.607162940404
 20
1122.59476860824
 30
0.0
 10
458.3621909965205
 20
1120.911771664217
 30
0.0
 10
456.5785465525221
 20
1119.539324997893
 30
0.0
  0
SPLINE
  5
58
330
1F
100
AcDbEntity
  8
_U+0421_U+043B_U+043E_U+0439 1
 62
     1
420
 16711693
370
     5
100
AcDbSpline
210
0.0
220
0.0
230
1.0
 70
    11
 71
     3
 72
    59
 73
    55
 74
     0
 42
0.0000000001
 43
0.0000000001
 12
1.0
 22
0.0
 32
0.0
 13
1.0
 23
0.0
 33
0.0
 40
0.0
 40
0.0
 40
0.0
 40
0.0
 40
1.0
 40
1.0
 40
1.0
 40
2.0
 40
2.0
 40
2.0
 40
3.0
 40
3.0
 40
3.0
 40
4.0
 40
4.0
 40
4.0
 40
5.0
 40
5.0
 40
5.0
 40
6.0
 40
6.0
 40
6.0
 40
7.0
 40
7.0
 40
7.0
 40
8.0
 40
8.0
 40
8.0
 40
9.0
 40
9.0
 40
9.0
 40
10.0
 40
10.0
 40
10.0
 40
11.0
 40
11.0
 40
11.0
 40
12.0
 40
12.0
 40
12.0
 40
13.0
 40
13.0
 40
13.0
 40
14.0
 40
14.0
 40
14.0
 40
15.0
 40
15.0
 40
15.0
 40
16.0
 40
16.0
 40
16.0
 40
17.0
 40
17.0
 40
17.0
 40
18.0
 40
18.0
 40
18.0
 40
18.0
 10
542.4029240310658
 20
1132.546100550197
 30
0.0
 10
542.4029240310658
 20
1132.546100550197
 30
0.0
 10
476.8463001585663
 20
1132.546100550197
 30
0.0
 10
476.8463001585663
 20
1132.546100550197
 30
0.0
 10
478.6488534914489
 20
1133.235745827802
 30
0.0
 10
480.5127196020941
 20
1133.831834438764
 30
0.0
 10
482.1521837683508
 20
1134.695152216326
 30
0.0
 10
486.0186634896065
 20
1136.73424304915
 30
0.0
 10
487.5073504336788
 20
1140.455978048219
 30
0.0
 10
490.1496559885737
 20
1143.634576380758
 30
0.0
 10
491.7019134881856
 20
1145.497172491404
 30
0.0
 10
493.458711543302
 20
1146.474366935604
 30
0.0
 10
495.9669968204527
 20
1146.375659713406
 30
0.0
 10
497.8755245977533
 20
1146.297978046759
 30
0.0
 10
499.5688579306633
 20
1146.425013324505
 30
0.0
 10
500.4790245971025
 20
1148.273568879599
 30
0.0
 10
501.4562190413027
 20
1150.266728045767
 30
0.0
 10
501.279830152458
 20
1152.450422489665
 30
0.0
 10
503.4458857074718
 20
1153.759298600449
 30
0.0
 10
505.506107929179
 20
1155.001005822361
 30
0.0
 10
508.2930523729269
 20
1154.888152211278
 30
0.0
 10
510.0604690391515
 20
1153.219548600584
 30
0.0
 10
510.2262745946657
 20
1153.05374304507
 30
0.0
 10
510.5543226501392
 20
1153.12426332283
 30
0.0
 10
510.6002190390168
 20
1153.364152211659
 30
0.0
 10
511.2246357055272
 20
1156.235728044275
 30
0.0
 10
511.8454893164831
 20
1159.114429987999
 30
0.0
 10
512.4663782052169
 20
1161.982478042838
 30
0.0
 10
513.1896079272581
 20
1161.199311376367
 30
0.0
 10
513.9127670937439
 20
1160.419707765451
 30
0.0
 10
514.6359968157855
 20
1159.633013321203
 30
0.0
 10
514.748885704646
 20
1159.513033599011
 30
0.0
 10
514.9993579268056
 20
1159.513033599011
 30
0.0
 10
515.1016634823357
 20
1159.640068876757
 30
0.0
 10
516.1494134820738
 20
1160.90657637644
 30
0.0
 10
516.9431634818753
 20
1162.278846653875
 30
0.0
 10
517.5357948706161
 20
1163.781679986832
 30
0.0
 10
518.1637745926813
 20
1162.71629109821
 30
0.0
 10
519.0598301480128
 20
1161.919013320631
 30
0.0
 10
520.2345801477192
 20
1161.354604154106
 30
0.0
 10
520.4074412587872
 20
1161.283978043013
 30
0.0
 10
520.5767393143003
 20
1161.32987443189
 30
0.0
 10
520.6861357031617
 20
1161.478041098519
 30
0.0
 10
521.8954932028597
 20
1163.190847764758
 30
0.0
 10
523.3260776469461
 20
1164.706874986601
 30
0.0
 10
524.8399176465679
 20
1166.14895998624
 30
0.0
 10
527.0851012571177
 20
1164.516868875538
 30
0.0
 10
529.3971715343174
 20
1162.787940264859
 30
0.0
 10
531.8089368114925
 20
1160.932329154211
 30
0.0
 10
535.2782240328471
 20
1158.262648043768
 30
0.0
 10
539.4343695873637
 20
1154.501296100264
 30
0.0
 10
542.4029240310658
 20
1151.359704156604
 30
0.0
 10
542.4029240310658
 20
1151.359704156604
 30
0.0
 10
542.4029240310658
 20
1132.546100550197
 30
0.0
 10
542.4029240310658
 20
1132.546100550197
 30
0.0
  0
SPLINE
  5
59
330
1F
100
AcDbEntity
  8
_U+0421_U+043B_U+043E_U+0439 1
 62
     1
420
 16711693
370
     5
100
AcDbSpline
210
0.0
220
0.0
230
1.0
 70
    11
 71
     3
 72
    32
 73
    28
 74
     0
 42
0.0000000001
 43
0.0000000001
 12
1.0
 22
0.0
 32
0.0
 13
1.0
 23
0.0
 33
0.0
 40
0.0
 40
0.0
 40
0.0
 40
0.0
 40
1.0
 40
1.0
 40
1.0
 40
2.0
 40
2.0
 40
2.0
 40
3.0
 40
3.0
 40
3.0
 40
4.0
 40
4.0
 40
4.0
 40
5.0
 40
5.0
 40
5.0
 40
6.0
 40
6.0
 40
6.0
 40
7.0
 40
7.0
 40
7.0
 40
8.0
 40
8.0
 40
8.0
 40
9.0
 40
9.0
 40
9.0
 40
9.0
 10
542.4029240310658
 20
1158.806525543632
 30
0.0
 10
539.9898181983359
 20
1161.071923320843
 30
0.0
 10
537.3660334767696
 20
1163.3331230425
 30
0.0
 10
535.0359362551301
 20
1165.126045542052
 30
0.0
 10
532.8950690334428
 20
1166.773306097196
 30
0.0
 10
530.8275090339599
 20
1168.327045263474
 30
0.0
 10
528.8154057011296
 20
1169.801303596439
 30
0.0
 10
530.7678190339748
 20
1171.574047207107
 30
0.0
 10
533.6142418110408
 20
1173.769348039891
 30
0.0
 10
535.3687468106025
 20
1171.715652207071
 30
0.0
 10
535.5028023661242
 20
1171.560429984888
 30
0.0
 10
535.7885170882751
 20
1171.620402207095
 30
0.0
 10
535.8802393104744
 20
1171.786172484831
 30
0.0
 10
536.8116079213529
 20
1173.461866928857
 30
0.0
 10
537.6512190322538
 20
1175.169346650652
 30
0.0
 10
538.4237670876163
 20
1176.912068872439
 30
0.0
 10
538.773017087529
 20
1175.941929983793
 30
0.0
 10
539.1117190318888
 20
1174.971791095146
 30
0.0
 10
539.450350420693
 20
1174.005179984276
 30
0.0
 10
539.5244690317857
 20
1173.807589150993
 30
0.0
 10
539.7502115317293
 20
1173.715937484349
 30
0.0
 10
539.9371837539046
 20
1173.821735539878
 30
0.0
 10
540.8517954203427
 20
1174.330652761973
 30
0.0
 10
541.6715804201377
 20
1174.938277206265
 30
0.0
 10
542.4029240310658
 20
1175.626934706093
 30
0.0
 10
542.4029240310658
 20
1175.626934706093
 30
0.0
 10
542.4029240310658
 20
1158.806525543632
 30
0.0
 10
542.4029240310658
 20
1158.806525543632
 30
0.0
  0
SPLINE
  5
5A
330
1F
100
AcDbEntity
  8
_U+0421_U+043B_U+043E_U+0439 1
 62
     1
420
 16711693
370
     5
100
AcDbSpline
210
0.0
220
0.0
230
1.0
 70
    11
 71
     3
 72
    14
 73
    10
 74
     0
 42
0.0000000001
 43
0.0000000001
 12
1.0
 22
0.0
 32
0.0
 13
1.0
 23
0.0
 33
0.0
 40
0.0
 40
0.0
 40
0.0
 40
0.0
 40
1.0
 40
1.0
 40
1.0
 40
2.0
 40
2.0
 40
2.0
 40
3.0
 40
3.0
 40
3.0
 40
3.0
 10
547.6945906964096
 20
1175.986274150448
 30
0.0
 10
549.341604307109
 20
1174.831385539626
 30
0.0
 10
551.2700993066268
 20
1173.945243039847
 30
0.0
 10
553.0250276395216
 20
1172.91566109566
 30
0.0
 10
551.2271309733043
 20
1171.301455818286
 30
0.0
 10
549.44990708486
 20
1169.665731096473
 30
0.0
 10
547.6945906964096
 20
1168.011908874664
 30
0.0
 10
547.6945906964096
 20
1168.011908874664
 30
0.0
 10
547.6945906964096
 20
1175.986274150448
 30
0.0
 10
547.6945906964096
 20
1175.986274150448
 30
0.0
  0
SPLINE
  5
5B
330
1F
100
AcDbEntity
  8
_U+0421_U+043B_U+043E_U+0439 1
 62
     1
420
 16711693
370
     5
100
AcDbSpline
210
0.0
220
0.0
230
1.0
 70
    11
 71
     3
 72
    74
 73
    70
 74
     0
 42
0.0000000001
 43
0.0000000001
 12
1.0
 22
0.0
 32
0.0
 13
1.0
 23
0.0
 33
0.0
 40
0.0
 40
0.0
 40
0.0
 40
0.0
 40
1.0
 40
1.0
 40
1.0
 40
2.0
 40
2.0
 40
2.0
 40
3.0
 40
3.0
 40
3.0
 40
4.0
 40
4.0
 40
4.0
 40
5.0
 40
5.0
 40
5.0
 40
6.0
 40
6.0
 40
6.0
 40
7.0
 40
7.0
 40
7.0
 40
8.0
 40
8.0
 40
8.0
 40
9.0
 40
9.0
 40
9.0
 40
10.0
 40
10.0
 40
10.0
 40
11.0
 40
11.0
 40
11.0
 40
12.0
 40
12.0
 40
12.0
 40
13.0
 40
13.0
 40
13.0
 40
14.0
 40
14.0
 40
14.0
 40
15.0
 40
15.0
 40
15.0
 40
16.0
 40
16.0
 40
16.0
 40
17.0
 40
17.0
 40
17.0
 40
18.0
 40
18.0
 40
18.0
 40
19.0
 40
19.0
 40
19.0
 40
20.0
 40
20.0
 40
20.0
 40
21.0
 40
21.0
 40
21.0
 40
22.0
 40
22.0
 40
22.0
 40
23.0
 40
23.0
 40
23.0
 40
23.0
 10
547.6945906964096
 20
1132.546100550197
 30
0.0
 10
547.6945906964096
 20
1132.546100550197
 30
0.0
 10
547.6945906964096
 20
1160.683409154274
 30
0.0
 10
547.6945906964096
 20
1160.683409154274
 30
0.0
 10
550.7353234734273
 20
1163.648435820199
 30
0.0
 10
553.8543023615365
 20
1166.564285263915
 30
0.0
 10
557.0373456940739
 20
1169.409579152092
 30
0.0
 10
557.3362190273326
 20
1168.936221929988
 30
0.0
 10
557.5861620828256
 20
1168.419896374562
 30
0.0
 10
557.7736634716676
 20
1167.849207763594
 30
0.0
 10
557.86185791609
 20
1167.570513319218
 30
0.0
 10
558.207580138226
 20
1167.563457763665
 30
0.0
 10
558.3698226381854
 20
1167.78221526361
 30
0.0
 10
559.0436634713502
 20
1168.713513318933
 30
0.0
 10
559.7174690267373
 20
1169.651937485365
 30
0.0
 10
560.3912393043465
 20
1170.583235540688
 30
0.0
 10
562.095191248365
 20
1167.852735541371
 30
0.0
 10
564.300052358925
 20
1165.464429986412
 30
0.0
 10
566.977635691589
 20
1163.598235542434
 30
0.0
 10
567.8172468024901
 20
1163.012659709247
 30
0.0
 10
568.6109968022918
 20
1162.684576375996
 30
0.0
 10
569.0413504132953
 20
1161.728478042901
 30
0.0
 10
569.4717745798545
 20
1160.783068876471
 30
0.0
 10
569.7434487464532
 20
1159.752993043395
 30
0.0
 10
570.1667468019027
 20
1158.800422488078
 30
0.0
 10
570.9604968017043
 20
1157.022493044078
 30
0.0
 10
571.9306356903506
 20
1155.350326377829
 30
0.0
 10
573.0524337456258
 20
1153.755770822672
 30
0.0
 10
573.1724134678182
 20
1153.579381933828
 30
0.0
 10
573.4016837455387
 20
1153.558179989388
 30
0.0
 10
573.5639615232756
 20
1153.699255822687
 30
0.0
 10
575.2115043006416
 20
1155.145679988992
 30
0.0
 10
576.5167468003152
 20
1156.810791099686
 30
0.0
 10
577.5432948556144
 20
1158.715826376988
 30
0.0
 10
579.9034134661354
 20
1156.151131933185
 30
0.0
 10
582.2670598544333
 20
1153.586437489381
 30
0.0
 10
584.6271079093987
 20
1151.021743045578
 30
0.0
 10
585.7948376313292
 20
1149.755235545894
 30
0.0
 10
586.9307467977119
 20
1148.45348554622
 30
0.0
 10
588.1443023529639
 20
1147.222326379861
 30
0.0
 10
588.9203781861034
 20
1146.43915971339
 30
0.0
 10
589.812905963658
 20
1145.680616935802
 30
0.0
 10
590.9453226300416
 20
1145.472548602521
 30
0.0
 10
593.6722948515819
 20
1144.960950269315
 30
0.0
 10
595.6796004066358
 20
1147.807902213048
 30
0.0
 10
598.4948376281542
 20
1146.971854157702
 30
0.0
 10
601.3381912385545
 20
1146.139263324576
 30
0.0
 10
603.0456356825722
 20
1143.020672492023
 30
0.0
 10
604.2309337378312
 20
1140.593596659296
 30
0.0
 10
604.326219015585
 20
1140.403096659344
 30
0.0
 10
604.611933737736
 20
1140.406624437121
 30
0.0
 10
604.7495523488128
 20
1140.537116937088
 30
0.0
 10
606.9120448482722
 20
1142.60090221435
 30
0.0
 10
610.3445726251916
 20
1141.972922492285
 30
0.0
 10
612.4541837357752
 20
1140.163207770515
 30
0.0
 10
614.5708504019127
 20
1138.346366937636
 30
0.0
 10
615.6009967905442
 20
1135.644124438311
 30
0.0
 10
616.5676079014139
 20
1133.142894716714
 30
0.0
 10
616.6628931791677
 20
1132.892422494555
 30
0.0
 10
617.0121079013024
 20
1132.832485550126
 30
0.0
 10
617.1638023457091
 20
1133.075902216731
 30
0.0
 10
618.3244412343079
 20
1134.917366938493
 30
0.0
 10
619.4744967895759
 20
1136.765922493587
 30
0.0
 10
620.6280801226208
 20
1138.603894715349
 30
0.0
 10
622.7547656776446
 20
1136.755762493589
 30
0.0
 10
624.6796976216079
 20
1134.728489716318
 30
0.0
 10
626.3972667878452
 20
1132.546100550197
 30
0.0
 10
626.3972667878452
 20
1132.546100550197
 30
0.0
 10
547.6945906964096
 20
1132.546100550197
 30
0.0
 10
547.6945906964096
 20
1132.546100550197
 30
0.0
  0
SPLINE
  5
5C
330
1F
100
AcDbEntity
  8
_U+0421_U+043B_U+043E_U+0439 1
 62
     1
420
 16711693
370
     5
100
AcDbSpline
210
0.0
220
0.0
230
1.0
 70
    11
 71
     3
 72
    44
 73
    40
 74
     0
 42
0.0000000001
 43
0.0000000001
 12
1.0
 22
0.0
 32
0.0
 13
1.0
 23
0.0
 33
0.0
 40
0.0
 40
0.0
 40
0.0
 40
0.0
 40
1.0
 40
1.0
 40
1.0
 40
2.0
 40
2.0
 40
2.0
 40
3.0
 40
3.0
 40
3.0
 40
4.0
 40
4.0
 40
4.0
 40
5.0
 40
5.0
 40
5.0
 40
6.0
 40
6.0
 40
6.0
 40
7.0
 40
7.0
 40
7.0
 40
8.0
 40
8.0
 40
8.0
 40
9.0
 40
9.0
 40
9.0
 40
10.0
 40
10.0
 40
10.0
 40
11.0
 40
11.0
 40
11.0
 40
12.0
 40
12.0
 40
12.0
 40
13.0
 40
13.0
 40
13.0
 40
13.0
 10
642.708405950434
 20
1113.211303055031
 30
0.0
 10
640.0011540066663
 20
1115.659016387752
 30
0.0
 10
637.0978987296144
 20
1118.105918331585
 30
0.0
 10
634.9383695634878
 20
1119.767572220058
 30
0.0
 10
633.6593737304742
 20
1120.751645830924
 30
0.0
 10
632.3147612308104
 20
1121.80638083066
 30
0.0
 10
630.8912323422774
 20
1122.923098885936
 30
0.0
 10
629.10614150939
 20
1124.32320333003
 30
0.0
 10
627.2164873431958
 20
1125.805258051882
 30
0.0
 10
625.3164262325599
 20
1127.254433884853
 30
0.0
 10
625.3164262325599
 20
1127.254433884853
 30
0.0
 10
629.9694240091743
 20
1127.254433884853
 30
0.0
 10
629.9694240091743
 20
1127.254433884853
 30
0.0
 10
630.295637620204
 20
1126.685332773884
 30
0.0
 10
630.6133492867913
 20
1126.110763607361
 30
0.0
 10
630.9150801200492
 20
1125.526493051952
 30
0.0
 10
631.0314967866868
 20
1125.2901319409
 30
0.0
 10
631.3489615088295
 20
1125.360687496438
 30
0.0
 10
631.4795598421302
 20
1125.533548607506
 30
0.0
 10
631.8665923420334
 20
1126.067089718483
 30
0.0
 10
632.3137028974771
 20
1126.675490273887
 30
0.0
 10
632.8084031751312
 20
1127.254433884853
 30
0.0
 10
632.8084031751312
 20
1127.254433884853
 30
0.0
 10
636.7149584519326
 20
1127.254433884853
 30
0.0
 10
636.7149584519326
 20
1127.254433884853
 30
0.0
 10
636.7827623408043
 20
1127.039380551574
 30
0.0
 10
636.846474007455
 20
1126.823198329405
 30
0.0
 10
636.9052115074404
 20
1126.605993051682
 30
0.0
 10
637.4202670628672
 20
1124.785624441026
 30
0.0
 10
637.7413653961203
 20
1122.640700274895
 30
0.0
 10
639.4170598401458
 20
1121.441291108529
 30
0.0
 10
640.3765801176837
 20
1120.753374442034
 30
0.0
 10
641.5689337284967
 20
1120.541672497642
 30
0.0
 10
642.6908023393272
 20
1120.238354164385
 30
0.0
 10
642.6978578948812
 20
1120.238354164385
 30
0.0
 10
642.7013856726581
 20
1120.234826386608
 30
0.0
 10
642.708405950434
 20
1120.234826386608
 30
0.0
 10
642.708405950434
 20
1120.234826386608
 30
0.0
 10
642.708405950434
 20
1113.211303055031
 30
0.0
 10
642.708405950434
 20
1113.211303055031
 30
0.0
  0
POLYLINE
  5
5D
330
1F
100
AcDbEntity
  8
_U+0421_U+043B_U+043E_U+0439 1
 62
     1
420
 16711693
370
     5
100
AcDb2dPolyline
 66
     1
 10
0.0
 20
0.0
 30
0.0
  0
VERTEX
  5
5E
330
5D
100
AcDbEntity
  8
_U+0421_U+043B_U+043E_U+0439 1
 62
     1
420
 16711693
370
     5
100
AcDbVertex
100
AcDb2dVertex
 10
643.2680526169607
 20
846.9685383993691
 30
0.0
  0
VERTEX
  5
5F
330
5D
100
AcDbEntity
  8
_U+0421_U+043B_U+043E_U+0439 1
 62
     1
420
 16711693
370
     5
100
AcDbVertex
100
AcDb2dVertex
 10
635.4015315078165
 20
846.9685383993691
 30
0.0
  0
VERTEX
  5
60
330
5D
100
AcDbEntity
  8
_U+0421_U+043B_U+043E_U+0439 1
 62
     1
420
 16711693
370
     5
100
AcDbVertex
100
AcDb2dVertex
 10
635.4015315078165
 20
843.9685514556747
 30
0.0
  0
VERTEX
  5
61
330
5D
100
AcDbEntity
  8
_U+0421_U+043B_U+043E_U+0439 1
 62
     1
420
 16711693
370
     5
100
AcDbVertex
100
AcDb2dVertex
 10
615.4015362350386
 20
843.9685514556747
 30
0.0
  0
VERTEX
  5
62
330
5D
100
AcDbEntity
  8
_U+0421_U+043B_U+043E_U+0439 1
 62
     1
420
 16711693
370
     5
100
AcDbVertex
100
AcDb2dVertex
 10
615.4015362350386
 20
846.9685383993691
 30
0.0
  0
VERTEX
  5
63
330
5D
100
AcDbEntity
  8
_U+0421_U+043B_U+043E_U+0439 1
 62
     1
420
 16711693
370
     5
100
AcDbVertex
100
AcDb2dVertex
 10
604.9804806820883
 20
846.9685383993691
 30
0.0
  0
VERTEX
  5
64
330
5D
100
AcDbEntity
  8
_U+0421_U+043B_U+043E_U+0439 1
 62
     1
420
 16711693
370
     5
100
AcDbVertex
100
AcDb2dVertex
 10
558.5110395825945
 20
994.1753319736783
 30
0.0
  0
VERTEX
  5
65
330
5D
100
AcDbEntity
  8
_U+0421_U+043B_U+043E_U+0439 1
 62
     1
420
 16711693
370
     5
100
AcDbVertex
100
AcDb2dVertex
 10
572.6221506901779
 20
846.9685383993691
 30
0.0
  0
VERTEX
  5
66
330
5D
100
AcDbEntity
  8
_U+0421_U+043B_U+043E_U+0439 1
 62
     1
420
 16711693
370
     5
100
AcDbVertex
100
AcDb2dVertex
 10
557.3200618051145
 20
846.9685383993691
 30
0.0
  0
VERTEX
  5
67
330
5D
100
AcDbEntity
  8
_U+0421_U+043B_U+043E_U+0439 1
 62
     1
420
 16711693
370
     5
100
AcDbVertex
100
AcDb2dVertex
 10
557.3200618051145
 20
843.9685514556747
 30
0.0
  0
VERTEX
  5
68
330
5D
100
AcDbEntity
  8
_U+0421_U+043B_U+043E_U+0439 1
 62
     1
420
 16711693
370
     5
100
AcDbVertex
100
AcDb2dVertex
 10
537.3201018101146
 20
843.9685514556747
 30
0.0
  0
VERTEX
  5
69
330
5D
100
AcDbEntity
  8
_U+0421_U+043B_U+043E_U+0439 1
 62
     1
420
 16711693
370
     5
100
AcDbVertex
100
AcDb2dVertex
 10
537.3201018101146
 20
846.9685383993691
 30
0.0
  0
VERTEX
  5
6A
330
5D
100
AcDbEntity
  8
_U+0421_U+043B_U+043E_U+0439 1
 62
     1
420
 16711693
370
     5
100
AcDbVertex
100
AcDb2dVertex
 10
522.9586595914826
 20
846.9685383993691
 30
0.0
  0
VERTEX
  5
6B
330
5D
100
AcDbEntity
  8
_U+0421_U+043B_U+043E_U+0439 1
 62
     1
420
 16711693
370
     5
100
AcDbVertex
100
AcDb2dVertex
 10
535.6586595883076
 20
994.1753319736783
 30
0.0
  0
VERTEX
  5
6C
330
5D
100
AcDbEntity
  8
_U+0421_U+043B_U+043E_U+0439 1
 62
     1
420
 16711693
370
     5
100
AcDbVertex
100
AcDb2dVertex
 10
489.1892537665917
 20
846.9685383993691
 30
0.0
  0
VERTEX
  5
6D
330
5D
100
AcDbEntity
  8
_U+0421_U+043B_U+043E_U+0439 1
 62
     1
420
 16711693
370
     5
100
AcDbVertex
100
AcDb2dVertex
 10
478.7681982136414
 20
846.9685383993691
 30
0.0
  0
VERTEX
  5
6E
330
5D
100
AcDbEntity
  8
_U+0421_U+043B_U+043E_U+0439 1
 62
     1
420
 16711693
370
     5
100
AcDbVertex
100
AcDb2dVertex
 10
478.7681982136414
 20
843.9685514556747
 30
0.0
  0
VERTEX
  5
6F
330
5D
100
AcDbEntity
  8
_U+0421_U+043B_U+043E_U+0439 1
 62
     1
420
 16711693
370
     5
100
AcDbVertex
100
AcDb2dVertex
 10
458.7682029408637
 20
843.9685514556747
 30
0.0
  0
VERTEX
  5
70
330
5D
100
AcDbEntity
  8
_U+0421_U+043B_U+043E_U+0439 1
 62
     1
420
 16711693
370
     5
100
AcDbVertex
100
AcDb2dVertex
 10
458.7682029408637
 20
846.9685383993691
 30
0.0
  0
VERTEX
  5
71
330
5D
100
AcDbEntity
  8
_U+0421_U+043B_U+043E_U+0439 1
 62
     1
420
 16711693
370
     5
100
AcDbVertex
100
AcDb2dVertex
 10
450.901681831719
 20
846.9685383993691
 30
0.0
  0
VERTEX
  5
72
330
5D
100
AcDbEntity
  8
_U+0421_U+043B_U+043E_U+0439 1
 62
     1
420
 16711693
370
     5
100
AcDbVertex
100
AcDb2dVertex
 10
526.7414604238702
 20
1066.585016955576
 30
0.0
  0
VERTEX
  5
73
330
5D
100
AcDbEntity
  8
_U+0421_U+043B_U+043E_U+0439 1
 62
     1
420
 16711693
370
     5
100
AcDbVertex
100
AcDb2dVertex
 10
512.1595320941823
 20
1070.886824454501
 30
0.0
  0
VERTEX
  5
74
330
5D
100
AcDbEntity
  8
_U+0421_U+043B_U+043E_U+0439 1
 62
     1
420
 16711693
370
     5
100
AcDbVertex
100
AcDb2dVertex
 10
535.6483231994213
 20
1077.816226674991
 30
0.0
  0
VERTEX
  5
75
330
5D
100
AcDbEntity
  8
_U+0421_U+043B_U+043E_U+0439 1
 62
     1
420
 16711693
370
     5
100
AcDbVertex
100
AcDb2dVertex
 10
530.5531184784727
 20
1087.191507783758
 30
0.0
  0
VERTEX
  5
76
330
5D
100
AcDbEntity
  8
_U+0421_U+043B_U+043E_U+0439 1
 62
     1
420
 16711693
370
     5
100
AcDbVertex
100
AcDb2dVertex
 10
539.9280820872405
 20
1082.096303062809
 30
0.0
  0
VERTEX
  5
77
330
5D
100
AcDbEntity
  8
_U+0421_U+043B_U+043E_U+0439 1
 62
     1
420
 16711693
370
     5
100
AcDbVertex
100
AcDb2dVertex
 10
546.807107641076
 20
1105.58505889027
 30
0.0
  0
VERTEX
  5
78
330
5D
100
AcDbEntity
  8
_U+0421_U+043B_U+043E_U+0439 1
 62
     1
420
 16711693
370
     5
100
AcDbVertex
100
AcDb2dVertex
 10
553.7358395837883
 20
1082.096303062809
 30
0.0
  0
VERTEX
  5
79
330
5D
100
AcDbEntity
  8
_U+0421_U+043B_U+043E_U+0439 1
 62
     1
420
 16711693
370
     5
100
AcDbVertex
100
AcDb2dVertex
 10
563.111508748111
 20
1087.191507783758
 30
0.0
  0
VERTEX
  5
7A
330
5D
100
AcDbEntity
  8
_U+0421_U+043B_U+043E_U+0439 1
 62
     1
420
 16711693
370
     5
100
AcDbVertex
100
AcDb2dVertex
 10
558.016268749385
 20
1077.816226674991
 30
0.0
  0
VERTEX
  5
7B
330
5D
100
AcDbEntity
  8
_U+0421_U+043B_U+043E_U+0439 1
 62
     1
420
 16711693
370
     5
100
AcDbVertex
100
AcDb2dVertex
 10
581.505024576846
 20
1070.886824454501
 30
0.0
  0
VERTEX
  5
7C
330
5D
100
AcDbEntity
  8
_U+0421_U+043B_U+043E_U+0439 1
 62
     1
420
 16711693
370
     5
100
AcDbVertex
100
AcDb2dVertex
 10
567.3815309692658
 20
1066.720236677764
 30
0.0
  0
VERTEX
  5
7D
330
5D
100
AcDbEntity
  8
_U+0421_U+043B_U+043E_U+0439 1
 62
     1
420
 16711693
370
     5
100
AcDbVertex
100
AcDb2dVertex
 10
643.2680526169607
 20
846.9685383993691
 30
0.0
  0
SEQEND
  5
7E
330
5D
100
AcDbEntity
  8
_U+0421_U+043B_U+043E_U+0439 1
 62
     1
420
 16711693
370
     5
  0
SPLINE
  5
7F
330
1F
100
AcDbEntity
  8
_U+0421_U+043B_U+043E_U+0439 1
 62
     1
420
 16711693
370
     5
100
AcDbSpline
210
0.0
220
0.0
230
1.0
 70
    11
 71
     3
 72
    98
 73
    94
 74
     0
 42
0.0000000001
 43
0.0000000001
 12
1.0
 22
0.0
 32
0.0
 13
1.0
 23
0.0
 33
0.0
 40
0.0
 40
0.0
 40
0.0
 40
0.0
 40
1.0
 40
1.0
 40
1.0
 40
2.0
 40
2.0
 40
2.0
 40
3.0
 40
3.0
 40
3.0
 40
4.0
 40
4.0
 40
4.0
 40
5.0
 40
5.0
 40
5.0
 40
6.0
 40
6.0
 40
6.0
 40
7.0
 40
7.0
 40
7.0
 40
8.0
 40
8.0
 40
8.0
 40
9.0
 40
9.0
 40
9.0
 40
10.0
 40
10.0
 40
10.0
 40
11.0
 40
11.0
 40
11.0
 40
12.0
 40
12.0
 40
12.0
 40
13.0
 40
13.0
 40
13.0
 40
14.0
 40
14.0
 40
14.0
 40
15.0
 40
15.0
 40
15.0
 40
16.0
 40
16.0
 40
16.0
 40
17.0
 40
17.0
 40
17.0
 40
18.0
 40
18.0
 40
18.0
 40
19.0
 40
19.0
 40
19.0
 40
20.0
 40
20.0
 40
20.0
 40
21.0
 40
21.0
 40
21.0
 40
22.0
 40
22.0
 40
22.0
 40
23.0
 40
23.0
 40
23.0
 40
24.0
 40
24.0
 40
24.0
 40
25.0
 40
25.0
 40
25.0
 40
26.0
 40
26.0
 40
26.0
 40
27.0
 40
27.0
 40
27.0
 40
28.0
 40
28.0
 40
28.0
 40
29.0
 40
29.0
 40
29.0
 40
30.0
 40
30.0
 40
30.0
 40
31.0
 40
31.0
 40
31.0
 40
31.0
 10
687.8685476058109
 20
973.8084478121037
 30
0.0
 10
688.0559784390972
 20
978.1799289221217
 30
0.0
 10
691.5443156604475
 20
981.4567053101915
 30
0.0
 10
689.9328620497392
 20
985.9456614201803
 30
0.0
 10
689.6670792720278
 20
986.6729480866654
 30
0.0
 10
688.916403438882
 20
987.0171180865793
 30
0.0
 10
688.2045331612821
 20
986.6417625311175
 30
0.0
 10
685.5769737174946
 20
985.2653647536835
 30
0.0
 10
684.2942737178151
 20
982.981869476477
 30
0.0
 10
682.9494142737071
 20
980.4245833660052
 30
0.0
 10
679.8950642744707
 20
974.6325719785646
 30
0.0
 10
677.1286514973845
 20
974.5780678119113
 30
0.0
 10
674.7848664979704
 20
972.7604508679207
 30
0.0
 10
674.2686114980996
 20
975.3332239228332
 30
0.0
 10
674.2295942758872
 20
977.6482575333661
 30
0.0
 10
672.3680564985746
 20
979.8926297550269
 30
0.0
 10
670.7024162212133
 20
981.8946789211932
 30
0.0
 10
668.4425217773339
 20
983.0364794764633
 30
0.0
 10
665.9161742779655
 20
983.396136420818
 30
0.0
 10
665.9398456668482
 20
984.5616083649705
 30
0.0
 10
665.9398456668482
 20
985.7190016980147
 30
0.0
 10
665.8848828890843
 20
986.8841208643902
 30
0.0
 10
674.1905770536747
 20
985.0969839203926
 30
0.0
 10
675.2442537200778
 20
1000.94785391643
 30
0.0
 10
666.8471195555105
 20
1001.680538082913
 30
0.0
 10
657.0470234468494
 20
1002.514187249371
 30
0.0
 10
653.9810670587271
 20
990.297175307981
 30
0.0
 10
654.4592220586075
 20
988.1824136418436
 30
0.0
 10
654.8896109473887
 20
986.3055300312013
 30
0.0
 10
656.7431759469255
 20
986.634001420008
 30
0.0
 10
658.2835448354292
 20
986.2664069756556
 30
0.0
 10
658.2835448354292
 20
986.2664069756556
 30
0.0
 10
658.1820153910102
 20
985.6642153091394
 30
0.0
 10
658.1820153910102
 20
985.6642153091394
 30
0.0
 10
648.1335284490777
 20
979.7841153106095
 30
0.0
 10
651.0734020594539
 20
973.1902047567025
 30
0.0
 10
648.6489015045045
 20
982.3013611433137
 30
0.0
 10
650.6067476151261
 20
984.8006153093552
 30
0.0
 10
649.1936609488129
 20
987.8984275308034
 30
0.0
 10
646.740655949426
 20
988.088433641867
 30
0.0
 10
646.8852948382787
 20
994.794739195746
 30
0.0
 10
646.8560848382859
 20
995.1304778067731
 30
0.0
 10
646.9984659493616
 20
996.3000066953699
 30
0.0
 10
647.2564876159637
 20
1001.262566971906
 30
0.0
 10
650.3600853929655
 20
996.4200569731177
 30
0.0
 10
650.7132159484329
 20
996.268644750933
 30
0.0
 10
651.3623623371595
 20
995.3067608622847
 30
0.0
 10
653.161282058932
 20
995.9324122510169
 30
0.0
 10
652.8016251145774
 20
997.2542000284645
 30
0.0
 10
651.7275226148461
 20
1001.168163638597
 30
0.0
 10
647.4477637270269
 20
1005.236326415357
 30
0.0
 10
644.3239517833633
 20
1000.515313083205
 30
0.0
 10
643.0132412281357
 20
998.530091417034
 30
0.0
 10
642.8390042837348
 20
995.7166533621819
 30
0.0
 10
643.1587973392104
 20
987.1187180865534
 30
0.0
 10
640.9528073397619
 20
985.8373233646518
 30
0.0
 10
640.236844839941
 20
982.4213408655057
 30
0.0
 10
642.2985487283142
 20
981.0186611436342
 30
0.0
 10
642.2278520616653
 20
979.5720605884404
 30
0.0
 10
642.2592140061018
 20
978.1329741999115
 30
0.0
 10
642.3531587283006
 20
976.6941347558264
 30
0.0
 10
640.27639122882
 20
973.5955111454901
 30
0.0
 10
629.881053175863
 20
962.1410989261311
 30
0.0
 10
644.0111084501085
 20
951.7369061509548
 30
0.0
 10
644.0111084501085
 20
951.7369061509548
 30
0.0
 10
644.0111084501085
 20
898.0849800532569
 30
0.0
 10
644.0111084501085
 20
898.0849800532569
 30
0.0
 10
644.0111084501085
 20
898.0849800532569
 30
0.0
 10
647.1892128937583
 20
898.0849800532569
 30
0.0
 10
647.1892128937583
 20
898.0849800532569
 30
0.0
 10
647.1892128937583
 20
898.0849800532569
 30
0.0
 10
647.1892128937583
 20
895.0849931095626
 30
0.0
 10
647.1892128937583
 20
895.0849931095626
 30
0.0
 10
647.1892128937583
 20
895.0849931095626
 30
0.0
 10
667.189208166536
 20
895.0849931095626
 30
0.0
 10
667.189208166536
 20
895.0849931095626
 30
0.0
 10
667.189208166536
 20
895.0849931095626
 30
0.0
 10
667.189208166536
 20
898.0849800532569
 30
0.0
 10
667.189208166536
 20
898.0849800532569
 30
0.0
 10
667.189208166536
 20
898.0849800532569
 30
0.0
 10
671.673437054304
 20
898.0849800532569
 30
0.0
 10
671.673437054304
 20
898.0849800532569
 30
0.0
 10
670.7179737212094
 20
908.7030972728244
 30
0.0
 10
669.2000767771444
 20
920.4050536587874
 30
0.0
 10
671.1247264988856
 20
930.967537822814
 30
0.0
 10
672.7483156651463
 20
939.9273878205738
 30
0.0
 10
674.2439170536611
 20
941.2173197646954
 30
0.0
 10
673.6118098315973
 20
956.3295789275842
 30
0.0
 10
679.4145456634795
 20
955.2034417056437
 30
0.0
 10
684.8655620510059
 20
956.2591292053798
 30
0.0
 10
687.8058589947153
 20
962.6953128148821
 30
0.0
 10
689.5266031609518
 20
966.4570175361638
 30
0.0
 10
687.7119848280719
 20
969.9449314241803
 30
0.0
 10
687.8685476058109
 20
973.8084478121037
 30
0.0
  0
SPLINE
  5
80
330
1F
100
AcDbEntity
  8
_U+0421_U+043B_U+043E_U+0439 1
 62
     1
420
 16711693
370
     5
100
AcDbSpline
210
0.0
220
0.0
230
1.0
 70
    11
 71
     3
 72
    14
 73
    10
 74
     0
 42
0.0000000001
 43
0.0000000001
 12
1.0
 22
0.0
 32
0.0
 13
1.0
 23
0.0
 33
0.0
 40
0.0
 40
0.0
 40
0.0
 40
0.0
 40
1.0
 40
1.0
 40
1.0
 40
2.0
 40
2.0
 40
2.0
 40
3.0
 40
3.0
 40
3.0
 40
3.0
 10
648.0203573379952
 20
922.6337625471193
 30
0.0
 10
647.984338726893
 20
922.5877956026867
 30
0.0
 10
647.9551640046777
 20
922.5426400471422
 30
0.0
 10
647.921403171353
 20
922.4969906027093
 30
0.0
 10
647.921403171353
 20
922.4969906027093
 30
0.0
 10
647.921403171353
 20
945.6206567080393
 30
0.0
 10
647.921403171353
 20
945.6206567080393
 30
0.0
 10
648.4084481712313
 20
942.6492800421154
 30
0.0
 10
652.1300773369676
 20
927.8907511569163
 30
0.0
 10
648.0203573379952
 20
922.6337625471193
 30
0.0
  0
SPLINE
  5
81
330
1F
100
AcDbEntity
  8
_U+0421_U+043B_U+043E_U+0439 1
 62
     1
420
 16711693
370
     5
100
AcDbSpline
210
0.0
220
0.0
230
1.0
 70
    11
 71
     3
 72
   113
 73
   109
 74
     0
 42
0.0000000001
 43
0.0000000001
 12
1.0
 22
0.0
 32
0.0
 13
1.0
 23
0.0
 33
0.0
 40
0.0
 40
0.0
 40
0.0
 40
0.0
 40
1.0
 40
1.0
 40
1.0
 40
2.0
 40
2.0
 40
2.0
 40
3.0
 40
3.0
 40
3.0
 40
4.0
 40
4.0
 40
4.0
 40
5.0
 40
5.0
 40
5.0
 40
6.0
 40
6.0
 40
6.0
 40
7.0
 40
7.0
 40
7.0
 40
8.0
 40
8.0
 40
8.0
 40
9.0
 40
9.0
 40
9.0
 40
10.0
 40
10.0
 40
10.0
 40
11.0
 40
11.0
 40
11.0
 40
12.0
 40
12.0
 40
12.0
 40
13.0
 40
13.0
 40
13.0
 40
14.0
 40
14.0
 40
14.0
 40
15.0
 40
15.0
 40
15.0
 40
16.0
 40
16.0
 40
16.0
 40
17.0
 40
17.0
 40
17.0
 40
18.0
 40
18.0
 40
18.0
 40
19.0
 40
19.0
 40
19.0
 40
20.0
 40
20.0
 40
20.0
 40
21.0
 40
21.0
 40
21.0
 40
22.0
 40
22.0
 40
22.0
 40
23.0
 40
23.0
 40
23.0
 40
24.0
 40
24.0
 40
24.0
 40
25.0
 40
25.0
 40
25.0
 40
26.0
 40
26.0
 40
26.0
 40
27.0
 40
27.0
 40
27.0
 40
28.0
 40
28.0
 40
28.0
 40
29.0
 40
29.0
 40
29.0
 40
30.0
 40
30.0
 40
30.0
 40
31.0
 40
31.0
 40
31.0
 40
32.0
 40
32.0
 40
32.0
 40
33.0
 40
33.0
 40
33.0
 40
34.0
 40
34.0
 40
34.0
 40
35.0
 40
35.0
 40
35.0
 40
36.0
 40
36.0
 40
36.0
 40
36.0
 10
737.4812387045184
 20
919.1583722702107
 30
0.0
 10
737.4812387045184
 20
919.1583722702107
 30
0.0
 10
733.4866653721841
 20
916.2569161598245
 30
0.0
 10
733.4866653721841
 20
916.2569161598245
 30
0.0
 10
733.7259192610127
 20
915.9382519932376
 30
0.0
 10
733.949333427624
 20
915.5914714377693
 30
0.0
 10
734.1510517609067
 20
915.207437548976
 30
0.0
 10
734.9957781495846
 20
913.5963367160456
 30
0.0
 10
735.1120537051108
 20
911.7600225498375
 30
0.0
 10
734.0807784275906
 20
910.2415964391064
 30
0.0
 10
731.8436028725945
 20
906.9477456065965
 30
0.0
 10
725.9551773185117
 20
905.6462778291444
 30
0.0
 10
729.9258323175184
 20
901.6126519968195
 30
0.0
 10
730.5426642618091
 20
900.9860833858647
 30
0.0
 10
729.9447764841805
 20
900.039192552768
 30
0.0
 10
729.2030259288102
 20
899.6723742195268
 30
0.0
 10
729.2030259288102
 20
899.6723742195268
 30
0.0
 10
725.0743617631761
 20
899.6723742195268
 30
0.0
 10
725.0743617631761
 20
899.6723742195268
 30
0.0
 10
725.0743617631761
 20
899.6723742195268
 30
0.0
 10
725.0743617631761
 20
896.6723872758319
 30
0.0
 10
725.0743617631761
 20
896.6723872758319
 30
0.0
 10
725.0743617631761
 20
896.6723872758319
 30
0.0
 10
705.0743312126205
 20
896.6723872758319
 30
0.0
 10
705.0743312126205
 20
896.6723872758319
 30
0.0
 10
705.0743312126205
 20
896.6723872758319
 30
0.0
 10
705.0743312126205
 20
899.6723742195268
 30
0.0
 10
705.0743312126205
 20
899.6723742195268
 30
0.0
 10
705.0743312126205
 20
899.6723742195268
 30
0.0
 10
698.9639731585924
 20
899.6723742195268
 30
0.0
 10
698.9639731585924
 20
899.6723742195268
 30
0.0
 10
698.3123220476441
 20
900.0939789416433
 30
0.0
 10
698.2931662143156
 20
901.1665292191532
 30
0.0
 10
698.9113034363833
 20
901.6212950523727
 30
0.0
 10
699.5183281584538
 20
902.0679469967051
 30
0.0
 10
700.0074545472205
 20
902.6802281076632
 30
0.0
 10
700.0878173249781
 20
903.4295281074765
 30
0.0
 10
700.389548158236
 20
906.2437422734391
 30
0.0
 10
696.3321451036949
 20
907.7233981064022
 30
0.0
 10
694.72016232632
 20
910.2415964391064
 30
0.0
 10
693.7269517710129
 20
911.7900086609415
 30
0.0
 10
693.7972251043284
 20
913.5963367160456
 30
0.0
 10
694.6498889930042
 20
915.207437548976
 30
0.0
 10
695.0528670484591
 20
915.9766342154502
 30
0.0
 10
695.5351848261163
 20
916.610540604181
 30
0.0
 10
696.0793445482026
 20
917.1269719929404
 30
0.0
 10
696.0793445482026
 20
917.1269719929404
 30
0.0
 10
693.2825223266797
 20
919.1583722702107
 30
0.0
 10
693.2825223266797
 20
919.1583722702107
 30
0.0
 10
692.5004139935417
 20
919.7263797700687
 30
0.0
 10
691.4500887160262
 20
921.6984428251311
 30
0.0
 10
696.9480245479853
 20
920.2659533810445
 30
0.0
 10
693.9716384376183
 20
924.763270324365
 30
0.0
 10
702.0616795467071
 20
921.197780603034
 30
0.0
 10
702.8466453798441
 20
920.8986603253306
 30
0.0
 10
700.9961848247511
 20
923.8957192134703
 30
0.0
 10
705.2037653792547
 20
921.7020411584637
 30
0.0
 10
708.5128562117609
 20
919.5825522701041
 30
0.0
 10
708.3512134340232
 20
920.724176436486
 30
0.0
 10
708.490490100655
 20
921.9828169917265
 30
0.0
 10
708.8724426005599
 20
923.285836991401
 30
0.0
 10
706.940596212154
 20
923.8880639356947
 30
0.0
 10
705.157763157044
 20
925.780787268555
 30
0.0
 10
704.4692820461049
 20
927.516841990343
 30
0.0
 10
703.929673157351
 20
928.9009303233302
 30
0.0
 10
704.7586656571438
 20
930.5511189340289
 30
0.0
 10
703.9453717684581
 20
931.7398389337317
 30
0.0
 10
703.2469423241882
 20
932.7559800445887
 30
0.0
 10
700.5938770470739
 20
934.9155444884934
 30
0.0
 10
701.8886420467501
 20
936.1428583770753
 30
0.0
 10
703.4014589908163
 20
937.5749950433841
 30
0.0
 10
706.4121351011748
 20
935.7518394882844
 30
0.0
 10
707.3237128787247
 20
933.1788547667055
 30
0.0
 10
707.6681298230831
 20
932.1935817113962
 30
0.0
 10
707.8010212119386
 20
928.9322569899895
 30
0.0
 10
709.4903328781829
 20
929.2139147676968
 30
0.0
 10
709.4903328781829
 20
929.2139147676968
 30
0.0
 10
709.5449428781694
 20
929.2139147676968
 30
0.0
 10
709.5449428781694
 20
929.2139147676968
 30
0.0
 10
708.7044851006019
 20
937.4415744878615
 30
0.0
 10
715.7267384321797
 20
939.8507997650374
 30
0.0
 10
718.0692181538161
 20
935.0871003217841
 30
0.0
 10
719.4534475979144
 20
932.2951111558152
 30
0.0
 10
718.343008987081
 20
929.9724222675068
 30
0.0
 10
716.9900356540858
 20
927.6184772680953
 30
0.0
 10
720.6265042642879
 20
927.6576003236416
 30
0.0
 10
721.7369428751215
 20
934.5239964330359
 30
0.0
 10
726.3666925961863
 20
932.8111897667975
 30
0.0
 10
727.0000698182499
 20
932.5766631001893
 30
0.0
 10
727.5554125958892
 20
931.7477058781743
 30
0.0
 10
727.0627584293454
 20
931.0908689338942
 30
0.0
 10
726.2883053739837
 20
930.0428719897118
 30
0.0
 10
725.3734820408793
 20
929.362398934326
 30
0.0
 10
724.3881737077918
 20
928.5335828234224
 30
0.0
 10
722.2164384305569
 20
926.6957869905482
 30
0.0
 10
722.6873262082171
 20
924.0955325467543
 30
0.0
 10
719.0311020424646
 20
922.159735047238
 30
0.0
 10
722.1733642639014
 20
922.0830764361459
 30
0.0
 10
723.0369995414632
 20
921.4557317140806
 30
0.0
 10
723.6088875968758
 20
920.423221714339
 30
0.0
 10
726.5761367628005
 20
922.1950481027847
 30
0.0
 10
729.5203142620644
 20
923.4950694913487
 30
0.0
 10
727.9173273180205
 20
920.8986603253306
 30
0.0
 10
728.7022931511574
 20
921.197780603034
 30
0.0
 10
736.7922284269133
 20
924.763270324365
 30
0.0
 10
733.8158423165457
 20
920.2659533810445
 30
0.0
 10
739.3137075929493
 20
921.6984428251311
 30
0.0
 10
738.2634528709897
 20
919.7263797700687
 30
0.0
 10
737.4812387045184
 20
919.1583722702107
 30
0.0
  0
SPLINE
  5
82
330
1F
100
AcDbEntity
  8
_U+0421_U+043B_U+043E_U+0439 1
 62
     1
420
 16711693
370
     5
100
AcDbSpline
210
0.0
220
0.0
230
1.0
 70
    11
 71
     3
 72
    53
 73
    49
 74
     0
 42
0.0000000001
 43
0.0000000001
 12
1.0
 22
0.0
 32
0.0
 13
1.0
 23
0.0
 33
0.0
 40
0.0
 40
0.0
 40
0.0
 40
0.0
 40
1.0
 40
1.0
 40
1.0
 40
2.0
 40
2.0
 40
2.0
 40
3.0
 40
3.0
 40
3.0
 40
4.0
 40
4.0
 40
4.0
 40
5.0
 40
5.0
 40
5.0
 40
6.0
 40
6.0
 40
6.0
 40
7.0
 40
7.0
 40
7.0
 40
8.0
 40
8.0
 40
8.0
 40
9.0
 40
9.0
 40
9.0
 40
10.0
 40
10.0
 40
10.0
 40
11.0
 40
11.0
 40
11.0
 40
12.0
 40
12.0
 40
12.0
 40
13.0
 40
13.0
 40
13.0
 40
14.0
 40
14.0
 40
14.0
 40
15.0
 40
15.0
 40
15.0
 40
16.0
 40
16.0
 40
16.0
 40
16.0
 10
794.7015473013246
 20
931.9662869892308
 30
0.0
 10
789.5364925803933
 20
936.7504122658123
 30
0.0
 10
794.5013811902636
 20
908.5510853284175
 30
0.0
 10
793.7525750793401
 20
901.1218322747196
 30
0.0
 10
793.7525750793401
 20
901.1218322747196
 30
0.0
 10
788.8297023027927
 20
901.1218322747196
 30
0.0
 10
788.8297023027927
 20
901.1218322747196
 30
0.0
 10
788.8297023027927
 20
901.1218322747196
 30
0.0
 10
788.8297023027927
 20
898.1218453310253
 30
0.0
 10
788.8297023027927
 20
898.1218453310253
 30
0.0
 10
788.8297023027927
 20
898.1218453310253
 30
0.0
 10
768.8297423077925
 20
898.1218453310253
 30
0.0
 10
768.8297423077925
 20
898.1218453310253
 30
0.0
 10
768.8297423077925
 20
898.1218453310253
 30
0.0
 10
768.8297423077925
 20
901.1218322747196
 30
0.0
 10
768.8297423077925
 20
901.1218322747196
 30
0.0
 10
768.8297423077925
 20
901.1218322747196
 30
0.0
 10
758.6921084214379
 20
901.1218322747196
 30
0.0
 10
758.6921084214379
 20
901.1218322747196
 30
0.0
 10
757.2502350884656
 20
904.6423781071726
 30
0.0
 10
765.1786334198165
 20
907.5857794953259
 30
0.0
 10
765.1786334198165
 20
915.2834964378458
 30
0.0
 10
765.1873117531478
 20
919.7124097700722
 30
0.0
 10
761.4256070318661
 20
923.8822783801405
 30
0.0
 10
761.3988311985396
 20
928.2591922679355
 30
0.0
 10
761.3371656429991
 20
938.3198853209759
 30
0.0
 10
759.5897161989915
 20
933.25025698891
 30
0.0
 10
756.8539598107866
 20
932.5723592113018
 30
0.0
 10
755.8166520332683
 20
932.3153606002545
 30
0.0
 10
754.9954206445847
 20
933.1239272667195
 30
0.0
 10
754.657565366891
 20
934.155484766461
 30
0.0
 10
753.2253581450271
 20
938.5933586542409
 30
0.0
 10
761.9768223095061
 20
943.8138700418242
 30
0.0
 10
764.2444778644947
 20
946.4819283744905
 30
0.0
 10
768.5579270300831
 20
951.5512039287788
 30
0.0
 10
769.8081361964367
 20
958.5080875381509
 30
0.0
 10
773.1431561956032
 20
964.1463230922973
 30
0.0
 10
772.6436934179501
 20
969.1022511466133
 30
0.0
 10
771.2246800849715
 20
971.14571642388
 30
0.0
 10
771.6707323070823
 20
973.811622812103
 30
0.0
 10
772.7560178623664
 20
980.3113769771444
 30
0.0
 10
781.2293873046926
 20
984.1971183650618
 30
0.0
 10
785.304535081452
 20
973.9360828120714
 30
0.0
 10
787.8854220252509
 20
967.4151972581463
 30
0.0
 10
792.6449939685057
 20
951.213172262197
 30
0.0
 10
796.528124800868
 20
941.6882428201338
 30
0.0
 10
802.689071188217
 20
926.575983657245
 30
0.0
 10
795.0543956345698
 20
931.6394383782016
 30
0.0
 10
794.7015473013246
 20
931.9662869892308
 30
0.0
  0
SPLINE
  5
83
330
1F
100
AcDbEntity
  8
_U+0421_U+043B_U+043E_U+0439 1
 62
     1
420
 16711693
370
     5
100
AcDbSpline
210
0.0
220
0.0
230
1.0
 70
    11
 71
     3
 72
    74
 73
    70
 74
     0
 42
0.0000000001
 43
0.0000000001
 12
1.0
 22
0.0
 32
0.0
 13
1.0
 23
0.0
 33
0.0
 40
0.0
 40
0.0
 40
0.0
 40
0.0
 40
1.0
 40
1.0
 40
1.0
 40
2.0
 40
2.0
 40
2.0
 40
3.0
 40
3.0
 40
3.0
 40
4.0
 40
4.0
 40
4.0
 40
5.0
 40
5.0
 40
5.0
 40
6.0
 40
6.0
 40
6.0
 40
7.0
 40
7.0
 40
7.0
 40
8.0
 40
8.0
 40
8.0
 40
9.0
 40
9.0
 40
9.0
 40
10.0
 40
10.0
 40
10.0
 40
11.0
 40
11.0
 40
11.0
 40
12.0
 40
12.0
 40
12.0
 40
13.0
 40
13.0
 40
13.0
 40
14.0
 40
14.0
 40
14.0
 40
15.0
 40
15.0
 40
15.0
 40
16.0
 40
16.0
 40
16.0
 40
17.0
 40
17.0
 40
17.0
 40
18.0
 40
18.0
 40
18.0
 40
19.0
 40
19.0
 40
19.0
 40
20.0
 40
20.0
 40
20.0
 40
21.0
 40
21.0
 40
21.0
 40
22.0
 40
22.0
 40
22.0
 40
23.0
 40
23.0
 40
23.0
 40
23.0
 10
880.7069703353791
 20
944.8118430971303
 30
0.0
 10
882.2938706127599
 20
947.5845353186594
 30
0.0
 10
885.4673889453001
 20
955.1645303167644
 30
0.0
 10
884.2284686678315
 20
959.6153158712076
 30
0.0
 10
883.0968986681152
 20
963.697413370187
 30
0.0
 10
879.7628311689481
 20
966.3925297584019
 30
0.0
 10
875.7101906144061
 20
967.277825591514
 30
0.0
 10
865.7550839502277
 20
969.4519244798594
 30
0.0
 10
843.4865159002394
 20
958.5732808714677
 30
0.0
 10
839.5357575678942
 20
971.8506017014819
 30
0.0
 10
838.8103053458528
 20
974.2887547564278
 30
0.0
 10
845.6233261774829
 20
975.8723742004768
 30
0.0
 10
848.1899256212859
 20
973.049375867849
 30
0.0
 10
848.5519814545286
 20
972.6510544790596
 30
0.0
 10
849.2098414543639
 20
973.0163911456347
 30
0.0
 10
849.0455881210718
 20
973.5290478121732
 30
0.0
 10
847.397904232595
 20
978.6724772553322
 30
0.0
 10
840.2518964566036
 20
986.8195272532952
 30
0.0
 10
828.8997897927754
 20
970.5827889240209
 30
0.0
 10
826.7423067377591
 20
968.993736702196
 30
0.0
 10
823.7236931274024
 20
967.4403503136954
 30
0.0
 10
823.8241289607106
 20
964.9072647587734
 30
0.0
 10
823.93878173846
 20
961.6601569818072
 30
0.0
 10
828.3895672929025
 20
962.1900292038971
 30
0.0
 10
832.47011256966
 20
962.4875972593786
 30
0.0
 10
831.25020701441
 20
959.044909482461
 30
0.0
 10
831.8207897920448
 20
955.3955997611513
 30
0.0
 10
834.3096370136449
 20
952.3169786508098
 30
0.0
 10
836.8176400685735
 20
949.2381105960243
 30
0.0
 10
839.3897781234862
 20
947.5212469853421
 30
0.0
 10
839.4488331234714
 20
942.9672386531469
 30
0.0
 10
839.5518442345566
 20
935.1958969884234
 30
0.0
 10
831.8770578475862
 20
931.0585897672354
 30
0.0
 10
835.0735772912313
 20
928.0868603235336
 30
0.0
 10
835.0735772912313
 20
928.0868603235336
 30
0.0
 10
835.0735772912313
 20
925.1067700465015
 30
0.0
 10
835.0735772912313
 20
925.1067700465015
 30
0.0
 10
835.0735772912313
 20
925.1067700465015
 30
0.0
 10
846.6661372883334
 20
925.1067700465015
 30
0.0
 10
846.6661372883334
 20
925.1067700465015
 30
0.0
 10
846.6661372883334
 20
925.1067700465015
 30
0.0
 10
846.6661372883334
 20
928.041810601323
 30
0.0
 10
846.6661372883334
 20
928.041810601323
 30
0.0
 10
852.3764100646839
 20
932.6250642112881
 30
0.0
 10
849.9524386764009
 20
940.5853183759648
 30
0.0
 10
849.6639017320286
 20
943.3363853197216
 30
0.0
 10
853.4705503421877
 20
942.4118253199525
 30
0.0
 10
858.3689756187415
 20
943.1200267086649
 30
0.0
 10
862.0080900622755
 20
943.0019519864718
 30
0.0
 10
865.8047903391042
 20
942.8839478198349
 30
0.0
 10
870.7920803378578
 20
944.0740789306482
 30
0.0
 10
869.5822289492713
 20
938.0347350432693
 30
0.0
 10
868.727342560596
 20
933.6728142110265
 30
0.0
 10
865.22644645036
 20
929.3384453232209
 30
0.0
 10
865.9907395057248
 20
928.0422339346565
 30
0.0
 10
865.9907395057248
 20
928.0422339346565
 30
0.0
 10
865.9907395057248
 20
925.1067700465015
 30
0.0
 10
865.9907395057248
 20
925.1067700465015
 30
0.0
 10
865.9907395057248
 20
925.1067700465015
 30
0.0
 10
882.326079223863
 20
925.1067700465015
 30
0.0
 10
882.326079223863
 20
925.1067700465015
 30
0.0
 10
882.326079223863
 20
925.1067700465015
 30
0.0
 10
882.326079223863
 20
928.1068275457509
 30
0.0
 10
882.326079223863
 20
928.1068275457509
 30
0.0
 10
882.326079223863
 20
928.1068275457509
 30
0.0
 10
882.3030781127572
 20
928.1068275457509
 30
0.0
 10
882.3030781127572
 20
928.1068275457509
 30
0.0
 10
883.5336728346722
 20
930.5726736562459
 30
0.0
 10
883.7909183901633
 20
936.5707425436351
 30
0.0
 10
880.7069703353791
 20
944.8118430971303
 30
0.0
  0
SPLINE
  5
84
330
1F
100
AcDbEntity
  8
_U+0421_U+043B_U+043E_U+0439 1
 62
     1
420
 16711693
370
     5
100
AcDbSpline
210
0.0
220
0.0
230
1.0
 70
    11
 71
     3
 72
    17
 73
    13
 74
     0
 42
0.0000000001
 43
0.0000000001
 12
1.0
 22
0.0
 32
0.0
 13
1.0
 23
0.0
 33
0.0
 40
0.0
 40
0.0
 40
0.0
 40
0.0
 40
1.0
 40
1.0
 40
1.0
 40
2.0
 40
2.0
 40
2.0
 40
3.0
 40
3.0
 40
3.0
 40
4.0
 40
4.0
 40
4.0
 40
4.0
 10
844.1064522889736
 20
933.1657667111527
 30
0.0
 10
843.1204736781087
 20
930.7695589339746
 30
0.0
 10
841.5992606229338
 20
929.2861636565674
 30
0.0
 10
843.0234950670218
 20
928.1068275457509
 30
0.0
 10
843.0234950670218
 20
928.1068275457509
 30
0.0
 10
838.8608584013957
 20
928.1068275457509
 30
0.0
 10
838.8608584013957
 20
928.1068275457509
 30
0.0
 10
840.5831547898542
 20
929.505979489846
 30
0.0
 10
842.5190228449262
 20
932.9930819889738
 30
0.0
 10
844.2145434000576
 20
940.3658553204639
 30
0.0
 10
844.7743664554732
 20
937.6256186544825
 30
0.0
 10
845.1618575664878
 20
935.7417500438427
 30
0.0
 10
844.1064522889736
 20
933.1657667111527
 30
0.0
  0
SPLINE
  5
85
330
1F
100
AcDbEntity
  8
_U+0421_U+043B_U+043E_U+0439 1
 62
     1
420
 16711693
370
     5
100
AcDbSpline
210
0.0
220
0.0
230
1.0
 70
    11
 71
     3
 72
    17
 73
    13
 74
     0
 42
0.0000000001
 43
0.0000000001
 12
1.0
 22
0.0
 32
0.0
 13
1.0
 23
0.0
 33
0.0
 40
0.0
 40
0.0
 40
0.0
 40
0.0
 40
1.0
 40
1.0
 40
1.0
 40
2.0
 40
2.0
 40
2.0
 40
3.0
 40
3.0
 40
3.0
 40
4.0
 40
4.0
 40
4.0
 40
4.0
 10
877.5299947806176
 20
928.3853808790146
 30
0.0
 10
877.5782900583831
 20
928.2882258790394
 30
0.0
 10
877.6345581139245
 20
928.1960450457291
 30
0.0
 10
877.6947420027989
 20
928.1068275457509
 30
0.0
 10
877.6947420027989
 20
928.1068275457509
 30
0.0
 10
871.0834395044516
 20
928.1068275457509
 30
0.0
 10
871.0834395044516
 20
928.1068275457509
 30
0.0
 10
872.5425283929758
 20
929.7160233786818
 30
0.0
 10
872.7517256151453
 20
931.2725142116266
 30
0.0
 10
875.5823792255488
 20
941.4676155979665
 30
0.0
 10
879.8568111689248
 20
934.129873099801
 30
0.0
 10
876.24126228094
 20
930.9626342117035
 30
0.0
 10
877.5299947806176
 20
928.3853808790146
 30
0.0
  0
SPLINE
  5
86
330
1F
100
AcDbEntity
  8
_U+0421_U+043B_U+043E_U+0439 1
 62
     1
420
 16711693
370
     5
100
AcDbSpline
210
0.0
220
0.0
230
1.0
 70
    11
 71
     3
 72
   119
 73
   115
 74
     0
 42
0.0000000001
 43
0.0000000001
 12
1.0
 22
0.0
 32
0.0
 13
1.0
 23
0.0
 33
0.0
 40
0.0
 40
0.0
 40
0.0
 40
0.0
 40
1.0
 40
1.0
 40
1.0
 40
2.0
 40
2.0
 40
2.0
 40
3.0
 40
3.0
 40
3.0
 40
4.0
 40
4.0
 40
4.0
 40
5.0
 40
5.0
 40
5.0
 40
6.0
 40
6.0
 40
6.0
 40
7.0
 40
7.0
 40
7.0
 40
8.0
 40
8.0
 40
8.0
 40
9.0
 40
9.0
 40
9.0
 40
10.0
 40
10.0
 40
10.0
 40
11.0
 40
11.0
 40
11.0
 40
12.0
 40
12.0
 40
12.0
 40
13.0
 40
13.0
 40
13.0
 40
14.0
 40
14.0
 40
14.0
 40
15.0
 40
15.0
 40
15.0
 40
16.0
 40
16.0
 40
16.0
 40
17.0
 40
17.0
 40
17.0
 40
18.0
 40
18.0
 40
18.0
 40
19.0
 40
19.0
 40
19.0
 40
20.0
 40
20.0
 40
20.0
 40
21.0
 40
21.0
 40
21.0
 40
22.0
 40
22.0
 40
22.0
 40
23.0
 40
23.0
 40
23.0
 40
24.0
 40
24.0
 40
24.0
 40
25.0
 40
25.0
 40
25.0
 40
26.0
 40
26.0
 40
26.0
 40
27.0
 40
27.0
 40
27.0
 40
28.0
 40
28.0
 40
28.0
 40
29.0
 40
29.0
 40
29.0
 40
30.0
 40
30.0
 40
30.0
 40
31.0
 40
31.0
 40
31.0
 40
32.0
 40
32.0
 40
32.0
 40
33.0
 40
33.0
 40
33.0
 40
34.0
 40
34.0
 40
34.0
 40
35.0
 40
35.0
 40
35.0
 40
36.0
 40
36.0
 40
36.0
 40
37.0
 40
37.0
 40
37.0
 40
38.0
 40
38.0
 40
38.0
 40
38.0
 10
901.6507519968094
 20
900.893690885888
 30
0.0
 10
901.4655436635226
 20
901.7977544967725
 30
0.0
 10
900.2603842193795
 20
902.2546722744363
 30
0.0
 10
899.5118603306775
 20
901.7685444967799
 30
0.0
 10
897.684295053357
 20
900.5819058859661
 30
0.0
 10
897.224378664583
 20
899.2287561640817
 30
0.0
 10
894.7096375541001
 20
897.8411400533174
 30
0.0
 10
894.9916128318076
 20
899.8340522750414
 30
0.0
 10
894.612306165236
 20
901.8560686634249
 30
0.0
 10
894.077883109814
 20
903.7906667184965
 30
0.0
 10
893.6791383876912
 20
905.2390664403566
 30
0.0
 10
891.7254197770686
 20
905.102894218169
 30
0.0
 10
891.2683256105161
 20
903.7906667184965
 30
0.0
 10
890.0047461663875
 20
900.183972552732
 30
0.0
 10
887.4771639447977
 20
894.9637081095926
 30
0.0
 10
883.1609983903211
 20
896.52884199809
 30
0.0
 10
882.7290572793175
 20
897.0034692201936
 30
0.0
 10
875.0659831145671
 20
901.8713086634211
 30
0.0
 10
865.8475822835383
 20
904.8987769959975
 30
0.0
 10
858.9553981185949
 20
907.1735586620957
 30
0.0
 10
851.2173939538624
 20
906.3569133845224
 30
0.0
 10
844.0622492334286
 20
906.3666500511864
 30
0.0
 10
834.998118124584
 20
906.3982589400672
 30
0.0
 10
830.2814439590965
 20
907.1675261620969
 30
0.0
 10
823.5310411830062
 20
902.108763385584
 30
0.0
 10
814.5854081296869
 20
895.4055622761491
 30
0.0
 10
804.8849011876678
 20
874.460581170274
 30
0.0
 10
806.314850631755
 20
873.8104822815476
 30
0.0
 10
810.9613572972596
 20
871.7505775598399
 30
0.0
 10
814.9166664629375
 20
879.8708517244769
 30
0.0
 10
816.4831409069902
 20
884.5718625566349
 30
0.0
 10
817.2416836845783
 20
886.8465736671774
 30
0.0
 10
817.8150181288796
 20
889.1699328332633
 30
0.0
 10
818.8744803508373
 20
891.162739221654
 30
0.0
 10
819.0885811841167
 20
887.5270467225631
 30
0.0
 10
820.3525839615787
 20
883.83304005682
 30
0.0
 10
818.9428486841532
 20
880.6153186687354
 30
0.0
 10
817.2611570179071
 20
876.8143497807966
 30
0.0
 10
815.1611767406544
 20
874.1798758925662
 30
0.0
 10
814.5878422963531
 20
869.8538678380925
 30
0.0
 10
813.6069436854875
 20
862.5161606177044
 30
0.0
 10
815.0698072962327
 20
855.5741289527731
 30
0.0
 10
817.3354520178887
 20
854.0818789531463
 30
0.0
 10
817.3354520178887
 20
854.0818789531463
 30
0.0
 10
817.306347851229
 20
854.0818789531463
 30
0.0
 10
817.306347851229
 20
854.0818789531463
 30
0.0
 10
817.306347851229
 20
854.0818789531463
 30
0.0
 10
817.306347851229
 20
851.081892009452
 30
0.0
 10
817.306347851229
 20
851.081892009452
 30
0.0
 10
817.306347851229
 20
851.081892009452
 30
0.0
 10
834.0080120137204
 20
851.081892009452
 30
0.0
 10
834.0080120137204
 20
851.081892009452
 30
0.0
 10
834.0080120137204
 20
851.081892009452
 30
0.0
 10
834.0080120137204
 20
854.0818789531463
 30
0.0
 10
834.0080120137204
 20
854.0818789531463
 30
0.0
 10
834.0080120137204
 20
854.0818789531463
 30
0.0
 10
833.9385147915156
 20
854.0818789531463
 30
0.0
 10
833.9385147915156
 20
854.0818789531463
 30
0.0
 10
834.8662497912832
 20
855.7809978416103
 30
0.0
 10
832.7001589584919
 20
859.0505070074599
 30
0.0
 10
831.5898967365467
 20
861.2021339513662
 30
0.0
 10
826.9360170154879
 20
870.2212858935559
 30
0.0
 10
836.7229192352638
 20
876.2407331142733
 30
0.0
 10
843.8776053445865
 20
880.586038113187
 30
0.0
 10
847.6103470103194
 20
880.5374606131987
 30
0.0
 10
851.3436531204977
 20
880.654159502059
 30
0.0
 10
855.0858845084507
 20
880.9458714464305
 30
0.0
 10
853.948564230957
 20
874.3743622814062
 30
0.0
 10
856.0301647859925
 20
865.9842483946151
 30
0.0
 10
857.4970853411812
 20
859.3735456184901
 30
0.0
 10
858.1058386743623
 20
856.6305572858423
 30
0.0
 10
858.1854253410096
 20
854.9902817306967
 30
0.0
 10
858.6510214520041
 20
854.0818789531463
 30
0.0
 10
858.6510214520041
 20
854.0818789531463
 30
0.0
 10
858.6436131186724
 20
854.0818789531463
 30
0.0
 10
858.6436131186724
 20
854.0818789531463
 30
0.0
 10
858.6436131186724
 20
854.0818789531463
 30
0.0
 10
858.6436131186724
 20
851.081892009452
 30
0.0
 10
858.6436131186724
 20
851.081892009452
 30
0.0
 10
858.6436131186724
 20
851.081892009452
 30
0.0
 10
874.8713908923932
 20
851.081892009452
 30
0.0
 10
874.8713908923932
 20
851.081892009452
 30
0.0
 10
874.8713908923932
 20
851.081892009452
 30
0.0
 10
874.8713908923932
 20
854.0818789531463
 30
0.0
 10
874.8713908923932
 20
854.0818789531463
 30
0.0
 10
874.8713908923932
 20
854.0818789531463
 30
0.0
 10
874.8367833924021
 20
854.0818789531463
 30
0.0
 10
874.8367833924021
 20
854.0818789531463
 30
0.0
 10
876.0530553365421
 20
856.1188178415258
 30
0.0
 10
872.8000561706891
 20
861.7061475623515
 30
0.0
 10
872.2731120041539
 20
864.5169045060928
 30
0.0
 10
871.3499278377183
 20
869.3872486715422
 30
0.0
 10
870.3288831157513
 20
875.8228678365996
 30
0.0
 10
871.5245881154524
 20
880.7708583909185
 30
0.0
 10
874.5092292258173
 20
880.9651683908696
 30
0.0
 10
877.4740089472983
 20
881.3444045018862
 30
0.0
 10
880.4292989465591
 20
881.9275461684072
 30
0.0
 10
881.220791168584
 20
879.1503031135461
 30
0.0
 10
882.9785770014774
 20
878.8939042247212
 30
0.0
 10
884.4634892233288
 20
878.1363139471325
 30
0.0
 10
885.8343131118751
 20
877.4364381139744
 30
0.0
 10
886.1063047784733
 20
876.9503456140955
 30
0.0
 10
886.640798389451
 20
875.5311558922281
 30
0.0
 10
886.8159878338518
 20
875.064501447901
 30
0.0
 10
886.8354611671805
 20
874.5200947813704
 30
0.0
 10
887.117330611554
 20
874.0826503370347
 30
0.0
 10
888.5106970000944
 20
871.8807878375851
 30
0.0
 10
893.529454776618
 20
871.588299782103
 30
0.0
 10
894.1363031097994
 20
878.0295281138258
 30
0.0
 10
894.5055203319292
 20
881.9763000572837
 30
0.0
 10
894.524993665258
 20
886.525828111702
 30
0.0
 10
893.7275394987905
 20
890.5211069995918
 30
0.0
 10
898.2577353309908
 20
892.5918419990743
 30
0.0
 10
902.6128475521249
 20
896.2567444981579
 30
0.0
 10
901.6507519968094
 20
900.893690885888
 30
0.0
  0
SPLINE
  5
87
330
1F
100
AcDbEntity
  8
_U+0421_U+043B_U+043E_U+0439 1
 62
     1
420
 16711693
370
     5
100
AcDbSpline
210
0.0
220
0.0
230
1.0
 70
    11
 71
     3
 72
    20
 73
    16
 74
     0
 42
0.0000000001
 43
0.0000000001
 12
1.0
 22
0.0
 32
0.0
 13
1.0
 23
0.0
 33
0.0
 40
0.0
 40
0.0
 40
0.0
 40
0.0
 40
1.0
 40
1.0
 40
1.0
 40
2.0
 40
2.0
 40
2.0
 40
3.0
 40
3.0
 40
3.0
 40
4.0
 40
4.0
 40
4.0
 40
5.0
 40
5.0
 40
5.0
 40
5.0
 10
824.7475953493689
 20
861.3138233957828
 30
0.0
 10
825.7335739602331
 20
857.934353396628
 30
0.0
 10
826.0177011823847
 20
855.4263503416994
 30
0.0
 10
827.4476153486937
 20
854.0818789531463
 30
0.0
 10
827.4476153486937
 20
854.0818789531463
 30
0.0
 10
824.5226289605358
 20
854.0818789531463
 30
0.0
 10
824.5226289605358
 20
854.0818789531463
 30
0.0
 10
823.953245627345
 20
855.9245078415747
 30
0.0
 10
822.4022581277331
 20
858.4577697853856
 30
0.0
 10
821.3632217391036
 20
860.0356036738798
 30
0.0
 10
817.5982361844895
 20
865.7495806168961
 30
0.0
 10
818.6247136842329
 20
873.2657228372392
 30
0.0
 10
827.7698072930577
 20
879.3709656134904
 30
0.0
 10
826.0196767379393
 20
873.9854247815038
 30
0.0
 10
822.9320245164892
 20
867.5367881164493
 30
0.0
 10
824.7475953493689
 20
861.3138233957828
 30
0.0
  0
SPLINE
  5
88
330
1F
100
AcDbEntity
  8
_U+0421_U+043B_U+043E_U+0439 1
 62
     1
420
 16711693
370
     5
100
AcDbSpline
210
0.0
220
0.0
230
1.0
 70
    11
 71
     3
 72
    23
 73
    19
 74
     0
 42
0.0000000001
 43
0.0000000001
 12
1.0
 22
0.0
 32
0.0
 13
1.0
 23
0.0
 33
0.0
 40
0.0
 40
0.0
 40
0.0
 40
0.0
 40
1.0
 40
1.0
 40
1.0
 40
2.0
 40
2.0
 40
2.0
 40
3.0
 40
3.0
 40
3.0
 40
4.0
 40
4.0
 40
4.0
 40
5.0
 40
5.0
 40
5.0
 40
6.0
 40
6.0
 40
6.0
 40
6.0
 10
865.7819656168881
 20
854.0818789531463
 30
0.0
 10
866.2561695056582
 20
857.3593961745493
 30
0.0
 10
862.4300475621704
 20
860.7393600625933
 30
0.0
 10
861.5540297846114
 20
863.78326783961
 30
0.0
 10
859.7944447850517
 20
869.820107004767
 30
0.0
 10
861.1616350624877
 20
875.2978286700645
 30
0.0
 10
863.7865486729423
 20
880.7028428353798
 30
0.0
 10
864.1073647839734
 20
880.6833695020517
 30
0.0
 10
864.4282867283376
 20
880.6833695020517
 30
0.0
 10
864.7391897838152
 20
880.673632835387
 30
0.0
 10
863.9033533951351
 20
873.9562853370667
 30
0.0
 10
865.0017270059722
 20
867.5305792275623
 30
0.0
 10
867.1794595054276
 20
861.0854350625067
 30
0.0
 10
867.8481497830378
 20
859.0918172852272
 30
0.0
 10
868.5671461717469
 20
855.7129822860722
 30
0.0
 10
870.2795295046525
 20
854.0818789531463
 30
0.0
 10
870.2795295046525
 20
854.0818789531463
 30
0.0
 10
865.7819656168881
 20
854.0818789531463
 30
0.0
 10
865.7819656168881
 20
854.0818789531463
 30
0.0
  0
POLYLINE
  5
89
330
1F
100
AcDbEntity
  8
_U+0421_U+043B_U+043E_U+0439 1
 62
     1
420
 16711693
370
     5
100
AcDb2dPolyline
 66
     1
 10
0.0
 20
0.0
 30
0.0
  0
VERTEX
  5
8A
330
89
100
AcDbEntity
  8
_U+0421_U+043B_U+043E_U+0439 1
 62
     1
420
 16711693
370
     5
100
AcDbVertex
100
AcDb2dVertex
 10
918.8581231036192
 20
1165.05429054207
 30
0.0
  0
VERTEX
  5
8B
330
89
100
AcDbEntity
  8
_U+0421_U+043B_U+043E_U+0439 1
 62
     1
420
 16711693
370
     5
100
AcDbVertex
100
AcDb2dVertex
 10
918.8581231036192
 20
860.25429061827
 30
0.0
  0
VERTEX
  5
8C
330
89
100
AcDbEntity
  8
_U+0421_U+043B_U+043E_U+0439 1
 62
     1
420
 16711693
370
     5
100
AcDbVertex
100
AcDb2dVertex
 10
995.0581230845692
 20
860.25429061827
 30
0.0
  0
VERTEX
  5
8D
330
89
100
AcDbEntity
  8
_U+0421_U+043B_U+043E_U+0439 1
 62
     1
420
 16711693
370
     5
100
AcDbVertex
100
AcDb2dVertex
 10
995.0581230845692
 20
1165.05429054207
 30
0.0
  0
VERTEX
  5
8E
330
89
100
AcDbEntity
  8
_U+0421_U+043B_U+043E_U+0439 1
 62
     1
420
 16711693
370
     5
100
AcDbVertex
100
AcDb2dVertex
 10
918.8581231036192
 20
1165.05429054207
 30
0.0
  0
SEQEND
  5
8F
330
89
100
AcDbEntity
  8
_U+0421_U+043B_U+043E_U+0439 1
 62
     1
420
 16711693
370
     5
  0
POLYLINE
  5
90
330
1F
100
AcDbEntity
  8
_U+0421_U+043B_U+043E_U+0439 1
 62
     1
420
 16711693
370
     5
100
AcDb2dPolyline
 66
     1
 10
0.0
 20
0.0
 30
0.0
  0
VERTEX
  5
91
330
90
100
AcDbEntity
  8
_U+0421_U+043B_U+043E_U+0439 1
 62
     1
420
 16711693
370
     5
100
AcDbVertex
100
AcDb2dVertex
 10
928.0650586568727
 20
1131.630395272648
 30
0.0
  0
VERTEX
  5
92
330
90
100
AcDbEntity
  8
_U+0421_U+043B_U+043E_U+0439 1
 62
     1
420
 16711693
370
     5
100
AcDbVertex
100
AcDb2dVertex
 10
931.065045600567
 20
1131.630395272648
 30
0.0
  0
VERTEX
  5
93
330
90
100
AcDbEntity
  8
_U+0421_U+043B_U+043E_U+0439 1
 62
     1
420
 16711693
370
     5
100
AcDbVertex
100
AcDb2dVertex
 10
931.065045600567
 20
1114.928766387935
 30
0.0
  0
VERTEX
  5
94
330
90
100
AcDbEntity
  8
_U+0421_U+043B_U+043E_U+0439 1
 62
     1
420
 16711693
370
     5
100
AcDbVertex
100
AcDb2dVertex
 10
928.0650586568727
 20
1114.928766387935
 30
0.0
  0
VERTEX
  5
95
330
90
100
AcDbEntity
  8
_U+0421_U+043B_U+043E_U+0439 1
 62
     1
420
 16711693
370
     5
100
AcDbVertex
100
AcDb2dVertex
 10
928.0650586568727
 20
1131.630395272648
 30
0.0
  0
SEQEND
  5
96
330
90
100
AcDbEntity
  8
_U+0421_U+043B_U+043E_U+0439 1
 62
     1
420
 16711693
370
     5
  0
POLYLINE
  5
97
330
1F
100
AcDbEntity
  8
_U+0421_U+043B_U+043E_U+0439 1
 62
     1
420
 16711693
370
     5
100
AcDb2dPolyline
 66
     1
 10
0.0
 20
0.0
 30
0.0
  0
VERTEX
  5
98
330
97
100
AcDbEntity
  8
_U+0421_U+043B_U+043E_U+0439 1
 62
     1
420
 16711693
370
     5
100
AcDbVertex
100
AcDb2dVertex
 10
928.0650586568727
 20
1090.293130005204
 30
0.0
  0
VERTEX
  5
99
330
97
100
AcDbEntity
  8
_U+0421_U+043B_U+043E_U+0439 1
 62
     1
420
 16711693
370
     5
100
AcDbVertex
100
AcDb2dVertex
 10
931.065045600567
 20
1090.293130005204
 30
0.0
  0
VERTEX
  5
9A
330
97
100
AcDbEntity
  8
_U+0421_U+043B_U+043E_U+0439 1
 62
     1
420
 16711693
370
     5
100
AcDbVertex
100
AcDb2dVertex
 10
931.065045600567
 20
1074.065352231484
 30
0.0
  0
VERTEX
  5
9B
330
97
100
AcDbEntity
  8
_U+0421_U+043B_U+043E_U+0439 1
 62
     1
420
 16711693
370
     5
100
AcDbVertex
100
AcDb2dVertex
 10
928.0650586568727
 20
1074.065352231484
 30
0.0
  0
VERTEX
  5
9C
330
97
100
AcDbEntity
  8
_U+0421_U+043B_U+043E_U+0439 1
 62
     1
420
 16711693
370
     5
100
AcDbVertex
100
AcDb2dVertex
 10
928.0650586568727
 20
1090.293130005204
 30
0.0
  0
SEQEND
  5
9D
330
97
100
AcDbEntity
  8
_U+0421_U+043B_U+043E_U+0439 1
 62
     1
420
 16711693
370
     5
  0
POLYLINE
  5
9E
330
1F
100
AcDbEntity
  8
_U+0421_U+043B_U+043E_U+0439 1
 62
     1
420
 16711693
370
     5
100
AcDb2dPolyline
 66
     1
 10
0.0
 20
0.0
 30
0.0
  0
VERTEX
  5
9F
330
9E
100
AcDbEntity
  8
_U+0421_U+043B_U+043E_U+0439 1
 62
     1
420
 16711693
370
     5
100
AcDbVertex
100
AcDb2dVertex
 10
931.065045600567
 20
893.6782564432474
 30
0.0
  0
VERTEX
  5
A0
330
9E
100
AcDbEntity
  8
_U+0421_U+043B_U+043E_U+0439 1
 62
     1
420
 16711693
370
     5
100
AcDbVertex
100
AcDb2dVertex
 10
928.0650586568727
 20
893.6782564432474
 30
0.0
  0
VERTEX
  5
A1
330
9E
100
AcDbEntity
  8
_U+0421_U+043B_U+043E_U+0439 1
 62
     1
420
 16711693
370
     5
100
AcDbVertex
100
AcDb2dVertex
 10
928.0650586568727
 20
910.0136314391636
 30
0.0
  0
VERTEX
  5
A2
330
9E
100
AcDbEntity
  8
_U+0421_U+043B_U+043E_U+0439 1
 62
     1
420
 16711693
370
     5
100
AcDbVertex
100
AcDb2dVertex
 10
931.065045600567
 20
910.0136314391636
 30
0.0
  0
VERTEX
  5
A3
330
9E
100
AcDbEntity
  8
_U+0421_U+043B_U+043E_U+0439 1
 62
     1
420
 16711693
370
     5
100
AcDbVertex
100
AcDb2dVertex
 10
931.065045600567
 20
893.6782564432474
 30
0.0
  0
SEQEND
  5
A4
330
9E
100
AcDbEntity
  8
_U+0421_U+043B_U+043E_U+0439 1
 62
     1
420
 16711693
370
     5
  0
POLYLINE
  5
A5
330
1F
100
AcDbEntity
  8
_U+0421_U+043B_U+043E_U+0439 1
 62
     1
420
 16711693
370
     5
100
AcDb2dPolyline
 66
     1
 10
0.0
 20
0.0
 30
0.0
  0
VERTEX
  5
A6
330
A5
100
AcDbEntity
  8
_U+0421_U+043B_U+043E_U+0439 1
 62
     1
420
 16711693
370
     5
100
AcDbVertex
100
AcDb2dVertex
 10
931.065045600567
 20
929.3382689343321
 30
0.0
  0
VERTEX
  5
A7
330
A5
100
AcDbEntity
  8
_U+0421_U+043B_U+043E_U+0439 1
 62
     1
420
 16711693
370
     5
100
AcDbVertex
100
AcDb2dVertex
 10
928.0650586568727
 20
929.3382689343321
 30
0.0
  0
VERTEX
  5
A8
330
A5
100
AcDbEntity
  8
_U+0421_U+043B_U+043E_U+0439 1
 62
     1
420
 16711693
370
     5
100
AcDbVertex
100
AcDb2dVertex
 10
928.0650586568727
 20
940.9307583758783
 30
0.0
  0
VERTEX
  5
A9
330
A5
100
AcDbEntity
  8
_U+0421_U+043B_U+043E_U+0439 1
 62
     1
420
 16711693
370
     5
100
AcDbVertex
100
AcDb2dVertex
 10
931.065045600567
 20
940.9307583758783
 30
0.0
  0
VERTEX
  5
AA
330
A5
100
AcDbEntity
  8
_U+0421_U+043B_U+043E_U+0439 1
 62
     1
420
 16711693
370
     5
100
AcDbVertex
100
AcDb2dVertex
 10
931.065045600567
 20
929.3382689343321
 30
0.0
  0
SEQEND
  5
AB
330
A5
100
AcDbEntity
  8
_U+0421_U+043B_U+043E_U+0439 1
 62
     1
420
 16711693
370
     5
  0
POLYLINE
  5
AC
330
1F
100
AcDbEntity
  8
_U+0421_U+043B_U+043E_U+0439 1
 62
     1
420
 16711693
370
     5
100
AcDb2dPolyline
 66
     1
 10
0.0
 20
0.0
 30
0.0
  0
VERTEX
  5
AD
330
AC
100
AcDbEntity
  8
_U+0421_U+043B_U+043E_U+0439 1
 62
     1
420
 16711693
370
     5
100
AcDbVertex
100
AcDb2dVertex
 10
944.0914003195328
 20
872.3222186708081
 30
0.0
  0
VERTEX
  5
AE
330
AC
100
AcDbEntity
  8
_U+0421_U+043B_U+043E_U+0439 1
 62
     1
420
 16711693
370
     5
100
AcDbVertex
100
AcDb2dVertex
 10
941.0913780980603
 20
872.3222186708081
 30
0.0
  0
VERTEX
  5
AF
330
AC
100
AcDbEntity
  8
_U+0421_U+043B_U+043E_U+0439 1
 62
     1
420
 16711693
370
     5
100
AcDbVertex
100
AcDb2dVertex
 10
941.0913780980603
 20
882.3221986683083
 30
0.0
  0
VERTEX
  5
B0
330
AC
100
AcDbEntity
  8
_U+0421_U+043B_U+043E_U+0439 1
 62
     1
420
 16711693
370
     5
100
AcDbVertex
100
AcDb2dVertex
 10
944.0914003195328
 20
882.3221986683083
 30
0.0
  0
VERTEX
  5
B1
330
AC
100
AcDbEntity
  8
_U+0421_U+043B_U+043E_U+0439 1
 62
     1
420
 16711693
370
     5
100
AcDbVertex
100
AcDb2dVertex
 10
944.0914003195328
 20
872.3222186708081
 30
0.0
  0
SEQEND
  5
B2
330
AC
100
AcDbEntity
  8
_U+0421_U+043B_U+043E_U+0439 1
 62
     1
420
 16711693
370
     5
  0
POLYLINE
  5
B3
330
1F
100
AcDbEntity
  8
_U+0421_U+043B_U+043E_U+0439 1
 62
     1
420
 16711693
370
     5
100
AcDb2dPolyline
 66
     1
 10
0.0
 20
0.0
 30
0.0
  0
VERTEX
  5
B4
330
B3
100
AcDbEntity
  8
_U+0421_U+043B_U+043E_U+0439 1
 62
     1
420
 16711693
370
     5
100
AcDbVertex
100
AcDb2dVertex
 10
944.0914708750885
 20
1142.986488325364
 30
0.0
  0
VERTEX
  5
B5
330
B3
100
AcDbEntity
  8
_U+0421_U+043B_U+043E_U+0439 1
 62
     1
420
 16711693
370
     5
100
AcDbVertex
100
AcDb2dVertex
 10
941.0913780980603
 20
1142.986488325364
 30
0.0
  0
VERTEX
  5
B6
330
B3
100
AcDbEntity
  8
_U+0421_U+043B_U+043E_U+0439 1
 62
     1
420
 16711693
370
     5
100
AcDbVertex
100
AcDb2dVertex
 10
941.0913780980603
 20
1152.986468322865
 30
0.0
  0
VERTEX
  5
B7
330
B3
100
AcDbEntity
  8
_U+0421_U+043B_U+043E_U+0439 1
 62
     1
420
 16711693
370
     5
100
AcDbVertex
100
AcDb2dVertex
 10
944.0914708750885
 20
1152.986468322865
 30
0.0
  0
VERTEX
  5
B8
330
B3
100
AcDbEntity
  8
_U+0421_U+043B_U+043E_U+0439 1
 62
     1
420
 16711693
370
     5
100
AcDbVertex
100
AcDb2dVertex
 10
944.0914708750885
 20
1142.986488325364
 30
0.0
  0
SEQEND
  5
B9
330
B3
100
AcDbEntity
  8
_U+0421_U+043B_U+043E_U+0439 1
 62
     1
420
 16711693
370
     5
  0
POLYLINE
  5
BA
330
1F
100
AcDbEntity
  8
_U+0421_U+043B_U+043E_U+0439 1
 62
     1
420
 16711693
370
     5
100
AcDb2dPolyline
 66
     1
 10
0.0
 20
0.0
 30
0.0
  0
VERTEX
  5
BB
330
BA
100
AcDbEntity
  8
_U+0421_U+043B_U+043E_U+0439 1
 62
     1
420
 16711693
370
     5
100
AcDbVertex
100
AcDb2dVertex
 10
953.2496525394654
 20
954.7793675390828
 30
0.0
  0
VERTEX
  5
BC
330
BA
100
AcDbEntity
  8
_U+0421_U+043B_U+043E_U+0439 1
 62
     1
420
 16711693
370
     5
100
AcDbVertex
100
AcDb2dVertex
 10
950.249665595771
 20
954.7793675390828
 30
0.0
  0
VERTEX
  5
BD
330
BA
100
AcDbEntity
  8
_U+0421_U+043B_U+043E_U+0439 1
 62
     1
420
 16711693
370
     5
100
AcDbVertex
100
AcDb2dVertex
 10
950.249665595771
 20
974.7793628118607
 30
0.0
  0
VERTEX
  5
BE
330
BA
100
AcDbEntity
  8
_U+0421_U+043B_U+043E_U+0439 1
 62
     1
420
 16711693
370
     5
100
AcDbVertex
100
AcDb2dVertex
 10
953.2496525394654
 20
974.7793628118607
 30
0.0
  0
VERTEX
  5
BF
330
BA
100
AcDbEntity
  8
_U+0421_U+043B_U+043E_U+0439 1
 62
     1
420
 16711693
370
     5
100
AcDbVertex
100
AcDb2dVertex
 10
953.2496525394654
 20
954.7793675390828
 30
0.0
  0
SEQEND
  5
C0
330
BA
100
AcDbEntity
  8
_U+0421_U+043B_U+043E_U+0439 1
 62
     1
420
 16711693
370
     5
  0
POLYLINE
  5
C1
330
1F
100
AcDbEntity
  8
_U+0421_U+043B_U+043E_U+0439 1
 62
     1
420
 16711693
370
     5
100
AcDb2dPolyline
 66
     1
 10
0.0
 20
0.0
 30
0.0
  0
VERTEX
  5
C2
330
C1
100
AcDbEntity
  8
_U+0421_U+043B_U+043E_U+0439 1
 62
     1
420
 16711693
370
     5
100
AcDbVertex
100
AcDb2dVertex
 10
953.2496525394654
 20
1003.227468638082
 30
0.0
  0
VERTEX
  5
C3
330
C1
100
AcDbEntity
  8
_U+0421_U+043B_U+043E_U+0439 1
 62
     1
420
 16711693
370
     5
100
AcDbVertex
100
AcDb2dVertex
 10
950.249665595771
 20
1003.227468638082
 30
0.0
  0
VERTEX
  5
C4
330
C1
100
AcDbEntity
  8
_U+0421_U+043B_U+043E_U+0439 1
 62
     1
420
 16711693
370
     5
100
AcDbVertex
100
AcDb2dVertex
 10
950.249665595771
 20
1023.227534466415
 30
0.0
  0
VERTEX
  5
C5
330
C1
100
AcDbEntity
  8
_U+0421_U+043B_U+043E_U+0439 1
 62
     1
420
 16711693
370
     5
100
AcDbVertex
100
AcDb2dVertex
 10
953.2496525394654
 20
1023.227534466415
 30
0.0
  0
VERTEX
  5
C6
330
C1
100
AcDbEntity
  8
_U+0421_U+043B_U+043E_U+0439 1
 62
     1
420
 16711693
370
     5
100
AcDbVertex
100
AcDb2dVertex
 10
953.2496525394654
 20
1003.227468638082
 30
0.0
  0
SEQEND
  5
C7
330
C1
100
AcDbEntity
  8
_U+0421_U+043B_U+043E_U+0439 1
 62
     1
420
 16711693
370
     5
  0
POLYLINE
  5
C8
330
1F
100
AcDbEntity
  8
_U+0421_U+043B_U+043E_U+0439 1
 62
     1
420
 16711693
370
     5
100
AcDb2dPolyline
 66
     1
 10
0.0
 20
0.0
 30
0.0
  0
VERTEX
  5
C9
330
C8
100
AcDbEntity
  8
_U+0421_U+043B_U+043E_U+0439 1
 62
     1
420
 16711693
370
     5
100
AcDbVertex
100
AcDb2dVertex
 10
953.2496525394654
 20
1050.529324181812
 30
0.0
  0
VERTEX
  5
CA
330
C8
100
AcDbEntity
  8
_U+0421_U+043B_U+043E_U+0439 1
 62
     1
420
 16711693
370
     5
100
AcDbVertex
100
AcDb2dVertex
 10
950.249665595771
 20
1050.529324181812
 30
0.0
  0
VERTEX
  5
CB
330
C8
100
AcDbEntity
  8
_U+0421_U+043B_U+043E_U+0439 1
 62
     1
420
 16711693
370
     5
100
AcDbVertex
100
AcDb2dVertex
 10
950.249665595771
 20
1070.52931945459
 30
0.0
  0
VERTEX
  5
CC
330
C8
100
AcDbEntity
  8
_U+0421_U+043B_U+043E_U+0439 1
 62
     1
420
 16711693
370
     5
100
AcDbVertex
100
AcDb2dVertex
 10
953.2496525394654
 20
1070.52931945459
 30
0.0
  0
VERTEX
  5
CD
330
C8
100
AcDbEntity
  8
_U+0421_U+043B_U+043E_U+0439 1
 62
     1
420
 16711693
370
     5
100
AcDbVertex
100
AcDb2dVertex
 10
953.2496525394654
 20
1050.529324181812
 30
0.0
  0
SEQEND
  5
CE
330
C8
100
AcDbEntity
  8
_U+0421_U+043B_U+043E_U+0439 1
 62
     1
420
 16711693
370
     5
  0
POLYLINE
  5
CF
330
1F
100
AcDbEntity
  8
_U+0421_U+043B_U+043E_U+0439 1
 62
     1
420
 16711693
370
     5
100
AcDb2dPolyline
 66
     1
 10
0.0
 20
0.0
 30
0.0
  0
VERTEX
  5
D0
330
CF
100
AcDbEntity
  8
_U+0421_U+043B_U+043E_U+0439 1
 62
     1
420
 16711693
370
     5
100
AcDbVertex
100
AcDb2dVertex
 10
964.4979014255422
 20
906.324175606752
 30
0.0
  0
VERTEX
  5
D1
330
CF
100
AcDbEntity
  8
_U+0421_U+043B_U+043E_U+0439 1
 62
     1
420
 16711693
370
     5
100
AcDbVertex
100
AcDb2dVertex
 10
961.4979144818478
 20
906.324175606752
 30
0.0
  0
VERTEX
  5
D2
330
CF
100
AcDbEntity
  8
_U+0421_U+043B_U+043E_U+0439 1
 62
     1
420
 16711693
370
     5
100
AcDbVertex
100
AcDb2dVertex
 10
961.4979144818478
 20
916.3241556042527
 30
0.0
  0
VERTEX
  5
D3
330
CF
100
AcDbEntity
  8
_U+0421_U+043B_U+043E_U+0439 1
 62
     1
420
 16711693
370
     5
100
AcDbVertex
100
AcDb2dVertex
 10
964.4979014255422
 20
916.3241556042527
 30
0.0
  0
VERTEX
  5
D4
330
CF
100
AcDbEntity
  8
_U+0421_U+043B_U+043E_U+0439 1
 62
     1
420
 16711693
370
     5
100
AcDbVertex
100
AcDb2dVertex
 10
964.4979014255422
 20
906.324175606752
 30
0.0
  0
SEQEND
  5
D5
330
CF
100
AcDbEntity
  8
_U+0421_U+043B_U+043E_U+0439 1
 62
     1
420
 16711693
370
     5
  0
POLYLINE
  5
D6
330
1F
100
AcDbEntity
  8
_U+0421_U+043B_U+043E_U+0439 1
 62
     1
420
 16711693
370
     5
100
AcDb2dPolyline
 66
     1
 10
0.0
 20
0.0
 30
0.0
  0
VERTEX
  5
D7
330
D6
100
AcDbEntity
  8
_U+0421_U+043B_U+043E_U+0439 1
 62
     1
420
 16711693
370
     5
100
AcDbVertex
100
AcDb2dVertex
 10
964.4979014255422
 20
1108.984496111643
 30
0.0
  0
VERTEX
  5
D8
330
D6
100
AcDbEntity
  8
_U+0421_U+043B_U+043E_U+0439 1
 62
     1
420
 16711693
370
     5
100
AcDbVertex
100
AcDb2dVertex
 10
961.4979144818478
 20
1108.984496111643
 30
0.0
  0
VERTEX
  5
D9
330
D6
100
AcDbEntity
  8
_U+0421_U+043B_U+043E_U+0439 1
 62
     1
420
 16711693
370
     5
100
AcDbVertex
100
AcDb2dVertex
 10
961.4979144818478
 20
1118.984405553588
 30
0.0
  0
VERTEX
  5
DA
330
D6
100
AcDbEntity
  8
_U+0421_U+043B_U+043E_U+0439 1
 62
     1
420
 16711693
370
     5
100
AcDbVertex
100
AcDb2dVertex
 10
964.4979014255422
 20
1118.984405553588
 30
0.0
  0
VERTEX
  5
DB
330
D6
100
AcDbEntity
  8
_U+0421_U+043B_U+043E_U+0439 1
 62
     1
420
 16711693
370
     5
100
AcDbVertex
100
AcDb2dVertex
 10
964.4979014255422
 20
1108.984496111643
 30
0.0
  0
SEQEND
  5
DC
330
D6
100
AcDbEntity
  8
_U+0421_U+043B_U+043E_U+0439 1
 62
     1
420
 16711693
370
     5
  0
POLYLINE
  5
DD
330
1F
100
AcDbEntity
  8
_U+0421_U+043B_U+043E_U+0439 1
 62
     1
420
 16711693
370
     5
100
AcDb2dPolyline
 66
     1
 10
0.0
 20
0.0
 30
0.0
  0
VERTEX
  5
DE
330
DD
100
AcDbEntity
  8
_U+0421_U+043B_U+043E_U+0439 1
 62
     1
420
 16711693
370
     5
100
AcDbVertex
100
AcDb2dVertex
 10
982.7653344765307
 20
924.3376439355824
 30
0.0
  0
VERTEX
  5
DF
330
DD
100
AcDbEntity
  8
_U+0421_U+043B_U+043E_U+0439 1
 62
     1
420
 16711693
370
     5
100
AcDbVertex
100
AcDb2dVertex
 10
979.7653475328364
 20
924.3376439355824
 30
0.0
  0
VERTEX
  5
E0
330
DD
100
AcDbEntity
  8
_U+0421_U+043B_U+043E_U+0439 1
 62
     1
420
 16711693
370
     5
100
AcDbVertex
100
AcDb2dVertex
 10
979.7653475328364
 20
944.3377097639159
 30
0.0
  0
VERTEX
  5
E1
330
DD
100
AcDbEntity
  8
_U+0421_U+043B_U+043E_U+0439 1
 62
     1
420
 16711693
370
     5
100
AcDbVertex
100
AcDb2dVertex
 10
982.7653344765307
 20
944.3377097639159
 30
0.0
  0
VERTEX
  5
E2
330
DD
100
AcDbEntity
  8
_U+0421_U+043B_U+043E_U+0439 1
 62
     1
420
 16711693
370
     5
100
AcDbVertex
100
AcDb2dVertex
 10
982.7653344765307
 20
924.3376439355824
 30
0.0
  0
SEQEND
  5
E3
330
DD
100
AcDbEntity
  8
_U+0421_U+043B_U+043E_U+0439 1
 62
     1
420
 16711693
370
     5
  0
POLYLINE
  5
E4
330
1F
100
AcDbEntity
  8
_U+0421_U+043B_U+043E_U+0439 1
 62
     1
420
 16711693
370
     5
100
AcDb2dPolyline
 66
     1
 10
0.0
 20
0.0
 30
0.0
  0
VERTEX
  5
E5
330
E4
100
AcDbEntity
  8
_U+0421_U+043B_U+043E_U+0439 1
 62
     1
420
 16711693
370
     5
100
AcDbVertex
100
AcDb2dVertex
 10
982.7653344765307
 20
1002.419078360506
 30
0.0
  0
VERTEX
  5
E6
330
E4
100
AcDbEntity
  8
_U+0421_U+043B_U+043E_U+0439 1
 62
     1
420
 16711693
370
     5
100
AcDbVertex
100
AcDb2dVertex
 10
979.7653475328364
 20
1002.419078360506
 30
0.0
  0
VERTEX
  5
E7
330
E4
100
AcDbEntity
  8
_U+0421_U+043B_U+043E_U+0439 1
 62
     1
420
 16711693
370
     5
100
AcDbVertex
100
AcDb2dVertex
 10
979.7653475328364
 20
1022.419073633284
 30
0.0
  0
VERTEX
  5
E8
330
E4
100
AcDbEntity
  8
_U+0421_U+043B_U+043E_U+0439 1
 62
     1
420
 16711693
370
     5
100
AcDbVertex
100
AcDb2dVertex
 10
982.7653344765307
 20
1022.419073633284
 30
0.0
  0
VERTEX
  5
E9
330
E4
100
AcDbEntity
  8
_U+0421_U+043B_U+043E_U+0439 1
 62
     1
420
 16711693
370
     5
100
AcDbVertex
100
AcDb2dVertex
 10
982.7653344765307
 20
1002.419078360506
 30
0.0
  0
SEQEND
  5
EA
330
E4
100
AcDbEntity
  8
_U+0421_U+043B_U+043E_U+0439 1
 62
     1
420
 16711693
370
     5
  0
POLYLINE
  5
EB
330
1F
100
AcDbEntity
  8
_U+0421_U+043B_U+043E_U+0439 1
 62
     1
420
 16711693
370
     5
100
AcDb2dPolyline
 66
     1
 10
0.0
 20
0.0
 30
0.0
  0
VERTEX
  5
EC
330
EB
100
AcDbEntity
  8
_U+0421_U+043B_U+043E_U+0439 1
 62
     1
420
 16711693
370
     5
100
AcDbVertex
100
AcDb2dVertex
 10
982.7653344765307
 20
1080.971047785313
 30
0.0
  0
VERTEX
  5
ED
330
EB
100
AcDbEntity
  8
_U+0421_U+043B_U+043E_U+0439 1
 62
     1
420
 16711693
370
     5
100
AcDbVertex
100
AcDb2dVertex
 10
979.7653475328364
 20
1080.971047785313
 30
0.0
  0
VERTEX
  5
EE
330
EB
100
AcDbEntity
  8
_U+0421_U+043B_U+043E_U+0439 1
 62
     1
420
 16711693
370
     5
100
AcDbVertex
100
AcDb2dVertex
 10
979.7653475328364
 20
1100.971043058091
 30
0.0
  0
VERTEX
  5
EF
330
EB
100
AcDbEntity
  8
_U+0421_U+043B_U+043E_U+0439 1
 62
     1
420
 16711693
370
     5
100
AcDbVertex
100
AcDb2dVertex
 10
982.7653344765307
 20
1100.971043058091
 30
0.0
  0
VERTEX
  5
F0
330
EB
100
AcDbEntity
  8
_U+0421_U+043B_U+043E_U+0439 1
 62
     1
420
 16711693
370
     5
100
AcDbVertex
100
AcDb2dVertex
 10
982.7653344765307
 20
1080.971047785313
 30
0.0
  0
SEQEND
  5
F1
330
EB
100
AcDbEntity
  8
_U+0421_U+043B_U+043E_U+0439 1
 62
     1
420
 16711693
370
     5
  0
ENDSEC
  0
SECTION
  2
OBJECTS
  0
DICTIONARY
  5
C
330
0
100
AcDbDictionary
281
     1
  3
ACAD_GROUP
350
D
  3
ACAD_LAYOUT
350
1A
  3
ACAD_MATERIAL
350
3B
  3
ACAD_MLEADERSTYLE
350
F3
  3
ACAD_MLINESTYLE
350
17
  3
ACAD_PLOTSETTINGS
350
19
  3
ACAD_PLOTSTYLENAME
350
E
  3
ACAD_TABLESTYLE
350
F2
  3
ACAD_VISUALSTYLE
350
2A
  0
SUN
  5
3F
330
29
100
AcDbSun
 90
        1
290
     0
 63
     7
421
 16777215
 40
1.0
291
     1
 91
  2455826
 92
 54000000
292
     0
 70
     2
 71
   256
280
     1
  0
DICTIONARY
  5
D
102
{ACAD_REACTORS
330
C
102
}
330
C
100
AcDbDictionary
281
     1
  0
DICTIONARY
  5
1A
102
{ACAD_REACTORS
330
C
102
}
330
C
100
AcDbDictionary
281
     1
  3
Layout1
350
1E
  3
Layout2
350
26
  3
Model
350
22
  0
DICTIONARY
  5
3B
102
{ACAD_REACTORS
330
C
102
}
330
C
100
AcDbDictionary
281
     1
  3
ByBlock
350
3D
  3
ByLayer
350
3C
  3
Global
350
3E
  0
DICTIONARY
  5
F3
102
{ACAD_REACTORS
330
C
102
}
330
C
100
AcDbDictionary
281
     1
  0
DICTIONARY
  5
17
102
{ACAD_REACTORS
330
C
102
}
330
C
100
AcDbDictionary
281
     1
  3
Standard
350
18
  0
DICTIONARY
  5
19
102
{ACAD_REACTORS
330
C
102
}
330
C
100
AcDbDictionary
281
     1
  0
ACDBDICTIONARYWDFLT
  5
E
102
{ACAD_REACTORS
330
C
102
}
330
C
100
AcDbDictionary
281
     1
  3
Normal
350
F
100
AcDbDictionaryWithDefault
340
F
  0
DICTIONARY
  5
F2
102
{ACAD_REACTORS
330
C
102
}
330
C
100
AcDbDictionary
281
     1
  0
DICTIONARY
  5
2A
102
{ACAD_REACTORS
330
C
102
}
330
C
100
AcDbDictionary
281
     1
  3
2dWireframe
350
2F
  3
3D Hidden
350
31
  3
3dWireframe
350
30
  3
Basic
350
32
  3
Brighten
350
36
  3
ColorChange
350
3A
  3
Conceptual
350
34
  3
Dim
350
35
  3
Facepattern
350
39
  3
Flat
350
2B
  3
FlatWithEdges
350
2C
  3
Gouraud
350
2D
  3
GouraudWithEdges
350
2E
  3
Linepattern
350
38
  3
Realistic
350
33
  3
Thicken
350
37
  0
LAYOUT
  5
1E
102
{ACAD_REACTORS
330
1A
102
}
330
1A
100
AcDbPlotSettings
  1

  2
none_device
  4

  6

 40
0.0
 41
0.0
 42
0.0
 43
0.0
 44
0.0
 45
0.0
 46
0.0
 47
0.0
 48
0.0
 49
0.0
140
0.0
141
0.0
142
1.0
143
1.0
 70
   688
 72
     0
 73
     0
 74
     5
  7

 75
    16
 76
     0
 77
     2
 78
   300
147
1.0
148
0.0
149
0.0
100
AcDbLayout
  1
Layout1
 70
     1
 71
     1
 10
0.0
 20
0.0
 11
12.0
 21
9.0
 12
0.0
 22
0.0
 32
0.0
 14
1.000000000000000E+20
 24
1.000000000000000E+20
 34
1.000000000000000E+20
 15
-1.000000000000000E+20
 25
-1.000000000000000E+20
 35
-1.000000000000000E+20
146
0.0
 13
0.0
 23
0.0
 33
0.0
 16
1.0
 26
0.0
 36
0.0
 17
0.0
 27
1.0
 37
0.0
 76
     0
330
1B
  0
LAYOUT
  5
26
102
{ACAD_REACTORS
330
1A
102
}
330
1A
100
AcDbPlotSettings
  1

  2
none_device
  4

  6

 40
0.0
 41
0.0
 42
0.0
 43
0.0
 44
0.0
 45
0.0
 46
0.0
 47
0.0
 48
0.0
 49
0.0
140
0.0
141
0.0
142
1.0
143
1.0
 70
   688
 72
     0
 73
     0
 74
     5
  7

 75
    16
 76
     0
 77
     2
 78
   300
147
1.0
148
0.0
149
0.0
100
AcDbLayout
  1
Layout2
 70
     1
 71
     2
 10
0.0
 20
0.0
 11
0.0
 21
0.0
 12
0.0
 22
0.0
 32
0.0
 14
0.0
 24
0.0
 34
0.0
 15
0.0
 25
0.0
 35
0.0
146
0.0
 13
0.0
 23
0.0
 33
0.0
 16
1.0
 26
0.0
 36
0.0
 17
0.0
 27
1.0
 37
0.0
 76
     0
330
23
  0
LAYOUT
  5
22
102
{ACAD_REACTORS
330
1A
102
}
330
1A
100
AcDbPlotSettings
  1

  2
none_device
  4

  6

 40
0.0
 41
0.0
 42
0.0
 43
0.0
 44
0.0
 45
0.0
 46
0.0
 47
0.0
 48
0.0
 49
0.0
140
0.0
141
0.0
142
1.0
143
1.0
 70
  1712
 72
     0
 73
     0
 74
     0
  7

 75
     0
 76
     0
 77
     2
 78
   300
147
1.0
148
0.0
149
0.0
100
AcDbLayout
  1
Model
 70
     1
 71
     0
 10
0.0
 20
0.0
 11
12.0
 21
9.0
 12
0.0
 22
0.0
 32
0.0
 14
1.000000000000000E+20
 24
1.000000000000000E+20
 34
1.000000000000000E+20
 15
-1.000000000000000E+20
 25
-1.000000000000000E+20
 35
-1.000000000000000E+20
146
0.0
 13
0.0
 23
0.0
 33
0.0
 16
1.0
 26
0.0
 36
0.0
 17
0.0
 27
1.0
 37
0.0
 76
     0
330
1F
331
29
  0
MATERIAL
  5
3D
102
{ACAD_REACTORS
330
3B
102
}
330
3B
100
AcDbMaterial
  1
ByBlock
 72
     1
 94
      127
  0
MATERIAL
  5
3C
102
{ACAD_REACTORS
330
3B
102
}
330
3B
100
AcDbMaterial
  1
ByLayer
 72
     1
 94
      127
  0
MATERIAL
  5
3E
102
{ACAD_REACTORS
330
3B
102
}
330
3B
100
AcDbMaterial
  1
Global
 72
     1
 94
      127
  0
MLINESTYLE
  5
18
102
{ACAD_REACTORS
330
17
102
}
330
17
100
AcDbMlineStyle
  2
Standard
 70
     0
  3

 62
   256
 51
90.0
 52
90.0
 71
     2
 49
0.5
 62
   256
  6
BYLAYER
 49
-0.5
 62
   256
  6
BYLAYER
  0
ACDBPLACEHOLDER
  5
F
102
{ACAD_REACTORS
330
E
102
}
330
E
  0
VISUALSTYLE
  5
2F
102
{ACAD_REACTORS
330
2A
102
}
330
2A
100
AcDbVisualStyle
  2
2dWireframe
 70
     4
177
     2
291
     0
 71
     0
176
     1
 72
     2
176
     1
 73
     0
176
     1
 90
        0
176
     1
 40
-0.6
176
     1
 41
-30.0
176
     1
 62
     5
 63
     7
421
 16777215
176
     1
 74
     1
176
     1
 91
        4
176
     1
 64
     7
176
     1
 65
   257
176
     1
 75
     1
176
     1
175
     1
176
     1
 42
1.0
176
     1
 92
        0
176
     1
 66
   257
176
     1
 43
1.0
176
     1
 76
     1
176
     1
 77
     6
176
     1
 78
     2
176
     1
 67
     7
176
     1
 79
     5
176
     1
170
     0
176
     1
171
     0
176
     1
290
     0
176
     1
 93
        1
176
     1
 44
0.0
176
     1
173
     0
176
     1
  0
VISUALSTYLE
  5
31
102
{ACAD_REACTORS
330
2A
102
}
330
2A
100
AcDbVisualStyle
  2
3D Hidden
 70
     6
177
     2
291
     0
 71
     1
176
     1
 72
     2
176
     1
 73
     2
176
     1
 90
        0
176
     1
 40
-0.6
176
     1
 41
-30.0
176
     1
 62
     5
 63
     7
421
 16777215
176
     1
 74
     2
176
     1
 91
        2
176
     1
 64
     7
176
     1
 65
   257
176
     1
 75
     2
176
     1
175
     1
176
     1
 42
40.0
176
     1
 92
        0
176
     1
 66
   257
176
     1
 43
1.0
176
     1
 76
     1
176
     1
 77
     6
176
     1
 78
     2
176
     1
 67
     7
176
     1
 79
     3
176
     1
170
     0
176
     1
171
     0
176
     1
290
     0
176
     1
 93
        1
176
     1
 44
0.0
176
     1
173
     0
176
     1
  0
VISUALSTYLE
  5
30
102
{ACAD_REACTORS
330
2A
102
}
330
2A
100
AcDbVisualStyle
  2
3dWireframe
 70
     5
177
     2
291
     0
 71
     0
176
     1
 72
     2
176
     1
 73
     0
176
     1
 90
        0
176
     1
 40
-0.6
176
     1
 41
-30.0
176
     1
 62
     5
 63
     7
421
 16777215
176
     1
 74
     1
176
     1
 91
        4
176
     1
 64
     7
176
     1
 65
   257
176
     1
 75
     1
176
     1
175
     1
176
     1
 42
1.0
176
     1
 92
        0
176
     1
 66
   257
176
     1
 43
1.0
176
     1
 76
     1
176
     1
 77
     6
176
     1
 78
     2
176
     1
 67
     7
176
     1
 79
     5
176
     1
170
     0
176
     1
171
     0
176
     1
290
     0
176
     1
 93
        1
176
     1
 44
0.0
176
     1
173
     0
176
     1
  0
VISUALSTYLE
  5
32
102
{ACAD_REACTORS
330
2A
102
}
330
2A
100
AcDbVisualStyle
  2
Basic
 70
     7
177
     2
291
     1
 71
     1
176
     1
 72
     0
176
     1
 73
     1
176
     1
 90
        0
176
     1
 40
-0.6
176
     1
 41
-30.0
176
     1
 62
     5
 63
     7
421
 16777215
176
     1
 74
     0
176
     1
 91
        4
176
     1
 64
     7
176
     1
 65
   257
176
     1
 75
     1
176
     1
175
     1
176
     1
 42
1.0
176
     1
 92
        8
176
     1
 66
     7
176
     1
 43
1.0
176
     1
 76
     1
176
     1
 77
     6
176
     1
 78
     2
176
     1
 67
     7
176
     1
 79
     5
176
     1
170
     0
176
     1
171
     0
176
     1
290
     0
176
     1
 93
        1
176
     1
 44
0.0
176
     1
173
     0
176
     1
  0
VISUALSTYLE
  5
36
102
{ACAD_REACTORS
330
2A
102
}
330
2A
100
AcDbVisualStyle
  2
Brighten
 70
    12
177
     2
291
     1
 71
     2
176
     1
 72
     2
176
     1
 73
     0
176
     1
 90
        0
176
     1
 40
-0.6
176
     1
 41
-30.0
176
     1
 62
     5
 63
     7
421
 16777215
176
     1
 74
     1
176
     1
 91
        4
176
     1
 64
     7
176
     1
 65
   257
176
     1
 75
     1
176
     1
175
     1
176
     1
 42
1.0
176
     1
 92
        8
176
     1
 66
     7
176
     1
 43
1.0
176
     1
 76
     1
176
     1
 77
     6
176
     1
 78
     2
176
     1
 67
     7
176
     1
 79
     5
176
     1
170
     0
176
     1
171
     0
176
     1
290
     0
176
     1
 93
        1
176
     1
 44
50.0
176
     1
173
     0
176
     1
  0
VISUALSTYLE
  5
3A
102
{ACAD_REACTORS
330
2A
102
}
330
2A
100
AcDbVisualStyle
  2
ColorChange
 70
    16
177
     2
291
     1
 71
     2
176
     1
 72
     2
176
     1
 73
     3
176
     1
 90
        0
176
     1
 40
-0.6
176
     1
 41
-30.0
176
     1
 62
     5
 63
     8
421
  8421504
176
     1
 74
     1
176
     1
 91
        4
176
     1
 64
     7
176
     1
 65
   257
176
     1
 75
     1
176
     1
175
     1
176
     1
 42
1.0
176
     1
 92
        8
176
     1
 66
     8
424
  8421504
176
     1
 43
1.0
176
     1
 76
     1
176
     1
 77
     6
176
     1
 78
     2
176
     1
 67
     7
176
     1
 79
     5
176
     1
170
     0
176
     1
171
     0
176
     1
290
     0
176
     1
 93
        1
176
     1
 44
0.0
176
     1
173
     0
176
     1
  0
VISUALSTYLE
  5
34
102
{ACAD_REACTORS
330
2A
102
}
330
2A
100
AcDbVisualStyle
  2
Conceptual
 70
     9
177
     2
291
     0
 71
     3
176
     1
 72
     2
176
     1
 73
     0
176
     1
 90
        0
176
     1
 40
-0.6
176
     1
 41
-30.0
176
     1
 62
     5
 63
     7
421
 16777215
176
     1
 74
     2
176
     1
 91
        2
176
     1
 64
     7
176
     1
 65
   257
176
     1
 75
     1
176
     1
175
     1
176
     1
 42
40.0
176
     1
 92
        8
176
     1
 66
     7
176
     1
 43
1.0
176
     1
 76
     1
176
     1
 77
     6
176
     1
 78
     2
176
     1
 67
     7
176
     1
 79
     3
176
     1
170
     0
176
     1
171
     0
176
     1
290
     0
176
     1
 93
        1
176
     1
 44
0.0
176
     1
173
     0
176
     1
  0
VISUALSTYLE
  5
35
102
{ACAD_REACTORS
330
2A
102
}
330
2A
100
AcDbVisualStyle
  2
Dim
 70
    11
177
     2
291
     1
 71
     2
176
     1
 72
     2
176
     1
 73
     0
176
     1
 90
        0
176
     1
 40
-0.6
176
     1
 41
-30.0
176
     1
 62
     5
 63
     7
421
 16777215
176
     1
 74
     1
176
     1
 91
        4
176
     1
 64
     7
176
     1
 65
   257
176
     1
 75
     1
176
     1
175
     1
176
     1
 42
1.0
176
     1
 92
        8
176
     1
 66
     7
176
     1
 43
1.0
176
     1
 76
     1
176
     1
 77
     6
176
     1
 78
     2
176
     1
 67
     7
176
     1
 79
     5
176
     1
170
     0
176
     1
171
     0
176
     1
290
     0
176
     1
 93
        1
176
     1
 44
-50.0
176
     1
173
     0
176
     1
  0
VISUALSTYLE
  5
39
102
{ACAD_REACTORS
330
2A
102
}
330
2A
100
AcDbVisualStyle
  2
Facepattern
 70
    15
177
     2
291
     1
 71
     2
176
     1
 72
     2
176
     1
 73
     0
176
     1
 90
        0
176
     1
 40
-0.6
176
     1
 41
-30.0
176
     1
 62
     5
 63
     7
421
 16777215
176
     1
 74
     1
176
     1
 91
        4
176
     1
 64
     7
176
     1
 65
   257
176
     1
 75
     1
176
     1
175
     1
176
     1
 42
1.0
176
     1
 92
        8
176
     1
 66
     7
176
     1
 43
1.0
176
     1
 76
     1
176
     1
 77
     6
176
     1
 78
     2
176
     1
 67
     7
176
     1
 79
     5
176
     1
170
     0
176
     1
171
     0
176
     1
290
     0
176
     1
 93
        1
176
     1
 44
0.0
176
     1
173
     0
176
     1
  0
VISUALSTYLE
  5
2B
102
{ACAD_REACTORS
330
2A
102
}
330
2A
100
AcDbVisualStyle
  2
Flat
 70
     0
177
     2
291
     1
 71
     2
176
     1
 72
     1
176
     1
 73
     1
176
     1
 90
        2
176
     1
 40
-0.6
176
     1
 41
30.0
176
     1
 62
     5
 63
     7
421
 16777215
176
     1
 74
     0
176
     1
 91
        4
176
     1
 64
     7
176
     1
 65
   257
176
     1
 75
     1
176
     1
175
     1
176
     1
 42
1.0
176
     1
 92
        8
176
     1
 66
     7
176
     1
 43
1.0
176
     1
 76
     1
176
     1
 77
     6
176
     1
 78
     2
176
     1
 67
     7
176
     1
 79
     5
176
     1
170
     0
176
     1
171
     0
176
     1
290
     0
176
     1
 93
       13
176
     1
 44
0.0
176
     1
173
     0
176
     1
  0
VISUALSTYLE
  5
2C
102
{ACAD_REACTORS
330
2A
102
}
330
2A
100
AcDbVisualStyle
  2
FlatWithEdges
 70
     1
177
     2
291
     1
 71
     2
176
     1
 72
     1
176
     1
 73
     1
176
     1
 90
        2
176
     1
 40
-0.6
176
     1
 41
30.0
176
     1
 62
     5
 63
     7
421
 16777215
176
     1
 74
     1
176
     1
 91
        4
176
     1
 64
     7
176
     1
 65
   257
176
     1
 75
     1
176
     1
175
     1
176
     1
 42
1.0
176
     1
 92
        0
176
     1
 66
   257
176
     1
 43
1.0
176
     1
 76
     1
176
     1
 77
     6
176
     1
 78
     2
176
     1
 67
     7
176
     1
 79
     5
176
     1
170
     0
176
     1
171
     0
176
     1
290
     0
176
     1
 93
       13
176
     1
 44
0.0
176
     1
173
     0
176
     1
  0
VISUALSTYLE
  5
2D
102
{ACAD_REACTORS
330
2A
102
}
330
2A
100
AcDbVisualStyle
  2
Gouraud
 70
     2
177
     2
291
     1
 71
     2
176
     1
 72
     2
176
     1
 73
     1
176
     1
 90
        2
176
     1
 40
-0.6
176
     1
 41
30.0
176
     1
 62
     5
 63
     7
421
 16777215
176
     1
 74
     0
176
     1
 91
        4
176
     1
 64
     7
176
     1
 65
   257
176
     1
 75
     1
176
     1
175
     1
176
     1
 42
1.0
176
     1
 92
        0
176
     1
 66
     7
176
     1
 43
1.0
176
     1
 76
     1
176
     1
 77
     6
176
     1
 78
     2
176
     1
 67
     7
176
     1
 79
     5
176
     1
170
     0
176
     1
171
     0
176
     1
290
     0
176
     1
 93
       13
176
     1
 44
0.0
176
     1
173
     0
176
     1
  0
VISUALSTYLE
  5
2E
102
{ACAD_REACTORS
330
2A
102
}
330
2A
100
AcDbVisualStyle
  2
GouraudWithEdges
 70
     3
177
     2
291
     1
 71
     2
176
     1
 72
     2
176
     1
 73
     1
176
     1
 90
        2
176
     1
 40
-0.6
176
     1
 41
30.0
176
     1
 62
     5
 63
     7
421
 16777215
176
     1
 74
     1
176
     1
 91
        4
176
     1
 64
     7
176
     1
 65
   257
176
     1
 75
     1
176
     1
175
     1
176
     1
 42
1.0
176
     1
 92
        0
176
     1
 66
   257
176
     1
 43
1.0
176
     1
 76
     1
176
     1
 77
     6
176
     1
 78
     2
176
     1
 67
     7
176
     1
 79
     5
176
     1
170
     0
176
     1
171
     0
176
     1
290
     0
176
     1
 93
       13
176
     1
 44
0.0
176
     1
173
     0
176
     1
  0
VISUALSTYLE
  5
38
102
{ACAD_REACTORS
330
2A
102
}
330
2A
100
AcDbVisualStyle
  2
Linepattern
 70
    14
177
     2
291
     1
 71
     2
176
     1
 72
     2
176
     1
 73
     0
176
     1
 90
        0
176
     1
 40
-0.6
176
     1
 41
-30.0
176
     1
 62
     5
 63
     7
421
 16777215
176
     1
 74
     1
176
     1
 91
        4
176
     1
 64
     7
176
     1
 65
   257
176
     1
 75
     7
176
     1
175
     7
176
     1
 42
1.0
176
     1
 92
        8
176
     1
 66
     7
176
     1
 43
1.0
176
     1
 76
     1
176
     1
 77
     6
176
     1
 78
     2
176
     1
 67
     7
176
     1
 79
     5
176
     1
170
     0
176
     1
171
     0
176
     1
290
     0
176
     1
 93
        1
176
     1
 44
0.0
176
     1
173
     0
176
     1
  0
VISUALSTYLE
  5
33
102
{ACAD_REACTORS
330
2A
102
}
330
2A
100
AcDbVisualStyle
  2
Realistic
 70
     8
177
     2
291
     0
 71
     2
176
     1
 72
     2
176
     1
 73
     0
176
     1
 90
        0
176
     1
 40
-0.6
176
     1
 41
-30.0
176
     1
 62
     5
 63
     7
421
 16777215
176
     1
 74
     1
176
     1
 91
        0
176
     1
 64
     7
176
     1
 65
   257
176
     1
 75
     1
176
     1
175
     1
176
     1
 42
1.0
176
     1
 92
        8
176
     1
 66
     8
424
  7895160
176
     1
 43
1.0
176
     1
 76
     1
176
     1
 77
     6
176
     1
 78
     2
176
     1
 67
     7
176
     1
 79
     5
176
     1
170
     0
176
     1
171
     0
176
     1
290
     0
176
     1
 93
       13
176
     1
 44
0.0
176
     1
173
     0
176
     1
  0
VISUALSTYLE
  5
37
102
{ACAD_REACTORS
330
2A
102
}
330
2A
100
AcDbVisualStyle
  2
Thicken
 70
    13
177
     2
291
     1
 71
     2
176
     1
 72
     2
176
     1
 73
     0
176
     1
 90
        0
176
     1
 40
-0.6
176
     1
 41
-30.0
176
     1
 62
     5
 63
     7
421
 16777215
176
     1
 74
     1
176
     1
 91
        4
176
     1
 64
     7
176
     1
 65
   257
176
     1
 75
     1
176
     1
175
     1
176
     1
 42
1.0
176
     1
 92
       12
176
     1
 66
     7
176
     1
 43
1.0
176
     1
 76
     1
176
     1
 77
     6
176
     1
 78
     2
176
     1
 67
     7
176
     1
 79
     5
176
     1
170
     0
176
     1
171
     0
176
     1
290
     0
176
     1
 93
        1
176
     1
 44
0.0
176
     1
173
     0
176
     1
  0
ENDSEC
  0
EOF
