  0
SECTION
  2
HEADER
  9
$ACADVER
  1
AC1009
999
BadogCNC www.badog.ch hobby routers
  9
$EXTMIN
 10
0.0
 20
0.0
  9
$EXTMAX
 10
5.0E+002
 20
3.5E+002
  9
$TEXTSIZE
 40
1.25E-001
  9
$LTSCALE
 40
1.0
  9
$CLAYER
  8
1
  9
$CECOLOR
 62
1
  9
$DIMASZ
 40
1.25E-001
  9
$DIMEXO
 40
6.25E-002
  9
$DIMDLI
 40
2.5E-001
  9
$DIMEXE
 40
1.25E-001
  9
$DIMTP
 40
5.0E-003
  9
$DIMTM
 40
-5.0E-003
  9
$DIMTXT
 40
3.0
  9
$DIMLIM
 70
0
  9
$DIMTIH
 70
1
  9
$DIMTOH
 70
1
  9
$DIMSE1
 70
0
  9
$DIMSE2
 70
0
  9
$DIMTAD
 70
0
  9
$DIMASO
 70
1
  9
$DIMALT
 70
0
  9
$DIMALTD
 70
0
  9
$DIMTOFL
 70
1
  9
$DIMTIX
 70
0
  9
$DIMSAH
 70
0
  9
$DIMTFAC
 40
1.0
  9
$DIMGAP
 40
6.25E-002
  9
$LUNITS
 70
2
  9
$LUPREC
 70
3
  9
$FILLETRAD
 40
1.0E+001
  9
$AUNITS
 70
0
  9
$AUPREC
 70
1
  9
$CHAMFERA
 40
6.0
  9
$CHAMFERB
 40
6.0
  9
$ANGBASE
 50
0.0
  9
$ANGDIR
 70
0
  9
$PEXTMIN
 10
0.0
 20
0.0
 30
0.0
  9
$PEXTMAX
 10
5.0E+002
 20
3.5E+002
 30
0.0
  9
$PLIMMIN
 10
0.0
 20
0.0
  9
$PLIMMAX
 10
5.0E+002
 20
3.5E+002
  9
$PDMODE
 70
2
  9
$PDSIZE
 40
-1.0E-002
  9
$SPLINETYPE
 70
6
  9
$TILEMODE
 70
0
  0
ENDSEC
  0
SECTION
  2
TABLES
  0
TABLE
  2
VPORT
 70
2
  0
VPORT
  2
*Active
 70
0
 10
0.0
 20
0.0
 11
5.0E+002
 21
3.5E+002
 12
2.5E+002
 22
1.75E+002
 13
0.0
 23
0.0
 14
1.0
 24
1.0
 15
0.0
 25
0.0
 16
0.0
 26
0.0
 36
1.0
 17
0.0
 27
0.0
 37
0.0
 40
3.5E+002
 41
1.4285714
 42
5.0E+001
 43
0.0
 44
0.0
 50
0.0
 51
0.0
 71
0
 72
100
 73
1
 74
3
 75
0
 76
0
 77
0
 78
0
  0
ENDTAB
  0
TABLE
  2
LTYPE
 70
7
  0
LTYPE
  2
HIDDENNEW0
  3
_ 
 70
64
 72
65
 73
3
 40
4.5
 49
1.5
 49
-1.5
 49
1.5
  0
LTYPE
  2
HIDDENNEW1
  3
_ 
 70
64
 72
65
 73
3
 40
4.5
 49
1.5
 49
-1.5
 49
1.5
  0
LTYPE
  2
HIDDEN
  3
_ 
 70
64
 72
65
 73
3
 40
4.5
 49
1.5
 49
-1.5
 49
1.5
  0
LTYPE
  2
CENTERLINE
  3
_ 
 70
64
 72
65
 73
5
 40
3.0E+001
 49
1.2E+001
 49
-1.5
 49
3.0
 49
-1.5
 49
1.2E+001
  0
LTYPE
  2
PHANTOM
  3
_ 
 70
64
 72
65
 73
7
 40
2.95E+001
 49
9.5
 49
-1.5
 49
3.0
 49
-1.5
 49
3.0
 49
-1.5
 49
9.5
  0
LTYPE
  2
SHORT_DASH
  3
_ 
 70
64
 72
65
 73
3
 40
3.0
 49
7.5E-001
 49
-1.5
 49
7.5E-001
  0
LTYPE
  2
LONG_DASH
  3
_ 
 70
64
 72
65
 73
3
 40
9.0
 49
2.25
 49
-4.5
 49
2.25
  0
ENDTAB
  0
TABLE
  2
LAYER
 70
258
  0
LAYER
  2
0
 70
0
 62
-7
  6
CONTINUOUS
  0
LAYER
  2
1
 70
0
 62
7
  6
CONTINUOUS
  0
LAYER
  2
2
 70
0
 62
7
  6
CONTINUOUS
  0
LAYER
  2
Drafting_Hidden_Entities
 70
1
 62
7
  6
CONTINUOUS
  0
ENDTAB
  0
TABLE
  2
STYLE
 70
1
  0
STYLE
  2
STANDARD
 70
64
 40
0.0
 41
1.0
 50
0.0
 71
0
 42
1.0
  3
monotxt.shx
  4

  0
ENDTAB
  0
TABLE
  2
VIEW
 70
0
  0
ENDTAB
  0
TABLE
  2
DIMSTYLE
 70
0
  0
ENDTAB
  0
ENDSEC
  0
SECTION
  2
BLOCKS
  0
BLOCK
  2
_AH12
  3
_AH
 10
0.0
 20
0.0
 70
64
  0
LINE
  8
0
  6
CONTINUOUS
 62
0
 10
0.0
 20
0.0
 11
1.0
 21
0.0
  0
LINE
  8
0
  6
CONTINUOUS
 62
0
 10
0.0
 20
0.0
 11
-1.0
 21
0.0
  0
ENDBLK
  0
BLOCK
  2
_AH13
  3
_AH
 10
0.0
 20
0.0
 70
64
  0
SOLID
  8
0
  6
CONTINUOUS
 62
0
 10
0.0
 20
0.0
 11
-1.0
 21
1.66667E-001
 12
-1.0
 22
-1.66667E-001
 13
0.0
 23
0.0
  0
ENDBLK
  0
BLOCK
  2
_AH14
  3
_AH
 10
0.0
 20
0.0
 70
64
  0
ENDBLK
  0
BLOCK
  2
_AH15
  3
_AH
 10
0.0
 20
0.0
 70
64
  0
CIRCLE
  8
0
  6
CONTINUOUS
 62
0
 10
0.0
 20
0.0
 40
1.66667E-001
  0
LINE
  8
0
  6
CONTINUOUS
 62
0
 10
0.0
 20
0.0
 11
-1.0
 21
0.0
  0
ENDBLK
  0
BLOCK
  2
_AH16
  3
_AH
 10
0.0
 20
0.0
 70
64
  0
POLYLINE
  8
0
  6
CONTINUOUS
 62
0
 66
1
 40
1.66667E-001
 41
1.66667E-001
 70
0
  0
VERTEX
  8
0
 42
1.0
 10
8.3335E-002
 20
0.0
 70
0
  0
VERTEX
  8
0
 42
1.0
 10
-8.3335E-002
 20
0.0
 70
0
  0
VERTEX
  8
0
 42
0.0
 10
8.3335E-002
 20
0.0
 70
0
  0
SEQEND
  0
LINE
  8
0
  6
CONTINUOUS
 62
0
 10
0.0
 20
0.0
 11
-1.0
 21
0.0
  0
ENDBLK
  0
BLOCK
  2
_AH17
  3
_AH
 10
0.0
 20
0.0
 70
64
  0
LINE
  8
0
  6
CONTINUOUS
 62
0
 10
-1.66667E-001
 20
-1.66667E-001
 11
1.66667E-001
 21
-1.66667E-001
  0
LINE
  8
0
  6
CONTINUOUS
 62
0
 10
1.66667E-001
 20
-1.66667E-001
 11
1.66667E-001
 21
1.66667E-001
  0
LINE
  8
0
  6
CONTINUOUS
 62
0
 10
1.66667E-001
 20
1.66667E-001
 11
-1.66667E-001
 21
1.66667E-001
  0
LINE
  8
0
  6
CONTINUOUS
 62
0
 10
-1.66667E-001
 20
1.66667E-001
 11
-1.66667E-001
 21
-1.66667E-001
  0
LINE
  8
0
  6
CONTINUOUS
 62
0
 10
0.0
 20
0.0
 11
-1.0
 21
0.0
  0
ENDBLK
  0
BLOCK
  2
_AH18
  3
_AH
 10
0.0
 20
0.0
 70
64
  0
SOLID
  8
0
  6
CONTINUOUS
 62
0
 10
-1.66667E-001
 20
-1.66667E-001
 11
1.66667E-001
 21
-1.66667E-001
 12
-1.66667E-001
 22
1.66667E-001
 13
1.66667E-001
 23
1.66667E-001
  0
LINE
  8
0
  6
CONTINUOUS
 62
0
 10
0.0
 20
0.0
 11
-1.0
 21
0.0
  0
ENDBLK
  0
BLOCK
  2
_AH19
  3
_AH
 10
0.0
 20
0.0
 70
64
  0
LINE
  8
0
  6
CONTINUOUS
 62
0
 10
-5.0E-001
 20
-5.0E-001
 11
5.0E-001
 21
5.0E-001
  0
LINE
  8
0
  6
CONTINUOUS
 62
0
 10
0.0
 20
0.0
 11
-1.0
 21
0.0
  0
ENDBLK
  0
BLOCK
  2
_AH20
  3
_AH
 10
0.0
 20
0.0
 70
64
  0
POLYLINE
  8
0
  6
CONTINUOUS
 62
0
 66
1
 40
5.0E-001
 41
5.0E-001
 70
0
  0
VERTEX
  8
0
 42
4.1421356E-001
 10
-1.66667E-001
 20
-1.66667E-001
 70
0
  0
VERTEX
  8
0
 42
0.0
 10
0.0
 20
0.0
 70
0
  0
SEQEND
  0
POLYLINE
  8
0
  6
CONTINUOUS
 62
0
 66
1
 40
5.0E-001
 41
5.0E-001
 70
0
  0
VERTEX
  8
0
 42
4.1421356E-001
 10
1.66667E-001
 20
1.66667E-001
 70
0
  0
VERTEX
  8
0
 42
0.0
 10
0.0
 20
0.0
 70
0
  0
SEQEND
  0
LINE
  8
0
  6
CONTINUOUS
 62
0
 10
0.0
 20
0.0
 11
-1.0
 21
0.0
  0
ENDBLK
  0
BLOCK
  2
_AH21
  3
_AH
 10
0.0
 20
0.0
 70
64
  0
LINE
  8
0
  6
CONTINUOUS
 62
0
 10
0.0
 20
0.0
 11
-1.0
 21
-1.66667E-001
  0
LINE
  8
0
  6
CONTINUOUS
 62
0
 10
-1.0
 20
-1.66667E-001
 11
-1.0
 21
1.66667E-001
  0
LINE
  8
0
  6
CONTINUOUS
 62
0
 10
-1.0
 20
1.66667E-001
 11
0.0
 21
0.0
  0
ENDBLK
  0
BLOCK
  2
_AH1
 70
0
 10
0.0
 20
0.0
  3
_AH1
  0
LINE
  8
0
  6
CONTINUOUS
 62
0
 10
-1.0
 20
1.66667E-001
 11
0.0
 21
0.0
  0
LINE
  8
0
  6
CONTINUOUS
 62
0
 10
0.0
 20
0.0
 11
-1.0
 21
-1.66667E-001
  0
LINE
  8
0
  6
CONTINUOUS
 62
0
 10
-1.0
 20
1.66667E-001
 11
-1.0
 21
-1.66667E-001
  0
LINE
  8
0
  6
CONTINUOUS
 62
0
 10
0.0
 20
0.0
 11
-1.0
 21
0.0
  0
ENDBLK
  0
BLOCK
  2
_AH2
 70
0
 10
0.0
 20
0.0
  3
_AH2
  0
LINE
  8
0
  6
CONTINUOUS
 62
0
 10
-1.0
 20
1.66667E-001
 11
0.0
 21
0.0
  0
LINE
  8
0
  6
CONTINUOUS
 62
0
 10
0.0
 20
0.0
 11
-1.0
 21
-1.66667E-001
  0
LINE
  8
0
  6
CONTINUOUS
 62
0
 10
0.0
 20
0.0
 11
-1.0
 21
0.0
  0
ENDBLK
  0
ENDSEC
  0
SECTION
  2
ENTITIES
  0
CIRCLE
  8
2
  6
CONTINUOUS
 62
7
 10
2.7910805E+002
 20
1.2925725E+002
 40
1.5
  0
CIRCLE
  8
2
  6
CONTINUOUS
 62
7
 10
2.48275E+002
 20
2.0931786E+002
 40
1.5
  0
ARC
  8
2
  6
CONTINUOUS
 62
7
 10
2.2089935E+002
 20
2.3022392E+002
 40
1.3001825
 50
9.8194266E+001
 51
2.5054613E+002
  0
LINE
  8
2
  6
CONTINUOUS
 62
7
 10
2.3263119E+002
 20
2.332269E+002
 11
2.2071404E+002
 21
2.3151083E+002
  0
ARC
  8
2
  6
CONTINUOUS
 62
7
 10
2.3323878E+002
 20
2.2900755E+002
 40
4.2628732
 50
2.5054613E+002
 51
4.5819427E+002
  0
LINE
  8
2
  6
CONTINUOUS
 62
7
 10
2.2046633E+002
 20
2.2899796E+002
 11
2.3181904E+002
 21
2.2498804E+002
  0
LINE
  8
2
  6
CONTINUOUS
 62
7
 10
2.8385165E+002
 20
1.4300841E+002
 11
2.8260805E+002
 21
1.2925725E+002
  0
ARC
  8
2
  6
CONTINUOUS
 62
7
 10
4.797707E+001
 20
1.4093809E+002
 40
2.3588366E+002
 50
5.0288431E-001
 51
1.8499443E+001
  0
ARC
  8
2
  6
CONTINUOUS
 62
7
 10
2.4796369E+002
 20
2.0785052E+002
 40
2.5E+001
 50
1.8499443E+001
 51
4.4110259E+001
  0
ARC
  8
2
  6
CONTINUOUS
 62
7
 10
2.3556037E+002
 20
1.9582656E+002
 40
4.227477E+001
 50
4.4110259E+001
 51
1.0557755E+002
  0
LINE
  8
2
  6
CONTINUOUS
 62
7
 10
2.2040593E+002
 20
2.3654849E+002
 11
2.242078E+002
 21
2.3654849E+002
  0
LINE
  8
2
  6
CONTINUOUS
 62
7
 10
2.1351208E+002
 20
2.3773361E+002
 11
2.2040593E+002
 21
2.3654849E+002
  0
LINE
  8
2
  6
CONTINUOUS
 62
7
 10
2.0616481E+002
 20
2.3918492E+002
 11
2.1351208E+002
 21
2.3773361E+002
  0
ARC
  8
2
  6
CONTINUOUS
 62
7
 10
2.0568034E+002
 20
2.3673231E+002
 40
2.5
 50
7.8826174E+001
 51
2.3982107E+002
  0
LINE
  8
2
  6
CONTINUOUS
 62
7
 10
2.4209628E+002
 20
2.1266368E+002
 11
2.0442359E+002
 21
2.3457117E+002
  0
ARC
  8
2
  6
CONTINUOUS
 62
7
 10
2.4008547E+002
 20
2.0920584E+002
 40
4.0
 50
1.6044398
 51
5.9821067E+001
  0
ARC
  8
2
  6
CONTINUOUS
 62
7
 10
2.48275E+002
 20
2.0931786E+002
 40
4.1902935
 50
1.8E+002
 51
2.8922599E+002
  0
ARC
  8
2
  6
CONTINUOUS
 62
7
 10
2.5097202E+002
 20
2.0158436E+002
 40
4.0
 50
3.2616137E+001
 51
1.0922599E+002
  0
LINE
  8
2
  6
CONTINUOUS
 62
7
 10
2.6729261E+002
 20
1.8350144E+002
 11
2.5434122E+002
 21
2.0374039E+002
  0
ARC
  8
2
  6
CONTINUOUS
 62
7
 10
2.4623509E+002
 20
1.7002624E+002
 40
2.5E+001
 50
8.4545479
 51
3.2616137E+001
  0
LINE
  8
2
  6
CONTINUOUS
 62
7
 10
2.7564405E+002
 20
1.4221208E+002
 11
2.7096341E+002
 21
1.7370186E+002
  0
LINE
  8
2
  6
CONTINUOUS
 62
7
 10
2.7560805E+002
 20
1.2925725E+002
 11
2.7564405E+002
 21
1.4221208E+002
  0
ARC
  8
2
  6
CONTINUOUS
 62
7
 10
2.7910805E+002
 20
1.2925725E+002
 40
3.5
 50
1.8E+002
 51
3.6E+002
  0
LINE
  8
2
  6
CONTINUOUS
 62
7
 10
2.7032802E+002
 20
1.9795918E+002
 11
2.6578922E+002
 21
2.1225601E+002
  0
LINE
  8
2
  6
CONTINUOUS
 62
7
 10
2.6578922E+002
 20
2.1225601E+002
 11
2.6864859E+002
 21
2.1316377E+002
  0
LINE
  8
2
  6
CONTINUOUS
 62
7
 10
2.6864859E+002
 20
2.1316377E+002
 11
2.7318738E+002
 21
1.9886694E+002
  0
LINE
  8
2
  6
CONTINUOUS
 62
7
 10
2.7318738E+002
 20
1.9886694E+002
 11
2.7032802E+002
 21
1.9795918E+002
  0
VIEWPORT
 67
1
  8
0
  6
CONTINUOUS
 62
3
100
AcDbViewport
 10
2.5E+002
 20
1.75E+002
 30
0.0
 40
3.5E+002
 41
3.5E+002
 68
1
 69
1
1001
ACAD
1000
MVIEW
1002
{
1070
16
1010
0.0
1020
0.0
1030
0.0
1010
0.0
1020
0.0
1030
1.0
1040
0.0
1040
3.5E+002
1040
1.375E+002
1040
1.75E+002
1040
5.0E+001
1040
0.0
1040
0.0
1070
0
1070
100
1070
1
1070
0
1070
0
1070
0
1070
0
1070
0
1040
0.0
1040
0.0
1040
0.0
1040
5.0E-001
1040
5.0E-001
1040
5.0E-001
1040
5.0E-001
1070
0
1002
{
1002
}
1002
}
  0
VIEWPORT
 67
1
  8
0
  6
CONTINUOUS
 62
3
100
AcDbViewport
 10
2.5E+002
 20
1.75E+002
 30
0.0
 40
5.0E+002
 41
3.5E+002
 68
2
 69
2
1001
ACAD
1000
MVIEW
1002
{
1070
16
1010
0.0
1020
0.0
1030
0.0
1010
0.0
1020
0.0
1030
1.0
1040
0.0
1040
3.5E+002
1040
2.5E+002
1040
1.75E+002
1040
5.0E+001
1040
0.0
1040
0.0
1070
0
1070
100
1070
1
1070
0
1070
0
1070
0
1070
0
1070
0
1040
0.0
1040
0.0
1040
0.0
1040
5.0E-001
1040
5.0E-001
1040
5.0E-001
1040
5.0E-001
1070
0
1002
}
  0
VIEWPORT
 67
1
  8
0
  6
CONTINUOUS
 62
3
100
AcDbViewport
 10
2.4343478E+002
 20
1.8271284E+002
 30
0.0
 40
3.5557889E+002
 41
2.9321582E+002
 68
3
 69
3
1001
ACAD
1000
MVIEW
1002
{
1070
16
1010
0.0
1020
0.0
1030
0.0
1010
0.0
1020
0.0
1030
1.0
1040
0.0
1040
2.9321582E+002
1040
2.4343478E+002
1040
1.8271284E+002
1040
5.0E+001
1040
0.0
1040
0.0
1070
0
1070
100
1070
1
1070
0
1070
0
1070
0
1070
0
1070
0
1040
0.0
1040
0.0
1040
0.0
1040
5.0E-001
1040
5.0E-001
1040
5.0E-001
1040
5.0E-001
1070
0
1002
}
  0
ENDSEC
  0
EOF
