  0
SECTION
  2
HEADER
  9
$ACADVER
  1
AC1024
  9
$ACADMAINTVER
 70
     6
  9
$DWGCODEPAGE
  3
ANSI_1251
  9
$INSBASE
 10
0.0
 20
0.0
 30
0.0
  9
$EXTMIN
 10
1.000000000000000E+20
 20
1.000000000000000E+20
 30
1.000000000000000E+20
  9
$EXTMAX
 10
-1.000000000000000E+20
 20
-1.000000000000000E+20
 30
-1.000000000000000E+20
  9
$LIMMIN
 10
0.0
 20
0.0
  9
$LIMMAX
 10
12.0
 20
9.0
  9
$ORTHOMODE
 70
     0
  9
$REGENMODE
 70
     1
  9
$FILLMODE
 70
     1
  9
$QTEXTMODE
 70
     0
  9
$MIRRTEXT
 70
     1
  9
$LTSCALE
 40
1.0
  9
$ATTMODE
 70
     1
  9
$TEXTSIZE
 40
0.2
  9
$TRACEWID
 40
0.05
  9
$TEXTSTYLE
  7
Standard
  9
$CLAYER
  8
0
  9
$CELTYPE
  6
ByLayer
  9
$CECOLOR
 62
   256
  9
$CELTSCALE
 40
1.0
  9
$DISPSILH
 70
     0
  9
$DIMSCALE
 40
1.0
  9
$DIMASZ
 40
0.18
  9
$DIMEXO
 40
0.0625
  9
$DIMDLI
 40
0.38
  9
$DIMRND
 40
0.0
  9
$DIMDLE
 40
0.0
  9
$DIMEXE
 40
0.18
  9
$DIMTP
 40
0.0
  9
$DIMTM
 40
0.0
  9
$DIMTXT
 40
0.18
  9
$DIMCEN
 40
0.09
  9
$DIMTSZ
 40
0.0
  9
$DIMTOL
 70
     0
  9
$DIMLIM
 70
     0
  9
$DIMTIH
 70
     1
  9
$DIMTOH
 70
     1
  9
$DIMSE1
 70
     0
  9
$DIMSE2
 70
     0
  9
$DIMTAD
 70
     0
  9
$DIMZIN
 70
     0
  9
$DIMBLK
  1

  9
$DIMASO
 70
     1
  9
$DIMSHO
 70
     1
  9
$DIMPOST
  1

  9
$DIMAPOST
  1

  9
$DIMALT
 70
     0
  9
$DIMALTD
 70
     2
  9
$DIMALTF
 40
25.4
  9
$DIMLFAC
 40
1.0
  9
$DIMTOFL
 70
     0
  9
$DIMTVP
 40
0.0
  9
$DIMTIX
 70
     0
  9
$DIMSOXD
 70
     0
  9
$DIMSAH
 70
     0
  9
$DIMBLK1
  1

  9
$DIMBLK2
  1

  9
$DIMSTYLE
  2
Standard
  9
$DIMCLRD
 70
     0
  9
$DIMCLRE
 70
     0
  9
$DIMCLRT
 70
     0
  9
$DIMTFAC
 40
1.0
  9
$DIMGAP
 40
0.09
  9
$DIMJUST
 70
     0
  9
$DIMSD1
 70
     0
  9
$DIMSD2
 70
     0
  9
$DIMTOLJ
 70
     1
  9
$DIMTZIN
 70
     0
  9
$DIMALTZ
 70
     0
  9
$DIMALTTZ
 70
     0
  9
$DIMUPT
 70
     0
  9
$DIMDEC
 70
     4
  9
$DIMTDEC
 70
     4
  9
$DIMALTU
 70
     2
  9
$DIMALTTD
 70
     2
  9
$DIMTXSTY
  7
Standard
  9
$DIMAUNIT
 70
     0
  9
$DIMADEC
 70
     0
  9
$DIMALTRND
 40
0.0
  9
$DIMAZIN
 70
     0
  9
$DIMDSEP
 70
    46
  9
$DIMATFIT
 70
     3
  9
$DIMFRAC
 70
     0
  9
$DIMLDRBLK
  1

  9
$DIMLUNIT
 70
     2
  9
$DIMLWD
 70
    -2
  9
$DIMLWE
 70
    -2
  9
$DIMTMOVE
 70
     0
  9
$DIMFXL
 40
1.0
  9
$DIMFXLON
 70
     0
  9
$DIMJOGANG
 40
0.7853981633974483
  9
$DIMTFILL
 70
     0
  9
$DIMTFILLCLR
 70
     0
  9
$DIMARCSYM
 70
     0
  9
$DIMLTYPE
  6

  9
$DIMLTEX1
  6

  9
$DIMLTEX2
  6

  9
$DIMTXTDIRECTION
 70
     0
  9
$LUNITS
 70
     2
  9
$LUPREC
 70
     4
  9
$SKETCHINC
 40
0.1
  9
$FILLETRAD
 40
0.5
  9
$AUNITS
 70
     0
  9
$AUPREC
 70
     0
  9
$MENU
  1
.
  9
$ELEVATION
 40
0.0
  9
$PELEVATION
 40
0.0
  9
$THICKNESS
 40
0.0
  9
$LIMCHECK
 70
     0
  9
$CHAMFERA
 40
0.5
  9
$CHAMFERB
 40
0.5
  9
$CHAMFERC
 40
1.0
  9
$CHAMFERD
 40
0.0
  9
$SKPOLY
 70
     0
  9
$TDCREATE
 40
2460107.746277488
  9
$TDUCREATE
 40
2460107.621277488
  9
$TDUPDATE
 40
2460107.7462775
  9
$TDUUPDATE
 40
2460107.6212775
  9
$TDINDWG
 40
0.0000000116
  9
$TDUSRTIMER
 40
0.0000000116
  9
$USRTIMER
 70
     1
  9
$ANGBASE
 50
0.0
  9
$ANGDIR
 70
     0
  9
$PDMODE
 70
     0
  9
$PDSIZE
 40
0.0
  9
$PLINEWID
 40
0.0
  9
$SPLFRAME
 70
     0
  9
$SPLINETYPE
 70
     6
  9
$SPLINESEGS
 70
     8
  9
$HANDSEED
  5
74
  9
$SURFTAB1
 70
     6
  9
$SURFTAB2
 70
     6
  9
$SURFTYPE
 70
     6
  9
$SURFU
 70
     6
  9
$SURFV
 70
     6
  9
$UCSBASE
  2

  9
$UCSNAME
  2

  9
$UCSORG
 10
0.0
 20
0.0
 30
0.0
  9
$UCSXDIR
 10
1.0
 20
0.0
 30
0.0
  9
$UCSYDIR
 10
0.0
 20
1.0
 30
0.0
  9
$UCSORTHOREF
  2

  9
$UCSORTHOVIEW
 70
     0
  9
$UCSORGTOP
 10
0.0
 20
0.0
 30
0.0
  9
$UCSORGBOTTOM
 10
0.0
 20
0.0
 30
0.0
  9
$UCSORGLEFT
 10
0.0
 20
0.0
 30
0.0
  9
$UCSORGRIGHT
 10
0.0
 20
0.0
 30
0.0
  9
$UCSORGFRONT
 10
0.0
 20
0.0
 30
0.0
  9
$UCSORGBACK
 10
0.0
 20
0.0
 30
0.0
  9
$PUCSBASE
  2

  9
$PUCSNAME
  2

  9
$PUCSORG
 10
0.0
 20
0.0
 30
0.0
  9
$PUCSXDIR
 10
1.0
 20
0.0
 30
0.0
  9
$PUCSYDIR
 10
0.0
 20
1.0
 30
0.0
  9
$PUCSORTHOREF
  2

  9
$PUCSORTHOVIEW
 70
     0
  9
$PUCSORGTOP
 10
0.0
 20
0.0
 30
0.0
  9
$PUCSORGBOTTOM
 10
0.0
 20
0.0
 30
0.0
  9
$PUCSORGLEFT
 10
0.0
 20
0.0
 30
0.0
  9
$PUCSORGRIGHT
 10
0.0
 20
0.0
 30
0.0
  9
$PUCSORGFRONT
 10
0.0
 20
0.0
 30
0.0
  9
$PUCSORGBACK
 10
0.0
 20
0.0
 30
0.0
  9
$USERI1
 70
     0
  9
$USERI2
 70
     0
  9
$USERI3
 70
     0
  9
$USERI4
 70
     0
  9
$USERI5
 70
     0
  9
$USERR1
 40
0.0
  9
$USERR2
 40
0.0
  9
$USERR3
 40
0.0
  9
$USERR4
 40
0.0
  9
$USERR5
 40
0.0
  9
$WORLDVIEW
 70
     1
  9
$SHADEDGE
 70
     3
  9
$SHADEDIF
 70
    70
  9
$TILEMODE
 70
     1
  9
$MAXACTVP
 70
    64
  9
$PINSBASE
 10
0.0
 20
0.0
 30
0.0
  9
$PLIMCHECK
 70
     0
  9
$PEXTMIN
 10
1.000000000000000E+20
 20
1.000000000000000E+20
 30
1.000000000000000E+20
  9
$PEXTMAX
 10
-1.000000000000000E+20
 20
-1.000000000000000E+20
 30
-1.000000000000000E+20
  9
$PLIMMIN
 10
0.0
 20
0.0
  9
$PLIMMAX
 10
12.0
 20
9.0
  9
$UNITMODE
 70
     0
  9
$VISRETAIN
 70
     1
  9
$PLINEGEN
 70
     0
  9
$PSLTSCALE
 70
     1
  9
$TREEDEPTH
 70
  3020
  9
$CMLSTYLE
  2
Standard
  9
$CMLJUST
 70
     0
  9
$CMLSCALE
 40
1.0
  9
$PROXYGRAPHICS
 70
     1
  9
$MEASUREMENT
 70
     0
  9
$CELWEIGHT
370
    -1
  9
$ENDCAPS
280
     0
  9
$JOINSTYLE
280
     0
  9
$LWDISPLAY
290
     1
  9
$INSUNITS
 70
     1
  9
$HYPERLINKBASE
  1

  9
$STYLESHEET
  1

  9
$XEDIT
290
     1
  9
$CEPSNTYPE
380
     0
  9
$PSTYLEMODE
290
     1
  9
$FINGERPRINTGUID
  2
{734998A0-CFF8-4D30-A11D-F7E728F6B95E}
  9
$VERSIONGUID
  2
{FAEB1C32-E019-11D5-929B-00C0DF256EC4}
  9
$EXTNAMES
290
     1
  9
$PSVPSCALE
 40
0.0
  9
$OLESTARTUP
290
     0
  9
$SORTENTS
280
   127
  9
$INDEXCTL
280
     0
  9
$HIDETEXT
280
     1
  9
$XCLIPFRAME
280
     2
  9
$HALOGAP
280
     0
  9
$OBSCOLOR
 70
   257
  9
$OBSLTYPE
280
     0
  9
$INTERSECTIONDISPLAY
280
     0
  9
$INTERSECTIONCOLOR
 70
   257
  9
$DIMASSOC
280
     2
  9
$PROJECTNAME
  1

  9
$CAMERADISPLAY
290
     0
  9
$LENSLENGTH
 40
50.0
  9
$CAMERAHEIGHT
 40
0.0
  9
$STEPSPERSEC
 40
2.0
  9
$STEPSIZE
 40
6.0
  9
$3DDWFPREC
 40
2.0
  9
$PSOLWIDTH
 40
0.25
  9
$PSOLHEIGHT
 40
4.0
  9
$LOFTANG1
 40
1.570796326794897
  9
$LOFTANG2
 40
1.570796326794897
  9
$LOFTMAG1
 40
0.0
  9
$LOFTMAG2
 40
0.0
  9
$LOFTPARAM
 70
     7
  9
$LOFTNORMALS
280
     1
  9
$LATITUDE
 40
37.795
  9
$LONGITUDE
 40
-122.394
  9
$NORTHDIRECTION
 40
0.0
  9
$TIMEZONE
 70
 -8000
  9
$LIGHTGLYPHDISPLAY
280
     1
  9
$TILEMODELIGHTSYNCH
280
     1
  9
$CMATERIAL
347
3C
  9
$SOLIDHIST
280
     1
  9
$SHOWHIST
280
     1
  9
$DWFFRAME
280
     2
  9
$DGNFRAME
280
     2
  9
$REALWORLDSCALE
290
     1
  9
$INTERFERECOLOR
 62
   256
  9
$CSHADOW
280
     0
  9
$SHADOWPLANELOCATION
 40
0.0
  0
ENDSEC
  0
SECTION
  2
CLASSES
  0
CLASS
  1
ACDBDICTIONARYWDFLT
  2
AcDbDictionaryWithDefault
  3
ObjectDBX Classes
 90
        0
 91
        4
280
     0
281
     0
  0
CLASS
  1
VISUALSTYLE
  2
AcDbVisualStyle
  3
ObjectDBX Classes
 90
     4095
 91
        4
280
     0
281
     0
  0
CLASS
  1
MATERIAL
  2
AcDbMaterial
  3
ObjectDBX Classes
 90
     1153
 91
        4
280
     0
281
     0
  0
CLASS
  1
SUN
  2
AcDbSun
  3
SCENEOE
 90
     1024
 91
        4
280
     0
281
     0
  0
ENDSEC
  0
SECTION
  2
TABLES
  0
TABLE
  2
VPORT
  5
8
330
0
100
AcDbSymbolTable
 70
     1
  0
VPORT
  5
29
330
8
100
AcDbSymbolTableRecord
100
AcDbViewportTableRecord
  2
*Active
 70
     0
 10
0.0
 20
0.0
 11
1.0
 21
1.0
 12
0.0
 22
0.0
 13
0.0
 23
0.0
 14
0.5
 24
0.5
 15
0.5
 25
0.5
 16
0.0
 26
0.0
 36
1.0
 17
654.7555553918667
 27
-76.19999998095
 37
0.0
 40
152.3999999619
 41
2.833333333333333
 42
50.0
 43
0.0
 44
0.0
 50
0.0
 51
0.0
 71
     0
 72
   100
 73
     1
 74
     3
 75
     0
 76
     0
 77
     0
 78
     0
281
     0
 65
     1
110
0.0
120
0.0
130
0.0
111
1.0
121
0.0
131
0.0
112
0.0
122
1.0
132
0.0
 79
     0
146
0.0
 60
     3
 61
     5
292
     1
282
     1
141
0.0
142
0.0
 63
   250
361
3F
  0
ENDTAB
  0
TABLE
  2
LTYPE
  5
5
330
0
100
AcDbSymbolTable
 70
     1
  0
LTYPE
  5
14
330
5
100
AcDbSymbolTableRecord
100
AcDbLinetypeTableRecord
  2
ByBlock
 70
     0
  3

 72
    65
 73
     0
 40
0.0
  0
LTYPE
  5
15
330
5
100
AcDbSymbolTableRecord
100
AcDbLinetypeTableRecord
  2
ByLayer
 70
     0
  3

 72
    65
 73
     0
 40
0.0
  0
LTYPE
  5
16
330
5
100
AcDbSymbolTableRecord
100
AcDbLinetypeTableRecord
  2
Continuous
 70
     0
  3
Solid line
 72
    65
 73
     0
 40
0.0
  0
ENDTAB
  0
TABLE
  2
LAYER
  5
2
330
0
100
AcDbSymbolTable
 70
     2
  0
LAYER
  5
10
330
2
100
AcDbSymbolTableRecord
100
AcDbLayerTableRecord
  2
0
 70
     0
 62
     7
  6
Continuous
370
    -3
390
F
347
3E
  0
LAYER
  5
40
330
2
100
AcDbSymbolTableRecord
100
AcDbLayerTableRecord
  2
_U+0421_U+043B_U+043E_U+0439 1
 70
     0
 62
     7
  6
Continuous
370
    -3
390
F
347
3E
  0
ENDTAB
  0
TABLE
  2
STYLE
  5
3
330
0
100
AcDbSymbolTable
 70
     1
  0
STYLE
  5
11
330
3
100
AcDbSymbolTableRecord
100
AcDbTextStyleTableRecord
  2
Standard
 70
     0
 40
0.0
 41
1.0
 50
0.0
 71
     0
 42
0.2
  3
txt
  4

  0
ENDTAB
  0
TABLE
  2
VIEW
  5
6
330
0
100
AcDbSymbolTable
 70
     0
  0
ENDTAB
  0
TABLE
  2
UCS
  5
7
330
0
100
AcDbSymbolTable
 70
     0
  0
ENDTAB
  0
TABLE
  2
APPID
  5
9
330
0
100
AcDbSymbolTable
 70
     1
  0
APPID
  5
12
330
9
100
AcDbSymbolTableRecord
100
AcDbRegAppTableRecord
  2
ACAD
 70
     0
  0
ENDTAB
  0
TABLE
  2
DIMSTYLE
  5
A
330
0
100
AcDbSymbolTable
 70
     1
100
AcDbDimStyleTable
  0
DIMSTYLE
105
27
330
A
100
AcDbSymbolTableRecord
100
AcDbDimStyleTableRecord
  2
Standard
 70
     0
178
     0
340
11
  0
ENDTAB
  0
TABLE
  2
BLOCK_RECORD
  5
1
330
0
100
AcDbSymbolTable
 70
     2
  0
BLOCK_RECORD
  5
1F
330
1
100
AcDbSymbolTableRecord
100
AcDbBlockTableRecord
  2
*Model_Space
340
22
 70
     0
280
     1
281
     0
  0
BLOCK_RECORD
  5
1B
330
1
100
AcDbSymbolTableRecord
100
AcDbBlockTableRecord
  2
*Paper_Space
340
1E
 70
     0
280
     1
281
     0
  0
BLOCK_RECORD
  5
23
330
1
100
AcDbSymbolTableRecord
100
AcDbBlockTableRecord
  2
*Paper_Space0
340
26
 70
     0
280
     1
281
     0
  0
BLOCK_RECORD
  5
51
330
1
100
AcDbSymbolTableRecord
100
AcDbBlockTableRecord
  2
block 2
340
0
102
{BLKREFS
331
52
102
}
 70
     0
280
     1
281
     0
  0
ENDTAB
  0
ENDSEC
  0
SECTION
  2
BLOCKS
  0
BLOCK
  5
20
330
1F
100
AcDbEntity
  8
0
100
AcDbBlockBegin
  2
*Model_Space
 70
     0
 10
0.0
 20
0.0
 30
0.0
  3
*Model_Space
  1

  0
ENDBLK
  5
21
330
1F
100
AcDbEntity
  8
0
100
AcDbBlockEnd
  0
BLOCK
  5
1C
330
1B
100
AcDbEntity
 67
     1
  8
0
100
AcDbBlockBegin
  2
*Paper_Space
 70
     0
 10
0.0
 20
0.0
 30
0.0
  3
*Paper_Space
  1

  0
ENDBLK
  5
1D
330
1B
100
AcDbEntity
 67
     1
  8
0
100
AcDbBlockEnd
  0
BLOCK
  5
24
330
23
100
AcDbEntity
  8
0
100
AcDbBlockBegin
  2
*Paper_Space0
 70
     0
 10
0.0
 20
0.0
 30
0.0
  3
*Paper_Space0
  1

  0
ENDBLK
  5
25
330
23
100
AcDbEntity
  8
0
100
AcDbBlockEnd
  0
BLOCK
  5
53
330
51
100
AcDbEntity
  8
0
100
AcDbBlockBegin
  2
block 2
 70
     0
 10
0.0
 20
0.0
 30
0.0
  3
block 2
  1

  0
POLYLINE
  5
55
330
51
100
AcDbEntity
  8
_U+0421_U+043B_U+043E_U+0439 1
 62
     1
420
 16716288
370
     5
100
AcDb2dPolyline
 66
     1
 10
0.0
 20
0.0
 30
0.0
  0
VERTEX
  5
56
330
55
100
AcDbEntity
  8
_U+0421_U+043B_U+043E_U+0439 1
 62
     1
420
 16716288
370
     5
100
AcDbVertex
100
AcDb2dVertex
 10
488.967638766647
 20
-2.158999999460212
 30
0.0
  0
VERTEX
  5
57
330
55
100
AcDbEntity
  8
_U+0421_U+043B_U+043E_U+0439 1
 62
     1
420
 16716288
370
     5
100
AcDbVertex
100
AcDb2dVertex
 10
438.8555554458417
 20
-136.8777777435583
 30
0.0
  0
VERTEX
  5
58
330
55
100
AcDbEntity
  8
_U+0421_U+043B_U+043E_U+0439 1
 62
     1
420
 16716288
370
     5
100
AcDbVertex
100
AcDb2dVertex
 10
479.0193054358009
 20
-136.8777777435583
 30
0.0
  0
VERTEX
  5
59
330
55
100
AcDbEntity
  8
_U+0421_U+043B_U+043E_U+0439 1
 62
     1
420
 16716288
370
     5
100
AcDbVertex
100
AcDb2dVertex
 10
479.0193054358009
 20
-152.3999999619
 30
0.0
  0
VERTEX
  5
5A
330
55
100
AcDbEntity
  8
_U+0421_U+043B_U+043E_U+0439 1
 62
     1
420
 16716288
370
     5
100
AcDbVertex
100
AcDb2dVertex
 10
499.0218054308002
 20
-152.3999999619
 30
0.0
  0
VERTEX
  5
5B
330
55
100
AcDbEntity
  8
_U+0421_U+043B_U+043E_U+0439 1
 62
     1
420
 16716288
370
     5
100
AcDbVertex
100
AcDb2dVertex
 10
499.0218054308002
 20
-136.8777777435583
 30
0.0
  0
VERTEX
  5
5C
330
55
100
AcDbEntity
  8
_U+0421_U+043B_U+043E_U+0439 1
 62
     1
420
 16716288
370
     5
100
AcDbVertex
100
AcDb2dVertex
 10
539.0832498652294
 20
-136.8777777435583
 30
0.0
  0
VERTEX
  5
5D
330
55
100
AcDbEntity
  8
_U+0421_U+043B_U+043E_U+0439 1
 62
     1
420
 16716288
370
     5
100
AcDbVertex
100
AcDb2dVertex
 10
488.967638766647
 20
-2.158999999460212
 30
0.0
  0
SEQEND
  5
5E
330
55
100
AcDbEntity
  8
_U+0421_U+043B_U+043E_U+0439 1
 62
     1
420
 16716288
370
     5
  0
SPLINE
  5
5F
330
51
100
AcDbEntity
  8
_U+0421_U+043B_U+043E_U+0439 1
 62
     1
420
 16716288
370
     5
100
AcDbSpline
210
0.0
220
0.0
230
1.0
 70
    11
 71
     3
 72
    20
 73
    16
 74
     0
 42
0.0000000001
 43
0.0000000001
 12
1.0
 22
0.0
 32
0.0
 13
1.0
 23
0.0
 33
0.0
 40
0.0
 40
0.0
 40
0.0
 40
0.0
 40
1.0
 40
1.0
 40
1.0
 40
2.0
 40
2.0
 40
2.0
 40
3.0
 40
3.0
 40
3.0
 40
4.0
 40
4.0
 40
4.0
 40
5.0
 40
5.0
 40
5.0
 40
5.0
 10
507.6436943175335
 20
-132.2916666335938
 30
0.0
 10
507.6436943175335
 20
-132.2916666335938
 30
0.0
 10
505.1918887625909
 20
-132.2916666335938
 30
0.0
 10
505.1918887625909
 20
-132.2916666335938
 30
0.0
 10
505.5199720958423
 20
-131.9212499670199
 30
0.0
 10
505.6011109847108
 20
-131.4696944115771
 30
0.0
 10
505.8798054290855
 20
-131.1133888561105
 30
0.0
 10
505.8833332068625
 20
-131.1098610783335
 30
0.0
 10
505.8833332068625
 20
-131.1063333005565
 30
0.0
 10
505.8868609846395
 20
-131.1028055227796
 30
0.0
 10
506.3207776511975
 20
-130.1855833007872
 30
0.0
 10
506.8358332066243
 20
-129.3565555232165
 30
0.0
 10
509.4111109837584
 20
-129.3565555232165
 30
0.0
 10
508.412714595119
 20
-129.9880277452805
 30
0.0
 10
507.6895554286331
 20
-131.2580277449632
 30
0.0
 10
507.6436943175335
 20
-132.2916666335938
 30
0.0
  0
SPLINE
  5
60
330
51
100
AcDbEntity
  8
_U+0421_U+043B_U+043E_U+0439 1
 62
     1
420
 16716288
370
     5
100
AcDbSpline
210
0.0
220
0.0
230
1.0
 70
    11
 71
     3
 72
   392
 73
   388
 74
     0
 42
0.0000000001
 43
0.0000000001
 12
1.0
 22
0.0
 32
0.0
 13
1.0
 23
0.0
 33
0.0
 40
0.0
 40
0.0
 40
0.0
 40
0.0
 40
1.0
 40
1.0
 40
1.0
 40
2.0
 40
2.0
 40
2.0
 40
3.0
 40
3.0
 40
3.0
 40
4.0
 40
4.0
 40
4.0
 40
5.0
 40
5.0
 40
5.0
 40
6.0
 40
6.0
 40
6.0
 40
7.0
 40
7.0
 40
7.0
 40
8.0
 40
8.0
 40
8.0
 40
9.0
 40
9.0
 40
9.0
 40
10.0
 40
10.0
 40
10.0
 40
11.0
 40
11.0
 40
11.0
 40
12.0
 40
12.0
 40
12.0
 40
13.0
 40
13.0
 40
13.0
 40
14.0
 40
14.0
 40
14.0
 40
15.0
 40
15.0
 40
15.0
 40
16.0
 40
16.0
 40
16.0
 40
17.0
 40
17.0
 40
17.0
 40
18.0
 40
18.0
 40
18.0
 40
19.0
 40
19.0
 40
19.0
 40
20.0
 40
20.0
 40
20.0
 40
21.0
 40
21.0
 40
21.0
 40
22.0
 40
22.0
 40
22.0
 40
23.0
 40
23.0
 40
23.0
 40
24.0
 40
24.0
 40
24.0
 40
25.0
 40
25.0
 40
25.0
 40
26.0
 40
26.0
 40
26.0
 40
27.0
 40
27.0
 40
27.0
 40
28.0
 40
28.0
 40
28.0
 40
29.0
 40
29.0
 40
29.0
 40
30.0
 40
30.0
 40
30.0
 40
31.0
 40
31.0
 40
31.0
 40
32.0
 40
32.0
 40
32.0
 40
33.0
 40
33.0
 40
33.0
 40
34.0
 40
34.0
 40
34.0
 40
35.0
 40
35.0
 40
35.0
 40
36.0
 40
36.0
 40
36.0
 40
37.0
 40
37.0
 40
37.0
 40
38.0
 40
38.0
 40
38.0
 40
39.0
 40
39.0
 40
39.0
 40
40.0
 40
40.0
 40
40.0
 40
41.0
 40
41.0
 40
41.0
 40
42.0
 40
42.0
 40
42.0
 40
43.0
 40
43.0
 40
43.0
 40
44.0
 40
44.0
 40
44.0
 40
45.0
 40
45.0
 40
45.0
 40
46.0
 40
46.0
 40
46.0
 40
47.0
 40
47.0
 40
47.0
 40
48.0
 40
48.0
 40
48.0
 40
49.0
 40
49.0
 40
49.0
 40
50.0
 40
50.0
 40
50.0
 40
51.0
 40
51.0
 40
51.0
 40
52.0
 40
52.0
 40
52.0
 40
53.0
 40
53.0
 40
53.0
 40
54.0
 40
54.0
 40
54.0
 40
55.0
 40
55.0
 40
55.0
 40
56.0
 40
56.0
 40
56.0
 40
57.0
 40
57.0
 40
57.0
 40
58.0
 40
58.0
 40
58.0
 40
59.0
 40
59.0
 40
59.0
 40
60.0
 40
60.0
 40
60.0
 40
61.0
 40
61.0
 40
61.0
 40
62.0
 40
62.0
 40
62.0
 40
63.0
 40
63.0
 40
63.0
 40
64.0
 40
64.0
 40
64.0
 40
65.0
 40
65.0
 40
65.0
 40
66.0
 40
66.0
 40
66.0
 40
67.0
 40
67.0
 40
67.0
 40
68.0
 40
68.0
 40
68.0
 40
69.0
 40
69.0
 40
69.0
 40
70.0
 40
70.0
 40
70.0
 40
71.0
 40
71.0
 40
71.0
 40
72.0
 40
72.0
 40
72.0
 40
73.0
 40
73.0
 40
73.0
 40
74.0
 40
74.0
 40
74.0
 40
75.0
 40
75.0
 40
75.0
 40
76.0
 40
76.0
 40
76.0
 40
77.0
 40
77.0
 40
77.0
 40
78.0
 40
78.0
 40
78.0
 40
79.0
 40
79.0
 40
79.0
 40
80.0
 40
80.0
 40
80.0
 40
81.0
 40
81.0
 40
81.0
 40
82.0
 40
82.0
 40
82.0
 40
83.0
 40
83.0
 40
83.0
 40
84.0
 40
84.0
 40
84.0
 40
85.0
 40
85.0
 40
85.0
 40
86.0
 40
86.0
 40
86.0
 40
87.0
 40
87.0
 40
87.0
 40
88.0
 40
88.0
 40
88.0
 40
89.0
 40
89.0
 40
89.0
 40
90.0
 40
90.0
 40
90.0
 40
91.0
 40
91.0
 40
91.0
 40
92.0
 40
92.0
 40
92.0
 40
93.0
 40
93.0
 40
93.0
 40
94.0
 40
94.0
 40
94.0
 40
95.0
 40
95.0
 40
95.0
 40
96.0
 40
96.0
 40
96.0
 40
97.0
 40
97.0
 40
97.0
 40
98.0
 40
98.0
 40
98.0
 40
99.0
 40
99.0
 40
99.0
 40
100.0
 40
100.0
 40
100.0
 40
101.0
 40
101.0
 40
101.0
 40
102.0
 40
102.0
 40
102.0
 40
103.0
 40
103.0
 40
103.0
 40
104.0
 40
104.0
 40
104.0
 40
105.0
 40
105.0
 40
105.0
 40
106.0
 40
106.0
 40
106.0
 40
107.0
 40
107.0
 40
107.0
 40
108.0
 40
108.0
 40
108.0
 40
109.0
 40
109.0
 40
109.0
 40
110.0
 40
110.0
 40
110.0
 40
111.0
 40
111.0
 40
111.0
 40
112.0
 40
112.0
 40
112.0
 40
113.0
 40
113.0
 40
113.0
 40
114.0
 40
114.0
 40
114.0
 40
115.0
 40
115.0
 40
115.0
 40
116.0
 40
116.0
 40
116.0
 40
117.0
 40
117.0
 40
117.0
 40
118.0
 40
118.0
 40
118.0
 40
119.0
 40
119.0
 40
119.0
 40
120.0
 40
120.0
 40
120.0
 40
121.0
 40
121.0
 40
121.0
 40
122.0
 40
122.0
 40
122.0
 40
123.0
 40
123.0
 40
123.0
 40
124.0
 40
124.0
 40
124.0
 40
125.0
 40
125.0
 40
125.0
 40
126.0
 40
126.0
 40
126.0
 40
127.0
 40
127.0
 40
127.0
 40
128.0
 40
128.0
 40
128.0
 40
129.0
 40
129.0
 40
129.0
 40
129.0
 10
525.2825832020127
 20
-123.8779166356971
 30
0.0
 10
525.2120276464748
 20
-123.010083302581
 30
0.0
 10
523.5186943135648
 20
-123.4933888580154
 30
0.0
 10
522.7602573693101
 20
-123.7332777468444
 30
0.0
 10
522.015860980607
 20
-119.6798610811911
 30
0.0
 10
519.9027220922464
 20
-116.0815277487571
 30
0.0
 10
516.1632776487371
 20
-114.2823610825408
 30
0.0
 10
513.1893609828138
 20
-112.8465555273436
 30
0.0
 10
508.4903609839886
 20
-112.7160277495989
 30
0.0
 10
505.0754720959534
 20
-114.2788333047638
 30
0.0
 10
503.6502145963096
 20
-111.0650277500115
 30
0.0
 10
508.3315757062506
 20
-109.0259721949655
 30
0.0
 10
508.3315757062506
 20
-104.2952221961482
 30
0.0
 10
508.3315757062506
 20
-103.3215555297249
 30
0.0
 10
508.3810351506826
 20
-101.1872499747032
 30
0.0
 10
506.0703054290379
 20
-101.6529166412533
 30
0.0
 10
505.0543054292919
 20
-101.839888863429
 30
0.0
 10
504.214694318391
 20
-102.8206110854057
 30
0.0
 10
503.6114795963196
 20
-103.6990277518533
 30
0.0
 10
503.332749874167
 20
-102.2632221966561
 30
0.0
 10
502.4966665410424
 20
-101.6776110856915
 30
0.0
 10
501.8334443189863
 20
-101.6776110856915
 30
0.0
 10
500.9832498747544
 20
-101.7023055301303
 30
0.0
 10
500.418805430451
 20
-102.7041944187681
 30
0.0
 10
500.111888763861
 20
-103.2439444186334
 30
0.0
 10
499.2440201529668
 20
-104.7679444182523
 30
0.0
 10
499.4592498751352
 20
-106.9798610843661
 30
0.0
 10
498.584396264243
 20
-110.4088610835087
 30
0.0
 10
497.8964443199706
 20
-110.3947499724014
 30
0.0
 10
497.2084923756981
 20
-110.5146944168159
 30
0.0
 10
496.5911312647413
 20
-110.7193055278759
 30
0.0
 10
494.5415276541426
 20
-111.3966388610399
 30
0.0
 10
492.9575554323164
 20
-112.4584999718856
 30
0.0
 10
491.4547220993587
 20
-116.6001110819612
 30
0.0
 10
490.2023609885606
 20
-117.8066110816596
 30
0.0
 10
490.9361387661549
 20
-119.7045555256293
 30
0.0
 10
492.0191665436618
 20
-119.8844721922511
 30
0.0
 10
492.7070832101564
 20
-121.6871666362451
 30
0.0
 10
494.4779923763805
 20
-121.0944999697265
 30
0.0
 10
495.9103054315779
 20
-120.9428055253198
 30
0.0
 10
495.1130276539996
 20
-123.1123888581106
 30
0.0
 10
496.2313332092756
 20
-125.6629721908062
 30
0.0
 10
498.0658129310393
 20
-127.3245555237244
 30
0.0
 10
498.9018609863857
 20
-128.0830277457569
 30
0.0
 10
499.7449998750639
 20
-128.9755555233118
 30
0.0
 10
500.7397979303706
 20
-129.5505833009455
 30
0.0
 10
500.5775554304112
 20
-129.8504444119818
 30
0.0
 10
500.4364795971134
 20
-130.1785277452332
 30
0.0
 10
500.3235554304746
 20
-130.5806944117992
 30
0.0
 10
498.3550201531892
 20
-130.1714721896793
 30
0.0
 10
497.7977018199951
 20
-131.0040277450269
 30
0.0
 10
497.7059795977957
 20
-132.2916666335938
 30
0.0
 10
497.7059795977957
 20
-132.2916666335938
 30
0.0
 10
445.4560276664138
 20
-132.2916666335938
 30
0.0
 10
445.4560276664138
 20
-132.2916666335938
 30
0.0
 10
445.4560276664138
 20
-132.2916666335938
 30
0.0
 10
458.3465276631912
 20
-97.63477775336916
 30
0.0
 10
458.3465276631912
 20
-97.63477775336916
 30
0.0
 10
458.3465276631912
 20
-97.63477775336916
 30
0.0
 10
461.3557221068832
 20
-98.73897219753728
 30
0.0
 10
461.3557221068832
 20
-98.73897219753728
 30
0.0
 10
461.3557221068832
 20
-98.73897219753728
 30
0.0
 10
460.0328054405473
 20
-99.34927775294075
 30
0.0
 10
460.0328054405473
 20
-99.34927775294075
 30
0.0
 10
459.4154443295905
 20
-99.6385555306461
 30
0.0
 10
459.1438054407697
 20
-100.3723333082404
 30
0.0
 10
459.4331184962529
 20
-100.9896944191972
 30
0.0
 10
459.6411868295341
 20
-101.4412499746394
 30
0.0
 10
460.0856868294231
 20
-101.7058333079066
 30
0.0
 10
460.5513887737511
 20
-101.7058333079066
 30
0.0
 10
460.7277776625958
 20
-101.7058333079066
 30
0.0
 10
460.9041665514407
 20
-101.6705555301382
 30
0.0
 10
461.0699721069548
 20
-101.5929444190461
 30
0.0
 10
461.0699721069548
 20
-101.5929444190461
 30
0.0
 10
462.3928887732908
 20
-100.9791110858663
 30
0.0
 10
462.3928887732908
 20
-100.9791110858663
 30
0.0
 10
462.3928887732908
 20
-100.9791110858663
 30
0.0
 10
460.9464998847633
 20
-104.916111084882
 30
0.0
 10
460.9464998847633
 20
-104.916111084882
 30
0.0
 10
460.7136665514883
 20
-105.5546388624999
 30
0.0
 10
461.0417498847397
 20
-106.2637221956561
 30
0.0
 10
461.6802776623576
 20
-106.5000833067081
 30
0.0
 10
461.8213887734337
 20
-106.5529999733621
 30
0.0
 10
461.9660276622864
 20
-106.5741666400233
 30
0.0
 10
462.1071034955846
 20
-106.5741666400233
 30
0.0
 10
462.6116462732361
 20
-106.5741666400233
 30
0.0
 10
463.0807701620076
 20
-106.267249973433
 30
0.0
 10
463.2677776619608
 20
-105.7663055291138
 30
0.0
 10
463.2677776619608
 20
-105.7663055291138
 30
0.0
 10
464.7106387727113
 20
-101.8293055300981
 30
0.0
 10
464.7106387727113
 20
-101.8293055300981
 30
0.0
 10
464.7106387727113
 20
-101.8293055300981
 30
0.0
 10
465.3244721058911
 20
-103.152222196434
 30
0.0
 10
465.3244721058911
 20
-103.152222196434
 30
0.0
 10
465.5326109947279
 20
-103.6037777518769
 30
0.0
 10
465.9771109946169
 20
-103.8683610851441
 30
0.0
 10
466.446305438944
 20
-103.8683610851441
 30
0.0
 10
466.6191665500118
 20
-103.8683610851441
 30
0.0
 10
466.7955554388566
 20
-103.833083307375
 30
0.0
 10
466.961325716593
 20
-103.7554721962836
 30
0.0
 10
467.5822146053267
 20
-103.4697221963545
 30
0.0
 10
467.8503257163709
 20
-102.7359444187602
 30
0.0
 10
467.56461099422
 20
-102.1150555300265
 30
0.0
 10
467.56461099422
 20
-102.1150555300265
 30
0.0
 10
466.9507776610402
 20
-100.7921388636906
 30
0.0
 10
466.9507776610402
 20
-100.7921388636906
 30
0.0
 10
466.9507776610402
 20
-100.7921388636906
 30
0.0
 10
470.8877776600559
 20
-102.238527752218
 30
0.0
 10
470.8877776600559
 20
-102.238527752218
 30
0.0
 10
471.0288887711316
 20
-102.2914444188713
 30
0.0
 10
471.1699998822077
 20
-102.3161388633101
 30
0.0
 10
471.3146387710603
 20
-102.3161388633101
 30
0.0
 10
471.8155479376017
 20
-102.3161388633101
 30
0.0
 10
472.2883054374836
 20
-102.0056944189429
 30
0.0
 10
472.4717498818821
 20
-101.5047499746237
 30
0.0
 10
472.7081109929341
 20
-100.8662221970057
 30
0.0
 10
472.3800276596827
 20
-100.1571388638496
 30
0.0
 10
471.7379721042878
 20
-99.9207777527975
 30
0.0
 10
471.7379721042878
 20
-99.9207777527975
 30
0.0
 10
467.8045351608269
 20
-98.4743888642701
 30
0.0
 10
467.8045351608269
 20
-98.4743888642701
 30
0.0
 10
467.8045351608269
 20
-98.4743888642701
 30
0.0
 10
469.1274518271628
 20
-97.86408330886727
 30
0.0
 10
469.1274518271628
 20
-97.86408330886727
 30
0.0
 10
469.7448129381196
 20
-97.57833330893888
 30
0.0
 10
470.0129240491634
 20
-96.84455553134457
 30
0.0
 10
469.7271387714572
 20
-96.22366664261084
 30
0.0
 10
469.4413887715285
 20
-95.60630553165406
 30
0.0
 10
468.7076109939342
 20
-95.33466664283293
 30
0.0
 10
468.0902498829774
 20
-95.62394442053828
 30
0.0
 10
468.0902498829774
 20
-95.62394442053828
 30
0.0
 10
466.7673332166415
 20
-96.23424997594175
 30
0.0
 10
466.7673332166415
 20
-96.23424997594175
 30
0.0
 10
466.7673332166415
 20
-96.23424997594175
 30
0.0
 10
468.2101943273919
 20
-92.30077775470238
 30
0.0
 10
468.2101943273919
 20
-92.30077775470238
 30
0.0
 10
468.446555438444
 20
-91.65872219930745
 30
0.0
 10
468.1184721051926
 20
-90.9496388661513
 30
0.0
 10
467.4764165497976
 20
-90.71327775509926
 30
0.0
 10
466.8379240499572
 20
-90.48044442182419
 30
0.0
 10
466.1288407168013
 20
-90.8085277550756
 30
0.0
 10
465.8924443279715
 20
-91.44705553269357
 30
0.0
 10
465.8924443279715
 20
-91.44705553269357
 30
0.0
 10
464.449583217221
 20
-95.38405553170927
 30
0.0
 10
464.449583217221
 20
-95.38405553170927
 30
0.0
 10
464.449583217221
 20
-95.38405553170927
 30
0.0
 10
463.835785161819
 20
-94.06113886537332
 30
0.0
 10
463.835785161819
 20
-94.06113886537332
 30
0.0
 10
463.5499998841125
 20
-93.44377775441656
 30
0.0
 10
462.8161868287404
 20
-93.17213886559607
 30
0.0
 10
462.1952979400069
 20
-93.45788886552445
 30
0.0
 10
461.5779368290502
 20
-93.74363886545282
 30
0.0
 10
461.3098609957835
 20
-94.47741664304714
 30
0.0
 10
461.5956109957123
 20
-95.09830553178088
 30
0.0
 10
461.5956109957123
 20
-95.09830553178088
 30
0.0
 10
462.2058812733375
 20
-96.42122219811682
 30
0.0
 10
462.2058812733375
 20
-96.42122219811682
 30
0.0
 10
462.2058812733375
 20
-96.42122219811682
 30
0.0
 10
459.2072701629761
 20
-95.32055553172567
 30
0.0
 10
459.2072701629761
 20
-95.32055553172567
 30
0.0
 10
459.2072701629761
 20
-95.32055553172567
 30
0.0
 10
477.3577221028829
 20
-46.53138887725591
 30
0.0
 10
477.3577221028829
 20
-46.53138887725591
 30
0.0
 10
477.3577221028829
 20
-46.53138887725591
 30
0.0
 10
481.005444324193
 20
-47.64616665475527
 30
0.0
 10
481.005444324193
 20
-47.64616665475527
 30
0.0
 10
481.005444324193
 20
-47.64616665475527
 30
0.0
 10
479.7178407134039
 20
-48.33055554347292
 30
0.0
 10
479.7178407134039
 20
-48.33055554347292
 30
0.0
 10
479.1180832135539
 20
-48.65158332117038
 30
0.0
 10
478.8887776580555
 20
-49.39947220987226
 30
0.0
 10
479.2098054357533
 20
-49.9991944319445
 30
0.0
 10
479.4320554356977
 20
-50.41899998739528
 30
0.0
 10
479.8589165467018
 20
-50.65536109844732
 30
0.0
 10
480.2998887688138
 20
-50.65536109844732
 30
0.0
 10
480.4939165465431
 20
-50.65536109844732
 30
0.0
 10
480.6949998798264
 20
-50.60949998734764
 30
0.0
 10
480.8784443242248
 20
-50.51072220959465
 30
0.0
 10
480.8784443242248
 20
-50.51072220959465
 30
0.0
 10
482.166083212792
 20
-49.82633332087668
 30
0.0
 10
482.166083212792
 20
-49.82633332087668
 30
0.0
 10
482.166083212792
 20
-49.82633332087668
 30
0.0
 10
480.9384165464321
 20
-53.83388887543055
 30
0.0
 10
480.9384165464321
 20
-53.83388887543055
 30
0.0
 10
480.7408609909257
 20
-54.48652776415609
 30
0.0
 10
481.1077498797233
 20
-55.17797220842768
 30
0.0
 10
481.7603887684488
 20
-55.37905554171064
 30
0.0
 10
481.8803332128633
 20
-55.41433331947972
 30
0.0
 10
482.0002776572778
 20
-55.43197220836427
 30
0.0
 10
482.1202221016923
 20
-55.43197220836427
 30
0.0
 10
482.6493887682267
 20
-55.43197220836427
 30
0.0
 10
483.139749879215
 20
-55.08977776400528
 30
0.0
 10
483.3020276569522
 20
-54.55708331969394
 30
0.0
 10
483.3020276569522
 20
-54.55708331969394
 30
0.0
 10
484.5261665455351
 20
-50.54952776514038
 30
0.0
 10
484.5261665455351
 20
-50.54952776514038
 30
0.0
 10
484.5261665455351
 20
-50.54952776514038
 30
0.0
 10
485.2105554342528
 20
-51.83363887593058
 30
0.0
 10
485.2105554342528
 20
-51.83363887593058
 30
0.0
 10
485.4328054341973
 20
-52.25344443138105
 30
0.0
 10
485.8596665452017
 20
-52.4898055424331
 30
0.0
 10
486.3006387673137
 20
-52.4898055424331
 30
0.0
 10
486.49819432282
 20
-52.4898055424331
 30
0.0
 10
486.6957498783263
 20
-52.44394443133341
 30
0.0
 10
486.8791943227247
 20
-52.34516665358041
 30
0.0
 10
487.4824796003517
 20
-52.02413887588295
 30
0.0
 10
487.711749878072
 20
-51.27624998718107
 30
0.0
 10
487.3907573781524
 20
-50.67652776510852
 30
0.0
 10
487.3907573781524
 20
-50.67652776510852
 30
0.0
 10
486.7063332116569
 20
-49.38888887654167
 30
0.0
 10
486.7063332116569
 20
-49.38888887654167
 30
0.0
 10
486.7063332116569
 20
-49.38888887654167
 30
0.0
 10
490.7174165439874
 20
-50.61302776512461
 30
0.0
 10
490.7174165439874
 20
-50.61302776512461
 30
0.0
 10
490.8373609884019
 20
-50.65183332067035
 30
0.0
 10
490.9572701550386
 20
-50.6694722095549
 30
0.0
 10
491.0772498772306
 20
-50.6694722095549
 30
0.0
 10
491.606416543765
 20
-50.6694722095549
 30
0.0
 10
492.0967423769758
 20
-50.32727776519591
 30
0.0
 10
492.2590554324909
 20
-49.79458332088456
 30
0.0
 10
492.4565757102193
 20
-49.14194443215902
 30
0.0
 10
492.0897220991997
 20
-48.4540277656644
 30
0.0
 10
491.4370832104742
 20
-48.25294443238112
 30
0.0
 10
491.4370832104742
 20
-48.25294443238112
 30
0.0
 10
487.4294923781428
 20
-47.0288055437985
 30
0.0
 10
487.4294923781428
 20
-47.0288055437985
 30
0.0
 10
487.4294923781428
 20
-47.0288055437985
 30
0.0
 10
488.7172018222653
 20
-46.34441665508053
 30
0.0
 10
488.7172018222653
 20
-46.34441665508053
 30
0.0
 10
489.3168887665597
 20
-46.02338887738306
 30
0.0
 10
489.5461590442803
 20
-45.27549998868118
 30
0.0
 10
489.2251665443603
 20
-44.67224998883198
 30
0.0
 10
488.9076665444398
 20
-44.07252776675975
 30
0.0
 10
488.1597776557379
 20
-43.84322221126133
 30
0.0
 10
487.5565276558887
 20
-44.1642499889588
 30
0.0
 10
487.5565276558887
 20
-44.1642499889588
 30
0.0
 10
486.2688887673216
 20
-44.84863887767677
 30
0.0
 10
486.2688887673216
 20
-44.84863887767677
 30
0.0
 10
486.2688887673216
 20
-44.84863887767677
 30
0.0
 10
487.4965554336815
 20
-40.83755554534625
 30
0.0
 10
487.4965554336815
 20
-40.83755554534625
 30
0.0
 10
487.6940757114099
 20
-40.18491665662039
 30
0.0
 10
487.3272221003903
 20
-39.49699999012577
 30
0.0
 10
486.6745832116648
 20
-39.29591665684281
 30
0.0
 10
486.0219443229389
 20
-39.09836110133649
 30
0.0
 10
485.3340276564443
 20
-39.46524999013365
 30
0.0
 10
485.1329090453835
 20
-40.11436110108254
 30
0.0
 10
485.1329090453835
 20
-40.11436110108254
 30
0.0
 10
483.9088054345784
 20
-44.12544443341306
 30
0.0
 10
483.9088054345784
 20
-44.12544443341306
 30
0.0
 10
483.9088054345784
 20
-44.12544443341306
 30
0.0
 10
483.2244165458607
 20
-42.83780554484621
 30
0.0
 10
483.2244165458607
 20
-42.83780554484621
 30
0.0
 10
482.9033887681633
 20
-42.23455554499701
 30
0.0
 10
482.155499879461
 20
-42.00877776727556
 30
0.0
 10
481.5557776573888
 20
-42.32627776719605
 30
0.0
 10
480.9525629353175
 20
-42.64730554489385
 30
0.0
 10
480.7231868242637
 20
-43.39519443359573
 30
0.0
 10
481.0442851575169
 20
-43.99844443344492
 30
0.0
 10
481.0442851575169
 20
-43.99844443344492
 30
0.0
 10
481.7286387684567
 20
-45.28608332201178
 30
0.0
 10
481.7286387684567
 20
-45.28608332201178
 30
0.0
 10
481.7286387684567
 20
-45.28608332201178
 30
0.0
 10
478.2185351582232
 20
-44.21011110005848
 30
0.0
 10
478.2185351582232
 20
-44.21011110005848
 30
0.0
 10
478.2185351582232
 20
-44.21011110005848
 30
0.0
 10
488.967638766647
 20
-15.31408332950476
 30
0.0
 10
488.967638766647
 20
-15.31408332950476
 30
0.0
 10
488.967638766647
 20
-15.31408332950476
 30
0.0
 10
511.1926387610908
 20
-75.05699998123583
 30
0.0
 10
511.1926387610908
 20
-75.05699998123583
 30
0.0
 10
511.1926387610908
 20
-75.05699998123583
 30
0.0
 10
507.9365351507936
 20
-76.1470833142967
 30
0.0
 10
507.9365351507936
 20
-76.1470833142967
 30
0.0
 10
507.9365351507936
 20
-76.1470833142967
 30
0.0
 10
508.5855757061872
 20
-74.84180553684497
 30
0.0
 10
508.5855757061872
 20
-74.84180553684497
 30
0.0
 10
508.8925276505546
 20
-74.23149998144216
 30
0.0
 10
508.6420907061728
 20
-73.4906666482939
 30
0.0
 10
508.03178515077
 20
-73.18727775948098
 30
0.0
 10
507.4214443175893
 20
-72.88388887066805
 30
0.0
 10
506.680610984441
 20
-73.1308333150507
 30
0.0
 10
506.3772220956278
 20
-73.74113887045351
 30
0.0
 10
506.3772220956278
 20
-73.74113887045351
 30
0.0
 10
505.7281462624571
 20
-75.0464166479049
 30
0.0
 10
505.7281462624571
 20
-75.0464166479049
 30
0.0
 10
505.7281462624571
 20
-75.0464166479049
 30
0.0
 10
504.3981387627894
 20
-71.07061109334347
 30
0.0
 10
504.3981387627894
 20
-71.07061109334347
 30
0.0
 10
504.179381262844
 20
-70.4214999823946
 30
0.0
 10
503.4808812630188
 20
-70.07577776025896
 30
0.0
 10
502.8353332076247
 20
-70.29097220464948
 30
0.0
 10
502.1862220966759
 20
-70.50616664904001
 30
0.0
 10
501.8369720967629
 20
-71.20466664886555
 30
0.0
 10
502.0556943189304
 20
-71.85377775981443
 30
0.0
 10
502.0556943189304
 20
-71.85377775981443
 30
0.0
 10
503.3856312630425
 20
-75.82958331437588
 30
0.0
 10
503.3856312630425
 20
-75.82958331437588
 30
0.0
 10
503.3856312630425
 20
-75.82958331437588
 30
0.0
 10
502.0803887633689
 20
-75.17694442565033
 30
0.0
 10
502.0803887633689
 20
-75.17694442565033
 30
0.0
 10
501.4700832079658
 20
-74.87355553683709
 30
0.0
 10
500.7292498748178
 20
-75.12049998121974
 30
0.0
 10
500.4258609860046
 20
-75.73080553662288
 30
0.0
 10
500.1224368194138
 20
-76.34111109202571
 30
0.0
 10
500.3694165415743
 20
-77.08547220295094
 30
0.0
 10
500.9797220969775
 20
-77.38886109176418
 30
0.0
 10
500.9797220969775
 20
-77.38886109176418
 30
0.0
 10
502.2814720966518
 20
-78.03797220271242
 30
0.0
 10
502.2814720966518
 20
-78.03797220271242
 30
0.0
 10
502.2814720966518
 20
-78.03797220271242
 30
0.0
 10
498.3091943198671
 20
-79.36794442460231
 30
0.0
 10
498.3091943198671
 20
-79.36794442460231
 30
0.0
 10
497.6600479311407
 20
-79.58313886899316
 30
0.0
 10
497.3108332090056
 20
-80.28516664659536
 30
0.0
 10
497.5295907089509
 20
-80.93074997976727
 30
0.0
 10
497.7024518200191
 20
-81.44933331297072
 30
0.0
 10
498.1821590421211
 20
-81.77388886844517
 30
0.0
 10
498.7007776531027
 20
-81.77388886844517
 30
0.0
 10
498.8277776530709
 20
-81.77388886844517
 30
0.0
 10
498.961833208593
 20
-81.75272220178397
 30
0.0
 10
499.0923609863381
 20
-81.71038886846158
 30
0.0
 10
499.0923609863381
 20
-81.71038886846158
 30
0.0
 10
503.0681665408998
 20
-80.38041664657169
 30
0.0
 10
503.0681665408998
 20
-80.38041664657169
 30
0.0
 10
503.0681665408998
 20
-80.38041664657169
 30
0.0
 10
502.4154923743961
 20
-81.68569442402277
 30
0.0
 10
502.4154923743961
 20
-81.68569442402277
 30
0.0
 10
502.1121740411389
 20
-82.29599997942624
 30
0.0
 10
502.3590832077437
 20
-83.03683331257385
 30
0.0
 10
502.9693887631465
 20
-83.34022220138709
 30
0.0
 10
503.1457776519913
 20
-83.42841664580949
 30
0.0
 10
503.3362776519436
 20
-83.47074997913252
 30
0.0
 10
503.5197220963424
 20
-83.47074997913252
 30
0.0
 10
503.9748407073398
 20
-83.47074997913252
 30
0.0
 10
504.4087573738978
 20
-83.22027775697258
 30
0.0
 10
504.62740904051
 20
-82.78636109041454
 30
0.0
 10
504.62740904051
 20
-82.78636109041454
 30
0.0
 10
505.2765554292363
 20
-81.48108331296284
 30
0.0
 10
505.2765554292363
 20
-81.48108331296284
 30
0.0
 10
505.2765554292363
 20
-81.48108331296284
 30
0.0
 10
506.6065276511262
 20
-85.4568888675246
 30
0.0
 10
506.6065276511262
 20
-85.4568888675246
 30
0.0
 10
506.7793887621941
 20
-85.97547220072805
 30
0.0
 10
507.2626590398512
 20
-86.3000277562025
 30
0.0
 10
507.7777498730555
 20
-86.3000277562025
 30
0.0
 10
507.9082776508006
 20
-86.3000277562025
 30
0.0
 10
508.0388054285461
 20
-86.2788610895413
 30
0.0
 10
508.1693332062908
 20
-86.2365277562189
 30
0.0
 10
508.814951817241
 20
-86.02133331182806
 30
0.0
 10
509.1641665393757
 20
-85.31930553422586
 30
0.0
 10
508.9489368172074
 20
-84.67372220105395
 30
0.0
 10
508.9489368172074
 20
-84.67372220105395
 30
0.0
 10
507.6189645953174
 20
-80.69791664649219
 30
0.0
 10
507.6189645953174
 20
-80.69791664649219
 30
0.0
 10
507.6189645953174
 20
-80.69791664649219
 30
0.0
 10
508.9242776505467
 20
-81.35055553521805
 30
0.0
 10
508.9242776505467
 20
-81.35055553521805
 30
0.0
 10
509.1006665393915
 20
-81.43874997964045
 30
0.0
 10
509.2876387615669
 20
-81.47755553518586
 30
0.0
 10
509.4710479281878
 20
-81.47755553518586
 30
0.0
 10
509.9261665391851
 20
-81.47755553518586
 30
0.0
 10
510.3636109835202
 20
-81.22708331302657
 30
0.0
 10
510.5788407056888
 20
-80.79316664646853
 30
0.0
 10
510.8821590389461
 20
-80.1828610910657
 30
0.0
 10
510.6352498723413
 20
-79.44202775791746
 30
0.0
 10
510.0249443169382
 20
-79.13863886910421
 30
0.0
 10
510.0249443169382
 20
-79.13863886910421
 30
0.0
 10
508.7196665394868
 20
-78.48952775815532
 30
0.0
 10
508.7196665394868
 20
-78.48952775815532
 30
0.0
 10
508.7196665394868
 20
-78.48952775815532
 30
0.0
 10
512.0534165386532
 20
-77.37474998065629
 30
0.0
 10
512.0534165386532
 20
-77.37474998065629
 30
0.0
 10
512.0534165386532
 20
-77.37474998065629
 30
0.0
 10
532.482777644657
 20
-132.2916666335938
 30
0.0
 10
532.482777644657
 20
-132.2916666335938
 30
0.0
 10
532.482777644657
 20
-132.2916666335938
 30
0.0
 10
517.9447701482917
 20
-132.2916666335938
 30
0.0
 10
517.9447701482917
 20
-132.2916666335938
 30
0.0
 10
518.2904923704274
 20
-131.7095833004061
 30
0.0
 10
518.8196590369618
 20
-130.8241110784051
 30
0.0
 10
519.8321665367087
 20
-130.0515277452648
 30
0.0
 10
520.2202220921673
 20
-129.7340277453443
 30
0.0
 10
521.2432776474669
 20
-128.9226388566585
 30
0.0
 10
521.6666109806944
 20
-128.3229166345859
 30
0.0
 10
523.9667220912306
 20
-128.4358055234465
 30
0.0
 10
525.5365832019493
 20
-126.9717777460349
 30
0.0
 10
525.2825832020127
 20
-123.8779166356971
 30
0.0
  0
ENDBLK
  5
54
330
51
100
AcDbEntity
  8
0
100
AcDbBlockEnd
  0
ENDSEC
  0
SECTION
  2
ENTITIES
  0
SPLINE
  5
41
330
1F
100
AcDbEntity
  8
_U+0421_U+043B_U+043E_U+0439 1
 62
     1
420
 16716288
370
     5
100
AcDbSpline
210
0.0
220
0.0
230
1.0
 70
    11
 71
     3
 72
    17
 73
    13
 74
     0
 42
0.0000000001
 43
0.0000000001
 12
1.0
 22
0.0
 32
0.0
 13
1.0
 23
0.0
 33
0.0
 40
0.0
 40
0.0
 40
0.0
 40
0.0
 40
1.0
 40
1.0
 40
1.0
 40
2.0
 40
2.0
 40
2.0
 40
3.0
 40
3.0
 40
3.0
 40
4.0
 40
4.0
 40
4.0
 40
4.0
 10
863.7175806174041
 20
-52.85785859789673
 30
0.0
 10
863.7175806174041
 20
-71.56192470433187
 30
0.0
 10
840.1049645121961
 20
-86.72452525609674
 30
0.0
 10
810.9773028528114
 20
-86.72452525609674
 30
0.0
 10
781.8496764712047
 20
-86.72452525609674
 30
0.0
 10
758.2370250882186
 20
-71.56192470433187
 30
0.0
 10
758.2370250882186
 20
-52.85785859789673
 30
0.0
 10
758.2370250882186
 20
-34.15382776923943
 30
0.0
 10
781.8496764712047
 20
-18.99119193969673
 30
0.0
 10
810.9773028528114
 20
-18.99119193969673
 30
0.0
 10
840.1049645121961
 20
-18.99119193969673
 30
0.0
 10
863.7175806174041
 20
-34.15382776923943
 30
0.0
 10
863.7175806174041
 20
-52.85785859789673
 30
0.0
  0
POLYLINE
  5
42
330
1F
100
AcDbEntity
  8
_U+0421_U+043B_U+043E_U+0439 1
 62
     1
420
 16716288
370
     5
100
AcDb2dPolyline
 66
     1
 10
0.0
 20
0.0
 30
0.0
  0
VERTEX
  5
43
330
42
100
AcDbEntity
  8
_U+0421_U+043B_U+043E_U+0439 1
 62
     1
420
 16716288
370
     5
100
AcDbVertex
100
AcDb2dVertex
 10
820.977318128089
 20
-48.35786054346614
 30
0.0
  0
VERTEX
  5
44
330
42
100
AcDbEntity
  8
_U+0421_U+043B_U+043E_U+0439 1
 62
     1
420
 16716288
370
     5
100
AcDbVertex
100
AcDb2dVertex
 10
800.9773228553112
 20
-48.35786054346614
 30
0.0
  0
VERTEX
  5
45
330
42
100
AcDbEntity
  8
_U+0421_U+043B_U+043E_U+0439 1
 62
     1
420
 16716288
370
     5
100
AcDbVertex
100
AcDb2dVertex
 10
800.9773228553112
 20
-57.35785665232733
 30
0.0
  0
VERTEX
  5
46
330
42
100
AcDbEntity
  8
_U+0421_U+043B_U+043E_U+0439 1
 62
     1
420
 16716288
370
     5
100
AcDbVertex
100
AcDb2dVertex
 10
820.977318128089
 20
-57.35785665232733
 30
0.0
  0
VERTEX
  5
47
330
42
100
AcDbEntity
  8
_U+0421_U+043B_U+043E_U+0439 1
 62
     1
420
 16716288
370
     5
100
AcDbVertex
100
AcDb2dVertex
 10
820.977318128089
 20
-48.35786054346614
 30
0.0
  0
SEQEND
  5
48
330
42
100
AcDbEntity
  8
_U+0421_U+043B_U+043E_U+0439 1
 62
     1
420
 16716288
370
     5
  0
SPLINE
  5
49
330
1F
100
AcDbEntity
  8
_U+0421_U+043B_U+043E_U+0439 1
 62
     1
420
 16716288
370
     5
100
AcDbSpline
210
0.0
220
0.0
230
1.0
 70
    11
 71
     3
 72
    17
 73
    13
 74
     0
 42
0.0000000001
 43
0.0000000001
 12
1.0
 22
0.0
 32
0.0
 13
1.0
 23
0.0
 33
0.0
 40
0.0
 40
0.0
 40
0.0
 40
0.0
 40
1.0
 40
1.0
 40
1.0
 40
2.0
 40
2.0
 40
2.0
 40
3.0
 40
3.0
 40
3.0
 40
4.0
 40
4.0
 40
4.0
 40
4.0
 10
846.4314695106144
 20
-117.4161919150905
 30
0.0
 10
846.4314695106144
 20
-129.9898269119469
 30
0.0
 10
830.5581275701381
 20
-140.1827763538434
 30
0.0
 10
810.9773028528114
 20
-140.1827763538434
 30
0.0
 10
791.396513413262
 20
-140.1827763538434
 30
0.0
 10
775.5231361950082
 20
-129.9898269119469
 30
0.0
 10
775.5231361950082
 20
-117.4161919150905
 30
0.0
 10
775.5231361950082
 20
-104.8425921960116
 30
0.0
 10
791.396513413262
 20
-94.64964275411512
 30
0.0
 10
810.9773028528114
 20
-94.64964275411512
 30
0.0
 10
830.5581275701381
 20
-94.64964275411512
 30
0.0
 10
846.4314695106144
 20
-104.8425921960116
 30
0.0
 10
846.4314695106144
 20
-117.4161919150905
 30
0.0
  0
POLYLINE
  5
4A
330
1F
100
AcDbEntity
  8
_U+0421_U+043B_U+043E_U+0439 1
 62
     1
420
 16716288
370
     5
100
AcDb2dPolyline
 66
     1
 10
0.0
 20
0.0
 30
0.0
  0
VERTEX
  5
4B
330
4A
100
AcDbEntity
  8
_U+0421_U+043B_U+043E_U+0439 1
 62
     1
420
 16716288
370
     5
100
AcDbVertex
100
AcDb2dVertex
 10
820.977318128089
 20
-112.9161938606599
 30
0.0
  0
VERTEX
  5
4C
330
4A
100
AcDbEntity
  8
_U+0421_U+043B_U+043E_U+0439 1
 62
     1
420
 16716288
370
     5
100
AcDbVertex
100
AcDb2dVertex
 10
800.9773228553112
 20
-112.9161938606599
 30
0.0
  0
VERTEX
  5
4D
330
4A
100
AcDbEntity
  8
_U+0421_U+043B_U+043E_U+0439 1
 62
     1
420
 16716288
370
     5
100
AcDbVertex
100
AcDb2dVertex
 10
800.9773228553112
 20
-121.9161899695211
 30
0.0
  0
VERTEX
  5
4E
330
4A
100
AcDbEntity
  8
_U+0421_U+043B_U+043E_U+0439 1
 62
     1
420
 16716288
370
     5
100
AcDbVertex
100
AcDb2dVertex
 10
820.977318128089
 20
-121.9161899695211
 30
0.0
  0
VERTEX
  5
4F
330
4A
100
AcDbEntity
  8
_U+0421_U+043B_U+043E_U+0439 1
 62
     1
420
 16716288
370
     5
100
AcDbVertex
100
AcDb2dVertex
 10
820.977318128089
 20
-112.9161938606599
 30
0.0
  0
SEQEND
  5
50
330
4A
100
AcDbEntity
  8
_U+0421_U+043B_U+043E_U+0439 1
 62
     1
420
 16716288
370
     5
  0
INSERT
  5
52
330
1F
100
AcDbEntity
  8
_U+0421_U+043B_U+043E_U+0439 1
100
AcDbBlockReference
  2
block 2
 10
0.0
 20
0.0
 30
0.0
  0
SPLINE
  5
61
330
1F
100
AcDbEntity
  8
_U+0421_U+043B_U+043E_U+0439 1
 62
     1
420
 16716288
370
     5
100
AcDbSpline
210
0.0
220
0.0
230
1.0
 70
    11
 71
     3
 72
    26
 73
    22
 74
     0
 42
0.0000000001
 43
0.0000000001
 12
1.0
 22
0.0
 32
0.0
 13
1.0
 23
0.0
 33
0.0
 40
0.0
 40
0.0
 40
0.0
 40
0.0
 40
1.0
 40
1.0
 40
1.0
 40
2.0
 40
2.0
 40
2.0
 40
3.0
 40
3.0
 40
3.0
 40
4.0
 40
4.0
 40
4.0
 40
5.0
 40
5.0
 40
5.0
 40
6.0
 40
6.0
 40
6.0
 40
7.0
 40
7.0
 40
7.0
 40
7.0
 10
712.6287498218426
 20
-2.158999999460212
 30
0.0
 10
712.6287498218426
 20
-2.158999999460212
 30
0.0
 10
663.8920059451383
 20
-133.1804196889271
 30
0.0
 10
662.5166665010375
 20
-136.8777777435583
 30
0.0
 10
664.9953890004177
 20
-136.8777777435583
 30
0.0
 10
701.2758670469032
 20
-136.8777777435583
 30
0.0
 10
702.6804517687742
 20
-136.8777777435583
 30
0.0
 10
702.6804517687742
 20
-136.8777777435583
 30
0.0
 10
702.6804517687742
 20
-152.3999999619
 30
0.0
 10
702.6804517687742
 20
-152.3999999619
 30
0.0
 10
702.6804517687742
 20
-152.3999999619
 30
0.0
 10
722.6829164859957
 20
-152.3999999619
 30
0.0
 10
722.6829164859957
 20
-152.3999999619
 30
0.0
 10
722.6829164859957
 20
-152.3999999619
 30
0.0
 10
722.6829164859957
 20
-136.8777777435583
 30
0.0
 10
722.6829164859957
 20
-136.8777777435583
 30
0.0
 10
722.6829164859957
 20
-136.8777777435583
 30
0.0
 10
762.7443256426471
 20
-136.8777777435583
 30
0.0
 10
762.7443256426471
 20
-136.8777777435583
 30
0.0
 10
762.7443256426471
 20
-136.8777777435583
 30
0.0
 10
712.6287498218426
 20
-2.158999999460212
 30
0.0
 10
712.6287498218426
 20
-2.158999999460212
 30
0.0
  0
SPLINE
  5
62
330
1F
100
AcDbEntity
  8
_U+0421_U+043B_U+043E_U+0439 1
 62
     1
420
 16716288
370
     5
100
AcDbSpline
210
0.0
220
0.0
230
1.0
 70
    11
 71
     3
 72
    20
 73
    16
 74
     0
 42
0.0000000001
 43
0.0000000001
 12
1.0
 22
0.0
 32
0.0
 13
1.0
 23
0.0
 33
0.0
 40
0.0
 40
0.0
 40
0.0
 40
0.0
 40
1.0
 40
1.0
 40
1.0
 40
2.0
 40
2.0
 40
2.0
 40
3.0
 40
3.0
 40
3.0
 40
4.0
 40
4.0
 40
4.0
 40
5.0
 40
5.0
 40
5.0
 40
5.0
 10
694.6352839930081
 20
-63.68803053963368
 30
0.0
 10
695.2256928817495
 20
-63.50359831745734
 30
0.0
 10
695.8118331593807
 20
-63.24737581752162
 30
0.0
 10
696.4598153814406
 20
-62.96596498425861
 30
0.0
 10
697.6876937144673
 20
-62.94800859537415
 30
0.0
 10
700.2464967693827
 20
-63.15399553976696
 30
0.0
 10
701.518507602398
 20
-62.85071248428724
 30
0.0
 10
701.518507602398
 20
-62.85071248428724
 30
0.0
 10
701.4087937135366
 20
-67.0480272054601
 30
0.0
 10
701.4087937135366
 20
-67.0480272054601
 30
0.0
 10
697.159267881266
 20
-66.74125164998125
 30
0.0
 10
698.6630537142231
 20
-66.30440692786824
 30
0.0
 10
693.0219606600779
 20
-68.02539803854928
 30
0.0
 10
693.0219606600779
 20
-68.02539803854928
 30
0.0
 10
694.6352839930081
 20
-63.68803053963368
 30
0.0
 10
694.6352839930081
 20
-63.68803053963368
 30
0.0
  0
SPLINE
  5
63
330
1F
100
AcDbEntity
  8
_U+0421_U+043B_U+043E_U+0439 1
 62
     1
420
 16716288
370
     5
100
AcDbSpline
210
0.0
220
0.0
230
1.0
 70
    11
 71
     3
 72
    20
 73
    16
 74
     0
 42
0.0000000001
 43
0.0000000001
 12
1.0
 22
0.0
 32
0.0
 13
1.0
 23
0.0
 33
0.0
 40
0.0
 40
0.0
 40
0.0
 40
0.0
 40
1.0
 40
1.0
 40
1.0
 40
2.0
 40
2.0
 40
2.0
 40
3.0
 40
3.0
 40
3.0
 40
4.0
 40
4.0
 40
4.0
 40
5.0
 40
5.0
 40
5.0
 40
5.0
 10
697.5298609367287
 20
-55.90624665269013
 30
0.0
 10
697.5992523256003
 20
-55.92663720824044
 30
0.0
 10
697.672242047804
 20
-55.93880804157097
 30
0.0
 10
697.7492181588964
 20
-55.9375733193488
 30
0.0
 10
699.8841587139179
 20
-55.90402415269068
 30
0.0
 10
701.3187648246704
 20
-54.76331720853131
 30
0.0
 10
701.7434739912311
 20
-53.91301693096627
 30
0.0
 10
701.7434739912311
 20
-53.91301693096627
 30
0.0
 10
701.6447314912552
 20
-57.91274081885499
 30
0.0
 10
701.6447314912552
 20
-57.91274081885499
 30
0.0
 10
699.9699189916741
 20
-58.34979720763472
 30
0.0
 10
698.2156962143353
 20
-58.43375831872494
 30
0.0
 10
696.5021839925413
 20
-58.66913165199939
 30
0.0
 10
696.5021839925413
 20
-58.66913165199939
 30
0.0
 10
697.5298609367287
 20
-55.90624665269013
 30
0.0
 10
697.5298609367287
 20
-55.90624665269013
 30
0.0
  0
SPLINE
  5
64
330
1F
100
AcDbEntity
  8
_U+0421_U+043B_U+043E_U+0439 1
 62
     1
420
 16716288
370
     5
100
AcDbSpline
210
0.0
220
0.0
230
1.0
 70
    11
 71
     3
 72
    17
 73
    13
 74
     0
 42
0.0000000001
 43
0.0000000001
 12
1.0
 22
0.0
 32
0.0
 13
1.0
 23
0.0
 33
0.0
 40
0.0
 40
0.0
 40
0.0
 40
0.0
 40
1.0
 40
1.0
 40
1.0
 40
2.0
 40
2.0
 40
2.0
 40
3.0
 40
3.0
 40
3.0
 40
4.0
 40
4.0
 40
4.0
 40
4.0
 10
701.9355262134048
 20
-46.2701216550993
 30
0.0
 10
701.9355262134048
 20
-46.2701216550993
 30
0.0
 10
701.8806339911963
 20
-48.60738026562599
 30
0.0
 10
701.8806339911963
 20
-48.60738026562599
 30
0.0
 10
701.2922359357884
 20
-48.60738026562599
 30
0.0
 10
700.7141742692662
 20
-48.67984082116337
 30
0.0
 10
700.1700851027351
 20
-48.80811082113119
 30
0.0
 10
700.1700851027351
 20
-48.80811082113119
 30
0.0
 10
701.126712602496
 20
-46.23650193288518
 30
0.0
 10
701.126712602496
 20
-46.23650193288518
 30
0.0
 10
701.4365926024184
 20
-46.2757660995422
 30
0.0
 10
701.7159220467933
 20
-46.29756776620324
 30
0.0
 10
701.9355262134048
 20
-46.2701216550993
 30
0.0
  0
SPLINE
  5
65
330
1F
100
AcDbEntity
  8
_U+0421_U+043B_U+043E_U+0439 1
 62
     1
420
 16716288
370
     5
100
AcDbSpline
210
0.0
220
0.0
230
1.0
 70
    11
 71
     3
 72
    77
 73
    73
 74
     0
 42
0.0000000001
 43
0.0000000001
 12
1.0
 22
0.0
 32
0.0
 13
1.0
 23
0.0
 33
0.0
 40
0.0
 40
0.0
 40
0.0
 40
0.0
 40
1.0
 40
1.0
 40
1.0
 40
2.0
 40
2.0
 40
2.0
 40
3.0
 40
3.0
 40
3.0
 40
4.0
 40
4.0
 40
4.0
 40
5.0
 40
5.0
 40
5.0
 40
6.0
 40
6.0
 40
6.0
 40
7.0
 40
7.0
 40
7.0
 40
8.0
 40
8.0
 40
8.0
 40
9.0
 40
9.0
 40
9.0
 40
10.0
 40
10.0
 40
10.0
 40
11.0
 40
11.0
 40
11.0
 40
12.0
 40
12.0
 40
12.0
 40
13.0
 40
13.0
 40
13.0
 40
14.0
 40
14.0
 40
14.0
 40
15.0
 40
15.0
 40
15.0
 40
16.0
 40
16.0
 40
16.0
 40
17.0
 40
17.0
 40
17.0
 40
18.0
 40
18.0
 40
18.0
 40
19.0
 40
19.0
 40
19.0
 40
20.0
 40
20.0
 40
20.0
 40
21.0
 40
21.0
 40
21.0
 40
22.0
 40
22.0
 40
22.0
 40
23.0
 40
23.0
 40
23.0
 40
24.0
 40
24.0
 40
24.0
 40
24.0
 10
669.1171387216093
 20
-132.2916666335938
 30
0.0
 10
669.1171387216093
 20
-132.2916666335938
 30
0.0
 10
692.056795938097
 20
-70.62007859345601
 30
0.0
 10
692.056795938097
 20
-70.62007859345601
 30
0.0
 10
693.0448559378498
 20
-71.07159887112108
 30
0.0
 10
694.7997842707448
 20
-71.14977442665703
 30
0.0
 10
696.3995256592339
 20
-71.09639914889244
 30
0.0
 10
695.4980373261254
 20
-71.67202664874883
 30
0.0
 10
694.8044056596326
 20
-72.32819331525134
 30
0.0
 10
695.6313520483142
 20
-73.3466980372189
 30
0.0
 10
697.406282881204
 20
-75.53127442556169
 30
0.0
 10
699.8553720472586
 20
-72.39243414856861
 30
0.0
 10
701.2881084357891
 20
-71.93660998201602
 30
0.0
 10
701.2881084357891
 20
-71.93660998201602
 30
0.0
 10
701.117998991387
 20
-78.67420692477623
 30
0.0
 10
701.117998991387
 20
-78.67420692477623
 30
0.0
 10
696.5000320480972
 20
-81.00638553530418
 30
0.0
 10
694.8527714929538
 20
-77.95415220273388
 30
0.0
 10
691.812638438158
 20
-80.28728331326128
 30
0.0
 10
690.720791216209
 20
-81.12671803527397
 30
0.0
 10
690.2489862163269
 20
-82.2405080349954
 30
0.0
 10
691.5602964937767
 20
-83.0799780347856
 30
0.0
 10
692.3778237157945
 20
-83.60120720132163
 30
0.0
 10
693.4092753822035
 20
-83.53537886800507
 30
0.0
 10
694.1609742709041
 20
-84.01268720121878
 30
0.0
 10
694.9016312151635
 20
-84.48456275665663
 30
0.0
 10
694.7315923263171
 20
-85.06064886762366
 30
0.0
 10
695.8123976038249
 20
-85.26914053423832
 30
0.0
 10
696.6189887147341
 20
-85.42827858975417
 30
0.0
 10
697.3321995478894
 20
-85.17039803426317
 30
0.0
 10
698.0399776032677
 20
-84.76985414547406
 30
0.0
 10
699.3842373251538
 20
-84.00721914566476
 30
0.0
 10
699.0989459363363
 20
-83.55728636799931
 30
0.0
 10
700.9863423247533
 20
-83.71095636796115
 30
0.0
 10
700.9863423247533
 20
-83.71095636796115
 30
0.0
 10
700.9204787136586
 20
-86.41584470061835
 30
0.0
 10
700.9204787136586
 20
-86.41584470061835
 30
0.0
 10
700.2127359360578
 20
-86.26220997843468
 30
0.0
 10
699.4555689918026
 20
-86.25674192288001
 30
0.0
 10
698.7093734364341
 20
-86.43778747839075
 30
0.0
 10
697.507812325623
 20
-86.72311414498569
 30
0.0
 10
695.4722845483541
 20
-87.67780136696943
 30
0.0
 10
694.4188548263951
 20
-88.9122766444384
 30
0.0
 10
691.3284862160568
 20
-89.0060096999705
 30
0.0
 10
691.2227587160834
 20
-91.20981247719776
 30
0.0
 10
693.063623715623
 20
-92.18781831028613
 30
0.0
 10
695.1265623262184
 20
-93.27416219890362
 30
0.0
 10
696.9043153813296
 20
-91.5458685882244
 30
0.0
 10
698.9617859363705
 20
-92.07806914364727
 30
0.0
 10
699.5762542695508
 20
-92.23717192138496
 30
0.0
 10
700.1852545471758
 20
-92.41274942134102
 30
0.0
 10
700.7668792692531
 20
-92.44566358799962
 30
0.0
 10
700.7668792692531
 20
-92.44566358799962
 30
0.0
 10
700.7229584359301
 20
-94.11910025424785
 30
0.0
 10
700.7229584359301
 20
-94.11910025424785
 30
0.0
 10
698.2869220476507
 20
-93.56492164327571
 30
0.0
 10
694.3474878819688
 20
-96.08329636486818
 30
0.0
 10
692.899017604553
 20
-97.164172197931
 30
0.0
 10
692.4655595491059
 20
-97.4878810867392
 30
0.0
 10
692.268074549155
 20
-98.31087636431103
 30
0.0
 10
692.899017604553
 20
-98.5852316420204
 30
0.0
 10
696.5171770480929
 20
-100.1848319193981
 30
0.0
 10
696.5567939925277
 20
-99.15429747521165
 30
0.0
 10
697.9138242699662
 20
-99.38628414181984
 30
0.0
 10
698.736078714205
 20
-99.52601941956266
 30
0.0
 10
699.2569903807414
 20
-100.2204624749449
 30
0.0
 10
700.5747917693011
 20
-99.89103858613812
 30
0.0
 10
700.5747917693011
 20
-99.89103858613812
 30
0.0
 10
699.7561709361719
 20
-132.2916666335938
 30
0.0
 10
699.7561709361719
 20
-132.2916666335938
 30
0.0
 10
699.7561709361719
 20
-132.2916666335938
 30
0.0
 10
669.1171387216093
 20
-132.2916666335938
 30
0.0
 10
669.1171387216093
 20
-132.2916666335938
 30
0.0
  0
SPLINE
  5
66
330
1F
100
AcDbEntity
  8
_U+0421_U+043B_U+043E_U+0439 1
 62
     1
420
 16716288
370
     5
100
AcDbSpline
210
0.0
220
0.0
230
1.0
 70
    11
 71
     3
 72
   155
 73
   151
 74
     0
 42
0.0000000001
 43
0.0000000001
 12
1.0
 22
0.0
 32
0.0
 13
1.0
 23
0.0
 33
0.0
 40
0.0
 40
0.0
 40
0.0
 40
0.0
 40
1.0
 40
1.0
 40
1.0
 40
2.0
 40
2.0
 40
2.0
 40
3.0
 40
3.0
 40
3.0
 40
4.0
 40
4.0
 40
4.0
 40
5.0
 40
5.0
 40
5.0
 40
6.0
 40
6.0
 40
6.0
 40
7.0
 40
7.0
 40
7.0
 40
8.0
 40
8.0
 40
8.0
 40
9.0
 40
9.0
 40
9.0
 40
10.0
 40
10.0
 40
10.0
 40
11.0
 40
11.0
 40
11.0
 40
12.0
 40
12.0
 40
12.0
 40
13.0
 40
13.0
 40
13.0
 40
14.0
 40
14.0
 40
14.0
 40
15.0
 40
15.0
 40
15.0
 40
16.0
 40
16.0
 40
16.0
 40
17.0
 40
17.0
 40
17.0
 40
18.0
 40
18.0
 40
18.0
 40
19.0
 40
19.0
 40
19.0
 40
20.0
 40
20.0
 40
20.0
 40
21.0
 40
21.0
 40
21.0
 40
22.0
 40
22.0
 40
22.0
 40
23.0
 40
23.0
 40
23.0
 40
24.0
 40
24.0
 40
24.0
 40
25.0
 40
25.0
 40
25.0
 40
26.0
 40
26.0
 40
26.0
 40
27.0
 40
27.0
 40
27.0
 40
28.0
 40
28.0
 40
28.0
 40
29.0
 40
29.0
 40
29.0
 40
30.0
 40
30.0
 40
30.0
 40
31.0
 40
31.0
 40
31.0
 40
32.0
 40
32.0
 40
32.0
 40
33.0
 40
33.0
 40
33.0
 40
34.0
 40
34.0
 40
34.0
 40
35.0
 40
35.0
 40
35.0
 40
36.0
 40
36.0
 40
36.0
 40
37.0
 40
37.0
 40
37.0
 40
38.0
 40
38.0
 40
38.0
 40
39.0
 40
39.0
 40
39.0
 40
40.0
 40
40.0
 40
40.0
 40
41.0
 40
41.0
 40
41.0
 40
42.0
 40
42.0
 40
42.0
 40
43.0
 40
43.0
 40
43.0
 40
44.0
 40
44.0
 40
44.0
 40
45.0
 40
45.0
 40
45.0
 40
46.0
 40
46.0
 40
46.0
 40
47.0
 40
47.0
 40
47.0
 40
48.0
 40
48.0
 40
48.0
 40
49.0
 40
49.0
 40
49.0
 40
50.0
 40
50.0
 40
50.0
 40
50.0
 10
705.45303815697
 20
-132.2916666335938
 30
0.0
 10
705.45303815697
 20
-132.2916666335938
 30
0.0
 10
704.6953067682706
 20
-102.4094133077312
 30
0.0
 10
704.6953067682706
 20
-102.4094133077312
 30
0.0
 10
707.5896367675472
 20
-103.2005527519777
 30
0.0
 10
708.8390698227903
 20
-101.2468694191327
 30
0.0
 10
710.7525717667564
 20
-101.1858741413703
 30
0.0
 10
711.5371495443381
 20
-101.1584633080439
 30
0.0
 10
712.283309821929
 20
-101.2791485857914
 30
0.0
 10
712.7661567662531
 20
-100.5055421970959
 30
0.0
 10
713.7373187104546
 20
-98.93638664193254
 30
0.0
 10
711.7127270442942
 20
-98.01461358660741
 30
0.0
 10
710.4562737112747
 20
-98.25605469765819
 30
0.0
 10
709.6277398225931
 20
-98.41512219761836
 30
0.0
 10
708.9200323227699
 20
-98.65656330866915
 30
0.0
 10
708.0531162118757
 20
-98.50289330870731
 30
0.0
 10
706.8593162121741
 20
-98.29447219764833
 30
0.0
 10
706.1668839901253
 20
-97.32835497566806
 30
0.0
 10
704.574621490523
 20
-97.80612191999273
 30
0.0
 10
704.574621490523
 20
-97.80612191999273
 30
0.0
 10
704.4319228794474
 20
-92.07806914364727
 30
0.0
 10
704.4319228794474
 20
-92.07806914364727
 30
0.0
 10
704.9971081570839
 20
-92.30300025470216
 30
0.0
 10
705.4689131569661
 20
-92.82973275457036
 30
0.0
 10
706.1163309345818
 20
-92.70354414349063
 30
0.0
 10
706.9283548232681
 20
-92.54990942130695
 30
0.0
 10
706.5333495455886
 20
-92.0890052547553
 30
0.0
 10
707.4550873231364
 20
-92.3688285880187
 30
0.0
 10
709.0184926005236
 20
-92.84490219901089
 30
0.0
 10
710.5044278779295
 20
-95.96479830934223
 30
0.0
 10
712.472328155215
 20
-91.64887969931021
 30
0.0
 10
712.7911334329133
 20
-91.8333824770416
 30
0.0
 10
713.1693464883741
 20
-91.91194608813315
 30
0.0
 10
713.6330728771472
 20
-91.77083497705745
 30
0.0
 10
715.8743759321427
 20
-91.08616386611739
 30
0.0
 10
713.355225099439
 20
-86.86814108939429
 30
0.0
 10
710.3081423224231
 20
-86.70663942276795
 30
0.0
 10
707.5125901008998
 20
-86.55512136725021
 30
0.0
 10
709.106757600501
 20
-88.25745053349094
 30
0.0
 10
704.3222089905861
 20
-87.90269720024679
 30
0.0
 10
704.3222089905861
 20
-87.90269720024679
 30
0.0
 10
704.1960203795063
 20
-82.90440053482953
 30
0.0
 10
704.1960203795063
 20
-82.90440053482953
 30
0.0
 10
704.206956490615
 20
-82.88792581261116
 30
0.0
 10
704.2234312128334
 20
-82.86598303483875
 30
0.0
 10
704.2344378794971
 20
-82.84954359039854
 30
0.0
 10
704.9367126015438
 20
-83.24454886807796
 30
0.0
 10
705.6774401013582
 20
-83.3817441458214
 30
0.0
 10
706.3522334345229
 20
-82.94281803481967
 30
0.0
 10
707.7717053786124
 20
-84.91625692321554
 30
0.0
 10
709.9183934336313
 20
-83.82409220126627
 30
0.0
 10
709.5070898226231
 20
-82.21306192389146
 30
0.0
 10
710.472748433493
 20
-82.78371525708198
 30
0.0
 10
711.0817487111186
 20
-83.85908775681327
 30
0.0
 10
712.2503956552711
 20
-84.16085386784843
 30
0.0
 10
716.399520932011
 20
-85.24903220090977
 30
0.0
 10
712.4234331552278
 20
-77.6126633139301
 30
0.0
 10
710.4453023223891
 20
-76.84166748078967
 30
0.0
 10
708.8451023227891
 20
-76.21488720316846
 30
0.0
 10
704.2191626017234
 20
-78.8833335913901
 30
0.0
 10
704.0917745461996
 20
-78.7729847025289
 30
0.0
 10
704.0917745461996
 20
-78.7729847025289
 30
0.0
 10
703.9217356573527
 20
-72.12315887085796
 30
0.0
 10
703.9217356573527
 20
-72.12315887085796
 30
0.0
 10
706.6734728788874
 20
-72.1777688708444
 30
0.0
 10
706.8934651010543
 20
-72.78020748180488
 30
0.0
 10
709.4796437115192
 20
-71.57451887099519
 30
0.0
 10
710.2971709335369
 20
-71.19041442664694
 30
0.0
 10
709.7814098225549
 20
-70.12050998247
 30
0.0
 10
709.0626603782898
 20
-70.04371026026692
 30
0.0
 10
705.9791709346165
 20
-69.70902998257284
 30
0.0
 10
709.0901064893944
 20
-69.65417303814216
 30
0.0
 10
710.2642214891008
 20
-69.49503498262631
 30
0.0
 10
711.0707773222324
 20
-69.39078914931898
 30
0.0
 10
711.6578700998632
 20
-69.18229748270431
 30
0.0
 10
712.3546062108003
 20
-68.7543427605891
 30
0.0
 10
713.1995795439226
 20
-68.23861692738494
 30
0.0
 10
712.6070539885147
 20
-67.11385553877699
 30
0.0
 10
711.7236631554023
 20
-67.25101553874292
 30
0.0
 10
709.1818639893713
 20
-67.63466137198021
 30
0.0
 10
708.0751648229814
 20
-64.1348941506328
 30
0.0
 10
704.0562498239859
 20
-66.7561388721997
 30
0.0
 10
704.0562498239859
 20
-66.7561388721997
 30
0.0
 10
704.0562498239859
 20
-62.36581942885294
 30
0.0
 10
704.0562498239859
 20
-62.36581942885294
 30
0.0
 10
707.2679034342942
 20
-63.06911720645482
 30
0.0
 10
708.0043270452211
 20
-64.65711109494674
 30
0.0
 10
710.2093645446698
 20
-64.97954998375526
 30
0.0
 10
711.3451325999418
 20
-65.14962415037915
 30
0.0
 10
712.8210137106835
 20
-65.02343553929974
 30
0.0
 10
712.7880995440255
 20
-63.51460498412138
 30
0.0
 10
712.7578312106995
 20
-61.66477942902835
 30
0.0
 10
709.341460655998
 20
-61.33546137355509
 30
0.0
 10
707.7294073230676
 20
-59.93182915168382
 30
0.0
 10
706.259735101213
 20
-58.64849415200451
 30
0.0
 10
705.9742673235066
 20
-57.21561665236266
 30
0.0
 10
704.0455606573219
 20
-57.43419776341912
 30
0.0
 10
704.0494412128766
 20
-57.39846137453939
 30
0.0
 10
704.0562498239859
 20
-57.36473581899207
 30
0.0
 10
704.0562498239859
 20
-57.3263888745573
 30
0.0
 10
704.0562498239859
 20
-57.3263888745573
 30
0.0
 10
704.0562498239859
 20
-53.25879054224081
 30
0.0
 10
704.0562498239859
 20
-53.25879054224081
 30
0.0
 10
704.473585934993
 20
-53.59361193104593
 30
0.0
 10
704.8686970460051
 20
-53.9541860976225
 30
0.0
 10
705.1890898237027
 20
-54.08309109759048
 30
0.0
 10
708.0266226007712
 20
-55.22933665285922
 30
0.0
 10
710.3479356557461
 20
-52.9773797089778
 30
0.0
 10
708.9474078783188
 20
-51.2629502649619
 30
0.0
 10
707.977057323006
 20
-50.07585304303653
 30
0.0
 10
705.8532998235371
 20
-49.32327220989151
 30
0.0
 10
703.9680553795636
 20
-48.92353970999145
 30
0.0
 10
703.9680553795636
 20
-48.92353970999145
 30
0.0
 10
703.9680553795636
 20
-45.79831665521713
 30
0.0
 10
703.9680553795636
 20
-45.79831665521713
 30
0.0
 10
706.2096053790029
 20
-45.91127609963338
 30
0.0
 10
705.0814220459515
 20
-46.58331776613194
 30
0.0
 10
707.9598417674546
 20
-46.68163693277398
 30
0.0
 10
708.4645962117729
 20
-46.70354443276853
 30
0.0
 10
708.93647176721
 20
-46.13842971068771
 30
0.0
 10
708.7554614894775
 20
-45.63914332192344
 30
0.0
 10
707.6934945452992
 20
-42.7230116559858
 30
0.0
 10
703.7083051018506
 20
-41.97653387839464
 30
0.0
 10
703.1590653797658
 20
-41.95212165617856
 30
0.0
 10
703.1590653797658
 20
-41.95212165617856
 30
0.0
 10
703.1319367686615
 20
-40.84549304534428
 30
0.0
 10
703.1319367686615
 20
-40.84549304534428
 30
0.0
 10
703.1319367686615
 20
-40.84549304534428
 30
0.0
 10
703.214768990863
 20
-40.62278443428884
 30
0.0
 10
703.214768990863
 20
-40.62278443428884
 30
0.0
 10
706.1513970456845
 20
-41.2327372119139
 30
0.0
 10
707.2675506565164
 20
-38.68987971254968
 30
0.0
 10
705.556684268055
 20
-38.46262026816214
 30
0.0
 10
704.8867239904451
 20
-38.38074054596033
 30
0.0
 10
704.41844676834
 20
-38.31914554597562
 30
0.0
 10
704.090857323977
 20
-38.26753415709984
 30
0.0
 10
704.090857323977
 20
-38.26753415709984
 30
0.0
 10
705.0622309348456
 20
-35.65602610219697
 30
0.0
 10
705.0622309348456
 20
-35.65602610219697
 30
0.0
 10
705.2389373236906
 20
-35.4802369355745
 30
0.0
 10
705.3357748236663
 20
-35.22955304674817
 30
0.0
 10
705.3128442681162
 20
-34.98232638014344
 30
0.0
 10
705.3128442681162
 20
-34.98232638014344
 30
0.0
 10
712.6287498218426
 20
-15.31408332950476
 30
0.0
 10
712.6287498218426
 20
-15.31408332950476
 30
0.0
 10
712.6287498218426
 20
-15.31408332950476
 30
0.0
 10
756.1438534220753
 20
-132.2916666335938
 30
0.0
 10
756.1438534220753
 20
-132.2916666335938
 30
0.0
 10
756.1438534220753
 20
-132.2916666335938
 30
0.0
 10
705.45303815697
 20
-132.2916666335938
 30
0.0
 10
705.45303815697
 20
-132.2916666335938
 30
0.0
  0
SPLINE
  5
67
330
1F
100
AcDbEntity
  8
_U+0421_U+043B_U+043E_U+0439 1
 62
     1
420
 16716288
370
     5
100
AcDbSpline
210
0.0
220
0.0
230
1.0
 70
    11
 71
     3
 72
    38
 73
    34
 74
     0
 42
0.0000000001
 43
0.0000000001
 12
1.0
 22
0.0
 32
0.0
 13
1.0
 23
0.0
 33
0.0
 40
0.0
 40
0.0
 40
0.0
 40
0.0
 40
1.0
 40
1.0
 40
1.0
 40
2.0
 40
2.0
 40
2.0
 40
3.0
 40
3.0
 40
3.0
 40
4.0
 40
4.0
 40
4.0
 40
5.0
 40
5.0
 40
5.0
 40
6.0
 40
6.0
 40
6.0
 40
7.0
 40
7.0
 40
7.0
 40
8.0
 40
8.0
 40
8.0
 40
9.0
 40
9.0
 40
9.0
 40
10.0
 40
10.0
 40
10.0
 40
11.0
 40
11.0
 40
11.0
 40
11.0
 10
600.798194294245
 20
-2.158999999460212
 30
0.0
 10
557.4033173606492
 20
-118.8212352480725
 30
0.0
 10
562.3507787483012
 20
-105.5149866402876
 30
0.0
 10
558.6659443047779
 20
-115.4288888600319
 30
0.0
 10
558.6624165270013
 20
-115.4324166378083
 30
0.0
 10
558.6624165270013
 20
-115.4359444155852
 30
0.0
 10
558.6588887492243
 20
-115.4394721933622
 30
0.0
 10
558.6588887492243
 20
-115.4394721933622
 30
0.0
 10
558.6271387492322
 20
-115.5241388600076
 30
0.0
 10
558.6271387492322
 20
-115.5241388600076
 30
0.0
 10
558.6271387492322
 20
-115.5276666377846
 30
0.0
 10
558.6271387492322
 20
-115.5276666377846
 30
0.0
 10
558.6271387492322
 20
-115.5311944155616
 30
0.0
 10
555.7260354166241
 20
-123.3362616358329
 30
0.0
 10
552.1944123619513
 20
-132.8246433001272
 30
0.0
 10
550.6861109734396
 20
-136.8777777435583
 30
0.0
 10
550.6861109734396
 20
-136.8777777435583
 30
0.0
 10
590.8498609633988
 20
-136.8777777435583
 30
0.0
 10
590.8498609633988
 20
-136.8777777435583
 30
0.0
 10
590.8498609633988
 20
-136.8777777435583
 30
0.0
 10
590.8498609633988
 20
-152.3999999619
 30
0.0
 10
590.8498609633988
 20
-152.3999999619
 30
0.0
 10
590.8498609633988
 20
-152.3999999619
 30
0.0
 10
610.8523609583981
 20
-152.3999999619
 30
0.0
 10
610.8523609583981
 20
-152.3999999619
 30
0.0
 10
610.8523609583981
 20
-152.3999999619
 30
0.0
 10
610.8523609583981
 20
-136.8777777435583
 30
0.0
 10
610.8523609583981
 20
-136.8777777435583
 30
0.0
 10
610.8523609583981
 20
-136.8777777435583
 30
0.0
 10
650.9138053928274
 20
-136.8777777435583
 30
0.0
 10
650.9138053928274
 20
-136.8777777435583
 30
0.0
 10
619.7793320672774
 20
-53.18827026448079
 30
0.0
 10
636.7037401186018
 20
-98.6835155308846
 30
0.0
 10
600.798194294245
 20
-2.158999999460212
 30
0.0
  0
SPLINE
  5
68
330
1F
100
AcDbEntity
  8
_U+0421_U+043B_U+043E_U+0439 1
 62
     1
420
 16716288
370
     5
100
AcDbSpline
210
0.0
220
0.0
230
1.0
 70
    11
 71
     3
 72
    32
 73
    28
 74
     0
 42
0.0000000001
 43
0.0000000001
 12
1.0
 22
0.0
 32
0.0
 13
1.0
 23
0.0
 33
0.0
 40
0.0
 40
0.0
 40
0.0
 40
0.0
 40
1.0
 40
1.0
 40
1.0
 40
2.0
 40
2.0
 40
2.0
 40
3.0
 40
3.0
 40
3.0
 40
4.0
 40
4.0
 40
4.0
 40
5.0
 40
5.0
 40
5.0
 40
6.0
 40
6.0
 40
6.0
 40
7.0
 40
7.0
 40
7.0
 40
8.0
 40
8.0
 40
8.0
 40
9.0
 40
9.0
 40
9.0
 40
9.0
 10
566.6422498583393
 20
-132.2916666335938
 30
0.0
 10
566.6422498583393
 20
-132.2916666335938
 30
0.0
 10
557.2865831940118
 20
-132.2916666335938
 30
0.0
 10
557.2865831940118
 20
-132.2916666335938
 30
0.0
 10
557.2865831940118
 20
-132.2916666335938
 30
0.0
 10
558.4542776381644
 20
-129.1519444121566
 30
0.0
 10
558.4542776381644
 20
-129.1519444121566
 30
0.0
 10
558.4930831937102
 20
-129.2471944121329
 30
0.0
 10
558.5777498603555
 20
-129.3212777454474
 30
0.0
 10
558.69769430477
 20
-129.3318610787784
 30
0.0
 10
560.3522220821341
 20
-129.4659166343001
 30
0.0
 10
562.0490831928211
 20
-129.0849166343954
 30
0.0
 10
563.5342423591164
 20
-128.1676944124023
 30
0.0
 10
563.7671462479472
 20
-128.0195277457727
 30
0.0
 10
564.0598812478742
 20
-128.2558888568248
 30
0.0
 10
563.9646665256756
 20
-128.516944412315
 30
0.0
 10
563.7918054146076
 20
-128.9861388566421
 30
0.0
 10
563.5695554146633
 20
-129.4271110787541
 30
0.0
 10
563.2943887480652
 20
-129.8398610786509
 30
0.0
 10
563.1814645814268
 20
-130.0091944119424
 30
0.0
 10
563.2661312480726
 20
-130.2420277452175
 30
0.0
 10
563.4672498591331
 20
-130.2914166340938
 30
0.0
 10
564.5679165255249
 20
-130.559527745138
 30
0.0
 10
565.6473812474773
 20
-130.4924999673767
 30
0.0
 10
566.6422498583393
 20
-130.1644166341253
 30
0.0
 10
566.6422498583393
 20
-130.1644166341253
 30
0.0
 10
566.6422498583393
 20
-132.2916666335938
 30
0.0
 10
566.6422498583393
 20
-132.2916666335938
 30
0.0
  0
SPLINE
  5
69
330
1F
100
AcDbEntity
  8
_U+0421_U+043B_U+043E_U+0439 1
 62
     1
420
 16716288
370
     5
100
AcDbSpline
210
0.0
220
0.0
230
1.0
 70
    11
 71
     3
 72
    17
 73
    13
 74
     0
 42
0.0000000001
 43
0.0000000001
 12
1.0
 22
0.0
 32
0.0
 13
1.0
 23
0.0
 33
0.0
 40
0.0
 40
0.0
 40
0.0
 40
0.0
 40
1.0
 40
1.0
 40
1.0
 40
2.0
 40
2.0
 40
2.0
 40
3.0
 40
3.0
 40
3.0
 40
4.0
 40
4.0
 40
4.0
 40
4.0
 10
636.6544923408366
 20
-111.7000277498525
 30
0.0
 10
636.6544923408366
 20
-111.7000277498525
 30
0.0
 10
638.7112220625446
 20
-117.2351110818022
 30
0.0
 10
638.7112220625446
 20
-117.2351110818022
 30
0.0
 10
635.9983962298894
 20
-116.8788055263357
 30
0.0
 10
633.447777619416
 20
-115.7393333043985
 30
0.0
 10
631.3487498421628
 20
-113.820222193767
 30
0.0
 10
631.0418331755728
 20
-113.5450555271695
 30
0.0
 10
631.2534998421867
 20
-113.0335277495194
 30
0.0
 10
631.6627220643065
 20
-113.0476388606272
 30
0.0
 10
633.4724367860763
 20
-113.1146666383878
 30
0.0
 10
635.2116665078639
 20
-112.6489999718377
 30
0.0
 10
636.6544923408366
 20
-111.7000277498525
 30
0.0
  0
SPLINE
  5
6A
330
1F
100
AcDbEntity
  8
_U+0421_U+043B_U+043E_U+0439 1
 62
     1
420
 16716288
370
     5
100
AcDbSpline
210
0.0
220
0.0
230
1.0
 70
    11
 71
     3
 72
    17
 73
    13
 74
     0
 42
0.0000000001
 43
0.0000000001
 12
1.0
 22
0.0
 32
0.0
 13
1.0
 23
0.0
 33
0.0
 40
0.0
 40
0.0
 40
0.0
 40
0.0
 40
1.0
 40
1.0
 40
1.0
 40
2.0
 40
2.0
 40
2.0
 40
3.0
 40
3.0
 40
3.0
 40
4.0
 40
4.0
 40
4.0
 40
4.0
 10
628.2478331762716
 20
-101.3071944191177
 30
0.0
 10
630.643758731228
 20
-101.3393324746651
 30
0.0
 10
631.472574842132
 20
-100.4964405304317
 30
0.0
 10
632.4056720641207
 20
-100.2836802527071
 30
0.0
 10
632.4056720641207
 20
-100.2836802527071
 30
0.0
 10
633.8146665082131
 20
-104.0694444184271
 30
0.0
 10
633.8146665082131
 20
-104.0694444184271
 30
0.0
 10
631.7908156753855
 20
-103.891468029583
 30
0.0
 10
629.7773012314445
 20
-103.2194616408616
 30
0.0
 10
628.0079090096648
 20
-102.1291666411344
 30
0.0
 10
627.6234517875388
 20
-101.8963333078593
 30
0.0
 10
627.7963128986065
 20
-101.2966110857868
 30
0.0
 10
628.2478331762716
 20
-101.3071944191177
 30
0.0
  0
SPLINE
  5
6B
330
1F
100
AcDbEntity
  8
_U+0421_U+043B_U+043E_U+0439 1
 62
     1
420
 16716288
370
     5
100
AcDbSpline
210
0.0
220
0.0
230
1.0
 70
    11
 71
     3
 72
    17
 73
    13
 74
     0
 42
0.0000000001
 43
0.0000000001
 12
1.0
 22
0.0
 32
0.0
 13
1.0
 23
0.0
 33
0.0
 40
0.0
 40
0.0
 40
0.0
 40
0.0
 40
1.0
 40
1.0
 40
1.0
 40
2.0
 40
2.0
 40
2.0
 40
3.0
 40
3.0
 40
3.0
 40
4.0
 40
4.0
 40
4.0
 40
4.0
 10
631.2041109533101
 20
-97.05622219795845
 30
0.0
 10
631.2041109533101
 20
-97.05622219795845
 30
0.0
 10
631.7922267864965
 20
-98.63546719756363
 30
0.0
 10
631.7922267864965
 20
-98.63546719756363
 30
0.0
 10
631.3912242865968
 20
-98.7278244197622
 30
0.0
 10
630.7623273423093
 20
-99.01558525302394
 30
0.0
 10
629.4154923426461
 20
-97.88877775330543
 30
0.0
 10
629.0839165093955
 20
-97.610083308931
 30
0.0
 10
629.3026387315634
 20
-97.06680553128874
 30
0.0
 10
629.7365906758993
 20
-97.10208330905782
 30
0.0
 10
630.2339720646637
 20
-97.14088886460388
 30
0.0
 10
630.7278609534293
 20
-97.12677775349599
 30
0.0
 10
631.2041109533101
 20
-97.05622219795845
 30
0.0
  0
SPLINE
  5
6C
330
1F
100
AcDbEntity
  8
_U+0421_U+043B_U+043E_U+0439 1
 62
     1
420
 16716288
370
     5
100
AcDbSpline
210
0.0
220
0.0
230
1.0
 70
    11
 71
     3
 72
    17
 73
    13
 74
     0
 42
0.0000000001
 43
0.0000000001
 12
1.0
 22
0.0
 32
0.0
 13
1.0
 23
0.0
 33
0.0
 40
0.0
 40
0.0
 40
0.0
 40
0.0
 40
1.0
 40
1.0
 40
1.0
 40
2.0
 40
2.0
 40
2.0
 40
3.0
 40
3.0
 40
3.0
 40
4.0
 40
4.0
 40
4.0
 40
4.0
 10
629.4331665093085
 20
-92.2901944213721
 30
0.0
 10
627.6657498430836
 20
-91.99033331033583
 30
0.0
 10
625.8348331768748
 20
-91.25655553274153
 30
0.0
 10
624.1344442884108
 20
-89.61261108870812
 30
0.0
 10
623.8592423440351
 20
-89.34802775544092
 30
0.0
 10
624.0250831773272
 20
-88.88588886666712
 30
0.0
 10
624.406083177232
 20
-88.85061108889867
 30
0.0
 10
625.6408053991455
 20
-88.73066664448416
 30
0.0
 10
626.7555831766444
 20
-88.27205553348732
 30
0.0
 10
627.6833887319682
 20
-87.59119442254696
 30
0.0
 10
627.6833887319682
 20
-87.59119442254696
 30
0.0
 10
629.4331665093085
 20
-92.2901944213721
 30
0.0
 10
629.4331665093085
 20
-92.2901944213721
 30
0.0
  0
SPLINE
  5
6D
330
1F
100
AcDbEntity
  8
_U+0421_U+043B_U+043E_U+0439 1
 62
     1
420
 16716288
370
     5
100
AcDbSpline
210
0.0
220
0.0
230
1.0
 70
    11
 71
     3
 72
    17
 73
    13
 74
     0
 42
0.0000000001
 43
0.0000000001
 12
1.0
 22
0.0
 32
0.0
 13
1.0
 23
0.0
 33
0.0
 40
0.0
 40
0.0
 40
0.0
 40
0.0
 40
1.0
 40
1.0
 40
1.0
 40
2.0
 40
2.0
 40
2.0
 40
3.0
 40
3.0
 40
3.0
 40
4.0
 40
4.0
 40
4.0
 40
4.0
 10
621.7849442889982
 20
-71.73030553762295
 30
0.0
 10
621.7849442889982
 20
-71.73030553762295
 30
0.0
 10
622.4975906777091
 20
-73.64588887047749
 30
0.0
 10
622.4975906777091
 20
-73.64588887047749
 30
0.0
 10
621.8061109556597
 20
-73.47655553718633
 30
0.0
 10
621.1464165113799
 20
-73.18727775948098
 30
0.0
 10
620.543166511531
 20
-72.79216664846868
 30
0.0
 10
620.2045351227268
 20
-72.57344442630118
 30
0.0
 10
620.3173887338096
 20
-72.0442777597668
 30
0.0
 10
620.7195554003758
 20
-71.98077775978257
 30
0.0
 10
621.082916511396
 20
-71.92433331535229
 30
0.0
 10
621.4392573446404
 20
-71.83966664870687
 30
0.0
 10
621.7849442889982
 20
-71.73030553762295
 30
0.0
  0
SPLINE
  5
6E
330
1F
100
AcDbEntity
  8
_U+0421_U+043B_U+043E_U+0439 1
 62
     1
420
 16716288
370
     5
100
AcDbSpline
210
0.0
220
0.0
230
1.0
 70
    11
 71
     3
 72
    86
 73
    82
 74
     0
 42
0.0000000001
 43
0.0000000001
 12
1.0
 22
0.0
 32
0.0
 13
1.0
 23
0.0
 33
0.0
 40
0.0
 40
0.0
 40
0.0
 40
0.0
 40
1.0
 40
1.0
 40
1.0
 40
2.0
 40
2.0
 40
2.0
 40
3.0
 40
3.0
 40
3.0
 40
4.0
 40
4.0
 40
4.0
 40
5.0
 40
5.0
 40
5.0
 40
6.0
 40
6.0
 40
6.0
 40
7.0
 40
7.0
 40
7.0
 40
8.0
 40
8.0
 40
8.0
 40
9.0
 40
9.0
 40
9.0
 40
10.0
 40
10.0
 40
10.0
 40
11.0
 40
11.0
 40
11.0
 40
12.0
 40
12.0
 40
12.0
 40
13.0
 40
13.0
 40
13.0
 40
14.0
 40
14.0
 40
14.0
 40
15.0
 40
15.0
 40
15.0
 40
16.0
 40
16.0
 40
16.0
 40
17.0
 40
17.0
 40
17.0
 40
18.0
 40
18.0
 40
18.0
 40
19.0
 40
19.0
 40
19.0
 40
20.0
 40
20.0
 40
20.0
 40
21.0
 40
21.0
 40
21.0
 40
22.0
 40
22.0
 40
22.0
 40
23.0
 40
23.0
 40
23.0
 40
24.0
 40
24.0
 40
24.0
 40
25.0
 40
25.0
 40
25.0
 40
26.0
 40
26.0
 40
26.0
 40
27.0
 40
27.0
 40
27.0
 40
27.0
 10
605.7264998485686
 20
-132.2916666335938
 30
0.0
 10
605.7264998485686
 20
-132.2916666335938
 30
0.0
 10
578.2874442998725
 20
-132.2916666335938
 30
0.0
 10
578.2874442998725
 20
-132.2916666335938
 30
0.0
 10
578.2874442998725
 20
-132.2916666335938
 30
0.0
 10
578.2874442998725
 20
-130.1644166341253
 30
0.0
 10
578.2874442998725
 20
-130.1644166341253
 30
0.0
 10
579.2858406885118
 20
-130.4924999673767
 30
0.0
 10
580.3617776326873
 20
-130.559527745138
 30
0.0
 10
581.4694998546328
 20
-130.2914166340938
 30
0.0
 10
581.6670906879166
 20
-130.2420277452175
 30
0.0
 10
581.7517573545623
 20
-130.0091944119424
 30
0.0
 10
581.6388331879235
 20
-129.8398610786509
 30
0.0
 10
581.3636665213257
 20
-129.4271110787541
 30
0.0
 10
581.1414517991592
 20
-128.9861388566421
 30
0.0
 10
580.9685906880914
 20
-128.516944412315
 30
0.0
 10
580.876868465892
 20
-128.2558888568248
 30
0.0
 10
581.1661109658195
 20
-128.0195277457727
 30
0.0
 10
581.3989795768728
 20
-128.1676944124023
 30
0.0
 10
582.884138743168
 20
-129.0884444121724
 30
0.0
 10
584.5845629094096
 20
-129.4694444120771
 30
0.0
 10
586.2425831867727
 20
-129.3318610787784
 30
0.0
 10
586.5283331867014
 20
-129.3106944121165
 30
0.0
 10
586.6095073533477
 20
-128.9332221899888
 30
0.0
 10
586.3660554089641
 20
-128.7850555233591
 30
0.0
 10
585.6534442980311
 20
-128.361722190132
 30
0.0
 10
585.10667402039
 20
-127.6526388569759
 30
0.0
 10
585.1877776314809
 20
-126.7213055238749
 30
0.0
 10
585.2019240203664
 20
-126.5378610794768
 30
0.0
 10
585.3783129092111
 20
-126.4179166350623
 30
0.0
 10
585.551174020279
 20
-126.4602499683847
 30
0.0
 10
586.4542498533866
 20
-126.6789721905525
 30
0.0
 10
587.1950831865345
 20
-126.6542777461144
 30
0.0
 10
587.6466387419774
 20
-126.6048888572374
 30
0.0
 10
588.3592498529102
 20
-126.5272777461459
 30
0.0
 10
589.7703609636685
 20
-126.3791110795163
 30
0.0
 10
590.7158054078767
 20
-125.2537499686863
 30
0.0
 10
590.9874442966975
 20
-124.9327221909888
 30
0.0
 10
591.1603054077653
 20
-124.5975833021841
 30
0.0
 10
591.2731942966262
 20
-124.3083055244788
 30
0.0
 10
591.3578609632716
 20
-124.1001666356419
 30
0.0
 10
591.1814720744269
 20
-123.8779166356971
 30
0.0
 10
590.9591867967049
 20
-123.9096666356892
 30
0.0
 10
588.2463609640496
 20
-124.2871388578169
 30
0.0
 10
585.558194298055
 20
-123.5427777468923
 30
0.0
 10
583.5227017985638
 20
-121.6801110806911
 30
0.0
 10
583.321583187503
 20
-121.4966666362924
 30
0.0
 10
583.4591665208018
 20
-121.1579999697107
 30
0.0
 10
583.730770131845
 20
-121.168583303041
 30
0.0
 10
585.1524998537118
 20
-121.2214999696949
 30
0.0
 10
586.5071665200398
 20
-120.773472192029
 30
0.0
 10
587.5408054086705
 20
-119.8879999700281
 30
0.0
 10
589.4916665192937
 20
-121.457861080747
 30
0.0
 10
592.5114795740946
 20
-121.5954444140457
 30
0.0
 10
594.7021942957691
 20
-121.0768610808416
 30
0.0
 10
594.9667776290363
 20
-121.013361080858
 30
0.0
 10
595.2313609623035
 20
-121.1968055252561
 30
0.0
 10
595.2525629067425
 20
-121.4684444140772
 30
0.0
 10
595.3689090178246
 20
-122.8372221915132
 30
0.0
 10
594.5998887402388
 20
-123.9449444134583
 30
0.0
 10
593.4745276294092
 20
-124.6152221910683
 30
0.0
 10
593.1041109628351
 20
-124.8339444132362
 30
0.0
 10
593.2346387405804
 20
-125.4089721908699
 30
0.0
 10
593.6615351293624
 20
-125.440722190862
 30
0.0
 10
596.1768054065113
 20
-125.645333301922
 30
0.0
 10
598.7520831836454
 20
-125.0667777465112
 30
0.0
 10
601.0028054053049
 20
-123.6697777468602
 30
0.0
 10
601.3591109607714
 20
-123.447527746916
 30
0.0
 10
601.8000831828834
 20
-123.8073610801595
 30
0.0
 10
601.6554442940304
 20
-124.2024721911715
 30
0.0
 10
601.3979165163172
 20
-124.9115555243277
 30
0.0
 10
601.0592498497352
 20
-125.5853610797147
 30
0.0
 10
600.6429720720618
 20
-126.2097777462254
 30
0.0
 10
600.4736387387705
 20
-126.4708333017156
 30
0.0
 10
600.6006387387387
 20
-126.8236110794052
 30
0.0
 10
600.9005351275528
 20
-126.8976944127197
 30
0.0
 10
602.5762295715783
 20
-127.3033888570633
 30
0.0
 10
604.2130831822799
 20
-127.201083301533
 30
0.0
 10
605.7264998485686
 20
-126.7036666349907
 30
0.0
 10
605.7264998485686
 20
-126.7036666349907
 30
0.0
 10
605.7264998485686
 20
-132.2916666335938
 30
0.0
 10
605.7264998485686
 20
-132.2916666335938
 30
0.0
  0
SPLINE
  5
6F
330
1F
100
AcDbEntity
  8
_U+0421_U+043B_U+043E_U+0439 1
 62
     1
420
 16716288
370
     5
100
AcDbSpline
210
0.0
220
0.0
230
1.0
 70
    11
 71
     3
 72
   218
 73
   214
 74
     0
 42
0.0000000001
 43
0.0000000001
 12
1.0
 22
0.0
 32
0.0
 13
1.0
 23
0.0
 33
0.0
 40
0.0
 40
0.0
 40
0.0
 40
0.0
 40
1.0
 40
1.0
 40
1.0
 40
2.0
 40
2.0
 40
2.0
 40
3.0
 40
3.0
 40
3.0
 40
4.0
 40
4.0
 40
4.0
 40
5.0
 40
5.0
 40
5.0
 40
6.0
 40
6.0
 40
6.0
 40
7.0
 40
7.0
 40
7.0
 40
8.0
 40
8.0
 40
8.0
 40
9.0
 40
9.0
 40
9.0
 40
10.0
 40
10.0
 40
10.0
 40
11.0
 40
11.0
 40
11.0
 40
12.0
 40
12.0
 40
12.0
 40
13.0
 40
13.0
 40
13.0
 40
14.0
 40
14.0
 40
14.0
 40
15.0
 40
15.0
 40
15.0
 40
16.0
 40
16.0
 40
16.0
 40
17.0
 40
17.0
 40
17.0
 40
18.0
 40
18.0
 40
18.0
 40
19.0
 40
19.0
 40
19.0
 40
20.0
 40
20.0
 40
20.0
 40
21.0
 40
21.0
 40
21.0
 40
22.0
 40
22.0
 40
22.0
 40
23.0
 40
23.0
 40
23.0
 40
24.0
 40
24.0
 40
24.0
 40
25.0
 40
25.0
 40
25.0
 40
26.0
 40
26.0
 40
26.0
 40
27.0
 40
27.0
 40
27.0
 40
28.0
 40
28.0
 40
28.0
 40
29.0
 40
29.0
 40
29.0
 40
30.0
 40
30.0
 40
30.0
 40
31.0
 40
31.0
 40
31.0
 40
32.0
 40
32.0
 40
32.0
 40
33.0
 40
33.0
 40
33.0
 40
34.0
 40
34.0
 40
34.0
 40
35.0
 40
35.0
 40
35.0
 40
36.0
 40
36.0
 40
36.0
 40
37.0
 40
37.0
 40
37.0
 40
38.0
 40
38.0
 40
38.0
 40
39.0
 40
39.0
 40
39.0
 40
40.0
 40
40.0
 40
40.0
 40
41.0
 40
41.0
 40
41.0
 40
42.0
 40
42.0
 40
42.0
 40
43.0
 40
43.0
 40
43.0
 40
44.0
 40
44.0
 40
44.0
 40
45.0
 40
45.0
 40
45.0
 40
46.0
 40
46.0
 40
46.0
 40
47.0
 40
47.0
 40
47.0
 40
48.0
 40
48.0
 40
48.0
 40
49.0
 40
49.0
 40
49.0
 40
50.0
 40
50.0
 40
50.0
 40
51.0
 40
51.0
 40
51.0
 40
52.0
 40
52.0
 40
52.0
 40
53.0
 40
53.0
 40
53.0
 40
54.0
 40
54.0
 40
54.0
 40
55.0
 40
55.0
 40
55.0
 40
56.0
 40
56.0
 40
56.0
 40
57.0
 40
57.0
 40
57.0
 40
58.0
 40
58.0
 40
58.0
 40
59.0
 40
59.0
 40
59.0
 40
60.0
 40
60.0
 40
60.0
 40
61.0
 40
61.0
 40
61.0
 40
62.0
 40
62.0
 40
62.0
 40
63.0
 40
63.0
 40
63.0
 40
64.0
 40
64.0
 40
64.0
 40
65.0
 40
65.0
 40
65.0
 40
66.0
 40
66.0
 40
66.0
 40
67.0
 40
67.0
 40
67.0
 40
68.0
 40
68.0
 40
68.0
 40
69.0
 40
69.0
 40
69.0
 40
70.0
 40
70.0
 40
70.0
 40
71.0
 40
71.0
 40
71.0
 40
71.0
 10
614.9869165129202
 20
-61.34452776244176
 30
0.0
 10
614.8528609573981
 20
-60.93530554032158
 30
0.0
 10
614.277833179764
 20
-60.93530554032158
 30
0.0
 10
614.1402498464649
 20
-61.34452776244176
 30
0.0
 10
612.7467423468133
 20
-65.54963887250162
 30
0.0
 10
609.571742347607
 20
-69.04566664940535
 30
0.0
 10
605.2114795709196
 20
-69.69124998257726
 30
0.0
 10
604.8198609599061
 20
-69.75122220478451
 30
0.0
 10
604.6858406821618
 20
-70.24158331577283
 30
0.0
 10
604.996249848751
 20
-70.48852776015579
 30
0.0
 10
605.9910831818357
 20
-71.285805537734
 30
0.0
 10
607.1623406815429
 20
-71.78322220427627
 30
0.0
 10
608.4111387367861
 20
-71.98077775978257
 30
0.0
 10
608.8097776255754
 20
-72.0442777597668
 30
0.0
 10
608.9262295699908
 20
-72.57344442630118
 30
0.0
 10
608.587527625631
 20
-72.79216664846868
 30
0.0
 10
607.6879795703003
 20
-73.38130553721031
 30
0.0
 10
606.661325681668
 20
-73.73408331489989
 30
0.0
 10
605.5889165152695
 20
-73.82227775932229
 30
0.0
 10
605.1867498487032
 20
-73.8540277593144
 30
0.0
 10
605.024472070966
 20
-74.36555553696424
 30
0.0
 10
605.345464570886
 20
-74.61602775912385
 30
0.0
 10
606.4249998483938
 20
-75.45211109224813
 30
0.0
 10
607.7091109591839
 20
-75.91072220324465
 30
0.0
 10
609.060249847735
 20
-76.02008331432823
 30
0.0
 10
609.4165554032013
 20
-76.04830553654338
 30
0.0
 10
609.5964720698231
 20
-76.4645833142172
 30
0.0
 10
609.3777498476555
 20
-76.74327775859227
 30
0.0
 10
607.5327220703392
 20
-79.05749998023576
 30
0.0
 10
604.6011740155164
 20
-80.0170555355512
 30
0.0
 10
601.7894998495528
 20
-79.38911109126414
 30
0.0
 10
601.4578534607466
 20
-79.315027757949
 30
0.0
 10
601.1651184608199
 20
-79.63605553564646
 30
0.0
 10
601.2709165163491
 20
-79.96061109112091
 30
0.0
 10
601.6377701273684
 20
-81.08597220195087
 30
0.0
 10
602.5409165160314
 20
-81.90088886841362
 30
0.0
 10
603.6556942935305
 20
-82.38419442384863
 30
0.0
 10
604.0578609600966
 20
-82.55705553491644
 30
0.0
 10
604.0049442934434
 20
-83.13913886810414
 30
0.0
 10
603.578047904661
 20
-83.2308610903035
 30
0.0
 10
602.1634090161258
 20
-83.54130553467006
 30
0.0
 10
600.7206184609311
 20
-83.44252775691739
 30
0.0
 10
599.3729720723791
 20
-82.98744442369751
 30
0.0
 10
599.0484517946825
 20
-82.87808331261392
 30
0.0
 10
598.7238256836523
 20
-83.16383331254231
 30
0.0
 10
598.794416516968
 20
-83.49897220134767
 30
0.0
 10
599.3800276279327
 20
-86.33883331174856
 30
0.0
 10
601.7930276273295
 20
-88.56838886674662
 30
0.0
 10
604.7316665154838
 20
-88.8470833111217
 30
0.0
 10
605.1056109598348
 20
-88.88588886666712
 30
0.0
 10
605.267888737572
 20
-89.3515555332179
 30
0.0
 10
604.996249848751
 20
-89.61613886648509
 30
0.0
 10
602.015277627274
 20
-92.49127775465506
 30
0.0
 10
598.3358406837493
 20
-92.84405553234465
 30
0.0
 10
593.8131942959911
 20
-92.28313886581816
 30
0.0
 10
593.5062776294013
 20
-92.2443333102721
 30
0.0
 10
593.2592979072408
 20
-92.52302775464717
 30
0.0
 10
593.3228331850029
 20
-92.82641664345978
 30
0.0
 10
593.9366665181826
 20
-95.72624997606857
 30
0.0
 10
596.5260201286465
 20
-97.33844442010987
 30
0.0
 10
599.397701794595
 20
-97.10208330905782
 30
0.0
 10
599.8280554055987
 20
-97.06680553128874
 30
0.0
 10
600.0467423499883
 20
-97.610083308931
 30
0.0
 10
599.7186942945148
 20
-97.88877775330543
 30
0.0
 10
598.8049998502986
 20
-98.6613610864458
 30
0.0
 10
597.6373406839241
 20
-99.01413886413539
 30
0.0
 10
596.4802295731024
 20
-98.92594441971299
 30
0.0
 10
596.0356942954356
 20
-98.8906666419439
 30
0.0
 10
595.8169367954903
 20
-99.44099997513948
 30
0.0
 10
596.1591665176268
 20
-99.71969441951455
 30
0.0
 10
597.4997220728472
 20
-100.8062499747984
 30
0.0
 10
599.1471942946577
 20
-101.3354166413328
 30
0.0
 10
600.8616942942289
 20
-101.3107221968946
 30
0.0
 10
601.3238331830024
 20
-101.3036666413407
 30
0.0
 10
601.5002220718471
 20
-101.8998610856363
 30
0.0
 10
601.108603460834
 20
-102.1397499744653
 30
0.0
 10
598.999027628028
 20
-103.4309166408091
 30
0.0
 10
596.5542776286394
 20
-104.1435277517416
 30
0.0
 10
593.989583184836
 20
-104.1258888628574
 30
0.0
 10
593.6120756849303
 20
-104.1258888628574
 30
0.0
 10
593.4110276294252
 20
-104.5703888627463
 30
0.0
 10
593.650916518254
 20
-104.8667221960056
 30
0.0
 10
594.0883609625889
 20
-105.4029444180939
 30
0.0
 10
594.6104720735697
 20
-105.8509721957592
 30
0.0
 10
595.1925201289798
 20
-106.1966944178955
 30
0.0
 10
595.5347498511164
 20
-106.4013055289554
 30
0.0
 10
595.4712498511321
 20
-106.909305528828
 30
0.0
 10
595.0902498512274
 20
-107.0151388621352
 30
0.0
 10
593.4356867960856
 20
-107.4808055286854
 30
0.0
 10
591.717729574293
 20
-107.6642499730841
 30
0.0
 10
589.9890479080585
 20
-107.5584166397769
 30
0.0
 10
589.653944297031
 20
-107.5372499731157
 30
0.0
 10
589.4246740193107
 20
-107.8794444174743
 30
0.0
 10
589.5551312415001
 20
-108.1863610840646
 30
0.0
 10
590.9486387411517
 20
-111.431916638809
 30
0.0
 10
594.0848331848123
 20
-113.1746388605951
 30
0.0
 10
597.4679720728554
 20
-113.0476388606272
 30
0.0
 10
597.8771942949753
 20
-113.0335277495194
 30
0.0
 10
598.0853331838123
 20
-113.5450555271695
 30
0.0
 10
597.781944294999
 20
-113.820222193767
 30
0.0
 10
594.6880831846612
 20
-116.6494999708376
 30
0.0
 10
590.6099367967919
 20
-117.7819166372215
 30
0.0
 10
586.4930554089323
 20
-117.2104166373641
 30
0.0
 10
586.3201942978645
 20
-117.1857221929259
 30
0.0
 10
586.1650073534587
 20
-117.2598055262404
 30
0.0
 10
586.0732851312597
 20
-117.3832777484319
 30
0.0
 10
585.8122295757692
 20
-117.3303610817786
 30
0.0
 10
585.5547017980559
 20
-117.2703888595713
 30
0.0
 10
585.2971387425648
 20
-117.1963055262562
 30
0.0
 10
585.0431387426282
 20
-117.1257499707186
 30
0.0
 10
585.0008054093055
 20
-116.7906110819133
 30
0.0
 10
585.2265479092491
 20
-116.6565555263915
 30
0.0
 10
585.6111109647084
 20
-116.4272499708934
 30
0.0
 10
585.956833186844
 20
-116.1309166376341
 30
0.0
 10
586.2461109645496
 20
-115.7781388599445
 30
0.0
 10
586.4048609645099
 20
-115.5805833044379
 30
0.0
 10
586.2708054089878
 20
-115.2913055267326
 30
0.0
 10
586.0202979090507
 20
-115.2913055267326
 30
0.0
 10
585.3959165203179
 20
-115.2948333045095
 30
0.0
 10
584.6268609649544
 20
-115.2348610823023
 30
0.0
 10
583.7766665207226
 20
-115.0196666379121
 30
0.0
 10
582.7747776320841
 20
-114.7621388601982
 30
0.0
 10
581.9528054100674
 20
-114.3634999714092
 30
0.0
 10
581.3213684657809
 20
-113.9789721937275
 30
0.0
 10
581.0673331880665
 20
-113.820222193767
 30
0.0
 10
581.183749854704
 20
-113.428638860532
 30
0.0
 10
581.4800831879634
 20
-113.4321666383089
 30
0.0
 10
582.1750554100119
 20
-113.4462777494162
 30
0.0
 10
583.0711109653435
 20
-113.3263333050017
 30
0.0
 10
583.9601462428989
 20
-112.8218610829055
 30
0.0
 10
584.19999985395
 20
-112.6842777496067
 30
0.0
 10
584.4116665205639
 20
-112.5361110829771
 30
0.0
 10
584.5986387427392
 20
-112.3844166385705
 30
0.0
 10
584.8208887426838
 20
-112.2009721941717
 30
0.0
 10
584.6727573538319
 20
-111.8376110831519
 30
0.0
 10
584.3869720761254
 20
-111.86230552759
 30
0.0
 10
584.0271387428822
 20
-111.8940555275822
 30
0.0
 10
583.5967498541008
 20
-111.865833305367
 30
0.0
 10
583.1381387431043
 20
-111.7000277498525
 30
0.0
 10
582.7712498543071
 20
-111.5659721943307
 30
0.0
 10
582.4784442988248
 20
-111.375472194378
 30
0.0
 10
582.2491387433267
 20
-111.181444416649
 30
0.0
 10
582.0304165211592
 20
-110.9979999722503
 30
0.0
 10
582.1750554100119
 20
-110.6416944167837
 30
0.0
 10
582.4608406877181
 20
-110.6628610834456
 30
0.0
 10
583.6743609651926
 20
-110.7616388611983
 30
0.0
 10
584.8385629093461
 20
-110.3594721946323
 30
0.0
 10
585.6111109647084
 20
-109.5233888615077
 30
0.0
 10
586.1722745756791
 20
-108.9132244172163
 30
0.0
 10
586.8706687421715
 20
-107.4109908064809
 30
0.0
 10
586.1402776312427
 20
-107.4878610842393
 30
0.0
 10
585.9250831868522
 20
-107.5125555286775
 30
0.0
 10
585.6675201313611
 20
-107.5372499731157
 30
0.0
 10
585.3818054092103
 20
-107.5548888619999
 30
0.0
 10
583.4661867985778
 20
-107.6748333064144
 30
0.0
 10
580.9580073547608
 20
-107.8441666397059
 30
0.0
 10
578.7707498553076
 20
-105.7310277513447
 30
0.0
 10
578.5908331886858
 20
-105.5581666402769
 30
0.0
 10
578.7001590219919
 20
-105.2512499736873
 30
0.0
 10
578.9471387441523
 20
-105.2265555292492
 30
0.0
 10
580.6722220770542
 20
-105.0642777515116
 30
0.0
 10
582.0550756878196
 20
-103.8859999740284
 30
0.0
 10
582.6337017987862
 20
-102.4466666410549
 30
0.0
 10
582.7394998543153
 20
-102.1785555300107
 30
0.0
 10
582.810090687631
 20
-101.9280833078514
 30
0.0
 10
582.8558812431751
 20
-101.7023055301303
 30
0.0
 10
582.9018129098301
 20
-101.4800555301855
 30
0.0
 10
582.6901109654387
 20
-101.2930833080098
 30
0.0
 10
582.4749165210482
 20
-101.3671666413249
 30
0.0
 10
581.5894442990473
 20
-101.6670277523612
 30
0.0
 10
580.6369442992851
 20
-101.7305277523454
 30
0.0
 10
579.7056109661848
 20
-101.5294444190618
 30
0.0
 10
579.4233887440331
 20
-101.4659444190782
 30
0.0
 10
579.3881109662643
 20
-101.0849444191735
 30
0.0
 10
579.6526942995315
 20
-100.9685277525353
 30
0.0
 10
580.386436799348
 20
-100.6510277526149
 30
0.0
 10
580.982666521421
 20
-100.1183333083035
 30
0.0
 10
581.2261184658046
 20
-99.37044441960194
 30
0.0
 10
581.293110965788
 20
-99.15877775298806
 30
0.0
 10
581.1026109658355
 20
-98.94711108637418
 30
0.0
 10
580.8838887436681
 20
-98.99649997525117
 30
0.0
 10
577.5904965222691
 20
-99.73045414173436
 30
0.0
 10
574.9994143006946
 20
-96.85919580911846
 30
0.0
 10
576.0931665226435
 20
-96.77752775358337
 30
0.0
 10
576.9821665224212
 20
-96.70697219804521
 30
0.0
 10
577.8287979110985
 20
-96.4035833092326
 30
0.0
 10
578.5414442998091
 20
-95.85324997603638
 30
0.0
 10
578.7531462442008
 20
-95.68744442052251
 30
0.0
 10
578.6437498553391
 20
-95.34877775394082
 30
0.0
 10
578.379166522072
 20
-95.32761108727898
 30
0.0
 10
577.6736109666928
 20
-95.2711666428487
 30
0.0
 10
576.9963129113065
 20
-95.03833330957363
 30
0.0
 10
576.4036109670101
 20
-94.65027775411495
 30
0.0
 10
576.181360967066
 20
-94.50563886526228
 30
0.0
 10
576.2554443003804
 20
-94.15991664312664
 30
0.0
 10
576.5200276336476
 20
-94.11758330980425
 30
0.0
 10
577.3455629112192
 20
-93.98352775428185
 30
0.0
 10
578.1145831888047
 20
-93.6589721988074
 30
0.0
 10
578.7707498553076
 20
-93.13333331005
 30
0.0
 10
578.9753256885897
 20
-92.9710555323131
 30
0.0
 10
578.8871312441672
 20
-92.64649997683865
 30
0.0
 10
578.6296387442316
 20
-92.6076944212926
 30
0.0
 10
576.3542220781337
 20
-92.26902775471027
 30
0.0
 10
574.5691665230244
 20
-90.75561108842228
 30
0.0
 10
573.4755554121868
 20
-88.76947220002958
 30
0.0
 10
573.4755554121868
 20
-88.76947220002958
 30
0.0
 10
600.798194294245
 20
-15.31408332950476
 30
0.0
 10
600.798194294245
 20
-15.31408332950476
 30
0.0
 10
600.798194294245
 20
-15.31408332950476
 30
0.0
 10
620.6031034559604
 20
-68.5553055384167
 30
0.0
 10
620.6031034559604
 20
-68.5553055384167
 30
0.0
 10
617.9431942899586
 20
-67.06658331656658
 30
0.0
 10
615.9958609571122
 20
-64.38547220612594
 30
0.0
 10
614.9869165129202
 20
-61.34452776244176
 30
0.0
  0
SPLINE
  5
70
330
1F
100
AcDbEntity
  8
_U+0421_U+043B_U+043E_U+0439 1
 62
     1
420
 16716288
370
     5
100
AcDbSpline
210
0.0
220
0.0
230
1.0
 70
    11
 71
     3
 72
    17
 73
    13
 74
     0
 42
0.0000000001
 43
0.0000000001
 12
1.0
 22
0.0
 32
0.0
 13
1.0
 23
0.0
 33
0.0
 40
0.0
 40
0.0
 40
0.0
 40
0.0
 40
1.0
 40
1.0
 40
1.0
 40
2.0
 40
2.0
 40
2.0
 40
3.0
 40
3.0
 40
3.0
 40
4.0
 40
4.0
 40
4.0
 40
4.0
 10
619.7529442895061
 20
-76.74327775859227
 30
0.0
 10
619.5306942895617
 20
-76.4645833142172
 30
0.0
 10
619.7141034561826
 20
-76.04830553654338
 30
0.0
 10
620.0668812338721
 20
-76.02008331432823
 30
0.0
 10
621.1252145669409
 20
-75.93541664768281
 30
0.0
 10
622.1377220666878
 20
-75.63555553664654
 30
0.0
 10
623.0443609553503
 20
-75.11344442566612
 30
0.0
 10
623.0443609553503
 20
-75.11344442566612
 30
0.0
 10
624.6812498438297
 20
-79.51258331345498
 30
0.0
 10
624.6812498438297
 20
-79.51258331345498
 30
0.0
 10
622.7868331776367
 20
-79.27622220240293
 30
0.0
 10
621.0158887336352
 20
-78.3307777581954
 30
0.0
 10
619.7529442895061
 20
-76.74327775859227
 30
0.0
  0
SPLINE
  5
71
330
1F
100
AcDbEntity
  8
_U+0421_U+043B_U+043E_U+0439 1
 62
     1
420
 16716288
370
     5
100
AcDbSpline
210
0.0
220
0.0
230
1.0
 70
    11
 71
     3
 72
    38
 73
    34
 74
     0
 42
0.0000000001
 43
0.0000000001
 12
1.0
 22
0.0
 32
0.0
 13
1.0
 23
0.0
 33
0.0
 40
0.0
 40
0.0
 40
0.0
 40
0.0
 40
1.0
 40
1.0
 40
1.0
 40
2.0
 40
2.0
 40
2.0
 40
3.0
 40
3.0
 40
3.0
 40
4.0
 40
4.0
 40
4.0
 40
5.0
 40
5.0
 40
5.0
 40
6.0
 40
6.0
 40
6.0
 40
7.0
 40
7.0
 40
7.0
 40
8.0
 40
8.0
 40
8.0
 40
9.0
 40
9.0
 40
9.0
 40
10.0
 40
10.0
 40
10.0
 40
11.0
 40
11.0
 40
11.0
 40
11.0
 10
623.4041942885934
 20
-126.7036666349907
 30
0.0
 10
624.917575677104
 20
-127.201083301533
 30
0.0
 10
626.5509720655846
 20
-127.3033888570633
 30
0.0
 10
628.2302295651649
 20
-126.8976944127197
 30
0.0
 10
628.5300201206455
 20
-126.8236110794052
 30
0.0
 10
628.6570553983914
 20
-126.4708333017156
 30
0.0
 10
628.4877220651003
 20
-126.2097777462254
 30
0.0
 10
628.0714442874269
 20
-125.5853610797147
 30
0.0
 10
627.7327776208444
 20
-124.9115555243277
 30
0.0
 10
627.4716867875768
 20
-124.2024721911715
 30
0.0
 10
627.3306109542785
 20
-123.8073610801595
 30
0.0
 10
627.7680553986136
 20
-123.447527746916
 30
0.0
 10
628.1278887318571
 20
-123.6697777468602
 30
0.0
 10
630.3821034535158
 20
-125.0703055242882
 30
0.0
 10
632.9609442862044
 20
-125.645333301922
 30
0.0
 10
635.4797776189081
 20
-125.440722190862
 30
0.0
 10
635.9102017854669
 20
-125.4054444130929
 30
0.0
 10
636.0336034521027
 20
-124.8339444132362
 30
0.0
 10
635.6632220633065
 20
-124.6116944132914
 30
0.0
 10
633.5066915082899
 20
-123.3261721913905
 30
0.0
 10
633.4958612305152
 20
-120.8440983031222
 30
0.0
 10
634.428499841393
 20
-121.0803888586186
 30
0.0
 10
636.4324892853363
 20
-121.564646914053
 30
0.0
 10
638.6379148403406
 20
-121.3147038585604
 30
0.0
 10
640.0341387288805
 20
-120.7911110809132
 30
0.0
 10
640.0341387288805
 20
-120.7911110809132
 30
0.0
 10
644.3133331722549
 20
-132.2916666335938
 30
0.0
 10
644.3133331722549
 20
-132.2916666335938
 30
0.0
 10
644.3133331722549
 20
-132.2916666335938
 30
0.0
 10
623.4041942885934
 20
-132.2916666335938
 30
0.0
 10
623.4041942885934
 20
-132.2916666335938
 30
0.0
 10
623.4041942885934
 20
-132.2916666335938
 30
0.0
 10
623.4041942885934
 20
-126.7036666349907
 30
0.0
 10
623.4041942885934
 20
-126.7036666349907
 30
0.0
  0
ENDSEC
  0
SECTION
  2
OBJECTS
  0
DICTIONARY
  5
C
330
0
100
AcDbDictionary
281
     1
  3
ACAD_GROUP
350
D
  3
ACAD_LAYOUT
350
1A
  3
ACAD_MATERIAL
350
3B
  3
ACAD_MLEADERSTYLE
350
73
  3
ACAD_MLINESTYLE
350
17
  3
ACAD_PLOTSETTINGS
350
19
  3
ACAD_PLOTSTYLENAME
350
E
  3
ACAD_TABLESTYLE
350
72
  3
ACAD_VISUALSTYLE
350
2A
  0
SUN
  5
3F
330
29
100
AcDbSun
 90
        1
290
     0
 63
     7
421
 16777215
 40
1.0
291
     1
 91
  2455826
 92
 54000000
292
     0
 70
     2
 71
   256
280
     1
  0
DICTIONARY
  5
D
102
{ACAD_REACTORS
330
C
102
}
330
C
100
AcDbDictionary
281
     1
  0
DICTIONARY
  5
1A
102
{ACAD_REACTORS
330
C
102
}
330
C
100
AcDbDictionary
281
     1
  3
Layout1
350
1E
  3
Layout2
350
26
  3
Model
350
22
  0
DICTIONARY
  5
3B
102
{ACAD_REACTORS
330
C
102
}
330
C
100
AcDbDictionary
281
     1
  3
ByBlock
350
3D
  3
ByLayer
350
3C
  3
Global
350
3E
  0
DICTIONARY
  5
73
102
{ACAD_REACTORS
330
C
102
}
330
C
100
AcDbDictionary
281
     1
  0
DICTIONARY
  5
17
102
{ACAD_REACTORS
330
C
102
}
330
C
100
AcDbDictionary
281
     1
  3
Standard
350
18
  0
DICTIONARY
  5
19
102
{ACAD_REACTORS
330
C
102
}
330
C
100
AcDbDictionary
281
     1
  0
ACDBDICTIONARYWDFLT
  5
E
102
{ACAD_REACTORS
330
C
102
}
330
C
100
AcDbDictionary
281
     1
  3
Normal
350
F
100
AcDbDictionaryWithDefault
340
F
  0
DICTIONARY
  5
72
102
{ACAD_REACTORS
330
C
102
}
330
C
100
AcDbDictionary
281
     1
  0
DICTIONARY
  5
2A
102
{ACAD_REACTORS
330
C
102
}
330
C
100
AcDbDictionary
281
     1
  3
2dWireframe
350
2F
  3
3D Hidden
350
31
  3
3dWireframe
350
30
  3
Basic
350
32
  3
Brighten
350
36
  3
ColorChange
350
3A
  3
Conceptual
350
34
  3
Dim
350
35
  3
Facepattern
350
39
  3
Flat
350
2B
  3
FlatWithEdges
350
2C
  3
Gouraud
350
2D
  3
GouraudWithEdges
350
2E
  3
Linepattern
350
38
  3
Realistic
350
33
  3
Thicken
350
37
  0
LAYOUT
  5
1E
102
{ACAD_REACTORS
330
1A
102
}
330
1A
100
AcDbPlotSettings
  1

  2
none_device
  4

  6

 40
0.0
 41
0.0
 42
0.0
 43
0.0
 44
0.0
 45
0.0
 46
0.0
 47
0.0
 48
0.0
 49
0.0
140
0.0
141
0.0
142
1.0
143
1.0
 70
   688
 72
     0
 73
     0
 74
     5
  7

 75
    16
 76
     0
 77
     2
 78
   300
147
1.0
148
0.0
149
0.0
100
AcDbLayout
  1
Layout1
 70
     1
 71
     1
 10
0.0
 20
0.0
 11
12.0
 21
9.0
 12
0.0
 22
0.0
 32
0.0
 14
1.000000000000000E+20
 24
1.000000000000000E+20
 34
1.000000000000000E+20
 15
-1.000000000000000E+20
 25
-1.000000000000000E+20
 35
-1.000000000000000E+20
146
0.0
 13
0.0
 23
0.0
 33
0.0
 16
1.0
 26
0.0
 36
0.0
 17
0.0
 27
1.0
 37
0.0
 76
     0
330
1B
  0
LAYOUT
  5
26
102
{ACAD_REACTORS
330
1A
102
}
330
1A
100
AcDbPlotSettings
  1

  2
none_device
  4

  6

 40
0.0
 41
0.0
 42
0.0
 43
0.0
 44
0.0
 45
0.0
 46
0.0
 47
0.0
 48
0.0
 49
0.0
140
0.0
141
0.0
142
1.0
143
1.0
 70
   688
 72
     0
 73
     0
 74
     5
  7

 75
    16
 76
     0
 77
     2
 78
   300
147
1.0
148
0.0
149
0.0
100
AcDbLayout
  1
Layout2
 70
     1
 71
     2
 10
0.0
 20
0.0
 11
0.0
 21
0.0
 12
0.0
 22
0.0
 32
0.0
 14
0.0
 24
0.0
 34
0.0
 15
0.0
 25
0.0
 35
0.0
146
0.0
 13
0.0
 23
0.0
 33
0.0
 16
1.0
 26
0.0
 36
0.0
 17
0.0
 27
1.0
 37
0.0
 76
     0
330
23
  0
LAYOUT
  5
22
102
{ACAD_REACTORS
330
1A
102
}
330
1A
100
AcDbPlotSettings
  1

  2
none_device
  4

  6

 40
0.0
 41
0.0
 42
0.0
 43
0.0
 44
0.0
 45
0.0
 46
0.0
 47
0.0
 48
0.0
 49
0.0
140
0.0
141
0.0
142
1.0
143
1.0
 70
  1712
 72
     0
 73
     0
 74
     0
  7

 75
     0
 76
     0
 77
     2
 78
   300
147
1.0
148
0.0
149
0.0
100
AcDbLayout
  1
Model
 70
     1
 71
     0
 10
0.0
 20
0.0
 11
12.0
 21
9.0
 12
0.0
 22
0.0
 32
0.0
 14
1.000000000000000E+20
 24
1.000000000000000E+20
 34
1.000000000000000E+20
 15
-1.000000000000000E+20
 25
-1.000000000000000E+20
 35
-1.000000000000000E+20
146
0.0
 13
0.0
 23
0.0
 33
0.0
 16
1.0
 26
0.0
 36
0.0
 17
0.0
 27
1.0
 37
0.0
 76
     0
330
1F
331
29
  0
MATERIAL
  5
3D
102
{ACAD_REACTORS
330
3B
102
}
330
3B
100
AcDbMaterial
  1
ByBlock
 72
     1
 94
      127
  0
MATERIAL
  5
3C
102
{ACAD_REACTORS
330
3B
102
}
330
3B
100
AcDbMaterial
  1
ByLayer
 72
     1
 94
      127
  0
MATERIAL
  5
3E
102
{ACAD_REACTORS
330
3B
102
}
330
3B
100
AcDbMaterial
  1
Global
 72
     1
 94
      127
  0
MLINESTYLE
  5
18
102
{ACAD_REACTORS
330
17
102
}
330
17
100
AcDbMlineStyle
  2
Standard
 70
     0
  3

 62
   256
 51
90.0
 52
90.0
 71
     2
 49
0.5
 62
   256
  6
BYLAYER
 49
-0.5
 62
   256
  6
BYLAYER
  0
ACDBPLACEHOLDER
  5
F
102
{ACAD_REACTORS
330
E
102
}
330
E
  0
VISUALSTYLE
  5
2F
102
{ACAD_REACTORS
330
2A
102
}
330
2A
100
AcDbVisualStyle
  2
2dWireframe
 70
     4
177
     2
291
     0
 71
     0
176
     1
 72
     2
176
     1
 73
     0
176
     1
 90
        0
176
     1
 40
-0.6
176
     1
 41
-30.0
176
     1
 62
     5
 63
     7
421
 16777215
176
     1
 74
     1
176
     1
 91
        4
176
     1
 64
     7
176
     1
 65
   257
176
     1
 75
     1
176
     1
175
     1
176
     1
 42
1.0
176
     1
 92
        0
176
     1
 66
   257
176
     1
 43
1.0
176
     1
 76
     1
176
     1
 77
     6
176
     1
 78
     2
176
     1
 67
     7
176
     1
 79
     5
176
     1
170
     0
176
     1
171
     0
176
     1
290
     0
176
     1
 93
        1
176
     1
 44
0.0
176
     1
173
     0
176
     1
  0
VISUALSTYLE
  5
31
102
{ACAD_REACTORS
330
2A
102
}
330
2A
100
AcDbVisualStyle
  2
3D Hidden
 70
     6
177
     2
291
     0
 71
     1
176
     1
 72
     2
176
     1
 73
     2
176
     1
 90
        0
176
     1
 40
-0.6
176
     1
 41
-30.0
176
     1
 62
     5
 63
     7
421
 16777215
176
     1
 74
     2
176
     1
 91
        2
176
     1
 64
     7
176
     1
 65
   257
176
     1
 75
     2
176
     1
175
     1
176
     1
 42
40.0
176
     1
 92
        0
176
     1
 66
   257
176
     1
 43
1.0
176
     1
 76
     1
176
     1
 77
     6
176
     1
 78
     2
176
     1
 67
     7
176
     1
 79
     3
176
     1
170
     0
176
     1
171
     0
176
     1
290
     0
176
     1
 93
        1
176
     1
 44
0.0
176
     1
173
     0
176
     1
  0
VISUALSTYLE
  5
30
102
{ACAD_REACTORS
330
2A
102
}
330
2A
100
AcDbVisualStyle
  2
3dWireframe
 70
     5
177
     2
291
     0
 71
     0
176
     1
 72
     2
176
     1
 73
     0
176
     1
 90
        0
176
     1
 40
-0.6
176
     1
 41
-30.0
176
     1
 62
     5
 63
     7
421
 16777215
176
     1
 74
     1
176
     1
 91
        4
176
     1
 64
     7
176
     1
 65
   257
176
     1
 75
     1
176
     1
175
     1
176
     1
 42
1.0
176
     1
 92
        0
176
     1
 66
   257
176
     1
 43
1.0
176
     1
 76
     1
176
     1
 77
     6
176
     1
 78
     2
176
     1
 67
     7
176
     1
 79
     5
176
     1
170
     0
176
     1
171
     0
176
     1
290
     0
176
     1
 93
        1
176
     1
 44
0.0
176
     1
173
     0
176
     1
  0
VISUALSTYLE
  5
32
102
{ACAD_REACTORS
330
2A
102
}
330
2A
100
AcDbVisualStyle
  2
Basic
 70
     7
177
     2
291
     1
 71
     1
176
     1
 72
     0
176
     1
 73
     1
176
     1
 90
        0
176
     1
 40
-0.6
176
     1
 41
-30.0
176
     1
 62
     5
 63
     7
421
 16777215
176
     1
 74
     0
176
     1
 91
        4
176
     1
 64
     7
176
     1
 65
   257
176
     1
 75
     1
176
     1
175
     1
176
     1
 42
1.0
176
     1
 92
        8
176
     1
 66
     7
176
     1
 43
1.0
176
     1
 76
     1
176
     1
 77
     6
176
     1
 78
     2
176
     1
 67
     7
176
     1
 79
     5
176
     1
170
     0
176
     1
171
     0
176
     1
290
     0
176
     1
 93
        1
176
     1
 44
0.0
176
     1
173
     0
176
     1
  0
VISUALSTYLE
  5
36
102
{ACAD_REACTORS
330
2A
102
}
330
2A
100
AcDbVisualStyle
  2
Brighten
 70
    12
177
     2
291
     1
 71
     2
176
     1
 72
     2
176
     1
 73
     0
176
     1
 90
        0
176
     1
 40
-0.6
176
     1
 41
-30.0
176
     1
 62
     5
 63
     7
421
 16777215
176
     1
 74
     1
176
     1
 91
        4
176
     1
 64
     7
176
     1
 65
   257
176
     1
 75
     1
176
     1
175
     1
176
     1
 42
1.0
176
     1
 92
        8
176
     1
 66
     7
176
     1
 43
1.0
176
     1
 76
     1
176
     1
 77
     6
176
     1
 78
     2
176
     1
 67
     7
176
     1
 79
     5
176
     1
170
     0
176
     1
171
     0
176
     1
290
     0
176
     1
 93
        1
176
     1
 44
50.0
176
     1
173
     0
176
     1
  0
VISUALSTYLE
  5
3A
102
{ACAD_REACTORS
330
2A
102
}
330
2A
100
AcDbVisualStyle
  2
ColorChange
 70
    16
177
     2
291
     1
 71
     2
176
     1
 72
     2
176
     1
 73
     3
176
     1
 90
        0
176
     1
 40
-0.6
176
     1
 41
-30.0
176
     1
 62
     5
 63
     8
421
  8421504
176
     1
 74
     1
176
     1
 91
        4
176
     1
 64
     7
176
     1
 65
   257
176
     1
 75
     1
176
     1
175
     1
176
     1
 42
1.0
176
     1
 92
        8
176
     1
 66
     8
424
  8421504
176
     1
 43
1.0
176
     1
 76
     1
176
     1
 77
     6
176
     1
 78
     2
176
     1
 67
     7
176
     1
 79
     5
176
     1
170
     0
176
     1
171
     0
176
     1
290
     0
176
     1
 93
        1
176
     1
 44
0.0
176
     1
173
     0
176
     1
  0
VISUALSTYLE
  5
34
102
{ACAD_REACTORS
330
2A
102
}
330
2A
100
AcDbVisualStyle
  2
Conceptual
 70
     9
177
     2
291
     0
 71
     3
176
     1
 72
     2
176
     1
 73
     0
176
     1
 90
        0
176
     1
 40
-0.6
176
     1
 41
-30.0
176
     1
 62
     5
 63
     7
421
 16777215
176
     1
 74
     2
176
     1
 91
        2
176
     1
 64
     7
176
     1
 65
   257
176
     1
 75
     1
176
     1
175
     1
176
     1
 42
40.0
176
     1
 92
        8
176
     1
 66
     7
176
     1
 43
1.0
176
     1
 76
     1
176
     1
 77
     6
176
     1
 78
     2
176
     1
 67
     7
176
     1
 79
     3
176
     1
170
     0
176
     1
171
     0
176
     1
290
     0
176
     1
 93
        1
176
     1
 44
0.0
176
     1
173
     0
176
     1
  0
VISUALSTYLE
  5
35
102
{ACAD_REACTORS
330
2A
102
}
330
2A
100
AcDbVisualStyle
  2
Dim
 70
    11
177
     2
291
     1
 71
     2
176
     1
 72
     2
176
     1
 73
     0
176
     1
 90
        0
176
     1
 40
-0.6
176
     1
 41
-30.0
176
     1
 62
     5
 63
     7
421
 16777215
176
     1
 74
     1
176
     1
 91
        4
176
     1
 64
     7
176
     1
 65
   257
176
     1
 75
     1
176
     1
175
     1
176
     1
 42
1.0
176
     1
 92
        8
176
     1
 66
     7
176
     1
 43
1.0
176
     1
 76
     1
176
     1
 77
     6
176
     1
 78
     2
176
     1
 67
     7
176
     1
 79
     5
176
     1
170
     0
176
     1
171
     0
176
     1
290
     0
176
     1
 93
        1
176
     1
 44
-50.0
176
     1
173
     0
176
     1
  0
VISUALSTYLE
  5
39
102
{ACAD_REACTORS
330
2A
102
}
330
2A
100
AcDbVisualStyle
  2
Facepattern
 70
    15
177
     2
291
     1
 71
     2
176
     1
 72
     2
176
     1
 73
     0
176
     1
 90
        0
176
     1
 40
-0.6
176
     1
 41
-30.0
176
     1
 62
     5
 63
     7
421
 16777215
176
     1
 74
     1
176
     1
 91
        4
176
     1
 64
     7
176
     1
 65
   257
176
     1
 75
     1
176
     1
175
     1
176
     1
 42
1.0
176
     1
 92
        8
176
     1
 66
     7
176
     1
 43
1.0
176
     1
 76
     1
176
     1
 77
     6
176
     1
 78
     2
176
     1
 67
     7
176
     1
 79
     5
176
     1
170
     0
176
     1
171
     0
176
     1
290
     0
176
     1
 93
        1
176
     1
 44
0.0
176
     1
173
     0
176
     1
  0
VISUALSTYLE
  5
2B
102
{ACAD_REACTORS
330
2A
102
}
330
2A
100
AcDbVisualStyle
  2
Flat
 70
     0
177
     2
291
     1
 71
     2
176
     1
 72
     1
176
     1
 73
     1
176
     1
 90
        2
176
     1
 40
-0.6
176
     1
 41
30.0
176
     1
 62
     5
 63
     7
421
 16777215
176
     1
 74
     0
176
     1
 91
        4
176
     1
 64
     7
176
     1
 65
   257
176
     1
 75
     1
176
     1
175
     1
176
     1
 42
1.0
176
     1
 92
        8
176
     1
 66
     7
176
     1
 43
1.0
176
     1
 76
     1
176
     1
 77
     6
176
     1
 78
     2
176
     1
 67
     7
176
     1
 79
     5
176
     1
170
     0
176
     1
171
     0
176
     1
290
     0
176
     1
 93
       13
176
     1
 44
0.0
176
     1
173
     0
176
     1
  0
VISUALSTYLE
  5
2C
102
{ACAD_REACTORS
330
2A
102
}
330
2A
100
AcDbVisualStyle
  2
FlatWithEdges
 70
     1
177
     2
291
     1
 71
     2
176
     1
 72
     1
176
     1
 73
     1
176
     1
 90
        2
176
     1
 40
-0.6
176
     1
 41
30.0
176
     1
 62
     5
 63
     7
421
 16777215
176
     1
 74
     1
176
     1
 91
        4
176
     1
 64
     7
176
     1
 65
   257
176
     1
 75
     1
176
     1
175
     1
176
     1
 42
1.0
176
     1
 92
        0
176
     1
 66
   257
176
     1
 43
1.0
176
     1
 76
     1
176
     1
 77
     6
176
     1
 78
     2
176
     1
 67
     7
176
     1
 79
     5
176
     1
170
     0
176
     1
171
     0
176
     1
290
     0
176
     1
 93
       13
176
     1
 44
0.0
176
     1
173
     0
176
     1
  0
VISUALSTYLE
  5
2D
102
{ACAD_REACTORS
330
2A
102
}
330
2A
100
AcDbVisualStyle
  2
Gouraud
 70
     2
177
     2
291
     1
 71
     2
176
     1
 72
     2
176
     1
 73
     1
176
     1
 90
        2
176
     1
 40
-0.6
176
     1
 41
30.0
176
     1
 62
     5
 63
     7
421
 16777215
176
     1
 74
     0
176
     1
 91
        4
176
     1
 64
     7
176
     1
 65
   257
176
     1
 75
     1
176
     1
175
     1
176
     1
 42
1.0
176
     1
 92
        0
176
     1
 66
     7
176
     1
 43
1.0
176
     1
 76
     1
176
     1
 77
     6
176
     1
 78
     2
176
     1
 67
     7
176
     1
 79
     5
176
     1
170
     0
176
     1
171
     0
176
     1
290
     0
176
     1
 93
       13
176
     1
 44
0.0
176
     1
173
     0
176
     1
  0
VISUALSTYLE
  5
2E
102
{ACAD_REACTORS
330
2A
102
}
330
2A
100
AcDbVisualStyle
  2
GouraudWithEdges
 70
     3
177
     2
291
     1
 71
     2
176
     1
 72
     2
176
     1
 73
     1
176
     1
 90
        2
176
     1
 40
-0.6
176
     1
 41
30.0
176
     1
 62
     5
 63
     7
421
 16777215
176
     1
 74
     1
176
     1
 91
        4
176
     1
 64
     7
176
     1
 65
   257
176
     1
 75
     1
176
     1
175
     1
176
     1
 42
1.0
176
     1
 92
        0
176
     1
 66
   257
176
     1
 43
1.0
176
     1
 76
     1
176
     1
 77
     6
176
     1
 78
     2
176
     1
 67
     7
176
     1
 79
     5
176
     1
170
     0
176
     1
171
     0
176
     1
290
     0
176
     1
 93
       13
176
     1
 44
0.0
176
     1
173
     0
176
     1
  0
VISUALSTYLE
  5
38
102
{ACAD_REACTORS
330
2A
102
}
330
2A
100
AcDbVisualStyle
  2
Linepattern
 70
    14
177
     2
291
     1
 71
     2
176
     1
 72
     2
176
     1
 73
     0
176
     1
 90
        0
176
     1
 40
-0.6
176
     1
 41
-30.0
176
     1
 62
     5
 63
     7
421
 16777215
176
     1
 74
     1
176
     1
 91
        4
176
     1
 64
     7
176
     1
 65
   257
176
     1
 75
     7
176
     1
175
     7
176
     1
 42
1.0
176
     1
 92
        8
176
     1
 66
     7
176
     1
 43
1.0
176
     1
 76
     1
176
     1
 77
     6
176
     1
 78
     2
176
     1
 67
     7
176
     1
 79
     5
176
     1
170
     0
176
     1
171
     0
176
     1
290
     0
176
     1
 93
        1
176
     1
 44
0.0
176
     1
173
     0
176
     1
  0
VISUALSTYLE
  5
33
102
{ACAD_REACTORS
330
2A
102
}
330
2A
100
AcDbVisualStyle
  2
Realistic
 70
     8
177
     2
291
     0
 71
     2
176
     1
 72
     2
176
     1
 73
     0
176
     1
 90
        0
176
     1
 40
-0.6
176
     1
 41
-30.0
176
     1
 62
     5
 63
     7
421
 16777215
176
     1
 74
     1
176
     1
 91
        0
176
     1
 64
     7
176
     1
 65
   257
176
     1
 75
     1
176
     1
175
     1
176
     1
 42
1.0
176
     1
 92
        8
176
     1
 66
     8
424
  7895160
176
     1
 43
1.0
176
     1
 76
     1
176
     1
 77
     6
176
     1
 78
     2
176
     1
 67
     7
176
     1
 79
     5
176
     1
170
     0
176
     1
171
     0
176
     1
290
     0
176
     1
 93
       13
176
     1
 44
0.0
176
     1
173
     0
176
     1
  0
VISUALSTYLE
  5
37
102
{ACAD_REACTORS
330
2A
102
}
330
2A
100
AcDbVisualStyle
  2
Thicken
 70
    13
177
     2
291
     1
 71
     2
176
     1
 72
     2
176
     1
 73
     0
176
     1
 90
        0
176
     1
 40
-0.6
176
     1
 41
-30.0
176
     1
 62
     5
 63
     7
421
 16777215
176
     1
 74
     1
176
     1
 91
        4
176
     1
 64
     7
176
     1
 65
   257
176
     1
 75
     1
176
     1
175
     1
176
     1
 42
1.0
176
     1
 92
       12
176
     1
 66
     7
176
     1
 43
1.0
176
     1
 76
     1
176
     1
 77
     6
176
     1
 78
     2
176
     1
 67
     7
176
     1
 79
     5
176
     1
170
     0
176
     1
171
     0
176
     1
290
     0
176
     1
 93
        1
176
     1
 44
0.0
176
     1
173
     0
176
     1
  0
ENDSEC
  0
EOF
