  0
SECTION
  2
HEADER
  9
$ACADVER
  1
AC1015
  9
$ACADMAINTVER
 70
     6
  9
$DWGCODEPAGE
  3
DOS850
  9
$INSBASE
 10
0.0
 20
0.0
 30
0.0
  9
$EXTMIN
 10
-4.78303
 20
-6.6833
 30
1.000000E+20
  9
$EXTMAX
 10
4.78804
 20
6.67709
 30
-1.000000E+20
  9
$LIMMIN
 10
0.0
 20
0.0
  9
$LIMMAX
 10
0.0
 20
0.0
  9
$ORTHOMODE
 70
     0
  9
$REGENMODE
 70
     1
  9
$FILLMODE
 70
     1
  9
$QTEXTMODE
 70
     0
  9
$MIRRTEXT
 70
     1
  9
$LTSCALE
 40
1.0
  9
$ATTMODE
 70
     1
  9
$TEXTSIZE
 40
0.2
  9
$TRACEWID
 40
0.05
  9
$TEXTSTYLE
  7
Standard
  9
$CLAYER
  8
0
  9
$CELTYPE
  6
Continuous
  9
$CECOLOR
 62
   256
  9
$CELTSCALE
 40
1.0
  9
$DISPSILH
 70
     0
  9
$DIMSCALE
 40
1.0
  9
$DIMASZ
 40
0.18
  9
$DIMEXO
 40
0.0625
  9
$DIMDLI
 40
0.38
  9
$DIMRND
 40
0.0
  9
$DIMDLE
 40
0.0
  9
$DIMEXE
 40
0.18
  9
$DIMTP
 40
0.0
  9
$DIMTM
 40
0.0
  9
$DIMTXT
 40
0.18
  9
$DIMCEN
 40
0.09
  9
$DIMTSZ
 40
0.0
  9
$DIMTOL
 70
     0
  9
$DIMLIM
 70
     0
  9
$DIMTIH
 70
     1
  9
$DIMTOH
 70
     1
  9
$DIMSE1
 70
     0
  9
$DIMSE2
 70
     0
  9
$DIMTAD
 70
     0
  9
$DIMZIN
 70
     0
  9
$DIMBLK
  1

  9
$DIMASO
 70
     1
  9
$DIMSHO
 70
     1
  9
$DIMPOST
  1

  9
$DIMAPOST
  1

  9
$DIMALT
 70
     0
  9
$DIMALTD
 70
     2
  9
$DIMALTF
 40
25.4
  9
$DIMLFAC
 40
1.0
  9
$DIMTOFL
 70
     0
  9
$DIMTVP
 40
0.0
  9
$DIMTIX
 70
     0
  9
$DIMSOXD
 70
     0
  9
$DIMSAH
 70
     0
  9
$DIMBLK1
  1

  9
$DIMBLK2
  1

  9
$DIMSTYLE
  2
Standard
  9
$DIMCLRD
 70
     0
  9
$DIMCLRE
 70
     0
  9
$DIMCLRT
 70
     0
  9
$DIMTFAC
 40
1.0
  9
$DIMGAP
 40
0.09
  9
$DIMJUST
 70
     0
  9
$DIMSD1
 70
     0
  9
$DIMSD2
 70
     0
  9
$DIMTOLJ
 70
     1
  9
$DIMTZIN
 70
     0
  9
$DIMALTZ
 70
     0
  9
$DIMALTTZ
 70
     0
  9
$DIMUPT
 70
     0
  9
$DIMDEC
 70
     4
  9
$DIMTDEC
 70
     4
  9
$DIMALTU
 70
     2
  9
$DIMALTTD
 70
     2
  9
$DIMTXSTY
  7
Standard
  9
$DIMAUNIT
 70
     0
  9
$DIMADEC
 70
     0
  9
$DIMALTRND
 40
0.0
  9
$DIMAZIN
 70
     0
  9
$DIMDSEP
 70
     0
  9
$DIMATFIT
 70
     3
  9
$DIMFRAC
 70
     0
  9
$DIMLDRBLK
  1

  9
$DIMLUNIT
 70
     2
  9
$DIMLWD
 70
     0
  9
$DIMLWE
 70
     0
  9
$DIMTMOVE
 70
     0
  9
$LUNITS
 70
     2
  9
$LUPREC
 70
     4
  9
$SKETCHINC
 40
0.1
  9
$FILLETRAD
 40
0.0
  9
$AUNITS
 70
     0
  9
$AUPREC
 70
     0
  9
$MENU
  1
acad
  9
$ELEVATION
 40
0.0
  9
$PELEVATION
 40
0.0
  9
$THICKNESS
 40
0.0
  9
$LIMCHECK
 70
     0
  9
$CHAMFERA
 40
0.0
  9
$CHAMFERB
 40
0.0
  9
$CHAMFERC
 40
0.0
  9
$CHAMFERD
 40
0.0
  9
$SKPOLY
 70
     0
  9
$TDCREATE
 40
0.000000000
  9
$TDUCREATE
 40
0.000000000
  9
$TDUPDATE
 40
0.000000000
  9
$TDUUPDATE
 40
0.000000000
  9
$TDINDWG
 40
0.0000000000
  9
$TDUSRTIMER
 40
0.0000000000
  9
$USRTIMER
 70
     1
  9
$ANGBASE
 50
0.0
  9
$ANGDIR
 70
     0
  9
$PDMODE
 70
     0
  9
$PDSIZE
 40
0.0
  9
$PLINEWID
 40
0.0
  9
$SPLFRAME
 70
     0
  9
$SPLINETYPE
 70
     6
  9
$SPLINESEGS
 70
     8
  9
$HANDSEED
  5
34
  9
$SURFTAB1
 70
     6
  9
$SURFTAB2
 70
     6
  9
$SURFTYPE
 70
     6
  9
$SURFU
 70
     6
  9
$SURFV
 70
     6
  9
$UCSBASE
  2

  9
$UCSNAME
  2

  9
$UCSORG
 10
0.0
 20
0.0
 30
0.0
  9
$UCSXDIR
 10
1.0
 20
0.0
 30
0.0
  9
$UCSYDIR
 10
0.0
 20
1.0
 30
0.0
  9
$UCSORTHOREF
  2

  9
$UCSORTHOVIEW
 70
     0
  9
$UCSORGTOP
 10
0.0
 20
0.0
 30
0.0
  9
$UCSORGBOTTOM
 10
0.0
 20
0.0
 30
0.0
  9
$UCSORGLEFT
 10
0.0
 20
0.0
 30
0.0
  9
$UCSORGRIGHT
 10
0.0
 20
0.0
 30
0.0
  9
$UCSORGFRONT
 10
0.0
 20
0.0
 30
0.0
  9
$UCSORGBACK
 10
0.0
 20
0.0
 30
0.0
  9
$PUCSBASE
  2

  9
$PUCSNAME
  2

  9
$PUCSORG
 10
0.0
 20
0.0
 30
0.0
  9
$PUCSXDIR
 10
1.0
 20
0.0
 30
0.0
  9
$PUCSYDIR
 10
0.0
 20
1.0
 30
0.0
  9
$PUCSORTHOREF
  2

  9
$PUCSORTHOVIEW
 70
     0
  9
$PUCSORGTOP
 10
0.0
 20
0.0
 30
0.0
  9
$PUCSORGBOTTOM
 10
0.0
 20
0.0
 30
0.0
  9
$PUCSORGLEFT
 10
0.0
 20
0.0
 30
0.0
  9
$PUCSORGRIGHT
 10
0.0
 20
0.0
 30
0.0
  9
$PUCSORGFRONT
 10
0.0
 20
0.0
 30
0.0
  9
$PUCSORGBACK
 10
0.0
 20
0.0
 30
0.0
  9
$USERI1
 70
     0
  9
$USERI2
 70
     0
  9
$USERI3
 70
     0
  9
$USERI4
 70
     0
  9
$USERI5
 70
     0
  9
$USERR1
 40
0.0
  9
$USERR2
 40
0.0
  9
$USERR3
 40
0.0
  9
$USERR4
 40
0.0
  9
$USERR5
 40
0.0
  9
$WORLDVIEW
 70
     1
  9
$SHADEDGE
 70
     3
  9
$SHADEDIF
 70
    70
  9
$TILEMODE
 70
     1
  9
$MAXACTVP
 70
    16
  9
$PINSBASE
 10
0.0
 20
0.0
 30
0.0
  9
$PLIMCHECK
 70
     0
  9
$PEXTMIN
 10
1.000000E+20
 20
1.000000E+20
 30
1.000000E+20
  9
$PEXTMAX
 10
-1.000000E+20
 20
-1.000000E+20
 30
-1.000000E+20
  9
$PLIMMIN
 10
0.0
 20
0.0
  9
$PLIMMAX
 10
12.0
 20
9.0
  9
$UNITMODE
 70
     0
  9
$VISRETAIN
 70
     0
  9
$PLINEGEN
 70
     1
  9
$PSLTSCALE
 70
     0
  9
$TREEDEPTH
 70
  3020
  9
$CMLSTYLE
  2
Standard
  9
$CMLJUST
 70
     0
  9
$CMLSCALE
 40
1.0
  9
$PROXYGRAPHICS
 70
     0
  9
$MEASUREMENT
 70
     0
  9
$CELWEIGHT
370
     0
  9
$ENDCAPS
280
     0
  9
$JOINSTYLE
280
     0
  9
$LWDISPLAY
290
     0
  9
$INSUNITS
 70
     5
  9
$HYPERLINKBASE
  1

  9
$XEDIT
290
     1
  9
$CEPSNTYPE
380
     0
  9
$PSTYLEMODE
290
     1
  9
$FINGERPRINTGUID
  2

  9
$VERSIONGUID
  2

  9
$EXTNAMES
290
     1
  9
$PSVPSCALE
 40
0.0
  0
ENDSEC
  0
SECTION
  2
CLASSES
  0
CLASS
  1
LWPOLYLINE
  2
AcDbPolyline
  3
AutoCAD 2000
 90
    32768
280
     0
281
     1
  0
CLASS
  1
IMAGE
  2
AcDbRasterImage
  3
ISM
 90
    32895
280
     0
281
     1
  0
CLASS
  1
OLE2FRAME
  2
AcDbOle2Frame
  3
AutoCAD 2000
 90
    32768
280
     0
281
     1
  0
CLASS
  1
HATCH
  2
AcDbHatch
  3
AutoCAD 2000
 90
    32768
280
     0
281
     1
  0
CLASS
  1
DICTIONARYVAR
  2
AcDbDictionaryVar
  3
AutoCAD 2000
 90
    32768
280
     0
281
     0
  0
CLASS
  1
RASTERVARIABLES
  2
AcDbRasterVariables
  3
ISM
 90
    32768
280
     0
281
     0
  0
CLASS
  1
IMAGEDEF
  2
AcDbRasterImageDef
  3
ISM
 90
    32768
280
     0
281
     0
  0
CLASS
  1
IMAGEDEF_REACTOR
  2
AcDbRasterImageDefReactor
  3
ISM
 90
    32769
280
     0
281
     0
  0
CLASS
  1
IDBUFFER
  2
AcDbIdBuffer
  3
AutoCAD 2000
 90
    32768
280
     0
281
     0
  0
CLASS
  1
SPATIAL_FILTER
  2
AcDbSpatialFilter
  3
AutoCAD 2000
 90
    32768
280
     0
281
     0
  0
CLASS
  1
XRECORD
  2
AcDbXrecord
  3
AutoCAD 2000
 90
    32768
280
     0
281
     0
  0
CLASS
  1
SORTENTSTABLE
  2
AcDbSortentsTable
  3
AutoCAD 2000
 90
    32768
280
     0
281
     0
  0
CLASS
  1
LAYER_INDEX
  2
AcDbLayerIndex
  3
AutoCAD 2000
 90
    32768
280
     0
281
     0
  0
CLASS
  1
SPATIAL_INDEX
  2
AcDbSpatialIndex
  3
AutoCAD 2000
 90
    32768
280
     0
281
     0
  0
CLASS
  1
OBJECT_PTR
  2
CAseDLPNTableRecord
  3
"ASE-LPNTableRecord"
 90
    32769
280
     0
281
     0
  0
CLASS
  1
LAYOUT
  2
AcDbLayout
  3
AutoCAD 2000
 90
        0
280
     0
281
     0
  0
CLASS
  1
PLOTSETTINGS
  2
AcDbPlotSettings
  3
AutoCAD 2000
 90
    32768
280
     0
281
     0
  0
CLASS
  1
ACDBDICTIONARYWDFLT
  2
AcDbDictionaryWithDefault
  3
AutoCAD 2000
 90
        0
280
     0
281
     0
  0
CLASS
  1
ACDBPLACEHOLDER
  2
AcDbPlaceHolder
  3
AutoCAD 2000
 90
        0
280
     0
281
     0
  0
CLASS
  1
VBA_PROJECT
  2
AcDbVbaProject
  3
acadvba
 90
    32768
280
     0
281
     0
  0
CLASS
  1
WIPEOUT
  2
AcDbWipeout
  3
WipeOut|AutoCAD Express Tool|expresstools@autodesk.com
 90
    32895
280
     0
281
     1
  0
CLASS
  1
WIPEOUTVARIABLES
  2
AcDbWipeoutVariables
  3
WipeOut|AutoCAD Express Tool|expresstools@autodesk.com
 90
        0
280
     0
281
     0
  0
CLASS
  1
RTEXT
  2
RText
  3
RText|AutoCAD Express Tool|expresstools@autodesk.com
 90
    32768
280
     0
281
     1
  0
CLASS
  1
ARCALIGNEDTEXT
  2
AcDbArcAlignedText
  3
ATEXT|AutoCAD Express Tool|expresstools@autodesk.com
 90
    32768
280
     0
281
     1
  0
ENDSEC
  0
SECTION
  2
TABLES
  0
TABLE
  2
VPORT
  5
7
100
AcDbSymbolTable
 70
     1
  0
VPORT
  5
15
100
AcDbSymbolTableRecord
100
AcDbViewportTableRecord
  2
*ACTIVE
 70
     0
 10
0.0
 20
0.0
 11
1.0
 21
1.0
 12
6.591288
 22
4.579184
 13
0.0
 23
0.0
 14
1.0
 24
1.0
 15
0.0
 25
0.0
 16
0.0
 26
0.0
 36
1.0
 17
0.0
 27
0.0
 37
0.0
 40
9.158369
 41
0.688564
 42
50.0
 43
0.0
 44
0.0
 50
0.0
 51
0.0
 71
     0
 72
   100
 73
     1
 74
     1
 75
     0
 76
     0
 77
     0
 78
     0
281
     0
 65
     0
110
0.0
120
0.0
130
0.0
111
1.0
121
0.0
131
0.0
112
0.0
122
1.0
132
0.0
345
0
346
0
 79
     0
146
0.0
  0
ENDTAB
  0
TABLE
  2
LTYPE
  5
4
100
AcDbSymbolTable
 70
     3
  0
LTYPE
  5
11
100
AcDbSymbolTableRecord
100
AcDbLinetypeTableRecord
  2
ByBlock
 70
    64
  3

 72
    65
 73
     0
 40
0.0
  0
LTYPE
  5
12
100
AcDbSymbolTableRecord
100
AcDbLinetypeTableRecord
  2
ByLayer
 70
    64
  3

 72
    65
 73
     0
 40
0.0
  0
LTYPE
  5
13
100
AcDbSymbolTableRecord
100
AcDbLinetypeTableRecord
  2
Continuous
 70
    64
  3
Solid line
 72
    65
 73
     0
 40
0.0
  0
ENDTAB
  0
TABLE
  2
LAYER
  5
2
100
AcDbSymbolTable
 70
     2
  0
LAYER
  5
14
100
AcDbSymbolTableRecord
100
AcDbLayerTableRecord
  2
0
 70
     0
 62
     7
  6
Continuous
290
     1
370
    -3
390
1D
  0
LAYER
  5
24
100
AcDbSymbolTableRecord
100
AcDbLayerTableRecord
  2
Ebene 1
 70
     0
 62
     7
  6
Continuous
290
     1
370
    -3
390
1F
  0
ENDTAB
  0
TABLE
  2
STYLE
  5
3
100
AcDbSymbolTable
 70
     1
  0
STYLE
  5
17
100
AcDbSymbolTableRecord
100
AcDbTextStyleTableRecord
  2
Standard
 70
     0
 40
0.0
 41
1.0
 50
0.0
 71
     0
 42
0.0
  3
txt
  4

  0
ENDTAB
  0
TABLE
  2
VIEW
  5
5
100
AcDbSymbolTable
 70
     0
  0
ENDTAB
  0
TABLE
  2
UCS
  5
6
100
AcDbSymbolTable
 70
     0
  0
ENDTAB
  0
TABLE
  2
APPID
  5
8
100
AcDbSymbolTable
 70
     1
  0
APPID
  5
16
100
AcDbSymbolTableRecord
100
AcDbRegAppTableRecord
  2
ACAD
 70
     0
  0
ENDTAB
  0
TABLE
  2
DIMSTYLE
  5
9
100
AcDbSymbolTable
 70
     1
100
AcDbDimStyleTable
 71
     0
  0
DIMSTYLE
105
18
100
AcDbSymbolTableRecord
100
AcDbDimStyleTableRecord
  2
Standard
 70
     0
  3

  4

 40
1.0
 41
0.18
 42
0.0625
 43
0.38
 44
0.18
 45
0.0
 46
0.0
 47
0.0
 48
0.0
 71
     0
 72
     0
 73
     1
 74
     1
 75
     0
 76
     0
 77
     0
 78
     0
 79
     0
140
0.18
141
0.09
142
0.0
143
25.4
144
1.0
145
0.0
146
1.0
147
0.09
148
0.0
170
     0
171
     2
172
     0
173
     0
174
     0
175
     0
176
     0
177
     0
178
     0
179
     0
271
     4
272
     4
273
     2
274
     2
275
     0
276
     0
277
     2
278
    46
279
     0
280
     0
281
     0
282
     0
283
     1
284
     0
285
     0
286
     0
288
     0
340
17
341
0
342
0
343
0
344
0
371
    -2
372
    -2
  0
ENDTAB
  0
TABLE
  2
BLOCK_RECORD
  5
1
100
AcDbSymbolTable
 70
     0
  0
BLOCK_RECORD
  5
A
100
AcDbSymbolTableRecord
100
AcDbBlockTableRecord
  2
*MODEL_SPACE
340
20
  0
BLOCK_RECORD
  5
B
100
AcDbSymbolTableRecord
100
AcDbBlockTableRecord
  2
*PAPER_SPACE
340
21
  0
ENDTAB
  0
ENDSEC
  0
SECTION
  2
BLOCKS
  0
BLOCK
  5
D
100
AcDbEntity
  8
0
100
AcDbBlockBegin
  2
*MODEL_SPACE
 70
     0
 10
0.0
 20
0.0
 30
0.0
  3
*MODEL_SPACE
  1

  0
ENDBLK
  5
E
100
AcDbEntity
  8
0
100
AcDbBlockEnd
  0
BLOCK
  5
F
100
AcDbEntity
 67
     1
  8
0
100
AcDbBlockBegin
  2
*PAPER_SPACE
 70
     0
 10
0.0
 20
0.0
 30
0.0
  3
*PAPER_SPACE
  1

  0
ENDBLK
  5
10
100
AcDbEntity
 67
     1
  8
0
100
AcDbBlockEnd
  0
ENDSEC
  0
SECTION
  2
ENTITIES
  0
SPLINE
  5
25
100
AcDbEntity
  8
Ebene 1
100
AcDbSpline
210
0.0
220
0.0
230
1.0
 70
     1
 71
     3
 72
   120
 73
   116
 74
     0
 42
0.0000000001
 43
0.0000000001
 40
0.0
 40
0.0
 40
0.0
 40
0.0
 40
0.0344827586206897
 40
0.0344827586206897
 40
0.0344827586206897
 40
0.0344827586206897
 40
0.0689655172413793
 40
0.0689655172413793
 40
0.0689655172413793
 40
0.0689655172413793
 40
0.103448275862069
 40
0.103448275862069
 40
0.103448275862069
 40
0.103448275862069
 40
0.1379310344827586
 40
0.1379310344827586
 40
0.1379310344827586
 40
0.1379310344827586
 40
0.1724137931034483
 40
0.1724137931034483
 40
0.1724137931034483
 40
0.1724137931034483
 40
0.206896551724138
 40
0.206896551724138
 40
0.206896551724138
 40
0.206896551724138
 40
0.2413793103448276
 40
0.2413793103448276
 40
0.2413793103448276
 40
0.2413793103448276
 40
0.2758620689655173
 40
0.2758620689655173
 40
0.2758620689655173
 40
0.2758620689655173
 40
0.310344827586207
 40
0.310344827586207
 40
0.310344827586207
 40
0.310344827586207
 40
0.3448275862068966
 40
0.3448275862068966
 40
0.3448275862068966
 40
0.3448275862068966
 40
0.3793103448275863
 40
0.3793103448275863
 40
0.3793103448275863
 40
0.3793103448275863
 40
0.413793103448276
 40
0.413793103448276
 40
0.413793103448276
 40
0.413793103448276
 40
0.4482758620689656
 40
0.4482758620689656
 40
0.4482758620689656
 40
0.4482758620689656
 40
0.4827586206896553
 40
0.4827586206896553
 40
0.4827586206896553
 40
0.4827586206896553
 40
0.517241379310345
 40
0.517241379310345
 40
0.517241379310345
 40
0.517241379310345
 40
0.5517241379310346
 40
0.5517241379310346
 40
0.5517241379310346
 40
0.5517241379310346
 40
0.5862068965517242
 40
0.5862068965517242
 40
0.5862068965517242
 40
0.5862068965517242
 40
0.6206896551724138
 40
0.6206896551724138
 40
0.6206896551724138
 40
0.6206896551724138
 40
0.6551724137931034
 40
0.6551724137931034
 40
0.6551724137931034
 40
0.6551724137931034
 40
0.689655172413793
 40
0.689655172413793
 40
0.689655172413793
 40
0.689655172413793
 40
0.7241379310344827
 40
0.7241379310344827
 40
0.7241379310344827
 40
0.7241379310344827
 40
0.7586206896551723
 40
0.7586206896551723
 40
0.7586206896551723
 40
0.7586206896551723
 40
0.7931034482758619
 40
0.7931034482758619
 40
0.7931034482758619
 40
0.7931034482758619
 40
0.8275862068965515
 40
0.8275862068965515
 40
0.8275862068965515
 40
0.8275862068965515
 40
0.8620689655172411
 40
0.8620689655172411
 40
0.8620689655172411
 40
0.8620689655172411
 40
0.8965517241379307
 40
0.8965517241379307
 40
0.8965517241379307
 40
0.8965517241379307
 40
0.9310344827586203
 40
0.9310344827586203
 40
0.9310344827586203
 40
0.9310344827586203
 40
0.9655172413793099
 40
0.9655172413793099
 40
0.9655172413793099
 40
0.9655172413793099
 40
1.0
 40
1.0
 40
1.0
 40
1.0
 10
1.8899000000000001
 20
6.6770900000000006
 30
0.0
 10
2.5249000000000001
 20
6.529770000000001
 30
0.0
 10
2.4385400000000002
 20
5.5417100000000001
 30
0.0
 10
2.6036400000000004
 20
5.0006900000000005
 30
0.0
 10
2.6036400000000004
 20
5.0006900000000005
 30
0.0
 10
3.2996000000000003
 20
4.7136700000000005
 30
0.0
 10
4.2749600000000001
 20
4.8559100000000006
 30
0.0
 10
4.7880400000000005
 20
5.3816900000000008
 30
0.0
 10
4.7880400000000005
 20
5.3816900000000008
 30
0.0
 10
4.7829600000000001
 20
4.9498900000000008
 30
0.0
 10
4.7296200000000006
 20
4.5180899999999999
 30
0.0
 10
4.5061
 20
4.1497900000000003
 30
0.0
 10
4.5061
 20
4.1497900000000003
 30
0.0
 10
4.1276400000000004
 20
3.6138500000000002
 30
0.0
 10
3.5510600000000001
 20
3.3217500000000002
 30
0.0
 10
2.9922600000000004
 20
3.0626700000000002
 30
0.0
 10
2.9922600000000004
 20
3.0626700000000002
 30
0.0
 10
3.0227400000000002
 20
2.7527900000000001
 30
0.0
 10
3.1726000000000001
 20
2.4683100000000002
 30
0.0
 10
2.8627200000000004
 20
2.2346300000000001
 30
0.0
 10
2.8627200000000004
 20
2.2346300000000001
 30
0.0
 10
3.0811600000000001
 20
-0.7955800000000001
 30
0.0
 10
2.2937600000000002
 20
-3.6937200000000003
 30
0.0
 10
1.9965800000000002
 20
-6.6833000000000009
 30
0.0
 10
1.9965800000000002
 20
-6.6833000000000009
 30
0.0
 10
1.9026000000000001
 20
-6.1778400000000007
 30
0.0
 10
1.9940400000000003
 20
-5.5377600000000005
 30
0.0
 10
1.9076800000000003
 20
-4.9840400000000002
 30
0.0
 10
1.9076800000000003
 20
-4.9840400000000002
 30
0.0
 10
1.7654400000000001
 20
-5.0297600000000005
 30
0.0
 10
1.8391000000000002
 20
-5.5047400000000009
 30
0.0
 10
1.7197200000000001
 20
-5.6317400000000006
 30
0.0
 10
1.7197200000000001
 20
-5.6317400000000006
 30
0.0
 10
1.65368
 20
-5.1364400000000003
 30
0.0
 10
1.5647800000000001
 20
-4.64114
 30
0.0
 10
1.44286
 20
-4.1560000000000006
 30
0.0
 10
1.44286
 20
-4.1560000000000006
 30
0.0
 10
1.3107800000000001
 20
-4.1890200000000002
 30
0.0
 10
1.4098400000000002
 20
-4.48874
 30
0.0
 10
1.27522
 20
-4.4811200000000007
 30
0.0
 10
1.27522
 20
-4.4811200000000007
 30
0.0
 10
1.23458
 20
-3.7826200000000001
 30
0.0
 10
0.76468
 20
-3.2314400000000001
 30
0.0
 10
0.59704
 20
-2.5761200000000004
 30
0.0
 10
0.59704
 20
-2.5761200000000004
 30
0.0
 10
0.5233800000000001
 20
-2.6548600000000002
 30
0.0
 10
0.6249800000000001
 20
-2.9825200000000001
 30
0.0
 10
0.4624200000000001
 20
-2.8910800000000001
 30
0.0
 10
0.4624200000000001
 20
-2.8910800000000001
 30
0.0
 10
0.06364
 20
-2.2408400000000004
 30
0.0
 10
0.10682
 20
-1.4356600000000002
 30
0.0
 10
-0.07097
 20
-0.71684
 30
0.0
 10
-0.07097
 20
-0.71684
 30
0.0
 10
-0.17003
 20
-0.8717800000000001
 30
0.0
 10
-0.11923
 20
-1.1994400000000001
 30
0.0
 10
-0.24369
 20
-1.2807200000000001
 30
0.0
 10
-0.24369
 20
-1.2807200000000001
 30
0.0
 10
-0.29195
 20
-1.0216400000000001
 30
0.0
 10
-0.52817
 20
0.20771
 30
0.0
 10
-0.5662700000000001
 20
-0.5238
 30
0.0
 10
-0.5662700000000001
 20
-0.5238
 30
0.0
 10
-0.55357
 20
-0.65334
 30
0.0
 10
-0.6627900000000001
 20
-0.56698
 30
0.0
 10
-0.6856500000000001
 20
-0.5009400000000001
 30
0.0
 10
-0.6856500000000001
 20
-0.5009400000000001
 30
0.0
 10
-1.0209300000000001
 20
0.30169
 30
0.0
 10
-1.8946900000000002
 20
1.15005
 30
0.0
 10
-2.7405100000000004
 20
0.9747900000000001
 30
0.0
 10
-2.7405100000000004
 20
0.9747900000000001
 30
0.0
 10
-2.4407900000000002
 20
0.23311
 30
0.0
 10
-3.1596100000000003
 20
-0.0539
 30
0.0
 10
-3.5787100000000005
 20
-0.48316
 30
0.0
 10
-3.5787100000000005
 20
-0.48316
 30
0.0
 10
-3.6066500000000001
 20
-0.2444
 30
0.0
 10
-3.5812500000000003
 20
0.21787
 30
0.0
 10
-3.4186900000000002
 20
0.4972700000000001
 30
0.0
 10
-3.4186900000000002
 20
0.4972700000000001
 30
0.0
 10
-3.7692100000000002
 20
0.29407
 30
0.0
 10
-4.1552899999999999
 20
0.11373
 30
0.0
 10
-4.5439100000000003
 20
0.02737
 30
0.0
 10
-4.5439100000000003
 20
0.02737
 30
0.0
 10
-4.1984700000000004
 20
0.57347
 30
0.0
 10
-3.7158700000000002
 20
1.23387
 30
0.0
 10
-3.0122900000000001
 20
1.1602100000000002
 30
0.0
 10
-3.0122900000000001
 20
1.1602100000000002
 30
0.0
 10
-2.8497300000000001
 20
1.6682100000000002
 30
0.0
 10
-4.0841700000000003
 20
1.4294500000000001
 30
0.0
 10
-3.7742900000000001
 20
2.1076300000000003
 30
0.0
 10
-3.7742900000000001
 20
2.1076300000000003
 30
0.0
 10
-3.7742900000000001
 20
2.1076300000000003
 30
0.0
 10
-3.9825700000000004
 20
1.9526900000000003
 30
0.0
 10
-3.9825700000000004
 20
1.9526900000000003
 30
0.0
 10
-3.9825700000000004
 20
1.9526900000000003
 30
0.0
 10
-4.7902900000000006
 20
2.4022700000000001
 30
0.0
 10
-4.8715700000000002
 20
3.4487500000000004
 30
0.0
 10
-4.7217100000000007
 20
4.2844100000000003
 30
0.0
 10
-4.7217100000000007
 20
4.2844100000000003
 30
0.0
 10
-4.6556700000000006
 20
4.7212900000000007
 30
0.0
 10
-4.1883100000000004
 20
5.3410500000000001
 30
0.0
 10
-3.6320500000000004
 20
5.1429300000000007
 30
0.0
 10
-3.6320500000000004
 20
5.1429300000000007
 30
0.0
 10
-3.9647900000000003
 20
5.7423700000000002
 30
0.0
 10
-2.9945100000000004
 20
5.9481100000000007
 30
0.0
 10
-2.5703300000000002
 20
6.1055900000000003
 30
0.0
 10
-2.5703300000000002
 20
6.1055900000000003
 30
0.0
 10
-2.5322300000000002
 20
6.0141500000000008
 30
0.0
 10
-2.6439900000000001
 20
5.8515900000000007
 30
0.0
 10
-2.5525500000000001
 20
5.7601500000000003
 30
0.0
 10
-2.5525500000000001
 20
5.7601500000000003
 30
0.0
 10
-2.3544300000000002
 20
6.2351300000000007
 30
0.0
 10
-1.8946900000000002
 20
6.3062500000000004
 30
0.0
 10
-1.4349500000000002
 20
6.1995700000000005
 30
0.0
 10
-1.4349500000000002
 20
6.1995700000000005
 30
0.0
 10
-0.48499
 20
7.0199900000000008
 30
0.0
 10
0.8485
 20
6.2681500000000003
 30
0.0
 10
1.8899000000000001
 20
6.6770900000000006
 30
0.0
  0
SPLINE
  5
26
100
AcDbEntity
  8
Ebene 1
 62
     7
100
AcDbSpline
210
0.0
220
0.0
230
1.0
 70
     1
 71
     3
 72
    36
 73
    32
 74
     0
 42
0.0000000001
 43
0.0000000001
 40
0.0
 40
0.0
 40
0.0
 40
0.0
 40
0.125
 40
0.125
 40
0.125
 40
0.125
 40
0.25
 40
0.25
 40
0.25
 40
0.25
 40
0.375
 40
0.375
 40
0.375
 40
0.375
 40
0.5
 40
0.5
 40
0.5
 40
0.5
 40
0.625
 40
0.625
 40
0.625
 40
0.625
 40
0.75
 40
0.75
 40
0.75
 40
0.75
 40
0.875
 40
0.875
 40
0.875
 40
0.875
 40
1.0
 40
1.0
 40
1.0
 40
1.0
 10
1.8365600000000002
 20
6.5526300000000006
 30
0.0
 10
1.9330800000000001
 20
6.5653300000000003
 30
0.0
 10
2.0169000000000001
 20
6.5373900000000003
 30
0.0
 10
2.0981800000000002
 20
6.4967500000000005
 30
0.0
 10
2.0981800000000002
 20
6.4967500000000005
 30
0.0
 10
2.38266
 20
6.0674900000000003
 30
0.0
 10
2.5172800000000004
 20
5.5061500000000008
 30
0.0
 10
2.4004400000000001
 20
5.0006900000000005
 30
0.0
 10
2.4004400000000001
 20
5.0006900000000005
 30
0.0
 10
2.1972400000000003
 20
4.9498900000000008
 30
0.0
 10
1.9813400000000001
 20
4.9194100000000001
 30
0.0
 10
1.7883000000000002
 20
4.8406700000000003
 30
0.0
 10
1.7883000000000002
 20
4.8406700000000003
 30
0.0
 10
1.8441800000000002
 20
5.0667300000000006
 30
0.0
 10
2.0727800000000003
 20
5.2369100000000008
 30
0.0
 10
2.2251800000000004
 20
5.3842300000000005
 30
0.0
 10
2.2251800000000004
 20
5.3842300000000005
 30
0.0
 10
1.6232000000000002
 20
5.6382300000000001
 30
0.0
 10
0.9882000000000001
 20
5.8744500000000004
 30
0.0
 10
0.3151000000000001
 20
5.9328700000000003
 30
0.0
 10
0.3151000000000001
 20
5.9328700000000003
 30
0.0
 10
0.3151000000000001
 20
5.9328700000000003
 30
0.0
 10
0.06872
 20
5.8109500000000001
 30
0.0
 10
0.06872
 20
5.8109500000000001
 30
0.0
 10
0.06872
 20
5.8109500000000001
 30
0.0
 10
0.18302
 20
6.1690900000000006
 30
0.0
 10
-0.33767
 20
6.1309900000000006
 30
0.0
 10
-0.5662700000000001
 20
6.2173500000000006
 30
0.0
 10
-0.5662700000000001
 20
6.2173500000000006
 30
0.0
 10
0.13222
 20
6.6415300000000004
 30
0.0
 10
1.0847200000000001
 20
6.2757700000000005
 30
0.0
 10
1.8365600000000002
 20
6.5526300000000006
 30
0.0
  0
SPLINE
  5
27
100
AcDbEntity
  8
Ebene 1
 62
     7
100
AcDbSpline
210
0.0
220
0.0
230
1.0
 70
     1
 71
     3
 72
    84
 73
    80
 74
     0
 42
0.0000000001
 43
0.0000000001
 40
0.0
 40
0.0
 40
0.0
 40
0.0
 40
0.05
 40
0.05
 40
0.05
 40
0.05
 40
0.1
 40
0.1
 40
0.1
 40
0.1
 40
0.15
 40
0.15
 40
0.15
 40
0.15
 40
0.2
 40
0.2
 40
0.2
 40
0.2
 40
0.25
 40
0.25
 40
0.25
 40
0.25
 40
0.3
 40
0.3
 40
0.3
 40
0.3
 40
0.35
 40
0.35
 40
0.35
 40
0.35
 40
0.4
 40
0.4
 40
0.4
 40
0.4
 40
0.45
 40
0.45
 40
0.45
 40
0.45
 40
0.4999999999999999
 40
0.4999999999999999
 40
0.4999999999999999
 40
0.4999999999999999
 40
0.5499999999999999
 40
0.5499999999999999
 40
0.5499999999999999
 40
0.5499999999999999
 40
0.6
 40
0.6
 40
0.6
 40
0.6
 40
0.65
 40
0.65
 40
0.65
 40
0.65
 40
0.7000000000000001
 40
0.7000000000000001
 40
0.7000000000000001
 40
0.7000000000000001
 40
0.7500000000000001
 40
0.7500000000000001
 40
0.7500000000000001
 40
0.7500000000000001
 40
0.8000000000000002
 40
0.8000000000000002
 40
0.8000000000000002
 40
0.8000000000000002
 40
0.8500000000000002
 40
0.8500000000000002
 40
0.8500000000000002
 40
0.8500000000000002
 40
0.9000000000000002
 40
0.9000000000000002
 40
0.9000000000000002
 40
0.9000000000000002
 40
0.9500000000000003
 40
0.9500000000000003
 40
0.9500000000000003
 40
0.9500000000000003
 40
1.0
 40
1.0
 40
1.0
 40
1.0
 10
-1.1326900000000002
 20
6.1284500000000008
 30
0.0
 10
-0.6831100000000001
 20
6.0522500000000008
 30
0.0
 10
-0.01255
 20
6.1970300000000007
 30
0.0
 10
-0.01763
 20
5.5975900000000003
 30
0.0
 10
-0.01763
 20
5.5975900000000003
 30
0.0
 10
0.4827400000000001
 20
6.0878100000000002
 30
0.0
 10
1.3234800000000002
 20
5.5899700000000001
 30
0.0
 10
1.8721200000000002
 20
5.2953300000000008
 30
0.0
 10
1.8721200000000002
 20
5.2953300000000008
 30
0.0
 10
1.8721200000000002
 20
5.2953300000000008
 30
0.0
 10
1.6206600000000002
 20
4.7873300000000008
 30
0.0
 10
1.6206600000000002
 20
4.7873300000000008
 30
0.0
 10
1.6206600000000002
 20
4.7873300000000008
 30
0.0
 10
1.6206600000000002
 20
4.7873300000000008
 30
0.0
 10
1.5241400000000001
 20
4.4876100000000001
 30
0.0
 10
1.5241400000000001
 20
4.4876100000000001
 30
0.0
 10
1.5241400000000001
 20
4.4876100000000001
 30
0.0
 10
2.3674200000000001
 20
5.0616500000000002
 30
0.0
 10
3.5053400000000003
 20
4.2894900000000007
 30
0.0
 10
4.55436
 20
4.9143300000000005
 30
0.0
 10
4.55436
 20
4.9143300000000005
 30
0.0
 10
4.6051600000000006
 20
4.2437700000000005
 30
0.0
 10
3.8126800000000003
 20
3.4360500000000003
 30
0.0
 10
3.1446600000000005
 20
3.3979500000000002
 30
0.0
 10
3.1446600000000005
 20
3.3979500000000002
 30
0.0
 10
2.9414600000000002
 20
3.3903300000000001
 30
0.0
 10
2.7712800000000004
 20
3.4766900000000005
 30
0.0
 10
2.5858600000000003
 20
3.5147900000000001
 30
0.0
 10
2.5858600000000003
 20
3.5147900000000001
 30
0.0
 10
2.5172800000000004
 20
3.5351100000000004
 30
0.0
 10
2.4461600000000003
 20
3.5401900000000004
 30
0.0
 10
2.3852000000000002
 20
3.5808300000000002
 30
0.0
 10
2.3852000000000002
 20
3.5808300000000002
 30
0.0
 10
1.7019400000000002
 20
3.7713300000000003
 30
0.0
 10
3.3504000000000005
 20
3.6138500000000002
 30
0.0
 10
2.7408000000000001
 20
3.7383100000000002
 30
0.0
 10
2.7408000000000001
 20
3.7383100000000002
 30
0.0
 10
2.6341200000000002
 20
3.7357700000000005
 30
0.0
 10
2.5325200000000003
 20
3.7408500000000005
 30
0.0
 10
2.4385400000000002
 20
3.7738700000000005
 30
0.0
 10
2.4385400000000002
 20
3.7738700000000005
 30
0.0
 10
2.4385400000000002
 20
3.7738700000000005
 30
0.0
 10
2.0677000000000003
 20
3.8449900000000001
 30
0.0
 10
2.0677000000000003
 20
3.8449900000000001
 30
0.0
 10
2.0677000000000003
 20
3.8449900000000001
 30
0.0
 10
1.4657200000000001
 20
3.9186500000000004
 30
0.0
 10
0.9196200000000001
 20
4.1853500000000006
 30
0.0
 10
0.3024
 20
4.2031300000000007
 30
0.0
 10
0.3024
 20
4.2031300000000007
 30
0.0
 10
0.29224
 20
4.2463100000000003
 30
0.0
 10
0.37352
 20
4.2463100000000003
 30
0.0
 10
0.404
 20
4.2513900000000007
 30
0.0
 10
0.404
 20
4.2513900000000007
 30
0.0
 10
0.404
 20
4.2513900000000007
 30
0.0
 10
1.27014
 20
4.3580700000000006
 30
0.0
 10
1.27014
 20
4.3580700000000006
 30
0.0
 10
1.27014
 20
4.3580700000000006
 30
0.0
 10
-0.30465
 20
4.42157
 30
0.0
 10
-1.9632700000000001
 20
4.2539300000000004
 30
0.0
 10
-2.7481300000000002
 20
2.8772500000000001
 30
0.0
 10
-2.7481300000000002
 20
2.8772500000000001
 30
0.0
 10
-2.8497300000000001
 20
2.7756500000000002
 30
0.0
 10
-2.9487900000000002
 20
2.6689700000000003
 30
0.0
 10
-3.0808700000000004
 20
2.6232500000000001
 30
0.0
 10
-3.0808700000000004
 20
2.6232500000000001
 30
0.0
 10
-4.4397700000000002
 20
2.17367
 30
0.0
 10
-5.2220900000000006
 20
4.04819
 30
0.0
 10
-4.1806900000000002
 20
4.9321100000000007
 30
0.0
 10
-4.1806900000000002
 20
4.9321100000000007
 30
0.0
 10
-4.0384500000000001
 20
5.1200700000000001
 30
0.0
 10
-3.6828500000000002
 20
4.97783
 30
0.0
 10
-3.4898100000000003
 20
4.9651300000000003
 30
0.0
 10
-3.4898100000000003
 20
4.9651300000000003
 30
0.0
 10
-3.9292300000000004
 20
5.4909100000000004
 30
0.0
 10
-2.7430500000000002
 20
6.1690900000000006
 30
0.0
 10
-2.56779
 20
5.5798100000000002
 30
0.0
 10
-2.56779
 20
5.5798100000000002
 30
0.0
 10
-2.3010900000000003
 20
6.1386100000000008
 30
0.0
 10
-1.67117
 20
6.1335300000000004
 30
0.0
 10
-1.1326900000000002
 20
6.1284500000000008
 30
0.0
  0
SPLINE
  5
28
100
AcDbEntity
  8
Ebene 1
 62
     7
100
AcDbSpline
210
0.0
220
0.0
230
1.0
 70
     1
 71
     3
 72
    92
 73
    88
 74
     0
 42
0.0000000001
 43
0.0000000001
 40
0.0
 40
0.0
 40
0.0
 40
0.0
 40
0.0454545454545455
 40
0.0454545454545455
 40
0.0454545454545455
 40
0.0454545454545455
 40
0.0909090909090909
 40
0.0909090909090909
 40
0.0909090909090909
 40
0.0909090909090909
 40
0.1363636363636364
 40
0.1363636363636364
 40
0.1363636363636364
 40
0.1363636363636364
 40
0.1818181818181818
 40
0.1818181818181818
 40
0.1818181818181818
 40
0.1818181818181818
 40
0.2272727272727273
 40
0.2272727272727273
 40
0.2272727272727273
 40
0.2272727272727273
 40
0.2727272727272728
 40
0.2727272727272728
 40
0.2727272727272728
 40
0.2727272727272728
 40
0.3181818181818182
 40
0.3181818181818182
 40
0.3181818181818182
 40
0.3181818181818182
 40
0.3636363636363637
 40
0.3636363636363637
 40
0.3636363636363637
 40
0.3636363636363637
 40
0.4090909090909092
 40
0.4090909090909092
 40
0.4090909090909092
 40
0.4090909090909092
 40
0.4545454545454546
 40
0.4545454545454546
 40
0.4545454545454546
 40
0.4545454545454546
 40
0.5000000000000001
 40
0.5000000000000001
 40
0.5000000000000001
 40
0.5000000000000001
 40
0.5454545454545455
 40
0.5454545454545455
 40
0.5454545454545455
 40
0.5454545454545455
 40
0.5909090909090909
 40
0.5909090909090909
 40
0.5909090909090909
 40
0.5909090909090909
 40
0.6363636363636364
 40
0.6363636363636364
 40
0.6363636363636364
 40
0.6363636363636364
 40
0.6818181818181818
 40
0.6818181818181818
 40
0.6818181818181818
 40
0.6818181818181818
 40
0.7272727272727272
 40
0.7272727272727272
 40
0.7272727272727272
 40
0.7272727272727272
 40
0.7727272727272726
 40
0.7727272727272726
 40
0.7727272727272726
 40
0.7727272727272726
 40
0.818181818181818
 40
0.818181818181818
 40
0.818181818181818
 40
0.818181818181818
 40
0.8636363636363634
 40
0.8636363636363634
 40
0.8636363636363634
 40
0.8636363636363634
 40
0.9090909090909088
 40
0.9090909090909088
 40
0.9090909090909088
 40
0.9090909090909088
 40
0.9545454545454543
 40
0.9545454545454543
 40
0.9545454545454543
 40
0.9545454545454543
 40
1.0
 40
1.0
 40
1.0
 40
1.0
 10
-0.5154700000000001
 20
4.0913700000000004
 30
0.0
 10
0.7367400000000001
 20
4.1904300000000001
 30
0.0
 10
1.9051400000000001
 20
3.7586300000000001
 30
0.0
 10
2.8982800000000002
 20
3.1033100000000005
 30
0.0
 10
2.8982800000000002
 20
3.1033100000000005
 30
0.0
 10
2.9541600000000003
 20
2.9128100000000003
 30
0.0
 10
2.7509600000000001
 20
2.9661500000000003
 30
0.0
 10
2.67476
 20
2.8950300000000002
 30
0.0
 10
2.67476
 20
2.8950300000000002
 30
0.0
 10
3.0430600000000001
 20
2.9585300000000001
 30
0.0
 10
3.0430600000000001
 20
2.47085
 30
0.0
 10
2.8093800000000004
 20
2.3235300000000003
 30
0.0
 10
2.8093800000000004
 20
2.3235300000000003
 30
0.0
 10
2.8093800000000004
 20
2.4530700000000003
 30
0.0
 10
3.0760800000000001
 20
2.7375500000000001
 30
0.0
 10
2.7357200000000002
 20
2.6461100000000002
 30
0.0
 10
2.7357200000000002
 20
2.6461100000000002
 30
0.0
 10
2.67984
 20
2.6080100000000002
 30
0.0
 10
2.6493600000000002
 20
2.5876900000000003
 30
0.0
 10
2.5807800000000003
 20
2.6054700000000004
 30
0.0
 10
2.5807800000000003
 20
2.6054700000000004
 30
0.0
 10
2.2683600000000004
 20
2.9331300000000002
 30
0.0
 10
2.9008200000000004
 20
1.9755500000000001
 30
0.0
 10
2.3852000000000002
 20
2.3235300000000003
 30
0.0
 10
2.3852000000000002
 20
2.3235300000000003
 30
0.0
 10
2.1108800000000003
 20
2.3209900000000001
 30
0.0
 10
1.9254600000000002
 20
1.9933300000000003
 30
0.0
 10
1.61304
 20
1.9933300000000003
 30
0.0
 10
1.61304
 20
1.9933300000000003
 30
0.0
 10
1.7019400000000002
 20
2.2752700000000003
 30
0.0
 10
2.25312
 20
2.5343500000000003
 30
0.0
 10
2.1896200000000001
 20
2.7172300000000003
 30
0.0
 10
2.1896200000000001
 20
2.7172300000000003
 30
0.0
 10
1.6867000000000001
 20
2.2625700000000002
 30
0.0
 10
1.2244200000000001
 20
2.8899500000000002
 30
0.0
 10
0.74436
 20
3.0169500000000005
 30
0.0
 10
0.74436
 20
3.0169500000000005
 30
0.0
 10
0.57926
 20
3.0601300000000005
 30
0.0
 10
0.3278
 20
2.8137500000000002
 30
0.0
 10
0.23128
 20
2.8162900000000004
 30
0.0
 10
0.23128
 20
2.8162900000000004
 30
0.0
 10
0.29478
 20
2.6664300000000001
 30
0.0
 10
0.5640200000000001
 20
2.9763100000000002
 30
0.0
 10
0.70372
 20
2.8899500000000002
 30
0.0
 10
0.70372
 20
2.8899500000000002
 30
0.0
 10
0.2643
 20
2.7299300000000004
 30
0.0
 10
0.5691000000000001
 20
2.2016100000000001
 30
0.0
 10
0.37352
 20
1.8510900000000001
 30
0.0
 10
0.37352
 20
1.8510900000000001
 30
0.0
 10
0.40146
 20
1.7088500000000002
 30
0.0
 10
0.78754
 20
1.8358500000000002
 30
0.0
 10
0.6681600000000001
 20
1.7037700000000002
 30
0.0
 10
0.6681600000000001
 20
1.7037700000000002
 30
0.0
 10
0.6681600000000001
 20
1.7037700000000002
 30
0.0
 10
0.5691000000000001
 20
1.7012300000000002
 30
0.0
 10
0.5691000000000001
 20
1.7012300000000002
 30
0.0
 10
0.5691000000000001
 20
1.7012300000000002
 30
0.0
 10
0.55386
 20
1.6783700000000001
 30
0.0
 10
0.52846
 20
1.6885300000000001
 30
0.0
 10
0.51068
 20
1.6859900000000001
 30
0.0
 10
0.51068
 20
1.6859900000000001
 30
0.0
 10
0.277
 20
1.6885300000000001
 30
0.0
 10
0.03824
 20
1.6783700000000001
 30
0.0
 10
-0.17257
 20
1.7266300000000001
 30
0.0
 10
-0.17257
 20
1.7266300000000001
 30
0.0
 10
0.10174
 20
2.13049
 30
0.0
 10
-0.27417
 20
2.5724500000000003
 30
0.0
 10
-0.10653
 20
2.9255100000000001
 30
0.0
 10
-0.10653
 20
2.9255100000000001
 30
0.0
 10
-0.05065
 20
3.0652100000000004
 30
0.0
 10
0.1373
 20
3.1490300000000002
 30
0.0
 10
0.13476
 20
3.3115900000000003
 30
0.0
 10
0.13476
 20
3.3115900000000003
 30
0.0
 10
-0.04303
 20
3.2734900000000002
 30
0.0
 10
-0.12431
 20
3.0093300000000003
 30
0.0
 10
-0.31481
 20
2.9559900000000003
 30
0.0
 10
-0.31481
 20
2.9559900000000003
 30
0.0
 10
-0.35291
 20
2.9204300000000001
 30
0.0
 10
-0.41133
 20
2.9026500000000004
 30
0.0
 10
-0.38847
 20
2.8366100000000003
 30
0.0
 10
-0.38847
 20
2.8366100000000003
 30
0.0
 10
-0.03541
 20
1.5513700000000001
 30
0.0
 10
-1.8108700000000002
 20
1.4167500000000002
 30
0.0
 10
-2.64907
 20
1.6910700000000001
 30
0.0
 10
-2.64907
 20
1.6910700000000001
 30
0.0
 10
-3.0580100000000003
 20
2.93059
 30
0.0
 10
-1.63053
 20
4.0634300000000003
 30
0.0
 10
-0.5154700000000001
 20
4.0913700000000004
 30
0.0
  0
SPLINE
  5
29
100
AcDbEntity
  8
Ebene 1
100
AcDbSpline
210
0.0
220
0.0
230
1.0
 70
     1
 71
     3
 72
    32
 73
    28
 74
     0
 42
0.0000000001
 43
0.0000000001
 40
0.0
 40
0.0
 40
0.0
 40
0.0
 40
0.1428571428571429
 40
0.1428571428571429
 40
0.1428571428571429
 40
0.1428571428571429
 40
0.2857142857142857
 40
0.2857142857142857
 40
0.2857142857142857
 40
0.2857142857142857
 40
0.4285714285714286
 40
0.4285714285714286
 40
0.4285714285714286
 40
0.4285714285714286
 40
0.5714285714285714
 40
0.5714285714285714
 40
0.5714285714285714
 40
0.5714285714285714
 40
0.7142857142857142
 40
0.7142857142857142
 40
0.7142857142857142
 40
0.7142857142857142
 40
0.857142857142857
 40
0.857142857142857
 40
0.857142857142857
 40
0.857142857142857
 40
1.0
 40
1.0
 40
1.0
 40
1.0
 10
-0.6196100000000001
 20
3.8983300000000005
 30
0.0
 10
-0.30973
 20
3.9948500000000005
 30
0.0
 10
0.11444
 20
3.7484700000000002
 30
0.0
 10
-0.06589
 20
3.4157300000000004
 30
0.0
 10
-0.06589
 20
3.4157300000000004
 30
0.0
 10
-0.06589
 20
3.3522300000000005
 30
0.0
 10
-0.08113
 20
3.3039700000000001
 30
0.0
 10
-0.11923
 20
3.2582500000000003
 30
0.0
 10
-0.11923
 20
3.2582500000000003
 30
0.0
 10
-0.13955
 20
3.1947500000000004
 30
0.0
 10
-0.29449
 20
3.1160100000000002
 30
0.0
 10
-0.26147
 20
3.2404700000000002
 30
0.0
 10
-0.26147
 20
3.2404700000000002
 30
0.0
 10
-0.13701
 20
3.4411300000000002
 30
0.0
 10
-0.27925
 20
3.7433900000000002
 30
0.0
 10
-0.5154700000000001
 20
3.7916500000000002
 30
0.0
 10
-0.5154700000000001
 20
3.7916500000000002
 30
0.0
 10
-0.8786900000000001
 20
3.7687900000000005
 30
0.0
 10
-1.2012700000000001
 20
3.5630500000000005
 30
0.0
 10
-1.5517900000000002
 20
3.4970100000000004
 30
0.0
 10
-1.5517900000000002
 20
3.4970100000000004
 30
0.0
 10
-1.5289300000000001
 20
3.6265500000000004
 30
0.0
 10
-1.3054100000000002
 20
3.6544900000000005
 30
0.0
 10
-1.20381
 20
3.7560900000000004
 30
0.0
 10
-1.20381
 20
3.7560900000000004
 30
0.0
 10
-1.20381
 20
3.7560900000000004
 30
0.0
 10
-0.6196100000000001
 20
3.8983300000000005
 30
0.0
 10
-0.6196100000000001
 20
3.8983300000000005
 30
0.0
  0
SPLINE
  5
2A
100
AcDbEntity
  8
Ebene 1
100
AcDbSpline
210
0.0
220
0.0
230
1.0
 70
     1
 71
     3
 72
    28
 73
    24
 74
     0
 42
0.0000000001
 43
0.0000000001
 40
0.0
 40
0.0
 40
0.0
 40
0.0
 40
0.1666666666666667
 40
0.1666666666666667
 40
0.1666666666666667
 40
0.1666666666666667
 40
0.3333333333333333
 40
0.3333333333333333
 40
0.3333333333333333
 40
0.3333333333333333
 40
0.5
 40
0.5
 40
0.5
 40
0.5
 40
0.6666666666666666
 40
0.6666666666666666
 40
0.6666666666666666
 40
0.6666666666666666
 40
0.8333333333333333
 40
0.8333333333333333
 40
0.8333333333333333
 40
0.8333333333333333
 40
1.0
 40
1.0
 40
1.0
 40
1.0
 10
0.93486
 20
3.6671900000000002
 30
0.0
 10
1.2498200000000002
 20
3.6621100000000002
 30
0.0
 10
1.4276200000000001
 20
3.3293700000000004
 30
0.0
 10
1.7197200000000001
 20
3.2480900000000004
 30
0.0
 10
1.7197200000000001
 20
3.2480900000000004
 30
0.0
 10
1.7197200000000001
 20
3.2480900000000004
 30
0.0
 10
1.9407000000000001
 20
3.1693500000000001
 30
0.0
 10
1.9407000000000001
 20
3.1693500000000001
 30
0.0
 10
1.9407000000000001
 20
3.1693500000000001
 30
0.0
 10
1.9407000000000001
 20
3.1693500000000001
 30
0.0
 10
1.9076800000000003
 20
3.1210900000000001
 30
0.0
 10
1.9076800000000003
 20
3.1210900000000001
 30
0.0
 10
1.9076800000000003
 20
3.1210900000000001
 30
0.0
 10
1.4250800000000001
 20
3.1363300000000001
 30
0.0
 10
1.0339200000000002
 20
3.7586300000000001
 30
0.0
 10
0.52846
 20
3.4385900000000005
 30
0.0
 10
0.52846
 20
3.4385900000000005
 30
0.0
 10
0.4090800000000001
 20
3.4563700000000002
 30
0.0
 10
0.5437000000000001
 20
3.5554300000000003
 30
0.0
 10
0.5945
 20
3.5681300000000005
 30
0.0
 10
0.5945
 20
3.5681300000000005
 30
0.0
 10
0.5945
 20
3.5681300000000005
 30
0.0
 10
0.93486
 20
3.6671900000000002
 30
0.0
 10
0.93486
 20
3.6671900000000002
 30
0.0
  0
SPLINE
  5
2B
100
AcDbEntity
  8
Ebene 1
100
AcDbSpline
210
0.0
220
0.0
230
1.0
 70
     1
 71
     3
 72
    16
 73
    12
 74
     0
 42
0.0000000001
 43
0.0000000001
 40
0.0
 40
0.0
 40
0.0
 40
0.0
 40
0.3333333333333333
 40
0.3333333333333333
 40
0.3333333333333333
 40
0.3333333333333333
 40
0.6666666666666666
 40
0.6666666666666666
 40
0.6666666666666666
 40
0.6666666666666666
 40
1.0
 40
1.0
 40
1.0
 40
1.0
 10
2.1210400000000003
 20
3.1033100000000005
 30
0.0
 10
2.2937600000000002
 20
3.1033100000000005
 30
0.0
 10
2.2836000000000003
 20
2.7705700000000002
 30
0.0
 10
2.1083400000000001
 20
2.80613
 30
0.0
 10
2.1083400000000001
 20
2.80613
 30
0.0
 10
2.0880200000000002
 20
2.8772500000000001
 30
0.0
 10
2.2251800000000004
 20
2.9890100000000004
 30
0.0
 10
2.1032600000000001
 20
3.0652100000000004
 30
0.0
 10
2.1032600000000001
 20
3.0652100000000004
 30
0.0
 10
2.1032600000000001
 20
3.0652100000000004
 30
0.0
 10
2.1210400000000003
 20
3.1033100000000005
 30
0.0
 10
2.1210400000000003
 20
3.1033100000000005
 30
0.0
  0
SPLINE
  5
2C
100
AcDbEntity
  8
Ebene 1
 62
     7
100
AcDbSpline
210
0.0
220
0.0
230
1.0
 70
     1
 71
     3
 72
    16
 73
    12
 74
     0
 42
0.0000000001
 43
0.0000000001
 40
0.0
 40
0.0
 40
0.0
 40
0.0
 40
0.3333333333333333
 40
0.3333333333333333
 40
0.3333333333333333
 40
0.3333333333333333
 40
0.6666666666666666
 40
0.6666666666666666
 40
0.6666666666666666
 40
0.6666666666666666
 40
1.0
 40
1.0
 40
1.0
 40
1.0
 10
1.14822
 20
2.4479900000000003
 30
0.0
 10
1.2142600000000001
 20
2.4022700000000001
 30
0.0
 10
1.3234800000000002
 20
2.3616300000000003
 30
0.0
 10
1.3565
 20
2.29305
 30
0.0
 10
1.3565
 20
2.29305
 30
0.0
 10
1.2549000000000001
 20
2.22193
 30
0.0
 10
1.19394
 20
2.3895700000000004
 30
0.0
 10
1.11012
 20
2.4124300000000001
 30
0.0
 10
1.11012
 20
2.4124300000000001
 30
0.0
 10
1.11012
 20
2.4124300000000001
 30
0.0
 10
1.14822
 20
2.4479900000000003
 30
0.0
 10
1.14822
 20
2.4479900000000003
 30
0.0
  0
SPLINE
  5
2D
100
AcDbEntity
  8
Ebene 1
 62
     7
100
AcDbSpline
210
0.0
220
0.0
230
1.0
 70
     1
 71
     3
 72
   104
 73
   100
 74
     0
 42
0.0000000001
 43
0.0000000001
 40
0.0
 40
0.0
 40
0.0
 40
0.0
 40
0.04
 40
0.04
 40
0.04
 40
0.04
 40
0.08
 40
0.08
 40
0.08
 40
0.08
 40
0.12
 40
0.12
 40
0.12
 40
0.12
 40
0.16
 40
0.16
 40
0.16
 40
0.16
 40
0.2
 40
0.2
 40
0.2
 40
0.2
 40
0.24
 40
0.24
 40
0.24
 40
0.24
 40
0.28
 40
0.28
 40
0.28
 40
0.28
 40
0.32
 40
0.32
 40
0.32
 40
0.32
 40
0.36
 40
0.36
 40
0.36
 40
0.36
 40
0.4
 40
0.4
 40
0.4
 40
0.4
 40
0.44
 40
0.44
 40
0.44
 40
0.44
 40
0.4799999999999999
 40
0.4799999999999999
 40
0.4799999999999999
 40
0.4799999999999999
 40
0.5199999999999999
 40
0.5199999999999999
 40
0.5199999999999999
 40
0.5199999999999999
 40
0.5599999999999999
 40
0.5599999999999999
 40
0.5599999999999999
 40
0.5599999999999999
 40
0.6
 40
0.6
 40
0.6
 40
0.6
 40
0.64
 40
0.64
 40
0.64
 40
0.64
 40
0.6800000000000001
 40
0.6800000000000001
 40
0.6800000000000001
 40
0.6800000000000001
 40
0.7200000000000001
 40
0.7200000000000001
 40
0.7200000000000001
 40
0.7200000000000001
 40
0.7600000000000001
 40
0.7600000000000001
 40
0.7600000000000001
 40
0.7600000000000001
 40
0.8000000000000002
 40
0.8000000000000002
 40
0.8000000000000002
 40
0.8000000000000002
 40
0.8400000000000002
 40
0.8400000000000002
 40
0.8400000000000002
 40
0.8400000000000002
 40
0.8800000000000002
 40
0.8800000000000002
 40
0.8800000000000002
 40
0.8800000000000002
 40
0.9200000000000003
 40
0.9200000000000003
 40
0.9200000000000003
 40
0.9200000000000003
 40
0.9600000000000003
 40
0.9600000000000003
 40
0.9600000000000003
 40
0.9600000000000003
 40
1.0
 40
1.0
 40
1.0
 40
1.0
 10
2.3318600000000003
 20
2.1812900000000002
 30
0.0
 10
2.5325200000000003
 20
2.1660500000000003
 30
0.0
 10
2.7204800000000002
 20
2.1558900000000003
 30
0.0
 10
2.7585800000000003
 20
1.9145900000000002
 30
0.0
 10
2.7585800000000003
 20
1.9145900000000002
 30
0.0
 10
2.8398600000000003
 20
1.0001900000000001
 30
0.0
 10
2.5858600000000003
 20
0.10103
 30
0.0
 10
2.4741000000000004
 20
-0.7905000000000001
 30
0.0
 10
2.4741000000000004
 20
-0.7905000000000001
 30
0.0
 10
2.5655400000000004
 20
-1.0927600000000002
 30
0.0
 10
2.5528400000000002
 20
-0.20122
 30
0.0
 10
2.6671400000000003
 20
-0.0285
 30
0.0
 10
2.6671400000000003
 20
-0.0285
 30
0.0
 10
2.8170000000000002
 20
-0.9987800000000001
 30
0.0
 10
2.45886
 20
-1.8192000000000002
 30
0.0
 10
2.2505800000000002
 20
-2.7742400000000003
 30
0.0
 10
2.2505800000000002
 20
-2.7742400000000003
 30
0.0
 10
2.2607400000000002
 20
-3.0663400000000003
 30
0.0
 10
2.4106000000000001
 20
-2.7259800000000003
 30
0.0
 10
2.4410800000000004
 20
-2.5913600000000003
 30
0.0
 10
2.4410800000000004
 20
-2.5913600000000003
 30
0.0
 10
2.41568
 20
-2.9723600000000001
 30
0.0
 10
2.4512400000000003
 20
-3.5362400000000003
 30
0.0
 10
2.2785200000000003
 20
-3.8689800000000005
 30
0.0
 10
2.2785200000000003
 20
-3.8689800000000005
 30
0.0
 10
2.2353400000000003
 20
-3.8029400000000004
 30
0.0
 10
2.3496400000000004
 20
-3.5184600000000001
 30
0.0
 10
2.2251800000000004
 20
-3.5514800000000002
 30
0.0
 10
2.2251800000000004
 20
-3.5514800000000002
 30
0.0
 10
2.2302600000000004
 20
-3.9858200000000004
 30
0.0
 10
2.12866
 20
-4.4100000000000001
 30
0.0
 10
2.03722
 20
-4.8011600000000003
 30
0.0
 10
2.03722
 20
-4.8011600000000003
 30
0.0
 10
1.9305400000000001
 20
-4.4989000000000008
 30
0.0
 10
2.1210400000000003
 20
-3.8131000000000004
 30
0.0
 10
1.9965800000000002
 20
-3.7623000000000002
 30
0.0
 10
1.9965800000000002
 20
-3.7623000000000002
 30
0.0
 10
1.9838800000000001
 20
-4.1966400000000004
 30
0.0
 10
1.8772000000000002
 20
-4.6208200000000001
 30
0.0
 10
1.7197200000000001
 20
-4.9942000000000002
 30
0.0
 10
1.7197200000000001
 20
-4.9942000000000002
 30
0.0
 10
1.5520800000000001
 20
-4.5065200000000001
 30
0.0
 10
1.4123800000000002
 20
-3.9121600000000005
 30
0.0
 10
1.5343000000000002
 20
-3.3584400000000003
 30
0.0
 10
1.5343000000000002
 20
-3.3584400000000003
 30
0.0
 10
1.3920600000000001
 20
-3.4194000000000004
 30
0.0
 10
1.4606400000000002
 20
-3.7521400000000003
 30
0.0
 10
1.3412600000000001
 20
-3.8867600000000002
 30
0.0
 10
1.3412600000000001
 20
-3.8867600000000002
 30
0.0
 10
1.0872600000000001
 20
-3.3838400000000002
 30
0.0
 10
0.59704
 20
-2.5100800000000003
 30
0.0
 10
0.6834
 20
-1.37724
 30
0.0
 10
0.6834
 20
-1.37724
 30
0.0
 10
0.64276
 20
-1.3366
 30
0.0
 10
0.64276
 20
-1.00386
 30
0.0
 10
0.5818000000000001
 20
-1.0216400000000001
 30
0.0
 10
0.5818000000000001
 20
-1.0216400000000001
 30
0.0
 10
0.52846
 20
-1.4356600000000002
 30
0.0
 10
0.5665600000000001
 20
-2.1417800000000002
 30
0.0
 10
0.47004
 20
-2.5354800000000002
 30
0.0
 10
0.47004
 20
-2.5354800000000002
 30
0.0
 10
-0.01001
 20
-1.8598400000000002
 30
0.0
 10
0.16524
 20
-0.97084
 30
0.0
 10
-0.04049
 20
-0.17328
 30
0.0
 10
-0.04049
 20
-0.17328
 30
0.0
 10
-0.17257
 20
-0.27996
 30
0.0
 10
-0.14971
 20
-0.6482600000000001
 30
0.0
 10
-0.22591
 20
-0.8362200000000001
 30
0.0
 10
-0.22591
 20
-0.8362200000000001
 30
0.0
 10
-0.36815
 20
-0.4044200000000001
 30
0.0
 10
-0.49515
 20
0.04007
 30
0.0
 10
-0.57135
 20
0.4972700000000001
 30
0.0
 10
-0.57135
 20
0.4972700000000001
 30
0.0
 10
-0.6627900000000001
 20
0.34995
 30
0.0
 10
-0.59675
 20
-0.01326
 30
0.0
 10
-0.7085100000000001
 20
-0.2063
 30
0.0
 10
-0.7085100000000001
 20
-0.2063
 30
0.0
 10
-0.8964700000000001
 20
0.7614300000000001
 30
0.0
 10
-1.9937500000000001
 20
0.9646300000000001
 30
0.0
 10
-2.5449300000000004
 20
1.39897
 30
0.0
 10
-2.5449300000000004
 20
1.39897
 30
0.0
 10
-2.4204700000000003
 20
1.5488300000000002
 30
0.0
 10
-2.1486900000000002
 20
1.4954900000000002
 30
0.0
 10
-1.9683500000000003
 20
1.5056500000000002
 30
0.0
 10
-1.9683500000000003
 20
1.5056500000000002
 30
0.0
 10
-1.9810500000000002
 20
1.3964300000000001
 30
0.0
 10
-2.2045700000000004
 20
1.44215
 30
0.0
 10
-2.18933
 20
1.32023
 30
0.0
 10
-2.18933
 20
1.32023
 30
0.0
 10
-1.3663700000000001
 20
1.44215
 30
0.0
 10
-0.52817
 20
1.7063100000000002
 30
0.0
 10
0.33288
 20
1.5615300000000001
 30
0.0
 10
0.33288
 20
1.5615300000000001
 30
0.0
 10
0.25922
 20
1.4345300000000001
 30
0.0
 10
-0.06589
 20
1.3786500000000002
 30
0.0
 10
0.00014
 20
1.2440300000000002
 30
0.0
 10
0.00014
 20
1.2440300000000002
 30
0.0
 10
0.7367400000000001
 20
1.6478900000000001
 30
0.0
 10
1.5927200000000001
 20
1.8155300000000001
 30
0.0
 10
2.3318600000000003
 20
2.1812900000000002
 30
0.0
  0
SPLINE
  5
2E
100
AcDbEntity
  8
Ebene 1
100
AcDbSpline
210
0.0
220
0.0
230
1.0
 70
     1
 71
     3
 72
    28
 73
    24
 74
     0
 42
0.0000000001
 43
0.0000000001
 40
0.0
 40
0.0
 40
0.0
 40
0.0
 40
0.1666666666666667
 40
0.1666666666666667
 40
0.1666666666666667
 40
0.1666666666666667
 40
0.3333333333333333
 40
0.3333333333333333
 40
0.3333333333333333
 40
0.3333333333333333
 40
0.5
 40
0.5
 40
0.5
 40
0.5
 40
0.6666666666666666
 40
0.6666666666666666
 40
0.6666666666666666
 40
0.6666666666666666
 40
0.8333333333333333
 40
0.8333333333333333
 40
0.8333333333333333
 40
0.8333333333333333
 40
1.0
 40
1.0
 40
1.0
 40
1.0
 10
1.9483200000000001
 20
1.8739500000000002
 30
0.0
 10
1.9788000000000001
 20
1.8815700000000002
 30
0.0
 10
2.3039200000000002
 20
2.0339700000000001
 30
0.0
 10
2.2988400000000002
 20
2.00603
 30
0.0
 10
2.2988400000000002
 20
2.00603
 30
0.0
 10
2.2988400000000002
 20
2.00603
 30
0.0
 10
2.1388200000000004
 20
1.4370700000000001
 30
0.0
 10
2.1388200000000004
 20
1.4370700000000001
 30
0.0
 10
2.1388200000000004
 20
1.4370700000000001
 30
0.0
 10
2.4080600000000003
 20
0.7715900000000001
 30
0.0
 10
2.3191600000000001
 20
0.00705
 30
0.0
 10
2.16168
 20
-0.69398
 30
0.0
 10
2.16168
 20
-0.69398
 30
0.0
 10
2.1159600000000003
 20
0.04007
 30
0.0
 10
2.3267800000000003
 20
0.91383
 30
0.0
 10
1.78068
 20
1.5234300000000001
 30
0.0
 10
1.78068
 20
1.5234300000000001
 30
0.0
 10
1.6003400000000001
 20
1.4650100000000001
 30
0.0
 10
1.3895200000000001
 20
1.3684900000000002
 30
0.0
 10
1.2015600000000002
 20
1.4192900000000002
 30
0.0
 10
1.2015600000000002
 20
1.4192900000000002
 30
0.0
 10
1.5724
 20
1.5081900000000001
 30
0.0
 10
1.6105
 20
1.6605900000000002
 30
0.0
 10
1.9483200000000001
 20
1.8739500000000002
 30
0.0
  0
SPLINE
  5
2F
100
AcDbEntity
  8
Ebene 1
 62
     7
100
AcDbSpline
210
0.0
220
0.0
230
1.0
 70
     1
 71
     3
 72
    16
 73
    12
 74
     0
 42
0.0000000001
 43
0.0000000001
 40
0.0
 40
0.0
 40
0.0
 40
0.0
 40
0.3333333333333333
 40
0.3333333333333333
 40
0.3333333333333333
 40
0.3333333333333333
 40
0.6666666666666666
 40
0.6666666666666666
 40
0.6666666666666666
 40
0.6666666666666666
 40
1.0
 40
1.0
 40
1.0
 40
1.0
 10
-2.6185900000000002
 20
1.19069
 30
0.0
 10
-2.5931900000000003
 20
1.1729100000000001
 30
0.0
 10
-2.5449300000000004
 20
1.1424300000000001
 30
0.0
 10
-2.5525500000000001
 20
1.10687
 30
0.0
 10
-2.5525500000000001
 20
1.10687
 30
0.0
 10
-2.6211300000000004
 20
1.0789300000000002
 30
0.0
 10
-2.8243300000000002
 20
1.0332100000000002
 30
0.0
 10
-2.7074900000000004
 20
1.15513
 30
0.0
 10
-2.7074900000000004
 20
1.15513
 30
0.0
 10
-2.6846300000000003
 20
1.0992500000000001
 30
0.0
 10
-2.6312900000000004
 20
1.1424300000000001
 30
0.0
 10
-2.6185900000000002
 20
1.19069
 30
0.0
  0
SPLINE
  5
30
100
AcDbEntity
  8
Ebene 1
 62
     7
100
AcDbSpline
210
0.0
220
0.0
230
1.0
 70
     1
 71
     3
 72
    32
 73
    28
 74
     0
 42
0.0000000001
 43
0.0000000001
 40
0.0
 40
0.0
 40
0.0
 40
0.0
 40
0.1428571428571429
 40
0.1428571428571429
 40
0.1428571428571429
 40
0.1428571428571429
 40
0.2857142857142857
 40
0.2857142857142857
 40
0.2857142857142857
 40
0.2857142857142857
 40
0.4285714285714286
 40
0.4285714285714286
 40
0.4285714285714286
 40
0.4285714285714286
 40
0.5714285714285714
 40
0.5714285714285714
 40
0.5714285714285714
 40
0.5714285714285714
 40
0.7142857142857142
 40
0.7142857142857142
 40
0.7142857142857142
 40
0.7142857142857142
 40
0.857142857142857
 40
0.857142857142857
 40
0.857142857142857
 40
0.857142857142857
 40
1.0
 40
1.0
 40
1.0
 40
1.0
 10
-3.5228300000000004
 20
0.6242700000000001
 30
0.0
 10
-3.6549100000000001
 20
0.48203
 30
0.0
 10
-3.8403300000000002
 20
0.41599
 30
0.0
 10
-4.0130500000000007
 20
0.3372500000000001
 30
0.0
 10
-4.0130500000000007
 20
0.3372500000000001
 30
0.0
 10
-4.0562300000000002
 20
0.3169300000000001
 30
0.0
 10
-4.1044900000000002
 20
0.29407
 30
0.0
 10
-4.1552899999999999
 20
0.30931
 30
0.0
 10
-4.1552899999999999
 20
0.30931
 30
0.0
 10
-3.9495500000000003
 20
0.6547500000000001
 30
0.0
 10
-3.6447500000000002
 20
1.0814700000000002
 30
0.0
 10
-3.1875500000000003
 20
0.9595500000000001
 30
0.0
 10
-3.1875500000000003
 20
0.9595500000000001
 30
0.0
 10
-3.1875500000000003
 20
0.9595500000000001
 30
0.0
 10
-3.6117300000000001
 20
0.78429
 30
0.0
 10
-3.6117300000000001
 20
0.78429
 30
0.0
 10
-3.6117300000000001
 20
0.78429
 30
0.0
 10
-3.6980900000000001
 20
0.7360300000000001
 30
0.0
 10
-3.9012900000000004
 20
0.6496700000000001
 30
0.0
 10
-3.8530300000000004
 20
0.5404500000000001
 30
0.0
 10
-3.8530300000000004
 20
0.5404500000000001
 30
0.0
 10
-3.8530300000000004
 20
0.5404500000000001
 30
0.0
 10
-3.6828500000000002
 20
0.5887100000000001
 30
0.0
 10
-3.6828500000000002
 20
0.5887100000000001
 30
0.0
 10
-3.6828500000000002
 20
0.5887100000000001
 30
0.0
 10
-3.6828500000000002
 20
0.5887100000000001
 30
0.0
 10
-3.5228300000000004
 20
0.6242700000000001
 30
0.0
 10
-3.5228300000000004
 20
0.6242700000000001
 30
0.0
  0
SPLINE
  5
31
100
AcDbEntity
  8
Ebene 1
 62
     7
100
AcDbSpline
210
0.0
220
0.0
230
1.0
 70
     1
 71
     3
 72
     8
 73
     4
 74
     0
 42
0.0000000001
 43
0.0000000001
 40
0.0
 40
0.0
 40
0.0
 40
0.0
 40
1.0
 40
1.0
 40
1.0
 40
1.0
 10
-3.0453100000000002
 20
0.8376300000000001
 30
0.0
 10
-3.0453100000000002
 20
0.87065
 30
0.0
 10
-3.0097500000000004
 20
0.8350900000000001
 30
0.0
 10
-3.0453100000000002
 20
0.8376300000000001
 30
0.0
  0
SPLINE
  5
32
100
AcDbEntity
  8
Ebene 1
 62
     7
100
AcDbSpline
210
0.0
220
0.0
230
1.0
 70
     1
 71
     3
 72
    24
 73
    20
 74
     0
 42
0.0000000001
 43
0.0000000001
 40
0.0
 40
0.0
 40
0.0
 40
0.0
 40
0.2
 40
0.2
 40
0.2
 40
0.2
 40
0.4
 40
0.4
 40
0.4
 40
0.4
 40
0.6000000000000001
 40
0.6000000000000001
 40
0.6000000000000001
 40
0.6000000000000001
 40
0.8
 40
0.8
 40
0.8
 40
0.8
 40
1.0
 40
1.0
 40
1.0
 40
1.0
 10
-3.0453100000000002
 20
0.8376300000000001
 30
0.0
 10
-3.0834100000000002
 20
0.7182500000000001
 30
0.0
 10
-3.3196300000000001
 20
0.34995
 30
0.0
 10
-3.0656300000000001
 20
0.41853
 30
0.0
 10
-3.0656300000000001
 20
0.41853
 30
0.0
 10
-2.9411700000000001
 20
0.49981
 30
0.0
 10
-2.8725900000000002
 20
0.64205
 30
0.0
 10
-2.8268700000000004
 20
0.7792100000000001
 30
0.0
 10
-2.8268700000000004
 20
0.7792100000000001
 30
0.0
 10
-2.6719300000000001
 20
0.42361
 30
0.0
 10
-3.0097500000000004
 20
0.07309
 30
0.0
 10
-3.3221700000000003
 20
-0.02342
 30
0.0
 10
-3.3221700000000003
 20
-0.02342
 30
0.0
 10
-3.3221700000000003
 20
-0.02342
 30
0.0
 10
-3.3450300000000004
 20
0.3575700000000001
 30
0.0
 10
-3.3450300000000004
 20
0.3575700000000001
 30
0.0
 10
-3.3450300000000004
 20
0.3575700000000001
 30
0.0
 10
-3.2967700000000004
 20
0.53791
 30
0.0
 10
-3.1977100000000003
 20
0.7131700000000001
 30
0.0
 10
-3.0453100000000002
 20
0.8376300000000001
 30
0.0
  0
SPLINE
  5
33
100
AcDbEntity
  8
Ebene 1
100
AcDbSpline
210
0.0
220
0.0
230
1.0
 70
     1
 71
     3
 72
    12
 73
     8
 74
     0
 42
0.0000000001
 43
0.0000000001
 40
0.0
 40
0.0
 40
0.0
 40
0.0
 40
0.5
 40
0.5
 40
0.5
 40
0.5
 40
1.0
 40
1.0
 40
1.0
 40
1.0
 10
1.0415400000000001
 20
-2.52278
 30
0.0
 10
1.2472800000000002
 20
-2.4821400000000002
 30
0.0
 10
1.2472800000000002
 20
-2.7412200000000002
 30
0.0
 10
1.19648
 20
-2.8733000000000004
 30
0.0
 10
1.19648
 20
-2.8733000000000004
 30
0.0
 10
1.0085200000000001
 20
-2.9114000000000004
 30
0.0
 10
1.0796400000000002
 20
-2.6370800000000001
 30
0.0
 10
1.0415400000000001
 20
-2.52278
 30
0.0
  0
ENDSEC
  0
SECTION
  2
OBJECTS
  0
DICTIONARY
  5
19
100
AcDbDictionary
280
     0
281
     1
  3
ACAD_GROUP
350
1A
  3
ACAD_MLINESTYLE
350
1B
  3
ACAD_LAYOUT
350
1E
  3
ACAD_PLOTSETTINGS
350
22
  3
ACAD_PLOTSTYLENAME
350
1F
  3
ACAD_WIPEOUT_VARS
350
23
  0
DICTIONARY
  5
1A
102
{ACAD_REACTORS
330
19
102
}
100
AcDbDictionary
280
     0
281
     1
  0
DICTIONARY
  5
1B
102
{ACAD_REACTORS
330
19
102
}
100
AcDbDictionary
280
     0
281
     1
  3
Standard
350
1C
  0
MLINESTYLE
  5
1C
102
{ACAD_REACTORS
330
1B
102
}
100
AcDbMlineStyle
  2
Standard
 70
     0
  3

 62
     0
 51
90.0
 52
90.0
 71
     2
 49
0.5
 62
   256
  6
BYLAYER
 49
-0.5
 62
   256
  6
BYLAYER
  0
ACDBDICTIONARYWDFLT
  5
1F
102
{ACAD_REACTORS
330
19
102
}
100
AcDbDictionary
281
     1
  3
Normal
350
1D
100
AcDbDictionaryWithDefault
340
1D
  0
ACDBPLACEHOLDER
  5
1D
102
{ACAD_REACTORS
330
1F
102
}
  0
LAYOUT
  5
20
102
{ACAD_REACTORS
330
1E
102
}
100
AcDbPlotSettings
  1

  2

  4

  6

 40
0.0
 41
0.0
 42
0.0
 43
0.0
 44
0.0
 45
0.0
 46
0.0
 47
0.0
 48
0.0
 49
0.0
140
0.0
141
0.0
142
1.0
143
1.0
 70
  1024
 72
     0
 73
     0
 74
     0
  7

 75
     0
147
1.0
148
0.0
149
0.0
100
AcDbLayout
  1
Model
 70
     0
 71
     0
 10
0.0
 20
0.0
 11
0.0
 21
0.0
 12
0.0
 22
0.0
 32
0.0
 14
0.0
 24
0.0
 34
0.0
 15
0.0
 25
0.0
 35
0.0
146
0.0
 13
0.0
 23
0.0
 33
0.0
 16
0.0
 26
0.0
 36
0.0
 17
0.0
 27
0.0
 37
0.0
 76
     0
330
A
331
0
345
0
346
0
  0
LAYOUT
  5
21
102
{ACAD_REACTORS
330
1E
102
}
100
AcDbPlotSettings
  1

  2

  4

  6

 40
0.0
 41
0.0
 42
0.0
 43
0.0
 44
0.0
 45
0.0
 46
0.0
 47
0.0
 48
0.0
 49
0.0
140
0.0
141
0.0
142
1.0
143
1.0
 70
     0
 72
     0
 73
     0
 74
     0
  7

 75
     0
147
1.0
148
0.0
149
0.0
100
AcDbLayout
  1
Layout1
 70
     0
 71
     0
 10
0.0
 20
0.0
 11
0.0
 21
0.0
 12
0.0
 22
0.0
 32
0.0
 14
0.0
 24
0.0
 34
0.0
 15
0.0
 25
0.0
 35
0.0
146
0.0
 13
0.0
 23
0.0
 33
0.0
 16
0.0
 26
0.0
 36
0.0
 17
0.0
 27
0.0
 37
0.0
 76
     0
330
B
331
0
345
0
346
0
  0
DICTIONARY
  5
1E
102
{ACAD_REACTORS
330
19
102
}
100
AcDbDictionary
280
     0
281
     1
  3
Layout1
350
21
  3
Model
350
20
  0
DICTIONARY
  5
22
102
{ACAD_REACTORS
330
19
102
}
100
AcDbDictionary
280
     0
281
     1
  0
WIPEOUTVARIABLES
  5
23
100
AcDbWipeoutVariables
 70
     1
  0
ENDSEC
  0
EOF
