   0
SECTION
   2
ENTITIES
  0
LINE
  8
0
  6
CONTINUOUS
 62
10
 10
6.55345556
 20
2.28911779
 30
0.00000000
 11
6.55331583
 21
2.31271430
 31
0.00000000
  0
ARC
  8
0
  6
CONTINUOUS
 62
10
 10
6.30332021
 20
2.31123388
 30
0.00000000
 40
0.25000000
 50
0.33929091
 51
108.22142985
  0
LINE
  8
0
  6
CONTINUOUS
 62
10
 10
6.22514766
 20
2.54869767
 30
0.00000000
 11
5.09791592
 21
2.17761549
 31
0.00000000
  0
ARC
  8
0
  6
CONTINUOUS
 62
10
 10
3.53446489
 20
6.92689131
 30
0.00000000
 40
5.00000000
 50
275.33545889
 51
288.22142985
  0
ARC
  8
0
  6
CONTINUOUS
 62
10
 10
3.77314601
 20
4.44025152
 30
0.00000000
 40
2.50194801
 50
267.88186743
 51
275.18838463
  0
LINE
  8
0
  6
CONTINUOUS
 62
10
 10
3.68067409
 20
1.94001297
 30
0.00000000
 11
3.63827774
 21
1.94158208
 31
0.00000000
  0
ARC
  8
0
  6
CONTINUOUS
 62
10
 10
3.73074096
 20
4.43987161
 30
0.00000000
 40
2.50000000
 50
245.29525023
 51
267.88041579
  0
LINE
  8
0
  6
CONTINUOUS
 62
10
 10
2.68588499
 20
2.16868777
 30
0.00000000
 11
2.86476069
 21
2.13452692
 31
0.00000000
  0
ARC
  8
0
  6
CONTINUOUS
 62
10
 10
3.33372378
 20
4.59014774
 30
0.00000000
 40
2.50000000
 50
259.18810511
 51
271.22402320
  0
LINE
  8
0
  6
CONTINUOUS
 62
10
 10
3.38712781
 20
2.09071820
 30
0.00000000
 11
3.48546962
 21
2.09281942
 31
0.00000000
  0
ARC
  8
0
  6
CONTINUOUS
 62
10
 10
3.37866157
 20
7.09167849
 30
0.00000000
 40
5.00000000
 50
271.22402320
 51
289.58428116
  0
LINE
  8
0
  6
CONTINUOUS
 62
10
 10
5.05462711
 20
2.38093126
 30
0.00000000
 11
5.85199306
 21
2.66461404
 31
0.00000000
  0
LINE
  8
0
  6
CONTINUOUS
 62
10
 10
5.85199306
 20
2.66461404
 30
0.00000000
 11
6.10726945
 21
2.74597595
 31
0.00000000
  0
ARC
  8
0
  6
CONTINUOUS
 62
10
 10
6.48685694
 20
1.55500435
 30
0.00000000
 40
1.25000000
 50
93.52982836
 51
107.67816519
  0
LINE
  8
0
  6
CONTINUOUS
 62
10
 10
6.40989674
 20
2.80263295
 30
0.00000000
 11
6.43153899
 21
2.80396796
 31
0.00000000
  0
ARC
  8
0
  6
CONTINUOUS
 62
10
 10
6.46232307
 20
2.30491652
 30
0.00000000
 40
0.50000000
 50
69.78827321
 51
93.52982836
  0
LINE
  8
0
  6
CONTINUOUS
 62
10
 10
6.63506820
 20
2.77412768
 30
0.00000000
 11
6.73444231
 21
2.73754204
 31
0.00000000
  0
LINE
  8
0
  6
CONTINUOUS
 62
10
 10
6.73444231
 20
2.73754204
 30
0.00000000
 11
6.90349040
 21
2.89923029
 31
0.00000000
  0
ARC
  8
0
  6
CONTINUOUS
 62
10
 10
7.24909065
 20
2.53789877
 30
0.00000000
 40
0.50000000
 50
110.54272738
 51
133.72521382
  0
LINE
  8
0
  6
CONTINUOUS
 62
10
 10
7.07363776
 20
3.00610415
 30
0.00000000
 11
7.08876281
 21
3.01177204
 31
0.00000000
  0
LINE
  8
0
  6
CONTINUOUS
 62
10
 10
7.08876281
 20
3.01177204
 30
0.00000000
 11
7.01745588
 21
2.93122137
 31
0.00000000
  0
ARC
  8
0
  6
CONTINUOUS
 62
10
 10
7.39183748
 20
2.59980258
 30
0.00000000
 40
0.50000000
 50
138.48335607
 51
168.38047714
  0
LINE
  8
0
  6
CONTINUOUS
 62
10
 10
6.90208414
 20
2.70050843
 30
0.00000000
 11
6.87686531
 21
2.57786404
 31
0.00000000
  0
LINE
  8
0
  6
CONTINUOUS
 62
10
 10
6.87686531
 20
2.57786404
 30
0.00000000
 11
6.92735737
 21
2.66738301
 31
0.00000000
  0
ARC
  8
0
  6
CONTINUOUS
 62
10
 10
7.36285873
 20
2.42174392
 30
0.00000000
 40
0.50000000
 50
124.36134895
 51
150.57537338
  0
LINE
  8
0
  6
CONTINUOUS
 62
10
 10
7.08065360
 20
2.83449114
 30
0.00000000
 11
7.06636289
 21
2.82472024
 31
0.00000000
  0
ARC
  8
0
  6
CONTINUOUS
 62
10
 10
7.20746546
 20
2.61834663
 30
0.00000000
 40
0.25000000
 50
97.02348533
 51
124.36134895
  0
LINE
  8
0
  6
CONTINUOUS
 62
10
 10
7.17689641
 20
2.86647066
 30
0.00000000
 11
7.21113451
 21
2.87068881
 31
0.00000000
  0
ARC
  8
0
  6
CONTINUOUS
 62
10
 10
7.30284164
 20
2.12631673
 30
0.00000000
 40
0.75000000
 50
72.90871502
 51
97.02348533
  0
LINE
  8
0
  6
CONTINUOUS
 62
10
 10
7.52326285
 20
2.84319503
 30
0.00000000
 11
7.49625477
 21
2.85149930
 31
0.00000000
  0
ARC
  8
0
  6
CONTINUOUS
 62
10
 10
7.71667597
 20
3.56837759
 30
0.00000000
 40
0.75000000
 50
252.90871502
 51
268.73972047
  0
ARC
  8
0
  6
CONTINUOUS
 62
10
 10
7.72211038
 20
3.56930533
 30
0.00000000
 40
0.75106654
 50
268.32680527
 51
284.24090331
  0
LINE
  8
0
  6
CONTINUOUS
 62
10
 10
7.90687230
 20
2.84131908
 30
0.00000000
 11
7.95970882
 21
2.85473433
 31
0.00000000
  0
ARC
  8
0
  6
CONTINUOUS
 62
10
 10
7.89818565
 20
3.09704590
 30
0.00000000
 40
0.25000000
 50
284.24641671
 51
309.20576233
  0
LINE
  8
0
  6
CONTINUOUS
 62
10
 10
8.05621246
 20
2.90332567
 30
0.00000000
 11
8.21890906
 21
3.03604504
 31
0.00000000
  0
LINE
  8
0
  6
CONTINUOUS
 62
10
 10
8.21890906
 20
3.03604504
 30
0.00000000
 11
8.21346816
 21
3.02467670
 31
0.00000000
  0
ARC
  8
0
  6
CONTINUOUS
 62
10
 10
7.76246086
 20
3.24052947
 30
0.00000000
 40
0.50000000
 50
308.37171196
 51
334.42415374
  0
LINE
  8
0
  6
CONTINUOUS
 62
10
 10
8.07284125
 20
2.84852945
 30
0.00000000
 11
8.06127693
 21
2.83937297
 31
0.00000000
  0
ARC
  8
0
  6
CONTINUOUS
 62
10
 10
7.75089654
 20
3.23137299
 30
0.00000000
 40
0.50000000
 50
293.46141956
 51
308.37171196
  0
ARC
  8
0
  6
CONTINUOUS
 62
10
 10
7.74254948
 20
3.22960607
 30
0.00000000
 40
0.50177204
 50
270.72985394
 51
294.41611879
  0
LINE
  8
0
  6
CONTINUOUS
 62
10
 10
7.74894106
 20
2.72787474
 30
0.00000000
 11
7.65330401
 21
2.72669006
 31
0.00000000
  0
ARC
  8
0
  6
CONTINUOUS
 62
10
 10
7.64401428
 20
3.47663253
 30
0.00000000
 40
0.75000000
 50
256.79000277
 51
270.70970081
  0
LINE
  8
0
  6
CONTINUOUS
 62
10
 10
7.47262373
 20
2.74647825
 30
0.00000000
 11
7.26081853
 21
2.79619570
 31
0.00000000
  0
ARC
  8
0
  6
CONTINUOUS
 62
10
 10
7.24653599
 20
2.73534951
 30
0.00000000
 40
0.06250000
 50
76.79000277
 51
232.37212030
  0
LINE
  8
0
  6
CONTINUOUS
 62
10
 10
7.20837782
 20
2.68584997
 30
0.00000000
 11
7.32042265
 21
2.59947695
 31
0.00000000
  0
ARC
  8
0
  6
CONTINUOUS
 62
10
 10
7.47305531
 20
2.79747511
 30
0.00000000
 40
0.25000000
 50
232.37212030
 51
289.31046032
  0
LINE
  8
0
  6
CONTINUOUS
 62
10
 10
7.55572698
 20
2.56153996
 30
0.00000000
 11
7.82127575
 21
2.65458825
 31
0.00000000
  0
ARC
  8
0
  6
CONTINUOUS
 62
10
 10
7.73860408
 20
2.89052340
 30
0.00000000
 40
0.25000000
 50
289.31046032
 51
293.79088960
  0
LINE
  8
0
  6
CONTINUOUS
 62
10
 10
7.83945403
 20
2.66176744
 30
0.00000000
 11
7.90920152
 21
2.69251650
 31
0.00000000
  0
ARC
  8
0
  6
CONTINUOUS
 62
10
 10
8.51430123
 20
1.31998077
 30
0.00000000
 40
1.50000000
 50
88.74157583
 51
113.79088960
  0
LINE
  8
0
  6
CONTINUOUS
 62
10
 10
8.54724405
 20
2.81961898
 30
0.00000000
 11
8.61930646
 21
2.81803598
 31
0.00000000
  0
ARC
  8
0
  6
CONTINUOUS
 62
10
 10
8.63577786
 20
3.56785508
 30
0.00000000
 40
0.75000000
 50
268.74157583
 51
302.82187308
  0
LINE
  8
0
  6
CONTINUOUS
 62
10
 10
9.04229966
 20
2.93758528
 30
0.00000000
 11
9.11299231
 21
2.98318179
 31
0.00000000
  0
LINE
  8
0
  6
CONTINUOUS
 62
10
 10
9.11299231
 20
2.98318179
 30
0.00000000
 11
9.09509414
 21
2.96314144
 31
0.00000000
  0
ARC
  8
0
  6
CONTINUOUS
 62
10
 10
8.53571029
 20
3.46273098
 30
0.00000000
 40
0.75000000
 50
278.36002978
 51
318.23174139
  0
LINE
  8
0
  6
CONTINUOUS
 62
10
 10
8.64475494
 20
2.72070048
 30
0.00000000
 11
8.58765431
 21
2.71230929
 31
0.00000000
  0
LINE
  8
0
  6
CONTINUOUS
 62
10
 10
8.58765431
 20
2.71230929
 30
0.00000000
 11
8.30299758
 21
2.70456915
 31
0.00000000
  0
ARC
  8
0
  6
CONTINUOUS
 62
10
 10
8.30979285
 20
2.45466152
 30
0.00000000
 40
0.25000000
 50
91.55755291
 51
121.98706315
  0
LINE
  8
0
  6
CONTINUOUS
 62
10
 10
8.17736091
 20
2.66670345
 30
0.00000000
 11
8.15450019
 21
2.65242567
 31
0.00000000
  0
ARC
  8
0
  6
CONTINUOUS
 62
10
 10
8.16774339
 20
2.63122147
 30
0.00000000
 40
0.02500000
 50
121.98706315
 51
194.04586542
  0
LINE
  8
0
  6
CONTINUOUS
 62
10
 10
8.14349084
 20
2.62515401
 30
0.00000000
 11
8.14665510
 21
2.61250601
 31
0.00000000
  0
ARC
  8
0
  6
CONTINUOUS
 62
10
 10
8.21941273
 20
2.63070840
 30
0.00000000
 40
0.07500000
 50
194.04586542
 51
259.12201604
  0
LINE
  8
0
  6
CONTINUOUS
 62
10
 10
8.20525887
 20
2.55705606
 30
0.00000000
 11
8.25135826
 21
2.54819708
 31
0.00000000
  0
ARC
  8
0
  6
CONTINUOUS
 62
10
 10
8.27494802
 20
2.67095100
 30
0.00000000
 40
0.12500000
 50
259.12201604
 51
288.03579930
  0
LINE
  8
0
  6
CONTINUOUS
 62
10
 10
8.31364942
 20
2.55209309
 30
0.00000000
 11
8.33219941
 21
2.55813316
 31
0.00000000
  0
ARC
  8
0
  6
CONTINUOUS
 62
10
 10
9.10622733
 20
0.18097503
 30
0.00000000
 40
2.50000000
 50
88.78503391
 51
108.03579930
  0
ARC
  8
0
  6
CONTINUOUS
 62
10
 10
9.15393536
 20
2.43046919
 30
0.00000000
 40
0.25000000
 50
66.31040471
 51
88.78503391
  0
LINE
  8
0
  6
CONTINUOUS
 62
10
 10
9.25438074
 20
2.65940308
 30
0.00000000
 11
9.31359828
 21
2.63342122
 31
0.00000000
  0
ARC
  8
0
  6
CONTINUOUS
 62
10
 10
9.21315291
 20
2.40448733
 30
0.00000000
 40
0.25000000
 50
45.76434300
 51
66.31040471
  0
LINE
  8
0
  6
CONTINUOUS
 62
10
 10
9.38755569
 20
2.58360648
 30
0.00000000
 11
9.44824231
 21
2.52451779
 31
0.00000000
  0
ARC
  8
0
  6
CONTINUOUS
 62
10
 10
9.01361999
 20
1.35105832
 30
0.00000000
 40
1.25136073
 50
69.67653223
 51
87.72135375
  0
LINE
  8
0
  6
CONTINUOUS
 62
10
 10
9.06337334
 20
2.60142958
 30
0.00000000
 11
9.09993655
 21
2.59997777
 31
0.00000000
  0
ARC
  8
0
  6
CONTINUOUS
 62
10
 10
9.05034204
 20
1.35096200
 30
0.00000000
 40
1.25000000
 50
87.72615831
 51
106.22793226
  0
LINE
  8
0
  6
CONTINUOUS
 62
10
 10
8.70101801
 20
2.55115895
 30
0.00000000
 11
8.65048756
 21
2.53645179
 31
0.00000000
  0
LINE
  8
0
  6
CONTINUOUS
 62
10
 10
8.65048756
 20
2.53645179
 30
0.00000000
 11
8.30204401
 21
2.40216056
 31
0.00000000
  0
ARC
  8
0
  6
CONTINUOUS
 62
10
 10
8.02965038
 20
3.10104755
 30
0.00000000
 40
0.75009420
 50
263.66515025
 51
291.29352252
  0
LINE
  8
0
  6
CONTINUOUS
 62
10
 10
7.94688584
 20
2.35553340
 30
0.00000000
 11
7.77572149
 21
2.37453812
 31
0.00000000
  0
ARC
  8
0
  6
CONTINUOUS
 62
10
 10
7.80330995
 20
2.62301121
 30
0.00000000
 40
0.25000000
 50
255.13439063
 51
263.66428547
  0
LINE
  8
0
  6
CONTINUOUS
 62
10
 10
7.73917178
 20
2.38137865
 30
0.00000000
 11
7.55834597
 21
2.42937648
 31
0.00000000
  0
ARC
  8
0
  6
CONTINUOUS
 62
10
 10
7.49420779
 20
2.18774392
 30
0.00000000
 40
0.25000000
 50
75.13439063
 51
96.00481902
  0
LINE
  8
0
  6
CONTINUOUS
 62
10
 10
7.46805476
 20
2.43637219
 30
0.00000000
 11
7.38509618
 21
2.42764584
 31
0.00000000
  0
ARC
  8
0
  6
CONTINUOUS
 62
10
 10
7.41124921
 20
2.17901756
 30
0.00000000
 40
0.25000000
 50
96.00481902
 51
130.22555749
  0
ARC
  8
0
  6
CONTINUOUS
 62
10
 10
7.29016203
 20
2.32217532
 30
0.00000000
 40
0.06250000
 50
130.22555749
 51
233.14959624
  0
LINE
  8
0
  6
CONTINUOUS
 62
10
 10
7.25267904
 20
2.27216256
 30
0.00000000
 11
7.27135610
 21
2.25494171
 31
0.00000000
  0
ARC
  8
0
  6
CONTINUOUS
 62
10
 10
7.31372269
 20
2.30089083
 30
0.00000000
 40
0.06250000
 50
227.32293044
 51
267.49491637
  0
LINE
  8
0
  6
CONTINUOUS
 62
10
 10
7.31099094
 20
2.23845056
 30
0.00000000
 11
7.33502763
 21
2.23739896
 31
0.00000000
  0
ARC
  8
0
  6
CONTINUOUS
 62
10
 10
7.38966267
 20
3.48620439
 30
0.00000000
 40
1.25000000
 50
267.49491637
 51
286.17832348
  0
ARC
  8
0
  6
CONTINUOUS
 62
10
 10
7.81184629
 20
2.04523129
 30
0.00000000
 40
0.25157277
 50
90.02532743
 51
107.08245254
  0
ARC
  8
0
  6
CONTINUOUS
 62
10
 10
7.81832763
 20
0.29584459
 30
0.00000000
 40
2.00097031
 50
77.87299701
 51
90.18877132
  0
LINE
  8
0
  6
CONTINUOUS
 62
10
 10
8.23869019
 20
2.25216192
 30
0.00000000
 11
8.38457056
 21
2.22081204
 31
0.00000000
  0
LINE
  8
0
  6
CONTINUOUS
 62
10
 10
8.38457056
 20
2.22081204
 30
0.00000000
 11
8.10578906
 21
2.23072654
 31
0.00000000
  0
LINE
  8
0
  6
CONTINUOUS
 62
10
 10
8.10578906
 20
2.23072654
 30
0.00000000
 11
8.11724684
 21
2.23116733
 31
0.00000000
  0
ARC
  8
0
  6
CONTINUOUS
 62
10
 10
8.19413299
 20
0.23264575
 30
0.00000000
 40
2.00000000
 50
92.20316903
 51
108.92948545
  0
LINE
  8
0
  6
CONTINUOUS
 62
10
 10
7.54532450
 20
2.12448283
 30
0.00000000
 11
7.50762881
 21
2.11155504
 31
0.00000000
  0
LINE
  8
0
  6
CONTINUOUS
 62
10
 10
7.50762881
 20
2.11155504
 30
0.00000000
 11
7.15853891
 21
1.99326066
 31
0.00000000
  0
ARC
  8
0
  6
CONTINUOUS
 62
10
 10
7.07830415
 20
2.23003562
 30
0.00000000
 40
0.25000000
 50
279.84214359
 51
288.71972491
  0
LINE
  8
0
  6
CONTINUOUS
 62
10
 10
7.12103771
 20
1.98371501
 30
0.00000000
 11
6.96035253
 21
1.95583813
 31
0.00000000
  0
ARC
  8
0
  6
CONTINUOUS
 62
10
 10
6.91761896
 20
2.20215874
 30
0.00000000
 40
0.25000000
 50
253.02052173
 51
279.84214359
  0
LINE
  8
0
  6
CONTINUOUS
 62
10
 10
6.84461167
 20
1.96305639
 30
0.00000000
 11
6.80904230
 21
1.97391710
 31
0.00000000
  0
ARC
  8
0
  6
CONTINUOUS
 62
10
 10
6.88204959
 20
2.21301946
 30
0.00000000
 40
0.25000000
 50
213.31816332
 51
253.02052173
  0
LINE
  8
0
  6
CONTINUOUS
 62
10
 10
6.67314127
 20
2.07569752
 30
0.00000000
 11
6.65468853
 21
2.10376973
 31
0.00000000
  0
ARC
  8
0
  6
CONTINUOUS
 62
10
 10
6.86359685
 20
2.24109167
 30
0.00000000
 40
0.25000000
 50
178.57753158
 51
213.31816332
  0
LINE
  8
0
  6
CONTINUOUS
 62
10
 10
6.61367389
 20
2.24729772
 30
0.00000000
 11
6.61806456
 21
2.42411379
 31
0.00000000
  0
LINE
  8
0
  6
CONTINUOUS
 62
10
 10
6.61806456
 20
2.42411379
 30
0.00000000
 11
6.55345556
 21
2.28911779
 31
0.00000000
   0
ENDSEC
   0
EOF
