999
"DXF R12 Output" (www.mydxf.blogspot.com)
 0 
SECTION
 2 
HEADER
 9 
$ACADVER
 1 
AC1009
 9 
$EXTMIN
 10 
 0 
 20 
 0 
 9 
$EXTMAX
 10 
 8.5 
 20 
 11 
 0 
ENDSEC
 0 
SECTION
 2 
ENTITIES
0
LINE
8
Layer 1
10
16.538245
20
10.652825
11
14.632761
21
11.941475
0
LINE
8
Layer 1
10
14.632761
20
11.941475
11
13.172974
21
13.390882
0
LINE
8
Layer 1
10
13.172974
20
13.390882
11
12.008928
21
15.186499
0
LINE
8
Layer 1
10
12.008928
20
15.186499
11
10.990671
21
17.513783
0
LINE
8
Layer 1
10
10.990671
20
17.513783
11
10.289882
21
20.162905
0
LINE
8
Layer 1
10
10.289882
20
20.162905
11
10.054830
21
22.976396
0
LINE
8
Layer 1
10
10.054830
20
22.976396
11
10.248092
21
25.824402
0
LINE
8
Layer 1
10
10.248092
20
25.824402
11
10.832244
21
28.577074
0
LINE
8
Layer 1
10
10.832244
20
28.577074
11
11.769862
21
31.104558
0
LINE
8
Layer 1
10
11.769862
20
31.104558
11
13.023521
21
33.277005
0
LINE
8
Layer 1
10
13.023521
20
33.277005
11
14.555798
21
34.964562
0
LINE
8
Layer 1
10
14.555798
20
34.964562
11
15.414723
21
35.585929
0
LINE
8
Layer 1
10
15.414723
20
35.585929
11
16.329268
21
36.037379
0
LINE
8
Layer 1
10
16.329268
20
36.037379
11
17.279389
21
36.248594
0
LINE
8
Layer 1
10
17.279389
20
36.248594
11
17.501441
21
36.138394
0
LINE
8
Layer 1
10
17.501441
20
36.138394
11
17.554504
21
35.880980
0
LINE
8
Layer 1
10
17.554504
20
35.880980
11
17.152710
21
34.914494
0
LINE
8
Layer 1
10
17.152710
20
34.914494
11
16.072104
21
33.329093
0
LINE
8
Layer 1
10
16.072104
20
33.329093
11
14.637411
21
31.109184
0
LINE
8
Layer 1
10
14.637411
20
31.109184
11
13.481265
21
28.738443
0
LINE
8
Layer 1
10
13.481265
20
28.738443
11
12.709769
21
26.472108
0
LINE
8
Layer 1
10
12.709769
20
26.472108
11
12.429025
21
24.565418
0
LINE
8
Layer 1
10
12.429025
20
24.565418
11
12.691983
21
22.776817
0
LINE
8
Layer 1
10
12.691983
20
22.776817
11
13.376776
21
20.673958
0
LINE
8
Layer 1
10
13.376776
20
20.673958
11
14.327285
21
18.650750
0
LINE
8
Layer 1
10
14.327285
20
18.650750
11
15.387388
21
17.101103
0
LINE
8
Layer 1
10
15.387388
20
17.101103
11
16.475017
21
16.051620
0
LINE
8
Layer 1
10
16.475017
20
16.051620
11
17.640687
21
15.224601
0
LINE
8
Layer 1
10
17.640687
20
15.224601
11
18.867938
21
14.623322
0
LINE
8
Layer 1
10
18.867938
20
14.623322
11
20.140314
21
14.251059
0
LINE
8
Layer 1
10
20.140314
20
14.251059
11
21.441356
21
14.111088
0
LINE
8
Layer 1
10
21.441356
20
14.111088
11
22.754606
21
14.206685
0
LINE
8
Layer 1
10
22.754606
20
14.206685
11
24.063607
21
14.541125
0
LINE
8
Layer 1
10
24.063607
20
14.541125
11
25.351900
21
15.117685
0
LINE
8
Layer 1
10
25.351900
20
15.117685
11
26.847959
21
16.069051
0
LINE
8
Layer 1
10
26.847959
20
16.069051
11
28.276237
21
17.275597
0
LINE
8
Layer 1
10
28.276237
20
17.275597
11
29.690207
21
18.815676
0
LINE
8
Layer 1
10
29.690207
20
18.815676
11
31.143343
21
20.767641
0
LINE
8
Layer 1
10
31.143343
20
20.767641
11
32.689121
21
23.209845
0
LINE
8
Layer 1
10
32.689121
20
23.209845
11
34.381013
21
26.220640
0
LINE
8
Layer 1
10
34.381013
20
26.220640
11
38.417037
21
34.261419
0
LINE
8
Layer 1
10
38.417037
20
34.261419
11
39.885433
21
37.132652
0
LINE
8
Layer 1
10
39.885433
20
37.132652
11
41.418554
21
39.748326
0
LINE
8
Layer 1
10
41.418554
20
39.748326
11
43.048032
21
42.158711
0
LINE
8
Layer 1
10
43.048032
20
42.158711
11
44.805496
21
44.414076
0
LINE
8
Layer 1
10
44.805496
20
44.414076
11
48.375237
21
48.690369
0
LINE
8
Layer 1
10
48.375237
20
48.690369
11
47.900968
21
51.171893
0
LINE
8
Layer 1
10
47.900968
20
51.171893
11
47.217488
21
55.895596
0
LINE
8
Layer 1
10
47.217488
20
55.895596
11
46.976965
21
57.591309
0
LINE
8
Layer 1
10
46.976965
20
57.591309
11
46.692484
21
58.519639
0
LINE
8
Layer 1
10
46.692484
20
58.519639
11
46.268634
21
58.483561
0
LINE
8
Layer 1
10
46.268634
20
58.483561
11
45.368999
21
58.094761
0
LINE
8
Layer 1
10
45.368999
20
58.094761
11
42.700857
21
56.598673
0
LINE
8
Layer 1
10
42.700857
20
56.598673
11
39.805032
21
54.710722
0
LINE
8
Layer 1
10
39.805032
20
54.710722
11
37.798496
21
53.110260
0
LINE
8
Layer 1
10
37.798496
20
53.110260
11
37.303358
21
52.473303
0
LINE
8
Layer 1
10
37.303358
20
52.473303
11
36.963540
21
51.732384
0
LINE
8
Layer 1
10
36.963540
20
51.732384
11
36.767854
21
50.853664
0
LINE
8
Layer 1
10
36.767854
20
50.853664
11
36.705111
21
49.803301
0
LINE
8
Layer 1
10
36.705111
20
49.803301
11
36.508916
21
48.015364
0
LINE
8
Layer 1
10
36.508916
20
48.015364
11
35.991411
21
46.876426
0
LINE
8
Layer 1
10
35.991411
20
46.876426
11
35.645488
21
46.590347
0
LINE
8
Layer 1
10
35.645488
20
46.590347
11
35.259221
21
46.514536
0
LINE
8
Layer 1
10
35.259221
20
46.514536
11
34.845938
21
46.665000
0
LINE
8
Layer 1
10
34.845938
20
46.665000
11
34.418967
21
47.057745
0
LINE
8
Layer 1
10
34.418967
20
47.057745
11
34.017221
21
47.610339
0
LINE
8
Layer 1
10
34.017221
20
47.610339
11
33.886223
21
48.084700
0
LINE
8
Layer 1
10
33.886223
20
48.084700
11
34.027694
21
48.652158
0
LINE
8
Layer 1
10
34.027694
20
48.652158
11
34.443357
21
49.484043
0
LINE
8
Layer 1
10
34.443357
20
49.484043
11
35.011118
21
50.713859
0
LINE
8
Layer 1
10
35.011118
20
50.713859
11
35.247267
21
51.587211
0
LINE
8
Layer 1
10
35.247267
20
51.587211
11
35.147591
21
51.815016
0
LINE
8
Layer 1
10
35.147591
20
51.815016
11
34.871544
21
51.924627
0
LINE
8
Layer 1
10
34.871544
20
51.924627
11
33.928225
21
51.825013
0
LINE
8
Layer 1
10
33.928225
20
51.825013
11
32.693087
21
51.359864
0
LINE
8
Layer 1
10
32.693087
20
51.359864
11
31.441904
21
50.600675
0
LINE
8
Layer 1
10
31.441904
20
50.600675
11
30.415997
21
50.071247
0
LINE
8
Layer 1
10
30.415997
20
50.071247
11
29.604401
21
50.115641
0
LINE
8
Layer 1
10
29.604401
20
50.115641
11
29.309688
21
50.338574
0
LINE
8
Layer 1
10
29.309688
20
50.338574
11
29.105415
21
50.687626
0
LINE
8
Layer 1
10
29.105415
20
50.687626
11
29.017338
21
51.740971
0
LINE
8
Layer 1
10
29.017338
20
51.740971
11
29.176949
21
52.507404
0
LINE
8
Layer 1
10
29.176949
20
52.507404
11
29.622451
21
52.936187
0
LINE
8
Layer 1
10
29.622451
20
52.936187
11
30.648626
21
53.157542
0
LINE
8
Layer 1
10
30.648626
20
53.157542
11
32.550252
21
53.301694
0
LINE
8
Layer 1
10
32.550252
20
53.301694
11
33.151280
21
53.492754
0
LINE
8
Layer 1
10
33.151280
20
53.492754
11
33.162537
21
53.695471
0
LINE
8
Layer 1
10
33.162537
20
53.695471
11
32.986396
21
53.978079
0
LINE
8
Layer 1
10
32.986396
20
53.978079
11
32.506144
21
54.340491
0
LINE
8
Layer 1
10
32.506144
20
54.340491
11
31.716707
21
54.647771
0
LINE
8
Layer 1
10
31.716707
20
54.647771
11
29.260600
21
55.082019
0
LINE
8
Layer 1
10
29.260600
20
55.082019
11
29.024944
21
55.497242
0
LINE
8
Layer 1
10
29.024944
20
55.497242
11
29.017623
21
56.438684
0
LINE
8
Layer 1
10
29.017623
20
56.438684
11
29.389403
21
57.409080
0
LINE
8
Layer 1
10
29.389403
20
57.409080
11
30.083985
21
57.931334
0
LINE
8
Layer 1
10
30.083985
20
57.931334
11
30.884080
21
57.929754
0
LINE
8
Layer 1
10
30.884080
20
57.929754
11
31.255791
21
57.708872
0
LINE
8
Layer 1
10
31.255791
20
57.708872
11
31.572398
21
57.328647
0
LINE
8
Layer 1
10
31.572398
20
57.328647
11
32.260235
21
56.598322
0
LINE
8
Layer 1
10
32.260235
20
56.598322
11
33.183850
21
56.049875
0
LINE
8
Layer 1
10
33.183850
20
56.049875
11
33.676832
21
55.926118
0
LINE
8
Layer 1
10
33.676832
20
55.926118
11
34.022519
21
55.978394
0
LINE
8
Layer 1
10
34.022519
20
55.978394
11
34.221709
21
56.189294
0
LINE
8
Layer 1
10
34.221709
20
56.189294
11
34.275200
21
56.541409
0
LINE
8
Layer 1
10
34.275200
20
56.541409
11
33.948271
21
57.599649
0
LINE
8
Layer 1
10
33.948271
20
57.599649
11
33.048112
21
59.013841
0
LINE
8
Layer 1
10
33.048112
20
59.013841
11
32.256539
21
60.247177
0
LINE
8
Layer 1
10
32.256539
20
60.247177
11
32.042215
21
61.147755
0
LINE
8
Layer 1
10
32.042215
20
61.147755
11
32.152337
21
61.481321
0
LINE
8
Layer 1
10
32.152337
20
61.481321
11
32.407750
21
61.741370
0
LINE
8
Layer 1
10
32.407750
20
61.741370
11
33.355754
21
62.053820
0
LINE
8
Layer 1
10
33.355754
20
62.053820
11
33.972479
21
62.062261
0
LINE
8
Layer 1
10
33.972479
20
62.062261
11
34.408366
21
61.826323
0
LINE
8
Layer 1
10
34.408366
20
61.826323
11
34.733784
21
61.273059
0
LINE
8
Layer 1
10
34.733784
20
61.273059
11
35.019099
21
60.329524
0
LINE
8
Layer 1
10
35.019099
20
60.329524
11
35.552803
21
58.941857
0
LINE
8
Layer 1
10
35.552803
20
58.941857
11
36.170768
21
58.149599
0
LINE
8
Layer 1
10
36.170768
20
58.149599
11
36.427082
21
58.039883
0
LINE
8
Layer 1
10
36.427082
20
58.039883
11
36.603339
21
58.154781
0
LINE
8
Layer 1
10
36.603339
20
58.154781
11
36.665834
21
58.519547
0
LINE
8
Layer 1
10
36.665834
20
58.519547
11
36.580860
21
59.159434
0
LINE
8
Layer 1
10
36.580860
20
59.159434
11
36.637981
21
60.403184
0
LINE
8
Layer 1
10
36.637981
20
60.403184
11
37.141077
21
61.637123
0
LINE
8
Layer 1
10
37.141077
20
61.637123
11
37.861402
21
62.474054
0
LINE
8
Layer 1
10
37.861402
20
62.474054
11
38.231541
21
62.622642
0
LINE
8
Layer 1
10
38.231541
20
62.622642
11
38.570208
21
62.526779
0
LINE
8
Layer 1
10
38.570208
20
62.526779
11
38.968008
21
61.910243
0
LINE
8
Layer 1
10
38.968008
20
61.910243
11
39.118568
21
61.020813
0
LINE
8
Layer 1
10
39.118568
20
61.020813
11
39.014622
21
60.135116
0
LINE
8
Layer 1
10
39.014622
20
60.135116
11
38.648908
21
59.529780
0
LINE
8
Layer 1
10
38.648908
20
59.529780
11
38.305706
21
59.106422
0
LINE
8
Layer 1
10
38.305706
20
59.106422
11
38.162958
21
58.598554
0
LINE
8
Layer 1
10
38.162958
20
58.598554
11
38.266758
21
58.413916
0
LINE
8
Layer 1
10
38.266758
20
58.413916
11
38.564186
21
58.426685
0
LINE
8
Layer 1
10
38.564186
20
58.426685
11
39.656091
21
58.990137
0
LINE
8
Layer 1
10
39.656091
20
58.990137
11
41.271010
21
60.180288
0
LINE
8
Layer 1
10
41.271010
20
60.180288
11
43.241276
21
61.888517
0
LINE
8
Layer 1
10
43.241276
20
61.888517
11
44.413415
21
62.887571
0
LINE
8
Layer 1
10
44.413415
20
62.887571
11
45.439100
21
63.556145
0
LINE
8
Layer 1
10
45.439100
20
63.556145
11
46.356446
21
63.885131
0
LINE
8
Layer 1
10
46.356446
20
63.885131
11
47.203571
21
63.865420
0
LINE
8
Layer 1
10
47.203571
20
63.865420
11
48.018588
21
63.487902
0
LINE
8
Layer 1
10
48.018588
20
63.487902
11
48.839613
21
62.743468
0
LINE
8
Layer 1
10
48.839613
20
62.743468
11
49.704763
21
61.623009
0
LINE
8
Layer 1
10
49.704763
20
61.623009
11
50.652152
21
60.117417
0
LINE
8
Layer 1
10
50.652152
20
60.117417
11
52.237945
21
57.109453
0
LINE
8
Layer 1
10
52.237945
20
57.109453
11
53.136662
21
54.828688
0
LINE
8
Layer 1
10
53.136662
20
54.828688
11
53.546104
21
53.065782
0
LINE
8
Layer 1
10
53.546104
20
53.065782
11
54.309800
21
54.828688
0
LINE
8
Layer 1
10
54.309800
20
54.828688
11
55.696640
21
57.466249
0
LINE
8
Layer 1
10
55.696640
20
57.466249
11
57.505632
21
59.978062
0
LINE
8
Layer 1
10
57.505632
20
59.978062
11
59.710135
21
62.343690
0
LINE
8
Layer 1
10
59.710135
20
62.343690
11
62.283507
21
64.542694
0
LINE
8
Layer 1
10
62.283507
20
64.542694
11
65.199107
21
66.554636
0
LINE
8
Layer 1
10
65.199107
20
66.554636
11
68.430294
21
68.359078
0
LINE
8
Layer 1
10
68.430294
20
68.359078
11
71.950426
21
69.935581
0
LINE
8
Layer 1
10
71.950426
20
69.935581
11
75.732863
21
71.263708
0
LINE
8
Layer 1
10
75.732863
20
71.263708
11
80.015292
21
72.576634
0
LINE
8
Layer 1
10
80.015292
20
72.576634
11
77.517044
21
75.292795
0
LINE
8
Layer 1
10
77.517044
20
75.292795
11
75.718142
21
77.568981
0
LINE
8
Layer 1
10
75.718142
20
77.568981
11
75.279370
21
78.428519
0
LINE
8
Layer 1
10
75.279370
20
78.428519
11
75.178412
21
79.053004
0
LINE
8
Layer 1
10
75.178412
20
79.053004
11
75.446607
21
79.584674
0
LINE
8
Layer 1
10
75.446607
20
79.584674
11
76.061971
21
80.245091
0
LINE
8
Layer 1
10
76.061971
20
80.245091
11
78.010743
21
81.654999
0
LINE
8
Layer 1
10
78.010743
20
81.654999
11
80.683461
21
83.212952
0
LINE
8
Layer 1
10
80.683461
20
83.212952
11
79.347102
21
83.844091
0
LINE
8
Layer 1
10
79.347102
20
83.844091
11
78.770194
21
84.209527
0
LINE
8
Layer 1
10
78.770194
20
84.209527
11
78.346824
21
84.661399
0
LINE
8
Layer 1
10
78.346824
20
84.661399
11
78.079457
21
85.158047
0
LINE
8
Layer 1
10
78.079457
20
85.158047
11
77.970558
21
85.657812
0
LINE
8
Layer 1
10
77.970558
20
85.657812
11
78.022591
21
86.119036
0
LINE
8
Layer 1
10
78.022591
20
86.119036
11
78.238022
21
86.500059
0
LINE
8
Layer 1
10
78.238022
20
86.500059
11
78.619316
21
86.759223
0
LINE
8
Layer 1
10
78.619316
20
86.759223
11
79.168938
21
86.854869
0
LINE
8
Layer 1
10
79.168938
20
86.854869
11
79.690725
21
86.777100
0
LINE
8
Layer 1
10
79.690725
20
86.777100
11
80.103128
21
86.544620
0
LINE
8
Layer 1
10
80.103128
20
86.544620
11
80.404721
21
86.158663
0
LINE
8
Layer 1
10
80.404721
20
86.158663
11
80.594076
21
85.620468
0
LINE
8
Layer 1
10
80.594076
20
85.620468
11
80.939354
21
84.897021
0
LINE
8
Layer 1
10
80.939354
20
84.897021
11
81.390581
21
84.801769
0
LINE
8
Layer 1
10
81.390581
20
84.801769
11
81.761443
21
85.253845
0
LINE
8
Layer 1
10
81.761443
20
85.253845
11
81.865628
21
86.172382
0
LINE
8
Layer 1
10
81.865628
20
86.172382
11
81.822067
21
87.375329
0
LINE
8
Layer 1
10
81.822067
20
87.375329
11
81.952853
21
88.124728
0
LINE
8
Layer 1
10
81.952853
20
88.124728
11
82.294989
21
88.509303
0
LINE
8
Layer 1
10
82.294989
20
88.509303
11
82.885478
21
88.617778
0
LINE
8
Layer 1
10
82.885478
20
88.617778
11
83.665480
21
88.367529
0
LINE
8
Layer 1
10
83.665480
20
88.367529
11
84.121825
21
87.728278
0
LINE
8
Layer 1
10
84.121825
20
87.728278
11
84.195437
21
86.867265
0
LINE
8
Layer 1
10
84.195437
20
86.867265
11
83.827242
21
85.951731
0
LINE
8
Layer 1
10
83.827242
20
85.951731
11
83.328079
21
84.980584
0
LINE
8
Layer 1
10
83.328079
20
84.980584
11
83.360766
21
84.774372
0
LINE
8
Layer 1
10
83.360766
20
84.774372
11
83.544654
21
84.745812
0
LINE
8
Layer 1
10
83.544654
20
84.745812
11
84.255100
21
85.195885
0
LINE
8
Layer 1
10
84.255100
20
85.195885
11
85.237546
21
86.279273
0
LINE
8
Layer 1
10
85.237546
20
86.279273
11
86.505964
21
87.602780
0
LINE
8
Layer 1
10
86.505964
20
87.602780
11
87.025878
21
87.860943
0
LINE
8
Layer 1
10
87.025878
20
87.860943
11
87.448655
21
87.835311
0
LINE
8
Layer 1
10
87.448655
20
87.835311
11
88.058870
21
87.269630
0
LINE
8
Layer 1
10
88.058870
20
87.269630
11
88.176978
21
86.501659
0
LINE
8
Layer 1
10
88.176978
20
86.501659
11
87.830760
21
85.720102
0
LINE
8
Layer 1
10
87.830760
20
85.720102
11
87.047996
21
85.113661
0
LINE
8
Layer 1
10
87.047996
20
85.113661
11
85.900013
21
84.428172
0
LINE
8
Layer 1
10
85.900013
20
84.428172
11
85.523417
21
83.851925
0
LINE
8
Layer 1
10
85.523417
20
83.851925
11
85.623821
21
83.637311
0
LINE
8
Layer 1
10
85.623821
20
83.637311
11
85.916391
21
83.489059
0
LINE
8
Layer 1
10
85.916391
20
83.489059
11
87.077121
21
83.443711
0
LINE
8
Layer 1
10
87.077121
20
83.443711
11
88.045059
21
83.490502
0
LINE
8
Layer 1
10
88.045059
20
83.490502
11
88.633693
21
83.365064
0
LINE
8
Layer 1
10
88.633693
20
83.365064
11
88.947702
21
83.011892
0
LINE
8
Layer 1
10
88.947702
20
83.011892
11
89.091764
21
82.375482
0
LINE
8
Layer 1
10
89.091764
20
82.375482
11
88.975171
21
81.473391
0
LINE
8
Layer 1
10
88.975171
20
81.473391
11
88.531118
21
80.829311
0
LINE
8
Layer 1
10
88.531118
20
80.829311
11
87.962852
21
80.615488
0
LINE
8
Layer 1
10
87.962852
20
80.615488
11
87.695655
21
80.723750
0
LINE
8
Layer 1
10
87.695655
20
80.723750
11
87.473623
21
81.004168
0
LINE
8
Layer 1
10
87.473623
20
81.004168
11
86.908923
21
81.402688
0
LINE
8
Layer 1
10
86.908923
20
81.402688
11
86.011257
21
81.553845
0
LINE
8
Layer 1
10
86.011257
20
81.553845
11
85.179873
21
81.447329
0
LINE
8
Layer 1
10
85.179873
20
81.447329
11
84.913804
21
81.294223
0
LINE
8
Layer 1
10
84.913804
20
81.294223
11
84.814023
21
81.072833
0
LINE
8
Layer 1
10
84.814023
20
81.072833
11
85.170892
21
80.527805
0
LINE
8
Layer 1
10
85.170892
20
80.527805
11
86.028894
21
79.910153
0
LINE
8
Layer 1
10
86.028894
20
79.910153
11
86.841167
21
79.221302
0
LINE
8
Layer 1
10
86.841167
20
79.221302
11
87.201278
21
78.402513
0
LINE
8
Layer 1
10
87.201278
20
78.402513
11
87.083521
21
77.623287
0
LINE
8
Layer 1
10
87.083521
20
77.623287
11
86.462190
21
77.053124
0
LINE
8
Layer 1
10
86.462190
20
77.053124
11
86.045721
21
77.010885
0
LINE
8
Layer 1
10
86.045721
20
77.010885
11
85.576347
21
77.245265
0
LINE
8
Layer 1
10
85.576347
20
77.245265
11
84.483174
21
78.540655
0
LINE
8
Layer 1
10
84.483174
20
78.540655
11
83.517870
21
79.729306
0
LINE
8
Layer 1
10
83.517870
20
79.729306
11
82.581716
21
80.298168
0
LINE
8
Layer 1
10
82.581716
20
80.298168
11
82.136074
21
80.346946
0
LINE
8
Layer 1
10
82.136074
20
80.346946
11
81.711523
21
80.236899
0
LINE
8
Layer 1
10
81.711523
20
80.236899
11
80.944099
21
79.535153
0
LINE
8
Layer 1
10
80.944099
20
79.535153
11
80.600666
21
78.732937
0
LINE
8
Layer 1
10
80.600666
20
78.732937
11
80.648668
21
78.321290
0
LINE
8
Layer 1
10
80.648668
20
78.321290
11
80.873714
21
77.854416
0
LINE
8
Layer 1
10
80.873714
20
77.854416
11
81.946632
21
76.610389
0
LINE
8
Layer 1
10
81.946632
20
76.610389
11
84.002809
21
74.711658
0
LINE
8
Layer 1
10
84.002809
20
74.711658
11
86.270803
21
72.969808
0
LINE
8
Layer 1
10
86.270803
20
72.969808
11
87.210021
21
72.529521
0
LINE
8
Layer 1
10
87.210021
20
72.529521
11
88.069446
21
72.375679
0
LINE
8
Layer 1
10
88.069446
20
72.375679
11
88.886621
21
72.507794
0
LINE
8
Layer 1
10
88.886621
20
72.507794
11
89.699090
21
72.925381
0
LINE
8
Layer 1
10
89.699090
20
72.925381
11
90.544398
21
73.627952
0
LINE
8
Layer 1
10
90.544398
20
73.627952
11
91.460089
21
74.615021
0
LINE
8
Layer 1
10
91.460089
20
74.615021
11
92.373521
21
75.480053
0
LINE
8
Layer 1
10
92.373521
20
75.480053
11
93.450382
21
76.182516
0
LINE
8
Layer 1
10
93.450382
20
76.182516
11
94.602762
21
76.704889
0
LINE
8
Layer 1
10
94.602762
20
76.704889
11
95.742750
21
77.029653
0
LINE
8
Layer 1
10
95.742750
20
77.029653
11
96.782437
21
77.139287
0
LINE
8
Layer 1
10
96.782437
20
77.139287
11
97.633911
21
77.016272
0
LINE
8
Layer 1
10
97.633911
20
77.016272
11
98.209264
21
76.643087
0
LINE
8
Layer 1
10
98.209264
20
76.643087
11
98.420583
21
76.002213
0
LINE
8
Layer 1
10
98.420583
20
76.002213
11
98.631917
21
75.291670
0
LINE
8
Layer 1
10
98.631917
20
75.291670
11
99.199773
21
74.642215
0
LINE
8
Layer 1
10
99.199773
20
74.642215
11
100.024935
21
74.087625
0
LINE
8
Layer 1
10
100.024935
20
74.087625
11
101.008183
21
73.661675
0
LINE
8
Layer 1
10
101.008183
20
73.661675
11
102.050300
21
73.398141
0
LINE
8
Layer 1
10
102.050300
20
73.398141
11
103.052069
21
73.330800
0
LINE
8
Layer 1
10
103.052069
20
73.330800
11
103.914272
21
73.493428
0
LINE
8
Layer 1
10
103.914272
20
73.493428
11
104.537691
21
73.919801
0
LINE
8
Layer 1
10
104.537691
20
73.919801
11
104.936106
21
74.075681
0
LINE
8
Layer 1
10
104.936106
20
74.075681
11
105.566895
21
73.953742
0
LINE
8
Layer 1
10
105.566895
20
73.953742
11
107.229301
21
73.076051
0
LINE
8
Layer 1
10
107.229301
20
73.076051
11
108.932316
21
71.686032
0
LINE
8
Layer 1
10
108.932316
20
71.686032
11
109.613867
21
70.923681
0
LINE
8
Layer 1
10
109.613867
20
70.923681
11
110.083349
21
70.182986
0
LINE
8
Layer 1
10
110.083349
20
70.182986
11
110.492306
21
68.903921
0
LINE
8
Layer 1
10
110.492306
20
68.903921
11
110.481024
21
68.318748
0
LINE
8
Layer 1
10
110.481024
20
68.318748
11
110.308619
21
67.729411
0
LINE
8
Layer 1
10
110.308619
20
67.729411
11
109.428594
21
66.417033
0
LINE
8
Layer 1
10
109.428594
20
66.417033
11
107.748541
21
64.724362
0
LINE
8
Layer 1
10
107.748541
20
64.724362
11
106.653325
21
63.785345
0
LINE
8
Layer 1
10
106.653325
20
63.785345
11
105.767709
21
63.265327
0
LINE
8
Layer 1
10
105.767709
20
63.265327
11
104.898452
21
63.087459
0
LINE
8
Layer 1
10
104.898452
20
63.087459
11
103.852317
21
63.174894
0
LINE
8
Layer 1
10
103.852317
20
63.174894
11
102.292000
21
63.148061
0
LINE
8
Layer 1
10
102.292000
20
63.148061
11
100.887312
21
62.610944
0
LINE
8
Layer 1
10
100.887312
20
62.610944
11
99.785975
21
61.651743
0
LINE
8
Layer 1
10
99.785975
20
61.651743
11
99.395227
21
61.041426
0
LINE
8
Layer 1
10
99.395227
20
61.041426
11
99.135712
21
60.358663
0
LINE
8
Layer 1
10
99.135712
20
60.358663
11
98.888317
21
59.803468
0
LINE
8
Layer 1
10
98.888317
20
59.803468
11
98.433838
21
59.459736
0
LINE
8
Layer 1
10
98.433838
20
59.459736
11
97.672215
21
59.284792
0
LINE
8
Layer 1
10
97.672215
20
59.284792
11
96.503391
21
59.235961
0
LINE
8
Layer 1
10
96.503391
20
59.235961
11
94.318711
21
59.505625
0
LINE
8
Layer 1
10
94.318711
20
59.505625
11
92.348846
21
60.153962
0
LINE
8
Layer 1
10
92.348846
20
60.153962
11
90.878158
21
60.715291
0
LINE
8
Layer 1
10
90.878158
20
60.715291
11
89.893628
21
60.775763
0
LINE
8
Layer 1
10
89.893628
20
60.775763
11
89.421553
21
60.284990
0
LINE
8
Layer 1
10
89.421553
20
60.284990
11
88.681745
21
59.216233
0
LINE
8
Layer 1
10
88.681745
20
59.216233
11
86.806615
21
56.072017
0
LINE
8
Layer 1
10
86.806615
20
56.072017
11
85.083603
21
52.797621
0
LINE
8
Layer 1
10
85.083603
20
52.797621
11
84.328073
21
50.847549
0
LINE
8
Layer 1
10
84.328073
20
50.847549
11
84.817195
21
49.660194
0
LINE
8
Layer 1
10
84.817195
20
49.660194
11
85.975733
21
47.706699
0
LINE
8
Layer 1
10
85.975733
20
47.706699
11
87.340447
21
45.711923
0
LINE
8
Layer 1
10
87.340447
20
45.711923
11
88.448097
21
44.400724
0
LINE
8
Layer 1
10
88.448097
20
44.400724
11
88.722032
21
44.350907
0
LINE
8
Layer 1
10
88.722032
20
44.350907
11
89.100873
21
44.539162
0
LINE
8
Layer 1
10
89.100873
20
44.539162
11
89.973110
21
45.487282
0
LINE
8
Layer 1
10
89.973110
20
45.487282
11
90.914107
21
46.470094
0
LINE
8
Layer 1
10
90.914107
20
46.470094
11
91.389414
21
46.707235
0
LINE
8
Layer 1
10
91.389414
20
46.707235
11
91.839990
21
46.775861
0
LINE
8
Layer 1
10
91.839990
20
46.775861
11
92.244880
21
46.676722
0
LINE
8
Layer 1
10
92.244880
20
46.676722
11
92.583132
21
46.410563
0
LINE
8
Layer 1
10
92.583132
20
46.410563
11
92.833793
21
45.978133
0
LINE
8
Layer 1
10
92.833793
20
45.978133
11
92.975910
21
45.380179
0
LINE
8
Layer 1
10
92.975910
20
45.380179
11
92.962310
21
44.791960
0
LINE
8
Layer 1
10
92.962310
20
44.791960
11
92.764074
21
44.281867
0
LINE
8
Layer 1
10
92.764074
20
44.281867
11
92.370686
21
43.832851
0
LINE
8
Layer 1
10
92.370686
20
43.832851
11
91.771631
21
43.427864
0
LINE
8
Layer 1
10
91.771631
20
43.427864
11
91.098719
21
43.022442
0
LINE
8
Layer 1
10
91.098719
20
43.022442
11
90.804212
21
42.719760
0
LINE
8
Layer 1
10
90.804212
20
42.719760
11
90.858347
21
42.448793
0
LINE
8
Layer 1
10
90.858347
20
42.448793
11
91.231364
21
42.138513
0
LINE
8
Layer 1
10
91.231364
20
42.138513
11
92.275183
21
41.797811
0
LINE
8
Layer 1
10
92.275183
20
41.797811
11
93.650511
21
41.746283
0
LINE
8
Layer 1
10
93.650511
20
41.746283
11
94.463389
21
41.776947
0
LINE
8
Layer 1
10
94.463389
20
41.776947
11
94.954966
21
41.647401
0
LINE
8
Layer 1
10
94.954966
20
41.647401
11
95.197168
21
41.312080
0
LINE
8
Layer 1
10
95.197168
20
41.312080
11
95.261918
21
40.725417
0
LINE
8
Layer 1
10
95.261918
20
40.725417
11
95.191322
21
40.117769
0
LINE
8
Layer 1
10
95.191322
20
40.117769
11
94.901556
21
39.787766
0
LINE
8
Layer 1
10
94.901556
20
39.787766
11
94.275650
21
39.679412
0
LINE
8
Layer 1
10
94.275650
20
39.679412
11
93.196636
21
39.736708
0
LINE
8
Layer 1
10
93.196636
20
39.736708
11
91.738032
21
39.710955
0
LINE
8
Layer 1
10
91.738032
20
39.710955
11
91.294319
21
39.580539
0
LINE
8
Layer 1
10
91.294319
20
39.580539
11
91.131356
21
39.387058
0
LINE
8
Layer 1
10
91.131356
20
39.387058
11
91.395500
21
38.710403
0
LINE
8
Layer 1
10
91.395500
20
38.710403
11
92.023183
21
37.889571
0
LINE
8
Layer 1
10
92.023183
20
37.889571
11
92.767284
21
37.197163
0
LINE
8
Layer 1
10
92.767284
20
37.197163
11
93.380684
21
36.905782
0
LINE
8
Layer 1
10
93.380684
20
36.905782
11
94.043765
21
36.680369
0
LINE
8
Layer 1
10
94.043765
20
36.680369
11
94.494495
21
36.101298
0
LINE
8
Layer 1
10
94.494495
20
36.101298
11
94.666438
21
35.314327
0
LINE
8
Layer 1
10
94.666438
20
35.314327
11
94.493153
21
34.465212
0
LINE
8
Layer 1
10
94.493153
20
34.465212
11
93.875897
21
33.677716
0
LINE
8
Layer 1
10
93.875897
20
33.677716
11
93.094284
21
33.414573
0
LINE
8
Layer 1
10
93.094284
20
33.414573
11
92.359986
21
33.676019
0
LINE
8
Layer 1
10
92.359986
20
33.676019
11
92.076726
21
34.003537
0
LINE
8
Layer 1
10
92.076726
20
34.003537
11
91.884672
21
34.462291
0
LINE
8
Layer 1
10
91.884672
20
34.462291
11
91.329630
21
35.629313
0
LINE
8
Layer 1
10
91.329630
20
35.629313
11
90.394079
21
36.915273
0
LINE
8
Layer 1
10
90.394079
20
36.915273
11
89.187562
21
38.285922
0
LINE
8
Layer 1
10
89.187562
20
38.285922
11
89.187562
21
36.244284
0
LINE
8
Layer 1
10
89.187562
20
36.244284
11
89.359877
21
34.594010
0
LINE
8
Layer 1
10
89.359877
20
34.594010
11
89.774169
21
33.493295
0
LINE
8
Layer 1
10
89.774169
20
33.493295
11
89.995521
21
33.073873
0
LINE
8
Layer 1
10
89.995521
20
33.073873
11
90.022707
21
32.631324
0
LINE
8
Layer 1
10
90.022707
20
32.631324
11
89.613414
21
31.806604
0
LINE
8
Layer 1
10
89.613414
20
31.806604
11
88.783958
21
31.278657
0
LINE
8
Layer 1
10
88.783958
20
31.278657
11
88.285940
21
31.207075
0
LINE
8
Layer 1
10
88.285940
20
31.207075
11
87.772006
21
31.307007
0
LINE
8
Layer 1
10
87.772006
20
31.307007
11
87.223967
21
31.605847
0
LINE
8
Layer 1
10
87.223967
20
31.605847
11
86.953054
21
32.108648
0
LINE
8
Layer 1
10
86.953054
20
32.108648
11
86.911493
21
33.033727
0
LINE
8
Layer 1
10
86.911493
20
33.033727
11
87.051507
21
34.599403
0
LINE
8
Layer 1
10
87.051507
20
34.599403
11
87.139514
21
36.554735
0
LINE
8
Layer 1
10
87.139514
20
36.554735
11
86.909792
21
37.438043
0
LINE
8
Layer 1
10
86.909792
20
37.438043
11
86.698342
21
37.457526
0
LINE
8
Layer 1
10
86.698342
20
37.457526
11
86.434531
21
37.184808
0
LINE
8
Layer 1
10
86.434531
20
37.184808
11
85.785920
21
35.730510
0
LINE
8
Layer 1
10
85.785920
20
35.730510
11
85.284599
21
34.613258
0
LINE
8
Layer 1
10
85.284599
20
34.613258
11
84.735864
21
34.067784
0
LINE
8
Layer 1
10
84.735864
20
34.067784
11
84.129019
21
34.089236
0
LINE
8
Layer 1
10
84.129019
20
34.089236
11
83.453368
21
34.672764
0
LINE
8
Layer 1
10
83.453368
20
34.672764
11
83.018169
21
35.515144
0
LINE
8
Layer 1
10
83.018169
20
35.515144
11
82.889197
21
36.440115
0
LINE
8
Layer 1
10
82.889197
20
36.440115
11
83.059926
21
37.186574
0
LINE
8
Layer 1
10
83.059926
20
37.186574
11
83.255640
21
37.411267
0
LINE
8
Layer 1
10
83.255640
20
37.411267
11
83.523833
21
37.493417
0
LINE
8
Layer 1
10
83.523833
20
37.493417
11
84.225747
21
37.814514
0
LINE
8
Layer 1
10
84.225747
20
37.814514
11
84.995492
21
38.586509
0
LINE
8
Layer 1
10
84.995492
20
38.586509
11
85.332540
21
39.165125
0
LINE
8
Layer 1
10
85.332540
20
39.165125
11
85.497778
21
39.794274
0
LINE
8
Layer 1
10
85.497778
20
39.794274
11
85.482763
21
40.498093
0
LINE
8
Layer 1
10
85.482763
20
40.498093
11
85.279051
21
41.300716
0
LINE
8
Layer 1
10
85.279051
20
41.300716
11
84.271768
21
43.298917
0
LINE
8
Layer 1
10
84.271768
20
43.298917
11
82.408384
21
45.981959
0
LINE
8
Layer 1
10
82.408384
20
45.981959
11
80.675355
21
48.622072
0
LINE
8
Layer 1
10
80.675355
20
48.622072
11
80.148162
21
49.678905
0
LINE
8
Layer 1
10
80.148162
20
49.678905
11
79.954538
21
50.368352
0
LINE
8
Layer 1
10
79.954538
20
50.368352
11
80.515027
21
52.160410
0
LINE
8
Layer 1
10
80.515027
20
52.160410
11
81.862586
21
54.910569
0
LINE
8
Layer 1
10
81.862586
20
54.910569
11
83.649529
21
58.489463
0
LINE
8
Layer 1
10
83.649529
20
58.489463
11
81.104142
21
57.875478
0
LINE
8
Layer 1
10
81.104142
20
57.875478
11
79.831916
21
57.338180
0
LINE
8
Layer 1
10
79.831916
20
57.338180
11
78.443558
21
56.487340
0
LINE
8
Layer 1
10
78.443558
20
56.487340
11
76.936487
21
55.321162
0
LINE
8
Layer 1
10
76.936487
20
55.321162
11
75.308121
21
53.837846
0
LINE
8
Layer 1
10
75.308121
20
53.837846
11
72.032955
21
50.958242
0
LINE
8
Layer 1
10
72.032955
20
50.958242
11
68.819369
21
48.722242
0
LINE
8
Layer 1
10
68.819369
20
48.722242
11
65.763255
21
47.187518
0
LINE
8
Layer 1
10
65.763255
20
47.187518
11
64.324215
21
46.701157
0
LINE
8
Layer 1
10
64.324215
20
46.701157
11
62.960501
21
46.411741
0
LINE
8
Layer 1
10
62.960501
20
46.411741
11
60.172586
21
46.014146
0
LINE
8
Layer 1
10
60.172586
20
46.014146
11
64.961098
21
40.729597
0
LINE
8
Layer 1
10
64.961098
20
40.729597
11
68.519284
21
36.491060
0
LINE
8
Layer 1
10
68.519284
20
36.491060
11
69.437883
21
35.097064
0
LINE
8
Layer 1
10
69.437883
20
35.097064
11
69.749616
21
34.231636
0
LINE
8
Layer 1
10
69.749616
20
34.231636
11
69.500378
21
33.346765
0
LINE
8
Layer 1
10
69.500378
20
33.346765
11
68.821759
21
31.834449
0
LINE
8
Layer 1
10
68.821759
20
31.834449
11
66.590951
21
27.774931
0
LINE
8
Layer 1
10
66.590951
20
27.774931
11
64.360142
21
23.939017
0
LINE
8
Layer 1
10
64.360142
20
23.939017
11
63.432284
21
22.079435
0
LINE
8
Layer 1
10
63.432284
20
22.079435
11
63.647111
21
21.687321
0
LINE
8
Layer 1
10
63.647111
20
21.687321
11
64.167141
21
21.655643
0
LINE
8
Layer 1
10
64.167141
20
21.655643
11
64.805691
21
21.943176
0
LINE
8
Layer 1
10
64.805691
20
21.943176
11
65.376081
21
22.508693
0
LINE
8
Layer 1
10
65.376081
20
22.508693
11
65.989181
21
23.149560
0
LINE
8
Layer 1
10
65.989181
20
23.149560
11
66.598953
21
23.354055
0
LINE
8
Layer 1
10
66.598953
20
23.354055
11
67.130983
21
23.123853
0
LINE
8
Layer 1
10
67.130983
20
23.123853
11
67.510858
21
22.460630
0
LINE
8
Layer 1
10
67.510858
20
22.460630
11
67.784687
21
21.280419
0
LINE
8
Layer 1
10
67.784687
20
21.280419
11
67.725064
21
20.474000
0
LINE
8
Layer 1
10
67.725064
20
20.474000
11
67.321191
21
20.011822
0
LINE
8
Layer 1
10
67.321191
20
20.011822
11
66.562269
21
19.864330
0
LINE
8
Layer 1
10
66.562269
20
19.864330
11
65.762304
21
19.695493
0
LINE
8
Layer 1
10
65.762304
20
19.695493
11
65.595391
21
19.509115
0
LINE
8
Layer 1
10
65.595391
20
19.509115
11
65.619054
21
19.276692
0
LINE
8
Layer 1
10
65.619054
20
19.276692
11
66.255461
21
18.861673
0
LINE
8
Layer 1
10
66.255461
20
18.861673
11
67.363803
21
18.689055
0
LINE
8
Layer 1
10
67.363803
20
18.689055
11
68.448454
21
18.441710
0
LINE
8
Layer 1
10
68.448454
20
18.441710
11
68.816507
21
18.159276
0
LINE
8
Layer 1
10
68.816507
20
18.159276
11
69.057937
21
17.794775
0
LINE
8
Layer 1
10
69.057937
20
17.794775
11
69.129601
21
16.890894
0
LINE
8
Layer 1
10
69.129601
20
16.890894
11
68.600791
21
15.872714
0
LINE
8
Layer 1
10
68.600791
20
15.872714
11
68.127608
21
15.373402
0
LINE
8
Layer 1
10
68.127608
20
15.373402
11
67.704002
21
15.216264
0
LINE
8
Layer 1
10
67.704002
20
15.216264
11
67.165487
21
15.407048
0
LINE
8
Layer 1
10
67.165487
20
15.407048
11
66.347574
21
15.951505
0
LINE
8
Layer 1
10
66.347574
20
15.951505
11
65.329645
21
16.518916
0
LINE
8
Layer 1
10
65.329645
20
16.518916
11
65.056723
21
16.529619
0
LINE
8
Layer 1
10
65.056723
20
16.529619
11
64.942912
21
16.370758
0
LINE
8
Layer 1
10
64.942912
20
16.370758
11
65.197867
21
15.581661
0
LINE
8
Layer 1
10
65.197867
20
15.581661
11
66.105001
21
14.226252
0
LINE
8
Layer 1
10
66.105001
20
14.226252
11
66.915484
21
13.090349
0
LINE
8
Layer 1
10
66.915484
20
13.090349
11
67.247000
21
12.316475
0
LINE
8
Layer 1
10
67.247000
20
12.316475
11
67.130550
21
11.704926
0
LINE
8
Layer 1
10
67.130550
20
11.704926
11
66.597138
21
11.055996
0
LINE
8
Layer 1
10
66.597138
20
11.055996
11
65.845634
21
10.592051
0
LINE
8
Layer 1
10
65.845634
20
10.592051
11
65.165813
21
10.720947
0
LINE
8
Layer 1
10
65.165813
20
10.720947
11
64.611422
21
11.407188
0
LINE
8
Layer 1
10
64.611422
20
11.407188
11
64.236205
21
12.615277
0
LINE
8
Layer 1
10
64.236205
20
12.615277
11
63.803585
21
14.128204
0
LINE
8
Layer 1
10
63.803585
20
14.128204
11
63.193394
21
15.425471
0
LINE
8
Layer 1
10
63.193394
20
15.425471
11
62.795860
21
15.925345
0
LINE
8
Layer 1
10
62.795860
20
15.925345
11
62.434857
21
16.147303
0
LINE
8
Layer 1
10
62.434857
20
16.147303
11
62.116488
21
16.102042
0
LINE
8
Layer 1
10
62.116488
20
16.102042
11
61.846856
21
15.800264
0
LINE
8
Layer 1
10
61.846856
20
15.800264
11
61.478209
21
14.469951
0
LINE
8
Layer 1
10
61.478209
20
14.469951
11
61.377734
21
12.241962
0
LINE
8
Layer 1
10
61.377734
20
12.241962
11
61.377735
21
10.633215
0
LINE
8
Layer 1
10
61.377735
20
10.633215
11
61.249982
21
9.744850
0
LINE
8
Layer 1
10
61.249982
20
9.744850
11
60.918064
21
9.366269
0
LINE
8
Layer 1
10
60.918064
20
9.366269
11
60.305575
21
9.286875
0
LINE
8
Layer 1
10
60.305575
20
9.286875
11
59.204419
21
9.529242
0
LINE
8
Layer 1
10
59.204419
20
9.529242
11
58.543116
21
10.187001
0
LINE
8
Layer 1
10
58.543116
20
10.187001
11
58.374713
21
11.156138
0
LINE
8
Layer 1
10
58.374713
20
11.156138
11
58.752255
21
12.332640
0
LINE
8
Layer 1
10
58.752255
20
12.332640
11
59.312914
21
13.984676
0
LINE
8
Layer 1
10
59.312914
20
13.984676
11
59.635176
21
16.044692
0
LINE
8
Layer 1
10
59.635176
20
16.044692
11
59.787671
21
18.395239
0
LINE
8
Layer 1
10
59.787671
20
18.395239
11
57.682697
21
18.578280
0
LINE
8
Layer 1
10
57.682697
20
18.578280
11
55.810808
21
18.465195
0
LINE
8
Layer 1
10
55.810808
20
18.465195
11
55.024385
21
18.200434
0
LINE
8
Layer 1
10
55.024385
20
18.200434
11
54.370018
21
17.804424
0
LINE
8
Layer 1
10
54.370018
20
17.804424
11
53.836382
21
17.466763
0
LINE
8
Layer 1
10
53.836382
20
17.466763
11
53.334064
21
17.308588
0
LINE
8
Layer 1
10
53.334064
20
17.308588
11
52.878951
21
17.319012
0
LINE
8
Layer 1
10
52.878951
20
17.319012
11
52.486932
21
17.487148
0
LINE
8
Layer 1
10
52.486932
20
17.487148
11
52.173895
21
17.802110
0
LINE
8
Layer 1
10
52.173895
20
17.802110
11
51.955727
21
18.253012
0
LINE
8
Layer 1
10
51.955727
20
18.253012
11
51.867554
21
19.519087
0
LINE
8
Layer 1
10
51.867554
20
19.519087
11
52.025942
21
20.146599
0
LINE
8
Layer 1
10
52.025942
20
20.146599
11
52.394424
21
20.527602
0
LINE
8
Layer 1
10
52.394424
20
20.527602
11
53.086382
21
20.723815
0
LINE
8
Layer 1
10
53.086382
20
20.723815
11
54.215202
21
20.796956
0
LINE
8
Layer 1
10
54.215202
20
20.796956
11
56.684062
21
20.997380
0
LINE
8
Layer 1
10
56.684062
20
20.997380
11
57.596959
21
21.283635
0
LINE
8
Layer 1
10
57.596959
20
21.283635
11
58.394324
21
21.772845
0
LINE
8
Layer 1
10
58.394324
20
21.772845
11
59.150274
21
22.524202
0
LINE
8
Layer 1
10
59.150274
20
22.524202
11
59.938925
21
23.596900
0
LINE
8
Layer 1
10
59.938925
20
23.596900
11
61.910798
21
26.943095
0
LINE
8
Layer 1
10
61.910798
20
26.943095
11
64.014952
21
30.835448
0
LINE
8
Layer 1
10
64.014952
20
30.835448
11
64.890131
21
32.706022
0
LINE
8
Layer 1
10
64.890131
20
32.706022
11
64.458460
21
33.253218
0
LINE
8
Layer 1
10
64.458460
20
33.253218
11
63.305650
21
34.189150
0
LINE
8
Layer 1
10
63.305650
20
34.189150
11
59.689826
21
36.676506
0
LINE
8
Layer 1
10
59.689826
20
36.676506
11
55.749086
21
39.066650
0
LINE
8
Layer 1
10
55.749086
20
39.066650
11
54.190131
21
39.881068
0
LINE
8
Layer 1
10
54.190131
20
39.881068
11
53.189858
21
40.258142
0
LINE
8
Layer 1
10
53.189858
20
40.258142
11
52.292619
21
40.306116
0
LINE
8
Layer 1
10
52.292619
20
40.306116
11
51.356998
21
40.154329
0
LINE
8
Layer 1
10
51.356998
20
40.154329
11
50.398524
21
39.812582
0
LINE
8
Layer 1
10
50.398524
20
39.812582
11
49.432728
21
39.290680
0
LINE
8
Layer 1
10
49.432728
20
39.290680
11
47.541281
21
37.745619
0
LINE
8
Layer 1
10
47.541281
20
37.745619
11
45.806891
21
35.597569
0
LINE
8
Layer 1
10
45.806891
20
35.597569
11
43.541207
21
31.799991
0
LINE
8
Layer 1
10
43.541207
20
31.799991
11
40.443359
21
26.196315
0
LINE
8
Layer 1
10
40.443359
20
26.196315
11
38.139572
21
22.123601
0
LINE
8
Layer 1
10
38.139572
20
22.123601
11
35.915540
21
18.677361
0
LINE
8
Layer 1
10
35.915540
20
18.677361
11
33.737753
21
15.826479
0
LINE
8
Layer 1
10
33.737753
20
15.826479
11
31.572699
21
13.539838
0
LINE
8
Layer 1
10
31.572699
20
13.539838
11
29.386870
21
11.786321
0
LINE
8
Layer 1
10
29.386870
20
11.786321
11
27.146756
21
10.534810
0
LINE
8
Layer 1
10
27.146756
20
10.534810
11
24.818845
21
9.754190
0
LINE
8
Layer 1
10
24.818845
20
9.754190
11
22.369629
21
9.413342
0
LINE
8
Layer 1
10
22.369629
20
9.413342
11
20.560069
21
9.381884
0
LINE
8
Layer 1
10
20.560069
20
9.381884
11
19.154468
21
9.541955
0
LINE
8
Layer 1
10
19.154468
20
9.541955
11
17.898602
21
9.947590
0
LINE
8
Layer 1
10
17.898602
20
9.947590
11
16.538245
21
10.652825
0
LINE
8
Layer 1
10
16.538245
20
10.652825
11
16.538245
21
10.652825
0
LINE
8
Layer 1
10
100.091110
20
59.295236
11
100.016885
21
59.663230
0
LINE
8
Layer 1
10
100.016885
20
59.663230
11
100.112606
21
60.094760
0
LINE
8
Layer 1
10
100.112606
20
60.094760
11
100.717834
21
61.039505
0
LINE
8
Layer 1
10
100.717834
20
61.039505
11
101.714693
21
61.911617
0
LINE
8
Layer 1
10
101.714693
20
61.911617
11
102.911080
21
62.493243
0
LINE
8
Layer 1
10
102.911080
20
62.493243
11
103.564513
21
62.630896
0
LINE
8
Layer 1
10
103.564513
20
62.630896
11
104.028732
21
62.581487
0
LINE
8
Layer 1
10
104.028732
20
62.581487
11
104.349217
21
62.327426
0
LINE
8
Layer 1
10
104.349217
20
62.327426
11
104.571450
21
61.851125
0
LINE
8
Layer 1
10
104.571450
20
61.851125
11
104.602671
21
61.082709
0
LINE
8
Layer 1
10
104.602671
20
61.082709
11
104.276345
21
60.334960
0
LINE
8
Layer 1
10
104.276345
20
60.334960
11
103.686778
21
59.661676
0
LINE
8
Layer 1
10
103.686778
20
59.661676
11
102.928279
21
59.116658
0
LINE
8
Layer 1
10
102.928279
20
59.116658
11
102.095154
21
58.753705
0
LINE
8
Layer 1
10
102.095154
20
58.753705
11
101.281713
21
58.626617
0
LINE
8
Layer 1
10
101.281713
20
58.626617
11
100.582262
21
58.789194
0
LINE
8
Layer 1
10
100.582262
20
58.789194
11
100.091110
21
59.295236
0
LINE
8
Layer 1
10
100.091110
20
59.295236
11
100.091110
21
59.295236
0
LINE
8
Layer 1
10
101.508509
20
74.369248
11
100.531277
21
74.840063
0
LINE
8
Layer 1
10
100.531277
20
74.840063
11
99.645888
21
75.675840
0
LINE
8
Layer 1
10
99.645888
20
75.675840
11
99.215319
21
76.298207
0
LINE
8
Layer 1
10
99.215319
20
76.298207
11
99.092734
21
76.706055
0
LINE
8
Layer 1
10
99.092734
20
76.706055
11
99.292290
21
77.034871
0
LINE
8
Layer 1
10
99.292290
20
77.034871
11
99.828144
21
77.420145
0
LINE
8
Layer 1
10
99.828144
20
77.420145
11
100.899799
21
77.781272
0
LINE
8
Layer 1
10
100.899799
20
77.781272
11
102.054883
21
77.662572
0
LINE
8
Layer 1
10
102.054883
20
77.662572
11
103.085814
21
77.126247
0
LINE
8
Layer 1
10
103.085814
20
77.126247
11
103.785015
21
76.234494
0
LINE
8
Layer 1
10
103.785015
20
76.234494
11
103.906986
21
75.356195
0
LINE
8
Layer 1
10
103.906986
20
75.356195
11
103.496929
21
74.694137
0
LINE
8
Layer 1
10
103.496929
20
74.694137
11
102.661788
21
74.335946
0
LINE
8
Layer 1
10
102.661788
20
74.335946
11
101.508509
21
74.369248
0
LINE
8
Layer 1
10
101.508509
20
74.369248
11
101.508509
21
74.369248
 0 
ENDSEC
 0 
EOF
