999
"DXF R12 Output" (www.mydxf.blogspot.com)
 0 
SECTION
 2 
HEADER
 9 
$ACADVER
 1 
AC1009
 9 
$EXTMIN
 10 
 0 
 20 
 0 
 9 
$EXTMAX
 10 
 8.5 
 20 
 11 
 0 
ENDSEC
 0 
SECTION
 2 
ENTITIES
0
LINE
8
Layer 1
10
-0.386681
20
13.724430
11
-0.386681
21
27.835541
0
LINE
8
Layer 1
10
-0.386681
20
27.835541
11
49.002208
21
27.835541
0
LINE
8
Layer 1
10
49.002208
20
27.835541
11
98.391097
21
27.835541
0
LINE
8
Layer 1
10
98.391097
20
27.835541
11
98.391097
21
13.724430
0
LINE
8
Layer 1
10
98.391097
20
13.724430
11
98.391097
21
-0.386681
0
LINE
8
Layer 1
10
98.391097
20
-0.386681
11
49.002208
21
-0.386681
0
LINE
8
Layer 1
10
49.002208
20
-0.386681
11
-0.386681
21
-0.386681
0
LINE
8
Layer 1
10
-0.386681
20
-0.386681
11
-0.386681
21
13.724430
0
LINE
8
Layer 1
10
-0.386681
20
13.724430
11
-0.386681
21
13.724430
0
LINE
8
Layer 1
10
17.408269
20
6.232268
11
17.920906
21
6.138476
0
LINE
8
Layer 1
10
17.920906
20
6.138476
11
18.876154
21
5.382839
0
LINE
8
Layer 1
10
18.876154
20
5.382839
11
21.158870
21
3.279115
0
LINE
8
Layer 1
10
21.158870
20
3.279115
11
22.243309
21
2.294430
0
LINE
8
Layer 1
10
22.243309
20
2.294430
11
20.664981
21
4.819478
0
LINE
8
Layer 1
10
20.664981
20
4.819478
11
19.241803
21
7.243637
0
LINE
8
Layer 1
10
19.241803
20
7.243637
11
19.117804
21
7.682976
0
LINE
8
Layer 1
10
19.117804
20
7.682976
11
19.298319
21
7.797179
0
LINE
8
Layer 1
10
19.298319
20
7.797179
11
32.492208
21
4.287037
0
LINE
8
Layer 1
10
32.492208
20
4.287037
11
32.915541
21
4.156210
0
LINE
8
Layer 1
10
32.915541
20
4.156210
11
32.492208
21
4.445107
0
LINE
8
Layer 1
10
32.492208
20
4.445107
11
29.811097
21
5.547848
0
LINE
8
Layer 1
10
29.811097
20
5.547848
11
24.025541
21
7.820860
0
LINE
8
Layer 1
10
24.025541
20
7.820860
11
20.356652
21
9.349986
0
LINE
8
Layer 1
10
20.356652
20
9.349986
11
53.588319
21
9.421701
0
LINE
8
Layer 1
10
53.588319
20
9.421701
11
81.183600
21
9.552860
0
LINE
8
Layer 1
10
81.183600
20
9.552860
11
85.744830
21
9.690389
0
LINE
8
Layer 1
10
85.744830
20
9.690389
11
86.592939
21
9.790170
0
LINE
8
Layer 1
10
86.592939
20
9.790170
11
86.819986
21
9.915590
0
LINE
8
Layer 1
10
86.819986
20
9.915590
11
86.597546
21
10.040741
0
LINE
8
Layer 1
10
86.597546
20
10.040741
11
85.765664
21
10.139291
0
LINE
8
Layer 1
10
85.765664
20
10.139291
11
81.286194
21
10.270022
0
LINE
8
Layer 1
10
81.286194
20
10.270022
11
54.152763
21
10.360045
0
LINE
8
Layer 1
10
54.152763
20
10.360045
11
21.485541
21
10.382326
0
LINE
8
Layer 1
10
21.485541
20
10.382326
11
23.461097
21
11.050157
0
LINE
8
Layer 1
10
23.461097
20
11.050157
11
30.022763
21
13.170058
0
LINE
8
Layer 1
10
30.022763
20
13.170058
11
33.873590
21
14.492075
0
LINE
8
Layer 1
10
33.873590
20
14.492075
11
34.476459
21
14.876056
0
LINE
8
Layer 1
10
34.476459
20
14.876056
11
34.608874
21
15.263032
0
LINE
8
Layer 1
10
34.608874
20
15.263032
11
34.475494
21
15.757280
0
LINE
8
Layer 1
10
34.475494
20
15.757280
11
33.903319
21
15.769059
0
LINE
8
Layer 1
10
33.903319
20
15.769059
11
33.379875
21
15.531800
0
LINE
8
Layer 1
10
33.379875
20
15.531800
11
33.197763
21
15.102640
0
LINE
8
Layer 1
10
33.197763
20
15.102640
11
33.138989
21
14.824156
0
LINE
8
Layer 1
10
33.138989
20
14.824156
11
32.895670
21
14.663152
0
LINE
8
Layer 1
10
32.895670
20
14.663152
11
31.453430
21
14.571097
0
LINE
8
Layer 1
10
31.453430
20
14.571097
11
28.929932
21
14.238016
0
LINE
8
Layer 1
10
28.929932
20
14.238016
11
24.640020
21
13.149826
0
LINE
8
Layer 1
10
24.640020
20
13.149826
11
19.338190
21
11.809270
0
LINE
8
Layer 1
10
19.338190
20
11.809270
11
19.568817
21
12.322241
0
LINE
8
Layer 1
10
19.568817
20
12.322241
11
20.450144
21
13.442208
0
LINE
8
Layer 1
10
20.450144
20
13.442208
11
21.512445
21
14.854906
0
LINE
8
Layer 1
10
21.512445
20
14.854906
11
21.665626
21
15.333465
0
LINE
8
Layer 1
10
21.665626
20
15.333465
11
21.640195
21
15.805884
0
LINE
8
Layer 1
10
21.640195
20
15.805884
11
21.485541
21
16.617335
0
LINE
8
Layer 1
10
21.485541
20
16.617335
11
20.177754
21
15.218004
0
LINE
8
Layer 1
10
20.177754
20
15.218004
11
19.123481
21
13.869721
0
LINE
8
Layer 1
10
19.123481
20
13.869721
11
18.671280
21
12.642664
0
LINE
8
Layer 1
10
18.671280
20
12.642664
11
18.453291
21
11.812106
0
LINE
8
Layer 1
10
18.453291
20
11.812106
11
18.208193
21
11.466652
0
LINE
8
Layer 1
10
18.208193
20
11.466652
11
17.942662
21
11.259395
0
LINE
8
Layer 1
10
17.942662
20
11.259395
11
17.675541
21
10.761097
0
LINE
8
Layer 1
10
17.675541
20
10.761097
11
17.396241
21
10.262798
0
LINE
8
Layer 1
10
17.396241
20
10.262798
11
17.101426
21
10.055541
0
LINE
8
Layer 1
10
17.101426
20
10.055541
11
16.929155
21
9.984761
0
LINE
8
Layer 1
10
16.929155
20
9.984761
11
16.944480
21
9.814588
0
LINE
8
Layer 1
10
16.944480
20
9.814588
11
16.855344
21
9.555881
0
LINE
8
Layer 1
10
16.855344
20
9.555881
11
16.431922
21
9.272245
0
LINE
8
Layer 1
10
16.431922
20
9.272245
11
15.842160
21
9.135355
0
LINE
8
Layer 1
10
15.842160
20
9.135355
11
15.507561
21
9.583756
0
LINE
8
Layer 1
10
15.507561
20
9.583756
11
15.176452
21
12.114135
0
LINE
8
Layer 1
10
15.176452
20
12.114135
11
15.101508
21
13.199429
0
LINE
8
Layer 1
10
15.101508
20
13.199429
11
14.911897
21
14.056718
0
LINE
8
Layer 1
10
14.911897
20
14.056718
11
13.851885
21
16.100989
0
LINE
8
Layer 1
10
13.851885
20
16.100989
11
12.595541
21
18.470736
0
LINE
8
Layer 1
10
12.595541
20
18.470736
11
12.339955
21
18.929079
0
LINE
8
Layer 1
10
12.339955
20
18.929079
11
12.354658
21
18.331109
0
LINE
8
Layer 1
10
12.354658
20
18.331109
11
12.748918
21
16.671617
0
LINE
8
Layer 1
10
12.748918
20
16.671617
11
13.488235
21
13.684795
0
LINE
8
Layer 1
10
13.488235
20
13.684795
11
13.561861
21
12.595541
0
LINE
8
Layer 1
10
13.561861
20
12.595541
11
11.165076
21
13.683649
0
LINE
8
Layer 1
10
11.165076
20
13.683649
11
8.881619
21
14.771754
0
LINE
8
Layer 1
10
8.881619
20
14.771754
11
10.777687
21
12.861044
0
LINE
8
Layer 1
10
10.777687
20
12.861044
11
12.673756
21
10.950335
0
LINE
8
Layer 1
10
12.673756
20
10.950335
11
11.576315
21
10.645623
0
LINE
8
Layer 1
10
11.576315
20
10.645623
11
9.702763
21
10.339338
0
LINE
8
Layer 1
10
9.702763
20
10.339338
11
9.090693
21
10.262493
0
LINE
8
Layer 1
10
9.090693
20
10.262493
11
8.954503
21
10.082713
0
LINE
8
Layer 1
10
8.954503
20
10.082713
11
9.262998
21
9.870894
0
LINE
8
Layer 1
10
9.262998
20
9.870894
11
9.984986
21
9.697929
0
LINE
8
Layer 1
10
9.984986
20
9.697929
11
11.889986
21
9.213472
0
LINE
8
Layer 1
10
11.889986
20
9.213472
11
12.736652
21
8.878725
0
LINE
8
Layer 1
10
12.736652
20
8.878725
11
11.184430
21
7.438331
0
LINE
8
Layer 1
10
11.184430
20
7.438331
11
10.253979
21
6.488110
0
LINE
8
Layer 1
10
10.253979
20
6.488110
11
10.099969
21
6.251237
0
LINE
8
Layer 1
10
10.099969
20
6.251237
11
10.196652
21
6.226217
0
LINE
8
Layer 1
10
10.196652
20
6.226217
11
13.461605
21
7.233319
0
LINE
8
Layer 1
10
13.461605
20
7.233319
11
13.500616
21
6.757312
0
LINE
8
Layer 1
10
13.500616
20
6.757312
11
13.296831
21
5.612869
0
LINE
8
Layer 1
10
13.296831
20
5.612869
11
13.008496
21
3.904067
0
LINE
8
Layer 1
10
13.008496
20
3.904067
11
14.147822
21
5.098294
0
LINE
8
Layer 1
10
14.147822
20
5.098294
11
14.947483
21
5.968632
0
LINE
8
Layer 1
10
14.947483
20
5.968632
11
15.394237
21
6.260081
0
LINE
8
Layer 1
10
15.394237
20
6.260081
11
16.279831
21
3.934641
0
LINE
8
Layer 1
10
16.279831
20
3.934641
11
16.969986
21
1.729986
0
LINE
8
Layer 1
10
16.969986
20
1.729986
11
17.054323
21
3.846322
0
LINE
8
Layer 1
10
17.054323
20
3.846322
11
17.193084
21
5.420183
0
LINE
8
Layer 1
10
17.193084
20
5.420183
11
17.408269
21
6.232268
0
LINE
8
Layer 1
10
17.408269
20
6.232268
11
17.408269
21
6.232268
0
LINE
8
Layer 1
10
42.629780
20
4.595529
11
42.840628
21
4.905297
0
LINE
8
Layer 1
10
42.840628
20
4.905297
11
43.187267
21
4.544667
0
LINE
8
Layer 1
10
43.187267
20
4.544667
11
43.557408
21
4.183345
0
LINE
8
Layer 1
10
43.557408
20
4.183345
11
43.885056
21
4.623903
0
LINE
8
Layer 1
10
43.885056
20
4.623903
11
44.195736
21
5.598724
0
LINE
8
Layer 1
10
44.195736
20
5.598724
11
44.083758
21
5.716061
0
LINE
8
Layer 1
10
44.083758
20
5.716061
11
43.805498
21
5.461135
0
LINE
8
Layer 1
10
43.805498
20
5.461135
11
43.450698
21
5.100064
0
LINE
8
Layer 1
10
43.450698
20
5.100064
11
43.229874
21
5.461135
0
LINE
8
Layer 1
10
43.229874
20
5.461135
11
43.006019
21
5.812097
0
LINE
8
Layer 1
10
43.006019
20
5.812097
11
42.639818
21
5.426109
0
LINE
8
Layer 1
10
42.639818
20
5.426109
11
42.279480
21
5.051649
0
LINE
8
Layer 1
10
42.279480
20
5.051649
11
42.065335
21
5.355553
0
LINE
8
Layer 1
10
42.065335
20
5.355553
11
41.830221
21
5.774010
0
LINE
8
Layer 1
10
41.830221
20
5.774010
11
41.651313
21
5.806960
0
LINE
8
Layer 1
10
41.651313
20
5.806960
11
41.589761
21
5.519203
0
LINE
8
Layer 1
10
41.589761
20
5.519203
11
41.706718
21
4.975541
0
LINE
8
Layer 1
10
41.706718
20
4.975541
11
41.952283
21
4.418833
0
LINE
8
Layer 1
10
41.952283
20
4.418833
11
42.191222
21
4.168593
0
LINE
8
Layer 1
10
42.191222
20
4.168593
11
42.418675
21
4.226825
0
LINE
8
Layer 1
10
42.418675
20
4.226825
11
42.629780
21
4.595529
0
LINE
8
Layer 1
10
42.629780
20
4.595529
11
42.629780
21
4.595529
0
LINE
8
Layer 1
10
45.734224
20
4.595529
11
45.945073
21
4.905297
0
LINE
8
Layer 1
10
45.945073
20
4.905297
11
46.291712
21
4.544667
0
LINE
8
Layer 1
10
46.291712
20
4.544667
11
46.661852
21
4.183345
0
LINE
8
Layer 1
10
46.661852
20
4.183345
11
46.989500
21
4.623903
0
LINE
8
Layer 1
10
46.989500
20
4.623903
11
47.300181
21
5.598724
0
LINE
8
Layer 1
10
47.300181
20
5.598724
11
47.188203
21
5.716061
0
LINE
8
Layer 1
10
47.188203
20
5.716061
11
46.909942
21
5.461135
0
LINE
8
Layer 1
10
46.909942
20
5.461135
11
46.555142
21
5.100064
0
LINE
8
Layer 1
10
46.555142
20
5.100064
11
46.334319
21
5.461135
0
LINE
8
Layer 1
10
46.334319
20
5.461135
11
46.110464
21
5.812097
0
LINE
8
Layer 1
10
46.110464
20
5.812097
11
45.744263
21
5.426109
0
LINE
8
Layer 1
10
45.744263
20
5.426109
11
45.383924
21
5.051649
0
LINE
8
Layer 1
10
45.383924
20
5.051649
11
45.169780
21
5.355553
0
LINE
8
Layer 1
10
45.169780
20
5.355553
11
44.934666
21
5.774010
0
LINE
8
Layer 1
10
44.934666
20
5.774010
11
44.755757
21
5.806960
0
LINE
8
Layer 1
10
44.755757
20
5.806960
11
44.694205
21
5.519203
0
LINE
8
Layer 1
10
44.694205
20
5.519203
11
44.811163
21
4.975541
0
LINE
8
Layer 1
10
44.811163
20
4.975541
11
45.056727
21
4.418833
0
LINE
8
Layer 1
10
45.056727
20
4.418833
11
45.295667
21
4.168593
0
LINE
8
Layer 1
10
45.295667
20
4.168593
11
45.523119
21
4.226825
0
LINE
8
Layer 1
10
45.523119
20
4.226825
11
45.734224
21
4.595529
0
LINE
8
Layer 1
10
45.734224
20
4.595529
11
45.734224
21
4.595529
0
LINE
8
Layer 1
10
48.838668
20
4.595529
11
49.049517
21
4.905297
0
LINE
8
Layer 1
10
49.049517
20
4.905297
11
49.396156
21
4.544667
0
LINE
8
Layer 1
10
49.396156
20
4.544667
11
49.766297
21
4.183345
0
LINE
8
Layer 1
10
49.766297
20
4.183345
11
50.093945
21
4.623903
0
LINE
8
Layer 1
10
50.093945
20
4.623903
11
50.404625
21
5.598724
0
LINE
8
Layer 1
10
50.404625
20
5.598724
11
50.292647
21
5.716061
0
LINE
8
Layer 1
10
50.292647
20
5.716061
11
50.014386
21
5.461135
0
LINE
8
Layer 1
10
50.014386
20
5.461135
11
49.659587
21
5.100064
0
LINE
8
Layer 1
10
49.659587
20
5.100064
11
49.438763
21
5.461135
0
LINE
8
Layer 1
10
49.438763
20
5.461135
11
49.214908
21
5.812097
0
LINE
8
Layer 1
10
49.214908
20
5.812097
11
48.848707
21
5.426109
0
LINE
8
Layer 1
10
48.848707
20
5.426109
11
48.488369
21
5.051649
0
LINE
8
Layer 1
10
48.488369
20
5.051649
11
48.274224
21
5.355553
0
LINE
8
Layer 1
10
48.274224
20
5.355553
11
48.039110
21
5.774010
0
LINE
8
Layer 1
10
48.039110
20
5.774010
11
47.860202
21
5.806960
0
LINE
8
Layer 1
10
47.860202
20
5.806960
11
47.798650
21
5.519203
0
LINE
8
Layer 1
10
47.798650
20
5.519203
11
47.915607
21
4.975541
0
LINE
8
Layer 1
10
47.915607
20
4.975541
11
48.161171
21
4.418833
0
LINE
8
Layer 1
10
48.161171
20
4.418833
11
48.400111
21
4.168593
0
LINE
8
Layer 1
10
48.400111
20
4.168593
11
48.627564
21
4.226825
0
LINE
8
Layer 1
10
48.627564
20
4.226825
11
48.838668
21
4.595529
0
LINE
8
Layer 1
10
48.838668
20
4.595529
11
48.838668
21
4.595529
0
LINE
8
Layer 1
10
51.542208
20
4.411097
11
51.459305
21
4.610416
0
LINE
8
Layer 1
10
51.459305
20
4.610416
11
51.259986
21
4.693319
0
LINE
8
Layer 1
10
51.259986
20
4.693319
11
51.060666
21
4.610416
0
LINE
8
Layer 1
10
51.060666
20
4.610416
11
50.977763
21
4.411097
0
LINE
8
Layer 1
10
50.977763
20
4.411097
11
51.060666
21
4.211777
0
LINE
8
Layer 1
10
51.060666
20
4.211777
11
51.259986
21
4.128874
0
LINE
8
Layer 1
10
51.259986
20
4.128874
11
51.459305
21
4.211777
0
LINE
8
Layer 1
10
51.459305
20
4.211777
11
51.542208
21
4.411097
0
LINE
8
Layer 1
10
51.542208
20
4.411097
11
51.542208
21
4.411097
0
LINE
8
Layer 1
10
53.517763
20
4.813737
11
53.652497
21
5.346977
0
LINE
8
Layer 1
10
53.652497
20
5.346977
11
54.011652
21
5.627664
0
LINE
8
Layer 1
10
54.011652
20
5.627664
11
54.103209
21
5.677778
0
LINE
8
Layer 1
10
54.103209
20
5.677778
11
53.987399
21
5.718818
0
LINE
8
Layer 1
10
53.987399
20
5.718818
11
53.235541
21
5.756732
0
LINE
8
Layer 1
10
53.235541
20
5.756732
11
52.483683
21
5.718818
0
LINE
8
Layer 1
10
52.483683
20
5.718818
11
52.367873
21
5.677778
0
LINE
8
Layer 1
10
52.367873
20
5.677778
11
52.459430
21
5.627664
0
LINE
8
Layer 1
10
52.459430
20
5.627664
11
52.818585
21
5.346977
0
LINE
8
Layer 1
10
52.818585
20
5.346977
11
52.953319
21
4.813737
0
LINE
8
Layer 1
10
52.953319
20
4.813737
11
53.036222
21
4.330052
0
LINE
8
Layer 1
10
53.036222
20
4.330052
11
53.235541
21
4.128874
0
LINE
8
Layer 1
10
53.235541
20
4.128874
11
53.434861
21
4.330052
0
LINE
8
Layer 1
10
53.434861
20
4.330052
11
53.517763
21
4.813737
0
LINE
8
Layer 1
10
53.517763
20
4.813737
11
53.517763
21
4.813737
0
LINE
8
Layer 1
10
56.763319
20
4.975541
11
56.726961
21
5.346808
0
LINE
8
Layer 1
10
56.726961
20
5.346808
11
56.578171
21
5.572989
0
LINE
8
Layer 1
10
56.578171
20
5.572989
11
55.704986
21
5.768690
0
LINE
8
Layer 1
10
55.704986
20
5.768690
11
54.794973
21
5.720574
0
LINE
8
Layer 1
10
54.794973
20
5.720574
11
54.669200
21
5.467846
0
LINE
8
Layer 1
10
54.669200
20
5.467846
11
54.646652
21
4.975541
0
LINE
8
Layer 1
10
54.646652
20
4.975541
11
54.669200
21
4.483237
0
LINE
8
Layer 1
10
54.669200
20
4.483237
11
54.794973
21
4.230510
0
LINE
8
Layer 1
10
54.794973
20
4.230510
11
55.704986
21
4.182395
0
LINE
8
Layer 1
10
55.704986
20
4.182395
11
56.578171
21
4.378094
0
LINE
8
Layer 1
10
56.578171
20
4.378094
11
56.726961
21
4.604275
0
LINE
8
Layer 1
10
56.726961
20
4.604275
11
56.763319
21
4.975541
0
LINE
8
Layer 1
10
56.763319
20
4.975541
11
56.763319
21
4.975541
0
LINE
8
Layer 1
10
55.211097
20
4.975541
11
55.352208
21
5.398874
0
LINE
8
Layer 1
10
55.352208
20
5.398874
11
55.775541
21
5.539986
0
LINE
8
Layer 1
10
55.775541
20
5.539986
11
56.198874
21
5.398874
0
LINE
8
Layer 1
10
56.198874
20
5.398874
11
56.339986
21
4.975541
0
LINE
8
Layer 1
10
56.339986
20
4.975541
11
56.198874
21
4.552208
0
LINE
8
Layer 1
10
56.198874
20
4.552208
11
55.775541
21
4.411097
0
LINE
8
Layer 1
10
55.775541
20
4.411097
11
55.352208
21
4.552208
0
LINE
8
Layer 1
10
55.352208
20
4.552208
11
55.211097
21
4.975541
0
LINE
8
Layer 1
10
55.211097
20
4.975541
11
55.211097
21
4.975541
0
LINE
8
Layer 1
10
58.033319
20
4.421025
11
58.165154
21
4.572066
0
LINE
8
Layer 1
10
58.165154
20
4.572066
11
58.579210
21
4.421025
0
LINE
8
Layer 1
10
58.579210
20
4.421025
11
59.235463
21
4.190273
0
LINE
8
Layer 1
10
59.235463
20
4.190273
11
59.388883
21
4.975541
0
LINE
8
Layer 1
10
59.388883
20
4.975541
11
59.399994
21
5.442140
0
LINE
8
Layer 1
10
59.399994
20
5.442140
11
59.295914
21
5.696036
0
LINE
8
Layer 1
10
59.295914
20
5.696036
11
58.461134
21
5.822208
0
LINE
8
Layer 1
10
58.461134
20
5.822208
11
57.622118
21
5.691450
0
LINE
8
Layer 1
10
57.622118
20
5.691450
11
57.495333
21
5.436980
0
LINE
8
Layer 1
10
57.495333
20
5.436980
11
57.468874
21
4.975541
0
LINE
8
Layer 1
10
57.468874
20
4.975541
11
57.551777
21
4.377583
0
LINE
8
Layer 1
10
57.551777
20
4.377583
11
57.751097
21
4.128874
0
LINE
8
Layer 1
10
57.751097
20
4.128874
11
57.950416
21
4.214694
0
LINE
8
Layer 1
10
57.950416
20
4.214694
11
58.033319
21
4.421025
0
LINE
8
Layer 1
10
58.033319
20
4.421025
11
58.033319
21
4.421025
0
LINE
8
Layer 1
10
58.033319
20
5.257763
11
58.157673
21
5.457083
0
LINE
8
Layer 1
10
58.157673
20
5.457083
11
58.456652
21
5.539986
0
LINE
8
Layer 1
10
58.456652
20
5.539986
11
58.755631
21
5.457083
0
LINE
8
Layer 1
10
58.755631
20
5.457083
11
58.879986
21
5.257763
0
LINE
8
Layer 1
10
58.879986
20
5.257763
11
58.755631
21
5.058444
0
LINE
8
Layer 1
10
58.755631
20
5.058444
11
58.456652
21
4.975541
0
LINE
8
Layer 1
10
58.456652
20
4.975541
11
58.157673
21
5.058444
0
LINE
8
Layer 1
10
58.157673
20
5.058444
11
58.033319
21
5.257763
0
LINE
8
Layer 1
10
58.033319
20
5.257763
11
58.033319
21
5.257763
0
LINE
8
Layer 1
10
61.831265
20
4.391595
11
61.861686
21
4.629216
0
LINE
8
Layer 1
10
61.861686
20
4.629216
11
61.706811
21
4.831585
0
LINE
8
Layer 1
10
61.706811
20
4.831585
11
61.504241
21
4.868985
0
LINE
8
Layer 1
10
61.504241
20
4.868985
11
61.419986
21
4.709976
0
LINE
8
Layer 1
10
61.419986
20
4.709976
11
61.295631
21
4.498892
0
LINE
8
Layer 1
10
61.295631
20
4.498892
11
60.996652
21
4.411097
0
LINE
8
Layer 1
10
60.996652
20
4.411097
11
60.694070
21
4.580825
0
LINE
8
Layer 1
10
60.694070
20
4.580825
11
60.573319
21
5.006137
0
LINE
8
Layer 1
10
60.573319
20
5.006137
11
60.708637
21
5.456792
0
LINE
8
Layer 1
10
60.708637
20
5.456792
11
61.302522
21
5.418159
0
LINE
8
Layer 1
10
61.302522
20
5.418159
11
61.797845
21
5.357535
0
LINE
8
Layer 1
10
61.797845
20
5.357535
11
61.850310
21
5.528674
0
LINE
8
Layer 1
10
61.850310
20
5.528674
11
61.478370
21
5.735982
0
LINE
8
Layer 1
10
61.478370
20
5.735982
11
60.838884
21
5.822208
0
LINE
8
Layer 1
10
60.838884
20
5.822208
11
60.148597
21
5.679681
0
LINE
8
Layer 1
10
60.148597
20
5.679681
11
60.008874
21
4.975541
0
LINE
8
Layer 1
10
60.008874
20
4.975541
11
60.148597
21
4.271401
0
LINE
8
Layer 1
10
60.148597
20
4.271401
11
60.838884
21
4.128874
0
LINE
8
Layer 1
10
60.838884
20
4.128874
11
61.472776
21
4.206049
0
LINE
8
Layer 1
10
61.472776
20
4.206049
11
61.831265
21
4.391595
0
LINE
8
Layer 1
10
61.831265
20
4.391595
11
61.831265
21
4.391595
0
LINE
8
Layer 1
10
63.113319
20
4.552208
11
63.277949
21
4.852069
0
LINE
8
Layer 1
10
63.277949
20
4.852069
11
63.677763
21
4.975541
0
LINE
8
Layer 1
10
63.677763
20
4.975541
11
64.077578
21
4.852069
0
LINE
8
Layer 1
10
64.077578
20
4.852069
11
64.242208
21
4.552208
0
LINE
8
Layer 1
10
64.242208
20
4.552208
11
64.325111
21
4.253229
0
LINE
8
Layer 1
10
64.325111
20
4.253229
11
64.524430
21
4.128874
0
LINE
8
Layer 1
10
64.524430
20
4.128874
11
64.723749
21
4.377583
0
LINE
8
Layer 1
10
64.723749
20
4.377583
11
64.806652
21
4.975541
0
LINE
8
Layer 1
10
64.806652
20
4.975541
11
64.723749
21
5.573499
0
LINE
8
Layer 1
10
64.723749
20
5.573499
11
64.524430
21
5.822208
0
LINE
8
Layer 1
10
64.524430
20
5.822208
11
64.325111
21
5.739305
0
LINE
8
Layer 1
10
64.325111
20
5.739305
11
64.242208
21
5.539986
0
LINE
8
Layer 1
10
64.242208
20
5.539986
11
64.076402
21
5.340666
0
LINE
8
Layer 1
10
64.076402
20
5.340666
11
63.677763
21
5.257763
0
LINE
8
Layer 1
10
63.677763
20
5.257763
11
63.279124
21
5.340666
0
LINE
8
Layer 1
10
63.279124
20
5.340666
11
63.113319
21
5.539986
0
LINE
8
Layer 1
10
63.113319
20
5.539986
11
63.030416
21
5.739305
0
LINE
8
Layer 1
10
63.030416
20
5.739305
11
62.831097
21
5.822208
0
LINE
8
Layer 1
10
62.831097
20
5.822208
11
62.631777
21
5.573499
0
LINE
8
Layer 1
10
62.631777
20
5.573499
11
62.548874
21
4.975541
0
LINE
8
Layer 1
10
62.548874
20
4.975541
11
62.631777
21
4.377583
0
LINE
8
Layer 1
10
62.631777
20
4.377583
11
62.831097
21
4.128874
0
LINE
8
Layer 1
10
62.831097
20
4.128874
11
63.030416
21
4.253229
0
LINE
8
Layer 1
10
63.030416
20
4.253229
11
63.113319
21
4.552208
0
LINE
8
Layer 1
10
63.113319
20
4.552208
11
63.113319
21
4.552208
0
LINE
8
Layer 1
10
66.056516
20
4.725901
11
66.326688
21
4.520895
0
LINE
8
Layer 1
10
66.326688
20
4.520895
11
66.669643
21
4.524110
0
LINE
8
Layer 1
10
66.669643
20
4.524110
11
66.948462
21
4.550802
0
LINE
8
Layer 1
10
66.948462
20
4.550802
11
67.064430
21
4.402241
0
LINE
8
Layer 1
10
67.064430
20
4.402241
11
67.147333
21
4.209176
0
LINE
8
Layer 1
10
67.147333
20
4.209176
11
67.346652
21
4.128874
0
LINE
8
Layer 1
10
67.346652
20
4.128874
11
67.545972
21
4.377583
0
LINE
8
Layer 1
10
67.545972
20
4.377583
11
67.628874
21
4.975541
0
LINE
8
Layer 1
10
67.628874
20
4.975541
11
67.589698
21
5.537776
0
LINE
8
Layer 1
10
67.589698
20
5.537776
11
67.462304
21
5.779313
0
LINE
8
Layer 1
10
67.462304
20
5.779313
11
67.231894
21
5.707159
0
LINE
8
Layer 1
10
67.231894
20
5.707159
11
66.883669
21
5.328319
0
LINE
8
Layer 1
10
66.883669
20
5.328319
11
66.512151
21
4.975540
0
LINE
8
Layer 1
10
66.512151
20
4.975540
11
66.203531
21
5.328319
0
LINE
8
Layer 1
10
66.203531
20
5.328319
11
65.877797
21
5.729916
0
LINE
8
Layer 1
10
65.877797
20
5.729916
11
65.615122
21
5.783503
0
LINE
8
Layer 1
10
65.615122
20
5.783503
11
65.443502
21
5.503664
0
LINE
8
Layer 1
10
65.443502
20
5.503664
11
65.390934
21
4.904986
0
LINE
8
Layer 1
10
65.390934
20
4.904986
11
65.450782
21
4.289702
0
LINE
8
Layer 1
10
65.450782
20
4.289702
11
65.624470
21
4.533474
0
LINE
8
Layer 1
10
65.624470
20
4.533474
11
65.839224
21
4.875694
0
LINE
8
Layer 1
10
65.839224
20
4.875694
11
66.056516
21
4.725901
0
LINE
8
Layer 1
10
66.056516
20
4.725901
11
66.056516
21
4.725901
0
LINE
8
Layer 1
10
70.118633
20
5.046097
11
69.363838
21
5.822208
0
LINE
8
Layer 1
10
69.363838
20
5.822208
11
68.703224
21
5.046097
0
LINE
8
Layer 1
10
68.703224
20
5.046097
11
68.244765
21
4.269986
0
LINE
8
Layer 1
10
68.244765
20
4.269986
11
69.458019
21
4.269986
0
LINE
8
Layer 1
10
69.458019
20
4.269986
11
70.671275
21
4.269986
0
LINE
8
Layer 1
10
70.671275
20
4.269986
11
70.118633
21
5.046097
0
LINE
8
Layer 1
10
70.118633
20
5.046097
11
70.118633
21
5.046097
0
LINE
8
Layer 1
10
71.862208
20
4.813737
11
71.996941
21
5.346977
0
LINE
8
Layer 1
10
71.996941
20
5.346977
11
72.356097
21
5.627664
0
LINE
8
Layer 1
10
72.356097
20
5.627664
11
72.447654
21
5.677778
0
LINE
8
Layer 1
10
72.447654
20
5.677778
11
72.331843
21
5.718818
0
LINE
8
Layer 1
10
72.331843
20
5.718818
11
71.579986
21
5.756732
0
LINE
8
Layer 1
10
71.579986
20
5.756732
11
70.828128
21
5.718818
0
LINE
8
Layer 1
10
70.828128
20
5.718818
11
70.712318
21
5.677778
0
LINE
8
Layer 1
10
70.712318
20
5.677778
11
70.803874
21
5.627664
0
LINE
8
Layer 1
10
70.803874
20
5.627664
11
71.163030
21
5.346977
0
LINE
8
Layer 1
10
71.163030
20
5.346977
11
71.297763
21
4.813737
0
LINE
8
Layer 1
10
71.297763
20
4.813737
11
71.380666
21
4.330052
0
LINE
8
Layer 1
10
71.380666
20
4.330052
11
71.579986
21
4.128874
0
LINE
8
Layer 1
10
71.579986
20
4.128874
11
71.779305
21
4.330052
0
LINE
8
Layer 1
10
71.779305
20
4.330052
11
71.862208
21
4.813737
0
LINE
8
Layer 1
10
71.862208
20
4.813737
11
71.862208
21
4.813737
0
LINE
8
Layer 1
10
74.331652
20
4.331016
11
73.816701
21
4.484973
0
LINE
8
Layer 1
10
73.816701
20
4.484973
11
73.575556
21
4.699885
0
LINE
8
Layer 1
10
73.575556
20
4.699885
11
73.641904
21
4.896453
0
LINE
8
Layer 1
10
73.641904
20
4.896453
11
74.049430
21
4.995378
0
LINE
8
Layer 1
10
74.049430
20
4.995378
11
74.351444
21
5.053134
0
LINE
8
Layer 1
10
74.351444
20
5.053134
11
73.978874
21
5.244208
0
LINE
8
Layer 1
10
73.978874
20
5.244208
11
73.653010
21
5.456839
0
LINE
8
Layer 1
10
73.653010
20
5.456839
11
74.261097
21
5.605419
0
LINE
8
Layer 1
10
74.261097
20
5.605419
11
74.812403
21
5.723692
0
LINE
8
Layer 1
10
74.812403
20
5.723692
11
74.049430
21
5.779922
0
LINE
8
Layer 1
10
74.049430
20
5.779922
11
73.146322
21
5.691825
0
LINE
8
Layer 1
10
73.146322
20
5.691825
11
73.016233
21
5.443375
0
LINE
8
Layer 1
10
73.016233
20
5.443375
11
72.991097
21
4.975541
0
LINE
8
Layer 1
10
72.991097
20
4.975541
11
73.016233
21
4.507707
0
LINE
8
Layer 1
10
73.016233
20
4.507707
11
73.146322
21
4.259257
0
LINE
8
Layer 1
10
73.146322
20
4.259257
11
74.049430
21
4.171160
0
LINE
8
Layer 1
10
74.049430
20
4.171160
11
74.743890
21
4.228379
0
LINE
8
Layer 1
10
74.743890
20
4.228379
11
74.331652
21
4.331016
0
LINE
8
Layer 1
10
74.331652
20
4.331016
11
74.331652
21
4.331016
0
LINE
8
Layer 1
10
76.095541
20
4.411097
11
76.012638
21
4.610416
0
LINE
8
Layer 1
10
76.012638
20
4.610416
11
75.813319
21
4.693319
0
LINE
8
Layer 1
10
75.813319
20
4.693319
11
75.613999
21
4.610416
0
LINE
8
Layer 1
10
75.613999
20
4.610416
11
75.531097
21
4.411097
0
LINE
8
Layer 1
10
75.531097
20
4.411097
11
75.613999
21
4.211777
0
LINE
8
Layer 1
10
75.613999
20
4.211777
11
75.813319
21
4.128874
0
LINE
8
Layer 1
10
75.813319
20
4.128874
11
76.012638
21
4.211777
0
LINE
8
Layer 1
10
76.012638
20
4.211777
11
76.095541
21
4.411097
0
LINE
8
Layer 1
10
76.095541
20
4.411097
11
76.095541
21
4.411097
0
LINE
8
Layer 1
10
78.635541
20
4.416473
11
78.435338
21
4.572217
0
LINE
8
Layer 1
10
78.435338
20
4.572217
11
77.929986
21
4.526988
0
LINE
8
Layer 1
10
77.929986
20
4.526988
11
77.354584
21
4.497983
0
LINE
8
Layer 1
10
77.354584
20
4.497983
11
77.224430
21
4.975541
0
LINE
8
Layer 1
10
77.224430
20
4.975541
11
77.354584
21
5.453099
0
LINE
8
Layer 1
10
77.354584
20
5.453099
11
77.929986
21
5.424094
0
LINE
8
Layer 1
10
77.929986
20
5.424094
11
78.435338
21
5.378865
0
LINE
8
Layer 1
10
78.435338
20
5.378865
11
78.635541
21
5.534609
0
LINE
8
Layer 1
10
78.635541
20
5.534609
11
78.384231
21
5.737726
0
LINE
8
Layer 1
10
78.384231
20
5.737726
11
77.780018
21
5.822208
0
LINE
8
Layer 1
10
77.780018
20
5.822208
11
77.204435
21
5.729498
0
LINE
8
Layer 1
10
77.204435
20
5.729498
11
76.828660
21
5.469148
0
LINE
8
Layer 1
10
76.828660
20
5.469148
11
76.674071
21
5.067828
0
LINE
8
Layer 1
10
76.674071
20
5.067828
11
76.762046
21
4.552208
0
LINE
8
Layer 1
10
76.762046
20
4.552208
11
77.131597
21
4.265942
0
LINE
8
Layer 1
10
77.131597
20
4.265942
11
77.767076
21
4.133404
0
LINE
8
Layer 1
10
77.767076
20
4.133404
11
78.368413
21
4.176335
0
LINE
8
Layer 1
10
78.368413
20
4.176335
11
78.635541
21
4.416473
0
LINE
8
Layer 1
10
78.635541
20
4.416473
11
78.635541
21
4.416473
0
LINE
8
Layer 1
10
81.457763
20
4.975541
11
81.431305
21
5.437276
0
LINE
8
Layer 1
10
81.431305
20
5.437276
11
81.304155
21
5.691713
0
LINE
8
Layer 1
10
81.304155
20
5.691713
11
80.461129
21
5.822208
0
LINE
8
Layer 1
10
80.461129
20
5.822208
11
79.685241
21
5.710182
0
LINE
8
Layer 1
10
79.685241
20
5.710182
11
79.302046
21
5.398874
0
LINE
8
Layer 1
10
79.302046
20
5.398874
11
79.208836
21
4.864213
0
LINE
8
Layer 1
10
79.208836
20
4.864213
11
79.379451
21
4.465008
0
LINE
8
Layer 1
10
79.379451
20
4.465008
11
79.801133
21
4.215237
0
LINE
8
Layer 1
10
79.801133
20
4.215237
11
80.461129
21
4.128874
0
LINE
8
Layer 1
10
80.461129
20
4.128874
11
81.304155
21
4.259369
0
LINE
8
Layer 1
10
81.304155
20
4.259369
11
81.431305
21
4.513806
0
LINE
8
Layer 1
10
81.431305
20
4.513806
11
81.457763
21
4.975541
0
LINE
8
Layer 1
10
81.457763
20
4.975541
11
81.457763
21
4.975541
0
LINE
8
Layer 1
10
79.764430
20
4.975541
11
79.905541
21
5.398874
0
LINE
8
Layer 1
10
79.905541
20
5.398874
11
80.328874
21
5.539986
0
LINE
8
Layer 1
10
80.328874
20
5.539986
11
80.752207
21
5.398874
0
LINE
8
Layer 1
10
80.752207
20
5.398874
11
80.893319
21
4.975541
0
LINE
8
Layer 1
10
80.893319
20
4.975541
11
80.752207
21
4.552208
0
LINE
8
Layer 1
10
80.752207
20
4.552208
11
80.328874
21
4.411097
0
LINE
8
Layer 1
10
80.328874
20
4.411097
11
79.905541
21
4.552208
0
LINE
8
Layer 1
10
79.905541
20
4.552208
11
79.764430
21
4.975541
0
LINE
8
Layer 1
10
79.764430
20
4.975541
11
79.764430
21
4.975541
0
LINE
8
Layer 1
10
82.986428
20
4.731439
11
83.240260
21
4.527678
0
LINE
8
Layer 1
10
83.240260
20
4.527678
11
83.599556
21
4.714172
0
LINE
8
Layer 1
10
83.599556
20
4.714172
11
83.916772
21
4.884309
0
LINE
8
Layer 1
10
83.916772
20
4.884309
11
83.997763
21
4.586766
0
LINE
8
Layer 1
10
83.997763
20
4.586766
11
84.080666
21
4.263380
0
LINE
8
Layer 1
10
84.080666
20
4.263380
11
84.279986
21
4.128874
0
LINE
8
Layer 1
10
84.279986
20
4.128874
11
84.479305
21
4.377583
0
LINE
8
Layer 1
10
84.479305
20
4.377583
11
84.562208
21
4.975541
0
LINE
8
Layer 1
10
84.562208
20
4.975541
11
84.506307
21
5.526439
0
LINE
8
Layer 1
10
84.506307
20
5.526439
11
84.342091
21
5.781142
0
LINE
8
Layer 1
10
84.342091
20
5.781142
11
84.074790
21
5.737098
0
LINE
8
Layer 1
10
84.074790
20
5.737098
11
83.709631
21
5.391754
0
LINE
8
Layer 1
10
83.709631
20
5.391754
11
83.324836
21
5.110785
0
LINE
8
Layer 1
10
83.324836
20
5.110785
11
82.828409
21
5.435496
0
LINE
8
Layer 1
10
82.828409
20
5.435496
11
82.381376
21
5.706625
0
LINE
8
Layer 1
10
82.381376
20
5.706625
11
82.324267
21
4.948727
0
LINE
8
Layer 1
10
82.324267
20
4.948727
11
82.385152
21
4.306792
0
LINE
8
Layer 1
10
82.385152
20
4.306792
11
82.557803
21
4.533474
0
LINE
8
Layer 1
10
82.557803
20
4.533474
11
82.771788
21
4.873032
0
LINE
8
Layer 1
10
82.771788
20
4.873032
11
82.986428
21
4.731439
0
LINE
8
Layer 1
10
82.986428
20
4.731439
11
82.986428
21
4.731439
0
LINE
8
Layer 1
10
17.162448
20
11.043319
11
17.692693
21
11.748874
0
LINE
8
Layer 1
10
17.692693
20
11.748874
11
17.941855
21
12.184114
0
LINE
8
Layer 1
10
17.941855
20
12.184114
11
18.247734
21
13.230541
0
LINE
8
Layer 1
10
18.247734
20
13.230541
11
18.613723
21
14.416279
0
LINE
8
Layer 1
10
18.613723
20
14.416279
11
19.007406
21
15.186457
0
LINE
8
Layer 1
10
19.007406
20
15.186457
11
19.506788
21
16.625169
0
LINE
8
Layer 1
10
19.506788
20
16.625169
11
20.288579
21
19.498068
0
LINE
8
Layer 1
10
20.288579
20
19.498068
11
21.339705
21
24.257943
0
LINE
8
Layer 1
10
21.339705
20
24.257943
11
22.047909
21
24.395260
0
LINE
8
Layer 1
10
22.047909
20
24.395260
11
23.743978
21
24.399054
0
LINE
8
Layer 1
10
23.743978
20
24.399054
11
26.143525
21
24.307763
0
LINE
8
Layer 1
10
26.143525
20
24.307763
11
26.142866
21
25.366097
0
LINE
8
Layer 1
10
26.142866
20
25.366097
11
26.142208
21
26.424430
0
LINE
8
Layer 1
10
26.142208
20
26.424430
11
19.940566
21
26.424430
0
LINE
8
Layer 1
10
19.940566
20
26.424430
11
13.738925
21
26.424430
0
LINE
8
Layer 1
10
13.738925
20
26.424430
11
13.308344
21
25.591778
0
LINE
8
Layer 1
10
13.308344
20
25.591778
11
12.877763
21
24.604001
0
LINE
8
Layer 1
10
12.877763
20
24.604001
11
15.135541
21
24.448874
0
LINE
8
Layer 1
10
15.135541
20
24.448874
11
17.393319
21
24.290960
0
LINE
8
Layer 1
10
17.393319
20
24.290960
11
16.663256
21
20.974849
0
LINE
8
Layer 1
10
16.663256
20
20.974849
11
16.090014
21
17.852120
0
LINE
8
Layer 1
10
16.090014
20
17.852120
11
15.733232
21
14.659798
0
LINE
8
Layer 1
10
15.733232
20
14.659798
11
15.641398
21
12.027426
0
LINE
8
Layer 1
10
15.641398
20
12.027426
11
15.862999
21
10.584547
0
LINE
8
Layer 1
10
15.862999
20
10.584547
11
16.146505
21
10.355874
0
LINE
8
Layer 1
10
16.146505
20
10.355874
11
16.504912
21
10.372822
0
LINE
8
Layer 1
10
16.504912
20
10.372822
11
16.867225
21
10.610325
0
LINE
8
Layer 1
10
16.867225
20
10.610325
11
17.162448
21
11.043319
0
LINE
8
Layer 1
10
17.162448
20
11.043319
11
17.162448
21
11.043319
0
LINE
8
Layer 1
10
35.808319
20
11.475446
11
35.270885
21
11.885040
0
LINE
8
Layer 1
10
35.270885
20
11.885040
11
35.225881
21
12.393899
0
LINE
8
Layer 1
10
35.225881
20
12.393899
11
35.630845
21
12.884167
0
LINE
8
Layer 1
10
35.630845
20
12.884167
11
36.443319
21
13.237989
0
LINE
8
Layer 1
10
36.443319
20
13.237989
11
36.782109
21
13.357561
0
LINE
8
Layer 1
10
36.782109
20
13.357561
11
36.324430
21
13.409470
0
LINE
8
Layer 1
10
36.324430
20
13.409470
11
35.714546
21
13.305667
0
LINE
8
Layer 1
10
35.714546
20
13.305667
11
35.162805
21
12.986997
0
LINE
8
Layer 1
10
35.162805
20
12.986997
11
34.762987
21
12.529915
0
LINE
8
Layer 1
10
34.762987
20
12.529915
11
34.608874
21
12.010875
0
LINE
8
Layer 1
10
34.608874
20
12.010875
11
34.683173
21
11.661314
0
LINE
8
Layer 1
10
34.683173
20
11.661314
11
34.912837
21
11.417939
0
LINE
8
Layer 1
10
34.912837
20
11.417939
11
35.878874
21
11.224599
0
LINE
8
Layer 1
10
35.878874
20
11.224599
11
36.250796
21
11.261881
0
LINE
8
Layer 1
10
36.250796
20
11.261881
11
35.808319
21
11.475446
0
LINE
8
Layer 1
10
35.808319
20
11.475446
11
35.808319
21
11.475446
0
LINE
8
Layer 1
10
37.955677
20
12.101652
11
38.214173
21
13.018874
0
LINE
8
Layer 1
10
38.214173
20
13.018874
11
38.555797
21
12.101652
0
LINE
8
Layer 1
10
38.555797
20
12.101652
11
38.898956
21
11.446633
0
LINE
8
Layer 1
10
38.898956
20
11.446633
11
39.262254
21
11.223192
0
LINE
8
Layer 1
10
39.262254
20
11.223192
11
39.619247
21
11.431870
0
LINE
8
Layer 1
10
39.619247
20
11.431870
11
39.943487
21
12.073210
0
LINE
8
Layer 1
10
39.943487
20
12.073210
11
40.237221
21
13.160446
0
LINE
8
Layer 1
10
40.237221
20
13.160446
11
40.186328
21
13.379328
0
LINE
8
Layer 1
10
40.186328
20
13.379328
11
40.006374
21
13.442208
0
LINE
8
Layer 1
10
40.006374
20
13.442208
11
39.775742
21
13.172774
0
LINE
8
Layer 1
10
39.775742
20
13.172774
11
39.568016
21
12.524986
0
LINE
8
Layer 1
10
39.568016
20
12.524986
11
39.376598
21
11.607763
0
LINE
8
Layer 1
10
39.376598
20
11.607763
11
38.981916
21
12.524986
0
LINE
8
Layer 1
10
38.981916
20
12.524986
11
38.581713
21
13.205705
0
LINE
8
Layer 1
10
38.581713
20
13.205705
11
38.192589
21
13.395366
0
LINE
8
Layer 1
10
38.192589
20
13.395366
11
37.834801
21
13.096921
0
LINE
8
Layer 1
10
37.834801
20
13.096921
11
37.528610
21
12.313319
0
LINE
8
Layer 1
10
37.528610
20
12.313319
11
37.384820
21
11.516041
0
LINE
8
Layer 1
10
37.384820
20
11.516041
11
37.462237
21
11.184430
0
LINE
8
Layer 1
10
37.462237
20
11.184430
11
37.704098
21
11.453864
0
LINE
8
Layer 1
10
37.704098
20
11.453864
11
37.955677
21
12.101652
0
LINE
8
Layer 1
10
37.955677
20
12.101652
11
37.955677
21
12.101652
0
LINE
8
Layer 1
10
42.087763
20
11.516857
11
41.429898
21
11.907435
0
LINE
8
Layer 1
10
41.429898
20
11.907435
11
41.414798
21
12.203151
0
LINE
8
Layer 1
10
41.414798
20
12.203151
11
41.704236
21
12.627526
0
LINE
8
Layer 1
10
41.704236
20
12.627526
11
42.146926
21
13.013178
0
LINE
8
Layer 1
10
42.146926
20
13.013178
11
42.591581
21
13.192723
0
LINE
8
Layer 1
10
42.591581
20
13.192723
11
42.989084
21
13.245350
0
LINE
8
Layer 1
10
42.989084
20
13.245350
11
42.708886
21
13.357202
0
LINE
8
Layer 1
10
42.708886
20
13.357202
11
42.121999
21
13.320699
0
LINE
8
Layer 1
10
42.121999
20
13.320699
11
41.504303
21
13.016364
0
LINE
8
Layer 1
10
41.504303
20
13.016364
11
41.016118
21
12.555175
0
LINE
8
Layer 1
10
41.016118
20
12.555175
11
40.817763
21
12.048109
0
LINE
8
Layer 1
10
40.817763
20
12.048109
11
40.888889
21
11.679883
0
LINE
8
Layer 1
10
40.888889
20
11.679883
11
41.113266
21
11.425551
0
LINE
8
Layer 1
10
41.113266
20
11.425551
11
42.087763
21
11.215294
0
LINE
8
Layer 1
10
42.087763
20
11.215294
11
42.511097
21
11.242715
0
LINE
8
Layer 1
10
42.511097
20
11.242715
11
42.087763
21
11.516857
0
LINE
8
Layer 1
10
42.087763
20
11.516857
11
42.087763
21
11.516857
0
LINE
8
Layer 1
10
47.379430
20
11.475446
11
46.855613
21
11.854769
0
LINE
8
Layer 1
10
46.855613
20
11.854769
11
46.740520
21
12.329358
0
LINE
8
Layer 1
10
46.740520
20
12.329358
11
47.015437
21
12.789746
0
LINE
8
Layer 1
10
47.015437
20
12.789746
11
47.661652
21
13.126463
0
LINE
8
Layer 1
10
47.661652
20
13.126463
11
48.232291
21
13.337044
0
LINE
8
Layer 1
10
48.232291
20
13.337044
11
47.966957
21
13.416754
0
LINE
8
Layer 1
10
47.966957
20
13.416754
11
46.852046
21
13.228741
0
LINE
8
Layer 1
10
46.852046
20
13.228741
11
46.452237
21
12.949468
0
LINE
8
Layer 1
10
46.452237
20
12.949468
11
46.152562
21
12.544298
0
LINE
8
Layer 1
10
46.152562
20
12.544298
11
46.024208
21
12.022580
0
LINE
8
Layer 1
10
46.024208
20
12.022580
11
46.197354
21
11.590019
0
LINE
8
Layer 1
10
46.197354
20
11.590019
11
46.628183
21
11.299103
0
LINE
8
Layer 1
10
46.628183
20
11.299103
11
47.272874
21
11.202320
0
LINE
8
Layer 1
10
47.272874
20
11.202320
11
47.830631
21
11.251899
0
LINE
8
Layer 1
10
47.830631
20
11.251899
11
47.379430
21
11.475446
0
LINE
8
Layer 1
10
47.379430
20
11.475446
11
47.379430
21
11.475446
0
LINE
8
Layer 1
10
50.767265
20
11.537208
11
51.128362
21
11.998502
0
LINE
8
Layer 1
10
51.128362
20
11.998502
11
51.399828
21
12.635407
0
LINE
8
Layer 1
10
51.399828
20
12.635407
11
51.503481
21
13.197936
0
LINE
8
Layer 1
10
51.503481
20
13.197936
11
51.361137
21
13.436100
0
LINE
8
Layer 1
10
51.361137
20
13.436100
11
51.065684
21
13.168435
0
LINE
8
Layer 1
10
51.065684
20
13.168435
11
50.695541
21
12.533478
0
LINE
8
Layer 1
10
50.695541
20
12.533478
11
50.235226
21
11.768018
0
LINE
8
Layer 1
10
50.235226
20
11.768018
11
49.855258
21
11.487605
0
LINE
8
Layer 1
10
49.855258
20
11.487605
11
49.633283
21
11.700897
0
LINE
8
Layer 1
10
49.633283
20
11.700897
11
49.646947
21
12.416553
0
LINE
8
Layer 1
10
49.646947
20
12.416553
11
49.694914
21
13.140922
0
LINE
8
Layer 1
10
49.694914
20
13.140922
11
49.576516
21
13.442208
0
LINE
8
Layer 1
10
49.576516
20
13.442208
11
49.308688
21
13.173797
0
LINE
8
Layer 1
10
49.308688
20
13.173797
11
49.037525
21
12.559115
0
LINE
8
Layer 1
10
49.037525
20
12.559115
11
48.862011
21
11.883986
0
LINE
8
Layer 1
10
48.862011
20
11.883986
11
48.881132
21
11.434233
0
LINE
8
Layer 1
10
48.881132
20
11.434233
11
49.196259
21
11.238577
0
LINE
8
Layer 1
10
49.196259
20
11.238577
11
49.708966
21
11.195614
0
LINE
8
Layer 1
10
49.708966
20
11.195614
11
50.279289
21
11.297705
0
LINE
8
Layer 1
10
50.279289
20
11.297705
11
50.767265
21
11.537208
0
LINE
8
Layer 1
10
50.767265
20
11.537208
11
50.767265
21
11.537208
0
LINE
8
Layer 1
10
53.295979
20
12.241815
11
53.600882
21
12.899570
0
LINE
8
Layer 1
10
53.600882
20
12.899570
11
54.014503
21
13.248214
0
LINE
8
Layer 1
10
54.014503
20
13.248214
11
54.104952
21
13.298115
0
LINE
8
Layer 1
10
54.104952
20
13.298115
11
53.988236
21
13.338980
0
LINE
8
Layer 1
10
53.988236
20
13.338980
11
53.235541
21
13.376732
0
LINE
8
Layer 1
10
53.235541
20
13.376732
11
52.483683
21
13.338818
0
LINE
8
Layer 1
10
52.483683
20
13.338818
11
52.367873
21
13.297778
0
LINE
8
Layer 1
10
52.367873
20
13.297778
11
52.459430
21
13.247664
0
LINE
8
Layer 1
10
52.459430
20
13.247664
11
52.953319
21
13.066872
0
LINE
8
Layer 1
10
52.953319
20
13.066872
11
52.685422
21
12.081044
0
LINE
8
Layer 1
10
52.685422
20
12.081044
11
52.551998
21
11.383217
0
LINE
8
Layer 1
10
52.551998
20
11.383217
11
52.606446
21
11.255311
0
LINE
8
Layer 1
10
52.606446
20
11.255311
11
52.743013
21
11.255440
0
LINE
8
Layer 1
10
52.743013
20
11.255440
11
53.039709
21
11.589941
0
LINE
8
Layer 1
10
53.039709
20
11.589941
11
53.295979
21
12.241815
0
LINE
8
Layer 1
10
53.295979
20
12.241815
11
53.295979
21
12.241815
0
LINE
8
Layer 1
10
55.913607
20
12.299456
11
56.181383
21
12.919910
0
LINE
8
Layer 1
10
56.181383
20
12.919910
11
56.570321
21
13.251259
0
LINE
8
Layer 1
10
56.570321
20
13.251259
11
56.665764
21
13.300804
0
LINE
8
Layer 1
10
56.665764
20
13.300804
11
56.574334
21
13.342946
0
LINE
8
Layer 1
10
56.574334
20
13.342946
11
55.916652
21
13.387189
0
LINE
8
Layer 1
10
55.916652
20
13.387189
11
55.225319
21
13.351987
0
LINE
8
Layer 1
10
55.225319
20
13.351987
11
55.097463
21
13.308136
0
LINE
8
Layer 1
10
55.097463
20
13.308136
11
55.148424
21
13.252670
0
LINE
8
Layer 1
10
55.148424
20
13.252670
11
55.377644
21
12.902298
0
LINE
8
Layer 1
10
55.377644
20
12.902298
11
55.321028
21
12.105265
0
LINE
8
Layer 1
10
55.321028
20
12.105265
11
55.277792
21
11.441470
0
LINE
8
Layer 1
10
55.277792
20
11.441470
11
55.428250
21
11.274234
0
LINE
8
Layer 1
10
55.428250
20
11.274234
11
55.673243
21
11.571061
0
LINE
8
Layer 1
10
55.673243
20
11.571061
11
55.913607
21
12.299456
0
LINE
8
Layer 1
10
55.913607
20
12.299456
11
55.913607
21
12.299456
0
LINE
8
Layer 1
10
57.895583
20
11.819430
11
58.215840
21
12.948319
0
LINE
8
Layer 1
10
58.215840
20
12.948319
11
58.251654
21
13.385778
0
LINE
8
Layer 1
10
58.251654
20
13.385778
11
58.067957
21
13.424204
0
LINE
8
Layer 1
10
58.067957
20
13.424204
11
57.778363
21
13.125965
0
LINE
8
Layer 1
10
57.778363
20
13.125965
11
57.496484
21
12.553428
0
LINE
8
Layer 1
10
57.496484
20
12.553428
11
57.203131
21
11.461718
0
LINE
8
Layer 1
10
57.203131
20
11.461718
11
57.259813
21
11.245632
0
LINE
8
Layer 1
10
57.259813
20
11.245632
11
57.449855
21
11.184430
0
LINE
8
Layer 1
10
57.449855
20
11.184430
11
57.689361
21
11.370961
0
LINE
8
Layer 1
10
57.689361
20
11.370961
11
57.895583
21
11.819430
0
LINE
8
Layer 1
10
57.895583
20
11.819430
11
57.895583
21
11.819430
0
LINE
8
Layer 1
10
59.444430
20
12.047753
11
59.514819
21
12.464041
0
LINE
8
Layer 1
10
59.514819
20
12.464041
11
59.698411
21
12.571039
0
LINE
8
Layer 1
10
59.698411
20
12.571039
11
59.953841
21
12.376952
0
LINE
8
Layer 1
10
59.953841
20
12.376952
11
60.239746
21
11.889986
0
LINE
8
Layer 1
10
60.239746
20
11.889986
11
60.550032
21
11.382791
0
LINE
8
Layer 1
10
60.550032
20
11.382791
11
60.857248
21
11.216880
0
LINE
8
Layer 1
10
60.857248
20
11.216880
11
61.152520
21
11.392115
0
LINE
8
Layer 1
10
61.152520
20
11.392115
11
61.426971
21
11.908358
0
LINE
8
Layer 1
10
61.426971
20
11.908358
11
61.691567
21
13.038786
0
LINE
8
Layer 1
10
61.691567
20
13.038786
11
61.622647
21
13.308698
0
LINE
8
Layer 1
10
61.622647
20
13.308698
11
61.419986
21
13.301097
0
LINE
8
Layer 1
10
61.419986
20
13.301097
11
61.220666
21
13.016997
0
LINE
8
Layer 1
10
61.220666
20
13.016997
11
61.137763
21
12.578884
0
LINE
8
Layer 1
10
61.137763
20
12.578884
11
61.052981
21
12.153999
0
LINE
8
Layer 1
10
61.052981
20
12.153999
11
60.850780
21
12.049923
0
LINE
8
Layer 1
10
60.850780
20
12.049923
11
60.609377
21
12.249769
0
LINE
8
Layer 1
10
60.609377
20
12.249769
11
60.406988
21
12.736652
0
LINE
8
Layer 1
10
60.406988
20
12.736652
11
60.171451
21
13.234951
0
LINE
8
Layer 1
10
60.171451
20
13.234951
11
59.853824
21
13.442208
0
LINE
8
Layer 1
10
59.853824
20
13.442208
11
59.563882
21
13.395879
0
LINE
8
Layer 1
10
59.563882
20
13.395879
11
59.360840
21
13.204010
0
LINE
8
Layer 1
10
59.360840
20
13.204010
11
59.024105
21
12.066346
0
LINE
8
Layer 1
10
59.024105
20
12.066346
11
58.942190
21
11.385459
0
LINE
8
Layer 1
10
58.942190
20
11.385459
11
59.002619
21
11.274553
0
LINE
8
Layer 1
10
59.002619
20
11.274553
11
59.132030
21
11.306889
0
LINE
8
Layer 1
10
59.132030
20
11.306889
11
59.352662
21
11.604162
0
LINE
8
Layer 1
10
59.352662
20
11.604162
11
59.444430
21
12.047753
0
LINE
8
Layer 1
10
59.444430
20
12.047753
11
59.444430
21
12.047753
0
LINE
8
Layer 1
10
64.759846
20
11.991975
11
64.739780
21
12.466042
0
LINE
8
Layer 1
10
64.739780
20
12.466042
11
64.477623
21
12.532902
0
LINE
8
Layer 1
10
64.477623
20
12.532902
11
64.211702
21
12.326816
0
LINE
8
Layer 1
10
64.211702
20
12.326816
11
64.101097
21
12.007579
0
LINE
8
Layer 1
10
64.101097
20
12.007579
11
63.968479
21
11.671084
0
LINE
8
Layer 1
10
63.968479
20
11.671084
11
63.669488
21
11.620253
0
LINE
8
Layer 1
10
63.669488
20
11.620253
11
63.352415
21
11.819386
0
LINE
8
Layer 1
10
63.352415
20
11.819386
11
63.165553
21
12.232787
0
LINE
8
Layer 1
10
63.165553
20
12.232787
11
63.259976
21
12.764585
0
LINE
8
Layer 1
10
63.259976
20
12.764585
11
63.871108
21
13.033587
0
LINE
8
Layer 1
10
63.871108
20
13.033587
11
64.953994
21
13.324146
0
LINE
8
Layer 1
10
64.953994
20
13.324146
11
64.899563
21
13.389431
0
LINE
8
Layer 1
10
64.899563
20
13.389431
11
64.476957
21
13.419926
0
LINE
8
Layer 1
10
64.476957
20
13.419926
11
63.241920
21
13.236839
0
LINE
8
Layer 1
10
63.241920
20
13.236839
11
62.828160
21
12.959084
0
LINE
8
Layer 1
10
62.828160
20
12.959084
11
62.521451
21
12.544298
0
LINE
8
Layer 1
10
62.521451
20
12.544298
11
62.388168
21
11.991785
0
LINE
8
Layer 1
10
62.388168
20
11.991785
11
62.589754
21
11.555740
0
LINE
8
Layer 1
10
62.589754
20
11.555740
11
63.075534
21
11.288043
0
LINE
8
Layer 1
10
63.075534
20
11.288043
11
63.794838
21
11.240575
0
LINE
8
Layer 1
10
63.794838
20
11.240575
11
64.501237
21
11.448594
0
LINE
8
Layer 1
10
64.501237
20
11.448594
11
64.759846
21
11.991975
0
LINE
8
Layer 1
10
64.759846
20
11.991975
11
64.759846
21
11.991975
0
LINE
8
Layer 1
10
69.358208
20
11.653658
11
69.591859
21
12.050107
0
LINE
8
Layer 1
10
69.591859
20
12.050107
11
69.392763
21
12.241623
0
LINE
8
Layer 1
10
69.392763
20
12.241623
11
69.114210
21
12.452186
0
LINE
8
Layer 1
10
69.114210
20
12.452186
11
69.053980
21
12.754939
0
LINE
8
Layer 1
10
69.053980
20
12.754939
11
69.198419
21
13.052544
0
LINE
8
Layer 1
10
69.198419
20
13.052544
11
69.533874
21
13.247664
0
LINE
8
Layer 1
10
69.533874
20
13.247664
11
69.696800
21
13.351294
0
LINE
8
Layer 1
10
69.696800
20
13.351294
11
69.268309
21
13.409470
0
LINE
8
Layer 1
10
69.268309
20
13.409470
11
68.709497
21
13.351037
0
LINE
8
Layer 1
10
68.709497
20
13.351037
11
68.357001
21
13.151155
0
LINE
8
Layer 1
10
68.357001
20
13.151155
11
68.254003
21
12.856689
0
LINE
8
Layer 1
10
68.254003
20
12.856689
11
68.443687
21
12.514507
0
LINE
8
Layer 1
10
68.443687
20
12.514507
11
68.690521
21
12.161720
0
LINE
8
Layer 1
10
68.690521
20
12.161720
11
68.738503
21
11.827539
0
LINE
8
Layer 1
10
68.738503
20
11.827539
11
68.594123
21
11.552959
0
LINE
8
Layer 1
10
68.594123
20
11.552959
11
68.263874
21
11.378974
0
LINE
8
Layer 1
10
68.263874
20
11.378974
11
67.991200
21
11.269379
0
LINE
8
Layer 1
10
67.991200
20
11.269379
11
68.370430
21
11.217168
0
LINE
8
Layer 1
10
68.370430
20
11.217168
11
68.908272
21
11.331883
0
LINE
8
Layer 1
10
68.908272
20
11.331883
11
69.358208
21
11.653658
0
LINE
8
Layer 1
10
69.358208
20
11.653658
11
69.358208
21
11.653658
0
LINE
8
Layer 1
10
72.022665
20
12.461788
11
72.488425
21
13.225223
0
LINE
8
Layer 1
10
72.488425
20
13.225223
11
72.205497
21
13.068819
0
LINE
8
Layer 1
10
72.205497
20
13.068819
11
71.670795
21
12.695923
0
LINE
8
Layer 1
10
71.670795
20
12.695923
11
71.344488
21
13.066468
0
LINE
8
Layer 1
10
71.344488
20
13.066468
11
71.106165
21
13.387412
0
LINE
8
Layer 1
10
71.106165
20
13.387412
11
70.935650
21
13.439857
0
LINE
8
Layer 1
10
70.935650
20
13.439857
11
70.949028
21
12.231462
0
LINE
8
Layer 1
10
70.949028
20
12.231462
11
71.173058
21
11.247871
0
LINE
8
Layer 1
10
71.173058
20
11.247871
11
72.022665
21
12.461788
0
LINE
8
Layer 1
10
72.022665
20
12.461788
11
72.022665
21
12.461788
0
LINE
8
Layer 1
10
74.402208
20
11.462362
11
74.677374
21
11.788913
0
LINE
8
Layer 1
10
74.677374
20
11.788913
11
74.472763
21
12.300879
0
LINE
8
Layer 1
10
74.472763
20
12.300879
11
74.151560
21
12.992531
0
LINE
8
Layer 1
10
74.151560
20
12.992531
11
74.279360
21
13.138312
0
LINE
8
Layer 1
10
74.279360
20
13.138312
11
74.613874
21
13.247664
0
LINE
8
Layer 1
10
74.613874
20
13.247664
11
74.902463
21
13.358291
0
LINE
8
Layer 1
10
74.902463
20
13.358291
11
74.529208
21
13.409470
0
LINE
8
Layer 1
10
74.529208
20
13.409470
11
73.937292
21
13.337967
0
LINE
8
Layer 1
10
73.937292
20
13.337967
11
73.581114
21
13.084115
0
LINE
8
Layer 1
10
73.581114
20
13.084115
11
73.501542
21
12.707083
0
LINE
8
Layer 1
10
73.501542
20
12.707083
11
73.739443
21
12.266038
0
LINE
8
Layer 1
10
73.739443
20
12.266038
11
74.027464
21
11.795142
0
LINE
8
Layer 1
10
74.027464
20
11.795142
11
73.523921
21
11.489851
0
LINE
8
Layer 1
10
73.523921
20
11.489851
11
73.062653
21
11.264184
0
LINE
8
Layer 1
10
73.062653
20
11.264184
11
73.414430
21
11.206641
0
LINE
8
Layer 1
10
73.414430
20
11.206641
11
74.402208
21
11.462362
0
LINE
8
Layer 1
10
74.402208
20
11.462362
11
74.402208
21
11.462362
0
LINE
8
Layer 1
10
76.805254
20
12.050025
11
77.112784
21
12.741537
0
LINE
8
Layer 1
10
77.112784
20
12.741537
11
77.603790
21
13.161024
0
LINE
8
Layer 1
10
77.603790
20
13.161024
11
77.845128
21
13.281969
0
LINE
8
Layer 1
10
77.845128
20
13.281969
11
77.830851
21
13.359362
0
LINE
8
Layer 1
10
77.830851
20
13.359362
11
76.942208
21
13.419997
0
LINE
8
Layer 1
10
76.942208
20
13.419997
11
76.101858
21
13.366968
0
LINE
8
Layer 1
10
76.101858
20
13.366968
11
75.975997
21
13.293468
0
LINE
8
Layer 1
10
75.975997
20
13.293468
11
76.055152
21
13.190920
0
LINE
8
Layer 1
10
76.055152
20
13.190920
11
76.299160
21
12.794247
0
LINE
8
Layer 1
10
76.299160
20
12.794247
11
76.244396
21
12.066352
0
LINE
8
Layer 1
10
76.244396
20
12.066352
11
76.181617
21
11.427040
0
LINE
8
Layer 1
10
76.181617
20
11.427040
11
76.332915
21
11.184430
0
LINE
8
Layer 1
10
76.332915
20
11.184430
11
76.588082
21
11.438698
0
LINE
8
Layer 1
10
76.588082
20
11.438698
11
76.805254
21
12.050025
0
LINE
8
Layer 1
10
76.805254
20
12.050025
11
76.805254
21
12.050025
0
LINE
8
Layer 1
10
79.552763
20
11.383603
11
79.101645
21
11.548684
0
LINE
8
Layer 1
10
79.101645
20
11.548684
11
78.933788
21
11.764159
0
LINE
8
Layer 1
10
78.933788
20
11.764159
11
79.057780
21
11.951229
0
LINE
8
Layer 1
10
79.057780
20
11.951229
11
79.482208
21
12.031097
0
LINE
8
Layer 1
10
79.482208
20
12.031097
11
79.880847
21
12.113999
0
LINE
8
Layer 1
10
79.880847
20
12.113999
11
80.046652
21
12.313319
0
LINE
8
Layer 1
10
80.046652
20
12.313319
11
79.922298
21
12.512638
0
LINE
8
Layer 1
10
79.922298
20
12.512638
11
79.623319
21
12.595541
0
LINE
8
Layer 1
10
79.623319
20
12.595541
11
79.252376
21
12.679042
0
LINE
8
Layer 1
10
79.252376
20
12.679042
11
79.219065
21
12.871921
0
LINE
8
Layer 1
10
79.219065
20
12.871921
11
79.476075
21
13.087741
0
LINE
8
Layer 1
10
79.476075
20
13.087741
11
79.976097
21
13.240066
0
LINE
8
Layer 1
10
79.976097
20
13.240066
11
80.414194
21
13.343500
0
LINE
8
Layer 1
10
80.414194
20
13.343500
11
79.728204
21
13.399922
0
LINE
8
Layer 1
10
79.728204
20
13.399922
11
79.152398
21
13.397409
0
LINE
8
Layer 1
10
79.152398
20
13.397409
11
78.810978
21
13.272630
0
LINE
8
Layer 1
10
78.810978
20
13.272630
11
78.600534
21
12.939847
0
LINE
8
Layer 1
10
78.600534
20
12.939847
11
78.417657
21
12.313319
0
LINE
8
Layer 1
10
78.417657
20
12.313319
11
78.131114
21
11.184430
0
LINE
8
Layer 1
10
78.131114
20
11.184430
11
79.159439
21
11.222863
0
LINE
8
Layer 1
10
79.159439
20
11.222863
11
79.754783
21
11.283131
0
LINE
8
Layer 1
10
79.754783
20
11.283131
11
79.552763
21
11.383603
0
LINE
8
Layer 1
10
79.552763
20
11.383603
11
79.552763
21
11.383603
0
LINE
8
Layer 1
10
81.575044
20
12.101652
11
81.976163
21
13.018874
0
LINE
8
Layer 1
10
81.976163
20
13.018874
11
81.999187
21
12.078135
0
LINE
8
Layer 1
10
81.999187
20
12.078135
11
82.105581
21
11.404974
0
LINE
8
Layer 1
10
82.105581
20
11.404974
11
82.374986
21
11.254986
0
LINE
8
Layer 1
10
82.374986
20
11.254986
11
82.615845
21
11.434756
0
LINE
8
Layer 1
10
82.615845
20
11.434756
11
82.699541
21
11.701836
0
LINE
8
Layer 1
10
82.699541
20
11.701836
11
82.628986
21
12.736652
0
LINE
8
Layer 1
10
82.628986
20
12.736652
11
82.438170
21
13.274137
0
LINE
8
Layer 1
10
82.438170
20
13.274137
11
82.056172
21
13.459817
0
LINE
8
Layer 1
10
82.056172
20
13.459817
11
81.640447
21
13.290470
0
LINE
8
Layer 1
10
81.640447
20
13.290470
11
81.348450
21
12.762871
0
LINE
8
Layer 1
10
81.348450
20
12.762871
11
81.005440
21
11.633982
0
LINE
8
Layer 1
10
81.005440
20
11.633982
11
80.899809
21
11.217800
0
LINE
8
Layer 1
10
80.899809
20
11.217800
11
81.017328
21
11.204471
0
LINE
8
Layer 1
10
81.017328
20
11.204471
11
81.575044
21
12.101652
0
LINE
8
Layer 1
10
81.575044
20
12.101652
11
81.575044
21
12.101652
0
LINE
8
Layer 1
10
84.168861
20
12.533805
11
84.223370
21
13.241128
0
LINE
8
Layer 1
10
84.223370
20
13.241128
11
83.957708
21
13.442208
0
LINE
8
Layer 1
10
83.957708
20
13.442208
11
83.653980
21
13.159743
0
LINE
8
Layer 1
10
83.653980
20
13.159743
11
83.534727
21
12.292505
0
LINE
8
Layer 1
10
83.534727
20
12.292505
11
83.580488
21
11.589181
0
LINE
8
Layer 1
10
83.580488
20
11.589181
11
83.735053
21
11.407751
0
LINE
8
Layer 1
10
83.735053
20
11.407751
11
83.947989
21
11.729023
0
LINE
8
Layer 1
10
83.947989
20
11.729023
11
84.168861
21
12.533805
0
LINE
8
Layer 1
10
84.168861
20
12.533805
11
84.168861
21
12.533805
0
LINE
8
Layer 1
10
86.234688
20
11.582637
11
86.412549
21
11.928385
0
LINE
8
Layer 1
10
86.412549
20
11.928385
11
86.269246
21
12.163738
0
LINE
8
Layer 1
10
86.269246
20
12.163738
11
86.027345
21
12.434462
0
LINE
8
Layer 1
10
86.027345
20
12.434462
11
85.989733
21
12.760265
0
LINE
8
Layer 1
10
85.989733
20
12.760265
11
86.141368
21
13.058786
0
LINE
8
Layer 1
10
86.141368
20
13.058786
11
86.467208
21
13.247664
0
LINE
8
Layer 1
10
86.467208
20
13.247664
11
86.630133
21
13.351294
0
LINE
8
Layer 1
10
86.630133
20
13.351294
11
86.201642
21
13.409470
0
LINE
8
Layer 1
10
86.201642
20
13.409470
11
85.642831
21
13.351037
0
LINE
8
Layer 1
10
85.642831
20
13.351037
11
85.290334
21
13.151155
0
LINE
8
Layer 1
10
85.290334
20
13.151155
11
85.187337
21
12.856689
0
LINE
8
Layer 1
10
85.187337
20
12.856689
11
85.377020
21
12.514507
0
LINE
8
Layer 1
10
85.377020
20
12.514507
11
85.623854
21
12.161720
0
LINE
8
Layer 1
10
85.623854
20
12.161720
11
85.671836
21
11.827539
0
LINE
8
Layer 1
10
85.671836
20
11.827539
11
85.527457
21
11.552959
0
LINE
8
Layer 1
10
85.527457
20
11.552959
11
85.197208
21
11.378974
0
LINE
8
Layer 1
10
85.197208
20
11.378974
11
84.924534
21
11.269379
0
LINE
8
Layer 1
10
84.924534
20
11.269379
11
85.303764
21
11.217168
0
LINE
8
Layer 1
10
85.303764
20
11.217168
11
85.824905
21
11.311020
0
LINE
8
Layer 1
10
85.824905
20
11.311020
11
86.234688
21
11.582637
0
LINE
8
Layer 1
10
86.234688
20
11.582637
11
86.234688
21
11.582637
0
LINE
8
Layer 1
10
83.433319
20
12.628852
11
83.350416
21
12.776935
0
LINE
8
Layer 1
10
83.350416
20
12.776935
11
83.151097
21
12.736652
0
LINE
8
Layer 1
10
83.151097
20
12.736652
11
82.868874
21
12.280008
0
LINE
8
Layer 1
10
82.868874
20
12.280008
11
82.951777
21
12.131925
0
LINE
8
Layer 1
10
82.951777
20
12.131925
11
83.151097
21
12.172208
0
LINE
8
Layer 1
10
83.151097
20
12.172208
11
83.433319
21
12.628852
0
LINE
8
Layer 1
10
83.433319
20
12.628852
11
83.433319
21
12.628852
0
LINE
8
Layer 1
10
28.235862
20
15.576180
11
28.690982
21
16.351313
0
LINE
8
Layer 1
10
28.690982
20
16.351313
11
29.128840
21
17.612870
0
LINE
8
Layer 1
10
29.128840
20
17.612870
11
29.467822
21
19.074739
0
LINE
8
Layer 1
10
29.467822
20
19.074739
11
29.626314
21
20.450802
0
LINE
8
Layer 1
10
29.626314
20
20.450802
11
29.669986
21
21.767763
0
LINE
8
Layer 1
10
29.669986
20
21.767763
11
26.829362
21
21.847615
0
LINE
8
Layer 1
10
26.829362
20
21.847615
11
24.411578
21
21.822948
0
LINE
8
Layer 1
10
24.411578
20
21.822948
11
23.867777
21
21.679986
0
LINE
8
Layer 1
10
23.867777
20
21.679986
11
23.528503
21
21.418914
0
LINE
8
Layer 1
10
23.528503
20
21.418914
11
23.017528
21
20.303568
0
LINE
8
Layer 1
10
23.017528
20
20.303568
11
22.525971
21
18.475533
0
LINE
8
Layer 1
10
22.525971
20
18.475533
11
22.214539
21
16.663346
0
LINE
8
Layer 1
10
22.214539
20
16.663346
11
22.243937
21
15.595541
0
LINE
8
Layer 1
10
22.243937
20
15.595541
11
22.580110
21
15.379388
0
LINE
8
Layer 1
10
22.580110
20
15.379388
11
23.243327
21
15.223626
0
LINE
8
Layer 1
10
23.243327
20
15.223626
11
25.132701
21
15.094626
0
LINE
8
Layer 1
10
25.132701
20
15.094626
11
27.075675
21
15.211243
0
LINE
8
Layer 1
10
27.075675
20
15.211243
11
27.805891
21
15.362503
0
LINE
8
Layer 1
10
27.805891
20
15.362503
11
28.235862
21
15.576180
0
LINE
8
Layer 1
10
28.235862
20
15.576180
11
28.235862
21
15.576180
0
LINE
8
Layer 1
10
24.178502
20
16.334986
11
24.698732
21
18.804430
0
LINE
8
Layer 1
10
24.698732
20
18.804430
11
25.207112
21
20.921097
0
LINE
8
Layer 1
10
25.207112
20
20.921097
11
26.380215
21
21.007880
0
LINE
8
Layer 1
10
26.380215
20
21.007880
11
27.174471
21
21.007627
0
LINE
8
Layer 1
10
27.174471
20
21.007627
11
27.398533
21
20.900646
0
LINE
8
Layer 1
10
27.398533
20
20.900646
11
27.517590
21
20.678936
0
LINE
8
Layer 1
10
27.517590
20
20.678936
11
27.471809
21
19.760844
0
LINE
8
Layer 1
10
27.471809
20
19.760844
11
27.099364
21
17.992384
0
LINE
8
Layer 1
10
27.099364
20
17.992384
11
26.645410
21
15.982208
0
LINE
8
Layer 1
10
26.645410
20
15.982208
11
25.406031
21
15.982208
0
LINE
8
Layer 1
10
25.406031
20
15.982208
11
24.485735
21
16.072172
0
LINE
8
Layer 1
10
24.485735
20
16.072172
11
24.178502
21
16.334986
0
LINE
8
Layer 1
10
24.178502
20
16.334986
11
24.178502
21
16.334986
0
LINE
8
Layer 1
10
26.702676
20
20.727732
11
26.252725
21
20.712755
0
LINE
8
Layer 1
10
26.252725
20
20.712755
11
25.794588
21
20.437934
0
LINE
8
Layer 1
10
25.794588
20
20.437934
11
25.438711
21
19.999980
0
LINE
8
Layer 1
10
25.438711
20
19.999980
11
25.295541
21
19.495603
0
LINE
8
Layer 1
10
25.295541
20
19.495603
11
25.309328
21
19.108428
0
LINE
8
Layer 1
10
25.309328
20
19.108428
11
25.401226
21
19.002762
0
LINE
8
Layer 1
10
25.401226
20
19.002762
11
26.122586
21
19.717199
0
LINE
8
Layer 1
10
26.122586
20
19.717199
11
26.634143
21
20.394234
0
LINE
8
Layer 1
10
26.634143
20
20.394234
11
26.702676
21
20.727732
0
LINE
8
Layer 1
10
26.702676
20
20.727732
11
26.702676
21
20.727732
0
LINE
8
Layer 1
10
33.087516
20
16.617208
11
33.408882
21
17.828644
0
LINE
8
Layer 1
10
33.408882
20
17.828644
11
33.634317
21
18.081061
0
LINE
8
Layer 1
10
33.634317
20
18.081061
11
33.951480
21
18.186123
0
LINE
8
Layer 1
10
33.951480
20
18.186123
11
34.283964
21
18.184461
0
LINE
8
Layer 1
10
34.283964
20
18.184461
11
34.495273
21
17.999793
0
LINE
8
Layer 1
10
34.495273
20
17.999793
11
34.760112
21
16.704457
0
LINE
8
Layer 1
10
34.760112
20
16.704457
11
34.956135
21
15.135541
0
LINE
8
Layer 1
10
34.956135
20
15.135541
11
36.212633
21
15.135541
0
LINE
8
Layer 1
10
36.212633
20
15.135541
11
37.213467
21
15.226022
0
LINE
8
Layer 1
10
37.213467
20
15.226022
11
37.354306
21
15.376238
0
LINE
8
Layer 1
10
37.354306
20
15.376238
11
37.330072
21
15.629430
0
LINE
8
Layer 1
10
37.330072
20
15.629430
11
36.955839
21
17.557472
0
LINE
8
Layer 1
10
36.955839
20
17.557472
11
37.081625
21
18.072379
0
LINE
8
Layer 1
10
37.081625
20
18.072379
11
37.421504
21
18.457731
0
LINE
8
Layer 1
10
37.421504
20
18.457731
11
37.874274
21
19.094092
0
LINE
8
Layer 1
10
37.874274
20
19.094092
11
38.255866
21
20.051643
0
LINE
8
Layer 1
10
38.255866
20
20.051643
11
38.466827
21
21.008987
0
LINE
8
Layer 1
10
38.466827
20
21.008987
11
38.407701
21
21.644729
0
LINE
8
Layer 1
10
38.407701
20
21.644729
11
37.393474
21
21.831281
0
LINE
8
Layer 1
10
37.393474
20
21.831281
11
35.184255
21
21.908874
0
LINE
8
Layer 1
10
35.184255
20
21.908874
11
32.124057
21
21.908874
0
LINE
8
Layer 1
10
32.124057
20
21.908874
11
31.388386
21
18.733874
0
LINE
8
Layer 1
10
31.388386
20
18.733874
11
30.655237
21
15.347208
0
LINE
8
Layer 1
10
30.655237
20
15.347208
11
30.976973
21
15.197718
0
LINE
8
Layer 1
10
30.976973
20
15.197718
11
31.746960
21
15.135541
0
LINE
8
Layer 1
10
31.746960
20
15.135541
11
32.836155
21
15.135541
0
LINE
8
Layer 1
10
32.836155
20
15.135541
11
33.087516
21
16.617208
0
LINE
8
Layer 1
10
33.087516
20
16.617208
11
33.087516
21
16.617208
0
LINE
8
Layer 1
10
33.762208
20
19.628014
11
33.828853
21
20.325437
0
LINE
8
Layer 1
10
33.828853
20
20.325437
11
34.060037
21
20.765849
0
LINE
8
Layer 1
10
34.060037
20
20.765849
11
34.502632
21
20.995892
0
LINE
8
Layer 1
10
34.502632
20
20.995892
11
35.203514
21
21.062208
0
LINE
8
Layer 1
10
35.203514
20
21.062208
11
35.887498
21
21.025552
0
LINE
8
Layer 1
10
35.887498
20
21.025552
11
36.216269
21
20.860157
0
LINE
8
Layer 1
10
36.216269
20
20.860157
11
36.244526
21
20.482881
0
LINE
8
Layer 1
10
36.244526
20
20.482881
11
36.026971
21
19.810580
0
LINE
8
Layer 1
10
36.026971
20
19.810580
11
35.611170
21
19.228076
0
LINE
8
Layer 1
10
35.611170
20
19.228076
11
34.756971
21
19.086652
0
LINE
8
Layer 1
10
34.756971
20
19.086652
11
33.962410
21
19.195605
0
LINE
8
Layer 1
10
33.962410
20
19.195605
11
33.806197
21
19.361482
0
LINE
8
Layer 1
10
33.806197
20
19.361482
11
33.762208
21
19.628014
0
LINE
8
Layer 1
10
33.762208
20
19.628014
11
33.762208
21
19.628014
0
LINE
8
Layer 1
10
44.768874
20
15.558874
11
44.693909
21
15.762123
0
LINE
8
Layer 1
10
44.693909
20
15.762123
11
44.439615
21
15.892410
0
LINE
8
Layer 1
10
44.439615
20
15.892410
11
43.216652
21
15.982208
0
LINE
8
Layer 1
10
43.216652
20
15.982208
11
42.183910
21
16.024182
0
LINE
8
Layer 1
10
42.183910
20
16.024182
11
41.892292
21
16.130363
0
LINE
8
Layer 1
10
41.892292
20
16.130363
11
41.733828
21
16.341084
0
LINE
8
Layer 1
10
41.733828
20
16.341084
11
41.766316
21
17.219381
0
LINE
8
Layer 1
10
41.766316
20
17.219381
11
42.181283
21
18.945541
0
LINE
8
Layer 1
10
42.181283
20
18.945541
11
42.685245
21
20.921097
0
LINE
8
Layer 1
10
42.685245
20
20.921097
11
44.340089
21
21.062208
0
LINE
8
Layer 1
10
44.340089
20
21.062208
11
45.561585
21
21.262927
0
LINE
8
Layer 1
10
45.561585
20
21.262927
11
46.110977
21
21.556097
0
LINE
8
Layer 1
10
46.110977
20
21.556097
11
46.042862
21
21.722457
0
LINE
8
Layer 1
10
46.042862
20
21.722457
11
45.673795
21
21.831365
0
LINE
8
Layer 1
10
45.673795
20
21.831365
11
43.825098
21
21.908874
0
LINE
8
Layer 1
10
43.825098
20
21.908874
11
41.717406
21
21.802954
0
LINE
8
Layer 1
10
41.717406
20
21.802954
11
41.246886
21
21.600193
0
LINE
8
Layer 1
10
41.246886
20
21.600193
11
40.893122
21
21.235021
0
LINE
8
Layer 1
10
40.893122
20
21.235021
11
40.326997
21
20.015516
0
LINE
8
Layer 1
10
40.326997
20
20.015516
11
39.850231
21
18.227576
0
LINE
8
Layer 1
10
39.850231
20
18.227576
11
39.597975
21
16.519350
0
LINE
8
Layer 1
10
39.597975
20
16.519350
11
39.705382
21
15.538986
0
LINE
8
Layer 1
10
39.705382
20
15.538986
11
40.065141
21
15.343961
0
LINE
8
Layer 1
10
40.065141
20
15.343961
11
40.705481
21
15.206162
0
LINE
8
Layer 1
10
40.705481
20
15.206162
11
42.422842
21
15.100657
0
LINE
8
Layer 1
10
42.422842
20
15.100657
11
44.047347
21
15.219289
0
LINE
8
Layer 1
10
44.047347
20
15.219289
11
44.571615
21
15.361661
0
LINE
8
Layer 1
10
44.571615
20
15.361661
11
44.768874
21
15.558874
0
LINE
8
Layer 1
10
44.768874
20
15.558874
11
44.768874
21
15.558874
0
LINE
8
Layer 1
10
48.844736
20
16.193874
11
49.074455
21
17.354357
0
LINE
8
Layer 1
10
49.074455
20
17.354357
11
49.326581
21
17.964288
0
LINE
8
Layer 1
10
49.326581
20
17.964288
11
49.740291
21
18.200540
0
LINE
8
Layer 1
10
49.740291
20
18.200540
11
50.454760
21
18.239986
0
LINE
8
Layer 1
10
50.454760
20
18.239986
11
51.159065
21
18.220766
0
LINE
8
Layer 1
10
51.159065
20
18.220766
11
51.450838
21
17.982945
0
LINE
8
Layer 1
10
51.450838
20
17.982945
11
51.396649
21
17.256284
0
LINE
8
Layer 1
10
51.396649
20
17.256284
11
51.063065
21
15.770541
0
LINE
8
Layer 1
10
51.063065
20
15.770541
11
51.016010
21
15.428977
0
LINE
8
Layer 1
10
51.016010
20
15.428977
11
51.115877
21
15.237623
0
LINE
8
Layer 1
10
51.115877
20
15.237623
11
52.009847
21
15.135541
0
LINE
8
Layer 1
10
52.009847
20
15.135541
11
53.103120
21
15.135541
0
LINE
8
Layer 1
10
53.103120
20
15.135541
11
53.753004
21
18.125906
0
LINE
8
Layer 1
10
53.753004
20
18.125906
11
54.554967
21
21.512572
0
LINE
8
Layer 1
10
54.554967
20
21.512572
11
54.570595
21
21.700985
0
LINE
8
Layer 1
10
54.570595
20
21.700985
11
54.428304
21
21.823160
0
LINE
8
Layer 1
10
54.428304
20
21.823160
11
53.570381
21
21.908874
0
LINE
8
Layer 1
10
53.570381
20
21.908874
11
52.577948
21
21.769925
0
LINE
8
Layer 1
10
52.577948
20
21.769925
11
52.379393
21
21.494588
0
LINE
8
Layer 1
10
52.379393
20
21.494588
11
52.249118
21
20.991652
0
LINE
8
Layer 1
10
52.249118
20
20.991652
11
52.008269
21
19.899915
0
LINE
8
Layer 1
10
52.008269
20
19.899915
11
51.757313
21
19.333302
0
LINE
8
Layer 1
10
51.757313
20
19.333302
11
51.351259
21
19.119615
0
LINE
8
Layer 1
10
51.351259
20
19.119615
11
50.645114
21
19.086652
0
LINE
8
Layer 1
10
50.645114
20
19.086652
11
49.503835
21
19.086652
0
LINE
8
Layer 1
10
49.503835
20
19.086652
11
49.692901
21
20.094471
0
LINE
8
Layer 1
10
49.692901
20
20.094471
11
50.036727
21
21.505582
0
LINE
8
Layer 1
10
50.036727
20
21.505582
11
50.056171
21
21.698340
0
LINE
8
Layer 1
10
50.056171
20
21.698340
11
49.920262
21
21.822556
0
LINE
8
Layer 1
10
49.920262
20
21.822556
11
49.079054
21
21.908874
0
LINE
8
Layer 1
10
49.079054
20
21.908874
11
47.966622
21
21.908874
0
LINE
8
Layer 1
10
47.966622
20
21.908874
11
47.349921
21
19.157208
0
LINE
8
Layer 1
10
47.349921
20
19.157208
11
46.564798
21
15.770541
0
LINE
8
Layer 1
10
46.564798
20
15.770541
11
46.504703
21
15.426273
0
LINE
8
Layer 1
10
46.504703
20
15.426273
11
46.600256
21
15.235219
0
LINE
8
Layer 1
10
46.600256
20
15.235219
11
47.526773
21
15.135541
0
LINE
8
Layer 1
10
47.526773
20
15.135541
11
48.165018
21
15.158088
0
LINE
8
Layer 1
10
48.165018
20
15.158088
11
48.525035
21
15.283861
0
LINE
8
Layer 1
10
48.525035
20
15.283861
11
48.715412
21
15.600057
0
LINE
8
Layer 1
10
48.715412
20
15.600057
11
48.844736
21
16.193874
0
LINE
8
Layer 1
10
48.844736
20
16.193874
11
48.844736
21
16.193874
0
LINE
8
Layer 1
10
56.289747
20
16.899430
11
56.940303
21
19.792208
0
LINE
8
Layer 1
10
56.940303
20
19.792208
11
57.244040
21
20.616270
0
LINE
8
Layer 1
10
57.244040
20
20.616270
11
57.358550
21
20.607108
0
LINE
8
Layer 1
10
57.358550
20
20.607108
11
57.486369
21
20.356652
0
LINE
8
Layer 1
10
57.486369
20
20.356652
11
57.734367
21
18.522208
0
LINE
8
Layer 1
10
57.734367
20
18.522208
11
57.932241
21
16.193874
0
LINE
8
Layer 1
10
57.932241
20
16.193874
11
58.207440
21
15.323873
0
LINE
8
Layer 1
10
58.207440
20
15.323873
11
58.456649
21
15.173715
0
LINE
8
Layer 1
10
58.456649
20
15.173715
11
58.846356
21
15.137043
0
LINE
8
Layer 1
10
58.846356
20
15.137043
11
59.284653
21
15.231077
0
LINE
8
Layer 1
10
59.284653
20
15.231077
11
59.716147
21
15.621999
0
LINE
8
Layer 1
10
59.716147
20
15.621999
11
61.086340
21
17.959265
0
LINE
8
Layer 1
10
61.086340
20
17.959265
11
62.214560
21
19.951398
0
LINE
8
Layer 1
10
62.214560
20
19.951398
11
62.819582
21
20.779986
0
LINE
8
Layer 1
10
62.819582
20
20.779986
11
62.556886
21
18.561566
0
LINE
8
Layer 1
10
62.556886
20
18.561566
11
61.845077
21
15.488319
0
LINE
8
Layer 1
10
61.845077
20
15.488319
11
61.854015
21
15.330674
0
LINE
8
Layer 1
10
61.854015
20
15.330674
11
62.014181
21
15.220798
0
LINE
8
Layer 1
10
62.014181
20
15.220798
11
62.812363
21
15.135541
0
LINE
8
Layer 1
10
62.812363
20
15.135541
11
63.904803
21
15.135541
0
LINE
8
Layer 1
10
63.904803
20
15.135541
11
64.640474
21
18.310541
0
LINE
8
Layer 1
10
64.640474
20
18.310541
11
65.373623
21
21.697208
0
LINE
8
Layer 1
10
65.373623
20
21.697208
11
64.962185
21
21.846697
0
LINE
8
Layer 1
10
64.962185
20
21.846697
11
63.976527
21
21.908874
0
LINE
8
Layer 1
10
63.976527
20
21.908874
11
62.581957
21
21.908874
0
LINE
8
Layer 1
10
62.581957
20
21.908874
11
61.507082
21
19.935207
0
LINE
8
Layer 1
10
61.507082
20
19.935207
11
60.237630
21
17.959651
0
LINE
8
Layer 1
10
60.237630
20
17.959651
11
60.043027
21
18.538637
0
LINE
8
Layer 1
10
60.043027
20
18.538637
11
59.848386
21
19.933319
0
LINE
8
Layer 1
10
59.848386
20
19.933319
11
59.653720
21
21.908874
0
LINE
8
Layer 1
10
59.653720
20
21.908874
11
58.185369
21
21.908874
0
LINE
8
Layer 1
10
58.185369
20
21.908874
11
56.717017
21
21.908874
0
LINE
8
Layer 1
10
56.717017
20
21.908874
11
56.088867
21
19.157208
0
LINE
8
Layer 1
10
56.088867
20
19.157208
11
55.305314
21
15.770541
0
LINE
8
Layer 1
10
55.305314
20
15.770541
11
55.285919
21
15.289617
0
LINE
8
Layer 1
10
55.285919
20
15.289617
11
55.555052
21
15.135541
0
LINE
8
Layer 1
10
55.555052
20
15.135541
11
55.754002
21
15.243591
0
LINE
8
Layer 1
10
55.754002
20
15.243591
11
55.941549
21
15.570666
0
LINE
8
Layer 1
10
55.941549
20
15.570666
11
56.289747
21
16.899430
0
LINE
8
Layer 1
10
56.289747
20
16.899430
11
56.289747
21
16.899430
0
LINE
8
Layer 1
10
67.035367
20
16.137438
11
67.402110
21
16.707484
0
LINE
8
Layer 1
10
67.402110
20
16.707484
11
67.762602
21
16.996151
0
LINE
8
Layer 1
10
67.762602
20
16.996151
11
68.313251
21
17.084768
0
LINE
8
Layer 1
10
68.313251
20
17.084768
11
69.250464
21
17.054661
0
LINE
8
Layer 1
10
69.250464
20
17.054661
11
70.676011
21
16.862406
0
LINE
8
Layer 1
10
70.676011
20
16.862406
11
70.884216
21
16.580137
0
LINE
8
Layer 1
10
70.884216
20
16.580137
11
70.962867
21
16.052763
0
LINE
8
Layer 1
10
70.962867
20
16.052763
11
71.038677
21
15.535683
0
LINE
8
Layer 1
10
71.038677
20
15.535683
11
71.214257
21
15.261917
0
LINE
8
Layer 1
10
71.214257
20
15.261917
11
72.322442
21
15.135541
0
LINE
8
Layer 1
10
72.322442
20
15.135541
11
73.335793
21
15.225576
0
LINE
8
Layer 1
10
73.335793
20
15.225576
11
73.476882
21
15.375737
0
LINE
8
Layer 1
10
73.476882
20
15.375737
11
73.450628
21
15.629430
0
LINE
8
Layer 1
10
73.450628
20
15.629430
11
72.986937
21
18.381097
0
LINE
8
Layer 1
10
72.986937
20
18.381097
11
72.675987
21
20.471916
0
LINE
8
Layer 1
10
72.675987
20
20.471916
11
72.397372
21
21.513186
0
LINE
8
Layer 1
10
72.397372
20
21.513186
11
71.965958
21
21.869249
0
LINE
8
Layer 1
10
71.965958
20
21.869249
11
71.196612
21
21.904446
0
LINE
8
Layer 1
10
71.196612
20
21.904446
11
70.496400
21
21.858872
0
LINE
8
Layer 1
10
70.496400
20
21.858872
11
69.960669
21
21.571388
0
LINE
8
Layer 1
10
69.960669
20
21.571388
11
69.327364
21
20.805974
0
LINE
8
Layer 1
10
69.327364
20
20.805974
11
68.334430
21
19.326609
0
LINE
8
Layer 1
10
68.334430
20
19.326609
11
65.900186
21
15.558981
0
LINE
8
Layer 1
10
65.900186
20
15.558981
11
65.770463
21
15.163360
0
LINE
8
Layer 1
10
65.770463
20
15.163360
11
66.021060
21
15.135541
0
LINE
8
Layer 1
10
66.021060
20
15.135541
11
66.493571
21
15.429848
0
LINE
8
Layer 1
10
66.493571
20
15.429848
11
67.035367
21
16.137438
0
LINE
8
Layer 1
10
67.035367
20
16.137438
11
67.035367
21
16.137438
0
LINE
8
Layer 1
10
69.108371
20
19.351882
11
69.809269
21
20.279294
0
LINE
8
Layer 1
10
69.809269
20
20.279294
11
70.203345
21
20.551326
0
LINE
8
Layer 1
10
70.203345
20
20.551326
11
70.559459
21
19.157208
0
LINE
8
Layer 1
10
70.559459
20
19.157208
11
70.739991
21
17.957763
0
LINE
8
Layer 1
10
70.739991
20
17.957763
11
69.464484
21
17.957763
0
LINE
8
Layer 1
10
69.464484
20
17.957763
11
68.188981
21
17.957763
0
LINE
8
Layer 1
10
68.188981
20
17.957763
11
69.108371
21
19.351882
0
LINE
8
Layer 1
10
69.108371
20
19.351882
11
69.108371
21
19.351882
0
LINE
8
Layer 1
10
78.635541
20
15.729805
11
79.029408
21
17.917027
0
LINE
8
Layer 1
10
79.029408
20
17.917027
11
79.594970
21
20.269127
0
LINE
8
Layer 1
10
79.594970
20
20.269127
11
79.928996
21
20.902041
0
LINE
8
Layer 1
10
79.928996
20
20.902041
11
80.802065
21
21.115793
0
LINE
8
Layer 1
10
80.802065
20
21.115793
11
81.567360
21
21.281237
0
LINE
8
Layer 1
10
81.567360
20
21.281237
11
81.953354
21
21.556097
0
LINE
8
Layer 1
10
81.953354
20
21.556097
11
81.853985
21
21.724269
0
LINE
8
Layer 1
10
81.853985
20
21.724269
11
81.371341
21
21.832975
0
LINE
8
Layer 1
10
81.371341
20
21.832975
11
78.941281
21
21.908874
0
LINE
8
Layer 1
10
78.941281
20
21.908874
11
76.405202
21
21.828770
0
LINE
8
Layer 1
10
76.405202
20
21.828770
11
75.937526
21
21.699695
0
LINE
8
Layer 1
10
75.937526
20
21.699695
11
75.813319
21
21.485541
0
LINE
8
Layer 1
10
75.813319
20
21.485541
11
76.024986
21
21.168041
0
LINE
8
Layer 1
10
76.024986
20
21.168041
11
76.659986
21
21.062208
0
LINE
8
Layer 1
10
76.659986
20
21.062208
11
77.257944
21
20.982516
0
LINE
8
Layer 1
10
77.257944
20
20.982516
11
77.506652
21
20.790916
0
LINE
8
Layer 1
10
77.506652
20
20.790916
11
76.942208
21
18.098874
0
LINE
8
Layer 1
10
76.942208
20
18.098874
11
76.377763
21
15.406836
0
LINE
8
Layer 1
10
76.377763
20
15.406836
11
76.709374
21
15.215233
0
LINE
8
Layer 1
10
76.709374
20
15.215233
11
77.506652
21
15.135541
0
LINE
8
Layer 1
10
77.506652
20
15.135541
11
78.430955
21
15.243238
0
LINE
8
Layer 1
10
78.430955
20
15.243238
11
78.594099
21
15.423837
0
LINE
8
Layer 1
10
78.594099
20
15.423837
11
78.635541
21
15.729805
0
LINE
8
Layer 1
10
78.635541
20
15.729805
11
78.635541
21
15.729805
0
LINE
8
Layer 1
10
87.596737
20
15.629430
11
87.559317
21
15.792517
0
LINE
8
Layer 1
10
87.559317
20
15.792517
11
87.302495
21
15.901789
0
LINE
8
Layer 1
10
87.302495
20
15.901789
11
86.026845
21
15.982208
0
LINE
8
Layer 1
10
86.026845
20
15.982208
11
84.340003
21
15.982208
0
LINE
8
Layer 1
10
84.340003
20
15.982208
11
84.626546
21
17.111097
0
LINE
8
Layer 1
10
84.626546
20
17.111097
11
84.913089
21
18.239986
0
LINE
8
Layer 1
10
84.913089
20
18.239986
11
86.430982
21
18.239986
0
LINE
8
Layer 1
10
86.430982
20
18.239986
11
87.625337
21
18.330219
0
LINE
8
Layer 1
10
87.625337
20
18.330219
11
87.874982
21
18.460561
0
LINE
8
Layer 1
10
87.874982
20
18.460561
11
87.948874
21
18.663319
0
LINE
8
Layer 1
10
87.948874
20
18.663319
11
87.877290
21
18.864945
0
LINE
8
Layer 1
10
87.877290
20
18.864945
11
87.637648
21
18.995412
0
LINE
8
Layer 1
10
87.637648
20
18.995412
11
86.504848
21
19.086652
0
LINE
8
Layer 1
10
86.504848
20
19.086652
11
85.297909
21
19.179919
0
LINE
8
Layer 1
10
85.297909
20
19.179919
11
85.171209
21
19.370171
0
LINE
8
Layer 1
10
85.171209
20
19.370171
11
85.230993
21
19.721652
0
LINE
8
Layer 1
10
85.230993
20
19.721652
11
85.405022
21
20.709430
0
LINE
8
Layer 1
10
85.405022
20
20.709430
11
85.507573
21
20.866896
0
LINE
8
Layer 1
10
85.507573
20
20.866896
11
85.817935
21
20.976792
0
LINE
8
Layer 1
10
85.817935
20
20.976792
11
87.102208
21
21.062208
0
LINE
8
Layer 1
10
87.102208
20
21.062208
11
88.442764
21
21.150402
0
LINE
8
Layer 1
10
88.442764
20
21.150402
11
88.716166
21
21.280489
0
LINE
8
Layer 1
10
88.716166
20
21.280489
11
88.795541
21
21.485541
0
LINE
8
Layer 1
10
88.795541
20
21.485541
11
88.687367
21
21.697587
0
LINE
8
Layer 1
10
88.687367
20
21.697587
11
88.289168
21
21.826897
0
LINE
8
Layer 1
10
88.289168
20
21.826897
11
86.180639
21
21.908874
0
LINE
8
Layer 1
10
86.180639
20
21.908874
11
83.565740
21
21.908874
0
LINE
8
Layer 1
10
83.565740
20
21.908874
11
82.915856
21
18.918510
0
LINE
8
Layer 1
10
82.915856
20
18.918510
11
82.109815
21
15.521212
0
LINE
8
Layer 1
10
82.109815
20
15.521212
11
82.136779
21
15.317063
0
LINE
8
Layer 1
10
82.136779
20
15.317063
11
82.496991
21
15.205127
0
LINE
8
Layer 1
10
82.496991
20
15.205127
11
84.716722
21
15.195463
0
LINE
8
Layer 1
10
84.716722
20
15.195463
11
86.838800
21
15.342441
0
LINE
8
Layer 1
10
86.838800
20
15.342441
11
87.379902
21
15.467171
0
LINE
8
Layer 1
10
87.379902
20
15.467171
11
87.596737
21
15.629430
0
LINE
8
Layer 1
10
87.596737
20
15.629430
11
87.596737
21
15.629430
0
LINE
8
Layer 1
10
38.678014
20
15.871292
11
38.993296
21
16.158881
0
LINE
8
Layer 1
10
38.993296
20
16.158881
11
39.124430
21
16.609763
0
LINE
8
Layer 1
10
39.124430
20
16.609763
11
38.996050
21
17.027858
0
LINE
8
Layer 1
10
38.996050
20
17.027858
11
38.489430
21
17.006756
0
LINE
8
Layer 1
10
38.489430
20
17.006756
11
37.669185
21
16.832730
0
LINE
8
Layer 1
10
37.669185
20
16.832730
11
37.570676
21
16.653384
0
LINE
8
Layer 1
10
37.570676
20
16.653384
11
37.635584
21
16.264265
0
LINE
8
Layer 1
10
37.635584
20
16.264265
11
37.801340
21
15.876192
0
LINE
8
Layer 1
10
37.801340
20
15.876192
11
38.005374
21
15.699986
0
LINE
8
Layer 1
10
38.005374
20
15.699986
11
38.678014
21
15.871292
0
LINE
8
Layer 1
10
38.678014
20
15.871292
11
38.678014
21
15.871292
0
LINE
8
Layer 1
10
44.652125
20
17.719043
11
46.281033
21
18.299752
0
LINE
8
Layer 1
10
46.281033
20
18.299752
11
46.636041
21
18.552728
0
LINE
8
Layer 1
10
46.636041
20
18.552728
11
46.744430
21
18.811960
0
LINE
8
Layer 1
10
46.744430
20
18.811960
11
46.698107
21
19.067039
0
LINE
8
Layer 1
10
46.698107
20
19.067039
11
46.462151
21
19.147982
0
LINE
8
Layer 1
10
46.462151
20
19.147982
11
44.839430
21
18.776679
0
LINE
8
Layer 1
10
44.839430
20
18.776679
11
42.755679
21
18.248204
0
LINE
8
Layer 1
10
42.755679
20
18.248204
11
42.432534
21
17.676047
0
LINE
8
Layer 1
10
42.432534
20
17.676047
11
42.356729
21
17.287418
0
LINE
8
Layer 1
10
42.356729
20
17.287418
11
42.420769
21
17.111097
0
LINE
8
Layer 1
10
42.420769
20
17.111097
11
44.652125
21
17.719043
0
LINE
8
Layer 1
10
44.652125
20
17.719043
11
44.652125
21
17.719043
0
LINE
8
Layer 1
10
51.565110
20
20.258334
11
51.748367
21
20.726153
0
LINE
8
Layer 1
10
51.748367
20
20.726153
11
51.410847
21
20.681668
0
LINE
8
Layer 1
10
51.410847
20
20.681668
11
50.531347
21
20.497763
0
LINE
8
Layer 1
10
50.531347
20
20.497763
11
50.248671
21
20.373409
0
LINE
8
Layer 1
10
50.248671
20
20.373409
11
50.131097
21
20.074430
0
LINE
8
Layer 1
10
50.131097
20
20.074430
11
50.303249
21
19.735143
0
LINE
8
Layer 1
10
50.303249
20
19.735143
11
50.709671
21
19.666810
0
LINE
8
Layer 1
10
50.709671
20
19.666810
11
51.185309
21
19.848262
0
LINE
8
Layer 1
10
51.185309
20
19.848262
11
51.565110
21
20.258334
0
LINE
8
Layer 1
10
51.565110
20
20.258334
11
51.565110
21
20.258334
0
LINE
8
Layer 1
10
56.316468
20
21.520602
11
56.267181
21
21.793533
0
LINE
8
Layer 1
10
56.267181
20
21.793533
11
55.955465
21
21.866674
0
LINE
8
Layer 1
10
55.955465
20
21.866674
11
55.506822
21
21.765572
0
LINE
8
Layer 1
10
55.506822
20
21.765572
11
55.103783
21
21.556665
0
LINE
8
Layer 1
10
55.103783
20
21.556665
11
54.928874
21
21.306395
0
LINE
8
Layer 1
10
54.928874
20
21.306395
11
55.099065
21
21.193275
0
LINE
8
Layer 1
10
55.099065
20
21.193275
11
55.498349
21
21.208449
0
LINE
8
Layer 1
10
55.498349
20
21.208449
11
56.316468
21
21.520602
0
LINE
8
Layer 1
10
56.316468
20
21.520602
11
56.316468
21
21.520602
0
LINE
8
Layer 1
10
29.683264
20
23.648295
11
30.798874
21
24.823270
0
LINE
8
Layer 1
10
30.798874
20
24.823270
11
29.458319
21
23.729642
0
LINE
8
Layer 1
10
29.458319
20
23.729642
11
28.117763
21
22.554667
0
LINE
8
Layer 1
10
28.117763
20
22.554667
11
28.229584
21
22.444416
0
LINE
8
Layer 1
10
28.229584
20
22.444416
11
28.546409
21
22.602955
0
LINE
8
Layer 1
10
28.546409
20
22.602955
11
29.683264
21
23.648295
0
LINE
8
Layer 1
10
29.683264
20
23.648295
11
29.683264
21
23.648295
0
LINE
8
Layer 1
10
63.644986
20
23.720586
11
68.475541
21
25.280770
0
LINE
8
Layer 1
10
68.475541
20
25.280770
11
69.181097
21
25.593686
0
LINE
8
Layer 1
10
69.181097
20
25.593686
11
68.475541
21
25.427503
0
LINE
8
Layer 1
10
68.475541
20
25.427503
11
66.358874
21
24.869668
0
LINE
8
Layer 1
10
66.358874
20
24.869668
11
62.972208
21
23.947241
0
LINE
8
Layer 1
10
62.972208
20
23.947241
11
60.573319
21
23.249478
0
LINE
8
Layer 1
10
60.573319
20
23.249478
11
59.303319
21
22.800183
0
LINE
8
Layer 1
10
59.303319
20
22.800183
11
58.813277
21
22.585158
0
LINE
8
Layer 1
10
58.813277
20
22.585158
11
58.988319
21
22.495600
0
LINE
8
Layer 1
10
58.988319
20
22.495600
11
63.644986
21
23.720586
0
LINE
8
Layer 1
10
63.644986
20
23.720586
11
63.644986
21
23.720586
0
LINE
8
Layer 1
10
69.939569
20
25.770552
11
69.398642
21
25.748274
0
LINE
8
Layer 1
10
69.398642
20
25.748274
11
69.437118
21
25.634396
0
LINE
8
Layer 1
10
69.437118
20
25.634396
11
69.769059
21
25.600045
0
LINE
8
Layer 1
10
69.769059
20
25.600045
11
70.062031
21
25.656592
0
LINE
8
Layer 1
10
70.062031
20
25.656592
11
69.939569
21
25.770552
0
LINE
8
Layer 1
10
69.939569
20
25.770552
11
69.939569
21
25.770552
 0 
ENDSEC
 0 
EOF
