  0
SECTION
  2
HEADER
  9
$ACADVER
  1
AC1009
  9
$DWGCODEPAGE
  3
ansi_1252
  9
$INSBASE
 10
0.0
 20
0.0
 30
0.0
  9
$EXTMIN
 10
49.45897
 20
70.13049990509612
 30
0.0
  9
$EXTMAX
 10
195.2919875115096
 20
253.6092871154041
 30
0.0
  9
$LIMMIN
 10
0.0
 20
0.0
  9
$LIMMAX
 10
12.0
 20
9.0
  9
$ORTHOMODE
 70
     0
  9
$REGENMODE
 70
     1
  9
$FILLMODE
 70
     1
  9
$QTEXTMODE
 70
     0
  9
$MIRRTEXT
 70
     1
  9
$DRAGMODE
 70
     2
  9
$LTSCALE
 40
1.0
  9
$OSMODE
 70
    37
  9
$ATTMODE
 70
     1
  9
$TEXTSIZE
 40
0.2
  9
$TRACEWID
 40
0.05
  9
$TEXTSTYLE
  7
STANDARD
  9
$CLAYER
  8
0
  9
$CELTYPE
  6
BYBLOCK
  9
$CECOLOR
 62
   256
  9
$DIMSCALE
 40
1.0
  9
$DIMASZ
 40
0.18
  9
$DIMEXO
 40
0.0625
  9
$DIMDLI
 40
0.38
  9
$DIMRND
 40
0.0
  9
$DIMDLE
 40
0.0
  9
$DIMEXE
 40
0.18
  9
$DIMTP
 40
0.0
  9
$DIMTM
 40
0.0
  9
$DIMTXT
 40
0.18
  9
$DIMCEN
 40
0.09
  9
$DIMTSZ
 40
0.0
  9
$DIMTOL
 70
     0
  9
$DIMLIM
 70
     0
  9
$DIMTIH
 70
     1
  9
$DIMTOH
 70
     1
  9
$DIMSE1
 70
     0
  9
$DIMSE2
 70
     0
  9
$DIMTAD
 70
     0
  9
$DIMZIN
 70
     0
  9
$DIMBLK
  1

  9
$DIMASO
 70
     1
  9
$DIMSHO
 70
     1
  9
$DIMPOST
  1

  9
$DIMAPOST
  1

  9
$DIMALT
 70
     0
  9
$DIMALTD
 70
     2
  9
$DIMALTF
 40
25.4
  9
$DIMLFAC
 40
1.0
  9
$DIMTOFL
 70
     0
  9
$DIMTVP
 40
0.0
  9
$DIMTIX
 70
     0
  9
$DIMSOXD
 70
     0
  9
$DIMSAH
 70
     0
  9
$DIMBLK1
  1

  9
$DIMBLK2
  1

  9
$DIMSTYLE
  2
STANDARD
  9
$DIMCLRD
 70
     0
  9
$DIMCLRE
 70
     0
  9
$DIMCLRT
 70
     0
  9
$DIMTFAC
 40
1.0
  9
$DIMGAP
 40
0.09
  9
$LUNITS
 70
     2
  9
$LUPREC
 70
     4
  9
$SKETCHINC
 40
0.1
  9
$FILLETRAD
 40
0.5
  9
$AUNITS
 70
     0
  9
$AUPREC
 70
     0
  9
$MENU
  1
.
  9
$ELEVATION
 40
0.0
  9
$PELEVATION
 40
0.0
  9
$THICKNESS
 40
0.0
  9
$LIMCHECK
 70
     0
  9
$CHAMFERA
 40
0.5
  9
$CHAMFERB
 40
0.5
  9
$SKPOLY
 70
     0
  9
$TDCREATE
 40
2453353.550459155
  9
$TDUPDATE
 40
4909889.877014815
  9
$TDINDWG
 40
4895786.051922963
  9
$TDUSRTIMER
 40
4895786.051922963
  9
$USRTIMER
 70
     1
  9
$ANGBASE
 50
0.0
  9
$ANGDIR
 70
     0
  9
$PDMODE
 70
     0
  9
$PDSIZE
 40
0.0
  9
$PLINEWID
 40
0.0
  9
$COORDS
 70
     1
  9
$SPLFRAME
 70
     0
  9
$SPLINETYPE
 70
     6
  9
$SPLINESEGS
 70
     8
  9
$ATTDIA
 70
     0
  9
$ATTREQ
 70
     1
  9
$HANDLING
 70
     1
  9
$HANDSEED
  5
406
  9
$SURFTAB1
 70
     6
  9
$SURFTAB2
 70
     6
  9
$SURFTYPE
 70
     6
  9
$SURFU
 70
     6
  9
$SURFV
 70
     6
  9
$UCSNAME
  2

  9
$UCSORG
 10
0.0
 20
0.0
 30
0.0
  9
$UCSXDIR
 10
1.0
 20
0.0
 30
0.0
  9
$UCSYDIR
 10
0.0
 20
1.0
 30
0.0
  9
$PUCSNAME
  2

  9
$PUCSORG
 10
0.0
 20
0.0
 30
0.0
  9
$PUCSXDIR
 10
1.0
 20
0.0
 30
0.0
  9
$PUCSYDIR
 10
0.0
 20
1.0
 30
0.0
  9
$USERI1
 70
     0
  9
$USERI2
 70
     0
  9
$USERI3
 70
     0
  9
$USERI4
 70
     0
  9
$USERI5
 70
     0
  9
$USERR1
 40
0.0
  9
$USERR2
 40
0.0
  9
$USERR3
 40
0.0
  9
$USERR4
 40
0.0
  9
$USERR5
 40
0.0
  9
$WORLDVIEW
 70
     1
  9
$SHADEDGE
 70
     3
  9
$SHADEDIF
 70
    70
  9
$TILEMODE
 70
     1
  9
$MAXACTVP
 70
    64
  9
$PLIMCHECK
 70
     0
  9
$PEXTMIN
 10
0.0
 20
0.0
 30
0.0
  9
$PEXTMAX
 10
0.0
 20
0.0
 30
0.0
  9
$PLIMMIN
 10
0.0
 20
0.0
  9
$PLIMMAX
 10
0.0
 20
0.0
  9
$UNITMODE
 70
     0
  9
$VISRETAIN
 70
     1
  9
$PLINEGEN
 70
     0
  9
$PSLTSCALE
 70
     1
  0
ENDSEC
  0
SECTION
  2
TABLES
  0
TABLE
  2
VPORT
 70
     1
  0
VPORT
  2
*ACTIVE
 70
     0
 10
0.0
 20
0.0
 11
1.0
 21
1.0
 12
103.9481250603252
 22
162.1435224163383
 13
0.0
 23
0.0
 14
0.5
 24
0.5
 15
0.5
 25
0.5
 16
0.0
 26
0.0
 36
1.0
 17
0.0
 27
0.0
 37
0.0
 40
186.8990003953838
 41
1.972972972850329
 42
50.0
 43
0.0
 44
0.0
 50
0.0
 51
0.0
 71
    16
 72
   100
 73
     1
 74
     3
 75
     0
 76
     0
 77
     0
 78
     0
  0
ENDTAB
  0
TABLE
  2
LTYPE
 70
     1
  0
LTYPE
  2
CONTINUOUS
 70
     0
  3
Solid line
 72
    65
 73
     0
 40
0.0
  0
ENDTAB
  0
TABLE
  2
LAYER
 70
     2
  0
LAYER
  2
0
 70
     0
 62
     7
  6
CONTINUOUS
  0
LAYER
  2
LAYER_1
 70
     0
 62
     7
  6
CONTINUOUS
  0
ENDTAB
  0
TABLE
  2
STYLE
 70
     1
  0
STYLE
  2
STANDARD
 70
     0
 40
0.0
 41
1.0
 50
0.0
 71
     0
 42
0.2
  3
txt
  4

  0
ENDTAB
  0
TABLE
  2
VIEW
 70
     0
  0
ENDTAB
  0
TABLE
  2
UCS
 70
     0
  0
ENDTAB
  0
TABLE
  2
APPID
 70
     1
  0
APPID
  2
ACAD
 70
     0
  0
ENDTAB
  0
TABLE
  2
DIMSTYLE
 70
     1
  0
DIMSTYLE
  2
STANDARD
 70
     0
  3

  4

  5

  6

  7

 40
1.0
 41
0.18
 42
0.0625
 43
0.38
 44
0.18
 45
0.0
 46
0.0
 47
0.0
 48
0.0
140
0.18
141
0.09
142
0.0
143
25.4
144
1.0
145
0.0
146
1.0
147
0.09
 71
     0
 72
     0
 73
     1
 74
     1
 75
     0
 76
     0
 77
     0
 78
     0
170
     0
171
     2
172
     0
173
     0
174
     0
175
     0
176
     0
177
     0
178
     0
  0
ENDTAB
  0
ENDSEC
  0
SECTION
  2
BLOCKS
  0
BLOCK
  8
0
  2
$MODEL_SPACE
 70
     0
 10
0.0
 20
0.0
 30
0.0
  3
$MODEL_SPACE
  1

  0
ENDBLK
  5
21
  8
0
  0
BLOCK
 67
     1
  8
0
  2
$PAPER_SPACE
 70
     0
 10
0.0
 20
0.0
 30
0.0
  3
$PAPER_SPACE
  1

  0
ENDBLK
  5
76
 67
     1
  8
0
  0
ENDSEC
  0
SECTION
  2
ENTITIES
  0
LINE
  5
41
  8
LAYER_1
 62
     2
 10
76.18071490505044
 20
76.79435600961587
 30
0.0
 11
68.734566
 21
76.331951
 31
0.0
  0
LINE
  5
42
  8
LAYER_1
 62
     2
 10
68.734566
 20
76.331951
 30
0.0
 11
64.290183
 21
76.25837900000001
 31
0.0
  0
LINE
  5
43
  8
LAYER_1
 62
     2
 10
64.290183
 20
76.25837900000001
 30
0.0
 11
60.665997
 21
76.129915
 31
0.0
  0
LINE
  5
44
  8
LAYER_1
 62
     2
 10
60.665997
 20
76.129915
 30
0.0
 11
58.292292
 21
76.21186299999999
 31
0.0
  0
LINE
  5
45
  8
LAYER_1
 62
     2
 10
58.292292
 20
76.21186299999999
 30
0.0
 11
56.559438
 21
76.56947700000001
 31
0.0
  0
LINE
  5
46
  8
LAYER_1
 62
     2
 10
56.559438
 20
76.56947700000001
 30
0.0
 11
54.857805
 21
77.268012
 31
0.0
  0
LINE
  5
47
  8
LAYER_1
 62
     2
 10
54.857805
 20
77.268012
 30
0.0
 11
53.483986
 21
77.988454
 31
0.0
  0
LINE
  5
48
  8
LAYER_1
 62
     2
 10
53.483986
 20
77.988454
 30
0.0
 11
52.660044
 21
78.635409
 31
0.0
  0
LINE
  5
49
  8
LAYER_1
 62
     2
 10
52.660044
 20
78.635409
 30
0.0
 11
52.291379
 21
79.31402799999999
 31
0.0
  0
LINE
  5
4A
  8
LAYER_1
 62
     2
 10
52.291379
 20
79.31402799999999
 30
0.0
 11
52.283388
 21
80.129458
 31
0.0
  0
LINE
  5
4B
  8
LAYER_1
 62
     2
 10
52.283388
 20
80.129458
 30
0.0
 11
52.53167
 21
80.914248
 31
0.0
  0
LINE
  5
4C
  8
LAYER_1
 62
     2
 10
52.53167
 20
80.914248
 30
0.0
 11
53.038059
 21
81.563621
 31
0.0
  0
LINE
  5
4D
  8
LAYER_1
 62
     2
 10
53.038059
 20
81.563621
 30
0.0
 11
53.838272
 21
82.087216
 31
0.0
  0
LINE
  5
4E
  8
LAYER_1
 62
     2
 10
53.838272
 20
82.087216
 30
0.0
 11
54.968023
 21
82.49467199999999
 31
0.0
  0
LINE
  5
4F
  8
LAYER_1
 62
     2
 10
54.968023
 20
82.49467199999999
 30
0.0
 11
56.463029
 21
82.79563
 31
0.0
  0
LINE
  5
50
  8
LAYER_1
 62
     2
 10
56.463029
 20
82.79563
 30
0.0
 11
58.359004
 21
82.99972800000001
 31
0.0
  0
LINE
  5
51
  8
LAYER_1
 62
     2
 10
58.359004
 20
82.99972800000001
 30
0.0
 11
63.496726
 21
83.15590400000001
 31
0.0
  0
LINE
  5
52
  8
LAYER_1
 62
     2
 10
63.496726
 20
83.15590400000001
 30
0.0
 11
67.66651391506082
 21
83.29792734487626
 31
0.0
  0
LINE
  5
3F7
  8
LAYER_1
 62
     2
 10
73.13490485519009
 20
92.19995910787741
 30
0.0
 11
72.724851
 21
93.427145
 31
0.0
  0
LINE
  5
3F8
  8
LAYER_1
 62
     2
 10
72.724851
 20
93.427145
 30
0.0
 11
71.330865
 21
96.74352500000001
 31
0.0
  0
LINE
  5
3F9
  8
LAYER_1
 62
     2
 10
71.330865
 20
96.74352500000001
 30
0.0
 11
68.782636
 21
101.301952
 31
0.0
  0
LINE
  5
3FA
  8
LAYER_1
 62
     2
 10
68.782636
 20
101.301952
 30
0.0
 11
67.126486
 21
104.151904
 31
0.0
  0
LINE
  5
77
  8
LAYER_1
 62
     2
 10
67.126486
 20
104.151904
 30
0.0
 11
65.844048
 21
106.661506
 31
0.0
  0
LINE
  5
78
  8
LAYER_1
 62
     2
 10
65.844048
 20
106.661506
 30
0.0
 11
64.917957
 21
108.913496
 31
0.0
  0
LINE
  5
79
  8
LAYER_1
 62
     2
 10
64.917957
 20
108.913496
 30
0.0
 11
64.330844
 21
110.990615
 31
0.0
  0
LINE
  5
7A
  8
LAYER_1
 62
     2
 10
64.330844
 20
110.990615
 30
0.0
 11
64.065344
 21
112.975603
 31
0.0
  0
LINE
  5
7B
  8
LAYER_1
 62
     2
 10
64.065344
 20
112.975603
 30
0.0
 11
63.97678848741467
 21
115.181238033902
 31
0.0
  0
LINE
  5
8E
  8
LAYER_1
 62
     2
 10
70.789001
 20
131.217841
 30
0.0
 11
71.65966400000001
 21
132.945691
 31
0.0
  0
LINE
  5
8F
  8
LAYER_1
 62
     2
 10
71.65966400000001
 20
132.945691
 30
0.0
 11
72.287374
 21
134.57551
 31
0.0
  0
LINE
  5
90
  8
LAYER_1
 62
     2
 10
72.287374
 20
134.57551
 30
0.0
 11
72.67333000000001
 21
136.188854
 31
0.0
  0
LINE
  5
91
  8
LAYER_1
 62
     2
 10
72.67333000000001
 20
136.188854
 30
0.0
 11
72.818727
 21
137.867278
 31
0.0
  0
LINE
  5
3FB
  8
LAYER_1
 62
     2
 10
72.818727
 20
137.867278
 30
0.0
 11
72.72476500000001
 21
139.692338
 31
0.0
  0
LINE
  5
3FC
  8
LAYER_1
 62
     2
 10
72.72476500000001
 20
139.692338
 30
0.0
 11
72.392639
 21
141.745591
 31
0.0
  0
LINE
  5
94
  8
LAYER_1
 62
     2
 10
72.392639
 20
141.745591
 30
0.0
 11
71.018688
 21
146.8629
 31
0.0
  0
LINE
  5
95
  8
LAYER_1
 62
     2
 10
71.018688
 20
146.8629
 30
0.0
 11
70.248797
 21
149.603653
 31
0.0
  0
LINE
  5
96
  8
LAYER_1
 62
     2
 10
70.248797
 20
149.603653
 30
0.0
 11
69.994647
 21
151.927541
 31
0.0
  0
LINE
  5
3FD
  8
LAYER_1
 62
     2
 10
69.994647
 20
151.927541
 30
0.0
 11
70.258168
 21
154.933016
 31
0.0
  0
LINE
  5
3FE
  8
LAYER_1
 62
     2
 10
70.258168
 20
154.933016
 30
0.0
 11
71.04129399999999
 21
159.718532
 31
0.0
  0
LINE
  5
99
  8
LAYER_1
 62
     2
 10
71.04129399999999
 20
159.718532
 30
0.0
 11
71.84320099999999
 21
165.042621
 31
0.0
  0
LINE
  5
9A
  8
LAYER_1
 62
     2
 10
71.84320099999999
 20
165.042621
 30
0.0
 11
71.961845
 21
166.826584
 31
0.0
  0
LINE
  5
9B
  8
LAYER_1
 62
     2
 10
71.961845
 20
166.826584
 30
0.0
 11
71.873037
 21
168.13169
 31
0.0
  0
LINE
  5
9C
  8
LAYER_1
 62
     2
 10
71.873037
 20
168.13169
 30
0.0
 11
71.562341
 21
169.037834
 31
0.0
  0
LINE
  5
9D
  8
LAYER_1
 62
     2
 10
71.562341
 20
169.037834
 30
0.0
 11
71.01532400000001
 21
169.624913
 31
0.0
  0
LINE
  5
9E
  8
LAYER_1
 62
     2
 10
71.01532400000001
 20
169.624913
 30
0.0
 11
70.21754900000001
 21
169.972826
 31
0.0
  0
LINE
  5
9F
  8
LAYER_1
 62
     2
 10
70.21754900000001
 20
169.972826
 30
0.0
 11
69.15458200000001
 21
170.161468
 31
0.0
  0
LINE
  5
A0
  8
LAYER_1
 62
     2
 10
69.15458200000001
 20
170.161468
 30
0.0
 11
67.800169
 21
170.111191
 31
0.0
  0
LINE
  5
A1
  8
LAYER_1
 62
     2
 10
67.800169
 20
170.111191
 30
0.0
 11
66.47734
 21
169.666871
 31
0.0
  0
LINE
  5
A2
  8
LAYER_1
 62
     2
 10
66.47734
 20
169.666871
 30
0.0
 11
65.20531200000001
 21
168.850591
 31
0.0
  0
LINE
  5
A3
  8
LAYER_1
 62
     2
 10
65.20531200000001
 20
168.850591
 30
0.0
 11
64.00330099999999
 21
167.684434
 31
0.0
  0
LINE
  5
A4
  8
LAYER_1
 62
     2
 10
64.00330099999999
 20
167.684434
 30
0.0
 11
62.890524
 21
166.190483
 31
0.0
  0
LINE
  5
A5
  8
LAYER_1
 62
     2
 10
62.890524
 20
166.190483
 30
0.0
 11
61.886198
 21
164.390822
 31
0.0
  0
LINE
  5
A6
  8
LAYER_1
 62
     2
 10
61.886198
 20
164.390822
 30
0.0
 11
61.009539
 21
162.307534
 31
0.0
  0
LINE
  5
A7
  8
LAYER_1
 62
     2
 10
61.009539
 20
162.307534
 30
0.0
 11
60.279763
 21
159.962702
 31
0.0
  0
LINE
  5
A8
  8
LAYER_1
 62
     2
 10
60.279763
 20
159.962702
 30
0.0
 11
59.196509
 21
156.487579
 31
0.0
  0
LINE
  5
A9
  8
LAYER_1
 62
     2
 10
59.196509
 20
156.487579
 30
0.0
 11
57.985264
 21
153.865395
 31
0.0
  0
LINE
  5
AA
  8
LAYER_1
 62
     2
 10
57.985264
 20
153.865395
 30
0.0
 11
57.317765
 21
152.850258
 31
0.0
  0
LINE
  5
AB
  8
LAYER_1
 62
     2
 10
57.317765
 20
152.850258
 30
0.0
 11
56.601614
 21
152.019679
 31
0.0
  0
LINE
  5
AC
  8
LAYER_1
 62
     2
 10
56.601614
 20
152.019679
 30
0.0
 11
55.831259
 21
151.364101
 31
0.0
  0
LINE
  5
AD
  8
LAYER_1
 62
     2
 10
55.831259
 20
151.364101
 30
0.0
 11
55.001149
 21
150.873964
 31
0.0
  0
LINE
  5
AE
  8
LAYER_1
 62
     2
 10
55.001149
 20
150.873964
 30
0.0
 11
54.133709
 21
150.548482
 31
0.0
  0
LINE
  5
AF
  8
LAYER_1
 62
     2
 10
54.133709
 20
150.548482
 30
0.0
 11
53.382429
 21
150.545159
 31
0.0
  0
LINE
  5
B0
  8
LAYER_1
 62
     2
 10
53.382429
 20
150.545159
 30
0.0
 11
52.552898
 21
150.908237
 31
0.0
  0
LINE
  5
B1
  8
LAYER_1
 62
     2
 10
52.552898
 20
150.908237
 30
0.0
 11
51.450708
 21
151.681957
 31
0.0
  0
LINE
  5
B2
  8
LAYER_1
 62
     2
 10
51.450708
 20
151.681957
 30
0.0
 11
50.39736
 21
152.610989
 31
0.0
  0
LINE
  5
B3
  8
LAYER_1
 62
     2
 10
50.39736
 20
152.610989
 30
0.0
 11
49.789574
 21
153.591262
 31
0.0
  0
LINE
  5
B4
  8
LAYER_1
 62
     2
 10
49.789574
 20
153.591262
 30
0.0
 11
49.514421
 21
154.917828
 31
0.0
  0
LINE
  5
B5
  8
LAYER_1
 62
     2
 10
49.514421
 20
154.917828
 30
0.0
 11
49.45897
 21
156.88574
 31
0.0
  0
LINE
  5
B6
  8
LAYER_1
 62
     2
 10
49.45897
 20
156.88574
 30
0.0
 11
49.686016
 21
160.435561
 31
0.0
  0
LINE
  5
B7
  8
LAYER_1
 62
     2
 10
49.686016
 20
160.435561
 30
0.0
 11
50.312122
 21
163.874786
 31
0.0
  0
LINE
  5
B8
  8
LAYER_1
 62
     2
 10
50.312122
 20
163.874786
 30
0.0
 11
51.33058
 21
167.190345
 31
0.0
  0
LINE
  5
B9
  8
LAYER_1
 62
     2
 10
51.33058
 20
167.190345
 30
0.0
 11
52.73468
 21
170.36917
 31
0.0
  0
LINE
  5
BA
  8
LAYER_1
 62
     2
 10
52.73468
 20
170.36917
 30
0.0
 11
54.517712
 21
173.398192
 31
0.0
  0
LINE
  5
BB
  8
LAYER_1
 62
     2
 10
54.517712
 20
173.398192
 30
0.0
 11
56.672968
 21
176.264343
 31
0.0
  0
LINE
  5
BC
  8
LAYER_1
 62
     2
 10
56.672968
 20
176.264343
 30
0.0
 11
59.193737
 21
178.954552
 31
0.0
  0
LINE
  5
BD
  8
LAYER_1
 62
     2
 10
59.193737
 20
178.954552
 30
0.0
 11
62.07331
 21
181.455753
 31
0.0
  0
LINE
  5
BE
  8
LAYER_1
 62
     2
 10
62.07331
 20
181.455753
 30
0.0
 11
66.07454199999999
 21
184.883381
 31
0.0
  0
LINE
  5
BF
  8
LAYER_1
 62
     2
 10
66.07454199999999
 20
184.883381
 30
0.0
 11
67.360625
 21
186.200461
 31
0.0
  0
LINE
  5
C0
  8
LAYER_1
 62
     2
 10
67.360625
 20
186.200461
 30
0.0
 11
67.914788
 21
187.010053
 31
0.0
  0
LINE
  5
C1
  8
LAYER_1
 62
     2
 10
67.914788
 20
187.010053
 30
0.0
 11
69.174848
 21
195.150259
 31
0.0
  0
LINE
  5
C2
  8
LAYER_1
 62
     2
 10
69.174848
 20
195.150259
 30
0.0
 11
69.74791063504213
 21
198.8055776298363
 31
0.0
  0
LINE
  5
DB
  8
LAYER_1
 62
     2
 10
80.80626114212068
 20
218.2910917427093
 30
0.0
 11
82.27119999999999
 21
218.581709
 31
0.0
  0
LINE
  5
DC
  8
LAYER_1
 62
     2
 10
82.27119999999999
 20
218.581709
 30
0.0
 11
83.509846
 21
218.617358
 31
0.0
  0
LINE
  5
DD
  8
LAYER_1
 62
     2
 10
83.509846
 20
218.617358
 30
0.0
 11
84.198026
 21
218.575835
 31
0.0
  0
LINE
  5
DE
  8
LAYER_1
 62
     2
 10
84.198026
 20
218.575835
 30
0.0
 11
84.638673
 21
218.669389
 31
0.0
  0
LINE
  5
DF
  8
LAYER_1
 62
     2
 10
84.638673
 20
218.669389
 30
0.0
 11
84.842742
 21
218.87151
 31
0.0
  0
LINE
  5
E0
  8
LAYER_1
 62
     2
 10
84.842742
 20
218.87151
 30
0.0
 11
84.821187
 21
219.155686
 31
0.0
  0
LINE
  5
E1
  8
LAYER_1
 62
     2
 10
84.821187
 20
219.155686
 30
0.0
 11
84.14502
 21
219.864156
 31
0.0
  0
LINE
  5
E2
  8
LAYER_1
 62
     2
 10
84.14502
 20
219.864156
 30
0.0
 11
82.69780299999999
 21
220.582709
 31
0.0
  0
LINE
  5
E3
  8
LAYER_1
 62
     2
 10
82.69780299999999
 20
220.582709
 30
0.0
 11
81.38717800000001
 21
221.147204
 31
0.0
  0
LINE
  5
E4
  8
LAYER_1
 62
     2
 10
81.38717800000001
 20
221.147204
 30
0.0
 11
80.491642
 21
221.784482
 31
0.0
  0
LINE
  5
E5
  8
LAYER_1
 62
     2
 10
80.491642
 20
221.784482
 30
0.0
 11
79.906741
 21
222.596825
 31
0.0
  0
LINE
  5
E6
  8
LAYER_1
 62
     2
 10
79.906741
 20
222.596825
 30
0.0
 11
79.528018
 21
223.686512
 31
0.0
  0
LINE
  5
E7
  8
LAYER_1
 62
     2
 10
79.528018
 20
223.686512
 30
0.0
 11
79.190181
 21
224.740098
 31
0.0
  0
LINE
  5
E8
  8
LAYER_1
 62
     2
 10
79.190181
 20
224.740098
 30
0.0
 11
78.71907400000001
 21
225.725698
 31
0.0
  0
LINE
  5
E9
  8
LAYER_1
 62
     2
 10
78.71907400000001
 20
225.725698
 30
0.0
 11
77.437063
 21
227.432082
 31
0.0
  0
LINE
  5
EA
  8
LAYER_1
 62
     2
 10
77.437063
 20
227.432082
 30
0.0
 11
75.802018
 21
228.683938
 31
0.0
  0
LINE
  5
EB
  8
LAYER_1
 62
     2
 10
75.802018
 20
228.683938
 30
0.0
 11
74.889618
 21
229.101379
 31
0.0
  0
LINE
  5
EC
  8
LAYER_1
 62
     2
 10
74.889618
 20
229.101379
 30
0.0
 11
73.93397
 21
229.35954
 31
0.0
  0
LINE
  5
ED
  8
LAYER_1
 62
     2
 10
73.93397
 20
229.35954
 30
0.0
 11
68.820759
 21
230.377342
 31
0.0
  0
LINE
  5
EE
  8
LAYER_1
 62
     2
 10
68.820759
 20
230.377342
 30
0.0
 11
65.393259
 21
231.400075
 31
0.0
  0
LINE
  5
EF
  8
LAYER_1
 62
     2
 10
65.393259
 20
231.400075
 30
0.0
 11
64.10887200000001
 21
231.993723
 31
0.0
  0
LINE
  5
F0
  8
LAYER_1
 62
     2
 10
64.10887200000001
 20
231.993723
 30
0.0
 11
63.002578
 21
232.685122
 31
0.0
  0
LINE
  5
F1
  8
LAYER_1
 62
     2
 10
63.002578
 20
232.685122
 30
0.0
 11
60.999824
 21
234.489866
 31
0.0
  0
LINE
  5
F2
  8
LAYER_1
 62
     2
 10
60.999824
 20
234.489866
 30
0.0
 11
59.096196
 21
236.740047
 31
0.0
  0
LINE
  5
F3
  8
LAYER_1
 62
     2
 10
59.096196
 20
236.740047
 30
0.0
 11
58.517106
 21
237.602599
 31
0.0
  0
LINE
  5
F4
  8
LAYER_1
 62
     2
 10
58.517106
 20
237.602599
 30
0.0
 11
58.304422
 21
238.130832
 31
0.0
  0
LINE
  5
F5
  8
LAYER_1
 62
     2
 10
58.304422
 20
238.130832
 30
0.0
 11
58.436711
 21
238.565451
 31
0.0
  0
LINE
  5
F6
  8
LAYER_1
 62
     2
 10
58.436711
 20
238.565451
 30
0.0
 11
58.810988
 21
239.059198
 31
0.0
  0
LINE
  5
F7
  8
LAYER_1
 62
     2
 10
58.810988
 20
239.059198
 30
0.0
 11
60.149959
 21
240.135271
 31
0.0
  0
LINE
  5
F8
  8
LAYER_1
 62
     2
 10
60.149959
 20
240.135271
 30
0.0
 11
62.05024
 21
241.181442
 31
0.0
  0
LINE
  5
F9
  8
LAYER_1
 62
     2
 10
62.05024
 20
241.181442
 30
0.0
 11
64.240737
 21
242.0201
 31
0.0
  0
LINE
  5
FA
  8
LAYER_1
 62
     2
 10
64.240737
 20
242.0201
 30
0.0
 11
67.013701
 21
243.287734
 31
0.0
  0
LINE
  5
FB
  8
LAYER_1
 62
     2
 10
67.013701
 20
243.287734
 30
0.0
 11
70.21914700000001
 21
245.293731
 31
0.0
  0
LINE
  5
FC
  8
LAYER_1
 62
     2
 10
70.21914700000001
 20
245.293731
 30
0.0
 11
72.700503
 21
246.979473
 31
0.0
  0
LINE
  5
FD
  8
LAYER_1
 62
     2
 10
72.700503
 20
246.979473
 30
0.0
 11
73.73257099999999
 21
247.477123
 31
0.0
  0
LINE
  5
FE
  8
LAYER_1
 62
     2
 10
73.73257099999999
 20
247.477123
 30
0.0
 11
74.015822
 21
247.513966
 31
0.0
  0
LINE
  5
FF
  8
LAYER_1
 62
     2
 10
74.015822
 20
247.513966
 30
0.0
 11
74.696831
 21
248.091803
 31
0.0
  0
LINE
  5
100
  8
LAYER_1
 62
     2
 10
74.696831
 20
248.091803
 30
0.0
 11
75.57566799999999
 21
248.72913
 31
0.0
  0
LINE
  5
101
  8
LAYER_1
 62
     2
 10
75.57566799999999
 20
248.72913
 30
0.0
 11
76.871959
 21
249.343125
 31
0.0
  0
LINE
  5
102
  8
LAYER_1
 62
     2
 10
76.871959
 20
249.343125
 30
0.0
 11
80.396863
 21
250.425116
 31
0.0
  0
LINE
  5
103
  8
LAYER_1
 62
     2
 10
80.396863
 20
250.425116
 30
0.0
 11
84.63146500000001
 21
251.185776
 31
0.0
  0
LINE
  5
104
  8
LAYER_1
 62
     2
 10
84.63146500000001
 20
251.185776
 30
0.0
 11
88.935684
 21
251.473108
 31
0.0
  0
LINE
  5
105
  8
LAYER_1
 62
     2
 10
88.935684
 20
251.473108
 30
0.0
 11
91.41251699999999
 21
251.52673
 31
0.0
  0
LINE
  5
106
  8
LAYER_1
 62
     2
 10
91.41251699999999
 20
251.52673
 30
0.0
 11
93.24775800000001
 21
251.701923
 31
0.0
  0
LINE
  5
107
  8
LAYER_1
 62
     2
 10
93.24775800000001
 20
251.701923
 30
0.0
 11
94.579309
 21
252.020173
 31
0.0
  0
LINE
  5
108
  8
LAYER_1
 62
     2
 10
94.579309
 20
252.020173
 30
0.0
 11
99.14087967626958
 21
253.0647051812846
 31
0.0
  0
LINE
  5
10D
  8
LAYER_1
 62
     2
 10
99.14087967626958
 20
253.0647051812846
 30
0.0
 11
103.2954891886164
 21
253.6092871154041
 31
0.0
  0
LINE
  5
10E
  8
LAYER_1
 62
     2
 10
103.2954891886164
 20
253.6092871154041
 30
0.0
 11
105.3175039187372
 21
253.3382954505425
 31
0.0
  0
LINE
  5
10F
  8
LAYER_1
 62
     2
 10
105.3175039187372
 20
253.3382954505425
 30
0.0
 11
106.936909
 21
252.769242
 31
0.0
  0
LINE
  5
110
  8
LAYER_1
 62
     2
 10
106.936909
 20
252.769242
 30
0.0
 11
108.175891
 21
251.946592
 31
0.0
  0
LINE
  5
111
  8
LAYER_1
 62
     2
 10
108.175891
 20
251.946592
 30
0.0
 11
109.165548
 21
251.078396
 31
0.0
  0
LINE
  5
112
  8
LAYER_1
 62
     2
 10
109.165548
 20
251.078396
 30
0.0
 11
109.789391
 21
250.220859
 31
0.0
  0
LINE
  5
113
  8
LAYER_1
 62
     2
 10
109.789391
 20
250.220859
 30
0.0
 11
110.0124931169206
 21
248.3301230617561
 31
0.0
  0
LINE
  5
116
  8
LAYER_1
 62
     2
 10
109.8389379867985
 20
243.2536355056832
 30
0.0
 11
109.694575
 21
238.457013
 31
0.0
  0
LINE
  5
117
  8
LAYER_1
 62
     2
 10
109.694575
 20
238.457013
 30
0.0
 11
108.878545
 21
234.799176
 31
0.0
  0
LINE
  5
118
  8
LAYER_1
 62
     2
 10
108.878545
 20
234.799176
 30
0.0
 11
107.700397
 21
230.750739
 31
0.0
  0
LINE
  5
119
  8
LAYER_1
 62
     2
 10
107.700397
 20
230.750739
 30
0.0
 11
106.8803688265597
 21
227.3632350180822
 31
0.0
  0
LINE
  5
15F
  8
LAYER_1
 62
     2
 10
107.4068005248014
 20
215.8945444492449
 30
0.0
 11
108.816592
 21
210.572958
 31
0.0
  0
LINE
  5
160
  8
LAYER_1
 62
     2
 10
108.816592
 20
210.572958
 30
0.0
 11
109.804785
 21
205.899693
 31
0.0
  0
LINE
  5
161
  8
LAYER_1
 62
     2
 10
109.804785
 20
205.899693
 30
0.0
 11
110.903957
 21
199.651281
 31
0.0
  0
LINE
  5
162
  8
LAYER_1
 62
     2
 10
110.903957
 20
199.651281
 30
0.0
 11
113.199634
 21
184.172343
 31
0.0
  0
LINE
  5
163
  8
LAYER_1
 62
     2
 10
113.199634
 20
184.172343
 30
0.0
 11
115.232419
 21
167.622798
 31
0.0
  0
LINE
  5
164
  8
LAYER_1
 62
     2
 10
115.232419
 20
167.622798
 30
0.0
 11
116.002976
 21
160.036126
 31
0.0
  0
LINE
  5
165
  8
LAYER_1
 62
     2
 10
116.002976
 20
160.036126
 30
0.0
 11
116.531108
 21
153.489297
 31
0.0
  0
LINE
  5
166
  8
LAYER_1
 62
     2
 10
116.531108
 20
153.489297
 30
0.0
 11
116.785681
 21
150.745461
 31
0.0
  0
LINE
  5
167
  8
LAYER_1
 62
     2
 10
116.785681
 20
150.745461
 30
0.0
 11
117.151118
 21
148.334115
 31
0.0
  0
LINE
  5
168
  8
LAYER_1
 62
     2
 10
117.151118
 20
148.334115
 30
0.0
 11
117.4698517435617
 21
145.6094919010998
 31
0.0
  0
LINE
  5
27B
  8
LAYER_1
 62
     2
 10
104.4286789088457
 20
84.46433299077881
 30
0.0
 11
99.004772
 21
76.907939
 31
0.0
  0
LINE
  5
27C
  8
LAYER_1
 62
     2
 10
99.004772
 20
76.907939
 30
0.0
 11
97.645357
 21
75.626278
 31
0.0
  0
LINE
  5
27D
  8
LAYER_1
 62
     2
 10
97.645357
 20
75.626278
 30
0.0
 11
96.26932100000001
 21
74.539835
 31
0.0
  0
LINE
  5
27E
  8
LAYER_1
 62
     2
 10
96.26932100000001
 20
74.539835
 30
0.0
 11
94.880904
 21
73.65163800000001
 31
0.0
  0
LINE
  5
2AA
  8
LAYER_1
 62
     2
 10
89.750202
 20
79.61499600000001
 30
0.0
 11
91.360407
 21
81.311538
 31
0.0
  0
LINE
  5
2AB
  8
LAYER_1
 62
     2
 10
91.360407
 20
81.311538
 30
0.0
 11
92.552142
 21
83.261819
 31
0.0
  0
LINE
  5
2AC
  8
LAYER_1
 62
     2
 10
92.552142
 20
83.261819
 30
0.0
 11
92.894942
 21
84.20698
 31
0.0
  0
LINE
  5
2AD
  8
LAYER_1
 62
     2
 10
92.894942
 20
84.20698
 30
0.0
 11
93.01775499999999
 21
85.065417
 31
0.0
  0
LINE
  5
2AE
  8
LAYER_1
 62
     2
 10
93.01775499999999
 20
85.065417
 30
0.0
 11
92.79159799999999
 21
85.96178500000001
 31
0.0
  0
LINE
  5
2AF
  8
LAYER_1
 62
     2
 10
92.79159799999999
 20
85.96178500000001
 30
0.0
 11
92.19466
 21
87.297265
 31
0.0
  0
LINE
  5
2B0
  8
LAYER_1
 62
     2
 10
92.19466
 20
87.297265
 30
0.0
 11
90.37764900000001
 21
90.50442700000001
 31
0.0
  0
LINE
  5
2B1
  8
LAYER_1
 62
     2
 10
90.37764900000001
 20
90.50442700000001
 30
0.0
 11
88.54513300000001
 21
93.12463
 31
0.0
  0
LINE
  5
2B2
  8
LAYER_1
 62
     2
 10
88.54513300000001
 20
93.12463
 30
0.0
 11
87.928814
 21
93.726411
 31
0.0
  0
LINE
  5
2B3
  8
LAYER_1
 62
     2
 10
87.928814
 20
93.726411
 30
0.0
 11
87.749146
 21
93.764785
 31
0.0
  0
LINE
  5
2B4
  8
LAYER_1
 62
     2
 10
87.749146
 20
93.764785
 30
0.0
 11
87.675522
 21
93.595601
 31
0.0
  0
LINE
  5
2B5
  8
LAYER_1
 62
     2
 10
87.675522
 20
93.595601
 30
0.0
 11
88.088031
 21
91.874189
 31
0.0
  0
LINE
  5
2B6
  8
LAYER_1
 62
     2
 10
88.088031
 20
91.874189
 30
0.0
 11
89.16072
 21
89.20231200000001
 31
0.0
  0
LINE
  5
2B7
  8
LAYER_1
 62
     2
 10
89.16072
 20
89.20231200000001
 30
0.0
 11
90.40396699999999
 21
86.037469
 31
0.0
  0
LINE
  5
2B8
  8
LAYER_1
 62
     2
 10
90.40396699999999
 20
86.037469
 30
0.0
 11
90.64109999999999
 21
84.821978
 31
0.0
  0
LINE
  5
2B9
  8
LAYER_1
 62
     2
 10
90.64109999999999
 20
84.821978
 30
0.0
 11
90.60869
 21
83.775012
 31
0.0
  0
LINE
  5
2BA
  8
LAYER_1
 62
     2
 10
90.60869
 20
83.775012
 30
0.0
 11
90.296829
 21
82.839502
 31
0.0
  0
LINE
  5
2BB
  8
LAYER_1
 62
     2
 10
90.296829
 20
82.839502
 30
0.0
 11
89.695604
 21
81.958377
 31
0.0
  0
LINE
  5
2BC
  8
LAYER_1
 62
     2
 10
89.695604
 20
81.958377
 30
0.0
 11
88.795106
 21
81.074567
 31
0.0
  0
LINE
  5
2BD
  8
LAYER_1
 62
     2
 10
88.795106
 20
81.074567
 30
0.0
 11
87.58542300000001
 21
80.131001
 31
0.0
  0
LINE
  5
2BE
  8
LAYER_1
 62
     2
 10
87.58542300000001
 20
80.131001
 30
0.0
 11
85.803442
 21
78.731538
 31
0.0
  0
LINE
  5
2BF
  8
LAYER_1
 62
     2
 10
85.803442
 20
78.731538
 30
0.0
 11
76.18071490505044
 21
76.79435600961587
 31
0.0
  0
ARC
  5
3C3
  8
0
  6
BYBLOCK
 62
     2
 10
118.2970337055626
 20
222.1408513284778
 30
0.0
 40
12.55442266139326
 50
155.4189784168242
 51
209.837272498328
  0
ARC
  5
3C6
  8
0
  6
BYBLOCK
 62
     2
 10
97.07737484600385
 20
196.1763112923657
 30
0.0
 40
27.45564888199866
 50
126.3440518000252
 51
174.5046982189764
  0
ARC
  5
3CE
  8
0
  6
BYBLOCK
 62
     2
 10
198.6105162388624
 20
155.7413228731384
 30
0.0
 40
81.7707859420765
 50
187.1175406697063
 51
265.9365953501327
  0
ARC
  5
3CF
  8
0
  6
BYBLOCK
 62
     2
 10
192.2906514363071
 20
150.2998644600813
 30
0.0
 40
80.17062315564336
 50
204.1469575344668
 51
270.3210513837047
  0
ARC
  5
3D0
  8
0
  6
BYBLOCK
 62
     2
 10
95.77777947200485
 20
108.2899068809604
 30
0.0
 40
25.34750544457654
 50
289.9556059019906
 51
22.85645770465089
  0
ARC
  5
3D1
  8
0
  6
BYBLOCK
 62
     2
 10
83.51960200643548
 20
93.10609601314084
 30
0.0
 40
22.49905718105922
 50
267.9843543470915
 51
300.9037171018929
  0
ARC
  5
3D3
  8
0
  6
BYBLOCK
 62
     2
 10
82.04642579918115
 20
86.83966283250608
 30
0.0
 40
10.62841746943491
 50
273.67814413595
 51
315.6755822047241
  0
ARC
  5
3D5
  8
0
  6
BYBLOCK
 62
     2
 10
82.62848417214188
 20
73.42704904227604
 30
0.0
 40
2.807862304699814
 50
87.96367454520177
 51
272.0363254547983
  0
ARC
  5
3D7
  8
0
  6
BYBLOCK
 62
     2
 10
89.49081132234849
 20
113.8814274739175
 30
0.0
 40
25.54711077036642
 50
137.7895092234086
 51
177.0835908339053
  0
ARC
  5
3DA
  8
0
  6
BYBLOCK
 62
     2
 10
66.60063757438368
 20
90.08327305297534
 30
0.0
 40
6.868552158354335
 50
278.9273575439796
 51
17.9490187727218
  0
ARC
  5
3DE
  8
0
  6
BYBLOCK
 62
     2
 10
193.3223583606897
 20
72.14302416224156
 30
0.0
 40
2.0951224053521
 50
253.8580754138069
 51
103.9800762128721
  0
ARC
  5
3E2
  8
0
  6
BYBLOCK
 62
     2
 10
111.7301340081314
 20
240.0893463706876
 30
0.0
 40
8.417879228357805
 50
73.40423816008421
 51
101.7737023466979
  0
ARC
  5
3E3
  8
0
  6
BYBLOCK
 62
     2
 10
108.3907279600874
 20
248.8555399614489
 30
0.0
 40
5.786073436536546
 50
284.4948137360771
 51
353.0615816782449
  0
CIRCLE
  5
3EA
  8
0
  6
BYBLOCK
 62
     1
 10
79.3275909429199
 20
245.0175445630219
 30
0.0
 40
2.171364420719822
  0
ENDSEC
  0
EOF
