  0
SECTION
  2
HEADER
  9
$ACADVER
  1
AC1024
  9
$ACADMAINTVER
 70
     6
  9
$DWGCODEPAGE
  3
ANSI_1251
  9
$INSBASE
 10
0.0
 20
0.0
 30
0.0
  9
$EXTMIN
 10
1.000000000000000E+20
 20
1.000000000000000E+20
 30
1.000000000000000E+20
  9
$EXTMAX
 10
-1.000000000000000E+20
 20
-1.000000000000000E+20
 30
-1.000000000000000E+20
  9
$LIMMIN
 10
0.0
 20
0.0
  9
$LIMMAX
 10
12.0
 20
9.0
  9
$ORTHOMODE
 70
     0
  9
$REGENMODE
 70
     1
  9
$FILLMODE
 70
     1
  9
$QTEXTMODE
 70
     0
  9
$MIRRTEXT
 70
     1
  9
$LTSCALE
 40
1.0
  9
$ATTMODE
 70
     1
  9
$TEXTSIZE
 40
0.2
  9
$TRACEWID
 40
0.05
  9
$TEXTSTYLE
  7
Standard
  9
$CLAYER
  8
0
  9
$CELTYPE
  6
ByLayer
  9
$CECOLOR
 62
   256
  9
$CELTSCALE
 40
1.0
  9
$DISPSILH
 70
     0
  9
$DIMSCALE
 40
1.0
  9
$DIMASZ
 40
0.18
  9
$DIMEXO
 40
0.0625
  9
$DIMDLI
 40
0.38
  9
$DIMRND
 40
0.0
  9
$DIMDLE
 40
0.0
  9
$DIMEXE
 40
0.18
  9
$DIMTP
 40
0.0
  9
$DIMTM
 40
0.0
  9
$DIMTXT
 40
0.18
  9
$DIMCEN
 40
0.09
  9
$DIMTSZ
 40
0.0
  9
$DIMTOL
 70
     0
  9
$DIMLIM
 70
     0
  9
$DIMTIH
 70
     1
  9
$DIMTOH
 70
     1
  9
$DIMSE1
 70
     0
  9
$DIMSE2
 70
     0
  9
$DIMTAD
 70
     0
  9
$DIMZIN
 70
     0
  9
$DIMBLK
  1

  9
$DIMASO
 70
     1
  9
$DIMSHO
 70
     1
  9
$DIMPOST
  1

  9
$DIMAPOST
  1

  9
$DIMALT
 70
     0
  9
$DIMALTD
 70
     2
  9
$DIMALTF
 40
25.4
  9
$DIMLFAC
 40
1.0
  9
$DIMTOFL
 70
     0
  9
$DIMTVP
 40
0.0
  9
$DIMTIX
 70
     0
  9
$DIMSOXD
 70
     0
  9
$DIMSAH
 70
     0
  9
$DIMBLK1
  1

  9
$DIMBLK2
  1

  9
$DIMSTYLE
  2
Standard
  9
$DIMCLRD
 70
     0
  9
$DIMCLRE
 70
     0
  9
$DIMCLRT
 70
     0
  9
$DIMTFAC
 40
1.0
  9
$DIMGAP
 40
0.09
  9
$DIMJUST
 70
     0
  9
$DIMSD1
 70
     0
  9
$DIMSD2
 70
     0
  9
$DIMTOLJ
 70
     1
  9
$DIMTZIN
 70
     0
  9
$DIMALTZ
 70
     0
  9
$DIMALTTZ
 70
     0
  9
$DIMUPT
 70
     0
  9
$DIMDEC
 70
     4
  9
$DIMTDEC
 70
     4
  9
$DIMALTU
 70
     2
  9
$DIMALTTD
 70
     2
  9
$DIMTXSTY
  7
Standard
  9
$DIMAUNIT
 70
     0
  9
$DIMADEC
 70
     0
  9
$DIMALTRND
 40
0.0
  9
$DIMAZIN
 70
     0
  9
$DIMDSEP
 70
    46
  9
$DIMATFIT
 70
     3
  9
$DIMFRAC
 70
     0
  9
$DIMLDRBLK
  1

  9
$DIMLUNIT
 70
     2
  9
$DIMLWD
 70
    -2
  9
$DIMLWE
 70
    -2
  9
$DIMTMOVE
 70
     0
  9
$DIMFXL
 40
1.0
  9
$DIMFXLON
 70
     0
  9
$DIMJOGANG
 40
0.7853981633974483
  9
$DIMTFILL
 70
     0
  9
$DIMTFILLCLR
 70
     0
  9
$DIMARCSYM
 70
     0
  9
$DIMLTYPE
  6

  9
$DIMLTEX1
  6

  9
$DIMLTEX2
  6

  9
$DIMTXTDIRECTION
 70
     0
  9
$LUNITS
 70
     2
  9
$LUPREC
 70
     4
  9
$SKETCHINC
 40
0.1
  9
$FILLETRAD
 40
0.5
  9
$AUNITS
 70
     0
  9
$AUPREC
 70
     0
  9
$MENU
  1
.
  9
$ELEVATION
 40
0.0
  9
$PELEVATION
 40
0.0
  9
$THICKNESS
 40
0.0
  9
$LIMCHECK
 70
     0
  9
$CHAMFERA
 40
0.5
  9
$CHAMFERB
 40
0.5
  9
$CHAMFERC
 40
1.0
  9
$CHAMFERD
 40
0.0
  9
$SKPOLY
 70
     0
  9
$TDCREATE
 40
2459885.46276169
  9
$TDUCREATE
 40
2459885.33776169
  9
$TDUPDATE
 40
2459885.46276169
  9
$TDUUPDATE
 40
2459885.33776169
  9
$TDINDWG
 40
0.0000000116
  9
$TDUSRTIMER
 40
0.0000000116
  9
$USRTIMER
 70
     1
  9
$ANGBASE
 50
0.0
  9
$ANGDIR
 70
     0
  9
$PDMODE
 70
     0
  9
$PDSIZE
 40
0.0
  9
$PLINEWID
 40
0.0
  9
$SPLFRAME
 70
     0
  9
$SPLINETYPE
 70
     6
  9
$SPLINESEGS
 70
     8
  9
$HANDSEED
  5
47
  9
$SURFTAB1
 70
     6
  9
$SURFTAB2
 70
     6
  9
$SURFTYPE
 70
     6
  9
$SURFU
 70
     6
  9
$SURFV
 70
     6
  9
$UCSBASE
  2

  9
$UCSNAME
  2

  9
$UCSORG
 10
0.0
 20
0.0
 30
0.0
  9
$UCSXDIR
 10
1.0
 20
0.0
 30
0.0
  9
$UCSYDIR
 10
0.0
 20
1.0
 30
0.0
  9
$UCSORTHOREF
  2

  9
$UCSORTHOVIEW
 70
     0
  9
$UCSORGTOP
 10
0.0
 20
0.0
 30
0.0
  9
$UCSORGBOTTOM
 10
0.0
 20
0.0
 30
0.0
  9
$UCSORGLEFT
 10
0.0
 20
0.0
 30
0.0
  9
$UCSORGRIGHT
 10
0.0
 20
0.0
 30
0.0
  9
$UCSORGFRONT
 10
0.0
 20
0.0
 30
0.0
  9
$UCSORGBACK
 10
0.0
 20
0.0
 30
0.0
  9
$PUCSBASE
  2

  9
$PUCSNAME
  2

  9
$PUCSORG
 10
0.0
 20
0.0
 30
0.0
  9
$PUCSXDIR
 10
1.0
 20
0.0
 30
0.0
  9
$PUCSYDIR
 10
0.0
 20
1.0
 30
0.0
  9
$PUCSORTHOREF
  2

  9
$PUCSORTHOVIEW
 70
     0
  9
$PUCSORGTOP
 10
0.0
 20
0.0
 30
0.0
  9
$PUCSORGBOTTOM
 10
0.0
 20
0.0
 30
0.0
  9
$PUCSORGLEFT
 10
0.0
 20
0.0
 30
0.0
  9
$PUCSORGRIGHT
 10
0.0
 20
0.0
 30
0.0
  9
$PUCSORGFRONT
 10
0.0
 20
0.0
 30
0.0
  9
$PUCSORGBACK
 10
0.0
 20
0.0
 30
0.0
  9
$USERI1
 70
     0
  9
$USERI2
 70
     0
  9
$USERI3
 70
     0
  9
$USERI4
 70
     0
  9
$USERI5
 70
     0
  9
$USERR1
 40
0.0
  9
$USERR2
 40
0.0
  9
$USERR3
 40
0.0
  9
$USERR4
 40
0.0
  9
$USERR5
 40
0.0
  9
$WORLDVIEW
 70
     1
  9
$SHADEDGE
 70
     3
  9
$SHADEDIF
 70
    70
  9
$TILEMODE
 70
     1
  9
$MAXACTVP
 70
    64
  9
$PINSBASE
 10
0.0
 20
0.0
 30
0.0
  9
$PLIMCHECK
 70
     0
  9
$PEXTMIN
 10
1.000000000000000E+20
 20
1.000000000000000E+20
 30
1.000000000000000E+20
  9
$PEXTMAX
 10
-1.000000000000000E+20
 20
-1.000000000000000E+20
 30
-1.000000000000000E+20
  9
$PLIMMIN
 10
0.0
 20
0.0
  9
$PLIMMAX
 10
12.0
 20
9.0
  9
$UNITMODE
 70
     0
  9
$VISRETAIN
 70
     1
  9
$PLINEGEN
 70
     0
  9
$PSLTSCALE
 70
     1
  9
$TREEDEPTH
 70
  3020
  9
$CMLSTYLE
  2
Standard
  9
$CMLJUST
 70
     0
  9
$CMLSCALE
 40
1.0
  9
$PROXYGRAPHICS
 70
     1
  9
$MEASUREMENT
 70
     0
  9
$CELWEIGHT
370
    -1
  9
$ENDCAPS
280
     0
  9
$JOINSTYLE
280
     0
  9
$LWDISPLAY
290
     1
  9
$INSUNITS
 70
     1
  9
$HYPERLINKBASE
  1

  9
$STYLESHEET
  1

  9
$XEDIT
290
     1
  9
$CEPSNTYPE
380
     0
  9
$PSTYLEMODE
290
     1
  9
$FINGERPRINTGUID
  2
{B13A269A-CD05-4DA1-A747-656A625E0A96}
  9
$VERSIONGUID
  2
{FAEB1C32-E019-11D5-929B-00C0DF256EC4}
  9
$EXTNAMES
290
     1
  9
$PSVPSCALE
 40
0.0
  9
$OLESTARTUP
290
     0
  9
$SORTENTS
280
   127
  9
$INDEXCTL
280
     0
  9
$HIDETEXT
280
     1
  9
$XCLIPFRAME
280
     2
  9
$HALOGAP
280
     0
  9
$OBSCOLOR
 70
   257
  9
$OBSLTYPE
280
     0
  9
$INTERSECTIONDISPLAY
280
     0
  9
$INTERSECTIONCOLOR
 70
   257
  9
$DIMASSOC
280
     2
  9
$PROJECTNAME
  1

  9
$CAMERADISPLAY
290
     0
  9
$LENSLENGTH
 40
50.0
  9
$CAMERAHEIGHT
 40
0.0
  9
$STEPSPERSEC
 40
2.0
  9
$STEPSIZE
 40
6.0
  9
$3DDWFPREC
 40
2.0
  9
$PSOLWIDTH
 40
0.25
  9
$PSOLHEIGHT
 40
4.0
  9
$LOFTANG1
 40
1.570796326794897
  9
$LOFTANG2
 40
1.570796326794897
  9
$LOFTMAG1
 40
0.0
  9
$LOFTMAG2
 40
0.0
  9
$LOFTPARAM
 70
     7
  9
$LOFTNORMALS
280
     1
  9
$LATITUDE
 40
37.795
  9
$LONGITUDE
 40
-122.394
  9
$NORTHDIRECTION
 40
0.0
  9
$TIMEZONE
 70
 -8000
  9
$LIGHTGLYPHDISPLAY
280
     1
  9
$TILEMODELIGHTSYNCH
280
     1
  9
$CMATERIAL
347
3C
  9
$SOLIDHIST
280
     1
  9
$SHOWHIST
280
     1
  9
$DWFFRAME
280
     2
  9
$DGNFRAME
280
     2
  9
$REALWORLDSCALE
290
     1
  9
$INTERFERECOLOR
 62
   256
  9
$CSHADOW
280
     0
  9
$SHADOWPLANELOCATION
 40
0.0
  0
ENDSEC
  0
SECTION
  2
CLASSES
  0
CLASS
  1
ACDBDICTIONARYWDFLT
  2
AcDbDictionaryWithDefault
  3
ObjectDBX Classes
 90
        0
 91
        4
280
     0
281
     0
  0
CLASS
  1
VISUALSTYLE
  2
AcDbVisualStyle
  3
ObjectDBX Classes
 90
     4095
 91
        4
280
     0
281
     0
  0
CLASS
  1
MATERIAL
  2
AcDbMaterial
  3
ObjectDBX Classes
 90
     1153
 91
        4
280
     0
281
     0
  0
CLASS
  1
SUN
  2
AcDbSun
  3
SCENEOE
 90
     1024
 91
        4
280
     0
281
     0
  0
ENDSEC
  0
SECTION
  2
TABLES
  0
TABLE
  2
VPORT
  5
8
330
0
100
AcDbSymbolTable
 70
     1
  0
VPORT
  5
29
330
8
100
AcDbSymbolTableRecord
100
AcDbViewportTableRecord
  2
*Active
 70
     0
 10
0.0
 20
0.0
 11
1.0
 21
1.0
 12
0.0
 22
0.0
 13
0.0
 23
0.0
 14
0.5
 24
0.5
 15
0.5
 25
0.5
 16
0.0
 26
0.0
 36
1.0
 17
28.11111111111111
 27
-15.55555555555555
 37
0.0
 40
5.999999999999998
 41
1.0
 42
50.0
 43
0.0
 44
0.0
 50
0.0
 51
0.0
 71
     0
 72
   100
 73
     1
 74
     3
 75
     0
 76
     0
 77
     0
 78
     0
281
     0
 65
     1
110
0.0
120
0.0
130
0.0
111
1.0
121
0.0
131
0.0
112
0.0
122
1.0
132
0.0
 79
     0
146
0.0
 60
     3
 61
     5
292
     1
282
     1
141
0.0
142
0.0
 63
   250
361
3F
  0
ENDTAB
  0
TABLE
  2
LTYPE
  5
5
330
0
100
AcDbSymbolTable
 70
     1
  0
LTYPE
  5
14
330
5
100
AcDbSymbolTableRecord
100
AcDbLinetypeTableRecord
  2
ByBlock
 70
     0
  3

 72
    65
 73
     0
 40
0.0
  0
LTYPE
  5
15
330
5
100
AcDbSymbolTableRecord
100
AcDbLinetypeTableRecord
  2
ByLayer
 70
     0
  3

 72
    65
 73
     0
 40
0.0
  0
LTYPE
  5
16
330
5
100
AcDbSymbolTableRecord
100
AcDbLinetypeTableRecord
  2
Continuous
 70
     0
  3
Solid line
 72
    65
 73
     0
 40
0.0
  0
ENDTAB
  0
TABLE
  2
LAYER
  5
2
330
0
100
AcDbSymbolTable
 70
     2
  0
LAYER
  5
10
330
2
100
AcDbSymbolTableRecord
100
AcDbLayerTableRecord
  2
0
 70
     0
 62
     7
  6
Continuous
370
    -3
390
F
347
3E
  0
LAYER
  5
40
330
2
100
AcDbSymbolTableRecord
100
AcDbLayerTableRecord
  2
_U+0421_U+043B_U+043E_U+0439 1
 70
     0
 62
     7
  6
Continuous
370
    -3
390
F
347
3E
  0
ENDTAB
  0
TABLE
  2
STYLE
  5
3
330
0
100
AcDbSymbolTable
 70
     1
  0
STYLE
  5
11
330
3
100
AcDbSymbolTableRecord
100
AcDbTextStyleTableRecord
  2
Standard
 70
     0
 40
0.0
 41
1.0
 50
0.0
 71
     0
 42
0.2
  3
txt
  4

  0
ENDTAB
  0
TABLE
  2
VIEW
  5
6
330
0
100
AcDbSymbolTable
 70
     0
  0
ENDTAB
  0
TABLE
  2
UCS
  5
7
330
0
100
AcDbSymbolTable
 70
     0
  0
ENDTAB
  0
TABLE
  2
APPID
  5
9
330
0
100
AcDbSymbolTable
 70
     1
  0
APPID
  5
12
330
9
100
AcDbSymbolTableRecord
100
AcDbRegAppTableRecord
  2
ACAD
 70
     0
  0
ENDTAB
  0
TABLE
  2
DIMSTYLE
  5
A
330
0
100
AcDbSymbolTable
 70
     1
100
AcDbDimStyleTable
  0
DIMSTYLE
105
27
330
A
100
AcDbSymbolTableRecord
100
AcDbDimStyleTableRecord
  2
Standard
 70
     0
178
     0
340
11
  0
ENDTAB
  0
TABLE
  2
BLOCK_RECORD
  5
1
330
0
100
AcDbSymbolTable
 70
     1
  0
BLOCK_RECORD
  5
1F
330
1
100
AcDbSymbolTableRecord
100
AcDbBlockTableRecord
  2
*Model_Space
340
22
 70
     0
280
     1
281
     0
  0
BLOCK_RECORD
  5
1B
330
1
100
AcDbSymbolTableRecord
100
AcDbBlockTableRecord
  2
*Paper_Space
340
1E
 70
     0
280
     1
281
     0
  0
BLOCK_RECORD
  5
23
330
1
100
AcDbSymbolTableRecord
100
AcDbBlockTableRecord
  2
*Paper_Space0
340
26
 70
     0
280
     1
281
     0
  0
ENDTAB
  0
ENDSEC
  0
SECTION
  2
BLOCKS
  0
BLOCK
  5
20
330
1F
100
AcDbEntity
  8
0
100
AcDbBlockBegin
  2
*Model_Space
 70
     0
 10
0.0
 20
0.0
 30
0.0
  3
*Model_Space
  1

  0
ENDBLK
  5
21
330
1F
100
AcDbEntity
  8
0
100
AcDbBlockEnd
  0
BLOCK
  5
1C
330
1B
100
AcDbEntity
 67
     1
  8
0
100
AcDbBlockBegin
  2
*Paper_Space
 70
     0
 10
0.0
 20
0.0
 30
0.0
  3
*Paper_Space
  1

  0
ENDBLK
  5
1D
330
1B
100
AcDbEntity
 67
     1
  8
0
100
AcDbBlockEnd
  0
BLOCK
  5
24
330
23
100
AcDbEntity
  8
0
100
AcDbBlockBegin
  2
*Paper_Space0
 70
     0
 10
0.0
 20
0.0
 30
0.0
  3
*Paper_Space0
  1

  0
ENDBLK
  5
25
330
23
100
AcDbEntity
  8
0
100
AcDbBlockEnd
  0
ENDSEC
  0
SECTION
  2
ENTITIES
  0
SPLINE
  5
41
330
1F
100
AcDbEntity
  8
_U+0421_U+043B_U+043E_U+0439 1
 62
    22
420
 15016993
370
    35
100
AcDbSpline
210
0.0
220
0.0
230
1.0
 70
    11
 71
     3
 72
   197
 73
   193
 74
     0
 42
0.0000000001
 43
0.0000000001
 12
1.0
 22
0.0
 32
0.0
 13
1.0
 23
0.0
 33
0.0
 40
0.0
 40
0.0
 40
0.0
 40
0.0
 40
1.0
 40
1.0
 40
1.0
 40
2.0
 40
2.0
 40
2.0
 40
3.0
 40
3.0
 40
3.0
 40
4.0
 40
4.0
 40
4.0
 40
5.0
 40
5.0
 40
5.0
 40
6.0
 40
6.0
 40
6.0
 40
7.0
 40
7.0
 40
7.0
 40
8.0
 40
8.0
 40
8.0
 40
9.0
 40
9.0
 40
9.0
 40
10.0
 40
10.0
 40
10.0
 40
11.0
 40
11.0
 40
11.0
 40
12.0
 40
12.0
 40
12.0
 40
13.0
 40
13.0
 40
13.0
 40
14.0
 40
14.0
 40
14.0
 40
15.0
 40
15.0
 40
15.0
 40
16.0
 40
16.0
 40
16.0
 40
17.0
 40
17.0
 40
17.0
 40
18.0
 40
18.0
 40
18.0
 40
19.0
 40
19.0
 40
19.0
 40
20.0
 40
20.0
 40
20.0
 40
21.0
 40
21.0
 40
21.0
 40
22.0
 40
22.0
 40
22.0
 40
23.0
 40
23.0
 40
23.0
 40
24.0
 40
24.0
 40
24.0
 40
25.0
 40
25.0
 40
25.0
 40
26.0
 40
26.0
 40
26.0
 40
27.0
 40
27.0
 40
27.0
 40
28.0
 40
28.0
 40
28.0
 40
29.0
 40
29.0
 40
29.0
 40
30.0
 40
30.0
 40
30.0
 40
31.0
 40
31.0
 40
31.0
 40
32.0
 40
32.0
 40
32.0
 40
33.0
 40
33.0
 40
33.0
 40
34.0
 40
34.0
 40
34.0
 40
35.0
 40
35.0
 40
35.0
 40
36.0
 40
36.0
 40
36.0
 40
37.0
 40
37.0
 40
37.0
 40
38.0
 40
38.0
 40
38.0
 40
39.0
 40
39.0
 40
39.0
 40
40.0
 40
40.0
 40
40.0
 40
41.0
 40
41.0
 40
41.0
 40
42.0
 40
42.0
 40
42.0
 40
43.0
 40
43.0
 40
43.0
 40
44.0
 40
44.0
 40
44.0
 40
45.0
 40
45.0
 40
45.0
 40
46.0
 40
46.0
 40
46.0
 40
47.0
 40
47.0
 40
47.0
 40
48.0
 40
48.0
 40
48.0
 40
49.0
 40
49.0
 40
49.0
 40
50.0
 40
50.0
 40
50.0
 40
51.0
 40
51.0
 40
51.0
 40
52.0
 40
52.0
 40
52.0
 40
53.0
 40
53.0
 40
53.0
 40
54.0
 40
54.0
 40
54.0
 40
55.0
 40
55.0
 40
55.0
 40
56.0
 40
56.0
 40
56.0
 40
57.0
 40
57.0
 40
57.0
 40
58.0
 40
58.0
 40
58.0
 40
59.0
 40
59.0
 40
59.0
 40
60.0
 40
60.0
 40
60.0
 40
61.0
 40
61.0
 40
61.0
 40
62.0
 40
62.0
 40
62.0
 40
63.0
 40
63.0
 40
63.0
 40
64.0
 40
64.0
 40
64.0
 40
64.0
 10
30.0205486111111
 20
-17.43977083333334
 30
0.0
 10
30.01943749999999
 20
-17.48227083333333
 30
0.0
 10
29.84513194444445
 20
-17.48477083333334
 30
0.0
 10
29.84402083333334
 20
-17.43977083333334
 30
0.0
 10
29.80024583333334
 20
-15.75657638888889
 30
0.0
 10
29.74291805555554
 20
-15.44643055555555
 30
0.0
 10
29.71054861111111
 20
-17.44060416666667
 30
0.0
 10
29.71027083333335
 20
-17.45796527777778
 30
0.0
 10
29.70124305555555
 20
-17.47157638888888
 30
0.0
 10
29.69027083333334
 20
-17.47157638888888
 30
0.0
 10
29.69027083333334
 20
-17.47157638888888
 30
0.0
 10
29.67429861111112
 20
-17.47157638888888
 30
0.0
 10
29.67429861111112
 20
-17.47157638888888
 30
0.0
 10
29.66332638888889
 20
-17.47157638888888
 30
0.0
 10
29.65429861111112
 20
-17.45796527777778
 30
0.0
 10
29.65402083333333
 20
-17.44060416666667
 30
0.0
 10
29.61816388888888
 20
-15.2315361111111
 30
0.0
 10
29.49755555555556
 20
-15.55427777777778
 30
0.0
 10
29.46693750000001
 20
-17.44060416666667
 30
0.0
 10
29.46665972222223
 20
-17.45796527777778
 30
0.0
 10
29.45763194444445
 20
-17.47157638888888
 30
0.0
 10
29.44665972222222
 20
-17.47157638888888
 30
0.0
 10
29.44665972222222
 20
-17.47157638888888
 30
0.0
 10
29.43082638888889
 20
-17.47157638888888
 30
0.0
 10
29.43082638888889
 20
-17.47157638888888
 30
0.0
 10
29.41971527777777
 20
-17.47157638888888
 30
0.0
 10
29.41068749999999
 20
-17.45796527777778
 30
0.0
 10
29.41040972222223
 20
-17.44060416666667
 30
0.0
 10
29.37780694444445
 20
-15.43198472222222
 30
0.0
 10
29.26103472222222
 20
-15.11749166666666
 30
0.0
 10
29.22332638888889
 20
-17.44060416666667
 30
0.0
 10
29.2230486111111
 20
-17.45796527777778
 30
0.0
 10
29.21402083333333
 20
-17.47157638888888
 30
0.0
 10
29.20304861111112
 20
-17.47157638888888
 30
0.0
 10
29.20304861111112
 20
-17.47157638888888
 30
0.0
 10
29.18721527777777
 20
-17.47157638888888
 30
0.0
 10
29.18721527777777
 20
-17.47157638888888
 30
0.0
 10
29.17610416666667
 20
-17.47157638888888
 30
0.0
 10
29.16707638888889
 20
-17.45796527777778
 30
0.0
 10
29.16679861111111
 20
-17.44060416666667
 30
0.0
 10
29.12973194444445
 20
-15.15696388888889
 30
0.0
 10
29.01713055555557
 20
-15.12946111111111
 30
0.0
 10
28.97985416666668
 20
-17.44060416666667
 30
0.0
 10
28.97957638888889
 20
-17.45796527777778
 30
0.0
 10
28.9705486111111
 20
-17.47157638888888
 30
0.0
 10
28.9594375
 20
-17.47157638888888
 30
0.0
 10
28.9594375
 20
-17.47157638888888
 30
0.0
 10
28.94360416666667
 20
-17.47157638888888
 30
0.0
 10
28.94360416666667
 20
-17.47157638888888
 30
0.0
 10
28.93249305555557
 20
-17.47157638888888
 30
0.0
 10
28.92346527777777
 20
-17.45796527777778
 30
0.0
 10
28.92318749999999
 20
-17.44060416666667
 30
0.0
 10
28.88650277777777
 20
-15.16614027777777
 30
0.0
 10
28.77873055555556
 20
-14.82306666666667
 30
0.0
 10
28.73624305555555
 20
-17.44060416666667
 30
0.0
 10
28.73596527777777
 20
-17.45796527777778
 30
0.0
 10
28.7269375
 20
-17.47157638888888
 30
0.0
 10
28.7158263888889
 20
-17.47157638888888
 30
0.0
 10
28.7158263888889
 20
-17.47157638888888
 30
0.0
 10
28.69999305555555
 20
-17.47157638888888
 30
0.0
 10
28.69999305555555
 20
-17.47157638888888
 30
0.0
 10
28.68902083333334
 20
-17.47157638888888
 30
0.0
 10
28.67999305555557
 20
-17.45796527777778
 30
0.0
 10
28.67971527777778
 20
-17.44060416666667
 30
0.0
 10
28.63762499999999
 20
-14.84749166666667
 30
0.0
 10
28.53506249999999
 20
-14.82657222222223
 30
0.0
 10
28.49263194444443
 20
-17.44060416666667
 30
0.0
 10
28.49235416666667
 20
-17.45796527777778
 30
0.0
 10
28.4833263888889
 20
-17.47157638888888
 30
0.0
 10
28.47221527777777
 20
-17.47157638888888
 30
0.0
 10
28.47221527777777
 20
-17.47157638888888
 30
0.0
 10
28.45638194444445
 20
-17.47157638888888
 30
0.0
 10
28.45638194444445
 20
-17.47157638888888
 30
0.0
 10
28.44540972222222
 20
-17.47157638888888
 30
0.0
 10
28.43638194444444
 20
-17.45796527777778
 30
0.0
 10
28.43610416666666
 20
-17.44060416666667
 30
0.0
 10
28.39383055555555
 20
-14.83611944444445
 30
0.0
 10
28.29549583333333
 20
-14.57733888888889
 30
0.0
 10
28.24902083333333
 20
-17.44060416666667
 30
0.0
 10
28.24874305555555
 20
-17.45796527777778
 30
0.0
 10
28.23971527777778
 20
-17.47157638888888
 30
0.0
 10
28.22874305555554
 20
-17.47157638888888
 30
0.0
 10
28.22874305555554
 20
-17.47157638888888
 30
0.0
 10
28.21277083333333
 20
-17.47157638888888
 30
0.0
 10
28.21277083333333
 20
-17.47157638888888
 30
0.0
 10
28.20179861111112
 20
-17.47157638888888
 30
0.0
 10
28.19277083333332
 20
-17.45796527777778
 30
0.0
 10
28.19249305555556
 20
-17.44060416666667
 30
0.0
 10
28.14567638888889
 20
-14.55635277777777
 30
0.0
 10
28.05241666666667
 20
-14.54465
 30
0.0
 10
28.00540972222223
 20
-17.44060416666667
 30
0.0
 10
28.00513194444444
 20
-17.45796527777778
 30
0.0
 10
27.99610416666667
 20
-17.47157638888888
 30
0.0
 10
27.98513194444445
 20
-17.47157638888888
 30
0.0
 10
27.98513194444445
 20
-17.47157638888888
 30
0.0
 10
27.96915972222223
 20
-17.47157638888888
 30
0.0
 10
27.96915972222223
 20
-17.47157638888888
 30
0.0
 10
27.95818749999999
 20
-17.47157638888888
 30
0.0
 10
27.94915972222222
 20
-17.45796527777778
 30
0.0
 10
27.94888194444444
 20
-17.44060416666667
 30
0.0
 10
27.87314166666667
 20
-12.77442361111111
 30
0.0
 10
27.77541527777779
 20
-17.45088472222222
 30
0.0
 10
27.76152083333333
 20
-17.4439375
 30
0.0
 10
27.76027083333333
 20
-17.45963194444443
 30
0.0
 10
27.75179861111111
 20
-17.47157638888888
 30
0.0
 10
27.74152083333334
 20
-17.47157638888888
 30
0.0
 10
27.74152083333334
 20
-17.47157638888888
 30
0.0
 10
27.7256875
 20
-17.47157638888888
 30
0.0
 10
27.7256875
 20
-17.47157638888888
 30
0.0
 10
27.7145763888889
 20
-17.47157638888888
 30
0.0
 10
27.70554861111111
 20
-17.45796527777778
 30
0.0
 10
27.70527083333334
 20
-17.44060416666667
 30
0.0
 10
27.67027916666667
 20
-15.28487638888888
 30
0.0
 10
27.56611111111111
 20
-14.47792083333333
 30
0.0
 10
27.51832638888888
 20
-17.44060416666667
 30
0.0
 10
27.51804861111111
 20
-17.45796527777778
 30
0.0
 10
27.50902083333332
 20
-17.47157638888888
 30
0.0
 10
27.49790972222223
 20
-17.47157638888888
 30
0.0
 10
27.49790972222223
 20
-17.47157638888888
 30
0.0
 10
27.48207638888888
 20
-17.47157638888888
 30
0.0
 10
27.48207638888888
 20
-17.47157638888888
 30
0.0
 10
27.47096527777777
 20
-17.47157638888888
 30
0.0
 10
27.4619375
 20
-17.45796527777778
 30
0.0
 10
27.46165972222222
 20
-17.44060416666667
 30
0.0
 10
27.43314027777777
 20
-15.68358750000001
 30
0.0
 10
27.32423333333333
 20
-14.38998611111111
 30
0.0
 10
27.27471527777778
 20
-17.44060416666667
 30
0.0
 10
27.2744375
 20
-17.45796527777778
 30
0.0
 10
27.26540972222223
 20
-17.47157638888888
 30
0.0
 10
27.25429861111111
 20
-17.47157638888888
 30
0.0
 10
27.25429861111111
 20
-17.47157638888888
 30
0.0
 10
27.23846527777778
 20
-17.47157638888888
 30
0.0
 10
27.23846527777778
 20
-17.47157638888888
 30
0.0
 10
27.22735416666666
 20
-17.47157638888888
 30
0.0
 10
27.21832638888889
 20
-17.45796527777778
 30
0.0
 10
27.21804861111112
 20
-17.44060416666667
 30
0.0
 10
27.18403611111111
 20
-15.33174305555556
 30
0.0
 10
27.07189166666666
 20
-14.92784027777778
 30
0.0
 10
27.03110416666666
 20
-17.44060416666667
 30
0.0
 10
27.03082638888889
 20
-17.45796527777778
 30
0.0
 10
27.02179861111111
 20
-17.47157638888888
 30
0.0
 10
27.0106875
 20
-17.47157638888888
 30
0.0
 10
27.0106875
 20
-17.47157638888888
 30
0.0
 10
26.99485416666667
 20
-17.47157638888888
 30
0.0
 10
26.99485416666667
 20
-17.47157638888888
 30
0.0
 10
26.98388194444444
 20
-17.47157638888888
 30
0.0
 10
26.97485416666667
 20
-17.45796527777778
 30
0.0
 10
26.97457638888889
 20
-17.44060416666667
 30
0.0
 10
26.93914166666666
 20
-15.2575875
 30
0.0
 10
26.82296111111111
 20
-15.25553055555555
 30
0.0
 10
26.78749305555556
 20
-17.44060416666667
 30
0.0
 10
26.78721527777778
 20
-17.45796527777778
 30
0.0
 10
26.7781875
 20
-17.47157638888888
 30
0.0
 10
26.76721527777777
 20
-17.47157638888888
 30
0.0
 10
26.76721527777777
 20
-17.47157638888888
 30
0.0
 10
26.75124305555556
 20
-17.47157638888888
 30
0.0
 10
26.75124305555556
 20
-17.47157638888888
 30
0.0
 10
26.74027083333333
 20
-17.47157638888888
 30
0.0
 10
26.73124305555555
 20
-17.45796527777778
 30
0.0
 10
26.73096527777778
 20
-17.44060416666667
 30
0.0
 10
26.70100138888889
 20
-15.59459305555555
 30
0.0
 10
26.57994305555556
 20
-15.21898055555555
 30
0.0
 10
26.54388194444444
 20
-17.44060416666667
 30
0.0
 10
26.54360416666667
 20
-17.45796527777778
 30
0.0
 10
26.53457638888888
 20
-17.47157638888888
 30
0.0
 10
26.52360416666667
 20
-17.47157638888888
 30
0.0
 10
26.52360416666667
 20
-17.47157638888888
 30
0.0
 10
26.50763194444444
 20
-17.47157638888888
 30
0.0
 10
26.50763194444444
 20
-17.47157638888888
 30
0.0
 10
26.49665972222222
 20
-17.47157638888888
 30
0.0
 10
26.48763194444445
 20
-17.45796527777778
 30
0.0
 10
26.48735416666667
 20
-17.44060416666667
 30
0.0
 10
26.45701111111111
 20
-15.57125555555555
 30
0.0
 10
26.40070277777777
 20
-15.63948194444444
 30
0.0
 10
26.35388194444445
 20
-17.43977083333334
 30
0.0
 10
26.35277083333332
 20
-17.48477083333334
 30
0.0
 10
26.17846527777778
 20
-17.48227083333333
 30
0.0
 10
26.17735416666667
 20
-17.43977083333334
 30
0.0
 10
26.12638194444445
 20
-15.47477083333333
 30
0.0
 10
26.13374305555556
 20
-16.00268749999999
 30
0.0
 10
26.13374305555556
 20
-15.37810416666667
 30
0.0
 10
26.13374305555556
 20
-14.49713194444444
 30
0.0
 10
26.84777083333333
 20
-13.78310416666666
 30
0.0
 10
27.72874305555555
 20
-13.78310416666666
 30
0.0
 10
27.72874305555555
 20
-13.78310416666666
 30
0.0
 10
28.46915972222223
 20
-13.78310416666666
 30
0.0
 10
28.46915972222223
 20
-13.78310416666666
 30
0.0
 10
29.35013194444446
 20
-13.78310416666666
 30
0.0
 10
30.0642986111111
 20
-14.49713194444444
 30
0.0
 10
30.0642986111111
 20
-15.37810416666667
 30
0.0
 10
30.0642986111111
 20
-16.34546527777777
 30
0.0
 10
30.06999305555556
 20
-15.53588194444444
 30
0.0
 10
30.0205486111111
 20
-17.43977083333334
 30
0.0
  0
SPLINE
  5
42
330
1F
100
AcDbEntity
  8
_U+0421_U+043B_U+043E_U+0439 1
 62
    98
420
    66050
370
    35
100
AcDbSpline
210
0.0
220
0.0
230
1.0
 70
    11
 71
     3
 72
   134
 73
   130
 74
     0
 42
0.0000000001
 43
0.0000000001
 12
1.0
 22
0.0
 32
0.0
 13
1.0
 23
0.0
 33
0.0
 40
0.0
 40
0.0
 40
0.0
 40
0.0
 40
1.0
 40
1.0
 40
1.0
 40
2.0
 40
2.0
 40
2.0
 40
3.0
 40
3.0
 40
3.0
 40
4.0
 40
4.0
 40
4.0
 40
5.0
 40
5.0
 40
5.0
 40
6.0
 40
6.0
 40
6.0
 40
7.0
 40
7.0
 40
7.0
 40
8.0
 40
8.0
 40
8.0
 40
9.0
 40
9.0
 40
9.0
 40
10.0
 40
10.0
 40
10.0
 40
11.0
 40
11.0
 40
11.0
 40
12.0
 40
12.0
 40
12.0
 40
13.0
 40
13.0
 40
13.0
 40
14.0
 40
14.0
 40
14.0
 40
15.0
 40
15.0
 40
15.0
 40
16.0
 40
16.0
 40
16.0
 40
17.0
 40
17.0
 40
17.0
 40
18.0
 40
18.0
 40
18.0
 40
19.0
 40
19.0
 40
19.0
 40
20.0
 40
20.0
 40
20.0
 40
21.0
 40
21.0
 40
21.0
 40
22.0
 40
22.0
 40
22.0
 40
23.0
 40
23.0
 40
23.0
 40
24.0
 40
24.0
 40
24.0
 40
25.0
 40
25.0
 40
25.0
 40
26.0
 40
26.0
 40
26.0
 40
27.0
 40
27.0
 40
27.0
 40
28.0
 40
28.0
 40
28.0
 40
29.0
 40
29.0
 40
29.0
 40
30.0
 40
30.0
 40
30.0
 40
31.0
 40
31.0
 40
31.0
 40
32.0
 40
32.0
 40
32.0
 40
33.0
 40
33.0
 40
33.0
 40
34.0
 40
34.0
 40
34.0
 40
35.0
 40
35.0
 40
35.0
 40
36.0
 40
36.0
 40
36.0
 40
37.0
 40
37.0
 40
37.0
 40
38.0
 40
38.0
 40
38.0
 40
39.0
 40
39.0
 40
39.0
 40
40.0
 40
40.0
 40
40.0
 40
41.0
 40
41.0
 40
41.0
 40
42.0
 40
42.0
 40
42.0
 40
43.0
 40
43.0
 40
43.0
 40
43.0
 10
28.46926527777777
 20
-14.32527499999999
 30
0.0
 10
28.45971111111112
 20
-14.25346666666667
 30
0.0
 10
28.47406805555556
 20
-14.26660138888889
 30
0.0
 10
28.46402499999999
 20
-14.18029722222222
 30
0.0
 10
28.45427916666666
 20
-14.09648888888888
 30
0.0
 10
28.43890833333333
 20
-14.06847222222223
 30
0.0
 10
28.43258472222222
 20
-14.05802638888888
 30
0.0
 10
28.41667222222223
 20
-14.03172083333334
 30
0.0
 10
28.39620138888889
 20
-14.01432361111111
 30
0.0
 10
28.39415694444445
 20
-14.01261249999999
 30
0.0
 10
28.38109166666666
 20
-14.00167777777777
 30
0.0
 10
28.36856805555554
 20
-13.99449861111111
 30
0.0
 10
28.35922222222221
 20
-13.98990416666667
 30
0.0
 10
28.35744027777779
 20
-13.97923194444444
 30
0.0
 10
28.35323055555556
 20
-13.96258611111111
 30
0.0
 10
28.34175416666666
 20
-13.94623611111111
 30
0.0
 10
28.32685555555556
 20
-13.92501388888888
 30
0.0
 10
28.30778194444444
 20
-13.91582638888889
 30
0.0
 10
28.27188611111112
 20
-13.899075
 30
0.0
 10
28.24790277777778
 20
-13.88787777777778
 30
0.0
 10
28.22730972222222
 20
-13.87827083333333
 30
0.0
 10
28.19677777777777
 20
-13.87112777777778
 30
0.0
 10
28.14744861111111
 20
-13.85958194444444
 30
0.0
 10
28.10792222222222
 20
-13.86286527777778
 30
0.0
 10
28.09546805555556
 20
-13.86414027777778
 30
0.0
 10
28.08014722222222
 20
-13.8657125
 30
0.0
 10
28.04620833333334
 20
-13.86948611111111
 30
0.0
 10
28.00813055555555
 20
-13.88684861111111
 30
0.0
 10
27.994
 20
-13.89329305555556
 30
0.0
 10
27.97511944444444
 20
-13.90351249999999
 30
0.0
 10
27.95747638888889
 20
-13.91304861111111
 30
0.0
 10
27.93125972222222
 20
-13.92723194444444
 30
0.0
 10
27.92352083333334
 20
-13.93241944444445
 30
0.0
 10
27.90682083333334
 20
-13.93750277777778
 30
0.0
 10
27.90191250000001
 20
-13.93900416666666
 30
0.0
 10
27.89190555555555
 20
-13.94141527777778
 30
0.0
 10
27.87188750000001
 20
-13.94623611111111
 30
0.0
 10
27.84619305555556
 20
-13.9524375
 30
0.0
 10
27.84116250000001
 20
-13.95318888888889
 30
0.0
 10
27.83520694444444
 20
-13.95846388888889
 30
0.0
 10
27.82510833333333
 20
-13.96737222222223
 30
0.0
 10
27.82835833333334
 20
-13.97504027777778
 30
0.0
 10
27.8194861111111
 20
-13.98990416666667
 30
0.0
 10
27.80900555555556
 20
-14.00745833333334
 30
0.0
 10
27.80020277777777
 20
-14.00396527777778
 30
0.0
 10
27.78105833333333
 20
-14.02309305555555
 30
0.0
 10
27.77262222222222
 20
-14.03151111111111
 30
0.0
 10
27.75059444444445
 20
-14.0535375
 30
0.0
 10
27.74961666666667
 20
-14.08248055555555
 30
0.0
 10
27.74909305555555
 20
-14.09806111111111
 30
0.0
 10
27.75524027777778
 20
-14.09842916666667
 30
0.0
 10
27.75485694444444
 20
-14.11392083333333
 30
0.0
 10
27.75420972222222
 20
-14.14006944444444
 30
0.0
 10
27.73651666666666
 20
-14.14628888888889
 30
0.0
 10
27.72690972222222
 20
-14.17330972222222
 30
0.0
 10
27.72460416666667
 20
-14.17979027777778
 30
0.0
 10
27.72453333333333
 20
-14.18251527777777
 30
0.0
 10
27.72778333333334
 20
-14.24929166666667
 30
0.0
 10
27.73021111111111
 20
-14.29912638888888
 30
0.0
 10
27.72895277777777
 20
-14.27100416666667
 30
0.0
 10
27.73127777777778
 20
-14.31566666666667
 30
0.0
 10
27.73373888888889
 20
-14.36310833333333
 30
0.0
 10
27.73373888888889
 20
-14.36777222222222
 30
0.0
 10
27.73651666666666
 20
-14.37855
 30
0.0
 10
27.7434
 20
-14.40529166666667
 30
0.0
 10
27.75139861111111
 20
-14.40786111111111
 30
0.0
 10
27.759225
 20
-14.43269861111111
 30
0.0
 10
27.766525
 20
-14.45589583333333
 30
0.0
 10
27.76209027777778
 20
-14.46178194444445
 30
0.0
 10
27.76446388888889
 20
-14.50780694444444
 30
0.0
 10
27.76720694444445
 20
-14.56115277777778
 30
0.0
 10
27.77349305555555
 20
-14.55964999999999
 30
0.0
 10
27.77494444444445
 20
-14.60911666666666
 30
0.0
 10
27.7756263888889
 20
-14.63255833333334
 30
0.0
 10
27.77428055555555
 20
-14.63507361111111
 30
0.0
 10
27.77494444444445
 20
-14.67723888888889
 30
0.0
 10
27.7754875
 20
-14.7112125
 30
0.0
 10
27.77642916666667
 20
-14.71460138888888
 30
0.0
 10
27.77669027777777
 20
-14.73488055555555
 30
0.0
 10
27.77763333333333
 20
-14.81019999999999
 30
0.0
 10
27.76511111111111
 20
-14.81363888888889
 30
0.0
 10
27.7723236111111
 20
-14.84929027777778
 30
0.0
 10
27.77999305555555
 20
-14.88723055555556
 30
0.0
 10
27.8002875
 20
-14.91439166666666
 30
0.0
 10
27.81075138888889
 20
-14.92789305555555
 30
0.0
 10
27.83131111111111
 20
-14.95440833333333
 30
0.0
 10
27.84266527777778
 20
-14.95554305555556
 30
0.0
 10
27.87188750000001
 20
-14.990775
 30
0.0
 10
27.87910138888888
 20
-14.999475
 30
0.0
 10
27.89125694444445
 20
-15.01695694444445
 30
0.0
 10
27.91555555555556
 20
-15.05190972222222
 30
0.0
 10
27.94493472222221
 20
-15.09416388888889
 30
0.0
 10
27.94919722222222
 20
-15.10184861111111
 30
0.0
 10
27.96271527777779
 20
-15.11129861111111
 30
0.0
 10
27.98084722222222
 20
-15.12397916666666
 30
0.0
 10
27.99803472222223
 20
-15.12752638888888
 30
0.0
 10
28.02210694444444
 20
-15.13225972222222
 30
0.0
 10
28.03375555555556
 20
-15.13454861111111
 30
0.0
 10
28.06074166666667
 20
-15.13910555555555
 30
0.0
 10
28.11642777777778
 20
-15.13575277777777
 30
0.0
 10
28.17137916666666
 20
-15.13245138888889
 30
0.0
 10
28.19885555555556
 20
-15.13079166666666
 30
0.0
 10
28.22647222222223
 20
-15.11828611111111
 30
0.0
 10
28.23555555555554
 20
-15.11416249999999
 30
0.0
 10
28.24161666666666
 20
-15.11045972222222
 30
0.0
 10
28.29634027777777
 20
-15.06239166666666
 30
0.0
 10
28.37702083333334
 20
-14.99152638888889
 30
0.0
 10
28.39567500000001
 20
-14.97164861111111
 30
0.0
 10
28.40987638888888
 20
-14.938375
 30
0.0
 10
28.41672361111111
 20
-14.92230416666666
 30
0.0
 10
28.41985
 20
-14.90941388888888
 30
0.0
 10
28.42210416666666
 20
-14.89994583333333
 30
0.0
 10
28.43431388888888
 20
-14.84848749999999
 30
0.0
 10
28.42456666666668
 20
-14.82115138888889
 30
0.0
 10
28.42210416666666
 20
-14.76370277777778
 30
0.0
 10
28.41894305555555
 20
-14.69007638888888
 30
0.0
 10
28.4332125
 20
-14.6950375
 30
0.0
 10
28.42909166666666
 20
-14.61523055555555
 30
0.0
 10
28.42771249999999
 20
-14.58854166666667
 30
0.0
 10
28.42509166666665
 20
-14.56834861111111
 30
0.0
 10
28.4255986111111
 20
-14.52964166666667
 30
0.0
 10
28.42626111111111
 20
-14.47882916666667
 30
0.0
 10
28.43148472222222
 20
-14.45753611111111
 30
0.0
 10
28.44131805555556
 20
-14.4388125
 30
0.0
 10
28.45099583333333
 20
-14.42038333333333
 30
0.0
 10
28.45648055555557
 20
-14.42090833333333
 30
0.0
 10
28.46402499999999
 20
-14.40387638888889
 30
0.0
 10
28.47702222222223
 20
-14.37456805555555
 30
0.0
 10
28.4722
 20
-14.3473
 30
0.0
 10
28.46926527777777
 20
-14.32527499999999
 30
0.0
  0
SPLINE
  5
43
330
1F
100
AcDbEntity
  8
_U+0421_U+043B_U+043E_U+0439 1
 62
    98
420
    66050
370
    35
100
AcDbSpline
210
0.0
220
0.0
230
1.0
 70
    11
 71
     3
 72
    92
 73
    88
 74
     0
 42
0.0000000001
 43
0.0000000001
 12
1.0
 22
0.0
 32
0.0
 13
1.0
 23
0.0
 33
0.0
 40
0.0
 40
0.0
 40
0.0
 40
0.0
 40
1.0
 40
1.0
 40
1.0
 40
2.0
 40
2.0
 40
2.0
 40
3.0
 40
3.0
 40
3.0
 40
4.0
 40
4.0
 40
4.0
 40
5.0
 40
5.0
 40
5.0
 40
6.0
 40
6.0
 40
6.0
 40
7.0
 40
7.0
 40
7.0
 40
8.0
 40
8.0
 40
8.0
 40
9.0
 40
9.0
 40
9.0
 40
10.0
 40
10.0
 40
10.0
 40
11.0
 40
11.0
 40
11.0
 40
12.0
 40
12.0
 40
12.0
 40
13.0
 40
13.0
 40
13.0
 40
14.0
 40
14.0
 40
14.0
 40
15.0
 40
15.0
 40
15.0
 40
16.0
 40
16.0
 40
16.0
 40
17.0
 40
17.0
 40
17.0
 40
18.0
 40
18.0
 40
18.0
 40
19.0
 40
19.0
 40
19.0
 40
20.0
 40
20.0
 40
20.0
 40
21.0
 40
21.0
 40
21.0
 40
22.0
 40
22.0
 40
22.0
 40
23.0
 40
23.0
 40
23.0
 40
24.0
 40
24.0
 40
24.0
 40
25.0
 40
25.0
 40
25.0
 40
26.0
 40
26.0
 40
26.0
 40
27.0
 40
27.0
 40
27.0
 40
28.0
 40
28.0
 40
28.0
 40
29.0
 40
29.0
 40
29.0
 40
29.0
 10
27.78979166666666
 20
-14.42134444444444
 30
0.0
 10
27.79426250000001
 20
-14.38366666666666
 30
0.0
 10
27.80170416666667
 20
-14.37207083333333
 30
0.0
 10
27.80725972222222
 20
-14.36545
 30
0.0
 10
27.81873333333333
 20
-14.35177222222223
 30
0.0
 10
27.82781805555555
 20
-14.35259305555556
 30
0.0
 10
27.83520694444444
 20
-14.33924861111111
 30
0.0
 10
27.84264583333334
 20
-14.32579861111112
 30
0.0
 10
27.83960833333333
 20
-14.31374583333334
 30
0.0
 10
27.83520694444444
 20
-14.28160555555555
 30
0.0
 10
27.83234166666667
 20
-14.26073333333333
 30
0.0
 10
27.82910972222223
 20
-14.23708194444445
 30
0.0
 10
27.82821805555555
 20
-14.21348472222222
 30
0.0
 10
27.82689166666667
 20
-14.17804444444444
 30
0.0
 10
27.82633333333333
 20
-14.15455
 30
0.0
 10
27.84219166666667
 20
-14.13837638888889
 30
0.0
 10
27.84490138888889
 20
-14.13561527777777
 30
0.0
 10
27.85646388888889
 20
-14.124525
 30
0.0
 10
27.87188750000001
 20
-14.12440277777778
 30
0.0
 10
27.88402777777777
 20
-14.12431527777778
 30
0.0
 10
27.88781666666667
 20
-14.13109166666666
 30
0.0
 10
27.90332916666667
 20
-14.13662916666667
 30
0.0
 10
27.92158194444444
 20
-14.14314444444445
 30
0.0
 10
27.93782777777778
 20
-14.14145
 30
0.0
 10
27.95048888888888
 20
-14.14012222222222
 30
0.0
 10
27.97915416666666
 20
-14.13711805555555
 30
0.0
 10
27.98264722222223
 20
-14.12709166666667
 30
0.0
 10
28.00114444444445
 20
-14.12964166666667
 30
0.0
 10
28.01475138888889
 20
-14.13151111111111
 30
0.0
 10
28.01745833333333
 20
-14.13757222222222
 30
0.0
 10
28.03782638888889
 20
-14.14885694444445
 30
0.0
 10
28.04496944444444
 20
-14.15282083333333
 30
0.0
 10
28.06965
 20
-14.16592222222222
 30
0.0
 10
28.10070833333333
 20
-14.17156388888889
 30
0.0
 10
28.11382500000001
 20
-14.17393888888889
 30
0.0
 10
28.14095277777778
 20
-14.17856805555555
 30
0.0
 10
28.17232361111112
 20
-14.16981666666667
 30
0.0
 10
28.18800833333333
 20
-14.16543194444445
 30
0.0
 10
28.18318888888888
 20
-14.1637375
 30
0.0
 10
28.22123055555554
 20
-14.14710972222223
 30
0.0
 10
28.26123194444444
 20
-14.12962499999999
 30
0.0
 10
28.2772125
 20
-14.12686527777777
 30
0.0
 10
28.29284722222221
 20
-14.12789583333333
 30
0.0
 10
28.30704722222223
 20
-14.12883888888888
 30
0.0
 10
28.31438333333332
 20
-14.12932777777778
 30
0.0
 10
28.32079583333332
 20
-14.13488194444445
 30
0.0
 10
28.34023472222222
 20
-14.15173888888888
 30
0.0
 10
28.31611249999999
 20
-14.18494305555555
 30
0.0
 10
28.32603472222223
 20
-14.23619305555556
 30
0.0
 10
28.33090694444445
 20
-14.2613625
 30
0.0
 10
28.33761388888888
 20
-14.25795694444444
 30
0.0
 10
28.35747499999999
 20
-14.30780694444444
 30
0.0
 10
28.36180833333333
 20
-14.31867083333333
 30
0.0
 10
28.376025
 20
-14.35474305555556
 30
0.0
 10
28.38367499999999
 20
-14.39164861111111
 30
0.0
 10
28.38596388888888
 20
-14.40269027777778
 30
0.0
 10
28.39392916666667
 20
-14.44403472222221
 30
0.0
 10
28.38542361111111
 20
-14.52090833333333
 30
0.0
 10
28.37904722222222
 20
-14.57861944444445
 30
0.0
 10
28.37326527777779
 20
-14.64368333333333
 30
0.0
 10
28.33651527777778
 20
-14.71653888888889
 30
0.0
 10
28.32331388888888
 20
-14.7427125
 30
0.0
 10
28.31151666666667
 20
-14.76543472222223
 30
0.0
 10
28.29224166666667
 20
-14.78629722222222
 30
0.0
 10
28.26737916666666
 20
-14.74939305555555
 30
0.0
 10
28.25401666666665
 20
-14.68899583333334
 30
0.0
 10
28.15483055555556
 20
-14.69616388888889
 30
0.0
 10
28.13019305555556
 20
-14.69794583333333
 30
0.0
 10
28.11084444444445
 20
-14.70489166666666
 30
0.0
 10
28.09893611111112
 20
-14.7101375
 30
0.0
 10
28.08702916666666
 20
-14.70489166666666
 30
0.0
 10
28.06767916666667
 20
-14.69794583333333
 30
0.0
 10
28.04304166666667
 20
-14.69616388888889
 30
0.0
 10
27.95417916666666
 20
-14.68974166666666
 30
0.0
 10
27.93421388888888
 20
-14.73756111111111
 30
0.0
 10
27.91314166666666
 20
-14.77412638888889
 30
0.0
 10
27.8996875
 20
-14.75885
 30
0.0
 10
27.88920555555556
 20
-14.74380138888889
 30
0.0
 10
27.87887361111111
 20
-14.72876666666667
 30
0.0
 10
27.8424375
 20
-14.67577083333333
 30
0.0
 10
27.82437638888888
 20
-14.62803472222222
 30
0.0
 10
27.81249861111111
 20
-14.59601666666667
 30
0.0
 10
27.80642083333333
 20
-14.57963194444445
 30
0.0
 10
27.8026125
 20
-14.56939722222223
 30
0.0
 10
27.798525
 20
-14.55409444444444
 30
0.0
 10
27.79494444444444
 20
-14.54068055555556
 30
0.0
 10
27.78180972222223
 20
-14.48857638888889
 30
0.0
 10
27.78979166666666
 20
-14.42134444444444
 30
0.0
  0
SPLINE
  5
44
330
1F
100
AcDbEntity
  8
_U+0421_U+043B_U+043E_U+0439 1
 62
    98
420
    66050
370
    35
100
AcDbSpline
210
0.0
220
0.0
230
1.0
 70
    11
 71
     3
 72
    20
 73
    16
 74
     0
 42
0.0000000001
 43
0.0000000001
 12
1.0
 22
0.0
 32
0.0
 13
1.0
 23
0.0
 33
0.0
 40
0.0
 40
0.0
 40
0.0
 40
0.0
 40
1.0
 40
1.0
 40
1.0
 40
2.0
 40
2.0
 40
2.0
 40
3.0
 40
3.0
 40
3.0
 40
4.0
 40
4.0
 40
4.0
 40
5.0
 40
5.0
 40
5.0
 40
5.0
 10
28.15835
 20
-14.8510375
 30
0.0
 10
28.11932916666666
 20
-14.85888055555555
 30
0.0
 10
28.06559722222222
 20
-14.86967638888889
 30
0.0
 10
28.00813055555555
 20
-14.84579861111111
 30
0.0
 10
27.98961944444444
 20
-14.83810416666667
 30
0.0
 10
27.97470555555555
 20
-14.82846805555555
 30
0.0
 10
27.96254583333333
 20
-14.81930555555555
 30
0.0
 10
28.00597638888889
 20
-14.80420277777777
 30
0.0
 10
28.04725972222223
 20
-14.78614027777778
 30
0.0
 10
28.09893611111112
 20
-14.78350138888888
 30
0.0
 10
28.15466527777777
 20
-14.78634583333333
 30
0.0
 10
28.19825277777777
 20
-14.80720694444444
 30
0.0
 10
28.24553888888888
 20
-14.82285833333333
 30
0.0
 10
28.21559166666667
 20
-14.83946111111111
 30
0.0
 10
28.18561944444446
 20
-14.84556111111111
 30
0.0
 10
28.15835
 20
-14.8510375
 30
0.0
  0
ENDSEC
  0
SECTION
  2
OBJECTS
  0
DICTIONARY
  5
C
330
0
100
AcDbDictionary
281
     1
  3
ACAD_GROUP
350
D
  3
ACAD_LAYOUT
350
1A
  3
ACAD_MATERIAL
350
3B
  3
ACAD_MLEADERSTYLE
350
46
  3
ACAD_MLINESTYLE
350
17
  3
ACAD_PLOTSETTINGS
350
19
  3
ACAD_PLOTSTYLENAME
350
E
  3
ACAD_TABLESTYLE
350
45
  3
ACAD_VISUALSTYLE
350
2A
  0
SUN
  5
3F
330
29
100
AcDbSun
 90
        1
290
     0
 63
     7
421
 16777215
 40
1.0
291
     1
 91
  2455826
 92
 54000000
292
     0
 70
     2
 71
   256
280
     1
  0
DICTIONARY
  5
D
102
{ACAD_REACTORS
330
C
102
}
330
C
100
AcDbDictionary
281
     1
  0
DICTIONARY
  5
1A
102
{ACAD_REACTORS
330
C
102
}
330
C
100
AcDbDictionary
281
     1
  3
Layout1
350
1E
  3
Layout2
350
26
  3
Model
350
22
  0
DICTIONARY
  5
3B
102
{ACAD_REACTORS
330
C
102
}
330
C
100
AcDbDictionary
281
     1
  3
ByBlock
350
3D
  3
ByLayer
350
3C
  3
Global
350
3E
  0
DICTIONARY
  5
46
102
{ACAD_REACTORS
330
C
102
}
330
C
100
AcDbDictionary
281
     1
  0
DICTIONARY
  5
17
102
{ACAD_REACTORS
330
C
102
}
330
C
100
AcDbDictionary
281
     1
  3
Standard
350
18
  0
DICTIONARY
  5
19
102
{ACAD_REACTORS
330
C
102
}
330
C
100
AcDbDictionary
281
     1
  0
ACDBDICTIONARYWDFLT
  5
E
102
{ACAD_REACTORS
330
C
102
}
330
C
100
AcDbDictionary
281
     1
  3
Normal
350
F
100
AcDbDictionaryWithDefault
340
F
  0
DICTIONARY
  5
45
102
{ACAD_REACTORS
330
C
102
}
330
C
100
AcDbDictionary
281
     1
  0
DICTIONARY
  5
2A
102
{ACAD_REACTORS
330
C
102
}
330
C
100
AcDbDictionary
281
     1
  3
2dWireframe
350
2F
  3
3D Hidden
350
31
  3
3dWireframe
350
30
  3
Basic
350
32
  3
Brighten
350
36
  3
ColorChange
350
3A
  3
Conceptual
350
34
  3
Dim
350
35
  3
Facepattern
350
39
  3
Flat
350
2B
  3
FlatWithEdges
350
2C
  3
Gouraud
350
2D
  3
GouraudWithEdges
350
2E
  3
Linepattern
350
38
  3
Realistic
350
33
  3
Thicken
350
37
  0
LAYOUT
  5
1E
102
{ACAD_REACTORS
330
1A
102
}
330
1A
100
AcDbPlotSettings
  1

  2
none_device
  4

  6

 40
0.0
 41
0.0
 42
0.0
 43
0.0
 44
0.0
 45
0.0
 46
0.0
 47
0.0
 48
0.0
 49
0.0
140
0.0
141
0.0
142
1.0
143
1.0
 70
   688
 72
     0
 73
     0
 74
     5
  7

 75
    16
 76
     0
 77
     2
 78
   300
147
1.0
148
0.0
149
0.0
100
AcDbLayout
  1
Layout1
 70
     1
 71
     1
 10
0.0
 20
0.0
 11
12.0
 21
9.0
 12
0.0
 22
0.0
 32
0.0
 14
1.000000000000000E+20
 24
1.000000000000000E+20
 34
1.000000000000000E+20
 15
-1.000000000000000E+20
 25
-1.000000000000000E+20
 35
-1.000000000000000E+20
146
0.0
 13
0.0
 23
0.0
 33
0.0
 16
1.0
 26
0.0
 36
0.0
 17
0.0
 27
1.0
 37
0.0
 76
     0
330
1B
  0
LAYOUT
  5
26
102
{ACAD_REACTORS
330
1A
102
}
330
1A
100
AcDbPlotSettings
  1

  2
none_device
  4

  6

 40
0.0
 41
0.0
 42
0.0
 43
0.0
 44
0.0
 45
0.0
 46
0.0
 47
0.0
 48
0.0
 49
0.0
140
0.0
141
0.0
142
1.0
143
1.0
 70
   688
 72
     0
 73
     0
 74
     5
  7

 75
    16
 76
     0
 77
     2
 78
   300
147
1.0
148
0.0
149
0.0
100
AcDbLayout
  1
Layout2
 70
     1
 71
     2
 10
0.0
 20
0.0
 11
0.0
 21
0.0
 12
0.0
 22
0.0
 32
0.0
 14
0.0
 24
0.0
 34
0.0
 15
0.0
 25
0.0
 35
0.0
146
0.0
 13
0.0
 23
0.0
 33
0.0
 16
1.0
 26
0.0
 36
0.0
 17
0.0
 27
1.0
 37
0.0
 76
     0
330
23
  0
LAYOUT
  5
22
102
{ACAD_REACTORS
330
1A
102
}
330
1A
100
AcDbPlotSettings
  1

  2
none_device
  4

  6

 40
0.0
 41
0.0
 42
0.0
 43
0.0
 44
0.0
 45
0.0
 46
0.0
 47
0.0
 48
0.0
 49
0.0
140
0.0
141
0.0
142
1.0
143
1.0
 70
  1712
 72
     0
 73
     0
 74
     0
  7

 75
     0
 76
     0
 77
     2
 78
   300
147
1.0
148
0.0
149
0.0
100
AcDbLayout
  1
Model
 70
     1
 71
     0
 10
0.0
 20
0.0
 11
12.0
 21
9.0
 12
0.0
 22
0.0
 32
0.0
 14
1.000000000000000E+20
 24
1.000000000000000E+20
 34
1.000000000000000E+20
 15
-1.000000000000000E+20
 25
-1.000000000000000E+20
 35
-1.000000000000000E+20
146
0.0
 13
0.0
 23
0.0
 33
0.0
 16
1.0
 26
0.0
 36
0.0
 17
0.0
 27
1.0
 37
0.0
 76
     0
330
1F
331
29
  0
MATERIAL
  5
3D
102
{ACAD_REACTORS
330
3B
102
}
330
3B
100
AcDbMaterial
  1
ByBlock
 72
     1
 94
      127
  0
MATERIAL
  5
3C
102
{ACAD_REACTORS
330
3B
102
}
330
3B
100
AcDbMaterial
  1
ByLayer
 72
     1
 94
      127
  0
MATERIAL
  5
3E
102
{ACAD_REACTORS
330
3B
102
}
330
3B
100
AcDbMaterial
  1
Global
 72
     1
 94
      127
  0
MLINESTYLE
  5
18
102
{ACAD_REACTORS
330
17
102
}
330
17
100
AcDbMlineStyle
  2
Standard
 70
     0
  3

 62
   256
 51
90.0
 52
90.0
 71
     2
 49
0.5
 62
   256
  6
BYLAYER
 49
-0.5
 62
   256
  6
BYLAYER
  0
ACDBPLACEHOLDER
  5
F
102
{ACAD_REACTORS
330
E
102
}
330
E
  0
VISUALSTYLE
  5
2F
102
{ACAD_REACTORS
330
2A
102
}
330
2A
100
AcDbVisualStyle
  2
2dWireframe
 70
     4
177
     2
291
     0
 71
     0
176
     1
 72
     2
176
     1
 73
     0
176
     1
 90
        0
176
     1
 40
-0.6
176
     1
 41
-30.0
176
     1
 62
     5
 63
     7
421
 16777215
176
     1
 74
     1
176
     1
 91
        4
176
     1
 64
     7
176
     1
 65
   257
176
     1
 75
     1
176
     1
175
     1
176
     1
 42
1.0
176
     1
 92
        0
176
     1
 66
   257
176
     1
 43
1.0
176
     1
 76
     1
176
     1
 77
     6
176
     1
 78
     2
176
     1
 67
     7
176
     1
 79
     5
176
     1
170
     0
176
     1
171
     0
176
     1
290
     0
176
     1
 93
        1
176
     1
 44
0.0
176
     1
173
     0
176
     1
  0
VISUALSTYLE
  5
31
102
{ACAD_REACTORS
330
2A
102
}
330
2A
100
AcDbVisualStyle
  2
3D Hidden
 70
     6
177
     2
291
     0
 71
     1
176
     1
 72
     2
176
     1
 73
     2
176
     1
 90
        0
176
     1
 40
-0.6
176
     1
 41
-30.0
176
     1
 62
     5
 63
     7
421
 16777215
176
     1
 74
     2
176
     1
 91
        2
176
     1
 64
     7
176
     1
 65
   257
176
     1
 75
     2
176
     1
175
     1
176
     1
 42
40.0
176
     1
 92
        0
176
     1
 66
   257
176
     1
 43
1.0
176
     1
 76
     1
176
     1
 77
     6
176
     1
 78
     2
176
     1
 67
     7
176
     1
 79
     3
176
     1
170
     0
176
     1
171
     0
176
     1
290
     0
176
     1
 93
        1
176
     1
 44
0.0
176
     1
173
     0
176
     1
  0
VISUALSTYLE
  5
30
102
{ACAD_REACTORS
330
2A
102
}
330
2A
100
AcDbVisualStyle
  2
3dWireframe
 70
     5
177
     2
291
     0
 71
     0
176
     1
 72
     2
176
     1
 73
     0
176
     1
 90
        0
176
     1
 40
-0.6
176
     1
 41
-30.0
176
     1
 62
     5
 63
     7
421
 16777215
176
     1
 74
     1
176
     1
 91
        4
176
     1
 64
     7
176
     1
 65
   257
176
     1
 75
     1
176
     1
175
     1
176
     1
 42
1.0
176
     1
 92
        0
176
     1
 66
   257
176
     1
 43
1.0
176
     1
 76
     1
176
     1
 77
     6
176
     1
 78
     2
176
     1
 67
     7
176
     1
 79
     5
176
     1
170
     0
176
     1
171
     0
176
     1
290
     0
176
     1
 93
        1
176
     1
 44
0.0
176
     1
173
     0
176
     1
  0
VISUALSTYLE
  5
32
102
{ACAD_REACTORS
330
2A
102
}
330
2A
100
AcDbVisualStyle
  2
Basic
 70
     7
177
     2
291
     1
 71
     1
176
     1
 72
     0
176
     1
 73
     1
176
     1
 90
        0
176
     1
 40
-0.6
176
     1
 41
-30.0
176
     1
 62
     5
 63
     7
421
 16777215
176
     1
 74
     0
176
     1
 91
        4
176
     1
 64
     7
176
     1
 65
   257
176
     1
 75
     1
176
     1
175
     1
176
     1
 42
1.0
176
     1
 92
        8
176
     1
 66
     7
176
     1
 43
1.0
176
     1
 76
     1
176
     1
 77
     6
176
     1
 78
     2
176
     1
 67
     7
176
     1
 79
     5
176
     1
170
     0
176
     1
171
     0
176
     1
290
     0
176
     1
 93
        1
176
     1
 44
0.0
176
     1
173
     0
176
     1
  0
VISUALSTYLE
  5
36
102
{ACAD_REACTORS
330
2A
102
}
330
2A
100
AcDbVisualStyle
  2
Brighten
 70
    12
177
     2
291
     1
 71
     2
176
     1
 72
     2
176
     1
 73
     0
176
     1
 90
        0
176
     1
 40
-0.6
176
     1
 41
-30.0
176
     1
 62
     5
 63
     7
421
 16777215
176
     1
 74
     1
176
     1
 91
        4
176
     1
 64
     7
176
     1
 65
   257
176
     1
 75
     1
176
     1
175
     1
176
     1
 42
1.0
176
     1
 92
        8
176
     1
 66
     7
176
     1
 43
1.0
176
     1
 76
     1
176
     1
 77
     6
176
     1
 78
     2
176
     1
 67
     7
176
     1
 79
     5
176
     1
170
     0
176
     1
171
     0
176
     1
290
     0
176
     1
 93
        1
176
     1
 44
50.0
176
     1
173
     0
176
     1
  0
VISUALSTYLE
  5
3A
102
{ACAD_REACTORS
330
2A
102
}
330
2A
100
AcDbVisualStyle
  2
ColorChange
 70
    16
177
     2
291
     1
 71
     2
176
     1
 72
     2
176
     1
 73
     3
176
     1
 90
        0
176
     1
 40
-0.6
176
     1
 41
-30.0
176
     1
 62
     5
 63
     8
421
  8421504
176
     1
 74
     1
176
     1
 91
        4
176
     1
 64
     7
176
     1
 65
   257
176
     1
 75
     1
176
     1
175
     1
176
     1
 42
1.0
176
     1
 92
        8
176
     1
 66
     8
424
  8421504
176
     1
 43
1.0
176
     1
 76
     1
176
     1
 77
     6
176
     1
 78
     2
176
     1
 67
     7
176
     1
 79
     5
176
     1
170
     0
176
     1
171
     0
176
     1
290
     0
176
     1
 93
        1
176
     1
 44
0.0
176
     1
173
     0
176
     1
  0
VISUALSTYLE
  5
34
102
{ACAD_REACTORS
330
2A
102
}
330
2A
100
AcDbVisualStyle
  2
Conceptual
 70
     9
177
     2
291
     0
 71
     3
176
     1
 72
     2
176
     1
 73
     0
176
     1
 90
        0
176
     1
 40
-0.6
176
     1
 41
-30.0
176
     1
 62
     5
 63
     7
421
 16777215
176
     1
 74
     2
176
     1
 91
        2
176
     1
 64
     7
176
     1
 65
   257
176
     1
 75
     1
176
     1
175
     1
176
     1
 42
40.0
176
     1
 92
        8
176
     1
 66
     7
176
     1
 43
1.0
176
     1
 76
     1
176
     1
 77
     6
176
     1
 78
     2
176
     1
 67
     7
176
     1
 79
     3
176
     1
170
     0
176
     1
171
     0
176
     1
290
     0
176
     1
 93
        1
176
     1
 44
0.0
176
     1
173
     0
176
     1
  0
VISUALSTYLE
  5
35
102
{ACAD_REACTORS
330
2A
102
}
330
2A
100
AcDbVisualStyle
  2
Dim
 70
    11
177
     2
291
     1
 71
     2
176
     1
 72
     2
176
     1
 73
     0
176
     1
 90
        0
176
     1
 40
-0.6
176
     1
 41
-30.0
176
     1
 62
     5
 63
     7
421
 16777215
176
     1
 74
     1
176
     1
 91
        4
176
     1
 64
     7
176
     1
 65
   257
176
     1
 75
     1
176
     1
175
     1
176
     1
 42
1.0
176
     1
 92
        8
176
     1
 66
     7
176
     1
 43
1.0
176
     1
 76
     1
176
     1
 77
     6
176
     1
 78
     2
176
     1
 67
     7
176
     1
 79
     5
176
     1
170
     0
176
     1
171
     0
176
     1
290
     0
176
     1
 93
        1
176
     1
 44
-50.0
176
     1
173
     0
176
     1
  0
VISUALSTYLE
  5
39
102
{ACAD_REACTORS
330
2A
102
}
330
2A
100
AcDbVisualStyle
  2
Facepattern
 70
    15
177
     2
291
     1
 71
     2
176
     1
 72
     2
176
     1
 73
     0
176
     1
 90
        0
176
     1
 40
-0.6
176
     1
 41
-30.0
176
     1
 62
     5
 63
     7
421
 16777215
176
     1
 74
     1
176
     1
 91
        4
176
     1
 64
     7
176
     1
 65
   257
176
     1
 75
     1
176
     1
175
     1
176
     1
 42
1.0
176
     1
 92
        8
176
     1
 66
     7
176
     1
 43
1.0
176
     1
 76
     1
176
     1
 77
     6
176
     1
 78
     2
176
     1
 67
     7
176
     1
 79
     5
176
     1
170
     0
176
     1
171
     0
176
     1
290
     0
176
     1
 93
        1
176
     1
 44
0.0
176
     1
173
     0
176
     1
  0
VISUALSTYLE
  5
2B
102
{ACAD_REACTORS
330
2A
102
}
330
2A
100
AcDbVisualStyle
  2
Flat
 70
     0
177
     2
291
     1
 71
     2
176
     1
 72
     1
176
     1
 73
     1
176
     1
 90
        2
176
     1
 40
-0.6
176
     1
 41
30.0
176
     1
 62
     5
 63
     7
421
 16777215
176
     1
 74
     0
176
     1
 91
        4
176
     1
 64
     7
176
     1
 65
   257
176
     1
 75
     1
176
     1
175
     1
176
     1
 42
1.0
176
     1
 92
        8
176
     1
 66
     7
176
     1
 43
1.0
176
     1
 76
     1
176
     1
 77
     6
176
     1
 78
     2
176
     1
 67
     7
176
     1
 79
     5
176
     1
170
     0
176
     1
171
     0
176
     1
290
     0
176
     1
 93
       13
176
     1
 44
0.0
176
     1
173
     0
176
     1
  0
VISUALSTYLE
  5
2C
102
{ACAD_REACTORS
330
2A
102
}
330
2A
100
AcDbVisualStyle
  2
FlatWithEdges
 70
     1
177
     2
291
     1
 71
     2
176
     1
 72
     1
176
     1
 73
     1
176
     1
 90
        2
176
     1
 40
-0.6
176
     1
 41
30.0
176
     1
 62
     5
 63
     7
421
 16777215
176
     1
 74
     1
176
     1
 91
        4
176
     1
 64
     7
176
     1
 65
   257
176
     1
 75
     1
176
     1
175
     1
176
     1
 42
1.0
176
     1
 92
        0
176
     1
 66
   257
176
     1
 43
1.0
176
     1
 76
     1
176
     1
 77
     6
176
     1
 78
     2
176
     1
 67
     7
176
     1
 79
     5
176
     1
170
     0
176
     1
171
     0
176
     1
290
     0
176
     1
 93
       13
176
     1
 44
0.0
176
     1
173
     0
176
     1
  0
VISUALSTYLE
  5
2D
102
{ACAD_REACTORS
330
2A
102
}
330
2A
100
AcDbVisualStyle
  2
Gouraud
 70
     2
177
     2
291
     1
 71
     2
176
     1
 72
     2
176
     1
 73
     1
176
     1
 90
        2
176
     1
 40
-0.6
176
     1
 41
30.0
176
     1
 62
     5
 63
     7
421
 16777215
176
     1
 74
     0
176
     1
 91
        4
176
     1
 64
     7
176
     1
 65
   257
176
     1
 75
     1
176
     1
175
     1
176
     1
 42
1.0
176
     1
 92
        0
176
     1
 66
     7
176
     1
 43
1.0
176
     1
 76
     1
176
     1
 77
     6
176
     1
 78
     2
176
     1
 67
     7
176
     1
 79
     5
176
     1
170
     0
176
     1
171
     0
176
     1
290
     0
176
     1
 93
       13
176
     1
 44
0.0
176
     1
173
     0
176
     1
  0
VISUALSTYLE
  5
2E
102
{ACAD_REACTORS
330
2A
102
}
330
2A
100
AcDbVisualStyle
  2
GouraudWithEdges
 70
     3
177
     2
291
     1
 71
     2
176
     1
 72
     2
176
     1
 73
     1
176
     1
 90
        2
176
     1
 40
-0.6
176
     1
 41
30.0
176
     1
 62
     5
 63
     7
421
 16777215
176
     1
 74
     1
176
     1
 91
        4
176
     1
 64
     7
176
     1
 65
   257
176
     1
 75
     1
176
     1
175
     1
176
     1
 42
1.0
176
     1
 92
        0
176
     1
 66
   257
176
     1
 43
1.0
176
     1
 76
     1
176
     1
 77
     6
176
     1
 78
     2
176
     1
 67
     7
176
     1
 79
     5
176
     1
170
     0
176
     1
171
     0
176
     1
290
     0
176
     1
 93
       13
176
     1
 44
0.0
176
     1
173
     0
176
     1
  0
VISUALSTYLE
  5
38
102
{ACAD_REACTORS
330
2A
102
}
330
2A
100
AcDbVisualStyle
  2
Linepattern
 70
    14
177
     2
291
     1
 71
     2
176
     1
 72
     2
176
     1
 73
     0
176
     1
 90
        0
176
     1
 40
-0.6
176
     1
 41
-30.0
176
     1
 62
     5
 63
     7
421
 16777215
176
     1
 74
     1
176
     1
 91
        4
176
     1
 64
     7
176
     1
 65
   257
176
     1
 75
     7
176
     1
175
     7
176
     1
 42
1.0
176
     1
 92
        8
176
     1
 66
     7
176
     1
 43
1.0
176
     1
 76
     1
176
     1
 77
     6
176
     1
 78
     2
176
     1
 67
     7
176
     1
 79
     5
176
     1
170
     0
176
     1
171
     0
176
     1
290
     0
176
     1
 93
        1
176
     1
 44
0.0
176
     1
173
     0
176
     1
  0
VISUALSTYLE
  5
33
102
{ACAD_REACTORS
330
2A
102
}
330
2A
100
AcDbVisualStyle
  2
Realistic
 70
     8
177
     2
291
     0
 71
     2
176
     1
 72
     2
176
     1
 73
     0
176
     1
 90
        0
176
     1
 40
-0.6
176
     1
 41
-30.0
176
     1
 62
     5
 63
     7
421
 16777215
176
     1
 74
     1
176
     1
 91
        0
176
     1
 64
     7
176
     1
 65
   257
176
     1
 75
     1
176
     1
175
     1
176
     1
 42
1.0
176
     1
 92
        8
176
     1
 66
     8
424
  7895160
176
     1
 43
1.0
176
     1
 76
     1
176
     1
 77
     6
176
     1
 78
     2
176
     1
 67
     7
176
     1
 79
     5
176
     1
170
     0
176
     1
171
     0
176
     1
290
     0
176
     1
 93
       13
176
     1
 44
0.0
176
     1
173
     0
176
     1
  0
VISUALSTYLE
  5
37
102
{ACAD_REACTORS
330
2A
102
}
330
2A
100
AcDbVisualStyle
  2
Thicken
 70
    13
177
     2
291
     1
 71
     2
176
     1
 72
     2
176
     1
 73
     0
176
     1
 90
        0
176
     1
 40
-0.6
176
     1
 41
-30.0
176
     1
 62
     5
 63
     7
421
 16777215
176
     1
 74
     1
176
     1
 91
        4
176
     1
 64
     7
176
     1
 65
   257
176
     1
 75
     1
176
     1
175
     1
176
     1
 42
1.0
176
     1
 92
       12
176
     1
 66
     7
176
     1
 43
1.0
176
     1
 76
     1
176
     1
 77
     6
176
     1
 78
     2
176
     1
 67
     7
176
     1
 79
     5
176
     1
170
     0
176
     1
171
     0
176
     1
290
     0
176
     1
 93
        1
176
     1
 44
0.0
176
     1
173
     0
176
     1
  0
ENDSEC
  0
EOF
