<?xml version="1.0" encoding="utf-8"?>
<!-- Generator: Adobe Illustrator 21.1.0, SVG Export Plug-In . SVG Version: 6.00 Build 0)  -->
<svg version="1.1" id="Слой_2" xmlns="http://www.w3.org/2000/svg" xmlns:xlink="http://www.w3.org/1999/xlink" x="0px" y="0px"
	 viewBox="0 0 864 864" enable-background="new 0 0 864 864" xml:space="preserve">
<path fill="none" stroke="#C1272D" stroke-miterlimit="10" d="M750.285,110.864h-89.984c0.106-1.074,0.162-2.163,0.162-3.266
	c0-18.225-14.775-33-33-33s-33,14.775-33,33c0,1.102,0.057,2.191,0.162,3.266h-89.983c-22.424,0-40.602,18.178-40.602,40.602
	v597.333c0,22.424,18.178,40.602,40.602,40.602h245.643c22.424,0,40.602-18.178,40.602-40.602V151.466
	C790.887,129.042,772.709,110.864,750.285,110.864z M627.464,90.515c9.435,0,17.083,7.648,17.083,17.083
	s-7.648,17.083-17.083,17.083s-17.083-7.648-17.083-17.083S618.029,90.515,627.464,90.515z M499.583,301.54
	c4.081-35.248,18.679-73.031,39.05-101.071c79.237-109.062,189.795-21.125,212.978,117.283c1.226,7.492-12.441,6.117-13.957-0.252
	c-7.711-43.601-24.707-83.121-47.856-111.282c-82.804-100.728-165.521,4.541-176.556,96.461
	C512.107,310.848,498.545,308.598,499.583,301.54z M752.457,343.698c-1.949,3.01-5.969,3.87-8.979,1.921
	c-3.01-1.949-3.87-5.969-1.921-8.979c1.949-3.01,5.969-3.87,8.979-1.921C753.546,336.668,754.406,340.688,752.457,343.698z
	 M633.538,381.1c-0.105-1.867,1.526-3.477,3.641-3.595l31.66-1.773c2.27-0.127,3.568-2.376,2.335-4.047l-22.717-30.815
	c-1.113-1.509,0.059-3.539,2.109-3.654l7.75-0.434c2.27-0.127,3.568-2.376,2.336-4.047c-19.691-26.709-19.537-26.5-24.342-33.018
	c-1.113-1.509,0.059-3.539,2.109-3.654l5.048-0.283c2.27-0.127,3.568-2.376,2.336-4.047l-21.749-29.501
	c-1.232-1.672-4.07-1.513-5.108,0.286l-18.319,31.744c-1.038,1.799,0.503,3.888,2.773,3.761l4.46-0.25
	c2.05-0.115,3.441,1.772,2.503,3.396c-8.071,13.986-10.108,17.515-20.504,35.53c-1.038,1.799,0.503,3.888,2.773,3.761l7.75-0.434
	c2.05-0.115,3.441,1.772,2.503,3.396l-19.135,33.158c-1.038,1.799,0.503,3.888,2.773,3.761l31.66-1.773
	c2.115-0.118,3.915,1.299,4.02,3.166c3.412,37.636-10.165,19.641-10.849,7.435c-24.632,1.38-23.258,1.319-23.989,1.317
	c-10.847-0.03-17.818-11.478-12.4-20.865l11.404-19.759c-6.748-3.693-9.459-12.138-5.453-19.081l13.709-23.756
	c-5.102-4.199-6.731-11.496-3.223-17.574l17.841-30.914c5.133-8.901,18.034-9.628,24.136-1.353l21.183,28.733
	c4.109,5.576,3.462,13.303-1.582,18.17l16.044,21.762c4.622,6.272,3.143,15.06-3.286,19.576l13.531,18.354
	c6.579,8.919,0.496,21.56-10.861,22.195l-23.116,1.294C645.963,399.281,633.017,418.33,633.538,381.1z M637.171,444.251
	c-1.949,3.01-5.969,3.87-8.979,1.921c-3.01-1.949-3.87-5.969-1.921-8.979c1.949-3.01,5.969-3.87,8.979-1.921
	C638.26,437.221,639.12,441.241,637.171,444.251z M548.72,322.859c0.831,34.195,5.056,82.928,20.466,120.896
	c1.527,3.763,5.159,6.194,9.253,6.194c5.733,0,9.079-5.201,28.463-12.068c6.268-3.095,11.018,10.155,2.279,14.013
	c-9.431,3.768-19.458,7.808-34.08,17.583c-4.264,2.851-7.741,1.515-9.288-1.216c-23.526-41.528-29.717-101.807-30.769-145.062
	c-1.146-46.322,26.168-105.897,58.451-127.491c6.082-4.069,14.8,5.828,3.565,14.255C569.88,231.668,547.743,283.368,548.72,322.859z
	 M613.877,192.636c1.949-3.01,5.969-3.87,8.979-1.921c3.01,1.949,3.87,5.969,1.921,8.979c-1.949,3.01-5.969,3.87-8.979,1.921
	C612.788,199.666,611.928,195.646,613.877,192.636z M657.043,434.611c8.864,1.895,18.742,5.048,31.085,9.924
	c5.888,2.328,12.454-1.332,13.573-7.646c21.55-121.613-23.431-202.804-58.993-227.753c-10.038-6.288-4.333-18.44,2.358-14.5
	c47.869,28.172,97.813,128.937,66.205,263.924c-3.324,14.201-26.232-2.532-54.923-10.002
	C648.67,445.661,651.999,433.535,657.043,434.611z M499.661,321.995c1.949-3.01,5.969-3.87,8.979-1.921
	c3.01,1.949,3.87,5.969,1.921,8.979c-1.949,3.01-5.969,3.87-8.979,1.921C498.572,329.025,497.712,325.005,499.661,321.995z
	 M714.285,695.653c-15.65,52.698-53.002,79.412-110.553,69.976c-50.238-8.234-74.893-33.897-77.589-80.764
	c-0.472-8.266,12.34-10.079,13.533,0.113c4.044,50.097,35.37,62.087,66.269,67.151c29.05,4.764,55.766,0.112,75.003-21.715
	c8.388-9.517,14.31-22.1,19.683-36.688C703.462,684.203,715.962,688.369,714.285,695.653z M527.729,655.464
	c1.949-3.01,5.969-3.87,8.979-1.921c3.01,1.949,3.87,5.969,1.921,8.979c-1.949,3.01-5.969,3.87-8.979,1.921
	C526.64,662.494,525.78,658.474,527.729,655.464z M608.527,658.398l5.453,7.056c1.335,1.728,4.093,0.979,4.37-1.187
	c1.559-12.163,2.355-8.848-3.579-16.972c-2.306-3.157,2.291-6.422,4.48-3.425l2.191,3c0.915,1.253,2.694,1.481,3.896,0.499
	l2.784-2.274c3.043-2.486,6.522,1.952,3.661,4.29c-5.684,4.643-6.47,4.914-6.706,6.753l-1.134,8.846
	c-0.278,2.166,2.202,3.586,3.93,2.251c9.703-7.498,7.922-4.593,9.47-14.532c0.604-3.879,6.16-2.915,5.59,0.745l-0.572,3.671
	c-0.239,1.533,0.858,2.952,2.402,3.108l3.696,0.372c3.682,0.376,3.218,5.991-0.682,5.598c-10.141-1.022-6.901-1.886-16.457,5.498
	c-1.728,1.335-0.979,4.093,1.187,4.37c12.163,1.559,8.848,2.355,16.974-3.581c3.172-2.317,6.408,2.301,3.423,4.482l-3,2.192
	c-1.253,0.915-1.481,2.694-0.499,3.896l2.269,2.778c2.431,2.976-1.906,6.579-4.285,3.666c-4.643-5.684-4.914-6.47-6.753-6.706
	l-8.846-1.134c-2.166-0.278-3.586,2.202-2.251,3.93l5.453,7.056c1.122,1.452,1.897,1.295,9.201,2.433
	c3.658,0.571,2.89,6.156-0.985,5.553l-3.553-0.553c-1.533-0.239-2.952,0.858-3.108,2.402l-0.362,3.595
	c-0.391,3.881-5.991,3.212-5.62-0.464c0.736-7.302,1.1-8.05-0.034-9.517l-5.453-7.056c-1.335-1.728-4.093-0.979-4.37,1.187
	c-1.561,12.175-2.335,8.876,3.575,16.966c2.316,3.171-2.289,6.425-4.475,3.432l-2.192-3c-0.915-1.253-2.694-1.481-3.896-0.499
	c-2.902,2.371-3.61,3.316-5.317,2.909c-2.306-0.55-2.892-3.484-1.027-5.007c7.822-6.389,6.172-3.292,7.739-15.517
	c0.278-2.166-2.202-3.586-3.93-2.251c-9.718,7.51-7.925,4.616-9.475,14.565c-0.599,3.844-6.151,2.859-5.585-0.779l0.572-3.671
	c0.239-1.533-0.858-2.952-2.402-3.108c-0.316-0.032-3.773-0.365-4.071-0.436c-3.375-0.805-2.592-5.903,1.068-5.534
	c10.049,1.013,6.693,2.037,16.445-5.499c1.728-1.335,0.979-4.093-1.187-4.371c-9.466-1.213-9.929-1.566-11.43-0.469
	c-5.948,4.345-6.32,4.978-7.96,4.587c-2.378-0.567-2.902-3.634-0.909-5.09l2.901-2.119c1.253-0.915,1.481-2.694,0.499-3.896
	l-2.35-2.877c-1.043-1.277-0.781-3.192,0.623-4.132c4.138-2.769,6.495,6.758,10.497,7.271l8.845,1.134
	c2.166,0.278,3.586-2.202,2.251-3.93c-7.516-9.726-4.598-7.923-14.654-9.489c-3.662-0.572-2.88-6.155,0.974-5.555l3.564,0.555
	c1.533,0.239,2.952-0.858,3.108-2.402l0.361-3.577c0.392-3.891,5.993-3.244,5.622,0.446
	C607.758,656.183,607.393,656.93,608.527,658.398z M620.119,626.895c1.949-3.01,5.969-3.87,8.979-1.921s3.87,5.969,1.921,8.979
	s-5.969,3.87-8.979,1.921C619.03,633.924,618.17,629.904,620.119,626.895z M651.333,642.658
	c-10.792-0.357-7.176-13.723,1.188-13.574c8.649,0.154,17.655,0.381,25.734,0.701c7.256,0,10.847,5.999,10.847,12.122
	c-0.236,37.623-11.045,82.658-48.747,89.651c-9.401,1.744-6.382-12.581-0.157-13.929c24.773-5.364,33-39.34,34.784-64.756
	C675.805,641.119,661.517,642.995,651.333,642.658z M617.411,729.246c-1.949,3.01-5.969,3.87-8.979,1.921
	c-3.01-1.949-3.87-5.969-1.921-8.979c1.949-3.01,5.969-3.87,8.979-1.921C618.5,722.217,619.36,726.237,617.411,729.246z
	 M594.074,634.808c-4.202-1.082-16.449-5.882-18.666,5.121c-4.274,21.216-10.366,63.922,10.059,71.194
	c6.882,2.451,6.152,14.86-2.295,13.803c-35.422-10.11-26.466-66.309-17.932-102.131c2.67-11.207,19.227-4.599,31.339-1.401
	C605.339,623.459,604.495,637.269,594.074,634.808z M718.962,673.522c-1.949,3.01-5.969,3.87-8.979,1.921
	c-3.01-1.949-3.87-5.969-1.921-8.979c1.949-3.01,5.969-3.87,8.979-1.921C720.051,666.493,720.911,670.513,718.962,673.522z
	 M721.764,646.283c-0.302,6.818-13.905,6.217-13.604-0.602c0.385-8.697-0.038-17.696-0.825-26.731
	c-0.439-5.04-4.227-9.262-9.21-10.268c-9.497-1.917-23.377-2.234-36.8-2.54c-29.889-0.682-31.082-1.035-56.781-7.825
	c-13.156-3.477-28.067-7.417-39.223-8.663c-5.595-0.629-10.767,2.941-12.301,8.205c-3.942,13.521-7.21,26.232-9.293,37.859
	c-1.162,6.485-14.936,6.242-13.531-1.689c4.35-24.565,12.569-49.304,13.199-51.576c4.321-18.135,66.81,4.794,88.216,8.298
	c24.955,4.083,83.568-2.984,88.248,16.666C721.507,620.469,722.327,633.552,721.764,646.283z M616.99,557.633
	c3.945,0.319,14.01-13.882,14.788-14.882c3.799-8.987,10.895-13.79,16.183-10.954c2.615,1.646,2.677,5.583-3.323,5.49
	c-6.979,0.622-9.685,10.43-6.858,12.933c6.015,5.327,23.145-27.457,22.075-14.3c-0.144,1.772-3.276,8.543-4.479,12.514
	c-0.279,0.92,0.849,1.618,1.547,0.958c1.122-1.06,2.379-2.484,2.953-3.344c0.753-1.13,7.962-13.458,11.614-13.161
	c1.377,0.111,2.422,1.342,2.311,2.72c-0.16,1.976-6.803,10.296-7.381,17.421c-0.117,1.438-0.091,1.861,0.268,1.891
	c6.107,0.496,19.054-20.874,22.167-20.621c1.317,0.106,2.318,0.574,2.141,2.585c-0.091,1.036-6.236,12.971-7.292,18.513
	c-0.086,0.454,0.372,0.829,0.803,0.662c2.839-1.097,6.949-4.801,9.619-11.294c2.761-6.715,10.715-10.915,15.584-10.52
	c3.021,0.245,3.621,3.308,1.441,4.517c-0.374,0.15-9.757,2.885-10.346,10.129c-0.122,1.497,0.985,4.272,1.776,5.662
	c12.196,19.421-5.738,32.985-16.59,32.104c-5.09-0.413-9.358-4.256-8.892-10.004c0.224-2.76,6.448-4.436,6.111-0.287
	c-0.333,4.101,20.426,5.629,10.718-22.154c-3.625,4.312-9.149,9.471-12.861,9.17c-5.09-0.414-5.304-7.423-5.304-7.423
	c-8.988,9.619-16.759,6.593-17.503-0.895c-6.708,5.889-11.032,1.236-10.888-4.966c0,0-6.484,7.852-11.753,7.423
	c-2.849-0.231-4.53-2.083-5.157-4.751c-4.526,5.944-10.417,12.106-15.714,11.675c-9.901-0.805-8.912-19.679,11.192-48.755
	c2.04-2.848,2.955-3.737,4.093-3.646c1.776,0.145,2.667,2.031,1.554,3.863C631.115,516.907,611.422,557.181,616.99,557.633z
	 M607.57,521.329c-0.112-2.581-1.756-4.434-4.696-4.306c-9.123,0.396-23.793,19.851-23.051,36.957
	c0.169,3.901,1.39,8.479,5.291,8.309c10.083-0.437,13.075-17.403,16.796-17.565c1.38-0.059,2.865,0.899,2.953,2.94
	c0.099,2.28-7.079,21.172-21.363,21.791c-8.163,0.353-12.689-6.966-13.069-15.729c-0.559-21.202,17.812-42.684,31.436-43.274
	c5.461-0.237,10.61,3.388,10.885,9.75C612.995,525.806,607.843,527.668,607.57,521.329z M735.567,504.974
	c-2.335,7.501-6.482,11.072-53.076-8.227c-44.649-18.492-49.664-20.62-91.912,5.604c-16.628,10.321-30.528,18.852-37.169,11.571
	c-30.197-33.109-48.784-89.497-53.75-163.068c-0.552-7.192,13.386-7.692,13.715,0.204c4.528,64.69,19.086,113.609,43.272,145.397
	c1.862,2.446,4.799,3.906,7.854,3.906c3.041,0.001,4.296-0.65,18.481-9.378c45.49-27.991,55.039-27.626,102.067-7.915
	c9.242,3.874,18.798,7.879,28.883,11.191c5.417,1.774,11.054-1.408,12.531-6.666c11.714-41.511,17.109-82.42,16.034-121.589
	c-0.015-7.28,13.422-9.03,13.695,0.307C757.313,411.023,750.374,457.677,735.567,504.974z"/>
<path fill="none" stroke="#C1272D" stroke-miterlimit="10" d="M391.325,110.864h-89.984c0.106-1.074,0.162-2.163,0.162-3.266
	c0-18.225-14.775-33-33-33c-19.473,0-34.753,16.781-32.838,36.266h-89.983c-22.424,0-40.602,18.178-40.602,40.602v597.333
	c0,22.424,18.178,40.602,40.602,40.602h245.643c22.424,0,40.602-18.178,40.602-40.602V151.466
	C431.927,129.042,413.749,110.864,391.325,110.864z M268.504,90.515c9.435,0,17.083,7.648,17.083,17.083
	s-7.648,17.083-17.083,17.083s-17.083-7.648-17.083-17.083S259.069,90.515,268.504,90.515z M137.934,316.863
	C161.118,178.456,271.675,90.519,350.912,199.58c20.372,28.04,34.97,65.823,39.05,101.071c1.038,7.059-12.525,9.309-13.659,1.139
	c-11.035-91.92-93.752-197.19-176.556-96.461c-23.15,28.161-40.146,67.682-47.856,111.282
	C150.375,322.981,136.708,324.356,137.934,316.863z M305.798,375.691l-19.135-33.158c-0.937-1.624,0.453-3.51,2.503-3.396
	l7.75,0.434c2.27,0.127,3.811-1.962,2.773-3.761c-10.396-18.015-12.433-21.544-20.504-35.53c-0.937-1.624,0.453-3.51,2.503-3.396
	l4.46,0.25c2.27,0.127,3.811-1.962,2.773-3.761l-18.319-31.744c-1.038-1.799-3.876-1.958-5.108-0.286l-21.749,29.501
	c-1.232,1.671,0.065,3.92,2.336,4.047l5.048,0.283c2.05,0.115,3.221,2.145,2.109,3.654c-4.805,6.518-4.652,6.31-24.342,33.018
	c-1.232,1.671,0.065,3.92,2.336,4.047l7.75,0.434c2.05,0.115,3.221,2.145,2.109,3.654l-22.717,30.815
	c-1.232,1.672,0.065,3.92,2.335,4.047l31.66,1.773c2.116,0.118,3.746,1.728,3.641,3.595c0.521,37.23-12.425,18.181-11.751,6.17
	l-23.116-1.294c-11.357-0.636-17.44-13.276-10.861-22.195l13.531-18.354c-6.429-4.516-7.907-13.303-3.286-19.576l16.044-21.762
	c-5.044-4.867-5.69-12.594-1.582-18.17l21.183-28.733c6.102-8.275,19.003-7.547,24.136,1.353l17.841,30.914
	c3.508,6.078,1.879,13.375-3.223,17.574l13.709,23.756c4.006,6.943,1.295,15.388-5.453,19.081l11.404,19.759
	c5.419,9.387-1.553,20.836-12.4,20.865c-0.731,0.002,0.643,0.062-23.989-1.317c-0.684,12.205-14.262,30.201-10.849-7.435
	c0.105-1.867,1.904-3.284,4.02-3.166l31.66,1.773C305.295,379.58,306.836,377.49,305.798,375.691z M261.353,445.283
	c-3.01,1.949-7.03,1.089-8.979-1.921c-1.949-3.01-1.089-7.03,1.921-8.979s7.03-1.089,8.979,1.921
	C265.223,439.314,264.363,443.334,261.353,445.283z M187.844,436.001c1.119,6.314,7.686,9.974,13.573,7.646
	c12.344-4.876,22.221-8.03,31.085-9.924c5.044-1.076,8.373,11.05,0.694,13.946c-28.691,7.471-51.599,24.203-54.923,10.002
	c-31.607-134.987,18.336-235.752,66.205-263.924c6.691-3.94,12.396,8.212,2.358,14.5
	C211.275,233.197,166.293,314.388,187.844,436.001z M266.689,189.827c3.01-1.949,7.03-1.089,8.979,1.921s1.089,7.03-1.921,8.979
	c-3.01,1.949-7.03,1.089-8.979-1.921C262.819,195.796,263.679,191.776,266.689,189.827z M282.643,436.993
	c19.384,6.868,22.731,12.068,28.463,12.068c4.094,0,7.726-2.432,9.253-6.194c15.41-37.968,19.635-86.701,20.466-120.896
	c0.977-39.491-21.16-91.191-48.34-112.896c-11.234-8.427-2.517-18.324,3.565-14.255c32.283,21.594,59.597,81.169,58.451,127.491
	c-1.052,43.255-7.243,103.534-30.769,145.062c-1.547,2.731-5.024,4.067-9.288,1.216c-14.622-9.775-24.649-13.815-34.08-17.583
	C271.625,447.147,276.375,433.897,282.643,436.993z M139.009,333.831c3.01-1.949,7.03-1.089,8.979,1.921
	c1.949,3.01,1.089,7.03-1.921,8.979c-3.01,1.949-7.03,1.089-8.979-1.921C135.139,339.799,135.999,335.78,139.009,333.831z
	 M167.781,645.394c-0.563-12.731,0.257-25.814,1.904-38.866c4.68-19.65,63.292-12.582,88.248-16.666
	c21.406-3.504,83.896-26.434,88.216-8.298c0.63,2.272,8.85,27.011,13.199,51.576c1.404,7.932-12.369,8.175-13.531,1.689
	c-2.083-11.627-5.351-24.338-9.293-37.859c-1.534-5.264-6.706-8.834-12.301-8.205c-11.155,1.246-26.067,5.186-39.223,8.663
	c-25.699,6.79-26.891,7.143-56.781,7.825c-13.423,0.306-27.303,0.623-36.8,2.54c-4.983,1.006-8.771,5.229-9.21,10.268
	c-0.787,9.035-1.21,18.034-0.825,26.731C181.686,651.611,168.082,652.213,167.781,645.394z M199.29,528.835
	c-6.509,0.399-20.55,14.126-20.06,22.11c0.229,3.719,8.46,4.612,13.538,7.86c0.989,0.633,2.22,0.731,3.314,0.304
	c3.013-1.177,8.801-3.349,11.149-3.6c1.646-11.02,9.25-17.689,15.753-16.547c3.513,0.617,3.092,6.616-0.233,6.102
	c-5.362-0.694-12,15.615-6.879,15.755c2.648,0.072,14.821-14.333,16.327-20.263c0.85-3.346,5.345-3.01,5.559,0.465
	c0.152,2.482-3.631,14.367-3.118,17.232c0.813,0.085,3.854-4.143,4.749-6.016c1.35-2.824,7.285-18.229,11.998-18.518
	c1.878-0.115,3.382,1.342,3.493,3.153c0.169,2.751-3.921,8.525-6.991,19.961c1.032-0.736,12.611-20.575,21.267-21.107
	c2.952-0.182,4.778,2.131,4.955,5.016c0.329,5.363-3.801,13.017-2.589,18.562c0.226,1.032,2.522-0.461,5.035-3.606
	c5.951-7.448,4.17-14.025,12.138-28.648c-7.336,1.191-12.354,2.846-13.699,2.862c-2.846,0.06-4.386-3.545-2.644-5.765
	c2.892-3.343,43.768-5.651,44.135,0.321c0.078,1.275-1.014,2.151-2.641,1.981c-6.854-0.859-13.245-0.735-18.802-0.192
	c-7.482,24.025-7.218,33.983-6.135,33.917c3.035-0.186,7.874-10.886,8.44-11.97c1.883-8.124,7.963-13.628,13.638-14.92
	c4.068-0.926,5.306,5.204,1.269,6.189c-8.309,2.028-11.726,15.506-6.605,15.834c2.38,0.152,15.958-20.217,16.478-21.217
	c1.001-2.169,5.199-1.97,5.408,1.419c0.152,2.482-3.631,14.367-3.118,17.232c0.813,0.085,3.854-4.143,4.749-6.016
	c0.895-1.874,1.32-2.641,2.528-2.715c2.683-0.165,3.566,2.138,2.549,4.221c-2.144,4.577-6.781,12.405-11.546,12.698
	c-5.77,0.354-6.739-7.736-6.739-7.736s-5.936,9.727-11.84,10.089c-3.211,0.197-5.372-1.609-6.485-4.495
	c-2.885,4.622-6.483,8.86-10.206,9.089c-3.424,0.21-6.934-2.015-7.77-7.963c-9.66,11.447-14.935,3.467-15.3-2.475
	c-0.358-5.837,3.229-15.419,3.229-15.419c-0.004-0.067-0.008-0.134-0.083-0.264c-5.05,0.31-17.281,21.806-21.248,26.898
	c-4.124,5.224-9.388,1.93-9.299-4.105c-5.241,4.37-9.997,0.677-10.778-5.843c-8.848,14.501-18.399,11.908-19.154,1.663
	c-1.99,1.317-4.924,2.532-7.838,4.103c-0.486,0.281-0.662,0.347-0.412,0.968c3.661,9.599-9.927,20.276-19.664,20.874
	c-5.234,0.321-8.242-2.592-8.448-5.947c-0.106-1.729,0.589-3.439,1.765-5.082c2.122-2.963,6.898,0.057,4.797,3.348
	c-0.371,0.581-0.375,0.985,0.136,1.121c6.522,0.679,16.787-8.641,14.707-11.679c-0.752,0.046-3.62,1.704-6.659,3.759
	c-3.189,2.157-6.476-2.739-3.235-4.827c1.606-1.035,3.121-1.946,4.342-2.701c-2.745-1.92-16.458-1.481-17.175-13.156
	c-0.795-12.95,17.102-28.597,28.308-29.285c5.503-0.338,9.343,2.996,9.619,7.492c0.313,5.099-5.036,12.298-7.855,12.471
	c-1.731,0.106-3.58-2.237-1.542-4.283C200.5,535.361,203.88,528.552,199.29,528.835z M361.816,654.576
	c1.949,3.01,1.089,7.03-1.921,8.979c-3.01,1.949-7.03,1.089-8.979-1.921c-1.949-3.01-1.089-7.03,1.921-8.979
	C355.847,650.706,359.867,651.566,361.816,654.576z M292.847,696.482l0.572,3.671c0.566,3.638-4.986,4.623-5.585,0.779
	c-1.549-9.949,0.243-7.056-9.475-14.565c-1.728-1.335-4.207,0.085-3.93,2.251c1.567,12.225-0.082,9.128,7.739,15.517
	c1.865,1.523,1.279,4.457-1.027,5.007c-1.706,0.407-2.414-0.538-5.317-2.909c-1.202-0.982-2.981-0.753-3.896,0.499l-2.192,3
	c-2.186,2.993-6.792-0.261-4.475-3.432c5.909-8.089,5.135-4.79,3.575-16.966c-0.278-2.166-3.035-2.915-4.37-1.187l-5.453,7.056
	c-1.134,1.468-0.77,2.215-0.034,9.517c0.371,3.676-5.229,4.345-5.62,0.464l-0.362-3.595c-0.156-1.544-1.575-2.64-3.108-2.402
	l-3.553,0.553c-3.875,0.603-4.643-4.982-0.985-5.553c7.304-1.138,8.079-0.98,9.201-2.433l5.453-7.056
	c1.335-1.728-0.085-4.207-2.251-3.93l-8.846,1.134c-1.84,0.236-2.111,1.022-6.753,6.706c-2.379,2.913-6.716-0.691-4.285-3.666
	l2.269-2.778c0.982-1.201,0.753-2.981-0.499-3.896l-3-2.192c-2.985-2.18,0.251-6.799,3.423-4.482
	c8.127,5.937,4.811,5.14,16.974,3.581c2.166-0.278,2.915-3.035,1.187-4.37c-9.556-7.385-6.316-6.52-16.457-5.498
	c-3.899,0.393-4.364-5.223-0.682-5.598l3.696-0.372c1.544-0.156,2.641-1.575,2.402-3.108l-0.572-3.671
	c-0.57-3.66,4.986-4.624,5.59-0.745c1.548,9.939-0.233,7.034,9.47,14.532c1.728,1.335,4.207-0.085,3.93-2.251l-1.134-8.846
	c-0.236-1.84-1.022-2.111-6.706-6.753c-2.861-2.338,0.617-6.776,3.661-4.29l2.784,2.274c1.202,0.982,2.981,0.753,3.896-0.499
	l2.191-3c2.189-2.997,6.786,0.268,4.48,3.425c-5.934,8.124-5.138,4.809-3.579,16.972c0.278,2.166,3.035,2.915,4.37,1.187
	l5.453-7.056c1.134-1.468,0.77-2.215,0.034-9.518c-0.372-3.69,5.23-4.338,5.622-0.446l0.361,3.577
	c0.156,1.544,1.575,2.64,3.108,2.402l3.564-0.555c3.854-0.6,4.636,4.983,0.974,5.555c-10.056,1.566-7.138-0.237-14.654,9.489
	c-1.335,1.728,0.085,4.207,2.251,3.93l8.845-1.134c4.002-0.513,6.359-10.04,10.497-7.271c1.404,0.939,1.666,2.855,0.623,4.132
	l-2.35,2.877c-0.982,1.201-0.754,2.981,0.499,3.896l2.901,2.119c1.994,1.456,1.47,4.523-0.909,5.09
	c-1.64,0.391-2.012-0.242-7.96-4.587c-1.501-1.097-1.964-0.744-11.43,0.469c-2.166,0.278-2.915,3.035-1.187,4.37
	c9.753,7.537,6.396,6.512,16.445,5.5c3.661-0.369,4.443,4.729,1.068,5.534c-0.298,0.071-3.755,0.404-4.071,0.436
	C293.705,693.53,292.609,694.949,292.847,696.482z M281.112,730.278c-3.01,1.949-7.03,1.089-8.979-1.921
	c-1.949-3.01-1.089-7.03,1.921-8.979c3.01-1.949,7.03-1.089,8.979,1.921C284.982,724.31,284.122,728.329,281.112,730.278z
	 M214.564,651.985c1.784,25.416,10.012,59.392,34.784,64.756c6.224,1.348,9.244,15.673-0.157,13.929
	c-37.702-6.993-48.511-52.028-48.747-89.651c0-6.124,3.592-12.122,10.847-12.122c8.079-0.32,17.085-0.547,25.734-0.701
	c8.364-0.149,11.98,13.217,1.188,13.574C228.028,642.106,213.74,640.231,214.564,651.985z M260.448,624.085
	c3.01-1.949,7.03-1.089,8.979,1.921c1.949,3.01,1.089,7.03-1.921,8.979c-3.01,1.949-7.03,1.089-8.979-1.921
	C256.578,630.054,257.438,626.034,260.448,624.085z M304.078,710.235c20.425-7.273,14.333-49.979,10.059-71.194
	c-2.217-11.004-14.463-6.203-18.666-5.121c-10.421,2.461-11.265-11.349-2.504-13.414c12.112-3.198,28.669-9.806,31.339,1.401
	c8.533,35.822,17.489,92.021-17.932,102.131C297.926,725.096,297.196,712.686,304.078,710.235z M170.583,672.634
	c-1.949-3.01-1.089-7.03,1.921-8.979c3.01-1.949,7.03-1.089,8.979,1.921c1.949,3.01,1.089,7.03-1.921,8.979
	C176.552,676.503,172.532,675.643,170.583,672.634z M363.403,683.976c-2.697,46.867-27.351,72.53-77.589,80.764
	c-57.551,9.436-94.903-17.279-110.553-69.976c-1.677-7.283,10.823-11.45,13.654-1.928c5.374,14.588,11.295,27.171,19.683,36.688
	c19.238,21.827,45.953,26.479,75.003,21.715c30.899-5.064,62.225-17.055,66.269-67.151
	C351.063,673.897,363.875,675.71,363.403,683.976z M389.886,349.965c-4.966,73.571-23.553,129.958-53.75,163.068
	c-6.641,7.281-20.542-1.25-37.169-11.571c-42.248-26.223-47.263-24.096-91.912-5.604c-46.594,19.299-50.741,15.728-53.076,8.227
	c-14.807-47.297-21.746-93.951-20.625-138.664c0.272-9.336,13.71-7.586,13.695-0.307c-1.075,39.169,4.32,80.078,16.034,121.589
	c1.477,5.258,7.114,8.44,12.531,6.666c10.085-3.312,19.641-7.317,28.883-11.191c47.029-19.711,56.577-20.076,102.067,7.915
	c14.185,8.728,15.44,9.379,18.481,9.378c3.056,0,5.992-1.46,7.854-3.906c24.186-31.788,38.745-80.707,43.272-145.397
	C376.5,342.272,390.438,342.772,389.886,349.965z M387.963,330.085c-3.01,1.949-7.03,1.089-8.979-1.921s-1.089-7.03,1.921-8.979
	s7.03-1.089,8.979,1.921C391.833,324.117,390.973,328.136,387.963,330.085z"/>
</svg>
