  0
SECTION
  2
HEADER
  9
$ACADVER
  1
AC1021
  9
$ACADMAINTVER
 70
    25
  9
$DWGCODEPAGE
  3
ANSI_1252
  9
$INSBASE
 10
0.0
 20
0.0
 30
0.0
  9
$EXTMIN
 10
-8.36127
 20
-9.3459
 30
0.0
  9
$EXTMAX
 10
8.36131
 20
9.34598
 30
0.0
  9
$LIMMIN
 10
0.0
 20
0.0
  9
$LIMMAX
 10
12.0
 20
9.0
  9
$ORTHOMODE
 70
     0
  9
$REGENMODE
 70
     1
  9
$FILLMODE
 70
     1
  9
$QTEXTMODE
 70
     0
  9
$MIRRTEXT
 70
     1
  9
$LTSCALE
 40
1.0
  9
$ATTMODE
 70
     1
  9
$TEXTSIZE
 40
0.2
  9
$TRACEWID
 40
0.05
  9
$TEXTSTYLE
  7
Standard
  9
$CLAYER
  8
0
  9
$CELTYPE
  6
ByLayer
  9
$CECOLOR
 62
   256
  9
$CELTSCALE
 40
1.0
  9
$DISPSILH
 70
     0
  9
$DIMSCALE
 40
1.0
  9
$DIMASZ
 40
0.18
  9
$DIMEXO
 40
0.0625
  9
$DIMDLI
 40
0.38
  9
$DIMRND
 40
0.0
  9
$DIMDLE
 40
0.0
  9
$DIMEXE
 40
0.18
  9
$DIMTP
 40
0.0
  9
$DIMTM
 40
0.0
  9
$DIMTXT
 40
0.18
  9
$DIMCEN
 40
0.09
  9
$DIMTSZ
 40
0.0
  9
$DIMTOL
 70
     0
  9
$DIMLIM
 70
     0
  9
$DIMTIH
 70
     1
  9
$DIMTOH
 70
     1
  9
$DIMSE1
 70
     0
  9
$DIMSE2
 70
     0
  9
$DIMTAD
 70
     0
  9
$DIMZIN
 70
     0
  9
$DIMBLK
  1

  9
$DIMASO
 70
     1
  9
$DIMSHO
 70
     1
  9
$DIMPOST
  1

  9
$DIMAPOST
  1

  9
$DIMALT
 70
     0
  9
$DIMALTD
 70
     2
  9
$DIMALTF
 40
25.4
  9
$DIMLFAC
 40
1.0
  9
$DIMTOFL
 70
     0
  9
$DIMTVP
 40
0.0
  9
$DIMTIX
 70
     0
  9
$DIMSOXD
 70
     0
  9
$DIMSAH
 70
     0
  9
$DIMBLK1
  1

  9
$DIMBLK2
  1

  9
$DIMSTYLE
  2
Standard
  9
$DIMCLRD
 70
     0
  9
$DIMCLRE
 70
     0
  9
$DIMCLRT
 70
     0
  9
$DIMTFAC
 40
1.0
  9
$DIMGAP
 40
0.09
  9
$DIMJUST
 70
     0
  9
$DIMSD1
 70
     0
  9
$DIMSD2
 70
     0
  9
$DIMTOLJ
 70
     1
  9
$DIMTZIN
 70
     0
  9
$DIMALTZ
 70
     0
  9
$DIMALTTZ
 70
     0
  9
$DIMUPT
 70
     0
  9
$DIMDEC
 70
     4
  9
$DIMTDEC
 70
     4
  9
$DIMALTU
 70
     2
  9
$DIMALTTD
 70
     2
  9
$DIMTXSTY
  7
Standard
  9
$DIMAUNIT
 70
     0
  9
$DIMADEC
 70
     0
  9
$DIMALTRND
 40
0.0
  9
$DIMAZIN
 70
     0
  9
$DIMDSEP
 70
    46
  9
$DIMATFIT
 70
     3
  9
$DIMFRAC
 70
     0
  9
$DIMLDRBLK
  1

  9
$DIMLUNIT
 70
     2
  9
$DIMLWD
 70
    -2
  9
$DIMLWE
 70
    -2
  9
$DIMTMOVE
 70
     0
  9
$DIMFXL
 40
1.0
  9
$DIMFXLON
 70
     0
  9
$DIMJOGANG
 40
0.7853981633974483
  9
$DIMTFILL
 70
     0
  9
$DIMTFILLCLR
 70
     0
  9
$DIMARCSYM
 70
     0
  9
$DIMLTYPE
  6

  9
$DIMLTEX1
  6

  9
$DIMLTEX2
  6

  9
$LUNITS
 70
     2
  9
$LUPREC
 70
     4
  9
$SKETCHINC
 40
0.1
  9
$FILLETRAD
 40
0.5
  9
$AUNITS
 70
     0
  9
$AUPREC
 70
     0
  9
$MENU
  1
.
  9
$ELEVATION
 40
0.0
  9
$PELEVATION
 40
0.0
  9
$THICKNESS
 40
0.0
  9
$LIMCHECK
 70
     0
  9
$CHAMFERA
 40
0.5
  9
$CHAMFERB
 40
0.5
  9
$CHAMFERC
 40
1.0
  9
$CHAMFERD
 40
0.0
  9
$SKPOLY
 70
     0
  9
$TDCREATE
 40
2456876.647561053
  9
$TDUCREATE
 40
2456876.772561053
  9
$TDUPDATE
 40
2456876.647561412
  9
$TDUUPDATE
 40
2456876.772561412
  9
$TDINDWG
 40
0.0000000116
  9
$TDUSRTIMER
 40
0.0000000116
  9
$USRTIMER
 70
     1
  9
$ANGBASE
 50
0.0
  9
$ANGDIR
 70
     0
  9
$PDMODE
 70
     0
  9
$PDSIZE
 40
0.0
  9
$PLINEWID
 40
0.0
  9
$SPLFRAME
 70
     0
  9
$SPLINETYPE
 70
     6
  9
$SPLINESEGS
 70
     8
  9
$HANDSEED
  5
68
  9
$SURFTAB1
 70
     6
  9
$SURFTAB2
 70
     6
  9
$SURFTYPE
 70
     6
  9
$SURFU
 70
     6
  9
$SURFV
 70
     6
  9
$UCSBASE
  2

  9
$UCSNAME
  2

  9
$UCSORG
 10
0.0
 20
0.0
 30
0.0
  9
$UCSXDIR
 10
1.0
 20
0.0
 30
0.0
  9
$UCSYDIR
 10
0.0
 20
1.0
 30
0.0
  9
$UCSORTHOREF
  2

  9
$UCSORTHOVIEW
 70
     0
  9
$UCSORGTOP
 10
0.0
 20
0.0
 30
0.0
  9
$UCSORGBOTTOM
 10
0.0
 20
0.0
 30
0.0
  9
$UCSORGLEFT
 10
0.0
 20
0.0
 30
0.0
  9
$UCSORGRIGHT
 10
0.0
 20
0.0
 30
0.0
  9
$UCSORGFRONT
 10
0.0
 20
0.0
 30
0.0
  9
$UCSORGBACK
 10
0.0
 20
0.0
 30
0.0
  9
$PUCSBASE
  2

  9
$PUCSNAME
  2

  9
$PUCSORG
 10
0.0
 20
0.0
 30
0.0
  9
$PUCSXDIR
 10
1.0
 20
0.0
 30
0.0
  9
$PUCSYDIR
 10
0.0
 20
1.0
 30
0.0
  9
$PUCSORTHOREF
  2

  9
$PUCSORTHOVIEW
 70
     0
  9
$PUCSORGTOP
 10
0.0
 20
0.0
 30
0.0
  9
$PUCSORGBOTTOM
 10
0.0
 20
0.0
 30
0.0
  9
$PUCSORGLEFT
 10
0.0
 20
0.0
 30
0.0
  9
$PUCSORGRIGHT
 10
0.0
 20
0.0
 30
0.0
  9
$PUCSORGFRONT
 10
0.0
 20
0.0
 30
0.0
  9
$PUCSORGBACK
 10
0.0
 20
0.0
 30
0.0
  9
$USERI1
 70
     0
  9
$USERI2
 70
     0
  9
$USERI3
 70
     0
  9
$USERI4
 70
     0
  9
$USERI5
 70
     0
  9
$USERR1
 40
0.0
  9
$USERR2
 40
0.0
  9
$USERR3
 40
0.0
  9
$USERR4
 40
0.0
  9
$USERR5
 40
0.0
  9
$WORLDVIEW
 70
     1
  9
$SHADEDGE
 70
     3
  9
$SHADEDIF
 70
    70
  9
$TILEMODE
 70
     1
  9
$MAXACTVP
 70
    64
  9
$PINSBASE
 10
0.0
 20
0.0
 30
0.0
  9
$PLIMCHECK
 70
     0
  9
$PEXTMIN
 10
1.000000000000000E+20
 20
1.000000000000000E+20
 30
1.000000000000000E+20
  9
$PEXTMAX
 10
-1.000000000000000E+20
 20
-1.000000000000000E+20
 30
-1.000000000000000E+20
  9
$PLIMMIN
 10
0.0
 20
0.0
  9
$PLIMMAX
 10
12.0
 20
9.0
  9
$UNITMODE
 70
     0
  9
$VISRETAIN
 70
     1
  9
$PLINEGEN
 70
     0
  9
$PSLTSCALE
 70
     1
  9
$TREEDEPTH
 70
  3020
  9
$CMLSTYLE
  2
Standard
  9
$CMLJUST
 70
     0
  9
$CMLSCALE
 40
1.0
  9
$PROXYGRAPHICS
 70
     1
  9
$MEASUREMENT
 70
     0
  9
$CELWEIGHT
370
    -1
  9
$ENDCAPS
280
     0
  9
$JOINSTYLE
280
     0
  9
$LWDISPLAY
290
     0
  9
$INSUNITS
 70
     5
  9
$HYPERLINKBASE
  1

  9
$STYLESHEET
  1

  9
$XEDIT
290
     1
  9
$CEPSNTYPE
380
     0
  9
$PSTYLEMODE
290
     1
  9
$FINGERPRINTGUID
  2
{8C39DBAE-AB22-47EA-A7D6-F8E10E907962}
  9
$VERSIONGUID
  2
{FAEB1C32-E019-11D5-929B-00C0DF256EC4}
  9
$EXTNAMES
290
     1
  9
$PSVPSCALE
 40
0.0
  9
$OLESTARTUP
290
     0
  9
$SORTENTS
280
   127
  9
$INDEXCTL
280
     0
  9
$HIDETEXT
280
     1
  9
$XCLIPFRAME
290
     0
  9
$HALOGAP
280
     0
  9
$OBSCOLOR
 70
   257
  9
$OBSLTYPE
280
     0
  9
$INTERSECTIONDISPLAY
280
     0
  9
$INTERSECTIONCOLOR
 70
   257
  9
$DIMASSOC
280
     2
  9
$PROJECTNAME
  1

  9
$CAMERADISPLAY
290
     0
  9
$LENSLENGTH
 40
50.0
  9
$CAMERAHEIGHT
 40
0.0
  9
$STEPSPERSEC
 40
2.0
  9
$STEPSIZE
 40
6.0
  9
$3DDWFPREC
 40
2.0
  9
$PSOLWIDTH
 40
0.25
  9
$PSOLHEIGHT
 40
4.0
  9
$LOFTANG1
 40
1.570796326794897
  9
$LOFTANG2
 40
1.570796326794897
  9
$LOFTMAG1
 40
0.0
  9
$LOFTMAG2
 40
0.0
  9
$LOFTPARAM
 70
     7
  9
$LOFTNORMALS
280
     1
  9
$LATITUDE
 40
37.795
  9
$LONGITUDE
 40
-122.394
  9
$NORTHDIRECTION
 40
0.0
  9
$TIMEZONE
 70
 -8000
  9
$LIGHTGLYPHDISPLAY
280
     1
  9
$TILEMODELIGHTSYNCH
280
     1
  9
$SOLIDHIST
280
     1
  9
$SHOWHIST
280
     1
  9
$DWFFRAME
280
     2
  9
$DGNFRAME
280
     2
  9
$REALWORLDSCALE
290
     1
  9
$INTERFERECOLOR
 62
   256
  9
$CSHADOW
280
     0
  9
$SHADOWPLANELOCATION
 40
0.0
  0
ENDSEC
  0
SECTION
  2
CLASSES
  0
CLASS
  1
ACDBDICTIONARYWDFLT
  2
AcDbDictionaryWithDefault
  3
ObjectDBX Classes
 90
        0
 91
        4
280
     0
281
     0
  0
CLASS
  1
VISUALSTYLE
  2
AcDbVisualStyle
  3
ObjectDBX Classes
 90
     4095
 91
        4
280
     0
281
     0
  0
CLASS
  1
MATERIAL
  2
AcDbMaterial
  3
ObjectDBX Classes
 90
     1153
 91
        4
280
     0
281
     0
  0
ENDSEC
  0
SECTION
  2
TABLES
  0
TABLE
  2
VPORT
  5
8
330
0
100
AcDbSymbolTable
 70
     1
  0
VPORT
  5
29
330
8
100
AcDbSymbolTableRecord
100
AcDbViewportTableRecord
  2
*Active
 70
     0
 10
0.0
 20
0.0
 11
1.0
 21
1.0
 12
10.42990654205607
 22
4.5
 13
0.0
 23
0.0
 14
0.5
 24
0.5
 15
0.5
 25
0.5
 16
0.0
 26
0.0
 36
1.0
 17
0.0
 27
0.0
 37
0.0
 40
9.0
 41
1.972972972850329
 42
50.0
 43
0.0
 44
0.0
 50
0.0
 51
0.0
 71
     0
 72
   100
 73
     1
 74
     3
 75
     0
 76
     0
 77
     0
 78
     0
281
     0
 65
     1
110
0.0
120
0.0
130
0.0
111
1.0
121
0.0
131
0.0
112
0.0
122
1.0
132
0.0
 79
     0
146
0.0
 60
     3
 61
     5
292
     1
282
     1
141
0.0
142
0.0
 63
   250
  0
ENDTAB
  0
TABLE
  2
LTYPE
  5
5
330
0
100
AcDbSymbolTable
 70
     1
  0
LTYPE
  5
14
330
5
100
AcDbSymbolTableRecord
100
AcDbLinetypeTableRecord
  2
ByBlock
 70
     0
  3

 72
    65
 73
     0
 40
0.0
  0
LTYPE
  5
15
330
5
100
AcDbSymbolTableRecord
100
AcDbLinetypeTableRecord
  2
ByLayer
 70
     0
  3

 72
    65
 73
     0
 40
0.0
  0
LTYPE
  5
16
330
5
100
AcDbSymbolTableRecord
100
AcDbLinetypeTableRecord
  2
Continuous
 70
     0
  3
Solid line
 72
    65
 73
     0
 40
0.0
  0
ENDTAB
  0
TABLE
  2
LAYER
  5
2
330
0
100
AcDbSymbolTable
 70
     2
  0
LAYER
  5
10
330
2
100
AcDbSymbolTableRecord
100
AcDbLayerTableRecord
  2
0
 70
     0
 62
     7
  6
Continuous
370
    -3
390
F
347
3E
  0
LAYER
  5
40
330
2
100
AcDbSymbolTableRecord
100
AcDbLayerTableRecord
  2
Camada 1
 70
     0
 62
     7
  6
Continuous
370
    -3
390
F
347
3E
  0
ENDTAB
  0
TABLE
  2
STYLE
  5
3
330
0
100
AcDbSymbolTable
 70
     1
  0
STYLE
  5
11
330
3
100
AcDbSymbolTableRecord
100
AcDbTextStyleTableRecord
  2
Standard
 70
     0
 40
0.0
 41
1.0
 50
0.0
 71
     0
 42
0.2
  3
txt
  4

  0
ENDTAB
  0
TABLE
  2
VIEW
  5
6
330
0
100
AcDbSymbolTable
 70
     0
  0
ENDTAB
  0
TABLE
  2
UCS
  5
7
330
0
100
AcDbSymbolTable
 70
     0
  0
ENDTAB
  0
TABLE
  2
APPID
  5
9
330
0
100
AcDbSymbolTable
 70
     2
  0
APPID
  5
12
330
9
100
AcDbSymbolTableRecord
100
AcDbRegAppTableRecord
  2
ACAD
 70
     0
  0
APPID
  5
3F
330
9
100
AcDbSymbolTableRecord
100
AcDbRegAppTableRecord
  2
ODA
 70
     0
  0
ENDTAB
  0
TABLE
  2
DIMSTYLE
  5
A
330
0
100
AcDbSymbolTable
 70
     1
100
AcDbDimStyleTable
  0
DIMSTYLE
105
27
330
A
100
AcDbSymbolTableRecord
100
AcDbDimStyleTableRecord
  2
Standard
 70
     0
178
     0
340
11
  0
ENDTAB
  0
TABLE
  2
BLOCK_RECORD
  5
1
330
0
100
AcDbSymbolTable
 70
     1
  0
BLOCK_RECORD
  5
1F
330
1
100
AcDbSymbolTableRecord
100
AcDbBlockTableRecord
  2
*Model_Space
340
22
 70
     0
280
     1
281
     0
  0
BLOCK_RECORD
  5
1B
330
1
100
AcDbSymbolTableRecord
100
AcDbBlockTableRecord
  2
*Paper_Space
340
1E
 70
     0
280
     1
281
     0
  0
BLOCK_RECORD
  5
23
330
1
100
AcDbSymbolTableRecord
100
AcDbBlockTableRecord
  2
*Paper_Space0
340
26
 70
     0
280
     1
281
     0
  0
ENDTAB
  0
ENDSEC
  0
SECTION
  2
BLOCKS
  0
BLOCK
  5
20
330
1F
100
AcDbEntity
  8
0
100
AcDbBlockBegin
  2
*Model_Space
 70
     0
 10
0.0
 20
0.0
 30
0.0
  3
*Model_Space
  1

  0
ENDBLK
  5
21
330
1F
100
AcDbEntity
  8
0
100
AcDbBlockEnd
  0
BLOCK
  5
1C
330
1B
100
AcDbEntity
 67
     1
  8
0
100
AcDbBlockBegin
  2
*Paper_Space
 70
     0
 10
0.0
 20
0.0
 30
0.0
  3
*Paper_Space
  1

  0
ENDBLK
  5
1D
330
1B
100
AcDbEntity
 67
     1
  8
0
100
AcDbBlockEnd
  0
BLOCK
  5
24
330
23
100
AcDbEntity
  8
0
100
AcDbBlockBegin
  2
*Paper_Space0
 70
     0
 10
0.0
 20
0.0
 30
0.0
  3
*Paper_Space0
  1

  0
ENDBLK
  5
25
330
23
100
AcDbEntity
  8
0
100
AcDbBlockEnd
  0
ENDSEC
  0
SECTION
  2
ENTITIES
  0
SPLINE
  5
41
330
1F
100
AcDbEntity
  8
Camada 1
 62
   250
100
AcDbSpline
210
0.0
220
0.0
230
1.0
 70
    11
 71
     3
 72
   320
 73
   316
 74
     0
 42
0.0000000001
 43
0.0000000001
 12
1.0
 22
0.0
 32
0.0
 13
1.0
 23
0.0
 33
0.0
 40
0.0
 40
0.0
 40
0.0
 40
0.0
 40
0.0125
 40
0.0125
 40
0.0125
 40
0.0125
 40
0.025
 40
0.025
 40
0.025
 40
0.025
 40
0.0375
 40
0.0375
 40
0.0375
 40
0.0375
 40
0.05
 40
0.05
 40
0.05
 40
0.05
 40
0.0625
 40
0.0625
 40
0.0625
 40
0.0625
 40
0.075
 40
0.075
 40
0.075
 40
0.075
 40
0.0875
 40
0.0875
 40
0.0875
 40
0.0875
 40
0.1
 40
0.1
 40
0.1
 40
0.1
 40
0.1125
 40
0.1125
 40
0.1125
 40
0.1125
 40
0.125
 40
0.125
 40
0.125
 40
0.125
 40
0.1375
 40
0.1375
 40
0.1375
 40
0.1375
 40
0.15
 40
0.15
 40
0.15
 40
0.15
 40
0.1625
 40
0.1625
 40
0.1625
 40
0.1625
 40
0.175
 40
0.175
 40
0.175
 40
0.175
 40
0.1875
 40
0.1875
 40
0.1875
 40
0.1875
 40
0.2
 40
0.2
 40
0.2
 40
0.2
 40
0.2125
 40
0.2125
 40
0.2125
 40
0.2125
 40
0.225
 40
0.225
 40
0.225
 40
0.225
 40
0.2375
 40
0.2375
 40
0.2375
 40
0.2375
 40
0.25
 40
0.25
 40
0.25
 40
0.25
 40
0.2625
 40
0.2625
 40
0.2625
 40
0.2625
 40
0.275
 40
0.275
 40
0.275
 40
0.275
 40
0.2875
 40
0.2875
 40
0.2875
 40
0.2875
 40
0.3
 40
0.3
 40
0.3
 40
0.3
 40
0.3125
 40
0.3125
 40
0.3125
 40
0.3125
 40
0.325
 40
0.325
 40
0.325
 40
0.325
 40
0.3375
 40
0.3375
 40
0.3375
 40
0.3375
 40
0.35
 40
0.35
 40
0.35
 40
0.35
 40
0.3625
 40
0.3625
 40
0.3625
 40
0.3625
 40
0.375
 40
0.375
 40
0.375
 40
0.375
 40
0.3875
 40
0.3875
 40
0.3875
 40
0.3875
 40
0.4
 40
0.4
 40
0.4
 40
0.4
 40
0.4125
 40
0.4125
 40
0.4125
 40
0.4125
 40
0.425
 40
0.425
 40
0.425
 40
0.425
 40
0.4375
 40
0.4375
 40
0.4375
 40
0.4375
 40
0.45
 40
0.45
 40
0.45
 40
0.45
 40
0.4625
 40
0.4625
 40
0.4625
 40
0.4625
 40
0.475
 40
0.475
 40
0.475
 40
0.475
 40
0.4875
 40
0.4875
 40
0.4875
 40
0.4875
 40
0.5
 40
0.5
 40
0.5
 40
0.5
 40
0.5125
 40
0.5125
 40
0.5125
 40
0.5125
 40
0.525
 40
0.525
 40
0.525
 40
0.525
 40
0.5375
 40
0.5375
 40
0.5375
 40
0.5375
 40
0.55
 40
0.55
 40
0.55
 40
0.55
 40
0.5625
 40
0.5625
 40
0.5625
 40
0.5625
 40
0.575
 40
0.575
 40
0.575
 40
0.575
 40
0.5875
 40
0.5875
 40
0.5875
 40
0.5875
 40
0.6
 40
0.6
 40
0.6
 40
0.6
 40
0.6125
 40
0.6125
 40
0.6125
 40
0.6125
 40
0.625
 40
0.625
 40
0.625
 40
0.625
 40
0.6375
 40
0.6375
 40
0.6375
 40
0.6375
 40
0.65
 40
0.65
 40
0.65
 40
0.65
 40
0.6625
 40
0.6625
 40
0.6625
 40
0.6625
 40
0.675
 40
0.675
 40
0.675
 40
0.675
 40
0.6875
 40
0.6875
 40
0.6875
 40
0.6875
 40
0.7
 40
0.7
 40
0.7
 40
0.7
 40
0.7125
 40
0.7125
 40
0.7125
 40
0.7125
 40
0.725
 40
0.725
 40
0.725
 40
0.725
 40
0.7375
 40
0.7375
 40
0.7375
 40
0.7375
 40
0.75
 40
0.75
 40
0.75
 40
0.75
 40
0.7625
 40
0.7625
 40
0.7625
 40
0.7625
 40
0.775
 40
0.775
 40
0.775
 40
0.775
 40
0.7875
 40
0.7875
 40
0.7875
 40
0.7875
 40
0.8
 40
0.8
 40
0.8
 40
0.8
 40
0.8125
 40
0.8125
 40
0.8125
 40
0.8125
 40
0.825
 40
0.825
 40
0.825
 40
0.825
 40
0.8375
 40
0.8375
 40
0.8375
 40
0.8375
 40
0.85
 40
0.85
 40
0.85
 40
0.85
 40
0.8625
 40
0.8625
 40
0.8625
 40
0.8625
 40
0.875
 40
0.875
 40
0.875
 40
0.875
 40
0.8875
 40
0.8875
 40
0.8875
 40
0.8875
 40
0.9
 40
0.9
 40
0.9
 40
0.9
 40
0.9125
 40
0.9125
 40
0.9125
 40
0.9125
 40
0.925
 40
0.925
 40
0.925
 40
0.925
 40
0.9375
 40
0.9375
 40
0.9375
 40
0.9375
 40
0.95
 40
0.95
 40
0.95
 40
0.95
 40
0.9625
 40
0.9625
 40
0.9625
 40
0.9625
 40
0.975
 40
0.975
 40
0.975
 40
0.975
 40
1.0
 40
1.0
 40
1.0
 40
1.0
 10
7.93792
 20
5.33416
 30
0.0
 10
7.93792
 20
5.33416
 30
0.0
 10
7.93075
 20
5.33921
 30
0.0
 10
7.93075
 20
5.33921
 30
0.0
 10
7.93075
 20
5.33921
 30
0.0
 10
7.78004
 20
5.42964
 30
0.0
 10
7.4758
 20
5.67669
 30
0.0
 10
7.18071
 20
5.92696
 30
0.0
 10
7.18071
 20
5.92696
 30
0.0
 10
6.88705
 20
6.17723
 30
0.0
 10
6.60058
 20
6.43046
 30
0.0
 10
6.48816
 20
6.53264
 30
0.0
 10
6.48816
 20
6.53264
 30
0.0
 10
6.3855
 20
6.61932
 30
0.0
 10
6.18183
 20
6.94179
 30
0.0
 10
5.99524
 20
7.25583
 30
0.0
 10
5.99524
 20
7.25583
 30
0.0
 10
5.8054
 20
7.57291
 30
0.0
 10
5.63025
 20
7.88268
 30
0.0
 10
5.54648
 20
7.98322
 30
0.0
 10
5.54648
 20
7.98322
 30
0.0
 10
5.41189
 20
8.1403
 30
0.0
 10
5.27809
 20
8.20581
 30
0.0
 10
5.15101
 20
8.20581
 30
0.0
 10
5.15101
 20
8.20581
 30
0.0
 10
4.90495
 20
8.20189
 30
0.0
 10
4.73093
 20
7.9811
 30
0.0
 10
4.60467
 20
7.88773
 30
0.0
 10
4.60467
 20
7.88773
 30
0.0
 10
4.37996
 20
7.71826
 30
0.0
 10
4.05227
 20
7.16327
 30
0.0
 10
3.04704
 20
7.15936
 30
0.0
 10
3.04704
 20
7.15936
 30
0.0
 10
2.49335
 20
7.16
 30
0.0
 10
2.1264
 20
7.3619
 30
0.0
 10
1.89711
 20
7.62278
 30
0.0
 10
1.89711
 20
7.62278
 30
0.0
 10
2.08615
 20
7.69464
 30
0.0
 10
2.59405
 20
7.89099
 30
0.0
 10
2.93772
 20
8.02476
 30
0.0
 10
2.93772
 20
8.02476
 30
0.0
 10
3.17839
 20
8.09368
 30
0.0
 10
3.31853
 20
8.27503
 30
0.0
 10
3.31853
 20
8.49664
 30
0.0
 10
3.31853
 20
8.49664
 30
0.0
 10
3.31853
 20
8.49664
 30
0.0
 10
3.31853
 20
8.50169
 30
0.0
 10
3.31853
 20
8.50169
 30
0.0
 10
3.31853
 20
8.50169
 30
0.0
 10
3.31853
 20
8.62813
 30
0.0
 10
3.27715
 20
8.76582
 30
0.0
 10
3.19632
 20
8.90579
 30
0.0
 10
3.19632
 20
8.90579
 30
0.0
 10
2.98217
 20
9.27928
 30
0.0
 10
2.64374
 20
9.34707
 30
0.0
 10
2.44446
 20
9.34596
 30
0.0
 10
2.44446
 20
9.34596
 30
0.0
 10
2.35434
 20
9.34596
 30
0.0
 10
2.29066
 20
9.33326
 30
0.0
 10
2.27272
 20
9.32884
 30
0.0
 10
2.27272
 20
9.32884
 30
0.0
 10
2.05616
 20
9.32704
 30
0.0
 10
1.8696
 20
9.24722
 30
0.0
 10
1.74019
 20
9.16787
 30
0.0
 10
1.74019
 20
9.16787
 30
0.0
 10
1.24076
 20
8.86691
 30
0.0
 10
0.28313
 20
8.84246
 30
0.0
 10
0.05403
 20
8.84312
 30
0.0
 10
0.05403
 20
8.84312
 30
0.0
 10
0.02112
 20
8.84312
 30
0.0
 10
0.0032
 20
8.8446
 30
0.0
 10
0.00109
 20
8.8446
 30
0.0
 10
0.00109
 20
8.8446
 30
0.0
 10
0.00109
 20
8.8446
 30
0.0
 10
-0.01701
 20
8.84312
 30
0.0
 10
-0.05106
 20
8.84312
 30
0.0
 10
-0.05106
 20
8.84312
 30
0.0
 10
-0.28
 20
8.84248
 30
0.0
 10
-1.24092
 20
8.86691
 30
0.0
 10
-1.74035
 20
9.16673
 30
0.0
 10
-1.74035
 20
9.16673
 30
0.0
 10
-1.86973
 20
9.24624
 30
0.0
 10
-2.05534
 20
9.32707
 30
0.0
 10
-2.26846
 20
9.32887
 30
0.0
 10
-2.26846
 20
9.32887
 30
0.0
 10
-2.28656
 20
9.33323
 30
0.0
 10
-2.35125
 20
9.34596
 30
0.0
 10
-2.4425
 20
9.34596
 30
0.0
 10
-2.4425
 20
9.34596
 30
0.0
 10
-2.64292
 20
9.3471
 30
0.0
 10
-2.98119
 20
9.27931
 30
0.0
 10
-3.19646
 20
8.90469
 30
0.0
 10
-3.19646
 20
8.90469
 30
0.0
 10
-3.27597
 20
8.76488
 30
0.0
 10
-3.3164
 20
8.62817
 30
0.0
 10
-3.3164
 20
8.50173
 30
0.0
 10
-3.3164
 20
8.50173
 30
0.0
 10
-3.31852
 20
8.278
 30
0.0
 10
-3.18067
 20
8.09583
 30
0.0
 10
-2.9377
 20
8.02479
 30
0.0
 10
-2.9377
 20
8.02479
 30
0.0
 10
-2.60038
 20
7.89427
 30
0.0
 10
-2.10424
 20
7.70345
 30
0.0
 10
-1.90691
 20
7.62686
 30
0.0
 10
-1.90691
 20
7.62686
 30
0.0
 10
-2.13276
 20
7.36484
 30
0.0
 10
-2.49222
 20
7.16
 30
0.0
 10
-3.04705
 20
7.15937
 30
0.0
 10
-3.04705
 20
7.15937
 30
0.0
 10
-3.04705
 20
7.15937
 30
0.0
 10
-3.07428
 20
7.15969
 30
0.0
 10
-3.07428
 20
7.15969
 30
0.0
 10
-3.07428
 20
7.15969
 30
0.0
 10
-3.43602
 20
7.13752
 30
0.0
 10
-3.73666
 20
7.23073
 30
0.0
 10
-3.96918
 20
7.35326
 30
0.0
 10
-3.96918
 20
7.35326
 30
0.0
 10
-3.96918
 20
7.35326
 30
0.0
 10
-3.97325
 20
7.35538
 30
0.0
 10
-3.97325
 20
7.35538
 30
0.0
 10
-3.97325
 20
7.35538
 30
0.0
 10
-4.25678
 20
7.50545
 30
0.0
 10
-4.43815
 20
7.69823
 30
0.0
 10
-4.50461
 20
7.7766
 30
0.0
 10
-4.50461
 20
7.7766
 30
0.0
 10
-4.56295
 20
7.83232
 30
0.0
 10
-4.62552
 20
7.89426
 30
0.0
 10
-4.69395
 20
7.96432
 30
0.0
 10
-4.69395
 20
7.96432
 30
0.0
 10
-4.69395
 20
7.96432
 30
0.0
 10
-4.73208
 20
7.92717
 30
0.0
 10
-4.73208
 20
7.92717
 30
0.0
 10
-4.73208
 20
7.92717
 30
0.0
 10
-4.73208
 20
7.92717
 30
0.0
 10
-4.69721
 20
7.96643
 30
0.0
 10
-4.69721
 20
7.96643
 30
0.0
 10
-4.69721
 20
7.96643
 30
0.0
 10
-4.81484
 20
8.06697
 30
0.0
 10
-4.96005
 20
8.20254
 30
0.0
 10
-5.15102
 20
8.20482
 30
0.0
 10
-5.15102
 20
8.20482
 30
0.0
 10
-5.27614
 20
8.20482
 30
0.0
 10
-5.40978
 20
8.13915
 30
0.0
 10
-5.54242
 20
7.98323
 30
0.0
 10
-5.54242
 20
7.98323
 30
0.0
 10
-5.6283
 20
7.88269
 30
0.0
 10
-5.80428
 20
7.57291
 30
0.0
 10
-5.99428
 20
7.25584
 30
0.0
 10
-5.99428
 20
7.25584
 30
0.0
 10
-6.18102
 20
6.94183
 30
0.0
 10
-6.3834
 20
6.61936
 30
0.0
 10
-6.48524
 20
6.53154
 30
0.0
 10
-6.48524
 20
6.53154
 30
0.0
 10
-6.71418
 20
6.329
 30
0.0
 10
-7.62962
 20
5.51848
 30
0.0
 10
-7.93074
 20
5.33925
 30
0.0
 10
-7.93074
 20
5.33925
 30
0.0
 10
-7.93074
 20
5.33925
 30
0.0
 10
-7.93807
 20
5.3342
 30
0.0
 10
-7.93807
 20
5.3342
 30
0.0
 10
-7.93807
 20
5.3342
 30
0.0
 10
-8.09923
 20
5.23432
 30
0.0
 10
-8.3645
 20
5.02657
 30
0.0
 10
-8.36124
 20
4.47269
 30
0.0
 10
-8.36124
 20
4.47269
 30
0.0
 10
-8.3601
 20
3.90873
 30
0.0
 10
-7.95516
 20
3.57893
 30
0.0
 10
-7.5786
 20
3.57776
 30
0.0
 10
-7.5786
 20
3.57776
 30
0.0
 10
-7.42805
 20
3.57988
 30
0.0
 10
-7.30177
 20
3.6361
 30
0.0
 10
-7.20318
 20
3.71987
 30
0.0
 10
-7.20318
 20
3.71987
 30
0.0
 10
-7.20318
 20
3.71987
 30
0.0
 10
-7.19569
 20
3.71254
 30
0.0
 10
-7.19569
 20
3.71254
 30
0.0
 10
-7.19569
 20
3.71254
 30
0.0
 10
-7.19569
 20
3.71254
 30
0.0
 10
-6.24539
 20
4.57992
 30
0.0
 10
-6.24539
 20
4.57992
 30
0.0
 10
-6.24539
 20
4.57992
 30
0.0
 10
-5.95811
 20
4.18558
 30
0.0
 10
-5.69836
 20
3.62229
 30
0.0
 10
-5.69934
 20
2.89275
 30
0.0
 10
-5.69934
 20
2.89275
 30
0.0
 10
-5.69934
 20
2.80996
 30
0.0
 10
-5.70244
 20
2.72508
 30
0.0
 10
-5.70992
 20
2.63806
 30
0.0
 10
-5.70992
 20
2.63806
 30
0.0
 10
-5.74918
 20
2.14612
 30
0.0
 10
-5.90823
 20
0.91814
 30
0.0
 10
-6.04607
 20
-0.27823
 30
0.0
 10
-6.04607
 20
-0.27823
 30
0.0
 10
-6.04607
 20
-0.27823
 30
0.0
 10
-6.05665
 20
-0.36964
 30
0.0
 10
-6.05665
 20
-0.36964
 30
0.0
 10
-6.05665
 20
-0.36964
 30
0.0
 10
-6.05665
 20
-0.36964
 30
0.0
 10
-6.05665
 20
-0.37469
 30
0.0
 10
-6.05665
 20
-0.37469
 30
0.0
 10
-6.05665
 20
-0.37469
 30
0.0
 10
-6.05665
 20
-0.37469
 30
0.0
 10
-6.05993
 20
-0.39914
 30
0.0
 10
-6.05993
 20
-0.39914
 30
0.0
 10
-6.05993
 20
-0.39914
 30
0.0
 10
-6.11303
 20
-0.87216
 30
0.0
 10
-6.16079
 20
-1.33672
 30
0.0
 10
-6.19566
 20
-1.74587
 30
0.0
 10
-6.19566
 20
-1.74587
 30
0.0
 10
-6.22955
 20
-2.1555
 30
0.0
 10
-6.25188
 20
-2.50959
 30
0.0
 10
-6.25188
 20
-2.76102
 30
0.0
 10
-6.25188
 20
-2.76102
 30
0.0
 10
-6.25188
 20
-2.81611
 30
0.0
 10
-6.2509
 20
-2.86598
 30
0.0
 10
-6.24878
 20
-2.91159
 30
0.0
 10
-6.24878
 20
-2.91159
 30
0.0
 10
-6.19988
 20
-3.87965
 30
0.0
 10
-6.19044
 20
-6.06675
 30
0.0
 10
-3.29632
 20
-7.29796
 30
0.0
 10
-3.29632
 20
-7.29796
 30
0.0
 10
-0.45596
 20
-8.50999
 30
0.0
 10
-0.0447
 20
-9.1357
 30
0.0
 10
-0.05105
 20
-9.34036
 30
0.0
 10
-0.05105
 20
-9.34036
 30
0.0
 10
-0.05105
 20
-9.34036
 30
0.0
 10
-0.05105
 20
-9.34589
 30
0.0
 10
-0.05105
 20
-9.34589
 30
0.0
 10
-0.05105
 20
-9.34589
 30
0.0
 10
-0.05105
 20
-9.34589
 30
0.0
 10
0.05501
 20
-9.3459
 30
0.0
 10
0.05501
 20
-9.3459
 30
0.0
 10
0.05501
 20
-9.3459
 30
0.0
 10
0.05501
 20
-9.3459
 30
0.0
 10
0.05501
 20
-9.34037
 30
0.0
 10
0.05501
 20
-9.34037
 30
0.0
 10
0.05501
 20
-9.34037
 30
0.0
 10
0.04768
 20
-9.13571
 30
0.0
 10
0.45487
 20
-8.50998
 30
0.0
 10
3.29507
 20
-7.29911
 30
0.0
 10
3.29507
 20
-7.29911
 30
0.0
 10
3.32259
 20
-7.28707
 30
0.0
 10
3.34899
 20
-7.27649
 30
0.0
 10
3.37572
 20
-7.2649
 30
0.0
 10
3.37572
 20
-7.2649
 30
0.0
 10
3.37572
 20
-7.2649
 30
0.0
 10
3.3767
 20
-7.26604
 30
0.0
 10
3.3767
 20
-7.26604
 30
0.0
 10
3.3767
 20
-7.26604
 30
0.0
 10
3.3767
 20
-7.26604
 30
0.0
 10
3.40424
 20
-7.25318
 30
0.0
 10
3.40424
 20
-7.25318
 30
0.0
 10
3.40424
 20
-7.25318
 30
0.0
 10
3.40424
 20
-7.25318
 30
0.0
 10
3.40652
 20
-7.2522
 30
0.0
 10
3.40652
 20
-7.2522
 30
0.0
 10
3.40652
 20
-7.2522
 30
0.0
 10
3.40652
 20
-7.2522
 30
0.0
 10
3.48817
 20
-7.21603
 30
0.0
 10
3.48817
 20
-7.21603
 30
0.0
 10
3.48817
 20
-7.21603
 30
0.0
 10
3.48817
 20
-7.21603
 30
0.0
 10
3.48587
 20
-7.21539
 30
0.0
 10
3.48587
 20
-7.21539
 30
0.0
 10
3.48587
 20
-7.21539
 30
0.0
 10
3.51032
 20
-7.20367
 30
0.0
 10
3.53477
 20
-7.19208
 30
0.0
 10
3.55919
 20
-7.18036
 30
0.0
 10
3.55919
 20
-7.18036
 30
0.0
 10
6.18933
 20
-5.932
 30
0.0
 10
6.19978
 20
-3.84695
 30
0.0
 10
6.24865
 20
-2.91276
 30
0.0
 10
6.24865
 20
-2.91276
 30
0.0
 10
6.25172
 20
-2.86273
 30
0.0
 10
6.25286
 20
-2.80666
 30
0.0
 10
6.25286
 20
-2.74507
 30
0.0
 10
6.25286
 20
-2.74507
 30
0.0
 10
6.25286
 20
-2.24337
 30
0.0
 10
6.16571
 20
-1.35056
 30
0.0
 10
6.06305
 20
-0.41917
 30
0.0
 10
6.06305
 20
-0.41917
 30
0.0
 10
6.06305
 20
-0.41917
 30
0.0
 10
6.04919
 20
-0.29532
 30
0.0
 10
6.04919
 20
-0.29532
 30
0.0
 10
6.04919
 20
-0.29532
 30
0.0
 10
5.91232
 20
0.90724
 30
0.0
 10
5.75018
 20
2.14499
 30
0.0
 10
5.70994
 20
2.63806
 30
0.0
 10
5.70994
 20
2.63806
 30
0.0
 10
5.70359
 20
2.72508
 30
0.0
 10
5.70034
 20
2.80996
 30
0.0
 10
5.70034
 20
2.89275
 30
0.0
 10
5.70034
 20
2.89275
 30
0.0
 10
5.69936
 20
3.6234
 30
0.0
 10
5.9591
 20
4.18672
 30
0.0
 10
6.24752
 20
4.58204
 30
0.0
 10
6.24752
 20
4.58204
 30
0.0
 10
6.24752
 20
4.58204
 30
0.0
 10
7.19573
 20
3.71254
 30
0.0
 10
7.19573
 20
3.71254
 30
0.0
 10
7.19573
 20
3.71254
 30
0.0
 10
7.19573
 20
3.71254
 30
0.0
 10
7.20306
 20
3.71987
 30
0.0
 10
7.20306
 20
3.71987
 30
0.0
 10
7.20306
 20
3.71987
 30
0.0
 10
7.30178
 20
3.6361
 30
0.0
 10
7.42809
 20
3.57988
 30
0.0
 10
7.57848
 20
3.57776
 30
0.0
 10
7.57848
 20
3.57776
 30
0.0
 10
7.9549
 20
3.5789
 30
0.0
 10
8.36014
 20
3.9087
 30
0.0
 10
8.36128
 20
4.47269
 30
0.0
 10
8.36128
 20
4.47269
 30
0.0
 10
8.36435
 20
5.02653
 30
0.0
 10
8.09924
 20
5.23428
 30
0.0
 10
7.93792
 20
5.33416
 30
0.0
  0
SPLINE
  5
42
330
1F
100
AcDbEntity
  8
Camada 1
 62
   250
100
AcDbSpline
210
0.0
220
0.0
230
1.0
 70
    11
 71
     3
 72
   104
 73
   100
 74
     0
 42
0.0000000001
 43
0.0000000001
 12
1.0
 22
0.0
 32
0.0
 13
1.0
 23
0.0
 33
0.0
 40
0.0
 40
0.0
 40
0.0
 40
0.0
 40
0.0384615384615385
 40
0.0384615384615385
 40
0.0384615384615385
 40
0.0384615384615385
 40
0.0769230769230769
 40
0.0769230769230769
 40
0.0769230769230769
 40
0.0769230769230769
 40
0.1153846153846154
 40
0.1153846153846154
 40
0.1153846153846154
 40
0.1153846153846154
 40
0.1538461538461539
 40
0.1538461538461539
 40
0.1538461538461539
 40
0.1538461538461539
 40
0.1923076923076923
 40
0.1923076923076923
 40
0.1923076923076923
 40
0.1923076923076923
 40
0.2307692307692308
 40
0.2307692307692308
 40
0.2307692307692308
 40
0.2307692307692308
 40
0.2692307692307692
 40
0.2692307692307692
 40
0.2692307692307692
 40
0.2692307692307692
 40
0.3076923076923077
 40
0.3076923076923077
 40
0.3076923076923077
 40
0.3076923076923077
 40
0.3461538461538461
 40
0.3461538461538461
 40
0.3461538461538461
 40
0.3461538461538461
 40
0.3846153846153846
 40
0.3846153846153846
 40
0.3846153846153846
 40
0.3846153846153846
 40
0.4230769230769231
 40
0.4230769230769231
 40
0.4230769230769231
 40
0.4230769230769231
 40
0.4615384615384616
 40
0.4615384615384616
 40
0.4615384615384616
 40
0.4615384615384616
 40
0.5
 40
0.5
 40
0.5
 40
0.5
 40
0.5384615384615384
 40
0.5384615384615384
 40
0.5384615384615384
 40
0.5384615384615384
 40
0.5769230769230769
 40
0.5769230769230769
 40
0.5769230769230769
 40
0.5769230769230769
 40
0.6153846153846154
 40
0.6153846153846154
 40
0.6153846153846154
 40
0.6153846153846154
 40
0.6538461538461539
 40
0.6538461538461539
 40
0.6538461538461539
 40
0.6538461538461539
 40
0.6923076923076923
 40
0.6923076923076923
 40
0.6923076923076923
 40
0.6923076923076923
 40
0.7307692307692307
 40
0.7307692307692307
 40
0.7307692307692307
 40
0.7307692307692307
 40
0.7692307692307693
 40
0.7692307692307693
 40
0.7692307692307693
 40
0.7692307692307693
 40
0.8076923076923077
 40
0.8076923076923077
 40
0.8076923076923077
 40
0.8076923076923077
 40
0.8461538461538461
 40
0.8461538461538461
 40
0.8461538461538461
 40
0.8461538461538461
 40
0.8846153846153846
 40
0.8846153846153846
 40
0.8846153846153846
 40
0.8846153846153846
 40
0.9230769230769231
 40
0.9230769230769231
 40
0.9230769230769231
 40
0.9230769230769231
 40
1.0
 40
1.0
 40
1.0
 40
1.0
 10
-7.3878
 20
4.63918
 30
0.0
 10
-7.24442
 20
4.59698
 30
0.0
 10
-7.06419
 20
4.406
 30
0.0
 10
-7.06646
 20
4.20444
 30
0.0
 10
-7.06646
 20
4.20444
 30
0.0
 10
-7.06646
 20
4.16012
 30
0.0
 10
-7.07802
 20
4.10684
 30
0.0
 10
-7.09805
 20
4.05289
 30
0.0
 10
-7.09805
 20
4.05289
 30
0.0
 10
-7.09805
 20
4.05289
 30
0.0
 10
-7.11305
 20
4.01688
 30
0.0
 10
-7.11305
 20
4.01688
 30
0.0
 10
-7.11305
 20
4.01688
 30
0.0
 10
-7.11305
 20
4.01688
 30
0.0
 10
-7.11826
 20
4.00516
 30
0.0
 10
-7.11826
 20
4.00516
 30
0.0
 10
-7.11826
 20
4.00516
 30
0.0
 10
-7.13636
 20
3.97013
 30
0.0
 10
-7.16078
 20
3.9297
 30
0.0
 10
-7.19144
 20
3.88636
 30
0.0
 10
-7.19144
 20
3.88636
 30
0.0
 10
-7.19144
 20
3.88636
 30
0.0
 10
-7.20626
 20
3.86633
 30
0.0
 10
-7.20626
 20
3.86633
 30
0.0
 10
-7.20626
 20
3.86633
 30
0.0
 10
-7.29654
 20
3.76026
 30
0.0
 10
-7.42282
 20
3.68385
 30
0.0
 10
-7.57861
 20
3.68385
 30
0.0
 10
-7.57861
 20
3.68385
 30
0.0
 10
-7.89473
 20
3.68385
 30
0.0
 10
-8.2542
 20
3.96299
 30
0.0
 10
-8.25518
 20
4.47268
 30
0.0
 10
-8.25518
 20
4.47268
 30
0.0
 10
-8.25193
 20
4.98401
 30
0.0
 10
-8.0378
 20
5.13996
 30
0.0
 10
-7.88937
 20
5.23968
 30
0.0
 10
-7.88937
 20
5.23968
 30
0.0
 10
-7.87127
 20
5.24262
 30
0.0
 10
-7.83005
 20
5.2514
 30
0.0
 10
-7.77287
 20
5.26085
 30
0.0
 10
-7.77287
 20
5.26085
 30
0.0
 10
-7.77287
 20
5.26085
 30
0.0
 10
-7.76308
 20
5.26199
 30
0.0
 10
-7.76308
 20
5.26199
 30
0.0
 10
-7.76308
 20
5.26199
 30
0.0
 10
-7.74726
 20
5.26524
 30
0.0
 10
-7.73032
 20
5.26704
 30
0.0
 10
-7.71225
 20
5.2703
 30
0.0
 10
-7.71225
 20
5.2703
 30
0.0
 10
-7.71225
 20
5.2703
 30
0.0
 10
-7.70474
 20
5.27144
 30
0.0
 10
-7.70474
 20
5.27144
 30
0.0
 10
-7.70474
 20
5.27144
 30
0.0
 10
-7.6306
 20
5.28202
 30
0.0
 10
-7.54049
 20
5.29263
 30
0.0
 10
-7.44696
 20
5.29914
 30
0.0
 10
-7.44696
 20
5.29914
 30
0.0
 10
-7.39727
 20
5.30242
 30
0.0
 10
-7.34626
 20
5.30533
 30
0.0
 10
-7.29541
 20
5.30533
 30
0.0
 10
-7.29541
 20
5.30533
 30
0.0
 10
-7.29541
 20
5.30533
 30
0.0
 10
-7.28271
 20
5.30419
 30
0.0
 10
-7.28271
 20
5.30419
 30
0.0
 10
-7.28271
 20
5.30419
 30
0.0
 10
-7.25305
 20
5.30419
 30
0.0
 10
-7.22437
 20
5.30419
 30
0.0
 10
-7.19569
 20
5.30242
 30
0.0
 10
-7.19569
 20
5.30242
 30
0.0
 10
-7.19569
 20
5.30242
 30
0.0
 10
-7.16082
 20
5.298
 30
0.0
 10
-7.16082
 20
5.298
 30
0.0
 10
-7.16082
 20
5.298
 30
0.0
 10
-7.14061
 20
5.29702
 30
0.0
 10
-7.12156
 20
5.29475
 30
0.0
 10
-7.10248
 20
5.29181
 30
0.0
 10
-7.10248
 20
5.29181
 30
0.0
 10
-7.10248
 20
5.29181
 30
0.0
 10
-7.06419
 20
5.28414
 30
0.0
 10
-7.06419
 20
5.28414
 30
0.0
 10
-7.06419
 20
5.28414
 30
0.0
 10
-7.04839
 20
5.28089
 30
0.0
 10
-7.03355
 20
5.2776
 30
0.0
 10
-7.01971
 20
5.27469
 30
0.0
 10
-7.01971
 20
5.27469
 30
0.0
 10
-7.01971
 20
5.27469
 30
0.0
 10
-6.9868
 20
5.2631
 30
0.0
 10
-6.9868
 20
5.2631
 30
0.0
 10
-6.9868
 20
5.2631
 30
0.0
 10
-6.9868
 20
5.2631
 30
0.0
 10
-6.96251
 20
5.2535
 30
0.0
 10
-6.96251
 20
5.2535
 30
0.0
 10
-6.96251
 20
5.2535
 30
0.0
 10
-6.96251
 20
5.2535
 30
0.0
 10
-7.46408
 20
4.6625
 30
0.0
 10
-7.46408
 20
4.6625
 30
0.0
 10
-7.46408
 20
4.6625
 30
0.0
 10
-7.46408
 20
4.6625
 30
0.0
 10
-7.3878
 20
4.63918
 30
0.0
 10
-7.3878
 20
4.63918
 30
0.0
  0
SPLINE
  5
43
330
1F
100
AcDbEntity
  8
Camada 1
 62
   250
100
AcDbSpline
210
0.0
220
0.0
230
1.0
 70
    11
 71
     3
 72
    64
 73
    60
 74
     0
 42
0.0000000001
 43
0.0000000001
 12
1.0
 22
0.0
 32
0.0
 13
1.0
 23
0.0
 33
0.0
 40
0.0
 40
0.0
 40
0.0
 40
0.0
 40
0.0625
 40
0.0625
 40
0.0625
 40
0.0625
 40
0.125
 40
0.125
 40
0.125
 40
0.125
 40
0.1875
 40
0.1875
 40
0.1875
 40
0.1875
 40
0.25
 40
0.25
 40
0.25
 40
0.25
 40
0.3125
 40
0.3125
 40
0.3125
 40
0.3125
 40
0.375
 40
0.375
 40
0.375
 40
0.375
 40
0.4375
 40
0.4375
 40
0.4375
 40
0.4375
 40
0.5
 40
0.5
 40
0.5
 40
0.5
 40
0.5625
 40
0.5625
 40
0.5625
 40
0.5625
 40
0.625
 40
0.625
 40
0.625
 40
0.625
 40
0.6875
 40
0.6875
 40
0.6875
 40
0.6875
 40
0.75
 40
0.75
 40
0.75
 40
0.75
 40
0.8125
 40
0.8125
 40
0.8125
 40
0.8125
 40
0.875
 40
0.875
 40
0.875
 40
0.875
 40
1.0
 40
1.0
 40
1.0
 40
1.0
 10
-2.55053
 20
8.85513
 30
0.0
 10
-2.55053
 20
8.85513
 30
0.0
 10
-2.50394
 20
8.76583
 30
0.0
 10
-2.50394
 20
8.76583
 30
0.0
 10
-2.50394
 20
8.76583
 30
0.0
 10
-2.47949
 20
8.71924
 30
0.0
 10
-2.46777
 20
8.66415
 30
0.0
 10
-2.46581
 20
8.60597
 30
0.0
 10
-2.46581
 20
8.60597
 30
0.0
 10
-2.46581
 20
8.60597
 30
0.0
 10
-2.46483
 20
8.59099
 30
0.0
 10
-2.46483
 20
8.59099
 30
0.0
 10
-2.46483
 20
8.59099
 30
0.0
 10
-2.46369
 20
8.47725
 30
0.0
 10
-2.50507
 20
8.35453
 30
0.0
 10
-2.57286
 20
8.26299
 30
0.0
 10
-2.57286
 20
8.26299
 30
0.0
 10
-2.64081
 20
8.17189
 30
0.0
 10
-2.72978
 20
8.11472
 30
0.0
 10
-2.82951
 20
8.11472
 30
0.0
 10
-2.82951
 20
8.11472
 30
0.0
 10
-2.85298
 20
8.11472
 30
0.0
 10
-2.87841
 20
8.11797
 30
0.0
 10
-2.90383
 20
8.12417
 30
0.0
 10
-2.90383
 20
8.12417
 30
0.0
 10
-3.11386
 20
8.18804
 30
0.0
 10
-3.20805
 20
8.32068
 30
0.0
 10
-3.21032
 20
8.50173
 30
0.0
 10
-3.21032
 20
8.50173
 30
0.0
 10
-3.21032
 20
8.60486
 30
0.0
 10
-3.17643
 20
8.72432
 30
0.0
 10
-3.10425
 20
8.85304
 30
0.0
 10
-3.10425
 20
8.85304
 30
0.0
 10
-2.91132
 20
9.1861
 30
0.0
 10
-2.62273
 20
9.23891
 30
0.0
 10
-2.44253
 20
9.24005
 30
0.0
 10
-2.44253
 20
9.24005
 30
0.0
 10
-2.36723
 20
9.24005
 30
0.0
 10
-2.31527
 20
9.2306
 30
0.0
 10
-2.29619
 20
9.22621
 30
0.0
 10
-2.29619
 20
9.22621
 30
0.0
 10
-2.26751
 20
9.20944
 30
0.0
 10
-2.11371
 20
9.11572
 30
0.0
 10
-1.95464
 20
8.97689
 30
0.0
 10
-1.95464
 20
8.97689
 30
0.0
 10
-1.95464
 20
8.97689
 30
0.0
 10
-1.92384
 20
8.94919
 30
0.0
 10
-1.92384
 20
8.94919
 30
0.0
 10
-1.92384
 20
8.94919
 30
0.0
 10
-1.92384
 20
8.94919
 30
0.0
 10
-1.89939
 20
8.92704
 30
0.0
 10
-1.89939
 20
8.92704
 30
0.0
 10
-1.89939
 20
8.92704
 30
0.0
 10
-1.84854
 20
8.87814
 30
0.0
 10
-1.79771
 20
8.82536
 30
0.0
 10
-1.75305
 20
8.76816
 30
0.0
 10
-1.75305
 20
8.76816
 30
0.0
 10
-1.75305
 20
8.76816
 30
0.0
 10
-2.55053
 20
8.85513
 30
0.0
 10
-2.55053
 20
8.85513
 30
0.0
  0
SPLINE
  5
44
330
1F
100
AcDbEntity
  8
Camada 1
 62
   250
100
AcDbSpline
210
0.0
220
0.0
230
1.0
 70
    11
 71
     3
 72
   140
 73
   136
 74
     0
 42
0.0000000001
 43
0.0000000001
 12
1.0
 22
0.0
 32
0.0
 13
1.0
 23
0.0
 33
0.0
 40
0.0
 40
0.0
 40
0.0
 40
0.0
 40
0.0285714285714286
 40
0.0285714285714286
 40
0.0285714285714286
 40
0.0285714285714286
 40
0.0571428571428571
 40
0.0571428571428571
 40
0.0571428571428571
 40
0.0571428571428571
 40
0.0857142857142857
 40
0.0857142857142857
 40
0.0857142857142857
 40
0.0857142857142857
 40
0.1142857142857143
 40
0.1142857142857143
 40
0.1142857142857143
 40
0.1142857142857143
 40
0.1428571428571428
 40
0.1428571428571428
 40
0.1428571428571428
 40
0.1428571428571428
 40
0.1714285714285714
 40
0.1714285714285714
 40
0.1714285714285714
 40
0.1714285714285714
 40
0.2
 40
0.2
 40
0.2
 40
0.2
 40
0.2285714285714286
 40
0.2285714285714286
 40
0.2285714285714286
 40
0.2285714285714286
 40
0.2571428571428571
 40
0.2571428571428571
 40
0.2571428571428571
 40
0.2571428571428571
 40
0.2857142857142857
 40
0.2857142857142857
 40
0.2857142857142857
 40
0.2857142857142857
 40
0.3142857142857143
 40
0.3142857142857143
 40
0.3142857142857143
 40
0.3142857142857143
 40
0.3428571428571429
 40
0.3428571428571429
 40
0.3428571428571429
 40
0.3428571428571429
 40
0.3714285714285714
 40
0.3714285714285714
 40
0.3714285714285714
 40
0.3714285714285714
 40
0.4
 40
0.4
 40
0.4
 40
0.4
 40
0.4285714285714285
 40
0.4285714285714285
 40
0.4285714285714285
 40
0.4285714285714285
 40
0.4571428571428571
 40
0.4571428571428571
 40
0.4571428571428571
 40
0.4571428571428571
 40
0.4857142857142857
 40
0.4857142857142857
 40
0.4857142857142857
 40
0.4857142857142857
 40
0.5142857142857142
 40
0.5142857142857142
 40
0.5142857142857142
 40
0.5142857142857142
 40
0.5428571428571428
 40
0.5428571428571428
 40
0.5428571428571428
 40
0.5428571428571428
 40
0.5714285714285714
 40
0.5714285714285714
 40
0.5714285714285714
 40
0.5714285714285714
 40
0.6
 40
0.6
 40
0.6
 40
0.6
 40
0.6285714285714286
 40
0.6285714285714286
 40
0.6285714285714286
 40
0.6285714285714286
 40
0.6571428571428571
 40
0.6571428571428571
 40
0.6571428571428571
 40
0.6571428571428571
 40
0.6857142857142857
 40
0.6857142857142857
 40
0.6857142857142857
 40
0.6857142857142857
 40
0.7142857142857143
 40
0.7142857142857143
 40
0.7142857142857143
 40
0.7142857142857143
 40
0.7428571428571429
 40
0.7428571428571429
 40
0.7428571428571429
 40
0.7428571428571429
 40
0.7714285714285715
 40
0.7714285714285715
 40
0.7714285714285715
 40
0.7714285714285715
 40
0.8
 40
0.8
 40
0.8
 40
0.8
 40
0.8285714285714286
 40
0.8285714285714286
 40
0.8285714285714286
 40
0.8285714285714286
 40
0.8571428571428571
 40
0.8571428571428571
 40
0.8571428571428571
 40
0.8571428571428571
 40
0.8857142857142857
 40
0.8857142857142857
 40
0.8857142857142857
 40
0.8857142857142857
 40
0.9142857142857143
 40
0.9142857142857143
 40
0.9142857142857143
 40
0.9142857142857143
 40
0.9428571428571428
 40
0.9428571428571428
 40
0.9428571428571428
 40
0.9428571428571428
 40
1.0
 40
1.0
 40
1.0
 40
1.0
 10
1.78795
 20
8.8074
 30
0.0
 10
1.78795
 20
8.8074
 30
0.0
 10
1.81549
 20
8.84031
 30
0.0
 10
1.81549
 20
8.84031
 30
0.0
 10
1.81549
 20
8.84031
 30
0.0
 10
1.81549
 20
8.84031
 30
0.0
 10
1.85264
 20
8.87926
 30
0.0
 10
1.85264
 20
8.87926
 30
0.0
 10
1.85264
 20
8.87926
 30
0.0
 10
1.85264
 20
8.87926
 30
0.0
 10
1.89093
 20
8.91755
 30
0.0
 10
1.89093
 20
8.91755
 30
0.0
 10
1.89093
 20
8.91755
 30
0.0
 10
1.89093
 20
8.91755
 30
0.0
 10
1.92903
 20
8.95356
 30
0.0
 10
1.92903
 20
8.95356
 30
0.0
 10
1.92903
 20
8.95356
 30
0.0
 10
1.92903
 20
8.95356
 30
0.0
 10
1.96504
 20
8.98452
 30
0.0
 10
1.96504
 20
8.98452
 30
0.0
 10
1.96504
 20
8.98452
 30
0.0
 10
1.96504
 20
8.98452
 30
0.0
 10
2.00446
 20
9.01841
 30
0.0
 10
2.00446
 20
9.01841
 30
0.0
 10
2.00446
 20
9.01841
 30
0.0
 10
2.00446
 20
9.01841
 30
0.0
 10
2.04555
 20
9.05117
 30
0.0
 10
2.04555
 20
9.05117
 30
0.0
 10
2.04555
 20
9.05117
 30
0.0
 10
2.07553
 20
9.07562
 30
0.0
 10
2.10503
 20
9.09795
 30
0.0
 10
2.13273
 20
9.11684
 30
0.0
 10
2.13273
 20
9.11684
 30
0.0
 10
2.13273
 20
9.11684
 30
0.0
 10
2.14003
 20
9.12221
 30
0.0
 10
2.14003
 20
9.12221
 30
0.0
 10
2.14003
 20
9.12221
 30
0.0
 10
2.15715
 20
9.13507
 30
0.0
 10
2.17408
 20
9.14666
 30
0.0
 10
2.1899
 20
9.15724
 30
0.0
 10
2.1899
 20
9.15724
 30
0.0
 10
2.1899
 20
9.15724
 30
0.0
 10
2.19625
 20
9.16163
 30
0.0
 10
2.19625
 20
9.16163
 30
0.0
 10
2.19625
 20
9.16163
 30
0.0
 10
2.19625
 20
9.16163
 30
0.0
 10
2.23324
 20
9.18608
 30
0.0
 10
2.23324
 20
9.18608
 30
0.0
 10
2.23324
 20
9.18608
 30
0.0
 10
2.23324
 20
9.18608
 30
0.0
 10
2.24187
 20
9.19113
 30
0.0
 10
2.24187
 20
9.19113
 30
0.0
 10
2.24187
 20
9.19113
 30
0.0
 10
2.24187
 20
9.19113
 30
0.0
 10
2.27055
 20
9.20939
 30
0.0
 10
2.27055
 20
9.20939
 30
0.0
 10
2.27055
 20
9.20939
 30
0.0
 10
2.27055
 20
9.20939
 30
0.0
 10
2.28309
 20
9.21672
 30
0.0
 10
2.28309
 20
9.21672
 30
0.0
 10
2.28309
 20
9.21672
 30
0.0
 10
2.28309
 20
9.21672
 30
0.0
 10
2.28963
 20
9.22095
 30
0.0
 10
2.28963
 20
9.22095
 30
0.0
 10
2.28963
 20
9.22095
 30
0.0
 10
2.28963
 20
9.22095
 30
0.0
 10
2.29905
 20
9.22616
 30
0.0
 10
2.29905
 20
9.22616
 30
0.0
 10
2.29905
 20
9.22616
 30
0.0
 10
2.30559
 20
9.22714
 30
0.0
 10
2.31831
 20
9.23058
 30
0.0
 10
2.33506
 20
9.2327
 30
0.0
 10
2.33506
 20
9.2327
 30
0.0
 10
2.36162
 20
9.23561
 30
0.0
 10
2.39779
 20
9.24003
 30
0.0
 10
2.44245
 20
9.24003
 30
0.0
 10
2.44245
 20
9.24003
 30
0.0
 10
2.44245
 20
9.24003
 30
0.0
 10
2.44441
 20
9.24002
 30
0.0
 10
2.44441
 20
9.24002
 30
0.0
 10
2.44441
 20
9.24002
 30
0.0
 10
2.62478
 20
9.23888
 30
0.0
 10
2.91206
 20
9.18607
 30
0.0
 10
3.10402
 20
8.85301
 30
0.0
 10
3.10402
 20
8.85301
 30
0.0
 10
3.17834
 20
8.72429
 30
0.0
 10
3.21223
 20
8.60486
 30
0.0
 10
3.21223
 20
8.5017
 30
0.0
 10
3.21223
 20
8.5017
 30
0.0
 10
3.20995
 20
8.32067
 30
0.0
 10
3.11478
 20
8.18804
 30
0.0
 10
2.90359
 20
8.12528
 30
0.0
 10
2.90359
 20
8.12528
 30
0.0
 10
2.87819
 20
8.11795
 30
0.0
 10
2.85374
 20
8.1147
 30
0.0
 10
2.82945
 20
8.1147
 30
0.0
 10
2.82945
 20
8.1147
 30
0.0
 10
2.73087
 20
8.1147
 30
0.0
 10
2.64059
 20
8.1719
 30
0.0
 10
2.57378
 20
8.26411
 30
0.0
 10
2.57378
 20
8.26411
 30
0.0
 10
2.507
 20
8.35454
 30
0.0
 10
2.46657
 20
8.47628
 30
0.0
 10
2.46559
 20
8.58772
 30
0.0
 10
2.46559
 20
8.58772
 30
0.0
 10
2.46559
 20
8.58772
 30
0.0
 10
2.46559
 20
8.59211
 30
0.0
 10
2.46559
 20
8.59211
 30
0.0
 10
2.46559
 20
8.59211
 30
0.0
 10
2.46559
 20
8.61312
 30
0.0
 10
2.46998
 20
8.63431
 30
0.0
 10
2.47194
 20
8.65468
 30
0.0
 10
2.47194
 20
8.65468
 30
0.0
 10
2.47194
 20
8.65468
 30
0.0
 10
2.48041
 20
8.69918
 30
0.0
 10
2.48041
 20
8.69918
 30
0.0
 10
2.48041
 20
8.69918
 30
0.0
 10
2.48676
 20
8.72246
 30
0.0
 10
2.49327
 20
8.74577
 30
0.0
 10
2.50486
 20
8.76697
 30
0.0
 10
2.50486
 20
8.76697
 30
0.0
 10
2.50486
 20
8.76697
 30
0.0
 10
2.54934
 20
8.85415
 30
0.0
 10
2.54934
 20
8.85415
 30
0.0
 10
2.54934
 20
8.85415
 30
0.0
 10
2.54934
 20
8.85415
 30
0.0
 10
2.17292
 20
8.81356
 30
0.0
 10
2.17292
 20
8.81356
 30
0.0
 10
2.17292
 20
8.81356
 30
0.0
 10
2.17292
 20
8.81356
 30
0.0
 10
1.75496
 20
8.7681
 30
0.0
 10
1.75496
 20
8.7681
 30
0.0
 10
1.75496
 20
8.7681
 30
0.0
 10
1.75496
 20
8.7681
 30
0.0
 10
1.78795
 20
8.8074
 30
0.0
 10
1.78795
 20
8.8074
 30
0.0
  0
SPLINE
  5
45
330
1F
100
AcDbEntity
  8
Camada 1
 62
   250
100
AcDbSpline
210
0.0
220
0.0
230
1.0
 70
    11
 71
     3
 72
   148
 73
   144
 74
     0
 42
0.0000000001
 43
0.0000000001
 12
1.0
 22
0.0
 32
0.0
 13
1.0
 23
0.0
 33
0.0
 40
0.0
 40
0.0
 40
0.0
 40
0.0
 40
0.027027027027027
 40
0.027027027027027
 40
0.027027027027027
 40
0.027027027027027
 40
0.0540540540540541
 40
0.0540540540540541
 40
0.0540540540540541
 40
0.0540540540540541
 40
0.0810810810810811
 40
0.0810810810810811
 40
0.0810810810810811
 40
0.0810810810810811
 40
0.1081081081081081
 40
0.1081081081081081
 40
0.1081081081081081
 40
0.1081081081081081
 40
0.1351351351351351
 40
0.1351351351351351
 40
0.1351351351351351
 40
0.1351351351351351
 40
0.1621621621621622
 40
0.1621621621621622
 40
0.1621621621621622
 40
0.1621621621621622
 40
0.1891891891891892
 40
0.1891891891891892
 40
0.1891891891891892
 40
0.1891891891891892
 40
0.2162162162162162
 40
0.2162162162162162
 40
0.2162162162162162
 40
0.2162162162162162
 40
0.2432432432432433
 40
0.2432432432432433
 40
0.2432432432432433
 40
0.2432432432432433
 40
0.2702702702702703
 40
0.2702702702702703
 40
0.2702702702702703
 40
0.2702702702702703
 40
0.2972972972972973
 40
0.2972972972972973
 40
0.2972972972972973
 40
0.2972972972972973
 40
0.3243243243243243
 40
0.3243243243243243
 40
0.3243243243243243
 40
0.3243243243243243
 40
0.3513513513513514
 40
0.3513513513513514
 40
0.3513513513513514
 40
0.3513513513513514
 40
0.3783783783783784
 40
0.3783783783783784
 40
0.3783783783783784
 40
0.3783783783783784
 40
0.4054054054054054
 40
0.4054054054054054
 40
0.4054054054054054
 40
0.4054054054054054
 40
0.4324324324324325
 40
0.4324324324324325
 40
0.4324324324324325
 40
0.4324324324324325
 40
0.4594594594594595
 40
0.4594594594594595
 40
0.4594594594594595
 40
0.4594594594594595
 40
0.4864864864864865
 40
0.4864864864864865
 40
0.4864864864864865
 40
0.4864864864864865
 40
0.5135135135135135
 40
0.5135135135135135
 40
0.5135135135135135
 40
0.5135135135135135
 40
0.5405405405405406
 40
0.5405405405405406
 40
0.5405405405405406
 40
0.5405405405405406
 40
0.5675675675675675
 40
0.5675675675675675
 40
0.5675675675675675
 40
0.5675675675675675
 40
0.5945945945945946
 40
0.5945945945945946
 40
0.5945945945945946
 40
0.5945945945945946
 40
0.6216216216216216
 40
0.6216216216216216
 40
0.6216216216216216
 40
0.6216216216216216
 40
0.6486486486486487
 40
0.6486486486486487
 40
0.6486486486486487
 40
0.6486486486486487
 40
0.6756756756756757
 40
0.6756756756756757
 40
0.6756756756756757
 40
0.6756756756756757
 40
0.7027027027027027
 40
0.7027027027027027
 40
0.7027027027027027
 40
0.7027027027027027
 40
0.7297297297297297
 40
0.7297297297297297
 40
0.7297297297297297
 40
0.7297297297297297
 40
0.7567567567567568
 40
0.7567567567567568
 40
0.7567567567567568
 40
0.7567567567567568
 40
0.7837837837837838
 40
0.7837837837837838
 40
0.7837837837837838
 40
0.7837837837837838
 40
0.8108108108108109
 40
0.8108108108108109
 40
0.8108108108108109
 40
0.8108108108108109
 40
0.8378378378378378
 40
0.8378378378378378
 40
0.8378378378378378
 40
0.8378378378378378
 40
0.8648648648648649
 40
0.8648648648648649
 40
0.8648648648648649
 40
0.8648648648648649
 40
0.8918918918918919
 40
0.8918918918918919
 40
0.8918918918918919
 40
0.8918918918918919
 40
0.918918918918919
 40
0.918918918918919
 40
0.918918918918919
 40
0.918918918918919
 40
0.9459459459459459
 40
0.9459459459459459
 40
0.9459459459459459
 40
0.9459459459459459
 40
1.0
 40
1.0
 40
1.0
 40
1.0
 10
7.57846
 20
3.68385
 30
0.0
 10
7.42267
 20
3.68385
 30
0.0
 10
7.29639
 20
3.76026
 30
0.0
 10
7.2063
 20
3.86633
 30
0.0
 10
7.2063
 20
3.86633
 30
0.0
 10
7.2063
 20
3.86633
 30
0.0
 10
7.1913
 20
3.88752
 30
0.0
 10
7.1913
 20
3.88752
 30
0.0
 10
7.1913
 20
3.88752
 30
0.0
 10
7.15971
 20
3.93086
 30
0.0
 10
7.1364
 20
3.97129
 30
0.0
 10
7.1183
 20
4.00629
 30
0.0
 10
7.1183
 20
4.00629
 30
0.0
 10
7.1183
 20
4.00629
 30
0.0
 10
7.11293
 20
4.01687
 30
0.0
 10
7.11293
 20
4.01687
 30
0.0
 10
7.11293
 20
4.01687
 30
0.0
 10
7.11293
 20
4.01687
 30
0.0
 10
7.09809
 20
4.05402
 30
0.0
 10
7.09809
 20
4.05402
 30
0.0
 10
7.09809
 20
4.05402
 30
0.0
 10
7.07803
 20
4.10683
 30
0.0
 10
7.06631
 20
4.16009
 30
0.0
 10
7.06729
 20
4.20444
 30
0.0
 10
7.06729
 20
4.20444
 30
0.0
 10
7.06533
 20
4.36039
 30
0.0
 10
7.17241
 20
4.5098
 30
0.0
 10
7.28906
 20
4.58851
 30
0.0
 10
7.28906
 20
4.58851
 30
0.0
 10
7.32279
 20
4.61182
 30
0.0
 10
7.35785
 20
4.62976
 30
0.0
 10
7.39092
 20
4.6392
 30
0.0
 10
7.39092
 20
4.6392
 30
0.0
 10
7.39092
 20
4.6392
 30
0.0
 10
7.46831
 20
4.66251
 30
0.0
 10
7.46831
 20
4.66251
 30
0.0
 10
7.46831
 20
4.66251
 30
0.0
 10
7.46831
 20
4.66251
 30
0.0
 10
6.96335
 20
5.25253
 30
0.0
 10
6.96335
 20
5.25253
 30
0.0
 10
6.96335
 20
5.25253
 30
0.0
 10
6.96335
 20
5.25253
 30
0.0
 10
6.98894
 20
5.26311
 30
0.0
 10
6.98894
 20
5.26311
 30
0.0
 10
6.98894
 20
5.26311
 30
0.0
 10
6.98894
 20
5.26311
 30
0.0
 10
7.02072
 20
5.27353
 30
0.0
 10
7.02072
 20
5.27353
 30
0.0
 10
7.02072
 20
5.27353
 30
0.0
 10
7.03554
 20
5.2776
 30
0.0
 10
7.05149
 20
5.28086
 30
0.0
 10
7.06829
 20
5.28525
 30
0.0
 10
7.06829
 20
5.28525
 30
0.0
 10
7.06829
 20
5.28525
 30
0.0
 10
7.10218
 20
5.29179
 30
0.0
 10
7.10218
 20
5.29179
 30
0.0
 10
7.10218
 20
5.29179
 30
0.0
 10
7.12353
 20
5.29473
 30
0.0
 10
7.14584
 20
5.297
 30
0.0
 10
7.16915
 20
5.29912
 30
0.0
 10
7.16915
 20
5.29912
 30
0.0
 10
7.16915
 20
5.29912
 30
0.0
 10
7.19571
 20
5.3024
 30
0.0
 10
7.19571
 20
5.3024
 30
0.0
 10
7.19571
 20
5.3024
 30
0.0
 10
7.22844
 20
5.30417
 30
0.0
 10
7.26249
 20
5.30534
 30
0.0
 10
7.29739
 20
5.30534
 30
0.0
 10
7.29739
 20
5.30534
 30
0.0
 10
7.29739
 20
5.30534
 30
0.0
 10
7.31123
 20
5.3042
 30
0.0
 10
7.31123
 20
5.3042
 30
0.0
 10
7.31123
 20
5.3042
 30
0.0
 10
7.33454
 20
5.3042
 30
0.0
 10
7.357
 20
5.3042
 30
0.0
 10
7.37918
 20
5.30322
 30
0.0
 10
7.37918
 20
5.30322
 30
0.0
 10
7.37918
 20
5.30322
 30
0.0
 10
7.40249
 20
5.3024
 30
0.0
 10
7.40249
 20
5.3024
 30
0.0
 10
7.40249
 20
5.3024
 30
0.0
 10
7.42808
 20
5.30126
 30
0.0
 10
7.45218
 20
5.29912
 30
0.0
 10
7.47776
 20
5.29798
 30
0.0
 10
7.47776
 20
5.29798
 30
0.0
 10
7.47776
 20
5.29798
 30
0.0
 10
7.50221
 20
5.29586
 30
0.0
 10
7.50221
 20
5.29586
 30
0.0
 10
7.50221
 20
5.29586
 30
0.0
 10
7.52666
 20
5.29358
 30
0.0
 10
7.55095
 20
5.29033
 30
0.0
 10
7.57441
 20
5.28853
 30
0.0
 10
7.57441
 20
5.28853
 30
0.0
 10
7.57441
 20
5.28853
 30
0.0
 10
7.59658
 20
5.28641
 30
0.0
 10
7.59658
 20
5.28641
 30
0.0
 10
7.59658
 20
5.28641
 30
0.0
 10
7.61986
 20
5.28313
 30
0.0
 10
7.64204
 20
5.27972
 30
0.0
 10
7.66437
 20
5.2776
 30
0.0
 10
7.66437
 20
5.2776
 30
0.0
 10
7.66437
 20
5.2776
 30
0.0
 10
7.68146
 20
5.27469
 30
0.0
 10
7.68146
 20
5.27469
 30
0.0
 10
7.68146
 20
5.27469
 30
0.0
 10
7.70054
 20
5.27257
 30
0.0
 10
7.71959
 20
5.26929
 30
0.0
 10
7.73753
 20
5.26638
 30
0.0
 10
7.73753
 20
5.26638
 30
0.0
 10
7.73753
 20
5.26638
 30
0.0
 10
7.75251
 20
5.2641
 30
0.0
 10
7.75251
 20
5.2641
 30
0.0
 10
7.75251
 20
5.2641
 30
0.0
 10
7.77045
 20
5.26082
 30
0.0
 10
7.78754
 20
5.2587
 30
0.0
 10
7.80238
 20
5.25545
 30
0.0
 10
7.80238
 20
5.25545
 30
0.0
 10
7.80238
 20
5.25545
 30
0.0
 10
7.81394
 20
5.25349
 30
0.0
 10
7.81394
 20
5.25349
 30
0.0
 10
7.81394
 20
5.25349
 30
0.0
 10
7.81394
 20
5.25349
 30
0.0
 10
7.8532
 20
5.246
 30
0.0
 10
7.8532
 20
5.246
 30
0.0
 10
7.8532
 20
5.246
 30
0.0
 10
7.8532
 20
5.246
 30
0.0
 10
7.86265
 20
5.24486
 30
0.0
 10
7.86265
 20
5.24486
 30
0.0
 10
7.86265
 20
5.24486
 30
0.0
 10
7.86265
 20
5.24486
 30
0.0
 10
7.8871
 20
5.23965
 30
0.0
 10
7.8871
 20
5.23965
 30
0.0
 10
7.8871
 20
5.23965
 30
0.0
 10
7.8871
 20
5.23965
 30
0.0
 10
7.88921
 20
5.23968
 30
0.0
 10
7.88921
 20
5.23968
 30
0.0
 10
7.88921
 20
5.23968
 30
0.0
 10
8.03783
 20
5.13996
 30
0.0
 10
8.25193
 20
4.98401
 30
0.0
 10
8.25518
 20
4.47268
 30
0.0
 10
8.25518
 20
4.47268
 30
0.0
 10
8.25402
 20
3.96296
 30
0.0
 10
7.89458
 20
3.68385
 30
0.0
 10
7.57846
 20
3.68385
 30
0.0
  0
ENDSEC
  0
SECTION
  2
OBJECTS
  0
DICTIONARY
  5
C
330
0
100
AcDbDictionary
281
     1
  3
ACAD_GROUP
350
D
  3
ACAD_LAYOUT
350
1A
  3
ACAD_MATERIAL
350
3B
  3
ACAD_MLEADERSTYLE
350
67
  3
ACAD_MLINESTYLE
350
17
  3
ACAD_PLOTSETTINGS
350
19
  3
ACAD_PLOTSTYLENAME
350
E
  3
ACAD_TABLESTYLE
350
66
  3
ACAD_VISUALSTYLE
350
2A
  0
DICTIONARY
  5
D
102
{ACAD_REACTORS
330
C
102
}
330
C
100
AcDbDictionary
281
     1
  0
DICTIONARY
  5
1A
102
{ACAD_REACTORS
330
C
102
}
330
C
100
AcDbDictionary
281
     1
  3
Layout1
350
1E
  3
Layout2
350
26
  3
Model
350
22
  0
DICTIONARY
  5
3B
102
{ACAD_REACTORS
330
C
102
}
330
C
100
AcDbDictionary
281
     1
  3
ByBlock
350
3D
  3
ByLayer
350
3C
  3
Global
350
3E
  0
DICTIONARY
  5
67
102
{ACAD_REACTORS
330
C
102
}
330
C
100
AcDbDictionary
281
     1
  0
DICTIONARY
  5
17
102
{ACAD_REACTORS
330
C
102
}
330
C
100
AcDbDictionary
281
     1
  3
Standard
350
18
  0
DICTIONARY
  5
19
102
{ACAD_REACTORS
330
C
102
}
330
C
100
AcDbDictionary
281
     1
  0
ACDBDICTIONARYWDFLT
  5
E
102
{ACAD_REACTORS
330
C
102
}
330
C
100
AcDbDictionary
281
     1
  3
Normal
350
F
100
AcDbDictionaryWithDefault
340
F
  0
DICTIONARY
  5
66
102
{ACAD_REACTORS
330
C
102
}
330
C
100
AcDbDictionary
281
     1
  0
DICTIONARY
  5
2A
102
{ACAD_REACTORS
330
C
102
}
330
C
100
AcDbDictionary
281
     1
  3
2dWireframe
350
2F
  3
3D Hidden
350
31
  3
3dWireframe
350
30
  3
Basic
350
32
  3
Brighten
350
36
  3
ColorChange
350
3A
  3
Conceptual
350
34
  3
Dim
350
35
  3
Facepattern
350
39
  3
Flat
350
2B
  3
FlatWithEdges
350
2C
  3
Gouraud
350
2D
  3
GouraudWithEdges
350
2E
  3
Linepattern
350
38
  3
Realistic
350
33
  3
Thicken
350
37
  0
LAYOUT
  5
1E
102
{ACAD_REACTORS
330
1A
102
}
330
1A
100
AcDbPlotSettings
  1

  2
none_device
  4

  6

 40
0.0
 41
0.0
 42
0.0
 43
0.0
 44
0.0
 45
0.0
 46
0.0
 47
0.0
 48
0.0
 49
0.0
140
0.0
141
0.0
142
1.0
143
1.0
 70
   688
 72
     0
 73
     0
 74
     5
  7

 75
    16
 76
     0
 77
     2
 78
   300
147
1.0
148
0.0
149
0.0
100
AcDbLayout
  1
Layout1
 70
     1
 71
     1
 10
0.0
 20
0.0
 11
12.0
 21
9.0
 12
0.0
 22
0.0
 32
0.0
 14
1.000000000000000E+20
 24
1.000000000000000E+20
 34
1.000000000000000E+20
 15
-1.000000000000000E+20
 25
-1.000000000000000E+20
 35
-1.000000000000000E+20
146
0.0
 13
0.0
 23
0.0
 33
0.0
 16
1.0
 26
0.0
 36
0.0
 17
0.0
 27
1.0
 37
0.0
 76
     0
330
1B
  0
LAYOUT
  5
26
102
{ACAD_REACTORS
330
1A
102
}
330
1A
100
AcDbPlotSettings
  1

  2
none_device
  4

  6

 40
0.0
 41
0.0
 42
0.0
 43
0.0
 44
0.0
 45
0.0
 46
0.0
 47
0.0
 48
0.0
 49
0.0
140
0.0
141
0.0
142
1.0
143
1.0
 70
   688
 72
     0
 73
     0
 74
     5
  7

 75
    16
 76
     0
 77
     2
 78
   300
147
1.0
148
0.0
149
0.0
100
AcDbLayout
  1
Layout2
 70
     1
 71
     2
 10
0.0
 20
0.0
 11
0.0
 21
0.0
 12
0.0
 22
0.0
 32
0.0
 14
0.0
 24
0.0
 34
0.0
 15
0.0
 25
0.0
 35
0.0
146
0.0
 13
0.0
 23
0.0
 33
0.0
 16
1.0
 26
0.0
 36
0.0
 17
0.0
 27
1.0
 37
0.0
 76
     0
330
23
  0
LAYOUT
  5
22
102
{ACAD_REACTORS
330
1A
102
}
330
1A
100
AcDbPlotSettings
  1

  2
none_device
  4

  6

 40
0.0
 41
0.0
 42
0.0
 43
0.0
 44
0.0
 45
0.0
 46
0.0
 47
0.0
 48
0.0
 49
0.0
140
0.0
141
0.0
142
1.0
143
1.0
 70
  1712
 72
     0
 73
     0
 74
     0
  7

 75
     0
 76
     0
 77
     2
 78
   300
147
1.0
148
0.0
149
0.0
100
AcDbLayout
  1
Model
 70
     1
 71
     0
 10
0.0
 20
0.0
 11
12.0
 21
9.0
 12
0.0
 22
0.0
 32
0.0
 14
-8.36127
 24
-9.3459
 34
0.0
 15
8.36131
 25
9.34598
 35
0.0
146
0.0
 13
0.0
 23
0.0
 33
0.0
 16
1.0
 26
0.0
 36
0.0
 17
0.0
 27
1.0
 37
0.0
 76
     0
330
1F
331
29
  0
MATERIAL
  5
3D
102
{ACAD_REACTORS
330
3B
102
}
330
3B
100
AcDbMaterial
  1
ByBlock
 72
     1
 94
      127
  0
MATERIAL
  5
3C
102
{ACAD_REACTORS
330
3B
102
}
330
3B
100
AcDbMaterial
  1
ByLayer
 72
     1
 94
      127
  0
MATERIAL
  5
3E
102
{ACAD_REACTORS
330
3B
102
}
330
3B
100
AcDbMaterial
  1
Global
 72
     1
 94
      127
  0
MLINESTYLE
  5
18
102
{ACAD_REACTORS
330
17
102
}
330
17
100
AcDbMlineStyle
  2
Standard
 70
     0
  3

 62
   256
 51
90.0
 52
90.0
 71
     2
 49
0.5
 62
   256
  6
BYLAYER
 49
-0.5
 62
   256
  6
BYLAYER
  0
ACDBPLACEHOLDER
  5
F
102
{ACAD_REACTORS
330
E
102
}
330
E
  0
VISUALSTYLE
  5
2F
102
{ACAD_REACTORS
330
2A
102
}
102
{ACAD_XDICTIONARY
360
4E
102
}
330
2A
100
AcDbVisualStyle
  2
2dWireframe
 70
     4
 71
     0
 72
     2
 73
     0
 90
        0
 40
-0.6
 41
-30.0
 62
     5
 63
     7
421
 16777215
 74
     1
 91
        4
 64
     7
 65
   257
 75
     1
175
     1
 42
1.0
 92
        0
 66
   257
 43
1.0
 76
     1
 77
     6
 78
     2
 67
     7
 79
     5
170
     0
171
     0
290
     0
174
     0
 93
        1
 44
0.0
173
     0
291
     0
 45
0.0
  0
VISUALSTYLE
  5
31
102
{ACAD_REACTORS
330
2A
102
}
102
{ACAD_XDICTIONARY
360
52
102
}
330
2A
100
AcDbVisualStyle
  2
3D Hidden
 70
     6
 71
     1
 72
     2
 73
     2
 90
        0
 40
-0.6
 41
-30.0
 62
     5
 63
     7
421
 16777215
 74
     2
 91
        2
 64
     7
 65
   257
 75
     2
175
     1
 42
40.0
 92
        0
 66
   257
 43
1.0
 76
     1
 77
     6
 78
     2
 67
     7
 79
     3
170
     0
171
     0
290
     0
174
     0
 93
        1
 44
0.0
173
     0
291
     0
 45
0.0
  0
VISUALSTYLE
  5
30
102
{ACAD_REACTORS
330
2A
102
}
102
{ACAD_XDICTIONARY
360
50
102
}
330
2A
100
AcDbVisualStyle
  2
3dWireframe
 70
     5
 71
     0
 72
     2
 73
     0
 90
        0
 40
-0.6
 41
-30.0
 62
     5
 63
     7
421
 16777215
 74
     1
 91
        4
 64
     7
 65
   257
 75
     1
175
     1
 42
1.0
 92
        0
 66
   257
 43
1.0
 76
     1
 77
     6
 78
     2
 67
     7
 79
     5
170
     0
171
     0
290
     0
174
     0
 93
        1
 44
0.0
173
     0
291
     0
 45
0.0
  0
VISUALSTYLE
  5
32
102
{ACAD_REACTORS
330
2A
102
}
102
{ACAD_XDICTIONARY
360
54
102
}
330
2A
100
AcDbVisualStyle
  2
Basic
 70
     7
 71
     1
 72
     0
 73
     1
 90
        0
 40
-0.6
 41
-30.0
 62
     5
 63
     7
421
 16777215
 74
     0
 91
        4
 64
     7
 65
   257
 75
     1
175
     1
 42
1.0
 92
        8
 66
     7
 43
1.0
 76
     1
 77
     6
 78
     2
 67
     7
 79
     5
170
     0
171
     0
290
     0
174
     0
 93
        1
 44
0.0
173
     0
291
     1
 45
0.0
  0
VISUALSTYLE
  5
36
102
{ACAD_REACTORS
330
2A
102
}
102
{ACAD_XDICTIONARY
360
5C
102
}
330
2A
100
AcDbVisualStyle
  2
Brighten
 70
    12
 71
     2
 72
     2
 73
     0
 90
        0
 40
-0.6
 41
-30.0
 62
     5
 63
     7
421
 16777215
 74
     1
 91
        4
 64
     7
 65
   257
 75
     1
175
     1
 42
1.0
 92
        8
 66
     7
 43
1.0
 76
     1
 77
     6
 78
     2
 67
     7
 79
     5
170
     0
171
     0
290
     0
174
     0
 93
        1
 44
50.0
173
     0
291
     1
 45
0.0
  0
VISUALSTYLE
  5
3A
102
{ACAD_REACTORS
330
2A
102
}
102
{ACAD_XDICTIONARY
360
64
102
}
330
2A
100
AcDbVisualStyle
  2
ColorChange
 70
    16
 71
     2
 72
     2
 73
     3
 90
        0
 40
-0.6
 41
-30.0
 62
     5
 63
     8
421
  8421504
 74
     1
 91
        4
 64
     7
 65
   257
 75
     1
175
     1
 42
1.0
 92
        8
 66
     8
424
  8421504
 43
1.0
 76
     1
 77
     6
 78
     2
 67
     7
 79
     5
170
     0
171
     0
290
     0
174
     0
 93
        1
 44
0.0
173
     0
291
     1
 45
0.0
  0
VISUALSTYLE
  5
34
102
{ACAD_REACTORS
330
2A
102
}
102
{ACAD_XDICTIONARY
360
58
102
}
330
2A
100
AcDbVisualStyle
  2
Conceptual
 70
     9
 71
     3
 72
     2
 73
     0
 90
        0
 40
-0.6
 41
-30.0
 62
     5
 63
     7
421
 16777215
 74
     2
 91
        2
 64
     7
 65
   257
 75
     1
175
     1
 42
40.0
 92
        8
 66
     7
 43
1.0
 76
     1
 77
     6
 78
     2
 67
     7
 79
     3
170
     0
171
     0
290
     0
174
     0
 93
        1
 44
0.0
173
     0
291
     0
 45
0.0
  0
VISUALSTYLE
  5
35
102
{ACAD_REACTORS
330
2A
102
}
102
{ACAD_XDICTIONARY
360
5A
102
}
330
2A
100
AcDbVisualStyle
  2
Dim
 70
    11
 71
     2
 72
     2
 73
     0
 90
        0
 40
-0.6
 41
-30.0
 62
     5
 63
     7
421
 16777215
 74
     1
 91
        4
 64
     7
 65
   257
 75
     1
175
     1
 42
1.0
 92
        8
 66
     7
 43
1.0
 76
     1
 77
     6
 78
     2
 67
     7
 79
     5
170
     0
171
     0
290
     0
174
     0
 93
        1
 44
-50.0
173
     0
291
     1
 45
0.0
  0
VISUALSTYLE
  5
39
102
{ACAD_REACTORS
330
2A
102
}
102
{ACAD_XDICTIONARY
360
62
102
}
330
2A
100
AcDbVisualStyle
  2
Facepattern
 70
    15
 71
     2
 72
     2
 73
     0
 90
        0
 40
-0.6
 41
-30.0
 62
     5
 63
     7
421
 16777215
 74
     1
 91
        4
 64
     7
 65
   257
 75
     1
175
     1
 42
1.0
 92
        8
 66
     7
 43
1.0
 76
     1
 77
     6
 78
     2
 67
     7
 79
     5
170
     0
171
     0
290
     0
174
     0
 93
        1
 44
0.0
173
     0
291
     1
 45
0.0
  0
VISUALSTYLE
  5
2B
102
{ACAD_REACTORS
330
2A
102
}
102
{ACAD_XDICTIONARY
360
46
102
}
330
2A
100
AcDbVisualStyle
  2
Flat
 70
     0
 71
     2
 72
     1
 73
     1
 90
        2
 40
-0.6
 41
30.0
 62
     5
 63
     7
421
 16777215
 74
     0
 91
        4
 64
     7
 65
   257
 75
     1
175
     1
 42
1.0
 92
        8
 66
     7
 43
1.0
 76
     1
 77
     6
 78
     2
 67
     7
 79
     5
170
     0
171
     0
290
     0
174
     0
 93
       13
 44
0.0
173
     0
291
     1
 45
0.0
  0
VISUALSTYLE
  5
2C
102
{ACAD_REACTORS
330
2A
102
}
102
{ACAD_XDICTIONARY
360
48
102
}
330
2A
100
AcDbVisualStyle
  2
FlatWithEdges
 70
     1
 71
     2
 72
     1
 73
     1
 90
        2
 40
-0.6
 41
30.0
 62
     5
 63
     7
421
 16777215
 74
     1
 91
        4
 64
     7
 65
   257
 75
     1
175
     1
 42
1.0
 92
        0
 66
   257
 43
1.0
 76
     1
 77
     6
 78
     2
 67
     7
 79
     5
170
     0
171
     0
290
     0
174
     0
 93
       13
 44
0.0
173
     0
291
     1
 45
0.0
  0
VISUALSTYLE
  5
2D
102
{ACAD_REACTORS
330
2A
102
}
102
{ACAD_XDICTIONARY
360
4A
102
}
330
2A
100
AcDbVisualStyle
  2
Gouraud
 70
     2
 71
     2
 72
     2
 73
     1
 90
        2
 40
-0.6
 41
30.0
 62
     5
 63
     7
421
 16777215
 74
     0
 91
        4
 64
     7
 65
   257
 75
     1
175
     1
 42
1.0
 92
        0
 66
     7
 43
1.0
 76
     1
 77
     6
 78
     2
 67
     7
 79
     5
170
     0
171
     0
290
     0
174
     0
 93
       13
 44
0.0
173
     0
291
     1
 45
0.0
  0
VISUALSTYLE
  5
2E
102
{ACAD_REACTORS
330
2A
102
}
102
{ACAD_XDICTIONARY
360
4C
102
}
330
2A
100
AcDbVisualStyle
  2
GouraudWithEdges
 70
     3
 71
     2
 72
     2
 73
     1
 90
        2
 40
-0.6
 41
30.0
 62
     5
 63
     7
421
 16777215
 74
     1
 91
        4
 64
     7
 65
   257
 75
     1
175
     1
 42
1.0
 92
        0
 66
   257
 43
1.0
 76
     1
 77
     6
 78
     2
 67
     7
 79
     5
170
     0
171
     0
290
     0
174
     0
 93
       13
 44
0.0
173
     0
291
     1
 45
0.0
  0
VISUALSTYLE
  5
38
102
{ACAD_REACTORS
330
2A
102
}
102
{ACAD_XDICTIONARY
360
60
102
}
330
2A
100
AcDbVisualStyle
  2
Linepattern
 70
    14
 71
     2
 72
     2
 73
     0
 90
        0
 40
-0.6
 41
-30.0
 62
     5
 63
     7
421
 16777215
 74
     1
 91
        4
 64
     7
 65
   257
 75
     7
175
     7
 42
1.0
 92
        8
 66
     7
 43
1.0
 76
     1
 77
     6
 78
     2
 67
     7
 79
     5
170
     0
171
     0
290
     0
174
     0
 93
        1
 44
0.0
173
     0
291
     1
 45
0.0
  0
VISUALSTYLE
  5
33
102
{ACAD_REACTORS
330
2A
102
}
102
{ACAD_XDICTIONARY
360
56
102
}
330
2A
100
AcDbVisualStyle
  2
Realistic
 70
     8
 71
     2
 72
     2
 73
     0
 90
        0
 40
-0.6
 41
-30.0
 62
     5
 63
     7
421
 16777215
 74
     1
 91
        0
 64
     7
 65
   257
 75
     1
175
     1
 42
1.0
 92
        8
 66
     8
424
  7895160
 43
1.0
 76
     1
 77
     6
 78
     2
 67
     7
 79
     5
170
     0
171
     0
290
     0
174
     0
 93
       13
 44
0.0
173
     0
291
     0
 45
0.0
  0
VISUALSTYLE
  5
37
102
{ACAD_REACTORS
330
2A
102
}
102
{ACAD_XDICTIONARY
360
5E
102
}
330
2A
100
AcDbVisualStyle
  2
Thicken
 70
    13
 71
     2
 72
     2
 73
     0
 90
        0
 40
-0.6
 41
-30.0
 62
     5
 63
     7
421
 16777215
 74
     1
 91
        4
 64
     7
 65
   257
 75
     1
175
     1
 42
1.0
 92
       12
 66
     7
 43
1.0
 76
     1
 77
     6
 78
     2
 67
     7
 79
     5
170
     0
171
     0
290
     0
174
     0
 93
        1
 44
0.0
173
     0
291
     1
 45
0.0
  0
DICTIONARY
  5
4E
330
2F
100
AcDbDictionary
280
     1
281
     1
  3
ACAD_XREC_ROUNDTRIP
360
4F
  0
DICTIONARY
  5
52
330
31
100
AcDbDictionary
280
     1
281
     1
  3
ACAD_XREC_ROUNDTRIP
360
53
  0
DICTIONARY
  5
50
330
30
100
AcDbDictionary
280
     1
281
     1
  3
ACAD_XREC_ROUNDTRIP
360
51
  0
DICTIONARY
  5
54
330
32
100
AcDbDictionary
280
     1
281
     1
  3
ACAD_XREC_ROUNDTRIP
360
55
  0
DICTIONARY
  5
5C
330
36
100
AcDbDictionary
280
     1
281
     1
  3
ACAD_XREC_ROUNDTRIP
360
5D
  0
DICTIONARY
  5
64
330
3A
100
AcDbDictionary
280
     1
281
     1
  3
ACAD_XREC_ROUNDTRIP
360
65
  0
DICTIONARY
  5
58
330
34
100
AcDbDictionary
280
     1
281
     1
  3
ACAD_XREC_ROUNDTRIP
360
59
  0
DICTIONARY
  5
5A
330
35
100
AcDbDictionary
280
     1
281
     1
  3
ACAD_XREC_ROUNDTRIP
360
5B
  0
DICTIONARY
  5
62
330
39
100
AcDbDictionary
280
     1
281
     1
  3
ACAD_XREC_ROUNDTRIP
360
63
  0
DICTIONARY
  5
46
330
2B
100
AcDbDictionary
280
     1
281
     1
  3
ACAD_XREC_ROUNDTRIP
360
47
  0
DICTIONARY
  5
48
330
2C
100
AcDbDictionary
280
     1
281
     1
  3
ACAD_XREC_ROUNDTRIP
360
49
  0
DICTIONARY
  5
4A
330
2D
100
AcDbDictionary
280
     1
281
     1
  3
ACAD_XREC_ROUNDTRIP
360
4B
  0
DICTIONARY
  5
4C
330
2E
100
AcDbDictionary
280
     1
281
     1
  3
ACAD_XREC_ROUNDTRIP
360
4D
  0
DICTIONARY
  5
60
330
38
100
AcDbDictionary
280
     1
281
     1
  3
ACAD_XREC_ROUNDTRIP
360
61
  0
DICTIONARY
  5
56
330
33
100
AcDbDictionary
280
     1
281
     1
  3
ACAD_XREC_ROUNDTRIP
360
57
  0
DICTIONARY
  5
5E
330
37
100
AcDbDictionary
280
     1
281
     1
  3
ACAD_XREC_ROUNDTRIP
360
5F
  0
XRECORD
  5
4F
102
{ACAD_REACTORS
330
4E
102
}
330
4E
100
AcDbXrecord
280
     1
102
RTVSPropertyOp0
 70
     1
102
RTVSPropertyOp1
 70
     1
102
RTVSPropertyOp2
 70
     1
102
RTVSPropertyOp3
 70
     1
102
RTVSPropertyOp4
 70
     1
102
RTVSPropertyOp5
 70
     1
102
RTVSPropertyOp6
 70
     1
102
RTVSPropertyOp7
 70
     1
102
RTVSPropertyOp8
 70
     1
102
RTVSPropertyOp9
 70
     1
102
RTVSPropertyOp10
 70
     1
102
RTVSPropertyOp11
 70
     1
102
RTVSPropertyOp12
 70
     1
102
RTVSPropertyOp13
 70
     1
102
RTVSPropertyOp14
 70
     1
102
RTVSPropertyOp15
 70
     1
102
RTVSPropertyOp16
 70
     1
102
RTVSPropertyOp17
 70
     1
102
RTVSPropertyOp18
 70
     1
102
RTVSPropertyOp19
 70
     1
102
RTVSPropertyOp20
 70
     1
102
RTVSPropertyOp21
 70
     1
102
RTVSPropertyOp22
 70
     1
102
RTVSPropertyOp23
 70
     1
102
RTVSPropertyOp24
 70
     1
102
RTVSPropertyOp25
 70
     1
102
RTVSPropertyOp26
 70
     1
102
RTVSPropertyOp27
 70
     1
102
RTVSPropertyOp28
 70
     1
102
RTVSPropertyOp29
 70
     1
102
RTVSPropertyOp30
 70
     1
102
RTVSPropertyOp31
 70
     1
102
RTVSPropertyOp32
 70
     1
  0
XRECORD
  5
53
102
{ACAD_REACTORS
330
52
102
}
330
52
100
AcDbXrecord
280
     1
102
RTVSPropertyOp0
 70
     1
102
RTVSPropertyOp1
 70
     1
102
RTVSPropertyOp2
 70
     1
102
RTVSPropertyOp3
 70
     1
102
RTVSPropertyOp4
 70
     1
102
RTVSPropertyOp5
 70
     1
102
RTVSPropertyOp6
 70
     1
102
RTVSPropertyOp7
 70
     1
102
RTVSPropertyOp8
 70
     1
102
RTVSPropertyOp9
 70
     1
102
RTVSPropertyOp10
 70
     1
102
RTVSPropertyOp11
 70
     1
102
RTVSPropertyOp12
 70
     1
102
RTVSPropertyOp13
 70
     1
102
RTVSPropertyOp14
 70
     1
102
RTVSPropertyOp15
 70
     1
102
RTVSPropertyOp16
 70
     1
102
RTVSPropertyOp17
 70
     1
102
RTVSPropertyOp18
 70
     1
102
RTVSPropertyOp19
 70
     1
102
RTVSPropertyOp20
 70
     1
102
RTVSPropertyOp21
 70
     1
102
RTVSPropertyOp22
 70
     1
102
RTVSPropertyOp23
 70
     1
102
RTVSPropertyOp24
 70
     1
102
RTVSPropertyOp25
 70
     1
102
RTVSPropertyOp26
 70
     1
102
RTVSPropertyOp27
 70
     1
102
RTVSPropertyOp28
 70
     1
102
RTVSPropertyOp29
 70
     1
102
RTVSPropertyOp30
 70
     1
102
RTVSPropertyOp31
 70
     1
102
RTVSPropertyOp32
 70
     1
  0
XRECORD
  5
51
102
{ACAD_REACTORS
330
50
102
}
330
50
100
AcDbXrecord
280
     1
102
RTVSPropertyOp0
 70
     1
102
RTVSPropertyOp1
 70
     1
102
RTVSPropertyOp2
 70
     1
102
RTVSPropertyOp3
 70
     1
102
RTVSPropertyOp4
 70
     1
102
RTVSPropertyOp5
 70
     1
102
RTVSPropertyOp6
 70
     1
102
RTVSPropertyOp7
 70
     1
102
RTVSPropertyOp8
 70
     1
102
RTVSPropertyOp9
 70
     1
102
RTVSPropertyOp10
 70
     1
102
RTVSPropertyOp11
 70
     1
102
RTVSPropertyOp12
 70
     1
102
RTVSPropertyOp13
 70
     1
102
RTVSPropertyOp14
 70
     1
102
RTVSPropertyOp15
 70
     1
102
RTVSPropertyOp16
 70
     1
102
RTVSPropertyOp17
 70
     1
102
RTVSPropertyOp18
 70
     1
102
RTVSPropertyOp19
 70
     1
102
RTVSPropertyOp20
 70
     1
102
RTVSPropertyOp21
 70
     1
102
RTVSPropertyOp22
 70
     1
102
RTVSPropertyOp23
 70
     1
102
RTVSPropertyOp24
 70
     1
102
RTVSPropertyOp25
 70
     1
102
RTVSPropertyOp26
 70
     1
102
RTVSPropertyOp27
 70
     1
102
RTVSPropertyOp28
 70
     1
102
RTVSPropertyOp29
 70
     1
102
RTVSPropertyOp30
 70
     1
102
RTVSPropertyOp31
 70
     1
102
RTVSPropertyOp32
 70
     1
  0
XRECORD
  5
55
102
{ACAD_REACTORS
330
54
102
}
330
54
100
AcDbXrecord
280
     1
102
RTVSPropertyOp0
 70
     1
102
RTVSPropertyOp1
 70
     1
102
RTVSPropertyOp2
 70
     1
102
RTVSPropertyOp3
 70
     1
102
RTVSPropertyOp4
 70
     1
102
RTVSPropertyOp5
 70
     1
102
RTVSPropertyOp6
 70
     1
102
RTVSPropertyOp7
 70
     1
102
RTVSPropertyOp8
 70
     1
102
RTVSPropertyOp9
 70
     1
102
RTVSPropertyOp10
 70
     1
102
RTVSPropertyOp11
 70
     1
102
RTVSPropertyOp12
 70
     1
102
RTVSPropertyOp13
 70
     1
102
RTVSPropertyOp14
 70
     1
102
RTVSPropertyOp15
 70
     1
102
RTVSPropertyOp16
 70
     1
102
RTVSPropertyOp17
 70
     1
102
RTVSPropertyOp18
 70
     1
102
RTVSPropertyOp19
 70
     1
102
RTVSPropertyOp20
 70
     1
102
RTVSPropertyOp21
 70
     1
102
RTVSPropertyOp22
 70
     1
102
RTVSPropertyOp23
 70
     1
102
RTVSPropertyOp24
 70
     1
102
RTVSPropertyOp25
 70
     1
102
RTVSPropertyOp26
 70
     1
102
RTVSPropertyOp27
 70
     1
102
RTVSPropertyOp28
 70
     1
102
RTVSPropertyOp29
 70
     1
102
RTVSPropertyOp30
 70
     1
102
RTVSPropertyOp31
 70
     1
102
RTVSPropertyOp32
 70
     1
  0
XRECORD
  5
5D
102
{ACAD_REACTORS
330
5C
102
}
330
5C
100
AcDbXrecord
280
     1
102
RTVSPropertyOp0
 70
     1
102
RTVSPropertyOp1
 70
     1
102
RTVSPropertyOp2
 70
     1
102
RTVSPropertyOp3
 70
     1
102
RTVSPropertyOp4
 70
     1
102
RTVSPropertyOp5
 70
     1
102
RTVSPropertyOp6
 70
     1
102
RTVSPropertyOp7
 70
     1
102
RTVSPropertyOp8
 70
     1
102
RTVSPropertyOp9
 70
     1
102
RTVSPropertyOp10
 70
     1
102
RTVSPropertyOp11
 70
     1
102
RTVSPropertyOp12
 70
     1
102
RTVSPropertyOp13
 70
     1
102
RTVSPropertyOp14
 70
     1
102
RTVSPropertyOp15
 70
     1
102
RTVSPropertyOp16
 70
     1
102
RTVSPropertyOp17
 70
     1
102
RTVSPropertyOp18
 70
     1
102
RTVSPropertyOp19
 70
     1
102
RTVSPropertyOp20
 70
     1
102
RTVSPropertyOp21
 70
     1
102
RTVSPropertyOp22
 70
     1
102
RTVSPropertyOp23
 70
     1
102
RTVSPropertyOp24
 70
     1
102
RTVSPropertyOp25
 70
     1
102
RTVSPropertyOp26
 70
     1
102
RTVSPropertyOp27
 70
     1
102
RTVSPropertyOp28
 70
     1
102
RTVSPropertyOp29
 70
     1
102
RTVSPropertyOp30
 70
     1
102
RTVSPropertyOp31
 70
     1
102
RTVSPropertyOp32
 70
     1
  0
XRECORD
  5
65
102
{ACAD_REACTORS
330
64
102
}
330
64
100
AcDbXrecord
280
     1
102
RTVSPropertyOp0
 70
     1
102
RTVSPropertyOp1
 70
     1
102
RTVSPropertyOp2
 70
     1
102
RTVSPropertyOp3
 70
     1
102
RTVSPropertyOp4
 70
     1
102
RTVSPropertyOp5
 70
     1
102
RTVSPropertyOp6
 70
     1
102
RTVSPropertyOp7
 70
     1
102
RTVSPropertyOp8
 70
     1
102
RTVSPropertyOp9
 70
     1
102
RTVSPropertyOp10
 70
     1
102
RTVSPropertyOp11
 70
     1
102
RTVSPropertyOp12
 70
     1
102
RTVSPropertyOp13
 70
     1
102
RTVSPropertyOp14
 70
     1
102
RTVSPropertyOp15
 70
     1
102
RTVSPropertyOp16
 70
     1
102
RTVSPropertyOp17
 70
     1
102
RTVSPropertyOp18
 70
     1
102
RTVSPropertyOp19
 70
     1
102
RTVSPropertyOp20
 70
     1
102
RTVSPropertyOp21
 70
     1
102
RTVSPropertyOp22
 70
     1
102
RTVSPropertyOp23
 70
     1
102
RTVSPropertyOp24
 70
     1
102
RTVSPropertyOp25
 70
     1
102
RTVSPropertyOp26
 70
     1
102
RTVSPropertyOp27
 70
     1
102
RTVSPropertyOp28
 70
     1
102
RTVSPropertyOp29
 70
     1
102
RTVSPropertyOp30
 70
     1
102
RTVSPropertyOp31
 70
     1
102
RTVSPropertyOp32
 70
     1
  0
XRECORD
  5
59
102
{ACAD_REACTORS
330
58
102
}
330
58
100
AcDbXrecord
280
     1
102
RTVSPropertyOp0
 70
     1
102
RTVSPropertyOp1
 70
     1
102
RTVSPropertyOp2
 70
     1
102
RTVSPropertyOp3
 70
     1
102
RTVSPropertyOp4
 70
     1
102
RTVSPropertyOp5
 70
     1
102
RTVSPropertyOp6
 70
     1
102
RTVSPropertyOp7
 70
     1
102
RTVSPropertyOp8
 70
     1
102
RTVSPropertyOp9
 70
     1
102
RTVSPropertyOp10
 70
     1
102
RTVSPropertyOp11
 70
     1
102
RTVSPropertyOp12
 70
     1
102
RTVSPropertyOp13
 70
     1
102
RTVSPropertyOp14
 70
     1
102
RTVSPropertyOp15
 70
     1
102
RTVSPropertyOp16
 70
     1
102
RTVSPropertyOp17
 70
     1
102
RTVSPropertyOp18
 70
     1
102
RTVSPropertyOp19
 70
     1
102
RTVSPropertyOp20
 70
     1
102
RTVSPropertyOp21
 70
     1
102
RTVSPropertyOp22
 70
     1
102
RTVSPropertyOp23
 70
     1
102
RTVSPropertyOp24
 70
     1
102
RTVSPropertyOp25
 70
     1
102
RTVSPropertyOp26
 70
     1
102
RTVSPropertyOp27
 70
     1
102
RTVSPropertyOp28
 70
     1
102
RTVSPropertyOp29
 70
     1
102
RTVSPropertyOp30
 70
     1
102
RTVSPropertyOp31
 70
     1
102
RTVSPropertyOp32
 70
     1
  0
XRECORD
  5
5B
102
{ACAD_REACTORS
330
5A
102
}
330
5A
100
AcDbXrecord
280
     1
102
RTVSPropertyOp0
 70
     1
102
RTVSPropertyOp1
 70
     1
102
RTVSPropertyOp2
 70
     1
102
RTVSPropertyOp3
 70
     1
102
RTVSPropertyOp4
 70
     1
102
RTVSPropertyOp5
 70
     1
102
RTVSPropertyOp6
 70
     1
102
RTVSPropertyOp7
 70
     1
102
RTVSPropertyOp8
 70
     1
102
RTVSPropertyOp9
 70
     1
102
RTVSPropertyOp10
 70
     1
102
RTVSPropertyOp11
 70
     1
102
RTVSPropertyOp12
 70
     1
102
RTVSPropertyOp13
 70
     1
102
RTVSPropertyOp14
 70
     1
102
RTVSPropertyOp15
 70
     1
102
RTVSPropertyOp16
 70
     1
102
RTVSPropertyOp17
 70
     1
102
RTVSPropertyOp18
 70
     1
102
RTVSPropertyOp19
 70
     1
102
RTVSPropertyOp20
 70
     1
102
RTVSPropertyOp21
 70
     1
102
RTVSPropertyOp22
 70
     1
102
RTVSPropertyOp23
 70
     1
102
RTVSPropertyOp24
 70
     1
102
RTVSPropertyOp25
 70
     1
102
RTVSPropertyOp26
 70
     1
102
RTVSPropertyOp27
 70
     1
102
RTVSPropertyOp28
 70
     1
102
RTVSPropertyOp29
 70
     1
102
RTVSPropertyOp30
 70
     1
102
RTVSPropertyOp31
 70
     1
102
RTVSPropertyOp32
 70
     1
  0
XRECORD
  5
63
102
{ACAD_REACTORS
330
62
102
}
330
62
100
AcDbXrecord
280
     1
102
RTVSPropertyOp0
 70
     1
102
RTVSPropertyOp1
 70
     1
102
RTVSPropertyOp2
 70
     1
102
RTVSPropertyOp3
 70
     1
102
RTVSPropertyOp4
 70
     1
102
RTVSPropertyOp5
 70
     1
102
RTVSPropertyOp6
 70
     1
102
RTVSPropertyOp7
 70
     1
102
RTVSPropertyOp8
 70
     1
102
RTVSPropertyOp9
 70
     1
102
RTVSPropertyOp10
 70
     1
102
RTVSPropertyOp11
 70
     1
102
RTVSPropertyOp12
 70
     1
102
RTVSPropertyOp13
 70
     1
102
RTVSPropertyOp14
 70
     1
102
RTVSPropertyOp15
 70
     1
102
RTVSPropertyOp16
 70
     1
102
RTVSPropertyOp17
 70
     1
102
RTVSPropertyOp18
 70
     1
102
RTVSPropertyOp19
 70
     1
102
RTVSPropertyOp20
 70
     1
102
RTVSPropertyOp21
 70
     1
102
RTVSPropertyOp22
 70
     1
102
RTVSPropertyOp23
 70
     1
102
RTVSPropertyOp24
 70
     1
102
RTVSPropertyOp25
 70
     1
102
RTVSPropertyOp26
 70
     1
102
RTVSPropertyOp27
 70
     1
102
RTVSPropertyOp28
 70
     1
102
RTVSPropertyOp29
 70
     1
102
RTVSPropertyOp30
 70
     1
102
RTVSPropertyOp31
 70
     1
102
RTVSPropertyOp32
 70
     1
  0
XRECORD
  5
47
102
{ACAD_REACTORS
330
46
102
}
330
46
100
AcDbXrecord
280
     1
102
RTVSPropertyOp0
 70
     1
102
RTVSPropertyOp1
 70
     1
102
RTVSPropertyOp2
 70
     1
102
RTVSPropertyOp3
 70
     1
102
RTVSPropertyOp4
 70
     1
102
RTVSPropertyOp5
 70
     1
102
RTVSPropertyOp6
 70
     1
102
RTVSPropertyOp7
 70
     1
102
RTVSPropertyOp8
 70
     1
102
RTVSPropertyOp9
 70
     1
102
RTVSPropertyOp10
 70
     1
102
RTVSPropertyOp11
 70
     1
102
RTVSPropertyOp12
 70
     1
102
RTVSPropertyOp13
 70
     1
102
RTVSPropertyOp14
 70
     1
102
RTVSPropertyOp15
 70
     1
102
RTVSPropertyOp16
 70
     1
102
RTVSPropertyOp17
 70
     1
102
RTVSPropertyOp18
 70
     1
102
RTVSPropertyOp19
 70
     1
102
RTVSPropertyOp20
 70
     1
102
RTVSPropertyOp21
 70
     1
102
RTVSPropertyOp22
 70
     1
102
RTVSPropertyOp23
 70
     1
102
RTVSPropertyOp24
 70
     1
102
RTVSPropertyOp25
 70
     1
102
RTVSPropertyOp26
 70
     1
102
RTVSPropertyOp27
 70
     1
102
RTVSPropertyOp28
 70
     1
102
RTVSPropertyOp29
 70
     1
102
RTVSPropertyOp30
 70
     1
102
RTVSPropertyOp31
 70
     1
102
RTVSPropertyOp32
 70
     1
  0
XRECORD
  5
49
102
{ACAD_REACTORS
330
48
102
}
330
48
100
AcDbXrecord
280
     1
102
RTVSPropertyOp0
 70
     1
102
RTVSPropertyOp1
 70
     1
102
RTVSPropertyOp2
 70
     1
102
RTVSPropertyOp3
 70
     1
102
RTVSPropertyOp4
 70
     1
102
RTVSPropertyOp5
 70
     1
102
RTVSPropertyOp6
 70
     1
102
RTVSPropertyOp7
 70
     1
102
RTVSPropertyOp8
 70
     1
102
RTVSPropertyOp9
 70
     1
102
RTVSPropertyOp10
 70
     1
102
RTVSPropertyOp11
 70
     1
102
RTVSPropertyOp12
 70
     1
102
RTVSPropertyOp13
 70
     1
102
RTVSPropertyOp14
 70
     1
102
RTVSPropertyOp15
 70
     1
102
RTVSPropertyOp16
 70
     1
102
RTVSPropertyOp17
 70
     1
102
RTVSPropertyOp18
 70
     1
102
RTVSPropertyOp19
 70
     1
102
RTVSPropertyOp20
 70
     1
102
RTVSPropertyOp21
 70
     1
102
RTVSPropertyOp22
 70
     1
102
RTVSPropertyOp23
 70
     1
102
RTVSPropertyOp24
 70
     1
102
RTVSPropertyOp25
 70
     1
102
RTVSPropertyOp26
 70
     1
102
RTVSPropertyOp27
 70
     1
102
RTVSPropertyOp28
 70
     1
102
RTVSPropertyOp29
 70
     1
102
RTVSPropertyOp30
 70
     1
102
RTVSPropertyOp31
 70
     1
102
RTVSPropertyOp32
 70
     1
  0
XRECORD
  5
4B
102
{ACAD_REACTORS
330
4A
102
}
330
4A
100
AcDbXrecord
280
     1
102
RTVSPropertyOp0
 70
     1
102
RTVSPropertyOp1
 70
     1
102
RTVSPropertyOp2
 70
     1
102
RTVSPropertyOp3
 70
     1
102
RTVSPropertyOp4
 70
     1
102
RTVSPropertyOp5
 70
     1
102
RTVSPropertyOp6
 70
     1
102
RTVSPropertyOp7
 70
     1
102
RTVSPropertyOp8
 70
     1
102
RTVSPropertyOp9
 70
     1
102
RTVSPropertyOp10
 70
     1
102
RTVSPropertyOp11
 70
     1
102
RTVSPropertyOp12
 70
     1
102
RTVSPropertyOp13
 70
     1
102
RTVSPropertyOp14
 70
     1
102
RTVSPropertyOp15
 70
     1
102
RTVSPropertyOp16
 70
     1
102
RTVSPropertyOp17
 70
     1
102
RTVSPropertyOp18
 70
     1
102
RTVSPropertyOp19
 70
     1
102
RTVSPropertyOp20
 70
     1
102
RTVSPropertyOp21
 70
     1
102
RTVSPropertyOp22
 70
     1
102
RTVSPropertyOp23
 70
     1
102
RTVSPropertyOp24
 70
     1
102
RTVSPropertyOp25
 70
     1
102
RTVSPropertyOp26
 70
     1
102
RTVSPropertyOp27
 70
     1
102
RTVSPropertyOp28
 70
     1
102
RTVSPropertyOp29
 70
     1
102
RTVSPropertyOp30
 70
     1
102
RTVSPropertyOp31
 70
     1
102
RTVSPropertyOp32
 70
     1
  0
XRECORD
  5
4D
102
{ACAD_REACTORS
330
4C
102
}
330
4C
100
AcDbXrecord
280
     1
102
RTVSPropertyOp0
 70
     1
102
RTVSPropertyOp1
 70
     1
102
RTVSPropertyOp2
 70
     1
102
RTVSPropertyOp3
 70
     1
102
RTVSPropertyOp4
 70
     1
102
RTVSPropertyOp5
 70
     1
102
RTVSPropertyOp6
 70
     1
102
RTVSPropertyOp7
 70
     1
102
RTVSPropertyOp8
 70
     1
102
RTVSPropertyOp9
 70
     1
102
RTVSPropertyOp10
 70
     1
102
RTVSPropertyOp11
 70
     1
102
RTVSPropertyOp12
 70
     1
102
RTVSPropertyOp13
 70
     1
102
RTVSPropertyOp14
 70
     1
102
RTVSPropertyOp15
 70
     1
102
RTVSPropertyOp16
 70
     1
102
RTVSPropertyOp17
 70
     1
102
RTVSPropertyOp18
 70
     1
102
RTVSPropertyOp19
 70
     1
102
RTVSPropertyOp20
 70
     1
102
RTVSPropertyOp21
 70
     1
102
RTVSPropertyOp22
 70
     1
102
RTVSPropertyOp23
 70
     1
102
RTVSPropertyOp24
 70
     1
102
RTVSPropertyOp25
 70
     1
102
RTVSPropertyOp26
 70
     1
102
RTVSPropertyOp27
 70
     1
102
RTVSPropertyOp28
 70
     1
102
RTVSPropertyOp29
 70
     1
102
RTVSPropertyOp30
 70
     1
102
RTVSPropertyOp31
 70
     1
102
RTVSPropertyOp32
 70
     1
  0
XRECORD
  5
61
102
{ACAD_REACTORS
330
60
102
}
330
60
100
AcDbXrecord
280
     1
102
RTVSPropertyOp0
 70
     1
102
RTVSPropertyOp1
 70
     1
102
RTVSPropertyOp2
 70
     1
102
RTVSPropertyOp3
 70
     1
102
RTVSPropertyOp4
 70
     1
102
RTVSPropertyOp5
 70
     1
102
RTVSPropertyOp6
 70
     1
102
RTVSPropertyOp7
 70
     1
102
RTVSPropertyOp8
 70
     1
102
RTVSPropertyOp9
 70
     1
102
RTVSPropertyOp10
 70
     1
102
RTVSPropertyOp11
 70
     1
102
RTVSPropertyOp12
 70
     1
102
RTVSPropertyOp13
 70
     1
102
RTVSPropertyOp14
 70
     1
102
RTVSPropertyOp15
 70
     1
102
RTVSPropertyOp16
 70
     1
102
RTVSPropertyOp17
 70
     1
102
RTVSPropertyOp18
 70
     1
102
RTVSPropertyOp19
 70
     1
102
RTVSPropertyOp20
 70
     1
102
RTVSPropertyOp21
 70
     1
102
RTVSPropertyOp22
 70
     1
102
RTVSPropertyOp23
 70
     1
102
RTVSPropertyOp24
 70
     1
102
RTVSPropertyOp25
 70
     1
102
RTVSPropertyOp26
 70
     1
102
RTVSPropertyOp27
 70
     1
102
RTVSPropertyOp28
 70
     1
102
RTVSPropertyOp29
 70
     1
102
RTVSPropertyOp30
 70
     1
102
RTVSPropertyOp31
 70
     1
102
RTVSPropertyOp32
 70
     1
  0
XRECORD
  5
57
102
{ACAD_REACTORS
330
56
102
}
330
56
100
AcDbXrecord
280
     1
102
RTVSPropertyOp0
 70
     1
102
RTVSPropertyOp1
 70
     1
102
RTVSPropertyOp2
 70
     1
102
RTVSPropertyOp3
 70
     1
102
RTVSPropertyOp4
 70
     1
102
RTVSPropertyOp5
 70
     1
102
RTVSPropertyOp6
 70
     1
102
RTVSPropertyOp7
 70
     1
102
RTVSPropertyOp8
 70
     1
102
RTVSPropertyOp9
 70
     1
102
RTVSPropertyOp10
 70
     1
102
RTVSPropertyOp11
 70
     1
102
RTVSPropertyOp12
 70
     1
102
RTVSPropertyOp13
 70
     1
102
RTVSPropertyOp14
 70
     1
102
RTVSPropertyOp15
 70
     1
102
RTVSPropertyOp16
 70
     1
102
RTVSPropertyOp17
 70
     1
102
RTVSPropertyOp18
 70
     1
102
RTVSPropertyOp19
 70
     1
102
RTVSPropertyOp20
 70
     1
102
RTVSPropertyOp21
 70
     1
102
RTVSPropertyOp22
 70
     1
102
RTVSPropertyOp23
 70
     1
102
RTVSPropertyOp24
 70
     1
102
RTVSPropertyOp25
 70
     1
102
RTVSPropertyOp26
 70
     1
102
RTVSPropertyOp27
 70
     1
102
RTVSPropertyOp28
 70
     1
102
RTVSPropertyOp29
 70
     1
102
RTVSPropertyOp30
 70
     1
102
RTVSPropertyOp31
 70
     1
102
RTVSPropertyOp32
 70
     1
  0
XRECORD
  5
5F
102
{ACAD_REACTORS
330
5E
102
}
330
5E
100
AcDbXrecord
280
     1
102
RTVSPropertyOp0
 70
     1
102
RTVSPropertyOp1
 70
     1
102
RTVSPropertyOp2
 70
     1
102
RTVSPropertyOp3
 70
     1
102
RTVSPropertyOp4
 70
     1
102
RTVSPropertyOp5
 70
     1
102
RTVSPropertyOp6
 70
     1
102
RTVSPropertyOp7
 70
     1
102
RTVSPropertyOp8
 70
     1
102
RTVSPropertyOp9
 70
     1
102
RTVSPropertyOp10
 70
     1
102
RTVSPropertyOp11
 70
     1
102
RTVSPropertyOp12
 70
     1
102
RTVSPropertyOp13
 70
     1
102
RTVSPropertyOp14
 70
     1
102
RTVSPropertyOp15
 70
     1
102
RTVSPropertyOp16
 70
     1
102
RTVSPropertyOp17
 70
     1
102
RTVSPropertyOp18
 70
     1
102
RTVSPropertyOp19
 70
     1
102
RTVSPropertyOp20
 70
     1
102
RTVSPropertyOp21
 70
     1
102
RTVSPropertyOp22
 70
     1
102
RTVSPropertyOp23
 70
     1
102
RTVSPropertyOp24
 70
     1
102
RTVSPropertyOp25
 70
     1
102
RTVSPropertyOp26
 70
     1
102
RTVSPropertyOp27
 70
     1
102
RTVSPropertyOp28
 70
     1
102
RTVSPropertyOp29
 70
     1
102
RTVSPropertyOp30
 70
     1
102
RTVSPropertyOp31
 70
     1
102
RTVSPropertyOp32
 70
     1
  0
ENDSEC
  0
EOF
