  0
SECTION
  2
HEADER
  9
$ACADVER
  1
AC1021
  9
$ACADMAINTVER
 70
    25
  9
$DWGCODEPAGE
  3
ANSI_1252
  9
$INSBASE
 10
0.0
 20
0.0
 30
0.0
  9
$EXTMIN
 10
-10.83905
 20
-10.9614
 30
0.0
  9
$EXTMAX
 10
10.73997
 20
10.7109
 30
0.0
  9
$LIMMIN
 10
0.0
 20
0.0
  9
$LIMMAX
 10
12.0
 20
9.0
  9
$ORTHOMODE
 70
     0
  9
$REGENMODE
 70
     1
  9
$FILLMODE
 70
     1
  9
$QTEXTMODE
 70
     0
  9
$MIRRTEXT
 70
     1
  9
$LTSCALE
 40
1.0
  9
$ATTMODE
 70
     1
  9
$TEXTSIZE
 40
0.2
  9
$TRACEWID
 40
0.05
  9
$TEXTSTYLE
  7
Standard
  9
$CLAYER
  8
0
  9
$CELTYPE
  6
ByLayer
  9
$CECOLOR
 62
   256
  9
$CELTSCALE
 40
1.0
  9
$DISPSILH
 70
     0
  9
$DIMSCALE
 40
1.0
  9
$DIMASZ
 40
0.18
  9
$DIMEXO
 40
0.0625
  9
$DIMDLI
 40
0.38
  9
$DIMRND
 40
0.0
  9
$DIMDLE
 40
0.0
  9
$DIMEXE
 40
0.18
  9
$DIMTP
 40
0.0
  9
$DIMTM
 40
0.0
  9
$DIMTXT
 40
0.18
  9
$DIMCEN
 40
0.09
  9
$DIMTSZ
 40
0.0
  9
$DIMTOL
 70
     0
  9
$DIMLIM
 70
     0
  9
$DIMTIH
 70
     1
  9
$DIMTOH
 70
     1
  9
$DIMSE1
 70
     0
  9
$DIMSE2
 70
     0
  9
$DIMTAD
 70
     0
  9
$DIMZIN
 70
     0
  9
$DIMBLK
  1

  9
$DIMASO
 70
     1
  9
$DIMSHO
 70
     1
  9
$DIMPOST
  1

  9
$DIMAPOST
  1

  9
$DIMALT
 70
     0
  9
$DIMALTD
 70
     2
  9
$DIMALTF
 40
25.4
  9
$DIMLFAC
 40
1.0
  9
$DIMTOFL
 70
     0
  9
$DIMTVP
 40
0.0
  9
$DIMTIX
 70
     0
  9
$DIMSOXD
 70
     0
  9
$DIMSAH
 70
     0
  9
$DIMBLK1
  1

  9
$DIMBLK2
  1

  9
$DIMSTYLE
  2
Standard
  9
$DIMCLRD
 70
     0
  9
$DIMCLRE
 70
     0
  9
$DIMCLRT
 70
     0
  9
$DIMTFAC
 40
1.0
  9
$DIMGAP
 40
0.09
  9
$DIMJUST
 70
     0
  9
$DIMSD1
 70
     0
  9
$DIMSD2
 70
     0
  9
$DIMTOLJ
 70
     1
  9
$DIMTZIN
 70
     0
  9
$DIMALTZ
 70
     0
  9
$DIMALTTZ
 70
     0
  9
$DIMUPT
 70
     0
  9
$DIMDEC
 70
     4
  9
$DIMTDEC
 70
     4
  9
$DIMALTU
 70
     2
  9
$DIMALTTD
 70
     2
  9
$DIMTXSTY
  7
Standard
  9
$DIMAUNIT
 70
     0
  9
$DIMADEC
 70
     0
  9
$DIMALTRND
 40
0.0
  9
$DIMAZIN
 70
     0
  9
$DIMDSEP
 70
    46
  9
$DIMATFIT
 70
     3
  9
$DIMFRAC
 70
     0
  9
$DIMLDRBLK
  1

  9
$DIMLUNIT
 70
     2
  9
$DIMLWD
 70
    -2
  9
$DIMLWE
 70
    -2
  9
$DIMTMOVE
 70
     0
  9
$DIMFXL
 40
1.0
  9
$DIMFXLON
 70
     0
  9
$DIMJOGANG
 40
0.7853981633974483
  9
$DIMTFILL
 70
     0
  9
$DIMTFILLCLR
 70
     0
  9
$DIMARCSYM
 70
     0
  9
$DIMLTYPE
  6

  9
$DIMLTEX1
  6

  9
$DIMLTEX2
  6

  9
$LUNITS
 70
     2
  9
$LUPREC
 70
     4
  9
$SKETCHINC
 40
0.1
  9
$FILLETRAD
 40
0.5
  9
$AUNITS
 70
     0
  9
$AUPREC
 70
     0
  9
$MENU
  1
.
  9
$ELEVATION
 40
0.0
  9
$PELEVATION
 40
0.0
  9
$THICKNESS
 40
0.0
  9
$LIMCHECK
 70
     0
  9
$CHAMFERA
 40
0.5
  9
$CHAMFERB
 40
0.5
  9
$CHAMFERC
 40
1.0
  9
$CHAMFERD
 40
0.0
  9
$SKPOLY
 70
     0
  9
$TDCREATE
 40
2456878.602259988
  9
$TDUCREATE
 40
2456878.727259988
  9
$TDUPDATE
 40
2456878.602260347
  9
$TDUUPDATE
 40
2456878.727260347
  9
$TDINDWG
 40
0.0000000116
  9
$TDUSRTIMER
 40
0.0000000116
  9
$USRTIMER
 70
     1
  9
$ANGBASE
 50
0.0
  9
$ANGDIR
 70
     0
  9
$PDMODE
 70
     0
  9
$PDSIZE
 40
0.0
  9
$PLINEWID
 40
0.0
  9
$SPLFRAME
 70
     0
  9
$SPLINETYPE
 70
     6
  9
$SPLINESEGS
 70
     8
  9
$HANDSEED
  5
64
  9
$SURFTAB1
 70
     6
  9
$SURFTAB2
 70
     6
  9
$SURFTYPE
 70
     6
  9
$SURFU
 70
     6
  9
$SURFV
 70
     6
  9
$UCSBASE
  2

  9
$UCSNAME
  2

  9
$UCSORG
 10
0.0
 20
0.0
 30
0.0
  9
$UCSXDIR
 10
1.0
 20
0.0
 30
0.0
  9
$UCSYDIR
 10
0.0
 20
1.0
 30
0.0
  9
$UCSORTHOREF
  2

  9
$UCSORTHOVIEW
 70
     0
  9
$UCSORGTOP
 10
0.0
 20
0.0
 30
0.0
  9
$UCSORGBOTTOM
 10
0.0
 20
0.0
 30
0.0
  9
$UCSORGLEFT
 10
0.0
 20
0.0
 30
0.0
  9
$UCSORGRIGHT
 10
0.0
 20
0.0
 30
0.0
  9
$UCSORGFRONT
 10
0.0
 20
0.0
 30
0.0
  9
$UCSORGBACK
 10
0.0
 20
0.0
 30
0.0
  9
$PUCSBASE
  2

  9
$PUCSNAME
  2

  9
$PUCSORG
 10
0.0
 20
0.0
 30
0.0
  9
$PUCSXDIR
 10
1.0
 20
0.0
 30
0.0
  9
$PUCSYDIR
 10
0.0
 20
1.0
 30
0.0
  9
$PUCSORTHOREF
  2

  9
$PUCSORTHOVIEW
 70
     0
  9
$PUCSORGTOP
 10
0.0
 20
0.0
 30
0.0
  9
$PUCSORGBOTTOM
 10
0.0
 20
0.0
 30
0.0
  9
$PUCSORGLEFT
 10
0.0
 20
0.0
 30
0.0
  9
$PUCSORGRIGHT
 10
0.0
 20
0.0
 30
0.0
  9
$PUCSORGFRONT
 10
0.0
 20
0.0
 30
0.0
  9
$PUCSORGBACK
 10
0.0
 20
0.0
 30
0.0
  9
$USERI1
 70
     0
  9
$USERI2
 70
     0
  9
$USERI3
 70
     0
  9
$USERI4
 70
     0
  9
$USERI5
 70
     0
  9
$USERR1
 40
0.0
  9
$USERR2
 40
0.0
  9
$USERR3
 40
0.0
  9
$USERR4
 40
0.0
  9
$USERR5
 40
0.0
  9
$WORLDVIEW
 70
     1
  9
$SHADEDGE
 70
     3
  9
$SHADEDIF
 70
    70
  9
$TILEMODE
 70
     1
  9
$MAXACTVP
 70
    64
  9
$PINSBASE
 10
0.0
 20
0.0
 30
0.0
  9
$PLIMCHECK
 70
     0
  9
$PEXTMIN
 10
1.000000000000000E+20
 20
1.000000000000000E+20
 30
1.000000000000000E+20
  9
$PEXTMAX
 10
-1.000000000000000E+20
 20
-1.000000000000000E+20
 30
-1.000000000000000E+20
  9
$PLIMMIN
 10
0.0
 20
0.0
  9
$PLIMMAX
 10
12.0
 20
9.0
  9
$UNITMODE
 70
     0
  9
$VISRETAIN
 70
     1
  9
$PLINEGEN
 70
     0
  9
$PSLTSCALE
 70
     1
  9
$TREEDEPTH
 70
  3020
  9
$CMLSTYLE
  2
Standard
  9
$CMLJUST
 70
     0
  9
$CMLSCALE
 40
1.0
  9
$PROXYGRAPHICS
 70
     1
  9
$MEASUREMENT
 70
     0
  9
$CELWEIGHT
370
    -1
  9
$ENDCAPS
280
     0
  9
$JOINSTYLE
280
     0
  9
$LWDISPLAY
290
     0
  9
$INSUNITS
 70
     5
  9
$HYPERLINKBASE
  1

  9
$STYLESHEET
  1

  9
$XEDIT
290
     1
  9
$CEPSNTYPE
380
     0
  9
$PSTYLEMODE
290
     1
  9
$FINGERPRINTGUID
  2
{791ACF32-37D3-499C-8A5F-BC463E599118}
  9
$VERSIONGUID
  2
{FAEB1C32-E019-11D5-929B-00C0DF256EC4}
  9
$EXTNAMES
290
     1
  9
$PSVPSCALE
 40
0.0
  9
$OLESTARTUP
290
     0
  9
$SORTENTS
280
   127
  9
$INDEXCTL
280
     0
  9
$HIDETEXT
280
     1
  9
$XCLIPFRAME
290
     0
  9
$HALOGAP
280
     0
  9
$OBSCOLOR
 70
   257
  9
$OBSLTYPE
280
     0
  9
$INTERSECTIONDISPLAY
280
     0
  9
$INTERSECTIONCOLOR
 70
   257
  9
$DIMASSOC
280
     2
  9
$PROJECTNAME
  1

  9
$CAMERADISPLAY
290
     0
  9
$LENSLENGTH
 40
50.0
  9
$CAMERAHEIGHT
 40
0.0
  9
$STEPSPERSEC
 40
2.0
  9
$STEPSIZE
 40
6.0
  9
$3DDWFPREC
 40
2.0
  9
$PSOLWIDTH
 40
0.25
  9
$PSOLHEIGHT
 40
4.0
  9
$LOFTANG1
 40
1.570796326794897
  9
$LOFTANG2
 40
1.570796326794897
  9
$LOFTMAG1
 40
0.0
  9
$LOFTMAG2
 40
0.0
  9
$LOFTPARAM
 70
     7
  9
$LOFTNORMALS
280
     1
  9
$LATITUDE
 40
37.795
  9
$LONGITUDE
 40
-122.394
  9
$NORTHDIRECTION
 40
0.0
  9
$TIMEZONE
 70
 -8000
  9
$LIGHTGLYPHDISPLAY
280
     1
  9
$TILEMODELIGHTSYNCH
280
     1
  9
$SOLIDHIST
280
     1
  9
$SHOWHIST
280
     1
  9
$DWFFRAME
280
     2
  9
$DGNFRAME
280
     2
  9
$REALWORLDSCALE
290
     1
  9
$INTERFERECOLOR
 62
   256
  9
$CSHADOW
280
     0
  9
$SHADOWPLANELOCATION
 40
0.0
  0
ENDSEC
  0
SECTION
  2
CLASSES
  0
CLASS
  1
ACDBDICTIONARYWDFLT
  2
AcDbDictionaryWithDefault
  3
ObjectDBX Classes
 90
        0
 91
        4
280
     0
281
     0
  0
CLASS
  1
VISUALSTYLE
  2
AcDbVisualStyle
  3
ObjectDBX Classes
 90
     4095
 91
        4
280
     0
281
     0
  0
CLASS
  1
MATERIAL
  2
AcDbMaterial
  3
ObjectDBX Classes
 90
     1153
 91
        4
280
     0
281
     0
  0
ENDSEC
  0
SECTION
  2
TABLES
  0
TABLE
  2
VPORT
  5
8
330
0
100
AcDbSymbolTable
 70
     1
  0
VPORT
  5
29
330
8
100
AcDbSymbolTableRecord
100
AcDbViewportTableRecord
  2
*Active
 70
     0
 10
0.0
 20
0.0
 11
1.0
 21
1.0
 12
10.42990654205607
 22
4.5
 13
0.0
 23
0.0
 14
0.5
 24
0.5
 15
0.5
 25
0.5
 16
0.0
 26
0.0
 36
1.0
 17
0.0
 27
0.0
 37
0.0
 40
9.0
 41
1.972972972850329
 42
50.0
 43
0.0
 44
0.0
 50
0.0
 51
0.0
 71
     0
 72
   100
 73
     1
 74
     3
 75
     0
 76
     0
 77
     0
 78
     0
281
     0
 65
     1
110
0.0
120
0.0
130
0.0
111
1.0
121
0.0
131
0.0
112
0.0
122
1.0
132
0.0
 79
     0
146
0.0
 60
     3
 61
     5
292
     1
282
     1
141
0.0
142
0.0
 63
   250
  0
ENDTAB
  0
TABLE
  2
LTYPE
  5
5
330
0
100
AcDbSymbolTable
 70
     1
  0
LTYPE
  5
14
330
5
100
AcDbSymbolTableRecord
100
AcDbLinetypeTableRecord
  2
ByBlock
 70
     0
  3

 72
    65
 73
     0
 40
0.0
  0
LTYPE
  5
15
330
5
100
AcDbSymbolTableRecord
100
AcDbLinetypeTableRecord
  2
ByLayer
 70
     0
  3

 72
    65
 73
     0
 40
0.0
  0
LTYPE
  5
16
330
5
100
AcDbSymbolTableRecord
100
AcDbLinetypeTableRecord
  2
Continuous
 70
     0
  3
Solid line
 72
    65
 73
     0
 40
0.0
  0
ENDTAB
  0
TABLE
  2
LAYER
  5
2
330
0
100
AcDbSymbolTable
 70
     2
  0
LAYER
  5
10
330
2
100
AcDbSymbolTableRecord
100
AcDbLayerTableRecord
  2
0
 70
     0
 62
     7
  6
Continuous
370
    -3
390
F
347
3E
  0
LAYER
  5
40
330
2
100
AcDbSymbolTableRecord
100
AcDbLayerTableRecord
  2
Camada 1
 70
     0
 62
     7
  6
Continuous
370
    -3
390
F
347
3E
  0
ENDTAB
  0
TABLE
  2
STYLE
  5
3
330
0
100
AcDbSymbolTable
 70
     1
  0
STYLE
  5
11
330
3
100
AcDbSymbolTableRecord
100
AcDbTextStyleTableRecord
  2
Standard
 70
     0
 40
0.0
 41
1.0
 50
0.0
 71
     0
 42
0.2
  3
txt
  4

  0
ENDTAB
  0
TABLE
  2
VIEW
  5
6
330
0
100
AcDbSymbolTable
 70
     0
  0
ENDTAB
  0
TABLE
  2
UCS
  5
7
330
0
100
AcDbSymbolTable
 70
     0
  0
ENDTAB
  0
TABLE
  2
APPID
  5
9
330
0
100
AcDbSymbolTable
 70
     2
  0
APPID
  5
12
330
9
100
AcDbSymbolTableRecord
100
AcDbRegAppTableRecord
  2
ACAD
 70
     0
  0
APPID
  5
3F
330
9
100
AcDbSymbolTableRecord
100
AcDbRegAppTableRecord
  2
ODA
 70
     0
  0
ENDTAB
  0
TABLE
  2
DIMSTYLE
  5
A
330
0
100
AcDbSymbolTable
 70
     1
100
AcDbDimStyleTable
  0
DIMSTYLE
105
27
330
A
100
AcDbSymbolTableRecord
100
AcDbDimStyleTableRecord
  2
Standard
 70
     0
178
     0
340
11
  0
ENDTAB
  0
TABLE
  2
BLOCK_RECORD
  5
1
330
0
100
AcDbSymbolTable
 70
     1
  0
BLOCK_RECORD
  5
1F
330
1
100
AcDbSymbolTableRecord
100
AcDbBlockTableRecord
  2
*Model_Space
340
22
 70
     0
280
     1
281
     0
  0
BLOCK_RECORD
  5
1B
330
1
100
AcDbSymbolTableRecord
100
AcDbBlockTableRecord
  2
*Paper_Space
340
1E
 70
     0
280
     1
281
     0
  0
BLOCK_RECORD
  5
23
330
1
100
AcDbSymbolTableRecord
100
AcDbBlockTableRecord
  2
*Paper_Space0
340
26
 70
     0
280
     1
281
     0
  0
ENDTAB
  0
ENDSEC
  0
SECTION
  2
BLOCKS
  0
BLOCK
  5
20
330
1F
100
AcDbEntity
  8
0
100
AcDbBlockBegin
  2
*Model_Space
 70
     0
 10
0.0
 20
0.0
 30
0.0
  3
*Model_Space
  1

  0
ENDBLK
  5
21
330
1F
100
AcDbEntity
  8
0
100
AcDbBlockEnd
  0
BLOCK
  5
1C
330
1B
100
AcDbEntity
 67
     1
  8
0
100
AcDbBlockBegin
  2
*Paper_Space
 70
     0
 10
0.0
 20
0.0
 30
0.0
  3
*Paper_Space
  1

  0
ENDBLK
  5
1D
330
1B
100
AcDbEntity
 67
     1
  8
0
100
AcDbBlockEnd
  0
BLOCK
  5
24
330
23
100
AcDbEntity
  8
0
100
AcDbBlockBegin
  2
*Paper_Space0
 70
     0
 10
0.0
 20
0.0
 30
0.0
  3
*Paper_Space0
  1

  0
ENDBLK
  5
25
330
23
100
AcDbEntity
  8
0
100
AcDbBlockEnd
  0
ENDSEC
  0
SECTION
  2
ENTITIES
  0
SPLINE
  5
41
330
1F
100
AcDbEntity
  8
Camada 1
100
AcDbSpline
210
0.0
220
0.0
230
1.0
 70
    11
 71
     3
 72
   932
 73
   928
 74
     0
 42
0.0000000001
 43
0.0000000001
 12
1.0
 22
0.0
 32
0.0
 13
1.0
 23
0.0
 33
0.0
 40
0.0
 40
0.0
 40
0.0
 40
0.0
 40
0.0042918454935622
 40
0.0042918454935622
 40
0.0042918454935622
 40
0.0042918454935622
 40
0.0085836909871245
 40
0.0085836909871245
 40
0.0085836909871245
 40
0.0085836909871245
 40
0.0128755364806867
 40
0.0128755364806867
 40
0.0128755364806867
 40
0.0128755364806867
 40
0.0171673819742489
 40
0.0171673819742489
 40
0.0171673819742489
 40
0.0171673819742489
 40
0.0214592274678112
 40
0.0214592274678112
 40
0.0214592274678112
 40
0.0214592274678112
 40
0.0257510729613734
 40
0.0257510729613734
 40
0.0257510729613734
 40
0.0257510729613734
 40
0.0300429184549356
 40
0.0300429184549356
 40
0.0300429184549356
 40
0.0300429184549356
 40
0.0343347639484979
 40
0.0343347639484979
 40
0.0343347639484979
 40
0.0343347639484979
 40
0.0386266094420601
 40
0.0386266094420601
 40
0.0386266094420601
 40
0.0386266094420601
 40
0.0429184549356223
 40
0.0429184549356223
 40
0.0429184549356223
 40
0.0429184549356223
 40
0.0472103004291846
 40
0.0472103004291846
 40
0.0472103004291846
 40
0.0472103004291846
 40
0.0515021459227468
 40
0.0515021459227468
 40
0.0515021459227468
 40
0.0515021459227468
 40
0.055793991416309
 40
0.055793991416309
 40
0.055793991416309
 40
0.055793991416309
 40
0.0600858369098712
 40
0.0600858369098712
 40
0.0600858369098712
 40
0.0600858369098712
 40
0.0643776824034335
 40
0.0643776824034335
 40
0.0643776824034335
 40
0.0643776824034335
 40
0.0686695278969957
 40
0.0686695278969957
 40
0.0686695278969957
 40
0.0686695278969957
 40
0.0729613733905579
 40
0.0729613733905579
 40
0.0729613733905579
 40
0.0729613733905579
 40
0.0772532188841202
 40
0.0772532188841202
 40
0.0772532188841202
 40
0.0772532188841202
 40
0.0815450643776824
 40
0.0815450643776824
 40
0.0815450643776824
 40
0.0815450643776824
 40
0.0858369098712446
 40
0.0858369098712446
 40
0.0858369098712446
 40
0.0858369098712446
 40
0.0901287553648069
 40
0.0901287553648069
 40
0.0901287553648069
 40
0.0901287553648069
 40
0.0944206008583691
 40
0.0944206008583691
 40
0.0944206008583691
 40
0.0944206008583691
 40
0.0987124463519313
 40
0.0987124463519313
 40
0.0987124463519313
 40
0.0987124463519313
 40
0.1030042918454936
 40
0.1030042918454936
 40
0.1030042918454936
 40
0.1030042918454936
 40
0.1072961373390558
 40
0.1072961373390558
 40
0.1072961373390558
 40
0.1072961373390558
 40
0.111587982832618
 40
0.111587982832618
 40
0.111587982832618
 40
0.111587982832618
 40
0.1158798283261803
 40
0.1158798283261803
 40
0.1158798283261803
 40
0.1158798283261803
 40
0.1201716738197425
 40
0.1201716738197425
 40
0.1201716738197425
 40
0.1201716738197425
 40
0.1244635193133047
 40
0.1244635193133047
 40
0.1244635193133047
 40
0.1244635193133047
 40
0.1287553648068669
 40
0.1287553648068669
 40
0.1287553648068669
 40
0.1287553648068669
 40
0.1330472103004292
 40
0.1330472103004292
 40
0.1330472103004292
 40
0.1330472103004292
 40
0.1373390557939914
 40
0.1373390557939914
 40
0.1373390557939914
 40
0.1373390557939914
 40
0.1416309012875537
 40
0.1416309012875537
 40
0.1416309012875537
 40
0.1416309012875537
 40
0.1459227467811159
 40
0.1459227467811159
 40
0.1459227467811159
 40
0.1459227467811159
 40
0.1502145922746781
 40
0.1502145922746781
 40
0.1502145922746781
 40
0.1502145922746781
 40
0.1545064377682404
 40
0.1545064377682404
 40
0.1545064377682404
 40
0.1545064377682404
 40
0.1587982832618026
 40
0.1587982832618026
 40
0.1587982832618026
 40
0.1587982832618026
 40
0.1630901287553648
 40
0.1630901287553648
 40
0.1630901287553648
 40
0.1630901287553648
 40
0.167381974248927
 40
0.167381974248927
 40
0.167381974248927
 40
0.167381974248927
 40
0.1716738197424893
 40
0.1716738197424893
 40
0.1716738197424893
 40
0.1716738197424893
 40
0.1759656652360515
 40
0.1759656652360515
 40
0.1759656652360515
 40
0.1759656652360515
 40
0.1802575107296137
 40
0.1802575107296137
 40
0.1802575107296137
 40
0.1802575107296137
 40
0.184549356223176
 40
0.184549356223176
 40
0.184549356223176
 40
0.184549356223176
 40
0.1888412017167382
 40
0.1888412017167382
 40
0.1888412017167382
 40
0.1888412017167382
 40
0.1931330472103004
 40
0.1931330472103004
 40
0.1931330472103004
 40
0.1931330472103004
 40
0.1974248927038627
 40
0.1974248927038627
 40
0.1974248927038627
 40
0.1974248927038627
 40
0.2017167381974249
 40
0.2017167381974249
 40
0.2017167381974249
 40
0.2017167381974249
 40
0.2060085836909871
 40
0.2060085836909871
 40
0.2060085836909871
 40
0.2060085836909871
 40
0.2103004291845494
 40
0.2103004291845494
 40
0.2103004291845494
 40
0.2103004291845494
 40
0.2145922746781116
 40
0.2145922746781116
 40
0.2145922746781116
 40
0.2145922746781116
 40
0.2188841201716738
 40
0.2188841201716738
 40
0.2188841201716738
 40
0.2188841201716738
 40
0.2231759656652361
 40
0.2231759656652361
 40
0.2231759656652361
 40
0.2231759656652361
 40
0.2274678111587983
 40
0.2274678111587983
 40
0.2274678111587983
 40
0.2274678111587983
 40
0.2317596566523605
 40
0.2317596566523605
 40
0.2317596566523605
 40
0.2317596566523605
 40
0.2360515021459227
 40
0.2360515021459227
 40
0.2360515021459227
 40
0.2360515021459227
 40
0.240343347639485
 40
0.240343347639485
 40
0.240343347639485
 40
0.240343347639485
 40
0.2446351931330472
 40
0.2446351931330472
 40
0.2446351931330472
 40
0.2446351931330472
 40
0.2489270386266094
 40
0.2489270386266094
 40
0.2489270386266094
 40
0.2489270386266094
 40
0.2532188841201717
 40
0.2532188841201717
 40
0.2532188841201717
 40
0.2532188841201717
 40
0.2575107296137339
 40
0.2575107296137339
 40
0.2575107296137339
 40
0.2575107296137339
 40
0.2618025751072962
 40
0.2618025751072962
 40
0.2618025751072962
 40
0.2618025751072962
 40
0.2660944206008584
 40
0.2660944206008584
 40
0.2660944206008584
 40
0.2660944206008584
 40
0.2703862660944206
 40
0.2703862660944206
 40
0.2703862660944206
 40
0.2703862660944206
 40
0.2746781115879828
 40
0.2746781115879828
 40
0.2746781115879828
 40
0.2746781115879828
 40
0.278969957081545
 40
0.278969957081545
 40
0.278969957081545
 40
0.278969957081545
 40
0.2832618025751073
 40
0.2832618025751073
 40
0.2832618025751073
 40
0.2832618025751073
 40
0.2875536480686695
 40
0.2875536480686695
 40
0.2875536480686695
 40
0.2875536480686695
 40
0.2918454935622318
 40
0.2918454935622318
 40
0.2918454935622318
 40
0.2918454935622318
 40
0.296137339055794
 40
0.296137339055794
 40
0.296137339055794
 40
0.296137339055794
 40
0.3004291845493562
 40
0.3004291845493562
 40
0.3004291845493562
 40
0.3004291845493562
 40
0.3047210300429185
 40
0.3047210300429185
 40
0.3047210300429185
 40
0.3047210300429185
 40
0.3090128755364807
 40
0.3090128755364807
 40
0.3090128755364807
 40
0.3090128755364807
 40
0.3133047210300429
 40
0.3133047210300429
 40
0.3133047210300429
 40
0.3133047210300429
 40
0.3175965665236051
 40
0.3175965665236051
 40
0.3175965665236051
 40
0.3175965665236051
 40
0.3218884120171674
 40
0.3218884120171674
 40
0.3218884120171674
 40
0.3218884120171674
 40
0.3261802575107296
 40
0.3261802575107296
 40
0.3261802575107296
 40
0.3261802575107296
 40
0.3304721030042919
 40
0.3304721030042919
 40
0.3304721030042919
 40
0.3304721030042919
 40
0.3347639484978541
 40
0.3347639484978541
 40
0.3347639484978541
 40
0.3347639484978541
 40
0.3390557939914163
 40
0.3390557939914163
 40
0.3390557939914163
 40
0.3390557939914163
 40
0.3433476394849785
 40
0.3433476394849785
 40
0.3433476394849785
 40
0.3433476394849785
 40
0.3476394849785407
 40
0.3476394849785407
 40
0.3476394849785407
 40
0.3476394849785407
 40
0.351931330472103
 40
0.351931330472103
 40
0.351931330472103
 40
0.351931330472103
 40
0.3562231759656652
 40
0.3562231759656652
 40
0.3562231759656652
 40
0.3562231759656652
 40
0.3605150214592275
 40
0.3605150214592275
 40
0.3605150214592275
 40
0.3605150214592275
 40
0.3648068669527897
 40
0.3648068669527897
 40
0.3648068669527897
 40
0.3648068669527897
 40
0.369098712446352
 40
0.369098712446352
 40
0.369098712446352
 40
0.369098712446352
 40
0.3733905579399142
 40
0.3733905579399142
 40
0.3733905579399142
 40
0.3733905579399142
 40
0.3776824034334764
 40
0.3776824034334764
 40
0.3776824034334764
 40
0.3776824034334764
 40
0.3819742489270386
 40
0.3819742489270386
 40
0.3819742489270386
 40
0.3819742489270386
 40
0.3862660944206008
 40
0.3862660944206008
 40
0.3862660944206008
 40
0.3862660944206008
 40
0.3905579399141631
 40
0.3905579399141631
 40
0.3905579399141631
 40
0.3905579399141631
 40
0.3948497854077253
 40
0.3948497854077253
 40
0.3948497854077253
 40
0.3948497854077253
 40
0.3991416309012876
 40
0.3991416309012876
 40
0.3991416309012876
 40
0.3991416309012876
 40
0.4034334763948498
 40
0.4034334763948498
 40
0.4034334763948498
 40
0.4034334763948498
 40
0.407725321888412
 40
0.407725321888412
 40
0.407725321888412
 40
0.407725321888412
 40
0.4120171673819742
 40
0.4120171673819742
 40
0.4120171673819742
 40
0.4120171673819742
 40
0.4163090128755365
 40
0.4163090128755365
 40
0.4163090128755365
 40
0.4163090128755365
 40
0.4206008583690987
 40
0.4206008583690987
 40
0.4206008583690987
 40
0.4206008583690987
 40
0.4248927038626609
 40
0.4248927038626609
 40
0.4248927038626609
 40
0.4248927038626609
 40
0.4291845493562232
 40
0.4291845493562232
 40
0.4291845493562232
 40
0.4291845493562232
 40
0.4334763948497854
 40
0.4334763948497854
 40
0.4334763948497854
 40
0.4334763948497854
 40
0.4377682403433477
 40
0.4377682403433477
 40
0.4377682403433477
 40
0.4377682403433477
 40
0.4420600858369099
 40
0.4420600858369099
 40
0.4420600858369099
 40
0.4420600858369099
 40
0.4463519313304721
 40
0.4463519313304721
 40
0.4463519313304721
 40
0.4463519313304721
 40
0.4506437768240343
 40
0.4506437768240343
 40
0.4506437768240343
 40
0.4506437768240343
 40
0.4549356223175965
 40
0.4549356223175965
 40
0.4549356223175965
 40
0.4549356223175965
 40
0.4592274678111588
 40
0.4592274678111588
 40
0.4592274678111588
 40
0.4592274678111588
 40
0.463519313304721
 40
0.463519313304721
 40
0.463519313304721
 40
0.463519313304721
 40
0.4678111587982833
 40
0.4678111587982833
 40
0.4678111587982833
 40
0.4678111587982833
 40
0.4721030042918455
 40
0.4721030042918455
 40
0.4721030042918455
 40
0.4721030042918455
 40
0.4763948497854077
 40
0.4763948497854077
 40
0.4763948497854077
 40
0.4763948497854077
 40
0.48068669527897
 40
0.48068669527897
 40
0.48068669527897
 40
0.48068669527897
 40
0.4849785407725322
 40
0.4849785407725322
 40
0.4849785407725322
 40
0.4849785407725322
 40
0.4892703862660944
 40
0.4892703862660944
 40
0.4892703862660944
 40
0.4892703862660944
 40
0.4935622317596566
 40
0.4935622317596566
 40
0.4935622317596566
 40
0.4935622317596566
 40
0.4978540772532189
 40
0.4978540772532189
 40
0.4978540772532189
 40
0.4978540772532189
 40
0.5021459227467812
 40
0.5021459227467812
 40
0.5021459227467812
 40
0.5021459227467812
 40
0.5064377682403434
 40
0.5064377682403434
 40
0.5064377682403434
 40
0.5064377682403434
 40
0.5107296137339056
 40
0.5107296137339056
 40
0.5107296137339056
 40
0.5107296137339056
 40
0.5150214592274678
 40
0.5150214592274678
 40
0.5150214592274678
 40
0.5150214592274678
 40
0.51931330472103
 40
0.51931330472103
 40
0.51931330472103
 40
0.51931330472103
 40
0.5236051502145923
 40
0.5236051502145923
 40
0.5236051502145923
 40
0.5236051502145923
 40
0.5278969957081545
 40
0.5278969957081545
 40
0.5278969957081545
 40
0.5278969957081545
 40
0.5321888412017167
 40
0.5321888412017167
 40
0.5321888412017167
 40
0.5321888412017167
 40
0.5364806866952789
 40
0.5364806866952789
 40
0.5364806866952789
 40
0.5364806866952789
 40
0.5407725321888412
 40
0.5407725321888412
 40
0.5407725321888412
 40
0.5407725321888412
 40
0.5450643776824035
 40
0.5450643776824035
 40
0.5450643776824035
 40
0.5450643776824035
 40
0.5493562231759657
 40
0.5493562231759657
 40
0.5493562231759657
 40
0.5493562231759657
 40
0.5536480686695279
 40
0.5536480686695279
 40
0.5536480686695279
 40
0.5536480686695279
 40
0.5579399141630901
 40
0.5579399141630901
 40
0.5579399141630901
 40
0.5579399141630901
 40
0.5622317596566524
 40
0.5622317596566524
 40
0.5622317596566524
 40
0.5622317596566524
 40
0.5665236051502146
 40
0.5665236051502146
 40
0.5665236051502146
 40
0.5665236051502146
 40
0.5708154506437768
 40
0.5708154506437768
 40
0.5708154506437768
 40
0.5708154506437768
 40
0.575107296137339
 40
0.575107296137339
 40
0.575107296137339
 40
0.575107296137339
 40
0.5793991416309013
 40
0.5793991416309013
 40
0.5793991416309013
 40
0.5793991416309013
 40
0.5836909871244635
 40
0.5836909871244635
 40
0.5836909871244635
 40
0.5836909871244635
 40
0.5879828326180258
 40
0.5879828326180258
 40
0.5879828326180258
 40
0.5879828326180258
 40
0.592274678111588
 40
0.592274678111588
 40
0.592274678111588
 40
0.592274678111588
 40
0.5965665236051502
 40
0.5965665236051502
 40
0.5965665236051502
 40
0.5965665236051502
 40
0.6008583690987125
 40
0.6008583690987125
 40
0.6008583690987125
 40
0.6008583690987125
 40
0.6051502145922747
 40
0.6051502145922747
 40
0.6051502145922747
 40
0.6051502145922747
 40
0.6094420600858369
 40
0.6094420600858369
 40
0.6094420600858369
 40
0.6094420600858369
 40
0.6137339055793991
 40
0.6137339055793991
 40
0.6137339055793991
 40
0.6137339055793991
 40
0.6180257510729614
 40
0.6180257510729614
 40
0.6180257510729614
 40
0.6180257510729614
 40
0.6223175965665236
 40
0.6223175965665236
 40
0.6223175965665236
 40
0.6223175965665236
 40
0.6266094420600858
 40
0.6266094420600858
 40
0.6266094420600858
 40
0.6266094420600858
 40
0.630901287553648
 40
0.630901287553648
 40
0.630901287553648
 40
0.630901287553648
 40
0.6351931330472103
 40
0.6351931330472103
 40
0.6351931330472103
 40
0.6351931330472103
 40
0.6394849785407726
 40
0.6394849785407726
 40
0.6394849785407726
 40
0.6394849785407726
 40
0.6437768240343348
 40
0.6437768240343348
 40
0.6437768240343348
 40
0.6437768240343348
 40
0.648068669527897
 40
0.648068669527897
 40
0.648068669527897
 40
0.648068669527897
 40
0.6523605150214592
 40
0.6523605150214592
 40
0.6523605150214592
 40
0.6523605150214592
 40
0.6566523605150214
 40
0.6566523605150214
 40
0.6566523605150214
 40
0.6566523605150214
 40
0.6609442060085837
 40
0.6609442060085837
 40
0.6609442060085837
 40
0.6609442060085837
 40
0.6652360515021459
 40
0.6652360515021459
 40
0.6652360515021459
 40
0.6652360515021459
 40
0.6695278969957081
 40
0.6695278969957081
 40
0.6695278969957081
 40
0.6695278969957081
 40
0.6738197424892703
 40
0.6738197424892703
 40
0.6738197424892703
 40
0.6738197424892703
 40
0.6781115879828327
 40
0.6781115879828327
 40
0.6781115879828327
 40
0.6781115879828327
 40
0.6824034334763949
 40
0.6824034334763949
 40
0.6824034334763949
 40
0.6824034334763949
 40
0.6866952789699571
 40
0.6866952789699571
 40
0.6866952789699571
 40
0.6866952789699571
 40
0.6909871244635193
 40
0.6909871244635193
 40
0.6909871244635193
 40
0.6909871244635193
 40
0.6952789699570815
 40
0.6952789699570815
 40
0.6952789699570815
 40
0.6952789699570815
 40
0.6995708154506438
 40
0.6995708154506438
 40
0.6995708154506438
 40
0.6995708154506438
 40
0.703862660944206
 40
0.703862660944206
 40
0.703862660944206
 40
0.703862660944206
 40
0.7081545064377682
 40
0.7081545064377682
 40
0.7081545064377682
 40
0.7081545064377682
 40
0.7124463519313304
 40
0.7124463519313304
 40
0.7124463519313304
 40
0.7124463519313304
 40
0.7167381974248928
 40
0.7167381974248928
 40
0.7167381974248928
 40
0.7167381974248928
 40
0.721030042918455
 40
0.721030042918455
 40
0.721030042918455
 40
0.721030042918455
 40
0.7253218884120172
 40
0.7253218884120172
 40
0.7253218884120172
 40
0.7253218884120172
 40
0.7296137339055794
 40
0.7296137339055794
 40
0.7296137339055794
 40
0.7296137339055794
 40
0.7339055793991416
 40
0.7339055793991416
 40
0.7339055793991416
 40
0.7339055793991416
 40
0.7381974248927039
 40
0.7381974248927039
 40
0.7381974248927039
 40
0.7381974248927039
 40
0.7424892703862661
 40
0.7424892703862661
 40
0.7424892703862661
 40
0.7424892703862661
 40
0.7467811158798283
 40
0.7467811158798283
 40
0.7467811158798283
 40
0.7467811158798283
 40
0.7510729613733905
 40
0.7510729613733905
 40
0.7510729613733905
 40
0.7510729613733905
 40
0.7553648068669528
 40
0.7553648068669528
 40
0.7553648068669528
 40
0.7553648068669528
 40
0.759656652360515
 40
0.759656652360515
 40
0.759656652360515
 40
0.759656652360515
 40
0.7639484978540773
 40
0.7639484978540773
 40
0.7639484978540773
 40
0.7639484978540773
 40
0.7682403433476395
 40
0.7682403433476395
 40
0.7682403433476395
 40
0.7682403433476395
 40
0.7725321888412017
 40
0.7725321888412017
 40
0.7725321888412017
 40
0.7725321888412017
 40
0.776824034334764
 40
0.776824034334764
 40
0.776824034334764
 40
0.776824034334764
 40
0.7811158798283262
 40
0.7811158798283262
 40
0.7811158798283262
 40
0.7811158798283262
 40
0.7854077253218884
 40
0.7854077253218884
 40
0.7854077253218884
 40
0.7854077253218884
 40
0.7896995708154506
 40
0.7896995708154506
 40
0.7896995708154506
 40
0.7896995708154506
 40
0.7939914163090128
 40
0.7939914163090128
 40
0.7939914163090128
 40
0.7939914163090128
 40
0.7982832618025751
 40
0.7982832618025751
 40
0.7982832618025751
 40
0.7982832618025751
 40
0.8025751072961373
 40
0.8025751072961373
 40
0.8025751072961373
 40
0.8025751072961373
 40
0.8068669527896996
 40
0.8068669527896996
 40
0.8068669527896996
 40
0.8068669527896996
 40
0.8111587982832618
 40
0.8111587982832618
 40
0.8111587982832618
 40
0.8111587982832618
 40
0.8154506437768241
 40
0.8154506437768241
 40
0.8154506437768241
 40
0.8154506437768241
 40
0.8197424892703863
 40
0.8197424892703863
 40
0.8197424892703863
 40
0.8197424892703863
 40
0.8240343347639485
 40
0.8240343347639485
 40
0.8240343347639485
 40
0.8240343347639485
 40
0.8283261802575107
 40
0.8283261802575107
 40
0.8283261802575107
 40
0.8283261802575107
 40
0.8326180257510729
 40
0.8326180257510729
 40
0.8326180257510729
 40
0.8326180257510729
 40
0.8369098712446352
 40
0.8369098712446352
 40
0.8369098712446352
 40
0.8369098712446352
 40
0.8412017167381974
 40
0.8412017167381974
 40
0.8412017167381974
 40
0.8412017167381974
 40
0.8454935622317596
 40
0.8454935622317596
 40
0.8454935622317596
 40
0.8454935622317596
 40
0.8497854077253219
 40
0.8497854077253219
 40
0.8497854077253219
 40
0.8497854077253219
 40
0.8540772532188842
 40
0.8540772532188842
 40
0.8540772532188842
 40
0.8540772532188842
 40
0.8583690987124464
 40
0.8583690987124464
 40
0.8583690987124464
 40
0.8583690987124464
 40
0.8626609442060086
 40
0.8626609442060086
 40
0.8626609442060086
 40
0.8626609442060086
 40
0.8669527896995708
 40
0.8669527896995708
 40
0.8669527896995708
 40
0.8669527896995708
 40
0.871244635193133
 40
0.871244635193133
 40
0.871244635193133
 40
0.871244635193133
 40
0.8755364806866953
 40
0.8755364806866953
 40
0.8755364806866953
 40
0.8755364806866953
 40
0.8798283261802575
 40
0.8798283261802575
 40
0.8798283261802575
 40
0.8798283261802575
 40
0.8841201716738197
 40
0.8841201716738197
 40
0.8841201716738197
 40
0.8841201716738197
 40
0.8884120171673819
 40
0.8884120171673819
 40
0.8884120171673819
 40
0.8884120171673819
 40
0.8927038626609443
 40
0.8927038626609443
 40
0.8927038626609443
 40
0.8927038626609443
 40
0.8969957081545065
 40
0.8969957081545065
 40
0.8969957081545065
 40
0.8969957081545065
 40
0.9012875536480687
 40
0.9012875536480687
 40
0.9012875536480687
 40
0.9012875536480687
 40
0.9055793991416309
 40
0.9055793991416309
 40
0.9055793991416309
 40
0.9055793991416309
 40
0.9098712446351931
 40
0.9098712446351931
 40
0.9098712446351931
 40
0.9098712446351931
 40
0.9141630901287554
 40
0.9141630901287554
 40
0.9141630901287554
 40
0.9141630901287554
 40
0.9184549356223176
 40
0.9184549356223176
 40
0.9184549356223176
 40
0.9184549356223176
 40
0.9227467811158798
 40
0.9227467811158798
 40
0.9227467811158798
 40
0.9227467811158798
 40
0.927038626609442
 40
0.927038626609442
 40
0.927038626609442
 40
0.927038626609442
 40
0.9313304721030042
 40
0.9313304721030042
 40
0.9313304721030042
 40
0.9313304721030042
 40
0.9356223175965666
 40
0.9356223175965666
 40
0.9356223175965666
 40
0.9356223175965666
 40
0.9399141630901288
 40
0.9399141630901288
 40
0.9399141630901288
 40
0.9399141630901288
 40
0.944206008583691
 40
0.944206008583691
 40
0.944206008583691
 40
0.944206008583691
 40
0.9484978540772532
 40
0.9484978540772532
 40
0.9484978540772532
 40
0.9484978540772532
 40
0.9527896995708155
 40
0.9527896995708155
 40
0.9527896995708155
 40
0.9527896995708155
 40
0.9570815450643777
 40
0.9570815450643777
 40
0.9570815450643777
 40
0.9570815450643777
 40
0.9613733905579399
 40
0.9613733905579399
 40
0.9613733905579399
 40
0.9613733905579399
 40
0.9656652360515021
 40
0.9656652360515021
 40
0.9656652360515021
 40
0.9656652360515021
 40
0.9699570815450643
 40
0.9699570815450643
 40
0.9699570815450643
 40
0.9699570815450643
 40
0.9742489270386266
 40
0.9742489270386266
 40
0.9742489270386266
 40
0.9742489270386266
 40
0.9785407725321889
 40
0.9785407725321889
 40
0.9785407725321889
 40
0.9785407725321889
 40
0.9828326180257511
 40
0.9828326180257511
 40
0.9828326180257511
 40
0.9828326180257511
 40
0.9871244635193133
 40
0.9871244635193133
 40
0.9871244635193133
 40
0.9871244635193133
 40
0.9914163090128756
 40
0.9914163090128756
 40
0.9914163090128756
 40
0.9914163090128756
 40
1.0
 40
1.0
 40
1.0
 40
1.0
 10
10.49499
 20
-10.60535
 30
0.0
 10
10.46829
 20
-10.80614
 30
0.0
 10
10.29658
 20
-10.9614
 30
0.0
 10
10.08809
 20
-10.9614
 30
0.0
 10
10.08809
 20
-10.9614
 30
0.0
 10
9.87955
 20
-10.9614
 30
0.0
 10
9.70733
 20
-10.80614
 30
0.0
 10
9.68103
 20
-10.60535
 30
0.0
 10
9.68103
 20
-10.60535
 30
0.0
 10
9.50794
 20
-10.6766
 30
0.0
 10
9.30704
 20
-10.62157
 30
0.0
 10
9.19533
 20
-10.47094
 30
0.0
 10
9.19533
 20
-10.47094
 30
0.0
 10
9.19533
 20
-10.47094
 30
0.0
 10
9.1862
 20
-10.48232
 30
0.0
 10
9.1862
 20
-10.48232
 30
0.0
 10
9.1862
 20
-10.48232
 30
0.0
 10
9.07291
 20
-10.6244
 30
0.0
 10
8.87778
 20
-10.67488
 30
0.0
 10
8.70921
 20
-10.60535
 30
0.0
 10
8.70921
 20
-10.60535
 30
0.0
 10
8.68257
 20
-10.80614
 30
0.0
 10
8.51085
 20
-10.9614
 30
0.0
 10
8.30233
 20
-10.9614
 30
0.0
 10
8.30233
 20
-10.9614
 30
0.0
 10
8.09379
 20
-10.9614
 30
0.0
 10
7.92159
 20
-10.80614
 30
0.0
 10
7.89524
 20
-10.60535
 30
0.0
 10
7.89524
 20
-10.60535
 30
0.0
 10
7.70776
 20
-10.68261
 30
0.0
 10
7.48757
 20
-10.61146
 30
0.0
 10
7.38354
 20
-10.43133
 30
0.0
 10
7.38354
 20
-10.43133
 30
0.0
 10
7.27948
 20
-10.61148
 30
0.0
 10
7.05929
 20
-10.6826
 30
0.0
 10
6.87186
 20
-10.60535
 30
0.0
 10
6.87186
 20
-10.60535
 30
0.0
 10
6.84545
 20
-10.80614
 30
0.0
 10
6.67332
 20
-10.9614
 30
0.0
 10
6.46477
 20
-10.9614
 30
0.0
 10
6.46477
 20
-10.9614
 30
0.0
 10
6.2562
 20
-10.9614
 30
0.0
 10
6.08454
 20
-10.80614
 30
0.0
 10
6.05789
 20
-10.60535
 30
0.0
 10
6.05789
 20
-10.60535
 30
0.0
 10
5.88932
 20
-10.67488
 30
0.0
 10
5.69419
 20
-10.6244
 30
0.0
 10
5.5809
 20
-10.48232
 30
0.0
 10
5.5809
 20
-10.48232
 30
0.0
 10
5.5809
 20
-10.48232
 30
0.0
 10
5.57177
 20
-10.47094
 30
0.0
 10
5.57177
 20
-10.47094
 30
0.0
 10
5.57177
 20
-10.47094
 30
0.0
 10
5.46004
 20
-10.62157
 30
0.0
 10
5.25916
 20
-10.6766
 30
0.0
 10
5.08607
 20
-10.60535
 30
0.0
 10
5.08607
 20
-10.60535
 30
0.0
 10
5.05972
 20
-10.80614
 30
0.0
 10
4.88755
 20
-10.9614
 30
0.0
 10
4.67901
 20
-10.9614
 30
0.0
 10
4.67901
 20
-10.9614
 30
0.0
 10
4.47047
 20
-10.9614
 30
0.0
 10
4.2988
 20
-10.80614
 30
0.0
 10
4.27211
 20
-10.60535
 30
0.0
 10
4.27211
 20
-10.60535
 30
0.0
 10
4.08478
 20
-10.68261
 30
0.0
 10
3.86449
 20
-10.61154
 30
0.0
 10
3.76035
 20
-10.43133
 30
0.0
 10
3.76035
 20
-10.43133
 30
0.0
 10
3.76035
 20
-10.43133
 30
0.0
 10
3.7045
 20
-10.3474
 30
0.0
 10
3.7045
 20
-10.3474
 30
0.0
 10
3.7045
 20
-10.3474
 30
0.0
 10
3.7045
 20
-10.3474
 30
0.0
 10
3.64419
 20
-10.3474
 30
0.0
 10
3.64419
 20
-10.3474
 30
0.0
 10
3.64419
 20
-10.3474
 30
0.0
 10
3.64419
 20
-10.3474
 30
0.0
 10
3.58836
 20
-10.43133
 30
0.0
 10
3.58836
 20
-10.43133
 30
0.0
 10
3.58836
 20
-10.43133
 30
0.0
 10
3.48419
 20
-10.61156
 30
0.0
 10
3.26393
 20
-10.6826
 30
0.0
 10
3.0766
 20
-10.60535
 30
0.0
 10
3.0766
 20
-10.60535
 30
0.0
 10
3.0499
 20
-10.80614
 30
0.0
 10
2.87822
 20
-10.9614
 30
0.0
 10
2.6697
 20
-10.9614
 30
0.0
 10
2.6697
 20
-10.9614
 30
0.0
 10
2.46113
 20
-10.9614
 30
0.0
 10
2.28896
 20
-10.80614
 30
0.0
 10
2.26264
 20
-10.60535
 30
0.0
 10
2.26264
 20
-10.60535
 30
0.0
 10
2.08955
 20
-10.6766
 30
0.0
 10
1.88865
 20
-10.62157
 30
0.0
 10
1.77694
 20
-10.47094
 30
0.0
 10
1.77694
 20
-10.47094
 30
0.0
 10
1.77694
 20
-10.47094
 30
0.0
 10
1.76779
 20
-10.48232
 30
0.0
 10
1.76779
 20
-10.48232
 30
0.0
 10
1.76779
 20
-10.48232
 30
0.0
 10
1.65452
 20
-10.6244
 30
0.0
 10
1.45939
 20
-10.67488
 30
0.0
 10
1.29083
 20
-10.60535
 30
0.0
 10
1.29083
 20
-10.60535
 30
0.0
 10
1.26419
 20
-10.80614
 30
0.0
 10
1.0925
 20
-10.9614
 30
0.0
 10
0.88393
 20
-10.9614
 30
0.0
 10
0.88393
 20
-10.9614
 30
0.0
 10
0.67541
 20
-10.9614
 30
0.0
 10
0.50322
 20
-10.80614
 30
0.0
 10
0.47687
 20
-10.60535
 30
0.0
 10
0.47687
 20
-10.60535
 30
0.0
 10
0.28941
 20
-10.68261
 30
0.0
 10
0.06923
 20
-10.61146
 30
0.0
 10
-0.03481
 20
-10.43133
 30
0.0
 10
-0.03481
 20
-10.43133
 30
0.0
 10
-0.13887
 20
-10.61148
 30
0.0
 10
-0.35906
 20
-10.6826
 30
0.0
 10
-0.54649
 20
-10.60535
 30
0.0
 10
-0.54649
 20
-10.60535
 30
0.0
 10
-0.57287
 20
-10.80614
 30
0.0
 10
-0.74503
 20
-10.9614
 30
0.0
 10
-0.95358
 20
-10.9614
 30
0.0
 10
-0.95358
 20
-10.9614
 30
0.0
 10
-1.16212
 20
-10.9614
 30
0.0
 10
-1.33381
 20
-10.80614
 30
0.0
 10
-1.36046
 20
-10.60535
 30
0.0
 10
-1.36046
 20
-10.60535
 30
0.0
 10
-1.52903
 20
-10.67488
 30
0.0
 10
-1.72416
 20
-10.6244
 30
0.0
 10
-1.83745
 20
-10.48232
 30
0.0
 10
-1.83745
 20
-10.48232
 30
0.0
 10
-1.83745
 20
-10.48232
 30
0.0
 10
-1.84658
 20
-10.47094
 30
0.0
 10
-1.84658
 20
-10.47094
 30
0.0
 10
-1.84658
 20
-10.47094
 30
0.0
 10
-1.95831
 20
-10.62157
 30
0.0
 10
-2.15921
 20
-10.6766
 30
0.0
 10
-2.33228
 20
-10.60535
 30
0.0
 10
-2.33228
 20
-10.60535
 30
0.0
 10
-2.35861
 20
-10.80614
 30
0.0
 10
-2.5308
 20
-10.9614
 30
0.0
 10
-2.73934
 20
-10.9614
 30
0.0
 10
-2.73934
 20
-10.9614
 30
0.0
 10
-2.94786
 20
-10.9614
 30
0.0
 10
-3.11955
 20
-10.80614
 30
0.0
 10
-3.14624
 20
-10.60535
 30
0.0
 10
-3.14624
 20
-10.60535
 30
0.0
 10
-3.33357
 20
-10.68261
 30
0.0
 10
-3.55383
 20
-10.61154
 30
0.0
 10
-3.65797
 20
-10.43133
 30
0.0
 10
-3.65797
 20
-10.43133
 30
0.0
 10
-3.65797
 20
-10.43133
 30
0.0
 10
-3.71382
 20
-10.3474
 30
0.0
 10
-3.71382
 20
-10.3474
 30
0.0
 10
-3.71382
 20
-10.3474
 30
0.0
 10
-3.71382
 20
-10.3474
 30
0.0
 10
-3.76967
 20
-10.43133
 30
0.0
 10
-3.76967
 20
-10.43133
 30
0.0
 10
-3.76967
 20
-10.43133
 30
0.0
 10
-3.87381
 20
-10.61156
 30
0.0
 10
-4.0941
 20
-10.6826
 30
0.0
 10
-4.28143
 20
-10.60535
 30
0.0
 10
-4.28143
 20
-10.60535
 30
0.0
 10
-4.3081
 20
-10.80614
 30
0.0
 10
-4.47981
 20
-10.9614
 30
0.0
 10
-4.68831
 20
-10.9614
 30
0.0
 10
-4.68831
 20
-10.9614
 30
0.0
 10
-4.89688
 20
-10.9614
 30
0.0
 10
-5.06905
 20
-10.80614
 30
0.0
 10
-5.09537
 20
-10.60535
 30
0.0
 10
-5.09537
 20
-10.60535
 30
0.0
 10
-5.26846
 20
-10.6766
 30
0.0
 10
-5.46936
 20
-10.62157
 30
0.0
 10
-5.58107
 20
-10.47094
 30
0.0
 10
-5.58107
 20
-10.47094
 30
0.0
 10
-5.58107
 20
-10.47094
 30
0.0
 10
-5.5902
 20
-10.48232
 30
0.0
 10
-5.5902
 20
-10.48232
 30
0.0
 10
-5.5902
 20
-10.48232
 30
0.0
 10
-5.70349
 20
-10.6244
 30
0.0
 10
-5.89862
 20
-10.67488
 30
0.0
 10
-6.06716
 20
-10.60535
 30
0.0
 10
-6.06716
 20
-10.60535
 30
0.0
 10
-6.0938
 20
-10.80614
 30
0.0
 10
-6.26552
 20
-10.9614
 30
0.0
 10
-6.47404
 20
-10.9614
 30
0.0
 10
-6.47404
 20
-10.9614
 30
0.0
 10
-6.68256
 20
-10.9614
 30
0.0
 10
-6.85475
 20
-10.80614
 30
0.0
 10
-6.88113
 20
-10.60535
 30
0.0
 10
-6.88113
 20
-10.60535
 30
0.0
 10
-7.06856
 20
-10.68261
 30
0.0
 10
-7.28877
 20
-10.61146
 30
0.0
 10
-7.39281
 20
-10.43133
 30
0.0
 10
-7.39281
 20
-10.43133
 30
0.0
 10
-7.49684
 20
-10.61148
 30
0.0
 10
-7.71703
 20
-10.6826
 30
0.0
 10
-7.90449
 20
-10.60535
 30
0.0
 10
-7.90449
 20
-10.60535
 30
0.0
 10
-7.93087
 20
-10.80614
 30
0.0
 10
-8.10303
 20
-10.9614
 30
0.0
 10
-8.31155
 20
-10.9614
 30
0.0
 10
-8.31155
 20
-10.9614
 30
0.0
 10
-8.52009
 20
-10.9614
 30
0.0
 10
-8.69181
 20
-10.80614
 30
0.0
 10
-8.71845
 20
-10.60535
 30
0.0
 10
-8.71845
 20
-10.60535
 30
0.0
 10
-8.88699
 20
-10.67488
 30
0.0
 10
-9.08212
 20
-10.6244
 30
0.0
 10
-9.19541
 20
-10.48232
 30
0.0
 10
-9.19541
 20
-10.48232
 30
0.0
 10
-9.19541
 20
-10.48232
 30
0.0
 10
-9.20454
 20
-10.47094
 30
0.0
 10
-9.20454
 20
-10.47094
 30
0.0
 10
-9.20454
 20
-10.47094
 30
0.0
 10
-9.31625
 20
-10.62157
 30
0.0
 10
-9.51715
 20
-10.6766
 30
0.0
 10
-9.69024
 20
-10.60535
 30
0.0
 10
-9.69024
 20
-10.60535
 30
0.0
 10
-9.71659
 20
-10.80614
 30
0.0
 10
-9.88876
 20
-10.9614
 30
0.0
 10
-10.09733
 20
-10.9614
 30
0.0
 10
-10.09733
 20
-10.9614
 30
0.0
 10
-10.30582
 20
-10.9614
 30
0.0
 10
-10.47754
 20
-10.80614
 30
0.0
 10
-10.50421
 20
-10.60535
 30
0.0
 10
-10.50421
 20
-10.60535
 30
0.0
 10
-10.50421
 20
-10.60535
 30
0.0
 10
-10.48291
 20
-10.60334
 30
0.0
 10
-10.48291
 20
-10.60334
 30
0.0
 10
-10.48291
 20
-10.60334
 30
0.0
 10
-10.6837
 20
-10.57664
 30
0.0
 10
-10.83896
 20
-10.40493
 30
0.0
 10
-10.83896
 20
-10.19644
 30
0.0
 10
-10.83896
 20
-10.19644
 30
0.0
 10
-10.83896
 20
-9.9879
 30
0.0
 10
-10.6837
 20
-9.81568
 30
0.0
 10
-10.48291
 20
-9.78938
 30
0.0
 10
-10.48291
 20
-9.78938
 30
0.0
 10
-10.55416
 20
-9.61629
 30
0.0
 10
-10.49913
 20
-9.41539
 30
0.0
 10
-10.3485
 20
-9.30368
 30
0.0
 10
-10.3485
 20
-9.30368
 30
0.0
 10
-10.3485
 20
-9.30368
 30
0.0
 10
-10.35988
 20
-9.29455
 30
0.0
 10
-10.35988
 20
-9.29455
 30
0.0
 10
-10.35988
 20
-9.29455
 30
0.0
 10
-10.50196
 20
-9.18126
 30
0.0
 10
-10.55244
 20
-8.98613
 30
0.0
 10
-10.48291
 20
-8.81756
 30
0.0
 10
-10.48291
 20
-8.81756
 30
0.0
 10
-10.6837
 20
-8.79092
 30
0.0
 10
-10.83896
 20
-8.6192
 30
0.0
 10
-10.83896
 20
-8.41068
 30
0.0
 10
-10.83896
 20
-8.41068
 30
0.0
 10
-10.83896
 20
-8.20214
 30
0.0
 10
-10.6837
 20
-8.02994
 30
0.0
 10
-10.48291
 20
-8.00359
 30
0.0
 10
-10.48291
 20
-8.00359
 30
0.0
 10
-10.56017
 20
-7.81611
 30
0.0
 10
-10.48902
 20
-7.59592
 30
0.0
 10
-10.30889
 20
-7.49189
 30
0.0
 10
-10.30889
 20
-7.49189
 30
0.0
 10
-10.48904
 20
-7.38783
 30
0.0
 10
-10.56016
 20
-7.16764
 30
0.0
 10
-10.48291
 20
-6.98021
 30
0.0
 10
-10.48291
 20
-6.98021
 30
0.0
 10
-10.6837
 20
-6.9538
 30
0.0
 10
-10.83896
 20
-6.78167
 30
0.0
 10
-10.83896
 20
-6.57312
 30
0.0
 10
-10.83896
 20
-6.57312
 30
0.0
 10
-10.83896
 20
-6.36455
 30
0.0
 10
-10.6837
 20
-6.19289
 30
0.0
 10
-10.48291
 20
-6.16624
 30
0.0
 10
-10.48291
 20
-6.16624
 30
0.0
 10
-10.55244
 20
-5.99767
 30
0.0
 10
-10.50196
 20
-5.80254
 30
0.0
 10
-10.35988
 20
-5.68925
 30
0.0
 10
-10.35988
 20
-5.68925
 30
0.0
 10
-10.35988
 20
-5.68925
 30
0.0
 10
-10.3485
 20
-5.68012
 30
0.0
 10
-10.3485
 20
-5.68012
 30
0.0
 10
-10.3485
 20
-5.68012
 30
0.0
 10
-10.49913
 20
-5.56839
 30
0.0
 10
-10.55416
 20
-5.36751
 30
0.0
 10
-10.48291
 20
-5.19442
 30
0.0
 10
-10.48291
 20
-5.19442
 30
0.0
 10
-10.6837
 20
-5.16807
 30
0.0
 10
-10.83896
 20
-4.9959
 30
0.0
 10
-10.83896
 20
-4.78736
 30
0.0
 10
-10.83896
 20
-4.78736
 30
0.0
 10
-10.83896
 20
-4.57882
 30
0.0
 10
-10.6837
 20
-4.40715
 30
0.0
 10
-10.48291
 20
-4.38046
 30
0.0
 10
-10.48291
 20
-4.38046
 30
0.0
 10
-10.56017
 20
-4.19313
 30
0.0
 10
-10.4891
 20
-3.97284
 30
0.0
 10
-10.30889
 20
-3.8687
 30
0.0
 10
-10.30889
 20
-3.8687
 30
0.0
 10
-10.30889
 20
-3.8687
 30
0.0
 10
-10.22496
 20
-3.81285
 30
0.0
 10
-10.22496
 20
-3.81285
 30
0.0
 10
-10.22496
 20
-3.81285
 30
0.0
 10
-10.22496
 20
-3.81285
 30
0.0
 10
-10.22496
 20
-3.75252
 30
0.0
 10
-10.22496
 20
-3.75252
 30
0.0
 10
-10.22496
 20
-3.75252
 30
0.0
 10
-10.22496
 20
-3.75252
 30
0.0
 10
-10.30889
 20
-3.69669
 30
0.0
 10
-10.30889
 20
-3.69669
 30
0.0
 10
-10.30889
 20
-3.69669
 30
0.0
 10
-10.48912
 20
-3.59252
 30
0.0
 10
-10.56016
 20
-3.37226
 30
0.0
 10
-10.48291
 20
-3.18493
 30
0.0
 10
-10.48291
 20
-3.18493
 30
0.0
 10
-10.6837
 20
-3.15823
 30
0.0
 10
-10.83896
 20
-2.98655
 30
0.0
 10
-10.83896
 20
-2.77803
 30
0.0
 10
-10.83896
 20
-2.77803
 30
0.0
 10
-10.83896
 20
-2.56946
 30
0.0
 10
-10.6837
 20
-2.39729
 30
0.0
 10
-10.48291
 20
-2.37097
 30
0.0
 10
-10.48291
 20
-2.37097
 30
0.0
 10
-10.55416
 20
-2.19788
 30
0.0
 10
-10.49913
 20
-1.99698
 30
0.0
 10
-10.3485
 20
-1.88527
 30
0.0
 10
-10.3485
 20
-1.88527
 30
0.0
 10
-10.3485
 20
-1.88527
 30
0.0
 10
-10.35988
 20
-1.87612
 30
0.0
 10
-10.35988
 20
-1.87612
 30
0.0
 10
-10.35988
 20
-1.87612
 30
0.0
 10
-10.50196
 20
-1.76285
 30
0.0
 10
-10.55244
 20
-1.56772
 30
0.0
 10
-10.48291
 20
-1.39916
 30
0.0
 10
-10.48291
 20
-1.39916
 30
0.0
 10
-10.6837
 20
-1.37252
 30
0.0
 10
-10.83896
 20
-1.20083
 30
0.0
 10
-10.83896
 20
-0.99226
 30
0.0
 10
-10.83896
 20
-0.99226
 30
0.0
 10
-10.83896
 20
-0.78374
 30
0.0
 10
-10.6837
 20
-0.61155
 30
0.0
 10
-10.48291
 20
-0.5852
 30
0.0
 10
-10.48291
 20
-0.5852
 30
0.0
 10
-10.56017
 20
-0.39774
 30
0.0
 10
-10.48902
 20
-0.17756
 30
0.0
 10
-10.30889
 20
-0.0735
 30
0.0
 10
-10.30889
 20
-0.0735
 30
0.0
 10
-10.48904
 20
0.03056
 30
0.0
 10
-10.56016
 20
0.25075
 30
0.0
 10
-10.48291
 20
0.43818
 30
0.0
 10
-10.48291
 20
0.43818
 30
0.0
 10
-10.6837
 20
0.46456
 30
0.0
 10
-10.83896
 20
0.63675
 30
0.0
 10
-10.83896
 20
0.84527
 30
0.0
 10
-10.83896
 20
0.84527
 30
0.0
 10
-10.83896
 20
1.05381
 30
0.0
 10
-10.6837
 20
1.2255
 30
0.0
 10
-10.48291
 20
1.25217
 30
0.0
 10
-10.48291
 20
1.25217
 30
0.0
 10
-10.55244
 20
1.42071
 30
0.0
 10
-10.50196
 20
1.61584
 30
0.0
 10
-10.35988
 20
1.72913
 30
0.0
 10
-10.35988
 20
1.72913
 30
0.0
 10
-10.35988
 20
1.72913
 30
0.0
 10
-10.3485
 20
1.73826
 30
0.0
 10
-10.3485
 20
1.73826
 30
0.0
 10
-10.3485
 20
1.73826
 30
0.0
 10
-10.49913
 20
1.84999
 30
0.0
 10
-10.55416
 20
2.05089
 30
0.0
 10
-10.48291
 20
2.22396
 30
0.0
 10
-10.48291
 20
2.22396
 30
0.0
 10
-10.6837
 20
2.25029
 30
0.0
 10
-10.83896
 20
2.42248
 30
0.0
 10
-10.83896
 20
2.63105
 30
0.0
 10
-10.83896
 20
2.63105
 30
0.0
 10
-10.83896
 20
2.83957
 30
0.0
 10
-10.6837
 20
3.01126
 30
0.0
 10
-10.48291
 20
3.03795
 30
0.0
 10
-10.48291
 20
3.03795
 30
0.0
 10
-10.56017
 20
3.22525
 30
0.0
 10
-10.4891
 20
3.44554
 30
0.0
 10
-10.30889
 20
3.54968
 30
0.0
 10
-10.30889
 20
3.54968
 30
0.0
 10
-10.30889
 20
3.54968
 30
0.0
 10
-10.22496
 20
3.60553
 30
0.0
 10
-10.22496
 20
3.60553
 30
0.0
 10
-10.22496
 20
3.60553
 30
0.0
 10
-10.22496
 20
3.60553
 30
0.0
 10
-10.30889
 20
3.66138
 30
0.0
 10
-10.30889
 20
3.66138
 30
0.0
 10
-10.30889
 20
3.66138
 30
0.0
 10
-10.48912
 20
3.76552
 30
0.0
 10
-10.56016
 20
3.98581
 30
0.0
 10
-10.48291
 20
4.17314
 30
0.0
 10
-10.48291
 20
4.17314
 30
0.0
 10
-10.6837
 20
4.19981
 30
0.0
 10
-10.83896
 20
4.3715
 30
0.0
 10
-10.83896
 20
4.58002
 30
0.0
 10
-10.83896
 20
4.58002
 30
0.0
 10
-10.83896
 20
4.78859
 30
0.0
 10
-10.6837
 20
4.96078
 30
0.0
 10
-10.48291
 20
4.98711
 30
0.0
 10
-10.48291
 20
4.98711
 30
0.0
 10
-10.55416
 20
5.1602
 30
0.0
 10
-10.49913
 20
5.3611
 30
0.0
 10
-10.3485
 20
5.47281
 30
0.0
 10
-10.3485
 20
5.47281
 30
0.0
 10
-10.3485
 20
5.47281
 30
0.0
 10
-10.35988
 20
5.48194
 30
0.0
 10
-10.35988
 20
5.48194
 30
0.0
 10
-10.35988
 20
5.48194
 30
0.0
 10
-10.50196
 20
5.59523
 30
0.0
 10
-10.55244
 20
5.79036
 30
0.0
 10
-10.48291
 20
5.9589
 30
0.0
 10
-10.48291
 20
5.9589
 30
0.0
 10
-10.6837
 20
5.98557
 30
0.0
 10
-10.83896
 20
6.15726
 30
0.0
 10
-10.83896
 20
6.3658
 30
0.0
 10
-10.83896
 20
6.3658
 30
0.0
 10
-10.83896
 20
6.57432
 30
0.0
 10
-10.6837
 20
6.74651
 30
0.0
 10
-10.48291
 20
6.77289
 30
0.0
 10
-10.48291
 20
6.77289
 30
0.0
 10
-10.56017
 20
6.96032
 30
0.0
 10
-10.48902
 20
7.18051
 30
0.0
 10
-10.30889
 20
7.28457
 30
0.0
 10
-10.30889
 20
7.28457
 30
0.0
 10
-10.48904
 20
7.38863
 30
0.0
 10
-10.56016
 20
7.60882
 30
0.0
 10
-10.48291
 20
7.79627
 30
0.0
 10
-10.48291
 20
7.79627
 30
0.0
 10
-10.6837
 20
7.82262
 30
0.0
 10
-10.83896
 20
7.99481
 30
0.0
 10
-10.83896
 20
8.20333
 30
0.0
 10
-10.83896
 20
8.20333
 30
0.0
 10
-10.83896
 20
8.4119
 30
0.0
 10
-10.6837
 20
8.58359
 30
0.0
 10
-10.48291
 20
8.61023
 30
0.0
 10
-10.48291
 20
8.61023
 30
0.0
 10
-10.55244
 20
8.77877
 30
0.0
 10
-10.50196
 20
8.9739
 30
0.0
 10
-10.35988
 20
9.08719
 30
0.0
 10
-10.35988
 20
9.08719
 30
0.0
 10
-10.35988
 20
9.08719
 30
0.0
 10
-10.3485
 20
9.09634
 30
0.0
 10
-10.3485
 20
9.09634
 30
0.0
 10
-10.3485
 20
9.09634
 30
0.0
 10
-10.49913
 20
9.20805
 30
0.0
 10
-10.55416
 20
9.40895
 30
0.0
 10
-10.48291
 20
9.58201
 30
0.0
 10
-10.48291
 20
9.58201
 30
0.0
 10
-10.6838
 20
9.60837
 30
0.0
 10
-10.83905
 20
9.78051
 30
0.0
 10
-10.83905
 20
9.98908
 30
0.0
 10
-10.83905
 20
9.98908
 30
0.0
 10
-10.83905
 20
10.15677
 30
0.0
 10
-10.73864
 20
10.30065
 30
0.0
 10
-10.59487
 20
10.36444
 30
0.0
 10
-10.59487
 20
10.36444
 30
0.0
 10
-10.59487
 20
10.36444
 30
0.0
 10
-10.59405
 20
10.35484
 30
0.0
 10
-10.59405
 20
10.35484
 30
0.0
 10
-10.59405
 20
10.35484
 30
0.0
 10
-10.56735
 20
10.55563
 30
0.0
 10
-10.39564
 20
10.71089
 30
0.0
 10
-10.18715
 20
10.71089
 30
0.0
 10
-10.18715
 20
10.71089
 30
0.0
 10
-9.97861
 20
10.71089
 30
0.0
 10
-9.80639
 20
10.55563
 30
0.0
 10
-9.78009
 20
10.35484
 30
0.0
 10
-9.78009
 20
10.35484
 30
0.0
 10
-9.607
 20
10.42609
 30
0.0
 10
-9.4061
 20
10.37106
 30
0.0
 10
-9.29439
 20
10.22043
 30
0.0
 10
-9.29439
 20
10.22043
 30
0.0
 10
-9.29439
 20
10.22043
 30
0.0
 10
-9.28526
 20
10.23181
 30
0.0
 10
-9.28526
 20
10.23181
 30
0.0
 10
-9.28526
 20
10.23181
 30
0.0
 10
-9.17197
 20
10.37389
 30
0.0
 10
-8.97684
 20
10.42437
 30
0.0
 10
-8.80827
 20
10.35484
 30
0.0
 10
-8.80827
 20
10.35484
 30
0.0
 10
-8.78163
 20
10.55563
 30
0.0
 10
-8.60991
 20
10.71089
 30
0.0
 10
-8.40139
 20
10.71089
 30
0.0
 10
-8.40139
 20
10.71089
 30
0.0
 10
-8.19285
 20
10.71089
 30
0.0
 10
-8.02065
 20
10.55563
 30
0.0
 10
-7.9943
 20
10.35484
 30
0.0
 10
-7.9943
 20
10.35484
 30
0.0
 10
-7.80682
 20
10.4321
 30
0.0
 10
-7.58663
 20
10.36095
 30
0.0
 10
-7.4826
 20
10.18082
 30
0.0
 10
-7.4826
 20
10.18082
 30
0.0
 10
-7.37854
 20
10.36097
 30
0.0
 10
-7.15835
 20
10.43209
 30
0.0
 10
-6.97092
 20
10.35484
 30
0.0
 10
-6.97092
 20
10.35484
 30
0.0
 10
-6.94451
 20
10.55563
 30
0.0
 10
-6.77238
 20
10.71089
 30
0.0
 10
-6.56383
 20
10.71089
 30
0.0
 10
-6.56383
 20
10.71089
 30
0.0
 10
-6.35526
 20
10.71089
 30
0.0
 10
-6.1836
 20
10.55563
 30
0.0
 10
-6.15695
 20
10.35484
 30
0.0
 10
-6.15695
 20
10.35484
 30
0.0
 10
-5.98838
 20
10.42437
 30
0.0
 10
-5.79325
 20
10.37389
 30
0.0
 10
-5.67996
 20
10.23181
 30
0.0
 10
-5.67996
 20
10.23181
 30
0.0
 10
-5.67996
 20
10.23181
 30
0.0
 10
-5.67083
 20
10.22043
 30
0.0
 10
-5.67083
 20
10.22043
 30
0.0
 10
-5.67083
 20
10.22043
 30
0.0
 10
-5.5591
 20
10.37106
 30
0.0
 10
-5.35822
 20
10.42609
 30
0.0
 10
-5.18513
 20
10.35484
 30
0.0
 10
-5.18513
 20
10.35484
 30
0.0
 10
-5.15878
 20
10.55563
 30
0.0
 10
-4.98661
 20
10.71089
 30
0.0
 10
-4.77807
 20
10.71089
 30
0.0
 10
-4.77807
 20
10.71089
 30
0.0
 10
-4.56953
 20
10.71089
 30
0.0
 10
-4.39786
 20
10.55563
 30
0.0
 10
-4.37117
 20
10.35484
 30
0.0
 10
-4.37117
 20
10.35484
 30
0.0
 10
-4.18384
 20
10.4321
 30
0.0
 10
-3.96355
 20
10.36103
 30
0.0
 10
-3.85941
 20
10.18082
 30
0.0
 10
-3.85941
 20
10.18082
 30
0.0
 10
-3.85941
 20
10.18082
 30
0.0
 10
-3.80356
 20
10.09689
 30
0.0
 10
-3.80356
 20
10.09689
 30
0.0
 10
-3.80356
 20
10.09689
 30
0.0
 10
-3.80356
 20
10.09689
 30
0.0
 10
-3.74325
 20
10.0969
 30
0.0
 10
-3.74325
 20
10.0969
 30
0.0
 10
-3.74325
 20
10.0969
 30
0.0
 10
-3.74325
 20
10.0969
 30
0.0
 10
-3.68742
 20
10.18083
 30
0.0
 10
-3.68742
 20
10.18083
 30
0.0
 10
-3.68742
 20
10.18083
 30
0.0
 10
-3.58325
 20
10.36106
 30
0.0
 10
-3.36299
 20
10.4321
 30
0.0
 10
-3.17566
 20
10.35485
 30
0.0
 10
-3.17566
 20
10.35485
 30
0.0
 10
-3.14896
 20
10.55564
 30
0.0
 10
-2.97728
 20
10.7109
 30
0.0
 10
-2.76876
 20
10.7109
 30
0.0
 10
-2.76876
 20
10.7109
 30
0.0
 10
-2.56019
 20
10.7109
 30
0.0
 10
-2.38802
 20
10.55564
 30
0.0
 10
-2.3617
 20
10.35485
 30
0.0
 10
-2.3617
 20
10.35485
 30
0.0
 10
-2.18861
 20
10.4261
 30
0.0
 10
-1.98771
 20
10.37107
 30
0.0
 10
-1.876
 20
10.22044
 30
0.0
 10
-1.876
 20
10.22044
 30
0.0
 10
-1.876
 20
10.22044
 30
0.0
 10
-1.86685
 20
10.23182
 30
0.0
 10
-1.86685
 20
10.23182
 30
0.0
 10
-1.86685
 20
10.23182
 30
0.0
 10
-1.75358
 20
10.3739
 30
0.0
 10
-1.55845
 20
10.42438
 30
0.0
 10
-1.38989
 20
10.35485
 30
0.0
 10
-1.38989
 20
10.35485
 30
0.0
 10
-1.36325
 20
10.55564
 30
0.0
 10
-1.19156
 20
10.7109
 30
0.0
 10
-0.98299
 20
10.7109
 30
0.0
 10
-0.98299
 20
10.7109
 30
0.0
 10
-0.77447
 20
10.7109
 30
0.0
 10
-0.60228
 20
10.55564
 30
0.0
 10
-0.57593
 20
10.35485
 30
0.0
 10
-0.57593
 20
10.35485
 30
0.0
 10
-0.38847
 20
10.43211
 30
0.0
 10
-0.16829
 20
10.36096
 30
0.0
 10
-0.06425
 20
10.18083
 30
0.0
 10
-0.06425
 20
10.18083
 30
0.0
 10
0.03978
 20
10.36098
 30
0.0
 10
0.25997
 20
10.4321
 30
0.0
 10
0.44743
 20
10.35485
 30
0.0
 10
0.44743
 20
10.35485
 30
0.0
 10
0.47381
 20
10.55564
 30
0.0
 10
0.646
 20
10.7109
 30
0.0
 10
0.85452
 20
10.7109
 30
0.0
 10
0.85452
 20
10.7109
 30
0.0
 10
1.06306
 20
10.7109
 30
0.0
 10
1.23475
 20
10.55564
 30
0.0
 10
1.26142
 20
10.35485
 30
0.0
 10
1.26142
 20
10.35485
 30
0.0
 10
1.42996
 20
10.42438
 30
0.0
 10
1.62509
 20
10.3739
 30
0.0
 10
1.73838
 20
10.23182
 30
0.0
 10
1.73838
 20
10.23182
 30
0.0
 10
1.73838
 20
10.23182
 30
0.0
 10
1.74751
 20
10.22044
 30
0.0
 10
1.74751
 20
10.22044
 30
0.0
 10
1.74751
 20
10.22044
 30
0.0
 10
1.85924
 20
10.37107
 30
0.0
 10
2.06014
 20
10.4261
 30
0.0
 10
2.23321
 20
10.35485
 30
0.0
 10
2.23321
 20
10.35485
 30
0.0
 10
2.25954
 20
10.55564
 30
0.0
 10
2.43173
 20
10.7109
 30
0.0
 10
2.6403
 20
10.7109
 30
0.0
 10
2.6403
 20
10.7109
 30
0.0
 10
2.84882
 20
10.7109
 30
0.0
 10
3.02051
 20
10.55564
 30
0.0
 10
3.0472
 20
10.35485
 30
0.0
 10
3.0472
 20
10.35485
 30
0.0
 10
3.2345
 20
10.43211
 30
0.0
 10
3.45479
 20
10.36104
 30
0.0
 10
3.55893
 20
10.18083
 30
0.0
 10
3.55893
 20
10.18083
 30
0.0
 10
3.55893
 20
10.18083
 30
0.0
 10
3.61478
 20
10.0969
 30
0.0
 10
3.61478
 20
10.0969
 30
0.0
 10
3.61478
 20
10.0969
 30
0.0
 10
3.61478
 20
10.0969
 30
0.0
 10
3.67063
 20
10.18083
 30
0.0
 10
3.67063
 20
10.18083
 30
0.0
 10
3.67063
 20
10.18083
 30
0.0
 10
3.77477
 20
10.36106
 30
0.0
 10
3.99506
 20
10.4321
 30
0.0
 10
4.18239
 20
10.35485
 30
0.0
 10
4.18239
 20
10.35485
 30
0.0
 10
4.20906
 20
10.55564
 30
0.0
 10
4.38075
 20
10.7109
 30
0.0
 10
4.58927
 20
10.7109
 30
0.0
 10
4.58927
 20
10.7109
 30
0.0
 10
4.79784
 20
10.7109
 30
0.0
 10
4.97003
 20
10.55564
 30
0.0
 10
4.99636
 20
10.35485
 30
0.0
 10
4.99636
 20
10.35485
 30
0.0
 10
5.16945
 20
10.4261
 30
0.0
 10
5.37035
 20
10.37107
 30
0.0
 10
5.48206
 20
10.22044
 30
0.0
 10
5.48206
 20
10.22044
 30
0.0
 10
5.48206
 20
10.22044
 30
0.0
 10
5.49119
 20
10.23182
 30
0.0
 10
5.49119
 20
10.23182
 30
0.0
 10
5.49119
 20
10.23182
 30
0.0
 10
5.60448
 20
10.3739
 30
0.0
 10
5.79961
 20
10.42438
 30
0.0
 10
5.96815
 20
10.35485
 30
0.0
 10
5.96815
 20
10.35485
 30
0.0
 10
5.99482
 20
10.55564
 30
0.0
 10
6.16651
 20
10.7109
 30
0.0
 10
6.37505
 20
10.7109
 30
0.0
 10
6.37505
 20
10.7109
 30
0.0
 10
6.58357
 20
10.7109
 30
0.0
 10
6.75576
 20
10.55564
 30
0.0
 10
6.78214
 20
10.35485
 30
0.0
 10
6.78214
 20
10.35485
 30
0.0
 10
6.96957
 20
10.43211
 30
0.0
 10
7.18976
 20
10.36096
 30
0.0
 10
7.29382
 20
10.18083
 30
0.0
 10
7.29382
 20
10.18083
 30
0.0
 10
7.39788
 20
10.36098
 30
0.0
 10
7.61807
 20
10.4321
 30
0.0
 10
7.80552
 20
10.35485
 30
0.0
 10
7.80552
 20
10.35485
 30
0.0
 10
7.83187
 20
10.55564
 30
0.0
 10
8.00406
 20
10.7109
 30
0.0
 10
8.21258
 20
10.7109
 30
0.0
 10
8.21258
 20
10.7109
 30
0.0
 10
8.42115
 20
10.7109
 30
0.0
 10
8.59284
 20
10.55564
 30
0.0
 10
8.61948
 20
10.35485
 30
0.0
 10
8.61948
 20
10.35485
 30
0.0
 10
8.78802
 20
10.42438
 30
0.0
 10
8.98315
 20
10.3739
 30
0.0
 10
9.09644
 20
10.23182
 30
0.0
 10
9.09644
 20
10.23182
 30
0.0
 10
9.09644
 20
10.23182
 30
0.0
 10
9.10559
 20
10.22044
 30
0.0
 10
9.10559
 20
10.22044
 30
0.0
 10
9.10559
 20
10.22044
 30
0.0
 10
9.2173
 20
10.37107
 30
0.0
 10
9.4182
 20
10.4261
 30
0.0
 10
9.59126
 20
10.35485
 30
0.0
 10
9.59126
 20
10.35485
 30
0.0
 10
9.61761
 20
10.55564
 30
0.0
 10
9.78978
 20
10.7109
 30
0.0
 10
9.99835
 20
10.7109
 30
0.0
 10
9.99835
 20
10.7109
 30
0.0
 10
10.20687
 20
10.7109
 30
0.0
 10
10.37856
 20
10.55564
 30
0.0
 10
10.40525
 20
10.35485
 30
0.0
 10
10.40525
 20
10.35485
 30
0.0
 10
10.40525
 20
10.35485
 30
0.0
 10
10.38392
 20
10.35284
 30
0.0
 10
10.38392
 20
10.35284
 30
0.0
 10
10.38392
 20
10.35284
 30
0.0
 10
10.58471
 20
10.32614
 30
0.0
 10
10.73997
 20
10.15443
 30
0.0
 10
10.73997
 20
9.94594
 30
0.0
 10
10.73997
 20
9.94594
 30
0.0
 10
10.73997
 20
9.7374
 30
0.0
 10
10.58471
 20
9.56518
 30
0.0
 10
10.38392
 20
9.53888
 30
0.0
 10
10.38392
 20
9.53888
 30
0.0
 10
10.45517
 20
9.36579
 30
0.0
 10
10.40014
 20
9.16489
 30
0.0
 10
10.24951
 20
9.05318
 30
0.0
 10
10.24951
 20
9.05318
 30
0.0
 10
10.24951
 20
9.05318
 30
0.0
 10
10.26089
 20
9.04405
 30
0.0
 10
10.26089
 20
9.04405
 30
0.0
 10
10.26089
 20
9.04405
 30
0.0
 10
10.40297
 20
8.93076
 30
0.0
 10
10.45345
 20
8.73563
 30
0.0
 10
10.38392
 20
8.56706
 30
0.0
 10
10.38392
 20
8.56706
 30
0.0
 10
10.58471
 20
8.54042
 30
0.0
 10
10.73997
 20
8.3687
 30
0.0
 10
10.73997
 20
8.16018
 30
0.0
 10
10.73997
 20
8.16018
 30
0.0
 10
10.73997
 20
7.95164
 30
0.0
 10
10.58471
 20
7.77944
 30
0.0
 10
10.38392
 20
7.75309
 30
0.0
 10
10.38392
 20
7.75309
 30
0.0
 10
10.46118
 20
7.56561
 30
0.0
 10
10.39003
 20
7.34542
 30
0.0
 10
10.2099
 20
7.24139
 30
0.0
 10
10.2099
 20
7.24139
 30
0.0
 10
10.39005
 20
7.13733
 30
0.0
 10
10.46117
 20
6.91714
 30
0.0
 10
10.38392
 20
6.72971
 30
0.0
 10
10.38392
 20
6.72971
 30
0.0
 10
10.58471
 20
6.7033
 30
0.0
 10
10.73997
 20
6.53117
 30
0.0
 10
10.73997
 20
6.32262
 30
0.0
 10
10.73997
 20
6.32262
 30
0.0
 10
10.73997
 20
6.11405
 30
0.0
 10
10.58471
 20
5.94239
 30
0.0
 10
10.38392
 20
5.91574
 30
0.0
 10
10.38392
 20
5.91574
 30
0.0
 10
10.45345
 20
5.74717
 30
0.0
 10
10.40297
 20
5.55204
 30
0.0
 10
10.26089
 20
5.43875
 30
0.0
 10
10.26089
 20
5.43875
 30
0.0
 10
10.26089
 20
5.43875
 30
0.0
 10
10.24951
 20
5.42962
 30
0.0
 10
10.24951
 20
5.42962
 30
0.0
 10
10.24951
 20
5.42962
 30
0.0
 10
10.40014
 20
5.31789
 30
0.0
 10
10.45517
 20
5.11701
 30
0.0
 10
10.38392
 20
4.94392
 30
0.0
 10
10.38392
 20
4.94392
 30
0.0
 10
10.58471
 20
4.91757
 30
0.0
 10
10.73997
 20
4.7454
 30
0.0
 10
10.73997
 20
4.53686
 30
0.0
 10
10.73997
 20
4.53686
 30
0.0
 10
10.73997
 20
4.32832
 30
0.0
 10
10.58471
 20
4.15665
 30
0.0
 10
10.38392
 20
4.12996
 30
0.0
 10
10.38392
 20
4.12996
 30
0.0
 10
10.46118
 20
3.94263
 30
0.0
 10
10.39011
 20
3.72234
 30
0.0
 10
10.2099
 20
3.6182
 30
0.0
 10
10.2099
 20
3.6182
 30
0.0
 10
10.2099
 20
3.6182
 30
0.0
 10
10.12597
 20
3.56235
 30
0.0
 10
10.12597
 20
3.56235
 30
0.0
 10
10.12597
 20
3.56235
 30
0.0
 10
10.12597
 20
3.56235
 30
0.0
 10
10.12597
 20
3.50202
 30
0.0
 10
10.12597
 20
3.50202
 30
0.0
 10
10.12597
 20
3.50202
 30
0.0
 10
10.12597
 20
3.50202
 30
0.0
 10
10.2099
 20
3.44619
 30
0.0
 10
10.2099
 20
3.44619
 30
0.0
 10
10.2099
 20
3.44619
 30
0.0
 10
10.39013
 20
3.34202
 30
0.0
 10
10.46117
 20
3.12176
 30
0.0
 10
10.38392
 20
2.93443
 30
0.0
 10
10.38392
 20
2.93443
 30
0.0
 10
10.58471
 20
2.90773
 30
0.0
 10
10.73997
 20
2.73605
 30
0.0
 10
10.73997
 20
2.52753
 30
0.0
 10
10.73997
 20
2.52753
 30
0.0
 10
10.73997
 20
2.31896
 30
0.0
 10
10.58471
 20
2.14679
 30
0.0
 10
10.38392
 20
2.12047
 30
0.0
 10
10.38392
 20
2.12047
 30
0.0
 10
10.45517
 20
1.94738
 30
0.0
 10
10.40014
 20
1.74648
 30
0.0
 10
10.24951
 20
1.63477
 30
0.0
 10
10.24951
 20
1.63477
 30
0.0
 10
10.24951
 20
1.63477
 30
0.0
 10
10.26089
 20
1.62562
 30
0.0
 10
10.26089
 20
1.62562
 30
0.0
 10
10.26089
 20
1.62562
 30
0.0
 10
10.40297
 20
1.51235
 30
0.0
 10
10.45345
 20
1.31722
 30
0.0
 10
10.38392
 20
1.14866
 30
0.0
 10
10.38392
 20
1.14866
 30
0.0
 10
10.58471
 20
1.12202
 30
0.0
 10
10.73997
 20
0.95033
 30
0.0
 10
10.73997
 20
0.74176
 30
0.0
 10
10.73997
 20
0.74176
 30
0.0
 10
10.73997
 20
0.53324
 30
0.0
 10
10.58471
 20
0.36105
 30
0.0
 10
10.38392
 20
0.3347
 30
0.0
 10
10.38392
 20
0.3347
 30
0.0
 10
10.46118
 20
0.14724
 30
0.0
 10
10.39003
 20
-0.07297
 30
0.0
 10
10.2099
 20
-0.17698
 30
0.0
 10
10.2099
 20
-0.17698
 30
0.0
 10
10.39005
 20
-0.28107
 30
0.0
 10
10.46117
 20
-0.50125
 30
0.0
 10
10.38392
 20
-0.68868
 30
0.0
 10
10.38392
 20
-0.68868
 30
0.0
 10
10.58471
 20
-0.71503
 30
0.0
 10
10.73997
 20
-0.88722
 30
0.0
 10
10.73997
 20
-1.09574
 30
0.0
 10
10.73997
 20
-1.09574
 30
0.0
 10
10.73997
 20
-1.30431
 30
0.0
 10
10.58471
 20
-1.47597
 30
0.0
 10
10.38392
 20
-1.50264
 30
0.0
 10
10.38392
 20
-1.50264
 30
0.0
 10
10.45345
 20
-1.67121
 30
0.0
 10
10.40297
 20
-1.86634
 30
0.0
 10
10.26089
 20
-1.9796
 30
0.0
 10
10.26089
 20
-1.9796
 30
0.0
 10
10.26089
 20
-1.9796
 30
0.0
 10
10.24951
 20
-1.98875
 30
0.0
 10
10.24951
 20
-1.98875
 30
0.0
 10
10.24951
 20
-1.98875
 30
0.0
 10
10.40014
 20
-2.10048
 30
0.0
 10
10.45517
 20
-2.30138
 30
0.0
 10
10.38392
 20
-2.47445
 30
0.0
 10
10.38392
 20
-2.47445
 30
0.0
 10
10.58471
 20
-2.50075
 30
0.0
 10
10.73997
 20
-2.67294
 30
0.0
 10
10.73997
 20
-2.88151
 30
0.0
 10
10.73997
 20
-2.88151
 30
0.0
 10
10.73997
 20
-3.09003
 30
0.0
 10
10.58471
 20
-3.26174
 30
0.0
 10
10.38392
 20
-3.28841
 30
0.0
 10
10.38392
 20
-3.28841
 30
0.0
 10
10.46118
 20
-3.47574
 30
0.0
 10
10.39011
 20
-3.69603
 30
0.0
 10
10.2099
 20
-3.80017
 30
0.0
 10
10.2099
 20
-3.80017
 30
0.0
 10
10.2099
 20
-3.80017
 30
0.0
 10
10.12597
 20
-3.85602
 30
0.0
 10
10.12597
 20
-3.85602
 30
0.0
 10
10.12597
 20
-3.85602
 30
0.0
 10
10.12597
 20
-3.85602
 30
0.0
 10
10.2099
 20
-3.91187
 30
0.0
 10
10.2099
 20
-3.91187
 30
0.0
 10
10.2099
 20
-3.91187
 30
0.0
 10
10.39013
 20
-4.01601
 30
0.0
 10
10.46117
 20
-4.2363
 30
0.0
 10
10.38392
 20
-4.42363
 30
0.0
 10
10.38392
 20
-4.42363
 30
0.0
 10
10.58471
 20
-4.4503
 30
0.0
 10
10.73997
 20
-4.62196
 30
0.0
 10
10.73997
 20
-4.83048
 30
0.0
 10
10.73997
 20
-4.83048
 30
0.0
 10
10.73997
 20
-5.03905
 30
0.0
 10
10.58471
 20
-5.21124
 30
0.0
 10
10.38392
 20
-5.23759
 30
0.0
 10
10.38392
 20
-5.23759
 30
0.0
 10
10.45517
 20
-5.41065
 30
0.0
 10
10.40014
 20
-5.61158
 30
0.0
 10
10.24951
 20
-5.72329
 30
0.0
 10
10.24951
 20
-5.72329
 30
0.0
 10
10.24951
 20
-5.72329
 30
0.0
 10
10.26089
 20
-5.73239
 30
0.0
 10
10.26089
 20
-5.73239
 30
0.0
 10
10.26089
 20
-5.73239
 30
0.0
 10
10.40297
 20
-5.84571
 30
0.0
 10
10.45345
 20
-6.04084
 30
0.0
 10
10.38392
 20
-6.20935
 30
0.0
 10
10.38392
 20
-6.20935
 30
0.0
 10
10.58471
 20
-6.23602
 30
0.0
 10
10.73997
 20
-6.40773
 30
0.0
 10
10.73997
 20
-6.61625
 30
0.0
 10
10.73997
 20
-6.61625
 30
0.0
 10
10.73997
 20
-6.82477
 30
0.0
 10
10.58471
 20
-6.99696
 30
0.0
 10
10.38392
 20
-7.02336
 30
0.0
 10
10.38392
 20
-7.02336
 30
0.0
 10
10.46118
 20
-7.21079
 30
0.0
 10
10.39003
 20
-7.43098
 30
0.0
 10
10.2099
 20
-7.53501
 30
0.0
 10
10.2099
 20
-7.53501
 30
0.0
 10
10.39005
 20
-7.6391
 30
0.0
 10
10.46117
 20
-7.85928
 30
0.0
 10
10.38392
 20
-8.04671
 30
0.0
 10
10.38392
 20
-8.04671
 30
0.0
 10
10.58471
 20
-8.07306
 30
0.0
 10
10.73997
 20
-8.24525
 30
0.0
 10
10.73997
 20
-8.45377
 30
0.0
 10
10.73997
 20
-8.45377
 30
0.0
 10
10.73997
 20
-8.66234
 30
0.0
 10
10.58471
 20
-8.83406
 30
0.0
 10
10.38392
 20
-8.86067
 30
0.0
 10
10.38392
 20
-8.86067
 30
0.0
 10
10.45345
 20
-9.02924
 30
0.0
 10
10.40297
 20
-9.22437
 30
0.0
 10
10.26089
 20
-9.33763
 30
0.0
 10
10.26089
 20
-9.33763
 30
0.0
 10
10.26089
 20
-9.33763
 30
0.0
 10
10.24951
 20
-9.34678
 30
0.0
 10
10.24951
 20
-9.34678
 30
0.0
 10
10.24951
 20
-9.34678
 30
0.0
 10
10.40014
 20
-9.45851
 30
0.0
 10
10.45517
 20
-9.65941
 30
0.0
 10
10.38392
 20
-9.83248
 30
0.0
 10
10.38392
 20
-9.83248
 30
0.0
 10
10.58471
 20
-9.85883
 30
0.0
 10
10.73997
 20
-10.03097
 30
0.0
 10
10.73997
 20
-10.23954
 30
0.0
 10
10.73997
 20
-10.23954
 30
0.0
 10
10.73997
 20
-10.40723
 30
0.0
 10
10.63956
 20
-10.55109
 30
0.0
 10
10.49579
 20
-10.61493
 30
0.0
 10
10.49579
 20
-10.61493
 30
0.0
 10
10.49579
 20
-10.61493
 30
0.0
 10
10.49499
 20
-10.60535
 30
0.0
 10
10.49499
 20
-10.60535
 30
0.0
  0
ENDSEC
  0
SECTION
  2
OBJECTS
  0
DICTIONARY
  5
C
330
0
100
AcDbDictionary
281
     1
  3
ACAD_GROUP
350
D
  3
ACAD_LAYOUT
350
1A
  3
ACAD_MATERIAL
350
3B
  3
ACAD_MLEADERSTYLE
350
63
  3
ACAD_MLINESTYLE
350
17
  3
ACAD_PLOTSETTINGS
350
19
  3
ACAD_PLOTSTYLENAME
350
E
  3
ACAD_TABLESTYLE
350
62
  3
ACAD_VISUALSTYLE
350
2A
  0
DICTIONARY
  5
D
102
{ACAD_REACTORS
330
C
102
}
330
C
100
AcDbDictionary
281
     1
  0
DICTIONARY
  5
1A
102
{ACAD_REACTORS
330
C
102
}
330
C
100
AcDbDictionary
281
     1
  3
Layout1
350
1E
  3
Layout2
350
26
  3
Model
350
22
  0
DICTIONARY
  5
3B
102
{ACAD_REACTORS
330
C
102
}
330
C
100
AcDbDictionary
281
     1
  3
ByBlock
350
3D
  3
ByLayer
350
3C
  3
Global
350
3E
  0
DICTIONARY
  5
63
102
{ACAD_REACTORS
330
C
102
}
330
C
100
AcDbDictionary
281
     1
  0
DICTIONARY
  5
17
102
{ACAD_REACTORS
330
C
102
}
330
C
100
AcDbDictionary
281
     1
  3
Standard
350
18
  0
DICTIONARY
  5
19
102
{ACAD_REACTORS
330
C
102
}
330
C
100
AcDbDictionary
281
     1
  0
ACDBDICTIONARYWDFLT
  5
E
102
{ACAD_REACTORS
330
C
102
}
330
C
100
AcDbDictionary
281
     1
  3
Normal
350
F
100
AcDbDictionaryWithDefault
340
F
  0
DICTIONARY
  5
62
102
{ACAD_REACTORS
330
C
102
}
330
C
100
AcDbDictionary
281
     1
  0
DICTIONARY
  5
2A
102
{ACAD_REACTORS
330
C
102
}
330
C
100
AcDbDictionary
281
     1
  3
2dWireframe
350
2F
  3
3D Hidden
350
31
  3
3dWireframe
350
30
  3
Basic
350
32
  3
Brighten
350
36
  3
ColorChange
350
3A
  3
Conceptual
350
34
  3
Dim
350
35
  3
Facepattern
350
39
  3
Flat
350
2B
  3
FlatWithEdges
350
2C
  3
Gouraud
350
2D
  3
GouraudWithEdges
350
2E
  3
Linepattern
350
38
  3
Realistic
350
33
  3
Thicken
350
37
  0
LAYOUT
  5
1E
102
{ACAD_REACTORS
330
1A
102
}
330
1A
100
AcDbPlotSettings
  1

  2
none_device
  4

  6

 40
0.0
 41
0.0
 42
0.0
 43
0.0
 44
0.0
 45
0.0
 46
0.0
 47
0.0
 48
0.0
 49
0.0
140
0.0
141
0.0
142
1.0
143
1.0
 70
   688
 72
     0
 73
     0
 74
     5
  7

 75
    16
 76
     0
 77
     2
 78
   300
147
1.0
148
0.0
149
0.0
100
AcDbLayout
  1
Layout1
 70
     1
 71
     1
 10
0.0
 20
0.0
 11
12.0
 21
9.0
 12
0.0
 22
0.0
 32
0.0
 14
1.000000000000000E+20
 24
1.000000000000000E+20
 34
1.000000000000000E+20
 15
-1.000000000000000E+20
 25
-1.000000000000000E+20
 35
-1.000000000000000E+20
146
0.0
 13
0.0
 23
0.0
 33
0.0
 16
1.0
 26
0.0
 36
0.0
 17
0.0
 27
1.0
 37
0.0
 76
     0
330
1B
  0
LAYOUT
  5
26
102
{ACAD_REACTORS
330
1A
102
}
330
1A
100
AcDbPlotSettings
  1

  2
none_device
  4

  6

 40
0.0
 41
0.0
 42
0.0
 43
0.0
 44
0.0
 45
0.0
 46
0.0
 47
0.0
 48
0.0
 49
0.0
140
0.0
141
0.0
142
1.0
143
1.0
 70
   688
 72
     0
 73
     0
 74
     5
  7

 75
    16
 76
     0
 77
     2
 78
   300
147
1.0
148
0.0
149
0.0
100
AcDbLayout
  1
Layout2
 70
     1
 71
     2
 10
0.0
 20
0.0
 11
0.0
 21
0.0
 12
0.0
 22
0.0
 32
0.0
 14
0.0
 24
0.0
 34
0.0
 15
0.0
 25
0.0
 35
0.0
146
0.0
 13
0.0
 23
0.0
 33
0.0
 16
1.0
 26
0.0
 36
0.0
 17
0.0
 27
1.0
 37
0.0
 76
     0
330
23
  0
LAYOUT
  5
22
102
{ACAD_REACTORS
330
1A
102
}
330
1A
100
AcDbPlotSettings
  1

  2
none_device
  4

  6

 40
0.0
 41
0.0
 42
0.0
 43
0.0
 44
0.0
 45
0.0
 46
0.0
 47
0.0
 48
0.0
 49
0.0
140
0.0
141
0.0
142
1.0
143
1.0
 70
  1712
 72
     0
 73
     0
 74
     0
  7

 75
     0
 76
     0
 77
     2
 78
   300
147
1.0
148
0.0
149
0.0
100
AcDbLayout
  1
Model
 70
     1
 71
     0
 10
0.0
 20
0.0
 11
12.0
 21
9.0
 12
0.0
 22
0.0
 32
0.0
 14
-10.83905
 24
-10.9614
 34
0.0
 15
10.73997
 25
10.7109
 35
0.0
146
0.0
 13
0.0
 23
0.0
 33
0.0
 16
1.0
 26
0.0
 36
0.0
 17
0.0
 27
1.0
 37
0.0
 76
     0
330
1F
331
29
  0
MATERIAL
  5
3D
102
{ACAD_REACTORS
330
3B
102
}
330
3B
100
AcDbMaterial
  1
ByBlock
 72
     1
 94
      127
  0
MATERIAL
  5
3C
102
{ACAD_REACTORS
330
3B
102
}
330
3B
100
AcDbMaterial
  1
ByLayer
 72
     1
 94
      127
  0
MATERIAL
  5
3E
102
{ACAD_REACTORS
330
3B
102
}
330
3B
100
AcDbMaterial
  1
Global
 72
     1
 94
      127
  0
MLINESTYLE
  5
18
102
{ACAD_REACTORS
330
17
102
}
330
17
100
AcDbMlineStyle
  2
Standard
 70
     0
  3

 62
   256
 51
90.0
 52
90.0
 71
     2
 49
0.5
 62
   256
  6
BYLAYER
 49
-0.5
 62
   256
  6
BYLAYER
  0
ACDBPLACEHOLDER
  5
F
102
{ACAD_REACTORS
330
E
102
}
330
E
  0
VISUALSTYLE
  5
2F
102
{ACAD_REACTORS
330
2A
102
}
102
{ACAD_XDICTIONARY
360
4A
102
}
330
2A
100
AcDbVisualStyle
  2
2dWireframe
 70
     4
 71
     0
 72
     2
 73
     0
 90
        0
 40
-0.6
 41
-30.0
 62
     5
 63
     7
421
 16777215
 74
     1
 91
        4
 64
     7
 65
   257
 75
     1
175
     1
 42
1.0
 92
        0
 66
   257
 43
1.0
 76
     1
 77
     6
 78
     2
 67
     7
 79
     5
170
     0
171
     0
290
     0
174
     0
 93
        1
 44
0.0
173
     0
291
     0
 45
0.0
  0
VISUALSTYLE
  5
31
102
{ACAD_REACTORS
330
2A
102
}
102
{ACAD_XDICTIONARY
360
4E
102
}
330
2A
100
AcDbVisualStyle
  2
3D Hidden
 70
     6
 71
     1
 72
     2
 73
     2
 90
        0
 40
-0.6
 41
-30.0
 62
     5
 63
     7
421
 16777215
 74
     2
 91
        2
 64
     7
 65
   257
 75
     2
175
     1
 42
40.0
 92
        0
 66
   257
 43
1.0
 76
     1
 77
     6
 78
     2
 67
     7
 79
     3
170
     0
171
     0
290
     0
174
     0
 93
        1
 44
0.0
173
     0
291
     0
 45
0.0
  0
VISUALSTYLE
  5
30
102
{ACAD_REACTORS
330
2A
102
}
102
{ACAD_XDICTIONARY
360
4C
102
}
330
2A
100
AcDbVisualStyle
  2
3dWireframe
 70
     5
 71
     0
 72
     2
 73
     0
 90
        0
 40
-0.6
 41
-30.0
 62
     5
 63
     7
421
 16777215
 74
     1
 91
        4
 64
     7
 65
   257
 75
     1
175
     1
 42
1.0
 92
        0
 66
   257
 43
1.0
 76
     1
 77
     6
 78
     2
 67
     7
 79
     5
170
     0
171
     0
290
     0
174
     0
 93
        1
 44
0.0
173
     0
291
     0
 45
0.0
  0
VISUALSTYLE
  5
32
102
{ACAD_REACTORS
330
2A
102
}
102
{ACAD_XDICTIONARY
360
50
102
}
330
2A
100
AcDbVisualStyle
  2
Basic
 70
     7
 71
     1
 72
     0
 73
     1
 90
        0
 40
-0.6
 41
-30.0
 62
     5
 63
     7
421
 16777215
 74
     0
 91
        4
 64
     7
 65
   257
 75
     1
175
     1
 42
1.0
 92
        8
 66
     7
 43
1.0
 76
     1
 77
     6
 78
     2
 67
     7
 79
     5
170
     0
171
     0
290
     0
174
     0
 93
        1
 44
0.0
173
     0
291
     1
 45
0.0
  0
VISUALSTYLE
  5
36
102
{ACAD_REACTORS
330
2A
102
}
102
{ACAD_XDICTIONARY
360
58
102
}
330
2A
100
AcDbVisualStyle
  2
Brighten
 70
    12
 71
     2
 72
     2
 73
     0
 90
        0
 40
-0.6
 41
-30.0
 62
     5
 63
     7
421
 16777215
 74
     1
 91
        4
 64
     7
 65
   257
 75
     1
175
     1
 42
1.0
 92
        8
 66
     7
 43
1.0
 76
     1
 77
     6
 78
     2
 67
     7
 79
     5
170
     0
171
     0
290
     0
174
     0
 93
        1
 44
50.0
173
     0
291
     1
 45
0.0
  0
VISUALSTYLE
  5
3A
102
{ACAD_REACTORS
330
2A
102
}
102
{ACAD_XDICTIONARY
360
60
102
}
330
2A
100
AcDbVisualStyle
  2
ColorChange
 70
    16
 71
     2
 72
     2
 73
     3
 90
        0
 40
-0.6
 41
-30.0
 62
     5
 63
     8
421
  8421504
 74
     1
 91
        4
 64
     7
 65
   257
 75
     1
175
     1
 42
1.0
 92
        8
 66
     8
424
  8421504
 43
1.0
 76
     1
 77
     6
 78
     2
 67
     7
 79
     5
170
     0
171
     0
290
     0
174
     0
 93
        1
 44
0.0
173
     0
291
     1
 45
0.0
  0
VISUALSTYLE
  5
34
102
{ACAD_REACTORS
330
2A
102
}
102
{ACAD_XDICTIONARY
360
54
102
}
330
2A
100
AcDbVisualStyle
  2
Conceptual
 70
     9
 71
     3
 72
     2
 73
     0
 90
        0
 40
-0.6
 41
-30.0
 62
     5
 63
     7
421
 16777215
 74
     2
 91
        2
 64
     7
 65
   257
 75
     1
175
     1
 42
40.0
 92
        8
 66
     7
 43
1.0
 76
     1
 77
     6
 78
     2
 67
     7
 79
     3
170
     0
171
     0
290
     0
174
     0
 93
        1
 44
0.0
173
     0
291
     0
 45
0.0
  0
VISUALSTYLE
  5
35
102
{ACAD_REACTORS
330
2A
102
}
102
{ACAD_XDICTIONARY
360
56
102
}
330
2A
100
AcDbVisualStyle
  2
Dim
 70
    11
 71
     2
 72
     2
 73
     0
 90
        0
 40
-0.6
 41
-30.0
 62
     5
 63
     7
421
 16777215
 74
     1
 91
        4
 64
     7
 65
   257
 75
     1
175
     1
 42
1.0
 92
        8
 66
     7
 43
1.0
 76
     1
 77
     6
 78
     2
 67
     7
 79
     5
170
     0
171
     0
290
     0
174
     0
 93
        1
 44
-50.0
173
     0
291
     1
 45
0.0
  0
VISUALSTYLE
  5
39
102
{ACAD_REACTORS
330
2A
102
}
102
{ACAD_XDICTIONARY
360
5E
102
}
330
2A
100
AcDbVisualStyle
  2
Facepattern
 70
    15
 71
     2
 72
     2
 73
     0
 90
        0
 40
-0.6
 41
-30.0
 62
     5
 63
     7
421
 16777215
 74
     1
 91
        4
 64
     7
 65
   257
 75
     1
175
     1
 42
1.0
 92
        8
 66
     7
 43
1.0
 76
     1
 77
     6
 78
     2
 67
     7
 79
     5
170
     0
171
     0
290
     0
174
     0
 93
        1
 44
0.0
173
     0
291
     1
 45
0.0
  0
VISUALSTYLE
  5
2B
102
{ACAD_REACTORS
330
2A
102
}
102
{ACAD_XDICTIONARY
360
42
102
}
330
2A
100
AcDbVisualStyle
  2
Flat
 70
     0
 71
     2
 72
     1
 73
     1
 90
        2
 40
-0.6
 41
30.0
 62
     5
 63
     7
421
 16777215
 74
     0
 91
        4
 64
     7
 65
   257
 75
     1
175
     1
 42
1.0
 92
        8
 66
     7
 43
1.0
 76
     1
 77
     6
 78
     2
 67
     7
 79
     5
170
     0
171
     0
290
     0
174
     0
 93
       13
 44
0.0
173
     0
291
     1
 45
0.0
  0
VISUALSTYLE
  5
2C
102
{ACAD_REACTORS
330
2A
102
}
102
{ACAD_XDICTIONARY
360
44
102
}
330
2A
100
AcDbVisualStyle
  2
FlatWithEdges
 70
     1
 71
     2
 72
     1
 73
     1
 90
        2
 40
-0.6
 41
30.0
 62
     5
 63
     7
421
 16777215
 74
     1
 91
        4
 64
     7
 65
   257
 75
     1
175
     1
 42
1.0
 92
        0
 66
   257
 43
1.0
 76
     1
 77
     6
 78
     2
 67
     7
 79
     5
170
     0
171
     0
290
     0
174
     0
 93
       13
 44
0.0
173
     0
291
     1
 45
0.0
  0
VISUALSTYLE
  5
2D
102
{ACAD_REACTORS
330
2A
102
}
102
{ACAD_XDICTIONARY
360
46
102
}
330
2A
100
AcDbVisualStyle
  2
Gouraud
 70
     2
 71
     2
 72
     2
 73
     1
 90
        2
 40
-0.6
 41
30.0
 62
     5
 63
     7
421
 16777215
 74
     0
 91
        4
 64
     7
 65
   257
 75
     1
175
     1
 42
1.0
 92
        0
 66
     7
 43
1.0
 76
     1
 77
     6
 78
     2
 67
     7
 79
     5
170
     0
171
     0
290
     0
174
     0
 93
       13
 44
0.0
173
     0
291
     1
 45
0.0
  0
VISUALSTYLE
  5
2E
102
{ACAD_REACTORS
330
2A
102
}
102
{ACAD_XDICTIONARY
360
48
102
}
330
2A
100
AcDbVisualStyle
  2
GouraudWithEdges
 70
     3
 71
     2
 72
     2
 73
     1
 90
        2
 40
-0.6
 41
30.0
 62
     5
 63
     7
421
 16777215
 74
     1
 91
        4
 64
     7
 65
   257
 75
     1
175
     1
 42
1.0
 92
        0
 66
   257
 43
1.0
 76
     1
 77
     6
 78
     2
 67
     7
 79
     5
170
     0
171
     0
290
     0
174
     0
 93
       13
 44
0.0
173
     0
291
     1
 45
0.0
  0
VISUALSTYLE
  5
38
102
{ACAD_REACTORS
330
2A
102
}
102
{ACAD_XDICTIONARY
360
5C
102
}
330
2A
100
AcDbVisualStyle
  2
Linepattern
 70
    14
 71
     2
 72
     2
 73
     0
 90
        0
 40
-0.6
 41
-30.0
 62
     5
 63
     7
421
 16777215
 74
     1
 91
        4
 64
     7
 65
   257
 75
     7
175
     7
 42
1.0
 92
        8
 66
     7
 43
1.0
 76
     1
 77
     6
 78
     2
 67
     7
 79
     5
170
     0
171
     0
290
     0
174
     0
 93
        1
 44
0.0
173
     0
291
     1
 45
0.0
  0
VISUALSTYLE
  5
33
102
{ACAD_REACTORS
330
2A
102
}
102
{ACAD_XDICTIONARY
360
52
102
}
330
2A
100
AcDbVisualStyle
  2
Realistic
 70
     8
 71
     2
 72
     2
 73
     0
 90
        0
 40
-0.6
 41
-30.0
 62
     5
 63
     7
421
 16777215
 74
     1
 91
        0
 64
     7
 65
   257
 75
     1
175
     1
 42
1.0
 92
        8
 66
     8
424
  7895160
 43
1.0
 76
     1
 77
     6
 78
     2
 67
     7
 79
     5
170
     0
171
     0
290
     0
174
     0
 93
       13
 44
0.0
173
     0
291
     0
 45
0.0
  0
VISUALSTYLE
  5
37
102
{ACAD_REACTORS
330
2A
102
}
102
{ACAD_XDICTIONARY
360
5A
102
}
330
2A
100
AcDbVisualStyle
  2
Thicken
 70
    13
 71
     2
 72
     2
 73
     0
 90
        0
 40
-0.6
 41
-30.0
 62
     5
 63
     7
421
 16777215
 74
     1
 91
        4
 64
     7
 65
   257
 75
     1
175
     1
 42
1.0
 92
       12
 66
     7
 43
1.0
 76
     1
 77
     6
 78
     2
 67
     7
 79
     5
170
     0
171
     0
290
     0
174
     0
 93
        1
 44
0.0
173
     0
291
     1
 45
0.0
  0
DICTIONARY
  5
4A
330
2F
100
AcDbDictionary
280
     1
281
     1
  3
ACAD_XREC_ROUNDTRIP
360
4B
  0
DICTIONARY
  5
4E
330
31
100
AcDbDictionary
280
     1
281
     1
  3
ACAD_XREC_ROUNDTRIP
360
4F
  0
DICTIONARY
  5
4C
330
30
100
AcDbDictionary
280
     1
281
     1
  3
ACAD_XREC_ROUNDTRIP
360
4D
  0
DICTIONARY
  5
50
330
32
100
AcDbDictionary
280
     1
281
     1
  3
ACAD_XREC_ROUNDTRIP
360
51
  0
DICTIONARY
  5
58
330
36
100
AcDbDictionary
280
     1
281
     1
  3
ACAD_XREC_ROUNDTRIP
360
59
  0
DICTIONARY
  5
60
330
3A
100
AcDbDictionary
280
     1
281
     1
  3
ACAD_XREC_ROUNDTRIP
360
61
  0
DICTIONARY
  5
54
330
34
100
AcDbDictionary
280
     1
281
     1
  3
ACAD_XREC_ROUNDTRIP
360
55
  0
DICTIONARY
  5
56
330
35
100
AcDbDictionary
280
     1
281
     1
  3
ACAD_XREC_ROUNDTRIP
360
57
  0
DICTIONARY
  5
5E
330
39
100
AcDbDictionary
280
     1
281
     1
  3
ACAD_XREC_ROUNDTRIP
360
5F
  0
DICTIONARY
  5
42
330
2B
100
AcDbDictionary
280
     1
281
     1
  3
ACAD_XREC_ROUNDTRIP
360
43
  0
DICTIONARY
  5
44
330
2C
100
AcDbDictionary
280
     1
281
     1
  3
ACAD_XREC_ROUNDTRIP
360
45
  0
DICTIONARY
  5
46
330
2D
100
AcDbDictionary
280
     1
281
     1
  3
ACAD_XREC_ROUNDTRIP
360
47
  0
DICTIONARY
  5
48
330
2E
100
AcDbDictionary
280
     1
281
     1
  3
ACAD_XREC_ROUNDTRIP
360
49
  0
DICTIONARY
  5
5C
330
38
100
AcDbDictionary
280
     1
281
     1
  3
ACAD_XREC_ROUNDTRIP
360
5D
  0
DICTIONARY
  5
52
330
33
100
AcDbDictionary
280
     1
281
     1
  3
ACAD_XREC_ROUNDTRIP
360
53
  0
DICTIONARY
  5
5A
330
37
100
AcDbDictionary
280
     1
281
     1
  3
ACAD_XREC_ROUNDTRIP
360
5B
  0
XRECORD
  5
4B
102
{ACAD_REACTORS
330
4A
102
}
330
4A
100
AcDbXrecord
280
     1
102
RTVSPropertyOp0
 70
     1
102
RTVSPropertyOp1
 70
     1
102
RTVSPropertyOp2
 70
     1
102
RTVSPropertyOp3
 70
     1
102
RTVSPropertyOp4
 70
     1
102
RTVSPropertyOp5
 70
     1
102
RTVSPropertyOp6
 70
     1
102
RTVSPropertyOp7
 70
     1
102
RTVSPropertyOp8
 70
     1
102
RTVSPropertyOp9
 70
     1
102
RTVSPropertyOp10
 70
     1
102
RTVSPropertyOp11
 70
     1
102
RTVSPropertyOp12
 70
     1
102
RTVSPropertyOp13
 70
     1
102
RTVSPropertyOp14
 70
     1
102
RTVSPropertyOp15
 70
     1
102
RTVSPropertyOp16
 70
     1
102
RTVSPropertyOp17
 70
     1
102
RTVSPropertyOp18
 70
     1
102
RTVSPropertyOp19
 70
     1
102
RTVSPropertyOp20
 70
     1
102
RTVSPropertyOp21
 70
     1
102
RTVSPropertyOp22
 70
     1
102
RTVSPropertyOp23
 70
     1
102
RTVSPropertyOp24
 70
     1
102
RTVSPropertyOp25
 70
     1
102
RTVSPropertyOp26
 70
     1
102
RTVSPropertyOp27
 70
     1
102
RTVSPropertyOp28
 70
     1
102
RTVSPropertyOp29
 70
     1
102
RTVSPropertyOp30
 70
     1
102
RTVSPropertyOp31
 70
     1
102
RTVSPropertyOp32
 70
     1
  0
XRECORD
  5
4F
102
{ACAD_REACTORS
330
4E
102
}
330
4E
100
AcDbXrecord
280
     1
102
RTVSPropertyOp0
 70
     1
102
RTVSPropertyOp1
 70
     1
102
RTVSPropertyOp2
 70
     1
102
RTVSPropertyOp3
 70
     1
102
RTVSPropertyOp4
 70
     1
102
RTVSPropertyOp5
 70
     1
102
RTVSPropertyOp6
 70
     1
102
RTVSPropertyOp7
 70
     1
102
RTVSPropertyOp8
 70
     1
102
RTVSPropertyOp9
 70
     1
102
RTVSPropertyOp10
 70
     1
102
RTVSPropertyOp11
 70
     1
102
RTVSPropertyOp12
 70
     1
102
RTVSPropertyOp13
 70
     1
102
RTVSPropertyOp14
 70
     1
102
RTVSPropertyOp15
 70
     1
102
RTVSPropertyOp16
 70
     1
102
RTVSPropertyOp17
 70
     1
102
RTVSPropertyOp18
 70
     1
102
RTVSPropertyOp19
 70
     1
102
RTVSPropertyOp20
 70
     1
102
RTVSPropertyOp21
 70
     1
102
RTVSPropertyOp22
 70
     1
102
RTVSPropertyOp23
 70
     1
102
RTVSPropertyOp24
 70
     1
102
RTVSPropertyOp25
 70
     1
102
RTVSPropertyOp26
 70
     1
102
RTVSPropertyOp27
 70
     1
102
RTVSPropertyOp28
 70
     1
102
RTVSPropertyOp29
 70
     1
102
RTVSPropertyOp30
 70
     1
102
RTVSPropertyOp31
 70
     1
102
RTVSPropertyOp32
 70
     1
  0
XRECORD
  5
4D
102
{ACAD_REACTORS
330
4C
102
}
330
4C
100
AcDbXrecord
280
     1
102
RTVSPropertyOp0
 70
     1
102
RTVSPropertyOp1
 70
     1
102
RTVSPropertyOp2
 70
     1
102
RTVSPropertyOp3
 70
     1
102
RTVSPropertyOp4
 70
     1
102
RTVSPropertyOp5
 70
     1
102
RTVSPropertyOp6
 70
     1
102
RTVSPropertyOp7
 70
     1
102
RTVSPropertyOp8
 70
     1
102
RTVSPropertyOp9
 70
     1
102
RTVSPropertyOp10
 70
     1
102
RTVSPropertyOp11
 70
     1
102
RTVSPropertyOp12
 70
     1
102
RTVSPropertyOp13
 70
     1
102
RTVSPropertyOp14
 70
     1
102
RTVSPropertyOp15
 70
     1
102
RTVSPropertyOp16
 70
     1
102
RTVSPropertyOp17
 70
     1
102
RTVSPropertyOp18
 70
     1
102
RTVSPropertyOp19
 70
     1
102
RTVSPropertyOp20
 70
     1
102
RTVSPropertyOp21
 70
     1
102
RTVSPropertyOp22
 70
     1
102
RTVSPropertyOp23
 70
     1
102
RTVSPropertyOp24
 70
     1
102
RTVSPropertyOp25
 70
     1
102
RTVSPropertyOp26
 70
     1
102
RTVSPropertyOp27
 70
     1
102
RTVSPropertyOp28
 70
     1
102
RTVSPropertyOp29
 70
     1
102
RTVSPropertyOp30
 70
     1
102
RTVSPropertyOp31
 70
     1
102
RTVSPropertyOp32
 70
     1
  0
XRECORD
  5
51
102
{ACAD_REACTORS
330
50
102
}
330
50
100
AcDbXrecord
280
     1
102
RTVSPropertyOp0
 70
     1
102
RTVSPropertyOp1
 70
     1
102
RTVSPropertyOp2
 70
     1
102
RTVSPropertyOp3
 70
     1
102
RTVSPropertyOp4
 70
     1
102
RTVSPropertyOp5
 70
     1
102
RTVSPropertyOp6
 70
     1
102
RTVSPropertyOp7
 70
     1
102
RTVSPropertyOp8
 70
     1
102
RTVSPropertyOp9
 70
     1
102
RTVSPropertyOp10
 70
     1
102
RTVSPropertyOp11
 70
     1
102
RTVSPropertyOp12
 70
     1
102
RTVSPropertyOp13
 70
     1
102
RTVSPropertyOp14
 70
     1
102
RTVSPropertyOp15
 70
     1
102
RTVSPropertyOp16
 70
     1
102
RTVSPropertyOp17
 70
     1
102
RTVSPropertyOp18
 70
     1
102
RTVSPropertyOp19
 70
     1
102
RTVSPropertyOp20
 70
     1
102
RTVSPropertyOp21
 70
     1
102
RTVSPropertyOp22
 70
     1
102
RTVSPropertyOp23
 70
     1
102
RTVSPropertyOp24
 70
     1
102
RTVSPropertyOp25
 70
     1
102
RTVSPropertyOp26
 70
     1
102
RTVSPropertyOp27
 70
     1
102
RTVSPropertyOp28
 70
     1
102
RTVSPropertyOp29
 70
     1
102
RTVSPropertyOp30
 70
     1
102
RTVSPropertyOp31
 70
     1
102
RTVSPropertyOp32
 70
     1
  0
XRECORD
  5
59
102
{ACAD_REACTORS
330
58
102
}
330
58
100
AcDbXrecord
280
     1
102
RTVSPropertyOp0
 70
     1
102
RTVSPropertyOp1
 70
     1
102
RTVSPropertyOp2
 70
     1
102
RTVSPropertyOp3
 70
     1
102
RTVSPropertyOp4
 70
     1
102
RTVSPropertyOp5
 70
     1
102
RTVSPropertyOp6
 70
     1
102
RTVSPropertyOp7
 70
     1
102
RTVSPropertyOp8
 70
     1
102
RTVSPropertyOp9
 70
     1
102
RTVSPropertyOp10
 70
     1
102
RTVSPropertyOp11
 70
     1
102
RTVSPropertyOp12
 70
     1
102
RTVSPropertyOp13
 70
     1
102
RTVSPropertyOp14
 70
     1
102
RTVSPropertyOp15
 70
     1
102
RTVSPropertyOp16
 70
     1
102
RTVSPropertyOp17
 70
     1
102
RTVSPropertyOp18
 70
     1
102
RTVSPropertyOp19
 70
     1
102
RTVSPropertyOp20
 70
     1
102
RTVSPropertyOp21
 70
     1
102
RTVSPropertyOp22
 70
     1
102
RTVSPropertyOp23
 70
     1
102
RTVSPropertyOp24
 70
     1
102
RTVSPropertyOp25
 70
     1
102
RTVSPropertyOp26
 70
     1
102
RTVSPropertyOp27
 70
     1
102
RTVSPropertyOp28
 70
     1
102
RTVSPropertyOp29
 70
     1
102
RTVSPropertyOp30
 70
     1
102
RTVSPropertyOp31
 70
     1
102
RTVSPropertyOp32
 70
     1
  0
XRECORD
  5
61
102
{ACAD_REACTORS
330
60
102
}
330
60
100
AcDbXrecord
280
     1
102
RTVSPropertyOp0
 70
     1
102
RTVSPropertyOp1
 70
     1
102
RTVSPropertyOp2
 70
     1
102
RTVSPropertyOp3
 70
     1
102
RTVSPropertyOp4
 70
     1
102
RTVSPropertyOp5
 70
     1
102
RTVSPropertyOp6
 70
     1
102
RTVSPropertyOp7
 70
     1
102
RTVSPropertyOp8
 70
     1
102
RTVSPropertyOp9
 70
     1
102
RTVSPropertyOp10
 70
     1
102
RTVSPropertyOp11
 70
     1
102
RTVSPropertyOp12
 70
     1
102
RTVSPropertyOp13
 70
     1
102
RTVSPropertyOp14
 70
     1
102
RTVSPropertyOp15
 70
     1
102
RTVSPropertyOp16
 70
     1
102
RTVSPropertyOp17
 70
     1
102
RTVSPropertyOp18
 70
     1
102
RTVSPropertyOp19
 70
     1
102
RTVSPropertyOp20
 70
     1
102
RTVSPropertyOp21
 70
     1
102
RTVSPropertyOp22
 70
     1
102
RTVSPropertyOp23
 70
     1
102
RTVSPropertyOp24
 70
     1
102
RTVSPropertyOp25
 70
     1
102
RTVSPropertyOp26
 70
     1
102
RTVSPropertyOp27
 70
     1
102
RTVSPropertyOp28
 70
     1
102
RTVSPropertyOp29
 70
     1
102
RTVSPropertyOp30
 70
     1
102
RTVSPropertyOp31
 70
     1
102
RTVSPropertyOp32
 70
     1
  0
XRECORD
  5
55
102
{ACAD_REACTORS
330
54
102
}
330
54
100
AcDbXrecord
280
     1
102
RTVSPropertyOp0
 70
     1
102
RTVSPropertyOp1
 70
     1
102
RTVSPropertyOp2
 70
     1
102
RTVSPropertyOp3
 70
     1
102
RTVSPropertyOp4
 70
     1
102
RTVSPropertyOp5
 70
     1
102
RTVSPropertyOp6
 70
     1
102
RTVSPropertyOp7
 70
     1
102
RTVSPropertyOp8
 70
     1
102
RTVSPropertyOp9
 70
     1
102
RTVSPropertyOp10
 70
     1
102
RTVSPropertyOp11
 70
     1
102
RTVSPropertyOp12
 70
     1
102
RTVSPropertyOp13
 70
     1
102
RTVSPropertyOp14
 70
     1
102
RTVSPropertyOp15
 70
     1
102
RTVSPropertyOp16
 70
     1
102
RTVSPropertyOp17
 70
     1
102
RTVSPropertyOp18
 70
     1
102
RTVSPropertyOp19
 70
     1
102
RTVSPropertyOp20
 70
     1
102
RTVSPropertyOp21
 70
     1
102
RTVSPropertyOp22
 70
     1
102
RTVSPropertyOp23
 70
     1
102
RTVSPropertyOp24
 70
     1
102
RTVSPropertyOp25
 70
     1
102
RTVSPropertyOp26
 70
     1
102
RTVSPropertyOp27
 70
     1
102
RTVSPropertyOp28
 70
     1
102
RTVSPropertyOp29
 70
     1
102
RTVSPropertyOp30
 70
     1
102
RTVSPropertyOp31
 70
     1
102
RTVSPropertyOp32
 70
     1
  0
XRECORD
  5
57
102
{ACAD_REACTORS
330
56
102
}
330
56
100
AcDbXrecord
280
     1
102
RTVSPropertyOp0
 70
     1
102
RTVSPropertyOp1
 70
     1
102
RTVSPropertyOp2
 70
     1
102
RTVSPropertyOp3
 70
     1
102
RTVSPropertyOp4
 70
     1
102
RTVSPropertyOp5
 70
     1
102
RTVSPropertyOp6
 70
     1
102
RTVSPropertyOp7
 70
     1
102
RTVSPropertyOp8
 70
     1
102
RTVSPropertyOp9
 70
     1
102
RTVSPropertyOp10
 70
     1
102
RTVSPropertyOp11
 70
     1
102
RTVSPropertyOp12
 70
     1
102
RTVSPropertyOp13
 70
     1
102
RTVSPropertyOp14
 70
     1
102
RTVSPropertyOp15
 70
     1
102
RTVSPropertyOp16
 70
     1
102
RTVSPropertyOp17
 70
     1
102
RTVSPropertyOp18
 70
     1
102
RTVSPropertyOp19
 70
     1
102
RTVSPropertyOp20
 70
     1
102
RTVSPropertyOp21
 70
     1
102
RTVSPropertyOp22
 70
     1
102
RTVSPropertyOp23
 70
     1
102
RTVSPropertyOp24
 70
     1
102
RTVSPropertyOp25
 70
     1
102
RTVSPropertyOp26
 70
     1
102
RTVSPropertyOp27
 70
     1
102
RTVSPropertyOp28
 70
     1
102
RTVSPropertyOp29
 70
     1
102
RTVSPropertyOp30
 70
     1
102
RTVSPropertyOp31
 70
     1
102
RTVSPropertyOp32
 70
     1
  0
XRECORD
  5
5F
102
{ACAD_REACTORS
330
5E
102
}
330
5E
100
AcDbXrecord
280
     1
102
RTVSPropertyOp0
 70
     1
102
RTVSPropertyOp1
 70
     1
102
RTVSPropertyOp2
 70
     1
102
RTVSPropertyOp3
 70
     1
102
RTVSPropertyOp4
 70
     1
102
RTVSPropertyOp5
 70
     1
102
RTVSPropertyOp6
 70
     1
102
RTVSPropertyOp7
 70
     1
102
RTVSPropertyOp8
 70
     1
102
RTVSPropertyOp9
 70
     1
102
RTVSPropertyOp10
 70
     1
102
RTVSPropertyOp11
 70
     1
102
RTVSPropertyOp12
 70
     1
102
RTVSPropertyOp13
 70
     1
102
RTVSPropertyOp14
 70
     1
102
RTVSPropertyOp15
 70
     1
102
RTVSPropertyOp16
 70
     1
102
RTVSPropertyOp17
 70
     1
102
RTVSPropertyOp18
 70
     1
102
RTVSPropertyOp19
 70
     1
102
RTVSPropertyOp20
 70
     1
102
RTVSPropertyOp21
 70
     1
102
RTVSPropertyOp22
 70
     1
102
RTVSPropertyOp23
 70
     1
102
RTVSPropertyOp24
 70
     1
102
RTVSPropertyOp25
 70
     1
102
RTVSPropertyOp26
 70
     1
102
RTVSPropertyOp27
 70
     1
102
RTVSPropertyOp28
 70
     1
102
RTVSPropertyOp29
 70
     1
102
RTVSPropertyOp30
 70
     1
102
RTVSPropertyOp31
 70
     1
102
RTVSPropertyOp32
 70
     1
  0
XRECORD
  5
43
102
{ACAD_REACTORS
330
42
102
}
330
42
100
AcDbXrecord
280
     1
102
RTVSPropertyOp0
 70
     1
102
RTVSPropertyOp1
 70
     1
102
RTVSPropertyOp2
 70
     1
102
RTVSPropertyOp3
 70
     1
102
RTVSPropertyOp4
 70
     1
102
RTVSPropertyOp5
 70
     1
102
RTVSPropertyOp6
 70
     1
102
RTVSPropertyOp7
 70
     1
102
RTVSPropertyOp8
 70
     1
102
RTVSPropertyOp9
 70
     1
102
RTVSPropertyOp10
 70
     1
102
RTVSPropertyOp11
 70
     1
102
RTVSPropertyOp12
 70
     1
102
RTVSPropertyOp13
 70
     1
102
RTVSPropertyOp14
 70
     1
102
RTVSPropertyOp15
 70
     1
102
RTVSPropertyOp16
 70
     1
102
RTVSPropertyOp17
 70
     1
102
RTVSPropertyOp18
 70
     1
102
RTVSPropertyOp19
 70
     1
102
RTVSPropertyOp20
 70
     1
102
RTVSPropertyOp21
 70
     1
102
RTVSPropertyOp22
 70
     1
102
RTVSPropertyOp23
 70
     1
102
RTVSPropertyOp24
 70
     1
102
RTVSPropertyOp25
 70
     1
102
RTVSPropertyOp26
 70
     1
102
RTVSPropertyOp27
 70
     1
102
RTVSPropertyOp28
 70
     1
102
RTVSPropertyOp29
 70
     1
102
RTVSPropertyOp30
 70
     1
102
RTVSPropertyOp31
 70
     1
102
RTVSPropertyOp32
 70
     1
  0
XRECORD
  5
45
102
{ACAD_REACTORS
330
44
102
}
330
44
100
AcDbXrecord
280
     1
102
RTVSPropertyOp0
 70
     1
102
RTVSPropertyOp1
 70
     1
102
RTVSPropertyOp2
 70
     1
102
RTVSPropertyOp3
 70
     1
102
RTVSPropertyOp4
 70
     1
102
RTVSPropertyOp5
 70
     1
102
RTVSPropertyOp6
 70
     1
102
RTVSPropertyOp7
 70
     1
102
RTVSPropertyOp8
 70
     1
102
RTVSPropertyOp9
 70
     1
102
RTVSPropertyOp10
 70
     1
102
RTVSPropertyOp11
 70
     1
102
RTVSPropertyOp12
 70
     1
102
RTVSPropertyOp13
 70
     1
102
RTVSPropertyOp14
 70
     1
102
RTVSPropertyOp15
 70
     1
102
RTVSPropertyOp16
 70
     1
102
RTVSPropertyOp17
 70
     1
102
RTVSPropertyOp18
 70
     1
102
RTVSPropertyOp19
 70
     1
102
RTVSPropertyOp20
 70
     1
102
RTVSPropertyOp21
 70
     1
102
RTVSPropertyOp22
 70
     1
102
RTVSPropertyOp23
 70
     1
102
RTVSPropertyOp24
 70
     1
102
RTVSPropertyOp25
 70
     1
102
RTVSPropertyOp26
 70
     1
102
RTVSPropertyOp27
 70
     1
102
RTVSPropertyOp28
 70
     1
102
RTVSPropertyOp29
 70
     1
102
RTVSPropertyOp30
 70
     1
102
RTVSPropertyOp31
 70
     1
102
RTVSPropertyOp32
 70
     1
  0
XRECORD
  5
47
102
{ACAD_REACTORS
330
46
102
}
330
46
100
AcDbXrecord
280
     1
102
RTVSPropertyOp0
 70
     1
102
RTVSPropertyOp1
 70
     1
102
RTVSPropertyOp2
 70
     1
102
RTVSPropertyOp3
 70
     1
102
RTVSPropertyOp4
 70
     1
102
RTVSPropertyOp5
 70
     1
102
RTVSPropertyOp6
 70
     1
102
RTVSPropertyOp7
 70
     1
102
RTVSPropertyOp8
 70
     1
102
RTVSPropertyOp9
 70
     1
102
RTVSPropertyOp10
 70
     1
102
RTVSPropertyOp11
 70
     1
102
RTVSPropertyOp12
 70
     1
102
RTVSPropertyOp13
 70
     1
102
RTVSPropertyOp14
 70
     1
102
RTVSPropertyOp15
 70
     1
102
RTVSPropertyOp16
 70
     1
102
RTVSPropertyOp17
 70
     1
102
RTVSPropertyOp18
 70
     1
102
RTVSPropertyOp19
 70
     1
102
RTVSPropertyOp20
 70
     1
102
RTVSPropertyOp21
 70
     1
102
RTVSPropertyOp22
 70
     1
102
RTVSPropertyOp23
 70
     1
102
RTVSPropertyOp24
 70
     1
102
RTVSPropertyOp25
 70
     1
102
RTVSPropertyOp26
 70
     1
102
RTVSPropertyOp27
 70
     1
102
RTVSPropertyOp28
 70
     1
102
RTVSPropertyOp29
 70
     1
102
RTVSPropertyOp30
 70
     1
102
RTVSPropertyOp31
 70
     1
102
RTVSPropertyOp32
 70
     1
  0
XRECORD
  5
49
102
{ACAD_REACTORS
330
48
102
}
330
48
100
AcDbXrecord
280
     1
102
RTVSPropertyOp0
 70
     1
102
RTVSPropertyOp1
 70
     1
102
RTVSPropertyOp2
 70
     1
102
RTVSPropertyOp3
 70
     1
102
RTVSPropertyOp4
 70
     1
102
RTVSPropertyOp5
 70
     1
102
RTVSPropertyOp6
 70
     1
102
RTVSPropertyOp7
 70
     1
102
RTVSPropertyOp8
 70
     1
102
RTVSPropertyOp9
 70
     1
102
RTVSPropertyOp10
 70
     1
102
RTVSPropertyOp11
 70
     1
102
RTVSPropertyOp12
 70
     1
102
RTVSPropertyOp13
 70
     1
102
RTVSPropertyOp14
 70
     1
102
RTVSPropertyOp15
 70
     1
102
RTVSPropertyOp16
 70
     1
102
RTVSPropertyOp17
 70
     1
102
RTVSPropertyOp18
 70
     1
102
RTVSPropertyOp19
 70
     1
102
RTVSPropertyOp20
 70
     1
102
RTVSPropertyOp21
 70
     1
102
RTVSPropertyOp22
 70
     1
102
RTVSPropertyOp23
 70
     1
102
RTVSPropertyOp24
 70
     1
102
RTVSPropertyOp25
 70
     1
102
RTVSPropertyOp26
 70
     1
102
RTVSPropertyOp27
 70
     1
102
RTVSPropertyOp28
 70
     1
102
RTVSPropertyOp29
 70
     1
102
RTVSPropertyOp30
 70
     1
102
RTVSPropertyOp31
 70
     1
102
RTVSPropertyOp32
 70
     1
  0
XRECORD
  5
5D
102
{ACAD_REACTORS
330
5C
102
}
330
5C
100
AcDbXrecord
280
     1
102
RTVSPropertyOp0
 70
     1
102
RTVSPropertyOp1
 70
     1
102
RTVSPropertyOp2
 70
     1
102
RTVSPropertyOp3
 70
     1
102
RTVSPropertyOp4
 70
     1
102
RTVSPropertyOp5
 70
     1
102
RTVSPropertyOp6
 70
     1
102
RTVSPropertyOp7
 70
     1
102
RTVSPropertyOp8
 70
     1
102
RTVSPropertyOp9
 70
     1
102
RTVSPropertyOp10
 70
     1
102
RTVSPropertyOp11
 70
     1
102
RTVSPropertyOp12
 70
     1
102
RTVSPropertyOp13
 70
     1
102
RTVSPropertyOp14
 70
     1
102
RTVSPropertyOp15
 70
     1
102
RTVSPropertyOp16
 70
     1
102
RTVSPropertyOp17
 70
     1
102
RTVSPropertyOp18
 70
     1
102
RTVSPropertyOp19
 70
     1
102
RTVSPropertyOp20
 70
     1
102
RTVSPropertyOp21
 70
     1
102
RTVSPropertyOp22
 70
     1
102
RTVSPropertyOp23
 70
     1
102
RTVSPropertyOp24
 70
     1
102
RTVSPropertyOp25
 70
     1
102
RTVSPropertyOp26
 70
     1
102
RTVSPropertyOp27
 70
     1
102
RTVSPropertyOp28
 70
     1
102
RTVSPropertyOp29
 70
     1
102
RTVSPropertyOp30
 70
     1
102
RTVSPropertyOp31
 70
     1
102
RTVSPropertyOp32
 70
     1
  0
XRECORD
  5
53
102
{ACAD_REACTORS
330
52
102
}
330
52
100
AcDbXrecord
280
     1
102
RTVSPropertyOp0
 70
     1
102
RTVSPropertyOp1
 70
     1
102
RTVSPropertyOp2
 70
     1
102
RTVSPropertyOp3
 70
     1
102
RTVSPropertyOp4
 70
     1
102
RTVSPropertyOp5
 70
     1
102
RTVSPropertyOp6
 70
     1
102
RTVSPropertyOp7
 70
     1
102
RTVSPropertyOp8
 70
     1
102
RTVSPropertyOp9
 70
     1
102
RTVSPropertyOp10
 70
     1
102
RTVSPropertyOp11
 70
     1
102
RTVSPropertyOp12
 70
     1
102
RTVSPropertyOp13
 70
     1
102
RTVSPropertyOp14
 70
     1
102
RTVSPropertyOp15
 70
     1
102
RTVSPropertyOp16
 70
     1
102
RTVSPropertyOp17
 70
     1
102
RTVSPropertyOp18
 70
     1
102
RTVSPropertyOp19
 70
     1
102
RTVSPropertyOp20
 70
     1
102
RTVSPropertyOp21
 70
     1
102
RTVSPropertyOp22
 70
     1
102
RTVSPropertyOp23
 70
     1
102
RTVSPropertyOp24
 70
     1
102
RTVSPropertyOp25
 70
     1
102
RTVSPropertyOp26
 70
     1
102
RTVSPropertyOp27
 70
     1
102
RTVSPropertyOp28
 70
     1
102
RTVSPropertyOp29
 70
     1
102
RTVSPropertyOp30
 70
     1
102
RTVSPropertyOp31
 70
     1
102
RTVSPropertyOp32
 70
     1
  0
XRECORD
  5
5B
102
{ACAD_REACTORS
330
5A
102
}
330
5A
100
AcDbXrecord
280
     1
102
RTVSPropertyOp0
 70
     1
102
RTVSPropertyOp1
 70
     1
102
RTVSPropertyOp2
 70
     1
102
RTVSPropertyOp3
 70
     1
102
RTVSPropertyOp4
 70
     1
102
RTVSPropertyOp5
 70
     1
102
RTVSPropertyOp6
 70
     1
102
RTVSPropertyOp7
 70
     1
102
RTVSPropertyOp8
 70
     1
102
RTVSPropertyOp9
 70
     1
102
RTVSPropertyOp10
 70
     1
102
RTVSPropertyOp11
 70
     1
102
RTVSPropertyOp12
 70
     1
102
RTVSPropertyOp13
 70
     1
102
RTVSPropertyOp14
 70
     1
102
RTVSPropertyOp15
 70
     1
102
RTVSPropertyOp16
 70
     1
102
RTVSPropertyOp17
 70
     1
102
RTVSPropertyOp18
 70
     1
102
RTVSPropertyOp19
 70
     1
102
RTVSPropertyOp20
 70
     1
102
RTVSPropertyOp21
 70
     1
102
RTVSPropertyOp22
 70
     1
102
RTVSPropertyOp23
 70
     1
102
RTVSPropertyOp24
 70
     1
102
RTVSPropertyOp25
 70
     1
102
RTVSPropertyOp26
 70
     1
102
RTVSPropertyOp27
 70
     1
102
RTVSPropertyOp28
 70
     1
102
RTVSPropertyOp29
 70
     1
102
RTVSPropertyOp30
 70
     1
102
RTVSPropertyOp31
 70
     1
102
RTVSPropertyOp32
 70
     1
  0
ENDSEC
  0
EOF
