  0
SECTION
  2
HEADER
  9
$ACADVER
  1
AC1021
  9
$ACADMAINTVER
 70
    25
  9
$DWGCODEPAGE
  3
ANSI_1252
  9
$INSBASE
 10
0.0
 20
0.0
 30
0.0
  9
$EXTMIN
 10
-6.02947
 20
-9.74131
 30
0.0
  9
$EXTMAX
 10
6.02947
 20
9.74131
 30
0.0
  9
$LIMMIN
 10
0.0
 20
0.0
  9
$LIMMAX
 10
12.0
 20
9.0
  9
$ORTHOMODE
 70
     0
  9
$REGENMODE
 70
     1
  9
$FILLMODE
 70
     1
  9
$QTEXTMODE
 70
     0
  9
$MIRRTEXT
 70
     1
  9
$LTSCALE
 40
1.0
  9
$ATTMODE
 70
     1
  9
$TEXTSIZE
 40
0.2
  9
$TRACEWID
 40
0.05
  9
$TEXTSTYLE
  7
Standard
  9
$CLAYER
  8
0
  9
$CELTYPE
  6
ByLayer
  9
$CECOLOR
 62
   256
  9
$CELTSCALE
 40
1.0
  9
$DISPSILH
 70
     0
  9
$DIMSCALE
 40
1.0
  9
$DIMASZ
 40
0.18
  9
$DIMEXO
 40
0.0625
  9
$DIMDLI
 40
0.38
  9
$DIMRND
 40
0.0
  9
$DIMDLE
 40
0.0
  9
$DIMEXE
 40
0.18
  9
$DIMTP
 40
0.0
  9
$DIMTM
 40
0.0
  9
$DIMTXT
 40
0.18
  9
$DIMCEN
 40
0.09
  9
$DIMTSZ
 40
0.0
  9
$DIMTOL
 70
     0
  9
$DIMLIM
 70
     0
  9
$DIMTIH
 70
     1
  9
$DIMTOH
 70
     1
  9
$DIMSE1
 70
     0
  9
$DIMSE2
 70
     0
  9
$DIMTAD
 70
     0
  9
$DIMZIN
 70
     0
  9
$DIMBLK
  1

  9
$DIMASO
 70
     1
  9
$DIMSHO
 70
     1
  9
$DIMPOST
  1

  9
$DIMAPOST
  1

  9
$DIMALT
 70
     0
  9
$DIMALTD
 70
     2
  9
$DIMALTF
 40
25.4
  9
$DIMLFAC
 40
1.0
  9
$DIMTOFL
 70
     0
  9
$DIMTVP
 40
0.0
  9
$DIMTIX
 70
     0
  9
$DIMSOXD
 70
     0
  9
$DIMSAH
 70
     0
  9
$DIMBLK1
  1

  9
$DIMBLK2
  1

  9
$DIMSTYLE
  2
Standard
  9
$DIMCLRD
 70
     0
  9
$DIMCLRE
 70
     0
  9
$DIMCLRT
 70
     0
  9
$DIMTFAC
 40
1.0
  9
$DIMGAP
 40
0.09
  9
$DIMJUST
 70
     0
  9
$DIMSD1
 70
     0
  9
$DIMSD2
 70
     0
  9
$DIMTOLJ
 70
     1
  9
$DIMTZIN
 70
     0
  9
$DIMALTZ
 70
     0
  9
$DIMALTTZ
 70
     0
  9
$DIMUPT
 70
     0
  9
$DIMDEC
 70
     4
  9
$DIMTDEC
 70
     4
  9
$DIMALTU
 70
     2
  9
$DIMALTTD
 70
     2
  9
$DIMTXSTY
  7
Standard
  9
$DIMAUNIT
 70
     0
  9
$DIMADEC
 70
     0
  9
$DIMALTRND
 40
0.0
  9
$DIMAZIN
 70
     0
  9
$DIMDSEP
 70
    46
  9
$DIMATFIT
 70
     3
  9
$DIMFRAC
 70
     0
  9
$DIMLDRBLK
  1

  9
$DIMLUNIT
 70
     2
  9
$DIMLWD
 70
    -2
  9
$DIMLWE
 70
    -2
  9
$DIMTMOVE
 70
     0
  9
$DIMFXL
 40
1.0
  9
$DIMFXLON
 70
     0
  9
$DIMJOGANG
 40
0.7853981633974483
  9
$DIMTFILL
 70
     0
  9
$DIMTFILLCLR
 70
     0
  9
$DIMARCSYM
 70
     0
  9
$DIMLTYPE
  6

  9
$DIMLTEX1
  6

  9
$DIMLTEX2
  6

  9
$LUNITS
 70
     2
  9
$LUPREC
 70
     4
  9
$SKETCHINC
 40
0.1
  9
$FILLETRAD
 40
0.5
  9
$AUNITS
 70
     0
  9
$AUPREC
 70
     0
  9
$MENU
  1
.
  9
$ELEVATION
 40
0.0
  9
$PELEVATION
 40
0.0
  9
$THICKNESS
 40
0.0
  9
$LIMCHECK
 70
     0
  9
$CHAMFERA
 40
0.5
  9
$CHAMFERB
 40
0.5
  9
$CHAMFERC
 40
1.0
  9
$CHAMFERD
 40
0.0
  9
$SKPOLY
 70
     0
  9
$TDCREATE
 40
2456878.341354028
  9
$TDUCREATE
 40
2456878.466354028
  9
$TDUPDATE
 40
2456878.341354352
  9
$TDUUPDATE
 40
2456878.466354352
  9
$TDINDWG
 40
0.0000000116
  9
$TDUSRTIMER
 40
0.0000000116
  9
$USRTIMER
 70
     1
  9
$ANGBASE
 50
0.0
  9
$ANGDIR
 70
     0
  9
$PDMODE
 70
     0
  9
$PDSIZE
 40
0.0
  9
$PLINEWID
 40
0.0
  9
$SPLFRAME
 70
     0
  9
$SPLINETYPE
 70
     6
  9
$SPLINESEGS
 70
     8
  9
$HANDSEED
  5
8C
  9
$SURFTAB1
 70
     6
  9
$SURFTAB2
 70
     6
  9
$SURFTYPE
 70
     6
  9
$SURFU
 70
     6
  9
$SURFV
 70
     6
  9
$UCSBASE
  2

  9
$UCSNAME
  2

  9
$UCSORG
 10
0.0
 20
0.0
 30
0.0
  9
$UCSXDIR
 10
1.0
 20
0.0
 30
0.0
  9
$UCSYDIR
 10
0.0
 20
1.0
 30
0.0
  9
$UCSORTHOREF
  2

  9
$UCSORTHOVIEW
 70
     0
  9
$UCSORGTOP
 10
0.0
 20
0.0
 30
0.0
  9
$UCSORGBOTTOM
 10
0.0
 20
0.0
 30
0.0
  9
$UCSORGLEFT
 10
0.0
 20
0.0
 30
0.0
  9
$UCSORGRIGHT
 10
0.0
 20
0.0
 30
0.0
  9
$UCSORGFRONT
 10
0.0
 20
0.0
 30
0.0
  9
$UCSORGBACK
 10
0.0
 20
0.0
 30
0.0
  9
$PUCSBASE
  2

  9
$PUCSNAME
  2

  9
$PUCSORG
 10
0.0
 20
0.0
 30
0.0
  9
$PUCSXDIR
 10
1.0
 20
0.0
 30
0.0
  9
$PUCSYDIR
 10
0.0
 20
1.0
 30
0.0
  9
$PUCSORTHOREF
  2

  9
$PUCSORTHOVIEW
 70
     0
  9
$PUCSORGTOP
 10
0.0
 20
0.0
 30
0.0
  9
$PUCSORGBOTTOM
 10
0.0
 20
0.0
 30
0.0
  9
$PUCSORGLEFT
 10
0.0
 20
0.0
 30
0.0
  9
$PUCSORGRIGHT
 10
0.0
 20
0.0
 30
0.0
  9
$PUCSORGFRONT
 10
0.0
 20
0.0
 30
0.0
  9
$PUCSORGBACK
 10
0.0
 20
0.0
 30
0.0
  9
$USERI1
 70
     0
  9
$USERI2
 70
     0
  9
$USERI3
 70
     0
  9
$USERI4
 70
     0
  9
$USERI5
 70
     0
  9
$USERR1
 40
0.0
  9
$USERR2
 40
0.0
  9
$USERR3
 40
0.0
  9
$USERR4
 40
0.0
  9
$USERR5
 40
0.0
  9
$WORLDVIEW
 70
     1
  9
$SHADEDGE
 70
     3
  9
$SHADEDIF
 70
    70
  9
$TILEMODE
 70
     1
  9
$MAXACTVP
 70
    64
  9
$PINSBASE
 10
0.0
 20
0.0
 30
0.0
  9
$PLIMCHECK
 70
     0
  9
$PEXTMIN
 10
1.000000000000000E+20
 20
1.000000000000000E+20
 30
1.000000000000000E+20
  9
$PEXTMAX
 10
-1.000000000000000E+20
 20
-1.000000000000000E+20
 30
-1.000000000000000E+20
  9
$PLIMMIN
 10
0.0
 20
0.0
  9
$PLIMMAX
 10
12.0
 20
9.0
  9
$UNITMODE
 70
     0
  9
$VISRETAIN
 70
     1
  9
$PLINEGEN
 70
     0
  9
$PSLTSCALE
 70
     1
  9
$TREEDEPTH
 70
  3020
  9
$CMLSTYLE
  2
Standard
  9
$CMLJUST
 70
     0
  9
$CMLSCALE
 40
1.0
  9
$PROXYGRAPHICS
 70
     1
  9
$MEASUREMENT
 70
     0
  9
$CELWEIGHT
370
    -1
  9
$ENDCAPS
280
     0
  9
$JOINSTYLE
280
     0
  9
$LWDISPLAY
290
     0
  9
$INSUNITS
 70
     5
  9
$HYPERLINKBASE
  1

  9
$STYLESHEET
  1

  9
$XEDIT
290
     1
  9
$CEPSNTYPE
380
     0
  9
$PSTYLEMODE
290
     1
  9
$FINGERPRINTGUID
  2
{C3F4CF9E-9240-49D7-9A45-6283F9127AD8}
  9
$VERSIONGUID
  2
{FAEB1C32-E019-11D5-929B-00C0DF256EC4}
  9
$EXTNAMES
290
     1
  9
$PSVPSCALE
 40
0.0
  9
$OLESTARTUP
290
     0
  9
$SORTENTS
280
   127
  9
$INDEXCTL
280
     0
  9
$HIDETEXT
280
     1
  9
$XCLIPFRAME
290
     0
  9
$HALOGAP
280
     0
  9
$OBSCOLOR
 70
   257
  9
$OBSLTYPE
280
     0
  9
$INTERSECTIONDISPLAY
280
     0
  9
$INTERSECTIONCOLOR
 70
   257
  9
$DIMASSOC
280
     2
  9
$PROJECTNAME
  1

  9
$CAMERADISPLAY
290
     0
  9
$LENSLENGTH
 40
50.0
  9
$CAMERAHEIGHT
 40
0.0
  9
$STEPSPERSEC
 40
2.0
  9
$STEPSIZE
 40
6.0
  9
$3DDWFPREC
 40
2.0
  9
$PSOLWIDTH
 40
0.25
  9
$PSOLHEIGHT
 40
4.0
  9
$LOFTANG1
 40
1.570796326794897
  9
$LOFTANG2
 40
1.570796326794897
  9
$LOFTMAG1
 40
0.0
  9
$LOFTMAG2
 40
0.0
  9
$LOFTPARAM
 70
     7
  9
$LOFTNORMALS
280
     1
  9
$LATITUDE
 40
37.795
  9
$LONGITUDE
 40
-122.394
  9
$NORTHDIRECTION
 40
0.0
  9
$TIMEZONE
 70
 -8000
  9
$LIGHTGLYPHDISPLAY
280
     1
  9
$TILEMODELIGHTSYNCH
280
     1
  9
$SOLIDHIST
280
     1
  9
$SHOWHIST
280
     1
  9
$DWFFRAME
280
     2
  9
$DGNFRAME
280
     2
  9
$REALWORLDSCALE
290
     1
  9
$INTERFERECOLOR
 62
   256
  9
$CSHADOW
280
     0
  9
$SHADOWPLANELOCATION
 40
0.0
  0
ENDSEC
  0
SECTION
  2
CLASSES
  0
CLASS
  1
ACDBDICTIONARYWDFLT
  2
AcDbDictionaryWithDefault
  3
ObjectDBX Classes
 90
        0
 91
        4
280
     0
281
     0
  0
CLASS
  1
VISUALSTYLE
  2
AcDbVisualStyle
  3
ObjectDBX Classes
 90
     4095
 91
        4
280
     0
281
     0
  0
CLASS
  1
MATERIAL
  2
AcDbMaterial
  3
ObjectDBX Classes
 90
     1153
 91
        4
280
     0
281
     0
  0
ENDSEC
  0
SECTION
  2
TABLES
  0
TABLE
  2
VPORT
  5
8
330
0
100
AcDbSymbolTable
 70
     1
  0
VPORT
  5
29
330
8
100
AcDbSymbolTableRecord
100
AcDbViewportTableRecord
  2
*Active
 70
     0
 10
0.0
 20
0.0
 11
1.0
 21
1.0
 12
10.42990654205607
 22
4.5
 13
0.0
 23
0.0
 14
0.5
 24
0.5
 15
0.5
 25
0.5
 16
0.0
 26
0.0
 36
1.0
 17
0.0
 27
0.0
 37
0.0
 40
9.0
 41
1.972972972850329
 42
50.0
 43
0.0
 44
0.0
 50
0.0
 51
0.0
 71
     0
 72
   100
 73
     1
 74
     3
 75
     0
 76
     0
 77
     0
 78
     0
281
     0
 65
     1
110
0.0
120
0.0
130
0.0
111
1.0
121
0.0
131
0.0
112
0.0
122
1.0
132
0.0
 79
     0
146
0.0
 60
     3
 61
     5
292
     1
282
     1
141
0.0
142
0.0
 63
   250
  0
ENDTAB
  0
TABLE
  2
LTYPE
  5
5
330
0
100
AcDbSymbolTable
 70
     1
  0
LTYPE
  5
14
330
5
100
AcDbSymbolTableRecord
100
AcDbLinetypeTableRecord
  2
ByBlock
 70
     0
  3

 72
    65
 73
     0
 40
0.0
  0
LTYPE
  5
15
330
5
100
AcDbSymbolTableRecord
100
AcDbLinetypeTableRecord
  2
ByLayer
 70
     0
  3

 72
    65
 73
     0
 40
0.0
  0
LTYPE
  5
16
330
5
100
AcDbSymbolTableRecord
100
AcDbLinetypeTableRecord
  2
Continuous
 70
     0
  3
Solid line
 72
    65
 73
     0
 40
0.0
  0
ENDTAB
  0
TABLE
  2
LAYER
  5
2
330
0
100
AcDbSymbolTable
 70
     2
  0
LAYER
  5
10
330
2
100
AcDbSymbolTableRecord
100
AcDbLayerTableRecord
  2
0
 70
     0
 62
     7
  6
Continuous
370
    -3
390
F
347
3E
  0
LAYER
  5
40
330
2
100
AcDbSymbolTableRecord
100
AcDbLayerTableRecord
  2
Camada 1
 70
     0
 62
     7
  6
Continuous
370
    -3
390
F
347
3E
  0
ENDTAB
  0
TABLE
  2
STYLE
  5
3
330
0
100
AcDbSymbolTable
 70
     1
  0
STYLE
  5
11
330
3
100
AcDbSymbolTableRecord
100
AcDbTextStyleTableRecord
  2
Standard
 70
     0
 40
0.0
 41
1.0
 50
0.0
 71
     0
 42
0.2
  3
txt
  4

  0
ENDTAB
  0
TABLE
  2
VIEW
  5
6
330
0
100
AcDbSymbolTable
 70
     0
  0
ENDTAB
  0
TABLE
  2
UCS
  5
7
330
0
100
AcDbSymbolTable
 70
     0
  0
ENDTAB
  0
TABLE
  2
APPID
  5
9
330
0
100
AcDbSymbolTable
 70
     2
  0
APPID
  5
12
330
9
100
AcDbSymbolTableRecord
100
AcDbRegAppTableRecord
  2
ACAD
 70
     0
  0
APPID
  5
3F
330
9
100
AcDbSymbolTableRecord
100
AcDbRegAppTableRecord
  2
ODA
 70
     0
  0
ENDTAB
  0
TABLE
  2
DIMSTYLE
  5
A
330
0
100
AcDbSymbolTable
 70
     1
100
AcDbDimStyleTable
  0
DIMSTYLE
105
27
330
A
100
AcDbSymbolTableRecord
100
AcDbDimStyleTableRecord
  2
Standard
 70
     0
178
     0
340
11
  0
ENDTAB
  0
TABLE
  2
BLOCK_RECORD
  5
1
330
0
100
AcDbSymbolTable
 70
     1
  0
BLOCK_RECORD
  5
1F
330
1
100
AcDbSymbolTableRecord
100
AcDbBlockTableRecord
  2
*Model_Space
340
22
 70
     0
280
     1
281
     0
  0
BLOCK_RECORD
  5
1B
330
1
100
AcDbSymbolTableRecord
100
AcDbBlockTableRecord
  2
*Paper_Space
340
1E
 70
     0
280
     1
281
     0
  0
BLOCK_RECORD
  5
23
330
1
100
AcDbSymbolTableRecord
100
AcDbBlockTableRecord
  2
*Paper_Space0
340
26
 70
     0
280
     1
281
     0
  0
ENDTAB
  0
ENDSEC
  0
SECTION
  2
BLOCKS
  0
BLOCK
  5
20
330
1F
100
AcDbEntity
  8
0
100
AcDbBlockBegin
  2
*Model_Space
 70
     0
 10
0.0
 20
0.0
 30
0.0
  3
*Model_Space
  1

  0
ENDBLK
  5
21
330
1F
100
AcDbEntity
  8
0
100
AcDbBlockEnd
  0
BLOCK
  5
1C
330
1B
100
AcDbEntity
 67
     1
  8
0
100
AcDbBlockBegin
  2
*Paper_Space
 70
     0
 10
0.0
 20
0.0
 30
0.0
  3
*Paper_Space
  1

  0
ENDBLK
  5
1D
330
1B
100
AcDbEntity
 67
     1
  8
0
100
AcDbBlockEnd
  0
BLOCK
  5
24
330
23
100
AcDbEntity
  8
0
100
AcDbBlockBegin
  2
*Paper_Space0
 70
     0
 10
0.0
 20
0.0
 30
0.0
  3
*Paper_Space0
  1

  0
ENDBLK
  5
25
330
23
100
AcDbEntity
  8
0
100
AcDbBlockEnd
  0
ENDSEC
  0
SECTION
  2
ENTITIES
  0
SPLINE
  5
41
330
1F
100
AcDbEntity
  8
Camada 1
370
    53
100
AcDbSpline
210
0.0
220
0.0
230
1.0
 70
    24
 71
     3
 72
     8
 73
     4
 74
     0
 42
0.0000000001
 43
0.0000000001
 12
1.0
 22
0.0
 32
0.0
 13
1.0
 23
0.0
 33
0.0
 40
0.0
 40
0.0
 40
0.0
 40
0.0
 40
1.0
 40
1.0
 40
1.0
 40
1.0
 10
-5.23935
 20
-9.29485
 30
0.0
 10
-5.23935
 20
-9.29485
 30
0.0
 10
-5.23935
 20
-7.5917
 30
0.0
 10
-5.23935
 20
-7.5917
 30
0.0
  0
SPLINE
  5
42
330
1F
100
AcDbEntity
  8
Camada 1
370
    53
100
AcDbSpline
210
0.0
220
0.0
230
1.0
 70
     8
 71
     3
 72
    32
 73
    28
 74
     0
 42
0.0000000001
 43
0.0000000001
 12
1.0
 22
0.0
 32
0.0
 13
1.0
 23
0.0
 33
0.0
 40
0.0
 40
0.0
 40
0.0
 40
0.0
 40
0.125
 40
0.125
 40
0.125
 40
0.125
 40
0.25
 40
0.25
 40
0.25
 40
0.25
 40
0.375
 40
0.375
 40
0.375
 40
0.375
 40
0.5
 40
0.5
 40
0.5
 40
0.5
 40
0.625
 40
0.625
 40
0.625
 40
0.625
 40
0.75
 40
0.75
 40
0.75
 40
0.75
 40
1.0
 40
1.0
 40
1.0
 40
1.0
 10
-5.22405
 20
-7.06473
 30
0.0
 10
-5.22405
 20
-7.06473
 30
0.0
 10
-5.2699
 20
-7.06473
 30
0.0
 10
-5.2699
 20
-7.06473
 30
0.0
 10
-5.2699
 20
-7.06473
 30
0.0
 10
-5.2699
 20
-7.06473
 30
0.0
 10
-5.2699
 20
-6.81266
 30
0.0
 10
-5.2699
 20
-6.81266
 30
0.0
 10
-5.2699
 20
-6.81266
 30
0.0
 10
-5.2699
 20
-6.81266
 30
0.0
 10
-5.20876
 20
-6.81266
 30
0.0
 10
-5.20876
 20
-6.81266
 30
0.0
 10
-5.20876
 20
-6.81266
 30
0.0
 10
-5.20876
 20
-6.81266
 30
0.0
 10
-5.20876
 20
-6.38499
 30
0.0
 10
-5.20876
 20
-6.38499
 30
0.0
 10
-5.20876
 20
-6.38499
 30
0.0
 10
-5.20876
 20
-6.38499
 30
0.0
 10
-5.2699
 20
-6.38499
 30
0.0
 10
-5.2699
 20
-6.38499
 30
0.0
 10
-5.2699
 20
-6.38499
 30
0.0
 10
-5.2699
 20
-6.38499
 30
0.0
 10
-5.2699
 20
-6.1329
 30
0.0
 10
-5.2699
 20
-6.1329
 30
0.0
 10
-5.2699
 20
-6.1329
 30
0.0
 10
-5.2699
 20
-6.1329
 30
0.0
 10
-5.22405
 20
-6.1329
 30
0.0
 10
-5.22405
 20
-6.1329
 30
0.0
  0
SPLINE
  5
43
330
1F
100
AcDbEntity
  8
Camada 1
370
    53
100
AcDbSpline
210
0.0
220
0.0
230
1.0
 70
     8
 71
     3
 72
   188
 73
   184
 74
     0
 42
0.0000000001
 43
0.0000000001
 12
1.0
 22
0.0
 32
0.0
 13
1.0
 23
0.0
 33
0.0
 40
0.0
 40
0.0
 40
0.0
 40
0.0
 40
0.0212765957446809
 40
0.0212765957446809
 40
0.0212765957446809
 40
0.0212765957446809
 40
0.0425531914893617
 40
0.0425531914893617
 40
0.0425531914893617
 40
0.0425531914893617
 40
0.0638297872340425
 40
0.0638297872340425
 40
0.0638297872340425
 40
0.0638297872340425
 40
0.0851063829787234
 40
0.0851063829787234
 40
0.0851063829787234
 40
0.0851063829787234
 40
0.1063829787234043
 40
0.1063829787234043
 40
0.1063829787234043
 40
0.1063829787234043
 40
0.1276595744680851
 40
0.1276595744680851
 40
0.1276595744680851
 40
0.1276595744680851
 40
0.148936170212766
 40
0.148936170212766
 40
0.148936170212766
 40
0.148936170212766
 40
0.1702127659574468
 40
0.1702127659574468
 40
0.1702127659574468
 40
0.1702127659574468
 40
0.1914893617021277
 40
0.1914893617021277
 40
0.1914893617021277
 40
0.1914893617021277
 40
0.2127659574468085
 40
0.2127659574468085
 40
0.2127659574468085
 40
0.2127659574468085
 40
0.2340425531914894
 40
0.2340425531914894
 40
0.2340425531914894
 40
0.2340425531914894
 40
0.2553191489361702
 40
0.2553191489361702
 40
0.2553191489361702
 40
0.2553191489361702
 40
0.2765957446808511
 40
0.2765957446808511
 40
0.2765957446808511
 40
0.2765957446808511
 40
0.2978723404255319
 40
0.2978723404255319
 40
0.2978723404255319
 40
0.2978723404255319
 40
0.3191489361702128
 40
0.3191489361702128
 40
0.3191489361702128
 40
0.3191489361702128
 40
0.3404255319148936
 40
0.3404255319148936
 40
0.3404255319148936
 40
0.3404255319148936
 40
0.3617021276595745
 40
0.3617021276595745
 40
0.3617021276595745
 40
0.3617021276595745
 40
0.3829787234042553
 40
0.3829787234042553
 40
0.3829787234042553
 40
0.3829787234042553
 40
0.4042553191489361
 40
0.4042553191489361
 40
0.4042553191489361
 40
0.4042553191489361
 40
0.425531914893617
 40
0.425531914893617
 40
0.425531914893617
 40
0.425531914893617
 40
0.4468085106382979
 40
0.4468085106382979
 40
0.4468085106382979
 40
0.4468085106382979
 40
0.4680851063829787
 40
0.4680851063829787
 40
0.4680851063829787
 40
0.4680851063829787
 40
0.4893617021276596
 40
0.4893617021276596
 40
0.4893617021276596
 40
0.4893617021276596
 40
0.5106382978723404
 40
0.5106382978723404
 40
0.5106382978723404
 40
0.5106382978723404
 40
0.5319148936170213
 40
0.5319148936170213
 40
0.5319148936170213
 40
0.5319148936170213
 40
0.5531914893617021
 40
0.5531914893617021
 40
0.5531914893617021
 40
0.5531914893617021
 40
0.574468085106383
 40
0.574468085106383
 40
0.574468085106383
 40
0.574468085106383
 40
0.5957446808510638
 40
0.5957446808510638
 40
0.5957446808510638
 40
0.5957446808510638
 40
0.6170212765957447
 40
0.6170212765957447
 40
0.6170212765957447
 40
0.6170212765957447
 40
0.6382978723404256
 40
0.6382978723404256
 40
0.6382978723404256
 40
0.6382978723404256
 40
0.6595744680851063
 40
0.6595744680851063
 40
0.6595744680851063
 40
0.6595744680851063
 40
0.6808510638297872
 40
0.6808510638297872
 40
0.6808510638297872
 40
0.6808510638297872
 40
0.7021276595744681
 40
0.7021276595744681
 40
0.7021276595744681
 40
0.7021276595744681
 40
0.723404255319149
 40
0.723404255319149
 40
0.723404255319149
 40
0.723404255319149
 40
0.7446808510638298
 40
0.7446808510638298
 40
0.7446808510638298
 40
0.7446808510638298
 40
0.7659574468085106
 40
0.7659574468085106
 40
0.7659574468085106
 40
0.7659574468085106
 40
0.7872340425531915
 40
0.7872340425531915
 40
0.7872340425531915
 40
0.7872340425531915
 40
0.8085106382978723
 40
0.8085106382978723
 40
0.8085106382978723
 40
0.8085106382978723
 40
0.8297872340425532
 40
0.8297872340425532
 40
0.8297872340425532
 40
0.8297872340425532
 40
0.851063829787234
 40
0.851063829787234
 40
0.851063829787234
 40
0.851063829787234
 40
0.8723404255319149
 40
0.8723404255319149
 40
0.8723404255319149
 40
0.8723404255319149
 40
0.8936170212765957
 40
0.8936170212765957
 40
0.8936170212765957
 40
0.8936170212765957
 40
0.9148936170212766
 40
0.9148936170212766
 40
0.9148936170212766
 40
0.9148936170212766
 40
0.9361702127659575
 40
0.9361702127659575
 40
0.9361702127659575
 40
0.9361702127659575
 40
0.9574468085106383
 40
0.9574468085106383
 40
0.9574468085106383
 40
0.9574468085106383
 40
1.0
 40
1.0
 40
1.0
 40
1.0
 10
-5.23935
 20
-5.61788
 30
0.0
 10
-5.23935
 20
-5.61788
 30
0.0
 10
-5.23935
 20
-3.9903
 30
0.0
 10
-5.23935
 20
-3.9903
 30
0.0
 10
-5.23935
 20
-3.9903
 30
0.0
 10
-5.21747
 20
-3.90272
 30
0.0
 10
-5.19617
 20
-3.89608
 30
0.0
 10
-5.17823
 20
-3.88367
 30
0.0
 10
-5.17823
 20
-3.88367
 30
0.0
 10
-5.14151
 20
-3.85816
 30
0.0
 10
-5.0928
 20
-3.85816
 30
0.0
 10
-5.05602
 20
-3.88367
 30
0.0
 10
-5.05602
 20
-3.88367
 30
0.0
 10
-5.01919
 20
-3.90915
 30
0.0
 10
-4.97051
 20
-3.90915
 30
0.0
 10
-4.93381
 20
-3.88367
 30
0.0
 10
-4.93381
 20
-3.88367
 30
0.0
 10
-4.89706
 20
-3.85816
 30
0.0
 10
-4.84838
 20
-3.85816
 30
0.0
 10
-4.81155
 20
-3.88367
 30
0.0
 10
-4.81155
 20
-3.88367
 30
0.0
 10
-4.77485
 20
-3.90915
 30
0.0
 10
-4.72617
 20
-3.90915
 30
0.0
 10
-4.68942
 20
-3.88367
 30
0.0
 10
-4.68942
 20
-3.88367
 30
0.0
 10
-4.65259
 20
-3.85816
 30
0.0
 10
-4.60399
 20
-3.85816
 30
0.0
 10
-4.56721
 20
-3.88367
 30
0.0
 10
-4.56721
 20
-3.88367
 30
0.0
 10
-4.53046
 20
-3.90915
 30
0.0
 10
-4.48183
 20
-3.90915
 30
0.0
 10
-4.44503
 20
-3.88367
 30
0.0
 10
-4.44503
 20
-3.88367
 30
0.0
 10
-4.40828
 20
-3.85816
 30
0.0
 10
-4.35954
 20
-3.85816
 30
0.0
 10
-4.32279
 20
-3.88367
 30
0.0
 10
-4.32279
 20
-3.88367
 30
0.0
 10
-4.28607
 20
-3.90915
 30
0.0
 10
-4.23741
 20
-3.90915
 30
0.0
 10
-4.20058
 20
-3.88367
 30
0.0
 10
-4.20058
 20
-3.88367
 30
0.0
 10
-4.16383
 20
-3.85816
 30
0.0
 10
-4.1152
 20
-3.85816
 30
0.0
 10
-4.07845
 20
-3.88367
 30
0.0
 10
-4.07845
 20
-3.88367
 30
0.0
 10
-4.0417
 20
-3.90915
 30
0.0
 10
-3.99296
 20
-3.90915
 30
0.0
 10
-3.95627
 20
-3.88367
 30
0.0
 10
-3.95627
 20
-3.88367
 30
0.0
 10
-3.91944
 20
-3.85816
 30
0.0
 10
-3.87084
 20
-3.85816
 30
0.0
 10
-3.83401
 20
-3.88367
 30
0.0
 10
-3.83401
 20
-3.88367
 30
0.0
 10
-3.79731
 20
-3.90915
 30
0.0
 10
-3.74858
 20
-3.90915
 30
0.0
 10
-3.71183
 20
-3.88367
 30
0.0
 10
-3.71183
 20
-3.88367
 30
0.0
 10
-3.67508
 20
-3.85816
 30
0.0
 10
-3.62634
 20
-3.85816
 30
0.0
 10
-3.58962
 20
-3.88367
 30
0.0
 10
-3.58962
 20
-3.88367
 30
0.0
 10
-3.55287
 20
-3.90915
 30
0.0
 10
-3.50419
 20
-3.90915
 30
0.0
 10
-3.46738
 20
-3.88367
 30
0.0
 10
-3.46738
 20
-3.88367
 30
0.0
 10
-3.43066
 20
-3.85816
 30
0.0
 10
-3.382
 20
-3.85816
 30
0.0
 10
-3.34525
 20
-3.88367
 30
0.0
 10
-3.34525
 20
-3.88367
 30
0.0
 10
-3.30855
 20
-3.90915
 30
0.0
 10
-3.25982
 20
-3.90915
 30
0.0
 10
-3.22307
 20
-3.88367
 30
0.0
 10
-3.22307
 20
-3.88367
 30
0.0
 10
-3.18632
 20
-3.85816
 30
0.0
 10
-3.13769
 20
-3.85816
 30
0.0
 10
-3.10086
 20
-3.88367
 30
0.0
 10
-3.10086
 20
-3.88367
 30
0.0
 10
-3.06411
 20
-3.90915
 30
0.0
 10
-3.01543
 20
-3.90915
 30
0.0
 10
-2.97873
 20
-3.88367
 30
0.0
 10
-2.97873
 20
-3.88367
 30
0.0
 10
-2.94198
 20
-3.85816
 30
0.0
 10
-2.89322
 20
-3.85816
 30
0.0
 10
-2.85647
 20
-3.88367
 30
0.0
 10
-2.85647
 20
-3.88367
 30
0.0
 10
-2.81964
 20
-3.90915
 30
0.0
 10
-2.77104
 20
-3.90915
 30
0.0
 10
-2.73415
 20
-3.88367
 30
0.0
 10
-2.73415
 20
-3.88367
 30
0.0
 10
-2.69743
 20
-3.85816
 30
0.0
 10
-2.64877
 20
-3.85816
 30
0.0
 10
-2.61204
 20
-3.88367
 30
0.0
 10
-2.61204
 20
-3.88367
 30
0.0
 10
-2.57529
 20
-3.90915
 30
0.0
 10
-2.52661
 20
-3.90915
 30
0.0
 10
-2.4898
 20
-3.88367
 30
0.0
 10
-2.4898
 20
-3.88367
 30
0.0
 10
-2.4531
 20
-3.85816
 30
0.0
 10
-2.40442
 20
-3.85816
 30
0.0
 10
-2.36762
 20
-3.88367
 30
0.0
 10
-2.36762
 20
-3.88367
 30
0.0
 10
-2.33087
 20
-3.90915
 30
0.0
 10
-2.28224
 20
-3.90915
 30
0.0
 10
-2.24549
 20
-3.88367
 30
0.0
 10
-2.24549
 20
-3.88367
 30
0.0
 10
-2.20874
 20
-3.85816
 30
0.0
 10
-2.15998
 20
-3.85816
 30
0.0
 10
-2.12328
 20
-3.88367
 30
0.0
 10
-2.12328
 20
-3.88367
 30
0.0
 10
-2.08653
 20
-3.90915
 30
0.0
 10
-2.03779
 20
-3.90915
 30
0.0
 10
-2.00102
 20
-3.88367
 30
0.0
 10
-2.00102
 20
-3.88367
 30
0.0
 10
-1.96432
 20
-3.85816
 30
0.0
 10
-1.91553
 20
-3.85816
 30
0.0
 10
-1.87881
 20
-3.88367
 30
0.0
 10
-1.87881
 20
-3.88367
 30
0.0
 10
-1.84206
 20
-3.90915
 30
0.0
 10
-1.79343
 20
-3.90915
 30
0.0
 10
-1.75668
 20
-3.88367
 30
0.0
 10
-1.75668
 20
-3.88367
 30
0.0
 10
-1.71988
 20
-3.85816
 30
0.0
 10
-1.67119
 20
-3.85816
 30
0.0
 10
-1.63439
 20
-3.88367
 30
0.0
 10
-1.63439
 20
-3.88367
 30
0.0
 10
-1.59767
 20
-3.90915
 30
0.0
 10
-1.54901
 20
-3.90915
 30
0.0
 10
-1.51226
 20
-3.88367
 30
0.0
 10
-1.51226
 20
-3.88367
 30
0.0
 10
-1.47554
 20
-3.85816
 30
0.0
 10
-1.42675
 20
-3.85816
 30
0.0
 10
-1.39005
 20
-3.88367
 30
0.0
 10
-1.39005
 20
-3.88367
 30
0.0
 10
-1.3533
 20
-3.90915
 30
0.0
 10
-1.30456
 20
-3.90915
 30
0.0
 10
-1.26787
 20
-3.88367
 30
0.0
 10
-1.26787
 20
-3.88367
 30
0.0
 10
-1.23112
 20
-3.85816
 30
0.0
 10
-1.18244
 20
-3.85816
 30
0.0
 10
-1.14574
 20
-3.88367
 30
0.0
 10
-1.14574
 20
-3.88367
 30
0.0
 10
-1.10891
 20
-3.90915
 30
0.0
 10
-1.06023
 20
-3.90915
 30
0.0
 10
-1.02348
 20
-3.88367
 30
0.0
 10
-1.02348
 20
-3.88367
 30
0.0
 10
-0.98678
 20
-3.85816
 30
0.0
 10
-0.93805
 20
-3.85816
 30
0.0
 10
-0.9013
 20
-3.88367
 30
0.0
 10
-0.9013
 20
-3.88367
 30
0.0
 10
-0.86455
 20
-3.90915
 30
0.0
 10
-0.81581
 20
-3.90915
 30
0.0
 10
-0.77909
 20
-3.88367
 30
0.0
 10
-0.77909
 20
-3.88367
 30
0.0
 10
-0.74223
 20
-3.85816
 30
0.0
 10
-0.6936
 20
-3.85816
 30
0.0
 10
-0.65696
 20
-3.88367
 30
0.0
 10
-0.65696
 20
-3.88367
 30
0.0
 10
-0.62013
 20
-3.90915
 30
0.0
 10
-0.57147
 20
-3.90915
 30
0.0
 10
-0.53464
 20
-3.88367
 30
0.0
 10
-0.53464
 20
-3.88367
 30
0.0
 10
-0.49789
 20
-3.85816
 30
0.0
 10
-0.44926
 20
-3.85816
 30
0.0
 10
-0.41238
 20
-3.88367
 30
0.0
 10
-0.41238
 20
-3.88367
 30
0.0
 10
-0.37568
 20
-3.90915
 30
0.0
 10
-0.327
 20
-3.90915
 30
0.0
 10
-0.2903
 20
-3.88367
 30
0.0
 10
-0.2903
 20
-3.88367
 30
0.0
 10
-0.25355
 20
-3.85816
 30
0.0
 10
-0.20479
 20
-3.85816
 30
0.0
 10
-0.16801
 20
-3.88367
 30
0.0
 10
-0.16801
 20
-3.88367
 30
0.0
 10
-0.13134
 20
-3.90915
 30
0.0
 10
-0.08263
 20
-3.90915
 30
0.0
 10
-0.04583
 20
-3.88367
 30
0.0
 10
-0.04583
 20
-3.88367
 30
0.0
 10
-0.02032
 20
-3.866
 30
0.0
 10
0.01158
 20
-3.86025
 30
0.0
 10
0.04164
 20
-3.8679
 30
0.0
 10
0.04164
 20
-3.8679
 30
0.0
 10
0.04164
 20
-3.8679
 30
0.0
 10
0.13745
 20
-4.00204
 30
0.0
 10
0.13745
 20
-4.00204
 30
0.0
  0
SPLINE
  5
44
330
1F
100
AcDbEntity
  8
Camada 1
370
    53
100
AcDbSpline
210
0.0
220
0.0
230
1.0
 70
     8
 71
     3
 72
    24
 73
    20
 74
     0
 42
0.0000000001
 43
0.0000000001
 12
1.0
 22
0.0
 32
0.0
 13
1.0
 23
0.0
 33
0.0
 40
0.0
 40
0.0
 40
0.0
 40
0.0
 40
0.1666666666666667
 40
0.1666666666666667
 40
0.1666666666666667
 40
0.1666666666666667
 40
0.3333333333333333
 40
0.3333333333333333
 40
0.3333333333333333
 40
0.3333333333333333
 40
0.5
 40
0.5
 40
0.5
 40
0.5
 40
0.6666666666666666
 40
0.6666666666666666
 40
0.6666666666666666
 40
0.6666666666666666
 40
1.0
 40
1.0
 40
1.0
 40
1.0
 10
5.30031
 20
-6.59883
 30
0.0
 10
5.30031
 20
-6.59883
 30
0.0
 10
5.45316
 20
-6.59883
 30
0.0
 10
5.45316
 20
-6.59883
 30
0.0
 10
5.45316
 20
-6.59883
 30
0.0
 10
5.45316
 20
-6.59883
 30
0.0
 10
6.00301
 20
-7.14866
 30
0.0
 10
6.00301
 20
-7.14866
 30
0.0
 10
6.00301
 20
-7.14866
 30
0.0
 10
6.00301
 20
-7.14866
 30
0.0
 10
6.00301
 20
-9.01926
 30
0.0
 10
6.00301
 20
-9.01926
 30
0.0
 10
6.00301
 20
-9.01926
 30
0.0
 10
6.00301
 20
-9.01926
 30
0.0
 10
3.2229
 20
-9.16489
 30
0.0
 10
3.2229
 20
-9.16489
 30
0.0
 10
3.2229
 20
-9.16489
 30
0.0
 10
3.2229
 20
-9.16489
 30
0.0
 10
3.1924
 20
-9.1955
 30
0.0
 10
3.1924
 20
-9.1955
 30
0.0
  0
SPLINE
  5
45
330
1F
100
AcDbEntity
  8
Camada 1
370
    53
100
AcDbSpline
210
0.0
220
0.0
230
1.0
 70
     8
 71
     3
 72
    16
 73
    12
 74
     0
 42
0.0000000001
 43
0.0000000001
 12
1.0
 22
0.0
 32
0.0
 13
1.0
 23
0.0
 33
0.0
 40
0.0
 40
0.0
 40
0.0
 40
0.0
 40
0.25
 40
0.25
 40
0.25
 40
0.25
 40
0.5
 40
0.5
 40
0.5
 40
0.5
 40
1.0
 40
1.0
 40
1.0
 40
1.0
 10
3.1924
 20
-9.1955
 30
0.0
 10
3.1924
 20
-9.1955
 30
0.0
 10
2.67313
 20
-9.71485
 30
0.0
 10
2.67313
 20
-9.71485
 30
0.0
 10
2.67313
 20
-9.71485
 30
0.0
 10
2.67313
 20
-9.71485
 30
0.0
 10
0.27661
 20
-9.71485
 30
0.0
 10
0.27661
 20
-9.71485
 30
0.0
 10
0.27661
 20
-9.71485
 30
0.0
 10
0.27661
 20
-9.71485
 30
0.0
 10
0.13744
 20
-9.1955
 30
0.0
 10
0.13744
 20
-9.1955
 30
0.0
  0
SPLINE
  5
46
330
1F
100
AcDbEntity
  8
Camada 1
370
    53
100
AcDbSpline
210
0.0
220
0.0
230
1.0
 70
     8
 71
     3
 72
    36
 73
    32
 74
     0
 42
0.0000000001
 43
0.0000000001
 12
1.0
 22
0.0
 32
0.0
 13
1.0
 23
0.0
 33
0.0
 40
0.0
 40
0.0
 40
0.0
 40
0.0
 40
0.1111111111111111
 40
0.1111111111111111
 40
0.1111111111111111
 40
0.1111111111111111
 40
0.2222222222222222
 40
0.2222222222222222
 40
0.2222222222222222
 40
0.2222222222222222
 40
0.3333333333333333
 40
0.3333333333333333
 40
0.3333333333333333
 40
0.3333333333333333
 40
0.4444444444444444
 40
0.4444444444444444
 40
0.4444444444444444
 40
0.4444444444444444
 40
0.5555555555555556
 40
0.5555555555555556
 40
0.5555555555555556
 40
0.5555555555555556
 40
0.6666666666666666
 40
0.6666666666666666
 40
0.6666666666666666
 40
0.6666666666666666
 40
0.7777777777777778
 40
0.7777777777777778
 40
0.7777777777777778
 40
0.7777777777777778
 40
1.0
 40
1.0
 40
1.0
 40
1.0
 10
5.33089
 20
-6.59883
 30
0.0
 10
5.33089
 20
-6.59883
 30
0.0
 10
5.33089
 20
-6.14052
 30
0.0
 10
5.33089
 20
-6.14052
 30
0.0
 10
5.33089
 20
-6.14052
 30
0.0
 10
5.33089
 20
-6.14052
 30
0.0
 10
6.00301
 20
-5.46845
 30
0.0
 10
6.00301
 20
-5.46845
 30
0.0
 10
6.00301
 20
-5.46845
 30
0.0
 10
6.00301
 20
-5.46845
 30
0.0
 10
6.00301
 20
-4.09367
 30
0.0
 10
6.00301
 20
-4.09367
 30
0.0
 10
6.00301
 20
-4.09367
 30
0.0
 10
6.00301
 20
-4.09367
 30
0.0
 10
3.61928
 20
-4.09367
 30
0.0
 10
3.61928
 20
-4.09367
 30
0.0
 10
3.61928
 20
-4.09367
 30
0.0
 10
3.61928
 20
-4.09367
 30
0.0
 10
3.44082
 20
-4.27213
 30
0.0
 10
3.44082
 20
-4.27213
 30
0.0
 10
3.44082
 20
-4.27213
 30
0.0
 10
3.44082
 20
-4.27213
 30
0.0
 10
3.20404
 20
-4.03535
 30
0.0
 10
3.20404
 20
-4.03535
 30
0.0
 10
3.20404
 20
-4.03535
 30
0.0
 10
3.19658
 20
-4.02786
 30
0.0
 10
3.19242
 20
-4.01776
 30
0.0
 10
3.19242
 20
-4.00722
 30
0.0
 10
3.19242
 20
-4.00722
 30
0.0
 10
3.19242
 20
-4.00722
 30
0.0
 10
3.19242
 20
-3.99687
 30
0.0
 10
3.19242
 20
-3.99687
 30
0.0
  0
SPLINE
  5
47
330
1F
100
AcDbEntity
  8
Camada 1
370
    53
100
AcDbSpline
210
0.0
220
0.0
230
1.0
 70
     8
 71
     3
 72
    12
 73
     8
 74
     0
 42
0.0000000001
 43
0.0000000001
 12
1.0
 22
0.0
 32
0.0
 13
1.0
 23
0.0
 33
0.0
 40
0.0
 40
0.0
 40
0.0
 40
0.0
 40
0.3333333333333333
 40
0.3333333333333333
 40
0.3333333333333333
 40
0.3333333333333333
 40
1.0
 40
1.0
 40
1.0
 40
1.0
 10
0.15278
 20
1.8635
 30
0.0
 10
0.15278
 20
1.8635
 30
0.0
 10
0.10685
 20
1.8635
 30
0.0
 10
0.10685
 20
1.8635
 30
0.0
 10
0.10685
 20
1.8635
 30
0.0
 10
0.10685
 20
1.8635
 30
0.0
 10
0.10685
 20
2.40328
 30
0.0
 10
0.10685
 20
2.40328
 30
0.0
  0
SPLINE
  5
48
330
1F
100
AcDbEntity
  8
Camada 1
370
    53
100
AcDbSpline
210
0.0
220
0.0
230
1.0
 70
    24
 71
     3
 72
     8
 73
     4
 74
     0
 42
0.0000000001
 43
0.0000000001
 12
1.0
 22
0.0
 32
0.0
 13
1.0
 23
0.0
 33
0.0
 40
0.0
 40
0.0
 40
0.0
 40
0.0
 40
1.0
 40
1.0
 40
1.0
 40
1.0
 10
0.71796
 20
3.32985
 30
0.0
 10
0.71796
 20
3.32985
 30
0.0
 10
0.13744
 20
3.32985
 30
0.0
 10
0.13744
 20
3.32985
 30
0.0
  0
SPLINE
  5
49
330
1F
100
AcDbEntity
  8
Camada 1
370
    53
100
AcDbSpline
210
0.0
220
0.0
230
1.0
 70
    24
 71
     3
 72
     8
 73
     4
 74
     0
 42
0.0000000001
 43
0.0000000001
 12
1.0
 22
0.0
 32
0.0
 13
1.0
 23
0.0
 33
0.0
 40
0.0
 40
0.0
 40
0.0
 40
0.0
 40
1.0
 40
1.0
 40
1.0
 40
1.0
 10
0.13744
 20
2.41346
 30
0.0
 10
0.13744
 20
2.41346
 30
0.0
 10
0.71796
 20
2.41346
 30
0.0
 10
0.71796
 20
2.41346
 30
0.0
  0
SPLINE
  5
4A
330
1F
100
AcDbEntity
  8
Camada 1
370
    53
100
AcDbSpline
210
0.0
220
0.0
230
1.0
 70
     8
 71
     3
 72
    16
 73
    12
 74
     0
 42
0.0000000001
 43
0.0000000001
 12
1.0
 22
0.0
 32
0.0
 13
1.0
 23
0.0
 33
0.0
 40
0.0
 40
0.0
 40
0.0
 40
0.0
 40
0.25
 40
0.25
 40
0.25
 40
0.25
 40
0.5
 40
0.5
 40
0.5
 40
0.5
 40
1.0
 40
1.0
 40
1.0
 40
1.0
 10
0.13744
 20
3.05495
 30
0.0
 10
0.13744
 20
3.05495
 30
0.0
 10
0.08394
 20
3.05495
 30
0.0
 10
0.08394
 20
3.05495
 30
0.0
 10
0.08394
 20
3.05495
 30
0.0
 10
0.08394
 20
3.05495
 30
0.0
 10
0.08394
 20
2.68834
 30
0.0
 10
0.08394
 20
2.68834
 30
0.0
 10
0.08394
 20
2.68834
 30
0.0
 10
0.08394
 20
2.68834
 30
0.0
 10
0.13744
 20
2.68834
 30
0.0
 10
0.13744
 20
2.68834
 30
0.0
  0
SPLINE
  5
4B
330
1F
100
AcDbEntity
  8
Camada 1
370
    53
100
AcDbSpline
210
0.0
220
0.0
230
1.0
 70
     8
 71
     3
 72
    24
 73
    20
 74
     0
 42
0.0000000001
 43
0.0000000001
 12
1.0
 22
0.0
 32
0.0
 13
1.0
 23
0.0
 33
0.0
 40
0.0
 40
0.0
 40
0.0
 40
0.0
 40
0.1666666666666667
 40
0.1666666666666667
 40
0.1666666666666667
 40
0.1666666666666667
 40
0.3333333333333333
 40
0.3333333333333333
 40
0.3333333333333333
 40
0.3333333333333333
 40
0.5
 40
0.5
 40
0.5
 40
0.5
 40
0.6666666666666666
 40
0.6666666666666666
 40
0.6666666666666666
 40
0.6666666666666666
 40
1.0
 40
1.0
 40
1.0
 40
1.0
 10
0.09164
 20
2.39822
 30
0.0
 10
0.09164
 20
2.39822
 30
0.0
 10
-0.02359
 20
2.42902
 30
0.0
 10
-0.02359
 20
2.42902
 30
0.0
 10
-0.02359
 20
2.42902
 30
0.0
 10
-0.22401
 20
2.48262
 30
0.0
 10
-0.36326
 20
2.66429
 30
0.0
 10
-0.36326
 20
2.87172
 30
0.0
 10
-0.36326
 20
2.87172
 30
0.0
 10
-0.36326
 20
3.0791
 30
0.0
 10
-0.22401
 20
3.26063
 30
0.0
 10
-0.02359
 20
3.31429
 30
0.0
 10
-0.02359
 20
3.31429
 30
0.0
 10
-0.02359
 20
3.31429
 30
0.0
 10
0.09164
 20
3.34519
 30
0.0
 10
0.09164
 20
3.34519
 30
0.0
 10
0.09164
 20
3.34519
 30
0.0
 10
0.09164
 20
3.34519
 30
0.0
 10
0.13741
 20
3.32982
 30
0.0
 10
0.13741
 20
3.32982
 30
0.0
  0
SPLINE
  5
4C
330
1F
100
AcDbEntity
  8
Camada 1
370
    53
100
AcDbSpline
210
0.0
220
0.0
230
1.0
 70
     8
 71
     3
 72
    12
 73
     8
 74
     0
 42
0.0000000001
 43
0.0000000001
 12
1.0
 22
0.0
 32
0.0
 13
1.0
 23
0.0
 33
0.0
 40
0.0
 40
0.0
 40
0.0
 40
0.0
 40
0.3333333333333333
 40
0.3333333333333333
 40
0.3333333333333333
 40
0.3333333333333333
 40
1.0
 40
1.0
 40
1.0
 40
1.0
 10
0.10685
 20
3.34014
 30
0.0
 10
0.10685
 20
3.34014
 30
0.0
 10
0.10685
 20
3.87978
 30
0.0
 10
0.10685
 20
3.87978
 30
0.0
 10
0.10685
 20
3.87978
 30
0.0
 10
0.10685
 20
3.87978
 30
0.0
 10
0.15278
 20
3.87978
 30
0.0
 10
0.15278
 20
3.87978
 30
0.0
  0
SPLINE
  5
4D
330
1F
100
AcDbEntity
  8
Camada 1
370
    53
100
AcDbSpline
210
0.0
220
0.0
230
1.0
 70
     8
 71
     3
 72
    20
 73
    16
 74
     0
 42
0.0000000001
 43
0.0000000001
 12
1.0
 22
0.0
 32
0.0
 13
1.0
 23
0.0
 33
0.0
 40
0.0
 40
0.0
 40
0.0
 40
0.0
 40
0.2
 40
0.2
 40
0.2
 40
0.2
 40
0.4
 40
0.4
 40
0.4
 40
0.4
 40
0.6
 40
0.6
 40
0.6
 40
0.6
 40
1.0
 40
1.0
 40
1.0
 40
1.0
 10
3.2229
 20
0.30547
 30
0.0
 10
3.2229
 20
0.30547
 30
0.0
 10
6.00301
 20
0.4511
 30
0.0
 10
6.00301
 20
0.4511
 30
0.0
 10
6.00301
 20
0.4511
 30
0.0
 10
6.00301
 20
0.4511
 30
0.0
 10
6.00301
 20
2.32171
 30
0.0
 10
6.00301
 20
2.32171
 30
0.0
 10
6.00301
 20
2.32171
 30
0.0
 10
6.00301
 20
2.32171
 30
0.0
 10
5.45316
 20
2.87175
 30
0.0
 10
5.45316
 20
2.87175
 30
0.0
 10
5.45316
 20
2.87175
 30
0.0
 10
5.45316
 20
2.87175
 30
0.0
 10
5.30031
 20
2.87175
 30
0.0
 10
5.30031
 20
2.87175
 30
0.0
  0
SPLINE
  5
4E
330
1F
100
AcDbEntity
  8
Camada 1
370
    53
100
AcDbSpline
210
0.0
220
0.0
230
1.0
 70
     8
 71
     3
 72
    20
 73
    16
 74
     0
 42
0.0000000001
 43
0.0000000001
 12
1.0
 22
0.0
 32
0.0
 13
1.0
 23
0.0
 33
0.0
 40
0.0
 40
0.0
 40
0.0
 40
0.0
 40
0.2
 40
0.2
 40
0.2
 40
0.2
 40
0.4
 40
0.4
 40
0.4
 40
0.4
 40
0.6
 40
0.6
 40
0.6
 40
0.6
 40
1.0
 40
1.0
 40
1.0
 40
1.0
 10
-1.34664
 20
6.23214
 30
0.0
 10
-1.34664
 20
6.23214
 30
0.0
 10
-2.07496
 20
7.25174
 30
0.0
 10
-2.07496
 20
7.25174
 30
0.0
 10
-2.07496
 20
7.25174
 30
0.0
 10
-2.22667
 20
7.46428
 30
0.0
 10
-2.22667
 20
7.74963
 30
0.0
 10
-2.07496
 20
7.96196
 30
0.0
 10
-2.07496
 20
7.96196
 30
0.0
 10
-2.07496
 20
7.96196
 30
0.0
 10
-0.93201
 20
9.56208
 30
0.0
 10
-0.93201
 20
9.56208
 30
0.0
 10
-0.93201
 20
9.56208
 30
0.0
 10
-0.93201
 20
9.56208
 30
0.0
 10
0.00652
 20
9.56208
 30
0.0
 10
0.00652
 20
9.56208
 30
0.0
  0
SPLINE
  5
4F
330
1F
100
AcDbEntity
  8
Camada 1
370
    53
100
AcDbSpline
210
0.0
220
0.0
230
1.0
 70
    24
 71
     3
 72
     8
 73
     4
 74
     0
 42
0.0000000001
 43
0.0000000001
 12
1.0
 22
0.0
 32
0.0
 13
1.0
 23
0.0
 33
0.0
 40
0.0
 40
0.0
 40
0.0
 40
0.0
 40
1.0
 40
1.0
 40
1.0
 40
1.0
 10
0.01319
 20
5.64244
 30
0.0
 10
0.01319
 20
5.64244
 30
0.0
 10
-0.0764
 20
5.57841
 30
0.0
 10
-0.0764
 20
5.57841
 30
0.0
  0
SPLINE
  5
50
330
1F
100
AcDbEntity
  8
Camada 1
370
    53
100
AcDbSpline
210
0.0
220
0.0
230
1.0
 70
     8
 71
     3
 72
    12
 73
     8
 74
     0
 42
0.0000000001
 43
0.0000000001
 12
1.0
 22
0.0
 32
0.0
 13
1.0
 23
0.0
 33
0.0
 40
0.0
 40
0.0
 40
0.0
 40
0.0
 40
0.3333333333333333
 40
0.3333333333333333
 40
0.3333333333333333
 40
0.3333333333333333
 40
1.0
 40
1.0
 40
1.0
 40
1.0
 10
3.1924
 20
9.71485
 30
0.0
 10
3.1924
 20
9.71485
 30
0.0
 10
0.13955
 20
9.71485
 30
0.0
 10
0.13955
 20
9.71485
 30
0.0
 10
0.13955
 20
9.71485
 30
0.0
 10
0.13955
 20
9.71485
 30
0.0
 10
0.0065
 20
9.56208
 30
0.0
 10
0.0065
 20
9.56208
 30
0.0
  0
SPLINE
  5
51
330
1F
100
AcDbEntity
  8
Camada 1
370
    53
100
AcDbSpline
210
0.0
220
0.0
230
1.0
 70
     8
 71
     3
 72
    36
 73
    32
 74
     0
 42
0.0000000001
 43
0.0000000001
 12
1.0
 22
0.0
 32
0.0
 13
1.0
 23
0.0
 33
0.0
 40
0.0
 40
0.0
 40
0.0
 40
0.0
 40
0.1111111111111111
 40
0.1111111111111111
 40
0.1111111111111111
 40
0.1111111111111111
 40
0.2222222222222222
 40
0.2222222222222222
 40
0.2222222222222222
 40
0.2222222222222222
 40
0.3333333333333333
 40
0.3333333333333333
 40
0.3333333333333333
 40
0.3333333333333333
 40
0.4444444444444444
 40
0.4444444444444444
 40
0.4444444444444444
 40
0.4444444444444444
 40
0.5555555555555556
 40
0.5555555555555556
 40
0.5555555555555556
 40
0.5555555555555556
 40
0.6666666666666666
 40
0.6666666666666666
 40
0.6666666666666666
 40
0.6666666666666666
 40
0.7777777777777778
 40
0.7777777777777778
 40
0.7777777777777778
 40
0.7777777777777778
 40
1.0
 40
1.0
 40
1.0
 40
1.0
 10
5.33089
 20
2.87175
 30
0.0
 10
5.33089
 20
2.87175
 30
0.0
 10
5.33089
 20
3.32985
 30
0.0
 10
5.33089
 20
3.32985
 30
0.0
 10
5.33089
 20
3.32985
 30
0.0
 10
5.33089
 20
3.32985
 30
0.0
 10
6.00301
 20
4.00202
 30
0.0
 10
6.00301
 20
4.00202
 30
0.0
 10
6.00301
 20
4.00202
 30
0.0
 10
6.00301
 20
4.00202
 30
0.0
 10
6.00301
 20
5.37672
 30
0.0
 10
6.00301
 20
5.37672
 30
0.0
 10
6.00301
 20
5.37672
 30
0.0
 10
6.00301
 20
5.37672
 30
0.0
 10
3.61928
 20
5.37672
 30
0.0
 10
3.61928
 20
5.37672
 30
0.0
 10
3.61928
 20
5.37672
 30
0.0
 10
3.61928
 20
5.37672
 30
0.0
 10
3.44082
 20
5.19836
 30
0.0
 10
3.44082
 20
5.19836
 30
0.0
 10
3.44082
 20
5.19836
 30
0.0
 10
3.44082
 20
5.19836
 30
0.0
 10
3.20404
 20
5.43514
 30
0.0
 10
3.20404
 20
5.43514
 30
0.0
 10
3.20404
 20
5.43514
 30
0.0
 10
3.19658
 20
5.44271
 30
0.0
 10
3.19242
 20
5.45273
 30
0.0
 10
3.19242
 20
5.46329
 30
0.0
 10
3.19242
 20
5.46329
 30
0.0
 10
3.19242
 20
5.46329
 30
0.0
 10
3.19242
 20
5.4735
 30
0.0
 10
3.19242
 20
5.4735
 30
0.0
  0
SPLINE
  5
52
330
1F
100
AcDbEntity
  8
Camada 1
370
    53
100
AcDbSpline
210
0.0
220
0.0
230
1.0
 70
    24
 71
     3
 72
     8
 73
     4
 74
     0
 42
0.0000000001
 43
0.0000000001
 12
1.0
 22
0.0
 32
0.0
 13
1.0
 23
0.0
 33
0.0
 40
0.0
 40
0.0
 40
0.0
 40
0.0
 40
1.0
 40
1.0
 40
1.0
 40
1.0
 10
-2.30041
 20
6.23214
 30
0.0
 10
-2.30041
 20
6.23214
 30
0.0
 10
-1.34664
 20
6.23214
 30
0.0
 10
-1.34664
 20
6.23214
 30
0.0
  0
SPLINE
  5
53
330
1F
100
AcDbEntity
  8
Camada 1
370
    53
100
AcDbSpline
210
0.0
220
0.0
230
1.0
 70
     8
 71
     3
 72
    16
 73
    12
 74
     0
 42
0.0000000001
 43
0.0000000001
 12
1.0
 22
0.0
 32
0.0
 13
1.0
 23
0.0
 33
0.0
 40
0.0
 40
0.0
 40
0.0
 40
0.0
 40
0.25
 40
0.25
 40
0.25
 40
0.25
 40
0.5
 40
0.5
 40
0.5
 40
0.5
 40
1.0
 40
1.0
 40
1.0
 40
1.0
 10
-0.0764
 20
0.16482
 30
0.0
 10
-0.0764
 20
0.16482
 30
0.0
 10
-0.0764
 20
0.27492
 30
0.0
 10
-0.0764
 20
0.27492
 30
0.0
 10
-0.0764
 20
0.27492
 30
0.0
 10
-0.0764
 20
0.27492
 30
0.0
 10
0.13744
 20
0.27492
 30
0.0
 10
0.13744
 20
0.27492
 30
0.0
 10
0.13744
 20
0.27492
 30
0.0
 10
0.13744
 20
0.27492
 30
0.0
 10
0.01319
 20
0.10098
 30
0.0
 10
0.01319
 20
0.10098
 30
0.0
  0
SPLINE
  5
54
330
1F
100
AcDbEntity
  8
Camada 1
370
    53
100
AcDbSpline
210
0.0
220
0.0
230
1.0
 70
     8
 71
     3
 72
    16
 73
    12
 74
     0
 42
0.0000000001
 43
0.0000000001
 12
1.0
 22
0.0
 32
0.0
 13
1.0
 23
0.0
 33
0.0
 40
0.0
 40
0.0
 40
0.0
 40
0.0
 40
0.25
 40
0.25
 40
0.25
 40
0.25
 40
0.5
 40
0.5
 40
0.5
 40
0.5
 40
1.0
 40
1.0
 40
1.0
 40
1.0
 10
-2.50509
 20
1.37474
 30
0.0
 10
-2.50509
 20
1.37474
 30
0.0
 10
-2.50509
 20
0.27492
 30
0.0
 10
-2.50509
 20
0.27492
 30
0.0
 10
-2.50509
 20
0.27492
 30
0.0
 10
-2.50509
 20
0.27492
 30
0.0
 10
-2.30041
 20
-0.48883
 30
0.0
 10
-2.30041
 20
-0.48883
 30
0.0
 10
-2.30041
 20
-0.48883
 30
0.0
 10
-2.30041
 20
-0.48883
 30
0.0
 10
-1.34664
 20
-0.48883
 30
0.0
 10
-1.34664
 20
-0.48883
 30
0.0
  0
SPLINE
  5
55
330
1F
100
AcDbEntity
  8
Camada 1
370
    53
100
AcDbSpline
210
0.0
220
0.0
230
1.0
 70
    24
 71
     3
 72
     8
 73
     4
 74
     0
 42
0.0000000001
 43
0.0000000001
 12
1.0
 22
0.0
 32
0.0
 13
1.0
 23
0.0
 33
0.0
 40
0.0
 40
0.0
 40
0.0
 40
0.0
 40
1.0
 40
1.0
 40
1.0
 40
1.0
 10
-2.50509
 20
3.76765
 30
0.0
 10
-2.50509
 20
3.76765
 30
0.0
 10
-2.50509
 20
1.97568
 30
0.0
 10
-2.50509
 20
1.97568
 30
0.0
  0
SPLINE
  5
56
330
1F
100
AcDbEntity
  8
Camada 1
370
    53
100
AcDbSpline
210
0.0
220
0.0
230
1.0
 70
     8
 71
     3
 72
    12
 73
     8
 74
     0
 42
0.0000000001
 43
0.0000000001
 12
1.0
 22
0.0
 32
0.0
 13
1.0
 23
0.0
 33
0.0
 40
0.0
 40
0.0
 40
0.0
 40
0.0
 40
0.3333333333333333
 40
0.3333333333333333
 40
0.3333333333333333
 40
0.3333333333333333
 40
1.0
 40
1.0
 40
1.0
 40
1.0
 10
-2.30041
 20
6.23214
 30
0.0
 10
-2.30041
 20
6.23214
 30
0.0
 10
-2.50509
 20
5.46845
 30
0.0
 10
-2.50509
 20
5.46845
 30
0.0
 10
-2.50509
 20
5.46845
 30
0.0
 10
-2.50509
 20
5.46845
 30
0.0
 10
-2.50509
 20
4.3686
 30
0.0
 10
-2.50509
 20
4.3686
 30
0.0
  0
SPLINE
  5
57
330
1F
100
AcDbEntity
  8
Camada 1
370
    53
100
AcDbSpline
210
0.0
220
0.0
230
1.0
 70
     8
 71
     3
 72
   184
 73
   180
 74
     0
 42
0.0000000001
 43
0.0000000001
 12
1.0
 22
0.0
 32
0.0
 13
1.0
 23
0.0
 33
0.0
 40
0.0
 40
0.0
 40
0.0
 40
0.0
 40
0.0217391304347826
 40
0.0217391304347826
 40
0.0217391304347826
 40
0.0217391304347826
 40
0.0434782608695652
 40
0.0434782608695652
 40
0.0434782608695652
 40
0.0434782608695652
 40
0.0652173913043478
 40
0.0652173913043478
 40
0.0652173913043478
 40
0.0652173913043478
 40
0.0869565217391304
 40
0.0869565217391304
 40
0.0869565217391304
 40
0.0869565217391304
 40
0.108695652173913
 40
0.108695652173913
 40
0.108695652173913
 40
0.108695652173913
 40
0.1304347826086956
 40
0.1304347826086956
 40
0.1304347826086956
 40
0.1304347826086956
 40
0.1521739130434783
 40
0.1521739130434783
 40
0.1521739130434783
 40
0.1521739130434783
 40
0.1739130434782609
 40
0.1739130434782609
 40
0.1739130434782609
 40
0.1739130434782609
 40
0.1956521739130435
 40
0.1956521739130435
 40
0.1956521739130435
 40
0.1956521739130435
 40
0.2173913043478261
 40
0.2173913043478261
 40
0.2173913043478261
 40
0.2173913043478261
 40
0.2391304347826087
 40
0.2391304347826087
 40
0.2391304347826087
 40
0.2391304347826087
 40
0.2608695652173913
 40
0.2608695652173913
 40
0.2608695652173913
 40
0.2608695652173913
 40
0.2826086956521739
 40
0.2826086956521739
 40
0.2826086956521739
 40
0.2826086956521739
 40
0.3043478260869565
 40
0.3043478260869565
 40
0.3043478260869565
 40
0.3043478260869565
 40
0.3260869565217391
 40
0.3260869565217391
 40
0.3260869565217391
 40
0.3260869565217391
 40
0.3478260869565217
 40
0.3478260869565217
 40
0.3478260869565217
 40
0.3478260869565217
 40
0.3695652173913043
 40
0.3695652173913043
 40
0.3695652173913043
 40
0.3695652173913043
 40
0.391304347826087
 40
0.391304347826087
 40
0.391304347826087
 40
0.391304347826087
 40
0.4130434782608696
 40
0.4130434782608696
 40
0.4130434782608696
 40
0.4130434782608696
 40
0.4347826086956522
 40
0.4347826086956522
 40
0.4347826086956522
 40
0.4347826086956522
 40
0.4565217391304348
 40
0.4565217391304348
 40
0.4565217391304348
 40
0.4565217391304348
 40
0.4782608695652174
 40
0.4782608695652174
 40
0.4782608695652174
 40
0.4782608695652174
 40
0.5
 40
0.5
 40
0.5
 40
0.5
 40
0.5217391304347826
 40
0.5217391304347826
 40
0.5217391304347826
 40
0.5217391304347826
 40
0.5434782608695652
 40
0.5434782608695652
 40
0.5434782608695652
 40
0.5434782608695652
 40
0.5652173913043478
 40
0.5652173913043478
 40
0.5652173913043478
 40
0.5652173913043478
 40
0.5869565217391305
 40
0.5869565217391305
 40
0.5869565217391305
 40
0.5869565217391305
 40
0.6086956521739131
 40
0.6086956521739131
 40
0.6086956521739131
 40
0.6086956521739131
 40
0.6304347826086957
 40
0.6304347826086957
 40
0.6304347826086957
 40
0.6304347826086957
 40
0.6521739130434783
 40
0.6521739130434783
 40
0.6521739130434783
 40
0.6521739130434783
 40
0.6739130434782609
 40
0.6739130434782609
 40
0.6739130434782609
 40
0.6739130434782609
 40
0.6956521739130435
 40
0.6956521739130435
 40
0.6956521739130435
 40
0.6956521739130435
 40
0.717391304347826
 40
0.717391304347826
 40
0.717391304347826
 40
0.717391304347826
 40
0.7391304347826086
 40
0.7391304347826086
 40
0.7391304347826086
 40
0.7391304347826086
 40
0.7608695652173914
 40
0.7608695652173914
 40
0.7608695652173914
 40
0.7608695652173914
 40
0.782608695652174
 40
0.782608695652174
 40
0.782608695652174
 40
0.782608695652174
 40
0.8043478260869565
 40
0.8043478260869565
 40
0.8043478260869565
 40
0.8043478260869565
 40
0.8260869565217391
 40
0.8260869565217391
 40
0.8260869565217391
 40
0.8260869565217391
 40
0.8478260869565217
 40
0.8478260869565217
 40
0.8478260869565217
 40
0.8478260869565217
 40
0.8695652173913043
 40
0.8695652173913043
 40
0.8695652173913043
 40
0.8695652173913043
 40
0.8913043478260869
 40
0.8913043478260869
 40
0.8913043478260869
 40
0.8913043478260869
 40
0.9130434782608695
 40
0.9130434782608695
 40
0.9130434782608695
 40
0.9130434782608695
 40
0.9347826086956522
 40
0.9347826086956522
 40
0.9347826086956522
 40
0.9347826086956522
 40
0.9565217391304348
 40
0.9565217391304348
 40
0.9565217391304348
 40
0.9565217391304348
 40
1.0
 40
1.0
 40
1.0
 40
1.0
 10
0.13744
 20
-9.1955
 30
0.0
 10
0.13744
 20
-9.1955
 30
0.0
 10
0.04163
 20
-9.32975
 30
0.0
 10
0.04163
 20
-9.32975
 30
0.0
 10
0.04163
 20
-9.32975
 30
0.0
 10
0.01157
 20
-9.33732
 30
0.0
 10
-0.02034
 20
-9.33155
 30
0.0
 10
-0.04584
 20
-9.31385
 30
0.0
 10
-0.04584
 20
-9.31385
 30
0.0
 10
-0.08264
 20
-9.28834
 30
0.0
 10
-0.13133
 20
-9.28834
 30
0.0
 10
-0.16802
 20
-9.31385
 30
0.0
 10
-0.16802
 20
-9.31385
 30
0.0
 10
-0.2048
 20
-9.33933
 30
0.0
 10
-0.25353
 20
-9.33933
 30
0.0
 10
-0.29031
 20
-9.31385
 30
0.0
 10
-0.29031
 20
-9.31385
 30
0.0
 10
-0.32701
 20
-9.28834
 30
0.0
 10
-0.37569
 20
-9.28834
 30
0.0
 10
-0.41239
 20
-9.31385
 30
0.0
 10
-0.41239
 20
-9.31385
 30
0.0
 10
-0.44927
 20
-9.33933
 30
0.0
 10
-0.4979
 20
-9.33933
 30
0.0
 10
-0.53465
 20
-9.31385
 30
0.0
 10
-0.53465
 20
-9.31385
 30
0.0
 10
-0.57148
 20
-9.28834
 30
0.0
 10
-0.62014
 20
-9.28834
 30
0.0
 10
-0.65697
 20
-9.31385
 30
0.0
 10
-0.65697
 20
-9.31385
 30
0.0
 10
-0.69361
 20
-9.33933
 30
0.0
 10
-0.74225
 20
-9.33933
 30
0.0
 10
-0.7791
 20
-9.31385
 30
0.0
 10
-0.7791
 20
-9.31385
 30
0.0
 10
-0.81582
 20
-9.28834
 30
0.0
 10
-0.86453
 20
-9.28834
 30
0.0
 10
-0.90131
 20
-9.31385
 30
0.0
 10
-0.90131
 20
-9.31385
 30
0.0
 10
-0.93806
 20
-9.33933
 30
0.0
 10
-0.9868
 20
-9.33933
 30
0.0
 10
-1.02349
 20
-9.31385
 30
0.0
 10
-1.02349
 20
-9.31385
 30
0.0
 10
-1.06024
 20
-9.28834
 30
0.0
 10
-1.10892
 20
-9.28834
 30
0.0
 10
-1.14575
 20
-9.31385
 30
0.0
 10
-1.14575
 20
-9.31385
 30
0.0
 10
-1.18245
 20
-9.33933
 30
0.0
 10
-1.23113
 20
-9.33933
 30
0.0
 10
-1.26788
 20
-9.31385
 30
0.0
 10
-1.26788
 20
-9.31385
 30
0.0
 10
-1.30458
 20
-9.28834
 30
0.0
 10
-1.35331
 20
-9.28834
 30
0.0
 10
-1.39006
 20
-9.31385
 30
0.0
 10
-1.39006
 20
-9.31385
 30
0.0
 10
-1.42676
 20
-9.33933
 30
0.0
 10
-1.47555
 20
-9.33933
 30
0.0
 10
-1.51227
 20
-9.31385
 30
0.0
 10
-1.51227
 20
-9.31385
 30
0.0
 10
-1.54902
 20
-9.28834
 30
0.0
 10
-1.5977
 20
-9.28834
 30
0.0
 10
-1.6344
 20
-9.31385
 30
0.0
 10
-1.6344
 20
-9.31385
 30
0.0
 10
-1.6712
 20
-9.33933
 30
0.0
 10
-1.71989
 20
-9.33933
 30
0.0
 10
-1.75669
 20
-9.31385
 30
0.0
 10
-1.75669
 20
-9.31385
 30
0.0
 10
-1.79344
 20
-9.28834
 30
0.0
 10
-1.84207
 20
-9.28834
 30
0.0
 10
-1.87882
 20
-9.31385
 30
0.0
 10
-1.87882
 20
-9.31385
 30
0.0
 10
-1.91554
 20
-9.33933
 30
0.0
 10
-1.96433
 20
-9.33933
 30
0.0
 10
-2.00103
 20
-9.31385
 30
0.0
 10
-2.00103
 20
-9.31385
 30
0.0
 10
-2.03778
 20
-9.28834
 30
0.0
 10
-2.08652
 20
-9.28834
 30
0.0
 10
-2.12329
 20
-9.31385
 30
0.0
 10
-2.12329
 20
-9.31385
 30
0.0
 10
-2.15999
 20
-9.33933
 30
0.0
 10
-2.20872
 20
-9.33933
 30
0.0
 10
-2.2455
 20
-9.31385
 30
0.0
 10
-2.2455
 20
-9.31385
 30
0.0
 10
-2.28225
 20
-9.28834
 30
0.0
 10
-2.33088
 20
-9.28834
 30
0.0
 10
-2.36763
 20
-9.31385
 30
0.0
 10
-2.36763
 20
-9.31385
 30
0.0
 10
-2.40446
 20
-9.33933
 30
0.0
 10
-2.45312
 20
-9.33933
 30
0.0
 10
-2.48981
 20
-9.31385
 30
0.0
 10
-2.48981
 20
-9.31385
 30
0.0
 10
-2.52664
 20
-9.28834
 30
0.0
 10
-2.5753
 20
-9.28834
 30
0.0
 10
-2.61205
 20
-9.31385
 30
0.0
 10
-2.61205
 20
-9.31385
 30
0.0
 10
-2.64877
 20
-9.33933
 30
0.0
 10
-2.69743
 20
-9.33933
 30
0.0
 10
-2.73416
 20
-9.31385
 30
0.0
 10
-2.73416
 20
-9.31385
 30
0.0
 10
-2.77102
 20
-9.28834
 30
0.0
 10
-2.81965
 20
-9.28834
 30
0.0
 10
-2.85648
 20
-9.31385
 30
0.0
 10
-2.85648
 20
-9.31385
 30
0.0
 10
-2.89323
 20
-9.33933
 30
0.0
 10
-2.94197
 20
-9.33933
 30
0.0
 10
-2.97874
 20
-9.31385
 30
0.0
 10
-2.97874
 20
-9.31385
 30
0.0
 10
-3.01544
 20
-9.28834
 30
0.0
 10
-3.06412
 20
-9.28834
 30
0.0
 10
-3.10087
 20
-9.31385
 30
0.0
 10
-3.10087
 20
-9.31385
 30
0.0
 10
-3.1377
 20
-9.33933
 30
0.0
 10
-3.1863
 20
-9.33933
 30
0.0
 10
-3.22308
 20
-9.31385
 30
0.0
 10
-3.22308
 20
-9.31385
 30
0.0
 10
-3.25983
 20
-9.28834
 30
0.0
 10
-3.30857
 20
-9.28834
 30
0.0
 10
-3.34526
 20
-9.31385
 30
0.0
 10
-3.34526
 20
-9.31385
 30
0.0
 10
-3.38201
 20
-9.33933
 30
0.0
 10
-3.43069
 20
-9.33933
 30
0.0
 10
-3.46739
 20
-9.31385
 30
0.0
 10
-3.46739
 20
-9.31385
 30
0.0
 10
-3.50422
 20
-9.28834
 30
0.0
 10
-3.55288
 20
-9.28834
 30
0.0
 10
-3.58963
 20
-9.31385
 30
0.0
 10
-3.58963
 20
-9.31385
 30
0.0
 10
-3.62635
 20
-9.33933
 30
0.0
 10
-3.67506
 20
-9.33933
 30
0.0
 10
-3.71184
 20
-9.31385
 30
0.0
 10
-3.71184
 20
-9.31385
 30
0.0
 10
-3.74862
 20
-9.28834
 30
0.0
 10
-3.79733
 20
-9.28834
 30
0.0
 10
-3.83402
 20
-9.31385
 30
0.0
 10
-3.83402
 20
-9.31385
 30
0.0
 10
-3.87085
 20
-9.33933
 30
0.0
 10
-3.91945
 20
-9.33933
 30
0.0
 10
-3.95628
 20
-9.31385
 30
0.0
 10
-3.95628
 20
-9.31385
 30
0.0
 10
-3.99298
 20
-9.28834
 30
0.0
 10
-4.04171
 20
-9.28834
 30
0.0
 10
-4.07846
 20
-9.31385
 30
0.0
 10
-4.07846
 20
-9.31385
 30
0.0
 10
-4.11521
 20
-9.33933
 30
0.0
 10
-4.16384
 20
-9.33933
 30
0.0
 10
-4.20059
 20
-9.31385
 30
0.0
 10
-4.20059
 20
-9.31385
 30
0.0
 10
-4.23742
 20
-9.28834
 30
0.0
 10
-4.28608
 20
-9.28834
 30
0.0
 10
-4.3228
 20
-9.31385
 30
0.0
 10
-4.3228
 20
-9.31385
 30
0.0
 10
-4.35955
 20
-9.33933
 30
0.0
 10
-4.40829
 20
-9.33933
 30
0.0
 10
-4.44504
 20
-9.31385
 30
0.0
 10
-4.44504
 20
-9.31385
 30
0.0
 10
-4.48184
 20
-9.28834
 30
0.0
 10
-4.53047
 20
-9.28834
 30
0.0
 10
-4.56722
 20
-9.31385
 30
0.0
 10
-4.56722
 20
-9.31385
 30
0.0
 10
-4.60397
 20
-9.33933
 30
0.0
 10
-4.6526
 20
-9.33933
 30
0.0
 10
-4.68943
 20
-9.31385
 30
0.0
 10
-4.68943
 20
-9.31385
 30
0.0
 10
-4.72618
 20
-9.28834
 30
0.0
 10
-4.77486
 20
-9.28834
 30
0.0
 10
-4.81156
 20
-9.31385
 30
0.0
 10
-4.81156
 20
-9.31385
 30
0.0
 10
-4.84836
 20
-9.33933
 30
0.0
 10
-4.89705
 20
-9.33933
 30
0.0
 10
-4.93382
 20
-9.31385
 30
0.0
 10
-4.93382
 20
-9.31385
 30
0.0
 10
-4.97052
 20
-9.28834
 30
0.0
 10
-5.0192
 20
-9.28834
 30
0.0
 10
-5.05603
 20
-9.31385
 30
0.0
 10
-5.05603
 20
-9.31385
 30
0.0
 10
-5.09278
 20
-9.33933
 30
0.0
 10
-5.14152
 20
-9.33933
 30
0.0
 10
-5.17824
 20
-9.31385
 30
0.0
 10
-5.17824
 20
-9.31385
 30
0.0
 10
-5.19618
 20
-9.30141
 30
0.0
 10
-5.21748
 20
-9.29483
 30
0.0
 10
-5.23936
 20
-9.29483
 30
0.0
  0
SPLINE
  5
58
330
1F
100
AcDbEntity
  8
Camada 1
370
    53
100
AcDbSpline
210
0.0
220
0.0
230
1.0
 70
     8
 71
     3
 72
    24
 73
    20
 74
     0
 42
0.0000000001
 43
0.0000000001
 12
1.0
 22
0.0
 32
0.0
 13
1.0
 23
0.0
 33
0.0
 40
0.0
 40
0.0
 40
0.0
 40
0.0
 40
0.1666666666666667
 40
0.1666666666666667
 40
0.1666666666666667
 40
0.1666666666666667
 40
0.3333333333333333
 40
0.3333333333333333
 40
0.3333333333333333
 40
0.3333333333333333
 40
0.5
 40
0.5
 40
0.5
 40
0.5
 40
0.6666666666666666
 40
0.6666666666666666
 40
0.6666666666666666
 40
0.6666666666666666
 40
1.0
 40
1.0
 40
1.0
 40
1.0
 10
-5.23935
 20
-7.5917
 30
0.0
 10
-5.23935
 20
-7.5917
 30
0.0
 10
-5.54491
 20
-7.5917
 30
0.0
 10
-5.54491
 20
-7.5917
 30
0.0
 10
-5.54491
 20
-7.5917
 30
0.0
 10
-5.79793
 20
-7.5917
 30
0.0
 10
-6.00301
 20
-7.38647
 30
0.0
 10
-6.00301
 20
-7.13334
 30
0.0
 10
-6.00301
 20
-7.13334
 30
0.0
 10
-6.00301
 20
-7.13334
 30
0.0
 10
-6.00301
 20
-6.06416
 30
0.0
 10
-6.00301
 20
-6.06416
 30
0.0
 10
-6.00301
 20
-6.06416
 30
0.0
 10
-6.00301
 20
-5.81109
 30
0.0
 10
-5.79793
 20
-5.60601
 30
0.0
 10
-5.54491
 20
-5.60601
 30
0.0
 10
-5.54491
 20
-5.60601
 30
0.0
 10
-5.54491
 20
-5.60601
 30
0.0
 10
-5.23935
 20
-5.606
 30
0.0
 10
-5.23935
 20
-5.606
 30
0.0
  0
SPLINE
  5
59
330
1F
100
AcDbEntity
  8
Camada 1
370
    53
100
AcDbSpline
210
0.0
220
0.0
230
1.0
 70
     8
 71
     3
 72
    16
 73
    12
 74
     0
 42
0.0000000001
 43
0.0000000001
 12
1.0
 22
0.0
 32
0.0
 13
1.0
 23
0.0
 33
0.0
 40
0.0
 40
0.0
 40
0.0
 40
0.0
 40
0.25
 40
0.25
 40
0.25
 40
0.25
 40
0.5
 40
0.5
 40
0.5
 40
0.5
 40
1.0
 40
1.0
 40
1.0
 40
1.0
 10
-5.2699
 20
-6.38499
 30
0.0
 10
-5.2699
 20
-6.38499
 30
0.0
 10
-5.31096
 20
-6.42603
 30
0.0
 10
-5.31096
 20
-6.42603
 30
0.0
 10
-5.31096
 20
-6.42603
 30
0.0
 10
-5.40632
 20
-6.52147
 30
0.0
 10
-5.40632
 20
-6.67622
 30
0.0
 10
-5.31096
 20
-6.77158
 30
0.0
 10
-5.31096
 20
-6.77158
 30
0.0
 10
-5.31096
 20
-6.77158
 30
0.0
 10
-5.2699
 20
-6.8127
 30
0.0
 10
-5.2699
 20
-6.8127
 30
0.0
  0
SPLINE
  5
5A
330
1F
100
AcDbEntity
  8
Camada 1
370
    53
100
AcDbSpline
210
0.0
220
0.0
230
1.0
 70
    11
 71
     3
 72
    28
 73
    24
 74
     0
 42
0.0000000001
 43
0.0000000001
 12
1.0
 22
0.0
 32
0.0
 13
1.0
 23
0.0
 33
0.0
 40
0.0
 40
0.0
 40
0.0
 40
0.0
 40
0.1428571428571428
 40
0.1428571428571428
 40
0.1428571428571428
 40
0.1428571428571428
 40
0.2857142857142857
 40
0.2857142857142857
 40
0.2857142857142857
 40
0.2857142857142857
 40
0.4285714285714285
 40
0.4285714285714285
 40
0.4285714285714285
 40
0.4285714285714285
 40
0.5714285714285714
 40
0.5714285714285714
 40
0.5714285714285714
 40
0.5714285714285714
 40
0.7142857142857143
 40
0.7142857142857143
 40
0.7142857142857143
 40
0.7142857142857143
 40
1.0
 40
1.0
 40
1.0
 40
1.0
 10
-2.61971
 20
-8.05755
 30
0.0
 10
-2.61971
 20
-8.05755
 30
0.0
 10
-2.61971
 20
-5.13997
 30
0.0
 10
-2.61971
 20
-5.13997
 30
0.0
 10
-2.61971
 20
-5.13997
 30
0.0
 10
-2.61971
 20
-5.102
 30
0.0
 10
-2.58883
 20
-5.07123
 30
0.0
 10
-2.55094
 20
-5.07123
 30
0.0
 10
-2.55094
 20
-5.07123
 30
0.0
 10
-2.51303
 20
-5.07123
 30
0.0
 10
-2.48228
 20
-5.102
 30
0.0
 10
-2.48228
 20
-5.13997
 30
0.0
 10
-2.48228
 20
-5.13997
 30
0.0
 10
-2.48228
 20
-5.13997
 30
0.0
 10
-2.48228
 20
-8.05756
 30
0.0
 10
-2.48228
 20
-8.05756
 30
0.0
 10
-2.48228
 20
-8.05756
 30
0.0
 10
-2.48228
 20
-8.09545
 30
0.0
 10
-2.51302
 20
-8.12633
 30
0.0
 10
-2.55094
 20
-8.12633
 30
0.0
 10
-2.55094
 20
-8.12633
 30
0.0
 10
-2.58883
 20
-8.12632
 30
0.0
 10
-2.61971
 20
-8.09544
 30
0.0
 10
-2.61971
 20
-8.05755
 30
0.0
  0
SPLINE
  5
5B
330
1F
100
AcDbEntity
  8
Camada 1
370
    53
100
AcDbSpline
210
0.0
220
0.0
230
1.0
 70
     8
 71
     3
 72
     8
 73
     4
 74
     0
 42
0.0000000001
 43
0.0000000001
 12
1.0
 22
0.0
 32
0.0
 13
1.0
 23
0.0
 33
0.0
 40
0.0
 40
0.0
 40
0.0
 40
0.0
 40
1.0
 40
1.0
 40
1.0
 40
1.0
 10
-2.61203
 20
-9.31388
 30
0.0
 10
-2.64875
 20
-9.33936
 30
0.0
 10
-2.69741
 20
-9.33936
 30
0.0
 10
-2.73414
 20
-9.31388
 30
0.0
  0
SPLINE
  5
5C
330
1F
100
AcDbEntity
  8
Camada 1
370
    53
100
AcDbSpline
210
0.0
220
0.0
230
1.0
 70
     8
 71
     3
 72
    24
 73
    20
 74
     0
 42
0.0000000001
 43
0.0000000001
 12
1.0
 22
0.0
 32
0.0
 13
1.0
 23
0.0
 33
0.0
 40
0.0
 40
0.0
 40
0.0
 40
0.0
 40
0.1666666666666667
 40
0.1666666666666667
 40
0.1666666666666667
 40
0.1666666666666667
 40
0.3333333333333333
 40
0.3333333333333333
 40
0.3333333333333333
 40
0.3333333333333333
 40
0.5
 40
0.5
 40
0.5
 40
0.5
 40
0.6666666666666666
 40
0.6666666666666666
 40
0.6666666666666666
 40
0.6666666666666666
 40
1.0
 40
1.0
 40
1.0
 40
1.0
 10
3.1924
 20
-3.99686
 30
0.0
 10
3.1924
 20
-3.98638
 30
0.0
 10
3.19655
 20
-3.9763
 30
0.0
 10
3.20402
 20
-3.96879
 30
0.0
 10
3.20402
 20
-3.96879
 30
0.0
 10
3.20402
 20
-3.96879
 30
0.0
 10
3.62373
 20
-3.54921
 30
0.0
 10
3.62373
 20
-3.54921
 30
0.0
 10
3.62373
 20
-3.54921
 30
0.0
 10
3.62373
 20
-3.54921
 30
0.0
 10
5.33085
 20
-3.20777
 30
0.0
 10
5.33085
 20
-3.20777
 30
0.0
 10
5.33085
 20
-3.20777
 30
0.0
 10
5.33085
 20
-3.20777
 30
0.0
 10
5.33084
 20
-1.86358
 30
0.0
 10
5.33084
 20
-1.86358
 30
0.0
 10
5.33084
 20
-1.86358
 30
0.0
 10
5.33084
 20
-1.86358
 30
0.0
 10
3.19237
 20
0.27491
 30
0.0
 10
3.19237
 20
0.27491
 30
0.0
  0
SPLINE
  5
5D
330
1F
100
AcDbEntity
  8
Camada 1
370
    53
100
AcDbSpline
210
0.0
220
0.0
230
1.0
 70
    24
 71
     3
 72
     8
 73
     4
 74
     0
 42
0.0000000001
 43
0.0000000001
 12
1.0
 22
0.0
 32
0.0
 13
1.0
 23
0.0
 33
0.0
 40
0.0
 40
0.0
 40
0.0
 40
0.0
 40
1.0
 40
1.0
 40
1.0
 40
1.0
 10
0.01319
 20
0.10098
 30
0.0
 10
0.01319
 20
0.10098
 30
0.0
 10
-0.0764
 20
0.16482
 30
0.0
 10
-0.0764
 20
0.16482
 30
0.0
  0
SPLINE
  5
5E
330
1F
100
AcDbEntity
  8
Camada 1
370
    53
100
AcDbSpline
210
0.0
220
0.0
230
1.0
 70
     8
 71
     3
 72
    20
 73
    16
 74
     0
 42
0.0000000001
 43
0.0000000001
 12
1.0
 22
0.0
 32
0.0
 13
1.0
 23
0.0
 33
0.0
 40
0.0
 40
0.0
 40
0.0
 40
0.0
 40
0.2
 40
0.2
 40
0.2
 40
0.2
 40
0.4
 40
0.4
 40
0.4
 40
0.4
 40
0.6
 40
0.6
 40
0.6
 40
0.6
 40
1.0
 40
1.0
 40
1.0
 40
1.0
 10
-1.34664
 20
-0.48883
 30
0.0
 10
-1.34664
 20
-0.48883
 30
0.0
 10
-2.07496
 20
-1.50843
 30
0.0
 10
-2.07496
 20
-1.50843
 30
0.0
 10
-2.07496
 20
-1.50843
 30
0.0
 10
-2.22667
 20
-1.72081
 30
0.0
 10
-2.22667
 20
-2.00619
 30
0.0
 10
-2.07496
 20
-2.2187
 30
0.0
 10
-2.07496
 20
-2.2187
 30
0.0
 10
-2.07496
 20
-2.2187
 30
0.0
 10
-0.96241
 20
-3.77633
 30
0.0
 10
-0.96241
 20
-3.77633
 30
0.0
 10
-0.96241
 20
-3.77633
 30
0.0
 10
-0.96241
 20
-3.77633
 30
0.0
 10
-0.96241
 20
-3.8646
 30
0.0
 10
-0.96241
 20
-3.8646
 30
0.0
  0
SPLINE
  5
5F
330
1F
100
AcDbEntity
  8
Camada 1
370
    53
100
AcDbSpline
210
0.0
220
0.0
230
1.0
 70
     8
 71
     3
 72
     8
 73
     4
 74
     0
 42
0.0000000001
 43
0.0000000001
 12
1.0
 22
0.0
 32
0.0
 13
1.0
 23
0.0
 33
0.0
 40
0.0
 40
0.0
 40
0.0
 40
0.0
 40
1.0
 40
1.0
 40
1.0
 40
1.0
 10
-2.61203
 20
-3.88365
 30
0.0
 10
-2.64875
 20
-3.85814
 30
0.0
 10
-2.69741
 20
-3.85814
 30
0.0
 10
-2.73414
 20
-3.88365
 30
0.0
  0
SPLINE
  5
60
330
1F
100
AcDbEntity
  8
Camada 1
370
    53
100
AcDbSpline
210
0.0
220
0.0
230
1.0
 70
     8
 71
     3
 72
    12
 73
     8
 74
     0
 42
0.0000000001
 43
0.0000000001
 12
1.0
 22
0.0
 32
0.0
 13
1.0
 23
0.0
 33
0.0
 40
0.0
 40
0.0
 40
0.0
 40
0.0
 40
0.3333333333333333
 40
0.3333333333333333
 40
0.3333333333333333
 40
0.3333333333333333
 40
1.0
 40
1.0
 40
1.0
 40
1.0
 10
-3.72709
 20
3.66304
 30
0.0
 10
-3.60205
 20
3.93614
 30
0.0
 10
-3.36165
 20
4.13903
 30
0.0
 10
-3.07156
 20
4.21679
 30
0.0
 10
-3.07156
 20
4.21679
 30
0.0
 10
-3.07156
 20
4.21679
 30
0.0
 10
-2.50509
 20
4.36861
 30
0.0
 10
-2.50509
 20
4.36861
 30
0.0
  0
SPLINE
  5
61
330
1F
100
AcDbEntity
  8
Camada 1
370
    53
100
AcDbSpline
210
0.0
220
0.0
230
1.0
 70
     8
 71
     3
 72
    12
 73
     8
 74
     0
 42
0.0000000001
 43
0.0000000001
 12
1.0
 22
0.0
 32
0.0
 13
1.0
 23
0.0
 33
0.0
 40
0.0
 40
0.0
 40
0.0
 40
0.0
 40
0.3333333333333333
 40
0.3333333333333333
 40
0.3333333333333333
 40
0.3333333333333333
 40
1.0
 40
1.0
 40
1.0
 40
1.0
 10
-2.50509
 20
1.37474
 30
0.0
 10
-2.50509
 20
1.37474
 30
0.0
 10
-3.07156
 20
1.52651
 30
0.0
 10
-3.07156
 20
1.52651
 30
0.0
 10
-3.07156
 20
1.52651
 30
0.0
 10
-3.36168
 20
1.60424
 30
0.0
 10
-3.60208
 20
1.80731
 30
0.0
 10
-3.72709
 20
2.08034
 30
0.0
  0
SPLINE
  5
62
330
1F
100
AcDbEntity
  8
Camada 1
370
    53
100
AcDbSpline
210
0.0
220
0.0
230
1.0
 70
     8
 71
     3
 72
    24
 73
    20
 74
     0
 42
0.0000000001
 43
0.0000000001
 12
1.0
 22
0.0
 32
0.0
 13
1.0
 23
0.0
 33
0.0
 40
0.0
 40
0.0
 40
0.0
 40
0.0
 40
0.1666666666666667
 40
0.1666666666666667
 40
0.1666666666666667
 40
0.1666666666666667
 40
0.3333333333333333
 40
0.3333333333333333
 40
0.3333333333333333
 40
0.3333333333333333
 40
0.5
 40
0.5
 40
0.5
 40
0.5
 40
0.6666666666666666
 40
0.6666666666666666
 40
0.6666666666666666
 40
0.6666666666666666
 40
1.0
 40
1.0
 40
1.0
 40
1.0
 10
-2.50509
 20
3.76765
 30
0.0
 10
-2.50509
 20
3.76765
 30
0.0
 10
-2.92916
 20
3.65398
 30
0.0
 10
-2.92916
 20
3.65398
 30
0.0
 10
-2.92916
 20
3.65398
 30
0.0
 10
-3.12956
 20
3.60035
 30
0.0
 10
-3.26889
 20
3.41874
 30
0.0
 10
-3.26889
 20
3.21138
 30
0.0
 10
-3.26889
 20
3.21138
 30
0.0
 10
-3.26889
 20
3.21138
 30
0.0
 10
-3.26889
 20
2.53193
 30
0.0
 10
-3.26889
 20
2.53193
 30
0.0
 10
-3.26889
 20
2.53193
 30
0.0
 10
-3.26889
 20
2.3245
 30
0.0
 10
-3.12956
 20
2.14302
 30
0.0
 10
-2.92916
 20
2.08928
 30
0.0
 10
-2.92916
 20
2.08928
 30
0.0
 10
-2.92916
 20
2.08928
 30
0.0
 10
-2.50509
 20
1.97567
 30
0.0
 10
-2.50509
 20
1.97567
 30
0.0
  0
SPLINE
  5
63
330
1F
100
AcDbEntity
  8
Camada 1
370
    53
100
AcDbSpline
210
0.0
220
0.0
230
1.0
 70
     8
 71
     3
 72
    40
 73
    36
 74
     0
 42
0.0000000001
 43
0.0000000001
 12
1.0
 22
0.0
 32
0.0
 13
1.0
 23
0.0
 33
0.0
 40
0.0
 40
0.0
 40
0.0
 40
0.0
 40
0.1
 40
0.1
 40
0.1
 40
0.1
 40
0.2
 40
0.2
 40
0.2
 40
0.2
 40
0.3
 40
0.3
 40
0.3
 40
0.3
 40
0.4
 40
0.4
 40
0.4
 40
0.4
 40
0.5
 40
0.5
 40
0.5
 40
0.5
 40
0.6
 40
0.6
 40
0.6
 40
0.6
 40
0.7
 40
0.7
 40
0.7
 40
0.7
 40
0.8
 40
0.8
 40
0.8
 40
0.8
 40
1.0
 40
1.0
 40
1.0
 40
1.0
 10
-3.72709
 20
2.08033
 30
0.0
 10
-3.85221
 20
1.80731
 30
0.0
 10
-4.09261
 20
1.60424
 30
0.0
 10
-4.38267
 20
1.5265
 30
0.0
 10
-4.38267
 20
1.5265
 30
0.0
 10
-4.38267
 20
1.5265
 30
0.0
 10
-4.94909
 20
1.37473
 30
0.0
 10
-4.94909
 20
1.37473
 30
0.0
 10
-4.94909
 20
1.37473
 30
0.0
 10
-4.94909
 20
1.37473
 30
0.0
 10
-4.94909
 20
1.22196
 30
0.0
 10
-4.94909
 20
1.22196
 30
0.0
 10
-4.94909
 20
1.22196
 30
0.0
 10
-4.94909
 20
1.22196
 30
0.0
 10
-5.56007
 20
1.22197
 30
0.0
 10
-5.56007
 20
1.22197
 30
0.0
 10
-5.56007
 20
1.22197
 30
0.0
 10
-5.56007
 20
1.22197
 30
0.0
 10
-5.56007
 20
4.52137
 30
0.0
 10
-5.56007
 20
4.52137
 30
0.0
 10
-5.56007
 20
4.52137
 30
0.0
 10
-5.56007
 20
4.52137
 30
0.0
 10
-4.9491
 20
4.52137
 30
0.0
 10
-4.9491
 20
4.52137
 30
0.0
 10
-4.9491
 20
4.52137
 30
0.0
 10
-4.9491
 20
4.52137
 30
0.0
 10
-4.9491
 20
4.3686
 30
0.0
 10
-4.9491
 20
4.3686
 30
0.0
 10
-4.9491
 20
4.3686
 30
0.0
 10
-4.9491
 20
4.3686
 30
0.0
 10
-4.38268
 20
4.21678
 30
0.0
 10
-4.38268
 20
4.21678
 30
0.0
 10
-4.38268
 20
4.21678
 30
0.0
 10
-4.09262
 20
4.13905
 30
0.0
 10
-3.85222
 20
3.93614
 30
0.0
 10
-3.7271
 20
3.66303
 30
0.0
  0
SPLINE
  5
64
330
1F
100
AcDbEntity
  8
Camada 1
370
    53
100
AcDbSpline
210
0.0
220
0.0
230
1.0
 70
    11
 71
     3
 72
    28
 73
    24
 74
     0
 42
0.0000000001
 43
0.0000000001
 12
1.0
 22
0.0
 32
0.0
 13
1.0
 23
0.0
 33
0.0
 40
0.0
 40
0.0
 40
0.0
 40
0.0
 40
0.1428571428571428
 40
0.1428571428571428
 40
0.1428571428571428
 40
0.1428571428571428
 40
0.2857142857142857
 40
0.2857142857142857
 40
0.2857142857142857
 40
0.2857142857142857
 40
0.4285714285714285
 40
0.4285714285714285
 40
0.4285714285714285
 40
0.4285714285714285
 40
0.5714285714285714
 40
0.5714285714285714
 40
0.5714285714285714
 40
0.5714285714285714
 40
0.7142857142857143
 40
0.7142857142857143
 40
0.7142857142857143
 40
0.7142857142857143
 40
1.0
 40
1.0
 40
1.0
 40
1.0
 10
-4.1853
 20
3.21139
 30
0.0
 10
-4.1853
 20
3.21139
 30
0.0
 10
-4.1853
 20
2.53194
 30
0.0
 10
-4.1853
 20
2.53194
 30
0.0
 10
-4.1853
 20
2.53194
 30
0.0
 10
-4.1853
 20
2.32451
 30
0.0
 10
-4.32458
 20
2.14303
 30
0.0
 10
-4.52503
 20
2.08929
 30
0.0
 10
-4.52503
 20
2.08929
 30
0.0
 10
-4.52503
 20
2.08929
 30
0.0
 10
-4.94908
 20
1.97568
 30
0.0
 10
-4.94908
 20
1.97568
 30
0.0
 10
-4.94908
 20
1.97568
 30
0.0
 10
-4.94908
 20
1.97568
 30
0.0
 10
-4.94908
 20
3.76768
 30
0.0
 10
-4.94908
 20
3.76768
 30
0.0
 10
-4.94908
 20
3.76768
 30
0.0
 10
-4.94908
 20
3.76768
 30
0.0
 10
-4.52503
 20
3.65401
 30
0.0
 10
-4.52503
 20
3.65401
 30
0.0
 10
-4.52503
 20
3.65401
 30
0.0
 10
-4.32457
 20
3.60036
 30
0.0
 10
-4.1853
 20
3.41875
 30
0.0
 10
-4.1853
 20
3.21139
 30
0.0
  0
SPLINE
  5
65
330
1F
100
AcDbEntity
  8
Camada 1
370
    53
100
AcDbSpline
210
0.0
220
0.0
230
1.0
 70
    24
 71
     3
 72
     8
 73
     4
 74
     0
 42
0.0000000001
 43
0.0000000001
 12
1.0
 22
0.0
 32
0.0
 13
1.0
 23
0.0
 33
0.0
 40
0.0
 40
0.0
 40
0.0
 40
0.0
 40
1.0
 40
1.0
 40
1.0
 40
1.0
 10
0.09164
 20
2.39822
 30
0.0
 10
0.09164
 20
2.39822
 30
0.0
 10
0.13744
 20
2.41346
 30
0.0
 10
0.13744
 20
2.41346
 30
0.0
  0
SPLINE
  5
66
330
1F
100
AcDbEntity
  8
Camada 1
370
    53
100
AcDbSpline
210
0.0
220
0.0
230
1.0
 70
     8
 71
     3
 72
    12
 73
     8
 74
     0
 42
0.0000000001
 43
0.0000000001
 12
1.0
 22
0.0
 32
0.0
 13
1.0
 23
0.0
 33
0.0
 40
0.0
 40
0.0
 40
0.0
 40
0.0
 40
0.3333333333333333
 40
0.3333333333333333
 40
0.3333333333333333
 40
0.3333333333333333
 40
1.0
 40
1.0
 40
1.0
 40
1.0
 10
0.13744
 20
5.46845
 30
0.0
 10
0.13744
 20
5.46845
 30
0.0
 10
-0.0764
 20
5.46845
 30
0.0
 10
-0.0764
 20
5.46845
 30
0.0
 10
-0.0764
 20
5.46845
 30
0.0
 10
-0.0764
 20
5.46845
 30
0.0
 10
-0.0764
 20
5.57841
 30
0.0
 10
-0.0764
 20
5.57841
 30
0.0
  0
SPLINE
  5
67
330
1F
100
AcDbEntity
  8
Camada 1
370
    53
100
AcDbSpline
210
0.0
220
0.0
230
1.0
 70
    24
 71
     3
 72
     8
 73
     4
 74
     0
 42
0.0000000001
 43
0.0000000001
 12
1.0
 22
0.0
 32
0.0
 13
1.0
 23
0.0
 33
0.0
 40
0.0
 40
0.0
 40
0.0
 40
0.0
 40
1.0
 40
1.0
 40
1.0
 40
1.0
 10
0.01319
 20
5.64244
 30
0.0
 10
0.01319
 20
5.64244
 30
0.0
 10
0.13744
 20
5.46845
 30
0.0
 10
0.13744
 20
5.46845
 30
0.0
  0
SPLINE
  5
68
330
1F
100
AcDbEntity
  8
Camada 1
370
    53
100
AcDbSpline
210
0.0
220
0.0
230
1.0
 70
     8
 71
     3
 72
    24
 73
    20
 74
     0
 42
0.0000000001
 43
0.0000000001
 12
1.0
 22
0.0
 32
0.0
 13
1.0
 23
0.0
 33
0.0
 40
0.0
 40
0.0
 40
0.0
 40
0.0
 40
0.1666666666666667
 40
0.1666666666666667
 40
0.1666666666666667
 40
0.1666666666666667
 40
0.3333333333333333
 40
0.3333333333333333
 40
0.3333333333333333
 40
0.3333333333333333
 40
0.5
 40
0.5
 40
0.5
 40
0.5
 40
0.6666666666666666
 40
0.6666666666666666
 40
0.6666666666666666
 40
0.6666666666666666
 40
1.0
 40
1.0
 40
1.0
 40
1.0
 10
3.1924
 20
5.4735
 30
0.0
 10
3.1924
 20
5.48408
 30
0.0
 10
3.19655
 20
5.49411
 30
0.0
 10
3.20402
 20
5.50165
 30
0.0
 10
3.20402
 20
5.50165
 30
0.0
 10
3.20402
 20
5.50165
 30
0.0
 10
3.62373
 20
5.92117
 30
0.0
 10
3.62373
 20
5.92117
 30
0.0
 10
3.62373
 20
5.92117
 30
0.0
 10
3.62373
 20
5.92117
 30
0.0
 10
5.33085
 20
6.26264
 30
0.0
 10
5.33085
 20
6.26264
 30
0.0
 10
5.33085
 20
6.26264
 30
0.0
 10
5.33085
 20
6.26264
 30
0.0
 10
5.33085
 20
7.5763
 30
0.0
 10
5.33085
 20
7.5763
 30
0.0
 10
5.33085
 20
7.5763
 30
0.0
 10
5.33085
 20
7.5763
 30
0.0
 10
3.1924
 20
9.71485
 30
0.0
 10
3.1924
 20
9.71485
 30
0.0
  0
SPLINE
  5
69
330
1F
100
AcDbEntity
  8
Camada 1
370
    53
100
AcDbSpline
210
0.0
220
0.0
230
1.0
 70
    24
 71
     3
 72
     8
 73
     4
 74
     0
 42
0.0000000001
 43
0.0000000001
 12
1.0
 22
0.0
 32
0.0
 13
1.0
 23
0.0
 33
0.0
 40
0.0
 40
0.0
 40
0.0
 40
0.0
 40
1.0
 40
1.0
 40
1.0
 40
1.0
 10
3.23134
 20
0.30733
 30
0.0
 10
3.23134
 20
0.30733
 30
0.0
 10
3.1924
 20
0.27492
 30
0.0
 10
3.1924
 20
0.27492
 30
0.0
  0
ENDSEC
  0
SECTION
  2
OBJECTS
  0
DICTIONARY
  5
C
330
0
100
AcDbDictionary
281
     1
  3
ACAD_GROUP
350
D
  3
ACAD_LAYOUT
350
1A
  3
ACAD_MATERIAL
350
3B
  3
ACAD_MLEADERSTYLE
350
8B
  3
ACAD_MLINESTYLE
350
17
  3
ACAD_PLOTSETTINGS
350
19
  3
ACAD_PLOTSTYLENAME
350
E
  3
ACAD_TABLESTYLE
350
8A
  3
ACAD_VISUALSTYLE
350
2A
  0
DICTIONARY
  5
D
102
{ACAD_REACTORS
330
C
102
}
330
C
100
AcDbDictionary
281
     1
  0
DICTIONARY
  5
1A
102
{ACAD_REACTORS
330
C
102
}
330
C
100
AcDbDictionary
281
     1
  3
Layout1
350
1E
  3
Layout2
350
26
  3
Model
350
22
  0
DICTIONARY
  5
3B
102
{ACAD_REACTORS
330
C
102
}
330
C
100
AcDbDictionary
281
     1
  3
ByBlock
350
3D
  3
ByLayer
350
3C
  3
Global
350
3E
  0
DICTIONARY
  5
8B
102
{ACAD_REACTORS
330
C
102
}
330
C
100
AcDbDictionary
281
     1
  0
DICTIONARY
  5
17
102
{ACAD_REACTORS
330
C
102
}
330
C
100
AcDbDictionary
281
     1
  3
Standard
350
18
  0
DICTIONARY
  5
19
102
{ACAD_REACTORS
330
C
102
}
330
C
100
AcDbDictionary
281
     1
  0
ACDBDICTIONARYWDFLT
  5
E
102
{ACAD_REACTORS
330
C
102
}
330
C
100
AcDbDictionary
281
     1
  3
Normal
350
F
100
AcDbDictionaryWithDefault
340
F
  0
DICTIONARY
  5
8A
102
{ACAD_REACTORS
330
C
102
}
330
C
100
AcDbDictionary
281
     1
  0
DICTIONARY
  5
2A
102
{ACAD_REACTORS
330
C
102
}
330
C
100
AcDbDictionary
281
     1
  3
2dWireframe
350
2F
  3
3D Hidden
350
31
  3
3dWireframe
350
30
  3
Basic
350
32
  3
Brighten
350
36
  3
ColorChange
350
3A
  3
Conceptual
350
34
  3
Dim
350
35
  3
Facepattern
350
39
  3
Flat
350
2B
  3
FlatWithEdges
350
2C
  3
Gouraud
350
2D
  3
GouraudWithEdges
350
2E
  3
Linepattern
350
38
  3
Realistic
350
33
  3
Thicken
350
37
  0
LAYOUT
  5
1E
102
{ACAD_REACTORS
330
1A
102
}
330
1A
100
AcDbPlotSettings
  1

  2
none_device
  4

  6

 40
0.0
 41
0.0
 42
0.0
 43
0.0
 44
0.0
 45
0.0
 46
0.0
 47
0.0
 48
0.0
 49
0.0
140
0.0
141
0.0
142
1.0
143
1.0
 70
   688
 72
     0
 73
     0
 74
     5
  7

 75
    16
 76
     0
 77
     2
 78
   300
147
1.0
148
0.0
149
0.0
100
AcDbLayout
  1
Layout1
 70
     1
 71
     1
 10
0.0
 20
0.0
 11
12.0
 21
9.0
 12
0.0
 22
0.0
 32
0.0
 14
1.000000000000000E+20
 24
1.000000000000000E+20
 34
1.000000000000000E+20
 15
-1.000000000000000E+20
 25
-1.000000000000000E+20
 35
-1.000000000000000E+20
146
0.0
 13
0.0
 23
0.0
 33
0.0
 16
1.0
 26
0.0
 36
0.0
 17
0.0
 27
1.0
 37
0.0
 76
     0
330
1B
  0
LAYOUT
  5
26
102
{ACAD_REACTORS
330
1A
102
}
330
1A
100
AcDbPlotSettings
  1

  2
none_device
  4

  6

 40
0.0
 41
0.0
 42
0.0
 43
0.0
 44
0.0
 45
0.0
 46
0.0
 47
0.0
 48
0.0
 49
0.0
140
0.0
141
0.0
142
1.0
143
1.0
 70
   688
 72
     0
 73
     0
 74
     5
  7

 75
    16
 76
     0
 77
     2
 78
   300
147
1.0
148
0.0
149
0.0
100
AcDbLayout
  1
Layout2
 70
     1
 71
     2
 10
0.0
 20
0.0
 11
0.0
 21
0.0
 12
0.0
 22
0.0
 32
0.0
 14
0.0
 24
0.0
 34
0.0
 15
0.0
 25
0.0
 35
0.0
146
0.0
 13
0.0
 23
0.0
 33
0.0
 16
1.0
 26
0.0
 36
0.0
 17
0.0
 27
1.0
 37
0.0
 76
     0
330
23
  0
LAYOUT
  5
22
102
{ACAD_REACTORS
330
1A
102
}
330
1A
100
AcDbPlotSettings
  1

  2
none_device
  4

  6

 40
0.0
 41
0.0
 42
0.0
 43
0.0
 44
0.0
 45
0.0
 46
0.0
 47
0.0
 48
0.0
 49
0.0
140
0.0
141
0.0
142
1.0
143
1.0
 70
  1712
 72
     0
 73
     0
 74
     0
  7

 75
     0
 76
     0
 77
     2
 78
   300
147
1.0
148
0.0
149
0.0
100
AcDbLayout
  1
Model
 70
     1
 71
     0
 10
0.0
 20
0.0
 11
12.0
 21
9.0
 12
0.0
 22
0.0
 32
0.0
 14
-6.02947
 24
-9.74131
 34
0.0
 15
6.02947
 25
9.74131
 35
0.0
146
0.0
 13
0.0
 23
0.0
 33
0.0
 16
1.0
 26
0.0
 36
0.0
 17
0.0
 27
1.0
 37
0.0
 76
     0
330
1F
331
29
  0
MATERIAL
  5
3D
102
{ACAD_REACTORS
330
3B
102
}
330
3B
100
AcDbMaterial
  1
ByBlock
 72
     1
 94
      127
  0
MATERIAL
  5
3C
102
{ACAD_REACTORS
330
3B
102
}
330
3B
100
AcDbMaterial
  1
ByLayer
 72
     1
 94
      127
  0
MATERIAL
  5
3E
102
{ACAD_REACTORS
330
3B
102
}
330
3B
100
AcDbMaterial
  1
Global
 72
     1
 94
      127
  0
MLINESTYLE
  5
18
102
{ACAD_REACTORS
330
17
102
}
330
17
100
AcDbMlineStyle
  2
Standard
 70
     0
  3

 62
   256
 51
90.0
 52
90.0
 71
     2
 49
0.5
 62
   256
  6
BYLAYER
 49
-0.5
 62
   256
  6
BYLAYER
  0
ACDBPLACEHOLDER
  5
F
102
{ACAD_REACTORS
330
E
102
}
330
E
  0
VISUALSTYLE
  5
2F
102
{ACAD_REACTORS
330
2A
102
}
102
{ACAD_XDICTIONARY
360
72
102
}
330
2A
100
AcDbVisualStyle
  2
2dWireframe
 70
     4
 71
     0
 72
     2
 73
     0
 90
        0
 40
-0.6
 41
-30.0
 62
     5
 63
     7
421
 16777215
 74
     1
 91
        4
 64
     7
 65
   257
 75
     1
175
     1
 42
1.0
 92
        0
 66
   257
 43
1.0
 76
     1
 77
     6
 78
     2
 67
     7
 79
     5
170
     0
171
     0
290
     0
174
     0
 93
        1
 44
0.0
173
     0
291
     0
 45
0.0
  0
VISUALSTYLE
  5
31
102
{ACAD_REACTORS
330
2A
102
}
102
{ACAD_XDICTIONARY
360
76
102
}
330
2A
100
AcDbVisualStyle
  2
3D Hidden
 70
     6
 71
     1
 72
     2
 73
     2
 90
        0
 40
-0.6
 41
-30.0
 62
     5
 63
     7
421
 16777215
 74
     2
 91
        2
 64
     7
 65
   257
 75
     2
175
     1
 42
40.0
 92
        0
 66
   257
 43
1.0
 76
     1
 77
     6
 78
     2
 67
     7
 79
     3
170
     0
171
     0
290
     0
174
     0
 93
        1
 44
0.0
173
     0
291
     0
 45
0.0
  0
VISUALSTYLE
  5
30
102
{ACAD_REACTORS
330
2A
102
}
102
{ACAD_XDICTIONARY
360
74
102
}
330
2A
100
AcDbVisualStyle
  2
3dWireframe
 70
     5
 71
     0
 72
     2
 73
     0
 90
        0
 40
-0.6
 41
-30.0
 62
     5
 63
     7
421
 16777215
 74
     1
 91
        4
 64
     7
 65
   257
 75
     1
175
     1
 42
1.0
 92
        0
 66
   257
 43
1.0
 76
     1
 77
     6
 78
     2
 67
     7
 79
     5
170
     0
171
     0
290
     0
174
     0
 93
        1
 44
0.0
173
     0
291
     0
 45
0.0
  0
VISUALSTYLE
  5
32
102
{ACAD_REACTORS
330
2A
102
}
102
{ACAD_XDICTIONARY
360
78
102
}
330
2A
100
AcDbVisualStyle
  2
Basic
 70
     7
 71
     1
 72
     0
 73
     1
 90
        0
 40
-0.6
 41
-30.0
 62
     5
 63
     7
421
 16777215
 74
     0
 91
        4
 64
     7
 65
   257
 75
     1
175
     1
 42
1.0
 92
        8
 66
     7
 43
1.0
 76
     1
 77
     6
 78
     2
 67
     7
 79
     5
170
     0
171
     0
290
     0
174
     0
 93
        1
 44
0.0
173
     0
291
     1
 45
0.0
  0
VISUALSTYLE
  5
36
102
{ACAD_REACTORS
330
2A
102
}
102
{ACAD_XDICTIONARY
360
80
102
}
330
2A
100
AcDbVisualStyle
  2
Brighten
 70
    12
 71
     2
 72
     2
 73
     0
 90
        0
 40
-0.6
 41
-30.0
 62
     5
 63
     7
421
 16777215
 74
     1
 91
        4
 64
     7
 65
   257
 75
     1
175
     1
 42
1.0
 92
        8
 66
     7
 43
1.0
 76
     1
 77
     6
 78
     2
 67
     7
 79
     5
170
     0
171
     0
290
     0
174
     0
 93
        1
 44
50.0
173
     0
291
     1
 45
0.0
  0
VISUALSTYLE
  5
3A
102
{ACAD_REACTORS
330
2A
102
}
102
{ACAD_XDICTIONARY
360
88
102
}
330
2A
100
AcDbVisualStyle
  2
ColorChange
 70
    16
 71
     2
 72
     2
 73
     3
 90
        0
 40
-0.6
 41
-30.0
 62
     5
 63
     8
421
  8421504
 74
     1
 91
        4
 64
     7
 65
   257
 75
     1
175
     1
 42
1.0
 92
        8
 66
     8
424
  8421504
 43
1.0
 76
     1
 77
     6
 78
     2
 67
     7
 79
     5
170
     0
171
     0
290
     0
174
     0
 93
        1
 44
0.0
173
     0
291
     1
 45
0.0
  0
VISUALSTYLE
  5
34
102
{ACAD_REACTORS
330
2A
102
}
102
{ACAD_XDICTIONARY
360
7C
102
}
330
2A
100
AcDbVisualStyle
  2
Conceptual
 70
     9
 71
     3
 72
     2
 73
     0
 90
        0
 40
-0.6
 41
-30.0
 62
     5
 63
     7
421
 16777215
 74
     2
 91
        2
 64
     7
 65
   257
 75
     1
175
     1
 42
40.0
 92
        8
 66
     7
 43
1.0
 76
     1
 77
     6
 78
     2
 67
     7
 79
     3
170
     0
171
     0
290
     0
174
     0
 93
        1
 44
0.0
173
     0
291
     0
 45
0.0
  0
VISUALSTYLE
  5
35
102
{ACAD_REACTORS
330
2A
102
}
102
{ACAD_XDICTIONARY
360
7E
102
}
330
2A
100
AcDbVisualStyle
  2
Dim
 70
    11
 71
     2
 72
     2
 73
     0
 90
        0
 40
-0.6
 41
-30.0
 62
     5
 63
     7
421
 16777215
 74
     1
 91
        4
 64
     7
 65
   257
 75
     1
175
     1
 42
1.0
 92
        8
 66
     7
 43
1.0
 76
     1
 77
     6
 78
     2
 67
     7
 79
     5
170
     0
171
     0
290
     0
174
     0
 93
        1
 44
-50.0
173
     0
291
     1
 45
0.0
  0
VISUALSTYLE
  5
39
102
{ACAD_REACTORS
330
2A
102
}
102
{ACAD_XDICTIONARY
360
86
102
}
330
2A
100
AcDbVisualStyle
  2
Facepattern
 70
    15
 71
     2
 72
     2
 73
     0
 90
        0
 40
-0.6
 41
-30.0
 62
     5
 63
     7
421
 16777215
 74
     1
 91
        4
 64
     7
 65
   257
 75
     1
175
     1
 42
1.0
 92
        8
 66
     7
 43
1.0
 76
     1
 77
     6
 78
     2
 67
     7
 79
     5
170
     0
171
     0
290
     0
174
     0
 93
        1
 44
0.0
173
     0
291
     1
 45
0.0
  0
VISUALSTYLE
  5
2B
102
{ACAD_REACTORS
330
2A
102
}
102
{ACAD_XDICTIONARY
360
6A
102
}
330
2A
100
AcDbVisualStyle
  2
Flat
 70
     0
 71
     2
 72
     1
 73
     1
 90
        2
 40
-0.6
 41
30.0
 62
     5
 63
     7
421
 16777215
 74
     0
 91
        4
 64
     7
 65
   257
 75
     1
175
     1
 42
1.0
 92
        8
 66
     7
 43
1.0
 76
     1
 77
     6
 78
     2
 67
     7
 79
     5
170
     0
171
     0
290
     0
174
     0
 93
       13
 44
0.0
173
     0
291
     1
 45
0.0
  0
VISUALSTYLE
  5
2C
102
{ACAD_REACTORS
330
2A
102
}
102
{ACAD_XDICTIONARY
360
6C
102
}
330
2A
100
AcDbVisualStyle
  2
FlatWithEdges
 70
     1
 71
     2
 72
     1
 73
     1
 90
        2
 40
-0.6
 41
30.0
 62
     5
 63
     7
421
 16777215
 74
     1
 91
        4
 64
     7
 65
   257
 75
     1
175
     1
 42
1.0
 92
        0
 66
   257
 43
1.0
 76
     1
 77
     6
 78
     2
 67
     7
 79
     5
170
     0
171
     0
290
     0
174
     0
 93
       13
 44
0.0
173
     0
291
     1
 45
0.0
  0
VISUALSTYLE
  5
2D
102
{ACAD_REACTORS
330
2A
102
}
102
{ACAD_XDICTIONARY
360
6E
102
}
330
2A
100
AcDbVisualStyle
  2
Gouraud
 70
     2
 71
     2
 72
     2
 73
     1
 90
        2
 40
-0.6
 41
30.0
 62
     5
 63
     7
421
 16777215
 74
     0
 91
        4
 64
     7
 65
   257
 75
     1
175
     1
 42
1.0
 92
        0
 66
     7
 43
1.0
 76
     1
 77
     6
 78
     2
 67
     7
 79
     5
170
     0
171
     0
290
     0
174
     0
 93
       13
 44
0.0
173
     0
291
     1
 45
0.0
  0
VISUALSTYLE
  5
2E
102
{ACAD_REACTORS
330
2A
102
}
102
{ACAD_XDICTIONARY
360
70
102
}
330
2A
100
AcDbVisualStyle
  2
GouraudWithEdges
 70
     3
 71
     2
 72
     2
 73
     1
 90
        2
 40
-0.6
 41
30.0
 62
     5
 63
     7
421
 16777215
 74
     1
 91
        4
 64
     7
 65
   257
 75
     1
175
     1
 42
1.0
 92
        0
 66
   257
 43
1.0
 76
     1
 77
     6
 78
     2
 67
     7
 79
     5
170
     0
171
     0
290
     0
174
     0
 93
       13
 44
0.0
173
     0
291
     1
 45
0.0
  0
VISUALSTYLE
  5
38
102
{ACAD_REACTORS
330
2A
102
}
102
{ACAD_XDICTIONARY
360
84
102
}
330
2A
100
AcDbVisualStyle
  2
Linepattern
 70
    14
 71
     2
 72
     2
 73
     0
 90
        0
 40
-0.6
 41
-30.0
 62
     5
 63
     7
421
 16777215
 74
     1
 91
        4
 64
     7
 65
   257
 75
     7
175
     7
 42
1.0
 92
        8
 66
     7
 43
1.0
 76
     1
 77
     6
 78
     2
 67
     7
 79
     5
170
     0
171
     0
290
     0
174
     0
 93
        1
 44
0.0
173
     0
291
     1
 45
0.0
  0
VISUALSTYLE
  5
33
102
{ACAD_REACTORS
330
2A
102
}
102
{ACAD_XDICTIONARY
360
7A
102
}
330
2A
100
AcDbVisualStyle
  2
Realistic
 70
     8
 71
     2
 72
     2
 73
     0
 90
        0
 40
-0.6
 41
-30.0
 62
     5
 63
     7
421
 16777215
 74
     1
 91
        0
 64
     7
 65
   257
 75
     1
175
     1
 42
1.0
 92
        8
 66
     8
424
  7895160
 43
1.0
 76
     1
 77
     6
 78
     2
 67
     7
 79
     5
170
     0
171
     0
290
     0
174
     0
 93
       13
 44
0.0
173
     0
291
     0
 45
0.0
  0
VISUALSTYLE
  5
37
102
{ACAD_REACTORS
330
2A
102
}
102
{ACAD_XDICTIONARY
360
82
102
}
330
2A
100
AcDbVisualStyle
  2
Thicken
 70
    13
 71
     2
 72
     2
 73
     0
 90
        0
 40
-0.6
 41
-30.0
 62
     5
 63
     7
421
 16777215
 74
     1
 91
        4
 64
     7
 65
   257
 75
     1
175
     1
 42
1.0
 92
       12
 66
     7
 43
1.0
 76
     1
 77
     6
 78
     2
 67
     7
 79
     5
170
     0
171
     0
290
     0
174
     0
 93
        1
 44
0.0
173
     0
291
     1
 45
0.0
  0
DICTIONARY
  5
72
330
2F
100
AcDbDictionary
280
     1
281
     1
  3
ACAD_XREC_ROUNDTRIP
360
73
  0
DICTIONARY
  5
76
330
31
100
AcDbDictionary
280
     1
281
     1
  3
ACAD_XREC_ROUNDTRIP
360
77
  0
DICTIONARY
  5
74
330
30
100
AcDbDictionary
280
     1
281
     1
  3
ACAD_XREC_ROUNDTRIP
360
75
  0
DICTIONARY
  5
78
330
32
100
AcDbDictionary
280
     1
281
     1
  3
ACAD_XREC_ROUNDTRIP
360
79
  0
DICTIONARY
  5
80
330
36
100
AcDbDictionary
280
     1
281
     1
  3
ACAD_XREC_ROUNDTRIP
360
81
  0
DICTIONARY
  5
88
330
3A
100
AcDbDictionary
280
     1
281
     1
  3
ACAD_XREC_ROUNDTRIP
360
89
  0
DICTIONARY
  5
7C
330
34
100
AcDbDictionary
280
     1
281
     1
  3
ACAD_XREC_ROUNDTRIP
360
7D
  0
DICTIONARY
  5
7E
330
35
100
AcDbDictionary
280
     1
281
     1
  3
ACAD_XREC_ROUNDTRIP
360
7F
  0
DICTIONARY
  5
86
330
39
100
AcDbDictionary
280
     1
281
     1
  3
ACAD_XREC_ROUNDTRIP
360
87
  0
DICTIONARY
  5
6A
330
2B
100
AcDbDictionary
280
     1
281
     1
  3
ACAD_XREC_ROUNDTRIP
360
6B
  0
DICTIONARY
  5
6C
330
2C
100
AcDbDictionary
280
     1
281
     1
  3
ACAD_XREC_ROUNDTRIP
360
6D
  0
DICTIONARY
  5
6E
330
2D
100
AcDbDictionary
280
     1
281
     1
  3
ACAD_XREC_ROUNDTRIP
360
6F
  0
DICTIONARY
  5
70
330
2E
100
AcDbDictionary
280
     1
281
     1
  3
ACAD_XREC_ROUNDTRIP
360
71
  0
DICTIONARY
  5
84
330
38
100
AcDbDictionary
280
     1
281
     1
  3
ACAD_XREC_ROUNDTRIP
360
85
  0
DICTIONARY
  5
7A
330
33
100
AcDbDictionary
280
     1
281
     1
  3
ACAD_XREC_ROUNDTRIP
360
7B
  0
DICTIONARY
  5
82
330
37
100
AcDbDictionary
280
     1
281
     1
  3
ACAD_XREC_ROUNDTRIP
360
83
  0
XRECORD
  5
73
102
{ACAD_REACTORS
330
72
102
}
330
72
100
AcDbXrecord
280
     1
102
RTVSPropertyOp0
 70
     1
102
RTVSPropertyOp1
 70
     1
102
RTVSPropertyOp2
 70
     1
102
RTVSPropertyOp3
 70
     1
102
RTVSPropertyOp4
 70
     1
102
RTVSPropertyOp5
 70
     1
102
RTVSPropertyOp6
 70
     1
102
RTVSPropertyOp7
 70
     1
102
RTVSPropertyOp8
 70
     1
102
RTVSPropertyOp9
 70
     1
102
RTVSPropertyOp10
 70
     1
102
RTVSPropertyOp11
 70
     1
102
RTVSPropertyOp12
 70
     1
102
RTVSPropertyOp13
 70
     1
102
RTVSPropertyOp14
 70
     1
102
RTVSPropertyOp15
 70
     1
102
RTVSPropertyOp16
 70
     1
102
RTVSPropertyOp17
 70
     1
102
RTVSPropertyOp18
 70
     1
102
RTVSPropertyOp19
 70
     1
102
RTVSPropertyOp20
 70
     1
102
RTVSPropertyOp21
 70
     1
102
RTVSPropertyOp22
 70
     1
102
RTVSPropertyOp23
 70
     1
102
RTVSPropertyOp24
 70
     1
102
RTVSPropertyOp25
 70
     1
102
RTVSPropertyOp26
 70
     1
102
RTVSPropertyOp27
 70
     1
102
RTVSPropertyOp28
 70
     1
102
RTVSPropertyOp29
 70
     1
102
RTVSPropertyOp30
 70
     1
102
RTVSPropertyOp31
 70
     1
102
RTVSPropertyOp32
 70
     1
  0
XRECORD
  5
77
102
{ACAD_REACTORS
330
76
102
}
330
76
100
AcDbXrecord
280
     1
102
RTVSPropertyOp0
 70
     1
102
RTVSPropertyOp1
 70
     1
102
RTVSPropertyOp2
 70
     1
102
RTVSPropertyOp3
 70
     1
102
RTVSPropertyOp4
 70
     1
102
RTVSPropertyOp5
 70
     1
102
RTVSPropertyOp6
 70
     1
102
RTVSPropertyOp7
 70
     1
102
RTVSPropertyOp8
 70
     1
102
RTVSPropertyOp9
 70
     1
102
RTVSPropertyOp10
 70
     1
102
RTVSPropertyOp11
 70
     1
102
RTVSPropertyOp12
 70
     1
102
RTVSPropertyOp13
 70
     1
102
RTVSPropertyOp14
 70
     1
102
RTVSPropertyOp15
 70
     1
102
RTVSPropertyOp16
 70
     1
102
RTVSPropertyOp17
 70
     1
102
RTVSPropertyOp18
 70
     1
102
RTVSPropertyOp19
 70
     1
102
RTVSPropertyOp20
 70
     1
102
RTVSPropertyOp21
 70
     1
102
RTVSPropertyOp22
 70
     1
102
RTVSPropertyOp23
 70
     1
102
RTVSPropertyOp24
 70
     1
102
RTVSPropertyOp25
 70
     1
102
RTVSPropertyOp26
 70
     1
102
RTVSPropertyOp27
 70
     1
102
RTVSPropertyOp28
 70
     1
102
RTVSPropertyOp29
 70
     1
102
RTVSPropertyOp30
 70
     1
102
RTVSPropertyOp31
 70
     1
102
RTVSPropertyOp32
 70
     1
  0
XRECORD
  5
75
102
{ACAD_REACTORS
330
74
102
}
330
74
100
AcDbXrecord
280
     1
102
RTVSPropertyOp0
 70
     1
102
RTVSPropertyOp1
 70
     1
102
RTVSPropertyOp2
 70
     1
102
RTVSPropertyOp3
 70
     1
102
RTVSPropertyOp4
 70
     1
102
RTVSPropertyOp5
 70
     1
102
RTVSPropertyOp6
 70
     1
102
RTVSPropertyOp7
 70
     1
102
RTVSPropertyOp8
 70
     1
102
RTVSPropertyOp9
 70
     1
102
RTVSPropertyOp10
 70
     1
102
RTVSPropertyOp11
 70
     1
102
RTVSPropertyOp12
 70
     1
102
RTVSPropertyOp13
 70
     1
102
RTVSPropertyOp14
 70
     1
102
RTVSPropertyOp15
 70
     1
102
RTVSPropertyOp16
 70
     1
102
RTVSPropertyOp17
 70
     1
102
RTVSPropertyOp18
 70
     1
102
RTVSPropertyOp19
 70
     1
102
RTVSPropertyOp20
 70
     1
102
RTVSPropertyOp21
 70
     1
102
RTVSPropertyOp22
 70
     1
102
RTVSPropertyOp23
 70
     1
102
RTVSPropertyOp24
 70
     1
102
RTVSPropertyOp25
 70
     1
102
RTVSPropertyOp26
 70
     1
102
RTVSPropertyOp27
 70
     1
102
RTVSPropertyOp28
 70
     1
102
RTVSPropertyOp29
 70
     1
102
RTVSPropertyOp30
 70
     1
102
RTVSPropertyOp31
 70
     1
102
RTVSPropertyOp32
 70
     1
  0
XRECORD
  5
79
102
{ACAD_REACTORS
330
78
102
}
330
78
100
AcDbXrecord
280
     1
102
RTVSPropertyOp0
 70
     1
102
RTVSPropertyOp1
 70
     1
102
RTVSPropertyOp2
 70
     1
102
RTVSPropertyOp3
 70
     1
102
RTVSPropertyOp4
 70
     1
102
RTVSPropertyOp5
 70
     1
102
RTVSPropertyOp6
 70
     1
102
RTVSPropertyOp7
 70
     1
102
RTVSPropertyOp8
 70
     1
102
RTVSPropertyOp9
 70
     1
102
RTVSPropertyOp10
 70
     1
102
RTVSPropertyOp11
 70
     1
102
RTVSPropertyOp12
 70
     1
102
RTVSPropertyOp13
 70
     1
102
RTVSPropertyOp14
 70
     1
102
RTVSPropertyOp15
 70
     1
102
RTVSPropertyOp16
 70
     1
102
RTVSPropertyOp17
 70
     1
102
RTVSPropertyOp18
 70
     1
102
RTVSPropertyOp19
 70
     1
102
RTVSPropertyOp20
 70
     1
102
RTVSPropertyOp21
 70
     1
102
RTVSPropertyOp22
 70
     1
102
RTVSPropertyOp23
 70
     1
102
RTVSPropertyOp24
 70
     1
102
RTVSPropertyOp25
 70
     1
102
RTVSPropertyOp26
 70
     1
102
RTVSPropertyOp27
 70
     1
102
RTVSPropertyOp28
 70
     1
102
RTVSPropertyOp29
 70
     1
102
RTVSPropertyOp30
 70
     1
102
RTVSPropertyOp31
 70
     1
102
RTVSPropertyOp32
 70
     1
  0
XRECORD
  5
81
102
{ACAD_REACTORS
330
80
102
}
330
80
100
AcDbXrecord
280
     1
102
RTVSPropertyOp0
 70
     1
102
RTVSPropertyOp1
 70
     1
102
RTVSPropertyOp2
 70
     1
102
RTVSPropertyOp3
 70
     1
102
RTVSPropertyOp4
 70
     1
102
RTVSPropertyOp5
 70
     1
102
RTVSPropertyOp6
 70
     1
102
RTVSPropertyOp7
 70
     1
102
RTVSPropertyOp8
 70
     1
102
RTVSPropertyOp9
 70
     1
102
RTVSPropertyOp10
 70
     1
102
RTVSPropertyOp11
 70
     1
102
RTVSPropertyOp12
 70
     1
102
RTVSPropertyOp13
 70
     1
102
RTVSPropertyOp14
 70
     1
102
RTVSPropertyOp15
 70
     1
102
RTVSPropertyOp16
 70
     1
102
RTVSPropertyOp17
 70
     1
102
RTVSPropertyOp18
 70
     1
102
RTVSPropertyOp19
 70
     1
102
RTVSPropertyOp20
 70
     1
102
RTVSPropertyOp21
 70
     1
102
RTVSPropertyOp22
 70
     1
102
RTVSPropertyOp23
 70
     1
102
RTVSPropertyOp24
 70
     1
102
RTVSPropertyOp25
 70
     1
102
RTVSPropertyOp26
 70
     1
102
RTVSPropertyOp27
 70
     1
102
RTVSPropertyOp28
 70
     1
102
RTVSPropertyOp29
 70
     1
102
RTVSPropertyOp30
 70
     1
102
RTVSPropertyOp31
 70
     1
102
RTVSPropertyOp32
 70
     1
  0
XRECORD
  5
89
102
{ACAD_REACTORS
330
88
102
}
330
88
100
AcDbXrecord
280
     1
102
RTVSPropertyOp0
 70
     1
102
RTVSPropertyOp1
 70
     1
102
RTVSPropertyOp2
 70
     1
102
RTVSPropertyOp3
 70
     1
102
RTVSPropertyOp4
 70
     1
102
RTVSPropertyOp5
 70
     1
102
RTVSPropertyOp6
 70
     1
102
RTVSPropertyOp7
 70
     1
102
RTVSPropertyOp8
 70
     1
102
RTVSPropertyOp9
 70
     1
102
RTVSPropertyOp10
 70
     1
102
RTVSPropertyOp11
 70
     1
102
RTVSPropertyOp12
 70
     1
102
RTVSPropertyOp13
 70
     1
102
RTVSPropertyOp14
 70
     1
102
RTVSPropertyOp15
 70
     1
102
RTVSPropertyOp16
 70
     1
102
RTVSPropertyOp17
 70
     1
102
RTVSPropertyOp18
 70
     1
102
RTVSPropertyOp19
 70
     1
102
RTVSPropertyOp20
 70
     1
102
RTVSPropertyOp21
 70
     1
102
RTVSPropertyOp22
 70
     1
102
RTVSPropertyOp23
 70
     1
102
RTVSPropertyOp24
 70
     1
102
RTVSPropertyOp25
 70
     1
102
RTVSPropertyOp26
 70
     1
102
RTVSPropertyOp27
 70
     1
102
RTVSPropertyOp28
 70
     1
102
RTVSPropertyOp29
 70
     1
102
RTVSPropertyOp30
 70
     1
102
RTVSPropertyOp31
 70
     1
102
RTVSPropertyOp32
 70
     1
  0
XRECORD
  5
7D
102
{ACAD_REACTORS
330
7C
102
}
330
7C
100
AcDbXrecord
280
     1
102
RTVSPropertyOp0
 70
     1
102
RTVSPropertyOp1
 70
     1
102
RTVSPropertyOp2
 70
     1
102
RTVSPropertyOp3
 70
     1
102
RTVSPropertyOp4
 70
     1
102
RTVSPropertyOp5
 70
     1
102
RTVSPropertyOp6
 70
     1
102
RTVSPropertyOp7
 70
     1
102
RTVSPropertyOp8
 70
     1
102
RTVSPropertyOp9
 70
     1
102
RTVSPropertyOp10
 70
     1
102
RTVSPropertyOp11
 70
     1
102
RTVSPropertyOp12
 70
     1
102
RTVSPropertyOp13
 70
     1
102
RTVSPropertyOp14
 70
     1
102
RTVSPropertyOp15
 70
     1
102
RTVSPropertyOp16
 70
     1
102
RTVSPropertyOp17
 70
     1
102
RTVSPropertyOp18
 70
     1
102
RTVSPropertyOp19
 70
     1
102
RTVSPropertyOp20
 70
     1
102
RTVSPropertyOp21
 70
     1
102
RTVSPropertyOp22
 70
     1
102
RTVSPropertyOp23
 70
     1
102
RTVSPropertyOp24
 70
     1
102
RTVSPropertyOp25
 70
     1
102
RTVSPropertyOp26
 70
     1
102
RTVSPropertyOp27
 70
     1
102
RTVSPropertyOp28
 70
     1
102
RTVSPropertyOp29
 70
     1
102
RTVSPropertyOp30
 70
     1
102
RTVSPropertyOp31
 70
     1
102
RTVSPropertyOp32
 70
     1
  0
XRECORD
  5
7F
102
{ACAD_REACTORS
330
7E
102
}
330
7E
100
AcDbXrecord
280
     1
102
RTVSPropertyOp0
 70
     1
102
RTVSPropertyOp1
 70
     1
102
RTVSPropertyOp2
 70
     1
102
RTVSPropertyOp3
 70
     1
102
RTVSPropertyOp4
 70
     1
102
RTVSPropertyOp5
 70
     1
102
RTVSPropertyOp6
 70
     1
102
RTVSPropertyOp7
 70
     1
102
RTVSPropertyOp8
 70
     1
102
RTVSPropertyOp9
 70
     1
102
RTVSPropertyOp10
 70
     1
102
RTVSPropertyOp11
 70
     1
102
RTVSPropertyOp12
 70
     1
102
RTVSPropertyOp13
 70
     1
102
RTVSPropertyOp14
 70
     1
102
RTVSPropertyOp15
 70
     1
102
RTVSPropertyOp16
 70
     1
102
RTVSPropertyOp17
 70
     1
102
RTVSPropertyOp18
 70
     1
102
RTVSPropertyOp19
 70
     1
102
RTVSPropertyOp20
 70
     1
102
RTVSPropertyOp21
 70
     1
102
RTVSPropertyOp22
 70
     1
102
RTVSPropertyOp23
 70
     1
102
RTVSPropertyOp24
 70
     1
102
RTVSPropertyOp25
 70
     1
102
RTVSPropertyOp26
 70
     1
102
RTVSPropertyOp27
 70
     1
102
RTVSPropertyOp28
 70
     1
102
RTVSPropertyOp29
 70
     1
102
RTVSPropertyOp30
 70
     1
102
RTVSPropertyOp31
 70
     1
102
RTVSPropertyOp32
 70
     1
  0
XRECORD
  5
87
102
{ACAD_REACTORS
330
86
102
}
330
86
100
AcDbXrecord
280
     1
102
RTVSPropertyOp0
 70
     1
102
RTVSPropertyOp1
 70
     1
102
RTVSPropertyOp2
 70
     1
102
RTVSPropertyOp3
 70
     1
102
RTVSPropertyOp4
 70
     1
102
RTVSPropertyOp5
 70
     1
102
RTVSPropertyOp6
 70
     1
102
RTVSPropertyOp7
 70
     1
102
RTVSPropertyOp8
 70
     1
102
RTVSPropertyOp9
 70
     1
102
RTVSPropertyOp10
 70
     1
102
RTVSPropertyOp11
 70
     1
102
RTVSPropertyOp12
 70
     1
102
RTVSPropertyOp13
 70
     1
102
RTVSPropertyOp14
 70
     1
102
RTVSPropertyOp15
 70
     1
102
RTVSPropertyOp16
 70
     1
102
RTVSPropertyOp17
 70
     1
102
RTVSPropertyOp18
 70
     1
102
RTVSPropertyOp19
 70
     1
102
RTVSPropertyOp20
 70
     1
102
RTVSPropertyOp21
 70
     1
102
RTVSPropertyOp22
 70
     1
102
RTVSPropertyOp23
 70
     1
102
RTVSPropertyOp24
 70
     1
102
RTVSPropertyOp25
 70
     1
102
RTVSPropertyOp26
 70
     1
102
RTVSPropertyOp27
 70
     1
102
RTVSPropertyOp28
 70
     1
102
RTVSPropertyOp29
 70
     1
102
RTVSPropertyOp30
 70
     1
102
RTVSPropertyOp31
 70
     1
102
RTVSPropertyOp32
 70
     1
  0
XRECORD
  5
6B
102
{ACAD_REACTORS
330
6A
102
}
330
6A
100
AcDbXrecord
280
     1
102
RTVSPropertyOp0
 70
     1
102
RTVSPropertyOp1
 70
     1
102
RTVSPropertyOp2
 70
     1
102
RTVSPropertyOp3
 70
     1
102
RTVSPropertyOp4
 70
     1
102
RTVSPropertyOp5
 70
     1
102
RTVSPropertyOp6
 70
     1
102
RTVSPropertyOp7
 70
     1
102
RTVSPropertyOp8
 70
     1
102
RTVSPropertyOp9
 70
     1
102
RTVSPropertyOp10
 70
     1
102
RTVSPropertyOp11
 70
     1
102
RTVSPropertyOp12
 70
     1
102
RTVSPropertyOp13
 70
     1
102
RTVSPropertyOp14
 70
     1
102
RTVSPropertyOp15
 70
     1
102
RTVSPropertyOp16
 70
     1
102
RTVSPropertyOp17
 70
     1
102
RTVSPropertyOp18
 70
     1
102
RTVSPropertyOp19
 70
     1
102
RTVSPropertyOp20
 70
     1
102
RTVSPropertyOp21
 70
     1
102
RTVSPropertyOp22
 70
     1
102
RTVSPropertyOp23
 70
     1
102
RTVSPropertyOp24
 70
     1
102
RTVSPropertyOp25
 70
     1
102
RTVSPropertyOp26
 70
     1
102
RTVSPropertyOp27
 70
     1
102
RTVSPropertyOp28
 70
     1
102
RTVSPropertyOp29
 70
     1
102
RTVSPropertyOp30
 70
     1
102
RTVSPropertyOp31
 70
     1
102
RTVSPropertyOp32
 70
     1
  0
XRECORD
  5
6D
102
{ACAD_REACTORS
330
6C
102
}
330
6C
100
AcDbXrecord
280
     1
102
RTVSPropertyOp0
 70
     1
102
RTVSPropertyOp1
 70
     1
102
RTVSPropertyOp2
 70
     1
102
RTVSPropertyOp3
 70
     1
102
RTVSPropertyOp4
 70
     1
102
RTVSPropertyOp5
 70
     1
102
RTVSPropertyOp6
 70
     1
102
RTVSPropertyOp7
 70
     1
102
RTVSPropertyOp8
 70
     1
102
RTVSPropertyOp9
 70
     1
102
RTVSPropertyOp10
 70
     1
102
RTVSPropertyOp11
 70
     1
102
RTVSPropertyOp12
 70
     1
102
RTVSPropertyOp13
 70
     1
102
RTVSPropertyOp14
 70
     1
102
RTVSPropertyOp15
 70
     1
102
RTVSPropertyOp16
 70
     1
102
RTVSPropertyOp17
 70
     1
102
RTVSPropertyOp18
 70
     1
102
RTVSPropertyOp19
 70
     1
102
RTVSPropertyOp20
 70
     1
102
RTVSPropertyOp21
 70
     1
102
RTVSPropertyOp22
 70
     1
102
RTVSPropertyOp23
 70
     1
102
RTVSPropertyOp24
 70
     1
102
RTVSPropertyOp25
 70
     1
102
RTVSPropertyOp26
 70
     1
102
RTVSPropertyOp27
 70
     1
102
RTVSPropertyOp28
 70
     1
102
RTVSPropertyOp29
 70
     1
102
RTVSPropertyOp30
 70
     1
102
RTVSPropertyOp31
 70
     1
102
RTVSPropertyOp32
 70
     1
  0
XRECORD
  5
6F
102
{ACAD_REACTORS
330
6E
102
}
330
6E
100
AcDbXrecord
280
     1
102
RTVSPropertyOp0
 70
     1
102
RTVSPropertyOp1
 70
     1
102
RTVSPropertyOp2
 70
     1
102
RTVSPropertyOp3
 70
     1
102
RTVSPropertyOp4
 70
     1
102
RTVSPropertyOp5
 70
     1
102
RTVSPropertyOp6
 70
     1
102
RTVSPropertyOp7
 70
     1
102
RTVSPropertyOp8
 70
     1
102
RTVSPropertyOp9
 70
     1
102
RTVSPropertyOp10
 70
     1
102
RTVSPropertyOp11
 70
     1
102
RTVSPropertyOp12
 70
     1
102
RTVSPropertyOp13
 70
     1
102
RTVSPropertyOp14
 70
     1
102
RTVSPropertyOp15
 70
     1
102
RTVSPropertyOp16
 70
     1
102
RTVSPropertyOp17
 70
     1
102
RTVSPropertyOp18
 70
     1
102
RTVSPropertyOp19
 70
     1
102
RTVSPropertyOp20
 70
     1
102
RTVSPropertyOp21
 70
     1
102
RTVSPropertyOp22
 70
     1
102
RTVSPropertyOp23
 70
     1
102
RTVSPropertyOp24
 70
     1
102
RTVSPropertyOp25
 70
     1
102
RTVSPropertyOp26
 70
     1
102
RTVSPropertyOp27
 70
     1
102
RTVSPropertyOp28
 70
     1
102
RTVSPropertyOp29
 70
     1
102
RTVSPropertyOp30
 70
     1
102
RTVSPropertyOp31
 70
     1
102
RTVSPropertyOp32
 70
     1
  0
XRECORD
  5
71
102
{ACAD_REACTORS
330
70
102
}
330
70
100
AcDbXrecord
280
     1
102
RTVSPropertyOp0
 70
     1
102
RTVSPropertyOp1
 70
     1
102
RTVSPropertyOp2
 70
     1
102
RTVSPropertyOp3
 70
     1
102
RTVSPropertyOp4
 70
     1
102
RTVSPropertyOp5
 70
     1
102
RTVSPropertyOp6
 70
     1
102
RTVSPropertyOp7
 70
     1
102
RTVSPropertyOp8
 70
     1
102
RTVSPropertyOp9
 70
     1
102
RTVSPropertyOp10
 70
     1
102
RTVSPropertyOp11
 70
     1
102
RTVSPropertyOp12
 70
     1
102
RTVSPropertyOp13
 70
     1
102
RTVSPropertyOp14
 70
     1
102
RTVSPropertyOp15
 70
     1
102
RTVSPropertyOp16
 70
     1
102
RTVSPropertyOp17
 70
     1
102
RTVSPropertyOp18
 70
     1
102
RTVSPropertyOp19
 70
     1
102
RTVSPropertyOp20
 70
     1
102
RTVSPropertyOp21
 70
     1
102
RTVSPropertyOp22
 70
     1
102
RTVSPropertyOp23
 70
     1
102
RTVSPropertyOp24
 70
     1
102
RTVSPropertyOp25
 70
     1
102
RTVSPropertyOp26
 70
     1
102
RTVSPropertyOp27
 70
     1
102
RTVSPropertyOp28
 70
     1
102
RTVSPropertyOp29
 70
     1
102
RTVSPropertyOp30
 70
     1
102
RTVSPropertyOp31
 70
     1
102
RTVSPropertyOp32
 70
     1
  0
XRECORD
  5
85
102
{ACAD_REACTORS
330
84
102
}
330
84
100
AcDbXrecord
280
     1
102
RTVSPropertyOp0
 70
     1
102
RTVSPropertyOp1
 70
     1
102
RTVSPropertyOp2
 70
     1
102
RTVSPropertyOp3
 70
     1
102
RTVSPropertyOp4
 70
     1
102
RTVSPropertyOp5
 70
     1
102
RTVSPropertyOp6
 70
     1
102
RTVSPropertyOp7
 70
     1
102
RTVSPropertyOp8
 70
     1
102
RTVSPropertyOp9
 70
     1
102
RTVSPropertyOp10
 70
     1
102
RTVSPropertyOp11
 70
     1
102
RTVSPropertyOp12
 70
     1
102
RTVSPropertyOp13
 70
     1
102
RTVSPropertyOp14
 70
     1
102
RTVSPropertyOp15
 70
     1
102
RTVSPropertyOp16
 70
     1
102
RTVSPropertyOp17
 70
     1
102
RTVSPropertyOp18
 70
     1
102
RTVSPropertyOp19
 70
     1
102
RTVSPropertyOp20
 70
     1
102
RTVSPropertyOp21
 70
     1
102
RTVSPropertyOp22
 70
     1
102
RTVSPropertyOp23
 70
     1
102
RTVSPropertyOp24
 70
     1
102
RTVSPropertyOp25
 70
     1
102
RTVSPropertyOp26
 70
     1
102
RTVSPropertyOp27
 70
     1
102
RTVSPropertyOp28
 70
     1
102
RTVSPropertyOp29
 70
     1
102
RTVSPropertyOp30
 70
     1
102
RTVSPropertyOp31
 70
     1
102
RTVSPropertyOp32
 70
     1
  0
XRECORD
  5
7B
102
{ACAD_REACTORS
330
7A
102
}
330
7A
100
AcDbXrecord
280
     1
102
RTVSPropertyOp0
 70
     1
102
RTVSPropertyOp1
 70
     1
102
RTVSPropertyOp2
 70
     1
102
RTVSPropertyOp3
 70
     1
102
RTVSPropertyOp4
 70
     1
102
RTVSPropertyOp5
 70
     1
102
RTVSPropertyOp6
 70
     1
102
RTVSPropertyOp7
 70
     1
102
RTVSPropertyOp8
 70
     1
102
RTVSPropertyOp9
 70
     1
102
RTVSPropertyOp10
 70
     1
102
RTVSPropertyOp11
 70
     1
102
RTVSPropertyOp12
 70
     1
102
RTVSPropertyOp13
 70
     1
102
RTVSPropertyOp14
 70
     1
102
RTVSPropertyOp15
 70
     1
102
RTVSPropertyOp16
 70
     1
102
RTVSPropertyOp17
 70
     1
102
RTVSPropertyOp18
 70
     1
102
RTVSPropertyOp19
 70
     1
102
RTVSPropertyOp20
 70
     1
102
RTVSPropertyOp21
 70
     1
102
RTVSPropertyOp22
 70
     1
102
RTVSPropertyOp23
 70
     1
102
RTVSPropertyOp24
 70
     1
102
RTVSPropertyOp25
 70
     1
102
RTVSPropertyOp26
 70
     1
102
RTVSPropertyOp27
 70
     1
102
RTVSPropertyOp28
 70
     1
102
RTVSPropertyOp29
 70
     1
102
RTVSPropertyOp30
 70
     1
102
RTVSPropertyOp31
 70
     1
102
RTVSPropertyOp32
 70
     1
  0
XRECORD
  5
83
102
{ACAD_REACTORS
330
82
102
}
330
82
100
AcDbXrecord
280
     1
102
RTVSPropertyOp0
 70
     1
102
RTVSPropertyOp1
 70
     1
102
RTVSPropertyOp2
 70
     1
102
RTVSPropertyOp3
 70
     1
102
RTVSPropertyOp4
 70
     1
102
RTVSPropertyOp5
 70
     1
102
RTVSPropertyOp6
 70
     1
102
RTVSPropertyOp7
 70
     1
102
RTVSPropertyOp8
 70
     1
102
RTVSPropertyOp9
 70
     1
102
RTVSPropertyOp10
 70
     1
102
RTVSPropertyOp11
 70
     1
102
RTVSPropertyOp12
 70
     1
102
RTVSPropertyOp13
 70
     1
102
RTVSPropertyOp14
 70
     1
102
RTVSPropertyOp15
 70
     1
102
RTVSPropertyOp16
 70
     1
102
RTVSPropertyOp17
 70
     1
102
RTVSPropertyOp18
 70
     1
102
RTVSPropertyOp19
 70
     1
102
RTVSPropertyOp20
 70
     1
102
RTVSPropertyOp21
 70
     1
102
RTVSPropertyOp22
 70
     1
102
RTVSPropertyOp23
 70
     1
102
RTVSPropertyOp24
 70
     1
102
RTVSPropertyOp25
 70
     1
102
RTVSPropertyOp26
 70
     1
102
RTVSPropertyOp27
 70
     1
102
RTVSPropertyOp28
 70
     1
102
RTVSPropertyOp29
 70
     1
102
RTVSPropertyOp30
 70
     1
102
RTVSPropertyOp31
 70
     1
102
RTVSPropertyOp32
 70
     1
  0
ENDSEC
  0
EOF
