  0
SECTION
  2
HEADER
  9
$ACADVER
  1
AC1021
  9
$ACADMAINTVER
 70
    25
  9
$DWGCODEPAGE
  3
ANSI_1252
  9
$INSBASE
 10
0.0
 20
0.0
 30
0.0
  9
$EXTMIN
 10
-2.78168
 20
-7.5908
 30
0.0
  9
$EXTMAX
 10
2.76945
 20
7.60912
 30
0.0
  9
$LIMMIN
 10
0.0
 20
0.0
  9
$LIMMAX
 10
12.0
 20
9.0
  9
$ORTHOMODE
 70
     0
  9
$REGENMODE
 70
     1
  9
$FILLMODE
 70
     1
  9
$QTEXTMODE
 70
     0
  9
$MIRRTEXT
 70
     1
  9
$LTSCALE
 40
1.0
  9
$ATTMODE
 70
     1
  9
$TEXTSIZE
 40
0.2
  9
$TRACEWID
 40
0.05
  9
$TEXTSTYLE
  7
Standard
  9
$CLAYER
  8
0
  9
$CELTYPE
  6
ByLayer
  9
$CECOLOR
 62
   256
  9
$CELTSCALE
 40
1.0
  9
$DISPSILH
 70
     0
  9
$DIMSCALE
 40
1.0
  9
$DIMASZ
 40
0.18
  9
$DIMEXO
 40
0.0625
  9
$DIMDLI
 40
0.38
  9
$DIMRND
 40
0.0
  9
$DIMDLE
 40
0.0
  9
$DIMEXE
 40
0.18
  9
$DIMTP
 40
0.0
  9
$DIMTM
 40
0.0
  9
$DIMTXT
 40
0.18
  9
$DIMCEN
 40
0.09
  9
$DIMTSZ
 40
0.0
  9
$DIMTOL
 70
     0
  9
$DIMLIM
 70
     0
  9
$DIMTIH
 70
     1
  9
$DIMTOH
 70
     1
  9
$DIMSE1
 70
     0
  9
$DIMSE2
 70
     0
  9
$DIMTAD
 70
     0
  9
$DIMZIN
 70
     0
  9
$DIMBLK
  1

  9
$DIMASO
 70
     1
  9
$DIMSHO
 70
     1
  9
$DIMPOST
  1

  9
$DIMAPOST
  1

  9
$DIMALT
 70
     0
  9
$DIMALTD
 70
     2
  9
$DIMALTF
 40
25.4
  9
$DIMLFAC
 40
1.0
  9
$DIMTOFL
 70
     0
  9
$DIMTVP
 40
0.0
  9
$DIMTIX
 70
     0
  9
$DIMSOXD
 70
     0
  9
$DIMSAH
 70
     0
  9
$DIMBLK1
  1

  9
$DIMBLK2
  1

  9
$DIMSTYLE
  2
Standard
  9
$DIMCLRD
 70
     0
  9
$DIMCLRE
 70
     0
  9
$DIMCLRT
 70
     0
  9
$DIMTFAC
 40
1.0
  9
$DIMGAP
 40
0.09
  9
$DIMJUST
 70
     0
  9
$DIMSD1
 70
     0
  9
$DIMSD2
 70
     0
  9
$DIMTOLJ
 70
     1
  9
$DIMTZIN
 70
     0
  9
$DIMALTZ
 70
     0
  9
$DIMALTTZ
 70
     0
  9
$DIMUPT
 70
     0
  9
$DIMDEC
 70
     4
  9
$DIMTDEC
 70
     4
  9
$DIMALTU
 70
     2
  9
$DIMALTTD
 70
     2
  9
$DIMTXSTY
  7
Standard
  9
$DIMAUNIT
 70
     0
  9
$DIMADEC
 70
     0
  9
$DIMALTRND
 40
0.0
  9
$DIMAZIN
 70
     0
  9
$DIMDSEP
 70
    46
  9
$DIMATFIT
 70
     3
  9
$DIMFRAC
 70
     0
  9
$DIMLDRBLK
  1

  9
$DIMLUNIT
 70
     2
  9
$DIMLWD
 70
    -2
  9
$DIMLWE
 70
    -2
  9
$DIMTMOVE
 70
     0
  9
$DIMFXL
 40
1.0
  9
$DIMFXLON
 70
     0
  9
$DIMJOGANG
 40
0.7853981633974483
  9
$DIMTFILL
 70
     0
  9
$DIMTFILLCLR
 70
     0
  9
$DIMARCSYM
 70
     0
  9
$DIMLTYPE
  6

  9
$DIMLTEX1
  6

  9
$DIMLTEX2
  6

  9
$LUNITS
 70
     2
  9
$LUPREC
 70
     4
  9
$SKETCHINC
 40
0.1
  9
$FILLETRAD
 40
0.5
  9
$AUNITS
 70
     0
  9
$AUPREC
 70
     0
  9
$MENU
  1
.
  9
$ELEVATION
 40
0.0
  9
$PELEVATION
 40
0.0
  9
$THICKNESS
 40
0.0
  9
$LIMCHECK
 70
     0
  9
$CHAMFERA
 40
0.5
  9
$CHAMFERB
 40
0.5
  9
$CHAMFERC
 40
1.0
  9
$CHAMFERD
 40
0.0
  9
$SKPOLY
 70
     0
  9
$TDCREATE
 40
2456866.811505706
  9
$TDUCREATE
 40
2456866.936505706
  9
$TDUPDATE
 40
2456866.811506076
  9
$TDUUPDATE
 40
2456866.936506076
  9
$TDINDWG
 40
0.0000000116
  9
$TDUSRTIMER
 40
0.0000000116
  9
$USRTIMER
 70
     1
  9
$ANGBASE
 50
0.0
  9
$ANGDIR
 70
     0
  9
$PDMODE
 70
     0
  9
$PDSIZE
 40
0.0
  9
$PLINEWID
 40
0.0
  9
$SPLFRAME
 70
     0
  9
$SPLINETYPE
 70
     6
  9
$SPLINESEGS
 70
     8
  9
$HANDSEED
  5
6E
  9
$SURFTAB1
 70
     6
  9
$SURFTAB2
 70
     6
  9
$SURFTYPE
 70
     6
  9
$SURFU
 70
     6
  9
$SURFV
 70
     6
  9
$UCSBASE
  2

  9
$UCSNAME
  2

  9
$UCSORG
 10
0.0
 20
0.0
 30
0.0
  9
$UCSXDIR
 10
1.0
 20
0.0
 30
0.0
  9
$UCSYDIR
 10
0.0
 20
1.0
 30
0.0
  9
$UCSORTHOREF
  2

  9
$UCSORTHOVIEW
 70
     0
  9
$UCSORGTOP
 10
0.0
 20
0.0
 30
0.0
  9
$UCSORGBOTTOM
 10
0.0
 20
0.0
 30
0.0
  9
$UCSORGLEFT
 10
0.0
 20
0.0
 30
0.0
  9
$UCSORGRIGHT
 10
0.0
 20
0.0
 30
0.0
  9
$UCSORGFRONT
 10
0.0
 20
0.0
 30
0.0
  9
$UCSORGBACK
 10
0.0
 20
0.0
 30
0.0
  9
$PUCSBASE
  2

  9
$PUCSNAME
  2

  9
$PUCSORG
 10
0.0
 20
0.0
 30
0.0
  9
$PUCSXDIR
 10
1.0
 20
0.0
 30
0.0
  9
$PUCSYDIR
 10
0.0
 20
1.0
 30
0.0
  9
$PUCSORTHOREF
  2

  9
$PUCSORTHOVIEW
 70
     0
  9
$PUCSORGTOP
 10
0.0
 20
0.0
 30
0.0
  9
$PUCSORGBOTTOM
 10
0.0
 20
0.0
 30
0.0
  9
$PUCSORGLEFT
 10
0.0
 20
0.0
 30
0.0
  9
$PUCSORGRIGHT
 10
0.0
 20
0.0
 30
0.0
  9
$PUCSORGFRONT
 10
0.0
 20
0.0
 30
0.0
  9
$PUCSORGBACK
 10
0.0
 20
0.0
 30
0.0
  9
$USERI1
 70
     0
  9
$USERI2
 70
     0
  9
$USERI3
 70
     0
  9
$USERI4
 70
     0
  9
$USERI5
 70
     0
  9
$USERR1
 40
0.0
  9
$USERR2
 40
0.0
  9
$USERR3
 40
0.0
  9
$USERR4
 40
0.0
  9
$USERR5
 40
0.0
  9
$WORLDVIEW
 70
     1
  9
$SHADEDGE
 70
     3
  9
$SHADEDIF
 70
    70
  9
$TILEMODE
 70
     1
  9
$MAXACTVP
 70
    64
  9
$PINSBASE
 10
0.0
 20
0.0
 30
0.0
  9
$PLIMCHECK
 70
     0
  9
$PEXTMIN
 10
1.000000000000000E+20
 20
1.000000000000000E+20
 30
1.000000000000000E+20
  9
$PEXTMAX
 10
-1.000000000000000E+20
 20
-1.000000000000000E+20
 30
-1.000000000000000E+20
  9
$PLIMMIN
 10
0.0
 20
0.0
  9
$PLIMMAX
 10
12.0
 20
9.0
  9
$UNITMODE
 70
     0
  9
$VISRETAIN
 70
     1
  9
$PLINEGEN
 70
     0
  9
$PSLTSCALE
 70
     1
  9
$TREEDEPTH
 70
  3020
  9
$CMLSTYLE
  2
Standard
  9
$CMLJUST
 70
     0
  9
$CMLSCALE
 40
1.0
  9
$PROXYGRAPHICS
 70
     1
  9
$MEASUREMENT
 70
     0
  9
$CELWEIGHT
370
    -1
  9
$ENDCAPS
280
     0
  9
$JOINSTYLE
280
     0
  9
$LWDISPLAY
290
     0
  9
$INSUNITS
 70
     5
  9
$HYPERLINKBASE
  1

  9
$STYLESHEET
  1

  9
$XEDIT
290
     1
  9
$CEPSNTYPE
380
     0
  9
$PSTYLEMODE
290
     1
  9
$FINGERPRINTGUID
  2
{2E4B2CBF-D023-4E6A-B636-4DBDCBDD7F08}
  9
$VERSIONGUID
  2
{FAEB1C32-E019-11D5-929B-00C0DF256EC4}
  9
$EXTNAMES
290
     1
  9
$PSVPSCALE
 40
0.0
  9
$OLESTARTUP
290
     0
  9
$SORTENTS
280
   127
  9
$INDEXCTL
280
     0
  9
$HIDETEXT
280
     1
  9
$XCLIPFRAME
290
     0
  9
$HALOGAP
280
     0
  9
$OBSCOLOR
 70
   257
  9
$OBSLTYPE
280
     0
  9
$INTERSECTIONDISPLAY
280
     0
  9
$INTERSECTIONCOLOR
 70
   257
  9
$DIMASSOC
280
     2
  9
$PROJECTNAME
  1

  9
$CAMERADISPLAY
290
     0
  9
$LENSLENGTH
 40
50.0
  9
$CAMERAHEIGHT
 40
0.0
  9
$STEPSPERSEC
 40
2.0
  9
$STEPSIZE
 40
6.0
  9
$3DDWFPREC
 40
2.0
  9
$PSOLWIDTH
 40
0.25
  9
$PSOLHEIGHT
 40
4.0
  9
$LOFTANG1
 40
1.570796326794897
  9
$LOFTANG2
 40
1.570796326794897
  9
$LOFTMAG1
 40
0.0
  9
$LOFTMAG2
 40
0.0
  9
$LOFTPARAM
 70
     7
  9
$LOFTNORMALS
280
     1
  9
$LATITUDE
 40
37.795
  9
$LONGITUDE
 40
-122.394
  9
$NORTHDIRECTION
 40
0.0
  9
$TIMEZONE
 70
 -8000
  9
$LIGHTGLYPHDISPLAY
280
     1
  9
$TILEMODELIGHTSYNCH
280
     1
  9
$SOLIDHIST
280
     1
  9
$SHOWHIST
280
     1
  9
$DWFFRAME
280
     2
  9
$DGNFRAME
280
     2
  9
$REALWORLDSCALE
290
     1
  9
$INTERFERECOLOR
 62
   256
  9
$CSHADOW
280
     0
  9
$SHADOWPLANELOCATION
 40
0.0
  0
ENDSEC
  0
SECTION
  2
CLASSES
  0
CLASS
  1
ACDBDICTIONARYWDFLT
  2
AcDbDictionaryWithDefault
  3
ObjectDBX Classes
 90
        0
 91
        4
280
     0
281
     0
  0
CLASS
  1
VISUALSTYLE
  2
AcDbVisualStyle
  3
ObjectDBX Classes
 90
     4095
 91
        4
280
     0
281
     0
  0
CLASS
  1
MATERIAL
  2
AcDbMaterial
  3
ObjectDBX Classes
 90
     1153
 91
        4
280
     0
281
     0
  0
ENDSEC
  0
SECTION
  2
TABLES
  0
TABLE
  2
VPORT
  5
8
330
0
100
AcDbSymbolTable
 70
     1
  0
VPORT
  5
29
330
8
100
AcDbSymbolTableRecord
100
AcDbViewportTableRecord
  2
*Active
 70
     0
 10
0.0
 20
0.0
 11
1.0
 21
1.0
 12
10.42990654205607
 22
4.5
 13
0.0
 23
0.0
 14
0.5
 24
0.5
 15
0.5
 25
0.5
 16
0.0
 26
0.0
 36
1.0
 17
0.0
 27
0.0
 37
0.0
 40
9.0
 41
1.972972972850329
 42
50.0
 43
0.0
 44
0.0
 50
0.0
 51
0.0
 71
     0
 72
   100
 73
     1
 74
     3
 75
     0
 76
     0
 77
     0
 78
     0
281
     0
 65
     1
110
0.0
120
0.0
130
0.0
111
1.0
121
0.0
131
0.0
112
0.0
122
1.0
132
0.0
 79
     0
146
0.0
 60
     3
 61
     5
292
     1
282
     1
141
0.0
142
0.0
 63
   250
  0
ENDTAB
  0
TABLE
  2
LTYPE
  5
5
330
0
100
AcDbSymbolTable
 70
     1
  0
LTYPE
  5
14
330
5
100
AcDbSymbolTableRecord
100
AcDbLinetypeTableRecord
  2
ByBlock
 70
     0
  3

 72
    65
 73
     0
 40
0.0
  0
LTYPE
  5
15
330
5
100
AcDbSymbolTableRecord
100
AcDbLinetypeTableRecord
  2
ByLayer
 70
     0
  3

 72
    65
 73
     0
 40
0.0
  0
LTYPE
  5
16
330
5
100
AcDbSymbolTableRecord
100
AcDbLinetypeTableRecord
  2
Continuous
 70
     0
  3
Solid line
 72
    65
 73
     0
 40
0.0
  0
ENDTAB
  0
TABLE
  2
LAYER
  5
2
330
0
100
AcDbSymbolTable
 70
     2
  0
LAYER
  5
10
330
2
100
AcDbSymbolTableRecord
100
AcDbLayerTableRecord
  2
0
 70
     0
 62
     7
  6
Continuous
370
    -3
390
F
347
3E
  0
LAYER
  5
40
330
2
100
AcDbSymbolTableRecord
100
AcDbLayerTableRecord
  2
Camada 1
 70
     0
 62
     7
  6
Continuous
370
    -3
390
F
347
3E
  0
ENDTAB
  0
TABLE
  2
STYLE
  5
3
330
0
100
AcDbSymbolTable
 70
     1
  0
STYLE
  5
11
330
3
100
AcDbSymbolTableRecord
100
AcDbTextStyleTableRecord
  2
Standard
 70
     0
 40
0.0
 41
1.0
 50
0.0
 71
     0
 42
0.2
  3
txt
  4

  0
ENDTAB
  0
TABLE
  2
VIEW
  5
6
330
0
100
AcDbSymbolTable
 70
     0
  0
ENDTAB
  0
TABLE
  2
UCS
  5
7
330
0
100
AcDbSymbolTable
 70
     0
  0
ENDTAB
  0
TABLE
  2
APPID
  5
9
330
0
100
AcDbSymbolTable
 70
     2
  0
APPID
  5
12
330
9
100
AcDbSymbolTableRecord
100
AcDbRegAppTableRecord
  2
ACAD
 70
     0
  0
APPID
  5
3F
330
9
100
AcDbSymbolTableRecord
100
AcDbRegAppTableRecord
  2
ODA
 70
     0
  0
ENDTAB
  0
TABLE
  2
DIMSTYLE
  5
A
330
0
100
AcDbSymbolTable
 70
     1
100
AcDbDimStyleTable
  0
DIMSTYLE
105
27
330
A
100
AcDbSymbolTableRecord
100
AcDbDimStyleTableRecord
  2
Standard
 70
     0
178
     0
340
11
  0
ENDTAB
  0
TABLE
  2
BLOCK_RECORD
  5
1
330
0
100
AcDbSymbolTable
 70
     1
  0
BLOCK_RECORD
  5
1F
330
1
100
AcDbSymbolTableRecord
100
AcDbBlockTableRecord
  2
*Model_Space
340
22
 70
     0
280
     1
281
     0
  0
BLOCK_RECORD
  5
1B
330
1
100
AcDbSymbolTableRecord
100
AcDbBlockTableRecord
  2
*Paper_Space
340
1E
 70
     0
280
     1
281
     0
  0
BLOCK_RECORD
  5
23
330
1
100
AcDbSymbolTableRecord
100
AcDbBlockTableRecord
  2
*Paper_Space0
340
26
 70
     0
280
     1
281
     0
  0
ENDTAB
  0
ENDSEC
  0
SECTION
  2
BLOCKS
  0
BLOCK
  5
20
330
1F
100
AcDbEntity
  8
0
100
AcDbBlockBegin
  2
*Model_Space
 70
     0
 10
0.0
 20
0.0
 30
0.0
  3
*Model_Space
  1

  0
ENDBLK
  5
21
330
1F
100
AcDbEntity
  8
0
100
AcDbBlockEnd
  0
BLOCK
  5
1C
330
1B
100
AcDbEntity
 67
     1
  8
0
100
AcDbBlockBegin
  2
*Paper_Space
 70
     0
 10
0.0
 20
0.0
 30
0.0
  3
*Paper_Space
  1

  0
ENDBLK
  5
1D
330
1B
100
AcDbEntity
 67
     1
  8
0
100
AcDbBlockEnd
  0
BLOCK
  5
24
330
23
100
AcDbEntity
  8
0
100
AcDbBlockBegin
  2
*Paper_Space0
 70
     0
 10
0.0
 20
0.0
 30
0.0
  3
*Paper_Space0
  1

  0
ENDBLK
  5
25
330
23
100
AcDbEntity
  8
0
100
AcDbBlockEnd
  0
ENDSEC
  0
SECTION
  2
ENTITIES
  0
SPLINE
  5
41
330
1F
100
AcDbEntity
  8
Camada 1
 62
   154
100
AcDbSpline
210
0.0
220
0.0
230
1.0
 70
    11
 71
     3
 72
   280
 73
   276
 74
     0
 42
0.0000000001
 43
0.0000000001
 12
1.0
 22
0.0
 32
0.0
 13
1.0
 23
0.0
 33
0.0
 40
0.0
 40
0.0
 40
0.0
 40
0.0
 40
0.0142857142857143
 40
0.0142857142857143
 40
0.0142857142857143
 40
0.0142857142857143
 40
0.0285714285714286
 40
0.0285714285714286
 40
0.0285714285714286
 40
0.0285714285714286
 40
0.0428571428571429
 40
0.0428571428571429
 40
0.0428571428571429
 40
0.0428571428571429
 40
0.0571428571428571
 40
0.0571428571428571
 40
0.0571428571428571
 40
0.0571428571428571
 40
0.0714285714285714
 40
0.0714285714285714
 40
0.0714285714285714
 40
0.0714285714285714
 40
0.0857142857142857
 40
0.0857142857142857
 40
0.0857142857142857
 40
0.0857142857142857
 40
0.1
 40
0.1
 40
0.1
 40
0.1
 40
0.1142857142857143
 40
0.1142857142857143
 40
0.1142857142857143
 40
0.1142857142857143
 40
0.1285714285714286
 40
0.1285714285714286
 40
0.1285714285714286
 40
0.1285714285714286
 40
0.1428571428571428
 40
0.1428571428571428
 40
0.1428571428571428
 40
0.1428571428571428
 40
0.1571428571428571
 40
0.1571428571428571
 40
0.1571428571428571
 40
0.1571428571428571
 40
0.1714285714285714
 40
0.1714285714285714
 40
0.1714285714285714
 40
0.1714285714285714
 40
0.1857142857142857
 40
0.1857142857142857
 40
0.1857142857142857
 40
0.1857142857142857
 40
0.2
 40
0.2
 40
0.2
 40
0.2
 40
0.2142857142857143
 40
0.2142857142857143
 40
0.2142857142857143
 40
0.2142857142857143
 40
0.2285714285714286
 40
0.2285714285714286
 40
0.2285714285714286
 40
0.2285714285714286
 40
0.2428571428571429
 40
0.2428571428571429
 40
0.2428571428571429
 40
0.2428571428571429
 40
0.2571428571428571
 40
0.2571428571428571
 40
0.2571428571428571
 40
0.2571428571428571
 40
0.2714285714285714
 40
0.2714285714285714
 40
0.2714285714285714
 40
0.2714285714285714
 40
0.2857142857142857
 40
0.2857142857142857
 40
0.2857142857142857
 40
0.2857142857142857
 40
0.3
 40
0.3
 40
0.3
 40
0.3
 40
0.3142857142857143
 40
0.3142857142857143
 40
0.3142857142857143
 40
0.3142857142857143
 40
0.3285714285714286
 40
0.3285714285714286
 40
0.3285714285714286
 40
0.3285714285714286
 40
0.3428571428571429
 40
0.3428571428571429
 40
0.3428571428571429
 40
0.3428571428571429
 40
0.3571428571428572
 40
0.3571428571428572
 40
0.3571428571428572
 40
0.3571428571428572
 40
0.3714285714285714
 40
0.3714285714285714
 40
0.3714285714285714
 40
0.3714285714285714
 40
0.3857142857142857
 40
0.3857142857142857
 40
0.3857142857142857
 40
0.3857142857142857
 40
0.4
 40
0.4
 40
0.4
 40
0.4
 40
0.4142857142857143
 40
0.4142857142857143
 40
0.4142857142857143
 40
0.4142857142857143
 40
0.4285714285714285
 40
0.4285714285714285
 40
0.4285714285714285
 40
0.4285714285714285
 40
0.4428571428571428
 40
0.4428571428571428
 40
0.4428571428571428
 40
0.4428571428571428
 40
0.4571428571428571
 40
0.4571428571428571
 40
0.4571428571428571
 40
0.4571428571428571
 40
0.4714285714285714
 40
0.4714285714285714
 40
0.4714285714285714
 40
0.4714285714285714
 40
0.4857142857142857
 40
0.4857142857142857
 40
0.4857142857142857
 40
0.4857142857142857
 40
0.5
 40
0.5
 40
0.5
 40
0.5
 40
0.5142857142857142
 40
0.5142857142857142
 40
0.5142857142857142
 40
0.5142857142857142
 40
0.5285714285714286
 40
0.5285714285714286
 40
0.5285714285714286
 40
0.5285714285714286
 40
0.5428571428571428
 40
0.5428571428571428
 40
0.5428571428571428
 40
0.5428571428571428
 40
0.5571428571428572
 40
0.5571428571428572
 40
0.5571428571428572
 40
0.5571428571428572
 40
0.5714285714285714
 40
0.5714285714285714
 40
0.5714285714285714
 40
0.5714285714285714
 40
0.5857142857142857
 40
0.5857142857142857
 40
0.5857142857142857
 40
0.5857142857142857
 40
0.6
 40
0.6
 40
0.6
 40
0.6
 40
0.6142857142857143
 40
0.6142857142857143
 40
0.6142857142857143
 40
0.6142857142857143
 40
0.6285714285714286
 40
0.6285714285714286
 40
0.6285714285714286
 40
0.6285714285714286
 40
0.6428571428571429
 40
0.6428571428571429
 40
0.6428571428571429
 40
0.6428571428571429
 40
0.6571428571428571
 40
0.6571428571428571
 40
0.6571428571428571
 40
0.6571428571428571
 40
0.6714285714285714
 40
0.6714285714285714
 40
0.6714285714285714
 40
0.6714285714285714
 40
0.6857142857142857
 40
0.6857142857142857
 40
0.6857142857142857
 40
0.6857142857142857
 40
0.7
 40
0.7
 40
0.7
 40
0.7
 40
0.7142857142857143
 40
0.7142857142857143
 40
0.7142857142857143
 40
0.7142857142857143
 40
0.7285714285714285
 40
0.7285714285714285
 40
0.7285714285714285
 40
0.7285714285714285
 40
0.7428571428571429
 40
0.7428571428571429
 40
0.7428571428571429
 40
0.7428571428571429
 40
0.7571428571428571
 40
0.7571428571428571
 40
0.7571428571428571
 40
0.7571428571428571
 40
0.7714285714285715
 40
0.7714285714285715
 40
0.7714285714285715
 40
0.7714285714285715
 40
0.7857142857142857
 40
0.7857142857142857
 40
0.7857142857142857
 40
0.7857142857142857
 40
0.8
 40
0.8
 40
0.8
 40
0.8
 40
0.8142857142857143
 40
0.8142857142857143
 40
0.8142857142857143
 40
0.8142857142857143
 40
0.8285714285714286
 40
0.8285714285714286
 40
0.8285714285714286
 40
0.8285714285714286
 40
0.8428571428571429
 40
0.8428571428571429
 40
0.8428571428571429
 40
0.8428571428571429
 40
0.8571428571428571
 40
0.8571428571428571
 40
0.8571428571428571
 40
0.8571428571428571
 40
0.8714285714285714
 40
0.8714285714285714
 40
0.8714285714285714
 40
0.8714285714285714
 40
0.8857142857142857
 40
0.8857142857142857
 40
0.8857142857142857
 40
0.8857142857142857
 40
0.9
 40
0.9
 40
0.9
 40
0.9
 40
0.9142857142857143
 40
0.9142857142857143
 40
0.9142857142857143
 40
0.9142857142857143
 40
0.9285714285714286
 40
0.9285714285714286
 40
0.9285714285714286
 40
0.9285714285714286
 40
0.9428571428571428
 40
0.9428571428571428
 40
0.9428571428571428
 40
0.9428571428571428
 40
0.9571428571428572
 40
0.9571428571428572
 40
0.9571428571428572
 40
0.9571428571428572
 40
0.9714285714285714
 40
0.9714285714285714
 40
0.9714285714285714
 40
0.9714285714285714
 40
1.0
 40
1.0
 40
1.0
 40
1.0
 10
-1.00329
 20
7.59989
 30
0.0
 10
-0.94933
 20
7.60552
 30
0.0
 10
-0.88935
 20
7.62282
 30
0.0
 10
-0.84101
 20
7.58754
 30
0.0
 10
-0.84101
 20
7.58754
 30
0.0
 10
-0.68896
 20
7.49935
 30
0.0
 10
-0.55068
 20
7.38716
 30
0.0
 10
-0.42579
 20
7.26334
 30
0.0
 10
-0.42579
 20
7.26334
 30
0.0
 10
-0.21483
 20
7.05484
 30
0.0
 10
-0.10724
 20
6.76945
 30
0.0
 10
-0.01198
 20
6.49498
 30
0.0
 10
-0.01198
 20
6.49498
 30
0.0
 10
0.08748
 20
6.72958
 30
0.0
 10
0.17073
 20
6.97934
 30
0.0
 10
0.3376
 20
7.1769
 30
0.0
 10
0.3376
 20
7.1769
 30
0.0
 10
0.49635
 20
7.34518
 30
0.0
 10
0.67486
 20
7.50393
 30
0.0
 10
0.88511
 20
7.60341
 30
0.0
 10
0.88511
 20
7.60341
 30
0.0
 10
1.03187
 20
7.63763
 30
0.0
 10
1.01247
 20
7.44748
 30
0.0
 10
1.03857
 20
7.35787
 30
0.0
 10
1.03857
 20
7.35787
 30
0.0
 10
1.1063
 20
7.34377
 30
0.0
 10
1.17756
 20
7.33777
 30
0.0
 10
1.24142
 20
7.30885
 30
0.0
 10
1.24142
 20
7.30885
 30
0.0
 10
1.264
 20
7.24534
 30
0.0
 10
1.24777
 20
7.16808
 30
0.0
 10
1.29399
 20
7.11412
 30
0.0
 10
1.29399
 20
7.11412
 30
0.0
 10
1.35431
 20
7.08837
 30
0.0
 10
1.42205
 20
7.10282
 30
0.0
 10
1.4859
 20
7.09436
 30
0.0
 10
1.4859
 20
7.09436
 30
0.0
 10
1.56104
 20
7.07107
 30
0.0
 10
1.54586
 20
6.97723
 30
0.0
 10
1.56562
 20
6.9169
 30
0.0
 10
1.56562
 20
6.9169
 30
0.0
 10
1.64606
 20
6.86681
 30
0.0
 10
1.74166
 20
6.89434
 30
0.0
 10
1.8302
 20
6.88728
 30
0.0
 10
1.8302
 20
6.88728
 30
0.0
 10
1.84996
 20
6.83365
 30
0.0
 10
1.86619
 20
6.77579
 30
0.0
 10
1.90746
 20
6.73347
 30
0.0
 10
1.90746
 20
6.73347
 30
0.0
 10
1.98013
 20
6.70736
 30
0.0
 10
2.05634
 20
6.74899
 30
0.0
 10
2.12831
 20
6.76239
 30
0.0
 10
2.12831
 20
6.76239
 30
0.0
 10
2.165
 20
6.71512
 30
0.0
 10
2.21543
 20
6.6615
 30
0.0
 10
2.1918
 20
6.59553
 30
0.0
 10
2.1918
 20
6.59553
 30
0.0
 10
2.12514
 20
6.33482
 30
0.0
 10
2.02352
 20
6.07625
 30
0.0
 10
1.85773
 20
5.86176
 30
0.0
 10
1.85773
 20
5.86176
 30
0.0
 10
1.71944
 20
5.72135
 30
0.0
 10
1.57973
 20
5.57564
 30
0.0
 10
1.41111
 20
5.47122
 30
0.0
 10
1.41111
 20
5.47122
 30
0.0
 10
1.66863
 20
5.42466
 30
0.0
 10
1.94592
 20
5.44194
 30
0.0
 10
2.18968
 20
5.32835
 30
0.0
 10
2.18968
 20
5.32835
 30
0.0
 10
2.38407
 20
5.22746
 30
0.0
 10
2.58375
 20
5.12163
 30
0.0
 10
2.73332
 20
4.95757
 30
0.0
 10
2.73332
 20
4.95757
 30
0.0
 10
2.77001
 20
4.92125
 30
0.0
 10
2.77883
 20
4.87785
 30
0.0
 10
2.75943
 20
4.82811
 30
0.0
 10
2.75943
 20
4.82811
 30
0.0
 10
2.68145
 20
4.77378
 30
0.0
 10
2.52024
 20
4.75543
 30
0.0
 10
2.5668
 20
4.62209
 30
0.0
 10
2.5668
 20
4.62209
 30
0.0
 10
2.58621
 20
4.60798
 30
0.0
 10
2.62536
 20
4.57975
 30
0.0
 10
2.64478
 20
4.56564
 30
0.0
 10
2.64478
 20
4.56564
 30
0.0
 10
2.57739
 20
4.4965
 30
0.0
 10
2.45075
 20
4.4898
 30
0.0
 10
2.41618
 20
4.39349
 30
0.0
 10
2.41618
 20
4.39349
 30
0.0
 10
2.46661
 20
4.37339
 30
0.0
 10
2.45039
 20
4.32859
 30
0.0
 10
2.42922
 20
4.29331
 30
0.0
 10
2.42922
 20
4.29331
 30
0.0
 10
2.51071
 20
4.18994
 30
0.0
 10
2.38619
 20
4.12291
 30
0.0
 10
2.31422
 20
4.07353
 30
0.0
 10
2.31422
 20
4.07353
 30
0.0
 10
2.2539
 20
3.99415
 30
0.0
 10
2.34702
 20
3.92394
 30
0.0
 10
2.35937
 20
3.84739
 30
0.0
 10
2.35937
 20
3.84739
 30
0.0
 10
2.32728
 20
3.79377
 30
0.0
 10
2.27507
 20
3.75603
 30
0.0
 10
2.23838
 20
3.70557
 30
0.0
 10
2.23838
 20
3.70557
 30
0.0
 10
2.21333
 20
3.61032
 30
0.0
 10
2.34631
 20
3.55706
 30
0.0
 10
2.3121
 20
3.46145
 30
0.0
 10
2.3121
 20
3.46145
 30
0.0
 10
2.28389
 20
3.38313
 30
0.0
 10
2.18617
 20
3.39019
 30
0.0
 10
2.11878
 20
3.38349
 30
0.0
 10
2.11878
 20
3.38349
 30
0.0
 10
1.85807
 20
3.3796
 30
0.0
 10
1.58537
 20
3.38737
 30
0.0
 10
1.3462
 20
3.50378
 30
0.0
 10
1.3462
 20
3.50378
 30
0.0
 10
1.17403
 20
3.58739
 30
0.0
 10
1.00682
 20
3.68406
 30
0.0
 10
0.85478
 20
3.80047
 30
0.0
 10
0.85478
 20
3.80047
 30
0.0
 10
0.92251
 20
3.5747
 30
0.0
 10
0.98812
 20
3.34291
 30
0.0
 10
0.98
 20
3.10479
 30
0.0
 10
0.98
 20
3.10479
 30
0.0
 10
0.98283
 20
2.86456
 30
0.0
 10
0.9084
 20
2.63207
 30
0.0
 10
0.8195
 20
2.41194
 30
0.0
 10
0.8195
 20
2.41194
 30
0.0
 10
0.79691
 20
2.35549
 30
0.0
 10
0.73413
 20
2.30011
 30
0.0
 10
0.67027
 20
2.32409
 30
0.0
 10
0.67027
 20
2.32409
 30
0.0
 10
0.61241
 20
2.36607
 30
0.0
 10
0.57643
 20
2.44651
 30
0.0
 10
0.502
 20
2.45921
 30
0.0
 10
0.502
 20
2.45921
 30
0.0
 10
0.43285
 20
2.43557
 30
0.0
 10
0.37287
 20
2.38266
 30
0.0
 10
0.29457
 20
2.40595
 30
0.0
 10
0.29457
 20
2.40595
 30
0.0
 10
0.26528
 20
2.47473
 30
0.0
 10
0.20742
 20
2.51424
 30
0.0
 10
0.13299
 20
2.51707
 30
0.0
 10
0.13299
 20
2.51707
 30
0.0
 10
0.07796
 20
2.48072
 30
0.0
 10
0.03281
 20
2.39747
 30
0.0
 10
-0.03986
 20
2.41087
 30
0.0
 10
-0.03986
 20
2.41087
 30
0.0
 10
-0.09666
 20
2.45285
 30
0.0
 10
-0.15487
 20
2.49344
 30
0.0
 10
-0.21624
 20
2.52764
 30
0.0
 10
-0.21624
 20
2.52764
 30
0.0
 10
-0.27586
 20
2.48778
 30
0.0
 10
-0.31574
 20
2.41652
 30
0.0
 10
-0.38559
 20
2.39535
 30
0.0
 10
-0.38559
 20
2.39535
 30
0.0
 10
-0.44662
 20
2.40875
 30
0.0
 10
-0.49847
 20
2.44968
 30
0.0
 10
-0.56056
 20
2.45745
 30
0.0
 10
-0.56056
 20
2.45745
 30
0.0
 10
-0.62688
 20
2.41828
 30
0.0
 10
-0.67663
 20
2.35725
 30
0.0
 10
-0.73447
 20
2.30752
 30
0.0
 10
-0.73447
 20
2.30752
 30
0.0
 10
-0.75776
 20
2.31739
 30
0.0
 10
-0.80432
 20
2.33715
 30
0.0
 10
-0.82761
 20
2.34702
 30
0.0
 10
-0.82761
 20
2.34702
 30
0.0
 10
-0.95708
 20
2.60278
 30
0.0
 10
-1.01952
 20
2.8896
 30
0.0
 10
-1.01635
 20
3.1757
 30
0.0
 10
-1.01635
 20
3.1757
 30
0.0
 10
-0.99589
 20
3.38842
 30
0.0
 10
-0.96026
 20
3.6015
 30
0.0
 10
-0.88652
 20
3.8033
 30
0.0
 10
-0.88652
 20
3.8033
 30
0.0
 10
-1.13805
 20
3.62832
 30
0.0
 10
-1.40899
 20
3.45015
 30
0.0
 10
-1.7212
 20
3.417
 30
0.0
 10
-1.7212
 20
3.417
 30
0.0
 10
-1.90358
 20
3.38737
 30
0.0
 10
-2.08915
 20
3.39266
 30
0.0
 10
-2.27224
 20
3.41029
 30
0.0
 10
-2.27224
 20
3.41029
 30
0.0
 10
-2.30222
 20
3.44945
 30
0.0
 10
-2.32938
 20
3.49074
 30
0.0
 10
-2.34526
 20
3.53764
 30
0.0
 10
-2.34526
 20
3.53764
 30
0.0
 10
-2.30681
 20
3.59692
 30
0.0
 10
-2.23731
 20
3.6569
 30
0.0
 10
-2.26447
 20
3.7352
 30
0.0
 10
-2.26447
 20
3.7352
 30
0.0
 10
-2.29022
 20
3.78354
 30
0.0
 10
-2.33997
 20
3.81105
 30
0.0
 10
-2.3809
 20
3.84457
 30
0.0
 10
-2.3809
 20
3.84457
 30
0.0
 10
-2.36573
 20
3.9264
 30
0.0
 10
-2.27117
 20
4.00507
 30
0.0
 10
-2.33045
 20
4.08905
 30
0.0
 10
-2.33045
 20
4.08905
 30
0.0
 10
-2.38512
 20
4.13278
 30
0.0
 10
-2.44615
 20
4.16913
 30
0.0
 10
-2.49025
 20
4.22451
 30
0.0
 10
-2.49025
 20
4.22451
 30
0.0
 10
-2.4652
 20
4.2746
 30
0.0
 10
-2.44086
 20
4.32435
 30
0.0
 10
-2.41582
 20
4.37409
 30
0.0
 10
-2.41582
 20
4.37409
 30
0.0
 10
-2.43769
 20
4.46017
 30
0.0
 10
-2.49414
 20
4.51943
 30
0.0
 10
-2.58833
 20
4.51379
 30
0.0
 10
-2.58833
 20
4.51379
 30
0.0
 10
-2.61654
 20
4.59563
 30
0.0
 10
-2.55235
 20
4.68982
 30
0.0
 10
-2.60879
 20
4.76284
 30
0.0
 10
-2.60879
 20
4.76284
 30
0.0
 10
-2.6536
 20
4.79672
 30
0.0
 10
-2.7111
 20
4.80554
 30
0.0
 10
-2.76331
 20
4.82211
 30
0.0
 10
-2.76331
 20
4.82211
 30
0.0
 10
-2.77671
 20
4.87186
 30
0.0
 10
-2.80105
 20
4.9343
 30
0.0
 10
-2.75412
 20
4.97521
 30
0.0
 10
-2.75412
 20
4.97521
 30
0.0
 10
-2.59045
 20
5.14914
 30
0.0
 10
-2.37313
 20
5.25814
 30
0.0
 10
-2.16146
 20
5.36187
 30
0.0
 10
-2.16146
 20
5.36187
 30
0.0
 10
-1.9304
 20
5.44724
 30
0.0
 10
-1.67993
 20
5.44405
 30
0.0
 10
-1.43791
 20
5.47088
 30
0.0
 10
-1.43791
 20
5.47088
 30
0.0
 10
-1.64889
 20
5.64938
 30
0.0
 10
-1.88982
 20
5.81837
 30
0.0
 10
-2.0073
 20
6.0773
 30
0.0
 10
-2.0073
 20
6.0773
 30
0.0
 10
-2.10114
 20
6.26604
 30
0.0
 10
-2.1784
 20
6.4643
 30
0.0
 10
-2.21509
 20
6.67244
 30
0.0
 10
-2.21509
 20
6.67244
 30
0.0
 10
-2.16958
 20
6.78003
 30
0.0
 10
-2.05916
 20
6.77016
 30
0.0
 10
-1.97061
 20
6.72711
 30
0.0
 10
-1.97061
 20
6.72711
 30
0.0
 10
-1.9505
 20
6.73664
 30
0.0
 10
-1.91028
 20
6.7564
 30
0.0
 10
-1.89018
 20
6.76627
 30
0.0
 10
-1.89018
 20
6.76627
 30
0.0
 10
-1.87147
 20
6.81036
 30
0.0
 10
-1.85242
 20
6.85446
 30
0.0
 10
-1.83373
 20
6.89892
 30
0.0
 10
-1.83373
 20
6.89892
 30
0.0
 10
-1.74695
 20
6.89715
 30
0.0
 10
-1.65381
 20
6.87139
 30
0.0
 10
-1.57656
 20
6.92538
 30
0.0
 10
-1.57656
 20
6.92538
 30
0.0
 10
-1.56386
 20
6.98605
 30
0.0
 10
-1.54657
 20
7.04603
 30
0.0
 10
-1.52646
 20
7.10494
 30
0.0
 10
-1.52646
 20
7.10494
 30
0.0
 10
-1.44709
 20
7.11059
 30
0.0
 10
-1.35431
 20
7.08306
 30
0.0
 10
-1.28693
 20
7.13739
 30
0.0
 10
-1.28693
 20
7.13739
 30
0.0
 10
-1.25236
 20
7.19208
 30
0.0
 10
-1.25871
 20
7.2591
 30
0.0
 10
-1.25448
 20
7.32084
 30
0.0
 10
-1.25448
 20
7.32084
 30
0.0
 10
-1.18745
 20
7.33672
 30
0.0
 10
-1.11653
 20
7.34236
 30
0.0
 10
-1.05233
 20
7.36988
 30
0.0
 10
-1.05233
 20
7.36988
 30
0.0
 10
-1.02517
 20
7.44361
 30
0.0
 10
-1.01952
 20
7.52333
 30
0.0
 10
-1.00329
 20
7.59989
 30
0.0
  0
SPLINE
  5
42
330
1F
100
AcDbEntity
  8
Camada 1
 62
   154
100
AcDbSpline
210
0.0
220
0.0
230
1.0
 70
    11
 71
     3
 72
    20
 73
    16
 74
     0
 42
0.0000000001
 43
0.0000000001
 12
1.0
 22
0.0
 32
0.0
 13
1.0
 23
0.0
 33
0.0
 40
0.0
 40
0.0
 40
0.0
 40
0.0
 40
0.2
 40
0.2
 40
0.2
 40
0.2
 40
0.4
 40
0.4
 40
0.4
 40
0.4
 40
0.6
 40
0.6
 40
0.6
 40
0.6
 40
1.0
 40
1.0
 40
1.0
 40
1.0
 10
-0.13545
 20
5.074
 30
0.0
 10
-0.13545
 20
5.074
 30
0.0
 10
-0.13545
 20
5.074
 30
0.0
 10
-0.13545
 20
5.074
 30
0.0
 10
-0.13545
 20
5.074
 30
0.0
 10
-0.18555
 20
4.99886
 30
0.0
 10
-0.13757
 20
4.91489
 30
0.0
 10
-0.09065
 20
4.85315
 30
0.0
 10
-0.09065
 20
4.85315
 30
0.0
 10
-0.0007
 20
4.82706
 30
0.0
 10
0.13053
 20
4.86056
 30
0.0
 10
0.13404
 20
4.97204
 30
0.0
 10
0.13404
 20
4.97204
 30
0.0
 10
0.17322
 20
5.12339
 30
0.0
 10
-0.06526
 20
5.20171
 30
0.0
 10
-0.13545
 20
5.074
 30
0.0
  0
SPLINE
  5
43
330
1F
100
AcDbEntity
  8
Camada 1
 62
   154
100
AcDbSpline
210
0.0
220
0.0
230
1.0
 70
    11
 71
     3
 72
   352
 73
   348
 74
     0
 42
0.0000000001
 43
0.0000000001
 12
1.0
 22
0.0
 32
0.0
 13
1.0
 23
0.0
 33
0.0
 40
0.0
 40
0.0
 40
0.0
 40
0.0
 40
0.0113636363636364
 40
0.0113636363636364
 40
0.0113636363636364
 40
0.0113636363636364
 40
0.0227272727272727
 40
0.0227272727272727
 40
0.0227272727272727
 40
0.0227272727272727
 40
0.0340909090909091
 40
0.0340909090909091
 40
0.0340909090909091
 40
0.0340909090909091
 40
0.0454545454545455
 40
0.0454545454545455
 40
0.0454545454545455
 40
0.0454545454545455
 40
0.0568181818181818
 40
0.0568181818181818
 40
0.0568181818181818
 40
0.0568181818181818
 40
0.0681818181818182
 40
0.0681818181818182
 40
0.0681818181818182
 40
0.0681818181818182
 40
0.0795454545454545
 40
0.0795454545454545
 40
0.0795454545454545
 40
0.0795454545454545
 40
0.0909090909090909
 40
0.0909090909090909
 40
0.0909090909090909
 40
0.0909090909090909
 40
0.1022727272727273
 40
0.1022727272727273
 40
0.1022727272727273
 40
0.1022727272727273
 40
0.1136363636363636
 40
0.1136363636363636
 40
0.1136363636363636
 40
0.1136363636363636
 40
0.125
 40
0.125
 40
0.125
 40
0.125
 40
0.1363636363636364
 40
0.1363636363636364
 40
0.1363636363636364
 40
0.1363636363636364
 40
0.1477272727272727
 40
0.1477272727272727
 40
0.1477272727272727
 40
0.1477272727272727
 40
0.1590909090909091
 40
0.1590909090909091
 40
0.1590909090909091
 40
0.1590909090909091
 40
0.1704545454545454
 40
0.1704545454545454
 40
0.1704545454545454
 40
0.1704545454545454
 40
0.1818181818181818
 40
0.1818181818181818
 40
0.1818181818181818
 40
0.1818181818181818
 40
0.1931818181818182
 40
0.1931818181818182
 40
0.1931818181818182
 40
0.1931818181818182
 40
0.2045454545454546
 40
0.2045454545454546
 40
0.2045454545454546
 40
0.2045454545454546
 40
0.2159090909090909
 40
0.2159090909090909
 40
0.2159090909090909
 40
0.2159090909090909
 40
0.2272727272727273
 40
0.2272727272727273
 40
0.2272727272727273
 40
0.2272727272727273
 40
0.2386363636363636
 40
0.2386363636363636
 40
0.2386363636363636
 40
0.2386363636363636
 40
0.25
 40
0.25
 40
0.25
 40
0.25
 40
0.2613636363636364
 40
0.2613636363636364
 40
0.2613636363636364
 40
0.2613636363636364
 40
0.2727272727272727
 40
0.2727272727272727
 40
0.2727272727272727
 40
0.2727272727272727
 40
0.2840909090909091
 40
0.2840909090909091
 40
0.2840909090909091
 40
0.2840909090909091
 40
0.2954545454545455
 40
0.2954545454545455
 40
0.2954545454545455
 40
0.2954545454545455
 40
0.3068181818181818
 40
0.3068181818181818
 40
0.3068181818181818
 40
0.3068181818181818
 40
0.3181818181818182
 40
0.3181818181818182
 40
0.3181818181818182
 40
0.3181818181818182
 40
0.3295454545454545
 40
0.3295454545454545
 40
0.3295454545454545
 40
0.3295454545454545
 40
0.3409090909090909
 40
0.3409090909090909
 40
0.3409090909090909
 40
0.3409090909090909
 40
0.3522727272727273
 40
0.3522727272727273
 40
0.3522727272727273
 40
0.3522727272727273
 40
0.3636363636363636
 40
0.3636363636363636
 40
0.3636363636363636
 40
0.3636363636363636
 40
0.375
 40
0.375
 40
0.375
 40
0.375
 40
0.3863636363636364
 40
0.3863636363636364
 40
0.3863636363636364
 40
0.3863636363636364
 40
0.3977272727272727
 40
0.3977272727272727
 40
0.3977272727272727
 40
0.3977272727272727
 40
0.4090909090909091
 40
0.4090909090909091
 40
0.4090909090909091
 40
0.4090909090909091
 40
0.4204545454545455
 40
0.4204545454545455
 40
0.4204545454545455
 40
0.4204545454545455
 40
0.4318181818181818
 40
0.4318181818181818
 40
0.4318181818181818
 40
0.4318181818181818
 40
0.4431818181818182
 40
0.4431818181818182
 40
0.4431818181818182
 40
0.4431818181818182
 40
0.4545454545454545
 40
0.4545454545454545
 40
0.4545454545454545
 40
0.4545454545454545
 40
0.4659090909090909
 40
0.4659090909090909
 40
0.4659090909090909
 40
0.4659090909090909
 40
0.4772727272727273
 40
0.4772727272727273
 40
0.4772727272727273
 40
0.4772727272727273
 40
0.4886363636363636
 40
0.4886363636363636
 40
0.4886363636363636
 40
0.4886363636363636
 40
0.5
 40
0.5
 40
0.5
 40
0.5
 40
0.5113636363636364
 40
0.5113636363636364
 40
0.5113636363636364
 40
0.5113636363636364
 40
0.5227272727272727
 40
0.5227272727272727
 40
0.5227272727272727
 40
0.5227272727272727
 40
0.5340909090909091
 40
0.5340909090909091
 40
0.5340909090909091
 40
0.5340909090909091
 40
0.5454545454545454
 40
0.5454545454545454
 40
0.5454545454545454
 40
0.5454545454545454
 40
0.5568181818181818
 40
0.5568181818181818
 40
0.5568181818181818
 40
0.5568181818181818
 40
0.5681818181818182
 40
0.5681818181818182
 40
0.5681818181818182
 40
0.5681818181818182
 40
0.5795454545454546
 40
0.5795454545454546
 40
0.5795454545454546
 40
0.5795454545454546
 40
0.5909090909090909
 40
0.5909090909090909
 40
0.5909090909090909
 40
0.5909090909090909
 40
0.6022727272727273
 40
0.6022727272727273
 40
0.6022727272727273
 40
0.6022727272727273
 40
0.6136363636363636
 40
0.6136363636363636
 40
0.6136363636363636
 40
0.6136363636363636
 40
0.625
 40
0.625
 40
0.625
 40
0.625
 40
0.6363636363636364
 40
0.6363636363636364
 40
0.6363636363636364
 40
0.6363636363636364
 40
0.6477272727272727
 40
0.6477272727272727
 40
0.6477272727272727
 40
0.6477272727272727
 40
0.6590909090909091
 40
0.6590909090909091
 40
0.6590909090909091
 40
0.6590909090909091
 40
0.6704545454545454
 40
0.6704545454545454
 40
0.6704545454545454
 40
0.6704545454545454
 40
0.6818181818181818
 40
0.6818181818181818
 40
0.6818181818181818
 40
0.6818181818181818
 40
0.6931818181818182
 40
0.6931818181818182
 40
0.6931818181818182
 40
0.6931818181818182
 40
0.7045454545454546
 40
0.7045454545454546
 40
0.7045454545454546
 40
0.7045454545454546
 40
0.7159090909090909
 40
0.7159090909090909
 40
0.7159090909090909
 40
0.7159090909090909
 40
0.7272727272727273
 40
0.7272727272727273
 40
0.7272727272727273
 40
0.7272727272727273
 40
0.7386363636363636
 40
0.7386363636363636
 40
0.7386363636363636
 40
0.7386363636363636
 40
0.75
 40
0.75
 40
0.75
 40
0.75
 40
0.7613636363636364
 40
0.7613636363636364
 40
0.7613636363636364
 40
0.7613636363636364
 40
0.7727272727272727
 40
0.7727272727272727
 40
0.7727272727272727
 40
0.7727272727272727
 40
0.7840909090909091
 40
0.7840909090909091
 40
0.7840909090909091
 40
0.7840909090909091
 40
0.7954545454545454
 40
0.7954545454545454
 40
0.7954545454545454
 40
0.7954545454545454
 40
0.8068181818181818
 40
0.8068181818181818
 40
0.8068181818181818
 40
0.8068181818181818
 40
0.8181818181818182
 40
0.8181818181818182
 40
0.8181818181818182
 40
0.8181818181818182
 40
0.8295454545454546
 40
0.8295454545454546
 40
0.8295454545454546
 40
0.8295454545454546
 40
0.8409090909090909
 40
0.8409090909090909
 40
0.8409090909090909
 40
0.8409090909090909
 40
0.8522727272727273
 40
0.8522727272727273
 40
0.8522727272727273
 40
0.8522727272727273
 40
0.8636363636363636
 40
0.8636363636363636
 40
0.8636363636363636
 40
0.8636363636363636
 40
0.875
 40
0.875
 40
0.875
 40
0.875
 40
0.8863636363636364
 40
0.8863636363636364
 40
0.8863636363636364
 40
0.8863636363636364
 40
0.8977272727272727
 40
0.8977272727272727
 40
0.8977272727272727
 40
0.8977272727272727
 40
0.9090909090909091
 40
0.9090909090909091
 40
0.9090909090909091
 40
0.9090909090909091
 40
0.9204545454545454
 40
0.9204545454545454
 40
0.9204545454545454
 40
0.9204545454545454
 40
0.9318181818181818
 40
0.9318181818181818
 40
0.9318181818181818
 40
0.9318181818181818
 40
0.9431818181818182
 40
0.9431818181818182
 40
0.9431818181818182
 40
0.9431818181818182
 40
0.9545454545454546
 40
0.9545454545454546
 40
0.9545454545454546
 40
0.9545454545454546
 40
0.9659090909090909
 40
0.9659090909090909
 40
0.9659090909090909
 40
0.9659090909090909
 40
0.9772727272727273
 40
0.9772727272727273
 40
0.9772727272727273
 40
0.9772727272727273
 40
1.0
 40
1.0
 40
1.0
 40
1.0
 10
-0.81774
 20
1.69862
 30
0.0
 10
-0.76834
 20
1.72614
 30
0.0
 10
-0.70097
 20
1.7526
 30
0.0
 10
-0.65405
 20
1.70568
 30
0.0
 10
-0.65405
 20
1.70568
 30
0.0
 10
-0.51681
 20
1.58221
 30
0.0
 10
-0.36829
 20
1.46437
 30
0.0
 10
-0.2667
 20
1.30844
 30
0.0
 10
-0.2667
 20
1.30844
 30
0.0
 10
-0.14781
 20
1.08303
 30
0.0
 10
-0.02222
 20
0.85231
 30
0.0
 10
0.00706
 20
0.59513
 30
0.0
 10
0.00706
 20
0.59513
 30
0.0
 10
0.05326
 20
0.40252
 30
0.0
 10
0.02892
 20
0.2046
 30
0.0
 10
0.04833
 20
0.00952
 30
0.0
 10
0.04833
 20
0.00952
 30
0.0
 10
0.07231
 20
0.0074
 30
0.0
 10
0.12064
 20
0.00353
 30
0.0
 10
0.14464
 20
0.00141
 30
0.0
 10
0.14464
 20
0.00141
 30
0.0
 10
0.17673
 20
0.18944
 30
0.0
 10
0.14605
 20
0.38206
 30
0.0
 10
0.18661
 20
0.56938
 30
0.0
 10
0.18661
 20
0.56938
 30
0.0
 10
0.22965
 20
0.77116
 30
0.0
 10
0.29632
 20
0.96872
 30
0.0
 10
0.39616
 20
1.15005
 30
0.0
 10
0.39616
 20
1.15005
 30
0.0
 10
0.47871
 20
1.37936
 30
0.0
 10
0.67556
 20
1.5374
 30
0.0
 10
0.85478
 20
1.69121
 30
0.0
 10
0.85478
 20
1.69121
 30
0.0
 10
0.90452
 20
1.73743
 30
0.0
 10
0.97613
 20
1.70744
 30
0.0
 10
1.03575
 20
1.70568
 30
0.0
 10
1.03575
 20
1.70568
 30
0.0
 10
1.04493
 20
1.63688
 30
0.0
 10
1.03786
 20
1.56138
 30
0.0
 10
1.07631
 20
1.50035
 30
0.0
 10
1.07631
 20
1.50035
 30
0.0
 10
1.12959
 20
1.4725
 30
0.0
 10
1.19133
 20
1.47109
 30
0.0
 10
1.24989
 20
1.4612
 30
0.0
 10
1.24989
 20
1.4612
 30
0.0
 10
1.25694
 20
1.40017
 30
0.0
 10
1.26505
 20
1.33914
 30
0.0
 10
1.27635
 20
1.27881
 30
0.0
 10
1.27635
 20
1.27881
 30
0.0
 10
1.3589
 20
1.26118
 30
0.0
 10
1.44426
 20
1.26293
 30
0.0
 10
1.52681
 20
1.24388
 30
0.0
 10
1.52681
 20
1.24388
 30
0.0
 10
1.53212
 20
1.18638
 30
0.0
 10
1.53246
 20
1.12323
 30
0.0
 10
1.57198
 20
1.07667
 30
0.0
 10
1.57198
 20
1.07667
 30
0.0
 10
1.63653
 20
1.05021
 30
0.0
 10
1.70673
 20
1.06927
 30
0.0
 10
1.77341
 20
1.07492
 30
0.0
 10
1.77341
 20
1.07492
 30
0.0
 10
1.81151
 20
1.00965
 30
0.0
 10
1.83656
 20
0.89076
 30
0.0
 10
1.93922
 20
0.92779
 30
0.0
 10
1.93922
 20
0.92779
 30
0.0
 10
2.01719
 20
0.95496
 30
0.0
 10
2.1096
 20
0.94543
 30
0.0
 10
2.12478
 20
0.84807
 30
0.0
 10
2.12478
 20
0.84807
 30
0.0
 10
2.08314
 20
0.6731
 30
0.0
 10
1.98966
 20
0.51469
 30
0.0
 10
1.89934
 20
0.36054
 30
0.0
 10
1.89934
 20
0.36054
 30
0.0
 10
1.6838
 20
0.0896
 30
0.0
 10
1.40582
 20
-0.13441
 30
0.0
 10
1.08549
 20
-0.26952
 30
0.0
 10
1.08549
 20
-0.26952
 30
0.0
 10
0.95708
 20
-0.31043
 30
0.0
 10
0.82232
 20
-0.34079
 30
0.0
 10
0.70979
 20
-0.41875
 30
0.0
 10
0.70979
 20
-0.41875
 30
0.0
 10
0.71542
 20
-0.43568
 30
0.0
 10
0.72672
 20
-0.46989
 30
0.0
 10
0.73235
 20
-0.48682
 30
0.0
 10
0.73235
 20
-0.48682
 30
0.0
 10
0.85794
 20
-0.50024
 30
0.0
 10
0.97013
 20
-0.42721
 30
0.0
 10
1.09007
 20
-0.40286
 30
0.0
 10
1.09007
 20
-0.40286
 30
0.0
 10
1.43581
 20
-0.2981
 30
0.0
 10
1.80445
 20
-0.34395
 30
0.0
 10
2.14982
 20
-0.42367
 30
0.0
 10
2.14982
 20
-0.42367
 30
0.0
 10
2.30681
 20
-0.48153
 30
0.0
 10
2.45321
 20
-0.56902
 30
0.0
 10
2.58867
 20
-0.6664
 30
0.0
 10
2.58867
 20
-0.6664
 30
0.0
 10
2.64688
 20
-0.69708
 30
0.0
 10
2.62573
 20
-0.76553
 30
0.0
 10
2.6289
 20
-0.81915
 30
0.0
 10
2.6289
 20
-0.81915
 30
0.0
 10
2.56928
 20
-0.84278
 30
0.0
 10
2.50155
 20
-0.85653
 30
0.0
 10
2.45568
 20
-0.90523
 30
0.0
 10
2.45568
 20
-0.90523
 30
0.0
 10
2.45004
 20
-0.97048
 30
0.0
 10
2.46027
 20
-1.03611
 30
0.0
 10
2.46379
 20
-1.10137
 30
0.0
 10
2.46379
 20
-1.10137
 30
0.0
 10
2.41687
 20
-1.12148
 30
0.0
 10
2.36748
 20
-1.13665
 30
0.0
 10
2.32516
 20
-1.16557
 30
0.0
 10
2.32516
 20
-1.16557
 30
0.0
 10
2.27153
 20
-1.24283
 30
0.0
 10
2.36395
 20
-1.31833
 30
0.0
 10
2.34702
 20
-1.39629
 30
0.0
 10
2.34702
 20
-1.39629
 30
0.0
 10
2.30575
 20
-1.43756
 30
0.0
 10
2.25531
 20
-1.46861
 30
0.0
 10
2.21543
 20
-1.512
 30
0.0
 10
2.21543
 20
-1.512
 30
0.0
 10
2.17805
 20
-1.57339
 30
0.0
 10
2.2359
 20
-1.63476
 30
0.0
 10
2.25178
 20
-1.69333
 30
0.0
 10
2.25178
 20
-1.69333
 30
0.0
 10
2.24895
 20
-1.75823
 30
0.0
 10
2.18439
 20
-1.79563
 30
0.0
 10
2.14665
 20
-1.8415
 30
0.0
 10
2.14665
 20
-1.8415
 30
0.0
 10
2.17628
 20
-1.92687
 30
0.0
 10
2.24296
 20
-2.00695
 30
0.0
 10
2.20802
 20
-2.10185
 30
0.0
 10
2.20802
 20
-2.10185
 30
0.0
 10
1.73777
 20
-2.18015
 30
0.0
 10
1.28093
 20
-1.93922
 30
0.0
 10
0.93627
 20
-1.63795
 30
0.0
 10
0.93627
 20
-1.63795
 30
0.0
 10
0.77716
 20
-1.50953
 30
0.0
 10
0.68474
 20
-1.32432
 30
0.0
 10
0.54926
 20
-1.1751
 30
0.0
 10
0.54926
 20
-1.1751
 30
0.0
 10
0.53092
 20
-1.17651
 30
0.0
 10
0.49423
 20
-1.17897
 30
0.0
 10
0.4759
 20
-1.18039
 30
0.0
 10
0.4759
 20
-1.18039
 30
0.0
 10
0.47308
 20
-1.19873
 30
0.0
 10
0.46813
 20
-1.23506
 30
0.0
 10
0.46531
 20
-1.25341
 30
0.0
 10
0.46531
 20
-1.25341
 30
0.0
 10
0.58278
 20
-1.4238
 30
0.0
 10
0.71931
 20
-1.58396
 30
0.0
 10
0.79621
 20
-1.7787
 30
0.0
 10
0.79621
 20
-1.7787
 30
0.0
 10
0.88229
 20
-2.00025
 30
0.0
 10
0.92991
 20
-2.23519
 30
0.0
 10
0.96026
 20
-2.47015
 30
0.0
 10
0.96026
 20
-2.47015
 30
0.0
 10
0.96697
 20
-2.68252
 30
0.0
 10
0.9084
 20
-2.89243
 30
0.0
 10
0.83502
 20
-3.08997
 30
0.0
 10
0.83502
 20
-3.08997
 30
0.0
 10
0.79233
 20
-3.0935
 30
0.0
 10
0.74965
 20
-3.09703
 30
0.0
 10
0.70696
 20
-3.1002
 30
0.0
 10
0.70696
 20
-3.1002
 30
0.0
 10
0.6798
 20
-3.05118
 30
0.0
 10
0.65193
 20
-2.99685
 30
0.0
 10
0.59689
 20
-2.97461
 30
0.0
 10
0.59689
 20
-2.97461
 30
0.0
 10
0.53586
 20
-2.97673
 30
0.0
 10
0.48541
 20
-3.01978
 30
0.0
 10
0.4265
 20
-3.03213
 30
0.0
 10
0.4265
 20
-3.03213
 30
0.0
 10
0.37007
 20
-2.99685
 30
0.0
 10
0.32597
 20
-2.91711
 30
0.0
 10
0.2494
 20
-2.93546
 30
0.0
 10
0.2494
 20
-2.93546
 30
0.0
 10
0.19543
 20
-2.9404
 30
0.0
 10
0.16262
 20
-2.98838
 30
0.0
 10
0.12135
 20
-3.01695
 30
0.0
 10
0.12135
 20
-3.01695
 30
0.0
 10
0.10512
 20
-3.01519
 30
0.0
 10
0.07267
 20
-3.01237
 30
0.0
 10
0.05679
 20
-3.01096
 30
0.0
 10
0.05679
 20
-3.01096
 30
0.0
 10
0.01093
 20
-2.97285
 30
0.0
 10
-0.03598
 20
-2.91711
 30
0.0
 10
-0.103
 20
-2.93616
 30
0.0
 10
-0.103
 20
-2.93616
 30
0.0
 10
-0.15769
 20
-2.96016
 30
0.0
 10
-0.19578
 20
-3.00918
 30
0.0
 10
-0.24129
 20
-3.04694
 30
0.0
 10
-0.24129
 20
-3.04694
 30
0.0
 10
-0.28081
 20
-3.02153
 30
0.0
 10
-0.32032
 20
-2.99685
 30
0.0
 10
-0.36018
 20
-2.9718
 30
0.0
 10
-0.36018
 20
-2.9718
 30
0.0
 10
-0.36018
 20
-2.9718
 30
0.0
 10
-0.36617
 20
-3.02894
 30
0.0
 10
-0.36617
 20
-3.02894
 30
0.0
 10
-0.36617
 20
-3.02894
 30
0.0
 10
-0.36617
 20
-3.00989
 30
0.0
 10
-0.36688
 20
-2.97144
 30
0.0
 10
-0.36688
 20
-2.95205
 30
0.0
 10
-0.36688
 20
-2.95205
 30
0.0
 10
-0.45013
 20
-2.98979
 30
0.0
 10
-0.4893
 20
-3.12561
 30
0.0
 10
-0.59619
 20
-3.09597
 30
0.0
 10
-0.59619
 20
-3.09597
 30
0.0
 10
-0.6618
 20
-3.09245
 30
0.0
 10
-0.67486
 20
-3.01308
 30
0.0
 10
-0.68791
 20
-2.96262
 30
0.0
 10
-0.68791
 20
-2.96262
 30
0.0
 10
-0.71895
 20
-2.75237
 30
0.0
 10
-0.78387
 20
-2.53858
 30
0.0
 10
-0.72602
 20
-2.32657
 30
0.0
 10
-0.72602
 20
-2.32657
 30
0.0
 10
-0.69249
 20
-1.96708
 30
0.0
 10
-0.54115
 20
-1.62172
 30
0.0
 10
-0.31043
 20
-1.34513
 30
0.0
 10
-0.31043
 20
-1.34513
 30
0.0
 10
-0.2741
 20
-1.29892
 30
0.0
 10
-0.22436
 20
-1.21567
 30
0.0
 10
-0.28821
 20
-1.17086
 30
0.0
 10
-0.28821
 20
-1.17086
 30
0.0
 10
-0.38064
 20
-1.16628
 30
0.0
 10
-0.41239
 20
-1.27706
 30
0.0
 10
-0.46389
 20
-1.3349
 30
0.0
 10
-0.46389
 20
-1.3349
 30
0.0
 10
-0.65334
 20
-1.63795
 30
0.0
 10
-0.96026
 20
-1.83902
 30
0.0
 10
-1.27387
 20
-1.99565
 30
0.0
 10
-1.27387
 20
-1.99565
 30
0.0
 10
-1.48872
 20
-2.09832
 30
0.0
 10
-1.73319
 20
-2.11737
 30
0.0
 10
-1.96814
 20
-2.10819
 30
0.0
 10
-1.96814
 20
-2.10819
 30
0.0
 10
-1.9879
 20
-2.0761
 30
0.0
 10
-2.00766
 20
-2.04364
 30
0.0
 10
-2.02706
 20
-2.01153
 30
0.0
 10
-2.02706
 20
-2.01153
 30
0.0
 10
-1.9939
 20
-1.95085
 30
0.0
 10
-1.9364
 20
-1.88736
 30
0.0
 10
-1.95686
 20
-1.81292
 30
0.0
 10
-1.95686
 20
-1.81292
 30
0.0
 10
-1.9879
 20
-1.77058
 30
0.0
 10
-2.02812
 20
-1.73567
 30
0.0
 10
-2.06516
 20
-1.69898
 30
0.0
 10
-2.06516
 20
-1.69898
 30
0.0
 10
-2.02671
 20
-1.63264
 30
0.0
 10
-1.98261
 20
-1.56138
 30
0.0
 10
-2.00483
 20
-1.48132
 30
0.0
 10
-2.00483
 20
-1.48132
 30
0.0
 10
-2.05317
 20
-1.44992
 30
0.0
 10
-2.1209
 20
-1.43191
 30
0.0
 10
-2.14417
 20
-1.37407
 30
0.0
 10
-2.14417
 20
-1.37407
 30
0.0
 10
-2.14736
 20
-1.3282
 30
0.0
 10
-2.11771
 20
-1.28905
 30
0.0
 10
-2.1029
 20
-1.24777
 30
0.0
 10
-2.1029
 20
-1.24777
 30
0.0
 10
-2.10431
 20
-1.21637
 30
0.0
 10
-2.10538
 20
-1.18497
 30
0.0
 10
-2.10679
 20
-1.15393
 30
0.0
 10
-2.10679
 20
-1.15393
 30
0.0
 10
-2.15159
 20
-1.13558
 30
0.0
 10
-2.19674
 20
-1.11831
 30
0.0
 10
-2.24225
 20
-1.10243
 30
0.0
 10
-2.24225
 20
-1.10243
 30
0.0
 10
-2.25882
 20
-1.02941
 30
0.0
 10
-2.22885
 20
-0.95215
 30
0.0
 10
-2.25424
 20
-0.88265
 30
0.0
 10
-2.25424
 20
-0.88265
 30
0.0
 10
-2.30187
 20
-0.85407
 30
0.0
 10
-2.35513
 20
-0.83679
 30
0.0
 10
-2.40595
 20
-0.81597
 30
0.0
 10
-2.40595
 20
-0.81597
 30
0.0
 10
-2.41511
 20
-0.76941
 30
0.0
 10
-2.4278
 20
-0.72424
 30
0.0
 10
-2.45533
 20
-0.68545
 30
0.0
 10
-2.45533
 20
-0.68545
 30
0.0
 10
-2.44474
 20
-0.68757
 30
0.0
 10
-2.42288
 20
-0.69179
 30
0.0
 10
-2.41229
 20
-0.69391
 30
0.0
 10
-2.41229
 20
-0.69391
 30
0.0
 10
-2.29799
 20
-0.57538
 30
0.0
 10
-2.13676
 20
-0.51752
 30
0.0
 10
-1.99495
 20
-0.43921
 30
0.0
 10
-1.99495
 20
-0.43921
 30
0.0
 10
-1.58679
 20
-0.31715
 30
0.0
 10
-1.13841
 20
-0.30373
 30
0.0
 10
-0.73483
 20
-0.45225
 30
0.0
 10
-0.73483
 20
-0.45225
 30
0.0
 10
-0.66922
 20
-0.48153
 30
0.0
 10
-0.59796
 20
-0.49142
 30
0.0
 10
-0.52634
 20
-0.49106
 30
0.0
 10
-0.52634
 20
-0.49106
 30
0.0
 10
-0.53586
 20
-0.44908
 30
0.0
 10
-0.53162
 20
-0.38876
 30
0.0
 10
-0.5842
 20
-0.37465
 30
0.0
 10
-0.5842
 20
-0.37465
 30
0.0
 10
-0.73978
 20
-0.30056
 30
0.0
 10
-0.91934
 20
-0.28397
 30
0.0
 10
-1.06257
 20
-0.18274
 30
0.0
 10
-1.06257
 20
-0.18274
 30
0.0
 10
-1.29258
 20
-0.05856
 30
0.0
 10
-1.4792
 20
0.12734
 30
0.0
 10
-1.65734
 20
0.31537
 30
0.0
 10
-1.65734
 20
0.31537
 30
0.0
 10
-1.76176
 20
0.45507
 30
0.0
 10
-1.82667
 20
0.61911
 30
0.0
 10
-1.88982
 20
0.78034
 30
0.0
 10
-1.88982
 20
0.78034
 30
0.0
 10
-1.91276
 20
0.83007
 30
0.0
 10
-1.89194
 20
0.88335
 30
0.0
 10
-1.88419
 20
0.93345
 30
0.0
 10
-1.88419
 20
0.93345
 30
0.0
 10
-1.80798
 20
0.95179
 30
0.0
 10
-1.73073
 20
0.93486
 30
0.0
 10
-1.65381
 20
0.93098
 30
0.0
 10
-1.65381
 20
0.93098
 30
0.0
 10
-1.59985
 20
0.96097
 30
0.0
 10
-1.5882
 20
1.02904
 30
0.0
 10
-1.55857
 20
1.07843
 30
0.0
 10
-1.55857
 20
1.07843
 30
0.0
 10
-1.49542
 20
1.07526
 30
0.0
 10
-1.43191
 20
1.06539
 30
0.0
 10
-1.36877
 20
1.07456
 30
0.0
 10
-1.36877
 20
1.07456
 30
0.0
 10
-1.31655
 20
1.12994
 30
0.0
 10
-1.30352
 20
1.20791
 30
0.0
 10
-1.27599
 20
1.27635
 30
0.0
 10
-1.27599
 20
1.27635
 30
0.0
 10
-1.20402
 20
1.28305
 30
0.0
 10
-1.11159
 20
1.24882
 30
0.0
 10
-1.05409
 20
1.30632
 30
0.0
 10
-1.05409
 20
1.30632
 30
0.0
 10
-1.04315
 20
1.35536
 30
0.0
 10
-1.03857
 20
1.40545
 30
0.0
 10
-1.02763
 20
1.4545
 30
0.0
 10
-1.02763
 20
1.4545
 30
0.0
 10
-0.96943
 20
1.48483
 30
0.0
 10
-0.89923
 20
1.48378
 30
0.0
 10
-0.84172
 20
1.51589
 30
0.0
 10
-0.84172
 20
1.51589
 30
0.0
 10
-0.83149
 20
1.57656
 30
0.0
 10
-0.83007
 20
1.63829
 30
0.0
 10
-0.81774
 20
1.69862
 30
0.0
  0
SPLINE
  5
44
330
1F
100
AcDbEntity
  8
Camada 1
 62
   154
100
AcDbSpline
210
0.0
220
0.0
230
1.0
 70
    11
 71
     3
 72
    32
 73
    28
 74
     0
 42
0.0000000001
 43
0.0000000001
 12
1.0
 22
0.0
 32
0.0
 13
1.0
 23
0.0
 33
0.0
 40
0.0
 40
0.0
 40
0.0
 40
0.0
 40
0.125
 40
0.125
 40
0.125
 40
0.125
 40
0.25
 40
0.25
 40
0.25
 40
0.25
 40
0.375
 40
0.375
 40
0.375
 40
0.375
 40
0.5
 40
0.5
 40
0.5
 40
0.5
 40
0.625
 40
0.625
 40
0.625
 40
0.625
 40
0.75
 40
0.75
 40
0.75
 40
0.75
 40
1.0
 40
1.0
 40
1.0
 40
1.0
 10
-1.37018
 20
0.73447
 30
0.0
 10
-1.37018
 20
0.73447
 30
0.0
 10
-1.37018
 20
0.73447
 30
0.0
 10
-1.37018
 20
0.73447
 30
0.0
 10
-1.37018
 20
0.73447
 30
0.0
 10
-1.41958
 20
0.68826
 30
0.0
 10
-1.40088
 20
0.61595
 30
0.0
 10
-1.40194
 20
0.55667
 30
0.0
 10
-1.40194
 20
0.55667
 30
0.0
 10
-1.39206
 20
0.59443
 30
0.0
 10
-1.3836
 20
0.63253
 30
0.0
 10
-1.37617
 20
0.67098
 30
0.0
 10
-1.37617
 20
0.67098
 30
0.0
 10
-1.20614
 20
0.88159
 30
0.0
 10
-0.9906
 20
1.06291
 30
0.0
 10
-0.73413
 20
1.15675
 30
0.0
 10
-0.73413
 20
1.15675
 30
0.0
 10
-0.67344
 20
1.18886
 30
0.0
 10
-0.60642
 20
1.18604
 30
0.0
 10
-0.54151
 20
1.1691
 30
0.0
 10
-0.54151
 20
1.1691
 30
0.0
 10
-0.56832
 20
1.20015
 30
0.0
 10
-0.60113
 20
1.2192
 30
0.0
 10
-0.64028
 20
1.22624
 30
0.0
 10
-0.64028
 20
1.22624
 30
0.0
 10
-0.92533
 20
1.13911
 30
0.0
 10
-1.17792
 20
0.96131
 30
0.0
 10
-1.37018
 20
0.73447
 30
0.0
  0
SPLINE
  5
45
330
1F
100
AcDbEntity
  8
Camada 1
 62
   154
100
AcDbSpline
210
0.0
220
0.0
230
1.0
 70
    11
 71
     3
 72
    36
 73
    32
 74
     0
 42
0.0000000001
 43
0.0000000001
 12
1.0
 22
0.0
 32
0.0
 13
1.0
 23
0.0
 33
0.0
 40
0.0
 40
0.0
 40
0.0
 40
0.0
 40
0.1111111111111111
 40
0.1111111111111111
 40
0.1111111111111111
 40
0.1111111111111111
 40
0.2222222222222222
 40
0.2222222222222222
 40
0.2222222222222222
 40
0.2222222222222222
 40
0.3333333333333333
 40
0.3333333333333333
 40
0.3333333333333333
 40
0.3333333333333333
 40
0.4444444444444444
 40
0.4444444444444444
 40
0.4444444444444444
 40
0.4444444444444444
 40
0.5555555555555556
 40
0.5555555555555556
 40
0.5555555555555556
 40
0.5555555555555556
 40
0.6666666666666666
 40
0.6666666666666666
 40
0.6666666666666666
 40
0.6666666666666666
 40
0.7777777777777778
 40
0.7777777777777778
 40
0.7777777777777778
 40
0.7777777777777778
 40
1.0
 40
1.0
 40
1.0
 40
1.0
 10
0.80644
 20
1.14757
 30
0.0
 10
0.80644
 20
1.14757
 30
0.0
 10
0.80644
 20
1.14757
 30
0.0
 10
0.80644
 20
1.14757
 30
0.0
 10
0.80644
 20
1.14757
 30
0.0
 10
0.86676
 20
1.15359
 30
0.0
 10
0.92991
 20
1.16275
 30
0.0
 10
0.98565
 20
1.13064
 30
0.0
 10
0.98565
 20
1.13064
 30
0.0
 10
1.17369
 20
1.0481
 30
0.0
 10
1.34796
 20
0.93345
 30
0.0
 10
1.49014
 20
0.78422
 30
0.0
 10
1.49014
 20
0.78422
 30
0.0
 10
1.55575
 20
0.71084
 30
0.0
 10
1.64958
 20
0.63782
 30
0.0
 10
1.63159
 20
0.5267
 30
0.0
 10
1.63159
 20
0.5267
 30
0.0
 10
1.657
 20
0.56056
 30
0.0
 10
1.68663
 20
0.59055
 30
0.0
 10
1.71662
 20
0.61982
 30
0.0
 10
1.71662
 20
0.61982
 30
0.0
 10
1.62772
 20
0.64276
 30
0.0
 10
1.58925
 20
0.73235
 30
0.0
 10
1.53034
 20
0.7934
 30
0.0
 10
1.53034
 20
0.7934
 30
0.0
 10
1.36947
 20
0.96378
 30
0.0
 10
1.16769
 20
1.09502
 30
0.0
 10
0.94862
 20
1.17756
 30
0.0
 10
0.94862
 20
1.17756
 30
0.0
 10
0.9024
 20
1.19486
 30
0.0
 10
0.82408
 20
1.20931
 30
0.0
 10
0.80644
 20
1.14757
 30
0.0
  0
SPLINE
  5
46
330
1F
100
AcDbEntity
  8
Camada 1
 62
   154
100
AcDbSpline
210
0.0
220
0.0
230
1.0
 70
    11
 71
     3
 72
    24
 73
    20
 74
     0
 42
0.0000000001
 43
0.0000000001
 12
1.0
 22
0.0
 32
0.0
 13
1.0
 23
0.0
 33
0.0
 40
0.0
 40
0.0
 40
0.0
 40
0.0
 40
0.1666666666666667
 40
0.1666666666666667
 40
0.1666666666666667
 40
0.1666666666666667
 40
0.3333333333333333
 40
0.3333333333333333
 40
0.3333333333333333
 40
0.3333333333333333
 40
0.5
 40
0.5
 40
0.5
 40
0.5
 40
0.6666666666666666
 40
0.6666666666666666
 40
0.6666666666666666
 40
0.6666666666666666
 40
1.0
 40
1.0
 40
1.0
 40
1.0
 10
-0.02575
 20
-0.36335
 30
0.0
 10
-0.02575
 20
-0.36335
 30
0.0
 10
-0.02575
 20
-0.36335
 30
0.0
 10
-0.02575
 20
-0.36335
 30
0.0
 10
-0.02575
 20
-0.36335
 30
0.0
 10
-0.11253
 20
-0.40075
 30
0.0
 10
-0.18167
 20
-0.47659
 30
0.0
 10
-0.2046
 20
-0.56938
 30
0.0
 10
-0.2046
 20
-0.56938
 30
0.0
 10
-0.26563
 20
-0.7507
 30
0.0
 10
-0.12135
 20
-0.96697
 30
0.0
 10
0.07055
 20
-0.97861
 30
0.0
 10
0.07055
 20
-0.97861
 30
0.0
 10
0.25929
 20
-1.00894
 30
0.0
 10
0.44626
 20
-0.8269
 30
0.0
 10
0.42121
 20
-0.63746
 30
0.0
 10
0.42121
 20
-0.63746
 30
0.0
 10
0.42862
 20
-0.42333
 30
0.0
 10
0.16191
 20
-0.26492
 30
0.0
 10
-0.02575
 20
-0.36335
 30
0.0
  0
SPLINE
  5
47
330
1F
100
AcDbEntity
  8
Camada 1
 62
   154
100
AcDbSpline
210
0.0
220
0.0
230
1.0
 70
    11
 71
     3
 72
    32
 73
    28
 74
     0
 42
0.0000000001
 43
0.0000000001
 12
1.0
 22
0.0
 32
0.0
 13
1.0
 23
0.0
 33
0.0
 40
0.0
 40
0.0
 40
0.0
 40
0.0
 40
0.125
 40
0.125
 40
0.125
 40
0.125
 40
0.25
 40
0.25
 40
0.25
 40
0.25
 40
0.375
 40
0.375
 40
0.375
 40
0.375
 40
0.5
 40
0.5
 40
0.5
 40
0.5
 40
0.625
 40
0.625
 40
0.625
 40
0.625
 40
0.75
 40
0.75
 40
0.75
 40
0.75
 40
1.0
 40
1.0
 40
1.0
 40
1.0
 10
-1.91876
 20
-0.81421
 30
0.0
 10
-1.91876
 20
-0.81421
 30
0.0
 10
-1.91876
 20
-0.81421
 30
0.0
 10
-1.91876
 20
-0.81421
 30
0.0
 10
-1.91876
 20
-0.81421
 30
0.0
 10
-1.91311
 20
-1.12289
 30
0.0
 10
-1.81044
 20
-1.42662
 30
0.0
 10
-1.63829
 20
-1.68205
 30
0.0
 10
-1.63829
 20
-1.68205
 30
0.0
 10
-1.60867
 20
-1.72049
 30
0.0
 10
-1.55363
 20
-1.70215
 30
0.0
 10
-1.5127
 20
-1.70074
 30
0.0
 10
-1.5127
 20
-1.70074
 30
0.0
 10
-1.54727
 20
-1.69087
 30
0.0
 10
-1.57973
 20
-1.67745
 30
0.0
 10
-1.61079
 20
-1.66088
 30
0.0
 10
-1.61079
 20
-1.66088
 30
0.0
 10
-1.78011
 20
-1.40864
 30
0.0
 10
-1.8817
 20
-1.11266
 30
0.0
 10
-1.88419
 20
-0.80785
 30
0.0
 10
-1.88419
 20
-0.80785
 30
0.0
 10
-1.86407
 20
-0.77187
 30
0.0
 10
-1.84467
 20
-0.73554
 30
0.0
 10
-1.82597
 20
-0.69885
 30
0.0
 10
-1.82597
 20
-0.69885
 30
0.0
 10
-1.87395
 20
-0.71825
 30
0.0
 10
-1.9184
 20
-0.75881
 30
0.0
 10
-1.91876
 20
-0.81421
 30
0.0
  0
SPLINE
  5
48
330
1F
100
AcDbEntity
  8
Camada 1
 62
   154
100
AcDbSpline
210
0.0
220
0.0
230
1.0
 70
    11
 71
     3
 72
    32
 73
    28
 74
     0
 42
0.0000000001
 43
0.0000000001
 12
1.0
 22
0.0
 32
0.0
 13
1.0
 23
0.0
 33
0.0
 40
0.0
 40
0.0
 40
0.0
 40
0.0
 40
0.125
 40
0.125
 40
0.125
 40
0.125
 40
0.25
 40
0.25
 40
0.25
 40
0.25
 40
0.375
 40
0.375
 40
0.375
 40
0.375
 40
0.5
 40
0.5
 40
0.5
 40
0.5
 40
0.625
 40
0.625
 40
0.625
 40
0.625
 40
0.75
 40
0.75
 40
0.75
 40
0.75
 40
1.0
 40
1.0
 40
1.0
 40
1.0
 10
2.07398
 20
-0.88194
 30
0.0
 10
2.07398
 20
-0.88194
 30
0.0
 10
2.07398
 20
-0.88194
 30
0.0
 10
2.07398
 20
-0.88194
 30
0.0
 10
2.07398
 20
-0.88194
 30
0.0
 10
2.06691
 20
-1.17369
 30
0.0
 10
1.96427
 20
-1.45944
 30
0.0
 10
1.79775
 20
-1.69791
 30
0.0
 10
1.79775
 20
-1.69791
 30
0.0
 10
1.76247
 20
-1.71874
 30
0.0
 10
1.72578
 20
-1.73637
 30
0.0
 10
1.68733
 20
-1.75119
 30
0.0
 10
1.68733
 20
-1.75119
 30
0.0
 10
1.73355
 20
-1.75577
 30
0.0
 10
1.79175
 20
-1.766
 30
0.0
 10
1.82068
 20
-1.71838
 30
0.0
 10
1.82068
 20
-1.71838
 30
0.0
 10
2.00096
 20
-1.47813
 30
0.0
 10
2.10114
 20
-1.17934
 30
0.0
 10
2.10149
 20
-0.87877
 30
0.0
 10
2.10149
 20
-0.87877
 30
0.0
 10
2.10219
 20
-0.82797
 30
0.0
 10
2.07186
 20
-0.78422
 30
0.0
 10
2.05281
 20
-0.73942
 30
0.0
 10
2.05281
 20
-0.73942
 30
0.0
 10
2.01224
 20
-0.78493
 30
0.0
 10
2.0701
 20
-0.83361
 30
0.0
 10
2.07398
 20
-0.88194
 30
0.0
  0
SPLINE
  5
49
330
1F
100
AcDbEntity
  8
Camada 1
 62
   154
100
AcDbSpline
210
0.0
220
0.0
230
1.0
 70
    11
 71
     3
 72
    68
 73
    64
 74
     0
 42
0.0000000001
 43
0.0000000001
 12
1.0
 22
0.0
 32
0.0
 13
1.0
 23
0.0
 33
0.0
 40
0.0
 40
0.0
 40
0.0
 40
0.0
 40
0.0588235294117647
 40
0.0588235294117647
 40
0.0588235294117647
 40
0.0588235294117647
 40
0.1176470588235294
 40
0.1176470588235294
 40
0.1176470588235294
 40
0.1176470588235294
 40
0.1764705882352941
 40
0.1764705882352941
 40
0.1764705882352941
 40
0.1764705882352941
 40
0.2352941176470588
 40
0.2352941176470588
 40
0.2352941176470588
 40
0.2352941176470588
 40
0.2941176470588235
 40
0.2941176470588235
 40
0.2941176470588235
 40
0.2941176470588235
 40
0.3529411764705883
 40
0.3529411764705883
 40
0.3529411764705883
 40
0.3529411764705883
 40
0.4117647058823529
 40
0.4117647058823529
 40
0.4117647058823529
 40
0.4117647058823529
 40
0.4705882352941176
 40
0.4705882352941176
 40
0.4705882352941176
 40
0.4705882352941176
 40
0.5294117647058824
 40
0.5294117647058824
 40
0.5294117647058824
 40
0.5294117647058824
 40
0.5882352941176471
 40
0.5882352941176471
 40
0.5882352941176471
 40
0.5882352941176471
 40
0.6470588235294118
 40
0.6470588235294118
 40
0.6470588235294118
 40
0.6470588235294118
 40
0.7058823529411765
 40
0.7058823529411765
 40
0.7058823529411765
 40
0.7058823529411765
 40
0.7647058823529411
 40
0.7647058823529411
 40
0.7647058823529411
 40
0.7647058823529411
 40
0.8235294117647058
 40
0.8235294117647058
 40
0.8235294117647058
 40
0.8235294117647058
 40
0.8823529411764706
 40
0.8823529411764706
 40
0.8823529411764706
 40
0.8823529411764706
 40
1.0
 40
1.0
 40
1.0
 40
1.0
 10
-0.2988
 20
-3.8033
 30
0.0
 10
0.02433
 20
-3.74473
 30
0.0
 10
0.35736
 20
-3.8802
 30
0.0
 10
0.59619
 20
-4.09434
 30
0.0
 10
0.59619
 20
-4.09434
 30
0.0
 10
0.85478
 20
-4.38221
 30
0.0
 10
0.97119
 20
-4.77131
 30
0.0
 10
1.00471
 20
-5.1509
 30
0.0
 10
1.00471
 20
-5.1509
 30
0.0
 10
1.05798
 20
-5.54319
 30
0.0
 10
1.01423
 20
-5.94006
 30
0.0
 10
0.95815
 20
-6.32953
 30
0.0
 10
0.95815
 20
-6.32953
 30
0.0
 10
0.87417
 20
-6.66962
 30
0.0
 10
0.81209
 20
-7.03791
 30
0.0
 10
0.57572
 20
-7.31131
 30
0.0
 10
0.57572
 20
-7.31131
 30
0.0
 10
0.38981
 20
-7.53392
 30
0.0
 10
0.06314
 20
-7.66585
 30
0.0
 10
-0.21554
 20
-7.54486
 30
0.0
 10
-0.21554
 20
-7.54486
 30
0.0
 10
-0.49106
 20
-7.44643
 30
0.0
 10
-0.66781
 20
-7.1635
 30
0.0
 10
-0.68579
 20
-6.87846
 30
0.0
 10
-0.68579
 20
-6.87846
 30
0.0
 10
-0.69603
 20
-6.61528
 30
0.0
 10
-0.62759
 20
-6.35776
 30
0.0
 10
-0.56303
 20
-6.10517
 30
0.0
 10
-0.56303
 20
-6.10517
 30
0.0
 10
-0.4445
 20
-5.66278
 30
0.0
 10
-0.20109
 20
-5.26696
 30
0.0
 10
0.07549
 20
-4.90643
 30
0.0
 10
0.07549
 20
-4.90643
 30
0.0
 10
0.19332
 20
-4.74944
 30
0.0
 10
0.28117
 20
-4.53248
 30
0.0
 10
0.19614
 20
-4.34057
 30
0.0
 10
0.19614
 20
-4.34057
 30
0.0
 10
0.15521
 20
-4.22168
 30
0.0
 10
0.03951
 20
-4.14796
 30
0.0
 10
-0.07513
 20
-4.11091
 30
0.0
 10
-0.07513
 20
-4.11091
 30
0.0
 10
-0.17568
 20
-4.08481
 30
0.0
 10
-0.3048
 20
-4.08305
 30
0.0
 10
-0.36829
 20
-4.18076
 30
0.0
 10
-0.36829
 20
-4.18076
 30
0.0
 10
-0.44626
 20
-4.25908
 30
0.0
 10
-0.44097
 20
-4.48486
 30
0.0
 10
-0.28575
 20
-4.43618
 30
0.0
 10
-0.28575
 20
-4.43618
 30
0.0
 10
-0.24448
 20
-4.37797
 30
0.0
 10
-0.19685
 20
-4.28978
 30
0.0
 10
-0.10936
 20
-4.31729
 30
0.0
 10
-0.10936
 20
-4.31729
 30
0.0
 10
0.01128
 20
-4.35926
 30
0.0
 10
0.0134
 20
-4.51908
 30
0.0
 10
-0.0381
 20
-4.61539
 30
0.0
 10
-0.0381
 20
-4.61539
 30
0.0
 10
-0.17604
 20
-4.81436
 30
0.0
 10
-0.51752
 20
-4.79848
 30
0.0
 10
-0.63816
 20
-4.58893
 30
0.0
 10
-0.63816
 20
-4.58893
 30
0.0
 10
-0.81879
 20
-4.29894
 30
0.0
 10
-0.6283
 20
-3.87597
 30
0.0
 10
-0.2988
 20
-3.8033
 30
0.0
  0
SPLINE
  5
4A
330
1F
100
AcDbEntity
  8
Camada 1
 62
   154
100
AcDbSpline
210
0.0
220
0.0
230
1.0
 70
    11
 71
     3
 72
    20
 73
    16
 74
     0
 42
0.0000000001
 43
0.0000000001
 12
1.0
 22
0.0
 32
0.0
 13
1.0
 23
0.0
 33
0.0
 40
0.0
 40
0.0
 40
0.0
 40
0.0
 40
0.2
 40
0.2
 40
0.2
 40
0.2
 40
0.4
 40
0.4
 40
0.4
 40
0.4
 40
0.6
 40
0.6
 40
0.6
 40
0.6
 40
1.0
 40
1.0
 40
1.0
 40
1.0
 10
0.53657
 20
-4.54342
 30
0.0
 10
0.53657
 20
-4.54342
 30
0.0
 10
0.53657
 20
-4.54342
 30
0.0
 10
0.53657
 20
-4.54342
 30
0.0
 10
0.53657
 20
-4.54342
 30
0.0
 10
0.51328
 20
-4.88456
 30
0.0
 10
0.27622
 20
-5.14385
 30
0.0
 10
0.08678
 20
-5.40773
 30
0.0
 10
0.08678
 20
-5.40773
 30
0.0
 10
0.26811
 20
-5.53931
 30
0.0
 10
0.50165
 20
-5.57705
 30
0.0
 10
0.72073
 20
-5.58446
 30
0.0
 10
0.72073
 20
-5.58446
 30
0.0
 10
0.72813
 20
-5.23098
 30
0.0
 10
0.69215
 20
-4.86587
 30
0.0
 10
0.53657
 20
-4.54342
 30
0.0
  0
SPLINE
  5
4B
330
1F
100
AcDbEntity
  8
Camada 1
 62
   154
100
AcDbSpline
210
0.0
220
0.0
230
1.0
 70
    11
 71
     3
 72
    28
 73
    24
 74
     0
 42
0.0000000001
 43
0.0000000001
 12
1.0
 22
0.0
 32
0.0
 13
1.0
 23
0.0
 33
0.0
 40
0.0
 40
0.0
 40
0.0
 40
0.0
 40
0.1428571428571428
 40
0.1428571428571428
 40
0.1428571428571428
 40
0.1428571428571428
 40
0.2857142857142857
 40
0.2857142857142857
 40
0.2857142857142857
 40
0.2857142857142857
 40
0.4285714285714285
 40
0.4285714285714285
 40
0.4285714285714285
 40
0.4285714285714285
 40
0.5714285714285714
 40
0.5714285714285714
 40
0.5714285714285714
 40
0.5714285714285714
 40
0.7142857142857143
 40
0.7142857142857143
 40
0.7142857142857143
 40
0.7142857142857143
 40
1.0
 40
1.0
 40
1.0
 40
1.0
 10
-0.23176
 20
-7.09224
 30
0.0
 10
-0.23176
 20
-7.09224
 30
0.0
 10
-0.23176
 20
-7.09224
 30
0.0
 10
-0.23176
 20
-7.09224
 30
0.0
 10
-0.23176
 20
-7.09224
 30
0.0
 10
-0.26599
 20
-7.18467
 30
0.0
 10
-0.1979
 20
-7.26897
 30
0.0
 10
-0.13757
 20
-7.33142
 30
0.0
 10
-0.13757
 20
-7.33142
 30
0.0
 10
-0.0649
 20
-7.3293
 30
0.0
 10
0.01729
 20
-7.35012
 30
0.0
 10
0.08149
 20
-7.30532
 30
0.0
 10
0.08149
 20
-7.30532
 30
0.0
 10
0.15309
 20
-7.24712
 30
0.0
 10
0.17285
 20
-7.13916
 30
0.0
 10
0.13616
 20
-7.05626
 30
0.0
 10
0.13616
 20
-7.05626
 30
0.0
 10
0.10512
 20
-6.98712
 30
0.0
 10
0.02645
 20
-6.9656
 30
0.0
 10
-0.03598
 20
-6.93525
 30
0.0
 10
-0.03598
 20
-6.93525
 30
0.0
 10
-0.11994
 20
-6.95713
 30
0.0
 10
-0.20319
 20
-7.0051
 30
0.0
 10
-0.23176
 20
-7.09224
 30
0.0
  0
ENDSEC
  0
SECTION
  2
OBJECTS
  0
DICTIONARY
  5
C
330
0
100
AcDbDictionary
281
     1
  3
ACAD_GROUP
350
D
  3
ACAD_LAYOUT
350
1A
  3
ACAD_MATERIAL
350
3B
  3
ACAD_MLEADERSTYLE
350
6D
  3
ACAD_MLINESTYLE
350
17
  3
ACAD_PLOTSETTINGS
350
19
  3
ACAD_PLOTSTYLENAME
350
E
  3
ACAD_TABLESTYLE
350
6C
  3
ACAD_VISUALSTYLE
350
2A
  0
DICTIONARY
  5
D
102
{ACAD_REACTORS
330
C
102
}
330
C
100
AcDbDictionary
281
     1
  0
DICTIONARY
  5
1A
102
{ACAD_REACTORS
330
C
102
}
330
C
100
AcDbDictionary
281
     1
  3
Layout1
350
1E
  3
Layout2
350
26
  3
Model
350
22
  0
DICTIONARY
  5
3B
102
{ACAD_REACTORS
330
C
102
}
330
C
100
AcDbDictionary
281
     1
  3
ByBlock
350
3D
  3
ByLayer
350
3C
  3
Global
350
3E
  0
DICTIONARY
  5
6D
102
{ACAD_REACTORS
330
C
102
}
330
C
100
AcDbDictionary
281
     1
  0
DICTIONARY
  5
17
102
{ACAD_REACTORS
330
C
102
}
330
C
100
AcDbDictionary
281
     1
  3
Standard
350
18
  0
DICTIONARY
  5
19
102
{ACAD_REACTORS
330
C
102
}
330
C
100
AcDbDictionary
281
     1
  0
ACDBDICTIONARYWDFLT
  5
E
102
{ACAD_REACTORS
330
C
102
}
330
C
100
AcDbDictionary
281
     1
  3
Normal
350
F
100
AcDbDictionaryWithDefault
340
F
  0
DICTIONARY
  5
6C
102
{ACAD_REACTORS
330
C
102
}
330
C
100
AcDbDictionary
281
     1
  0
DICTIONARY
  5
2A
102
{ACAD_REACTORS
330
C
102
}
330
C
100
AcDbDictionary
281
     1
  3
2dWireframe
350
2F
  3
3D Hidden
350
31
  3
3dWireframe
350
30
  3
Basic
350
32
  3
Brighten
350
36
  3
ColorChange
350
3A
  3
Conceptual
350
34
  3
Dim
350
35
  3
Facepattern
350
39
  3
Flat
350
2B
  3
FlatWithEdges
350
2C
  3
Gouraud
350
2D
  3
GouraudWithEdges
350
2E
  3
Linepattern
350
38
  3
Realistic
350
33
  3
Thicken
350
37
  0
LAYOUT
  5
1E
102
{ACAD_REACTORS
330
1A
102
}
330
1A
100
AcDbPlotSettings
  1

  2
none_device
  4

  6

 40
0.0
 41
0.0
 42
0.0
 43
0.0
 44
0.0
 45
0.0
 46
0.0
 47
0.0
 48
0.0
 49
0.0
140
0.0
141
0.0
142
1.0
143
1.0
 70
   688
 72
     0
 73
     0
 74
     5
  7

 75
    16
 76
     0
 77
     2
 78
   300
147
1.0
148
0.0
149
0.0
100
AcDbLayout
  1
Layout1
 70
     1
 71
     1
 10
0.0
 20
0.0
 11
12.0
 21
9.0
 12
0.0
 22
0.0
 32
0.0
 14
1.000000000000000E+20
 24
1.000000000000000E+20
 34
1.000000000000000E+20
 15
-1.000000000000000E+20
 25
-1.000000000000000E+20
 35
-1.000000000000000E+20
146
0.0
 13
0.0
 23
0.0
 33
0.0
 16
1.0
 26
0.0
 36
0.0
 17
0.0
 27
1.0
 37
0.0
 76
     0
330
1B
  0
LAYOUT
  5
26
102
{ACAD_REACTORS
330
1A
102
}
330
1A
100
AcDbPlotSettings
  1

  2
none_device
  4

  6

 40
0.0
 41
0.0
 42
0.0
 43
0.0
 44
0.0
 45
0.0
 46
0.0
 47
0.0
 48
0.0
 49
0.0
140
0.0
141
0.0
142
1.0
143
1.0
 70
   688
 72
     0
 73
     0
 74
     5
  7

 75
    16
 76
     0
 77
     2
 78
   300
147
1.0
148
0.0
149
0.0
100
AcDbLayout
  1
Layout2
 70
     1
 71
     2
 10
0.0
 20
0.0
 11
0.0
 21
0.0
 12
0.0
 22
0.0
 32
0.0
 14
0.0
 24
0.0
 34
0.0
 15
0.0
 25
0.0
 35
0.0
146
0.0
 13
0.0
 23
0.0
 33
0.0
 16
1.0
 26
0.0
 36
0.0
 17
0.0
 27
1.0
 37
0.0
 76
     0
330
23
  0
LAYOUT
  5
22
102
{ACAD_REACTORS
330
1A
102
}
330
1A
100
AcDbPlotSettings
  1

  2
none_device
  4

  6

 40
0.0
 41
0.0
 42
0.0
 43
0.0
 44
0.0
 45
0.0
 46
0.0
 47
0.0
 48
0.0
 49
0.0
140
0.0
141
0.0
142
1.0
143
1.0
 70
  1712
 72
     0
 73
     0
 74
     0
  7

 75
     0
 76
     0
 77
     2
 78
   300
147
1.0
148
0.0
149
0.0
100
AcDbLayout
  1
Model
 70
     1
 71
     0
 10
0.0
 20
0.0
 11
12.0
 21
9.0
 12
0.0
 22
0.0
 32
0.0
 14
-2.78168
 24
-7.5908
 34
0.0
 15
2.76945
 25
7.60912
 35
0.0
146
0.0
 13
0.0
 23
0.0
 33
0.0
 16
1.0
 26
0.0
 36
0.0
 17
0.0
 27
1.0
 37
0.0
 76
     0
330
1F
331
29
  0
MATERIAL
  5
3D
102
{ACAD_REACTORS
330
3B
102
}
330
3B
100
AcDbMaterial
  1
ByBlock
 72
     1
 94
      127
  0
MATERIAL
  5
3C
102
{ACAD_REACTORS
330
3B
102
}
330
3B
100
AcDbMaterial
  1
ByLayer
 72
     1
 94
      127
  0
MATERIAL
  5
3E
102
{ACAD_REACTORS
330
3B
102
}
330
3B
100
AcDbMaterial
  1
Global
 72
     1
 94
      127
  0
MLINESTYLE
  5
18
102
{ACAD_REACTORS
330
17
102
}
330
17
100
AcDbMlineStyle
  2
Standard
 70
     0
  3

 62
   256
 51
90.0
 52
90.0
 71
     2
 49
0.5
 62
   256
  6
BYLAYER
 49
-0.5
 62
   256
  6
BYLAYER
  0
ACDBPLACEHOLDER
  5
F
102
{ACAD_REACTORS
330
E
102
}
330
E
  0
VISUALSTYLE
  5
2F
102
{ACAD_REACTORS
330
2A
102
}
102
{ACAD_XDICTIONARY
360
54
102
}
330
2A
100
AcDbVisualStyle
  2
2dWireframe
 70
     4
 71
     0
 72
     2
 73
     0
 90
        0
 40
-0.6
 41
-30.0
 62
     5
 63
     7
421
 16777215
 74
     1
 91
        4
 64
     7
 65
   257
 75
     1
175
     1
 42
1.0
 92
        0
 66
   257
 43
1.0
 76
     1
 77
     6
 78
     2
 67
     7
 79
     5
170
     0
171
     0
290
     0
174
     0
 93
        1
 44
0.0
173
     0
291
     0
 45
0.0
  0
VISUALSTYLE
  5
31
102
{ACAD_REACTORS
330
2A
102
}
102
{ACAD_XDICTIONARY
360
58
102
}
330
2A
100
AcDbVisualStyle
  2
3D Hidden
 70
     6
 71
     1
 72
     2
 73
     2
 90
        0
 40
-0.6
 41
-30.0
 62
     5
 63
     7
421
 16777215
 74
     2
 91
        2
 64
     7
 65
   257
 75
     2
175
     1
 42
40.0
 92
        0
 66
   257
 43
1.0
 76
     1
 77
     6
 78
     2
 67
     7
 79
     3
170
     0
171
     0
290
     0
174
     0
 93
        1
 44
0.0
173
     0
291
     0
 45
0.0
  0
VISUALSTYLE
  5
30
102
{ACAD_REACTORS
330
2A
102
}
102
{ACAD_XDICTIONARY
360
56
102
}
330
2A
100
AcDbVisualStyle
  2
3dWireframe
 70
     5
 71
     0
 72
     2
 73
     0
 90
        0
 40
-0.6
 41
-30.0
 62
     5
 63
     7
421
 16777215
 74
     1
 91
        4
 64
     7
 65
   257
 75
     1
175
     1
 42
1.0
 92
        0
 66
   257
 43
1.0
 76
     1
 77
     6
 78
     2
 67
     7
 79
     5
170
     0
171
     0
290
     0
174
     0
 93
        1
 44
0.0
173
     0
291
     0
 45
0.0
  0
VISUALSTYLE
  5
32
102
{ACAD_REACTORS
330
2A
102
}
102
{ACAD_XDICTIONARY
360
5A
102
}
330
2A
100
AcDbVisualStyle
  2
Basic
 70
     7
 71
     1
 72
     0
 73
     1
 90
        0
 40
-0.6
 41
-30.0
 62
     5
 63
     7
421
 16777215
 74
     0
 91
        4
 64
     7
 65
   257
 75
     1
175
     1
 42
1.0
 92
        8
 66
     7
 43
1.0
 76
     1
 77
     6
 78
     2
 67
     7
 79
     5
170
     0
171
     0
290
     0
174
     0
 93
        1
 44
0.0
173
     0
291
     1
 45
0.0
  0
VISUALSTYLE
  5
36
102
{ACAD_REACTORS
330
2A
102
}
102
{ACAD_XDICTIONARY
360
62
102
}
330
2A
100
AcDbVisualStyle
  2
Brighten
 70
    12
 71
     2
 72
     2
 73
     0
 90
        0
 40
-0.6
 41
-30.0
 62
     5
 63
     7
421
 16777215
 74
     1
 91
        4
 64
     7
 65
   257
 75
     1
175
     1
 42
1.0
 92
        8
 66
     7
 43
1.0
 76
     1
 77
     6
 78
     2
 67
     7
 79
     5
170
     0
171
     0
290
     0
174
     0
 93
        1
 44
50.0
173
     0
291
     1
 45
0.0
  0
VISUALSTYLE
  5
3A
102
{ACAD_REACTORS
330
2A
102
}
102
{ACAD_XDICTIONARY
360
6A
102
}
330
2A
100
AcDbVisualStyle
  2
ColorChange
 70
    16
 71
     2
 72
     2
 73
     3
 90
        0
 40
-0.6
 41
-30.0
 62
     5
 63
     8
421
  8421504
 74
     1
 91
        4
 64
     7
 65
   257
 75
     1
175
     1
 42
1.0
 92
        8
 66
     8
424
  8421504
 43
1.0
 76
     1
 77
     6
 78
     2
 67
     7
 79
     5
170
     0
171
     0
290
     0
174
     0
 93
        1
 44
0.0
173
     0
291
     1
 45
0.0
  0
VISUALSTYLE
  5
34
102
{ACAD_REACTORS
330
2A
102
}
102
{ACAD_XDICTIONARY
360
5E
102
}
330
2A
100
AcDbVisualStyle
  2
Conceptual
 70
     9
 71
     3
 72
     2
 73
     0
 90
        0
 40
-0.6
 41
-30.0
 62
     5
 63
     7
421
 16777215
 74
     2
 91
        2
 64
     7
 65
   257
 75
     1
175
     1
 42
40.0
 92
        8
 66
     7
 43
1.0
 76
     1
 77
     6
 78
     2
 67
     7
 79
     3
170
     0
171
     0
290
     0
174
     0
 93
        1
 44
0.0
173
     0
291
     0
 45
0.0
  0
VISUALSTYLE
  5
35
102
{ACAD_REACTORS
330
2A
102
}
102
{ACAD_XDICTIONARY
360
60
102
}
330
2A
100
AcDbVisualStyle
  2
Dim
 70
    11
 71
     2
 72
     2
 73
     0
 90
        0
 40
-0.6
 41
-30.0
 62
     5
 63
     7
421
 16777215
 74
     1
 91
        4
 64
     7
 65
   257
 75
     1
175
     1
 42
1.0
 92
        8
 66
     7
 43
1.0
 76
     1
 77
     6
 78
     2
 67
     7
 79
     5
170
     0
171
     0
290
     0
174
     0
 93
        1
 44
-50.0
173
     0
291
     1
 45
0.0
  0
VISUALSTYLE
  5
39
102
{ACAD_REACTORS
330
2A
102
}
102
{ACAD_XDICTIONARY
360
68
102
}
330
2A
100
AcDbVisualStyle
  2
Facepattern
 70
    15
 71
     2
 72
     2
 73
     0
 90
        0
 40
-0.6
 41
-30.0
 62
     5
 63
     7
421
 16777215
 74
     1
 91
        4
 64
     7
 65
   257
 75
     1
175
     1
 42
1.0
 92
        8
 66
     7
 43
1.0
 76
     1
 77
     6
 78
     2
 67
     7
 79
     5
170
     0
171
     0
290
     0
174
     0
 93
        1
 44
0.0
173
     0
291
     1
 45
0.0
  0
VISUALSTYLE
  5
2B
102
{ACAD_REACTORS
330
2A
102
}
102
{ACAD_XDICTIONARY
360
4C
102
}
330
2A
100
AcDbVisualStyle
  2
Flat
 70
     0
 71
     2
 72
     1
 73
     1
 90
        2
 40
-0.6
 41
30.0
 62
     5
 63
     7
421
 16777215
 74
     0
 91
        4
 64
     7
 65
   257
 75
     1
175
     1
 42
1.0
 92
        8
 66
     7
 43
1.0
 76
     1
 77
     6
 78
     2
 67
     7
 79
     5
170
     0
171
     0
290
     0
174
     0
 93
       13
 44
0.0
173
     0
291
     1
 45
0.0
  0
VISUALSTYLE
  5
2C
102
{ACAD_REACTORS
330
2A
102
}
102
{ACAD_XDICTIONARY
360
4E
102
}
330
2A
100
AcDbVisualStyle
  2
FlatWithEdges
 70
     1
 71
     2
 72
     1
 73
     1
 90
        2
 40
-0.6
 41
30.0
 62
     5
 63
     7
421
 16777215
 74
     1
 91
        4
 64
     7
 65
   257
 75
     1
175
     1
 42
1.0
 92
        0
 66
   257
 43
1.0
 76
     1
 77
     6
 78
     2
 67
     7
 79
     5
170
     0
171
     0
290
     0
174
     0
 93
       13
 44
0.0
173
     0
291
     1
 45
0.0
  0
VISUALSTYLE
  5
2D
102
{ACAD_REACTORS
330
2A
102
}
102
{ACAD_XDICTIONARY
360
50
102
}
330
2A
100
AcDbVisualStyle
  2
Gouraud
 70
     2
 71
     2
 72
     2
 73
     1
 90
        2
 40
-0.6
 41
30.0
 62
     5
 63
     7
421
 16777215
 74
     0
 91
        4
 64
     7
 65
   257
 75
     1
175
     1
 42
1.0
 92
        0
 66
     7
 43
1.0
 76
     1
 77
     6
 78
     2
 67
     7
 79
     5
170
     0
171
     0
290
     0
174
     0
 93
       13
 44
0.0
173
     0
291
     1
 45
0.0
  0
VISUALSTYLE
  5
2E
102
{ACAD_REACTORS
330
2A
102
}
102
{ACAD_XDICTIONARY
360
52
102
}
330
2A
100
AcDbVisualStyle
  2
GouraudWithEdges
 70
     3
 71
     2
 72
     2
 73
     1
 90
        2
 40
-0.6
 41
30.0
 62
     5
 63
     7
421
 16777215
 74
     1
 91
        4
 64
     7
 65
   257
 75
     1
175
     1
 42
1.0
 92
        0
 66
   257
 43
1.0
 76
     1
 77
     6
 78
     2
 67
     7
 79
     5
170
     0
171
     0
290
     0
174
     0
 93
       13
 44
0.0
173
     0
291
     1
 45
0.0
  0
VISUALSTYLE
  5
38
102
{ACAD_REACTORS
330
2A
102
}
102
{ACAD_XDICTIONARY
360
66
102
}
330
2A
100
AcDbVisualStyle
  2
Linepattern
 70
    14
 71
     2
 72
     2
 73
     0
 90
        0
 40
-0.6
 41
-30.0
 62
     5
 63
     7
421
 16777215
 74
     1
 91
        4
 64
     7
 65
   257
 75
     7
175
     7
 42
1.0
 92
        8
 66
     7
 43
1.0
 76
     1
 77
     6
 78
     2
 67
     7
 79
     5
170
     0
171
     0
290
     0
174
     0
 93
        1
 44
0.0
173
     0
291
     1
 45
0.0
  0
VISUALSTYLE
  5
33
102
{ACAD_REACTORS
330
2A
102
}
102
{ACAD_XDICTIONARY
360
5C
102
}
330
2A
100
AcDbVisualStyle
  2
Realistic
 70
     8
 71
     2
 72
     2
 73
     0
 90
        0
 40
-0.6
 41
-30.0
 62
     5
 63
     7
421
 16777215
 74
     1
 91
        0
 64
     7
 65
   257
 75
     1
175
     1
 42
1.0
 92
        8
 66
     8
424
  7895160
 43
1.0
 76
     1
 77
     6
 78
     2
 67
     7
 79
     5
170
     0
171
     0
290
     0
174
     0
 93
       13
 44
0.0
173
     0
291
     0
 45
0.0
  0
VISUALSTYLE
  5
37
102
{ACAD_REACTORS
330
2A
102
}
102
{ACAD_XDICTIONARY
360
64
102
}
330
2A
100
AcDbVisualStyle
  2
Thicken
 70
    13
 71
     2
 72
     2
 73
     0
 90
        0
 40
-0.6
 41
-30.0
 62
     5
 63
     7
421
 16777215
 74
     1
 91
        4
 64
     7
 65
   257
 75
     1
175
     1
 42
1.0
 92
       12
 66
     7
 43
1.0
 76
     1
 77
     6
 78
     2
 67
     7
 79
     5
170
     0
171
     0
290
     0
174
     0
 93
        1
 44
0.0
173
     0
291
     1
 45
0.0
  0
DICTIONARY
  5
54
330
2F
100
AcDbDictionary
280
     1
281
     1
  3
ACAD_XREC_ROUNDTRIP
360
55
  0
DICTIONARY
  5
58
330
31
100
AcDbDictionary
280
     1
281
     1
  3
ACAD_XREC_ROUNDTRIP
360
59
  0
DICTIONARY
  5
56
330
30
100
AcDbDictionary
280
     1
281
     1
  3
ACAD_XREC_ROUNDTRIP
360
57
  0
DICTIONARY
  5
5A
330
32
100
AcDbDictionary
280
     1
281
     1
  3
ACAD_XREC_ROUNDTRIP
360
5B
  0
DICTIONARY
  5
62
330
36
100
AcDbDictionary
280
     1
281
     1
  3
ACAD_XREC_ROUNDTRIP
360
63
  0
DICTIONARY
  5
6A
330
3A
100
AcDbDictionary
280
     1
281
     1
  3
ACAD_XREC_ROUNDTRIP
360
6B
  0
DICTIONARY
  5
5E
330
34
100
AcDbDictionary
280
     1
281
     1
  3
ACAD_XREC_ROUNDTRIP
360
5F
  0
DICTIONARY
  5
60
330
35
100
AcDbDictionary
280
     1
281
     1
  3
ACAD_XREC_ROUNDTRIP
360
61
  0
DICTIONARY
  5
68
330
39
100
AcDbDictionary
280
     1
281
     1
  3
ACAD_XREC_ROUNDTRIP
360
69
  0
DICTIONARY
  5
4C
330
2B
100
AcDbDictionary
280
     1
281
     1
  3
ACAD_XREC_ROUNDTRIP
360
4D
  0
DICTIONARY
  5
4E
330
2C
100
AcDbDictionary
280
     1
281
     1
  3
ACAD_XREC_ROUNDTRIP
360
4F
  0
DICTIONARY
  5
50
330
2D
100
AcDbDictionary
280
     1
281
     1
  3
ACAD_XREC_ROUNDTRIP
360
51
  0
DICTIONARY
  5
52
330
2E
100
AcDbDictionary
280
     1
281
     1
  3
ACAD_XREC_ROUNDTRIP
360
53
  0
DICTIONARY
  5
66
330
38
100
AcDbDictionary
280
     1
281
     1
  3
ACAD_XREC_ROUNDTRIP
360
67
  0
DICTIONARY
  5
5C
330
33
100
AcDbDictionary
280
     1
281
     1
  3
ACAD_XREC_ROUNDTRIP
360
5D
  0
DICTIONARY
  5
64
330
37
100
AcDbDictionary
280
     1
281
     1
  3
ACAD_XREC_ROUNDTRIP
360
65
  0
XRECORD
  5
55
102
{ACAD_REACTORS
330
54
102
}
330
54
100
AcDbXrecord
280
     1
102
RTVSPropertyOp0
 70
     1
102
RTVSPropertyOp1
 70
     1
102
RTVSPropertyOp2
 70
     1
102
RTVSPropertyOp3
 70
     1
102
RTVSPropertyOp4
 70
     1
102
RTVSPropertyOp5
 70
     1
102
RTVSPropertyOp6
 70
     1
102
RTVSPropertyOp7
 70
     1
102
RTVSPropertyOp8
 70
     1
102
RTVSPropertyOp9
 70
     1
102
RTVSPropertyOp10
 70
     1
102
RTVSPropertyOp11
 70
     1
102
RTVSPropertyOp12
 70
     1
102
RTVSPropertyOp13
 70
     1
102
RTVSPropertyOp14
 70
     1
102
RTVSPropertyOp15
 70
     1
102
RTVSPropertyOp16
 70
     1
102
RTVSPropertyOp17
 70
     1
102
RTVSPropertyOp18
 70
     1
102
RTVSPropertyOp19
 70
     1
102
RTVSPropertyOp20
 70
     1
102
RTVSPropertyOp21
 70
     1
102
RTVSPropertyOp22
 70
     1
102
RTVSPropertyOp23
 70
     1
102
RTVSPropertyOp24
 70
     1
102
RTVSPropertyOp25
 70
     1
102
RTVSPropertyOp26
 70
     1
102
RTVSPropertyOp27
 70
     1
102
RTVSPropertyOp28
 70
     1
102
RTVSPropertyOp29
 70
     1
102
RTVSPropertyOp30
 70
     1
102
RTVSPropertyOp31
 70
     1
102
RTVSPropertyOp32
 70
     1
  0
XRECORD
  5
59
102
{ACAD_REACTORS
330
58
102
}
330
58
100
AcDbXrecord
280
     1
102
RTVSPropertyOp0
 70
     1
102
RTVSPropertyOp1
 70
     1
102
RTVSPropertyOp2
 70
     1
102
RTVSPropertyOp3
 70
     1
102
RTVSPropertyOp4
 70
     1
102
RTVSPropertyOp5
 70
     1
102
RTVSPropertyOp6
 70
     1
102
RTVSPropertyOp7
 70
     1
102
RTVSPropertyOp8
 70
     1
102
RTVSPropertyOp9
 70
     1
102
RTVSPropertyOp10
 70
     1
102
RTVSPropertyOp11
 70
     1
102
RTVSPropertyOp12
 70
     1
102
RTVSPropertyOp13
 70
     1
102
RTVSPropertyOp14
 70
     1
102
RTVSPropertyOp15
 70
     1
102
RTVSPropertyOp16
 70
     1
102
RTVSPropertyOp17
 70
     1
102
RTVSPropertyOp18
 70
     1
102
RTVSPropertyOp19
 70
     1
102
RTVSPropertyOp20
 70
     1
102
RTVSPropertyOp21
 70
     1
102
RTVSPropertyOp22
 70
     1
102
RTVSPropertyOp23
 70
     1
102
RTVSPropertyOp24
 70
     1
102
RTVSPropertyOp25
 70
     1
102
RTVSPropertyOp26
 70
     1
102
RTVSPropertyOp27
 70
     1
102
RTVSPropertyOp28
 70
     1
102
RTVSPropertyOp29
 70
     1
102
RTVSPropertyOp30
 70
     1
102
RTVSPropertyOp31
 70
     1
102
RTVSPropertyOp32
 70
     1
  0
XRECORD
  5
57
102
{ACAD_REACTORS
330
56
102
}
330
56
100
AcDbXrecord
280
     1
102
RTVSPropertyOp0
 70
     1
102
RTVSPropertyOp1
 70
     1
102
RTVSPropertyOp2
 70
     1
102
RTVSPropertyOp3
 70
     1
102
RTVSPropertyOp4
 70
     1
102
RTVSPropertyOp5
 70
     1
102
RTVSPropertyOp6
 70
     1
102
RTVSPropertyOp7
 70
     1
102
RTVSPropertyOp8
 70
     1
102
RTVSPropertyOp9
 70
     1
102
RTVSPropertyOp10
 70
     1
102
RTVSPropertyOp11
 70
     1
102
RTVSPropertyOp12
 70
     1
102
RTVSPropertyOp13
 70
     1
102
RTVSPropertyOp14
 70
     1
102
RTVSPropertyOp15
 70
     1
102
RTVSPropertyOp16
 70
     1
102
RTVSPropertyOp17
 70
     1
102
RTVSPropertyOp18
 70
     1
102
RTVSPropertyOp19
 70
     1
102
RTVSPropertyOp20
 70
     1
102
RTVSPropertyOp21
 70
     1
102
RTVSPropertyOp22
 70
     1
102
RTVSPropertyOp23
 70
     1
102
RTVSPropertyOp24
 70
     1
102
RTVSPropertyOp25
 70
     1
102
RTVSPropertyOp26
 70
     1
102
RTVSPropertyOp27
 70
     1
102
RTVSPropertyOp28
 70
     1
102
RTVSPropertyOp29
 70
     1
102
RTVSPropertyOp30
 70
     1
102
RTVSPropertyOp31
 70
     1
102
RTVSPropertyOp32
 70
     1
  0
XRECORD
  5
5B
102
{ACAD_REACTORS
330
5A
102
}
330
5A
100
AcDbXrecord
280
     1
102
RTVSPropertyOp0
 70
     1
102
RTVSPropertyOp1
 70
     1
102
RTVSPropertyOp2
 70
     1
102
RTVSPropertyOp3
 70
     1
102
RTVSPropertyOp4
 70
     1
102
RTVSPropertyOp5
 70
     1
102
RTVSPropertyOp6
 70
     1
102
RTVSPropertyOp7
 70
     1
102
RTVSPropertyOp8
 70
     1
102
RTVSPropertyOp9
 70
     1
102
RTVSPropertyOp10
 70
     1
102
RTVSPropertyOp11
 70
     1
102
RTVSPropertyOp12
 70
     1
102
RTVSPropertyOp13
 70
     1
102
RTVSPropertyOp14
 70
     1
102
RTVSPropertyOp15
 70
     1
102
RTVSPropertyOp16
 70
     1
102
RTVSPropertyOp17
 70
     1
102
RTVSPropertyOp18
 70
     1
102
RTVSPropertyOp19
 70
     1
102
RTVSPropertyOp20
 70
     1
102
RTVSPropertyOp21
 70
     1
102
RTVSPropertyOp22
 70
     1
102
RTVSPropertyOp23
 70
     1
102
RTVSPropertyOp24
 70
     1
102
RTVSPropertyOp25
 70
     1
102
RTVSPropertyOp26
 70
     1
102
RTVSPropertyOp27
 70
     1
102
RTVSPropertyOp28
 70
     1
102
RTVSPropertyOp29
 70
     1
102
RTVSPropertyOp30
 70
     1
102
RTVSPropertyOp31
 70
     1
102
RTVSPropertyOp32
 70
     1
  0
XRECORD
  5
63
102
{ACAD_REACTORS
330
62
102
}
330
62
100
AcDbXrecord
280
     1
102
RTVSPropertyOp0
 70
     1
102
RTVSPropertyOp1
 70
     1
102
RTVSPropertyOp2
 70
     1
102
RTVSPropertyOp3
 70
     1
102
RTVSPropertyOp4
 70
     1
102
RTVSPropertyOp5
 70
     1
102
RTVSPropertyOp6
 70
     1
102
RTVSPropertyOp7
 70
     1
102
RTVSPropertyOp8
 70
     1
102
RTVSPropertyOp9
 70
     1
102
RTVSPropertyOp10
 70
     1
102
RTVSPropertyOp11
 70
     1
102
RTVSPropertyOp12
 70
     1
102
RTVSPropertyOp13
 70
     1
102
RTVSPropertyOp14
 70
     1
102
RTVSPropertyOp15
 70
     1
102
RTVSPropertyOp16
 70
     1
102
RTVSPropertyOp17
 70
     1
102
RTVSPropertyOp18
 70
     1
102
RTVSPropertyOp19
 70
     1
102
RTVSPropertyOp20
 70
     1
102
RTVSPropertyOp21
 70
     1
102
RTVSPropertyOp22
 70
     1
102
RTVSPropertyOp23
 70
     1
102
RTVSPropertyOp24
 70
     1
102
RTVSPropertyOp25
 70
     1
102
RTVSPropertyOp26
 70
     1
102
RTVSPropertyOp27
 70
     1
102
RTVSPropertyOp28
 70
     1
102
RTVSPropertyOp29
 70
     1
102
RTVSPropertyOp30
 70
     1
102
RTVSPropertyOp31
 70
     1
102
RTVSPropertyOp32
 70
     1
  0
XRECORD
  5
6B
102
{ACAD_REACTORS
330
6A
102
}
330
6A
100
AcDbXrecord
280
     1
102
RTVSPropertyOp0
 70
     1
102
RTVSPropertyOp1
 70
     1
102
RTVSPropertyOp2
 70
     1
102
RTVSPropertyOp3
 70
     1
102
RTVSPropertyOp4
 70
     1
102
RTVSPropertyOp5
 70
     1
102
RTVSPropertyOp6
 70
     1
102
RTVSPropertyOp7
 70
     1
102
RTVSPropertyOp8
 70
     1
102
RTVSPropertyOp9
 70
     1
102
RTVSPropertyOp10
 70
     1
102
RTVSPropertyOp11
 70
     1
102
RTVSPropertyOp12
 70
     1
102
RTVSPropertyOp13
 70
     1
102
RTVSPropertyOp14
 70
     1
102
RTVSPropertyOp15
 70
     1
102
RTVSPropertyOp16
 70
     1
102
RTVSPropertyOp17
 70
     1
102
RTVSPropertyOp18
 70
     1
102
RTVSPropertyOp19
 70
     1
102
RTVSPropertyOp20
 70
     1
102
RTVSPropertyOp21
 70
     1
102
RTVSPropertyOp22
 70
     1
102
RTVSPropertyOp23
 70
     1
102
RTVSPropertyOp24
 70
     1
102
RTVSPropertyOp25
 70
     1
102
RTVSPropertyOp26
 70
     1
102
RTVSPropertyOp27
 70
     1
102
RTVSPropertyOp28
 70
     1
102
RTVSPropertyOp29
 70
     1
102
RTVSPropertyOp30
 70
     1
102
RTVSPropertyOp31
 70
     1
102
RTVSPropertyOp32
 70
     1
  0
XRECORD
  5
5F
102
{ACAD_REACTORS
330
5E
102
}
330
5E
100
AcDbXrecord
280
     1
102
RTVSPropertyOp0
 70
     1
102
RTVSPropertyOp1
 70
     1
102
RTVSPropertyOp2
 70
     1
102
RTVSPropertyOp3
 70
     1
102
RTVSPropertyOp4
 70
     1
102
RTVSPropertyOp5
 70
     1
102
RTVSPropertyOp6
 70
     1
102
RTVSPropertyOp7
 70
     1
102
RTVSPropertyOp8
 70
     1
102
RTVSPropertyOp9
 70
     1
102
RTVSPropertyOp10
 70
     1
102
RTVSPropertyOp11
 70
     1
102
RTVSPropertyOp12
 70
     1
102
RTVSPropertyOp13
 70
     1
102
RTVSPropertyOp14
 70
     1
102
RTVSPropertyOp15
 70
     1
102
RTVSPropertyOp16
 70
     1
102
RTVSPropertyOp17
 70
     1
102
RTVSPropertyOp18
 70
     1
102
RTVSPropertyOp19
 70
     1
102
RTVSPropertyOp20
 70
     1
102
RTVSPropertyOp21
 70
     1
102
RTVSPropertyOp22
 70
     1
102
RTVSPropertyOp23
 70
     1
102
RTVSPropertyOp24
 70
     1
102
RTVSPropertyOp25
 70
     1
102
RTVSPropertyOp26
 70
     1
102
RTVSPropertyOp27
 70
     1
102
RTVSPropertyOp28
 70
     1
102
RTVSPropertyOp29
 70
     1
102
RTVSPropertyOp30
 70
     1
102
RTVSPropertyOp31
 70
     1
102
RTVSPropertyOp32
 70
     1
  0
XRECORD
  5
61
102
{ACAD_REACTORS
330
60
102
}
330
60
100
AcDbXrecord
280
     1
102
RTVSPropertyOp0
 70
     1
102
RTVSPropertyOp1
 70
     1
102
RTVSPropertyOp2
 70
     1
102
RTVSPropertyOp3
 70
     1
102
RTVSPropertyOp4
 70
     1
102
RTVSPropertyOp5
 70
     1
102
RTVSPropertyOp6
 70
     1
102
RTVSPropertyOp7
 70
     1
102
RTVSPropertyOp8
 70
     1
102
RTVSPropertyOp9
 70
     1
102
RTVSPropertyOp10
 70
     1
102
RTVSPropertyOp11
 70
     1
102
RTVSPropertyOp12
 70
     1
102
RTVSPropertyOp13
 70
     1
102
RTVSPropertyOp14
 70
     1
102
RTVSPropertyOp15
 70
     1
102
RTVSPropertyOp16
 70
     1
102
RTVSPropertyOp17
 70
     1
102
RTVSPropertyOp18
 70
     1
102
RTVSPropertyOp19
 70
     1
102
RTVSPropertyOp20
 70
     1
102
RTVSPropertyOp21
 70
     1
102
RTVSPropertyOp22
 70
     1
102
RTVSPropertyOp23
 70
     1
102
RTVSPropertyOp24
 70
     1
102
RTVSPropertyOp25
 70
     1
102
RTVSPropertyOp26
 70
     1
102
RTVSPropertyOp27
 70
     1
102
RTVSPropertyOp28
 70
     1
102
RTVSPropertyOp29
 70
     1
102
RTVSPropertyOp30
 70
     1
102
RTVSPropertyOp31
 70
     1
102
RTVSPropertyOp32
 70
     1
  0
XRECORD
  5
69
102
{ACAD_REACTORS
330
68
102
}
330
68
100
AcDbXrecord
280
     1
102
RTVSPropertyOp0
 70
     1
102
RTVSPropertyOp1
 70
     1
102
RTVSPropertyOp2
 70
     1
102
RTVSPropertyOp3
 70
     1
102
RTVSPropertyOp4
 70
     1
102
RTVSPropertyOp5
 70
     1
102
RTVSPropertyOp6
 70
     1
102
RTVSPropertyOp7
 70
     1
102
RTVSPropertyOp8
 70
     1
102
RTVSPropertyOp9
 70
     1
102
RTVSPropertyOp10
 70
     1
102
RTVSPropertyOp11
 70
     1
102
RTVSPropertyOp12
 70
     1
102
RTVSPropertyOp13
 70
     1
102
RTVSPropertyOp14
 70
     1
102
RTVSPropertyOp15
 70
     1
102
RTVSPropertyOp16
 70
     1
102
RTVSPropertyOp17
 70
     1
102
RTVSPropertyOp18
 70
     1
102
RTVSPropertyOp19
 70
     1
102
RTVSPropertyOp20
 70
     1
102
RTVSPropertyOp21
 70
     1
102
RTVSPropertyOp22
 70
     1
102
RTVSPropertyOp23
 70
     1
102
RTVSPropertyOp24
 70
     1
102
RTVSPropertyOp25
 70
     1
102
RTVSPropertyOp26
 70
     1
102
RTVSPropertyOp27
 70
     1
102
RTVSPropertyOp28
 70
     1
102
RTVSPropertyOp29
 70
     1
102
RTVSPropertyOp30
 70
     1
102
RTVSPropertyOp31
 70
     1
102
RTVSPropertyOp32
 70
     1
  0
XRECORD
  5
4D
102
{ACAD_REACTORS
330
4C
102
}
330
4C
100
AcDbXrecord
280
     1
102
RTVSPropertyOp0
 70
     1
102
RTVSPropertyOp1
 70
     1
102
RTVSPropertyOp2
 70
     1
102
RTVSPropertyOp3
 70
     1
102
RTVSPropertyOp4
 70
     1
102
RTVSPropertyOp5
 70
     1
102
RTVSPropertyOp6
 70
     1
102
RTVSPropertyOp7
 70
     1
102
RTVSPropertyOp8
 70
     1
102
RTVSPropertyOp9
 70
     1
102
RTVSPropertyOp10
 70
     1
102
RTVSPropertyOp11
 70
     1
102
RTVSPropertyOp12
 70
     1
102
RTVSPropertyOp13
 70
     1
102
RTVSPropertyOp14
 70
     1
102
RTVSPropertyOp15
 70
     1
102
RTVSPropertyOp16
 70
     1
102
RTVSPropertyOp17
 70
     1
102
RTVSPropertyOp18
 70
     1
102
RTVSPropertyOp19
 70
     1
102
RTVSPropertyOp20
 70
     1
102
RTVSPropertyOp21
 70
     1
102
RTVSPropertyOp22
 70
     1
102
RTVSPropertyOp23
 70
     1
102
RTVSPropertyOp24
 70
     1
102
RTVSPropertyOp25
 70
     1
102
RTVSPropertyOp26
 70
     1
102
RTVSPropertyOp27
 70
     1
102
RTVSPropertyOp28
 70
     1
102
RTVSPropertyOp29
 70
     1
102
RTVSPropertyOp30
 70
     1
102
RTVSPropertyOp31
 70
     1
102
RTVSPropertyOp32
 70
     1
  0
XRECORD
  5
4F
102
{ACAD_REACTORS
330
4E
102
}
330
4E
100
AcDbXrecord
280
     1
102
RTVSPropertyOp0
 70
     1
102
RTVSPropertyOp1
 70
     1
102
RTVSPropertyOp2
 70
     1
102
RTVSPropertyOp3
 70
     1
102
RTVSPropertyOp4
 70
     1
102
RTVSPropertyOp5
 70
     1
102
RTVSPropertyOp6
 70
     1
102
RTVSPropertyOp7
 70
     1
102
RTVSPropertyOp8
 70
     1
102
RTVSPropertyOp9
 70
     1
102
RTVSPropertyOp10
 70
     1
102
RTVSPropertyOp11
 70
     1
102
RTVSPropertyOp12
 70
     1
102
RTVSPropertyOp13
 70
     1
102
RTVSPropertyOp14
 70
     1
102
RTVSPropertyOp15
 70
     1
102
RTVSPropertyOp16
 70
     1
102
RTVSPropertyOp17
 70
     1
102
RTVSPropertyOp18
 70
     1
102
RTVSPropertyOp19
 70
     1
102
RTVSPropertyOp20
 70
     1
102
RTVSPropertyOp21
 70
     1
102
RTVSPropertyOp22
 70
     1
102
RTVSPropertyOp23
 70
     1
102
RTVSPropertyOp24
 70
     1
102
RTVSPropertyOp25
 70
     1
102
RTVSPropertyOp26
 70
     1
102
RTVSPropertyOp27
 70
     1
102
RTVSPropertyOp28
 70
     1
102
RTVSPropertyOp29
 70
     1
102
RTVSPropertyOp30
 70
     1
102
RTVSPropertyOp31
 70
     1
102
RTVSPropertyOp32
 70
     1
  0
XRECORD
  5
51
102
{ACAD_REACTORS
330
50
102
}
330
50
100
AcDbXrecord
280
     1
102
RTVSPropertyOp0
 70
     1
102
RTVSPropertyOp1
 70
     1
102
RTVSPropertyOp2
 70
     1
102
RTVSPropertyOp3
 70
     1
102
RTVSPropertyOp4
 70
     1
102
RTVSPropertyOp5
 70
     1
102
RTVSPropertyOp6
 70
     1
102
RTVSPropertyOp7
 70
     1
102
RTVSPropertyOp8
 70
     1
102
RTVSPropertyOp9
 70
     1
102
RTVSPropertyOp10
 70
     1
102
RTVSPropertyOp11
 70
     1
102
RTVSPropertyOp12
 70
     1
102
RTVSPropertyOp13
 70
     1
102
RTVSPropertyOp14
 70
     1
102
RTVSPropertyOp15
 70
     1
102
RTVSPropertyOp16
 70
     1
102
RTVSPropertyOp17
 70
     1
102
RTVSPropertyOp18
 70
     1
102
RTVSPropertyOp19
 70
     1
102
RTVSPropertyOp20
 70
     1
102
RTVSPropertyOp21
 70
     1
102
RTVSPropertyOp22
 70
     1
102
RTVSPropertyOp23
 70
     1
102
RTVSPropertyOp24
 70
     1
102
RTVSPropertyOp25
 70
     1
102
RTVSPropertyOp26
 70
     1
102
RTVSPropertyOp27
 70
     1
102
RTVSPropertyOp28
 70
     1
102
RTVSPropertyOp29
 70
     1
102
RTVSPropertyOp30
 70
     1
102
RTVSPropertyOp31
 70
     1
102
RTVSPropertyOp32
 70
     1
  0
XRECORD
  5
53
102
{ACAD_REACTORS
330
52
102
}
330
52
100
AcDbXrecord
280
     1
102
RTVSPropertyOp0
 70
     1
102
RTVSPropertyOp1
 70
     1
102
RTVSPropertyOp2
 70
     1
102
RTVSPropertyOp3
 70
     1
102
RTVSPropertyOp4
 70
     1
102
RTVSPropertyOp5
 70
     1
102
RTVSPropertyOp6
 70
     1
102
RTVSPropertyOp7
 70
     1
102
RTVSPropertyOp8
 70
     1
102
RTVSPropertyOp9
 70
     1
102
RTVSPropertyOp10
 70
     1
102
RTVSPropertyOp11
 70
     1
102
RTVSPropertyOp12
 70
     1
102
RTVSPropertyOp13
 70
     1
102
RTVSPropertyOp14
 70
     1
102
RTVSPropertyOp15
 70
     1
102
RTVSPropertyOp16
 70
     1
102
RTVSPropertyOp17
 70
     1
102
RTVSPropertyOp18
 70
     1
102
RTVSPropertyOp19
 70
     1
102
RTVSPropertyOp20
 70
     1
102
RTVSPropertyOp21
 70
     1
102
RTVSPropertyOp22
 70
     1
102
RTVSPropertyOp23
 70
     1
102
RTVSPropertyOp24
 70
     1
102
RTVSPropertyOp25
 70
     1
102
RTVSPropertyOp26
 70
     1
102
RTVSPropertyOp27
 70
     1
102
RTVSPropertyOp28
 70
     1
102
RTVSPropertyOp29
 70
     1
102
RTVSPropertyOp30
 70
     1
102
RTVSPropertyOp31
 70
     1
102
RTVSPropertyOp32
 70
     1
  0
XRECORD
  5
67
102
{ACAD_REACTORS
330
66
102
}
330
66
100
AcDbXrecord
280
     1
102
RTVSPropertyOp0
 70
     1
102
RTVSPropertyOp1
 70
     1
102
RTVSPropertyOp2
 70
     1
102
RTVSPropertyOp3
 70
     1
102
RTVSPropertyOp4
 70
     1
102
RTVSPropertyOp5
 70
     1
102
RTVSPropertyOp6
 70
     1
102
RTVSPropertyOp7
 70
     1
102
RTVSPropertyOp8
 70
     1
102
RTVSPropertyOp9
 70
     1
102
RTVSPropertyOp10
 70
     1
102
RTVSPropertyOp11
 70
     1
102
RTVSPropertyOp12
 70
     1
102
RTVSPropertyOp13
 70
     1
102
RTVSPropertyOp14
 70
     1
102
RTVSPropertyOp15
 70
     1
102
RTVSPropertyOp16
 70
     1
102
RTVSPropertyOp17
 70
     1
102
RTVSPropertyOp18
 70
     1
102
RTVSPropertyOp19
 70
     1
102
RTVSPropertyOp20
 70
     1
102
RTVSPropertyOp21
 70
     1
102
RTVSPropertyOp22
 70
     1
102
RTVSPropertyOp23
 70
     1
102
RTVSPropertyOp24
 70
     1
102
RTVSPropertyOp25
 70
     1
102
RTVSPropertyOp26
 70
     1
102
RTVSPropertyOp27
 70
     1
102
RTVSPropertyOp28
 70
     1
102
RTVSPropertyOp29
 70
     1
102
RTVSPropertyOp30
 70
     1
102
RTVSPropertyOp31
 70
     1
102
RTVSPropertyOp32
 70
     1
  0
XRECORD
  5
5D
102
{ACAD_REACTORS
330
5C
102
}
330
5C
100
AcDbXrecord
280
     1
102
RTVSPropertyOp0
 70
     1
102
RTVSPropertyOp1
 70
     1
102
RTVSPropertyOp2
 70
     1
102
RTVSPropertyOp3
 70
     1
102
RTVSPropertyOp4
 70
     1
102
RTVSPropertyOp5
 70
     1
102
RTVSPropertyOp6
 70
     1
102
RTVSPropertyOp7
 70
     1
102
RTVSPropertyOp8
 70
     1
102
RTVSPropertyOp9
 70
     1
102
RTVSPropertyOp10
 70
     1
102
RTVSPropertyOp11
 70
     1
102
RTVSPropertyOp12
 70
     1
102
RTVSPropertyOp13
 70
     1
102
RTVSPropertyOp14
 70
     1
102
RTVSPropertyOp15
 70
     1
102
RTVSPropertyOp16
 70
     1
102
RTVSPropertyOp17
 70
     1
102
RTVSPropertyOp18
 70
     1
102
RTVSPropertyOp19
 70
     1
102
RTVSPropertyOp20
 70
     1
102
RTVSPropertyOp21
 70
     1
102
RTVSPropertyOp22
 70
     1
102
RTVSPropertyOp23
 70
     1
102
RTVSPropertyOp24
 70
     1
102
RTVSPropertyOp25
 70
     1
102
RTVSPropertyOp26
 70
     1
102
RTVSPropertyOp27
 70
     1
102
RTVSPropertyOp28
 70
     1
102
RTVSPropertyOp29
 70
     1
102
RTVSPropertyOp30
 70
     1
102
RTVSPropertyOp31
 70
     1
102
RTVSPropertyOp32
 70
     1
  0
XRECORD
  5
65
102
{ACAD_REACTORS
330
64
102
}
330
64
100
AcDbXrecord
280
     1
102
RTVSPropertyOp0
 70
     1
102
RTVSPropertyOp1
 70
     1
102
RTVSPropertyOp2
 70
     1
102
RTVSPropertyOp3
 70
     1
102
RTVSPropertyOp4
 70
     1
102
RTVSPropertyOp5
 70
     1
102
RTVSPropertyOp6
 70
     1
102
RTVSPropertyOp7
 70
     1
102
RTVSPropertyOp8
 70
     1
102
RTVSPropertyOp9
 70
     1
102
RTVSPropertyOp10
 70
     1
102
RTVSPropertyOp11
 70
     1
102
RTVSPropertyOp12
 70
     1
102
RTVSPropertyOp13
 70
     1
102
RTVSPropertyOp14
 70
     1
102
RTVSPropertyOp15
 70
     1
102
RTVSPropertyOp16
 70
     1
102
RTVSPropertyOp17
 70
     1
102
RTVSPropertyOp18
 70
     1
102
RTVSPropertyOp19
 70
     1
102
RTVSPropertyOp20
 70
     1
102
RTVSPropertyOp21
 70
     1
102
RTVSPropertyOp22
 70
     1
102
RTVSPropertyOp23
 70
     1
102
RTVSPropertyOp24
 70
     1
102
RTVSPropertyOp25
 70
     1
102
RTVSPropertyOp26
 70
     1
102
RTVSPropertyOp27
 70
     1
102
RTVSPropertyOp28
 70
     1
102
RTVSPropertyOp29
 70
     1
102
RTVSPropertyOp30
 70
     1
102
RTVSPropertyOp31
 70
     1
102
RTVSPropertyOp32
 70
     1
  0
ENDSEC
  0
EOF
