  0
SECTION
  2
HEADER
  9
$ACADVER
  1
AC1021
  9
$ACADMAINTVER
 70
    25
  9
$DWGCODEPAGE
  3
ANSI_1252
  9
$INSBASE
 10
0.0
 20
0.0
 30
0.0
  9
$EXTMIN
 10
-7.41689
 20
-7.669
 30
0.0
  9
$EXTMAX
 10
7.41717
 20
7.66904
 30
0.0
  9
$LIMMIN
 10
0.0
 20
0.0
  9
$LIMMAX
 10
12.0
 20
9.0
  9
$ORTHOMODE
 70
     0
  9
$REGENMODE
 70
     1
  9
$FILLMODE
 70
     1
  9
$QTEXTMODE
 70
     0
  9
$MIRRTEXT
 70
     1
  9
$LTSCALE
 40
1.0
  9
$ATTMODE
 70
     1
  9
$TEXTSIZE
 40
0.2
  9
$TRACEWID
 40
0.05
  9
$TEXTSTYLE
  7
Standard
  9
$CLAYER
  8
0
  9
$CELTYPE
  6
ByLayer
  9
$CECOLOR
 62
   256
  9
$CELTSCALE
 40
1.0
  9
$DISPSILH
 70
     0
  9
$DIMSCALE
 40
1.0
  9
$DIMASZ
 40
0.18
  9
$DIMEXO
 40
0.0625
  9
$DIMDLI
 40
0.38
  9
$DIMRND
 40
0.0
  9
$DIMDLE
 40
0.0
  9
$DIMEXE
 40
0.18
  9
$DIMTP
 40
0.0
  9
$DIMTM
 40
0.0
  9
$DIMTXT
 40
0.18
  9
$DIMCEN
 40
0.09
  9
$DIMTSZ
 40
0.0
  9
$DIMTOL
 70
     0
  9
$DIMLIM
 70
     0
  9
$DIMTIH
 70
     1
  9
$DIMTOH
 70
     1
  9
$DIMSE1
 70
     0
  9
$DIMSE2
 70
     0
  9
$DIMTAD
 70
     0
  9
$DIMZIN
 70
     0
  9
$DIMBLK
  1

  9
$DIMASO
 70
     1
  9
$DIMSHO
 70
     1
  9
$DIMPOST
  1

  9
$DIMAPOST
  1

  9
$DIMALT
 70
     0
  9
$DIMALTD
 70
     2
  9
$DIMALTF
 40
25.4
  9
$DIMLFAC
 40
1.0
  9
$DIMTOFL
 70
     0
  9
$DIMTVP
 40
0.0
  9
$DIMTIX
 70
     0
  9
$DIMSOXD
 70
     0
  9
$DIMSAH
 70
     0
  9
$DIMBLK1
  1

  9
$DIMBLK2
  1

  9
$DIMSTYLE
  2
Standard
  9
$DIMCLRD
 70
     0
  9
$DIMCLRE
 70
     0
  9
$DIMCLRT
 70
     0
  9
$DIMTFAC
 40
1.0
  9
$DIMGAP
 40
0.09
  9
$DIMJUST
 70
     0
  9
$DIMSD1
 70
     0
  9
$DIMSD2
 70
     0
  9
$DIMTOLJ
 70
     1
  9
$DIMTZIN
 70
     0
  9
$DIMALTZ
 70
     0
  9
$DIMALTTZ
 70
     0
  9
$DIMUPT
 70
     0
  9
$DIMDEC
 70
     4
  9
$DIMTDEC
 70
     4
  9
$DIMALTU
 70
     2
  9
$DIMALTTD
 70
     2
  9
$DIMTXSTY
  7
Standard
  9
$DIMAUNIT
 70
     0
  9
$DIMADEC
 70
     0
  9
$DIMALTRND
 40
0.0
  9
$DIMAZIN
 70
     0
  9
$DIMDSEP
 70
    46
  9
$DIMATFIT
 70
     3
  9
$DIMFRAC
 70
     0
  9
$DIMLDRBLK
  1

  9
$DIMLUNIT
 70
     2
  9
$DIMLWD
 70
    -2
  9
$DIMLWE
 70
    -2
  9
$DIMTMOVE
 70
     0
  9
$DIMFXL
 40
1.0
  9
$DIMFXLON
 70
     0
  9
$DIMJOGANG
 40
0.7853981633974483
  9
$DIMTFILL
 70
     0
  9
$DIMTFILLCLR
 70
     0
  9
$DIMARCSYM
 70
     0
  9
$DIMLTYPE
  6

  9
$DIMLTEX1
  6

  9
$DIMLTEX2
  6

  9
$LUNITS
 70
     2
  9
$LUPREC
 70
     4
  9
$SKETCHINC
 40
0.1
  9
$FILLETRAD
 40
0.5
  9
$AUNITS
 70
     0
  9
$AUPREC
 70
     0
  9
$MENU
  1
.
  9
$ELEVATION
 40
0.0
  9
$PELEVATION
 40
0.0
  9
$THICKNESS
 40
0.0
  9
$LIMCHECK
 70
     0
  9
$CHAMFERA
 40
0.5
  9
$CHAMFERB
 40
0.5
  9
$CHAMFERC
 40
1.0
  9
$CHAMFERD
 40
0.0
  9
$SKPOLY
 70
     0
  9
$TDCREATE
 40
2456876.744501134
  9
$TDUCREATE
 40
2456876.869501134
  9
$TDUPDATE
 40
2456876.744501505
  9
$TDUUPDATE
 40
2456876.869501505
  9
$TDINDWG
 40
0.0000000116
  9
$TDUSRTIMER
 40
0.0000000116
  9
$USRTIMER
 70
     1
  9
$ANGBASE
 50
0.0
  9
$ANGDIR
 70
     0
  9
$PDMODE
 70
     0
  9
$PDSIZE
 40
0.0
  9
$PLINEWID
 40
0.0
  9
$SPLFRAME
 70
     0
  9
$SPLINETYPE
 70
     6
  9
$SPLINESEGS
 70
     8
  9
$HANDSEED
  5
66
  9
$SURFTAB1
 70
     6
  9
$SURFTAB2
 70
     6
  9
$SURFTYPE
 70
     6
  9
$SURFU
 70
     6
  9
$SURFV
 70
     6
  9
$UCSBASE
  2

  9
$UCSNAME
  2

  9
$UCSORG
 10
0.0
 20
0.0
 30
0.0
  9
$UCSXDIR
 10
1.0
 20
0.0
 30
0.0
  9
$UCSYDIR
 10
0.0
 20
1.0
 30
0.0
  9
$UCSORTHOREF
  2

  9
$UCSORTHOVIEW
 70
     0
  9
$UCSORGTOP
 10
0.0
 20
0.0
 30
0.0
  9
$UCSORGBOTTOM
 10
0.0
 20
0.0
 30
0.0
  9
$UCSORGLEFT
 10
0.0
 20
0.0
 30
0.0
  9
$UCSORGRIGHT
 10
0.0
 20
0.0
 30
0.0
  9
$UCSORGFRONT
 10
0.0
 20
0.0
 30
0.0
  9
$UCSORGBACK
 10
0.0
 20
0.0
 30
0.0
  9
$PUCSBASE
  2

  9
$PUCSNAME
  2

  9
$PUCSORG
 10
0.0
 20
0.0
 30
0.0
  9
$PUCSXDIR
 10
1.0
 20
0.0
 30
0.0
  9
$PUCSYDIR
 10
0.0
 20
1.0
 30
0.0
  9
$PUCSORTHOREF
  2

  9
$PUCSORTHOVIEW
 70
     0
  9
$PUCSORGTOP
 10
0.0
 20
0.0
 30
0.0
  9
$PUCSORGBOTTOM
 10
0.0
 20
0.0
 30
0.0
  9
$PUCSORGLEFT
 10
0.0
 20
0.0
 30
0.0
  9
$PUCSORGRIGHT
 10
0.0
 20
0.0
 30
0.0
  9
$PUCSORGFRONT
 10
0.0
 20
0.0
 30
0.0
  9
$PUCSORGBACK
 10
0.0
 20
0.0
 30
0.0
  9
$USERI1
 70
     0
  9
$USERI2
 70
     0
  9
$USERI3
 70
     0
  9
$USERI4
 70
     0
  9
$USERI5
 70
     0
  9
$USERR1
 40
0.0
  9
$USERR2
 40
0.0
  9
$USERR3
 40
0.0
  9
$USERR4
 40
0.0
  9
$USERR5
 40
0.0
  9
$WORLDVIEW
 70
     1
  9
$SHADEDGE
 70
     3
  9
$SHADEDIF
 70
    70
  9
$TILEMODE
 70
     1
  9
$MAXACTVP
 70
    64
  9
$PINSBASE
 10
0.0
 20
0.0
 30
0.0
  9
$PLIMCHECK
 70
     0
  9
$PEXTMIN
 10
1.000000000000000E+20
 20
1.000000000000000E+20
 30
1.000000000000000E+20
  9
$PEXTMAX
 10
-1.000000000000000E+20
 20
-1.000000000000000E+20
 30
-1.000000000000000E+20
  9
$PLIMMIN
 10
0.0
 20
0.0
  9
$PLIMMAX
 10
12.0
 20
9.0
  9
$UNITMODE
 70
     0
  9
$VISRETAIN
 70
     1
  9
$PLINEGEN
 70
     0
  9
$PSLTSCALE
 70
     1
  9
$TREEDEPTH
 70
  3020
  9
$CMLSTYLE
  2
Standard
  9
$CMLJUST
 70
     0
  9
$CMLSCALE
 40
1.0
  9
$PROXYGRAPHICS
 70
     1
  9
$MEASUREMENT
 70
     0
  9
$CELWEIGHT
370
    -1
  9
$ENDCAPS
280
     0
  9
$JOINSTYLE
280
     0
  9
$LWDISPLAY
290
     0
  9
$INSUNITS
 70
     5
  9
$HYPERLINKBASE
  1

  9
$STYLESHEET
  1

  9
$XEDIT
290
     1
  9
$CEPSNTYPE
380
     0
  9
$PSTYLEMODE
290
     1
  9
$FINGERPRINTGUID
  2
{F70279AD-FCF8-4F33-997E-CC0D9C452EAA}
  9
$VERSIONGUID
  2
{FAEB1C32-E019-11D5-929B-00C0DF256EC4}
  9
$EXTNAMES
290
     1
  9
$PSVPSCALE
 40
0.0
  9
$OLESTARTUP
290
     0
  9
$SORTENTS
280
   127
  9
$INDEXCTL
280
     0
  9
$HIDETEXT
280
     1
  9
$XCLIPFRAME
290
     0
  9
$HALOGAP
280
     0
  9
$OBSCOLOR
 70
   257
  9
$OBSLTYPE
280
     0
  9
$INTERSECTIONDISPLAY
280
     0
  9
$INTERSECTIONCOLOR
 70
   257
  9
$DIMASSOC
280
     2
  9
$PROJECTNAME
  1

  9
$CAMERADISPLAY
290
     0
  9
$LENSLENGTH
 40
50.0
  9
$CAMERAHEIGHT
 40
0.0
  9
$STEPSPERSEC
 40
2.0
  9
$STEPSIZE
 40
6.0
  9
$3DDWFPREC
 40
2.0
  9
$PSOLWIDTH
 40
0.25
  9
$PSOLHEIGHT
 40
4.0
  9
$LOFTANG1
 40
1.570796326794897
  9
$LOFTANG2
 40
1.570796326794897
  9
$LOFTMAG1
 40
0.0
  9
$LOFTMAG2
 40
0.0
  9
$LOFTPARAM
 70
     7
  9
$LOFTNORMALS
280
     1
  9
$LATITUDE
 40
37.795
  9
$LONGITUDE
 40
-122.394
  9
$NORTHDIRECTION
 40
0.0
  9
$TIMEZONE
 70
 -8000
  9
$LIGHTGLYPHDISPLAY
280
     1
  9
$TILEMODELIGHTSYNCH
280
     1
  9
$SOLIDHIST
280
     1
  9
$SHOWHIST
280
     1
  9
$DWFFRAME
280
     2
  9
$DGNFRAME
280
     2
  9
$REALWORLDSCALE
290
     1
  9
$INTERFERECOLOR
 62
   256
  9
$CSHADOW
280
     0
  9
$SHADOWPLANELOCATION
 40
0.0
  0
ENDSEC
  0
SECTION
  2
CLASSES
  0
CLASS
  1
ACDBDICTIONARYWDFLT
  2
AcDbDictionaryWithDefault
  3
ObjectDBX Classes
 90
        0
 91
        4
280
     0
281
     0
  0
CLASS
  1
VISUALSTYLE
  2
AcDbVisualStyle
  3
ObjectDBX Classes
 90
     4095
 91
        4
280
     0
281
     0
  0
CLASS
  1
MATERIAL
  2
AcDbMaterial
  3
ObjectDBX Classes
 90
     1153
 91
        4
280
     0
281
     0
  0
ENDSEC
  0
SECTION
  2
TABLES
  0
TABLE
  2
VPORT
  5
8
330
0
100
AcDbSymbolTable
 70
     1
  0
VPORT
  5
29
330
8
100
AcDbSymbolTableRecord
100
AcDbViewportTableRecord
  2
*Active
 70
     0
 10
0.0
 20
0.0
 11
1.0
 21
1.0
 12
10.42990654205607
 22
4.5
 13
0.0
 23
0.0
 14
0.5
 24
0.5
 15
0.5
 25
0.5
 16
0.0
 26
0.0
 36
1.0
 17
0.0
 27
0.0
 37
0.0
 40
9.0
 41
1.972972972850329
 42
50.0
 43
0.0
 44
0.0
 50
0.0
 51
0.0
 71
     0
 72
   100
 73
     1
 74
     3
 75
     0
 76
     0
 77
     0
 78
     0
281
     0
 65
     1
110
0.0
120
0.0
130
0.0
111
1.0
121
0.0
131
0.0
112
0.0
122
1.0
132
0.0
 79
     0
146
0.0
 60
     3
 61
     5
292
     1
282
     1
141
0.0
142
0.0
 63
   250
  0
ENDTAB
  0
TABLE
  2
LTYPE
  5
5
330
0
100
AcDbSymbolTable
 70
     1
  0
LTYPE
  5
14
330
5
100
AcDbSymbolTableRecord
100
AcDbLinetypeTableRecord
  2
ByBlock
 70
     0
  3

 72
    65
 73
     0
 40
0.0
  0
LTYPE
  5
15
330
5
100
AcDbSymbolTableRecord
100
AcDbLinetypeTableRecord
  2
ByLayer
 70
     0
  3

 72
    65
 73
     0
 40
0.0
  0
LTYPE
  5
16
330
5
100
AcDbSymbolTableRecord
100
AcDbLinetypeTableRecord
  2
Continuous
 70
     0
  3
Solid line
 72
    65
 73
     0
 40
0.0
  0
ENDTAB
  0
TABLE
  2
LAYER
  5
2
330
0
100
AcDbSymbolTable
 70
     2
  0
LAYER
  5
10
330
2
100
AcDbSymbolTableRecord
100
AcDbLayerTableRecord
  2
0
 70
     0
 62
     7
  6
Continuous
370
    -3
390
F
347
3E
  0
LAYER
  5
40
330
2
100
AcDbSymbolTableRecord
100
AcDbLayerTableRecord
  2
Camada 1
 70
     0
 62
     7
  6
Continuous
370
    -3
390
F
347
3E
  0
ENDTAB
  0
TABLE
  2
STYLE
  5
3
330
0
100
AcDbSymbolTable
 70
     1
  0
STYLE
  5
11
330
3
100
AcDbSymbolTableRecord
100
AcDbTextStyleTableRecord
  2
Standard
 70
     0
 40
0.0
 41
1.0
 50
0.0
 71
     0
 42
0.2
  3
txt
  4

  0
ENDTAB
  0
TABLE
  2
VIEW
  5
6
330
0
100
AcDbSymbolTable
 70
     0
  0
ENDTAB
  0
TABLE
  2
UCS
  5
7
330
0
100
AcDbSymbolTable
 70
     0
  0
ENDTAB
  0
TABLE
  2
APPID
  5
9
330
0
100
AcDbSymbolTable
 70
     2
  0
APPID
  5
12
330
9
100
AcDbSymbolTableRecord
100
AcDbRegAppTableRecord
  2
ACAD
 70
     0
  0
APPID
  5
3F
330
9
100
AcDbSymbolTableRecord
100
AcDbRegAppTableRecord
  2
ODA
 70
     0
  0
ENDTAB
  0
TABLE
  2
DIMSTYLE
  5
A
330
0
100
AcDbSymbolTable
 70
     1
100
AcDbDimStyleTable
  0
DIMSTYLE
105
27
330
A
100
AcDbSymbolTableRecord
100
AcDbDimStyleTableRecord
  2
Standard
 70
     0
178
     0
340
11
  0
ENDTAB
  0
TABLE
  2
BLOCK_RECORD
  5
1
330
0
100
AcDbSymbolTable
 70
     1
  0
BLOCK_RECORD
  5
1F
330
1
100
AcDbSymbolTableRecord
100
AcDbBlockTableRecord
  2
*Model_Space
340
22
 70
     0
280
     1
281
     0
  0
BLOCK_RECORD
  5
1B
330
1
100
AcDbSymbolTableRecord
100
AcDbBlockTableRecord
  2
*Paper_Space
340
1E
 70
     0
280
     1
281
     0
  0
BLOCK_RECORD
  5
23
330
1
100
AcDbSymbolTableRecord
100
AcDbBlockTableRecord
  2
*Paper_Space0
340
26
 70
     0
280
     1
281
     0
  0
ENDTAB
  0
ENDSEC
  0
SECTION
  2
BLOCKS
  0
BLOCK
  5
20
330
1F
100
AcDbEntity
  8
0
100
AcDbBlockBegin
  2
*Model_Space
 70
     0
 10
0.0
 20
0.0
 30
0.0
  3
*Model_Space
  1

  0
ENDBLK
  5
21
330
1F
100
AcDbEntity
  8
0
100
AcDbBlockEnd
  0
BLOCK
  5
1C
330
1B
100
AcDbEntity
 67
     1
  8
0
100
AcDbBlockBegin
  2
*Paper_Space
 70
     0
 10
0.0
 20
0.0
 30
0.0
  3
*Paper_Space
  1

  0
ENDBLK
  5
1D
330
1B
100
AcDbEntity
 67
     1
  8
0
100
AcDbBlockEnd
  0
BLOCK
  5
24
330
23
100
AcDbEntity
  8
0
100
AcDbBlockBegin
  2
*Paper_Space0
 70
     0
 10
0.0
 20
0.0
 30
0.0
  3
*Paper_Space0
  1

  0
ENDBLK
  5
25
330
23
100
AcDbEntity
  8
0
100
AcDbBlockEnd
  0
ENDSEC
  0
SECTION
  2
ENTITIES
  0
SPLINE
  5
41
330
1F
100
AcDbEntity
  8
Camada 1
100
AcDbSpline
210
0.0
220
0.0
230
1.0
 70
    11
 71
     3
 72
   648
 73
   644
 74
     0
 42
0.0000000001
 43
0.0000000001
 12
1.0
 22
0.0
 32
0.0
 13
1.0
 23
0.0
 33
0.0
 40
0.0
 40
0.0
 40
0.0
 40
0.0
 40
0.0061728395061728
 40
0.0061728395061728
 40
0.0061728395061728
 40
0.0061728395061728
 40
0.0123456790123457
 40
0.0123456790123457
 40
0.0123456790123457
 40
0.0123456790123457
 40
0.0185185185185185
 40
0.0185185185185185
 40
0.0185185185185185
 40
0.0185185185185185
 40
0.0246913580246914
 40
0.0246913580246914
 40
0.0246913580246914
 40
0.0246913580246914
 40
0.0308641975308642
 40
0.0308641975308642
 40
0.0308641975308642
 40
0.0308641975308642
 40
0.037037037037037
 40
0.037037037037037
 40
0.037037037037037
 40
0.037037037037037
 40
0.0432098765432099
 40
0.0432098765432099
 40
0.0432098765432099
 40
0.0432098765432099
 40
0.0493827160493827
 40
0.0493827160493827
 40
0.0493827160493827
 40
0.0493827160493827
 40
0.0555555555555556
 40
0.0555555555555556
 40
0.0555555555555556
 40
0.0555555555555556
 40
0.0617283950617284
 40
0.0617283950617284
 40
0.0617283950617284
 40
0.0617283950617284
 40
0.0679012345679012
 40
0.0679012345679012
 40
0.0679012345679012
 40
0.0679012345679012
 40
0.0740740740740741
 40
0.0740740740740741
 40
0.0740740740740741
 40
0.0740740740740741
 40
0.0802469135802469
 40
0.0802469135802469
 40
0.0802469135802469
 40
0.0802469135802469
 40
0.0864197530864197
 40
0.0864197530864197
 40
0.0864197530864197
 40
0.0864197530864197
 40
0.0925925925925926
 40
0.0925925925925926
 40
0.0925925925925926
 40
0.0925925925925926
 40
0.0987654320987654
 40
0.0987654320987654
 40
0.0987654320987654
 40
0.0987654320987654
 40
0.1049382716049383
 40
0.1049382716049383
 40
0.1049382716049383
 40
0.1049382716049383
 40
0.1111111111111111
 40
0.1111111111111111
 40
0.1111111111111111
 40
0.1111111111111111
 40
0.1172839506172839
 40
0.1172839506172839
 40
0.1172839506172839
 40
0.1172839506172839
 40
0.1234567901234568
 40
0.1234567901234568
 40
0.1234567901234568
 40
0.1234567901234568
 40
0.1296296296296296
 40
0.1296296296296296
 40
0.1296296296296296
 40
0.1296296296296296
 40
0.1358024691358025
 40
0.1358024691358025
 40
0.1358024691358025
 40
0.1358024691358025
 40
0.1419753086419753
 40
0.1419753086419753
 40
0.1419753086419753
 40
0.1419753086419753
 40
0.1481481481481481
 40
0.1481481481481481
 40
0.1481481481481481
 40
0.1481481481481481
 40
0.154320987654321
 40
0.154320987654321
 40
0.154320987654321
 40
0.154320987654321
 40
0.1604938271604938
 40
0.1604938271604938
 40
0.1604938271604938
 40
0.1604938271604938
 40
0.1666666666666667
 40
0.1666666666666667
 40
0.1666666666666667
 40
0.1666666666666667
 40
0.1728395061728395
 40
0.1728395061728395
 40
0.1728395061728395
 40
0.1728395061728395
 40
0.1790123456790123
 40
0.1790123456790123
 40
0.1790123456790123
 40
0.1790123456790123
 40
0.1851851851851852
 40
0.1851851851851852
 40
0.1851851851851852
 40
0.1851851851851852
 40
0.191358024691358
 40
0.191358024691358
 40
0.191358024691358
 40
0.191358024691358
 40
0.1975308641975309
 40
0.1975308641975309
 40
0.1975308641975309
 40
0.1975308641975309
 40
0.2037037037037037
 40
0.2037037037037037
 40
0.2037037037037037
 40
0.2037037037037037
 40
0.2098765432098765
 40
0.2098765432098765
 40
0.2098765432098765
 40
0.2098765432098765
 40
0.2160493827160494
 40
0.2160493827160494
 40
0.2160493827160494
 40
0.2160493827160494
 40
0.2222222222222222
 40
0.2222222222222222
 40
0.2222222222222222
 40
0.2222222222222222
 40
0.228395061728395
 40
0.228395061728395
 40
0.228395061728395
 40
0.228395061728395
 40
0.2345679012345679
 40
0.2345679012345679
 40
0.2345679012345679
 40
0.2345679012345679
 40
0.2407407407407407
 40
0.2407407407407407
 40
0.2407407407407407
 40
0.2407407407407407
 40
0.2469135802469136
 40
0.2469135802469136
 40
0.2469135802469136
 40
0.2469135802469136
 40
0.2530864197530864
 40
0.2530864197530864
 40
0.2530864197530864
 40
0.2530864197530864
 40
0.2592592592592592
 40
0.2592592592592592
 40
0.2592592592592592
 40
0.2592592592592592
 40
0.2654320987654321
 40
0.2654320987654321
 40
0.2654320987654321
 40
0.2654320987654321
 40
0.2716049382716049
 40
0.2716049382716049
 40
0.2716049382716049
 40
0.2716049382716049
 40
0.2777777777777778
 40
0.2777777777777778
 40
0.2777777777777778
 40
0.2777777777777778
 40
0.2839506172839506
 40
0.2839506172839506
 40
0.2839506172839506
 40
0.2839506172839506
 40
0.2901234567901235
 40
0.2901234567901235
 40
0.2901234567901235
 40
0.2901234567901235
 40
0.2962962962962963
 40
0.2962962962962963
 40
0.2962962962962963
 40
0.2962962962962963
 40
0.3024691358024691
 40
0.3024691358024691
 40
0.3024691358024691
 40
0.3024691358024691
 40
0.308641975308642
 40
0.308641975308642
 40
0.308641975308642
 40
0.308641975308642
 40
0.3148148148148148
 40
0.3148148148148148
 40
0.3148148148148148
 40
0.3148148148148148
 40
0.3209876543209876
 40
0.3209876543209876
 40
0.3209876543209876
 40
0.3209876543209876
 40
0.3271604938271605
 40
0.3271604938271605
 40
0.3271604938271605
 40
0.3271604938271605
 40
0.3333333333333333
 40
0.3333333333333333
 40
0.3333333333333333
 40
0.3333333333333333
 40
0.3395061728395062
 40
0.3395061728395062
 40
0.3395061728395062
 40
0.3395061728395062
 40
0.345679012345679
 40
0.345679012345679
 40
0.345679012345679
 40
0.345679012345679
 40
0.3518518518518519
 40
0.3518518518518519
 40
0.3518518518518519
 40
0.3518518518518519
 40
0.3580246913580247
 40
0.3580246913580247
 40
0.3580246913580247
 40
0.3580246913580247
 40
0.3641975308641975
 40
0.3641975308641975
 40
0.3641975308641975
 40
0.3641975308641975
 40
0.3703703703703703
 40
0.3703703703703703
 40
0.3703703703703703
 40
0.3703703703703703
 40
0.3765432098765432
 40
0.3765432098765432
 40
0.3765432098765432
 40
0.3765432098765432
 40
0.382716049382716
 40
0.382716049382716
 40
0.382716049382716
 40
0.382716049382716
 40
0.3888888888888889
 40
0.3888888888888889
 40
0.3888888888888889
 40
0.3888888888888889
 40
0.3950617283950617
 40
0.3950617283950617
 40
0.3950617283950617
 40
0.3950617283950617
 40
0.4012345679012346
 40
0.4012345679012346
 40
0.4012345679012346
 40
0.4012345679012346
 40
0.4074074074074074
 40
0.4074074074074074
 40
0.4074074074074074
 40
0.4074074074074074
 40
0.4135802469135803
 40
0.4135802469135803
 40
0.4135802469135803
 40
0.4135802469135803
 40
0.4197530864197531
 40
0.4197530864197531
 40
0.4197530864197531
 40
0.4197530864197531
 40
0.4259259259259259
 40
0.4259259259259259
 40
0.4259259259259259
 40
0.4259259259259259
 40
0.4320987654320987
 40
0.4320987654320987
 40
0.4320987654320987
 40
0.4320987654320987
 40
0.4382716049382716
 40
0.4382716049382716
 40
0.4382716049382716
 40
0.4382716049382716
 40
0.4444444444444444
 40
0.4444444444444444
 40
0.4444444444444444
 40
0.4444444444444444
 40
0.4506172839506173
 40
0.4506172839506173
 40
0.4506172839506173
 40
0.4506172839506173
 40
0.4567901234567901
 40
0.4567901234567901
 40
0.4567901234567901
 40
0.4567901234567901
 40
0.462962962962963
 40
0.462962962962963
 40
0.462962962962963
 40
0.462962962962963
 40
0.4691358024691358
 40
0.4691358024691358
 40
0.4691358024691358
 40
0.4691358024691358
 40
0.4753086419753086
 40
0.4753086419753086
 40
0.4753086419753086
 40
0.4753086419753086
 40
0.4814814814814815
 40
0.4814814814814815
 40
0.4814814814814815
 40
0.4814814814814815
 40
0.4876543209876543
 40
0.4876543209876543
 40
0.4876543209876543
 40
0.4876543209876543
 40
0.4938271604938271
 40
0.4938271604938271
 40
0.4938271604938271
 40
0.4938271604938271
 40
0.5
 40
0.5
 40
0.5
 40
0.5
 40
0.5061728395061729
 40
0.5061728395061729
 40
0.5061728395061729
 40
0.5061728395061729
 40
0.5123456790123457
 40
0.5123456790123457
 40
0.5123456790123457
 40
0.5123456790123457
 40
0.5185185185185185
 40
0.5185185185185185
 40
0.5185185185185185
 40
0.5185185185185185
 40
0.5246913580246914
 40
0.5246913580246914
 40
0.5246913580246914
 40
0.5246913580246914
 40
0.5308641975308642
 40
0.5308641975308642
 40
0.5308641975308642
 40
0.5308641975308642
 40
0.5370370370370371
 40
0.5370370370370371
 40
0.5370370370370371
 40
0.5370370370370371
 40
0.5432098765432098
 40
0.5432098765432098
 40
0.5432098765432098
 40
0.5432098765432098
 40
0.5493827160493827
 40
0.5493827160493827
 40
0.5493827160493827
 40
0.5493827160493827
 40
0.5555555555555556
 40
0.5555555555555556
 40
0.5555555555555556
 40
0.5555555555555556
 40
0.5617283950617284
 40
0.5617283950617284
 40
0.5617283950617284
 40
0.5617283950617284
 40
0.5679012345679012
 40
0.5679012345679012
 40
0.5679012345679012
 40
0.5679012345679012
 40
0.5740740740740741
 40
0.5740740740740741
 40
0.5740740740740741
 40
0.5740740740740741
 40
0.5802469135802469
 40
0.5802469135802469
 40
0.5802469135802469
 40
0.5802469135802469
 40
0.5864197530864198
 40
0.5864197530864198
 40
0.5864197530864198
 40
0.5864197530864198
 40
0.5925925925925926
 40
0.5925925925925926
 40
0.5925925925925926
 40
0.5925925925925926
 40
0.5987654320987654
 40
0.5987654320987654
 40
0.5987654320987654
 40
0.5987654320987654
 40
0.6049382716049383
 40
0.6049382716049383
 40
0.6049382716049383
 40
0.6049382716049383
 40
0.6111111111111112
 40
0.6111111111111112
 40
0.6111111111111112
 40
0.6111111111111112
 40
0.6172839506172839
 40
0.6172839506172839
 40
0.6172839506172839
 40
0.6172839506172839
 40
0.6234567901234568
 40
0.6234567901234568
 40
0.6234567901234568
 40
0.6234567901234568
 40
0.6296296296296297
 40
0.6296296296296297
 40
0.6296296296296297
 40
0.6296296296296297
 40
0.6358024691358025
 40
0.6358024691358025
 40
0.6358024691358025
 40
0.6358024691358025
 40
0.6419753086419753
 40
0.6419753086419753
 40
0.6419753086419753
 40
0.6419753086419753
 40
0.6481481481481481
 40
0.6481481481481481
 40
0.6481481481481481
 40
0.6481481481481481
 40
0.654320987654321
 40
0.654320987654321
 40
0.654320987654321
 40
0.654320987654321
 40
0.6604938271604939
 40
0.6604938271604939
 40
0.6604938271604939
 40
0.6604938271604939
 40
0.6666666666666666
 40
0.6666666666666666
 40
0.6666666666666666
 40
0.6666666666666666
 40
0.6728395061728395
 40
0.6728395061728395
 40
0.6728395061728395
 40
0.6728395061728395
 40
0.6790123456790124
 40
0.6790123456790124
 40
0.6790123456790124
 40
0.6790123456790124
 40
0.6851851851851852
 40
0.6851851851851852
 40
0.6851851851851852
 40
0.6851851851851852
 40
0.691358024691358
 40
0.691358024691358
 40
0.691358024691358
 40
0.691358024691358
 40
0.6975308641975309
 40
0.6975308641975309
 40
0.6975308641975309
 40
0.6975308641975309
 40
0.7037037037037037
 40
0.7037037037037037
 40
0.7037037037037037
 40
0.7037037037037037
 40
0.7098765432098766
 40
0.7098765432098766
 40
0.7098765432098766
 40
0.7098765432098766
 40
0.7160493827160493
 40
0.7160493827160493
 40
0.7160493827160493
 40
0.7160493827160493
 40
0.7222222222222222
 40
0.7222222222222222
 40
0.7222222222222222
 40
0.7222222222222222
 40
0.7283950617283951
 40
0.7283950617283951
 40
0.7283950617283951
 40
0.7283950617283951
 40
0.7345679012345679
 40
0.7345679012345679
 40
0.7345679012345679
 40
0.7345679012345679
 40
0.7407407407407407
 40
0.7407407407407407
 40
0.7407407407407407
 40
0.7407407407407407
 40
0.7469135802469136
 40
0.7469135802469136
 40
0.7469135802469136
 40
0.7469135802469136
 40
0.7530864197530864
 40
0.7530864197530864
 40
0.7530864197530864
 40
0.7530864197530864
 40
0.7592592592592593
 40
0.7592592592592593
 40
0.7592592592592593
 40
0.7592592592592593
 40
0.7654320987654321
 40
0.7654320987654321
 40
0.7654320987654321
 40
0.7654320987654321
 40
0.7716049382716049
 40
0.7716049382716049
 40
0.7716049382716049
 40
0.7716049382716049
 40
0.7777777777777778
 40
0.7777777777777778
 40
0.7777777777777778
 40
0.7777777777777778
 40
0.7839506172839507
 40
0.7839506172839507
 40
0.7839506172839507
 40
0.7839506172839507
 40
0.7901234567901234
 40
0.7901234567901234
 40
0.7901234567901234
 40
0.7901234567901234
 40
0.7962962962962963
 40
0.7962962962962963
 40
0.7962962962962963
 40
0.7962962962962963
 40
0.8024691358024691
 40
0.8024691358024691
 40
0.8024691358024691
 40
0.8024691358024691
 40
0.808641975308642
 40
0.808641975308642
 40
0.808641975308642
 40
0.808641975308642
 40
0.8148148148148148
 40
0.8148148148148148
 40
0.8148148148148148
 40
0.8148148148148148
 40
0.8209876543209876
 40
0.8209876543209876
 40
0.8209876543209876
 40
0.8209876543209876
 40
0.8271604938271605
 40
0.8271604938271605
 40
0.8271604938271605
 40
0.8271604938271605
 40
0.8333333333333334
 40
0.8333333333333334
 40
0.8333333333333334
 40
0.8333333333333334
 40
0.8395061728395061
 40
0.8395061728395061
 40
0.8395061728395061
 40
0.8395061728395061
 40
0.845679012345679
 40
0.845679012345679
 40
0.845679012345679
 40
0.845679012345679
 40
0.8518518518518519
 40
0.8518518518518519
 40
0.8518518518518519
 40
0.8518518518518519
 40
0.8580246913580247
 40
0.8580246913580247
 40
0.8580246913580247
 40
0.8580246913580247
 40
0.8641975308641975
 40
0.8641975308641975
 40
0.8641975308641975
 40
0.8641975308641975
 40
0.8703703703703703
 40
0.8703703703703703
 40
0.8703703703703703
 40
0.8703703703703703
 40
0.8765432098765432
 40
0.8765432098765432
 40
0.8765432098765432
 40
0.8765432098765432
 40
0.8827160493827161
 40
0.8827160493827161
 40
0.8827160493827161
 40
0.8827160493827161
 40
0.8888888888888888
 40
0.8888888888888888
 40
0.8888888888888888
 40
0.8888888888888888
 40
0.8950617283950617
 40
0.8950617283950617
 40
0.8950617283950617
 40
0.8950617283950617
 40
0.9012345679012346
 40
0.9012345679012346
 40
0.9012345679012346
 40
0.9012345679012346
 40
0.9074074074074074
 40
0.9074074074074074
 40
0.9074074074074074
 40
0.9074074074074074
 40
0.9135802469135802
 40
0.9135802469135802
 40
0.9135802469135802
 40
0.9135802469135802
 40
0.9197530864197531
 40
0.9197530864197531
 40
0.9197530864197531
 40
0.9197530864197531
 40
0.9259259259259259
 40
0.9259259259259259
 40
0.9259259259259259
 40
0.9259259259259259
 40
0.9320987654320988
 40
0.9320987654320988
 40
0.9320987654320988
 40
0.9320987654320988
 40
0.9382716049382716
 40
0.9382716049382716
 40
0.9382716049382716
 40
0.9382716049382716
 40
0.9444444444444444
 40
0.9444444444444444
 40
0.9444444444444444
 40
0.9444444444444444
 40
0.9506172839506173
 40
0.9506172839506173
 40
0.9506172839506173
 40
0.9506172839506173
 40
0.9567901234567902
 40
0.9567901234567902
 40
0.9567901234567902
 40
0.9567901234567902
 40
0.9629629629629629
 40
0.9629629629629629
 40
0.9629629629629629
 40
0.9629629629629629
 40
0.9691358024691358
 40
0.9691358024691358
 40
0.9691358024691358
 40
0.9691358024691358
 40
0.9753086419753086
 40
0.9753086419753086
 40
0.9753086419753086
 40
0.9753086419753086
 40
0.9814814814814815
 40
0.9814814814814815
 40
0.9814814814814815
 40
0.9814814814814815
 40
0.9876543209876543
 40
0.9876543209876543
 40
0.9876543209876543
 40
0.9876543209876543
 40
1.0
 40
1.0
 40
1.0
 40
1.0
 10
2.74365
 20
7.66904
 30
0.0
 10
4.87191
 20
7.6061
 30
0.0
 10
6.31261
 20
6.21836
 30
0.0
 10
6.67713
 20
4.36662
 30
0.0
 10
6.67713
 20
4.36662
 30
0.0
 10
6.82725
 20
3.60425
 30
0.0
 10
6.62109
 20
2.83992
 30
0.0
 10
6.61842
 20
2.10623
 30
0.0
 10
6.61842
 20
2.10623
 30
0.0
 10
6.70526
 20
2.08551
 30
0.0
 10
6.71925
 20
2.08385
 30
0.0
 10
6.72113
 20
1.97415
 30
0.0
 10
6.72113
 20
1.97415
 30
0.0
 10
6.53338
 20
1.3596
 30
0.0
 10
6.11206
 20
0.40073
 30
0.0
 10
5.51762
 20
0.28624
 30
0.0
 10
5.51762
 20
0.28624
 30
0.0
 10
5.48981
 20
0.10619
 30
0.0
 10
5.54122
 20
-0.13863
 30
0.0
 10
5.4883
 20
-0.34492
 30
0.0
 10
5.4883
 20
-0.34492
 30
0.0
 10
5.40546
 20
-0.66776
 30
0.0
 10
5.14736
 20
-1.02852
 30
0.0
 10
4.88653
 20
-1.18151
 30
0.0
 10
4.88653
 20
-1.18151
 30
0.0
 10
4.79258
 20
-1.23665
 30
0.0
 10
4.69203
 20
-1.21461
 30
0.0
 10
4.60763
 20
-1.25485
 30
0.0
 10
4.60763
 20
-1.25485
 30
0.0
 10
4.53114
 20
-1.29142
 30
0.0
 10
4.47621
 20
-1.46281
 30
0.0
 10
4.32879
 20
-1.53375
 30
0.0
 10
4.32879
 20
-1.53375
 30
0.0
 10
4.05767
 20
-1.49531
 30
0.0
 10
3.96284
 20
-1.4118
 30
0.0
 10
3.87376
 20
-1.18151
 30
0.0
 10
3.87376
 20
-1.18151
 30
0.0
 10
3.82344
 20
-1.2611
 30
0.0
 10
3.8164
 20
-1.28554
 30
0.0
 10
3.72705
 20
-1.3283
 30
0.0
 10
3.72705
 20
-1.3283
 30
0.0
 10
3.80465
 20
-1.86956
 30
0.0
 10
3.52816
 20
-2.11202
 30
0.0
 10
3.3307
 20
-2.41447
 30
0.0
 10
3.3307
 20
-2.41447
 30
0.0
 10
2.85823
 20
-3.13837
 30
0.0
 10
2.29483
 20
-3.71561
 30
0.0
 10
1.18784
 20
-3.76474
 30
0.0
 10
1.18784
 20
-3.76474
 30
0.0
 10
1.08584
 20
-3.76932
 30
0.0
 10
0.86428
 20
-3.79924
 30
0.0
 10
0.70352
 20
-3.75013
 30
0.0
 10
0.70352
 20
-3.75013
 30
0.0
 10
0.07537
 20
-3.55817
 30
0.0
 10
-0.71787
 20
-3.25703
 30
0.0
 10
-1.05778
 20
-2.76673
 30
0.0
 10
-1.05778
 20
-2.76673
 30
0.0
 10
-1.21431
 20
-2.54083
 30
0.0
 10
-1.19939
 20
-2.20804
 30
0.0
 10
-1.30728
 20
-2.01814
 30
0.0
 10
-1.30728
 20
-2.01814
 30
0.0
 10
-1.77004
 20
-2.02642
 30
0.0
 10
-1.86767
 20
-1.80946
 30
0.0
 10
-2.17323
 20
-1.72456
 30
0.0
 10
-2.17323
 20
-1.72456
 30
0.0
 10
-2.17323
 20
-1.72456
 30
0.0
 10
-2.52547
 20
-2.09148
 30
0.0
 10
-2.52547
 20
-2.09148
 30
0.0
 10
-2.52547
 20
-2.09148
 30
0.0
 10
-2.52547
 20
-2.09148
 30
0.0
 10
-2.64289
 20
-2.03282
 30
0.0
 10
-2.64289
 20
-2.03282
 30
0.0
 10
-2.64289
 20
-2.03282
 30
0.0
 10
-2.91284
 20
-2.21951
 30
0.0
 10
-3.24683
 20
-2.2352
 30
0.0
 10
-3.65561
 20
-2.29701
 30
0.0
 10
-3.65561
 20
-2.29701
 30
0.0
 10
-3.81687
 20
-2.32133
 30
0.0
 10
-4.19644
 20
-2.22906
 30
0.0
 10
-4.27209
 20
-2.34096
 30
0.0
 10
-4.27209
 20
-2.34096
 30
0.0
 10
-3.87667
 20
-2.46934
 30
0.0
 10
-3.77068
 20
-2.98019
 30
0.0
 10
-4.08127
 20
-3.26571
 30
0.0
 10
-4.08127
 20
-3.26571
 30
0.0
 10
-4.41554
 20
-3.57297
 30
0.0
 10
-5.01618
 20
-3.67923
 30
0.0
 10
-5.59307
 20
-3.73542
 30
0.0
 10
-5.59307
 20
-3.73542
 30
0.0
 10
-5.59307
 20
-3.73542
 30
0.0
 10
-6.28289
 20
-3.706
 30
0.0
 10
-6.28289
 20
-3.706
 30
0.0
 10
-6.28289
 20
-3.706
 30
0.0
 10
-6.28289
 20
-3.706
 30
0.0
 10
-6.26818
 20
-3.73542
 30
0.0
 10
-6.26818
 20
-3.73542
 30
0.0
 10
-6.26818
 20
-3.73542
 30
0.0
 10
-6.26818
 20
-3.73542
 30
0.0
 10
-5.78386
 20
-4.01424
 30
0.0
 10
-5.78386
 20
-4.01424
 30
0.0
 10
-5.78386
 20
-4.01424
 30
0.0
 10
-5.78386
 20
-4.01424
 30
0.0
 10
-4.30143
 20
-4.45459
 30
0.0
 10
-4.30143
 20
-4.45459
 30
0.0
 10
-4.30143
 20
-4.45459
 30
0.0
 10
-4.30143
 20
-4.45459
 30
0.0
 10
-3.71437
 20
-4.77749
 30
0.0
 10
-3.71437
 20
-4.77749
 30
0.0
 10
-3.71437
 20
-4.77749
 30
0.0
 10
-3.71437
 20
-4.77749
 30
0.0
 10
-3.69969
 20
-4.76281
 30
0.0
 10
-3.69969
 20
-4.76281
 30
0.0
 10
-3.69969
 20
-4.76281
 30
0.0
 10
-3.7565
 20
-4.49878
 30
0.0
 10
-3.79097
 20
-4.24433
 30
0.0
 10
-3.61161
 20
-4.07299
 30
0.0
 10
-3.61161
 20
-4.07299
 30
0.0
 10
-3.61161
 20
-4.07299
 30
0.0
 10
-3.50885
 20
-4.0877
 30
0.0
 10
-3.50885
 20
-4.0877
 30
0.0
 10
-3.50885
 20
-4.0877
 30
0.0
 10
-3.42363
 20
-4.1272
 30
0.0
 10
-3.41984
 20
-4.18718
 30
0.0
 10
-3.36211
 20
-4.2491
 30
0.0
 10
-3.36211
 20
-4.2491
 30
0.0
 10
-3.36211
 20
-4.2491
 30
0.0
 10
-3.34743
 20
-4.24909
 30
0.0
 10
-3.34743
 20
-4.24909
 30
0.0
 10
-3.34743
 20
-4.24909
 30
0.0
 10
-3.33822
 20
-4.1585
 30
0.0
 10
-3.32812
 20
-4.12087
 30
0.0
 10
-3.25932
 20
-4.08769
 30
0.0
 10
-3.25932
 20
-4.08769
 30
0.0
 10
-3.25932
 20
-4.08769
 30
0.0
 10
-3.1273
 20
-4.08769
 30
0.0
 10
-3.1273
 20
-4.08769
 30
0.0
 10
-3.1273
 20
-4.08769
 30
0.0
 10
-3.06126
 20
-4.14214
 30
0.0
 10
-3.07504
 20
-4.18974
 30
0.0
 10
-3.03919
 20
-4.27843
 30
0.0
 10
-3.03919
 20
-4.27843
 30
0.0
 10
-2.98122
 20
-4.19866
 30
0.0
 10
-2.95196
 20
-4.15
 30
0.0
 10
-2.87771
 20
-4.08769
 30
0.0
 10
-2.87771
 20
-4.08769
 30
0.0
 10
-2.87771
 20
-4.08769
 30
0.0
 10
-2.81903
 20
-4.11703
 30
0.0
 10
-2.81903
 20
-4.11703
 30
0.0
 10
-2.81903
 20
-4.11703
 30
0.0
 10
-2.75532
 20
-4.14262
 30
0.0
 10
-2.7577
 20
-4.16362
 30
0.0
 10
-2.71627
 20
-4.20506
 30
0.0
 10
-2.71627
 20
-4.20506
 30
0.0
 10
-2.505
 20
-4.11272
 30
0.0
 10
-2.3513
 20
-4.18696
 30
0.0
 10
-2.18784
 20
-4.24906
 30
0.0
 10
-2.18784
 20
-4.24906
 30
0.0
 10
-2.17226
 20
-4.25499
 30
0.0
 10
-2.07534
 20
-4.18212
 30
0.0
 10
-1.9971
 20
-4.20506
 30
0.0
 10
-1.9971
 20
-4.20506
 30
0.0
 10
-1.9971
 20
-4.20506
 30
0.0
 10
-1.90899
 20
-4.2638
 30
0.0
 10
-1.90899
 20
-4.2638
 30
0.0
 10
-1.90899
 20
-4.2638
 30
0.0
 10
-1.90899
 20
-4.2638
 30
0.0
 10
-1.83565
 20
-4.20506
 30
0.0
 10
-1.83565
 20
-4.20506
 30
0.0
 10
-1.83565
 20
-4.20506
 30
0.0
 10
-1.7504
 20
-4.18334
 30
0.0
 10
-1.74183
 20
-4.25081
 30
0.0
 10
-1.70354
 20
-4.2638
 30
0.0
 10
-1.70354
 20
-4.2638
 30
0.0
 10
-1.63517
 20
-4.28698
 30
0.0
 10
-1.61414
 20
-4.22819
 30
0.0
 10
-1.58612
 20
-4.21977
 30
0.0
 10
-1.58612
 20
-4.21977
 30
0.0
 10
-1.49905
 20
-4.19352
 30
0.0
 10
-1.45859
 20
-4.26179
 30
0.0
 10
-1.40999
 20
-4.27843
 30
0.0
 10
-1.40999
 20
-4.27843
 30
0.0
 10
-1.40999
 20
-4.27843
 30
0.0
 10
-1.39533
 20
-4.2638
 30
0.0
 10
-1.39533
 20
-4.2638
 30
0.0
 10
-1.39533
 20
-4.2638
 30
0.0
 10
-1.24804
 20
-4.2139
 30
0.0
 10
-1.16017
 20
-4.29492
 30
0.0
 10
-1.01364
 20
-4.21977
 30
0.0
 10
-1.01364
 20
-4.21977
 30
0.0
 10
-0.70373
 20
-4.32166
 30
0.0
 10
0.00728
 20
-4.33844
 30
0.0
 10
0.32198
 20
-4.2638
 30
0.0
 10
0.32198
 20
-4.2638
 30
0.0
 10
0.36688
 20
-4.30862
 30
0.0
 10
0.39818
 20
-4.34511
 30
0.0
 10
0.46869
 20
-4.36656
 30
0.0
 10
0.46869
 20
-4.36656
 30
0.0
 10
0.49578
 20
-4.31867
 30
0.0
 10
0.52661
 20
-4.30589
 30
0.0
 10
0.57151
 20
-4.27843
 30
0.0
 10
0.57151
 20
-4.27843
 30
0.0
 10
0.57151
 20
-4.27843
 30
0.0
 10
0.70359
 20
-4.38122
 30
0.0
 10
0.70359
 20
-4.38122
 30
0.0
 10
0.70359
 20
-4.38122
 30
0.0
 10
0.84104
 20
-4.3182
 30
0.0
 10
1.38166
 20
-4.31306
 30
0.0
 10
1.51081
 20
-4.39588
 30
0.0
 10
1.51081
 20
-4.39588
 30
0.0
 10
1.56762
 20
-4.35439
 30
0.0
 10
1.57487
 20
-4.3323
 30
0.0
 10
1.67231
 20
-4.32254
 30
0.0
 10
1.67231
 20
-4.32254
 30
0.0
 10
1.80444
 20
-4.40975
 30
0.0
 10
1.89313
 20
-4.29341
 30
0.0
 10
2.02455
 20
-4.41054
 30
0.0
 10
2.02455
 20
-4.41054
 30
0.0
 10
2.08239
 20
-4.36675
 30
0.0
 10
2.09215
 20
-4.3377
 30
0.0
 10
2.18603
 20
-4.32254
 30
0.0
 10
2.18603
 20
-4.32254
 30
0.0
 10
2.18603
 20
-4.32254
 30
0.0
 10
2.33274
 20
-4.39588
 30
0.0
 10
2.33274
 20
-4.39588
 30
0.0
 10
2.33274
 20
-4.39588
 30
0.0
 10
2.33274
 20
-4.39588
 30
0.0
 10
2.42085
 20
-4.32254
 30
0.0
 10
2.42085
 20
-4.32254
 30
0.0
 10
2.42085
 20
-4.32254
 30
0.0
 10
2.48594
 20
-4.34807
 30
0.0
 10
2.51033
 20
-4.36659
 30
0.0
 10
2.55293
 20
-4.41054
 30
0.0
 10
2.55293
 20
-4.41054
 30
0.0
 10
2.61074
 20
-4.36675
 30
0.0
 10
2.62056
 20
-4.3377
 30
0.0
 10
2.71441
 20
-4.32254
 30
0.0
 10
2.71441
 20
-4.32254
 30
0.0
 10
2.71441
 20
-4.32254
 30
0.0
 10
2.84649
 20
-4.39588
 30
0.0
 10
2.84649
 20
-4.39588
 30
0.0
 10
2.84649
 20
-4.39588
 30
0.0
 10
2.88679
 20
-4.34333
 30
0.0
 10
2.90237
 20
-4.32907
 30
0.0
 10
2.99328
 20
-4.32254
 30
0.0
 10
2.99328
 20
-4.32254
 30
0.0
 10
2.99328
 20
-4.32254
 30
0.0
 10
3.11073
 20
-4.39588
 30
0.0
 10
3.11073
 20
-4.39588
 30
0.0
 10
3.11073
 20
-4.39588
 30
0.0
 10
3.14917
 20
-4.34402
 30
0.0
 10
3.15563
 20
-4.33137
 30
0.0
 10
3.24276
 20
-4.32254
 30
0.0
 10
3.24276
 20
-4.32254
 30
0.0
 10
3.24276
 20
-4.32254
 30
0.0
 10
3.36021
 20
-4.41054
 30
0.0
 10
3.36021
 20
-4.41054
 30
0.0
 10
3.36021
 20
-4.41054
 30
0.0
 10
3.36021
 20
-4.41054
 30
0.0
 10
3.46297
 20
-4.32254
 30
0.0
 10
3.46297
 20
-4.32254
 30
0.0
 10
3.46297
 20
-4.32254
 30
0.0
 10
3.46297
 20
-4.32254
 30
0.0
 10
3.63902
 20
-4.39588
 30
0.0
 10
3.63902
 20
-4.39588
 30
0.0
 10
3.63902
 20
-4.39588
 30
0.0
 10
3.68379
 20
-4.38858
 30
0.0
 10
3.70577
 20
-4.31259
 30
0.0
 10
3.78576
 20
-4.3372
 30
0.0
 10
3.78576
 20
-4.3372
 30
0.0
 10
3.78576
 20
-4.3372
 30
0.0
 10
3.8886
 20
-4.41052
 30
0.0
 10
3.8886
 20
-4.41052
 30
0.0
 10
3.8886
 20
-4.41052
 30
0.0
 10
3.93498
 20
-4.40266
 30
0.0
 10
3.95083
 20
-4.34784
 30
0.0
 10
4.03531
 20
-4.3372
 30
0.0
 10
4.03531
 20
-4.3372
 30
0.0
 10
4.03531
 20
-4.3372
 30
0.0
 10
4.1381
 20
-4.41052
 30
0.0
 10
4.1381
 20
-4.41052
 30
0.0
 10
4.1381
 20
-4.41052
 30
0.0
 10
4.30294
 20
-4.31397
 30
0.0
 10
4.50442
 20
-4.33802
 30
0.0
 10
4.68116
 20
-4.39586
 30
0.0
 10
4.68116
 20
-4.39586
 30
0.0
 10
4.71683
 20
-4.34636
 30
0.0
 10
4.75633
 20
-4.30908
 30
0.0
 10
4.82795
 20
-4.33718
 30
0.0
 10
4.82795
 20
-4.33718
 30
0.0
 10
4.82795
 20
-4.33718
 30
0.0
 10
4.93066
 20
-4.42521
 30
0.0
 10
4.93066
 20
-4.42521
 30
0.0
 10
4.93066
 20
-4.42521
 30
0.0
 10
4.99908
 20
-4.37563
 30
0.0
 10
5.01535
 20
-4.34253
 30
0.0
 10
5.13614
 20
-4.33718
 30
0.0
 10
5.13614
 20
-4.33718
 30
0.0
 10
5.13614
 20
-4.33718
 30
0.0
 10
5.22425
 20
-4.43989
 30
0.0
 10
5.22425
 20
-4.43989
 30
0.0
 10
5.22425
 20
-4.43989
 30
0.0
 10
5.22425
 20
-4.43989
 30
0.0
 10
5.31228
 20
-4.35186
 30
0.0
 10
5.31228
 20
-4.35186
 30
0.0
 10
5.31228
 20
-4.35186
 30
0.0
 10
5.31228
 20
-4.35186
 30
0.0
 10
5.34162
 20
-4.33718
 30
0.0
 10
5.34162
 20
-4.33718
 30
0.0
 10
5.34162
 20
-4.33718
 30
0.0
 10
5.45775
 20
-4.3452
 30
0.0
 10
5.48439
 20
-4.38462
 30
0.0
 10
5.54717
 20
-4.43989
 30
0.0
 10
5.54717
 20
-4.43989
 30
0.0
 10
5.78789
 20
-4.33014
 30
0.0
 10
5.69777
 20
-4.41986
 30
0.0
 10
5.8847
 20
-4.4546
 30
0.0
 10
5.8847
 20
-4.4546
 30
0.0
 10
5.8847
 20
-4.4546
 30
0.0
 10
6.13426
 20
-4.39586
 30
0.0
 10
6.13426
 20
-4.39586
 30
0.0
 10
6.13426
 20
-4.39586
 30
0.0
 10
6.54349
 20
-4.53104
 30
0.0
 10
7.23146
 20
-4.63105
 30
0.0
 10
7.39645
 20
-5.12971
 30
0.0
 10
7.39645
 20
-5.12971
 30
0.0
 10
7.48559
 20
-5.39908
 30
0.0
 10
7.26059
 20
-5.61797
 30
0.0
 10
7.22034
 20
-5.79027
 30
0.0
 10
7.22034
 20
-5.79027
 30
0.0
 10
7.22034
 20
-5.79027
 30
0.0
 10
7.26442
 20
-6.02511
 30
0.0
 10
7.26442
 20
-6.02511
 30
0.0
 10
7.26442
 20
-6.02511
 30
0.0
 10
7.29252
 20
-6.40672
 30
0.0
 10
7.16679
 20
-6.71467
 30
0.0
 10
6.97084
 20
-6.87641
 30
0.0
 10
6.97084
 20
-6.87641
 30
0.0
 10
6.29078
 20
-7.4377
 30
0.0
 10
4.71352
 20
-7.66892
 30
0.0
 10
3.47768
 20
-7.669
 30
0.0
 10
3.47768
 20
-7.669
 30
0.0
 10
3.47768
 20
-7.669
 30
0.0
 10
2.80244
 20
-7.66899
 30
0.0
 10
2.80244
 20
-7.66899
 30
0.0
 10
2.80244
 20
-7.66899
 30
0.0
 10
2.80244
 20
-7.66899
 30
0.0
 10
1.34937
 20
-7.59559
 30
0.0
 10
1.34937
 20
-7.59559
 30
0.0
 10
1.34937
 20
-7.59559
 30
0.0
 10
0.74593
 20
-7.4851
 30
0.0
 10
0.00825
 20
-7.51529
 30
0.0
 10
-0.61738
 20
-7.41948
 30
0.0
 10
-0.61738
 20
-7.41948
 30
0.0
 10
-0.61738
 20
-7.41948
 30
0.0
 10
-1.68884
 20
-7.4048
 30
0.0
 10
-1.68884
 20
-7.4048
 30
0.0
 10
-1.68884
 20
-7.4048
 30
0.0
 10
-1.68884
 20
-7.4048
 30
0.0
 10
-3.25927
 20
-7.39014
 30
0.0
 10
-3.25927
 20
-7.39014
 30
0.0
 10
-3.25927
 20
-7.39014
 30
0.0
 10
-3.25927
 20
-7.39014
 30
0.0
 10
-4.58023
 20
-7.37543
 30
0.0
 10
-4.58023
 20
-7.37543
 30
0.0
 10
-4.58023
 20
-7.37543
 30
0.0
 10
-4.58023
 20
-7.37543
 30
0.0
 10
-6.57635
 20
-7.08182
 30
0.0
 10
-6.57635
 20
-7.08182
 30
0.0
 10
-6.57635
 20
-7.08182
 30
0.0
 10
-6.5759
 20
-7.03835
 30
0.0
 10
-6.57953
 20
-7.05203
 30
0.0
 10
-6.56169
 20
-7.0085
 30
0.0
 10
-6.56169
 20
-7.0085
 30
0.0
 10
-6.1876
 20
-6.91185
 30
0.0
 10
-5.21036
 20
-7.09822
 30
0.0
 10
-4.77107
 20
-7.06718
 30
0.0
 10
-4.77107
 20
-7.06718
 30
0.0
 10
-4.19507
 20
-7.02651
 30
0.0
 10
-3.38666
 20
-7.08184
 30
0.0
 10
-2.70158
 20
-7.08184
 30
0.0
 10
-2.70158
 20
-7.08184
 30
0.0
 10
-1.72447
 20
-7.08189
 30
0.0
 10
-0.72326
 20
-7.03361
 30
0.0
 10
0.14584
 20
-7.16992
 30
0.0
 10
0.14584
 20
-7.16992
 30
0.0
 10
0.14584
 20
-7.16992
 30
0.0
 10
0.8504
 20
-7.19924
 30
0.0
 10
0.8504
 20
-7.19924
 30
0.0
 10
0.8504
 20
-7.19924
 30
0.0
 10
1.47998
 20
-7.29571
 30
0.0
 10
2.50614
 20
-7.43572
 30
0.0
 10
3.184
 20
-7.33135
 30
0.0
 10
3.184
 20
-7.33135
 30
0.0
 10
3.184
 20
-7.33135
 30
0.0
 10
4.19677
 20
-7.31667
 30
0.0
 10
4.19677
 20
-7.31667
 30
0.0
 10
4.19677
 20
-7.31667
 30
0.0
 10
5.02029
 20
-7.18755
 30
0.0
 10
6.30383
 20
-7.10418
 30
0.0
 10
6.75063
 20
-6.6269
 30
0.0
 10
6.75063
 20
-6.6269
 30
0.0
 10
6.67493
 20
-6.61325
 30
0.0
 10
6.65512
 20
-6.59007
 30
0.0
 10
6.58913
 20
-6.53879
 30
0.0
 10
6.58913
 20
-6.53879
 30
0.0
 10
6.53015
 20
-6.59332
 30
0.0
 10
6.52997
 20
-6.62092
 30
0.0
 10
6.41316
 20
-6.6269
 30
0.0
 10
6.41316
 20
-6.6269
 30
0.0
 10
6.41316
 20
-6.6269
 30
0.0
 10
6.31029
 20
-6.55348
 30
0.0
 10
6.31029
 20
-6.55348
 30
0.0
 10
6.31029
 20
-6.55348
 30
0.0
 10
5.95024
 20
-6.66836
 30
0.0
 10
5.43936
 20
-6.57293
 30
0.0
 10
5.0481
 20
-6.64159
 30
0.0
 10
5.0481
 20
-6.64159
 30
0.0
 10
5.0481
 20
-6.64159
 30
0.0
 10
4.84262
 20
-6.58283
 30
0.0
 10
4.84262
 20
-6.58283
 30
0.0
 10
4.84262
 20
-6.58283
 30
0.0
 10
4.49305
 20
-6.64776
 30
0.0
 10
3.8199
 20
-6.66305
 30
0.0
 10
3.49232
 20
-6.58283
 30
0.0
 10
3.49232
 20
-6.58283
 30
0.0
 10
3.49232
 20
-6.58283
 30
0.0
 10
3.34553
 20
-6.65623
 30
0.0
 10
3.34553
 20
-6.65623
 30
0.0
 10
3.34553
 20
-6.65623
 30
0.0
 10
3.34553
 20
-6.65623
 30
0.0
 10
3.1694
 20
-6.6122
 30
0.0
 10
3.1694
 20
-6.6122
 30
0.0
 10
3.1694
 20
-6.6122
 30
0.0
 10
3.00695
 20
-6.65207
 30
0.0
 10
2.533
 20
-6.70898
 30
0.0
 10
2.3915
 20
-6.6122
 30
0.0
 10
2.3915
 20
-6.6122
 30
0.0
 10
2.19362
 20
-6.66615
 30
0.0
 10
2.00981
 20
-6.65771
 30
0.0
 10
1.83371
 20
-6.58283
 30
0.0
 10
1.83371
 20
-6.58283
 30
0.0
 10
1.83371
 20
-6.58283
 30
0.0
 10
1.80439
 20
-6.59749
 30
0.0
 10
1.80439
 20
-6.59749
 30
0.0
 10
1.80439
 20
-6.59749
 30
0.0
 10
1.69303
 20
-6.62114
 30
0.0
 10
1.61132
 20
-6.5704
 30
0.0
 10
1.54028
 20
-6.58283
 30
0.0
 10
1.54028
 20
-6.58283
 30
0.0
 10
1.50586
 20
-6.58889
 30
0.0
 10
1.47109
 20
-6.6562
 30
0.0
 10
1.39349
 20
-6.64159
 30
0.0
 10
1.39349
 20
-6.64159
 30
0.0
 10
1.39349
 20
-6.64159
 30
0.0
 10
1.30538
 20
-6.56817
 30
0.0
 10
1.30538
 20
-6.56817
 30
0.0
 10
1.30538
 20
-6.56817
 30
0.0
 10
1.26172
 20
-6.55843
 30
0.0
 10
0.90292
 20
-6.6639
 30
0.0
 10
0.82098
 20
-6.64159
 30
0.0
 10
0.82098
 20
-6.64159
 30
0.0
 10
0.48374
 20
-6.54946
 30
0.0
 10
-0.16266
 20
-6.59688
 30
0.0
 10
-0.47058
 20
-6.64159
 30
0.0
 10
-0.47058
 20
-6.64159
 30
0.0
 10
-0.47058
 20
-6.64159
 30
0.0
 10
-0.64669
 20
-6.56817
 30
0.0
 10
-0.64669
 20
-6.56817
 30
0.0
 10
-0.64669
 20
-6.56817
 30
0.0
 10
-0.64669
 20
-6.56817
 30
0.0
 10
-0.73477
 20
-6.64159
 30
0.0
 10
-0.73477
 20
-6.64159
 30
0.0
 10
-0.73477
 20
-6.64159
 30
0.0
 10
-0.73477
 20
-6.64159
 30
0.0
 10
-0.94027
 20
-6.61222
 30
0.0
 10
-0.94027
 20
-6.61222
 30
0.0
 10
-0.94027
 20
-6.61222
 30
0.0
 10
-1.24322
 20
-6.67514
 30
0.0
 10
-1.61414
 20
-6.55361
 30
0.0
 10
-1.86491
 20
-6.68559
 30
0.0
 10
-1.86491
 20
-6.68559
 30
0.0
 10
-1.86491
 20
-6.68559
 30
0.0
 10
-2.01167
 20
-6.59748
 30
0.0
 10
-2.01167
 20
-6.59748
 30
0.0
 10
-2.01167
 20
-6.59748
 30
0.0
 10
-2.19714
 20
-6.66987
 30
0.0
 10
-2.40349
 20
-6.65376
 30
0.0
 10
-2.61346
 20
-6.59748
 30
0.0
 10
-2.61346
 20
-6.59748
 30
0.0
 10
-2.61346
 20
-6.59748
 30
0.0
 10
-2.73088
 20
-6.68559
 30
0.0
 10
-2.73088
 20
-6.68559
 30
0.0
 10
-2.73088
 20
-6.68559
 30
0.0
 10
-2.87434
 20
-6.60534
 30
0.0
 10
-2.86328
 20
-6.64969
 30
0.0
 10
-3.03907
 20
-6.67091
 30
0.0
 10
-3.03907
 20
-6.67091
 30
0.0
 10
-3.03907
 20
-6.67091
 30
0.0
 10
-3.14181
 20
-6.58283
 30
0.0
 10
-3.14181
 20
-6.58283
 30
0.0
 10
-3.14181
 20
-6.58283
 30
0.0
 10
-3.14181
 20
-6.58283
 30
0.0
 10
-3.25923
 20
-6.68559
 30
0.0
 10
-3.25923
 20
-6.68559
 30
0.0
 10
-3.25923
 20
-6.68559
 30
0.0
 10
-3.43306
 20
-6.66389
 30
0.0
 10
-3.41219
 20
-6.57671
 30
0.0
 10
-3.46476
 20
-6.43601
 30
0.0
 10
-3.46476
 20
-6.43601
 30
0.0
 10
-3.46476
 20
-6.43601
 30
0.0
 10
-3.47946
 20
-6.436
 30
0.0
 10
-3.47946
 20
-6.436
 30
0.0
 10
-3.47946
 20
-6.436
 30
0.0
 10
-3.47266
 20
-6.58425
 30
0.0
 10
-3.50002
 20
-6.64272
 30
0.0
 10
-3.59688
 20
-6.68558
 30
0.0
 10
-3.59688
 20
-6.68558
 30
0.0
 10
-3.59688
 20
-6.68558
 30
0.0
 10
-3.68493
 20
-6.68558
 30
0.0
 10
-3.68493
 20
-6.68558
 30
0.0
 10
-3.68493
 20
-6.68558
 30
0.0
 10
-3.75094
 20
-6.65441
 30
0.0
 10
-3.7764
 20
-6.60822
 30
0.0
 10
-3.80238
 20
-6.53879
 30
0.0
 10
-3.80238
 20
-6.53879
 30
0.0
 10
-3.80238
 20
-6.53879
 30
0.0
 10
-3.8317
 20
-6.53879
 30
0.0
 10
-3.8317
 20
-6.53879
 30
0.0
 10
-3.8317
 20
-6.53879
 30
0.0
 10
-3.87456
 20
-6.67251
 30
0.0
 10
-3.99759
 20
-6.72675
 30
0.0
 10
-4.16928
 20
-6.68558
 30
0.0
 10
-4.16928
 20
-6.68558
 30
0.0
 10
-4.16928
 20
-6.68558
 30
0.0
 10
-4.27202
 20
-6.56816
 30
0.0
 10
-4.27202
 20
-6.56816
 30
0.0
 10
-4.27202
 20
-6.56816
 30
0.0
 10
-4.67112
 20
-6.72022
 30
0.0
 10
-5.19401
 20
-6.04275
 30
0.0
 10
-5.04992
 20
-5.58476
 30
0.0
 10
-5.04992
 20
-5.58476
 30
0.0
 10
-5.03397
 20
-5.53417
 30
0.0
 10
-4.66879
 20
-5.13052
 30
0.0
 10
-4.62423
 20
-5.11507
 30
0.0
 10
-4.62423
 20
-5.11507
 30
0.0
 10
-4.4981
 20
-5.07136
 30
0.0
 10
-4.40759
 20
-5.12674
 30
0.0
 10
-4.3307
 20
-5.08578
 30
0.0
 10
-4.3307
 20
-5.08578
 30
0.0
 10
-4.30974
 20
-4.99355
 30
0.0
 10
-4.27051
 20
-4.97624
 30
0.0
 10
-4.19859
 20
-4.93896
 30
0.0
 10
-4.19859
 20
-4.93896
 30
0.0
 10
-4.0273
 20
-4.96989
 30
0.0
 10
-4.01796
 20
-5.0798
 30
0.0
 10
-3.89043
 20
-5.12972
 30
0.0
 10
-3.89043
 20
-5.12972
 30
0.0
 10
-4.07588
 20
-4.6672
 30
0.0
 10
-4.87087
 20
-4.65993
 30
0.0
 10
-5.35813
 20
-4.48398
 30
0.0
 10
-5.35813
 20
-4.48398
 30
0.0
 10
-5.74783
 20
-4.3432
 30
0.0
 10
-6.18485
 20
-4.20196
 30
0.0
 10
-6.4589
 20
-3.9409
 30
0.0
 10
-6.4589
 20
-3.9409
 30
0.0
 10
-6.4589
 20
-3.9409
 30
0.0
 10
-6.75246
 20
-3.57392
 30
0.0
 10
-6.75246
 20
-3.57392
 30
0.0
 10
-6.75246
 20
-3.57392
 30
0.0
 10
-6.94174
 20
-3.40914
 30
0.0
 10
-7.62503
 20
-3.23687
 30
0.0
 10
-7.35425
 20
-2.72262
 30
0.0
 10
-7.35425
 20
-2.72262
 30
0.0
 10
-6.59326
 20
-1.27781
 30
0.0
 10
-3.21318
 20
-2.74887
 30
0.0
 10
-2.46668
 20
-1.43106
 30
0.0
 10
-2.46668
 20
-1.43106
 30
0.0
 10
-2.51232
 20
-1.18415
 30
0.0
 10
-2.70089
 20
-0.91372
 30
0.0
 10
-2.77487
 20
-0.63845
 30
0.0
 10
-2.77487
 20
-0.63845
 30
0.0
 10
-2.87247
 20
-0.27568
 30
0.0
 10
-2.7572
 20
0.28172
 30
0.0
 10
-2.71619
 20
0.5064
 30
0.0
 10
-2.71619
 20
0.5064
 30
0.0
 10
-2.69685
 20
0.61258
 30
0.0
 10
-2.80287
 20
0.62803
 30
0.0
 10
-2.76024
 20
0.77059
 30
0.0
 10
-2.76024
 20
0.77059
 30
0.0
 10
-2.62073
 20
1.23668
 30
0.0
 10
-2.32145
 20
1.76839
 30
0.0
 10
-2.02639
 20
2.10623
 30
0.0
 10
-2.02639
 20
2.10623
 30
0.0
 10
-1.87142
 20
2.28363
 30
0.0
 10
-1.45656
 20
2.50588
 30
0.0
 10
-1.36591
 20
2.69331
 30
0.0
 10
-1.36591
 20
2.69331
 30
0.0
 10
-1.40851
 20
2.87354
 30
0.0
 10
-1.25725
 20
2.97676
 30
0.0
 10
-1.32183
 20
3.14834
 30
0.0
 10
-1.32183
 20
3.14834
 30
0.0
 10
-1.41266
 20
3.26486
 30
0.0
 10
-1.52974
 20
3.24677
 30
0.0
 10
-1.54196
 20
3.45658
 30
0.0
 10
-1.54196
 20
3.45658
 30
0.0
 10
-1.50812
 20
3.53085
 30
0.0
 10
-1.48457
 20
3.55752
 30
0.0
 10
-1.42459
 20
3.60332
 30
0.0
 10
-1.42459
 20
3.60332
 30
0.0
 10
-1.70468
 20
4.29015
 30
0.0
 10
-1.45134
 20
4.26269
 30
0.0
 10
-1.16038
 20
4.70412
 30
0.0
 10
-1.16038
 20
4.70412
 30
0.0
 10
-1.16038
 20
4.70412
 30
0.0
 10
-1.0723
 20
4.66007
 30
0.0
 10
-1.0723
 20
4.66007
 30
0.0
 10
-1.0723
 20
4.66007
 30
0.0
 10
-1.0723
 20
4.66007
 30
0.0
 10
-0.92556
 20
4.77752
 30
0.0
 10
-0.92556
 20
4.77752
 30
0.0
 10
-0.92556
 20
4.77752
 30
0.0
 10
-1.01769
 20
5.14407
 30
0.0
 10
-0.80102
 20
5.62546
 30
0.0
 10
-0.64666
 20
5.89303
 30
0.0
 10
-0.64666
 20
5.89303
 30
0.0
 10
-0.55083
 20
6.05914
 30
0.0
 10
-0.44986
 20
6.25673
 30
0.0
 10
-0.30908
 20
6.37738
 30
0.0
 10
-0.30908
 20
6.37738
 30
0.0
 10
-0.24225
 20
6.43461
 30
0.0
 10
-0.12429
 20
6.39688
 30
0.0
 10
-0.04489
 20
6.45075
 30
0.0
 10
-0.04489
 20
6.45075
 30
0.0
 10
0.50906
 20
6.82661
 30
0.0
 10
0.97745
 20
7.3145
 30
0.0
 10
1.70151
 20
7.53696
 30
0.0
 10
1.70151
 20
7.53696
 30
0.0
 10
1.70151
 20
7.53696
 30
0.0
 10
2.28859
 20
7.65438
 30
0.0
 10
2.28859
 20
7.65438
 30
0.0
 10
2.28859
 20
7.65438
 30
0.0
 10
2.28859
 20
7.65438
 30
0.0
 10
2.74365
 20
7.66904
 30
0.0
 10
2.74365
 20
7.66904
 30
0.0
  0
SPLINE
  5
42
330
1F
100
AcDbEntity
  8
Camada 1
100
AcDbSpline
210
0.0
220
0.0
230
1.0
 70
    11
 71
     3
 72
    76
 73
    72
 74
     0
 42
0.0000000001
 43
0.0000000001
 12
1.0
 22
0.0
 32
0.0
 13
1.0
 23
0.0
 33
0.0
 40
0.0
 40
0.0
 40
0.0
 40
0.0
 40
0.0526315789473684
 40
0.0526315789473684
 40
0.0526315789473684
 40
0.0526315789473684
 40
0.1052631578947368
 40
0.1052631578947368
 40
0.1052631578947368
 40
0.1052631578947368
 40
0.1578947368421053
 40
0.1578947368421053
 40
0.1578947368421053
 40
0.1578947368421053
 40
0.2105263157894737
 40
0.2105263157894737
 40
0.2105263157894737
 40
0.2105263157894737
 40
0.2631578947368421
 40
0.2631578947368421
 40
0.2631578947368421
 40
0.2631578947368421
 40
0.3157894736842105
 40
0.3157894736842105
 40
0.3157894736842105
 40
0.3157894736842105
 40
0.3684210526315789
 40
0.3684210526315789
 40
0.3684210526315789
 40
0.3684210526315789
 40
0.4210526315789473
 40
0.4210526315789473
 40
0.4210526315789473
 40
0.4210526315789473
 40
0.4736842105263158
 40
0.4736842105263158
 40
0.4736842105263158
 40
0.4736842105263158
 40
0.5263157894736842
 40
0.5263157894736842
 40
0.5263157894736842
 40
0.5263157894736842
 40
0.5789473684210527
 40
0.5789473684210527
 40
0.5789473684210527
 40
0.5789473684210527
 40
0.631578947368421
 40
0.631578947368421
 40
0.631578947368421
 40
0.631578947368421
 40
0.6842105263157895
 40
0.6842105263157895
 40
0.6842105263157895
 40
0.6842105263157895
 40
0.7368421052631579
 40
0.7368421052631579
 40
0.7368421052631579
 40
0.7368421052631579
 40
0.7894736842105263
 40
0.7894736842105263
 40
0.7894736842105263
 40
0.7894736842105263
 40
0.8421052631578947
 40
0.8421052631578947
 40
0.8421052631578947
 40
0.8421052631578947
 40
0.8947368421052632
 40
0.8947368421052632
 40
0.8947368421052632
 40
0.8947368421052632
 40
1.0
 40
1.0
 40
1.0
 40
1.0
 10
3.41876
 20
6.43611
 30
0.0
 10
3.41876
 20
6.43611
 30
0.0
 10
2.72896
 20
6.26
 30
0.0
 10
2.72896
 20
6.26
 30
0.0
 10
2.72896
 20
6.26
 30
0.0
 10
2.31679
 20
6.06236
 30
0.0
 10
1.95654
 20
5.84701
 30
0.0
 10
1.6134
 20
5.58484
 30
0.0
 10
1.6134
 20
5.58484
 30
0.0
 10
1.50571
 20
5.5025
 30
0.0
 10
1.44931
 20
5.36793
 30
0.0
 10
1.3639
 20
5.26189
 30
0.0
 10
1.3639
 20
5.26189
 30
0.0
 10
1.11315
 20
4.95034
 30
0.0
 10
0.53485
 20
4.45195
 30
0.0
 10
0.14571
 20
4.29317
 30
0.0
 10
0.14571
 20
4.29317
 30
0.0
 10
0.15177
 20
3.90071
 30
0.0
 10
0.01728
 20
3.80451
 30
0.0
 10
-0.08911
 20
3.57395
 30
0.0
 10
-0.08911
 20
3.57395
 30
0.0
 10
-0.15055
 20
3.44081
 30
0.0
 10
-0.25868
 20
2.8332
 30
0.0
 10
-0.27993
 20
2.69331
 30
0.0
 10
-0.27993
 20
2.69331
 30
0.0
 10
-0.27993
 20
2.69331
 30
0.0
 10
-0.25056
 20
2.66397
 30
0.0
 10
-0.25056
 20
2.66397
 30
0.0
 10
-0.25056
 20
2.66397
 30
0.0
 10
0.32459
 20
2.55814
 30
0.0
 10
1.02209
 20
1.9434
 30
0.0
 10
1.17314
 20
1.43112
 30
0.0
 10
1.17314
 20
1.43112
 30
0.0
 10
1.26357
 20
1.12449
 30
0.0
 10
1.26191
 20
0.70997
 30
0.0
 10
1.24646
 20
0.3449
 30
0.0
 10
1.24646
 20
0.3449
 30
0.0
 10
2.40235
 20
0.55993
 30
0.0
 10
2.66918
 20
0.31077
 30
0.0
 10
3.33064
 20
-0.25684
 30
0.0
 10
3.33064
 20
-0.25684
 30
0.0
 10
3.6928
 20
-0.1059
 30
0.0
 10
3.81065
 20
0.22864
 30
0.0
 10
4.07925
 20
0.46235
 30
0.0
 10
4.07925
 20
0.46235
 30
0.0
 10
4.07925
 20
0.46235
 30
0.0
 10
4.4902
 20
0.69717
 30
0.0
 10
4.4902
 20
0.69717
 30
0.0
 10
4.4902
 20
0.69717
 30
0.0
 10
4.31936
 20
0.9149
 30
0.0
 10
4.48284
 20
1.85292
 30
0.0
 10
4.57831
 20
2.17963
 30
0.0
 10
4.57831
 20
2.17963
 30
0.0
 10
4.57831
 20
2.17963
 30
0.0
 10
4.71034
 20
2.67863
 30
0.0
 10
4.71034
 20
2.67863
 30
0.0
 10
4.71034
 20
2.67863
 30
0.0
 10
4.71034
 20
2.67863
 30
0.0
 10
4.79845
 20
2.72268
 30
0.0
 10
4.79845
 20
2.72268
 30
0.0
 10
4.79845
 20
2.72268
 30
0.0
 10
4.89608
 20
2.90463
 30
0.0
 10
4.87177
 20
3.69875
 30
0.0
 10
4.87177
 20
3.99967
 30
0.0
 10
4.87177
 20
3.99967
 30
0.0
 10
4.87203
 20
4.9114
 30
0.0
 10
4.57054
 20
6.11033
 30
0.0
 10
3.99118
 20
6.39209
 30
0.0
 10
3.99118
 20
6.39209
 30
0.0
 10
3.99118
 20
6.39209
 30
0.0
 10
3.41876
 20
6.43611
 30
0.0
 10
3.41876
 20
6.43611
 30
0.0
  0
SPLINE
  5
43
330
1F
100
AcDbEntity
  8
Camada 1
100
AcDbSpline
210
0.0
220
0.0
230
1.0
 70
    27
 71
     3
 72
    12
 73
     8
 74
     0
 42
0.0000000001
 43
0.0000000001
 12
1.0
 22
0.0
 32
0.0
 13
1.0
 23
0.0
 33
0.0
 40
0.0
 40
0.0
 40
0.0
 40
0.0
 40
0.3333333333333333
 40
0.3333333333333333
 40
0.3333333333333333
 40
0.3333333333333333
 40
1.0
 40
1.0
 40
1.0
 40
1.0
 10
-2.77503
 20
0.46235
 30
0.0
 10
-2.77503
 20
0.46235
 30
0.0
 10
-2.78977
 20
0.49169
 30
0.0
 10
-2.78977
 20
0.49169
 30
0.0
 10
-2.78977
 20
0.49169
 30
0.0
 10
-2.78977
 20
0.49169
 30
0.0
 10
-2.77503
 20
0.46235
 30
0.0
 10
-2.77503
 20
0.46235
 30
0.0
  0
ENDSEC
  0
SECTION
  2
OBJECTS
  0
DICTIONARY
  5
C
330
0
100
AcDbDictionary
281
     1
  3
ACAD_GROUP
350
D
  3
ACAD_LAYOUT
350
1A
  3
ACAD_MATERIAL
350
3B
  3
ACAD_MLEADERSTYLE
350
65
  3
ACAD_MLINESTYLE
350
17
  3
ACAD_PLOTSETTINGS
350
19
  3
ACAD_PLOTSTYLENAME
350
E
  3
ACAD_TABLESTYLE
350
64
  3
ACAD_VISUALSTYLE
350
2A
  0
DICTIONARY
  5
D
102
{ACAD_REACTORS
330
C
102
}
330
C
100
AcDbDictionary
281
     1
  0
DICTIONARY
  5
1A
102
{ACAD_REACTORS
330
C
102
}
330
C
100
AcDbDictionary
281
     1
  3
Layout1
350
1E
  3
Layout2
350
26
  3
Model
350
22
  0
DICTIONARY
  5
3B
102
{ACAD_REACTORS
330
C
102
}
330
C
100
AcDbDictionary
281
     1
  3
ByBlock
350
3D
  3
ByLayer
350
3C
  3
Global
350
3E
  0
DICTIONARY
  5
65
102
{ACAD_REACTORS
330
C
102
}
330
C
100
AcDbDictionary
281
     1
  0
DICTIONARY
  5
17
102
{ACAD_REACTORS
330
C
102
}
330
C
100
AcDbDictionary
281
     1
  3
Standard
350
18
  0
DICTIONARY
  5
19
102
{ACAD_REACTORS
330
C
102
}
330
C
100
AcDbDictionary
281
     1
  0
ACDBDICTIONARYWDFLT
  5
E
102
{ACAD_REACTORS
330
C
102
}
330
C
100
AcDbDictionary
281
     1
  3
Normal
350
F
100
AcDbDictionaryWithDefault
340
F
  0
DICTIONARY
  5
64
102
{ACAD_REACTORS
330
C
102
}
330
C
100
AcDbDictionary
281
     1
  0
DICTIONARY
  5
2A
102
{ACAD_REACTORS
330
C
102
}
330
C
100
AcDbDictionary
281
     1
  3
2dWireframe
350
2F
  3
3D Hidden
350
31
  3
3dWireframe
350
30
  3
Basic
350
32
  3
Brighten
350
36
  3
ColorChange
350
3A
  3
Conceptual
350
34
  3
Dim
350
35
  3
Facepattern
350
39
  3
Flat
350
2B
  3
FlatWithEdges
350
2C
  3
Gouraud
350
2D
  3
GouraudWithEdges
350
2E
  3
Linepattern
350
38
  3
Realistic
350
33
  3
Thicken
350
37
  0
LAYOUT
  5
1E
102
{ACAD_REACTORS
330
1A
102
}
330
1A
100
AcDbPlotSettings
  1

  2
none_device
  4

  6

 40
0.0
 41
0.0
 42
0.0
 43
0.0
 44
0.0
 45
0.0
 46
0.0
 47
0.0
 48
0.0
 49
0.0
140
0.0
141
0.0
142
1.0
143
1.0
 70
   688
 72
     0
 73
     0
 74
     5
  7

 75
    16
 76
     0
 77
     2
 78
   300
147
1.0
148
0.0
149
0.0
100
AcDbLayout
  1
Layout1
 70
     1
 71
     1
 10
0.0
 20
0.0
 11
12.0
 21
9.0
 12
0.0
 22
0.0
 32
0.0
 14
1.000000000000000E+20
 24
1.000000000000000E+20
 34
1.000000000000000E+20
 15
-1.000000000000000E+20
 25
-1.000000000000000E+20
 35
-1.000000000000000E+20
146
0.0
 13
0.0
 23
0.0
 33
0.0
 16
1.0
 26
0.0
 36
0.0
 17
0.0
 27
1.0
 37
0.0
 76
     0
330
1B
  0
LAYOUT
  5
26
102
{ACAD_REACTORS
330
1A
102
}
330
1A
100
AcDbPlotSettings
  1

  2
none_device
  4

  6

 40
0.0
 41
0.0
 42
0.0
 43
0.0
 44
0.0
 45
0.0
 46
0.0
 47
0.0
 48
0.0
 49
0.0
140
0.0
141
0.0
142
1.0
143
1.0
 70
   688
 72
     0
 73
     0
 74
     5
  7

 75
    16
 76
     0
 77
     2
 78
   300
147
1.0
148
0.0
149
0.0
100
AcDbLayout
  1
Layout2
 70
     1
 71
     2
 10
0.0
 20
0.0
 11
0.0
 21
0.0
 12
0.0
 22
0.0
 32
0.0
 14
0.0
 24
0.0
 34
0.0
 15
0.0
 25
0.0
 35
0.0
146
0.0
 13
0.0
 23
0.0
 33
0.0
 16
1.0
 26
0.0
 36
0.0
 17
0.0
 27
1.0
 37
0.0
 76
     0
330
23
  0
LAYOUT
  5
22
102
{ACAD_REACTORS
330
1A
102
}
330
1A
100
AcDbPlotSettings
  1

  2
none_device
  4

  6

 40
0.0
 41
0.0
 42
0.0
 43
0.0
 44
0.0
 45
0.0
 46
0.0
 47
0.0
 48
0.0
 49
0.0
140
0.0
141
0.0
142
1.0
143
1.0
 70
  1712
 72
     0
 73
     0
 74
     0
  7

 75
     0
 76
     0
 77
     2
 78
   300
147
1.0
148
0.0
149
0.0
100
AcDbLayout
  1
Model
 70
     1
 71
     0
 10
0.0
 20
0.0
 11
12.0
 21
9.0
 12
0.0
 22
0.0
 32
0.0
 14
-7.41689
 24
-7.669
 34
0.0
 15
7.41717
 25
7.66904
 35
0.0
146
0.0
 13
0.0
 23
0.0
 33
0.0
 16
1.0
 26
0.0
 36
0.0
 17
0.0
 27
1.0
 37
0.0
 76
     0
330
1F
331
29
  0
MATERIAL
  5
3D
102
{ACAD_REACTORS
330
3B
102
}
330
3B
100
AcDbMaterial
  1
ByBlock
 72
     1
 94
      127
  0
MATERIAL
  5
3C
102
{ACAD_REACTORS
330
3B
102
}
330
3B
100
AcDbMaterial
  1
ByLayer
 72
     1
 94
      127
  0
MATERIAL
  5
3E
102
{ACAD_REACTORS
330
3B
102
}
330
3B
100
AcDbMaterial
  1
Global
 72
     1
 94
      127
  0
MLINESTYLE
  5
18
102
{ACAD_REACTORS
330
17
102
}
330
17
100
AcDbMlineStyle
  2
Standard
 70
     0
  3

 62
   256
 51
90.0
 52
90.0
 71
     2
 49
0.5
 62
   256
  6
BYLAYER
 49
-0.5
 62
   256
  6
BYLAYER
  0
ACDBPLACEHOLDER
  5
F
102
{ACAD_REACTORS
330
E
102
}
330
E
  0
VISUALSTYLE
  5
2F
102
{ACAD_REACTORS
330
2A
102
}
102
{ACAD_XDICTIONARY
360
4C
102
}
330
2A
100
AcDbVisualStyle
  2
2dWireframe
 70
     4
 71
     0
 72
     2
 73
     0
 90
        0
 40
-0.6
 41
-30.0
 62
     5
 63
     7
421
 16777215
 74
     1
 91
        4
 64
     7
 65
   257
 75
     1
175
     1
 42
1.0
 92
        0
 66
   257
 43
1.0
 76
     1
 77
     6
 78
     2
 67
     7
 79
     5
170
     0
171
     0
290
     0
174
     0
 93
        1
 44
0.0
173
     0
291
     0
 45
0.0
  0
VISUALSTYLE
  5
31
102
{ACAD_REACTORS
330
2A
102
}
102
{ACAD_XDICTIONARY
360
50
102
}
330
2A
100
AcDbVisualStyle
  2
3D Hidden
 70
     6
 71
     1
 72
     2
 73
     2
 90
        0
 40
-0.6
 41
-30.0
 62
     5
 63
     7
421
 16777215
 74
     2
 91
        2
 64
     7
 65
   257
 75
     2
175
     1
 42
40.0
 92
        0
 66
   257
 43
1.0
 76
     1
 77
     6
 78
     2
 67
     7
 79
     3
170
     0
171
     0
290
     0
174
     0
 93
        1
 44
0.0
173
     0
291
     0
 45
0.0
  0
VISUALSTYLE
  5
30
102
{ACAD_REACTORS
330
2A
102
}
102
{ACAD_XDICTIONARY
360
4E
102
}
330
2A
100
AcDbVisualStyle
  2
3dWireframe
 70
     5
 71
     0
 72
     2
 73
     0
 90
        0
 40
-0.6
 41
-30.0
 62
     5
 63
     7
421
 16777215
 74
     1
 91
        4
 64
     7
 65
   257
 75
     1
175
     1
 42
1.0
 92
        0
 66
   257
 43
1.0
 76
     1
 77
     6
 78
     2
 67
     7
 79
     5
170
     0
171
     0
290
     0
174
     0
 93
        1
 44
0.0
173
     0
291
     0
 45
0.0
  0
VISUALSTYLE
  5
32
102
{ACAD_REACTORS
330
2A
102
}
102
{ACAD_XDICTIONARY
360
52
102
}
330
2A
100
AcDbVisualStyle
  2
Basic
 70
     7
 71
     1
 72
     0
 73
     1
 90
        0
 40
-0.6
 41
-30.0
 62
     5
 63
     7
421
 16777215
 74
     0
 91
        4
 64
     7
 65
   257
 75
     1
175
     1
 42
1.0
 92
        8
 66
     7
 43
1.0
 76
     1
 77
     6
 78
     2
 67
     7
 79
     5
170
     0
171
     0
290
     0
174
     0
 93
        1
 44
0.0
173
     0
291
     1
 45
0.0
  0
VISUALSTYLE
  5
36
102
{ACAD_REACTORS
330
2A
102
}
102
{ACAD_XDICTIONARY
360
5A
102
}
330
2A
100
AcDbVisualStyle
  2
Brighten
 70
    12
 71
     2
 72
     2
 73
     0
 90
        0
 40
-0.6
 41
-30.0
 62
     5
 63
     7
421
 16777215
 74
     1
 91
        4
 64
     7
 65
   257
 75
     1
175
     1
 42
1.0
 92
        8
 66
     7
 43
1.0
 76
     1
 77
     6
 78
     2
 67
     7
 79
     5
170
     0
171
     0
290
     0
174
     0
 93
        1
 44
50.0
173
     0
291
     1
 45
0.0
  0
VISUALSTYLE
  5
3A
102
{ACAD_REACTORS
330
2A
102
}
102
{ACAD_XDICTIONARY
360
62
102
}
330
2A
100
AcDbVisualStyle
  2
ColorChange
 70
    16
 71
     2
 72
     2
 73
     3
 90
        0
 40
-0.6
 41
-30.0
 62
     5
 63
     8
421
  8421504
 74
     1
 91
        4
 64
     7
 65
   257
 75
     1
175
     1
 42
1.0
 92
        8
 66
     8
424
  8421504
 43
1.0
 76
     1
 77
     6
 78
     2
 67
     7
 79
     5
170
     0
171
     0
290
     0
174
     0
 93
        1
 44
0.0
173
     0
291
     1
 45
0.0
  0
VISUALSTYLE
  5
34
102
{ACAD_REACTORS
330
2A
102
}
102
{ACAD_XDICTIONARY
360
56
102
}
330
2A
100
AcDbVisualStyle
  2
Conceptual
 70
     9
 71
     3
 72
     2
 73
     0
 90
        0
 40
-0.6
 41
-30.0
 62
     5
 63
     7
421
 16777215
 74
     2
 91
        2
 64
     7
 65
   257
 75
     1
175
     1
 42
40.0
 92
        8
 66
     7
 43
1.0
 76
     1
 77
     6
 78
     2
 67
     7
 79
     3
170
     0
171
     0
290
     0
174
     0
 93
        1
 44
0.0
173
     0
291
     0
 45
0.0
  0
VISUALSTYLE
  5
35
102
{ACAD_REACTORS
330
2A
102
}
102
{ACAD_XDICTIONARY
360
58
102
}
330
2A
100
AcDbVisualStyle
  2
Dim
 70
    11
 71
     2
 72
     2
 73
     0
 90
        0
 40
-0.6
 41
-30.0
 62
     5
 63
     7
421
 16777215
 74
     1
 91
        4
 64
     7
 65
   257
 75
     1
175
     1
 42
1.0
 92
        8
 66
     7
 43
1.0
 76
     1
 77
     6
 78
     2
 67
     7
 79
     5
170
     0
171
     0
290
     0
174
     0
 93
        1
 44
-50.0
173
     0
291
     1
 45
0.0
  0
VISUALSTYLE
  5
39
102
{ACAD_REACTORS
330
2A
102
}
102
{ACAD_XDICTIONARY
360
60
102
}
330
2A
100
AcDbVisualStyle
  2
Facepattern
 70
    15
 71
     2
 72
     2
 73
     0
 90
        0
 40
-0.6
 41
-30.0
 62
     5
 63
     7
421
 16777215
 74
     1
 91
        4
 64
     7
 65
   257
 75
     1
175
     1
 42
1.0
 92
        8
 66
     7
 43
1.0
 76
     1
 77
     6
 78
     2
 67
     7
 79
     5
170
     0
171
     0
290
     0
174
     0
 93
        1
 44
0.0
173
     0
291
     1
 45
0.0
  0
VISUALSTYLE
  5
2B
102
{ACAD_REACTORS
330
2A
102
}
102
{ACAD_XDICTIONARY
360
44
102
}
330
2A
100
AcDbVisualStyle
  2
Flat
 70
     0
 71
     2
 72
     1
 73
     1
 90
        2
 40
-0.6
 41
30.0
 62
     5
 63
     7
421
 16777215
 74
     0
 91
        4
 64
     7
 65
   257
 75
     1
175
     1
 42
1.0
 92
        8
 66
     7
 43
1.0
 76
     1
 77
     6
 78
     2
 67
     7
 79
     5
170
     0
171
     0
290
     0
174
     0
 93
       13
 44
0.0
173
     0
291
     1
 45
0.0
  0
VISUALSTYLE
  5
2C
102
{ACAD_REACTORS
330
2A
102
}
102
{ACAD_XDICTIONARY
360
46
102
}
330
2A
100
AcDbVisualStyle
  2
FlatWithEdges
 70
     1
 71
     2
 72
     1
 73
     1
 90
        2
 40
-0.6
 41
30.0
 62
     5
 63
     7
421
 16777215
 74
     1
 91
        4
 64
     7
 65
   257
 75
     1
175
     1
 42
1.0
 92
        0
 66
   257
 43
1.0
 76
     1
 77
     6
 78
     2
 67
     7
 79
     5
170
     0
171
     0
290
     0
174
     0
 93
       13
 44
0.0
173
     0
291
     1
 45
0.0
  0
VISUALSTYLE
  5
2D
102
{ACAD_REACTORS
330
2A
102
}
102
{ACAD_XDICTIONARY
360
48
102
}
330
2A
100
AcDbVisualStyle
  2
Gouraud
 70
     2
 71
     2
 72
     2
 73
     1
 90
        2
 40
-0.6
 41
30.0
 62
     5
 63
     7
421
 16777215
 74
     0
 91
        4
 64
     7
 65
   257
 75
     1
175
     1
 42
1.0
 92
        0
 66
     7
 43
1.0
 76
     1
 77
     6
 78
     2
 67
     7
 79
     5
170
     0
171
     0
290
     0
174
     0
 93
       13
 44
0.0
173
     0
291
     1
 45
0.0
  0
VISUALSTYLE
  5
2E
102
{ACAD_REACTORS
330
2A
102
}
102
{ACAD_XDICTIONARY
360
4A
102
}
330
2A
100
AcDbVisualStyle
  2
GouraudWithEdges
 70
     3
 71
     2
 72
     2
 73
     1
 90
        2
 40
-0.6
 41
30.0
 62
     5
 63
     7
421
 16777215
 74
     1
 91
        4
 64
     7
 65
   257
 75
     1
175
     1
 42
1.0
 92
        0
 66
   257
 43
1.0
 76
     1
 77
     6
 78
     2
 67
     7
 79
     5
170
     0
171
     0
290
     0
174
     0
 93
       13
 44
0.0
173
     0
291
     1
 45
0.0
  0
VISUALSTYLE
  5
38
102
{ACAD_REACTORS
330
2A
102
}
102
{ACAD_XDICTIONARY
360
5E
102
}
330
2A
100
AcDbVisualStyle
  2
Linepattern
 70
    14
 71
     2
 72
     2
 73
     0
 90
        0
 40
-0.6
 41
-30.0
 62
     5
 63
     7
421
 16777215
 74
     1
 91
        4
 64
     7
 65
   257
 75
     7
175
     7
 42
1.0
 92
        8
 66
     7
 43
1.0
 76
     1
 77
     6
 78
     2
 67
     7
 79
     5
170
     0
171
     0
290
     0
174
     0
 93
        1
 44
0.0
173
     0
291
     1
 45
0.0
  0
VISUALSTYLE
  5
33
102
{ACAD_REACTORS
330
2A
102
}
102
{ACAD_XDICTIONARY
360
54
102
}
330
2A
100
AcDbVisualStyle
  2
Realistic
 70
     8
 71
     2
 72
     2
 73
     0
 90
        0
 40
-0.6
 41
-30.0
 62
     5
 63
     7
421
 16777215
 74
     1
 91
        0
 64
     7
 65
   257
 75
     1
175
     1
 42
1.0
 92
        8
 66
     8
424
  7895160
 43
1.0
 76
     1
 77
     6
 78
     2
 67
     7
 79
     5
170
     0
171
     0
290
     0
174
     0
 93
       13
 44
0.0
173
     0
291
     0
 45
0.0
  0
VISUALSTYLE
  5
37
102
{ACAD_REACTORS
330
2A
102
}
102
{ACAD_XDICTIONARY
360
5C
102
}
330
2A
100
AcDbVisualStyle
  2
Thicken
 70
    13
 71
     2
 72
     2
 73
     0
 90
        0
 40
-0.6
 41
-30.0
 62
     5
 63
     7
421
 16777215
 74
     1
 91
        4
 64
     7
 65
   257
 75
     1
175
     1
 42
1.0
 92
       12
 66
     7
 43
1.0
 76
     1
 77
     6
 78
     2
 67
     7
 79
     5
170
     0
171
     0
290
     0
174
     0
 93
        1
 44
0.0
173
     0
291
     1
 45
0.0
  0
DICTIONARY
  5
4C
330
2F
100
AcDbDictionary
280
     1
281
     1
  3
ACAD_XREC_ROUNDTRIP
360
4D
  0
DICTIONARY
  5
50
330
31
100
AcDbDictionary
280
     1
281
     1
  3
ACAD_XREC_ROUNDTRIP
360
51
  0
DICTIONARY
  5
4E
330
30
100
AcDbDictionary
280
     1
281
     1
  3
ACAD_XREC_ROUNDTRIP
360
4F
  0
DICTIONARY
  5
52
330
32
100
AcDbDictionary
280
     1
281
     1
  3
ACAD_XREC_ROUNDTRIP
360
53
  0
DICTIONARY
  5
5A
330
36
100
AcDbDictionary
280
     1
281
     1
  3
ACAD_XREC_ROUNDTRIP
360
5B
  0
DICTIONARY
  5
62
330
3A
100
AcDbDictionary
280
     1
281
     1
  3
ACAD_XREC_ROUNDTRIP
360
63
  0
DICTIONARY
  5
56
330
34
100
AcDbDictionary
280
     1
281
     1
  3
ACAD_XREC_ROUNDTRIP
360
57
  0
DICTIONARY
  5
58
330
35
100
AcDbDictionary
280
     1
281
     1
  3
ACAD_XREC_ROUNDTRIP
360
59
  0
DICTIONARY
  5
60
330
39
100
AcDbDictionary
280
     1
281
     1
  3
ACAD_XREC_ROUNDTRIP
360
61
  0
DICTIONARY
  5
44
330
2B
100
AcDbDictionary
280
     1
281
     1
  3
ACAD_XREC_ROUNDTRIP
360
45
  0
DICTIONARY
  5
46
330
2C
100
AcDbDictionary
280
     1
281
     1
  3
ACAD_XREC_ROUNDTRIP
360
47
  0
DICTIONARY
  5
48
330
2D
100
AcDbDictionary
280
     1
281
     1
  3
ACAD_XREC_ROUNDTRIP
360
49
  0
DICTIONARY
  5
4A
330
2E
100
AcDbDictionary
280
     1
281
     1
  3
ACAD_XREC_ROUNDTRIP
360
4B
  0
DICTIONARY
  5
5E
330
38
100
AcDbDictionary
280
     1
281
     1
  3
ACAD_XREC_ROUNDTRIP
360
5F
  0
DICTIONARY
  5
54
330
33
100
AcDbDictionary
280
     1
281
     1
  3
ACAD_XREC_ROUNDTRIP
360
55
  0
DICTIONARY
  5
5C
330
37
100
AcDbDictionary
280
     1
281
     1
  3
ACAD_XREC_ROUNDTRIP
360
5D
  0
XRECORD
  5
4D
102
{ACAD_REACTORS
330
4C
102
}
330
4C
100
AcDbXrecord
280
     1
102
RTVSPropertyOp0
 70
     1
102
RTVSPropertyOp1
 70
     1
102
RTVSPropertyOp2
 70
     1
102
RTVSPropertyOp3
 70
     1
102
RTVSPropertyOp4
 70
     1
102
RTVSPropertyOp5
 70
     1
102
RTVSPropertyOp6
 70
     1
102
RTVSPropertyOp7
 70
     1
102
RTVSPropertyOp8
 70
     1
102
RTVSPropertyOp9
 70
     1
102
RTVSPropertyOp10
 70
     1
102
RTVSPropertyOp11
 70
     1
102
RTVSPropertyOp12
 70
     1
102
RTVSPropertyOp13
 70
     1
102
RTVSPropertyOp14
 70
     1
102
RTVSPropertyOp15
 70
     1
102
RTVSPropertyOp16
 70
     1
102
RTVSPropertyOp17
 70
     1
102
RTVSPropertyOp18
 70
     1
102
RTVSPropertyOp19
 70
     1
102
RTVSPropertyOp20
 70
     1
102
RTVSPropertyOp21
 70
     1
102
RTVSPropertyOp22
 70
     1
102
RTVSPropertyOp23
 70
     1
102
RTVSPropertyOp24
 70
     1
102
RTVSPropertyOp25
 70
     1
102
RTVSPropertyOp26
 70
     1
102
RTVSPropertyOp27
 70
     1
102
RTVSPropertyOp28
 70
     1
102
RTVSPropertyOp29
 70
     1
102
RTVSPropertyOp30
 70
     1
102
RTVSPropertyOp31
 70
     1
102
RTVSPropertyOp32
 70
     1
  0
XRECORD
  5
51
102
{ACAD_REACTORS
330
50
102
}
330
50
100
AcDbXrecord
280
     1
102
RTVSPropertyOp0
 70
     1
102
RTVSPropertyOp1
 70
     1
102
RTVSPropertyOp2
 70
     1
102
RTVSPropertyOp3
 70
     1
102
RTVSPropertyOp4
 70
     1
102
RTVSPropertyOp5
 70
     1
102
RTVSPropertyOp6
 70
     1
102
RTVSPropertyOp7
 70
     1
102
RTVSPropertyOp8
 70
     1
102
RTVSPropertyOp9
 70
     1
102
RTVSPropertyOp10
 70
     1
102
RTVSPropertyOp11
 70
     1
102
RTVSPropertyOp12
 70
     1
102
RTVSPropertyOp13
 70
     1
102
RTVSPropertyOp14
 70
     1
102
RTVSPropertyOp15
 70
     1
102
RTVSPropertyOp16
 70
     1
102
RTVSPropertyOp17
 70
     1
102
RTVSPropertyOp18
 70
     1
102
RTVSPropertyOp19
 70
     1
102
RTVSPropertyOp20
 70
     1
102
RTVSPropertyOp21
 70
     1
102
RTVSPropertyOp22
 70
     1
102
RTVSPropertyOp23
 70
     1
102
RTVSPropertyOp24
 70
     1
102
RTVSPropertyOp25
 70
     1
102
RTVSPropertyOp26
 70
     1
102
RTVSPropertyOp27
 70
     1
102
RTVSPropertyOp28
 70
     1
102
RTVSPropertyOp29
 70
     1
102
RTVSPropertyOp30
 70
     1
102
RTVSPropertyOp31
 70
     1
102
RTVSPropertyOp32
 70
     1
  0
XRECORD
  5
4F
102
{ACAD_REACTORS
330
4E
102
}
330
4E
100
AcDbXrecord
280
     1
102
RTVSPropertyOp0
 70
     1
102
RTVSPropertyOp1
 70
     1
102
RTVSPropertyOp2
 70
     1
102
RTVSPropertyOp3
 70
     1
102
RTVSPropertyOp4
 70
     1
102
RTVSPropertyOp5
 70
     1
102
RTVSPropertyOp6
 70
     1
102
RTVSPropertyOp7
 70
     1
102
RTVSPropertyOp8
 70
     1
102
RTVSPropertyOp9
 70
     1
102
RTVSPropertyOp10
 70
     1
102
RTVSPropertyOp11
 70
     1
102
RTVSPropertyOp12
 70
     1
102
RTVSPropertyOp13
 70
     1
102
RTVSPropertyOp14
 70
     1
102
RTVSPropertyOp15
 70
     1
102
RTVSPropertyOp16
 70
     1
102
RTVSPropertyOp17
 70
     1
102
RTVSPropertyOp18
 70
     1
102
RTVSPropertyOp19
 70
     1
102
RTVSPropertyOp20
 70
     1
102
RTVSPropertyOp21
 70
     1
102
RTVSPropertyOp22
 70
     1
102
RTVSPropertyOp23
 70
     1
102
RTVSPropertyOp24
 70
     1
102
RTVSPropertyOp25
 70
     1
102
RTVSPropertyOp26
 70
     1
102
RTVSPropertyOp27
 70
     1
102
RTVSPropertyOp28
 70
     1
102
RTVSPropertyOp29
 70
     1
102
RTVSPropertyOp30
 70
     1
102
RTVSPropertyOp31
 70
     1
102
RTVSPropertyOp32
 70
     1
  0
XRECORD
  5
53
102
{ACAD_REACTORS
330
52
102
}
330
52
100
AcDbXrecord
280
     1
102
RTVSPropertyOp0
 70
     1
102
RTVSPropertyOp1
 70
     1
102
RTVSPropertyOp2
 70
     1
102
RTVSPropertyOp3
 70
     1
102
RTVSPropertyOp4
 70
     1
102
RTVSPropertyOp5
 70
     1
102
RTVSPropertyOp6
 70
     1
102
RTVSPropertyOp7
 70
     1
102
RTVSPropertyOp8
 70
     1
102
RTVSPropertyOp9
 70
     1
102
RTVSPropertyOp10
 70
     1
102
RTVSPropertyOp11
 70
     1
102
RTVSPropertyOp12
 70
     1
102
RTVSPropertyOp13
 70
     1
102
RTVSPropertyOp14
 70
     1
102
RTVSPropertyOp15
 70
     1
102
RTVSPropertyOp16
 70
     1
102
RTVSPropertyOp17
 70
     1
102
RTVSPropertyOp18
 70
     1
102
RTVSPropertyOp19
 70
     1
102
RTVSPropertyOp20
 70
     1
102
RTVSPropertyOp21
 70
     1
102
RTVSPropertyOp22
 70
     1
102
RTVSPropertyOp23
 70
     1
102
RTVSPropertyOp24
 70
     1
102
RTVSPropertyOp25
 70
     1
102
RTVSPropertyOp26
 70
     1
102
RTVSPropertyOp27
 70
     1
102
RTVSPropertyOp28
 70
     1
102
RTVSPropertyOp29
 70
     1
102
RTVSPropertyOp30
 70
     1
102
RTVSPropertyOp31
 70
     1
102
RTVSPropertyOp32
 70
     1
  0
XRECORD
  5
5B
102
{ACAD_REACTORS
330
5A
102
}
330
5A
100
AcDbXrecord
280
     1
102
RTVSPropertyOp0
 70
     1
102
RTVSPropertyOp1
 70
     1
102
RTVSPropertyOp2
 70
     1
102
RTVSPropertyOp3
 70
     1
102
RTVSPropertyOp4
 70
     1
102
RTVSPropertyOp5
 70
     1
102
RTVSPropertyOp6
 70
     1
102
RTVSPropertyOp7
 70
     1
102
RTVSPropertyOp8
 70
     1
102
RTVSPropertyOp9
 70
     1
102
RTVSPropertyOp10
 70
     1
102
RTVSPropertyOp11
 70
     1
102
RTVSPropertyOp12
 70
     1
102
RTVSPropertyOp13
 70
     1
102
RTVSPropertyOp14
 70
     1
102
RTVSPropertyOp15
 70
     1
102
RTVSPropertyOp16
 70
     1
102
RTVSPropertyOp17
 70
     1
102
RTVSPropertyOp18
 70
     1
102
RTVSPropertyOp19
 70
     1
102
RTVSPropertyOp20
 70
     1
102
RTVSPropertyOp21
 70
     1
102
RTVSPropertyOp22
 70
     1
102
RTVSPropertyOp23
 70
     1
102
RTVSPropertyOp24
 70
     1
102
RTVSPropertyOp25
 70
     1
102
RTVSPropertyOp26
 70
     1
102
RTVSPropertyOp27
 70
     1
102
RTVSPropertyOp28
 70
     1
102
RTVSPropertyOp29
 70
     1
102
RTVSPropertyOp30
 70
     1
102
RTVSPropertyOp31
 70
     1
102
RTVSPropertyOp32
 70
     1
  0
XRECORD
  5
63
102
{ACAD_REACTORS
330
62
102
}
330
62
100
AcDbXrecord
280
     1
102
RTVSPropertyOp0
 70
     1
102
RTVSPropertyOp1
 70
     1
102
RTVSPropertyOp2
 70
     1
102
RTVSPropertyOp3
 70
     1
102
RTVSPropertyOp4
 70
     1
102
RTVSPropertyOp5
 70
     1
102
RTVSPropertyOp6
 70
     1
102
RTVSPropertyOp7
 70
     1
102
RTVSPropertyOp8
 70
     1
102
RTVSPropertyOp9
 70
     1
102
RTVSPropertyOp10
 70
     1
102
RTVSPropertyOp11
 70
     1
102
RTVSPropertyOp12
 70
     1
102
RTVSPropertyOp13
 70
     1
102
RTVSPropertyOp14
 70
     1
102
RTVSPropertyOp15
 70
     1
102
RTVSPropertyOp16
 70
     1
102
RTVSPropertyOp17
 70
     1
102
RTVSPropertyOp18
 70
     1
102
RTVSPropertyOp19
 70
     1
102
RTVSPropertyOp20
 70
     1
102
RTVSPropertyOp21
 70
     1
102
RTVSPropertyOp22
 70
     1
102
RTVSPropertyOp23
 70
     1
102
RTVSPropertyOp24
 70
     1
102
RTVSPropertyOp25
 70
     1
102
RTVSPropertyOp26
 70
     1
102
RTVSPropertyOp27
 70
     1
102
RTVSPropertyOp28
 70
     1
102
RTVSPropertyOp29
 70
     1
102
RTVSPropertyOp30
 70
     1
102
RTVSPropertyOp31
 70
     1
102
RTVSPropertyOp32
 70
     1
  0
XRECORD
  5
57
102
{ACAD_REACTORS
330
56
102
}
330
56
100
AcDbXrecord
280
     1
102
RTVSPropertyOp0
 70
     1
102
RTVSPropertyOp1
 70
     1
102
RTVSPropertyOp2
 70
     1
102
RTVSPropertyOp3
 70
     1
102
RTVSPropertyOp4
 70
     1
102
RTVSPropertyOp5
 70
     1
102
RTVSPropertyOp6
 70
     1
102
RTVSPropertyOp7
 70
     1
102
RTVSPropertyOp8
 70
     1
102
RTVSPropertyOp9
 70
     1
102
RTVSPropertyOp10
 70
     1
102
RTVSPropertyOp11
 70
     1
102
RTVSPropertyOp12
 70
     1
102
RTVSPropertyOp13
 70
     1
102
RTVSPropertyOp14
 70
     1
102
RTVSPropertyOp15
 70
     1
102
RTVSPropertyOp16
 70
     1
102
RTVSPropertyOp17
 70
     1
102
RTVSPropertyOp18
 70
     1
102
RTVSPropertyOp19
 70
     1
102
RTVSPropertyOp20
 70
     1
102
RTVSPropertyOp21
 70
     1
102
RTVSPropertyOp22
 70
     1
102
RTVSPropertyOp23
 70
     1
102
RTVSPropertyOp24
 70
     1
102
RTVSPropertyOp25
 70
     1
102
RTVSPropertyOp26
 70
     1
102
RTVSPropertyOp27
 70
     1
102
RTVSPropertyOp28
 70
     1
102
RTVSPropertyOp29
 70
     1
102
RTVSPropertyOp30
 70
     1
102
RTVSPropertyOp31
 70
     1
102
RTVSPropertyOp32
 70
     1
  0
XRECORD
  5
59
102
{ACAD_REACTORS
330
58
102
}
330
58
100
AcDbXrecord
280
     1
102
RTVSPropertyOp0
 70
     1
102
RTVSPropertyOp1
 70
     1
102
RTVSPropertyOp2
 70
     1
102
RTVSPropertyOp3
 70
     1
102
RTVSPropertyOp4
 70
     1
102
RTVSPropertyOp5
 70
     1
102
RTVSPropertyOp6
 70
     1
102
RTVSPropertyOp7
 70
     1
102
RTVSPropertyOp8
 70
     1
102
RTVSPropertyOp9
 70
     1
102
RTVSPropertyOp10
 70
     1
102
RTVSPropertyOp11
 70
     1
102
RTVSPropertyOp12
 70
     1
102
RTVSPropertyOp13
 70
     1
102
RTVSPropertyOp14
 70
     1
102
RTVSPropertyOp15
 70
     1
102
RTVSPropertyOp16
 70
     1
102
RTVSPropertyOp17
 70
     1
102
RTVSPropertyOp18
 70
     1
102
RTVSPropertyOp19
 70
     1
102
RTVSPropertyOp20
 70
     1
102
RTVSPropertyOp21
 70
     1
102
RTVSPropertyOp22
 70
     1
102
RTVSPropertyOp23
 70
     1
102
RTVSPropertyOp24
 70
     1
102
RTVSPropertyOp25
 70
     1
102
RTVSPropertyOp26
 70
     1
102
RTVSPropertyOp27
 70
     1
102
RTVSPropertyOp28
 70
     1
102
RTVSPropertyOp29
 70
     1
102
RTVSPropertyOp30
 70
     1
102
RTVSPropertyOp31
 70
     1
102
RTVSPropertyOp32
 70
     1
  0
XRECORD
  5
61
102
{ACAD_REACTORS
330
60
102
}
330
60
100
AcDbXrecord
280
     1
102
RTVSPropertyOp0
 70
     1
102
RTVSPropertyOp1
 70
     1
102
RTVSPropertyOp2
 70
     1
102
RTVSPropertyOp3
 70
     1
102
RTVSPropertyOp4
 70
     1
102
RTVSPropertyOp5
 70
     1
102
RTVSPropertyOp6
 70
     1
102
RTVSPropertyOp7
 70
     1
102
RTVSPropertyOp8
 70
     1
102
RTVSPropertyOp9
 70
     1
102
RTVSPropertyOp10
 70
     1
102
RTVSPropertyOp11
 70
     1
102
RTVSPropertyOp12
 70
     1
102
RTVSPropertyOp13
 70
     1
102
RTVSPropertyOp14
 70
     1
102
RTVSPropertyOp15
 70
     1
102
RTVSPropertyOp16
 70
     1
102
RTVSPropertyOp17
 70
     1
102
RTVSPropertyOp18
 70
     1
102
RTVSPropertyOp19
 70
     1
102
RTVSPropertyOp20
 70
     1
102
RTVSPropertyOp21
 70
     1
102
RTVSPropertyOp22
 70
     1
102
RTVSPropertyOp23
 70
     1
102
RTVSPropertyOp24
 70
     1
102
RTVSPropertyOp25
 70
     1
102
RTVSPropertyOp26
 70
     1
102
RTVSPropertyOp27
 70
     1
102
RTVSPropertyOp28
 70
     1
102
RTVSPropertyOp29
 70
     1
102
RTVSPropertyOp30
 70
     1
102
RTVSPropertyOp31
 70
     1
102
RTVSPropertyOp32
 70
     1
  0
XRECORD
  5
45
102
{ACAD_REACTORS
330
44
102
}
330
44
100
AcDbXrecord
280
     1
102
RTVSPropertyOp0
 70
     1
102
RTVSPropertyOp1
 70
     1
102
RTVSPropertyOp2
 70
     1
102
RTVSPropertyOp3
 70
     1
102
RTVSPropertyOp4
 70
     1
102
RTVSPropertyOp5
 70
     1
102
RTVSPropertyOp6
 70
     1
102
RTVSPropertyOp7
 70
     1
102
RTVSPropertyOp8
 70
     1
102
RTVSPropertyOp9
 70
     1
102
RTVSPropertyOp10
 70
     1
102
RTVSPropertyOp11
 70
     1
102
RTVSPropertyOp12
 70
     1
102
RTVSPropertyOp13
 70
     1
102
RTVSPropertyOp14
 70
     1
102
RTVSPropertyOp15
 70
     1
102
RTVSPropertyOp16
 70
     1
102
RTVSPropertyOp17
 70
     1
102
RTVSPropertyOp18
 70
     1
102
RTVSPropertyOp19
 70
     1
102
RTVSPropertyOp20
 70
     1
102
RTVSPropertyOp21
 70
     1
102
RTVSPropertyOp22
 70
     1
102
RTVSPropertyOp23
 70
     1
102
RTVSPropertyOp24
 70
     1
102
RTVSPropertyOp25
 70
     1
102
RTVSPropertyOp26
 70
     1
102
RTVSPropertyOp27
 70
     1
102
RTVSPropertyOp28
 70
     1
102
RTVSPropertyOp29
 70
     1
102
RTVSPropertyOp30
 70
     1
102
RTVSPropertyOp31
 70
     1
102
RTVSPropertyOp32
 70
     1
  0
XRECORD
  5
47
102
{ACAD_REACTORS
330
46
102
}
330
46
100
AcDbXrecord
280
     1
102
RTVSPropertyOp0
 70
     1
102
RTVSPropertyOp1
 70
     1
102
RTVSPropertyOp2
 70
     1
102
RTVSPropertyOp3
 70
     1
102
RTVSPropertyOp4
 70
     1
102
RTVSPropertyOp5
 70
     1
102
RTVSPropertyOp6
 70
     1
102
RTVSPropertyOp7
 70
     1
102
RTVSPropertyOp8
 70
     1
102
RTVSPropertyOp9
 70
     1
102
RTVSPropertyOp10
 70
     1
102
RTVSPropertyOp11
 70
     1
102
RTVSPropertyOp12
 70
     1
102
RTVSPropertyOp13
 70
     1
102
RTVSPropertyOp14
 70
     1
102
RTVSPropertyOp15
 70
     1
102
RTVSPropertyOp16
 70
     1
102
RTVSPropertyOp17
 70
     1
102
RTVSPropertyOp18
 70
     1
102
RTVSPropertyOp19
 70
     1
102
RTVSPropertyOp20
 70
     1
102
RTVSPropertyOp21
 70
     1
102
RTVSPropertyOp22
 70
     1
102
RTVSPropertyOp23
 70
     1
102
RTVSPropertyOp24
 70
     1
102
RTVSPropertyOp25
 70
     1
102
RTVSPropertyOp26
 70
     1
102
RTVSPropertyOp27
 70
     1
102
RTVSPropertyOp28
 70
     1
102
RTVSPropertyOp29
 70
     1
102
RTVSPropertyOp30
 70
     1
102
RTVSPropertyOp31
 70
     1
102
RTVSPropertyOp32
 70
     1
  0
XRECORD
  5
49
102
{ACAD_REACTORS
330
48
102
}
330
48
100
AcDbXrecord
280
     1
102
RTVSPropertyOp0
 70
     1
102
RTVSPropertyOp1
 70
     1
102
RTVSPropertyOp2
 70
     1
102
RTVSPropertyOp3
 70
     1
102
RTVSPropertyOp4
 70
     1
102
RTVSPropertyOp5
 70
     1
102
RTVSPropertyOp6
 70
     1
102
RTVSPropertyOp7
 70
     1
102
RTVSPropertyOp8
 70
     1
102
RTVSPropertyOp9
 70
     1
102
RTVSPropertyOp10
 70
     1
102
RTVSPropertyOp11
 70
     1
102
RTVSPropertyOp12
 70
     1
102
RTVSPropertyOp13
 70
     1
102
RTVSPropertyOp14
 70
     1
102
RTVSPropertyOp15
 70
     1
102
RTVSPropertyOp16
 70
     1
102
RTVSPropertyOp17
 70
     1
102
RTVSPropertyOp18
 70
     1
102
RTVSPropertyOp19
 70
     1
102
RTVSPropertyOp20
 70
     1
102
RTVSPropertyOp21
 70
     1
102
RTVSPropertyOp22
 70
     1
102
RTVSPropertyOp23
 70
     1
102
RTVSPropertyOp24
 70
     1
102
RTVSPropertyOp25
 70
     1
102
RTVSPropertyOp26
 70
     1
102
RTVSPropertyOp27
 70
     1
102
RTVSPropertyOp28
 70
     1
102
RTVSPropertyOp29
 70
     1
102
RTVSPropertyOp30
 70
     1
102
RTVSPropertyOp31
 70
     1
102
RTVSPropertyOp32
 70
     1
  0
XRECORD
  5
4B
102
{ACAD_REACTORS
330
4A
102
}
330
4A
100
AcDbXrecord
280
     1
102
RTVSPropertyOp0
 70
     1
102
RTVSPropertyOp1
 70
     1
102
RTVSPropertyOp2
 70
     1
102
RTVSPropertyOp3
 70
     1
102
RTVSPropertyOp4
 70
     1
102
RTVSPropertyOp5
 70
     1
102
RTVSPropertyOp6
 70
     1
102
RTVSPropertyOp7
 70
     1
102
RTVSPropertyOp8
 70
     1
102
RTVSPropertyOp9
 70
     1
102
RTVSPropertyOp10
 70
     1
102
RTVSPropertyOp11
 70
     1
102
RTVSPropertyOp12
 70
     1
102
RTVSPropertyOp13
 70
     1
102
RTVSPropertyOp14
 70
     1
102
RTVSPropertyOp15
 70
     1
102
RTVSPropertyOp16
 70
     1
102
RTVSPropertyOp17
 70
     1
102
RTVSPropertyOp18
 70
     1
102
RTVSPropertyOp19
 70
     1
102
RTVSPropertyOp20
 70
     1
102
RTVSPropertyOp21
 70
     1
102
RTVSPropertyOp22
 70
     1
102
RTVSPropertyOp23
 70
     1
102
RTVSPropertyOp24
 70
     1
102
RTVSPropertyOp25
 70
     1
102
RTVSPropertyOp26
 70
     1
102
RTVSPropertyOp27
 70
     1
102
RTVSPropertyOp28
 70
     1
102
RTVSPropertyOp29
 70
     1
102
RTVSPropertyOp30
 70
     1
102
RTVSPropertyOp31
 70
     1
102
RTVSPropertyOp32
 70
     1
  0
XRECORD
  5
5F
102
{ACAD_REACTORS
330
5E
102
}
330
5E
100
AcDbXrecord
280
     1
102
RTVSPropertyOp0
 70
     1
102
RTVSPropertyOp1
 70
     1
102
RTVSPropertyOp2
 70
     1
102
RTVSPropertyOp3
 70
     1
102
RTVSPropertyOp4
 70
     1
102
RTVSPropertyOp5
 70
     1
102
RTVSPropertyOp6
 70
     1
102
RTVSPropertyOp7
 70
     1
102
RTVSPropertyOp8
 70
     1
102
RTVSPropertyOp9
 70
     1
102
RTVSPropertyOp10
 70
     1
102
RTVSPropertyOp11
 70
     1
102
RTVSPropertyOp12
 70
     1
102
RTVSPropertyOp13
 70
     1
102
RTVSPropertyOp14
 70
     1
102
RTVSPropertyOp15
 70
     1
102
RTVSPropertyOp16
 70
     1
102
RTVSPropertyOp17
 70
     1
102
RTVSPropertyOp18
 70
     1
102
RTVSPropertyOp19
 70
     1
102
RTVSPropertyOp20
 70
     1
102
RTVSPropertyOp21
 70
     1
102
RTVSPropertyOp22
 70
     1
102
RTVSPropertyOp23
 70
     1
102
RTVSPropertyOp24
 70
     1
102
RTVSPropertyOp25
 70
     1
102
RTVSPropertyOp26
 70
     1
102
RTVSPropertyOp27
 70
     1
102
RTVSPropertyOp28
 70
     1
102
RTVSPropertyOp29
 70
     1
102
RTVSPropertyOp30
 70
     1
102
RTVSPropertyOp31
 70
     1
102
RTVSPropertyOp32
 70
     1
  0
XRECORD
  5
55
102
{ACAD_REACTORS
330
54
102
}
330
54
100
AcDbXrecord
280
     1
102
RTVSPropertyOp0
 70
     1
102
RTVSPropertyOp1
 70
     1
102
RTVSPropertyOp2
 70
     1
102
RTVSPropertyOp3
 70
     1
102
RTVSPropertyOp4
 70
     1
102
RTVSPropertyOp5
 70
     1
102
RTVSPropertyOp6
 70
     1
102
RTVSPropertyOp7
 70
     1
102
RTVSPropertyOp8
 70
     1
102
RTVSPropertyOp9
 70
     1
102
RTVSPropertyOp10
 70
     1
102
RTVSPropertyOp11
 70
     1
102
RTVSPropertyOp12
 70
     1
102
RTVSPropertyOp13
 70
     1
102
RTVSPropertyOp14
 70
     1
102
RTVSPropertyOp15
 70
     1
102
RTVSPropertyOp16
 70
     1
102
RTVSPropertyOp17
 70
     1
102
RTVSPropertyOp18
 70
     1
102
RTVSPropertyOp19
 70
     1
102
RTVSPropertyOp20
 70
     1
102
RTVSPropertyOp21
 70
     1
102
RTVSPropertyOp22
 70
     1
102
RTVSPropertyOp23
 70
     1
102
RTVSPropertyOp24
 70
     1
102
RTVSPropertyOp25
 70
     1
102
RTVSPropertyOp26
 70
     1
102
RTVSPropertyOp27
 70
     1
102
RTVSPropertyOp28
 70
     1
102
RTVSPropertyOp29
 70
     1
102
RTVSPropertyOp30
 70
     1
102
RTVSPropertyOp31
 70
     1
102
RTVSPropertyOp32
 70
     1
  0
XRECORD
  5
5D
102
{ACAD_REACTORS
330
5C
102
}
330
5C
100
AcDbXrecord
280
     1
102
RTVSPropertyOp0
 70
     1
102
RTVSPropertyOp1
 70
     1
102
RTVSPropertyOp2
 70
     1
102
RTVSPropertyOp3
 70
     1
102
RTVSPropertyOp4
 70
     1
102
RTVSPropertyOp5
 70
     1
102
RTVSPropertyOp6
 70
     1
102
RTVSPropertyOp7
 70
     1
102
RTVSPropertyOp8
 70
     1
102
RTVSPropertyOp9
 70
     1
102
RTVSPropertyOp10
 70
     1
102
RTVSPropertyOp11
 70
     1
102
RTVSPropertyOp12
 70
     1
102
RTVSPropertyOp13
 70
     1
102
RTVSPropertyOp14
 70
     1
102
RTVSPropertyOp15
 70
     1
102
RTVSPropertyOp16
 70
     1
102
RTVSPropertyOp17
 70
     1
102
RTVSPropertyOp18
 70
     1
102
RTVSPropertyOp19
 70
     1
102
RTVSPropertyOp20
 70
     1
102
RTVSPropertyOp21
 70
     1
102
RTVSPropertyOp22
 70
     1
102
RTVSPropertyOp23
 70
     1
102
RTVSPropertyOp24
 70
     1
102
RTVSPropertyOp25
 70
     1
102
RTVSPropertyOp26
 70
     1
102
RTVSPropertyOp27
 70
     1
102
RTVSPropertyOp28
 70
     1
102
RTVSPropertyOp29
 70
     1
102
RTVSPropertyOp30
 70
     1
102
RTVSPropertyOp31
 70
     1
102
RTVSPropertyOp32
 70
     1
  0
ENDSEC
  0
EOF
