  0
SECTION
  2
HEADER
  9
$ACADVER
  1
AC1021
  9
$ACADMAINTVER
 70
    25
  9
$DWGCODEPAGE
  3
ANSI_1252
  9
$INSBASE
 10
0.0
 20
0.0
 30
0.0
  9
$EXTMIN
 10
-4.55962
 20
-7.38094
 30
0.0
  9
$EXTMAX
 10
4.55969
 20
7.38098
 30
0.0
  9
$LIMMIN
 10
0.0
 20
0.0
  9
$LIMMAX
 10
12.0
 20
9.0
  9
$ORTHOMODE
 70
     0
  9
$REGENMODE
 70
     1
  9
$FILLMODE
 70
     1
  9
$QTEXTMODE
 70
     0
  9
$MIRRTEXT
 70
     1
  9
$LTSCALE
 40
1.0
  9
$ATTMODE
 70
     1
  9
$TEXTSIZE
 40
0.2
  9
$TRACEWID
 40
0.05
  9
$TEXTSTYLE
  7
Standard
  9
$CLAYER
  8
0
  9
$CELTYPE
  6
ByLayer
  9
$CECOLOR
 62
   256
  9
$CELTSCALE
 40
1.0
  9
$DISPSILH
 70
     0
  9
$DIMSCALE
 40
1.0
  9
$DIMASZ
 40
0.18
  9
$DIMEXO
 40
0.0625
  9
$DIMDLI
 40
0.38
  9
$DIMRND
 40
0.0
  9
$DIMDLE
 40
0.0
  9
$DIMEXE
 40
0.18
  9
$DIMTP
 40
0.0
  9
$DIMTM
 40
0.0
  9
$DIMTXT
 40
0.18
  9
$DIMCEN
 40
0.09
  9
$DIMTSZ
 40
0.0
  9
$DIMTOL
 70
     0
  9
$DIMLIM
 70
     0
  9
$DIMTIH
 70
     1
  9
$DIMTOH
 70
     1
  9
$DIMSE1
 70
     0
  9
$DIMSE2
 70
     0
  9
$DIMTAD
 70
     0
  9
$DIMZIN
 70
     0
  9
$DIMBLK
  1

  9
$DIMASO
 70
     1
  9
$DIMSHO
 70
     1
  9
$DIMPOST
  1

  9
$DIMAPOST
  1

  9
$DIMALT
 70
     0
  9
$DIMALTD
 70
     2
  9
$DIMALTF
 40
25.4
  9
$DIMLFAC
 40
1.0
  9
$DIMTOFL
 70
     0
  9
$DIMTVP
 40
0.0
  9
$DIMTIX
 70
     0
  9
$DIMSOXD
 70
     0
  9
$DIMSAH
 70
     0
  9
$DIMBLK1
  1

  9
$DIMBLK2
  1

  9
$DIMSTYLE
  2
Standard
  9
$DIMCLRD
 70
     0
  9
$DIMCLRE
 70
     0
  9
$DIMCLRT
 70
     0
  9
$DIMTFAC
 40
1.0
  9
$DIMGAP
 40
0.09
  9
$DIMJUST
 70
     0
  9
$DIMSD1
 70
     0
  9
$DIMSD2
 70
     0
  9
$DIMTOLJ
 70
     1
  9
$DIMTZIN
 70
     0
  9
$DIMALTZ
 70
     0
  9
$DIMALTTZ
 70
     0
  9
$DIMUPT
 70
     0
  9
$DIMDEC
 70
     4
  9
$DIMTDEC
 70
     4
  9
$DIMALTU
 70
     2
  9
$DIMALTTD
 70
     2
  9
$DIMTXSTY
  7
Standard
  9
$DIMAUNIT
 70
     0
  9
$DIMADEC
 70
     0
  9
$DIMALTRND
 40
0.0
  9
$DIMAZIN
 70
     0
  9
$DIMDSEP
 70
    46
  9
$DIMATFIT
 70
     3
  9
$DIMFRAC
 70
     0
  9
$DIMLDRBLK
  1

  9
$DIMLUNIT
 70
     2
  9
$DIMLWD
 70
    -2
  9
$DIMLWE
 70
    -2
  9
$DIMTMOVE
 70
     0
  9
$DIMFXL
 40
1.0
  9
$DIMFXLON
 70
     0
  9
$DIMJOGANG
 40
0.7853981633974483
  9
$DIMTFILL
 70
     0
  9
$DIMTFILLCLR
 70
     0
  9
$DIMARCSYM
 70
     0
  9
$DIMLTYPE
  6

  9
$DIMLTEX1
  6

  9
$DIMLTEX2
  6

  9
$LUNITS
 70
     2
  9
$LUPREC
 70
     4
  9
$SKETCHINC
 40
0.1
  9
$FILLETRAD
 40
0.5
  9
$AUNITS
 70
     0
  9
$AUPREC
 70
     0
  9
$MENU
  1
.
  9
$ELEVATION
 40
0.0
  9
$PELEVATION
 40
0.0
  9
$THICKNESS
 40
0.0
  9
$LIMCHECK
 70
     0
  9
$CHAMFERA
 40
0.5
  9
$CHAMFERB
 40
0.5
  9
$CHAMFERC
 40
1.0
  9
$CHAMFERD
 40
0.0
  9
$SKPOLY
 70
     0
  9
$TDCREATE
 40
2456876.638786342
  9
$TDUCREATE
 40
2456876.763786342
  9
$TDUPDATE
 40
2456876.638786701
  9
$TDUUPDATE
 40
2456876.763786701
  9
$TDINDWG
 40
0.0000000116
  9
$TDUSRTIMER
 40
0.0000000116
  9
$USRTIMER
 70
     1
  9
$ANGBASE
 50
0.0
  9
$ANGDIR
 70
     0
  9
$PDMODE
 70
     0
  9
$PDSIZE
 40
0.0
  9
$PLINEWID
 40
0.0
  9
$SPLFRAME
 70
     0
  9
$SPLINETYPE
 70
     6
  9
$SPLINESEGS
 70
     8
  9
$HANDSEED
  5
6C
  9
$SURFTAB1
 70
     6
  9
$SURFTAB2
 70
     6
  9
$SURFTYPE
 70
     6
  9
$SURFU
 70
     6
  9
$SURFV
 70
     6
  9
$UCSBASE
  2

  9
$UCSNAME
  2

  9
$UCSORG
 10
0.0
 20
0.0
 30
0.0
  9
$UCSXDIR
 10
1.0
 20
0.0
 30
0.0
  9
$UCSYDIR
 10
0.0
 20
1.0
 30
0.0
  9
$UCSORTHOREF
  2

  9
$UCSORTHOVIEW
 70
     0
  9
$UCSORGTOP
 10
0.0
 20
0.0
 30
0.0
  9
$UCSORGBOTTOM
 10
0.0
 20
0.0
 30
0.0
  9
$UCSORGLEFT
 10
0.0
 20
0.0
 30
0.0
  9
$UCSORGRIGHT
 10
0.0
 20
0.0
 30
0.0
  9
$UCSORGFRONT
 10
0.0
 20
0.0
 30
0.0
  9
$UCSORGBACK
 10
0.0
 20
0.0
 30
0.0
  9
$PUCSBASE
  2

  9
$PUCSNAME
  2

  9
$PUCSORG
 10
0.0
 20
0.0
 30
0.0
  9
$PUCSXDIR
 10
1.0
 20
0.0
 30
0.0
  9
$PUCSYDIR
 10
0.0
 20
1.0
 30
0.0
  9
$PUCSORTHOREF
  2

  9
$PUCSORTHOVIEW
 70
     0
  9
$PUCSORGTOP
 10
0.0
 20
0.0
 30
0.0
  9
$PUCSORGBOTTOM
 10
0.0
 20
0.0
 30
0.0
  9
$PUCSORGLEFT
 10
0.0
 20
0.0
 30
0.0
  9
$PUCSORGRIGHT
 10
0.0
 20
0.0
 30
0.0
  9
$PUCSORGFRONT
 10
0.0
 20
0.0
 30
0.0
  9
$PUCSORGBACK
 10
0.0
 20
0.0
 30
0.0
  9
$USERI1
 70
     0
  9
$USERI2
 70
     0
  9
$USERI3
 70
     0
  9
$USERI4
 70
     0
  9
$USERI5
 70
     0
  9
$USERR1
 40
0.0
  9
$USERR2
 40
0.0
  9
$USERR3
 40
0.0
  9
$USERR4
 40
0.0
  9
$USERR5
 40
0.0
  9
$WORLDVIEW
 70
     1
  9
$SHADEDGE
 70
     3
  9
$SHADEDIF
 70
    70
  9
$TILEMODE
 70
     1
  9
$MAXACTVP
 70
    64
  9
$PINSBASE
 10
0.0
 20
0.0
 30
0.0
  9
$PLIMCHECK
 70
     0
  9
$PEXTMIN
 10
1.000000000000000E+20
 20
1.000000000000000E+20
 30
1.000000000000000E+20
  9
$PEXTMAX
 10
-1.000000000000000E+20
 20
-1.000000000000000E+20
 30
-1.000000000000000E+20
  9
$PLIMMIN
 10
0.0
 20
0.0
  9
$PLIMMAX
 10
12.0
 20
9.0
  9
$UNITMODE
 70
     0
  9
$VISRETAIN
 70
     1
  9
$PLINEGEN
 70
     0
  9
$PSLTSCALE
 70
     1
  9
$TREEDEPTH
 70
  3020
  9
$CMLSTYLE
  2
Standard
  9
$CMLJUST
 70
     0
  9
$CMLSCALE
 40
1.0
  9
$PROXYGRAPHICS
 70
     1
  9
$MEASUREMENT
 70
     0
  9
$CELWEIGHT
370
    -1
  9
$ENDCAPS
280
     0
  9
$JOINSTYLE
280
     0
  9
$LWDISPLAY
290
     0
  9
$INSUNITS
 70
     5
  9
$HYPERLINKBASE
  1

  9
$STYLESHEET
  1

  9
$XEDIT
290
     1
  9
$CEPSNTYPE
380
     0
  9
$PSTYLEMODE
290
     1
  9
$FINGERPRINTGUID
  2
{0133E9BE-EFEE-4071-A6D3-A2CD8A8DBE71}
  9
$VERSIONGUID
  2
{FAEB1C32-E019-11D5-929B-00C0DF256EC4}
  9
$EXTNAMES
290
     1
  9
$PSVPSCALE
 40
0.0
  9
$OLESTARTUP
290
     0
  9
$SORTENTS
280
   127
  9
$INDEXCTL
280
     0
  9
$HIDETEXT
280
     1
  9
$XCLIPFRAME
290
     0
  9
$HALOGAP
280
     0
  9
$OBSCOLOR
 70
   257
  9
$OBSLTYPE
280
     0
  9
$INTERSECTIONDISPLAY
280
     0
  9
$INTERSECTIONCOLOR
 70
   257
  9
$DIMASSOC
280
     2
  9
$PROJECTNAME
  1

  9
$CAMERADISPLAY
290
     0
  9
$LENSLENGTH
 40
50.0
  9
$CAMERAHEIGHT
 40
0.0
  9
$STEPSPERSEC
 40
2.0
  9
$STEPSIZE
 40
6.0
  9
$3DDWFPREC
 40
2.0
  9
$PSOLWIDTH
 40
0.25
  9
$PSOLHEIGHT
 40
4.0
  9
$LOFTANG1
 40
1.570796326794897
  9
$LOFTANG2
 40
1.570796326794897
  9
$LOFTMAG1
 40
0.0
  9
$LOFTMAG2
 40
0.0
  9
$LOFTPARAM
 70
     7
  9
$LOFTNORMALS
280
     1
  9
$LATITUDE
 40
37.795
  9
$LONGITUDE
 40
-122.394
  9
$NORTHDIRECTION
 40
0.0
  9
$TIMEZONE
 70
 -8000
  9
$LIGHTGLYPHDISPLAY
280
     1
  9
$TILEMODELIGHTSYNCH
280
     1
  9
$SOLIDHIST
280
     1
  9
$SHOWHIST
280
     1
  9
$DWFFRAME
280
     2
  9
$DGNFRAME
280
     2
  9
$REALWORLDSCALE
290
     1
  9
$INTERFERECOLOR
 62
   256
  9
$CSHADOW
280
     0
  9
$SHADOWPLANELOCATION
 40
0.0
  0
ENDSEC
  0
SECTION
  2
CLASSES
  0
CLASS
  1
ACDBDICTIONARYWDFLT
  2
AcDbDictionaryWithDefault
  3
ObjectDBX Classes
 90
        0
 91
        4
280
     0
281
     0
  0
CLASS
  1
VISUALSTYLE
  2
AcDbVisualStyle
  3
ObjectDBX Classes
 90
     4095
 91
        4
280
     0
281
     0
  0
CLASS
  1
MATERIAL
  2
AcDbMaterial
  3
ObjectDBX Classes
 90
     1153
 91
        4
280
     0
281
     0
  0
ENDSEC
  0
SECTION
  2
TABLES
  0
TABLE
  2
VPORT
  5
8
330
0
100
AcDbSymbolTable
 70
     1
  0
VPORT
  5
29
330
8
100
AcDbSymbolTableRecord
100
AcDbViewportTableRecord
  2
*Active
 70
     0
 10
0.0
 20
0.0
 11
1.0
 21
1.0
 12
10.42990654205607
 22
4.5
 13
0.0
 23
0.0
 14
0.5
 24
0.5
 15
0.5
 25
0.5
 16
0.0
 26
0.0
 36
1.0
 17
0.0
 27
0.0
 37
0.0
 40
9.0
 41
1.972972972850329
 42
50.0
 43
0.0
 44
0.0
 50
0.0
 51
0.0
 71
     0
 72
   100
 73
     1
 74
     3
 75
     0
 76
     0
 77
     0
 78
     0
281
     0
 65
     1
110
0.0
120
0.0
130
0.0
111
1.0
121
0.0
131
0.0
112
0.0
122
1.0
132
0.0
 79
     0
146
0.0
 60
     3
 61
     5
292
     1
282
     1
141
0.0
142
0.0
 63
   250
  0
ENDTAB
  0
TABLE
  2
LTYPE
  5
5
330
0
100
AcDbSymbolTable
 70
     1
  0
LTYPE
  5
14
330
5
100
AcDbSymbolTableRecord
100
AcDbLinetypeTableRecord
  2
ByBlock
 70
     0
  3

 72
    65
 73
     0
 40
0.0
  0
LTYPE
  5
15
330
5
100
AcDbSymbolTableRecord
100
AcDbLinetypeTableRecord
  2
ByLayer
 70
     0
  3

 72
    65
 73
     0
 40
0.0
  0
LTYPE
  5
16
330
5
100
AcDbSymbolTableRecord
100
AcDbLinetypeTableRecord
  2
Continuous
 70
     0
  3
Solid line
 72
    65
 73
     0
 40
0.0
  0
ENDTAB
  0
TABLE
  2
LAYER
  5
2
330
0
100
AcDbSymbolTable
 70
     2
  0
LAYER
  5
10
330
2
100
AcDbSymbolTableRecord
100
AcDbLayerTableRecord
  2
0
 70
     0
 62
     7
  6
Continuous
370
    -3
390
F
347
3E
  0
LAYER
  5
40
330
2
100
AcDbSymbolTableRecord
100
AcDbLayerTableRecord
  2
Camada 1
 70
     0
 62
     7
  6
Continuous
370
    -3
390
F
347
3E
  0
ENDTAB
  0
TABLE
  2
STYLE
  5
3
330
0
100
AcDbSymbolTable
 70
     1
  0
STYLE
  5
11
330
3
100
AcDbSymbolTableRecord
100
AcDbTextStyleTableRecord
  2
Standard
 70
     0
 40
0.0
 41
1.0
 50
0.0
 71
     0
 42
0.2
  3
txt
  4

  0
ENDTAB
  0
TABLE
  2
VIEW
  5
6
330
0
100
AcDbSymbolTable
 70
     0
  0
ENDTAB
  0
TABLE
  2
UCS
  5
7
330
0
100
AcDbSymbolTable
 70
     0
  0
ENDTAB
  0
TABLE
  2
APPID
  5
9
330
0
100
AcDbSymbolTable
 70
     2
  0
APPID
  5
12
330
9
100
AcDbSymbolTableRecord
100
AcDbRegAppTableRecord
  2
ACAD
 70
     0
  0
APPID
  5
3F
330
9
100
AcDbSymbolTableRecord
100
AcDbRegAppTableRecord
  2
ODA
 70
     0
  0
ENDTAB
  0
TABLE
  2
DIMSTYLE
  5
A
330
0
100
AcDbSymbolTable
 70
     1
100
AcDbDimStyleTable
  0
DIMSTYLE
105
27
330
A
100
AcDbSymbolTableRecord
100
AcDbDimStyleTableRecord
  2
Standard
 70
     0
178
     0
340
11
  0
ENDTAB
  0
TABLE
  2
BLOCK_RECORD
  5
1
330
0
100
AcDbSymbolTable
 70
     1
  0
BLOCK_RECORD
  5
1F
330
1
100
AcDbSymbolTableRecord
100
AcDbBlockTableRecord
  2
*Model_Space
340
22
 70
     0
280
     1
281
     0
  0
BLOCK_RECORD
  5
1B
330
1
100
AcDbSymbolTableRecord
100
AcDbBlockTableRecord
  2
*Paper_Space
340
1E
 70
     0
280
     1
281
     0
  0
BLOCK_RECORD
  5
23
330
1
100
AcDbSymbolTableRecord
100
AcDbBlockTableRecord
  2
*Paper_Space0
340
26
 70
     0
280
     1
281
     0
  0
ENDTAB
  0
ENDSEC
  0
SECTION
  2
BLOCKS
  0
BLOCK
  5
20
330
1F
100
AcDbEntity
  8
0
100
AcDbBlockBegin
  2
*Model_Space
 70
     0
 10
0.0
 20
0.0
 30
0.0
  3
*Model_Space
  1

  0
ENDBLK
  5
21
330
1F
100
AcDbEntity
  8
0
100
AcDbBlockEnd
  0
BLOCK
  5
1C
330
1B
100
AcDbEntity
 67
     1
  8
0
100
AcDbBlockBegin
  2
*Paper_Space
 70
     0
 10
0.0
 20
0.0
 30
0.0
  3
*Paper_Space
  1

  0
ENDBLK
  5
1D
330
1B
100
AcDbEntity
 67
     1
  8
0
100
AcDbBlockEnd
  0
BLOCK
  5
24
330
23
100
AcDbEntity
  8
0
100
AcDbBlockBegin
  2
*Paper_Space0
 70
     0
 10
0.0
 20
0.0
 30
0.0
  3
*Paper_Space0
  1

  0
ENDBLK
  5
25
330
23
100
AcDbEntity
  8
0
100
AcDbBlockEnd
  0
ENDSEC
  0
SECTION
  2
ENTITIES
  0
SPLINE
  5
41
330
1F
100
AcDbEntity
  8
Camada 1
100
AcDbSpline
210
0.0
220
0.0
230
1.0
 70
    11
 71
     3
 72
   568
 73
   564
 74
     0
 42
0.0000000001
 43
0.0000000001
 12
1.0
 22
0.0
 32
0.0
 13
1.0
 23
0.0
 33
0.0
 40
0.0
 40
0.0
 40
0.0
 40
0.0
 40
0.0070422535211268
 40
0.0070422535211268
 40
0.0070422535211268
 40
0.0070422535211268
 40
0.0140845070422535
 40
0.0140845070422535
 40
0.0140845070422535
 40
0.0140845070422535
 40
0.0211267605633803
 40
0.0211267605633803
 40
0.0211267605633803
 40
0.0211267605633803
 40
0.028169014084507
 40
0.028169014084507
 40
0.028169014084507
 40
0.028169014084507
 40
0.0352112676056338
 40
0.0352112676056338
 40
0.0352112676056338
 40
0.0352112676056338
 40
0.0422535211267606
 40
0.0422535211267606
 40
0.0422535211267606
 40
0.0422535211267606
 40
0.0492957746478873
 40
0.0492957746478873
 40
0.0492957746478873
 40
0.0492957746478873
 40
0.0563380281690141
 40
0.0563380281690141
 40
0.0563380281690141
 40
0.0563380281690141
 40
0.0633802816901408
 40
0.0633802816901408
 40
0.0633802816901408
 40
0.0633802816901408
 40
0.0704225352112676
 40
0.0704225352112676
 40
0.0704225352112676
 40
0.0704225352112676
 40
0.0774647887323944
 40
0.0774647887323944
 40
0.0774647887323944
 40
0.0774647887323944
 40
0.0845070422535211
 40
0.0845070422535211
 40
0.0845070422535211
 40
0.0845070422535211
 40
0.0915492957746479
 40
0.0915492957746479
 40
0.0915492957746479
 40
0.0915492957746479
 40
0.0985915492957746
 40
0.0985915492957746
 40
0.0985915492957746
 40
0.0985915492957746
 40
0.1056338028169014
 40
0.1056338028169014
 40
0.1056338028169014
 40
0.1056338028169014
 40
0.1126760563380282
 40
0.1126760563380282
 40
0.1126760563380282
 40
0.1126760563380282
 40
0.1197183098591549
 40
0.1197183098591549
 40
0.1197183098591549
 40
0.1197183098591549
 40
0.1267605633802817
 40
0.1267605633802817
 40
0.1267605633802817
 40
0.1267605633802817
 40
0.1338028169014084
 40
0.1338028169014084
 40
0.1338028169014084
 40
0.1338028169014084
 40
0.1408450704225352
 40
0.1408450704225352
 40
0.1408450704225352
 40
0.1408450704225352
 40
0.147887323943662
 40
0.147887323943662
 40
0.147887323943662
 40
0.147887323943662
 40
0.1549295774647887
 40
0.1549295774647887
 40
0.1549295774647887
 40
0.1549295774647887
 40
0.1619718309859155
 40
0.1619718309859155
 40
0.1619718309859155
 40
0.1619718309859155
 40
0.1690140845070423
 40
0.1690140845070423
 40
0.1690140845070423
 40
0.1690140845070423
 40
0.176056338028169
 40
0.176056338028169
 40
0.176056338028169
 40
0.176056338028169
 40
0.1830985915492958
 40
0.1830985915492958
 40
0.1830985915492958
 40
0.1830985915492958
 40
0.1901408450704225
 40
0.1901408450704225
 40
0.1901408450704225
 40
0.1901408450704225
 40
0.1971830985915493
 40
0.1971830985915493
 40
0.1971830985915493
 40
0.1971830985915493
 40
0.2042253521126761
 40
0.2042253521126761
 40
0.2042253521126761
 40
0.2042253521126761
 40
0.2112676056338028
 40
0.2112676056338028
 40
0.2112676056338028
 40
0.2112676056338028
 40
0.2183098591549296
 40
0.2183098591549296
 40
0.2183098591549296
 40
0.2183098591549296
 40
0.2253521126760563
 40
0.2253521126760563
 40
0.2253521126760563
 40
0.2253521126760563
 40
0.2323943661971831
 40
0.2323943661971831
 40
0.2323943661971831
 40
0.2323943661971831
 40
0.2394366197183098
 40
0.2394366197183098
 40
0.2394366197183098
 40
0.2394366197183098
 40
0.2464788732394366
 40
0.2464788732394366
 40
0.2464788732394366
 40
0.2464788732394366
 40
0.2535211267605634
 40
0.2535211267605634
 40
0.2535211267605634
 40
0.2535211267605634
 40
0.2605633802816901
 40
0.2605633802816901
 40
0.2605633802816901
 40
0.2605633802816901
 40
0.2676056338028169
 40
0.2676056338028169
 40
0.2676056338028169
 40
0.2676056338028169
 40
0.2746478873239437
 40
0.2746478873239437
 40
0.2746478873239437
 40
0.2746478873239437
 40
0.2816901408450704
 40
0.2816901408450704
 40
0.2816901408450704
 40
0.2816901408450704
 40
0.2887323943661972
 40
0.2887323943661972
 40
0.2887323943661972
 40
0.2887323943661972
 40
0.2957746478873239
 40
0.2957746478873239
 40
0.2957746478873239
 40
0.2957746478873239
 40
0.3028169014084507
 40
0.3028169014084507
 40
0.3028169014084507
 40
0.3028169014084507
 40
0.3098591549295774
 40
0.3098591549295774
 40
0.3098591549295774
 40
0.3098591549295774
 40
0.3169014084507042
 40
0.3169014084507042
 40
0.3169014084507042
 40
0.3169014084507042
 40
0.323943661971831
 40
0.323943661971831
 40
0.323943661971831
 40
0.323943661971831
 40
0.3309859154929577
 40
0.3309859154929577
 40
0.3309859154929577
 40
0.3309859154929577
 40
0.3380281690140845
 40
0.3380281690140845
 40
0.3380281690140845
 40
0.3380281690140845
 40
0.3450704225352113
 40
0.3450704225352113
 40
0.3450704225352113
 40
0.3450704225352113
 40
0.352112676056338
 40
0.352112676056338
 40
0.352112676056338
 40
0.352112676056338
 40
0.3591549295774648
 40
0.3591549295774648
 40
0.3591549295774648
 40
0.3591549295774648
 40
0.3661971830985916
 40
0.3661971830985916
 40
0.3661971830985916
 40
0.3661971830985916
 40
0.3732394366197183
 40
0.3732394366197183
 40
0.3732394366197183
 40
0.3732394366197183
 40
0.3802816901408451
 40
0.3802816901408451
 40
0.3802816901408451
 40
0.3802816901408451
 40
0.3873239436619718
 40
0.3873239436619718
 40
0.3873239436619718
 40
0.3873239436619718
 40
0.3943661971830986
 40
0.3943661971830986
 40
0.3943661971830986
 40
0.3943661971830986
 40
0.4014084507042254
 40
0.4014084507042254
 40
0.4014084507042254
 40
0.4014084507042254
 40
0.4084507042253521
 40
0.4084507042253521
 40
0.4084507042253521
 40
0.4084507042253521
 40
0.4154929577464789
 40
0.4154929577464789
 40
0.4154929577464789
 40
0.4154929577464789
 40
0.4225352112676056
 40
0.4225352112676056
 40
0.4225352112676056
 40
0.4225352112676056
 40
0.4295774647887324
 40
0.4295774647887324
 40
0.4295774647887324
 40
0.4295774647887324
 40
0.4366197183098591
 40
0.4366197183098591
 40
0.4366197183098591
 40
0.4366197183098591
 40
0.4436619718309859
 40
0.4436619718309859
 40
0.4436619718309859
 40
0.4436619718309859
 40
0.4507042253521127
 40
0.4507042253521127
 40
0.4507042253521127
 40
0.4507042253521127
 40
0.4577464788732394
 40
0.4577464788732394
 40
0.4577464788732394
 40
0.4577464788732394
 40
0.4647887323943662
 40
0.4647887323943662
 40
0.4647887323943662
 40
0.4647887323943662
 40
0.4718309859154929
 40
0.4718309859154929
 40
0.4718309859154929
 40
0.4718309859154929
 40
0.4788732394366197
 40
0.4788732394366197
 40
0.4788732394366197
 40
0.4788732394366197
 40
0.4859154929577465
 40
0.4859154929577465
 40
0.4859154929577465
 40
0.4859154929577465
 40
0.4929577464788732
 40
0.4929577464788732
 40
0.4929577464788732
 40
0.4929577464788732
 40
0.5
 40
0.5
 40
0.5
 40
0.5
 40
0.5070422535211268
 40
0.5070422535211268
 40
0.5070422535211268
 40
0.5070422535211268
 40
0.5140845070422535
 40
0.5140845070422535
 40
0.5140845070422535
 40
0.5140845070422535
 40
0.5211267605633803
 40
0.5211267605633803
 40
0.5211267605633803
 40
0.5211267605633803
 40
0.528169014084507
 40
0.528169014084507
 40
0.528169014084507
 40
0.528169014084507
 40
0.5352112676056338
 40
0.5352112676056338
 40
0.5352112676056338
 40
0.5352112676056338
 40
0.5422535211267606
 40
0.5422535211267606
 40
0.5422535211267606
 40
0.5422535211267606
 40
0.5492957746478874
 40
0.5492957746478874
 40
0.5492957746478874
 40
0.5492957746478874
 40
0.5563380281690141
 40
0.5563380281690141
 40
0.5563380281690141
 40
0.5563380281690141
 40
0.5633802816901409
 40
0.5633802816901409
 40
0.5633802816901409
 40
0.5633802816901409
 40
0.5704225352112676
 40
0.5704225352112676
 40
0.5704225352112676
 40
0.5704225352112676
 40
0.5774647887323944
 40
0.5774647887323944
 40
0.5774647887323944
 40
0.5774647887323944
 40
0.5845070422535211
 40
0.5845070422535211
 40
0.5845070422535211
 40
0.5845070422535211
 40
0.5915492957746479
 40
0.5915492957746479
 40
0.5915492957746479
 40
0.5915492957746479
 40
0.5985915492957746
 40
0.5985915492957746
 40
0.5985915492957746
 40
0.5985915492957746
 40
0.6056338028169014
 40
0.6056338028169014
 40
0.6056338028169014
 40
0.6056338028169014
 40
0.6126760563380281
 40
0.6126760563380281
 40
0.6126760563380281
 40
0.6126760563380281
 40
0.6197183098591549
 40
0.6197183098591549
 40
0.6197183098591549
 40
0.6197183098591549
 40
0.6267605633802817
 40
0.6267605633802817
 40
0.6267605633802817
 40
0.6267605633802817
 40
0.6338028169014085
 40
0.6338028169014085
 40
0.6338028169014085
 40
0.6338028169014085
 40
0.6408450704225352
 40
0.6408450704225352
 40
0.6408450704225352
 40
0.6408450704225352
 40
0.647887323943662
 40
0.647887323943662
 40
0.647887323943662
 40
0.647887323943662
 40
0.6549295774647887
 40
0.6549295774647887
 40
0.6549295774647887
 40
0.6549295774647887
 40
0.6619718309859155
 40
0.6619718309859155
 40
0.6619718309859155
 40
0.6619718309859155
 40
0.6690140845070423
 40
0.6690140845070423
 40
0.6690140845070423
 40
0.6690140845070423
 40
0.676056338028169
 40
0.676056338028169
 40
0.676056338028169
 40
0.676056338028169
 40
0.6830985915492958
 40
0.6830985915492958
 40
0.6830985915492958
 40
0.6830985915492958
 40
0.6901408450704225
 40
0.6901408450704225
 40
0.6901408450704225
 40
0.6901408450704225
 40
0.6971830985915493
 40
0.6971830985915493
 40
0.6971830985915493
 40
0.6971830985915493
 40
0.704225352112676
 40
0.704225352112676
 40
0.704225352112676
 40
0.704225352112676
 40
0.7112676056338029
 40
0.7112676056338029
 40
0.7112676056338029
 40
0.7112676056338029
 40
0.7183098591549296
 40
0.7183098591549296
 40
0.7183098591549296
 40
0.7183098591549296
 40
0.7253521126760564
 40
0.7253521126760564
 40
0.7253521126760564
 40
0.7253521126760564
 40
0.7323943661971831
 40
0.7323943661971831
 40
0.7323943661971831
 40
0.7323943661971831
 40
0.7394366197183099
 40
0.7394366197183099
 40
0.7394366197183099
 40
0.7394366197183099
 40
0.7464788732394366
 40
0.7464788732394366
 40
0.7464788732394366
 40
0.7464788732394366
 40
0.7535211267605634
 40
0.7535211267605634
 40
0.7535211267605634
 40
0.7535211267605634
 40
0.7605633802816901
 40
0.7605633802816901
 40
0.7605633802816901
 40
0.7605633802816901
 40
0.7676056338028169
 40
0.7676056338028169
 40
0.7676056338028169
 40
0.7676056338028169
 40
0.7746478873239436
 40
0.7746478873239436
 40
0.7746478873239436
 40
0.7746478873239436
 40
0.7816901408450704
 40
0.7816901408450704
 40
0.7816901408450704
 40
0.7816901408450704
 40
0.7887323943661971
 40
0.7887323943661971
 40
0.7887323943661971
 40
0.7887323943661971
 40
0.795774647887324
 40
0.795774647887324
 40
0.795774647887324
 40
0.795774647887324
 40
0.8028169014084507
 40
0.8028169014084507
 40
0.8028169014084507
 40
0.8028169014084507
 40
0.8098591549295775
 40
0.8098591549295775
 40
0.8098591549295775
 40
0.8098591549295775
 40
0.8169014084507042
 40
0.8169014084507042
 40
0.8169014084507042
 40
0.8169014084507042
 40
0.823943661971831
 40
0.823943661971831
 40
0.823943661971831
 40
0.823943661971831
 40
0.8309859154929577
 40
0.8309859154929577
 40
0.8309859154929577
 40
0.8309859154929577
 40
0.8380281690140845
 40
0.8380281690140845
 40
0.8380281690140845
 40
0.8380281690140845
 40
0.8450704225352113
 40
0.8450704225352113
 40
0.8450704225352113
 40
0.8450704225352113
 40
0.852112676056338
 40
0.852112676056338
 40
0.852112676056338
 40
0.852112676056338
 40
0.8591549295774648
 40
0.8591549295774648
 40
0.8591549295774648
 40
0.8591549295774648
 40
0.8661971830985915
 40
0.8661971830985915
 40
0.8661971830985915
 40
0.8661971830985915
 40
0.8732394366197183
 40
0.8732394366197183
 40
0.8732394366197183
 40
0.8732394366197183
 40
0.8802816901408451
 40
0.8802816901408451
 40
0.8802816901408451
 40
0.8802816901408451
 40
0.8873239436619719
 40
0.8873239436619719
 40
0.8873239436619719
 40
0.8873239436619719
 40
0.8943661971830986
 40
0.8943661971830986
 40
0.8943661971830986
 40
0.8943661971830986
 40
0.9014084507042254
 40
0.9014084507042254
 40
0.9014084507042254
 40
0.9014084507042254
 40
0.9084507042253521
 40
0.9084507042253521
 40
0.9084507042253521
 40
0.9084507042253521
 40
0.9154929577464789
 40
0.9154929577464789
 40
0.9154929577464789
 40
0.9154929577464789
 40
0.9225352112676056
 40
0.9225352112676056
 40
0.9225352112676056
 40
0.9225352112676056
 40
0.9295774647887324
 40
0.9295774647887324
 40
0.9295774647887324
 40
0.9295774647887324
 40
0.9366197183098591
 40
0.9366197183098591
 40
0.9366197183098591
 40
0.9366197183098591
 40
0.9436619718309859
 40
0.9436619718309859
 40
0.9436619718309859
 40
0.9436619718309859
 40
0.9507042253521126
 40
0.9507042253521126
 40
0.9507042253521126
 40
0.9507042253521126
 40
0.9577464788732394
 40
0.9577464788732394
 40
0.9577464788732394
 40
0.9577464788732394
 40
0.9647887323943662
 40
0.9647887323943662
 40
0.9647887323943662
 40
0.9647887323943662
 40
0.971830985915493
 40
0.971830985915493
 40
0.971830985915493
 40
0.971830985915493
 40
0.9788732394366197
 40
0.9788732394366197
 40
0.9788732394366197
 40
0.9788732394366197
 40
0.9859154929577465
 40
0.9859154929577465
 40
0.9859154929577465
 40
0.9859154929577465
 40
1.0
 40
1.0
 40
1.0
 40
1.0
 10
3.56853
 20
-3.49276
 30
0.0
 10
3.75424
 20
-3.52991
 30
0.0
 10
3.91
 20
-3.58566
 30
0.0
 10
4.03634
 20
-3.65998
 30
0.0
 10
4.03634
 20
-3.65998
 30
0.0
 10
4.16244
 20
-3.7343
 30
0.0
 10
4.26457
 20
-3.81966
 30
0.0
 10
4.34249
 20
-3.91618
 30
0.0
 10
4.34249
 20
-3.91618
 30
0.0
 10
4.42044
 20
-4.01267
 30
0.0
 10
4.47624
 20
-4.11105
 30
0.0
 10
4.50963
 20
-4.21132
 30
0.0
 10
4.50963
 20
-4.21132
 30
0.0
 10
4.54294
 20
-4.31157
 30
0.0
 10
4.55969
 20
-4.40634
 30
0.0
 10
4.55969
 20
-4.49543
 30
0.0
 10
4.55969
 20
-4.49543
 30
0.0
 10
4.55969
 20
-4.65145
 30
0.0
 10
4.5226
 20
-4.75919
 30
0.0
 10
4.44846
 20
-4.81851
 30
0.0
 10
4.44846
 20
-4.81851
 30
0.0
 10
4.44846
 20
-4.81851
 30
0.0
 10
3.91384
 20
-6.38947
 30
0.0
 10
3.91384
 20
-6.38947
 30
0.0
 10
3.91384
 20
-6.38947
 30
0.0
 10
3.91384
 20
-6.38947
 30
0.0
 10
3.9027
 20
-6.58989
 30
0.0
 10
3.9027
 20
-6.58989
 30
0.0
 10
3.9027
 20
-6.58989
 30
0.0
 10
3.70958
 20
-6.73837
 30
0.0
 10
3.49058
 20
-6.87207
 30
0.0
 10
3.24561
 20
-6.9911
 30
0.0
 10
3.24561
 20
-6.9911
 30
0.0
 10
3.03019
 20
-7.09503
 30
0.0
 10
2.76859
 20
-7.18591
 30
0.0
 10
2.46038
 20
-7.26402
 30
0.0
 10
2.46038
 20
-7.26402
 30
0.0
 10
2.15227
 20
-7.34178
 30
0.0
 10
1.79776
 20
-7.38094
 30
0.0
 10
1.39689
 20
-7.38094
 30
0.0
 10
1.39689
 20
-7.38094
 30
0.0
 10
1.00343
 20
-7.38094
 30
0.0
 10
0.69164
 20
-7.36975
 30
0.0
 10
0.4614
 20
-7.34752
 30
0.0
 10
0.4614
 20
-7.34752
 30
0.0
 10
0.23127
 20
-7.32503
 30
0.0
 10
0.0568
 20
-7.29728
 30
0.0
 10
-0.06197
 20
-7.26402
 30
0.0
 10
-0.06197
 20
-7.26402
 30
0.0
 10
-0.18085
 20
-7.2305
 30
0.0
 10
-0.2607
 20
-7.18972
 30
0.0
 10
-0.30152
 20
-7.14152
 30
0.0
 10
-0.30152
 20
-7.14152
 30
0.0
 10
-0.34227
 20
-7.09305
 30
0.0
 10
-0.36642
 20
-7.04667
 30
0.0
 10
-0.37375
 20
-7.00211
 30
0.0
 10
-0.37375
 20
-7.00211
 30
0.0
 10
-0.37375
 20
-7.00211
 30
0.0
 10
-0.37375
 20
-6.92416
 30
0.0
 10
-0.37375
 20
-6.92416
 30
0.0
 10
-0.37375
 20
-6.92416
 30
0.0
 10
-0.5148
 20
-6.09972
 30
0.0
 10
-0.6744
 20
-5.36076
 30
0.0
 10
-0.85267
 20
-4.707
 30
0.0
 10
-0.85267
 20
-4.707
 30
0.0
 10
-0.92702
 20
-4.4322
 30
0.0
 10
-1.00859
 20
-4.16109
 30
0.0
 10
-1.09765
 20
-3.89375
 30
0.0
 10
-1.09765
 20
-3.89375
 30
0.0
 10
-1.18684
 20
-3.62639
 30
0.0
 10
-1.28132
 20
-3.38697
 30
0.0
 10
-1.38165
 20
-3.17519
 30
0.0
 10
-1.38165
 20
-3.17519
 30
0.0
 10
-1.48198
 20
-2.9636
 30
0.0
 10
-1.58771
 20
-2.79456
 30
0.0
 10
-1.69907
 20
-2.6683
 30
0.0
 10
-1.69907
 20
-2.6683
 30
0.0
 10
-1.81051
 20
-2.54199
 30
0.0
 10
-1.92539
 20
-2.47883
 30
0.0
 10
-2.04417
 20
-2.47883
 30
0.0
 10
-2.04417
 20
-2.47883
 30
0.0
 10
-2.06655
 20
-2.47883
 30
0.0
 10
-2.10367
 20
-2.48444
 30
0.0
 10
-2.15561
 20
-2.49563
 30
0.0
 10
-2.15561
 20
-2.49563
 30
0.0
 10
-2.20757
 20
-2.50682
 30
0.0
 10
-2.26337
 20
-2.54199
 30
0.0
 10
-2.32264
 20
-2.60138
 30
0.0
 10
-2.32264
 20
-2.60138
 30
0.0
 10
-2.38204
 20
-2.66088
 30
0.0
 10
-2.44144
 20
-2.75558
 30
0.0
 10
-2.50081
 20
-2.88549
 30
0.0
 10
-2.50081
 20
-2.88549
 30
0.0
 10
-2.56031
 20
-3.01556
 30
0.0
 10
-2.61225
 20
-3.20318
 30
0.0
 10
-2.65681
 20
-3.44818
 30
0.0
 10
-2.65681
 20
-3.44818
 30
0.0
 10
-2.70137
 20
-3.69332
 30
0.0
 10
-2.7441
 20
-3.97743
 30
0.0
 10
-2.78492
 20
-4.30059
 30
0.0
 10
-2.78492
 20
-4.30059
 30
0.0
 10
-2.82564
 20
-4.62367
 30
0.0
 10
-2.86287
 20
-4.943
 30
0.0
 10
-2.89618
 20
-5.25867
 30
0.0
 10
-2.89618
 20
-5.25867
 30
0.0
 10
-2.9296
 20
-5.5744
 30
0.0
 10
-2.95939
 20
-5.86576
 30
0.0
 10
-2.98537
 20
-6.13312
 30
0.0
 10
-2.98537
 20
-6.13312
 30
0.0
 10
-3.01135
 20
-6.40048
 30
0.0
 10
-3.02429
 20
-6.60093
 30
0.0
 10
-3.02429
 20
-6.73476
 30
0.0
 10
-3.02429
 20
-6.73476
 30
0.0
 10
-3.02429
 20
-6.73476
 30
0.0
 10
-3.10171
 20
-6.76812
 30
0.0
 10
-3.10171
 20
-6.76812
 30
0.0
 10
-3.10171
 20
-6.76812
 30
0.0
 10
-3.10171
 20
-6.76812
 30
0.0
 10
-3.41096
 20
-6.73476
 30
0.0
 10
-3.41096
 20
-6.73476
 30
0.0
 10
-3.41096
 20
-6.73476
 30
0.0
 10
-3.41096
 20
-6.62329
 30
0.0
 10
-3.40948
 20
-6.51195
 30
0.0
 10
-3.4062
 20
-6.40064
 30
0.0
 10
-3.4062
 20
-6.40064
 30
0.0
 10
-3.40302
 20
-6.28901
 30
0.0
 10
-3.40131
 20
-6.18127
 30
0.0
 10
-3.40131
 20
-6.0774
 30
0.0
 10
-3.40131
 20
-6.0774
 30
0.0
 10
-3.40131
 20
-5.23812
 30
0.0
 10
-3.44044
 20
-4.49736
 30
0.0
 10
-3.51839
 20
-3.85477
 30
0.0
 10
-3.51839
 20
-3.85477
 30
0.0
 10
-3.59634
 20
-3.21236
 30
0.0
 10
-3.68733
 20
-2.65729
 30
0.0
 10
-3.79115
 20
-2.18932
 30
0.0
 10
-3.79115
 20
-2.18932
 30
0.0
 10
-3.89508
 20
-1.72135
 30
0.0
 10
-4.00104
 20
-1.33511
 30
0.0
 10
-4.10857
 20
-1.03058
 30
0.0
 10
-4.10857
 20
-1.03058
 30
0.0
 10
-4.2162
 20
-0.72604
 30
0.0
 10
-4.29978
 20
-0.48832
 30
0.0
 10
-4.35918
 20
-0.31747
 30
0.0
 10
-4.35918
 20
-0.31747
 30
0.0
 10
-4.35918
 20
-0.31747
 30
0.0
 10
-4.54838
 20
-0.16142
 30
0.0
 10
-4.54838
 20
-0.16142
 30
0.0
 10
-4.54838
 20
-0.16142
 30
0.0
 10
-4.55603
 20
-0.16142
 30
0.0
 10
-4.55962
 20
-0.15782
 30
0.0
 10
-4.55962
 20
-0.15039
 30
0.0
 10
-4.55962
 20
-0.15039
 30
0.0
 10
-4.55962
 20
-0.15039
 30
0.0
 10
-4.55962
 20
-0.10586
 30
0.0
 10
-4.55962
 20
-0.10586
 30
0.0
 10
-4.55962
 20
-0.10586
 30
0.0
 10
-4.55962
 20
-0.06869
 30
0.0
 10
-4.55039
 20
-0.00558
 30
0.0
 10
-4.53184
 20
0.08356
 30
0.0
 10
-4.53184
 20
0.08356
 30
0.0
 10
-4.51329
 20
0.1727
 30
0.0
 10
-4.47244
 20
0.28962
 30
0.0
 10
-4.40936
 20
0.43442
 30
0.0
 10
-4.40936
 20
0.43442
 30
0.0
 10
-4.34615
 20
0.57931
 30
0.0
 10
-4.25347
 20
0.75756
 30
0.0
 10
-4.13097
 20
0.9693
 30
0.0
 10
-4.13097
 20
0.9693
 30
0.0
 10
-4.00849
 20
1.18094
 30
0.0
 10
-3.83953
 20
1.42793
 30
0.0
 10
-3.62413
 20
1.71024
 30
0.0
 10
-3.62413
 20
1.71024
 30
0.0
 10
-3.41659
 20
1.98498
 30
0.0
 10
-3.24604
 20
2.20403
 30
0.0
 10
-3.11285
 20
2.36747
 30
0.0
 10
-3.11285
 20
2.36747
 30
0.0
 10
-2.97963
 20
2.5309
 30
0.0
 10
-2.8739
 20
2.66081
 30
0.0
 10
-2.79596
 20
2.75747
 30
0.0
 10
-2.79596
 20
2.75747
 30
0.0
 10
-2.71801
 20
2.85396
 30
0.0
 10
-2.66425
 20
2.92635
 30
0.0
 10
-2.63446
 20
2.97467
 30
0.0
 10
-2.63446
 20
2.97467
 30
0.0
 10
-2.60488
 20
3.02304
 30
0.0
 10
-2.5899
 20
3.0768
 30
0.0
 10
-2.5899
 20
3.1363
 30
0.0
 10
-2.5899
 20
3.1363
 30
0.0
 10
-2.5899
 20
3.18826
 30
0.0
 10
-2.60104
 20
3.25883
 30
0.0
 10
-2.62332
 20
3.34794
 30
0.0
 10
-2.62332
 20
3.34794
 30
0.0
 10
-2.67528
 20
3.47425
 30
0.0
 10
-2.75693
 20
3.6747
 30
0.0
 10
-2.8683
 20
3.94958
 30
0.0
 10
-2.8683
 20
3.94958
 30
0.0
 10
-2.97974
 20
4.22435
 30
0.0
 10
-3.10576
 20
4.52148
 30
0.0
 10
-3.24628
 20
4.8408
 30
0.0
 10
-3.24628
 20
4.8408
 30
0.0
 10
-3.38694
 20
5.16006
 30
0.0
 10
-3.53151
 20
5.47211
 30
0.0
 10
-3.67997
 20
5.77665
 30
0.0
 10
-3.67997
 20
5.77665
 30
0.0
 10
-3.82845
 20
6.08119
 30
0.0
 10
-3.96207
 20
6.32256
 30
0.0
 10
-4.08084
 20
6.50079
 30
0.0
 10
-4.08084
 20
6.50079
 30
0.0
 10
-4.14034
 20
6.58249
 30
0.0
 10
-4.17194
 20
6.63821
 30
0.0
 10
-4.17556
 20
6.66798
 30
0.0
 10
-4.17556
 20
6.66798
 30
0.0
 10
-4.17916
 20
6.69761
 30
0.0
 10
-4.18098
 20
6.74955
 30
0.0
 10
-4.18098
 20
6.82387
 30
0.0
 10
-4.18098
 20
6.82387
 30
0.0
 10
-4.18098
 20
6.85345
 30
0.0
 10
-4.16434
 20
6.88883
 30
0.0
 10
-4.13103
 20
6.92976
 30
0.0
 10
-4.13103
 20
6.92976
 30
0.0
 10
-4.09761
 20
6.97053
 30
0.0
 10
-4.04385
 20
7.01146
 30
0.0
 10
-3.96953
 20
7.05224
 30
0.0
 10
-3.96953
 20
7.05224
 30
0.0
 10
-3.89518
 20
7.09304
 30
0.0
 10
-3.8007
 20
7.12659
 30
0.0
 10
-3.68553
 20
7.15257
 30
0.0
 10
-3.68553
 20
7.15257
 30
0.0
 10
-3.57046
 20
7.17855
 30
0.0
 10
-3.42772
 20
7.19154
 30
0.0
 10
-3.25738
 20
7.19154
 30
0.0
 10
-3.25738
 20
7.19154
 30
0.0
 10
-3.08728
 20
7.19154
 30
0.0
 10
-2.88154
 20
7.18593
 30
0.0
 10
-2.64016
 20
7.17474
 30
0.0
 10
-2.64016
 20
7.17474
 30
0.0
 10
-2.39889
 20
7.16355
 30
0.0
 10
-2.16505
 20
7.15061
 30
0.0
 10
-1.93851
 20
7.13577
 30
0.0
 10
-1.93851
 20
7.13577
 30
0.0
 10
-1.71208
 20
7.12098
 30
0.0
 10
-1.51727
 20
7.106
 30
0.0
 10
-1.35383
 20
7.09121
 30
0.0
 10
-1.35383
 20
7.09121
 30
0.0
 10
-1.1905
 20
7.07642
 30
0.0
 10
-1.09771
 20
7.06898
 30
0.0
 10
-1.07544
 20
7.06898
 30
0.0
 10
-1.07544
 20
7.06898
 30
0.0
 10
-1.03102
 20
7.11343
 30
0.0
 10
-0.9641
 20
7.17656
 30
0.0
 10
-0.87489
 20
7.25829
 30
0.0
 10
-0.87489
 20
7.25829
 30
0.0
 10
-0.7858
 20
7.34004
 30
0.0
 10
-0.67825
 20
7.38098
 30
0.0
 10
-0.55193
 20
7.38098
 30
0.0
 10
-0.55193
 20
7.38098
 30
0.0
 10
-0.40345
 20
7.38098
 30
0.0
 10
-0.27914
 20
7.33825
 30
0.0
 10
-0.17881
 20
7.25287
 30
0.0
 10
-0.17881
 20
7.25287
 30
0.0
 10
-0.07869
 20
7.16738
 30
0.0
 10
-0.02855
 20
7.06901
 30
0.0
 10
-0.02855
 20
6.95757
 30
0.0
 10
-0.02855
 20
6.95757
 30
0.0
 10
-0.02855
 20
6.91301
 30
0.0
 10
-0.03236
 20
6.87962
 30
0.0
 10
-0.03958
 20
6.85729
 30
0.0
 10
-0.03958
 20
6.85729
 30
0.0
 10
0.00487
 20
6.82012
 30
0.0
 10
0.04199
 20
6.77754
 30
0.0
 10
0.07178
 20
6.72918
 30
0.0
 10
0.07178
 20
6.72918
 30
0.0
 10
0.10136
 20
6.68081
 30
0.0
 10
0.11634
 20
6.62329
 30
0.0
 10
0.11634
 20
6.55651
 30
0.0
 10
0.11634
 20
6.55651
 30
0.0
 10
0.11634
 20
6.40787
 30
0.0
 10
0.07541
 20
6.31137
 30
0.0
 10
-0.00616
 20
6.26676
 30
0.0
 10
-0.00616
 20
6.26676
 30
0.0
 10
-0.08792
 20
6.2222
 30
0.0
 10
-0.16226
 20
6.20001
 30
0.0
 10
-0.22897
 20
6.20001
 30
0.0
 10
-0.22897
 20
6.20001
 30
0.0
 10
-0.24384
 20
6.14051
 30
0.0
 10
-0.25675
 20
6.08674
 30
0.0
 10
-0.268
 20
6.03838
 30
0.0
 10
-0.268
 20
6.03838
 30
0.0
 10
-0.27914
 20
5.99007
 30
0.0
 10
-0.29218
 20
5.94744
 30
0.0
 10
-0.30692
 20
5.91032
 30
0.0
 10
-0.30692
 20
5.91032
 30
0.0
 10
-0.23278
 20
5.89553
 30
0.0
 10
-0.17701
 20
5.88055
 30
0.0
 10
-0.13989
 20
5.86571
 30
0.0
 10
-0.13989
 20
5.86571
 30
0.0
 10
-0.10277
 20
5.85092
 30
0.0
 10
-0.08412
 20
5.8138
 30
0.0
 10
-0.08412
 20
5.75424
 30
0.0
 10
-0.08412
 20
5.75424
 30
0.0
 10
-0.08412
 20
5.67254
 30
0.0
 10
-0.1083
 20
5.59819
 30
0.0
 10
-0.15667
 20
5.53149
 30
0.0
 10
-0.15667
 20
5.53149
 30
0.0
 10
-0.20504
 20
5.46458
 30
0.0
 10
-0.23282
 20
5.42375
 30
0.0
 10
-0.24023
 20
5.40896
 30
0.0
 10
-0.24023
 20
5.40896
 30
0.0
 10
-0.24023
 20
5.40896
 30
0.0
 10
-0.25126
 20
5.16382
 30
0.0
 10
-0.25126
 20
5.16382
 30
0.0
 10
-0.25126
 20
5.16382
 30
0.0
 10
-0.2588
 20
5.14144
 30
0.0
 10
-0.26983
 20
5.12302
 30
0.0
 10
-0.28457
 20
5.10823
 30
0.0
 10
-0.28457
 20
5.10823
 30
0.0
 10
-0.29952
 20
5.09328
 30
0.0
 10
-0.31256
 20
5.08029
 30
0.0
 10
-0.3237
 20
5.0691
 30
0.0
 10
-0.3237
 20
5.0691
 30
0.0
 10
-0.33494
 20
5.05791
 30
0.0
 10
-0.35148
 20
5.05251
 30
0.0
 10
-0.37376
 20
5.05251
 30
0.0
 10
-0.37376
 20
5.05251
 30
0.0
 10
-0.36643
 20
5.03013
 30
0.0
 10
-0.35529
 20
5.00401
 30
0.0
 10
-0.34034
 20
4.9744
 30
0.0
 10
-0.34034
 20
4.9744
 30
0.0
 10
-0.31817
 20
4.92987
 30
0.0
 10
-0.27353
 20
4.87407
 30
0.0
 10
-0.20659
 20
4.80732
 30
0.0
 10
-0.20659
 20
4.80732
 30
0.0
 10
-0.17701
 20
4.77758
 30
0.0
 10
-0.11211
 20
4.70884
 30
0.0
 10
-0.01178
 20
4.60116
 30
0.0
 10
-0.01178
 20
4.60116
 30
0.0
 10
0.08831
 20
4.49347
 30
0.0
 10
0.19047
 20
4.36901
 30
0.0
 10
0.2944
 20
4.22791
 30
0.0
 10
0.2944
 20
4.22791
 30
0.0
 10
0.39833
 20
4.08686
 30
0.0
 10
0.49302
 20
3.93816
 30
0.0
 10
0.57838
 20
3.78233
 30
0.0
 10
0.57838
 20
3.78233
 30
0.0
 10
0.66366
 20
3.62644
 30
0.0
 10
0.70641
 20
3.48534
 30
0.0
 10
0.70641
 20
3.35908
 30
0.0
 10
0.70641
 20
3.35908
 30
0.0
 10
0.70641
 20
3.34413
 30
0.0
 10
0.7045
 20
3.33114
 30
0.0
 10
0.70088
 20
3.31995
 30
0.0
 10
0.70088
 20
3.31995
 30
0.0
 10
0.69728
 20
3.30876
 30
0.0
 10
0.69538
 20
3.29577
 30
0.0
 10
0.69538
 20
3.28098
 30
0.0
 10
0.69538
 20
3.28098
 30
0.0
 10
0.6731
 20
3.15472
 30
0.0
 10
0.64328
 20
3.05807
 30
0.0
 10
0.60619
 20
2.99129
 30
0.0
 10
0.60619
 20
2.99129
 30
0.0
 10
0.56896
 20
2.92454
 30
0.0
 10
0.53195
 20
2.87257
 30
0.0
 10
0.49493
 20
2.8354
 30
0.0
 10
0.49493
 20
2.8354
 30
0.0
 10
0.45027
 20
2.79079
 30
0.0
 10
0.40574
 20
2.76105
 30
0.0
 10
0.36132
 20
2.74626
 30
0.0
 10
0.36132
 20
2.74626
 30
0.0
 10
0.3909
 20
2.70157
 30
0.0
 10
0.42069
 20
2.65336
 30
0.0
 10
0.45038
 20
2.6014
 30
0.0
 10
0.45038
 20
2.6014
 30
0.0
 10
0.47266
 20
2.55684
 30
0.0
 10
0.49483
 20
2.5085
 30
0.0
 10
0.51719
 20
2.45657
 30
0.0
 10
0.51719
 20
2.45657
 30
0.0
 10
0.53936
 20
2.40461
 30
0.0
 10
0.55061
 20
2.34888
 30
0.0
 10
0.55061
 20
2.28949
 30
0.0
 10
0.55061
 20
2.28949
 30
0.0
 10
0.55061
 20
2.28949
 30
0.0
 10
0.55061
 20
2.23377
 30
0.0
 10
0.55061
 20
2.23377
 30
0.0
 10
0.55061
 20
2.23377
 30
0.0
 10
0.56537
 20
2.1966
 30
0.0
 10
0.58392
 20
2.1631
 30
0.0
 10
0.60628
 20
2.13344
 30
0.0
 10
0.60628
 20
2.13344
 30
0.0
 10
0.62115
 20
2.1037
 30
0.0
 10
0.63396
 20
2.07034
 30
0.0
 10
0.64509
 20
2.03316
 30
0.0
 10
0.64509
 20
2.03316
 30
0.0
 10
0.65633
 20
1.99599
 30
0.0
 10
0.66186
 20
1.95897
 30
0.0
 10
0.66186
 20
1.9218
 30
0.0
 10
0.66186
 20
1.9218
 30
0.0
 10
0.66186
 20
1.8623
 30
0.0
 10
0.64141
 20
1.80477
 30
0.0
 10
0.60056
 20
1.74921
 30
0.0
 10
0.60056
 20
1.74921
 30
0.0
 10
0.55984
 20
1.69349
 30
0.0
 10
0.47996
 20
1.65068
 30
0.0
 10
0.36132
 20
1.6211
 30
0.0
 10
0.36132
 20
1.6211
 30
0.0
 10
0.36873
 20
1.5616
 30
0.0
 10
0.37616
 20
1.5004
 30
0.0
 10
0.38347
 20
1.43724
 30
0.0
 10
0.38347
 20
1.43724
 30
0.0
 10
0.3909
 20
1.37414
 30
0.0
 10
0.40204
 20
1.30902
 30
0.0
 10
0.41689
 20
1.24227
 30
0.0
 10
0.41689
 20
1.24227
 30
0.0
 10
0.41689
 20
1.24227
 30
0.0
 10
0.56175
 20
1.24225
 30
0.0
 10
0.56175
 20
1.24225
 30
0.0
 10
0.56175
 20
1.24225
 30
0.0
 10
0.61371
 20
1.21987
 30
0.0
 10
0.66187
 20
1.19388
 30
0.0
 10
0.70642
 20
1.1643
 30
0.0
 10
0.70642
 20
1.1643
 30
0.0
 10
0.74362
 20
1.13453
 30
0.0
 10
0.77884
 20
1.10114
 30
0.0
 10
0.81236
 20
1.06397
 30
0.0
 10
0.81236
 20
1.06397
 30
0.0
 10
0.84578
 20
1.02685
 30
0.0
 10
0.86253
 20
0.98227
 30
0.0
 10
0.86253
 20
0.9303
 30
0.0
 10
0.86253
 20
0.9303
 30
0.0
 10
0.86253
 20
0.82624
 30
0.0
 10
0.83636
 20
0.69995
 30
0.0
 10
0.78437
 20
0.55147
 30
0.0
 10
0.78437
 20
0.55147
 30
0.0
 10
0.73241
 20
0.40283
 30
0.0
 10
0.6099
 20
0.27657
 30
0.0
 10
0.41689
 20
0.17264
 30
0.0
 10
0.41689
 20
0.17264
 30
0.0
 10
0.41689
 20
0.17264
 30
0.0
 10
0.42813
 20
-0.06136
 30
0.0
 10
0.42813
 20
-0.06136
 30
0.0
 10
0.42813
 20
-0.06136
 30
0.0
 10
0.43546
 20
-0.06136
 30
0.0
 10
0.45771
 20
-0.06332
 30
0.0
 10
0.49483
 20
-0.06692
 30
0.0
 10
0.49483
 20
-0.06692
 30
0.0
 10
0.53195
 20
-0.07052
 30
0.0
 10
0.57098
 20
-0.08356
 30
0.0
 10
0.6117
 20
-0.10589
 30
0.0
 10
0.6117
 20
-0.10589
 30
0.0
 10
0.65253
 20
-0.12827
 30
0.0
 10
0.68965
 20
-0.16341
 30
0.0
 10
0.72327
 20
-0.21178
 30
0.0
 10
0.72327
 20
-0.21178
 30
0.0
 10
0.75658
 20
-0.26015
 30
0.0
 10
0.77336
 20
-0.3287
 30
0.0
 10
0.77336
 20
-0.41778
 30
0.0
 10
0.77336
 20
-0.41778
 30
0.0
 10
0.77336
 20
-0.41042
 30
0.0
 10
0.76963
 20
-0.43821
 30
0.0
 10
0.76222
 20
-0.50136
 30
0.0
 10
0.76222
 20
-0.50136
 30
0.0
 10
0.75468
 20
-0.56446
 30
0.0
 10
0.74727
 20
-0.63881
 30
0.0
 10
0.73981
 20
-0.72411
 30
0.0
 10
0.73981
 20
-0.72411
 30
0.0
 10
0.7324
 20
-0.80965
 30
0.0
 10
0.72507
 20
-0.89694
 30
0.0
 10
0.71766
 20
-0.98605
 30
0.0
 10
0.71766
 20
-0.98605
 30
0.0
 10
0.71012
 20
-1.07514
 30
0.0
 10
0.70271
 20
-1.14573
 30
0.0
 10
0.69538
 20
-1.19769
 30
0.0
 10
0.69538
 20
-1.19769
 30
0.0
 10
0.69538
 20
-1.19769
 30
0.0
 10
0.77334
 20
-1.19769
 30
0.0
 10
0.77334
 20
-1.19769
 30
0.0
 10
0.77334
 20
-1.19769
 30
0.0
 10
0.86229
 20
-1.19769
 30
0.0
 10
0.95331
 20
-1.22182
 30
0.0
 10
1.0462
 20
-1.27019
 30
0.0
 10
1.0462
 20
-1.27019
 30
0.0
 10
1.13891
 20
-1.31856
 30
0.0
 10
1.18548
 20
-1.43907
 30
0.0
 10
1.18548
 20
-1.63209
 30
0.0
 10
1.18548
 20
-1.63209
 30
0.0
 10
1.18548
 20
-1.71398
 30
0.0
 10
1.1631
 20
-1.79192
 30
0.0
 10
1.11857
 20
-1.86627
 30
0.0
 10
1.11857
 20
-1.86627
 30
0.0
 10
1.07401
 20
-1.94057
 30
0.0
 10
0.9739
 20
-1.97758
 30
0.0
 10
0.81803
 20
-1.97758
 30
0.0
 10
0.81803
 20
-1.97758
 30
0.0
 10
0.79562
 20
-1.97758
 30
0.0
 10
0.77146
 20
-1.97758
 30
0.0
 10
0.74548
 20
-1.97758
 30
0.0
 10
0.74548
 20
-1.97758
 30
0.0
 10
0.7195
 20
-1.97758
 30
0.0
 10
0.69161
 20
-1.97398
 30
0.0
 10
0.66192
 20
-1.96639
 30
0.0
 10
0.66192
 20
-1.96639
 30
0.0
 10
0.66933
 20
-1.98877
 30
0.0
 10
0.66369
 20
-2.00356
 30
0.0
 10
0.64536
 20
-2.011
 30
0.0
 10
0.64536
 20
-2.011
 30
0.0
 10
0.62671
 20
-2.01854
 30
0.0
 10
0.60443
 20
-2.02973
 30
0.0
 10
0.57845
 20
-2.04452
 30
0.0
 10
0.57845
 20
-2.04452
 30
0.0
 10
0.55249
 20
-2.05931
 30
0.0
 10
0.52828
 20
-2.08349
 30
0.0
 10
0.50603
 20
-2.11686
 30
0.0
 10
0.50603
 20
-2.11686
 30
0.0
 10
0.48375
 20
-2.15044
 30
0.0
 10
0.47272
 20
-2.2042
 30
0.0
 10
0.47272
 20
-2.27836
 30
0.0
 10
0.47272
 20
-2.27836
 30
0.0
 10
0.47272
 20
-2.34527
 30
0.0
 10
0.48566
 20
-2.41777
 30
0.0
 10
0.51167
 20
-2.49572
 30
0.0
 10
0.51167
 20
-2.49572
 30
0.0
 10
0.53763
 20
-2.57367
 30
0.0
 10
0.59142
 20
-2.63497
 30
0.0
 10
0.67317
 20
-2.67939
 30
0.0
 10
0.67317
 20
-2.67939
 30
0.0
 10
0.74731
 20
-2.72408
 30
0.0
 10
0.81041
 20
-2.76308
 30
0.0
 10
0.86235
 20
-2.79642
 30
0.0
 10
0.86235
 20
-2.79642
 30
0.0
 10
0.91431
 20
-2.83002
 30
0.0
 10
0.95884
 20
-2.85778
 30
0.0
 10
0.9961
 20
-2.88
 30
0.0
 10
0.9961
 20
-2.88
 30
0.0
 10
0.9961
 20
-2.88
 30
0.0
 10
1.09643
 20
-2.94691
 30
0.0
 10
1.09643
 20
-2.94691
 30
0.0
 10
1.09643
 20
-2.94691
 30
0.0
 10
1.27447
 20
-2.93948
 30
0.0
 10
1.43412
 20
-2.93204
 30
0.0
 10
1.57527
 20
-2.92453
 30
0.0
 10
1.57527
 20
-2.92453
 30
0.0
 10
1.70148
 20
-2.9171
 30
0.0
 10
1.81662
 20
-2.91154
 30
0.0
 10
1.92058
 20
-2.90786
 30
0.0
 10
1.92058
 20
-2.90786
 30
0.0
 10
2.02451
 20
-2.90426
 30
0.0
 10
2.0838
 20
-2.9023
 30
0.0
 10
2.09862
 20
-2.9023
 30
0.0
 10
2.09862
 20
-2.9023
 30
0.0
 10
2.1282
 20
-2.9023
 30
0.0
 10
2.184
 20
-2.91725
 30
0.0
 10
2.26565
 20
-2.94691
 30
0.0
 10
2.26565
 20
-2.94691
 30
0.0
 10
2.34719
 20
-2.97665
 30
0.0
 10
2.42898
 20
-3.02121
 30
0.0
 10
2.51063
 20
-3.08052
 30
0.0
 10
2.51063
 20
-3.08052
 30
0.0
 10
2.585
 20
-3.14008
 30
0.0
 10
2.69634
 20
-3.20683
 30
0.0
 10
2.84483
 20
-3.28113
 30
0.0
 10
2.84483
 20
-3.28113
 30
0.0
 10
2.99319
 20
-3.35545
 30
0.0
 10
3.23449
 20
-3.42598
 30
0.0
 10
3.56853
 20
-3.49276
 30
0.0
  0
SPLINE
  5
42
330
1F
100
AcDbEntity
  8
Camada 1
100
AcDbSpline
210
0.0
220
0.0
230
1.0
 70
    11
 71
     3
 72
    44
 73
    40
 74
     0
 42
0.0000000001
 43
0.0000000001
 12
1.0
 22
0.0
 32
0.0
 13
1.0
 23
0.0
 33
0.0
 40
0.0
 40
0.0
 40
0.0
 40
0.0
 40
0.0909090909090909
 40
0.0909090909090909
 40
0.0909090909090909
 40
0.0909090909090909
 40
0.1818181818181818
 40
0.1818181818181818
 40
0.1818181818181818
 40
0.1818181818181818
 40
0.2727272727272727
 40
0.2727272727272727
 40
0.2727272727272727
 40
0.2727272727272727
 40
0.3636363636363636
 40
0.3636363636363636
 40
0.3636363636363636
 40
0.3636363636363636
 40
0.4545454545454545
 40
0.4545454545454545
 40
0.4545454545454545
 40
0.4545454545454545
 40
0.5454545454545454
 40
0.5454545454545454
 40
0.5454545454545454
 40
0.5454545454545454
 40
0.6363636363636364
 40
0.6363636363636364
 40
0.6363636363636364
 40
0.6363636363636364
 40
0.7272727272727273
 40
0.7272727272727273
 40
0.7272727272727273
 40
0.7272727272727273
 40
0.8181818181818182
 40
0.8181818181818182
 40
0.8181818181818182
 40
0.8181818181818182
 40
1.0
 40
1.0
 40
1.0
 40
1.0
 10
-0.77815
 20
4.59587
 30
0.0
 10
-0.71134
 20
4.63304
 30
0.0
 10
-0.67793
 20
4.68125
 30
0.0
 10
-0.67793
 20
4.74076
 30
0.0
 10
-0.67793
 20
4.74076
 30
0.0
 10
-0.67793
 20
4.75555
 30
0.0
 10
-0.68177
 20
4.77219
 30
0.0
 10
-0.68917
 20
4.79077
 30
0.0
 10
-0.68917
 20
4.79077
 30
0.0
 10
-0.6965
 20
4.80934
 30
0.0
 10
-0.70391
 20
4.82609
 30
0.0
 10
-0.71134
 20
4.84094
 30
0.0
 10
-0.71134
 20
4.84094
 30
0.0
 10
-0.71888
 20
4.85573
 30
0.0
 10
-0.72629
 20
4.86692
 30
0.0
 10
-0.73372
 20
4.8743
 30
0.0
 10
-0.73372
 20
4.8743
 30
0.0
 10
-0.74846
 20
4.82234
 30
0.0
 10
-0.77444
 20
4.7814
 30
0.0
 10
-0.81167
 20
4.75182
 30
0.0
 10
-0.81167
 20
4.75182
 30
0.0
 10
-0.84879
 20
4.72205
 30
0.0
 10
-0.88581
 20
4.69986
 30
0.0
 10
-0.92293
 20
4.68507
 30
0.0
 10
-0.92293
 20
4.68507
 30
0.0
 10
-0.96759
 20
4.66269
 30
0.0
 10
-1.01572
 20
4.6479
 30
0.0
 10
-1.06768
 20
4.64051
 30
0.0
 10
-1.06768
 20
4.64051
 30
0.0
 10
-1.06048
 20
4.62567
 30
0.0
 10
-1.04924
 20
4.61072
 30
0.0
 10
-1.03426
 20
4.5959
 30
0.0
 10
-1.03426
 20
4.5959
 30
0.0
 10
-1.00468
 20
4.56616
 30
0.0
 10
-0.96372
 20
4.55137
 30
0.0
 10
-0.91178
 20
4.55137
 30
0.0
 10
-0.91178
 20
4.55137
 30
0.0
 10
-0.87478
 20
4.55134
 30
0.0
 10
-0.83022
 20
4.56613
 30
0.0
 10
-0.77815
 20
4.59587
 30
0.0
  0
SPLINE
  5
43
330
1F
100
AcDbEntity
  8
Camada 1
100
AcDbSpline
210
0.0
220
0.0
230
1.0
 70
    11
 71
     3
 72
    40
 73
    36
 74
     0
 42
0.0000000001
 43
0.0000000001
 12
1.0
 22
0.0
 32
0.0
 13
1.0
 23
0.0
 33
0.0
 40
0.0
 40
0.0
 40
0.0
 40
0.0
 40
0.1
 40
0.1
 40
0.1
 40
0.1
 40
0.2
 40
0.2
 40
0.2
 40
0.2
 40
0.3
 40
0.3
 40
0.3
 40
0.3
 40
0.4
 40
0.4
 40
0.4
 40
0.4
 40
0.5
 40
0.5
 40
0.5
 40
0.5
 40
0.6
 40
0.6
 40
0.6
 40
0.6
 40
0.7
 40
0.7
 40
0.7
 40
0.7
 40
0.8
 40
0.8
 40
0.8
 40
0.8
 40
1.0
 40
1.0
 40
1.0
 40
1.0
 10
-0.97871
 20
6.48959
 30
0.0
 10
-0.9491
 20
6.45242
 30
0.0
 10
-0.94349
 20
6.4059
 30
0.0
 10
-0.96196
 20
6.35034
 30
0.0
 10
-0.96196
 20
6.35034
 30
0.0
 10
-0.98051
 20
6.29462
 30
0.0
 10
-0.99175
 20
6.24078
 30
0.0
 10
-0.99538
 20
6.18884
 30
0.0
 10
-0.99538
 20
6.18884
 30
0.0
 10
-0.99908
 20
6.13693
 30
0.0
 10
-0.97874
 20
6.09036
 30
0.0
 10
-0.93418
 20
6.04959
 30
0.0
 10
-0.93418
 20
6.04959
 30
0.0
 10
-0.88962
 20
6.00882
 30
0.0
 10
-0.78929
 20
5.97728
 30
0.0
 10
-0.6334
 20
5.95505
 30
0.0
 10
-0.6334
 20
5.95505
 30
0.0
 10
-0.574
 20
6.02924
 30
0.0
 10
-0.52206
 20
6.12952
 30
0.0
 10
-0.47751
 20
6.25575
 30
0.0
 10
-0.47751
 20
6.25575
 30
0.0
 10
-0.49989
 20
6.26303
 30
0.0
 10
-0.53881
 20
6.27977
 30
0.0
 10
-0.59448
 20
6.30576
 30
0.0
 10
-0.59448
 20
6.30576
 30
0.0
 10
-0.65015
 20
6.33174
 30
0.0
 10
-0.70592
 20
6.35772
 30
0.0
 10
-0.76151
 20
6.38371
 30
0.0
 10
-0.76151
 20
6.38371
 30
0.0
 10
-0.81718
 20
6.40969
 30
0.0
 10
-0.86734
 20
6.43208
 30
0.0
 10
-0.9119
 20
6.45062
 30
0.0
 10
-0.9119
 20
6.45062
 30
0.0
 10
-0.95653
 20
6.46909
 30
0.0
 10
-0.97871
 20
6.48208
 30
0.0
 10
-0.97871
 20
6.48959
 30
0.0
  0
SPLINE
  5
44
330
1F
100
AcDbEntity
  8
Camada 1
100
AcDbSpline
210
0.0
220
0.0
230
1.0
 70
    11
 71
     3
 72
    36
 73
    32
 74
     0
 42
0.0000000001
 43
0.0000000001
 12
1.0
 22
0.0
 32
0.0
 13
1.0
 23
0.0
 33
0.0
 40
0.0
 40
0.0
 40
0.0
 40
0.0
 40
0.1111111111111111
 40
0.1111111111111111
 40
0.1111111111111111
 40
0.1111111111111111
 40
0.2222222222222222
 40
0.2222222222222222
 40
0.2222222222222222
 40
0.2222222222222222
 40
0.3333333333333333
 40
0.3333333333333333
 40
0.3333333333333333
 40
0.3333333333333333
 40
0.4444444444444444
 40
0.4444444444444444
 40
0.4444444444444444
 40
0.4444444444444444
 40
0.5555555555555556
 40
0.5555555555555556
 40
0.5555555555555556
 40
0.5555555555555556
 40
0.6666666666666666
 40
0.6666666666666666
 40
0.6666666666666666
 40
0.6666666666666666
 40
0.7777777777777778
 40
0.7777777777777778
 40
0.7777777777777778
 40
0.7777777777777778
 40
1.0
 40
1.0
 40
1.0
 40
1.0
 10
-0.54431
 20
7.28065
 30
0.0
 10
-0.60381
 20
7.28065
 30
0.0
 10
-0.65575
 20
7.25451
 30
0.0
 10
-0.70031
 20
7.2026
 30
0.0
 10
-0.70031
 20
7.2026
 30
0.0
 10
-0.74487
 20
7.15064
 30
0.0
 10
-0.78207
 20
7.09867
 30
0.0
 10
-0.81167
 20
7.04671
 30
0.0
 10
-0.81167
 20
7.04671
 30
0.0
 10
-0.72248
 20
7.03192
 30
0.0
 10
-0.6354
 20
7.02253
 30
0.0
 10
-0.54984
 20
7.01893
 30
0.0
 10
-0.54984
 20
7.01893
 30
0.0
 10
-0.46456
 20
7.01512
 30
0.0
 10
-0.4144
 20
7.01332
 30
0.0
 10
-0.39956
 20
7.01332
 30
0.0
 10
-0.39956
 20
7.01332
 30
0.0
 10
-0.39956
 20
7.01332
 30
0.0
 10
-0.38842
 20
7.01331
 30
0.0
 10
-0.38842
 20
7.01331
 30
0.0
 10
-0.38842
 20
7.01331
 30
0.0
 10
-0.38842
 20
7.01331
 30
0.0
 10
-0.34389
 20
7.01331
 30
0.0
 10
-0.34389
 20
7.01331
 30
0.0
 10
-0.34389
 20
7.01331
 30
0.0
 10
-0.35884
 20
7.07268
 30
0.0
 10
-0.38112
 20
7.13203
 30
0.0
 10
-0.4108
 20
7.19159
 30
0.0
 10
-0.4108
 20
7.19159
 30
0.0
 10
-0.44039
 20
7.25091
 30
0.0
 10
-0.48492
 20
7.28065
 30
0.0
 10
-0.54431
 20
7.28065
 30
0.0
  0
SPLINE
  5
45
330
1F
100
AcDbEntity
  8
Camada 1
100
AcDbSpline
210
0.0
220
0.0
230
1.0
 70
    11
 71
     3
 72
    44
 73
    40
 74
     0
 42
0.0000000001
 43
0.0000000001
 12
1.0
 22
0.0
 32
0.0
 13
1.0
 23
0.0
 33
0.0
 40
0.0
 40
0.0
 40
0.0
 40
0.0
 40
0.0909090909090909
 40
0.0909090909090909
 40
0.0909090909090909
 40
0.0909090909090909
 40
0.1818181818181818
 40
0.1818181818181818
 40
0.1818181818181818
 40
0.1818181818181818
 40
0.2727272727272727
 40
0.2727272727272727
 40
0.2727272727272727
 40
0.2727272727272727
 40
0.3636363636363636
 40
0.3636363636363636
 40
0.3636363636363636
 40
0.3636363636363636
 40
0.4545454545454545
 40
0.4545454545454545
 40
0.4545454545454545
 40
0.4545454545454545
 40
0.5454545454545454
 40
0.5454545454545454
 40
0.5454545454545454
 40
0.5454545454545454
 40
0.6363636363636364
 40
0.6363636363636364
 40
0.6363636363636364
 40
0.6363636363636364
 40
0.7272727272727273
 40
0.7272727272727273
 40
0.7272727272727273
 40
0.7272727272727273
 40
0.8181818181818182
 40
0.8181818181818182
 40
0.8181818181818182
 40
0.8181818181818182
 40
1.0
 40
1.0
 40
1.0
 40
1.0
 10
-0.63337
 20
2.81302
 30
0.0
 10
-0.63337
 20
2.80548
 30
0.0
 10
-0.63157
 20
2.79807
 30
0.0
 10
-0.62776
 20
2.79069
 30
0.0
 10
-0.62776
 20
2.79069
 30
0.0
 10
-0.62416
 20
2.7831
 30
0.0
 10
-0.62226
 20
2.77206
 30
0.0
 10
-0.62226
 20
2.75727
 30
0.0
 10
-0.62226
 20
2.75727
 30
0.0
 10
-0.62226
 20
2.7275
 30
0.0
 10
-0.6298
 20
2.68297
 30
0.0
 10
-0.64454
 20
2.62358
 30
0.0
 10
-0.64454
 20
2.62358
 30
0.0
 10
-0.65197
 20
2.59384
 30
0.0
 10
-0.65938
 20
2.57162
 30
0.0
 10
-0.66682
 20
2.55683
 30
0.0
 10
-0.66682
 20
2.55683
 30
0.0
 10
-0.66682
 20
2.55683
 30
0.0
 10
-0.37718
 20
2.657
 30
0.0
 10
-0.37718
 20
2.657
 30
0.0
 10
-0.37718
 20
2.657
 30
0.0
 10
-0.36998
 20
2.67182
 30
0.0
 10
-0.36615
 20
2.69793
 30
0.0
 10
-0.36615
 20
2.73505
 30
0.0
 10
-0.36615
 20
2.73505
 30
0.0
 10
-0.36615
 20
2.8018
 30
0.0
 10
-0.37356
 20
2.83702
 30
0.0
 10
-0.3884
 20
2.84078
 30
0.0
 10
-0.3884
 20
2.84078
 30
0.0
 10
-0.40316
 20
2.84446
 30
0.0
 10
-0.41811
 20
2.84642
 30
0.0
 10
-0.43296
 20
2.84642
 30
0.0
 10
-0.43296
 20
2.84642
 30
0.0
 10
-0.47752
 20
2.84642
 30
0.0
 10
-0.52205
 20
2.83883
 30
0.0
 10
-0.56671
 20
2.82404
 30
0.0
 10
-0.56671
 20
2.82404
 30
0.0
 10
-0.59638
 20
2.81667
 30
0.0
 10
-0.61864
 20
2.81302
 30
0.0
 10
-0.63337
 20
2.81302
 30
0.0
  0
SPLINE
  5
46
330
1F
100
AcDbEntity
  8
Camada 1
100
AcDbSpline
210
0.0
220
0.0
230
1.0
 70
    11
 71
     3
 72
    24
 73
    20
 74
     0
 42
0.0000000001
 43
0.0000000001
 12
1.0
 22
0.0
 32
0.0
 13
1.0
 23
0.0
 33
0.0
 40
0.0
 40
0.0
 40
0.0
 40
0.0
 40
0.1666666666666667
 40
0.1666666666666667
 40
0.1666666666666667
 40
0.1666666666666667
 40
0.3333333333333333
 40
0.3333333333333333
 40
0.3333333333333333
 40
0.3333333333333333
 40
0.5
 40
0.5
 40
0.5
 40
0.5
 40
0.6666666666666666
 40
0.6666666666666666
 40
0.6666666666666666
 40
0.6666666666666666
 40
1.0
 40
1.0
 40
1.0
 40
1.0
 10
0.00134
 20
1.50961
 30
0.0
 10
-0.11743
 20
1.47259
 30
0.0
 10
-0.23432
 20
1.43013
 30
0.0
 10
-0.34939
 20
1.38208
 30
0.0
 10
-0.34939
 20
1.38208
 30
0.0
 10
-0.46456
 20
1.33408
 30
0.0
 10
-0.54071
 20
1.28424
 30
0.0
 10
-0.57773
 20
1.23254
 30
0.0
 10
-0.57773
 20
1.23254
 30
0.0
 10
-0.57773
 20
1.23254
 30
0.0
 10
0.02369
 20
1.23254
 30
0.0
 10
0.02369
 20
1.23254
 30
0.0
 10
0.02369
 20
1.23254
 30
0.0
 10
0.01604
 20
1.29162
 30
0.0
 10
0.01054
 20
1.34327
 30
0.0
 10
0.00692
 20
1.38769
 30
0.0
 10
0.00692
 20
1.38769
 30
0.0
 10
0.00316
 20
1.43193
 30
0.0
 10
0.00134
 20
1.47259
 30
0.0
 10
0.00134
 20
1.50961
 30
0.0
  0
SPLINE
  5
47
330
1F
100
AcDbEntity
  8
Camada 1
100
AcDbSpline
210
0.0
220
0.0
230
1.0
 70
    11
 71
     3
 72
    40
 73
    36
 74
     0
 42
0.0000000001
 43
0.0000000001
 12
1.0
 22
0.0
 32
0.0
 13
1.0
 23
0.0
 33
0.0
 40
0.0
 40
0.0
 40
0.0
 40
0.0
 40
0.1
 40
0.1
 40
0.1
 40
0.1
 40
0.2
 40
0.2
 40
0.2
 40
0.2
 40
0.3
 40
0.3
 40
0.3
 40
0.3
 40
0.4
 40
0.4
 40
0.4
 40
0.4
 40
0.5
 40
0.5
 40
0.5
 40
0.5
 40
0.6
 40
0.6
 40
0.6
 40
0.6
 40
0.7
 40
0.7
 40
0.7
 40
0.7
 40
0.8
 40
0.8
 40
0.8
 40
0.8
 40
1.0
 40
1.0
 40
1.0
 40
1.0
 10
-0.55545
 20
0.25723
 30
0.0
 10
-0.57029
 20
0.21267
 30
0.0
 10
-0.57773
 20
0.18293
 30
0.0
 10
-0.57773
 20
0.16809
 30
0.0
 10
-0.57773
 20
0.16809
 30
0.0
 10
-0.57773
 20
0.10874
 30
0.0
 10
-0.56469
 20
0.05861
 30
0.0
 10
-0.5387
 20
0.01781
 30
0.0
 10
-0.5387
 20
0.01781
 30
0.0
 10
-0.51272
 20
-0.02296
 30
0.0
 10
-0.48134
 20
-0.05834
 30
0.0
 10
-0.44408
 20
-0.08792
 30
0.0
 10
-0.44408
 20
-0.08792
 30
0.0
 10
-0.40696
 20
-0.11769
 30
0.0
 10
-0.3588
 20
-0.14742
 30
0.0
 10
-0.29922
 20
-0.17706
 30
0.0
 10
-0.29922
 20
-0.17706
 30
0.0
 10
-0.29922
 20
-0.17706
 30
0.0
 10
0.12385
 20
0.27961
 30
0.0
 10
0.12385
 20
0.27961
 30
0.0
 10
0.12385
 20
0.27961
 30
0.0
 10
0.12385
 20
0.27961
 30
0.0
 10
0.13496
 20
0.39092
 30
0.0
 10
0.13496
 20
0.39092
 30
0.0
 10
0.13496
 20
0.39092
 30
0.0
 10
0.00875
 20
0.44288
 30
0.0
 10
-0.10258
 20
0.46887
 30
0.0
 10
-0.19908
 20
0.46887
 30
0.0
 10
-0.19908
 20
0.46887
 30
0.0
 10
-0.30301
 20
0.46887
 30
0.0
 10
-0.38479
 20
0.44469
 30
0.0
 10
-0.44406
 20
0.39648
 30
0.0
 10
-0.44406
 20
0.39648
 30
0.0
 10
-0.50346
 20
0.34817
 30
0.0
 10
-0.54072
 20
0.30178
 30
0.0
 10
-0.55545
 20
0.25723
 30
0.0
  0
SPLINE
  5
48
330
1F
100
AcDbEntity
  8
Camada 1
100
AcDbSpline
210
0.0
220
0.0
230
1.0
 70
    11
 71
     3
 72
    24
 73
    20
 74
     0
 42
0.0000000001
 43
0.0000000001
 12
1.0
 22
0.0
 32
0.0
 13
1.0
 23
0.0
 33
0.0
 40
0.0
 40
0.0
 40
0.0
 40
0.0
 40
0.1666666666666667
 40
0.1666666666666667
 40
0.1666666666666667
 40
0.1666666666666667
 40
0.3333333333333333
 40
0.3333333333333333
 40
0.3333333333333333
 40
0.3333333333333333
 40
0.5
 40
0.5
 40
0.5
 40
0.5
 40
0.6666666666666666
 40
0.6666666666666666
 40
0.6666666666666666
 40
0.6666666666666666
 40
1.0
 40
1.0
 40
1.0
 40
1.0
 10
-0.3884
 20
4.31721
 30
0.0
 10
-0.35117
 20
4.31721
 30
0.0
 10
-0.30664
 20
4.30602
 30
0.0
 10
-0.25468
 20
4.28379
 30
0.0
 10
-0.25468
 20
4.28379
 30
0.0
 10
-0.20272
 20
4.26141
 30
0.0
 10
-0.15456
 20
4.23542
 30
0.0
 10
-0.11003
 20
4.20584
 30
0.0
 10
-0.11003
 20
4.20584
 30
0.0
 10
-0.05807
 20
4.17607
 30
0.0
 10
-0.00608
 20
4.13893
 30
0.0
 10
0.04589
 20
4.09437
 30
0.0
 10
0.04589
 20
4.09437
 30
0.0
 10
0.04589
 20
4.09437
 30
0.0
 10
-0.24364
 20
4.50662
 30
0.0
 10
-0.24364
 20
4.50662
 30
0.0
 10
-0.24364
 20
4.50662
 30
0.0
 10
-0.24364
 20
4.50662
 30
0.0
 10
-0.3884
 20
4.31721
 30
0.0
 10
-0.3884
 20
4.31721
 30
0.0
  0
SPLINE
  5
49
330
1F
100
AcDbEntity
  8
Camada 1
100
AcDbSpline
210
0.0
220
0.0
230
1.0
 70
    11
 71
     3
 72
    36
 73
    32
 74
     0
 42
0.0000000001
 43
0.0000000001
 12
1.0
 22
0.0
 32
0.0
 13
1.0
 23
0.0
 33
0.0
 40
0.0
 40
0.0
 40
0.0
 40
0.0
 40
0.1111111111111111
 40
0.1111111111111111
 40
0.1111111111111111
 40
0.1111111111111111
 40
0.2222222222222222
 40
0.2222222222222222
 40
0.2222222222222222
 40
0.2222222222222222
 40
0.3333333333333333
 40
0.3333333333333333
 40
0.3333333333333333
 40
0.3333333333333333
 40
0.4444444444444444
 40
0.4444444444444444
 40
0.4444444444444444
 40
0.4444444444444444
 40
0.5555555555555556
 40
0.5555555555555556
 40
0.5555555555555556
 40
0.5555555555555556
 40
0.6666666666666666
 40
0.6666666666666666
 40
0.6666666666666666
 40
0.6666666666666666
 40
0.7777777777777778
 40
0.7777777777777778
 40
0.7777777777777778
 40
0.7777777777777778
 40
1.0
 40
1.0
 40
1.0
 40
1.0
 10
-0.12117
 20
-1.19756
 30
0.0
 10
-0.10643
 20
-1.2051
 30
0.0
 10
-0.07661
 20
-1.20875
 30
0.0
 10
-0.03208
 20
-1.20875
 30
0.0
 10
-0.03208
 20
-1.20875
 30
0.0
 10
0.06441
 20
-1.20875
 30
0.0
 10
0.15734
 20
-1.19772
 30
0.0
 10
0.2465
 20
-1.17533
 30
0.0
 10
0.2465
 20
-1.17533
 30
0.0
 10
0.29084
 20
-1.16054
 30
0.0
 10
0.33921
 20
-1.14575
 30
0.0
 10
0.39117
 20
-1.13077
 30
0.0
 10
0.39117
 20
-1.13077
 30
0.0
 10
0.39117
 20
-1.13077
 30
0.0
 10
0.19072
 20
-0.90812
 30
0.0
 10
0.19072
 20
-0.90812
 30
0.0
 10
0.19072
 20
-0.90812
 30
0.0
 10
0.15363
 20
-0.95265
 30
0.0
 10
0.09042
 20
-0.97487
 30
0.0
 10
0.00133
 20
-0.97487
 30
0.0
 10
0.00133
 20
-0.97487
 30
0.0
 10
-0.06548
 20
-0.97487
 30
0.0
 10
-0.13602
 20
-0.96746
 30
0.0
 10
-0.21015
 20
-0.95249
 30
0.0
 10
-0.21015
 20
-0.95249
 30
0.0
 10
-0.23994
 20
-0.94513
 30
0.0
 10
-0.27336
 20
-0.93392
 30
0.0
 10
-0.31048
 20
-0.91913
 30
0.0
 10
-0.31048
 20
-0.91913
 30
0.0
 10
-0.31048
 20
-0.91913
 30
0.0
 10
-0.12117
 20
-1.19756
 30
0.0
 10
-0.12117
 20
-1.19756
 30
0.0
  0
ENDSEC
  0
SECTION
  2
OBJECTS
  0
DICTIONARY
  5
C
330
0
100
AcDbDictionary
281
     1
  3
ACAD_GROUP
350
D
  3
ACAD_LAYOUT
350
1A
  3
ACAD_MATERIAL
350
3B
  3
ACAD_MLEADERSTYLE
350
6B
  3
ACAD_MLINESTYLE
350
17
  3
ACAD_PLOTSETTINGS
350
19
  3
ACAD_PLOTSTYLENAME
350
E
  3
ACAD_TABLESTYLE
350
6A
  3
ACAD_VISUALSTYLE
350
2A
  0
DICTIONARY
  5
D
102
{ACAD_REACTORS
330
C
102
}
330
C
100
AcDbDictionary
281
     1
  0
DICTIONARY
  5
1A
102
{ACAD_REACTORS
330
C
102
}
330
C
100
AcDbDictionary
281
     1
  3
Layout1
350
1E
  3
Layout2
350
26
  3
Model
350
22
  0
DICTIONARY
  5
3B
102
{ACAD_REACTORS
330
C
102
}
330
C
100
AcDbDictionary
281
     1
  3
ByBlock
350
3D
  3
ByLayer
350
3C
  3
Global
350
3E
  0
DICTIONARY
  5
6B
102
{ACAD_REACTORS
330
C
102
}
330
C
100
AcDbDictionary
281
     1
  0
DICTIONARY
  5
17
102
{ACAD_REACTORS
330
C
102
}
330
C
100
AcDbDictionary
281
     1
  3
Standard
350
18
  0
DICTIONARY
  5
19
102
{ACAD_REACTORS
330
C
102
}
330
C
100
AcDbDictionary
281
     1
  0
ACDBDICTIONARYWDFLT
  5
E
102
{ACAD_REACTORS
330
C
102
}
330
C
100
AcDbDictionary
281
     1
  3
Normal
350
F
100
AcDbDictionaryWithDefault
340
F
  0
DICTIONARY
  5
6A
102
{ACAD_REACTORS
330
C
102
}
330
C
100
AcDbDictionary
281
     1
  0
DICTIONARY
  5
2A
102
{ACAD_REACTORS
330
C
102
}
330
C
100
AcDbDictionary
281
     1
  3
2dWireframe
350
2F
  3
3D Hidden
350
31
  3
3dWireframe
350
30
  3
Basic
350
32
  3
Brighten
350
36
  3
ColorChange
350
3A
  3
Conceptual
350
34
  3
Dim
350
35
  3
Facepattern
350
39
  3
Flat
350
2B
  3
FlatWithEdges
350
2C
  3
Gouraud
350
2D
  3
GouraudWithEdges
350
2E
  3
Linepattern
350
38
  3
Realistic
350
33
  3
Thicken
350
37
  0
LAYOUT
  5
1E
102
{ACAD_REACTORS
330
1A
102
}
330
1A
100
AcDbPlotSettings
  1

  2
none_device
  4

  6

 40
0.0
 41
0.0
 42
0.0
 43
0.0
 44
0.0
 45
0.0
 46
0.0
 47
0.0
 48
0.0
 49
0.0
140
0.0
141
0.0
142
1.0
143
1.0
 70
   688
 72
     0
 73
     0
 74
     5
  7

 75
    16
 76
     0
 77
     2
 78
   300
147
1.0
148
0.0
149
0.0
100
AcDbLayout
  1
Layout1
 70
     1
 71
     1
 10
0.0
 20
0.0
 11
12.0
 21
9.0
 12
0.0
 22
0.0
 32
0.0
 14
1.000000000000000E+20
 24
1.000000000000000E+20
 34
1.000000000000000E+20
 15
-1.000000000000000E+20
 25
-1.000000000000000E+20
 35
-1.000000000000000E+20
146
0.0
 13
0.0
 23
0.0
 33
0.0
 16
1.0
 26
0.0
 36
0.0
 17
0.0
 27
1.0
 37
0.0
 76
     0
330
1B
  0
LAYOUT
  5
26
102
{ACAD_REACTORS
330
1A
102
}
330
1A
100
AcDbPlotSettings
  1

  2
none_device
  4

  6

 40
0.0
 41
0.0
 42
0.0
 43
0.0
 44
0.0
 45
0.0
 46
0.0
 47
0.0
 48
0.0
 49
0.0
140
0.0
141
0.0
142
1.0
143
1.0
 70
   688
 72
     0
 73
     0
 74
     5
  7

 75
    16
 76
     0
 77
     2
 78
   300
147
1.0
148
0.0
149
0.0
100
AcDbLayout
  1
Layout2
 70
     1
 71
     2
 10
0.0
 20
0.0
 11
0.0
 21
0.0
 12
0.0
 22
0.0
 32
0.0
 14
0.0
 24
0.0
 34
0.0
 15
0.0
 25
0.0
 35
0.0
146
0.0
 13
0.0
 23
0.0
 33
0.0
 16
1.0
 26
0.0
 36
0.0
 17
0.0
 27
1.0
 37
0.0
 76
     0
330
23
  0
LAYOUT
  5
22
102
{ACAD_REACTORS
330
1A
102
}
330
1A
100
AcDbPlotSettings
  1

  2
none_device
  4

  6

 40
0.0
 41
0.0
 42
0.0
 43
0.0
 44
0.0
 45
0.0
 46
0.0
 47
0.0
 48
0.0
 49
0.0
140
0.0
141
0.0
142
1.0
143
1.0
 70
  1712
 72
     0
 73
     0
 74
     0
  7

 75
     0
 76
     0
 77
     2
 78
   300
147
1.0
148
0.0
149
0.0
100
AcDbLayout
  1
Model
 70
     1
 71
     0
 10
0.0
 20
0.0
 11
12.0
 21
9.0
 12
0.0
 22
0.0
 32
0.0
 14
-4.55962
 24
-7.38094
 34
0.0
 15
4.55969
 25
7.38098
 35
0.0
146
0.0
 13
0.0
 23
0.0
 33
0.0
 16
1.0
 26
0.0
 36
0.0
 17
0.0
 27
1.0
 37
0.0
 76
     0
330
1F
331
29
  0
MATERIAL
  5
3D
102
{ACAD_REACTORS
330
3B
102
}
330
3B
100
AcDbMaterial
  1
ByBlock
 72
     1
 94
      127
  0
MATERIAL
  5
3C
102
{ACAD_REACTORS
330
3B
102
}
330
3B
100
AcDbMaterial
  1
ByLayer
 72
     1
 94
      127
  0
MATERIAL
  5
3E
102
{ACAD_REACTORS
330
3B
102
}
330
3B
100
AcDbMaterial
  1
Global
 72
     1
 94
      127
  0
MLINESTYLE
  5
18
102
{ACAD_REACTORS
330
17
102
}
330
17
100
AcDbMlineStyle
  2
Standard
 70
     0
  3

 62
   256
 51
90.0
 52
90.0
 71
     2
 49
0.5
 62
   256
  6
BYLAYER
 49
-0.5
 62
   256
  6
BYLAYER
  0
ACDBPLACEHOLDER
  5
F
102
{ACAD_REACTORS
330
E
102
}
330
E
  0
VISUALSTYLE
  5
2F
102
{ACAD_REACTORS
330
2A
102
}
102
{ACAD_XDICTIONARY
360
52
102
}
330
2A
100
AcDbVisualStyle
  2
2dWireframe
 70
     4
 71
     0
 72
     2
 73
     0
 90
        0
 40
-0.6
 41
-30.0
 62
     5
 63
     7
421
 16777215
 74
     1
 91
        4
 64
     7
 65
   257
 75
     1
175
     1
 42
1.0
 92
        0
 66
   257
 43
1.0
 76
     1
 77
     6
 78
     2
 67
     7
 79
     5
170
     0
171
     0
290
     0
174
     0
 93
        1
 44
0.0
173
     0
291
     0
 45
0.0
  0
VISUALSTYLE
  5
31
102
{ACAD_REACTORS
330
2A
102
}
102
{ACAD_XDICTIONARY
360
56
102
}
330
2A
100
AcDbVisualStyle
  2
3D Hidden
 70
     6
 71
     1
 72
     2
 73
     2
 90
        0
 40
-0.6
 41
-30.0
 62
     5
 63
     7
421
 16777215
 74
     2
 91
        2
 64
     7
 65
   257
 75
     2
175
     1
 42
40.0
 92
        0
 66
   257
 43
1.0
 76
     1
 77
     6
 78
     2
 67
     7
 79
     3
170
     0
171
     0
290
     0
174
     0
 93
        1
 44
0.0
173
     0
291
     0
 45
0.0
  0
VISUALSTYLE
  5
30
102
{ACAD_REACTORS
330
2A
102
}
102
{ACAD_XDICTIONARY
360
54
102
}
330
2A
100
AcDbVisualStyle
  2
3dWireframe
 70
     5
 71
     0
 72
     2
 73
     0
 90
        0
 40
-0.6
 41
-30.0
 62
     5
 63
     7
421
 16777215
 74
     1
 91
        4
 64
     7
 65
   257
 75
     1
175
     1
 42
1.0
 92
        0
 66
   257
 43
1.0
 76
     1
 77
     6
 78
     2
 67
     7
 79
     5
170
     0
171
     0
290
     0
174
     0
 93
        1
 44
0.0
173
     0
291
     0
 45
0.0
  0
VISUALSTYLE
  5
32
102
{ACAD_REACTORS
330
2A
102
}
102
{ACAD_XDICTIONARY
360
58
102
}
330
2A
100
AcDbVisualStyle
  2
Basic
 70
     7
 71
     1
 72
     0
 73
     1
 90
        0
 40
-0.6
 41
-30.0
 62
     5
 63
     7
421
 16777215
 74
     0
 91
        4
 64
     7
 65
   257
 75
     1
175
     1
 42
1.0
 92
        8
 66
     7
 43
1.0
 76
     1
 77
     6
 78
     2
 67
     7
 79
     5
170
     0
171
     0
290
     0
174
     0
 93
        1
 44
0.0
173
     0
291
     1
 45
0.0
  0
VISUALSTYLE
  5
36
102
{ACAD_REACTORS
330
2A
102
}
102
{ACAD_XDICTIONARY
360
60
102
}
330
2A
100
AcDbVisualStyle
  2
Brighten
 70
    12
 71
     2
 72
     2
 73
     0
 90
        0
 40
-0.6
 41
-30.0
 62
     5
 63
     7
421
 16777215
 74
     1
 91
        4
 64
     7
 65
   257
 75
     1
175
     1
 42
1.0
 92
        8
 66
     7
 43
1.0
 76
     1
 77
     6
 78
     2
 67
     7
 79
     5
170
     0
171
     0
290
     0
174
     0
 93
        1
 44
50.0
173
     0
291
     1
 45
0.0
  0
VISUALSTYLE
  5
3A
102
{ACAD_REACTORS
330
2A
102
}
102
{ACAD_XDICTIONARY
360
68
102
}
330
2A
100
AcDbVisualStyle
  2
ColorChange
 70
    16
 71
     2
 72
     2
 73
     3
 90
        0
 40
-0.6
 41
-30.0
 62
     5
 63
     8
421
  8421504
 74
     1
 91
        4
 64
     7
 65
   257
 75
     1
175
     1
 42
1.0
 92
        8
 66
     8
424
  8421504
 43
1.0
 76
     1
 77
     6
 78
     2
 67
     7
 79
     5
170
     0
171
     0
290
     0
174
     0
 93
        1
 44
0.0
173
     0
291
     1
 45
0.0
  0
VISUALSTYLE
  5
34
102
{ACAD_REACTORS
330
2A
102
}
102
{ACAD_XDICTIONARY
360
5C
102
}
330
2A
100
AcDbVisualStyle
  2
Conceptual
 70
     9
 71
     3
 72
     2
 73
     0
 90
        0
 40
-0.6
 41
-30.0
 62
     5
 63
     7
421
 16777215
 74
     2
 91
        2
 64
     7
 65
   257
 75
     1
175
     1
 42
40.0
 92
        8
 66
     7
 43
1.0
 76
     1
 77
     6
 78
     2
 67
     7
 79
     3
170
     0
171
     0
290
     0
174
     0
 93
        1
 44
0.0
173
     0
291
     0
 45
0.0
  0
VISUALSTYLE
  5
35
102
{ACAD_REACTORS
330
2A
102
}
102
{ACAD_XDICTIONARY
360
5E
102
}
330
2A
100
AcDbVisualStyle
  2
Dim
 70
    11
 71
     2
 72
     2
 73
     0
 90
        0
 40
-0.6
 41
-30.0
 62
     5
 63
     7
421
 16777215
 74
     1
 91
        4
 64
     7
 65
   257
 75
     1
175
     1
 42
1.0
 92
        8
 66
     7
 43
1.0
 76
     1
 77
     6
 78
     2
 67
     7
 79
     5
170
     0
171
     0
290
     0
174
     0
 93
        1
 44
-50.0
173
     0
291
     1
 45
0.0
  0
VISUALSTYLE
  5
39
102
{ACAD_REACTORS
330
2A
102
}
102
{ACAD_XDICTIONARY
360
66
102
}
330
2A
100
AcDbVisualStyle
  2
Facepattern
 70
    15
 71
     2
 72
     2
 73
     0
 90
        0
 40
-0.6
 41
-30.0
 62
     5
 63
     7
421
 16777215
 74
     1
 91
        4
 64
     7
 65
   257
 75
     1
175
     1
 42
1.0
 92
        8
 66
     7
 43
1.0
 76
     1
 77
     6
 78
     2
 67
     7
 79
     5
170
     0
171
     0
290
     0
174
     0
 93
        1
 44
0.0
173
     0
291
     1
 45
0.0
  0
VISUALSTYLE
  5
2B
102
{ACAD_REACTORS
330
2A
102
}
102
{ACAD_XDICTIONARY
360
4A
102
}
330
2A
100
AcDbVisualStyle
  2
Flat
 70
     0
 71
     2
 72
     1
 73
     1
 90
        2
 40
-0.6
 41
30.0
 62
     5
 63
     7
421
 16777215
 74
     0
 91
        4
 64
     7
 65
   257
 75
     1
175
     1
 42
1.0
 92
        8
 66
     7
 43
1.0
 76
     1
 77
     6
 78
     2
 67
     7
 79
     5
170
     0
171
     0
290
     0
174
     0
 93
       13
 44
0.0
173
     0
291
     1
 45
0.0
  0
VISUALSTYLE
  5
2C
102
{ACAD_REACTORS
330
2A
102
}
102
{ACAD_XDICTIONARY
360
4C
102
}
330
2A
100
AcDbVisualStyle
  2
FlatWithEdges
 70
     1
 71
     2
 72
     1
 73
     1
 90
        2
 40
-0.6
 41
30.0
 62
     5
 63
     7
421
 16777215
 74
     1
 91
        4
 64
     7
 65
   257
 75
     1
175
     1
 42
1.0
 92
        0
 66
   257
 43
1.0
 76
     1
 77
     6
 78
     2
 67
     7
 79
     5
170
     0
171
     0
290
     0
174
     0
 93
       13
 44
0.0
173
     0
291
     1
 45
0.0
  0
VISUALSTYLE
  5
2D
102
{ACAD_REACTORS
330
2A
102
}
102
{ACAD_XDICTIONARY
360
4E
102
}
330
2A
100
AcDbVisualStyle
  2
Gouraud
 70
     2
 71
     2
 72
     2
 73
     1
 90
        2
 40
-0.6
 41
30.0
 62
     5
 63
     7
421
 16777215
 74
     0
 91
        4
 64
     7
 65
   257
 75
     1
175
     1
 42
1.0
 92
        0
 66
     7
 43
1.0
 76
     1
 77
     6
 78
     2
 67
     7
 79
     5
170
     0
171
     0
290
     0
174
     0
 93
       13
 44
0.0
173
     0
291
     1
 45
0.0
  0
VISUALSTYLE
  5
2E
102
{ACAD_REACTORS
330
2A
102
}
102
{ACAD_XDICTIONARY
360
50
102
}
330
2A
100
AcDbVisualStyle
  2
GouraudWithEdges
 70
     3
 71
     2
 72
     2
 73
     1
 90
        2
 40
-0.6
 41
30.0
 62
     5
 63
     7
421
 16777215
 74
     1
 91
        4
 64
     7
 65
   257
 75
     1
175
     1
 42
1.0
 92
        0
 66
   257
 43
1.0
 76
     1
 77
     6
 78
     2
 67
     7
 79
     5
170
     0
171
     0
290
     0
174
     0
 93
       13
 44
0.0
173
     0
291
     1
 45
0.0
  0
VISUALSTYLE
  5
38
102
{ACAD_REACTORS
330
2A
102
}
102
{ACAD_XDICTIONARY
360
64
102
}
330
2A
100
AcDbVisualStyle
  2
Linepattern
 70
    14
 71
     2
 72
     2
 73
     0
 90
        0
 40
-0.6
 41
-30.0
 62
     5
 63
     7
421
 16777215
 74
     1
 91
        4
 64
     7
 65
   257
 75
     7
175
     7
 42
1.0
 92
        8
 66
     7
 43
1.0
 76
     1
 77
     6
 78
     2
 67
     7
 79
     5
170
     0
171
     0
290
     0
174
     0
 93
        1
 44
0.0
173
     0
291
     1
 45
0.0
  0
VISUALSTYLE
  5
33
102
{ACAD_REACTORS
330
2A
102
}
102
{ACAD_XDICTIONARY
360
5A
102
}
330
2A
100
AcDbVisualStyle
  2
Realistic
 70
     8
 71
     2
 72
     2
 73
     0
 90
        0
 40
-0.6
 41
-30.0
 62
     5
 63
     7
421
 16777215
 74
     1
 91
        0
 64
     7
 65
   257
 75
     1
175
     1
 42
1.0
 92
        8
 66
     8
424
  7895160
 43
1.0
 76
     1
 77
     6
 78
     2
 67
     7
 79
     5
170
     0
171
     0
290
     0
174
     0
 93
       13
 44
0.0
173
     0
291
     0
 45
0.0
  0
VISUALSTYLE
  5
37
102
{ACAD_REACTORS
330
2A
102
}
102
{ACAD_XDICTIONARY
360
62
102
}
330
2A
100
AcDbVisualStyle
  2
Thicken
 70
    13
 71
     2
 72
     2
 73
     0
 90
        0
 40
-0.6
 41
-30.0
 62
     5
 63
     7
421
 16777215
 74
     1
 91
        4
 64
     7
 65
   257
 75
     1
175
     1
 42
1.0
 92
       12
 66
     7
 43
1.0
 76
     1
 77
     6
 78
     2
 67
     7
 79
     5
170
     0
171
     0
290
     0
174
     0
 93
        1
 44
0.0
173
     0
291
     1
 45
0.0
  0
DICTIONARY
  5
52
330
2F
100
AcDbDictionary
280
     1
281
     1
  3
ACAD_XREC_ROUNDTRIP
360
53
  0
DICTIONARY
  5
56
330
31
100
AcDbDictionary
280
     1
281
     1
  3
ACAD_XREC_ROUNDTRIP
360
57
  0
DICTIONARY
  5
54
330
30
100
AcDbDictionary
280
     1
281
     1
  3
ACAD_XREC_ROUNDTRIP
360
55
  0
DICTIONARY
  5
58
330
32
100
AcDbDictionary
280
     1
281
     1
  3
ACAD_XREC_ROUNDTRIP
360
59
  0
DICTIONARY
  5
60
330
36
100
AcDbDictionary
280
     1
281
     1
  3
ACAD_XREC_ROUNDTRIP
360
61
  0
DICTIONARY
  5
68
330
3A
100
AcDbDictionary
280
     1
281
     1
  3
ACAD_XREC_ROUNDTRIP
360
69
  0
DICTIONARY
  5
5C
330
34
100
AcDbDictionary
280
     1
281
     1
  3
ACAD_XREC_ROUNDTRIP
360
5D
  0
DICTIONARY
  5
5E
330
35
100
AcDbDictionary
280
     1
281
     1
  3
ACAD_XREC_ROUNDTRIP
360
5F
  0
DICTIONARY
  5
66
330
39
100
AcDbDictionary
280
     1
281
     1
  3
ACAD_XREC_ROUNDTRIP
360
67
  0
DICTIONARY
  5
4A
330
2B
100
AcDbDictionary
280
     1
281
     1
  3
ACAD_XREC_ROUNDTRIP
360
4B
  0
DICTIONARY
  5
4C
330
2C
100
AcDbDictionary
280
     1
281
     1
  3
ACAD_XREC_ROUNDTRIP
360
4D
  0
DICTIONARY
  5
4E
330
2D
100
AcDbDictionary
280
     1
281
     1
  3
ACAD_XREC_ROUNDTRIP
360
4F
  0
DICTIONARY
  5
50
330
2E
100
AcDbDictionary
280
     1
281
     1
  3
ACAD_XREC_ROUNDTRIP
360
51
  0
DICTIONARY
  5
64
330
38
100
AcDbDictionary
280
     1
281
     1
  3
ACAD_XREC_ROUNDTRIP
360
65
  0
DICTIONARY
  5
5A
330
33
100
AcDbDictionary
280
     1
281
     1
  3
ACAD_XREC_ROUNDTRIP
360
5B
  0
DICTIONARY
  5
62
330
37
100
AcDbDictionary
280
     1
281
     1
  3
ACAD_XREC_ROUNDTRIP
360
63
  0
XRECORD
  5
53
102
{ACAD_REACTORS
330
52
102
}
330
52
100
AcDbXrecord
280
     1
102
RTVSPropertyOp0
 70
     1
102
RTVSPropertyOp1
 70
     1
102
RTVSPropertyOp2
 70
     1
102
RTVSPropertyOp3
 70
     1
102
RTVSPropertyOp4
 70
     1
102
RTVSPropertyOp5
 70
     1
102
RTVSPropertyOp6
 70
     1
102
RTVSPropertyOp7
 70
     1
102
RTVSPropertyOp8
 70
     1
102
RTVSPropertyOp9
 70
     1
102
RTVSPropertyOp10
 70
     1
102
RTVSPropertyOp11
 70
     1
102
RTVSPropertyOp12
 70
     1
102
RTVSPropertyOp13
 70
     1
102
RTVSPropertyOp14
 70
     1
102
RTVSPropertyOp15
 70
     1
102
RTVSPropertyOp16
 70
     1
102
RTVSPropertyOp17
 70
     1
102
RTVSPropertyOp18
 70
     1
102
RTVSPropertyOp19
 70
     1
102
RTVSPropertyOp20
 70
     1
102
RTVSPropertyOp21
 70
     1
102
RTVSPropertyOp22
 70
     1
102
RTVSPropertyOp23
 70
     1
102
RTVSPropertyOp24
 70
     1
102
RTVSPropertyOp25
 70
     1
102
RTVSPropertyOp26
 70
     1
102
RTVSPropertyOp27
 70
     1
102
RTVSPropertyOp28
 70
     1
102
RTVSPropertyOp29
 70
     1
102
RTVSPropertyOp30
 70
     1
102
RTVSPropertyOp31
 70
     1
102
RTVSPropertyOp32
 70
     1
  0
XRECORD
  5
57
102
{ACAD_REACTORS
330
56
102
}
330
56
100
AcDbXrecord
280
     1
102
RTVSPropertyOp0
 70
     1
102
RTVSPropertyOp1
 70
     1
102
RTVSPropertyOp2
 70
     1
102
RTVSPropertyOp3
 70
     1
102
RTVSPropertyOp4
 70
     1
102
RTVSPropertyOp5
 70
     1
102
RTVSPropertyOp6
 70
     1
102
RTVSPropertyOp7
 70
     1
102
RTVSPropertyOp8
 70
     1
102
RTVSPropertyOp9
 70
     1
102
RTVSPropertyOp10
 70
     1
102
RTVSPropertyOp11
 70
     1
102
RTVSPropertyOp12
 70
     1
102
RTVSPropertyOp13
 70
     1
102
RTVSPropertyOp14
 70
     1
102
RTVSPropertyOp15
 70
     1
102
RTVSPropertyOp16
 70
     1
102
RTVSPropertyOp17
 70
     1
102
RTVSPropertyOp18
 70
     1
102
RTVSPropertyOp19
 70
     1
102
RTVSPropertyOp20
 70
     1
102
RTVSPropertyOp21
 70
     1
102
RTVSPropertyOp22
 70
     1
102
RTVSPropertyOp23
 70
     1
102
RTVSPropertyOp24
 70
     1
102
RTVSPropertyOp25
 70
     1
102
RTVSPropertyOp26
 70
     1
102
RTVSPropertyOp27
 70
     1
102
RTVSPropertyOp28
 70
     1
102
RTVSPropertyOp29
 70
     1
102
RTVSPropertyOp30
 70
     1
102
RTVSPropertyOp31
 70
     1
102
RTVSPropertyOp32
 70
     1
  0
XRECORD
  5
55
102
{ACAD_REACTORS
330
54
102
}
330
54
100
AcDbXrecord
280
     1
102
RTVSPropertyOp0
 70
     1
102
RTVSPropertyOp1
 70
     1
102
RTVSPropertyOp2
 70
     1
102
RTVSPropertyOp3
 70
     1
102
RTVSPropertyOp4
 70
     1
102
RTVSPropertyOp5
 70
     1
102
RTVSPropertyOp6
 70
     1
102
RTVSPropertyOp7
 70
     1
102
RTVSPropertyOp8
 70
     1
102
RTVSPropertyOp9
 70
     1
102
RTVSPropertyOp10
 70
     1
102
RTVSPropertyOp11
 70
     1
102
RTVSPropertyOp12
 70
     1
102
RTVSPropertyOp13
 70
     1
102
RTVSPropertyOp14
 70
     1
102
RTVSPropertyOp15
 70
     1
102
RTVSPropertyOp16
 70
     1
102
RTVSPropertyOp17
 70
     1
102
RTVSPropertyOp18
 70
     1
102
RTVSPropertyOp19
 70
     1
102
RTVSPropertyOp20
 70
     1
102
RTVSPropertyOp21
 70
     1
102
RTVSPropertyOp22
 70
     1
102
RTVSPropertyOp23
 70
     1
102
RTVSPropertyOp24
 70
     1
102
RTVSPropertyOp25
 70
     1
102
RTVSPropertyOp26
 70
     1
102
RTVSPropertyOp27
 70
     1
102
RTVSPropertyOp28
 70
     1
102
RTVSPropertyOp29
 70
     1
102
RTVSPropertyOp30
 70
     1
102
RTVSPropertyOp31
 70
     1
102
RTVSPropertyOp32
 70
     1
  0
XRECORD
  5
59
102
{ACAD_REACTORS
330
58
102
}
330
58
100
AcDbXrecord
280
     1
102
RTVSPropertyOp0
 70
     1
102
RTVSPropertyOp1
 70
     1
102
RTVSPropertyOp2
 70
     1
102
RTVSPropertyOp3
 70
     1
102
RTVSPropertyOp4
 70
     1
102
RTVSPropertyOp5
 70
     1
102
RTVSPropertyOp6
 70
     1
102
RTVSPropertyOp7
 70
     1
102
RTVSPropertyOp8
 70
     1
102
RTVSPropertyOp9
 70
     1
102
RTVSPropertyOp10
 70
     1
102
RTVSPropertyOp11
 70
     1
102
RTVSPropertyOp12
 70
     1
102
RTVSPropertyOp13
 70
     1
102
RTVSPropertyOp14
 70
     1
102
RTVSPropertyOp15
 70
     1
102
RTVSPropertyOp16
 70
     1
102
RTVSPropertyOp17
 70
     1
102
RTVSPropertyOp18
 70
     1
102
RTVSPropertyOp19
 70
     1
102
RTVSPropertyOp20
 70
     1
102
RTVSPropertyOp21
 70
     1
102
RTVSPropertyOp22
 70
     1
102
RTVSPropertyOp23
 70
     1
102
RTVSPropertyOp24
 70
     1
102
RTVSPropertyOp25
 70
     1
102
RTVSPropertyOp26
 70
     1
102
RTVSPropertyOp27
 70
     1
102
RTVSPropertyOp28
 70
     1
102
RTVSPropertyOp29
 70
     1
102
RTVSPropertyOp30
 70
     1
102
RTVSPropertyOp31
 70
     1
102
RTVSPropertyOp32
 70
     1
  0
XRECORD
  5
61
102
{ACAD_REACTORS
330
60
102
}
330
60
100
AcDbXrecord
280
     1
102
RTVSPropertyOp0
 70
     1
102
RTVSPropertyOp1
 70
     1
102
RTVSPropertyOp2
 70
     1
102
RTVSPropertyOp3
 70
     1
102
RTVSPropertyOp4
 70
     1
102
RTVSPropertyOp5
 70
     1
102
RTVSPropertyOp6
 70
     1
102
RTVSPropertyOp7
 70
     1
102
RTVSPropertyOp8
 70
     1
102
RTVSPropertyOp9
 70
     1
102
RTVSPropertyOp10
 70
     1
102
RTVSPropertyOp11
 70
     1
102
RTVSPropertyOp12
 70
     1
102
RTVSPropertyOp13
 70
     1
102
RTVSPropertyOp14
 70
     1
102
RTVSPropertyOp15
 70
     1
102
RTVSPropertyOp16
 70
     1
102
RTVSPropertyOp17
 70
     1
102
RTVSPropertyOp18
 70
     1
102
RTVSPropertyOp19
 70
     1
102
RTVSPropertyOp20
 70
     1
102
RTVSPropertyOp21
 70
     1
102
RTVSPropertyOp22
 70
     1
102
RTVSPropertyOp23
 70
     1
102
RTVSPropertyOp24
 70
     1
102
RTVSPropertyOp25
 70
     1
102
RTVSPropertyOp26
 70
     1
102
RTVSPropertyOp27
 70
     1
102
RTVSPropertyOp28
 70
     1
102
RTVSPropertyOp29
 70
     1
102
RTVSPropertyOp30
 70
     1
102
RTVSPropertyOp31
 70
     1
102
RTVSPropertyOp32
 70
     1
  0
XRECORD
  5
69
102
{ACAD_REACTORS
330
68
102
}
330
68
100
AcDbXrecord
280
     1
102
RTVSPropertyOp0
 70
     1
102
RTVSPropertyOp1
 70
     1
102
RTVSPropertyOp2
 70
     1
102
RTVSPropertyOp3
 70
     1
102
RTVSPropertyOp4
 70
     1
102
RTVSPropertyOp5
 70
     1
102
RTVSPropertyOp6
 70
     1
102
RTVSPropertyOp7
 70
     1
102
RTVSPropertyOp8
 70
     1
102
RTVSPropertyOp9
 70
     1
102
RTVSPropertyOp10
 70
     1
102
RTVSPropertyOp11
 70
     1
102
RTVSPropertyOp12
 70
     1
102
RTVSPropertyOp13
 70
     1
102
RTVSPropertyOp14
 70
     1
102
RTVSPropertyOp15
 70
     1
102
RTVSPropertyOp16
 70
     1
102
RTVSPropertyOp17
 70
     1
102
RTVSPropertyOp18
 70
     1
102
RTVSPropertyOp19
 70
     1
102
RTVSPropertyOp20
 70
     1
102
RTVSPropertyOp21
 70
     1
102
RTVSPropertyOp22
 70
     1
102
RTVSPropertyOp23
 70
     1
102
RTVSPropertyOp24
 70
     1
102
RTVSPropertyOp25
 70
     1
102
RTVSPropertyOp26
 70
     1
102
RTVSPropertyOp27
 70
     1
102
RTVSPropertyOp28
 70
     1
102
RTVSPropertyOp29
 70
     1
102
RTVSPropertyOp30
 70
     1
102
RTVSPropertyOp31
 70
     1
102
RTVSPropertyOp32
 70
     1
  0
XRECORD
  5
5D
102
{ACAD_REACTORS
330
5C
102
}
330
5C
100
AcDbXrecord
280
     1
102
RTVSPropertyOp0
 70
     1
102
RTVSPropertyOp1
 70
     1
102
RTVSPropertyOp2
 70
     1
102
RTVSPropertyOp3
 70
     1
102
RTVSPropertyOp4
 70
     1
102
RTVSPropertyOp5
 70
     1
102
RTVSPropertyOp6
 70
     1
102
RTVSPropertyOp7
 70
     1
102
RTVSPropertyOp8
 70
     1
102
RTVSPropertyOp9
 70
     1
102
RTVSPropertyOp10
 70
     1
102
RTVSPropertyOp11
 70
     1
102
RTVSPropertyOp12
 70
     1
102
RTVSPropertyOp13
 70
     1
102
RTVSPropertyOp14
 70
     1
102
RTVSPropertyOp15
 70
     1
102
RTVSPropertyOp16
 70
     1
102
RTVSPropertyOp17
 70
     1
102
RTVSPropertyOp18
 70
     1
102
RTVSPropertyOp19
 70
     1
102
RTVSPropertyOp20
 70
     1
102
RTVSPropertyOp21
 70
     1
102
RTVSPropertyOp22
 70
     1
102
RTVSPropertyOp23
 70
     1
102
RTVSPropertyOp24
 70
     1
102
RTVSPropertyOp25
 70
     1
102
RTVSPropertyOp26
 70
     1
102
RTVSPropertyOp27
 70
     1
102
RTVSPropertyOp28
 70
     1
102
RTVSPropertyOp29
 70
     1
102
RTVSPropertyOp30
 70
     1
102
RTVSPropertyOp31
 70
     1
102
RTVSPropertyOp32
 70
     1
  0
XRECORD
  5
5F
102
{ACAD_REACTORS
330
5E
102
}
330
5E
100
AcDbXrecord
280
     1
102
RTVSPropertyOp0
 70
     1
102
RTVSPropertyOp1
 70
     1
102
RTVSPropertyOp2
 70
     1
102
RTVSPropertyOp3
 70
     1
102
RTVSPropertyOp4
 70
     1
102
RTVSPropertyOp5
 70
     1
102
RTVSPropertyOp6
 70
     1
102
RTVSPropertyOp7
 70
     1
102
RTVSPropertyOp8
 70
     1
102
RTVSPropertyOp9
 70
     1
102
RTVSPropertyOp10
 70
     1
102
RTVSPropertyOp11
 70
     1
102
RTVSPropertyOp12
 70
     1
102
RTVSPropertyOp13
 70
     1
102
RTVSPropertyOp14
 70
     1
102
RTVSPropertyOp15
 70
     1
102
RTVSPropertyOp16
 70
     1
102
RTVSPropertyOp17
 70
     1
102
RTVSPropertyOp18
 70
     1
102
RTVSPropertyOp19
 70
     1
102
RTVSPropertyOp20
 70
     1
102
RTVSPropertyOp21
 70
     1
102
RTVSPropertyOp22
 70
     1
102
RTVSPropertyOp23
 70
     1
102
RTVSPropertyOp24
 70
     1
102
RTVSPropertyOp25
 70
     1
102
RTVSPropertyOp26
 70
     1
102
RTVSPropertyOp27
 70
     1
102
RTVSPropertyOp28
 70
     1
102
RTVSPropertyOp29
 70
     1
102
RTVSPropertyOp30
 70
     1
102
RTVSPropertyOp31
 70
     1
102
RTVSPropertyOp32
 70
     1
  0
XRECORD
  5
67
102
{ACAD_REACTORS
330
66
102
}
330
66
100
AcDbXrecord
280
     1
102
RTVSPropertyOp0
 70
     1
102
RTVSPropertyOp1
 70
     1
102
RTVSPropertyOp2
 70
     1
102
RTVSPropertyOp3
 70
     1
102
RTVSPropertyOp4
 70
     1
102
RTVSPropertyOp5
 70
     1
102
RTVSPropertyOp6
 70
     1
102
RTVSPropertyOp7
 70
     1
102
RTVSPropertyOp8
 70
     1
102
RTVSPropertyOp9
 70
     1
102
RTVSPropertyOp10
 70
     1
102
RTVSPropertyOp11
 70
     1
102
RTVSPropertyOp12
 70
     1
102
RTVSPropertyOp13
 70
     1
102
RTVSPropertyOp14
 70
     1
102
RTVSPropertyOp15
 70
     1
102
RTVSPropertyOp16
 70
     1
102
RTVSPropertyOp17
 70
     1
102
RTVSPropertyOp18
 70
     1
102
RTVSPropertyOp19
 70
     1
102
RTVSPropertyOp20
 70
     1
102
RTVSPropertyOp21
 70
     1
102
RTVSPropertyOp22
 70
     1
102
RTVSPropertyOp23
 70
     1
102
RTVSPropertyOp24
 70
     1
102
RTVSPropertyOp25
 70
     1
102
RTVSPropertyOp26
 70
     1
102
RTVSPropertyOp27
 70
     1
102
RTVSPropertyOp28
 70
     1
102
RTVSPropertyOp29
 70
     1
102
RTVSPropertyOp30
 70
     1
102
RTVSPropertyOp31
 70
     1
102
RTVSPropertyOp32
 70
     1
  0
XRECORD
  5
4B
102
{ACAD_REACTORS
330
4A
102
}
330
4A
100
AcDbXrecord
280
     1
102
RTVSPropertyOp0
 70
     1
102
RTVSPropertyOp1
 70
     1
102
RTVSPropertyOp2
 70
     1
102
RTVSPropertyOp3
 70
     1
102
RTVSPropertyOp4
 70
     1
102
RTVSPropertyOp5
 70
     1
102
RTVSPropertyOp6
 70
     1
102
RTVSPropertyOp7
 70
     1
102
RTVSPropertyOp8
 70
     1
102
RTVSPropertyOp9
 70
     1
102
RTVSPropertyOp10
 70
     1
102
RTVSPropertyOp11
 70
     1
102
RTVSPropertyOp12
 70
     1
102
RTVSPropertyOp13
 70
     1
102
RTVSPropertyOp14
 70
     1
102
RTVSPropertyOp15
 70
     1
102
RTVSPropertyOp16
 70
     1
102
RTVSPropertyOp17
 70
     1
102
RTVSPropertyOp18
 70
     1
102
RTVSPropertyOp19
 70
     1
102
RTVSPropertyOp20
 70
     1
102
RTVSPropertyOp21
 70
     1
102
RTVSPropertyOp22
 70
     1
102
RTVSPropertyOp23
 70
     1
102
RTVSPropertyOp24
 70
     1
102
RTVSPropertyOp25
 70
     1
102
RTVSPropertyOp26
 70
     1
102
RTVSPropertyOp27
 70
     1
102
RTVSPropertyOp28
 70
     1
102
RTVSPropertyOp29
 70
     1
102
RTVSPropertyOp30
 70
     1
102
RTVSPropertyOp31
 70
     1
102
RTVSPropertyOp32
 70
     1
  0
XRECORD
  5
4D
102
{ACAD_REACTORS
330
4C
102
}
330
4C
100
AcDbXrecord
280
     1
102
RTVSPropertyOp0
 70
     1
102
RTVSPropertyOp1
 70
     1
102
RTVSPropertyOp2
 70
     1
102
RTVSPropertyOp3
 70
     1
102
RTVSPropertyOp4
 70
     1
102
RTVSPropertyOp5
 70
     1
102
RTVSPropertyOp6
 70
     1
102
RTVSPropertyOp7
 70
     1
102
RTVSPropertyOp8
 70
     1
102
RTVSPropertyOp9
 70
     1
102
RTVSPropertyOp10
 70
     1
102
RTVSPropertyOp11
 70
     1
102
RTVSPropertyOp12
 70
     1
102
RTVSPropertyOp13
 70
     1
102
RTVSPropertyOp14
 70
     1
102
RTVSPropertyOp15
 70
     1
102
RTVSPropertyOp16
 70
     1
102
RTVSPropertyOp17
 70
     1
102
RTVSPropertyOp18
 70
     1
102
RTVSPropertyOp19
 70
     1
102
RTVSPropertyOp20
 70
     1
102
RTVSPropertyOp21
 70
     1
102
RTVSPropertyOp22
 70
     1
102
RTVSPropertyOp23
 70
     1
102
RTVSPropertyOp24
 70
     1
102
RTVSPropertyOp25
 70
     1
102
RTVSPropertyOp26
 70
     1
102
RTVSPropertyOp27
 70
     1
102
RTVSPropertyOp28
 70
     1
102
RTVSPropertyOp29
 70
     1
102
RTVSPropertyOp30
 70
     1
102
RTVSPropertyOp31
 70
     1
102
RTVSPropertyOp32
 70
     1
  0
XRECORD
  5
4F
102
{ACAD_REACTORS
330
4E
102
}
330
4E
100
AcDbXrecord
280
     1
102
RTVSPropertyOp0
 70
     1
102
RTVSPropertyOp1
 70
     1
102
RTVSPropertyOp2
 70
     1
102
RTVSPropertyOp3
 70
     1
102
RTVSPropertyOp4
 70
     1
102
RTVSPropertyOp5
 70
     1
102
RTVSPropertyOp6
 70
     1
102
RTVSPropertyOp7
 70
     1
102
RTVSPropertyOp8
 70
     1
102
RTVSPropertyOp9
 70
     1
102
RTVSPropertyOp10
 70
     1
102
RTVSPropertyOp11
 70
     1
102
RTVSPropertyOp12
 70
     1
102
RTVSPropertyOp13
 70
     1
102
RTVSPropertyOp14
 70
     1
102
RTVSPropertyOp15
 70
     1
102
RTVSPropertyOp16
 70
     1
102
RTVSPropertyOp17
 70
     1
102
RTVSPropertyOp18
 70
     1
102
RTVSPropertyOp19
 70
     1
102
RTVSPropertyOp20
 70
     1
102
RTVSPropertyOp21
 70
     1
102
RTVSPropertyOp22
 70
     1
102
RTVSPropertyOp23
 70
     1
102
RTVSPropertyOp24
 70
     1
102
RTVSPropertyOp25
 70
     1
102
RTVSPropertyOp26
 70
     1
102
RTVSPropertyOp27
 70
     1
102
RTVSPropertyOp28
 70
     1
102
RTVSPropertyOp29
 70
     1
102
RTVSPropertyOp30
 70
     1
102
RTVSPropertyOp31
 70
     1
102
RTVSPropertyOp32
 70
     1
  0
XRECORD
  5
51
102
{ACAD_REACTORS
330
50
102
}
330
50
100
AcDbXrecord
280
     1
102
RTVSPropertyOp0
 70
     1
102
RTVSPropertyOp1
 70
     1
102
RTVSPropertyOp2
 70
     1
102
RTVSPropertyOp3
 70
     1
102
RTVSPropertyOp4
 70
     1
102
RTVSPropertyOp5
 70
     1
102
RTVSPropertyOp6
 70
     1
102
RTVSPropertyOp7
 70
     1
102
RTVSPropertyOp8
 70
     1
102
RTVSPropertyOp9
 70
     1
102
RTVSPropertyOp10
 70
     1
102
RTVSPropertyOp11
 70
     1
102
RTVSPropertyOp12
 70
     1
102
RTVSPropertyOp13
 70
     1
102
RTVSPropertyOp14
 70
     1
102
RTVSPropertyOp15
 70
     1
102
RTVSPropertyOp16
 70
     1
102
RTVSPropertyOp17
 70
     1
102
RTVSPropertyOp18
 70
     1
102
RTVSPropertyOp19
 70
     1
102
RTVSPropertyOp20
 70
     1
102
RTVSPropertyOp21
 70
     1
102
RTVSPropertyOp22
 70
     1
102
RTVSPropertyOp23
 70
     1
102
RTVSPropertyOp24
 70
     1
102
RTVSPropertyOp25
 70
     1
102
RTVSPropertyOp26
 70
     1
102
RTVSPropertyOp27
 70
     1
102
RTVSPropertyOp28
 70
     1
102
RTVSPropertyOp29
 70
     1
102
RTVSPropertyOp30
 70
     1
102
RTVSPropertyOp31
 70
     1
102
RTVSPropertyOp32
 70
     1
  0
XRECORD
  5
65
102
{ACAD_REACTORS
330
64
102
}
330
64
100
AcDbXrecord
280
     1
102
RTVSPropertyOp0
 70
     1
102
RTVSPropertyOp1
 70
     1
102
RTVSPropertyOp2
 70
     1
102
RTVSPropertyOp3
 70
     1
102
RTVSPropertyOp4
 70
     1
102
RTVSPropertyOp5
 70
     1
102
RTVSPropertyOp6
 70
     1
102
RTVSPropertyOp7
 70
     1
102
RTVSPropertyOp8
 70
     1
102
RTVSPropertyOp9
 70
     1
102
RTVSPropertyOp10
 70
     1
102
RTVSPropertyOp11
 70
     1
102
RTVSPropertyOp12
 70
     1
102
RTVSPropertyOp13
 70
     1
102
RTVSPropertyOp14
 70
     1
102
RTVSPropertyOp15
 70
     1
102
RTVSPropertyOp16
 70
     1
102
RTVSPropertyOp17
 70
     1
102
RTVSPropertyOp18
 70
     1
102
RTVSPropertyOp19
 70
     1
102
RTVSPropertyOp20
 70
     1
102
RTVSPropertyOp21
 70
     1
102
RTVSPropertyOp22
 70
     1
102
RTVSPropertyOp23
 70
     1
102
RTVSPropertyOp24
 70
     1
102
RTVSPropertyOp25
 70
     1
102
RTVSPropertyOp26
 70
     1
102
RTVSPropertyOp27
 70
     1
102
RTVSPropertyOp28
 70
     1
102
RTVSPropertyOp29
 70
     1
102
RTVSPropertyOp30
 70
     1
102
RTVSPropertyOp31
 70
     1
102
RTVSPropertyOp32
 70
     1
  0
XRECORD
  5
5B
102
{ACAD_REACTORS
330
5A
102
}
330
5A
100
AcDbXrecord
280
     1
102
RTVSPropertyOp0
 70
     1
102
RTVSPropertyOp1
 70
     1
102
RTVSPropertyOp2
 70
     1
102
RTVSPropertyOp3
 70
     1
102
RTVSPropertyOp4
 70
     1
102
RTVSPropertyOp5
 70
     1
102
RTVSPropertyOp6
 70
     1
102
RTVSPropertyOp7
 70
     1
102
RTVSPropertyOp8
 70
     1
102
RTVSPropertyOp9
 70
     1
102
RTVSPropertyOp10
 70
     1
102
RTVSPropertyOp11
 70
     1
102
RTVSPropertyOp12
 70
     1
102
RTVSPropertyOp13
 70
     1
102
RTVSPropertyOp14
 70
     1
102
RTVSPropertyOp15
 70
     1
102
RTVSPropertyOp16
 70
     1
102
RTVSPropertyOp17
 70
     1
102
RTVSPropertyOp18
 70
     1
102
RTVSPropertyOp19
 70
     1
102
RTVSPropertyOp20
 70
     1
102
RTVSPropertyOp21
 70
     1
102
RTVSPropertyOp22
 70
     1
102
RTVSPropertyOp23
 70
     1
102
RTVSPropertyOp24
 70
     1
102
RTVSPropertyOp25
 70
     1
102
RTVSPropertyOp26
 70
     1
102
RTVSPropertyOp27
 70
     1
102
RTVSPropertyOp28
 70
     1
102
RTVSPropertyOp29
 70
     1
102
RTVSPropertyOp30
 70
     1
102
RTVSPropertyOp31
 70
     1
102
RTVSPropertyOp32
 70
     1
  0
XRECORD
  5
63
102
{ACAD_REACTORS
330
62
102
}
330
62
100
AcDbXrecord
280
     1
102
RTVSPropertyOp0
 70
     1
102
RTVSPropertyOp1
 70
     1
102
RTVSPropertyOp2
 70
     1
102
RTVSPropertyOp3
 70
     1
102
RTVSPropertyOp4
 70
     1
102
RTVSPropertyOp5
 70
     1
102
RTVSPropertyOp6
 70
     1
102
RTVSPropertyOp7
 70
     1
102
RTVSPropertyOp8
 70
     1
102
RTVSPropertyOp9
 70
     1
102
RTVSPropertyOp10
 70
     1
102
RTVSPropertyOp11
 70
     1
102
RTVSPropertyOp12
 70
     1
102
RTVSPropertyOp13
 70
     1
102
RTVSPropertyOp14
 70
     1
102
RTVSPropertyOp15
 70
     1
102
RTVSPropertyOp16
 70
     1
102
RTVSPropertyOp17
 70
     1
102
RTVSPropertyOp18
 70
     1
102
RTVSPropertyOp19
 70
     1
102
RTVSPropertyOp20
 70
     1
102
RTVSPropertyOp21
 70
     1
102
RTVSPropertyOp22
 70
     1
102
RTVSPropertyOp23
 70
     1
102
RTVSPropertyOp24
 70
     1
102
RTVSPropertyOp25
 70
     1
102
RTVSPropertyOp26
 70
     1
102
RTVSPropertyOp27
 70
     1
102
RTVSPropertyOp28
 70
     1
102
RTVSPropertyOp29
 70
     1
102
RTVSPropertyOp30
 70
     1
102
RTVSPropertyOp31
 70
     1
102
RTVSPropertyOp32
 70
     1
  0
ENDSEC
  0
EOF
