  0
SECTION
  2
HEADER
  9
$ACADVER
  1
AC1021
  9
$ACADMAINTVER
 70
    25
  9
$DWGCODEPAGE
  3
ANSI_1252
  9
$INSBASE
 10
0.0
 20
0.0
 30
0.0
  9
$EXTMIN
 10
-10.36512
 20
-5.11742
 30
0.0
  9
$EXTMAX
 10
10.36514
 20
5.11728
 30
0.0
  9
$LIMMIN
 10
0.0
 20
0.0
  9
$LIMMAX
 10
12.0
 20
9.0
  9
$ORTHOMODE
 70
     0
  9
$REGENMODE
 70
     1
  9
$FILLMODE
 70
     1
  9
$QTEXTMODE
 70
     0
  9
$MIRRTEXT
 70
     1
  9
$LTSCALE
 40
1.0
  9
$ATTMODE
 70
     1
  9
$TEXTSIZE
 40
0.2
  9
$TRACEWID
 40
0.05
  9
$TEXTSTYLE
  7
Standard
  9
$CLAYER
  8
0
  9
$CELTYPE
  6
ByLayer
  9
$CECOLOR
 62
   256
  9
$CELTSCALE
 40
1.0
  9
$DISPSILH
 70
     0
  9
$DIMSCALE
 40
1.0
  9
$DIMASZ
 40
0.18
  9
$DIMEXO
 40
0.0625
  9
$DIMDLI
 40
0.38
  9
$DIMRND
 40
0.0
  9
$DIMDLE
 40
0.0
  9
$DIMEXE
 40
0.18
  9
$DIMTP
 40
0.0
  9
$DIMTM
 40
0.0
  9
$DIMTXT
 40
0.18
  9
$DIMCEN
 40
0.09
  9
$DIMTSZ
 40
0.0
  9
$DIMTOL
 70
     0
  9
$DIMLIM
 70
     0
  9
$DIMTIH
 70
     1
  9
$DIMTOH
 70
     1
  9
$DIMSE1
 70
     0
  9
$DIMSE2
 70
     0
  9
$DIMTAD
 70
     0
  9
$DIMZIN
 70
     0
  9
$DIMBLK
  1

  9
$DIMASO
 70
     1
  9
$DIMSHO
 70
     1
  9
$DIMPOST
  1

  9
$DIMAPOST
  1

  9
$DIMALT
 70
     0
  9
$DIMALTD
 70
     2
  9
$DIMALTF
 40
25.4
  9
$DIMLFAC
 40
1.0
  9
$DIMTOFL
 70
     0
  9
$DIMTVP
 40
0.0
  9
$DIMTIX
 70
     0
  9
$DIMSOXD
 70
     0
  9
$DIMSAH
 70
     0
  9
$DIMBLK1
  1

  9
$DIMBLK2
  1

  9
$DIMSTYLE
  2
Standard
  9
$DIMCLRD
 70
     0
  9
$DIMCLRE
 70
     0
  9
$DIMCLRT
 70
     0
  9
$DIMTFAC
 40
1.0
  9
$DIMGAP
 40
0.09
  9
$DIMJUST
 70
     0
  9
$DIMSD1
 70
     0
  9
$DIMSD2
 70
     0
  9
$DIMTOLJ
 70
     1
  9
$DIMTZIN
 70
     0
  9
$DIMALTZ
 70
     0
  9
$DIMALTTZ
 70
     0
  9
$DIMUPT
 70
     0
  9
$DIMDEC
 70
     4
  9
$DIMTDEC
 70
     4
  9
$DIMALTU
 70
     2
  9
$DIMALTTD
 70
     2
  9
$DIMTXSTY
  7
Standard
  9
$DIMAUNIT
 70
     0
  9
$DIMADEC
 70
     0
  9
$DIMALTRND
 40
0.0
  9
$DIMAZIN
 70
     0
  9
$DIMDSEP
 70
    46
  9
$DIMATFIT
 70
     3
  9
$DIMFRAC
 70
     0
  9
$DIMLDRBLK
  1

  9
$DIMLUNIT
 70
     2
  9
$DIMLWD
 70
    -2
  9
$DIMLWE
 70
    -2
  9
$DIMTMOVE
 70
     0
  9
$DIMFXL
 40
1.0
  9
$DIMFXLON
 70
     0
  9
$DIMJOGANG
 40
0.7853981633974483
  9
$DIMTFILL
 70
     0
  9
$DIMTFILLCLR
 70
     0
  9
$DIMARCSYM
 70
     0
  9
$DIMLTYPE
  6

  9
$DIMLTEX1
  6

  9
$DIMLTEX2
  6

  9
$LUNITS
 70
     2
  9
$LUPREC
 70
     4
  9
$SKETCHINC
 40
0.1
  9
$FILLETRAD
 40
0.5
  9
$AUNITS
 70
     0
  9
$AUPREC
 70
     0
  9
$MENU
  1
.
  9
$ELEVATION
 40
0.0
  9
$PELEVATION
 40
0.0
  9
$THICKNESS
 40
0.0
  9
$LIMCHECK
 70
     0
  9
$CHAMFERA
 40
0.5
  9
$CHAMFERB
 40
0.5
  9
$CHAMFERC
 40
1.0
  9
$CHAMFERD
 40
0.0
  9
$SKPOLY
 70
     0
  9
$TDCREATE
 40
2456878.318559953
  9
$TDUCREATE
 40
2456878.443559953
  9
$TDUPDATE
 40
2456878.318560255
  9
$TDUUPDATE
 40
2456878.443560255
  9
$TDINDWG
 40
0.0000000116
  9
$TDUSRTIMER
 40
0.0000000116
  9
$USRTIMER
 70
     1
  9
$ANGBASE
 50
0.0
  9
$ANGDIR
 70
     0
  9
$PDMODE
 70
     0
  9
$PDSIZE
 40
0.0
  9
$PLINEWID
 40
0.0
  9
$SPLFRAME
 70
     0
  9
$SPLINETYPE
 70
     6
  9
$SPLINESEGS
 70
     8
  9
$HANDSEED
  5
64
  9
$SURFTAB1
 70
     6
  9
$SURFTAB2
 70
     6
  9
$SURFTYPE
 70
     6
  9
$SURFU
 70
     6
  9
$SURFV
 70
     6
  9
$UCSBASE
  2

  9
$UCSNAME
  2

  9
$UCSORG
 10
0.0
 20
0.0
 30
0.0
  9
$UCSXDIR
 10
1.0
 20
0.0
 30
0.0
  9
$UCSYDIR
 10
0.0
 20
1.0
 30
0.0
  9
$UCSORTHOREF
  2

  9
$UCSORTHOVIEW
 70
     0
  9
$UCSORGTOP
 10
0.0
 20
0.0
 30
0.0
  9
$UCSORGBOTTOM
 10
0.0
 20
0.0
 30
0.0
  9
$UCSORGLEFT
 10
0.0
 20
0.0
 30
0.0
  9
$UCSORGRIGHT
 10
0.0
 20
0.0
 30
0.0
  9
$UCSORGFRONT
 10
0.0
 20
0.0
 30
0.0
  9
$UCSORGBACK
 10
0.0
 20
0.0
 30
0.0
  9
$PUCSBASE
  2

  9
$PUCSNAME
  2

  9
$PUCSORG
 10
0.0
 20
0.0
 30
0.0
  9
$PUCSXDIR
 10
1.0
 20
0.0
 30
0.0
  9
$PUCSYDIR
 10
0.0
 20
1.0
 30
0.0
  9
$PUCSORTHOREF
  2

  9
$PUCSORTHOVIEW
 70
     0
  9
$PUCSORGTOP
 10
0.0
 20
0.0
 30
0.0
  9
$PUCSORGBOTTOM
 10
0.0
 20
0.0
 30
0.0
  9
$PUCSORGLEFT
 10
0.0
 20
0.0
 30
0.0
  9
$PUCSORGRIGHT
 10
0.0
 20
0.0
 30
0.0
  9
$PUCSORGFRONT
 10
0.0
 20
0.0
 30
0.0
  9
$PUCSORGBACK
 10
0.0
 20
0.0
 30
0.0
  9
$USERI1
 70
     0
  9
$USERI2
 70
     0
  9
$USERI3
 70
     0
  9
$USERI4
 70
     0
  9
$USERI5
 70
     0
  9
$USERR1
 40
0.0
  9
$USERR2
 40
0.0
  9
$USERR3
 40
0.0
  9
$USERR4
 40
0.0
  9
$USERR5
 40
0.0
  9
$WORLDVIEW
 70
     1
  9
$SHADEDGE
 70
     3
  9
$SHADEDIF
 70
    70
  9
$TILEMODE
 70
     1
  9
$MAXACTVP
 70
    64
  9
$PINSBASE
 10
0.0
 20
0.0
 30
0.0
  9
$PLIMCHECK
 70
     0
  9
$PEXTMIN
 10
1.000000000000000E+20
 20
1.000000000000000E+20
 30
1.000000000000000E+20
  9
$PEXTMAX
 10
-1.000000000000000E+20
 20
-1.000000000000000E+20
 30
-1.000000000000000E+20
  9
$PLIMMIN
 10
0.0
 20
0.0
  9
$PLIMMAX
 10
12.0
 20
9.0
  9
$UNITMODE
 70
     0
  9
$VISRETAIN
 70
     1
  9
$PLINEGEN
 70
     0
  9
$PSLTSCALE
 70
     1
  9
$TREEDEPTH
 70
  3020
  9
$CMLSTYLE
  2
Standard
  9
$CMLJUST
 70
     0
  9
$CMLSCALE
 40
1.0
  9
$PROXYGRAPHICS
 70
     1
  9
$MEASUREMENT
 70
     0
  9
$CELWEIGHT
370
    -1
  9
$ENDCAPS
280
     0
  9
$JOINSTYLE
280
     0
  9
$LWDISPLAY
290
     0
  9
$INSUNITS
 70
     5
  9
$HYPERLINKBASE
  1

  9
$STYLESHEET
  1

  9
$XEDIT
290
     1
  9
$CEPSNTYPE
380
     0
  9
$PSTYLEMODE
290
     1
  9
$FINGERPRINTGUID
  2
{3DD70F45-804A-48C6-88CA-E6C37599D50D}
  9
$VERSIONGUID
  2
{FAEB1C32-E019-11D5-929B-00C0DF256EC4}
  9
$EXTNAMES
290
     1
  9
$PSVPSCALE
 40
0.0
  9
$OLESTARTUP
290
     0
  9
$SORTENTS
280
   127
  9
$INDEXCTL
280
     0
  9
$HIDETEXT
280
     1
  9
$XCLIPFRAME
290
     0
  9
$HALOGAP
280
     0
  9
$OBSCOLOR
 70
   257
  9
$OBSLTYPE
280
     0
  9
$INTERSECTIONDISPLAY
280
     0
  9
$INTERSECTIONCOLOR
 70
   257
  9
$DIMASSOC
280
     2
  9
$PROJECTNAME
  1

  9
$CAMERADISPLAY
290
     0
  9
$LENSLENGTH
 40
50.0
  9
$CAMERAHEIGHT
 40
0.0
  9
$STEPSPERSEC
 40
2.0
  9
$STEPSIZE
 40
6.0
  9
$3DDWFPREC
 40
2.0
  9
$PSOLWIDTH
 40
0.25
  9
$PSOLHEIGHT
 40
4.0
  9
$LOFTANG1
 40
1.570796326794897
  9
$LOFTANG2
 40
1.570796326794897
  9
$LOFTMAG1
 40
0.0
  9
$LOFTMAG2
 40
0.0
  9
$LOFTPARAM
 70
     7
  9
$LOFTNORMALS
280
     1
  9
$LATITUDE
 40
37.795
  9
$LONGITUDE
 40
-122.394
  9
$NORTHDIRECTION
 40
0.0
  9
$TIMEZONE
 70
 -8000
  9
$LIGHTGLYPHDISPLAY
280
     1
  9
$TILEMODELIGHTSYNCH
280
     1
  9
$SOLIDHIST
280
     1
  9
$SHOWHIST
280
     1
  9
$DWFFRAME
280
     2
  9
$DGNFRAME
280
     2
  9
$REALWORLDSCALE
290
     1
  9
$INTERFERECOLOR
 62
   256
  9
$CSHADOW
280
     0
  9
$SHADOWPLANELOCATION
 40
0.0
  0
ENDSEC
  0
SECTION
  2
CLASSES
  0
CLASS
  1
ACDBDICTIONARYWDFLT
  2
AcDbDictionaryWithDefault
  3
ObjectDBX Classes
 90
        0
 91
        4
280
     0
281
     0
  0
CLASS
  1
VISUALSTYLE
  2
AcDbVisualStyle
  3
ObjectDBX Classes
 90
     4095
 91
        4
280
     0
281
     0
  0
CLASS
  1
MATERIAL
  2
AcDbMaterial
  3
ObjectDBX Classes
 90
     1153
 91
        4
280
     0
281
     0
  0
ENDSEC
  0
SECTION
  2
TABLES
  0
TABLE
  2
VPORT
  5
8
330
0
100
AcDbSymbolTable
 70
     1
  0
VPORT
  5
29
330
8
100
AcDbSymbolTableRecord
100
AcDbViewportTableRecord
  2
*Active
 70
     0
 10
0.0
 20
0.0
 11
1.0
 21
1.0
 12
10.42990654205607
 22
4.5
 13
0.0
 23
0.0
 14
0.5
 24
0.5
 15
0.5
 25
0.5
 16
0.0
 26
0.0
 36
1.0
 17
0.0
 27
0.0
 37
0.0
 40
9.0
 41
1.972972972850329
 42
50.0
 43
0.0
 44
0.0
 50
0.0
 51
0.0
 71
     0
 72
   100
 73
     1
 74
     3
 75
     0
 76
     0
 77
     0
 78
     0
281
     0
 65
     1
110
0.0
120
0.0
130
0.0
111
1.0
121
0.0
131
0.0
112
0.0
122
1.0
132
0.0
 79
     0
146
0.0
 60
     3
 61
     5
292
     1
282
     1
141
0.0
142
0.0
 63
   250
  0
ENDTAB
  0
TABLE
  2
LTYPE
  5
5
330
0
100
AcDbSymbolTable
 70
     1
  0
LTYPE
  5
14
330
5
100
AcDbSymbolTableRecord
100
AcDbLinetypeTableRecord
  2
ByBlock
 70
     0
  3

 72
    65
 73
     0
 40
0.0
  0
LTYPE
  5
15
330
5
100
AcDbSymbolTableRecord
100
AcDbLinetypeTableRecord
  2
ByLayer
 70
     0
  3

 72
    65
 73
     0
 40
0.0
  0
LTYPE
  5
16
330
5
100
AcDbSymbolTableRecord
100
AcDbLinetypeTableRecord
  2
Continuous
 70
     0
  3
Solid line
 72
    65
 73
     0
 40
0.0
  0
ENDTAB
  0
TABLE
  2
LAYER
  5
2
330
0
100
AcDbSymbolTable
 70
     2
  0
LAYER
  5
10
330
2
100
AcDbSymbolTableRecord
100
AcDbLayerTableRecord
  2
0
 70
     0
 62
     7
  6
Continuous
370
    -3
390
F
347
3E
  0
LAYER
  5
40
330
2
100
AcDbSymbolTableRecord
100
AcDbLayerTableRecord
  2
Camada 1
 70
     0
 62
     7
  6
Continuous
370
    -3
390
F
347
3E
  0
ENDTAB
  0
TABLE
  2
STYLE
  5
3
330
0
100
AcDbSymbolTable
 70
     1
  0
STYLE
  5
11
330
3
100
AcDbSymbolTableRecord
100
AcDbTextStyleTableRecord
  2
Standard
 70
     0
 40
0.0
 41
1.0
 50
0.0
 71
     0
 42
0.2
  3
txt
  4

  0
ENDTAB
  0
TABLE
  2
VIEW
  5
6
330
0
100
AcDbSymbolTable
 70
     0
  0
ENDTAB
  0
TABLE
  2
UCS
  5
7
330
0
100
AcDbSymbolTable
 70
     0
  0
ENDTAB
  0
TABLE
  2
APPID
  5
9
330
0
100
AcDbSymbolTable
 70
     2
  0
APPID
  5
12
330
9
100
AcDbSymbolTableRecord
100
AcDbRegAppTableRecord
  2
ACAD
 70
     0
  0
APPID
  5
3F
330
9
100
AcDbSymbolTableRecord
100
AcDbRegAppTableRecord
  2
ODA
 70
     0
  0
ENDTAB
  0
TABLE
  2
DIMSTYLE
  5
A
330
0
100
AcDbSymbolTable
 70
     1
100
AcDbDimStyleTable
  0
DIMSTYLE
105
27
330
A
100
AcDbSymbolTableRecord
100
AcDbDimStyleTableRecord
  2
Standard
 70
     0
178
     0
340
11
  0
ENDTAB
  0
TABLE
  2
BLOCK_RECORD
  5
1
330
0
100
AcDbSymbolTable
 70
     1
  0
BLOCK_RECORD
  5
1F
330
1
100
AcDbSymbolTableRecord
100
AcDbBlockTableRecord
  2
*Model_Space
340
22
 70
     0
280
     1
281
     0
  0
BLOCK_RECORD
  5
1B
330
1
100
AcDbSymbolTableRecord
100
AcDbBlockTableRecord
  2
*Paper_Space
340
1E
 70
     0
280
     1
281
     0
  0
BLOCK_RECORD
  5
23
330
1
100
AcDbSymbolTableRecord
100
AcDbBlockTableRecord
  2
*Paper_Space0
340
26
 70
     0
280
     1
281
     0
  0
ENDTAB
  0
ENDSEC
  0
SECTION
  2
BLOCKS
  0
BLOCK
  5
20
330
1F
100
AcDbEntity
  8
0
100
AcDbBlockBegin
  2
*Model_Space
 70
     0
 10
0.0
 20
0.0
 30
0.0
  3
*Model_Space
  1

  0
ENDBLK
  5
21
330
1F
100
AcDbEntity
  8
0
100
AcDbBlockEnd
  0
BLOCK
  5
1C
330
1B
100
AcDbEntity
 67
     1
  8
0
100
AcDbBlockBegin
  2
*Paper_Space
 70
     0
 10
0.0
 20
0.0
 30
0.0
  3
*Paper_Space
  1

  0
ENDBLK
  5
1D
330
1B
100
AcDbEntity
 67
     1
  8
0
100
AcDbBlockEnd
  0
BLOCK
  5
24
330
23
100
AcDbEntity
  8
0
100
AcDbBlockBegin
  2
*Paper_Space0
 70
     0
 10
0.0
 20
0.0
 30
0.0
  3
*Paper_Space0
  1

  0
ENDBLK
  5
25
330
23
100
AcDbEntity
  8
0
100
AcDbBlockEnd
  0
ENDSEC
  0
SECTION
  2
ENTITIES
  0
SPLINE
  5
41
330
1F
100
AcDbEntity
  8
Camada 1
100
AcDbSpline
210
0.0
220
0.0
230
1.0
 70
    11
 71
     3
 72
   504
 73
   500
 74
     0
 42
0.0000000001
 43
0.0000000001
 12
1.0
 22
0.0
 32
0.0
 13
1.0
 23
0.0
 33
0.0
 40
0.0
 40
0.0
 40
0.0
 40
0.0
 40
0.0079365079365079
 40
0.0079365079365079
 40
0.0079365079365079
 40
0.0079365079365079
 40
0.0158730158730159
 40
0.0158730158730159
 40
0.0158730158730159
 40
0.0158730158730159
 40
0.0238095238095238
 40
0.0238095238095238
 40
0.0238095238095238
 40
0.0238095238095238
 40
0.0317460317460317
 40
0.0317460317460317
 40
0.0317460317460317
 40
0.0317460317460317
 40
0.0396825396825397
 40
0.0396825396825397
 40
0.0396825396825397
 40
0.0396825396825397
 40
0.0476190476190476
 40
0.0476190476190476
 40
0.0476190476190476
 40
0.0476190476190476
 40
0.0555555555555556
 40
0.0555555555555556
 40
0.0555555555555556
 40
0.0555555555555556
 40
0.0634920634920635
 40
0.0634920634920635
 40
0.0634920634920635
 40
0.0634920634920635
 40
0.0714285714285714
 40
0.0714285714285714
 40
0.0714285714285714
 40
0.0714285714285714
 40
0.0793650793650794
 40
0.0793650793650794
 40
0.0793650793650794
 40
0.0793650793650794
 40
0.0873015873015873
 40
0.0873015873015873
 40
0.0873015873015873
 40
0.0873015873015873
 40
0.0952380952380952
 40
0.0952380952380952
 40
0.0952380952380952
 40
0.0952380952380952
 40
0.1031746031746032
 40
0.1031746031746032
 40
0.1031746031746032
 40
0.1031746031746032
 40
0.1111111111111111
 40
0.1111111111111111
 40
0.1111111111111111
 40
0.1111111111111111
 40
0.119047619047619
 40
0.119047619047619
 40
0.119047619047619
 40
0.119047619047619
 40
0.126984126984127
 40
0.126984126984127
 40
0.126984126984127
 40
0.126984126984127
 40
0.1349206349206349
 40
0.1349206349206349
 40
0.1349206349206349
 40
0.1349206349206349
 40
0.1428571428571428
 40
0.1428571428571428
 40
0.1428571428571428
 40
0.1428571428571428
 40
0.1507936507936508
 40
0.1507936507936508
 40
0.1507936507936508
 40
0.1507936507936508
 40
0.1587301587301587
 40
0.1587301587301587
 40
0.1587301587301587
 40
0.1587301587301587
 40
0.1666666666666667
 40
0.1666666666666667
 40
0.1666666666666667
 40
0.1666666666666667
 40
0.1746031746031746
 40
0.1746031746031746
 40
0.1746031746031746
 40
0.1746031746031746
 40
0.1825396825396825
 40
0.1825396825396825
 40
0.1825396825396825
 40
0.1825396825396825
 40
0.1904761904761905
 40
0.1904761904761905
 40
0.1904761904761905
 40
0.1904761904761905
 40
0.1984126984126984
 40
0.1984126984126984
 40
0.1984126984126984
 40
0.1984126984126984
 40
0.2063492063492063
 40
0.2063492063492063
 40
0.2063492063492063
 40
0.2063492063492063
 40
0.2142857142857143
 40
0.2142857142857143
 40
0.2142857142857143
 40
0.2142857142857143
 40
0.2222222222222222
 40
0.2222222222222222
 40
0.2222222222222222
 40
0.2222222222222222
 40
0.2301587301587301
 40
0.2301587301587301
 40
0.2301587301587301
 40
0.2301587301587301
 40
0.2380952380952381
 40
0.2380952380952381
 40
0.2380952380952381
 40
0.2380952380952381
 40
0.246031746031746
 40
0.246031746031746
 40
0.246031746031746
 40
0.246031746031746
 40
0.253968253968254
 40
0.253968253968254
 40
0.253968253968254
 40
0.253968253968254
 40
0.2619047619047619
 40
0.2619047619047619
 40
0.2619047619047619
 40
0.2619047619047619
 40
0.2698412698412698
 40
0.2698412698412698
 40
0.2698412698412698
 40
0.2698412698412698
 40
0.2777777777777778
 40
0.2777777777777778
 40
0.2777777777777778
 40
0.2777777777777778
 40
0.2857142857142857
 40
0.2857142857142857
 40
0.2857142857142857
 40
0.2857142857142857
 40
0.2936507936507937
 40
0.2936507936507937
 40
0.2936507936507937
 40
0.2936507936507937
 40
0.3015873015873016
 40
0.3015873015873016
 40
0.3015873015873016
 40
0.3015873015873016
 40
0.3095238095238095
 40
0.3095238095238095
 40
0.3095238095238095
 40
0.3095238095238095
 40
0.3174603174603174
 40
0.3174603174603174
 40
0.3174603174603174
 40
0.3174603174603174
 40
0.3253968253968254
 40
0.3253968253968254
 40
0.3253968253968254
 40
0.3253968253968254
 40
0.3333333333333333
 40
0.3333333333333333
 40
0.3333333333333333
 40
0.3333333333333333
 40
0.3412698412698413
 40
0.3412698412698413
 40
0.3412698412698413
 40
0.3412698412698413
 40
0.3492063492063492
 40
0.3492063492063492
 40
0.3492063492063492
 40
0.3492063492063492
 40
0.3571428571428572
 40
0.3571428571428572
 40
0.3571428571428572
 40
0.3571428571428572
 40
0.3650793650793651
 40
0.3650793650793651
 40
0.3650793650793651
 40
0.3650793650793651
 40
0.373015873015873
 40
0.373015873015873
 40
0.373015873015873
 40
0.373015873015873
 40
0.3809523809523809
 40
0.3809523809523809
 40
0.3809523809523809
 40
0.3809523809523809
 40
0.3888888888888889
 40
0.3888888888888889
 40
0.3888888888888889
 40
0.3888888888888889
 40
0.3968253968253968
 40
0.3968253968253968
 40
0.3968253968253968
 40
0.3968253968253968
 40
0.4047619047619048
 40
0.4047619047619048
 40
0.4047619047619048
 40
0.4047619047619048
 40
0.4126984126984127
 40
0.4126984126984127
 40
0.4126984126984127
 40
0.4126984126984127
 40
0.4206349206349206
 40
0.4206349206349206
 40
0.4206349206349206
 40
0.4206349206349206
 40
0.4285714285714285
 40
0.4285714285714285
 40
0.4285714285714285
 40
0.4285714285714285
 40
0.4365079365079365
 40
0.4365079365079365
 40
0.4365079365079365
 40
0.4365079365079365
 40
0.4444444444444444
 40
0.4444444444444444
 40
0.4444444444444444
 40
0.4444444444444444
 40
0.4523809523809524
 40
0.4523809523809524
 40
0.4523809523809524
 40
0.4523809523809524
 40
0.4603174603174603
 40
0.4603174603174603
 40
0.4603174603174603
 40
0.4603174603174603
 40
0.4682539682539683
 40
0.4682539682539683
 40
0.4682539682539683
 40
0.4682539682539683
 40
0.4761904761904762
 40
0.4761904761904762
 40
0.4761904761904762
 40
0.4761904761904762
 40
0.4841269841269841
 40
0.4841269841269841
 40
0.4841269841269841
 40
0.4841269841269841
 40
0.492063492063492
 40
0.492063492063492
 40
0.492063492063492
 40
0.492063492063492
 40
0.5
 40
0.5
 40
0.5
 40
0.5
 40
0.5079365079365079
 40
0.5079365079365079
 40
0.5079365079365079
 40
0.5079365079365079
 40
0.5158730158730159
 40
0.5158730158730159
 40
0.5158730158730159
 40
0.5158730158730159
 40
0.5238095238095238
 40
0.5238095238095238
 40
0.5238095238095238
 40
0.5238095238095238
 40
0.5317460317460317
 40
0.5317460317460317
 40
0.5317460317460317
 40
0.5317460317460317
 40
0.5396825396825397
 40
0.5396825396825397
 40
0.5396825396825397
 40
0.5396825396825397
 40
0.5476190476190477
 40
0.5476190476190477
 40
0.5476190476190477
 40
0.5476190476190477
 40
0.5555555555555556
 40
0.5555555555555556
 40
0.5555555555555556
 40
0.5555555555555556
 40
0.5634920634920635
 40
0.5634920634920635
 40
0.5634920634920635
 40
0.5634920634920635
 40
0.5714285714285714
 40
0.5714285714285714
 40
0.5714285714285714
 40
0.5714285714285714
 40
0.5793650793650794
 40
0.5793650793650794
 40
0.5793650793650794
 40
0.5793650793650794
 40
0.5873015873015873
 40
0.5873015873015873
 40
0.5873015873015873
 40
0.5873015873015873
 40
0.5952380952380952
 40
0.5952380952380952
 40
0.5952380952380952
 40
0.5952380952380952
 40
0.6031746031746031
 40
0.6031746031746031
 40
0.6031746031746031
 40
0.6031746031746031
 40
0.6111111111111112
 40
0.6111111111111112
 40
0.6111111111111112
 40
0.6111111111111112
 40
0.6190476190476191
 40
0.6190476190476191
 40
0.6190476190476191
 40
0.6190476190476191
 40
0.626984126984127
 40
0.626984126984127
 40
0.626984126984127
 40
0.626984126984127
 40
0.6349206349206349
 40
0.6349206349206349
 40
0.6349206349206349
 40
0.6349206349206349
 40
0.6428571428571429
 40
0.6428571428571429
 40
0.6428571428571429
 40
0.6428571428571429
 40
0.6507936507936508
 40
0.6507936507936508
 40
0.6507936507936508
 40
0.6507936507936508
 40
0.6587301587301587
 40
0.6587301587301587
 40
0.6587301587301587
 40
0.6587301587301587
 40
0.6666666666666666
 40
0.6666666666666666
 40
0.6666666666666666
 40
0.6666666666666666
 40
0.6746031746031746
 40
0.6746031746031746
 40
0.6746031746031746
 40
0.6746031746031746
 40
0.6825396825396826
 40
0.6825396825396826
 40
0.6825396825396826
 40
0.6825396825396826
 40
0.6904761904761905
 40
0.6904761904761905
 40
0.6904761904761905
 40
0.6904761904761905
 40
0.6984126984126984
 40
0.6984126984126984
 40
0.6984126984126984
 40
0.6984126984126984
 40
0.7063492063492064
 40
0.7063492063492064
 40
0.7063492063492064
 40
0.7063492063492064
 40
0.7142857142857143
 40
0.7142857142857143
 40
0.7142857142857143
 40
0.7142857142857143
 40
0.7222222222222222
 40
0.7222222222222222
 40
0.7222222222222222
 40
0.7222222222222222
 40
0.7301587301587301
 40
0.7301587301587301
 40
0.7301587301587301
 40
0.7301587301587301
 40
0.7380952380952381
 40
0.7380952380952381
 40
0.7380952380952381
 40
0.7380952380952381
 40
0.746031746031746
 40
0.746031746031746
 40
0.746031746031746
 40
0.746031746031746
 40
0.753968253968254
 40
0.753968253968254
 40
0.753968253968254
 40
0.753968253968254
 40
0.7619047619047619
 40
0.7619047619047619
 40
0.7619047619047619
 40
0.7619047619047619
 40
0.7698412698412699
 40
0.7698412698412699
 40
0.7698412698412699
 40
0.7698412698412699
 40
0.7777777777777778
 40
0.7777777777777778
 40
0.7777777777777778
 40
0.7777777777777778
 40
0.7857142857142857
 40
0.7857142857142857
 40
0.7857142857142857
 40
0.7857142857142857
 40
0.7936507936507936
 40
0.7936507936507936
 40
0.7936507936507936
 40
0.7936507936507936
 40
0.8015873015873016
 40
0.8015873015873016
 40
0.8015873015873016
 40
0.8015873015873016
 40
0.8095238095238095
 40
0.8095238095238095
 40
0.8095238095238095
 40
0.8095238095238095
 40
0.8174603174603174
 40
0.8174603174603174
 40
0.8174603174603174
 40
0.8174603174603174
 40
0.8253968253968254
 40
0.8253968253968254
 40
0.8253968253968254
 40
0.8253968253968254
 40
0.8333333333333334
 40
0.8333333333333334
 40
0.8333333333333334
 40
0.8333333333333334
 40
0.8412698412698413
 40
0.8412698412698413
 40
0.8412698412698413
 40
0.8412698412698413
 40
0.8492063492063492
 40
0.8492063492063492
 40
0.8492063492063492
 40
0.8492063492063492
 40
0.8571428571428571
 40
0.8571428571428571
 40
0.8571428571428571
 40
0.8571428571428571
 40
0.8650793650793651
 40
0.8650793650793651
 40
0.8650793650793651
 40
0.8650793650793651
 40
0.873015873015873
 40
0.873015873015873
 40
0.873015873015873
 40
0.873015873015873
 40
0.8809523809523809
 40
0.8809523809523809
 40
0.8809523809523809
 40
0.8809523809523809
 40
0.8888888888888888
 40
0.8888888888888888
 40
0.8888888888888888
 40
0.8888888888888888
 40
0.8968253968253969
 40
0.8968253968253969
 40
0.8968253968253969
 40
0.8968253968253969
 40
0.9047619047619048
 40
0.9047619047619048
 40
0.9047619047619048
 40
0.9047619047619048
 40
0.9126984126984127
 40
0.9126984126984127
 40
0.9126984126984127
 40
0.9126984126984127
 40
0.9206349206349206
 40
0.9206349206349206
 40
0.9206349206349206
 40
0.9206349206349206
 40
0.9285714285714286
 40
0.9285714285714286
 40
0.9285714285714286
 40
0.9285714285714286
 40
0.9365079365079365
 40
0.9365079365079365
 40
0.9365079365079365
 40
0.9365079365079365
 40
0.9444444444444444
 40
0.9444444444444444
 40
0.9444444444444444
 40
0.9444444444444444
 40
0.9523809523809523
 40
0.9523809523809523
 40
0.9523809523809523
 40
0.9523809523809523
 40
0.9603174603174603
 40
0.9603174603174603
 40
0.9603174603174603
 40
0.9603174603174603
 40
0.9682539682539683
 40
0.9682539682539683
 40
0.9682539682539683
 40
0.9682539682539683
 40
0.9761904761904762
 40
0.9761904761904762
 40
0.9761904761904762
 40
0.9761904761904762
 40
0.9841269841269841
 40
0.9841269841269841
 40
0.9841269841269841
 40
0.9841269841269841
 40
1.0
 40
1.0
 40
1.0
 40
1.0
 10
-6.78389
 20
-5.08968
 30
0.0
 10
-6.95894
 20
-5.07134
 30
0.0
 10
-7.0649
 20
-5.05743
 30
0.0
 10
-7.10173
 20
-5.04827
 30
0.0
 10
-7.10173
 20
-5.04827
 30
0.0
 10
-7.13864
 20
-5.03896
 30
0.0
 10
-7.14787
 20
-5.01602
 30
0.0
 10
-7.12938
 20
-4.97908
 30
0.0
 10
-7.12938
 20
-4.97908
 30
0.0
 10
-7.1202
 20
-4.92376
 30
0.0
 10
-7.13404
 20
-4.92376
 30
0.0
 10
-7.17087
 20
-4.97908
 30
0.0
 10
-7.17087
 20
-4.97908
 30
0.0
 10
-7.21693
 20
-5.05271
 30
0.0
 10
-7.25376
 20
-5.06205
 30
0.0
 10
-7.28144
 20
-5.00686
 30
0.0
 10
-7.28144
 20
-5.00686
 30
0.0
 10
-7.30909
 20
-4.96074
 30
0.0
 10
-7.3275
 20
-4.96074
 30
0.0
 10
-7.33674
 20
-5.00686
 30
0.0
 10
-7.33674
 20
-5.00686
 30
0.0
 10
-7.33674
 20
-5.04356
 30
0.0
 10
-7.45654
 20
-5.06205
 30
0.0
 10
-7.69607
 20
-5.06205
 30
0.0
 10
-7.69607
 20
-5.06205
 30
0.0
 10
-7.87112
 20
-5.06205
 30
0.0
 10
-7.98174
 20
-5.05509
 30
0.0
 10
-8.0278
 20
-5.04133
 30
0.0
 10
-8.0278
 20
-5.04133
 30
0.0
 10
-8.07386
 20
-5.02744
 30
0.0
 10
-8.10604
 20
-4.99296
 30
0.0
 10
-8.12453
 20
-4.93767
 30
0.0
 10
-8.12453
 20
-4.93767
 30
0.0
 10
-8.12453
 20
-4.93767
 30
0.0
 10
-8.16602
 20
-4.82702
 30
0.0
 10
-8.16602
 20
-4.82702
 30
0.0
 10
-8.16602
 20
-4.82702
 30
0.0
 10
-8.16602
 20
-4.82702
 30
0.0
 10
-8.15221
 20
-4.93767
 30
0.0
 10
-8.15221
 20
-4.93767
 30
0.0
 10
-8.15221
 20
-4.93767
 30
0.0
 10
-8.14295
 20
-5.00215
 30
0.0
 10
-8.15909
 20
-5.03898
 30
0.0
 10
-8.20058
 20
-5.04829
 30
0.0
 10
-8.20058
 20
-5.04829
 30
0.0
 10
-8.24207
 20
-5.05747
 30
0.0
 10
-8.37333
 20
-5.06207
 30
0.0
 10
-8.59452
 20
-5.06207
 30
0.0
 10
-8.59452
 20
-5.06207
 30
0.0
 10
-8.59452
 20
-5.06207
 30
0.0
 10
-9.06433
 20
-5.06209
 30
0.0
 10
-9.06433
 20
-5.06209
 30
0.0
 10
-9.06433
 20
-5.06209
 30
0.0
 10
-9.06433
 20
-5.06209
 30
0.0
 10
-9.25785
 20
-4.8686
 30
0.0
 10
-9.25785
 20
-4.8686
 30
0.0
 10
-9.25785
 20
-4.8686
 30
0.0
 10
-9.37765
 20
-4.73951
 30
0.0
 10
-9.43756
 20
-4.66585
 30
0.0
 10
-9.43756
 20
-4.64751
 30
0.0
 10
-9.43756
 20
-4.64751
 30
0.0
 10
-9.43756
 20
-4.61986
 30
0.0
 10
-9.50662
 20
-4.53686
 30
0.0
 10
-9.64483
 20
-4.39875
 30
0.0
 10
-9.64483
 20
-4.39875
 30
0.0
 10
-9.73698
 20
-4.30646
 30
0.0
 10
-9.81758
 20
-4.19362
 30
0.0
 10
-9.88674
 20
-4.06006
 30
0.0
 10
-9.88674
 20
-4.06006
 30
0.0
 10
-9.9559
 20
-3.9265
 30
0.0
 10
-10.04565
 20
-3.72137
 30
0.0
 10
-10.15622
 20
-3.44509
 30
0.0
 10
-10.15622
 20
-3.44509
 30
0.0
 10
-10.36815
 20
-2.92891
 30
0.0
 10
-10.41882
 20
-2.50521
 30
0.0
 10
-10.30825
 20
-2.17345
 30
0.0
 10
-10.30825
 20
-2.17345
 30
0.0
 10
-10.253
 20
-1.98914
 30
0.0
 10
-10.21612
 20
-1.77721
 30
0.0
 10
-10.19771
 20
-1.53763
 30
0.0
 10
-10.19771
 20
-1.53763
 30
0.0
 10
-10.19771
 20
-1.42714
 30
0.0
 10
-10.18387
 20
-1.28887
 30
0.0
 10
-10.15622
 20
-1.12305
 30
0.0
 10
-10.15622
 20
-1.12305
 30
0.0
 10
-10.12857
 20
-0.95713
 30
0.0
 10
-10.1009
 20
-0.81896
 30
0.0
 10
-10.07333
 20
-0.70834
 30
0.0
 10
-10.07333
 20
-0.70834
 30
0.0
 10
-10.01801
 20
-0.4504
 30
0.0
 10
-9.9766
 20
-0.20164
 30
0.0
 10
-9.94895
 20
0.03797
 30
0.0
 10
-9.94895
 20
0.03797
 30
0.0
 10
-9.89363
 20
0.50784
 30
0.0
 10
-9.80607
 20
0.86725
 30
0.0
 10
-9.68635
 20
1.11601
 30
0.0
 10
-9.68635
 20
1.11601
 30
0.0
 10
-9.60338
 20
1.29106
 30
0.0
 10
-9.49053
 20
1.48915
 30
0.0
 10
-9.34774
 20
1.71034
 30
0.0
 10
-9.34774
 20
1.71034
 30
0.0
 10
-9.20494
 20
1.93145
 30
0.0
 10
-9.07818
 20
2.09732
 30
0.0
 10
-8.96764
 20
2.20789
 30
0.0
 10
-8.96764
 20
2.20789
 30
0.0
 10
-8.90316
 20
2.27237
 30
0.0
 10
-8.83403
 20
2.34611
 30
0.0
 10
-8.76029
 20
2.429
 30
0.0
 10
-8.76029
 20
2.429
 30
0.0
 10
-8.68655
 20
2.51203
 30
0.0
 10
-8.62673
 20
2.58106
 30
0.0
 10
-8.58066
 20
2.63635
 30
0.0
 10
-8.58066
 20
2.63635
 30
0.0
 10
-8.47004
 20
2.77457
 30
0.0
 10
-8.29499
 20
2.94274
 30
0.0
 10
-8.05546
 20
3.14083
 30
0.0
 10
-8.05546
 20
3.14083
 30
0.0
 10
-7.66202
 20
3.39716
 30
0.0
 10
-7.41443
 20
3.67658
 30
0.0
 10
-6.99805
 20
3.95628
 30
0.0
 10
-6.99805
 20
3.95628
 30
0.0
 10
-6.5604
 20
4.24648
 30
0.0
 10
-6.24486
 20
4.43769
 30
0.0
 10
-6.05134
 20
4.52984
 30
0.0
 10
-6.05134
 20
4.52984
 30
0.0
 10
-5.89473
 20
4.60358
 30
0.0
 10
-5.69201
 20
4.68883
 30
0.0
 10
-5.44325
 20
4.78556
 30
0.0
 10
-5.44325
 20
4.78556
 30
0.0
 10
-5.19449
 20
4.88229
 30
0.0
 10
-4.98713
 20
4.9537
 30
0.0
 10
-4.82127
 20
4.99979
 30
0.0
 10
-4.82127
 20
4.99979
 30
0.0
 10
-4.64614
 20
5.05504
 30
0.0
 10
-4.18545
 20
5.09192
 30
0.0
 10
-3.43914
 20
5.11033
 30
0.0
 10
-3.43914
 20
5.11033
 30
0.0
 10
-2.91394
 20
5.11959
 30
0.0
 10
-2.57075
 20
5.11959
 30
0.0
 10
-2.40946
 20
5.11033
 30
0.0
 10
-2.40946
 20
5.11033
 30
0.0
 10
-2.24825
 20
5.10115
 30
0.0
 10
-2.02476
 20
5.06435
 30
0.0
 10
-1.73911
 20
4.99979
 30
0.0
 10
-1.73911
 20
4.99979
 30
0.0
 10
-1.5733
 20
4.9537
 30
0.0
 10
-1.38666
 20
4.8984
 30
0.0
 10
-1.17938
 20
4.83392
 30
0.0
 10
-1.17938
 20
4.83392
 30
0.0
 10
-0.97203
 20
4.76941
 30
0.0
 10
-0.81312
 20
4.71412
 30
0.0
 10
-0.70255
 20
4.66811
 30
0.0
 10
-0.70255
 20
4.66811
 30
0.0
 10
-0.59201
 20
4.61279
 30
0.0
 10
-0.44455
 20
4.55053
 30
0.0
 10
-0.26027
 20
4.48147
 30
0.0
 10
-0.26027
 20
4.48147
 30
0.0
 10
-0.07599
 20
4.41233
 30
0.0
 10
0.0898
 20
4.35479
 30
0.0
 10
0.23728
 20
4.30872
 30
0.0
 10
0.23728
 20
4.30872
 30
0.0
 10
0.45839
 20
4.22575
 30
0.0
 10
0.70953
 20
4.1129
 30
0.0
 10
0.99055
 20
3.97011
 30
0.0
 10
0.99055
 20
3.97011
 30
0.0
 10
1.27156
 20
3.82731
 30
0.0
 10
1.47209
 20
3.70981
 30
0.0
 10
1.59176
 20
3.61768
 30
0.0
 10
1.59176
 20
3.61768
 30
0.0
 10
1.6379
 20
3.57159
 30
0.0
 10
1.73006
 20
3.5301
 30
0.0
 10
1.8682
 20
3.4933
 30
0.0
 10
1.8682
 20
3.4933
 30
0.0
 10
1.95101
 20
3.46565
 30
0.0
 10
2.07555
 20
3.38273
 30
0.0
 10
2.24147
 20
3.24446
 30
0.0
 10
2.24147
 20
3.24446
 30
0.0
 10
2.40713
 20
3.10632
 30
0.0
 10
2.49023
 20
3.01417
 30
0.0
 10
2.49023
 20
2.9681
 30
0.0
 10
2.49023
 20
2.9681
 30
0.0
 10
2.49023
 20
2.94045
 30
0.0
 10
2.61001
 20
2.90354
 30
0.0
 10
2.84961
 20
2.85748
 30
0.0
 10
2.84961
 20
2.85748
 30
0.0
 10
3.08908
 20
2.80223
 30
0.0
 10
3.26405
 20
2.75617
 30
0.0
 10
3.37468
 20
2.71926
 30
0.0
 10
3.37468
 20
2.71926
 30
0.0
 10
3.46681
 20
2.66401
 30
0.0
 10
3.62818
 20
2.64094
 30
0.0
 10
3.85844
 20
2.65018
 30
0.0
 10
3.85844
 20
2.65018
 30
0.0
 10
3.85844
 20
2.65018
 30
0.0
 10
4.14879
 20
2.67783
 30
0.0
 10
4.14879
 20
2.67783
 30
0.0
 10
4.14879
 20
2.67783
 30
0.0
 10
4.14879
 20
2.67783
 30
0.0
 10
4.1488
 20
3.39654
 30
0.0
 10
4.1488
 20
3.39654
 30
0.0
 10
4.1488
 20
3.39654
 30
0.0
 10
4.13946
 20
3.78357
 30
0.0
 10
4.15102
 20
4.04847
 30
0.0
 10
4.18328
 20
4.1913
 30
0.0
 10
4.18328
 20
4.1913
 30
0.0
 10
4.21551
 20
4.3341
 30
0.0
 10
4.28694
 20
4.43318
 30
0.0
 10
4.39759
 20
4.48848
 30
0.0
 10
4.39759
 20
4.48848
 30
0.0
 10
4.50808
 20
4.55299
 30
0.0
 10
4.61174
 20
4.5506
 30
0.0
 10
4.70861
 20
4.48155
 30
0.0
 10
4.70861
 20
4.48155
 30
0.0
 10
4.80518
 20
4.41241
 30
0.0
 10
4.99185
 20
4.19818
 30
0.0
 10
5.26826
 20
3.8389
 30
0.0
 10
5.26826
 20
3.8389
 30
0.0
 10
5.43407
 20
3.6453
 30
0.0
 10
5.57695
 20
3.52092
 30
0.0
 10
5.69673
 20
3.46568
 30
0.0
 10
5.69673
 20
3.46568
 30
0.0
 10
5.81653
 20
3.41036
 30
0.0
 10
6.03307
 20
3.38279
 30
0.0
 10
6.34631
 20
3.38279
 30
0.0
 10
6.34631
 20
3.38279
 30
0.0
 10
6.69654
 20
3.38279
 30
0.0
 10
7.03968
 20
3.36202
 30
0.0
 10
7.37599
 20
3.32053
 30
0.0
 10
7.37599
 20
3.32053
 30
0.0
 10
7.7122
 20
3.27912
 30
0.0
 10
7.94955
 20
3.23068
 30
0.0
 10
8.08783
 20
3.17543
 30
0.0
 10
8.08783
 20
3.17543
 30
0.0
 10
8.47489
 20
3.00962
 30
0.0
 10
8.86179
 20
3.04639
 30
0.0
 10
9.24872
 20
3.28605
 30
0.0
 10
9.24872
 20
3.28605
 30
0.0
 10
9.46996
 20
3.41503
 30
0.0
 10
9.66343
 20
3.54399
 30
0.0
 10
9.82935
 20
3.67303
 30
0.0
 10
9.82935
 20
3.67303
 30
0.0
 10
10.07798
 20
3.86649
 30
0.0
 10
10.23932
 20
3.89414
 30
0.0
 10
10.31298
 20
3.75592
 30
0.0
 10
10.31298
 20
3.75592
 30
0.0
 10
10.37749
 20
3.62694
 30
0.0
 10
10.3822
 20
3.42876
 30
0.0
 10
10.32687
 20
3.16159
 30
0.0
 10
10.32687
 20
3.16159
 30
0.0
 10
10.27155
 20
2.89439
 30
0.0
 10
10.17929
 20
2.69629
 30
0.0
 10
10.0503
 20
2.56731
 30
0.0
 10
10.0503
 20
2.56731
 30
0.0
 10
9.97667
 20
2.4751
 30
0.0
 10
9.92608
 20
2.33231
 30
0.0
 10
9.8984
 20
2.13884
 30
0.0
 10
9.8984
 20
2.13884
 30
0.0
 10
9.85228
 20
1.90849
 30
0.0
 10
9.77849
 20
1.66431
 30
0.0
 10
9.67731
 20
1.40629
 30
0.0
 10
9.67731
 20
1.40629
 30
0.0
 10
9.66797
 20
1.37864
 30
0.0
 10
9.65646
 20
1.28191
 30
0.0
 10
9.6427
 20
1.11604
 30
0.0
 10
9.6427
 20
1.11604
 30
0.0
 10
9.62881
 20
0.95015
 30
0.0
 10
9.61725
 20
0.76594
 30
0.0
 10
9.60807
 20
0.56317
 30
0.0
 10
9.60807
 20
0.56317
 30
0.0
 10
9.58973
 20
0.0748
 30
0.0
 10
9.54356
 20
-0.29376
 30
0.0
 10
9.46993
 20
-0.54252
 30
0.0
 10
9.46993
 20
-0.54252
 30
0.0
 10
9.39627
 20
-0.77281
 30
0.0
 10
9.34095
 20
-0.88815
 30
0.0
 10
9.30401
 20
-0.88815
 30
0.0
 10
9.30401
 20
-0.88815
 30
0.0
 10
9.27649
 20
-0.88815
 30
0.0
 10
9.25342
 20
-0.93413
 30
0.0
 10
9.23493
 20
-1.02629
 30
0.0
 10
9.23493
 20
-1.02629
 30
0.0
 10
9.21646
 20
-1.0908
 30
0.0
 10
9.11751
 20
-1.19668
 30
0.0
 10
8.93783
 20
-1.34416
 30
0.0
 10
8.93783
 20
-1.34416
 30
0.0
 10
8.75812
 20
-1.49159
 30
0.0
 10
8.61303
 20
-1.57916
 30
0.0
 10
8.50241
 20
-1.60668
 30
0.0
 10
8.50241
 20
-1.60668
 30
0.0
 10
8.4379
 20
-1.63449
 30
0.0
 10
8.35512
 20
-1.67119
 30
0.0
 10
8.25365
 20
-1.71733
 30
0.0
 10
8.25365
 20
-1.71733
 30
0.0
 10
8.17081
 20
-1.78181
 30
0.0
 10
7.99571
 20
-1.81877
 30
0.0
 10
7.72845
 20
-1.82795
 30
0.0
 10
7.72845
 20
-1.82795
 30
0.0
 10
7.46119
 20
-1.85547
 30
0.0
 10
7.25855
 20
-1.91079
 30
0.0
 10
7.12044
 20
-1.99376
 30
0.0
 10
7.12044
 20
-1.99376
 30
0.0
 10
6.68724
 20
-2.27017
 30
0.0
 10
6.38776
 20
-2.58817
 30
0.0
 10
6.22194
 20
-2.94742
 30
0.0
 10
6.22194
 20
-2.94742
 30
0.0
 10
6.14815
 20
-3.10405
 30
0.0
 10
6.05835
 20
-3.24912
 30
0.0
 10
5.95246
 20
-3.38282
 30
0.0
 10
5.95246
 20
-3.38282
 30
0.0
 10
5.84641
 20
-3.51638
 30
0.0
 10
5.7658
 20
-3.58322
 30
0.0
 10
5.71063
 20
-3.58322
 30
0.0
 10
5.71063
 20
-3.58322
 30
0.0
 10
5.49854
 20
-3.58322
 30
0.0
 10
5.32344
 20
-3.72139
 30
0.0
 10
5.1853
 20
-3.99795
 30
0.0
 10
5.1853
 20
-3.99795
 30
0.0
 10
5.05634
 20
-4.27423
 30
0.0
 10
4.95961
 20
-4.44475
 30
0.0
 10
4.8951
 20
-4.50936
 30
0.0
 10
4.8951
 20
-4.50936
 30
0.0
 10
4.83062
 20
-4.57373
 30
0.0
 10
4.72918
 20
-4.5922
 30
0.0
 10
4.59104
 20
-4.56455
 30
0.0
 10
4.59104
 20
-4.56455
 30
0.0
 10
4.47124
 20
-4.53687
 30
0.0
 10
4.44816
 20
-4.54606
 30
0.0
 10
4.52182
 20
-4.5922
 30
0.0
 10
4.52182
 20
-4.5922
 30
0.0
 10
4.60479
 20
-4.61988
 30
0.0
 10
4.53571
 20
-4.63361
 30
0.0
 10
4.31462
 20
-4.63361
 30
0.0
 10
4.31462
 20
-4.63361
 30
0.0
 10
4.08433
 20
-4.63361
 30
0.0
 10
3.95981
 20
-4.61527
 30
0.0
 10
3.94145
 20
-4.57829
 30
0.0
 10
3.94145
 20
-4.57829
 30
0.0
 10
3.91364
 20
-4.54146
 30
0.0
 10
3.8907
 20
-4.54604
 30
0.0
 10
3.87223
 20
-4.59218
 30
0.0
 10
3.87223
 20
-4.59218
 30
0.0
 10
3.83553
 20
-4.63819
 30
0.0
 10
3.75714
 20
-4.6475
 30
0.0
 10
3.63736
 20
-4.61986
 30
0.0
 10
3.63736
 20
-4.61986
 30
0.0
 10
3.49919
 20
-4.60137
 30
0.0
 10
3.44834
 20
-4.56911
 30
0.0
 10
3.48533
 20
-4.523
 30
0.0
 10
3.48533
 20
-4.523
 30
0.0
 10
3.48533
 20
-4.49548
 30
0.0
 10
3.45765
 20
-4.49548
 30
0.0
 10
3.40233
 20
-4.523
 30
0.0
 10
3.40233
 20
-4.523
 30
0.0
 10
3.3287
 20
-4.56912
 30
0.0
 10
3.1237
 20
-4.58068
 30
0.0
 10
2.78739
 20
-4.55761
 30
0.0
 10
2.78739
 20
-4.55761
 30
0.0
 10
2.45105
 20
-4.53467
 30
0.0
 10
2.28291
 20
-4.50938
 30
0.0
 10
2.28291
 20
-4.4816
 30
0.0
 10
2.28291
 20
-4.4816
 30
0.0
 10
2.28291
 20
-4.45408
 30
0.0
 10
2.25066
 20
-4.45408
 30
0.0
 10
2.18618
 20
-4.4816
 30
0.0
 10
2.18618
 20
-4.4816
 30
0.0
 10
2.12167
 20
-4.50938
 30
0.0
 10
2.01108
 20
-4.52301
 30
0.0
 10
1.85445
 20
-4.52301
 30
0.0
 10
1.85445
 20
-4.52301
 30
0.0
 10
1.67001
 20
-4.52301
 30
0.0
 10
1.55497
 20
-4.53687
 30
0.0
 10
1.50882
 20
-4.56455
 30
0.0
 10
1.50882
 20
-4.56455
 30
0.0
 10
1.42598
 20
-4.5922
 30
0.0
 10
1.3846
 20
-4.58302
 30
0.0
 10
1.3846
 20
-4.53687
 30
0.0
 10
1.3846
 20
-4.53687
 30
0.0
 10
1.3846
 20
-4.50004
 30
0.0
 10
1.36611
 20
-4.48157
 30
0.0
 10
1.32928
 20
-4.48157
 30
0.0
 10
1.32928
 20
-4.48157
 30
0.0
 10
1.29232
 20
-4.48157
 30
0.0
 10
1.28314
 20
-4.50004
 30
0.0
 10
1.3016
 20
-4.53687
 30
0.0
 10
1.3016
 20
-4.53687
 30
0.0
 10
1.31994
 20
-4.57373
 30
0.0
 10
1.1311
 20
-4.59219
 30
0.0
 10
0.73499
 20
-4.59219
 30
0.0
 10
0.73499
 20
-4.59219
 30
0.0
 10
0.43093
 20
-4.59219
 30
0.0
 10
0.25345
 20
-4.58761
 30
0.0
 10
0.20273
 20
-4.5783
 30
0.0
 10
0.20273
 20
-4.5783
 30
0.0
 10
0.15214
 20
-4.56912
 30
0.0
 10
0.13603
 20
-4.53232
 30
0.0
 10
0.15436
 20
-4.46781
 30
0.0
 10
0.15436
 20
-4.46781
 30
0.0
 10
0.16354
 20
-4.39402
 30
0.0
 10
0.14976
 20
-4.4032
 30
0.0
 10
0.11295
 20
-4.49549
 30
0.0
 10
0.11295
 20
-4.49549
 30
0.0
 10
0.11295
 20
-4.49549
 30
0.0
 10
0.04389
 20
-4.64752
 30
0.0
 10
0.04389
 20
-4.64752
 30
0.0
 10
0.04389
 20
-4.64752
 30
0.0
 10
0.04389
 20
-4.64752
 30
0.0
 10
-0.50903
 20
-4.64751
 30
0.0
 10
-0.50903
 20
-4.64751
 30
0.0
 10
-0.50903
 20
-4.64751
 30
0.0
 10
-0.50903
 20
-4.64751
 30
0.0
 10
-1.07564
 20
-4.64751
 30
0.0
 10
-1.07564
 20
-4.64751
 30
0.0
 10
-1.07564
 20
-4.64751
 30
0.0
 10
-1.07564
 20
-4.64751
 30
0.0
 10
-1.13096
 20
-4.42627
 30
0.0
 10
-1.13096
 20
-4.42627
 30
0.0
 10
-1.13096
 20
-4.42627
 30
0.0
 10
-1.16779
 20
-4.2881
 30
0.0
 10
-1.17702
 20
-4.26964
 30
0.0
 10
-1.15853
 20
-4.37095
 30
0.0
 10
-1.15853
 20
-4.37095
 30
0.0
 10
-1.15853
 20
-4.37095
 30
0.0
 10
-1.14472
 20
-4.53687
 30
0.0
 10
-1.14472
 20
-4.53687
 30
0.0
 10
-1.14472
 20
-4.53687
 30
0.0
 10
-1.14472
 20
-4.53687
 30
0.0
 10
-1.587
 20
-4.53686
 30
0.0
 10
-1.587
 20
-4.53686
 30
0.0
 10
-1.587
 20
-4.53686
 30
0.0
 10
-1.8819
 20
-4.53686
 30
0.0
 10
-2.04312
 20
-4.55075
 30
0.0
 10
-2.07079
 20
-4.57827
 30
0.0
 10
-2.07079
 20
-4.57827
 30
0.0
 10
-2.10762
 20
-4.61523
 30
0.0
 10
-2.26425
 20
-4.65206
 30
0.0
 10
-2.54074
 20
-4.68892
 30
0.0
 10
-2.54074
 20
-4.68892
 30
0.0
 10
-2.79868
 20
-4.72575
 30
0.0
 10
-3.01522
 20
-4.76255
 30
0.0
 10
-3.19032
 20
-4.79954
 30
0.0
 10
-3.19032
 20
-4.79954
 30
0.0
 10
-3.24562
 20
-4.81788
 30
0.0
 10
-3.3769
 20
-4.83872
 30
0.0
 10
-3.58426
 20
-4.86169
 30
0.0
 10
-3.58426
 20
-4.86169
 30
0.0
 10
-3.79153
 20
-4.88474
 30
0.0
 10
-4.01035
 20
-4.8963
 30
0.0
 10
-4.24072
 20
-4.8963
 30
0.0
 10
-4.24072
 20
-4.8963
 30
0.0
 10
-4.63693
 20
-4.92382
 30
0.0
 10
-4.88112
 20
-4.93771
 30
0.0
 10
-4.97327
 20
-4.93771
 30
0.0
 10
-4.97327
 20
-4.93771
 30
0.0
 10
-5.0654
 20
-4.93771
 30
0.0
 10
-5.1253
 20
-4.91464
 30
0.0
 10
-5.15298
 20
-4.86863
 30
0.0
 10
-5.15298
 20
-4.86863
 30
0.0
 10
-5.19904
 20
-4.80402
 30
0.0
 10
-5.21288
 20
-4.80873
 30
0.0
 10
-5.19447
 20
-4.88241
 30
0.0
 10
-5.19447
 20
-4.88241
 30
0.0
 10
-5.17598
 20
-4.9562
 30
0.0
 10
-5.22664
 20
-5.0161
 30
0.0
 10
-5.34645
 20
-5.06212
 30
0.0
 10
-5.34645
 20
-5.06212
 30
0.0
 10
-5.46625
 20
-5.09895
 30
0.0
 10
-5.61828
 20
-5.11742
 30
0.0
 10
-5.80257
 20
-5.11742
 30
0.0
 10
-5.80257
 20
-5.11742
 30
0.0
 10
-5.80257
 20
-5.11742
 30
0.0
 10
-6.07899
 20
-5.11741
 30
0.0
 10
-6.07899
 20
-5.11741
 30
0.0
 10
-6.07899
 20
-5.11741
 30
0.0
 10
-6.07899
 20
-5.11741
 30
0.0
 10
-5.95461
 20
-4.97914
 30
0.0
 10
-5.95461
 20
-4.97914
 30
0.0
 10
-5.95461
 20
-4.97914
 30
0.0
 10
-5.95461
 20
-4.97914
 30
0.0
 10
-5.81631
 20
-4.82708
 30
0.0
 10
-5.81631
 20
-4.82708
 30
0.0
 10
-5.81631
 20
-4.82708
 30
0.0
 10
-5.81631
 20
-4.82708
 30
0.0
 10
-5.98226
 20
-4.97914
 30
0.0
 10
-5.98226
 20
-4.97914
 30
0.0
 10
-5.98226
 20
-4.97914
 30
0.0
 10
-6.08357
 20
-5.0714
 30
0.0
 10
-6.1803
 20
-5.11283
 30
0.0
 10
-6.27251
 20
-5.10365
 30
0.0
 10
-6.27251
 20
-5.10365
 30
0.0
 10
-6.34616
 20
-5.10357
 30
0.0
 10
-6.51661
 20
-5.09886
 30
0.0
 10
-6.78389
 20
-5.08968
 30
0.0
 10
-6.78389
 20
-5.08968
 30
0.0
 10
-6.78389
 20
-5.08968
 30
0.0
 10
-6.78389
 20
-5.08968
 30
0.0
 10
-6.78389
 20
-5.08968
 30
0.0
 10
-6.78389
 20
-5.08968
 30
0.0
 10
-6.78389
 20
-5.08968
 30
0.0
 10
-6.78389
 20
-5.08968
 30
0.0
 10
-6.78389
 20
-5.08968
 30
0.0
  0
ENDSEC
  0
SECTION
  2
OBJECTS
  0
DICTIONARY
  5
C
330
0
100
AcDbDictionary
281
     1
  3
ACAD_GROUP
350
D
  3
ACAD_LAYOUT
350
1A
  3
ACAD_MATERIAL
350
3B
  3
ACAD_MLEADERSTYLE
350
63
  3
ACAD_MLINESTYLE
350
17
  3
ACAD_PLOTSETTINGS
350
19
  3
ACAD_PLOTSTYLENAME
350
E
  3
ACAD_TABLESTYLE
350
62
  3
ACAD_VISUALSTYLE
350
2A
  0
DICTIONARY
  5
D
102
{ACAD_REACTORS
330
C
102
}
330
C
100
AcDbDictionary
281
     1
  0
DICTIONARY
  5
1A
102
{ACAD_REACTORS
330
C
102
}
330
C
100
AcDbDictionary
281
     1
  3
Layout1
350
1E
  3
Layout2
350
26
  3
Model
350
22
  0
DICTIONARY
  5
3B
102
{ACAD_REACTORS
330
C
102
}
330
C
100
AcDbDictionary
281
     1
  3
ByBlock
350
3D
  3
ByLayer
350
3C
  3
Global
350
3E
  0
DICTIONARY
  5
63
102
{ACAD_REACTORS
330
C
102
}
330
C
100
AcDbDictionary
281
     1
  0
DICTIONARY
  5
17
102
{ACAD_REACTORS
330
C
102
}
330
C
100
AcDbDictionary
281
     1
  3
Standard
350
18
  0
DICTIONARY
  5
19
102
{ACAD_REACTORS
330
C
102
}
330
C
100
AcDbDictionary
281
     1
  0
ACDBDICTIONARYWDFLT
  5
E
102
{ACAD_REACTORS
330
C
102
}
330
C
100
AcDbDictionary
281
     1
  3
Normal
350
F
100
AcDbDictionaryWithDefault
340
F
  0
DICTIONARY
  5
62
102
{ACAD_REACTORS
330
C
102
}
330
C
100
AcDbDictionary
281
     1
  0
DICTIONARY
  5
2A
102
{ACAD_REACTORS
330
C
102
}
330
C
100
AcDbDictionary
281
     1
  3
2dWireframe
350
2F
  3
3D Hidden
350
31
  3
3dWireframe
350
30
  3
Basic
350
32
  3
Brighten
350
36
  3
ColorChange
350
3A
  3
Conceptual
350
34
  3
Dim
350
35
  3
Facepattern
350
39
  3
Flat
350
2B
  3
FlatWithEdges
350
2C
  3
Gouraud
350
2D
  3
GouraudWithEdges
350
2E
  3
Linepattern
350
38
  3
Realistic
350
33
  3
Thicken
350
37
  0
LAYOUT
  5
1E
102
{ACAD_REACTORS
330
1A
102
}
330
1A
100
AcDbPlotSettings
  1

  2
none_device
  4

  6

 40
0.0
 41
0.0
 42
0.0
 43
0.0
 44
0.0
 45
0.0
 46
0.0
 47
0.0
 48
0.0
 49
0.0
140
0.0
141
0.0
142
1.0
143
1.0
 70
   688
 72
     0
 73
     0
 74
     5
  7

 75
    16
 76
     0
 77
     2
 78
   300
147
1.0
148
0.0
149
0.0
100
AcDbLayout
  1
Layout1
 70
     1
 71
     1
 10
0.0
 20
0.0
 11
12.0
 21
9.0
 12
0.0
 22
0.0
 32
0.0
 14
1.000000000000000E+20
 24
1.000000000000000E+20
 34
1.000000000000000E+20
 15
-1.000000000000000E+20
 25
-1.000000000000000E+20
 35
-1.000000000000000E+20
146
0.0
 13
0.0
 23
0.0
 33
0.0
 16
1.0
 26
0.0
 36
0.0
 17
0.0
 27
1.0
 37
0.0
 76
     0
330
1B
  0
LAYOUT
  5
26
102
{ACAD_REACTORS
330
1A
102
}
330
1A
100
AcDbPlotSettings
  1

  2
none_device
  4

  6

 40
0.0
 41
0.0
 42
0.0
 43
0.0
 44
0.0
 45
0.0
 46
0.0
 47
0.0
 48
0.0
 49
0.0
140
0.0
141
0.0
142
1.0
143
1.0
 70
   688
 72
     0
 73
     0
 74
     5
  7

 75
    16
 76
     0
 77
     2
 78
   300
147
1.0
148
0.0
149
0.0
100
AcDbLayout
  1
Layout2
 70
     1
 71
     2
 10
0.0
 20
0.0
 11
0.0
 21
0.0
 12
0.0
 22
0.0
 32
0.0
 14
0.0
 24
0.0
 34
0.0
 15
0.0
 25
0.0
 35
0.0
146
0.0
 13
0.0
 23
0.0
 33
0.0
 16
1.0
 26
0.0
 36
0.0
 17
0.0
 27
1.0
 37
0.0
 76
     0
330
23
  0
LAYOUT
  5
22
102
{ACAD_REACTORS
330
1A
102
}
330
1A
100
AcDbPlotSettings
  1

  2
none_device
  4

  6

 40
0.0
 41
0.0
 42
0.0
 43
0.0
 44
0.0
 45
0.0
 46
0.0
 47
0.0
 48
0.0
 49
0.0
140
0.0
141
0.0
142
1.0
143
1.0
 70
  1712
 72
     0
 73
     0
 74
     0
  7

 75
     0
 76
     0
 77
     2
 78
   300
147
1.0
148
0.0
149
0.0
100
AcDbLayout
  1
Model
 70
     1
 71
     0
 10
0.0
 20
0.0
 11
12.0
 21
9.0
 12
0.0
 22
0.0
 32
0.0
 14
-10.36512
 24
-5.11742
 34
0.0
 15
10.36514
 25
5.11728
 35
0.0
146
0.0
 13
0.0
 23
0.0
 33
0.0
 16
1.0
 26
0.0
 36
0.0
 17
0.0
 27
1.0
 37
0.0
 76
     0
330
1F
331
29
  0
MATERIAL
  5
3D
102
{ACAD_REACTORS
330
3B
102
}
330
3B
100
AcDbMaterial
  1
ByBlock
 72
     1
 94
      127
  0
MATERIAL
  5
3C
102
{ACAD_REACTORS
330
3B
102
}
330
3B
100
AcDbMaterial
  1
ByLayer
 72
     1
 94
      127
  0
MATERIAL
  5
3E
102
{ACAD_REACTORS
330
3B
102
}
330
3B
100
AcDbMaterial
  1
Global
 72
     1
 94
      127
  0
MLINESTYLE
  5
18
102
{ACAD_REACTORS
330
17
102
}
330
17
100
AcDbMlineStyle
  2
Standard
 70
     0
  3

 62
   256
 51
90.0
 52
90.0
 71
     2
 49
0.5
 62
   256
  6
BYLAYER
 49
-0.5
 62
   256
  6
BYLAYER
  0
ACDBPLACEHOLDER
  5
F
102
{ACAD_REACTORS
330
E
102
}
330
E
  0
VISUALSTYLE
  5
2F
102
{ACAD_REACTORS
330
2A
102
}
102
{ACAD_XDICTIONARY
360
4A
102
}
330
2A
100
AcDbVisualStyle
  2
2dWireframe
 70
     4
 71
     0
 72
     2
 73
     0
 90
        0
 40
-0.6
 41
-30.0
 62
     5
 63
     7
421
 16777215
 74
     1
 91
        4
 64
     7
 65
   257
 75
     1
175
     1
 42
1.0
 92
        0
 66
   257
 43
1.0
 76
     1
 77
     6
 78
     2
 67
     7
 79
     5
170
     0
171
     0
290
     0
174
     0
 93
        1
 44
0.0
173
     0
291
     0
 45
0.0
  0
VISUALSTYLE
  5
31
102
{ACAD_REACTORS
330
2A
102
}
102
{ACAD_XDICTIONARY
360
4E
102
}
330
2A
100
AcDbVisualStyle
  2
3D Hidden
 70
     6
 71
     1
 72
     2
 73
     2
 90
        0
 40
-0.6
 41
-30.0
 62
     5
 63
     7
421
 16777215
 74
     2
 91
        2
 64
     7
 65
   257
 75
     2
175
     1
 42
40.0
 92
        0
 66
   257
 43
1.0
 76
     1
 77
     6
 78
     2
 67
     7
 79
     3
170
     0
171
     0
290
     0
174
     0
 93
        1
 44
0.0
173
     0
291
     0
 45
0.0
  0
VISUALSTYLE
  5
30
102
{ACAD_REACTORS
330
2A
102
}
102
{ACAD_XDICTIONARY
360
4C
102
}
330
2A
100
AcDbVisualStyle
  2
3dWireframe
 70
     5
 71
     0
 72
     2
 73
     0
 90
        0
 40
-0.6
 41
-30.0
 62
     5
 63
     7
421
 16777215
 74
     1
 91
        4
 64
     7
 65
   257
 75
     1
175
     1
 42
1.0
 92
        0
 66
   257
 43
1.0
 76
     1
 77
     6
 78
     2
 67
     7
 79
     5
170
     0
171
     0
290
     0
174
     0
 93
        1
 44
0.0
173
     0
291
     0
 45
0.0
  0
VISUALSTYLE
  5
32
102
{ACAD_REACTORS
330
2A
102
}
102
{ACAD_XDICTIONARY
360
50
102
}
330
2A
100
AcDbVisualStyle
  2
Basic
 70
     7
 71
     1
 72
     0
 73
     1
 90
        0
 40
-0.6
 41
-30.0
 62
     5
 63
     7
421
 16777215
 74
     0
 91
        4
 64
     7
 65
   257
 75
     1
175
     1
 42
1.0
 92
        8
 66
     7
 43
1.0
 76
     1
 77
     6
 78
     2
 67
     7
 79
     5
170
     0
171
     0
290
     0
174
     0
 93
        1
 44
0.0
173
     0
291
     1
 45
0.0
  0
VISUALSTYLE
  5
36
102
{ACAD_REACTORS
330
2A
102
}
102
{ACAD_XDICTIONARY
360
58
102
}
330
2A
100
AcDbVisualStyle
  2
Brighten
 70
    12
 71
     2
 72
     2
 73
     0
 90
        0
 40
-0.6
 41
-30.0
 62
     5
 63
     7
421
 16777215
 74
     1
 91
        4
 64
     7
 65
   257
 75
     1
175
     1
 42
1.0
 92
        8
 66
     7
 43
1.0
 76
     1
 77
     6
 78
     2
 67
     7
 79
     5
170
     0
171
     0
290
     0
174
     0
 93
        1
 44
50.0
173
     0
291
     1
 45
0.0
  0
VISUALSTYLE
  5
3A
102
{ACAD_REACTORS
330
2A
102
}
102
{ACAD_XDICTIONARY
360
60
102
}
330
2A
100
AcDbVisualStyle
  2
ColorChange
 70
    16
 71
     2
 72
     2
 73
     3
 90
        0
 40
-0.6
 41
-30.0
 62
     5
 63
     8
421
  8421504
 74
     1
 91
        4
 64
     7
 65
   257
 75
     1
175
     1
 42
1.0
 92
        8
 66
     8
424
  8421504
 43
1.0
 76
     1
 77
     6
 78
     2
 67
     7
 79
     5
170
     0
171
     0
290
     0
174
     0
 93
        1
 44
0.0
173
     0
291
     1
 45
0.0
  0
VISUALSTYLE
  5
34
102
{ACAD_REACTORS
330
2A
102
}
102
{ACAD_XDICTIONARY
360
54
102
}
330
2A
100
AcDbVisualStyle
  2
Conceptual
 70
     9
 71
     3
 72
     2
 73
     0
 90
        0
 40
-0.6
 41
-30.0
 62
     5
 63
     7
421
 16777215
 74
     2
 91
        2
 64
     7
 65
   257
 75
     1
175
     1
 42
40.0
 92
        8
 66
     7
 43
1.0
 76
     1
 77
     6
 78
     2
 67
     7
 79
     3
170
     0
171
     0
290
     0
174
     0
 93
        1
 44
0.0
173
     0
291
     0
 45
0.0
  0
VISUALSTYLE
  5
35
102
{ACAD_REACTORS
330
2A
102
}
102
{ACAD_XDICTIONARY
360
56
102
}
330
2A
100
AcDbVisualStyle
  2
Dim
 70
    11
 71
     2
 72
     2
 73
     0
 90
        0
 40
-0.6
 41
-30.0
 62
     5
 63
     7
421
 16777215
 74
     1
 91
        4
 64
     7
 65
   257
 75
     1
175
     1
 42
1.0
 92
        8
 66
     7
 43
1.0
 76
     1
 77
     6
 78
     2
 67
     7
 79
     5
170
     0
171
     0
290
     0
174
     0
 93
        1
 44
-50.0
173
     0
291
     1
 45
0.0
  0
VISUALSTYLE
  5
39
102
{ACAD_REACTORS
330
2A
102
}
102
{ACAD_XDICTIONARY
360
5E
102
}
330
2A
100
AcDbVisualStyle
  2
Facepattern
 70
    15
 71
     2
 72
     2
 73
     0
 90
        0
 40
-0.6
 41
-30.0
 62
     5
 63
     7
421
 16777215
 74
     1
 91
        4
 64
     7
 65
   257
 75
     1
175
     1
 42
1.0
 92
        8
 66
     7
 43
1.0
 76
     1
 77
     6
 78
     2
 67
     7
 79
     5
170
     0
171
     0
290
     0
174
     0
 93
        1
 44
0.0
173
     0
291
     1
 45
0.0
  0
VISUALSTYLE
  5
2B
102
{ACAD_REACTORS
330
2A
102
}
102
{ACAD_XDICTIONARY
360
42
102
}
330
2A
100
AcDbVisualStyle
  2
Flat
 70
     0
 71
     2
 72
     1
 73
     1
 90
        2
 40
-0.6
 41
30.0
 62
     5
 63
     7
421
 16777215
 74
     0
 91
        4
 64
     7
 65
   257
 75
     1
175
     1
 42
1.0
 92
        8
 66
     7
 43
1.0
 76
     1
 77
     6
 78
     2
 67
     7
 79
     5
170
     0
171
     0
290
     0
174
     0
 93
       13
 44
0.0
173
     0
291
     1
 45
0.0
  0
VISUALSTYLE
  5
2C
102
{ACAD_REACTORS
330
2A
102
}
102
{ACAD_XDICTIONARY
360
44
102
}
330
2A
100
AcDbVisualStyle
  2
FlatWithEdges
 70
     1
 71
     2
 72
     1
 73
     1
 90
        2
 40
-0.6
 41
30.0
 62
     5
 63
     7
421
 16777215
 74
     1
 91
        4
 64
     7
 65
   257
 75
     1
175
     1
 42
1.0
 92
        0
 66
   257
 43
1.0
 76
     1
 77
     6
 78
     2
 67
     7
 79
     5
170
     0
171
     0
290
     0
174
     0
 93
       13
 44
0.0
173
     0
291
     1
 45
0.0
  0
VISUALSTYLE
  5
2D
102
{ACAD_REACTORS
330
2A
102
}
102
{ACAD_XDICTIONARY
360
46
102
}
330
2A
100
AcDbVisualStyle
  2
Gouraud
 70
     2
 71
     2
 72
     2
 73
     1
 90
        2
 40
-0.6
 41
30.0
 62
     5
 63
     7
421
 16777215
 74
     0
 91
        4
 64
     7
 65
   257
 75
     1
175
     1
 42
1.0
 92
        0
 66
     7
 43
1.0
 76
     1
 77
     6
 78
     2
 67
     7
 79
     5
170
     0
171
     0
290
     0
174
     0
 93
       13
 44
0.0
173
     0
291
     1
 45
0.0
  0
VISUALSTYLE
  5
2E
102
{ACAD_REACTORS
330
2A
102
}
102
{ACAD_XDICTIONARY
360
48
102
}
330
2A
100
AcDbVisualStyle
  2
GouraudWithEdges
 70
     3
 71
     2
 72
     2
 73
     1
 90
        2
 40
-0.6
 41
30.0
 62
     5
 63
     7
421
 16777215
 74
     1
 91
        4
 64
     7
 65
   257
 75
     1
175
     1
 42
1.0
 92
        0
 66
   257
 43
1.0
 76
     1
 77
     6
 78
     2
 67
     7
 79
     5
170
     0
171
     0
290
     0
174
     0
 93
       13
 44
0.0
173
     0
291
     1
 45
0.0
  0
VISUALSTYLE
  5
38
102
{ACAD_REACTORS
330
2A
102
}
102
{ACAD_XDICTIONARY
360
5C
102
}
330
2A
100
AcDbVisualStyle
  2
Linepattern
 70
    14
 71
     2
 72
     2
 73
     0
 90
        0
 40
-0.6
 41
-30.0
 62
     5
 63
     7
421
 16777215
 74
     1
 91
        4
 64
     7
 65
   257
 75
     7
175
     7
 42
1.0
 92
        8
 66
     7
 43
1.0
 76
     1
 77
     6
 78
     2
 67
     7
 79
     5
170
     0
171
     0
290
     0
174
     0
 93
        1
 44
0.0
173
     0
291
     1
 45
0.0
  0
VISUALSTYLE
  5
33
102
{ACAD_REACTORS
330
2A
102
}
102
{ACAD_XDICTIONARY
360
52
102
}
330
2A
100
AcDbVisualStyle
  2
Realistic
 70
     8
 71
     2
 72
     2
 73
     0
 90
        0
 40
-0.6
 41
-30.0
 62
     5
 63
     7
421
 16777215
 74
     1
 91
        0
 64
     7
 65
   257
 75
     1
175
     1
 42
1.0
 92
        8
 66
     8
424
  7895160
 43
1.0
 76
     1
 77
     6
 78
     2
 67
     7
 79
     5
170
     0
171
     0
290
     0
174
     0
 93
       13
 44
0.0
173
     0
291
     0
 45
0.0
  0
VISUALSTYLE
  5
37
102
{ACAD_REACTORS
330
2A
102
}
102
{ACAD_XDICTIONARY
360
5A
102
}
330
2A
100
AcDbVisualStyle
  2
Thicken
 70
    13
 71
     2
 72
     2
 73
     0
 90
        0
 40
-0.6
 41
-30.0
 62
     5
 63
     7
421
 16777215
 74
     1
 91
        4
 64
     7
 65
   257
 75
     1
175
     1
 42
1.0
 92
       12
 66
     7
 43
1.0
 76
     1
 77
     6
 78
     2
 67
     7
 79
     5
170
     0
171
     0
290
     0
174
     0
 93
        1
 44
0.0
173
     0
291
     1
 45
0.0
  0
DICTIONARY
  5
4A
330
2F
100
AcDbDictionary
280
     1
281
     1
  3
ACAD_XREC_ROUNDTRIP
360
4B
  0
DICTIONARY
  5
4E
330
31
100
AcDbDictionary
280
     1
281
     1
  3
ACAD_XREC_ROUNDTRIP
360
4F
  0
DICTIONARY
  5
4C
330
30
100
AcDbDictionary
280
     1
281
     1
  3
ACAD_XREC_ROUNDTRIP
360
4D
  0
DICTIONARY
  5
50
330
32
100
AcDbDictionary
280
     1
281
     1
  3
ACAD_XREC_ROUNDTRIP
360
51
  0
DICTIONARY
  5
58
330
36
100
AcDbDictionary
280
     1
281
     1
  3
ACAD_XREC_ROUNDTRIP
360
59
  0
DICTIONARY
  5
60
330
3A
100
AcDbDictionary
280
     1
281
     1
  3
ACAD_XREC_ROUNDTRIP
360
61
  0
DICTIONARY
  5
54
330
34
100
AcDbDictionary
280
     1
281
     1
  3
ACAD_XREC_ROUNDTRIP
360
55
  0
DICTIONARY
  5
56
330
35
100
AcDbDictionary
280
     1
281
     1
  3
ACAD_XREC_ROUNDTRIP
360
57
  0
DICTIONARY
  5
5E
330
39
100
AcDbDictionary
280
     1
281
     1
  3
ACAD_XREC_ROUNDTRIP
360
5F
  0
DICTIONARY
  5
42
330
2B
100
AcDbDictionary
280
     1
281
     1
  3
ACAD_XREC_ROUNDTRIP
360
43
  0
DICTIONARY
  5
44
330
2C
100
AcDbDictionary
280
     1
281
     1
  3
ACAD_XREC_ROUNDTRIP
360
45
  0
DICTIONARY
  5
46
330
2D
100
AcDbDictionary
280
     1
281
     1
  3
ACAD_XREC_ROUNDTRIP
360
47
  0
DICTIONARY
  5
48
330
2E
100
AcDbDictionary
280
     1
281
     1
  3
ACAD_XREC_ROUNDTRIP
360
49
  0
DICTIONARY
  5
5C
330
38
100
AcDbDictionary
280
     1
281
     1
  3
ACAD_XREC_ROUNDTRIP
360
5D
  0
DICTIONARY
  5
52
330
33
100
AcDbDictionary
280
     1
281
     1
  3
ACAD_XREC_ROUNDTRIP
360
53
  0
DICTIONARY
  5
5A
330
37
100
AcDbDictionary
280
     1
281
     1
  3
ACAD_XREC_ROUNDTRIP
360
5B
  0
XRECORD
  5
4B
102
{ACAD_REACTORS
330
4A
102
}
330
4A
100
AcDbXrecord
280
     1
102
RTVSPropertyOp0
 70
     1
102
RTVSPropertyOp1
 70
     1
102
RTVSPropertyOp2
 70
     1
102
RTVSPropertyOp3
 70
     1
102
RTVSPropertyOp4
 70
     1
102
RTVSPropertyOp5
 70
     1
102
RTVSPropertyOp6
 70
     1
102
RTVSPropertyOp7
 70
     1
102
RTVSPropertyOp8
 70
     1
102
RTVSPropertyOp9
 70
     1
102
RTVSPropertyOp10
 70
     1
102
RTVSPropertyOp11
 70
     1
102
RTVSPropertyOp12
 70
     1
102
RTVSPropertyOp13
 70
     1
102
RTVSPropertyOp14
 70
     1
102
RTVSPropertyOp15
 70
     1
102
RTVSPropertyOp16
 70
     1
102
RTVSPropertyOp17
 70
     1
102
RTVSPropertyOp18
 70
     1
102
RTVSPropertyOp19
 70
     1
102
RTVSPropertyOp20
 70
     1
102
RTVSPropertyOp21
 70
     1
102
RTVSPropertyOp22
 70
     1
102
RTVSPropertyOp23
 70
     1
102
RTVSPropertyOp24
 70
     1
102
RTVSPropertyOp25
 70
     1
102
RTVSPropertyOp26
 70
     1
102
RTVSPropertyOp27
 70
     1
102
RTVSPropertyOp28
 70
     1
102
RTVSPropertyOp29
 70
     1
102
RTVSPropertyOp30
 70
     1
102
RTVSPropertyOp31
 70
     1
102
RTVSPropertyOp32
 70
     1
  0
XRECORD
  5
4F
102
{ACAD_REACTORS
330
4E
102
}
330
4E
100
AcDbXrecord
280
     1
102
RTVSPropertyOp0
 70
     1
102
RTVSPropertyOp1
 70
     1
102
RTVSPropertyOp2
 70
     1
102
RTVSPropertyOp3
 70
     1
102
RTVSPropertyOp4
 70
     1
102
RTVSPropertyOp5
 70
     1
102
RTVSPropertyOp6
 70
     1
102
RTVSPropertyOp7
 70
     1
102
RTVSPropertyOp8
 70
     1
102
RTVSPropertyOp9
 70
     1
102
RTVSPropertyOp10
 70
     1
102
RTVSPropertyOp11
 70
     1
102
RTVSPropertyOp12
 70
     1
102
RTVSPropertyOp13
 70
     1
102
RTVSPropertyOp14
 70
     1
102
RTVSPropertyOp15
 70
     1
102
RTVSPropertyOp16
 70
     1
102
RTVSPropertyOp17
 70
     1
102
RTVSPropertyOp18
 70
     1
102
RTVSPropertyOp19
 70
     1
102
RTVSPropertyOp20
 70
     1
102
RTVSPropertyOp21
 70
     1
102
RTVSPropertyOp22
 70
     1
102
RTVSPropertyOp23
 70
     1
102
RTVSPropertyOp24
 70
     1
102
RTVSPropertyOp25
 70
     1
102
RTVSPropertyOp26
 70
     1
102
RTVSPropertyOp27
 70
     1
102
RTVSPropertyOp28
 70
     1
102
RTVSPropertyOp29
 70
     1
102
RTVSPropertyOp30
 70
     1
102
RTVSPropertyOp31
 70
     1
102
RTVSPropertyOp32
 70
     1
  0
XRECORD
  5
4D
102
{ACAD_REACTORS
330
4C
102
}
330
4C
100
AcDbXrecord
280
     1
102
RTVSPropertyOp0
 70
     1
102
RTVSPropertyOp1
 70
     1
102
RTVSPropertyOp2
 70
     1
102
RTVSPropertyOp3
 70
     1
102
RTVSPropertyOp4
 70
     1
102
RTVSPropertyOp5
 70
     1
102
RTVSPropertyOp6
 70
     1
102
RTVSPropertyOp7
 70
     1
102
RTVSPropertyOp8
 70
     1
102
RTVSPropertyOp9
 70
     1
102
RTVSPropertyOp10
 70
     1
102
RTVSPropertyOp11
 70
     1
102
RTVSPropertyOp12
 70
     1
102
RTVSPropertyOp13
 70
     1
102
RTVSPropertyOp14
 70
     1
102
RTVSPropertyOp15
 70
     1
102
RTVSPropertyOp16
 70
     1
102
RTVSPropertyOp17
 70
     1
102
RTVSPropertyOp18
 70
     1
102
RTVSPropertyOp19
 70
     1
102
RTVSPropertyOp20
 70
     1
102
RTVSPropertyOp21
 70
     1
102
RTVSPropertyOp22
 70
     1
102
RTVSPropertyOp23
 70
     1
102
RTVSPropertyOp24
 70
     1
102
RTVSPropertyOp25
 70
     1
102
RTVSPropertyOp26
 70
     1
102
RTVSPropertyOp27
 70
     1
102
RTVSPropertyOp28
 70
     1
102
RTVSPropertyOp29
 70
     1
102
RTVSPropertyOp30
 70
     1
102
RTVSPropertyOp31
 70
     1
102
RTVSPropertyOp32
 70
     1
  0
XRECORD
  5
51
102
{ACAD_REACTORS
330
50
102
}
330
50
100
AcDbXrecord
280
     1
102
RTVSPropertyOp0
 70
     1
102
RTVSPropertyOp1
 70
     1
102
RTVSPropertyOp2
 70
     1
102
RTVSPropertyOp3
 70
     1
102
RTVSPropertyOp4
 70
     1
102
RTVSPropertyOp5
 70
     1
102
RTVSPropertyOp6
 70
     1
102
RTVSPropertyOp7
 70
     1
102
RTVSPropertyOp8
 70
     1
102
RTVSPropertyOp9
 70
     1
102
RTVSPropertyOp10
 70
     1
102
RTVSPropertyOp11
 70
     1
102
RTVSPropertyOp12
 70
     1
102
RTVSPropertyOp13
 70
     1
102
RTVSPropertyOp14
 70
     1
102
RTVSPropertyOp15
 70
     1
102
RTVSPropertyOp16
 70
     1
102
RTVSPropertyOp17
 70
     1
102
RTVSPropertyOp18
 70
     1
102
RTVSPropertyOp19
 70
     1
102
RTVSPropertyOp20
 70
     1
102
RTVSPropertyOp21
 70
     1
102
RTVSPropertyOp22
 70
     1
102
RTVSPropertyOp23
 70
     1
102
RTVSPropertyOp24
 70
     1
102
RTVSPropertyOp25
 70
     1
102
RTVSPropertyOp26
 70
     1
102
RTVSPropertyOp27
 70
     1
102
RTVSPropertyOp28
 70
     1
102
RTVSPropertyOp29
 70
     1
102
RTVSPropertyOp30
 70
     1
102
RTVSPropertyOp31
 70
     1
102
RTVSPropertyOp32
 70
     1
  0
XRECORD
  5
59
102
{ACAD_REACTORS
330
58
102
}
330
58
100
AcDbXrecord
280
     1
102
RTVSPropertyOp0
 70
     1
102
RTVSPropertyOp1
 70
     1
102
RTVSPropertyOp2
 70
     1
102
RTVSPropertyOp3
 70
     1
102
RTVSPropertyOp4
 70
     1
102
RTVSPropertyOp5
 70
     1
102
RTVSPropertyOp6
 70
     1
102
RTVSPropertyOp7
 70
     1
102
RTVSPropertyOp8
 70
     1
102
RTVSPropertyOp9
 70
     1
102
RTVSPropertyOp10
 70
     1
102
RTVSPropertyOp11
 70
     1
102
RTVSPropertyOp12
 70
     1
102
RTVSPropertyOp13
 70
     1
102
RTVSPropertyOp14
 70
     1
102
RTVSPropertyOp15
 70
     1
102
RTVSPropertyOp16
 70
     1
102
RTVSPropertyOp17
 70
     1
102
RTVSPropertyOp18
 70
     1
102
RTVSPropertyOp19
 70
     1
102
RTVSPropertyOp20
 70
     1
102
RTVSPropertyOp21
 70
     1
102
RTVSPropertyOp22
 70
     1
102
RTVSPropertyOp23
 70
     1
102
RTVSPropertyOp24
 70
     1
102
RTVSPropertyOp25
 70
     1
102
RTVSPropertyOp26
 70
     1
102
RTVSPropertyOp27
 70
     1
102
RTVSPropertyOp28
 70
     1
102
RTVSPropertyOp29
 70
     1
102
RTVSPropertyOp30
 70
     1
102
RTVSPropertyOp31
 70
     1
102
RTVSPropertyOp32
 70
     1
  0
XRECORD
  5
61
102
{ACAD_REACTORS
330
60
102
}
330
60
100
AcDbXrecord
280
     1
102
RTVSPropertyOp0
 70
     1
102
RTVSPropertyOp1
 70
     1
102
RTVSPropertyOp2
 70
     1
102
RTVSPropertyOp3
 70
     1
102
RTVSPropertyOp4
 70
     1
102
RTVSPropertyOp5
 70
     1
102
RTVSPropertyOp6
 70
     1
102
RTVSPropertyOp7
 70
     1
102
RTVSPropertyOp8
 70
     1
102
RTVSPropertyOp9
 70
     1
102
RTVSPropertyOp10
 70
     1
102
RTVSPropertyOp11
 70
     1
102
RTVSPropertyOp12
 70
     1
102
RTVSPropertyOp13
 70
     1
102
RTVSPropertyOp14
 70
     1
102
RTVSPropertyOp15
 70
     1
102
RTVSPropertyOp16
 70
     1
102
RTVSPropertyOp17
 70
     1
102
RTVSPropertyOp18
 70
     1
102
RTVSPropertyOp19
 70
     1
102
RTVSPropertyOp20
 70
     1
102
RTVSPropertyOp21
 70
     1
102
RTVSPropertyOp22
 70
     1
102
RTVSPropertyOp23
 70
     1
102
RTVSPropertyOp24
 70
     1
102
RTVSPropertyOp25
 70
     1
102
RTVSPropertyOp26
 70
     1
102
RTVSPropertyOp27
 70
     1
102
RTVSPropertyOp28
 70
     1
102
RTVSPropertyOp29
 70
     1
102
RTVSPropertyOp30
 70
     1
102
RTVSPropertyOp31
 70
     1
102
RTVSPropertyOp32
 70
     1
  0
XRECORD
  5
55
102
{ACAD_REACTORS
330
54
102
}
330
54
100
AcDbXrecord
280
     1
102
RTVSPropertyOp0
 70
     1
102
RTVSPropertyOp1
 70
     1
102
RTVSPropertyOp2
 70
     1
102
RTVSPropertyOp3
 70
     1
102
RTVSPropertyOp4
 70
     1
102
RTVSPropertyOp5
 70
     1
102
RTVSPropertyOp6
 70
     1
102
RTVSPropertyOp7
 70
     1
102
RTVSPropertyOp8
 70
     1
102
RTVSPropertyOp9
 70
     1
102
RTVSPropertyOp10
 70
     1
102
RTVSPropertyOp11
 70
     1
102
RTVSPropertyOp12
 70
     1
102
RTVSPropertyOp13
 70
     1
102
RTVSPropertyOp14
 70
     1
102
RTVSPropertyOp15
 70
     1
102
RTVSPropertyOp16
 70
     1
102
RTVSPropertyOp17
 70
     1
102
RTVSPropertyOp18
 70
     1
102
RTVSPropertyOp19
 70
     1
102
RTVSPropertyOp20
 70
     1
102
RTVSPropertyOp21
 70
     1
102
RTVSPropertyOp22
 70
     1
102
RTVSPropertyOp23
 70
     1
102
RTVSPropertyOp24
 70
     1
102
RTVSPropertyOp25
 70
     1
102
RTVSPropertyOp26
 70
     1
102
RTVSPropertyOp27
 70
     1
102
RTVSPropertyOp28
 70
     1
102
RTVSPropertyOp29
 70
     1
102
RTVSPropertyOp30
 70
     1
102
RTVSPropertyOp31
 70
     1
102
RTVSPropertyOp32
 70
     1
  0
XRECORD
  5
57
102
{ACAD_REACTORS
330
56
102
}
330
56
100
AcDbXrecord
280
     1
102
RTVSPropertyOp0
 70
     1
102
RTVSPropertyOp1
 70
     1
102
RTVSPropertyOp2
 70
     1
102
RTVSPropertyOp3
 70
     1
102
RTVSPropertyOp4
 70
     1
102
RTVSPropertyOp5
 70
     1
102
RTVSPropertyOp6
 70
     1
102
RTVSPropertyOp7
 70
     1
102
RTVSPropertyOp8
 70
     1
102
RTVSPropertyOp9
 70
     1
102
RTVSPropertyOp10
 70
     1
102
RTVSPropertyOp11
 70
     1
102
RTVSPropertyOp12
 70
     1
102
RTVSPropertyOp13
 70
     1
102
RTVSPropertyOp14
 70
     1
102
RTVSPropertyOp15
 70
     1
102
RTVSPropertyOp16
 70
     1
102
RTVSPropertyOp17
 70
     1
102
RTVSPropertyOp18
 70
     1
102
RTVSPropertyOp19
 70
     1
102
RTVSPropertyOp20
 70
     1
102
RTVSPropertyOp21
 70
     1
102
RTVSPropertyOp22
 70
     1
102
RTVSPropertyOp23
 70
     1
102
RTVSPropertyOp24
 70
     1
102
RTVSPropertyOp25
 70
     1
102
RTVSPropertyOp26
 70
     1
102
RTVSPropertyOp27
 70
     1
102
RTVSPropertyOp28
 70
     1
102
RTVSPropertyOp29
 70
     1
102
RTVSPropertyOp30
 70
     1
102
RTVSPropertyOp31
 70
     1
102
RTVSPropertyOp32
 70
     1
  0
XRECORD
  5
5F
102
{ACAD_REACTORS
330
5E
102
}
330
5E
100
AcDbXrecord
280
     1
102
RTVSPropertyOp0
 70
     1
102
RTVSPropertyOp1
 70
     1
102
RTVSPropertyOp2
 70
     1
102
RTVSPropertyOp3
 70
     1
102
RTVSPropertyOp4
 70
     1
102
RTVSPropertyOp5
 70
     1
102
RTVSPropertyOp6
 70
     1
102
RTVSPropertyOp7
 70
     1
102
RTVSPropertyOp8
 70
     1
102
RTVSPropertyOp9
 70
     1
102
RTVSPropertyOp10
 70
     1
102
RTVSPropertyOp11
 70
     1
102
RTVSPropertyOp12
 70
     1
102
RTVSPropertyOp13
 70
     1
102
RTVSPropertyOp14
 70
     1
102
RTVSPropertyOp15
 70
     1
102
RTVSPropertyOp16
 70
     1
102
RTVSPropertyOp17
 70
     1
102
RTVSPropertyOp18
 70
     1
102
RTVSPropertyOp19
 70
     1
102
RTVSPropertyOp20
 70
     1
102
RTVSPropertyOp21
 70
     1
102
RTVSPropertyOp22
 70
     1
102
RTVSPropertyOp23
 70
     1
102
RTVSPropertyOp24
 70
     1
102
RTVSPropertyOp25
 70
     1
102
RTVSPropertyOp26
 70
     1
102
RTVSPropertyOp27
 70
     1
102
RTVSPropertyOp28
 70
     1
102
RTVSPropertyOp29
 70
     1
102
RTVSPropertyOp30
 70
     1
102
RTVSPropertyOp31
 70
     1
102
RTVSPropertyOp32
 70
     1
  0
XRECORD
  5
43
102
{ACAD_REACTORS
330
42
102
}
330
42
100
AcDbXrecord
280
     1
102
RTVSPropertyOp0
 70
     1
102
RTVSPropertyOp1
 70
     1
102
RTVSPropertyOp2
 70
     1
102
RTVSPropertyOp3
 70
     1
102
RTVSPropertyOp4
 70
     1
102
RTVSPropertyOp5
 70
     1
102
RTVSPropertyOp6
 70
     1
102
RTVSPropertyOp7
 70
     1
102
RTVSPropertyOp8
 70
     1
102
RTVSPropertyOp9
 70
     1
102
RTVSPropertyOp10
 70
     1
102
RTVSPropertyOp11
 70
     1
102
RTVSPropertyOp12
 70
     1
102
RTVSPropertyOp13
 70
     1
102
RTVSPropertyOp14
 70
     1
102
RTVSPropertyOp15
 70
     1
102
RTVSPropertyOp16
 70
     1
102
RTVSPropertyOp17
 70
     1
102
RTVSPropertyOp18
 70
     1
102
RTVSPropertyOp19
 70
     1
102
RTVSPropertyOp20
 70
     1
102
RTVSPropertyOp21
 70
     1
102
RTVSPropertyOp22
 70
     1
102
RTVSPropertyOp23
 70
     1
102
RTVSPropertyOp24
 70
     1
102
RTVSPropertyOp25
 70
     1
102
RTVSPropertyOp26
 70
     1
102
RTVSPropertyOp27
 70
     1
102
RTVSPropertyOp28
 70
     1
102
RTVSPropertyOp29
 70
     1
102
RTVSPropertyOp30
 70
     1
102
RTVSPropertyOp31
 70
     1
102
RTVSPropertyOp32
 70
     1
  0
XRECORD
  5
45
102
{ACAD_REACTORS
330
44
102
}
330
44
100
AcDbXrecord
280
     1
102
RTVSPropertyOp0
 70
     1
102
RTVSPropertyOp1
 70
     1
102
RTVSPropertyOp2
 70
     1
102
RTVSPropertyOp3
 70
     1
102
RTVSPropertyOp4
 70
     1
102
RTVSPropertyOp5
 70
     1
102
RTVSPropertyOp6
 70
     1
102
RTVSPropertyOp7
 70
     1
102
RTVSPropertyOp8
 70
     1
102
RTVSPropertyOp9
 70
     1
102
RTVSPropertyOp10
 70
     1
102
RTVSPropertyOp11
 70
     1
102
RTVSPropertyOp12
 70
     1
102
RTVSPropertyOp13
 70
     1
102
RTVSPropertyOp14
 70
     1
102
RTVSPropertyOp15
 70
     1
102
RTVSPropertyOp16
 70
     1
102
RTVSPropertyOp17
 70
     1
102
RTVSPropertyOp18
 70
     1
102
RTVSPropertyOp19
 70
     1
102
RTVSPropertyOp20
 70
     1
102
RTVSPropertyOp21
 70
     1
102
RTVSPropertyOp22
 70
     1
102
RTVSPropertyOp23
 70
     1
102
RTVSPropertyOp24
 70
     1
102
RTVSPropertyOp25
 70
     1
102
RTVSPropertyOp26
 70
     1
102
RTVSPropertyOp27
 70
     1
102
RTVSPropertyOp28
 70
     1
102
RTVSPropertyOp29
 70
     1
102
RTVSPropertyOp30
 70
     1
102
RTVSPropertyOp31
 70
     1
102
RTVSPropertyOp32
 70
     1
  0
XRECORD
  5
47
102
{ACAD_REACTORS
330
46
102
}
330
46
100
AcDbXrecord
280
     1
102
RTVSPropertyOp0
 70
     1
102
RTVSPropertyOp1
 70
     1
102
RTVSPropertyOp2
 70
     1
102
RTVSPropertyOp3
 70
     1
102
RTVSPropertyOp4
 70
     1
102
RTVSPropertyOp5
 70
     1
102
RTVSPropertyOp6
 70
     1
102
RTVSPropertyOp7
 70
     1
102
RTVSPropertyOp8
 70
     1
102
RTVSPropertyOp9
 70
     1
102
RTVSPropertyOp10
 70
     1
102
RTVSPropertyOp11
 70
     1
102
RTVSPropertyOp12
 70
     1
102
RTVSPropertyOp13
 70
     1
102
RTVSPropertyOp14
 70
     1
102
RTVSPropertyOp15
 70
     1
102
RTVSPropertyOp16
 70
     1
102
RTVSPropertyOp17
 70
     1
102
RTVSPropertyOp18
 70
     1
102
RTVSPropertyOp19
 70
     1
102
RTVSPropertyOp20
 70
     1
102
RTVSPropertyOp21
 70
     1
102
RTVSPropertyOp22
 70
     1
102
RTVSPropertyOp23
 70
     1
102
RTVSPropertyOp24
 70
     1
102
RTVSPropertyOp25
 70
     1
102
RTVSPropertyOp26
 70
     1
102
RTVSPropertyOp27
 70
     1
102
RTVSPropertyOp28
 70
     1
102
RTVSPropertyOp29
 70
     1
102
RTVSPropertyOp30
 70
     1
102
RTVSPropertyOp31
 70
     1
102
RTVSPropertyOp32
 70
     1
  0
XRECORD
  5
49
102
{ACAD_REACTORS
330
48
102
}
330
48
100
AcDbXrecord
280
     1
102
RTVSPropertyOp0
 70
     1
102
RTVSPropertyOp1
 70
     1
102
RTVSPropertyOp2
 70
     1
102
RTVSPropertyOp3
 70
     1
102
RTVSPropertyOp4
 70
     1
102
RTVSPropertyOp5
 70
     1
102
RTVSPropertyOp6
 70
     1
102
RTVSPropertyOp7
 70
     1
102
RTVSPropertyOp8
 70
     1
102
RTVSPropertyOp9
 70
     1
102
RTVSPropertyOp10
 70
     1
102
RTVSPropertyOp11
 70
     1
102
RTVSPropertyOp12
 70
     1
102
RTVSPropertyOp13
 70
     1
102
RTVSPropertyOp14
 70
     1
102
RTVSPropertyOp15
 70
     1
102
RTVSPropertyOp16
 70
     1
102
RTVSPropertyOp17
 70
     1
102
RTVSPropertyOp18
 70
     1
102
RTVSPropertyOp19
 70
     1
102
RTVSPropertyOp20
 70
     1
102
RTVSPropertyOp21
 70
     1
102
RTVSPropertyOp22
 70
     1
102
RTVSPropertyOp23
 70
     1
102
RTVSPropertyOp24
 70
     1
102
RTVSPropertyOp25
 70
     1
102
RTVSPropertyOp26
 70
     1
102
RTVSPropertyOp27
 70
     1
102
RTVSPropertyOp28
 70
     1
102
RTVSPropertyOp29
 70
     1
102
RTVSPropertyOp30
 70
     1
102
RTVSPropertyOp31
 70
     1
102
RTVSPropertyOp32
 70
     1
  0
XRECORD
  5
5D
102
{ACAD_REACTORS
330
5C
102
}
330
5C
100
AcDbXrecord
280
     1
102
RTVSPropertyOp0
 70
     1
102
RTVSPropertyOp1
 70
     1
102
RTVSPropertyOp2
 70
     1
102
RTVSPropertyOp3
 70
     1
102
RTVSPropertyOp4
 70
     1
102
RTVSPropertyOp5
 70
     1
102
RTVSPropertyOp6
 70
     1
102
RTVSPropertyOp7
 70
     1
102
RTVSPropertyOp8
 70
     1
102
RTVSPropertyOp9
 70
     1
102
RTVSPropertyOp10
 70
     1
102
RTVSPropertyOp11
 70
     1
102
RTVSPropertyOp12
 70
     1
102
RTVSPropertyOp13
 70
     1
102
RTVSPropertyOp14
 70
     1
102
RTVSPropertyOp15
 70
     1
102
RTVSPropertyOp16
 70
     1
102
RTVSPropertyOp17
 70
     1
102
RTVSPropertyOp18
 70
     1
102
RTVSPropertyOp19
 70
     1
102
RTVSPropertyOp20
 70
     1
102
RTVSPropertyOp21
 70
     1
102
RTVSPropertyOp22
 70
     1
102
RTVSPropertyOp23
 70
     1
102
RTVSPropertyOp24
 70
     1
102
RTVSPropertyOp25
 70
     1
102
RTVSPropertyOp26
 70
     1
102
RTVSPropertyOp27
 70
     1
102
RTVSPropertyOp28
 70
     1
102
RTVSPropertyOp29
 70
     1
102
RTVSPropertyOp30
 70
     1
102
RTVSPropertyOp31
 70
     1
102
RTVSPropertyOp32
 70
     1
  0
XRECORD
  5
53
102
{ACAD_REACTORS
330
52
102
}
330
52
100
AcDbXrecord
280
     1
102
RTVSPropertyOp0
 70
     1
102
RTVSPropertyOp1
 70
     1
102
RTVSPropertyOp2
 70
     1
102
RTVSPropertyOp3
 70
     1
102
RTVSPropertyOp4
 70
     1
102
RTVSPropertyOp5
 70
     1
102
RTVSPropertyOp6
 70
     1
102
RTVSPropertyOp7
 70
     1
102
RTVSPropertyOp8
 70
     1
102
RTVSPropertyOp9
 70
     1
102
RTVSPropertyOp10
 70
     1
102
RTVSPropertyOp11
 70
     1
102
RTVSPropertyOp12
 70
     1
102
RTVSPropertyOp13
 70
     1
102
RTVSPropertyOp14
 70
     1
102
RTVSPropertyOp15
 70
     1
102
RTVSPropertyOp16
 70
     1
102
RTVSPropertyOp17
 70
     1
102
RTVSPropertyOp18
 70
     1
102
RTVSPropertyOp19
 70
     1
102
RTVSPropertyOp20
 70
     1
102
RTVSPropertyOp21
 70
     1
102
RTVSPropertyOp22
 70
     1
102
RTVSPropertyOp23
 70
     1
102
RTVSPropertyOp24
 70
     1
102
RTVSPropertyOp25
 70
     1
102
RTVSPropertyOp26
 70
     1
102
RTVSPropertyOp27
 70
     1
102
RTVSPropertyOp28
 70
     1
102
RTVSPropertyOp29
 70
     1
102
RTVSPropertyOp30
 70
     1
102
RTVSPropertyOp31
 70
     1
102
RTVSPropertyOp32
 70
     1
  0
XRECORD
  5
5B
102
{ACAD_REACTORS
330
5A
102
}
330
5A
100
AcDbXrecord
280
     1
102
RTVSPropertyOp0
 70
     1
102
RTVSPropertyOp1
 70
     1
102
RTVSPropertyOp2
 70
     1
102
RTVSPropertyOp3
 70
     1
102
RTVSPropertyOp4
 70
     1
102
RTVSPropertyOp5
 70
     1
102
RTVSPropertyOp6
 70
     1
102
RTVSPropertyOp7
 70
     1
102
RTVSPropertyOp8
 70
     1
102
RTVSPropertyOp9
 70
     1
102
RTVSPropertyOp10
 70
     1
102
RTVSPropertyOp11
 70
     1
102
RTVSPropertyOp12
 70
     1
102
RTVSPropertyOp13
 70
     1
102
RTVSPropertyOp14
 70
     1
102
RTVSPropertyOp15
 70
     1
102
RTVSPropertyOp16
 70
     1
102
RTVSPropertyOp17
 70
     1
102
RTVSPropertyOp18
 70
     1
102
RTVSPropertyOp19
 70
     1
102
RTVSPropertyOp20
 70
     1
102
RTVSPropertyOp21
 70
     1
102
RTVSPropertyOp22
 70
     1
102
RTVSPropertyOp23
 70
     1
102
RTVSPropertyOp24
 70
     1
102
RTVSPropertyOp25
 70
     1
102
RTVSPropertyOp26
 70
     1
102
RTVSPropertyOp27
 70
     1
102
RTVSPropertyOp28
 70
     1
102
RTVSPropertyOp29
 70
     1
102
RTVSPropertyOp30
 70
     1
102
RTVSPropertyOp31
 70
     1
102
RTVSPropertyOp32
 70
     1
  0
ENDSEC
  0
EOF
