  0
SECTION
  2
HEADER
  9
$ACADVER
  1
AC1024
  9
$ACADMAINTVER
 70
     6
  9
$DWGCODEPAGE
  3
ANSI_1251
  9
$INSBASE
 10
0.0
 20
0.0
 30
0.0
  9
$EXTMIN
 10
1.000000000000000E+20
 20
1.000000000000000E+20
 30
1.000000000000000E+20
  9
$EXTMAX
 10
-1.000000000000000E+20
 20
-1.000000000000000E+20
 30
-1.000000000000000E+20
  9
$LIMMIN
 10
0.0
 20
0.0
  9
$LIMMAX
 10
12.0
 20
9.0
  9
$ORTHOMODE
 70
     0
  9
$REGENMODE
 70
     1
  9
$FILLMODE
 70
     1
  9
$QTEXTMODE
 70
     0
  9
$MIRRTEXT
 70
     1
  9
$LTSCALE
 40
1.0
  9
$ATTMODE
 70
     1
  9
$TEXTSIZE
 40
0.2
  9
$TRACEWID
 40
0.05
  9
$TEXTSTYLE
  7
Standard
  9
$CLAYER
  8
0
  9
$CELTYPE
  6
ByLayer
  9
$CECOLOR
 62
   256
  9
$CELTSCALE
 40
1.0
  9
$DISPSILH
 70
     0
  9
$DIMSCALE
 40
1.0
  9
$DIMASZ
 40
0.18
  9
$DIMEXO
 40
0.0625
  9
$DIMDLI
 40
0.38
  9
$DIMRND
 40
0.0
  9
$DIMDLE
 40
0.0
  9
$DIMEXE
 40
0.18
  9
$DIMTP
 40
0.0
  9
$DIMTM
 40
0.0
  9
$DIMTXT
 40
0.18
  9
$DIMCEN
 40
0.09
  9
$DIMTSZ
 40
0.0
  9
$DIMTOL
 70
     0
  9
$DIMLIM
 70
     0
  9
$DIMTIH
 70
     1
  9
$DIMTOH
 70
     1
  9
$DIMSE1
 70
     0
  9
$DIMSE2
 70
     0
  9
$DIMTAD
 70
     0
  9
$DIMZIN
 70
     0
  9
$DIMBLK
  1

  9
$DIMASO
 70
     1
  9
$DIMSHO
 70
     1
  9
$DIMPOST
  1

  9
$DIMAPOST
  1

  9
$DIMALT
 70
     0
  9
$DIMALTD
 70
     2
  9
$DIMALTF
 40
25.4
  9
$DIMLFAC
 40
1.0
  9
$DIMTOFL
 70
     0
  9
$DIMTVP
 40
0.0
  9
$DIMTIX
 70
     0
  9
$DIMSOXD
 70
     0
  9
$DIMSAH
 70
     0
  9
$DIMBLK1
  1

  9
$DIMBLK2
  1

  9
$DIMSTYLE
  2
Standard
  9
$DIMCLRD
 70
     0
  9
$DIMCLRE
 70
     0
  9
$DIMCLRT
 70
     0
  9
$DIMTFAC
 40
1.0
  9
$DIMGAP
 40
0.09
  9
$DIMJUST
 70
     0
  9
$DIMSD1
 70
     0
  9
$DIMSD2
 70
     0
  9
$DIMTOLJ
 70
     1
  9
$DIMTZIN
 70
     0
  9
$DIMALTZ
 70
     0
  9
$DIMALTTZ
 70
     0
  9
$DIMUPT
 70
     0
  9
$DIMDEC
 70
     4
  9
$DIMTDEC
 70
     4
  9
$DIMALTU
 70
     2
  9
$DIMALTTD
 70
     2
  9
$DIMTXSTY
  7
Standard
  9
$DIMAUNIT
 70
     0
  9
$DIMADEC
 70
     0
  9
$DIMALTRND
 40
0.0
  9
$DIMAZIN
 70
     0
  9
$DIMDSEP
 70
    46
  9
$DIMATFIT
 70
     3
  9
$DIMFRAC
 70
     0
  9
$DIMLDRBLK
  1

  9
$DIMLUNIT
 70
     2
  9
$DIMLWD
 70
    -2
  9
$DIMLWE
 70
    -2
  9
$DIMTMOVE
 70
     0
  9
$DIMFXL
 40
1.0
  9
$DIMFXLON
 70
     0
  9
$DIMJOGANG
 40
0.7853981633974483
  9
$DIMTFILL
 70
     0
  9
$DIMTFILLCLR
 70
     0
  9
$DIMARCSYM
 70
     0
  9
$DIMLTYPE
  6

  9
$DIMLTEX1
  6

  9
$DIMLTEX2
  6

  9
$DIMTXTDIRECTION
 70
     0
  9
$LUNITS
 70
     2
  9
$LUPREC
 70
     4
  9
$SKETCHINC
 40
0.1
  9
$FILLETRAD
 40
0.5
  9
$AUNITS
 70
     0
  9
$AUPREC
 70
     0
  9
$MENU
  1
.
  9
$ELEVATION
 40
0.0
  9
$PELEVATION
 40
0.0
  9
$THICKNESS
 40
0.0
  9
$LIMCHECK
 70
     0
  9
$CHAMFERA
 40
0.5
  9
$CHAMFERB
 40
0.5
  9
$CHAMFERC
 40
1.0
  9
$CHAMFERD
 40
0.0
  9
$SKPOLY
 70
     0
  9
$TDCREATE
 40
2459886.606225625
  9
$TDUCREATE
 40
2459886.481225625
  9
$TDUPDATE
 40
2459886.606225625
  9
$TDUUPDATE
 40
2459886.481225625
  9
$TDINDWG
 40
0.0000000116
  9
$TDUSRTIMER
 40
0.0000000116
  9
$USRTIMER
 70
     1
  9
$ANGBASE
 50
0.0
  9
$ANGDIR
 70
     0
  9
$PDMODE
 70
     0
  9
$PDSIZE
 40
0.0
  9
$PLINEWID
 40
0.0
  9
$SPLFRAME
 70
     0
  9
$SPLINETYPE
 70
     6
  9
$SPLINESEGS
 70
     8
  9
$HANDSEED
  5
7D
  9
$SURFTAB1
 70
     6
  9
$SURFTAB2
 70
     6
  9
$SURFTYPE
 70
     6
  9
$SURFU
 70
     6
  9
$SURFV
 70
     6
  9
$UCSBASE
  2

  9
$UCSNAME
  2

  9
$UCSORG
 10
0.0
 20
0.0
 30
0.0
  9
$UCSXDIR
 10
1.0
 20
0.0
 30
0.0
  9
$UCSYDIR
 10
0.0
 20
1.0
 30
0.0
  9
$UCSORTHOREF
  2

  9
$UCSORTHOVIEW
 70
     0
  9
$UCSORGTOP
 10
0.0
 20
0.0
 30
0.0
  9
$UCSORGBOTTOM
 10
0.0
 20
0.0
 30
0.0
  9
$UCSORGLEFT
 10
0.0
 20
0.0
 30
0.0
  9
$UCSORGRIGHT
 10
0.0
 20
0.0
 30
0.0
  9
$UCSORGFRONT
 10
0.0
 20
0.0
 30
0.0
  9
$UCSORGBACK
 10
0.0
 20
0.0
 30
0.0
  9
$PUCSBASE
  2

  9
$PUCSNAME
  2

  9
$PUCSORG
 10
0.0
 20
0.0
 30
0.0
  9
$PUCSXDIR
 10
1.0
 20
0.0
 30
0.0
  9
$PUCSYDIR
 10
0.0
 20
1.0
 30
0.0
  9
$PUCSORTHOREF
  2

  9
$PUCSORTHOVIEW
 70
     0
  9
$PUCSORGTOP
 10
0.0
 20
0.0
 30
0.0
  9
$PUCSORGBOTTOM
 10
0.0
 20
0.0
 30
0.0
  9
$PUCSORGLEFT
 10
0.0
 20
0.0
 30
0.0
  9
$PUCSORGRIGHT
 10
0.0
 20
0.0
 30
0.0
  9
$PUCSORGFRONT
 10
0.0
 20
0.0
 30
0.0
  9
$PUCSORGBACK
 10
0.0
 20
0.0
 30
0.0
  9
$USERI1
 70
     0
  9
$USERI2
 70
     0
  9
$USERI3
 70
     0
  9
$USERI4
 70
     0
  9
$USERI5
 70
     0
  9
$USERR1
 40
0.0
  9
$USERR2
 40
0.0
  9
$USERR3
 40
0.0
  9
$USERR4
 40
0.0
  9
$USERR5
 40
0.0
  9
$WORLDVIEW
 70
     1
  9
$SHADEDGE
 70
     3
  9
$SHADEDIF
 70
    70
  9
$TILEMODE
 70
     1
  9
$MAXACTVP
 70
    64
  9
$PINSBASE
 10
0.0
 20
0.0
 30
0.0
  9
$PLIMCHECK
 70
     0
  9
$PEXTMIN
 10
1.000000000000000E+20
 20
1.000000000000000E+20
 30
1.000000000000000E+20
  9
$PEXTMAX
 10
-1.000000000000000E+20
 20
-1.000000000000000E+20
 30
-1.000000000000000E+20
  9
$PLIMMIN
 10
0.0
 20
0.0
  9
$PLIMMAX
 10
12.0
 20
9.0
  9
$UNITMODE
 70
     0
  9
$VISRETAIN
 70
     1
  9
$PLINEGEN
 70
     0
  9
$PSLTSCALE
 70
     1
  9
$TREEDEPTH
 70
  3020
  9
$CMLSTYLE
  2
Standard
  9
$CMLJUST
 70
     0
  9
$CMLSCALE
 40
1.0
  9
$PROXYGRAPHICS
 70
     1
  9
$MEASUREMENT
 70
     0
  9
$CELWEIGHT
370
    -1
  9
$ENDCAPS
280
     0
  9
$JOINSTYLE
280
     0
  9
$LWDISPLAY
290
     1
  9
$INSUNITS
 70
     1
  9
$HYPERLINKBASE
  1

  9
$STYLESHEET
  1

  9
$XEDIT
290
     1
  9
$CEPSNTYPE
380
     0
  9
$PSTYLEMODE
290
     1
  9
$FINGERPRINTGUID
  2
{A1DC0F52-7BFA-4438-8538-FFA82E0E0471}
  9
$VERSIONGUID
  2
{FAEB1C32-E019-11D5-929B-00C0DF256EC4}
  9
$EXTNAMES
290
     1
  9
$PSVPSCALE
 40
0.0
  9
$OLESTARTUP
290
     0
  9
$SORTENTS
280
   127
  9
$INDEXCTL
280
     0
  9
$HIDETEXT
280
     1
  9
$XCLIPFRAME
280
     2
  9
$HALOGAP
280
     0
  9
$OBSCOLOR
 70
   257
  9
$OBSLTYPE
280
     0
  9
$INTERSECTIONDISPLAY
280
     0
  9
$INTERSECTIONCOLOR
 70
   257
  9
$DIMASSOC
280
     2
  9
$PROJECTNAME
  1

  9
$CAMERADISPLAY
290
     0
  9
$LENSLENGTH
 40
50.0
  9
$CAMERAHEIGHT
 40
0.0
  9
$STEPSPERSEC
 40
2.0
  9
$STEPSIZE
 40
6.0
  9
$3DDWFPREC
 40
2.0
  9
$PSOLWIDTH
 40
0.25
  9
$PSOLHEIGHT
 40
4.0
  9
$LOFTANG1
 40
1.570796326794897
  9
$LOFTANG2
 40
1.570796326794897
  9
$LOFTMAG1
 40
0.0
  9
$LOFTMAG2
 40
0.0
  9
$LOFTPARAM
 70
     7
  9
$LOFTNORMALS
280
     1
  9
$LATITUDE
 40
37.795
  9
$LONGITUDE
 40
-122.394
  9
$NORTHDIRECTION
 40
0.0
  9
$TIMEZONE
 70
 -8000
  9
$LIGHTGLYPHDISPLAY
280
     1
  9
$TILEMODELIGHTSYNCH
280
     1
  9
$CMATERIAL
347
3C
  9
$SOLIDHIST
280
     1
  9
$SHOWHIST
280
     1
  9
$DWFFRAME
280
     2
  9
$DGNFRAME
280
     2
  9
$REALWORLDSCALE
290
     1
  9
$INTERFERECOLOR
 62
   256
  9
$CSHADOW
280
     0
  9
$SHADOWPLANELOCATION
 40
0.0
  0
ENDSEC
  0
SECTION
  2
CLASSES
  0
CLASS
  1
ACDBDICTIONARYWDFLT
  2
AcDbDictionaryWithDefault
  3
ObjectDBX Classes
 90
        0
 91
        4
280
     0
281
     0
  0
CLASS
  1
VISUALSTYLE
  2
AcDbVisualStyle
  3
ObjectDBX Classes
 90
     4095
 91
        4
280
     0
281
     0
  0
CLASS
  1
MATERIAL
  2
AcDbMaterial
  3
ObjectDBX Classes
 90
     1153
 91
        4
280
     0
281
     0
  0
CLASS
  1
SUN
  2
AcDbSun
  3
SCENEOE
 90
     1024
 91
        4
280
     0
281
     0
  0
ENDSEC
  0
SECTION
  2
TABLES
  0
TABLE
  2
VPORT
  5
8
330
0
100
AcDbSymbolTable
 70
     1
  0
VPORT
  5
29
330
8
100
AcDbSymbolTableRecord
100
AcDbViewportTableRecord
  2
*Active
 70
     0
 10
0.0
 20
0.0
 11
1.0
 21
1.0
 12
0.0
 22
0.0
 13
0.0
 23
0.0
 14
0.5
 24
0.5
 15
0.5
 25
0.5
 16
0.0
 26
0.0
 36
1.0
 17
180.0
 27
432.0
 37
0.0
 40
864.0
 41
0.4166666666666667
 42
50.0
 43
0.0
 44
0.0
 50
0.0
 51
0.0
 71
     0
 72
   100
 73
     1
 74
     3
 75
     0
 76
     0
 77
     0
 78
     0
281
     0
 65
     1
110
0.0
120
0.0
130
0.0
111
1.0
121
0.0
131
0.0
112
0.0
122
1.0
132
0.0
 79
     0
146
0.0
 60
     3
 61
     5
292
     1
282
     1
141
0.0
142
0.0
 63
   250
361
3F
  0
ENDTAB
  0
TABLE
  2
LTYPE
  5
5
330
0
100
AcDbSymbolTable
 70
     1
  0
LTYPE
  5
14
330
5
100
AcDbSymbolTableRecord
100
AcDbLinetypeTableRecord
  2
ByBlock
 70
     0
  3

 72
    65
 73
     0
 40
0.0
  0
LTYPE
  5
15
330
5
100
AcDbSymbolTableRecord
100
AcDbLinetypeTableRecord
  2
ByLayer
 70
     0
  3

 72
    65
 73
     0
 40
0.0
  0
LTYPE
  5
16
330
5
100
AcDbSymbolTableRecord
100
AcDbLinetypeTableRecord
  2
Continuous
 70
     0
  3
Solid line
 72
    65
 73
     0
 40
0.0
  0
ENDTAB
  0
TABLE
  2
LAYER
  5
2
330
0
100
AcDbSymbolTable
 70
     2
  0
LAYER
  5
10
330
2
100
AcDbSymbolTableRecord
100
AcDbLayerTableRecord
  2
0
 70
     0
 62
     7
  6
Continuous
370
    -3
390
F
347
3E
  0
LAYER
  5
40
330
2
100
AcDbSymbolTableRecord
100
AcDbLayerTableRecord
  2
_U+0421_U+043B_U+043E_U+0439 1
 70
     0
 62
     7
  6
Continuous
370
    -3
390
F
347
3E
  0
ENDTAB
  0
TABLE
  2
STYLE
  5
3
330
0
100
AcDbSymbolTable
 70
     1
  0
STYLE
  5
11
330
3
100
AcDbSymbolTableRecord
100
AcDbTextStyleTableRecord
  2
Standard
 70
     0
 40
0.0
 41
1.0
 50
0.0
 71
     0
 42
0.2
  3
txt
  4

  0
ENDTAB
  0
TABLE
  2
VIEW
  5
6
330
0
100
AcDbSymbolTable
 70
     0
  0
ENDTAB
  0
TABLE
  2
UCS
  5
7
330
0
100
AcDbSymbolTable
 70
     0
  0
ENDTAB
  0
TABLE
  2
APPID
  5
9
330
0
100
AcDbSymbolTable
 70
     1
  0
APPID
  5
12
330
9
100
AcDbSymbolTableRecord
100
AcDbRegAppTableRecord
  2
ACAD
 70
     0
  0
ENDTAB
  0
TABLE
  2
DIMSTYLE
  5
A
330
0
100
AcDbSymbolTable
 70
     1
100
AcDbDimStyleTable
  0
DIMSTYLE
105
27
330
A
100
AcDbSymbolTableRecord
100
AcDbDimStyleTableRecord
  2
Standard
 70
     0
178
     0
340
11
  0
ENDTAB
  0
TABLE
  2
BLOCK_RECORD
  5
1
330
0
100
AcDbSymbolTable
 70
     1
  0
BLOCK_RECORD
  5
1F
330
1
100
AcDbSymbolTableRecord
100
AcDbBlockTableRecord
  2
*Model_Space
340
22
 70
     0
280
     1
281
     0
  0
BLOCK_RECORD
  5
1B
330
1
100
AcDbSymbolTableRecord
100
AcDbBlockTableRecord
  2
*Paper_Space
340
1E
 70
     0
280
     1
281
     0
  0
BLOCK_RECORD
  5
23
330
1
100
AcDbSymbolTableRecord
100
AcDbBlockTableRecord
  2
*Paper_Space0
340
26
 70
     0
280
     1
281
     0
  0
ENDTAB
  0
ENDSEC
  0
SECTION
  2
BLOCKS
  0
BLOCK
  5
20
330
1F
100
AcDbEntity
  8
0
100
AcDbBlockBegin
  2
*Model_Space
 70
     0
 10
0.0
 20
0.0
 30
0.0
  3
*Model_Space
  1

  0
ENDBLK
  5
21
330
1F
100
AcDbEntity
  8
0
100
AcDbBlockEnd
  0
BLOCK
  5
1C
330
1B
100
AcDbEntity
 67
     1
  8
0
100
AcDbBlockBegin
  2
*Paper_Space
 70
     0
 10
0.0
 20
0.0
 30
0.0
  3
*Paper_Space
  1

  0
ENDBLK
  5
1D
330
1B
100
AcDbEntity
 67
     1
  8
0
100
AcDbBlockEnd
  0
BLOCK
  5
24
330
23
100
AcDbEntity
  8
0
100
AcDbBlockBegin
  2
*Paper_Space0
 70
     0
 10
0.0
 20
0.0
 30
0.0
  3
*Paper_Space0
  1

  0
ENDBLK
  5
25
330
23
100
AcDbEntity
  8
0
100
AcDbBlockEnd
  0
ENDSEC
  0
SECTION
  2
ENTITIES
  0
SPLINE
  5
41
330
1F
100
AcDbEntity
  8
_U+0421_U+043B_U+043E_U+0439 1
 62
     1
420
 16711680
370
    35
100
AcDbSpline
210
0.0
220
0.0
230
1.0
 70
    11
 71
     3
 72
    68
 73
    64
 74
     0
 42
0.0000000001
 43
0.0000000001
 12
1.0
 22
0.0
 32
0.0
 13
1.0
 23
0.0
 33
0.0
 40
0.0
 40
0.0
 40
0.0
 40
0.0
 40
1.0
 40
1.0
 40
1.0
 40
2.0
 40
2.0
 40
2.0
 40
3.0
 40
3.0
 40
3.0
 40
4.0
 40
4.0
 40
4.0
 40
5.0
 40
5.0
 40
5.0
 40
6.0
 40
6.0
 40
6.0
 40
7.0
 40
7.0
 40
7.0
 40
8.0
 40
8.0
 40
8.0
 40
9.0
 40
9.0
 40
9.0
 40
10.0
 40
10.0
 40
10.0
 40
11.0
 40
11.0
 40
11.0
 40
12.0
 40
12.0
 40
12.0
 40
13.0
 40
13.0
 40
13.0
 40
14.0
 40
14.0
 40
14.0
 40
15.0
 40
15.0
 40
15.0
 40
16.0
 40
16.0
 40
16.0
 40
17.0
 40
17.0
 40
17.0
 40
18.0
 40
18.0
 40
18.0
 40
19.0
 40
19.0
 40
19.0
 40
20.0
 40
20.0
 40
20.0
 40
21.0
 40
21.0
 40
21.0
 40
21.0
 10
324.0
 20
684.0
 30
0.0
 10
324.0
 20
763.5289993286133
 30
0.0
 10
259.5289916992188
 20
828.0
 30
0.0
 10
180.0
 20
828.0
 30
0.0
 10
180.0
 20
828.0
 30
0.0
 10
180.0
 20
828.0
 30
0.0
 10
180.0
 20
828.0
 30
0.0
 10
100.4710006713867
 20
828.0
 30
0.0
 10
36.0
 20
763.5289993286133
 30
0.0
 10
36.0
 20
684.0
 30
0.0
 10
36.0
 20
684.0
 30
0.0
 10
36.0
 20
94.0980224609375
 30
0.0
 10
36.0
 20
94.0980224609375
 30
0.0
 10
36.0
 20
83.3280029296875
 30
0.0
 10
35.98300170898438
 20
59.7010498046875
 30
0.0
 10
53.34700012207031
 20
44.78802490234375
 30
0.0
 10
60.05099868774414
 20
39.0450439453125
 30
0.0
 10
67.76100158691406
 20
36.010009765625
 30
0.0
 10
75.64099884033203
 20
36.010009765625
 30
0.0
 10
82.052001953125
 20
36.010009765625
 30
0.0
 10
88.26100158691406
 20
38.02899169921875
 30
0.0
 10
93.58699798583984
 20
41.84100341796875
 30
0.0
 10
101.0639953613281
 20
47.1829833984375
 30
0.0
 10
103.4219970703125
 20
50.23602294921875
 30
0.0
 10
116.5099945068359
 20
67.177978515625
 30
0.0
 10
119.27099609375
 20
70.751953125
 30
0.0
 10
122.5589904785156
 20
75.00897216796875
 30
0.0
 10
126.4829940795898
 20
80.052001953125
 30
0.0
 10
128.5199890136719
 20
82.635986328125
 30
0.0
 10
130.8119964599609
 20
84.2540283203125
 30
0.0
 10
136.4889984130859
 20
84.8709716796875
 30
0.0
 10
139.5240020751953
 20
85.18597412109375
 30
0.0
 10
159.7429962158203
 20
85.5369873046875
 30
0.0
 10
183.9019927978516
 20
85.5369873046875
 30
0.0
 10
207.5149993896484
 20
85.5369873046875
 30
0.0
 10
221.1669921875
 20
85.2030029296875
 30
0.0
 10
224.2229919433594
 20
84.8709716796875
 30
0.0
 10
229.9059906005859
 20
84.25494384765625
 30
0.0
 10
232.197998046875
 20
82.63897705078125
 30
0.0
 10
234.1749877929688
 20
80.13494873046875
 30
0.0
 10
238.1729888916016
 20
74.99395751953125
 30
0.0
 10
241.4699859619141
 20
70.7259521484375
 30
0.0
 10
244.2289886474609
 20
67.1529541015625
 30
0.0
 10
257.4530029296875
 20
50.031982421875
 30
0.0
 10
259.4859924316406
 20
47.40093994140625
 30
0.0
 10
267.1170043945312
 20
41.8499755859375
 30
0.0
 10
272.4580078125
 20
38.02294921875
 30
0.0
 10
278.6730041503906
 20
36.0
 30
0.0
 10
285.0889892578125
 20
35.99896240234375
 30
0.0
 10
285.0899963378906
 20
35.99896240234375
 30
0.0
 10
285.0899963378906
 20
35.99896240234375
 30
0.0
 10
285.0910034179688
 20
35.99896240234375
 30
0.0
 10
292.9550170898438
 20
35.99896240234375
 30
0.0
 10
300.6610107421875
 20
39.0379638671875
 30
0.0
 10
307.3860168457031
 20
44.7989501953125
 30
0.0
 10
324.6230163574219
 20
59.60595703125
 30
0.0
 10
323.905029296875
 20
83.24993896484375
 30
0.0
 10
324.0000305175781
 20
94.1629638671875
 30
0.0
 10
324.0000305175781
 20
94.1629638671875
 30
0.0
 10
324.0000305175781
 20
684.0
 30
0.0
 10
324.0000305175781
 20
684.0
 30
0.0
 10
324.0000305175781
 20
684.0
 30
0.0
 10
324.0
 20
684.0
 30
0.0
 10
324.0
 20
684.0
 30
0.0
  0
SPLINE
  5
42
330
1F
100
AcDbEntity
  8
_U+0421_U+043B_U+043E_U+0439 1
 62
     1
420
 16711680
370
    35
100
AcDbSpline
210
0.0
220
0.0
230
1.0
 70
    11
 71
     3
 72
    17
 73
    13
 74
     0
 42
0.0000000001
 43
0.0000000001
 12
1.0
 22
0.0
 32
0.0
 13
1.0
 23
0.0
 33
0.0
 40
0.0
 40
0.0
 40
0.0
 40
0.0
 40
1.0
 40
1.0
 40
1.0
 40
2.0
 40
2.0
 40
2.0
 40
3.0
 40
3.0
 40
3.0
 40
4.0
 40
4.0
 40
4.0
 40
4.0
 10
180.5760040283203
 20
601.0150146484375
 30
0.0
 10
133.4889984130859
 20
600.1420288085938
 30
0.0
 10
95.14200592041016
 20
638.489013671875
 30
0.0
 10
96.01500701904297
 20
685.5760192871094
 30
0.0
 10
96.83800506591797
 20
729.9520263671875
 30
0.0
 10
133.0490112304688
 20
766.1630172729492
 30
0.0
 10
177.4250183105469
 20
766.9850158691406
 30
0.0
 10
224.5120239257812
 20
767.8580169677734
 30
0.0
 10
262.8590087890625
 20
729.5110168457031
 30
0.0
 10
261.9860229492188
 20
682.4240112304688
 30
0.0
 10
261.1629943847656
 20
638.0480041503906
 30
0.0
 10
224.9519958496094
 20
601.8370056152344
 30
0.0
 10
180.5760040283203
 20
601.0150146484375
 30
0.0
  0
SPLINE
  5
43
330
1F
100
AcDbEntity
  8
_U+0421_U+043B_U+043E_U+0439 1
370
     0
100
AcDbSpline
210
0.0
220
0.0
230
1.0
 70
    11
 71
     3
 72
    35
 73
    31
 74
     0
 42
0.0000000001
 43
0.0000000001
 12
1.0
 22
0.0
 32
0.0
 13
1.0
 23
0.0
 33
0.0
 40
0.0
 40
0.0
 40
0.0
 40
0.0
 40
1.0
 40
1.0
 40
1.0
 40
2.0
 40
2.0
 40
2.0
 40
3.0
 40
3.0
 40
3.0
 40
4.0
 40
4.0
 40
4.0
 40
5.0
 40
5.0
 40
5.0
 40
6.0
 40
6.0
 40
6.0
 40
7.0
 40
7.0
 40
7.0
 40
8.0
 40
8.0
 40
8.0
 40
9.0
 40
9.0
 40
9.0
 40
10.0
 40
10.0
 40
10.0
 40
10.0
 10
116.7350006103516
 20
416.7319946289062
 30
0.0
 10
116.7350006103516
 20
425.8489990234375
 30
0.0
 10
119.1029968261719
 20
432.9989929199219
 30
0.0
 10
128.2409973144531
 20
432.9989929199219
 30
0.0
 10
135.5399932861328
 20
432.9989929199219
 30
0.0
 10
138.5740051269531
 20
424.10400390625
 30
0.0
 10
134.9309997558594
 20
426.3349914550781
 30
0.0
 10
133.8110046386719
 20
427.0189819335938
 30
0.0
 10
132.947998046875
 20
430.9969787597656
 30
0.0
 10
128.2409973144531
 20
430.9969787597656
 30
0.0
 10
117.254997253418
 20
430.9969787597656
 30
0.0
 10
120.0399932861328
 20
398.031982421875
 30
0.0
 10
128.2409973144531
 20
398.031982421875
 30
0.0
 10
133.4609985351562
 20
398.031982421875
 30
0.0
 10
133.9179992675781
 20
407.0879821777344
 30
0.0
 10
133.9179992675781
 20
412.2979736328125
 30
0.0
 10
130.5410003662109
 20
412.2979736328125
 30
0.0
 10
127.5820007324219
 20
411.9999694824219
 30
0.0
 10
127.5820007324219
 20
413.386962890625
 30
0.0
 10
127.5820007324219
 20
414.2259521484375
 30
0.0
 10
128.8099975585938
 20
414.501953125
 30
0.0
 10
129.6860046386719
 20
414.501953125
 30
0.0
 10
135.5240020751953
 20
414.4089660644531
 30
0.0
 10
137.0360107421875
 20
414.9529418945312
 30
0.0
 10
137.0360107421875
 20
411.9939575195312
 30
0.0
 10
137.0360107421875
 20
406.6899719238281
 30
0.0
 10
136.2250061035156
 20
402.7029418945312
 30
0.0
 10
134.6030120849609
 20
400.0349731445312
 30
0.0
 10
129.35400390625
 20
391.3980102539062
 30
0.0
 10
116.7350006103516
 20
396.489990234375
 30
0.0
 10
116.7350006103516
 20
416.7319946289062
 30
0.0
  0
SPLINE
  5
44
330
1F
100
AcDbEntity
  8
_U+0421_U+043B_U+043E_U+0439 1
370
     0
100
AcDbSpline
210
0.0
220
0.0
230
1.0
 70
    11
 71
     3
 72
    26
 73
    22
 74
     0
 42
0.0000000001
 43
0.0000000001
 12
1.0
 22
0.0
 32
0.0
 13
1.0
 23
0.0
 33
0.0
 40
0.0
 40
0.0
 40
0.0
 40
0.0
 40
1.0
 40
1.0
 40
1.0
 40
2.0
 40
2.0
 40
2.0
 40
3.0
 40
3.0
 40
3.0
 40
4.0
 40
4.0
 40
4.0
 40
5.0
 40
5.0
 40
5.0
 40
6.0
 40
6.0
 40
6.0
 40
7.0
 40
7.0
 40
7.0
 40
7.0
 10
160.927001953125
 20
396.5379943847656
 30
0.0
 10
159.2360076904297
 20
396.5379943847656
 30
0.0
 10
159.8549957275391
 20
399.8679809570312
 30
0.0
 10
159.7100067138672
 20
407.81298828125
 30
0.0
 10
154.2080078125
 20
409.1349792480469
 30
0.0
 10
147.9610137939453
 20
409.0639953613281
 30
0.0
 10
142.7550048828125
 20
407.81298828125
 30
0.0
 10
142.7920074462891
 20
401.1699829101562
 30
0.0
 10
143.8870086669922
 20
396.5379943847656
 30
0.0
 10
142.4260101318359
 20
396.5379943847656
 30
0.0
 10
140.9450073242188
 20
396.5379943847656
 30
0.0
 10
140.7370147705078
 20
402.0759887695312
 30
0.0
 10
140.6010131835938
 20
403.9869995117188
 30
0.0
 10
139.8090057373047
 20
415.1990051269531
 30
0.0
 10
140.4800109863281
 20
432.9739990234375
 30
0.0
 10
151.7270202636719
 20
432.9739990234375
 30
0.0
 10
157.9960174560547
 20
432.9739990234375
 30
0.0
 10
161.0660247802734
 20
429.1940002441406
 30
0.0
 10
162.4100189208984
 20
422.9150085449219
 30
0.0
 10
164.3560028076172
 20
413.8160095214844
 30
0.0
 10
163.4519958496094
 20
396.5379943847656
 30
0.0
 10
160.927001953125
 20
396.5379943847656
 30
0.0
  0
SPLINE
  5
45
330
1F
100
AcDbEntity
  8
_U+0421_U+043B_U+043E_U+0439 1
370
     0
100
AcDbSpline
210
0.0
220
0.0
230
1.0
 70
    11
 71
     3
 72
    14
 73
    10
 74
     0
 42
0.0000000001
 43
0.0000000001
 12
1.0
 22
0.0
 32
0.0
 13
1.0
 23
0.0
 33
0.0
 40
0.0
 40
0.0
 40
0.0
 40
0.0
 40
1.0
 40
1.0
 40
1.0
 40
2.0
 40
2.0
 40
2.0
 40
3.0
 40
3.0
 40
3.0
 40
3.0
 10
142.781005859375
 20
410.0429992675781
 30
0.0
 10
148.4140014648438
 20
411.3510131835938
 30
0.0
 10
154.0180053710938
 20
411.3619995117188
 30
0.0
 10
159.635009765625
 20
410.0679931640625
 30
0.0
 10
159.2750091552734
 20
415.8639831542969
 30
0.0
 10
158.7830047607422
 20
430.7949829101562
 30
0.0
 10
151.8290100097656
 20
430.7949829101562
 30
0.0
 10
144.1809997558594
 20
430.7950134277344
 30
0.0
 10
142.9019927978516
 20
417.6910095214844
 30
0.0
 10
142.781005859375
 20
410.0429992675781
 30
0.0
  0
SPLINE
  5
46
330
1F
100
AcDbEntity
  8
_U+0421_U+043B_U+043E_U+0439 1
370
     0
100
AcDbSpline
210
0.0
220
0.0
230
1.0
 70
    11
 71
     3
 72
    47
 73
    43
 74
     0
 42
0.0000000001
 43
0.0000000001
 12
1.0
 22
0.0
 32
0.0
 13
1.0
 23
0.0
 33
0.0
 40
0.0
 40
0.0
 40
0.0
 40
0.0
 40
1.0
 40
1.0
 40
1.0
 40
2.0
 40
2.0
 40
2.0
 40
3.0
 40
3.0
 40
3.0
 40
4.0
 40
4.0
 40
4.0
 40
5.0
 40
5.0
 40
5.0
 40
6.0
 40
6.0
 40
6.0
 40
7.0
 40
7.0
 40
7.0
 40
8.0
 40
8.0
 40
8.0
 40
9.0
 40
9.0
 40
9.0
 40
10.0
 40
10.0
 40
10.0
 40
11.0
 40
11.0
 40
11.0
 40
12.0
 40
12.0
 40
12.0
 40
13.0
 40
13.0
 40
13.0
 40
14.0
 40
14.0
 40
14.0
 40
14.0
 10
192.5910034179688
 20
398.7170104980469
 30
0.0
 10
192.5910034179688
 20
407.0950012207031
 30
0.0
 10
192.2369995117188
 20
415.7530212402344
 30
0.0
 10
191.5270080566406
 20
424.6890258789062
 30
0.0
 10
188.927001953125
 20
417.4960327148438
 30
0.0
 10
185.0820007324219
 20
410.4990234375
 30
0.0
 10
183.2140045166016
 20
407.6110229492188
 30
0.0
 10
181.2220001220703
 20
404.56201171875
 30
0.0
 10
179.8379974365234
 20
407.3250122070312
 30
0.0
 10
176.7000122070312
 20
413.3370361328125
 30
0.0
 10
174.7070159912109
 20
417.1890258789062
 30
0.0
 10
173.0420074462891
 20
420.9720458984375
 30
0.0
 10
171.7080078125
 20
424.6890258789062
 30
0.0
 10
170.9810028076172
 20
415.7530212402344
 30
0.0
 10
170.6180114746094
 20
407.0960388183594
 30
0.0
 10
170.6180114746094
 20
398.717041015625
 30
0.0
 10
170.6180114746094
 20
396.0180358886719
 30
0.0
 10
168.1330108642578
 20
395.5200500488281
 30
0.0
 10
167.8550109863281
 20
398.9960327148438
 30
0.0
 10
167.2530059814453
 20
406.5990295410156
 30
0.0
 10
166.8450164794922
 20
421.2890319824219
 30
0.0
 10
167.5260162353516
 20
429.6300354003906
 30
0.0
 10
167.8280181884766
 20
433.1240234375
 30
0.0
 10
171.2810211181641
 20
434.7200317382812
 30
0.0
 10
172.3410186767578
 20
430.4410400390625
 30
0.0
 10
174.3800201416016
 20
422.280029296875
 30
0.0
 10
179.2470245361328
 20
412.9930419921875
 30
0.0
 10
181.5910186767578
 20
409.1570434570312
 30
0.0
 10
182.4360198974609
 20
410.5760498046875
 30
0.0
 10
183.4490203857422
 20
412.4260559082031
 30
0.0
 10
184.6320190429688
 20
414.7060546875
 30
0.0
 10
192.0050048828125
 20
428.8999938964844
 30
0.0
 10
190.2319946289062
 20
433.0
 30
0.0
 10
192.9459991455078
 20
433.0
 30
0.0
 10
196.4490051269531
 20
433.0
 30
0.0
 10
196.2929992675781
 20
427.52099609375
 30
0.0
 10
195.9250030517578
 20
409.8919982910156
 30
0.0
 10
195.8990020751953
 20
408.6700134277344
 30
0.0
 10
195.6630096435547
 20
398.3150024414062
 30
0.0
 10
194.8350067138672
 20
397.1340026855469
 30
0.0
 10
193.9669952392578
 20
395.8999938964844
 30
0.0
 10
192.5910034179688
 20
396.6659851074219
 30
0.0
 10
192.5910034179688
 20
398.7170104980469
 30
0.0
  0
SPLINE
  5
47
330
1F
100
AcDbEntity
  8
_U+0421_U+043B_U+043E_U+0439 1
370
     0
100
AcDbSpline
210
0.0
220
0.0
230
1.0
 70
    11
 71
     3
 72
    44
 73
    40
 74
     0
 42
0.0000000001
 43
0.0000000001
 12
1.0
 22
0.0
 32
0.0
 13
1.0
 23
0.0
 33
0.0
 40
0.0
 40
0.0
 40
0.0
 40
0.0
 40
1.0
 40
1.0
 40
1.0
 40
2.0
 40
2.0
 40
2.0
 40
3.0
 40
3.0
 40
3.0
 40
4.0
 40
4.0
 40
4.0
 40
5.0
 40
5.0
 40
5.0
 40
6.0
 40
6.0
 40
6.0
 40
7.0
 40
7.0
 40
7.0
 40
8.0
 40
8.0
 40
8.0
 40
9.0
 40
9.0
 40
9.0
 40
10.0
 40
10.0
 40
10.0
 40
11.0
 40
11.0
 40
11.0
 40
12.0
 40
12.0
 40
12.0
 40
13.0
 40
13.0
 40
13.0
 40
13.0
 10
201.8300018310547
 20
396.5379943847656
 30
0.0
 10
200.8789978027344
 20
396.5379943847656
 30
0.0
 10
200.4700012207031
 20
397.9389953613281
 30
0.0
 10
200.3860015869141
 20
398.9700012207031
 30
0.0
 10
199.7920074462891
 20
406.5830078125
 30
0.0
 10
199.3719940185547
 20
420.906005859375
 30
0.0
 10
200.0570068359375
 20
429.1990051269531
 30
0.0
 10
200.2580108642578
 20
431.4580078125
 30
0.0
 10
201.5980072021484
 20
432.4930114746094
 30
0.0
 10
202.7929992675781
 20
432.4930114746094
 30
0.0
 10
214.9510040283203
 20
432.4930114746094
 30
0.0
 10
217.8730010986328
 20
431.7770080566406
 30
0.0
 10
217.8730010986328
 20
430.2880249023438
 30
0.0
 10
217.8730010986328
 20
428.8900146484375
 30
0.0
 10
216.2330017089844
 20
430.0180358886719
 30
0.0
 10
204.7200012207031
 20
430.2120361328125
 30
0.0
 10
204.3650054931641
 20
426.3770446777344
 30
0.0
 10
204.0769958496094
 20
422.821044921875
 30
0.0
 10
203.8580017089844
 20
419.5450439453125
 30
0.0
 10
212.1999969482422
 20
419.5450439453125
 30
0.0
 10
213.6390075683594
 20
419.7630310058594
 30
0.0
 10
214.4900054931641
 20
419.2030334472656
 30
0.0
 10
215.5230102539062
 20
418.5220336914062
 30
0.0
 10
215.0240020751953
 20
417.3410339355469
 30
0.0
 10
212.8550109863281
 20
417.3410339355469
 30
0.0
 10
212.8550109863281
 20
417.3410339355469
 30
0.0
 10
203.7070159912109
 20
417.3410339355469
 30
0.0
 10
203.7070159912109
 20
417.3410339355469
 30
0.0
 10
203.0970153808594
 20
407.4870300292969
 30
0.0
 10
203.1490173339844
 20
402.5640258789062
 30
0.0
 10
203.1490173339844
 20
398.7680358886719
 30
0.0
 10
212.791015625
 20
398.8770446777344
 30
0.0
 10
216.6310119628906
 20
399.5030212402344
 30
0.0
 10
216.6310119628906
 20
399.5030212402344
 30
0.0
 10
218.1230163574219
 20
399.5030212402344
 30
0.0
 10
218.1670074462891
 20
398.5130310058594
 30
0.0
 10
217.3660125732422
 20
397.8310241699219
 30
0.0
 10
216.3179931640625
 20
396.968994140625
 30
0.0
 10
211.1399993896484
 20
396.5379943847656
 30
0.0
 10
201.8300018310547
 20
396.5379943847656
 30
0.0
  0
SPLINE
  5
48
330
1F
100
AcDbEntity
  8
_U+0421_U+043B_U+043E_U+0439 1
370
     0
100
AcDbSpline
210
0.0
220
0.0
230
1.0
 70
    11
 71
     3
 72
    35
 73
    31
 74
     0
 42
0.0000000001
 43
0.0000000001
 12
1.0
 22
0.0
 32
0.0
 13
1.0
 23
0.0
 33
0.0
 40
0.0
 40
0.0
 40
0.0
 40
0.0
 40
1.0
 40
1.0
 40
1.0
 40
2.0
 40
2.0
 40
2.0
 40
3.0
 40
3.0
 40
3.0
 40
4.0
 40
4.0
 40
4.0
 40
5.0
 40
5.0
 40
5.0
 40
6.0
 40
6.0
 40
6.0
 40
7.0
 40
7.0
 40
7.0
 40
8.0
 40
8.0
 40
8.0
 40
9.0
 40
9.0
 40
9.0
 40
10.0
 40
10.0
 40
10.0
 40
10.0
 10
220.9880065917969
 20
429.1990051269531
 30
0.0
 10
221.2740020751953
 20
433.0530090332031
 30
0.0
 10
225.0220031738281
 20
433.4190063476562
 30
0.0
 10
225.5500030517578
 20
430.8710021972656
 30
0.0
 10
230.4900054931641
 20
434.0390014648438
 30
0.0
 10
242.2770080566406
 20
434.7539978027344
 30
0.0
 10
242.2770080566406
 20
425.4230041503906
 30
0.0
 10
242.2770080566406
 20
419.739990234375
 30
0.0
 10
237.2720031738281
 20
412.5719909667969
 30
0.0
 10
229.0990142822266
 20
409.864990234375
 30
0.0
 10
231.0260162353516
 20
405.0169982910156
 30
0.0
 10
234.718017578125
 20
397.0399780273438
 30
0.0
 10
238.6400146484375
 20
400.4519958496094
 30
0.0
 10
239.2900085449219
 20
401.0180053710938
 30
0.0
 10
239.8690185546875
 20
401.9259948730469
 30
0.0
 10
240.3760070800781
 20
403.1759948730469
 30
0.0
 10
240.8670043945312
 20
404.3389892578125
 30
0.0
 10
242.2760009765625
 20
403.7919921875
 30
0.0
 10
242.2760009765625
 20
402.9230041503906
 30
0.0
 10
242.2760009765625
 20
399.9869995117188
 30
0.0
 10
234.1119995117188
 20
390.0400085449219
 30
0.0
 10
226.1580047607422
 20
409.1310119628906
 30
0.0
 10
225.5330047607422
 20
409.0130004882812
 30
0.0
 10
224.8910064697266
 20
408.9200134277344
 30
0.0
 10
224.2320098876953
 20
408.8520202636719
 30
0.0
 10
223.8490142822266
 20
398.7880249023438
 30
0.0
 10
224.3740081787109
 20
398.0950317382812
 30
0.0
 10
223.6490173339844
 20
397.0950317382812
 30
0.0
 10
219.6260070800781
 20
391.5700073242188
 30
0.0
 10
220.5500030517578
 20
422.4719848632812
 30
0.0
 10
220.9880065917969
 20
429.1990051269531
 30
0.0
  0
SPLINE
  5
49
330
1F
100
AcDbEntity
  8
_U+0421_U+043B_U+043E_U+0439 1
370
     0
100
AcDbSpline
210
0.0
220
0.0
230
1.0
 70
    11
 71
     3
 72
    14
 73
    10
 74
     0
 42
0.0000000001
 43
0.0000000001
 12
1.0
 22
0.0
 32
0.0
 13
1.0
 23
0.0
 33
0.0
 40
0.0
 40
0.0
 40
0.0
 40
0.0
 40
1.0
 40
1.0
 40
1.0
 40
2.0
 40
2.0
 40
2.0
 40
3.0
 40
3.0
 40
3.0
 40
3.0
 10
224.3079986572266
 20
410.8789978027344
 30
0.0
 10
236.3029937744141
 20
412.3940124511719
 30
0.0
 10
241.1809997558594
 20
425.4199829101562
 30
0.0
 10
236.0159912109375
 20
429.6799926757812
 30
0.0
 10
233.5059967041016
 20
431.7559814453125
 30
0.0
 10
228.2269897460938
 20
430.6829833984375
 30
0.0
 10
225.447998046875
 20
428.2359924316406
 30
0.0
 10
224.9080047607422
 20
421.7149963378906
 30
0.0
 10
224.5269927978516
 20
415.9299926757812
 30
0.0
 10
224.3079986572266
 20
410.8789978027344
 30
0.0
  0
SPLINE
  5
4A
330
1F
100
AcDbEntity
  8
_U+0421_U+043B_U+043E_U+0439 1
370
     0
100
AcDbSpline
210
0.0
220
0.0
230
1.0
 70
    11
 71
     3
 72
    26
 73
    22
 74
     0
 42
0.0000000001
 43
0.0000000001
 12
1.0
 22
0.0
 32
0.0
 13
1.0
 23
0.0
 33
0.0
 40
0.0
 40
0.0
 40
0.0
 40
0.0
 40
1.0
 40
1.0
 40
1.0
 40
2.0
 40
2.0
 40
2.0
 40
3.0
 40
3.0
 40
3.0
 40
4.0
 40
4.0
 40
4.0
 40
5.0
 40
5.0
 40
5.0
 40
6.0
 40
6.0
 40
6.0
 40
7.0
 40
7.0
 40
7.0
 40
7.0
 10
175.5090026855469
 20
341.3060302734375
 30
0.0
 10
175.5090026855469
 20
346.0860595703125
 30
0.0
 10
175.5
 20
348.9330444335938
 30
0.0
 10
175.4840087890625
 20
349.8450317382812
 30
0.0
 10
169.9820098876953
 20
351.1670532226562
 30
0.0
 10
163.7350158691406
 20
351.0960083007812
 30
0.0
 10
158.5290069580078
 20
349.8450317382812
 30
0.0
 10
158.5630035400391
 20
343.6430053710938
 30
0.0
 10
159.6320037841797
 20
338.5700073242188
 30
0.0
 10
158.2000122070312
 20
338.5700073242188
 30
0.0
 10
157.9290161132812
 20
338.5700073242188
 30
0.0
 10
157.6550140380859
 20
338.8270263671875
 30
0.0
 10
157.3770141601562
 20
339.3419799804688
 30
0.0
 10
156.2250213623047
 20
341.4660034179688
 30
0.0
 10
152.2960205078125
 20
375.0059814453125
 30
0.0
 10
167.5010070800781
 20
375.0059814453125
 30
0.0
 10
177.7830047607422
 20
375.0059814453125
 30
0.0
 10
179.2350006103516
 20
364.2319946289062
 30
0.0
 10
179.2350006103516
 20
353.0379943847656
 30
0.0
 10
179.2350006103516
 20
335.9010009765625
 30
0.0
 10
175.5090026855469
 20
336.8099975585938
 30
0.0
 10
175.5090026855469
 20
341.3060302734375
 30
0.0
  0
SPLINE
  5
4B
330
1F
100
AcDbEntity
  8
_U+0421_U+043B_U+043E_U+0439 1
370
     0
100
AcDbSpline
210
0.0
220
0.0
230
1.0
 70
    11
 71
     3
 72
    14
 73
    10
 74
     0
 42
0.0000000001
 43
0.0000000001
 12
1.0
 22
0.0
 32
0.0
 13
1.0
 23
0.0
 33
0.0
 40
0.0
 40
0.0
 40
0.0
 40
0.0
 40
1.0
 40
1.0
 40
1.0
 40
2.0
 40
2.0
 40
2.0
 40
3.0
 40
3.0
 40
3.0
 40
3.0
 10
158.5540008544922
 20
352.0740051269531
 30
0.0
 10
164.1869964599609
 20
353.3820190429688
 30
0.0
 10
169.7910003662109
 20
353.3930053710938
 30
0.0
 10
175.4080047607422
 20
352.0989990234375
 30
0.0
 10
175.0480041503906
 20
357.8949890136719
 30
0.0
 10
174.5559997558594
 20
372.8259887695312
 30
0.0
 10
167.6020050048828
 20
372.8259887695312
 30
0.0
 10
159.9550018310547
 20
372.8259887695312
 30
0.0
 10
158.6759948730469
 20
359.7219848632812
 30
0.0
 10
158.5540008544922
 20
352.0740051269531
 30
0.0
  0
SPLINE
  5
4C
330
1F
100
AcDbEntity
  8
_U+0421_U+043B_U+043E_U+0439 1
370
     0
100
AcDbSpline
210
0.0
220
0.0
230
1.0
 70
    11
 71
     3
 72
    29
 73
    25
 74
     0
 42
0.0000000001
 43
0.0000000001
 12
1.0
 22
0.0
 32
0.0
 13
1.0
 23
0.0
 33
0.0
 40
0.0
 40
0.0
 40
0.0
 40
0.0
 40
1.0
 40
1.0
 40
1.0
 40
2.0
 40
2.0
 40
2.0
 40
3.0
 40
3.0
 40
3.0
 40
4.0
 40
4.0
 40
4.0
 40
5.0
 40
5.0
 40
5.0
 40
6.0
 40
6.0
 40
6.0
 40
7.0
 40
7.0
 40
7.0
 40
8.0
 40
8.0
 40
8.0
 40
8.0
 10
191.7129974365234
 20
341.0009765625
 30
0.0
 10
190.4140014648438
 20
356.5559692382812
 30
0.0
 10
191.2659912109375
 20
371.2179870605469
 30
0.0
 10
191.5619964599609
 20
372.2179870605469
 30
0.0
 10
189.2129974365234
 20
372.1499938964844
 30
0.0
 10
187.0249938964844
 20
371.9559936523438
 30
0.0
 10
184.9980010986328
 20
371.6349792480469
 30
0.0
 10
181.9369964599609
 20
371.1509704589844
 30
0.0
 10
182.4440002441406
 20
373.3899841308594
 30
0.0
 10
184.8470001220703
 20
373.7889709472656
 30
0.0
 10
192.6329956054688
 20
375.1649780273438
 30
0.0
 10
203.1219940185547
 20
374.386962890625
 30
0.0
 10
204.5760040283203
 20
373.2189636230469
 30
0.0
 10
205.5760040283203
 20
372.4119567871094
 30
0.0
 10
205.2279968261719
 20
371.2799682617188
 30
0.0
 10
202.9920043945312
 20
371.6349487304688
 30
0.0
 10
200.8460083007812
 20
371.9729614257812
 30
0.0
 10
198.5230102539062
 20
372.1759338378906
 30
0.0
 10
196.0220031738281
 20
372.2429504394531
 30
0.0
 10
194.4230041503906
 20
353.4319458007812
 30
0.0
 10
194.4759979248047
 20
345.6769409179688
 30
0.0
 10
194.4759979248047
 20
340.721923828125
 30
0.0
 10
194.4759979248047
 20
338.0819702148438
 30
0.0
 10
191.9969940185547
 20
337.52197265625
 30
0.0
 10
191.7129974365234
 20
341.0009765625
 30
0.0
  0
SPLINE
  5
4D
330
1F
100
AcDbEntity
  8
_U+0421_U+043B_U+043E_U+0439 1
370
     0
100
AcDbSpline
210
0.0
220
0.0
230
1.0
 70
    11
 71
     3
 72
    44
 73
    40
 74
     0
 42
0.0000000001
 43
0.0000000001
 12
1.0
 22
0.0
 32
0.0
 13
1.0
 23
0.0
 33
0.0
 40
0.0
 40
0.0
 40
0.0
 40
0.0
 40
1.0
 40
1.0
 40
1.0
 40
2.0
 40
2.0
 40
2.0
 40
3.0
 40
3.0
 40
3.0
 40
4.0
 40
4.0
 40
4.0
 40
5.0
 40
5.0
 40
5.0
 40
6.0
 40
6.0
 40
6.0
 40
7.0
 40
7.0
 40
7.0
 40
8.0
 40
8.0
 40
8.0
 40
9.0
 40
9.0
 40
9.0
 40
10.0
 40
10.0
 40
10.0
 40
11.0
 40
11.0
 40
11.0
 40
12.0
 40
12.0
 40
12.0
 40
13.0
 40
13.0
 40
13.0
 40
13.0
 10
142.10400390625
 20
300.5919799804688
 30
0.0
 10
141.3470001220703
 20
296.251953125
 30
0.0
 10
139.3440093994141
 20
285.5059814453125
 30
0.0
 10
137.5169982910156
 20
281.4869995117188
 30
0.0
 10
137.2460021972656
 20
280.89599609375
 30
0.0
 10
136.8320007324219
 20
280.5999755859375
 30
0.0
 10
136.2749938964844
 20
280.5999755859375
 30
0.0
 10
129.4809875488281
 20
280.5999755859375
 30
0.0
 10
126.973991394043
 20
305.4149780273438
 30
0.0
 10
126.973991394043
 20
312.2979736328125
 30
0.0
 10
126.973991394043
 20
318.60498046875
 30
0.0
 10
131.5099945068359
 20
317.7879638671875
 30
0.0
 10
131.5099945068359
 20
314.6289672851562
 30
0.0
 10
131.5099945068359
 20
304.2379760742188
 30
0.0
 10
131.375
 20
293.3349609375
 30
0.0
 10
136.3759918212891
 20
284.6539916992188
 30
0.0
 10
138.5049896240234
 20
291.5239868164062
 30
0.0
 10
141.2919921875
 20
308.7149658203125
 30
0.0
 10
141.2919921875
 20
315.31298828125
 30
0.0
 10
141.2919921875
 20
316.4609985351562
 30
0.0
 10
142.0189971923828
 20
317.0360107421875
 30
0.0
 10
143.4719848632812
 20
317.0360107421875
 30
0.0
 10
144.6809844970703
 20
317.0360107421875
 30
0.0
 10
145.6769866943359
 20
316.2630004882812
 30
0.0
 10
145.6769866943359
 20
314.6290283203125
 30
0.0
 10
145.6769866943359
 20
304.3130493164062
 30
0.0
 10
145.5159912109375
 20
293.4869995117188
 30
0.0
 10
150.4919891357422
 20
284.7050170898438
 30
0.0
 10
153.0809936523438
 20
294.2080078125
 30
0.0
 10
155.3269958496094
 20
309.7430419921875
 30
0.0
 10
155.5099945068359
 20
315.31298828125
 30
0.0
 10
155.5859985351562
 20
317.1270141601562
 30
0.0
 10
158.0439910888672
 20
316.9110107421875
 30
0.0
 10
158.0439910888672
 20
315.1099853515625
 30
0.0
 10
157.9499969482422
 20
308.6669921875
 30
0.0
 10
154.2039947509766
 20
286.7059936523438
 30
0.0
 10
151.5809936523438
 20
281.2579956054688
 30
0.0
 10
150.6889953613281
 20
279.4650268554688
 30
0.0
 10
144.7570037841797
 20
279.6099853515625
 30
0.0
 10
142.10400390625
 20
300.5919799804688
 30
0.0
  0
SPLINE
  5
4E
330
1F
100
AcDbEntity
  8
_U+0421_U+043B_U+043E_U+0439 1
370
     0
100
AcDbSpline
210
0.0
220
0.0
230
1.0
 70
    11
 71
     3
 72
    14
 73
    10
 74
     0
 42
0.0000000001
 43
0.0000000001
 12
1.0
 22
0.0
 32
0.0
 13
1.0
 23
0.0
 33
0.0
 40
0.0
 40
0.0
 40
0.0
 40
0.0
 40
1.0
 40
1.0
 40
1.0
 40
2.0
 40
2.0
 40
2.0
 40
3.0
 40
3.0
 40
3.0
 40
3.0
 10
172.3549957275391
 20
280.093994140625
 30
0.0
 10
160.1279907226562
 20
280.093994140625
 30
0.0
 10
157.0429992675781
 20
308.7319946289062
 30
0.0
 10
165.6900024414062
 20
315.1749877929688
 30
0.0
 10
168.5720062255859
 20
317.3219604492188
 30
0.0
 10
176.3300018310547
 20
319.14697265625
 30
0.0
 10
180.1620025634766
 20
312.1729736328125
 30
0.0
 10
185.8650054931641
 20
301.6530151367188
 30
0.0
 10
180.927001953125
 20
280.093994140625
 30
0.0
 10
172.3549957275391
 20
280.093994140625
 30
0.0
  0
SPLINE
  5
4F
330
1F
100
AcDbEntity
  8
_U+0421_U+043B_U+043E_U+0439 1
370
     0
100
AcDbSpline
210
0.0
220
0.0
230
1.0
 70
    11
 71
     3
 72
    11
 73
     7
 74
     0
 42
0.0000000001
 43
0.0000000001
 12
1.0
 22
0.0
 32
0.0
 13
1.0
 23
0.0
 33
0.0
 40
0.0
 40
0.0
 40
0.0
 40
0.0
 40
1.0
 40
1.0
 40
1.0
 40
2.0
 40
2.0
 40
2.0
 40
2.0
 10
172.3549957275391
 20
282.094970703125
 30
0.0
 10
180.9169921875
 20
282.094970703125
 30
0.0
 10
185.0240020751953
 20
315.0599975585938
 30
0.0
 10
172.3549957275391
 20
315.0599975585938
 30
0.0
 10
161.4250030517578
 20
315.0599975585938
 30
0.0
 10
164.1049957275391
 20
282.094970703125
 30
0.0
 10
172.3549957275391
 20
282.094970703125
 30
0.0
  0
SPLINE
  5
50
330
1F
100
AcDbEntity
  8
_U+0421_U+043B_U+043E_U+0439 1
370
     0
100
AcDbSpline
210
0.0
220
0.0
230
1.0
 70
    11
 71
     3
 72
    35
 73
    31
 74
     0
 42
0.0000000001
 43
0.0000000001
 12
1.0
 22
0.0
 32
0.0
 13
1.0
 23
0.0
 33
0.0
 40
0.0
 40
0.0
 40
0.0
 40
0.0
 40
1.0
 40
1.0
 40
1.0
 40
2.0
 40
2.0
 40
2.0
 40
3.0
 40
3.0
 40
3.0
 40
4.0
 40
4.0
 40
4.0
 40
5.0
 40
5.0
 40
5.0
 40
6.0
 40
6.0
 40
6.0
 40
7.0
 40
7.0
 40
7.0
 40
8.0
 40
8.0
 40
8.0
 40
9.0
 40
9.0
 40
9.0
 40
10.0
 40
10.0
 40
10.0
 40
10.0
 10
189.1889953613281
 20
281.1959838867188
 30
0.0
 10
188.1299896240234
 20
282.6599731445312
 30
0.0
 10
186.7549896240234
 20
313.3109741210938
 30
0.0
 10
189.3159942626953
 20
315.7569580078125
 30
0.0
 10
190.7569885253906
 20
317.1299438476562
 30
0.0
 10
192.5559997558594
 20
316.64794921875
 30
0.0
 10
192.9160003662109
 20
314.9339599609375
 30
0.0
 10
197.9380035400391
 20
318.157958984375
 30
0.0
 10
209.6430053710938
 20
318.741943359375
 30
0.0
 10
209.6430053710938
 20
309.4859619140625
 30
0.0
 10
209.6430053710938
 20
303.7269897460938
 30
0.0
 10
204.4990081787109
 20
296.5889892578125
 30
0.0
 10
196.4640045166016
 20
293.927978515625
 30
0.0
 10
201.6690063476562
 20
280.8359985351562
 30
0.0
 10
205.7340087890625
 20
282.2949829101562
 30
0.0
 10
207.7420043945312
 20
287.2389526367188
 30
0.0
 10
208.2990112304688
 20
288.5569458007812
 30
0.0
 10
210.0460052490234
 20
287.6969604492188
 30
0.0
 10
209.5410003662109
 20
286.554931640625
 30
0.0
 10
206.6900024414062
 20
279.8199462890625
 30
0.0
 10
199.6119995117188
 20
278.5879516601562
 30
0.0
 10
193.5229949951172
 20
293.1939086914062
 30
0.0
 10
192.8979949951172
 20
293.075927734375
 30
0.0
 10
192.2559967041016
 20
292.98291015625
 30
0.0
 10
191.5970001220703
 20
292.9149169921875
 30
0.0
 10
191.2140045166016
 20
282.8489379882812
 30
0.0
 10
191.7420043945312
 20
282.1578979492188
 30
0.0
 10
191.0140075683594
 20
281.1578979492188
 30
0.0
 10
190.5059967041016
 20
280.458984375
 30
0.0
 10
189.8000030517578
 20
280.3510131835938
 30
0.0
 10
189.1889953613281
 20
281.1959838867188
 30
0.0
  0
SPLINE
  5
51
330
1F
100
AcDbEntity
  8
_U+0421_U+043B_U+043E_U+0439 1
370
     0
100
AcDbSpline
210
0.0
220
0.0
230
1.0
 70
    11
 71
     3
 72
    14
 73
    10
 74
     0
 42
0.0000000001
 43
0.0000000001
 12
1.0
 22
0.0
 32
0.0
 13
1.0
 23
0.0
 33
0.0
 40
0.0
 40
0.0
 40
0.0
 40
0.0
 40
1.0
 40
1.0
 40
1.0
 40
2.0
 40
2.0
 40
2.0
 40
3.0
 40
3.0
 40
3.0
 40
3.0
 10
191.6730041503906
 20
294.9420166015625
 30
0.0
 10
199.4710083007812
 20
295.927001953125
 30
0.0
 10
205.4089965820312
 20
302.3740234375
 30
0.0
 10
205.4089965820312
 20
308.8779907226562
 30
0.0
 10
205.4089965820312
 20
316.6610107421875
 30
0.0
 10
196.6940002441406
 20
315.718994140625
 30
0.0
 10
192.8130035400391
 20
312.2979736328125
 30
0.0
 10
192.2729949951172
 20
305.7780151367188
 30
0.0
 10
191.8919982910156
 20
299.9920043945312
 30
0.0
 10
191.6730041503906
 20
294.9420166015625
 30
0.0
  0
SPLINE
  5
52
330
1F
100
AcDbEntity
  8
_U+0421_U+043B_U+043E_U+0439 1
370
     0
100
AcDbSpline
210
0.0
220
0.0
230
1.0
 70
    11
 71
     3
 72
    38
 73
    34
 74
     0
 42
0.0000000001
 43
0.0000000001
 12
1.0
 22
0.0
 32
0.0
 13
1.0
 23
0.0
 33
0.0
 40
0.0
 40
0.0
 40
0.0
 40
0.0
 40
1.0
 40
1.0
 40
1.0
 40
2.0
 40
2.0
 40
2.0
 40
3.0
 40
3.0
 40
3.0
 40
4.0
 40
4.0
 40
4.0
 40
5.0
 40
5.0
 40
5.0
 40
6.0
 40
6.0
 40
6.0
 40
7.0
 40
7.0
 40
7.0
 40
8.0
 40
8.0
 40
8.0
 40
9.0
 40
9.0
 40
9.0
 40
10.0
 40
10.0
 40
10.0
 40
11.0
 40
11.0
 40
11.0
 40
11.0
 10
215.4620056152344
 20
283.0579833984375
 30
0.0
 10
215.0060119628906
 20
289.02099609375
 30
0.0
 10
214.7779998779297
 20
296.3349609375
 30
0.0
 10
214.7779998779297
 20
305.0009765625
 30
0.0
 10
214.7779998779297
 20
311.06298828125
 30
0.0
 10
214.4810028076172
 20
317.0619506835938
 30
0.0
 10
217.8699951171875
 20
317.0619506835938
 30
0.0
 10
220.7209930419922
 20
317.0619506835938
 30
0.0
 10
219.5739898681641
 20
313.6219482421875
 30
0.0
 10
218.8580017089844
 20
302.2899780273438
 30
0.0
 10
219.5650024414062
 20
303.2899780273438
 30
0.0
 10
228.7050018310547
 20
316.5549926757812
 30
0.0
 10
232.3659973144531
 20
316.5549926757812
 30
0.0
 10
233.8040008544922
 20
316.5549926757812
 30
0.0
 10
233.6100006103516
 20
315.2069702148438
 30
0.0
 10
232.2639923095703
 20
314.2999877929688
 30
0.0
 10
229.2049865722656
 20
312.2559814453125
 30
0.0
 10
225.3359985351562
 20
307.864013671875
 30
0.0
 10
220.6569976806641
 20
301.1239624023438
 30
0.0
 10
223.6139984130859
 20
284.594970703125
 30
0.0
 10
229.0820007324219
 20
279.35498046875
 30
0.0
 10
232.4169921875
 20
287.2129516601562
 30
0.0
 10
232.9869995117188
 20
288.6149291992188
 30
0.0
 10
234.6539916992188
 20
287.6439819335938
 30
0.0
 10
234.1649932861328
 20
286.553955078125
 30
0.0
 10
230.9199981689453
 20
278.7169799804688
 30
0.0
 10
222.7919921875
 20
279.2439575195312
 30
0.0
 10
218.5029907226562
 20
295.97998046875
 30
0.0
 10
218.3679962158203
 20
292.85498046875
 30
0.0
 10
218.2749938964844
 20
288.4549560546875
 30
0.0
 10
218.2249908447266
 20
282.7789916992188
 30
0.0
 10
218.2250061035156
 20
280.0960083007812
 30
0.0
 10
215.7420043945312
 20
279.5499877929688
 30
0.0
 10
215.4620056152344
 20
283.0579833984375
 30
0.0
  0
SPLINE
  5
53
330
1F
100
AcDbEntity
  8
_U+0421_U+043B_U+043E_U+0439 1
370
     0
100
AcDbSpline
210
0.0
220
0.0
230
1.0
 70
    11
 71
     3
 72
    20
 73
    16
 74
     0
 42
0.0000000001
 43
0.0000000001
 12
1.0
 22
0.0
 32
0.0
 13
1.0
 23
0.0
 33
0.0
 40
0.0
 40
0.0
 40
0.0
 40
0.0
 40
1.0
 40
1.0
 40
1.0
 40
2.0
 40
2.0
 40
2.0
 40
3.0
 40
3.0
 40
3.0
 40
4.0
 40
4.0
 40
4.0
 40
5.0
 40
5.0
 40
5.0
 40
5.0
 10
84.9540023803711
 20
536.0889892578125
 30
0.0
 10
84.08700561523438
 20
538.052978515625
 30
0.0
 10
83.11900329589844
 20
561.2509765625
 30
0.0
 10
83.83399963378906
 20
567.43798828125
 30
0.0
 10
84.48899841308594
 20
573.1409912109375
 30
0.0
 10
88.50799560546875
 20
575.4599914550781
 30
0.0
 10
92.40299987792969
 20
573.2959899902344
 30
0.0
 10
122.1880035400391
 20
579.4059753417969
 30
0.0
 10
125.8460006713867
 20
537.0879821777344
 30
0.0
 10
92.49400329589844
 20
533.031982421875
 30
0.0
 10
90.99700164794922
 20
532.8939819335938
 30
0.0
 10
91.57500457763672
 20
532.6379699707031
 30
0.0
 10
90.04199981689453
 20
532.6379699707031
 30
0.0
 10
87.48999786376953
 20
532.6380004882812
 30
0.0
 10
85.73100280761719
 20
533.9840087890625
 30
0.0
 10
84.9540023803711
 20
536.0889892578125
 30
0.0
  0
SPLINE
  5
54
330
1F
100
AcDbEntity
  8
_U+0421_U+043B_U+043E_U+0439 1
370
     0
100
AcDbSpline
210
0.0
220
0.0
230
1.0
 70
    11
 71
     3
 72
    11
 73
     7
 74
     0
 42
0.0000000001
 43
0.0000000001
 12
1.0
 22
0.0
 32
0.0
 13
1.0
 23
0.0
 33
0.0
 40
0.0
 40
0.0
 40
0.0
 40
0.0
 40
1.0
 40
1.0
 40
1.0
 40
2.0
 40
2.0
 40
2.0
 40
2.0
 10
95.64299774169922
 20
565.6969909667969
 30
0.0
 10
95.64299774169922
 20
553.3779907226562
 30
0.0
 10
95.70399475097656
 20
554.1589965820312
 30
0.0
 10
94.91600036621094
 20
541.2959899902344
 30
0.0
 10
107.8529968261719
 20
550.4460144042969
 30
0.0
 10
112.0120010375977
 20
565.6969909667969
 30
0.0
 10
95.64299774169922
 20
565.6969909667969
 30
0.0
  0
SPLINE
  5
55
330
1F
100
AcDbEntity
  8
_U+0421_U+043B_U+043E_U+0439 1
370
     0
100
AcDbSpline
210
0.0
220
0.0
230
1.0
 70
    11
 71
     3
 72
    17
 73
    13
 74
     0
 42
0.0000000001
 43
0.0000000001
 12
1.0
 22
0.0
 32
0.0
 13
1.0
 23
0.0
 33
0.0
 40
0.0
 40
0.0
 40
0.0
 40
0.0
 40
1.0
 40
1.0
 40
1.0
 40
2.0
 40
2.0
 40
2.0
 40
3.0
 40
3.0
 40
3.0
 40
4.0
 40
4.0
 40
4.0
 40
4.0
 10
123.4469985961914
 20
567.3770141601562
 30
0.0
 10
127.3190002441406
 20
573.5550231933594
 30
0.0
 10
132.1959991455078
 20
574.7550048828125
 30
0.0
 10
135.1499938964844
 20
573.6280212402344
 30
0.0
 10
136.1499938964844
 20
573.1700134277344
 30
0.0
 10
136.6959991455078
 20
573.4770202636719
 30
0.0
 10
138.4209899902344
 20
573.4770202636719
 30
0.0
 10
153.7899932861328
 20
573.4770202636719
 30
0.0
 10
158.6939849853516
 20
544.3680114746094
 30
0.0
 10
142.5689849853516
 20
534.5450134277344
 30
0.0
 10
126.3310012817383
 20
525.6010131835938
 30
0.0
 10
113.2639999389648
 20
551.1229858398438
 30
0.0
 10
123.4469985961914
 20
567.3770141601562
 30
0.0
  0
SPLINE
  5
56
330
1F
100
AcDbEntity
  8
_U+0421_U+043B_U+043E_U+0439 1
370
     0
100
AcDbSpline
210
0.0
220
0.0
230
1.0
 70
    11
 71
     3
 72
    26
 73
    22
 74
     0
 42
0.0000000001
 43
0.0000000001
 12
1.0
 22
0.0
 32
0.0
 13
1.0
 23
0.0
 33
0.0
 40
0.0
 40
0.0
 40
0.0
 40
0.0
 40
1.0
 40
1.0
 40
1.0
 40
2.0
 40
2.0
 40
2.0
 40
3.0
 40
3.0
 40
3.0
 40
4.0
 40
4.0
 40
4.0
 40
5.0
 40
5.0
 40
5.0
 40
6.0
 40
6.0
 40
6.0
 40
7.0
 40
7.0
 40
7.0
 40
7.0
 10
146.4450073242188
 20
550.43798828125
 30
0.0
 10
146.6400146484375
 20
551.3369750976562
 30
0.0
 10
146.7360076904297
 20
556.3450012207031
 30
0.0
 10
146.2630004882812
 20
558.4299926757812
 30
0.0
 10
145.4010009765625
 20
562.3289794921875
 30
0.0
 10
144.6269989013672
 20
563.2489929199219
 30
0.0
 10
143.0830078125
 20
564.7729797363281
 30
0.0
 10
142.2960052490234
 20
565.5489807128906
 30
0.0
 10
141.6300048828125
 20
566.1089782714844
 30
0.0
 10
141.0850067138672
 20
566.4529724121094
 30
0.0
 10
139.9780120849609
 20
567.1099853515625
 30
0.0
 10
138.6410064697266
 20
567.3909606933594
 30
0.0
 10
138.3590087890625
 20
567.3459777832031
 30
0.0
 10
138.1820068359375
 20
567.3149719238281
 30
0.0
 10
138.0260162353516
 20
566.8639831542969
 30
0.0
 10
137.9650115966797
 20
566.6949768066406
 30
0.0
 10
136.7250061035156
 20
563.6609802246094
 30
0.0
 10
131.8790130615234
 20
559.6499633789062
 30
0.0
 10
131.8790130615234
 20
551.4669799804688
 30
0.0
 10
131.8800048828125
 20
539.1419982910156
 30
0.0
 10
142.6869964599609
 20
534.8940124511719
 30
0.0
 10
146.4450073242188
 20
550.43798828125
 30
0.0
  0
SPLINE
  5
57
330
1F
100
AcDbEntity
  8
_U+0421_U+043B_U+043E_U+0439 1
370
     0
100
AcDbSpline
210
0.0
220
0.0
230
1.0
 70
    11
 71
     3
 72
    50
 73
    46
 74
     0
 42
0.0000000001
 43
0.0000000001
 12
1.0
 22
0.0
 32
0.0
 13
1.0
 23
0.0
 33
0.0
 40
0.0
 40
0.0
 40
0.0
 40
0.0
 40
1.0
 40
1.0
 40
1.0
 40
2.0
 40
2.0
 40
2.0
 40
3.0
 40
3.0
 40
3.0
 40
4.0
 40
4.0
 40
4.0
 40
5.0
 40
5.0
 40
5.0
 40
6.0
 40
6.0
 40
6.0
 40
7.0
 40
7.0
 40
7.0
 40
8.0
 40
8.0
 40
8.0
 40
9.0
 40
9.0
 40
9.0
 40
10.0
 40
10.0
 40
10.0
 40
11.0
 40
11.0
 40
11.0
 40
12.0
 40
12.0
 40
12.0
 40
13.0
 40
13.0
 40
13.0
 40
14.0
 40
14.0
 40
14.0
 40
15.0
 40
15.0
 40
15.0
 40
15.0
 10
174.4170074462891
 20
532.697998046875
 30
0.0
 10
173.3250122070312
 20
533.7860107421875
 30
0.0
 10
173.4840087890625
 20
532.3160095214844
 30
0.0
 10
171.6320037841797
 20
557.5220031738281
 30
0.0
 10
170.5610046386719
 20
571.5
 30
0.0
 10
172.5980072021484
 20
570.1860046386719
 30
0.0
 10
175.3560028076172
 20
572.0540161132812
 30
0.0
 10
175.9990081787109
 20
572.3750305175781
 30
0.0
 10
177.0079956054688
 20
572.6290283203125
 30
0.0
 10
177.7490081787109
 20
572.6290283203125
 30
0.0
 10
184.2720031738281
 20
572.6290283203125
 30
0.0
 10
193.8520050048828
 20
555.5130310058594
 30
0.0
 10
197.3700103759766
 20
551.4980163574219
 30
0.0
 10
197.8860168457031
 20
550.9100036621094
 30
0.0
 10
197.6470031738281
 20
551.1320190429688
 30
0.0
 10
197.4460144042969
 20
555.8420104980469
 30
0.0
 10
196.9120178222656
 20
568.1540222167969
 30
0.0
 10
196.3260192871094
 20
575.2330017089844
 30
0.0
 10
202.1240081787109
 20
575.2330017089844
 30
0.0
 10
203.9870147705078
 20
575.2330017089844
 30
0.0
 10
205.8480072021484
 20
573.875
 30
0.0
 10
206.4240112304688
 20
571.0249938964844
 30
0.0
 10
206.9810180664062
 20
567.1229858398438
 30
0.0
 10
205.31201171875
 20
536.64599609375
 30
0.0
 10
205.1220092773438
 20
536.3309936523438
 30
0.0
 10
204.2510070800781
 20
534.5270080566406
 30
0.0
 10
202.4310150146484
 20
534.0910034179688
 30
0.0
 10
200.4290161132812
 20
534.0910034179688
 30
0.0
 10
196.8520202636719
 20
534.0910034179688
 30
0.0
 10
197.3200225830078
 20
534.8590087890625
 30
0.0
 10
182.4730224609375
 20
553.1780090332031
 30
0.0
 10
182.4000244140625
 20
553.2680053710938
 30
0.0
 10
181.4840240478516
 20
554.4949951171875
 30
0.0
 10
181.3830261230469
 20
554.4949951171875
 30
0.0
 10
181.3370208740234
 20
554.447998046875
 30
0.0
 10
181.0800323486328
 20
534.6069946289062
 30
0.0
 10
180.8990325927734
 20
534.2420043945312
 30
0.0
 10
180.2350311279297
 20
532.2510070800781
 30
0.0
 10
178.4770355224609
 20
531.5169982910156
 30
0.0
 10
177.4770355224609
 20
531.5169982910156
 30
0.0
 10
177.2350311279297
 20
531.5169982910156
 30
0.0
 10
177.0730285644531
 20
531.5169982910156
 30
0.0
 10
176.9930419921875
 20
531.5169982910156
 30
0.0
 10
175.9640045166016
 20
531.5180053710938
 30
0.0
 10
175.0399932861328
 20
532.0199890136719
 30
0.0
 10
174.4170074462891
 20
532.697998046875
 30
0.0
  0
SPLINE
  5
58
330
1F
100
AcDbEntity
  8
_U+0421_U+043B_U+043E_U+0439 1
370
     0
100
AcDbSpline
210
0.0
220
0.0
230
1.0
 70
    11
 71
     3
 72
    17
 73
    13
 74
     0
 42
0.0000000001
 43
0.0000000001
 12
1.0
 22
0.0
 32
0.0
 13
1.0
 23
0.0
 33
0.0
 40
0.0
 40
0.0
 40
0.0
 40
0.0
 40
1.0
 40
1.0
 40
1.0
 40
2.0
 40
2.0
 40
2.0
 40
3.0
 40
3.0
 40
3.0
 40
4.0
 40
4.0
 40
4.0
 40
4.0
 10
221.6909942626953
 20
534.0299987792969
 30
0.0
 10
207.8619995117188
 20
541.0270080566406
 30
0.0
 10
207.8789978027344
 20
566.35400390625
 30
0.0
 10
220.4799957275391
 20
573.0530090332031
 30
0.0
 10
224.1929931640625
 20
574.8800048828125
 30
0.0
 10
225.9589996337891
 20
573.6190185546875
 30
0.0
 10
226.9589996337891
 20
573.4309997558594
 30
0.0
 10
228.7790069580078
 20
573.0910034179688
 30
0.0
 10
237.3849945068359
 20
575.9169921875
 30
0.0
 10
242.5229949951172
 20
562.1229858398438
 30
0.0
 10
248.3789978027344
 20
544.4209899902344
 30
0.0
 10
233.9290008544922
 20
527.7080078125
 30
0.0
 10
221.6909942626953
 20
534.0299987792969
 30
0.0
  0
SPLINE
  5
59
330
1F
100
AcDbEntity
  8
_U+0421_U+043B_U+043E_U+0439 1
370
     0
100
AcDbSpline
210
0.0
220
0.0
230
1.0
 70
    11
 71
     3
 72
    17
 73
    13
 74
     0
 42
0.0000000001
 43
0.0000000001
 12
1.0
 22
0.0
 32
0.0
 13
1.0
 23
0.0
 33
0.0
 40
0.0
 40
0.0
 40
0.0
 40
0.0
 40
1.0
 40
1.0
 40
1.0
 40
2.0
 40
2.0
 40
2.0
 40
3.0
 40
3.0
 40
3.0
 40
4.0
 40
4.0
 40
4.0
 40
4.0
 10
236.0130004882812
 20
562.7900085449219
 30
0.0
 10
233.6820068359375
 20
566.4949951171875
 30
0.0
 10
229.7469940185547
 20
567.7360229492188
 30
0.0
 10
229.4120025634766
 20
567.1800231933594
 30
0.0
 10
228.8099975585938
 20
566.1800231933594
 30
0.0
 10
229.4010009765625
 20
566.4650268554688
 30
0.0
 10
227.1410064697266
 20
563.3050231933594
 30
0.0
 10
220.7070007324219
 20
554.5730285644531
 30
0.0
 10
222.6210021972656
 20
542.8310241699219
 30
0.0
 10
228.625
 20
540.5390319824219
 30
0.0
 10
234.9299926757812
 20
538.2070007324219
 30
0.0
 10
241.2929992675781
 20
553.5580139160156
 30
0.0
 10
236.0130004882812
 20
562.7900085449219
 30
0.0
  0
SPLINE
  5
5A
330
1F
100
AcDbEntity
  8
_U+0421_U+043B_U+043E_U+0439 1
370
     0
100
AcDbSpline
210
0.0
220
0.0
230
1.0
 70
    11
 71
     3
 72
    44
 73
    40
 74
     0
 42
0.0000000001
 43
0.0000000001
 12
1.0
 22
0.0
 32
0.0
 13
1.0
 23
0.0
 33
0.0
 40
0.0
 40
0.0
 40
0.0
 40
0.0
 40
1.0
 40
1.0
 40
1.0
 40
2.0
 40
2.0
 40
2.0
 40
3.0
 40
3.0
 40
3.0
 40
4.0
 40
4.0
 40
4.0
 40
5.0
 40
5.0
 40
5.0
 40
6.0
 40
6.0
 40
6.0
 40
7.0
 40
7.0
 40
7.0
 40
8.0
 40
8.0
 40
8.0
 40
9.0
 40
9.0
 40
9.0
 40
10.0
 40
10.0
 40
10.0
 40
11.0
 40
11.0
 40
11.0
 40
12.0
 40
12.0
 40
12.0
 40
13.0
 40
13.0
 40
13.0
 40
13.0
 10
256.3840026855469
 20
536.239990234375
 30
0.0
 10
255.8789978027344
 20
537.8099975585938
 30
0.0
 10
254.4380035400391
 20
563.9199829101562
 30
0.0
 10
255.0670013427734
 20
567.6340026855469
 30
0.0
 10
255.0670013427734
 20
567.6340026855469
 30
0.0
 10
255.0970001220703
 20
567.6950073242188
 30
0.0
 10
255.0970001220703
 20
567.6950073242188
 30
0.0
 10
255.0970001220703
 20
567.6950073242188
 30
0.0
 10
255.0670013427734
 20
567.7250061035156
 30
0.0
 10
255.0670013427734
 20
567.7250061035156
 30
0.0
 10
255.0670013427734
 20
567.9440002441406
 30
0.0
 10
251.5919952392578
 20
568.02099609375
 30
0.0
 10
251.3730010986328
 20
568.0280151367188
 30
0.0
 10
248.0019989013672
 20
568.1220092773438
 30
0.0
 10
246.6800079345703
 20
568.0880126953125
 30
0.0
 10
245.8320007324219
 20
569.0880126953125
 30
0.0
 10
244.4900054931641
 20
570.7090148925781
 30
0.0
 10
245.0590057373047
 20
572.6520080566406
 30
0.0
 10
247.1029968261719
 20
573.2660217285156
 30
0.0
 10
248.5169982910156
 20
573.6010131835938
 30
0.0
 10
270.81298828125
 20
574.2300109863281
 30
0.0
 10
274.1130065917969
 20
573.5990295410156
 30
0.0
 10
275.5469970703125
 20
573.2760314941406
 30
0.0
 10
276.3940124511719
 20
572.51904296875
 30
0.0
 10
276.6570129394531
 20
571.3280334472656
 30
0.0
 10
277.1330261230469
 20
568.9240417480469
 30
0.0
 10
274.7460021972656
 20
567.7020263671875
 30
0.0
 10
273.1900024414062
 20
567.5440368652344
 30
0.0
 10
271.6210021972656
 20
567.3850402832031
 30
0.0
 10
266.9980163574219
 20
567.6350402832031
 30
0.0
 10
266.9980163574219
 20
567.6350402832031
 30
0.0
 10
266.9980163574219
 20
567.6140441894531
 30
0.0
 10
267.0030212402344
 20
567.4580383300781
 30
0.0
 10
267.0130310058594
 20
567.1660461425781
 30
0.0
 10
267.4430236816406
 20
554.2620544433594
 30
0.0
 10
266.1490173339844
 20
537.6650390625
 30
0.0
 10
265.9380187988281
 20
536.6650390625
 30
0.0
 10
264.9700012207031
 20
532.0280151367188
 30
0.0
 10
257.927001953125
 20
531.3670043945312
 30
0.0
 10
256.3840026855469
 20
536.239990234375
 30
0.0
  0
SPLINE
  5
5B
330
1F
100
AcDbEntity
  8
_U+0421_U+043B_U+043E_U+0439 1
370
     0
100
AcDbSpline
210
0.0
220
0.0
230
1.0
 70
    11
 71
     3
 72
    20
 73
    16
 74
     0
 42
0.0000000001
 43
0.0000000001
 12
1.0
 22
0.0
 32
0.0
 13
1.0
 23
0.0
 33
0.0
 40
0.0
 40
0.0
 40
0.0
 40
0.0
 40
1.0
 40
1.0
 40
1.0
 40
2.0
 40
2.0
 40
2.0
 40
3.0
 40
3.0
 40
3.0
 40
4.0
 40
4.0
 40
4.0
 40
5.0
 40
5.0
 40
5.0
 40
5.0
 10
72.11900329589844
 20
471.3940124511719
 30
0.0
 10
71.23200225830078
 20
473.4049987792969
 30
0.0
 10
70.30000305175781
 20
496.6960144042969
 30
0.0
 10
70.9990005493164
 20
502.7430114746094
 30
0.0
 10
71.65399932861328
 20
508.4450073242188
 30
0.0
 10
75.67300415039062
 20
510.7650146484375
 30
0.0
 10
79.56800079345703
 20
508.6010131835938
 30
0.0
 10
103.4570007324219
 20
513.5010070800781
 30
0.0
 10
112.0250015258789
 20
486.0920104980469
 30
0.0
 10
92.89099884033203
 20
473.0590209960938
 30
0.0
 10
86.97999572753906
 20
469.2050170898438
 30
0.0
 10
78.56199645996094
 20
467.9430236816406
 30
0.0
 10
77.20600128173828
 20
467.9430236816406
 30
0.0
 10
74.65499877929688
 20
467.9429931640625
 30
0.0
 10
72.89600372314453
 20
469.2890014648438
 30
0.0
 10
72.11900329589844
 20
471.3940124511719
 30
0.0
  0
SPLINE
  5
5C
330
1F
100
AcDbEntity
  8
_U+0421_U+043B_U+043E_U+0439 1
370
     0
100
AcDbSpline
210
0.0
220
0.0
230
1.0
 70
    11
 71
     3
 72
    14
 73
    10
 74
     0
 42
0.0000000001
 43
0.0000000001
 12
1.0
 22
0.0
 32
0.0
 13
1.0
 23
0.0
 33
0.0
 40
0.0
 40
0.0
 40
0.0
 40
0.0
 40
1.0
 40
1.0
 40
1.0
 40
2.0
 40
2.0
 40
2.0
 40
3.0
 40
3.0
 40
3.0
 40
3.0
 10
90.0
 20
484.39599609375
 30
0.0
 10
96.20999908447266
 20
493.6430053710938
 30
0.0
 10
94.35299682617188
 20
501.0010070800781
 30
0.0
 10
82.80899810791016
 20
501.0010070800781
 30
0.0
 10
82.80899810791016
 20
487.7749938964844
 30
0.0
 10
82.78299713134766
 20
488.0440063476562
 30
0.0
 10
82.08200073242188
 20
476.6000061035156
 30
0.0
 10
84.33699798583984
 20
478.1960144042969
 30
0.0
 10
86.89700317382812
 20
479.7780151367188
 30
0.0
 10
90.0
 20
484.39599609375
 30
0.0
  0
SPLINE
  5
5D
330
1F
100
AcDbEntity
  8
_U+0421_U+043B_U+043E_U+0439 1
370
     0
100
AcDbSpline
210
0.0
220
0.0
230
1.0
 70
    11
 71
     3
 72
    23
 73
    19
 74
     0
 42
0.0000000001
 43
0.0000000001
 12
1.0
 22
0.0
 32
0.0
 13
1.0
 23
0.0
 33
0.0
 40
0.0
 40
0.0
 40
0.0
 40
0.0
 40
1.0
 40
1.0
 40
1.0
 40
2.0
 40
2.0
 40
2.0
 40
3.0
 40
3.0
 40
3.0
 40
4.0
 40
4.0
 40
4.0
 40
5.0
 40
5.0
 40
5.0
 40
6.0
 40
6.0
 40
6.0
 40
6.0
 10
108.7959976196289
 20
476.6310119628906
 30
0.0
 10
108.5270004272461
 20
476.7660217285156
 30
0.0
 10
107.2739944458008
 20
502.0260009765625
 30
0.0
 10
108.0690002441406
 20
504.60400390625
 30
0.0
 10
110.0100021362305
 20
511.2890014648438
 30
0.0
 10
117.5749969482422
 20
510.4830017089844
 30
0.0
 10
119.0910034179688
 20
504.7860107421875
 30
0.0
 10
119.3730010986328
 20
503.7570190429688
 30
0.0
 10
119.515007019043
 20
501.9100036621094
 30
0.0
 10
119.515007019043
 20
499.2450256347656
 30
0.0
 10
119.515007019043
 20
496.5590209960938
 30
0.0
 10
118.4070053100586
 20
472.1540222167969
 30
0.0
 10
118.1370086669922
 20
471.2420349121094
 30
0.0
 10
117.6420059204102
 20
469.5810241699219
 30
0.0
 10
115.8610076904297
 20
468.0630493164062
 30
0.0
 10
113.640007019043
 20
468.0630493164062
 30
0.0
 10
108.2900009155273
 20
468.0639953613281
 30
0.0
 10
108.7959976196289
 20
473.6090087890625
 30
0.0
 10
108.7959976196289
 20
476.6310119628906
 30
0.0
  0
SPLINE
  5
5E
330
1F
100
AcDbEntity
  8
_U+0421_U+043B_U+043E_U+0439 1
370
     0
100
AcDbSpline
210
0.0
220
0.0
230
1.0
 70
    11
 71
     3
 72
    41
 73
    37
 74
     0
 42
0.0000000001
 43
0.0000000001
 12
1.0
 22
0.0
 32
0.0
 13
1.0
 23
0.0
 33
0.0
 40
0.0
 40
0.0
 40
0.0
 40
0.0
 40
1.0
 40
1.0
 40
1.0
 40
2.0
 40
2.0
 40
2.0
 40
3.0
 40
3.0
 40
3.0
 40
4.0
 40
4.0
 40
4.0
 40
5.0
 40
5.0
 40
5.0
 40
6.0
 40
6.0
 40
6.0
 40
7.0
 40
7.0
 40
7.0
 40
8.0
 40
8.0
 40
8.0
 40
9.0
 40
9.0
 40
9.0
 40
10.0
 40
10.0
 40
10.0
 40
11.0
 40
11.0
 40
11.0
 40
12.0
 40
12.0
 40
12.0
 40
12.0
 10
129.6419982910156
 20
471.6669921875
 30
0.0
 10
127.0810012817383
 20
473.927978515625
 30
0.0
 10
128.9429931640625
 20
475.6309814453125
 30
0.0
 10
130.0359954833984
 20
475.9960021972656
 30
0.0
 10
133.5739898681641
 20
476.8280029296875
 30
0.0
 10
134.9519958496094
 20
472.4429931640625
 30
0.0
 10
139.9980010986328
 20
474.0280151367188
 30
0.0
 10
145.7200012207031
 20
475.697021484375
 30
0.0
 10
150.7369995117188
 20
482.625
 30
0.0
 10
138.4539947509766
 20
483.2010192871094
 30
0.0
 10
120.3219909667969
 20
483.6580200195312
 30
0.0
 10
117.650993347168
 20
499.8800048828125
 30
0.0
 10
130.9749908447266
 20
506.7540283203125
 30
0.0
 10
142.4419860839844
 20
512.666015625
 30
0.0
 10
154.0179901123047
 20
507.5560302734375
 30
0.0
 10
154.0179901123047
 20
497.1270141601562
 30
0.0
 10
153.9709930419922
 20
492.468017578125
 30
0.0
 10
148.9299926757812
 20
492.8489990234375
 30
0.0
 10
148.0979919433594
 20
495.1590270996094
 30
0.0
 10
147.7379913330078
 20
496.1590270996094
 30
0.0
 10
148.1539916992188
 20
499.5010375976562
 30
0.0
 10
145.8269958496094
 20
500.5940246582031
 30
0.0
 10
143.7890014648438
 20
501.5480346679688
 30
0.0
 10
142.2989959716797
 20
501.8240356445312
 30
0.0
 10
140.0279998779297
 20
500.4270324707031
 30
0.0
 10
138.7149963378906
 20
499.51904296875
 30
0.0
 10
137.8119964599609
 20
498.5700378417969
 30
0.0
 10
137.3179931640625
 20
497.5810241699219
 30
0.0
 10
133.8889923095703
 20
490.7320251464844
 30
0.0
 10
143.0089874267578
 20
493.3230285644531
 30
0.0
 10
150.5349884033203
 20
489.4980163574219
 30
0.0
 10
153.0179901123047
 20
488.2470092773438
 30
0.0
 10
154.5879821777344
 20
486.8940124511719
 30
0.0
 10
155.2439880371094
 20
485.4410095214844
 30
0.0
 10
160.5839996337891
 20
473.5969848632812
 30
0.0
 10
140.4290008544922
 20
461.968994140625
 30
0.0
 10
129.6419982910156
 20
471.6669921875
 30
0.0
  0
SPLINE
  5
5F
330
1F
100
AcDbEntity
  8
_U+0421_U+043B_U+043E_U+0439 1
370
     0
100
AcDbSpline
210
0.0
220
0.0
230
1.0
 70
    11
 71
     3
 72
    41
 73
    37
 74
     0
 42
0.0000000001
 43
0.0000000001
 12
1.0
 22
0.0
 32
0.0
 13
1.0
 23
0.0
 33
0.0
 40
0.0
 40
0.0
 40
0.0
 40
0.0
 40
1.0
 40
1.0
 40
1.0
 40
2.0
 40
2.0
 40
2.0
 40
3.0
 40
3.0
 40
3.0
 40
4.0
 40
4.0
 40
4.0
 40
5.0
 40
5.0
 40
5.0
 40
6.0
 40
6.0
 40
6.0
 40
7.0
 40
7.0
 40
7.0
 40
8.0
 40
8.0
 40
8.0
 40
9.0
 40
9.0
 40
9.0
 40
10.0
 40
10.0
 40
10.0
 40
11.0
 40
11.0
 40
11.0
 40
12.0
 40
12.0
 40
12.0
 40
12.0
 10
165.9440002441406
 20
472.4989929199219
 30
0.0
 10
165.3480072021484
 20
477.3559875488281
 30
0.0
 10
164.1900024414062
 20
499.2859802246094
 30
0.0
 10
164.8079986572266
 20
502.9389953613281
 30
0.0
 10
164.8079986572266
 20
502.9389953613281
 30
0.0
 10
164.8379974365234
 20
503.0
 30
0.0
 10
164.8379974365234
 20
503.0
 30
0.0
 10
164.8379974365234
 20
503.0
 30
0.0
 10
164.8079986572266
 20
503.0299987792969
 30
0.0
 10
164.8079986572266
 20
503.0299987792969
 30
0.0
 10
164.8079986572266
 20
503.2109985351562
 30
0.0
 10
162.8699951171875
 20
503.2630004882812
 30
0.0
 10
162.6889953613281
 20
503.2720031738281
 30
0.0
 10
160.81298828125
 20
503.3580017089844
 30
0.0
 10
157.3759918212891
 20
503.3330078125
 30
0.0
 10
156.3759918212891
 20
503.7870178222656
 30
0.0
 10
154.6229858398438
 20
504.5730285644531
 30
0.0
 10
153.9189910888672
 20
507.6920166015625
 30
0.0
 10
156.8449859619141
 20
508.5700073242188
 30
0.0
 10
158.2589874267578
 20
508.9049987792969
 30
0.0
 10
180.5549926757812
 20
509.5339965820312
 30
0.0
 10
183.85498046875
 20
508.9030151367188
 30
0.0
 10
187.6329803466797
 20
508.051025390625
 30
0.0
 10
187.802978515625
 20
502.7570190429688
 30
0.0
 10
181.3119812011719
 20
502.7570190429688
 30
0.0
 10
181.2339782714844
 20
502.7570190429688
 30
0.0
 10
176.7919769287109
 20
502.9910278320312
 30
0.0
 10
176.7399749755859
 20
502.9390258789062
 30
0.0
 10
176.7399749755859
 20
502.9180297851562
 30
0.0
 10
176.7449798583984
 20
502.7620239257812
 30
0.0
 10
176.7549743652344
 20
502.4700317382812
 30
0.0
 10
177.1879730224609
 20
489.4920349121094
 30
0.0
 10
176.0829772949219
 20
472.4370422363281
 30
0.0
 10
175.3469696044922
 20
470.9700317382812
 30
0.0
 10
173.3289947509766
 20
466.7669982910156
 30
0.0
 10
166.5679931640625
 20
467.3070068359375
 30
0.0
 10
165.9440002441406
 20
472.4989929199219
 30
0.0
  0
SPLINE
  5
60
330
1F
100
AcDbEntity
  8
_U+0421_U+043B_U+043E_U+0439 1
370
     0
100
AcDbSpline
210
0.0
220
0.0
230
1.0
 70
    11
 71
     3
 72
    32
 73
    28
 74
     0
 42
0.0000000001
 43
0.0000000001
 12
1.0
 22
0.0
 32
0.0
 13
1.0
 23
0.0
 33
0.0
 40
0.0
 40
0.0
 40
0.0
 40
0.0
 40
1.0
 40
1.0
 40
1.0
 40
2.0
 40
2.0
 40
2.0
 40
3.0
 40
3.0
 40
3.0
 40
4.0
 40
4.0
 40
4.0
 40
5.0
 40
5.0
 40
5.0
 40
6.0
 40
6.0
 40
6.0
 40
7.0
 40
7.0
 40
7.0
 40
8.0
 40
8.0
 40
8.0
 40
9.0
 40
9.0
 40
9.0
 40
9.0
 10
191.9620056152344
 20
475.6019897460938
 30
0.0
 10
189.3890075683594
 20
480.4239807128906
 30
0.0
 10
188.9350128173828
 20
487.1229858398438
 30
0.0
 10
188.9350128173828
 20
492.2519836425781
 30
0.0
 10
188.9350128173828
 20
499.1709899902344
 30
0.0
 10
188.5330200195312
 20
508.2069702148438
 30
0.0
 10
194.8390197753906
 20
508.2069702148438
 30
0.0
 10
197.8740234375
 20
508.2069702148438
 30
0.0
 10
200.9020233154297
 20
505.344970703125
 30
0.0
 10
200.8190155029297
 20
500.2149658203125
 30
0.0
 10
200.6080169677734
 20
488.3159790039062
 30
0.0
 10
199.6780090332031
 20
475.0129699707031
 30
0.0
 10
205.4970092773438
 20
475.7539672851562
 30
0.0
 10
217.052001953125
 20
477.1129760742188
 30
0.0
 10
210.5530090332031
 20
504.8629760742188
 30
0.0
 10
212.1890106201172
 20
508.0109558105469
 30
0.0
 10
212.5530090332031
 20
508.7149658203125
 30
0.0
 10
213.6000061035156
 20
509.4489440917969
 30
0.0
 10
214.5810089111328
 20
509.4489440917969
 30
0.0
 10
218.7980041503906
 20
509.4489440917969
 30
0.0
 10
217.8670043945312
 20
499.3729553222656
 30
0.0
 10
218.427001953125
 20
495.6439514160156
 30
0.0
 10
219.5370025634766
 20
476.6239624023438
 30
0.0
 10
214.2720031738281
 20
471.9349365234375
 30
0.0
 10
206.6780090332031
 20
468.73095703125
 30
0.0
 10
200.5509948730469
 20
466.1340026855469
 30
0.0
 10
195.1419982910156
 20
470.0199890136719
 30
0.0
 10
191.9620056152344
 20
475.6019897460938
 30
0.0
  0
SPLINE
  5
61
330
1F
100
AcDbEntity
  8
_U+0421_U+043B_U+043E_U+0439 1
370
     0
100
AcDbSpline
210
0.0
220
0.0
230
1.0
 70
    11
 71
     3
 72
    41
 73
    37
 74
     0
 42
0.0000000001
 43
0.0000000001
 12
1.0
 22
0.0
 32
0.0
 13
1.0
 23
0.0
 33
0.0
 40
0.0
 40
0.0
 40
0.0
 40
0.0
 40
1.0
 40
1.0
 40
1.0
 40
2.0
 40
2.0
 40
2.0
 40
3.0
 40
3.0
 40
3.0
 40
4.0
 40
4.0
 40
4.0
 40
5.0
 40
5.0
 40
5.0
 40
6.0
 40
6.0
 40
6.0
 40
7.0
 40
7.0
 40
7.0
 40
8.0
 40
8.0
 40
8.0
 40
9.0
 40
9.0
 40
9.0
 40
10.0
 40
10.0
 40
10.0
 40
11.0
 40
11.0
 40
11.0
 40
12.0
 40
12.0
 40
12.0
 40
12.0
 10
223.7610015869141
 20
469.6380004882812
 30
0.0
 10
222.8240051269531
 20
471.2980041503906
 30
0.0
 10
221.4900054931641
 20
499.0759887695312
 30
0.0
 10
222.5800018310547
 20
503.2720031738281
 30
0.0
 10
223.1650085449219
 20
505.3500061035156
 30
0.0
 10
224.2350006103516
 20
506.8139953613281
 30
0.0
 10
225.7900085449219
 20
507.6620178222656
 30
0.0
 10
240.3110046386719
 20
514.9230041503906
 30
0.0
 10
261.6690063476562
 20
507.3870239257812
 30
0.0
 10
253.4960021972656
 20
491.041015625
 30
0.0
 10
250.6430053710938
 20
485.4800109863281
 30
0.0
 10
243.6860046386719
 20
481.9020080566406
 30
0.0
 10
242.6860046386719
 20
481.2320251464844
 30
0.0
 10
242.6240081787109
 20
481.2020263671875
 30
0.0
 10
242.5790100097656
 20
481.155029296875
 30
0.0
 10
242.7010040283203
 20
481.0350341796875
 30
0.0
 10
242.7120056152344
 20
481.0250244140625
 30
0.0
 10
250.5970001220703
 20
476.6060485839844
 30
0.0
 10
251.43701171875
 20
476.0550231933594
 30
0.0
 10
255.0970153808594
 20
473.7680358886719
 30
0.0
 10
253.7590179443359
 20
469.9290161132812
 30
0.0
 10
250.43701171875
 20
469.7880249023438
 30
0.0
 10
247.9630126953125
 20
469.7880249023438
 30
0.0
 10
238.8800048828125
 20
474.0310363769531
 30
0.0
 10
235.1610107421875
 20
475.5250244140625
 30
0.0
 10
233.9800109863281
 20
475.9990234375
 30
0.0
 10
233.3400115966797
 20
476.2360229492188
 30
0.0
 10
233.239013671875
 20
476.2360229492188
 30
0.0
 10
233.1580200195312
 20
476.155029296875
 30
0.0
 10
232.7580108642578
 20
471.6630249023438
 30
0.0
 10
232.739013671875
 20
471.5280151367188
 30
0.0
 10
232.2990112304688
 20
468.4530029296875
 30
0.0
 10
230.4020080566406
 20
467.0320129394531
 30
0.0
 10
227.9090118408203
 20
467.0320129394531
 30
0.0
 10
226.3600006103516
 20
467.0350036621094
 30
0.0
 10
224.6860046386719
 20
467.8930053710938
 30
0.0
 10
223.7610015869141
 20
469.6380004882812
 30
0.0
  0
SPLINE
  5
62
330
1F
100
AcDbEntity
  8
_U+0421_U+043B_U+043E_U+0439 1
370
     0
100
AcDbSpline
210
0.0
220
0.0
230
1.0
 70
    11
 71
     3
 72
    17
 73
    13
 74
     0
 42
0.0000000001
 43
0.0000000001
 12
1.0
 22
0.0
 32
0.0
 13
1.0
 23
0.0
 33
0.0
 40
0.0
 40
0.0
 40
0.0
 40
0.0
 40
1.0
 40
1.0
 40
1.0
 40
2.0
 40
2.0
 40
2.0
 40
3.0
 40
3.0
 40
3.0
 40
4.0
 40
4.0
 40
4.0
 40
4.0
 10
241.7769927978516
 20
490.6780090332031
 30
0.0
 10
244.2909851074219
 20
492.5240173339844
 30
0.0
 10
248.1619873046875
 20
496.47900390625
 30
0.0
 10
247.8789978027344
 20
499.7149963378906
 30
0.0
 10
247.7939910888672
 20
500.6740112304688
 30
0.0
 10
241.4169921875
 20
503.6849975585938
 30
0.0
 10
233.9049987792969
 20
502.1820068359375
 30
0.0
 10
233.9049987792969
 20
488.7640075683594
 30
0.0
 10
233.8600006103516
 20
489.0220031738281
 30
0.0
 10
233.6929931640625
 20
486.1369934082031
 30
0.0
 10
236.2200012207031
 20
487.2950134277344
 30
0.0
 10
239.6020050048828
 20
488.9519958496094
 30
0.0
 10
241.7769927978516
 20
490.6780090332031
 30
0.0
  0
SPLINE
  5
63
330
1F
100
AcDbEntity
  8
_U+0421_U+043B_U+043E_U+0439 1
370
     0
100
AcDbSpline
210
0.0
220
0.0
230
1.0
 70
    11
 71
     3
 72
    26
 73
    22
 74
     0
 42
0.0000000001
 43
0.0000000001
 12
1.0
 22
0.0
 32
0.0
 13
1.0
 23
0.0
 33
0.0
 40
0.0
 40
0.0
 40
0.0
 40
0.0
 40
1.0
 40
1.0
 40
1.0
 40
2.0
 40
2.0
 40
2.0
 40
3.0
 40
3.0
 40
3.0
 40
4.0
 40
4.0
 40
4.0
 40
5.0
 40
5.0
 40
5.0
 40
6.0
 40
6.0
 40
6.0
 40
7.0
 40
7.0
 40
7.0
 40
7.0
 10
263.8450012207031
 20
467.4739990234375
 30
0.0
 10
262.4760131835938
 20
467.8030090332031
 30
0.0
 10
261.1549987792969
 20
469.093994140625
 30
0.0
 10
260.6199951171875
 20
470.2139892578125
 30
0.0
 10
260.1579895019531
 20
471.2139892578125
 30
0.0
 10
260.083984375
 20
471.8599853515625
 30
0.0
 10
259.8630065917969
 20
475.3599853515625
 30
0.0
 10
257.6470031738281
 20
510.1259765625
 30
0.0
 10
258.739013671875
 20
508.2139892578125
 30
0.0
 10
266.7659912109375
 20
509.9329833984375
 30
0.0
 10
281.3309936523438
 20
513.1309814453125
 30
0.0
 10
290.0849914550781
 20
504.6029968261719
 30
0.0
 10
280.60400390625
 20
492.3739929199219
 30
0.0
 10
292.2369995117188
 20
489.468994140625
 30
0.0
 10
291.2590026855469
 20
476.1990051269531
 30
0.0
 10
279.3630065917969
 20
470.1529846191406
 30
0.0
 10
275.7669982910156
 20
468.2669982910156
 30
0.0
 10
272.8380126953125
 20
467.1259765625
 30
0.0
 10
268.7050170898438
 20
467.1259765625
 30
0.0
 10
266.8949890136719
 20
467.125
 30
0.0
 10
264.1489868164062
 20
467.3999938964844
 30
0.0
 10
263.8450012207031
 20
467.4739990234375
 30
0.0
  0
SPLINE
  5
64
330
1F
100
AcDbEntity
  8
_U+0421_U+043B_U+043E_U+0439 1
370
     0
100
AcDbSpline
210
0.0
220
0.0
230
1.0
 70
    11
 71
     3
 72
    14
 73
    10
 74
     0
 42
0.0000000001
 43
0.0000000001
 12
1.0
 22
0.0
 32
0.0
 13
1.0
 23
0.0
 33
0.0
 40
0.0
 40
0.0
 40
0.0
 40
0.0
 40
1.0
 40
1.0
 40
1.0
 40
2.0
 40
2.0
 40
2.0
 40
3.0
 40
3.0
 40
3.0
 40
3.0
 10
279.6059875488281
 20
481.02099609375
 30
0.0
 10
283.7169799804688
 20
487.7689819335938
 30
0.0
 10
272.2330017089844
 20
484.1090087890625
 30
0.0
 10
270.8249816894531
 20
484.1090087890625
 30
0.0
 10
270.1549682617188
 20
484.1090087890625
 30
0.0
 10
270.3709716796875
 20
480.7690124511719
 30
0.0
 10
270.3709716796875
 20
474.8150024414062
 30
0.0
 10
275.4739990234375
 20
476.6709899902344
 30
0.0
 10
278.2619934082031
 20
479.0490112304688
 30
0.0
 10
279.6059875488281
 20
481.02099609375
 30
0.0
  0
SPLINE
  5
65
330
1F
100
AcDbEntity
  8
_U+0421_U+043B_U+043E_U+0439 1
370
     0
100
AcDbSpline
210
0.0
220
0.0
230
1.0
 70
    11
 71
     3
 72
    17
 73
    13
 74
     0
 42
0.0000000001
 43
0.0000000001
 12
1.0
 22
0.0
 32
0.0
 13
1.0
 23
0.0
 33
0.0
 40
0.0
 40
0.0
 40
0.0
 40
0.0
 40
1.0
 40
1.0
 40
1.0
 40
2.0
 40
2.0
 40
2.0
 40
3.0
 40
3.0
 40
3.0
 40
4.0
 40
4.0
 40
4.0
 40
4.0
 10
274.656005859375
 20
496.2640075683594
 30
0.0
 10
280.3179931640625
 20
502.6119995117188
 30
0.0
 10
276.8049926757812
 20
505.0390014648438
 30
0.0
 10
270.4620056152344
 20
503.5760192871094
 30
0.0
 10
270.4620056152344
 20
502.5760192871094
 30
0.0
 10
270.5260009765625
 20
498.8710327148438
 30
0.0
 10
270.7340087890625
 20
492.8280334472656
 30
0.0
 10
270.7550048828125
 20
492.8280334472656
 30
0.0
 10
270.8760070800781
 20
492.9040222167969
 30
0.0
 10
271.0970153808594
 20
493.0550231933594
 30
0.0
 10
272.0969848632812
 20
493.7349853515625
 30
0.0
 10
273.0950012207031
 20
494.5159912109375
 30
0.0
 10
274.656005859375
 20
496.2640075683594
 30
0.0
  0
SPLINE
  5
66
330
1F
100
AcDbEntity
  8
_U+0421_U+043B_U+043E_U+0439 1
370
     0
100
AcDbSpline
210
0.0
220
0.0
230
1.0
 70
    11
 71
     3
 72
    17
 73
    13
 74
     0
 42
0.0000000001
 43
0.0000000001
 12
1.0
 22
0.0
 32
0.0
 13
1.0
 23
0.0
 33
0.0
 40
0.0
 40
0.0
 40
0.0
 40
0.0
 40
1.0
 40
1.0
 40
1.0
 40
2.0
 40
2.0
 40
2.0
 40
3.0
 40
3.0
 40
3.0
 40
4.0
 40
4.0
 40
4.0
 40
4.0
 10
226.1360015869141
 20
187.698974609375
 30
0.0
 10
230.0189971923828
 20
187.698974609375
 30
0.0
 10
233.1739959716797
 20
190.8569946289062
 30
0.0
 10
233.1739959716797
 20
194.7359619140625
 30
0.0
 10
233.1739959716797
 20
198.6309814453125
 30
0.0
 10
230.0049896240234
 20
201.77294921875
 30
0.0
 10
226.1360015869141
 20
201.77294921875
 30
0.0
 10
222.2799987792969
 20
201.77294921875
 30
0.0
 10
219.0989990234375
 20
198.637939453125
 30
0.0
 10
219.0989990234375
 20
194.7359619140625
 30
0.0
 10
219.0980072021484
 20
190.8569946289062
 30
0.0
 10
222.2559967041016
 20
187.698974609375
 30
0.0
 10
226.1360015869141
 20
187.698974609375
 30
0.0
  0
SPLINE
  5
67
330
1F
100
AcDbEntity
  8
_U+0421_U+043B_U+043E_U+0439 1
370
     0
100
AcDbSpline
210
0.0
220
0.0
230
1.0
 70
    11
 71
     3
 72
    11
 73
     7
 74
     0
 42
0.0000000001
 43
0.0000000001
 12
1.0
 22
0.0
 32
0.0
 13
1.0
 23
0.0
 33
0.0
 40
0.0
 40
0.0
 40
0.0
 40
0.0
 40
1.0
 40
1.0
 40
1.0
 40
2.0
 40
2.0
 40
2.0
 40
2.0
 10
131.3919982910156
 20
149.4929809570312
 30
0.0
 10
132.9909973144531
 20
144.0369873046875
 30
0.0
 10
137.3489990234375
 20
139.751953125
 30
0.0
 10
142.8470001220703
 20
138.2550048828125
 30
0.0
 10
143.5399932861328
 20
144.8070068359375
 30
0.0
 10
137.9409942626953
 20
150.3049926757812
 30
0.0
 10
131.3919982910156
 20
149.4929809570312
 30
0.0
  0
SPLINE
  5
68
330
1F
100
AcDbEntity
  8
_U+0421_U+043B_U+043E_U+0439 1
370
     0
100
AcDbSpline
210
0.0
220
0.0
230
1.0
 70
    11
 71
     3
 72
    17
 73
    13
 74
     0
 42
0.0000000001
 43
0.0000000001
 12
1.0
 22
0.0
 32
0.0
 13
1.0
 23
0.0
 33
0.0
 40
0.0
 40
0.0
 40
0.0
 40
0.0
 40
1.0
 40
1.0
 40
1.0
 40
2.0
 40
2.0
 40
2.0
 40
3.0
 40
3.0
 40
3.0
 40
4.0
 40
4.0
 40
4.0
 40
4.0
 10
242.1940002441406
 20
203.7589721679688
 30
0.0
 10
246.0769958496094
 20
203.7589721679688
 30
0.0
 10
249.2310028076172
 20
206.9169921875
 30
0.0
 10
249.2310028076172
 20
210.7959594726562
 30
0.0
 10
249.2310028076172
 20
214.6909790039062
 30
0.0
 10
246.0619964599609
 20
217.8329467773438
 30
0.0
 10
242.1940002441406
 20
217.8329467773438
 30
0.0
 10
238.3379974365234
 20
217.8329467773438
 30
0.0
 10
235.156005859375
 20
214.6979370117188
 30
0.0
 10
235.156005859375
 20
210.7959594726562
 30
0.0
 10
235.1580047607422
 20
206.9169921875
 30
0.0
 10
238.3139953613281
 20
203.7589721679688
 30
0.0
 10
242.1940002441406
 20
203.7589721679688
 30
0.0
  0
SPLINE
  5
69
330
1F
100
AcDbEntity
  8
_U+0421_U+043B_U+043E_U+0439 1
370
     0
100
AcDbSpline
210
0.0
220
0.0
230
1.0
 70
    11
 71
     3
 72
    11
 73
     7
 74
     0
 42
0.0000000001
 43
0.0000000001
 12
1.0
 22
0.0
 32
0.0
 13
1.0
 23
0.0
 33
0.0
 40
0.0
 40
0.0
 40
0.0
 40
0.0
 40
1.0
 40
1.0
 40
1.0
 40
2.0
 40
2.0
 40
2.0
 40
2.0
 10
151.4680023193359
 20
138.2550048828125
 30
0.0
 10
156.9660034179688
 20
139.7520141601562
 30
0.0
 10
161.3240051269531
 20
144.0369873046875
 30
0.0
 10
162.9250030517578
 20
149.4929809570312
 30
0.0
 10
156.3860015869141
 20
150.302978515625
 30
0.0
 10
150.7769927978516
 20
144.8150024414062
 30
0.0
 10
151.4680023193359
 20
138.2550048828125
 30
0.0
  0
SPLINE
  5
6A
330
1F
100
AcDbEntity
  8
_U+0421_U+043B_U+043E_U+0439 1
370
     0
100
AcDbSpline
210
0.0
220
0.0
230
1.0
 70
    11
 71
     3
 72
    11
 73
     7
 74
     0
 42
0.0000000001
 43
0.0000000001
 12
1.0
 22
0.0
 32
0.0
 13
1.0
 23
0.0
 33
0.0
 40
0.0
 40
0.0
 40
0.0
 40
0.0
 40
1.0
 40
1.0
 40
1.0
 40
2.0
 40
2.0
 40
2.0
 40
2.0
 10
131.3919982910156
 20
158.7219848632812
 30
0.0
 10
137.9329986572266
 20
157.9099731445312
 30
0.0
 10
143.5399932861328
 20
163.3989868164062
 30
0.0
 10
142.8489990234375
 20
169.9599609375
 30
0.0
 10
137.3489990234375
 20
168.4639892578125
 30
0.0
 10
132.9909973144531
 20
164.177978515625
 30
0.0
 10
131.3919982910156
 20
158.7219848632812
 30
0.0
  0
SPLINE
  5
6B
330
1F
100
AcDbEntity
  8
_U+0421_U+043B_U+043E_U+0439 1
370
     0
100
AcDbSpline
210
0.0
220
0.0
230
1.0
 70
    11
 71
     3
 72
    11
 73
     7
 74
     0
 42
0.0000000001
 43
0.0000000001
 12
1.0
 22
0.0
 32
0.0
 13
1.0
 23
0.0
 33
0.0
 40
0.0
 40
0.0
 40
0.0
 40
0.0
 40
1.0
 40
1.0
 40
1.0
 40
2.0
 40
2.0
 40
2.0
 40
2.0
 10
151.4680023193359
 20
169.9600219726562
 30
0.0
 10
150.7750091552734
 20
163.3910522460938
 30
0.0
 10
156.3919982910156
 20
157.9110107421875
 30
0.0
 10
162.9250030517578
 20
158.7220458984375
 30
0.0
 10
161.3240051269531
 20
164.177978515625
 30
0.0
 10
156.9660034179688
 20
168.4639892578125
 30
0.0
 10
151.4680023193359
 20
169.9600219726562
 30
0.0
  0
SPLINE
  5
6C
330
1F
100
AcDbEntity
  8
_U+0421_U+043B_U+043E_U+0439 1
370
     0
100
AcDbSpline
210
0.0
220
0.0
230
1.0
 70
    11
 71
     3
 72
    14
 73
    10
 74
     0
 42
0.0000000001
 43
0.0000000001
 12
1.0
 22
0.0
 32
0.0
 13
1.0
 23
0.0
 33
0.0
 40
0.0
 40
0.0
 40
0.0
 40
0.0
 40
1.0
 40
1.0
 40
1.0
 40
2.0
 40
2.0
 40
2.0
 40
3.0
 40
3.0
 40
3.0
 40
3.0
 10
108.9749984741211
 20
210.114013671875
 30
0.0
 10
91.66799926757812
 20
202.218017578125
 30
0.0
 10
97.26699829101562
 20
176.1060180664062
 30
0.0
 10
116.3629989624023
 20
176.1060180664062
 30
0.0
 10
126.193000793457
 20
176.1060180664062
 30
0.0
 10
134.1669921875
 20
184.0750122070312
 30
0.0
 10
134.1669921875
 20
193.9100341796875
 30
0.0
 10
134.1649932861328
 20
206.8729858398438
 30
0.0
 10
120.734001159668
 20
215.4660034179688
 30
0.0
 10
108.9749984741211
 20
210.114013671875
 30
0.0
  0
SPLINE
  5
6D
330
1F
100
AcDbEntity
  8
_U+0421_U+043B_U+043E_U+0439 1
370
     0
100
AcDbSpline
210
0.0
220
0.0
230
1.0
 70
    11
 71
     3
 72
    17
 73
    13
 74
     0
 42
0.0000000001
 43
0.0000000001
 12
1.0
 22
0.0
 32
0.0
 13
1.0
 23
0.0
 33
0.0
 40
0.0
 40
0.0
 40
0.0
 40
0.0
 40
1.0
 40
1.0
 40
1.0
 40
2.0
 40
2.0
 40
2.0
 40
3.0
 40
3.0
 40
3.0
 40
4.0
 40
4.0
 40
4.0
 40
4.0
 10
116.3619995117188
 20
180.4349975585938
 30
0.0
 10
108.9219970703125
 20
180.4349975585938
 30
0.0
 10
102.8889999389648
 20
186.468017578125
 30
0.0
 10
102.8889999389648
 20
193.9080200195312
 30
0.0
 10
102.8889999389648
 20
201.3500366210938
 30
0.0
 10
108.9219970703125
 20
207.3810424804688
 30
0.0
 10
116.3619995117188
 20
207.3810424804688
 30
0.0
 10
123.8040008544922
 20
207.3810424804688
 30
0.0
 10
129.8349914550781
 20
201.3480224609375
 30
0.0
 10
129.8349914550781
 20
193.9080200195312
 30
0.0
 10
129.8350067138672
 20
186.468017578125
 30
0.0
 10
123.802001953125
 20
180.4349975585938
 30
0.0
 10
116.3619995117188
 20
180.4349975585938
 30
0.0
  0
SPLINE
  5
6E
330
1F
100
AcDbEntity
  8
_U+0421_U+043B_U+043E_U+0439 1
370
     0
100
AcDbSpline
210
0.0
220
0.0
230
1.0
 70
    11
 71
     3
 72
    17
 73
    13
 74
     0
 42
0.0000000001
 43
0.0000000001
 12
1.0
 22
0.0
 32
0.0
 13
1.0
 23
0.0
 33
0.0
 40
0.0
 40
0.0
 40
0.0
 40
0.0
 40
1.0
 40
1.0
 40
1.0
 40
2.0
 40
2.0
 40
2.0
 40
3.0
 40
3.0
 40
3.0
 40
4.0
 40
4.0
 40
4.0
 40
4.0
 10
242.1940002441406
 20
185.7139892578125
 30
0.0
 10
238.3379974365234
 20
185.7139892578125
 30
0.0
 10
235.156005859375
 20
182.5789794921875
 30
0.0
 10
235.156005859375
 20
178.677001953125
 30
0.0
 10
235.156005859375
 20
174.7969970703125
 30
0.0
 10
238.3140106201172
 20
171.6400146484375
 30
0.0
 10
242.1940002441406
 20
171.6400146484375
 30
0.0
 10
246.0769958496094
 20
171.6400146484375
 30
0.0
 10
249.2310028076172
 20
174.7980346679688
 30
0.0
 10
249.2310028076172
 20
178.677001953125
 30
0.0
 10
249.2330017089844
 20
182.572998046875
 30
0.0
 10
246.0639953613281
 20
185.7139892578125
 30
0.0
 10
242.1940002441406
 20
185.7139892578125
 30
0.0
  0
SPLINE
  5
6F
330
1F
100
AcDbEntity
  8
_U+0421_U+043B_U+043E_U+0439 1
370
     0
100
AcDbSpline
210
0.0
220
0.0
230
1.0
 70
    11
 71
     3
 72
    14
 73
    10
 74
     0
 42
0.0000000001
 43
0.0000000001
 12
1.0
 22
0.0
 32
0.0
 13
1.0
 23
0.0
 33
0.0
 40
0.0
 40
0.0
 40
0.0
 40
0.0
 40
1.0
 40
1.0
 40
1.0
 40
2.0
 40
2.0
 40
2.0
 40
3.0
 40
3.0
 40
3.0
 40
3.0
 10
204.4040069580078
 20
173.7130126953125
 30
0.0
 10
187.0960083007812
 20
165.8190307617188
 30
0.0
 10
192.6960144042969
 20
139.7050170898438
 30
0.0
 10
211.7920074462891
 20
139.7050170898438
 30
0.0
 10
221.6220092773438
 20
139.7050170898438
 30
0.0
 10
229.5960083007812
 20
147.6740112304688
 30
0.0
 10
229.5960083007812
 20
157.509033203125
 30
0.0
 10
229.593994140625
 20
170.4199829101562
 30
0.0
 10
216.2169952392578
 20
179.0889892578125
 30
0.0
 10
204.4040069580078
 20
173.7130126953125
 30
0.0
  0
SPLINE
  5
70
330
1F
100
AcDbEntity
  8
_U+0421_U+043B_U+043E_U+0439 1
370
     0
100
AcDbSpline
210
0.0
220
0.0
230
1.0
 70
    11
 71
     3
 72
    17
 73
    13
 74
     0
 42
0.0000000001
 43
0.0000000001
 12
1.0
 22
0.0
 32
0.0
 13
1.0
 23
0.0
 33
0.0
 40
0.0
 40
0.0
 40
0.0
 40
0.0
 40
1.0
 40
1.0
 40
1.0
 40
2.0
 40
2.0
 40
2.0
 40
3.0
 40
3.0
 40
3.0
 40
4.0
 40
4.0
 40
4.0
 40
4.0
 10
211.7899932861328
 20
144.0349731445312
 30
0.0
 10
204.3499908447266
 20
144.0349731445312
 30
0.0
 10
198.3169860839844
 20
150.0679931640625
 30
0.0
 10
198.3169860839844
 20
157.5079956054688
 30
0.0
 10
198.3169860839844
 20
164.9500122070312
 30
0.0
 10
204.3499908447266
 20
170.9810180664062
 30
0.0
 10
211.7899780273438
 20
170.9810180664062
 30
0.0
 10
219.2319793701172
 20
170.9810180664062
 30
0.0
 10
225.2629699707031
 20
164.947998046875
 30
0.0
 10
225.2629699707031
 20
157.5079956054688
 30
0.0
 10
225.2629699707031
 20
150.0679931640625
 30
0.0
 10
219.2310028076172
 20
144.0349731445312
 30
0.0
 10
211.7899932861328
 20
144.0349731445312
 30
0.0
  0
SPLINE
  5
71
330
1F
100
AcDbEntity
  8
_U+0421_U+043B_U+043E_U+0439 1
370
     0
100
AcDbSpline
210
0.0
220
0.0
230
1.0
 70
    11
 71
     3
 72
    17
 73
    13
 74
     0
 42
0.0000000001
 43
0.0000000001
 12
1.0
 22
0.0
 32
0.0
 13
1.0
 23
0.0
 33
0.0
 40
0.0
 40
0.0
 40
0.0
 40
0.0
 40
1.0
 40
1.0
 40
1.0
 40
2.0
 40
2.0
 40
2.0
 40
3.0
 40
3.0
 40
3.0
 40
4.0
 40
4.0
 40
4.0
 40
4.0
 10
258.2560119628906
 20
201.7739868164062
 30
0.0
 10
254.4000091552734
 20
201.7739868164062
 30
0.0
 10
251.218017578125
 20
198.6389770507812
 30
0.0
 10
251.218017578125
 20
194.7369995117188
 30
0.0
 10
251.218017578125
 20
190.8569946289062
 30
0.0
 10
254.3760223388672
 20
187.7000122070312
 30
0.0
 10
258.2560119628906
 20
187.7000122070312
 30
0.0
 10
262.1390075683594
 20
187.7000122070312
 30
0.0
 10
265.2929992675781
 20
190.8590087890625
 30
0.0
 10
265.2929992675781
 20
194.7369995117188
 30
0.0
 10
265.2940063476562
 20
198.6320190429688
 30
0.0
 10
262.1239929199219
 20
201.7739868164062
 30
0.0
 10
258.2560119628906
 20
201.7739868164062
 30
0.0
  0
SPLINE
  5
72
330
1F
100
AcDbEntity
  8
_U+0421_U+043B_U+043E_U+0439 1
370
     0
100
AcDbSpline
210
0.0
220
0.0
230
1.0
 70
    11
 71
     3
 72
    47
 73
    43
 74
     0
 42
0.0000000001
 43
0.0000000001
 12
1.0
 22
0.0
 32
0.0
 13
1.0
 23
0.0
 33
0.0
 40
0.0
 40
0.0
 40
0.0
 40
0.0
 40
1.0
 40
1.0
 40
1.0
 40
2.0
 40
2.0
 40
2.0
 40
3.0
 40
3.0
 40
3.0
 40
4.0
 40
4.0
 40
4.0
 40
5.0
 40
5.0
 40
5.0
 40
6.0
 40
6.0
 40
6.0
 40
7.0
 40
7.0
 40
7.0
 40
8.0
 40
8.0
 40
8.0
 40
9.0
 40
9.0
 40
9.0
 40
10.0
 40
10.0
 40
10.0
 40
11.0
 40
11.0
 40
11.0
 40
12.0
 40
12.0
 40
12.0
 40
13.0
 40
13.0
 40
13.0
 40
14.0
 40
14.0
 40
14.0
 40
14.0
 10
116.7460021972656
 20
233.3049926757812
 30
0.0
 10
110.1380004882812
 20
231.2869873046875
 30
0.0
 10
91.75
 20
227.0
 30
0.0
 10
82.76000213623047
 20
203.8759765625
 30
0.0
 10
70.67400360107422
 20
173.6939697265625
 30
0.0
 10
57.21700286865234
 20
138.260009765625
 30
0.0
 10
57.52400207519531
 20
105.8889770507812
 30
0.0
 10
57.23500061035156
 20
94.9320068359375
 30
0.0
 10
57.53400039672852
 20
78.64996337890625
 30
0.0
 10
68.63600158691406
 20
69.115966796875
 30
0.0
 10
76.4260025024414
 20
62.44195556640625
 30
0.0
 10
84.72900390625
 20
62.73297119140625
 30
0.0
 10
90.73699951171875
 20
67.03399658203125
 30
0.0
 10
97.46299743652344
 20
71.8389892578125
 30
0.0
 10
98.3759994506836
 20
73.88397216796875
 30
0.0
 10
119.125
 20
100.552978515625
 30
0.0
 10
124.0039978027344
 20
106.7420043945312
 30
0.0
 10
130.0599975585938
 20
109.1319580078125
 30
0.0
 10
137.2649993896484
 20
109.9159545898438
 30
0.0
 10
145.5419921875
 20
110.81396484375
 30
0.0
 10
214.4599914550781
 20
110.81396484375
 30
0.0
 10
222.7350006103516
 20
109.9159545898438
 30
0.0
 10
229.9400024414062
 20
109.1319580078125
 30
0.0
 10
235.9960021972656
 20
106.741943359375
 30
0.0
 10
240.875
 20
100.552978515625
 30
0.0
 10
261.6239929199219
 20
73.88397216796875
 30
0.0
 10
262.5369873046875
 20
71.8389892578125
 30
0.0
 10
269.2630004882812
 20
67.03399658203125
 30
0.0
 10
275.2699890136719
 20
62.7340087890625
 30
0.0
 10
283.5740051269531
 20
62.4429931640625
 30
0.0
 10
291.364013671875
 20
69.115966796875
 30
0.0
 10
302.4660034179688
 20
78.64996337890625
 30
0.0
 10
302.7650146484375
 20
94.93194580078125
 30
0.0
 10
302.4760131835938
 20
105.8889770507812
 30
0.0
 10
302.7830200195312
 20
138.2680053710938
 30
0.0
 10
289.3170166015625
 20
173.7160034179688
 30
0.0
 10
277.2400207519531
 20
203.8759765625
 30
0.0
 10
268.2500305175781
 20
227.0
 30
0.0
 10
249.8620147705078
 20
231.2869873046875
 30
0.0
 10
243.2540283203125
 20
233.3049926757812
 30
0.0
 10
222.5440063476562
 20
239.6329956054688
 30
0.0
 10
137.4629974365234
 20
239.635009765625
 30
0.0
 10
116.7460021972656
 20
233.3049926757812
 30
0.0
  0
SPLINE
  5
73
330
1F
100
AcDbEntity
  8
_U+0421_U+043B_U+043E_U+0439 1
370
     0
100
AcDbSpline
210
0.0
220
0.0
230
1.0
 70
    11
 71
     3
 72
    17
 73
    13
 74
     0
 42
0.0000000001
 43
0.0000000001
 12
1.0
 22
0.0
 32
0.0
 13
1.0
 23
0.0
 33
0.0
 40
0.0
 40
0.0
 40
0.0
 40
0.0
 40
1.0
 40
1.0
 40
1.0
 40
2.0
 40
2.0
 40
2.0
 40
3.0
 40
3.0
 40
3.0
 40
4.0
 40
4.0
 40
4.0
 40
4.0
 10
116.3600006103516
 20
170.0880126953125
 30
0.0
 10
104.2050018310547
 20
170.0880126953125
 30
0.0
 10
94.74700164794922
 20
180.572998046875
 30
0.0
 10
95.72900390625
 20
192.3450317382812
 30
0.0
 10
94.75200653076172
 20
203.97802734375
 30
0.0
 10
104.0830078125
 20
214.60205078125
 30
0.0
 10
116.3600006103516
 20
214.60205078125
 30
0.0
 10
128.6369934082031
 20
214.60205078125
 30
0.0
 10
137.9680023193359
 20
203.97802734375
 30
0.0
 10
136.9909973144531
 20
192.3450317382812
 30
0.0
 10
137.9779968261719
 20
180.541015625
 30
0.0
 10
128.4819946289062
 20
170.0880126953125
 30
0.0
 10
116.3600006103516
 20
170.0880126953125
 30
0.0
  0
SPLINE
  5
74
330
1F
100
AcDbEntity
  8
_U+0421_U+043B_U+043E_U+0439 1
370
     0
100
AcDbSpline
210
0.0
220
0.0
230
1.0
 70
    11
 71
     3
 72
    17
 73
    13
 74
     0
 42
0.0000000001
 43
0.0000000001
 12
1.0
 22
0.0
 32
0.0
 13
1.0
 23
0.0
 33
0.0
 40
0.0
 40
0.0
 40
0.0
 40
0.0
 40
1.0
 40
1.0
 40
1.0
 40
2.0
 40
2.0
 40
2.0
 40
3.0
 40
3.0
 40
3.0
 40
4.0
 40
4.0
 40
4.0
 40
4.0
 10
147.1580047607422
 20
135.2210083007812
 30
0.0
 10
136.7440032958984
 20
135.2210083007812
 30
0.0
 10
128.2730102539062
 20
143.6920166015625
 30
0.0
 10
128.2730102539062
 20
154.1060180664062
 30
0.0
 10
128.2730102539062
 20
164.52001953125
 30
0.0
 10
136.7440032958984
 20
172.9910278320312
 30
0.0
 10
147.1580047607422
 20
172.9910278320312
 30
0.0
 10
157.5720062255859
 20
172.9910278320312
 30
0.0
 10
166.0429992675781
 20
164.52001953125
 30
0.0
 10
166.0429992675781
 20
154.1060180664062
 30
0.0
 10
166.0429992675781
 20
143.6920166015625
 30
0.0
 10
157.572998046875
 20
135.2210083007812
 30
0.0
 10
147.1580047607422
 20
135.2210083007812
 30
0.0
  0
SPLINE
  5
75
330
1F
100
AcDbEntity
  8
_U+0421_U+043B_U+043E_U+0439 1
370
     0
100
AcDbSpline
210
0.0
220
0.0
230
1.0
 70
    11
 71
     3
 72
    11
 73
     7
 74
     0
 42
0.0000000001
 43
0.0000000001
 12
1.0
 22
0.0
 32
0.0
 13
1.0
 23
0.0
 33
0.0
 40
0.0
 40
0.0
 40
0.0
 40
0.0
 40
1.0
 40
1.0
 40
1.0
 40
2.0
 40
2.0
 40
2.0
 40
2.0
 10
242.1929931640625
 20
219.6370239257812
 30
0.0
 10
254.0309906005859
 20
219.6370239257812
 30
0.0
 10
254.0309906005859
 20
200.0590209960938
 30
0.0
 10
242.1929931640625
 20
200.0590209960938
 30
0.0
 10
230.3370056152344
 20
200.0590209960938
 30
0.0
 10
230.3710021972656
 20
219.6370239257812
 30
0.0
 10
242.1929931640625
 20
219.6370239257812
 30
0.0
  0
SPLINE
  5
76
330
1F
100
AcDbEntity
  8
_U+0421_U+043B_U+043E_U+0439 1
370
     0
100
AcDbSpline
210
0.0
220
0.0
230
1.0
 70
    11
 71
     3
 72
    17
 73
    13
 74
     0
 42
0.0000000001
 43
0.0000000001
 12
1.0
 22
0.0
 32
0.0
 13
1.0
 23
0.0
 33
0.0
 40
0.0
 40
0.0
 40
0.0
 40
0.0
 40
1.0
 40
1.0
 40
1.0
 40
2.0
 40
2.0
 40
2.0
 40
3.0
 40
3.0
 40
3.0
 40
4.0
 40
4.0
 40
4.0
 40
4.0
 10
217.2949981689453
 20
194.7340087890625
 30
0.0
 10
217.2949981689453
 20
199.6199951171875
 30
0.0
 10
221.2509918212891
 20
203.5800170898438
 30
0.0
 10
226.1360015869141
 20
203.5800170898438
 30
0.0
 10
237.9920043945312
 20
203.5800170898438
 30
0.0
 10
237.9580078125
 20
183.9970092773438
 30
0.0
 10
226.1360015869141
 20
183.9970092773438
 30
0.0
 10
221.25
 20
183.9970092773438
 30
0.0
 10
217.2949981689453
 20
187.958984375
 30
0.0
 10
217.2949981689453
 20
192.8380126953125
 30
0.0
 10
217.2949981689453
 20
192.8380126953125
 30
0.0
 10
217.2949981689453
 20
194.7340087890625
 30
0.0
 10
217.2949981689453
 20
194.7340087890625
 30
0.0
  0
SPLINE
  5
77
330
1F
100
AcDbEntity
  8
_U+0421_U+043B_U+043E_U+0439 1
370
     0
100
AcDbSpline
210
0.0
220
0.0
230
1.0
 70
    11
 71
     3
 72
    17
 73
    13
 74
     0
 42
0.0000000001
 43
0.0000000001
 12
1.0
 22
0.0
 32
0.0
 13
1.0
 23
0.0
 33
0.0
 40
0.0
 40
0.0
 40
0.0
 40
0.0
 40
1.0
 40
1.0
 40
1.0
 40
2.0
 40
2.0
 40
2.0
 40
3.0
 40
3.0
 40
3.0
 40
4.0
 40
4.0
 40
4.0
 40
4.0
 10
211.7920074462891
 20
133.6900024414062
 30
0.0
 10
199.6320037841797
 20
133.6900024414062
 30
0.0
 10
190.1790008544922
 20
144.1749877929688
 30
0.0
 10
191.156005859375
 20
155.947021484375
 30
0.0
 10
190.1840057373047
 20
167.5750122070312
 30
0.0
 10
199.510009765625
 20
178.1990356445312
 30
0.0
 10
211.7920074462891
 20
178.1990356445312
 30
0.0
 10
224.0690002441406
 20
178.1990356445312
 30
0.0
 10
233.3930053710938
 20
167.5750122070312
 30
0.0
 10
232.4230041503906
 20
155.947021484375
 30
0.0
 10
233.4049987792969
 20
144.1380004882812
 30
0.0
 10
223.9149932861328
 20
133.6900024414062
 30
0.0
 10
211.7920074462891
 20
133.6900024414062
 30
0.0
  0
SPLINE
  5
78
330
1F
100
AcDbEntity
  8
_U+0421_U+043B_U+043E_U+0439 1
370
     0
100
AcDbSpline
210
0.0
220
0.0
230
1.0
 70
    11
 71
     3
 72
    11
 73
     7
 74
     0
 42
0.0000000001
 43
0.0000000001
 12
1.0
 22
0.0
 32
0.0
 13
1.0
 23
0.0
 33
0.0
 40
0.0
 40
0.0
 40
0.0
 40
0.0
 40
1.0
 40
1.0
 40
1.0
 40
2.0
 40
2.0
 40
2.0
 40
2.0
 10
242.1929931640625
 20
167.9409790039062
 30
0.0
 10
230.3369903564453
 20
167.9409790039062
 30
0.0
 10
230.3709869384766
 20
187.5189819335938
 30
0.0
 10
242.1929931640625
 20
187.5189819335938
 30
0.0
 10
254.031005859375
 20
187.5189819335938
 30
0.0
 10
254.031005859375
 20
167.9409790039062
 30
0.0
 10
242.1929931640625
 20
167.9409790039062
 30
0.0
  0
SPLINE
  5
79
330
1F
100
AcDbEntity
  8
_U+0421_U+043B_U+043E_U+0439 1
370
     0
100
AcDbSpline
210
0.0
220
0.0
230
1.0
 70
    11
 71
     3
 72
    17
 73
    13
 74
     0
 42
0.0000000001
 43
0.0000000001
 12
1.0
 22
0.0
 32
0.0
 13
1.0
 23
0.0
 33
0.0
 40
0.0
 40
0.0
 40
0.0
 40
0.0
 40
1.0
 40
1.0
 40
1.0
 40
2.0
 40
2.0
 40
2.0
 40
3.0
 40
3.0
 40
3.0
 40
4.0
 40
4.0
 40
4.0
 40
4.0
 10
267.0969848632812
 20
192.8380126953125
 30
0.0
 10
267.0969848632812
 20
187.958984375
 30
0.0
 10
263.1409912109375
 20
183.9970092773438
 30
0.0
 10
258.2559814453125
 20
183.9970092773438
 30
0.0
 10
246.4049835205078
 20
183.9970092773438
 30
0.0
 10
246.4299774169922
 20
203.5800170898438
 30
0.0
 10
258.2559814453125
 20
203.5800170898438
 30
0.0
 10
263.1419677734375
 20
203.5800170898438
 30
0.0
 10
267.0969848632812
 20
199.6180419921875
 30
0.0
 10
267.0969848632812
 20
194.7340087890625
 30
0.0
 10
267.0969848632812
 20
194.7340087890625
 30
0.0
 10
267.0969848632812
 20
192.843017578125
 30
0.0
 10
267.0969848632812
 20
192.8380126953125
 30
0.0
  0
HATCH
  5
7A
330
1F
100
AcDbEntity
  8
_U+0421_U+043B_U+043E_U+0439 1
 62
     7
420
 16777215
100
AcDbHatch
 10
0.0
 20
0.0
 30
0.0
210
0.0
220
0.0
230
1.0
  2
SOLID
 70
     1
 71
     0
 91
       55
 92
        1
 93
        1
 72
     4
 94
        3
 73
     0
 74
     1
 95
       35
 96
       31
 40
0.0
 40
0.0
 40
0.0
 40
0.0
 40
1.0
 40
1.0
 40
1.0
 40
2.0
 40
2.0
 40
2.0
 40
3.0
 40
3.0
 40
3.0
 40
4.0
 40
4.0
 40
4.0
 40
5.0
 40
5.0
 40
5.0
 40
6.0
 40
6.0
 40
6.0
 40
7.0
 40
7.0
 40
7.0
 40
8.0
 40
8.0
 40
8.0
 40
9.0
 40
9.0
 40
9.0
 40
10.0
 40
10.0
 40
10.0
 40
10.0
 10
116.7350006103516
 20
416.7319946289062
 10
116.7350006103516
 20
425.8489990234375
 10
119.1029968261719
 20
432.9989929199219
 10
128.2409973144531
 20
432.9989929199219
 10
135.5399932861328
 20
432.9989929199219
 10
138.5740051269531
 20
424.10400390625
 10
134.9309997558594
 20
426.3349914550781
 10
133.8110046386719
 20
427.0189819335938
 10
132.947998046875
 20
430.9969787597656
 10
128.2409973144531
 20
430.9969787597656
 10
117.254997253418
 20
430.9969787597656
 10
120.0399932861328
 20
398.031982421875
 10
128.2409973144531
 20
398.031982421875
 10
133.4609985351562
 20
398.031982421875
 10
133.9179992675781
 20
407.0879821777344
 10
133.9179992675781
 20
412.2979736328125
 10
130.5410003662109
 20
412.2979736328125
 10
127.5820007324219
 20
411.9999694824219
 10
127.5820007324219
 20
413.386962890625
 10
127.5820007324219
 20
414.2259521484375
 10
128.8099975585938
 20
414.501953125
 10
129.6860046386719
 20
414.501953125
 10
135.5240020751953
 20
414.4089660644531
 10
137.0360107421875
 20
414.9529418945312
 10
137.0360107421875
 20
411.9939575195312
 10
137.0360107421875
 20
406.6899719238281
 10
136.2250061035156
 20
402.7029418945312
 10
134.6030120849609
 20
400.0349731445312
 10
129.35400390625
 20
391.3980102539062
 10
116.7350006103516
 20
396.489990234375
 10
116.7350006103516
 20
416.7319946289062
 97
        0
 97
        0
 92
        1
 93
        1
 72
     4
 94
        3
 73
     0
 74
     1
 95
       26
 96
       22
 40
0.0
 40
0.0
 40
0.0
 40
0.0
 40
1.0
 40
1.0
 40
1.0
 40
2.0
 40
2.0
 40
2.0
 40
3.0
 40
3.0
 40
3.0
 40
4.0
 40
4.0
 40
4.0
 40
5.0
 40
5.0
 40
5.0
 40
6.0
 40
6.0
 40
6.0
 40
7.0
 40
7.0
 40
7.0
 40
7.0
 10
160.927001953125
 20
396.5379943847656
 10
159.2360076904297
 20
396.5379943847656
 10
159.8549957275391
 20
399.8679809570312
 10
159.7100067138672
 20
407.81298828125
 10
154.2080078125
 20
409.1349792480469
 10
147.9610137939453
 20
409.0639953613281
 10
142.7550048828125
 20
407.81298828125
 10
142.7920074462891
 20
401.1699829101562
 10
143.8870086669922
 20
396.5379943847656
 10
142.4260101318359
 20
396.5379943847656
 10
140.9450073242188
 20
396.5379943847656
 10
140.7370147705078
 20
402.0759887695312
 10
140.6010131835938
 20
403.9869995117188
 10
139.8090057373047
 20
415.1990051269531
 10
140.4800109863281
 20
432.9739990234375
 10
151.7270202636719
 20
432.9739990234375
 10
157.9960174560547
 20
432.9739990234375
 10
161.0660247802734
 20
429.1940002441406
 10
162.4100189208984
 20
422.9150085449219
 10
164.3560028076172
 20
413.8160095214844
 10
163.4519958496094
 20
396.5379943847656
 10
160.927001953125
 20
396.5379943847656
 97
        0
 97
        0
 92
        1
 93
        1
 72
     4
 94
        3
 73
     0
 74
     1
 95
       14
 96
       10
 40
0.0
 40
0.0
 40
0.0
 40
0.0
 40
1.0
 40
1.0
 40
1.0
 40
2.0
 40
2.0
 40
2.0
 40
3.0
 40
3.0
 40
3.0
 40
3.0
 10
142.781005859375
 20
410.0429992675781
 10
148.4140014648438
 20
411.3510131835938
 10
154.0180053710938
 20
411.3619995117188
 10
159.635009765625
 20
410.0679931640625
 10
159.2750091552734
 20
415.8639831542969
 10
158.7830047607422
 20
430.7949829101562
 10
151.8290100097656
 20
430.7949829101562
 10
144.1809997558594
 20
430.7950134277344
 10
142.9019927978516
 20
417.6910095214844
 10
142.781005859375
 20
410.0429992675781
 97
        0
 97
        0
 92
        1
 93
        1
 72
     4
 94
        3
 73
     0
 74
     1
 95
       47
 96
       43
 40
0.0
 40
0.0
 40
0.0
 40
0.0
 40
1.0
 40
1.0
 40
1.0
 40
2.0
 40
2.0
 40
2.0
 40
3.0
 40
3.0
 40
3.0
 40
4.0
 40
4.0
 40
4.0
 40
5.0
 40
5.0
 40
5.0
 40
6.0
 40
6.0
 40
6.0
 40
7.0
 40
7.0
 40
7.0
 40
8.0
 40
8.0
 40
8.0
 40
9.0
 40
9.0
 40
9.0
 40
10.0
 40
10.0
 40
10.0
 40
11.0
 40
11.0
 40
11.0
 40
12.0
 40
12.0
 40
12.0
 40
13.0
 40
13.0
 40
13.0
 40
14.0
 40
14.0
 40
14.0
 40
14.0
 10
192.5910034179688
 20
398.7170104980469
 10
192.5910034179688
 20
407.0950012207031
 10
192.2369995117188
 20
415.7530212402344
 10
191.5270080566406
 20
424.6890258789062
 10
188.927001953125
 20
417.4960327148438
 10
185.0820007324219
 20
410.4990234375
 10
183.2140045166016
 20
407.6110229492188
 10
181.2220001220703
 20
404.56201171875
 10
179.8379974365234
 20
407.3250122070312
 10
176.7000122070312
 20
413.3370361328125
 10
174.7070159912109
 20
417.1890258789062
 10
173.0420074462891
 20
420.9720458984375
 10
171.7080078125
 20
424.6890258789062
 10
170.9810028076172
 20
415.7530212402344
 10
170.6180114746094
 20
407.0960388183594
 10
170.6180114746094
 20
398.717041015625
 10
170.6180114746094
 20
396.0180358886719
 10
168.1330108642578
 20
395.5200500488281
 10
167.8550109863281
 20
398.9960327148438
 10
167.2530059814453
 20
406.5990295410156
 10
166.8450164794922
 20
421.2890319824219
 10
167.5260162353516
 20
429.6300354003906
 10
167.8280181884766
 20
433.1240234375
 10
171.2810211181641
 20
434.7200317382812
 10
172.3410186767578
 20
430.4410400390625
 10
174.3800201416016
 20
422.280029296875
 10
179.2470245361328
 20
412.9930419921875
 10
181.5910186767578
 20
409.1570434570312
 10
182.4360198974609
 20
410.5760498046875
 10
183.4490203857422
 20
412.4260559082031
 10
184.6320190429688
 20
414.7060546875
 10
192.0050048828125
 20
428.8999938964844
 10
190.2319946289062
 20
433.0
 10
192.9459991455078
 20
433.0
 10
196.4490051269531
 20
433.0
 10
196.2929992675781
 20
427.52099609375
 10
195.9250030517578
 20
409.8919982910156
 10
195.8990020751953
 20
408.6700134277344
 10
195.6630096435547
 20
398.3150024414062
 10
194.8350067138672
 20
397.1340026855469
 10
193.9669952392578
 20
395.8999938964844
 10
192.5910034179688
 20
396.6659851074219
 10
192.5910034179688
 20
398.7170104980469
 97
        0
 97
        0
 92
        1
 93
        1
 72
     4
 94
        3
 73
     0
 74
     1
 95
       44
 96
       40
 40
0.0
 40
0.0
 40
0.0
 40
0.0
 40
1.0
 40
1.0
 40
1.0
 40
2.0
 40
2.0
 40
2.0
 40
3.0
 40
3.0
 40
3.0
 40
4.0
 40
4.0
 40
4.0
 40
5.0
 40
5.0
 40
5.0
 40
6.0
 40
6.0
 40
6.0
 40
7.0
 40
7.0
 40
7.0
 40
8.0
 40
8.0
 40
8.0
 40
9.0
 40
9.0
 40
9.0
 40
10.0
 40
10.0
 40
10.0
 40
11.0
 40
11.0
 40
11.0
 40
12.0
 40
12.0
 40
12.0
 40
13.0
 40
13.0
 40
13.0
 40
13.0
 10
201.8300018310547
 20
396.5379943847656
 10
200.8789978027344
 20
396.5379943847656
 10
200.4700012207031
 20
397.9389953613281
 10
200.3860015869141
 20
398.9700012207031
 10
199.7920074462891
 20
406.5830078125
 10
199.3719940185547
 20
420.906005859375
 10
200.0570068359375
 20
429.1990051269531
 10
200.2580108642578
 20
431.4580078125
 10
201.5980072021484
 20
432.4930114746094
 10
202.7929992675781
 20
432.4930114746094
 10
214.9510040283203
 20
432.4930114746094
 10
217.8730010986328
 20
431.7770080566406
 10
217.8730010986328
 20
430.2880249023438
 10
217.8730010986328
 20
428.8900146484375
 10
216.2330017089844
 20
430.0180358886719
 10
204.7200012207031
 20
430.2120361328125
 10
204.3650054931641
 20
426.3770446777344
 10
204.0769958496094
 20
422.821044921875
 10
203.8580017089844
 20
419.5450439453125
 10
212.1999969482422
 20
419.5450439453125
 10
213.6390075683594
 20
419.7630310058594
 10
214.4900054931641
 20
419.2030334472656
 10
215.5230102539062
 20
418.5220336914062
 10
215.0240020751953
 20
417.3410339355469
 10
212.8550109863281
 20
417.3410339355469
 10
212.8550109863281
 20
417.3410339355469
 10
203.7070159912109
 20
417.3410339355469
 10
203.7070159912109
 20
417.3410339355469
 10
203.0970153808594
 20
407.4870300292969
 10
203.1490173339844
 20
402.5640258789062
 10
203.1490173339844
 20
398.7680358886719
 10
212.791015625
 20
398.8770446777344
 10
216.6310119628906
 20
399.5030212402344
 10
216.6310119628906
 20
399.5030212402344
 10
218.1230163574219
 20
399.5030212402344
 10
218.1670074462891
 20
398.5130310058594
 10
217.3660125732422
 20
397.8310241699219
 10
216.3179931640625
 20
396.968994140625
 10
211.1399993896484
 20
396.5379943847656
 10
201.8300018310547
 20
396.5379943847656
 97
        0
 97
        0
 92
        1
 93
        1
 72
     4
 94
        3
 73
     0
 74
     1
 95
       35
 96
       31
 40
0.0
 40
0.0
 40
0.0
 40
0.0
 40
1.0
 40
1.0
 40
1.0
 40
2.0
 40
2.0
 40
2.0
 40
3.0
 40
3.0
 40
3.0
 40
4.0
 40
4.0
 40
4.0
 40
5.0
 40
5.0
 40
5.0
 40
6.0
 40
6.0
 40
6.0
 40
7.0
 40
7.0
 40
7.0
 40
8.0
 40
8.0
 40
8.0
 40
9.0
 40
9.0
 40
9.0
 40
10.0
 40
10.0
 40
10.0
 40
10.0
 10
220.9880065917969
 20
429.1990051269531
 10
221.2740020751953
 20
433.0530090332031
 10
225.0220031738281
 20
433.4190063476562
 10
225.5500030517578
 20
430.8710021972656
 10
230.4900054931641
 20
434.0390014648438
 10
242.2770080566406
 20
434.7539978027344
 10
242.2770080566406
 20
425.4230041503906
 10
242.2770080566406
 20
419.739990234375
 10
237.2720031738281
 20
412.5719909667969
 10
229.0990142822266
 20
409.864990234375
 10
231.0260162353516
 20
405.0169982910156
 10
234.718017578125
 20
397.0399780273438
 10
238.6400146484375
 20
400.4519958496094
 10
239.2900085449219
 20
401.0180053710938
 10
239.8690185546875
 20
401.9259948730469
 10
240.3760070800781
 20
403.1759948730469
 10
240.8670043945312
 20
404.3389892578125
 10
242.2760009765625
 20
403.7919921875
 10
242.2760009765625
 20
402.9230041503906
 10
242.2760009765625
 20
399.9869995117188
 10
234.1119995117188
 20
390.0400085449219
 10
226.1580047607422
 20
409.1310119628906
 10
225.5330047607422
 20
409.0130004882812
 10
224.8910064697266
 20
408.9200134277344
 10
224.2320098876953
 20
408.8520202636719
 10
223.8490142822266
 20
398.7880249023438
 10
224.3740081787109
 20
398.0950317382812
 10
223.6490173339844
 20
397.0950317382812
 10
219.6260070800781
 20
391.5700073242188
 10
220.5500030517578
 20
422.4719848632812
 10
220.9880065917969
 20
429.1990051269531
 97
        0
 97
        0
 92
        1
 93
        1
 72
     4
 94
        3
 73
     0
 74
     1
 95
       14
 96
       10
 40
0.0
 40
0.0
 40
0.0
 40
0.0
 40
1.0
 40
1.0
 40
1.0
 40
2.0
 40
2.0
 40
2.0
 40
3.0
 40
3.0
 40
3.0
 40
3.0
 10
224.3079986572266
 20
410.8789978027344
 10
236.3029937744141
 20
412.3940124511719
 10
241.1809997558594
 20
425.4199829101562
 10
236.0159912109375
 20
429.6799926757812
 10
233.5059967041016
 20
431.7559814453125
 10
228.2269897460938
 20
430.6829833984375
 10
225.447998046875
 20
428.2359924316406
 10
224.9080047607422
 20
421.7149963378906
 10
224.5269927978516
 20
415.9299926757812
 10
224.3079986572266
 20
410.8789978027344
 97
        0
 97
        0
 92
        1
 93
        1
 72
     4
 94
        3
 73
     0
 74
     1
 95
       26
 96
       22
 40
0.0
 40
0.0
 40
0.0
 40
0.0
 40
1.0
 40
1.0
 40
1.0
 40
2.0
 40
2.0
 40
2.0
 40
3.0
 40
3.0
 40
3.0
 40
4.0
 40
4.0
 40
4.0
 40
5.0
 40
5.0
 40
5.0
 40
6.0
 40
6.0
 40
6.0
 40
7.0
 40
7.0
 40
7.0
 40
7.0
 10
175.5090026855469
 20
341.3060302734375
 10
175.5090026855469
 20
346.0860595703125
 10
175.5
 20
348.9330444335938
 10
175.4840087890625
 20
349.8450317382812
 10
169.9820098876953
 20
351.1670532226562
 10
163.7350158691406
 20
351.0960083007812
 10
158.5290069580078
 20
349.8450317382812
 10
158.5630035400391
 20
343.6430053710938
 10
159.6320037841797
 20
338.5700073242188
 10
158.2000122070312
 20
338.5700073242188
 10
157.9290161132812
 20
338.5700073242188
 10
157.6550140380859
 20
338.8270263671875
 10
157.3770141601562
 20
339.3419799804688
 10
156.2250213623047
 20
341.4660034179688
 10
152.2960205078125
 20
375.0059814453125
 10
167.5010070800781
 20
375.0059814453125
 10
177.7830047607422
 20
375.0059814453125
 10
179.2350006103516
 20
364.2319946289062
 10
179.2350006103516
 20
353.0379943847656
 10
179.2350006103516
 20
335.9010009765625
 10
175.5090026855469
 20
336.8099975585938
 10
175.5090026855469
 20
341.3060302734375
 97
        0
 97
        0
 92
        1
 93
        1
 72
     4
 94
        3
 73
     0
 74
     1
 95
       14
 96
       10
 40
0.0
 40
0.0
 40
0.0
 40
0.0
 40
1.0
 40
1.0
 40
1.0
 40
2.0
 40
2.0
 40
2.0
 40
3.0
 40
3.0
 40
3.0
 40
3.0
 10
158.5540008544922
 20
352.0740051269531
 10
164.1869964599609
 20
353.3820190429688
 10
169.7910003662109
 20
353.3930053710938
 10
175.4080047607422
 20
352.0989990234375
 10
175.0480041503906
 20
357.8949890136719
 10
174.5559997558594
 20
372.8259887695312
 10
167.6020050048828
 20
372.8259887695312
 10
159.9550018310547
 20
372.8259887695312
 10
158.6759948730469
 20
359.7219848632812
 10
158.5540008544922
 20
352.0740051269531
 97
        0
 97
        0
 92
        1
 93
        1
 72
     4
 94
        3
 73
     0
 74
     1
 95
       29
 96
       25
 40
0.0
 40
0.0
 40
0.0
 40
0.0
 40
1.0
 40
1.0
 40
1.0
 40
2.0
 40
2.0
 40
2.0
 40
3.0
 40
3.0
 40
3.0
 40
4.0
 40
4.0
 40
4.0
 40
5.0
 40
5.0
 40
5.0
 40
6.0
 40
6.0
 40
6.0
 40
7.0
 40
7.0
 40
7.0
 40
8.0
 40
8.0
 40
8.0
 40
8.0
 10
191.7129974365234
 20
341.0009765625
 10
190.4140014648438
 20
356.5559692382812
 10
191.2659912109375
 20
371.2179870605469
 10
191.5619964599609
 20
372.2179870605469
 10
189.2129974365234
 20
372.1499938964844
 10
187.0249938964844
 20
371.9559936523438
 10
184.9980010986328
 20
371.6349792480469
 10
181.9369964599609
 20
371.1509704589844
 10
182.4440002441406
 20
373.3899841308594
 10
184.8470001220703
 20
373.7889709472656
 10
192.6329956054688
 20
375.1649780273438
 10
203.1219940185547
 20
374.386962890625
 10
204.5760040283203
 20
373.2189636230469
 10
205.5760040283203
 20
372.4119567871094
 10
205.2279968261719
 20
371.2799682617188
 10
202.9920043945312
 20
371.6349487304688
 10
200.8460083007812
 20
371.9729614257812
 10
198.5230102539062
 20
372.1759338378906
 10
196.0220031738281
 20
372.2429504394531
 10
194.4230041503906
 20
353.4319458007812
 10
194.4759979248047
 20
345.6769409179688
 10
194.4759979248047
 20
340.721923828125
 10
194.4759979248047
 20
338.0819702148438
 10
191.9969940185547
 20
337.52197265625
 10
191.7129974365234
 20
341.0009765625
 97
        0
 97
        0
 92
        1
 93
        1
 72
     4
 94
        3
 73
     0
 74
     1
 95
       44
 96
       40
 40
0.0
 40
0.0
 40
0.0
 40
0.0
 40
1.0
 40
1.0
 40
1.0
 40
2.0
 40
2.0
 40
2.0
 40
3.0
 40
3.0
 40
3.0
 40
4.0
 40
4.0
 40
4.0
 40
5.0
 40
5.0
 40
5.0
 40
6.0
 40
6.0
 40
6.0
 40
7.0
 40
7.0
 40
7.0
 40
8.0
 40
8.0
 40
8.0
 40
9.0
 40
9.0
 40
9.0
 40
10.0
 40
10.0
 40
10.0
 40
11.0
 40
11.0
 40
11.0
 40
12.0
 40
12.0
 40
12.0
 40
13.0
 40
13.0
 40
13.0
 40
13.0
 10
142.10400390625
 20
300.5919799804688
 10
141.3470001220703
 20
296.251953125
 10
139.3440093994141
 20
285.5059814453125
 10
137.5169982910156
 20
281.4869995117188
 10
137.2460021972656
 20
280.89599609375
 10
136.8320007324219
 20
280.5999755859375
 10
136.2749938964844
 20
280.5999755859375
 10
129.4809875488281
 20
280.5999755859375
 10
126.973991394043
 20
305.4149780273438
 10
126.973991394043
 20
312.2979736328125
 10
126.973991394043
 20
318.60498046875
 10
131.5099945068359
 20
317.7879638671875
 10
131.5099945068359
 20
314.6289672851562
 10
131.5099945068359
 20
304.2379760742188
 10
131.375
 20
293.3349609375
 10
136.3759918212891
 20
284.6539916992188
 10
138.5049896240234
 20
291.5239868164062
 10
141.2919921875
 20
308.7149658203125
 10
141.2919921875
 20
315.31298828125
 10
141.2919921875
 20
316.4609985351562
 10
142.0189971923828
 20
317.0360107421875
 10
143.4719848632812
 20
317.0360107421875
 10
144.6809844970703
 20
317.0360107421875
 10
145.6769866943359
 20
316.2630004882812
 10
145.6769866943359
 20
314.6290283203125
 10
145.6769866943359
 20
304.3130493164062
 10
145.5159912109375
 20
293.4869995117188
 10
150.4919891357422
 20
284.7050170898438
 10
153.0809936523438
 20
294.2080078125
 10
155.3269958496094
 20
309.7430419921875
 10
155.5099945068359
 20
315.31298828125
 10
155.5859985351562
 20
317.1270141601562
 10
158.0439910888672
 20
316.9110107421875
 10
158.0439910888672
 20
315.1099853515625
 10
157.9499969482422
 20
308.6669921875
 10
154.2039947509766
 20
286.7059936523438
 10
151.5809936523438
 20
281.2579956054688
 10
150.6889953613281
 20
279.4650268554688
 10
144.7570037841797
 20
279.6099853515625
 10
142.10400390625
 20
300.5919799804688
 97
        0
 97
        0
 92
        1
 93
        1
 72
     4
 94
        3
 73
     0
 74
     1
 95
       14
 96
       10
 40
0.0
 40
0.0
 40
0.0
 40
0.0
 40
1.0
 40
1.0
 40
1.0
 40
2.0
 40
2.0
 40
2.0
 40
3.0
 40
3.0
 40
3.0
 40
3.0
 10
172.3549957275391
 20
280.093994140625
 10
160.1279907226562
 20
280.093994140625
 10
157.0429992675781
 20
308.7319946289062
 10
165.6900024414062
 20
315.1749877929688
 10
168.5720062255859
 20
317.3219604492188
 10
176.3300018310547
 20
319.14697265625
 10
180.1620025634766
 20
312.1729736328125
 10
185.8650054931641
 20
301.6530151367188
 10
180.927001953125
 20
280.093994140625
 10
172.3549957275391
 20
280.093994140625
 97
        0
 97
        0
 92
        1
 93
        1
 72
     4
 94
        3
 73
     0
 74
     1
 95
       11
 96
        7
 40
0.0
 40
0.0
 40
0.0
 40
0.0
 40
1.0
 40
1.0
 40
1.0
 40
2.0
 40
2.0
 40
2.0
 40
2.0
 10
172.3549957275391
 20
282.094970703125
 10
180.9169921875
 20
282.094970703125
 10
185.0240020751953
 20
315.0599975585938
 10
172.3549957275391
 20
315.0599975585938
 10
161.4250030517578
 20
315.0599975585938
 10
164.1049957275391
 20
282.094970703125
 10
172.3549957275391
 20
282.094970703125
 97
        0
 97
        0
 92
        1
 93
        1
 72
     4
 94
        3
 73
     0
 74
     1
 95
       35
 96
       31
 40
0.0
 40
0.0
 40
0.0
 40
0.0
 40
1.0
 40
1.0
 40
1.0
 40
2.0
 40
2.0
 40
2.0
 40
3.0
 40
3.0
 40
3.0
 40
4.0
 40
4.0
 40
4.0
 40
5.0
 40
5.0
 40
5.0
 40
6.0
 40
6.0
 40
6.0
 40
7.0
 40
7.0
 40
7.0
 40
8.0
 40
8.0
 40
8.0
 40
9.0
 40
9.0
 40
9.0
 40
10.0
 40
10.0
 40
10.0
 40
10.0
 10
189.1889953613281
 20
281.1959838867188
 10
188.1299896240234
 20
282.6599731445312
 10
186.7549896240234
 20
313.3109741210938
 10
189.3159942626953
 20
315.7569580078125
 10
190.7569885253906
 20
317.1299438476562
 10
192.5559997558594
 20
316.64794921875
 10
192.9160003662109
 20
314.9339599609375
 10
197.9380035400391
 20
318.157958984375
 10
209.6430053710938
 20
318.741943359375
 10
209.6430053710938
 20
309.4859619140625
 10
209.6430053710938
 20
303.7269897460938
 10
204.4990081787109
 20
296.5889892578125
 10
196.4640045166016
 20
293.927978515625
 10
201.6690063476562
 20
280.8359985351562
 10
205.7340087890625
 20
282.2949829101562
 10
207.7420043945312
 20
287.2389526367188
 10
208.2990112304688
 20
288.5569458007812
 10
210.0460052490234
 20
287.6969604492188
 10
209.5410003662109
 20
286.554931640625
 10
206.6900024414062
 20
279.8199462890625
 10
199.6119995117188
 20
278.5879516601562
 10
193.5229949951172
 20
293.1939086914062
 10
192.8979949951172
 20
293.075927734375
 10
192.2559967041016
 20
292.98291015625
 10
191.5970001220703
 20
292.9149169921875
 10
191.2140045166016
 20
282.8489379882812
 10
191.7420043945312
 20
282.1578979492188
 10
191.0140075683594
 20
281.1578979492188
 10
190.5059967041016
 20
280.458984375
 10
189.8000030517578
 20
280.3510131835938
 10
189.1889953613281
 20
281.1959838867188
 97
        0
 97
        0
 92
        1
 93
        1
 72
     4
 94
        3
 73
     0
 74
     1
 95
       14
 96
       10
 40
0.0
 40
0.0
 40
0.0
 40
0.0
 40
1.0
 40
1.0
 40
1.0
 40
2.0
 40
2.0
 40
2.0
 40
3.0
 40
3.0
 40
3.0
 40
3.0
 10
191.6730041503906
 20
294.9420166015625
 10
199.4710083007812
 20
295.927001953125
 10
205.4089965820312
 20
302.3740234375
 10
205.4089965820312
 20
308.8779907226562
 10
205.4089965820312
 20
316.6610107421875
 10
196.6940002441406
 20
315.718994140625
 10
192.8130035400391
 20
312.2979736328125
 10
192.2729949951172
 20
305.7780151367188
 10
191.8919982910156
 20
299.9920043945312
 10
191.6730041503906
 20
294.9420166015625
 97
        0
 97
        0
 92
        1
 93
        1
 72
     4
 94
        3
 73
     0
 74
     1
 95
       38
 96
       34
 40
0.0
 40
0.0
 40
0.0
 40
0.0
 40
1.0
 40
1.0
 40
1.0
 40
2.0
 40
2.0
 40
2.0
 40
3.0
 40
3.0
 40
3.0
 40
4.0
 40
4.0
 40
4.0
 40
5.0
 40
5.0
 40
5.0
 40
6.0
 40
6.0
 40
6.0
 40
7.0
 40
7.0
 40
7.0
 40
8.0
 40
8.0
 40
8.0
 40
9.0
 40
9.0
 40
9.0
 40
10.0
 40
10.0
 40
10.0
 40
11.0
 40
11.0
 40
11.0
 40
11.0
 10
215.4620056152344
 20
283.0579833984375
 10
215.0060119628906
 20
289.02099609375
 10
214.7779998779297
 20
296.3349609375
 10
214.7779998779297
 20
305.0009765625
 10
214.7779998779297
 20
311.06298828125
 10
214.4810028076172
 20
317.0619506835938
 10
217.8699951171875
 20
317.0619506835938
 10
220.7209930419922
 20
317.0619506835938
 10
219.5739898681641
 20
313.6219482421875
 10
218.8580017089844
 20
302.2899780273438
 10
219.5650024414062
 20
303.2899780273438
 10
228.7050018310547
 20
316.5549926757812
 10
232.3659973144531
 20
316.5549926757812
 10
233.8040008544922
 20
316.5549926757812
 10
233.6100006103516
 20
315.2069702148438
 10
232.2639923095703
 20
314.2999877929688
 10
229.2049865722656
 20
312.2559814453125
 10
225.3359985351562
 20
307.864013671875
 10
220.6569976806641
 20
301.1239624023438
 10
223.6139984130859
 20
284.594970703125
 10
229.0820007324219
 20
279.35498046875
 10
232.4169921875
 20
287.2129516601562
 10
232.9869995117188
 20
288.6149291992188
 10
234.6539916992188
 20
287.6439819335938
 10
234.1649932861328
 20
286.553955078125
 10
230.9199981689453
 20
278.7169799804688
 10
222.7919921875
 20
279.2439575195312
 10
218.5029907226562
 20
295.97998046875
 10
218.3679962158203
 20
292.85498046875
 10
218.2749938964844
 20
288.4549560546875
 10
218.2249908447266
 20
282.7789916992188
 10
218.2250061035156
 20
280.0960083007812
 10
215.7420043945312
 20
279.5499877929688
 10
215.4620056152344
 20
283.0579833984375
 97
        0
 97
        0
 92
        1
 93
        1
 72
     4
 94
        3
 73
     0
 74
     1
 95
       20
 96
       16
 40
0.0
 40
0.0
 40
0.0
 40
0.0
 40
1.0
 40
1.0
 40
1.0
 40
2.0
 40
2.0
 40
2.0
 40
3.0
 40
3.0
 40
3.0
 40
4.0
 40
4.0
 40
4.0
 40
5.0
 40
5.0
 40
5.0
 40
5.0
 10
84.9540023803711
 20
536.0889892578125
 10
84.08700561523438
 20
538.052978515625
 10
83.11900329589844
 20
561.2509765625
 10
83.83399963378906
 20
567.43798828125
 10
84.48899841308594
 20
573.1409912109375
 10
88.50799560546875
 20
575.4599914550781
 10
92.40299987792969
 20
573.2959899902344
 10
122.1880035400391
 20
579.4059753417969
 10
125.8460006713867
 20
537.0879821777344
 10
92.49400329589844
 20
533.031982421875
 10
90.99700164794922
 20
532.8939819335938
 10
91.57500457763672
 20
532.6379699707031
 10
90.04199981689453
 20
532.6379699707031
 10
87.48999786376953
 20
532.6380004882812
 10
85.73100280761719
 20
533.9840087890625
 10
84.9540023803711
 20
536.0889892578125
 97
        0
 97
        0
 92
        1
 93
        1
 72
     4
 94
        3
 73
     0
 74
     1
 95
       11
 96
        7
 40
0.0
 40
0.0
 40
0.0
 40
0.0
 40
1.0
 40
1.0
 40
1.0
 40
2.0
 40
2.0
 40
2.0
 40
2.0
 10
95.64299774169922
 20
565.6969909667969
 10
95.64299774169922
 20
553.3779907226562
 10
95.70399475097656
 20
554.1589965820312
 10
94.91600036621094
 20
541.2959899902344
 10
107.8529968261719
 20
550.4460144042969
 10
112.0120010375977
 20
565.6969909667969
 10
95.64299774169922
 20
565.6969909667969
 97
        0
 97
        0
 92
        1
 93
        1
 72
     4
 94
        3
 73
     0
 74
     1
 95
       17
 96
       13
 40
0.0
 40
0.0
 40
0.0
 40
0.0
 40
1.0
 40
1.0
 40
1.0
 40
2.0
 40
2.0
 40
2.0
 40
3.0
 40
3.0
 40
3.0
 40
4.0
 40
4.0
 40
4.0
 40
4.0
 10
123.4469985961914
 20
567.3770141601562
 10
127.3190002441406
 20
573.5550231933594
 10
132.1959991455078
 20
574.7550048828125
 10
135.1499938964844
 20
573.6280212402344
 10
136.1499938964844
 20
573.1700134277344
 10
136.6959991455078
 20
573.4770202636719
 10
138.4209899902344
 20
573.4770202636719
 10
153.7899932861328
 20
573.4770202636719
 10
158.6939849853516
 20
544.3680114746094
 10
142.5689849853516
 20
534.5450134277344
 10
126.3310012817383
 20
525.6010131835938
 10
113.2639999389648
 20
551.1229858398438
 10
123.4469985961914
 20
567.3770141601562
 97
        0
 97
        0
 92
        1
 93
        1
 72
     4
 94
        3
 73
     0
 74
     1
 95
       26
 96
       22
 40
0.0
 40
0.0
 40
0.0
 40
0.0
 40
1.0
 40
1.0
 40
1.0
 40
2.0
 40
2.0
 40
2.0
 40
3.0
 40
3.0
 40
3.0
 40
4.0
 40
4.0
 40
4.0
 40
5.0
 40
5.0
 40
5.0
 40
6.0
 40
6.0
 40
6.0
 40
7.0
 40
7.0
 40
7.0
 40
7.0
 10
146.4450073242188
 20
550.43798828125
 10
146.6400146484375
 20
551.3369750976562
 10
146.7360076904297
 20
556.3450012207031
 10
146.2630004882812
 20
558.4299926757812
 10
145.4010009765625
 20
562.3289794921875
 10
144.6269989013672
 20
563.2489929199219
 10
143.0830078125
 20
564.7729797363281
 10
142.2960052490234
 20
565.5489807128906
 10
141.6300048828125
 20
566.1089782714844
 10
141.0850067138672
 20
566.4529724121094
 10
139.9780120849609
 20
567.1099853515625
 10
138.6410064697266
 20
567.3909606933594
 10
138.3590087890625
 20
567.3459777832031
 10
138.1820068359375
 20
567.3149719238281
 10
138.0260162353516
 20
566.8639831542969
 10
137.9650115966797
 20
566.6949768066406
 10
136.7250061035156
 20
563.6609802246094
 10
131.8790130615234
 20
559.6499633789062
 10
131.8790130615234
 20
551.4669799804688
 10
131.8800048828125
 20
539.1419982910156
 10
142.6869964599609
 20
534.8940124511719
 10
146.4450073242188
 20
550.43798828125
 97
        0
 97
        0
 92
        1
 93
        1
 72
     4
 94
        3
 73
     0
 74
     1
 95
       50
 96
       46
 40
0.0
 40
0.0
 40
0.0
 40
0.0
 40
1.0
 40
1.0
 40
1.0
 40
2.0
 40
2.0
 40
2.0
 40
3.0
 40
3.0
 40
3.0
 40
4.0
 40
4.0
 40
4.0
 40
5.0
 40
5.0
 40
5.0
 40
6.0
 40
6.0
 40
6.0
 40
7.0
 40
7.0
 40
7.0
 40
8.0
 40
8.0
 40
8.0
 40
9.0
 40
9.0
 40
9.0
 40
10.0
 40
10.0
 40
10.0
 40
11.0
 40
11.0
 40
11.0
 40
12.0
 40
12.0
 40
12.0
 40
13.0
 40
13.0
 40
13.0
 40
14.0
 40
14.0
 40
14.0
 40
15.0
 40
15.0
 40
15.0
 40
15.0
 10
174.4170074462891
 20
532.697998046875
 10
173.3250122070312
 20
533.7860107421875
 10
173.4840087890625
 20
532.3160095214844
 10
171.6320037841797
 20
557.5220031738281
 10
170.5610046386719
 20
571.5
 10
172.5980072021484
 20
570.1860046386719
 10
175.3560028076172
 20
572.0540161132812
 10
175.9990081787109
 20
572.3750305175781
 10
177.0079956054688
 20
572.6290283203125
 10
177.7490081787109
 20
572.6290283203125
 10
184.2720031738281
 20
572.6290283203125
 10
193.8520050048828
 20
555.5130310058594
 10
197.3700103759766
 20
551.4980163574219
 10
197.8860168457031
 20
550.9100036621094
 10
197.6470031738281
 20
551.1320190429688
 10
197.4460144042969
 20
555.8420104980469
 10
196.9120178222656
 20
568.1540222167969
 10
196.3260192871094
 20
575.2330017089844
 10
202.1240081787109
 20
575.2330017089844
 10
203.9870147705078
 20
575.2330017089844
 10
205.8480072021484
 20
573.875
 10
206.4240112304688
 20
571.0249938964844
 10
206.9810180664062
 20
567.1229858398438
 10
205.31201171875
 20
536.64599609375
 10
205.1220092773438
 20
536.3309936523438
 10
204.2510070800781
 20
534.5270080566406
 10
202.4310150146484
 20
534.0910034179688
 10
200.4290161132812
 20
534.0910034179688
 10
196.8520202636719
 20
534.0910034179688
 10
197.3200225830078
 20
534.8590087890625
 10
182.4730224609375
 20
553.1780090332031
 10
182.4000244140625
 20
553.2680053710938
 10
181.4840240478516
 20
554.4949951171875
 10
181.3830261230469
 20
554.4949951171875
 10
181.3370208740234
 20
554.447998046875
 10
181.0800323486328
 20
534.6069946289062
 10
180.8990325927734
 20
534.2420043945312
 10
180.2350311279297
 20
532.2510070800781
 10
178.4770355224609
 20
531.5169982910156
 10
177.4770355224609
 20
531.5169982910156
 10
177.2350311279297
 20
531.5169982910156
 10
177.0730285644531
 20
531.5169982910156
 10
176.9930419921875
 20
531.5169982910156
 10
175.9640045166016
 20
531.5180053710938
 10
175.0399932861328
 20
532.0199890136719
 10
174.4170074462891
 20
532.697998046875
 97
        0
 97
        0
 92
        1
 93
        1
 72
     4
 94
        3
 73
     0
 74
     1
 95
       17
 96
       13
 40
0.0
 40
0.0
 40
0.0
 40
0.0
 40
1.0
 40
1.0
 40
1.0
 40
2.0
 40
2.0
 40
2.0
 40
3.0
 40
3.0
 40
3.0
 40
4.0
 40
4.0
 40
4.0
 40
4.0
 10
221.6909942626953
 20
534.0299987792969
 10
207.8619995117188
 20
541.0270080566406
 10
207.8789978027344
 20
566.35400390625
 10
220.4799957275391
 20
573.0530090332031
 10
224.1929931640625
 20
574.8800048828125
 10
225.9589996337891
 20
573.6190185546875
 10
226.9589996337891
 20
573.4309997558594
 10
228.7790069580078
 20
573.0910034179688
 10
237.3849945068359
 20
575.9169921875
 10
242.5229949951172
 20
562.1229858398438
 10
248.3789978027344
 20
544.4209899902344
 10
233.9290008544922
 20
527.7080078125
 10
221.6909942626953
 20
534.0299987792969
 97
        0
 97
        0
 92
        1
 93
        1
 72
     4
 94
        3
 73
     0
 74
     1
 95
       17
 96
       13
 40
0.0
 40
0.0
 40
0.0
 40
0.0
 40
1.0
 40
1.0
 40
1.0
 40
2.0
 40
2.0
 40
2.0
 40
3.0
 40
3.0
 40
3.0
 40
4.0
 40
4.0
 40
4.0
 40
4.0
 10
236.0130004882812
 20
562.7900085449219
 10
233.6820068359375
 20
566.4949951171875
 10
229.7469940185547
 20
567.7360229492188
 10
229.4120025634766
 20
567.1800231933594
 10
228.8099975585938
 20
566.1800231933594
 10
229.4010009765625
 20
566.4650268554688
 10
227.1410064697266
 20
563.3050231933594
 10
220.7070007324219
 20
554.5730285644531
 10
222.6210021972656
 20
542.8310241699219
 10
228.625
 20
540.5390319824219
 10
234.9299926757812
 20
538.2070007324219
 10
241.2929992675781
 20
553.5580139160156
 10
236.0130004882812
 20
562.7900085449219
 97
        0
 97
        0
 92
        1
 93
        1
 72
     4
 94
        3
 73
     0
 74
     1
 95
       44
 96
       40
 40
0.0
 40
0.0
 40
0.0
 40
0.0
 40
1.0
 40
1.0
 40
1.0
 40
2.0
 40
2.0
 40
2.0
 40
3.0
 40
3.0
 40
3.0
 40
4.0
 40
4.0
 40
4.0
 40
5.0
 40
5.0
 40
5.0
 40
6.0
 40
6.0
 40
6.0
 40
7.0
 40
7.0
 40
7.0
 40
8.0
 40
8.0
 40
8.0
 40
9.0
 40
9.0
 40
9.0
 40
10.0
 40
10.0
 40
10.0
 40
11.0
 40
11.0
 40
11.0
 40
12.0
 40
12.0
 40
12.0
 40
13.0
 40
13.0
 40
13.0
 40
13.0
 10
256.3840026855469
 20
536.239990234375
 10
255.8789978027344
 20
537.8099975585938
 10
254.4380035400391
 20
563.9199829101562
 10
255.0670013427734
 20
567.6340026855469
 10
255.0670013427734
 20
567.6340026855469
 10
255.0970001220703
 20
567.6950073242188
 10
255.0970001220703
 20
567.6950073242188
 10
255.0970001220703
 20
567.6950073242188
 10
255.0670013427734
 20
567.7250061035156
 10
255.0670013427734
 20
567.7250061035156
 10
255.0670013427734
 20
567.9440002441406
 10
251.5919952392578
 20
568.02099609375
 10
251.3730010986328
 20
568.0280151367188
 10
248.0019989013672
 20
568.1220092773438
 10
246.6800079345703
 20
568.0880126953125
 10
245.8320007324219
 20
569.0880126953125
 10
244.4900054931641
 20
570.7090148925781
 10
245.0590057373047
 20
572.6520080566406
 10
247.1029968261719
 20
573.2660217285156
 10
248.5169982910156
 20
573.6010131835938
 10
270.81298828125
 20
574.2300109863281
 10
274.1130065917969
 20
573.5990295410156
 10
275.5469970703125
 20
573.2760314941406
 10
276.3940124511719
 20
572.51904296875
 10
276.6570129394531
 20
571.3280334472656
 10
277.1330261230469
 20
568.9240417480469
 10
274.7460021972656
 20
567.7020263671875
 10
273.1900024414062
 20
567.5440368652344
 10
271.6210021972656
 20
567.3850402832031
 10
266.9980163574219
 20
567.6350402832031
 10
266.9980163574219
 20
567.6350402832031
 10
266.9980163574219
 20
567.6140441894531
 10
267.0030212402344
 20
567.4580383300781
 10
267.0130310058594
 20
567.1660461425781
 10
267.4430236816406
 20
554.2620544433594
 10
266.1490173339844
 20
537.6650390625
 10
265.9380187988281
 20
536.6650390625
 10
264.9700012207031
 20
532.0280151367188
 10
257.927001953125
 20
531.3670043945312
 10
256.3840026855469
 20
536.239990234375
 97
        0
 97
        0
 92
        1
 93
        1
 72
     4
 94
        3
 73
     0
 74
     1
 95
       20
 96
       16
 40
0.0
 40
0.0
 40
0.0
 40
0.0
 40
1.0
 40
1.0
 40
1.0
 40
2.0
 40
2.0
 40
2.0
 40
3.0
 40
3.0
 40
3.0
 40
4.0
 40
4.0
 40
4.0
 40
5.0
 40
5.0
 40
5.0
 40
5.0
 10
72.11900329589844
 20
471.3940124511719
 10
71.23200225830078
 20
473.4049987792969
 10
70.30000305175781
 20
496.6960144042969
 10
70.9990005493164
 20
502.7430114746094
 10
71.65399932861328
 20
508.4450073242188
 10
75.67300415039062
 20
510.7650146484375
 10
79.56800079345703
 20
508.6010131835938
 10
103.4570007324219
 20
513.5010070800781
 10
112.0250015258789
 20
486.0920104980469
 10
92.89099884033203
 20
473.0590209960938
 10
86.97999572753906
 20
469.2050170898438
 10
78.56199645996094
 20
467.9430236816406
 10
77.20600128173828
 20
467.9430236816406
 10
74.65499877929688
 20
467.9429931640625
 10
72.89600372314453
 20
469.2890014648438
 10
72.11900329589844
 20
471.3940124511719
 97
        0
 97
        0
 92
        1
 93
        1
 72
     4
 94
        3
 73
     0
 74
     1
 95
       14
 96
       10
 40
0.0
 40
0.0
 40
0.0
 40
0.0
 40
1.0
 40
1.0
 40
1.0
 40
2.0
 40
2.0
 40
2.0
 40
3.0
 40
3.0
 40
3.0
 40
3.0
 10
90.0
 20
484.39599609375
 10
96.20999908447266
 20
493.6430053710938
 10
94.35299682617188
 20
501.0010070800781
 10
82.80899810791016
 20
501.0010070800781
 10
82.80899810791016
 20
487.7749938964844
 10
82.78299713134766
 20
488.0440063476562
 10
82.08200073242188
 20
476.6000061035156
 10
84.33699798583984
 20
478.1960144042969
 10
86.89700317382812
 20
479.7780151367188
 10
90.0
 20
484.39599609375
 97
        0
 97
        0
 92
        1
 93
        1
 72
     4
 94
        3
 73
     0
 74
     1
 95
       23
 96
       19
 40
0.0
 40
0.0
 40
0.0
 40
0.0
 40
1.0
 40
1.0
 40
1.0
 40
2.0
 40
2.0
 40
2.0
 40
3.0
 40
3.0
 40
3.0
 40
4.0
 40
4.0
 40
4.0
 40
5.0
 40
5.0
 40
5.0
 40
6.0
 40
6.0
 40
6.0
 40
6.0
 10
108.7959976196289
 20
476.6310119628906
 10
108.5270004272461
 20
476.7660217285156
 10
107.2739944458008
 20
502.0260009765625
 10
108.0690002441406
 20
504.60400390625
 10
110.0100021362305
 20
511.2890014648438
 10
117.5749969482422
 20
510.4830017089844
 10
119.0910034179688
 20
504.7860107421875
 10
119.3730010986328
 20
503.7570190429688
 10
119.515007019043
 20
501.9100036621094
 10
119.515007019043
 20
499.2450256347656
 10
119.515007019043
 20
496.5590209960938
 10
118.4070053100586
 20
472.1540222167969
 10
118.1370086669922
 20
471.2420349121094
 10
117.6420059204102
 20
469.5810241699219
 10
115.8610076904297
 20
468.0630493164062
 10
113.640007019043
 20
468.0630493164062
 10
108.2900009155273
 20
468.0639953613281
 10
108.7959976196289
 20
473.6090087890625
 10
108.7959976196289
 20
476.6310119628906
 97
        0
 97
        0
 92
        1
 93
        1
 72
     4
 94
        3
 73
     0
 74
     1
 95
       41
 96
       37
 40
0.0
 40
0.0
 40
0.0
 40
0.0
 40
1.0
 40
1.0
 40
1.0
 40
2.0
 40
2.0
 40
2.0
 40
3.0
 40
3.0
 40
3.0
 40
4.0
 40
4.0
 40
4.0
 40
5.0
 40
5.0
 40
5.0
 40
6.0
 40
6.0
 40
6.0
 40
7.0
 40
7.0
 40
7.0
 40
8.0
 40
8.0
 40
8.0
 40
9.0
 40
9.0
 40
9.0
 40
10.0
 40
10.0
 40
10.0
 40
11.0
 40
11.0
 40
11.0
 40
12.0
 40
12.0
 40
12.0
 40
12.0
 10
129.6419982910156
 20
471.6669921875
 10
127.0810012817383
 20
473.927978515625
 10
128.9429931640625
 20
475.6309814453125
 10
130.0359954833984
 20
475.9960021972656
 10
133.5739898681641
 20
476.8280029296875
 10
134.9519958496094
 20
472.4429931640625
 10
139.9980010986328
 20
474.0280151367188
 10
145.7200012207031
 20
475.697021484375
 10
150.7369995117188
 20
482.625
 10
138.4539947509766
 20
483.2010192871094
 10
120.3219909667969
 20
483.6580200195312
 10
117.650993347168
 20
499.8800048828125
 10
130.9749908447266
 20
506.7540283203125
 10
142.4419860839844
 20
512.666015625
 10
154.0179901123047
 20
507.5560302734375
 10
154.0179901123047
 20
497.1270141601562
 10
153.9709930419922
 20
492.468017578125
 10
148.9299926757812
 20
492.8489990234375
 10
148.0979919433594
 20
495.1590270996094
 10
147.7379913330078
 20
496.1590270996094
 10
148.1539916992188
 20
499.5010375976562
 10
145.8269958496094
 20
500.5940246582031
 10
143.7890014648438
 20
501.5480346679688
 10
142.2989959716797
 20
501.8240356445312
 10
140.0279998779297
 20
500.4270324707031
 10
138.7149963378906
 20
499.51904296875
 10
137.8119964599609
 20
498.5700378417969
 10
137.3179931640625
 20
497.5810241699219
 10
133.8889923095703
 20
490.7320251464844
 10
143.0089874267578
 20
493.3230285644531
 10
150.5349884033203
 20
489.4980163574219
 10
153.0179901123047
 20
488.2470092773438
 10
154.5879821777344
 20
486.8940124511719
 10
155.2439880371094
 20
485.4410095214844
 10
160.5839996337891
 20
473.5969848632812
 10
140.4290008544922
 20
461.968994140625
 10
129.6419982910156
 20
471.6669921875
 97
        0
 97
        0
 92
        1
 93
        1
 72
     4
 94
        3
 73
     0
 74
     1
 95
       41
 96
       37
 40
0.0
 40
0.0
 40
0.0
 40
0.0
 40
1.0
 40
1.0
 40
1.0
 40
2.0
 40
2.0
 40
2.0
 40
3.0
 40
3.0
 40
3.0
 40
4.0
 40
4.0
 40
4.0
 40
5.0
 40
5.0
 40
5.0
 40
6.0
 40
6.0
 40
6.0
 40
7.0
 40
7.0
 40
7.0
 40
8.0
 40
8.0
 40
8.0
 40
9.0
 40
9.0
 40
9.0
 40
10.0
 40
10.0
 40
10.0
 40
11.0
 40
11.0
 40
11.0
 40
12.0
 40
12.0
 40
12.0
 40
12.0
 10
165.9440002441406
 20
472.4989929199219
 10
165.3480072021484
 20
477.3559875488281
 10
164.1900024414062
 20
499.2859802246094
 10
164.8079986572266
 20
502.9389953613281
 10
164.8079986572266
 20
502.9389953613281
 10
164.8379974365234
 20
503.0
 10
164.8379974365234
 20
503.0
 10
164.8379974365234
 20
503.0
 10
164.8079986572266
 20
503.0299987792969
 10
164.8079986572266
 20
503.0299987792969
 10
164.8079986572266
 20
503.2109985351562
 10
162.8699951171875
 20
503.2630004882812
 10
162.6889953613281
 20
503.2720031738281
 10
160.81298828125
 20
503.3580017089844
 10
157.3759918212891
 20
503.3330078125
 10
156.3759918212891
 20
503.7870178222656
 10
154.6229858398438
 20
504.5730285644531
 10
153.9189910888672
 20
507.6920166015625
 10
156.8449859619141
 20
508.5700073242188
 10
158.2589874267578
 20
508.9049987792969
 10
180.5549926757812
 20
509.5339965820312
 10
183.85498046875
 20
508.9030151367188
 10
187.6329803466797
 20
508.051025390625
 10
187.802978515625
 20
502.7570190429688
 10
181.3119812011719
 20
502.7570190429688
 10
181.2339782714844
 20
502.7570190429688
 10
176.7919769287109
 20
502.9910278320312
 10
176.7399749755859
 20
502.9390258789062
 10
176.7399749755859
 20
502.9180297851562
 10
176.7449798583984
 20
502.7620239257812
 10
176.7549743652344
 20
502.4700317382812
 10
177.1879730224609
 20
489.4920349121094
 10
176.0829772949219
 20
472.4370422363281
 10
175.3469696044922
 20
470.9700317382812
 10
173.3289947509766
 20
466.7669982910156
 10
166.5679931640625
 20
467.3070068359375
 10
165.9440002441406
 20
472.4989929199219
 97
        0
 97
        0
 92
        1
 93
        1
 72
     4
 94
        3
 73
     0
 74
     1
 95
       32
 96
       28
 40
0.0
 40
0.0
 40
0.0
 40
0.0
 40
1.0
 40
1.0
 40
1.0
 40
2.0
 40
2.0
 40
2.0
 40
3.0
 40
3.0
 40
3.0
 40
4.0
 40
4.0
 40
4.0
 40
5.0
 40
5.0
 40
5.0
 40
6.0
 40
6.0
 40
6.0
 40
7.0
 40
7.0
 40
7.0
 40
8.0
 40
8.0
 40
8.0
 40
9.0
 40
9.0
 40
9.0
 40
9.0
 10
191.9620056152344
 20
475.6019897460938
 10
189.3890075683594
 20
480.4239807128906
 10
188.9350128173828
 20
487.1229858398438
 10
188.9350128173828
 20
492.2519836425781
 10
188.9350128173828
 20
499.1709899902344
 10
188.5330200195312
 20
508.2069702148438
 10
194.8390197753906
 20
508.2069702148438
 10
197.8740234375
 20
508.2069702148438
 10
200.9020233154297
 20
505.344970703125
 10
200.8190155029297
 20
500.2149658203125
 10
200.6080169677734
 20
488.3159790039062
 10
199.6780090332031
 20
475.0129699707031
 10
205.4970092773438
 20
475.7539672851562
 10
217.052001953125
 20
477.1129760742188
 10
210.5530090332031
 20
504.8629760742188
 10
212.1890106201172
 20
508.0109558105469
 10
212.5530090332031
 20
508.7149658203125
 10
213.6000061035156
 20
509.4489440917969
 10
214.5810089111328
 20
509.4489440917969
 10
218.7980041503906
 20
509.4489440917969
 10
217.8670043945312
 20
499.3729553222656
 10
218.427001953125
 20
495.6439514160156
 10
219.5370025634766
 20
476.6239624023438
 10
214.2720031738281
 20
471.9349365234375
 10
206.6780090332031
 20
468.73095703125
 10
200.5509948730469
 20
466.1340026855469
 10
195.1419982910156
 20
470.0199890136719
 10
191.9620056152344
 20
475.6019897460938
 97
        0
 97
        0
 92
        1
 93
        1
 72
     4
 94
        3
 73
     0
 74
     1
 95
       41
 96
       37
 40
0.0
 40
0.0
 40
0.0
 40
0.0
 40
1.0
 40
1.0
 40
1.0
 40
2.0
 40
2.0
 40
2.0
 40
3.0
 40
3.0
 40
3.0
 40
4.0
 40
4.0
 40
4.0
 40
5.0
 40
5.0
 40
5.0
 40
6.0
 40
6.0
 40
6.0
 40
7.0
 40
7.0
 40
7.0
 40
8.0
 40
8.0
 40
8.0
 40
9.0
 40
9.0
 40
9.0
 40
10.0
 40
10.0
 40
10.0
 40
11.0
 40
11.0
 40
11.0
 40
12.0
 40
12.0
 40
12.0
 40
12.0
 10
223.7610015869141
 20
469.6380004882812
 10
222.8240051269531
 20
471.2980041503906
 10
221.4900054931641
 20
499.0759887695312
 10
222.5800018310547
 20
503.2720031738281
 10
223.1650085449219
 20
505.3500061035156
 10
224.2350006103516
 20
506.8139953613281
 10
225.7900085449219
 20
507.6620178222656
 10
240.3110046386719
 20
514.9230041503906
 10
261.6690063476562
 20
507.3870239257812
 10
253.4960021972656
 20
491.041015625
 10
250.6430053710938
 20
485.4800109863281
 10
243.6860046386719
 20
481.9020080566406
 10
242.6860046386719
 20
481.2320251464844
 10
242.6240081787109
 20
481.2020263671875
 10
242.5790100097656
 20
481.155029296875
 10
242.7010040283203
 20
481.0350341796875
 10
242.7120056152344
 20
481.0250244140625
 10
250.5970001220703
 20
476.6060485839844
 10
251.43701171875
 20
476.0550231933594
 10
255.0970153808594
 20
473.7680358886719
 10
253.7590179443359
 20
469.9290161132812
 10
250.43701171875
 20
469.7880249023438
 10
247.9630126953125
 20
469.7880249023438
 10
238.8800048828125
 20
474.0310363769531
 10
235.1610107421875
 20
475.5250244140625
 10
233.9800109863281
 20
475.9990234375
 10
233.3400115966797
 20
476.2360229492188
 10
233.239013671875
 20
476.2360229492188
 10
233.1580200195312
 20
476.155029296875
 10
232.7580108642578
 20
471.6630249023438
 10
232.739013671875
 20
471.5280151367188
 10
232.2990112304688
 20
468.4530029296875
 10
230.4020080566406
 20
467.0320129394531
 10
227.9090118408203
 20
467.0320129394531
 10
226.3600006103516
 20
467.0350036621094
 10
224.6860046386719
 20
467.8930053710938
 10
223.7610015869141
 20
469.6380004882812
 97
        0
 97
        0
 92
        1
 93
        1
 72
     4
 94
        3
 73
     0
 74
     1
 95
       17
 96
       13
 40
0.0
 40
0.0
 40
0.0
 40
0.0
 40
1.0
 40
1.0
 40
1.0
 40
2.0
 40
2.0
 40
2.0
 40
3.0
 40
3.0
 40
3.0
 40
4.0
 40
4.0
 40
4.0
 40
4.0
 10
241.7769927978516
 20
490.6780090332031
 10
244.2909851074219
 20
492.5240173339844
 10
248.1619873046875
 20
496.47900390625
 10
247.8789978027344
 20
499.7149963378906
 10
247.7939910888672
 20
500.6740112304688
 10
241.4169921875
 20
503.6849975585938
 10
233.9049987792969
 20
502.1820068359375
 10
233.9049987792969
 20
488.7640075683594
 10
233.8600006103516
 20
489.0220031738281
 10
233.6929931640625
 20
486.1369934082031
 10
236.2200012207031
 20
487.2950134277344
 10
239.6020050048828
 20
488.9519958496094
 10
241.7769927978516
 20
490.6780090332031
 97
        0
 97
        0
 92
        1
 93
        1
 72
     4
 94
        3
 73
     0
 74
     1
 95
       26
 96
       22
 40
0.0
 40
0.0
 40
0.0
 40
0.0
 40
1.0
 40
1.0
 40
1.0
 40
2.0
 40
2.0
 40
2.0
 40
3.0
 40
3.0
 40
3.0
 40
4.0
 40
4.0
 40
4.0
 40
5.0
 40
5.0
 40
5.0
 40
6.0
 40
6.0
 40
6.0
 40
7.0
 40
7.0
 40
7.0
 40
7.0
 10
263.8450012207031
 20
467.4739990234375
 10
262.4760131835938
 20
467.8030090332031
 10
261.1549987792969
 20
469.093994140625
 10
260.6199951171875
 20
470.2139892578125
 10
260.1579895019531
 20
471.2139892578125
 10
260.083984375
 20
471.8599853515625
 10
259.8630065917969
 20
475.3599853515625
 10
257.6470031738281
 20
510.1259765625
 10
258.739013671875
 20
508.2139892578125
 10
266.7659912109375
 20
509.9329833984375
 10
281.3309936523438
 20
513.1309814453125
 10
290.0849914550781
 20
504.6029968261719
 10
280.60400390625
 20
492.3739929199219
 10
292.2369995117188
 20
489.468994140625
 10
291.2590026855469
 20
476.1990051269531
 10
279.3630065917969
 20
470.1529846191406
 10
275.7669982910156
 20
468.2669982910156
 10
272.8380126953125
 20
467.1259765625
 10
268.7050170898438
 20
467.1259765625
 10
266.8949890136719
 20
467.125
 10
264.1489868164062
 20
467.3999938964844
 10
263.8450012207031
 20
467.4739990234375
 97
        0
 97
        0
 92
        1
 93
        1
 72
     4
 94
        3
 73
     0
 74
     1
 95
       14
 96
       10
 40
0.0
 40
0.0
 40
0.0
 40
0.0
 40
1.0
 40
1.0
 40
1.0
 40
2.0
 40
2.0
 40
2.0
 40
3.0
 40
3.0
 40
3.0
 40
3.0
 10
279.6059875488281
 20
481.02099609375
 10
283.7169799804688
 20
487.7689819335938
 10
272.2330017089844
 20
484.1090087890625
 10
270.8249816894531
 20
484.1090087890625
 10
270.1549682617188
 20
484.1090087890625
 10
270.3709716796875
 20
480.7690124511719
 10
270.3709716796875
 20
474.8150024414062
 10
275.4739990234375
 20
476.6709899902344
 10
278.2619934082031
 20
479.0490112304688
 10
279.6059875488281
 20
481.02099609375
 97
        0
 97
        0
 92
        1
 93
        1
 72
     4
 94
        3
 73
     0
 74
     1
 95
       17
 96
       13
 40
0.0
 40
0.0
 40
0.0
 40
0.0
 40
1.0
 40
1.0
 40
1.0
 40
2.0
 40
2.0
 40
2.0
 40
3.0
 40
3.0
 40
3.0
 40
4.0
 40
4.0
 40
4.0
 40
4.0
 10
274.656005859375
 20
496.2640075683594
 10
280.3179931640625
 20
502.6119995117188
 10
276.8049926757812
 20
505.0390014648438
 10
270.4620056152344
 20
503.5760192871094
 10
270.4620056152344
 20
502.5760192871094
 10
270.5260009765625
 20
498.8710327148438
 10
270.7340087890625
 20
492.8280334472656
 10
270.7550048828125
 20
492.8280334472656
 10
270.8760070800781
 20
492.9040222167969
 10
271.0970153808594
 20
493.0550231933594
 10
272.0969848632812
 20
493.7349853515625
 10
273.0950012207031
 20
494.5159912109375
 10
274.656005859375
 20
496.2640075683594
 97
        0
 97
        0
 92
        1
 93
        1
 72
     4
 94
        3
 73
     0
 74
     1
 95
       17
 96
       13
 40
0.0
 40
0.0
 40
0.0
 40
0.0
 40
1.0
 40
1.0
 40
1.0
 40
2.0
 40
2.0
 40
2.0
 40
3.0
 40
3.0
 40
3.0
 40
4.0
 40
4.0
 40
4.0
 40
4.0
 10
226.1360015869141
 20
187.698974609375
 10
230.0189971923828
 20
187.698974609375
 10
233.1739959716797
 20
190.8569946289062
 10
233.1739959716797
 20
194.7359619140625
 10
233.1739959716797
 20
198.6309814453125
 10
230.0049896240234
 20
201.77294921875
 10
226.1360015869141
 20
201.77294921875
 10
222.2799987792969
 20
201.77294921875
 10
219.0989990234375
 20
198.637939453125
 10
219.0989990234375
 20
194.7359619140625
 10
219.0980072021484
 20
190.8569946289062
 10
222.2559967041016
 20
187.698974609375
 10
226.1360015869141
 20
187.698974609375
 97
        0
 97
        0
 92
        1
 93
        1
 72
     4
 94
        3
 73
     0
 74
     1
 95
       11
 96
        7
 40
0.0
 40
0.0
 40
0.0
 40
0.0
 40
1.0
 40
1.0
 40
1.0
 40
2.0
 40
2.0
 40
2.0
 40
2.0
 10
131.3919982910156
 20
149.4929809570312
 10
132.9909973144531
 20
144.0369873046875
 10
137.3489990234375
 20
139.751953125
 10
142.8470001220703
 20
138.2550048828125
 10
143.5399932861328
 20
144.8070068359375
 10
137.9409942626953
 20
150.3049926757812
 10
131.3919982910156
 20
149.4929809570312
 97
        0
 97
        0
 92
        1
 93
        1
 72
     4
 94
        3
 73
     0
 74
     1
 95
       17
 96
       13
 40
0.0
 40
0.0
 40
0.0
 40
0.0
 40
1.0
 40
1.0
 40
1.0
 40
2.0
 40
2.0
 40
2.0
 40
3.0
 40
3.0
 40
3.0
 40
4.0
 40
4.0
 40
4.0
 40
4.0
 10
242.1940002441406
 20
203.7589721679688
 10
246.0769958496094
 20
203.7589721679688
 10
249.2310028076172
 20
206.9169921875
 10
249.2310028076172
 20
210.7959594726562
 10
249.2310028076172
 20
214.6909790039062
 10
246.0619964599609
 20
217.8329467773438
 10
242.1940002441406
 20
217.8329467773438
 10
238.3379974365234
 20
217.8329467773438
 10
235.156005859375
 20
214.6979370117188
 10
235.156005859375
 20
210.7959594726562
 10
235.1580047607422
 20
206.9169921875
 10
238.3139953613281
 20
203.7589721679688
 10
242.1940002441406
 20
203.7589721679688
 97
        0
 97
        0
 92
        1
 93
        1
 72
     4
 94
        3
 73
     0
 74
     1
 95
       11
 96
        7
 40
0.0
 40
0.0
 40
0.0
 40
0.0
 40
1.0
 40
1.0
 40
1.0
 40
2.0
 40
2.0
 40
2.0
 40
2.0
 10
151.4680023193359
 20
138.2550048828125
 10
156.9660034179688
 20
139.7520141601562
 10
161.3240051269531
 20
144.0369873046875
 10
162.9250030517578
 20
149.4929809570312
 10
156.3860015869141
 20
150.302978515625
 10
150.7769927978516
 20
144.8150024414062
 10
151.4680023193359
 20
138.2550048828125
 97
        0
 97
        0
 92
        1
 93
        1
 72
     4
 94
        3
 73
     0
 74
     1
 95
       11
 96
        7
 40
0.0
 40
0.0
 40
0.0
 40
0.0
 40
1.0
 40
1.0
 40
1.0
 40
2.0
 40
2.0
 40
2.0
 40
2.0
 10
131.3919982910156
 20
158.7219848632812
 10
137.9329986572266
 20
157.9099731445312
 10
143.5399932861328
 20
163.3989868164062
 10
142.8489990234375
 20
169.9599609375
 10
137.3489990234375
 20
168.4639892578125
 10
132.9909973144531
 20
164.177978515625
 10
131.3919982910156
 20
158.7219848632812
 97
        0
 97
        0
 92
        1
 93
        1
 72
     4
 94
        3
 73
     0
 74
     1
 95
       11
 96
        7
 40
0.0
 40
0.0
 40
0.0
 40
0.0
 40
1.0
 40
1.0
 40
1.0
 40
2.0
 40
2.0
 40
2.0
 40
2.0
 10
151.4680023193359
 20
169.9600219726562
 10
150.7750091552734
 20
163.3910522460938
 10
156.3919982910156
 20
157.9110107421875
 10
162.9250030517578
 20
158.7220458984375
 10
161.3240051269531
 20
164.177978515625
 10
156.9660034179688
 20
168.4639892578125
 10
151.4680023193359
 20
169.9600219726562
 97
        0
 97
        0
 92
        1
 93
        1
 72
     4
 94
        3
 73
     0
 74
     1
 95
       14
 96
       10
 40
0.0
 40
0.0
 40
0.0
 40
0.0
 40
1.0
 40
1.0
 40
1.0
 40
2.0
 40
2.0
 40
2.0
 40
3.0
 40
3.0
 40
3.0
 40
3.0
 10
108.9749984741211
 20
210.114013671875
 10
91.66799926757812
 20
202.218017578125
 10
97.26699829101562
 20
176.1060180664062
 10
116.3629989624023
 20
176.1060180664062
 10
126.193000793457
 20
176.1060180664062
 10
134.1669921875
 20
184.0750122070312
 10
134.1669921875
 20
193.9100341796875
 10
134.1649932861328
 20
206.8729858398438
 10
120.734001159668
 20
215.4660034179688
 10
108.9749984741211
 20
210.114013671875
 97
        0
 97
        0
 92
        1
 93
        1
 72
     4
 94
        3
 73
     0
 74
     1
 95
       17
 96
       13
 40
0.0
 40
0.0
 40
0.0
 40
0.0
 40
1.0
 40
1.0
 40
1.0
 40
2.0
 40
2.0
 40
2.0
 40
3.0
 40
3.0
 40
3.0
 40
4.0
 40
4.0
 40
4.0
 40
4.0
 10
116.3619995117188
 20
180.4349975585938
 10
108.9219970703125
 20
180.4349975585938
 10
102.8889999389648
 20
186.468017578125
 10
102.8889999389648
 20
193.9080200195312
 10
102.8889999389648
 20
201.3500366210938
 10
108.9219970703125
 20
207.3810424804688
 10
116.3619995117188
 20
207.3810424804688
 10
123.8040008544922
 20
207.3810424804688
 10
129.8349914550781
 20
201.3480224609375
 10
129.8349914550781
 20
193.9080200195312
 10
129.8350067138672
 20
186.468017578125
 10
123.802001953125
 20
180.4349975585938
 10
116.3619995117188
 20
180.4349975585938
 97
        0
 97
        0
 92
        1
 93
        1
 72
     4
 94
        3
 73
     0
 74
     1
 95
       17
 96
       13
 40
0.0
 40
0.0
 40
0.0
 40
0.0
 40
1.0
 40
1.0
 40
1.0
 40
2.0
 40
2.0
 40
2.0
 40
3.0
 40
3.0
 40
3.0
 40
4.0
 40
4.0
 40
4.0
 40
4.0
 10
242.1940002441406
 20
185.7139892578125
 10
238.3379974365234
 20
185.7139892578125
 10
235.156005859375
 20
182.5789794921875
 10
235.156005859375
 20
178.677001953125
 10
235.156005859375
 20
174.7969970703125
 10
238.3140106201172
 20
171.6400146484375
 10
242.1940002441406
 20
171.6400146484375
 10
246.0769958496094
 20
171.6400146484375
 10
249.2310028076172
 20
174.7980346679688
 10
249.2310028076172
 20
178.677001953125
 10
249.2330017089844
 20
182.572998046875
 10
246.0639953613281
 20
185.7139892578125
 10
242.1940002441406
 20
185.7139892578125
 97
        0
 97
        0
 92
        1
 93
        1
 72
     4
 94
        3
 73
     0
 74
     1
 95
       14
 96
       10
 40
0.0
 40
0.0
 40
0.0
 40
0.0
 40
1.0
 40
1.0
 40
1.0
 40
2.0
 40
2.0
 40
2.0
 40
3.0
 40
3.0
 40
3.0
 40
3.0
 10
204.4040069580078
 20
173.7130126953125
 10
187.0960083007812
 20
165.8190307617188
 10
192.6960144042969
 20
139.7050170898438
 10
211.7920074462891
 20
139.7050170898438
 10
221.6220092773438
 20
139.7050170898438
 10
229.5960083007812
 20
147.6740112304688
 10
229.5960083007812
 20
157.509033203125
 10
229.593994140625
 20
170.4199829101562
 10
216.2169952392578
 20
179.0889892578125
 10
204.4040069580078
 20
173.7130126953125
 97
        0
 97
        0
 92
        1
 93
        1
 72
     4
 94
        3
 73
     0
 74
     1
 95
       17
 96
       13
 40
0.0
 40
0.0
 40
0.0
 40
0.0
 40
1.0
 40
1.0
 40
1.0
 40
2.0
 40
2.0
 40
2.0
 40
3.0
 40
3.0
 40
3.0
 40
4.0
 40
4.0
 40
4.0
 40
4.0
 10
211.7899932861328
 20
144.0349731445312
 10
204.3499908447266
 20
144.0349731445312
 10
198.3169860839844
 20
150.0679931640625
 10
198.3169860839844
 20
157.5079956054688
 10
198.3169860839844
 20
164.9500122070312
 10
204.3499908447266
 20
170.9810180664062
 10
211.7899780273438
 20
170.9810180664062
 10
219.2319793701172
 20
170.9810180664062
 10
225.2629699707031
 20
164.947998046875
 10
225.2629699707031
 20
157.5079956054688
 10
225.2629699707031
 20
150.0679931640625
 10
219.2310028076172
 20
144.0349731445312
 10
211.7899932861328
 20
144.0349731445312
 97
        0
 97
        0
 92
        1
 93
        1
 72
     4
 94
        3
 73
     0
 74
     1
 95
       17
 96
       13
 40
0.0
 40
0.0
 40
0.0
 40
0.0
 40
1.0
 40
1.0
 40
1.0
 40
2.0
 40
2.0
 40
2.0
 40
3.0
 40
3.0
 40
3.0
 40
4.0
 40
4.0
 40
4.0
 40
4.0
 10
258.2560119628906
 20
201.7739868164062
 10
254.4000091552734
 20
201.7739868164062
 10
251.218017578125
 20
198.6389770507812
 10
251.218017578125
 20
194.7369995117188
 10
251.218017578125
 20
190.8569946289062
 10
254.3760223388672
 20
187.7000122070312
 10
258.2560119628906
 20
187.7000122070312
 10
262.1390075683594
 20
187.7000122070312
 10
265.2929992675781
 20
190.8590087890625
 10
265.2929992675781
 20
194.7369995117188
 10
265.2940063476562
 20
198.6320190429688
 10
262.1239929199219
 20
201.7739868164062
 10
258.2560119628906
 20
201.7739868164062
 97
        0
 97
        0
 92
        1
 93
        1
 72
     4
 94
        3
 73
     0
 74
     1
 95
       47
 96
       43
 40
0.0
 40
0.0
 40
0.0
 40
0.0
 40
1.0
 40
1.0
 40
1.0
 40
2.0
 40
2.0
 40
2.0
 40
3.0
 40
3.0
 40
3.0
 40
4.0
 40
4.0
 40
4.0
 40
5.0
 40
5.0
 40
5.0
 40
6.0
 40
6.0
 40
6.0
 40
7.0
 40
7.0
 40
7.0
 40
8.0
 40
8.0
 40
8.0
 40
9.0
 40
9.0
 40
9.0
 40
10.0
 40
10.0
 40
10.0
 40
11.0
 40
11.0
 40
11.0
 40
12.0
 40
12.0
 40
12.0
 40
13.0
 40
13.0
 40
13.0
 40
14.0
 40
14.0
 40
14.0
 40
14.0
 10
116.7460021972656
 20
233.3049926757812
 10
110.1380004882812
 20
231.2869873046875
 10
91.75
 20
227.0
 10
82.76000213623047
 20
203.8759765625
 10
70.67400360107422
 20
173.6939697265625
 10
57.21700286865234
 20
138.260009765625
 10
57.52400207519531
 20
105.8889770507812
 10
57.23500061035156
 20
94.9320068359375
 10
57.53400039672852
 20
78.64996337890625
 10
68.63600158691406
 20
69.115966796875
 10
76.4260025024414
 20
62.44195556640625
 10
84.72900390625
 20
62.73297119140625
 10
90.73699951171875
 20
67.03399658203125
 10
97.46299743652344
 20
71.8389892578125
 10
98.3759994506836
 20
73.88397216796875
 10
119.125
 20
100.552978515625
 10
124.0039978027344
 20
106.7420043945312
 10
130.0599975585938
 20
109.1319580078125
 10
137.2649993896484
 20
109.9159545898438
 10
145.5419921875
 20
110.81396484375
 10
214.4599914550781
 20
110.81396484375
 10
222.7350006103516
 20
109.9159545898438
 10
229.9400024414062
 20
109.1319580078125
 10
235.9960021972656
 20
106.741943359375
 10
240.875
 20
100.552978515625
 10
261.6239929199219
 20
73.88397216796875
 10
262.5369873046875
 20
71.8389892578125
 10
269.2630004882812
 20
67.03399658203125
 10
275.2699890136719
 20
62.7340087890625
 10
283.5740051269531
 20
62.4429931640625
 10
291.364013671875
 20
69.115966796875
 10
302.4660034179688
 20
78.64996337890625
 10
302.7650146484375
 20
94.93194580078125
 10
302.4760131835938
 20
105.8889770507812
 10
302.7830200195312
 20
138.2680053710938
 10
289.3170166015625
 20
173.7160034179688
 10
277.2400207519531
 20
203.8759765625
 10
268.2500305175781
 20
227.0
 10
249.8620147705078
 20
231.2869873046875
 10
243.2540283203125
 20
233.3049926757812
 10
222.5440063476562
 20
239.6329956054688
 10
137.4629974365234
 20
239.635009765625
 10
116.7460021972656
 20
233.3049926757812
 97
        0
 97
        0
 92
        1
 93
        1
 72
     4
 94
        3
 73
     0
 74
     1
 95
       17
 96
       13
 40
0.0
 40
0.0
 40
0.0
 40
0.0
 40
1.0
 40
1.0
 40
1.0
 40
2.0
 40
2.0
 40
2.0
 40
3.0
 40
3.0
 40
3.0
 40
4.0
 40
4.0
 40
4.0
 40
4.0
 10
116.3600006103516
 20
170.0880126953125
 10
104.2050018310547
 20
170.0880126953125
 10
94.74700164794922
 20
180.572998046875
 10
95.72900390625
 20
192.3450317382812
 10
94.75200653076172
 20
203.97802734375
 10
104.0830078125
 20
214.60205078125
 10
116.3600006103516
 20
214.60205078125
 10
128.6369934082031
 20
214.60205078125
 10
137.9680023193359
 20
203.97802734375
 10
136.9909973144531
 20
192.3450317382812
 10
137.9779968261719
 20
180.541015625
 10
128.4819946289062
 20
170.0880126953125
 10
116.3600006103516
 20
170.0880126953125
 97
        0
 97
        0
 92
        1
 93
        1
 72
     4
 94
        3
 73
     0
 74
     1
 95
       17
 96
       13
 40
0.0
 40
0.0
 40
0.0
 40
0.0
 40
1.0
 40
1.0
 40
1.0
 40
2.0
 40
2.0
 40
2.0
 40
3.0
 40
3.0
 40
3.0
 40
4.0
 40
4.0
 40
4.0
 40
4.0
 10
147.1580047607422
 20
135.2210083007812
 10
136.7440032958984
 20
135.2210083007812
 10
128.2730102539062
 20
143.6920166015625
 10
128.2730102539062
 20
154.1060180664062
 10
128.2730102539062
 20
164.52001953125
 10
136.7440032958984
 20
172.9910278320312
 10
147.1580047607422
 20
172.9910278320312
 10
157.5720062255859
 20
172.9910278320312
 10
166.0429992675781
 20
164.52001953125
 10
166.0429992675781
 20
154.1060180664062
 10
166.0429992675781
 20
143.6920166015625
 10
157.572998046875
 20
135.2210083007812
 10
147.1580047607422
 20
135.2210083007812
 97
        0
 97
        0
 92
        1
 93
        1
 72
     4
 94
        3
 73
     0
 74
     1
 95
       11
 96
        7
 40
0.0
 40
0.0
 40
0.0
 40
0.0
 40
1.0
 40
1.0
 40
1.0
 40
2.0
 40
2.0
 40
2.0
 40
2.0
 10
242.1929931640625
 20
219.6370239257812
 10
254.0309906005859
 20
219.6370239257812
 10
254.0309906005859
 20
200.0590209960938
 10
242.1929931640625
 20
200.0590209960938
 10
230.3370056152344
 20
200.0590209960938
 10
230.3710021972656
 20
219.6370239257812
 10
242.1929931640625
 20
219.6370239257812
 97
        0
 97
        0
 92
        1
 93
        1
 72
     4
 94
        3
 73
     0
 74
     1
 95
       17
 96
       13
 40
0.0
 40
0.0
 40
0.0
 40
0.0
 40
1.0
 40
1.0
 40
1.0
 40
2.0
 40
2.0
 40
2.0
 40
3.0
 40
3.0
 40
3.0
 40
4.0
 40
4.0
 40
4.0
 40
4.0
 10
217.2949981689453
 20
194.7340087890625
 10
217.2949981689453
 20
199.6199951171875
 10
221.2509918212891
 20
203.5800170898438
 10
226.1360015869141
 20
203.5800170898438
 10
237.9920043945312
 20
203.5800170898438
 10
237.9580078125
 20
183.9970092773438
 10
226.1360015869141
 20
183.9970092773438
 10
221.25
 20
183.9970092773438
 10
217.2949981689453
 20
187.958984375
 10
217.2949981689453
 20
192.8380126953125
 10
217.2949981689453
 20
192.8380126953125
 10
217.2949981689453
 20
194.7340087890625
 10
217.2949981689453
 20
194.7340087890625
 97
        0
 97
        0
 92
        1
 93
        1
 72
     4
 94
        3
 73
     0
 74
     1
 95
       17
 96
       13
 40
0.0
 40
0.0
 40
0.0
 40
0.0
 40
1.0
 40
1.0
 40
1.0
 40
2.0
 40
2.0
 40
2.0
 40
3.0
 40
3.0
 40
3.0
 40
4.0
 40
4.0
 40
4.0
 40
4.0
 10
211.7920074462891
 20
133.6900024414062
 10
199.6320037841797
 20
133.6900024414062
 10
190.1790008544922
 20
144.1749877929688
 10
191.156005859375
 20
155.947021484375
 10
190.1840057373047
 20
167.5750122070312
 10
199.510009765625
 20
178.1990356445312
 10
211.7920074462891
 20
178.1990356445312
 10
224.0690002441406
 20
178.1990356445312
 10
233.3930053710938
 20
167.5750122070312
 10
232.4230041503906
 20
155.947021484375
 10
233.4049987792969
 20
144.1380004882812
 10
223.9149932861328
 20
133.6900024414062
 10
211.7920074462891
 20
133.6900024414062
 97
        0
 97
        0
 92
        1
 93
        1
 72
     4
 94
        3
 73
     0
 74
     1
 95
       11
 96
        7
 40
0.0
 40
0.0
 40
0.0
 40
0.0
 40
1.0
 40
1.0
 40
1.0
 40
2.0
 40
2.0
 40
2.0
 40
2.0
 10
242.1929931640625
 20
167.9409790039062
 10
230.3369903564453
 20
167.9409790039062
 10
230.3709869384766
 20
187.5189819335938
 10
242.1929931640625
 20
187.5189819335938
 10
254.031005859375
 20
187.5189819335938
 10
254.031005859375
 20
167.9409790039062
 10
242.1929931640625
 20
167.9409790039062
 97
        0
 97
        0
 92
        1
 93
        1
 72
     4
 94
        3
 73
     0
 74
     1
 95
       17
 96
       13
 40
0.0
 40
0.0
 40
0.0
 40
0.0
 40
1.0
 40
1.0
 40
1.0
 40
2.0
 40
2.0
 40
2.0
 40
3.0
 40
3.0
 40
3.0
 40
4.0
 40
4.0
 40
4.0
 40
4.0
 10
267.0969848632812
 20
192.8380126953125
 10
267.0969848632812
 20
187.958984375
 10
263.1409912109375
 20
183.9970092773438
 10
258.2559814453125
 20
183.9970092773438
 10
246.4049835205078
 20
183.9970092773438
 10
246.4299774169922
 20
203.5800170898438
 10
258.2559814453125
 20
203.5800170898438
 10
263.1419677734375
 20
203.5800170898438
 10
267.0969848632812
 20
199.6180419921875
 10
267.0969848632812
 20
194.7340087890625
 10
267.0969848632812
 20
194.7340087890625
 10
267.0969848632812
 20
192.843017578125
 10
267.0969848632812
 20
192.8380126953125
 97
        0
 97
        0
 75
     2
 76
     1
 98
        0
  0
ENDSEC
  0
SECTION
  2
OBJECTS
  0
DICTIONARY
  5
C
330
0
100
AcDbDictionary
281
     1
  3
ACAD_GROUP
350
D
  3
ACAD_LAYOUT
350
1A
  3
ACAD_MATERIAL
350
3B
  3
ACAD_MLEADERSTYLE
350
7C
  3
ACAD_MLINESTYLE
350
17
  3
ACAD_PLOTSETTINGS
350
19
  3
ACAD_PLOTSTYLENAME
350
E
  3
ACAD_TABLESTYLE
350
7B
  3
ACAD_VISUALSTYLE
350
2A
  0
SUN
  5
3F
330
29
100
AcDbSun
 90
        1
290
     0
 63
     7
421
 16777215
 40
1.0
291
     1
 91
  2455826
 92
 54000000
292
     0
 70
     2
 71
   256
280
     1
  0
DICTIONARY
  5
D
102
{ACAD_REACTORS
330
C
102
}
330
C
100
AcDbDictionary
281
     1
  0
DICTIONARY
  5
1A
102
{ACAD_REACTORS
330
C
102
}
330
C
100
AcDbDictionary
281
     1
  3
Layout1
350
1E
  3
Layout2
350
26
  3
Model
350
22
  0
DICTIONARY
  5
3B
102
{ACAD_REACTORS
330
C
102
}
330
C
100
AcDbDictionary
281
     1
  3
ByBlock
350
3D
  3
ByLayer
350
3C
  3
Global
350
3E
  0
DICTIONARY
  5
7C
102
{ACAD_REACTORS
330
C
102
}
330
C
100
AcDbDictionary
281
     1
  0
DICTIONARY
  5
17
102
{ACAD_REACTORS
330
C
102
}
330
C
100
AcDbDictionary
281
     1
  3
Standard
350
18
  0
DICTIONARY
  5
19
102
{ACAD_REACTORS
330
C
102
}
330
C
100
AcDbDictionary
281
     1
  0
ACDBDICTIONARYWDFLT
  5
E
102
{ACAD_REACTORS
330
C
102
}
330
C
100
AcDbDictionary
281
     1
  3
Normal
350
F
100
AcDbDictionaryWithDefault
340
F
  0
DICTIONARY
  5
7B
102
{ACAD_REACTORS
330
C
102
}
330
C
100
AcDbDictionary
281
     1
  0
DICTIONARY
  5
2A
102
{ACAD_REACTORS
330
C
102
}
330
C
100
AcDbDictionary
281
     1
  3
2dWireframe
350
2F
  3
3D Hidden
350
31
  3
3dWireframe
350
30
  3
Basic
350
32
  3
Brighten
350
36
  3
ColorChange
350
3A
  3
Conceptual
350
34
  3
Dim
350
35
  3
Facepattern
350
39
  3
Flat
350
2B
  3
FlatWithEdges
350
2C
  3
Gouraud
350
2D
  3
GouraudWithEdges
350
2E
  3
Linepattern
350
38
  3
Realistic
350
33
  3
Thicken
350
37
  0
LAYOUT
  5
1E
102
{ACAD_REACTORS
330
1A
102
}
330
1A
100
AcDbPlotSettings
  1

  2
none_device
  4

  6

 40
0.0
 41
0.0
 42
0.0
 43
0.0
 44
0.0
 45
0.0
 46
0.0
 47
0.0
 48
0.0
 49
0.0
140
0.0
141
0.0
142
1.0
143
1.0
 70
   688
 72
     0
 73
     0
 74
     5
  7

 75
    16
 76
     0
 77
     2
 78
   300
147
1.0
148
0.0
149
0.0
100
AcDbLayout
  1
Layout1
 70
     1
 71
     1
 10
0.0
 20
0.0
 11
12.0
 21
9.0
 12
0.0
 22
0.0
 32
0.0
 14
1.000000000000000E+20
 24
1.000000000000000E+20
 34
1.000000000000000E+20
 15
-1.000000000000000E+20
 25
-1.000000000000000E+20
 35
-1.000000000000000E+20
146
0.0
 13
0.0
 23
0.0
 33
0.0
 16
1.0
 26
0.0
 36
0.0
 17
0.0
 27
1.0
 37
0.0
 76
     0
330
1B
  0
LAYOUT
  5
26
102
{ACAD_REACTORS
330
1A
102
}
330
1A
100
AcDbPlotSettings
  1

  2
none_device
  4

  6

 40
0.0
 41
0.0
 42
0.0
 43
0.0
 44
0.0
 45
0.0
 46
0.0
 47
0.0
 48
0.0
 49
0.0
140
0.0
141
0.0
142
1.0
143
1.0
 70
   688
 72
     0
 73
     0
 74
     5
  7

 75
    16
 76
     0
 77
     2
 78
   300
147
1.0
148
0.0
149
0.0
100
AcDbLayout
  1
Layout2
 70
     1
 71
     2
 10
0.0
 20
0.0
 11
0.0
 21
0.0
 12
0.0
 22
0.0
 32
0.0
 14
0.0
 24
0.0
 34
0.0
 15
0.0
 25
0.0
 35
0.0
146
0.0
 13
0.0
 23
0.0
 33
0.0
 16
1.0
 26
0.0
 36
0.0
 17
0.0
 27
1.0
 37
0.0
 76
     0
330
23
  0
LAYOUT
  5
22
102
{ACAD_REACTORS
330
1A
102
}
330
1A
100
AcDbPlotSettings
  1

  2
none_device
  4

  6

 40
0.0
 41
0.0
 42
0.0
 43
0.0
 44
0.0
 45
0.0
 46
0.0
 47
0.0
 48
0.0
 49
0.0
140
0.0
141
0.0
142
1.0
143
1.0
 70
  1712
 72
     0
 73
     0
 74
     0
  7

 75
     0
 76
     0
 77
     2
 78
   300
147
1.0
148
0.0
149
0.0
100
AcDbLayout
  1
Model
 70
     1
 71
     0
 10
0.0
 20
0.0
 11
12.0
 21
9.0
 12
0.0
 22
0.0
 32
0.0
 14
1.000000000000000E+20
 24
1.000000000000000E+20
 34
1.000000000000000E+20
 15
-1.000000000000000E+20
 25
-1.000000000000000E+20
 35
-1.000000000000000E+20
146
0.0
 13
0.0
 23
0.0
 33
0.0
 16
1.0
 26
0.0
 36
0.0
 17
0.0
 27
1.0
 37
0.0
 76
     0
330
1F
331
29
  0
MATERIAL
  5
3D
102
{ACAD_REACTORS
330
3B
102
}
330
3B
100
AcDbMaterial
  1
ByBlock
 72
     1
 94
      127
  0
MATERIAL
  5
3C
102
{ACAD_REACTORS
330
3B
102
}
330
3B
100
AcDbMaterial
  1
ByLayer
 72
     1
 94
      127
  0
MATERIAL
  5
3E
102
{ACAD_REACTORS
330
3B
102
}
330
3B
100
AcDbMaterial
  1
Global
 72
     1
 94
      127
  0
MLINESTYLE
  5
18
102
{ACAD_REACTORS
330
17
102
}
330
17
100
AcDbMlineStyle
  2
Standard
 70
     0
  3

 62
   256
 51
90.0
 52
90.0
 71
     2
 49
0.5
 62
   256
  6
BYLAYER
 49
-0.5
 62
   256
  6
BYLAYER
  0
ACDBPLACEHOLDER
  5
F
102
{ACAD_REACTORS
330
E
102
}
330
E
  0
VISUALSTYLE
  5
2F
102
{ACAD_REACTORS
330
2A
102
}
330
2A
100
AcDbVisualStyle
  2
2dWireframe
 70
     4
177
     2
291
     0
 71
     0
176
     1
 72
     2
176
     1
 73
     0
176
     1
 90
        0
176
     1
 40
-0.6
176
     1
 41
-30.0
176
     1
 62
     5
 63
     7
421
 16777215
176
     1
 74
     1
176
     1
 91
        4
176
     1
 64
     7
176
     1
 65
   257
176
     1
 75
     1
176
     1
175
     1
176
     1
 42
1.0
176
     1
 92
        0
176
     1
 66
   257
176
     1
 43
1.0
176
     1
 76
     1
176
     1
 77
     6
176
     1
 78
     2
176
     1
 67
     7
176
     1
 79
     5
176
     1
170
     0
176
     1
171
     0
176
     1
290
     0
176
     1
 93
        1
176
     1
 44
0.0
176
     1
173
     0
176
     1
  0
VISUALSTYLE
  5
31
102
{ACAD_REACTORS
330
2A
102
}
330
2A
100
AcDbVisualStyle
  2
3D Hidden
 70
     6
177
     2
291
     0
 71
     1
176
     1
 72
     2
176
     1
 73
     2
176
     1
 90
        0
176
     1
 40
-0.6
176
     1
 41
-30.0
176
     1
 62
     5
 63
     7
421
 16777215
176
     1
 74
     2
176
     1
 91
        2
176
     1
 64
     7
176
     1
 65
   257
176
     1
 75
     2
176
     1
175
     1
176
     1
 42
40.0
176
     1
 92
        0
176
     1
 66
   257
176
     1
 43
1.0
176
     1
 76
     1
176
     1
 77
     6
176
     1
 78
     2
176
     1
 67
     7
176
     1
 79
     3
176
     1
170
     0
176
     1
171
     0
176
     1
290
     0
176
     1
 93
        1
176
     1
 44
0.0
176
     1
173
     0
176
     1
  0
VISUALSTYLE
  5
30
102
{ACAD_REACTORS
330
2A
102
}
330
2A
100
AcDbVisualStyle
  2
3dWireframe
 70
     5
177
     2
291
     0
 71
     0
176
     1
 72
     2
176
     1
 73
     0
176
     1
 90
        0
176
     1
 40
-0.6
176
     1
 41
-30.0
176
     1
 62
     5
 63
     7
421
 16777215
176
     1
 74
     1
176
     1
 91
        4
176
     1
 64
     7
176
     1
 65
   257
176
     1
 75
     1
176
     1
175
     1
176
     1
 42
1.0
176
     1
 92
        0
176
     1
 66
   257
176
     1
 43
1.0
176
     1
 76
     1
176
     1
 77
     6
176
     1
 78
     2
176
     1
 67
     7
176
     1
 79
     5
176
     1
170
     0
176
     1
171
     0
176
     1
290
     0
176
     1
 93
        1
176
     1
 44
0.0
176
     1
173
     0
176
     1
  0
VISUALSTYLE
  5
32
102
{ACAD_REACTORS
330
2A
102
}
330
2A
100
AcDbVisualStyle
  2
Basic
 70
     7
177
     2
291
     1
 71
     1
176
     1
 72
     0
176
     1
 73
     1
176
     1
 90
        0
176
     1
 40
-0.6
176
     1
 41
-30.0
176
     1
 62
     5
 63
     7
421
 16777215
176
     1
 74
     0
176
     1
 91
        4
176
     1
 64
     7
176
     1
 65
   257
176
     1
 75
     1
176
     1
175
     1
176
     1
 42
1.0
176
     1
 92
        8
176
     1
 66
     7
176
     1
 43
1.0
176
     1
 76
     1
176
     1
 77
     6
176
     1
 78
     2
176
     1
 67
     7
176
     1
 79
     5
176
     1
170
     0
176
     1
171
     0
176
     1
290
     0
176
     1
 93
        1
176
     1
 44
0.0
176
     1
173
     0
176
     1
  0
VISUALSTYLE
  5
36
102
{ACAD_REACTORS
330
2A
102
}
330
2A
100
AcDbVisualStyle
  2
Brighten
 70
    12
177
     2
291
     1
 71
     2
176
     1
 72
     2
176
     1
 73
     0
176
     1
 90
        0
176
     1
 40
-0.6
176
     1
 41
-30.0
176
     1
 62
     5
 63
     7
421
 16777215
176
     1
 74
     1
176
     1
 91
        4
176
     1
 64
     7
176
     1
 65
   257
176
     1
 75
     1
176
     1
175
     1
176
     1
 42
1.0
176
     1
 92
        8
176
     1
 66
     7
176
     1
 43
1.0
176
     1
 76
     1
176
     1
 77
     6
176
     1
 78
     2
176
     1
 67
     7
176
     1
 79
     5
176
     1
170
     0
176
     1
171
     0
176
     1
290
     0
176
     1
 93
        1
176
     1
 44
50.0
176
     1
173
     0
176
     1
  0
VISUALSTYLE
  5
3A
102
{ACAD_REACTORS
330
2A
102
}
330
2A
100
AcDbVisualStyle
  2
ColorChange
 70
    16
177
     2
291
     1
 71
     2
176
     1
 72
     2
176
     1
 73
     3
176
     1
 90
        0
176
     1
 40
-0.6
176
     1
 41
-30.0
176
     1
 62
     5
 63
     8
421
  8421504
176
     1
 74
     1
176
     1
 91
        4
176
     1
 64
     7
176
     1
 65
   257
176
     1
 75
     1
176
     1
175
     1
176
     1
 42
1.0
176
     1
 92
        8
176
     1
 66
     8
424
  8421504
176
     1
 43
1.0
176
     1
 76
     1
176
     1
 77
     6
176
     1
 78
     2
176
     1
 67
     7
176
     1
 79
     5
176
     1
170
     0
176
     1
171
     0
176
     1
290
     0
176
     1
 93
        1
176
     1
 44
0.0
176
     1
173
     0
176
     1
  0
VISUALSTYLE
  5
34
102
{ACAD_REACTORS
330
2A
102
}
330
2A
100
AcDbVisualStyle
  2
Conceptual
 70
     9
177
     2
291
     0
 71
     3
176
     1
 72
     2
176
     1
 73
     0
176
     1
 90
        0
176
     1
 40
-0.6
176
     1
 41
-30.0
176
     1
 62
     5
 63
     7
421
 16777215
176
     1
 74
     2
176
     1
 91
        2
176
     1
 64
     7
176
     1
 65
   257
176
     1
 75
     1
176
     1
175
     1
176
     1
 42
40.0
176
     1
 92
        8
176
     1
 66
     7
176
     1
 43
1.0
176
     1
 76
     1
176
     1
 77
     6
176
     1
 78
     2
176
     1
 67
     7
176
     1
 79
     3
176
     1
170
     0
176
     1
171
     0
176
     1
290
     0
176
     1
 93
        1
176
     1
 44
0.0
176
     1
173
     0
176
     1
  0
VISUALSTYLE
  5
35
102
{ACAD_REACTORS
330
2A
102
}
330
2A
100
AcDbVisualStyle
  2
Dim
 70
    11
177
     2
291
     1
 71
     2
176
     1
 72
     2
176
     1
 73
     0
176
     1
 90
        0
176
     1
 40
-0.6
176
     1
 41
-30.0
176
     1
 62
     5
 63
     7
421
 16777215
176
     1
 74
     1
176
     1
 91
        4
176
     1
 64
     7
176
     1
 65
   257
176
     1
 75
     1
176
     1
175
     1
176
     1
 42
1.0
176
     1
 92
        8
176
     1
 66
     7
176
     1
 43
1.0
176
     1
 76
     1
176
     1
 77
     6
176
     1
 78
     2
176
     1
 67
     7
176
     1
 79
     5
176
     1
170
     0
176
     1
171
     0
176
     1
290
     0
176
     1
 93
        1
176
     1
 44
-50.0
176
     1
173
     0
176
     1
  0
VISUALSTYLE
  5
39
102
{ACAD_REACTORS
330
2A
102
}
330
2A
100
AcDbVisualStyle
  2
Facepattern
 70
    15
177
     2
291
     1
 71
     2
176
     1
 72
     2
176
     1
 73
     0
176
     1
 90
        0
176
     1
 40
-0.6
176
     1
 41
-30.0
176
     1
 62
     5
 63
     7
421
 16777215
176
     1
 74
     1
176
     1
 91
        4
176
     1
 64
     7
176
     1
 65
   257
176
     1
 75
     1
176
     1
175
     1
176
     1
 42
1.0
176
     1
 92
        8
176
     1
 66
     7
176
     1
 43
1.0
176
     1
 76
     1
176
     1
 77
     6
176
     1
 78
     2
176
     1
 67
     7
176
     1
 79
     5
176
     1
170
     0
176
     1
171
     0
176
     1
290
     0
176
     1
 93
        1
176
     1
 44
0.0
176
     1
173
     0
176
     1
  0
VISUALSTYLE
  5
2B
102
{ACAD_REACTORS
330
2A
102
}
330
2A
100
AcDbVisualStyle
  2
Flat
 70
     0
177
     2
291
     1
 71
     2
176
     1
 72
     1
176
     1
 73
     1
176
     1
 90
        2
176
     1
 40
-0.6
176
     1
 41
30.0
176
     1
 62
     5
 63
     7
421
 16777215
176
     1
 74
     0
176
     1
 91
        4
176
     1
 64
     7
176
     1
 65
   257
176
     1
 75
     1
176
     1
175
     1
176
     1
 42
1.0
176
     1
 92
        8
176
     1
 66
     7
176
     1
 43
1.0
176
     1
 76
     1
176
     1
 77
     6
176
     1
 78
     2
176
     1
 67
     7
176
     1
 79
     5
176
     1
170
     0
176
     1
171
     0
176
     1
290
     0
176
     1
 93
       13
176
     1
 44
0.0
176
     1
173
     0
176
     1
  0
VISUALSTYLE
  5
2C
102
{ACAD_REACTORS
330
2A
102
}
330
2A
100
AcDbVisualStyle
  2
FlatWithEdges
 70
     1
177
     2
291
     1
 71
     2
176
     1
 72
     1
176
     1
 73
     1
176
     1
 90
        2
176
     1
 40
-0.6
176
     1
 41
30.0
176
     1
 62
     5
 63
     7
421
 16777215
176
     1
 74
     1
176
     1
 91
        4
176
     1
 64
     7
176
     1
 65
   257
176
     1
 75
     1
176
     1
175
     1
176
     1
 42
1.0
176
     1
 92
        0
176
     1
 66
   257
176
     1
 43
1.0
176
     1
 76
     1
176
     1
 77
     6
176
     1
 78
     2
176
     1
 67
     7
176
     1
 79
     5
176
     1
170
     0
176
     1
171
     0
176
     1
290
     0
176
     1
 93
       13
176
     1
 44
0.0
176
     1
173
     0
176
     1
  0
VISUALSTYLE
  5
2D
102
{ACAD_REACTORS
330
2A
102
}
330
2A
100
AcDbVisualStyle
  2
Gouraud
 70
     2
177
     2
291
     1
 71
     2
176
     1
 72
     2
176
     1
 73
     1
176
     1
 90
        2
176
     1
 40
-0.6
176
     1
 41
30.0
176
     1
 62
     5
 63
     7
421
 16777215
176
     1
 74
     0
176
     1
 91
        4
176
     1
 64
     7
176
     1
 65
   257
176
     1
 75
     1
176
     1
175
     1
176
     1
 42
1.0
176
     1
 92
        0
176
     1
 66
     7
176
     1
 43
1.0
176
     1
 76
     1
176
     1
 77
     6
176
     1
 78
     2
176
     1
 67
     7
176
     1
 79
     5
176
     1
170
     0
176
     1
171
     0
176
     1
290
     0
176
     1
 93
       13
176
     1
 44
0.0
176
     1
173
     0
176
     1
  0
VISUALSTYLE
  5
2E
102
{ACAD_REACTORS
330
2A
102
}
330
2A
100
AcDbVisualStyle
  2
GouraudWithEdges
 70
     3
177
     2
291
     1
 71
     2
176
     1
 72
     2
176
     1
 73
     1
176
     1
 90
        2
176
     1
 40
-0.6
176
     1
 41
30.0
176
     1
 62
     5
 63
     7
421
 16777215
176
     1
 74
     1
176
     1
 91
        4
176
     1
 64
     7
176
     1
 65
   257
176
     1
 75
     1
176
     1
175
     1
176
     1
 42
1.0
176
     1
 92
        0
176
     1
 66
   257
176
     1
 43
1.0
176
     1
 76
     1
176
     1
 77
     6
176
     1
 78
     2
176
     1
 67
     7
176
     1
 79
     5
176
     1
170
     0
176
     1
171
     0
176
     1
290
     0
176
     1
 93
       13
176
     1
 44
0.0
176
     1
173
     0
176
     1
  0
VISUALSTYLE
  5
38
102
{ACAD_REACTORS
330
2A
102
}
330
2A
100
AcDbVisualStyle
  2
Linepattern
 70
    14
177
     2
291
     1
 71
     2
176
     1
 72
     2
176
     1
 73
     0
176
     1
 90
        0
176
     1
 40
-0.6
176
     1
 41
-30.0
176
     1
 62
     5
 63
     7
421
 16777215
176
     1
 74
     1
176
     1
 91
        4
176
     1
 64
     7
176
     1
 65
   257
176
     1
 75
     7
176
     1
175
     7
176
     1
 42
1.0
176
     1
 92
        8
176
     1
 66
     7
176
     1
 43
1.0
176
     1
 76
     1
176
     1
 77
     6
176
     1
 78
     2
176
     1
 67
     7
176
     1
 79
     5
176
     1
170
     0
176
     1
171
     0
176
     1
290
     0
176
     1
 93
        1
176
     1
 44
0.0
176
     1
173
     0
176
     1
  0
VISUALSTYLE
  5
33
102
{ACAD_REACTORS
330
2A
102
}
330
2A
100
AcDbVisualStyle
  2
Realistic
 70
     8
177
     2
291
     0
 71
     2
176
     1
 72
     2
176
     1
 73
     0
176
     1
 90
        0
176
     1
 40
-0.6
176
     1
 41
-30.0
176
     1
 62
     5
 63
     7
421
 16777215
176
     1
 74
     1
176
     1
 91
        0
176
     1
 64
     7
176
     1
 65
   257
176
     1
 75
     1
176
     1
175
     1
176
     1
 42
1.0
176
     1
 92
        8
176
     1
 66
     8
424
  7895160
176
     1
 43
1.0
176
     1
 76
     1
176
     1
 77
     6
176
     1
 78
     2
176
     1
 67
     7
176
     1
 79
     5
176
     1
170
     0
176
     1
171
     0
176
     1
290
     0
176
     1
 93
       13
176
     1
 44
0.0
176
     1
173
     0
176
     1
  0
VISUALSTYLE
  5
37
102
{ACAD_REACTORS
330
2A
102
}
330
2A
100
AcDbVisualStyle
  2
Thicken
 70
    13
177
     2
291
     1
 71
     2
176
     1
 72
     2
176
     1
 73
     0
176
     1
 90
        0
176
     1
 40
-0.6
176
     1
 41
-30.0
176
     1
 62
     5
 63
     7
421
 16777215
176
     1
 74
     1
176
     1
 91
        4
176
     1
 64
     7
176
     1
 65
   257
176
     1
 75
     1
176
     1
175
     1
176
     1
 42
1.0
176
     1
 92
       12
176
     1
 66
     7
176
     1
 43
1.0
176
     1
 76
     1
176
     1
 77
     6
176
     1
 78
     2
176
     1
 67
     7
176
     1
 79
     5
176
     1
170
     0
176
     1
171
     0
176
     1
290
     0
176
     1
 93
        1
176
     1
 44
0.0
176
     1
173
     0
176
     1
  0
ENDSEC
  0
EOF
