  0
SECTION
  2
HEADER
  9
$ACADVER
  1
AC1024
  9
$ACADMAINTVER
 70
     6
  9
$DWGCODEPAGE
  3
ANSI_1251
  9
$INSBASE
 10
0.0
 20
0.0
 30
0.0
  9
$EXTMIN
 10
1.000000000000000E+20
 20
1.000000000000000E+20
 30
1.000000000000000E+20
  9
$EXTMAX
 10
-1.000000000000000E+20
 20
-1.000000000000000E+20
 30
-1.000000000000000E+20
  9
$LIMMIN
 10
0.0
 20
0.0
  9
$LIMMAX
 10
12.0
 20
9.0
  9
$ORTHOMODE
 70
     0
  9
$REGENMODE
 70
     1
  9
$FILLMODE
 70
     1
  9
$QTEXTMODE
 70
     0
  9
$MIRRTEXT
 70
     1
  9
$LTSCALE
 40
1.0
  9
$ATTMODE
 70
     1
  9
$TEXTSIZE
 40
0.2
  9
$TRACEWID
 40
0.05
  9
$TEXTSTYLE
  7
Standard
  9
$CLAYER
  8
0
  9
$CELTYPE
  6
ByLayer
  9
$CECOLOR
 62
   256
  9
$CELTSCALE
 40
1.0
  9
$DISPSILH
 70
     0
  9
$DIMSCALE
 40
1.0
  9
$DIMASZ
 40
0.18
  9
$DIMEXO
 40
0.0625
  9
$DIMDLI
 40
0.38
  9
$DIMRND
 40
0.0
  9
$DIMDLE
 40
0.0
  9
$DIMEXE
 40
0.18
  9
$DIMTP
 40
0.0
  9
$DIMTM
 40
0.0
  9
$DIMTXT
 40
0.18
  9
$DIMCEN
 40
0.09
  9
$DIMTSZ
 40
0.0
  9
$DIMTOL
 70
     0
  9
$DIMLIM
 70
     0
  9
$DIMTIH
 70
     1
  9
$DIMTOH
 70
     1
  9
$DIMSE1
 70
     0
  9
$DIMSE2
 70
     0
  9
$DIMTAD
 70
     0
  9
$DIMZIN
 70
     0
  9
$DIMBLK
  1

  9
$DIMASO
 70
     1
  9
$DIMSHO
 70
     1
  9
$DIMPOST
  1

  9
$DIMAPOST
  1

  9
$DIMALT
 70
     0
  9
$DIMALTD
 70
     2
  9
$DIMALTF
 40
25.4
  9
$DIMLFAC
 40
1.0
  9
$DIMTOFL
 70
     0
  9
$DIMTVP
 40
0.0
  9
$DIMTIX
 70
     0
  9
$DIMSOXD
 70
     0
  9
$DIMSAH
 70
     0
  9
$DIMBLK1
  1

  9
$DIMBLK2
  1

  9
$DIMSTYLE
  2
Standard
  9
$DIMCLRD
 70
     0
  9
$DIMCLRE
 70
     0
  9
$DIMCLRT
 70
     0
  9
$DIMTFAC
 40
1.0
  9
$DIMGAP
 40
0.09
  9
$DIMJUST
 70
     0
  9
$DIMSD1
 70
     0
  9
$DIMSD2
 70
     0
  9
$DIMTOLJ
 70
     1
  9
$DIMTZIN
 70
     0
  9
$DIMALTZ
 70
     0
  9
$DIMALTTZ
 70
     0
  9
$DIMUPT
 70
     0
  9
$DIMDEC
 70
     4
  9
$DIMTDEC
 70
     4
  9
$DIMALTU
 70
     2
  9
$DIMALTTD
 70
     2
  9
$DIMTXSTY
  7
Standard
  9
$DIMAUNIT
 70
     0
  9
$DIMADEC
 70
     0
  9
$DIMALTRND
 40
0.0
  9
$DIMAZIN
 70
     0
  9
$DIMDSEP
 70
    46
  9
$DIMATFIT
 70
     3
  9
$DIMFRAC
 70
     0
  9
$DIMLDRBLK
  1

  9
$DIMLUNIT
 70
     2
  9
$DIMLWD
 70
    -2
  9
$DIMLWE
 70
    -2
  9
$DIMTMOVE
 70
     0
  9
$DIMFXL
 40
1.0
  9
$DIMFXLON
 70
     0
  9
$DIMJOGANG
 40
0.7853981633974483
  9
$DIMTFILL
 70
     0
  9
$DIMTFILLCLR
 70
     0
  9
$DIMARCSYM
 70
     0
  9
$DIMLTYPE
  6

  9
$DIMLTEX1
  6

  9
$DIMLTEX2
  6

  9
$DIMTXTDIRECTION
 70
     0
  9
$LUNITS
 70
     2
  9
$LUPREC
 70
     4
  9
$SKETCHINC
 40
0.1
  9
$FILLETRAD
 40
0.5
  9
$AUNITS
 70
     0
  9
$AUPREC
 70
     0
  9
$MENU
  1
.
  9
$ELEVATION
 40
0.0
  9
$PELEVATION
 40
0.0
  9
$THICKNESS
 40
0.0
  9
$LIMCHECK
 70
     0
  9
$CHAMFERA
 40
0.5
  9
$CHAMFERB
 40
0.5
  9
$CHAMFERC
 40
1.0
  9
$CHAMFERD
 40
0.0
  9
$SKPOLY
 70
     0
  9
$TDCREATE
 40
2459916.621328287
  9
$TDUCREATE
 40
2459916.496328287
  9
$TDUPDATE
 40
2459916.621328287
  9
$TDUUPDATE
 40
2459916.496328287
  9
$TDINDWG
 40
0.0000000116
  9
$TDUSRTIMER
 40
0.0000000116
  9
$USRTIMER
 70
     1
  9
$ANGBASE
 50
0.0
  9
$ANGDIR
 70
     0
  9
$PDMODE
 70
     0
  9
$PDSIZE
 40
0.0
  9
$PLINEWID
 40
0.0
  9
$SPLFRAME
 70
     0
  9
$SPLINETYPE
 70
     6
  9
$SPLINESEGS
 70
     8
  9
$HANDSEED
  5
57
  9
$SURFTAB1
 70
     6
  9
$SURFTAB2
 70
     6
  9
$SURFTYPE
 70
     6
  9
$SURFU
 70
     6
  9
$SURFV
 70
     6
  9
$UCSBASE
  2

  9
$UCSNAME
  2

  9
$UCSORG
 10
0.0
 20
0.0
 30
0.0
  9
$UCSXDIR
 10
1.0
 20
0.0
 30
0.0
  9
$UCSYDIR
 10
0.0
 20
1.0
 30
0.0
  9
$UCSORTHOREF
  2

  9
$UCSORTHOVIEW
 70
     0
  9
$UCSORGTOP
 10
0.0
 20
0.0
 30
0.0
  9
$UCSORGBOTTOM
 10
0.0
 20
0.0
 30
0.0
  9
$UCSORGLEFT
 10
0.0
 20
0.0
 30
0.0
  9
$UCSORGRIGHT
 10
0.0
 20
0.0
 30
0.0
  9
$UCSORGFRONT
 10
0.0
 20
0.0
 30
0.0
  9
$UCSORGBACK
 10
0.0
 20
0.0
 30
0.0
  9
$PUCSBASE
  2

  9
$PUCSNAME
  2

  9
$PUCSORG
 10
0.0
 20
0.0
 30
0.0
  9
$PUCSXDIR
 10
1.0
 20
0.0
 30
0.0
  9
$PUCSYDIR
 10
0.0
 20
1.0
 30
0.0
  9
$PUCSORTHOREF
  2

  9
$PUCSORTHOVIEW
 70
     0
  9
$PUCSORGTOP
 10
0.0
 20
0.0
 30
0.0
  9
$PUCSORGBOTTOM
 10
0.0
 20
0.0
 30
0.0
  9
$PUCSORGLEFT
 10
0.0
 20
0.0
 30
0.0
  9
$PUCSORGRIGHT
 10
0.0
 20
0.0
 30
0.0
  9
$PUCSORGFRONT
 10
0.0
 20
0.0
 30
0.0
  9
$PUCSORGBACK
 10
0.0
 20
0.0
 30
0.0
  9
$USERI1
 70
     0
  9
$USERI2
 70
     0
  9
$USERI3
 70
     0
  9
$USERI4
 70
     0
  9
$USERI5
 70
     0
  9
$USERR1
 40
0.0
  9
$USERR2
 40
0.0
  9
$USERR3
 40
0.0
  9
$USERR4
 40
0.0
  9
$USERR5
 40
0.0
  9
$WORLDVIEW
 70
     1
  9
$SHADEDGE
 70
     3
  9
$SHADEDIF
 70
    70
  9
$TILEMODE
 70
     1
  9
$MAXACTVP
 70
    64
  9
$PINSBASE
 10
0.0
 20
0.0
 30
0.0
  9
$PLIMCHECK
 70
     0
  9
$PEXTMIN
 10
1.000000000000000E+20
 20
1.000000000000000E+20
 30
1.000000000000000E+20
  9
$PEXTMAX
 10
-1.000000000000000E+20
 20
-1.000000000000000E+20
 30
-1.000000000000000E+20
  9
$PLIMMIN
 10
0.0
 20
0.0
  9
$PLIMMAX
 10
12.0
 20
9.0
  9
$UNITMODE
 70
     0
  9
$VISRETAIN
 70
     1
  9
$PLINEGEN
 70
     0
  9
$PSLTSCALE
 70
     1
  9
$TREEDEPTH
 70
  3020
  9
$CMLSTYLE
  2
Standard
  9
$CMLJUST
 70
     0
  9
$CMLSCALE
 40
1.0
  9
$PROXYGRAPHICS
 70
     1
  9
$MEASUREMENT
 70
     0
  9
$CELWEIGHT
370
    -1
  9
$ENDCAPS
280
     0
  9
$JOINSTYLE
280
     0
  9
$LWDISPLAY
290
     1
  9
$INSUNITS
 70
     1
  9
$HYPERLINKBASE
  1

  9
$STYLESHEET
  1

  9
$XEDIT
290
     1
  9
$CEPSNTYPE
380
     0
  9
$PSTYLEMODE
290
     1
  9
$FINGERPRINTGUID
  2
{EE5248C4-1EF7-428D-BD75-44F177181FA5}
  9
$VERSIONGUID
  2
{FAEB1C32-E019-11D5-929B-00C0DF256EC4}
  9
$EXTNAMES
290
     1
  9
$PSVPSCALE
 40
0.0
  9
$OLESTARTUP
290
     0
  9
$SORTENTS
280
   127
  9
$INDEXCTL
280
     0
  9
$HIDETEXT
280
     1
  9
$XCLIPFRAME
280
     2
  9
$HALOGAP
280
     0
  9
$OBSCOLOR
 70
   257
  9
$OBSLTYPE
280
     0
  9
$INTERSECTIONDISPLAY
280
     0
  9
$INTERSECTIONCOLOR
 70
   257
  9
$DIMASSOC
280
     2
  9
$PROJECTNAME
  1

  9
$CAMERADISPLAY
290
     0
  9
$LENSLENGTH
 40
50.0
  9
$CAMERAHEIGHT
 40
0.0
  9
$STEPSPERSEC
 40
2.0
  9
$STEPSIZE
 40
6.0
  9
$3DDWFPREC
 40
2.0
  9
$PSOLWIDTH
 40
0.25
  9
$PSOLHEIGHT
 40
4.0
  9
$LOFTANG1
 40
1.570796326794897
  9
$LOFTANG2
 40
1.570796326794897
  9
$LOFTMAG1
 40
0.0
  9
$LOFTMAG2
 40
0.0
  9
$LOFTPARAM
 70
     7
  9
$LOFTNORMALS
280
     1
  9
$LATITUDE
 40
37.795
  9
$LONGITUDE
 40
-122.394
  9
$NORTHDIRECTION
 40
0.0
  9
$TIMEZONE
 70
 -8000
  9
$LIGHTGLYPHDISPLAY
280
     1
  9
$TILEMODELIGHTSYNCH
280
     1
  9
$CMATERIAL
347
3C
  9
$SOLIDHIST
280
     1
  9
$SHOWHIST
280
     1
  9
$DWFFRAME
280
     2
  9
$DGNFRAME
280
     2
  9
$REALWORLDSCALE
290
     1
  9
$INTERFERECOLOR
 62
   256
  9
$CSHADOW
280
     0
  9
$SHADOWPLANELOCATION
 40
0.0
  0
ENDSEC
  0
SECTION
  2
CLASSES
  0
CLASS
  1
ACDBDICTIONARYWDFLT
  2
AcDbDictionaryWithDefault
  3
ObjectDBX Classes
 90
        0
 91
        4
280
     0
281
     0
  0
CLASS
  1
VISUALSTYLE
  2
AcDbVisualStyle
  3
ObjectDBX Classes
 90
     4095
 91
        4
280
     0
281
     0
  0
CLASS
  1
MATERIAL
  2
AcDbMaterial
  3
ObjectDBX Classes
 90
     1153
 91
        4
280
     0
281
     0
  0
CLASS
  1
SUN
  2
AcDbSun
  3
SCENEOE
 90
     1024
 91
        4
280
     0
281
     0
  0
ENDSEC
  0
SECTION
  2
TABLES
  0
TABLE
  2
VPORT
  5
8
330
0
100
AcDbSymbolTable
 70
     1
  0
VPORT
  5
29
330
8
100
AcDbSymbolTableRecord
100
AcDbViewportTableRecord
  2
*Active
 70
     0
 10
0.0
 20
0.0
 11
1.0
 21
1.0
 12
0.0
 22
0.0
 13
0.0
 23
0.0
 14
0.5
 24
0.5
 15
0.5
 25
0.5
 16
0.0
 26
0.0
 36
1.0
 17
23.3111111111111
 27
-2.117648376308188
 37
0.0
 40
13.93136991405029
 41
0.4306826993337374
 42
50.0
 43
0.0
 44
0.0
 50
0.0
 51
0.0
 71
     0
 72
   100
 73
     1
 74
     3
 75
     0
 76
     0
 77
     0
 78
     0
281
     0
 65
     1
110
0.0
120
0.0
130
0.0
111
1.0
121
0.0
131
0.0
112
0.0
122
1.0
132
0.0
 79
     0
146
0.0
 60
     3
 61
     5
292
     1
282
     1
141
0.0
142
0.0
 63
   250
361
3F
  0
ENDTAB
  0
TABLE
  2
LTYPE
  5
5
330
0
100
AcDbSymbolTable
 70
     1
  0
LTYPE
  5
14
330
5
100
AcDbSymbolTableRecord
100
AcDbLinetypeTableRecord
  2
ByBlock
 70
     0
  3

 72
    65
 73
     0
 40
0.0
  0
LTYPE
  5
15
330
5
100
AcDbSymbolTableRecord
100
AcDbLinetypeTableRecord
  2
ByLayer
 70
     0
  3

 72
    65
 73
     0
 40
0.0
  0
LTYPE
  5
16
330
5
100
AcDbSymbolTableRecord
100
AcDbLinetypeTableRecord
  2
Continuous
 70
     0
  3
Solid line
 72
    65
 73
     0
 40
0.0
  0
ENDTAB
  0
TABLE
  2
LAYER
  5
2
330
0
100
AcDbSymbolTable
 70
     2
  0
LAYER
  5
10
330
2
100
AcDbSymbolTableRecord
100
AcDbLayerTableRecord
  2
0
 70
     0
 62
     7
  6
Continuous
370
    -3
390
F
347
3E
  0
LAYER
  5
40
330
2
100
AcDbSymbolTableRecord
100
AcDbLayerTableRecord
  2
_U+0421_U+043B_U+043E_U+0439 1
 70
     0
 62
     7
  6
Continuous
370
    -3
390
F
347
3E
  0
ENDTAB
  0
TABLE
  2
STYLE
  5
3
330
0
100
AcDbSymbolTable
 70
     1
  0
STYLE
  5
11
330
3
100
AcDbSymbolTableRecord
100
AcDbTextStyleTableRecord
  2
Standard
 70
     0
 40
0.0
 41
1.0
 50
0.0
 71
     0
 42
0.2
  3
txt
  4

  0
ENDTAB
  0
TABLE
  2
VIEW
  5
6
330
0
100
AcDbSymbolTable
 70
     0
  0
ENDTAB
  0
TABLE
  2
UCS
  5
7
330
0
100
AcDbSymbolTable
 70
     0
  0
ENDTAB
  0
TABLE
  2
APPID
  5
9
330
0
100
AcDbSymbolTable
 70
     1
  0
APPID
  5
12
330
9
100
AcDbSymbolTableRecord
100
AcDbRegAppTableRecord
  2
ACAD
 70
     0
  0
ENDTAB
  0
TABLE
  2
DIMSTYLE
  5
A
330
0
100
AcDbSymbolTable
 70
     1
100
AcDbDimStyleTable
  0
DIMSTYLE
105
27
330
A
100
AcDbSymbolTableRecord
100
AcDbDimStyleTableRecord
  2
Standard
 70
     0
178
     0
340
11
  0
ENDTAB
  0
TABLE
  2
BLOCK_RECORD
  5
1
330
0
100
AcDbSymbolTable
 70
     1
  0
BLOCK_RECORD
  5
1F
330
1
100
AcDbSymbolTableRecord
100
AcDbBlockTableRecord
  2
*Model_Space
340
22
 70
     0
280
     1
281
     0
  0
BLOCK_RECORD
  5
1B
330
1
100
AcDbSymbolTableRecord
100
AcDbBlockTableRecord
  2
*Paper_Space
340
1E
 70
     0
280
     1
281
     0
  0
BLOCK_RECORD
  5
23
330
1
100
AcDbSymbolTableRecord
100
AcDbBlockTableRecord
  2
*Paper_Space0
340
26
 70
     0
280
     1
281
     0
  0
ENDTAB
  0
ENDSEC
  0
SECTION
  2
BLOCKS
  0
BLOCK
  5
20
330
1F
100
AcDbEntity
  8
0
100
AcDbBlockBegin
  2
*Model_Space
 70
     0
 10
0.0
 20
0.0
 30
0.0
  3
*Model_Space
  1

  0
ENDBLK
  5
21
330
1F
100
AcDbEntity
  8
0
100
AcDbBlockEnd
  0
BLOCK
  5
1C
330
1B
100
AcDbEntity
 67
     1
  8
0
100
AcDbBlockBegin
  2
*Paper_Space
 70
     0
 10
0.0
 20
0.0
 30
0.0
  3
*Paper_Space
  1

  0
ENDBLK
  5
1D
330
1B
100
AcDbEntity
 67
     1
  8
0
100
AcDbBlockEnd
  0
BLOCK
  5
24
330
23
100
AcDbEntity
  8
0
100
AcDbBlockBegin
  2
*Paper_Space0
 70
     0
 10
0.0
 20
0.0
 30
0.0
  3
*Paper_Space0
  1

  0
ENDBLK
  5
25
330
23
100
AcDbEntity
  8
0
100
AcDbBlockEnd
  0
ENDSEC
  0
SECTION
  2
ENTITIES
  0
SPLINE
  5
41
330
1F
100
AcDbEntity
  8
_U+0421_U+043B_U+043E_U+0439 1
 62
     1
420
 16711680
370
     9
100
AcDbSpline
210
0.0
220
0.0
230
1.0
 70
    11
 71
     3
 72
    41
 73
    37
 74
     0
 42
0.0000000001
 43
0.0000000001
 12
1.0
 22
0.0
 32
0.0
 13
1.0
 23
0.0
 33
0.0
 40
0.0
 40
0.0
 40
0.0
 40
0.0
 40
1.0
 40
1.0
 40
1.0
 40
2.0
 40
2.0
 40
2.0
 40
3.0
 40
3.0
 40
3.0
 40
4.0
 40
4.0
 40
4.0
 40
5.0
 40
5.0
 40
5.0
 40
6.0
 40
6.0
 40
6.0
 40
7.0
 40
7.0
 40
7.0
 40
8.0
 40
8.0
 40
8.0
 40
9.0
 40
9.0
 40
9.0
 40
10.0
 40
10.0
 40
10.0
 40
11.0
 40
11.0
 40
11.0
 40
12.0
 40
12.0
 40
12.0
 40
12.0
 10
25.94818755331279
 20
1.335724462989737
 30
0.0
 10
26.04547759237529
 20
1.252153770715432
 30
0.0
 10
25.98624297323459
 20
1.091473635624286
 30
0.0
 10
25.85763172648987
 20
1.091473635624286
 30
0.0
 10
25.77082617093432
 20
1.091473635624286
 30
0.0
 10
25.7455474437207
 20
1.155821644521855
 30
0.0
 10
25.52314550687182
 20
1.334625830177237
 30
0.0
 10
25.52314550687182
 20
1.334625830177237
 30
0.0
 10
25.52314550687182
 20
-1.232498430619204
 30
0.0
 10
25.52314550687182
 20
-1.232498430619204
 30
0.0
 10
25.52314550687182
 20
-1.382803436858353
 30
0.0
 10
25.40129559910264
 20
-1.50465080149594
 30
0.0
 10
25.25100669936306
 20
-1.50465080149594
 30
0.0
 10
25.25100669936306
 20
-1.50465080149594
 30
0.0
 10
21.38254763360793
 20
-1.50465080149594
 30
0.0
 10
21.38254763360793
 20
-1.50465080149594
 30
0.0
 10
21.2322417796582
 20
-1.50465080149594
 30
0.0
 10
21.11039526273112
 20
-1.382803436858353
 30
0.0
 10
21.11039526273112
 20
-1.232498430619204
 30
0.0
 10
21.11039526273112
 20
-1.232498430619204
 30
0.0
 10
21.11039526273112
 20
1.334612266809182
 30
0.0
 10
21.11039526273112
 20
1.334612266809182
 30
0.0
 10
20.88152020847764
 20
1.150613311188522
 30
0.0
 10
20.86243654962348
 20
1.091473635624286
 30
0.0
 10
20.77592260648112
 20
1.091473635624286
 30
0.0
 10
20.64725710626418
 20
1.091473635624286
 30
0.0
 10
20.58813099406792
 20
1.252209719608661
 30
0.0
 10
20.6853667796582
 20
1.335724462989737
 30
0.0
 10
20.6853667796582
 20
1.335724462989737
 30
0.0
 10
23.22627050687182
 20
3.51819584428314
 30
0.0
 10
23.22627050687182
 20
3.51819584428314
 30
0.0
 10
23.26804737590388
 20
3.554098079526195
 30
0.0
 10
23.32968610203236
 20
3.562931222972376
 30
0.0
 10
23.3815337718457
 20
3.535599340919425
 30
0.0
 10
23.40314530342124
 20
3.524153553701542
 30
0.0
 10
23.28160396227541
 20
3.625946630958487
 30
0.0
 10
25.94818755331279
 20
1.335724462989737
 30
0.0
  0
SPLINE
  5
42
330
1F
100
AcDbEntity
  8
_U+0421_U+043B_U+043E_U+0439 1
 62
     1
420
 16711680
370
     9
100
AcDbSpline
210
0.0
220
0.0
230
1.0
 70
    11
 71
     3
 72
   200
 73
   196
 74
     0
 42
0.0000000001
 43
0.0000000001
 12
1.0
 22
0.0
 32
0.0
 13
1.0
 23
0.0
 33
0.0
 40
0.0
 40
0.0
 40
0.0
 40
0.0
 40
1.0
 40
1.0
 40
1.0
 40
2.0
 40
2.0
 40
2.0
 40
3.0
 40
3.0
 40
3.0
 40
4.0
 40
4.0
 40
4.0
 40
5.0
 40
5.0
 40
5.0
 40
6.0
 40
6.0
 40
6.0
 40
7.0
 40
7.0
 40
7.0
 40
8.0
 40
8.0
 40
8.0
 40
9.0
 40
9.0
 40
9.0
 40
10.0
 40
10.0
 40
10.0
 40
11.0
 40
11.0
 40
11.0
 40
12.0
 40
12.0
 40
12.0
 40
13.0
 40
13.0
 40
13.0
 40
14.0
 40
14.0
 40
14.0
 40
15.0
 40
15.0
 40
15.0
 40
16.0
 40
16.0
 40
16.0
 40
17.0
 40
17.0
 40
17.0
 40
18.0
 40
18.0
 40
18.0
 40
19.0
 40
19.0
 40
19.0
 40
20.0
 40
20.0
 40
20.0
 40
21.0
 40
21.0
 40
21.0
 40
22.0
 40
22.0
 40
22.0
 40
23.0
 40
23.0
 40
23.0
 40
24.0
 40
24.0
 40
24.0
 40
25.0
 40
25.0
 40
25.0
 40
26.0
 40
26.0
 40
26.0
 40
27.0
 40
27.0
 40
27.0
 40
28.0
 40
28.0
 40
28.0
 40
29.0
 40
29.0
 40
29.0
 40
30.0
 40
30.0
 40
30.0
 40
31.0
 40
31.0
 40
31.0
 40
32.0
 40
32.0
 40
32.0
 40
33.0
 40
33.0
 40
33.0
 40
34.0
 40
34.0
 40
34.0
 40
35.0
 40
35.0
 40
35.0
 40
36.0
 40
36.0
 40
36.0
 40
37.0
 40
37.0
 40
37.0
 40
38.0
 40
38.0
 40
38.0
 40
39.0
 40
39.0
 40
39.0
 40
40.0
 40
40.0
 40
40.0
 40
41.0
 40
41.0
 40
41.0
 40
42.0
 40
42.0
 40
42.0
 40
43.0
 40
43.0
 40
43.0
 40
44.0
 40
44.0
 40
44.0
 40
45.0
 40
45.0
 40
45.0
 40
46.0
 40
46.0
 40
46.0
 40
47.0
 40
47.0
 40
47.0
 40
48.0
 40
48.0
 40
48.0
 40
49.0
 40
49.0
 40
49.0
 40
50.0
 40
50.0
 40
50.0
 40
51.0
 40
51.0
 40
51.0
 40
52.0
 40
52.0
 40
52.0
 40
53.0
 40
53.0
 40
53.0
 40
54.0
 40
54.0
 40
54.0
 40
55.0
 40
55.0
 40
55.0
 40
56.0
 40
56.0
 40
56.0
 40
57.0
 40
57.0
 40
57.0
 40
58.0
 40
58.0
 40
58.0
 40
59.0
 40
59.0
 40
59.0
 40
60.0
 40
60.0
 40
60.0
 40
61.0
 40
61.0
 40
61.0
 40
62.0
 40
62.0
 40
62.0
 40
63.0
 40
63.0
 40
63.0
 40
64.0
 40
64.0
 40
64.0
 40
65.0
 40
65.0
 40
65.0
 40
65.0
 10
25.93683501425029
 20
-4.904061473153925
 30
0.0
 10
26.03412844415473
 20
-4.987631317717728
 30
0.0
 10
25.97489043417209
 20
-5.148311452808874
 30
0.0
 10
25.84627918742737
 20
-5.148311452808874
 30
0.0
 10
25.75947363187182
 20
-5.148311452808874
 30
0.0
 10
25.73419829550029
 20
-5.083964291621808
 30
0.0
 10
25.51180653117737
 20
-4.905159258255922
 30
0.0
 10
25.51180653117737
 20
-4.905159258255922
 30
0.0
 10
25.51180653117737
 20
-6.533172869095766
 30
0.0
 10
25.51180653117737
 20
-6.533172869095766
 30
0.0
 10
25.51180653117737
 20
-6.551617354230315
 30
0.0
 10
25.49233631633362
 20
-6.563492082962953
 30
0.0
 10
25.47598906698459
 20
-6.554936988561912
 30
0.0
 10
25.23235028660264
 20
-6.427311629132658
 30
0.0
 10
24.70708512275723
 20
-6.661464528980749
 30
0.0
 10
24.6936675609082
 20
-6.663770301550193
 30
0.0
 10
24.63822390313918
 20
-6.58472892649594
 30
0.0
 10
24.57432009454543
 20
-6.477575775725541
 30
0.0
 10
24.47013986451071
 20
-6.387464996916947
 30
0.0
 10
24.2988480893371
 20
-6.239311479935609
 30
0.0
 10
24.12930598864265
 20
-6.040145287986825
 30
0.0
 10
24.12930598864265
 20
-6.040145287986825
 30
0.0
 10
24.24444542006626
 20
-5.993950999521113
 30
0.0
 10
24.24532025730585
 20
-5.869797862314082
 30
0.0
 10
24.13680653117737
 20
-5.916394813268943
 30
0.0
 10
24.13680653117737
 20
-5.916394813268943
 30
0.0
 10
24.03958430895515
 20
-5.953437219139169
 30
0.0
 10
23.95394520305237
 20
-5.924506555076669
 30
0.0
 10
23.81453073365126
 20
-5.877409454924759
 30
0.0
 10
23.54884978475805
 20
-5.933755924380054
 30
0.0
 10
23.50486378215388
 20
-6.116631663583613
 30
0.0
 10
23.38218311809138
 20
-6.130520552472502
 30
0.0
 10
23.44005800958444
 20
-6.155978146602276
 30
0.0
 10
23.50486378215388
 20
-6.195339888410002
 30
0.0
 10
23.44236378215388
 20
-6.329589257713387
 30
0.0
 10
23.51412756253583
 20
-6.378200368824499
 30
0.0
 10
23.51412756253583
 20
-6.378200368824499
 30
0.0
 10
23.51412756253583
 20
-6.378200368824499
 30
0.0
 10
23.31968311809138
 20
-6.727742774694724
 30
0.0
 10
23.53496089586916
 20
-6.966173221743335
 30
0.0
 10
23.6404754222364
 20
-7.083034353199499
 30
0.0
 10
23.77769601685446
 20
-7.141048269215124
 30
0.0
 10
23.92859865899848
 20
-7.163575328134382
 30
0.0
 10
23.93032120674153
 20
-7.198562036033687
 30
0.0
 10
23.94084977119473
 20
-7.259200463768062
 30
0.0
 10
23.98905737210612
 20
-7.300005856563201
 30
0.0
 10
23.98905737210612
 20
-7.300005856563201
 30
0.0
 10
23.88459909302626
 20
-7.316894792923891
 30
0.0
 10
23.84379370023112
 20
-7.379617740786304
 30
0.0
 10
23.8311967221496
 20
-7.398964189896534
 30
0.0
 10
23.85236235800029
 20
-7.422255883689937
 30
0.0
 10
23.87328046238389
 20
-7.412464827374846
 30
0.0
 10
23.93462757609917
 20
-7.383769826832299
 30
0.0
 10
23.99561186971904
 20
-7.390117483082299
 30
0.0
 10
23.99561186971904
 20
-7.390117483082299
 30
0.0
 10
23.99561186971904
 20
-7.390117483082299
 30
0.0
 10
23.9509476987121
 20
-7.41368722592084
 30
0.0
 10
23.97811173408528
 20
-7.479881548294984
 30
0.0
 10
23.98584963556098
 20
-7.498769809878101
 30
0.0
 10
24.01221004137695
 20
-7.497936510453201
 30
0.0
 10
24.02030737210612
 20
-7.479200836760697
 30
0.0
 10
24.04454511082139
 20
-7.423131568640037
 30
0.0
 10
24.11935047648987
 20
-7.390117483082299
 30
0.0
 10
24.11935047648987
 20
-7.390117483082299
 30
0.0
 10
24.11935047648987
 20
-7.390117483082299
 30
0.0
 10
24.20415543525723
 20
-7.387742198251582
 30
0.0
 10
24.24532025730585
 20
-7.433159136185609
 30
0.0
 10
24.26126738729709
 20
-7.450742347448617
 30
0.0
 10
24.28983523126418
 20
-7.433755924380054
 30
0.0
 10
24.28352826511835
 20
-7.410867740786304
 30
0.0
 10
24.27032093547417
 20
-7.362936493498965
 30
0.0
 10
24.20487768460612
 20
-7.336089501854012
 30
0.0
 10
24.15541886299153
 20
-7.312589271276742
 30
0.0
 10
24.21293432523112
 20
-7.274520287986812
 30
0.0
 10
24.25541818482321
 20
-7.201478160165632
 30
0.0
 10
24.27404408000542
 20
-7.16503423791087
 30
0.0
 10
24.32409968981445
 20
-7.159728417869637
 30
0.0
 10
24.3742095530957
 20
-7.152631385534568
 30
0.0
 10
24.4238480893371
 20
-7.144409441361391
 30
0.0
 10
24.60340334649848
 20
-7.115242266068409
 30
0.0
 10
25.34383439033528
 20
-7.027755998978578
 30
0.0
 10
25.48757218330403
 20
-6.913867788258092
 30
0.0
 10
25.4973784984082
 20
-6.906103607756791
 30
0.0
 10
25.51179296780932
 20
-6.913422740243769
 30
0.0
 10
25.51179296780932
 20
-6.925936642696026
 30
0.0
 10
25.51179296780932
 20
-6.925936642696026
 30
0.0
 10
25.51180653117737
 20
-7.472284366762854
 30
0.0
 10
25.51180653117737
 20
-7.472284366762854
 30
0.0
 10
25.51180653117737
 20
-7.622589373002016
 30
0.0
 10
25.38996001425029
 20
-7.74443673763959
 30
0.0
 10
25.23965416030056
 20
-7.74443673763959
 30
0.0
 10
25.23965416030056
 20
-7.74443673763959
 30
0.0
 10
21.37119678996638
 20
-7.74443673763959
 30
0.0
 10
21.37119678996638
 20
-7.74443673763959
 30
0.0
 10
21.22090619480585
 20
-7.74443673763959
 30
0.0
 10
21.09905798245763
 20
-7.622603360225323
 30
0.0
 10
21.09905798245763
 20
-7.472297930130909
 30
0.0
 10
21.09905798245763
 20
-7.472297930130909
 30
0.0
 10
21.09905798245763
 20
-6.93306164947771
 30
0.0
 10
21.09905798245763
 20
-6.93306164947771
 30
0.0
 10
21.09905798245763
 20
-6.917701135154793
 30
0.0
 10
21.11632245457139
 20
-6.909089244150019
 30
0.0
 10
21.12880923028749
 20
-6.918019874304099
 30
0.0
 10
21.28500328139431
 20
-7.029881209210783
 30
0.0
 10
22.00954483955403
 20
-7.115589827374846
 30
0.0
 10
22.18689265856445
 20
-7.144409441361391
 30
0.0
 10
22.23653119480585
 20
-7.152631385534568
 30
0.0
 10
22.2866410580871
 20
-7.159728417869637
 30
0.0
 10
22.33669666789612
 20
-7.16503423791087
 30
0.0
 10
22.35532256307834
 20
-7.201478160165632
 30
0.0
 10
22.39780811809138
 20
-7.274520287986812
 30
0.0
 10
22.45532188491001
 20
-7.312589271276742
 30
0.0
 10
22.40405913534404
 20
-7.336937212357484
 30
0.0
 10
22.34158626208015
 20
-7.362659292164342
 30
0.0
 10
22.32761429756179
 20
-7.409478343271113
 30
0.0
 10
22.32068341648541
 20
-7.432714935881791
 30
0.0
 10
22.3502396908996
 20
-7.449019799705562
 30
0.0
 10
22.36697519165902
 20
-7.431492537335771
 30
0.0
 10
22.40868424385098
 20
-7.387798147144799
 30
0.0
 10
22.49139196683263
 20
-7.390117483082299
 30
0.0
 10
22.49139196683263
 20
-7.390117483082299
 30
0.0
 10
22.49139196683263
 20
-7.390117483082299
 30
0.0
 10
22.56619733250111
 20
-7.423131568640037
 30
0.0
 10
22.59041981242737
 20
-7.479200836760697
 30
0.0
 10
22.59851714315654
 20
-7.497936510453201
 30
0.0
 10
22.62486398560446
 20
-7.498769809878101
 30
0.0
 10
22.63261375502707
 20
-7.479895111663041
 30
0.0
 10
22.65979474461041
 20
-7.41368722592084
 30
0.0
 10
22.61512718276152
 20
-7.390117483082299
 30
0.0
 10
22.61512718276152
 20
-7.390117483082299
 30
0.0
 10
22.61512718276152
 20
-7.390117483082299
 30
0.0
 10
22.67614199395944
 20
-7.383756263464242
 30
0.0
 10
22.73750267104277
 20
-7.412478390742901
 30
0.0
 10
22.75814103096028
 20
-7.422144833613995
 30
0.0
 10
22.77946095012263
 20
-7.398937063160424
 30
0.0
 10
22.76707250882487
 20
-7.379811866491599
 30
0.0
 10
22.72635019165902
 20
-7.316922767370492
 30
0.0
 10
22.65219756307834
 20
-7.317020254078405
 30
0.0
 10
22.65219756307834
 20
-7.317020254078405
 30
0.0
 10
22.65219756307834
 20
-7.317020254078405
 30
0.0
 10
22.62168337579543
 20
-7.300005856563201
 30
0.0
 10
22.62168337579543
 20
-7.300005856563201
 30
0.0
 10
22.66989097670681
 20
-7.259200463768062
 30
0.0
 10
22.68040597779196
 20
-7.198562036033687
 30
0.0
 10
22.68214208890307
 20
-7.163575328134382
 30
0.0
 10
22.83304473104709
 20
-7.141048269215124
 30
0.0
 10
22.9702670210861
 20
-7.083034353199499
 30
0.0
 10
23.07578154745334
 20
-6.966173221743335
 30
0.0
 10
23.29105932523112
 20
-6.727742774694724
 30
0.0
 10
23.09661488078667
 20
-6.378200368824499
 30
0.0
 10
23.09661488078667
 20
-6.378200368824499
 30
0.0
 10
23.09661488078667
 20
-6.378200368824499
 30
0.0
 10
23.16837866116862
 20
-6.329589257713387
 30
0.0
 10
23.10587866116862
 20
-6.195339888410002
 30
0.0
 10
23.17068273831708
 20
-6.155978146602276
 30
0.0
 10
23.22855932523112
 20
-6.130520552472502
 30
0.0
 10
23.10587866116862
 20
-6.116631663583613
 30
0.0
 10
23.06189265856445
 20
-5.933755924380054
 30
0.0
 10
22.79621170967124
 20
-5.877409454924759
 30
0.0
 10
22.65679384942819
 20
-5.924506555076669
 30
0.0
 10
22.57115643894639
 20
-5.953437219139169
 30
0.0
 10
22.47393421672417
 20
-5.916394813268943
 30
0.0
 10
22.47393421672417
 20
-5.916394813268943
 30
0.0
 10
22.36540523180666
 20
-5.869797862314082
 30
0.0
 10
22.36629532783528
 20
-5.993950999521113
 30
0.0
 10
22.48143306383791
 20
-6.040145287986825
 30
0.0
 10
22.48143306383791
 20
-6.040145287986825
 30
0.0
 10
22.31189265856445
 20
-6.239311479935609
 30
0.0
 10
22.14060088339084
 20
-6.387464996916947
 30
0.0
 10
22.03640539456708
 20
-6.477575775725541
 30
0.0
 10
21.97250328139431
 20
-6.58472892649594
 30
0.0
 10
21.91705792820416
 20
-6.663770301550193
 30
0.0
 10
21.91441985311735
 20
-6.663506663583613
 30
0.0
 10
21.36589181763571
 20
-6.427381141393943
 30
0.0
 10
21.13914112590388
 20
-6.549811730857918
 30
0.0
 10
21.12103063870763
 20
-6.559589223804967
 30
0.0
 10
21.09905798245763
 20
-6.547187219139168
 30
0.0
 10
21.09905798245763
 20
-6.526603112693856
 30
0.0
 10
21.09905798245763
 20
-6.526603112693856
 30
0.0
 10
21.09905798245763
 20
-4.905172821623978
 30
0.0
 10
21.09905798245763
 20
-4.905172821623978
 30
0.0
 10
20.8701693648361
 20
-5.089172624955141
 30
0.0
 10
20.85110096477112
 20
-5.148311452808874
 30
0.0
 10
20.76457176283957
 20
-5.148311452808874
 30
0.0
 10
20.63590626262263
 20
-5.148311452808874
 30
0.0
 10
20.57679540921557
 20
-4.987575368824499
 30
0.0
 10
20.67401763143779
 20
-4.904061473153925
 30
0.0
 10
20.67401763143779
 20
-4.904061473153925
 30
0.0
 10
23.21493322659833
 20
-2.72158924415002
 30
0.0
 10
23.21493322659833
 20
-2.72158924415002
 30
0.0
 10
23.25671179105138
 20
-2.685687008906964
 30
0.0
 10
23.31833695381179
 20
-2.67685301775028
 30
0.0
 10
23.37019818699335
 20
-2.704186595224238
 30
0.0
 10
23.39180802314778
 20
-2.715631534731617
 30
0.0
 10
23.27026668200195
 20
-2.613839305185176
 30
0.0
 10
25.93683501425029
 20
-4.904061473153925
 30
0.0
  0
SPLINE
  5
43
330
1F
100
AcDbEntity
  8
_U+0421_U+043B_U+043E_U+0439 1
 62
     1
420
 16711680
370
     9
100
AcDbSpline
210
0.0
220
0.0
230
1.0
 70
    11
 71
     3
 72
    29
 73
    25
 74
     0
 42
0.0000000001
 43
0.0000000001
 12
1.0
 22
0.0
 32
0.0
 13
1.0
 23
0.0
 33
0.0
 40
0.0
 40
0.0
 40
0.0
 40
0.0
 40
1.0
 40
1.0
 40
1.0
 40
2.0
 40
2.0
 40
2.0
 40
3.0
 40
3.0
 40
3.0
 40
4.0
 40
4.0
 40
4.0
 40
5.0
 40
5.0
 40
5.0
 40
6.0
 40
6.0
 40
6.0
 40
7.0
 40
7.0
 40
7.0
 40
8.0
 40
8.0
 40
8.0
 40
8.0
 10
23.13023847019639
 20
-3.522075490894811
 30
0.0
 10
22.96497561212348
 20
-3.418130924380054
 30
0.0
 10
22.76444799710612
 20
-3.596173018292815
 30
0.0
 10
22.85064150567819
 20
-3.77283927805844
 30
0.0
 10
22.94732288859917
 20
-3.971006019323631
 30
0.0
 10
23.32066985311735
 20
-3.992269989592728
 30
0.0
 10
23.35887786092985
 20
-3.993936588442554
 30
0.0
 10
23.35887786092985
 20
-3.993936588442554
 30
0.0
 10
23.35954416138571
 20
-3.995298011511131
 30
0.0
 10
23.35954416138571
 20
-3.995298011511131
 30
0.0
 10
23.35954416138571
 20
-3.995298011511131
 30
0.0
 10
23.35989172269208
 20
-3.994825836760697
 30
0.0
 10
23.36048851088652
 20
-3.994006100703839
 30
0.0
 10
23.36151763143779
 20
-3.994047638518509
 30
0.0
 10
23.36210085626418
 20
-3.994062049597068
 30
0.0
 10
23.36210085626418
 20
-3.994062049597068
 30
0.0
 10
23.36210085626418
 20
-3.994062049597068
 30
0.0
 10
23.36143286038737
 20
-3.992687063160436
 30
0.0
 10
23.36143286038737
 20
-3.992687063160436
 30
0.0
 10
23.38364118015736
 20
-3.961548113236391
 30
0.0
 10
23.59664200752278
 20
-3.654200497676495
 30
0.0
 10
23.49994706123374
 20
-3.456033756411304
 30
0.0
 10
23.41372473050458
 20
-3.279297984384395
 30
0.0
 10
23.15000368829543
 20
-3.327964196678231
 30
0.0
 10
23.13023847019639
 20
-3.522075490894811
 30
0.0
  0
SPLINE
  5
44
330
1F
100
AcDbEntity
  8
_U+0421_U+043B_U+043E_U+0439 1
 62
     1
420
 16711680
370
     9
100
AcDbSpline
210
0.0
220
0.0
230
1.0
 70
    11
 71
     3
 72
    29
 73
    25
 74
     0
 42
0.0000000001
 43
0.0000000001
 12
1.0
 22
0.0
 32
0.0
 13
1.0
 23
0.0
 33
0.0
 40
0.0
 40
0.0
 40
0.0
 40
0.0
 40
1.0
 40
1.0
 40
1.0
 40
2.0
 40
2.0
 40
2.0
 40
3.0
 40
3.0
 40
3.0
 40
4.0
 40
4.0
 40
4.0
 40
5.0
 40
5.0
 40
5.0
 40
6.0
 40
6.0
 40
6.0
 40
7.0
 40
7.0
 40
7.0
 40
8.0
 40
8.0
 40
8.0
 40
8.0
 10
22.86997439142043
 20
-5.021853390742901
 30
0.0
 10
22.93336448744902
 20
-5.138700958831009
 30
0.0
 10
23.15878088284833
 20
-5.141812056378752
 30
0.0
 10
23.18183691312182
 20
-5.141812056378752
 30
0.0
 10
23.18183691312182
 20
-5.141812056378752
 30
0.0
 10
23.18228111342556
 20
-5.14261738135705
 30
0.0
 10
23.18228111342556
 20
-5.14261738135705
 30
0.0
 10
23.18228111342556
 20
-5.14261738135705
 30
0.0
 10
23.18247439142043
 20
-5.142325768943857
 30
0.0
 10
23.1828219527268
 20
-5.141812056378752
 30
0.0
 10
23.1828219527268
 20
-5.141812056378752
 30
0.0
 10
23.1837798655957
 20
-5.141812056378752
 30
0.0
 10
23.1837798655957
 20
-5.141812056378752
 30
0.0
 10
23.1837798655957
 20
-5.141812056378752
 30
0.0
 10
23.18335092408097
 20
-5.14100588368995
 30
0.0
 10
23.18335092408097
 20
-5.14100588368995
 30
0.0
 10
23.19591908000542
 20
-5.121659434579707
 30
0.0
 10
23.31622445923722
 20
-4.931005951506791
 30
0.0
 10
23.25283605862958
 20
-4.814159231129186
 30
0.0
 10
23.1963090268371
 20
-4.709951026647849
 30
0.0
 10
23.03872473050458
 20
-4.746117747567988
 30
0.0
 10
23.03186336168945
 20
-4.863547692771982
 30
0.0
 10
22.92962777954972
 20
-4.805228600975107
 30
0.0
 10
22.81346092299582
 20
-4.917686724076234
 30
0.0
 10
22.86997439142043
 20
-5.021853390742901
 30
0.0
  0
SPLINE
  5
45
330
1F
100
AcDbEntity
  8
_U+0421_U+043B_U+043E_U+0439 1
 62
     1
420
 16711680
370
     9
100
AcDbSpline
210
0.0
220
0.0
230
1.0
 70
    11
 71
     3
 72
    29
 73
    25
 74
     0
 42
0.0000000001
 43
0.0000000001
 12
1.0
 22
0.0
 32
0.0
 13
1.0
 23
0.0
 33
0.0
 40
0.0
 40
0.0
 40
0.0
 40
0.0
 40
1.0
 40
1.0
 40
1.0
 40
2.0
 40
2.0
 40
2.0
 40
3.0
 40
3.0
 40
3.0
 40
4.0
 40
4.0
 40
4.0
 40
5.0
 40
5.0
 40
5.0
 40
6.0
 40
6.0
 40
6.0
 40
7.0
 40
7.0
 40
7.0
 40
8.0
 40
8.0
 40
8.0
 40
8.0
 10
23.30896127564347
 20
-5.810700572275019
 30
0.0
 10
23.31604474461041
 20
-5.799783756411304
 30
0.0
 10
23.38390566583444
 20
-5.692242354230315
 30
0.0
 10
23.34815601848193
 20
-5.626339644269377
 30
0.0
 10
23.31626684476237
 20
-5.567561941090124
 30
0.0
 10
23.2273776167893
 20
-5.587951074119638
 30
0.0
 10
23.22351714315654
 20
-5.654200497676495
 30
0.0
 10
23.16582196629014
 20
-5.621298309905228
 30
0.0
 10
23.10032276652888
 20
-5.684742659406096
 30
0.0
 10
23.13219668145944
 20
-5.743492388138734
 30
0.0
 10
23.16794802423293
 20
-5.809395098099672
 30
0.0
 10
23.29509951349069
 20
-5.811159183657398
 30
0.0
 10
23.30811356513999
 20
-5.811159183657398
 30
0.0
 10
23.30811356513999
 20
-5.811159183657398
 30
0.0
 10
23.30836448744902
 20
-5.811617795039776
 30
0.0
 10
23.30836448744902
 20
-5.811617795039776
 30
0.0
 10
23.30836448744902
 20
-5.811617795039776
 30
0.0
 10
23.30846112644639
 20
-5.811450796070592
 30
0.0
 10
23.30865609986222
 20
-5.811159183657398
 30
0.0
 10
23.30865609986222
 20
-5.811159183657398
 30
0.0
 10
23.30921050253154
 20
-5.811159183657398
 30
0.0
 10
23.30921050253154
 20
-5.811159183657398
 30
0.0
 10
23.30921050253154
 20
-5.811159183657398
 30
0.0
 10
23.30896127564347
 20
-5.810700572275019
 30
0.0
 10
23.30896127564347
 20
-5.810700572275019
 30
0.0
  0
SPLINE
  5
46
330
1F
100
AcDbEntity
  8
_U+0421_U+043B_U+043E_U+0439 1
 62
     1
420
 16711680
370
     9
100
AcDbSpline
210
0.0
220
0.0
230
1.0
 70
    11
 71
     3
 72
    29
 73
    25
 74
     0
 42
0.0000000001
 43
0.0000000001
 12
1.0
 22
0.0
 32
0.0
 13
1.0
 23
0.0
 33
0.0
 40
0.0
 40
0.0
 40
0.0
 40
0.0
 40
1.0
 40
1.0
 40
1.0
 40
2.0
 40
2.0
 40
2.0
 40
3.0
 40
3.0
 40
3.0
 40
4.0
 40
4.0
 40
4.0
 40
5.0
 40
5.0
 40
5.0
 40
6.0
 40
6.0
 40
6.0
 40
7.0
 40
7.0
 40
7.0
 40
8.0
 40
8.0
 40
8.0
 40
8.0
 10
23.61054445977973
 20
-5.426700429859655
 30
0.0
 10
23.66200048734057
 20
-5.369978424651322
 30
0.0
 10
23.60628047594721
 20
-5.28163088368995
 30
0.0
 10
23.53322478475805
 20
-5.302548140363127
 30
0.0
 10
23.54693395902013
 20
-5.22775633806278
 30
0.0
 10
23.45354508369473
 20
-5.180978824770679
 30
0.0
 10
23.40211448744902
 20
-5.237686418900453
 30
0.0
 10
23.34443287395068
 20
-5.301297767370506
 30
0.0
 10
23.39071108575624
 20
-5.439381331281096
 30
0.0
 10
23.39562780667638
 20
-5.453437219139169
 30
0.0
 10
23.39562780667638
 20
-5.453437219139169
 30
0.0
 10
23.39522599189778
 20
-5.453881419442988
 30
0.0
 10
23.39522599189778
 20
-5.453881419442988
 30
0.0
 10
23.39522599189778
 20
-5.453881419442988
 30
0.0
 10
23.39544809204972
 20
-5.453936520625714
 30
0.0
 10
23.39583634346028
 20
-5.454034007333613
 30
0.0
 10
23.39596180461487
 20
-5.454408695376148
 30
0.0
 10
23.39604488024416
 20
-5.454631643238561
 30
0.0
 10
23.39604488024416
 20
-5.454631643238561
 30
0.0
 10
23.39604488024416
 20
-5.454631643238561
 30
0.0
 10
23.39644669502278
 20
-5.454186595224238
 30
0.0
 10
23.39644669502278
 20
-5.454186595224238
 30
0.0
 10
23.41091880873806
 20
-5.45771476633969
 30
0.0
 10
23.55286454170249
 20
-5.490325341697763
 30
0.0
 10
23.61054445977973
 20
-5.426700429859655
 30
0.0
  0
SPLINE
  5
47
330
1F
100
AcDbEntity
  8
_U+0421_U+043B_U+043E_U+0439 1
 62
     1
420
 16711680
370
     9
100
AcDbSpline
210
0.0
220
0.0
230
1.0
 70
    11
 71
     3
 72
    29
 73
    25
 74
     0
 42
0.0000000001
 43
0.0000000001
 12
1.0
 22
0.0
 32
0.0
 13
1.0
 23
0.0
 33
0.0
 40
0.0
 40
0.0
 40
0.0
 40
0.0
 40
1.0
 40
1.0
 40
1.0
 40
2.0
 40
2.0
 40
2.0
 40
3.0
 40
3.0
 40
3.0
 40
4.0
 40
4.0
 40
4.0
 40
5.0
 40
5.0
 40
5.0
 40
6.0
 40
6.0
 40
6.0
 40
7.0
 40
7.0
 40
7.0
 40
8.0
 40
8.0
 40
8.0
 40
8.0
 10
23.91123754788737
 20
-4.566061493498978
 30
0.0
 10
24.00186458239265
 20
-4.425172855532398
 30
0.0
 10
23.84990399754014
 20
-4.254603329707745
 30
0.0
 10
23.69979481242737
 20
-4.325964447600541
 30
0.0
 10
23.70250070435446
 20
-4.159686880054967
 30
0.0
 10
23.48423898560446
 20
-4.092298133581443
 30
0.0
 10
23.39364246867737
 20
-4.233117259286738
 30
0.0
 10
23.29203080146804
 20
-4.391075395951235
 30
0.0
 10
23.44147538154624
 20
-4.672381344844464
 30
0.0
 10
23.45714107165041
 20
-4.700950884232484
 30
0.0
 10
23.45714107165041
 20
-4.700950884232484
 30
0.0
 10
23.45644764445862
 20
-4.702047821623978
 30
0.0
 10
23.45644764445862
 20
-4.702047821623978
 30
0.0
 10
23.45644764445862
 20
-4.702047821623978
 30
0.0
 10
23.45694779365554
 20
-4.702089359438648
 30
0.0
 10
23.45780906752707
 20
-4.702158871699933
 30
0.0
 10
23.4582244456739
 20
-4.702922658863561
 30
0.0
 10
23.45847536798293
 20
-4.703353295799325
 30
0.0
 10
23.45847536798293
 20
-4.703353295799325
 30
0.0
 10
23.45847536798293
 20
-4.703353295799325
 30
0.0
 10
23.45918405396376
 20
-4.702256358407832
 30
0.0
 10
23.45918405396376
 20
-4.702256358407832
 30
0.0
 10
23.49167001587777
 20
-4.704673181053232
 30
0.0
 10
23.80962757609917
 20
-4.724034041242033
 30
0.0
 10
23.91123754788737
 20
-4.566061493498978
 30
0.0
  0
SPLINE
  5
48
330
1F
100
AcDbEntity
  8
_U+0421_U+043B_U+043E_U+0439 1
 62
     1
420
 16711680
370
     9
100
AcDbSpline
210
0.0
220
0.0
230
1.0
 70
    11
 71
     3
 72
    23
 73
    19
 74
     0
 42
0.0000000001
 43
0.0000000001
 12
1.0
 22
0.0
 32
0.0
 13
1.0
 23
0.0
 33
0.0
 40
0.0
 40
0.0
 40
0.0
 40
0.0
 40
1.0
 40
1.0
 40
1.0
 40
2.0
 40
2.0
 40
2.0
 40
3.0
 40
3.0
 40
3.0
 40
4.0
 40
4.0
 40
4.0
 40
5.0
 40
5.0
 40
5.0
 40
6.0
 40
6.0
 40
6.0
 40
6.0
 10
23.23498836168945
 20
-5.67676994212094
 30
0.0
 10
23.23498836168945
 20
-5.67676994212094
 30
0.0
 10
23.23629383586487
 20
-5.654437008906964
 30
0.0
 10
23.23629383586487
 20
-5.654437008906964
 30
0.0
 10
23.23930829441514
 20
-5.602519826832311
 30
0.0
 10
23.30947498820862
 20
-5.585562225920853
 30
0.0
 10
23.33486391778749
 20
-5.632394840395679
 30
0.0
 10
23.33486391778749
 20
-5.632394840395679
 30
0.0
 10
23.33486391778749
 20
-5.632381277027624
 30
0.0
 10
23.33486391778749
 20
-5.632381277027624
 30
0.0
 10
23.35947464912429
 20
-5.677756677146982
 30
0.0
 10
23.32614097670681
 20
-5.754159129403925
 30
0.0
 10
23.30001623441083
 20
-5.796561608787607
 30
0.0
 10
23.15501704821291
 20
-5.791755937943422
 30
0.0
 10
23.10590578790473
 20
-5.719867544117467
 30
0.0
 10
23.15278078790473
 20
-5.67396486806495
 30
0.0
 10
23.1895171702832
 20
-5.637992272850107
 30
0.0
 10
23.22948841594292
 20
-5.675951053774585
 30
0.0
 10
23.23498836168945
 20
-5.67676994212094
 30
0.0
  0
SPLINE
  5
49
330
1F
100
AcDbEntity
  8
_U+0421_U+043B_U+043E_U+0439 1
 62
     1
420
 16711680
370
     9
100
AcDbSpline
210
0.0
220
0.0
230
1.0
 70
    11
 71
     3
 72
    26
 73
    22
 74
     0
 42
0.0000000001
 43
0.0000000001
 12
1.0
 22
0.0
 32
0.0
 13
1.0
 23
0.0
 33
0.0
 40
0.0
 40
0.0
 40
0.0
 40
0.0
 40
1.0
 40
1.0
 40
1.0
 40
2.0
 40
2.0
 40
2.0
 40
3.0
 40
3.0
 40
3.0
 40
4.0
 40
4.0
 40
4.0
 40
5.0
 40
5.0
 40
5.0
 40
6.0
 40
6.0
 40
6.0
 40
7.0
 40
7.0
 40
7.0
 40
7.0
 10
23.04333627564347
 20
-4.886131548294984
 30
0.0
 10
23.04333627564347
 20
-4.886131548294984
 30
0.0
 10
23.04464174981874
 20
-4.86378420400245
 30
0.0
 10
23.04464174981874
 20
-4.86378420400245
 30
0.0
 10
23.05069779365554
 20
-4.760089712086217
 30
0.0
 10
23.18986473158957
 20
-4.728617611934308
 30
0.0
 10
23.23954395793513
 20
-4.820200863887433
 30
0.0
 10
23.23954395793513
 20
-4.820200863887433
 30
0.0
 10
23.23954395793513
 20
-4.820214427255488
 30
0.0
 10
23.23954395793513
 20
-4.820214427255488
 30
0.0
 10
23.28658680461487
 20
-4.906895369367033
 30
0.0
 10
23.22216928345597
 20
-5.051312178449065
 30
0.0
 10
23.17417021932834
 20
-5.127311968216859
 30
0.0
 10
23.08429425632916
 20
-5.126117544117467
 30
0.0
 10
22.92812733195862
 20
-5.101353377179533
 30
0.0
 10
22.88109974406792
 20
-5.014658871699933
 30
0.0
 10
22.85364240086041
 20
-4.964034448143075
 30
0.0
 10
22.87400271173293
 20
-4.916603350052797
 30
0.0
 10
22.89976632935446
 20
-4.891367008364429
 30
0.0
 10
22.96726612590388
 20
-4.825283736066252
 30
0.0
 10
23.03921131633362
 20
-4.885756012541947
 30
0.0
 10
23.04333627564347
 20
-4.886131548294984
 30
0.0
  0
SPLINE
  5
4A
330
1F
100
AcDbEntity
  8
_U+0421_U+043B_U+043E_U+0439 1
 62
     1
420
 16711680
370
     9
100
AcDbSpline
210
0.0
220
0.0
230
1.0
 70
    11
 71
     3
 72
    23
 73
    19
 74
     0
 42
0.0000000001
 43
0.0000000001
 12
1.0
 22
0.0
 32
0.0
 13
1.0
 23
0.0
 33
0.0
 40
0.0
 40
0.0
 40
0.0
 40
0.0
 40
1.0
 40
1.0
 40
1.0
 40
2.0
 40
2.0
 40
2.0
 40
3.0
 40
3.0
 40
3.0
 40
4.0
 40
4.0
 40
4.0
 40
5.0
 40
5.0
 40
5.0
 40
6.0
 40
6.0
 40
6.0
 40
6.0
 10
23.40422528660264
 20
-4.240061703731183
 30
0.0
 10
23.48707203410693
 20
-4.111256331281096
 30
0.0
 10
23.68730634129014
 20
-4.17243644602719
 30
0.0
 10
23.68482085409404
 20
-4.325172685990298
 30
0.0
 10
23.68482085409404
 20
-4.325172685990298
 30
0.0
 10
23.68444786147251
 20
-4.347533593650888
 30
0.0
 10
23.68444786147251
 20
-4.347533593650888
 30
0.0
 10
23.68958498712348
 20
-4.346714705304533
 30
0.0
 10
23.79690513686306
 20
-4.275631636456877
 30
0.0
 10
23.88459909302626
 20
-4.37538088368995
 30
0.0
 10
23.9306840268371
 20
-4.427770240515037
 30
0.0
 10
23.93612632826931
 20
-4.499436534189082
 30
0.0
 10
23.89847441854709
 20
-4.55797857384837
 30
0.0
 10
23.80579253378154
 20
-4.702062232702537
 30
0.0
 10
23.52061424330832
 20
-4.691742205033266
 30
0.0
 10
23.46529435127278
 20
-4.688256419442988
 30
0.0
 10
23.43918317234486
 20
-4.639269772578839
 30
0.0
 10
23.31157222399416
 20
-4.384117388138735
 30
0.0
 10
23.40422528660264
 20
-4.240061703731183
 30
0.0
  0
SPLINE
  5
4B
330
1F
100
AcDbEntity
  8
_U+0421_U+043B_U+043E_U+0439 1
 62
     1
420
 16711680
370
     9
100
AcDbSpline
210
0.0
220
0.0
230
1.0
 70
    11
 71
     3
 72
    23
 73
    19
 74
     0
 42
0.0000000001
 43
0.0000000001
 12
1.0
 22
0.0
 32
0.0
 13
1.0
 23
0.0
 33
0.0
 40
0.0
 40
0.0
 40
0.0
 40
0.0
 40
1.0
 40
1.0
 40
1.0
 40
2.0
 40
2.0
 40
2.0
 40
3.0
 40
3.0
 40
3.0
 40
4.0
 40
4.0
 40
4.0
 40
5.0
 40
5.0
 40
5.0
 40
6.0
 40
6.0
 40
6.0
 40
6.0
 10
23.14072464912429
 20
-3.545186622350974
 30
0.0
 10
23.14169782078236
 20
-3.542825748598804
 30
0.0
 10
23.14085011027888
 20
-3.389922509666512
 30
0.0
 10
23.29207318699335
 20
-3.362992442392207
 30
0.0
 10
23.37385012384223
 20
-3.348409278600974
 30
0.0
 10
23.45008642484057
 20
-3.387130998978578
 30
0.0
 10
23.4863921702832
 20
-3.461548113236391
 30
0.0
 10
23.57580867418945
 20
-3.644812103850541
 30
0.0
 10
23.38792042277888
 20
-3.928422977602711
 30
0.0
 10
23.35246069241862
 20
-3.979200836760697
 30
0.0
 10
23.29055917603402
 20
-3.975867639061044
 30
0.0
 10
22.95141902575195
 20
-3.949353797643943
 30
0.0
 10
22.86204490737082
 20
-3.766172882659134
 30
0.0
 10
22.82573916192819
 20
-3.691756616111825
 30
0.0
 10
22.84216948690654
 20
-3.607839210241599
 30
0.0
 10
22.90392011082139
 20
-3.552381141393943
 30
0.0
 10
23.01862720988818
 20
-3.449422462194724
 30
0.0
 10
23.13930897258362
 20
-3.545020471092294
 30
0.0
 10
23.14072464912429
 20
-3.545186622350974
 30
0.0
  0
SPLINE
  5
4C
330
1F
100
AcDbEntity
  8
_U+0421_U+043B_U+043E_U+0439 1
 62
     1
420
 16711680
370
     9
100
AcDbSpline
210
0.0
220
0.0
230
1.0
 70
    11
 71
     3
 72
    23
 73
    19
 74
     0
 42
0.0000000001
 43
0.0000000001
 12
1.0
 22
0.0
 32
0.0
 13
1.0
 23
0.0
 33
0.0
 40
0.0
 40
0.0
 40
0.0
 40
0.0
 40
1.0
 40
1.0
 40
1.0
 40
2.0
 40
2.0
 40
2.0
 40
3.0
 40
3.0
 40
3.0
 40
4.0
 40
4.0
 40
4.0
 40
5.0
 40
5.0
 40
5.0
 40
6.0
 40
6.0
 40
6.0
 40
6.0
 10
23.41133588230585
 20
-5.246436486717294
 30
0.0
 10
23.43447498820862
 20
-5.220894969247675
 30
0.0
 10
23.46530791464084
 20
-5.223033742847936
 30
0.0
 10
23.48464249580403
 20
-5.232589983353578
 30
0.0
 10
23.53748876859057
 20
-5.258686751202971
 30
0.0
 10
23.51373931112529
 20
-5.316200518021547
 30
0.0
 10
23.51443273831708
 20
-5.321492774694724
 30
0.0
 10
23.51443273831708
 20
-5.321492774694724
 30
0.0
 10
23.53596119426318
 20
-5.315339244150019
 30
0.0
 10
23.53596119426318
 20
-5.315339244150019
 30
0.0
 10
23.59583668254443
 20
-5.298201080901322
 30
0.0
 10
23.64103152032668
 20
-5.370672699553666
 30
0.0
 10
23.59918344361222
 20
-5.416798323468596
 30
0.0
 10
23.55201683119902
 20
-5.468797733462085
 30
0.0
 10
23.43507177640307
 20
-5.447950836760697
 30
0.0
 10
23.40539173625542
 20
-5.44164556603587
 30
0.0
 10
23.38759998820862
 20
-5.387103872242467
 30
0.0
 10
23.37075258966249
 20
-5.291172713117033
 30
0.0
 10
23.41133588230585
 20
-5.246436486717294
 30
0.0
  0
SPLINE
  5
4D
330
1F
100
AcDbEntity
  8
_U+0421_U+043B_U+043E_U+0439 1
 62
     1
420
 16711680
370
     9
100
AcDbSpline
210
0.0
220
0.0
230
1.0
 70
    11
 71
     3
 72
   110
 73
   106
 74
     0
 42
0.0000000001
 43
0.0000000001
 12
1.0
 22
0.0
 32
0.0
 13
1.0
 23
0.0
 33
0.0
 40
0.0
 40
0.0
 40
0.0
 40
0.0
 40
1.0
 40
1.0
 40
1.0
 40
2.0
 40
2.0
 40
2.0
 40
3.0
 40
3.0
 40
3.0
 40
4.0
 40
4.0
 40
4.0
 40
5.0
 40
5.0
 40
5.0
 40
6.0
 40
6.0
 40
6.0
 40
7.0
 40
7.0
 40
7.0
 40
8.0
 40
8.0
 40
8.0
 40
9.0
 40
9.0
 40
9.0
 40
10.0
 40
10.0
 40
10.0
 40
11.0
 40
11.0
 40
11.0
 40
12.0
 40
12.0
 40
12.0
 40
13.0
 40
13.0
 40
13.0
 40
14.0
 40
14.0
 40
14.0
 40
15.0
 40
15.0
 40
15.0
 40
16.0
 40
16.0
 40
16.0
 40
17.0
 40
17.0
 40
17.0
 40
18.0
 40
18.0
 40
18.0
 40
19.0
 40
19.0
 40
19.0
 40
20.0
 40
20.0
 40
20.0
 40
21.0
 40
21.0
 40
21.0
 40
22.0
 40
22.0
 40
22.0
 40
23.0
 40
23.0
 40
23.0
 40
24.0
 40
24.0
 40
24.0
 40
25.0
 40
25.0
 40
25.0
 40
26.0
 40
26.0
 40
26.0
 40
27.0
 40
27.0
 40
27.0
 40
28.0
 40
28.0
 40
28.0
 40
29.0
 40
29.0
 40
29.0
 40
30.0
 40
30.0
 40
30.0
 40
31.0
 40
31.0
 40
31.0
 40
32.0
 40
32.0
 40
32.0
 40
33.0
 40
33.0
 40
33.0
 40
34.0
 40
34.0
 40
34.0
 40
35.0
 40
35.0
 40
35.0
 40
35.0
 10
23.86736344306973
 20
-7.399894976029359
 30
0.0
 10
23.85945939033528
 20
-7.403658810664776
 30
0.0
 10
23.85046009563042
 20
-7.394881616111812
 30
0.0
 10
23.85533612644639
 20
-7.387353099130488
 30
0.0
 10
23.88834936429362
 20
-7.336367550899151
 30
0.0
 10
23.96125246759223
 20
-7.318895389712085
 30
0.0
 10
24.02102962145515
 20
-7.308866974456009
 30
0.0
 10
24.02102962145515
 20
-7.308866974456009
 30
0.0
 10
23.99802954007487
 20
-7.289408627559308
 30
0.0
 10
23.99802954007487
 20
-7.289408627559308
 30
0.0
 10
23.9532670346496
 20
-7.251533769974659
 30
0.0
 10
23.94400325426765
 20
-7.193880978633526
 30
0.0
 10
23.94246042115126
 20
-7.16288105323205
 30
0.0
 10
23.94246042115126
 20
-7.16288105323205
 30
0.0
 10
23.94189075969292
 20
-7.151520037064516
 30
0.0
 10
23.94189075969292
 20
-7.151520037064516
 30
0.0
 10
23.90618180244473
 20
-7.140937219139168
 30
0.0
 10
23.70355864706279
 20
-7.132187151322328
 30
0.0
 10
23.54526736017043
 20
-6.956867055836217
 30
0.0
 10
23.40246204875542
 20
-6.798714793466425
 30
0.0
 10
23.43378156101666
 20
-6.554922577483353
 30
0.0
 10
23.53218379625971
 20
-6.373978770517207
 30
0.0
 10
23.53218379625971
 20
-6.373978770517207
 30
0.0
 10
23.52202991984917
 20
-6.366784251474238
 30
0.0
 10
23.52202991984917
 20
-6.366784251474238
 30
0.0
 10
23.51951730591696
 20
-6.365006602548457
 30
0.0
 10
23.46126603096028
 20
-6.321922563919984
 30
0.0
 10
23.51746076023541
 20
-6.201200958831009
 30
0.0
 10
23.51746076023541
 20
-6.201200958831009
 30
0.0
 10
23.52271147909404
 20
-6.189923018292815
 30
0.0
 10
23.52271147909404
 20
-6.189923018292815
 30
0.0
 10
23.50578100491862
 20
-6.180061602005922
 30
0.0
 10
23.45748863295681
 20
-6.15186759837094
 30
0.0
 10
23.44864192614265
 20
-6.142353743390471
 30
0.0
 10
23.46479420207568
 20
-6.134062286956009
 30
0.0
 10
23.51336462308263
 20
-6.129798303123544
 30
0.0
 10
23.51609933716696
 20
-6.129339691741166
 30
0.0
 10
23.51609933716696
 20
-6.129339691741166
 30
0.0
 10
23.51837798300029
 20
-6.119880937943422
 30
0.0
 10
23.51837798300029
 20
-6.119880937943422
 30
0.0
 10
23.55833566529196
 20
-5.953728831552363
 30
0.0
 10
23.8058501780957
 20
-5.889158722502884
 30
0.0
 10
23.94948963664612
 20
-5.937658783538041
 30
0.0
 10
24.03887562297417
 20
-5.967853383961217
 30
0.0
 10
24.13759998820862
 20
-5.93096441369212
 30
0.0
 10
24.14229291355585
 20
-5.929158790319724
 30
0.0
 10
24.17378027249682
 20
-5.915645437183874
 30
0.0
 10
24.20722414727973
 20
-5.913617713659568
 30
0.0
 10
24.20269737319126
 20
-5.947215024043683
 30
0.0
 10
24.19466785930237
 20
-6.006700565493335
 30
0.0
 10
24.10836414836487
 20
-6.033020281205141
 30
0.0
 10
24.10619740031792
 20
-6.034450368824499
 30
0.0
 10
24.20713937622946
 20
-6.152700897795853
 30
0.0
 10
24.34348852444987
 20
-6.296284407452971
 30
0.0
 10
24.46105918959751
 20
-6.397978302581009
 30
0.0
 10
24.55915624905932
 20
-6.482825646873543
 30
0.0
 10
24.61589181763571
 20
-6.575770321895245
 30
0.0
 10
24.68876440335612
 20
-6.680950850324065
 30
0.0
 10
24.84816788642903
 20
-6.613701128373109
 30
0.0
 10
25.09075211494473
 20
-6.537269853959047
 30
0.0
 10
25.26701486451071
 20
-6.529770159134828
 30
0.0
 10
25.3490155969325
 20
-6.526297936912606
 30
0.0
 10
25.40783653334751
 20
-6.541033688594464
 30
0.0
 10
25.4461394847364
 20
-6.556631561858353
 30
0.0
 10
25.47740643894639
 20
-6.569381127830574
 30
0.0
 10
25.49791764228848
 20
-6.599589291621808
 30
0.0
 10
25.49791764228848
 20
-6.633367164343162
 30
0.0
 10
25.49791764228848
 20
-6.633367164343162
 30
0.0
 10
25.49790407892043
 20
-6.875450395951234
 30
0.0
 10
25.49790407892043
 20
-6.875450395951234
 30
0.0
 10
25.50019628812182
 20
-6.997006148175627
 30
0.0
 10
24.38540611342556
 20
-7.137478560285002
 30
0.0
 10
24.26509903877278
 20
-7.152020186261565
 30
0.0
 10
24.23783666898112
 20
-7.201867259286738
 30
0.0
 10
24.20220909194126
 20
-7.264978458559729
 30
0.0
 10
24.14775216919821
 20
-7.301006154957299
 30
0.0
 10
24.14775216919821
 20
-7.301006154957299
 30
0.0
 10
24.12722401164612
 20
-7.314589868064937
 30
0.0
 10
24.12722401164612
 20
-7.314589868064937
 30
0.0
 10
24.12722401164612
 20
-7.314589868064937
 30
0.0
 10
24.16215646607321
 20
-7.331117679751148
 30
0.0
 10
24.16215646607321
 20
-7.331117679751148
 30
0.0
 10
24.20809898451931
 20
-7.352645287986812
 30
0.0
 10
24.2601958812207
 20
-7.377061893618335
 30
0.0
 10
24.27026668200195
 20
-7.415047801278925
 30
0.0
 10
24.27262670804362
 20
-7.423950456986391
 30
0.0
 10
24.26037559584751
 20
-7.42878410227719
 30
0.0
 10
24.25382109823459
 20
-7.42190917009403
 30
0.0
 10
24.2212113705871
 20
-7.387742198251582
 30
0.0
 10
24.16272273668945
 20
-7.375312219139168
 30
0.0
 10
24.11623768352112
 20
-7.376311669822762
 30
0.0
 10
24.07411325318251
 20
-7.395186791893062
 30
0.0
 10
24.02613962037001
 20
-7.430714339093596
 30
0.0
 10
24.00757136950195
 20
-7.473686479935609
 30
0.0
 10
24.00561485366001
 20
-7.478214949445146
 30
0.0
 10
24.00130848430237
 20
-7.480089237368335
 30
0.0
 10
23.99847374037876
 20
-7.47977049821903
 30
0.0
 10
23.99644601685446
 20
-7.479742523772416
 30
0.0
 10
23.99278051663737
 20
-7.479048248870072
 30
0.0
 10
23.99097319784404
 20
-7.474617266068409
 30
0.0
 10
23.96336157132487
 20
-7.407367544117467
 30
0.0
 10
24.01183704875542
 20
-7.398506426224659
 30
0.0
 10
24.04255807740126
 20
-7.381047828405662
 30
0.0
 10
24.02512575860793
 20
-7.380769779360523
 30
0.0
 10
23.95093413534404
 20
-7.36076974545209
 30
0.0
 10
23.86736344306973
 20
-7.399894976029359
 30
0.0
  0
SPLINE
  5
4E
330
1F
100
AcDbEntity
  8
_U+0421_U+043B_U+043E_U+0439 1
 62
     1
420
 16711680
370
     9
100
AcDbSpline
210
0.0
220
0.0
230
1.0
 70
    11
 71
     3
 72
    26
 73
    22
 74
     0
 42
0.0000000001
 43
0.0000000001
 12
1.0
 22
0.0
 32
0.0
 13
1.0
 23
0.0
 33
0.0
 40
0.0
 40
0.0
 40
0.0
 40
0.0
 40
1.0
 40
1.0
 40
1.0
 40
2.0
 40
2.0
 40
2.0
 40
3.0
 40
3.0
 40
3.0
 40
4.0
 40
4.0
 40
4.0
 40
5.0
 40
5.0
 40
5.0
 40
6.0
 40
6.0
 40
6.0
 40
7.0
 40
7.0
 40
7.0
 40
7.0
 10
24.68191829333015
 20
-6.826867259286738
 30
0.0
 10
24.46705758912001
 20
-6.817144867522416
 30
0.0
 10
24.15337757609917
 20
-6.76588127024594
 30
0.0
 10
24.03253135756626
 20
-6.589381161738995
 30
0.0
 10
23.88882069133362
 20
-6.379548228525019
 30
0.0
 10
24.02452897041348
 20
-6.252617143998109
 30
0.0
 10
24.03034765530932
 20
-6.247339298403491
 30
0.0
 10
24.03034765530932
 20
-6.247339298403491
 30
0.0
 10
24.07287559584751
 20
-6.209172828405662
 30
0.0
 10
24.07287559584751
 20
-6.209172828405662
 30
0.0
 10
24.07287559584751
 20
-6.209172828405662
 30
0.0
 10
24.01757096260098
 20
-6.223561866491599
 30
0.0
 10
24.01757096260098
 20
-6.223561866491599
 30
0.0
 10
23.49540502835612
 20
-6.359478682355315
 30
0.0
 10
23.85297270956279
 20
-6.906242632279359
 30
0.0
 10
24.22522273668945
 20
-6.924492143998109
 30
0.0
 10
24.22522273668945
 20
-6.924492143998109
 30
0.0
 10
24.22522273668945
 20
-6.924492143998109
 30
0.0
 10
24.22522273668945
 20
-6.924492143998109
 30
0.0
 10
24.48148901273112
 20
-6.936950945267641
 30
0.0
 10
24.67076581394639
 20
-6.830617530554099
 30
0.0
 10
24.68191829333015
 20
-6.826867259286738
 30
0.0
  0
SPLINE
  5
4F
330
1F
100
AcDbEntity
  8
_U+0421_U+043B_U+043E_U+0439 1
 62
     1
420
 16711680
370
     9
100
AcDbSpline
210
0.0
220
0.0
230
1.0
 70
    11
 71
     3
 72
    17
 73
    13
 74
     0
 42
0.0000000001
 43
0.0000000001
 12
1.0
 22
0.0
 32
0.0
 13
1.0
 23
0.0
 33
0.0
 40
0.0
 40
0.0
 40
0.0
 40
0.0
 40
1.0
 40
1.0
 40
1.0
 40
2.0
 40
2.0
 40
2.0
 40
3.0
 40
3.0
 40
3.0
 40
4.0
 40
4.0
 40
4.0
 40
4.0
 10
25.41458430895515
 20
-6.738214542544116
 30
0.0
 10
25.41458430895515
 20
-6.699922611391773
 30
0.0
 10
25.38341908000542
 20
-6.668770098099672
 30
0.0
 10
25.34513986451071
 20
-6.668770098099672
 30
0.0
 10
25.30685047648987
 20
-6.668770098099672
 30
0.0
 10
25.27569542006626
 20
-6.699922611391773
 30
0.0
 10
25.27569542006626
 20
-6.738214542544116
 30
0.0
 10
25.27569542006626
 20
-6.77650647369646
 30
0.0
 10
25.30685047648987
 20
-6.807658986988561
 30
0.0
 10
25.34513986451071
 20
-6.807658986988561
 30
0.0
 10
25.38341908000542
 20
-6.807658986988561
 30
0.0
 10
25.41458430895515
 20
-6.77650647369646
 30
0.0
 10
25.41458430895515
 20
-6.738214542544116
 30
0.0
  0
SPLINE
  5
50
330
1F
100
AcDbEntity
  8
_U+0421_U+043B_U+043E_U+0439 1
 62
     1
420
 16711680
370
     9
100
AcDbSpline
210
0.0
220
0.0
230
1.0
 70
    11
 71
     3
 72
    11
 73
     7
 74
     0
 42
0.0000000001
 43
0.0000000001
 12
1.0
 22
0.0
 32
0.0
 13
1.0
 23
0.0
 33
0.0
 40
0.0
 40
0.0
 40
0.0
 40
0.0
 40
1.0
 40
1.0
 40
1.0
 40
2.0
 40
2.0
 40
2.0
 40
2.0
 10
23.76904258803501
 20
-6.11203368181278
 30
0.0
 10
23.76904258803501
 20
-6.019506080358787
 30
0.0
 10
23.63421084161569
 20
-6.019506080358787
 30
0.0
 10
23.63421084161569
 20
-6.111965017261999
 30
0.0
 10
23.63421084161569
 20
-6.204589257713388
 30
0.0
 10
23.76904258803501
 20
-6.204340030825366
 30
0.0
 10
23.76904258803501
 20
-6.11203368181278
 30
0.0
  0
SPLINE
  5
51
330
1F
100
AcDbEntity
  8
_U+0421_U+043B_U+043E_U+0439 1
 62
     1
420
 16711680
370
     9
100
AcDbSpline
210
0.0
220
0.0
230
1.0
 70
    11
 71
     3
 72
   101
 73
    97
 74
     0
 42
0.0000000001
 43
0.0000000001
 12
1.0
 22
0.0
 32
0.0
 13
1.0
 23
0.0
 33
0.0
 40
0.0
 40
0.0
 40
0.0
 40
0.0
 40
1.0
 40
1.0
 40
1.0
 40
2.0
 40
2.0
 40
2.0
 40
3.0
 40
3.0
 40
3.0
 40
4.0
 40
4.0
 40
4.0
 40
5.0
 40
5.0
 40
5.0
 40
6.0
 40
6.0
 40
6.0
 40
7.0
 40
7.0
 40
7.0
 40
8.0
 40
8.0
 40
8.0
 40
9.0
 40
9.0
 40
9.0
 40
10.0
 40
10.0
 40
10.0
 40
11.0
 40
11.0
 40
11.0
 40
12.0
 40
12.0
 40
12.0
 40
13.0
 40
13.0
 40
13.0
 40
14.0
 40
14.0
 40
14.0
 40
15.0
 40
15.0
 40
15.0
 40
16.0
 40
16.0
 40
16.0
 40
17.0
 40
17.0
 40
17.0
 40
18.0
 40
18.0
 40
18.0
 40
19.0
 40
19.0
 40
19.0
 40
20.0
 40
20.0
 40
20.0
 40
21.0
 40
21.0
 40
21.0
 40
22.0
 40
22.0
 40
22.0
 40
23.0
 40
23.0
 40
23.0
 40
24.0
 40
24.0
 40
24.0
 40
25.0
 40
25.0
 40
25.0
 40
26.0
 40
26.0
 40
26.0
 40
27.0
 40
27.0
 40
27.0
 40
28.0
 40
28.0
 40
28.0
 40
29.0
 40
29.0
 40
29.0
 40
30.0
 40
30.0
 40
30.0
 40
31.0
 40
31.0
 40
31.0
 40
32.0
 40
32.0
 40
32.0
 40
32.0
 10
22.3569060862989
 20
-7.42190917009403
 30
0.0
 10
22.35033632989694
 20
-7.428812076723804
 30
0.0
 10
22.33810047648987
 20
-7.423950456986391
 30
0.0
 10
22.34047576132055
 20
-7.415062212357484
 30
0.0
 10
22.35216908000542
 20
-7.370881236337507
 30
0.0
 10
22.42623863295681
 20
-7.34146483415653
 30
0.0
 10
22.48348960951931
 20
-7.314589868064937
 30
0.0
 10
22.46716948690654
 20
-7.297839956226842
 30
0.0
 10
22.42760005602541
 20
-7.301853865460771
 30
0.0
 10
22.34564170912876
 20
-7.152020186261565
 30
0.0
 10
22.22762853909833
 20
-7.137228485686465
 30
0.0
 10
21.11055802314778
 20
-6.996992584807572
 30
0.0
 10
21.11283666898112
 20
-6.875186757984655
 30
0.0
 10
21.11283666898112
 20
-6.875186757984655
 30
0.0
 10
21.11282310561306
 20
-6.640381121048891
 30
0.0
 10
21.11282310561306
 20
-6.640381121048891
 30
0.0
 10
21.11282310561306
 20
-6.601200789288908
 30
0.0
 10
21.13742027358181
 20
-6.5665065415133
 30
0.0
 10
21.17418378269639
 20
-6.552937239484221
 30
0.0
 10
21.36882320055666
 20
-6.481117510209047
 30
0.0
 10
21.73123978584304
 20
-6.600492103308006
 30
0.0
 10
21.92197464912429
 20
-6.680950850324065
 30
0.0
 10
22.18707237319126
 20
-6.298284156530662
 30
0.0
 10
22.15715497410264
 20
-6.441381080358787
 30
0.0
 10
22.50453147963652
 20
-6.034450368824499
 30
0.0
 10
22.50453147963652
 20
-6.034450368824499
 30
0.0
 10
22.48660070706708
 20
-6.027256697492033
 30
0.0
 10
22.48660070706708
 20
-6.027256697492033
 30
0.0
 10
22.39501745511388
 20
-5.990520315113561
 30
0.0
 10
22.37475378323888
 20
-5.888895084536304
 30
0.0
 10
22.46897511027888
 20
-5.929380890471634
 30
0.0
 10
22.47314245511388
 20
-5.93096441369212
 30
0.0
 10
22.57187868829543
 20
-5.967839820593162
 30
0.0
 10
22.66123924330832
 20
-5.937658783538041
 30
0.0
 10
22.80207278009223
 20
-5.890103919714256
 30
0.0
 10
23.05203039456708
 20
-5.952200409514603
 30
0.0
 10
23.09235089695416
 20
-6.119880937943422
 30
0.0
 10
23.09235089695416
 20
-6.119880937943422
 30
0.0
 10
23.09462784736653
 20
-6.129339691741166
 30
0.0
 10
23.09462784736653
 20
-6.129339691741166
 30
0.0
 10
23.09797460843432
 20
-6.12989494212094
 30
0.0
 10
23.14579395793513
 20
-6.133992774694724
 30
0.0
 10
23.16210051717985
 20
-6.142353743390471
 30
0.0
 10
23.1531283492111
 20
-6.15199221181495
 30
0.0
 10
23.1180026167893
 20
-6.171839657832745
 30
0.0
 10
23.08803096422846
 20
-6.189923018292815
 30
0.0
 10
23.08803096422846
 20
-6.189923018292815
 30
0.0
 10
23.09327998766596
 20
-6.201200958831009
 30
0.0
 10
23.09327998766596
 20
-6.201200958831009
 30
0.0
 10
23.14947471694126
 20
-6.321922563919984
 30
0.0
 10
23.09121157403749
 20
-6.365006602548457
 30
0.0
 10
23.08882272583876
 20
-6.366701175844898
 30
0.0
 10
23.08882272583876
 20
-6.366701175844898
 30
0.0
 10
23.07829416138571
 20
-6.373839745994637
 30
0.0
 10
23.07829416138571
 20
-6.373839745994637
 30
0.0
 10
23.28533558391167
 20
-6.753450443423023
 30
0.0
 10
23.10540563870763
 20
-7.086395525345766
 30
0.0
 10
22.68010080201071
 20
-7.149839874846634
 30
0.0
 10
22.68010080201071
 20
-7.149839874846634
 30
0.0
 10
22.66883642484057
 20
-7.151520037064516
 30
0.0
 10
22.66883642484057
 20
-7.151520037064516
 30
0.0
 10
22.66883642484057
 20
-7.151520037064516
 30
0.0
 10
22.66826676338223
 20
-7.16288105323205
 30
0.0
 10
22.66826676338223
 20
-7.16288105323205
 30
0.0
 10
22.66321101793945
 20
-7.265172584265037
 30
0.0
 10
22.60139257718432
 20
-7.296117408483787
 30
0.0
 10
22.59739138360793
 20
-7.302367578025887
 30
0.0
 10
22.59739138360793
 20
-7.302367578025887
 30
0.0
 10
22.64859987970168
 20
-7.330909142967293
 30
0.0
 10
22.64859987970168
 20
-7.330909142967293
 30
0.0
 10
22.71779509725805
 20
-7.331464393347068
 30
0.0
 10
22.76407161364265
 20
-7.386436724076234
 30
0.0
 10
22.75455860637263
 20
-7.397423052201234
 30
0.0
 10
22.75375328139431
 20
-7.398325863887433
 30
0.0
 10
22.74946047540473
 20
-7.402755998978578
 30
0.0
 10
22.74337730483181
 20
-7.399894976029359
 30
0.0
 10
22.67928021824335
 20
-7.369895349021981
 30
0.0
 10
22.61634958130751
 20
-7.376034468488127
 30
0.0
 10
22.61368268406361
 20
-7.376311669822762
 30
0.0
 10
22.61368268406361
 20
-7.376311669822762
 30
0.0
 10
22.56816910713223
 20
-7.381047828405662
 30
0.0
 10
22.56816910713223
 20
-7.381047828405662
 30
0.0
 10
22.56816910713223
 20
-7.381047828405662
 30
0.0
 10
22.60864219741001
 20
-7.402394874304099
 30
0.0
 10
22.60864219741001
 20
-7.402394874304099
 30
0.0
 10
22.60898975871638
 20
-7.402575436641326
 30
0.0
 10
22.64190635756626
 20
-7.420700334916078
 30
0.0
 10
22.61976755005751
 20
-7.474631677146981
 30
0.0
 10
22.6167937816114
 20
-7.48186773400462
 30
0.0
 10
22.60647544936306
 20
-7.481353173729012
 30
0.0
 10
22.6031693783996
 20
-7.473700891014168
 30
0.0
 10
22.5846146908996
 20
-7.430728750172155
 30
0.0
 10
22.53665631687611
 20
-7.395200355261117
 30
0.0
 10
22.49448950101237
 20
-7.376311669822762
 30
0.0
 10
22.44496116713652
 20
-7.377478119475541
 30
0.0
 10
22.39101626153749
 20
-7.386173086109655
 30
0.0
 10
22.3569060862989
 20
-7.42190917009403
 30
0.0
  0
SPLINE
  5
52
330
1F
100
AcDbEntity
  8
_U+0421_U+043B_U+043E_U+0439 1
 62
     1
420
 16711680
370
     9
100
AcDbSpline
210
0.0
220
0.0
230
1.0
 70
    11
 71
     3
 72
    23
 73
    19
 74
     0
 42
0.0000000001
 43
0.0000000001
 12
1.0
 22
0.0
 32
0.0
 13
1.0
 23
0.0
 33
0.0
 40
0.0
 40
0.0
 40
0.0
 40
0.0
 40
1.0
 40
1.0
 40
1.0
 40
2.0
 40
2.0
 40
2.0
 40
3.0
 40
3.0
 40
3.0
 40
4.0
 40
4.0
 40
4.0
 40
5.0
 40
5.0
 40
5.0
 40
6.0
 40
6.0
 40
6.0
 40
6.0
 10
22.85400352553501
 20
-6.514784332854447
 30
0.0
 10
22.88066910713223
 20
-6.256423364158699
 30
0.0
 10
22.54990603204543
 20
-6.217506670365297
 30
0.0
 10
22.53786345663305
 20
-6.209172828405662
 30
0.0
 10
22.53786345663305
 20
-6.209172828405662
 30
0.0
 10
22.58039139717124
 20
-6.247339298403491
 30
0.0
 10
22.58039139717124
 20
-6.247339298403491
 30
0.0
 10
22.58183589586916
 20
-6.248631209210783
 30
0.0
 10
22.72244733250111
 20
-6.378770030282832
 30
0.0
 10
22.57821108575624
 20
-6.589381161738995
 30
0.0
 10
22.45718345717556
 20
-6.766131344844464
 30
0.0
 10
22.14292021932834
 20
-6.81717284196903
 30
0.0
 10
21.92883601793945
 20
-6.826867259286738
 30
0.0
 10
22.0553500288986
 20
-6.88400633806278
 30
0.0
 10
22.18108584161569
 20
-6.925464467945592
 30
0.0
 10
22.34582311917638
 20
-6.925464467945592
 30
0.0
 10
22.60946108575624
 20
-6.925464467945592
 30
0.0
 10
22.83448922974501
 20
-6.703964495072328
 30
0.0
 10
22.85400352553501
 20
-6.514784332854447
 30
0.0
  0
SPLINE
  5
53
330
1F
100
AcDbEntity
  8
_U+0421_U+043B_U+043E_U+0439 1
 62
     1
420
 16711680
370
     9
100
AcDbSpline
210
0.0
220
0.0
230
1.0
 70
    11
 71
     3
 72
    17
 73
    13
 74
     0
 42
0.0000000001
 43
0.0000000001
 12
1.0
 22
0.0
 32
0.0
 13
1.0
 23
0.0
 33
0.0
 40
0.0
 40
0.0
 40
0.0
 40
0.0
 40
1.0
 40
1.0
 40
1.0
 40
2.0
 40
2.0
 40
2.0
 40
3.0
 40
3.0
 40
3.0
 40
4.0
 40
4.0
 40
4.0
 40
4.0
 10
21.33504532783528
 20
-6.738214542544116
 30
0.0
 10
21.33504532783528
 20
-6.699922611391773
 30
0.0
 10
21.30389196683263
 20
-6.668770098099672
 30
0.0
 10
21.26560088339084
 20
-6.668770098099672
 30
0.0
 10
21.22730810452807
 20
-6.668770098099672
 30
0.0
 10
21.19615643894639
 20
-6.699922611391773
 30
0.0
 10
21.19615643894639
 20
-6.738214542544116
 30
0.0
 10
21.19615643894639
 20
-6.77650647369646
 30
0.0
 10
21.22730810452807
 20
-6.807658986988561
 30
0.0
 10
21.26560088339084
 20
-6.807658986988561
 30
0.0
 10
21.30389196683263
 20
-6.807658986988561
 30
0.0
 10
21.33504532783528
 20
-6.77650647369646
 30
0.0
 10
21.33504532783528
 20
-6.738214542544116
 30
0.0
  0
SPLINE
  5
54
330
1F
100
AcDbEntity
  8
_U+0421_U+043B_U+043E_U+0439 1
 62
     1
420
 16711680
370
     9
100
AcDbSpline
210
0.0
220
0.0
230
1.0
 70
    11
 71
     3
 72
    14
 73
    10
 74
     0
 42
0.0000000001
 43
0.0000000001
 12
1.0
 22
0.0
 32
0.0
 13
1.0
 23
0.0
 33
0.0
 40
0.0
 40
0.0
 40
0.0
 40
0.0
 40
1.0
 40
1.0
 40
1.0
 40
2.0
 40
2.0
 40
2.0
 40
3.0
 40
3.0
 40
3.0
 40
3.0
 10
22.97652990628583
 20
-6.111965017261999
 30
0.0
 10
22.97652990628583
 20
-6.019701053774585
 30
0.0
 10
22.84169815986653
 20
-6.019409441361391
 30
0.0
 10
22.84169815986653
 20
-6.11203368181278
 30
0.0
 10
22.84169815986653
 20
-6.146450728253752
 30
0.0
 10
22.86485082913737
 20
-6.181297563919984
 30
0.0
 10
22.90911488078667
 20
-6.181297563919984
 30
0.0
 10
22.95337723701499
 20
-6.181297563919984
 30
0.0
 10
22.97652990628583
 20
-6.146422753807138
 30
0.0
 10
22.97652990628583
 20
-6.111965017261999
 30
0.0
  0
ENDSEC
  0
SECTION
  2
OBJECTS
  0
DICTIONARY
  5
C
330
0
100
AcDbDictionary
281
     1
  3
ACAD_GROUP
350
D
  3
ACAD_LAYOUT
350
1A
  3
ACAD_MATERIAL
350
3B
  3
ACAD_MLEADERSTYLE
350
56
  3
ACAD_MLINESTYLE
350
17
  3
ACAD_PLOTSETTINGS
350
19
  3
ACAD_PLOTSTYLENAME
350
E
  3
ACAD_TABLESTYLE
350
55
  3
ACAD_VISUALSTYLE
350
2A
  0
SUN
  5
3F
330
29
100
AcDbSun
 90
        1
290
     0
 63
     7
421
 16777215
 40
1.0
291
     1
 91
  2455826
 92
 54000000
292
     0
 70
     2
 71
   256
280
     1
  0
DICTIONARY
  5
D
102
{ACAD_REACTORS
330
C
102
}
330
C
100
AcDbDictionary
281
     1
  0
DICTIONARY
  5
1A
102
{ACAD_REACTORS
330
C
102
}
330
C
100
AcDbDictionary
281
     1
  3
Layout1
350
1E
  3
Layout2
350
26
  3
Model
350
22
  0
DICTIONARY
  5
3B
102
{ACAD_REACTORS
330
C
102
}
330
C
100
AcDbDictionary
281
     1
  3
ByBlock
350
3D
  3
ByLayer
350
3C
  3
Global
350
3E
  0
DICTIONARY
  5
56
102
{ACAD_REACTORS
330
C
102
}
330
C
100
AcDbDictionary
281
     1
  0
DICTIONARY
  5
17
102
{ACAD_REACTORS
330
C
102
}
330
C
100
AcDbDictionary
281
     1
  3
Standard
350
18
  0
DICTIONARY
  5
19
102
{ACAD_REACTORS
330
C
102
}
330
C
100
AcDbDictionary
281
     1
  0
ACDBDICTIONARYWDFLT
  5
E
102
{ACAD_REACTORS
330
C
102
}
330
C
100
AcDbDictionary
281
     1
  3
Normal
350
F
100
AcDbDictionaryWithDefault
340
F
  0
DICTIONARY
  5
55
102
{ACAD_REACTORS
330
C
102
}
330
C
100
AcDbDictionary
281
     1
  0
DICTIONARY
  5
2A
102
{ACAD_REACTORS
330
C
102
}
330
C
100
AcDbDictionary
281
     1
  3
2dWireframe
350
2F
  3
3D Hidden
350
31
  3
3dWireframe
350
30
  3
Basic
350
32
  3
Brighten
350
36
  3
ColorChange
350
3A
  3
Conceptual
350
34
  3
Dim
350
35
  3
Facepattern
350
39
  3
Flat
350
2B
  3
FlatWithEdges
350
2C
  3
Gouraud
350
2D
  3
GouraudWithEdges
350
2E
  3
Linepattern
350
38
  3
Realistic
350
33
  3
Thicken
350
37
  0
LAYOUT
  5
1E
102
{ACAD_REACTORS
330
1A
102
}
330
1A
100
AcDbPlotSettings
  1

  2
none_device
  4

  6

 40
0.0
 41
0.0
 42
0.0
 43
0.0
 44
0.0
 45
0.0
 46
0.0
 47
0.0
 48
0.0
 49
0.0
140
0.0
141
0.0
142
1.0
143
1.0
 70
   688
 72
     0
 73
     0
 74
     5
  7

 75
    16
 76
     0
 77
     2
 78
   300
147
1.0
148
0.0
149
0.0
100
AcDbLayout
  1
Layout1
 70
     1
 71
     1
 10
0.0
 20
0.0
 11
12.0
 21
9.0
 12
0.0
 22
0.0
 32
0.0
 14
1.000000000000000E+20
 24
1.000000000000000E+20
 34
1.000000000000000E+20
 15
-1.000000000000000E+20
 25
-1.000000000000000E+20
 35
-1.000000000000000E+20
146
0.0
 13
0.0
 23
0.0
 33
0.0
 16
1.0
 26
0.0
 36
0.0
 17
0.0
 27
1.0
 37
0.0
 76
     0
330
1B
  0
LAYOUT
  5
26
102
{ACAD_REACTORS
330
1A
102
}
330
1A
100
AcDbPlotSettings
  1

  2
none_device
  4

  6

 40
0.0
 41
0.0
 42
0.0
 43
0.0
 44
0.0
 45
0.0
 46
0.0
 47
0.0
 48
0.0
 49
0.0
140
0.0
141
0.0
142
1.0
143
1.0
 70
   688
 72
     0
 73
     0
 74
     5
  7

 75
    16
 76
     0
 77
     2
 78
   300
147
1.0
148
0.0
149
0.0
100
AcDbLayout
  1
Layout2
 70
     1
 71
     2
 10
0.0
 20
0.0
 11
0.0
 21
0.0
 12
0.0
 22
0.0
 32
0.0
 14
0.0
 24
0.0
 34
0.0
 15
0.0
 25
0.0
 35
0.0
146
0.0
 13
0.0
 23
0.0
 33
0.0
 16
1.0
 26
0.0
 36
0.0
 17
0.0
 27
1.0
 37
0.0
 76
     0
330
23
  0
LAYOUT
  5
22
102
{ACAD_REACTORS
330
1A
102
}
330
1A
100
AcDbPlotSettings
  1

  2
none_device
  4

  6

 40
0.0
 41
0.0
 42
0.0
 43
0.0
 44
0.0
 45
0.0
 46
0.0
 47
0.0
 48
0.0
 49
0.0
140
0.0
141
0.0
142
1.0
143
1.0
 70
  1712
 72
     0
 73
     0
 74
     0
  7

 75
     0
 76
     0
 77
     2
 78
   300
147
1.0
148
0.0
149
0.0
100
AcDbLayout
  1
Model
 70
     1
 71
     0
 10
0.0
 20
0.0
 11
12.0
 21
9.0
 12
0.0
 22
0.0
 32
0.0
 14
1.000000000000000E+20
 24
1.000000000000000E+20
 34
1.000000000000000E+20
 15
-1.000000000000000E+20
 25
-1.000000000000000E+20
 35
-1.000000000000000E+20
146
0.0
 13
0.0
 23
0.0
 33
0.0
 16
1.0
 26
0.0
 36
0.0
 17
0.0
 27
1.0
 37
0.0
 76
     0
330
1F
331
29
  0
MATERIAL
  5
3D
102
{ACAD_REACTORS
330
3B
102
}
330
3B
100
AcDbMaterial
  1
ByBlock
 72
     1
 94
      127
  0
MATERIAL
  5
3C
102
{ACAD_REACTORS
330
3B
102
}
330
3B
100
AcDbMaterial
  1
ByLayer
 72
     1
 94
      127
  0
MATERIAL
  5
3E
102
{ACAD_REACTORS
330
3B
102
}
330
3B
100
AcDbMaterial
  1
Global
 72
     1
 94
      127
  0
MLINESTYLE
  5
18
102
{ACAD_REACTORS
330
17
102
}
330
17
100
AcDbMlineStyle
  2
Standard
 70
     0
  3

 62
   256
 51
90.0
 52
90.0
 71
     2
 49
0.5
 62
   256
  6
BYLAYER
 49
-0.5
 62
   256
  6
BYLAYER
  0
ACDBPLACEHOLDER
  5
F
102
{ACAD_REACTORS
330
E
102
}
330
E
  0
VISUALSTYLE
  5
2F
102
{ACAD_REACTORS
330
2A
102
}
330
2A
100
AcDbVisualStyle
  2
2dWireframe
 70
     4
177
     2
291
     0
 71
     0
176
     1
 72
     2
176
     1
 73
     0
176
     1
 90
        0
176
     1
 40
-0.6
176
     1
 41
-30.0
176
     1
 62
     5
 63
     7
421
 16777215
176
     1
 74
     1
176
     1
 91
        4
176
     1
 64
     7
176
     1
 65
   257
176
     1
 75
     1
176
     1
175
     1
176
     1
 42
1.0
176
     1
 92
        0
176
     1
 66
   257
176
     1
 43
1.0
176
     1
 76
     1
176
     1
 77
     6
176
     1
 78
     2
176
     1
 67
     7
176
     1
 79
     5
176
     1
170
     0
176
     1
171
     0
176
     1
290
     0
176
     1
 93
        1
176
     1
 44
0.0
176
     1
173
     0
176
     1
  0
VISUALSTYLE
  5
31
102
{ACAD_REACTORS
330
2A
102
}
330
2A
100
AcDbVisualStyle
  2
3D Hidden
 70
     6
177
     2
291
     0
 71
     1
176
     1
 72
     2
176
     1
 73
     2
176
     1
 90
        0
176
     1
 40
-0.6
176
     1
 41
-30.0
176
     1
 62
     5
 63
     7
421
 16777215
176
     1
 74
     2
176
     1
 91
        2
176
     1
 64
     7
176
     1
 65
   257
176
     1
 75
     2
176
     1
175
     1
176
     1
 42
40.0
176
     1
 92
        0
176
     1
 66
   257
176
     1
 43
1.0
176
     1
 76
     1
176
     1
 77
     6
176
     1
 78
     2
176
     1
 67
     7
176
     1
 79
     3
176
     1
170
     0
176
     1
171
     0
176
     1
290
     0
176
     1
 93
        1
176
     1
 44
0.0
176
     1
173
     0
176
     1
  0
VISUALSTYLE
  5
30
102
{ACAD_REACTORS
330
2A
102
}
330
2A
100
AcDbVisualStyle
  2
3dWireframe
 70
     5
177
     2
291
     0
 71
     0
176
     1
 72
     2
176
     1
 73
     0
176
     1
 90
        0
176
     1
 40
-0.6
176
     1
 41
-30.0
176
     1
 62
     5
 63
     7
421
 16777215
176
     1
 74
     1
176
     1
 91
        4
176
     1
 64
     7
176
     1
 65
   257
176
     1
 75
     1
176
     1
175
     1
176
     1
 42
1.0
176
     1
 92
        0
176
     1
 66
   257
176
     1
 43
1.0
176
     1
 76
     1
176
     1
 77
     6
176
     1
 78
     2
176
     1
 67
     7
176
     1
 79
     5
176
     1
170
     0
176
     1
171
     0
176
     1
290
     0
176
     1
 93
        1
176
     1
 44
0.0
176
     1
173
     0
176
     1
  0
VISUALSTYLE
  5
32
102
{ACAD_REACTORS
330
2A
102
}
330
2A
100
AcDbVisualStyle
  2
Basic
 70
     7
177
     2
291
     1
 71
     1
176
     1
 72
     0
176
     1
 73
     1
176
     1
 90
        0
176
     1
 40
-0.6
176
     1
 41
-30.0
176
     1
 62
     5
 63
     7
421
 16777215
176
     1
 74
     0
176
     1
 91
        4
176
     1
 64
     7
176
     1
 65
   257
176
     1
 75
     1
176
     1
175
     1
176
     1
 42
1.0
176
     1
 92
        8
176
     1
 66
     7
176
     1
 43
1.0
176
     1
 76
     1
176
     1
 77
     6
176
     1
 78
     2
176
     1
 67
     7
176
     1
 79
     5
176
     1
170
     0
176
     1
171
     0
176
     1
290
     0
176
     1
 93
        1
176
     1
 44
0.0
176
     1
173
     0
176
     1
  0
VISUALSTYLE
  5
36
102
{ACAD_REACTORS
330
2A
102
}
330
2A
100
AcDbVisualStyle
  2
Brighten
 70
    12
177
     2
291
     1
 71
     2
176
     1
 72
     2
176
     1
 73
     0
176
     1
 90
        0
176
     1
 40
-0.6
176
     1
 41
-30.0
176
     1
 62
     5
 63
     7
421
 16777215
176
     1
 74
     1
176
     1
 91
        4
176
     1
 64
     7
176
     1
 65
   257
176
     1
 75
     1
176
     1
175
     1
176
     1
 42
1.0
176
     1
 92
        8
176
     1
 66
     7
176
     1
 43
1.0
176
     1
 76
     1
176
     1
 77
     6
176
     1
 78
     2
176
     1
 67
     7
176
     1
 79
     5
176
     1
170
     0
176
     1
171
     0
176
     1
290
     0
176
     1
 93
        1
176
     1
 44
50.0
176
     1
173
     0
176
     1
  0
VISUALSTYLE
  5
3A
102
{ACAD_REACTORS
330
2A
102
}
330
2A
100
AcDbVisualStyle
  2
ColorChange
 70
    16
177
     2
291
     1
 71
     2
176
     1
 72
     2
176
     1
 73
     3
176
     1
 90
        0
176
     1
 40
-0.6
176
     1
 41
-30.0
176
     1
 62
     5
 63
     8
421
  8421504
176
     1
 74
     1
176
     1
 91
        4
176
     1
 64
     7
176
     1
 65
   257
176
     1
 75
     1
176
     1
175
     1
176
     1
 42
1.0
176
     1
 92
        8
176
     1
 66
     8
424
  8421504
176
     1
 43
1.0
176
     1
 76
     1
176
     1
 77
     6
176
     1
 78
     2
176
     1
 67
     7
176
     1
 79
     5
176
     1
170
     0
176
     1
171
     0
176
     1
290
     0
176
     1
 93
        1
176
     1
 44
0.0
176
     1
173
     0
176
     1
  0
VISUALSTYLE
  5
34
102
{ACAD_REACTORS
330
2A
102
}
330
2A
100
AcDbVisualStyle
  2
Conceptual
 70
     9
177
     2
291
     0
 71
     3
176
     1
 72
     2
176
     1
 73
     0
176
     1
 90
        0
176
     1
 40
-0.6
176
     1
 41
-30.0
176
     1
 62
     5
 63
     7
421
 16777215
176
     1
 74
     2
176
     1
 91
        2
176
     1
 64
     7
176
     1
 65
   257
176
     1
 75
     1
176
     1
175
     1
176
     1
 42
40.0
176
     1
 92
        8
176
     1
 66
     7
176
     1
 43
1.0
176
     1
 76
     1
176
     1
 77
     6
176
     1
 78
     2
176
     1
 67
     7
176
     1
 79
     3
176
     1
170
     0
176
     1
171
     0
176
     1
290
     0
176
     1
 93
        1
176
     1
 44
0.0
176
     1
173
     0
176
     1
  0
VISUALSTYLE
  5
35
102
{ACAD_REACTORS
330
2A
102
}
330
2A
100
AcDbVisualStyle
  2
Dim
 70
    11
177
     2
291
     1
 71
     2
176
     1
 72
     2
176
     1
 73
     0
176
     1
 90
        0
176
     1
 40
-0.6
176
     1
 41
-30.0
176
     1
 62
     5
 63
     7
421
 16777215
176
     1
 74
     1
176
     1
 91
        4
176
     1
 64
     7
176
     1
 65
   257
176
     1
 75
     1
176
     1
175
     1
176
     1
 42
1.0
176
     1
 92
        8
176
     1
 66
     7
176
     1
 43
1.0
176
     1
 76
     1
176
     1
 77
     6
176
     1
 78
     2
176
     1
 67
     7
176
     1
 79
     5
176
     1
170
     0
176
     1
171
     0
176
     1
290
     0
176
     1
 93
        1
176
     1
 44
-50.0
176
     1
173
     0
176
     1
  0
VISUALSTYLE
  5
39
102
{ACAD_REACTORS
330
2A
102
}
330
2A
100
AcDbVisualStyle
  2
Facepattern
 70
    15
177
     2
291
     1
 71
     2
176
     1
 72
     2
176
     1
 73
     0
176
     1
 90
        0
176
     1
 40
-0.6
176
     1
 41
-30.0
176
     1
 62
     5
 63
     7
421
 16777215
176
     1
 74
     1
176
     1
 91
        4
176
     1
 64
     7
176
     1
 65
   257
176
     1
 75
     1
176
     1
175
     1
176
     1
 42
1.0
176
     1
 92
        8
176
     1
 66
     7
176
     1
 43
1.0
176
     1
 76
     1
176
     1
 77
     6
176
     1
 78
     2
176
     1
 67
     7
176
     1
 79
     5
176
     1
170
     0
176
     1
171
     0
176
     1
290
     0
176
     1
 93
        1
176
     1
 44
0.0
176
     1
173
     0
176
     1
  0
VISUALSTYLE
  5
2B
102
{ACAD_REACTORS
330
2A
102
}
330
2A
100
AcDbVisualStyle
  2
Flat
 70
     0
177
     2
291
     1
 71
     2
176
     1
 72
     1
176
     1
 73
     1
176
     1
 90
        2
176
     1
 40
-0.6
176
     1
 41
30.0
176
     1
 62
     5
 63
     7
421
 16777215
176
     1
 74
     0
176
     1
 91
        4
176
     1
 64
     7
176
     1
 65
   257
176
     1
 75
     1
176
     1
175
     1
176
     1
 42
1.0
176
     1
 92
        8
176
     1
 66
     7
176
     1
 43
1.0
176
     1
 76
     1
176
     1
 77
     6
176
     1
 78
     2
176
     1
 67
     7
176
     1
 79
     5
176
     1
170
     0
176
     1
171
     0
176
     1
290
     0
176
     1
 93
       13
176
     1
 44
0.0
176
     1
173
     0
176
     1
  0
VISUALSTYLE
  5
2C
102
{ACAD_REACTORS
330
2A
102
}
330
2A
100
AcDbVisualStyle
  2
FlatWithEdges
 70
     1
177
     2
291
     1
 71
     2
176
     1
 72
     1
176
     1
 73
     1
176
     1
 90
        2
176
     1
 40
-0.6
176
     1
 41
30.0
176
     1
 62
     5
 63
     7
421
 16777215
176
     1
 74
     1
176
     1
 91
        4
176
     1
 64
     7
176
     1
 65
   257
176
     1
 75
     1
176
     1
175
     1
176
     1
 42
1.0
176
     1
 92
        0
176
     1
 66
   257
176
     1
 43
1.0
176
     1
 76
     1
176
     1
 77
     6
176
     1
 78
     2
176
     1
 67
     7
176
     1
 79
     5
176
     1
170
     0
176
     1
171
     0
176
     1
290
     0
176
     1
 93
       13
176
     1
 44
0.0
176
     1
173
     0
176
     1
  0
VISUALSTYLE
  5
2D
102
{ACAD_REACTORS
330
2A
102
}
330
2A
100
AcDbVisualStyle
  2
Gouraud
 70
     2
177
     2
291
     1
 71
     2
176
     1
 72
     2
176
     1
 73
     1
176
     1
 90
        2
176
     1
 40
-0.6
176
     1
 41
30.0
176
     1
 62
     5
 63
     7
421
 16777215
176
     1
 74
     0
176
     1
 91
        4
176
     1
 64
     7
176
     1
 65
   257
176
     1
 75
     1
176
     1
175
     1
176
     1
 42
1.0
176
     1
 92
        0
176
     1
 66
     7
176
     1
 43
1.0
176
     1
 76
     1
176
     1
 77
     6
176
     1
 78
     2
176
     1
 67
     7
176
     1
 79
     5
176
     1
170
     0
176
     1
171
     0
176
     1
290
     0
176
     1
 93
       13
176
     1
 44
0.0
176
     1
173
     0
176
     1
  0
VISUALSTYLE
  5
2E
102
{ACAD_REACTORS
330
2A
102
}
330
2A
100
AcDbVisualStyle
  2
GouraudWithEdges
 70
     3
177
     2
291
     1
 71
     2
176
     1
 72
     2
176
     1
 73
     1
176
     1
 90
        2
176
     1
 40
-0.6
176
     1
 41
30.0
176
     1
 62
     5
 63
     7
421
 16777215
176
     1
 74
     1
176
     1
 91
        4
176
     1
 64
     7
176
     1
 65
   257
176
     1
 75
     1
176
     1
175
     1
176
     1
 42
1.0
176
     1
 92
        0
176
     1
 66
   257
176
     1
 43
1.0
176
     1
 76
     1
176
     1
 77
     6
176
     1
 78
     2
176
     1
 67
     7
176
     1
 79
     5
176
     1
170
     0
176
     1
171
     0
176
     1
290
     0
176
     1
 93
       13
176
     1
 44
0.0
176
     1
173
     0
176
     1
  0
VISUALSTYLE
  5
38
102
{ACAD_REACTORS
330
2A
102
}
330
2A
100
AcDbVisualStyle
  2
Linepattern
 70
    14
177
     2
291
     1
 71
     2
176
     1
 72
     2
176
     1
 73
     0
176
     1
 90
        0
176
     1
 40
-0.6
176
     1
 41
-30.0
176
     1
 62
     5
 63
     7
421
 16777215
176
     1
 74
     1
176
     1
 91
        4
176
     1
 64
     7
176
     1
 65
   257
176
     1
 75
     7
176
     1
175
     7
176
     1
 42
1.0
176
     1
 92
        8
176
     1
 66
     7
176
     1
 43
1.0
176
     1
 76
     1
176
     1
 77
     6
176
     1
 78
     2
176
     1
 67
     7
176
     1
 79
     5
176
     1
170
     0
176
     1
171
     0
176
     1
290
     0
176
     1
 93
        1
176
     1
 44
0.0
176
     1
173
     0
176
     1
  0
VISUALSTYLE
  5
33
102
{ACAD_REACTORS
330
2A
102
}
330
2A
100
AcDbVisualStyle
  2
Realistic
 70
     8
177
     2
291
     0
 71
     2
176
     1
 72
     2
176
     1
 73
     0
176
     1
 90
        0
176
     1
 40
-0.6
176
     1
 41
-30.0
176
     1
 62
     5
 63
     7
421
 16777215
176
     1
 74
     1
176
     1
 91
        0
176
     1
 64
     7
176
     1
 65
   257
176
     1
 75
     1
176
     1
175
     1
176
     1
 42
1.0
176
     1
 92
        8
176
     1
 66
     8
424
  7895160
176
     1
 43
1.0
176
     1
 76
     1
176
     1
 77
     6
176
     1
 78
     2
176
     1
 67
     7
176
     1
 79
     5
176
     1
170
     0
176
     1
171
     0
176
     1
290
     0
176
     1
 93
       13
176
     1
 44
0.0
176
     1
173
     0
176
     1
  0
VISUALSTYLE
  5
37
102
{ACAD_REACTORS
330
2A
102
}
330
2A
100
AcDbVisualStyle
  2
Thicken
 70
    13
177
     2
291
     1
 71
     2
176
     1
 72
     2
176
     1
 73
     0
176
     1
 90
        0
176
     1
 40
-0.6
176
     1
 41
-30.0
176
     1
 62
     5
 63
     7
421
 16777215
176
     1
 74
     1
176
     1
 91
        4
176
     1
 64
     7
176
     1
 65
   257
176
     1
 75
     1
176
     1
175
     1
176
     1
 42
1.0
176
     1
 92
       12
176
     1
 66
     7
176
     1
 43
1.0
176
     1
 76
     1
176
     1
 77
     6
176
     1
 78
     2
176
     1
 67
     7
176
     1
 79
     5
176
     1
170
     0
176
     1
171
     0
176
     1
290
     0
176
     1
 93
        1
176
     1
 44
0.0
176
     1
173
     0
176
     1
  0
ENDSEC
  0
EOF
