  0
SECTION
  2
HEADER
  9
$ACADVER
  1
AC1018
  9
$ACADMAINTVER
 70
     0
  9
$DWGCODEPAGE
  3
ANSI_1252
  9
$INSBASE
 10
0.0
 20
0.0
 30
0.0
  9
$EXTMIN
 10
1.000000000000000E+20
 20
1.000000000000000E+20
 30
1.000000000000000E+20
  9
$EXTMAX
 10
-1.000000000000000E+20
 20
-1.000000000000000E+20
 30
-1.000000000000000E+20
  9
$LIMMIN
 10
0.0
 20
0.0
  9
$LIMMAX
 10
12.0
 20
9.0
  9
$ORTHOMODE
 70
     0
  9
$REGENMODE
 70
     1
  9
$FILLMODE
 70
     1
  9
$QTEXTMODE
 70
     0
  9
$MIRRTEXT
 70
     1
  9
$LTSCALE
 40
1.0
  9
$ATTMODE
 70
     1
  9
$TEXTSIZE
 40
0.2
  9
$TRACEWID
 40
0.05
  9
$TEXTSTYLE
  7
Standard
  9
$CLAYER
  8
0
  9
$CELTYPE
  6
ByLayer
  9
$CECOLOR
 62
   256
  9
$CELTSCALE
 40
1.0
  9
$DISPSILH
 70
     0
  9
$DIMSCALE
 40
1.0
  9
$DIMASZ
 40
0.18
  9
$DIMEXO
 40
0.0625
  9
$DIMDLI
 40
0.38
  9
$DIMRND
 40
0.0
  9
$DIMDLE
 40
0.0
  9
$DIMEXE
 40
0.18
  9
$DIMTP
 40
0.0
  9
$DIMTM
 40
0.0
  9
$DIMTXT
 40
0.18
  9
$DIMCEN
 40
0.09
  9
$DIMTSZ
 40
0.0
  9
$DIMTOL
 70
     0
  9
$DIMLIM
 70
     0
  9
$DIMTIH
 70
     1
  9
$DIMTOH
 70
     1
  9
$DIMSE1
 70
     0
  9
$DIMSE2
 70
     0
  9
$DIMTAD
 70
     0
  9
$DIMZIN
 70
     0
  9
$DIMBLK
  1

  9
$DIMASO
 70
     1
  9
$DIMSHO
 70
     1
  9
$DIMPOST
  1

  9
$DIMAPOST
  1

  9
$DIMALT
 70
     0
  9
$DIMALTD
 70
     2
  9
$DIMALTF
 40
25.4
  9
$DIMLFAC
 40
1.0
  9
$DIMTOFL
 70
     0
  9
$DIMTVP
 40
0.0
  9
$DIMTIX
 70
     0
  9
$DIMSOXD
 70
     0
  9
$DIMSAH
 70
     0
  9
$DIMBLK1
  1

  9
$DIMBLK2
  1

  9
$DIMSTYLE
  2
Standard
  9
$DIMCLRD
 70
     0
  9
$DIMCLRE
 70
     0
  9
$DIMCLRT
 70
     0
  9
$DIMTFAC
 40
1.0
  9
$DIMGAP
 40
0.09
  9
$DIMJUST
 70
     0
  9
$DIMSD1
 70
     0
  9
$DIMSD2
 70
     0
  9
$DIMTOLJ
 70
     1
  9
$DIMTZIN
 70
     0
  9
$DIMALTZ
 70
     0
  9
$DIMALTTZ
 70
     0
  9
$DIMUPT
 70
     0
  9
$DIMDEC
 70
     4
  9
$DIMTDEC
 70
     4
  9
$DIMALTU
 70
     2
  9
$DIMALTTD
 70
     2
  9
$DIMTXSTY
  7
Standard
  9
$DIMAUNIT
 70
     0
  9
$DIMADEC
 70
     0
  9
$DIMALTRND
 40
0.0
  9
$DIMAZIN
 70
     0
  9
$DIMDSEP
 70
    46
  9
$DIMATFIT
 70
     3
  9
$DIMFRAC
 70
     0
  9
$DIMLDRBLK
  1

  9
$DIMLUNIT
 70
     2
  9
$DIMLWD
 70
    -2
  9
$DIMLWE
 70
    -2
  9
$DIMTMOVE
 70
     0
  9
$LUNITS
 70
     2
  9
$LUPREC
 70
     4
  9
$SKETCHINC
 40
0.1
  9
$FILLETRAD
 40
0.5
  9
$AUNITS
 70
     0
  9
$AUPREC
 70
     0
  9
$MENU
  1
.
  9
$ELEVATION
 40
0.0
  9
$PELEVATION
 40
0.0
  9
$THICKNESS
 40
0.0
  9
$LIMCHECK
 70
     0
  9
$CHAMFERA
 40
0.5
  9
$CHAMFERB
 40
0.5
  9
$CHAMFERC
 40
1.0
  9
$CHAMFERD
 40
0.0
  9
$SKPOLY
 70
     0
  9
$TDCREATE
 40
2455737.148780509
  9
$TDUCREATE
 40
2455737.398780509
  9
$TDUPDATE
 40
2455737.148780521
  9
$TDUUPDATE
 40
2455737.398780521
  9
$TDINDWG
 40
0.0000000116
  9
$TDUSRTIMER
 40
0.0000000116
  9
$USRTIMER
 70
     1
  9
$ANGBASE
 50
0.0
  9
$ANGDIR
 70
     0
  9
$PDMODE
 70
     0
  9
$PDSIZE
 40
0.0
  9
$PLINEWID
 40
0.0
  9
$SPLFRAME
 70
     0
  9
$SPLINETYPE
 70
     6
  9
$SPLINESEGS
 70
     8
  9
$HANDSEED
  5
45
  9
$SURFTAB1
 70
     6
  9
$SURFTAB2
 70
     6
  9
$SURFTYPE
 70
     6
  9
$SURFU
 70
     6
  9
$SURFV
 70
     6
  9
$UCSBASE
  2

  9
$UCSNAME
  2

  9
$UCSORG
 10
0.0
 20
0.0
 30
0.0
  9
$UCSXDIR
 10
1.0
 20
0.0
 30
0.0
  9
$UCSYDIR
 10
0.0
 20
1.0
 30
0.0
  9
$UCSORTHOREF
  2

  9
$UCSORTHOVIEW
 70
     0
  9
$UCSORGTOP
 10
0.0
 20
0.0
 30
0.0
  9
$UCSORGBOTTOM
 10
0.0
 20
0.0
 30
0.0
  9
$UCSORGLEFT
 10
0.0
 20
0.0
 30
0.0
  9
$UCSORGRIGHT
 10
0.0
 20
0.0
 30
0.0
  9
$UCSORGFRONT
 10
0.0
 20
0.0
 30
0.0
  9
$UCSORGBACK
 10
0.0
 20
0.0
 30
0.0
  9
$PUCSBASE
  2

  9
$PUCSNAME
  2

  9
$PUCSORG
 10
0.0
 20
0.0
 30
0.0
  9
$PUCSXDIR
 10
1.0
 20
0.0
 30
0.0
  9
$PUCSYDIR
 10
0.0
 20
1.0
 30
0.0
  9
$PUCSORTHOREF
  2

  9
$PUCSORTHOVIEW
 70
     0
  9
$PUCSORGTOP
 10
0.0
 20
0.0
 30
0.0
  9
$PUCSORGBOTTOM
 10
0.0
 20
0.0
 30
0.0
  9
$PUCSORGLEFT
 10
0.0
 20
0.0
 30
0.0
  9
$PUCSORGRIGHT
 10
0.0
 20
0.0
 30
0.0
  9
$PUCSORGFRONT
 10
0.0
 20
0.0
 30
0.0
  9
$PUCSORGBACK
 10
0.0
 20
0.0
 30
0.0
  9
$USERI1
 70
     0
  9
$USERI2
 70
     0
  9
$USERI3
 70
     0
  9
$USERI4
 70
     0
  9
$USERI5
 70
     0
  9
$USERR1
 40
0.0
  9
$USERR2
 40
0.0
  9
$USERR3
 40
0.0
  9
$USERR4
 40
0.0
  9
$USERR5
 40
0.0
  9
$WORLDVIEW
 70
     1
  9
$SHADEDGE
 70
     3
  9
$SHADEDIF
 70
    70
  9
$TILEMODE
 70
     1
  9
$MAXACTVP
 70
    64
  9
$PINSBASE
 10
0.0
 20
0.0
 30
0.0
  9
$PLIMCHECK
 70
     0
  9
$PEXTMIN
 10
1.000000000000000E+20
 20
1.000000000000000E+20
 30
1.000000000000000E+20
  9
$PEXTMAX
 10
-1.000000000000000E+20
 20
-1.000000000000000E+20
 30
-1.000000000000000E+20
  9
$PLIMMIN
 10
0.0
 20
0.0
  9
$PLIMMAX
 10
12.0
 20
9.0
  9
$UNITMODE
 70
     0
  9
$VISRETAIN
 70
     1
  9
$PLINEGEN
 70
     0
  9
$PSLTSCALE
 70
     1
  9
$TREEDEPTH
 70
  3020
  9
$CMLSTYLE
  2
Standard
  9
$CMLJUST
 70
     0
  9
$CMLSCALE
 40
1.0
  9
$PROXYGRAPHICS
 70
     1
  9
$MEASUREMENT
 70
     0
  9
$CELWEIGHT
370
    -1
  9
$ENDCAPS
280
     0
  9
$JOINSTYLE
280
     0
  9
$LWDISPLAY
290
     1
  9
$INSUNITS
 70
     1
  9
$HYPERLINKBASE
  1

  9
$STYLESHEET
  1

  9
$XEDIT
290
     1
  9
$CEPSNTYPE
380
     0
  9
$PSTYLEMODE
290
     1
  9
$FINGERPRINTGUID
  2
{E3C49387-90D6-4E11-8A51-68CF414143B3}
  9
$VERSIONGUID
  2
{FAEB1C32-E019-11D5-929B-00C0DF256EC4}
  9
$EXTNAMES
290
     1
  9
$PSVPSCALE
 40
0.0
  9
$OLESTARTUP
290
     0
  9
$SORTENTS
280
   127
  9
$INDEXCTL
280
     0
  9
$HIDETEXT
280
     1
  9
$XCLIPFRAME
290
     0
  9
$HALOGAP
280
     0
  9
$OBSCOLOR
 70
   257
  9
$OBSLTYPE
280
     0
  9
$INTERSECTIONDISPLAY
280
     0
  9
$INTERSECTIONCOLOR
 70
   257
  9
$DIMASSOC
280
     2
  9
$PROJECTNAME
  1

  0
ENDSEC
  0
SECTION
  2
CLASSES
  0
CLASS
  1
ACDBDICTIONARYWDFLT
  2
AcDbDictionaryWithDefault
  3
ObjectDBX Classes
 90
        0
 91
        3
280
     0
281
     0
  0
CLASS
  1
VISUALSTYLE
  2
AcDbVisualStyle
  3
ObjectDBX Classes
 90
     4095
 91
        3
280
     0
281
     0
  0
ENDSEC
  0
SECTION
  2
TABLES
  0
TABLE
  2
VPORT
  5
8
330
0
100
AcDbSymbolTable
 70
     1
  0
VPORT
  5
29
330
8
100
AcDbSymbolTableRecord
100
AcDbViewportTableRecord
  2
*Active
 70
     0
 10
0.0
 20
0.0
 11
1.0
 21
1.0
 12
0.0
 22
0.0
 13
0.0
 23
0.0
 14
0.5
 24
0.5
 15
0.5
 25
0.5
 16
0.0
 26
0.0
 36
1.0
 17
21.43727891174138
 27
50.7999999873
 37
0.0
 40
101.5999999746
 41
0.4219936794704861
 42
50.0
 43
0.0
 44
0.0
 50
0.0
 51
0.0
 71
     0
 72
   100
 73
     1
 74
     3
 75
     0
 76
     0
 77
     0
 78
     0
281
     0
 65
     1
110
0.0
120
0.0
130
0.0
111
1.0
121
0.0
131
0.0
112
0.0
122
1.0
132
0.0
 79
     0
146
0.0
  0
ENDTAB
  0
TABLE
  2
LTYPE
  5
5
330
0
100
AcDbSymbolTable
 70
     1
  0
LTYPE
  5
14
330
5
100
AcDbSymbolTableRecord
100
AcDbLinetypeTableRecord
  2
ByBlock
 70
     0
  3

 72
    65
 73
     0
 40
0.0
  0
LTYPE
  5
15
330
5
100
AcDbSymbolTableRecord
100
AcDbLinetypeTableRecord
  2
ByLayer
 70
     0
  3

 72
    65
 73
     0
 40
0.0
  0
LTYPE
  5
16
330
5
100
AcDbSymbolTableRecord
100
AcDbLinetypeTableRecord
  2
Continuous
 70
     0
  3
Solid line
 72
    65
 73
     0
 40
0.0
  0
ENDTAB
  0
TABLE
  2
LAYER
  5
2
330
0
100
AcDbSymbolTable
 70
     2
  0
LAYER
  5
10
330
2
100
AcDbSymbolTableRecord
100
AcDbLayerTableRecord
  2
0
 70
     0
 62
     7
  6
Continuous
370
    -3
390
F
  0
LAYER
  5
3B
330
2
100
AcDbSymbolTableRecord
100
AcDbLayerTableRecord
  2
Layer 1
 70
     0
 62
     7
  6
Continuous
370
    -3
390
F
  0
ENDTAB
  0
TABLE
  2
STYLE
  5
3
330
0
100
AcDbSymbolTable
 70
     1
  0
STYLE
  5
11
330
3
100
AcDbSymbolTableRecord
100
AcDbTextStyleTableRecord
  2
Standard
 70
     0
 40
0.0
 41
1.0
 50
0.0
 71
     0
 42
0.2
  3
txt
  4

  0
ENDTAB
  0
TABLE
  2
VIEW
  5
6
330
0
100
AcDbSymbolTable
 70
     0
  0
ENDTAB
  0
TABLE
  2
UCS
  5
7
330
0
100
AcDbSymbolTable
 70
     0
  0
ENDTAB
  0
TABLE
  2
APPID
  5
9
330
0
100
AcDbSymbolTable
 70
     1
  0
APPID
  5
12
330
9
100
AcDbSymbolTableRecord
100
AcDbRegAppTableRecord
  2
ACAD
 70
     0
  0
ENDTAB
  0
TABLE
  2
DIMSTYLE
  5
A
330
0
100
AcDbSymbolTable
 70
     1
100
AcDbDimStyleTable
  0
DIMSTYLE
105
27
330
A
100
AcDbSymbolTableRecord
100
AcDbDimStyleTableRecord
  2
Standard
 70
     0
340
11
  0
ENDTAB
  0
TABLE
  2
BLOCK_RECORD
  5
1
330
0
100
AcDbSymbolTable
 70
     1
  0
BLOCK_RECORD
  5
1F
330
1
100
AcDbSymbolTableRecord
100
AcDbBlockTableRecord
  2
*Model_Space
340
22
  0
BLOCK_RECORD
  5
1B
330
1
100
AcDbSymbolTableRecord
100
AcDbBlockTableRecord
  2
*Paper_Space
340
1E
  0
BLOCK_RECORD
  5
23
330
1
100
AcDbSymbolTableRecord
100
AcDbBlockTableRecord
  2
*Paper_Space0
340
26
  0
ENDTAB
  0
ENDSEC
  0
SECTION
  2
BLOCKS
  0
BLOCK
  5
20
330
1F
100
AcDbEntity
  8
0
100
AcDbBlockBegin
  2
*Model_Space
 70
     0
 71
     0
 10
0.0
 20
0.0
 30
0.0
  3
*Model_Space
  1

  0
ENDBLK
  5
21
330
1F
100
AcDbEntity
  8
0
100
AcDbBlockEnd
  0
BLOCK
  5
1C
330
1B
100
AcDbEntity
 67
     1
  8
0
100
AcDbBlockBegin
  2
*Paper_Space
 70
     0
 71
     0
 10
0.0
 20
0.0
 30
0.0
  3
*Paper_Space
  1

  0
ENDBLK
  5
1D
330
1B
100
AcDbEntity
 67
     1
  8
0
100
AcDbBlockEnd
  0
BLOCK
  5
24
330
23
100
AcDbEntity
  8
0
100
AcDbBlockBegin
  2
*Paper_Space0
 70
     0
 71
     0
 10
0.0
 20
0.0
 30
0.0
  3
*Paper_Space0
  1

  0
ENDBLK
  5
25
330
23
100
AcDbEntity
  8
0
100
AcDbBlockEnd
  0
ENDSEC
  0
SECTION
  2
ENTITIES
  0
SPLINE
  5
3C
330
1F
100
AcDbEntity
  8
Layer 1
370
     0
100
AcDbSpline
210
0.0
220
0.0
230
1.0
 70
    11
 71
     3
 72
    77
 73
    73
 74
     0
 42
0.0000000001
 43
0.0000000001
 40
0.0
 40
0.0
 40
0.0
 40
0.0
 40
1.0
 40
1.0
 40
1.0
 40
2.0
 40
2.0
 40
2.0
 40
3.0
 40
3.0
 40
3.0
 40
4.0
 40
4.0
 40
4.0
 40
5.0
 40
5.0
 40
5.0
 40
6.0
 40
6.0
 40
6.0
 40
7.0
 40
7.0
 40
7.0
 40
8.0
 40
8.0
 40
8.0
 40
9.0
 40
9.0
 40
9.0
 40
10.0
 40
10.0
 40
10.0
 40
11.0
 40
11.0
 40
11.0
 40
12.0
 40
12.0
 40
12.0
 40
13.0
 40
13.0
 40
13.0
 40
14.0
 40
14.0
 40
14.0
 40
15.0
 40
15.0
 40
15.0
 40
16.0
 40
16.0
 40
16.0
 40
17.0
 40
17.0
 40
17.0
 40
18.0
 40
18.0
 40
18.0
 40
19.0
 40
19.0
 40
19.0
 40
20.0
 40
20.0
 40
20.0
 40
21.0
 40
21.0
 40
21.0
 40
22.0
 40
22.0
 40
22.0
 40
23.0
 40
23.0
 40
23.0
 40
24.0
 40
24.0
 40
24.0
 40
24.0
 10
39.49112954741889
 20
99.0792236080427
 30
0.0
 10
38.29361435674604
 20
100.1916449402299
 30
0.0
 10
36.72988551599114
 20
100.8613715025624
 30
0.0
 10
35.09725476553125
 20
100.9540445711157
 30
0.0
 10
29.00322536167281
 20
102.399951146275
 30
0.0
 10
22.91333007239667
 20
100.9667914244111
 30
0.0
 10
16.78261040162032
 20
100.9667914244111
 30
0.0
 10
15.18081325575341
 20
100.9667914244111
 30
0.0
 10
13.56506347317123
 20
100.8887600116702
 30
0.0
 10
11.97101779214614
 20
101.0661824291605
 30
0.0
 10
9.765123152940664
 20
101.3113009729361
 30
0.0
 10
7.487226018093471
 20
101.7347032080733
 30
0.0
 10
5.274096678368976
 20
101.3330050744931
 30
0.0
 10
2.734716796191321
 20
100.8720512985667
 30
0.0
 10
1.526005045191416
 20
99.15691051123508
 30
0.0
 10
0.9558417423825674
 20
96.75051131478807
 30
0.0
 10
0.2315104166087891
 20
93.69230005253179
 30
0.0
 10
0.1896525064630036
 20
90.49249536583174
 30
0.0
 10
0.1202338324352193
 20
87.36607121296751
 30
0.0
 10
0.042030164920048
 20
83.85327960143252
 30
0.0
 10
-0.0563273111838348
 20
80.35099553112754
 30
0.0
 10
0.0399631076288981
 20
76.83717039094697
 30
0.0
 10
0.137976074184256
 20
73.26047225816058
 30
0.0
 10
-0.0134358723924744
 20
69.46501056206084
 30
0.0
 10
0.9901204424608032
 20
65.99993352299654
 30
0.0
 10
0.9901204424608032
 20
65.99993352299654
 30
0.0
 10
0.9901204424608032
 20
40.89569497675524
 30
0.0
 10
0.9901204424608032
 20
40.89569497675524
 30
0.0
 10
0.9894314233637533
 20
37.05096841521642
 30
0.0
 10
4.200777179939389
 20
33.8404839325121
 30
0.0
 10
8.04360893896132
 20
33.84255098980325
 30
0.0
 10
8.04360893896132
 20
33.84255098980325
 30
0.0
 10
16.61225042987472
 20
33.84255098980325
 30
0.0
 10
16.61225042987472
 20
33.84255098980325
 30
0.0
 10
16.61225042987472
 20
33.84255098980325
 30
0.0
 10
17.72243244999648
 20
4.56371798931046
 30
0.0
 10
17.72243244999648
 20
4.56371798931046
 30
0.0
 10
17.72243244999648
 20
2.076703558508602
 30
0.0
 10
19.79879149895655
 20
0.0
 30
0.0
 10
22.28597818453267
 20
0.0
 30
0.0
 10
24.77299261533453
 20
0.0
 30
0.0
 10
26.84969617384313
 20
2.076703558508602
 30
0.0
 10
26.84969617384313
 20
4.56371798931046
 30
0.0
 10
26.84969617384313
 20
4.56371798931046
 30
0.0
 10
26.84969617384313
 20
33.84255098980325
 30
0.0
 10
26.84969617384313
 20
33.84255098980325
 30
0.0
 10
26.84969617384313
 20
33.84255098980325
 30
0.0
 10
34.69211153646587
 20
33.84255098980325
 30
0.0
 10
34.69211153646587
 20
33.84255098980325
 30
0.0
 10
38.53683809800468
 20
33.84151746115768
 30
0.0
 10
41.74697807116048
 20
37.05269096295905
 30
0.0
 10
41.74560003296638
 20
40.89569497675524
 30
0.0
 10
41.74560003296638
 20
47.26464300033662
 30
0.0
 10
41.74560003296638
 20
53.63359102391799
 30
0.0
 10
41.74560003296638
 20
60.00219453795084
 30
0.0
 10
41.74560003296638
 20
62.61633299215842
 30
0.0
 10
41.74560003296638
 20
65.23012693681747
 30
0.0
 10
41.74560003296638
 20
67.84426539102505
 30
0.0
 10
41.74560003296638
 20
68.47402884572872
 30
0.0
 10
42.15039875248323
 20
69.20628389111857
 30
0.0
 10
42.25926376981713
 20
69.84621037750372
 30
0.0
 10
42.53383787999154
 20
71.4647162364741
 30
0.0
 10
42.53831650412237
 20
73.12335745784763
 30
0.0
 10
42.51385632617709
 20
74.75995006811557
 30
0.0
 10
42.46493597028655
 20
78.04553763239834
 30
0.0
 10
42.59240450324079
 20
81.2737643568517
 30
0.0
 10
42.74192164730064
 20
84.55676809952054
 30
0.0
 10
42.86387802747848
 20
87.23395180110818
 30
0.0
 10
42.93209091808642
 20
89.91837020321486
 30
0.0
 10
42.81116806655415
 20
92.59675968822235
 30
0.0
 10
42.67267522804711
 20
95.66410045351454
 30
0.0
 10
41.39316676482532
 20
97.71737736272344
 30
0.0
 10
39.49112954741889
 20
99.0792236080427
 30
0.0
  0
SPLINE
  5
3D
330
1F
100
AcDbEntity
  8
Layer 1
370
     0
100
AcDbSpline
210
0.0
220
0.0
230
1.0
 70
    11
 71
     3
 72
    20
 73
    16
 74
     0
 42
0.0000000001
 43
0.0000000001
 40
0.0
 40
0.0
 40
0.0
 40
0.0
 40
1.0
 40
1.0
 40
1.0
 40
2.0
 40
2.0
 40
2.0
 40
3.0
 40
3.0
 40
3.0
 40
4.0
 40
4.0
 40
4.0
 40
5.0
 40
5.0
 40
5.0
 40
5.0
 10
25.95466036677523
 20
89.37421737131965
 30
0.0
 10
26.36187065313176
 20
90.07822263373045
 30
0.0
 10
27.26276312252459
 20
90.31886255337515
 30
0.0
 10
27.96659613016113
 20
89.91182452179288
 30
0.0
 10
27.96659613016113
 20
89.91182452179288
 30
0.0
 10
31.13298339065426
 20
88.0802395070598
 30
0.0
 10
31.13298339065426
 20
88.0802395070598
 30
0.0
 10
32.777327465764
 20
87.12939315313085
 30
0.0
 10
31.30248208852855
 20
84.5798502392717
 30
0.0
 10
29.65882703251585
 20
85.53069659320066
 30
0.0
 10
29.65882703251585
 20
85.53069659320066
 30
0.0
 10
26.49243977202272
 20
87.36210935315948
 30
0.0
 10
26.49243977202272
 20
87.36210935315948
 30
0.0
 10
25.78826225483766
 20
87.76931963951601
 30
0.0
 10
25.5474500804187
 20
88.67021210890884
 30
0.0
 10
25.95466036677523
 20
89.37421737131965
 30
0.0
  0
SPLINE
  5
3E
330
1F
100
AcDbEntity
  8
Layer 1
370
     0
100
AcDbSpline
210
0.0
220
0.0
230
1.0
 70
    11
 71
     3
 72
    17
 73
    13
 74
     0
 42
0.0000000001
 43
0.0000000001
 40
0.0
 40
0.0
 40
0.0
 40
0.0
 40
1.0
 40
1.0
 40
1.0
 40
2.0
 40
2.0
 40
2.0
 40
3.0
 40
3.0
 40
3.0
 40
4.0
 40
4.0
 40
4.0
 40
4.0
 10
19.20968017097883
 20
95.04742836165481
 30
0.0
 10
19.20968017097883
 20
95.04742836165481
 30
0.0
 10
22.37589517669769
 20
97.47380911191627
 30
0.0
 10
22.37589517669769
 20
97.47380911191627
 30
0.0
 10
23.88346896104302
 20
98.62894962812055
 30
0.0
 10
25.67491861337294
 20
96.29110783183
 30
0.0
 10
24.16734482902761
 20
95.13579506085148
 30
0.0
 10
24.16734482902761
 20
95.13579506085148
 30
0.0
 10
21.00112982330875
 20
92.70958656536428
 30
0.0
 10
21.00112982330875
 20
92.70958656536428
 30
0.0
 10
19.49321152941489
 20
91.55444604916
 30
0.0
 10
17.7021063866335
 20
93.89194333590201
 30
0.0
 10
19.20968017097883
 20
95.04742836165481
 30
0.0
  0
SPLINE
  5
3F
330
1F
100
AcDbEntity
  8
Layer 1
370
     0
100
AcDbSpline
210
0.0
220
0.0
230
1.0
 70
    11
 71
     3
 72
    20
 73
    16
 74
     0
 42
0.0000000001
 43
0.0000000001
 40
0.0
 40
0.0
 40
0.0
 40
0.0
 40
1.0
 40
1.0
 40
1.0
 40
2.0
 40
2.0
 40
2.0
 40
3.0
 40
3.0
 40
3.0
 40
4.0
 40
4.0
 40
4.0
 40
5.0
 40
5.0
 40
5.0
 40
5.0
 10
15.81608886323348
 20
87.58070066169859
 30
0.0
 10
15.81608886323348
 20
87.58070066169859
 30
0.0
 10
17.92707112182032
 20
84.17057289562403
 30
0.0
 10
17.92707112182032
 20
84.17057289562403
 30
0.0
 10
18.35546874541113
 20
83.47879772218586
 30
0.0
 10
18.14170057055138
 20
82.57135957137105
 30
0.0
 10
17.45026990666174
 20
82.14330645732876
 30
0.0
 10
16.75849473322357
 20
81.71525334328646
 30
0.0
 10
15.8508843276345
 20
81.92884926337196
 30
0.0
 10
15.42283121359221
 20
82.6202799272616
 30
0.0
 10
15.42283121359221
 20
82.6202799272616
 30
0.0
 10
13.31184895500537
 20
86.03040769333616
 30
0.0
 10
13.31184895500537
 20
86.03040769333616
 30
0.0
 10
12.31242675473439
 20
87.64546845682128
 30
0.0
 10
14.8166666629625
 20
89.19558917040943
 30
0.0
 10
15.81608886323348
 20
87.58070066169859
 30
0.0
  0
SPLINE
  5
40
330
1F
100
AcDbEntity
  8
Layer 1
370
     0
100
AcDbSpline
210
0.0
220
0.0
230
1.0
 70
    11
 71
     3
 72
    17
 73
    13
 74
     0
 42
0.0000000001
 43
0.0000000001
 40
0.0
 40
0.0
 40
0.0
 40
0.0
 40
1.0
 40
1.0
 40
1.0
 40
2.0
 40
2.0
 40
2.0
 40
3.0
 40
3.0
 40
3.0
 40
4.0
 40
4.0
 40
4.0
 40
4.0
 10
6.016342500666053
 20
95.04742836165481
 30
0.0
 10
6.016342500666053
 20
95.04742836165481
 30
0.0
 10
9.182729761159178
 20
97.47380911191627
 30
0.0
 10
9.182729761159178
 20
97.47380911191627
 30
0.0
 10
10.69030354550451
 20
98.62894962812055
 30
0.0
 10
12.48175319783442
 20
96.29110783183
 30
0.0
 10
10.97417941348909
 20
95.13579506085148
 30
0.0
 10
10.97417941348909
 20
95.13579506085148
 30
0.0
 10
7.807792152995969
 20
92.70958656536428
 30
0.0
 10
7.807792152995969
 20
92.70958656536428
 30
0.0
 10
6.299873859102116
 20
91.55444604916
 30
0.0
 10
4.508768716320724
 20
93.89194333590201
 30
0.0
 10
6.016342500666053
 20
95.04742836165481
 30
0.0
  0
SPLINE
  5
41
330
1F
100
AcDbEntity
  8
Layer 1
370
     0
100
AcDbSpline
210
0.0
220
0.0
230
1.0
 70
    11
 71
     3
 72
    47
 73
    43
 74
     0
 42
0.0000000001
 43
0.0000000001
 40
0.0
 40
0.0
 40
0.0
 40
0.0
 40
1.0
 40
1.0
 40
1.0
 40
2.0
 40
2.0
 40
2.0
 40
3.0
 40
3.0
 40
3.0
 40
4.0
 40
4.0
 40
4.0
 40
5.0
 40
5.0
 40
5.0
 40
6.0
 40
6.0
 40
6.0
 40
7.0
 40
7.0
 40
7.0
 40
8.0
 40
8.0
 40
8.0
 40
9.0
 40
9.0
 40
9.0
 40
10.0
 40
10.0
 40
10.0
 40
11.0
 40
11.0
 40
11.0
 40
12.0
 40
12.0
 40
12.0
 40
13.0
 40
13.0
 40
13.0
 40
14.0
 40
14.0
 40
14.0
 40
14.0
 10
38.80004339307777
 20
40.89569497675524
 30
0.0
 10
38.80004339307777
 20
39.53901637466386
 30
0.0
 10
38.11205782467338
 20
38.2474500772437
 30
0.0
 10
36.98792316783636
 20
37.48849554184316
 30
0.0
 10
36.33059894925069
 20
37.0451117528915
 30
0.0
 10
35.54787325500192
 20
36.78845213924039
 30
0.0
 10
34.69211153646587
 20
36.78741861059481
 30
0.0
 10
34.69211153646587
 20
36.78741861059481
 30
0.0
 10
8.04360893896132
 20
36.78741861059481
 30
0.0
 10
8.04360893896132
 20
36.78741861059481
 30
0.0
 10
5.803435599677614
 20
36.78845213924039
 30
0.0
 10
3.937055120543514
 20
38.65638291134285
 30
0.0
 10
3.935504827575152
 20
40.89569497675524
 30
0.0
 10
3.935504827575152
 20
40.89569497675524
 30
0.0
 10
3.935504827575152
 20
61.68409015384982
 30
0.0
 10
3.935504827575152
 20
61.68409015384982
 30
0.0
 10
6.863319225714726
 20
60.87742104597856
 30
0.0
 10
8.351772730116918
 20
65.41685111211801
 30
0.0
 10
9.5436035132391
 20
67.19073077747315
 30
0.0
 10
11.29922417252242
 20
69.80400795780942
 30
0.0
 10
15.20492892415016
 20
70.48872068550283
 30
0.0
 10
17.01119248706665
 20
67.60224743318625
 30
0.0
 10
18.13084851977284
 20
65.8123480738247
 30
0.0
 10
18.73666856085403
 20
63.68207328052046
 30
0.0
 10
20.1310709585089
 20
62.0644286954214
 30
0.0
 10
21.88393554140402
 20
60.03078883047841
 30
0.0
 10
23.42733831879594
 20
62.4836968159763
 30
0.0
 10
23.94548067977752
 20
64.25654295268586
 30
0.0
 10
24.4470865824299
 20
65.97323403298586
 30
0.0
 10
24.78436143043585
 20
69.55217147783766
 30
0.0
 10
27.52562390804915
 20
68.75738794939052
 30
0.0
 10
29.45177679385234
 20
68.19893797123152
 30
0.0
 10
29.08005099099388
 20
64.94452852109026
 30
0.0
 10
30.76780326921777
 20
63.84657658994114
 30
0.0
 10
33.43671874164082
 20
62.11024846537522
 30
0.0
 10
35.31774087658723
 20
68.74240178402968
 30
0.0
 10
38.06520452607398
 20
68.74481335086935
 30
0.0
 10
38.31187336281787
 20
68.74498560564362
 30
0.0
 10
38.56922199556603
 20
68.71001788646834
 30
0.0
 10
38.80004339307777
 20
68.6206176586261
 30
0.0
 10
38.80004339307777
 20
68.6206176586261
 30
0.0
 10
38.80004339307777
 20
40.89569497675524
 30
0.0
 10
38.80004339307777
 20
40.89569497675524
 30
0.0
  0
SPLINE
  5
42
330
1F
100
AcDbEntity
  8
Layer 1
370
     0
100
AcDbSpline
210
0.0
220
0.0
230
1.0
 70
    11
 71
     3
 72
    20
 73
    16
 74
     0
 42
0.0000000001
 43
0.0000000001
 40
0.0
 40
0.0
 40
0.0
 40
0.0
 40
1.0
 40
1.0
 40
1.0
 40
2.0
 40
2.0
 40
2.0
 40
3.0
 40
3.0
 40
3.0
 40
4.0
 40
4.0
 40
4.0
 40
5.0
 40
5.0
 40
5.0
 40
5.0
 10
37.52019042030746
 20
92.40572914356524
 30
0.0
 10
37.52019042030746
 20
92.40572914356524
 30
0.0
 10
32.77078178434203
 20
92.40572914356524
 30
0.0
 10
32.77078178434203
 20
92.40572914356524
 30
0.0
 10
31.95739474027454
 20
92.40572914356524
 30
0.0
 10
31.29834797394625
 20
93.06512041944205
 30
0.0
 10
31.29834797394625
 20
93.87850746350955
 30
0.0
 10
31.29834797394625
 20
94.69172225280276
 30
0.0
 10
31.95739474027454
 20
95.35094127390532
 30
0.0
 10
32.77078178434203
 20
95.35094127390532
 30
0.0
 10
32.77078178434203
 20
95.35094127390532
 30
0.0
 10
37.52019042030746
 20
95.35094127390532
 30
0.0
 10
37.52019042030746
 20
95.35094127390532
 30
0.0
 10
39.41947156132569
 20
95.35094127390532
 30
0.0
 10
39.41947156132569
 20
92.40572914356524
 30
0.0
 10
37.52019042030746
 20
92.40572914356524
 30
0.0
  0
HATCH
  5
43
330
1F
100
AcDbEntity
  8
Layer 1
 62
   231
420
 16220080
100
AcDbHatch
 10
0.0
 20
0.0
 30
0.0
210
0.0
220
0.0
230
1.0
  2
SOLID
 70
     1
 71
     0
 91
        7
 92
        1
 93
        1
 72
     4
 94
        3
 73
     0
 74
     1
 95
       77
 96
       73
 40
0.0
 40
0.0
 40
0.0
 40
0.0
 40
1.0
 40
1.0
 40
1.0
 40
2.0
 40
2.0
 40
2.0
 40
3.0
 40
3.0
 40
3.0
 40
4.0
 40
4.0
 40
4.0
 40
5.0
 40
5.0
 40
5.0
 40
6.0
 40
6.0
 40
6.0
 40
7.0
 40
7.0
 40
7.0
 40
8.0
 40
8.0
 40
8.0
 40
9.0
 40
9.0
 40
9.0
 40
10.0
 40
10.0
 40
10.0
 40
11.0
 40
11.0
 40
11.0
 40
12.0
 40
12.0
 40
12.0
 40
13.0
 40
13.0
 40
13.0
 40
14.0
 40
14.0
 40
14.0
 40
15.0
 40
15.0
 40
15.0
 40
16.0
 40
16.0
 40
16.0
 40
17.0
 40
17.0
 40
17.0
 40
18.0
 40
18.0
 40
18.0
 40
19.0
 40
19.0
 40
19.0
 40
20.0
 40
20.0
 40
20.0
 40
21.0
 40
21.0
 40
21.0
 40
22.0
 40
22.0
 40
22.0
 40
23.0
 40
23.0
 40
23.0
 40
24.0
 40
24.0
 40
24.0
 40
24.0
 10
39.49112954741889
 20
99.0792236080427
 10
38.29361435674604
 20
100.1916449402299
 10
36.72988551599114
 20
100.8613715025624
 10
35.09725476553125
 20
100.9540445711157
 10
29.00322536167281
 20
102.399951146275
 10
22.91333007239667
 20
100.9667914244111
 10
16.78261040162032
 20
100.9667914244111
 10
15.18081325575341
 20
100.9667914244111
 10
13.56506347317123
 20
100.8887600116702
 10
11.97101779214614
 20
101.0661824291605
 10
9.765123152940664
 20
101.3113009729361
 10
7.487226018093471
 20
101.7347032080733
 10
5.274096678368976
 20
101.3330050744931
 10
2.734716796191321
 20
100.8720512985667
 10
1.526005045191416
 20
99.15691051123508
 10
0.9558417423825674
 20
96.75051131478807
 10
0.2315104166087891
 20
93.69230005253179
 10
0.1896525064630036
 20
90.49249536583174
 10
0.1202338324352193
 20
87.36607121296751
 10
0.042030164920048
 20
83.85327960143252
 10
-0.0563273111838348
 20
80.35099553112754
 10
0.0399631076288981
 20
76.83717039094697
 10
0.137976074184256
 20
73.26047225816058
 10
-0.0134358723924744
 20
69.46501056206084
 10
0.9901204424608032
 20
65.99993352299654
 10
0.9901204424608032
 20
65.99993352299654
 10
0.9901204424608032
 20
40.89569497675524
 10
0.9901204424608032
 20
40.89569497675524
 10
0.9894314233637533
 20
37.05096841521642
 10
4.200777179939389
 20
33.8404839325121
 10
8.04360893896132
 20
33.84255098980325
 10
8.04360893896132
 20
33.84255098980325
 10
16.61225042987472
 20
33.84255098980325
 10
16.61225042987472
 20
33.84255098980325
 10
16.61225042987472
 20
33.84255098980325
 10
17.72243244999648
 20
4.56371798931046
 10
17.72243244999648
 20
4.56371798931046
 10
17.72243244999648
 20
2.076703558508602
 10
19.79879149895655
 20
0.0
 10
22.28597818453267
 20
0.0
 10
24.77299261533453
 20
0.0
 10
26.84969617384313
 20
2.076703558508602
 10
26.84969617384313
 20
4.56371798931046
 10
26.84969617384313
 20
4.56371798931046
 10
26.84969617384313
 20
33.84255098980325
 10
26.84969617384313
 20
33.84255098980325
 10
26.84969617384313
 20
33.84255098980325
 10
34.69211153646587
 20
33.84255098980325
 10
34.69211153646587
 20
33.84255098980325
 10
38.53683809800468
 20
33.84151746115768
 10
41.74697807116048
 20
37.05269096295905
 10
41.74560003296638
 20
40.89569497675524
 10
41.74560003296638
 20
47.26464300033662
 10
41.74560003296638
 20
53.63359102391799
 10
41.74560003296638
 20
60.00219453795084
 10
41.74560003296638
 20
62.61633299215842
 10
41.74560003296638
 20
65.23012693681747
 10
41.74560003296638
 20
67.84426539102505
 10
41.74560003296638
 20
68.47402884572872
 10
42.15039875248323
 20
69.20628389111857
 10
42.25926376981713
 20
69.84621037750372
 10
42.53383787999154
 20
71.4647162364741
 10
42.53831650412237
 20
73.12335745784763
 10
42.51385632617709
 20
74.75995006811557
 10
42.46493597028655
 20
78.04553763239834
 10
42.59240450324079
 20
81.2737643568517
 10
42.74192164730064
 20
84.55676809952054
 10
42.86387802747848
 20
87.23395180110818
 10
42.93209091808642
 20
89.91837020321486
 10
42.81116806655415
 20
92.59675968822235
 10
42.67267522804711
 20
95.66410045351454
 10
41.39316676482532
 20
97.71737736272344
 10
39.49112954741889
 20
99.0792236080427
 97
        0
 92
        1
 93
        1
 72
     4
 94
        3
 73
     0
 74
     1
 95
       20
 96
       16
 40
0.0
 40
0.0
 40
0.0
 40
0.0
 40
1.0
 40
1.0
 40
1.0
 40
2.0
 40
2.0
 40
2.0
 40
3.0
 40
3.0
 40
3.0
 40
4.0
 40
4.0
 40
4.0
 40
5.0
 40
5.0
 40
5.0
 40
5.0
 10
25.95466036677523
 20
89.37421737131965
 10
26.36187065313176
 20
90.07822263373045
 10
27.26276312252459
 20
90.31886255337515
 10
27.96659613016113
 20
89.91182452179288
 10
27.96659613016113
 20
89.91182452179288
 10
31.13298339065426
 20
88.0802395070598
 10
31.13298339065426
 20
88.0802395070598
 10
32.777327465764
 20
87.12939315313085
 10
31.30248208852855
 20
84.5798502392717
 10
29.65882703251585
 20
85.53069659320066
 10
29.65882703251585
 20
85.53069659320066
 10
26.49243977202272
 20
87.36210935315948
 10
26.49243977202272
 20
87.36210935315948
 10
25.78826225483766
 20
87.76931963951601
 10
25.5474500804187
 20
88.67021210890884
 10
25.95466036677523
 20
89.37421737131965
 97
        0
 92
        1
 93
        1
 72
     4
 94
        3
 73
     0
 74
     1
 95
       17
 96
       13
 40
0.0
 40
0.0
 40
0.0
 40
0.0
 40
1.0
 40
1.0
 40
1.0
 40
2.0
 40
2.0
 40
2.0
 40
3.0
 40
3.0
 40
3.0
 40
4.0
 40
4.0
 40
4.0
 40
4.0
 10
19.20968017097883
 20
95.04742836165481
 10
19.20968017097883
 20
95.04742836165481
 10
22.37589517669769
 20
97.47380911191627
 10
22.37589517669769
 20
97.47380911191627
 10
23.88346896104302
 20
98.62894962812055
 10
25.67491861337294
 20
96.29110783183
 10
24.16734482902761
 20
95.13579506085148
 10
24.16734482902761
 20
95.13579506085148
 10
21.00112982330875
 20
92.70958656536428
 10
21.00112982330875
 20
92.70958656536428
 10
19.49321152941489
 20
91.55444604916
 10
17.7021063866335
 20
93.89194333590201
 10
19.20968017097883
 20
95.04742836165481
 97
        0
 92
        1
 93
        1
 72
     4
 94
        3
 73
     0
 74
     1
 95
       20
 96
       16
 40
0.0
 40
0.0
 40
0.0
 40
0.0
 40
1.0
 40
1.0
 40
1.0
 40
2.0
 40
2.0
 40
2.0
 40
3.0
 40
3.0
 40
3.0
 40
4.0
 40
4.0
 40
4.0
 40
5.0
 40
5.0
 40
5.0
 40
5.0
 10
15.81608886323348
 20
87.58070066169859
 10
15.81608886323348
 20
87.58070066169859
 10
17.92707112182032
 20
84.17057289562403
 10
17.92707112182032
 20
84.17057289562403
 10
18.35546874541113
 20
83.47879772218586
 10
18.14170057055138
 20
82.57135957137105
 10
17.45026990666174
 20
82.14330645732876
 10
16.75849473322357
 20
81.71525334328646
 10
15.8508843276345
 20
81.92884926337196
 10
15.42283121359221
 20
82.6202799272616
 10
15.42283121359221
 20
82.6202799272616
 10
13.31184895500537
 20
86.03040769333616
 10
13.31184895500537
 20
86.03040769333616
 10
12.31242675473439
 20
87.64546845682128
 10
14.8166666629625
 20
89.19558917040943
 10
15.81608886323348
 20
87.58070066169859
 97
        0
 92
        1
 93
        1
 72
     4
 94
        3
 73
     0
 74
     1
 95
       17
 96
       13
 40
0.0
 40
0.0
 40
0.0
 40
0.0
 40
1.0
 40
1.0
 40
1.0
 40
2.0
 40
2.0
 40
2.0
 40
3.0
 40
3.0
 40
3.0
 40
4.0
 40
4.0
 40
4.0
 40
4.0
 10
6.016342500666053
 20
95.04742836165481
 10
6.016342500666053
 20
95.04742836165481
 10
9.182729761159178
 20
97.47380911191627
 10
9.182729761159178
 20
97.47380911191627
 10
10.69030354550451
 20
98.62894962812055
 10
12.48175319783442
 20
96.29110783183
 10
10.97417941348909
 20
95.13579506085148
 10
10.97417941348909
 20
95.13579506085148
 10
7.807792152995969
 20
92.70958656536428
 10
7.807792152995969
 20
92.70958656536428
 10
6.299873859102116
 20
91.55444604916
 10
4.508768716320724
 20
93.89194333590201
 10
6.016342500666053
 20
95.04742836165481
 97
        0
 92
        1
 93
        1
 72
     4
 94
        3
 73
     0
 74
     1
 95
       47
 96
       43
 40
0.0
 40
0.0
 40
0.0
 40
0.0
 40
1.0
 40
1.0
 40
1.0
 40
2.0
 40
2.0
 40
2.0
 40
3.0
 40
3.0
 40
3.0
 40
4.0
 40
4.0
 40
4.0
 40
5.0
 40
5.0
 40
5.0
 40
6.0
 40
6.0
 40
6.0
 40
7.0
 40
7.0
 40
7.0
 40
8.0
 40
8.0
 40
8.0
 40
9.0
 40
9.0
 40
9.0
 40
10.0
 40
10.0
 40
10.0
 40
11.0
 40
11.0
 40
11.0
 40
12.0
 40
12.0
 40
12.0
 40
13.0
 40
13.0
 40
13.0
 40
14.0
 40
14.0
 40
14.0
 40
14.0
 10
38.80004339307777
 20
40.89569497675524
 10
38.80004339307777
 20
39.53901637466386
 10
38.11205782467338
 20
38.2474500772437
 10
36.98792316783636
 20
37.48849554184316
 10
36.33059894925069
 20
37.0451117528915
 10
35.54787325500192
 20
36.78845213924039
 10
34.69211153646587
 20
36.78741861059481
 10
34.69211153646587
 20
36.78741861059481
 10
8.04360893896132
 20
36.78741861059481
 10
8.04360893896132
 20
36.78741861059481
 10
5.803435599677614
 20
36.78845213924039
 10
3.937055120543514
 20
38.65638291134285
 10
3.935504827575152
 20
40.89569497675524
 10
3.935504827575152
 20
40.89569497675524
 10
3.935504827575152
 20
61.68409015384982
 10
3.935504827575152
 20
61.68409015384982
 10
6.863319225714726
 20
60.87742104597856
 10
8.351772730116918
 20
65.41685111211801
 10
9.5436035132391
 20
67.19073077747315
 10
11.29922417252242
 20
69.80400795780942
 10
15.20492892415016
 20
70.48872068550283
 10
17.01119248706665
 20
67.60224743318625
 10
18.13084851977284
 20
65.8123480738247
 10
18.73666856085403
 20
63.68207328052046
 10
20.1310709585089
 20
62.0644286954214
 10
21.88393554140402
 20
60.03078883047841
 10
23.42733831879594
 20
62.4836968159763
 10
23.94548067977752
 20
64.25654295268586
 10
24.4470865824299
 20
65.97323403298586
 10
24.78436143043585
 20
69.55217147783766
 10
27.52562390804915
 20
68.75738794939052
 10
29.45177679385234
 20
68.19893797123152
 10
29.08005099099388
 20
64.94452852109026
 10
30.76780326921777
 20
63.84657658994114
 10
33.43671874164082
 20
62.11024846537522
 10
35.31774087658723
 20
68.74240178402968
 10
38.06520452607398
 20
68.74481335086935
 10
38.31187336281787
 20
68.74498560564362
 10
38.56922199556603
 20
68.71001788646834
 10
38.80004339307777
 20
68.6206176586261
 10
38.80004339307777
 20
68.6206176586261
 10
38.80004339307777
 20
40.89569497675524
 10
38.80004339307777
 20
40.89569497675524
 97
        0
 92
        1
 93
        1
 72
     4
 94
        3
 73
     0
 74
     1
 95
       20
 96
       16
 40
0.0
 40
0.0
 40
0.0
 40
0.0
 40
1.0
 40
1.0
 40
1.0
 40
2.0
 40
2.0
 40
2.0
 40
3.0
 40
3.0
 40
3.0
 40
4.0
 40
4.0
 40
4.0
 40
5.0
 40
5.0
 40
5.0
 40
5.0
 10
37.52019042030746
 20
92.40572914356524
 10
37.52019042030746
 20
92.40572914356524
 10
32.77078178434203
 20
92.40572914356524
 10
32.77078178434203
 20
92.40572914356524
 10
31.95739474027454
 20
92.40572914356524
 10
31.29834797394625
 20
93.06512041944205
 10
31.29834797394625
 20
93.87850746350955
 10
31.29834797394625
 20
94.69172225280276
 10
31.95739474027454
 20
95.35094127390532
 10
32.77078178434203
 20
95.35094127390532
 10
32.77078178434203
 20
95.35094127390532
 10
37.52019042030746
 20
95.35094127390532
 10
37.52019042030746
 20
95.35094127390532
 10
39.41947156132569
 20
95.35094127390532
 10
39.41947156132569
 20
92.40572914356524
 10
37.52019042030746
 20
92.40572914356524
 97
        0
 75
     2
 76
     1
 98
        0
  0
ENDSEC
  0
SECTION
  2
OBJECTS
  0
DICTIONARY
  5
C
330
0
100
AcDbDictionary
281
     1
  3
ACAD_GROUP
350
D
  3
ACAD_LAYOUT
350
1A
  3
ACAD_MLINESTYLE
350
17
  3
ACAD_PLOTSETTINGS
350
19
  3
ACAD_PLOTSTYLENAME
350
E
  3
ACAD_TABLESTYLE
350
44
  3
ACAD_VISUALSTYLE
350
2A
  0
DICTIONARY
  5
D
102
{ACAD_REACTORS
330
C
102
}
330
C
100
AcDbDictionary
281
     1
  0
DICTIONARY
  5
1A
102
{ACAD_REACTORS
330
C
102
}
330
C
100
AcDbDictionary
281
     1
  3
Layout1
350
1E
  3
Layout2
350
26
  3
Model
350
22
  0
DICTIONARY
  5
17
102
{ACAD_REACTORS
330
C
102
}
330
C
100
AcDbDictionary
281
     1
  3
Standard
350
18
  0
DICTIONARY
  5
19
102
{ACAD_REACTORS
330
C
102
}
330
C
100
AcDbDictionary
281
     1
  0
ACDBDICTIONARYWDFLT
  5
E
102
{ACAD_REACTORS
330
C
102
}
330
C
100
AcDbDictionary
281
     1
  3
Normal
350
F
100
AcDbDictionaryWithDefault
340
F
  0
DICTIONARY
  5
44
102
{ACAD_REACTORS
330
C
102
}
330
C
100
AcDbDictionary
281
     1
  0
DICTIONARY
  5
2A
102
{ACAD_REACTORS
330
C
102
}
330
C
100
AcDbDictionary
281
     1
  3
2dWireframe
350
2F
  3
3D Hidden
350
31
  3
3dWireframe
350
30
  3
Basic
350
32
  3
Brighten
350
36
  3
ColorChange
350
3A
  3
Conceptual
350
34
  3
Dim
350
35
  3
Facepattern
350
39
  3
Flat
350
2B
  3
FlatWithEdges
350
2C
  3
Gouraud
350
2D
  3
GouraudWithEdges
350
2E
  3
Linepattern
350
38
  3
Realistic
350
33
  3
Thicken
350
37
  0
LAYOUT
  5
1E
102
{ACAD_REACTORS
330
1A
102
}
330
1A
100
AcDbPlotSettings
  1

  2
none_device
  4

  6

 40
0.0
 41
0.0
 42
0.0
 43
0.0
 44
0.0
 45
0.0
 46
0.0
 47
0.0
 48
0.0
 49
0.0
140
0.0
141
0.0
142
1.0
143
1.0
 70
   688
 72
     0
 73
     0
 74
     5
  7

 75
    16
 76
     0
 77
     2
 78
   300
147
1.0
148
0.0
149
0.0
100
AcDbLayout
  1
Layout1
 70
     1
 71
     1
 10
0.0
 20
0.0
 11
12.0
 21
9.0
 12
0.0
 22
0.0
 32
0.0
 14
1.000000000000000E+20
 24
1.000000000000000E+20
 34
1.000000000000000E+20
 15
-1.000000000000000E+20
 25
-1.000000000000000E+20
 35
-1.000000000000000E+20
146
0.0
 13
0.0
 23
0.0
 33
0.0
 16
1.0
 26
0.0
 36
0.0
 17
0.0
 27
1.0
 37
0.0
 76
     0
330
1B
  0
LAYOUT
  5
26
102
{ACAD_REACTORS
330
1A
102
}
330
1A
100
AcDbPlotSettings
  1

  2
none_device
  4

  6

 40
0.0
 41
0.0
 42
0.0
 43
0.0
 44
0.0
 45
0.0
 46
0.0
 47
0.0
 48
0.0
 49
0.0
140
0.0
141
0.0
142
1.0
143
1.0
 70
   688
 72
     0
 73
     0
 74
     5
  7

 75
    16
 76
     0
 77
     2
 78
   300
147
1.0
148
0.0
149
0.0
100
AcDbLayout
  1
Layout2
 70
     1
 71
     2
 10
0.0
 20
0.0
 11
0.0
 21
0.0
 12
0.0
 22
0.0
 32
0.0
 14
0.0
 24
0.0
 34
0.0
 15
0.0
 25
0.0
 35
0.0
146
0.0
 13
0.0
 23
0.0
 33
0.0
 16
1.0
 26
0.0
 36
0.0
 17
0.0
 27
1.0
 37
0.0
 76
     0
330
23
  0
LAYOUT
  5
22
102
{ACAD_REACTORS
330
1A
102
}
330
1A
100
AcDbPlotSettings
  1

  2
none_device
  4

  6

 40
0.0
 41
0.0
 42
0.0
 43
0.0
 44
0.0
 45
0.0
 46
0.0
 47
0.0
 48
0.0
 49
0.0
140
0.0
141
0.0
142
1.0
143
1.0
 70
  1712
 72
     0
 73
     0
 74
     0
  7

 75
     0
 76
     0
 77
     2
 78
   300
147
1.0
148
0.0
149
0.0
100
AcDbLayout
  1
Model
 70
     1
 71
     0
 10
0.0
 20
0.0
 11
12.0
 21
9.0
 12
0.0
 22
0.0
 32
0.0
 14
1.000000000000000E+20
 24
1.000000000000000E+20
 34
1.000000000000000E+20
 15
-1.000000000000000E+20
 25
-1.000000000000000E+20
 35
-1.000000000000000E+20
146
0.0
 13
0.0
 23
0.0
 33
0.0
 16
1.0
 26
0.0
 36
0.0
 17
0.0
 27
1.0
 37
0.0
 76
     0
330
1F
331
29
  0
MLINESTYLE
  5
18
102
{ACAD_REACTORS
330
17
102
}
330
17
100
AcDbMlineStyle
  2
Standard
 70
     0
  3

 62
   256
 51
90.0
 52
90.0
 71
     2
 49
0.5
 62
   256
  6
BYLAYER
 49
-0.5
 62
   256
  6
BYLAYER
  0
ACDBPLACEHOLDER
  5
F
102
{ACAD_REACTORS
330
E
102
}
330
E
  0
VISUALSTYLE
  5
2F
102
{ACAD_REACTORS
330
2A
102
}
330
2A
100
AcDbVisualStyle
  2
2dWireframe
 70
     4
 71
     0
 72
     2
 73
     0
 90
        0
 40
-0.6
 41
-30.0
 62
     5
 63
     7
421
 16777215
 74
     1
 91
        4
 64
     7
 65
   257
 75
     1
175
     1
 42
1.0
 92
        0
 66
   257
 43
1.0
 76
     1
 77
     6
 78
     2
 67
     7
 79
     5
170
     0
171
     0
290
     0
174
     0
 93
        1
 44
0.0
173
     0
291
     0
 45
0.0
1001
ACAD
1000
AcDbSavedByObjectVersion
1070
     0
  0
VISUALSTYLE
  5
31
102
{ACAD_REACTORS
330
2A
102
}
330
2A
100
AcDbVisualStyle
  2
3D Hidden
 70
     6
 71
     1
 72
     2
 73
     2
 90
        0
 40
-0.6
 41
-30.0
 62
     5
 63
     7
421
 16777215
 74
     2
 91
        2
 64
     7
 65
   257
 75
     2
175
     1
 42
40.0
 92
        0
 66
   257
 43
1.0
 76
     1
 77
     6
 78
     2
 67
     7
 79
     3
170
     0
171
     0
290
     0
174
     0
 93
        1
 44
0.0
173
     0
291
     0
 45
0.0
1001
ACAD
1000
AcDbSavedByObjectVersion
1070
     0
  0
VISUALSTYLE
  5
30
102
{ACAD_REACTORS
330
2A
102
}
330
2A
100
AcDbVisualStyle
  2
3dWireframe
 70
     5
 71
     0
 72
     2
 73
     0
 90
        0
 40
-0.6
 41
-30.0
 62
     5
 63
     7
421
 16777215
 74
     1
 91
        4
 64
     7
 65
   257
 75
     1
175
     1
 42
1.0
 92
        0
 66
   257
 43
1.0
 76
     1
 77
     6
 78
     2
 67
     7
 79
     5
170
     0
171
     0
290
     0
174
     0
 93
        1
 44
0.0
173
     0
291
     0
 45
0.0
1001
ACAD
1000
AcDbSavedByObjectVersion
1070
     0
  0
VISUALSTYLE
  5
32
102
{ACAD_REACTORS
330
2A
102
}
330
2A
100
AcDbVisualStyle
  2
Basic
 70
     7
 71
     1
 72
     0
 73
     1
 90
        0
 40
-0.6
 41
-30.0
 62
     5
 63
     7
421
 16777215
 74
     0
 91
        4
 64
     7
 65
   257
 75
     1
175
     1
 42
1.0
 92
        8
 66
     7
 43
1.0
 76
     1
 77
     6
 78
     2
 67
     7
 79
     5
170
     0
171
     0
290
     0
174
     0
 93
        1
 44
0.0
173
     0
291
     1
 45
0.0
1001
ACAD
1000
AcDbSavedByObjectVersion
1070
     0
  0
VISUALSTYLE
  5
36
102
{ACAD_REACTORS
330
2A
102
}
330
2A
100
AcDbVisualStyle
  2
Brighten
 70
    12
 71
     2
 72
     2
 73
     0
 90
        0
 40
-0.6
 41
-30.0
 62
     5
 63
     7
421
 16777215
 74
     1
 91
        4
 64
     7
 65
   257
 75
     1
175
     1
 42
1.0
 92
        8
 66
     7
 43
1.0
 76
     1
 77
     6
 78
     2
 67
     7
 79
     5
170
     0
171
     0
290
     0
174
     0
 93
        1
 44
50.0
173
     0
291
     1
 45
0.0
1001
ACAD
1000
AcDbSavedByObjectVersion
1070
     0
  0
VISUALSTYLE
  5
3A
102
{ACAD_REACTORS
330
2A
102
}
330
2A
100
AcDbVisualStyle
  2
ColorChange
 70
    16
 71
     2
 72
     2
 73
     3
 90
        0
 40
-0.6
 41
-30.0
 62
     5
 63
     8
421
  8421504
 74
     1
 91
        4
 64
     7
 65
   257
 75
     1
175
     1
 42
1.0
 92
        8
 66
     8
424
  8421504
 43
1.0
 76
     1
 77
     6
 78
     2
 67
     7
 79
     5
170
     0
171
     0
290
     0
174
     0
 93
        1
 44
0.0
173
     0
291
     1
 45
0.0
1001
ACAD
1000
AcDbSavedByObjectVersion
1070
     0
  0
VISUALSTYLE
  5
34
102
{ACAD_REACTORS
330
2A
102
}
330
2A
100
AcDbVisualStyle
  2
Conceptual
 70
     9
 71
     3
 72
     2
 73
     0
 90
        0
 40
-0.6
 41
-30.0
 62
     5
 63
     7
421
 16777215
 74
     2
 91
        2
 64
     7
 65
   257
 75
     1
175
     1
 42
40.0
 92
        8
 66
     7
 43
1.0
 76
     1
 77
     6
 78
     2
 67
     7
 79
     3
170
     0
171
     0
290
     0
174
     0
 93
        1
 44
0.0
173
     0
291
     0
 45
0.0
1001
ACAD
1000
AcDbSavedByObjectVersion
1070
     0
  0
VISUALSTYLE
  5
35
102
{ACAD_REACTORS
330
2A
102
}
330
2A
100
AcDbVisualStyle
  2
Dim
 70
    11
 71
     2
 72
     2
 73
     0
 90
        0
 40
-0.6
 41
-30.0
 62
     5
 63
     7
421
 16777215
 74
     1
 91
        4
 64
     7
 65
   257
 75
     1
175
     1
 42
1.0
 92
        8
 66
     7
 43
1.0
 76
     1
 77
     6
 78
     2
 67
     7
 79
     5
170
     0
171
     0
290
     0
174
     0
 93
        1
 44
-50.0
173
     0
291
     1
 45
0.0
1001
ACAD
1000
AcDbSavedByObjectVersion
1070
     0
  0
VISUALSTYLE
  5
39
102
{ACAD_REACTORS
330
2A
102
}
330
2A
100
AcDbVisualStyle
  2
Facepattern
 70
    15
 71
     2
 72
     2
 73
     0
 90
        0
 40
-0.6
 41
-30.0
 62
     5
 63
     7
421
 16777215
 74
     1
 91
        4
 64
     7
 65
   257
 75
     1
175
     1
 42
1.0
 92
        8
 66
     7
 43
1.0
 76
     1
 77
     6
 78
     2
 67
     7
 79
     5
170
     0
171
     0
290
     0
174
     0
 93
        1
 44
0.0
173
     0
291
     1
 45
0.0
1001
ACAD
1000
AcDbSavedByObjectVersion
1070
     0
  0
VISUALSTYLE
  5
2B
102
{ACAD_REACTORS
330
2A
102
}
330
2A
100
AcDbVisualStyle
  2
Flat
 70
     0
 71
     2
 72
     1
 73
     1
 90
        2
 40
-0.6
 41
30.0
 62
     5
 63
     7
421
 16777215
 74
     0
 91
        4
 64
     7
 65
   257
 75
     1
175
     1
 42
1.0
 92
        8
 66
     7
 43
1.0
 76
     1
 77
     6
 78
     2
 67
     7
 79
     5
170
     0
171
     0
290
     0
174
     0
 93
       13
 44
0.0
173
     0
291
     1
 45
0.0
1001
ACAD
1000
AcDbSavedByObjectVersion
1070
     0
  0
VISUALSTYLE
  5
2C
102
{ACAD_REACTORS
330
2A
102
}
330
2A
100
AcDbVisualStyle
  2
FlatWithEdges
 70
     1
 71
     2
 72
     1
 73
     1
 90
        2
 40
-0.6
 41
30.0
 62
     5
 63
     7
421
 16777215
 74
     1
 91
        4
 64
     7
 65
   257
 75
     1
175
     1
 42
1.0
 92
        0
 66
   257
 43
1.0
 76
     1
 77
     6
 78
     2
 67
     7
 79
     5
170
     0
171
     0
290
     0
174
     0
 93
       13
 44
0.0
173
     0
291
     1
 45
0.0
1001
ACAD
1000
AcDbSavedByObjectVersion
1070
     0
  0
VISUALSTYLE
  5
2D
102
{ACAD_REACTORS
330
2A
102
}
330
2A
100
AcDbVisualStyle
  2
Gouraud
 70
     2
 71
     2
 72
     2
 73
     1
 90
        2
 40
-0.6
 41
30.0
 62
     5
 63
     7
421
 16777215
 74
     0
 91
        4
 64
     7
 65
   257
 75
     1
175
     1
 42
1.0
 92
        0
 66
     7
 43
1.0
 76
     1
 77
     6
 78
     2
 67
     7
 79
     5
170
     0
171
     0
290
     0
174
     0
 93
       13
 44
0.0
173
     0
291
     1
 45
0.0
1001
ACAD
1000
AcDbSavedByObjectVersion
1070
     0
  0
VISUALSTYLE
  5
2E
102
{ACAD_REACTORS
330
2A
102
}
330
2A
100
AcDbVisualStyle
  2
GouraudWithEdges
 70
     3
 71
     2
 72
     2
 73
     1
 90
        2
 40
-0.6
 41
30.0
 62
     5
 63
     7
421
 16777215
 74
     1
 91
        4
 64
     7
 65
   257
 75
     1
175
     1
 42
1.0
 92
        0
 66
   257
 43
1.0
 76
     1
 77
     6
 78
     2
 67
     7
 79
     5
170
     0
171
     0
290
     0
174
     0
 93
       13
 44
0.0
173
     0
291
     1
 45
0.0
1001
ACAD
1000
AcDbSavedByObjectVersion
1070
     0
  0
VISUALSTYLE
  5
38
102
{ACAD_REACTORS
330
2A
102
}
330
2A
100
AcDbVisualStyle
  2
Linepattern
 70
    14
 71
     2
 72
     2
 73
     0
 90
        0
 40
-0.6
 41
-30.0
 62
     5
 63
     7
421
 16777215
 74
     1
 91
        4
 64
     7
 65
   257
 75
     7
175
     7
 42
1.0
 92
        8
 66
     7
 43
1.0
 76
     1
 77
     6
 78
     2
 67
     7
 79
     5
170
     0
171
     0
290
     0
174
     0
 93
        1
 44
0.0
173
     0
291
     1
 45
0.0
1001
ACAD
1000
AcDbSavedByObjectVersion
1070
     0
  0
VISUALSTYLE
  5
33
102
{ACAD_REACTORS
330
2A
102
}
330
2A
100
AcDbVisualStyle
  2
Realistic
 70
     8
 71
     2
 72
     2
 73
     0
 90
        0
 40
-0.6
 41
-30.0
 62
     5
 63
     7
421
 16777215
 74
     1
 91
        0
 64
     7
 65
   257
 75
     1
175
     1
 42
1.0
 92
        8
 66
     8
424
  7895160
 43
1.0
 76
     1
 77
     6
 78
     2
 67
     7
 79
     5
170
     0
171
     0
290
     0
174
     0
 93
       13
 44
0.0
173
     0
291
     0
 45
0.0
1001
ACAD
1000
AcDbSavedByObjectVersion
1070
     0
  0
VISUALSTYLE
  5
37
102
{ACAD_REACTORS
330
2A
102
}
330
2A
100
AcDbVisualStyle
  2
Thicken
 70
    13
 71
     2
 72
     2
 73
     0
 90
        0
 40
-0.6
 41
-30.0
 62
     5
 63
     7
421
 16777215
 74
     1
 91
        4
 64
     7
 65
   257
 75
     1
175
     1
 42
1.0
 92
       12
 66
     7
 43
1.0
 76
     1
 77
     6
 78
     2
 67
     7
 79
     5
170
     0
171
     0
290
     0
174
     0
 93
        1
 44
0.0
173
     0
291
     1
 45
0.0
1001
ACAD
1000
AcDbSavedByObjectVersion
1070
     0
  0
ENDSEC
  0
EOF
