  0
SECTION
  2
HEADER
  9
$ACADVER
  1
AC1018
  9
$ACADMAINTVER
 70
     0
  9
$DWGCODEPAGE
  3
ANSI_1252
  9
$INSBASE
 10
0.0
 20
0.0
 30
0.0
  9
$EXTMIN
 10
1.000000000000000E+20
 20
1.000000000000000E+20
 30
1.000000000000000E+20
  9
$EXTMAX
 10
-1.000000000000000E+20
 20
-1.000000000000000E+20
 30
-1.000000000000000E+20
  9
$LIMMIN
 10
0.0
 20
0.0
  9
$LIMMAX
 10
12.0
 20
9.0
  9
$ORTHOMODE
 70
     0
  9
$REGENMODE
 70
     1
  9
$FILLMODE
 70
     1
  9
$QTEXTMODE
 70
     0
  9
$MIRRTEXT
 70
     1
  9
$LTSCALE
 40
1.0
  9
$ATTMODE
 70
     1
  9
$TEXTSIZE
 40
0.2
  9
$TRACEWID
 40
0.05
  9
$TEXTSTYLE
  7
Standard
  9
$CLAYER
  8
0
  9
$CELTYPE
  6
ByLayer
  9
$CECOLOR
 62
   256
  9
$CELTSCALE
 40
1.0
  9
$DISPSILH
 70
     0
  9
$DIMSCALE
 40
1.0
  9
$DIMASZ
 40
0.18
  9
$DIMEXO
 40
0.0625
  9
$DIMDLI
 40
0.38
  9
$DIMRND
 40
0.0
  9
$DIMDLE
 40
0.0
  9
$DIMEXE
 40
0.18
  9
$DIMTP
 40
0.0
  9
$DIMTM
 40
0.0
  9
$DIMTXT
 40
0.18
  9
$DIMCEN
 40
0.09
  9
$DIMTSZ
 40
0.0
  9
$DIMTOL
 70
     0
  9
$DIMLIM
 70
     0
  9
$DIMTIH
 70
     1
  9
$DIMTOH
 70
     1
  9
$DIMSE1
 70
     0
  9
$DIMSE2
 70
     0
  9
$DIMTAD
 70
     0
  9
$DIMZIN
 70
     0
  9
$DIMBLK
  1

  9
$DIMASO
 70
     1
  9
$DIMSHO
 70
     1
  9
$DIMPOST
  1

  9
$DIMAPOST
  1

  9
$DIMALT
 70
     0
  9
$DIMALTD
 70
     2
  9
$DIMALTF
 40
25.4
  9
$DIMLFAC
 40
1.0
  9
$DIMTOFL
 70
     0
  9
$DIMTVP
 40
0.0
  9
$DIMTIX
 70
     0
  9
$DIMSOXD
 70
     0
  9
$DIMSAH
 70
     0
  9
$DIMBLK1
  1

  9
$DIMBLK2
  1

  9
$DIMSTYLE
  2
Standard
  9
$DIMCLRD
 70
     0
  9
$DIMCLRE
 70
     0
  9
$DIMCLRT
 70
     0
  9
$DIMTFAC
 40
1.0
  9
$DIMGAP
 40
0.09
  9
$DIMJUST
 70
     0
  9
$DIMSD1
 70
     0
  9
$DIMSD2
 70
     0
  9
$DIMTOLJ
 70
     1
  9
$DIMTZIN
 70
     0
  9
$DIMALTZ
 70
     0
  9
$DIMALTTZ
 70
     0
  9
$DIMUPT
 70
     0
  9
$DIMDEC
 70
     4
  9
$DIMTDEC
 70
     4
  9
$DIMALTU
 70
     2
  9
$DIMALTTD
 70
     2
  9
$DIMTXSTY
  7
Standard
  9
$DIMAUNIT
 70
     0
  9
$DIMADEC
 70
     0
  9
$DIMALTRND
 40
0.0
  9
$DIMAZIN
 70
     0
  9
$DIMDSEP
 70
    46
  9
$DIMATFIT
 70
     3
  9
$DIMFRAC
 70
     0
  9
$DIMLDRBLK
  1

  9
$DIMLUNIT
 70
     2
  9
$DIMLWD
 70
    -2
  9
$DIMLWE
 70
    -2
  9
$DIMTMOVE
 70
     0
  9
$LUNITS
 70
     2
  9
$LUPREC
 70
     4
  9
$SKETCHINC
 40
0.1
  9
$FILLETRAD
 40
0.5
  9
$AUNITS
 70
     0
  9
$AUPREC
 70
     0
  9
$MENU
  1
.
  9
$ELEVATION
 40
0.0
  9
$PELEVATION
 40
0.0
  9
$THICKNESS
 40
0.0
  9
$LIMCHECK
 70
     0
  9
$CHAMFERA
 40
0.5
  9
$CHAMFERB
 40
0.5
  9
$CHAMFERC
 40
1.0
  9
$CHAMFERD
 40
0.0
  9
$SKPOLY
 70
     0
  9
$TDCREATE
 40
2455737.061820671
  9
$TDUCREATE
 40
2455737.311820671
  9
$TDUPDATE
 40
2455737.061820683
  9
$TDUUPDATE
 40
2455737.311820683
  9
$TDINDWG
 40
0.0000000116
  9
$TDUSRTIMER
 40
0.0000000116
  9
$USRTIMER
 70
     1
  9
$ANGBASE
 50
0.0
  9
$ANGDIR
 70
     0
  9
$PDMODE
 70
     0
  9
$PDSIZE
 40
0.0
  9
$PLINEWID
 40
0.0
  9
$SPLFRAME
 70
     0
  9
$SPLINETYPE
 70
     6
  9
$SPLINESEGS
 70
     8
  9
$HANDSEED
  5
46
  9
$SURFTAB1
 70
     6
  9
$SURFTAB2
 70
     6
  9
$SURFTYPE
 70
     6
  9
$SURFU
 70
     6
  9
$SURFV
 70
     6
  9
$UCSBASE
  2

  9
$UCSNAME
  2

  9
$UCSORG
 10
0.0
 20
0.0
 30
0.0
  9
$UCSXDIR
 10
1.0
 20
0.0
 30
0.0
  9
$UCSYDIR
 10
0.0
 20
1.0
 30
0.0
  9
$UCSORTHOREF
  2

  9
$UCSORTHOVIEW
 70
     0
  9
$UCSORGTOP
 10
0.0
 20
0.0
 30
0.0
  9
$UCSORGBOTTOM
 10
0.0
 20
0.0
 30
0.0
  9
$UCSORGLEFT
 10
0.0
 20
0.0
 30
0.0
  9
$UCSORGRIGHT
 10
0.0
 20
0.0
 30
0.0
  9
$UCSORGFRONT
 10
0.0
 20
0.0
 30
0.0
  9
$UCSORGBACK
 10
0.0
 20
0.0
 30
0.0
  9
$PUCSBASE
  2

  9
$PUCSNAME
  2

  9
$PUCSORG
 10
0.0
 20
0.0
 30
0.0
  9
$PUCSXDIR
 10
1.0
 20
0.0
 30
0.0
  9
$PUCSYDIR
 10
0.0
 20
1.0
 30
0.0
  9
$PUCSORTHOREF
  2

  9
$PUCSORTHOVIEW
 70
     0
  9
$PUCSORGTOP
 10
0.0
 20
0.0
 30
0.0
  9
$PUCSORGBOTTOM
 10
0.0
 20
0.0
 30
0.0
  9
$PUCSORGLEFT
 10
0.0
 20
0.0
 30
0.0
  9
$PUCSORGRIGHT
 10
0.0
 20
0.0
 30
0.0
  9
$PUCSORGFRONT
 10
0.0
 20
0.0
 30
0.0
  9
$PUCSORGBACK
 10
0.0
 20
0.0
 30
0.0
  9
$USERI1
 70
     0
  9
$USERI2
 70
     0
  9
$USERI3
 70
     0
  9
$USERI4
 70
     0
  9
$USERI5
 70
     0
  9
$USERR1
 40
0.0
  9
$USERR2
 40
0.0
  9
$USERR3
 40
0.0
  9
$USERR4
 40
0.0
  9
$USERR5
 40
0.0
  9
$WORLDVIEW
 70
     1
  9
$SHADEDGE
 70
     3
  9
$SHADEDIF
 70
    70
  9
$TILEMODE
 70
     1
  9
$MAXACTVP
 70
    64
  9
$PINSBASE
 10
0.0
 20
0.0
 30
0.0
  9
$PLIMCHECK
 70
     0
  9
$PEXTMIN
 10
1.000000000000000E+20
 20
1.000000000000000E+20
 30
1.000000000000000E+20
  9
$PEXTMAX
 10
-1.000000000000000E+20
 20
-1.000000000000000E+20
 30
-1.000000000000000E+20
  9
$PLIMMIN
 10
0.0
 20
0.0
  9
$PLIMMAX
 10
12.0
 20
9.0
  9
$UNITMODE
 70
     0
  9
$VISRETAIN
 70
     1
  9
$PLINEGEN
 70
     0
  9
$PSLTSCALE
 70
     1
  9
$TREEDEPTH
 70
  3020
  9
$CMLSTYLE
  2
Standard
  9
$CMLJUST
 70
     0
  9
$CMLSCALE
 40
1.0
  9
$PROXYGRAPHICS
 70
     1
  9
$MEASUREMENT
 70
     0
  9
$CELWEIGHT
370
    -1
  9
$ENDCAPS
280
     0
  9
$JOINSTYLE
280
     0
  9
$LWDISPLAY
290
     1
  9
$INSUNITS
 70
     1
  9
$HYPERLINKBASE
  1

  9
$STYLESHEET
  1

  9
$XEDIT
290
     1
  9
$CEPSNTYPE
380
     0
  9
$PSTYLEMODE
290
     1
  9
$FINGERPRINTGUID
  2
{F6986971-ADD7-478D-875B-C707258097CB}
  9
$VERSIONGUID
  2
{FAEB1C32-E019-11D5-929B-00C0DF256EC4}
  9
$EXTNAMES
290
     1
  9
$PSVPSCALE
 40
0.0
  9
$OLESTARTUP
290
     0
  9
$SORTENTS
280
   127
  9
$INDEXCTL
280
     0
  9
$HIDETEXT
280
     1
  9
$XCLIPFRAME
290
     0
  9
$HALOGAP
280
     0
  9
$OBSCOLOR
 70
   257
  9
$OBSLTYPE
280
     0
  9
$INTERSECTIONDISPLAY
280
     0
  9
$INTERSECTIONCOLOR
 70
   257
  9
$DIMASSOC
280
     2
  9
$PROJECTNAME
  1

  0
ENDSEC
  0
SECTION
  2
CLASSES
  0
CLASS
  1
ACDBDICTIONARYWDFLT
  2
AcDbDictionaryWithDefault
  3
ObjectDBX Classes
 90
        0
 91
        3
280
     0
281
     0
  0
CLASS
  1
VISUALSTYLE
  2
AcDbVisualStyle
  3
ObjectDBX Classes
 90
     4095
 91
        3
280
     0
281
     0
  0
CLASS
  1
IMAGEDEF
  2
AcDbRasterImageDef
  3
ISM
 90
        0
 91
        3
280
     0
281
     0
  0
CLASS
  1
RASTERVARIABLES
  2
AcDbRasterVariables
  3
ISM
 90
        0
 91
        3
280
     0
281
     0
  0
CLASS
  1
IMAGE
  2
AcDbRasterImage
  3
ISM
 90
      127
 91
        4
280
     0
281
     1
  0
CLASS
  1
IMAGEDEF_REACTOR
  2
AcDbRasterImageDefReactor
  3
ISM
 90
        1
 91
        3
280
     0
281
     0
  0
ENDSEC
  0
SECTION
  2
TABLES
  0
TABLE
  2
VPORT
  5
8
330
0
100
AcDbSymbolTable
 70
     1
  0
VPORT
  5
29
330
8
100
AcDbSymbolTableRecord
100
AcDbViewportTableRecord
  2
*Active
 70
     0
 10
0.0
 20
0.0
 11
1.0
 21
1.0
 12
0.0
 22
0.0
 13
0.0
 23
0.0
 14
0.5
 24
0.5
 15
0.5
 25
0.5
 16
0.0
 26
0.0
 36
1.0
 17
57.1499999857125
 27
57.1499999857125
 37
0.0
 40
114.6527777491146
 41
1.0
 42
50.0
 43
0.0
 44
0.0
 50
0.0
 51
0.0
 71
     0
 72
   100
 73
     1
 74
     3
 75
     0
 76
     0
 77
     0
 78
     0
281
     0
 65
     1
110
0.0
120
0.0
130
0.0
111
1.0
121
0.0
131
0.0
112
0.0
122
1.0
132
0.0
 79
     0
146
0.0
  0
ENDTAB
  0
TABLE
  2
LTYPE
  5
5
330
0
100
AcDbSymbolTable
 70
     1
  0
LTYPE
  5
14
330
5
100
AcDbSymbolTableRecord
100
AcDbLinetypeTableRecord
  2
ByBlock
 70
     0
  3

 72
    65
 73
     0
 40
0.0
  0
LTYPE
  5
15
330
5
100
AcDbSymbolTableRecord
100
AcDbLinetypeTableRecord
  2
ByLayer
 70
     0
  3

 72
    65
 73
     0
 40
0.0
  0
LTYPE
  5
16
330
5
100
AcDbSymbolTableRecord
100
AcDbLinetypeTableRecord
  2
Continuous
 70
     0
  3
Solid line
 72
    65
 73
     0
 40
0.0
  0
ENDTAB
  0
TABLE
  2
LAYER
  5
2
330
0
100
AcDbSymbolTable
 70
     3
  0
LAYER
  5
10
330
2
100
AcDbSymbolTableRecord
100
AcDbLayerTableRecord
  2
0
 70
     0
 62
     7
  6
Continuous
370
    -3
390
F
  0
LAYER
  5
3B
330
2
100
AcDbSymbolTableRecord
100
AcDbLayerTableRecord
  2
Image Background
 70
     0
 62
     7
  6
Continuous
370
    -3
390
F
  0
LAYER
  5
41
330
2
100
AcDbSymbolTableRecord
100
AcDbLayerTableRecord
  2
Layer 1
 70
     0
 62
     7
  6
Continuous
370
    -3
390
F
  0
ENDTAB
  0
TABLE
  2
STYLE
  5
3
330
0
100
AcDbSymbolTable
 70
     1
  0
STYLE
  5
11
330
3
100
AcDbSymbolTableRecord
100
AcDbTextStyleTableRecord
  2
Standard
 70
     0
 40
0.0
 41
1.0
 50
0.0
 71
     0
 42
0.2
  3
txt
  4

  0
ENDTAB
  0
TABLE
  2
VIEW
  5
6
330
0
100
AcDbSymbolTable
 70
     0
  0
ENDTAB
  0
TABLE
  2
UCS
  5
7
330
0
100
AcDbSymbolTable
 70
     0
  0
ENDTAB
  0
TABLE
  2
APPID
  5
9
330
0
100
AcDbSymbolTable
 70
     1
  0
APPID
  5
12
330
9
100
AcDbSymbolTableRecord
100
AcDbRegAppTableRecord
  2
ACAD
 70
     0
  0
ENDTAB
  0
TABLE
  2
DIMSTYLE
  5
A
330
0
100
AcDbSymbolTable
 70
     1
100
AcDbDimStyleTable
  0
DIMSTYLE
105
27
330
A
100
AcDbSymbolTableRecord
100
AcDbDimStyleTableRecord
  2
Standard
 70
     0
340
11
  0
ENDTAB
  0
TABLE
  2
BLOCK_RECORD
  5
1
330
0
100
AcDbSymbolTable
 70
     1
  0
BLOCK_RECORD
  5
1F
330
1
100
AcDbSymbolTableRecord
100
AcDbBlockTableRecord
  2
*Model_Space
340
22
  0
BLOCK_RECORD
  5
1B
330
1
100
AcDbSymbolTableRecord
100
AcDbBlockTableRecord
  2
*Paper_Space
340
1E
  0
BLOCK_RECORD
  5
23
330
1
100
AcDbSymbolTableRecord
100
AcDbBlockTableRecord
  2
*Paper_Space0
340
26
  0
ENDTAB
  0
ENDSEC
  0
SECTION
  2
BLOCKS
  0
BLOCK
  5
20
330
1F
100
AcDbEntity
  8
0
100
AcDbBlockBegin
  2
*Model_Space
 70
     0
 71
     0
 10
0.0
 20
0.0
 30
0.0
  3
*Model_Space
  1

  0
ENDBLK
  5
21
330
1F
100
AcDbEntity
  8
0
100
AcDbBlockEnd
  0
BLOCK
  5
1C
330
1B
100
AcDbEntity
 67
     1
  8
0
100
AcDbBlockBegin
  2
*Paper_Space
 70
     0
 71
     0
 10
0.0
 20
0.0
 30
0.0
  3
*Paper_Space
  1

  0
ENDBLK
  5
1D
330
1B
100
AcDbEntity
 67
     1
  8
0
100
AcDbBlockEnd
  0
BLOCK
  5
24
330
23
100
AcDbEntity
  8
0
100
AcDbBlockBegin
  2
*Paper_Space0
 70
     0
 71
     0
 10
0.0
 20
0.0
 30
0.0
  3
*Paper_Space0
  1

  0
ENDBLK
  5
25
330
23
100
AcDbEntity
  8
0
100
AcDbBlockEnd
  0
ENDSEC
  0
SECTION
  2
ENTITIES
  0
IMAGE
  5
3F
330
1F
100
AcDbEntity
  8
Image Background
 92
        8
310
0800000000000000
100
AcDbRasterImage
 90
        0
 10
0.0
 20
-0.0000005960464478
 30
0.0
 11
0.084666668927228
 21
0.0
 31
0.0
 12
0.0
 22
0.084666668927228
 32
0.0
 13
1350.0
 23
1350.0
340
3D
 70
     3
280
     0
281
    50
282
    50
283
     0
360
40
 71
     1
 91
        2
 14
-0.5
 24
-0.5
 14
1349.5
 24
1349.5
  0
SPLINE
  5
42
330
1F
100
AcDbEntity
  8
Layer 1
370
     0
100
AcDbSpline
210
0.0
220
0.0
230
1.0
 70
    11
 71
     3
 72
   146
 73
   142
 74
     0
 42
0.0000000001
 43
0.0000000001
 40
0.0
 40
0.0
 40
0.0
 40
0.0
 40
1.0
 40
1.0
 40
1.0
 40
2.0
 40
2.0
 40
2.0
 40
3.0
 40
3.0
 40
3.0
 40
4.0
 40
4.0
 40
4.0
 40
5.0
 40
5.0
 40
5.0
 40
6.0
 40
6.0
 40
6.0
 40
7.0
 40
7.0
 40
7.0
 40
8.0
 40
8.0
 40
8.0
 40
9.0
 40
9.0
 40
9.0
 40
10.0
 40
10.0
 40
10.0
 40
11.0
 40
11.0
 40
11.0
 40
12.0
 40
12.0
 40
12.0
 40
13.0
 40
13.0
 40
13.0
 40
14.0
 40
14.0
 40
14.0
 40
15.0
 40
15.0
 40
15.0
 40
16.0
 40
16.0
 40
16.0
 40
17.0
 40
17.0
 40
17.0
 40
18.0
 40
18.0
 40
18.0
 40
19.0
 40
19.0
 40
19.0
 40
20.0
 40
20.0
 40
20.0
 40
21.0
 40
21.0
 40
21.0
 40
22.0
 40
22.0
 40
22.0
 40
23.0
 40
23.0
 40
23.0
 40
24.0
 40
24.0
 40
24.0
 40
25.0
 40
25.0
 40
25.0
 40
26.0
 40
26.0
 40
26.0
 40
27.0
 40
27.0
 40
27.0
 40
28.0
 40
28.0
 40
28.0
 40
29.0
 40
29.0
 40
29.0
 40
30.0
 40
30.0
 40
30.0
 40
31.0
 40
31.0
 40
31.0
 40
32.0
 40
32.0
 40
32.0
 40
33.0
 40
33.0
 40
33.0
 40
34.0
 40
34.0
 40
34.0
 40
35.0
 40
35.0
 40
35.0
 40
36.0
 40
36.0
 40
36.0
 40
37.0
 40
37.0
 40
37.0
 40
38.0
 40
38.0
 40
38.0
 40
39.0
 40
39.0
 40
39.0
 40
40.0
 40
40.0
 40
40.0
 40
41.0
 40
41.0
 40
41.0
 40
42.0
 40
42.0
 40
42.0
 40
43.0
 40
43.0
 40
43.0
 40
44.0
 40
44.0
 40
44.0
 40
45.0
 40
45.0
 40
45.0
 40
46.0
 40
46.0
 40
46.0
 40
47.0
 40
47.0
 40
47.0
 40
47.0
 10
86.62244735247634
 20
54.66539712175032
 30
0.0
 10
86.30825464422155
 20
54.94186603444162
 30
0.0
 10
85.87847898243663
 20
55.13082952180757
 30
0.0
 10
85.51691621125967
 20
55.33357339111453
 30
0.0
 10
84.7002563264812
 20
55.79159883587849
 30
0.0
 10
83.87429468389254
 20
56.23308782231326
 30
0.0
 10
83.04678274833553
 20
56.67095945848851
 30
0.0
 10
80.54667695468973
 20
57.99387612482445
 30
0.0
 10
78.02348902129275
 20
59.27424586191755
 30
0.0
 10
75.48669296072903
 20
60.52567679693455
 30
0.0
 10
69.3191107682605
 20
63.56786836518442
 30
0.0
 10
63.0338785649707
 20
66.68929712959503
 30
0.0
 10
56.30509031795498
 20
68.26852890003356
 30
0.0
 10
56.08873832148129
 20
68.319344058441
 30
0.0
 10
55.87204181545908
 20
68.36860892388007
 30
0.0
 10
55.65500079988833
 20
68.41649575112504
 30
0.0
 10
54.20737167698636
 20
69.97781302504028
 30
0.0
 10
53.1242336564238
 20
72.09826929621154
 30
0.0
 10
53.19537487819422
 20
74.26506210165944
 30
0.0
 10
53.27254501706381
 20
76.60807154117785
 30
0.0
 10
54.79441594767292
 20
78.30581459630896
 30
0.0
 10
56.27976886613839
 20
79.96359454381118
 30
0.0
 10
55.46362574568271
 20
80.65485295292657
 30
0.0
 10
54.06905109325357
 20
80.40611705889152
 30
0.0
 10
53.12182208958413
 20
80.21456974991163
 30
0.0
 10
51.81010198357526
 20
79.94912514277314
 30
0.0
 10
50.53214381332183
 20
79.49971243672229
 30
0.0
 10
49.30052217734501
 20
78.98174233051499
 30
0.0
 10
48.04926349710227
 20
78.45550399514308
 30
0.0
 10
46.89636229296341
 20
77.7775092036459
 30
0.0
 10
45.76395940696179
 20
77.02820093560406
 30
0.0
 10
44.267237673395
 20
76.03756372882047
 30
0.0
 10
42.84596353095517
 20
74.92221406547084
 30
0.0
 10
41.57989094012586
 20
73.6475287359284
 30
0.0
 10
40.2841905281234
 20
72.34269882089002
 30
0.0
 10
39.09528807616368
 20
70.84322101093503
 30
0.0
 10
38.36733940013039
 20
69.14082707689883
 30
0.0
 10
35.96783039465388
 20
68.76376137603823
 30
0.0
 10
33.60793998725774
 20
68.13089733539783
 30
0.0
 10
31.28680690407066
 20
67.42430825137309
 30
0.0
 10
28.55519069381607
 20
66.59283445600805
 30
0.0
 10
25.86319308164184
 20
65.6304470322035
 30
0.0
 10
23.20943602935389
 20
64.57728134236262
 30
0.0
 10
20.5916802248868
 20
63.5385850535598
 30
0.0
 10
18.00716959185237
 20
62.41031628214048
 30
0.0
 10
15.48225911071277
 20
61.1619859330602
 30
0.0
 10
13.41296250749745
 20
60.13896482871526
 30
0.0
 10
11.35934108874003
 20
59.04514701214844
 30
0.0
 10
9.45179171855719
 20
57.74048935188433
 30
0.0
 10
8.429115123760777
 20
57.04096271360434
 30
0.0
 10
7.248308646191395
 20
56.23601615347572
 30
0.0
 10
6.6030422618041
 20
55.14529892284562
 30
0.0
 10
6.428548175476196
 20
54.85039874930823
 30
0.0
 10
6.289366317872103
 20
54.49262558316504
 30
0.0
 10
6.376871743197449
 20
54.14656574167169
 30
0.0
 10
6.496588811309881
 20
53.67320962199837
 30
0.0
 10
6.99905598783357
 20
53.42344019931775
 30
0.0
 10
7.396792261605663
 20
53.22448593504458
 30
0.0
 10
9.715513777953067
 20
51.84110784294251
 30
0.0
 10
12.3601413272051
 20
50.99602592041072
 30
0.0
 10
14.94740803662773
 20
50.27841253083318
 30
0.0
 10
18.34065483482456
 20
49.33721244426292
 30
0.0
 10
21.80762667640573
 20
48.66404078644511
 30
0.0
 10
25.28493380444266
 20
48.1207492284212
 30
0.0
 10
31.05254041107367
 20
47.21968450425411
 30
0.0
 10
36.88818765353837
 20
46.67208657687365
 30
0.0
 10
42.72366264122881
 20
46.50017631215968
 30
0.0
 10
42.33143852023311
 20
46.51171738203526
 30
0.0
 10
42.70953774973928
 20
45.96032984962103
 30
0.0
 10
42.79738768461316
 20
45.83733994079761
 30
0.0
 10
43.24938421227793
 20
45.20499266448
 30
0.0
 10
43.84555798600041
 20
44.66566296626414
 30
0.0
 10
44.43001843507305
 20
44.1597506942552
 30
0.0
 10
46.45470105175438
 20
42.4077473852314
 30
0.0
 10
48.7935763766905
 20
40.98199461866076
 30
0.0
 10
51.24303926670313
 20
39.90901962977969
 30
0.0
 10
54.26817761230102
 20
38.58369139660408
 30
0.0
 10
57.58890515053333
 20
37.80062119280679
 30
0.0
 10
60.90446504553778
 20
38.04522297225953
 30
0.0
 10
61.09015569219275
 20
38.05883109942626
 30
0.0
 10
62.52124835676553
 20
38.00560437417916
 30
0.0
 10
62.02412107824397
 20
38.51806232761007
 30
0.0
 10
61.53422850024145
 20
39.02276881619917
 30
0.0
 10
60.89189044701661
 20
39.40465765073912
 30
0.0
 10
60.34188095279648
 20
39.83925644620338
 30
0.0
 10
57.85538328631741
 20
41.80347763711858
 30
0.0
 10
55.80107284846293
 20
44.24019367383579
 30
0.0
 10
54.35378823510947
 20
47.06551648128918
 30
0.0
 10
54.34483098684782
 20
47.06947834109722
 30
0.0
 10
54.33587373858617
 20
47.07395696522804
 30
0.0
 10
54.32743325464731
 20
47.07878009890739
 30
0.0
 10
54.32588296167895
 20
47.09445528336528
 30
0.0
 10
54.3238159043878
 20
47.111336251243
 30
0.0
 10
54.32192110187091
 20
47.12770045479794
 30
0.0
 10
54.30486787921892
 20
47.16129013577913
 30
0.0
 10
54.28764240179267
 20
47.194018542889
 30
0.0
 10
54.27058917914069
 20
47.22778047864445
 30
0.0
 10
54.28316377766185
 20
47.22726371432166
 30
0.0
 10
54.29677190482859
 20
47.2270914595474
 30
0.0
 10
54.30934650334975
 20
47.22657469522461
 30
0.0
 10
54.16775307890598
 20
48.24873452569823
 30
0.0
 10
53.53592256691116
 20
50.16661918233682
 30
0.0
 10
52.31670327468125
 20
50.28323566451252
 30
0.0
 10
52.25072969613871
 20
50.28599174090073
 30
0.0
 10
52.18320582462781
 20
50.28736977909482
 30
0.0
 10
52.11344264105151
 20
50.28736977909482
 30
0.0
 10
52.18303356985355
 20
50.29219291277418
 30
0.0
 10
52.25055744136445
 20
50.28960909116024
 30
0.0
 10
52.31670327468125
 20
50.28323566451252
 30
0.0
 10
52.9690321048133
 20
50.25636391972758
 30
0.0
 10
53.57089028608645
 20
50.0560316172603
 30
0.0
 10
54.01496309413515
 20
49.55993786738432
 30
0.0
 10
54.61871607792519
 20
48.8853881713724
 30
0.0
 10
54.78115233005472
 20
48.00120441508304
 30
0.0
 10
55.20128172448094
 20
47.22605793090182
 30
0.0
 10
61.75850421633121
 20
47.46066893344734
 30
0.0
 10
77.00425752198157
 20
52.37079127379967
 30
0.0
 10
86.23831920587098
 20
48.80528970134035
 30
0.0
 10
93.44356415849676
 20
40.15878905246031
 30
0.0
 10
89.68841007957442
 20
37.91396483427151
 30
0.0
 10
99.11177976037831
 20
34.08577473106189
 30
0.0
 10
97.87860783143313
 20
36.87130668566065
 30
0.0
 10
97.61798635797398
 20
39.98774006161765
 30
0.0
 10
97.08227401001763
 20
42.95431178396628
 30
0.0
 10
96.62424856525367
 20
45.49041882543295
 30
0.0
 10
96.01067705933067
 20
48.49970973179869
 30
0.0
 10
93.8276923051021
 20
50.15008272400762
 30
0.0
 10
94.16858450336758
 20
49.89221732693667
 30
0.0
 10
94.56149764346033
 20
50.17609319492126
 30
0.0
 10
94.81746823801438
 20
50.41759438843727
 30
0.0
 10
95.34043373267531
 20
50.91110431669931
 30
0.0
 10
95.7423041210297
 20
51.54086777140298
 30
0.0
 10
96.13556177067098
 20
52.13721379989973
 30
0.0
 10
97.38957652730191
 20
54.03804523388632
 30
0.0
 10
98.54730086512012
 20
55.99761554589643
 30
0.0
 10
99.92998993812515
 20
57.81145831888047
 30
0.0
 10
101.955017064355
 20
60.46797144755662
 30
0.0
 10
104.5610595441722
 20
63.08279892086125
 30
0.0
 10
107.9499999730125
 20
63.79214408127419
 30
0.0
 10
97.76681448293677
 20
70.2311997979804
 30
0.0
 10
87.89144827446812
 20
56.26977808923117
 30
0.0
 10
86.62244735247634
 20
54.66539712175032
 30
0.0
  0
SPLINE
  5
43
330
1F
100
AcDbEntity
  8
Layer 1
370
     0
100
AcDbSpline
210
0.0
220
0.0
230
1.0
 70
    11
 71
     3
 72
    11
 73
     7
 74
     0
 42
0.0000000001
 43
0.0000000001
 40
0.0
 40
0.0
 40
0.0
 40
0.0
 40
1.0
 40
1.0
 40
1.0
 40
2.0
 40
2.0
 40
2.0
 40
2.0
 10
23.331564664306
 20
60.29692245671396
 30
0.0
 10
24.14839680385873
 20
60.29692245671396
 30
0.0
 10
24.14839680385873
 20
59.02998859201334
 30
0.0
 10
23.331564664306
 20
59.02998859201334
 30
0.0
 10
22.51473252475326
 20
59.02998859201334
 30
0.0
 10
22.51473252475326
 20
60.29692245671396
 30
0.0
 10
23.331564664306
 20
60.29692245671396
 30
0.0
  0
HATCH
  5
44
330
1F
100
AcDbEntity
  8
Layer 1
 62
   142
420
  2463169
100
AcDbHatch
 10
0.0
 20
0.0
 30
0.0
210
0.0
220
0.0
230
1.0
  2
SOLID
 70
     1
 71
     0
 91
        2
 92
        1
 93
        1
 72
     4
 94
        3
 73
     0
 74
     1
 95
      146
 96
      142
 40
0.0
 40
0.0
 40
0.0
 40
0.0
 40
1.0
 40
1.0
 40
1.0
 40
2.0
 40
2.0
 40
2.0
 40
3.0
 40
3.0
 40
3.0
 40
4.0
 40
4.0
 40
4.0
 40
5.0
 40
5.0
 40
5.0
 40
6.0
 40
6.0
 40
6.0
 40
7.0
 40
7.0
 40
7.0
 40
8.0
 40
8.0
 40
8.0
 40
9.0
 40
9.0
 40
9.0
 40
10.0
 40
10.0
 40
10.0
 40
11.0
 40
11.0
 40
11.0
 40
12.0
 40
12.0
 40
12.0
 40
13.0
 40
13.0
 40
13.0
 40
14.0
 40
14.0
 40
14.0
 40
15.0
 40
15.0
 40
15.0
 40
16.0
 40
16.0
 40
16.0
 40
17.0
 40
17.0
 40
17.0
 40
18.0
 40
18.0
 40
18.0
 40
19.0
 40
19.0
 40
19.0
 40
20.0
 40
20.0
 40
20.0
 40
21.0
 40
21.0
 40
21.0
 40
22.0
 40
22.0
 40
22.0
 40
23.0
 40
23.0
 40
23.0
 40
24.0
 40
24.0
 40
24.0
 40
25.0
 40
25.0
 40
25.0
 40
26.0
 40
26.0
 40
26.0
 40
27.0
 40
27.0
 40
27.0
 40
28.0
 40
28.0
 40
28.0
 40
29.0
 40
29.0
 40
29.0
 40
30.0
 40
30.0
 40
30.0
 40
31.0
 40
31.0
 40
31.0
 40
32.0
 40
32.0
 40
32.0
 40
33.0
 40
33.0
 40
33.0
 40
34.0
 40
34.0
 40
34.0
 40
35.0
 40
35.0
 40
35.0
 40
36.0
 40
36.0
 40
36.0
 40
37.0
 40
37.0
 40
37.0
 40
38.0
 40
38.0
 40
38.0
 40
39.0
 40
39.0
 40
39.0
 40
40.0
 40
40.0
 40
40.0
 40
41.0
 40
41.0
 40
41.0
 40
42.0
 40
42.0
 40
42.0
 40
43.0
 40
43.0
 40
43.0
 40
44.0
 40
44.0
 40
44.0
 40
45.0
 40
45.0
 40
45.0
 40
46.0
 40
46.0
 40
46.0
 40
47.0
 40
47.0
 40
47.0
 40
47.0
 10
86.62244735247634
 20
54.66539712175032
 10
86.30825464422155
 20
54.94186603444162
 10
85.87847898243663
 20
55.13082952180757
 10
85.51691621125967
 20
55.33357339111453
 10
84.7002563264812
 20
55.79159883587849
 10
83.87429468389254
 20
56.23308782231326
 10
83.04678274833553
 20
56.67095945848851
 10
80.54667695468973
 20
57.99387612482445
 10
78.02348902129275
 20
59.27424586191755
 10
75.48669296072903
 20
60.52567679693455
 10
69.3191107682605
 20
63.56786836518442
 10
63.0338785649707
 20
66.68929712959503
 10
56.30509031795498
 20
68.26852890003356
 10
56.08873832148129
 20
68.319344058441
 10
55.87204181545908
 20
68.36860892388007
 10
55.65500079988833
 20
68.41649575112504
 10
54.20737167698636
 20
69.97781302504028
 10
53.1242336564238
 20
72.09826929621154
 10
53.19537487819422
 20
74.26506210165944
 10
53.27254501706381
 20
76.60807154117785
 10
54.79441594767292
 20
78.30581459630896
 10
56.27976886613839
 20
79.96359454381118
 10
55.46362574568271
 20
80.65485295292657
 10
54.06905109325357
 20
80.40611705889152
 10
53.12182208958413
 20
80.21456974991163
 10
51.81010198357526
 20
79.94912514277314
 10
50.53214381332183
 20
79.49971243672229
 10
49.30052217734501
 20
78.98174233051499
 10
48.04926349710227
 20
78.45550399514308
 10
46.89636229296341
 20
77.7775092036459
 10
45.76395940696179
 20
77.02820093560406
 10
44.267237673395
 20
76.03756372882047
 10
42.84596353095517
 20
74.92221406547084
 10
41.57989094012586
 20
73.6475287359284
 10
40.2841905281234
 20
72.34269882089002
 10
39.09528807616368
 20
70.84322101093503
 10
38.36733940013039
 20
69.14082707689883
 10
35.96783039465388
 20
68.76376137603823
 10
33.60793998725774
 20
68.13089733539783
 10
31.28680690407066
 20
67.42430825137309
 10
28.55519069381607
 20
66.59283445600805
 10
25.86319308164184
 20
65.6304470322035
 10
23.20943602935389
 20
64.57728134236262
 10
20.5916802248868
 20
63.5385850535598
 10
18.00716959185237
 20
62.41031628214048
 10
15.48225911071277
 20
61.1619859330602
 10
13.41296250749745
 20
60.13896482871526
 10
11.35934108874003
 20
59.04514701214844
 10
9.45179171855719
 20
57.74048935188433
 10
8.429115123760777
 20
57.04096271360434
 10
7.248308646191395
 20
56.23601615347572
 10
6.6030422618041
 20
55.14529892284562
 10
6.428548175476196
 20
54.85039874930823
 10
6.289366317872103
 20
54.49262558316504
 10
6.376871743197449
 20
54.14656574167169
 10
6.496588811309881
 20
53.67320962199837
 10
6.99905598783357
 20
53.42344019931775
 10
7.396792261605663
 20
53.22448593504458
 10
9.715513777953067
 20
51.84110784294251
 10
12.3601413272051
 20
50.99602592041072
 10
14.94740803662773
 20
50.27841253083318
 10
18.34065483482456
 20
49.33721244426292
 10
21.80762667640573
 20
48.66404078644511
 10
25.28493380444266
 20
48.1207492284212
 10
31.05254041107367
 20
47.21968450425411
 10
36.88818765353837
 20
46.67208657687365
 10
42.72366264122881
 20
46.50017631215968
 10
42.33143852023311
 20
46.51171738203526
 10
42.70953774973928
 20
45.96032984962103
 10
42.79738768461316
 20
45.83733994079761
 10
43.24938421227793
 20
45.20499266448
 10
43.84555798600041
 20
44.66566296626414
 10
44.43001843507305
 20
44.1597506942552
 10
46.45470105175438
 20
42.4077473852314
 10
48.7935763766905
 20
40.98199461866076
 10
51.24303926670313
 20
39.90901962977969
 10
54.26817761230102
 20
38.58369139660408
 10
57.58890515053333
 20
37.80062119280679
 10
60.90446504553778
 20
38.04522297225953
 10
61.09015569219275
 20
38.05883109942626
 10
62.52124835676553
 20
38.00560437417916
 10
62.02412107824397
 20
38.51806232761007
 10
61.53422850024145
 20
39.02276881619917
 10
60.89189044701661
 20
39.40465765073912
 10
60.34188095279648
 20
39.83925644620338
 10
57.85538328631741
 20
41.80347763711858
 10
55.80107284846293
 20
44.24019367383579
 10
54.35378823510947
 20
47.06551648128918
 10
54.34483098684782
 20
47.06947834109722
 10
54.33587373858617
 20
47.07395696522804
 10
54.32743325464731
 20
47.07878009890739
 10
54.32588296167895
 20
47.09445528336528
 10
54.3238159043878
 20
47.111336251243
 10
54.32192110187091
 20
47.12770045479794
 10
54.30486787921892
 20
47.16129013577913
 10
54.28764240179267
 20
47.194018542889
 10
54.27058917914069
 20
47.22778047864445
 10
54.28316377766185
 20
47.22726371432166
 10
54.29677190482859
 20
47.2270914595474
 10
54.30934650334975
 20
47.22657469522461
 10
54.16775307890598
 20
48.24873452569823
 10
53.53592256691116
 20
50.16661918233682
 10
52.31670327468125
 20
50.28323566451252
 10
52.25072969613871
 20
50.28599174090073
 10
52.18320582462781
 20
50.28736977909482
 10
52.11344264105151
 20
50.28736977909482
 10
52.18303356985355
 20
50.29219291277418
 10
52.25055744136445
 20
50.28960909116024
 10
52.31670327468125
 20
50.28323566451252
 10
52.9690321048133
 20
50.25636391972758
 10
53.57089028608645
 20
50.0560316172603
 10
54.01496309413515
 20
49.55993786738432
 10
54.61871607792519
 20
48.8853881713724
 10
54.78115233005472
 20
48.00120441508304
 10
55.20128172448094
 20
47.22605793090182
 10
61.75850421633121
 20
47.46066893344734
 10
77.00425752198157
 20
52.37079127379967
 10
86.23831920587098
 20
48.80528970134035
 10
93.44356415849676
 20
40.15878905246031
 10
89.68841007957442
 20
37.91396483427151
 10
99.11177976037831
 20
34.08577473106189
 10
97.87860783143313
 20
36.87130668566065
 10
97.61798635797398
 20
39.98774006161765
 10
97.08227401001763
 20
42.95431178396628
 10
96.62424856525367
 20
45.49041882543295
 10
96.01067705933067
 20
48.49970973179869
 10
93.8276923051021
 20
50.15008272400762
 10
94.16858450336758
 20
49.89221732693667
 10
94.56149764346033
 20
50.17609319492126
 10
94.81746823801438
 20
50.41759438843727
 10
95.34043373267531
 20
50.91110431669931
 10
95.7423041210297
 20
51.54086777140298
 10
96.13556177067098
 20
52.13721379989973
 10
97.38957652730191
 20
54.03804523388632
 10
98.54730086512012
 20
55.99761554589643
 10
99.92998993812515
 20
57.81145831888047
 10
101.955017064355
 20
60.46797144755662
 10
104.5610595441722
 20
63.08279892086125
 10
107.9499999730125
 20
63.79214408127419
 10
97.76681448293677
 20
70.2311997979804
 10
87.89144827446812
 20
56.26977808923117
 10
86.62244735247634
 20
54.66539712175032
 97
        0
 92
        1
 93
        1
 72
     4
 94
        3
 73
     0
 74
     1
 95
       11
 96
        7
 40
0.0
 40
0.0
 40
0.0
 40
0.0
 40
1.0
 40
1.0
 40
1.0
 40
2.0
 40
2.0
 40
2.0
 40
2.0
 10
23.331564664306
 20
60.29692245671396
 10
24.14839680385873
 20
60.29692245671396
 10
24.14839680385873
 20
59.02998859201334
 10
23.331564664306
 20
59.02998859201334
 10
22.51473252475326
 20
59.02998859201334
 10
22.51473252475326
 20
60.29692245671396
 10
23.331564664306
 20
60.29692245671396
 97
        0
 75
     2
 76
     1
 98
        0
  0
ENDSEC
  0
SECTION
  2
OBJECTS
  0
DICTIONARY
  5
C
330
0
100
AcDbDictionary
281
     1
  3
ACAD_GROUP
350
D
  3
ACAD_IMAGE_DICT
350
3C
  3
ACAD_IMAGE_VARS
350
3E
  3
ACAD_LAYOUT
350
1A
  3
ACAD_MLINESTYLE
350
17
  3
ACAD_PLOTSETTINGS
350
19
  3
ACAD_PLOTSTYLENAME
350
E
  3
ACAD_TABLESTYLE
350
45
  3
ACAD_VISUALSTYLE
350
2A
  0
IMAGEDEF_REACTOR
  5
40
330
3F
100
AcDbRasterImageDefReactor
 90
        2
330
3F
  0
DICTIONARY
  5
D
102
{ACAD_REACTORS
330
C
102
}
330
C
100
AcDbDictionary
281
     1
  0
DICTIONARY
  5
3C
102
{ACAD_REACTORS
330
C
102
}
330
C
100
AcDbDictionary
281
     1
  3
C:\Users\Owner\Desktop\50\sea_life\cut its\sea_life-13\dxf\sea_life-13_1.png
350
3D
  0
RASTERVARIABLES
  5
3E
102
{ACAD_REACTORS
330
C
102
}
330
C
100
AcDbRasterVariables
 90
        0
 70
     0
 71
     1
 72
     0
  0
DICTIONARY
  5
1A
102
{ACAD_REACTORS
330
C
102
}
330
C
100
AcDbDictionary
281
     1
  3
Layout1
350
1E
  3
Layout2
350
26
  3
Model
350
22
  0
DICTIONARY
  5
17
102
{ACAD_REACTORS
330
C
102
}
330
C
100
AcDbDictionary
281
     1
  3
Standard
350
18
  0
DICTIONARY
  5
19
102
{ACAD_REACTORS
330
C
102
}
330
C
100
AcDbDictionary
281
     1
  0
ACDBDICTIONARYWDFLT
  5
E
102
{ACAD_REACTORS
330
C
102
}
330
C
100
AcDbDictionary
281
     1
  3
Normal
350
F
100
AcDbDictionaryWithDefault
340
F
  0
DICTIONARY
  5
45
102
{ACAD_REACTORS
330
C
102
}
330
C
100
AcDbDictionary
281
     1
  0
DICTIONARY
  5
2A
102
{ACAD_REACTORS
330
C
102
}
330
C
100
AcDbDictionary
281
     1
  3
2dWireframe
350
2F
  3
3D Hidden
350
31
  3
3dWireframe
350
30
  3
Basic
350
32
  3
Brighten
350
36
  3
ColorChange
350
3A
  3
Conceptual
350
34
  3
Dim
350
35
  3
Facepattern
350
39
  3
Flat
350
2B
  3
FlatWithEdges
350
2C
  3
Gouraud
350
2D
  3
GouraudWithEdges
350
2E
  3
Linepattern
350
38
  3
Realistic
350
33
  3
Thicken
350
37
  0
IMAGEDEF
  5
3D
102
{ACAD_REACTORS
330
3C
330
40
102
}
330
3C
100
AcDbRasterImageDef
 90
        0
  1
C:\Users\Owner\Desktop\50\sea_life\cut its\sea_life-13\dxf\sea_life-13_1.png
 10
1350.0
 20
1350.0
 11
0.3527777777777777
 21
0.3527777777777777
280
     1
281
     5
  0
LAYOUT
  5
1E
102
{ACAD_REACTORS
330
1A
102
}
330
1A
100
AcDbPlotSettings
  1

  2
none_device
  4

  6

 40
0.0
 41
0.0
 42
0.0
 43
0.0
 44
0.0
 45
0.0
 46
0.0
 47
0.0
 48
0.0
 49
0.0
140
0.0
141
0.0
142
1.0
143
1.0
 70
   688
 72
     0
 73
     0
 74
     5
  7

 75
    16
 76
     0
 77
     2
 78
   300
147
1.0
148
0.0
149
0.0
100
AcDbLayout
  1
Layout1
 70
     1
 71
     1
 10
0.0
 20
0.0
 11
12.0
 21
9.0
 12
0.0
 22
0.0
 32
0.0
 14
1.000000000000000E+20
 24
1.000000000000000E+20
 34
1.000000000000000E+20
 15
-1.000000000000000E+20
 25
-1.000000000000000E+20
 35
-1.000000000000000E+20
146
0.0
 13
0.0
 23
0.0
 33
0.0
 16
1.0
 26
0.0
 36
0.0
 17
0.0
 27
1.0
 37
0.0
 76
     0
330
1B
  0
LAYOUT
  5
26
102
{ACAD_REACTORS
330
1A
102
}
330
1A
100
AcDbPlotSettings
  1

  2
none_device
  4

  6

 40
0.0
 41
0.0
 42
0.0
 43
0.0
 44
0.0
 45
0.0
 46
0.0
 47
0.0
 48
0.0
 49
0.0
140
0.0
141
0.0
142
1.0
143
1.0
 70
   688
 72
     0
 73
     0
 74
     5
  7

 75
    16
 76
     0
 77
     2
 78
   300
147
1.0
148
0.0
149
0.0
100
AcDbLayout
  1
Layout2
 70
     1
 71
     2
 10
0.0
 20
0.0
 11
0.0
 21
0.0
 12
0.0
 22
0.0
 32
0.0
 14
0.0
 24
0.0
 34
0.0
 15
0.0
 25
0.0
 35
0.0
146
0.0
 13
0.0
 23
0.0
 33
0.0
 16
1.0
 26
0.0
 36
0.0
 17
0.0
 27
1.0
 37
0.0
 76
     0
330
23
  0
LAYOUT
  5
22
102
{ACAD_REACTORS
330
1A
102
}
330
1A
100
AcDbPlotSettings
  1

  2
none_device
  4

  6

 40
0.0
 41
0.0
 42
0.0
 43
0.0
 44
0.0
 45
0.0
 46
0.0
 47
0.0
 48
0.0
 49
0.0
140
0.0
141
0.0
142
1.0
143
1.0
 70
  1712
 72
     0
 73
     0
 74
     0
  7

 75
     0
 76
     0
 77
     2
 78
   300
147
1.0
148
0.0
149
0.0
100
AcDbLayout
  1
Model
 70
     1
 71
     0
 10
0.0
 20
0.0
 11
12.0
 21
9.0
 12
0.0
 22
0.0
 32
0.0
 14
1.000000000000000E+20
 24
1.000000000000000E+20
 34
1.000000000000000E+20
 15
-1.000000000000000E+20
 25
-1.000000000000000E+20
 35
-1.000000000000000E+20
146
0.0
 13
0.0
 23
0.0
 33
0.0
 16
1.0
 26
0.0
 36
0.0
 17
0.0
 27
1.0
 37
0.0
 76
     0
330
1F
331
29
  0
MLINESTYLE
  5
18
102
{ACAD_REACTORS
330
17
102
}
330
17
100
AcDbMlineStyle
  2
Standard
 70
     0
  3

 62
   256
 51
90.0
 52
90.0
 71
     2
 49
0.5
 62
   256
  6
BYLAYER
 49
-0.5
 62
   256
  6
BYLAYER
  0
ACDBPLACEHOLDER
  5
F
102
{ACAD_REACTORS
330
E
102
}
330
E
  0
VISUALSTYLE
  5
2F
102
{ACAD_REACTORS
330
2A
102
}
330
2A
100
AcDbVisualStyle
  2
2dWireframe
 70
     4
 71
     0
 72
     2
 73
     0
 90
        0
 40
-0.6
 41
-30.0
 62
     5
 63
     7
421
 16777215
 74
     1
 91
        4
 64
     7
 65
   257
 75
     1
175
     1
 42
1.0
 92
        0
 66
   257
 43
1.0
 76
     1
 77
     6
 78
     2
 67
     7
 79
     5
170
     0
171
     0
290
     0
174
     0
 93
        1
 44
0.0
173
     0
291
     0
 45
0.0
1001
ACAD
1000
AcDbSavedByObjectVersion
1070
     0
  0
VISUALSTYLE
  5
31
102
{ACAD_REACTORS
330
2A
102
}
330
2A
100
AcDbVisualStyle
  2
3D Hidden
 70
     6
 71
     1
 72
     2
 73
     2
 90
        0
 40
-0.6
 41
-30.0
 62
     5
 63
     7
421
 16777215
 74
     2
 91
        2
 64
     7
 65
   257
 75
     2
175
     1
 42
40.0
 92
        0
 66
   257
 43
1.0
 76
     1
 77
     6
 78
     2
 67
     7
 79
     3
170
     0
171
     0
290
     0
174
     0
 93
        1
 44
0.0
173
     0
291
     0
 45
0.0
1001
ACAD
1000
AcDbSavedByObjectVersion
1070
     0
  0
VISUALSTYLE
  5
30
102
{ACAD_REACTORS
330
2A
102
}
330
2A
100
AcDbVisualStyle
  2
3dWireframe
 70
     5
 71
     0
 72
     2
 73
     0
 90
        0
 40
-0.6
 41
-30.0
 62
     5
 63
     7
421
 16777215
 74
     1
 91
        4
 64
     7
 65
   257
 75
     1
175
     1
 42
1.0
 92
        0
 66
   257
 43
1.0
 76
     1
 77
     6
 78
     2
 67
     7
 79
     5
170
     0
171
     0
290
     0
174
     0
 93
        1
 44
0.0
173
     0
291
     0
 45
0.0
1001
ACAD
1000
AcDbSavedByObjectVersion
1070
     0
  0
VISUALSTYLE
  5
32
102
{ACAD_REACTORS
330
2A
102
}
330
2A
100
AcDbVisualStyle
  2
Basic
 70
     7
 71
     1
 72
     0
 73
     1
 90
        0
 40
-0.6
 41
-30.0
 62
     5
 63
     7
421
 16777215
 74
     0
 91
        4
 64
     7
 65
   257
 75
     1
175
     1
 42
1.0
 92
        8
 66
     7
 43
1.0
 76
     1
 77
     6
 78
     2
 67
     7
 79
     5
170
     0
171
     0
290
     0
174
     0
 93
        1
 44
0.0
173
     0
291
     1
 45
0.0
1001
ACAD
1000
AcDbSavedByObjectVersion
1070
     0
  0
VISUALSTYLE
  5
36
102
{ACAD_REACTORS
330
2A
102
}
330
2A
100
AcDbVisualStyle
  2
Brighten
 70
    12
 71
     2
 72
     2
 73
     0
 90
        0
 40
-0.6
 41
-30.0
 62
     5
 63
     7
421
 16777215
 74
     1
 91
        4
 64
     7
 65
   257
 75
     1
175
     1
 42
1.0
 92
        8
 66
     7
 43
1.0
 76
     1
 77
     6
 78
     2
 67
     7
 79
     5
170
     0
171
     0
290
     0
174
     0
 93
        1
 44
50.0
173
     0
291
     1
 45
0.0
1001
ACAD
1000
AcDbSavedByObjectVersion
1070
     0
  0
VISUALSTYLE
  5
3A
102
{ACAD_REACTORS
330
2A
102
}
330
2A
100
AcDbVisualStyle
  2
ColorChange
 70
    16
 71
     2
 72
     2
 73
     3
 90
        0
 40
-0.6
 41
-30.0
 62
     5
 63
     8
421
  8421504
 74
     1
 91
        4
 64
     7
 65
   257
 75
     1
175
     1
 42
1.0
 92
        8
 66
     8
424
  8421504
 43
1.0
 76
     1
 77
     6
 78
     2
 67
     7
 79
     5
170
     0
171
     0
290
     0
174
     0
 93
        1
 44
0.0
173
     0
291
     1
 45
0.0
1001
ACAD
1000
AcDbSavedByObjectVersion
1070
     0
  0
VISUALSTYLE
  5
34
102
{ACAD_REACTORS
330
2A
102
}
330
2A
100
AcDbVisualStyle
  2
Conceptual
 70
     9
 71
     3
 72
     2
 73
     0
 90
        0
 40
-0.6
 41
-30.0
 62
     5
 63
     7
421
 16777215
 74
     2
 91
        2
 64
     7
 65
   257
 75
     1
175
     1
 42
40.0
 92
        8
 66
     7
 43
1.0
 76
     1
 77
     6
 78
     2
 67
     7
 79
     3
170
     0
171
     0
290
     0
174
     0
 93
        1
 44
0.0
173
     0
291
     0
 45
0.0
1001
ACAD
1000
AcDbSavedByObjectVersion
1070
     0
  0
VISUALSTYLE
  5
35
102
{ACAD_REACTORS
330
2A
102
}
330
2A
100
AcDbVisualStyle
  2
Dim
 70
    11
 71
     2
 72
     2
 73
     0
 90
        0
 40
-0.6
 41
-30.0
 62
     5
 63
     7
421
 16777215
 74
     1
 91
        4
 64
     7
 65
   257
 75
     1
175
     1
 42
1.0
 92
        8
 66
     7
 43
1.0
 76
     1
 77
     6
 78
     2
 67
     7
 79
     5
170
     0
171
     0
290
     0
174
     0
 93
        1
 44
-50.0
173
     0
291
     1
 45
0.0
1001
ACAD
1000
AcDbSavedByObjectVersion
1070
     0
  0
VISUALSTYLE
  5
39
102
{ACAD_REACTORS
330
2A
102
}
330
2A
100
AcDbVisualStyle
  2
Facepattern
 70
    15
 71
     2
 72
     2
 73
     0
 90
        0
 40
-0.6
 41
-30.0
 62
     5
 63
     7
421
 16777215
 74
     1
 91
        4
 64
     7
 65
   257
 75
     1
175
     1
 42
1.0
 92
        8
 66
     7
 43
1.0
 76
     1
 77
     6
 78
     2
 67
     7
 79
     5
170
     0
171
     0
290
     0
174
     0
 93
        1
 44
0.0
173
     0
291
     1
 45
0.0
1001
ACAD
1000
AcDbSavedByObjectVersion
1070
     0
  0
VISUALSTYLE
  5
2B
102
{ACAD_REACTORS
330
2A
102
}
330
2A
100
AcDbVisualStyle
  2
Flat
 70
     0
 71
     2
 72
     1
 73
     1
 90
        2
 40
-0.6
 41
30.0
 62
     5
 63
     7
421
 16777215
 74
     0
 91
        4
 64
     7
 65
   257
 75
     1
175
     1
 42
1.0
 92
        8
 66
     7
 43
1.0
 76
     1
 77
     6
 78
     2
 67
     7
 79
     5
170
     0
171
     0
290
     0
174
     0
 93
       13
 44
0.0
173
     0
291
     1
 45
0.0
1001
ACAD
1000
AcDbSavedByObjectVersion
1070
     0
  0
VISUALSTYLE
  5
2C
102
{ACAD_REACTORS
330
2A
102
}
330
2A
100
AcDbVisualStyle
  2
FlatWithEdges
 70
     1
 71
     2
 72
     1
 73
     1
 90
        2
 40
-0.6
 41
30.0
 62
     5
 63
     7
421
 16777215
 74
     1
 91
        4
 64
     7
 65
   257
 75
     1
175
     1
 42
1.0
 92
        0
 66
   257
 43
1.0
 76
     1
 77
     6
 78
     2
 67
     7
 79
     5
170
     0
171
     0
290
     0
174
     0
 93
       13
 44
0.0
173
     0
291
     1
 45
0.0
1001
ACAD
1000
AcDbSavedByObjectVersion
1070
     0
  0
VISUALSTYLE
  5
2D
102
{ACAD_REACTORS
330
2A
102
}
330
2A
100
AcDbVisualStyle
  2
Gouraud
 70
     2
 71
     2
 72
     2
 73
     1
 90
        2
 40
-0.6
 41
30.0
 62
     5
 63
     7
421
 16777215
 74
     0
 91
        4
 64
     7
 65
   257
 75
     1
175
     1
 42
1.0
 92
        0
 66
     7
 43
1.0
 76
     1
 77
     6
 78
     2
 67
     7
 79
     5
170
     0
171
     0
290
     0
174
     0
 93
       13
 44
0.0
173
     0
291
     1
 45
0.0
1001
ACAD
1000
AcDbSavedByObjectVersion
1070
     0
  0
VISUALSTYLE
  5
2E
102
{ACAD_REACTORS
330
2A
102
}
330
2A
100
AcDbVisualStyle
  2
GouraudWithEdges
 70
     3
 71
     2
 72
     2
 73
     1
 90
        2
 40
-0.6
 41
30.0
 62
     5
 63
     7
421
 16777215
 74
     1
 91
        4
 64
     7
 65
   257
 75
     1
175
     1
 42
1.0
 92
        0
 66
   257
 43
1.0
 76
     1
 77
     6
 78
     2
 67
     7
 79
     5
170
     0
171
     0
290
     0
174
     0
 93
       13
 44
0.0
173
     0
291
     1
 45
0.0
1001
ACAD
1000
AcDbSavedByObjectVersion
1070
     0
  0
VISUALSTYLE
  5
38
102
{ACAD_REACTORS
330
2A
102
}
330
2A
100
AcDbVisualStyle
  2
Linepattern
 70
    14
 71
     2
 72
     2
 73
     0
 90
        0
 40
-0.6
 41
-30.0
 62
     5
 63
     7
421
 16777215
 74
     1
 91
        4
 64
     7
 65
   257
 75
     7
175
     7
 42
1.0
 92
        8
 66
     7
 43
1.0
 76
     1
 77
     6
 78
     2
 67
     7
 79
     5
170
     0
171
     0
290
     0
174
     0
 93
        1
 44
0.0
173
     0
291
     1
 45
0.0
1001
ACAD
1000
AcDbSavedByObjectVersion
1070
     0
  0
VISUALSTYLE
  5
33
102
{ACAD_REACTORS
330
2A
102
}
330
2A
100
AcDbVisualStyle
  2
Realistic
 70
     8
 71
     2
 72
     2
 73
     0
 90
        0
 40
-0.6
 41
-30.0
 62
     5
 63
     7
421
 16777215
 74
     1
 91
        0
 64
     7
 65
   257
 75
     1
175
     1
 42
1.0
 92
        8
 66
     8
424
  7895160
 43
1.0
 76
     1
 77
     6
 78
     2
 67
     7
 79
     5
170
     0
171
     0
290
     0
174
     0
 93
       13
 44
0.0
173
     0
291
     0
 45
0.0
1001
ACAD
1000
AcDbSavedByObjectVersion
1070
     0
  0
VISUALSTYLE
  5
37
102
{ACAD_REACTORS
330
2A
102
}
330
2A
100
AcDbVisualStyle
  2
Thicken
 70
    13
 71
     2
 72
     2
 73
     0
 90
        0
 40
-0.6
 41
-30.0
 62
     5
 63
     7
421
 16777215
 74
     1
 91
        4
 64
     7
 65
   257
 75
     1
175
     1
 42
1.0
 92
       12
 66
     7
 43
1.0
 76
     1
 77
     6
 78
     2
 67
     7
 79
     5
170
     0
171
     0
290
     0
174
     0
 93
        1
 44
0.0
173
     0
291
     1
 45
0.0
1001
ACAD
1000
AcDbSavedByObjectVersion
1070
     0
  0
ENDSEC
  0
EOF
