  0
SECTION
  2
HEADER
  9
$ACADVER
  1
AC1018
  9
$ACADMAINTVER
 70
     0
  9
$DWGCODEPAGE
  3
ANSI_1252
  9
$INSBASE
 10
0.0
 20
0.0
 30
0.0
  9
$EXTMIN
 10
1.000000000000000E+20
 20
1.000000000000000E+20
 30
1.000000000000000E+20
  9
$EXTMAX
 10
-1.000000000000000E+20
 20
-1.000000000000000E+20
 30
-1.000000000000000E+20
  9
$LIMMIN
 10
0.0
 20
0.0
  9
$LIMMAX
 10
12.0
 20
9.0
  9
$ORTHOMODE
 70
     0
  9
$REGENMODE
 70
     1
  9
$FILLMODE
 70
     1
  9
$QTEXTMODE
 70
     0
  9
$MIRRTEXT
 70
     1
  9
$LTSCALE
 40
1.0
  9
$ATTMODE
 70
     1
  9
$TEXTSIZE
 40
0.2
  9
$TRACEWID
 40
0.05
  9
$TEXTSTYLE
  7
Standard
  9
$CLAYER
  8
0
  9
$CELTYPE
  6
ByLayer
  9
$CECOLOR
 62
   256
  9
$CELTSCALE
 40
1.0
  9
$DISPSILH
 70
     0
  9
$DIMSCALE
 40
1.0
  9
$DIMASZ
 40
0.18
  9
$DIMEXO
 40
0.0625
  9
$DIMDLI
 40
0.38
  9
$DIMRND
 40
0.0
  9
$DIMDLE
 40
0.0
  9
$DIMEXE
 40
0.18
  9
$DIMTP
 40
0.0
  9
$DIMTM
 40
0.0
  9
$DIMTXT
 40
0.18
  9
$DIMCEN
 40
0.09
  9
$DIMTSZ
 40
0.0
  9
$DIMTOL
 70
     0
  9
$DIMLIM
 70
     0
  9
$DIMTIH
 70
     1
  9
$DIMTOH
 70
     1
  9
$DIMSE1
 70
     0
  9
$DIMSE2
 70
     0
  9
$DIMTAD
 70
     0
  9
$DIMZIN
 70
     0
  9
$DIMBLK
  1

  9
$DIMASO
 70
     1
  9
$DIMSHO
 70
     1
  9
$DIMPOST
  1

  9
$DIMAPOST
  1

  9
$DIMALT
 70
     0
  9
$DIMALTD
 70
     2
  9
$DIMALTF
 40
25.4
  9
$DIMLFAC
 40
1.0
  9
$DIMTOFL
 70
     0
  9
$DIMTVP
 40
0.0
  9
$DIMTIX
 70
     0
  9
$DIMSOXD
 70
     0
  9
$DIMSAH
 70
     0
  9
$DIMBLK1
  1

  9
$DIMBLK2
  1

  9
$DIMSTYLE
  2
Standard
  9
$DIMCLRD
 70
     0
  9
$DIMCLRE
 70
     0
  9
$DIMCLRT
 70
     0
  9
$DIMTFAC
 40
1.0
  9
$DIMGAP
 40
0.09
  9
$DIMJUST
 70
     0
  9
$DIMSD1
 70
     0
  9
$DIMSD2
 70
     0
  9
$DIMTOLJ
 70
     1
  9
$DIMTZIN
 70
     0
  9
$DIMALTZ
 70
     0
  9
$DIMALTTZ
 70
     0
  9
$DIMUPT
 70
     0
  9
$DIMDEC
 70
     4
  9
$DIMTDEC
 70
     4
  9
$DIMALTU
 70
     2
  9
$DIMALTTD
 70
     2
  9
$DIMTXSTY
  7
Standard
  9
$DIMAUNIT
 70
     0
  9
$DIMADEC
 70
     0
  9
$DIMALTRND
 40
0.0
  9
$DIMAZIN
 70
     0
  9
$DIMDSEP
 70
    46
  9
$DIMATFIT
 70
     3
  9
$DIMFRAC
 70
     0
  9
$DIMLDRBLK
  1

  9
$DIMLUNIT
 70
     2
  9
$DIMLWD
 70
    -2
  9
$DIMLWE
 70
    -2
  9
$DIMTMOVE
 70
     0
  9
$LUNITS
 70
     2
  9
$LUPREC
 70
     4
  9
$SKETCHINC
 40
0.1
  9
$FILLETRAD
 40
0.5
  9
$AUNITS
 70
     0
  9
$AUPREC
 70
     0
  9
$MENU
  1
.
  9
$ELEVATION
 40
0.0
  9
$PELEVATION
 40
0.0
  9
$THICKNESS
 40
0.0
  9
$LIMCHECK
 70
     0
  9
$CHAMFERA
 40
0.5
  9
$CHAMFERB
 40
0.5
  9
$CHAMFERC
 40
1.0
  9
$CHAMFERD
 40
0.0
  9
$SKPOLY
 70
     0
  9
$TDCREATE
 40
2455737.024446204
  9
$TDUCREATE
 40
2455737.274446204
  9
$TDUPDATE
 40
2455737.024446215
  9
$TDUUPDATE
 40
2455737.274446215
  9
$TDINDWG
 40
0.0000000116
  9
$TDUSRTIMER
 40
0.0000000116
  9
$USRTIMER
 70
     1
  9
$ANGBASE
 50
0.0
  9
$ANGDIR
 70
     0
  9
$PDMODE
 70
     0
  9
$PDSIZE
 40
0.0
  9
$PLINEWID
 40
0.0
  9
$SPLFRAME
 70
     0
  9
$SPLINETYPE
 70
     6
  9
$SPLINESEGS
 70
     8
  9
$HANDSEED
  5
45
  9
$SURFTAB1
 70
     6
  9
$SURFTAB2
 70
     6
  9
$SURFTYPE
 70
     6
  9
$SURFU
 70
     6
  9
$SURFV
 70
     6
  9
$UCSBASE
  2

  9
$UCSNAME
  2

  9
$UCSORG
 10
0.0
 20
0.0
 30
0.0
  9
$UCSXDIR
 10
1.0
 20
0.0
 30
0.0
  9
$UCSYDIR
 10
0.0
 20
1.0
 30
0.0
  9
$UCSORTHOREF
  2

  9
$UCSORTHOVIEW
 70
     0
  9
$UCSORGTOP
 10
0.0
 20
0.0
 30
0.0
  9
$UCSORGBOTTOM
 10
0.0
 20
0.0
 30
0.0
  9
$UCSORGLEFT
 10
0.0
 20
0.0
 30
0.0
  9
$UCSORGRIGHT
 10
0.0
 20
0.0
 30
0.0
  9
$UCSORGFRONT
 10
0.0
 20
0.0
 30
0.0
  9
$UCSORGBACK
 10
0.0
 20
0.0
 30
0.0
  9
$PUCSBASE
  2

  9
$PUCSNAME
  2

  9
$PUCSORG
 10
0.0
 20
0.0
 30
0.0
  9
$PUCSXDIR
 10
1.0
 20
0.0
 30
0.0
  9
$PUCSYDIR
 10
0.0
 20
1.0
 30
0.0
  9
$PUCSORTHOREF
  2

  9
$PUCSORTHOVIEW
 70
     0
  9
$PUCSORGTOP
 10
0.0
 20
0.0
 30
0.0
  9
$PUCSORGBOTTOM
 10
0.0
 20
0.0
 30
0.0
  9
$PUCSORGLEFT
 10
0.0
 20
0.0
 30
0.0
  9
$PUCSORGRIGHT
 10
0.0
 20
0.0
 30
0.0
  9
$PUCSORGFRONT
 10
0.0
 20
0.0
 30
0.0
  9
$PUCSORGBACK
 10
0.0
 20
0.0
 30
0.0
  9
$USERI1
 70
     0
  9
$USERI2
 70
     0
  9
$USERI3
 70
     0
  9
$USERI4
 70
     0
  9
$USERI5
 70
     0
  9
$USERR1
 40
0.0
  9
$USERR2
 40
0.0
  9
$USERR3
 40
0.0
  9
$USERR4
 40
0.0
  9
$USERR5
 40
0.0
  9
$WORLDVIEW
 70
     1
  9
$SHADEDGE
 70
     3
  9
$SHADEDIF
 70
    70
  9
$TILEMODE
 70
     1
  9
$MAXACTVP
 70
    64
  9
$PINSBASE
 10
0.0
 20
0.0
 30
0.0
  9
$PLIMCHECK
 70
     0
  9
$PEXTMIN
 10
1.000000000000000E+20
 20
1.000000000000000E+20
 30
1.000000000000000E+20
  9
$PEXTMAX
 10
-1.000000000000000E+20
 20
-1.000000000000000E+20
 30
-1.000000000000000E+20
  9
$PLIMMIN
 10
0.0
 20
0.0
  9
$PLIMMAX
 10
12.0
 20
9.0
  9
$UNITMODE
 70
     0
  9
$VISRETAIN
 70
     1
  9
$PLINEGEN
 70
     0
  9
$PSLTSCALE
 70
     1
  9
$TREEDEPTH
 70
  3020
  9
$CMLSTYLE
  2
Standard
  9
$CMLJUST
 70
     0
  9
$CMLSCALE
 40
1.0
  9
$PROXYGRAPHICS
 70
     1
  9
$MEASUREMENT
 70
     0
  9
$CELWEIGHT
370
    -1
  9
$ENDCAPS
280
     0
  9
$JOINSTYLE
280
     0
  9
$LWDISPLAY
290
     1
  9
$INSUNITS
 70
     1
  9
$HYPERLINKBASE
  1

  9
$STYLESHEET
  1

  9
$XEDIT
290
     1
  9
$CEPSNTYPE
380
     0
  9
$PSTYLEMODE
290
     1
  9
$FINGERPRINTGUID
  2
{EE831853-46E2-4D63-93A6-C39FEA871095}
  9
$VERSIONGUID
  2
{FAEB1C32-E019-11D5-929B-00C0DF256EC4}
  9
$EXTNAMES
290
     1
  9
$PSVPSCALE
 40
0.0
  9
$OLESTARTUP
290
     0
  9
$SORTENTS
280
   127
  9
$INDEXCTL
280
     0
  9
$HIDETEXT
280
     1
  9
$XCLIPFRAME
290
     0
  9
$HALOGAP
280
     0
  9
$OBSCOLOR
 70
   257
  9
$OBSLTYPE
280
     0
  9
$INTERSECTIONDISPLAY
280
     0
  9
$INTERSECTIONCOLOR
 70
   257
  9
$DIMASSOC
280
     2
  9
$PROJECTNAME
  1

  0
ENDSEC
  0
SECTION
  2
CLASSES
  0
CLASS
  1
ACDBDICTIONARYWDFLT
  2
AcDbDictionaryWithDefault
  3
ObjectDBX Classes
 90
        0
 91
        3
280
     0
281
     0
  0
CLASS
  1
VISUALSTYLE
  2
AcDbVisualStyle
  3
ObjectDBX Classes
 90
     4095
 91
        3
280
     0
281
     0
  0
CLASS
  1
IMAGEDEF
  2
AcDbRasterImageDef
  3
ISM
 90
        0
 91
        3
280
     0
281
     0
  0
CLASS
  1
RASTERVARIABLES
  2
AcDbRasterVariables
  3
ISM
 90
        0
 91
        3
280
     0
281
     0
  0
CLASS
  1
IMAGE
  2
AcDbRasterImage
  3
ISM
 90
      127
 91
        4
280
     0
281
     1
  0
CLASS
  1
IMAGEDEF_REACTOR
  2
AcDbRasterImageDefReactor
  3
ISM
 90
        1
 91
        3
280
     0
281
     0
  0
ENDSEC
  0
SECTION
  2
TABLES
  0
TABLE
  2
VPORT
  5
8
330
0
100
AcDbSymbolTable
 70
     1
  0
VPORT
  5
29
330
8
100
AcDbSymbolTableRecord
100
AcDbViewportTableRecord
  2
*Active
 70
     0
 10
0.0
 20
0.0
 11
1.0
 21
1.0
 12
0.0
 22
0.0
 13
0.0
 23
0.0
 14
0.5
 24
0.5
 15
0.5
 25
0.5
 16
0.0
 26
0.0
 36
1.0
 17
57.1499999857125
 27
57.1499999857125
 37
0.0
 40
114.6527777491146
 41
1.0
 42
50.0
 43
0.0
 44
0.0
 50
0.0
 51
0.0
 71
     0
 72
   100
 73
     1
 74
     3
 75
     0
 76
     0
 77
     0
 78
     0
281
     0
 65
     1
110
0.0
120
0.0
130
0.0
111
1.0
121
0.0
131
0.0
112
0.0
122
1.0
132
0.0
 79
     0
146
0.0
  0
ENDTAB
  0
TABLE
  2
LTYPE
  5
5
330
0
100
AcDbSymbolTable
 70
     1
  0
LTYPE
  5
14
330
5
100
AcDbSymbolTableRecord
100
AcDbLinetypeTableRecord
  2
ByBlock
 70
     0
  3

 72
    65
 73
     0
 40
0.0
  0
LTYPE
  5
15
330
5
100
AcDbSymbolTableRecord
100
AcDbLinetypeTableRecord
  2
ByLayer
 70
     0
  3

 72
    65
 73
     0
 40
0.0
  0
LTYPE
  5
16
330
5
100
AcDbSymbolTableRecord
100
AcDbLinetypeTableRecord
  2
Continuous
 70
     0
  3
Solid line
 72
    65
 73
     0
 40
0.0
  0
ENDTAB
  0
TABLE
  2
LAYER
  5
2
330
0
100
AcDbSymbolTable
 70
     3
  0
LAYER
  5
10
330
2
100
AcDbSymbolTableRecord
100
AcDbLayerTableRecord
  2
0
 70
     0
 62
     7
  6
Continuous
370
    -3
390
F
  0
LAYER
  5
3B
330
2
100
AcDbSymbolTableRecord
100
AcDbLayerTableRecord
  2
Image Background
 70
     0
 62
     7
  6
Continuous
370
    -3
390
F
  0
LAYER
  5
41
330
2
100
AcDbSymbolTableRecord
100
AcDbLayerTableRecord
  2
Layer 1
 70
     0
 62
     7
  6
Continuous
370
    -3
390
F
  0
ENDTAB
  0
TABLE
  2
STYLE
  5
3
330
0
100
AcDbSymbolTable
 70
     1
  0
STYLE
  5
11
330
3
100
AcDbSymbolTableRecord
100
AcDbTextStyleTableRecord
  2
Standard
 70
     0
 40
0.0
 41
1.0
 50
0.0
 71
     0
 42
0.2
  3
txt
  4

  0
ENDTAB
  0
TABLE
  2
VIEW
  5
6
330
0
100
AcDbSymbolTable
 70
     0
  0
ENDTAB
  0
TABLE
  2
UCS
  5
7
330
0
100
AcDbSymbolTable
 70
     0
  0
ENDTAB
  0
TABLE
  2
APPID
  5
9
330
0
100
AcDbSymbolTable
 70
     1
  0
APPID
  5
12
330
9
100
AcDbSymbolTableRecord
100
AcDbRegAppTableRecord
  2
ACAD
 70
     0
  0
ENDTAB
  0
TABLE
  2
DIMSTYLE
  5
A
330
0
100
AcDbSymbolTable
 70
     1
100
AcDbDimStyleTable
  0
DIMSTYLE
105
27
330
A
100
AcDbSymbolTableRecord
100
AcDbDimStyleTableRecord
  2
Standard
 70
     0
340
11
  0
ENDTAB
  0
TABLE
  2
BLOCK_RECORD
  5
1
330
0
100
AcDbSymbolTable
 70
     1
  0
BLOCK_RECORD
  5
1F
330
1
100
AcDbSymbolTableRecord
100
AcDbBlockTableRecord
  2
*Model_Space
340
22
  0
BLOCK_RECORD
  5
1B
330
1
100
AcDbSymbolTableRecord
100
AcDbBlockTableRecord
  2
*Paper_Space
340
1E
  0
BLOCK_RECORD
  5
23
330
1
100
AcDbSymbolTableRecord
100
AcDbBlockTableRecord
  2
*Paper_Space0
340
26
  0
ENDTAB
  0
ENDSEC
  0
SECTION
  2
BLOCKS
  0
BLOCK
  5
20
330
1F
100
AcDbEntity
  8
0
100
AcDbBlockBegin
  2
*Model_Space
 70
     0
 71
     0
 10
0.0
 20
0.0
 30
0.0
  3
*Model_Space
  1

  0
ENDBLK
  5
21
330
1F
100
AcDbEntity
  8
0
100
AcDbBlockEnd
  0
BLOCK
  5
1C
330
1B
100
AcDbEntity
 67
     1
  8
0
100
AcDbBlockBegin
  2
*Paper_Space
 70
     0
 71
     0
 10
0.0
 20
0.0
 30
0.0
  3
*Paper_Space
  1

  0
ENDBLK
  5
1D
330
1B
100
AcDbEntity
 67
     1
  8
0
100
AcDbBlockEnd
  0
BLOCK
  5
24
330
23
100
AcDbEntity
  8
0
100
AcDbBlockBegin
  2
*Paper_Space0
 70
     0
 71
     0
 10
0.0
 20
0.0
 30
0.0
  3
*Paper_Space0
  1

  0
ENDBLK
  5
25
330
23
100
AcDbEntity
  8
0
100
AcDbBlockEnd
  0
ENDSEC
  0
SECTION
  2
ENTITIES
  0
IMAGE
  5
3F
330
1F
100
AcDbEntity
  8
Image Background
 92
        8
310
0800000000000000
100
AcDbRasterImage
 90
        0
 10
0.0
 20
-0.0000005960464478
 30
0.0
 11
0.084666668927228
 21
0.0
 31
0.0
 12
0.0
 22
0.084666668927228
 32
0.0
 13
1350.0
 23
1350.0
340
3D
 70
     3
280
     0
281
    50
282
    50
283
     0
360
40
 71
     1
 91
        2
 14
-0.5
 24
-0.5
 14
1349.5
 24
1349.5
  0
SPLINE
  5
42
330
1F
100
AcDbEntity
  8
Layer 1
370
     0
100
AcDbSpline
210
0.0
220
0.0
230
1.0
 70
    11
 71
     3
 72
   185
 73
   181
 74
     0
 42
0.0000000001
 43
0.0000000001
 40
0.0
 40
0.0
 40
0.0
 40
0.0
 40
1.0
 40
1.0
 40
1.0
 40
2.0
 40
2.0
 40
2.0
 40
3.0
 40
3.0
 40
3.0
 40
4.0
 40
4.0
 40
4.0
 40
5.0
 40
5.0
 40
5.0
 40
6.0
 40
6.0
 40
6.0
 40
7.0
 40
7.0
 40
7.0
 40
8.0
 40
8.0
 40
8.0
 40
9.0
 40
9.0
 40
9.0
 40
10.0
 40
10.0
 40
10.0
 40
11.0
 40
11.0
 40
11.0
 40
12.0
 40
12.0
 40
12.0
 40
13.0
 40
13.0
 40
13.0
 40
14.0
 40
14.0
 40
14.0
 40
15.0
 40
15.0
 40
15.0
 40
16.0
 40
16.0
 40
16.0
 40
17.0
 40
17.0
 40
17.0
 40
18.0
 40
18.0
 40
18.0
 40
19.0
 40
19.0
 40
19.0
 40
20.0
 40
20.0
 40
20.0
 40
21.0
 40
21.0
 40
21.0
 40
22.0
 40
22.0
 40
22.0
 40
23.0
 40
23.0
 40
23.0
 40
24.0
 40
24.0
 40
24.0
 40
25.0
 40
25.0
 40
25.0
 40
26.0
 40
26.0
 40
26.0
 40
27.0
 40
27.0
 40
27.0
 40
28.0
 40
28.0
 40
28.0
 40
29.0
 40
29.0
 40
29.0
 40
30.0
 40
30.0
 40
30.0
 40
31.0
 40
31.0
 40
31.0
 40
32.0
 40
32.0
 40
32.0
 40
33.0
 40
33.0
 40
33.0
 40
34.0
 40
34.0
 40
34.0
 40
35.0
 40
35.0
 40
35.0
 40
36.0
 40
36.0
 40
36.0
 40
37.0
 40
37.0
 40
37.0
 40
38.0
 40
38.0
 40
38.0
 40
39.0
 40
39.0
 40
39.0
 40
40.0
 40
40.0
 40
40.0
 40
41.0
 40
41.0
 40
41.0
 40
42.0
 40
42.0
 40
42.0
 40
43.0
 40
43.0
 40
43.0
 40
44.0
 40
44.0
 40
44.0
 40
45.0
 40
45.0
 40
45.0
 40
46.0
 40
46.0
 40
46.0
 40
47.0
 40
47.0
 40
47.0
 40
48.0
 40
48.0
 40
48.0
 40
49.0
 40
49.0
 40
49.0
 40
50.0
 40
50.0
 40
50.0
 40
51.0
 40
51.0
 40
51.0
 40
52.0
 40
52.0
 40
52.0
 40
53.0
 40
53.0
 40
53.0
 40
54.0
 40
54.0
 40
54.0
 40
55.0
 40
55.0
 40
55.0
 40
56.0
 40
56.0
 40
56.0
 40
57.0
 40
57.0
 40
57.0
 40
58.0
 40
58.0
 40
58.0
 40
59.0
 40
59.0
 40
59.0
 40
60.0
 40
60.0
 40
60.0
 40
60.0
 10
79.59738089372912
 20
67.94055580983778
 30
0.0
 10
78.18644203774505
 20
68.35792912787579
 30
0.0
 10
76.74690888923341
 20
68.75756020416478
 30
0.0
 10
75.29497339697487
 20
69.10000269539862
 30
0.0
 10
74.10228133998137
 20
69.38077797744647
 30
0.0
 10
72.90166556337181
 20
69.61986760412282
 30
0.0
 10
71.70070527721371
 20
69.80142413619548
 30
0.0
 10
71.43818900123767
 20
69.84104273427586
 30
0.0
 10
71.1758449800359
 20
69.88135035145328
 30
0.0
 10
70.91350095883413
 20
69.91494003243446
 30
0.0
 10
70.79533418369006
 20
69.93009845256957
 30
0.0
 10
70.67372231306074
 20
69.94594589180171
 30
0.0
 10
70.55090465901158
 20
69.96282685967944
 30
0.0
 10
70.27133516038356
 20
70.00072291001719
 30
0.0
 10
69.98211939439683
 20
70.04344209403428
 30
0.0
 10
69.69187009976453
 20
70.09511852631303
 30
0.0
 10
69.54665932506126
 20
70.1209567424524
 30
0.0
 10
69.4017930599065
 20
70.14886201588293
 30
0.0
 10
69.25744355907453
 20
70.17986787525018
 30
0.0
 10
68.37033147162269
 20
70.3698648912617
 30
0.0
 10
67.5147420078609
 20
70.66614310299319
 30
0.0
 10
66.94320066685795
 20
71.20082192230396
 30
0.0
 10
66.49516599900122
 20
71.61957327853608
 30
0.0
 10
66.22300345566647
 20
72.18250188082591
 30
0.0
 10
66.24281275470666
 20
72.95506454339318
 30
0.0
 10
66.26262205374685
 20
73.67440048071335
 30
0.0
 10
66.27364635929965
 20
74.39528671100187
 30
0.0
 10
66.28157007891572
 20
75.11703421516172
 30
0.0
 10
66.28157007891572
 20
75.11703421516172
 30
0.0
 10
66.48689776983662
 20
75.11703421516172
 30
0.0
 10
66.48689776983662
 20
75.11703421516172
 30
0.0
 10
67.61137693622216
 20
75.11703421516172
 30
0.0
 10
68.522776946845
 20
76.02877873533309
 30
0.0
 10
68.522776946845
 20
77.1529133921701
 30
0.0
 10
68.522776946845
 20
77.1529133921701
 30
0.0
 10
68.522776946845
 20
86.85946992186153
 30
0.0
 10
68.522776946845
 20
86.85946992186153
 30
0.0
 10
68.522776946845
 20
87.98394908824707
 30
0.0
 10
67.61137693622216
 20
88.89569360841844
 30
0.0
 10
66.48689776983662
 20
88.89569360841844
 30
0.0
 10
66.48689776983662
 20
88.89569360841844
 30
0.0
 10
62.22497014503404
 20
88.89569360841844
 30
0.0
 10
62.22497014503404
 20
88.89569360841844
 30
0.0
 10
62.22755396664797
 20
88.95942787489557
 30
0.0
 10
62.2334106289729
 20
89.02281763182415
 30
0.0
 10
62.2334106289729
 20
89.08741317217259
 30
0.0
 10
62.2334106289729
 20
91.54187145063884
 30
0.0
 10
60.49398191847025
 20
93.59015297139413
 30
0.0
 10
58.18025579057647
 20
94.06643742222992
 30
0.0
 10
58.18025579057647
 20
94.06643742222992
 30
0.0
 10
58.18025579057647
 20
102.2247680408501
 30
0.0
 10
58.18025579057647
 20
102.2247680408501
 30
0.0
 10
58.18025579057647
 20
103.2176445596991
 30
0.0
 10
58.25932073196295
 20
103.940770102053
 30
0.0
 10
58.4165893408646
 20
104.3936279035891
 30
0.0
 10
58.57454696886331
 20
104.8461411955767
 30
0.0
 10
58.86204018710741
 20
105.2047756355912
 30
0.0
 10
59.27958575991969
 20
105.4686699497613
 30
0.0
 10
59.69695907795771
 20
105.7330810282542
 30
0.0
 10
60.19356959215647
 20
105.864855930565
 30
0.0
 10
60.76855602864467
 20
105.864855930565
 30
0.0
 10
61.54887015605376
 20
105.864855930565
 30
0.0
 10
62.10921493672964
 20
105.5703002665762
 30
0.0
 10
62.6008300624748
 20
105.1326008851752
 30
0.0
 10
63.49052597154056
 20
104.3385063758251
 30
0.0
 10
63.58440482351362
 20
101.9539835357094
 30
0.0
 10
63.63694252966368
 20
100.548040068179
 30
0.0
 10
63.63694252966368
 20
100.548040068179
 30
0.0
 10
65.71881373140016
 20
100.548040068179
 30
0.0
 10
65.71881373140016
 20
100.548040068179
 30
0.0
 10
65.74465194753954
 20
102.281784371131
 30
0.0
 10
65.52140976009534
 20
105.2483560934796
 30
0.0
 10
64.24930825216684
 20
106.5976277402777
 30
0.0
 10
63.43282062216263
 20
107.4638970000438
 30
0.0
 10
62.27716334163557
 20
107.9093478462866
 30
0.0
 10
60.75667044922056
 20
107.9093478462866
 30
0.0
 10
59.73244356145578
 20
107.9093478462866
 30
0.0
 10
58.83981932122754
 20
107.7005750598804
 30
0.0
 10
58.07983125718143
 20
107.2828572322939
 30
0.0
 10
57.31949868358679
 20
106.8651394047073
 30
0.0
 10
56.76414929136452
 20
106.2589748540776
 30
0.0
 10
56.41326631619182
 20
105.4631577969849
 30
0.0
 10
56.06255559579339
 20
104.6669962303437
 30
0.0
 10
55.8875447451427
 20
103.5445841212493
 30
0.0
 10
55.8875447451427
 20
102.0947156862819
 30
0.0
 10
55.8875447451427
 20
102.0947156862819
 30
0.0
 10
55.8875447451427
 20
94.01286618743428
 30
0.0
 10
55.8875447451427
 20
94.01286618743428
 30
0.0
 10
53.69043509942462
 20
93.45131562333856
 30
0.0
 10
52.06641708767784
 20
91.45918915899284
 30
0.0
 10
52.06641708767784
 20
89.08741317217259
 30
0.0
 10
52.06641708767784
 20
89.02281763182415
 30
0.0
 10
52.0721014952285
 20
88.95942787489557
 30
0.0
 10
52.07451306206818
 20
88.89569360841844
 30
0.0
 10
52.07451306206818
 20
88.89569360841844
 30
0.0
 10
47.42432317607795
 20
88.89569360841844
 30
0.0
 10
47.42432317607795
 20
88.89569360841844
 30
0.0
 10
46.30018851924093
 20
88.89569360841844
 30
0.0
 10
45.38844399906956
 20
87.98394908824707
 30
0.0
 10
45.38844399906956
 20
86.85946992186153
 30
0.0
 10
45.38844399906956
 20
86.85946992186153
 30
0.0
 10
45.38844399906956
 20
77.1529133921701
 30
0.0
 10
45.38844399906956
 20
77.1529133921701
 30
0.0
 10
45.38844399906956
 20
76.02877873533309
 30
0.0
 10
46.30018851924093
 20
75.11703421516172
 30
0.0
 10
47.42432317607795
 20
75.11703421516172
 30
0.0
 10
47.42432317607795
 20
75.11703421516172
 30
0.0
 10
48.01326224928141
 20
75.11703421516172
 30
0.0
 10
48.01326224928141
 20
75.11703421516172
 30
0.0
 10
48.01291773973288
 20
74.33809812594673
 30
0.0
 10
48.011022937216
 20
73.55881752718322
 30
0.0
 10
48.00327147237419
 20
72.78005369274248
 30
0.0
 10
47.98673501404499
 20
71.17016057248524
 30
0.0
 10
46.90290797438539
 20
70.56296249320995
 30
0.0
 10
45.58360865830896
 20
70.25255938998895
 30
0.0
 10
45.51143390789298
 20
70.23567842211122
 30
0.0
 10
45.43874239315421
 20
70.2196587281048
 30
0.0
 10
45.36553411409265
 20
70.20432805319545
 30
0.0
 10
44.63948024057624
 20
70.05308836139298
 30
0.0
 10
43.85830483929584
 20
69.97746851549175
 30
0.0
 10
43.15257702914241
 20
69.86584742176966
 30
0.0
 10
43.14361978088076
 20
69.86446938357555
 30
0.0
 10
43.13414576829633
 20
69.86291909060719
 30
0.0
 10
43.12518852003468
 20
69.86154105241309
 30
0.0
 10
40.58374158056587
 20
69.45725909721902
 30
0.0
 10
38.0572808064579
 20
68.88657903008739
 30
0.0
 10
35.57767333094933
 20
68.18653562748462
 30
0.0
 10
35.28794080063982
 20
68.10471460970993
 30
0.0
 10
34.99838052510457
 20
68.02151555374115
 30
0.0
 10
34.71002603298916
 20
67.93607718570695
 30
0.0
 10
34.69814045356505
 20
67.93297659977023
 30
0.0
 10
34.68625487414094
 20
67.92970375905924
 30
0.0
 10
34.67436929471683
 20
67.92608640879973
 30
0.0
 10
34.45612249572625
 20
67.86131861367703
 30
0.0
 10
34.23494736557321
 20
67.79413925171467
 30
0.0
 10
34.01170517812902
 20
67.72540959678393
 30
0.0
 10
33.976909713728
 20
67.71490205555392
 30
0.0
 10
33.9424587588755
 20
67.70439451432391
 30
0.0
 10
33.90766329447447
 20
67.69319795399684
 30
0.0
 10
33.66237249592469
 20
67.61757810809561
 30
0.0
 10
33.41415336621244
 20
67.53885767625765
 30
0.0
 10
33.16369492443477
 20
67.45789793235429
 30
0.0
 10
33.15663247869001
 20
67.4554863655146
 30
0.0
 10
33.14922552339672
 20
67.45341930822346
 30
0.0
 10
33.14199082287769
 20
67.45100774138378
 30
0.0
 10
24.3809407491131
 20
64.61845023341137
 30
0.0
 10
12.58665635536028
 20
58.73973929738104
 30
0.0
 10
12.31311577383144
 20
48.41771645924974
 30
0.0
 10
12.31018744266898
 20
48.31780869017749
 30
0.0
 10
12.29830186324487
 20
48.21635062813689
 30
0.0
 10
12.29830186324487
 20
48.11472031132202
 30
0.0
 10
12.29830186324487
 20
39.26788735997469
 30
0.0
 10
21.13962266181579
 20
33.74798311873315
 30
0.0
 10
28.22118868652109
 20
30.68787705395998
 30
0.0
 10
40.40924749423797
 20
25.41291910171969
 30
0.0
 10
48.02807615986799
 20
23.40580647201313
 30
0.0
 10
57.07179631819733
 20
6.496244301761356
 30
0.0
 10
57.10934785898655
 20
6.374632431132037
 30
0.0
 10
57.12571206254149
 20
6.309347871686552
 30
0.0
 10
57.12571206254149
 20
6.309347871686552
 30
0.0
 10
57.12571206254149
 20
6.309347871686552
 30
0.0
 10
57.14948322138972
 20
6.35344509389775
 30
0.0
 10
57.14948322138972
 20
6.35344509389775
 30
0.0
 10
57.14948322138972
 20
6.35344509389775
 30
0.0
 10
57.17325438023794
 20
6.309347871686552
 30
0.0
 10
57.17325438023794
 20
6.309347871686552
 30
0.0
 10
57.17325438023794
 20
6.309347871686552
 30
0.0
 10
57.18910181947009
 20
6.374632431132037
 30
0.0
 10
57.22648110548505
 20
6.496244301761356
 30
0.0
 10
74.68605276995696
 20
37.63870170500005
 30
0.0
 10
87.67699108051131
 20
19.7953464034713
 30
0.0
 10
100.3173909254415
 20
41.81191812105744
 30
0.0
 10
101.3760687680588
 20
43.65538871521463
 30
0.0
 10
102.0016981081801
 20
45.98048365820974
 30
0.0
 10
102.0016981081801
 20
48.11472031132202
 30
0.0
 10
102.0016981081801
 20
48.21635062813689
 30
0.0
 10
101.989812528756
 20
48.31780869017749
 30
0.0
 10
101.9868841975936
 20
48.41771645924974
 30
0.0
 10
101.696462648187
 20
59.36571314705093
 30
0.0
 10
88.44852021443302
 20
65.3181491264656
 30
0.0
 10
79.59738089372912
 20
67.94055580983778
 30
0.0
  0
HATCH
  5
43
330
1F
100
AcDbEntity
  8
Layer 1
 62
    53
420
 14996332
100
AcDbHatch
 10
0.0
 20
0.0
 30
0.0
210
0.0
220
0.0
230
1.0
  2
SOLID
 70
     1
 71
     0
 91
        1
 92
        1
 93
        1
 72
     4
 94
        3
 73
     0
 74
     1
 95
      185
 96
      181
 40
0.0
 40
0.0
 40
0.0
 40
0.0
 40
1.0
 40
1.0
 40
1.0
 40
2.0
 40
2.0
 40
2.0
 40
3.0
 40
3.0
 40
3.0
 40
4.0
 40
4.0
 40
4.0
 40
5.0
 40
5.0
 40
5.0
 40
6.0
 40
6.0
 40
6.0
 40
7.0
 40
7.0
 40
7.0
 40
8.0
 40
8.0
 40
8.0
 40
9.0
 40
9.0
 40
9.0
 40
10.0
 40
10.0
 40
10.0
 40
11.0
 40
11.0
 40
11.0
 40
12.0
 40
12.0
 40
12.0
 40
13.0
 40
13.0
 40
13.0
 40
14.0
 40
14.0
 40
14.0
 40
15.0
 40
15.0
 40
15.0
 40
16.0
 40
16.0
 40
16.0
 40
17.0
 40
17.0
 40
17.0
 40
18.0
 40
18.0
 40
18.0
 40
19.0
 40
19.0
 40
19.0
 40
20.0
 40
20.0
 40
20.0
 40
21.0
 40
21.0
 40
21.0
 40
22.0
 40
22.0
 40
22.0
 40
23.0
 40
23.0
 40
23.0
 40
24.0
 40
24.0
 40
24.0
 40
25.0
 40
25.0
 40
25.0
 40
26.0
 40
26.0
 40
26.0
 40
27.0
 40
27.0
 40
27.0
 40
28.0
 40
28.0
 40
28.0
 40
29.0
 40
29.0
 40
29.0
 40
30.0
 40
30.0
 40
30.0
 40
31.0
 40
31.0
 40
31.0
 40
32.0
 40
32.0
 40
32.0
 40
33.0
 40
33.0
 40
33.0
 40
34.0
 40
34.0
 40
34.0
 40
35.0
 40
35.0
 40
35.0
 40
36.0
 40
36.0
 40
36.0
 40
37.0
 40
37.0
 40
37.0
 40
38.0
 40
38.0
 40
38.0
 40
39.0
 40
39.0
 40
39.0
 40
40.0
 40
40.0
 40
40.0
 40
41.0
 40
41.0
 40
41.0
 40
42.0
 40
42.0
 40
42.0
 40
43.0
 40
43.0
 40
43.0
 40
44.0
 40
44.0
 40
44.0
 40
45.0
 40
45.0
 40
45.0
 40
46.0
 40
46.0
 40
46.0
 40
47.0
 40
47.0
 40
47.0
 40
48.0
 40
48.0
 40
48.0
 40
49.0
 40
49.0
 40
49.0
 40
50.0
 40
50.0
 40
50.0
 40
51.0
 40
51.0
 40
51.0
 40
52.0
 40
52.0
 40
52.0
 40
53.0
 40
53.0
 40
53.0
 40
54.0
 40
54.0
 40
54.0
 40
55.0
 40
55.0
 40
55.0
 40
56.0
 40
56.0
 40
56.0
 40
57.0
 40
57.0
 40
57.0
 40
58.0
 40
58.0
 40
58.0
 40
59.0
 40
59.0
 40
59.0
 40
60.0
 40
60.0
 40
60.0
 40
60.0
 10
79.59738089372912
 20
67.94055580983778
 10
78.18644203774505
 20
68.35792912787579
 10
76.74690888923341
 20
68.75756020416478
 10
75.29497339697487
 20
69.10000269539862
 10
74.10228133998137
 20
69.38077797744647
 10
72.90166556337181
 20
69.61986760412282
 10
71.70070527721371
 20
69.80142413619548
 10
71.43818900123767
 20
69.84104273427586
 10
71.1758449800359
 20
69.88135035145328
 10
70.91350095883413
 20
69.91494003243446
 10
70.79533418369006
 20
69.93009845256957
 10
70.67372231306074
 20
69.94594589180171
 10
70.55090465901158
 20
69.96282685967944
 10
70.27133516038356
 20
70.00072291001719
 10
69.98211939439683
 20
70.04344209403428
 10
69.69187009976453
 20
70.09511852631303
 10
69.54665932506126
 20
70.1209567424524
 10
69.4017930599065
 20
70.14886201588293
 10
69.25744355907453
 20
70.17986787525018
 10
68.37033147162269
 20
70.3698648912617
 10
67.5147420078609
 20
70.66614310299319
 10
66.94320066685795
 20
71.20082192230396
 10
66.49516599900122
 20
71.61957327853608
 10
66.22300345566647
 20
72.18250188082591
 10
66.24281275470666
 20
72.95506454339318
 10
66.26262205374685
 20
73.67440048071335
 10
66.27364635929965
 20
74.39528671100187
 10
66.28157007891572
 20
75.11703421516172
 10
66.28157007891572
 20
75.11703421516172
 10
66.48689776983662
 20
75.11703421516172
 10
66.48689776983662
 20
75.11703421516172
 10
67.61137693622216
 20
75.11703421516172
 10
68.522776946845
 20
76.02877873533309
 10
68.522776946845
 20
77.1529133921701
 10
68.522776946845
 20
77.1529133921701
 10
68.522776946845
 20
86.85946992186153
 10
68.522776946845
 20
86.85946992186153
 10
68.522776946845
 20
87.98394908824707
 10
67.61137693622216
 20
88.89569360841844
 10
66.48689776983662
 20
88.89569360841844
 10
66.48689776983662
 20
88.89569360841844
 10
62.22497014503404
 20
88.89569360841844
 10
62.22497014503404
 20
88.89569360841844
 10
62.22755396664797
 20
88.95942787489557
 10
62.2334106289729
 20
89.02281763182415
 10
62.2334106289729
 20
89.08741317217259
 10
62.2334106289729
 20
91.54187145063884
 10
60.49398191847025
 20
93.59015297139413
 10
58.18025579057647
 20
94.06643742222992
 10
58.18025579057647
 20
94.06643742222992
 10
58.18025579057647
 20
102.2247680408501
 10
58.18025579057647
 20
102.2247680408501
 10
58.18025579057647
 20
103.2176445596991
 10
58.25932073196295
 20
103.940770102053
 10
58.4165893408646
 20
104.3936279035891
 10
58.57454696886331
 20
104.8461411955767
 10
58.86204018710741
 20
105.2047756355912
 10
59.27958575991969
 20
105.4686699497613
 10
59.69695907795771
 20
105.7330810282542
 10
60.19356959215647
 20
105.864855930565
 10
60.76855602864467
 20
105.864855930565
 10
61.54887015605376
 20
105.864855930565
 10
62.10921493672964
 20
105.5703002665762
 10
62.6008300624748
 20
105.1326008851752
 10
63.49052597154056
 20
104.3385063758251
 10
63.58440482351362
 20
101.9539835357094
 10
63.63694252966368
 20
100.548040068179
 10
63.63694252966368
 20
100.548040068179
 10
65.71881373140016
 20
100.548040068179
 10
65.71881373140016
 20
100.548040068179
 10
65.74465194753954
 20
102.281784371131
 10
65.52140976009534
 20
105.2483560934796
 10
64.24930825216684
 20
106.5976277402777
 10
63.43282062216263
 20
107.4638970000438
 10
62.27716334163557
 20
107.9093478462866
 10
60.75667044922056
 20
107.9093478462866
 10
59.73244356145578
 20
107.9093478462866
 10
58.83981932122754
 20
107.7005750598804
 10
58.07983125718143
 20
107.2828572322939
 10
57.31949868358679
 20
106.8651394047073
 10
56.76414929136452
 20
106.2589748540776
 10
56.41326631619182
 20
105.4631577969849
 10
56.06255559579339
 20
104.6669962303437
 10
55.8875447451427
 20
103.5445841212493
 10
55.8875447451427
 20
102.0947156862819
 10
55.8875447451427
 20
102.0947156862819
 10
55.8875447451427
 20
94.01286618743428
 10
55.8875447451427
 20
94.01286618743428
 10
53.69043509942462
 20
93.45131562333856
 10
52.06641708767784
 20
91.45918915899284
 10
52.06641708767784
 20
89.08741317217259
 10
52.06641708767784
 20
89.02281763182415
 10
52.0721014952285
 20
88.95942787489557
 10
52.07451306206818
 20
88.89569360841844
 10
52.07451306206818
 20
88.89569360841844
 10
47.42432317607795
 20
88.89569360841844
 10
47.42432317607795
 20
88.89569360841844
 10
46.30018851924093
 20
88.89569360841844
 10
45.38844399906956
 20
87.98394908824707
 10
45.38844399906956
 20
86.85946992186153
 10
45.38844399906956
 20
86.85946992186153
 10
45.38844399906956
 20
77.1529133921701
 10
45.38844399906956
 20
77.1529133921701
 10
45.38844399906956
 20
76.02877873533309
 10
46.30018851924093
 20
75.11703421516172
 10
47.42432317607795
 20
75.11703421516172
 10
47.42432317607795
 20
75.11703421516172
 10
48.01326224928141
 20
75.11703421516172
 10
48.01326224928141
 20
75.11703421516172
 10
48.01291773973288
 20
74.33809812594673
 10
48.011022937216
 20
73.55881752718322
 10
48.00327147237419
 20
72.78005369274248
 10
47.98673501404499
 20
71.17016057248524
 10
46.90290797438539
 20
70.56296249320995
 10
45.58360865830896
 20
70.25255938998895
 10
45.51143390789298
 20
70.23567842211122
 10
45.43874239315421
 20
70.2196587281048
 10
45.36553411409265
 20
70.20432805319545
 10
44.63948024057624
 20
70.05308836139298
 10
43.85830483929584
 20
69.97746851549175
 10
43.15257702914241
 20
69.86584742176966
 10
43.14361978088076
 20
69.86446938357555
 10
43.13414576829633
 20
69.86291909060719
 10
43.12518852003468
 20
69.86154105241309
 10
40.58374158056587
 20
69.45725909721902
 10
38.0572808064579
 20
68.88657903008739
 10
35.57767333094933
 20
68.18653562748462
 10
35.28794080063982
 20
68.10471460970993
 10
34.99838052510457
 20
68.02151555374115
 10
34.71002603298916
 20
67.93607718570695
 10
34.69814045356505
 20
67.93297659977023
 10
34.68625487414094
 20
67.92970375905924
 10
34.67436929471683
 20
67.92608640879973
 10
34.45612249572625
 20
67.86131861367703
 10
34.23494736557321
 20
67.79413925171467
 10
34.01170517812902
 20
67.72540959678393
 10
33.976909713728
 20
67.71490205555392
 10
33.9424587588755
 20
67.70439451432391
 10
33.90766329447447
 20
67.69319795399684
 10
33.66237249592469
 20
67.61757810809561
 10
33.41415336621244
 20
67.53885767625765
 10
33.16369492443477
 20
67.45789793235429
 10
33.15663247869001
 20
67.4554863655146
 10
33.14922552339672
 20
67.45341930822346
 10
33.14199082287769
 20
67.45100774138378
 10
24.3809407491131
 20
64.61845023341137
 10
12.58665635536028
 20
58.73973929738104
 10
12.31311577383144
 20
48.41771645924974
 10
12.31018744266898
 20
48.31780869017749
 10
12.29830186324487
 20
48.21635062813689
 10
12.29830186324487
 20
48.11472031132202
 10
12.29830186324487
 20
39.26788735997469
 10
21.13962266181579
 20
33.74798311873315
 10
28.22118868652109
 20
30.68787705395998
 10
40.40924749423797
 20
25.41291910171969
 10
48.02807615986799
 20
23.40580647201313
 10
57.07179631819733
 20
6.496244301761356
 10
57.10934785898655
 20
6.374632431132037
 10
57.12571206254149
 20
6.309347871686552
 10
57.12571206254149
 20
6.309347871686552
 10
57.12571206254149
 20
6.309347871686552
 10
57.14948322138972
 20
6.35344509389775
 10
57.14948322138972
 20
6.35344509389775
 10
57.14948322138972
 20
6.35344509389775
 10
57.17325438023794
 20
6.309347871686552
 10
57.17325438023794
 20
6.309347871686552
 10
57.17325438023794
 20
6.309347871686552
 10
57.18910181947009
 20
6.374632431132037
 10
57.22648110548505
 20
6.496244301761356
 10
74.68605276995696
 20
37.63870170500005
 10
87.67699108051131
 20
19.7953464034713
 10
100.3173909254415
 20
41.81191812105744
 10
101.3760687680588
 20
43.65538871521463
 10
102.0016981081801
 20
45.98048365820974
 10
102.0016981081801
 20
48.11472031132202
 10
102.0016981081801
 20
48.21635062813689
 10
101.989812528756
 20
48.31780869017749
 10
101.9868841975936
 20
48.41771645924974
 10
101.696462648187
 20
59.36571314705093
 10
88.44852021443302
 20
65.3181491264656
 10
79.59738089372912
 20
67.94055580983778
 97
        0
 75
     2
 76
     1
 98
        0
  0
ENDSEC
  0
SECTION
  2
OBJECTS
  0
DICTIONARY
  5
C
330
0
100
AcDbDictionary
281
     1
  3
ACAD_GROUP
350
D
  3
ACAD_IMAGE_DICT
350
3C
  3
ACAD_IMAGE_VARS
350
3E
  3
ACAD_LAYOUT
350
1A
  3
ACAD_MLINESTYLE
350
17
  3
ACAD_PLOTSETTINGS
350
19
  3
ACAD_PLOTSTYLENAME
350
E
  3
ACAD_TABLESTYLE
350
44
  3
ACAD_VISUALSTYLE
350
2A
  0
IMAGEDEF_REACTOR
  5
40
330
3F
100
AcDbRasterImageDefReactor
 90
        2
330
3F
  0
DICTIONARY
  5
D
102
{ACAD_REACTORS
330
C
102
}
330
C
100
AcDbDictionary
281
     1
  0
DICTIONARY
  5
3C
102
{ACAD_REACTORS
330
C
102
}
330
C
100
AcDbDictionary
281
     1
  3
C:\Users\Owner\Desktop\50\christmas\cut its\christmas-09\dxf\christmas-09_1.png
350
3D
  0
RASTERVARIABLES
  5
3E
102
{ACAD_REACTORS
330
C
102
}
330
C
100
AcDbRasterVariables
 90
        0
 70
     0
 71
     1
 72
     0
  0
DICTIONARY
  5
1A
102
{ACAD_REACTORS
330
C
102
}
330
C
100
AcDbDictionary
281
     1
  3
Layout1
350
1E
  3
Layout2
350
26
  3
Model
350
22
  0
DICTIONARY
  5
17
102
{ACAD_REACTORS
330
C
102
}
330
C
100
AcDbDictionary
281
     1
  3
Standard
350
18
  0
DICTIONARY
  5
19
102
{ACAD_REACTORS
330
C
102
}
330
C
100
AcDbDictionary
281
     1
  0
ACDBDICTIONARYWDFLT
  5
E
102
{ACAD_REACTORS
330
C
102
}
330
C
100
AcDbDictionary
281
     1
  3
Normal
350
F
100
AcDbDictionaryWithDefault
340
F
  0
DICTIONARY
  5
44
102
{ACAD_REACTORS
330
C
102
}
330
C
100
AcDbDictionary
281
     1
  0
DICTIONARY
  5
2A
102
{ACAD_REACTORS
330
C
102
}
330
C
100
AcDbDictionary
281
     1
  3
2dWireframe
350
2F
  3
3D Hidden
350
31
  3
3dWireframe
350
30
  3
Basic
350
32
  3
Brighten
350
36
  3
ColorChange
350
3A
  3
Conceptual
350
34
  3
Dim
350
35
  3
Facepattern
350
39
  3
Flat
350
2B
  3
FlatWithEdges
350
2C
  3
Gouraud
350
2D
  3
GouraudWithEdges
350
2E
  3
Linepattern
350
38
  3
Realistic
350
33
  3
Thicken
350
37
  0
IMAGEDEF
  5
3D
102
{ACAD_REACTORS
330
3C
330
40
102
}
330
3C
100
AcDbRasterImageDef
 90
        0
  1
C:\Users\Owner\Desktop\50\christmas\cut its\christmas-09\dxf\christmas-09_1.png
 10
1350.0
 20
1350.0
 11
0.3527777777777777
 21
0.3527777777777777
280
     1
281
     5
  0
LAYOUT
  5
1E
102
{ACAD_REACTORS
330
1A
102
}
330
1A
100
AcDbPlotSettings
  1

  2
none_device
  4

  6

 40
0.0
 41
0.0
 42
0.0
 43
0.0
 44
0.0
 45
0.0
 46
0.0
 47
0.0
 48
0.0
 49
0.0
140
0.0
141
0.0
142
1.0
143
1.0
 70
   688
 72
     0
 73
     0
 74
     5
  7

 75
    16
 76
     0
 77
     2
 78
   300
147
1.0
148
0.0
149
0.0
100
AcDbLayout
  1
Layout1
 70
     1
 71
     1
 10
0.0
 20
0.0
 11
12.0
 21
9.0
 12
0.0
 22
0.0
 32
0.0
 14
1.000000000000000E+20
 24
1.000000000000000E+20
 34
1.000000000000000E+20
 15
-1.000000000000000E+20
 25
-1.000000000000000E+20
 35
-1.000000000000000E+20
146
0.0
 13
0.0
 23
0.0
 33
0.0
 16
1.0
 26
0.0
 36
0.0
 17
0.0
 27
1.0
 37
0.0
 76
     0
330
1B
  0
LAYOUT
  5
26
102
{ACAD_REACTORS
330
1A
102
}
330
1A
100
AcDbPlotSettings
  1

  2
none_device
  4

  6

 40
0.0
 41
0.0
 42
0.0
 43
0.0
 44
0.0
 45
0.0
 46
0.0
 47
0.0
 48
0.0
 49
0.0
140
0.0
141
0.0
142
1.0
143
1.0
 70
   688
 72
     0
 73
     0
 74
     5
  7

 75
    16
 76
     0
 77
     2
 78
   300
147
1.0
148
0.0
149
0.0
100
AcDbLayout
  1
Layout2
 70
     1
 71
     2
 10
0.0
 20
0.0
 11
0.0
 21
0.0
 12
0.0
 22
0.0
 32
0.0
 14
0.0
 24
0.0
 34
0.0
 15
0.0
 25
0.0
 35
0.0
146
0.0
 13
0.0
 23
0.0
 33
0.0
 16
1.0
 26
0.0
 36
0.0
 17
0.0
 27
1.0
 37
0.0
 76
     0
330
23
  0
LAYOUT
  5
22
102
{ACAD_REACTORS
330
1A
102
}
330
1A
100
AcDbPlotSettings
  1

  2
none_device
  4

  6

 40
0.0
 41
0.0
 42
0.0
 43
0.0
 44
0.0
 45
0.0
 46
0.0
 47
0.0
 48
0.0
 49
0.0
140
0.0
141
0.0
142
1.0
143
1.0
 70
  1712
 72
     0
 73
     0
 74
     0
  7

 75
     0
 76
     0
 77
     2
 78
   300
147
1.0
148
0.0
149
0.0
100
AcDbLayout
  1
Model
 70
     1
 71
     0
 10
0.0
 20
0.0
 11
12.0
 21
9.0
 12
0.0
 22
0.0
 32
0.0
 14
1.000000000000000E+20
 24
1.000000000000000E+20
 34
1.000000000000000E+20
 15
-1.000000000000000E+20
 25
-1.000000000000000E+20
 35
-1.000000000000000E+20
146
0.0
 13
0.0
 23
0.0
 33
0.0
 16
1.0
 26
0.0
 36
0.0
 17
0.0
 27
1.0
 37
0.0
 76
     0
330
1F
331
29
  0
MLINESTYLE
  5
18
102
{ACAD_REACTORS
330
17
102
}
330
17
100
AcDbMlineStyle
  2
Standard
 70
     0
  3

 62
   256
 51
90.0
 52
90.0
 71
     2
 49
0.5
 62
   256
  6
BYLAYER
 49
-0.5
 62
   256
  6
BYLAYER
  0
ACDBPLACEHOLDER
  5
F
102
{ACAD_REACTORS
330
E
102
}
330
E
  0
VISUALSTYLE
  5
2F
102
{ACAD_REACTORS
330
2A
102
}
330
2A
100
AcDbVisualStyle
  2
2dWireframe
 70
     4
 71
     0
 72
     2
 73
     0
 90
        0
 40
-0.6
 41
-30.0
 62
     5
 63
     7
421
 16777215
 74
     1
 91
        4
 64
     7
 65
   257
 75
     1
175
     1
 42
1.0
 92
        0
 66
   257
 43
1.0
 76
     1
 77
     6
 78
     2
 67
     7
 79
     5
170
     0
171
     0
290
     0
174
     0
 93
        1
 44
0.0
173
     0
291
     0
 45
0.0
1001
ACAD
1000
AcDbSavedByObjectVersion
1070
     0
  0
VISUALSTYLE
  5
31
102
{ACAD_REACTORS
330
2A
102
}
330
2A
100
AcDbVisualStyle
  2
3D Hidden
 70
     6
 71
     1
 72
     2
 73
     2
 90
        0
 40
-0.6
 41
-30.0
 62
     5
 63
     7
421
 16777215
 74
     2
 91
        2
 64
     7
 65
   257
 75
     2
175
     1
 42
40.0
 92
        0
 66
   257
 43
1.0
 76
     1
 77
     6
 78
     2
 67
     7
 79
     3
170
     0
171
     0
290
     0
174
     0
 93
        1
 44
0.0
173
     0
291
     0
 45
0.0
1001
ACAD
1000
AcDbSavedByObjectVersion
1070
     0
  0
VISUALSTYLE
  5
30
102
{ACAD_REACTORS
330
2A
102
}
330
2A
100
AcDbVisualStyle
  2
3dWireframe
 70
     5
 71
     0
 72
     2
 73
     0
 90
        0
 40
-0.6
 41
-30.0
 62
     5
 63
     7
421
 16777215
 74
     1
 91
        4
 64
     7
 65
   257
 75
     1
175
     1
 42
1.0
 92
        0
 66
   257
 43
1.0
 76
     1
 77
     6
 78
     2
 67
     7
 79
     5
170
     0
171
     0
290
     0
174
     0
 93
        1
 44
0.0
173
     0
291
     0
 45
0.0
1001
ACAD
1000
AcDbSavedByObjectVersion
1070
     0
  0
VISUALSTYLE
  5
32
102
{ACAD_REACTORS
330
2A
102
}
330
2A
100
AcDbVisualStyle
  2
Basic
 70
     7
 71
     1
 72
     0
 73
     1
 90
        0
 40
-0.6
 41
-30.0
 62
     5
 63
     7
421
 16777215
 74
     0
 91
        4
 64
     7
 65
   257
 75
     1
175
     1
 42
1.0
 92
        8
 66
     7
 43
1.0
 76
     1
 77
     6
 78
     2
 67
     7
 79
     5
170
     0
171
     0
290
     0
174
     0
 93
        1
 44
0.0
173
     0
291
     1
 45
0.0
1001
ACAD
1000
AcDbSavedByObjectVersion
1070
     0
  0
VISUALSTYLE
  5
36
102
{ACAD_REACTORS
330
2A
102
}
330
2A
100
AcDbVisualStyle
  2
Brighten
 70
    12
 71
     2
 72
     2
 73
     0
 90
        0
 40
-0.6
 41
-30.0
 62
     5
 63
     7
421
 16777215
 74
     1
 91
        4
 64
     7
 65
   257
 75
     1
175
     1
 42
1.0
 92
        8
 66
     7
 43
1.0
 76
     1
 77
     6
 78
     2
 67
     7
 79
     5
170
     0
171
     0
290
     0
174
     0
 93
        1
 44
50.0
173
     0
291
     1
 45
0.0
1001
ACAD
1000
AcDbSavedByObjectVersion
1070
     0
  0
VISUALSTYLE
  5
3A
102
{ACAD_REACTORS
330
2A
102
}
330
2A
100
AcDbVisualStyle
  2
ColorChange
 70
    16
 71
     2
 72
     2
 73
     3
 90
        0
 40
-0.6
 41
-30.0
 62
     5
 63
     8
421
  8421504
 74
     1
 91
        4
 64
     7
 65
   257
 75
     1
175
     1
 42
1.0
 92
        8
 66
     8
424
  8421504
 43
1.0
 76
     1
 77
     6
 78
     2
 67
     7
 79
     5
170
     0
171
     0
290
     0
174
     0
 93
        1
 44
0.0
173
     0
291
     1
 45
0.0
1001
ACAD
1000
AcDbSavedByObjectVersion
1070
     0
  0
VISUALSTYLE
  5
34
102
{ACAD_REACTORS
330
2A
102
}
330
2A
100
AcDbVisualStyle
  2
Conceptual
 70
     9
 71
     3
 72
     2
 73
     0
 90
        0
 40
-0.6
 41
-30.0
 62
     5
 63
     7
421
 16777215
 74
     2
 91
        2
 64
     7
 65
   257
 75
     1
175
     1
 42
40.0
 92
        8
 66
     7
 43
1.0
 76
     1
 77
     6
 78
     2
 67
     7
 79
     3
170
     0
171
     0
290
     0
174
     0
 93
        1
 44
0.0
173
     0
291
     0
 45
0.0
1001
ACAD
1000
AcDbSavedByObjectVersion
1070
     0
  0
VISUALSTYLE
  5
35
102
{ACAD_REACTORS
330
2A
102
}
330
2A
100
AcDbVisualStyle
  2
Dim
 70
    11
 71
     2
 72
     2
 73
     0
 90
        0
 40
-0.6
 41
-30.0
 62
     5
 63
     7
421
 16777215
 74
     1
 91
        4
 64
     7
 65
   257
 75
     1
175
     1
 42
1.0
 92
        8
 66
     7
 43
1.0
 76
     1
 77
     6
 78
     2
 67
     7
 79
     5
170
     0
171
     0
290
     0
174
     0
 93
        1
 44
-50.0
173
     0
291
     1
 45
0.0
1001
ACAD
1000
AcDbSavedByObjectVersion
1070
     0
  0
VISUALSTYLE
  5
39
102
{ACAD_REACTORS
330
2A
102
}
330
2A
100
AcDbVisualStyle
  2
Facepattern
 70
    15
 71
     2
 72
     2
 73
     0
 90
        0
 40
-0.6
 41
-30.0
 62
     5
 63
     7
421
 16777215
 74
     1
 91
        4
 64
     7
 65
   257
 75
     1
175
     1
 42
1.0
 92
        8
 66
     7
 43
1.0
 76
     1
 77
     6
 78
     2
 67
     7
 79
     5
170
     0
171
     0
290
     0
174
     0
 93
        1
 44
0.0
173
     0
291
     1
 45
0.0
1001
ACAD
1000
AcDbSavedByObjectVersion
1070
     0
  0
VISUALSTYLE
  5
2B
102
{ACAD_REACTORS
330
2A
102
}
330
2A
100
AcDbVisualStyle
  2
Flat
 70
     0
 71
     2
 72
     1
 73
     1
 90
        2
 40
-0.6
 41
30.0
 62
     5
 63
     7
421
 16777215
 74
     0
 91
        4
 64
     7
 65
   257
 75
     1
175
     1
 42
1.0
 92
        8
 66
     7
 43
1.0
 76
     1
 77
     6
 78
     2
 67
     7
 79
     5
170
     0
171
     0
290
     0
174
     0
 93
       13
 44
0.0
173
     0
291
     1
 45
0.0
1001
ACAD
1000
AcDbSavedByObjectVersion
1070
     0
  0
VISUALSTYLE
  5
2C
102
{ACAD_REACTORS
330
2A
102
}
330
2A
100
AcDbVisualStyle
  2
FlatWithEdges
 70
     1
 71
     2
 72
     1
 73
     1
 90
        2
 40
-0.6
 41
30.0
 62
     5
 63
     7
421
 16777215
 74
     1
 91
        4
 64
     7
 65
   257
 75
     1
175
     1
 42
1.0
 92
        0
 66
   257
 43
1.0
 76
     1
 77
     6
 78
     2
 67
     7
 79
     5
170
     0
171
     0
290
     0
174
     0
 93
       13
 44
0.0
173
     0
291
     1
 45
0.0
1001
ACAD
1000
AcDbSavedByObjectVersion
1070
     0
  0
VISUALSTYLE
  5
2D
102
{ACAD_REACTORS
330
2A
102
}
330
2A
100
AcDbVisualStyle
  2
Gouraud
 70
     2
 71
     2
 72
     2
 73
     1
 90
        2
 40
-0.6
 41
30.0
 62
     5
 63
     7
421
 16777215
 74
     0
 91
        4
 64
     7
 65
   257
 75
     1
175
     1
 42
1.0
 92
        0
 66
     7
 43
1.0
 76
     1
 77
     6
 78
     2
 67
     7
 79
     5
170
     0
171
     0
290
     0
174
     0
 93
       13
 44
0.0
173
     0
291
     1
 45
0.0
1001
ACAD
1000
AcDbSavedByObjectVersion
1070
     0
  0
VISUALSTYLE
  5
2E
102
{ACAD_REACTORS
330
2A
102
}
330
2A
100
AcDbVisualStyle
  2
GouraudWithEdges
 70
     3
 71
     2
 72
     2
 73
     1
 90
        2
 40
-0.6
 41
30.0
 62
     5
 63
     7
421
 16777215
 74
     1
 91
        4
 64
     7
 65
   257
 75
     1
175
     1
 42
1.0
 92
        0
 66
   257
 43
1.0
 76
     1
 77
     6
 78
     2
 67
     7
 79
     5
170
     0
171
     0
290
     0
174
     0
 93
       13
 44
0.0
173
     0
291
     1
 45
0.0
1001
ACAD
1000
AcDbSavedByObjectVersion
1070
     0
  0
VISUALSTYLE
  5
38
102
{ACAD_REACTORS
330
2A
102
}
330
2A
100
AcDbVisualStyle
  2
Linepattern
 70
    14
 71
     2
 72
     2
 73
     0
 90
        0
 40
-0.6
 41
-30.0
 62
     5
 63
     7
421
 16777215
 74
     1
 91
        4
 64
     7
 65
   257
 75
     7
175
     7
 42
1.0
 92
        8
 66
     7
 43
1.0
 76
     1
 77
     6
 78
     2
 67
     7
 79
     5
170
     0
171
     0
290
     0
174
     0
 93
        1
 44
0.0
173
     0
291
     1
 45
0.0
1001
ACAD
1000
AcDbSavedByObjectVersion
1070
     0
  0
VISUALSTYLE
  5
33
102
{ACAD_REACTORS
330
2A
102
}
330
2A
100
AcDbVisualStyle
  2
Realistic
 70
     8
 71
     2
 72
     2
 73
     0
 90
        0
 40
-0.6
 41
-30.0
 62
     5
 63
     7
421
 16777215
 74
     1
 91
        0
 64
     7
 65
   257
 75
     1
175
     1
 42
1.0
 92
        8
 66
     8
424
  7895160
 43
1.0
 76
     1
 77
     6
 78
     2
 67
     7
 79
     5
170
     0
171
     0
290
     0
174
     0
 93
       13
 44
0.0
173
     0
291
     0
 45
0.0
1001
ACAD
1000
AcDbSavedByObjectVersion
1070
     0
  0
VISUALSTYLE
  5
37
102
{ACAD_REACTORS
330
2A
102
}
330
2A
100
AcDbVisualStyle
  2
Thicken
 70
    13
 71
     2
 72
     2
 73
     0
 90
        0
 40
-0.6
 41
-30.0
 62
     5
 63
     7
421
 16777215
 74
     1
 91
        4
 64
     7
 65
   257
 75
     1
175
     1
 42
1.0
 92
       12
 66
     7
 43
1.0
 76
     1
 77
     6
 78
     2
 67
     7
 79
     5
170
     0
171
     0
290
     0
174
     0
 93
        1
 44
0.0
173
     0
291
     1
 45
0.0
1001
ACAD
1000
AcDbSavedByObjectVersion
1070
     0
  0
ENDSEC
  0
EOF
