  0
SECTION
  2
HEADER
  9
$ACADVER
  1
AC1018
  9
$ACADMAINTVER
 70
     0
  9
$DWGCODEPAGE
  3
ANSI_1252
  9
$INSBASE
 10
0.0
 20
0.0
 30
0.0
  9
$EXTMIN
 10
1.000000000000000E+20
 20
1.000000000000000E+20
 30
1.000000000000000E+20
  9
$EXTMAX
 10
-1.000000000000000E+20
 20
-1.000000000000000E+20
 30
-1.000000000000000E+20
  9
$LIMMIN
 10
0.0
 20
0.0
  9
$LIMMAX
 10
12.0
 20
9.0
  9
$ORTHOMODE
 70
     0
  9
$REGENMODE
 70
     1
  9
$FILLMODE
 70
     1
  9
$QTEXTMODE
 70
     0
  9
$MIRRTEXT
 70
     1
  9
$LTSCALE
 40
1.0
  9
$ATTMODE
 70
     1
  9
$TEXTSIZE
 40
0.2
  9
$TRACEWID
 40
0.05
  9
$TEXTSTYLE
  7
Standard
  9
$CLAYER
  8
0
  9
$CELTYPE
  6
ByLayer
  9
$CECOLOR
 62
   256
  9
$CELTSCALE
 40
1.0
  9
$DISPSILH
 70
     0
  9
$DIMSCALE
 40
1.0
  9
$DIMASZ
 40
0.18
  9
$DIMEXO
 40
0.0625
  9
$DIMDLI
 40
0.38
  9
$DIMRND
 40
0.0
  9
$DIMDLE
 40
0.0
  9
$DIMEXE
 40
0.18
  9
$DIMTP
 40
0.0
  9
$DIMTM
 40
0.0
  9
$DIMTXT
 40
0.18
  9
$DIMCEN
 40
0.09
  9
$DIMTSZ
 40
0.0
  9
$DIMTOL
 70
     0
  9
$DIMLIM
 70
     0
  9
$DIMTIH
 70
     1
  9
$DIMTOH
 70
     1
  9
$DIMSE1
 70
     0
  9
$DIMSE2
 70
     0
  9
$DIMTAD
 70
     0
  9
$DIMZIN
 70
     0
  9
$DIMBLK
  1

  9
$DIMASO
 70
     1
  9
$DIMSHO
 70
     1
  9
$DIMPOST
  1

  9
$DIMAPOST
  1

  9
$DIMALT
 70
     0
  9
$DIMALTD
 70
     2
  9
$DIMALTF
 40
25.4
  9
$DIMLFAC
 40
1.0
  9
$DIMTOFL
 70
     0
  9
$DIMTVP
 40
0.0
  9
$DIMTIX
 70
     0
  9
$DIMSOXD
 70
     0
  9
$DIMSAH
 70
     0
  9
$DIMBLK1
  1

  9
$DIMBLK2
  1

  9
$DIMSTYLE
  2
Standard
  9
$DIMCLRD
 70
     0
  9
$DIMCLRE
 70
     0
  9
$DIMCLRT
 70
     0
  9
$DIMTFAC
 40
1.0
  9
$DIMGAP
 40
0.09
  9
$DIMJUST
 70
     0
  9
$DIMSD1
 70
     0
  9
$DIMSD2
 70
     0
  9
$DIMTOLJ
 70
     1
  9
$DIMTZIN
 70
     0
  9
$DIMALTZ
 70
     0
  9
$DIMALTTZ
 70
     0
  9
$DIMUPT
 70
     0
  9
$DIMDEC
 70
     4
  9
$DIMTDEC
 70
     4
  9
$DIMALTU
 70
     2
  9
$DIMALTTD
 70
     2
  9
$DIMTXSTY
  7
Standard
  9
$DIMAUNIT
 70
     0
  9
$DIMADEC
 70
     0
  9
$DIMALTRND
 40
0.0
  9
$DIMAZIN
 70
     0
  9
$DIMDSEP
 70
    46
  9
$DIMATFIT
 70
     3
  9
$DIMFRAC
 70
     0
  9
$DIMLDRBLK
  1

  9
$DIMLUNIT
 70
     2
  9
$DIMLWD
 70
    -2
  9
$DIMLWE
 70
    -2
  9
$DIMTMOVE
 70
     0
  9
$LUNITS
 70
     2
  9
$LUPREC
 70
     4
  9
$SKETCHINC
 40
0.1
  9
$FILLETRAD
 40
0.5
  9
$AUNITS
 70
     0
  9
$AUPREC
 70
     0
  9
$MENU
  1
.
  9
$ELEVATION
 40
0.0
  9
$PELEVATION
 40
0.0
  9
$THICKNESS
 40
0.0
  9
$LIMCHECK
 70
     0
  9
$CHAMFERA
 40
0.5
  9
$CHAMFERB
 40
0.5
  9
$CHAMFERC
 40
1.0
  9
$CHAMFERD
 40
0.0
  9
$SKPOLY
 70
     0
  9
$TDCREATE
 40
2455737.104677442
  9
$TDUCREATE
 40
2455737.354677442
  9
$TDUPDATE
 40
2455737.104677454
  9
$TDUUPDATE
 40
2455737.354677454
  9
$TDINDWG
 40
0.0000000116
  9
$TDUSRTIMER
 40
0.0000000116
  9
$USRTIMER
 70
     1
  9
$ANGBASE
 50
0.0
  9
$ANGDIR
 70
     0
  9
$PDMODE
 70
     0
  9
$PDSIZE
 40
0.0
  9
$PLINEWID
 40
0.0
  9
$SPLFRAME
 70
     0
  9
$SPLINETYPE
 70
     6
  9
$SPLINESEGS
 70
     8
  9
$HANDSEED
  5
56
  9
$SURFTAB1
 70
     6
  9
$SURFTAB2
 70
     6
  9
$SURFTYPE
 70
     6
  9
$SURFU
 70
     6
  9
$SURFV
 70
     6
  9
$UCSBASE
  2

  9
$UCSNAME
  2

  9
$UCSORG
 10
0.0
 20
0.0
 30
0.0
  9
$UCSXDIR
 10
1.0
 20
0.0
 30
0.0
  9
$UCSYDIR
 10
0.0
 20
1.0
 30
0.0
  9
$UCSORTHOREF
  2

  9
$UCSORTHOVIEW
 70
     0
  9
$UCSORGTOP
 10
0.0
 20
0.0
 30
0.0
  9
$UCSORGBOTTOM
 10
0.0
 20
0.0
 30
0.0
  9
$UCSORGLEFT
 10
0.0
 20
0.0
 30
0.0
  9
$UCSORGRIGHT
 10
0.0
 20
0.0
 30
0.0
  9
$UCSORGFRONT
 10
0.0
 20
0.0
 30
0.0
  9
$UCSORGBACK
 10
0.0
 20
0.0
 30
0.0
  9
$PUCSBASE
  2

  9
$PUCSNAME
  2

  9
$PUCSORG
 10
0.0
 20
0.0
 30
0.0
  9
$PUCSXDIR
 10
1.0
 20
0.0
 30
0.0
  9
$PUCSYDIR
 10
0.0
 20
1.0
 30
0.0
  9
$PUCSORTHOREF
  2

  9
$PUCSORTHOVIEW
 70
     0
  9
$PUCSORGTOP
 10
0.0
 20
0.0
 30
0.0
  9
$PUCSORGBOTTOM
 10
0.0
 20
0.0
 30
0.0
  9
$PUCSORGLEFT
 10
0.0
 20
0.0
 30
0.0
  9
$PUCSORGRIGHT
 10
0.0
 20
0.0
 30
0.0
  9
$PUCSORGFRONT
 10
0.0
 20
0.0
 30
0.0
  9
$PUCSORGBACK
 10
0.0
 20
0.0
 30
0.0
  9
$USERI1
 70
     0
  9
$USERI2
 70
     0
  9
$USERI3
 70
     0
  9
$USERI4
 70
     0
  9
$USERI5
 70
     0
  9
$USERR1
 40
0.0
  9
$USERR2
 40
0.0
  9
$USERR3
 40
0.0
  9
$USERR4
 40
0.0
  9
$USERR5
 40
0.0
  9
$WORLDVIEW
 70
     1
  9
$SHADEDGE
 70
     3
  9
$SHADEDIF
 70
    70
  9
$TILEMODE
 70
     1
  9
$MAXACTVP
 70
    64
  9
$PINSBASE
 10
0.0
 20
0.0
 30
0.0
  9
$PLIMCHECK
 70
     0
  9
$PEXTMIN
 10
1.000000000000000E+20
 20
1.000000000000000E+20
 30
1.000000000000000E+20
  9
$PEXTMAX
 10
-1.000000000000000E+20
 20
-1.000000000000000E+20
 30
-1.000000000000000E+20
  9
$PLIMMIN
 10
0.0
 20
0.0
  9
$PLIMMAX
 10
12.0
 20
9.0
  9
$UNITMODE
 70
     0
  9
$VISRETAIN
 70
     1
  9
$PLINEGEN
 70
     0
  9
$PSLTSCALE
 70
     1
  9
$TREEDEPTH
 70
  3020
  9
$CMLSTYLE
  2
Standard
  9
$CMLJUST
 70
     0
  9
$CMLSCALE
 40
1.0
  9
$PROXYGRAPHICS
 70
     1
  9
$MEASUREMENT
 70
     0
  9
$CELWEIGHT
370
    -1
  9
$ENDCAPS
280
     0
  9
$JOINSTYLE
280
     0
  9
$LWDISPLAY
290
     1
  9
$INSUNITS
 70
     1
  9
$HYPERLINKBASE
  1

  9
$STYLESHEET
  1

  9
$XEDIT
290
     1
  9
$CEPSNTYPE
380
     0
  9
$PSTYLEMODE
290
     1
  9
$FINGERPRINTGUID
  2
{BEA5F6CD-8633-4AB5-99C8-7DE59016A437}
  9
$VERSIONGUID
  2
{FAEB1C32-E019-11D5-929B-00C0DF256EC4}
  9
$EXTNAMES
290
     1
  9
$PSVPSCALE
 40
0.0
  9
$OLESTARTUP
290
     0
  9
$SORTENTS
280
   127
  9
$INDEXCTL
280
     0
  9
$HIDETEXT
280
     1
  9
$XCLIPFRAME
290
     0
  9
$HALOGAP
280
     0
  9
$OBSCOLOR
 70
   257
  9
$OBSLTYPE
280
     0
  9
$INTERSECTIONDISPLAY
280
     0
  9
$INTERSECTIONCOLOR
 70
   257
  9
$DIMASSOC
280
     2
  9
$PROJECTNAME
  1

  0
ENDSEC
  0
SECTION
  2
CLASSES
  0
CLASS
  1
ACDBDICTIONARYWDFLT
  2
AcDbDictionaryWithDefault
  3
ObjectDBX Classes
 90
        0
 91
        3
280
     0
281
     0
  0
CLASS
  1
VISUALSTYLE
  2
AcDbVisualStyle
  3
ObjectDBX Classes
 90
     4095
 91
        3
280
     0
281
     0
  0
ENDSEC
  0
SECTION
  2
TABLES
  0
TABLE
  2
VPORT
  5
8
330
0
100
AcDbSymbolTable
 70
     1
  0
VPORT
  5
29
330
8
100
AcDbSymbolTableRecord
100
AcDbViewportTableRecord
  2
*Active
 70
     0
 10
0.0
 20
0.0
 11
1.0
 21
1.0
 12
0.0
 22
0.0
 13
0.0
 23
0.0
 14
0.5
 24
0.5
 15
0.5
 25
0.5
 16
0.0
 26
0.0
 36
1.0
 17
50.7999999873
 27
37.70140244283159
 37
0.0
 40
75.40280488566319
 41
1.347429981267419
 42
50.0
 43
0.0
 44
0.0
 50
0.0
 51
0.0
 71
     0
 72
   100
 73
     1
 74
     3
 75
     0
 76
     0
 77
     0
 78
     0
281
     0
 65
     1
110
0.0
120
0.0
130
0.0
111
1.0
121
0.0
131
0.0
112
0.0
122
1.0
132
0.0
 79
     0
146
0.0
  0
ENDTAB
  0
TABLE
  2
LTYPE
  5
5
330
0
100
AcDbSymbolTable
 70
     1
  0
LTYPE
  5
14
330
5
100
AcDbSymbolTableRecord
100
AcDbLinetypeTableRecord
  2
ByBlock
 70
     0
  3

 72
    65
 73
     0
 40
0.0
  0
LTYPE
  5
15
330
5
100
AcDbSymbolTableRecord
100
AcDbLinetypeTableRecord
  2
ByLayer
 70
     0
  3

 72
    65
 73
     0
 40
0.0
  0
LTYPE
  5
16
330
5
100
AcDbSymbolTableRecord
100
AcDbLinetypeTableRecord
  2
Continuous
 70
     0
  3
Solid line
 72
    65
 73
     0
 40
0.0
  0
ENDTAB
  0
TABLE
  2
LAYER
  5
2
330
0
100
AcDbSymbolTable
 70
     2
  0
LAYER
  5
10
330
2
100
AcDbSymbolTableRecord
100
AcDbLayerTableRecord
  2
0
 70
     0
 62
     7
  6
Continuous
370
    -3
390
F
  0
LAYER
  5
3B
330
2
100
AcDbSymbolTableRecord
100
AcDbLayerTableRecord
  2
Layer 1
 70
     0
 62
     7
  6
Continuous
370
    -3
390
F
  0
ENDTAB
  0
TABLE
  2
STYLE
  5
3
330
0
100
AcDbSymbolTable
 70
     1
  0
STYLE
  5
11
330
3
100
AcDbSymbolTableRecord
100
AcDbTextStyleTableRecord
  2
Standard
 70
     0
 40
0.0
 41
1.0
 50
0.0
 71
     0
 42
0.2
  3
txt
  4

  0
ENDTAB
  0
TABLE
  2
VIEW
  5
6
330
0
100
AcDbSymbolTable
 70
     0
  0
ENDTAB
  0
TABLE
  2
UCS
  5
7
330
0
100
AcDbSymbolTable
 70
     0
  0
ENDTAB
  0
TABLE
  2
APPID
  5
9
330
0
100
AcDbSymbolTable
 70
     1
  0
APPID
  5
12
330
9
100
AcDbSymbolTableRecord
100
AcDbRegAppTableRecord
  2
ACAD
 70
     0
  0
ENDTAB
  0
TABLE
  2
DIMSTYLE
  5
A
330
0
100
AcDbSymbolTable
 70
     1
100
AcDbDimStyleTable
  0
DIMSTYLE
105
27
330
A
100
AcDbSymbolTableRecord
100
AcDbDimStyleTableRecord
  2
Standard
 70
     0
340
11
  0
ENDTAB
  0
TABLE
  2
BLOCK_RECORD
  5
1
330
0
100
AcDbSymbolTable
 70
     1
  0
BLOCK_RECORD
  5
1F
330
1
100
AcDbSymbolTableRecord
100
AcDbBlockTableRecord
  2
*Model_Space
340
22
  0
BLOCK_RECORD
  5
1B
330
1
100
AcDbSymbolTableRecord
100
AcDbBlockTableRecord
  2
*Paper_Space
340
1E
  0
BLOCK_RECORD
  5
23
330
1
100
AcDbSymbolTableRecord
100
AcDbBlockTableRecord
  2
*Paper_Space0
340
26
  0
ENDTAB
  0
ENDSEC
  0
SECTION
  2
BLOCKS
  0
BLOCK
  5
20
330
1F
100
AcDbEntity
  8
0
100
AcDbBlockBegin
  2
*Model_Space
 70
     0
 71
     0
 10
0.0
 20
0.0
 30
0.0
  3
*Model_Space
  1

  0
ENDBLK
  5
21
330
1F
100
AcDbEntity
  8
0
100
AcDbBlockEnd
  0
BLOCK
  5
1C
330
1B
100
AcDbEntity
 67
     1
  8
0
100
AcDbBlockBegin
  2
*Paper_Space
 70
     0
 71
     0
 10
0.0
 20
0.0
 30
0.0
  3
*Paper_Space
  1

  0
ENDBLK
  5
1D
330
1B
100
AcDbEntity
 67
     1
  8
0
100
AcDbBlockEnd
  0
BLOCK
  5
24
330
23
100
AcDbEntity
  8
0
100
AcDbBlockBegin
  2
*Paper_Space0
 70
     0
 71
     0
 10
0.0
 20
0.0
 30
0.0
  3
*Paper_Space0
  1

  0
ENDBLK
  5
25
330
23
100
AcDbEntity
  8
0
100
AcDbBlockEnd
  0
ENDSEC
  0
SECTION
  2
ENTITIES
  0
SPLINE
  5
3C
330
1F
100
AcDbEntity
  8
Layer 1
370
     0
100
AcDbSpline
210
0.0
220
0.0
230
1.0
 70
    11
 71
     3
 72
    17
 73
    13
 74
     0
 42
0.0000000001
 43
0.0000000001
 40
0.0
 40
0.0
 40
0.0
 40
0.0
 40
1.0
 40
1.0
 40
1.0
 40
2.0
 40
2.0
 40
2.0
 40
3.0
 40
3.0
 40
3.0
 40
4.0
 40
4.0
 40
4.0
 40
4.0
 10
26.75788437916123
 20
16.65772569028001
 30
0.0
 10
24.33839381987026
 20
16.65772569028001
 30
0.0
 10
22.37710096011753
 20
14.69643283052728
 30
0.0
 10
22.37710096011753
 20
12.27694227123632
 30
0.0
 10
22.37710096011753
 20
9.85676269284831
 30
0.0
 10
24.33839381987026
 20
7.895469833095578
 30
0.0
 10
26.75788437916123
 20
7.895469833095578
 30
0.0
 10
29.17737493845219
 20
7.895469833095578
 30
0.0
 10
31.13866779820492
 20
9.85676269284831
 30
0.0
 10
31.13866779820492
 20
12.27694227123632
 30
0.0
 10
31.13866779820492
 20
14.69643283052728
 30
0.0
 10
29.17737493845219
 20
16.65772569028001
 30
0.0
 10
26.75788437916123
 20
16.65772569028001
 30
0.0
  0
HATCH
  5
3D
330
1F
100
AcDbEntity
  8
Layer 1
 62
   134
420
   100246
100
AcDbHatch
 10
0.0
 20
0.0
 30
0.0
210
0.0
220
0.0
230
1.0
  2
SOLID
 70
     1
 71
     0
 91
        1
 92
        1
 93
        1
 72
     4
 94
        3
 73
     0
 74
     1
 95
       17
 96
       13
 40
0.0
 40
0.0
 40
0.0
 40
0.0
 40
1.0
 40
1.0
 40
1.0
 40
2.0
 40
2.0
 40
2.0
 40
3.0
 40
3.0
 40
3.0
 40
4.0
 40
4.0
 40
4.0
 40
4.0
 10
26.75788437916123
 20
16.65772569028001
 10
24.33839381987026
 20
16.65772569028001
 10
22.37710096011753
 20
14.69643283052728
 10
22.37710096011753
 20
12.27694227123632
 10
22.37710096011753
 20
9.85676269284831
 10
24.33839381987026
 20
7.895469833095578
 10
26.75788437916123
 20
7.895469833095578
 10
29.17737493845219
 20
7.895469833095578
 10
31.13866779820492
 20
9.85676269284831
 10
31.13866779820492
 20
12.27694227123632
 10
31.13866779820492
 20
14.69643283052728
 10
29.17737493845219
 20
16.65772569028001
 10
26.75788437916123
 20
16.65772569028001
 97
        0
 75
     2
 76
     1
 98
        0
  0
SPLINE
  5
3E
330
1F
100
AcDbEntity
  8
Layer 1
370
     0
100
AcDbSpline
210
0.0
220
0.0
230
1.0
 70
    11
 71
     3
 72
    86
 73
    82
 74
     0
 42
0.0000000001
 43
0.0000000001
 40
0.0
 40
0.0
 40
0.0
 40
0.0
 40
1.0
 40
1.0
 40
1.0
 40
2.0
 40
2.0
 40
2.0
 40
3.0
 40
3.0
 40
3.0
 40
4.0
 40
4.0
 40
4.0
 40
5.0
 40
5.0
 40
5.0
 40
6.0
 40
6.0
 40
6.0
 40
7.0
 40
7.0
 40
7.0
 40
8.0
 40
8.0
 40
8.0
 40
9.0
 40
9.0
 40
9.0
 40
10.0
 40
10.0
 40
10.0
 40
11.0
 40
11.0
 40
11.0
 40
12.0
 40
12.0
 40
12.0
 40
13.0
 40
13.0
 40
13.0
 40
14.0
 40
14.0
 40
14.0
 40
15.0
 40
15.0
 40
15.0
 40
16.0
 40
16.0
 40
16.0
 40
17.0
 40
17.0
 40
17.0
 40
18.0
 40
18.0
 40
18.0
 40
19.0
 40
19.0
 40
19.0
 40
20.0
 40
20.0
 40
20.0
 40
21.0
 40
21.0
 40
21.0
 40
22.0
 40
22.0
 40
22.0
 40
23.0
 40
23.0
 40
23.0
 40
24.0
 40
24.0
 40
24.0
 40
25.0
 40
25.0
 40
25.0
 40
26.0
 40
26.0
 40
26.0
 40
27.0
 40
27.0
 40
27.0
 40
27.0
 10
96.62666013209333
 20
12.27625325213927
 30
0.0
 10
96.62666013209333
 20
13.50959743585871
 30
0.0
 10
96.442692033181
 20
14.70056694510958
 30
0.0
 10
96.10335012788389
 20
15.8247016019466
 30
0.0
 10
99.20462508370579
 20
16.29702419297436
 30
0.0
 10
101.1004611292388
 20
16.80517577704871
 30
0.0
 10
101.2268961335474
 20
17.34708929687851
 30
0.0
 10
102.4126979995704
 20
22.42309298484562
 30
0.0
 10
100.5006700052568
 20
28.12369248428852
 30
0.0
 10
99.27042640747406
 20
32.75872395014365
 30
0.0
 10
97.84415687658063
 20
38.13186712371356
 30
0.0
 10
97.35702037496631
 20
41.81277939492875
 30
0.0
 10
90.90228947380221
 20
42.52367484831006
 30
0.0
 10
85.53689776507412
 20
43.11433646925614
 30
0.0
 10
79.10731606095234
 20
40.74376626585573
 30
0.0
 10
74.1288085752178
 20
41.8355170251314
 30
0.0
 10
69.44761282986032
 20
42.86232773451012
 30
0.0
 10
66.768017561433
 20
63.80316838682699
 30
0.0
 10
65.73345538721247
 20
69.00715737207113
 30
0.0
 10
64.29857311760591
 20
76.22928329257462
 30
0.0
 10
60.14137639555494
 20
75.7021836833314
 30
0.0
 10
53.33076713076454
 20
75.0541612225559
 30
0.0
 10
47.01211750126781
 20
74.45316431515407
 30
0.0
 10
40.63507350329609
 20
74.17359481652605
 30
0.0
 10
34.30229898230984
 20
73.36055228200709
 30
0.0
 10
27.33235405132664
 20
72.46672225835901
 30
0.0
 10
26.84142794467853
 20
67.36488035425253
 30
0.0
 10
27.16475015596923
 20
60.95648598736505
 30
0.0
 10
27.56007486290165
 20
53.12492267552086
 30
0.0
 10
27.57144367800298
 20
45.87316893384421
 30
0.0
 10
26.77752142342715
 20
38.19318982335101
 30
0.0
 10
24.00542534122087
 20
37.92843423530956
 30
0.0
 10
10.08982340242546
 20
36.0646375777894
 30
0.0
 10
10.08982340242546
 20
36.0646375777894
 30
0.0
 10
10.08982340242546
 20
36.0646375777894
 30
0.0
 10
10.49858398175035
 20
28.82476941553686
 30
0.0
 10
10.68237982588843
 20
22.09511989464983
 30
0.0
 10
10.68237982588843
 20
22.09511989464983
 30
0.0
 10
0.0
 20
22.09511989464983
 30
0.0
 10
0.0
 20
22.09511989464983
 30
0.0
 10
0.0
 20
22.09511989464983
 30
0.0
 10
0.0
 20
12.40544433283614
 30
0.0
 10
0.0
 20
12.40544433283614
 30
0.0
 10
0.0
 20
12.40544433283614
 30
0.0
 10
10.72113715009749
 20
13.62397460596901
 30
0.0
 10
10.72113715009749
 20
13.62397460596901
 30
0.0
 10
10.68151855201712
 20
12.63213161576558
 30
0.0
 10
10.61606173779737
 20
11.84768337377419
 30
0.0
 10
10.51701524259644
 20
11.35916883396576
 30
0.0
 10
11.22153726933003
 20
11.15211859530225
 30
0.0
 10
12.69931097772795
 20
11.07494845643265
 30
0.0
 10
14.54088676936825
 20
11.07460394688413
 30
0.0
 10
14.82390136348153
 20
8.165565319139164
 30
0.0
 10
16.12287461619498
 20
5.548326278994863
 30
0.0
 10
18.07727728497721
 20
3.59599066750378
 30
0.0
 10
20.29574652270384
 20
1.37562662726026
 30
0.0
 10
23.37101100761211
 20
-0.000344509548525
 30
0.0
 10
26.75788437916123
 20
0.0
 30
0.0
 10
30.1449300054846
 20
-0.000344509548525
 30
0.0
 10
33.22019449039287
 20
1.37562662726026
 30
0.0
 10
35.43849147334524
 20
3.59599066750378
 30
0.0
 10
37.62216524667085
 20
5.777425128763977
 30
0.0
 10
38.98625080405552
 20
8.789816621066436
 30
0.0
 10
39.0300035167182
 20
12.11088866884728
 30
0.0
 10
47.73231471245929
 20
12.45712076511489
 30
0.0
 10
60.4717610525904
 20
12.99765624675059
 30
0.0
 10
72.16028101494605
 20
13.71182454084288
 30
0.0
 10
72.10550399673058
 20
13.2405354784607
 30
0.0
 10
72.07380911826627
 20
12.7620117155595
 30
0.0
 10
72.07380911826627
 20
12.27625325213927
 30
0.0
 10
72.07346460871774
 20
8.889379880590155
 30
0.0
 10
73.44943574552653
 20
5.813943140907625
 30
0.0
 10
75.66979978577005
 20
3.59599066750378
 30
0.0
 10
77.88809676872242
 20
1.37562662726026
 30
0.0
 10
80.96318899885642
 20
-0.000344509548525
 30
0.0
 10
84.35040687995406
 20
0.0
 30
0.0
 10
87.73728025150318
 20
-0.000344509548525
 30
0.0
 10
90.81271699118571
 20
1.37562662726026
 30
0.0
 10
93.03101397413809
 20
3.59599066750378
 30
0.0
 10
95.25068899528455
 20
5.813943140907625
 30
0.0
 10
96.62700464164186
 20
8.889379880590155
 30
0.0
 10
96.62666013209333
 20
12.27625325213927
 30
0.0
  0
SPLINE
  5
3F
330
1F
100
AcDbEntity
  8
Layer 1
370
     0
100
AcDbSpline
210
0.0
220
0.0
230
1.0
 70
    11
 71
     3
 72
    29
 73
    25
 74
     0
 42
0.0000000001
 43
0.0000000001
 40
0.0
 40
0.0
 40
0.0
 40
0.0
 40
1.0
 40
1.0
 40
1.0
 40
2.0
 40
2.0
 40
2.0
 40
3.0
 40
3.0
 40
3.0
 40
4.0
 40
4.0
 40
4.0
 40
5.0
 40
5.0
 40
5.0
 40
6.0
 40
6.0
 40
6.0
 40
7.0
 40
7.0
 40
7.0
 40
8.0
 40
8.0
 40
8.0
 40
8.0
 10
84.35040687995406
 20
1.963704426592407
 30
0.0
 10
81.49959036590982
 20
1.964393445689457
 30
0.0
 10
78.9274820766223
 20
3.116777885505528
 30
0.0
 10
77.05817326632574
 20
4.984364148059464
 30
0.0
 10
75.1905870037718
 20
6.853672958356026
 30
0.0
 10
74.03820256395574
 20
9.425781247643554
 30
0.0
 10
74.03785805440721
 20
12.27625325213927
 30
0.0
 10
74.03820256395574
 20
15.12706976618351
 30
0.0
 10
75.1905870037718
 20
17.69917805547104
 30
0.0
 10
77.05817326632574
 20
19.5684868657676
 30
0.0
 10
78.9274820766223
 20
21.43607312832154
 30
0.0
 10
81.49959036590982
 20
22.58845756813761
 30
0.0
 10
84.35040687995406
 20
22.58880207768613
 30
0.0
 10
87.20087888444978
 20
22.58845756813761
 30
0.0
 10
89.7729871737373
 20
21.43607312832154
 30
0.0
 10
91.64229598403388
 20
19.5684868657676
 30
0.0
 10
93.50988224658781
 20
17.69917805547104
 30
0.0
 10
94.66226668640388
 20
15.12706976618351
 30
0.0
 10
94.66295570550093
 20
12.27625325213927
 30
0.0
 10
94.66226668640388
 20
9.425781247643554
 30
0.0
 10
93.50988224658781
 20
6.853672958356026
 30
0.0
 10
91.64229598403388
 20
4.984364148059464
 30
0.0
 10
89.7729871737373
 20
3.116777885505528
 30
0.0
 10
87.20087888444978
 20
1.964393445689457
 30
0.0
 10
84.35040687995406
 20
1.963704426592407
 30
0.0
  0
SPLINE
  5
40
330
1F
100
AcDbEntity
  8
Layer 1
370
     0
100
AcDbSpline
210
0.0
220
0.0
230
1.0
 70
    11
 71
     3
 72
    29
 73
    25
 74
     0
 42
0.0000000001
 43
0.0000000001
 40
0.0
 40
0.0
 40
0.0
 40
0.0
 40
1.0
 40
1.0
 40
1.0
 40
2.0
 40
2.0
 40
2.0
 40
3.0
 40
3.0
 40
3.0
 40
4.0
 40
4.0
 40
4.0
 40
5.0
 40
5.0
 40
5.0
 40
6.0
 40
6.0
 40
6.0
 40
7.0
 40
7.0
 40
7.0
 40
8.0
 40
8.0
 40
8.0
 40
8.0
 10
34.0499457380153
 20
4.984364148059464
 30
0.0
 10
32.18046467294447
 20
3.116777885505528
 30
0.0
 10
29.60870089320547
 20
1.964393445689457
 30
0.0
 10
26.75788437916123
 20
1.963704426592407
 30
0.0
 10
23.90724011989125
 20
1.964393445689457
 30
0.0
 10
21.33513183060372
 20
3.116777885505528
 30
0.0
 10
19.46582302030716
 20
4.984364148059464
 30
0.0
 10
17.59823675775322
 20
6.853672958356026
 30
0.0
 10
16.44585231793715
 20
9.425781247643554
 30
0.0
 10
16.44550780838862
 20
12.27625325213927
 30
0.0
 10
16.44585231793715
 20
15.12706976618351
 30
0.0
 10
17.59823675775322
 20
17.69917805547104
 30
0.0
 10
19.46582302030716
 20
19.5684868657676
 30
0.0
 10
21.33513183060372
 20
21.43607312832154
 30
0.0
 10
23.90724011989125
 20
22.58845756813761
 30
0.0
 10
26.75788437916123
 20
22.58880207768613
 30
0.0
 10
29.60870089320547
 20
22.58845756813761
 30
0.0
 10
32.18046467294447
 20
21.43607312832154
 30
0.0
 10
34.0499457380153
 20
19.5684868657676
 30
0.0
 10
35.91753200056923
 20
17.69917805547104
 30
0.0
 10
37.0699164403853
 20
15.12706976618351
 30
0.0
 10
37.07043320470809
 20
12.27625325213927
 30
0.0
 10
37.0699164403853
 20
9.425781247643554
 30
0.0
 10
35.91753200056923
 20
6.853672958356026
 30
0.0
 10
34.0499457380153
 20
4.984364148059464
 30
0.0
  0
SPLINE
  5
41
330
1F
100
AcDbEntity
  8
Layer 1
370
     0
100
AcDbSpline
210
0.0
220
0.0
230
1.0
 70
    11
 71
     3
 72
    17
 73
    13
 74
     0
 42
0.0000000001
 43
0.0000000001
 40
0.0
 40
0.0
 40
0.0
 40
0.0
 40
1.0
 40
1.0
 40
1.0
 40
2.0
 40
2.0
 40
2.0
 40
3.0
 40
3.0
 40
3.0
 40
4.0
 40
4.0
 40
4.0
 40
4.0
 10
1.96387668136667
 20
20.13141546805743
 30
0.0
 10
1.96387668136667
 20
20.13141546805743
 30
0.0
 10
10.72940537926209
 20
20.13141546805743
 30
0.0
 10
10.72940537926209
 20
20.13141546805743
 30
0.0
 10
10.76265055069475
 20
18.50429687037393
 30
0.0
 10
10.77780897082985
 20
16.9567599783997
 30
0.0
 10
10.76575113663148
 20
15.60559352908471
 30
0.0
 10
10.76575113663148
 20
15.60559352908471
 30
0.0
 10
1.96387668136667
 20
14.60513780016816
 30
0.0
 10
1.96387668136667
 20
14.60513780016816
 30
0.0
 10
1.96387668136667
 20
14.60513780016816
 30
0.0
 10
1.96387668136667
 20
20.13141546805743
 30
0.0
 10
1.96387668136667
 20
20.13141546805743
 30
0.0
  0
POLYLINE
  5
42
330
1F
100
AcDbEntity
  8
Layer 1
370
     0
100
AcDb2dPolyline
 66
     1
 10
0.0
 20
0.0
 30
0.0
  0
VERTEX
  5
43
330
42
100
AcDbEntity
  8
Layer 1
370
     0
100
AcDbVertex
100
AcDb2dVertex
 10
31.17242973396037
 20
38.87101236007391
 30
0.0
  0
VERTEX
  5
44
330
42
100
AcDbEntity
  8
Layer 1
370
     0
100
AcDbVertex
100
AcDb2dVertex
 10
31.17242973396037
 20
67.67976208160437
 30
0.0
  0
VERTEX
  5
45
330
42
100
AcDbEntity
  8
Layer 1
370
     0
100
AcDbVertex
100
AcDb2dVertex
 10
45.57689072211272
 20
69.27966442495439
 30
0.0
  0
VERTEX
  5
46
330
42
100
AcDbEntity
  8
Layer 1
370
     0
100
AcDbVertex
100
AcDb2dVertex
 10
51.2867919793658
 20
40.34930283279462
 30
0.0
  0
VERTEX
  5
47
330
42
100
AcDbEntity
  8
Layer 1
370
     0
100
AcDbVertex
100
AcDb2dVertex
 10
31.17242973396037
 20
38.87101236007391
 30
0.0
  0
SEQEND
  5
48
330
42
100
AcDbEntity
  8
Layer 1
370
     0
  0
POLYLINE
  5
49
330
1F
100
AcDbEntity
  8
Layer 1
370
     0
100
AcDb2dPolyline
 66
     1
 10
0.0
 20
0.0
 30
0.0
  0
VERTEX
  5
4A
330
49
100
AcDbEntity
  8
Layer 1
370
     0
100
AcDbVertex
100
AcDb2dVertex
 10
54.59132756881745
 20
16.65772569028001
 30
0.0
  0
VERTEX
  5
4B
330
49
100
AcDbEntity
  8
Layer 1
370
     0
100
AcDbVertex
100
AcDb2dVertex
 10
53.0641167402062
 20
16.65772569028001
 30
0.0
  0
VERTEX
  5
4C
330
49
100
AcDbEntity
  8
Layer 1
370
     0
100
AcDbVertex
100
AcDb2dVertex
 10
53.0641167402062
 20
35.58404675759704
 30
0.0
  0
VERTEX
  5
4D
330
49
100
AcDbEntity
  8
Layer 1
370
     0
100
AcDbVertex
100
AcDb2dVertex
 10
54.59132756881745
 20
35.58404675759704
 30
0.0
  0
VERTEX
  5
4E
330
49
100
AcDbEntity
  8
Layer 1
370
     0
100
AcDbVertex
100
AcDb2dVertex
 10
54.59132756881745
 20
16.65772569028001
 30
0.0
  0
SEQEND
  5
4F
330
49
100
AcDbEntity
  8
Layer 1
370
     0
  0
SPLINE
  5
50
330
1F
100
AcDbEntity
  8
Layer 1
370
     0
100
AcDbSpline
210
0.0
220
0.0
230
1.0
 70
    11
 71
     3
 72
    11
 73
     7
 74
     0
 42
0.0000000001
 43
0.0000000001
 40
0.0
 40
0.0
 40
0.0
 40
0.0
 40
1.0
 40
1.0
 40
1.0
 40
2.0
 40
2.0
 40
2.0
 40
2.0
 10
64.24104002300224
 20
32.96301811241897
 30
0.0
 10
62.90503199382236
 20
32.45348849015052
 30
0.0
 10
61.23484970257324
 20
32.47898219674137
 30
0.0
 10
59.78963214651093
 20
32.41662596845835
 30
0.0
 10
54.67297633181787
 20
32.18718260914071
 30
0.0
 10
65.02342120770248
 20
37.56377087819587
 30
0.0
 10
64.24104002300224
 20
32.96301811241897
 30
0.0
  0
SPLINE
  5
51
330
1F
100
AcDbEntity
  8
Layer 1
370
     0
100
AcDbSpline
210
0.0
220
0.0
230
1.0
 70
    11
 71
     3
 72
    17
 73
    13
 74
     0
 42
0.0000000001
 43
0.0000000001
 40
0.0
 40
0.0
 40
0.0
 40
0.0
 40
1.0
 40
1.0
 40
1.0
 40
2.0
 40
2.0
 40
2.0
 40
3.0
 40
3.0
 40
3.0
 40
4.0
 40
4.0
 40
4.0
 40
4.0
 10
55.84465330635134
 20
41.271554894196
 30
0.0
 10
55.84465330635134
 20
41.271554894196
 30
0.0
 10
51.57859156696647
 20
69.27966442495439
 30
0.0
 10
51.57859156696647
 20
69.27966442495439
 30
0.0
 10
51.57859156696647
 20
69.27966442495439
 30
0.0
 10
60.18168401273236
 20
70.88077255172425
 30
0.0
 10
62.18190645146841
 20
70.48096922066101
 30
0.0
 10
64.18212889020447
 20
70.0809936348235
 30
0.0
 10
68.58358288215966
 20
42.2713216040155
 30
0.0
 10
68.58358288215966
 20
42.2713216040155
 30
0.0
 10
68.58358288215966
 20
42.2713216040155
 30
0.0
 10
55.84465330635134
 20
41.271554894196
 30
0.0
 10
55.84465330635134
 20
41.271554894196
 30
0.0
  0
HATCH
  5
52
330
1F
100
AcDbEntity
  8
Layer 1
 62
   134
420
   100246
100
AcDbHatch
 10
0.0
 20
0.0
 30
0.0
210
0.0
220
0.0
230
1.0
  2
SOLID
 70
     1
 71
     0
 91
        8
 92
        1
 93
        1
 72
     4
 94
        3
 73
     0
 74
     1
 95
       86
 96
       82
 40
0.0
 40
0.0
 40
0.0
 40
0.0
 40
1.0
 40
1.0
 40
1.0
 40
2.0
 40
2.0
 40
2.0
 40
3.0
 40
3.0
 40
3.0
 40
4.0
 40
4.0
 40
4.0
 40
5.0
 40
5.0
 40
5.0
 40
6.0
 40
6.0
 40
6.0
 40
7.0
 40
7.0
 40
7.0
 40
8.0
 40
8.0
 40
8.0
 40
9.0
 40
9.0
 40
9.0
 40
10.0
 40
10.0
 40
10.0
 40
11.0
 40
11.0
 40
11.0
 40
12.0
 40
12.0
 40
12.0
 40
13.0
 40
13.0
 40
13.0
 40
14.0
 40
14.0
 40
14.0
 40
15.0
 40
15.0
 40
15.0
 40
16.0
 40
16.0
 40
16.0
 40
17.0
 40
17.0
 40
17.0
 40
18.0
 40
18.0
 40
18.0
 40
19.0
 40
19.0
 40
19.0
 40
20.0
 40
20.0
 40
20.0
 40
21.0
 40
21.0
 40
21.0
 40
22.0
 40
22.0
 40
22.0
 40
23.0
 40
23.0
 40
23.0
 40
24.0
 40
24.0
 40
24.0
 40
25.0
 40
25.0
 40
25.0
 40
26.0
 40
26.0
 40
26.0
 40
27.0
 40
27.0
 40
27.0
 40
27.0
 10
96.62666013209333
 20
12.27625325213927
 10
96.62666013209333
 20
13.50959743585871
 10
96.442692033181
 20
14.70056694510958
 10
96.10335012788389
 20
15.8247016019466
 10
99.20462508370579
 20
16.29702419297436
 10
101.1004611292388
 20
16.80517577704871
 10
101.2268961335474
 20
17.34708929687851
 10
102.4126979995704
 20
22.42309298484562
 10
100.5006700052568
 20
28.12369248428852
 10
99.27042640747406
 20
32.75872395014365
 10
97.84415687658063
 20
38.13186712371356
 10
97.35702037496631
 20
41.81277939492875
 10
90.90228947380221
 20
42.52367484831006
 10
85.53689776507412
 20
43.11433646925614
 10
79.10731606095234
 20
40.74376626585573
 10
74.1288085752178
 20
41.8355170251314
 10
69.44761282986032
 20
42.86232773451012
 10
66.768017561433
 20
63.80316838682699
 10
65.73345538721247
 20
69.00715737207113
 10
64.29857311760591
 20
76.22928329257462
 10
60.14137639555494
 20
75.7021836833314
 10
53.33076713076454
 20
75.0541612225559
 10
47.01211750126781
 20
74.45316431515407
 10
40.63507350329609
 20
74.17359481652605
 10
34.30229898230984
 20
73.36055228200709
 10
27.33235405132664
 20
72.46672225835901
 10
26.84142794467853
 20
67.36488035425253
 10
27.16475015596923
 20
60.95648598736505
 10
27.56007486290165
 20
53.12492267552086
 10
27.57144367800298
 20
45.87316893384421
 10
26.77752142342715
 20
38.19318982335101
 10
24.00542534122087
 20
37.92843423530956
 10
10.08982340242546
 20
36.0646375777894
 10
10.08982340242546
 20
36.0646375777894
 10
10.08982340242546
 20
36.0646375777894
 10
10.49858398175035
 20
28.82476941553686
 10
10.68237982588843
 20
22.09511989464983
 10
10.68237982588843
 20
22.09511989464983
 10
0.0
 20
22.09511989464983
 10
0.0
 20
22.09511989464983
 10
0.0
 20
22.09511989464983
 10
0.0
 20
12.40544433283614
 10
0.0
 20
12.40544433283614
 10
0.0
 20
12.40544433283614
 10
10.72113715009749
 20
13.62397460596901
 10
10.72113715009749
 20
13.62397460596901
 10
10.68151855201712
 20
12.63213161576558
 10
10.61606173779737
 20
11.84768337377419
 10
10.51701524259644
 20
11.35916883396576
 10
11.22153726933003
 20
11.15211859530225
 10
12.69931097772795
 20
11.07494845643265
 10
14.54088676936825
 20
11.07460394688413
 10
14.82390136348153
 20
8.165565319139164
 10
16.12287461619498
 20
5.548326278994863
 10
18.07727728497721
 20
3.59599066750378
 10
20.29574652270384
 20
1.37562662726026
 10
23.37101100761211
 20
-0.000344509548525
 10
26.75788437916123
 20
0.0
 10
30.1449300054846
 20
-0.000344509548525
 10
33.22019449039287
 20
1.37562662726026
 10
35.43849147334524
 20
3.59599066750378
 10
37.62216524667085
 20
5.777425128763977
 10
38.98625080405552
 20
8.789816621066436
 10
39.0300035167182
 20
12.11088866884728
 10
47.73231471245929
 20
12.45712076511489
 10
60.4717610525904
 20
12.99765624675059
 10
72.16028101494605
 20
13.71182454084288
 10
72.10550399673058
 20
13.2405354784607
 10
72.07380911826627
 20
12.7620117155595
 10
72.07380911826627
 20
12.27625325213927
 10
72.07346460871774
 20
8.889379880590155
 10
73.44943574552653
 20
5.813943140907625
 10
75.66979978577005
 20
3.59599066750378
 10
77.88809676872242
 20
1.37562662726026
 10
80.96318899885642
 20
-0.000344509548525
 10
84.35040687995406
 20
0.0
 10
87.73728025150318
 20
-0.000344509548525
 10
90.81271699118571
 20
1.37562662726026
 10
93.03101397413809
 20
3.59599066750378
 10
95.25068899528455
 20
5.813943140907625
 10
96.62700464164186
 20
8.889379880590155
 10
96.62666013209333
 20
12.27625325213927
 97
        0
 92
        1
 93
        1
 72
     4
 94
        3
 73
     0
 74
     1
 95
       29
 96
       25
 40
0.0
 40
0.0
 40
0.0
 40
0.0
 40
1.0
 40
1.0
 40
1.0
 40
2.0
 40
2.0
 40
2.0
 40
3.0
 40
3.0
 40
3.0
 40
4.0
 40
4.0
 40
4.0
 40
5.0
 40
5.0
 40
5.0
 40
6.0
 40
6.0
 40
6.0
 40
7.0
 40
7.0
 40
7.0
 40
8.0
 40
8.0
 40
8.0
 40
8.0
 10
84.35040687995406
 20
1.963704426592407
 10
81.49959036590982
 20
1.964393445689457
 10
78.9274820766223
 20
3.116777885505528
 10
77.05817326632574
 20
4.984364148059464
 10
75.1905870037718
 20
6.853672958356026
 10
74.03820256395574
 20
9.425781247643554
 10
74.03785805440721
 20
12.27625325213927
 10
74.03820256395574
 20
15.12706976618351
 10
75.1905870037718
 20
17.69917805547104
 10
77.05817326632574
 20
19.5684868657676
 10
78.9274820766223
 20
21.43607312832154
 10
81.49959036590982
 20
22.58845756813761
 10
84.35040687995406
 20
22.58880207768613
 10
87.20087888444978
 20
22.58845756813761
 10
89.7729871737373
 20
21.43607312832154
 10
91.64229598403388
 20
19.5684868657676
 10
93.50988224658781
 20
17.69917805547104
 10
94.66226668640388
 20
15.12706976618351
 10
94.66295570550093
 20
12.27625325213927
 10
94.66226668640388
 20
9.425781247643554
 10
93.50988224658781
 20
6.853672958356026
 10
91.64229598403388
 20
4.984364148059464
 10
89.7729871737373
 20
3.116777885505528
 10
87.20087888444978
 20
1.964393445689457
 10
84.35040687995406
 20
1.963704426592407
 97
        0
 92
        1
 93
        1
 72
     4
 94
        3
 73
     0
 74
     1
 95
       29
 96
       25
 40
0.0
 40
0.0
 40
0.0
 40
0.0
 40
1.0
 40
1.0
 40
1.0
 40
2.0
 40
2.0
 40
2.0
 40
3.0
 40
3.0
 40
3.0
 40
4.0
 40
4.0
 40
4.0
 40
5.0
 40
5.0
 40
5.0
 40
6.0
 40
6.0
 40
6.0
 40
7.0
 40
7.0
 40
7.0
 40
8.0
 40
8.0
 40
8.0
 40
8.0
 10
34.0499457380153
 20
4.984364148059464
 10
32.18046467294447
 20
3.116777885505528
 10
29.60870089320547
 20
1.964393445689457
 10
26.75788437916123
 20
1.963704426592407
 10
23.90724011989125
 20
1.964393445689457
 10
21.33513183060372
 20
3.116777885505528
 10
19.46582302030716
 20
4.984364148059464
 10
17.59823675775322
 20
6.853672958356026
 10
16.44585231793715
 20
9.425781247643554
 10
16.44550780838862
 20
12.27625325213927
 10
16.44585231793715
 20
15.12706976618351
 10
17.59823675775322
 20
17.69917805547104
 10
19.46582302030716
 20
19.5684868657676
 10
21.33513183060372
 20
21.43607312832154
 10
23.90724011989125
 20
22.58845756813761
 10
26.75788437916123
 20
22.58880207768613
 10
29.60870089320547
 20
22.58845756813761
 10
32.18046467294447
 20
21.43607312832154
 10
34.0499457380153
 20
19.5684868657676
 10
35.91753200056923
 20
17.69917805547104
 10
37.0699164403853
 20
15.12706976618351
 10
37.07043320470809
 20
12.27625325213927
 10
37.0699164403853
 20
9.425781247643554
 10
35.91753200056923
 20
6.853672958356026
 10
34.0499457380153
 20
4.984364148059464
 97
        0
 92
        1
 93
        1
 72
     4
 94
        3
 73
     0
 74
     1
 95
       17
 96
       13
 40
0.0
 40
0.0
 40
0.0
 40
0.0
 40
1.0
 40
1.0
 40
1.0
 40
2.0
 40
2.0
 40
2.0
 40
3.0
 40
3.0
 40
3.0
 40
4.0
 40
4.0
 40
4.0
 40
4.0
 10
1.96387668136667
 20
20.13141546805743
 10
1.96387668136667
 20
20.13141546805743
 10
10.72940537926209
 20
20.13141546805743
 10
10.72940537926209
 20
20.13141546805743
 10
10.76265055069475
 20
18.50429687037393
 10
10.77780897082985
 20
16.9567599783997
 10
10.76575113663148
 20
15.60559352908471
 10
10.76575113663148
 20
15.60559352908471
 10
1.96387668136667
 20
14.60513780016816
 10
1.96387668136667
 20
14.60513780016816
 10
1.96387668136667
 20
14.60513780016816
 10
1.96387668136667
 20
20.13141546805743
 10
1.96387668136667
 20
20.13141546805743
 97
        0
 92
        1
 93
        4
 72
     1
 10
31.17242973396037
 20
38.87101236007391
 11
31.17242973396037
 21
67.67976208160437
 72
     1
 10
31.17242973396037
 20
67.67976208160437
 11
45.57689072211272
 21
69.27966442495439
 72
     1
 10
45.57689072211272
 20
69.27966442495439
 11
51.2867919793658
 21
40.34930283279462
 72
     1
 10
51.2867919793658
 20
40.34930283279462
 11
31.17242973396037
 21
38.87101236007391
 97
        0
 92
        1
 93
        4
 72
     1
 10
54.59132756881745
 20
16.65772569028001
 11
53.0641167402062
 21
16.65772569028001
 72
     1
 10
53.0641167402062
 20
16.65772569028001
 11
53.0641167402062
 21
35.58404675759704
 72
     1
 10
53.0641167402062
 20
35.58404675759704
 11
54.59132756881745
 21
35.58404675759704
 72
     1
 10
54.59132756881745
 20
35.58404675759704
 11
54.59132756881745
 21
16.65772569028001
 97
        0
 92
        1
 93
        1
 72
     4
 94
        3
 73
     0
 74
     1
 95
       11
 96
        7
 40
0.0
 40
0.0
 40
0.0
 40
0.0
 40
1.0
 40
1.0
 40
1.0
 40
2.0
 40
2.0
 40
2.0
 40
2.0
 10
64.24104002300224
 20
32.96301811241897
 10
62.90503199382236
 20
32.45348849015052
 10
61.23484970257324
 20
32.47898219674137
 10
59.78963214651093
 20
32.41662596845835
 10
54.67297633181787
 20
32.18718260914071
 10
65.02342120770248
 20
37.56377087819587
 10
64.24104002300224
 20
32.96301811241897
 97
        0
 92
        1
 93
        1
 72
     4
 94
        3
 73
     0
 74
     1
 95
       17
 96
       13
 40
0.0
 40
0.0
 40
0.0
 40
0.0
 40
1.0
 40
1.0
 40
1.0
 40
2.0
 40
2.0
 40
2.0
 40
3.0
 40
3.0
 40
3.0
 40
4.0
 40
4.0
 40
4.0
 40
4.0
 10
55.84465330635134
 20
41.271554894196
 10
55.84465330635134
 20
41.271554894196
 10
51.57859156696647
 20
69.27966442495439
 10
51.57859156696647
 20
69.27966442495439
 10
51.57859156696647
 20
69.27966442495439
 10
60.18168401273236
 20
70.88077255172425
 10
62.18190645146841
 20
70.48096922066101
 10
64.18212889020447
 20
70.0809936348235
 10
68.58358288215966
 20
42.2713216040155
 10
68.58358288215966
 20
42.2713216040155
 10
68.58358288215966
 20
42.2713216040155
 10
55.84465330635134
 20
41.271554894196
 10
55.84465330635134
 20
41.271554894196
 97
        0
 75
     2
 76
     1
 98
        0
  0
SPLINE
  5
53
330
1F
100
AcDbEntity
  8
Layer 1
370
     0
100
AcDbSpline
210
0.0
220
0.0
230
1.0
 70
    11
 71
     3
 72
    17
 73
    13
 74
     0
 42
0.0000000001
 43
0.0000000001
 40
0.0
 40
0.0
 40
0.0
 40
0.0
 40
1.0
 40
1.0
 40
1.0
 40
2.0
 40
2.0
 40
2.0
 40
3.0
 40
3.0
 40
3.0
 40
4.0
 40
4.0
 40
4.0
 40
4.0
 10
84.35006237040554
 20
16.65772569028001
 30
0.0
 10
81.93057181111459
 20
16.65772569028001
 30
0.0
 10
79.96893444181333
 20
14.69643283052728
 30
0.0
 10
79.96893444181333
 20
12.27694227123632
 30
0.0
 10
79.96893444181333
 20
9.85676269284831
 30
0.0
 10
81.93057181111459
 20
7.895469833095578
 30
0.0
 10
84.35006237040554
 20
7.895469833095578
 30
0.0
 10
86.7695529296965
 20
7.895469833095578
 30
0.0
 10
88.73119029899776
 20
9.85676269284831
 30
0.0
 10
88.73119029899776
 20
12.27694227123632
 30
0.0
 10
88.73119029899776
 20
14.69643283052728
 30
0.0
 10
86.7695529296965
 20
16.65772569028001
 30
0.0
 10
84.35006237040554
 20
16.65772569028001
 30
0.0
  0
HATCH
  5
54
330
1F
100
AcDbEntity
  8
Layer 1
 62
   134
420
   100246
100
AcDbHatch
 10
0.0
 20
0.0
 30
0.0
210
0.0
220
0.0
230
1.0
  2
SOLID
 70
     1
 71
     0
 91
        1
 92
        1
 93
        1
 72
     4
 94
        3
 73
     0
 74
     1
 95
       17
 96
       13
 40
0.0
 40
0.0
 40
0.0
 40
0.0
 40
1.0
 40
1.0
 40
1.0
 40
2.0
 40
2.0
 40
2.0
 40
3.0
 40
3.0
 40
3.0
 40
4.0
 40
4.0
 40
4.0
 40
4.0
 10
84.35006237040554
 20
16.65772569028001
 10
81.93057181111459
 20
16.65772569028001
 10
79.96893444181333
 20
14.69643283052728
 10
79.96893444181333
 20
12.27694227123632
 10
79.96893444181333
 20
9.85676269284831
 10
81.93057181111459
 20
7.895469833095578
 10
84.35006237040554
 20
7.895469833095578
 10
86.7695529296965
 20
7.895469833095578
 10
88.73119029899776
 20
9.85676269284831
 10
88.73119029899776
 20
12.27694227123632
 10
88.73119029899776
 20
14.69643283052728
 10
86.7695529296965
 20
16.65772569028001
 10
84.35006237040554
 20
16.65772569028001
 97
        0
 75
     2
 76
     1
 98
        0
  0
ENDSEC
  0
SECTION
  2
OBJECTS
  0
DICTIONARY
  5
C
330
0
100
AcDbDictionary
281
     1
  3
ACAD_GROUP
350
D
  3
ACAD_LAYOUT
350
1A
  3
ACAD_MLINESTYLE
350
17
  3
ACAD_PLOTSETTINGS
350
19
  3
ACAD_PLOTSTYLENAME
350
E
  3
ACAD_TABLESTYLE
350
55
  3
ACAD_VISUALSTYLE
350
2A
  0
DICTIONARY
  5
D
102
{ACAD_REACTORS
330
C
102
}
330
C
100
AcDbDictionary
281
     1
  0
DICTIONARY
  5
1A
102
{ACAD_REACTORS
330
C
102
}
330
C
100
AcDbDictionary
281
     1
  3
Layout1
350
1E
  3
Layout2
350
26
  3
Model
350
22
  0
DICTIONARY
  5
17
102
{ACAD_REACTORS
330
C
102
}
330
C
100
AcDbDictionary
281
     1
  3
Standard
350
18
  0
DICTIONARY
  5
19
102
{ACAD_REACTORS
330
C
102
}
330
C
100
AcDbDictionary
281
     1
  0
ACDBDICTIONARYWDFLT
  5
E
102
{ACAD_REACTORS
330
C
102
}
330
C
100
AcDbDictionary
281
     1
  3
Normal
350
F
100
AcDbDictionaryWithDefault
340
F
  0
DICTIONARY
  5
55
102
{ACAD_REACTORS
330
C
102
}
330
C
100
AcDbDictionary
281
     1
  0
DICTIONARY
  5
2A
102
{ACAD_REACTORS
330
C
102
}
330
C
100
AcDbDictionary
281
     1
  3
2dWireframe
350
2F
  3
3D Hidden
350
31
  3
3dWireframe
350
30
  3
Basic
350
32
  3
Brighten
350
36
  3
ColorChange
350
3A
  3
Conceptual
350
34
  3
Dim
350
35
  3
Facepattern
350
39
  3
Flat
350
2B
  3
FlatWithEdges
350
2C
  3
Gouraud
350
2D
  3
GouraudWithEdges
350
2E
  3
Linepattern
350
38
  3
Realistic
350
33
  3
Thicken
350
37
  0
LAYOUT
  5
1E
102
{ACAD_REACTORS
330
1A
102
}
330
1A
100
AcDbPlotSettings
  1

  2
none_device
  4

  6

 40
0.0
 41
0.0
 42
0.0
 43
0.0
 44
0.0
 45
0.0
 46
0.0
 47
0.0
 48
0.0
 49
0.0
140
0.0
141
0.0
142
1.0
143
1.0
 70
   688
 72
     0
 73
     0
 74
     5
  7

 75
    16
 76
     0
 77
     2
 78
   300
147
1.0
148
0.0
149
0.0
100
AcDbLayout
  1
Layout1
 70
     1
 71
     1
 10
0.0
 20
0.0
 11
12.0
 21
9.0
 12
0.0
 22
0.0
 32
0.0
 14
1.000000000000000E+20
 24
1.000000000000000E+20
 34
1.000000000000000E+20
 15
-1.000000000000000E+20
 25
-1.000000000000000E+20
 35
-1.000000000000000E+20
146
0.0
 13
0.0
 23
0.0
 33
0.0
 16
1.0
 26
0.0
 36
0.0
 17
0.0
 27
1.0
 37
0.0
 76
     0
330
1B
  0
LAYOUT
  5
26
102
{ACAD_REACTORS
330
1A
102
}
330
1A
100
AcDbPlotSettings
  1

  2
none_device
  4

  6

 40
0.0
 41
0.0
 42
0.0
 43
0.0
 44
0.0
 45
0.0
 46
0.0
 47
0.0
 48
0.0
 49
0.0
140
0.0
141
0.0
142
1.0
143
1.0
 70
   688
 72
     0
 73
     0
 74
     5
  7

 75
    16
 76
     0
 77
     2
 78
   300
147
1.0
148
0.0
149
0.0
100
AcDbLayout
  1
Layout2
 70
     1
 71
     2
 10
0.0
 20
0.0
 11
0.0
 21
0.0
 12
0.0
 22
0.0
 32
0.0
 14
0.0
 24
0.0
 34
0.0
 15
0.0
 25
0.0
 35
0.0
146
0.0
 13
0.0
 23
0.0
 33
0.0
 16
1.0
 26
0.0
 36
0.0
 17
0.0
 27
1.0
 37
0.0
 76
     0
330
23
  0
LAYOUT
  5
22
102
{ACAD_REACTORS
330
1A
102
}
330
1A
100
AcDbPlotSettings
  1

  2
none_device
  4

  6

 40
0.0
 41
0.0
 42
0.0
 43
0.0
 44
0.0
 45
0.0
 46
0.0
 47
0.0
 48
0.0
 49
0.0
140
0.0
141
0.0
142
1.0
143
1.0
 70
  1712
 72
     0
 73
     0
 74
     0
  7

 75
     0
 76
     0
 77
     2
 78
   300
147
1.0
148
0.0
149
0.0
100
AcDbLayout
  1
Model
 70
     1
 71
     0
 10
0.0
 20
0.0
 11
12.0
 21
9.0
 12
0.0
 22
0.0
 32
0.0
 14
1.000000000000000E+20
 24
1.000000000000000E+20
 34
1.000000000000000E+20
 15
-1.000000000000000E+20
 25
-1.000000000000000E+20
 35
-1.000000000000000E+20
146
0.0
 13
0.0
 23
0.0
 33
0.0
 16
1.0
 26
0.0
 36
0.0
 17
0.0
 27
1.0
 37
0.0
 76
     0
330
1F
331
29
  0
MLINESTYLE
  5
18
102
{ACAD_REACTORS
330
17
102
}
330
17
100
AcDbMlineStyle
  2
Standard
 70
     0
  3

 62
   256
 51
90.0
 52
90.0
 71
     2
 49
0.5
 62
   256
  6
BYLAYER
 49
-0.5
 62
   256
  6
BYLAYER
  0
ACDBPLACEHOLDER
  5
F
102
{ACAD_REACTORS
330
E
102
}
330
E
  0
VISUALSTYLE
  5
2F
102
{ACAD_REACTORS
330
2A
102
}
330
2A
100
AcDbVisualStyle
  2
2dWireframe
 70
     4
 71
     0
 72
     2
 73
     0
 90
        0
 40
-0.6
 41
-30.0
 62
     5
 63
     7
421
 16777215
 74
     1
 91
        4
 64
     7
 65
   257
 75
     1
175
     1
 42
1.0
 92
        0
 66
   257
 43
1.0
 76
     1
 77
     6
 78
     2
 67
     7
 79
     5
170
     0
171
     0
290
     0
174
     0
 93
        1
 44
0.0
173
     0
291
     0
 45
0.0
1001
ACAD
1000
AcDbSavedByObjectVersion
1070
     0
  0
VISUALSTYLE
  5
31
102
{ACAD_REACTORS
330
2A
102
}
330
2A
100
AcDbVisualStyle
  2
3D Hidden
 70
     6
 71
     1
 72
     2
 73
     2
 90
        0
 40
-0.6
 41
-30.0
 62
     5
 63
     7
421
 16777215
 74
     2
 91
        2
 64
     7
 65
   257
 75
     2
175
     1
 42
40.0
 92
        0
 66
   257
 43
1.0
 76
     1
 77
     6
 78
     2
 67
     7
 79
     3
170
     0
171
     0
290
     0
174
     0
 93
        1
 44
0.0
173
     0
291
     0
 45
0.0
1001
ACAD
1000
AcDbSavedByObjectVersion
1070
     0
  0
VISUALSTYLE
  5
30
102
{ACAD_REACTORS
330
2A
102
}
330
2A
100
AcDbVisualStyle
  2
3dWireframe
 70
     5
 71
     0
 72
     2
 73
     0
 90
        0
 40
-0.6
 41
-30.0
 62
     5
 63
     7
421
 16777215
 74
     1
 91
        4
 64
     7
 65
   257
 75
     1
175
     1
 42
1.0
 92
        0
 66
   257
 43
1.0
 76
     1
 77
     6
 78
     2
 67
     7
 79
     5
170
     0
171
     0
290
     0
174
     0
 93
        1
 44
0.0
173
     0
291
     0
 45
0.0
1001
ACAD
1000
AcDbSavedByObjectVersion
1070
     0
  0
VISUALSTYLE
  5
32
102
{ACAD_REACTORS
330
2A
102
}
330
2A
100
AcDbVisualStyle
  2
Basic
 70
     7
 71
     1
 72
     0
 73
     1
 90
        0
 40
-0.6
 41
-30.0
 62
     5
 63
     7
421
 16777215
 74
     0
 91
        4
 64
     7
 65
   257
 75
     1
175
     1
 42
1.0
 92
        8
 66
     7
 43
1.0
 76
     1
 77
     6
 78
     2
 67
     7
 79
     5
170
     0
171
     0
290
     0
174
     0
 93
        1
 44
0.0
173
     0
291
     1
 45
0.0
1001
ACAD
1000
AcDbSavedByObjectVersion
1070
     0
  0
VISUALSTYLE
  5
36
102
{ACAD_REACTORS
330
2A
102
}
330
2A
100
AcDbVisualStyle
  2
Brighten
 70
    12
 71
     2
 72
     2
 73
     0
 90
        0
 40
-0.6
 41
-30.0
 62
     5
 63
     7
421
 16777215
 74
     1
 91
        4
 64
     7
 65
   257
 75
     1
175
     1
 42
1.0
 92
        8
 66
     7
 43
1.0
 76
     1
 77
     6
 78
     2
 67
     7
 79
     5
170
     0
171
     0
290
     0
174
     0
 93
        1
 44
50.0
173
     0
291
     1
 45
0.0
1001
ACAD
1000
AcDbSavedByObjectVersion
1070
     0
  0
VISUALSTYLE
  5
3A
102
{ACAD_REACTORS
330
2A
102
}
330
2A
100
AcDbVisualStyle
  2
ColorChange
 70
    16
 71
     2
 72
     2
 73
     3
 90
        0
 40
-0.6
 41
-30.0
 62
     5
 63
     8
421
  8421504
 74
     1
 91
        4
 64
     7
 65
   257
 75
     1
175
     1
 42
1.0
 92
        8
 66
     8
424
  8421504
 43
1.0
 76
     1
 77
     6
 78
     2
 67
     7
 79
     5
170
     0
171
     0
290
     0
174
     0
 93
        1
 44
0.0
173
     0
291
     1
 45
0.0
1001
ACAD
1000
AcDbSavedByObjectVersion
1070
     0
  0
VISUALSTYLE
  5
34
102
{ACAD_REACTORS
330
2A
102
}
330
2A
100
AcDbVisualStyle
  2
Conceptual
 70
     9
 71
     3
 72
     2
 73
     0
 90
        0
 40
-0.6
 41
-30.0
 62
     5
 63
     7
421
 16777215
 74
     2
 91
        2
 64
     7
 65
   257
 75
     1
175
     1
 42
40.0
 92
        8
 66
     7
 43
1.0
 76
     1
 77
     6
 78
     2
 67
     7
 79
     3
170
     0
171
     0
290
     0
174
     0
 93
        1
 44
0.0
173
     0
291
     0
 45
0.0
1001
ACAD
1000
AcDbSavedByObjectVersion
1070
     0
  0
VISUALSTYLE
  5
35
102
{ACAD_REACTORS
330
2A
102
}
330
2A
100
AcDbVisualStyle
  2
Dim
 70
    11
 71
     2
 72
     2
 73
     0
 90
        0
 40
-0.6
 41
-30.0
 62
     5
 63
     7
421
 16777215
 74
     1
 91
        4
 64
     7
 65
   257
 75
     1
175
     1
 42
1.0
 92
        8
 66
     7
 43
1.0
 76
     1
 77
     6
 78
     2
 67
     7
 79
     5
170
     0
171
     0
290
     0
174
     0
 93
        1
 44
-50.0
173
     0
291
     1
 45
0.0
1001
ACAD
1000
AcDbSavedByObjectVersion
1070
     0
  0
VISUALSTYLE
  5
39
102
{ACAD_REACTORS
330
2A
102
}
330
2A
100
AcDbVisualStyle
  2
Facepattern
 70
    15
 71
     2
 72
     2
 73
     0
 90
        0
 40
-0.6
 41
-30.0
 62
     5
 63
     7
421
 16777215
 74
     1
 91
        4
 64
     7
 65
   257
 75
     1
175
     1
 42
1.0
 92
        8
 66
     7
 43
1.0
 76
     1
 77
     6
 78
     2
 67
     7
 79
     5
170
     0
171
     0
290
     0
174
     0
 93
        1
 44
0.0
173
     0
291
     1
 45
0.0
1001
ACAD
1000
AcDbSavedByObjectVersion
1070
     0
  0
VISUALSTYLE
  5
2B
102
{ACAD_REACTORS
330
2A
102
}
330
2A
100
AcDbVisualStyle
  2
Flat
 70
     0
 71
     2
 72
     1
 73
     1
 90
        2
 40
-0.6
 41
30.0
 62
     5
 63
     7
421
 16777215
 74
     0
 91
        4
 64
     7
 65
   257
 75
     1
175
     1
 42
1.0
 92
        8
 66
     7
 43
1.0
 76
     1
 77
     6
 78
     2
 67
     7
 79
     5
170
     0
171
     0
290
     0
174
     0
 93
       13
 44
0.0
173
     0
291
     1
 45
0.0
1001
ACAD
1000
AcDbSavedByObjectVersion
1070
     0
  0
VISUALSTYLE
  5
2C
102
{ACAD_REACTORS
330
2A
102
}
330
2A
100
AcDbVisualStyle
  2
FlatWithEdges
 70
     1
 71
     2
 72
     1
 73
     1
 90
        2
 40
-0.6
 41
30.0
 62
     5
 63
     7
421
 16777215
 74
     1
 91
        4
 64
     7
 65
   257
 75
     1
175
     1
 42
1.0
 92
        0
 66
   257
 43
1.0
 76
     1
 77
     6
 78
     2
 67
     7
 79
     5
170
     0
171
     0
290
     0
174
     0
 93
       13
 44
0.0
173
     0
291
     1
 45
0.0
1001
ACAD
1000
AcDbSavedByObjectVersion
1070
     0
  0
VISUALSTYLE
  5
2D
102
{ACAD_REACTORS
330
2A
102
}
330
2A
100
AcDbVisualStyle
  2
Gouraud
 70
     2
 71
     2
 72
     2
 73
     1
 90
        2
 40
-0.6
 41
30.0
 62
     5
 63
     7
421
 16777215
 74
     0
 91
        4
 64
     7
 65
   257
 75
     1
175
     1
 42
1.0
 92
        0
 66
     7
 43
1.0
 76
     1
 77
     6
 78
     2
 67
     7
 79
     5
170
     0
171
     0
290
     0
174
     0
 93
       13
 44
0.0
173
     0
291
     1
 45
0.0
1001
ACAD
1000
AcDbSavedByObjectVersion
1070
     0
  0
VISUALSTYLE
  5
2E
102
{ACAD_REACTORS
330
2A
102
}
330
2A
100
AcDbVisualStyle
  2
GouraudWithEdges
 70
     3
 71
     2
 72
     2
 73
     1
 90
        2
 40
-0.6
 41
30.0
 62
     5
 63
     7
421
 16777215
 74
     1
 91
        4
 64
     7
 65
   257
 75
     1
175
     1
 42
1.0
 92
        0
 66
   257
 43
1.0
 76
     1
 77
     6
 78
     2
 67
     7
 79
     5
170
     0
171
     0
290
     0
174
     0
 93
       13
 44
0.0
173
     0
291
     1
 45
0.0
1001
ACAD
1000
AcDbSavedByObjectVersion
1070
     0
  0
VISUALSTYLE
  5
38
102
{ACAD_REACTORS
330
2A
102
}
330
2A
100
AcDbVisualStyle
  2
Linepattern
 70
    14
 71
     2
 72
     2
 73
     0
 90
        0
 40
-0.6
 41
-30.0
 62
     5
 63
     7
421
 16777215
 74
     1
 91
        4
 64
     7
 65
   257
 75
     7
175
     7
 42
1.0
 92
        8
 66
     7
 43
1.0
 76
     1
 77
     6
 78
     2
 67
     7
 79
     5
170
     0
171
     0
290
     0
174
     0
 93
        1
 44
0.0
173
     0
291
     1
 45
0.0
1001
ACAD
1000
AcDbSavedByObjectVersion
1070
     0
  0
VISUALSTYLE
  5
33
102
{ACAD_REACTORS
330
2A
102
}
330
2A
100
AcDbVisualStyle
  2
Realistic
 70
     8
 71
     2
 72
     2
 73
     0
 90
        0
 40
-0.6
 41
-30.0
 62
     5
 63
     7
421
 16777215
 74
     1
 91
        0
 64
     7
 65
   257
 75
     1
175
     1
 42
1.0
 92
        8
 66
     8
424
  7895160
 43
1.0
 76
     1
 77
     6
 78
     2
 67
     7
 79
     5
170
     0
171
     0
290
     0
174
     0
 93
       13
 44
0.0
173
     0
291
     0
 45
0.0
1001
ACAD
1000
AcDbSavedByObjectVersion
1070
     0
  0
VISUALSTYLE
  5
37
102
{ACAD_REACTORS
330
2A
102
}
330
2A
100
AcDbVisualStyle
  2
Thicken
 70
    13
 71
     2
 72
     2
 73
     0
 90
        0
 40
-0.6
 41
-30.0
 62
     5
 63
     7
421
 16777215
 74
     1
 91
        4
 64
     7
 65
   257
 75
     1
175
     1
 42
1.0
 92
       12
 66
     7
 43
1.0
 76
     1
 77
     6
 78
     2
 67
     7
 79
     5
170
     0
171
     0
290
     0
174
     0
 93
        1
 44
0.0
173
     0
291
     1
 45
0.0
1001
ACAD
1000
AcDbSavedByObjectVersion
1070
     0
  0
ENDSEC
  0
EOF
