0
SECTION
2
HEADER
9
$ACADVER
1
AC1003
9
$INSBASE
10
0.0
20
0.0
30
0.0
9
$EXTMIN
10
0.000
20
0.000
30
0.0
9
$EXTMAX
10
2324.000
20
2166.000
30
0.0
9
$LIMMIN
10
0.000
20
0.000
9
$LIMMAX
10
2324.000
20
2166.000
9
$LTSCALE
40
1.0
9
$LUNITS
70
2
9
$LUPREC
70
3
9
$LIMCHECK
70
0
9
$UCSNAME
2

9
$UCSORG
10
0.0
20
0.0
30
0.0
9
$UCSXDIR
10
1.0
20
0.0
30
0.0
9
$UCSYDIR
10
0.0
20
1.0
30
0.0
9
$WORLDVIEW
70
1
9
$UNITMODE
70
0
0
ENDSEC
0
SECTION
2
TABLES
0
TABLE
2
VPORT
70
1
0
VPORT
2
*ACTIVE
70
0
10
0.0
20
0.0
11
1.0
21
1.0
12
1162.000
22
1083.000
13
0.0
23
0.0
14
1.0
24
1.0
15
0.0
25
0.0
16
0.0
26
0.0
36
1.0
17
0.0
27
0.0
37
0.0
40
500.0
41
0.932
42
50.0
43
0.0
44
0.0
50
0.0
51
0.0
71
0
72
100
73
1
74
1
75
0
76
0
77
0
78
0
0
ENDTAB
0
TABLE
2
LTYPE
70
1
0
LTYPE
2
CONTINUOUS
70
64
3
Solid line
72
65
73
0
40
0.000
0
ENDTAB
0
TABLE
2
LAYER
70
1
0
LAYER
2
0
70
64
62
7
6
CONTINUOUS
0
ENDTAB
0
ENDSEC
0
SECTION
2
BLOCKS
0
ENDSEC
0
SECTION
2
ENTITIES
0
POLYLINE
8
0
6
CONTINUOUS
66
1
62
7
10
0.0
20
0.0
30
0.000000
0
VERTEX
8
0
10
691.000000
20
1617.000000
0
VERTEX
8
0
10
711.977376
20
1618.475113
42
0.067932
0
VERTEX
8
0
10
869.000000
20
1651.000000
0
VERTEX
8
0
10
873.200000
20
1655.900000
42
-0.122224
0
VERTEX
8
0
10
935.900000
20
1714.200000
0
VERTEX
8
0
10
970.100000
20
1735.800000
42
0.081458
0
VERTEX
8
0
10
1117.000000
20
1861.000000
0
VERTEX
8
0
10
1117.000000
20
1862.000000
0
VERTEX
8
0
10
975.153846
20
1978.230769
0
VERTEX
8
0
10
973.000000
20
1980.000000
42
0.226728
0
VERTEX
8
0
10
965.000000
20
1975.000000
42
-0.091909
0
VERTEX
8
0
10
851.100000
20
1888.800000
0
VERTEX
8
0
10
832.900000
20
1880.200000
0
VERTEX
8
0
10
797.900000
20
1867.300000
0
VERTEX
8
0
10
765.076923
20
1858.615385
42
-0.167788
0
VERTEX
8
0
10
501.900000
20
1886.800000
0
VERTEX
8
0
10
481.153846
20
1897.230769
0
VERTEX
8
0
10
450.180000
20
1917.240000
0
VERTEX
8
0
10
443.846154
20
1921.769231
0
VERTEX
8
0
10
414.226244
20
1945.248869
0
VERTEX
8
0
10
403.773756
20
1954.751131
0
VERTEX
8
0
10
384.000000
20
1974.000000
0
VERTEX
8
0
10
384.000000
20
1975.000000
42
0.417406
0
VERTEX
8
0
10
374.900000
20
1979.200000
0
VERTEX
8
0
10
262.000000
20
1887.000000
0
VERTEX
8
0
10
233.000000
20
1863.000000
0
VERTEX
8
0
10
232.000000
20
1860.000000
0
VERTEX
8
0
10
236.754098
20
1854.795082
0
VERTEX
8
0
10
246.000000
20
1844.000000
0
VERTEX
8
0
10
284.000000
20
1806.000000
0
VERTEX
8
0
10
299.211765
20
1793.247059
0
VERTEX
8
0
10
331.180000
20
1768.240000
0
VERTEX
8
0
10
352.180000
20
1753.240000
0
VERTEX
8
0
10
404.100000
20
1720.200000
0
VERTEX
8
0
10
421.153846
20
1709.230769
0
VERTEX
8
0
10
447.000000
20
1690.000000
0
VERTEX
8
0
10
464.000000
20
1673.000000
0
VERTEX
8
0
10
468.754098
20
1666.795082
0
VERTEX
8
0
10
476.800000
20
1654.900000
0
VERTEX
8
0
10
481.000000
20
1650.000000
42
0.082886
0
VERTEX
8
0
10
691.000000
20
1617.000000
0
SEQEND
0
POLYLINE
8
0
6
CONTINUOUS
66
1
62
7
10
0.0
20
0.0
30
0.000000
0
VERTEX
8
0
10
2091.000000
20
309.000000
42
0.346856
0
VERTEX
8
0
10
2126.439024
20
355.951220
0
VERTEX
8
0
10
2127.000000
20
357.000000
0
VERTEX
8
0
10
2127.000000
20
1325.000000
0
VERTEX
8
0
10
2125.560976
20
1333.951220
0
VERTEX
8
0
10
2125.352941
20
1335.088235
0
VERTEX
8
0
10
2120.800000
20
1347.900000
0
VERTEX
8
0
10
2117.000000
20
1355.000000
42
0.153394
0
VERTEX
8
0
10
2092.000000
20
1372.000000
0
VERTEX
8
0
10
1334.000000
20
1372.000000
42
0.289759
0
VERTEX
8
0
10
1300.000000
20
1331.000000
0
VERTEX
8
0
10
1300.000000
20
350.000000
0
VERTEX
8
0
10
1302.352941
20
341.088235
0
VERTEX
8
0
10
1302.700000
20
339.900000
0
VERTEX
8
0
10
1305.230769
20
333.153846
0
VERTEX
8
0
10
1311.000000
20
324.000000
42
0.185554
0
VERTEX
8
0
10
1335.000660
20
309.499339
0
VERTEX
8
0
10
2091.000000
20
309.000000
0
SEQEND
0
POLYLINE
8
0
6
CONTINUOUS
66
1
62
7
10
0.0
20
0.0
30
0.000000
0
VERTEX
8
0
10
708.000000
20
185.000000
0
VERTEX
8
0
10
737.964706
20
187.458824
0
VERTEX
8
0
10
771.940000
20
191.420000
0
VERTEX
8
0
10
784.932432
20
193.405405
0
VERTEX
8
0
10
825.088235
20
201.647059
0
VERTEX
8
0
10
854.100000
20
209.700000
0
VERTEX
8
0
10
897.900000
20
225.200000
0
VERTEX
8
0
10
953.023691
20
249.526185
0
VERTEX
8
0
10
971.976309
20
250.473815
42
0.109311
0
VERTEX
8
0
10
1049.100000
20
274.800000
42
0.198359
0
VERTEX
8
0
10
1139.352941
20
400.911765
0
VERTEX
8
0
10
1143.352941
20
416.911765
0
VERTEX
8
0
10
1148.560976
20
446.048780
0
VERTEX
8
0
10
1149.439024
20
453.951220
0
VERTEX
8
0
10
1152.000000
20
481.000000
0
VERTEX
8
0
10
1152.000000
20
495.000000
0
VERTEX
8
0
10
1146.000000
20
501.000000
42
-0.075020
0
VERTEX
8
0
10
1138.153846
20
506.230769
0
VERTEX
8
0
10
1131.820000
20
510.760000
0
VERTEX
8
0
10
1118.000000
20
521.000000
0
VERTEX
8
0
10
1110.000000
20
529.000000
0
VERTEX
8
0
10
1107.240000
20
533.180000
42
-0.148469
0
VERTEX
8
0
10
1086.580000
20
586.940000
0
VERTEX
8
0
10
1086.000000
20
588.000000
0
VERTEX
8
0
10
1086.000000
20
692.000000
0
VERTEX
8
0
10
1088.470769
20
734.973846
0
VERTEX
8
0
10
1089.466926
20
750.970817
0
VERTEX
8
0
10
1095.439024
20
814.951220
0
VERTEX
8
0
10
1098.569231
20
841.053846
0
VERTEX
8
0
10
1136.430769
20
1087.946154
0
VERTEX
8
0
10
1140.445545
20
1123.955446
0
VERTEX
8
0
10
1145.531034
20
1186.027586
0
VERTEX
8
0
10
1147.476289
20
1223.978351
0
VERTEX
8
0
10
1149.000000
20
1260.000000
0
VERTEX
8
0
10
1149.000000
20
1327.000000
0
VERTEX
8
0
10
1148.000000
20
1336.000000
42
0.125082
0
VERTEX
8
0
10
1127.923077
20
1342.615385
0
VERTEX
8
0
10
1115.076923
20
1345.384615
0
VERTEX
8
0
10
1078.100000
20
1355.300000
0
VERTEX
8
0
10
1072.100000
20
1357.300000
0
VERTEX
8
0
10
1033.100000
20
1371.200000
0
VERTEX
8
0
10
1000.100000
20
1385.300000
0
VERTEX
8
0
10
864.100000
20
1456.200000
0
VERTEX
8
0
10
825.100000
20
1472.300000
0
VERTEX
8
0
10
794.911765
20
1481.647059
0
VERTEX
8
0
10
771.088235
20
1487.352941
0
VERTEX
8
0
10
739.951220
20
1492.560976
0
VERTEX
8
0
10
723.048780
20
1494.439024
0
VERTEX
8
0
10
683.000000
20
1497.000000
0
VERTEX
8
0
10
640.018464
20
1495.519941
42
0.114413
0
VERTEX
8
0
10
443.100000
20
1434.800000
0
VERTEX
8
0
10
372.100000
20
1396.800000
0
VERTEX
8
0
10
330.900000
20
1377.300000
0
VERTEX
8
0
10
302.900000
20
1366.200000
0
VERTEX
8
0
10
260.911765
20
1352.352941
0
VERTEX
8
0
10
258.088235
20
1351.647059
0
VERTEX
8
0
10
219.923077
20
1342.384615
0
VERTEX
8
0
10
216.076923
20
1341.615385
42
0.191011
0
VERTEX
8
0
10
201.700000
20
1336.100000
0
VERTEX
8
0
10
200.000000
20
1314.000000
0
VERTEX
8
0
10
200.000000
20
1274.000000
0
VERTEX
8
0
10
203.535398
20
1187.969027
0
VERTEX
8
0
10
206.455172
20
1148.037931
0
VERTEX
8
0
10
214.580000
20
1073.940000
0
VERTEX
8
0
10
223.405405
20
1014.067568
0
VERTEX
8
0
10
248.420000
20
857.060000
0
VERTEX
8
0
10
249.420000
20
850.060000
0
VERTEX
8
0
10
257.450820
20
779.040984
0
VERTEX
8
0
10
258.455172
20
767.037931
0
VERTEX
8
0
10
262.509992
20
697.990392
0
VERTEX
8
0
10
264.000000
20
647.000000
0
VERTEX
8
0
10
262.420000
20
585.940000
0
VERTEX
8
0
10
261.580000
20
580.060000
0
VERTEX
8
0
10
257.700000
20
564.100000
0
VERTEX
8
0
10
254.700000
20
555.100000
42
-0.150393
0
VERTEX
8
0
10
215.000000
20
509.000000
0
VERTEX
8
0
10
213.100000
20
507.800000
0
VERTEX
8
0
10
199.000000
20
497.000000
0
VERTEX
8
0
10
198.000000
20
496.000000
42
0.172959
0
VERTEX
8
0
10
197.529231
20
483.973846
42
0.116551
0
VERTEX
8
0
10
228.800000
20
351.900000
42
0.288170
0
VERTEX
8
0
10
397.100000
20
249.200000
0
VERTEX
8
0
10
401.100000
20
247.200000
0
VERTEX
8
0
10
448.100000
20
226.300000
0
VERTEX
8
0
10
451.900000
20
224.800000
0
VERTEX
8
0
10
496.088235
20
209.352941
0
VERTEX
8
0
10
527.911765
20
200.647059
0
VERTEX
8
0
10
568.932432
20
192.594595
0
VERTEX
8
0
10
582.940000
20
190.580000
0
VERTEX
8
0
10
622.964706
20
186.541176
0
VERTEX
8
0
10
641.007243
20
185.492541
0
VERTEX
8
0
10
708.000000
20
185.000000
0
SEQEND
0
ENDSEC
0
EOF
