0
SECTION
2
HEADER
9
$ACADVER
1
AC1003
9
$INSBASE
10
0.0
20
0.0
30
0.0
9
$EXTMIN
10
0.000
20
0.000
30
0.0
9
$EXTMAX
10
1586.000
20
1824.000
30
0.0
9
$LIMMIN
10
0.000
20
0.000
9
$LIMMAX
10
1586.000
20
1824.000
9
$LTSCALE
40
1.0
9
$LUNITS
70
2
9
$LUPREC
70
3
9
$LIMCHECK
70
0
9
$UCSNAME
2

9
$UCSORG
10
0.0
20
0.0
30
0.0
9
$UCSXDIR
10
1.0
20
0.0
30
0.0
9
$UCSYDIR
10
0.0
20
1.0
30
0.0
9
$WORLDVIEW
70
1
9
$UNITMODE
70
0
0
ENDSEC
0
SECTION
2
TABLES
0
TABLE
2
VPORT
70
1
0
VPORT
2
*ACTIVE
70
0
10
0.0
20
0.0
11
1.0
21
1.0
12
793.000
22
912.000
13
0.0
23
0.0
14
1.0
24
1.0
15
0.0
25
0.0
16
0.0
26
0.0
36
1.0
17
0.0
27
0.0
37
0.0
40
500.0
41
1.150
42
50.0
43
0.0
44
0.0
50
0.0
51
0.0
71
0
72
100
73
1
74
1
75
0
76
0
77
0
78
0
0
ENDTAB
0
TABLE
2
LTYPE
70
1
0
LTYPE
2
CONTINUOUS
70
64
3
Solid line
72
65
73
0
40
0.000
0
ENDTAB
0
TABLE
2
LAYER
70
1
0
LAYER
2
0
70
64
62
7
6
CONTINUOUS
0
ENDTAB
0
ENDSEC
0
SECTION
2
BLOCKS
0
ENDSEC
0
SECTION
2
ENTITIES
0
POLYLINE
8
0
6
CONTINUOUS
66
1
62
250
10
0.0
20
0.0
30
0.000000
0
VERTEX
8
0
10
463.000000
20
1651.000000
0
VERTEX
8
0
10
451.000000
20
1652.000000
0
SEQEND
0
POLYLINE
8
0
6
CONTINUOUS
66
1
62
250
10
0.0
20
0.0
30
0.000000
0
VERTEX
8
0
10
476.000000
20
1651.000000
0
VERTEX
8
0
10
488.000000
20
1651.000000
0
SEQEND
0
POLYLINE
8
0
6
CONTINUOUS
66
1
62
250
10
0.0
20
0.0
30
0.000000
0
VERTEX
8
0
10
501.000000
20
1651.000000
0
VERTEX
8
0
10
513.000000
20
1651.000000
0
SEQEND
0
POLYLINE
8
0
6
CONTINUOUS
66
1
62
250
10
0.0
20
0.0
30
0.000000
0
VERTEX
8
0
10
526.000000
20
1651.000000
0
VERTEX
8
0
10
538.000000
20
1651.000000
0
SEQEND
0
POLYLINE
8
0
6
CONTINUOUS
66
1
62
250
10
0.0
20
0.0
30
0.000000
0
VERTEX
8
0
10
551.000000
20
1651.000000
0
VERTEX
8
0
10
563.000000
20
1651.000000
0
SEQEND
0
POLYLINE
8
0
6
CONTINUOUS
66
1
62
250
10
0.0
20
0.0
30
0.000000
0
VERTEX
8
0
10
576.000000
20
1651.000000
0
VERTEX
8
0
10
588.000000
20
1651.000000
0
SEQEND
0
POLYLINE
8
0
6
CONTINUOUS
66
1
62
250
10
0.0
20
0.0
30
0.000000
0
VERTEX
8
0
10
601.000000
20
1651.000000
0
VERTEX
8
0
10
613.000000
20
1651.000000
0
SEQEND
0
POLYLINE
8
0
6
CONTINUOUS
66
1
62
250
10
0.0
20
0.0
30
0.000000
0
VERTEX
8
0
10
626.000000
20
1651.000000
0
VERTEX
8
0
10
638.000000
20
1651.000000
0
SEQEND
0
POLYLINE
8
0
6
CONTINUOUS
66
1
62
250
10
0.0
20
0.0
30
0.000000
0
VERTEX
8
0
10
651.000000
20
1651.000000
0
VERTEX
8
0
10
663.000000
20
1651.000000
0
SEQEND
0
POLYLINE
8
0
6
CONTINUOUS
66
1
62
250
10
0.0
20
0.0
30
0.000000
0
VERTEX
8
0
10
676.000000
20
1651.000000
0
VERTEX
8
0
10
688.000000
20
1651.000000
0
SEQEND
0
POLYLINE
8
0
6
CONTINUOUS
66
1
62
250
10
0.0
20
0.0
30
0.000000
0
VERTEX
8
0
10
701.000000
20
1651.000000
0
VERTEX
8
0
10
713.000000
20
1651.000000
0
SEQEND
0
POLYLINE
8
0
6
CONTINUOUS
66
1
62
250
10
0.0
20
0.0
30
0.000000
0
VERTEX
8
0
10
726.000000
20
1651.000000
0
VERTEX
8
0
10
738.000000
20
1651.000000
0
SEQEND
0
POLYLINE
8
0
6
CONTINUOUS
66
1
62
250
10
0.0
20
0.0
30
0.000000
0
VERTEX
8
0
10
751.000000
20
1651.000000
0
VERTEX
8
0
10
763.000000
20
1651.000000
0
SEQEND
0
POLYLINE
8
0
6
CONTINUOUS
66
1
62
250
10
0.0
20
0.0
30
0.000000
0
VERTEX
8
0
10
776.000000
20
1651.000000
0
VERTEX
8
0
10
788.000000
20
1651.000000
0
SEQEND
0
POLYLINE
8
0
6
CONTINUOUS
66
1
62
250
10
0.0
20
0.0
30
0.000000
0
VERTEX
8
0
10
801.000000
20
1651.000000
0
VERTEX
8
0
10
813.000000
20
1651.000000
0
SEQEND
0
POLYLINE
8
0
6
CONTINUOUS
66
1
62
250
10
0.0
20
0.0
30
0.000000
0
VERTEX
8
0
10
826.000000
20
1651.000000
0
VERTEX
8
0
10
838.000000
20
1651.000000
0
SEQEND
0
POLYLINE
8
0
6
CONTINUOUS
66
1
62
250
10
0.0
20
0.0
30
0.000000
0
VERTEX
8
0
10
851.000000
20
1651.000000
0
VERTEX
8
0
10
863.000000
20
1651.000000
0
SEQEND
0
POLYLINE
8
0
6
CONTINUOUS
66
1
62
250
10
0.0
20
0.0
30
0.000000
0
VERTEX
8
0
10
876.000000
20
1651.000000
0
VERTEX
8
0
10
888.000000
20
1651.000000
0
SEQEND
0
POLYLINE
8
0
6
CONTINUOUS
66
1
62
250
10
0.0
20
0.0
30
0.000000
0
VERTEX
8
0
10
901.000000
20
1651.000000
0
VERTEX
8
0
10
913.000000
20
1651.000000
0
SEQEND
0
POLYLINE
8
0
6
CONTINUOUS
66
1
62
250
10
0.0
20
0.0
30
0.000000
0
VERTEX
8
0
10
926.000000
20
1651.000000
0
VERTEX
8
0
10
938.000000
20
1651.000000
0
SEQEND
0
POLYLINE
8
0
6
CONTINUOUS
66
1
62
250
10
0.0
20
0.0
30
0.000000
0
VERTEX
8
0
10
951.000000
20
1651.000000
0
VERTEX
8
0
10
963.000000
20
1651.000000
0
SEQEND
0
POLYLINE
8
0
6
CONTINUOUS
66
1
62
250
10
0.0
20
0.0
30
0.000000
0
VERTEX
8
0
10
976.000000
20
1651.000000
0
VERTEX
8
0
10
988.000000
20
1651.000000
0
SEQEND
0
POLYLINE
8
0
6
CONTINUOUS
66
1
62
250
10
0.0
20
0.0
30
0.000000
0
VERTEX
8
0
10
1001.000000
20
1651.000000
0
VERTEX
8
0
10
1013.000000
20
1651.000000
0
SEQEND
0
POLYLINE
8
0
6
CONTINUOUS
66
1
62
250
10
0.0
20
0.0
30
0.000000
0
VERTEX
8
0
10
1026.000000
20
1651.000000
0
VERTEX
8
0
10
1038.000000
20
1651.000000
0
SEQEND
0
POLYLINE
8
0
6
CONTINUOUS
66
1
62
250
10
0.0
20
0.0
30
0.000000
0
VERTEX
8
0
10
1051.000000
20
1651.000000
0
VERTEX
8
0
10
1063.000000
20
1651.000000
0
SEQEND
0
POLYLINE
8
0
6
CONTINUOUS
66
1
62
250
10
0.0
20
0.0
30
0.000000
0
VERTEX
8
0
10
1076.000000
20
1651.000000
0
VERTEX
8
0
10
1088.000000
20
1651.000000
0
SEQEND
0
POLYLINE
8
0
6
CONTINUOUS
66
1
62
250
10
0.0
20
0.0
30
0.000000
0
VERTEX
8
0
10
1101.000000
20
1651.000000
0
VERTEX
8
0
10
1113.000000
20
1651.000000
0
SEQEND
0
POLYLINE
8
0
6
CONTINUOUS
66
1
62
250
10
0.0
20
0.0
30
0.000000
0
VERTEX
8
0
10
1126.000000
20
1651.000000
0
VERTEX
8
0
10
1136.000000
20
1651.000000
0
SEQEND
0
POLYLINE
8
0
6
CONTINUOUS
66
1
62
250
10
0.0
20
0.0
30
0.000000
0
VERTEX
8
0
10
451.000000
20
1161.000000
0
VERTEX
8
0
10
464.000000
20
1161.000000
0
SEQEND
0
POLYLINE
8
0
6
CONTINUOUS
66
1
62
250
10
0.0
20
0.0
30
0.000000
0
VERTEX
8
0
10
478.000000
20
1161.000000
0
VERTEX
8
0
10
489.000000
20
1161.000000
0
SEQEND
0
POLYLINE
8
0
6
CONTINUOUS
66
1
62
250
10
0.0
20
0.0
30
0.000000
0
VERTEX
8
0
10
503.000000
20
1161.000000
0
VERTEX
8
0
10
514.000000
20
1161.000000
0
SEQEND
0
POLYLINE
8
0
6
CONTINUOUS
66
1
62
250
10
0.0
20
0.0
30
0.000000
0
VERTEX
8
0
10
528.000000
20
1161.000000
0
VERTEX
8
0
10
539.000000
20
1161.000000
0
SEQEND
0
POLYLINE
8
0
6
CONTINUOUS
66
1
62
250
10
0.0
20
0.0
30
0.000000
0
VERTEX
8
0
10
553.000000
20
1161.000000
0
VERTEX
8
0
10
564.000000
20
1161.000000
0
SEQEND
0
POLYLINE
8
0
6
CONTINUOUS
66
1
62
250
10
0.0
20
0.0
30
0.000000
0
VERTEX
8
0
10
578.000000
20
1161.000000
0
VERTEX
8
0
10
589.000000
20
1161.000000
0
SEQEND
0
POLYLINE
8
0
6
CONTINUOUS
66
1
62
250
10
0.0
20
0.0
30
0.000000
0
VERTEX
8
0
10
603.000000
20
1161.000000
0
VERTEX
8
0
10
614.000000
20
1161.000000
0
SEQEND
0
POLYLINE
8
0
6
CONTINUOUS
66
1
62
250
10
0.0
20
0.0
30
0.000000
0
VERTEX
8
0
10
628.000000
20
1161.000000
0
VERTEX
8
0
10
639.000000
20
1161.000000
0
SEQEND
0
POLYLINE
8
0
6
CONTINUOUS
66
1
62
250
10
0.0
20
0.0
30
0.000000
0
VERTEX
8
0
10
653.000000
20
1161.000000
0
VERTEX
8
0
10
664.000000
20
1161.000000
0
SEQEND
0
POLYLINE
8
0
6
CONTINUOUS
66
1
62
250
10
0.0
20
0.0
30
0.000000
0
VERTEX
8
0
10
678.000000
20
1161.000000
0
VERTEX
8
0
10
689.000000
20
1161.000000
0
SEQEND
0
POLYLINE
8
0
6
CONTINUOUS
66
1
62
250
10
0.0
20
0.0
30
0.000000
0
VERTEX
8
0
10
703.000000
20
1161.000000
0
VERTEX
8
0
10
714.000000
20
1161.000000
0
SEQEND
0
POLYLINE
8
0
6
CONTINUOUS
66
1
62
250
10
0.0
20
0.0
30
0.000000
0
VERTEX
8
0
10
728.000000
20
1161.000000
0
VERTEX
8
0
10
739.000000
20
1161.000000
0
SEQEND
0
POLYLINE
8
0
6
CONTINUOUS
66
1
62
250
10
0.0
20
0.0
30
0.000000
0
VERTEX
8
0
10
753.000000
20
1161.000000
0
VERTEX
8
0
10
764.000000
20
1161.000000
0
SEQEND
0
POLYLINE
8
0
6
CONTINUOUS
66
1
62
250
10
0.0
20
0.0
30
0.000000
0
VERTEX
8
0
10
778.000000
20
1161.000000
0
VERTEX
8
0
10
789.000000
20
1161.000000
0
SEQEND
0
POLYLINE
8
0
6
CONTINUOUS
66
1
62
250
10
0.0
20
0.0
30
0.000000
0
VERTEX
8
0
10
803.000000
20
1161.000000
0
VERTEX
8
0
10
814.000000
20
1161.000000
0
SEQEND
0
POLYLINE
8
0
6
CONTINUOUS
66
1
62
250
10
0.0
20
0.0
30
0.000000
0
VERTEX
8
0
10
828.000000
20
1161.000000
0
VERTEX
8
0
10
839.000000
20
1161.000000
0
SEQEND
0
POLYLINE
8
0
6
CONTINUOUS
66
1
62
250
10
0.0
20
0.0
30
0.000000
0
VERTEX
8
0
10
853.000000
20
1161.000000
0
VERTEX
8
0
10
864.000000
20
1161.000000
0
SEQEND
0
POLYLINE
8
0
6
CONTINUOUS
66
1
62
250
10
0.0
20
0.0
30
0.000000
0
VERTEX
8
0
10
878.000000
20
1161.000000
0
VERTEX
8
0
10
889.000000
20
1161.000000
0
SEQEND
0
POLYLINE
8
0
6
CONTINUOUS
66
1
62
250
10
0.0
20
0.0
30
0.000000
0
VERTEX
8
0
10
903.000000
20
1161.000000
0
VERTEX
8
0
10
914.000000
20
1161.000000
0
SEQEND
0
POLYLINE
8
0
6
CONTINUOUS
66
1
62
250
10
0.0
20
0.0
30
0.000000
0
VERTEX
8
0
10
928.000000
20
1161.000000
0
VERTEX
8
0
10
939.000000
20
1161.000000
0
SEQEND
0
POLYLINE
8
0
6
CONTINUOUS
66
1
62
250
10
0.0
20
0.0
30
0.000000
0
VERTEX
8
0
10
953.000000
20
1161.000000
0
VERTEX
8
0
10
964.000000
20
1161.000000
0
SEQEND
0
POLYLINE
8
0
6
CONTINUOUS
66
1
62
250
10
0.0
20
0.0
30
0.000000
0
VERTEX
8
0
10
978.000000
20
1161.000000
0
VERTEX
8
0
10
989.000000
20
1161.000000
0
SEQEND
0
POLYLINE
8
0
6
CONTINUOUS
66
1
62
250
10
0.0
20
0.0
30
0.000000
0
VERTEX
8
0
10
1003.000000
20
1161.000000
0
VERTEX
8
0
10
1014.000000
20
1161.000000
0
SEQEND
0
POLYLINE
8
0
6
CONTINUOUS
66
1
62
250
10
0.0
20
0.0
30
0.000000
0
VERTEX
8
0
10
1028.000000
20
1161.000000
0
VERTEX
8
0
10
1039.000000
20
1161.000000
0
SEQEND
0
POLYLINE
8
0
6
CONTINUOUS
66
1
62
250
10
0.0
20
0.0
30
0.000000
0
VERTEX
8
0
10
1053.000000
20
1161.000000
0
VERTEX
8
0
10
1064.000000
20
1161.000000
0
SEQEND
0
POLYLINE
8
0
6
CONTINUOUS
66
1
62
250
10
0.0
20
0.0
30
0.000000
0
VERTEX
8
0
10
1078.000000
20
1161.000000
0
VERTEX
8
0
10
1089.000000
20
1161.000000
0
SEQEND
0
POLYLINE
8
0
6
CONTINUOUS
66
1
62
250
10
0.0
20
0.0
30
0.000000
0
VERTEX
8
0
10
1103.000000
20
1161.000000
0
VERTEX
8
0
10
1114.000000
20
1161.000000
0
SEQEND
0
POLYLINE
8
0
6
CONTINUOUS
66
1
62
250
10
0.0
20
0.0
30
0.000000
0
VERTEX
8
0
10
1128.000000
20
1161.000000
0
VERTEX
8
0
10
1136.000000
20
1161.000000
0
SEQEND
0
POLYLINE
8
0
6
CONTINUOUS
66
1
62
250
10
0.0
20
0.0
30
0.000000
0
VERTEX
8
0
10
451.000000
20
1139.000000
0
VERTEX
8
0
10
451.000000
20
1150.000000
0
SEQEND
0
POLYLINE
8
0
6
CONTINUOUS
66
1
62
250
10
0.0
20
0.0
30
0.000000
0
VERTEX
8
0
10
1136.000000
20
1118.000000
0
VERTEX
8
0
10
1136.000000
20
1128.000000
0
SEQEND
0
POLYLINE
8
0
6
CONTINUOUS
66
1
62
250
10
0.0
20
0.0
30
0.000000
0
VERTEX
8
0
10
451.000000
20
1114.000000
0
VERTEX
8
0
10
451.000000
20
1125.000000
0
SEQEND
0
POLYLINE
8
0
6
CONTINUOUS
66
1
62
250
10
0.0
20
0.0
30
0.000000
0
VERTEX
8
0
10
1136.000000
20
1093.000000
0
VERTEX
8
0
10
1136.000000
20
1103.000000
0
SEQEND
0
POLYLINE
8
0
6
CONTINUOUS
66
1
62
250
10
0.0
20
0.0
30
0.000000
0
VERTEX
8
0
10
451.000000
20
1089.000000
0
VERTEX
8
0
10
451.000000
20
1100.000000
0
SEQEND
0
POLYLINE
8
0
6
CONTINUOUS
66
1
62
250
10
0.0
20
0.0
30
0.000000
0
VERTEX
8
0
10
1136.000000
20
1068.000000
0
VERTEX
8
0
10
1136.000000
20
1078.000000
0
SEQEND
0
POLYLINE
8
0
6
CONTINUOUS
66
1
62
250
10
0.0
20
0.0
30
0.000000
0
VERTEX
8
0
10
451.000000
20
1064.000000
0
VERTEX
8
0
10
451.000000
20
1075.000000
0
SEQEND
0
POLYLINE
8
0
6
CONTINUOUS
66
1
62
250
10
0.0
20
0.0
30
0.000000
0
VERTEX
8
0
10
1136.000000
20
1043.000000
0
VERTEX
8
0
10
1136.000000
20
1053.000000
0
SEQEND
0
POLYLINE
8
0
6
CONTINUOUS
66
1
62
250
10
0.0
20
0.0
30
0.000000
0
VERTEX
8
0
10
451.000000
20
1039.000000
0
VERTEX
8
0
10
451.000000
20
1050.000000
0
SEQEND
0
POLYLINE
8
0
6
CONTINUOUS
66
1
62
250
10
0.0
20
0.0
30
0.000000
0
VERTEX
8
0
10
1136.000000
20
1018.000000
0
VERTEX
8
0
10
1136.000000
20
1028.000000
0
SEQEND
0
POLYLINE
8
0
6
CONTINUOUS
66
1
62
250
10
0.0
20
0.0
30
0.000000
0
VERTEX
8
0
10
451.000000
20
1014.000000
0
VERTEX
8
0
10
451.000000
20
1025.000000
0
SEQEND
0
POLYLINE
8
0
6
CONTINUOUS
66
1
62
250
10
0.0
20
0.0
30
0.000000
0
VERTEX
8
0
10
1136.000000
20
993.000000
0
VERTEX
8
0
10
1136.000000
20
1003.000000
0
SEQEND
0
POLYLINE
8
0
6
CONTINUOUS
66
1
62
250
10
0.0
20
0.0
30
0.000000
0
VERTEX
8
0
10
451.000000
20
989.000000
0
VERTEX
8
0
10
451.000000
20
1000.000000
0
SEQEND
0
POLYLINE
8
0
6
CONTINUOUS
66
1
62
250
10
0.0
20
0.0
30
0.000000
0
VERTEX
8
0
10
1136.000000
20
968.000000
0
VERTEX
8
0
10
1136.000000
20
978.000000
0
SEQEND
0
POLYLINE
8
0
6
CONTINUOUS
66
1
62
250
10
0.0
20
0.0
30
0.000000
0
VERTEX
8
0
10
451.000000
20
964.000000
0
VERTEX
8
0
10
451.000000
20
975.000000
0
SEQEND
0
POLYLINE
8
0
6
CONTINUOUS
66
1
62
250
10
0.0
20
0.0
30
0.000000
0
VERTEX
8
0
10
1136.000000
20
943.000000
0
VERTEX
8
0
10
1136.000000
20
953.000000
0
SEQEND
0
POLYLINE
8
0
6
CONTINUOUS
66
1
62
250
10
0.0
20
0.0
30
0.000000
0
VERTEX
8
0
10
451.000000
20
939.000000
0
VERTEX
8
0
10
451.000000
20
950.000000
0
SEQEND
0
POLYLINE
8
0
6
CONTINUOUS
66
1
62
250
10
0.0
20
0.0
30
0.000000
0
VERTEX
8
0
10
1136.000000
20
918.000000
0
VERTEX
8
0
10
1136.000000
20
928.000000
0
SEQEND
0
POLYLINE
8
0
6
CONTINUOUS
66
1
62
250
10
0.0
20
0.0
30
0.000000
0
VERTEX
8
0
10
451.000000
20
914.000000
0
VERTEX
8
0
10
451.000000
20
925.000000
0
SEQEND
0
POLYLINE
8
0
6
CONTINUOUS
66
1
62
250
10
0.0
20
0.0
30
0.000000
0
VERTEX
8
0
10
1136.000000
20
893.000000
0
VERTEX
8
0
10
1136.000000
20
903.000000
0
SEQEND
0
POLYLINE
8
0
6
CONTINUOUS
66
1
62
250
10
0.0
20
0.0
30
0.000000
0
VERTEX
8
0
10
451.000000
20
889.000000
0
VERTEX
8
0
10
451.000000
20
900.000000
0
SEQEND
0
POLYLINE
8
0
6
CONTINUOUS
66
1
62
250
10
0.0
20
0.0
30
0.000000
0
VERTEX
8
0
10
1136.000000
20
875.000000
0
VERTEX
8
0
10
1136.000000
20
878.000000
0
SEQEND
0
POLYLINE
8
0
6
CONTINUOUS
66
1
62
250
10
0.0
20
0.0
30
0.000000
0
VERTEX
8
0
10
262.000000
20
866.000000
0
VERTEX
8
0
10
263.000000
20
1109.000000
42
-0.067407
0
VERTEX
8
0
10
276.923077
20
1112.384615
0
VERTEX
8
0
10
399.932432
20
1135.405405
42
0.079318
0
VERTEX
8
0
10
424.000000
20
1155.000000
0
VERTEX
8
0
10
449.920509
20
1156.993641
42
0.091053
0
VERTEX
8
0
10
451.000000
20
1161.000000
0
VERTEX
8
0
10
451.000000
20
1652.000000
0
VERTEX
8
0
10
466.647059
20
1724.088235
0
VERTEX
8
0
10
470.000000
20
1739.000000
0
VERTEX
8
0
10
1119.000000
20
1739.000000
0
VERTEX
8
0
10
1121.000000
20
1737.000000
0
VERTEX
8
0
10
1135.615385
20
1654.923077
0
VERTEX
8
0
10
1136.000000
20
1651.000000
0
VERTEX
8
0
10
1136.000000
20
1161.000000
0
VERTEX
8
0
10
1136.000000
20
1156.000000
0
VERTEX
8
0
10
1137.000000
20
1155.000000
42
0.082510
0
VERTEX
8
0
10
1136.000000
20
1143.000000
0
SEQEND
0
POLYLINE
8
0
6
CONTINUOUS
66
1
62
250
10
0.0
20
0.0
30
0.000000
0
VERTEX
8
0
10
1322.000000
20
866.000000
0
VERTEX
8
0
10
1322.000000
20
1109.000000
0
VERTEX
8
0
10
1319.000000
20
1112.000000
0
VERTEX
8
0
10
1188.932432
20
1135.594595
0
VERTEX
8
0
10
1184.067568
20
1136.405405
42
-0.072045
0
VERTEX
8
0
10
1166.820000
20
1148.760000
0
VERTEX
8
0
10
1161.804878
20
1152.756098
0
VERTEX
8
0
10
1137.900000
20
1154.800000
0
VERTEX
8
0
10
1137.000000
20
1155.000000
0
SEQEND
0
POLYLINE
8
0
6
CONTINUOUS
66
1
62
251
10
0.0
20
0.0
30
0.000000
0
VERTEX
8
0
10
459.000000
20
863.000000
0
VERTEX
8
0
10
471.000000
20
863.000000
0
SEQEND
0
POLYLINE
8
0
6
CONTINUOUS
66
1
62
251
10
0.0
20
0.0
30
0.000000
0
VERTEX
8
0
10
484.000000
20
863.000000
0
VERTEX
8
0
10
496.000000
20
863.000000
0
SEQEND
0
POLYLINE
8
0
6
CONTINUOUS
66
1
62
251
10
0.0
20
0.0
30
0.000000
0
VERTEX
8
0
10
509.000000
20
863.000000
0
VERTEX
8
0
10
521.000000
20
863.000000
0
SEQEND
0
POLYLINE
8
0
6
CONTINUOUS
66
1
62
251
10
0.0
20
0.0
30
0.000000
0
VERTEX
8
0
10
534.000000
20
863.000000
0
VERTEX
8
0
10
546.000000
20
863.000000
0
SEQEND
0
POLYLINE
8
0
6
CONTINUOUS
66
1
62
251
10
0.0
20
0.0
30
0.000000
0
VERTEX
8
0
10
559.000000
20
863.000000
0
VERTEX
8
0
10
571.000000
20
863.000000
0
SEQEND
0
POLYLINE
8
0
6
CONTINUOUS
66
1
62
251
10
0.0
20
0.0
30
0.000000
0
VERTEX
8
0
10
584.000000
20
863.000000
0
VERTEX
8
0
10
596.000000
20
863.000000
0
SEQEND
0
POLYLINE
8
0
6
CONTINUOUS
66
1
62
251
10
0.0
20
0.0
30
0.000000
0
VERTEX
8
0
10
609.000000
20
863.000000
0
VERTEX
8
0
10
621.000000
20
863.000000
0
SEQEND
0
POLYLINE
8
0
6
CONTINUOUS
66
1
62
251
10
0.0
20
0.0
30
0.000000
0
VERTEX
8
0
10
634.000000
20
863.000000
0
VERTEX
8
0
10
646.000000
20
863.000000
0
SEQEND
0
POLYLINE
8
0
6
CONTINUOUS
66
1
62
251
10
0.0
20
0.0
30
0.000000
0
VERTEX
8
0
10
659.000000
20
863.000000
0
VERTEX
8
0
10
671.000000
20
863.000000
0
SEQEND
0
POLYLINE
8
0
6
CONTINUOUS
66
1
62
251
10
0.0
20
0.0
30
0.000000
0
VERTEX
8
0
10
684.000000
20
863.000000
0
VERTEX
8
0
10
696.000000
20
863.000000
0
SEQEND
0
POLYLINE
8
0
6
CONTINUOUS
66
1
62
251
10
0.0
20
0.0
30
0.000000
0
VERTEX
8
0
10
709.000000
20
863.000000
0
VERTEX
8
0
10
721.000000
20
863.000000
0
SEQEND
0
POLYLINE
8
0
6
CONTINUOUS
66
1
62
251
10
0.0
20
0.0
30
0.000000
0
VERTEX
8
0
10
734.000000
20
863.000000
0
VERTEX
8
0
10
746.000000
20
863.000000
0
SEQEND
0
POLYLINE
8
0
6
CONTINUOUS
66
1
62
251
10
0.0
20
0.0
30
0.000000
0
VERTEX
8
0
10
759.000000
20
863.000000
0
VERTEX
8
0
10
771.000000
20
863.000000
0
SEQEND
0
POLYLINE
8
0
6
CONTINUOUS
66
1
62
251
10
0.0
20
0.0
30
0.000000
0
VERTEX
8
0
10
784.000000
20
863.000000
0
VERTEX
8
0
10
796.000000
20
863.000000
0
SEQEND
0
POLYLINE
8
0
6
CONTINUOUS
66
1
62
251
10
0.0
20
0.0
30
0.000000
0
VERTEX
8
0
10
809.000000
20
863.000000
0
VERTEX
8
0
10
821.000000
20
863.000000
0
SEQEND
0
POLYLINE
8
0
6
CONTINUOUS
66
1
62
252
10
0.0
20
0.0
30
0.000000
0
VERTEX
8
0
10
834.000000
20
863.000000
0
VERTEX
8
0
10
845.000000
20
863.000000
0
VERTEX
8
0
10
846.000000
20
864.000000
0
SEQEND
0
POLYLINE
8
0
6
CONTINUOUS
66
1
62
252
10
0.0
20
0.0
30
0.000000
0
VERTEX
8
0
10
859.000000
20
863.000000
0
VERTEX
8
0
10
870.000000
20
863.000000
0
VERTEX
8
0
10
871.000000
20
864.000000
0
SEQEND
0
POLYLINE
8
0
6
CONTINUOUS
66
1
62
252
10
0.0
20
0.0
30
0.000000
0
VERTEX
8
0
10
884.000000
20
863.000000
0
VERTEX
8
0
10
895.000000
20
863.000000
0
VERTEX
8
0
10
896.000000
20
864.000000
0
SEQEND
0
POLYLINE
8
0
6
CONTINUOUS
66
1
62
252
10
0.0
20
0.0
30
0.000000
0
VERTEX
8
0
10
909.000000
20
863.000000
0
VERTEX
8
0
10
920.000000
20
863.000000
0
VERTEX
8
0
10
921.000000
20
864.000000
0
SEQEND
0
POLYLINE
8
0
6
CONTINUOUS
66
1
62
252
10
0.0
20
0.0
30
0.000000
0
VERTEX
8
0
10
934.000000
20
863.000000
0
VERTEX
8
0
10
945.000000
20
863.000000
0
VERTEX
8
0
10
946.000000
20
864.000000
0
SEQEND
0
POLYLINE
8
0
6
CONTINUOUS
66
1
62
252
10
0.0
20
0.0
30
0.000000
0
VERTEX
8
0
10
959.000000
20
863.000000
0
VERTEX
8
0
10
970.000000
20
863.000000
0
VERTEX
8
0
10
971.000000
20
864.000000
0
SEQEND
0
POLYLINE
8
0
6
CONTINUOUS
66
1
62
252
10
0.0
20
0.0
30
0.000000
0
VERTEX
8
0
10
984.000000
20
863.000000
0
VERTEX
8
0
10
995.000000
20
863.000000
0
VERTEX
8
0
10
996.000000
20
864.000000
0
SEQEND
0
POLYLINE
8
0
6
CONTINUOUS
66
1
62
252
10
0.0
20
0.0
30
0.000000
0
VERTEX
8
0
10
1009.000000
20
863.000000
0
VERTEX
8
0
10
1020.000000
20
863.000000
0
VERTEX
8
0
10
1021.000000
20
864.000000
0
SEQEND
0
POLYLINE
8
0
6
CONTINUOUS
66
1
62
252
10
0.0
20
0.0
30
0.000000
0
VERTEX
8
0
10
1034.000000
20
863.000000
0
VERTEX
8
0
10
1045.000000
20
863.000000
0
VERTEX
8
0
10
1046.000000
20
864.000000
0
SEQEND
0
POLYLINE
8
0
6
CONTINUOUS
66
1
62
252
10
0.0
20
0.0
30
0.000000
0
VERTEX
8
0
10
1059.000000
20
863.000000
0
VERTEX
8
0
10
1070.000000
20
863.000000
0
VERTEX
8
0
10
1071.000000
20
864.000000
0
SEQEND
0
POLYLINE
8
0
6
CONTINUOUS
66
1
62
252
10
0.0
20
0.0
30
0.000000
0
VERTEX
8
0
10
1084.000000
20
863.000000
0
VERTEX
8
0
10
1095.000000
20
863.000000
0
VERTEX
8
0
10
1096.000000
20
864.000000
0
SEQEND
0
POLYLINE
8
0
6
CONTINUOUS
66
1
62
252
10
0.0
20
0.0
30
0.000000
0
VERTEX
8
0
10
1109.000000
20
863.000000
0
VERTEX
8
0
10
1120.000000
20
863.000000
0
VERTEX
8
0
10
1121.000000
20
864.000000
0
SEQEND
0
POLYLINE
8
0
6
CONTINUOUS
66
1
62
250
10
0.0
20
0.0
30
0.000000
0
VERTEX
8
0
10
448.000000
20
854.000000
0
VERTEX
8
0
10
448.700000
20
857.100000
42
0.104670
0
VERTEX
8
0
10
450.000000
20
865.000000
0
VERTEX
8
0
10
451.000000
20
875.000000
0
SEQEND
0
POLYLINE
8
0
6
CONTINUOUS
66
1
62
250
10
0.0
20
0.0
30
0.000000
0
VERTEX
8
0
10
466.000000
20
844.000000
0
VERTEX
8
0
10
459.000000
20
853.000000
0
SEQEND
0
POLYLINE
8
0
6
CONTINUOUS
66
1
62
250
10
0.0
20
0.0
30
0.000000
0
VERTEX
8
0
10
1143.000000
20
841.000000
0
VERTEX
8
0
10
1140.000000
20
851.000000
0
SEQEND
0
POLYLINE
8
0
6
CONTINUOUS
66
1
62
250
10
0.0
20
0.0
30
0.000000
0
VERTEX
8
0
10
1118.000000
20
832.000000
42
-0.120674
0
VERTEX
8
0
10
1124.000000
20
841.000000
0
SEQEND
0
POLYLINE
8
0
6
CONTINUOUS
66
1
62
250
10
0.0
20
0.0
30
0.000000
0
VERTEX
8
0
10
441.000000
20
829.000000
0
VERTEX
8
0
10
444.000000
20
840.000000
0
SEQEND
0
POLYLINE
8
0
6
CONTINUOUS
66
1
62
250
10
0.0
20
0.0
30
0.000000
0
VERTEX
8
0
10
480.000000
20
823.000000
0
VERTEX
8
0
10
474.000000
20
832.000000
0
SEQEND
0
POLYLINE
8
0
6
CONTINUOUS
66
1
62
250
10
0.0
20
0.0
30
0.000000
0
VERTEX
8
0
10
1149.000000
20
817.000000
0
VERTEX
8
0
10
1146.000000
20
827.000000
0
SEQEND
0
POLYLINE
8
0
6
CONTINUOUS
66
1
62
250
10
0.0
20
0.0
30
0.000000
0
VERTEX
8
0
10
1103.000000
20
813.000000
0
VERTEX
8
0
10
1106.200000
20
816.900000
42
-0.121788
0
VERTEX
8
0
10
1110.000000
20
821.000000
0
SEQEND
0
POLYLINE
8
0
6
CONTINUOUS
66
1
62
250
10
0.0
20
0.0
30
0.000000
0
VERTEX
8
0
10
434.000000
20
806.000000
0
VERTEX
8
0
10
437.000000
20
816.000000
0
SEQEND
0
POLYLINE
8
0
6
CONTINUOUS
66
1
62
250
10
0.0
20
0.0
30
0.000000
0
VERTEX
8
0
10
494.000000
20
803.000000
0
VERTEX
8
0
10
488.000000
20
812.000000
0
SEQEND
0
POLYLINE
8
0
6
CONTINUOUS
66
1
62
250
10
0.0
20
0.0
30
0.000000
0
VERTEX
8
0
10
162.000000
20
800.000000
0
VERTEX
8
0
10
157.000000
20
802.000000
42
-0.185498
0
VERTEX
8
0
10
152.488648
20
810.010859
0
VERTEX
8
0
10
151.000000
20
855.000000
0
VERTEX
8
0
10
152.420000
20
862.940000
0
VERTEX
8
0
10
154.004672
20
864.504761
0
VERTEX
8
0
10
262.000000
20
866.000000
0
VERTEX
8
0
10
450.000000
20
865.000000
0
SEQEND
0
POLYLINE
8
0
6
CONTINUOUS
66
1
62
250
10
0.0
20
0.0
30
0.000000
0
VERTEX
8
0
10
1422.000000
20
800.000000
0
VERTEX
8
0
10
1427.000000
20
802.000000
42
0.144790
0
VERTEX
8
0
10
1431.511352
20
811.010859
0
VERTEX
8
0
10
1432.000000
20
855.000000
0
VERTEX
8
0
10
1432.000000
20
863.000000
0
VERTEX
8
0
10
1430.000000
20
865.000000
0
VERTEX
8
0
10
1322.900000
20
865.800000
0
VERTEX
8
0
10
1322.000000
20
866.000000
0
VERTEX
8
0
10
1137.000000
20
865.000000
0
SEQEND
0
POLYLINE
8
0
6
CONTINUOUS
66
1
62
250
10
0.0
20
0.0
30
0.000000
0
VERTEX
8
0
10
1089.000000
20
793.000000
0
VERTEX
8
0
10
1095.000000
20
801.000000
0
SEQEND
0
POLYLINE
8
0
6
CONTINUOUS
66
1
62
250
10
0.0
20
0.0
30
0.000000
0
VERTEX
8
0
10
1155.000000
20
793.000000
0
VERTEX
8
0
10
1153.000000
20
803.000000
0
SEQEND
0
POLYLINE
8
0
6
CONTINUOUS
66
1
62
250
10
0.0
20
0.0
30
0.000000
0
VERTEX
8
0
10
156.000000
20
789.000000
42
-0.096159
0
VERTEX
8
0
10
157.000000
20
802.000000
0
SEQEND
0
POLYLINE
8
0
6
CONTINUOUS
66
1
62
250
10
0.0
20
0.0
30
0.000000
0
VERTEX
8
0
10
1428.000000
20
789.000000
0
VERTEX
8
0
10
1427.000000
20
802.000000
0
SEQEND
0
POLYLINE
8
0
6
CONTINUOUS
66
1
62
250
10
0.0
20
0.0
30
0.000000
0
VERTEX
8
0
10
509.000000
20
783.000000
42
-0.079019
0
VERTEX
8
0
10
502.000000
20
791.000000
0
SEQEND
0
POLYLINE
8
0
6
CONTINUOUS
66
1
62
247
10
0.0
20
0.0
30
0.000000
0
VERTEX
8
0
10
427.000000
20
781.000000
42
0.077675
0
VERTEX
8
0
10
430.000000
20
792.000000
0
SEQEND
0
POLYLINE
8
0
6
CONTINUOUS
66
1
62
250
10
0.0
20
0.0
30
0.000000
0
VERTEX
8
0
10
1074.000000
20
772.000000
0
VERTEX
8
0
10
1081.000000
20
781.000000
0
SEQEND
0
POLYLINE
8
0
6
CONTINUOUS
66
1
62
250
10
0.0
20
0.0
30
0.000000
0
VERTEX
8
0
10
1162.000000
20
768.000000
0
VERTEX
8
0
10
1159.000000
20
779.000000
0
SEQEND
0
POLYLINE
8
0
6
CONTINUOUS
66
1
62
250
10
0.0
20
0.0
30
0.000000
0
VERTEX
8
0
10
156.000000
20
764.000000
0
VERTEX
8
0
10
156.000000
20
775.000000
0
SEQEND
0
POLYLINE
8
0
6
CONTINUOUS
66
1
62
250
10
0.0
20
0.0
30
0.000000
0
VERTEX
8
0
10
1428.000000
20
764.000000
0
VERTEX
8
0
10
1428.000000
20
775.000000
0
SEQEND
0
POLYLINE
8
0
6
CONTINUOUS
66
1
62
250
10
0.0
20
0.0
30
0.000000
0
VERTEX
8
0
10
522.000000
20
762.000000
42
0.071762
0
VERTEX
8
0
10
516.000000
20
771.000000
0
SEQEND
0
POLYLINE
8
0
6
CONTINUOUS
66
1
62
250
10
0.0
20
0.0
30
0.000000
0
VERTEX
8
0
10
421.000000
20
757.000000
0
VERTEX
8
0
10
423.352941
20
766.911765
0
VERTEX
8
0
10
424.000000
20
768.000000
0
SEQEND
0
POLYLINE
8
0
6
CONTINUOUS
66
1
62
250
10
0.0
20
0.0
30
0.000000
0
VERTEX
8
0
10
1060.000000
20
751.000000
42
-0.120674
0
VERTEX
8
0
10
1066.000000
20
760.000000
0
SEQEND
0
POLYLINE
8
0
6
CONTINUOUS
66
1
62
250
10
0.0
20
0.0
30
0.000000
0
VERTEX
8
0
10
1168.000000
20
744.000000
0
VERTEX
8
0
10
1165.000000
20
755.000000
0
SEQEND
0
POLYLINE
8
0
6
CONTINUOUS
66
1
62
250
10
0.0
20
0.0
30
0.000000
0
VERTEX
8
0
10
537.000000
20
741.000000
0
VERTEX
8
0
10
531.000000
20
750.000000
0
SEQEND
0
POLYLINE
8
0
6
CONTINUOUS
66
1
62
250
10
0.0
20
0.0
30
0.000000
0
VERTEX
8
0
10
156.000000
20
739.000000
0
VERTEX
8
0
10
156.000000
20
750.000000
0
SEQEND
0
POLYLINE
8
0
6
CONTINUOUS
66
1
62
250
10
0.0
20
0.0
30
0.000000
0
VERTEX
8
0
10
1428.000000
20
739.000000
0
VERTEX
8
0
10
1428.000000
20
750.000000
0
SEQEND
0
POLYLINE
8
0
6
CONTINUOUS
66
1
62
250
10
0.0
20
0.0
30
0.000000
0
VERTEX
8
0
10
414.000000
20
733.000000
0
VERTEX
8
0
10
417.000000
20
744.000000
0
SEQEND
0
POLYLINE
8
0
6
CONTINUOUS
66
1
62
250
10
0.0
20
0.0
30
0.000000
0
VERTEX
8
0
10
1045.000000
20
730.000000
42
-0.156564
0
VERTEX
8
0
10
1052.000000
20
740.000000
0
SEQEND
0
POLYLINE
8
0
6
CONTINUOUS
66
1
62
250
10
0.0
20
0.0
30
0.000000
0
VERTEX
8
0
10
552.000000
20
721.000000
42
-0.131542
0
VERTEX
8
0
10
545.000000
20
730.000000
0
SEQEND
0
POLYLINE
8
0
6
CONTINUOUS
66
1
62
250
10
0.0
20
0.0
30
0.000000
0
VERTEX
8
0
10
1174.000000
20
721.000000
0
VERTEX
8
0
10
1172.000000
20
730.000000
0
SEQEND
0
POLYLINE
8
0
6
CONTINUOUS
66
1
62
250
10
0.0
20
0.0
30
0.000000
0
VERTEX
8
0
10
156.000000
20
714.000000
0
VERTEX
8
0
10
156.000000
20
725.000000
0
SEQEND
0
POLYLINE
8
0
6
CONTINUOUS
66
1
62
250
10
0.0
20
0.0
30
0.000000
0
VERTEX
8
0
10
1428.000000
20
714.000000
0
VERTEX
8
0
10
1428.000000
20
725.000000
0
SEQEND
0
POLYLINE
8
0
6
CONTINUOUS
66
1
62
250
10
0.0
20
0.0
30
0.000000
0
VERTEX
8
0
10
1030.000000
20
711.000000
0
VERTEX
8
0
10
1033.000000
20
715.000000
42
0.184026
0
VERTEX
8
0
10
1035.000000
20
718.000000
0
VERTEX
8
0
10
1037.000000
20
719.000000
0
SEQEND
0
POLYLINE
8
0
6
CONTINUOUS
66
1
62
250
10
0.0
20
0.0
30
0.000000
0
VERTEX
8
0
10
566.000000
20
700.000000
0
VERTEX
8
0
10
559.000000
20
709.000000
0
SEQEND
0
POLYLINE
8
0
6
CONTINUOUS
66
1
62
250
10
0.0
20
0.0
30
0.000000
0
VERTEX
8
0
10
1016.000000
20
691.000000
0
VERTEX
8
0
10
1018.000000
20
693.000000
42
-0.138784
0
VERTEX
8
0
10
1019.800000
20
696.100000
42
-0.118981
0
VERTEX
8
0
10
1022.000000
20
699.000000
0
SEQEND
0
POLYLINE
8
0
6
CONTINUOUS
66
1
62
250
10
0.0
20
0.0
30
0.000000
0
VERTEX
8
0
10
156.000000
20
689.000000
0
VERTEX
8
0
10
156.000000
20
700.000000
0
SEQEND
0
POLYLINE
8
0
6
CONTINUOUS
66
1
62
250
10
0.0
20
0.0
30
0.000000
0
VERTEX
8
0
10
1428.000000
20
689.000000
0
VERTEX
8
0
10
1428.000000
20
700.000000
0
SEQEND
0
POLYLINE
8
0
6
CONTINUOUS
66
1
62
250
10
0.0
20
0.0
30
0.000000
0
VERTEX
8
0
10
579.000000
20
680.000000
42
0.071762
0
VERTEX
8
0
10
573.000000
20
689.000000
0
SEQEND
0
POLYLINE
8
0
6
CONTINUOUS
66
1
62
250
10
0.0
20
0.0
30
0.000000
0
VERTEX
8
0
10
1001.000000
20
670.000000
0
VERTEX
8
0
10
1008.000000
20
679.000000
0
SEQEND
0
POLYLINE
8
0
6
CONTINUOUS
66
1
62
250
10
0.0
20
0.0
30
0.000000
0
VERTEX
8
0
10
156.000000
20
664.000000
0
VERTEX
8
0
10
156.000000
20
675.000000
0
SEQEND
0
POLYLINE
8
0
6
CONTINUOUS
66
1
62
250
10
0.0
20
0.0
30
0.000000
0
VERTEX
8
0
10
1428.000000
20
664.000000
0
VERTEX
8
0
10
1428.000000
20
675.000000
0
SEQEND
0
POLYLINE
8
0
6
CONTINUOUS
66
1
62
250
10
0.0
20
0.0
30
0.000000
0
VERTEX
8
0
10
594.000000
20
659.000000
0
VERTEX
8
0
10
588.000000
20
668.000000
0
SEQEND
0
POLYLINE
8
0
6
CONTINUOUS
66
1
62
250
10
0.0
20
0.0
30
0.000000
0
VERTEX
8
0
10
987.000000
20
649.000000
42
-0.216752
0
VERTEX
8
0
10
990.000000
20
654.000000
0
VERTEX
8
0
10
992.000000
20
658.000000
0
SEQEND
0
POLYLINE
8
0
6
CONTINUOUS
66
1
62
250
10
0.0
20
0.0
30
0.000000
0
VERTEX
8
0
10
156.000000
20
639.000000
0
VERTEX
8
0
10
156.000000
20
650.000000
0
SEQEND
0
POLYLINE
8
0
6
CONTINUOUS
66
1
62
250
10
0.0
20
0.0
30
0.000000
0
VERTEX
8
0
10
609.000000
20
639.000000
42
-0.131542
0
VERTEX
8
0
10
602.000000
20
648.000000
0
SEQEND
0
POLYLINE
8
0
6
CONTINUOUS
66
1
62
250
10
0.0
20
0.0
30
0.000000
0
VERTEX
8
0
10
1428.000000
20
639.000000
0
VERTEX
8
0
10
1428.000000
20
650.000000
0
SEQEND
0
POLYLINE
8
0
6
CONTINUOUS
66
1
62
251
10
0.0
20
0.0
30
0.000000
0
VERTEX
8
0
10
981.000000
20
635.000000
0
VERTEX
8
0
10
980.000000
20
636.000000
42
1.117265
0
VERTEX
8
0
10
978.000000
20
637.000000
0
SEQEND
0
POLYLINE
8
0
6
CONTINUOUS
66
1
62
27
10
0.0
20
0.0
30
0.000000
0
VERTEX
8
0
10
977.000000
20
632.000000
0
VERTEX
8
0
10
977.000000
20
636.000000
0
VERTEX
8
0
10
978.000000
20
637.000000
0
VERTEX
8
0
10
980.000000
20
636.000000
0
SEQEND
0
POLYLINE
8
0
6
CONTINUOUS
66
1
62
250
10
0.0
20
0.0
30
0.000000
0
VERTEX
8
0
10
156.000000
20
614.000000
0
VERTEX
8
0
10
156.000000
20
625.000000
0
SEQEND
0
POLYLINE
8
0
6
CONTINUOUS
66
1
62
250
10
0.0
20
0.0
30
0.000000
0
VERTEX
8
0
10
1428.000000
20
614.000000
0
VERTEX
8
0
10
1428.000000
20
625.000000
0
SEQEND
0
POLYLINE
8
0
6
CONTINUOUS
66
1
62
27
10
0.0
20
0.0
30
0.000000
0
VERTEX
8
0
10
610.000000
20
604.000000
0
VERTEX
8
0
10
609.000000
20
606.000000
0
VERTEX
8
0
10
611.000000
20
605.000000
0
SEQEND
0
POLYLINE
8
0
6
CONTINUOUS
66
1
62
250
10
0.0
20
0.0
30
0.000000
0
VERTEX
8
0
10
607.000000
20
598.000000
42
0.234128
0
VERTEX
8
0
10
610.000000
20
604.000000
0
VERTEX
8
0
10
611.000000
20
605.000000
0
VERTEX
8
0
10
613.000000
20
606.000000
0
VERTEX
8
0
10
611.800000
20
607.900000
0
VERTEX
8
0
10
611.000000
20
609.000000
0
SEQEND
0
POLYLINE
8
0
6
CONTINUOUS
66
1
62
250
10
0.0
20
0.0
30
0.000000
0
VERTEX
8
0
10
156.000000
20
589.000000
0
VERTEX
8
0
10
156.000000
20
600.000000
0
SEQEND
0
POLYLINE
8
0
6
CONTINUOUS
66
1
62
250
10
0.0
20
0.0
30
0.000000
0
VERTEX
8
0
10
1428.000000
20
589.000000
0
VERTEX
8
0
10
1428.000000
20
600.000000
0
SEQEND
0
POLYLINE
8
0
6
CONTINUOUS
66
1
62
250
10
0.0
20
0.0
30
0.000000
0
VERTEX
8
0
10
989.000000
20
585.000000
0
VERTEX
8
0
10
982.000000
20
594.000000
0
SEQEND
0
POLYLINE
8
0
6
CONTINUOUS
66
1
62
250
10
0.0
20
0.0
30
0.000000
0
VERTEX
8
0
10
593.000000
20
577.000000
42
-0.083942
0
VERTEX
8
0
10
600.000000
20
586.000000
0
SEQEND
0
POLYLINE
8
0
6
CONTINUOUS
66
1
62
250
10
0.0
20
0.0
30
0.000000
0
VERTEX
8
0
10
1004.000000
20
565.000000
42
-0.079019
0
VERTEX
8
0
10
997.000000
20
573.000000
0
SEQEND
0
POLYLINE
8
0
6
CONTINUOUS
66
1
62
250
10
0.0
20
0.0
30
0.000000
0
VERTEX
8
0
10
156.000000
20
564.000000
0
VERTEX
8
0
10
156.000000
20
575.000000
0
SEQEND
0
POLYLINE
8
0
6
CONTINUOUS
66
1
62
250
10
0.0
20
0.0
30
0.000000
0
VERTEX
8
0
10
1428.000000
20
564.000000
0
VERTEX
8
0
10
1428.000000
20
575.000000
0
SEQEND
0
POLYLINE
8
0
6
CONTINUOUS
66
1
62
250
10
0.0
20
0.0
30
0.000000
0
VERTEX
8
0
10
579.000000
20
557.000000
0
VERTEX
8
0
10
582.800000
20
562.100000
42
-0.118981
0
VERTEX
8
0
10
585.000000
20
565.000000
0
SEQEND
0
POLYLINE
8
0
6
CONTINUOUS
66
1
62
250
10
0.0
20
0.0
30
0.000000
0
VERTEX
8
0
10
1018.000000
20
544.000000
0
VERTEX
8
0
10
1011.000000
20
553.000000
0
SEQEND
0
POLYLINE
8
0
6
CONTINUOUS
66
1
62
250
10
0.0
20
0.0
30
0.000000
0
VERTEX
8
0
10
156.000000
20
539.000000
0
VERTEX
8
0
10
156.000000
20
550.000000
0
SEQEND
0
POLYLINE
8
0
6
CONTINUOUS
66
1
62
250
10
0.0
20
0.0
30
0.000000
0
VERTEX
8
0
10
1428.000000
20
539.000000
0
VERTEX
8
0
10
1428.000000
20
550.000000
0
SEQEND
0
POLYLINE
8
0
6
CONTINUOUS
66
1
62
250
10
0.0
20
0.0
30
0.000000
0
VERTEX
8
0
10
565.000000
20
536.000000
0
VERTEX
8
0
10
568.800000
20
541.100000
42
-0.118981
0
VERTEX
8
0
10
571.000000
20
544.000000
0
SEQEND
0
POLYLINE
8
0
6
CONTINUOUS
66
1
62
250
10
0.0
20
0.0
30
0.000000
0
VERTEX
8
0
10
621.000000
20
619.000000
42
0.144036
0
VERTEX
8
0
10
436.951220
20
709.560976
0
VERTEX
8
0
10
415.000000
20
712.000000
0
VERTEX
8
0
10
409.000000
20
712.000000
0
VERTEX
8
0
10
406.000000
20
709.000000
0
VERTEX
8
0
10
406.000000
20
524.000000
42
0.063134
0
VERTEX
8
0
10
436.932432
20
527.405405
0
VERTEX
8
0
10
472.088235
20
535.647059
0
VERTEX
8
0
10
474.911765
20
536.352941
0
VERTEX
8
0
10
504.900000
20
546.300000
0
VERTEX
8
0
10
525.100000
20
554.700000
0
VERTEX
8
0
10
552.900000
20
568.200000
0
VERTEX
8
0
10
568.000000
20
577.000000
0
VERTEX
8
0
10
593.000000
20
594.000000
0
VERTEX
8
0
10
608.100000
20
605.800000
0
VERTEX
8
0
10
609.000000
20
606.000000
42
-0.212214
0
VERTEX
8
0
10
611.000000
20
609.000000
42
-0.083767
0
VERTEX
8
0
10
616.000000
20
613.000000
42
0.087559
0
VERTEX
8
0
10
621.000000
20
619.000000
0
VERTEX
8
0
10
963.000000
20
619.000000
0
VERTEX
8
0
10
963.000000
20
618.000000
0
VERTEX
8
0
10
974.000000
20
607.000000
0
VERTEX
8
0
10
1001.180000
20
586.240000
0
VERTEX
8
0
10
1004.153846
20
584.230769
0
VERTEX
8
0
10
1036.100000
20
565.200000
0
VERTEX
8
0
10
1050.900000
20
557.800000
42
0.077232
0
VERTEX
8
0
10
1175.000000
20
523.000000
0
VERTEX
8
0
10
1177.000000
20
525.000000
0
VERTEX
8
0
10
1178.000000
20
526.000000
0
VERTEX
8
0
10
1178.000000
20
709.000000
0
VERTEX
8
0
10
1175.000000
20
712.000000
42
0.129001
0
VERTEX
8
0
10
1017.100000
20
659.800000
0
VERTEX
8
0
10
1015.900000
20
659.200000
0
VERTEX
8
0
10
982.100000
20
635.800000
0
VERTEX
8
0
10
981.000000
20
635.000000
42
-0.150174
0
VERTEX
8
0
10
977.000000
20
632.000000
42
0.064033
0
VERTEX
8
0
10
963.000000
20
619.000000
0
SEQEND
0
POLYLINE
8
0
6
CONTINUOUS
66
1
62
250
10
0.0
20
0.0
30
0.000000
0
VERTEX
8
0
10
1033.000000
20
524.000000
42
-0.079019
0
VERTEX
8
0
10
1026.000000
20
532.000000
0
SEQEND
0
POLYLINE
8
0
6
CONTINUOUS
66
1
62
250
10
0.0
20
0.0
30
0.000000
0
VERTEX
8
0
10
156.000000
20
514.000000
0
VERTEX
8
0
10
156.000000
20
525.000000
0
SEQEND
0
POLYLINE
8
0
6
CONTINUOUS
66
1
62
250
10
0.0
20
0.0
30
0.000000
0
VERTEX
8
0
10
551.000000
20
514.000000
42
-0.129316
0
VERTEX
8
0
10
553.800000
20
519.100000
0
VERTEX
8
0
10
557.000000
20
524.000000
0
SEQEND
0
POLYLINE
8
0
6
CONTINUOUS
66
1
62
250
10
0.0
20
0.0
30
0.000000
0
VERTEX
8
0
10
1428.000000
20
514.000000
0
VERTEX
8
0
10
1428.000000
20
525.000000
0
SEQEND
0
POLYLINE
8
0
6
CONTINUOUS
66
1
62
250
10
0.0
20
0.0
30
0.000000
0
VERTEX
8
0
10
412.000000
20
512.000000
42
-0.078207
0
VERTEX
8
0
10
410.000000
20
517.000000
0
SEQEND
0
POLYLINE
8
0
6
CONTINUOUS
66
1
62
250
10
0.0
20
0.0
30
0.000000
0
VERTEX
8
0
10
1047.000000
20
503.000000
0
VERTEX
8
0
10
1040.000000
20
512.000000
0
SEQEND
0
POLYLINE
8
0
6
CONTINUOUS
66
1
62
250
10
0.0
20
0.0
30
0.000000
0
VERTEX
8
0
10
1175.000000
20
501.000000
42
-0.084719
0
VERTEX
8
0
10
1178.000000
20
511.000000
0
SEQEND
0
POLYLINE
8
0
6
CONTINUOUS
66
1
62
250
10
0.0
20
0.0
30
0.000000
0
VERTEX
8
0
10
537.000000
20
495.000000
0
VERTEX
8
0
10
540.800000
20
500.100000
42
-0.118981
0
VERTEX
8
0
10
543.000000
20
503.000000
0
SEQEND
0
POLYLINE
8
0
6
CONTINUOUS
66
1
62
250
10
0.0
20
0.0
30
0.000000
0
VERTEX
8
0
10
156.000000
20
489.000000
0
VERTEX
8
0
10
156.000000
20
500.000000
0
SEQEND
0
POLYLINE
8
0
6
CONTINUOUS
66
1
62
250
10
0.0
20
0.0
30
0.000000
0
VERTEX
8
0
10
1428.000000
20
489.000000
0
VERTEX
8
0
10
1428.000000
20
500.000000
0
SEQEND
0
POLYLINE
8
0
6
CONTINUOUS
66
1
62
250
10
0.0
20
0.0
30
0.000000
0
VERTEX
8
0
10
419.000000
20
488.000000
0
VERTEX
8
0
10
416.000000
20
499.000000
0
SEQEND
0
POLYLINE
8
0
6
CONTINUOUS
66
1
62
250
10
0.0
20
0.0
30
0.000000
0
VERTEX
8
0
10
1062.000000
20
483.000000
42
-0.173900
0
VERTEX
8
0
10
1055.000000
20
492.000000
0
SEQEND
0
POLYLINE
8
0
6
CONTINUOUS
66
1
62
250
10
0.0
20
0.0
30
0.000000
0
VERTEX
8
0
10
1168.000000
20
477.000000
42
-0.084719
0
VERTEX
8
0
10
1171.000000
20
487.000000
0
SEQEND
0
POLYLINE
8
0
6
CONTINUOUS
66
1
62
250
10
0.0
20
0.0
30
0.000000
0
VERTEX
8
0
10
523.000000
20
474.000000
0
VERTEX
8
0
10
528.000000
20
482.000000
0
SEQEND
0
POLYLINE
8
0
6
CONTINUOUS
66
1
62
250
10
0.0
20
0.0
30
0.000000
0
VERTEX
8
0
10
426.000000
20
465.000000
42
0.098611
0
VERTEX
8
0
10
423.000000
20
475.000000
0
SEQEND
0
POLYLINE
8
0
6
CONTINUOUS
66
1
62
250
10
0.0
20
0.0
30
0.000000
0
VERTEX
8
0
10
156.000000
20
464.000000
0
VERTEX
8
0
10
156.000000
20
475.000000
0
SEQEND
0
POLYLINE
8
0
6
CONTINUOUS
66
1
62
250
10
0.0
20
0.0
30
0.000000
0
VERTEX
8
0
10
1428.000000
20
464.000000
0
VERTEX
8
0
10
1428.000000
20
475.000000
0
SEQEND
0
POLYLINE
8
0
6
CONTINUOUS
66
1
62
250
10
0.0
20
0.0
30
0.000000
0
VERTEX
8
0
10
1076.000000
20
462.000000
0
VERTEX
8
0
10
1073.769231
20
464.846154
42
0.065450
0
VERTEX
8
0
10
1068.000000
20
472.000000
0
SEQEND
0
POLYLINE
8
0
6
CONTINUOUS
66
1
62
250
10
0.0
20
0.0
30
0.000000
0
VERTEX
8
0
10
1161.000000
20
453.000000
42
-0.084719
0
VERTEX
8
0
10
1164.000000
20
463.000000
0
SEQEND
0
POLYLINE
8
0
6
CONTINUOUS
66
1
62
250
10
0.0
20
0.0
30
0.000000
0
VERTEX
8
0
10
509.000000
20
452.000000
42
-0.178816
0
VERTEX
8
0
10
515.000000
20
461.000000
0
SEQEND
0
POLYLINE
8
0
6
CONTINUOUS
66
1
62
250
10
0.0
20
0.0
30
0.000000
0
VERTEX
8
0
10
1090.000000
20
442.000000
0
VERTEX
8
0
10
1084.000000
20
451.000000
0
SEQEND
0
POLYLINE
8
0
6
CONTINUOUS
66
1
62
250
10
0.0
20
0.0
30
0.000000
0
VERTEX
8
0
10
435.000000
20
441.000000
42
-0.084978
0
VERTEX
8
0
10
431.700000
20
448.900000
0
VERTEX
8
0
10
431.000000
20
451.000000
0
SEQEND
0
POLYLINE
8
0
6
CONTINUOUS
66
1
62
250
10
0.0
20
0.0
30
0.000000
0
VERTEX
8
0
10
157.000000
20
438.000000
0
VERTEX
8
0
10
165.000000
20
439.000000
0
SEQEND
0
POLYLINE
8
0
6
CONTINUOUS
66
1
62
250
10
0.0
20
0.0
30
0.000000
0
VERTEX
8
0
10
1426.000000
20
438.000000
0
VERTEX
8
0
10
1427.554455
20
441.044554
0
VERTEX
8
0
10
1428.000000
20
450.000000
0
SEQEND
0
POLYLINE
8
0
6
CONTINUOUS
66
1
62
250
10
0.0
20
0.0
30
0.000000
0
VERTEX
8
0
10
495.000000
20
433.000000
0
VERTEX
8
0
10
498.800000
20
438.100000
42
-0.118981
0
VERTEX
8
0
10
501.000000
20
441.000000
0
SEQEND
0
POLYLINE
8
0
6
CONTINUOUS
66
1
62
250
10
0.0
20
0.0
30
0.000000
0
VERTEX
8
0
10
1154.000000
20
429.000000
42
-0.084719
0
VERTEX
8
0
10
1157.000000
20
439.000000
0
SEQEND
0
POLYLINE
8
0
6
CONTINUOUS
66
1
62
250
10
0.0
20
0.0
30
0.000000
0
VERTEX
8
0
10
1104.000000
20
422.000000
42
0.088490
0
VERTEX
8
0
10
1097.000000
20
431.000000
0
SEQEND
0
POLYLINE
8
0
6
CONTINUOUS
66
1
62
250
10
0.0
20
0.0
30
0.000000
0
VERTEX
8
0
10
442.000000
20
417.000000
0
VERTEX
8
0
10
439.000000
20
427.000000
0
SEQEND
0
POLYLINE
8
0
6
CONTINUOUS
66
1
62
250
10
0.0
20
0.0
30
0.000000
0
VERTEX
8
0
10
481.000000
20
411.000000
42
-0.129316
0
VERTEX
8
0
10
483.800000
20
416.100000
0
VERTEX
8
0
10
486.000000
20
420.000000
0
SEQEND
0
POLYLINE
8
0
6
CONTINUOUS
66
1
62
250
10
0.0
20
0.0
30
0.000000
0
VERTEX
8
0
10
1147.000000
20
405.000000
0
VERTEX
8
0
10
1150.000000
20
415.000000
0
SEQEND
0
POLYLINE
8
0
6
CONTINUOUS
66
1
62
250
10
0.0
20
0.0
30
0.000000
0
VERTEX
8
0
10
1119.000000
20
401.000000
0
VERTEX
8
0
10
1113.000000
20
410.000000
0
SEQEND
0
POLYLINE
8
0
6
CONTINUOUS
66
1
62
250
10
0.0
20
0.0
30
0.000000
0
VERTEX
8
0
10
450.000000
20
393.000000
0
VERTEX
8
0
10
448.647059
20
396.911765
42
0.134548
0
VERTEX
8
0
10
445.000000
20
404.000000
0
SEQEND
0
POLYLINE
8
0
6
CONTINUOUS
66
1
62
250
10
0.0
20
0.0
30
0.000000
0
VERTEX
8
0
10
466.000000
20
390.000000
42
-0.083942
0
VERTEX
8
0
10
473.000000
20
399.000000
0
SEQEND
0
POLYLINE
8
0
6
CONTINUOUS
66
1
62
250
10
0.0
20
0.0
30
0.000000
0
VERTEX
8
0
10
151.000000
20
383.000000
42
-0.162258
0
VERTEX
8
0
10
91.820000
20
400.760000
42
-0.183715
0
VERTEX
8
0
10
74.000000
20
431.000000
0
VERTEX
8
0
10
74.000000
20
808.000000
42
-0.307706
0
VERTEX
8
0
10
129.067568
20
853.594595
42
-0.064601
0
VERTEX
8
0
10
151.000000
20
855.000000
0
SEQEND
0
POLYLINE
8
0
6
CONTINUOUS
66
1
62
250
10
0.0
20
0.0
30
0.000000
0
VERTEX
8
0
10
1431.000000
20
383.000000
42
0.145569
0
VERTEX
8
0
10
1485.100000
20
395.800000
42
0.224408
0
VERTEX
8
0
10
1512.000000
20
436.000000
0
VERTEX
8
0
10
1512.000000
20
804.000000
42
0.273886
0
VERTEX
8
0
10
1475.900000
20
845.700000
42
0.090926
0
VERTEX
8
0
10
1432.000000
20
855.000000
0
SEQEND
0
POLYLINE
8
0
6
CONTINUOUS
66
1
62
250
10
0.0
20
0.0
30
0.000000
0
VERTEX
8
0
10
1133.000000
20
381.000000
0
VERTEX
8
0
10
1127.000000
20
390.000000
0
SEQEND
0
POLYLINE
8
0
6
CONTINUOUS
66
1
62
250
10
0.0
20
0.0
30
0.000000
0
VERTEX
8
0
10
1140.000000
20
380.000000
0
VERTEX
8
0
10
1142.352941
20
389.911765
0
VERTEX
8
0
10
1143.000000
20
391.000000
0
SEQEND
0
POLYLINE
8
0
6
CONTINUOUS
66
1
62
250
10
0.0
20
0.0
30
0.000000
0
VERTEX
8
0
10
456.000000
20
376.000000
42
0.184026
0
VERTEX
8
0
10
458.000000
20
379.000000
0
SEQEND
0
POLYLINE
8
0
6
CONTINUOUS
66
1
62
250
10
0.0
20
0.0
30
0.000000
0
VERTEX
8
0
10
456.000000
20
374.000000
0
VERTEX
8
0
10
456.000000
20
376.000000
42
-0.120666
0
VERTEX
8
0
10
454.000000
20
380.000000
0
SEQEND
0
POLYLINE
8
0
6
CONTINUOUS
66
1
62
250
10
0.0
20
0.0
30
0.000000
0
VERTEX
8
0
10
451.000000
20
370.000000
0
VERTEX
8
0
10
258.995328
20
369.504761
0
VERTEX
8
0
10
154.000000
20
370.000000
0
VERTEX
8
0
10
152.000000
20
372.000000
0
VERTEX
8
0
10
151.200000
20
382.100000
0
VERTEX
8
0
10
151.000000
20
383.000000
0
VERTEX
8
0
10
152.489140
20
430.989593
0
VERTEX
8
0
10
155.000000
20
435.000000
0
VERTEX
8
0
10
157.000000
20
438.000000
0
VERTEX
8
0
10
156.000000
20
439.000000
0
VERTEX
8
0
10
156.000000
20
450.000000
0
SEQEND
0
POLYLINE
8
0
6
CONTINUOUS
66
1
62
250
10
0.0
20
0.0
30
0.000000
0
VERTEX
8
0
10
458.000000
20
370.000000
0
VERTEX
8
0
10
469.000000
20
370.000000
0
SEQEND
0
POLYLINE
8
0
6
CONTINUOUS
66
1
62
250
10
0.0
20
0.0
30
0.000000
0
VERTEX
8
0
10
483.000000
20
370.000000
0
VERTEX
8
0
10
494.000000
20
370.000000
0
SEQEND
0
POLYLINE
8
0
6
CONTINUOUS
66
1
62
250
10
0.0
20
0.0
30
0.000000
0
VERTEX
8
0
10
508.000000
20
370.000000
0
VERTEX
8
0
10
519.000000
20
370.000000
0
SEQEND
0
POLYLINE
8
0
6
CONTINUOUS
66
1
62
250
10
0.0
20
0.0
30
0.000000
0
VERTEX
8
0
10
533.000000
20
370.000000
0
VERTEX
8
0
10
544.000000
20
370.000000
0
SEQEND
0
POLYLINE
8
0
6
CONTINUOUS
66
1
62
250
10
0.0
20
0.0
30
0.000000
0
VERTEX
8
0
10
558.000000
20
370.000000
0
VERTEX
8
0
10
569.000000
20
370.000000
0
SEQEND
0
POLYLINE
8
0
6
CONTINUOUS
66
1
62
250
10
0.0
20
0.0
30
0.000000
0
VERTEX
8
0
10
583.000000
20
370.000000
0
VERTEX
8
0
10
594.000000
20
370.000000
0
SEQEND
0
POLYLINE
8
0
6
CONTINUOUS
66
1
62
250
10
0.0
20
0.0
30
0.000000
0
VERTEX
8
0
10
608.000000
20
370.000000
0
VERTEX
8
0
10
619.000000
20
370.000000
0
SEQEND
0
POLYLINE
8
0
6
CONTINUOUS
66
1
62
250
10
0.0
20
0.0
30
0.000000
0
VERTEX
8
0
10
633.000000
20
370.000000
0
VERTEX
8
0
10
644.000000
20
370.000000
0
SEQEND
0
POLYLINE
8
0
6
CONTINUOUS
66
1
62
250
10
0.0
20
0.0
30
0.000000
0
VERTEX
8
0
10
658.000000
20
370.000000
0
VERTEX
8
0
10
669.000000
20
370.000000
0
SEQEND
0
POLYLINE
8
0
6
CONTINUOUS
66
1
62
250
10
0.0
20
0.0
30
0.000000
0
VERTEX
8
0
10
683.000000
20
370.000000
0
VERTEX
8
0
10
694.000000
20
370.000000
0
SEQEND
0
POLYLINE
8
0
6
CONTINUOUS
66
1
62
250
10
0.0
20
0.0
30
0.000000
0
VERTEX
8
0
10
708.000000
20
370.000000
0
VERTEX
8
0
10
719.000000
20
370.000000
0
SEQEND
0
POLYLINE
8
0
6
CONTINUOUS
66
1
62
250
10
0.0
20
0.0
30
0.000000
0
VERTEX
8
0
10
733.000000
20
370.000000
0
VERTEX
8
0
10
744.000000
20
370.000000
0
SEQEND
0
POLYLINE
8
0
6
CONTINUOUS
66
1
62
250
10
0.0
20
0.0
30
0.000000
0
VERTEX
8
0
10
758.000000
20
370.000000
0
VERTEX
8
0
10
769.000000
20
370.000000
0
SEQEND
0
POLYLINE
8
0
6
CONTINUOUS
66
1
62
250
10
0.0
20
0.0
30
0.000000
0
VERTEX
8
0
10
783.000000
20
370.000000
0
VERTEX
8
0
10
794.000000
20
370.000000
0
SEQEND
0
POLYLINE
8
0
6
CONTINUOUS
66
1
62
250
10
0.0
20
0.0
30
0.000000
0
VERTEX
8
0
10
808.000000
20
370.000000
0
VERTEX
8
0
10
819.000000
20
370.000000
0
SEQEND
0
POLYLINE
8
0
6
CONTINUOUS
66
1
62
250
10
0.0
20
0.0
30
0.000000
0
VERTEX
8
0
10
833.000000
20
370.000000
0
VERTEX
8
0
10
844.000000
20
370.000000
0
SEQEND
0
POLYLINE
8
0
6
CONTINUOUS
66
1
62
250
10
0.0
20
0.0
30
0.000000
0
VERTEX
8
0
10
858.000000
20
370.000000
0
VERTEX
8
0
10
869.000000
20
370.000000
0
SEQEND
0
POLYLINE
8
0
6
CONTINUOUS
66
1
62
250
10
0.0
20
0.0
30
0.000000
0
VERTEX
8
0
10
883.000000
20
370.000000
0
VERTEX
8
0
10
894.000000
20
370.000000
0
SEQEND
0
POLYLINE
8
0
6
CONTINUOUS
66
1
62
250
10
0.0
20
0.0
30
0.000000
0
VERTEX
8
0
10
908.000000
20
370.000000
0
VERTEX
8
0
10
919.000000
20
370.000000
0
SEQEND
0
POLYLINE
8
0
6
CONTINUOUS
66
1
62
250
10
0.0
20
0.0
30
0.000000
0
VERTEX
8
0
10
933.000000
20
370.000000
0
VERTEX
8
0
10
944.000000
20
370.000000
0
SEQEND
0
POLYLINE
8
0
6
CONTINUOUS
66
1
62
250
10
0.0
20
0.0
30
0.000000
0
VERTEX
8
0
10
958.000000
20
370.000000
0
VERTEX
8
0
10
969.000000
20
370.000000
0
SEQEND
0
POLYLINE
8
0
6
CONTINUOUS
66
1
62
250
10
0.0
20
0.0
30
0.000000
0
VERTEX
8
0
10
983.000000
20
370.000000
0
VERTEX
8
0
10
994.000000
20
370.000000
0
SEQEND
0
POLYLINE
8
0
6
CONTINUOUS
66
1
62
250
10
0.0
20
0.0
30
0.000000
0
VERTEX
8
0
10
1008.000000
20
370.000000
0
VERTEX
8
0
10
1019.000000
20
370.000000
0
SEQEND
0
POLYLINE
8
0
6
CONTINUOUS
66
1
62
250
10
0.0
20
0.0
30
0.000000
0
VERTEX
8
0
10
1033.000000
20
370.000000
0
VERTEX
8
0
10
1044.000000
20
370.000000
0
SEQEND
0
POLYLINE
8
0
6
CONTINUOUS
66
1
62
250
10
0.0
20
0.0
30
0.000000
0
VERTEX
8
0
10
1058.000000
20
370.000000
0
VERTEX
8
0
10
1069.000000
20
370.000000
0
SEQEND
0
POLYLINE
8
0
6
CONTINUOUS
66
1
62
250
10
0.0
20
0.0
30
0.000000
0
VERTEX
8
0
10
1083.000000
20
370.000000
0
VERTEX
8
0
10
1094.000000
20
370.000000
0
SEQEND
0
POLYLINE
8
0
6
CONTINUOUS
66
1
62
250
10
0.0
20
0.0
30
0.000000
0
VERTEX
8
0
10
1108.000000
20
370.000000
0
VERTEX
8
0
10
1119.000000
20
370.000000
0
SEQEND
0
POLYLINE
8
0
6
CONTINUOUS
66
1
62
250
10
0.0
20
0.0
30
0.000000
0
VERTEX
8
0
10
1141.000000
20
370.000000
0
VERTEX
8
0
10
1323.000000
20
369.000000
0
VERTEX
8
0
10
1429.000000
20
371.000000
0
VERTEX
8
0
10
1431.000000
20
383.000000
0
VERTEX
8
0
10
1429.510629
20
431.989805
0
VERTEX
8
0
10
1428.760000
20
433.820000
0
VERTEX
8
0
10
1426.000000
20
438.000000
0
VERTEX
8
0
10
1420.000000
20
440.000000
0
SEQEND
0
POLYLINE
8
0
6
CONTINUOUS
66
1
62
250
10
0.0
20
0.0
30
0.000000
0
VERTEX
8
0
10
1138.000000
20
355.000000
0
VERTEX
8
0
10
1138.000000
20
366.000000
0
SEQEND
0
POLYLINE
8
0
6
CONTINUOUS
66
1
62
251
10
0.0
20
0.0
30
0.000000
0
VERTEX
8
0
10
453.000000
20
353.000000
0
VERTEX
8
0
10
453.000000
20
364.000000
0
SEQEND
0
POLYLINE
8
0
6
CONTINUOUS
66
1
62
250
10
0.0
20
0.0
30
0.000000
0
VERTEX
8
0
10
1138.000000
20
330.000000
0
VERTEX
8
0
10
1138.000000
20
341.000000
0
SEQEND
0
POLYLINE
8
0
6
CONTINUOUS
66
1
62
251
10
0.0
20
0.0
30
0.000000
0
VERTEX
8
0
10
453.000000
20
328.000000
0
VERTEX
8
0
10
453.000000
20
339.000000
0
SEQEND
0
POLYLINE
8
0
6
CONTINUOUS
66
1
62
250
10
0.0
20
0.0
30
0.000000
0
VERTEX
8
0
10
1138.000000
20
305.000000
0
VERTEX
8
0
10
1138.000000
20
316.000000
0
SEQEND
0
POLYLINE
8
0
6
CONTINUOUS
66
1
62
251
10
0.0
20
0.0
30
0.000000
0
VERTEX
8
0
10
453.000000
20
303.000000
0
VERTEX
8
0
10
453.000000
20
314.000000
0
SEQEND
0
POLYLINE
8
0
6
CONTINUOUS
66
1
62
250
10
0.0
20
0.0
30
0.000000
0
VERTEX
8
0
10
1138.000000
20
280.000000
0
VERTEX
8
0
10
1138.000000
20
291.000000
0
SEQEND
0
POLYLINE
8
0
6
CONTINUOUS
66
1
62
251
10
0.0
20
0.0
30
0.000000
0
VERTEX
8
0
10
453.000000
20
278.000000
0
VERTEX
8
0
10
453.000000
20
289.000000
0
SEQEND
0
POLYLINE
8
0
6
CONTINUOUS
66
1
62
250
10
0.0
20
0.0
30
0.000000
0
VERTEX
8
0
10
1138.000000
20
255.000000
0
VERTEX
8
0
10
1138.000000
20
266.000000
0
SEQEND
0
POLYLINE
8
0
6
CONTINUOUS
66
1
62
251
10
0.0
20
0.0
30
0.000000
0
VERTEX
8
0
10
453.000000
20
253.000000
0
VERTEX
8
0
10
453.000000
20
264.000000
0
SEQEND
0
POLYLINE
8
0
6
CONTINUOUS
66
1
62
250
10
0.0
20
0.0
30
0.000000
0
VERTEX
8
0
10
1138.000000
20
230.000000
0
VERTEX
8
0
10
1138.000000
20
241.000000
0
SEQEND
0
POLYLINE
8
0
6
CONTINUOUS
66
1
62
251
10
0.0
20
0.0
30
0.000000
0
VERTEX
8
0
10
453.000000
20
228.000000
0
VERTEX
8
0
10
453.000000
20
239.000000
0
SEQEND
0
POLYLINE
8
0
6
CONTINUOUS
66
1
62
250
10
0.0
20
0.0
30
0.000000
0
VERTEX
8
0
10
1138.000000
20
205.000000
0
VERTEX
8
0
10
1138.000000
20
216.000000
0
SEQEND
0
POLYLINE
8
0
6
CONTINUOUS
66
1
62
251
10
0.0
20
0.0
30
0.000000
0
VERTEX
8
0
10
453.000000
20
203.000000
0
VERTEX
8
0
10
453.000000
20
214.000000
0
SEQEND
0
POLYLINE
8
0
6
CONTINUOUS
66
1
62
250
10
0.0
20
0.0
30
0.000000
0
VERTEX
8
0
10
1138.000000
20
180.000000
0
VERTEX
8
0
10
1138.000000
20
191.000000
0
SEQEND
0
POLYLINE
8
0
6
CONTINUOUS
66
1
62
251
10
0.0
20
0.0
30
0.000000
0
VERTEX
8
0
10
453.000000
20
178.000000
0
VERTEX
8
0
10
453.000000
20
189.000000
0
SEQEND
0
POLYLINE
8
0
6
CONTINUOUS
66
1
62
250
10
0.0
20
0.0
30
0.000000
0
VERTEX
8
0
10
1138.000000
20
155.000000
0
VERTEX
8
0
10
1138.000000
20
166.000000
0
SEQEND
0
POLYLINE
8
0
6
CONTINUOUS
66
1
62
251
10
0.0
20
0.0
30
0.000000
0
VERTEX
8
0
10
453.000000
20
153.000000
0
VERTEX
8
0
10
453.000000
20
164.000000
0
SEQEND
0
POLYLINE
8
0
6
CONTINUOUS
66
1
62
250
10
0.0
20
0.0
30
0.000000
0
VERTEX
8
0
10
1138.000000
20
130.000000
0
VERTEX
8
0
10
1138.000000
20
141.000000
0
SEQEND
0
POLYLINE
8
0
6
CONTINUOUS
66
1
62
251
10
0.0
20
0.0
30
0.000000
0
VERTEX
8
0
10
453.000000
20
128.000000
0
VERTEX
8
0
10
453.000000
20
139.000000
0
SEQEND
0
POLYLINE
8
0
6
CONTINUOUS
66
1
62
250
10
0.0
20
0.0
30
0.000000
0
VERTEX
8
0
10
1138.000000
20
105.000000
0
VERTEX
8
0
10
1138.000000
20
116.000000
0
SEQEND
0
POLYLINE
8
0
6
CONTINUOUS
66
1
62
251
10
0.0
20
0.0
30
0.000000
0
VERTEX
8
0
10
453.000000
20
103.000000
0
VERTEX
8
0
10
453.000000
20
114.000000
0
SEQEND
0
POLYLINE
8
0
6
CONTINUOUS
66
1
62
250
10
0.0
20
0.0
30
0.000000
0
VERTEX
8
0
10
262.000000
20
369.000000
0
VERTEX
8
0
10
262.999929
20
132.008438
0
VERTEX
8
0
10
275.076923
20
129.384615
0
VERTEX
8
0
10
278.923077
20
128.615385
0
VERTEX
8
0
10
392.076923
20
108.384615
0
VERTEX
8
0
10
395.300578
20
107.046243
0
VERTEX
8
0
10
421.000000
20
85.000000
0
VERTEX
8
0
10
1167.000000
20
85.000000
0
VERTEX
8
0
10
1168.100000
20
85.800000
0
VERTEX
8
0
10
1180.000000
20
97.000000
0
VERTEX
8
0
10
1190.000000
20
107.000000
0
VERTEX
8
0
10
1289.067568
20
124.594595
0
VERTEX
8
0
10
1320.000000
20
130.000000
42
0.215985
0
VERTEX
8
0
10
1321.502119
20
133.002101
0
VERTEX
8
0
10
1322.000000
20
369.000000
0
SEQEND
0
ENDSEC
0
EOF
