0
SECTION
2
HEADER
9
$ACADVER
1
AC1003
9
$INSBASE
10
0.0
20
0.0
30
0.0
9
$EXTMIN
10
0.000
20
0.000
30
0.0
9
$EXTMAX
10
1824.000
20
1408.000
30
0.0
9
$LIMMIN
10
0.000
20
0.000
9
$LIMMAX
10
1824.000
20
1408.000
9
$LTSCALE
40
1.0
9
$LUNITS
70
2
9
$LUPREC
70
3
9
$LIMCHECK
70
0
9
$UCSNAME
2

9
$UCSORG
10
0.0
20
0.0
30
0.0
9
$UCSXDIR
10
1.0
20
0.0
30
0.0
9
$UCSYDIR
10
0.0
20
1.0
30
0.0
9
$WORLDVIEW
70
1
9
$UNITMODE
70
0
0
ENDSEC
0
SECTION
2
TABLES
0
TABLE
2
VPORT
70
1
0
VPORT
2
*ACTIVE
70
0
10
0.0
20
0.0
11
1.0
21
1.0
12
912.000
22
704.000
13
0.0
23
0.0
14
1.0
24
1.0
15
0.0
25
0.0
16
0.0
26
0.0
36
1.0
17
0.0
27
0.0
37
0.0
40
500.0
41
0.772
42
50.0
43
0.0
44
0.0
50
0.0
51
0.0
71
0
72
100
73
1
74
1
75
0
76
0
77
0
78
0
0
ENDTAB
0
TABLE
2
LTYPE
70
1
0
LTYPE
2
CONTINUOUS
70
64
3
Solid line
72
65
73
0
40
0.000
0
ENDTAB
0
TABLE
2
LAYER
70
1
0
LAYER
2
0
70
64
62
7
6
CONTINUOUS
0
ENDTAB
0
ENDSEC
0
SECTION
2
BLOCKS
0
ENDSEC
0
SECTION
2
ENTITIES
0
POLYLINE
8
0
6
CONTINUOUS
66
1
62
250
10
0.0
20
0.0
30
0.000000
0
VERTEX
8
0
10
332.000000
20
1332.000000
0
VERTEX
8
0
10
329.230769
20
1337.153846
42
-0.108522
0
VERTEX
8
0
10
327.000000
20
1342.000000
0
SEQEND
0
POLYLINE
8
0
6
CONTINUOUS
66
1
62
250
10
0.0
20
0.0
30
0.000000
0
VERTEX
8
0
10
1491.000000
20
1332.000000
42
0.062934
0
VERTEX
8
0
10
1496.000000
20
1342.000000
0
SEQEND
0
POLYLINE
8
0
6
CONTINUOUS
66
1
62
250
10
0.0
20
0.0
30
0.000000
0
VERTEX
8
0
10
345.000000
20
1311.000000
0
VERTEX
8
0
10
342.200000
20
1315.100000
42
0.103684
0
VERTEX
8
0
10
338.000000
20
1321.000000
0
SEQEND
0
POLYLINE
8
0
6
CONTINUOUS
66
1
62
250
10
0.0
20
0.0
30
0.000000
0
VERTEX
8
0
10
1479.000000
20
1311.000000
0
VERTEX
8
0
10
1480.800000
20
1314.100000
42
-0.067868
0
VERTEX
8
0
10
1485.000000
20
1321.000000
0
SEQEND
0
POLYLINE
8
0
6
CONTINUOUS
66
1
62
250
10
0.0
20
0.0
30
0.000000
0
VERTEX
8
0
10
1469.000000
20
1289.000000
0
VERTEX
8
0
10
1473.000000
20
1298.000000
0
SEQEND
0
POLYLINE
8
0
6
CONTINUOUS
66
1
62
250
10
0.0
20
0.0
30
0.000000
0
VERTEX
8
0
10
355.000000
20
1288.000000
0
VERTEX
8
0
10
350.000000
20
1298.000000
0
SEQEND
0
POLYLINE
8
0
6
CONTINUOUS
66
1
62
250
10
0.0
20
0.0
30
0.000000
0
VERTEX
8
0
10
363.000000
20
1264.000000
0
VERTEX
8
0
10
360.000000
20
1275.000000
0
SEQEND
0
POLYLINE
8
0
6
CONTINUOUS
66
1
62
247
10
0.0
20
0.0
30
0.000000
0
VERTEX
8
0
10
1460.000000
20
1264.000000
0
VERTEX
8
0
10
1464.000000
20
1275.000000
0
SEQEND
0
POLYLINE
8
0
6
CONTINUOUS
66
1
62
250
10
0.0
20
0.0
30
0.000000
0
VERTEX
8
0
10
959.000000
20
1250.000000
0
VERTEX
8
0
10
958.520767
20
1273.980831
0
VERTEX
8
0
10
957.647059
20
1277.911765
0
VERTEX
8
0
10
957.300000
20
1279.100000
42
0.222219
0
VERTEX
8
0
10
942.000000
20
1292.000000
0
VERTEX
8
0
10
884.000000
20
1292.000000
0
VERTEX
8
0
10
874.100000
20
1287.800000
42
0.252924
0
VERTEX
8
0
10
866.476289
20
1271.978351
0
VERTEX
8
0
10
866.000000
20
1251.000000
0
SEQEND
0
POLYLINE
8
0
6
CONTINUOUS
66
1
62
250
10
0.0
20
0.0
30
0.000000
0
VERTEX
8
0
10
939.000000
20
1247.000000
0
VERTEX
8
0
10
891.000000
20
1248.000000
0
SEQEND
0
POLYLINE
8
0
6
CONTINUOUS
66
1
62
250
10
0.0
20
0.0
30
0.000000
0
VERTEX
8
0
10
370.000000
20
1240.000000
0
VERTEX
8
0
10
367.647059
20
1249.911765
0
VERTEX
8
0
10
367.000000
20
1251.000000
0
SEQEND
0
POLYLINE
8
0
6
CONTINUOUS
66
1
62
250
10
0.0
20
0.0
30
0.000000
0
VERTEX
8
0
10
1453.000000
20
1240.000000
42
0.077675
0
VERTEX
8
0
10
1456.000000
20
1251.000000
0
SEQEND
0
POLYLINE
8
0
6
CONTINUOUS
66
1
62
250
10
0.0
20
0.0
30
0.000000
0
VERTEX
8
0
10
795.000000
20
1221.000000
0
VERTEX
8
0
10
806.100000
20
1227.800000
0
VERTEX
8
0
10
824.100000
20
1235.700000
0
VERTEX
8
0
10
840.000000
20
1241.000000
0
SEQEND
0
POLYLINE
8
0
6
CONTINUOUS
66
1
62
250
10
0.0
20
0.0
30
0.000000
0
VERTEX
8
0
10
1448.000000
20
1217.000000
42
0.097790
0
VERTEX
8
0
10
1450.000000
20
1227.000000
0
SEQEND
0
POLYLINE
8
0
6
CONTINUOUS
66
1
62
250
10
0.0
20
0.0
30
0.000000
0
VERTEX
8
0
10
376.000000
20
1216.000000
0
VERTEX
8
0
10
373.000000
20
1227.000000
0
SEQEND
0
POLYLINE
8
0
6
CONTINUOUS
66
1
62
250
10
0.0
20
0.0
30
0.000000
0
VERTEX
8
0
10
1031.000000
20
1214.000000
0
VERTEX
8
0
10
1016.100000
20
1225.200000
0
VERTEX
8
0
10
999.900000
20
1233.700000
0
VERTEX
8
0
10
989.000000
20
1238.000000
0
SEQEND
0
POLYLINE
8
0
6
CONTINUOUS
66
1
62
250
10
0.0
20
0.0
30
0.000000
0
VERTEX
8
0
10
379.000000
20
1192.000000
0
VERTEX
8
0
10
378.000000
20
1202.000000
0
SEQEND
0
POLYLINE
8
0
6
CONTINUOUS
66
1
62
37
10
0.0
20
0.0
30
0.000000
0
VERTEX
8
0
10
1444.000000
20
1192.000000
0
VERTEX
8
0
10
1446.000000
20
1202.000000
0
SEQEND
0
POLYLINE
8
0
6
CONTINUOUS
66
1
62
250
10
0.0
20
0.0
30
0.000000
0
VERTEX
8
0
10
1672.000000
20
1187.000000
0
VERTEX
8
0
10
1673.000000
20
1189.000000
42
0.065806
0
VERTEX
8
0
10
1677.615385
20
1207.076923
0
VERTEX
8
0
10
1679.000000
20
1215.000000
0
VERTEX
8
0
10
1679.000000
20
1217.000000
0
VERTEX
8
0
10
1678.000000
20
1218.000000
0
SEQEND
0
POLYLINE
8
0
6
CONTINUOUS
66
1
62
250
10
0.0
20
0.0
30
0.000000
0
VERTEX
8
0
10
382.000000
20
1166.000000
0
VERTEX
8
0
10
381.000000
20
1177.000000
0
SEQEND
0
POLYLINE
8
0
6
CONTINUOUS
66
1
62
250
10
0.0
20
0.0
30
0.000000
0
VERTEX
8
0
10
1442.000000
20
1166.000000
42
-0.091428
0
VERTEX
8
0
10
1443.000000
20
1177.000000
0
SEQEND
0
POLYLINE
8
0
6
CONTINUOUS
66
1
62
250
10
0.0
20
0.0
30
0.000000
0
VERTEX
8
0
10
1672.000000
20
1160.000000
0
VERTEX
8
0
10
1671.000000
20
1164.000000
0
VERTEX
8
0
10
1671.000000
20
1172.000000
0
VERTEX
8
0
10
1672.000000
20
1173.000000
0
VERTEX
8
0
10
1671.000000
20
1175.000000
42
-0.085519
0
VERTEX
8
0
10
1672.000000
20
1187.000000
0
VERTEX
8
0
10
1671.000000
20
1187.000000
0
VERTEX
8
0
10
1669.000000
20
1189.000000
0
VERTEX
8
0
10
1665.405405
20
1214.067568
0
VERTEX
8
0
10
1664.594595
20
1218.932432
0
VERTEX
8
0
10
1656.647059
20
1251.911765
0
VERTEX
8
0
10
1651.300000
20
1269.100000
0
VERTEX
8
0
10
1639.800000
20
1298.900000
0
VERTEX
8
0
10
1637.200000
20
1304.100000
0
VERTEX
8
0
10
1621.769231
20
1332.846154
0
VERTEX
8
0
10
1615.000000
20
1342.000000
0
VERTEX
8
0
10
208.000000
20
1342.000000
42
0.090154
0
VERTEX
8
0
10
166.300000
20
1249.900000
0
VERTEX
8
0
10
163.647059
20
1240.088235
0
VERTEX
8
0
10
156.594595
20
1205.067568
0
VERTEX
8
0
10
154.580000
20
1192.060000
42
-0.081445
0
VERTEX
8
0
10
152.000000
20
1187.000000
0
SEQEND
0
POLYLINE
8
0
6
CONTINUOUS
66
1
62
250
10
0.0
20
0.0
30
0.000000
0
VERTEX
8
0
10
544.000000
20
1149.000000
0
VERTEX
8
0
10
594.000000
20
1149.000000
0
SEQEND
0
POLYLINE
8
0
6
CONTINUOUS
66
1
62
250
10
0.0
20
0.0
30
0.000000
0
VERTEX
8
0
10
644.000000
20
1149.000000
0
VERTEX
8
0
10
694.000000
20
1149.000000
0
SEQEND
0
POLYLINE
8
0
6
CONTINUOUS
66
1
62
250
10
0.0
20
0.0
30
0.000000
0
VERTEX
8
0
10
733.000000
20
1149.000000
42
0.315436
0
VERTEX
8
0
10
756.800000
20
1164.100000
0
VERTEX
8
0
10
765.000000
20
1180.000000
0
SEQEND
0
POLYLINE
8
0
6
CONTINUOUS
66
1
62
237
10
0.0
20
0.0
30
0.000000
0
VERTEX
8
0
10
1094.000000
20
1149.000000
0
VERTEX
8
0
10
1074.022624
20
1149.475113
0
VERTEX
8
0
10
1066.000000
20
1152.000000
42
-0.112746
0
VERTEX
8
0
10
1055.000000
20
1169.000000
0
SEQEND
0
POLYLINE
8
0
6
CONTINUOUS
66
1
62
251
10
0.0
20
0.0
30
0.000000
0
VERTEX
8
0
10
1133.000000
20
1149.000000
0
VERTEX
8
0
10
1183.000000
20
1149.000000
0
SEQEND
0
POLYLINE
8
0
6
CONTINUOUS
66
1
62
251
10
0.0
20
0.0
30
0.000000
0
VERTEX
8
0
10
1283.000000
20
1149.000000
0
VERTEX
8
0
10
1234.000000
20
1149.000000
0
VERTEX
8
0
10
1233.000000
20
1150.000000
0
SEQEND
0
POLYLINE
8
0
6
CONTINUOUS
66
1
62
250
10
0.0
20
0.0
30
0.000000
0
VERTEX
8
0
10
383.000000
20
1141.000000
0
VERTEX
8
0
10
383.000000
20
1152.000000
0
SEQEND
0
POLYLINE
8
0
6
CONTINUOUS
66
1
62
251
10
0.0
20
0.0
30
0.000000
0
VERTEX
8
0
10
1440.000000
20
1141.000000
0
VERTEX
8
0
10
1441.000000
20
1142.000000
0
VERTEX
8
0
10
1441.000000
20
1152.000000
0
SEQEND
0
POLYLINE
8
0
6
CONTINUOUS
66
1
62
27
10
0.0
20
0.0
30
0.000000
0
VERTEX
8
0
10
150.000000
20
1137.000000
0
VERTEX
8
0
10
151.000000
20
1147.000000
0
SEQEND
0
POLYLINE
8
0
6
CONTINUOUS
66
1
62
27
10
0.0
20
0.0
30
0.000000
0
VERTEX
8
0
10
1673.000000
20
1135.000000
0
VERTEX
8
0
10
1673.000000
20
1146.000000
0
SEQEND
0
POLYLINE
8
0
6
CONTINUOUS
66
1
62
250
10
0.0
20
0.0
30
0.000000
0
VERTEX
8
0
10
383.000000
20
1116.000000
0
VERTEX
8
0
10
383.000000
20
1127.000000
0
SEQEND
0
POLYLINE
8
0
6
CONTINUOUS
66
1
62
250
10
0.0
20
0.0
30
0.000000
0
VERTEX
8
0
10
459.000000
20
1116.000000
42
-0.262280
0
VERTEX
8
0
10
494.000000
20
1147.000000
0
SEQEND
0
POLYLINE
8
0
6
CONTINUOUS
66
1
62
251
10
0.0
20
0.0
30
0.000000
0
VERTEX
8
0
10
1440.000000
20
1116.000000
0
VERTEX
8
0
10
1441.000000
20
1117.000000
0
VERTEX
8
0
10
1440.405405
20
1122.067568
0
VERTEX
8
0
10
1440.000000
20
1127.000000
0
SEQEND
0
POLYLINE
8
0
6
CONTINUOUS
66
1
62
250
10
0.0
20
0.0
30
0.000000
0
VERTEX
8
0
10
1366.000000
20
1115.000000
42
0.149888
0
VERTEX
8
0
10
1357.243902
20
1133.195122
42
0.129184
0
VERTEX
8
0
10
1335.100000
20
1146.300000
0
VERTEX
8
0
10
1334.000000
20
1147.000000
0
SEQEND
0
POLYLINE
8
0
6
CONTINUOUS
66
1
62
237
10
0.0
20
0.0
30
0.000000
0
VERTEX
8
0
10
151.000000
20
1111.000000
0
VERTEX
8
0
10
150.000000
20
1122.000000
0
SEQEND
0
POLYLINE
8
0
6
CONTINUOUS
66
1
62
251
10
0.0
20
0.0
30
0.000000
0
VERTEX
8
0
10
1672.000000
20
1111.000000
42
0.075231
0
VERTEX
8
0
10
1673.000000
20
1121.000000
0
SEQEND
0
POLYLINE
8
0
6
CONTINUOUS
66
1
62
250
10
0.0
20
0.0
30
0.000000
0
VERTEX
8
0
10
382.000000
20
1091.000000
0
VERTEX
8
0
10
382.000000
20
1101.000000
0
SEQEND
0
POLYLINE
8
0
6
CONTINUOUS
66
1
62
27
10
0.0
20
0.0
30
0.000000
0
VERTEX
8
0
10
1442.000000
20
1091.000000
0
VERTEX
8
0
10
1441.000000
20
1102.000000
0
SEQEND
0
POLYLINE
8
0
6
CONTINUOUS
66
1
62
27
10
0.0
20
0.0
30
0.000000
0
VERTEX
8
0
10
153.000000
20
1090.000000
0
VERTEX
8
0
10
152.000000
20
1097.000000
0
SEQEND
0
POLYLINE
8
0
6
CONTINUOUS
66
1
62
250
10
0.0
20
0.0
30
0.000000
0
VERTEX
8
0
10
379.000000
20
1066.000000
0
VERTEX
8
0
10
380.000000
20
1077.000000
0
SEQEND
0
POLYLINE
8
0
6
CONTINUOUS
66
1
62
251
10
0.0
20
0.0
30
0.000000
0
VERTEX
8
0
10
1444.000000
20
1066.000000
0
VERTEX
8
0
10
1444.500000
20
1067.000000
0
VERTEX
8
0
10
1443.560976
20
1075.951220
0
VERTEX
8
0
10
1443.000000
20
1077.000000
0
SEQEND
0
POLYLINE
8
0
6
CONTINUOUS
66
1
62
250
10
0.0
20
0.0
30
0.000000
0
VERTEX
8
0
10
144.000000
20
1047.000000
0
VERTEX
8
0
10
140.076923
20
1047.384615
0
VERTEX
8
0
10
91.088235
20
1061.352941
0
VERTEX
8
0
10
89.900000
20
1061.700000
42
-0.121640
0
VERTEX
8
0
10
85.000000
20
1064.000000
0
VERTEX
8
0
10
85.000000
20
1198.000000
42
-0.086388
0
VERTEX
8
0
10
101.900000
20
1204.300000
0
VERTEX
8
0
10
112.911765
20
1207.352941
0
VERTEX
8
0
10
142.000000
20
1216.000000
0
VERTEX
8
0
10
145.000000
20
1213.000000
0
VERTEX
8
0
10
146.615385
20
1203.923077
0
VERTEX
8
0
10
147.384615
20
1200.076923
42
0.101678
0
VERTEX
8
0
10
152.000000
20
1187.000000
42
-0.089023
0
VERTEX
8
0
10
151.000000
20
1162.000000
0
SEQEND
0
POLYLINE
8
0
6
CONTINUOUS
66
1
62
250
10
0.0
20
0.0
30
0.000000
0
VERTEX
8
0
10
1680.000000
20
1047.000000
0
VERTEX
8
0
10
1733.100000
20
1061.700000
42
0.284878
0
VERTEX
8
0
10
1739.000000
20
1066.000000
0
VERTEX
8
0
10
1739.000000
20
1197.000000
0
VERTEX
8
0
10
1736.000000
20
1200.000000
0
VERTEX
8
0
10
1687.900000
20
1213.700000
0
VERTEX
8
0
10
1684.911765
20
1214.647059
42
0.189760
0
VERTEX
8
0
10
1679.000000
20
1215.000000
0
SEQEND
0
POLYLINE
8
0
6
CONTINUOUS
66
1
62
250
10
0.0
20
0.0
30
0.000000
0
VERTEX
8
0
10
145.000000
20
1045.000000
0
VERTEX
8
0
10
144.000000
20
1047.000000
0
VERTEX
8
0
10
149.352941
20
1070.911765
42
-0.091075
0
VERTEX
8
0
10
152.000000
20
1074.000000
0
SEQEND
0
POLYLINE
8
0
6
CONTINUOUS
66
1
62
250
10
0.0
20
0.0
30
0.000000
0
VERTEX
8
0
10
1678.000000
20
1044.000000
42
0.184026
0
VERTEX
8
0
10
1680.000000
20
1047.000000
0
VERTEX
8
0
10
1679.300000
20
1048.100000
0
VERTEX
8
0
10
1677.384615
20
1056.076923
42
0.097018
0
VERTEX
8
0
10
1672.000000
20
1074.000000
42
-0.083369
0
VERTEX
8
0
10
1671.000000
20
1096.000000
0
SEQEND
0
POLYLINE
8
0
6
CONTINUOUS
66
1
62
250
10
0.0
20
0.0
30
0.000000
0
VERTEX
8
0
10
375.000000
20
1042.000000
0
VERTEX
8
0
10
377.000000
20
1053.000000
0
SEQEND
0
POLYLINE
8
0
6
CONTINUOUS
66
1
62
250
10
0.0
20
0.0
30
0.000000
0
VERTEX
8
0
10
1449.000000
20
1042.000000
0
VERTEX
8
0
10
1448.384615
20
1044.076923
42
0.075753
0
VERTEX
8
0
10
1446.000000
20
1053.000000
0
SEQEND
0
POLYLINE
8
0
6
CONTINUOUS
66
1
62
250
10
0.0
20
0.0
30
0.000000
0
VERTEX
8
0
10
369.000000
20
1017.000000
0
VERTEX
8
0
10
372.000000
20
1028.000000
0
SEQEND
0
POLYLINE
8
0
6
CONTINUOUS
66
1
62
250
10
0.0
20
0.0
30
0.000000
0
VERTEX
8
0
10
1454.000000
20
1017.000000
0
VERTEX
8
0
10
1452.000000
20
1028.000000
0
SEQEND
0
POLYLINE
8
0
6
CONTINUOUS
66
1
62
250
10
0.0
20
0.0
30
0.000000
0
VERTEX
8
0
10
457.000000
20
1015.000000
0
VERTEX
8
0
10
457.000000
20
1064.000000
0
SEQEND
0
POLYLINE
8
0
6
CONTINUOUS
66
1
62
250
10
0.0
20
0.0
30
0.000000
0
VERTEX
8
0
10
1367.000000
20
1014.000000
0
VERTEX
8
0
10
1367.000000
20
1063.000000
0
SEQEND
0
POLYLINE
8
0
6
CONTINUOUS
66
1
62
197
10
0.0
20
0.0
30
0.000000
0
VERTEX
8
0
10
362.000000
20
993.000000
0
VERTEX
8
0
10
366.000000
20
1004.000000
0
SEQEND
0
POLYLINE
8
0
6
CONTINUOUS
66
1
62
250
10
0.0
20
0.0
30
0.000000
0
VERTEX
8
0
10
1461.000000
20
993.000000
0
VERTEX
8
0
10
1458.000000
20
1004.000000
0
SEQEND
0
POLYLINE
8
0
6
CONTINUOUS
66
1
62
250
10
0.0
20
0.0
30
0.000000
0
VERTEX
8
0
10
354.000000
20
970.000000
0
VERTEX
8
0
10
358.000000
20
980.000000
0
SEQEND
0
POLYLINE
8
0
6
CONTINUOUS
66
1
62
250
10
0.0
20
0.0
30
0.000000
0
VERTEX
8
0
10
1470.000000
20
970.000000
0
VERTEX
8
0
10
1466.000000
20
980.000000
0
SEQEND
0
POLYLINE
8
0
6
CONTINUOUS
66
1
62
250
10
0.0
20
0.0
30
0.000000
0
VERTEX
8
0
10
344.000000
20
947.000000
42
-0.082621
0
VERTEX
8
0
10
349.000000
20
958.000000
0
SEQEND
0
POLYLINE
8
0
6
CONTINUOUS
66
1
62
250
10
0.0
20
0.0
30
0.000000
0
VERTEX
8
0
10
1480.000000
20
947.000000
42
0.076953
0
VERTEX
8
0
10
1474.000000
20
958.000000
0
SEQEND
0
POLYLINE
8
0
6
CONTINUOUS
66
1
62
250
10
0.0
20
0.0
30
0.000000
0
VERTEX
8
0
10
331.000000
20
926.000000
0
VERTEX
8
0
10
336.000000
20
935.000000
0
SEQEND
0
POLYLINE
8
0
6
CONTINUOUS
66
1
62
250
10
0.0
20
0.0
30
0.000000
0
VERTEX
8
0
10
1492.000000
20
926.000000
0
VERTEX
8
0
10
1487.000000
20
935.000000
0
SEQEND
0
POLYLINE
8
0
6
CONTINUOUS
66
1
62
250
10
0.0
20
0.0
30
0.000000
0
VERTEX
8
0
10
350.000000
20
918.000000
0
VERTEX
8
0
10
362.000000
20
918.000000
0
SEQEND
0
POLYLINE
8
0
6
CONTINUOUS
66
1
62
250
10
0.0
20
0.0
30
0.000000
0
VERTEX
8
0
10
375.000000
20
918.000000
0
VERTEX
8
0
10
387.000000
20
918.000000
0
SEQEND
0
POLYLINE
8
0
6
CONTINUOUS
66
1
62
250
10
0.0
20
0.0
30
0.000000
0
VERTEX
8
0
10
400.000000
20
918.000000
0
VERTEX
8
0
10
412.000000
20
918.000000
0
SEQEND
0
POLYLINE
8
0
6
CONTINUOUS
66
1
62
250
10
0.0
20
0.0
30
0.000000
0
VERTEX
8
0
10
425.000000
20
918.000000
0
VERTEX
8
0
10
437.000000
20
918.000000
0
SEQEND
0
POLYLINE
8
0
6
CONTINUOUS
66
1
62
250
10
0.0
20
0.0
30
0.000000
0
VERTEX
8
0
10
450.000000
20
918.000000
0
VERTEX
8
0
10
456.000000
20
918.000000
0
VERTEX
8
0
10
462.000000
20
918.000000
0
SEQEND
0
POLYLINE
8
0
6
CONTINUOUS
66
1
62
250
10
0.0
20
0.0
30
0.000000
0
VERTEX
8
0
10
475.000000
20
918.000000
0
VERTEX
8
0
10
487.000000
20
918.000000
0
SEQEND
0
POLYLINE
8
0
6
CONTINUOUS
66
1
62
250
10
0.0
20
0.0
30
0.000000
0
VERTEX
8
0
10
500.000000
20
918.000000
0
VERTEX
8
0
10
512.000000
20
918.000000
0
SEQEND
0
POLYLINE
8
0
6
CONTINUOUS
66
1
62
250
10
0.0
20
0.0
30
0.000000
0
VERTEX
8
0
10
525.000000
20
918.000000
0
VERTEX
8
0
10
537.000000
20
918.000000
0
SEQEND
0
POLYLINE
8
0
6
CONTINUOUS
66
1
62
250
10
0.0
20
0.0
30
0.000000
0
VERTEX
8
0
10
550.000000
20
918.000000
0
VERTEX
8
0
10
562.000000
20
918.000000
0
SEQEND
0
POLYLINE
8
0
6
CONTINUOUS
66
1
62
250
10
0.0
20
0.0
30
0.000000
0
VERTEX
8
0
10
575.000000
20
918.000000
0
VERTEX
8
0
10
587.000000
20
918.000000
0
SEQEND
0
POLYLINE
8
0
6
CONTINUOUS
66
1
62
250
10
0.0
20
0.0
30
0.000000
0
VERTEX
8
0
10
600.000000
20
918.000000
0
VERTEX
8
0
10
612.000000
20
918.000000
0
SEQEND
0
POLYLINE
8
0
6
CONTINUOUS
66
1
62
250
10
0.0
20
0.0
30
0.000000
0
VERTEX
8
0
10
625.000000
20
918.000000
0
VERTEX
8
0
10
637.000000
20
918.000000
0
SEQEND
0
POLYLINE
8
0
6
CONTINUOUS
66
1
62
250
10
0.0
20
0.0
30
0.000000
0
VERTEX
8
0
10
650.000000
20
918.000000
0
VERTEX
8
0
10
662.000000
20
918.000000
0
SEQEND
0
POLYLINE
8
0
6
CONTINUOUS
66
1
62
250
10
0.0
20
0.0
30
0.000000
0
VERTEX
8
0
10
675.000000
20
918.000000
0
VERTEX
8
0
10
687.000000
20
918.000000
0
SEQEND
0
POLYLINE
8
0
6
CONTINUOUS
66
1
62
250
10
0.0
20
0.0
30
0.000000
0
VERTEX
8
0
10
700.000000
20
918.000000
0
VERTEX
8
0
10
712.000000
20
918.000000
0
SEQEND
0
POLYLINE
8
0
6
CONTINUOUS
66
1
62
250
10
0.0
20
0.0
30
0.000000
0
VERTEX
8
0
10
725.000000
20
918.000000
0
VERTEX
8
0
10
737.000000
20
918.000000
0
SEQEND
0
POLYLINE
8
0
6
CONTINUOUS
66
1
62
250
10
0.0
20
0.0
30
0.000000
0
VERTEX
8
0
10
750.000000
20
918.000000
0
VERTEX
8
0
10
762.000000
20
918.000000
0
SEQEND
0
POLYLINE
8
0
6
CONTINUOUS
66
1
62
250
10
0.0
20
0.0
30
0.000000
0
VERTEX
8
0
10
775.000000
20
918.000000
0
VERTEX
8
0
10
787.000000
20
918.000000
0
SEQEND
0
POLYLINE
8
0
6
CONTINUOUS
66
1
62
250
10
0.0
20
0.0
30
0.000000
0
VERTEX
8
0
10
800.000000
20
918.000000
0
VERTEX
8
0
10
812.000000
20
918.000000
0
SEQEND
0
POLYLINE
8
0
6
CONTINUOUS
66
1
62
250
10
0.0
20
0.0
30
0.000000
0
VERTEX
8
0
10
825.000000
20
918.000000
0
VERTEX
8
0
10
837.000000
20
918.000000
0
SEQEND
0
POLYLINE
8
0
6
CONTINUOUS
66
1
62
250
10
0.0
20
0.0
30
0.000000
0
VERTEX
8
0
10
850.000000
20
918.000000
0
VERTEX
8
0
10
862.000000
20
918.000000
0
SEQEND
0
POLYLINE
8
0
6
CONTINUOUS
66
1
62
250
10
0.0
20
0.0
30
0.000000
0
VERTEX
8
0
10
875.000000
20
918.000000
0
VERTEX
8
0
10
887.000000
20
918.000000
0
SEQEND
0
POLYLINE
8
0
6
CONTINUOUS
66
1
62
250
10
0.0
20
0.0
30
0.000000
0
VERTEX
8
0
10
900.000000
20
918.000000
0
VERTEX
8
0
10
912.000000
20
918.000000
0
SEQEND
0
POLYLINE
8
0
6
CONTINUOUS
66
1
62
250
10
0.0
20
0.0
30
0.000000
0
VERTEX
8
0
10
925.000000
20
918.000000
0
VERTEX
8
0
10
937.000000
20
918.000000
0
SEQEND
0
POLYLINE
8
0
6
CONTINUOUS
66
1
62
250
10
0.0
20
0.0
30
0.000000
0
VERTEX
8
0
10
950.000000
20
918.000000
0
VERTEX
8
0
10
962.000000
20
918.000000
0
SEQEND
0
POLYLINE
8
0
6
CONTINUOUS
66
1
62
250
10
0.0
20
0.0
30
0.000000
0
VERTEX
8
0
10
975.000000
20
918.000000
0
VERTEX
8
0
10
987.000000
20
918.000000
0
SEQEND
0
POLYLINE
8
0
6
CONTINUOUS
66
1
62
250
10
0.0
20
0.0
30
0.000000
0
VERTEX
8
0
10
1000.000000
20
918.000000
0
VERTEX
8
0
10
1012.000000
20
918.000000
0
SEQEND
0
POLYLINE
8
0
6
CONTINUOUS
66
1
62
250
10
0.0
20
0.0
30
0.000000
0
VERTEX
8
0
10
1025.000000
20
918.000000
0
VERTEX
8
0
10
1037.000000
20
918.000000
0
SEQEND
0
POLYLINE
8
0
6
CONTINUOUS
66
1
62
250
10
0.0
20
0.0
30
0.000000
0
VERTEX
8
0
10
1050.000000
20
918.000000
0
VERTEX
8
0
10
1062.000000
20
918.000000
0
SEQEND
0
POLYLINE
8
0
6
CONTINUOUS
66
1
62
250
10
0.0
20
0.0
30
0.000000
0
VERTEX
8
0
10
1075.000000
20
918.000000
0
VERTEX
8
0
10
1087.000000
20
918.000000
0
SEQEND
0
POLYLINE
8
0
6
CONTINUOUS
66
1
62
250
10
0.0
20
0.0
30
0.000000
0
VERTEX
8
0
10
1100.000000
20
918.000000
0
VERTEX
8
0
10
1112.000000
20
918.000000
0
SEQEND
0
POLYLINE
8
0
6
CONTINUOUS
66
1
62
250
10
0.0
20
0.0
30
0.000000
0
VERTEX
8
0
10
1125.000000
20
918.000000
0
VERTEX
8
0
10
1137.000000
20
918.000000
0
SEQEND
0
POLYLINE
8
0
6
CONTINUOUS
66
1
62
250
10
0.0
20
0.0
30
0.000000
0
VERTEX
8
0
10
1150.000000
20
918.000000
0
VERTEX
8
0
10
1162.000000
20
918.000000
0
SEQEND
0
POLYLINE
8
0
6
CONTINUOUS
66
1
62
250
10
0.0
20
0.0
30
0.000000
0
VERTEX
8
0
10
1175.000000
20
918.000000
0
VERTEX
8
0
10
1187.000000
20
918.000000
0
SEQEND
0
POLYLINE
8
0
6
CONTINUOUS
66
1
62
250
10
0.0
20
0.0
30
0.000000
0
VERTEX
8
0
10
1200.000000
20
918.000000
0
VERTEX
8
0
10
1212.000000
20
918.000000
0
SEQEND
0
POLYLINE
8
0
6
CONTINUOUS
66
1
62
250
10
0.0
20
0.0
30
0.000000
0
VERTEX
8
0
10
1225.000000
20
918.000000
0
VERTEX
8
0
10
1237.000000
20
918.000000
0
SEQEND
0
POLYLINE
8
0
6
CONTINUOUS
66
1
62
250
10
0.0
20
0.0
30
0.000000
0
VERTEX
8
0
10
1250.000000
20
918.000000
0
VERTEX
8
0
10
1262.000000
20
918.000000
0
SEQEND
0
POLYLINE
8
0
6
CONTINUOUS
66
1
62
250
10
0.0
20
0.0
30
0.000000
0
VERTEX
8
0
10
1275.000000
20
918.000000
0
VERTEX
8
0
10
1287.000000
20
918.000000
0
SEQEND
0
POLYLINE
8
0
6
CONTINUOUS
66
1
62
250
10
0.0
20
0.0
30
0.000000
0
VERTEX
8
0
10
1300.000000
20
918.000000
0
VERTEX
8
0
10
1312.000000
20
918.000000
0
SEQEND
0
POLYLINE
8
0
6
CONTINUOUS
66
1
62
250
10
0.0
20
0.0
30
0.000000
0
VERTEX
8
0
10
1325.000000
20
918.000000
0
VERTEX
8
0
10
1337.000000
20
918.000000
0
SEQEND
0
POLYLINE
8
0
6
CONTINUOUS
66
1
62
250
10
0.0
20
0.0
30
0.000000
0
VERTEX
8
0
10
1350.000000
20
918.000000
0
VERTEX
8
0
10
1362.000000
20
918.000000
0
SEQEND
0
POLYLINE
8
0
6
CONTINUOUS
66
1
62
250
10
0.0
20
0.0
30
0.000000
0
VERTEX
8
0
10
1375.000000
20
918.000000
0
VERTEX
8
0
10
1387.000000
20
918.000000
0
SEQEND
0
POLYLINE
8
0
6
CONTINUOUS
66
1
62
250
10
0.0
20
0.0
30
0.000000
0
VERTEX
8
0
10
1400.000000
20
918.000000
0
VERTEX
8
0
10
1412.000000
20
918.000000
0
SEQEND
0
POLYLINE
8
0
6
CONTINUOUS
66
1
62
250
10
0.0
20
0.0
30
0.000000
0
VERTEX
8
0
10
1425.000000
20
918.000000
0
VERTEX
8
0
10
1437.000000
20
918.000000
0
SEQEND
0
POLYLINE
8
0
6
CONTINUOUS
66
1
62
250
10
0.0
20
0.0
30
0.000000
0
VERTEX
8
0
10
1450.000000
20
918.000000
0
VERTEX
8
0
10
1462.000000
20
918.000000
0
SEQEND
0
POLYLINE
8
0
6
CONTINUOUS
66
1
62
250
10
0.0
20
0.0
30
0.000000
0
VERTEX
8
0
10
1475.000000
20
918.000000
0
VERTEX
8
0
10
1487.000000
20
918.000000
0
SEQEND
0
POLYLINE
8
0
6
CONTINUOUS
66
1
62
250
10
0.0
20
0.0
30
0.000000
0
VERTEX
8
0
10
152.000000
20
1086.000000
0
VERTEX
8
0
10
152.000000
20
1074.000000
0
VERTEX
8
0
10
154.580000
20
1069.940000
0
VERTEX
8
0
10
155.420000
20
1064.060000
42
0.112755
0
VERTEX
8
0
10
208.000000
20
918.000000
0
VERTEX
8
0
10
324.000000
20
917.000000
0
VERTEX
8
0
10
325.000000
20
918.000000
0
VERTEX
8
0
10
337.000000
20
918.000000
0
SEQEND
0
POLYLINE
8
0
6
CONTINUOUS
66
1
62
250
10
0.0
20
0.0
30
0.000000
0
VERTEX
8
0
10
456.000000
20
915.000000
0
VERTEX
8
0
10
456.000000
20
918.000000
0
VERTEX
8
0
10
457.000000
20
964.000000
0
SEQEND
0
POLYLINE
8
0
6
CONTINUOUS
66
1
62
250
10
0.0
20
0.0
30
0.000000
0
VERTEX
8
0
10
1367.000000
20
914.000000
0
VERTEX
8
0
10
1367.000000
20
962.000000
0
SEQEND
0
POLYLINE
8
0
6
CONTINUOUS
66
1
62
250
10
0.0
20
0.0
30
0.000000
0
VERTEX
8
0
10
337.000000
20
817.000000
0
VERTEX
8
0
10
348.000000
20
817.000000
0
SEQEND
0
POLYLINE
8
0
6
CONTINUOUS
66
1
62
250
10
0.0
20
0.0
30
0.000000
0
VERTEX
8
0
10
362.000000
20
817.000000
0
VERTEX
8
0
10
373.000000
20
817.000000
0
SEQEND
0
POLYLINE
8
0
6
CONTINUOUS
66
1
62
250
10
0.0
20
0.0
30
0.000000
0
VERTEX
8
0
10
387.000000
20
817.000000
0
VERTEX
8
0
10
398.000000
20
817.000000
0
SEQEND
0
POLYLINE
8
0
6
CONTINUOUS
66
1
62
250
10
0.0
20
0.0
30
0.000000
0
VERTEX
8
0
10
412.000000
20
817.000000
0
VERTEX
8
0
10
423.000000
20
817.000000
0
SEQEND
0
POLYLINE
8
0
6
CONTINUOUS
66
1
62
250
10
0.0
20
0.0
30
0.000000
0
VERTEX
8
0
10
437.000000
20
817.000000
0
VERTEX
8
0
10
448.000000
20
817.000000
0
SEQEND
0
POLYLINE
8
0
6
CONTINUOUS
66
1
62
250
10
0.0
20
0.0
30
0.000000
0
VERTEX
8
0
10
462.000000
20
817.000000
0
VERTEX
8
0
10
473.000000
20
817.000000
0
SEQEND
0
POLYLINE
8
0
6
CONTINUOUS
66
1
62
250
10
0.0
20
0.0
30
0.000000
0
VERTEX
8
0
10
487.000000
20
817.000000
0
VERTEX
8
0
10
498.000000
20
817.000000
0
SEQEND
0
POLYLINE
8
0
6
CONTINUOUS
66
1
62
250
10
0.0
20
0.0
30
0.000000
0
VERTEX
8
0
10
512.000000
20
817.000000
0
VERTEX
8
0
10
523.000000
20
817.000000
0
SEQEND
0
POLYLINE
8
0
6
CONTINUOUS
66
1
62
250
10
0.0
20
0.0
30
0.000000
0
VERTEX
8
0
10
537.000000
20
817.000000
0
VERTEX
8
0
10
548.000000
20
817.000000
0
SEQEND
0
POLYLINE
8
0
6
CONTINUOUS
66
1
62
250
10
0.0
20
0.0
30
0.000000
0
VERTEX
8
0
10
562.000000
20
817.000000
0
VERTEX
8
0
10
573.000000
20
817.000000
0
SEQEND
0
POLYLINE
8
0
6
CONTINUOUS
66
1
62
250
10
0.0
20
0.0
30
0.000000
0
VERTEX
8
0
10
587.000000
20
817.000000
0
VERTEX
8
0
10
598.000000
20
817.000000
0
SEQEND
0
POLYLINE
8
0
6
CONTINUOUS
66
1
62
250
10
0.0
20
0.0
30
0.000000
0
VERTEX
8
0
10
612.000000
20
817.000000
0
VERTEX
8
0
10
623.000000
20
817.000000
0
SEQEND
0
POLYLINE
8
0
6
CONTINUOUS
66
1
62
250
10
0.0
20
0.0
30
0.000000
0
VERTEX
8
0
10
637.000000
20
817.000000
0
VERTEX
8
0
10
648.000000
20
817.000000
0
SEQEND
0
POLYLINE
8
0
6
CONTINUOUS
66
1
62
250
10
0.0
20
0.0
30
0.000000
0
VERTEX
8
0
10
662.000000
20
817.000000
0
VERTEX
8
0
10
673.000000
20
817.000000
0
SEQEND
0
POLYLINE
8
0
6
CONTINUOUS
66
1
62
250
10
0.0
20
0.0
30
0.000000
0
VERTEX
8
0
10
687.000000
20
817.000000
0
VERTEX
8
0
10
698.000000
20
817.000000
0
SEQEND
0
POLYLINE
8
0
6
CONTINUOUS
66
1
62
250
10
0.0
20
0.0
30
0.000000
0
VERTEX
8
0
10
712.000000
20
817.000000
0
VERTEX
8
0
10
723.000000
20
817.000000
0
SEQEND
0
POLYLINE
8
0
6
CONTINUOUS
66
1
62
250
10
0.0
20
0.0
30
0.000000
0
VERTEX
8
0
10
737.000000
20
817.000000
0
VERTEX
8
0
10
748.000000
20
817.000000
0
SEQEND
0
POLYLINE
8
0
6
CONTINUOUS
66
1
62
250
10
0.0
20
0.0
30
0.000000
0
VERTEX
8
0
10
762.000000
20
817.000000
0
VERTEX
8
0
10
773.000000
20
817.000000
0
SEQEND
0
POLYLINE
8
0
6
CONTINUOUS
66
1
62
250
10
0.0
20
0.0
30
0.000000
0
VERTEX
8
0
10
787.000000
20
817.000000
0
VERTEX
8
0
10
798.000000
20
817.000000
0
SEQEND
0
POLYLINE
8
0
6
CONTINUOUS
66
1
62
250
10
0.0
20
0.0
30
0.000000
0
VERTEX
8
0
10
812.000000
20
817.000000
0
VERTEX
8
0
10
823.000000
20
817.000000
0
SEQEND
0
POLYLINE
8
0
6
CONTINUOUS
66
1
62
250
10
0.0
20
0.0
30
0.000000
0
VERTEX
8
0
10
837.000000
20
817.000000
0
VERTEX
8
0
10
848.000000
20
817.000000
0
SEQEND
0
POLYLINE
8
0
6
CONTINUOUS
66
1
62
250
10
0.0
20
0.0
30
0.000000
0
VERTEX
8
0
10
862.000000
20
817.000000
0
VERTEX
8
0
10
873.000000
20
817.000000
0
SEQEND
0
POLYLINE
8
0
6
CONTINUOUS
66
1
62
250
10
0.0
20
0.0
30
0.000000
0
VERTEX
8
0
10
887.000000
20
817.000000
0
VERTEX
8
0
10
898.000000
20
817.000000
0
SEQEND
0
POLYLINE
8
0
6
CONTINUOUS
66
1
62
250
10
0.0
20
0.0
30
0.000000
0
VERTEX
8
0
10
912.000000
20
817.000000
0
VERTEX
8
0
10
923.000000
20
817.000000
0
SEQEND
0
POLYLINE
8
0
6
CONTINUOUS
66
1
62
250
10
0.0
20
0.0
30
0.000000
0
VERTEX
8
0
10
937.000000
20
817.000000
0
VERTEX
8
0
10
948.000000
20
817.000000
0
SEQEND
0
POLYLINE
8
0
6
CONTINUOUS
66
1
62
250
10
0.0
20
0.0
30
0.000000
0
VERTEX
8
0
10
962.000000
20
817.000000
0
VERTEX
8
0
10
973.000000
20
817.000000
0
SEQEND
0
POLYLINE
8
0
6
CONTINUOUS
66
1
62
250
10
0.0
20
0.0
30
0.000000
0
VERTEX
8
0
10
987.000000
20
817.000000
0
VERTEX
8
0
10
998.000000
20
817.000000
0
SEQEND
0
POLYLINE
8
0
6
CONTINUOUS
66
1
62
250
10
0.0
20
0.0
30
0.000000
0
VERTEX
8
0
10
1012.000000
20
817.000000
0
VERTEX
8
0
10
1023.000000
20
817.000000
0
SEQEND
0
POLYLINE
8
0
6
CONTINUOUS
66
1
62
250
10
0.0
20
0.0
30
0.000000
0
VERTEX
8
0
10
1037.000000
20
817.000000
0
VERTEX
8
0
10
1048.000000
20
817.000000
0
SEQEND
0
POLYLINE
8
0
6
CONTINUOUS
66
1
62
250
10
0.0
20
0.0
30
0.000000
0
VERTEX
8
0
10
1062.000000
20
817.000000
0
VERTEX
8
0
10
1073.000000
20
817.000000
0
SEQEND
0
POLYLINE
8
0
6
CONTINUOUS
66
1
62
250
10
0.0
20
0.0
30
0.000000
0
VERTEX
8
0
10
1087.000000
20
817.000000
0
VERTEX
8
0
10
1098.000000
20
817.000000
0
SEQEND
0
POLYLINE
8
0
6
CONTINUOUS
66
1
62
250
10
0.0
20
0.0
30
0.000000
0
VERTEX
8
0
10
1112.000000
20
817.000000
0
VERTEX
8
0
10
1123.000000
20
817.000000
0
SEQEND
0
POLYLINE
8
0
6
CONTINUOUS
66
1
62
250
10
0.0
20
0.0
30
0.000000
0
VERTEX
8
0
10
1137.000000
20
817.000000
0
VERTEX
8
0
10
1148.000000
20
817.000000
0
SEQEND
0
POLYLINE
8
0
6
CONTINUOUS
66
1
62
250
10
0.0
20
0.0
30
0.000000
0
VERTEX
8
0
10
1162.000000
20
817.000000
0
VERTEX
8
0
10
1173.000000
20
817.000000
0
SEQEND
0
POLYLINE
8
0
6
CONTINUOUS
66
1
62
250
10
0.0
20
0.0
30
0.000000
0
VERTEX
8
0
10
1187.000000
20
817.000000
0
VERTEX
8
0
10
1198.000000
20
817.000000
0
SEQEND
0
POLYLINE
8
0
6
CONTINUOUS
66
1
62
250
10
0.0
20
0.0
30
0.000000
0
VERTEX
8
0
10
1212.000000
20
817.000000
0
VERTEX
8
0
10
1223.000000
20
817.000000
0
SEQEND
0
POLYLINE
8
0
6
CONTINUOUS
66
1
62
250
10
0.0
20
0.0
30
0.000000
0
VERTEX
8
0
10
1237.000000
20
817.000000
0
VERTEX
8
0
10
1248.000000
20
817.000000
0
SEQEND
0
POLYLINE
8
0
6
CONTINUOUS
66
1
62
250
10
0.0
20
0.0
30
0.000000
0
VERTEX
8
0
10
1262.000000
20
817.000000
0
VERTEX
8
0
10
1273.000000
20
817.000000
0
SEQEND
0
POLYLINE
8
0
6
CONTINUOUS
66
1
62
250
10
0.0
20
0.0
30
0.000000
0
VERTEX
8
0
10
1287.000000
20
817.000000
0
VERTEX
8
0
10
1298.000000
20
817.000000
0
SEQEND
0
POLYLINE
8
0
6
CONTINUOUS
66
1
62
250
10
0.0
20
0.0
30
0.000000
0
VERTEX
8
0
10
1312.000000
20
817.000000
0
VERTEX
8
0
10
1323.000000
20
817.000000
0
SEQEND
0
POLYLINE
8
0
6
CONTINUOUS
66
1
62
250
10
0.0
20
0.0
30
0.000000
0
VERTEX
8
0
10
1337.000000
20
817.000000
0
VERTEX
8
0
10
1348.000000
20
817.000000
0
SEQEND
0
POLYLINE
8
0
6
CONTINUOUS
66
1
62
250
10
0.0
20
0.0
30
0.000000
0
VERTEX
8
0
10
1362.000000
20
817.000000
0
VERTEX
8
0
10
1367.000000
20
817.000000
0
VERTEX
8
0
10
1373.000000
20
817.000000
0
SEQEND
0
POLYLINE
8
0
6
CONTINUOUS
66
1
62
250
10
0.0
20
0.0
30
0.000000
0
VERTEX
8
0
10
1367.000000
20
817.000000
0
VERTEX
8
0
10
1367.000000
20
862.000000
0
SEQEND
0
POLYLINE
8
0
6
CONTINUOUS
66
1
62
250
10
0.0
20
0.0
30
0.000000
0
VERTEX
8
0
10
1387.000000
20
817.000000
0
VERTEX
8
0
10
1398.000000
20
817.000000
0
SEQEND
0
POLYLINE
8
0
6
CONTINUOUS
66
1
62
250
10
0.0
20
0.0
30
0.000000
0
VERTEX
8
0
10
1412.000000
20
817.000000
0
VERTEX
8
0
10
1423.000000
20
817.000000
0
SEQEND
0
POLYLINE
8
0
6
CONTINUOUS
66
1
62
250
10
0.0
20
0.0
30
0.000000
0
VERTEX
8
0
10
1437.000000
20
817.000000
0
VERTEX
8
0
10
1448.000000
20
817.000000
0
SEQEND
0
POLYLINE
8
0
6
CONTINUOUS
66
1
62
250
10
0.0
20
0.0
30
0.000000
0
VERTEX
8
0
10
1462.000000
20
817.000000
0
VERTEX
8
0
10
1473.000000
20
817.000000
0
SEQEND
0
POLYLINE
8
0
6
CONTINUOUS
66
1
62
250
10
0.0
20
0.0
30
0.000000
0
VERTEX
8
0
10
1487.000000
20
817.000000
0
VERTEX
8
0
10
1498.000000
20
817.000000
0
SEQEND
0
POLYLINE
8
0
6
CONTINUOUS
66
1
62
37
10
0.0
20
0.0
30
0.000000
0
VERTEX
8
0
10
455.000000
20
815.000000
0
VERTEX
8
0
10
456.000000
20
863.000000
0
SEQEND
0
POLYLINE
8
0
6
CONTINUOUS
66
1
62
250
10
0.0
20
0.0
30
0.000000
0
VERTEX
8
0
10
332.000000
20
802.000000
0
VERTEX
8
0
10
324.000000
20
815.000000
0
VERTEX
8
0
10
325.000000
20
817.000000
0
VERTEX
8
0
10
325.000000
20
915.000000
0
VERTEX
8
0
10
324.000000
20
917.000000
0
SEQEND
0
POLYLINE
8
0
6
CONTINUOUS
66
1
62
250
10
0.0
20
0.0
30
0.000000
0
VERTEX
8
0
10
1492.000000
20
802.000000
0
VERTEX
8
0
10
1499.000000
20
815.000000
0
VERTEX
8
0
10
1498.000000
20
817.000000
0
VERTEX
8
0
10
1498.200000
20
817.900000
0
VERTEX
8
0
10
1500.000000
20
917.000000
0
VERTEX
8
0
10
1615.000000
20
918.000000
0
VERTEX
8
0
10
1618.800000
20
924.100000
0
VERTEX
8
0
10
1622.000000
20
929.000000
42
0.120666
0
VERTEX
8
0
10
1624.000000
20
933.000000
0
VERTEX
8
0
10
1628.800000
20
941.100000
42
-0.067868
0
VERTEX
8
0
10
1633.000000
20
948.000000
0
VERTEX
8
0
10
1645.200000
20
975.900000
0
VERTEX
8
0
10
1655.647059
20
1006.088235
0
VERTEX
8
0
10
1658.352941
20
1015.911765
0
VERTEX
8
0
10
1665.594595
20
1048.067568
0
VERTEX
8
0
10
1668.420000
20
1065.940000
42
-0.251665
0
VERTEX
8
0
10
1672.000000
20
1074.000000
0
SEQEND
0
POLYLINE
8
0
6
CONTINUOUS
66
1
62
250
10
0.0
20
0.0
30
0.000000
0
VERTEX
8
0
10
344.000000
20
781.000000
42
0.093395
0
VERTEX
8
0
10
339.000000
20
790.000000
0
SEQEND
0
POLYLINE
8
0
6
CONTINUOUS
66
1
62
250
10
0.0
20
0.0
30
0.000000
0
VERTEX
8
0
10
1479.000000
20
781.000000
0
VERTEX
8
0
10
1480.200000
20
782.900000
42
-0.140768
0
VERTEX
8
0
10
1485.000000
20
790.000000
0
SEQEND
0
POLYLINE
8
0
6
CONTINUOUS
66
1
62
250
10
0.0
20
0.0
30
0.000000
0
VERTEX
8
0
10
1469.000000
20
759.000000
0
VERTEX
8
0
10
1473.000000
20
768.000000
0
SEQEND
0
POLYLINE
8
0
6
CONTINUOUS
66
1
62
250
10
0.0
20
0.0
30
0.000000
0
VERTEX
8
0
10
355.000000
20
758.000000
0
VERTEX
8
0
10
350.000000
20
768.000000
0
SEQEND
0
POLYLINE
8
0
6
CONTINUOUS
66
1
62
250
10
0.0
20
0.0
30
0.000000
0
VERTEX
8
0
10
363.000000
20
734.000000
0
VERTEX
8
0
10
360.000000
20
744.000000
0
SEQEND
0
POLYLINE
8
0
6
CONTINUOUS
66
1
62
250
10
0.0
20
0.0
30
0.000000
0
VERTEX
8
0
10
1461.000000
20
734.000000
42
-0.098611
0
VERTEX
8
0
10
1464.000000
20
744.000000
0
SEQEND
0
POLYLINE
8
0
6
CONTINUOUS
66
1
62
250
10
0.0
20
0.0
30
0.000000
0
VERTEX
8
0
10
370.000000
20
710.000000
0
VERTEX
8
0
10
367.000000
20
721.000000
0
SEQEND
0
POLYLINE
8
0
6
CONTINUOUS
66
1
62
250
10
0.0
20
0.0
30
0.000000
0
VERTEX
8
0
10
1454.000000
20
710.000000
0
VERTEX
8
0
10
1456.000000
20
721.000000
0
SEQEND
0
POLYLINE
8
0
6
CONTINUOUS
66
1
62
27
10
0.0
20
0.0
30
0.000000
0
VERTEX
8
0
10
1448.000000
20
687.000000
0
VERTEX
8
0
10
1449.384615
20
691.923077
42
-0.070651
0
VERTEX
8
0
10
1451.000000
20
697.000000
0
SEQEND
0
POLYLINE
8
0
6
CONTINUOUS
66
1
62
250
10
0.0
20
0.0
30
0.000000
0
VERTEX
8
0
10
376.000000
20
686.000000
0
VERTEX
8
0
10
374.615385
20
690.923077
42
0.124249
0
VERTEX
8
0
10
372.000000
20
697.000000
0
SEQEND
0
POLYLINE
8
0
6
CONTINUOUS
66
1
62
197
10
0.0
20
0.0
30
0.000000
0
VERTEX
8
0
10
1444.000000
20
662.000000
0
VERTEX
8
0
10
1446.000000
20
672.000000
0
SEQEND
0
POLYLINE
8
0
6
CONTINUOUS
66
1
62
250
10
0.0
20
0.0
30
0.000000
0
VERTEX
8
0
10
380.000000
20
661.000000
0
VERTEX
8
0
10
378.000000
20
672.000000
0
SEQEND
0
POLYLINE
8
0
6
CONTINUOUS
66
1
62
250
10
0.0
20
0.0
30
0.000000
0
VERTEX
8
0
10
382.000000
20
636.000000
0
VERTEX
8
0
10
381.000000
20
647.000000
0
SEQEND
0
POLYLINE
8
0
6
CONTINUOUS
66
1
62
250
10
0.0
20
0.0
30
0.000000
0
VERTEX
8
0
10
1442.000000
20
636.000000
42
-0.091428
0
VERTEX
8
0
10
1443.000000
20
647.000000
0
SEQEND
0
POLYLINE
8
0
6
CONTINUOUS
66
1
62
250
10
0.0
20
0.0
30
0.000000
0
VERTEX
8
0
10
383.000000
20
611.000000
0
VERTEX
8
0
10
383.000000
20
622.000000
0
SEQEND
0
POLYLINE
8
0
6
CONTINUOUS
66
1
62
251
10
0.0
20
0.0
30
0.000000
0
VERTEX
8
0
10
1441.000000
20
611.000000
0
VERTEX
8
0
10
1441.000000
20
622.000000
0
SEQEND
0
POLYLINE
8
0
6
CONTINUOUS
66
1
62
250
10
0.0
20
0.0
30
0.000000
0
VERTEX
8
0
10
383.000000
20
586.000000
0
VERTEX
8
0
10
383.000000
20
597.000000
0
SEQEND
0
POLYLINE
8
0
6
CONTINUOUS
66
1
62
27
10
0.0
20
0.0
30
0.000000
0
VERTEX
8
0
10
1441.000000
20
586.000000
0
VERTEX
8
0
10
1440.000000
20
597.000000
0
SEQEND
0
POLYLINE
8
0
6
CONTINUOUS
66
1
62
250
10
0.0
20
0.0
30
0.000000
0
VERTEX
8
0
10
382.000000
20
561.000000
0
VERTEX
8
0
10
382.000000
20
571.000000
0
SEQEND
0
POLYLINE
8
0
6
CONTINUOUS
66
1
62
250
10
0.0
20
0.0
30
0.000000
0
VERTEX
8
0
10
1442.000000
20
561.000000
0
VERTEX
8
0
10
1441.000000
20
572.000000
0
SEQEND
0
POLYLINE
8
0
6
CONTINUOUS
66
1
62
250
10
0.0
20
0.0
30
0.000000
0
VERTEX
8
0
10
379.000000
20
536.000000
0
VERTEX
8
0
10
380.000000
20
547.000000
0
SEQEND
0
POLYLINE
8
0
6
CONTINUOUS
66
1
62
247
10
0.0
20
0.0
30
0.000000
0
VERTEX
8
0
10
1444.000000
20
536.000000
42
0.172008
0
VERTEX
8
0
10
1443.000000
20
547.000000
0
SEQEND
0
POLYLINE
8
0
6
CONTINUOUS
66
1
62
250
10
0.0
20
0.0
30
0.000000
0
VERTEX
8
0
10
375.000000
20
512.000000
0
VERTEX
8
0
10
377.000000
20
522.000000
0
SEQEND
0
POLYLINE
8
0
6
CONTINUOUS
66
1
62
250
10
0.0
20
0.0
30
0.000000
0
VERTEX
8
0
10
1449.000000
20
512.000000
0
VERTEX
8
0
10
1447.000000
20
522.000000
0
SEQEND
0
POLYLINE
8
0
6
CONTINUOUS
66
1
62
250
10
0.0
20
0.0
30
0.000000
0
VERTEX
8
0
10
370.000000
20
487.000000
0
VERTEX
8
0
10
372.000000
20
498.000000
0
SEQEND
0
POLYLINE
8
0
6
CONTINUOUS
66
1
62
250
10
0.0
20
0.0
30
0.000000
0
VERTEX
8
0
10
1454.000000
20
487.000000
0
VERTEX
8
0
10
1452.000000
20
498.000000
0
SEQEND
0
POLYLINE
8
0
6
CONTINUOUS
66
1
62
247
10
0.0
20
0.0
30
0.000000
0
VERTEX
8
0
10
363.000000
20
463.000000
0
VERTEX
8
0
10
366.000000
20
474.000000
0
SEQEND
0
POLYLINE
8
0
6
CONTINUOUS
66
1
62
250
10
0.0
20
0.0
30
0.000000
0
VERTEX
8
0
10
1461.000000
20
463.000000
0
VERTEX
8
0
10
1458.000000
20
474.000000
0
SEQEND
0
POLYLINE
8
0
6
CONTINUOUS
66
1
62
250
10
0.0
20
0.0
30
0.000000
0
VERTEX
8
0
10
354.000000
20
441.000000
0
VERTEX
8
0
10
358.000000
20
450.000000
0
SEQEND
0
POLYLINE
8
0
6
CONTINUOUS
66
1
62
250
10
0.0
20
0.0
30
0.000000
0
VERTEX
8
0
10
1470.000000
20
440.000000
0
VERTEX
8
0
10
1466.000000
20
450.000000
0
SEQEND
0
POLYLINE
8
0
6
CONTINUOUS
66
1
62
250
10
0.0
20
0.0
30
0.000000
0
VERTEX
8
0
10
344.000000
20
417.000000
0
VERTEX
8
0
10
348.000000
20
427.000000
0
SEQEND
0
POLYLINE
8
0
6
CONTINUOUS
66
1
62
250
10
0.0
20
0.0
30
0.000000
0
VERTEX
8
0
10
1480.000000
20
417.000000
0
VERTEX
8
0
10
1475.000000
20
427.000000
0
SEQEND
0
POLYLINE
8
0
6
CONTINUOUS
66
1
62
250
10
0.0
20
0.0
30
0.000000
0
VERTEX
8
0
10
331.000000
20
396.000000
0
VERTEX
8
0
10
334.200000
20
400.900000
42
-0.113019
0
VERTEX
8
0
10
337.000000
20
405.000000
0
SEQEND
0
POLYLINE
8
0
6
CONTINUOUS
66
1
62
250
10
0.0
20
0.0
30
0.000000
0
VERTEX
8
0
10
1492.000000
20
396.000000
0
VERTEX
8
0
10
1487.000000
20
405.000000
0
SEQEND
0
POLYLINE
8
0
6
CONTINUOUS
66
1
62
250
10
0.0
20
0.0
30
0.000000
0
VERTEX
8
0
10
337.000000
20
390.000000
0
VERTEX
8
0
10
325.000000
20
389.000000
0
VERTEX
8
0
10
321.995690
20
389.504385
0
VERTEX
8
0
10
208.000000
20
390.000000
42
-0.117630
0
VERTEX
8
0
10
154.439024
20
542.048780
42
-0.086686
0
VERTEX
8
0
10
160.647059
20
699.088235
42
-0.101519
0
VERTEX
8
0
10
206.000000
20
811.000000
42
-0.087279
0
VERTEX
8
0
10
209.004347
20
813.504424
0
VERTEX
8
0
10
324.000000
20
815.000000
0
SEQEND
0
POLYLINE
8
0
6
CONTINUOUS
66
1
62
250
10
0.0
20
0.0
30
0.000000
0
VERTEX
8
0
10
351.000000
20
390.000000
0
VERTEX
8
0
10
362.000000
20
390.000000
0
SEQEND
0
POLYLINE
8
0
6
CONTINUOUS
66
1
62
250
10
0.0
20
0.0
30
0.000000
0
VERTEX
8
0
10
376.000000
20
390.000000
0
VERTEX
8
0
10
387.000000
20
390.000000
0
SEQEND
0
POLYLINE
8
0
6
CONTINUOUS
66
1
62
250
10
0.0
20
0.0
30
0.000000
0
VERTEX
8
0
10
401.000000
20
390.000000
0
VERTEX
8
0
10
412.000000
20
390.000000
0
SEQEND
0
POLYLINE
8
0
6
CONTINUOUS
66
1
62
250
10
0.0
20
0.0
30
0.000000
0
VERTEX
8
0
10
426.000000
20
390.000000
0
VERTEX
8
0
10
437.000000
20
390.000000
0
SEQEND
0
POLYLINE
8
0
6
CONTINUOUS
66
1
62
250
10
0.0
20
0.0
30
0.000000
0
VERTEX
8
0
10
451.000000
20
390.000000
0
VERTEX
8
0
10
462.000000
20
390.000000
0
SEQEND
0
POLYLINE
8
0
6
CONTINUOUS
66
1
62
250
10
0.0
20
0.0
30
0.000000
0
VERTEX
8
0
10
476.000000
20
390.000000
0
VERTEX
8
0
10
487.000000
20
390.000000
0
SEQEND
0
POLYLINE
8
0
6
CONTINUOUS
66
1
62
250
10
0.0
20
0.0
30
0.000000
0
VERTEX
8
0
10
501.000000
20
390.000000
0
VERTEX
8
0
10
512.000000
20
390.000000
0
SEQEND
0
POLYLINE
8
0
6
CONTINUOUS
66
1
62
250
10
0.0
20
0.0
30
0.000000
0
VERTEX
8
0
10
526.000000
20
390.000000
0
VERTEX
8
0
10
537.000000
20
390.000000
0
SEQEND
0
POLYLINE
8
0
6
CONTINUOUS
66
1
62
250
10
0.0
20
0.0
30
0.000000
0
VERTEX
8
0
10
551.000000
20
390.000000
0
VERTEX
8
0
10
562.000000
20
390.000000
0
SEQEND
0
POLYLINE
8
0
6
CONTINUOUS
66
1
62
250
10
0.0
20
0.0
30
0.000000
0
VERTEX
8
0
10
576.000000
20
390.000000
0
VERTEX
8
0
10
587.000000
20
390.000000
0
SEQEND
0
POLYLINE
8
0
6
CONTINUOUS
66
1
62
250
10
0.0
20
0.0
30
0.000000
0
VERTEX
8
0
10
601.000000
20
390.000000
0
VERTEX
8
0
10
612.000000
20
390.000000
0
SEQEND
0
POLYLINE
8
0
6
CONTINUOUS
66
1
62
250
10
0.0
20
0.0
30
0.000000
0
VERTEX
8
0
10
626.000000
20
390.000000
0
VERTEX
8
0
10
637.000000
20
390.000000
0
SEQEND
0
POLYLINE
8
0
6
CONTINUOUS
66
1
62
250
10
0.0
20
0.0
30
0.000000
0
VERTEX
8
0
10
651.000000
20
390.000000
0
VERTEX
8
0
10
662.000000
20
390.000000
0
SEQEND
0
POLYLINE
8
0
6
CONTINUOUS
66
1
62
250
10
0.0
20
0.0
30
0.000000
0
VERTEX
8
0
10
676.000000
20
390.000000
0
VERTEX
8
0
10
687.000000
20
390.000000
0
SEQEND
0
POLYLINE
8
0
6
CONTINUOUS
66
1
62
250
10
0.0
20
0.0
30
0.000000
0
VERTEX
8
0
10
701.000000
20
390.000000
0
VERTEX
8
0
10
712.000000
20
390.000000
0
SEQEND
0
POLYLINE
8
0
6
CONTINUOUS
66
1
62
250
10
0.0
20
0.0
30
0.000000
0
VERTEX
8
0
10
726.000000
20
390.000000
0
VERTEX
8
0
10
737.000000
20
390.000000
0
SEQEND
0
POLYLINE
8
0
6
CONTINUOUS
66
1
62
250
10
0.0
20
0.0
30
0.000000
0
VERTEX
8
0
10
751.000000
20
390.000000
0
VERTEX
8
0
10
762.000000
20
390.000000
0
SEQEND
0
POLYLINE
8
0
6
CONTINUOUS
66
1
62
250
10
0.0
20
0.0
30
0.000000
0
VERTEX
8
0
10
776.000000
20
390.000000
0
VERTEX
8
0
10
787.000000
20
390.000000
0
SEQEND
0
POLYLINE
8
0
6
CONTINUOUS
66
1
62
250
10
0.0
20
0.0
30
0.000000
0
VERTEX
8
0
10
801.000000
20
390.000000
0
VERTEX
8
0
10
812.000000
20
390.000000
0
SEQEND
0
POLYLINE
8
0
6
CONTINUOUS
66
1
62
250
10
0.0
20
0.0
30
0.000000
0
VERTEX
8
0
10
826.000000
20
390.000000
0
VERTEX
8
0
10
837.000000
20
390.000000
0
SEQEND
0
POLYLINE
8
0
6
CONTINUOUS
66
1
62
250
10
0.0
20
0.0
30
0.000000
0
VERTEX
8
0
10
851.000000
20
390.000000
0
VERTEX
8
0
10
862.000000
20
390.000000
0
SEQEND
0
POLYLINE
8
0
6
CONTINUOUS
66
1
62
250
10
0.0
20
0.0
30
0.000000
0
VERTEX
8
0
10
876.000000
20
390.000000
0
VERTEX
8
0
10
887.000000
20
390.000000
0
SEQEND
0
POLYLINE
8
0
6
CONTINUOUS
66
1
62
250
10
0.0
20
0.0
30
0.000000
0
VERTEX
8
0
10
901.000000
20
390.000000
0
VERTEX
8
0
10
912.000000
20
390.000000
0
SEQEND
0
POLYLINE
8
0
6
CONTINUOUS
66
1
62
250
10
0.0
20
0.0
30
0.000000
0
VERTEX
8
0
10
926.000000
20
390.000000
0
VERTEX
8
0
10
937.000000
20
390.000000
0
SEQEND
0
POLYLINE
8
0
6
CONTINUOUS
66
1
62
250
10
0.0
20
0.0
30
0.000000
0
VERTEX
8
0
10
951.000000
20
390.000000
0
VERTEX
8
0
10
962.000000
20
390.000000
0
SEQEND
0
POLYLINE
8
0
6
CONTINUOUS
66
1
62
250
10
0.0
20
0.0
30
0.000000
0
VERTEX
8
0
10
976.000000
20
390.000000
0
VERTEX
8
0
10
987.000000
20
390.000000
0
SEQEND
0
POLYLINE
8
0
6
CONTINUOUS
66
1
62
250
10
0.0
20
0.0
30
0.000000
0
VERTEX
8
0
10
1001.000000
20
390.000000
0
VERTEX
8
0
10
1012.000000
20
390.000000
0
SEQEND
0
POLYLINE
8
0
6
CONTINUOUS
66
1
62
250
10
0.0
20
0.0
30
0.000000
0
VERTEX
8
0
10
1026.000000
20
390.000000
0
VERTEX
8
0
10
1037.000000
20
390.000000
0
SEQEND
0
POLYLINE
8
0
6
CONTINUOUS
66
1
62
250
10
0.0
20
0.0
30
0.000000
0
VERTEX
8
0
10
1051.000000
20
390.000000
0
VERTEX
8
0
10
1062.000000
20
390.000000
0
SEQEND
0
POLYLINE
8
0
6
CONTINUOUS
66
1
62
250
10
0.0
20
0.0
30
0.000000
0
VERTEX
8
0
10
1076.000000
20
390.000000
0
VERTEX
8
0
10
1087.000000
20
390.000000
0
SEQEND
0
POLYLINE
8
0
6
CONTINUOUS
66
1
62
250
10
0.0
20
0.0
30
0.000000
0
VERTEX
8
0
10
1101.000000
20
390.000000
0
VERTEX
8
0
10
1112.000000
20
390.000000
0
SEQEND
0
POLYLINE
8
0
6
CONTINUOUS
66
1
62
250
10
0.0
20
0.0
30
0.000000
0
VERTEX
8
0
10
1126.000000
20
390.000000
0
VERTEX
8
0
10
1137.000000
20
390.000000
0
SEQEND
0
POLYLINE
8
0
6
CONTINUOUS
66
1
62
250
10
0.0
20
0.0
30
0.000000
0
VERTEX
8
0
10
1151.000000
20
390.000000
0
VERTEX
8
0
10
1162.000000
20
390.000000
0
SEQEND
0
POLYLINE
8
0
6
CONTINUOUS
66
1
62
250
10
0.0
20
0.0
30
0.000000
0
VERTEX
8
0
10
1176.000000
20
390.000000
0
VERTEX
8
0
10
1187.000000
20
390.000000
0
SEQEND
0
POLYLINE
8
0
6
CONTINUOUS
66
1
62
250
10
0.0
20
0.0
30
0.000000
0
VERTEX
8
0
10
1201.000000
20
390.000000
0
VERTEX
8
0
10
1212.000000
20
390.000000
0
SEQEND
0
POLYLINE
8
0
6
CONTINUOUS
66
1
62
250
10
0.0
20
0.0
30
0.000000
0
VERTEX
8
0
10
1226.000000
20
390.000000
0
VERTEX
8
0
10
1237.000000
20
390.000000
0
SEQEND
0
POLYLINE
8
0
6
CONTINUOUS
66
1
62
250
10
0.0
20
0.0
30
0.000000
0
VERTEX
8
0
10
1251.000000
20
390.000000
0
VERTEX
8
0
10
1262.000000
20
390.000000
0
SEQEND
0
POLYLINE
8
0
6
CONTINUOUS
66
1
62
250
10
0.0
20
0.0
30
0.000000
0
VERTEX
8
0
10
1276.000000
20
390.000000
0
VERTEX
8
0
10
1287.000000
20
390.000000
0
SEQEND
0
POLYLINE
8
0
6
CONTINUOUS
66
1
62
250
10
0.0
20
0.0
30
0.000000
0
VERTEX
8
0
10
1301.000000
20
390.000000
0
VERTEX
8
0
10
1312.000000
20
390.000000
0
SEQEND
0
POLYLINE
8
0
6
CONTINUOUS
66
1
62
250
10
0.0
20
0.0
30
0.000000
0
VERTEX
8
0
10
1326.000000
20
390.000000
0
VERTEX
8
0
10
1337.000000
20
390.000000
0
SEQEND
0
POLYLINE
8
0
6
CONTINUOUS
66
1
62
250
10
0.0
20
0.0
30
0.000000
0
VERTEX
8
0
10
1351.000000
20
390.000000
0
VERTEX
8
0
10
1362.000000
20
390.000000
0
SEQEND
0
POLYLINE
8
0
6
CONTINUOUS
66
1
62
250
10
0.0
20
0.0
30
0.000000
0
VERTEX
8
0
10
1376.000000
20
390.000000
0
VERTEX
8
0
10
1387.000000
20
390.000000
0
SEQEND
0
POLYLINE
8
0
6
CONTINUOUS
66
1
62
250
10
0.0
20
0.0
30
0.000000
0
VERTEX
8
0
10
1401.000000
20
390.000000
0
VERTEX
8
0
10
1412.000000
20
390.000000
0
SEQEND
0
POLYLINE
8
0
6
CONTINUOUS
66
1
62
250
10
0.0
20
0.0
30
0.000000
0
VERTEX
8
0
10
1426.000000
20
390.000000
0
VERTEX
8
0
10
1437.000000
20
390.000000
0
SEQEND
0
POLYLINE
8
0
6
CONTINUOUS
66
1
62
250
10
0.0
20
0.0
30
0.000000
0
VERTEX
8
0
10
1451.000000
20
390.000000
0
VERTEX
8
0
10
1462.000000
20
390.000000
0
SEQEND
0
POLYLINE
8
0
6
CONTINUOUS
66
1
62
250
10
0.0
20
0.0
30
0.000000
0
VERTEX
8
0
10
1476.000000
20
390.000000
0
VERTEX
8
0
10
1487.000000
20
390.000000
0
SEQEND
0
POLYLINE
8
0
6
CONTINUOUS
66
1
62
250
10
0.0
20
0.0
30
0.000000
0
VERTEX
8
0
10
336.000000
20
280.000000
0
VERTEX
8
0
10
348.000000
20
280.000000
0
SEQEND
0
POLYLINE
8
0
6
CONTINUOUS
66
1
62
250
10
0.0
20
0.0
30
0.000000
0
VERTEX
8
0
10
361.000000
20
280.000000
0
VERTEX
8
0
10
373.000000
20
280.000000
0
SEQEND
0
POLYLINE
8
0
6
CONTINUOUS
66
1
62
250
10
0.0
20
0.0
30
0.000000
0
VERTEX
8
0
10
386.000000
20
280.000000
0
VERTEX
8
0
10
398.000000
20
280.000000
0
SEQEND
0
POLYLINE
8
0
6
CONTINUOUS
66
1
62
250
10
0.0
20
0.0
30
0.000000
0
VERTEX
8
0
10
411.000000
20
280.000000
0
VERTEX
8
0
10
423.000000
20
280.000000
0
SEQEND
0
POLYLINE
8
0
6
CONTINUOUS
66
1
62
250
10
0.0
20
0.0
30
0.000000
0
VERTEX
8
0
10
436.000000
20
280.000000
0
VERTEX
8
0
10
448.000000
20
280.000000
0
SEQEND
0
POLYLINE
8
0
6
CONTINUOUS
66
1
62
250
10
0.0
20
0.0
30
0.000000
0
VERTEX
8
0
10
461.000000
20
280.000000
0
VERTEX
8
0
10
473.000000
20
280.000000
0
SEQEND
0
POLYLINE
8
0
6
CONTINUOUS
66
1
62
250
10
0.0
20
0.0
30
0.000000
0
VERTEX
8
0
10
486.000000
20
280.000000
0
VERTEX
8
0
10
498.000000
20
280.000000
0
SEQEND
0
POLYLINE
8
0
6
CONTINUOUS
66
1
62
250
10
0.0
20
0.0
30
0.000000
0
VERTEX
8
0
10
511.000000
20
280.000000
0
VERTEX
8
0
10
523.000000
20
280.000000
0
SEQEND
0
POLYLINE
8
0
6
CONTINUOUS
66
1
62
250
10
0.0
20
0.0
30
0.000000
0
VERTEX
8
0
10
536.000000
20
280.000000
0
VERTEX
8
0
10
548.000000
20
280.000000
0
SEQEND
0
POLYLINE
8
0
6
CONTINUOUS
66
1
62
250
10
0.0
20
0.0
30
0.000000
0
VERTEX
8
0
10
561.000000
20
280.000000
0
VERTEX
8
0
10
573.000000
20
280.000000
0
SEQEND
0
POLYLINE
8
0
6
CONTINUOUS
66
1
62
250
10
0.0
20
0.0
30
0.000000
0
VERTEX
8
0
10
586.000000
20
280.000000
0
VERTEX
8
0
10
598.000000
20
280.000000
0
SEQEND
0
POLYLINE
8
0
6
CONTINUOUS
66
1
62
250
10
0.0
20
0.0
30
0.000000
0
VERTEX
8
0
10
611.000000
20
280.000000
0
VERTEX
8
0
10
623.000000
20
280.000000
0
SEQEND
0
POLYLINE
8
0
6
CONTINUOUS
66
1
62
250
10
0.0
20
0.0
30
0.000000
0
VERTEX
8
0
10
636.000000
20
280.000000
0
VERTEX
8
0
10
648.000000
20
280.000000
0
SEQEND
0
POLYLINE
8
0
6
CONTINUOUS
66
1
62
250
10
0.0
20
0.0
30
0.000000
0
VERTEX
8
0
10
661.000000
20
280.000000
0
VERTEX
8
0
10
673.000000
20
280.000000
0
SEQEND
0
POLYLINE
8
0
6
CONTINUOUS
66
1
62
250
10
0.0
20
0.0
30
0.000000
0
VERTEX
8
0
10
686.000000
20
280.000000
0
VERTEX
8
0
10
698.000000
20
280.000000
0
SEQEND
0
POLYLINE
8
0
6
CONTINUOUS
66
1
62
250
10
0.0
20
0.0
30
0.000000
0
VERTEX
8
0
10
711.000000
20
280.000000
0
VERTEX
8
0
10
723.000000
20
280.000000
0
SEQEND
0
POLYLINE
8
0
6
CONTINUOUS
66
1
62
250
10
0.0
20
0.0
30
0.000000
0
VERTEX
8
0
10
736.000000
20
280.000000
0
VERTEX
8
0
10
748.000000
20
280.000000
0
SEQEND
0
POLYLINE
8
0
6
CONTINUOUS
66
1
62
250
10
0.0
20
0.0
30
0.000000
0
VERTEX
8
0
10
761.000000
20
280.000000
0
VERTEX
8
0
10
773.000000
20
280.000000
0
SEQEND
0
POLYLINE
8
0
6
CONTINUOUS
66
1
62
250
10
0.0
20
0.0
30
0.000000
0
VERTEX
8
0
10
786.000000
20
280.000000
0
VERTEX
8
0
10
798.000000
20
280.000000
0
SEQEND
0
POLYLINE
8
0
6
CONTINUOUS
66
1
62
250
10
0.0
20
0.0
30
0.000000
0
VERTEX
8
0
10
811.000000
20
280.000000
0
VERTEX
8
0
10
823.000000
20
280.000000
0
SEQEND
0
POLYLINE
8
0
6
CONTINUOUS
66
1
62
250
10
0.0
20
0.0
30
0.000000
0
VERTEX
8
0
10
836.000000
20
280.000000
0
VERTEX
8
0
10
848.000000
20
280.000000
0
SEQEND
0
POLYLINE
8
0
6
CONTINUOUS
66
1
62
250
10
0.0
20
0.0
30
0.000000
0
VERTEX
8
0
10
861.000000
20
280.000000
0
VERTEX
8
0
10
873.000000
20
280.000000
0
SEQEND
0
POLYLINE
8
0
6
CONTINUOUS
66
1
62
250
10
0.0
20
0.0
30
0.000000
0
VERTEX
8
0
10
886.000000
20
280.000000
0
VERTEX
8
0
10
898.000000
20
280.000000
0
SEQEND
0
POLYLINE
8
0
6
CONTINUOUS
66
1
62
250
10
0.0
20
0.0
30
0.000000
0
VERTEX
8
0
10
911.000000
20
280.000000
0
VERTEX
8
0
10
923.000000
20
280.000000
0
SEQEND
0
POLYLINE
8
0
6
CONTINUOUS
66
1
62
250
10
0.0
20
0.0
30
0.000000
0
VERTEX
8
0
10
936.000000
20
280.000000
0
VERTEX
8
0
10
948.000000
20
280.000000
0
SEQEND
0
POLYLINE
8
0
6
CONTINUOUS
66
1
62
250
10
0.0
20
0.0
30
0.000000
0
VERTEX
8
0
10
961.000000
20
280.000000
0
VERTEX
8
0
10
973.000000
20
280.000000
0
SEQEND
0
POLYLINE
8
0
6
CONTINUOUS
66
1
62
250
10
0.0
20
0.0
30
0.000000
0
VERTEX
8
0
10
986.000000
20
280.000000
0
VERTEX
8
0
10
998.000000
20
280.000000
0
SEQEND
0
POLYLINE
8
0
6
CONTINUOUS
66
1
62
250
10
0.0
20
0.0
30
0.000000
0
VERTEX
8
0
10
1011.000000
20
280.000000
0
VERTEX
8
0
10
1023.000000
20
280.000000
0
SEQEND
0
POLYLINE
8
0
6
CONTINUOUS
66
1
62
250
10
0.0
20
0.0
30
0.000000
0
VERTEX
8
0
10
1036.000000
20
280.000000
0
VERTEX
8
0
10
1048.000000
20
280.000000
0
SEQEND
0
POLYLINE
8
0
6
CONTINUOUS
66
1
62
250
10
0.0
20
0.0
30
0.000000
0
VERTEX
8
0
10
1061.000000
20
280.000000
0
VERTEX
8
0
10
1073.000000
20
280.000000
0
SEQEND
0
POLYLINE
8
0
6
CONTINUOUS
66
1
62
250
10
0.0
20
0.0
30
0.000000
0
VERTEX
8
0
10
1086.000000
20
280.000000
0
VERTEX
8
0
10
1098.000000
20
280.000000
0
SEQEND
0
POLYLINE
8
0
6
CONTINUOUS
66
1
62
250
10
0.0
20
0.0
30
0.000000
0
VERTEX
8
0
10
1111.000000
20
280.000000
0
VERTEX
8
0
10
1123.000000
20
280.000000
0
SEQEND
0
POLYLINE
8
0
6
CONTINUOUS
66
1
62
250
10
0.0
20
0.0
30
0.000000
0
VERTEX
8
0
10
1136.000000
20
280.000000
0
VERTEX
8
0
10
1148.000000
20
280.000000
0
SEQEND
0
POLYLINE
8
0
6
CONTINUOUS
66
1
62
250
10
0.0
20
0.0
30
0.000000
0
VERTEX
8
0
10
1161.000000
20
280.000000
0
VERTEX
8
0
10
1173.000000
20
280.000000
0
SEQEND
0
POLYLINE
8
0
6
CONTINUOUS
66
1
62
250
10
0.0
20
0.0
30
0.000000
0
VERTEX
8
0
10
1186.000000
20
280.000000
0
VERTEX
8
0
10
1198.000000
20
280.000000
0
SEQEND
0
POLYLINE
8
0
6
CONTINUOUS
66
1
62
250
10
0.0
20
0.0
30
0.000000
0
VERTEX
8
0
10
1211.000000
20
280.000000
0
VERTEX
8
0
10
1223.000000
20
280.000000
0
SEQEND
0
POLYLINE
8
0
6
CONTINUOUS
66
1
62
250
10
0.0
20
0.0
30
0.000000
0
VERTEX
8
0
10
1236.000000
20
280.000000
0
VERTEX
8
0
10
1248.000000
20
280.000000
0
SEQEND
0
POLYLINE
8
0
6
CONTINUOUS
66
1
62
250
10
0.0
20
0.0
30
0.000000
0
VERTEX
8
0
10
1261.000000
20
280.000000
0
VERTEX
8
0
10
1273.000000
20
280.000000
0
SEQEND
0
POLYLINE
8
0
6
CONTINUOUS
66
1
62
250
10
0.0
20
0.0
30
0.000000
0
VERTEX
8
0
10
1286.000000
20
280.000000
0
VERTEX
8
0
10
1298.000000
20
280.000000
0
SEQEND
0
POLYLINE
8
0
6
CONTINUOUS
66
1
62
250
10
0.0
20
0.0
30
0.000000
0
VERTEX
8
0
10
1311.000000
20
280.000000
0
VERTEX
8
0
10
1323.000000
20
280.000000
0
SEQEND
0
POLYLINE
8
0
6
CONTINUOUS
66
1
62
250
10
0.0
20
0.0
30
0.000000
0
VERTEX
8
0
10
1336.000000
20
280.000000
0
VERTEX
8
0
10
1348.000000
20
280.000000
0
SEQEND
0
POLYLINE
8
0
6
CONTINUOUS
66
1
62
250
10
0.0
20
0.0
30
0.000000
0
VERTEX
8
0
10
1361.000000
20
280.000000
0
VERTEX
8
0
10
1373.000000
20
280.000000
0
SEQEND
0
POLYLINE
8
0
6
CONTINUOUS
66
1
62
250
10
0.0
20
0.0
30
0.000000
0
VERTEX
8
0
10
1386.000000
20
280.000000
0
VERTEX
8
0
10
1398.000000
20
280.000000
0
SEQEND
0
POLYLINE
8
0
6
CONTINUOUS
66
1
62
250
10
0.0
20
0.0
30
0.000000
0
VERTEX
8
0
10
1411.000000
20
280.000000
0
VERTEX
8
0
10
1423.000000
20
280.000000
0
SEQEND
0
POLYLINE
8
0
6
CONTINUOUS
66
1
62
250
10
0.0
20
0.0
30
0.000000
0
VERTEX
8
0
10
1436.000000
20
280.000000
0
VERTEX
8
0
10
1448.000000
20
280.000000
0
SEQEND
0
POLYLINE
8
0
6
CONTINUOUS
66
1
62
250
10
0.0
20
0.0
30
0.000000
0
VERTEX
8
0
10
1461.000000
20
280.000000
0
VERTEX
8
0
10
1473.000000
20
280.000000
0
SEQEND
0
POLYLINE
8
0
6
CONTINUOUS
66
1
62
250
10
0.0
20
0.0
30
0.000000
0
VERTEX
8
0
10
1497.000000
20
279.000000
42
0.079254
0
VERTEX
8
0
10
1486.000000
20
280.000000
0
SEQEND
0
POLYLINE
8
0
6
CONTINUOUS
66
1
62
250
10
0.0
20
0.0
30
0.000000
0
VERTEX
8
0
10
663.000000
20
99.000000
0
VERTEX
8
0
10
663.000000
20
136.000000
0
VERTEX
8
0
10
1158.000000
20
136.000000
0
VERTEX
8
0
10
1160.000000
20
134.000000
0
VERTEX
8
0
10
1160.000000
20
100.000000
0
SEQEND
0
POLYLINE
8
0
6
CONTINUOUS
66
1
62
250
10
0.0
20
0.0
30
0.000000
0
VERTEX
8
0
10
324.000000
20
389.000000
0
VERTEX
8
0
10
325.000000
20
279.000000
42
-0.136747
0
VERTEX
8
0
10
377.594595
20
146.932432
0
VERTEX
8
0
10
380.420000
20
128.060000
0
VERTEX
8
0
10
384.461929
20
87.032995
0
VERTEX
8
0
10
385.989041
20
67.104110
0
VERTEX
8
0
10
388.000000
20
66.000000
0
VERTEX
8
0
10
1435.000000
20
66.000000
0
VERTEX
8
0
10
1437.047059
20
67.211765
0
VERTEX
8
0
10
1438.445545
20
75.955446
0
VERTEX
8
0
10
1439.468966
20
92.972414
0
VERTEX
8
0
10
1444.580000
20
138.060000
0
VERTEX
8
0
10
1446.405405
20
149.932432
42
-0.130664
0
VERTEX
8
0
10
1496.800000
20
278.100000
0
VERTEX
8
0
10
1497.000000
20
279.000000
0
VERTEX
8
0
10
1497.800000
20
280.100000
0
VERTEX
8
0
10
1500.000000
20
389.000000
0
VERTEX
8
0
10
1501.004310
20
389.504385
0
VERTEX
8
0
10
1615.000000
20
390.000000
0
VERTEX
8
0
10
1619.000000
20
396.000000
42
0.067868
0
VERTEX
8
0
10
1620.800000
20
399.100000
42
-0.118981
0
VERTEX
8
0
10
1623.000000
20
402.000000
42
-0.129316
0
VERTEX
8
0
10
1625.800000
20
407.100000
0
VERTEX
8
0
10
1629.000000
20
413.000000
42
0.116185
0
VERTEX
8
0
10
1672.468966
20
581.972414
42
0.116238
0
VERTEX
8
0
10
1641.200000
20
767.100000
0
VERTEX
8
0
10
1637.200000
20
776.100000
0
VERTEX
8
0
10
1622.769231
20
802.846154
0
VERTEX
8
0
10
1619.230769
20
808.153846
0
VERTEX
8
0
10
1614.000000
20
814.000000
0
VERTEX
8
0
10
1499.000000
20
815.000000
0
SEQEND
0
ENDSEC
0
EOF
