0
SECTION
2
HEADER
9
$ACADVER
1
AC1003
9
$INSBASE
10
0.0
20
0.0
30
0.0
9
$EXTMIN
10
0.000
20
0.000
30
0.0
9
$EXTMAX
10
1824.000
20
1447.000
30
0.0
9
$LIMMIN
10
0.000
20
0.000
9
$LIMMAX
10
1824.000
20
1447.000
9
$LTSCALE
40
1.0
9
$LUNITS
70
2
9
$LUPREC
70
3
9
$LIMCHECK
70
0
9
$UCSNAME
2

9
$UCSORG
10
0.0
20
0.0
30
0.0
9
$UCSXDIR
10
1.0
20
0.0
30
0.0
9
$UCSYDIR
10
0.0
20
1.0
30
0.0
9
$WORLDVIEW
70
1
9
$UNITMODE
70
0
0
ENDSEC
0
SECTION
2
TABLES
0
TABLE
2
VPORT
70
1
0
VPORT
2
*ACTIVE
70
0
10
0.0
20
0.0
11
1.0
21
1.0
12
912.000
22
723.500
13
0.0
23
0.0
14
1.0
24
1.0
15
0.0
25
0.0
16
0.0
26
0.0
36
1.0
17
0.0
27
0.0
37
0.0
40
500.0
41
0.793
42
50.0
43
0.0
44
0.0
50
0.0
51
0.0
71
0
72
100
73
1
74
1
75
0
76
0
77
0
78
0
0
ENDTAB
0
TABLE
2
LTYPE
70
1
0
LTYPE
2
CONTINUOUS
70
64
3
Solid line
72
65
73
0
40
0.000
0
ENDTAB
0
TABLE
2
LAYER
70
1
0
LAYER
2
0
70
64
62
7
6
CONTINUOUS
0
ENDTAB
0
ENDSEC
0
SECTION
2
BLOCKS
0
ENDSEC
0
SECTION
2
ENTITIES
0
POLYLINE
8
0
6
CONTINUOUS
66
1
62
250
10
0.0
20
0.0
30
0.000000
0
VERTEX
8
0
10
299.000000
20
1367.000000
0
VERTEX
8
0
10
299.000000
20
1379.000000
0
SEQEND
0
POLYLINE
8
0
6
CONTINUOUS
66
1
62
250
10
0.0
20
0.0
30
0.000000
0
VERTEX
8
0
10
1534.000000
20
1365.000000
0
VERTEX
8
0
10
1534.000000
20
1379.000000
0
SEQEND
0
POLYLINE
8
0
6
CONTINUOUS
66
1
62
250
10
0.0
20
0.0
30
0.000000
0
VERTEX
8
0
10
299.000000
20
1342.000000
0
VERTEX
8
0
10
299.000000
20
1353.000000
0
SEQEND
0
POLYLINE
8
0
6
CONTINUOUS
66
1
62
250
10
0.0
20
0.0
30
0.000000
0
VERTEX
8
0
10
1534.000000
20
1340.000000
0
VERTEX
8
0
10
1534.000000
20
1351.000000
0
SEQEND
0
POLYLINE
8
0
6
CONTINUOUS
66
1
62
250
10
0.0
20
0.0
30
0.000000
0
VERTEX
8
0
10
299.000000
20
1317.000000
0
VERTEX
8
0
10
299.000000
20
1328.000000
0
SEQEND
0
POLYLINE
8
0
6
CONTINUOUS
66
1
62
250
10
0.0
20
0.0
30
0.000000
0
VERTEX
8
0
10
1534.000000
20
1315.000000
0
VERTEX
8
0
10
1534.000000
20
1326.000000
0
SEQEND
0
POLYLINE
8
0
6
CONTINUOUS
66
1
62
250
10
0.0
20
0.0
30
0.000000
0
VERTEX
8
0
10
299.000000
20
1292.000000
0
VERTEX
8
0
10
299.000000
20
1303.000000
0
SEQEND
0
POLYLINE
8
0
6
CONTINUOUS
66
1
62
250
10
0.0
20
0.0
30
0.000000
0
VERTEX
8
0
10
1534.000000
20
1290.000000
0
VERTEX
8
0
10
1534.000000
20
1301.000000
0
SEQEND
0
POLYLINE
8
0
6
CONTINUOUS
66
1
62
250
10
0.0
20
0.0
30
0.000000
0
VERTEX
8
0
10
299.000000
20
1267.000000
0
VERTEX
8
0
10
299.000000
20
1278.000000
0
SEQEND
0
POLYLINE
8
0
6
CONTINUOUS
66
1
62
250
10
0.0
20
0.0
30
0.000000
0
VERTEX
8
0
10
1534.000000
20
1265.000000
0
VERTEX
8
0
10
1534.000000
20
1276.000000
0
SEQEND
0
POLYLINE
8
0
6
CONTINUOUS
66
1
62
250
10
0.0
20
0.0
30
0.000000
0
VERTEX
8
0
10
299.000000
20
1242.000000
0
VERTEX
8
0
10
299.000000
20
1253.000000
0
SEQEND
0
POLYLINE
8
0
6
CONTINUOUS
66
1
62
250
10
0.0
20
0.0
30
0.000000
0
VERTEX
8
0
10
1534.000000
20
1240.000000
0
VERTEX
8
0
10
1534.000000
20
1251.000000
0
SEQEND
0
POLYLINE
8
0
6
CONTINUOUS
66
1
62
250
10
0.0
20
0.0
30
0.000000
0
VERTEX
8
0
10
299.000000
20
1217.000000
0
VERTEX
8
0
10
299.000000
20
1228.000000
0
SEQEND
0
POLYLINE
8
0
6
CONTINUOUS
66
1
62
250
10
0.0
20
0.0
30
0.000000
0
VERTEX
8
0
10
1534.000000
20
1215.000000
0
VERTEX
8
0
10
1534.000000
20
1226.000000
0
SEQEND
0
POLYLINE
8
0
6
CONTINUOUS
66
1
62
250
10
0.0
20
0.0
30
0.000000
0
VERTEX
8
0
10
299.000000
20
1192.000000
0
VERTEX
8
0
10
299.000000
20
1203.000000
0
SEQEND
0
POLYLINE
8
0
6
CONTINUOUS
66
1
62
250
10
0.0
20
0.0
30
0.000000
0
VERTEX
8
0
10
1534.000000
20
1190.000000
0
VERTEX
8
0
10
1534.000000
20
1201.000000
0
SEQEND
0
POLYLINE
8
0
6
CONTINUOUS
66
1
62
250
10
0.0
20
0.0
30
0.000000
0
VERTEX
8
0
10
299.000000
20
1167.000000
0
VERTEX
8
0
10
299.000000
20
1178.000000
0
SEQEND
0
POLYLINE
8
0
6
CONTINUOUS
66
1
62
250
10
0.0
20
0.0
30
0.000000
0
VERTEX
8
0
10
1534.000000
20
1165.000000
0
VERTEX
8
0
10
1534.000000
20
1176.000000
0
SEQEND
0
POLYLINE
8
0
6
CONTINUOUS
66
1
62
250
10
0.0
20
0.0
30
0.000000
0
VERTEX
8
0
10
299.000000
20
1142.000000
0
VERTEX
8
0
10
299.000000
20
1153.000000
0
SEQEND
0
POLYLINE
8
0
6
CONTINUOUS
66
1
62
250
10
0.0
20
0.0
30
0.000000
0
VERTEX
8
0
10
1534.000000
20
1140.000000
0
VERTEX
8
0
10
1534.000000
20
1151.000000
0
SEQEND
0
POLYLINE
8
0
6
CONTINUOUS
66
1
62
250
10
0.0
20
0.0
30
0.000000
0
VERTEX
8
0
10
299.000000
20
1117.000000
0
VERTEX
8
0
10
299.000000
20
1128.000000
0
SEQEND
0
POLYLINE
8
0
6
CONTINUOUS
66
1
62
250
10
0.0
20
0.0
30
0.000000
0
VERTEX
8
0
10
1534.000000
20
1115.000000
0
VERTEX
8
0
10
1534.000000
20
1126.000000
0
SEQEND
0
POLYLINE
8
0
6
CONTINUOUS
66
1
62
250
10
0.0
20
0.0
30
0.000000
0
VERTEX
8
0
10
299.000000
20
1092.000000
0
VERTEX
8
0
10
299.000000
20
1103.000000
0
SEQEND
0
POLYLINE
8
0
6
CONTINUOUS
66
1
62
250
10
0.0
20
0.0
30
0.000000
0
VERTEX
8
0
10
1534.000000
20
1090.000000
0
VERTEX
8
0
10
1534.000000
20
1101.000000
0
SEQEND
0
POLYLINE
8
0
6
CONTINUOUS
66
1
62
250
10
0.0
20
0.0
30
0.000000
0
VERTEX
8
0
10
299.000000
20
1067.000000
0
VERTEX
8
0
10
299.000000
20
1078.000000
0
SEQEND
0
POLYLINE
8
0
6
CONTINUOUS
66
1
62
250
10
0.0
20
0.0
30
0.000000
0
VERTEX
8
0
10
1534.000000
20
1065.000000
0
VERTEX
8
0
10
1534.000000
20
1076.000000
0
SEQEND
0
POLYLINE
8
0
6
CONTINUOUS
66
1
62
250
10
0.0
20
0.0
30
0.000000
0
VERTEX
8
0
10
299.000000
20
1042.000000
0
VERTEX
8
0
10
299.000000
20
1053.000000
0
SEQEND
0
POLYLINE
8
0
6
CONTINUOUS
66
1
62
250
10
0.0
20
0.0
30
0.000000
0
VERTEX
8
0
10
1534.000000
20
1040.000000
0
VERTEX
8
0
10
1534.000000
20
1051.000000
0
SEQEND
0
POLYLINE
8
0
6
CONTINUOUS
66
1
62
250
10
0.0
20
0.0
30
0.000000
0
VERTEX
8
0
10
299.000000
20
1017.000000
0
VERTEX
8
0
10
299.000000
20
1028.000000
0
SEQEND
0
POLYLINE
8
0
6
CONTINUOUS
66
1
62
250
10
0.0
20
0.0
30
0.000000
0
VERTEX
8
0
10
1534.000000
20
1015.000000
0
VERTEX
8
0
10
1534.000000
20
1026.000000
0
SEQEND
0
POLYLINE
8
0
6
CONTINUOUS
66
1
62
250
10
0.0
20
0.0
30
0.000000
0
VERTEX
8
0
10
299.000000
20
992.000000
0
VERTEX
8
0
10
299.000000
20
1003.000000
0
SEQEND
0
POLYLINE
8
0
6
CONTINUOUS
66
1
62
250
10
0.0
20
0.0
30
0.000000
0
VERTEX
8
0
10
1534.000000
20
990.000000
0
VERTEX
8
0
10
1534.000000
20
1001.000000
0
SEQEND
0
POLYLINE
8
0
6
CONTINUOUS
66
1
62
250
10
0.0
20
0.0
30
0.000000
0
VERTEX
8
0
10
299.000000
20
967.000000
0
VERTEX
8
0
10
299.000000
20
978.000000
0
SEQEND
0
POLYLINE
8
0
6
CONTINUOUS
66
1
62
250
10
0.0
20
0.0
30
0.000000
0
VERTEX
8
0
10
1534.000000
20
965.000000
0
VERTEX
8
0
10
1534.000000
20
976.000000
0
SEQEND
0
POLYLINE
8
0
6
CONTINUOUS
66
1
62
250
10
0.0
20
0.0
30
0.000000
0
VERTEX
8
0
10
299.000000
20
942.000000
0
VERTEX
8
0
10
299.000000
20
953.000000
0
SEQEND
0
POLYLINE
8
0
6
CONTINUOUS
66
1
62
250
10
0.0
20
0.0
30
0.000000
0
VERTEX
8
0
10
1534.000000
20
940.000000
0
VERTEX
8
0
10
1534.000000
20
951.000000
0
SEQEND
0
POLYLINE
8
0
6
CONTINUOUS
66
1
62
250
10
0.0
20
0.0
30
0.000000
0
VERTEX
8
0
10
299.000000
20
917.000000
0
VERTEX
8
0
10
299.000000
20
928.000000
0
SEQEND
0
POLYLINE
8
0
6
CONTINUOUS
66
1
62
250
10
0.0
20
0.0
30
0.000000
0
VERTEX
8
0
10
1534.000000
20
915.000000
0
VERTEX
8
0
10
1534.000000
20
926.000000
0
SEQEND
0
POLYLINE
8
0
6
CONTINUOUS
66
1
62
250
10
0.0
20
0.0
30
0.000000
0
VERTEX
8
0
10
299.000000
20
892.000000
0
VERTEX
8
0
10
299.000000
20
903.000000
0
SEQEND
0
POLYLINE
8
0
6
CONTINUOUS
66
1
62
250
10
0.0
20
0.0
30
0.000000
0
VERTEX
8
0
10
1534.000000
20
890.000000
0
VERTEX
8
0
10
1534.000000
20
901.000000
0
SEQEND
0
POLYLINE
8
0
6
CONTINUOUS
66
1
62
250
10
0.0
20
0.0
30
0.000000
0
VERTEX
8
0
10
299.000000
20
867.000000
0
VERTEX
8
0
10
299.000000
20
878.000000
0
SEQEND
0
POLYLINE
8
0
6
CONTINUOUS
66
1
62
250
10
0.0
20
0.0
30
0.000000
0
VERTEX
8
0
10
1534.000000
20
865.000000
0
VERTEX
8
0
10
1534.000000
20
876.000000
0
SEQEND
0
POLYLINE
8
0
6
CONTINUOUS
66
1
62
250
10
0.0
20
0.0
30
0.000000
0
VERTEX
8
0
10
299.000000
20
842.000000
0
VERTEX
8
0
10
299.000000
20
853.000000
0
SEQEND
0
POLYLINE
8
0
6
CONTINUOUS
66
1
62
250
10
0.0
20
0.0
30
0.000000
0
VERTEX
8
0
10
1534.000000
20
840.000000
0
VERTEX
8
0
10
1534.000000
20
851.000000
0
SEQEND
0
POLYLINE
8
0
6
CONTINUOUS
66
1
62
250
10
0.0
20
0.0
30
0.000000
0
VERTEX
8
0
10
299.000000
20
817.000000
0
VERTEX
8
0
10
299.000000
20
828.000000
0
SEQEND
0
POLYLINE
8
0
6
CONTINUOUS
66
1
62
250
10
0.0
20
0.0
30
0.000000
0
VERTEX
8
0
10
1534.000000
20
815.000000
0
VERTEX
8
0
10
1534.000000
20
826.000000
0
SEQEND
0
POLYLINE
8
0
6
CONTINUOUS
66
1
62
250
10
0.0
20
0.0
30
0.000000
0
VERTEX
8
0
10
299.000000
20
792.000000
0
VERTEX
8
0
10
299.000000
20
803.000000
0
SEQEND
0
POLYLINE
8
0
6
CONTINUOUS
66
1
62
250
10
0.0
20
0.0
30
0.000000
0
VERTEX
8
0
10
1534.000000
20
790.000000
0
VERTEX
8
0
10
1534.000000
20
801.000000
0
SEQEND
0
POLYLINE
8
0
6
CONTINUOUS
66
1
62
250
10
0.0
20
0.0
30
0.000000
0
VERTEX
8
0
10
299.000000
20
767.000000
0
VERTEX
8
0
10
299.000000
20
778.000000
0
SEQEND
0
POLYLINE
8
0
6
CONTINUOUS
66
1
62
250
10
0.0
20
0.0
30
0.000000
0
VERTEX
8
0
10
1534.000000
20
765.000000
0
VERTEX
8
0
10
1534.000000
20
776.000000
0
SEQEND
0
POLYLINE
8
0
6
CONTINUOUS
66
1
62
250
10
0.0
20
0.0
30
0.000000
0
VERTEX
8
0
10
299.000000
20
742.000000
0
VERTEX
8
0
10
299.000000
20
753.000000
0
SEQEND
0
POLYLINE
8
0
6
CONTINUOUS
66
1
62
250
10
0.0
20
0.0
30
0.000000
0
VERTEX
8
0
10
1534.000000
20
740.000000
0
VERTEX
8
0
10
1534.000000
20
751.000000
0
SEQEND
0
POLYLINE
8
0
6
CONTINUOUS
66
1
62
250
10
0.0
20
0.0
30
0.000000
0
VERTEX
8
0
10
299.000000
20
717.000000
0
VERTEX
8
0
10
299.000000
20
728.000000
0
SEQEND
0
POLYLINE
8
0
6
CONTINUOUS
66
1
62
250
10
0.0
20
0.0
30
0.000000
0
VERTEX
8
0
10
1534.000000
20
715.000000
0
VERTEX
8
0
10
1534.000000
20
726.000000
0
SEQEND
0
POLYLINE
8
0
6
CONTINUOUS
66
1
62
250
10
0.0
20
0.0
30
0.000000
0
VERTEX
8
0
10
299.000000
20
692.000000
0
VERTEX
8
0
10
299.000000
20
703.000000
0
SEQEND
0
POLYLINE
8
0
6
CONTINUOUS
66
1
62
250
10
0.0
20
0.0
30
0.000000
0
VERTEX
8
0
10
1534.000000
20
690.000000
0
VERTEX
8
0
10
1534.000000
20
701.000000
0
SEQEND
0
POLYLINE
8
0
6
CONTINUOUS
66
1
62
250
10
0.0
20
0.0
30
0.000000
0
VERTEX
8
0
10
299.000000
20
667.000000
0
VERTEX
8
0
10
299.000000
20
678.000000
0
SEQEND
0
POLYLINE
8
0
6
CONTINUOUS
66
1
62
250
10
0.0
20
0.0
30
0.000000
0
VERTEX
8
0
10
1534.000000
20
665.000000
0
VERTEX
8
0
10
1534.000000
20
676.000000
0
SEQEND
0
POLYLINE
8
0
6
CONTINUOUS
66
1
62
250
10
0.0
20
0.0
30
0.000000
0
VERTEX
8
0
10
299.000000
20
642.000000
0
VERTEX
8
0
10
299.000000
20
653.000000
0
SEQEND
0
POLYLINE
8
0
6
CONTINUOUS
66
1
62
250
10
0.0
20
0.0
30
0.000000
0
VERTEX
8
0
10
1534.000000
20
640.000000
0
VERTEX
8
0
10
1534.000000
20
651.000000
0
SEQEND
0
POLYLINE
8
0
6
CONTINUOUS
66
1
62
250
10
0.0
20
0.0
30
0.000000
0
VERTEX
8
0
10
299.000000
20
617.000000
0
VERTEX
8
0
10
299.000000
20
628.000000
0
SEQEND
0
POLYLINE
8
0
6
CONTINUOUS
66
1
62
250
10
0.0
20
0.0
30
0.000000
0
VERTEX
8
0
10
1534.000000
20
615.000000
0
VERTEX
8
0
10
1534.000000
20
626.000000
0
SEQEND
0
POLYLINE
8
0
6
CONTINUOUS
66
1
62
250
10
0.0
20
0.0
30
0.000000
0
VERTEX
8
0
10
299.000000
20
592.000000
0
VERTEX
8
0
10
299.000000
20
603.000000
0
SEQEND
0
POLYLINE
8
0
6
CONTINUOUS
66
1
62
250
10
0.0
20
0.0
30
0.000000
0
VERTEX
8
0
10
1534.000000
20
590.000000
0
VERTEX
8
0
10
1534.000000
20
601.000000
0
SEQEND
0
POLYLINE
8
0
6
CONTINUOUS
66
1
62
250
10
0.0
20
0.0
30
0.000000
0
VERTEX
8
0
10
299.000000
20
567.000000
0
VERTEX
8
0
10
299.000000
20
578.000000
0
SEQEND
0
POLYLINE
8
0
6
CONTINUOUS
66
1
62
250
10
0.0
20
0.0
30
0.000000
0
VERTEX
8
0
10
1534.000000
20
565.000000
0
VERTEX
8
0
10
1534.000000
20
576.000000
0
SEQEND
0
POLYLINE
8
0
6
CONTINUOUS
66
1
62
250
10
0.0
20
0.0
30
0.000000
0
VERTEX
8
0
10
299.000000
20
542.000000
0
VERTEX
8
0
10
299.000000
20
553.000000
0
SEQEND
0
POLYLINE
8
0
6
CONTINUOUS
66
1
62
250
10
0.0
20
0.0
30
0.000000
0
VERTEX
8
0
10
1534.000000
20
540.000000
0
VERTEX
8
0
10
1534.000000
20
551.000000
0
SEQEND
0
POLYLINE
8
0
6
CONTINUOUS
66
1
62
250
10
0.0
20
0.0
30
0.000000
0
VERTEX
8
0
10
299.000000
20
517.000000
0
VERTEX
8
0
10
299.000000
20
528.000000
0
SEQEND
0
POLYLINE
8
0
6
CONTINUOUS
66
1
62
250
10
0.0
20
0.0
30
0.000000
0
VERTEX
8
0
10
1534.000000
20
515.000000
0
VERTEX
8
0
10
1534.000000
20
526.000000
0
SEQEND
0
POLYLINE
8
0
6
CONTINUOUS
66
1
62
250
10
0.0
20
0.0
30
0.000000
0
VERTEX
8
0
10
299.000000
20
492.000000
0
VERTEX
8
0
10
299.000000
20
503.000000
0
SEQEND
0
POLYLINE
8
0
6
CONTINUOUS
66
1
62
250
10
0.0
20
0.0
30
0.000000
0
VERTEX
8
0
10
1534.000000
20
490.000000
0
VERTEX
8
0
10
1534.000000
20
501.000000
0
SEQEND
0
POLYLINE
8
0
6
CONTINUOUS
66
1
62
250
10
0.0
20
0.0
30
0.000000
0
VERTEX
8
0
10
299.000000
20
467.000000
0
VERTEX
8
0
10
299.000000
20
478.000000
0
SEQEND
0
POLYLINE
8
0
6
CONTINUOUS
66
1
62
250
10
0.0
20
0.0
30
0.000000
0
VERTEX
8
0
10
1534.000000
20
465.000000
0
VERTEX
8
0
10
1534.000000
20
476.000000
0
SEQEND
0
POLYLINE
8
0
6
CONTINUOUS
66
1
62
250
10
0.0
20
0.0
30
0.000000
0
VERTEX
8
0
10
299.000000
20
442.000000
0
VERTEX
8
0
10
299.000000
20
453.000000
0
SEQEND
0
POLYLINE
8
0
6
CONTINUOUS
66
1
62
250
10
0.0
20
0.0
30
0.000000
0
VERTEX
8
0
10
1534.000000
20
440.000000
0
VERTEX
8
0
10
1534.000000
20
451.000000
0
SEQEND
0
POLYLINE
8
0
6
CONTINUOUS
66
1
62
250
10
0.0
20
0.0
30
0.000000
0
VERTEX
8
0
10
299.000000
20
417.000000
0
VERTEX
8
0
10
299.000000
20
428.000000
0
SEQEND
0
POLYLINE
8
0
6
CONTINUOUS
66
1
62
250
10
0.0
20
0.0
30
0.000000
0
VERTEX
8
0
10
1534.000000
20
415.000000
0
VERTEX
8
0
10
1534.000000
20
426.000000
0
SEQEND
0
POLYLINE
8
0
6
CONTINUOUS
66
1
62
250
10
0.0
20
0.0
30
0.000000
0
VERTEX
8
0
10
299.000000
20
392.000000
0
VERTEX
8
0
10
299.000000
20
403.000000
0
SEQEND
0
POLYLINE
8
0
6
CONTINUOUS
66
1
62
250
10
0.0
20
0.0
30
0.000000
0
VERTEX
8
0
10
1534.000000
20
390.000000
0
VERTEX
8
0
10
1534.000000
20
401.000000
0
SEQEND
0
POLYLINE
8
0
6
CONTINUOUS
66
1
62
250
10
0.0
20
0.0
30
0.000000
0
VERTEX
8
0
10
299.000000
20
367.000000
0
VERTEX
8
0
10
299.000000
20
378.000000
0
SEQEND
0
POLYLINE
8
0
6
CONTINUOUS
66
1
62
250
10
0.0
20
0.0
30
0.000000
0
VERTEX
8
0
10
1534.000000
20
365.000000
0
VERTEX
8
0
10
1534.000000
20
376.000000
0
SEQEND
0
POLYLINE
8
0
6
CONTINUOUS
66
1
62
250
10
0.0
20
0.0
30
0.000000
0
VERTEX
8
0
10
299.000000
20
342.000000
0
VERTEX
8
0
10
299.000000
20
353.000000
0
SEQEND
0
POLYLINE
8
0
6
CONTINUOUS
66
1
62
250
10
0.0
20
0.0
30
0.000000
0
VERTEX
8
0
10
1534.000000
20
340.000000
0
VERTEX
8
0
10
1534.000000
20
351.000000
0
SEQEND
0
POLYLINE
8
0
6
CONTINUOUS
66
1
62
250
10
0.0
20
0.0
30
0.000000
0
VERTEX
8
0
10
299.000000
20
317.000000
0
VERTEX
8
0
10
299.000000
20
328.000000
0
SEQEND
0
POLYLINE
8
0
6
CONTINUOUS
66
1
62
250
10
0.0
20
0.0
30
0.000000
0
VERTEX
8
0
10
1534.000000
20
315.000000
0
VERTEX
8
0
10
1534.000000
20
326.000000
0
SEQEND
0
POLYLINE
8
0
6
CONTINUOUS
66
1
62
250
10
0.0
20
0.0
30
0.000000
0
VERTEX
8
0
10
299.000000
20
292.000000
0
VERTEX
8
0
10
299.000000
20
303.000000
0
SEQEND
0
POLYLINE
8
0
6
CONTINUOUS
66
1
62
250
10
0.0
20
0.0
30
0.000000
0
VERTEX
8
0
10
1534.000000
20
290.000000
0
VERTEX
8
0
10
1534.000000
20
301.000000
0
SEQEND
0
POLYLINE
8
0
6
CONTINUOUS
66
1
62
250
10
0.0
20
0.0
30
0.000000
0
VERTEX
8
0
10
299.000000
20
267.000000
0
VERTEX
8
0
10
299.000000
20
278.000000
0
SEQEND
0
POLYLINE
8
0
6
CONTINUOUS
66
1
62
250
10
0.0
20
0.0
30
0.000000
0
VERTEX
8
0
10
1534.000000
20
265.000000
0
VERTEX
8
0
10
1534.000000
20
276.000000
0
SEQEND
0
POLYLINE
8
0
6
CONTINUOUS
66
1
62
250
10
0.0
20
0.0
30
0.000000
0
VERTEX
8
0
10
299.000000
20
242.000000
0
VERTEX
8
0
10
299.000000
20
253.000000
0
SEQEND
0
POLYLINE
8
0
6
CONTINUOUS
66
1
62
250
10
0.0
20
0.0
30
0.000000
0
VERTEX
8
0
10
1534.000000
20
240.000000
0
VERTEX
8
0
10
1534.000000
20
251.000000
0
SEQEND
0
POLYLINE
8
0
6
CONTINUOUS
66
1
62
250
10
0.0
20
0.0
30
0.000000
0
VERTEX
8
0
10
299.000000
20
217.000000
0
VERTEX
8
0
10
299.000000
20
228.000000
0
SEQEND
0
POLYLINE
8
0
6
CONTINUOUS
66
1
62
250
10
0.0
20
0.0
30
0.000000
0
VERTEX
8
0
10
1534.000000
20
215.000000
0
VERTEX
8
0
10
1534.000000
20
226.000000
0
SEQEND
0
POLYLINE
8
0
6
CONTINUOUS
66
1
62
250
10
0.0
20
0.0
30
0.000000
0
VERTEX
8
0
10
299.000000
20
192.000000
0
VERTEX
8
0
10
299.000000
20
203.000000
0
SEQEND
0
POLYLINE
8
0
6
CONTINUOUS
66
1
62
250
10
0.0
20
0.0
30
0.000000
0
VERTEX
8
0
10
1534.000000
20
190.000000
0
VERTEX
8
0
10
1534.000000
20
201.000000
0
SEQEND
0
POLYLINE
8
0
6
CONTINUOUS
66
1
62
250
10
0.0
20
0.0
30
0.000000
0
VERTEX
8
0
10
299.000000
20
167.000000
0
VERTEX
8
0
10
299.000000
20
178.000000
0
SEQEND
0
POLYLINE
8
0
6
CONTINUOUS
66
1
62
250
10
0.0
20
0.0
30
0.000000
0
VERTEX
8
0
10
1534.000000
20
165.000000
0
VERTEX
8
0
10
1534.000000
20
176.000000
0
SEQEND
0
POLYLINE
8
0
6
CONTINUOUS
66
1
62
250
10
0.0
20
0.0
30
0.000000
0
VERTEX
8
0
10
299.000000
20
142.000000
0
VERTEX
8
0
10
299.000000
20
153.000000
0
SEQEND
0
POLYLINE
8
0
6
CONTINUOUS
66
1
62
250
10
0.0
20
0.0
30
0.000000
0
VERTEX
8
0
10
1534.000000
20
140.000000
0
VERTEX
8
0
10
1534.000000
20
151.000000
0
SEQEND
0
POLYLINE
8
0
6
CONTINUOUS
66
1
62
250
10
0.0
20
0.0
30
0.000000
0
VERTEX
8
0
10
299.000000
20
117.000000
0
VERTEX
8
0
10
299.000000
20
128.000000
0
SEQEND
0
POLYLINE
8
0
6
CONTINUOUS
66
1
62
250
10
0.0
20
0.0
30
0.000000
0
VERTEX
8
0
10
1534.000000
20
115.000000
0
VERTEX
8
0
10
1534.000000
20
126.000000
0
SEQEND
0
POLYLINE
8
0
6
CONTINUOUS
66
1
62
250
10
0.0
20
0.0
30
0.000000
0
VERTEX
8
0
10
299.000000
20
92.000000
0
VERTEX
8
0
10
299.000000
20
103.000000
0
SEQEND
0
POLYLINE
8
0
6
CONTINUOUS
66
1
62
250
10
0.0
20
0.0
30
0.000000
0
VERTEX
8
0
10
1534.000000
20
90.000000
0
VERTEX
8
0
10
1534.000000
20
101.000000
0
SEQEND
0
POLYLINE
8
0
6
CONTINUOUS
66
1
62
250
10
0.0
20
0.0
30
0.000000
0
VERTEX
8
0
10
299.000000
20
69.000000
0
VERTEX
8
0
10
299.000000
20
78.000000
0
SEQEND
0
POLYLINE
8
0
6
CONTINUOUS
66
1
62
250
10
0.0
20
0.0
30
0.000000
0
VERTEX
8
0
10
1534.000000
20
69.000000
0
VERTEX
8
0
10
1535.000000
20
68.000000
0
VERTEX
8
0
10
1736.000000
20
68.000000
0
VERTEX
8
0
10
1738.000000
20
70.000000
0
VERTEX
8
0
10
1739.000000
20
71.000000
0
VERTEX
8
0
10
1739.000000
20
1377.000000
0
VERTEX
8
0
10
1737.000000
20
1379.000000
0
VERTEX
8
0
10
85.000000
20
1379.000000
0
VERTEX
8
0
10
85.000000
20
70.000000
0
VERTEX
8
0
10
87.000000
20
68.000000
0
VERTEX
8
0
10
297.000000
20
68.000000
0
VERTEX
8
0
10
299.000000
20
69.000000
0
VERTEX
8
0
10
300.000000
20
68.000000
0
VERTEX
8
0
10
1532.000000
20
68.000000
0
VERTEX
8
0
10
1534.000000
20
69.000000
0
VERTEX
8
0
10
1534.000000
20
76.000000
0
SEQEND
0
ENDSEC
0
EOF
