  0
SECTION
  2
HEADER
  9
$ACADVER
  1
AC1021
  9
$ACADMAINTVER
 70
    25
  9
$DWGCODEPAGE
  3
ANSI_1252
  9
$INSBASE
 10
0.0
 20
0.0
 30
0.0
  9
$EXTMIN
 10
-10.04125
 20
-9.62318
 30
0.0
  9
$EXTMAX
 10
10.04127
 20
9.62319
 30
0.0
  9
$LIMMIN
 10
0.0
 20
0.0
  9
$LIMMAX
 10
12.0
 20
9.0
  9
$ORTHOMODE
 70
     0
  9
$REGENMODE
 70
     1
  9
$FILLMODE
 70
     1
  9
$QTEXTMODE
 70
     0
  9
$MIRRTEXT
 70
     1
  9
$LTSCALE
 40
1.0
  9
$ATTMODE
 70
     1
  9
$TEXTSIZE
 40
0.2
  9
$TRACEWID
 40
0.05
  9
$TEXTSTYLE
  7
Standard
  9
$CLAYER
  8
0
  9
$CELTYPE
  6
ByLayer
  9
$CECOLOR
 62
   256
  9
$CELTSCALE
 40
1.0
  9
$DISPSILH
 70
     0
  9
$DIMSCALE
 40
1.0
  9
$DIMASZ
 40
0.18
  9
$DIMEXO
 40
0.0625
  9
$DIMDLI
 40
0.38
  9
$DIMRND
 40
0.0
  9
$DIMDLE
 40
0.0
  9
$DIMEXE
 40
0.18
  9
$DIMTP
 40
0.0
  9
$DIMTM
 40
0.0
  9
$DIMTXT
 40
0.18
  9
$DIMCEN
 40
0.09
  9
$DIMTSZ
 40
0.0
  9
$DIMTOL
 70
     0
  9
$DIMLIM
 70
     0
  9
$DIMTIH
 70
     1
  9
$DIMTOH
 70
     1
  9
$DIMSE1
 70
     0
  9
$DIMSE2
 70
     0
  9
$DIMTAD
 70
     0
  9
$DIMZIN
 70
     0
  9
$DIMBLK
  1

  9
$DIMASO
 70
     1
  9
$DIMSHO
 70
     1
  9
$DIMPOST
  1

  9
$DIMAPOST
  1

  9
$DIMALT
 70
     0
  9
$DIMALTD
 70
     2
  9
$DIMALTF
 40
25.4
  9
$DIMLFAC
 40
1.0
  9
$DIMTOFL
 70
     0
  9
$DIMTVP
 40
0.0
  9
$DIMTIX
 70
     0
  9
$DIMSOXD
 70
     0
  9
$DIMSAH
 70
     0
  9
$DIMBLK1
  1

  9
$DIMBLK2
  1

  9
$DIMSTYLE
  2
Standard
  9
$DIMCLRD
 70
     0
  9
$DIMCLRE
 70
     0
  9
$DIMCLRT
 70
     0
  9
$DIMTFAC
 40
1.0
  9
$DIMGAP
 40
0.09
  9
$DIMJUST
 70
     0
  9
$DIMSD1
 70
     0
  9
$DIMSD2
 70
     0
  9
$DIMTOLJ
 70
     1
  9
$DIMTZIN
 70
     0
  9
$DIMALTZ
 70
     0
  9
$DIMALTTZ
 70
     0
  9
$DIMUPT
 70
     0
  9
$DIMDEC
 70
     4
  9
$DIMTDEC
 70
     4
  9
$DIMALTU
 70
     2
  9
$DIMALTTD
 70
     2
  9
$DIMTXSTY
  7
Standard
  9
$DIMAUNIT
 70
     0
  9
$DIMADEC
 70
     0
  9
$DIMALTRND
 40
0.0
  9
$DIMAZIN
 70
     0
  9
$DIMDSEP
 70
    46
  9
$DIMATFIT
 70
     3
  9
$DIMFRAC
 70
     0
  9
$DIMLDRBLK
  1

  9
$DIMLUNIT
 70
     2
  9
$DIMLWD
 70
    -2
  9
$DIMLWE
 70
    -2
  9
$DIMTMOVE
 70
     0
  9
$DIMFXL
 40
1.0
  9
$DIMFXLON
 70
     0
  9
$DIMJOGANG
 40
0.7853981633974483
  9
$DIMTFILL
 70
     0
  9
$DIMTFILLCLR
 70
     0
  9
$DIMARCSYM
 70
     0
  9
$DIMLTYPE
  6

  9
$DIMLTEX1
  6

  9
$DIMLTEX2
  6

  9
$LUNITS
 70
     2
  9
$LUPREC
 70
     4
  9
$SKETCHINC
 40
0.1
  9
$FILLETRAD
 40
0.5
  9
$AUNITS
 70
     0
  9
$AUPREC
 70
     0
  9
$MENU
  1
.
  9
$ELEVATION
 40
0.0
  9
$PELEVATION
 40
0.0
  9
$THICKNESS
 40
0.0
  9
$LIMCHECK
 70
     0
  9
$CHAMFERA
 40
0.5
  9
$CHAMFERB
 40
0.5
  9
$CHAMFERC
 40
1.0
  9
$CHAMFERD
 40
0.0
  9
$SKPOLY
 70
     0
  9
$TDCREATE
 40
2456876.865527118
  9
$TDUCREATE
 40
2456876.990527118
  9
$TDUPDATE
 40
2456876.865527477
  9
$TDUUPDATE
 40
2456876.990527477
  9
$TDINDWG
 40
0.0000000116
  9
$TDUSRTIMER
 40
0.0000000116
  9
$USRTIMER
 70
     1
  9
$ANGBASE
 50
0.0
  9
$ANGDIR
 70
     0
  9
$PDMODE
 70
     0
  9
$PDSIZE
 40
0.0
  9
$PLINEWID
 40
0.0
  9
$SPLFRAME
 70
     0
  9
$SPLINETYPE
 70
     6
  9
$SPLINESEGS
 70
     8
  9
$HANDSEED
  5
64
  9
$SURFTAB1
 70
     6
  9
$SURFTAB2
 70
     6
  9
$SURFTYPE
 70
     6
  9
$SURFU
 70
     6
  9
$SURFV
 70
     6
  9
$UCSBASE
  2

  9
$UCSNAME
  2

  9
$UCSORG
 10
0.0
 20
0.0
 30
0.0
  9
$UCSXDIR
 10
1.0
 20
0.0
 30
0.0
  9
$UCSYDIR
 10
0.0
 20
1.0
 30
0.0
  9
$UCSORTHOREF
  2

  9
$UCSORTHOVIEW
 70
     0
  9
$UCSORGTOP
 10
0.0
 20
0.0
 30
0.0
  9
$UCSORGBOTTOM
 10
0.0
 20
0.0
 30
0.0
  9
$UCSORGLEFT
 10
0.0
 20
0.0
 30
0.0
  9
$UCSORGRIGHT
 10
0.0
 20
0.0
 30
0.0
  9
$UCSORGFRONT
 10
0.0
 20
0.0
 30
0.0
  9
$UCSORGBACK
 10
0.0
 20
0.0
 30
0.0
  9
$PUCSBASE
  2

  9
$PUCSNAME
  2

  9
$PUCSORG
 10
0.0
 20
0.0
 30
0.0
  9
$PUCSXDIR
 10
1.0
 20
0.0
 30
0.0
  9
$PUCSYDIR
 10
0.0
 20
1.0
 30
0.0
  9
$PUCSORTHOREF
  2

  9
$PUCSORTHOVIEW
 70
     0
  9
$PUCSORGTOP
 10
0.0
 20
0.0
 30
0.0
  9
$PUCSORGBOTTOM
 10
0.0
 20
0.0
 30
0.0
  9
$PUCSORGLEFT
 10
0.0
 20
0.0
 30
0.0
  9
$PUCSORGRIGHT
 10
0.0
 20
0.0
 30
0.0
  9
$PUCSORGFRONT
 10
0.0
 20
0.0
 30
0.0
  9
$PUCSORGBACK
 10
0.0
 20
0.0
 30
0.0
  9
$USERI1
 70
     0
  9
$USERI2
 70
     0
  9
$USERI3
 70
     0
  9
$USERI4
 70
     0
  9
$USERI5
 70
     0
  9
$USERR1
 40
0.0
  9
$USERR2
 40
0.0
  9
$USERR3
 40
0.0
  9
$USERR4
 40
0.0
  9
$USERR5
 40
0.0
  9
$WORLDVIEW
 70
     1
  9
$SHADEDGE
 70
     3
  9
$SHADEDIF
 70
    70
  9
$TILEMODE
 70
     1
  9
$MAXACTVP
 70
    64
  9
$PINSBASE
 10
0.0
 20
0.0
 30
0.0
  9
$PLIMCHECK
 70
     0
  9
$PEXTMIN
 10
1.000000000000000E+20
 20
1.000000000000000E+20
 30
1.000000000000000E+20
  9
$PEXTMAX
 10
-1.000000000000000E+20
 20
-1.000000000000000E+20
 30
-1.000000000000000E+20
  9
$PLIMMIN
 10
0.0
 20
0.0
  9
$PLIMMAX
 10
12.0
 20
9.0
  9
$UNITMODE
 70
     0
  9
$VISRETAIN
 70
     1
  9
$PLINEGEN
 70
     0
  9
$PSLTSCALE
 70
     1
  9
$TREEDEPTH
 70
  3020
  9
$CMLSTYLE
  2
Standard
  9
$CMLJUST
 70
     0
  9
$CMLSCALE
 40
1.0
  9
$PROXYGRAPHICS
 70
     1
  9
$MEASUREMENT
 70
     0
  9
$CELWEIGHT
370
    -1
  9
$ENDCAPS
280
     0
  9
$JOINSTYLE
280
     0
  9
$LWDISPLAY
290
     0
  9
$INSUNITS
 70
     5
  9
$HYPERLINKBASE
  1

  9
$STYLESHEET
  1

  9
$XEDIT
290
     1
  9
$CEPSNTYPE
380
     0
  9
$PSTYLEMODE
290
     1
  9
$FINGERPRINTGUID
  2
{E9C7EB01-460B-4FFF-839F-30CCFBAA1492}
  9
$VERSIONGUID
  2
{FAEB1C32-E019-11D5-929B-00C0DF256EC4}
  9
$EXTNAMES
290
     1
  9
$PSVPSCALE
 40
0.0
  9
$OLESTARTUP
290
     0
  9
$SORTENTS
280
   127
  9
$INDEXCTL
280
     0
  9
$HIDETEXT
280
     1
  9
$XCLIPFRAME
290
     0
  9
$HALOGAP
280
     0
  9
$OBSCOLOR
 70
   257
  9
$OBSLTYPE
280
     0
  9
$INTERSECTIONDISPLAY
280
     0
  9
$INTERSECTIONCOLOR
 70
   257
  9
$DIMASSOC
280
     2
  9
$PROJECTNAME
  1

  9
$CAMERADISPLAY
290
     0
  9
$LENSLENGTH
 40
50.0
  9
$CAMERAHEIGHT
 40
0.0
  9
$STEPSPERSEC
 40
2.0
  9
$STEPSIZE
 40
6.0
  9
$3DDWFPREC
 40
2.0
  9
$PSOLWIDTH
 40
0.25
  9
$PSOLHEIGHT
 40
4.0
  9
$LOFTANG1
 40
1.570796326794897
  9
$LOFTANG2
 40
1.570796326794897
  9
$LOFTMAG1
 40
0.0
  9
$LOFTMAG2
 40
0.0
  9
$LOFTPARAM
 70
     7
  9
$LOFTNORMALS
280
     1
  9
$LATITUDE
 40
37.795
  9
$LONGITUDE
 40
-122.394
  9
$NORTHDIRECTION
 40
0.0
  9
$TIMEZONE
 70
 -8000
  9
$LIGHTGLYPHDISPLAY
280
     1
  9
$TILEMODELIGHTSYNCH
280
     1
  9
$SOLIDHIST
280
     1
  9
$SHOWHIST
280
     1
  9
$DWFFRAME
280
     2
  9
$DGNFRAME
280
     2
  9
$REALWORLDSCALE
290
     1
  9
$INTERFERECOLOR
 62
   256
  9
$CSHADOW
280
     0
  9
$SHADOWPLANELOCATION
 40
0.0
  0
ENDSEC
  0
SECTION
  2
CLASSES
  0
CLASS
  1
ACDBDICTIONARYWDFLT
  2
AcDbDictionaryWithDefault
  3
ObjectDBX Classes
 90
        0
 91
        4
280
     0
281
     0
  0
CLASS
  1
VISUALSTYLE
  2
AcDbVisualStyle
  3
ObjectDBX Classes
 90
     4095
 91
        4
280
     0
281
     0
  0
CLASS
  1
MATERIAL
  2
AcDbMaterial
  3
ObjectDBX Classes
 90
     1153
 91
        4
280
     0
281
     0
  0
ENDSEC
  0
SECTION
  2
TABLES
  0
TABLE
  2
VPORT
  5
8
330
0
100
AcDbSymbolTable
 70
     1
  0
VPORT
  5
29
330
8
100
AcDbSymbolTableRecord
100
AcDbViewportTableRecord
  2
*Active
 70
     0
 10
0.0
 20
0.0
 11
1.0
 21
1.0
 12
10.42990654205607
 22
4.5
 13
0.0
 23
0.0
 14
0.5
 24
0.5
 15
0.5
 25
0.5
 16
0.0
 26
0.0
 36
1.0
 17
0.0
 27
0.0
 37
0.0
 40
9.0
 41
1.972972972850329
 42
50.0
 43
0.0
 44
0.0
 50
0.0
 51
0.0
 71
     0
 72
   100
 73
     1
 74
     3
 75
     0
 76
     0
 77
     0
 78
     0
281
     0
 65
     1
110
0.0
120
0.0
130
0.0
111
1.0
121
0.0
131
0.0
112
0.0
122
1.0
132
0.0
 79
     0
146
0.0
 60
     3
 61
     5
292
     1
282
     1
141
0.0
142
0.0
 63
   250
  0
ENDTAB
  0
TABLE
  2
LTYPE
  5
5
330
0
100
AcDbSymbolTable
 70
     1
  0
LTYPE
  5
14
330
5
100
AcDbSymbolTableRecord
100
AcDbLinetypeTableRecord
  2
ByBlock
 70
     0
  3

 72
    65
 73
     0
 40
0.0
  0
LTYPE
  5
15
330
5
100
AcDbSymbolTableRecord
100
AcDbLinetypeTableRecord
  2
ByLayer
 70
     0
  3

 72
    65
 73
     0
 40
0.0
  0
LTYPE
  5
16
330
5
100
AcDbSymbolTableRecord
100
AcDbLinetypeTableRecord
  2
Continuous
 70
     0
  3
Solid line
 72
    65
 73
     0
 40
0.0
  0
ENDTAB
  0
TABLE
  2
LAYER
  5
2
330
0
100
AcDbSymbolTable
 70
     2
  0
LAYER
  5
10
330
2
100
AcDbSymbolTableRecord
100
AcDbLayerTableRecord
  2
0
 70
     0
 62
     7
  6
Continuous
370
    -3
390
F
347
3E
  0
LAYER
  5
40
330
2
100
AcDbSymbolTableRecord
100
AcDbLayerTableRecord
  2
Camada 1
 70
     0
 62
     7
  6
Continuous
370
    -3
390
F
347
3E
  0
ENDTAB
  0
TABLE
  2
STYLE
  5
3
330
0
100
AcDbSymbolTable
 70
     1
  0
STYLE
  5
11
330
3
100
AcDbSymbolTableRecord
100
AcDbTextStyleTableRecord
  2
Standard
 70
     0
 40
0.0
 41
1.0
 50
0.0
 71
     0
 42
0.2
  3
txt
  4

  0
ENDTAB
  0
TABLE
  2
VIEW
  5
6
330
0
100
AcDbSymbolTable
 70
     0
  0
ENDTAB
  0
TABLE
  2
UCS
  5
7
330
0
100
AcDbSymbolTable
 70
     0
  0
ENDTAB
  0
TABLE
  2
APPID
  5
9
330
0
100
AcDbSymbolTable
 70
     2
  0
APPID
  5
12
330
9
100
AcDbSymbolTableRecord
100
AcDbRegAppTableRecord
  2
ACAD
 70
     0
  0
APPID
  5
3F
330
9
100
AcDbSymbolTableRecord
100
AcDbRegAppTableRecord
  2
ODA
 70
     0
  0
ENDTAB
  0
TABLE
  2
DIMSTYLE
  5
A
330
0
100
AcDbSymbolTable
 70
     1
100
AcDbDimStyleTable
  0
DIMSTYLE
105
27
330
A
100
AcDbSymbolTableRecord
100
AcDbDimStyleTableRecord
  2
Standard
 70
     0
178
     0
340
11
  0
ENDTAB
  0
TABLE
  2
BLOCK_RECORD
  5
1
330
0
100
AcDbSymbolTable
 70
     1
  0
BLOCK_RECORD
  5
1F
330
1
100
AcDbSymbolTableRecord
100
AcDbBlockTableRecord
  2
*Model_Space
340
22
 70
     0
280
     1
281
     0
  0
BLOCK_RECORD
  5
1B
330
1
100
AcDbSymbolTableRecord
100
AcDbBlockTableRecord
  2
*Paper_Space
340
1E
 70
     0
280
     1
281
     0
  0
BLOCK_RECORD
  5
23
330
1
100
AcDbSymbolTableRecord
100
AcDbBlockTableRecord
  2
*Paper_Space0
340
26
 70
     0
280
     1
281
     0
  0
ENDTAB
  0
ENDSEC
  0
SECTION
  2
BLOCKS
  0
BLOCK
  5
20
330
1F
100
AcDbEntity
  8
0
100
AcDbBlockBegin
  2
*Model_Space
 70
     0
 10
0.0
 20
0.0
 30
0.0
  3
*Model_Space
  1

  0
ENDBLK
  5
21
330
1F
100
AcDbEntity
  8
0
100
AcDbBlockEnd
  0
BLOCK
  5
1C
330
1B
100
AcDbEntity
 67
     1
  8
0
100
AcDbBlockBegin
  2
*Paper_Space
 70
     0
 10
0.0
 20
0.0
 30
0.0
  3
*Paper_Space
  1

  0
ENDBLK
  5
1D
330
1B
100
AcDbEntity
 67
     1
  8
0
100
AcDbBlockEnd
  0
BLOCK
  5
24
330
23
100
AcDbEntity
  8
0
100
AcDbBlockBegin
  2
*Paper_Space0
 70
     0
 10
0.0
 20
0.0
 30
0.0
  3
*Paper_Space0
  1

  0
ENDBLK
  5
25
330
23
100
AcDbEntity
  8
0
100
AcDbBlockEnd
  0
ENDSEC
  0
SECTION
  2
ENTITIES
  0
SPLINE
  5
41
330
1F
100
AcDbEntity
  8
Camada 1
100
AcDbSpline
210
0.0
220
0.0
230
1.0
 70
    11
 71
     3
 72
   644
 73
   640
 74
     0
 42
0.0000000001
 43
0.0000000001
 12
1.0
 22
0.0
 32
0.0
 13
1.0
 23
0.0
 33
0.0
 40
0.0
 40
0.0
 40
0.0
 40
0.0
 40
0.0062111801242236
 40
0.0062111801242236
 40
0.0062111801242236
 40
0.0062111801242236
 40
0.0124223602484472
 40
0.0124223602484472
 40
0.0124223602484472
 40
0.0124223602484472
 40
0.0186335403726708
 40
0.0186335403726708
 40
0.0186335403726708
 40
0.0186335403726708
 40
0.0248447204968944
 40
0.0248447204968944
 40
0.0248447204968944
 40
0.0248447204968944
 40
0.031055900621118
 40
0.031055900621118
 40
0.031055900621118
 40
0.031055900621118
 40
0.0372670807453416
 40
0.0372670807453416
 40
0.0372670807453416
 40
0.0372670807453416
 40
0.0434782608695652
 40
0.0434782608695652
 40
0.0434782608695652
 40
0.0434782608695652
 40
0.0496894409937888
 40
0.0496894409937888
 40
0.0496894409937888
 40
0.0496894409937888
 40
0.0559006211180124
 40
0.0559006211180124
 40
0.0559006211180124
 40
0.0559006211180124
 40
0.062111801242236
 40
0.062111801242236
 40
0.062111801242236
 40
0.062111801242236
 40
0.0683229813664596
 40
0.0683229813664596
 40
0.0683229813664596
 40
0.0683229813664596
 40
0.0745341614906832
 40
0.0745341614906832
 40
0.0745341614906832
 40
0.0745341614906832
 40
0.0807453416149068
 40
0.0807453416149068
 40
0.0807453416149068
 40
0.0807453416149068
 40
0.0869565217391304
 40
0.0869565217391304
 40
0.0869565217391304
 40
0.0869565217391304
 40
0.093167701863354
 40
0.093167701863354
 40
0.093167701863354
 40
0.093167701863354
 40
0.0993788819875776
 40
0.0993788819875776
 40
0.0993788819875776
 40
0.0993788819875776
 40
0.1055900621118012
 40
0.1055900621118012
 40
0.1055900621118012
 40
0.1055900621118012
 40
0.1118012422360248
 40
0.1118012422360248
 40
0.1118012422360248
 40
0.1118012422360248
 40
0.1180124223602484
 40
0.1180124223602484
 40
0.1180124223602484
 40
0.1180124223602484
 40
0.124223602484472
 40
0.124223602484472
 40
0.124223602484472
 40
0.124223602484472
 40
0.1304347826086956
 40
0.1304347826086956
 40
0.1304347826086956
 40
0.1304347826086956
 40
0.1366459627329193
 40
0.1366459627329193
 40
0.1366459627329193
 40
0.1366459627329193
 40
0.1428571428571428
 40
0.1428571428571428
 40
0.1428571428571428
 40
0.1428571428571428
 40
0.1490683229813665
 40
0.1490683229813665
 40
0.1490683229813665
 40
0.1490683229813665
 40
0.15527950310559
 40
0.15527950310559
 40
0.15527950310559
 40
0.15527950310559
 40
0.1614906832298137
 40
0.1614906832298137
 40
0.1614906832298137
 40
0.1614906832298137
 40
0.1677018633540373
 40
0.1677018633540373
 40
0.1677018633540373
 40
0.1677018633540373
 40
0.1739130434782609
 40
0.1739130434782609
 40
0.1739130434782609
 40
0.1739130434782609
 40
0.1801242236024845
 40
0.1801242236024845
 40
0.1801242236024845
 40
0.1801242236024845
 40
0.1863354037267081
 40
0.1863354037267081
 40
0.1863354037267081
 40
0.1863354037267081
 40
0.1925465838509317
 40
0.1925465838509317
 40
0.1925465838509317
 40
0.1925465838509317
 40
0.1987577639751553
 40
0.1987577639751553
 40
0.1987577639751553
 40
0.1987577639751553
 40
0.2049689440993789
 40
0.2049689440993789
 40
0.2049689440993789
 40
0.2049689440993789
 40
0.2111801242236025
 40
0.2111801242236025
 40
0.2111801242236025
 40
0.2111801242236025
 40
0.2173913043478261
 40
0.2173913043478261
 40
0.2173913043478261
 40
0.2173913043478261
 40
0.2236024844720497
 40
0.2236024844720497
 40
0.2236024844720497
 40
0.2236024844720497
 40
0.2298136645962733
 40
0.2298136645962733
 40
0.2298136645962733
 40
0.2298136645962733
 40
0.2360248447204969
 40
0.2360248447204969
 40
0.2360248447204969
 40
0.2360248447204969
 40
0.2422360248447205
 40
0.2422360248447205
 40
0.2422360248447205
 40
0.2422360248447205
 40
0.2484472049689441
 40
0.2484472049689441
 40
0.2484472049689441
 40
0.2484472049689441
 40
0.2546583850931677
 40
0.2546583850931677
 40
0.2546583850931677
 40
0.2546583850931677
 40
0.2608695652173913
 40
0.2608695652173913
 40
0.2608695652173913
 40
0.2608695652173913
 40
0.2670807453416149
 40
0.2670807453416149
 40
0.2670807453416149
 40
0.2670807453416149
 40
0.2732919254658385
 40
0.2732919254658385
 40
0.2732919254658385
 40
0.2732919254658385
 40
0.2795031055900621
 40
0.2795031055900621
 40
0.2795031055900621
 40
0.2795031055900621
 40
0.2857142857142857
 40
0.2857142857142857
 40
0.2857142857142857
 40
0.2857142857142857
 40
0.2919254658385093
 40
0.2919254658385093
 40
0.2919254658385093
 40
0.2919254658385093
 40
0.2981366459627329
 40
0.2981366459627329
 40
0.2981366459627329
 40
0.2981366459627329
 40
0.3043478260869565
 40
0.3043478260869565
 40
0.3043478260869565
 40
0.3043478260869565
 40
0.3105590062111801
 40
0.3105590062111801
 40
0.3105590062111801
 40
0.3105590062111801
 40
0.3167701863354037
 40
0.3167701863354037
 40
0.3167701863354037
 40
0.3167701863354037
 40
0.3229813664596273
 40
0.3229813664596273
 40
0.3229813664596273
 40
0.3229813664596273
 40
0.3291925465838509
 40
0.3291925465838509
 40
0.3291925465838509
 40
0.3291925465838509
 40
0.3354037267080746
 40
0.3354037267080746
 40
0.3354037267080746
 40
0.3354037267080746
 40
0.3416149068322981
 40
0.3416149068322981
 40
0.3416149068322981
 40
0.3416149068322981
 40
0.3478260869565217
 40
0.3478260869565217
 40
0.3478260869565217
 40
0.3478260869565217
 40
0.3540372670807453
 40
0.3540372670807453
 40
0.3540372670807453
 40
0.3540372670807453
 40
0.360248447204969
 40
0.360248447204969
 40
0.360248447204969
 40
0.360248447204969
 40
0.3664596273291926
 40
0.3664596273291926
 40
0.3664596273291926
 40
0.3664596273291926
 40
0.3726708074534161
 40
0.3726708074534161
 40
0.3726708074534161
 40
0.3726708074534161
 40
0.3788819875776397
 40
0.3788819875776397
 40
0.3788819875776397
 40
0.3788819875776397
 40
0.3850931677018634
 40
0.3850931677018634
 40
0.3850931677018634
 40
0.3850931677018634
 40
0.391304347826087
 40
0.391304347826087
 40
0.391304347826087
 40
0.391304347826087
 40
0.3975155279503105
 40
0.3975155279503105
 40
0.3975155279503105
 40
0.3975155279503105
 40
0.4037267080745341
 40
0.4037267080745341
 40
0.4037267080745341
 40
0.4037267080745341
 40
0.4099378881987578
 40
0.4099378881987578
 40
0.4099378881987578
 40
0.4099378881987578
 40
0.4161490683229814
 40
0.4161490683229814
 40
0.4161490683229814
 40
0.4161490683229814
 40
0.422360248447205
 40
0.422360248447205
 40
0.422360248447205
 40
0.422360248447205
 40
0.4285714285714285
 40
0.4285714285714285
 40
0.4285714285714285
 40
0.4285714285714285
 40
0.4347826086956522
 40
0.4347826086956522
 40
0.4347826086956522
 40
0.4347826086956522
 40
0.4409937888198758
 40
0.4409937888198758
 40
0.4409937888198758
 40
0.4409937888198758
 40
0.4472049689440994
 40
0.4472049689440994
 40
0.4472049689440994
 40
0.4472049689440994
 40
0.453416149068323
 40
0.453416149068323
 40
0.453416149068323
 40
0.453416149068323
 40
0.4596273291925466
 40
0.4596273291925466
 40
0.4596273291925466
 40
0.4596273291925466
 40
0.4658385093167702
 40
0.4658385093167702
 40
0.4658385093167702
 40
0.4658385093167702
 40
0.4720496894409938
 40
0.4720496894409938
 40
0.4720496894409938
 40
0.4720496894409938
 40
0.4782608695652174
 40
0.4782608695652174
 40
0.4782608695652174
 40
0.4782608695652174
 40
0.484472049689441
 40
0.484472049689441
 40
0.484472049689441
 40
0.484472049689441
 40
0.4906832298136646
 40
0.4906832298136646
 40
0.4906832298136646
 40
0.4906832298136646
 40
0.4968944099378882
 40
0.4968944099378882
 40
0.4968944099378882
 40
0.4968944099378882
 40
0.5031055900621118
 40
0.5031055900621118
 40
0.5031055900621118
 40
0.5031055900621118
 40
0.5093167701863354
 40
0.5093167701863354
 40
0.5093167701863354
 40
0.5093167701863354
 40
0.515527950310559
 40
0.515527950310559
 40
0.515527950310559
 40
0.515527950310559
 40
0.5217391304347826
 40
0.5217391304347826
 40
0.5217391304347826
 40
0.5217391304347826
 40
0.5279503105590062
 40
0.5279503105590062
 40
0.5279503105590062
 40
0.5279503105590062
 40
0.5341614906832298
 40
0.5341614906832298
 40
0.5341614906832298
 40
0.5341614906832298
 40
0.5403726708074534
 40
0.5403726708074534
 40
0.5403726708074534
 40
0.5403726708074534
 40
0.546583850931677
 40
0.546583850931677
 40
0.546583850931677
 40
0.546583850931677
 40
0.5527950310559007
 40
0.5527950310559007
 40
0.5527950310559007
 40
0.5527950310559007
 40
0.5590062111801242
 40
0.5590062111801242
 40
0.5590062111801242
 40
0.5590062111801242
 40
0.5652173913043478
 40
0.5652173913043478
 40
0.5652173913043478
 40
0.5652173913043478
 40
0.5714285714285714
 40
0.5714285714285714
 40
0.5714285714285714
 40
0.5714285714285714
 40
0.577639751552795
 40
0.577639751552795
 40
0.577639751552795
 40
0.577639751552795
 40
0.5838509316770186
 40
0.5838509316770186
 40
0.5838509316770186
 40
0.5838509316770186
 40
0.5900621118012422
 40
0.5900621118012422
 40
0.5900621118012422
 40
0.5900621118012422
 40
0.5962732919254659
 40
0.5962732919254659
 40
0.5962732919254659
 40
0.5962732919254659
 40
0.6024844720496895
 40
0.6024844720496895
 40
0.6024844720496895
 40
0.6024844720496895
 40
0.6086956521739131
 40
0.6086956521739131
 40
0.6086956521739131
 40
0.6086956521739131
 40
0.6149068322981367
 40
0.6149068322981367
 40
0.6149068322981367
 40
0.6149068322981367
 40
0.6211180124223602
 40
0.6211180124223602
 40
0.6211180124223602
 40
0.6211180124223602
 40
0.6273291925465838
 40
0.6273291925465838
 40
0.6273291925465838
 40
0.6273291925465838
 40
0.6335403726708074
 40
0.6335403726708074
 40
0.6335403726708074
 40
0.6335403726708074
 40
0.639751552795031
 40
0.639751552795031
 40
0.639751552795031
 40
0.639751552795031
 40
0.6459627329192547
 40
0.6459627329192547
 40
0.6459627329192547
 40
0.6459627329192547
 40
0.6521739130434783
 40
0.6521739130434783
 40
0.6521739130434783
 40
0.6521739130434783
 40
0.6583850931677019
 40
0.6583850931677019
 40
0.6583850931677019
 40
0.6583850931677019
 40
0.6645962732919255
 40
0.6645962732919255
 40
0.6645962732919255
 40
0.6645962732919255
 40
0.6708074534161491
 40
0.6708074534161491
 40
0.6708074534161491
 40
0.6708074534161491
 40
0.6770186335403726
 40
0.6770186335403726
 40
0.6770186335403726
 40
0.6770186335403726
 40
0.6832298136645962
 40
0.6832298136645962
 40
0.6832298136645962
 40
0.6832298136645962
 40
0.6894409937888198
 40
0.6894409937888198
 40
0.6894409937888198
 40
0.6894409937888198
 40
0.6956521739130435
 40
0.6956521739130435
 40
0.6956521739130435
 40
0.6956521739130435
 40
0.7018633540372671
 40
0.7018633540372671
 40
0.7018633540372671
 40
0.7018633540372671
 40
0.7080745341614907
 40
0.7080745341614907
 40
0.7080745341614907
 40
0.7080745341614907
 40
0.7142857142857143
 40
0.7142857142857143
 40
0.7142857142857143
 40
0.7142857142857143
 40
0.7204968944099379
 40
0.7204968944099379
 40
0.7204968944099379
 40
0.7204968944099379
 40
0.7267080745341615
 40
0.7267080745341615
 40
0.7267080745341615
 40
0.7267080745341615
 40
0.7329192546583851
 40
0.7329192546583851
 40
0.7329192546583851
 40
0.7329192546583851
 40
0.7391304347826086
 40
0.7391304347826086
 40
0.7391304347826086
 40
0.7391304347826086
 40
0.7453416149068323
 40
0.7453416149068323
 40
0.7453416149068323
 40
0.7453416149068323
 40
0.7515527950310559
 40
0.7515527950310559
 40
0.7515527950310559
 40
0.7515527950310559
 40
0.7577639751552795
 40
0.7577639751552795
 40
0.7577639751552795
 40
0.7577639751552795
 40
0.7639751552795031
 40
0.7639751552795031
 40
0.7639751552795031
 40
0.7639751552795031
 40
0.7701863354037267
 40
0.7701863354037267
 40
0.7701863354037267
 40
0.7701863354037267
 40
0.7763975155279503
 40
0.7763975155279503
 40
0.7763975155279503
 40
0.7763975155279503
 40
0.782608695652174
 40
0.782608695652174
 40
0.782608695652174
 40
0.782608695652174
 40
0.7888198757763976
 40
0.7888198757763976
 40
0.7888198757763976
 40
0.7888198757763976
 40
0.7950310559006211
 40
0.7950310559006211
 40
0.7950310559006211
 40
0.7950310559006211
 40
0.8012422360248447
 40
0.8012422360248447
 40
0.8012422360248447
 40
0.8012422360248447
 40
0.8074534161490683
 40
0.8074534161490683
 40
0.8074534161490683
 40
0.8074534161490683
 40
0.8136645962732919
 40
0.8136645962732919
 40
0.8136645962732919
 40
0.8136645962732919
 40
0.8198757763975155
 40
0.8198757763975155
 40
0.8198757763975155
 40
0.8198757763975155
 40
0.8260869565217391
 40
0.8260869565217391
 40
0.8260869565217391
 40
0.8260869565217391
 40
0.8322981366459627
 40
0.8322981366459627
 40
0.8322981366459627
 40
0.8322981366459627
 40
0.8385093167701864
 40
0.8385093167701864
 40
0.8385093167701864
 40
0.8385093167701864
 40
0.84472049689441
 40
0.84472049689441
 40
0.84472049689441
 40
0.84472049689441
 40
0.8509316770186336
 40
0.8509316770186336
 40
0.8509316770186336
 40
0.8509316770186336
 40
0.8571428571428571
 40
0.8571428571428571
 40
0.8571428571428571
 40
0.8571428571428571
 40
0.8633540372670807
 40
0.8633540372670807
 40
0.8633540372670807
 40
0.8633540372670807
 40
0.8695652173913043
 40
0.8695652173913043
 40
0.8695652173913043
 40
0.8695652173913043
 40
0.8757763975155279
 40
0.8757763975155279
 40
0.8757763975155279
 40
0.8757763975155279
 40
0.8819875776397516
 40
0.8819875776397516
 40
0.8819875776397516
 40
0.8819875776397516
 40
0.8881987577639752
 40
0.8881987577639752
 40
0.8881987577639752
 40
0.8881987577639752
 40
0.8944099378881988
 40
0.8944099378881988
 40
0.8944099378881988
 40
0.8944099378881988
 40
0.9006211180124224
 40
0.9006211180124224
 40
0.9006211180124224
 40
0.9006211180124224
 40
0.906832298136646
 40
0.906832298136646
 40
0.906832298136646
 40
0.906832298136646
 40
0.9130434782608695
 40
0.9130434782608695
 40
0.9130434782608695
 40
0.9130434782608695
 40
0.9192546583850931
 40
0.9192546583850931
 40
0.9192546583850931
 40
0.9192546583850931
 40
0.9254658385093167
 40
0.9254658385093167
 40
0.9254658385093167
 40
0.9254658385093167
 40
0.9316770186335404
 40
0.9316770186335404
 40
0.9316770186335404
 40
0.9316770186335404
 40
0.937888198757764
 40
0.937888198757764
 40
0.937888198757764
 40
0.937888198757764
 40
0.9440993788819876
 40
0.9440993788819876
 40
0.9440993788819876
 40
0.9440993788819876
 40
0.9503105590062112
 40
0.9503105590062112
 40
0.9503105590062112
 40
0.9503105590062112
 40
0.9565217391304348
 40
0.9565217391304348
 40
0.9565217391304348
 40
0.9565217391304348
 40
0.9627329192546584
 40
0.9627329192546584
 40
0.9627329192546584
 40
0.9627329192546584
 40
0.968944099378882
 40
0.968944099378882
 40
0.968944099378882
 40
0.968944099378882
 40
0.9751552795031055
 40
0.9751552795031055
 40
0.9751552795031055
 40
0.9751552795031055
 40
0.9813664596273292
 40
0.9813664596273292
 40
0.9813664596273292
 40
0.9813664596273292
 40
0.9875776397515528
 40
0.9875776397515528
 40
0.9875776397515528
 40
0.9875776397515528
 40
1.0
 40
1.0
 40
1.0
 40
1.0
 10
-0.99522
 20
-5.13154
 30
0.0
 10
-0.89862
 20
-5.30064
 30
0.0
 10
-0.58469
 20
-6.79786
 30
0.0
 10
-1.21258
 20
-7.1842
 30
0.0
 10
-1.21258
 20
-7.1842
 30
0.0
 10
-1.84041
 20
-7.57054
 30
0.0
 10
-2.83048
 20
-8.77797
 30
0.0
 10
-2.83048
 20
-9.0919
 30
0.0
 10
-2.83048
 20
-9.0919
 30
0.0
 10
-2.9995
 20
-9.35752
 30
0.0
 10
-4.78652
 20
-9.62318
 30
0.0
 10
-4.85896
 20
-9.62318
 30
0.0
 10
-4.85896
 20
-9.62318
 30
0.0
 10
-4.88314
 20
-9.52661
 30
0.0
 10
-4.97972
 20
-9.42998
 30
0.0
 10
-4.88314
 20
-9.42998
 30
0.0
 10
-4.88314
 20
-9.42998
 30
0.0
 10
-4.95556
 20
-9.45411
 30
0.0
 10
-5.17294
 20
-9.35751
 30
0.0
 10
-5.17294
 20
-9.35751
 30
0.0
 10
-5.17294
 20
-9.35751
 30
0.0
 10
-5.17294
 20
-9.35751
 30
0.0
 10
-5.43856
 20
-9.26099
 30
0.0
 10
-5.53515
 20
-9.38169
 30
0.0
 10
-5.53515
 20
-9.38169
 30
0.0
 10
-5.60757
 20
-9.28509
 30
0.0
 10
-5.77658
 20
-9.06771
 30
0.0
 10
-5.55928
 20
-8.99529
 30
0.0
 10
-5.55928
 20
-8.99529
 30
0.0
 10
-5.80077
 20
-8.92287
 30
0.0
 10
-5.94562
 20
-8.80209
 30
0.0
 10
-5.94562
 20
-8.80209
 30
0.0
 10
-5.94562
 20
-8.80209
 30
0.0
 10
-5.84902
 20
-8.70557
 30
0.0
 10
-5.48681
 20
-8.68136
 30
0.0
 10
-5.48681
 20
-8.68136
 30
0.0
 10
-5.48681
 20
-8.68136
 30
0.0
 10
-5.53515
 20
-8.53645
 30
0.0
 10
-5.07628
 20
-8.36743
 30
0.0
 10
-4.90727
 20
-8.41574
 30
0.0
 10
-4.90727
 20
-8.41574
 30
0.0
 10
-4.85896
 20
-8.31914
 30
0.0
 10
-4.32773
 20
-8.34327
 30
0.0
 10
-3.94133
 20
-8.17423
 30
0.0
 10
-3.94133
 20
-8.17423
 30
0.0
 10
-3.55493
 20
-8.00521
 30
0.0
 10
-2.80637
 20
-7.5464
 30
0.0
 10
-2.68564
 20
-6.33897
 30
0.0
 10
-2.68564
 20
-6.33897
 30
0.0
 10
-2.49244
 20
-6.02504
 30
0.0
 10
-2.20264
 20
-5.61451
 30
0.0
 10
-2.39584
 20
-5.37303
 30
0.0
 10
-2.39584
 20
-5.37303
 30
0.0
 10
-2.58904
 20
-5.13152
 30
0.0
 10
-3.77228
 20
-4.76938
 30
0.0
 10
-3.79644
 20
-4.69689
 30
0.0
 10
-3.79644
 20
-4.69689
 30
0.0
 10
-3.69989
 20
-5.1557
 30
0.0
 10
-4.25531
 20
-5.56621
 30
0.0
 10
-4.25531
 20
-5.56621
 30
0.0
 10
-4.25531
 20
-5.56621
 30
0.0
 10
-4.44846
 20
-5.44545
 30
0.0
 10
-4.9073
 20
-5.25231
 30
0.0
 10
-5.39024
 20
-5.204
 30
0.0
 10
-5.39024
 20
-5.204
 30
0.0
 10
-5.87324
 20
-5.15571
 30
0.0
 10
-6.38034
 20
-4.18977
 30
0.0
 10
-6.47694
 20
-4.18977
 30
0.0
 10
-6.47694
 20
-4.18977
 30
0.0
 10
-6.57354
 20
-4.18977
 30
0.0
 10
-7.20142
 20
-3.99652
 30
0.0
 10
-7.56364
 20
-4.57611
 30
0.0
 10
-7.56364
 20
-4.57611
 30
0.0
 10
-7.66019
 20
-4.55201
 30
0.0
 10
-7.95004
 20
-4.62442
 30
0.0
 10
-8.04658
 20
-4.67271
 30
0.0
 10
-8.04658
 20
-4.67271
 30
0.0
 10
-8.19149
 20
-4.5278
 30
0.0
 10
-8.16731
 20
-4.3105
 30
0.0
 10
-8.07071
 20
-4.3105
 30
0.0
 10
-8.07071
 20
-4.3105
 30
0.0
 10
-8.02245
 20
-4.21393
 30
0.0
 10
-7.49117
 20
-3.8034
 30
0.0
 10
-7.78091
 20
-3.7068
 30
0.0
 10
-7.78091
 20
-3.7068
 30
0.0
 10
-8.07071
 20
-3.6102
 30
0.0
 10
-8.50534
 20
-3.97242
 30
0.0
 10
-8.52952
 20
-4.06901
 30
0.0
 10
-8.52952
 20
-4.06901
 30
0.0
 10
-8.5537
 20
-4.16558
 30
0.0
 10
-8.81932
 20
-4.43125
 30
0.0
 10
-8.81932
 20
-4.43125
 30
0.0
 10
-8.81932
 20
-4.43125
 30
0.0
 10
-8.91592
 20
-4.31049
 30
0.0
 10
-8.96423
 20
-3.9241
 30
0.0
 10
-8.89174
 20
-3.85168
 30
0.0
 10
-8.89174
 20
-3.85168
 30
0.0
 10
-9.06076
 20
-3.99659
 30
0.0
 10
-9.37474
 20
-3.97244
 30
0.0
 10
-9.44715
 20
-3.97244
 30
0.0
 10
-9.44715
 20
-3.97244
 30
0.0
 10
-9.54375
 20
-3.85168
 30
0.0
 10
-9.25395
 20
-3.34456
 30
0.0
 10
-9.25395
 20
-3.34456
 30
0.0
 10
-9.25395
 20
-3.34456
 30
0.0
 10
-9.25395
 20
-3.10307
 30
0.0
 10
-8.86761
 20
-2.74086
 30
0.0
 10
-8.43289
 20
-2.74086
 30
0.0
 10
-8.43289
 20
-2.74086
 30
0.0
 10
-7.99826
 20
-2.74086
 30
0.0
 10
-6.6701
 20
-3.03061
 30
0.0
 10
-6.59763
 20
-3.10307
 30
0.0
 10
-6.59763
 20
-3.10307
 30
0.0
 10
-6.52521
 20
-3.17554
 30
0.0
 10
-6.35614
 20
-3.53775
 30
0.0
 10
-6.23542
 20
-3.53775
 30
0.0
 10
-6.23542
 20
-3.53775
 30
0.0
 10
-6.1147
 20
-3.53775
 30
0.0
 10
-5.26948
 20
-3.58606
 30
0.0
 10
-5.26948
 20
-3.58606
 30
0.0
 10
-5.26948
 20
-3.58606
 30
0.0
 10
-5.36608
 20
-3.32044
 30
0.0
 10
-6.06641
 20
-2.2579
 30
0.0
 10
-6.06641
 20
-2.16128
 30
0.0
 10
-6.06641
 20
-2.16128
 30
0.0
 10
-6.06641
 20
-2.06471
 30
0.0
 10
-6.33203
 20
-1.62994
 30
0.0
 10
-5.63175
 20
0.66415
 30
0.0
 10
-5.63175
 20
0.66415
 30
0.0
 10
-4.9314
 20
2.95825
 30
0.0
 10
-5.26948
 20
4.81769
 30
0.0
 10
-5.34195
 20
4.91428
 30
0.0
 10
-5.34195
 20
4.91428
 30
0.0
 10
-5.41437
 20
4.55201
 30
0.0
 10
-6.59764
 20
3.53779
 30
0.0
 10
-7.05645
 20
3.61025
 30
0.0
 10
-7.05645
 20
3.61025
 30
0.0
 10
-7.10482
 20
3.58607
 30
0.0
 10
-7.39453
 20
3.65851
 30
0.0
 10
-7.39453
 20
3.65851
 30
0.0
 10
-7.39453
 20
3.65851
 30
0.0
 10
-7.39453
 20
3.65851
 30
0.0
 10
-8.9883
 20
2.66844
 30
0.0
 10
-8.9883
 20
2.66844
 30
0.0
 10
-8.9883
 20
2.66844
 30
0.0
 10
-9.15732
 20
2.76504
 30
0.0
 10
-9.44711
 20
2.62015
 30
0.0
 10
-9.44711
 20
2.62015
 30
0.0
 10
-9.44711
 20
2.62015
 30
0.0
 10
-9.44711
 20
2.62015
 30
0.0
 10
-9.9784
 20
2.30619
 30
0.0
 10
-9.9784
 20
2.30619
 30
0.0
 10
-9.9784
 20
2.30619
 30
0.0
 10
-10.1716
 20
2.49939
 30
0.0
 10
-9.85772
 20
3.39283
 30
0.0
 10
-9.85772
 20
3.39283
 30
0.0
 10
-9.85772
 20
3.39283
 30
0.0
 10
-9.85772
 20
3.39283
 30
0.0
 10
-9.78525
 20
4.06903
 30
0.0
 10
-9.78525
 20
4.14144
 30
0.0
 10
-9.78525
 20
4.14144
 30
0.0
 10
-9.78525
 20
4.21386
 30
0.0
 10
-9.51958
 20
4.38295
 30
0.0
 10
-9.20571
 20
4.35882
 30
0.0
 10
-9.20571
 20
4.35882
 30
0.0
 10
-8.89173
 20
4.33464
 30
0.0
 10
-8.09488
 20
5.10738
 30
0.0
 10
-8.09488
 20
5.10738
 30
0.0
 10
-8.09488
 20
5.10738
 30
0.0
 10
-8.1673
 20
5.25229
 30
0.0
 10
-8.69855
 20
6.5805
 30
0.0
 10
-7.58773
 20
6.65292
 30
0.0
 10
-7.58773
 20
6.65292
 30
0.0
 10
-7.63607
 20
6.77365
 30
0.0
 10
-7.12892
 20
7.35322
 30
0.0
 10
-7.12892
 20
7.35322
 30
0.0
 10
-7.12892
 20
7.35322
 30
0.0
 10
-7.12892
 20
7.35322
 30
0.0
 10
-6.91164
 20
7.52224
 30
0.0
 10
-6.91164
 20
7.52224
 30
0.0
 10
-6.91164
 20
7.52224
 30
0.0
 10
-6.86325
 20
7.66715
 30
0.0
 10
-6.06641
 20
9.40586
 30
0.0
 10
-6.06641
 20
9.62319
 30
0.0
 10
-6.06641
 20
9.62319
 30
0.0
 10
-5.89739
 20
9.28511
 30
0.0
 10
-6.33203
 20
7.35325
 30
0.0
 10
-6.47694
 20
7.20834
 30
0.0
 10
-6.47694
 20
7.20834
 30
0.0
 10
-6.42863
 20
7.16003
 30
0.0
 10
-6.33203
 20
6.79781
 30
0.0
 10
-5.92153
 20
6.82197
 30
0.0
 10
-5.92153
 20
6.82197
 30
0.0
 10
-5.7042
 20
6.89441
 30
0.0
 10
-4.71416
 20
8.126
 30
0.0
 10
-4.66579
 20
8.24672
 30
0.0
 10
-4.66579
 20
8.24672
 30
0.0
 10
-4.59337
 20
7.95692
 30
0.0
 10
-5.43859
 20
6.8461
 30
0.0
 10
-5.43859
 20
6.8461
 30
0.0
 10
-5.43859
 20
6.8461
 30
0.0
 10
-5.36612
 20
6.82194
 30
0.0
 10
-5.00391
 20
6.70119
 30
0.0
 10
-5.00391
 20
6.70119
 30
0.0
 10
-5.00391
 20
6.70119
 30
0.0
 10
-5.00391
 20
6.70119
 30
0.0
 10
-4.83484
 20
6.91855
 30
0.0
 10
-4.83484
 20
6.91855
 30
0.0
 10
-4.83484
 20
6.91855
 30
0.0
 10
-4.83484
 20
6.91855
 30
0.0
 10
-4.78658
 20
6.62873
 30
0.0
 10
-4.78658
 20
6.62873
 30
0.0
 10
-4.78658
 20
6.62873
 30
0.0
 10
-4.78658
 20
6.62873
 30
0.0
 10
-4.6658
 20
6.6046
 30
0.0
 10
-4.6658
 20
6.6046
 30
0.0
 10
-4.6658
 20
6.6046
 30
0.0
 10
-4.6658
 20
6.6046
 30
0.0
 10
-4.42437
 20
6.87024
 30
0.0
 10
-4.42437
 20
6.87024
 30
0.0
 10
-4.42437
 20
6.87024
 30
0.0
 10
-4.42437
 20
6.87024
 30
0.0
 10
-4.42437
 20
6.508
 30
0.0
 10
-4.42437
 20
6.508
 30
0.0
 10
-4.42437
 20
6.508
 30
0.0
 10
-4.42437
 20
6.508
 30
0.0
 10
-4.37603
 20
6.29067
 30
0.0
 10
-4.37603
 20
6.29067
 30
0.0
 10
-4.37603
 20
6.29067
 30
0.0
 10
-4.37603
 20
6.29067
 30
0.0
 10
-4.08628
 20
6.07329
 30
0.0
 10
-4.08628
 20
6.07329
 30
0.0
 10
-4.08628
 20
6.07329
 30
0.0
 10
-3.98968
 20
6.04916
 30
0.0
 10
-3.82061
 20
6.04916
 30
0.0
 10
-3.82061
 20
6.04916
 30
0.0
 10
-3.82061
 20
6.04916
 30
0.0
 10
-3.82061
 20
6.04916
 30
0.0
 10
-3.98968
 20
5.80767
 30
0.0
 10
-3.98968
 20
5.80767
 30
0.0
 10
-3.98968
 20
5.80767
 30
0.0
 10
-3.98968
 20
5.80767
 30
0.0
 10
-3.94139
 20
5.44546
 30
0.0
 10
-3.94139
 20
5.44546
 30
0.0
 10
-3.94139
 20
5.44546
 30
0.0
 10
-3.94139
 20
5.44546
 30
0.0
 10
-3.67575
 20
5.34886
 30
0.0
 10
-3.67575
 20
5.34886
 30
0.0
 10
-3.67575
 20
5.34886
 30
0.0
 10
-3.67575
 20
5.34886
 30
0.0
 10
-3.86895
 20
5.13153
 30
0.0
 10
-3.86895
 20
5.13153
 30
0.0
 10
-3.86895
 20
5.13153
 30
0.0
 10
-3.86895
 20
5.13153
 30
0.0
 10
-3.84477
 20
4.93838
 30
0.0
 10
-3.84477
 20
4.93838
 30
0.0
 10
-3.84477
 20
4.93838
 30
0.0
 10
-3.84477
 20
4.93838
 30
0.0
 10
-3.48256
 20
4.69689
 30
0.0
 10
-3.72404
 20
4.55198
 30
0.0
 10
-3.72404
 20
4.55198
 30
0.0
 10
-3.74817
 20
4.47956
 30
0.0
 10
-3.77233
 20
4.38296
 30
0.0
 10
-3.77233
 20
4.38296
 30
0.0
 10
-3.77233
 20
4.38296
 30
0.0
 10
-3.77233
 20
4.38296
 30
0.0
 10
-3.48253
 20
4.31044
 30
0.0
 10
-3.65157
 20
4.11729
 30
0.0
 10
-3.65157
 20
4.11729
 30
0.0
 10
-3.67575
 20
3.92414
 30
0.0
 10
-3.60331
 20
3.70676
 30
0.0
 10
-3.60331
 20
3.70676
 30
0.0
 10
-3.60331
 20
3.70676
 30
0.0
 10
-3.43424
 20
3.70676
 30
0.0
 10
-3.19273
 20
3.46533
 30
0.0
 10
-3.57913
 20
3.39283
 30
0.0
 10
-3.57913
 20
3.39283
 30
0.0
 10
-3.60331
 20
3.3687
 30
0.0
 10
-3.67573
 20
1.89566
 30
0.0
 10
-3.67573
 20
1.89566
 30
0.0
 10
-3.67573
 20
1.89566
 30
0.0
 10
-3.48253
 20
1.89566
 30
0.0
 10
-3.57913
 20
1.50926
 30
0.0
 10
-3.69991
 20
1.50926
 30
0.0
 10
-3.69991
 20
1.50926
 30
0.0
 10
-3.82059
 20
1.50926
 30
0.0
 10
-3.82059
 20
1.09873
 30
0.0
 10
-3.82059
 20
1.09873
 30
0.0
 10
-3.82059
 20
1.09873
 30
0.0
 10
-3.67573
 20
1.09873
 30
0.0
 10
-3.3377
 20
0.92969
 30
0.0
 10
-3.72404
 20
0.71239
 30
0.0
 10
-3.72404
 20
0.71239
 30
0.0
 10
-3.77233
 20
0.71239
 30
0.0
 10
-3.94137
 20
0.20521
 30
0.0
 10
-3.94137
 20
0.20521
 30
0.0
 10
-3.94137
 20
0.20521
 30
0.0
 10
-3.82059
 20
0.25352
 30
0.0
 10
-3.48256
 20
0.22939
 30
0.0
 10
-3.84477
 20
-0.32602
 30
0.0
 10
-3.84477
 20
-0.32602
 30
0.0
 10
-3.79648
 20
-0.42262
 30
0.0
 10
-3.65157
 20
-0.30189
 30
0.0
 10
-3.65157
 20
-0.30189
 30
0.0
 10
-3.65157
 20
-0.30189
 30
0.0
 10
-3.65157
 20
-0.20529
 30
0.0
 10
-3.31354
 20
0.44672
 30
0.0
 10
-2.97543
 20
0.44672
 30
0.0
 10
-2.97543
 20
0.44672
 30
0.0
 10
-2.63735
 20
0.44672
 30
0.0
 10
-2.51662
 20
1.09879
 30
0.0
 10
-2.51662
 20
1.21946
 30
0.0
 10
-2.51662
 20
1.21946
 30
0.0
 10
-2.51662
 20
1.34024
 30
0.0
 10
-2.25093
 20
2.6925
 30
0.0
 10
-2.44415
 20
2.93401
 30
0.0
 10
-2.44415
 20
2.93401
 30
0.0
 10
-2.63735
 20
3.1755
 30
0.0
 10
-3.09616
 20
4.38289
 30
0.0
 10
-2.85473
 20
5.05904
 30
0.0
 10
-2.85473
 20
5.05904
 30
0.0
 10
-2.61324
 20
5.73524
 30
0.0
 10
-2.75813
 20
6.16987
 30
0.0
 10
-2.83055
 20
6.26647
 30
0.0
 10
-2.83055
 20
6.26647
 30
0.0
 10
-2.85473
 20
6.36307
 30
0.0
 10
-2.39589
 20
6.96677
 30
0.0
 10
-2.32348
 20
6.94264
 30
0.0
 10
-2.32348
 20
6.94264
 30
0.0
 10
-2.44416
 20
7.32904
 30
0.0
 10
-2.03368
 20
7.5705
 30
0.0
 10
-2.03368
 20
7.5705
 30
0.0
 10
-2.03368
 20
7.5705
 30
0.0
 10
-1.9129
 20
7.73954
 30
0.0
 10
-1.45408
 20
7.88443
 30
0.0
 10
-1.45408
 20
7.88443
 30
0.0
 10
-1.45408
 20
7.88443
 30
0.0
 10
-1.45408
 20
7.88443
 30
0.0
 10
-1.74388
 20
7.35317
 30
0.0
 10
-1.74388
 20
7.35317
 30
0.0
 10
-1.74388
 20
7.35317
 30
0.0
 10
-1.74388
 20
7.35317
 30
0.0
 10
-1.57486
 20
7.42559
 30
0.0
 10
-1.57486
 20
7.42559
 30
0.0
 10
-1.57486
 20
7.42559
 30
0.0
 10
-1.57486
 20
7.42559
 30
0.0
 10
-1.21265
 20
7.5705
 30
0.0
 10
-1.21265
 20
7.5705
 30
0.0
 10
-1.21265
 20
7.5705
 30
0.0
 10
-1.21265
 20
7.5705
 30
0.0
 10
-1.18847
 20
7.25657
 30
0.0
 10
-1.18847
 20
7.25657
 30
0.0
 10
-1.18847
 20
7.25657
 30
0.0
 10
-1.09187
 20
7.15997
 30
0.0
 10
1.73351
 20
5.49378
 30
0.0
 10
1.80593
 20
5.49378
 30
0.0
 10
1.80593
 20
5.49378
 30
0.0
 10
1.87835
 20
5.49378
 30
0.0
 10
2.62696
 20
5.10738
 30
0.0
 10
2.9892
 20
5.20398
 30
0.0
 10
2.9892
 20
5.20398
 30
0.0
 10
3.35141
 20
4.93834
 30
0.0
 10
4.92113
 20
2.76492
 30
0.0
 10
5.66969
 20
2.33029
 30
0.0
 10
5.66969
 20
2.33029
 30
0.0
 10
6.41825
 20
1.89566
 30
0.0
 10
5.86289
 20
1.48508
 30
0.0
 10
5.86289
 20
1.48508
 30
0.0
 10
5.86289
 20
1.48508
 30
0.0
 10
5.93531
 20
1.41266
 30
0.0
 10
5.88702
 20
1.1712
 30
0.0
 10
5.88702
 20
1.1712
 30
0.0
 10
5.88702
 20
1.1712
 30
0.0
 10
5.88702
 20
1.1712
 30
0.0
 10
5.23498
 20
1.63001
 30
0.0
 10
5.01768
 20
1.65414
 30
0.0
 10
5.01768
 20
1.65414
 30
0.0
 10
4.80038
 20
1.67827
 30
0.0
 10
3.78607
 20
1.29193
 30
0.0
 10
4.02758
 20
0.03619
 30
0.0
 10
4.02758
 20
0.03619
 30
0.0
 10
4.02758
 20
0.03619
 30
0.0
 10
4.48645
 20
0.22934
 30
0.0
 10
4.48645
 20
0.22934
 30
0.0
 10
4.48645
 20
0.22934
 30
0.0
 10
4.48645
 20
0.22934
 30
0.0
 10
4.29325
 20
-0.20532
 30
0.0
 10
4.29325
 20
-0.20532
 30
0.0
 10
4.29325
 20
-0.20532
 30
0.0
 10
4.29325
 20
-0.20532
 30
0.0
 10
4.87279
 20
-0.18119
 30
0.0
 10
4.87279
 20
-0.18119
 30
0.0
 10
4.87279
 20
-0.18119
 30
0.0
 10
4.87279
 20
-0.18119
 30
0.0
 10
5.30747
 20
0.01201
 30
0.0
 10
5.30747
 20
0.01201
 30
0.0
 10
5.30747
 20
0.01201
 30
0.0
 10
5.30747
 20
0.01201
 30
0.0
 10
5.0418
 20
-0.49512
 30
0.0
 10
5.0418
 20
-0.49512
 30
0.0
 10
5.0418
 20
-0.49512
 30
0.0
 10
5.0418
 20
-0.49512
 30
0.0
 10
4.89689
 20
-0.76076
 30
0.0
 10
5.0418
 20
-0.76076
 30
0.0
 10
5.0418
 20
-0.76076
 30
0.0
 10
5.18671
 20
-0.76076
 30
0.0
 10
5.37988
 20
-0.76076
 30
0.0
 10
5.37988
 20
-0.76076
 30
0.0
 10
5.37988
 20
-0.76076
 30
0.0
 10
5.37988
 20
-0.76076
 30
0.0
 10
5.79041
 20
-0.59172
 30
0.0
 10
5.79041
 20
-0.59172
 30
0.0
 10
5.79041
 20
-0.59172
 30
0.0
 10
5.79041
 20
-0.59172
 30
0.0
 10
5.54892
 20
-1.07466
 30
0.0
 10
5.54892
 20
-1.07466
 30
0.0
 10
5.54892
 20
-1.07466
 30
0.0
 10
5.54892
 20
-1.21957
 30
0.0
 10
5.81459
 20
-1.24376
 30
0.0
 10
5.887
 20
-1.24376
 30
0.0
 10
5.887
 20
-1.24376
 30
0.0
 10
5.95941
 20
-1.24376
 30
0.0
 10
6.32171
 20
-1.26786
 30
0.0
 10
6.32171
 20
-1.26786
 30
0.0
 10
6.32171
 20
-1.26786
 30
0.0
 10
6.32171
 20
-1.26786
 30
0.0
 10
6.00773
 20
-1.53355
 30
0.0
 10
6.00773
 20
-1.53355
 30
0.0
 10
6.00773
 20
-1.53355
 30
0.0
 10
5.95944
 20
-1.67844
 30
0.0
 10
5.98357
 20
-1.91989
 30
0.0
 10
6.15264
 20
-1.91989
 30
0.0
 10
6.15264
 20
-1.91989
 30
0.0
 10
6.32174
 20
-1.91989
 30
0.0
 10
6.41826
 20
-1.89576
 30
0.0
 10
6.41826
 20
-1.89576
 30
0.0
 10
6.41826
 20
-1.89576
 30
0.0
 10
6.41826
 20
-1.89576
 30
0.0
 10
6.20093
 20
-2.13727
 30
0.0
 10
6.20093
 20
-2.13727
 30
0.0
 10
6.20093
 20
-2.13727
 30
0.0
 10
6.05604
 20
-2.23379
 30
0.0
 10
6.24924
 20
-2.42702
 30
0.0
 10
6.34584
 20
-2.42702
 30
0.0
 10
6.34584
 20
-2.42702
 30
0.0
 10
6.44244
 20
-2.42702
 30
0.0
 10
6.70805
 20
-2.47531
 30
0.0
 10
6.70805
 20
-2.47531
 30
0.0
 10
6.70805
 20
-2.47531
 30
0.0
 10
6.70805
 20
-2.47531
 30
0.0
 10
6.53901
 20
-2.66851
 30
0.0
 10
6.53901
 20
-2.66851
 30
0.0
 10
6.53901
 20
-2.66851
 30
0.0
 10
6.36999
 20
-2.76511
 30
0.0
 10
6.53901
 20
-3.05491
 30
0.0
 10
6.63561
 20
-3.05491
 30
0.0
 10
6.63561
 20
-3.05491
 30
0.0
 10
6.73221
 20
-3.05491
 30
0.0
 10
6.92536
 20
-3.05491
 30
0.0
 10
6.92536
 20
-3.05491
 30
0.0
 10
6.92536
 20
-3.05491
 30
0.0
 10
6.92536
 20
-3.05491
 30
0.0
 10
6.75632
 20
-3.24808
 30
0.0
 10
6.75632
 20
-3.24808
 30
0.0
 10
6.75632
 20
-3.24808
 30
0.0
 10
6.75632
 20
-3.24808
 30
0.0
 10
6.80469
 20
-3.56203
 30
0.0
 10
6.92547
 20
-3.51375
 30
0.0
 10
6.92547
 20
-3.51375
 30
0.0
 10
7.04625
 20
-3.46547
 30
0.0
 10
7.16696
 20
-3.41715
 30
0.0
 10
7.16696
 20
-3.41715
 30
0.0
 10
7.16696
 20
-3.41715
 30
0.0
 10
7.16696
 20
-3.41715
 30
0.0
 10
6.99794
 20
-3.7069
 30
0.0
 10
6.99794
 20
-3.7069
 30
0.0
 10
6.99794
 20
-3.7069
 30
0.0
 10
6.85303
 20
-3.8035
 30
0.0
 10
7.14285
 20
-3.9967
 30
0.0
 10
7.14285
 20
-3.9967
 30
0.0
 10
7.14285
 20
-3.9967
 30
0.0
 10
7.14285
 20
-3.9967
 30
0.0
 10
7.31187
 20
-3.92428
 30
0.0
 10
7.31187
 20
-3.92428
 30
0.0
 10
7.31187
 20
-3.92428
 30
0.0
 10
7.31187
 20
-3.92428
 30
0.0
 10
7.23945
 20
-4.1899
 30
0.0
 10
7.23945
 20
-4.1899
 30
0.0
 10
7.23945
 20
-4.1899
 30
0.0
 10
7.23945
 20
-4.1899
 30
0.0
 10
7.4326
 20
-4.21403
 30
0.0
 10
7.4326
 20
-4.21403
 30
0.0
 10
7.4326
 20
-4.21403
 30
0.0
 10
7.4326
 20
-4.21403
 30
0.0
 10
7.4326
 20
-4.40723
 30
0.0
 10
7.4326
 20
-4.40723
 30
0.0
 10
7.4326
 20
-4.40723
 30
0.0
 10
7.4326
 20
-4.40723
 30
0.0
 10
7.4326
 20
-4.60043
 30
0.0
 10
7.4326
 20
-4.60043
 30
0.0
 10
7.4326
 20
-4.60043
 30
0.0
 10
7.4326
 20
-4.60043
 30
0.0
 10
7.65002
 20
-4.60042
 30
0.0
 10
7.65002
 20
-4.60042
 30
0.0
 10
7.65002
 20
-4.60042
 30
0.0
 10
7.74657
 20
-4.60042
 30
0.0
 10
7.67415
 20
-4.91435
 30
0.0
 10
8.32616
 20
-4.81775
 30
0.0
 10
8.32616
 20
-4.81775
 30
0.0
 10
8.9782
 20
-4.72115
 30
0.0
 10
9.21968
 20
-3.05491
 30
0.0
 10
9.34041
 20
-2.83758
 30
0.0
 10
9.34041
 20
-2.83758
 30
0.0
 10
9.41283
 20
-2.78927
 30
0.0
 10
9.46114
 20
-2.52365
 30
0.0
 10
9.46114
 20
-2.52365
 30
0.0
 10
9.46114
 20
-2.52365
 30
0.0
 10
9.46114
 20
-2.52365
 30
0.0
 10
9.05061
 20
-2.13731
 30
0.0
 10
9.05061
 20
-2.13731
 30
0.0
 10
9.05061
 20
-2.13731
 30
0.0
 10
9.05061
 20
-2.13731
 30
0.0
 10
9.00232
 20
-0.95399
 30
0.0
 10
8.85741
 20
-0.83328
 30
0.0
 10
8.85741
 20
-0.83328
 30
0.0
 10
9.38869
 20
-0.9057
 30
0.0
 10
9.89577
 20
-1.53355
 30
0.0
 10
9.96824
 20
-1.60602
 30
0.0
 10
9.96824
 20
-1.60602
 30
0.0
 10
10.04071
 20
-1.67846
 30
0.0
 10
10.13726
 20
-2.08896
 30
0.0
 10
9.82333
 20
-2.47534
 30
0.0
 10
9.82333
 20
-2.47534
 30
0.0
 10
9.87162
 20
-2.64441
 30
0.0
 10
10.06482
 20
-4.93851
 30
0.0
 10
8.44689
 20
-5.85613
 30
0.0
 10
8.44689
 20
-5.85613
 30
0.0
 10
6.82894
 20
-6.77378
 30
0.0
 10
5.59743
 20
-5.15575
 30
0.0
 10
5.52494
 20
-5.08333
 30
0.0
 10
5.52494
 20
-5.08333
 30
0.0
 10
5.62154
 20
-5.59046
 30
0.0
 10
5.28345
 20
-7.73969
 30
0.0
 10
5.13854
 20
-7.78801
 30
0.0
 10
5.13854
 20
-7.78801
 30
0.0
 10
4.99363
 20
-7.83633
 30
0.0
 10
4.75214
 20
-8.51249
 30
0.0
 10
3.81038
 20
-8.34342
 30
0.0
 10
3.81038
 20
-8.34342
 30
0.0
 10
3.73796
 20
-8.39165
 30
0.0
 10
3.30325
 20
-8.43997
 30
0.0
 10
3.30325
 20
-8.43997
 30
0.0
 10
3.30325
 20
-8.43997
 30
0.0
 10
3.27915
 20
-8.29511
 30
0.0
 10
3.27915
 20
-8.22264
 30
0.0
 10
3.27915
 20
-8.22264
 30
0.0
 10
3.27915
 20
-8.22264
 30
0.0
 10
3.15837
 20
-8.19851
 30
0.0
 10
2.77202
 20
-8.27093
 30
0.0
 10
2.77202
 20
-8.27093
 30
0.0
 10
2.77202
 20
-8.27093
 30
0.0
 10
2.77202
 20
-8.1502
 30
0.0
 10
2.91693
 20
-7.88459
 30
0.0
 10
2.91693
 20
-7.88459
 30
0.0
 10
2.91693
 20
-7.88459
 30
0.0
 10
2.72373
 20
-7.90869
 30
0.0
 10
2.33733
 20
-7.78799
 30
0.0
 10
2.33733
 20
-7.78799
 30
0.0
 10
2.33733
 20
-7.78799
 30
0.0
 10
2.33733
 20
-7.71552
 30
0.0
 10
2.57884
 20
-7.52232
 30
0.0
 10
2.67541
 20
-7.52232
 30
0.0
 10
2.67541
 20
-7.52232
 30
0.0
 10
2.69954
 20
-7.42572
 30
0.0
 10
2.86864
 20
-7.28086
 30
0.0
 10
2.86864
 20
-7.28086
 30
0.0
 10
2.86864
 20
-7.28086
 30
0.0
 10
2.86864
 20
-7.28086
 30
0.0
 10
3.9311
 20
-6.96691
 30
0.0
 10
3.9311
 20
-6.96691
 30
0.0
 10
3.9311
 20
-6.96691
 30
0.0
 10
3.97939
 20
-6.87036
 30
0.0
 10
4.2209
 20
-5.95271
 30
0.0
 10
4.2209
 20
-5.95271
 30
0.0
 10
4.2209
 20
-5.95271
 30
0.0
 10
4.17261
 20
-5.88027
 30
0.0
 10
3.71377
 20
-5.66289
 30
0.0
 10
3.6172
 20
-5.63876
 30
0.0
 10
3.6172
 20
-5.63876
 30
0.0
 10
3.54478
 20
-5.92856
 30
0.0
 10
2.91693
 20
-7.03941
 30
0.0
 10
2.4098
 20
-7.13598
 30
0.0
 10
2.4098
 20
-7.13598
 30
0.0
 10
1.9027
 20
-7.23258
 30
0.0
 10
1.41968
 20
-7.25671
 30
0.0
 10
1.41968
 20
-7.25671
 30
0.0
 10
1.41968
 20
-7.25671
 30
0.0
 10
1.32311
 20
-7.28087
 30
0.0
 10
0.88845
 20
-7.305
 30
0.0
 10
0.88845
 20
-7.305
 30
0.0
 10
0.88845
 20
-7.305
 30
0.0
 10
0.93674
 20
-7.16009
 30
0.0
 10
1.12991
 20
-6.89447
 30
0.0
 10
1.12991
 20
-6.89447
 30
0.0
 10
1.12991
 20
-6.89447
 30
0.0
 10
0.93674
 20
-6.89447
 30
0.0
 10
0.40545
 20
-6.91863
 30
0.0
 10
0.40545
 20
-6.91863
 30
0.0
 10
0.40545
 20
-6.91863
 30
0.0
 10
0.40545
 20
-6.84619
 30
0.0
 10
0.52621
 20
-6.60468
 30
0.0
 10
0.52621
 20
-6.60468
 30
0.0
 10
0.52621
 20
-6.60468
 30
0.0
 10
0.35714
 20
-6.60468
 30
0.0
 10
0.26054
 20
-6.60468
 30
0.0
 10
0.26054
 20
-6.60468
 30
0.0
 10
0.26054
 20
-6.60468
 30
0.0
 10
0.26054
 20
-6.53226
 30
0.0
 10
0.57447
 20
-6.12174
 30
0.0
 10
0.67107
 20
-6.12174
 30
0.0
 10
0.67107
 20
-6.12174
 30
0.0
 10
0.76767
 20
-6.12174
 30
0.0
 10
1.44387
 20
-5.83194
 30
0.0
 10
1.85439
 20
-6.02514
 30
0.0
 10
1.85439
 20
-6.02514
 30
0.0
 10
2.2166
 20
-5.90441
 30
0.0
 10
2.24079
 20
-5.54214
 30
0.0
 10
2.45809
 20
-5.54214
 30
0.0
 10
2.45809
 20
-5.54214
 30
0.0
 10
2.5064
 20
-5.51804
 30
0.0
 10
2.45809
 20
-5.17995
 30
0.0
 10
2.45809
 20
-5.17995
 30
0.0
 10
2.45809
 20
-5.17995
 30
0.0
 10
2.45809
 20
-5.17995
 30
0.0
 10
1.46805
 20
-4.79358
 30
0.0
 10
1.29895
 20
-4.79358
 30
0.0
 10
1.29895
 20
-4.79358
 30
0.0
 10
1.12992
 20
-4.79346
 30
0.0
 10
-0.99522
 20
-5.13154
 30
0.0
 10
-0.99522
 20
-5.13154
 30
0.0
  0
ENDSEC
  0
SECTION
  2
OBJECTS
  0
DICTIONARY
  5
C
330
0
100
AcDbDictionary
281
     1
  3
ACAD_GROUP
350
D
  3
ACAD_LAYOUT
350
1A
  3
ACAD_MATERIAL
350
3B
  3
ACAD_MLEADERSTYLE
350
63
  3
ACAD_MLINESTYLE
350
17
  3
ACAD_PLOTSETTINGS
350
19
  3
ACAD_PLOTSTYLENAME
350
E
  3
ACAD_TABLESTYLE
350
62
  3
ACAD_VISUALSTYLE
350
2A
  0
DICTIONARY
  5
D
102
{ACAD_REACTORS
330
C
102
}
330
C
100
AcDbDictionary
281
     1
  0
DICTIONARY
  5
1A
102
{ACAD_REACTORS
330
C
102
}
330
C
100
AcDbDictionary
281
     1
  3
Layout1
350
1E
  3
Layout2
350
26
  3
Model
350
22
  0
DICTIONARY
  5
3B
102
{ACAD_REACTORS
330
C
102
}
330
C
100
AcDbDictionary
281
     1
  3
ByBlock
350
3D
  3
ByLayer
350
3C
  3
Global
350
3E
  0
DICTIONARY
  5
63
102
{ACAD_REACTORS
330
C
102
}
330
C
100
AcDbDictionary
281
     1
  0
DICTIONARY
  5
17
102
{ACAD_REACTORS
330
C
102
}
330
C
100
AcDbDictionary
281
     1
  3
Standard
350
18
  0
DICTIONARY
  5
19
102
{ACAD_REACTORS
330
C
102
}
330
C
100
AcDbDictionary
281
     1
  0
ACDBDICTIONARYWDFLT
  5
E
102
{ACAD_REACTORS
330
C
102
}
330
C
100
AcDbDictionary
281
     1
  3
Normal
350
F
100
AcDbDictionaryWithDefault
340
F
  0
DICTIONARY
  5
62
102
{ACAD_REACTORS
330
C
102
}
330
C
100
AcDbDictionary
281
     1
  0
DICTIONARY
  5
2A
102
{ACAD_REACTORS
330
C
102
}
330
C
100
AcDbDictionary
281
     1
  3
2dWireframe
350
2F
  3
3D Hidden
350
31
  3
3dWireframe
350
30
  3
Basic
350
32
  3
Brighten
350
36
  3
ColorChange
350
3A
  3
Conceptual
350
34
  3
Dim
350
35
  3
Facepattern
350
39
  3
Flat
350
2B
  3
FlatWithEdges
350
2C
  3
Gouraud
350
2D
  3
GouraudWithEdges
350
2E
  3
Linepattern
350
38
  3
Realistic
350
33
  3
Thicken
350
37
  0
LAYOUT
  5
1E
102
{ACAD_REACTORS
330
1A
102
}
330
1A
100
AcDbPlotSettings
  1

  2
none_device
  4

  6

 40
0.0
 41
0.0
 42
0.0
 43
0.0
 44
0.0
 45
0.0
 46
0.0
 47
0.0
 48
0.0
 49
0.0
140
0.0
141
0.0
142
1.0
143
1.0
 70
   688
 72
     0
 73
     0
 74
     5
  7

 75
    16
 76
     0
 77
     2
 78
   300
147
1.0
148
0.0
149
0.0
100
AcDbLayout
  1
Layout1
 70
     1
 71
     1
 10
0.0
 20
0.0
 11
12.0
 21
9.0
 12
0.0
 22
0.0
 32
0.0
 14
1.000000000000000E+20
 24
1.000000000000000E+20
 34
1.000000000000000E+20
 15
-1.000000000000000E+20
 25
-1.000000000000000E+20
 35
-1.000000000000000E+20
146
0.0
 13
0.0
 23
0.0
 33
0.0
 16
1.0
 26
0.0
 36
0.0
 17
0.0
 27
1.0
 37
0.0
 76
     0
330
1B
  0
LAYOUT
  5
26
102
{ACAD_REACTORS
330
1A
102
}
330
1A
100
AcDbPlotSettings
  1

  2
none_device
  4

  6

 40
0.0
 41
0.0
 42
0.0
 43
0.0
 44
0.0
 45
0.0
 46
0.0
 47
0.0
 48
0.0
 49
0.0
140
0.0
141
0.0
142
1.0
143
1.0
 70
   688
 72
     0
 73
     0
 74
     5
  7

 75
    16
 76
     0
 77
     2
 78
   300
147
1.0
148
0.0
149
0.0
100
AcDbLayout
  1
Layout2
 70
     1
 71
     2
 10
0.0
 20
0.0
 11
0.0
 21
0.0
 12
0.0
 22
0.0
 32
0.0
 14
0.0
 24
0.0
 34
0.0
 15
0.0
 25
0.0
 35
0.0
146
0.0
 13
0.0
 23
0.0
 33
0.0
 16
1.0
 26
0.0
 36
0.0
 17
0.0
 27
1.0
 37
0.0
 76
     0
330
23
  0
LAYOUT
  5
22
102
{ACAD_REACTORS
330
1A
102
}
330
1A
100
AcDbPlotSettings
  1

  2
none_device
  4

  6

 40
0.0
 41
0.0
 42
0.0
 43
0.0
 44
0.0
 45
0.0
 46
0.0
 47
0.0
 48
0.0
 49
0.0
140
0.0
141
0.0
142
1.0
143
1.0
 70
  1712
 72
     0
 73
     0
 74
     0
  7

 75
     0
 76
     0
 77
     2
 78
   300
147
1.0
148
0.0
149
0.0
100
AcDbLayout
  1
Model
 70
     1
 71
     0
 10
0.0
 20
0.0
 11
12.0
 21
9.0
 12
0.0
 22
0.0
 32
0.0
 14
-10.04125
 24
-9.62318
 34
0.0
 15
10.04127
 25
9.62319
 35
0.0
146
0.0
 13
0.0
 23
0.0
 33
0.0
 16
1.0
 26
0.0
 36
0.0
 17
0.0
 27
1.0
 37
0.0
 76
     0
330
1F
331
29
  0
MATERIAL
  5
3D
102
{ACAD_REACTORS
330
3B
102
}
330
3B
100
AcDbMaterial
  1
ByBlock
 72
     1
 94
      127
  0
MATERIAL
  5
3C
102
{ACAD_REACTORS
330
3B
102
}
330
3B
100
AcDbMaterial
  1
ByLayer
 72
     1
 94
      127
  0
MATERIAL
  5
3E
102
{ACAD_REACTORS
330
3B
102
}
330
3B
100
AcDbMaterial
  1
Global
 72
     1
 94
      127
  0
MLINESTYLE
  5
18
102
{ACAD_REACTORS
330
17
102
}
330
17
100
AcDbMlineStyle
  2
Standard
 70
     0
  3

 62
   256
 51
90.0
 52
90.0
 71
     2
 49
0.5
 62
   256
  6
BYLAYER
 49
-0.5
 62
   256
  6
BYLAYER
  0
ACDBPLACEHOLDER
  5
F
102
{ACAD_REACTORS
330
E
102
}
330
E
  0
VISUALSTYLE
  5
2F
102
{ACAD_REACTORS
330
2A
102
}
102
{ACAD_XDICTIONARY
360
4A
102
}
330
2A
100
AcDbVisualStyle
  2
2dWireframe
 70
     4
 71
     0
 72
     2
 73
     0
 90
        0
 40
-0.6
 41
-30.0
 62
     5
 63
     7
421
 16777215
 74
     1
 91
        4
 64
     7
 65
   257
 75
     1
175
     1
 42
1.0
 92
        0
 66
   257
 43
1.0
 76
     1
 77
     6
 78
     2
 67
     7
 79
     5
170
     0
171
     0
290
     0
174
     0
 93
        1
 44
0.0
173
     0
291
     0
 45
0.0
  0
VISUALSTYLE
  5
31
102
{ACAD_REACTORS
330
2A
102
}
102
{ACAD_XDICTIONARY
360
4E
102
}
330
2A
100
AcDbVisualStyle
  2
3D Hidden
 70
     6
 71
     1
 72
     2
 73
     2
 90
        0
 40
-0.6
 41
-30.0
 62
     5
 63
     7
421
 16777215
 74
     2
 91
        2
 64
     7
 65
   257
 75
     2
175
     1
 42
40.0
 92
        0
 66
   257
 43
1.0
 76
     1
 77
     6
 78
     2
 67
     7
 79
     3
170
     0
171
     0
290
     0
174
     0
 93
        1
 44
0.0
173
     0
291
     0
 45
0.0
  0
VISUALSTYLE
  5
30
102
{ACAD_REACTORS
330
2A
102
}
102
{ACAD_XDICTIONARY
360
4C
102
}
330
2A
100
AcDbVisualStyle
  2
3dWireframe
 70
     5
 71
     0
 72
     2
 73
     0
 90
        0
 40
-0.6
 41
-30.0
 62
     5
 63
     7
421
 16777215
 74
     1
 91
        4
 64
     7
 65
   257
 75
     1
175
     1
 42
1.0
 92
        0
 66
   257
 43
1.0
 76
     1
 77
     6
 78
     2
 67
     7
 79
     5
170
     0
171
     0
290
     0
174
     0
 93
        1
 44
0.0
173
     0
291
     0
 45
0.0
  0
VISUALSTYLE
  5
32
102
{ACAD_REACTORS
330
2A
102
}
102
{ACAD_XDICTIONARY
360
50
102
}
330
2A
100
AcDbVisualStyle
  2
Basic
 70
     7
 71
     1
 72
     0
 73
     1
 90
        0
 40
-0.6
 41
-30.0
 62
     5
 63
     7
421
 16777215
 74
     0
 91
        4
 64
     7
 65
   257
 75
     1
175
     1
 42
1.0
 92
        8
 66
     7
 43
1.0
 76
     1
 77
     6
 78
     2
 67
     7
 79
     5
170
     0
171
     0
290
     0
174
     0
 93
        1
 44
0.0
173
     0
291
     1
 45
0.0
  0
VISUALSTYLE
  5
36
102
{ACAD_REACTORS
330
2A
102
}
102
{ACAD_XDICTIONARY
360
58
102
}
330
2A
100
AcDbVisualStyle
  2
Brighten
 70
    12
 71
     2
 72
     2
 73
     0
 90
        0
 40
-0.6
 41
-30.0
 62
     5
 63
     7
421
 16777215
 74
     1
 91
        4
 64
     7
 65
   257
 75
     1
175
     1
 42
1.0
 92
        8
 66
     7
 43
1.0
 76
     1
 77
     6
 78
     2
 67
     7
 79
     5
170
     0
171
     0
290
     0
174
     0
 93
        1
 44
50.0
173
     0
291
     1
 45
0.0
  0
VISUALSTYLE
  5
3A
102
{ACAD_REACTORS
330
2A
102
}
102
{ACAD_XDICTIONARY
360
60
102
}
330
2A
100
AcDbVisualStyle
  2
ColorChange
 70
    16
 71
     2
 72
     2
 73
     3
 90
        0
 40
-0.6
 41
-30.0
 62
     5
 63
     8
421
  8421504
 74
     1
 91
        4
 64
     7
 65
   257
 75
     1
175
     1
 42
1.0
 92
        8
 66
     8
424
  8421504
 43
1.0
 76
     1
 77
     6
 78
     2
 67
     7
 79
     5
170
     0
171
     0
290
     0
174
     0
 93
        1
 44
0.0
173
     0
291
     1
 45
0.0
  0
VISUALSTYLE
  5
34
102
{ACAD_REACTORS
330
2A
102
}
102
{ACAD_XDICTIONARY
360
54
102
}
330
2A
100
AcDbVisualStyle
  2
Conceptual
 70
     9
 71
     3
 72
     2
 73
     0
 90
        0
 40
-0.6
 41
-30.0
 62
     5
 63
     7
421
 16777215
 74
     2
 91
        2
 64
     7
 65
   257
 75
     1
175
     1
 42
40.0
 92
        8
 66
     7
 43
1.0
 76
     1
 77
     6
 78
     2
 67
     7
 79
     3
170
     0
171
     0
290
     0
174
     0
 93
        1
 44
0.0
173
     0
291
     0
 45
0.0
  0
VISUALSTYLE
  5
35
102
{ACAD_REACTORS
330
2A
102
}
102
{ACAD_XDICTIONARY
360
56
102
}
330
2A
100
AcDbVisualStyle
  2
Dim
 70
    11
 71
     2
 72
     2
 73
     0
 90
        0
 40
-0.6
 41
-30.0
 62
     5
 63
     7
421
 16777215
 74
     1
 91
        4
 64
     7
 65
   257
 75
     1
175
     1
 42
1.0
 92
        8
 66
     7
 43
1.0
 76
     1
 77
     6
 78
     2
 67
     7
 79
     5
170
     0
171
     0
290
     0
174
     0
 93
        1
 44
-50.0
173
     0
291
     1
 45
0.0
  0
VISUALSTYLE
  5
39
102
{ACAD_REACTORS
330
2A
102
}
102
{ACAD_XDICTIONARY
360
5E
102
}
330
2A
100
AcDbVisualStyle
  2
Facepattern
 70
    15
 71
     2
 72
     2
 73
     0
 90
        0
 40
-0.6
 41
-30.0
 62
     5
 63
     7
421
 16777215
 74
     1
 91
        4
 64
     7
 65
   257
 75
     1
175
     1
 42
1.0
 92
        8
 66
     7
 43
1.0
 76
     1
 77
     6
 78
     2
 67
     7
 79
     5
170
     0
171
     0
290
     0
174
     0
 93
        1
 44
0.0
173
     0
291
     1
 45
0.0
  0
VISUALSTYLE
  5
2B
102
{ACAD_REACTORS
330
2A
102
}
102
{ACAD_XDICTIONARY
360
42
102
}
330
2A
100
AcDbVisualStyle
  2
Flat
 70
     0
 71
     2
 72
     1
 73
     1
 90
        2
 40
-0.6
 41
30.0
 62
     5
 63
     7
421
 16777215
 74
     0
 91
        4
 64
     7
 65
   257
 75
     1
175
     1
 42
1.0
 92
        8
 66
     7
 43
1.0
 76
     1
 77
     6
 78
     2
 67
     7
 79
     5
170
     0
171
     0
290
     0
174
     0
 93
       13
 44
0.0
173
     0
291
     1
 45
0.0
  0
VISUALSTYLE
  5
2C
102
{ACAD_REACTORS
330
2A
102
}
102
{ACAD_XDICTIONARY
360
44
102
}
330
2A
100
AcDbVisualStyle
  2
FlatWithEdges
 70
     1
 71
     2
 72
     1
 73
     1
 90
        2
 40
-0.6
 41
30.0
 62
     5
 63
     7
421
 16777215
 74
     1
 91
        4
 64
     7
 65
   257
 75
     1
175
     1
 42
1.0
 92
        0
 66
   257
 43
1.0
 76
     1
 77
     6
 78
     2
 67
     7
 79
     5
170
     0
171
     0
290
     0
174
     0
 93
       13
 44
0.0
173
     0
291
     1
 45
0.0
  0
VISUALSTYLE
  5
2D
102
{ACAD_REACTORS
330
2A
102
}
102
{ACAD_XDICTIONARY
360
46
102
}
330
2A
100
AcDbVisualStyle
  2
Gouraud
 70
     2
 71
     2
 72
     2
 73
     1
 90
        2
 40
-0.6
 41
30.0
 62
     5
 63
     7
421
 16777215
 74
     0
 91
        4
 64
     7
 65
   257
 75
     1
175
     1
 42
1.0
 92
        0
 66
     7
 43
1.0
 76
     1
 77
     6
 78
     2
 67
     7
 79
     5
170
     0
171
     0
290
     0
174
     0
 93
       13
 44
0.0
173
     0
291
     1
 45
0.0
  0
VISUALSTYLE
  5
2E
102
{ACAD_REACTORS
330
2A
102
}
102
{ACAD_XDICTIONARY
360
48
102
}
330
2A
100
AcDbVisualStyle
  2
GouraudWithEdges
 70
     3
 71
     2
 72
     2
 73
     1
 90
        2
 40
-0.6
 41
30.0
 62
     5
 63
     7
421
 16777215
 74
     1
 91
        4
 64
     7
 65
   257
 75
     1
175
     1
 42
1.0
 92
        0
 66
   257
 43
1.0
 76
     1
 77
     6
 78
     2
 67
     7
 79
     5
170
     0
171
     0
290
     0
174
     0
 93
       13
 44
0.0
173
     0
291
     1
 45
0.0
  0
VISUALSTYLE
  5
38
102
{ACAD_REACTORS
330
2A
102
}
102
{ACAD_XDICTIONARY
360
5C
102
}
330
2A
100
AcDbVisualStyle
  2
Linepattern
 70
    14
 71
     2
 72
     2
 73
     0
 90
        0
 40
-0.6
 41
-30.0
 62
     5
 63
     7
421
 16777215
 74
     1
 91
        4
 64
     7
 65
   257
 75
     7
175
     7
 42
1.0
 92
        8
 66
     7
 43
1.0
 76
     1
 77
     6
 78
     2
 67
     7
 79
     5
170
     0
171
     0
290
     0
174
     0
 93
        1
 44
0.0
173
     0
291
     1
 45
0.0
  0
VISUALSTYLE
  5
33
102
{ACAD_REACTORS
330
2A
102
}
102
{ACAD_XDICTIONARY
360
52
102
}
330
2A
100
AcDbVisualStyle
  2
Realistic
 70
     8
 71
     2
 72
     2
 73
     0
 90
        0
 40
-0.6
 41
-30.0
 62
     5
 63
     7
421
 16777215
 74
     1
 91
        0
 64
     7
 65
   257
 75
     1
175
     1
 42
1.0
 92
        8
 66
     8
424
  7895160
 43
1.0
 76
     1
 77
     6
 78
     2
 67
     7
 79
     5
170
     0
171
     0
290
     0
174
     0
 93
       13
 44
0.0
173
     0
291
     0
 45
0.0
  0
VISUALSTYLE
  5
37
102
{ACAD_REACTORS
330
2A
102
}
102
{ACAD_XDICTIONARY
360
5A
102
}
330
2A
100
AcDbVisualStyle
  2
Thicken
 70
    13
 71
     2
 72
     2
 73
     0
 90
        0
 40
-0.6
 41
-30.0
 62
     5
 63
     7
421
 16777215
 74
     1
 91
        4
 64
     7
 65
   257
 75
     1
175
     1
 42
1.0
 92
       12
 66
     7
 43
1.0
 76
     1
 77
     6
 78
     2
 67
     7
 79
     5
170
     0
171
     0
290
     0
174
     0
 93
        1
 44
0.0
173
     0
291
     1
 45
0.0
  0
DICTIONARY
  5
4A
330
2F
100
AcDbDictionary
280
     1
281
     1
  3
ACAD_XREC_ROUNDTRIP
360
4B
  0
DICTIONARY
  5
4E
330
31
100
AcDbDictionary
280
     1
281
     1
  3
ACAD_XREC_ROUNDTRIP
360
4F
  0
DICTIONARY
  5
4C
330
30
100
AcDbDictionary
280
     1
281
     1
  3
ACAD_XREC_ROUNDTRIP
360
4D
  0
DICTIONARY
  5
50
330
32
100
AcDbDictionary
280
     1
281
     1
  3
ACAD_XREC_ROUNDTRIP
360
51
  0
DICTIONARY
  5
58
330
36
100
AcDbDictionary
280
     1
281
     1
  3
ACAD_XREC_ROUNDTRIP
360
59
  0
DICTIONARY
  5
60
330
3A
100
AcDbDictionary
280
     1
281
     1
  3
ACAD_XREC_ROUNDTRIP
360
61
  0
DICTIONARY
  5
54
330
34
100
AcDbDictionary
280
     1
281
     1
  3
ACAD_XREC_ROUNDTRIP
360
55
  0
DICTIONARY
  5
56
330
35
100
AcDbDictionary
280
     1
281
     1
  3
ACAD_XREC_ROUNDTRIP
360
57
  0
DICTIONARY
  5
5E
330
39
100
AcDbDictionary
280
     1
281
     1
  3
ACAD_XREC_ROUNDTRIP
360
5F
  0
DICTIONARY
  5
42
330
2B
100
AcDbDictionary
280
     1
281
     1
  3
ACAD_XREC_ROUNDTRIP
360
43
  0
DICTIONARY
  5
44
330
2C
100
AcDbDictionary
280
     1
281
     1
  3
ACAD_XREC_ROUNDTRIP
360
45
  0
DICTIONARY
  5
46
330
2D
100
AcDbDictionary
280
     1
281
     1
  3
ACAD_XREC_ROUNDTRIP
360
47
  0
DICTIONARY
  5
48
330
2E
100
AcDbDictionary
280
     1
281
     1
  3
ACAD_XREC_ROUNDTRIP
360
49
  0
DICTIONARY
  5
5C
330
38
100
AcDbDictionary
280
     1
281
     1
  3
ACAD_XREC_ROUNDTRIP
360
5D
  0
DICTIONARY
  5
52
330
33
100
AcDbDictionary
280
     1
281
     1
  3
ACAD_XREC_ROUNDTRIP
360
53
  0
DICTIONARY
  5
5A
330
37
100
AcDbDictionary
280
     1
281
     1
  3
ACAD_XREC_ROUNDTRIP
360
5B
  0
XRECORD
  5
4B
102
{ACAD_REACTORS
330
4A
102
}
330
4A
100
AcDbXrecord
280
     1
102
RTVSPropertyOp0
 70
     1
102
RTVSPropertyOp1
 70
     1
102
RTVSPropertyOp2
 70
     1
102
RTVSPropertyOp3
 70
     1
102
RTVSPropertyOp4
 70
     1
102
RTVSPropertyOp5
 70
     1
102
RTVSPropertyOp6
 70
     1
102
RTVSPropertyOp7
 70
     1
102
RTVSPropertyOp8
 70
     1
102
RTVSPropertyOp9
 70
     1
102
RTVSPropertyOp10
 70
     1
102
RTVSPropertyOp11
 70
     1
102
RTVSPropertyOp12
 70
     1
102
RTVSPropertyOp13
 70
     1
102
RTVSPropertyOp14
 70
     1
102
RTVSPropertyOp15
 70
     1
102
RTVSPropertyOp16
 70
     1
102
RTVSPropertyOp17
 70
     1
102
RTVSPropertyOp18
 70
     1
102
RTVSPropertyOp19
 70
     1
102
RTVSPropertyOp20
 70
     1
102
RTVSPropertyOp21
 70
     1
102
RTVSPropertyOp22
 70
     1
102
RTVSPropertyOp23
 70
     1
102
RTVSPropertyOp24
 70
     1
102
RTVSPropertyOp25
 70
     1
102
RTVSPropertyOp26
 70
     1
102
RTVSPropertyOp27
 70
     1
102
RTVSPropertyOp28
 70
     1
102
RTVSPropertyOp29
 70
     1
102
RTVSPropertyOp30
 70
     1
102
RTVSPropertyOp31
 70
     1
102
RTVSPropertyOp32
 70
     1
  0
XRECORD
  5
4F
102
{ACAD_REACTORS
330
4E
102
}
330
4E
100
AcDbXrecord
280
     1
102
RTVSPropertyOp0
 70
     1
102
RTVSPropertyOp1
 70
     1
102
RTVSPropertyOp2
 70
     1
102
RTVSPropertyOp3
 70
     1
102
RTVSPropertyOp4
 70
     1
102
RTVSPropertyOp5
 70
     1
102
RTVSPropertyOp6
 70
     1
102
RTVSPropertyOp7
 70
     1
102
RTVSPropertyOp8
 70
     1
102
RTVSPropertyOp9
 70
     1
102
RTVSPropertyOp10
 70
     1
102
RTVSPropertyOp11
 70
     1
102
RTVSPropertyOp12
 70
     1
102
RTVSPropertyOp13
 70
     1
102
RTVSPropertyOp14
 70
     1
102
RTVSPropertyOp15
 70
     1
102
RTVSPropertyOp16
 70
     1
102
RTVSPropertyOp17
 70
     1
102
RTVSPropertyOp18
 70
     1
102
RTVSPropertyOp19
 70
     1
102
RTVSPropertyOp20
 70
     1
102
RTVSPropertyOp21
 70
     1
102
RTVSPropertyOp22
 70
     1
102
RTVSPropertyOp23
 70
     1
102
RTVSPropertyOp24
 70
     1
102
RTVSPropertyOp25
 70
     1
102
RTVSPropertyOp26
 70
     1
102
RTVSPropertyOp27
 70
     1
102
RTVSPropertyOp28
 70
     1
102
RTVSPropertyOp29
 70
     1
102
RTVSPropertyOp30
 70
     1
102
RTVSPropertyOp31
 70
     1
102
RTVSPropertyOp32
 70
     1
  0
XRECORD
  5
4D
102
{ACAD_REACTORS
330
4C
102
}
330
4C
100
AcDbXrecord
280
     1
102
RTVSPropertyOp0
 70
     1
102
RTVSPropertyOp1
 70
     1
102
RTVSPropertyOp2
 70
     1
102
RTVSPropertyOp3
 70
     1
102
RTVSPropertyOp4
 70
     1
102
RTVSPropertyOp5
 70
     1
102
RTVSPropertyOp6
 70
     1
102
RTVSPropertyOp7
 70
     1
102
RTVSPropertyOp8
 70
     1
102
RTVSPropertyOp9
 70
     1
102
RTVSPropertyOp10
 70
     1
102
RTVSPropertyOp11
 70
     1
102
RTVSPropertyOp12
 70
     1
102
RTVSPropertyOp13
 70
     1
102
RTVSPropertyOp14
 70
     1
102
RTVSPropertyOp15
 70
     1
102
RTVSPropertyOp16
 70
     1
102
RTVSPropertyOp17
 70
     1
102
RTVSPropertyOp18
 70
     1
102
RTVSPropertyOp19
 70
     1
102
RTVSPropertyOp20
 70
     1
102
RTVSPropertyOp21
 70
     1
102
RTVSPropertyOp22
 70
     1
102
RTVSPropertyOp23
 70
     1
102
RTVSPropertyOp24
 70
     1
102
RTVSPropertyOp25
 70
     1
102
RTVSPropertyOp26
 70
     1
102
RTVSPropertyOp27
 70
     1
102
RTVSPropertyOp28
 70
     1
102
RTVSPropertyOp29
 70
     1
102
RTVSPropertyOp30
 70
     1
102
RTVSPropertyOp31
 70
     1
102
RTVSPropertyOp32
 70
     1
  0
XRECORD
  5
51
102
{ACAD_REACTORS
330
50
102
}
330
50
100
AcDbXrecord
280
     1
102
RTVSPropertyOp0
 70
     1
102
RTVSPropertyOp1
 70
     1
102
RTVSPropertyOp2
 70
     1
102
RTVSPropertyOp3
 70
     1
102
RTVSPropertyOp4
 70
     1
102
RTVSPropertyOp5
 70
     1
102
RTVSPropertyOp6
 70
     1
102
RTVSPropertyOp7
 70
     1
102
RTVSPropertyOp8
 70
     1
102
RTVSPropertyOp9
 70
     1
102
RTVSPropertyOp10
 70
     1
102
RTVSPropertyOp11
 70
     1
102
RTVSPropertyOp12
 70
     1
102
RTVSPropertyOp13
 70
     1
102
RTVSPropertyOp14
 70
     1
102
RTVSPropertyOp15
 70
     1
102
RTVSPropertyOp16
 70
     1
102
RTVSPropertyOp17
 70
     1
102
RTVSPropertyOp18
 70
     1
102
RTVSPropertyOp19
 70
     1
102
RTVSPropertyOp20
 70
     1
102
RTVSPropertyOp21
 70
     1
102
RTVSPropertyOp22
 70
     1
102
RTVSPropertyOp23
 70
     1
102
RTVSPropertyOp24
 70
     1
102
RTVSPropertyOp25
 70
     1
102
RTVSPropertyOp26
 70
     1
102
RTVSPropertyOp27
 70
     1
102
RTVSPropertyOp28
 70
     1
102
RTVSPropertyOp29
 70
     1
102
RTVSPropertyOp30
 70
     1
102
RTVSPropertyOp31
 70
     1
102
RTVSPropertyOp32
 70
     1
  0
XRECORD
  5
59
102
{ACAD_REACTORS
330
58
102
}
330
58
100
AcDbXrecord
280
     1
102
RTVSPropertyOp0
 70
     1
102
RTVSPropertyOp1
 70
     1
102
RTVSPropertyOp2
 70
     1
102
RTVSPropertyOp3
 70
     1
102
RTVSPropertyOp4
 70
     1
102
RTVSPropertyOp5
 70
     1
102
RTVSPropertyOp6
 70
     1
102
RTVSPropertyOp7
 70
     1
102
RTVSPropertyOp8
 70
     1
102
RTVSPropertyOp9
 70
     1
102
RTVSPropertyOp10
 70
     1
102
RTVSPropertyOp11
 70
     1
102
RTVSPropertyOp12
 70
     1
102
RTVSPropertyOp13
 70
     1
102
RTVSPropertyOp14
 70
     1
102
RTVSPropertyOp15
 70
     1
102
RTVSPropertyOp16
 70
     1
102
RTVSPropertyOp17
 70
     1
102
RTVSPropertyOp18
 70
     1
102
RTVSPropertyOp19
 70
     1
102
RTVSPropertyOp20
 70
     1
102
RTVSPropertyOp21
 70
     1
102
RTVSPropertyOp22
 70
     1
102
RTVSPropertyOp23
 70
     1
102
RTVSPropertyOp24
 70
     1
102
RTVSPropertyOp25
 70
     1
102
RTVSPropertyOp26
 70
     1
102
RTVSPropertyOp27
 70
     1
102
RTVSPropertyOp28
 70
     1
102
RTVSPropertyOp29
 70
     1
102
RTVSPropertyOp30
 70
     1
102
RTVSPropertyOp31
 70
     1
102
RTVSPropertyOp32
 70
     1
  0
XRECORD
  5
61
102
{ACAD_REACTORS
330
60
102
}
330
60
100
AcDbXrecord
280
     1
102
RTVSPropertyOp0
 70
     1
102
RTVSPropertyOp1
 70
     1
102
RTVSPropertyOp2
 70
     1
102
RTVSPropertyOp3
 70
     1
102
RTVSPropertyOp4
 70
     1
102
RTVSPropertyOp5
 70
     1
102
RTVSPropertyOp6
 70
     1
102
RTVSPropertyOp7
 70
     1
102
RTVSPropertyOp8
 70
     1
102
RTVSPropertyOp9
 70
     1
102
RTVSPropertyOp10
 70
     1
102
RTVSPropertyOp11
 70
     1
102
RTVSPropertyOp12
 70
     1
102
RTVSPropertyOp13
 70
     1
102
RTVSPropertyOp14
 70
     1
102
RTVSPropertyOp15
 70
     1
102
RTVSPropertyOp16
 70
     1
102
RTVSPropertyOp17
 70
     1
102
RTVSPropertyOp18
 70
     1
102
RTVSPropertyOp19
 70
     1
102
RTVSPropertyOp20
 70
     1
102
RTVSPropertyOp21
 70
     1
102
RTVSPropertyOp22
 70
     1
102
RTVSPropertyOp23
 70
     1
102
RTVSPropertyOp24
 70
     1
102
RTVSPropertyOp25
 70
     1
102
RTVSPropertyOp26
 70
     1
102
RTVSPropertyOp27
 70
     1
102
RTVSPropertyOp28
 70
     1
102
RTVSPropertyOp29
 70
     1
102
RTVSPropertyOp30
 70
     1
102
RTVSPropertyOp31
 70
     1
102
RTVSPropertyOp32
 70
     1
  0
XRECORD
  5
55
102
{ACAD_REACTORS
330
54
102
}
330
54
100
AcDbXrecord
280
     1
102
RTVSPropertyOp0
 70
     1
102
RTVSPropertyOp1
 70
     1
102
RTVSPropertyOp2
 70
     1
102
RTVSPropertyOp3
 70
     1
102
RTVSPropertyOp4
 70
     1
102
RTVSPropertyOp5
 70
     1
102
RTVSPropertyOp6
 70
     1
102
RTVSPropertyOp7
 70
     1
102
RTVSPropertyOp8
 70
     1
102
RTVSPropertyOp9
 70
     1
102
RTVSPropertyOp10
 70
     1
102
RTVSPropertyOp11
 70
     1
102
RTVSPropertyOp12
 70
     1
102
RTVSPropertyOp13
 70
     1
102
RTVSPropertyOp14
 70
     1
102
RTVSPropertyOp15
 70
     1
102
RTVSPropertyOp16
 70
     1
102
RTVSPropertyOp17
 70
     1
102
RTVSPropertyOp18
 70
     1
102
RTVSPropertyOp19
 70
     1
102
RTVSPropertyOp20
 70
     1
102
RTVSPropertyOp21
 70
     1
102
RTVSPropertyOp22
 70
     1
102
RTVSPropertyOp23
 70
     1
102
RTVSPropertyOp24
 70
     1
102
RTVSPropertyOp25
 70
     1
102
RTVSPropertyOp26
 70
     1
102
RTVSPropertyOp27
 70
     1
102
RTVSPropertyOp28
 70
     1
102
RTVSPropertyOp29
 70
     1
102
RTVSPropertyOp30
 70
     1
102
RTVSPropertyOp31
 70
     1
102
RTVSPropertyOp32
 70
     1
  0
XRECORD
  5
57
102
{ACAD_REACTORS
330
56
102
}
330
56
100
AcDbXrecord
280
     1
102
RTVSPropertyOp0
 70
     1
102
RTVSPropertyOp1
 70
     1
102
RTVSPropertyOp2
 70
     1
102
RTVSPropertyOp3
 70
     1
102
RTVSPropertyOp4
 70
     1
102
RTVSPropertyOp5
 70
     1
102
RTVSPropertyOp6
 70
     1
102
RTVSPropertyOp7
 70
     1
102
RTVSPropertyOp8
 70
     1
102
RTVSPropertyOp9
 70
     1
102
RTVSPropertyOp10
 70
     1
102
RTVSPropertyOp11
 70
     1
102
RTVSPropertyOp12
 70
     1
102
RTVSPropertyOp13
 70
     1
102
RTVSPropertyOp14
 70
     1
102
RTVSPropertyOp15
 70
     1
102
RTVSPropertyOp16
 70
     1
102
RTVSPropertyOp17
 70
     1
102
RTVSPropertyOp18
 70
     1
102
RTVSPropertyOp19
 70
     1
102
RTVSPropertyOp20
 70
     1
102
RTVSPropertyOp21
 70
     1
102
RTVSPropertyOp22
 70
     1
102
RTVSPropertyOp23
 70
     1
102
RTVSPropertyOp24
 70
     1
102
RTVSPropertyOp25
 70
     1
102
RTVSPropertyOp26
 70
     1
102
RTVSPropertyOp27
 70
     1
102
RTVSPropertyOp28
 70
     1
102
RTVSPropertyOp29
 70
     1
102
RTVSPropertyOp30
 70
     1
102
RTVSPropertyOp31
 70
     1
102
RTVSPropertyOp32
 70
     1
  0
XRECORD
  5
5F
102
{ACAD_REACTORS
330
5E
102
}
330
5E
100
AcDbXrecord
280
     1
102
RTVSPropertyOp0
 70
     1
102
RTVSPropertyOp1
 70
     1
102
RTVSPropertyOp2
 70
     1
102
RTVSPropertyOp3
 70
     1
102
RTVSPropertyOp4
 70
     1
102
RTVSPropertyOp5
 70
     1
102
RTVSPropertyOp6
 70
     1
102
RTVSPropertyOp7
 70
     1
102
RTVSPropertyOp8
 70
     1
102
RTVSPropertyOp9
 70
     1
102
RTVSPropertyOp10
 70
     1
102
RTVSPropertyOp11
 70
     1
102
RTVSPropertyOp12
 70
     1
102
RTVSPropertyOp13
 70
     1
102
RTVSPropertyOp14
 70
     1
102
RTVSPropertyOp15
 70
     1
102
RTVSPropertyOp16
 70
     1
102
RTVSPropertyOp17
 70
     1
102
RTVSPropertyOp18
 70
     1
102
RTVSPropertyOp19
 70
     1
102
RTVSPropertyOp20
 70
     1
102
RTVSPropertyOp21
 70
     1
102
RTVSPropertyOp22
 70
     1
102
RTVSPropertyOp23
 70
     1
102
RTVSPropertyOp24
 70
     1
102
RTVSPropertyOp25
 70
     1
102
RTVSPropertyOp26
 70
     1
102
RTVSPropertyOp27
 70
     1
102
RTVSPropertyOp28
 70
     1
102
RTVSPropertyOp29
 70
     1
102
RTVSPropertyOp30
 70
     1
102
RTVSPropertyOp31
 70
     1
102
RTVSPropertyOp32
 70
     1
  0
XRECORD
  5
43
102
{ACAD_REACTORS
330
42
102
}
330
42
100
AcDbXrecord
280
     1
102
RTVSPropertyOp0
 70
     1
102
RTVSPropertyOp1
 70
     1
102
RTVSPropertyOp2
 70
     1
102
RTVSPropertyOp3
 70
     1
102
RTVSPropertyOp4
 70
     1
102
RTVSPropertyOp5
 70
     1
102
RTVSPropertyOp6
 70
     1
102
RTVSPropertyOp7
 70
     1
102
RTVSPropertyOp8
 70
     1
102
RTVSPropertyOp9
 70
     1
102
RTVSPropertyOp10
 70
     1
102
RTVSPropertyOp11
 70
     1
102
RTVSPropertyOp12
 70
     1
102
RTVSPropertyOp13
 70
     1
102
RTVSPropertyOp14
 70
     1
102
RTVSPropertyOp15
 70
     1
102
RTVSPropertyOp16
 70
     1
102
RTVSPropertyOp17
 70
     1
102
RTVSPropertyOp18
 70
     1
102
RTVSPropertyOp19
 70
     1
102
RTVSPropertyOp20
 70
     1
102
RTVSPropertyOp21
 70
     1
102
RTVSPropertyOp22
 70
     1
102
RTVSPropertyOp23
 70
     1
102
RTVSPropertyOp24
 70
     1
102
RTVSPropertyOp25
 70
     1
102
RTVSPropertyOp26
 70
     1
102
RTVSPropertyOp27
 70
     1
102
RTVSPropertyOp28
 70
     1
102
RTVSPropertyOp29
 70
     1
102
RTVSPropertyOp30
 70
     1
102
RTVSPropertyOp31
 70
     1
102
RTVSPropertyOp32
 70
     1
  0
XRECORD
  5
45
102
{ACAD_REACTORS
330
44
102
}
330
44
100
AcDbXrecord
280
     1
102
RTVSPropertyOp0
 70
     1
102
RTVSPropertyOp1
 70
     1
102
RTVSPropertyOp2
 70
     1
102
RTVSPropertyOp3
 70
     1
102
RTVSPropertyOp4
 70
     1
102
RTVSPropertyOp5
 70
     1
102
RTVSPropertyOp6
 70
     1
102
RTVSPropertyOp7
 70
     1
102
RTVSPropertyOp8
 70
     1
102
RTVSPropertyOp9
 70
     1
102
RTVSPropertyOp10
 70
     1
102
RTVSPropertyOp11
 70
     1
102
RTVSPropertyOp12
 70
     1
102
RTVSPropertyOp13
 70
     1
102
RTVSPropertyOp14
 70
     1
102
RTVSPropertyOp15
 70
     1
102
RTVSPropertyOp16
 70
     1
102
RTVSPropertyOp17
 70
     1
102
RTVSPropertyOp18
 70
     1
102
RTVSPropertyOp19
 70
     1
102
RTVSPropertyOp20
 70
     1
102
RTVSPropertyOp21
 70
     1
102
RTVSPropertyOp22
 70
     1
102
RTVSPropertyOp23
 70
     1
102
RTVSPropertyOp24
 70
     1
102
RTVSPropertyOp25
 70
     1
102
RTVSPropertyOp26
 70
     1
102
RTVSPropertyOp27
 70
     1
102
RTVSPropertyOp28
 70
     1
102
RTVSPropertyOp29
 70
     1
102
RTVSPropertyOp30
 70
     1
102
RTVSPropertyOp31
 70
     1
102
RTVSPropertyOp32
 70
     1
  0
XRECORD
  5
47
102
{ACAD_REACTORS
330
46
102
}
330
46
100
AcDbXrecord
280
     1
102
RTVSPropertyOp0
 70
     1
102
RTVSPropertyOp1
 70
     1
102
RTVSPropertyOp2
 70
     1
102
RTVSPropertyOp3
 70
     1
102
RTVSPropertyOp4
 70
     1
102
RTVSPropertyOp5
 70
     1
102
RTVSPropertyOp6
 70
     1
102
RTVSPropertyOp7
 70
     1
102
RTVSPropertyOp8
 70
     1
102
RTVSPropertyOp9
 70
     1
102
RTVSPropertyOp10
 70
     1
102
RTVSPropertyOp11
 70
     1
102
RTVSPropertyOp12
 70
     1
102
RTVSPropertyOp13
 70
     1
102
RTVSPropertyOp14
 70
     1
102
RTVSPropertyOp15
 70
     1
102
RTVSPropertyOp16
 70
     1
102
RTVSPropertyOp17
 70
     1
102
RTVSPropertyOp18
 70
     1
102
RTVSPropertyOp19
 70
     1
102
RTVSPropertyOp20
 70
     1
102
RTVSPropertyOp21
 70
     1
102
RTVSPropertyOp22
 70
     1
102
RTVSPropertyOp23
 70
     1
102
RTVSPropertyOp24
 70
     1
102
RTVSPropertyOp25
 70
     1
102
RTVSPropertyOp26
 70
     1
102
RTVSPropertyOp27
 70
     1
102
RTVSPropertyOp28
 70
     1
102
RTVSPropertyOp29
 70
     1
102
RTVSPropertyOp30
 70
     1
102
RTVSPropertyOp31
 70
     1
102
RTVSPropertyOp32
 70
     1
  0
XRECORD
  5
49
102
{ACAD_REACTORS
330
48
102
}
330
48
100
AcDbXrecord
280
     1
102
RTVSPropertyOp0
 70
     1
102
RTVSPropertyOp1
 70
     1
102
RTVSPropertyOp2
 70
     1
102
RTVSPropertyOp3
 70
     1
102
RTVSPropertyOp4
 70
     1
102
RTVSPropertyOp5
 70
     1
102
RTVSPropertyOp6
 70
     1
102
RTVSPropertyOp7
 70
     1
102
RTVSPropertyOp8
 70
     1
102
RTVSPropertyOp9
 70
     1
102
RTVSPropertyOp10
 70
     1
102
RTVSPropertyOp11
 70
     1
102
RTVSPropertyOp12
 70
     1
102
RTVSPropertyOp13
 70
     1
102
RTVSPropertyOp14
 70
     1
102
RTVSPropertyOp15
 70
     1
102
RTVSPropertyOp16
 70
     1
102
RTVSPropertyOp17
 70
     1
102
RTVSPropertyOp18
 70
     1
102
RTVSPropertyOp19
 70
     1
102
RTVSPropertyOp20
 70
     1
102
RTVSPropertyOp21
 70
     1
102
RTVSPropertyOp22
 70
     1
102
RTVSPropertyOp23
 70
     1
102
RTVSPropertyOp24
 70
     1
102
RTVSPropertyOp25
 70
     1
102
RTVSPropertyOp26
 70
     1
102
RTVSPropertyOp27
 70
     1
102
RTVSPropertyOp28
 70
     1
102
RTVSPropertyOp29
 70
     1
102
RTVSPropertyOp30
 70
     1
102
RTVSPropertyOp31
 70
     1
102
RTVSPropertyOp32
 70
     1
  0
XRECORD
  5
5D
102
{ACAD_REACTORS
330
5C
102
}
330
5C
100
AcDbXrecord
280
     1
102
RTVSPropertyOp0
 70
     1
102
RTVSPropertyOp1
 70
     1
102
RTVSPropertyOp2
 70
     1
102
RTVSPropertyOp3
 70
     1
102
RTVSPropertyOp4
 70
     1
102
RTVSPropertyOp5
 70
     1
102
RTVSPropertyOp6
 70
     1
102
RTVSPropertyOp7
 70
     1
102
RTVSPropertyOp8
 70
     1
102
RTVSPropertyOp9
 70
     1
102
RTVSPropertyOp10
 70
     1
102
RTVSPropertyOp11
 70
     1
102
RTVSPropertyOp12
 70
     1
102
RTVSPropertyOp13
 70
     1
102
RTVSPropertyOp14
 70
     1
102
RTVSPropertyOp15
 70
     1
102
RTVSPropertyOp16
 70
     1
102
RTVSPropertyOp17
 70
     1
102
RTVSPropertyOp18
 70
     1
102
RTVSPropertyOp19
 70
     1
102
RTVSPropertyOp20
 70
     1
102
RTVSPropertyOp21
 70
     1
102
RTVSPropertyOp22
 70
     1
102
RTVSPropertyOp23
 70
     1
102
RTVSPropertyOp24
 70
     1
102
RTVSPropertyOp25
 70
     1
102
RTVSPropertyOp26
 70
     1
102
RTVSPropertyOp27
 70
     1
102
RTVSPropertyOp28
 70
     1
102
RTVSPropertyOp29
 70
     1
102
RTVSPropertyOp30
 70
     1
102
RTVSPropertyOp31
 70
     1
102
RTVSPropertyOp32
 70
     1
  0
XRECORD
  5
53
102
{ACAD_REACTORS
330
52
102
}
330
52
100
AcDbXrecord
280
     1
102
RTVSPropertyOp0
 70
     1
102
RTVSPropertyOp1
 70
     1
102
RTVSPropertyOp2
 70
     1
102
RTVSPropertyOp3
 70
     1
102
RTVSPropertyOp4
 70
     1
102
RTVSPropertyOp5
 70
     1
102
RTVSPropertyOp6
 70
     1
102
RTVSPropertyOp7
 70
     1
102
RTVSPropertyOp8
 70
     1
102
RTVSPropertyOp9
 70
     1
102
RTVSPropertyOp10
 70
     1
102
RTVSPropertyOp11
 70
     1
102
RTVSPropertyOp12
 70
     1
102
RTVSPropertyOp13
 70
     1
102
RTVSPropertyOp14
 70
     1
102
RTVSPropertyOp15
 70
     1
102
RTVSPropertyOp16
 70
     1
102
RTVSPropertyOp17
 70
     1
102
RTVSPropertyOp18
 70
     1
102
RTVSPropertyOp19
 70
     1
102
RTVSPropertyOp20
 70
     1
102
RTVSPropertyOp21
 70
     1
102
RTVSPropertyOp22
 70
     1
102
RTVSPropertyOp23
 70
     1
102
RTVSPropertyOp24
 70
     1
102
RTVSPropertyOp25
 70
     1
102
RTVSPropertyOp26
 70
     1
102
RTVSPropertyOp27
 70
     1
102
RTVSPropertyOp28
 70
     1
102
RTVSPropertyOp29
 70
     1
102
RTVSPropertyOp30
 70
     1
102
RTVSPropertyOp31
 70
     1
102
RTVSPropertyOp32
 70
     1
  0
XRECORD
  5
5B
102
{ACAD_REACTORS
330
5A
102
}
330
5A
100
AcDbXrecord
280
     1
102
RTVSPropertyOp0
 70
     1
102
RTVSPropertyOp1
 70
     1
102
RTVSPropertyOp2
 70
     1
102
RTVSPropertyOp3
 70
     1
102
RTVSPropertyOp4
 70
     1
102
RTVSPropertyOp5
 70
     1
102
RTVSPropertyOp6
 70
     1
102
RTVSPropertyOp7
 70
     1
102
RTVSPropertyOp8
 70
     1
102
RTVSPropertyOp9
 70
     1
102
RTVSPropertyOp10
 70
     1
102
RTVSPropertyOp11
 70
     1
102
RTVSPropertyOp12
 70
     1
102
RTVSPropertyOp13
 70
     1
102
RTVSPropertyOp14
 70
     1
102
RTVSPropertyOp15
 70
     1
102
RTVSPropertyOp16
 70
     1
102
RTVSPropertyOp17
 70
     1
102
RTVSPropertyOp18
 70
     1
102
RTVSPropertyOp19
 70
     1
102
RTVSPropertyOp20
 70
     1
102
RTVSPropertyOp21
 70
     1
102
RTVSPropertyOp22
 70
     1
102
RTVSPropertyOp23
 70
     1
102
RTVSPropertyOp24
 70
     1
102
RTVSPropertyOp25
 70
     1
102
RTVSPropertyOp26
 70
     1
102
RTVSPropertyOp27
 70
     1
102
RTVSPropertyOp28
 70
     1
102
RTVSPropertyOp29
 70
     1
102
RTVSPropertyOp30
 70
     1
102
RTVSPropertyOp31
 70
     1
102
RTVSPropertyOp32
 70
     1
  0
ENDSEC
  0
EOF
