  0
SECTION
  2
HEADER
  9
$ACADVER
  1
AC1018
  9
$ACADMAINTVER
 70
     0
  9
$DWGCODEPAGE
  3
ANSI_1252
  9
$INSBASE
 10
0.0
 20
0.0
 30
0.0
  9
$EXTMIN
 10
1.000000000000000E+20
 20
1.000000000000000E+20
 30
1.000000000000000E+20
  9
$EXTMAX
 10
-1.000000000000000E+20
 20
-1.000000000000000E+20
 30
-1.000000000000000E+20
  9
$LIMMIN
 10
0.0
 20
0.0
  9
$LIMMAX
 10
12.0
 20
9.0
  9
$ORTHOMODE
 70
     0
  9
$REGENMODE
 70
     1
  9
$FILLMODE
 70
     1
  9
$QTEXTMODE
 70
     0
  9
$MIRRTEXT
 70
     1
  9
$LTSCALE
 40
1.0
  9
$ATTMODE
 70
     1
  9
$TEXTSIZE
 40
0.2
  9
$TRACEWID
 40
0.05
  9
$TEXTSTYLE
  7
Standard
  9
$CLAYER
  8
0
  9
$CELTYPE
  6
ByLayer
  9
$CECOLOR
 62
   256
  9
$CELTSCALE
 40
1.0
  9
$DISPSILH
 70
     0
  9
$DIMSCALE
 40
1.0
  9
$DIMASZ
 40
0.18
  9
$DIMEXO
 40
0.0625
  9
$DIMDLI
 40
0.38
  9
$DIMRND
 40
0.0
  9
$DIMDLE
 40
0.0
  9
$DIMEXE
 40
0.18
  9
$DIMTP
 40
0.0
  9
$DIMTM
 40
0.0
  9
$DIMTXT
 40
0.18
  9
$DIMCEN
 40
0.09
  9
$DIMTSZ
 40
0.0
  9
$DIMTOL
 70
     0
  9
$DIMLIM
 70
     0
  9
$DIMTIH
 70
     1
  9
$DIMTOH
 70
     1
  9
$DIMSE1
 70
     0
  9
$DIMSE2
 70
     0
  9
$DIMTAD
 70
     0
  9
$DIMZIN
 70
     0
  9
$DIMBLK
  1

  9
$DIMASO
 70
     1
  9
$DIMSHO
 70
     1
  9
$DIMPOST
  1

  9
$DIMAPOST
  1

  9
$DIMALT
 70
     0
  9
$DIMALTD
 70
     2
  9
$DIMALTF
 40
25.4
  9
$DIMLFAC
 40
1.0
  9
$DIMTOFL
 70
     0
  9
$DIMTVP
 40
0.0
  9
$DIMTIX
 70
     0
  9
$DIMSOXD
 70
     0
  9
$DIMSAH
 70
     0
  9
$DIMBLK1
  1

  9
$DIMBLK2
  1

  9
$DIMSTYLE
  2
Standard
  9
$DIMCLRD
 70
     0
  9
$DIMCLRE
 70
     0
  9
$DIMCLRT
 70
     0
  9
$DIMTFAC
 40
1.0
  9
$DIMGAP
 40
0.09
  9
$DIMJUST
 70
     0
  9
$DIMSD1
 70
     0
  9
$DIMSD2
 70
     0
  9
$DIMTOLJ
 70
     1
  9
$DIMTZIN
 70
     0
  9
$DIMALTZ
 70
     0
  9
$DIMALTTZ
 70
     0
  9
$DIMUPT
 70
     0
  9
$DIMDEC
 70
     4
  9
$DIMTDEC
 70
     4
  9
$DIMALTU
 70
     2
  9
$DIMALTTD
 70
     2
  9
$DIMTXSTY
  7
Standard
  9
$DIMAUNIT
 70
     0
  9
$DIMADEC
 70
     0
  9
$DIMALTRND
 40
0.0
  9
$DIMAZIN
 70
     0
  9
$DIMDSEP
 70
    46
  9
$DIMATFIT
 70
     3
  9
$DIMFRAC
 70
     0
  9
$DIMLDRBLK
  1

  9
$DIMLUNIT
 70
     2
  9
$DIMLWD
 70
    -2
  9
$DIMLWE
 70
    -2
  9
$DIMTMOVE
 70
     0
  9
$LUNITS
 70
     2
  9
$LUPREC
 70
     4
  9
$SKETCHINC
 40
0.1
  9
$FILLETRAD
 40
0.5
  9
$AUNITS
 70
     0
  9
$AUPREC
 70
     0
  9
$MENU
  1
.
  9
$ELEVATION
 40
0.0
  9
$PELEVATION
 40
0.0
  9
$THICKNESS
 40
0.0
  9
$LIMCHECK
 70
     0
  9
$CHAMFERA
 40
0.5
  9
$CHAMFERB
 40
0.5
  9
$CHAMFERC
 40
1.0
  9
$CHAMFERD
 40
0.0
  9
$SKPOLY
 70
     0
  9
$TDCREATE
 40
2455736.684584595
  9
$TDUCREATE
 40
2455736.934584595
  9
$TDUPDATE
 40
2455736.684584606
  9
$TDUUPDATE
 40
2455736.934584606
  9
$TDINDWG
 40
0.0000000116
  9
$TDUSRTIMER
 40
0.0000000116
  9
$USRTIMER
 70
     1
  9
$ANGBASE
 50
0.0
  9
$ANGDIR
 70
     0
  9
$PDMODE
 70
     0
  9
$PDSIZE
 40
0.0
  9
$PLINEWID
 40
0.0
  9
$SPLFRAME
 70
     0
  9
$SPLINETYPE
 70
     6
  9
$SPLINESEGS
 70
     8
  9
$HANDSEED
  5
45
  9
$SURFTAB1
 70
     6
  9
$SURFTAB2
 70
     6
  9
$SURFTYPE
 70
     6
  9
$SURFU
 70
     6
  9
$SURFV
 70
     6
  9
$UCSBASE
  2

  9
$UCSNAME
  2

  9
$UCSORG
 10
0.0
 20
0.0
 30
0.0
  9
$UCSXDIR
 10
1.0
 20
0.0
 30
0.0
  9
$UCSYDIR
 10
0.0
 20
1.0
 30
0.0
  9
$UCSORTHOREF
  2

  9
$UCSORTHOVIEW
 70
     0
  9
$UCSORGTOP
 10
0.0
 20
0.0
 30
0.0
  9
$UCSORGBOTTOM
 10
0.0
 20
0.0
 30
0.0
  9
$UCSORGLEFT
 10
0.0
 20
0.0
 30
0.0
  9
$UCSORGRIGHT
 10
0.0
 20
0.0
 30
0.0
  9
$UCSORGFRONT
 10
0.0
 20
0.0
 30
0.0
  9
$UCSORGBACK
 10
0.0
 20
0.0
 30
0.0
  9
$PUCSBASE
  2

  9
$PUCSNAME
  2

  9
$PUCSORG
 10
0.0
 20
0.0
 30
0.0
  9
$PUCSXDIR
 10
1.0
 20
0.0
 30
0.0
  9
$PUCSYDIR
 10
0.0
 20
1.0
 30
0.0
  9
$PUCSORTHOREF
  2

  9
$PUCSORTHOVIEW
 70
     0
  9
$PUCSORGTOP
 10
0.0
 20
0.0
 30
0.0
  9
$PUCSORGBOTTOM
 10
0.0
 20
0.0
 30
0.0
  9
$PUCSORGLEFT
 10
0.0
 20
0.0
 30
0.0
  9
$PUCSORGRIGHT
 10
0.0
 20
0.0
 30
0.0
  9
$PUCSORGFRONT
 10
0.0
 20
0.0
 30
0.0
  9
$PUCSORGBACK
 10
0.0
 20
0.0
 30
0.0
  9
$USERI1
 70
     0
  9
$USERI2
 70
     0
  9
$USERI3
 70
     0
  9
$USERI4
 70
     0
  9
$USERI5
 70
     0
  9
$USERR1
 40
0.0
  9
$USERR2
 40
0.0
  9
$USERR3
 40
0.0
  9
$USERR4
 40
0.0
  9
$USERR5
 40
0.0
  9
$WORLDVIEW
 70
     1
  9
$SHADEDGE
 70
     3
  9
$SHADEDIF
 70
    70
  9
$TILEMODE
 70
     1
  9
$MAXACTVP
 70
    64
  9
$PINSBASE
 10
0.0
 20
0.0
 30
0.0
  9
$PLIMCHECK
 70
     0
  9
$PEXTMIN
 10
1.000000000000000E+20
 20
1.000000000000000E+20
 30
1.000000000000000E+20
  9
$PEXTMAX
 10
-1.000000000000000E+20
 20
-1.000000000000000E+20
 30
-1.000000000000000E+20
  9
$PLIMMIN
 10
0.0
 20
0.0
  9
$PLIMMAX
 10
12.0
 20
9.0
  9
$UNITMODE
 70
     0
  9
$VISRETAIN
 70
     1
  9
$PLINEGEN
 70
     0
  9
$PSLTSCALE
 70
     1
  9
$TREEDEPTH
 70
  3020
  9
$CMLSTYLE
  2
Standard
  9
$CMLJUST
 70
     0
  9
$CMLSCALE
 40
1.0
  9
$PROXYGRAPHICS
 70
     1
  9
$MEASUREMENT
 70
     0
  9
$CELWEIGHT
370
    -1
  9
$ENDCAPS
280
     0
  9
$JOINSTYLE
280
     0
  9
$LWDISPLAY
290
     1
  9
$INSUNITS
 70
     1
  9
$HYPERLINKBASE
  1

  9
$STYLESHEET
  1

  9
$XEDIT
290
     1
  9
$CEPSNTYPE
380
     0
  9
$PSTYLEMODE
290
     1
  9
$FINGERPRINTGUID
  2
{6104C500-93F4-4E51-AF6A-30FC5A1A2671}
  9
$VERSIONGUID
  2
{FAEB1C32-E019-11D5-929B-00C0DF256EC4}
  9
$EXTNAMES
290
     1
  9
$PSVPSCALE
 40
0.0
  9
$OLESTARTUP
290
     0
  9
$SORTENTS
280
   127
  9
$INDEXCTL
280
     0
  9
$HIDETEXT
280
     1
  9
$XCLIPFRAME
290
     0
  9
$HALOGAP
280
     0
  9
$OBSCOLOR
 70
   257
  9
$OBSLTYPE
280
     0
  9
$INTERSECTIONDISPLAY
280
     0
  9
$INTERSECTIONCOLOR
 70
   257
  9
$DIMASSOC
280
     2
  9
$PROJECTNAME
  1

  0
ENDSEC
  0
SECTION
  2
CLASSES
  0
CLASS
  1
ACDBDICTIONARYWDFLT
  2
AcDbDictionaryWithDefault
  3
ObjectDBX Classes
 90
        0
 91
        3
280
     0
281
     0
  0
CLASS
  1
VISUALSTYLE
  2
AcDbVisualStyle
  3
ObjectDBX Classes
 90
     4095
 91
        3
280
     0
281
     0
  0
ENDSEC
  0
SECTION
  2
TABLES
  0
TABLE
  2
VPORT
  5
8
330
0
100
AcDbSymbolTable
 70
     1
  0
VPORT
  5
29
330
8
100
AcDbSymbolTableRecord
100
AcDbViewportTableRecord
  2
*Active
 70
     0
 10
0.0
 20
0.0
 11
1.0
 21
1.0
 12
0.0
 22
0.0
 13
0.0
 23
0.0
 14
0.5
 24
0.5
 15
0.5
 25
0.5
 16
0.0
 26
0.0
 36
1.0
 17
50.7999999873
 27
50.51095647608754
 37
0.0
 40
101.0219129521751
 41
1.005722392355593
 42
50.0
 43
0.0
 44
0.0
 50
0.0
 51
0.0
 71
     0
 72
   100
 73
     1
 74
     3
 75
     0
 76
     0
 77
     0
 78
     0
281
     0
 65
     1
110
0.0
120
0.0
130
0.0
111
1.0
121
0.0
131
0.0
112
0.0
122
1.0
132
0.0
 79
     0
146
0.0
  0
ENDTAB
  0
TABLE
  2
LTYPE
  5
5
330
0
100
AcDbSymbolTable
 70
     1
  0
LTYPE
  5
14
330
5
100
AcDbSymbolTableRecord
100
AcDbLinetypeTableRecord
  2
ByBlock
 70
     0
  3

 72
    65
 73
     0
 40
0.0
  0
LTYPE
  5
15
330
5
100
AcDbSymbolTableRecord
100
AcDbLinetypeTableRecord
  2
ByLayer
 70
     0
  3

 72
    65
 73
     0
 40
0.0
  0
LTYPE
  5
16
330
5
100
AcDbSymbolTableRecord
100
AcDbLinetypeTableRecord
  2
Continuous
 70
     0
  3
Solid line
 72
    65
 73
     0
 40
0.0
  0
ENDTAB
  0
TABLE
  2
LAYER
  5
2
330
0
100
AcDbSymbolTable
 70
     2
  0
LAYER
  5
10
330
2
100
AcDbSymbolTableRecord
100
AcDbLayerTableRecord
  2
0
 70
     0
 62
     7
  6
Continuous
370
    -3
390
F
  0
LAYER
  5
3B
330
2
100
AcDbSymbolTableRecord
100
AcDbLayerTableRecord
  2
Layer 1
 70
     0
 62
     7
  6
Continuous
370
    -3
390
F
  0
ENDTAB
  0
TABLE
  2
STYLE
  5
3
330
0
100
AcDbSymbolTable
 70
     1
  0
STYLE
  5
11
330
3
100
AcDbSymbolTableRecord
100
AcDbTextStyleTableRecord
  2
Standard
 70
     0
 40
0.0
 41
1.0
 50
0.0
 71
     0
 42
0.2
  3
txt
  4

  0
ENDTAB
  0
TABLE
  2
VIEW
  5
6
330
0
100
AcDbSymbolTable
 70
     0
  0
ENDTAB
  0
TABLE
  2
UCS
  5
7
330
0
100
AcDbSymbolTable
 70
     0
  0
ENDTAB
  0
TABLE
  2
APPID
  5
9
330
0
100
AcDbSymbolTable
 70
     1
  0
APPID
  5
12
330
9
100
AcDbSymbolTableRecord
100
AcDbRegAppTableRecord
  2
ACAD
 70
     0
  0
ENDTAB
  0
TABLE
  2
DIMSTYLE
  5
A
330
0
100
AcDbSymbolTable
 70
     1
100
AcDbDimStyleTable
  0
DIMSTYLE
105
27
330
A
100
AcDbSymbolTableRecord
100
AcDbDimStyleTableRecord
  2
Standard
 70
     0
340
11
  0
ENDTAB
  0
TABLE
  2
BLOCK_RECORD
  5
1
330
0
100
AcDbSymbolTable
 70
     1
  0
BLOCK_RECORD
  5
1F
330
1
100
AcDbSymbolTableRecord
100
AcDbBlockTableRecord
  2
*Model_Space
340
22
  0
BLOCK_RECORD
  5
1B
330
1
100
AcDbSymbolTableRecord
100
AcDbBlockTableRecord
  2
*Paper_Space
340
1E
  0
BLOCK_RECORD
  5
23
330
1
100
AcDbSymbolTableRecord
100
AcDbBlockTableRecord
  2
*Paper_Space0
340
26
  0
ENDTAB
  0
ENDSEC
  0
SECTION
  2
BLOCKS
  0
BLOCK
  5
20
330
1F
100
AcDbEntity
  8
0
100
AcDbBlockBegin
  2
*Model_Space
 70
     0
 71
     0
 10
0.0
 20
0.0
 30
0.0
  3
*Model_Space
  1

  0
ENDBLK
  5
21
330
1F
100
AcDbEntity
  8
0
100
AcDbBlockEnd
  0
BLOCK
  5
1C
330
1B
100
AcDbEntity
 67
     1
  8
0
100
AcDbBlockBegin
  2
*Paper_Space
 70
     0
 71
     0
 10
0.0
 20
0.0
 30
0.0
  3
*Paper_Space
  1

  0
ENDBLK
  5
1D
330
1B
100
AcDbEntity
 67
     1
  8
0
100
AcDbBlockEnd
  0
BLOCK
  5
24
330
23
100
AcDbEntity
  8
0
100
AcDbBlockBegin
  2
*Paper_Space0
 70
     0
 71
     0
 10
0.0
 20
0.0
 30
0.0
  3
*Paper_Space0
  1

  0
ENDBLK
  5
25
330
23
100
AcDbEntity
  8
0
100
AcDbBlockEnd
  0
ENDSEC
  0
SECTION
  2
ENTITIES
  0
SPLINE
  5
3C
330
1F
100
AcDbEntity
  8
Layer 1
370
     0
100
AcDbSpline
210
0.0
220
0.0
230
1.0
 70
    11
 71
     3
 72
   167
 73
   163
 74
     0
 42
0.0000000001
 43
0.0000000001
 40
0.0
 40
0.0
 40
0.0
 40
0.0
 40
1.0
 40
1.0
 40
1.0
 40
2.0
 40
2.0
 40
2.0
 40
3.0
 40
3.0
 40
3.0
 40
4.0
 40
4.0
 40
4.0
 40
5.0
 40
5.0
 40
5.0
 40
6.0
 40
6.0
 40
6.0
 40
7.0
 40
7.0
 40
7.0
 40
8.0
 40
8.0
 40
8.0
 40
9.0
 40
9.0
 40
9.0
 40
10.0
 40
10.0
 40
10.0
 40
11.0
 40
11.0
 40
11.0
 40
12.0
 40
12.0
 40
12.0
 40
13.0
 40
13.0
 40
13.0
 40
14.0
 40
14.0
 40
14.0
 40
15.0
 40
15.0
 40
15.0
 40
16.0
 40
16.0
 40
16.0
 40
17.0
 40
17.0
 40
17.0
 40
18.0
 40
18.0
 40
18.0
 40
19.0
 40
19.0
 40
19.0
 40
20.0
 40
20.0
 40
20.0
 40
21.0
 40
21.0
 40
21.0
 40
22.0
 40
22.0
 40
22.0
 40
23.0
 40
23.0
 40
23.0
 40
24.0
 40
24.0
 40
24.0
 40
25.0
 40
25.0
 40
25.0
 40
26.0
 40
26.0
 40
26.0
 40
27.0
 40
27.0
 40
27.0
 40
28.0
 40
28.0
 40
28.0
 40
29.0
 40
29.0
 40
29.0
 40
30.0
 40
30.0
 40
30.0
 40
31.0
 40
31.0
 40
31.0
 40
32.0
 40
32.0
 40
32.0
 40
33.0
 40
33.0
 40
33.0
 40
34.0
 40
34.0
 40
34.0
 40
35.0
 40
35.0
 40
35.0
 40
36.0
 40
36.0
 40
36.0
 40
37.0
 40
37.0
 40
37.0
 40
38.0
 40
38.0
 40
38.0
 40
39.0
 40
39.0
 40
39.0
 40
40.0
 40
40.0
 40
40.0
 40
41.0
 40
41.0
 40
41.0
 40
42.0
 40
42.0
 40
42.0
 40
43.0
 40
43.0
 40
43.0
 40
44.0
 40
44.0
 40
44.0
 40
45.0
 40
45.0
 40
45.0
 40
46.0
 40
46.0
 40
46.0
 40
47.0
 40
47.0
 40
47.0
 40
48.0
 40
48.0
 40
48.0
 40
49.0
 40
49.0
 40
49.0
 40
50.0
 40
50.0
 40
50.0
 40
51.0
 40
51.0
 40
51.0
 40
52.0
 40
52.0
 40
52.0
 40
53.0
 40
53.0
 40
53.0
 40
54.0
 40
54.0
 40
54.0
 40
54.0
 10
100.1957790548122
 20
46.20562064817082
 30
0.0
 10
99.9425645366463
 20
45.54588486274547
 30
0.0
 10
99.77168780057792
 20
44.85032008427353
 30
0.0
 10
99.54052189351765
 20
44.18610567471737
 30
0.0
 10
98.945553903215
 20
42.4835394859069
 30
0.0
 10
98.11976451540062
 20
40.86089951235422
 30
0.0
 10
97.20922577864908
 20
39.30681693895802
 30
0.0
 10
95.74816078335463
 20
36.81291231718566
 30
0.0
 10
94.03284774124873
 20
34.18361544284299
 30
0.0
 10
91.86416013328396
 20
32.23644747457978
 30
0.0
 10
91.72084416109757
 20
32.34255641552547
 30
0.0
 10
91.5709825074892
 20
32.44211967504919
 30
0.0
 10
91.41044105787655
 20
32.52859157172897
 30
0.0
 10
91.17789711262219
 20
32.65399304739206
 30
0.0
 10
90.93605140955766
 20
32.74597709684823
 30
0.0
 10
90.69007159191082
 20
32.81935763068405
 30
0.0
 10
91.95442163499752
 20
36.67579751687272
 30
0.0
 10
93.83165416491015
 20
46.07126192424607
 30
0.0
 10
93.1402235010205
 20
49.95216198838002
 30
0.0
 10
93.10542803661949
 20
50.54799125255398
 30
0.0
 10
92.86220429536084
 20
52.60901962660469
 30
0.0
 10
91.86760522876921
 20
51.78409151266162
 30
0.0
 10
91.48037649622714
 20
51.46300861343634
 30
0.0
 10
91.62265893976794
 20
50.3311224917575
 30
0.0
 10
91.6398844171942
 20
49.88636066461174
 30
0.0
 10
92.55559079717361
 20
44.10755749765367
 30
0.0
 10
89.50185815904815
 20
34.59358180558772
 30
0.0
 10
88.23991968280113
 20
33.21347655419663
 30
0.0
 10
87.9870496741838
 20
32.93683538673107
 30
0.0
 10
87.95087617158867
 20
32.832448993528
 30
0.0
 10
88.01633298580842
 20
32.78008354215221
 30
0.0
 10
86.58937443581794
 20
32.398022452838
 30
0.0
 10
85.12073023045593
 20
31.52916937145799
 30
0.0
 10
83.80573728373606
 20
30.47049152884071
 30
0.0
 10
82.15725909404402
 20
29.20683050485107
 30
0.0
 10
81.92023652465883
 20
26.38529730243145
 30
0.0
 10
83.37923446266214
 20
24.07088215544061
 30
0.0
 10
81.93263886840573
 20
23.49382866166127
 30
0.0
 10
79.76257322224686
 20
22.69422199953478
 30
0.0
 10
77.80748153436758
 20
21.68412000325953
 30
0.0
 10
78.76211749333031
 20
25.68732095711984
 30
0.0
 10
79.39877113900448
 20
29.72325031809002
 30
0.0
 10
80.87396102578846
 20
33.64755858533811
 30
0.0
 10
82.80907115985329
 20
38.79246418301022
 30
0.0
 10
84.47098522193781
 20
44.05794812266607
 30
0.0
 10
84.11303980102035
 20
49.62694497457243
 30
0.0
 10
83.48741046089899
 20
59.36433510885684
 30
0.0
 10
80.7254774103742
 20
69.54390324867306
 30
0.0
 10
76.92794865698329
 20
78.52423365007381
 30
0.0
 10
75.87340492894832
 20
81.01865503616895
 30
0.0
 10
74.67003307595056
 20
83.44744735327009
 30
0.0
 10
73.19070907458428
 20
85.72000459011514
 30
0.0
 10
71.16843802474261
 20
88.8269639534877
 30
0.0
 10
68.47437335527724
 20
91.38477509651145
 30
0.0
 10
66.25883244871308
 20
94.33963349421023
 30
0.0
 10
64.62585718870464
 20
96.51779511475945
 30
0.0
 10
62.88229436361971
 20
99.00274248827016
 30
0.0
 10
60.48416339633729
 20
100.4093749748977
 30
0.0
 10
59.38276636970292
 20
101.0556748879305
 30
0.0
 10
57.86175671296512
 20
101.2784003110519
 30
0.0
 10
56.6783664137818
 20
100.6438137226689
 30
0.0
 10
53.13784178359055
 20
98.7434990530051
 30
0.0
 10
52.92252331576243
 20
93.34417315374729
 30
0.0
 10
53.50646700051227
 20
89.88908689159024
 30
0.0
 10
53.9894693875443
 20
87.03568655593206
 30
0.0
 10
54.21787921821637
 20
84.72144366371548
 30
0.0
 10
52.61349825073552
 20
82.16707761617698
 30
0.0
 10
50.26377087502087
 20
78.42673744784123
 30
0.0
 10
46.06333820463
 20
76.52401121133775
 30
0.0
 10
43.10658500441433
 20
73.36744247297759
 30
0.0
 10
37.48780652274611
 20
67.36884221406056
 30
0.0
 10
39.37968070847106
 20
58.94902884810997
 30
0.0
 10
41.64362520660298
 20
51.96048040150641
 30
0.0
 10
42.21430527373462
 20
50.19883082512391
 30
0.0
 10
44.47377114773573
 20
46.61696504910965
 30
0.0
 10
42.64907632397315
 20
44.9726209739999
 30
0.0
 10
40.62577174548592
 20
43.14982095275421
 30
0.0
 10
36.8141181006055
 20
45.66542967608365
 30
0.0
 10
34.49832491542056
 20
45.63752440265312
 30
0.0
 10
30.74282632694971
 20
45.5917046326993
 30
0.0
 10
26.63041584620698
 20
43.83263887793073
 30
0.0
 10
23.8927707188532
 20
41.30118271536915
 30
0.0
 10
19.68217501678085
 20
37.40891383613388
 30
0.0
 10
19.68303629065216
 20
31.7927191760796
 30
0.0
 10
20.00653075671712
 20
26.4728027277568
 30
0.0
 10
20.12762586302365
 20
24.46672362669582
 30
0.0
 10
19.67545708058461
 20
21.8436279242266
 30
0.0
 10
18.14307860874548
 20
20.33295355394454
 30
0.0
 10
16.64480658221033
 20
18.85431857167531
 30
0.0
 10
13.08378363388183
 20
18.88601345013961
 30
0.0
 10
11.1693440727285
 20
19.33594292051324
 30
0.0
 10
8.78327093964446
 20
19.89680446551191
 30
0.0
 10
7.089145234772853
 20
20.30849337599927
 30
0.0
 10
4.508768716320724
 20
19.77553710443112
 30
0.0
 10
2.601736110460677
 20
19.38004014272444
 30
0.0
 10
0.6459554034843445
 20
18.42747124105286
 30
0.0
 10
0.1224731445006317
 20
16.30908202717273
 30
0.0
 10
-0.5167643227874756
 20
13.71733669361928
 30
0.0
 10
1.457447645034944
 20
11.55553927662501
 30
0.0
 10
3.479546440102336
 20
10.37145995834464
 30
0.0
 10
9.591145830935547
 20
6.793039277815629
 30
0.0
 10
13.36473117070396
 20
14.47319064308309
 30
0.0
 10
18.97937553778988
 20
15.44022894579272
 30
0.0
 10
21.53908148333051
 20
15.88292371564733
 30
0.0
 10
23.17946369863222
 20
14.12764756591253
 30
0.0
 10
24.3175509921845
 20
12.02682833900718
 30
0.0
 10
25.84751789718396
 20
9.201161022005266
 30
0.0
 10
27.28722330046986
 20
6.112288409930262
 30
0.0
 10
30.56488714513656
 20
5.025016274785413
 30
0.0
 10
34.18671602877971
 20
3.823711479078795
 30
0.0
 10
38.3502861774784
 20
5.09047308900516
 30
0.0
 10
41.91733804290608
 20
5.973795571423218
 30
0.0
 10
46.08555907050986
 20
7.007324216998169
 30
0.0
 10
50.13423528477547
 20
8.454608830351626
 30
0.0
 10
54.16241318090384
 20
9.93083224578118
 30
0.0
 10
57.16998153952695
 20
11.03326280106113
 30
0.0
 10
60.10382485476571
 20
12.34171006635902
 30
0.0
 10
63.16203611702199
 20
13.30702582132602
 30
0.0
 10
65.73724499224625
 20
14.11937933674793
 30
0.0
 10
68.26973468345341
 20
14.29163411101043
 30
0.0
 10
70.87663843714195
 20
14.65474717515576
 30
0.0
 10
70.08805608056826
 20
13.53509114244956
 30
0.0
 10
69.39800345487272
 20
12.56701931109436
 30
0.0
 10
68.86332463556195
 20
11.99788953693108
 30
0.0
 10
65.1381428873613
 20
8.03465169069967
 30
0.0
 10
56.6576958408703
 20
5.061189777380537
 30
0.0
 10
49.83020560820217
 20
3.18740234295315
 30
0.0
 10
48.84266898735531
 20
2.916617837812512
 30
0.0
 10
48.11127521583677
 20
2.074636501217452
 30
0.0
 10
48.28938665242418
 20
1.211295572613843
 30
0.0
 10
48.46732583423734
 20
0.3493326822043335
 30
0.0
 10
49.50206026323212
 20
-0.1808675129756165
 30
0.0
 10
50.56504447520597
 20
0.0571885850551473
 30
0.0
 10
57.87450356626054
 20
1.693264431000295
 30
0.0
 10
65.8467990286772
 20
5.809120007228276
 30
0.0
 10
71.71172958276651
 20
7.180268010357711
 30
0.0
 10
73.6599310796753
 20
7.63570963350774
 30
0.0
 10
77.79060056648986
 20
8.289244247059633
 30
0.0
 10
81.21674802657081
 20
10.0662244983515
 30
0.0
 10
85.27024737451578
 20
12.16945529209653
 30
0.0
 10
88.66848956116621
 20
16.40588921030825
 30
0.0
 10
88.92480466526881
 20
21.1267035537461
 30
0.0
 10
88.9055121305514
 20
21.14392903117235
 30
0.0
 10
88.88690861493106
 20
21.1625325467927
 30
0.0
 10
88.86761608021365
 20
21.17975802421895
 30
0.0
 10
91.5558240873541
 20
21.27587618825742
 30
0.0
 10
93.72864580990118
 20
23.00014647862496
 30
0.0
 10
93.87575138712134
 20
25.04584417776632
 30
0.0
 10
94.05799693829105
 20
26.96269530575933
 30
0.0
 10
93.92811683849715
 20
28.91261935041074
 30
0.0
 10
93.27010360081442
 20
30.40641275281506
 30
0.0
 10
93.2821614350128
 20
30.42088215385311
 30
0.0
 10
93.29353025011412
 20
30.43121744030886
 30
0.0
 10
93.30593259386102
 20
30.44706487954101
 30
0.0
 10
95.79398055330846
 20
33.57762314698754
 30
0.0
 10
100.8568928784316
 20
41.87065699908095
 30
0.0
 10
101.5428113895449
 20
45.78600801806739
 30
0.0
 10
101.7567518191789
 20
47.00798338668551
 30
0.0
 10
101.3664225007001
 20
48.58308104254174
 30
0.0
 10
100.4717312031807
 20
46.83193900738924
 30
0.0
 10
100.3680338290747
 20
46.62833386421097
 30
0.0
 10
100.2774278178126
 20
46.41887205870778
 30
0.0
 10
100.1957790548122
 20
46.20562064817082
 30
0.0
  0
SPLINE
  5
3D
330
1F
100
AcDbEntity
  8
Layer 1
370
     0
100
AcDbSpline
210
0.0
220
0.0
230
1.0
 70
    11
 71
     3
 72
    20
 73
    16
 74
     0
 42
0.0000000001
 43
0.0000000001
 40
0.0
 40
0.0
 40
0.0
 40
0.0
 40
1.0
 40
1.0
 40
1.0
 40
2.0
 40
2.0
 40
2.0
 40
3.0
 40
3.0
 40
3.0
 40
4.0
 40
4.0
 40
4.0
 40
5.0
 40
5.0
 40
5.0
 40
5.0
 10
50.86804062313369
 20
65.66369220363616
 30
0.0
 10
52.8601670874794
 20
66.14359400473147
 30
0.0
 10
55.91527776379896
 20
64.30546330857642
 30
0.0
 10
57.13242999873773
 20
62.84508733237901
 30
0.0
 10
58.06363930840076
 20
61.72646482831838
 30
0.0
 10
58.35061576232207
 20
60.67743325305981
 30
0.0
 10
58.53699542807409
 20
59.24926891964949
 30
0.0
 10
58.80226778043833
 20
57.22510306729095
 30
0.0
 10
59.74174531926595
 20
54.20909422472898
 30
0.0
 10
56.62875703879421
 20
56.06152206714782
 30
0.0
 10
54.70122611479692
 20
57.20977239238159
 30
0.0
 10
52.87980413174533
 20
58.72940401092529
 30
0.0
 10
51.20721027365654
 20
60.10399710953997
 30
0.0
 10
49.65502250277722
 20
61.3805772415993
 30
0.0
 10
47.80793455836052
 20
64.9291978461809
 30
0.0
 10
50.86804062313369
 20
65.66369220363616
 30
0.0
  0
SPLINE
  5
3E
330
1F
100
AcDbEntity
  8
Layer 1
370
     0
100
AcDbSpline
210
0.0
220
0.0
230
1.0
 70
    11
 71
     3
 72
    32
 73
    28
 74
     0
 42
0.0000000001
 43
0.0000000001
 40
0.0
 40
0.0
 40
0.0
 40
0.0
 40
1.0
 40
1.0
 40
1.0
 40
2.0
 40
2.0
 40
2.0
 40
3.0
 40
3.0
 40
3.0
 40
4.0
 40
4.0
 40
4.0
 40
5.0
 40
5.0
 40
5.0
 40
6.0
 40
6.0
 40
6.0
 40
7.0
 40
7.0
 40
7.0
 40
8.0
 40
8.0
 40
8.0
 40
9.0
 40
9.0
 40
9.0
 40
9.0
 10
39.47803818457493
 20
36.54522839798175
 30
0.0
 10
41.43933104432767
 20
39.2361924815104
 30
0.0
 10
44.80036619973741
 20
39.00054795031931
 30
0.0
 10
47.6670301530138
 20
37.94083657905646
 30
0.0
 10
51.44354382394467
 20
36.54626192662732
 30
0.0
 10
54.94548338470113
 20
33.79294161481565
 30
0.0
 10
57.88070473813399
 20
31.11816948006768
 30
0.0
 10
59.32351072735663
 20
29.80352104289634
 30
0.0
 10
60.93960501948732
 20
28.6473469980465
 30
0.0
 10
62.26114364762916
 20
27.20523002792092
 30
0.0
 10
63.00562878199165
 20
26.39080945520785
 30
0.0
 10
65.07682018772385
 20
24.88874782363893
 30
0.0
 10
65.34105901144251
 20
23.88760307562532
 30
0.0
 10
66.09553492271223
 20
21.00784775950498
 30
0.0
 10
59.16917044961743
 20
24.07708332731406
 30
0.0
 10
58.02367620077186
 20
24.31238334895663
 30
0.0
 10
56.02242023339023
 20
24.72200520215283
 30
0.0
 10
53.86475693097826
 20
24.97211913438197
 30
0.0
 10
51.82388236551625
 20
24.96385090521737
 30
0.0
 10
49.23196477718854
 20
24.95489365695572
 30
0.0
 10
46.03956704578178
 20
24.57800021086939
 30
0.0
 10
43.61542560758573
 20
25.54848360906427
 30
0.0
 10
40.96115179097499
 20
26.61164007581237
 30
0.0
 10
38.94801024416925
 20
28.52401257967455
 30
0.0
 10
38.07674559594957
 20
31.2783664201318
 30
0.0
 10
37.43268499498211
 20
33.3178629473997
 30
0.0
 10
38.29051377080932
 20
34.9160427430071
 30
0.0
 10
39.47803818457493
 20
36.54522839798175
 30
0.0
  0
SPLINE
  5
3F
330
1F
100
AcDbEntity
  8
Layer 1
370
     0
100
AcDbSpline
210
0.0
220
0.0
230
1.0
 70
    11
 71
     3
 72
    17
 73
    13
 74
     0
 42
0.0000000001
 43
0.0000000001
 40
0.0
 40
0.0
 40
0.0
 40
0.0
 40
1.0
 40
1.0
 40
1.0
 40
2.0
 40
2.0
 40
2.0
 40
3.0
 40
3.0
 40
3.0
 40
4.0
 40
4.0
 40
4.0
 40
4.0
 10
26.46711832020614
 20
26.18134764970467
 30
0.0
 10
27.19420572236812
 20
28.76310220635089
 30
0.0
 10
29.59681531378135
 20
29.08487412467323
 30
0.0
 10
31.89004312353791
 20
28.53917099980965
 30
0.0
 10
33.52456867651469
 20
28.15021971952495
 30
0.0
 10
37.12348767518093
 20
27.06260307483157
 30
0.0
 10
38.24452174608123
 20
25.72659504565168
 30
0.0
 10
40.51122232060136
 20
23.02908528070106
 30
0.0
 10
33.46307372210298
 20
23.11176757234706
 30
0.0
 10
32.16255017642117
 20
22.97637531977674
 30
0.0
 10
29.95028211056799
 20
22.74589843181353
 30
0.0
 10
25.50231932956192
 20
22.75278862278403
 30
0.0
 10
26.46711832020614
 20
26.18134764970467
 30
0.0
  0
SPLINE
  5
40
330
1F
100
AcDbEntity
  8
Layer 1
370
     0
100
AcDbSpline
210
0.0
220
0.0
230
1.0
 70
    11
 71
     3
 72
    35
 73
    31
 74
     0
 42
0.0000000001
 43
0.0000000001
 40
0.0
 40
0.0
 40
0.0
 40
0.0
 40
1.0
 40
1.0
 40
1.0
 40
2.0
 40
2.0
 40
2.0
 40
3.0
 40
3.0
 40
3.0
 40
4.0
 40
4.0
 40
4.0
 40
5.0
 40
5.0
 40
5.0
 40
6.0
 40
6.0
 40
6.0
 40
7.0
 40
7.0
 40
7.0
 40
8.0
 40
8.0
 40
8.0
 40
9.0
 40
9.0
 40
9.0
 40
10.0
 40
10.0
 40
10.0
 40
10.0
 10
65.23253850365715
 20
17.21514213979344
 30
0.0
 10
62.70383841748377
 20
16.3790174655233
 30
0.0
 10
59.88885089648613
 20
16.36695963132493
 30
0.0
 10
57.27195636589035
 20
15.94803602031855
 30
0.0
 10
54.20168726943569
 20
15.45469834683077
 30
0.0
 10
51.15794540821746
 20
14.7904839372746
 30
0.0
 10
48.15898978830748
 20
13.96779513539694
 30
0.0
 10
46.12001002536236
 20
13.40727809994679
 30
0.0
 10
44.14631482186273
 20
12.7372070280657
 30
0.0
 10
42.35658771727544
 20
11.89109157688834
 30
0.0
 10
41.52287460984498
 20
11.49731716292428
 30
0.0
 10
40.83230521982665
 20
10.94610188528431
 30
0.0
 10
39.95587292837909
 20
10.61020507547245
 30
0.0
 10
37.88812661813213
 20
9.816455075670886
 30
0.0
 10
35.12188719825078
 20
8.962415904877451
 30
0.0
 10
33.02020669747412
 20
10.04176432040623
 30
0.0
 10
28.47199163784728
 20
12.37857258805119
 30
0.0
 10
31.22169459939944
 20
16.25396049940873
 30
0.0
 10
33.56694335098327
 20
18.74717610208404
 30
0.0
 10
35.76508652534692
 20
21.08363986018048
 30
0.0
 10
40.78786348806693
 20
22.00244682609661
 30
0.0
 10
43.9990369898683
 20
22.22189940850703
 30
0.0
 10
47.16008435235928
 20
22.43790689543219
 30
0.0
 10
50.28650850522352
 20
22.69973415231118
 30
0.0
 10
53.46236977830107
 20
22.59775932594778
 30
0.0
 10
56.89781899619221
 20
22.48717176087126
 30
0.0
 10
59.78274195554043
 20
21.85017360564857
 30
0.0
 10
62.96394312662013
 20
20.65541449136392
 30
0.0
 10
64.20107691537335
 20
20.18998209130667
 30
0.0
 10
68.72207572066671
 20
18.36924912735213
 30
0.0
 10
65.23253850365715
 20
17.21514213979344
 30
0.0
  0
SPLINE
  5
41
330
1F
100
AcDbEntity
  8
Layer 1
370
     0
100
AcDbSpline
210
0.0
220
0.0
230
1.0
 70
    11
 71
     3
 72
    32
 73
    28
 74
     0
 42
0.0000000001
 43
0.0000000001
 40
0.0
 40
0.0
 40
0.0
 40
0.0
 40
1.0
 40
1.0
 40
1.0
 40
2.0
 40
2.0
 40
2.0
 40
3.0
 40
3.0
 40
3.0
 40
4.0
 40
4.0
 40
4.0
 40
5.0
 40
5.0
 40
5.0
 40
6.0
 40
6.0
 40
6.0
 40
7.0
 40
7.0
 40
7.0
 40
8.0
 40
8.0
 40
8.0
 40
9.0
 40
9.0
 40
9.0
 40
9.0
 10
69.9478406943186
 20
24.06537000266421
 30
0.0
 10
69.07450898880776
 20
20.64232312851998
 30
0.0
 10
66.37217609017779
 20
26.43077256283675
 30
0.0
 10
65.81510415021289
 20
27.37335068760111
 30
0.0
 10
63.80868053960339
 20
30.7653917023781
 30
0.0
 10
61.5114908700388
 20
33.38642034755618
 30
0.0
 10
58.63965927353453
 20
36.1335394874944
 30
0.0
 10
57.00668401352611
 20
37.69554578050667
 30
0.0
 10
51.00842826415762
 20
41.52373588371629
 30
0.0
 10
52.80160046423016
 20
44.26051973719876
 30
0.0
 10
54.35292696123816
 20
46.63074543105065
 30
0.0
 10
57.53619518960901
 20
45.62098794432392
 30
0.0
 10
59.06754013280256
 20
43.90360784492687
 30
0.0
 10
58.56248913466494
 20
45.5889485563111
 30
0.0
 10
55.77609590619487
 20
50.36298962499606
 30
0.0
 10
59.16503633503513
 20
50.79155950336114
 30
0.0
 10
61.64481606531797
 20
51.10661348548724
 30
0.0
 10
63.69705944588129
 20
48.12178275706678
 30
0.0
 10
64.31545408548364
 20
46.12845050930122
 30
0.0
 10
65.4664604871056
 20
42.41670463349305
 30
0.0
 10
66.43659937575197
 20
38.55027397039716
 30
0.0
 10
67.23655054742697
 20
34.77065971352956
 30
0.0
 10
67.62136771312939
 20
32.96198458377339
 30
0.0
 10
68.18188474857953
 20
31.19947373351958
 30
0.0
 10
68.70932886737128
 20
29.42938367319821
 30
0.0
 10
69.12963051657177
 20
28.0241292247648
 30
0.0
 10
70.32060002582263
 20
25.5295355838954
 30
0.0
 10
69.9478406943186
 20
24.06537000266421
 30
0.0
  0
SPLINE
  5
42
330
1F
100
AcDbEntity
  8
Layer 1
370
     0
100
AcDbSpline
210
0.0
220
0.0
230
1.0
 70
    11
 71
     3
 72
    41
 73
    37
 74
     0
 42
0.0000000001
 43
0.0000000001
 40
0.0
 40
0.0
 40
0.0
 40
0.0
 40
1.0
 40
1.0
 40
1.0
 40
2.0
 40
2.0
 40
2.0
 40
3.0
 40
3.0
 40
3.0
 40
4.0
 40
4.0
 40
4.0
 40
5.0
 40
5.0
 40
5.0
 40
6.0
 40
6.0
 40
6.0
 40
7.0
 40
7.0
 40
7.0
 40
8.0
 40
8.0
 40
8.0
 40
9.0
 40
9.0
 40
9.0
 40
10.0
 40
10.0
 40
10.0
 40
11.0
 40
11.0
 40
11.0
 40
12.0
 40
12.0
 40
12.0
 40
12.0
 10
64.13320853431392
 20
55.22935925268572
 30
0.0
 10
63.19131942864662
 20
57.73704425639907
 30
0.0
 10
61.83532984565228
 20
60.05593802752074
 30
0.0
 10
60.8951632877276
 20
62.57912596091772
 30
0.0
 10
60.09245603966439
 20
64.7362724990069
 30
0.0
 10
59.70488279757378
 20
66.21559650037318
 30
0.0
 10
61.10014646909997
 20
68.11970077507077
 30
0.0
 10
62.06270614767877
 20
69.4348659765649
 30
0.0
 10
63.89480792673464
 20
69.99452173814373
 30
0.0
 10
65.56809080392048
 20
70.07754853933825
 30
0.0
 10
67.81394855075484
 20
70.18779159486625
 30
0.0
 10
71.25284286413124
 20
68.36223549723236
 30
0.0
 10
72.91200084982756
 20
66.95060762215124
 30
0.0
 10
74.82609590143237
 20
65.323661279242
 30
0.0
 10
76.27785913891665
 20
62.99167614527639
 30
0.0
 10
76.98513724203845
 20
60.60233017148136
 30
0.0
 10
78.45963810972538
 20
55.63277993400848
 30
0.0
 10
77.77406410816066
 20
50.60586885670617
 30
0.0
 10
77.27142467686271
 20
45.55415309191007
 30
0.0
 10
76.69747176902008
 20
39.78396266366512
 30
0.0
 10
76.54829913450877
 20
33.98276637605292
 30
0.0
 10
76.38327906076529
 20
28.18914929850827
 30
0.0
 10
76.35537378733477
 20
27.21074218069732
 30
0.0
 10
75.98089190808811
 20
19.10684407074412
 30
0.0
 10
73.51558157884332
 20
20.68159721705182
 30
0.0
 10
72.70150551567879
 20
21.19939506848488
 30
0.0
 10
72.89374184375573
 20
23.61888562777584
 30
0.0
 10
72.82242836721106
 20
24.4374403150712
 30
0.0
 10
72.65499672662791
 20
26.34636772344813
 30
0.0
 10
72.51374781173267
 20
28.19466145128467
 30
0.0
 10
72.3225450123013
 20
30.01677245343331
 30
0.0
 10
71.952886266734
 20
33.55970865046424
 30
0.0
 10
71.40063746044845
 20
36.99481335880685
 30
0.0
 10
70.13008624548831
 20
40.55807561920076
 30
0.0
 10
68.35551756103612
 20
45.5393391813235
 30
0.0
 10
65.99183754860621
 20
50.28202988109269
 30
0.0
 10
64.13320853431392
 20
55.22935925268572
 30
0.0
  0
HATCH
  5
43
330
1F
100
AcDbEntity
  8
Layer 1
 62
   232
420
 14756438
100
AcDbHatch
 10
0.0
 20
0.0
 30
0.0
210
0.0
220
0.0
230
1.0
  2
SOLID
 70
     1
 71
     0
 91
        7
 92
        1
 93
        1
 72
     4
 94
        3
 73
     0
 74
     1
 95
      167
 96
      163
 40
0.0
 40
0.0
 40
0.0
 40
0.0
 40
1.0
 40
1.0
 40
1.0
 40
2.0
 40
2.0
 40
2.0
 40
3.0
 40
3.0
 40
3.0
 40
4.0
 40
4.0
 40
4.0
 40
5.0
 40
5.0
 40
5.0
 40
6.0
 40
6.0
 40
6.0
 40
7.0
 40
7.0
 40
7.0
 40
8.0
 40
8.0
 40
8.0
 40
9.0
 40
9.0
 40
9.0
 40
10.0
 40
10.0
 40
10.0
 40
11.0
 40
11.0
 40
11.0
 40
12.0
 40
12.0
 40
12.0
 40
13.0
 40
13.0
 40
13.0
 40
14.0
 40
14.0
 40
14.0
 40
15.0
 40
15.0
 40
15.0
 40
16.0
 40
16.0
 40
16.0
 40
17.0
 40
17.0
 40
17.0
 40
18.0
 40
18.0
 40
18.0
 40
19.0
 40
19.0
 40
19.0
 40
20.0
 40
20.0
 40
20.0
 40
21.0
 40
21.0
 40
21.0
 40
22.0
 40
22.0
 40
22.0
 40
23.0
 40
23.0
 40
23.0
 40
24.0
 40
24.0
 40
24.0
 40
25.0
 40
25.0
 40
25.0
 40
26.0
 40
26.0
 40
26.0
 40
27.0
 40
27.0
 40
27.0
 40
28.0
 40
28.0
 40
28.0
 40
29.0
 40
29.0
 40
29.0
 40
30.0
 40
30.0
 40
30.0
 40
31.0
 40
31.0
 40
31.0
 40
32.0
 40
32.0
 40
32.0
 40
33.0
 40
33.0
 40
33.0
 40
34.0
 40
34.0
 40
34.0
 40
35.0
 40
35.0
 40
35.0
 40
36.0
 40
36.0
 40
36.0
 40
37.0
 40
37.0
 40
37.0
 40
38.0
 40
38.0
 40
38.0
 40
39.0
 40
39.0
 40
39.0
 40
40.0
 40
40.0
 40
40.0
 40
41.0
 40
41.0
 40
41.0
 40
42.0
 40
42.0
 40
42.0
 40
43.0
 40
43.0
 40
43.0
 40
44.0
 40
44.0
 40
44.0
 40
45.0
 40
45.0
 40
45.0
 40
46.0
 40
46.0
 40
46.0
 40
47.0
 40
47.0
 40
47.0
 40
48.0
 40
48.0
 40
48.0
 40
49.0
 40
49.0
 40
49.0
 40
50.0
 40
50.0
 40
50.0
 40
51.0
 40
51.0
 40
51.0
 40
52.0
 40
52.0
 40
52.0
 40
53.0
 40
53.0
 40
53.0
 40
54.0
 40
54.0
 40
54.0
 40
54.0
 10
100.1957790548122
 20
46.20562064817082
 10
99.9425645366463
 20
45.54588486274547
 10
99.77168780057792
 20
44.85032008427353
 10
99.54052189351765
 20
44.18610567471737
 10
98.945553903215
 20
42.4835394859069
 10
98.11976451540062
 20
40.86089951235422
 10
97.20922577864908
 20
39.30681693895802
 10
95.74816078335463
 20
36.81291231718566
 10
94.03284774124873
 20
34.18361544284299
 10
91.86416013328396
 20
32.23644747457978
 10
91.72084416109757
 20
32.34255641552547
 10
91.5709825074892
 20
32.44211967504919
 10
91.41044105787655
 20
32.52859157172897
 10
91.17789711262219
 20
32.65399304739206
 10
90.93605140955766
 20
32.74597709684823
 10
90.69007159191082
 20
32.81935763068405
 10
91.95442163499752
 20
36.67579751687272
 10
93.83165416491015
 20
46.07126192424607
 10
93.1402235010205
 20
49.95216198838002
 10
93.10542803661949
 20
50.54799125255398
 10
92.86220429536084
 20
52.60901962660469
 10
91.86760522876921
 20
51.78409151266162
 10
91.48037649622714
 20
51.46300861343634
 10
91.62265893976794
 20
50.3311224917575
 10
91.6398844171942
 20
49.88636066461174
 10
92.55559079717361
 20
44.10755749765367
 10
89.50185815904815
 20
34.59358180558772
 10
88.23991968280113
 20
33.21347655419663
 10
87.9870496741838
 20
32.93683538673107
 10
87.95087617158867
 20
32.832448993528
 10
88.01633298580842
 20
32.78008354215221
 10
86.58937443581794
 20
32.398022452838
 10
85.12073023045593
 20
31.52916937145799
 10
83.80573728373606
 20
30.47049152884071
 10
82.15725909404402
 20
29.20683050485107
 10
81.92023652465883
 20
26.38529730243145
 10
83.37923446266214
 20
24.07088215544061
 10
81.93263886840573
 20
23.49382866166127
 10
79.76257322224686
 20
22.69422199953478
 10
77.80748153436758
 20
21.68412000325953
 10
78.76211749333031
 20
25.68732095711984
 10
79.39877113900448
 20
29.72325031809002
 10
80.87396102578846
 20
33.64755858533811
 10
82.80907115985329
 20
38.79246418301022
 10
84.47098522193781
 20
44.05794812266607
 10
84.11303980102035
 20
49.62694497457243
 10
83.48741046089899
 20
59.36433510885684
 10
80.7254774103742
 20
69.54390324867306
 10
76.92794865698329
 20
78.52423365007381
 10
75.87340492894832
 20
81.01865503616895
 10
74.67003307595056
 20
83.44744735327009
 10
73.19070907458428
 20
85.72000459011514
 10
71.16843802474261
 20
88.8269639534877
 10
68.47437335527724
 20
91.38477509651145
 10
66.25883244871308
 20
94.33963349421023
 10
64.62585718870464
 20
96.51779511475945
 10
62.88229436361971
 20
99.00274248827016
 10
60.48416339633729
 20
100.4093749748977
 10
59.38276636970292
 20
101.0556748879305
 10
57.86175671296512
 20
101.2784003110519
 10
56.6783664137818
 20
100.6438137226689
 10
53.13784178359055
 20
98.7434990530051
 10
52.92252331576243
 20
93.34417315374729
 10
53.50646700051227
 20
89.88908689159024
 10
53.9894693875443
 20
87.03568655593206
 10
54.21787921821637
 20
84.72144366371548
 10
52.61349825073552
 20
82.16707761617698
 10
50.26377087502087
 20
78.42673744784123
 10
46.06333820463
 20
76.52401121133775
 10
43.10658500441433
 20
73.36744247297759
 10
37.48780652274611
 20
67.36884221406056
 10
39.37968070847106
 20
58.94902884810997
 10
41.64362520660298
 20
51.96048040150641
 10
42.21430527373462
 20
50.19883082512391
 10
44.47377114773573
 20
46.61696504910965
 10
42.64907632397315
 20
44.9726209739999
 10
40.62577174548592
 20
43.14982095275421
 10
36.8141181006055
 20
45.66542967608365
 10
34.49832491542056
 20
45.63752440265312
 10
30.74282632694971
 20
45.5917046326993
 10
26.63041584620698
 20
43.83263887793073
 10
23.8927707188532
 20
41.30118271536915
 10
19.68217501678085
 20
37.40891383613388
 10
19.68303629065216
 20
31.7927191760796
 10
20.00653075671712
 20
26.4728027277568
 10
20.12762586302365
 20
24.46672362669582
 10
19.67545708058461
 20
21.8436279242266
 10
18.14307860874548
 20
20.33295355394454
 10
16.64480658221033
 20
18.85431857167531
 10
13.08378363388183
 20
18.88601345013961
 10
11.1693440727285
 20
19.33594292051324
 10
8.78327093964446
 20
19.89680446551191
 10
7.089145234772853
 20
20.30849337599927
 10
4.508768716320724
 20
19.77553710443112
 10
2.601736110460677
 20
19.38004014272444
 10
0.6459554034843445
 20
18.42747124105286
 10
0.1224731445006317
 20
16.30908202717273
 10
-0.5167643227874756
 20
13.71733669361928
 10
1.457447645034944
 20
11.55553927662501
 10
3.479546440102336
 20
10.37145995834464
 10
9.591145830935547
 20
6.793039277815629
 10
13.36473117070396
 20
14.47319064308309
 10
18.97937553778988
 20
15.44022894579272
 10
21.53908148333051
 20
15.88292371564733
 10
23.17946369863222
 20
14.12764756591253
 10
24.3175509921845
 20
12.02682833900718
 10
25.84751789718396
 20
9.201161022005266
 10
27.28722330046986
 20
6.112288409930262
 10
30.56488714513656
 20
5.025016274785413
 10
34.18671602877971
 20
3.823711479078795
 10
38.3502861774784
 20
5.09047308900516
 10
41.91733804290608
 20
5.973795571423218
 10
46.08555907050986
 20
7.007324216998169
 10
50.13423528477547
 20
8.454608830351626
 10
54.16241318090384
 20
9.93083224578118
 10
57.16998153952695
 20
11.03326280106113
 10
60.10382485476571
 20
12.34171006635902
 10
63.16203611702199
 20
13.30702582132602
 10
65.73724499224625
 20
14.11937933674793
 10
68.26973468345341
 20
14.29163411101043
 10
70.87663843714195
 20
14.65474717515576
 10
70.08805608056826
 20
13.53509114244956
 10
69.39800345487272
 20
12.56701931109436
 10
68.86332463556195
 20
11.99788953693108
 10
65.1381428873613
 20
8.03465169069967
 10
56.6576958408703
 20
5.061189777380537
 10
49.83020560820217
 20
3.18740234295315
 10
48.84266898735531
 20
2.916617837812512
 10
48.11127521583677
 20
2.074636501217452
 10
48.28938665242418
 20
1.211295572613843
 10
48.46732583423734
 20
0.3493326822043335
 10
49.50206026323212
 20
-0.1808675129756165
 10
50.56504447520597
 20
0.0571885850551473
 10
57.87450356626054
 20
1.693264431000295
 10
65.8467990286772
 20
5.809120007228276
 10
71.71172958276651
 20
7.180268010357711
 10
73.6599310796753
 20
7.63570963350774
 10
77.79060056648986
 20
8.289244247059633
 10
81.21674802657081
 20
10.0662244983515
 10
85.27024737451578
 20
12.16945529209653
 10
88.66848956116621
 20
16.40588921030825
 10
88.92480466526881
 20
21.1267035537461
 10
88.9055121305514
 20
21.14392903117235
 10
88.88690861493106
 20
21.1625325467927
 10
88.86761608021365
 20
21.17975802421895
 10
91.5558240873541
 20
21.27587618825742
 10
93.72864580990118
 20
23.00014647862496
 10
93.87575138712134
 20
25.04584417776632
 10
94.05799693829105
 20
26.96269530575933
 10
93.92811683849715
 20
28.91261935041074
 10
93.27010360081442
 20
30.40641275281506
 10
93.2821614350128
 20
30.42088215385311
 10
93.29353025011412
 20
30.43121744030886
 10
93.30593259386102
 20
30.44706487954101
 10
95.79398055330846
 20
33.57762314698754
 10
100.8568928784316
 20
41.87065699908095
 10
101.5428113895449
 20
45.78600801806739
 10
101.7567518191789
 20
47.00798338668551
 10
101.3664225007001
 20
48.58308104254174
 10
100.4717312031807
 20
46.83193900738924
 10
100.3680338290747
 20
46.62833386421097
 10
100.2774278178126
 20
46.41887205870778
 10
100.1957790548122
 20
46.20562064817082
 97
        0
 92
        1
 93
        1
 72
     4
 94
        3
 73
     0
 74
     1
 95
       20
 96
       16
 40
0.0
 40
0.0
 40
0.0
 40
0.0
 40
1.0
 40
1.0
 40
1.0
 40
2.0
 40
2.0
 40
2.0
 40
3.0
 40
3.0
 40
3.0
 40
4.0
 40
4.0
 40
4.0
 40
5.0
 40
5.0
 40
5.0
 40
5.0
 10
50.86804062313369
 20
65.66369220363616
 10
52.8601670874794
 20
66.14359400473147
 10
55.91527776379896
 20
64.30546330857642
 10
57.13242999873773
 20
62.84508733237901
 10
58.06363930840076
 20
61.72646482831838
 10
58.35061576232207
 20
60.67743325305981
 10
58.53699542807409
 20
59.24926891964949
 10
58.80226778043833
 20
57.22510306729095
 10
59.74174531926595
 20
54.20909422472898
 10
56.62875703879421
 20
56.06152206714782
 10
54.70122611479692
 20
57.20977239238159
 10
52.87980413174533
 20
58.72940401092529
 10
51.20721027365654
 20
60.10399710953997
 10
49.65502250277722
 20
61.3805772415993
 10
47.80793455836052
 20
64.9291978461809
 10
50.86804062313369
 20
65.66369220363616
 97
        0
 92
        1
 93
        1
 72
     4
 94
        3
 73
     0
 74
     1
 95
       32
 96
       28
 40
0.0
 40
0.0
 40
0.0
 40
0.0
 40
1.0
 40
1.0
 40
1.0
 40
2.0
 40
2.0
 40
2.0
 40
3.0
 40
3.0
 40
3.0
 40
4.0
 40
4.0
 40
4.0
 40
5.0
 40
5.0
 40
5.0
 40
6.0
 40
6.0
 40
6.0
 40
7.0
 40
7.0
 40
7.0
 40
8.0
 40
8.0
 40
8.0
 40
9.0
 40
9.0
 40
9.0
 40
9.0
 10
39.47803818457493
 20
36.54522839798175
 10
41.43933104432767
 20
39.2361924815104
 10
44.80036619973741
 20
39.00054795031931
 10
47.6670301530138
 20
37.94083657905646
 10
51.44354382394467
 20
36.54626192662732
 10
54.94548338470113
 20
33.79294161481565
 10
57.88070473813399
 20
31.11816948006768
 10
59.32351072735663
 20
29.80352104289634
 10
60.93960501948732
 20
28.6473469980465
 10
62.26114364762916
 20
27.20523002792092
 10
63.00562878199165
 20
26.39080945520785
 10
65.07682018772385
 20
24.88874782363893
 10
65.34105901144251
 20
23.88760307562532
 10
66.09553492271223
 20
21.00784775950498
 10
59.16917044961743
 20
24.07708332731406
 10
58.02367620077186
 20
24.31238334895663
 10
56.02242023339023
 20
24.72200520215283
 10
53.86475693097826
 20
24.97211913438197
 10
51.82388236551625
 20
24.96385090521737
 10
49.23196477718854
 20
24.95489365695572
 10
46.03956704578178
 20
24.57800021086939
 10
43.61542560758573
 20
25.54848360906427
 10
40.96115179097499
 20
26.61164007581237
 10
38.94801024416925
 20
28.52401257967455
 10
38.07674559594957
 20
31.2783664201318
 10
37.43268499498211
 20
33.3178629473997
 10
38.29051377080932
 20
34.9160427430071
 10
39.47803818457493
 20
36.54522839798175
 97
        0
 92
        1
 93
        1
 72
     4
 94
        3
 73
     0
 74
     1
 95
       17
 96
       13
 40
0.0
 40
0.0
 40
0.0
 40
0.0
 40
1.0
 40
1.0
 40
1.0
 40
2.0
 40
2.0
 40
2.0
 40
3.0
 40
3.0
 40
3.0
 40
4.0
 40
4.0
 40
4.0
 40
4.0
 10
26.46711832020614
 20
26.18134764970467
 10
27.19420572236812
 20
28.76310220635089
 10
29.59681531378135
 20
29.08487412467323
 10
31.89004312353791
 20
28.53917099980965
 10
33.52456867651469
 20
28.15021971952495
 10
37.12348767518093
 20
27.06260307483157
 10
38.24452174608123
 20
25.72659504565168
 10
40.51122232060136
 20
23.02908528070106
 10
33.46307372210298
 20
23.11176757234706
 10
32.16255017642117
 20
22.97637531977674
 10
29.95028211056799
 20
22.74589843181353
 10
25.50231932956192
 20
22.75278862278403
 10
26.46711832020614
 20
26.18134764970467
 97
        0
 92
        1
 93
        1
 72
     4
 94
        3
 73
     0
 74
     1
 95
       35
 96
       31
 40
0.0
 40
0.0
 40
0.0
 40
0.0
 40
1.0
 40
1.0
 40
1.0
 40
2.0
 40
2.0
 40
2.0
 40
3.0
 40
3.0
 40
3.0
 40
4.0
 40
4.0
 40
4.0
 40
5.0
 40
5.0
 40
5.0
 40
6.0
 40
6.0
 40
6.0
 40
7.0
 40
7.0
 40
7.0
 40
8.0
 40
8.0
 40
8.0
 40
9.0
 40
9.0
 40
9.0
 40
10.0
 40
10.0
 40
10.0
 40
10.0
 10
65.23253850365715
 20
17.21514213979344
 10
62.70383841748377
 20
16.3790174655233
 10
59.88885089648613
 20
16.36695963132493
 10
57.27195636589035
 20
15.94803602031855
 10
54.20168726943569
 20
15.45469834683077
 10
51.15794540821746
 20
14.7904839372746
 10
48.15898978830748
 20
13.96779513539694
 10
46.12001002536236
 20
13.40727809994679
 10
44.14631482186273
 20
12.7372070280657
 10
42.35658771727544
 20
11.89109157688834
 10
41.52287460984498
 20
11.49731716292428
 10
40.83230521982665
 20
10.94610188528431
 10
39.95587292837909
 20
10.61020507547245
 10
37.88812661813213
 20
9.816455075670886
 10
35.12188719825078
 20
8.962415904877451
 10
33.02020669747412
 20
10.04176432040623
 10
28.47199163784728
 20
12.37857258805119
 10
31.22169459939944
 20
16.25396049940873
 10
33.56694335098327
 20
18.74717610208404
 10
35.76508652534692
 20
21.08363986018048
 10
40.78786348806693
 20
22.00244682609661
 10
43.9990369898683
 20
22.22189940850703
 10
47.16008435235928
 20
22.43790689543219
 10
50.28650850522352
 20
22.69973415231118
 10
53.46236977830107
 20
22.59775932594778
 10
56.89781899619221
 20
22.48717176087126
 10
59.78274195554043
 20
21.85017360564857
 10
62.96394312662013
 20
20.65541449136392
 10
64.20107691537335
 20
20.18998209130667
 10
68.72207572066671
 20
18.36924912735213
 10
65.23253850365715
 20
17.21514213979344
 97
        0
 92
        1
 93
        1
 72
     4
 94
        3
 73
     0
 74
     1
 95
       32
 96
       28
 40
0.0
 40
0.0
 40
0.0
 40
0.0
 40
1.0
 40
1.0
 40
1.0
 40
2.0
 40
2.0
 40
2.0
 40
3.0
 40
3.0
 40
3.0
 40
4.0
 40
4.0
 40
4.0
 40
5.0
 40
5.0
 40
5.0
 40
6.0
 40
6.0
 40
6.0
 40
7.0
 40
7.0
 40
7.0
 40
8.0
 40
8.0
 40
8.0
 40
9.0
 40
9.0
 40
9.0
 40
9.0
 10
69.9478406943186
 20
24.06537000266421
 10
69.07450898880776
 20
20.64232312851998
 10
66.37217609017779
 20
26.43077256283675
 10
65.81510415021289
 20
27.37335068760111
 10
63.80868053960339
 20
30.7653917023781
 10
61.5114908700388
 20
33.38642034755618
 10
58.63965927353453
 20
36.1335394874944
 10
57.00668401352611
 20
37.69554578050667
 10
51.00842826415762
 20
41.52373588371629
 10
52.80160046423016
 20
44.26051973719876
 10
54.35292696123816
 20
46.63074543105065
 10
57.53619518960901
 20
45.62098794432392
 10
59.06754013280256
 20
43.90360784492687
 10
58.56248913466494
 20
45.5889485563111
 10
55.77609590619487
 20
50.36298962499606
 10
59.16503633503513
 20
50.79155950336114
 10
61.64481606531797
 20
51.10661348548724
 10
63.69705944588129
 20
48.12178275706678
 10
64.31545408548364
 20
46.12845050930122
 10
65.4664604871056
 20
42.41670463349305
 10
66.43659937575197
 20
38.55027397039716
 10
67.23655054742697
 20
34.77065971352956
 10
67.62136771312939
 20
32.96198458377339
 10
68.18188474857953
 20
31.19947373351958
 10
68.70932886737128
 20
29.42938367319821
 10
69.12963051657177
 20
28.0241292247648
 10
70.32060002582263
 20
25.5295355838954
 10
69.9478406943186
 20
24.06537000266421
 97
        0
 92
        1
 93
        1
 72
     4
 94
        3
 73
     0
 74
     1
 95
       41
 96
       37
 40
0.0
 40
0.0
 40
0.0
 40
0.0
 40
1.0
 40
1.0
 40
1.0
 40
2.0
 40
2.0
 40
2.0
 40
3.0
 40
3.0
 40
3.0
 40
4.0
 40
4.0
 40
4.0
 40
5.0
 40
5.0
 40
5.0
 40
6.0
 40
6.0
 40
6.0
 40
7.0
 40
7.0
 40
7.0
 40
8.0
 40
8.0
 40
8.0
 40
9.0
 40
9.0
 40
9.0
 40
10.0
 40
10.0
 40
10.0
 40
11.0
 40
11.0
 40
11.0
 40
12.0
 40
12.0
 40
12.0
 40
12.0
 10
64.13320853431392
 20
55.22935925268572
 10
63.19131942864662
 20
57.73704425639907
 10
61.83532984565228
 20
60.05593802752074
 10
60.8951632877276
 20
62.57912596091772
 10
60.09245603966439
 20
64.7362724990069
 10
59.70488279757378
 20
66.21559650037318
 10
61.10014646909997
 20
68.11970077507077
 10
62.06270614767877
 20
69.4348659765649
 10
63.89480792673464
 20
69.99452173814373
 10
65.56809080392048
 20
70.07754853933825
 10
67.81394855075484
 20
70.18779159486625
 10
71.25284286413124
 20
68.36223549723236
 10
72.91200084982756
 20
66.95060762215124
 10
74.82609590143237
 20
65.323661279242
 10
76.27785913891665
 20
62.99167614527639
 10
76.98513724203845
 20
60.60233017148136
 10
78.45963810972538
 20
55.63277993400848
 10
77.77406410816066
 20
50.60586885670617
 10
77.27142467686271
 20
45.55415309191007
 10
76.69747176902008
 20
39.78396266366512
 10
76.54829913450877
 20
33.98276637605292
 10
76.38327906076529
 20
28.18914929850827
 10
76.35537378733477
 20
27.21074218069732
 10
75.98089190808811
 20
19.10684407074412
 10
73.51558157884332
 20
20.68159721705182
 10
72.70150551567879
 20
21.19939506848488
 10
72.89374184375573
 20
23.61888562777584
 10
72.82242836721106
 20
24.4374403150712
 10
72.65499672662791
 20
26.34636772344813
 10
72.51374781173267
 20
28.19466145128467
 10
72.3225450123013
 20
30.01677245343331
 10
71.952886266734
 20
33.55970865046424
 10
71.40063746044845
 20
36.99481335880685
 10
70.13008624548831
 20
40.55807561920076
 10
68.35551756103612
 20
45.5393391813235
 10
65.99183754860621
 20
50.28202988109269
 10
64.13320853431392
 20
55.22935925268572
 97
        0
 75
     2
 76
     1
 98
        0
  0
ENDSEC
  0
SECTION
  2
OBJECTS
  0
DICTIONARY
  5
C
330
0
100
AcDbDictionary
281
     1
  3
ACAD_GROUP
350
D
  3
ACAD_LAYOUT
350
1A
  3
ACAD_MLINESTYLE
350
17
  3
ACAD_PLOTSETTINGS
350
19
  3
ACAD_PLOTSTYLENAME
350
E
  3
ACAD_TABLESTYLE
350
44
  3
ACAD_VISUALSTYLE
350
2A
  0
DICTIONARY
  5
D
102
{ACAD_REACTORS
330
C
102
}
330
C
100
AcDbDictionary
281
     1
  0
DICTIONARY
  5
1A
102
{ACAD_REACTORS
330
C
102
}
330
C
100
AcDbDictionary
281
     1
  3
Layout1
350
1E
  3
Layout2
350
26
  3
Model
350
22
  0
DICTIONARY
  5
17
102
{ACAD_REACTORS
330
C
102
}
330
C
100
AcDbDictionary
281
     1
  3
Standard
350
18
  0
DICTIONARY
  5
19
102
{ACAD_REACTORS
330
C
102
}
330
C
100
AcDbDictionary
281
     1
  0
ACDBDICTIONARYWDFLT
  5
E
102
{ACAD_REACTORS
330
C
102
}
330
C
100
AcDbDictionary
281
     1
  3
Normal
350
F
100
AcDbDictionaryWithDefault
340
F
  0
DICTIONARY
  5
44
102
{ACAD_REACTORS
330
C
102
}
330
C
100
AcDbDictionary
281
     1
  0
DICTIONARY
  5
2A
102
{ACAD_REACTORS
330
C
102
}
330
C
100
AcDbDictionary
281
     1
  3
2dWireframe
350
2F
  3
3D Hidden
350
31
  3
3dWireframe
350
30
  3
Basic
350
32
  3
Brighten
350
36
  3
ColorChange
350
3A
  3
Conceptual
350
34
  3
Dim
350
35
  3
Facepattern
350
39
  3
Flat
350
2B
  3
FlatWithEdges
350
2C
  3
Gouraud
350
2D
  3
GouraudWithEdges
350
2E
  3
Linepattern
350
38
  3
Realistic
350
33
  3
Thicken
350
37
  0
LAYOUT
  5
1E
102
{ACAD_REACTORS
330
1A
102
}
330
1A
100
AcDbPlotSettings
  1

  2
none_device
  4

  6

 40
0.0
 41
0.0
 42
0.0
 43
0.0
 44
0.0
 45
0.0
 46
0.0
 47
0.0
 48
0.0
 49
0.0
140
0.0
141
0.0
142
1.0
143
1.0
 70
   688
 72
     0
 73
     0
 74
     5
  7

 75
    16
 76
     0
 77
     2
 78
   300
147
1.0
148
0.0
149
0.0
100
AcDbLayout
  1
Layout1
 70
     1
 71
     1
 10
0.0
 20
0.0
 11
12.0
 21
9.0
 12
0.0
 22
0.0
 32
0.0
 14
1.000000000000000E+20
 24
1.000000000000000E+20
 34
1.000000000000000E+20
 15
-1.000000000000000E+20
 25
-1.000000000000000E+20
 35
-1.000000000000000E+20
146
0.0
 13
0.0
 23
0.0
 33
0.0
 16
1.0
 26
0.0
 36
0.0
 17
0.0
 27
1.0
 37
0.0
 76
     0
330
1B
  0
LAYOUT
  5
26
102
{ACAD_REACTORS
330
1A
102
}
330
1A
100
AcDbPlotSettings
  1

  2
none_device
  4

  6

 40
0.0
 41
0.0
 42
0.0
 43
0.0
 44
0.0
 45
0.0
 46
0.0
 47
0.0
 48
0.0
 49
0.0
140
0.0
141
0.0
142
1.0
143
1.0
 70
   688
 72
     0
 73
     0
 74
     5
  7

 75
    16
 76
     0
 77
     2
 78
   300
147
1.0
148
0.0
149
0.0
100
AcDbLayout
  1
Layout2
 70
     1
 71
     2
 10
0.0
 20
0.0
 11
0.0
 21
0.0
 12
0.0
 22
0.0
 32
0.0
 14
0.0
 24
0.0
 34
0.0
 15
0.0
 25
0.0
 35
0.0
146
0.0
 13
0.0
 23
0.0
 33
0.0
 16
1.0
 26
0.0
 36
0.0
 17
0.0
 27
1.0
 37
0.0
 76
     0
330
23
  0
LAYOUT
  5
22
102
{ACAD_REACTORS
330
1A
102
}
330
1A
100
AcDbPlotSettings
  1

  2
none_device
  4

  6

 40
0.0
 41
0.0
 42
0.0
 43
0.0
 44
0.0
 45
0.0
 46
0.0
 47
0.0
 48
0.0
 49
0.0
140
0.0
141
0.0
142
1.0
143
1.0
 70
  1712
 72
     0
 73
     0
 74
     0
  7

 75
     0
 76
     0
 77
     2
 78
   300
147
1.0
148
0.0
149
0.0
100
AcDbLayout
  1
Model
 70
     1
 71
     0
 10
0.0
 20
0.0
 11
12.0
 21
9.0
 12
0.0
 22
0.0
 32
0.0
 14
1.000000000000000E+20
 24
1.000000000000000E+20
 34
1.000000000000000E+20
 15
-1.000000000000000E+20
 25
-1.000000000000000E+20
 35
-1.000000000000000E+20
146
0.0
 13
0.0
 23
0.0
 33
0.0
 16
1.0
 26
0.0
 36
0.0
 17
0.0
 27
1.0
 37
0.0
 76
     0
330
1F
331
29
  0
MLINESTYLE
  5
18
102
{ACAD_REACTORS
330
17
102
}
330
17
100
AcDbMlineStyle
  2
Standard
 70
     0
  3

 62
   256
 51
90.0
 52
90.0
 71
     2
 49
0.5
 62
   256
  6
BYLAYER
 49
-0.5
 62
   256
  6
BYLAYER
  0
ACDBPLACEHOLDER
  5
F
102
{ACAD_REACTORS
330
E
102
}
330
E
  0
VISUALSTYLE
  5
2F
102
{ACAD_REACTORS
330
2A
102
}
330
2A
100
AcDbVisualStyle
  2
2dWireframe
 70
     4
 71
     0
 72
     2
 73
     0
 90
        0
 40
-0.6
 41
-30.0
 62
     5
 63
     7
421
 16777215
 74
     1
 91
        4
 64
     7
 65
   257
 75
     1
175
     1
 42
1.0
 92
        0
 66
   257
 43
1.0
 76
     1
 77
     6
 78
     2
 67
     7
 79
     5
170
     0
171
     0
290
     0
174
     0
 93
        1
 44
0.0
173
     0
291
     0
 45
0.0
1001
ACAD
1000
AcDbSavedByObjectVersion
1070
     0
  0
VISUALSTYLE
  5
31
102
{ACAD_REACTORS
330
2A
102
}
330
2A
100
AcDbVisualStyle
  2
3D Hidden
 70
     6
 71
     1
 72
     2
 73
     2
 90
        0
 40
-0.6
 41
-30.0
 62
     5
 63
     7
421
 16777215
 74
     2
 91
        2
 64
     7
 65
   257
 75
     2
175
     1
 42
40.0
 92
        0
 66
   257
 43
1.0
 76
     1
 77
     6
 78
     2
 67
     7
 79
     3
170
     0
171
     0
290
     0
174
     0
 93
        1
 44
0.0
173
     0
291
     0
 45
0.0
1001
ACAD
1000
AcDbSavedByObjectVersion
1070
     0
  0
VISUALSTYLE
  5
30
102
{ACAD_REACTORS
330
2A
102
}
330
2A
100
AcDbVisualStyle
  2
3dWireframe
 70
     5
 71
     0
 72
     2
 73
     0
 90
        0
 40
-0.6
 41
-30.0
 62
     5
 63
     7
421
 16777215
 74
     1
 91
        4
 64
     7
 65
   257
 75
     1
175
     1
 42
1.0
 92
        0
 66
   257
 43
1.0
 76
     1
 77
     6
 78
     2
 67
     7
 79
     5
170
     0
171
     0
290
     0
174
     0
 93
        1
 44
0.0
173
     0
291
     0
 45
0.0
1001
ACAD
1000
AcDbSavedByObjectVersion
1070
     0
  0
VISUALSTYLE
  5
32
102
{ACAD_REACTORS
330
2A
102
}
330
2A
100
AcDbVisualStyle
  2
Basic
 70
     7
 71
     1
 72
     0
 73
     1
 90
        0
 40
-0.6
 41
-30.0
 62
     5
 63
     7
421
 16777215
 74
     0
 91
        4
 64
     7
 65
   257
 75
     1
175
     1
 42
1.0
 92
        8
 66
     7
 43
1.0
 76
     1
 77
     6
 78
     2
 67
     7
 79
     5
170
     0
171
     0
290
     0
174
     0
 93
        1
 44
0.0
173
     0
291
     1
 45
0.0
1001
ACAD
1000
AcDbSavedByObjectVersion
1070
     0
  0
VISUALSTYLE
  5
36
102
{ACAD_REACTORS
330
2A
102
}
330
2A
100
AcDbVisualStyle
  2
Brighten
 70
    12
 71
     2
 72
     2
 73
     0
 90
        0
 40
-0.6
 41
-30.0
 62
     5
 63
     7
421
 16777215
 74
     1
 91
        4
 64
     7
 65
   257
 75
     1
175
     1
 42
1.0
 92
        8
 66
     7
 43
1.0
 76
     1
 77
     6
 78
     2
 67
     7
 79
     5
170
     0
171
     0
290
     0
174
     0
 93
        1
 44
50.0
173
     0
291
     1
 45
0.0
1001
ACAD
1000
AcDbSavedByObjectVersion
1070
     0
  0
VISUALSTYLE
  5
3A
102
{ACAD_REACTORS
330
2A
102
}
330
2A
100
AcDbVisualStyle
  2
ColorChange
 70
    16
 71
     2
 72
     2
 73
     3
 90
        0
 40
-0.6
 41
-30.0
 62
     5
 63
     8
421
  8421504
 74
     1
 91
        4
 64
     7
 65
   257
 75
     1
175
     1
 42
1.0
 92
        8
 66
     8
424
  8421504
 43
1.0
 76
     1
 77
     6
 78
     2
 67
     7
 79
     5
170
     0
171
     0
290
     0
174
     0
 93
        1
 44
0.0
173
     0
291
     1
 45
0.0
1001
ACAD
1000
AcDbSavedByObjectVersion
1070
     0
  0
VISUALSTYLE
  5
34
102
{ACAD_REACTORS
330
2A
102
}
330
2A
100
AcDbVisualStyle
  2
Conceptual
 70
     9
 71
     3
 72
     2
 73
     0
 90
        0
 40
-0.6
 41
-30.0
 62
     5
 63
     7
421
 16777215
 74
     2
 91
        2
 64
     7
 65
   257
 75
     1
175
     1
 42
40.0
 92
        8
 66
     7
 43
1.0
 76
     1
 77
     6
 78
     2
 67
     7
 79
     3
170
     0
171
     0
290
     0
174
     0
 93
        1
 44
0.0
173
     0
291
     0
 45
0.0
1001
ACAD
1000
AcDbSavedByObjectVersion
1070
     0
  0
VISUALSTYLE
  5
35
102
{ACAD_REACTORS
330
2A
102
}
330
2A
100
AcDbVisualStyle
  2
Dim
 70
    11
 71
     2
 72
     2
 73
     0
 90
        0
 40
-0.6
 41
-30.0
 62
     5
 63
     7
421
 16777215
 74
     1
 91
        4
 64
     7
 65
   257
 75
     1
175
     1
 42
1.0
 92
        8
 66
     7
 43
1.0
 76
     1
 77
     6
 78
     2
 67
     7
 79
     5
170
     0
171
     0
290
     0
174
     0
 93
        1
 44
-50.0
173
     0
291
     1
 45
0.0
1001
ACAD
1000
AcDbSavedByObjectVersion
1070
     0
  0
VISUALSTYLE
  5
39
102
{ACAD_REACTORS
330
2A
102
}
330
2A
100
AcDbVisualStyle
  2
Facepattern
 70
    15
 71
     2
 72
     2
 73
     0
 90
        0
 40
-0.6
 41
-30.0
 62
     5
 63
     7
421
 16777215
 74
     1
 91
        4
 64
     7
 65
   257
 75
     1
175
     1
 42
1.0
 92
        8
 66
     7
 43
1.0
 76
     1
 77
     6
 78
     2
 67
     7
 79
     5
170
     0
171
     0
290
     0
174
     0
 93
        1
 44
0.0
173
     0
291
     1
 45
0.0
1001
ACAD
1000
AcDbSavedByObjectVersion
1070
     0
  0
VISUALSTYLE
  5
2B
102
{ACAD_REACTORS
330
2A
102
}
330
2A
100
AcDbVisualStyle
  2
Flat
 70
     0
 71
     2
 72
     1
 73
     1
 90
        2
 40
-0.6
 41
30.0
 62
     5
 63
     7
421
 16777215
 74
     0
 91
        4
 64
     7
 65
   257
 75
     1
175
     1
 42
1.0
 92
        8
 66
     7
 43
1.0
 76
     1
 77
     6
 78
     2
 67
     7
 79
     5
170
     0
171
     0
290
     0
174
     0
 93
       13
 44
0.0
173
     0
291
     1
 45
0.0
1001
ACAD
1000
AcDbSavedByObjectVersion
1070
     0
  0
VISUALSTYLE
  5
2C
102
{ACAD_REACTORS
330
2A
102
}
330
2A
100
AcDbVisualStyle
  2
FlatWithEdges
 70
     1
 71
     2
 72
     1
 73
     1
 90
        2
 40
-0.6
 41
30.0
 62
     5
 63
     7
421
 16777215
 74
     1
 91
        4
 64
     7
 65
   257
 75
     1
175
     1
 42
1.0
 92
        0
 66
   257
 43
1.0
 76
     1
 77
     6
 78
     2
 67
     7
 79
     5
170
     0
171
     0
290
     0
174
     0
 93
       13
 44
0.0
173
     0
291
     1
 45
0.0
1001
ACAD
1000
AcDbSavedByObjectVersion
1070
     0
  0
VISUALSTYLE
  5
2D
102
{ACAD_REACTORS
330
2A
102
}
330
2A
100
AcDbVisualStyle
  2
Gouraud
 70
     2
 71
     2
 72
     2
 73
     1
 90
        2
 40
-0.6
 41
30.0
 62
     5
 63
     7
421
 16777215
 74
     0
 91
        4
 64
     7
 65
   257
 75
     1
175
     1
 42
1.0
 92
        0
 66
     7
 43
1.0
 76
     1
 77
     6
 78
     2
 67
     7
 79
     5
170
     0
171
     0
290
     0
174
     0
 93
       13
 44
0.0
173
     0
291
     1
 45
0.0
1001
ACAD
1000
AcDbSavedByObjectVersion
1070
     0
  0
VISUALSTYLE
  5
2E
102
{ACAD_REACTORS
330
2A
102
}
330
2A
100
AcDbVisualStyle
  2
GouraudWithEdges
 70
     3
 71
     2
 72
     2
 73
     1
 90
        2
 40
-0.6
 41
30.0
 62
     5
 63
     7
421
 16777215
 74
     1
 91
        4
 64
     7
 65
   257
 75
     1
175
     1
 42
1.0
 92
        0
 66
   257
 43
1.0
 76
     1
 77
     6
 78
     2
 67
     7
 79
     5
170
     0
171
     0
290
     0
174
     0
 93
       13
 44
0.0
173
     0
291
     1
 45
0.0
1001
ACAD
1000
AcDbSavedByObjectVersion
1070
     0
  0
VISUALSTYLE
  5
38
102
{ACAD_REACTORS
330
2A
102
}
330
2A
100
AcDbVisualStyle
  2
Linepattern
 70
    14
 71
     2
 72
     2
 73
     0
 90
        0
 40
-0.6
 41
-30.0
 62
     5
 63
     7
421
 16777215
 74
     1
 91
        4
 64
     7
 65
   257
 75
     7
175
     7
 42
1.0
 92
        8
 66
     7
 43
1.0
 76
     1
 77
     6
 78
     2
 67
     7
 79
     5
170
     0
171
     0
290
     0
174
     0
 93
        1
 44
0.0
173
     0
291
     1
 45
0.0
1001
ACAD
1000
AcDbSavedByObjectVersion
1070
     0
  0
VISUALSTYLE
  5
33
102
{ACAD_REACTORS
330
2A
102
}
330
2A
100
AcDbVisualStyle
  2
Realistic
 70
     8
 71
     2
 72
     2
 73
     0
 90
        0
 40
-0.6
 41
-30.0
 62
     5
 63
     7
421
 16777215
 74
     1
 91
        0
 64
     7
 65
   257
 75
     1
175
     1
 42
1.0
 92
        8
 66
     8
424
  7895160
 43
1.0
 76
     1
 77
     6
 78
     2
 67
     7
 79
     5
170
     0
171
     0
290
     0
174
     0
 93
       13
 44
0.0
173
     0
291
     0
 45
0.0
1001
ACAD
1000
AcDbSavedByObjectVersion
1070
     0
  0
VISUALSTYLE
  5
37
102
{ACAD_REACTORS
330
2A
102
}
330
2A
100
AcDbVisualStyle
  2
Thicken
 70
    13
 71
     2
 72
     2
 73
     0
 90
        0
 40
-0.6
 41
-30.0
 62
     5
 63
     7
421
 16777215
 74
     1
 91
        4
 64
     7
 65
   257
 75
     1
175
     1
 42
1.0
 92
       12
 66
     7
 43
1.0
 76
     1
 77
     6
 78
     2
 67
     7
 79
     5
170
     0
171
     0
290
     0
174
     0
 93
        1
 44
0.0
173
     0
291
     1
 45
0.0
1001
ACAD
1000
AcDbSavedByObjectVersion
1070
     0
  0
ENDSEC
  0
EOF
