  0
SECTION
  2
HEADER
  9
$ACADVER
  1
AC1018
  9
$ACADMAINTVER
 70
     0
  9
$DWGCODEPAGE
  3
ANSI_1252
  9
$INSBASE
 10
0.0
 20
0.0
 30
0.0
  9
$EXTMIN
 10
1.000000000000000E+20
 20
1.000000000000000E+20
 30
1.000000000000000E+20
  9
$EXTMAX
 10
-1.000000000000000E+20
 20
-1.000000000000000E+20
 30
-1.000000000000000E+20
  9
$LIMMIN
 10
0.0
 20
0.0
  9
$LIMMAX
 10
12.0
 20
9.0
  9
$ORTHOMODE
 70
     0
  9
$REGENMODE
 70
     1
  9
$FILLMODE
 70
     1
  9
$QTEXTMODE
 70
     0
  9
$MIRRTEXT
 70
     1
  9
$LTSCALE
 40
1.0
  9
$ATTMODE
 70
     1
  9
$TEXTSIZE
 40
0.2
  9
$TRACEWID
 40
0.05
  9
$TEXTSTYLE
  7
Standard
  9
$CLAYER
  8
0
  9
$CELTYPE
  6
ByLayer
  9
$CECOLOR
 62
   256
  9
$CELTSCALE
 40
1.0
  9
$DISPSILH
 70
     0
  9
$DIMSCALE
 40
1.0
  9
$DIMASZ
 40
0.18
  9
$DIMEXO
 40
0.0625
  9
$DIMDLI
 40
0.38
  9
$DIMRND
 40
0.0
  9
$DIMDLE
 40
0.0
  9
$DIMEXE
 40
0.18
  9
$DIMTP
 40
0.0
  9
$DIMTM
 40
0.0
  9
$DIMTXT
 40
0.18
  9
$DIMCEN
 40
0.09
  9
$DIMTSZ
 40
0.0
  9
$DIMTOL
 70
     0
  9
$DIMLIM
 70
     0
  9
$DIMTIH
 70
     1
  9
$DIMTOH
 70
     1
  9
$DIMSE1
 70
     0
  9
$DIMSE2
 70
     0
  9
$DIMTAD
 70
     0
  9
$DIMZIN
 70
     0
  9
$DIMBLK
  1

  9
$DIMASO
 70
     1
  9
$DIMSHO
 70
     1
  9
$DIMPOST
  1

  9
$DIMAPOST
  1

  9
$DIMALT
 70
     0
  9
$DIMALTD
 70
     2
  9
$DIMALTF
 40
25.4
  9
$DIMLFAC
 40
1.0
  9
$DIMTOFL
 70
     0
  9
$DIMTVP
 40
0.0
  9
$DIMTIX
 70
     0
  9
$DIMSOXD
 70
     0
  9
$DIMSAH
 70
     0
  9
$DIMBLK1
  1

  9
$DIMBLK2
  1

  9
$DIMSTYLE
  2
Standard
  9
$DIMCLRD
 70
     0
  9
$DIMCLRE
 70
     0
  9
$DIMCLRT
 70
     0
  9
$DIMTFAC
 40
1.0
  9
$DIMGAP
 40
0.09
  9
$DIMJUST
 70
     0
  9
$DIMSD1
 70
     0
  9
$DIMSD2
 70
     0
  9
$DIMTOLJ
 70
     1
  9
$DIMTZIN
 70
     0
  9
$DIMALTZ
 70
     0
  9
$DIMALTTZ
 70
     0
  9
$DIMUPT
 70
     0
  9
$DIMDEC
 70
     4
  9
$DIMTDEC
 70
     4
  9
$DIMALTU
 70
     2
  9
$DIMALTTD
 70
     2
  9
$DIMTXSTY
  7
Standard
  9
$DIMAUNIT
 70
     0
  9
$DIMADEC
 70
     0
  9
$DIMALTRND
 40
0.0
  9
$DIMAZIN
 70
     0
  9
$DIMDSEP
 70
    46
  9
$DIMATFIT
 70
     3
  9
$DIMFRAC
 70
     0
  9
$DIMLDRBLK
  1

  9
$DIMLUNIT
 70
     2
  9
$DIMLWD
 70
    -2
  9
$DIMLWE
 70
    -2
  9
$DIMTMOVE
 70
     0
  9
$LUNITS
 70
     2
  9
$LUPREC
 70
     4
  9
$SKETCHINC
 40
0.1
  9
$FILLETRAD
 40
0.5
  9
$AUNITS
 70
     0
  9
$AUPREC
 70
     0
  9
$MENU
  1
.
  9
$ELEVATION
 40
0.0
  9
$PELEVATION
 40
0.0
  9
$THICKNESS
 40
0.0
  9
$LIMCHECK
 70
     0
  9
$CHAMFERA
 40
0.5
  9
$CHAMFERB
 40
0.5
  9
$CHAMFERC
 40
1.0
  9
$CHAMFERD
 40
0.0
  9
$SKPOLY
 70
     0
  9
$TDCREATE
 40
2455736.954408797
  9
$TDUCREATE
 40
2455737.204408797
  9
$TDUPDATE
 40
2455736.954408808
  9
$TDUUPDATE
 40
2455737.204408808
  9
$TDINDWG
 40
0.0000000116
  9
$TDUSRTIMER
 40
0.0000000116
  9
$USRTIMER
 70
     1
  9
$ANGBASE
 50
0.0
  9
$ANGDIR
 70
     0
  9
$PDMODE
 70
     0
  9
$PDSIZE
 40
0.0
  9
$PLINEWID
 40
0.0
  9
$SPLFRAME
 70
     0
  9
$SPLINETYPE
 70
     6
  9
$SPLINESEGS
 70
     8
  9
$HANDSEED
  5
3F
  9
$SURFTAB1
 70
     6
  9
$SURFTAB2
 70
     6
  9
$SURFTYPE
 70
     6
  9
$SURFU
 70
     6
  9
$SURFV
 70
     6
  9
$UCSBASE
  2

  9
$UCSNAME
  2

  9
$UCSORG
 10
0.0
 20
0.0
 30
0.0
  9
$UCSXDIR
 10
1.0
 20
0.0
 30
0.0
  9
$UCSYDIR
 10
0.0
 20
1.0
 30
0.0
  9
$UCSORTHOREF
  2

  9
$UCSORTHOVIEW
 70
     0
  9
$UCSORGTOP
 10
0.0
 20
0.0
 30
0.0
  9
$UCSORGBOTTOM
 10
0.0
 20
0.0
 30
0.0
  9
$UCSORGLEFT
 10
0.0
 20
0.0
 30
0.0
  9
$UCSORGRIGHT
 10
0.0
 20
0.0
 30
0.0
  9
$UCSORGFRONT
 10
0.0
 20
0.0
 30
0.0
  9
$UCSORGBACK
 10
0.0
 20
0.0
 30
0.0
  9
$PUCSBASE
  2

  9
$PUCSNAME
  2

  9
$PUCSORG
 10
0.0
 20
0.0
 30
0.0
  9
$PUCSXDIR
 10
1.0
 20
0.0
 30
0.0
  9
$PUCSYDIR
 10
0.0
 20
1.0
 30
0.0
  9
$PUCSORTHOREF
  2

  9
$PUCSORTHOVIEW
 70
     0
  9
$PUCSORGTOP
 10
0.0
 20
0.0
 30
0.0
  9
$PUCSORGBOTTOM
 10
0.0
 20
0.0
 30
0.0
  9
$PUCSORGLEFT
 10
0.0
 20
0.0
 30
0.0
  9
$PUCSORGRIGHT
 10
0.0
 20
0.0
 30
0.0
  9
$PUCSORGFRONT
 10
0.0
 20
0.0
 30
0.0
  9
$PUCSORGBACK
 10
0.0
 20
0.0
 30
0.0
  9
$USERI1
 70
     0
  9
$USERI2
 70
     0
  9
$USERI3
 70
     0
  9
$USERI4
 70
     0
  9
$USERI5
 70
     0
  9
$USERR1
 40
0.0
  9
$USERR2
 40
0.0
  9
$USERR3
 40
0.0
  9
$USERR4
 40
0.0
  9
$USERR5
 40
0.0
  9
$WORLDVIEW
 70
     1
  9
$SHADEDGE
 70
     3
  9
$SHADEDIF
 70
    70
  9
$TILEMODE
 70
     1
  9
$MAXACTVP
 70
    64
  9
$PINSBASE
 10
0.0
 20
0.0
 30
0.0
  9
$PLIMCHECK
 70
     0
  9
$PEXTMIN
 10
1.000000000000000E+20
 20
1.000000000000000E+20
 30
1.000000000000000E+20
  9
$PEXTMAX
 10
-1.000000000000000E+20
 20
-1.000000000000000E+20
 30
-1.000000000000000E+20
  9
$PLIMMIN
 10
0.0
 20
0.0
  9
$PLIMMAX
 10
12.0
 20
9.0
  9
$UNITMODE
 70
     0
  9
$VISRETAIN
 70
     1
  9
$PLINEGEN
 70
     0
  9
$PSLTSCALE
 70
     1
  9
$TREEDEPTH
 70
  3020
  9
$CMLSTYLE
  2
Standard
  9
$CMLJUST
 70
     0
  9
$CMLSCALE
 40
1.0
  9
$PROXYGRAPHICS
 70
     1
  9
$MEASUREMENT
 70
     0
  9
$CELWEIGHT
370
    -1
  9
$ENDCAPS
280
     0
  9
$JOINSTYLE
280
     0
  9
$LWDISPLAY
290
     1
  9
$INSUNITS
 70
     1
  9
$HYPERLINKBASE
  1

  9
$STYLESHEET
  1

  9
$XEDIT
290
     1
  9
$CEPSNTYPE
380
     0
  9
$PSTYLEMODE
290
     1
  9
$FINGERPRINTGUID
  2
{6F4F8F3B-298E-4880-B408-B8B878C977DA}
  9
$VERSIONGUID
  2
{FAEB1C32-E019-11D5-929B-00C0DF256EC4}
  9
$EXTNAMES
290
     1
  9
$PSVPSCALE
 40
0.0
  9
$OLESTARTUP
290
     0
  9
$SORTENTS
280
   127
  9
$INDEXCTL
280
     0
  9
$HIDETEXT
280
     1
  9
$XCLIPFRAME
290
     0
  9
$HALOGAP
280
     0
  9
$OBSCOLOR
 70
   257
  9
$OBSLTYPE
280
     0
  9
$INTERSECTIONDISPLAY
280
     0
  9
$INTERSECTIONCOLOR
 70
   257
  9
$DIMASSOC
280
     2
  9
$PROJECTNAME
  1

  0
ENDSEC
  0
SECTION
  2
CLASSES
  0
CLASS
  1
ACDBDICTIONARYWDFLT
  2
AcDbDictionaryWithDefault
  3
ObjectDBX Classes
 90
        0
 91
        3
280
     0
281
     0
  0
CLASS
  1
VISUALSTYLE
  2
AcDbVisualStyle
  3
ObjectDBX Classes
 90
     4095
 91
        3
280
     0
281
     0
  0
ENDSEC
  0
SECTION
  2
TABLES
  0
TABLE
  2
VPORT
  5
8
330
0
100
AcDbSymbolTable
 70
     1
  0
VPORT
  5
29
330
8
100
AcDbSymbolTableRecord
100
AcDbViewportTableRecord
  2
*Active
 70
     0
 10
0.0
 20
0.0
 11
1.0
 21
1.0
 12
0.0
 22
0.0
 13
0.0
 23
0.0
 14
0.5
 24
0.5
 15
0.5
 25
0.5
 16
0.0
 26
0.0
 36
1.0
 17
46.54082843888563
 27
50.7999999873
 37
0.0
 40
101.5999999746
 41
0.9161580403645833
 42
50.0
 43
0.0
 44
0.0
 50
0.0
 51
0.0
 71
     0
 72
   100
 73
     1
 74
     3
 75
     0
 76
     0
 77
     0
 78
     0
281
     0
 65
     1
110
0.0
120
0.0
130
0.0
111
1.0
121
0.0
131
0.0
112
0.0
122
1.0
132
0.0
 79
     0
146
0.0
  0
ENDTAB
  0
TABLE
  2
LTYPE
  5
5
330
0
100
AcDbSymbolTable
 70
     1
  0
LTYPE
  5
14
330
5
100
AcDbSymbolTableRecord
100
AcDbLinetypeTableRecord
  2
ByBlock
 70
     0
  3

 72
    65
 73
     0
 40
0.0
  0
LTYPE
  5
15
330
5
100
AcDbSymbolTableRecord
100
AcDbLinetypeTableRecord
  2
ByLayer
 70
     0
  3

 72
    65
 73
     0
 40
0.0
  0
LTYPE
  5
16
330
5
100
AcDbSymbolTableRecord
100
AcDbLinetypeTableRecord
  2
Continuous
 70
     0
  3
Solid line
 72
    65
 73
     0
 40
0.0
  0
ENDTAB
  0
TABLE
  2
LAYER
  5
2
330
0
100
AcDbSymbolTable
 70
     2
  0
LAYER
  5
10
330
2
100
AcDbSymbolTableRecord
100
AcDbLayerTableRecord
  2
0
 70
     0
 62
     7
  6
Continuous
370
    -3
390
F
  0
LAYER
  5
3B
330
2
100
AcDbSymbolTableRecord
100
AcDbLayerTableRecord
  2
Layer 1
 70
     0
 62
     7
  6
Continuous
370
    -3
390
F
  0
ENDTAB
  0
TABLE
  2
STYLE
  5
3
330
0
100
AcDbSymbolTable
 70
     1
  0
STYLE
  5
11
330
3
100
AcDbSymbolTableRecord
100
AcDbTextStyleTableRecord
  2
Standard
 70
     0
 40
0.0
 41
1.0
 50
0.0
 71
     0
 42
0.2
  3
txt
  4

  0
ENDTAB
  0
TABLE
  2
VIEW
  5
6
330
0
100
AcDbSymbolTable
 70
     0
  0
ENDTAB
  0
TABLE
  2
UCS
  5
7
330
0
100
AcDbSymbolTable
 70
     0
  0
ENDTAB
  0
TABLE
  2
APPID
  5
9
330
0
100
AcDbSymbolTable
 70
     1
  0
APPID
  5
12
330
9
100
AcDbSymbolTableRecord
100
AcDbRegAppTableRecord
  2
ACAD
 70
     0
  0
ENDTAB
  0
TABLE
  2
DIMSTYLE
  5
A
330
0
100
AcDbSymbolTable
 70
     1
100
AcDbDimStyleTable
  0
DIMSTYLE
105
27
330
A
100
AcDbSymbolTableRecord
100
AcDbDimStyleTableRecord
  2
Standard
 70
     0
340
11
  0
ENDTAB
  0
TABLE
  2
BLOCK_RECORD
  5
1
330
0
100
AcDbSymbolTable
 70
     1
  0
BLOCK_RECORD
  5
1F
330
1
100
AcDbSymbolTableRecord
100
AcDbBlockTableRecord
  2
*Model_Space
340
22
  0
BLOCK_RECORD
  5
1B
330
1
100
AcDbSymbolTableRecord
100
AcDbBlockTableRecord
  2
*Paper_Space
340
1E
  0
BLOCK_RECORD
  5
23
330
1
100
AcDbSymbolTableRecord
100
AcDbBlockTableRecord
  2
*Paper_Space0
340
26
  0
ENDTAB
  0
ENDSEC
  0
SECTION
  2
BLOCKS
  0
BLOCK
  5
20
330
1F
100
AcDbEntity
  8
0
100
AcDbBlockBegin
  2
*Model_Space
 70
     0
 71
     0
 10
0.0
 20
0.0
 30
0.0
  3
*Model_Space
  1

  0
ENDBLK
  5
21
330
1F
100
AcDbEntity
  8
0
100
AcDbBlockEnd
  0
BLOCK
  5
1C
330
1B
100
AcDbEntity
 67
     1
  8
0
100
AcDbBlockBegin
  2
*Paper_Space
 70
     0
 71
     0
 10
0.0
 20
0.0
 30
0.0
  3
*Paper_Space
  1

  0
ENDBLK
  5
1D
330
1B
100
AcDbEntity
 67
     1
  8
0
100
AcDbBlockEnd
  0
BLOCK
  5
24
330
23
100
AcDbEntity
  8
0
100
AcDbBlockBegin
  2
*Paper_Space0
 70
     0
 71
     0
 10
0.0
 20
0.0
 30
0.0
  3
*Paper_Space0
  1

  0
ENDBLK
  5
25
330
23
100
AcDbEntity
  8
0
100
AcDbBlockEnd
  0
ENDSEC
  0
SECTION
  2
ENTITIES
  0
SPLINE
  5
3C
330
1F
100
AcDbEntity
  8
Layer 1
370
     0
100
AcDbSpline
210
0.0
220
0.0
230
1.0
 70
    11
 71
     3
 72
   200
 73
   196
 74
     0
 42
0.0000000001
 43
0.0000000001
 40
0.0
 40
0.0
 40
0.0
 40
0.0
 40
1.0
 40
1.0
 40
1.0
 40
2.0
 40
2.0
 40
2.0
 40
3.0
 40
3.0
 40
3.0
 40
4.0
 40
4.0
 40
4.0
 40
5.0
 40
5.0
 40
5.0
 40
6.0
 40
6.0
 40
6.0
 40
7.0
 40
7.0
 40
7.0
 40
8.0
 40
8.0
 40
8.0
 40
9.0
 40
9.0
 40
9.0
 40
10.0
 40
10.0
 40
10.0
 40
11.0
 40
11.0
 40
11.0
 40
12.0
 40
12.0
 40
12.0
 40
13.0
 40
13.0
 40
13.0
 40
14.0
 40
14.0
 40
14.0
 40
15.0
 40
15.0
 40
15.0
 40
16.0
 40
16.0
 40
16.0
 40
17.0
 40
17.0
 40
17.0
 40
18.0
 40
18.0
 40
18.0
 40
19.0
 40
19.0
 40
19.0
 40
20.0
 40
20.0
 40
20.0
 40
21.0
 40
21.0
 40
21.0
 40
22.0
 40
22.0
 40
22.0
 40
23.0
 40
23.0
 40
23.0
 40
24.0
 40
24.0
 40
24.0
 40
25.0
 40
25.0
 40
25.0
 40
26.0
 40
26.0
 40
26.0
 40
27.0
 40
27.0
 40
27.0
 40
28.0
 40
28.0
 40
28.0
 40
29.0
 40
29.0
 40
29.0
 40
30.0
 40
30.0
 40
30.0
 40
31.0
 40
31.0
 40
31.0
 40
32.0
 40
32.0
 40
32.0
 40
33.0
 40
33.0
 40
33.0
 40
34.0
 40
34.0
 40
34.0
 40
35.0
 40
35.0
 40
35.0
 40
36.0
 40
36.0
 40
36.0
 40
37.0
 40
37.0
 40
37.0
 40
38.0
 40
38.0
 40
38.0
 40
39.0
 40
39.0
 40
39.0
 40
40.0
 40
40.0
 40
40.0
 40
41.0
 40
41.0
 40
41.0
 40
42.0
 40
42.0
 40
42.0
 40
43.0
 40
43.0
 40
43.0
 40
44.0
 40
44.0
 40
44.0
 40
45.0
 40
45.0
 40
45.0
 40
46.0
 40
46.0
 40
46.0
 40
47.0
 40
47.0
 40
47.0
 40
48.0
 40
48.0
 40
48.0
 40
49.0
 40
49.0
 40
49.0
 40
50.0
 40
50.0
 40
50.0
 40
51.0
 40
51.0
 40
51.0
 40
52.0
 40
52.0
 40
52.0
 40
53.0
 40
53.0
 40
53.0
 40
54.0
 40
54.0
 40
54.0
 40
55.0
 40
55.0
 40
55.0
 40
56.0
 40
56.0
 40
56.0
 40
57.0
 40
57.0
 40
57.0
 40
58.0
 40
58.0
 40
58.0
 40
59.0
 40
59.0
 40
59.0
 40
60.0
 40
60.0
 40
60.0
 40
61.0
 40
61.0
 40
61.0
 40
62.0
 40
62.0
 40
62.0
 40
63.0
 40
63.0
 40
63.0
 40
64.0
 40
64.0
 40
64.0
 40
65.0
 40
65.0
 40
65.0
 40
65.0
 10
93.08165687777125
 20
49.16771374638863
 30
0.0
 10
92.28032766790214
 20
50.46479219658519
 30
0.0
 10
91.25334470374916
 20
51.76979436639783
 30
0.0
 10
90.21912703907716
 20
52.99710963301808
 30
0.0
 10
90.47854272911648
 20
53.98154566792823
 30
0.0
 10
90.55640188708313
 20
55.01731362556859
 30
0.0
 10
90.40309513798951
 20
56.05876599075962
 30
0.0
 10
90.31180010763039
 20
56.6783664137818
 30
0.0
 10
90.14953611027512
 20
57.24318981858851
 30
0.0
 10
89.92663843237946
 20
57.75582002679369
 30
0.0
 10
88.51346026432998
 20
61.01022947693495
 30
0.0
 10
84.66770017414558
 20
62.13987628654836
 30
0.0
 10
81.0799777358064
 20
61.69184161869163
 30
0.0
 10
77.37443303187167
 20
61.22830402115126
 30
0.0
 10
74.35790742498692
 20
58.8060573854721
 30
0.0
 10
71.78821070253906
 20
56.09321694561211
 30
0.0
 10
72.41108396627223
 20
57.60027396563466
 30
0.0
 10
72.93611651822431
 20
59.06977944486798
 30
0.0
 10
73.34263778548379
 20
60.37426485035783
 30
0.0
 10
74.89775388752557
 20
65.36017929138565
 30
0.0
 10
72.82380640540516
 20
70.61687823755412
 30
0.0
 10
70.99893932686832
 20
75.16474878763243
 30
0.0
 10
70.70369464378241
 20
75.90234373102442
 30
0.0
 10
70.42188583308898
 20
76.6776624699799
 30
0.0
 10
70.16281465259819
 20
77.48415932307688
 30
0.0
 10
68.75687118506772
 20
81.84254962146645
 30
0.0
 10
67.96759980939699
 20
87.04826115445321
 30
0.0
 10
68.80854761734648
 20
91.36324324972864
 30
0.0
 10
69.26433375004503
 20
93.70297984853606
 30
0.0
 10
69.61022133676411
 20
96.2442545332306
 30
0.0
 10
69.1051703386265
 20
98.60690101701495
 30
0.0
 10
68.7082953387257
 20
100.4651855217587
 30
0.0
 10
67.18074000056593
 20
102.9918185506409
 30
0.0
 10
65.31556530485167
 20
100.6667236076458
 30
0.0
 10
64.32199976690562
 20
99.42545570431031
 30
0.0
 10
64.25757648133144
 20
96.81941322449306
 30
0.0
 10
64.12494030514932
 20
95.27273760639015
 30
0.0
 10
62.94189451551453
 20
97.34875214580171
 30
0.0
 10
60.75322535373531
 20
97.40766327859947
 30
0.0
 10
60.26298826618426
 20
94.71979978100755
 30
0.0
 10
59.87851561003038
 20
92.61295163700302
 30
0.0
 10
59.69316947292393
 20
90.10302732122425
 30
0.0
 10
60.22991534952586
 20
88.01185436167759
 30
0.0
 10
59.21533472911978
 20
89.64052325232946
 30
0.0
 10
57.02942164372876
 20
91.71395397012706
 30
0.0
 10
55.78987628813586
 20
88.98853893174592
 30
0.0
 10
55.22901474313719
 20
87.75760631486615
 30
0.0
 10
55.08776582824195
 20
85.7312011504422
 30
0.0
 10
55.35234916150914
 20
84.40776771978348
 30
0.0
 10
54.09316676165032
 20
85.30934920827336
 30
0.0
 10
52.44399955286122
 20
85.35430770435588
 30
0.0
 10
51.94480521704853
 20
83.62728133760012
 30
0.0
 10
51.51795788642607
 20
82.15467527243008
 30
0.0
 10
52.04850259115454
 20
80.4319552750309
 30
0.0
 10
52.00061576390957
 20
78.97192380838202
 30
0.0
 10
49.99488117239711
 20
79.41203475662269
 30
0.0
 10
49.44125432791747
 20
78.83205293168088
 30
0.0
 10
49.71445039989778
 20
76.76585691440229
 30
0.0
 10
49.91702201443047
 20
75.23537324508005
 30
0.0
 10
50.46961533026455
 20
73.75277640300278
 30
0.0
 10
51.00222709228417
 20
72.31186521629704
 30
0.0
 10
53.79413247353064
 20
64.75608179804709
 30
0.0
 10
60.36496309254765
 20
60.4097493338559
 30
0.0
 10
61.14045408627739
 20
51.79494356344016
 30
0.0
 10
61.18041719390629
 20
51.34949271719735
 30
0.0
 10
61.10669215052194
 20
50.84788681454498
 30
0.0
 10
60.98852537537787
 20
50.3200981862047
 30
0.0
 10
60.9254801279978
 20
50.47202689710421
 30
0.0
 10
60.8565782182928
 20
50.61878796477586
 30
0.0
 10
60.79697806639798
 20
50.7738172616121
 30
0.0
 10
59.17881671697613
 20
54.98648002097561
 30
0.0
 10
57.49726561062569
 20
58.39540200363032
 30
0.0
 10
54.77874076321504
 20
61.97744003441884
 30
0.0
 10
51.07457409747441
 20
66.85690102495245
 30
0.0
 10
44.5505967770568
 20
68.15811358973131
 30
0.0
 10
38.88513725156344
 20
69.25348169926649
 30
0.0
 10
37.96736381429288
 20
69.43090411675686
 30
0.0
 10
37.02099608449475
 20
69.64915091574744
 30
0.0
 10
36.06205375617546
 20
69.90908337010954
 30
0.0
 10
30.87460122926052
 20
71.31330428989737
 30
0.0
 10
25.30663790599973
 20
73.91090628577575
 30
0.0
 10
21.74595946721976
 20
77.61111109170834
 30
0.0
 10
19.81446668341444
 20
79.61770695709211
 30
0.0
 10
17.61098361104865
 20
81.64307859287048
 30
0.0
 10
14.98065320806039
 20
82.6698893022492
 30
0.0
 10
12.91221787871639
 20
83.47759193876603
 30
0.0
 10
9.402182343569594
 20
83.55476207763562
 30
0.0
 10
10.3261569527136
 20
80.09898679638151
 30
0.0
 10
10.81949462620138
 20
78.25672198564416
 30
0.0
 10
13.28394368157485
 20
76.48077526299787
 30
0.0
 10
14.67989637219808
 20
75.32821856840754
 30
0.0
 10
11.84630533558009
 20
75.46653915214031
 30
0.0
 10
10.24691975655285
 20
73.23962943047482
 30
0.0
 10
12.48847113403066
 20
70.96879474137239
 30
0.0
 10
14.24615885060513
 20
69.1887139041438
 30
0.0
 10
16.53094617642282
 20
67.3512722270858
 30
0.0
 10
18.92339273615457
 20
66.53530136140438
 30
0.0
 10
16.63912217465966
 20
66.5535603674762
 30
0.0
 10
13.10290391382497
 20
65.65146211466353
 30
0.0
 10
14.85163438213779
 20
62.58033174433756
 30
0.0
 10
15.86948784325485
 20
60.79249944226716
 30
0.0
 10
18.49482285778949
 20
59.52194822730701
 30
0.0
 10
20.09954833481886
 20
58.59366724880645
 30
0.0
 10
16.10857746993119
 20
58.73043753957086
 30
0.0
 10
18.73701307040255
 20
55.40833196314445
 30
0.0
 10
20.23476833261492
 20
53.79258218056227
 30
0.0
 10
22.13542751182726
 20
51.74257811206436
 30
0.0
 10
24.58368461842005
 20
50.36247286067327
 30
0.0
 10
26.9416802232993
 20
49.14497611618598
 30
0.0
 10
26.01408826389579
 20
48.89451767440832
 30
0.0
 10
23.75221082305501
 20
49.09605576029544
 30
0.0
 10
23.23165689523375
 20
47.97226561300693
 30
0.0
 10
22.58277316058695
 20
46.5694227314132
 30
0.0
 10
24.73096245041448
 20
45.12454968489942
 30
0.0
 10
25.68422037118311
 20
44.54715168157155
 30
0.0
 10
28.57723930492167
 20
42.79290906048233
 30
0.0
 10
31.75637341871021
 20
41.79658744614807
 30
0.0
 10
35.1056952494701
 20
41.54027234204549
 30
0.0
 10
34.14192978747146
 20
41.00559352273471
 30
0.0
 10
27.49134520797092
 20
38.00629339327621
 30
0.0
 10
31.80115966001846
 20
37.18360459139854
 30
0.0
 10
35.45175509096345
 20
36.48597275563545
 30
0.0
 10
39.13042805011323
 20
37.43509656182178
 30
0.0
 10
42.72297362213176
 20
37.63697915725742
 30
0.0
 10
41.79951577731054
 20
37.35620387520956
 30
0.0
 10
41.04572888513788
 20
36.64995930073334
 30
0.0
 10
42.09028183626562
 20
36.08289658386122
 30
0.0
 10
42.69058972457041
 20
35.75836858915068
 30
0.0
 10
44.16853568774259
 20
35.89823946585183
 30
0.0
 10
44.85548772750141
 20
35.9723090187847
 30
0.0
 10
46.71652830863337
 20
36.17556965241445
 30
0.0
 10
48.54794106859218
 20
36.73126355418524
 30
0.0
 10
50.39003362455527
 20
37.16052245164737
 30
0.0
 10
41.28137341632896
 20
29.06971570453813
 30
0.0
 10
31.98151040867129
 20
20.67746310246952
 30
0.0
 10
21.51582708880507
 20
14.44252929326437
 30
0.0
 10
16.59726426451388
 20
11.51178656396233
 30
0.0
 10
11.54296467810384
 20
8.451508244414901
 30
0.0
 10
6.104020180765662
 20
6.624918618135437
 30
0.0
 10
4.940439180622529
 20
6.234244790108106
 30
0.0
 10
-2.120973035494063
 20
4.110687933000106
 30
0.0
 10
0.6321750215433452
 20
2.260327147872419
 30
0.0
 10
1.777497015614654
 20
1.49034830691908
 30
0.0
 10
4.61832275275167
 20
2.241379122703544
 30
0.0
 10
5.861829968152598
 20
2.512163627844181
 30
0.0
 10
7.226432289860059
 20
2.809130858672718
 30
0.0
 10
9.511391870452014
 20
2.949690754470911
 30
0.0
 10
10.59401312669178
 20
3.825089517272894
 30
0.0
 10
10.43381618662766
 20
0.2135959200854899
 30
0.0
 10
13.9500528936479
 20
1.334285481437262
 30
0.0
 10
15.93477240270034
 20
2.687863497591923
 30
0.0
 10
15.9514811158038
 20
1.640209960527448
 30
0.0
 10
16.09927571212102
 20
0.1763888888447917
 30
0.0
 10
17.18930392365406
 20
0.2025716145326904
 30
0.0
 10
18.24109157530084
 20
0.2315104166087891
 30
0.0
 10
20.839210335502
 20
2.140437824985724
 30
0.0
 10
21.65156385092391
 20
2.823600259710767
 30
0.0
 10
22.3056152287986
 20
1.463821071682656
 30
0.0
 10
22.4966457734557
 20
0.4385606552723043
 30
0.0
 10
24.11291232036066
 20
0.0778591579666463
 30
0.0
 10
28.03687607806023
 20
-0.7975396048353374
 30
0.0
 10
30.05604654196516
 20
5.965871851807144
 30
0.0
 10
31.65663790441223
 20
8.424636499629953
 30
0.0
 10
32.96646320790422
 20
10.43726128211291
 30
0.0
 10
34.521579309946
 20
12.56633029199731
 30
0.0
 10
36.21708305301171
 20
14.28371039139435
 30
0.0
 10
37.79304198273924
 20
15.88016763925913
 30
0.0
 10
39.34023436516495
 20
18.11017794686135
 30
0.0
 10
41.38972166934007
 20
19.09375270790017
 30
0.0
 10
43.42198349608895
 20
20.06837022067735
 30
0.0
 10
46.92392305684541
 20
18.51325411863558
 30
0.0
 10
49.33548989652029
 20
18.39749891033118
 30
0.0
 10
51.99372557293907
 20
18.26934135827989
 30
0.0
 10
54.77081704359897
 20
17.79219563357278
 30
0.0
 10
57.51655814534308
 20
18.06332464826195
 30
0.0
 10
59.95913084438522
 20
18.30448133222944
 30
0.0
 10
62.78445365183861
 20
18.71100259948892
 30
0.0
 10
65.01032984485853
 20
19.81412217386591
 30
0.0
 10
67.54316404561422
 20
21.0688259495939
 30
0.0
 10
69.28293726566538
 20
23.67607421283098
 30
0.0
 10
71.08162161851432
 20
25.73624131301039
 30
0.0
 10
74.81024846220022
 20
30.01022677201133
 30
0.0
 10
76.58309459890978
 20
34.83887260413751
 30
0.0
 10
78.16921656031882
 20
40.09884439101696
 30
0.0
 10
78.70010577459581
 20
41.85997720307667
 30
0.0
 10
78.75419377371423
 20
44.19988605665836
 30
0.0
 10
79.74844833075734
 20
45.76947155973819
 30
0.0
 10
80.79851343466149
 20
47.42794052633746
 30
0.0
 10
82.92138127267243
 20
46.57700194148075
 30
0.0
 10
84.73177895017123
 20
47.1692138553952
 30
0.0
 10
86.02093368075171
 20
47.59054903324125
 30
0.0
 10
87.16229381501499
 20
48.33055554347292
 30
0.0
 10
88.08557940506195
 20
49.27244464914023
 30
0.0
 10
90.00105249486086
 20
49.02267522645961
 30
0.0
 10
91.95097653951225
 20
48.97754447560284
 30
0.0
 10
93.08165687777125
 20
49.16771374638863
 30
0.0
  0
HATCH
  5
3D
330
1F
100
AcDbEntity
  8
Layer 1
 62
    21
420
 15242112
100
AcDbHatch
 10
0.0
 20
0.0
 30
0.0
210
0.0
220
0.0
230
1.0
  2
SOLID
 70
     1
 71
     0
 91
        1
 92
        1
 93
        1
 72
     4
 94
        3
 73
     0
 74
     1
 95
      200
 96
      196
 40
0.0
 40
0.0
 40
0.0
 40
0.0
 40
1.0
 40
1.0
 40
1.0
 40
2.0
 40
2.0
 40
2.0
 40
3.0
 40
3.0
 40
3.0
 40
4.0
 40
4.0
 40
4.0
 40
5.0
 40
5.0
 40
5.0
 40
6.0
 40
6.0
 40
6.0
 40
7.0
 40
7.0
 40
7.0
 40
8.0
 40
8.0
 40
8.0
 40
9.0
 40
9.0
 40
9.0
 40
10.0
 40
10.0
 40
10.0
 40
11.0
 40
11.0
 40
11.0
 40
12.0
 40
12.0
 40
12.0
 40
13.0
 40
13.0
 40
13.0
 40
14.0
 40
14.0
 40
14.0
 40
15.0
 40
15.0
 40
15.0
 40
16.0
 40
16.0
 40
16.0
 40
17.0
 40
17.0
 40
17.0
 40
18.0
 40
18.0
 40
18.0
 40
19.0
 40
19.0
 40
19.0
 40
20.0
 40
20.0
 40
20.0
 40
21.0
 40
21.0
 40
21.0
 40
22.0
 40
22.0
 40
22.0
 40
23.0
 40
23.0
 40
23.0
 40
24.0
 40
24.0
 40
24.0
 40
25.0
 40
25.0
 40
25.0
 40
26.0
 40
26.0
 40
26.0
 40
27.0
 40
27.0
 40
27.0
 40
28.0
 40
28.0
 40
28.0
 40
29.0
 40
29.0
 40
29.0
 40
30.0
 40
30.0
 40
30.0
 40
31.0
 40
31.0
 40
31.0
 40
32.0
 40
32.0
 40
32.0
 40
33.0
 40
33.0
 40
33.0
 40
34.0
 40
34.0
 40
34.0
 40
35.0
 40
35.0
 40
35.0
 40
36.0
 40
36.0
 40
36.0
 40
37.0
 40
37.0
 40
37.0
 40
38.0
 40
38.0
 40
38.0
 40
39.0
 40
39.0
 40
39.0
 40
40.0
 40
40.0
 40
40.0
 40
41.0
 40
41.0
 40
41.0
 40
42.0
 40
42.0
 40
42.0
 40
43.0
 40
43.0
 40
43.0
 40
44.0
 40
44.0
 40
44.0
 40
45.0
 40
45.0
 40
45.0
 40
46.0
 40
46.0
 40
46.0
 40
47.0
 40
47.0
 40
47.0
 40
48.0
 40
48.0
 40
48.0
 40
49.0
 40
49.0
 40
49.0
 40
50.0
 40
50.0
 40
50.0
 40
51.0
 40
51.0
 40
51.0
 40
52.0
 40
52.0
 40
52.0
 40
53.0
 40
53.0
 40
53.0
 40
54.0
 40
54.0
 40
54.0
 40
55.0
 40
55.0
 40
55.0
 40
56.0
 40
56.0
 40
56.0
 40
57.0
 40
57.0
 40
57.0
 40
58.0
 40
58.0
 40
58.0
 40
59.0
 40
59.0
 40
59.0
 40
60.0
 40
60.0
 40
60.0
 40
61.0
 40
61.0
 40
61.0
 40
62.0
 40
62.0
 40
62.0
 40
63.0
 40
63.0
 40
63.0
 40
64.0
 40
64.0
 40
64.0
 40
65.0
 40
65.0
 40
65.0
 40
65.0
 10
93.08165687777125
 20
49.16771374638863
 10
92.28032766790214
 20
50.46479219658519
 10
91.25334470374916
 20
51.76979436639783
 10
90.21912703907716
 20
52.99710963301808
 10
90.47854272911648
 20
53.98154566792823
 10
90.55640188708313
 20
55.01731362556859
 10
90.40309513798951
 20
56.05876599075962
 10
90.31180010763039
 20
56.6783664137818
 10
90.14953611027512
 20
57.24318981858851
 10
89.92663843237946
 20
57.75582002679369
 10
88.51346026432998
 20
61.01022947693495
 10
84.66770017414558
 20
62.13987628654836
 10
81.0799777358064
 20
61.69184161869163
 10
77.37443303187167
 20
61.22830402115126
 10
74.35790742498692
 20
58.8060573854721
 10
71.78821070253906
 20
56.09321694561211
 10
72.41108396627223
 20
57.60027396563466
 10
72.93611651822431
 20
59.06977944486798
 10
73.34263778548379
 20
60.37426485035783
 10
74.89775388752557
 20
65.36017929138565
 10
72.82380640540516
 20
70.61687823755412
 10
70.99893932686832
 20
75.16474878763243
 10
70.70369464378241
 20
75.90234373102442
 10
70.42188583308898
 20
76.6776624699799
 10
70.16281465259819
 20
77.48415932307688
 10
68.75687118506772
 20
81.84254962146645
 10
67.96759980939699
 20
87.04826115445321
 10
68.80854761734648
 20
91.36324324972864
 10
69.26433375004503
 20
93.70297984853606
 10
69.61022133676411
 20
96.2442545332306
 10
69.1051703386265
 20
98.60690101701495
 10
68.7082953387257
 20
100.4651855217587
 10
67.18074000056593
 20
102.9918185506409
 10
65.31556530485167
 20
100.6667236076458
 10
64.32199976690562
 20
99.42545570431031
 10
64.25757648133144
 20
96.81941322449306
 10
64.12494030514932
 20
95.27273760639015
 10
62.94189451551453
 20
97.34875214580171
 10
60.75322535373531
 20
97.40766327859947
 10
60.26298826618426
 20
94.71979978100755
 10
59.87851561003038
 20
92.61295163700302
 10
59.69316947292393
 20
90.10302732122425
 10
60.22991534952586
 20
88.01185436167759
 10
59.21533472911978
 20
89.64052325232946
 10
57.02942164372876
 20
91.71395397012706
 10
55.78987628813586
 20
88.98853893174592
 10
55.22901474313719
 20
87.75760631486615
 10
55.08776582824195
 20
85.7312011504422
 10
55.35234916150914
 20
84.40776771978348
 10
54.09316676165032
 20
85.30934920827336
 10
52.44399955286122
 20
85.35430770435588
 10
51.94480521704853
 20
83.62728133760012
 10
51.51795788642607
 20
82.15467527243008
 10
52.04850259115454
 20
80.4319552750309
 10
52.00061576390957
 20
78.97192380838202
 10
49.99488117239711
 20
79.41203475662269
 10
49.44125432791747
 20
78.83205293168088
 10
49.71445039989778
 20
76.76585691440229
 10
49.91702201443047
 20
75.23537324508005
 10
50.46961533026455
 20
73.75277640300278
 10
51.00222709228417
 20
72.31186521629704
 10
53.79413247353064
 20
64.75608179804709
 10
60.36496309254765
 20
60.4097493338559
 10
61.14045408627739
 20
51.79494356344016
 10
61.18041719390629
 20
51.34949271719735
 10
61.10669215052194
 20
50.84788681454498
 10
60.98852537537787
 20
50.3200981862047
 10
60.9254801279978
 20
50.47202689710421
 10
60.8565782182928
 20
50.61878796477586
 10
60.79697806639798
 20
50.7738172616121
 10
59.17881671697613
 20
54.98648002097561
 10
57.49726561062569
 20
58.39540200363032
 10
54.77874076321504
 20
61.97744003441884
 10
51.07457409747441
 20
66.85690102495245
 10
44.5505967770568
 20
68.15811358973131
 10
38.88513725156344
 20
69.25348169926649
 10
37.96736381429288
 20
69.43090411675686
 10
37.02099608449475
 20
69.64915091574744
 10
36.06205375617546
 20
69.90908337010954
 10
30.87460122926052
 20
71.31330428989737
 10
25.30663790599973
 20
73.91090628577575
 10
21.74595946721976
 20
77.61111109170834
 10
19.81446668341444
 20
79.61770695709211
 10
17.61098361104865
 20
81.64307859287048
 10
14.98065320806039
 20
82.6698893022492
 10
12.91221787871639
 20
83.47759193876603
 10
9.402182343569594
 20
83.55476207763562
 10
10.3261569527136
 20
80.09898679638151
 10
10.81949462620138
 20
78.25672198564416
 10
13.28394368157485
 20
76.48077526299787
 10
14.67989637219808
 20
75.32821856840754
 10
11.84630533558009
 20
75.46653915214031
 10
10.24691975655285
 20
73.23962943047482
 10
12.48847113403066
 20
70.96879474137239
 10
14.24615885060513
 20
69.1887139041438
 10
16.53094617642282
 20
67.3512722270858
 10
18.92339273615457
 20
66.53530136140438
 10
16.63912217465966
 20
66.5535603674762
 10
13.10290391382497
 20
65.65146211466353
 10
14.85163438213779
 20
62.58033174433756
 10
15.86948784325485
 20
60.79249944226716
 10
18.49482285778949
 20
59.52194822730701
 10
20.09954833481886
 20
58.59366724880645
 10
16.10857746993119
 20
58.73043753957086
 10
18.73701307040255
 20
55.40833196314445
 10
20.23476833261492
 20
53.79258218056227
 10
22.13542751182726
 20
51.74257811206436
 10
24.58368461842005
 20
50.36247286067327
 10
26.9416802232993
 20
49.14497611618598
 10
26.01408826389579
 20
48.89451767440832
 10
23.75221082305501
 20
49.09605576029544
 10
23.23165689523375
 20
47.97226561300693
 10
22.58277316058695
 20
46.5694227314132
 10
24.73096245041448
 20
45.12454968489942
 10
25.68422037118311
 20
44.54715168157155
 10
28.57723930492167
 20
42.79290906048233
 10
31.75637341871021
 20
41.79658744614807
 10
35.1056952494701
 20
41.54027234204549
 10
34.14192978747146
 20
41.00559352273471
 10
27.49134520797092
 20
38.00629339327621
 10
31.80115966001846
 20
37.18360459139854
 10
35.45175509096345
 20
36.48597275563545
 10
39.13042805011323
 20
37.43509656182178
 10
42.72297362213176
 20
37.63697915725742
 10
41.79951577731054
 20
37.35620387520956
 10
41.04572888513788
 20
36.64995930073334
 10
42.09028183626562
 20
36.08289658386122
 10
42.69058972457041
 20
35.75836858915068
 10
44.16853568774259
 20
35.89823946585183
 10
44.85548772750141
 20
35.9723090187847
 10
46.71652830863337
 20
36.17556965241445
 10
48.54794106859218
 20
36.73126355418524
 10
50.39003362455527
 20
37.16052245164737
 10
41.28137341632896
 20
29.06971570453813
 10
31.98151040867129
 20
20.67746310246952
 10
21.51582708880507
 20
14.44252929326437
 10
16.59726426451388
 20
11.51178656396233
 10
11.54296467810384
 20
8.451508244414901
 10
6.104020180765662
 20
6.624918618135437
 10
4.940439180622529
 20
6.234244790108106
 10
-2.120973035494063
 20
4.110687933000106
 10
0.6321750215433452
 20
2.260327147872419
 10
1.777497015614654
 20
1.49034830691908
 10
4.61832275275167
 20
2.241379122703544
 10
5.861829968152598
 20
2.512163627844181
 10
7.226432289860059
 20
2.809130858672718
 10
9.511391870452014
 20
2.949690754470911
 10
10.59401312669178
 20
3.825089517272894
 10
10.43381618662766
 20
0.2135959200854899
 10
13.9500528936479
 20
1.334285481437262
 10
15.93477240270034
 20
2.687863497591923
 10
15.9514811158038
 20
1.640209960527448
 10
16.09927571212102
 20
0.1763888888447917
 10
17.18930392365406
 20
0.2025716145326904
 10
18.24109157530084
 20
0.2315104166087891
 10
20.839210335502
 20
2.140437824985724
 10
21.65156385092391
 20
2.823600259710767
 10
22.3056152287986
 20
1.463821071682656
 10
22.4966457734557
 20
0.4385606552723043
 10
24.11291232036066
 20
0.0778591579666463
 10
28.03687607806023
 20
-0.7975396048353374
 10
30.05604654196516
 20
5.965871851807144
 10
31.65663790441223
 20
8.424636499629953
 10
32.96646320790422
 20
10.43726128211291
 10
34.521579309946
 20
12.56633029199731
 10
36.21708305301171
 20
14.28371039139435
 10
37.79304198273924
 20
15.88016763925913
 10
39.34023436516495
 20
18.11017794686135
 10
41.38972166934007
 20
19.09375270790017
 10
43.42198349608895
 20
20.06837022067735
 10
46.92392305684541
 20
18.51325411863558
 10
49.33548989652029
 20
18.39749891033118
 10
51.99372557293907
 20
18.26934135827989
 10
54.77081704359897
 20
17.79219563357278
 10
57.51655814534308
 20
18.06332464826195
 10
59.95913084438522
 20
18.30448133222944
 10
62.78445365183861
 20
18.71100259948892
 10
65.01032984485853
 20
19.81412217386591
 10
67.54316404561422
 20
21.0688259495939
 10
69.28293726566538
 20
23.67607421283098
 10
71.08162161851432
 20
25.73624131301039
 10
74.81024846220022
 20
30.01022677201133
 10
76.58309459890978
 20
34.83887260413751
 10
78.16921656031882
 20
40.09884439101696
 10
78.70010577459581
 20
41.85997720307667
 10
78.75419377371423
 20
44.19988605665836
 10
79.74844833075734
 20
45.76947155973819
 10
80.79851343466149
 20
47.42794052633746
 10
82.92138127267243
 20
46.57700194148075
 10
84.73177895017123
 20
47.1692138553952
 10
86.02093368075171
 20
47.59054903324125
 10
87.16229381501499
 20
48.33055554347292
 10
88.08557940506195
 20
49.27244464914023
 10
90.00105249486086
 20
49.02267522645961
 10
91.95097653951225
 20
48.97754447560284
 10
93.08165687777125
 20
49.16771374638863
 97
        0
 75
     2
 76
     1
 98
        0
  0
ENDSEC
  0
SECTION
  2
OBJECTS
  0
DICTIONARY
  5
C
330
0
100
AcDbDictionary
281
     1
  3
ACAD_GROUP
350
D
  3
ACAD_LAYOUT
350
1A
  3
ACAD_MLINESTYLE
350
17
  3
ACAD_PLOTSETTINGS
350
19
  3
ACAD_PLOTSTYLENAME
350
E
  3
ACAD_TABLESTYLE
350
3E
  3
ACAD_VISUALSTYLE
350
2A
  0
DICTIONARY
  5
D
102
{ACAD_REACTORS
330
C
102
}
330
C
100
AcDbDictionary
281
     1
  0
DICTIONARY
  5
1A
102
{ACAD_REACTORS
330
C
102
}
330
C
100
AcDbDictionary
281
     1
  3
Layout1
350
1E
  3
Layout2
350
26
  3
Model
350
22
  0
DICTIONARY
  5
17
102
{ACAD_REACTORS
330
C
102
}
330
C
100
AcDbDictionary
281
     1
  3
Standard
350
18
  0
DICTIONARY
  5
19
102
{ACAD_REACTORS
330
C
102
}
330
C
100
AcDbDictionary
281
     1
  0
ACDBDICTIONARYWDFLT
  5
E
102
{ACAD_REACTORS
330
C
102
}
330
C
100
AcDbDictionary
281
     1
  3
Normal
350
F
100
AcDbDictionaryWithDefault
340
F
  0
DICTIONARY
  5
3E
102
{ACAD_REACTORS
330
C
102
}
330
C
100
AcDbDictionary
281
     1
  0
DICTIONARY
  5
2A
102
{ACAD_REACTORS
330
C
102
}
330
C
100
AcDbDictionary
281
     1
  3
2dWireframe
350
2F
  3
3D Hidden
350
31
  3
3dWireframe
350
30
  3
Basic
350
32
  3
Brighten
350
36
  3
ColorChange
350
3A
  3
Conceptual
350
34
  3
Dim
350
35
  3
Facepattern
350
39
  3
Flat
350
2B
  3
FlatWithEdges
350
2C
  3
Gouraud
350
2D
  3
GouraudWithEdges
350
2E
  3
Linepattern
350
38
  3
Realistic
350
33
  3
Thicken
350
37
  0
LAYOUT
  5
1E
102
{ACAD_REACTORS
330
1A
102
}
330
1A
100
AcDbPlotSettings
  1

  2
none_device
  4

  6

 40
0.0
 41
0.0
 42
0.0
 43
0.0
 44
0.0
 45
0.0
 46
0.0
 47
0.0
 48
0.0
 49
0.0
140
0.0
141
0.0
142
1.0
143
1.0
 70
   688
 72
     0
 73
     0
 74
     5
  7

 75
    16
 76
     0
 77
     2
 78
   300
147
1.0
148
0.0
149
0.0
100
AcDbLayout
  1
Layout1
 70
     1
 71
     1
 10
0.0
 20
0.0
 11
12.0
 21
9.0
 12
0.0
 22
0.0
 32
0.0
 14
1.000000000000000E+20
 24
1.000000000000000E+20
 34
1.000000000000000E+20
 15
-1.000000000000000E+20
 25
-1.000000000000000E+20
 35
-1.000000000000000E+20
146
0.0
 13
0.0
 23
0.0
 33
0.0
 16
1.0
 26
0.0
 36
0.0
 17
0.0
 27
1.0
 37
0.0
 76
     0
330
1B
  0
LAYOUT
  5
26
102
{ACAD_REACTORS
330
1A
102
}
330
1A
100
AcDbPlotSettings
  1

  2
none_device
  4

  6

 40
0.0
 41
0.0
 42
0.0
 43
0.0
 44
0.0
 45
0.0
 46
0.0
 47
0.0
 48
0.0
 49
0.0
140
0.0
141
0.0
142
1.0
143
1.0
 70
   688
 72
     0
 73
     0
 74
     5
  7

 75
    16
 76
     0
 77
     2
 78
   300
147
1.0
148
0.0
149
0.0
100
AcDbLayout
  1
Layout2
 70
     1
 71
     2
 10
0.0
 20
0.0
 11
0.0
 21
0.0
 12
0.0
 22
0.0
 32
0.0
 14
0.0
 24
0.0
 34
0.0
 15
0.0
 25
0.0
 35
0.0
146
0.0
 13
0.0
 23
0.0
 33
0.0
 16
1.0
 26
0.0
 36
0.0
 17
0.0
 27
1.0
 37
0.0
 76
     0
330
23
  0
LAYOUT
  5
22
102
{ACAD_REACTORS
330
1A
102
}
330
1A
100
AcDbPlotSettings
  1

  2
none_device
  4

  6

 40
0.0
 41
0.0
 42
0.0
 43
0.0
 44
0.0
 45
0.0
 46
0.0
 47
0.0
 48
0.0
 49
0.0
140
0.0
141
0.0
142
1.0
143
1.0
 70
  1712
 72
     0
 73
     0
 74
     0
  7

 75
     0
 76
     0
 77
     2
 78
   300
147
1.0
148
0.0
149
0.0
100
AcDbLayout
  1
Model
 70
     1
 71
     0
 10
0.0
 20
0.0
 11
12.0
 21
9.0
 12
0.0
 22
0.0
 32
0.0
 14
1.000000000000000E+20
 24
1.000000000000000E+20
 34
1.000000000000000E+20
 15
-1.000000000000000E+20
 25
-1.000000000000000E+20
 35
-1.000000000000000E+20
146
0.0
 13
0.0
 23
0.0
 33
0.0
 16
1.0
 26
0.0
 36
0.0
 17
0.0
 27
1.0
 37
0.0
 76
     0
330
1F
331
29
  0
MLINESTYLE
  5
18
102
{ACAD_REACTORS
330
17
102
}
330
17
100
AcDbMlineStyle
  2
Standard
 70
     0
  3

 62
   256
 51
90.0
 52
90.0
 71
     2
 49
0.5
 62
   256
  6
BYLAYER
 49
-0.5
 62
   256
  6
BYLAYER
  0
ACDBPLACEHOLDER
  5
F
102
{ACAD_REACTORS
330
E
102
}
330
E
  0
VISUALSTYLE
  5
2F
102
{ACAD_REACTORS
330
2A
102
}
330
2A
100
AcDbVisualStyle
  2
2dWireframe
 70
     4
 71
     0
 72
     2
 73
     0
 90
        0
 40
-0.6
 41
-30.0
 62
     5
 63
     7
421
 16777215
 74
     1
 91
        4
 64
     7
 65
   257
 75
     1
175
     1
 42
1.0
 92
        0
 66
   257
 43
1.0
 76
     1
 77
     6
 78
     2
 67
     7
 79
     5
170
     0
171
     0
290
     0
174
     0
 93
        1
 44
0.0
173
     0
291
     0
 45
0.0
1001
ACAD
1000
AcDbSavedByObjectVersion
1070
     0
  0
VISUALSTYLE
  5
31
102
{ACAD_REACTORS
330
2A
102
}
330
2A
100
AcDbVisualStyle
  2
3D Hidden
 70
     6
 71
     1
 72
     2
 73
     2
 90
        0
 40
-0.6
 41
-30.0
 62
     5
 63
     7
421
 16777215
 74
     2
 91
        2
 64
     7
 65
   257
 75
     2
175
     1
 42
40.0
 92
        0
 66
   257
 43
1.0
 76
     1
 77
     6
 78
     2
 67
     7
 79
     3
170
     0
171
     0
290
     0
174
     0
 93
        1
 44
0.0
173
     0
291
     0
 45
0.0
1001
ACAD
1000
AcDbSavedByObjectVersion
1070
     0
  0
VISUALSTYLE
  5
30
102
{ACAD_REACTORS
330
2A
102
}
330
2A
100
AcDbVisualStyle
  2
3dWireframe
 70
     5
 71
     0
 72
     2
 73
     0
 90
        0
 40
-0.6
 41
-30.0
 62
     5
 63
     7
421
 16777215
 74
     1
 91
        4
 64
     7
 65
   257
 75
     1
175
     1
 42
1.0
 92
        0
 66
   257
 43
1.0
 76
     1
 77
     6
 78
     2
 67
     7
 79
     5
170
     0
171
     0
290
     0
174
     0
 93
        1
 44
0.0
173
     0
291
     0
 45
0.0
1001
ACAD
1000
AcDbSavedByObjectVersion
1070
     0
  0
VISUALSTYLE
  5
32
102
{ACAD_REACTORS
330
2A
102
}
330
2A
100
AcDbVisualStyle
  2
Basic
 70
     7
 71
     1
 72
     0
 73
     1
 90
        0
 40
-0.6
 41
-30.0
 62
     5
 63
     7
421
 16777215
 74
     0
 91
        4
 64
     7
 65
   257
 75
     1
175
     1
 42
1.0
 92
        8
 66
     7
 43
1.0
 76
     1
 77
     6
 78
     2
 67
     7
 79
     5
170
     0
171
     0
290
     0
174
     0
 93
        1
 44
0.0
173
     0
291
     1
 45
0.0
1001
ACAD
1000
AcDbSavedByObjectVersion
1070
     0
  0
VISUALSTYLE
  5
36
102
{ACAD_REACTORS
330
2A
102
}
330
2A
100
AcDbVisualStyle
  2
Brighten
 70
    12
 71
     2
 72
     2
 73
     0
 90
        0
 40
-0.6
 41
-30.0
 62
     5
 63
     7
421
 16777215
 74
     1
 91
        4
 64
     7
 65
   257
 75
     1
175
     1
 42
1.0
 92
        8
 66
     7
 43
1.0
 76
     1
 77
     6
 78
     2
 67
     7
 79
     5
170
     0
171
     0
290
     0
174
     0
 93
        1
 44
50.0
173
     0
291
     1
 45
0.0
1001
ACAD
1000
AcDbSavedByObjectVersion
1070
     0
  0
VISUALSTYLE
  5
3A
102
{ACAD_REACTORS
330
2A
102
}
330
2A
100
AcDbVisualStyle
  2
ColorChange
 70
    16
 71
     2
 72
     2
 73
     3
 90
        0
 40
-0.6
 41
-30.0
 62
     5
 63
     8
421
  8421504
 74
     1
 91
        4
 64
     7
 65
   257
 75
     1
175
     1
 42
1.0
 92
        8
 66
     8
424
  8421504
 43
1.0
 76
     1
 77
     6
 78
     2
 67
     7
 79
     5
170
     0
171
     0
290
     0
174
     0
 93
        1
 44
0.0
173
     0
291
     1
 45
0.0
1001
ACAD
1000
AcDbSavedByObjectVersion
1070
     0
  0
VISUALSTYLE
  5
34
102
{ACAD_REACTORS
330
2A
102
}
330
2A
100
AcDbVisualStyle
  2
Conceptual
 70
     9
 71
     3
 72
     2
 73
     0
 90
        0
 40
-0.6
 41
-30.0
 62
     5
 63
     7
421
 16777215
 74
     2
 91
        2
 64
     7
 65
   257
 75
     1
175
     1
 42
40.0
 92
        8
 66
     7
 43
1.0
 76
     1
 77
     6
 78
     2
 67
     7
 79
     3
170
     0
171
     0
290
     0
174
     0
 93
        1
 44
0.0
173
     0
291
     0
 45
0.0
1001
ACAD
1000
AcDbSavedByObjectVersion
1070
     0
  0
VISUALSTYLE
  5
35
102
{ACAD_REACTORS
330
2A
102
}
330
2A
100
AcDbVisualStyle
  2
Dim
 70
    11
 71
     2
 72
     2
 73
     0
 90
        0
 40
-0.6
 41
-30.0
 62
     5
 63
     7
421
 16777215
 74
     1
 91
        4
 64
     7
 65
   257
 75
     1
175
     1
 42
1.0
 92
        8
 66
     7
 43
1.0
 76
     1
 77
     6
 78
     2
 67
     7
 79
     5
170
     0
171
     0
290
     0
174
     0
 93
        1
 44
-50.0
173
     0
291
     1
 45
0.0
1001
ACAD
1000
AcDbSavedByObjectVersion
1070
     0
  0
VISUALSTYLE
  5
39
102
{ACAD_REACTORS
330
2A
102
}
330
2A
100
AcDbVisualStyle
  2
Facepattern
 70
    15
 71
     2
 72
     2
 73
     0
 90
        0
 40
-0.6
 41
-30.0
 62
     5
 63
     7
421
 16777215
 74
     1
 91
        4
 64
     7
 65
   257
 75
     1
175
     1
 42
1.0
 92
        8
 66
     7
 43
1.0
 76
     1
 77
     6
 78
     2
 67
     7
 79
     5
170
     0
171
     0
290
     0
174
     0
 93
        1
 44
0.0
173
     0
291
     1
 45
0.0
1001
ACAD
1000
AcDbSavedByObjectVersion
1070
     0
  0
VISUALSTYLE
  5
2B
102
{ACAD_REACTORS
330
2A
102
}
330
2A
100
AcDbVisualStyle
  2
Flat
 70
     0
 71
     2
 72
     1
 73
     1
 90
        2
 40
-0.6
 41
30.0
 62
     5
 63
     7
421
 16777215
 74
     0
 91
        4
 64
     7
 65
   257
 75
     1
175
     1
 42
1.0
 92
        8
 66
     7
 43
1.0
 76
     1
 77
     6
 78
     2
 67
     7
 79
     5
170
     0
171
     0
290
     0
174
     0
 93
       13
 44
0.0
173
     0
291
     1
 45
0.0
1001
ACAD
1000
AcDbSavedByObjectVersion
1070
     0
  0
VISUALSTYLE
  5
2C
102
{ACAD_REACTORS
330
2A
102
}
330
2A
100
AcDbVisualStyle
  2
FlatWithEdges
 70
     1
 71
     2
 72
     1
 73
     1
 90
        2
 40
-0.6
 41
30.0
 62
     5
 63
     7
421
 16777215
 74
     1
 91
        4
 64
     7
 65
   257
 75
     1
175
     1
 42
1.0
 92
        0
 66
   257
 43
1.0
 76
     1
 77
     6
 78
     2
 67
     7
 79
     5
170
     0
171
     0
290
     0
174
     0
 93
       13
 44
0.0
173
     0
291
     1
 45
0.0
1001
ACAD
1000
AcDbSavedByObjectVersion
1070
     0
  0
VISUALSTYLE
  5
2D
102
{ACAD_REACTORS
330
2A
102
}
330
2A
100
AcDbVisualStyle
  2
Gouraud
 70
     2
 71
     2
 72
     2
 73
     1
 90
        2
 40
-0.6
 41
30.0
 62
     5
 63
     7
421
 16777215
 74
     0
 91
        4
 64
     7
 65
   257
 75
     1
175
     1
 42
1.0
 92
        0
 66
     7
 43
1.0
 76
     1
 77
     6
 78
     2
 67
     7
 79
     5
170
     0
171
     0
290
     0
174
     0
 93
       13
 44
0.0
173
     0
291
     1
 45
0.0
1001
ACAD
1000
AcDbSavedByObjectVersion
1070
     0
  0
VISUALSTYLE
  5
2E
102
{ACAD_REACTORS
330
2A
102
}
330
2A
100
AcDbVisualStyle
  2
GouraudWithEdges
 70
     3
 71
     2
 72
     2
 73
     1
 90
        2
 40
-0.6
 41
30.0
 62
     5
 63
     7
421
 16777215
 74
     1
 91
        4
 64
     7
 65
   257
 75
     1
175
     1
 42
1.0
 92
        0
 66
   257
 43
1.0
 76
     1
 77
     6
 78
     2
 67
     7
 79
     5
170
     0
171
     0
290
     0
174
     0
 93
       13
 44
0.0
173
     0
291
     1
 45
0.0
1001
ACAD
1000
AcDbSavedByObjectVersion
1070
     0
  0
VISUALSTYLE
  5
38
102
{ACAD_REACTORS
330
2A
102
}
330
2A
100
AcDbVisualStyle
  2
Linepattern
 70
    14
 71
     2
 72
     2
 73
     0
 90
        0
 40
-0.6
 41
-30.0
 62
     5
 63
     7
421
 16777215
 74
     1
 91
        4
 64
     7
 65
   257
 75
     7
175
     7
 42
1.0
 92
        8
 66
     7
 43
1.0
 76
     1
 77
     6
 78
     2
 67
     7
 79
     5
170
     0
171
     0
290
     0
174
     0
 93
        1
 44
0.0
173
     0
291
     1
 45
0.0
1001
ACAD
1000
AcDbSavedByObjectVersion
1070
     0
  0
VISUALSTYLE
  5
33
102
{ACAD_REACTORS
330
2A
102
}
330
2A
100
AcDbVisualStyle
  2
Realistic
 70
     8
 71
     2
 72
     2
 73
     0
 90
        0
 40
-0.6
 41
-30.0
 62
     5
 63
     7
421
 16777215
 74
     1
 91
        0
 64
     7
 65
   257
 75
     1
175
     1
 42
1.0
 92
        8
 66
     8
424
  7895160
 43
1.0
 76
     1
 77
     6
 78
     2
 67
     7
 79
     5
170
     0
171
     0
290
     0
174
     0
 93
       13
 44
0.0
173
     0
291
     0
 45
0.0
1001
ACAD
1000
AcDbSavedByObjectVersion
1070
     0
  0
VISUALSTYLE
  5
37
102
{ACAD_REACTORS
330
2A
102
}
330
2A
100
AcDbVisualStyle
  2
Thicken
 70
    13
 71
     2
 72
     2
 73
     0
 90
        0
 40
-0.6
 41
-30.0
 62
     5
 63
     7
421
 16777215
 74
     1
 91
        4
 64
     7
 65
   257
 75
     1
175
     1
 42
1.0
 92
       12
 66
     7
 43
1.0
 76
     1
 77
     6
 78
     2
 67
     7
 79
     5
170
     0
171
     0
290
     0
174
     0
 93
        1
 44
0.0
173
     0
291
     1
 45
0.0
1001
ACAD
1000
AcDbSavedByObjectVersion
1070
     0
  0
ENDSEC
  0
EOF
