  0
SECTION
  2
HEADER
  9
$ACADVER
  1
AC1018
  9
$ACADMAINTVER
 70
     0
  9
$DWGCODEPAGE
  3
ANSI_1252
  9
$INSBASE
 10
0.0
 20
0.0
 30
0.0
  9
$EXTMIN
 10
1.000000000000000E+20
 20
1.000000000000000E+20
 30
1.000000000000000E+20
  9
$EXTMAX
 10
-1.000000000000000E+20
 20
-1.000000000000000E+20
 30
-1.000000000000000E+20
  9
$LIMMIN
 10
0.0
 20
0.0
  9
$LIMMAX
 10
12.0
 20
9.0
  9
$ORTHOMODE
 70
     0
  9
$REGENMODE
 70
     1
  9
$FILLMODE
 70
     1
  9
$QTEXTMODE
 70
     0
  9
$MIRRTEXT
 70
     1
  9
$LTSCALE
 40
1.0
  9
$ATTMODE
 70
     1
  9
$TEXTSIZE
 40
0.2
  9
$TRACEWID
 40
0.05
  9
$TEXTSTYLE
  7
Standard
  9
$CLAYER
  8
0
  9
$CELTYPE
  6
ByLayer
  9
$CECOLOR
 62
   256
  9
$CELTSCALE
 40
1.0
  9
$DISPSILH
 70
     0
  9
$DIMSCALE
 40
1.0
  9
$DIMASZ
 40
0.18
  9
$DIMEXO
 40
0.0625
  9
$DIMDLI
 40
0.38
  9
$DIMRND
 40
0.0
  9
$DIMDLE
 40
0.0
  9
$DIMEXE
 40
0.18
  9
$DIMTP
 40
0.0
  9
$DIMTM
 40
0.0
  9
$DIMTXT
 40
0.18
  9
$DIMCEN
 40
0.09
  9
$DIMTSZ
 40
0.0
  9
$DIMTOL
 70
     0
  9
$DIMLIM
 70
     0
  9
$DIMTIH
 70
     1
  9
$DIMTOH
 70
     1
  9
$DIMSE1
 70
     0
  9
$DIMSE2
 70
     0
  9
$DIMTAD
 70
     0
  9
$DIMZIN
 70
     0
  9
$DIMBLK
  1

  9
$DIMASO
 70
     1
  9
$DIMSHO
 70
     1
  9
$DIMPOST
  1

  9
$DIMAPOST
  1

  9
$DIMALT
 70
     0
  9
$DIMALTD
 70
     2
  9
$DIMALTF
 40
25.4
  9
$DIMLFAC
 40
1.0
  9
$DIMTOFL
 70
     0
  9
$DIMTVP
 40
0.0
  9
$DIMTIX
 70
     0
  9
$DIMSOXD
 70
     0
  9
$DIMSAH
 70
     0
  9
$DIMBLK1
  1

  9
$DIMBLK2
  1

  9
$DIMSTYLE
  2
Standard
  9
$DIMCLRD
 70
     0
  9
$DIMCLRE
 70
     0
  9
$DIMCLRT
 70
     0
  9
$DIMTFAC
 40
1.0
  9
$DIMGAP
 40
0.09
  9
$DIMJUST
 70
     0
  9
$DIMSD1
 70
     0
  9
$DIMSD2
 70
     0
  9
$DIMTOLJ
 70
     1
  9
$DIMTZIN
 70
     0
  9
$DIMALTZ
 70
     0
  9
$DIMALTTZ
 70
     0
  9
$DIMUPT
 70
     0
  9
$DIMDEC
 70
     4
  9
$DIMTDEC
 70
     4
  9
$DIMALTU
 70
     2
  9
$DIMALTTD
 70
     2
  9
$DIMTXSTY
  7
Standard
  9
$DIMAUNIT
 70
     0
  9
$DIMADEC
 70
     0
  9
$DIMALTRND
 40
0.0
  9
$DIMAZIN
 70
     0
  9
$DIMDSEP
 70
    46
  9
$DIMATFIT
 70
     3
  9
$DIMFRAC
 70
     0
  9
$DIMLDRBLK
  1

  9
$DIMLUNIT
 70
     2
  9
$DIMLWD
 70
    -2
  9
$DIMLWE
 70
    -2
  9
$DIMTMOVE
 70
     0
  9
$LUNITS
 70
     2
  9
$LUPREC
 70
     4
  9
$SKETCHINC
 40
0.1
  9
$FILLETRAD
 40
0.5
  9
$AUNITS
 70
     0
  9
$AUPREC
 70
     0
  9
$MENU
  1
.
  9
$ELEVATION
 40
0.0
  9
$PELEVATION
 40
0.0
  9
$THICKNESS
 40
0.0
  9
$LIMCHECK
 70
     0
  9
$CHAMFERA
 40
0.5
  9
$CHAMFERB
 40
0.5
  9
$CHAMFERC
 40
1.0
  9
$CHAMFERD
 40
0.0
  9
$SKPOLY
 70
     0
  9
$TDCREATE
 40
2455736.913014317
  9
$TDUCREATE
 40
2455737.163014317
  9
$TDUPDATE
 40
2455736.913014329
  9
$TDUUPDATE
 40
2455737.163014329
  9
$TDINDWG
 40
0.0000000116
  9
$TDUSRTIMER
 40
0.0000000116
  9
$USRTIMER
 70
     1
  9
$ANGBASE
 50
0.0
  9
$ANGDIR
 70
     0
  9
$PDMODE
 70
     0
  9
$PDSIZE
 40
0.0
  9
$PLINEWID
 40
0.0
  9
$SPLFRAME
 70
     0
  9
$SPLINETYPE
 70
     6
  9
$SPLINESEGS
 70
     8
  9
$HANDSEED
  5
49
  9
$SURFTAB1
 70
     6
  9
$SURFTAB2
 70
     6
  9
$SURFTYPE
 70
     6
  9
$SURFU
 70
     6
  9
$SURFV
 70
     6
  9
$UCSBASE
  2

  9
$UCSNAME
  2

  9
$UCSORG
 10
0.0
 20
0.0
 30
0.0
  9
$UCSXDIR
 10
1.0
 20
0.0
 30
0.0
  9
$UCSYDIR
 10
0.0
 20
1.0
 30
0.0
  9
$UCSORTHOREF
  2

  9
$UCSORTHOVIEW
 70
     0
  9
$UCSORGTOP
 10
0.0
 20
0.0
 30
0.0
  9
$UCSORGBOTTOM
 10
0.0
 20
0.0
 30
0.0
  9
$UCSORGLEFT
 10
0.0
 20
0.0
 30
0.0
  9
$UCSORGRIGHT
 10
0.0
 20
0.0
 30
0.0
  9
$UCSORGFRONT
 10
0.0
 20
0.0
 30
0.0
  9
$UCSORGBACK
 10
0.0
 20
0.0
 30
0.0
  9
$PUCSBASE
  2

  9
$PUCSNAME
  2

  9
$PUCSORG
 10
0.0
 20
0.0
 30
0.0
  9
$PUCSXDIR
 10
1.0
 20
0.0
 30
0.0
  9
$PUCSYDIR
 10
0.0
 20
1.0
 30
0.0
  9
$PUCSORTHOREF
  2

  9
$PUCSORTHOVIEW
 70
     0
  9
$PUCSORGTOP
 10
0.0
 20
0.0
 30
0.0
  9
$PUCSORGBOTTOM
 10
0.0
 20
0.0
 30
0.0
  9
$PUCSORGLEFT
 10
0.0
 20
0.0
 30
0.0
  9
$PUCSORGRIGHT
 10
0.0
 20
0.0
 30
0.0
  9
$PUCSORGFRONT
 10
0.0
 20
0.0
 30
0.0
  9
$PUCSORGBACK
 10
0.0
 20
0.0
 30
0.0
  9
$USERI1
 70
     0
  9
$USERI2
 70
     0
  9
$USERI3
 70
     0
  9
$USERI4
 70
     0
  9
$USERI5
 70
     0
  9
$USERR1
 40
0.0
  9
$USERR2
 40
0.0
  9
$USERR3
 40
0.0
  9
$USERR4
 40
0.0
  9
$USERR5
 40
0.0
  9
$WORLDVIEW
 70
     1
  9
$SHADEDGE
 70
     3
  9
$SHADEDIF
 70
    70
  9
$TILEMODE
 70
     1
  9
$MAXACTVP
 70
    64
  9
$PINSBASE
 10
0.0
 20
0.0
 30
0.0
  9
$PLIMCHECK
 70
     0
  9
$PEXTMIN
 10
1.000000000000000E+20
 20
1.000000000000000E+20
 30
1.000000000000000E+20
  9
$PEXTMAX
 10
-1.000000000000000E+20
 20
-1.000000000000000E+20
 30
-1.000000000000000E+20
  9
$PLIMMIN
 10
0.0
 20
0.0
  9
$PLIMMAX
 10
12.0
 20
9.0
  9
$UNITMODE
 70
     0
  9
$VISRETAIN
 70
     1
  9
$PLINEGEN
 70
     0
  9
$PSLTSCALE
 70
     1
  9
$TREEDEPTH
 70
  3020
  9
$CMLSTYLE
  2
Standard
  9
$CMLJUST
 70
     0
  9
$CMLSCALE
 40
1.0
  9
$PROXYGRAPHICS
 70
     1
  9
$MEASUREMENT
 70
     0
  9
$CELWEIGHT
370
    -1
  9
$ENDCAPS
280
     0
  9
$JOINSTYLE
280
     0
  9
$LWDISPLAY
290
     1
  9
$INSUNITS
 70
     1
  9
$HYPERLINKBASE
  1

  9
$STYLESHEET
  1

  9
$XEDIT
290
     1
  9
$CEPSNTYPE
380
     0
  9
$PSTYLEMODE
290
     1
  9
$FINGERPRINTGUID
  2
{DC14D4C9-84D2-4522-9CDE-AA01800C295C}
  9
$VERSIONGUID
  2
{FAEB1C32-E019-11D5-929B-00C0DF256EC4}
  9
$EXTNAMES
290
     1
  9
$PSVPSCALE
 40
0.0
  9
$OLESTARTUP
290
     0
  9
$SORTENTS
280
   127
  9
$INDEXCTL
280
     0
  9
$HIDETEXT
280
     1
  9
$XCLIPFRAME
290
     0
  9
$HALOGAP
280
     0
  9
$OBSCOLOR
 70
   257
  9
$OBSLTYPE
280
     0
  9
$INTERSECTIONDISPLAY
280
     0
  9
$INTERSECTIONCOLOR
 70
   257
  9
$DIMASSOC
280
     2
  9
$PROJECTNAME
  1

  0
ENDSEC
  0
SECTION
  2
CLASSES
  0
CLASS
  1
ACDBDICTIONARYWDFLT
  2
AcDbDictionaryWithDefault
  3
ObjectDBX Classes
 90
        0
 91
        3
280
     0
281
     0
  0
CLASS
  1
VISUALSTYLE
  2
AcDbVisualStyle
  3
ObjectDBX Classes
 90
     4095
 91
        3
280
     0
281
     0
  0
ENDSEC
  0
SECTION
  2
TABLES
  0
TABLE
  2
VPORT
  5
8
330
0
100
AcDbSymbolTable
 70
     1
  0
VPORT
  5
29
330
8
100
AcDbSymbolTableRecord
100
AcDbViewportTableRecord
  2
*Active
 70
     0
 10
0.0
 20
0.0
 11
1.0
 21
1.0
 12
0.0
 22
0.0
 13
0.0
 23
0.0
 14
0.5
 24
0.5
 15
0.5
 25
0.5
 16
0.0
 26
0.0
 36
1.0
 17
50.7999999873
 27
37.00756021210228
 37
0.0
 40
74.01512042420455
 41
1.372692490295194
 42
50.0
 43
0.0
 44
0.0
 50
0.0
 51
0.0
 71
     0
 72
   100
 73
     1
 74
     3
 75
     0
 76
     0
 77
     0
 78
     0
281
     0
 65
     1
110
0.0
120
0.0
130
0.0
111
1.0
121
0.0
131
0.0
112
0.0
122
1.0
132
0.0
 79
     0
146
0.0
  0
ENDTAB
  0
TABLE
  2
LTYPE
  5
5
330
0
100
AcDbSymbolTable
 70
     1
  0
LTYPE
  5
14
330
5
100
AcDbSymbolTableRecord
100
AcDbLinetypeTableRecord
  2
ByBlock
 70
     0
  3

 72
    65
 73
     0
 40
0.0
  0
LTYPE
  5
15
330
5
100
AcDbSymbolTableRecord
100
AcDbLinetypeTableRecord
  2
ByLayer
 70
     0
  3

 72
    65
 73
     0
 40
0.0
  0
LTYPE
  5
16
330
5
100
AcDbSymbolTableRecord
100
AcDbLinetypeTableRecord
  2
Continuous
 70
     0
  3
Solid line
 72
    65
 73
     0
 40
0.0
  0
ENDTAB
  0
TABLE
  2
LAYER
  5
2
330
0
100
AcDbSymbolTable
 70
     2
  0
LAYER
  5
10
330
2
100
AcDbSymbolTableRecord
100
AcDbLayerTableRecord
  2
0
 70
     0
 62
     7
  6
Continuous
370
    -3
390
F
  0
LAYER
  5
3B
330
2
100
AcDbSymbolTableRecord
100
AcDbLayerTableRecord
  2
Layer 1
 70
     0
 62
     7
  6
Continuous
370
    -3
390
F
  0
ENDTAB
  0
TABLE
  2
STYLE
  5
3
330
0
100
AcDbSymbolTable
 70
     1
  0
STYLE
  5
11
330
3
100
AcDbSymbolTableRecord
100
AcDbTextStyleTableRecord
  2
Standard
 70
     0
 40
0.0
 41
1.0
 50
0.0
 71
     0
 42
0.2
  3
txt
  4

  0
ENDTAB
  0
TABLE
  2
VIEW
  5
6
330
0
100
AcDbSymbolTable
 70
     0
  0
ENDTAB
  0
TABLE
  2
UCS
  5
7
330
0
100
AcDbSymbolTable
 70
     0
  0
ENDTAB
  0
TABLE
  2
APPID
  5
9
330
0
100
AcDbSymbolTable
 70
     1
  0
APPID
  5
12
330
9
100
AcDbSymbolTableRecord
100
AcDbRegAppTableRecord
  2
ACAD
 70
     0
  0
ENDTAB
  0
TABLE
  2
DIMSTYLE
  5
A
330
0
100
AcDbSymbolTable
 70
     1
100
AcDbDimStyleTable
  0
DIMSTYLE
105
27
330
A
100
AcDbSymbolTableRecord
100
AcDbDimStyleTableRecord
  2
Standard
 70
     0
340
11
  0
ENDTAB
  0
TABLE
  2
BLOCK_RECORD
  5
1
330
0
100
AcDbSymbolTable
 70
     1
  0
BLOCK_RECORD
  5
1F
330
1
100
AcDbSymbolTableRecord
100
AcDbBlockTableRecord
  2
*Model_Space
340
22
  0
BLOCK_RECORD
  5
1B
330
1
100
AcDbSymbolTableRecord
100
AcDbBlockTableRecord
  2
*Paper_Space
340
1E
  0
BLOCK_RECORD
  5
23
330
1
100
AcDbSymbolTableRecord
100
AcDbBlockTableRecord
  2
*Paper_Space0
340
26
  0
ENDTAB
  0
ENDSEC
  0
SECTION
  2
BLOCKS
  0
BLOCK
  5
20
330
1F
100
AcDbEntity
  8
0
100
AcDbBlockBegin
  2
*Model_Space
 70
     0
 71
     0
 10
0.0
 20
0.0
 30
0.0
  3
*Model_Space
  1

  0
ENDBLK
  5
21
330
1F
100
AcDbEntity
  8
0
100
AcDbBlockEnd
  0
BLOCK
  5
1C
330
1B
100
AcDbEntity
 67
     1
  8
0
100
AcDbBlockBegin
  2
*Paper_Space
 70
     0
 71
     0
 10
0.0
 20
0.0
 30
0.0
  3
*Paper_Space
  1

  0
ENDBLK
  5
1D
330
1B
100
AcDbEntity
 67
     1
  8
0
100
AcDbBlockEnd
  0
BLOCK
  5
24
330
23
100
AcDbEntity
  8
0
100
AcDbBlockBegin
  2
*Paper_Space0
 70
     0
 71
     0
 10
0.0
 20
0.0
 30
0.0
  3
*Paper_Space0
  1

  0
ENDBLK
  5
25
330
23
100
AcDbEntity
  8
0
100
AcDbBlockEnd
  0
ENDSEC
  0
SECTION
  2
ENTITIES
  0
SPLINE
  5
3C
330
1F
100
AcDbEntity
  8
Layer 1
370
     0
100
AcDbSpline
210
0.0
220
0.0
230
1.0
 70
    11
 71
     3
 72
   227
 73
   223
 74
     0
 42
0.0000000001
 43
0.0000000001
 40
0.0
 40
0.0
 40
0.0
 40
0.0
 40
1.0
 40
1.0
 40
1.0
 40
2.0
 40
2.0
 40
2.0
 40
3.0
 40
3.0
 40
3.0
 40
4.0
 40
4.0
 40
4.0
 40
5.0
 40
5.0
 40
5.0
 40
6.0
 40
6.0
 40
6.0
 40
7.0
 40
7.0
 40
7.0
 40
8.0
 40
8.0
 40
8.0
 40
9.0
 40
9.0
 40
9.0
 40
10.0
 40
10.0
 40
10.0
 40
11.0
 40
11.0
 40
11.0
 40
12.0
 40
12.0
 40
12.0
 40
13.0
 40
13.0
 40
13.0
 40
14.0
 40
14.0
 40
14.0
 40
15.0
 40
15.0
 40
15.0
 40
16.0
 40
16.0
 40
16.0
 40
17.0
 40
17.0
 40
17.0
 40
18.0
 40
18.0
 40
18.0
 40
19.0
 40
19.0
 40
19.0
 40
20.0
 40
20.0
 40
20.0
 40
21.0
 40
21.0
 40
21.0
 40
22.0
 40
22.0
 40
22.0
 40
23.0
 40
23.0
 40
23.0
 40
24.0
 40
24.0
 40
24.0
 40
25.0
 40
25.0
 40
25.0
 40
26.0
 40
26.0
 40
26.0
 40
27.0
 40
27.0
 40
27.0
 40
28.0
 40
28.0
 40
28.0
 40
29.0
 40
29.0
 40
29.0
 40
30.0
 40
30.0
 40
30.0
 40
31.0
 40
31.0
 40
31.0
 40
32.0
 40
32.0
 40
32.0
 40
33.0
 40
33.0
 40
33.0
 40
34.0
 40
34.0
 40
34.0
 40
35.0
 40
35.0
 40
35.0
 40
36.0
 40
36.0
 40
36.0
 40
37.0
 40
37.0
 40
37.0
 40
38.0
 40
38.0
 40
38.0
 40
39.0
 40
39.0
 40
39.0
 40
40.0
 40
40.0
 40
40.0
 40
41.0
 40
41.0
 40
41.0
 40
42.0
 40
42.0
 40
42.0
 40
43.0
 40
43.0
 40
43.0
 40
44.0
 40
44.0
 40
44.0
 40
45.0
 40
45.0
 40
45.0
 40
46.0
 40
46.0
 40
46.0
 40
47.0
 40
47.0
 40
47.0
 40
48.0
 40
48.0
 40
48.0
 40
49.0
 40
49.0
 40
49.0
 40
50.0
 40
50.0
 40
50.0
 40
51.0
 40
51.0
 40
51.0
 40
52.0
 40
52.0
 40
52.0
 40
53.0
 40
53.0
 40
53.0
 40
54.0
 40
54.0
 40
54.0
 40
55.0
 40
55.0
 40
55.0
 40
56.0
 40
56.0
 40
56.0
 40
57.0
 40
57.0
 40
57.0
 40
58.0
 40
58.0
 40
58.0
 40
59.0
 40
59.0
 40
59.0
 40
60.0
 40
60.0
 40
60.0
 40
61.0
 40
61.0
 40
61.0
 40
62.0
 40
62.0
 40
62.0
 40
63.0
 40
63.0
 40
63.0
 40
64.0
 40
64.0
 40
64.0
 40
65.0
 40
65.0
 40
65.0
 40
66.0
 40
66.0
 40
66.0
 40
67.0
 40
67.0
 40
67.0
 40
68.0
 40
68.0
 40
68.0
 40
69.0
 40
69.0
 40
69.0
 40
70.0
 40
70.0
 40
70.0
 40
71.0
 40
71.0
 40
71.0
 40
72.0
 40
72.0
 40
72.0
 40
73.0
 40
73.0
 40
73.0
 40
74.0
 40
74.0
 40
74.0
 40
74.0
 10
83.06676430214998
 20
32.8021321532578
 30
0.0
 10
84.61671276096388
 20
32.71807182341771
 30
0.0
 10
88.29435219146808
 20
32.33222112906972
 30
0.0
 10
90.04652775526615
 20
32.95302733551174
 30
0.0
 10
98.03880477149725
 20
35.79178601535761
 30
0.0
 10
106.0775905767792
 20
48.17776555870209
 30
0.0
 10
98.67097979304059
 20
55.56732311978872
 30
0.0
 10
98.67097979304059
 20
55.56732311978872
 30
0.0
 10
96.8109727405542
 20
57.42061223607887
 30
0.0
 10
96.8137288169424
 20
57.44042153511906
 30
0.0
 10
97.91374780538268
 20
63.77457409429942
 30
0.0
 10
87.59775388435057
 20
68.4442287697813
 30
0.0
 10
87.59775388435057
 20
68.4442287697813
 30
0.0
 10
87.59775388435057
 20
68.4442287697813
 30
0.0
 10
87.11612953551264
 20
67.26910669976259
 30
0.0
 10
87.11612953551264
 20
67.26910669976259
 30
0.0
 10
86.82949759113986
 20
67.84839950560735
 30
0.0
 10
86.44950355911679
 20
68.39048528021141
 30
0.0
 10
85.97959253492871
 20
68.89501951402625
 30
0.0
 10
82.81389429353264
 20
72.28826631222307
 30
0.0
 10
74.09194605352563
 20
72.68531356689812
 30
0.0
 10
74.09194605352563
 20
72.68531356689812
 30
0.0
 10
74.09194605352563
 20
72.68531356689812
 30
0.0
 10
73.56932506841322
 20
71.24784747567763
 30
0.0
 10
73.48560924812166
 20
70.93692760813383
 30
0.0
 10
73.43117673945471
 20
70.99566648615733
 30
0.0
 10
73.37364364485104
 20
71.05302732598675
 30
0.0
 10
73.31645505979589
 20
71.11056042059042
 30
0.0
 10
71.03924694404574
 20
73.33471406586771
 30
0.0
 10
63.55684405963162
 20
74.26626788507927
 30
0.0
 10
60.60715330516071
 20
72.69409856038551
 30
0.0
 10
60.60715330516071
 20
72.69409856038551
 30
0.0
 10
61.14803329634494
 20
69.79556747387056
 30
0.0
 10
61.51355792732995
 20
69.2309163238381
 30
0.0
 10
60.3394693859568
 20
70.72574325488802
 30
0.0
 10
58.58557127441611
 20
71.8247287146827
 30
0.0
 10
55.96282008149541
 20
72.25192055485368
 30
0.0
 10
52.69170191825069
 20
72.78022594751675
 30
0.0
 10
49.60575763733814
 20
69.3246229210369
 30
0.0
 10
49.26469318429841
 20
68.9287814497817
 30
0.0
 10
49.26469318429841
 20
68.9287814497817
 30
0.0
 10
49.04868569737324
 20
68.67780624368125
 30
0.0
 10
49.04868569737324
 20
68.67780624368125
 30
0.0
 10
48.06269936949474
 20
70.00278996730833
 30
0.0
 10
46.83142224306645
 20
71.12055119749765
 30
0.0
 10
45.24891763191694
 20
71.80112981060874
 30
0.0
 10
43.60870767138949
 20
72.50789114940775
 30
0.0
 10
41.89649521522032
 20
72.41297876878912
 30
0.0
 10
40.24922280894811
 20
72.22952743419957
 30
0.0
 10
36.9298733089099
 20
71.85849065043816
 30
0.0
 10
34.23167452486222
 20
74.01529267897882
 30
0.0
 10
34.23167452486222
 20
74.01529267897882
 30
0.0
 10
34.23167452486222
 20
74.01529267897882
 30
0.0
 10
33.89818928189004
 20
71.9597764577045
 30
0.0
 10
33.89818928189004
 20
71.9597764577045
 30
0.0
 10
33.81705728321241
 20
71.46127114098886
 30
0.0
 10
33.80637748720813
 20
70.9793022826024
 30
0.0
 10
33.85460882400163
 20
70.51714272325613
 30
0.0
 10
30.84170056737638
 20
71.72482094561046
 30
0.0
 10
27.02005614558874
 20
70.83701983906158
 30
0.0
 10
23.60269367899516
 20
70.04395885835707
 30
0.0
 10
22.16264376616073
 20
69.70926783196505
 30
0.0
 10
20.80079752084147
 20
69.3921467925478
 30
0.0
 10
19.72386067215237
 20
69.29602862850933
 30
0.0
 10
19.72386067215237
 20
69.29602862850933
 30
0.0
 10
17.85592990004991
 20
69.13100855476586
 30
0.0
 10
17.85592990004991
 20
69.13100855476586
 30
0.0
 10
17.85592990004991
 20
69.13100855476586
 30
0.0
 10
18.69205457432004
 20
67.45255803435214
 30
0.0
 10
18.69205457432004
 20
67.45255803435214
 30
0.0
 10
18.91443548789292
 20
67.00435111172114
 30
0.0
 10
19.23534613234394
 20
66.5847384816177
 30
0.0
 10
19.63256564179325
 20
66.1861409339743
 30
0.0
 10
17.24718152780626
 20
66.87808836218673
 30
0.0
 10
9.164643009861617
 20
66.51463078849287
 30
0.0
 10
0.0
 20
71.35654023823726
 30
0.0
 10
1.546675618102914
 20
69.05986733299545
 30
0.0
 10
2.497005207709082
 20
67.31647676268477
 30
0.0
 10
2.497005207709082
 20
67.31647676268477
 30
0.0
 10
3.534840222640596
 20
65.63682045885122
 30
0.0
 10
4.28656005752211
 20
63.67363279658159
 30
0.0
 10
5.012269421489989
 20
61.77779675104861
 30
0.0
 10
6.568246797403077
 20
57.71775172168167
 30
0.0
 10
8.166254338236214
 20
53.54436305085002
 30
0.0
 10
12.58028292871257
 20
51.51709661255476
 30
0.0
 10
11.36330294854806
 20
51.26732718987414
 30
0.0
 10
8.974818248624352
 20
49.63779702535097
 30
0.0
 10
8.974818248624352
 20
49.63779702535097
 30
0.0
 10
8.974818248624352
 20
49.63779702535097
 30
0.0
 10
9.43301594816258
 20
48.7536132690616
 30
0.0
 10
9.43301594816258
 20
48.7536132690616
 30
0.0
 10
10.7619615315977
 20
46.1846055657108
 30
0.0
 10
12.70206705411615
 20
44.61846515811622
 30
0.0
 10
14.95257567985561
 20
43.80301105675758
 30
0.0
 10
14.06460231853246
 20
43.4970865776674
 30
0.0
 10
13.2377794020725
 20
43.08746472447119
 30
0.0
 10
12.50276828029445
 20
42.54537894986713
 30
0.0
 10
12.50276828029445
 20
42.54537894986713
 30
0.0
 10
10.34786105427067
 20
40.95064424974498
 30
0.0
 10
10.34786105427067
 20
40.95064424974498
 30
0.0
 10
10.34786105427067
 20
40.95064424974498
 30
0.0
 10
14.75258788693685
 20
39.3147406585741
 30
0.0
 10
15.64676242013345
 20
38.55664739704487
 30
0.0
 10
16.56608615037237
 20
37.77857258170119
 30
0.0
 10
17.5152099565587
 20
36.97310925724978
 30
0.0
 10
18.75406629305454
 20
36.49355196570301
 30
0.0
 10
19.1037434848074
 20
36.35747069403563
 30
0.0
 10
19.43516167048843
 20
36.24619410986207
 30
0.0
 10
19.75004339784027
 20
36.15765515589114
 30
0.0
 10
18.23385687478181
 20
35.35701496511908
 30
0.0
 10
16.78140461820048
 20
34.33175454870873
 30
0.0
 10
15.44143472921256
 20
32.99161240494654
 30
0.0
 10
15.44143472921256
 20
32.99161240494654
 30
0.0
 10
19.30528157069451
 20
30.72852918068592
 30
0.0
 10
20.73155110158795
 20
30.11943629889375
 30
0.0
 10
21.50893689783457
 20
29.78698458456714
 30
0.0
 10
22.3125054197691
 20
29.44247503604216
 30
0.0
 10
23.14122313874595
 20
29.2388698928639
 30
0.0
 10
24.69289414530247
 20
28.85543076535559
 30
0.0
 10
26.34016655157468
 20
28.75931260131712
 30
0.0
 10
27.97365857590589
 20
28.83062607786179
 30
0.0
 10
27.2167710977965
 20
28.49335122985583
 30
0.0
 10
26.48882242176321
 20
28.09234211537275
 30
0.0
 10
25.82943114588639
 20
27.6117512951804
 30
0.0
 10
24.81347248728622
 20
26.87105576585168
 30
0.0
 10
24.10533311029311
 20
25.87060003693513
 30
0.0
 10
23.42044812782544
 20
24.90425075332255
 30
0.0
 10
22.64357909590161
 20
23.80767686036753
 30
0.0
 10
21.65121934137539
 20
20.132448996703
 30
0.0
 10
21.65121934137539
 20
20.132448996703
 30
0.0
 10
22.85407443005037
 20
20.34811197407964
 30
0.0
 10
28.38758679845866
 20
18.29138996938549
 30
0.0
 10
29.33240423528843
 20
18.11913519512299
 30
0.0
 10
33.81946885005208
 20
17.30609266060403
 30
0.0
 10
37.01169432668458
 20
18.66001518630722
 30
0.0
 10
40.42543944301864
 20
20.37326117112196
 30
0.0
 10
40.73877087740212
 20
20.53070203479788
 30
0.0
 10
41.05106878314001
 20
20.69158799395905
 30
0.0
 10
41.36009384816693
 20
20.85523002950842
 30
0.0
 10
40.80991209917252
 20
20.1710340661378
 30
0.0
 10
40.34103460363002
 20
19.36557074168639
 30
0.0
 10
39.99273545007127
 20
18.39267577665183
 30
0.0
 10
38.50652125773448
 20
14.25787217525498
 30
0.0
 10
37.0010145306803
 20
11.91727430257624
 30
0.0
 10
33.79638671030091
 20
8.769146048154935
 30
0.0
 10
33.79638671030091
 20
8.769146048154935
 30
0.0
 10
32.12224255924374
 20
7.126524520787814
 30
0.0
 10
32.12224255924374
 20
7.126524520787814
 30
0.0
 10
32.12224255924374
 20
7.126524520787814
 30
0.0
 10
34.41013047099816
 20
6.608382159806238
 30
0.0
 10
34.41013047099816
 20
6.608382159806238
 30
0.0
 10
41.01592880919046
 20
5.119756400629783
 30
0.0
 10
47.559543173874
 20
7.374226886177277
 30
0.0
 10
52.66517468301426
 20
11.53142360822826
 30
0.0
 10
53.32697752573076
 20
12.0685139943787
 30
0.0
 10
53.96569822869608
 20
12.64039984493018
 30
0.0
 10
54.5754801295853
 20
13.23881293071807
 30
0.0
 10
56.7720730109806
 20
15.39406466629037
 30
0.0
 10
58.79951170405013
 20
17.85076225682203
 30
0.0
 10
60.57097980256559
 20
20.36843803744261
 30
0.0
 10
61.25620929458179
 20
21.33995496428307
 30
0.0
 10
62.64906139926829
 20
23.31675075371943
 30
0.0
 10
63.27779132532639
 20
23.71638183000841
 30
0.0
 10
63.51756997109977
 20
23.68778753748083
 30
0.0
 10
63.60576441552217
 20
23.63542208610503
 30
0.0
 10
63.610243039653
 20
23.63886718159029
 30
0.0
 10
63.6185112688176
 20
23.61647406093616
 30
0.0
 10
63.67535534432422
 20
23.43905164344579
 30
0.0
 10
63.5716579702182
 20
22.97706433887379
 30
0.0
 10
63.04834796600875
 20
20.6743625165328
 30
0.0
 10
61.61966686827564
 20
18.67965223057314
 30
0.0
 10
60.39355738507523
 20
16.70802408436466
 30
0.0
 10
57.80422361836145
 20
12.54669324773138
 30
0.0
 10
55.5862711449576
 20
9.488137475926576
 30
0.0
 10
51.10868054277839
 20
7.265361868843382
 30
0.0
 10
50.25188529559675
 20
6.840581595512077
 30
0.0
 10
49.43643119423812
 20
6.436127385543746
 30
0.0
 10
48.73466524389273
 20
6.04028591428854
 30
0.0
 10
48.73466524389273
 20
6.04028591428854
 30
0.0
 10
46.93804794833493
 20
5.028461370270663
 30
0.0
 10
46.93804794833493
 20
5.028461370270663
 30
0.0
 10
46.93804794833493
 20
5.028461370270663
 30
0.0
 10
48.64354246830786
 20
3.868497720387043
 30
0.0
 10
48.64354246830786
 20
3.868497720387043
 30
0.0
 10
54.07387422693292
 20
0.1756998697477417
 30
0.0
 10
62.80477971520158
 20
-1.713935003911794
 30
0.0
 10
68.2848931035885
 20
2.064990233858753
 30
0.0
 10
71.69863821992257
 20
4.419368488478492
 30
0.0
 10
73.60791013784802
 20
6.929465059031523
 30
0.0
 10
74.29658472534946
 20
9.966661238827779
 30
0.0
 10
74.52981768970088
 20
10.99329969343223
 30
0.0
 10
74.61215547179836
 20
12.02717284855571
 30
0.0
 10
74.60147567579408
 20
13.07758246200838
 30
0.0
 10
74.66210935633448
 20
12.96010470596136
 30
0.0
 10
74.72618813236012
 20
12.84779459314222
 30
0.0
 10
74.79371200387102
 20
12.74030761400242
 30
0.0
 10
76.57723793658486
 20
9.992843964515679
 30
0.0
 10
77.99627276695927
 20
7.999511716750122
 30
0.0
 10
75.87822806262767
 20
4.999867077743089
 30
0.0
 10
75.87822806262767
 20
4.999867077743089
 30
0.0
 10
74.6307589874187
 20
3.232877603358447
 30
0.0
 10
74.6307589874187
 20
3.232877603358447
 30
0.0
 10
74.6307589874187
 20
3.232877603358447
 30
0.0
 10
76.77808700337492
 20
2.990342881196859
 30
0.0
 10
76.77808700337492
 20
2.990342881196859
 30
0.0
 10
81.74178057852289
 20
2.42982584574671
 30
0.0
 10
86.40850692284232
 20
6.624574108586913
 30
0.0
 10
87.7706976777101
 20
11.03050672467293
 30
0.0
 10
88.83178708716706
 20
14.45768771339947
 30
0.0
 10
88.02253415768187
 20
17.80425346777116
 30
0.0
 10
86.20559079876111
 20
20.80803222136049
 30
0.0
 10
84.259800868692
 20
24.02747395232647
 30
0.0
 10
80.77749835220146
 20
26.70879176849641
 30
0.0
 10
79.67265623008184
 20
30.36541611654059
 30
0.0
 10
86.98900551210691
 20
28.86300997542314
 30
0.0
 10
91.60336640505055
 20
19.056890186208
 30
0.0
 10
91.6963839831523
 20
11.15935329582127
 30
0.0
 10
91.6963839831523
 20
11.15935329582127
 30
0.0
 10
95.50562606119304
 20
9.98044162076878
 30
0.0
 10
96.48058808351874
 20
12.58906792219996
 30
0.0
 10
97.73219127331001
 20
15.9349446574746
 30
0.0
 10
89.60245494721745
 20
30.19695094731188
 30
0.0
 10
83.06676430214998
 20
32.8021321532578
 30
0.0
  0
SPLINE
  5
3D
330
1F
100
AcDbEntity
  8
Layer 1
370
     0
100
AcDbSpline
210
0.0
220
0.0
230
1.0
 70
    11
 71
     3
 72
    29
 73
    25
 74
     0
 42
0.0000000001
 43
0.0000000001
 40
0.0
 40
0.0
 40
0.0
 40
0.0
 40
1.0
 40
1.0
 40
1.0
 40
2.0
 40
2.0
 40
2.0
 40
3.0
 40
3.0
 40
3.0
 40
4.0
 40
4.0
 40
4.0
 40
5.0
 40
5.0
 40
5.0
 40
6.0
 40
6.0
 40
6.0
 40
7.0
 40
7.0
 40
7.0
 40
8.0
 40
8.0
 40
8.0
 40
8.0
 10
15.33894313852638
 20
57.96252575590868
 30
0.0
 10
15.10726046714333
 20
58.02367620077186
 30
0.0
 10
14.88436278924766
 20
58.12599553668378
 30
0.0
 10
14.68471950587743
 20
58.26242131789967
 30
0.0
 10
14.09526366835119
 20
58.66566974444817
 30
0.0
 10
13.81982828430546
 20
59.31748181025744
 30
0.0
 10
13.98398708417762
 20
59.92812498501797
 30
0.0
 10
14.08389485324986
 20
60.29296059690593
 30
0.0
 10
14.32608506586292
 20
60.59509547096234
 30
0.0
 10
14.66646049980561
 20
60.78733179903928
 30
0.0
 10
15.08986273494281
 20
61.02469887797299
 30
0.0
 10
15.63814968142032
 20
61.07844236754289
 30
0.0
 10
16.16697183840617
 20
60.92858071393452
 30
0.0
 10
16.39744872636939
 20
60.86605223087724
 30
0.0
 10
16.62155218768489
 20
60.76493867838516
 30
0.0
 10
16.82067870673233
 20
60.62885740671779
 30
0.0
 10
17.40892876083874
 20
60.22543672539503
 30
0.0
 10
17.68315836146463
 20
59.57362465958576
 30
0.0
 10
17.51882730681821
 20
58.96280923005096
 30
0.0
 10
17.41823051864892
 20
58.60072969455121
 30
0.0
 10
17.1767293251329
 20
58.29601099888086
 30
0.0
 10
16.83635389119022
 20
58.10360241602966
 30
0.0
 10
16.41295165605301
 20
57.86520180845037
 30
0.0
 10
15.86724853118944
 20
57.81386988572014
 30
0.0
 10
15.33894313852638
 20
57.96252575590868
 30
0.0
  0
SPLINE
  5
3E
330
1F
100
AcDbEntity
  8
Layer 1
370
     0
100
AcDbSpline
210
0.0
220
0.0
230
1.0
 70
    11
 71
     3
 72
    26
 73
    22
 74
     0
 42
0.0000000001
 43
0.0000000001
 40
0.0
 40
0.0
 40
0.0
 40
0.0
 40
1.0
 40
1.0
 40
1.0
 40
2.0
 40
2.0
 40
2.0
 40
3.0
 40
3.0
 40
3.0
 40
4.0
 40
4.0
 40
4.0
 40
5.0
 40
5.0
 40
5.0
 40
6.0
 40
6.0
 40
6.0
 40
7.0
 40
7.0
 40
7.0
 40
7.0
 10
21.67946912435444
 20
54.17602130807058
 30
0.0
 10
21.56888155927792
 20
52.94095457660851
 30
0.0
 10
20.27748751663202
 20
52.08433158420114
 30
0.0
 10
18.74028591111354
 20
52.22144638451409
 30
0.0
 10
18.15703124546074
 20
52.27157252382447
 30
0.0
 10
17.61442870653389
 20
52.4588134634478
 30
0.0
 10
17.17242295577634
 20
52.76112059227847
 30
0.0
 10
16.49305012608507
 20
53.22689750188425
 30
0.0
 10
16.12528618303465
 20
53.93383109545751
 30
0.0
 10
16.18643662789784
 20
54.65437281619752
 30
0.0
 10
16.2307061048833
 20
55.1614908716263
 30
0.0
 10
16.48478189692047
 20
55.63226316968569
 30
0.0
 10
16.90370550792685
 20
55.98435192827822
 30
0.0
 10
17.46525607202258
 20
56.45512422633761
 30
0.0
 10
18.27450900150776
 20
56.68112249017
 30
0.0
 10
19.12424180294463
 20
56.6025743131063
 30
0.0
 10
19.70301784446661
 20
56.55744356224953
 30
0.0
 10
20.24768744068461
 20
56.37037487740047
 30
0.0
 10
20.69279377737888
 20
56.06548392695586
 30
0.0
 10
21.37216660707015
 20
55.59970701735008
 30
0.0
 10
21.74182535263746
 20
54.89277342377681
 30
0.0
 10
21.67946912435444
 20
54.17602130807058
 30
0.0
  0
SPLINE
  5
3F
330
1F
100
AcDbEntity
  8
Layer 1
370
     0
100
AcDbSpline
210
0.0
220
0.0
230
1.0
 70
    11
 71
     3
 72
    26
 73
    22
 74
     0
 42
0.0000000001
 43
0.0000000001
 40
0.0
 40
0.0
 40
0.0
 40
0.0
 40
1.0
 40
1.0
 40
1.0
 40
2.0
 40
2.0
 40
2.0
 40
3.0
 40
3.0
 40
3.0
 40
4.0
 40
4.0
 40
4.0
 40
5.0
 40
5.0
 40
5.0
 40
6.0
 40
6.0
 40
6.0
 40
7.0
 40
7.0
 40
7.0
 40
7.0
 10
66.5682020232885
 20
47.87683646806551
 30
0.0
 10
66.67052135920042
 20
48.75740287409538
 30
0.0
 10
67.03397893289429
 20
49.58784314081485
 30
0.0
 10
67.56245658033161
 20
50.15714516975238
 30
0.0
 10
67.96484373300879
 20
50.58933239837697
 30
0.0
 10
68.44336749591
 20
50.84289142609136
 30
0.0
 10
68.91293401054955
 20
50.87406954023287
 30
0.0
 10
69.16821558600655
 20
50.89146727243339
 30
0.0
 10
69.41316187500783
 20
50.84168564267153
 30
0.0
 10
69.63399249561233
 20
50.72679170823844
 30
0.0
 10
70.34781628015611
 20
50.35713296267114
 30
0.0
 10
70.71988659256309
 20
49.35168184530097
 30
0.0
 10
70.580704734959
 20
48.16398517676109
 30
0.0
 10
70.3960476169496
 20
46.57286782689845
 30
0.0
 10
69.36975367189368
 20
45.25666909675875
 30
0.0
 10
68.24492999595961
 20
45.17174749304734
 30
0.0
 10
67.9827582295321
 20
45.15314397742699
 30
0.0
 10
67.7360893927882
 20
45.20171982376902
 30
0.0
 10
67.5142252435381
 20
45.31678601297636
 30
0.0
 10
66.80315753538255
 20
45.68644475854367
 30
0.0
 10
66.43212075162114
 20
46.69172362113957
 30
0.0
 10
66.5682020232885
 20
47.87683646806551
 30
0.0
  0
SPLINE
  5
40
330
1F
100
AcDbEntity
  8
Layer 1
370
     0
100
AcDbSpline
210
0.0
220
0.0
230
1.0
 70
    11
 71
     3
 72
    29
 73
    25
 74
     0
 42
0.0000000001
 43
0.0000000001
 40
0.0
 40
0.0
 40
0.0
 40
0.0
 40
1.0
 40
1.0
 40
1.0
 40
2.0
 40
2.0
 40
2.0
 40
3.0
 40
3.0
 40
3.0
 40
4.0
 40
4.0
 40
4.0
 40
5.0
 40
5.0
 40
5.0
 40
6.0
 40
6.0
 40
6.0
 40
7.0
 40
7.0
 40
7.0
 40
8.0
 40
8.0
 40
8.0
 40
8.0
 10
44.14579805753994
 20
61.15716279938085
 30
0.0
 10
44.43845891901191
 20
61.76901175756122
 30
0.0
 10
44.91508787939623
 20
62.22118054000026
 30
0.0
 10
45.48628471085065
 20
62.42461342840426
 30
0.0
 10
45.96584200239743
 20
62.59462889060134
 30
0.0
 10
46.4817450513136
 20
62.58463811369412
 30
0.0
 10
46.97422145093006
 20
62.3872341423893
 30
0.0
 10
47.74437254665766
 20
62.07373045323157
 30
0.0
 10
48.39187824311037
 20
61.32304414699563
 30
0.0
 10
48.70469291317105
 20
60.37547063377766
 30
0.0
 10
49.00872258974435
 20
59.46613768044597
 30
0.0
 10
48.96738144392135
 20
58.48841958173207
 30
0.0
 10
48.59668916970847
 20
57.701559772901
 30
0.0
 10
48.30368379868797
 20
57.08454317149275
 30
0.0
 10
47.82739934785218
 20
56.62875703879421
 30
0.0
 10
47.25585800684923
 20
56.42274032877626
 30
0.0
 10
46.76768797658933
 20
56.24669594947999
 30
0.0
 10
46.25247394677022
 20
56.26030407664673
 30
0.0
 10
45.76223685921916
 20
56.46029186956549
 30
0.0
 10
44.99105223484599
 20
56.77138399188355
 30
0.0
 10
44.34302977407049
 20
57.52172578857096
 30
0.0
 10
44.03073186833259
 20
58.46947155656319
 30
0.0
 10
43.72739121085635
 20
59.38862303202784
 30
0.0
 10
43.76976588532492
 20
60.36789142371011
 30
0.0
 10
44.14579805753994
 20
61.15716279938085
 30
0.0
  0
SPLINE
  5
41
330
1F
100
AcDbEntity
  8
Layer 1
370
     0
100
AcDbSpline
210
0.0
220
0.0
230
1.0
 70
    11
 71
     3
 72
    29
 73
    25
 74
     0
 42
0.0000000001
 43
0.0000000001
 40
0.0
 40
0.0
 40
0.0
 40
0.0
 40
1.0
 40
1.0
 40
1.0
 40
2.0
 40
2.0
 40
2.0
 40
3.0
 40
3.0
 40
3.0
 40
4.0
 40
4.0
 40
4.0
 40
5.0
 40
5.0
 40
5.0
 40
6.0
 40
6.0
 40
6.0
 40
7.0
 40
7.0
 40
7.0
 40
8.0
 40
8.0
 40
8.0
 40
8.0
 10
36.35592040106727
 20
23.63886718159029
 30
0.0
 10
36.05809189636742
 20
22.94605847950654
 30
0.0
 10
35.41179198333455
 20
22.36280381385374
 30
0.0
 10
34.58324651913197
 20
22.03414170456091
 30
0.0
 10
33.58589137615214
 20
21.64829101021293
 30
0.0
 10
32.52204589030699
 20
21.71443684352973
 30
0.0
 10
31.80012613137289
 20
22.2077745170175
 30
0.0
 10
31.47611490098514
 20
22.43032768536464
 30
0.0
 10
31.23185763108092
 20
22.73108452122695
 30
0.0
 10
31.09026420663716
 20
23.07938367478571
 30
0.0
 10
30.89217121623529
 20
23.55790743768691
 30
0.0
 10
30.90474581475645
 20
24.10981173442394
 30
0.0
 10
31.12385388761834
 20
24.62313096172616
 30
0.0
 10
31.42168239231819
 20
25.31869574019811
 30
0.0
 10
32.06936034354516
 20
25.90436197269058
 30
0.0
 10
32.90100639368447
 20
26.22820094830406
 30
0.0
 10
33.89250487433937
 20
26.61749673813729
 30
0.0
 10
34.95841741747567
 20
26.55376247166017
 30
0.0
 10
35.68223197892667
 20
26.05697970268714
 30
0.0
 10
36.00314262337769
 20
25.83821613937378
 30
0.0
 10
36.24912244102453
 20
25.53987087035114
 30
0.0
 10
36.39088812024256
 20
25.19398328363206
 30
0.0
 10
36.59087591316131
 20
24.70305717698396
 30
0.0
 10
36.57709553122031
 20
24.15218640889251
 30
0.0
 10
36.35592040106727
 20
23.63886718159029
 30
0.0
  0
SPLINE
  5
42
330
1F
100
AcDbEntity
  8
Layer 1
370
     0
100
AcDbSpline
210
0.0
220
0.0
230
1.0
 70
    11
 71
     3
 72
    23
 73
    19
 74
     0
 42
0.0000000001
 43
0.0000000001
 40
0.0
 40
0.0
 40
0.0
 40
0.0
 40
1.0
 40
1.0
 40
1.0
 40
2.0
 40
2.0
 40
2.0
 40
3.0
 40
3.0
 40
3.0
 40
4.0
 40
4.0
 40
4.0
 40
5.0
 40
5.0
 40
5.0
 40
6.0
 40
6.0
 40
6.0
 40
6.0
 10
38.099999990475
 20
26.72257215043741
 30
0.0
 10
37.61165770544083
 20
26.63265515827239
 30
0.0
 10
37.13278943299111
 20
26.72119411224331
 30
0.0
 10
36.77673881459054
 20
26.96338432485638
 30
0.0
 10
36.49768608028531
 20
27.15562065293332
 30
0.0
 10
36.31113415975902
 20
27.43536240633561
 30
0.0
 10
36.25170626263846
 20
27.75024413368744
 30
0.0
 10
36.11373018845421
 20
28.49197319166173
 30
0.0
 10
36.70508082849734
 20
29.20648599530255
 30
0.0
 10
37.59856634259689
 20
29.37495116453126
 30
0.0
 10
38.08501382511417
 20
29.46486815669628
 30
0.0
 10
38.56594915485504
 20
29.38011880775914
 30
0.0
 10
38.92044948028725
 20
29.13655055695197
 30
0.0
 10
39.20019123368954
 20
28.94534775752061
 30
0.0
 10
39.38691540899008
 20
28.668017570958
 30
0.0
 10
39.44565428701359
 20
28.35106878631501
 30
0.0
 10
39.58604192803752
 20
27.60658365195252
 30
0.0
 10
38.99538030709144
 20
26.89379339605433
 30
0.0
 10
38.099999990475
 20
26.72257215043741
 30
0.0
  0
SPLINE
  5
43
330
1F
100
AcDbEntity
  8
Layer 1
370
     0
100
AcDbSpline
210
0.0
220
0.0
230
1.0
 70
    11
 71
     3
 72
    32
 73
    28
 74
     0
 42
0.0000000001
 43
0.0000000001
 40
0.0
 40
0.0
 40
0.0
 40
0.0
 40
1.0
 40
1.0
 40
1.0
 40
2.0
 40
2.0
 40
2.0
 40
3.0
 40
3.0
 40
3.0
 40
4.0
 40
4.0
 40
4.0
 40
5.0
 40
5.0
 40
5.0
 40
6.0
 40
6.0
 40
6.0
 40
7.0
 40
7.0
 40
7.0
 40
8.0
 40
8.0
 40
8.0
 40
9.0
 40
9.0
 40
9.0
 40
9.0
 10
63.40043672460128
 20
27.59280327001152
 30
0.0
 10
62.6545735520447
 20
26.82006835266998
 30
0.0
 10
61.55352103495885
 20
26.63506672511207
 30
0.0
 10
60.78939885633043
 20
27.15837672932152
 30
0.0
 10
60.78939885633043
 20
27.15837672932152
 30
0.0
 10
60.71291773655788
 20
27.21212021889141
 30
0.0
 10
60.71291773655788
 20
27.21212021889141
 30
0.0
 10
60.71291773655788
 20
27.21212021889141
 30
0.0
 10
60.57476940759937
 20
27.33200954177811
 30
0.0
 10
60.57476940759937
 20
27.33200954177811
 30
0.0
 10
59.82752819684868
 20
28.06099174645697
 30
0.0
 10
59.90435382616975
 20
29.30880533121447
 30
0.0
 10
60.74667967231333
 20
30.17559135530333
 30
0.0
 10
61.49805499764632
 20
30.95004882038749
 30
0.0
 10
62.59704045744102
 20
31.13332790020278
 30
0.0
 10
63.36116263606944
 20
30.61036240554186
 30
0.0
 10
63.36116263606944
 20
30.61036240554186
 30
0.0
 10
63.44039983223018
 20
30.55627440642343
 30
0.0
 10
63.44039983223018
 20
30.55627440642343
 30
0.0
 10
63.44039983223018
 20
30.55627440642343
 30
0.0
 10
63.5840603139651
 20
30.42777234482361
 30
0.0
 10
63.5840603139651
 20
30.42777234482361
 30
0.0
 10
63.89963106041398
 20
30.122881394379
 30
0.0
 10
64.0818766115837
 20
29.69086642052867
 30
0.0
 10
64.08842229300568
 20
29.21751030085534
 30
0.0
 10
64.09669052217028
 20
28.64080131662452
 30
0.0
 10
63.84657658994114
 20
28.04858940271007
 30
0.0
 10
63.40043672460128
 20
27.59280327001152
 30
0.0
  0
SPLINE
  5
44
330
1F
100
AcDbEntity
  8
Layer 1
370
     0
100
AcDbSpline
210
0.0
220
0.0
230
1.0
 70
    11
 71
     3
 72
    23
 73
    19
 74
     0
 42
0.0000000001
 43
0.0000000001
 40
0.0
 40
0.0
 40
0.0
 40
0.0
 40
1.0
 40
1.0
 40
1.0
 40
2.0
 40
2.0
 40
2.0
 40
3.0
 40
3.0
 40
3.0
 40
4.0
 40
4.0
 40
4.0
 40
5.0
 40
5.0
 40
5.0
 40
6.0
 40
6.0
 40
6.0
 40
6.0
 10
71.70036076766519
 20
18.89462618885273
 30
0.0
 10
71.02029891887688
 20
16.88165689682125
 30
0.0
 10
69.37182072918482
 20
15.59663628082306
 30
0.0
 10
67.8656249830336
 20
15.89980468352505
 30
0.0
 10
67.59173989195624
 20
15.95595973993462
 30
0.0
 10
67.33955890243595
 20
16.06344671907442
 30
0.0
 10
67.11218260040945
 20
16.21709797771656
 30
0.0
 10
66.07245278296105
 20
16.92885470496918
 30
0.0
 10
65.75274792192987
 20
18.52152234780018
 30
0.0
 10
66.31602103376822
 20
20.17861327620535
 30
0.0
 10
66.97851289558176
 20
22.15782063248138
 30
0.0
 10
68.66316458786893
 20
23.47178005055567
 30
0.0
 10
70.14868976110867
 20
23.16344400462581
 30
0.0
 10
70.41465113256996
 20
23.10970051505591
 30
0.0
 10
70.67199976531812
 20
23.00221353591611
 30
0.0
 10
70.90282116282985
 20
22.8461507104343
 30
0.0
 10
71.93703882750185
 20
22.13680555002135
 30
0.0
 10
72.25743270763009
 20
20.54930555041823
 30
0.0
 10
71.70036076766519
 20
18.89462618885273
 30
0.0
  0
SPLINE
  5
45
330
1F
100
AcDbEntity
  8
Layer 1
370
     0
100
AcDbSpline
210
0.0
220
0.0
230
1.0
 70
    11
 71
     3
 72
    44
 73
    40
 74
     0
 42
0.0000000001
 43
0.0000000001
 40
0.0
 40
0.0
 40
0.0
 40
0.0
 40
1.0
 40
1.0
 40
1.0
 40
2.0
 40
2.0
 40
2.0
 40
3.0
 40
3.0
 40
3.0
 40
4.0
 40
4.0
 40
4.0
 40
5.0
 40
5.0
 40
5.0
 40
6.0
 40
6.0
 40
6.0
 40
7.0
 40
7.0
 40
7.0
 40
8.0
 40
8.0
 40
8.0
 40
9.0
 40
9.0
 40
9.0
 40
10.0
 40
10.0
 40
10.0
 40
11.0
 40
11.0
 40
11.0
 40
12.0
 40
12.0
 40
12.0
 40
13.0
 40
13.0
 40
13.0
 40
13.0
 10
71.48021916615772
 20
34.39790038202553
 30
0.0
 10
69.37939993925238
 20
34.68763291233504
 30
0.0
 10
67.35437281302252
 20
35.4069688496552
 30
0.0
 10
65.28387042638737
 20
35.8579318486744
 30
0.0
 10
63.62161185475432
 20
36.21381021230071
 30
0.0
 10
61.66962075281177
 20
36.26720919232208
 30
0.0
 10
60.18581812731466
 20
37.03167588049903
 30
0.0
 10
59.10543618314031
 20
37.59012585865803
 30
0.0
 10
58.13288572765428
 20
37.94462618409023
 30
0.0
 10
57.18238388327385
 20
38.76645371209658
 30
0.0
 10
54.47350530322191
 20
41.10050590335334
 30
0.0
 10
52.11051430988904
 20
43.63695745436854
 30
0.0
 10
48.84697535671187
 20
45.20171982376902
 30
0.0
 10
46.84744193707287
 20
46.15962862344274
 30
0.0
 10
44.86203340892338
 20
47.05380315663933
 30
0.0
 10
42.78067897150969
 20
47.831877971983
 30
0.0
 10
40.84987520680142
 20
48.55500351433695
 30
0.0
 10
38.9404310341017
 20
49.61643743334242
 30
0.0
 10
37.94273138157335
 20
51.44354382394467
 30
0.0
 10
39.35384249233168
 20
51.22874212043934
 30
0.0
 10
40.8137017042063
 20
51.19618596810373
 30
0.0
 10
42.21620007625151
 20
50.9226453865749
 30
0.0
 10
44.68702255827269
 20
50.44205456638255
 30
0.0
 10
47.22536891180477
 20
49.34289685181358
 30
0.0
 10
49.36959634182427
 20
48.03927272019504
 30
0.0
 10
52.11843802950511
 20
46.36564533346068
 30
0.0
 10
54.68744573285592
 20
44.5175238603984
 30
0.0
 10
57.02632105779203
 20
42.29698756538062
 30
0.0
 10
58.06536185614338
 20
41.31530760685867
 30
0.0
 10
59.39792478983802
 20
40.44869383754408
 30
0.0
 10
60.71464028430051
 20
39.87904729905802
 30
0.0
 10
62.74104544872446
 20
39.00123696941636
 30
0.0
 10
65.05649412436088
 20
39.18847790903969
 30
0.0
 10
67.17143824275576
 20
38.67412515309189
 30
0.0
 10
68.42338594209555
 20
38.37043998606711
 30
0.0
 10
69.94715167522155
 20
38.22057833245874
 30
0.0
 10
71.04096949178837
 20
37.48884005139168
 30
0.0
 10
75.93334959039167
 20
34.21806639769549
 30
0.0
 10
75.77969833174953
 20
33.8074110158537
 30
0.0
 10
71.48021916615772
 20
34.39790038202553
 30
0.0
  0
SPLINE
  5
46
330
1F
100
AcDbEntity
  8
Layer 1
370
     0
100
AcDbSpline
210
0.0
220
0.0
230
1.0
 70
    11
 71
     3
 72
    26
 73
    22
 74
     0
 42
0.0000000001
 43
0.0000000001
 40
0.0
 40
0.0
 40
0.0
 40
0.0
 40
1.0
 40
1.0
 40
1.0
 40
2.0
 40
2.0
 40
2.0
 40
3.0
 40
3.0
 40
3.0
 40
4.0
 40
4.0
 40
4.0
 40
5.0
 40
5.0
 40
5.0
 40
6.0
 40
6.0
 40
6.0
 40
7.0
 40
7.0
 40
7.0
 40
7.0
 10
80.00545245395698
 20
56.79481064118325
 30
0.0
 10
79.61891274051195
 20
55.49359807640438
 30
0.0
 10
78.56023489789467
 20
54.68934053537281
 30
0.0
 10
77.54324271064891
 20
54.92274575449849
 30
0.0
 10
77.36306421677035
 20
54.96288111690164
 30
0.0
 10
77.19080944250786
 20
55.03781194370583
 30
0.0
 10
77.03440210747752
 20
55.14392088465152
 30
0.0
 10
76.35744084462593
 20
55.60728622741762
 30
0.0
 10
76.10767142194531
 20
56.60756970155992
 30
0.0
 10
76.41221786284139
 20
57.63403590139011
 30
0.0
 10
76.60583222911244
 20
58.31719833611515
 30
0.0
 10
77.02613387831292
 20
58.91164956209501
 30
0.0
 10
77.55874564033255
 20
59.24634058848703
 30
0.0
 10
77.9814588563727
 20
59.51488578156226
 30
0.0
 10
78.45102537101225
 20
59.60221895211334
 30
0.0
 10
78.88372936395963
 20
59.50110539962125
 30
0.0
 10
79.05322806183392
 20
59.46114229199235
 30
0.0
 10
79.2254828360964
 20
59.38621146518818
 30
0.0
 10
79.38085664248118
 20
59.28148056243658
 30
0.0
 10
80.05575084804163
 20
58.82052678651015
 30
0.0
 10
80.30689830891633
 20
57.8214490957877
 30
0.0
 10
80.00545245395698
 20
56.79481064118325
 30
0.0
  0
HATCH
  5
47
330
1F
100
AcDbEntity
  8
Layer 1
 62
    53
420
 13227585
100
AcDbHatch
 10
0.0
 20
0.0
 30
0.0
210
0.0
220
0.0
230
1.0
  2
SOLID
 70
     1
 71
     0
 91
       11
 92
        1
 93
        1
 72
     4
 94
        3
 73
     0
 74
     1
 95
      227
 96
      223
 40
0.0
 40
0.0
 40
0.0
 40
0.0
 40
1.0
 40
1.0
 40
1.0
 40
2.0
 40
2.0
 40
2.0
 40
3.0
 40
3.0
 40
3.0
 40
4.0
 40
4.0
 40
4.0
 40
5.0
 40
5.0
 40
5.0
 40
6.0
 40
6.0
 40
6.0
 40
7.0
 40
7.0
 40
7.0
 40
8.0
 40
8.0
 40
8.0
 40
9.0
 40
9.0
 40
9.0
 40
10.0
 40
10.0
 40
10.0
 40
11.0
 40
11.0
 40
11.0
 40
12.0
 40
12.0
 40
12.0
 40
13.0
 40
13.0
 40
13.0
 40
14.0
 40
14.0
 40
14.0
 40
15.0
 40
15.0
 40
15.0
 40
16.0
 40
16.0
 40
16.0
 40
17.0
 40
17.0
 40
17.0
 40
18.0
 40
18.0
 40
18.0
 40
19.0
 40
19.0
 40
19.0
 40
20.0
 40
20.0
 40
20.0
 40
21.0
 40
21.0
 40
21.0
 40
22.0
 40
22.0
 40
22.0
 40
23.0
 40
23.0
 40
23.0
 40
24.0
 40
24.0
 40
24.0
 40
25.0
 40
25.0
 40
25.0
 40
26.0
 40
26.0
 40
26.0
 40
27.0
 40
27.0
 40
27.0
 40
28.0
 40
28.0
 40
28.0
 40
29.0
 40
29.0
 40
29.0
 40
30.0
 40
30.0
 40
30.0
 40
31.0
 40
31.0
 40
31.0
 40
32.0
 40
32.0
 40
32.0
 40
33.0
 40
33.0
 40
33.0
 40
34.0
 40
34.0
 40
34.0
 40
35.0
 40
35.0
 40
35.0
 40
36.0
 40
36.0
 40
36.0
 40
37.0
 40
37.0
 40
37.0
 40
38.0
 40
38.0
 40
38.0
 40
39.0
 40
39.0
 40
39.0
 40
40.0
 40
40.0
 40
40.0
 40
41.0
 40
41.0
 40
41.0
 40
42.0
 40
42.0
 40
42.0
 40
43.0
 40
43.0
 40
43.0
 40
44.0
 40
44.0
 40
44.0
 40
45.0
 40
45.0
 40
45.0
 40
46.0
 40
46.0
 40
46.0
 40
47.0
 40
47.0
 40
47.0
 40
48.0
 40
48.0
 40
48.0
 40
49.0
 40
49.0
 40
49.0
 40
50.0
 40
50.0
 40
50.0
 40
51.0
 40
51.0
 40
51.0
 40
52.0
 40
52.0
 40
52.0
 40
53.0
 40
53.0
 40
53.0
 40
54.0
 40
54.0
 40
54.0
 40
55.0
 40
55.0
 40
55.0
 40
56.0
 40
56.0
 40
56.0
 40
57.0
 40
57.0
 40
57.0
 40
58.0
 40
58.0
 40
58.0
 40
59.0
 40
59.0
 40
59.0
 40
60.0
 40
60.0
 40
60.0
 40
61.0
 40
61.0
 40
61.0
 40
62.0
 40
62.0
 40
62.0
 40
63.0
 40
63.0
 40
63.0
 40
64.0
 40
64.0
 40
64.0
 40
65.0
 40
65.0
 40
65.0
 40
66.0
 40
66.0
 40
66.0
 40
67.0
 40
67.0
 40
67.0
 40
68.0
 40
68.0
 40
68.0
 40
69.0
 40
69.0
 40
69.0
 40
70.0
 40
70.0
 40
70.0
 40
71.0
 40
71.0
 40
71.0
 40
72.0
 40
72.0
 40
72.0
 40
73.0
 40
73.0
 40
73.0
 40
74.0
 40
74.0
 40
74.0
 40
74.0
 10
83.06676430214998
 20
32.8021321532578
 10
84.61671276096388
 20
32.71807182341771
 10
88.29435219146808
 20
32.33222112906972
 10
90.04652775526615
 20
32.95302733551174
 10
98.03880477149725
 20
35.79178601535761
 10
106.0775905767792
 20
48.17776555870209
 10
98.67097979304059
 20
55.56732311978872
 10
98.67097979304059
 20
55.56732311978872
 10
96.8109727405542
 20
57.42061223607887
 10
96.8137288169424
 20
57.44042153511906
 10
97.91374780538268
 20
63.77457409429942
 10
87.59775388435057
 20
68.4442287697813
 10
87.59775388435057
 20
68.4442287697813
 10
87.59775388435057
 20
68.4442287697813
 10
87.11612953551264
 20
67.26910669976259
 10
87.11612953551264
 20
67.26910669976259
 10
86.82949759113986
 20
67.84839950560735
 10
86.44950355911679
 20
68.39048528021141
 10
85.97959253492871
 20
68.89501951402625
 10
82.81389429353264
 20
72.28826631222307
 10
74.09194605352563
 20
72.68531356689812
 10
74.09194605352563
 20
72.68531356689812
 10
74.09194605352563
 20
72.68531356689812
 10
73.56932506841322
 20
71.24784747567763
 10
73.48560924812166
 20
70.93692760813383
 10
73.43117673945471
 20
70.99566648615733
 10
73.37364364485104
 20
71.05302732598675
 10
73.31645505979589
 20
71.11056042059042
 10
71.03924694404574
 20
73.33471406586771
 10
63.55684405963162
 20
74.26626788507927
 10
60.60715330516071
 20
72.69409856038551
 10
60.60715330516071
 20
72.69409856038551
 10
61.14803329634494
 20
69.79556747387056
 10
61.51355792732995
 20
69.2309163238381
 10
60.3394693859568
 20
70.72574325488802
 10
58.58557127441611
 20
71.8247287146827
 10
55.96282008149541
 20
72.25192055485368
 10
52.69170191825069
 20
72.78022594751675
 10
49.60575763733814
 20
69.3246229210369
 10
49.26469318429841
 20
68.9287814497817
 10
49.26469318429841
 20
68.9287814497817
 10
49.04868569737324
 20
68.67780624368125
 10
49.04868569737324
 20
68.67780624368125
 10
48.06269936949474
 20
70.00278996730833
 10
46.83142224306645
 20
71.12055119749765
 10
45.24891763191694
 20
71.80112981060874
 10
43.60870767138949
 20
72.50789114940775
 10
41.89649521522032
 20
72.41297876878912
 10
40.24922280894811
 20
72.22952743419957
 10
36.9298733089099
 20
71.85849065043816
 10
34.23167452486222
 20
74.01529267897882
 10
34.23167452486222
 20
74.01529267897882
 10
34.23167452486222
 20
74.01529267897882
 10
33.89818928189004
 20
71.9597764577045
 10
33.89818928189004
 20
71.9597764577045
 10
33.81705728321241
 20
71.46127114098886
 10
33.80637748720813
 20
70.9793022826024
 10
33.85460882400163
 20
70.51714272325613
 10
30.84170056737638
 20
71.72482094561046
 10
27.02005614558874
 20
70.83701983906158
 10
23.60269367899516
 20
70.04395885835707
 10
22.16264376616073
 20
69.70926783196505
 10
20.80079752084147
 20
69.3921467925478
 10
19.72386067215237
 20
69.29602862850933
 10
19.72386067215237
 20
69.29602862850933
 10
17.85592990004991
 20
69.13100855476586
 10
17.85592990004991
 20
69.13100855476586
 10
17.85592990004991
 20
69.13100855476586
 10
18.69205457432004
 20
67.45255803435214
 10
18.69205457432004
 20
67.45255803435214
 10
18.91443548789292
 20
67.00435111172114
 10
19.23534613234394
 20
66.5847384816177
 10
19.63256564179325
 20
66.1861409339743
 10
17.24718152780626
 20
66.87808836218673
 10
9.164643009861617
 20
66.51463078849287
 10
0.0
 20
71.35654023823726
 10
1.546675618102914
 20
69.05986733299545
 10
2.497005207709082
 20
67.31647676268477
 10
2.497005207709082
 20
67.31647676268477
 10
3.534840222640596
 20
65.63682045885122
 10
4.28656005752211
 20
63.67363279658159
 10
5.012269421489989
 20
61.77779675104861
 10
6.568246797403077
 20
57.71775172168167
 10
8.166254338236214
 20
53.54436305085002
 10
12.58028292871257
 20
51.51709661255476
 10
11.36330294854806
 20
51.26732718987414
 10
8.974818248624352
 20
49.63779702535097
 10
8.974818248624352
 20
49.63779702535097
 10
8.974818248624352
 20
49.63779702535097
 10
9.43301594816258
 20
48.7536132690616
 10
9.43301594816258
 20
48.7536132690616
 10
10.7619615315977
 20
46.1846055657108
 10
12.70206705411615
 20
44.61846515811622
 10
14.95257567985561
 20
43.80301105675758
 10
14.06460231853246
 20
43.4970865776674
 10
13.2377794020725
 20
43.08746472447119
 10
12.50276828029445
 20
42.54537894986713
 10
12.50276828029445
 20
42.54537894986713
 10
10.34786105427067
 20
40.95064424974498
 10
10.34786105427067
 20
40.95064424974498
 10
10.34786105427067
 20
40.95064424974498
 10
14.75258788693685
 20
39.3147406585741
 10
15.64676242013345
 20
38.55664739704487
 10
16.56608615037237
 20
37.77857258170119
 10
17.5152099565587
 20
36.97310925724978
 10
18.75406629305454
 20
36.49355196570301
 10
19.1037434848074
 20
36.35747069403563
 10
19.43516167048843
 20
36.24619410986207
 10
19.75004339784027
 20
36.15765515589114
 10
18.23385687478181
 20
35.35701496511908
 10
16.78140461820048
 20
34.33175454870873
 10
15.44143472921256
 20
32.99161240494654
 10
15.44143472921256
 20
32.99161240494654
 10
19.30528157069451
 20
30.72852918068592
 10
20.73155110158795
 20
30.11943629889375
 10
21.50893689783457
 20
29.78698458456714
 10
22.3125054197691
 20
29.44247503604216
 10
23.14122313874595
 20
29.2388698928639
 10
24.69289414530247
 20
28.85543076535559
 10
26.34016655157468
 20
28.75931260131712
 10
27.97365857590589
 20
28.83062607786179
 10
27.2167710977965
 20
28.49335122985583
 10
26.48882242176321
 20
28.09234211537275
 10
25.82943114588639
 20
27.6117512951804
 10
24.81347248728622
 20
26.87105576585168
 10
24.10533311029311
 20
25.87060003693513
 10
23.42044812782544
 20
24.90425075332255
 10
22.64357909590161
 20
23.80767686036753
 10
21.65121934137539
 20
20.132448996703
 10
21.65121934137539
 20
20.132448996703
 10
22.85407443005037
 20
20.34811197407964
 10
28.38758679845866
 20
18.29138996938549
 10
29.33240423528843
 20
18.11913519512299
 10
33.81946885005208
 20
17.30609266060403
 10
37.01169432668458
 20
18.66001518630722
 10
40.42543944301864
 20
20.37326117112196
 10
40.73877087740212
 20
20.53070203479788
 10
41.05106878314001
 20
20.69158799395905
 10
41.36009384816693
 20
20.85523002950842
 10
40.80991209917252
 20
20.1710340661378
 10
40.34103460363002
 20
19.36557074168639
 10
39.99273545007127
 20
18.39267577665183
 10
38.50652125773448
 20
14.25787217525498
 10
37.0010145306803
 20
11.91727430257624
 10
33.79638671030091
 20
8.769146048154935
 10
33.79638671030091
 20
8.769146048154935
 10
32.12224255924374
 20
7.126524520787814
 10
32.12224255924374
 20
7.126524520787814
 10
32.12224255924374
 20
7.126524520787814
 10
34.41013047099816
 20
6.608382159806238
 10
34.41013047099816
 20
6.608382159806238
 10
41.01592880919046
 20
5.119756400629783
 10
47.559543173874
 20
7.374226886177277
 10
52.66517468301426
 20
11.53142360822826
 10
53.32697752573076
 20
12.0685139943787
 10
53.96569822869608
 20
12.64039984493018
 10
54.5754801295853
 20
13.23881293071807
 10
56.7720730109806
 20
15.39406466629037
 10
58.79951170405013
 20
17.85076225682203
 10
60.57097980256559
 20
20.36843803744261
 10
61.25620929458179
 20
21.33995496428307
 10
62.64906139926829
 20
23.31675075371943
 10
63.27779132532639
 20
23.71638183000841
 10
63.51756997109977
 20
23.68778753748083
 10
63.60576441552217
 20
23.63542208610503
 10
63.610243039653
 20
23.63886718159029
 10
63.6185112688176
 20
23.61647406093616
 10
63.67535534432422
 20
23.43905164344579
 10
63.5716579702182
 20
22.97706433887379
 10
63.04834796600875
 20
20.6743625165328
 10
61.61966686827564
 20
18.67965223057314
 10
60.39355738507523
 20
16.70802408436466
 10
57.80422361836145
 20
12.54669324773138
 10
55.5862711449576
 20
9.488137475926576
 10
51.10868054277839
 20
7.265361868843382
 10
50.25188529559675
 20
6.840581595512077
 10
49.43643119423812
 20
6.436127385543746
 10
48.73466524389273
 20
6.04028591428854
 10
48.73466524389273
 20
6.04028591428854
 10
46.93804794833493
 20
5.028461370270663
 10
46.93804794833493
 20
5.028461370270663
 10
46.93804794833493
 20
5.028461370270663
 10
48.64354246830786
 20
3.868497720387043
 10
48.64354246830786
 20
3.868497720387043
 10
54.07387422693292
 20
0.1756998697477417
 10
62.80477971520158
 20
-1.713935003911794
 10
68.2848931035885
 20
2.064990233858753
 10
71.69863821992257
 20
4.419368488478492
 10
73.60791013784802
 20
6.929465059031523
 10
74.29658472534946
 20
9.966661238827779
 10
74.52981768970088
 20
10.99329969343223
 10
74.61215547179836
 20
12.02717284855571
 10
74.60147567579408
 20
13.07758246200838
 10
74.66210935633448
 20
12.96010470596136
 10
74.72618813236012
 20
12.84779459314222
 10
74.79371200387102
 20
12.74030761400242
 10
76.57723793658486
 20
9.992843964515679
 10
77.99627276695927
 20
7.999511716750122
 10
75.87822806262767
 20
4.999867077743089
 10
75.87822806262767
 20
4.999867077743089
 10
74.6307589874187
 20
3.232877603358447
 10
74.6307589874187
 20
3.232877603358447
 10
74.6307589874187
 20
3.232877603358447
 10
76.77808700337492
 20
2.990342881196859
 10
76.77808700337492
 20
2.990342881196859
 10
81.74178057852289
 20
2.42982584574671
 10
86.40850692284232
 20
6.624574108586913
 10
87.7706976777101
 20
11.03050672467293
 10
88.83178708716706
 20
14.45768771339947
 10
88.02253415768187
 20
17.80425346777116
 10
86.20559079876111
 20
20.80803222136049
 10
84.259800868692
 20
24.02747395232647
 10
80.77749835220146
 20
26.70879176849641
 10
79.67265623008184
 20
30.36541611654059
 10
86.98900551210691
 20
28.86300997542314
 10
91.60336640505055
 20
19.056890186208
 10
91.6963839831523
 20
11.15935329582127
 10
91.6963839831523
 20
11.15935329582127
 10
95.50562606119304
 20
9.98044162076878
 10
96.48058808351874
 20
12.58906792219996
 10
97.73219127331001
 20
15.9349446574746
 10
89.60245494721745
 20
30.19695094731188
 10
83.06676430214998
 20
32.8021321532578
 97
        0
 92
        1
 93
        1
 72
     4
 94
        3
 73
     0
 74
     1
 95
       29
 96
       25
 40
0.0
 40
0.0
 40
0.0
 40
0.0
 40
1.0
 40
1.0
 40
1.0
 40
2.0
 40
2.0
 40
2.0
 40
3.0
 40
3.0
 40
3.0
 40
4.0
 40
4.0
 40
4.0
 40
5.0
 40
5.0
 40
5.0
 40
6.0
 40
6.0
 40
6.0
 40
7.0
 40
7.0
 40
7.0
 40
8.0
 40
8.0
 40
8.0
 40
8.0
 10
15.33894313852638
 20
57.96252575590868
 10
15.10726046714333
 20
58.02367620077186
 10
14.88436278924766
 20
58.12599553668378
 10
14.68471950587743
 20
58.26242131789967
 10
14.09526366835119
 20
58.66566974444817
 10
13.81982828430546
 20
59.31748181025744
 10
13.98398708417762
 20
59.92812498501797
 10
14.08389485324986
 20
60.29296059690593
 10
14.32608506586292
 20
60.59509547096234
 10
14.66646049980561
 20
60.78733179903928
 10
15.08986273494281
 20
61.02469887797299
 10
15.63814968142032
 20
61.07844236754289
 10
16.16697183840617
 20
60.92858071393452
 10
16.39744872636939
 20
60.86605223087724
 10
16.62155218768489
 20
60.76493867838516
 10
16.82067870673233
 20
60.62885740671779
 10
17.40892876083874
 20
60.22543672539503
 10
17.68315836146463
 20
59.57362465958576
 10
17.51882730681821
 20
58.96280923005096
 10
17.41823051864892
 20
58.60072969455121
 10
17.1767293251329
 20
58.29601099888086
 10
16.83635389119022
 20
58.10360241602966
 10
16.41295165605301
 20
57.86520180845037
 10
15.86724853118944
 20
57.81386988572014
 10
15.33894313852638
 20
57.96252575590868
 97
        0
 92
        1
 93
        1
 72
     4
 94
        3
 73
     0
 74
     1
 95
       26
 96
       22
 40
0.0
 40
0.0
 40
0.0
 40
0.0
 40
1.0
 40
1.0
 40
1.0
 40
2.0
 40
2.0
 40
2.0
 40
3.0
 40
3.0
 40
3.0
 40
4.0
 40
4.0
 40
4.0
 40
5.0
 40
5.0
 40
5.0
 40
6.0
 40
6.0
 40
6.0
 40
7.0
 40
7.0
 40
7.0
 40
7.0
 10
21.67946912435444
 20
54.17602130807058
 10
21.56888155927792
 20
52.94095457660851
 10
20.27748751663202
 20
52.08433158420114
 10
18.74028591111354
 20
52.22144638451409
 10
18.15703124546074
 20
52.27157252382447
 10
17.61442870653389
 20
52.4588134634478
 10
17.17242295577634
 20
52.76112059227847
 10
16.49305012608507
 20
53.22689750188425
 10
16.12528618303465
 20
53.93383109545751
 10
16.18643662789784
 20
54.65437281619752
 10
16.2307061048833
 20
55.1614908716263
 10
16.48478189692047
 20
55.63226316968569
 10
16.90370550792685
 20
55.98435192827822
 10
17.46525607202258
 20
56.45512422633761
 10
18.27450900150776
 20
56.68112249017
 10
19.12424180294463
 20
56.6025743131063
 10
19.70301784446661
 20
56.55744356224953
 10
20.24768744068461
 20
56.37037487740047
 10
20.69279377737888
 20
56.06548392695586
 10
21.37216660707015
 20
55.59970701735008
 10
21.74182535263746
 20
54.89277342377681
 10
21.67946912435444
 20
54.17602130807058
 97
        0
 92
        1
 93
        1
 72
     4
 94
        3
 73
     0
 74
     1
 95
       26
 96
       22
 40
0.0
 40
0.0
 40
0.0
 40
0.0
 40
1.0
 40
1.0
 40
1.0
 40
2.0
 40
2.0
 40
2.0
 40
3.0
 40
3.0
 40
3.0
 40
4.0
 40
4.0
 40
4.0
 40
5.0
 40
5.0
 40
5.0
 40
6.0
 40
6.0
 40
6.0
 40
7.0
 40
7.0
 40
7.0
 40
7.0
 10
66.5682020232885
 20
47.87683646806551
 10
66.67052135920042
 20
48.75740287409538
 10
67.03397893289429
 20
49.58784314081485
 10
67.56245658033161
 20
50.15714516975238
 10
67.96484373300879
 20
50.58933239837697
 10
68.44336749591
 20
50.84289142609136
 10
68.91293401054955
 20
50.87406954023287
 10
69.16821558600655
 20
50.89146727243339
 10
69.41316187500783
 20
50.84168564267153
 10
69.63399249561233
 20
50.72679170823844
 10
70.34781628015611
 20
50.35713296267114
 10
70.71988659256309
 20
49.35168184530097
 10
70.580704734959
 20
48.16398517676109
 10
70.3960476169496
 20
46.57286782689845
 10
69.36975367189368
 20
45.25666909675875
 10
68.24492999595961
 20
45.17174749304734
 10
67.9827582295321
 20
45.15314397742699
 10
67.7360893927882
 20
45.20171982376902
 10
67.5142252435381
 20
45.31678601297636
 10
66.80315753538255
 20
45.68644475854367
 10
66.43212075162114
 20
46.69172362113957
 10
66.5682020232885
 20
47.87683646806551
 97
        0
 92
        1
 93
        1
 72
     4
 94
        3
 73
     0
 74
     1
 95
       29
 96
       25
 40
0.0
 40
0.0
 40
0.0
 40
0.0
 40
1.0
 40
1.0
 40
1.0
 40
2.0
 40
2.0
 40
2.0
 40
3.0
 40
3.0
 40
3.0
 40
4.0
 40
4.0
 40
4.0
 40
5.0
 40
5.0
 40
5.0
 40
6.0
 40
6.0
 40
6.0
 40
7.0
 40
7.0
 40
7.0
 40
8.0
 40
8.0
 40
8.0
 40
8.0
 10
44.14579805753994
 20
61.15716279938085
 10
44.43845891901191
 20
61.76901175756122
 10
44.91508787939623
 20
62.22118054000026
 10
45.48628471085065
 20
62.42461342840426
 10
45.96584200239743
 20
62.59462889060134
 10
46.4817450513136
 20
62.58463811369412
 10
46.97422145093006
 20
62.3872341423893
 10
47.74437254665766
 20
62.07373045323157
 10
48.39187824311037
 20
61.32304414699563
 10
48.70469291317105
 20
60.37547063377766
 10
49.00872258974435
 20
59.46613768044597
 10
48.96738144392135
 20
58.48841958173207
 10
48.59668916970847
 20
57.701559772901
 10
48.30368379868797
 20
57.08454317149275
 10
47.82739934785218
 20
56.62875703879421
 10
47.25585800684923
 20
56.42274032877626
 10
46.76768797658933
 20
56.24669594947999
 10
46.25247394677022
 20
56.26030407664673
 10
45.76223685921916
 20
56.46029186956549
 10
44.99105223484599
 20
56.77138399188355
 10
44.34302977407049
 20
57.52172578857096
 10
44.03073186833259
 20
58.46947155656319
 10
43.72739121085635
 20
59.38862303202784
 10
43.76976588532492
 20
60.36789142371011
 10
44.14579805753994
 20
61.15716279938085
 97
        0
 92
        1
 93
        1
 72
     4
 94
        3
 73
     0
 74
     1
 95
       29
 96
       25
 40
0.0
 40
0.0
 40
0.0
 40
0.0
 40
1.0
 40
1.0
 40
1.0
 40
2.0
 40
2.0
 40
2.0
 40
3.0
 40
3.0
 40
3.0
 40
4.0
 40
4.0
 40
4.0
 40
5.0
 40
5.0
 40
5.0
 40
6.0
 40
6.0
 40
6.0
 40
7.0
 40
7.0
 40
7.0
 40
8.0
 40
8.0
 40
8.0
 40
8.0
 10
36.35592040106727
 20
23.63886718159029
 10
36.05809189636742
 20
22.94605847950654
 10
35.41179198333455
 20
22.36280381385374
 10
34.58324651913197
 20
22.03414170456091
 10
33.58589137615214
 20
21.64829101021293
 10
32.52204589030699
 20
21.71443684352973
 10
31.80012613137289
 20
22.2077745170175
 10
31.47611490098514
 20
22.43032768536464
 10
31.23185763108092
 20
22.73108452122695
 10
31.09026420663716
 20
23.07938367478571
 10
30.89217121623529
 20
23.55790743768691
 10
30.90474581475645
 20
24.10981173442394
 10
31.12385388761834
 20
24.62313096172616
 10
31.42168239231819
 20
25.31869574019811
 10
32.06936034354516
 20
25.90436197269058
 10
32.90100639368447
 20
26.22820094830406
 10
33.89250487433937
 20
26.61749673813729
 10
34.95841741747567
 20
26.55376247166017
 10
35.68223197892667
 20
26.05697970268714
 10
36.00314262337769
 20
25.83821613937378
 10
36.24912244102453
 20
25.53987087035114
 10
36.39088812024256
 20
25.19398328363206
 10
36.59087591316131
 20
24.70305717698396
 10
36.57709553122031
 20
24.15218640889251
 10
36.35592040106727
 20
23.63886718159029
 97
        0
 92
        1
 93
        1
 72
     4
 94
        3
 73
     0
 74
     1
 95
       23
 96
       19
 40
0.0
 40
0.0
 40
0.0
 40
0.0
 40
1.0
 40
1.0
 40
1.0
 40
2.0
 40
2.0
 40
2.0
 40
3.0
 40
3.0
 40
3.0
 40
4.0
 40
4.0
 40
4.0
 40
5.0
 40
5.0
 40
5.0
 40
6.0
 40
6.0
 40
6.0
 40
6.0
 10
38.099999990475
 20
26.72257215043741
 10
37.61165770544083
 20
26.63265515827239
 10
37.13278943299111
 20
26.72119411224331
 10
36.77673881459054
 20
26.96338432485638
 10
36.49768608028531
 20
27.15562065293332
 10
36.31113415975902
 20
27.43536240633561
 10
36.25170626263846
 20
27.75024413368744
 10
36.11373018845421
 20
28.49197319166173
 10
36.70508082849734
 20
29.20648599530255
 10
37.59856634259689
 20
29.37495116453126
 10
38.08501382511417
 20
29.46486815669628
 10
38.56594915485504
 20
29.38011880775914
 10
38.92044948028725
 20
29.13655055695197
 10
39.20019123368954
 20
28.94534775752061
 10
39.38691540899008
 20
28.668017570958
 10
39.44565428701359
 20
28.35106878631501
 10
39.58604192803752
 20
27.60658365195252
 10
38.99538030709144
 20
26.89379339605433
 10
38.099999990475
 20
26.72257215043741
 97
        0
 92
        1
 93
        1
 72
     4
 94
        3
 73
     0
 74
     1
 95
       32
 96
       28
 40
0.0
 40
0.0
 40
0.0
 40
0.0
 40
1.0
 40
1.0
 40
1.0
 40
2.0
 40
2.0
 40
2.0
 40
3.0
 40
3.0
 40
3.0
 40
4.0
 40
4.0
 40
4.0
 40
5.0
 40
5.0
 40
5.0
 40
6.0
 40
6.0
 40
6.0
 40
7.0
 40
7.0
 40
7.0
 40
8.0
 40
8.0
 40
8.0
 40
9.0
 40
9.0
 40
9.0
 40
9.0
 10
63.40043672460128
 20
27.59280327001152
 10
62.6545735520447
 20
26.82006835266998
 10
61.55352103495885
 20
26.63506672511207
 10
60.78939885633043
 20
27.15837672932152
 10
60.78939885633043
 20
27.15837672932152
 10
60.71291773655788
 20
27.21212021889141
 10
60.71291773655788
 20
27.21212021889141
 10
60.71291773655788
 20
27.21212021889141
 10
60.57476940759937
 20
27.33200954177811
 10
60.57476940759937
 20
27.33200954177811
 10
59.82752819684868
 20
28.06099174645697
 10
59.90435382616975
 20
29.30880533121447
 10
60.74667967231333
 20
30.17559135530333
 10
61.49805499764632
 20
30.95004882038749
 10
62.59704045744102
 20
31.13332790020278
 10
63.36116263606944
 20
30.61036240554186
 10
63.36116263606944
 20
30.61036240554186
 10
63.44039983223018
 20
30.55627440642343
 10
63.44039983223018
 20
30.55627440642343
 10
63.44039983223018
 20
30.55627440642343
 10
63.5840603139651
 20
30.42777234482361
 10
63.5840603139651
 20
30.42777234482361
 10
63.89963106041398
 20
30.122881394379
 10
64.0818766115837
 20
29.69086642052867
 10
64.08842229300568
 20
29.21751030085534
 10
64.09669052217028
 20
28.64080131662452
 10
63.84657658994114
 20
28.04858940271007
 10
63.40043672460128
 20
27.59280327001152
 97
        0
 92
        1
 93
        1
 72
     4
 94
        3
 73
     0
 74
     1
 95
       23
 96
       19
 40
0.0
 40
0.0
 40
0.0
 40
0.0
 40
1.0
 40
1.0
 40
1.0
 40
2.0
 40
2.0
 40
2.0
 40
3.0
 40
3.0
 40
3.0
 40
4.0
 40
4.0
 40
4.0
 40
5.0
 40
5.0
 40
5.0
 40
6.0
 40
6.0
 40
6.0
 40
6.0
 10
71.70036076766519
 20
18.89462618885273
 10
71.02029891887688
 20
16.88165689682125
 10
69.37182072918482
 20
15.59663628082306
 10
67.8656249830336
 20
15.89980468352505
 10
67.59173989195624
 20
15.95595973993462
 10
67.33955890243595
 20
16.06344671907442
 10
67.11218260040945
 20
16.21709797771656
 10
66.07245278296105
 20
16.92885470496918
 10
65.75274792192987
 20
18.52152234780018
 10
66.31602103376822
 20
20.17861327620535
 10
66.97851289558176
 20
22.15782063248138
 10
68.66316458786893
 20
23.47178005055567
 10
70.14868976110867
 20
23.16344400462581
 10
70.41465113256996
 20
23.10970051505591
 10
70.67199976531812
 20
23.00221353591611
 10
70.90282116282985
 20
22.8461507104343
 10
71.93703882750185
 20
22.13680555002135
 10
72.25743270763009
 20
20.54930555041823
 10
71.70036076766519
 20
18.89462618885273
 97
        0
 92
        1
 93
        1
 72
     4
 94
        3
 73
     0
 74
     1
 95
       44
 96
       40
 40
0.0
 40
0.0
 40
0.0
 40
0.0
 40
1.0
 40
1.0
 40
1.0
 40
2.0
 40
2.0
 40
2.0
 40
3.0
 40
3.0
 40
3.0
 40
4.0
 40
4.0
 40
4.0
 40
5.0
 40
5.0
 40
5.0
 40
6.0
 40
6.0
 40
6.0
 40
7.0
 40
7.0
 40
7.0
 40
8.0
 40
8.0
 40
8.0
 40
9.0
 40
9.0
 40
9.0
 40
10.0
 40
10.0
 40
10.0
 40
11.0
 40
11.0
 40
11.0
 40
12.0
 40
12.0
 40
12.0
 40
13.0
 40
13.0
 40
13.0
 40
13.0
 10
71.48021916615772
 20
34.39790038202553
 10
69.37939993925238
 20
34.68763291233504
 10
67.35437281302252
 20
35.4069688496552
 10
65.28387042638737
 20
35.8579318486744
 10
63.62161185475432
 20
36.21381021230071
 10
61.66962075281177
 20
36.26720919232208
 10
60.18581812731466
 20
37.03167588049903
 10
59.10543618314031
 20
37.59012585865803
 10
58.13288572765428
 20
37.94462618409023
 10
57.18238388327385
 20
38.76645371209658
 10
54.47350530322191
 20
41.10050590335334
 10
52.11051430988904
 20
43.63695745436854
 10
48.84697535671187
 20
45.20171982376902
 10
46.84744193707287
 20
46.15962862344274
 10
44.86203340892338
 20
47.05380315663933
 10
42.78067897150969
 20
47.831877971983
 10
40.84987520680142
 20
48.55500351433695
 10
38.9404310341017
 20
49.61643743334242
 10
37.94273138157335
 20
51.44354382394467
 10
39.35384249233168
 20
51.22874212043934
 10
40.8137017042063
 20
51.19618596810373
 10
42.21620007625151
 20
50.9226453865749
 10
44.68702255827269
 20
50.44205456638255
 10
47.22536891180477
 20
49.34289685181358
 10
49.36959634182427
 20
48.03927272019504
 10
52.11843802950511
 20
46.36564533346068
 10
54.68744573285592
 20
44.5175238603984
 10
57.02632105779203
 20
42.29698756538062
 10
58.06536185614338
 20
41.31530760685867
 10
59.39792478983802
 20
40.44869383754408
 10
60.71464028430051
 20
39.87904729905802
 10
62.74104544872446
 20
39.00123696941636
 10
65.05649412436088
 20
39.18847790903969
 10
67.17143824275576
 20
38.67412515309189
 10
68.42338594209555
 20
38.37043998606711
 10
69.94715167522155
 20
38.22057833245874
 10
71.04096949178837
 20
37.48884005139168
 10
75.93334959039167
 20
34.21806639769549
 10
75.77969833174953
 20
33.8074110158537
 10
71.48021916615772
 20
34.39790038202553
 97
        0
 92
        1
 93
        1
 72
     4
 94
        3
 73
     0
 74
     1
 95
       26
 96
       22
 40
0.0
 40
0.0
 40
0.0
 40
0.0
 40
1.0
 40
1.0
 40
1.0
 40
2.0
 40
2.0
 40
2.0
 40
3.0
 40
3.0
 40
3.0
 40
4.0
 40
4.0
 40
4.0
 40
5.0
 40
5.0
 40
5.0
 40
6.0
 40
6.0
 40
6.0
 40
7.0
 40
7.0
 40
7.0
 40
7.0
 10
80.00545245395698
 20
56.79481064118325
 10
79.61891274051195
 20
55.49359807640438
 10
78.56023489789467
 20
54.68934053537281
 10
77.54324271064891
 20
54.92274575449849
 10
77.36306421677035
 20
54.96288111690164
 10
77.19080944250786
 20
55.03781194370583
 10
77.03440210747752
 20
55.14392088465152
 10
76.35744084462593
 20
55.60728622741762
 10
76.10767142194531
 20
56.60756970155992
 10
76.41221786284139
 20
57.63403590139011
 10
76.60583222911244
 20
58.31719833611515
 10
77.02613387831292
 20
58.91164956209501
 10
77.55874564033255
 20
59.24634058848703
 10
77.9814588563727
 20
59.51488578156226
 10
78.45102537101225
 20
59.60221895211334
 10
78.88372936395963
 20
59.50110539962125
 10
79.05322806183392
 20
59.46114229199235
 10
79.2254828360964
 20
59.38621146518818
 10
79.38085664248118
 20
59.28148056243658
 10
80.05575084804163
 20
58.82052678651015
 10
80.30689830891633
 20
57.8214490957877
 10
80.00545245395698
 20
56.79481064118325
 97
        0
 75
     2
 76
     1
 98
        0
  0
ENDSEC
  0
SECTION
  2
OBJECTS
  0
DICTIONARY
  5
C
330
0
100
AcDbDictionary
281
     1
  3
ACAD_GROUP
350
D
  3
ACAD_LAYOUT
350
1A
  3
ACAD_MLINESTYLE
350
17
  3
ACAD_PLOTSETTINGS
350
19
  3
ACAD_PLOTSTYLENAME
350
E
  3
ACAD_TABLESTYLE
350
48
  3
ACAD_VISUALSTYLE
350
2A
  0
DICTIONARY
  5
D
102
{ACAD_REACTORS
330
C
102
}
330
C
100
AcDbDictionary
281
     1
  0
DICTIONARY
  5
1A
102
{ACAD_REACTORS
330
C
102
}
330
C
100
AcDbDictionary
281
     1
  3
Layout1
350
1E
  3
Layout2
350
26
  3
Model
350
22
  0
DICTIONARY
  5
17
102
{ACAD_REACTORS
330
C
102
}
330
C
100
AcDbDictionary
281
     1
  3
Standard
350
18
  0
DICTIONARY
  5
19
102
{ACAD_REACTORS
330
C
102
}
330
C
100
AcDbDictionary
281
     1
  0
ACDBDICTIONARYWDFLT
  5
E
102
{ACAD_REACTORS
330
C
102
}
330
C
100
AcDbDictionary
281
     1
  3
Normal
350
F
100
AcDbDictionaryWithDefault
340
F
  0
DICTIONARY
  5
48
102
{ACAD_REACTORS
330
C
102
}
330
C
100
AcDbDictionary
281
     1
  0
DICTIONARY
  5
2A
102
{ACAD_REACTORS
330
C
102
}
330
C
100
AcDbDictionary
281
     1
  3
2dWireframe
350
2F
  3
3D Hidden
350
31
  3
3dWireframe
350
30
  3
Basic
350
32
  3
Brighten
350
36
  3
ColorChange
350
3A
  3
Conceptual
350
34
  3
Dim
350
35
  3
Facepattern
350
39
  3
Flat
350
2B
  3
FlatWithEdges
350
2C
  3
Gouraud
350
2D
  3
GouraudWithEdges
350
2E
  3
Linepattern
350
38
  3
Realistic
350
33
  3
Thicken
350
37
  0
LAYOUT
  5
1E
102
{ACAD_REACTORS
330
1A
102
}
330
1A
100
AcDbPlotSettings
  1

  2
none_device
  4

  6

 40
0.0
 41
0.0
 42
0.0
 43
0.0
 44
0.0
 45
0.0
 46
0.0
 47
0.0
 48
0.0
 49
0.0
140
0.0
141
0.0
142
1.0
143
1.0
 70
   688
 72
     0
 73
     0
 74
     5
  7

 75
    16
 76
     0
 77
     2
 78
   300
147
1.0
148
0.0
149
0.0
100
AcDbLayout
  1
Layout1
 70
     1
 71
     1
 10
0.0
 20
0.0
 11
12.0
 21
9.0
 12
0.0
 22
0.0
 32
0.0
 14
1.000000000000000E+20
 24
1.000000000000000E+20
 34
1.000000000000000E+20
 15
-1.000000000000000E+20
 25
-1.000000000000000E+20
 35
-1.000000000000000E+20
146
0.0
 13
0.0
 23
0.0
 33
0.0
 16
1.0
 26
0.0
 36
0.0
 17
0.0
 27
1.0
 37
0.0
 76
     0
330
1B
  0
LAYOUT
  5
26
102
{ACAD_REACTORS
330
1A
102
}
330
1A
100
AcDbPlotSettings
  1

  2
none_device
  4

  6

 40
0.0
 41
0.0
 42
0.0
 43
0.0
 44
0.0
 45
0.0
 46
0.0
 47
0.0
 48
0.0
 49
0.0
140
0.0
141
0.0
142
1.0
143
1.0
 70
   688
 72
     0
 73
     0
 74
     5
  7

 75
    16
 76
     0
 77
     2
 78
   300
147
1.0
148
0.0
149
0.0
100
AcDbLayout
  1
Layout2
 70
     1
 71
     2
 10
0.0
 20
0.0
 11
0.0
 21
0.0
 12
0.0
 22
0.0
 32
0.0
 14
0.0
 24
0.0
 34
0.0
 15
0.0
 25
0.0
 35
0.0
146
0.0
 13
0.0
 23
0.0
 33
0.0
 16
1.0
 26
0.0
 36
0.0
 17
0.0
 27
1.0
 37
0.0
 76
     0
330
23
  0
LAYOUT
  5
22
102
{ACAD_REACTORS
330
1A
102
}
330
1A
100
AcDbPlotSettings
  1

  2
none_device
  4

  6

 40
0.0
 41
0.0
 42
0.0
 43
0.0
 44
0.0
 45
0.0
 46
0.0
 47
0.0
 48
0.0
 49
0.0
140
0.0
141
0.0
142
1.0
143
1.0
 70
  1712
 72
     0
 73
     0
 74
     0
  7

 75
     0
 76
     0
 77
     2
 78
   300
147
1.0
148
0.0
149
0.0
100
AcDbLayout
  1
Model
 70
     1
 71
     0
 10
0.0
 20
0.0
 11
12.0
 21
9.0
 12
0.0
 22
0.0
 32
0.0
 14
1.000000000000000E+20
 24
1.000000000000000E+20
 34
1.000000000000000E+20
 15
-1.000000000000000E+20
 25
-1.000000000000000E+20
 35
-1.000000000000000E+20
146
0.0
 13
0.0
 23
0.0
 33
0.0
 16
1.0
 26
0.0
 36
0.0
 17
0.0
 27
1.0
 37
0.0
 76
     0
330
1F
331
29
  0
MLINESTYLE
  5
18
102
{ACAD_REACTORS
330
17
102
}
330
17
100
AcDbMlineStyle
  2
Standard
 70
     0
  3

 62
   256
 51
90.0
 52
90.0
 71
     2
 49
0.5
 62
   256
  6
BYLAYER
 49
-0.5
 62
   256
  6
BYLAYER
  0
ACDBPLACEHOLDER
  5
F
102
{ACAD_REACTORS
330
E
102
}
330
E
  0
VISUALSTYLE
  5
2F
102
{ACAD_REACTORS
330
2A
102
}
330
2A
100
AcDbVisualStyle
  2
2dWireframe
 70
     4
 71
     0
 72
     2
 73
     0
 90
        0
 40
-0.6
 41
-30.0
 62
     5
 63
     7
421
 16777215
 74
     1
 91
        4
 64
     7
 65
   257
 75
     1
175
     1
 42
1.0
 92
        0
 66
   257
 43
1.0
 76
     1
 77
     6
 78
     2
 67
     7
 79
     5
170
     0
171
     0
290
     0
174
     0
 93
        1
 44
0.0
173
     0
291
     0
 45
0.0
1001
ACAD
1000
AcDbSavedByObjectVersion
1070
     0
  0
VISUALSTYLE
  5
31
102
{ACAD_REACTORS
330
2A
102
}
330
2A
100
AcDbVisualStyle
  2
3D Hidden
 70
     6
 71
     1
 72
     2
 73
     2
 90
        0
 40
-0.6
 41
-30.0
 62
     5
 63
     7
421
 16777215
 74
     2
 91
        2
 64
     7
 65
   257
 75
     2
175
     1
 42
40.0
 92
        0
 66
   257
 43
1.0
 76
     1
 77
     6
 78
     2
 67
     7
 79
     3
170
     0
171
     0
290
     0
174
     0
 93
        1
 44
0.0
173
     0
291
     0
 45
0.0
1001
ACAD
1000
AcDbSavedByObjectVersion
1070
     0
  0
VISUALSTYLE
  5
30
102
{ACAD_REACTORS
330
2A
102
}
330
2A
100
AcDbVisualStyle
  2
3dWireframe
 70
     5
 71
     0
 72
     2
 73
     0
 90
        0
 40
-0.6
 41
-30.0
 62
     5
 63
     7
421
 16777215
 74
     1
 91
        4
 64
     7
 65
   257
 75
     1
175
     1
 42
1.0
 92
        0
 66
   257
 43
1.0
 76
     1
 77
     6
 78
     2
 67
     7
 79
     5
170
     0
171
     0
290
     0
174
     0
 93
        1
 44
0.0
173
     0
291
     0
 45
0.0
1001
ACAD
1000
AcDbSavedByObjectVersion
1070
     0
  0
VISUALSTYLE
  5
32
102
{ACAD_REACTORS
330
2A
102
}
330
2A
100
AcDbVisualStyle
  2
Basic
 70
     7
 71
     1
 72
     0
 73
     1
 90
        0
 40
-0.6
 41
-30.0
 62
     5
 63
     7
421
 16777215
 74
     0
 91
        4
 64
     7
 65
   257
 75
     1
175
     1
 42
1.0
 92
        8
 66
     7
 43
1.0
 76
     1
 77
     6
 78
     2
 67
     7
 79
     5
170
     0
171
     0
290
     0
174
     0
 93
        1
 44
0.0
173
     0
291
     1
 45
0.0
1001
ACAD
1000
AcDbSavedByObjectVersion
1070
     0
  0
VISUALSTYLE
  5
36
102
{ACAD_REACTORS
330
2A
102
}
330
2A
100
AcDbVisualStyle
  2
Brighten
 70
    12
 71
     2
 72
     2
 73
     0
 90
        0
 40
-0.6
 41
-30.0
 62
     5
 63
     7
421
 16777215
 74
     1
 91
        4
 64
     7
 65
   257
 75
     1
175
     1
 42
1.0
 92
        8
 66
     7
 43
1.0
 76
     1
 77
     6
 78
     2
 67
     7
 79
     5
170
     0
171
     0
290
     0
174
     0
 93
        1
 44
50.0
173
     0
291
     1
 45
0.0
1001
ACAD
1000
AcDbSavedByObjectVersion
1070
     0
  0
VISUALSTYLE
  5
3A
102
{ACAD_REACTORS
330
2A
102
}
330
2A
100
AcDbVisualStyle
  2
ColorChange
 70
    16
 71
     2
 72
     2
 73
     3
 90
        0
 40
-0.6
 41
-30.0
 62
     5
 63
     8
421
  8421504
 74
     1
 91
        4
 64
     7
 65
   257
 75
     1
175
     1
 42
1.0
 92
        8
 66
     8
424
  8421504
 43
1.0
 76
     1
 77
     6
 78
     2
 67
     7
 79
     5
170
     0
171
     0
290
     0
174
     0
 93
        1
 44
0.0
173
     0
291
     1
 45
0.0
1001
ACAD
1000
AcDbSavedByObjectVersion
1070
     0
  0
VISUALSTYLE
  5
34
102
{ACAD_REACTORS
330
2A
102
}
330
2A
100
AcDbVisualStyle
  2
Conceptual
 70
     9
 71
     3
 72
     2
 73
     0
 90
        0
 40
-0.6
 41
-30.0
 62
     5
 63
     7
421
 16777215
 74
     2
 91
        2
 64
     7
 65
   257
 75
     1
175
     1
 42
40.0
 92
        8
 66
     7
 43
1.0
 76
     1
 77
     6
 78
     2
 67
     7
 79
     3
170
     0
171
     0
290
     0
174
     0
 93
        1
 44
0.0
173
     0
291
     0
 45
0.0
1001
ACAD
1000
AcDbSavedByObjectVersion
1070
     0
  0
VISUALSTYLE
  5
35
102
{ACAD_REACTORS
330
2A
102
}
330
2A
100
AcDbVisualStyle
  2
Dim
 70
    11
 71
     2
 72
     2
 73
     0
 90
        0
 40
-0.6
 41
-30.0
 62
     5
 63
     7
421
 16777215
 74
     1
 91
        4
 64
     7
 65
   257
 75
     1
175
     1
 42
1.0
 92
        8
 66
     7
 43
1.0
 76
     1
 77
     6
 78
     2
 67
     7
 79
     5
170
     0
171
     0
290
     0
174
     0
 93
        1
 44
-50.0
173
     0
291
     1
 45
0.0
1001
ACAD
1000
AcDbSavedByObjectVersion
1070
     0
  0
VISUALSTYLE
  5
39
102
{ACAD_REACTORS
330
2A
102
}
330
2A
100
AcDbVisualStyle
  2
Facepattern
 70
    15
 71
     2
 72
     2
 73
     0
 90
        0
 40
-0.6
 41
-30.0
 62
     5
 63
     7
421
 16777215
 74
     1
 91
        4
 64
     7
 65
   257
 75
     1
175
     1
 42
1.0
 92
        8
 66
     7
 43
1.0
 76
     1
 77
     6
 78
     2
 67
     7
 79
     5
170
     0
171
     0
290
     0
174
     0
 93
        1
 44
0.0
173
     0
291
     1
 45
0.0
1001
ACAD
1000
AcDbSavedByObjectVersion
1070
     0
  0
VISUALSTYLE
  5
2B
102
{ACAD_REACTORS
330
2A
102
}
330
2A
100
AcDbVisualStyle
  2
Flat
 70
     0
 71
     2
 72
     1
 73
     1
 90
        2
 40
-0.6
 41
30.0
 62
     5
 63
     7
421
 16777215
 74
     0
 91
        4
 64
     7
 65
   257
 75
     1
175
     1
 42
1.0
 92
        8
 66
     7
 43
1.0
 76
     1
 77
     6
 78
     2
 67
     7
 79
     5
170
     0
171
     0
290
     0
174
     0
 93
       13
 44
0.0
173
     0
291
     1
 45
0.0
1001
ACAD
1000
AcDbSavedByObjectVersion
1070
     0
  0
VISUALSTYLE
  5
2C
102
{ACAD_REACTORS
330
2A
102
}
330
2A
100
AcDbVisualStyle
  2
FlatWithEdges
 70
     1
 71
     2
 72
     1
 73
     1
 90
        2
 40
-0.6
 41
30.0
 62
     5
 63
     7
421
 16777215
 74
     1
 91
        4
 64
     7
 65
   257
 75
     1
175
     1
 42
1.0
 92
        0
 66
   257
 43
1.0
 76
     1
 77
     6
 78
     2
 67
     7
 79
     5
170
     0
171
     0
290
     0
174
     0
 93
       13
 44
0.0
173
     0
291
     1
 45
0.0
1001
ACAD
1000
AcDbSavedByObjectVersion
1070
     0
  0
VISUALSTYLE
  5
2D
102
{ACAD_REACTORS
330
2A
102
}
330
2A
100
AcDbVisualStyle
  2
Gouraud
 70
     2
 71
     2
 72
     2
 73
     1
 90
        2
 40
-0.6
 41
30.0
 62
     5
 63
     7
421
 16777215
 74
     0
 91
        4
 64
     7
 65
   257
 75
     1
175
     1
 42
1.0
 92
        0
 66
     7
 43
1.0
 76
     1
 77
     6
 78
     2
 67
     7
 79
     5
170
     0
171
     0
290
     0
174
     0
 93
       13
 44
0.0
173
     0
291
     1
 45
0.0
1001
ACAD
1000
AcDbSavedByObjectVersion
1070
     0
  0
VISUALSTYLE
  5
2E
102
{ACAD_REACTORS
330
2A
102
}
330
2A
100
AcDbVisualStyle
  2
GouraudWithEdges
 70
     3
 71
     2
 72
     2
 73
     1
 90
        2
 40
-0.6
 41
30.0
 62
     5
 63
     7
421
 16777215
 74
     1
 91
        4
 64
     7
 65
   257
 75
     1
175
     1
 42
1.0
 92
        0
 66
   257
 43
1.0
 76
     1
 77
     6
 78
     2
 67
     7
 79
     5
170
     0
171
     0
290
     0
174
     0
 93
       13
 44
0.0
173
     0
291
     1
 45
0.0
1001
ACAD
1000
AcDbSavedByObjectVersion
1070
     0
  0
VISUALSTYLE
  5
38
102
{ACAD_REACTORS
330
2A
102
}
330
2A
100
AcDbVisualStyle
  2
Linepattern
 70
    14
 71
     2
 72
     2
 73
     0
 90
        0
 40
-0.6
 41
-30.0
 62
     5
 63
     7
421
 16777215
 74
     1
 91
        4
 64
     7
 65
   257
 75
     7
175
     7
 42
1.0
 92
        8
 66
     7
 43
1.0
 76
     1
 77
     6
 78
     2
 67
     7
 79
     5
170
     0
171
     0
290
     0
174
     0
 93
        1
 44
0.0
173
     0
291
     1
 45
0.0
1001
ACAD
1000
AcDbSavedByObjectVersion
1070
     0
  0
VISUALSTYLE
  5
33
102
{ACAD_REACTORS
330
2A
102
}
330
2A
100
AcDbVisualStyle
  2
Realistic
 70
     8
 71
     2
 72
     2
 73
     0
 90
        0
 40
-0.6
 41
-30.0
 62
     5
 63
     7
421
 16777215
 74
     1
 91
        0
 64
     7
 65
   257
 75
     1
175
     1
 42
1.0
 92
        8
 66
     8
424
  7895160
 43
1.0
 76
     1
 77
     6
 78
     2
 67
     7
 79
     5
170
     0
171
     0
290
     0
174
     0
 93
       13
 44
0.0
173
     0
291
     0
 45
0.0
1001
ACAD
1000
AcDbSavedByObjectVersion
1070
     0
  0
VISUALSTYLE
  5
37
102
{ACAD_REACTORS
330
2A
102
}
330
2A
100
AcDbVisualStyle
  2
Thicken
 70
    13
 71
     2
 72
     2
 73
     0
 90
        0
 40
-0.6
 41
-30.0
 62
     5
 63
     7
421
 16777215
 74
     1
 91
        4
 64
     7
 65
   257
 75
     1
175
     1
 42
1.0
 92
       12
 66
     7
 43
1.0
 76
     1
 77
     6
 78
     2
 67
     7
 79
     5
170
     0
171
     0
290
     0
174
     0
 93
        1
 44
0.0
173
     0
291
     1
 45
0.0
1001
ACAD
1000
AcDbSavedByObjectVersion
1070
     0
  0
ENDSEC
  0
EOF
