  0
SECTION
  2
HEADER
  9
$ACADVER
  1
AC1021
  9
$ACADMAINTVER
 70
    25
  9
$DWGCODEPAGE
  3
ANSI_1252
  9
$INSBASE
 10
0.0
 20
0.0
 30
0.0
  9
$EXTMIN
 10
-13.3684
 20
-2.03444
 30
0.0
  9
$EXTMAX
 10
13.30879
 20
1.97758
 30
0.0
  9
$LIMMIN
 10
0.0
 20
0.0
  9
$LIMMAX
 10
12.0
 20
9.0
  9
$ORTHOMODE
 70
     0
  9
$REGENMODE
 70
     1
  9
$FILLMODE
 70
     1
  9
$QTEXTMODE
 70
     0
  9
$MIRRTEXT
 70
     1
  9
$LTSCALE
 40
1.0
  9
$ATTMODE
 70
     1
  9
$TEXTSIZE
 40
0.2
  9
$TRACEWID
 40
0.05
  9
$TEXTSTYLE
  7
Standard
  9
$CLAYER
  8
0
  9
$CELTYPE
  6
ByLayer
  9
$CECOLOR
 62
   256
  9
$CELTSCALE
 40
1.0
  9
$DISPSILH
 70
     0
  9
$DIMSCALE
 40
1.0
  9
$DIMASZ
 40
0.18
  9
$DIMEXO
 40
0.0625
  9
$DIMDLI
 40
0.38
  9
$DIMRND
 40
0.0
  9
$DIMDLE
 40
0.0
  9
$DIMEXE
 40
0.18
  9
$DIMTP
 40
0.0
  9
$DIMTM
 40
0.0
  9
$DIMTXT
 40
0.18
  9
$DIMCEN
 40
0.09
  9
$DIMTSZ
 40
0.0
  9
$DIMTOL
 70
     0
  9
$DIMLIM
 70
     0
  9
$DIMTIH
 70
     1
  9
$DIMTOH
 70
     1
  9
$DIMSE1
 70
     0
  9
$DIMSE2
 70
     0
  9
$DIMTAD
 70
     0
  9
$DIMZIN
 70
     0
  9
$DIMBLK
  1

  9
$DIMASO
 70
     1
  9
$DIMSHO
 70
     1
  9
$DIMPOST
  1

  9
$DIMAPOST
  1

  9
$DIMALT
 70
     0
  9
$DIMALTD
 70
     2
  9
$DIMALTF
 40
25.4
  9
$DIMLFAC
 40
1.0
  9
$DIMTOFL
 70
     0
  9
$DIMTVP
 40
0.0
  9
$DIMTIX
 70
     0
  9
$DIMSOXD
 70
     0
  9
$DIMSAH
 70
     0
  9
$DIMBLK1
  1

  9
$DIMBLK2
  1

  9
$DIMSTYLE
  2
Standard
  9
$DIMCLRD
 70
     0
  9
$DIMCLRE
 70
     0
  9
$DIMCLRT
 70
     0
  9
$DIMTFAC
 40
1.0
  9
$DIMGAP
 40
0.09
  9
$DIMJUST
 70
     0
  9
$DIMSD1
 70
     0
  9
$DIMSD2
 70
     0
  9
$DIMTOLJ
 70
     1
  9
$DIMTZIN
 70
     0
  9
$DIMALTZ
 70
     0
  9
$DIMALTTZ
 70
     0
  9
$DIMUPT
 70
     0
  9
$DIMDEC
 70
     4
  9
$DIMTDEC
 70
     4
  9
$DIMALTU
 70
     2
  9
$DIMALTTD
 70
     2
  9
$DIMTXSTY
  7
Standard
  9
$DIMAUNIT
 70
     0
  9
$DIMADEC
 70
     0
  9
$DIMALTRND
 40
0.0
  9
$DIMAZIN
 70
     0
  9
$DIMDSEP
 70
    46
  9
$DIMATFIT
 70
     3
  9
$DIMFRAC
 70
     0
  9
$DIMLDRBLK
  1

  9
$DIMLUNIT
 70
     2
  9
$DIMLWD
 70
    -2
  9
$DIMLWE
 70
    -2
  9
$DIMTMOVE
 70
     0
  9
$DIMFXL
 40
1.0
  9
$DIMFXLON
 70
     0
  9
$DIMJOGANG
 40
0.7853981633974483
  9
$DIMTFILL
 70
     0
  9
$DIMTFILLCLR
 70
     0
  9
$DIMARCSYM
 70
     0
  9
$DIMLTYPE
  6

  9
$DIMLTEX1
  6

  9
$DIMLTEX2
  6

  9
$LUNITS
 70
     2
  9
$LUPREC
 70
     4
  9
$SKETCHINC
 40
0.1
  9
$FILLETRAD
 40
0.5
  9
$AUNITS
 70
     0
  9
$AUPREC
 70
     0
  9
$MENU
  1
.
  9
$ELEVATION
 40
0.0
  9
$PELEVATION
 40
0.0
  9
$THICKNESS
 40
0.0
  9
$LIMCHECK
 70
     0
  9
$CHAMFERA
 40
0.5
  9
$CHAMFERB
 40
0.5
  9
$CHAMFERC
 40
1.0
  9
$CHAMFERD
 40
0.0
  9
$SKPOLY
 70
     0
  9
$TDCREATE
 40
2456871.80320647
  9
$TDUCREATE
 40
2456871.92820647
  9
$TDUPDATE
 40
2456871.803206771
  9
$TDUUPDATE
 40
2456871.928206771
  9
$TDINDWG
 40
0.0000000116
  9
$TDUSRTIMER
 40
0.0000000116
  9
$USRTIMER
 70
     1
  9
$ANGBASE
 50
0.0
  9
$ANGDIR
 70
     0
  9
$PDMODE
 70
     0
  9
$PDSIZE
 40
0.0
  9
$PLINEWID
 40
0.0
  9
$SPLFRAME
 70
     0
  9
$SPLINETYPE
 70
     6
  9
$SPLINESEGS
 70
     8
  9
$HANDSEED
  5
6B
  9
$SURFTAB1
 70
     6
  9
$SURFTAB2
 70
     6
  9
$SURFTYPE
 70
     6
  9
$SURFU
 70
     6
  9
$SURFV
 70
     6
  9
$UCSBASE
  2

  9
$UCSNAME
  2

  9
$UCSORG
 10
0.0
 20
0.0
 30
0.0
  9
$UCSXDIR
 10
1.0
 20
0.0
 30
0.0
  9
$UCSYDIR
 10
0.0
 20
1.0
 30
0.0
  9
$UCSORTHOREF
  2

  9
$UCSORTHOVIEW
 70
     0
  9
$UCSORGTOP
 10
0.0
 20
0.0
 30
0.0
  9
$UCSORGBOTTOM
 10
0.0
 20
0.0
 30
0.0
  9
$UCSORGLEFT
 10
0.0
 20
0.0
 30
0.0
  9
$UCSORGRIGHT
 10
0.0
 20
0.0
 30
0.0
  9
$UCSORGFRONT
 10
0.0
 20
0.0
 30
0.0
  9
$UCSORGBACK
 10
0.0
 20
0.0
 30
0.0
  9
$PUCSBASE
  2

  9
$PUCSNAME
  2

  9
$PUCSORG
 10
0.0
 20
0.0
 30
0.0
  9
$PUCSXDIR
 10
1.0
 20
0.0
 30
0.0
  9
$PUCSYDIR
 10
0.0
 20
1.0
 30
0.0
  9
$PUCSORTHOREF
  2

  9
$PUCSORTHOVIEW
 70
     0
  9
$PUCSORGTOP
 10
0.0
 20
0.0
 30
0.0
  9
$PUCSORGBOTTOM
 10
0.0
 20
0.0
 30
0.0
  9
$PUCSORGLEFT
 10
0.0
 20
0.0
 30
0.0
  9
$PUCSORGRIGHT
 10
0.0
 20
0.0
 30
0.0
  9
$PUCSORGFRONT
 10
0.0
 20
0.0
 30
0.0
  9
$PUCSORGBACK
 10
0.0
 20
0.0
 30
0.0
  9
$USERI1
 70
     0
  9
$USERI2
 70
     0
  9
$USERI3
 70
     0
  9
$USERI4
 70
     0
  9
$USERI5
 70
     0
  9
$USERR1
 40
0.0
  9
$USERR2
 40
0.0
  9
$USERR3
 40
0.0
  9
$USERR4
 40
0.0
  9
$USERR5
 40
0.0
  9
$WORLDVIEW
 70
     1
  9
$SHADEDGE
 70
     3
  9
$SHADEDIF
 70
    70
  9
$TILEMODE
 70
     1
  9
$MAXACTVP
 70
    64
  9
$PINSBASE
 10
0.0
 20
0.0
 30
0.0
  9
$PLIMCHECK
 70
     0
  9
$PEXTMIN
 10
1.000000000000000E+20
 20
1.000000000000000E+20
 30
1.000000000000000E+20
  9
$PEXTMAX
 10
-1.000000000000000E+20
 20
-1.000000000000000E+20
 30
-1.000000000000000E+20
  9
$PLIMMIN
 10
0.0
 20
0.0
  9
$PLIMMAX
 10
12.0
 20
9.0
  9
$UNITMODE
 70
     0
  9
$VISRETAIN
 70
     1
  9
$PLINEGEN
 70
     0
  9
$PSLTSCALE
 70
     1
  9
$TREEDEPTH
 70
  3020
  9
$CMLSTYLE
  2
Standard
  9
$CMLJUST
 70
     0
  9
$CMLSCALE
 40
1.0
  9
$PROXYGRAPHICS
 70
     1
  9
$MEASUREMENT
 70
     0
  9
$CELWEIGHT
370
    -1
  9
$ENDCAPS
280
     0
  9
$JOINSTYLE
280
     0
  9
$LWDISPLAY
290
     0
  9
$INSUNITS
 70
     5
  9
$HYPERLINKBASE
  1

  9
$STYLESHEET
  1

  9
$XEDIT
290
     1
  9
$CEPSNTYPE
380
     0
  9
$PSTYLEMODE
290
     1
  9
$FINGERPRINTGUID
  2
{3E4AC202-8A0D-4BFA-9705-19777B5DD531}
  9
$VERSIONGUID
  2
{FAEB1C32-E019-11D5-929B-00C0DF256EC4}
  9
$EXTNAMES
290
     1
  9
$PSVPSCALE
 40
0.0
  9
$OLESTARTUP
290
     0
  9
$SORTENTS
280
   127
  9
$INDEXCTL
280
     0
  9
$HIDETEXT
280
     1
  9
$XCLIPFRAME
290
     0
  9
$HALOGAP
280
     0
  9
$OBSCOLOR
 70
   257
  9
$OBSLTYPE
280
     0
  9
$INTERSECTIONDISPLAY
280
     0
  9
$INTERSECTIONCOLOR
 70
   257
  9
$DIMASSOC
280
     2
  9
$PROJECTNAME
  1

  9
$CAMERADISPLAY
290
     0
  9
$LENSLENGTH
 40
50.0
  9
$CAMERAHEIGHT
 40
0.0
  9
$STEPSPERSEC
 40
2.0
  9
$STEPSIZE
 40
6.0
  9
$3DDWFPREC
 40
2.0
  9
$PSOLWIDTH
 40
0.25
  9
$PSOLHEIGHT
 40
4.0
  9
$LOFTANG1
 40
1.570796326794897
  9
$LOFTANG2
 40
1.570796326794897
  9
$LOFTMAG1
 40
0.0
  9
$LOFTMAG2
 40
0.0
  9
$LOFTPARAM
 70
     7
  9
$LOFTNORMALS
280
     1
  9
$LATITUDE
 40
37.795
  9
$LONGITUDE
 40
-122.394
  9
$NORTHDIRECTION
 40
0.0
  9
$TIMEZONE
 70
 -8000
  9
$LIGHTGLYPHDISPLAY
280
     1
  9
$TILEMODELIGHTSYNCH
280
     1
  9
$SOLIDHIST
280
     1
  9
$SHOWHIST
280
     1
  9
$DWFFRAME
280
     2
  9
$DGNFRAME
280
     2
  9
$REALWORLDSCALE
290
     1
  9
$INTERFERECOLOR
 62
   256
  9
$CSHADOW
280
     0
  9
$SHADOWPLANELOCATION
 40
0.0
  0
ENDSEC
  0
SECTION
  2
CLASSES
  0
CLASS
  1
ACDBDICTIONARYWDFLT
  2
AcDbDictionaryWithDefault
  3
ObjectDBX Classes
 90
        0
 91
        4
280
     0
281
     0
  0
CLASS
  1
VISUALSTYLE
  2
AcDbVisualStyle
  3
ObjectDBX Classes
 90
     4095
 91
        4
280
     0
281
     0
  0
CLASS
  1
MATERIAL
  2
AcDbMaterial
  3
ObjectDBX Classes
 90
     1153
 91
        4
280
     0
281
     0
  0
ENDSEC
  0
SECTION
  2
TABLES
  0
TABLE
  2
VPORT
  5
8
330
0
100
AcDbSymbolTable
 70
     1
  0
VPORT
  5
29
330
8
100
AcDbSymbolTableRecord
100
AcDbViewportTableRecord
  2
*Active
 70
     0
 10
0.0
 20
0.0
 11
1.0
 21
1.0
 12
10.42990654205607
 22
4.5
 13
0.0
 23
0.0
 14
0.5
 24
0.5
 15
0.5
 25
0.5
 16
0.0
 26
0.0
 36
1.0
 17
0.0
 27
0.0
 37
0.0
 40
9.0
 41
1.972972972850329
 42
50.0
 43
0.0
 44
0.0
 50
0.0
 51
0.0
 71
     0
 72
   100
 73
     1
 74
     3
 75
     0
 76
     0
 77
     0
 78
     0
281
     0
 65
     1
110
0.0
120
0.0
130
0.0
111
1.0
121
0.0
131
0.0
112
0.0
122
1.0
132
0.0
 79
     0
146
0.0
 60
     3
 61
     5
292
     1
282
     1
141
0.0
142
0.0
 63
   250
  0
ENDTAB
  0
TABLE
  2
LTYPE
  5
5
330
0
100
AcDbSymbolTable
 70
     1
  0
LTYPE
  5
14
330
5
100
AcDbSymbolTableRecord
100
AcDbLinetypeTableRecord
  2
ByBlock
 70
     0
  3

 72
    65
 73
     0
 40
0.0
  0
LTYPE
  5
15
330
5
100
AcDbSymbolTableRecord
100
AcDbLinetypeTableRecord
  2
ByLayer
 70
     0
  3

 72
    65
 73
     0
 40
0.0
  0
LTYPE
  5
16
330
5
100
AcDbSymbolTableRecord
100
AcDbLinetypeTableRecord
  2
Continuous
 70
     0
  3
Solid line
 72
    65
 73
     0
 40
0.0
  0
ENDTAB
  0
TABLE
  2
LAYER
  5
2
330
0
100
AcDbSymbolTable
 70
     2
  0
LAYER
  5
10
330
2
100
AcDbSymbolTableRecord
100
AcDbLayerTableRecord
  2
0
 70
     0
 62
     7
  6
Continuous
370
    -3
390
F
347
3E
  0
LAYER
  5
40
330
2
100
AcDbSymbolTableRecord
100
AcDbLayerTableRecord
  2
Camada 1
 70
     0
 62
     7
  6
Continuous
370
    -3
390
F
347
3E
  0
ENDTAB
  0
TABLE
  2
STYLE
  5
3
330
0
100
AcDbSymbolTable
 70
     1
  0
STYLE
  5
11
330
3
100
AcDbSymbolTableRecord
100
AcDbTextStyleTableRecord
  2
Standard
 70
     0
 40
0.0
 41
1.0
 50
0.0
 71
     0
 42
0.2
  3
txt
  4

  0
ENDTAB
  0
TABLE
  2
VIEW
  5
6
330
0
100
AcDbSymbolTable
 70
     0
  0
ENDTAB
  0
TABLE
  2
UCS
  5
7
330
0
100
AcDbSymbolTable
 70
     0
  0
ENDTAB
  0
TABLE
  2
APPID
  5
9
330
0
100
AcDbSymbolTable
 70
     2
  0
APPID
  5
12
330
9
100
AcDbSymbolTableRecord
100
AcDbRegAppTableRecord
  2
ACAD
 70
     0
  0
APPID
  5
3F
330
9
100
AcDbSymbolTableRecord
100
AcDbRegAppTableRecord
  2
ODA
 70
     0
  0
ENDTAB
  0
TABLE
  2
DIMSTYLE
  5
A
330
0
100
AcDbSymbolTable
 70
     1
100
AcDbDimStyleTable
  0
DIMSTYLE
105
27
330
A
100
AcDbSymbolTableRecord
100
AcDbDimStyleTableRecord
  2
Standard
 70
     0
178
     0
340
11
  0
ENDTAB
  0
TABLE
  2
BLOCK_RECORD
  5
1
330
0
100
AcDbSymbolTable
 70
     1
  0
BLOCK_RECORD
  5
1F
330
1
100
AcDbSymbolTableRecord
100
AcDbBlockTableRecord
  2
*Model_Space
340
22
 70
     0
280
     1
281
     0
  0
BLOCK_RECORD
  5
1B
330
1
100
AcDbSymbolTableRecord
100
AcDbBlockTableRecord
  2
*Paper_Space
340
1E
 70
     0
280
     1
281
     0
  0
BLOCK_RECORD
  5
23
330
1
100
AcDbSymbolTableRecord
100
AcDbBlockTableRecord
  2
*Paper_Space0
340
26
 70
     0
280
     1
281
     0
  0
ENDTAB
  0
ENDSEC
  0
SECTION
  2
BLOCKS
  0
BLOCK
  5
20
330
1F
100
AcDbEntity
  8
0
100
AcDbBlockBegin
  2
*Model_Space
 70
     0
 10
0.0
 20
0.0
 30
0.0
  3
*Model_Space
  1

  0
ENDBLK
  5
21
330
1F
100
AcDbEntity
  8
0
100
AcDbBlockEnd
  0
BLOCK
  5
1C
330
1B
100
AcDbEntity
 67
     1
  8
0
100
AcDbBlockBegin
  2
*Paper_Space
 70
     0
 10
0.0
 20
0.0
 30
0.0
  3
*Paper_Space
  1

  0
ENDBLK
  5
1D
330
1B
100
AcDbEntity
 67
     1
  8
0
100
AcDbBlockEnd
  0
BLOCK
  5
24
330
23
100
AcDbEntity
  8
0
100
AcDbBlockBegin
  2
*Paper_Space0
 70
     0
 10
0.0
 20
0.0
 30
0.0
  3
*Paper_Space0
  1

  0
ENDBLK
  5
25
330
23
100
AcDbEntity
  8
0
100
AcDbBlockEnd
  0
ENDSEC
  0
SECTION
  2
ENTITIES
  0
SPLINE
  5
41
330
1F
100
AcDbEntity
  8
Camada 1
 62
   156
100
AcDbSpline
210
0.0
220
0.0
230
1.0
 70
    11
 71
     3
 72
  1060
 73
  1056
 74
     0
 42
0.0000000001
 43
0.0000000001
 12
1.0
 22
0.0
 32
0.0
 13
1.0
 23
0.0
 33
0.0
 40
0.0
 40
0.0
 40
0.0
 40
0.0
 40
0.0037735849056604
 40
0.0037735849056604
 40
0.0037735849056604
 40
0.0037735849056604
 40
0.0075471698113208
 40
0.0075471698113208
 40
0.0075471698113208
 40
0.0075471698113208
 40
0.0113207547169811
 40
0.0113207547169811
 40
0.0113207547169811
 40
0.0113207547169811
 40
0.0150943396226415
 40
0.0150943396226415
 40
0.0150943396226415
 40
0.0150943396226415
 40
0.0188679245283019
 40
0.0188679245283019
 40
0.0188679245283019
 40
0.0188679245283019
 40
0.0226415094339623
 40
0.0226415094339623
 40
0.0226415094339623
 40
0.0226415094339623
 40
0.0264150943396226
 40
0.0264150943396226
 40
0.0264150943396226
 40
0.0264150943396226
 40
0.030188679245283
 40
0.030188679245283
 40
0.030188679245283
 40
0.030188679245283
 40
0.0339622641509434
 40
0.0339622641509434
 40
0.0339622641509434
 40
0.0339622641509434
 40
0.0377358490566038
 40
0.0377358490566038
 40
0.0377358490566038
 40
0.0377358490566038
 40
0.0415094339622641
 40
0.0415094339622641
 40
0.0415094339622641
 40
0.0415094339622641
 40
0.0452830188679245
 40
0.0452830188679245
 40
0.0452830188679245
 40
0.0452830188679245
 40
0.0490566037735849
 40
0.0490566037735849
 40
0.0490566037735849
 40
0.0490566037735849
 40
0.0528301886792453
 40
0.0528301886792453
 40
0.0528301886792453
 40
0.0528301886792453
 40
0.0566037735849057
 40
0.0566037735849057
 40
0.0566037735849057
 40
0.0566037735849057
 40
0.060377358490566
 40
0.060377358490566
 40
0.060377358490566
 40
0.060377358490566
 40
0.0641509433962264
 40
0.0641509433962264
 40
0.0641509433962264
 40
0.0641509433962264
 40
0.0679245283018868
 40
0.0679245283018868
 40
0.0679245283018868
 40
0.0679245283018868
 40
0.0716981132075472
 40
0.0716981132075472
 40
0.0716981132075472
 40
0.0716981132075472
 40
0.0754716981132075
 40
0.0754716981132075
 40
0.0754716981132075
 40
0.0754716981132075
 40
0.0792452830188679
 40
0.0792452830188679
 40
0.0792452830188679
 40
0.0792452830188679
 40
0.0830188679245283
 40
0.0830188679245283
 40
0.0830188679245283
 40
0.0830188679245283
 40
0.0867924528301887
 40
0.0867924528301887
 40
0.0867924528301887
 40
0.0867924528301887
 40
0.0905660377358491
 40
0.0905660377358491
 40
0.0905660377358491
 40
0.0905660377358491
 40
0.0943396226415094
 40
0.0943396226415094
 40
0.0943396226415094
 40
0.0943396226415094
 40
0.0981132075471698
 40
0.0981132075471698
 40
0.0981132075471698
 40
0.0981132075471698
 40
0.1018867924528302
 40
0.1018867924528302
 40
0.1018867924528302
 40
0.1018867924528302
 40
0.1056603773584906
 40
0.1056603773584906
 40
0.1056603773584906
 40
0.1056603773584906
 40
0.1094339622641509
 40
0.1094339622641509
 40
0.1094339622641509
 40
0.1094339622641509
 40
0.1132075471698113
 40
0.1132075471698113
 40
0.1132075471698113
 40
0.1132075471698113
 40
0.1169811320754717
 40
0.1169811320754717
 40
0.1169811320754717
 40
0.1169811320754717
 40
0.1207547169811321
 40
0.1207547169811321
 40
0.1207547169811321
 40
0.1207547169811321
 40
0.1245283018867925
 40
0.1245283018867925
 40
0.1245283018867925
 40
0.1245283018867925
 40
0.1283018867924528
 40
0.1283018867924528
 40
0.1283018867924528
 40
0.1283018867924528
 40
0.1320754716981132
 40
0.1320754716981132
 40
0.1320754716981132
 40
0.1320754716981132
 40
0.1358490566037736
 40
0.1358490566037736
 40
0.1358490566037736
 40
0.1358490566037736
 40
0.139622641509434
 40
0.139622641509434
 40
0.139622641509434
 40
0.139622641509434
 40
0.1433962264150943
 40
0.1433962264150943
 40
0.1433962264150943
 40
0.1433962264150943
 40
0.1471698113207547
 40
0.1471698113207547
 40
0.1471698113207547
 40
0.1471698113207547
 40
0.1509433962264151
 40
0.1509433962264151
 40
0.1509433962264151
 40
0.1509433962264151
 40
0.1547169811320755
 40
0.1547169811320755
 40
0.1547169811320755
 40
0.1547169811320755
 40
0.1584905660377358
 40
0.1584905660377358
 40
0.1584905660377358
 40
0.1584905660377358
 40
0.1622641509433962
 40
0.1622641509433962
 40
0.1622641509433962
 40
0.1622641509433962
 40
0.1660377358490566
 40
0.1660377358490566
 40
0.1660377358490566
 40
0.1660377358490566
 40
0.169811320754717
 40
0.169811320754717
 40
0.169811320754717
 40
0.169811320754717
 40
0.1735849056603773
 40
0.1735849056603773
 40
0.1735849056603773
 40
0.1735849056603773
 40
0.1773584905660377
 40
0.1773584905660377
 40
0.1773584905660377
 40
0.1773584905660377
 40
0.1811320754716981
 40
0.1811320754716981
 40
0.1811320754716981
 40
0.1811320754716981
 40
0.1849056603773585
 40
0.1849056603773585
 40
0.1849056603773585
 40
0.1849056603773585
 40
0.1886792452830189
 40
0.1886792452830189
 40
0.1886792452830189
 40
0.1886792452830189
 40
0.1924528301886793
 40
0.1924528301886793
 40
0.1924528301886793
 40
0.1924528301886793
 40
0.1962264150943396
 40
0.1962264150943396
 40
0.1962264150943396
 40
0.1962264150943396
 40
0.2
 40
0.2
 40
0.2
 40
0.2
 40
0.2037735849056604
 40
0.2037735849056604
 40
0.2037735849056604
 40
0.2037735849056604
 40
0.2075471698113208
 40
0.2075471698113208
 40
0.2075471698113208
 40
0.2075471698113208
 40
0.2113207547169811
 40
0.2113207547169811
 40
0.2113207547169811
 40
0.2113207547169811
 40
0.2150943396226415
 40
0.2150943396226415
 40
0.2150943396226415
 40
0.2150943396226415
 40
0.2188679245283019
 40
0.2188679245283019
 40
0.2188679245283019
 40
0.2188679245283019
 40
0.2226415094339623
 40
0.2226415094339623
 40
0.2226415094339623
 40
0.2226415094339623
 40
0.2264150943396226
 40
0.2264150943396226
 40
0.2264150943396226
 40
0.2264150943396226
 40
0.230188679245283
 40
0.230188679245283
 40
0.230188679245283
 40
0.230188679245283
 40
0.2339622641509434
 40
0.2339622641509434
 40
0.2339622641509434
 40
0.2339622641509434
 40
0.2377358490566038
 40
0.2377358490566038
 40
0.2377358490566038
 40
0.2377358490566038
 40
0.2415094339622642
 40
0.2415094339622642
 40
0.2415094339622642
 40
0.2415094339622642
 40
0.2452830188679245
 40
0.2452830188679245
 40
0.2452830188679245
 40
0.2452830188679245
 40
0.2490566037735849
 40
0.2490566037735849
 40
0.2490566037735849
 40
0.2490566037735849
 40
0.2528301886792453
 40
0.2528301886792453
 40
0.2528301886792453
 40
0.2528301886792453
 40
0.2566037735849057
 40
0.2566037735849057
 40
0.2566037735849057
 40
0.2566037735849057
 40
0.260377358490566
 40
0.260377358490566
 40
0.260377358490566
 40
0.260377358490566
 40
0.2641509433962264
 40
0.2641509433962264
 40
0.2641509433962264
 40
0.2641509433962264
 40
0.2679245283018868
 40
0.2679245283018868
 40
0.2679245283018868
 40
0.2679245283018868
 40
0.2716981132075472
 40
0.2716981132075472
 40
0.2716981132075472
 40
0.2716981132075472
 40
0.2754716981132075
 40
0.2754716981132075
 40
0.2754716981132075
 40
0.2754716981132075
 40
0.2792452830188679
 40
0.2792452830188679
 40
0.2792452830188679
 40
0.2792452830188679
 40
0.2830188679245283
 40
0.2830188679245283
 40
0.2830188679245283
 40
0.2830188679245283
 40
0.2867924528301887
 40
0.2867924528301887
 40
0.2867924528301887
 40
0.2867924528301887
 40
0.290566037735849
 40
0.290566037735849
 40
0.290566037735849
 40
0.290566037735849
 40
0.2943396226415094
 40
0.2943396226415094
 40
0.2943396226415094
 40
0.2943396226415094
 40
0.2981132075471698
 40
0.2981132075471698
 40
0.2981132075471698
 40
0.2981132075471698
 40
0.3018867924528302
 40
0.3018867924528302
 40
0.3018867924528302
 40
0.3018867924528302
 40
0.3056603773584906
 40
0.3056603773584906
 40
0.3056603773584906
 40
0.3056603773584906
 40
0.3094339622641509
 40
0.3094339622641509
 40
0.3094339622641509
 40
0.3094339622641509
 40
0.3132075471698113
 40
0.3132075471698113
 40
0.3132075471698113
 40
0.3132075471698113
 40
0.3169811320754717
 40
0.3169811320754717
 40
0.3169811320754717
 40
0.3169811320754717
 40
0.3207547169811321
 40
0.3207547169811321
 40
0.3207547169811321
 40
0.3207547169811321
 40
0.3245283018867924
 40
0.3245283018867924
 40
0.3245283018867924
 40
0.3245283018867924
 40
0.3283018867924528
 40
0.3283018867924528
 40
0.3283018867924528
 40
0.3283018867924528
 40
0.3320754716981132
 40
0.3320754716981132
 40
0.3320754716981132
 40
0.3320754716981132
 40
0.3358490566037736
 40
0.3358490566037736
 40
0.3358490566037736
 40
0.3358490566037736
 40
0.3396226415094339
 40
0.3396226415094339
 40
0.3396226415094339
 40
0.3396226415094339
 40
0.3433962264150943
 40
0.3433962264150943
 40
0.3433962264150943
 40
0.3433962264150943
 40
0.3471698113207547
 40
0.3471698113207547
 40
0.3471698113207547
 40
0.3471698113207547
 40
0.3509433962264151
 40
0.3509433962264151
 40
0.3509433962264151
 40
0.3509433962264151
 40
0.3547169811320754
 40
0.3547169811320754
 40
0.3547169811320754
 40
0.3547169811320754
 40
0.3584905660377358
 40
0.3584905660377358
 40
0.3584905660377358
 40
0.3584905660377358
 40
0.3622641509433962
 40
0.3622641509433962
 40
0.3622641509433962
 40
0.3622641509433962
 40
0.3660377358490566
 40
0.3660377358490566
 40
0.3660377358490566
 40
0.3660377358490566
 40
0.369811320754717
 40
0.369811320754717
 40
0.369811320754717
 40
0.369811320754717
 40
0.3735849056603773
 40
0.3735849056603773
 40
0.3735849056603773
 40
0.3735849056603773
 40
0.3773584905660378
 40
0.3773584905660378
 40
0.3773584905660378
 40
0.3773584905660378
 40
0.3811320754716981
 40
0.3811320754716981
 40
0.3811320754716981
 40
0.3811320754716981
 40
0.3849056603773585
 40
0.3849056603773585
 40
0.3849056603773585
 40
0.3849056603773585
 40
0.3886792452830189
 40
0.3886792452830189
 40
0.3886792452830189
 40
0.3886792452830189
 40
0.3924528301886793
 40
0.3924528301886793
 40
0.3924528301886793
 40
0.3924528301886793
 40
0.3962264150943396
 40
0.3962264150943396
 40
0.3962264150943396
 40
0.3962264150943396
 40
0.4
 40
0.4
 40
0.4
 40
0.4
 40
0.4037735849056604
 40
0.4037735849056604
 40
0.4037735849056604
 40
0.4037735849056604
 40
0.4075471698113208
 40
0.4075471698113208
 40
0.4075471698113208
 40
0.4075471698113208
 40
0.4113207547169812
 40
0.4113207547169812
 40
0.4113207547169812
 40
0.4113207547169812
 40
0.4150943396226415
 40
0.4150943396226415
 40
0.4150943396226415
 40
0.4150943396226415
 40
0.4188679245283019
 40
0.4188679245283019
 40
0.4188679245283019
 40
0.4188679245283019
 40
0.4226415094339623
 40
0.4226415094339623
 40
0.4226415094339623
 40
0.4226415094339623
 40
0.4264150943396227
 40
0.4264150943396227
 40
0.4264150943396227
 40
0.4264150943396227
 40
0.430188679245283
 40
0.430188679245283
 40
0.430188679245283
 40
0.430188679245283
 40
0.4339622641509434
 40
0.4339622641509434
 40
0.4339622641509434
 40
0.4339622641509434
 40
0.4377358490566038
 40
0.4377358490566038
 40
0.4377358490566038
 40
0.4377358490566038
 40
0.4415094339622642
 40
0.4415094339622642
 40
0.4415094339622642
 40
0.4415094339622642
 40
0.4452830188679245
 40
0.4452830188679245
 40
0.4452830188679245
 40
0.4452830188679245
 40
0.4490566037735849
 40
0.4490566037735849
 40
0.4490566037735849
 40
0.4490566037735849
 40
0.4528301886792453
 40
0.4528301886792453
 40
0.4528301886792453
 40
0.4528301886792453
 40
0.4566037735849057
 40
0.4566037735849057
 40
0.4566037735849057
 40
0.4566037735849057
 40
0.460377358490566
 40
0.460377358490566
 40
0.460377358490566
 40
0.460377358490566
 40
0.4641509433962264
 40
0.4641509433962264
 40
0.4641509433962264
 40
0.4641509433962264
 40
0.4679245283018868
 40
0.4679245283018868
 40
0.4679245283018868
 40
0.4679245283018868
 40
0.4716981132075472
 40
0.4716981132075472
 40
0.4716981132075472
 40
0.4716981132075472
 40
0.4754716981132076
 40
0.4754716981132076
 40
0.4754716981132076
 40
0.4754716981132076
 40
0.4792452830188679
 40
0.4792452830188679
 40
0.4792452830188679
 40
0.4792452830188679
 40
0.4830188679245283
 40
0.4830188679245283
 40
0.4830188679245283
 40
0.4830188679245283
 40
0.4867924528301887
 40
0.4867924528301887
 40
0.4867924528301887
 40
0.4867924528301887
 40
0.4905660377358491
 40
0.4905660377358491
 40
0.4905660377358491
 40
0.4905660377358491
 40
0.4943396226415094
 40
0.4943396226415094
 40
0.4943396226415094
 40
0.4943396226415094
 40
0.4981132075471698
 40
0.4981132075471698
 40
0.4981132075471698
 40
0.4981132075471698
 40
0.5018867924528302
 40
0.5018867924528302
 40
0.5018867924528302
 40
0.5018867924528302
 40
0.5056603773584906
 40
0.5056603773584906
 40
0.5056603773584906
 40
0.5056603773584906
 40
0.5094339622641509
 40
0.5094339622641509
 40
0.5094339622641509
 40
0.5094339622641509
 40
0.5132075471698113
 40
0.5132075471698113
 40
0.5132075471698113
 40
0.5132075471698113
 40
0.5169811320754717
 40
0.5169811320754717
 40
0.5169811320754717
 40
0.5169811320754717
 40
0.5207547169811321
 40
0.5207547169811321
 40
0.5207547169811321
 40
0.5207547169811321
 40
0.5245283018867924
 40
0.5245283018867924
 40
0.5245283018867924
 40
0.5245283018867924
 40
0.5283018867924528
 40
0.5283018867924528
 40
0.5283018867924528
 40
0.5283018867924528
 40
0.5320754716981132
 40
0.5320754716981132
 40
0.5320754716981132
 40
0.5320754716981132
 40
0.5358490566037736
 40
0.5358490566037736
 40
0.5358490566037736
 40
0.5358490566037736
 40
0.539622641509434
 40
0.539622641509434
 40
0.539622641509434
 40
0.539622641509434
 40
0.5433962264150943
 40
0.5433962264150943
 40
0.5433962264150943
 40
0.5433962264150943
 40
0.5471698113207547
 40
0.5471698113207547
 40
0.5471698113207547
 40
0.5471698113207547
 40
0.5509433962264151
 40
0.5509433962264151
 40
0.5509433962264151
 40
0.5509433962264151
 40
0.5547169811320755
 40
0.5547169811320755
 40
0.5547169811320755
 40
0.5547169811320755
 40
0.5584905660377358
 40
0.5584905660377358
 40
0.5584905660377358
 40
0.5584905660377358
 40
0.5622641509433962
 40
0.5622641509433962
 40
0.5622641509433962
 40
0.5622641509433962
 40
0.5660377358490566
 40
0.5660377358490566
 40
0.5660377358490566
 40
0.5660377358490566
 40
0.569811320754717
 40
0.569811320754717
 40
0.569811320754717
 40
0.569811320754717
 40
0.5735849056603773
 40
0.5735849056603773
 40
0.5735849056603773
 40
0.5735849056603773
 40
0.5773584905660377
 40
0.5773584905660377
 40
0.5773584905660377
 40
0.5773584905660377
 40
0.5811320754716981
 40
0.5811320754716981
 40
0.5811320754716981
 40
0.5811320754716981
 40
0.5849056603773585
 40
0.5849056603773585
 40
0.5849056603773585
 40
0.5849056603773585
 40
0.5886792452830188
 40
0.5886792452830188
 40
0.5886792452830188
 40
0.5886792452830188
 40
0.5924528301886792
 40
0.5924528301886792
 40
0.5924528301886792
 40
0.5924528301886792
 40
0.5962264150943396
 40
0.5962264150943396
 40
0.5962264150943396
 40
0.5962264150943396
 40
0.6
 40
0.6
 40
0.6
 40
0.6
 40
0.6037735849056604
 40
0.6037735849056604
 40
0.6037735849056604
 40
0.6037735849056604
 40
0.6075471698113207
 40
0.6075471698113207
 40
0.6075471698113207
 40
0.6075471698113207
 40
0.6113207547169811
 40
0.6113207547169811
 40
0.6113207547169811
 40
0.6113207547169811
 40
0.6150943396226415
 40
0.6150943396226415
 40
0.6150943396226415
 40
0.6150943396226415
 40
0.6188679245283019
 40
0.6188679245283019
 40
0.6188679245283019
 40
0.6188679245283019
 40
0.6226415094339622
 40
0.6226415094339622
 40
0.6226415094339622
 40
0.6226415094339622
 40
0.6264150943396226
 40
0.6264150943396226
 40
0.6264150943396226
 40
0.6264150943396226
 40
0.630188679245283
 40
0.630188679245283
 40
0.630188679245283
 40
0.630188679245283
 40
0.6339622641509434
 40
0.6339622641509434
 40
0.6339622641509434
 40
0.6339622641509434
 40
0.6377358490566037
 40
0.6377358490566037
 40
0.6377358490566037
 40
0.6377358490566037
 40
0.6415094339622641
 40
0.6415094339622641
 40
0.6415094339622641
 40
0.6415094339622641
 40
0.6452830188679245
 40
0.6452830188679245
 40
0.6452830188679245
 40
0.6452830188679245
 40
0.6490566037735849
 40
0.6490566037735849
 40
0.6490566037735849
 40
0.6490566037735849
 40
0.6528301886792452
 40
0.6528301886792452
 40
0.6528301886792452
 40
0.6528301886792452
 40
0.6566037735849056
 40
0.6566037735849056
 40
0.6566037735849056
 40
0.6566037735849056
 40
0.660377358490566
 40
0.660377358490566
 40
0.660377358490566
 40
0.660377358490566
 40
0.6641509433962264
 40
0.6641509433962264
 40
0.6641509433962264
 40
0.6641509433962264
 40
0.6679245283018868
 40
0.6679245283018868
 40
0.6679245283018868
 40
0.6679245283018868
 40
0.6716981132075471
 40
0.6716981132075471
 40
0.6716981132075471
 40
0.6716981132075471
 40
0.6754716981132075
 40
0.6754716981132075
 40
0.6754716981132075
 40
0.6754716981132075
 40
0.6792452830188679
 40
0.6792452830188679
 40
0.6792452830188679
 40
0.6792452830188679
 40
0.6830188679245283
 40
0.6830188679245283
 40
0.6830188679245283
 40
0.6830188679245283
 40
0.6867924528301886
 40
0.6867924528301886
 40
0.6867924528301886
 40
0.6867924528301886
 40
0.690566037735849
 40
0.690566037735849
 40
0.690566037735849
 40
0.690566037735849
 40
0.6943396226415094
 40
0.6943396226415094
 40
0.6943396226415094
 40
0.6943396226415094
 40
0.6981132075471698
 40
0.6981132075471698
 40
0.6981132075471698
 40
0.6981132075471698
 40
0.7018867924528301
 40
0.7018867924528301
 40
0.7018867924528301
 40
0.7018867924528301
 40
0.7056603773584905
 40
0.7056603773584905
 40
0.7056603773584905
 40
0.7056603773584905
 40
0.7094339622641509
 40
0.7094339622641509
 40
0.7094339622641509
 40
0.7094339622641509
 40
0.7132075471698113
 40
0.7132075471698113
 40
0.7132075471698113
 40
0.7132075471698113
 40
0.7169811320754716
 40
0.7169811320754716
 40
0.7169811320754716
 40
0.7169811320754716
 40
0.720754716981132
 40
0.720754716981132
 40
0.720754716981132
 40
0.720754716981132
 40
0.7245283018867924
 40
0.7245283018867924
 40
0.7245283018867924
 40
0.7245283018867924
 40
0.7283018867924528
 40
0.7283018867924528
 40
0.7283018867924528
 40
0.7283018867924528
 40
0.7320754716981132
 40
0.7320754716981132
 40
0.7320754716981132
 40
0.7320754716981132
 40
0.7358490566037735
 40
0.7358490566037735
 40
0.7358490566037735
 40
0.7358490566037735
 40
0.7396226415094339
 40
0.7396226415094339
 40
0.7396226415094339
 40
0.7396226415094339
 40
0.7433962264150943
 40
0.7433962264150943
 40
0.7433962264150943
 40
0.7433962264150943
 40
0.7471698113207547
 40
0.7471698113207547
 40
0.7471698113207547
 40
0.7471698113207547
 40
0.7509433962264151
 40
0.7509433962264151
 40
0.7509433962264151
 40
0.7509433962264151
 40
0.7547169811320755
 40
0.7547169811320755
 40
0.7547169811320755
 40
0.7547169811320755
 40
0.7584905660377359
 40
0.7584905660377359
 40
0.7584905660377359
 40
0.7584905660377359
 40
0.7622641509433963
 40
0.7622641509433963
 40
0.7622641509433963
 40
0.7622641509433963
 40
0.7660377358490567
 40
0.7660377358490567
 40
0.7660377358490567
 40
0.7660377358490567
 40
0.769811320754717
 40
0.769811320754717
 40
0.769811320754717
 40
0.769811320754717
 40
0.7735849056603774
 40
0.7735849056603774
 40
0.7735849056603774
 40
0.7735849056603774
 40
0.7773584905660378
 40
0.7773584905660378
 40
0.7773584905660378
 40
0.7773584905660378
 40
0.7811320754716982
 40
0.7811320754716982
 40
0.7811320754716982
 40
0.7811320754716982
 40
0.7849056603773585
 40
0.7849056603773585
 40
0.7849056603773585
 40
0.7849056603773585
 40
0.7886792452830189
 40
0.7886792452830189
 40
0.7886792452830189
 40
0.7886792452830189
 40
0.7924528301886793
 40
0.7924528301886793
 40
0.7924528301886793
 40
0.7924528301886793
 40
0.7962264150943397
 40
0.7962264150943397
 40
0.7962264150943397
 40
0.7962264150943397
 40
0.8
 40
0.8
 40
0.8
 40
0.8
 40
0.8037735849056604
 40
0.8037735849056604
 40
0.8037735849056604
 40
0.8037735849056604
 40
0.8075471698113208
 40
0.8075471698113208
 40
0.8075471698113208
 40
0.8075471698113208
 40
0.8113207547169812
 40
0.8113207547169812
 40
0.8113207547169812
 40
0.8113207547169812
 40
0.8150943396226416
 40
0.8150943396226416
 40
0.8150943396226416
 40
0.8150943396226416
 40
0.8188679245283019
 40
0.8188679245283019
 40
0.8188679245283019
 40
0.8188679245283019
 40
0.8226415094339623
 40
0.8226415094339623
 40
0.8226415094339623
 40
0.8226415094339623
 40
0.8264150943396227
 40
0.8264150943396227
 40
0.8264150943396227
 40
0.8264150943396227
 40
0.8301886792452831
 40
0.8301886792452831
 40
0.8301886792452831
 40
0.8301886792452831
 40
0.8339622641509434
 40
0.8339622641509434
 40
0.8339622641509434
 40
0.8339622641509434
 40
0.8377358490566038
 40
0.8377358490566038
 40
0.8377358490566038
 40
0.8377358490566038
 40
0.8415094339622642
 40
0.8415094339622642
 40
0.8415094339622642
 40
0.8415094339622642
 40
0.8452830188679246
 40
0.8452830188679246
 40
0.8452830188679246
 40
0.8452830188679246
 40
0.8490566037735849
 40
0.8490566037735849
 40
0.8490566037735849
 40
0.8490566037735849
 40
0.8528301886792453
 40
0.8528301886792453
 40
0.8528301886792453
 40
0.8528301886792453
 40
0.8566037735849057
 40
0.8566037735849057
 40
0.8566037735849057
 40
0.8566037735849057
 40
0.8603773584905661
 40
0.8603773584905661
 40
0.8603773584905661
 40
0.8603773584905661
 40
0.8641509433962264
 40
0.8641509433962264
 40
0.8641509433962264
 40
0.8641509433962264
 40
0.8679245283018868
 40
0.8679245283018868
 40
0.8679245283018868
 40
0.8679245283018868
 40
0.8716981132075472
 40
0.8716981132075472
 40
0.8716981132075472
 40
0.8716981132075472
 40
0.8754716981132076
 40
0.8754716981132076
 40
0.8754716981132076
 40
0.8754716981132076
 40
0.879245283018868
 40
0.879245283018868
 40
0.879245283018868
 40
0.879245283018868
 40
0.8830188679245283
 40
0.8830188679245283
 40
0.8830188679245283
 40
0.8830188679245283
 40
0.8867924528301887
 40
0.8867924528301887
 40
0.8867924528301887
 40
0.8867924528301887
 40
0.8905660377358491
 40
0.8905660377358491
 40
0.8905660377358491
 40
0.8905660377358491
 40
0.8943396226415095
 40
0.8943396226415095
 40
0.8943396226415095
 40
0.8943396226415095
 40
0.8981132075471698
 40
0.8981132075471698
 40
0.8981132075471698
 40
0.8981132075471698
 40
0.9018867924528302
 40
0.9018867924528302
 40
0.9018867924528302
 40
0.9018867924528302
 40
0.9056603773584906
 40
0.9056603773584906
 40
0.9056603773584906
 40
0.9056603773584906
 40
0.909433962264151
 40
0.909433962264151
 40
0.909433962264151
 40
0.909433962264151
 40
0.9132075471698113
 40
0.9132075471698113
 40
0.9132075471698113
 40
0.9132075471698113
 40
0.9169811320754717
 40
0.9169811320754717
 40
0.9169811320754717
 40
0.9169811320754717
 40
0.9207547169811321
 40
0.9207547169811321
 40
0.9207547169811321
 40
0.9207547169811321
 40
0.9245283018867925
 40
0.9245283018867925
 40
0.9245283018867925
 40
0.9245283018867925
 40
0.9283018867924528
 40
0.9283018867924528
 40
0.9283018867924528
 40
0.9283018867924528
 40
0.9320754716981132
 40
0.9320754716981132
 40
0.9320754716981132
 40
0.9320754716981132
 40
0.9358490566037736
 40
0.9358490566037736
 40
0.9358490566037736
 40
0.9358490566037736
 40
0.939622641509434
 40
0.939622641509434
 40
0.939622641509434
 40
0.939622641509434
 40
0.9433962264150944
 40
0.9433962264150944
 40
0.9433962264150944
 40
0.9433962264150944
 40
0.9471698113207547
 40
0.9471698113207547
 40
0.9471698113207547
 40
0.9471698113207547
 40
0.9509433962264151
 40
0.9509433962264151
 40
0.9509433962264151
 40
0.9509433962264151
 40
0.9547169811320755
 40
0.9547169811320755
 40
0.9547169811320755
 40
0.9547169811320755
 40
0.9584905660377359
 40
0.9584905660377359
 40
0.9584905660377359
 40
0.9584905660377359
 40
0.9622641509433962
 40
0.9622641509433962
 40
0.9622641509433962
 40
0.9622641509433962
 40
0.9660377358490566
 40
0.9660377358490566
 40
0.9660377358490566
 40
0.9660377358490566
 40
0.969811320754717
 40
0.969811320754717
 40
0.969811320754717
 40
0.969811320754717
 40
0.9735849056603774
 40
0.9735849056603774
 40
0.9735849056603774
 40
0.9735849056603774
 40
0.9773584905660377
 40
0.9773584905660377
 40
0.9773584905660377
 40
0.9773584905660377
 40
0.9811320754716981
 40
0.9811320754716981
 40
0.9811320754716981
 40
0.9811320754716981
 40
0.9849056603773585
 40
0.9849056603773585
 40
0.9849056603773585
 40
0.9849056603773585
 40
0.9886792452830189
 40
0.9886792452830189
 40
0.9886792452830189
 40
0.9886792452830189
 40
0.9924528301886792
 40
0.9924528301886792
 40
0.9924528301886792
 40
0.9924528301886792
 40
1.0
 40
1.0
 40
1.0
 40
1.0
 10
5.31741
 20
1.91135
 30
0.0
 10
5.48674
 20
1.98225
 30
0.0
 10
5.67513
 20
1.98191
 30
0.0
 10
5.85576
 20
1.97414
 30
0.0
 10
5.85576
 20
1.97414
 30
0.0
 10
5.95136
 20
1.96744
 30
0.0
 10
6.06812
 20
1.94239
 30
0.0
 10
6.11116
 20
1.84467
 30
0.0
 10
6.11116
 20
1.84467
 30
0.0
 10
6.14997
 20
1.72261
 30
0.0
 10
6.08753
 20
1.6016
 30
0.0
 10
6.06283
 20
1.48342
 30
0.0
 10
6.06283
 20
1.48342
 30
0.0
 10
6.02156
 20
1.29046
 30
0.0
 10
5.95948
 20
1.10348
 30
0.0
 10
5.90902
 20
0.91298
 30
0.0
 10
5.90902
 20
0.91298
 30
0.0
 10
6.1027
 20
0.94156
 30
0.0
 10
6.29143
 20
1.0354
 30
0.0
 10
6.4904
 20
0.99764
 30
0.0
 10
6.4904
 20
0.99764
 30
0.0
 10
6.62164
 20
0.9779
 30
0.0
 10
6.77403
 20
0.94262
 30
0.0
 10
6.84035
 20
0.81385
 30
0.0
 10
6.84035
 20
0.81385
 30
0.0
 10
6.92572
 20
0.65229
 30
0.0
 10
6.85977
 20
0.46777
 30
0.0
 10
6.81143
 20
0.30551
 30
0.0
 10
6.81143
 20
0.30551
 30
0.0
 10
6.73276
 20
0.06738
 30
0.0
 10
6.62939
 20
-0.16262
 30
0.0
 10
6.57331
 20
-0.40781
 30
0.0
 10
6.57331
 20
-0.40781
 30
0.0
 10
6.70947
 20
-0.41134
 30
0.0
 10
6.84281
 20
-0.38028
 30
0.0
 10
6.97723
 20
-0.36264
 30
0.0
 10
6.97723
 20
-0.36264
 30
0.0
 10
7.00475
 20
-0.06879
 30
0.0
 10
7.02875
 20
0.24058
 30
0.0
 10
7.19278
 20
0.49635
 30
0.0
 10
7.19278
 20
0.49635
 30
0.0
 10
7.37376
 20
0.77045
 30
0.0
 10
7.66514
 20
1.00612
 30
0.0
 10
8.00734
 20
1.00999
 30
0.0
 10
8.00734
 20
1.00999
 30
0.0
 10
8.17174
 20
1.02517
 30
0.0
 10
8.31003
 20
0.91827
 30
0.0
 10
8.46842
 20
0.89782
 30
0.0
 10
8.46842
 20
0.89782
 30
0.0
 10
8.53369
 20
1.08055
 30
0.0
 10
8.60848
 20
1.26259
 30
0.0
 10
8.63847
 20
1.45555
 30
0.0
 10
8.63847
 20
1.45555
 30
0.0
 10
8.56085
 20
1.46967
 30
0.0
 10
8.46737
 20
1.46755
 30
0.0
 10
8.4148
 20
1.5367
 30
0.0
 10
8.4148
 20
1.5367
 30
0.0
 10
8.39893
 20
1.64007
 30
0.0
 10
8.40386
 20
1.77058
 30
0.0
 10
8.49383
 20
1.84009
 30
0.0
 10
8.49383
 20
1.84009
 30
0.0
 10
8.65786
 20
1.93428
 30
0.0
 10
8.85048
 20
1.86231
 30
0.0
 10
9.02053
 20
1.82457
 30
0.0
 10
9.02053
 20
1.82457
 30
0.0
 10
9.14646
 20
1.80057
 30
0.0
 10
9.26429
 20
1.71555
 30
0.0
 10
9.29534
 20
1.58574
 30
0.0
 10
9.29534
 20
1.58574
 30
0.0
 10
9.2904
 20
1.51448
 30
0.0
 10
9.26112
 20
1.44744
 30
0.0
 10
9.23854
 20
1.38007
 30
0.0
 10
9.23854
 20
1.38007
 30
0.0
 10
9.09002
 20
0.98565
 30
0.0
 10
8.98207
 20
0.57784
 30
0.0
 10
8.85647
 20
0.17568
 30
0.0
 10
8.85647
 20
0.17568
 30
0.0
 10
8.80921
 20
0.01128
 30
0.0
 10
8.74642
 20
-0.14887
 30
0.0
 10
8.71361
 20
-0.3175
 30
0.0
 10
8.71361
 20
-0.3175
 30
0.0
 10
8.78733
 20
-0.32597
 30
0.0
 10
8.86107
 20
-0.33231
 30
0.0
 10
8.93514
 20
-0.33972
 30
0.0
 10
8.93514
 20
-0.33972
 30
0.0
 10
8.99653
 20
-0.23001
 30
0.0
 10
9.02158
 20
-0.10125
 30
0.0
 10
9.10271
 20
-0.00282
 30
0.0
 10
9.10271
 20
-0.00282
 30
0.0
 10
9.20326
 20
0.12242
 30
0.0
 10
9.33696
 20
0.22119
 30
0.0
 10
9.48619
 20
0.2801
 30
0.0
 10
9.48619
 20
0.2801
 30
0.0
 10
9.71303
 20
0.38028
 30
0.0
 10
9.96914
 20
0.32702
 30
0.0
 10
10.20514
 20
0.38452
 30
0.0
 10
10.20514
 20
0.38452
 30
0.0
 10
10.35931
 20
0.43497
 30
0.0
 10
10.44997
 20
0.62864
 30
0.0
 10
10.37059
 20
0.77435
 30
0.0
 10
10.37059
 20
0.77435
 30
0.0
 10
10.30746
 20
0.84137
 30
0.0
 10
10.1988
 20
0.85831
 30
0.0
 10
10.1166
 20
0.8202
 30
0.0
 10
10.1166
 20
0.8202
 30
0.0
 10
10.08027
 20
0.78422
 30
0.0
 10
10.05099
 20
0.74224
 30
0.0
 10
10.01854
 20
0.70309
 30
0.0
 10
10.01854
 20
0.70309
 30
0.0
 10
9.92823
 20
0.57221
 30
0.0
 10
9.73454
 20
0.59655
 30
0.0
 10
9.60542
 20
0.64593
 30
0.0
 10
9.60542
 20
0.64593
 30
0.0
 10
9.49888
 20
0.68686
 30
0.0
 10
9.53698
 20
0.82444
 30
0.0
 10
9.58074
 20
0.90063
 30
0.0
 10
9.58074
 20
0.90063
 30
0.0
 10
9.70421
 20
1.15217
 30
0.0
 10
10.0023
 20
1.25694
 30
0.0
 10
10.26724
 20
1.24953
 30
0.0
 10
10.26724
 20
1.24953
 30
0.0
 10
10.47326
 20
1.24037
 30
0.0
 10
10.6874
 20
1.17792
 30
0.0
 10
10.84085
 20
1.03433
 30
0.0
 10
10.84085
 20
1.03433
 30
0.0
 10
10.97562
 20
0.88265
 30
0.0
 10
11.06805
 20
0.67274
 30
0.0
 10
11.02713
 20
0.46743
 30
0.0
 10
11.02713
 20
0.46743
 30
0.0
 10
10.98408
 20
0.20884
 30
0.0
 10
10.86202
 20
-0.02504
 30
0.0
 10
10.77948
 20
-0.27128
 30
0.0
 10
10.77948
 20
-0.27128
 30
0.0
 10
10.9601
 20
-0.26105
 30
0.0
 10
11.15625
 20
-0.20002
 30
0.0
 10
11.27583
 20
-0.05749
 30
0.0
 10
11.27583
 20
-0.05749
 30
0.0
 10
11.37391
 20
0.13441
 30
0.0
 10
11.45151
 20
0.3376
 30
0.0
 10
11.52877
 20
0.53903
 30
0.0
 10
11.52877
 20
0.53903
 30
0.0
 10
11.44834
 20
0.57467
 30
0.0
 10
11.32382
 20
0.58242
 30
0.0
 10
11.3037
 20
0.68686
 30
0.0
 10
11.3037
 20
0.68686
 30
0.0
 10
11.27125
 20
0.7888
 30
0.0
 10
11.26067
 20
0.96767
 30
0.0
 10
11.40037
 20
0.98636
 30
0.0
 10
11.40037
 20
0.98636
 30
0.0
 10
11.53759
 20
1.01564
 30
0.0
 10
11.6794
 20
0.99942
 30
0.0
 10
11.81876
 20
0.99905
 30
0.0
 10
11.81876
 20
0.99905
 30
0.0
 10
11.91083
 20
0.99201
 30
0.0
 10
12.0276
 20
0.98848
 30
0.0
 10
12.07947
 20
0.89746
 30
0.0
 10
12.07947
 20
0.89746
 30
0.0
 10
12.11333
 20
0.76694
 30
0.0
 10
12.02443
 20
0.64769
 30
0.0
 10
11.9902
 20
0.5267
 30
0.0
 10
11.9902
 20
0.5267
 30
0.0
 10
11.90201
 20
0.26423
 30
0.0
 10
11.7789
 20
-0.0007
 30
0.0
 10
11.80076
 20
-0.28363
 30
0.0
 10
11.80076
 20
-0.28363
 30
0.0
 10
12.00291
 20
-0.40111
 30
0.0
 10
12.22445
 20
-0.22754
 30
0.0
 10
12.35287
 20
-0.0762
 30
0.0
 10
12.35287
 20
-0.0762
 30
0.0
 10
12.47352
 20
0.11818
 30
0.0
 10
12.52677
 20
0.35031
 30
0.0
 10
12.55218
 20
0.57608
 30
0.0
 10
12.55218
 20
0.57608
 30
0.0
 10
12.48762
 20
0.60077
 30
0.0
 10
12.42306
 20
0.62547
 30
0.0
 10
12.35957
 20
0.65158
 30
0.0
 10
12.35957
 20
0.65158
 30
0.0
 10
12.3585
 20
0.75282
 30
0.0
 10
12.33699
 20
0.87312
 30
0.0
 10
12.41319
 20
0.95391
 30
0.0
 10
12.41319
 20
0.95391
 30
0.0
 10
12.50102
 20
0.99589
 30
0.0
 10
12.60403
 20
0.97542
 30
0.0
 10
12.69893
 20
0.9839
 30
0.0
 10
12.69893
 20
0.9839
 30
0.0
 10
12.88345
 20
0.98212
 30
0.0
 10
13.06653
 20
1.03011
 30
0.0
 10
13.25104
 20
1.01318
 30
0.0
 10
13.25104
 20
1.01318
 30
0.0
 10
13.31277
 20
0.9726
 30
0.0
 10
13.32089
 20
0.88935
 30
0.0
 10
13.29477
 20
0.82479
 30
0.0
 10
13.29477
 20
0.82479
 30
0.0
 10
13.1893
 20
0.45614
 30
0.0
 10
13.08206
 20
0.08784
 30
0.0
 10
12.97622
 20
-0.28117
 30
0.0
 10
12.97622
 20
-0.28117
 30
0.0
 10
12.85027
 20
-0.69461
 30
0.0
 10
12.76419
 20
-1.12642
 30
0.0
 10
12.54724
 20
-1.506
 30
0.0
 10
12.54724
 20
-1.506
 30
0.0
 10
12.32923
 20
-1.96849
 30
0.0
 10
11.68259
 20
-2.18722
 30
0.0
 10
11.24162
 20
-1.91593
 30
0.0
 10
11.24162
 20
-1.91593
 30
0.0
 10
11.01514
 20
-1.78752
 30
0.0
 10
10.98868
 20
-1.4545
 30
0.0
 10
11.13508
 20
-1.2573
 30
0.0
 10
11.13508
 20
-1.2573
 30
0.0
 10
11.24902
 20
-1.12888
 30
0.0
 10
11.44905
 20
-1.17968
 30
0.0
 10
11.57216
 20
-1.26787
 30
0.0
 10
11.57216
 20
-1.26787
 30
0.0
 10
11.65506
 20
-1.32186
 30
0.0
 10
11.62156
 20
-1.43121
 30
0.0
 10
11.63284
 20
-1.51411
 30
0.0
 10
11.63284
 20
-1.51411
 30
0.0
 10
11.62156
 20
-1.59103
 30
0.0
 10
11.72457
 20
-1.61183
 30
0.0
 10
11.78031
 20
-1.59173
 30
0.0
 10
11.78031
 20
-1.59173
 30
0.0
 10
11.94011
 20
-1.55081
 30
0.0
 10
12.02796
 20
-1.39946
 30
0.0
 10
12.09462
 20
-1.26152
 30
0.0
 10
12.09462
 20
-1.26152
 30
0.0
 10
12.1814
 20
-1.07421
 30
0.0
 10
12.26925
 20
-0.88299
 30
0.0
 10
12.29854
 20
-0.67663
 30
0.0
 10
12.29854
 20
-0.67663
 30
0.0
 10
12.1927
 20
-0.68545
 30
0.0
 10
12.13097
 20
-0.77893
 30
0.0
 10
12.04595
 20
-0.82902
 30
0.0
 10
12.04595
 20
-0.82902
 30
0.0
 10
11.89743
 20
-0.9218
 30
0.0
 10
11.70834
 20
-0.95673
 30
0.0
 10
11.53795
 20
-0.91651
 30
0.0
 10
11.53795
 20
-0.91651
 30
0.0
 10
11.39613
 20
-0.88194
 30
0.0
 10
11.30194
 20
-0.76234
 30
0.0
 10
11.23244
 20
-0.6424
 30
0.0
 10
11.23244
 20
-0.6424
 30
0.0
 10
10.9661
 20
-0.66815
 30
0.0
 10
10.73219
 20
-0.81667
 30
0.0
 10
10.47255
 20
-0.86959
 30
0.0
 10
10.47255
 20
-0.86959
 30
0.0
 10
10.31804
 20
-0.90628
 30
0.0
 10
10.18292
 20
-0.74259
 30
0.0
 10
10.03158
 20
-0.81455
 30
0.0
 10
10.03158
 20
-0.81455
 30
0.0
 10
9.81039
 20
-0.88935
 30
0.0
 10
9.56592
 20
-0.92991
 30
0.0
 10
9.33908
 20
-0.85583
 30
0.0
 10
9.33908
 20
-0.85583
 30
0.0
 10
9.25971
 20
-0.83609
 30
0.0
 10
9.18739
 20
-0.78668
 30
0.0
 10
9.10483
 20
-0.78387
 30
0.0
 10
9.10483
 20
-0.78387
 30
0.0
 10
8.85754
 20
-0.82337
 30
0.0
 10
8.62012
 20
-0.96343
 30
0.0
 10
8.364
 20
-0.92638
 30
0.0
 10
8.364
 20
-0.92638
 30
0.0
 10
8.22571
 20
-0.90874
 30
0.0
 10
8.16186
 20
-0.75742
 30
0.0
 10
8.04615
 20
-0.71225
 30
0.0
 10
8.04615
 20
-0.71225
 30
0.0
 10
7.94066
 20
-0.78387
 30
0.0
 10
7.84542
 20
-0.87665
 30
0.0
 10
7.71842
 20
-0.90945
 30
0.0
 10
7.71842
 20
-0.90945
 30
0.0
 10
7.50992
 20
-0.98036
 30
0.0
 10
7.28661
 20
-0.91122
 30
0.0
 10
7.1074
 20
-0.79869
 30
0.0
 10
7.1074
 20
-0.79869
 30
0.0
 10
6.92643
 20
-0.76305
 30
0.0
 10
6.7377
 20
-0.8195
 30
0.0
 10
6.56836
 20
-0.88511
 30
0.0
 10
6.56836
 20
-0.88511
 30
0.0
 10
6.40115
 20
-0.9458
 30
0.0
 10
6.20006
 20
-0.96908
 30
0.0
 10
6.04343
 20
-0.86783
 30
0.0
 10
6.04343
 20
-0.86783
 30
0.0
 10
5.92842
 20
-0.80398
 30
0.0
 10
5.88856
 20
-0.65829
 30
0.0
 10
5.90196
 20
-0.53516
 30
0.0
 10
5.90196
 20
-0.53516
 30
0.0
 10
5.93865
 20
-0.22718
 30
0.0
 10
6.08471
 20
0.05115
 30
0.0
 10
6.18771
 20
0.33972
 30
0.0
 10
6.18771
 20
0.33972
 30
0.0
 10
6.20572
 20
0.38876
 30
0.0
 10
6.20218
 20
0.44167
 30
0.0
 10
6.20465
 20
0.49247
 30
0.0
 10
6.20465
 20
0.49247
 30
0.0
 10
6.06707
 20
0.5334
 30
0.0
 10
5.92101
 20
0.48436
 30
0.0
 10
5.81871
 20
0.38876
 30
0.0
 10
5.81871
 20
0.38876
 30
0.0
 10
5.69453
 20
0.27023
 30
0.0
 10
5.61199
 20
0.11535
 30
0.0
 10
5.54989
 20
-0.04304
 30
0.0
 10
5.54989
 20
-0.04304
 30
0.0
 10
5.49804
 20
-0.18097
 30
0.0
 10
5.42678
 20
-0.31855
 30
0.0
 10
5.43947
 20
-0.47096
 30
0.0
 10
5.43947
 20
-0.47096
 30
0.0
 10
5.51074
 20
-0.49742
 30
0.0
 10
5.62397
 20
-0.51082
 30
0.0
 10
5.63068
 20
-0.60678
 30
0.0
 10
5.63068
 20
-0.60678
 30
0.0
 10
5.63703
 20
-0.70801
 30
0.0
 10
5.59647
 20
-0.83996
 30
0.0
 10
5.48462
 20
-0.86465
 30
0.0
 10
5.48462
 20
-0.86465
 30
0.0
 10
5.29342
 20
-0.90628
 30
0.0
 10
5.09656
 20
-0.87948
 30
0.0
 10
4.90326
 20
-0.89005
 30
0.0
 10
4.90326
 20
-0.89005
 30
0.0
 10
4.65632
 20
-0.90275
 30
0.0
 10
4.40477
 20
-0.85865
 30
0.0
 10
4.16207
 20
-0.92216
 30
0.0
 10
4.16207
 20
-0.92216
 30
0.0
 10
4.00507
 20
-0.95815
 30
0.0
 10
3.81987
 20
-0.9338
 30
0.0
 10
3.70733
 20
-0.80963
 30
0.0
 10
3.70733
 20
-0.80963
 30
0.0
 10
3.61385
 20
-0.69249
 30
0.0
 10
3.59409
 20
-0.52951
 30
0.0
 10
3.63677
 20
-0.3884
 30
0.0
 10
3.63677
 20
-0.3884
 30
0.0
 10
3.70099
 20
-0.14958
 30
0.0
 10
3.76907
 20
0.0889
 30
0.0
 10
3.8555
 20
0.32066
 30
0.0
 10
3.8555
 20
0.32066
 30
0.0
 10
3.89431
 20
0.40393
 30
0.0
 10
3.85197
 20
0.54186
 30
0.0
 10
3.74015
 20
0.50729
 30
0.0
 10
3.74015
 20
0.50729
 30
0.0
 10
3.60432
 20
0.46284
 30
0.0
 10
3.53342
 20
0.31644
 30
0.0
 10
3.40359
 20
0.25893
 30
0.0
 10
3.40359
 20
0.25893
 30
0.0
 10
3.32916
 20
0.21271
 30
0.0
 10
3.23708
 20
0.23424
 30
0.0
 10
3.16512
 20
0.2734
 30
0.0
 10
3.16512
 20
0.2734
 30
0.0
 10
3.08963
 20
0.31679
 30
0.0
 10
3.07304
 20
0.41768
 30
0.0
 10
3.00073
 20
0.46248
 30
0.0
 10
3.00073
 20
0.46248
 30
0.0
 10
2.73368
 20
0.242
 30
0.0
 10
2.66912
 20
-0.11852
 30
0.0
 10
2.57951
 20
-0.43427
 30
0.0
 10
2.57951
 20
-0.43427
 30
0.0
 10
2.64089
 20
-0.46073
 30
0.0
 10
2.70968
 20
-0.47766
 30
0.0
 10
2.76224
 20
-0.5221
 30
0.0
 10
2.76224
 20
-0.5221
 30
0.0
 10
2.79717
 20
-0.61841
 30
0.0
 10
2.75061
 20
-0.71825
 30
0.0
 10
2.71003
 20
-0.80503
 30
0.0
 10
2.71003
 20
-0.80503
 30
0.0
 10
2.67899
 20
-0.88723
 30
0.0
 10
2.57844
 20
-0.88053
 30
0.0
 10
2.50684
 20
-0.88759
 30
0.0
 10
2.50684
 20
-0.88759
 30
0.0
 10
2.17769
 20
-0.89288
 30
0.0
 10
1.84784
 20
-0.90134
 30
0.0
 10
1.51977
 20
-0.87595
 30
0.0
 10
1.51977
 20
-0.87595
 30
0.0
 10
1.39805
 20
-0.87029
 30
0.0
 10
1.27105
 20
-0.81492
 30
0.0
 10
1.15393
 20
-0.86995
 30
0.0
 10
1.15393
 20
-0.86995
 30
0.0
 10
1.00012
 20
-0.93027
 30
0.0
 10
0.81845
 20
-0.97472
 30
0.0
 10
0.66533
 20
-0.88759
 30
0.0
 10
0.66533
 20
-0.88759
 30
0.0
 10
0.53021
 20
-0.82902
 30
0.0
 10
0.44944
 20
-0.67132
 30
0.0
 10
0.48648
 20
-0.52775
 30
0.0
 10
0.48648
 20
-0.52775
 30
0.0
 10
0.54997
 20
-0.26353
 30
0.0
 10
0.63746
 20
-0.00494
 30
0.0
 10
0.73447
 20
0.2487
 30
0.0
 10
0.73447
 20
0.2487
 30
0.0
 10
0.76799
 20
0.33126
 30
0.0
 10
0.76834
 20
0.42121
 30
0.0
 10
0.76763
 20
0.5087
 30
0.0
 10
0.76763
 20
0.5087
 30
0.0
 10
0.62971
 20
0.54434
 30
0.0
 10
0.49106
 20
0.58032
 30
0.0
 10
0.36054
 20
0.63923
 30
0.0
 10
0.36054
 20
0.63923
 30
0.0
 10
0.21519
 20
0.70343
 30
0.0
 10
0.07338
 20
0.59796
 30
0.0
 10
-0.06068
 20
0.55209
 30
0.0
 10
-0.06068
 20
0.55209
 30
0.0
 10
0.10688
 20
0.48472
 30
0.0
 10
0.2674
 20
0.36264
 30
0.0
 10
0.31574
 20
0.18026
 30
0.0
 10
0.31574
 20
0.18026
 30
0.0
 10
0.37641
 20
-0.07479
 30
0.0
 10
0.34149
 20
-0.37818
 30
0.0
 10
0.14464
 20
-0.56797
 30
0.0
 10
0.14464
 20
-0.56797
 30
0.0
 10
-0.09983
 20
-0.80081
 30
0.0
 10
-0.44662
 20
-0.87948
 30
0.0
 10
-0.77505
 20
-0.88652
 30
0.0
 10
-0.77505
 20
-0.88652
 30
0.0
 10
-1.34408
 20
-0.89217
 30
0.0
 10
-1.91347
 20
-0.87806
 30
0.0
 10
-2.48214
 20
-0.90134
 30
0.0
 10
-2.48214
 20
-0.90134
 30
0.0
 10
-2.58938
 20
-1.16204
 30
0.0
 10
-2.67017
 20
-1.44215
 30
0.0
 10
-2.85184
 20
-1.66404
 30
0.0
 10
-2.85184
 20
-1.66404
 30
0.0
 10
-3.05011
 20
-1.88136
 30
0.0
 10
-3.33691
 20
-2.02388
 30
0.0
 10
-3.63395
 20
-2.01999
 30
0.0
 10
-3.63395
 20
-2.01999
 30
0.0
 10
-3.80012
 20
-2.00871
 30
0.0
 10
-3.97968
 20
-1.96778
 30
0.0
 10
-4.09504
 20
-1.83832
 30
0.0
 10
-4.09504
 20
-1.83832
 30
0.0
 10
-4.24673
 20
-1.6764
 30
0.0
 10
-4.2672
 20
-1.40263
 30
0.0
 10
-4.13948
 20
-1.22166
 30
0.0
 10
-4.13948
 20
-1.22166
 30
0.0
 10
-4.02201
 20
-1.07385
 30
0.0
 10
-3.79976
 20
-1.13875
 30
0.0
 10
-3.67276
 20
-1.23754
 30
0.0
 10
-3.67276
 20
-1.23754
 30
0.0
 10
-3.59233
 20
-1.35078
 30
0.0
 10
-3.69005
 20
-1.47708
 30
0.0
 10
-3.70874
 20
-1.59419
 30
0.0
 10
-3.70874
 20
-1.59419
 30
0.0
 10
-3.50448
 20
-1.61571
 30
0.0
 10
-3.30234
 20
-1.48132
 30
0.0
 10
-3.21486
 20
-1.29962
 30
0.0
 10
-3.21486
 20
-1.29962
 30
0.0
 10
-3.1069
 20
-1.08902
 30
0.0
 10
-3.00601
 20
-0.86854
 30
0.0
 10
-2.96757
 20
-0.63358
 30
0.0
 10
-2.96757
 20
-0.63358
 30
0.0
 10
-3.10656
 20
-0.66216
 30
0.0
 10
-3.19017
 20
-0.7948
 30
0.0
 10
-3.32351
 20
-0.8375
 30
0.0
 10
-3.32351
 20
-0.8375
 30
0.0
 10
-3.45334
 20
-0.88159
 30
0.0
 10
-3.59798
 20
-0.91651
 30
0.0
 10
-3.73203
 20
-0.87066
 30
0.0
 10
-3.73203
 20
-0.87066
 30
0.0
 10
-3.96769
 20
-0.80539
 30
0.0
 10
-4.12433
 20
-0.52916
 30
0.0
 10
-4.05165
 20
-0.2942
 30
0.0
 10
-4.05165
 20
-0.2942
 30
0.0
 10
-3.99308
 20
0.00565
 30
0.0
 10
-3.85234
 20
0.27798
 30
0.0
 10
-3.74368
 20
0.56091
 30
0.0
 10
-3.74368
 20
0.56091
 30
0.0
 10
-3.89748
 20
0.6177
 30
0.0
 10
-4.06188
 20
0.62583
 30
0.0
 10
-4.22416
 20
0.629
 30
0.0
 10
-4.22416
 20
0.629
 30
0.0
 10
-4.06223
 20
0.07267
 30
0.0
 10
-4.38962
 20
-0.52034
 30
0.0
 10
-4.84363
 20
-0.83431
 30
0.0
 10
-4.84363
 20
-0.83431
 30
0.0
 10
-5.01931
 20
-0.93873
 30
0.0
 10
-5.24298
 20
-1.00047
 30
0.0
 10
-5.44125
 20
-0.92674
 30
0.0
 10
-5.44125
 20
-0.92674
 30
0.0
 10
-5.53437
 20
-0.89076
 30
0.0
 10
-5.60069
 20
-0.8135
 30
0.0
 10
-5.66949
 20
-0.74541
 30
0.0
 10
-5.66949
 20
-0.74541
 30
0.0
 10
-5.72981
 20
-0.92533
 30
0.0
 10
-5.83388
 20
-1.10771
 30
0.0
 10
-5.79225
 20
-1.30422
 30
0.0
 10
-5.79225
 20
-1.30422
 30
0.0
 10
-5.77391
 20
-1.41534
 30
0.0
 10
-5.65784
 20
-1.50035
 30
0.0
 10
-5.68888
 20
-1.62031
 30
0.0
 10
-5.68888
 20
-1.62031
 30
0.0
 10
-5.69595
 20
-1.72049
 30
0.0
 10
-5.79966
 20
-1.78293
 30
0.0
 10
-5.8935
 20
-1.77906
 30
0.0
 10
-5.8935
 20
-1.77906
 30
0.0
 10
-6.14539
 20
-1.78435
 30
0.0
 10
-6.40291
 20
-1.79987
 30
0.0
 10
-6.65056
 20
-1.74271
 30
0.0
 10
-6.65056
 20
-1.74271
 30
0.0
 10
-6.72076
 20
-1.73036
 30
0.0
 10
-6.77545
 20
-1.6591
 30
0.0
 10
-6.74933
 20
-1.58784
 30
0.0
 10
-6.74933
 20
-1.58784
 30
0.0
 10
-6.72041
 20
-1.4305
 30
0.0
 10
-6.54543
 20
-1.37795
 30
0.0
 10
-6.47664
 20
-1.24459
 30
0.0
 10
-6.47664
 20
-1.24459
 30
0.0
 10
-6.41139
 20
-1.12606
 30
0.0
 10
-6.35599
 20
-0.98918
 30
0.0
 10
-6.37611
 20
-0.8516
 30
0.0
 10
-6.37611
 20
-0.8516
 30
0.0
 10
-6.39692
 20
-0.78563
 30
0.0
 10
-6.47064
 20
-0.78846
 30
0.0
 10
-6.52568
 20
-0.77505
 30
0.0
 10
-6.52568
 20
-0.77505
 30
0.0
 10
-6.65551
 20
-0.75812
 30
0.0
 10
-6.79732
 20
-0.74507
 30
0.0
 10
-6.9162
 20
-0.81068
 30
0.0
 10
-6.9162
 20
-0.81068
 30
0.0
 10
-7.0873
 20
-0.89817
 30
0.0
 10
-7.28027
 20
-0.99871
 30
0.0
 10
-7.47818
 20
-0.94438
 30
0.0
 10
-7.47818
 20
-0.94438
 30
0.0
 10
-7.59777
 20
-0.92463
 30
0.0
 10
-7.68103
 20
-0.83043
 30
0.0
 10
-7.75687
 20
-0.74436
 30
0.0
 10
-7.75687
 20
-0.74436
 30
0.0
 10
-7.84083
 20
-0.93944
 30
0.0
 10
-7.9382
 20
-1.14793
 30
0.0
 10
-7.8934
 20
-1.3663
 30
0.0
 10
-7.8934
 20
-1.3663
 30
0.0
 10
-7.85213
 20
-1.43791
 30
0.0
 10
-7.74734
 20
-1.48731
 30
0.0
 10
-7.77487
 20
-1.58433
 30
0.0
 10
-7.77487
 20
-1.58433
 30
0.0
 10
-7.7798
 20
-1.68733
 30
0.0
 10
-7.86694
 20
-1.77623
 30
0.0
 10
-7.97171
 20
-1.77694
 30
0.0
 10
-7.97171
 20
-1.77694
 30
0.0
 10
-8.18268
 20
-1.78929
 30
0.0
 10
-8.3954
 20
-1.78752
 30
0.0
 10
-8.60601
 20
-1.76812
 30
0.0
 10
-8.60601
 20
-1.76812
 30
0.0
 10
-8.68679
 20
-1.7519
 30
0.0
 10
-8.79016
 20
-1.7526
 30
0.0
 10
-8.84166
 20
-1.67815
 30
0.0
 10
-8.84166
 20
-1.67815
 30
0.0
 10
-8.86601
 20
-1.57198
 30
0.0
 10
-8.80568
 20
-1.46437
 30
0.0
 10
-8.72066
 20
-1.4037
 30
0.0
 10
-8.72066
 20
-1.4037
 30
0.0
 10
-8.56332
 20
-1.2947
 30
0.0
 10
-8.48324
 20
-1.10243
 30
0.0
 10
-8.46737
 20
-0.91687
 30
0.0
 10
-8.46737
 20
-0.91687
 30
0.0
 10
-8.45431
 20
-0.86042
 30
0.0
 10
-8.497
 20
-0.82232
 30
0.0
 10
-8.52981
 20
-0.78422
 30
0.0
 10
-8.52981
 20
-0.78422
 30
0.0
 10
-8.72877
 20
-0.87277
 30
0.0
 10
-8.95208
 20
-1.02376
 30
0.0
 10
-9.17469
 20
-0.92251
 30
0.0
 10
-9.17469
 20
-0.92251
 30
0.0
 10
-9.27312
 20
-0.87347
 30
0.0
 10
-9.38424
 20
-0.8844
 30
0.0
 10
-9.48478
 20
-0.92039
 30
0.0
 10
-9.48478
 20
-0.92039
 30
0.0
 10
-9.7222
 20
-0.99236
 30
0.0
 10
-9.98995
 20
-1.00753
 30
0.0
 10
-10.21961
 20
-0.90063
 30
0.0
 10
-10.21961
 20
-0.90063
 30
0.0
 10
-10.39001
 20
-0.81492
 30
0.0
 10
-10.58086
 20
-0.8957
 30
0.0
 10
-10.76007
 20
-0.89992
 30
0.0
 10
-10.76007
 20
-0.89992
 30
0.0
 10
-11.0176
 20
-0.93873
 30
0.0
 10
-11.27759
 20
-0.92216
 30
0.0
 10
-11.53653
 20
-0.93556
 30
0.0
 10
-11.53653
 20
-0.93556
 30
0.0
 10
-11.62261
 20
-0.93627
 30
0.0
 10
-11.71751
 20
-0.94614
 30
0.0
 10
-11.79053
 20
-0.8911
 30
0.0
 10
-11.79053
 20
-0.8911
 30
0.0
 10
-11.84733
 20
-0.80081
 30
0.0
 10
-11.81206
 20
-0.69108
 30
0.0
 10
-11.77854
 20
-0.59972
 30
0.0
 10
-11.77854
 20
-0.59972
 30
0.0
 10
-11.73198
 20
-0.50375
 30
0.0
 10
-11.60815
 20
-0.50658
 30
0.0
 10
-11.52102
 20
-0.47308
 30
0.0
 10
-11.52102
 20
-0.47308
 30
0.0
 10
-11.43917
 20
-0.25471
 30
0.0
 10
-11.35803
 20
-0.02857
 30
0.0
 10
-11.34604
 20
0.2053
 30
0.0
 10
-11.34604
 20
0.2053
 30
0.0
 10
-11.53512
 20
0.26987
 30
0.0
 10
-11.75419
 20
0.26282
 30
0.0
 10
-11.95282
 20
0.23213
 30
0.0
 10
-11.95282
 20
0.23213
 30
0.0
 10
-12.04312
 20
0.23071
 30
0.0
 10
-12.07028
 20
0.13263
 30
0.0
 10
-12.0911
 20
0.06208
 30
0.0
 10
-12.0911
 20
0.06208
 30
0.0
 10
-12.13661
 20
-0.11465
 30
0.0
 10
-12.20082
 20
-0.28645
 30
0.0
 10
-12.23327
 20
-0.46637
 30
0.0
 10
-12.23327
 20
-0.46637
 30
0.0
 10
-12.17401
 20
-0.51047
 30
0.0
 10
-12.09357
 20
-0.53516
 30
0.0
 10
-12.0583
 20
-0.60466
 30
0.0
 10
-12.0583
 20
-0.60466
 30
0.0
 10
-12.03924
 20
-0.72848
 30
0.0
 10
-12.10733
 20
-0.88971
 30
0.0
 10
-12.24914
 20
-0.89746
 30
0.0
 10
-12.24914
 20
-0.89746
 30
0.0
 10
-12.58464
 20
-0.91015
 30
0.0
 10
-12.92119
 20
-0.90204
 30
0.0
 10
-13.25668
 20
-0.89853
 30
0.0
 10
-13.25668
 20
-0.89853
 30
0.0
 10
-13.40802
 20
-0.889
 30
0.0
 10
-13.37591
 20
-0.69249
 30
0.0
 10
-13.33146
 20
-0.59655
 30
0.0
 10
-13.33146
 20
-0.59655
 30
0.0
 10
-13.26373
 20
-0.4512
 30
0.0
 10
-13.02667
 20
-0.55527
 30
0.0
 10
-12.98363
 20
-0.3884
 30
0.0
 10
-12.98363
 20
-0.3884
 30
0.0
 10
-12.81923
 20
0.11148
 30
0.0
 10
-12.67601
 20
0.61841
 30
0.0
 10
-12.51443
 20
1.11901
 30
0.0
 10
-12.51443
 20
1.11901
 30
0.0
 10
-12.48833
 20
1.19803
 30
0.0
 10
-12.46857
 20
1.27881
 30
0.0
 10
-12.45869
 20
1.36136
 30
0.0
 10
-12.45869
 20
1.36136
 30
0.0
 10
-12.54337
 20
1.39242
 30
0.0
 10
-12.68589
 20
1.37195
 30
0.0
 10
-12.70987
 20
1.48378
 30
0.0
 10
-12.70987
 20
1.48378
 30
0.0
 10
-12.71799
 20
1.62207
 30
0.0
 10
-12.64673
 20
1.80833
 30
0.0
 10
-12.48692
 20
1.81892
 30
0.0
 10
-12.48692
 20
1.81892
 30
0.0
 10
-12.19693
 20
1.85208
 30
0.0
 10
-11.90519
 20
1.82386
 30
0.0
 10
-11.61414
 20
1.81963
 30
0.0
 10
-11.61414
 20
1.81963
 30
0.0
 10
-11.5196
 20
1.81504
 30
0.0
 10
-11.39825
 20
1.82209
 30
0.0
 10
-11.34533
 20
1.72473
 30
0.0
 10
-11.34533
 20
1.72473
 30
0.0
 10
-11.32557
 20
1.62701
 30
0.0
 10
-11.36437
 20
1.52223
 30
0.0
 10
-11.42787
 20
1.4478
 30
0.0
 10
-11.42787
 20
1.4478
 30
0.0
 10
-11.51149
 20
1.39734
 30
0.0
 10
-11.64343
 20
1.41569
 30
0.0
 10
-11.68788
 20
1.31163
 30
0.0
 10
-11.68788
 20
1.31163
 30
0.0
 10
-11.77607
 20
1.10525
 30
0.0
 10
-11.84204
 20
0.88194
 30
0.0
 10
-11.83111
 20
0.6551
 30
0.0
 10
-11.83111
 20
0.6551
 30
0.0
 10
-11.62755
 20
0.64805
 30
0.0
 10
-11.42294
 20
0.64169
 30
0.0
 10
-11.21974
 20
0.66145
 30
0.0
 10
-11.21974
 20
0.66145
 30
0.0
 10
-11.1573
 20
0.6625
 30
0.0
 10
-11.13296
 20
0.72884
 30
0.0
 10
-11.11179
 20
0.77611
 30
0.0
 10
-11.11179
 20
0.77611
 30
0.0
 10
-11.03559
 20
0.96378
 30
0.0
 10
-10.99361
 20
1.16451
 30
0.0
 10
-10.90048
 20
1.34549
 30
0.0
 10
-10.90048
 20
1.34549
 30
0.0
 10
-10.9661
 20
1.3857
 30
0.0
 10
-11.07158
 20
1.42205
 30
0.0
 10
-11.06028
 20
1.51694
 30
0.0
 10
-11.06028
 20
1.51694
 30
0.0
 10
-11.043
 20
1.61113
 30
0.0
 10
-11.01583
 20
1.73143
 30
0.0
 10
-10.91882
 20
1.77305
 30
0.0
 10
-10.91882
 20
1.77305
 30
0.0
 10
-10.6814
 20
1.82633
 30
0.0
 10
-10.43658
 20
1.80057
 30
0.0
 10
-10.19563
 20
1.80657
 30
0.0
 10
-10.19563
 20
1.80657
 30
0.0
 10
-10.07604
 20
1.80304
 30
0.0
 10
-9.94974
 20
1.82068
 30
0.0
 10
-9.83685
 20
1.77129
 30
0.0
 10
-9.83685
 20
1.77129
 30
0.0
 10
-9.78569
 20
1.67781
 30
0.0
 10
-9.8238
 20
1.55963
 30
0.0
 10
-9.86155
 20
1.46649
 30
0.0
 10
-9.86155
 20
1.46649
 30
0.0
 10
-9.91763
 20
1.34796
 30
0.0
 10
-10.08203
 20
1.42239
 30
0.0
 10
-10.16846
 20
1.34937
 30
0.0
 10
-10.16846
 20
1.34937
 30
0.0
 10
-10.22562
 20
1.27423
 30
0.0
 10
-10.23902
 20
1.17792
 30
0.0
 10
-10.26689
 20
1.09007
 30
0.0
 10
-10.26689
 20
1.09007
 30
0.0
 10
-10.38048
 20
0.71508
 30
0.0
 10
-10.50784
 20
0.345
 30
0.0
 10
-10.62143
 20
-0.02962
 30
0.0
 10
-10.62143
 20
-0.02962
 30
0.0
 10
-10.662
 20
-0.16791
 30
0.0
 10
-10.72161
 20
-0.30409
 30
0.0
 10
-10.7195
 20
-0.45084
 30
0.0
 10
-10.7195
 20
-0.45084
 30
0.0
 10
-10.64506
 20
-0.4512
 30
0.0
 10
-10.57027
 20
-0.44626
 30
0.0
 10
-10.49619
 20
-0.43709
 30
0.0
 10
-10.49619
 20
-0.43709
 30
0.0
 10
-10.45527
 20
-0.31996
 30
0.0
 10
-10.42846
 20
-0.19297
 30
0.0
 10
-10.34803
 20
-0.09489
 30
0.0
 10
-10.34803
 20
-0.09489
 30
0.0
 10
-10.19775
 20
0.09983
 30
0.0
 10
-9.96279
 20
0.22365
 30
0.0
 10
-9.72008
 20
0.25541
 30
0.0
 10
-9.72008
 20
0.25541
 30
0.0
 10
-9.54228
 20
0.27939
 30
0.0
 10
-9.34931
 20
0.2427
 30
0.0
 10
-9.18386
 20
0.32597
 30
0.0
 10
-9.18386
 20
0.32597
 30
0.0
 10
-9.04134
 20
0.3997
 30
0.0
 10
-8.96937
 20
0.66428
 30
0.0
 10
-9.14964
 20
0.73447
 30
0.0
 10
-9.14964
 20
0.73447
 30
0.0
 10
-9.24595
 20
0.78563
 30
0.0
 10
-9.35214
 20
0.74259
 30
0.0
 10
-9.40152
 20
0.64981
 30
0.0
 10
-9.40152
 20
0.64981
 30
0.0
 10
-9.48654
 20
0.50375
 30
0.0
 10
-9.68304
 20
0.48965
 30
0.0
 10
-9.82556
 20
0.55104
 30
0.0
 10
-9.82556
 20
0.55104
 30
0.0
 10
-9.88695
 20
0.56868
 30
0.0
 10
-9.91729
 20
0.63887
 30
0.0
 10
-9.90494
 20
0.69814
 30
0.0
 10
-9.90494
 20
0.69814
 30
0.0
 10
-9.86507
 20
0.88759
 30
0.0
 10
-9.71373
 20
1.03928
 30
0.0
 10
-9.53487
 20
1.10455
 30
0.0
 10
-9.53487
 20
1.10455
 30
0.0
 10
-9.31403
 20
1.18497
 30
0.0
 10
-9.06426
 20
1.17863
 30
0.0
 10
-8.84519
 20
1.09677
 30
0.0
 10
-8.84519
 20
1.09677
 30
0.0
 10
-8.54075
 20
0.98989
 30
0.0
 10
-8.33966
 20
0.63146
 30
0.0
 10
-8.43068
 20
0.3175
 30
0.0
 10
-8.43068
 20
0.3175
 30
0.0
 10
-8.47866
 20
0.11959
 30
0.0
 10
-8.55521
 20
-0.06984
 30
0.0
 10
-8.63458
 20
-0.25717
 30
0.0
 10
-8.63458
 20
-0.25717
 30
0.0
 10
-8.66175
 20
-0.31114
 30
0.0
 10
-8.66245
 20
-0.37217
 30
0.0
 10
-8.66527
 20
-0.43144
 30
0.0
 10
-8.66527
 20
-0.43144
 30
0.0
 10
-8.5471
 20
-0.40004
 30
0.0
 10
-8.43068
 20
-0.35031
 30
0.0
 10
-8.33755
 20
-0.26882
 30
0.0
 10
-8.33755
 20
-0.26882
 30
0.0
 10
-8.24971
 20
-0.19049
 30
0.0
 10
-8.21619
 20
-0.07338
 30
0.0
 10
-8.18373
 20
0.03527
 30
0.0
 10
-8.18373
 20
0.03527
 30
0.0
 10
-8.12447
 20
0.24729
 30
0.0
 10
-8.05356
 20
0.45578
 30
0.0
 10
-7.99112
 20
0.66674
 30
0.0
 10
-7.99112
 20
0.66674
 30
0.0
 10
-8.07014
 20
0.73766
 30
0.0
 10
-8.13117
 20
0.83361
 30
0.0
 10
-8.10153
 20
0.94402
 30
0.0
 10
-8.10153
 20
0.94402
 30
0.0
 10
-8.09519
 20
1.08479
 30
0.0
 10
-7.93044
 20
1.09784
 30
0.0
 10
-7.82355
 20
1.11054
 30
0.0
 10
-7.82355
 20
1.11054
 30
0.0
 10
-7.65457
 20
1.11865
 30
0.0
 10
-7.47642
 20
1.13736
 30
0.0
 10
-7.31378
 20
1.08162
 30
0.0
 10
-7.31378
 20
1.08162
 30
0.0
 10
-7.21747
 20
1.05092
 30
0.0
 10
-7.25311
 20
0.9331
 30
0.0
 10
-7.23723
 20
0.85724
 30
0.0
 10
-7.23723
 20
0.85724
 30
0.0
 10
-7.07602
 20
0.93451
 30
0.0
 10
-6.89751
 20
1.02164
 30
0.0
 10
-6.71405
 20
0.97472
 30
0.0
 10
-6.71405
 20
0.97472
 30
0.0
 10
-6.51157
 20
0.9398
 30
0.0
 10
-6.3641
 20
0.76553
 30
0.0
 10
-6.30977
 20
0.57467
 30
0.0
 10
-6.30977
 20
0.57467
 30
0.0
 10
-6.23322
 20
0.254
 30
0.0
 10
-6.3193
 20
-0.08008
 30
0.0
 10
-6.48475
 20
-0.35877
 30
0.0
 10
-6.48475
 20
-0.35877
 30
0.0
 10
-6.38986
 20
-0.33479
 30
0.0
 10
-6.27803
 20
-0.32456
 30
0.0
 10
-6.20994
 20
-0.24589
 30
0.0
 10
-6.20994
 20
-0.24589
 30
0.0
 10
-6.11857
 20
-0.11959
 30
0.0
 10
-6.09211
 20
0.03739
 30
0.0
 10
-6.04378
 20
0.18238
 30
0.0
 10
-6.04378
 20
0.18238
 30
0.0
 10
-5.99756
 20
0.34395
 30
0.0
 10
-5.93794
 20
0.502
 30
0.0
 10
-5.89986
 20
0.66604
 30
0.0
 10
-5.89986
 20
0.66604
 30
0.0
 10
-5.94289
 20
0.73518
 30
0.0
 10
-6.03391
 20
0.78775
 30
0.0
 10
-6.01345
 20
0.88159
 30
0.0
 10
-6.01345
 20
0.88159
 30
0.0
 10
-6.02509
 20
0.97895
 30
0.0
 10
-5.957
 20
1.07809
 30
0.0
 10
-5.85681
 20
1.08761
 30
0.0
 10
-5.85681
 20
1.08761
 30
0.0
 10
-5.63245
 20
1.13242
 30
0.0
 10
-5.39326
 20
1.13805
 30
0.0
 10
-5.17277
 20
1.07102
 30
0.0
 10
-5.17277
 20
1.07102
 30
0.0
 10
-5.15443
 20
0.99871
 30
0.0
 10
-5.14032
 20
0.92533
 30
0.0
 10
-5.13257
 20
0.8509
 30
0.0
 10
-5.13257
 20
0.8509
 30
0.0
 10
-5.0112
 20
0.92816
 30
0.0
 10
-4.87362
 20
0.98319
 30
0.0
 10
-4.72863
 20
0.98777
 30
0.0
 10
-4.72863
 20
0.98777
 30
0.0
 10
-4.50391
 20
0.99694
 30
0.0
 10
-4.28237
 20
1.04563
 30
0.0
 10
-4.05694
 20
1.03399
 30
0.0
 10
-4.05694
 20
1.03399
 30
0.0
 10
-3.82128
 20
1.02517
 30
0.0
 10
-3.58527
 20
1.05445
 30
0.0
 10
-3.35033
 20
1.03611
 30
0.0
 10
-3.35033
 20
1.03611
 30
0.0
 10
-3.28648
 20
1.01458
 30
0.0
 10
-3.17923
 20
0.99589
 30
0.0
 10
-3.18276
 20
0.90945
 30
0.0
 10
-3.18276
 20
0.90945
 30
0.0
 10
-3.17605
 20
0.8509
 30
0.0
 10
-3.19298
 20
0.79269
 30
0.0
 10
-3.21239
 20
0.738
 30
0.0
 10
-3.21239
 20
0.738
 30
0.0
 10
-3.31082
 20
0.47342
 30
0.0
 10
-3.41806
 20
0.2092
 30
0.0
 10
-3.46709
 20
-0.06984
 30
0.0
 10
-3.46709
 20
-0.06984
 30
0.0
 10
-3.4692
 20
-0.13263
 30
0.0
 10
-3.49108
 20
-0.21096
 30
0.0
 10
-3.43181
 20
-0.25576
 30
0.0
 10
-3.43181
 20
-0.25576
 30
0.0
 10
-3.3348
 20
-0.29951
 30
0.0
 10
-3.2198
 20
-0.27515
 30
0.0
 10
-3.13231
 20
-0.21978
 30
0.0
 10
-3.13231
 20
-0.21978
 30
0.0
 10
-3.01025
 20
-0.14357
 30
0.0
 10
-2.89453
 20
-0.04022
 30
0.0
 10
-2.84444
 20
0.09842
 30
0.0
 10
-2.84444
 20
0.09842
 30
0.0
 10
-2.78058
 20
0.2674
 30
0.0
 10
-2.72097
 20
0.44238
 30
0.0
 10
-2.72097
 20
0.62512
 30
0.0
 10
-2.72097
 20
0.62512
 30
0.0
 10
-2.78553
 20
0.65263
 30
0.0
 10
-2.87126
 20
0.65792
 30
0.0
 10
-2.91253
 20
0.72143
 30
0.0
 10
-2.91253
 20
0.72143
 30
0.0
 10
-2.92135
 20
0.81738
 30
0.0
 10
-2.92381
 20
0.93873
 30
0.0
 10
-2.83845
 20
1.00329
 30
0.0
 10
-2.83845
 20
1.00329
 30
0.0
 10
-2.64936
 20
1.04985
 30
0.0
 10
-2.45109
 20
1.02164
 30
0.0
 10
-2.25918
 20
1.05021
 30
0.0
 10
-2.25918
 20
1.05021
 30
0.0
 10
-2.1717
 20
1.0548
 30
0.0
 10
-2.07115
 20
1.09889
 30
0.0
 10
-1.99354
 20
1.03752
 30
0.0
 10
-1.99354
 20
1.03752
 30
0.0
 10
-1.94062
 20
1.00929
 30
0.0
 10
-1.95721
 20
0.93486
 30
0.0
 10
-1.96744
 20
0.88688
 30
0.0
 10
-1.96744
 20
0.88688
 30
0.0
 10
-2.0895
 20
0.43497
 30
0.0
 10
-2.23731
 20
-0.01057
 30
0.0
 10
-2.3495
 20
-0.4646
 30
0.0
 10
-2.3495
 20
-0.4646
 30
0.0
 10
-2.26236
 20
-0.46496
 30
0.0
 10
-2.17275
 20
-0.48331
 30
0.0
 10
-2.08667
 20
-0.46214
 30
0.0
 10
-2.08667
 20
-0.46214
 30
0.0
 10
-1.99743
 20
-0.42791
 30
0.0
 10
-1.96603
 20
-0.3309
 30
0.0
 10
-1.93922
 20
-0.24835
 30
0.0
 10
-1.93922
 20
-0.24835
 30
0.0
 10
-1.82421
 20
0.14922
 30
0.0
 10
-1.6905
 20
0.54151
 30
0.0
 10
-1.56669
 20
0.93627
 30
0.0
 10
-1.56669
 20
0.93627
 30
0.0
 10
-1.52188
 20
1.09114
 30
0.0
 10
-1.4411
 20
1.246
 30
0.0
 10
-1.47672
 20
1.41181
 30
0.0
 10
-1.47672
 20
1.41181
 30
0.0
 10
-1.55645
 20
1.43087
 30
0.0
 10
-1.68627
 20
1.40864
 30
0.0
 10
-1.70285
 20
1.51835
 30
0.0
 10
-1.70285
 20
1.51835
 30
0.0
 10
-1.72295
 20
1.64182
 30
0.0
 10
-1.66017
 20
1.81397
 30
0.0
 10
-1.51694
 20
1.82597
 30
0.0
 10
-1.51694
 20
1.82597
 30
0.0
 10
-1.28269
 20
1.8475
 30
0.0
 10
-1.04668
 20
1.81751
 30
0.0
 10
-0.81138
 20
1.82738
 30
0.0
 10
-0.81138
 20
1.82738
 30
0.0
 10
-0.46708
 20
1.81609
 30
0.0
 10
-0.109
 20
1.86972
 30
0.0
 10
0.22189
 20
1.74659
 30
0.0
 10
0.22189
 20
1.74659
 30
0.0
 10
0.38664
 20
1.69121
 30
0.0
 10
0.53269
 20
1.55857
 30
0.0
 10
0.56832
 20
1.38324
 30
0.0
 10
0.56832
 20
1.38324
 30
0.0
 10
0.60819
 20
1.26364
 30
0.0
 10
0.56409
 20
1.14158
 30
0.0
 10
0.53552
 20
1.02481
 30
0.0
 10
0.53552
 20
1.02481
 30
0.0
 10
0.71296
 20
0.91581
 30
0.0
 10
0.9218
 20
0.87841
 30
0.0
 10
1.12676
 20
0.86854
 30
0.0
 10
1.12676
 20
0.86854
 30
0.0
 10
1.14547
 20
0.90874
 30
0.0
 10
1.16451
 20
0.94896
 30
0.0
 10
1.18392
 20
0.98918
 30
0.0
 10
1.18392
 20
0.98918
 30
0.0
 10
0.93944
 20
1.13312
 30
0.0
 10
1.00295
 20
1.53353
 30
0.0
 10
1.25236
 20
1.63653
 30
0.0
 10
1.25236
 20
1.63653
 30
0.0
 10
1.42628
 20
1.72895
 30
0.0
 10
1.67993
 20
1.64146
 30
0.0
 10
1.72261
 20
1.43968
 30
0.0
 10
1.72261
 20
1.43968
 30
0.0
 10
1.78152
 20
1.29857
 30
0.0
 10
1.68275
 20
1.16945
 30
0.0
 10
1.62984
 20
1.04563
 30
0.0
 10
1.62984
 20
1.04563
 30
0.0
 10
1.53704
 20
0.56727
 30
0.0
 10
1.30281
 20
0.12559
 30
0.0
 10
1.2259
 20
-0.35736
 30
0.0
 10
1.2259
 20
-0.35736
 30
0.0
 10
1.2975
 20
-0.32597
 30
0.0
 10
1.36136
 20
-0.26034
 30
0.0
 10
1.44215
 20
-0.25929
 30
0.0
 10
1.44215
 20
-0.25929
 30
0.0
 10
1.5748
 20
-0.25964
 30
0.0
 10
1.56527
 20
-0.45544
 30
0.0
 10
1.69862
 20
-0.46389
 30
0.0
 10
1.69862
 20
-0.46389
 30
0.0
 10
1.8482
 20
-0.49354
 30
0.0
 10
1.90994
 20
-0.32666
 30
0.0
 10
1.94132
 20
-0.21237
 30
0.0
 10
1.94132
 20
-0.21237
 30
0.0
 10
2.01682
 20
0.05291
 30
0.0
 10
2.14911
 20
0.30409
 30
0.0
 10
2.18122
 20
0.57996
 30
0.0
 10
2.18122
 20
0.57996
 30
0.0
 10
2.11596
 20
0.60325
 30
0.0
 10
2.05139
 20
0.62618
 30
0.0
 10
1.98683
 20
0.64947
 30
0.0
 10
1.98683
 20
0.64947
 30
0.0
 10
1.95862
 20
0.75706
 30
0.0
 10
1.9699
 20
0.90275
 30
0.0
 10
2.08774
 20
0.95037
 30
0.0
 10
2.08774
 20
0.95037
 30
0.0
 10
2.19991
 20
0.98319
 30
0.0
 10
2.31951
 20
0.95462
 30
0.0
 10
2.43487
 20
0.96343
 30
0.0
 10
2.43487
 20
0.96343
 30
0.0
 10
2.62678
 20
0.9599
 30
0.0
 10
2.85221
 20
1.01389
 30
0.0
 10
3.00214
 20
0.85865
 30
0.0
 10
3.00214
 20
0.85865
 30
0.0
 10
3.17782
 20
0.95708
 30
0.0
 10
3.39302
 20
1.07667
 30
0.0
 10
3.59516
 20
0.97861
 30
0.0
 10
3.59516
 20
0.97861
 30
0.0
 10
3.73415
 20
0.91052
 30
0.0
 10
3.89183
 20
0.92216
 30
0.0
 10
4.04176
 20
0.93027
 30
0.0
 10
4.04176
 20
0.93027
 30
0.0
 10
4.09434
 20
1.08549
 30
0.0
 10
4.11444
 20
1.2506
 30
0.0
 10
4.17547
 20
1.40299
 30
0.0
 10
4.17547
 20
1.40299
 30
0.0
 10
4.22098
 20
1.51129
 30
0.0
 10
4.3367
 20
1.56845
 30
0.0
 10
4.44816
 20
1.5815
 30
0.0
 10
4.44816
 20
1.5815
 30
0.0
 10
4.57658
 20
1.59702
 30
0.0
 10
4.70252
 20
1.62947
 30
0.0
 10
4.83129
 20
1.64076
 30
0.0
 10
4.83129
 20
1.64076
 30
0.0
 10
4.93218
 20
1.65347
 30
0.0
 10
4.96746
 20
1.52858
 30
0.0
 10
4.92548
 20
1.45486
 30
0.0
 10
4.92548
 20
1.45486
 30
0.0
 10
4.8514
 20
1.29046
 30
0.0
 10
4.74027
 20
1.13488
 30
0.0
 10
4.73533
 20
0.94791
 30
0.0
 10
4.73533
 20
0.94791
 30
0.0
 10
4.82917
 20
0.92216
 30
0.0
 10
4.96675
 20
0.94297
 30
0.0
 10
5.0158
 20
0.83996
 30
0.0
 10
5.0158
 20
0.83996
 30
0.0
 10
5.05529
 20
0.74471
 30
0.0
 10
4.99109
 20
0.64416
 30
0.0
 10
4.92653
 20
0.57714
 30
0.0
 10
4.92653
 20
0.57714
 30
0.0
 10
4.84222
 20
0.51047
 30
0.0
 10
4.72722
 20
0.52139
 30
0.0
 10
4.62808
 20
0.49776
 30
0.0
 10
4.62808
 20
0.49776
 30
0.0
 10
4.55295
 20
0.45826
 30
0.0
 10
4.52366
 20
0.37324
 30
0.0
 10
4.49155
 20
0.30056
 30
0.0
 10
4.49155
 20
0.30056
 30
0.0
 10
4.43018
 20
0.14427
 30
0.0
 10
4.37409
 20
-0.01447
 30
0.0
 10
4.33105
 20
-0.17673
 30
0.0
 10
4.33105
 20
-0.17673
 30
0.0
 10
4.31482
 20
-0.24377
 30
0.0
 10
4.29965
 20
-0.3316
 30
0.0
 10
4.3762
 20
-0.36795
 30
0.0
 10
4.3762
 20
-0.36795
 30
0.0
 10
4.46687
 20
-0.37889
 30
0.0
 10
4.54413
 20
-0.31396
 30
0.0
 10
4.6302
 20
-0.29562
 30
0.0
 10
4.6302
 20
-0.29562
 30
0.0
 10
4.705
 20
-0.29703
 30
0.0
 10
4.77414
 20
-0.3309
 30
0.0
 10
4.84611
 20
-0.34854
 30
0.0
 10
4.84611
 20
-0.34854
 30
0.0
 10
5.04296
 20
0.28787
 30
0.0
 10
5.25673
 20
0.91968
 30
0.0
 10
5.42854
 20
1.5635
 30
0.0
 10
5.42854
 20
1.5635
 30
0.0
 10
5.34882
 20
1.59315
 30
0.0
 10
5.21864
 20
1.58608
 30
0.0
 10
5.20522
 20
1.69545
 30
0.0
 10
5.20522
 20
1.69545
 30
0.0
 10
5.21334
 20
1.77587
 30
0.0
 10
5.22993
 20
1.88066
 30
0.0
 10
5.31741
 20
1.91135
 30
0.0
  0
SPLINE
  5
42
330
1F
100
AcDbEntity
  8
Camada 1
 62
   156
100
AcDbSpline
210
0.0
220
0.0
230
1.0
 70
    11
 71
     3
 72
    32
 73
    28
 74
     0
 42
0.0000000001
 43
0.0000000001
 12
1.0
 22
0.0
 32
0.0
 13
1.0
 23
0.0
 33
0.0
 40
0.0
 40
0.0
 40
0.0
 40
0.0
 40
0.125
 40
0.125
 40
0.125
 40
0.125
 40
0.25
 40
0.25
 40
0.25
 40
0.25
 40
0.375
 40
0.375
 40
0.375
 40
0.375
 40
0.5
 40
0.5
 40
0.5
 40
0.5
 40
0.625
 40
0.625
 40
0.625
 40
0.625
 40
0.75
 40
0.75
 40
0.75
 40
0.75
 40
1.0
 40
1.0
 40
1.0
 40
1.0
 10
-0.51929
 20
1.40545
 30
0.0
 10
-0.51929
 20
1.40545
 30
0.0
 10
-0.51929
 20
1.40545
 30
0.0
 10
-0.51929
 20
1.40545
 30
0.0
 10
-0.51929
 20
1.40545
 30
0.0
 10
-0.53057
 20
1.39805
 30
0.0
 10
-0.55279
 20
1.3836
 30
0.0
 10
-0.56409
 20
1.37653
 30
0.0
 10
-0.56409
 20
1.37653
 30
0.0
 10
-0.65193
 20
1.21708
 30
0.0
 10
-0.71508
 20
1.04493
 30
0.0
 10
-0.78317
 20
0.87629
 30
0.0
 10
-0.78317
 20
0.87629
 30
0.0
 10
-0.82585
 20
0.79728
 30
0.0
 10
-0.72002
 20
0.79621
 30
0.0
 10
-0.67062
 20
0.79903
 30
0.0
 10
-0.67062
 20
0.79903
 30
0.0
 10
-0.47519
 20
0.80398
 30
0.0
 10
-0.26034
 20
0.85619
 30
0.0
 10
-0.127
 20
1.00965
 30
0.0
 10
-0.127
 20
1.00965
 30
0.0
 10
-0.03668
 20
1.11548
 30
0.0
 10
-0.00847
 20
1.32257
 30
0.0
 10
-0.15875
 20
1.38852
 30
0.0
 10
-0.15875
 20
1.38852
 30
0.0
 10
-0.2734
 20
1.42205
 30
0.0
 10
-0.40393
 20
1.44604
 30
0.0
 10
-0.51929
 20
1.40545
 30
0.0
  0
SPLINE
  5
43
330
1F
100
AcDbEntity
  8
Camada 1
 62
   156
100
AcDbSpline
210
0.0
220
0.0
230
1.0
 70
    11
 71
     3
 72
    32
 73
    28
 74
     0
 42
0.0000000001
 43
0.0000000001
 12
1.0
 22
0.0
 32
0.0
 13
1.0
 23
0.0
 33
0.0
 40
0.0
 40
0.0
 40
0.0
 40
0.0
 40
0.125
 40
0.125
 40
0.125
 40
0.125
 40
0.25
 40
0.25
 40
0.25
 40
0.25
 40
0.375
 40
0.375
 40
0.375
 40
0.375
 40
0.5
 40
0.5
 40
0.5
 40
0.5
 40
0.625
 40
0.625
 40
0.625
 40
0.625
 40
0.75
 40
0.75
 40
0.75
 40
0.75
 40
1.0
 40
1.0
 40
1.0
 40
1.0
 10
-6.96877
 20
0.55033
 30
0.0
 10
-6.96877
 20
0.55033
 30
0.0
 10
-6.96877
 20
0.55033
 30
0.0
 10
-6.96877
 20
0.55033
 30
0.0
 10
-6.96877
 20
0.55033
 30
0.0
 10
-7.12893
 20
0.45013
 30
0.0
 10
-7.227
 20
0.27939
 30
0.0
 10
-7.31061
 20
0.11499
 30
0.0
 10
-7.31061
 20
0.11499
 30
0.0
 10
-7.38752
 20
-0.05326
 30
0.0
 10
-7.46794
 20
-0.23283
 30
0.0
 10
-7.45313
 20
-0.42228
 30
0.0
 10
-7.45313
 20
-0.42228
 30
0.0
 10
-7.4422
 20
-0.52351
 30
0.0
 10
-7.31343
 20
-0.53657
 30
0.0
 10
-7.24288
 20
-0.49283
 30
0.0
 10
-7.24288
 20
-0.49283
 30
0.0
 10
-7.1053
 20
-0.39758
 30
0.0
 10
-7.03403
 20
-0.23988
 30
0.0
 10
-6.95959
 20
-0.09596
 30
0.0
 10
-6.95959
 20
-0.09596
 30
0.0
 10
-6.86118
 20
0.11606
 30
0.0
 10
-6.75886
 20
0.3383
 30
0.0
 10
-6.76556
 20
0.5775
 30
0.0
 10
-6.76556
 20
0.5775
 30
0.0
 10
-6.83365
 20
0.58032
 30
0.0
 10
-6.90915
 20
0.59372
 30
0.0
 10
-6.96877
 20
0.55033
 30
0.0
  0
SPLINE
  5
44
330
1F
100
AcDbEntity
  8
Camada 1
 62
   156
100
AcDbSpline
210
0.0
220
0.0
230
1.0
 70
    11
 71
     3
 72
    28
 73
    24
 74
     0
 42
0.0000000001
 43
0.0000000001
 12
1.0
 22
0.0
 32
0.0
 13
1.0
 23
0.0
 33
0.0
 40
0.0
 40
0.0
 40
0.0
 40
0.0
 40
0.1428571428571428
 40
0.1428571428571428
 40
0.1428571428571428
 40
0.1428571428571428
 40
0.2857142857142857
 40
0.2857142857142857
 40
0.2857142857142857
 40
0.2857142857142857
 40
0.4285714285714285
 40
0.4285714285714285
 40
0.4285714285714285
 40
0.4285714285714285
 40
0.5714285714285714
 40
0.5714285714285714
 40
0.5714285714285714
 40
0.5714285714285714
 40
0.7142857142857143
 40
0.7142857142857143
 40
0.7142857142857143
 40
0.7142857142857143
 40
1.0
 40
1.0
 40
1.0
 40
1.0
 10
-5.13291
 20
0.26317
 30
0.0
 10
-5.13291
 20
0.26317
 30
0.0
 10
-5.13291
 20
0.26317
 30
0.0
 10
-5.13291
 20
0.26317
 30
0.0
 10
-5.13291
 20
0.26317
 30
0.0
 10
-5.24686
 20
0.05467
 30
0.0
 10
-5.37069
 20
-0.17144
 30
0.0
 10
-5.35622
 20
-0.41627
 30
0.0
 10
-5.35622
 20
-0.41627
 30
0.0
 10
-5.36046
 20
-0.53269
 30
0.0
 10
-5.2003
 20
-0.53833
 30
0.0
 10
-5.13221
 20
-0.48153
 30
0.0
 10
-5.13221
 20
-0.48153
 30
0.0
 10
-4.98581
 20
-0.37112
 30
0.0
 10
-4.91243
 20
-0.19543
 30
0.0
 10
-4.83376
 20
-0.03562
 30
0.0
 10
-4.83376
 20
-0.03562
 30
0.0
 10
-4.75121
 20
0.1598
 30
0.0
 10
-4.65737
 20
0.36335
 30
0.0
 10
-4.6743
 20
0.58103
 30
0.0
 10
-4.6743
 20
0.58103
 30
0.0
 10
-4.88843
 20
0.61982
 30
0.0
 10
-5.03414
 20
0.42262
 30
0.0
 10
-5.13291
 20
0.26317
 30
0.0
  0
SPLINE
  5
45
330
1F
100
AcDbEntity
  8
Camada 1
 62
   156
100
AcDbSpline
210
0.0
220
0.0
230
1.0
 70
    11
 71
     3
 72
    32
 73
    28
 74
     0
 42
0.0000000001
 43
0.0000000001
 12
1.0
 22
0.0
 32
0.0
 13
1.0
 23
0.0
 33
0.0
 40
0.0
 40
0.0
 40
0.0
 40
0.0
 40
0.125
 40
0.125
 40
0.125
 40
0.125
 40
0.25
 40
0.25
 40
0.25
 40
0.25
 40
0.375
 40
0.375
 40
0.375
 40
0.375
 40
0.5
 40
0.5
 40
0.5
 40
0.5
 40
0.625
 40
0.625
 40
0.625
 40
0.625
 40
0.75
 40
0.75
 40
0.75
 40
0.75
 40
1.0
 40
1.0
 40
1.0
 40
1.0
 10
7.88528
 20
0.54997
 30
0.0
 10
7.88528
 20
0.54997
 30
0.0
 10
7.88528
 20
0.54997
 30
0.0
 10
7.88528
 20
0.54997
 30
0.0
 10
7.88528
 20
0.54997
 30
0.0
 10
7.6962
 20
0.37007
 30
0.0
 10
7.60942
 20
0.10724
 30
0.0
 10
7.5445
 20
-0.13935
 30
0.0
 10
7.5445
 20
-0.13935
 30
0.0
 10
7.53955
 20
-0.2487
 30
0.0
 10
7.487
 20
-0.39616
 30
0.0
 10
7.58225
 20
-0.47871
 30
0.0
 10
7.58225
 20
-0.47871
 30
0.0
 10
7.69725
 20
-0.50729
 30
0.0
 10
7.79322
 20
-0.42615
 30
0.0
 10
7.84789
 20
-0.33338
 30
0.0
 10
7.84789
 20
-0.33338
 30
0.0
 10
7.95406
 20
-0.16087
 30
0.0
 10
8.03909
 20
0.02645
 30
0.0
 10
8.09554
 20
0.22119
 30
0.0
 10
8.09554
 20
0.22119
 30
0.0
 10
8.12058
 20
0.33372
 30
0.0
 10
8.15691
 20
0.47342
 30
0.0
 10
8.0712
 20
0.56902
 30
0.0
 10
8.0712
 20
0.56902
 30
0.0
 10
8.01088
 20
0.58773
 30
0.0
 10
7.93433
 20
0.59972
 30
0.0
 10
7.88528
 20
0.54997
 30
0.0
  0
SPLINE
  5
46
330
1F
100
AcDbEntity
  8
Camada 1
 62
   156
100
AcDbSpline
210
0.0
220
0.0
230
1.0
 70
    11
 71
     3
 72
    32
 73
    28
 74
     0
 42
0.0000000001
 43
0.0000000001
 12
1.0
 22
0.0
 32
0.0
 13
1.0
 23
0.0
 33
0.0
 40
0.0
 40
0.0
 40
0.0
 40
0.0
 40
0.125
 40
0.125
 40
0.125
 40
0.125
 40
0.25
 40
0.25
 40
0.25
 40
0.25
 40
0.375
 40
0.375
 40
0.375
 40
0.375
 40
0.5
 40
0.5
 40
0.5
 40
0.5
 40
0.625
 40
0.625
 40
0.625
 40
0.625
 40
0.75
 40
0.75
 40
0.75
 40
0.75
 40
1.0
 40
1.0
 40
1.0
 40
1.0
 10
-0.93802
 20
0.37076
 30
0.0
 10
-0.93802
 20
0.37076
 30
0.0
 10
-0.93802
 20
0.37076
 30
0.0
 10
-0.93802
 20
0.37076
 30
0.0
 10
-0.93802
 20
0.37076
 30
0.0
 10
-1.06469
 20
0.28609
 30
0.0
 10
-1.09502
 20
0.11959
 30
0.0
 10
-1.15076
 20
-0.01305
 30
0.0
 10
-1.15076
 20
-0.01305
 30
0.0
 10
-1.19803
 20
-0.16651
 30
0.0
 10
-1.29611
 20
-0.31433
 30
0.0
 10
-1.27528
 20
-0.48048
 30
0.0
 10
-1.27528
 20
-0.48048
 30
0.0
 10
-1.07809
 20
-0.4819
 30
0.0
 10
-0.86818
 20
-0.50095
 30
0.0
 10
-0.68615
 20
-0.40781
 30
0.0
 10
-0.68615
 20
-0.40781
 30
0.0
 10
-0.51328
 20
-0.32702
 30
0.0
 10
-0.42121
 20
-0.14005
 30
0.0
 10
-0.38347
 20
0.03844
 30
0.0
 10
-0.38347
 20
0.03844
 30
0.0
 10
-0.363
 20
0.11818
 30
0.0
 10
-0.38876
 20
0.2046
 30
0.0
 10
-0.44062
 20
0.26634
 30
0.0
 10
-0.44062
 20
0.26634
 30
0.0
 10
-0.57891
 20
0.37853
 30
0.0
 10
-0.7687
 20
0.38946
 30
0.0
 10
-0.93802
 20
0.37076
 30
0.0
  0
SPLINE
  5
47
330
1F
100
AcDbEntity
  8
Camada 1
 62
   156
100
AcDbSpline
210
0.0
220
0.0
230
1.0
 70
    11
 71
     3
 72
    24
 73
    20
 74
     0
 42
0.0000000001
 43
0.0000000001
 12
1.0
 22
0.0
 32
0.0
 13
1.0
 23
0.0
 33
0.0
 40
0.0
 40
0.0
 40
0.0
 40
0.0
 40
0.1666666666666667
 40
0.1666666666666667
 40
0.1666666666666667
 40
0.1666666666666667
 40
0.3333333333333333
 40
0.3333333333333333
 40
0.3333333333333333
 40
0.3333333333333333
 40
0.5
 40
0.5
 40
0.5
 40
0.5
 40
0.6666666666666666
 40
0.6666666666666666
 40
0.6666666666666666
 40
0.6666666666666666
 40
1.0
 40
1.0
 40
1.0
 40
1.0
 10
9.79382
 20
-0.0896
 30
0.0
 10
9.79382
 20
-0.0896
 30
0.0
 10
9.79382
 20
-0.0896
 30
0.0
 10
9.79382
 20
-0.0896
 30
0.0
 10
9.79382
 20
-0.0896
 30
0.0
 10
9.66504
 20
-0.1584
 30
0.0
 10
9.52076
 20
-0.25964
 30
0.0
 10
9.52429
 20
-0.42298
 30
0.0
 10
9.52429
 20
-0.42298
 30
0.0
 10
9.69785
 20
-0.45013
 30
0.0
 10
9.89117
 20
-0.46708
 30
0.0
 10
10.05134
 20
-0.38135
 30
0.0
 10
10.05134
 20
-0.38135
 30
0.0
 10
10.15083
 20
-0.28928
 30
0.0
 10
10.16669
 20
-0.14216
 30
0.0
 10
10.21396
 20
-0.0208
 30
0.0
 10
10.21396
 20
-0.0208
 30
0.0
 10
10.07251
 20
-0.02962
 30
0.0
 10
9.9254
 20
-0.03281
 30
0.0
 10
9.79382
 20
-0.0896
 30
0.0
  0
SPLINE
  5
48
330
1F
100
AcDbEntity
  8
Camada 1
 62
   156
100
AcDbSpline
210
0.0
220
0.0
230
1.0
 70
    11
 71
     3
 72
    24
 73
    20
 74
     0
 42
0.0000000001
 43
0.0000000001
 12
1.0
 22
0.0
 32
0.0
 13
1.0
 23
0.0
 33
0.0
 40
0.0
 40
0.0
 40
0.0
 40
0.0
 40
0.1666666666666667
 40
0.1666666666666667
 40
0.1666666666666667
 40
0.1666666666666667
 40
0.3333333333333333
 40
0.3333333333333333
 40
0.3333333333333333
 40
0.3333333333333333
 40
0.5
 40
0.5
 40
0.5
 40
0.5
 40
0.6666666666666666
 40
0.6666666666666666
 40
0.6666666666666666
 40
0.6666666666666666
 40
1.0
 40
1.0
 40
1.0
 40
1.0
 10
-9.74866
 20
-0.23388
 30
0.0
 10
-9.74866
 20
-0.23388
 30
0.0
 10
-9.74866
 20
-0.23388
 30
0.0
 10
-9.74866
 20
-0.23388
 30
0.0
 10
-9.74866
 20
-0.23388
 30
0.0
 10
-9.84426
 20
-0.29562
 30
0.0
 10
-9.93457
 20
-0.39263
 30
0.0
 10
-9.91834
 20
-0.51576
 30
0.0
 10
-9.91834
 20
-0.51576
 30
0.0
 10
-9.761
 20
-0.52069
 30
0.0
 10
-9.59873
 20
-0.53903
 30
0.0
 10
-9.44491
 20
-0.49671
 30
0.0
 10
-9.44491
 20
-0.49671
 30
0.0
 10
-9.29745
 20
-0.4318
 30
0.0
 10
-9.28511
 20
-0.24482
 30
0.0
 10
-9.23924
 20
-0.11007
 30
0.0
 10
-9.23924
 20
-0.11007
 30
0.0
 10
-9.41352
 20
-0.1157
 30
0.0
 10
-9.60578
 20
-0.11959
 30
0.0
 10
-9.74866
 20
-0.23388
 30
0.0
  0
ENDSEC
  0
SECTION
  2
OBJECTS
  0
DICTIONARY
  5
C
330
0
100
AcDbDictionary
281
     1
  3
ACAD_GROUP
350
D
  3
ACAD_LAYOUT
350
1A
  3
ACAD_MATERIAL
350
3B
  3
ACAD_MLEADERSTYLE
350
6A
  3
ACAD_MLINESTYLE
350
17
  3
ACAD_PLOTSETTINGS
350
19
  3
ACAD_PLOTSTYLENAME
350
E
  3
ACAD_TABLESTYLE
350
69
  3
ACAD_VISUALSTYLE
350
2A
  0
DICTIONARY
  5
D
102
{ACAD_REACTORS
330
C
102
}
330
C
100
AcDbDictionary
281
     1
  0
DICTIONARY
  5
1A
102
{ACAD_REACTORS
330
C
102
}
330
C
100
AcDbDictionary
281
     1
  3
Layout1
350
1E
  3
Layout2
350
26
  3
Model
350
22
  0
DICTIONARY
  5
3B
102
{ACAD_REACTORS
330
C
102
}
330
C
100
AcDbDictionary
281
     1
  3
ByBlock
350
3D
  3
ByLayer
350
3C
  3
Global
350
3E
  0
DICTIONARY
  5
6A
102
{ACAD_REACTORS
330
C
102
}
330
C
100
AcDbDictionary
281
     1
  0
DICTIONARY
  5
17
102
{ACAD_REACTORS
330
C
102
}
330
C
100
AcDbDictionary
281
     1
  3
Standard
350
18
  0
DICTIONARY
  5
19
102
{ACAD_REACTORS
330
C
102
}
330
C
100
AcDbDictionary
281
     1
  0
ACDBDICTIONARYWDFLT
  5
E
102
{ACAD_REACTORS
330
C
102
}
330
C
100
AcDbDictionary
281
     1
  3
Normal
350
F
100
AcDbDictionaryWithDefault
340
F
  0
DICTIONARY
  5
69
102
{ACAD_REACTORS
330
C
102
}
330
C
100
AcDbDictionary
281
     1
  0
DICTIONARY
  5
2A
102
{ACAD_REACTORS
330
C
102
}
330
C
100
AcDbDictionary
281
     1
  3
2dWireframe
350
2F
  3
3D Hidden
350
31
  3
3dWireframe
350
30
  3
Basic
350
32
  3
Brighten
350
36
  3
ColorChange
350
3A
  3
Conceptual
350
34
  3
Dim
350
35
  3
Facepattern
350
39
  3
Flat
350
2B
  3
FlatWithEdges
350
2C
  3
Gouraud
350
2D
  3
GouraudWithEdges
350
2E
  3
Linepattern
350
38
  3
Realistic
350
33
  3
Thicken
350
37
  0
LAYOUT
  5
1E
102
{ACAD_REACTORS
330
1A
102
}
330
1A
100
AcDbPlotSettings
  1

  2
none_device
  4

  6

 40
0.0
 41
0.0
 42
0.0
 43
0.0
 44
0.0
 45
0.0
 46
0.0
 47
0.0
 48
0.0
 49
0.0
140
0.0
141
0.0
142
1.0
143
1.0
 70
   688
 72
     0
 73
     0
 74
     5
  7

 75
    16
 76
     0
 77
     2
 78
   300
147
1.0
148
0.0
149
0.0
100
AcDbLayout
  1
Layout1
 70
     1
 71
     1
 10
0.0
 20
0.0
 11
12.0
 21
9.0
 12
0.0
 22
0.0
 32
0.0
 14
1.000000000000000E+20
 24
1.000000000000000E+20
 34
1.000000000000000E+20
 15
-1.000000000000000E+20
 25
-1.000000000000000E+20
 35
-1.000000000000000E+20
146
0.0
 13
0.0
 23
0.0
 33
0.0
 16
1.0
 26
0.0
 36
0.0
 17
0.0
 27
1.0
 37
0.0
 76
     0
330
1B
  0
LAYOUT
  5
26
102
{ACAD_REACTORS
330
1A
102
}
330
1A
100
AcDbPlotSettings
  1

  2
none_device
  4

  6

 40
0.0
 41
0.0
 42
0.0
 43
0.0
 44
0.0
 45
0.0
 46
0.0
 47
0.0
 48
0.0
 49
0.0
140
0.0
141
0.0
142
1.0
143
1.0
 70
   688
 72
     0
 73
     0
 74
     5
  7

 75
    16
 76
     0
 77
     2
 78
   300
147
1.0
148
0.0
149
0.0
100
AcDbLayout
  1
Layout2
 70
     1
 71
     2
 10
0.0
 20
0.0
 11
0.0
 21
0.0
 12
0.0
 22
0.0
 32
0.0
 14
0.0
 24
0.0
 34
0.0
 15
0.0
 25
0.0
 35
0.0
146
0.0
 13
0.0
 23
0.0
 33
0.0
 16
1.0
 26
0.0
 36
0.0
 17
0.0
 27
1.0
 37
0.0
 76
     0
330
23
  0
LAYOUT
  5
22
102
{ACAD_REACTORS
330
1A
102
}
330
1A
100
AcDbPlotSettings
  1

  2
none_device
  4

  6

 40
0.0
 41
0.0
 42
0.0
 43
0.0
 44
0.0
 45
0.0
 46
0.0
 47
0.0
 48
0.0
 49
0.0
140
0.0
141
0.0
142
1.0
143
1.0
 70
  1712
 72
     0
 73
     0
 74
     0
  7

 75
     0
 76
     0
 77
     2
 78
   300
147
1.0
148
0.0
149
0.0
100
AcDbLayout
  1
Model
 70
     1
 71
     0
 10
0.0
 20
0.0
 11
12.0
 21
9.0
 12
0.0
 22
0.0
 32
0.0
 14
-13.3684
 24
-2.03444
 34
0.0
 15
13.30879
 25
1.97758
 35
0.0
146
0.0
 13
0.0
 23
0.0
 33
0.0
 16
1.0
 26
0.0
 36
0.0
 17
0.0
 27
1.0
 37
0.0
 76
     0
330
1F
331
29
  0
MATERIAL
  5
3D
102
{ACAD_REACTORS
330
3B
102
}
330
3B
100
AcDbMaterial
  1
ByBlock
 72
     1
 94
      127
  0
MATERIAL
  5
3C
102
{ACAD_REACTORS
330
3B
102
}
330
3B
100
AcDbMaterial
  1
ByLayer
 72
     1
 94
      127
  0
MATERIAL
  5
3E
102
{ACAD_REACTORS
330
3B
102
}
330
3B
100
AcDbMaterial
  1
Global
 72
     1
 94
      127
  0
MLINESTYLE
  5
18
102
{ACAD_REACTORS
330
17
102
}
330
17
100
AcDbMlineStyle
  2
Standard
 70
     0
  3

 62
   256
 51
90.0
 52
90.0
 71
     2
 49
0.5
 62
   256
  6
BYLAYER
 49
-0.5
 62
   256
  6
BYLAYER
  0
ACDBPLACEHOLDER
  5
F
102
{ACAD_REACTORS
330
E
102
}
330
E
  0
VISUALSTYLE
  5
2F
102
{ACAD_REACTORS
330
2A
102
}
102
{ACAD_XDICTIONARY
360
51
102
}
330
2A
100
AcDbVisualStyle
  2
2dWireframe
 70
     4
 71
     0
 72
     2
 73
     0
 90
        0
 40
-0.6
 41
-30.0
 62
     5
 63
     7
421
 16777215
 74
     1
 91
        4
 64
     7
 65
   257
 75
     1
175
     1
 42
1.0
 92
        0
 66
   257
 43
1.0
 76
     1
 77
     6
 78
     2
 67
     7
 79
     5
170
     0
171
     0
290
     0
174
     0
 93
        1
 44
0.0
173
     0
291
     0
 45
0.0
  0
VISUALSTYLE
  5
31
102
{ACAD_REACTORS
330
2A
102
}
102
{ACAD_XDICTIONARY
360
55
102
}
330
2A
100
AcDbVisualStyle
  2
3D Hidden
 70
     6
 71
     1
 72
     2
 73
     2
 90
        0
 40
-0.6
 41
-30.0
 62
     5
 63
     7
421
 16777215
 74
     2
 91
        2
 64
     7
 65
   257
 75
     2
175
     1
 42
40.0
 92
        0
 66
   257
 43
1.0
 76
     1
 77
     6
 78
     2
 67
     7
 79
     3
170
     0
171
     0
290
     0
174
     0
 93
        1
 44
0.0
173
     0
291
     0
 45
0.0
  0
VISUALSTYLE
  5
30
102
{ACAD_REACTORS
330
2A
102
}
102
{ACAD_XDICTIONARY
360
53
102
}
330
2A
100
AcDbVisualStyle
  2
3dWireframe
 70
     5
 71
     0
 72
     2
 73
     0
 90
        0
 40
-0.6
 41
-30.0
 62
     5
 63
     7
421
 16777215
 74
     1
 91
        4
 64
     7
 65
   257
 75
     1
175
     1
 42
1.0
 92
        0
 66
   257
 43
1.0
 76
     1
 77
     6
 78
     2
 67
     7
 79
     5
170
     0
171
     0
290
     0
174
     0
 93
        1
 44
0.0
173
     0
291
     0
 45
0.0
  0
VISUALSTYLE
  5
32
102
{ACAD_REACTORS
330
2A
102
}
102
{ACAD_XDICTIONARY
360
57
102
}
330
2A
100
AcDbVisualStyle
  2
Basic
 70
     7
 71
     1
 72
     0
 73
     1
 90
        0
 40
-0.6
 41
-30.0
 62
     5
 63
     7
421
 16777215
 74
     0
 91
        4
 64
     7
 65
   257
 75
     1
175
     1
 42
1.0
 92
        8
 66
     7
 43
1.0
 76
     1
 77
     6
 78
     2
 67
     7
 79
     5
170
     0
171
     0
290
     0
174
     0
 93
        1
 44
0.0
173
     0
291
     1
 45
0.0
  0
VISUALSTYLE
  5
36
102
{ACAD_REACTORS
330
2A
102
}
102
{ACAD_XDICTIONARY
360
5F
102
}
330
2A
100
AcDbVisualStyle
  2
Brighten
 70
    12
 71
     2
 72
     2
 73
     0
 90
        0
 40
-0.6
 41
-30.0
 62
     5
 63
     7
421
 16777215
 74
     1
 91
        4
 64
     7
 65
   257
 75
     1
175
     1
 42
1.0
 92
        8
 66
     7
 43
1.0
 76
     1
 77
     6
 78
     2
 67
     7
 79
     5
170
     0
171
     0
290
     0
174
     0
 93
        1
 44
50.0
173
     0
291
     1
 45
0.0
  0
VISUALSTYLE
  5
3A
102
{ACAD_REACTORS
330
2A
102
}
102
{ACAD_XDICTIONARY
360
67
102
}
330
2A
100
AcDbVisualStyle
  2
ColorChange
 70
    16
 71
     2
 72
     2
 73
     3
 90
        0
 40
-0.6
 41
-30.0
 62
     5
 63
     8
421
  8421504
 74
     1
 91
        4
 64
     7
 65
   257
 75
     1
175
     1
 42
1.0
 92
        8
 66
     8
424
  8421504
 43
1.0
 76
     1
 77
     6
 78
     2
 67
     7
 79
     5
170
     0
171
     0
290
     0
174
     0
 93
        1
 44
0.0
173
     0
291
     1
 45
0.0
  0
VISUALSTYLE
  5
34
102
{ACAD_REACTORS
330
2A
102
}
102
{ACAD_XDICTIONARY
360
5B
102
}
330
2A
100
AcDbVisualStyle
  2
Conceptual
 70
     9
 71
     3
 72
     2
 73
     0
 90
        0
 40
-0.6
 41
-30.0
 62
     5
 63
     7
421
 16777215
 74
     2
 91
        2
 64
     7
 65
   257
 75
     1
175
     1
 42
40.0
 92
        8
 66
     7
 43
1.0
 76
     1
 77
     6
 78
     2
 67
     7
 79
     3
170
     0
171
     0
290
     0
174
     0
 93
        1
 44
0.0
173
     0
291
     0
 45
0.0
  0
VISUALSTYLE
  5
35
102
{ACAD_REACTORS
330
2A
102
}
102
{ACAD_XDICTIONARY
360
5D
102
}
330
2A
100
AcDbVisualStyle
  2
Dim
 70
    11
 71
     2
 72
     2
 73
     0
 90
        0
 40
-0.6
 41
-30.0
 62
     5
 63
     7
421
 16777215
 74
     1
 91
        4
 64
     7
 65
   257
 75
     1
175
     1
 42
1.0
 92
        8
 66
     7
 43
1.0
 76
     1
 77
     6
 78
     2
 67
     7
 79
     5
170
     0
171
     0
290
     0
174
     0
 93
        1
 44
-50.0
173
     0
291
     1
 45
0.0
  0
VISUALSTYLE
  5
39
102
{ACAD_REACTORS
330
2A
102
}
102
{ACAD_XDICTIONARY
360
65
102
}
330
2A
100
AcDbVisualStyle
  2
Facepattern
 70
    15
 71
     2
 72
     2
 73
     0
 90
        0
 40
-0.6
 41
-30.0
 62
     5
 63
     7
421
 16777215
 74
     1
 91
        4
 64
     7
 65
   257
 75
     1
175
     1
 42
1.0
 92
        8
 66
     7
 43
1.0
 76
     1
 77
     6
 78
     2
 67
     7
 79
     5
170
     0
171
     0
290
     0
174
     0
 93
        1
 44
0.0
173
     0
291
     1
 45
0.0
  0
VISUALSTYLE
  5
2B
102
{ACAD_REACTORS
330
2A
102
}
102
{ACAD_XDICTIONARY
360
49
102
}
330
2A
100
AcDbVisualStyle
  2
Flat
 70
     0
 71
     2
 72
     1
 73
     1
 90
        2
 40
-0.6
 41
30.0
 62
     5
 63
     7
421
 16777215
 74
     0
 91
        4
 64
     7
 65
   257
 75
     1
175
     1
 42
1.0
 92
        8
 66
     7
 43
1.0
 76
     1
 77
     6
 78
     2
 67
     7
 79
     5
170
     0
171
     0
290
     0
174
     0
 93
       13
 44
0.0
173
     0
291
     1
 45
0.0
  0
VISUALSTYLE
  5
2C
102
{ACAD_REACTORS
330
2A
102
}
102
{ACAD_XDICTIONARY
360
4B
102
}
330
2A
100
AcDbVisualStyle
  2
FlatWithEdges
 70
     1
 71
     2
 72
     1
 73
     1
 90
        2
 40
-0.6
 41
30.0
 62
     5
 63
     7
421
 16777215
 74
     1
 91
        4
 64
     7
 65
   257
 75
     1
175
     1
 42
1.0
 92
        0
 66
   257
 43
1.0
 76
     1
 77
     6
 78
     2
 67
     7
 79
     5
170
     0
171
     0
290
     0
174
     0
 93
       13
 44
0.0
173
     0
291
     1
 45
0.0
  0
VISUALSTYLE
  5
2D
102
{ACAD_REACTORS
330
2A
102
}
102
{ACAD_XDICTIONARY
360
4D
102
}
330
2A
100
AcDbVisualStyle
  2
Gouraud
 70
     2
 71
     2
 72
     2
 73
     1
 90
        2
 40
-0.6
 41
30.0
 62
     5
 63
     7
421
 16777215
 74
     0
 91
        4
 64
     7
 65
   257
 75
     1
175
     1
 42
1.0
 92
        0
 66
     7
 43
1.0
 76
     1
 77
     6
 78
     2
 67
     7
 79
     5
170
     0
171
     0
290
     0
174
     0
 93
       13
 44
0.0
173
     0
291
     1
 45
0.0
  0
VISUALSTYLE
  5
2E
102
{ACAD_REACTORS
330
2A
102
}
102
{ACAD_XDICTIONARY
360
4F
102
}
330
2A
100
AcDbVisualStyle
  2
GouraudWithEdges
 70
     3
 71
     2
 72
     2
 73
     1
 90
        2
 40
-0.6
 41
30.0
 62
     5
 63
     7
421
 16777215
 74
     1
 91
        4
 64
     7
 65
   257
 75
     1
175
     1
 42
1.0
 92
        0
 66
   257
 43
1.0
 76
     1
 77
     6
 78
     2
 67
     7
 79
     5
170
     0
171
     0
290
     0
174
     0
 93
       13
 44
0.0
173
     0
291
     1
 45
0.0
  0
VISUALSTYLE
  5
38
102
{ACAD_REACTORS
330
2A
102
}
102
{ACAD_XDICTIONARY
360
63
102
}
330
2A
100
AcDbVisualStyle
  2
Linepattern
 70
    14
 71
     2
 72
     2
 73
     0
 90
        0
 40
-0.6
 41
-30.0
 62
     5
 63
     7
421
 16777215
 74
     1
 91
        4
 64
     7
 65
   257
 75
     7
175
     7
 42
1.0
 92
        8
 66
     7
 43
1.0
 76
     1
 77
     6
 78
     2
 67
     7
 79
     5
170
     0
171
     0
290
     0
174
     0
 93
        1
 44
0.0
173
     0
291
     1
 45
0.0
  0
VISUALSTYLE
  5
33
102
{ACAD_REACTORS
330
2A
102
}
102
{ACAD_XDICTIONARY
360
59
102
}
330
2A
100
AcDbVisualStyle
  2
Realistic
 70
     8
 71
     2
 72
     2
 73
     0
 90
        0
 40
-0.6
 41
-30.0
 62
     5
 63
     7
421
 16777215
 74
     1
 91
        0
 64
     7
 65
   257
 75
     1
175
     1
 42
1.0
 92
        8
 66
     8
424
  7895160
 43
1.0
 76
     1
 77
     6
 78
     2
 67
     7
 79
     5
170
     0
171
     0
290
     0
174
     0
 93
       13
 44
0.0
173
     0
291
     0
 45
0.0
  0
VISUALSTYLE
  5
37
102
{ACAD_REACTORS
330
2A
102
}
102
{ACAD_XDICTIONARY
360
61
102
}
330
2A
100
AcDbVisualStyle
  2
Thicken
 70
    13
 71
     2
 72
     2
 73
     0
 90
        0
 40
-0.6
 41
-30.0
 62
     5
 63
     7
421
 16777215
 74
     1
 91
        4
 64
     7
 65
   257
 75
     1
175
     1
 42
1.0
 92
       12
 66
     7
 43
1.0
 76
     1
 77
     6
 78
     2
 67
     7
 79
     5
170
     0
171
     0
290
     0
174
     0
 93
        1
 44
0.0
173
     0
291
     1
 45
0.0
  0
DICTIONARY
  5
51
330
2F
100
AcDbDictionary
280
     1
281
     1
  3
ACAD_XREC_ROUNDTRIP
360
52
  0
DICTIONARY
  5
55
330
31
100
AcDbDictionary
280
     1
281
     1
  3
ACAD_XREC_ROUNDTRIP
360
56
  0
DICTIONARY
  5
53
330
30
100
AcDbDictionary
280
     1
281
     1
  3
ACAD_XREC_ROUNDTRIP
360
54
  0
DICTIONARY
  5
57
330
32
100
AcDbDictionary
280
     1
281
     1
  3
ACAD_XREC_ROUNDTRIP
360
58
  0
DICTIONARY
  5
5F
330
36
100
AcDbDictionary
280
     1
281
     1
  3
ACAD_XREC_ROUNDTRIP
360
60
  0
DICTIONARY
  5
67
330
3A
100
AcDbDictionary
280
     1
281
     1
  3
ACAD_XREC_ROUNDTRIP
360
68
  0
DICTIONARY
  5
5B
330
34
100
AcDbDictionary
280
     1
281
     1
  3
ACAD_XREC_ROUNDTRIP
360
5C
  0
DICTIONARY
  5
5D
330
35
100
AcDbDictionary
280
     1
281
     1
  3
ACAD_XREC_ROUNDTRIP
360
5E
  0
DICTIONARY
  5
65
330
39
100
AcDbDictionary
280
     1
281
     1
  3
ACAD_XREC_ROUNDTRIP
360
66
  0
DICTIONARY
  5
49
330
2B
100
AcDbDictionary
280
     1
281
     1
  3
ACAD_XREC_ROUNDTRIP
360
4A
  0
DICTIONARY
  5
4B
330
2C
100
AcDbDictionary
280
     1
281
     1
  3
ACAD_XREC_ROUNDTRIP
360
4C
  0
DICTIONARY
  5
4D
330
2D
100
AcDbDictionary
280
     1
281
     1
  3
ACAD_XREC_ROUNDTRIP
360
4E
  0
DICTIONARY
  5
4F
330
2E
100
AcDbDictionary
280
     1
281
     1
  3
ACAD_XREC_ROUNDTRIP
360
50
  0
DICTIONARY
  5
63
330
38
100
AcDbDictionary
280
     1
281
     1
  3
ACAD_XREC_ROUNDTRIP
360
64
  0
DICTIONARY
  5
59
330
33
100
AcDbDictionary
280
     1
281
     1
  3
ACAD_XREC_ROUNDTRIP
360
5A
  0
DICTIONARY
  5
61
330
37
100
AcDbDictionary
280
     1
281
     1
  3
ACAD_XREC_ROUNDTRIP
360
62
  0
XRECORD
  5
52
102
{ACAD_REACTORS
330
51
102
}
330
51
100
AcDbXrecord
280
     1
102
RTVSPropertyOp0
 70
     1
102
RTVSPropertyOp1
 70
     1
102
RTVSPropertyOp2
 70
     1
102
RTVSPropertyOp3
 70
     1
102
RTVSPropertyOp4
 70
     1
102
RTVSPropertyOp5
 70
     1
102
RTVSPropertyOp6
 70
     1
102
RTVSPropertyOp7
 70
     1
102
RTVSPropertyOp8
 70
     1
102
RTVSPropertyOp9
 70
     1
102
RTVSPropertyOp10
 70
     1
102
RTVSPropertyOp11
 70
     1
102
RTVSPropertyOp12
 70
     1
102
RTVSPropertyOp13
 70
     1
102
RTVSPropertyOp14
 70
     1
102
RTVSPropertyOp15
 70
     1
102
RTVSPropertyOp16
 70
     1
102
RTVSPropertyOp17
 70
     1
102
RTVSPropertyOp18
 70
     1
102
RTVSPropertyOp19
 70
     1
102
RTVSPropertyOp20
 70
     1
102
RTVSPropertyOp21
 70
     1
102
RTVSPropertyOp22
 70
     1
102
RTVSPropertyOp23
 70
     1
102
RTVSPropertyOp24
 70
     1
102
RTVSPropertyOp25
 70
     1
102
RTVSPropertyOp26
 70
     1
102
RTVSPropertyOp27
 70
     1
102
RTVSPropertyOp28
 70
     1
102
RTVSPropertyOp29
 70
     1
102
RTVSPropertyOp30
 70
     1
102
RTVSPropertyOp31
 70
     1
102
RTVSPropertyOp32
 70
     1
  0
XRECORD
  5
56
102
{ACAD_REACTORS
330
55
102
}
330
55
100
AcDbXrecord
280
     1
102
RTVSPropertyOp0
 70
     1
102
RTVSPropertyOp1
 70
     1
102
RTVSPropertyOp2
 70
     1
102
RTVSPropertyOp3
 70
     1
102
RTVSPropertyOp4
 70
     1
102
RTVSPropertyOp5
 70
     1
102
RTVSPropertyOp6
 70
     1
102
RTVSPropertyOp7
 70
     1
102
RTVSPropertyOp8
 70
     1
102
RTVSPropertyOp9
 70
     1
102
RTVSPropertyOp10
 70
     1
102
RTVSPropertyOp11
 70
     1
102
RTVSPropertyOp12
 70
     1
102
RTVSPropertyOp13
 70
     1
102
RTVSPropertyOp14
 70
     1
102
RTVSPropertyOp15
 70
     1
102
RTVSPropertyOp16
 70
     1
102
RTVSPropertyOp17
 70
     1
102
RTVSPropertyOp18
 70
     1
102
RTVSPropertyOp19
 70
     1
102
RTVSPropertyOp20
 70
     1
102
RTVSPropertyOp21
 70
     1
102
RTVSPropertyOp22
 70
     1
102
RTVSPropertyOp23
 70
     1
102
RTVSPropertyOp24
 70
     1
102
RTVSPropertyOp25
 70
     1
102
RTVSPropertyOp26
 70
     1
102
RTVSPropertyOp27
 70
     1
102
RTVSPropertyOp28
 70
     1
102
RTVSPropertyOp29
 70
     1
102
RTVSPropertyOp30
 70
     1
102
RTVSPropertyOp31
 70
     1
102
RTVSPropertyOp32
 70
     1
  0
XRECORD
  5
54
102
{ACAD_REACTORS
330
53
102
}
330
53
100
AcDbXrecord
280
     1
102
RTVSPropertyOp0
 70
     1
102
RTVSPropertyOp1
 70
     1
102
RTVSPropertyOp2
 70
     1
102
RTVSPropertyOp3
 70
     1
102
RTVSPropertyOp4
 70
     1
102
RTVSPropertyOp5
 70
     1
102
RTVSPropertyOp6
 70
     1
102
RTVSPropertyOp7
 70
     1
102
RTVSPropertyOp8
 70
     1
102
RTVSPropertyOp9
 70
     1
102
RTVSPropertyOp10
 70
     1
102
RTVSPropertyOp11
 70
     1
102
RTVSPropertyOp12
 70
     1
102
RTVSPropertyOp13
 70
     1
102
RTVSPropertyOp14
 70
     1
102
RTVSPropertyOp15
 70
     1
102
RTVSPropertyOp16
 70
     1
102
RTVSPropertyOp17
 70
     1
102
RTVSPropertyOp18
 70
     1
102
RTVSPropertyOp19
 70
     1
102
RTVSPropertyOp20
 70
     1
102
RTVSPropertyOp21
 70
     1
102
RTVSPropertyOp22
 70
     1
102
RTVSPropertyOp23
 70
     1
102
RTVSPropertyOp24
 70
     1
102
RTVSPropertyOp25
 70
     1
102
RTVSPropertyOp26
 70
     1
102
RTVSPropertyOp27
 70
     1
102
RTVSPropertyOp28
 70
     1
102
RTVSPropertyOp29
 70
     1
102
RTVSPropertyOp30
 70
     1
102
RTVSPropertyOp31
 70
     1
102
RTVSPropertyOp32
 70
     1
  0
XRECORD
  5
58
102
{ACAD_REACTORS
330
57
102
}
330
57
100
AcDbXrecord
280
     1
102
RTVSPropertyOp0
 70
     1
102
RTVSPropertyOp1
 70
     1
102
RTVSPropertyOp2
 70
     1
102
RTVSPropertyOp3
 70
     1
102
RTVSPropertyOp4
 70
     1
102
RTVSPropertyOp5
 70
     1
102
RTVSPropertyOp6
 70
     1
102
RTVSPropertyOp7
 70
     1
102
RTVSPropertyOp8
 70
     1
102
RTVSPropertyOp9
 70
     1
102
RTVSPropertyOp10
 70
     1
102
RTVSPropertyOp11
 70
     1
102
RTVSPropertyOp12
 70
     1
102
RTVSPropertyOp13
 70
     1
102
RTVSPropertyOp14
 70
     1
102
RTVSPropertyOp15
 70
     1
102
RTVSPropertyOp16
 70
     1
102
RTVSPropertyOp17
 70
     1
102
RTVSPropertyOp18
 70
     1
102
RTVSPropertyOp19
 70
     1
102
RTVSPropertyOp20
 70
     1
102
RTVSPropertyOp21
 70
     1
102
RTVSPropertyOp22
 70
     1
102
RTVSPropertyOp23
 70
     1
102
RTVSPropertyOp24
 70
     1
102
RTVSPropertyOp25
 70
     1
102
RTVSPropertyOp26
 70
     1
102
RTVSPropertyOp27
 70
     1
102
RTVSPropertyOp28
 70
     1
102
RTVSPropertyOp29
 70
     1
102
RTVSPropertyOp30
 70
     1
102
RTVSPropertyOp31
 70
     1
102
RTVSPropertyOp32
 70
     1
  0
XRECORD
  5
60
102
{ACAD_REACTORS
330
5F
102
}
330
5F
100
AcDbXrecord
280
     1
102
RTVSPropertyOp0
 70
     1
102
RTVSPropertyOp1
 70
     1
102
RTVSPropertyOp2
 70
     1
102
RTVSPropertyOp3
 70
     1
102
RTVSPropertyOp4
 70
     1
102
RTVSPropertyOp5
 70
     1
102
RTVSPropertyOp6
 70
     1
102
RTVSPropertyOp7
 70
     1
102
RTVSPropertyOp8
 70
     1
102
RTVSPropertyOp9
 70
     1
102
RTVSPropertyOp10
 70
     1
102
RTVSPropertyOp11
 70
     1
102
RTVSPropertyOp12
 70
     1
102
RTVSPropertyOp13
 70
     1
102
RTVSPropertyOp14
 70
     1
102
RTVSPropertyOp15
 70
     1
102
RTVSPropertyOp16
 70
     1
102
RTVSPropertyOp17
 70
     1
102
RTVSPropertyOp18
 70
     1
102
RTVSPropertyOp19
 70
     1
102
RTVSPropertyOp20
 70
     1
102
RTVSPropertyOp21
 70
     1
102
RTVSPropertyOp22
 70
     1
102
RTVSPropertyOp23
 70
     1
102
RTVSPropertyOp24
 70
     1
102
RTVSPropertyOp25
 70
     1
102
RTVSPropertyOp26
 70
     1
102
RTVSPropertyOp27
 70
     1
102
RTVSPropertyOp28
 70
     1
102
RTVSPropertyOp29
 70
     1
102
RTVSPropertyOp30
 70
     1
102
RTVSPropertyOp31
 70
     1
102
RTVSPropertyOp32
 70
     1
  0
XRECORD
  5
68
102
{ACAD_REACTORS
330
67
102
}
330
67
100
AcDbXrecord
280
     1
102
RTVSPropertyOp0
 70
     1
102
RTVSPropertyOp1
 70
     1
102
RTVSPropertyOp2
 70
     1
102
RTVSPropertyOp3
 70
     1
102
RTVSPropertyOp4
 70
     1
102
RTVSPropertyOp5
 70
     1
102
RTVSPropertyOp6
 70
     1
102
RTVSPropertyOp7
 70
     1
102
RTVSPropertyOp8
 70
     1
102
RTVSPropertyOp9
 70
     1
102
RTVSPropertyOp10
 70
     1
102
RTVSPropertyOp11
 70
     1
102
RTVSPropertyOp12
 70
     1
102
RTVSPropertyOp13
 70
     1
102
RTVSPropertyOp14
 70
     1
102
RTVSPropertyOp15
 70
     1
102
RTVSPropertyOp16
 70
     1
102
RTVSPropertyOp17
 70
     1
102
RTVSPropertyOp18
 70
     1
102
RTVSPropertyOp19
 70
     1
102
RTVSPropertyOp20
 70
     1
102
RTVSPropertyOp21
 70
     1
102
RTVSPropertyOp22
 70
     1
102
RTVSPropertyOp23
 70
     1
102
RTVSPropertyOp24
 70
     1
102
RTVSPropertyOp25
 70
     1
102
RTVSPropertyOp26
 70
     1
102
RTVSPropertyOp27
 70
     1
102
RTVSPropertyOp28
 70
     1
102
RTVSPropertyOp29
 70
     1
102
RTVSPropertyOp30
 70
     1
102
RTVSPropertyOp31
 70
     1
102
RTVSPropertyOp32
 70
     1
  0
XRECORD
  5
5C
102
{ACAD_REACTORS
330
5B
102
}
330
5B
100
AcDbXrecord
280
     1
102
RTVSPropertyOp0
 70
     1
102
RTVSPropertyOp1
 70
     1
102
RTVSPropertyOp2
 70
     1
102
RTVSPropertyOp3
 70
     1
102
RTVSPropertyOp4
 70
     1
102
RTVSPropertyOp5
 70
     1
102
RTVSPropertyOp6
 70
     1
102
RTVSPropertyOp7
 70
     1
102
RTVSPropertyOp8
 70
     1
102
RTVSPropertyOp9
 70
     1
102
RTVSPropertyOp10
 70
     1
102
RTVSPropertyOp11
 70
     1
102
RTVSPropertyOp12
 70
     1
102
RTVSPropertyOp13
 70
     1
102
RTVSPropertyOp14
 70
     1
102
RTVSPropertyOp15
 70
     1
102
RTVSPropertyOp16
 70
     1
102
RTVSPropertyOp17
 70
     1
102
RTVSPropertyOp18
 70
     1
102
RTVSPropertyOp19
 70
     1
102
RTVSPropertyOp20
 70
     1
102
RTVSPropertyOp21
 70
     1
102
RTVSPropertyOp22
 70
     1
102
RTVSPropertyOp23
 70
     1
102
RTVSPropertyOp24
 70
     1
102
RTVSPropertyOp25
 70
     1
102
RTVSPropertyOp26
 70
     1
102
RTVSPropertyOp27
 70
     1
102
RTVSPropertyOp28
 70
     1
102
RTVSPropertyOp29
 70
     1
102
RTVSPropertyOp30
 70
     1
102
RTVSPropertyOp31
 70
     1
102
RTVSPropertyOp32
 70
     1
  0
XRECORD
  5
5E
102
{ACAD_REACTORS
330
5D
102
}
330
5D
100
AcDbXrecord
280
     1
102
RTVSPropertyOp0
 70
     1
102
RTVSPropertyOp1
 70
     1
102
RTVSPropertyOp2
 70
     1
102
RTVSPropertyOp3
 70
     1
102
RTVSPropertyOp4
 70
     1
102
RTVSPropertyOp5
 70
     1
102
RTVSPropertyOp6
 70
     1
102
RTVSPropertyOp7
 70
     1
102
RTVSPropertyOp8
 70
     1
102
RTVSPropertyOp9
 70
     1
102
RTVSPropertyOp10
 70
     1
102
RTVSPropertyOp11
 70
     1
102
RTVSPropertyOp12
 70
     1
102
RTVSPropertyOp13
 70
     1
102
RTVSPropertyOp14
 70
     1
102
RTVSPropertyOp15
 70
     1
102
RTVSPropertyOp16
 70
     1
102
RTVSPropertyOp17
 70
     1
102
RTVSPropertyOp18
 70
     1
102
RTVSPropertyOp19
 70
     1
102
RTVSPropertyOp20
 70
     1
102
RTVSPropertyOp21
 70
     1
102
RTVSPropertyOp22
 70
     1
102
RTVSPropertyOp23
 70
     1
102
RTVSPropertyOp24
 70
     1
102
RTVSPropertyOp25
 70
     1
102
RTVSPropertyOp26
 70
     1
102
RTVSPropertyOp27
 70
     1
102
RTVSPropertyOp28
 70
     1
102
RTVSPropertyOp29
 70
     1
102
RTVSPropertyOp30
 70
     1
102
RTVSPropertyOp31
 70
     1
102
RTVSPropertyOp32
 70
     1
  0
XRECORD
  5
66
102
{ACAD_REACTORS
330
65
102
}
330
65
100
AcDbXrecord
280
     1
102
RTVSPropertyOp0
 70
     1
102
RTVSPropertyOp1
 70
     1
102
RTVSPropertyOp2
 70
     1
102
RTVSPropertyOp3
 70
     1
102
RTVSPropertyOp4
 70
     1
102
RTVSPropertyOp5
 70
     1
102
RTVSPropertyOp6
 70
     1
102
RTVSPropertyOp7
 70
     1
102
RTVSPropertyOp8
 70
     1
102
RTVSPropertyOp9
 70
     1
102
RTVSPropertyOp10
 70
     1
102
RTVSPropertyOp11
 70
     1
102
RTVSPropertyOp12
 70
     1
102
RTVSPropertyOp13
 70
     1
102
RTVSPropertyOp14
 70
     1
102
RTVSPropertyOp15
 70
     1
102
RTVSPropertyOp16
 70
     1
102
RTVSPropertyOp17
 70
     1
102
RTVSPropertyOp18
 70
     1
102
RTVSPropertyOp19
 70
     1
102
RTVSPropertyOp20
 70
     1
102
RTVSPropertyOp21
 70
     1
102
RTVSPropertyOp22
 70
     1
102
RTVSPropertyOp23
 70
     1
102
RTVSPropertyOp24
 70
     1
102
RTVSPropertyOp25
 70
     1
102
RTVSPropertyOp26
 70
     1
102
RTVSPropertyOp27
 70
     1
102
RTVSPropertyOp28
 70
     1
102
RTVSPropertyOp29
 70
     1
102
RTVSPropertyOp30
 70
     1
102
RTVSPropertyOp31
 70
     1
102
RTVSPropertyOp32
 70
     1
  0
XRECORD
  5
4A
102
{ACAD_REACTORS
330
49
102
}
330
49
100
AcDbXrecord
280
     1
102
RTVSPropertyOp0
 70
     1
102
RTVSPropertyOp1
 70
     1
102
RTVSPropertyOp2
 70
     1
102
RTVSPropertyOp3
 70
     1
102
RTVSPropertyOp4
 70
     1
102
RTVSPropertyOp5
 70
     1
102
RTVSPropertyOp6
 70
     1
102
RTVSPropertyOp7
 70
     1
102
RTVSPropertyOp8
 70
     1
102
RTVSPropertyOp9
 70
     1
102
RTVSPropertyOp10
 70
     1
102
RTVSPropertyOp11
 70
     1
102
RTVSPropertyOp12
 70
     1
102
RTVSPropertyOp13
 70
     1
102
RTVSPropertyOp14
 70
     1
102
RTVSPropertyOp15
 70
     1
102
RTVSPropertyOp16
 70
     1
102
RTVSPropertyOp17
 70
     1
102
RTVSPropertyOp18
 70
     1
102
RTVSPropertyOp19
 70
     1
102
RTVSPropertyOp20
 70
     1
102
RTVSPropertyOp21
 70
     1
102
RTVSPropertyOp22
 70
     1
102
RTVSPropertyOp23
 70
     1
102
RTVSPropertyOp24
 70
     1
102
RTVSPropertyOp25
 70
     1
102
RTVSPropertyOp26
 70
     1
102
RTVSPropertyOp27
 70
     1
102
RTVSPropertyOp28
 70
     1
102
RTVSPropertyOp29
 70
     1
102
RTVSPropertyOp30
 70
     1
102
RTVSPropertyOp31
 70
     1
102
RTVSPropertyOp32
 70
     1
  0
XRECORD
  5
4C
102
{ACAD_REACTORS
330
4B
102
}
330
4B
100
AcDbXrecord
280
     1
102
RTVSPropertyOp0
 70
     1
102
RTVSPropertyOp1
 70
     1
102
RTVSPropertyOp2
 70
     1
102
RTVSPropertyOp3
 70
     1
102
RTVSPropertyOp4
 70
     1
102
RTVSPropertyOp5
 70
     1
102
RTVSPropertyOp6
 70
     1
102
RTVSPropertyOp7
 70
     1
102
RTVSPropertyOp8
 70
     1
102
RTVSPropertyOp9
 70
     1
102
RTVSPropertyOp10
 70
     1
102
RTVSPropertyOp11
 70
     1
102
RTVSPropertyOp12
 70
     1
102
RTVSPropertyOp13
 70
     1
102
RTVSPropertyOp14
 70
     1
102
RTVSPropertyOp15
 70
     1
102
RTVSPropertyOp16
 70
     1
102
RTVSPropertyOp17
 70
     1
102
RTVSPropertyOp18
 70
     1
102
RTVSPropertyOp19
 70
     1
102
RTVSPropertyOp20
 70
     1
102
RTVSPropertyOp21
 70
     1
102
RTVSPropertyOp22
 70
     1
102
RTVSPropertyOp23
 70
     1
102
RTVSPropertyOp24
 70
     1
102
RTVSPropertyOp25
 70
     1
102
RTVSPropertyOp26
 70
     1
102
RTVSPropertyOp27
 70
     1
102
RTVSPropertyOp28
 70
     1
102
RTVSPropertyOp29
 70
     1
102
RTVSPropertyOp30
 70
     1
102
RTVSPropertyOp31
 70
     1
102
RTVSPropertyOp32
 70
     1
  0
XRECORD
  5
4E
102
{ACAD_REACTORS
330
4D
102
}
330
4D
100
AcDbXrecord
280
     1
102
RTVSPropertyOp0
 70
     1
102
RTVSPropertyOp1
 70
     1
102
RTVSPropertyOp2
 70
     1
102
RTVSPropertyOp3
 70
     1
102
RTVSPropertyOp4
 70
     1
102
RTVSPropertyOp5
 70
     1
102
RTVSPropertyOp6
 70
     1
102
RTVSPropertyOp7
 70
     1
102
RTVSPropertyOp8
 70
     1
102
RTVSPropertyOp9
 70
     1
102
RTVSPropertyOp10
 70
     1
102
RTVSPropertyOp11
 70
     1
102
RTVSPropertyOp12
 70
     1
102
RTVSPropertyOp13
 70
     1
102
RTVSPropertyOp14
 70
     1
102
RTVSPropertyOp15
 70
     1
102
RTVSPropertyOp16
 70
     1
102
RTVSPropertyOp17
 70
     1
102
RTVSPropertyOp18
 70
     1
102
RTVSPropertyOp19
 70
     1
102
RTVSPropertyOp20
 70
     1
102
RTVSPropertyOp21
 70
     1
102
RTVSPropertyOp22
 70
     1
102
RTVSPropertyOp23
 70
     1
102
RTVSPropertyOp24
 70
     1
102
RTVSPropertyOp25
 70
     1
102
RTVSPropertyOp26
 70
     1
102
RTVSPropertyOp27
 70
     1
102
RTVSPropertyOp28
 70
     1
102
RTVSPropertyOp29
 70
     1
102
RTVSPropertyOp30
 70
     1
102
RTVSPropertyOp31
 70
     1
102
RTVSPropertyOp32
 70
     1
  0
XRECORD
  5
50
102
{ACAD_REACTORS
330
4F
102
}
330
4F
100
AcDbXrecord
280
     1
102
RTVSPropertyOp0
 70
     1
102
RTVSPropertyOp1
 70
     1
102
RTVSPropertyOp2
 70
     1
102
RTVSPropertyOp3
 70
     1
102
RTVSPropertyOp4
 70
     1
102
RTVSPropertyOp5
 70
     1
102
RTVSPropertyOp6
 70
     1
102
RTVSPropertyOp7
 70
     1
102
RTVSPropertyOp8
 70
     1
102
RTVSPropertyOp9
 70
     1
102
RTVSPropertyOp10
 70
     1
102
RTVSPropertyOp11
 70
     1
102
RTVSPropertyOp12
 70
     1
102
RTVSPropertyOp13
 70
     1
102
RTVSPropertyOp14
 70
     1
102
RTVSPropertyOp15
 70
     1
102
RTVSPropertyOp16
 70
     1
102
RTVSPropertyOp17
 70
     1
102
RTVSPropertyOp18
 70
     1
102
RTVSPropertyOp19
 70
     1
102
RTVSPropertyOp20
 70
     1
102
RTVSPropertyOp21
 70
     1
102
RTVSPropertyOp22
 70
     1
102
RTVSPropertyOp23
 70
     1
102
RTVSPropertyOp24
 70
     1
102
RTVSPropertyOp25
 70
     1
102
RTVSPropertyOp26
 70
     1
102
RTVSPropertyOp27
 70
     1
102
RTVSPropertyOp28
 70
     1
102
RTVSPropertyOp29
 70
     1
102
RTVSPropertyOp30
 70
     1
102
RTVSPropertyOp31
 70
     1
102
RTVSPropertyOp32
 70
     1
  0
XRECORD
  5
64
102
{ACAD_REACTORS
330
63
102
}
330
63
100
AcDbXrecord
280
     1
102
RTVSPropertyOp0
 70
     1
102
RTVSPropertyOp1
 70
     1
102
RTVSPropertyOp2
 70
     1
102
RTVSPropertyOp3
 70
     1
102
RTVSPropertyOp4
 70
     1
102
RTVSPropertyOp5
 70
     1
102
RTVSPropertyOp6
 70
     1
102
RTVSPropertyOp7
 70
     1
102
RTVSPropertyOp8
 70
     1
102
RTVSPropertyOp9
 70
     1
102
RTVSPropertyOp10
 70
     1
102
RTVSPropertyOp11
 70
     1
102
RTVSPropertyOp12
 70
     1
102
RTVSPropertyOp13
 70
     1
102
RTVSPropertyOp14
 70
     1
102
RTVSPropertyOp15
 70
     1
102
RTVSPropertyOp16
 70
     1
102
RTVSPropertyOp17
 70
     1
102
RTVSPropertyOp18
 70
     1
102
RTVSPropertyOp19
 70
     1
102
RTVSPropertyOp20
 70
     1
102
RTVSPropertyOp21
 70
     1
102
RTVSPropertyOp22
 70
     1
102
RTVSPropertyOp23
 70
     1
102
RTVSPropertyOp24
 70
     1
102
RTVSPropertyOp25
 70
     1
102
RTVSPropertyOp26
 70
     1
102
RTVSPropertyOp27
 70
     1
102
RTVSPropertyOp28
 70
     1
102
RTVSPropertyOp29
 70
     1
102
RTVSPropertyOp30
 70
     1
102
RTVSPropertyOp31
 70
     1
102
RTVSPropertyOp32
 70
     1
  0
XRECORD
  5
5A
102
{ACAD_REACTORS
330
59
102
}
330
59
100
AcDbXrecord
280
     1
102
RTVSPropertyOp0
 70
     1
102
RTVSPropertyOp1
 70
     1
102
RTVSPropertyOp2
 70
     1
102
RTVSPropertyOp3
 70
     1
102
RTVSPropertyOp4
 70
     1
102
RTVSPropertyOp5
 70
     1
102
RTVSPropertyOp6
 70
     1
102
RTVSPropertyOp7
 70
     1
102
RTVSPropertyOp8
 70
     1
102
RTVSPropertyOp9
 70
     1
102
RTVSPropertyOp10
 70
     1
102
RTVSPropertyOp11
 70
     1
102
RTVSPropertyOp12
 70
     1
102
RTVSPropertyOp13
 70
     1
102
RTVSPropertyOp14
 70
     1
102
RTVSPropertyOp15
 70
     1
102
RTVSPropertyOp16
 70
     1
102
RTVSPropertyOp17
 70
     1
102
RTVSPropertyOp18
 70
     1
102
RTVSPropertyOp19
 70
     1
102
RTVSPropertyOp20
 70
     1
102
RTVSPropertyOp21
 70
     1
102
RTVSPropertyOp22
 70
     1
102
RTVSPropertyOp23
 70
     1
102
RTVSPropertyOp24
 70
     1
102
RTVSPropertyOp25
 70
     1
102
RTVSPropertyOp26
 70
     1
102
RTVSPropertyOp27
 70
     1
102
RTVSPropertyOp28
 70
     1
102
RTVSPropertyOp29
 70
     1
102
RTVSPropertyOp30
 70
     1
102
RTVSPropertyOp31
 70
     1
102
RTVSPropertyOp32
 70
     1
  0
XRECORD
  5
62
102
{ACAD_REACTORS
330
61
102
}
330
61
100
AcDbXrecord
280
     1
102
RTVSPropertyOp0
 70
     1
102
RTVSPropertyOp1
 70
     1
102
RTVSPropertyOp2
 70
     1
102
RTVSPropertyOp3
 70
     1
102
RTVSPropertyOp4
 70
     1
102
RTVSPropertyOp5
 70
     1
102
RTVSPropertyOp6
 70
     1
102
RTVSPropertyOp7
 70
     1
102
RTVSPropertyOp8
 70
     1
102
RTVSPropertyOp9
 70
     1
102
RTVSPropertyOp10
 70
     1
102
RTVSPropertyOp11
 70
     1
102
RTVSPropertyOp12
 70
     1
102
RTVSPropertyOp13
 70
     1
102
RTVSPropertyOp14
 70
     1
102
RTVSPropertyOp15
 70
     1
102
RTVSPropertyOp16
 70
     1
102
RTVSPropertyOp17
 70
     1
102
RTVSPropertyOp18
 70
     1
102
RTVSPropertyOp19
 70
     1
102
RTVSPropertyOp20
 70
     1
102
RTVSPropertyOp21
 70
     1
102
RTVSPropertyOp22
 70
     1
102
RTVSPropertyOp23
 70
     1
102
RTVSPropertyOp24
 70
     1
102
RTVSPropertyOp25
 70
     1
102
RTVSPropertyOp26
 70
     1
102
RTVSPropertyOp27
 70
     1
102
RTVSPropertyOp28
 70
     1
102
RTVSPropertyOp29
 70
     1
102
RTVSPropertyOp30
 70
     1
102
RTVSPropertyOp31
 70
     1
102
RTVSPropertyOp32
 70
     1
  0
ENDSEC
  0
EOF
