  0
SECTION
  2
HEADER
  9
$ACADVER
  1
AC1021
  9
$ACADMAINTVER
 70
    25
  9
$DWGCODEPAGE
  3
ANSI_1252
  9
$INSBASE
 10
0.0
 20
0.0
 30
0.0
  9
$EXTMIN
 10
-6.40307
 20
-8.76287
 30
0.0
  9
$EXTMAX
 10
6.42011
 20
8.72598
 30
0.0
  9
$LIMMIN
 10
0.0
 20
0.0
  9
$LIMMAX
 10
12.0
 20
9.0
  9
$ORTHOMODE
 70
     0
  9
$REGENMODE
 70
     1
  9
$FILLMODE
 70
     1
  9
$QTEXTMODE
 70
     0
  9
$MIRRTEXT
 70
     1
  9
$LTSCALE
 40
1.0
  9
$ATTMODE
 70
     1
  9
$TEXTSIZE
 40
0.2
  9
$TRACEWID
 40
0.05
  9
$TEXTSTYLE
  7
Standard
  9
$CLAYER
  8
0
  9
$CELTYPE
  6
ByLayer
  9
$CECOLOR
 62
   256
  9
$CELTSCALE
 40
1.0
  9
$DISPSILH
 70
     0
  9
$DIMSCALE
 40
1.0
  9
$DIMASZ
 40
0.18
  9
$DIMEXO
 40
0.0625
  9
$DIMDLI
 40
0.38
  9
$DIMRND
 40
0.0
  9
$DIMDLE
 40
0.0
  9
$DIMEXE
 40
0.18
  9
$DIMTP
 40
0.0
  9
$DIMTM
 40
0.0
  9
$DIMTXT
 40
0.18
  9
$DIMCEN
 40
0.09
  9
$DIMTSZ
 40
0.0
  9
$DIMTOL
 70
     0
  9
$DIMLIM
 70
     0
  9
$DIMTIH
 70
     1
  9
$DIMTOH
 70
     1
  9
$DIMSE1
 70
     0
  9
$DIMSE2
 70
     0
  9
$DIMTAD
 70
     0
  9
$DIMZIN
 70
     0
  9
$DIMBLK
  1

  9
$DIMASO
 70
     1
  9
$DIMSHO
 70
     1
  9
$DIMPOST
  1

  9
$DIMAPOST
  1

  9
$DIMALT
 70
     0
  9
$DIMALTD
 70
     2
  9
$DIMALTF
 40
25.4
  9
$DIMLFAC
 40
1.0
  9
$DIMTOFL
 70
     0
  9
$DIMTVP
 40
0.0
  9
$DIMTIX
 70
     0
  9
$DIMSOXD
 70
     0
  9
$DIMSAH
 70
     0
  9
$DIMBLK1
  1

  9
$DIMBLK2
  1

  9
$DIMSTYLE
  2
Standard
  9
$DIMCLRD
 70
     0
  9
$DIMCLRE
 70
     0
  9
$DIMCLRT
 70
     0
  9
$DIMTFAC
 40
1.0
  9
$DIMGAP
 40
0.09
  9
$DIMJUST
 70
     0
  9
$DIMSD1
 70
     0
  9
$DIMSD2
 70
     0
  9
$DIMTOLJ
 70
     1
  9
$DIMTZIN
 70
     0
  9
$DIMALTZ
 70
     0
  9
$DIMALTTZ
 70
     0
  9
$DIMUPT
 70
     0
  9
$DIMDEC
 70
     4
  9
$DIMTDEC
 70
     4
  9
$DIMALTU
 70
     2
  9
$DIMALTTD
 70
     2
  9
$DIMTXSTY
  7
Standard
  9
$DIMAUNIT
 70
     0
  9
$DIMADEC
 70
     0
  9
$DIMALTRND
 40
0.0
  9
$DIMAZIN
 70
     0
  9
$DIMDSEP
 70
    46
  9
$DIMATFIT
 70
     3
  9
$DIMFRAC
 70
     0
  9
$DIMLDRBLK
  1

  9
$DIMLUNIT
 70
     2
  9
$DIMLWD
 70
    -2
  9
$DIMLWE
 70
    -2
  9
$DIMTMOVE
 70
     0
  9
$DIMFXL
 40
1.0
  9
$DIMFXLON
 70
     0
  9
$DIMJOGANG
 40
0.7853981633974483
  9
$DIMTFILL
 70
     0
  9
$DIMTFILLCLR
 70
     0
  9
$DIMARCSYM
 70
     0
  9
$DIMLTYPE
  6

  9
$DIMLTEX1
  6

  9
$DIMLTEX2
  6

  9
$LUNITS
 70
     2
  9
$LUPREC
 70
     4
  9
$SKETCHINC
 40
0.1
  9
$FILLETRAD
 40
0.5
  9
$AUNITS
 70
     0
  9
$AUPREC
 70
     0
  9
$MENU
  1
.
  9
$ELEVATION
 40
0.0
  9
$PELEVATION
 40
0.0
  9
$THICKNESS
 40
0.0
  9
$LIMCHECK
 70
     0
  9
$CHAMFERA
 40
0.5
  9
$CHAMFERB
 40
0.5
  9
$CHAMFERC
 40
1.0
  9
$CHAMFERD
 40
0.0
  9
$SKPOLY
 70
     0
  9
$TDCREATE
 40
2456871.798910787
  9
$TDUCREATE
 40
2456871.923910787
  9
$TDUPDATE
 40
2456871.798911099
  9
$TDUUPDATE
 40
2456871.923911099
  9
$TDINDWG
 40
0.0000000116
  9
$TDUSRTIMER
 40
0.0000000116
  9
$USRTIMER
 70
     1
  9
$ANGBASE
 50
0.0
  9
$ANGDIR
 70
     0
  9
$PDMODE
 70
     0
  9
$PDSIZE
 40
0.0
  9
$PLINEWID
 40
0.0
  9
$SPLFRAME
 70
     0
  9
$SPLINETYPE
 70
     6
  9
$SPLINESEGS
 70
     8
  9
$HANDSEED
  5
98
  9
$SURFTAB1
 70
     6
  9
$SURFTAB2
 70
     6
  9
$SURFTYPE
 70
     6
  9
$SURFU
 70
     6
  9
$SURFV
 70
     6
  9
$UCSBASE
  2

  9
$UCSNAME
  2

  9
$UCSORG
 10
0.0
 20
0.0
 30
0.0
  9
$UCSXDIR
 10
1.0
 20
0.0
 30
0.0
  9
$UCSYDIR
 10
0.0
 20
1.0
 30
0.0
  9
$UCSORTHOREF
  2

  9
$UCSORTHOVIEW
 70
     0
  9
$UCSORGTOP
 10
0.0
 20
0.0
 30
0.0
  9
$UCSORGBOTTOM
 10
0.0
 20
0.0
 30
0.0
  9
$UCSORGLEFT
 10
0.0
 20
0.0
 30
0.0
  9
$UCSORGRIGHT
 10
0.0
 20
0.0
 30
0.0
  9
$UCSORGFRONT
 10
0.0
 20
0.0
 30
0.0
  9
$UCSORGBACK
 10
0.0
 20
0.0
 30
0.0
  9
$PUCSBASE
  2

  9
$PUCSNAME
  2

  9
$PUCSORG
 10
0.0
 20
0.0
 30
0.0
  9
$PUCSXDIR
 10
1.0
 20
0.0
 30
0.0
  9
$PUCSYDIR
 10
0.0
 20
1.0
 30
0.0
  9
$PUCSORTHOREF
  2

  9
$PUCSORTHOVIEW
 70
     0
  9
$PUCSORGTOP
 10
0.0
 20
0.0
 30
0.0
  9
$PUCSORGBOTTOM
 10
0.0
 20
0.0
 30
0.0
  9
$PUCSORGLEFT
 10
0.0
 20
0.0
 30
0.0
  9
$PUCSORGRIGHT
 10
0.0
 20
0.0
 30
0.0
  9
$PUCSORGFRONT
 10
0.0
 20
0.0
 30
0.0
  9
$PUCSORGBACK
 10
0.0
 20
0.0
 30
0.0
  9
$USERI1
 70
     0
  9
$USERI2
 70
     0
  9
$USERI3
 70
     0
  9
$USERI4
 70
     0
  9
$USERI5
 70
     0
  9
$USERR1
 40
0.0
  9
$USERR2
 40
0.0
  9
$USERR3
 40
0.0
  9
$USERR4
 40
0.0
  9
$USERR5
 40
0.0
  9
$WORLDVIEW
 70
     1
  9
$SHADEDGE
 70
     3
  9
$SHADEDIF
 70
    70
  9
$TILEMODE
 70
     1
  9
$MAXACTVP
 70
    64
  9
$PINSBASE
 10
0.0
 20
0.0
 30
0.0
  9
$PLIMCHECK
 70
     0
  9
$PEXTMIN
 10
1.000000000000000E+20
 20
1.000000000000000E+20
 30
1.000000000000000E+20
  9
$PEXTMAX
 10
-1.000000000000000E+20
 20
-1.000000000000000E+20
 30
-1.000000000000000E+20
  9
$PLIMMIN
 10
0.0
 20
0.0
  9
$PLIMMAX
 10
12.0
 20
9.0
  9
$UNITMODE
 70
     0
  9
$VISRETAIN
 70
     1
  9
$PLINEGEN
 70
     0
  9
$PSLTSCALE
 70
     1
  9
$TREEDEPTH
 70
  3020
  9
$CMLSTYLE
  2
Standard
  9
$CMLJUST
 70
     0
  9
$CMLSCALE
 40
1.0
  9
$PROXYGRAPHICS
 70
     1
  9
$MEASUREMENT
 70
     0
  9
$CELWEIGHT
370
    -1
  9
$ENDCAPS
280
     0
  9
$JOINSTYLE
280
     0
  9
$LWDISPLAY
290
     0
  9
$INSUNITS
 70
     5
  9
$HYPERLINKBASE
  1

  9
$STYLESHEET
  1

  9
$XEDIT
290
     1
  9
$CEPSNTYPE
380
     0
  9
$PSTYLEMODE
290
     1
  9
$FINGERPRINTGUID
  2
{2E4DF830-3BE5-4921-B831-C49E0B50FB45}
  9
$VERSIONGUID
  2
{FAEB1C32-E019-11D5-929B-00C0DF256EC4}
  9
$EXTNAMES
290
     1
  9
$PSVPSCALE
 40
0.0
  9
$OLESTARTUP
290
     0
  9
$SORTENTS
280
   127
  9
$INDEXCTL
280
     0
  9
$HIDETEXT
280
     1
  9
$XCLIPFRAME
290
     0
  9
$HALOGAP
280
     0
  9
$OBSCOLOR
 70
   257
  9
$OBSLTYPE
280
     0
  9
$INTERSECTIONDISPLAY
280
     0
  9
$INTERSECTIONCOLOR
 70
   257
  9
$DIMASSOC
280
     2
  9
$PROJECTNAME
  1

  9
$CAMERADISPLAY
290
     0
  9
$LENSLENGTH
 40
50.0
  9
$CAMERAHEIGHT
 40
0.0
  9
$STEPSPERSEC
 40
2.0
  9
$STEPSIZE
 40
6.0
  9
$3DDWFPREC
 40
2.0
  9
$PSOLWIDTH
 40
0.25
  9
$PSOLHEIGHT
 40
4.0
  9
$LOFTANG1
 40
1.570796326794897
  9
$LOFTANG2
 40
1.570796326794897
  9
$LOFTMAG1
 40
0.0
  9
$LOFTMAG2
 40
0.0
  9
$LOFTPARAM
 70
     7
  9
$LOFTNORMALS
280
     1
  9
$LATITUDE
 40
37.795
  9
$LONGITUDE
 40
-122.394
  9
$NORTHDIRECTION
 40
0.0
  9
$TIMEZONE
 70
 -8000
  9
$LIGHTGLYPHDISPLAY
280
     1
  9
$TILEMODELIGHTSYNCH
280
     1
  9
$SOLIDHIST
280
     1
  9
$SHOWHIST
280
     1
  9
$DWFFRAME
280
     2
  9
$DGNFRAME
280
     2
  9
$REALWORLDSCALE
290
     1
  9
$INTERFERECOLOR
 62
   256
  9
$CSHADOW
280
     0
  9
$SHADOWPLANELOCATION
 40
0.0
  0
ENDSEC
  0
SECTION
  2
CLASSES
  0
CLASS
  1
ACDBDICTIONARYWDFLT
  2
AcDbDictionaryWithDefault
  3
ObjectDBX Classes
 90
        0
 91
        4
280
     0
281
     0
  0
CLASS
  1
VISUALSTYLE
  2
AcDbVisualStyle
  3
ObjectDBX Classes
 90
     4095
 91
        4
280
     0
281
     0
  0
CLASS
  1
MATERIAL
  2
AcDbMaterial
  3
ObjectDBX Classes
 90
     1153
 91
        4
280
     0
281
     0
  0
ENDSEC
  0
SECTION
  2
TABLES
  0
TABLE
  2
VPORT
  5
8
330
0
100
AcDbSymbolTable
 70
     1
  0
VPORT
  5
29
330
8
100
AcDbSymbolTableRecord
100
AcDbViewportTableRecord
  2
*Active
 70
     0
 10
0.0
 20
0.0
 11
1.0
 21
1.0
 12
10.42990654205607
 22
4.5
 13
0.0
 23
0.0
 14
0.5
 24
0.5
 15
0.5
 25
0.5
 16
0.0
 26
0.0
 36
1.0
 17
0.0
 27
0.0
 37
0.0
 40
9.0
 41
1.972972972850329
 42
50.0
 43
0.0
 44
0.0
 50
0.0
 51
0.0
 71
     0
 72
   100
 73
     1
 74
     3
 75
     0
 76
     0
 77
     0
 78
     0
281
     0
 65
     1
110
0.0
120
0.0
130
0.0
111
1.0
121
0.0
131
0.0
112
0.0
122
1.0
132
0.0
 79
     0
146
0.0
 60
     3
 61
     5
292
     1
282
     1
141
0.0
142
0.0
 63
   250
  0
ENDTAB
  0
TABLE
  2
LTYPE
  5
5
330
0
100
AcDbSymbolTable
 70
     1
  0
LTYPE
  5
14
330
5
100
AcDbSymbolTableRecord
100
AcDbLinetypeTableRecord
  2
ByBlock
 70
     0
  3

 72
    65
 73
     0
 40
0.0
  0
LTYPE
  5
15
330
5
100
AcDbSymbolTableRecord
100
AcDbLinetypeTableRecord
  2
ByLayer
 70
     0
  3

 72
    65
 73
     0
 40
0.0
  0
LTYPE
  5
16
330
5
100
AcDbSymbolTableRecord
100
AcDbLinetypeTableRecord
  2
Continuous
 70
     0
  3
Solid line
 72
    65
 73
     0
 40
0.0
  0
ENDTAB
  0
TABLE
  2
LAYER
  5
2
330
0
100
AcDbSymbolTable
 70
     2
  0
LAYER
  5
10
330
2
100
AcDbSymbolTableRecord
100
AcDbLayerTableRecord
  2
0
 70
     0
 62
     7
  6
Continuous
370
    -3
390
F
347
3E
  0
LAYER
  5
40
330
2
100
AcDbSymbolTableRecord
100
AcDbLayerTableRecord
  2
Camada 1
 70
     0
 62
     7
  6
Continuous
370
    -3
390
F
347
3E
  0
ENDTAB
  0
TABLE
  2
STYLE
  5
3
330
0
100
AcDbSymbolTable
 70
     1
  0
STYLE
  5
11
330
3
100
AcDbSymbolTableRecord
100
AcDbTextStyleTableRecord
  2
Standard
 70
     0
 40
0.0
 41
1.0
 50
0.0
 71
     0
 42
0.2
  3
txt
  4

  0
ENDTAB
  0
TABLE
  2
VIEW
  5
6
330
0
100
AcDbSymbolTable
 70
     0
  0
ENDTAB
  0
TABLE
  2
UCS
  5
7
330
0
100
AcDbSymbolTable
 70
     0
  0
ENDTAB
  0
TABLE
  2
APPID
  5
9
330
0
100
AcDbSymbolTable
 70
     2
  0
APPID
  5
12
330
9
100
AcDbSymbolTableRecord
100
AcDbRegAppTableRecord
  2
ACAD
 70
     0
  0
APPID
  5
3F
330
9
100
AcDbSymbolTableRecord
100
AcDbRegAppTableRecord
  2
ODA
 70
     0
  0
ENDTAB
  0
TABLE
  2
DIMSTYLE
  5
A
330
0
100
AcDbSymbolTable
 70
     1
100
AcDbDimStyleTable
  0
DIMSTYLE
105
27
330
A
100
AcDbSymbolTableRecord
100
AcDbDimStyleTableRecord
  2
Standard
 70
     0
178
     0
340
11
  0
ENDTAB
  0
TABLE
  2
BLOCK_RECORD
  5
1
330
0
100
AcDbSymbolTable
 70
     1
  0
BLOCK_RECORD
  5
1F
330
1
100
AcDbSymbolTableRecord
100
AcDbBlockTableRecord
  2
*Model_Space
340
22
 70
     0
280
     1
281
     0
  0
BLOCK_RECORD
  5
1B
330
1
100
AcDbSymbolTableRecord
100
AcDbBlockTableRecord
  2
*Paper_Space
340
1E
 70
     0
280
     1
281
     0
  0
BLOCK_RECORD
  5
23
330
1
100
AcDbSymbolTableRecord
100
AcDbBlockTableRecord
  2
*Paper_Space0
340
26
 70
     0
280
     1
281
     0
  0
ENDTAB
  0
ENDSEC
  0
SECTION
  2
BLOCKS
  0
BLOCK
  5
20
330
1F
100
AcDbEntity
  8
0
100
AcDbBlockBegin
  2
*Model_Space
 70
     0
 10
0.0
 20
0.0
 30
0.0
  3
*Model_Space
  1

  0
ENDBLK
  5
21
330
1F
100
AcDbEntity
  8
0
100
AcDbBlockEnd
  0
BLOCK
  5
1C
330
1B
100
AcDbEntity
 67
     1
  8
0
100
AcDbBlockBegin
  2
*Paper_Space
 70
     0
 10
0.0
 20
0.0
 30
0.0
  3
*Paper_Space
  1

  0
ENDBLK
  5
1D
330
1B
100
AcDbEntity
 67
     1
  8
0
100
AcDbBlockEnd
  0
BLOCK
  5
24
330
23
100
AcDbEntity
  8
0
100
AcDbBlockBegin
  2
*Paper_Space0
 70
     0
 10
0.0
 20
0.0
 30
0.0
  3
*Paper_Space0
  1

  0
ENDBLK
  5
25
330
23
100
AcDbEntity
  8
0
100
AcDbBlockEnd
  0
ENDSEC
  0
SECTION
  2
ENTITIES
  0
SPLINE
  5
41
330
1F
100
AcDbEntity
  8
Camada 1
100
AcDbSpline
210
0.0
220
0.0
230
1.0
 70
    11
 71
     3
 72
    24
 73
    20
 74
     0
 42
0.0000000001
 43
0.0000000001
 12
1.0
 22
0.0
 32
0.0
 13
1.0
 23
0.0
 33
0.0
 40
0.0
 40
0.0
 40
0.0
 40
0.0
 40
0.1666666666666667
 40
0.1666666666666667
 40
0.1666666666666667
 40
0.1666666666666667
 40
0.3333333333333333
 40
0.3333333333333333
 40
0.3333333333333333
 40
0.3333333333333333
 40
0.5
 40
0.5
 40
0.5
 40
0.5
 40
0.6666666666666666
 40
0.6666666666666666
 40
0.6666666666666666
 40
0.6666666666666666
 40
1.0
 40
1.0
 40
1.0
 40
1.0
 10
-6.28826
 20
8.72207
 30
0.0
 10
-6.25016
 20
8.72207
 30
0.0
 10
-6.21205
 20
8.72172
 30
0.0
 10
-6.17395
 20
8.72101
 30
0.0
 10
-6.17395
 20
8.72101
 30
0.0
 10
-1.98825
 20
4.53143
 30
0.0
 10
2.20169
 20
0.34607
 30
0.0
 10
6.38915
 20
-3.84174
 30
0.0
 10
6.38915
 20
-3.84174
 30
0.0
 10
6.43254
 20
-3.87526
 30
0.0
 10
6.40961
 20
-3.93312
 30
0.0
 10
6.41314
 20
-3.97968
 30
0.0
 10
6.41314
 20
-3.97968
 30
0.0
 10
3.45687
 20
-1.02481
 30
0.0
 10
0.50024
 20
1.92933
 30
0.0
 10
-2.45497
 20
4.88526
 30
0.0
 10
-2.45497
 20
4.88526
 30
0.0
 10
-3.73203
 20
6.16479
 30
0.0
 10
-5.01473
 20
7.43937
 30
0.0
 10
-6.28826
 20
8.72207
 30
0.0
  0
SPLINE
  5
42
330
1F
100
AcDbEntity
  8
Camada 1
100
AcDbSpline
210
0.0
220
0.0
230
1.0
 70
    11
 71
     3
 72
    24
 73
    20
 74
     0
 42
0.0000000001
 43
0.0000000001
 12
1.0
 22
0.0
 32
0.0
 13
1.0
 23
0.0
 33
0.0
 40
0.0
 40
0.0
 40
0.0
 40
0.0
 40
0.1666666666666667
 40
0.1666666666666667
 40
0.1666666666666667
 40
0.1666666666666667
 40
0.3333333333333333
 40
0.3333333333333333
 40
0.3333333333333333
 40
0.3333333333333333
 40
0.5
 40
0.5
 40
0.5
 40
0.5
 40
0.6666666666666666
 40
0.6666666666666666
 40
0.6666666666666666
 40
0.6666666666666666
 40
1.0
 40
1.0
 40
1.0
 40
1.0
 10
-4.48274
 20
8.7249
 30
0.0
 10
-4.44887
 20
8.72348
 30
0.0
 10
-4.41537
 20
8.72207
 30
0.0
 10
-4.3815
 20
8.72031
 30
0.0
 10
-4.3815
 20
8.72031
 30
0.0
 10
-0.83502
 20
5.17207
 30
0.0
 10
2.71392
 20
1.62594
 30
0.0
 10
6.26075
 20
-1.92193
 30
0.0
 10
6.26075
 20
-1.92193
 30
0.0
 10
6.32919
 20
-2.0006
 30
0.0
 10
6.45548
 20
-2.06233
 30
0.0
 10
6.41032
 20
-2.18651
 30
0.0
 10
6.41032
 20
-2.18651
 30
0.0
 10
2.8335
 20
1.39452
 30
0.0
 10
-0.74789
 20
4.97099
 30
0.0
 10
-4.32611
 20
8.55027
 30
0.0
 10
-4.32611
 20
8.55027
 30
0.0
 10
-4.37797
 20
8.60848
 30
0.0
 10
-4.44958
 20
8.65222
 30
0.0
 10
-4.48274
 20
8.7249
 30
0.0
  0
SPLINE
  5
43
330
1F
100
AcDbEntity
  8
Camada 1
100
AcDbSpline
210
0.0
220
0.0
230
1.0
 70
    11
 71
     3
 72
    20
 73
    16
 74
     0
 42
0.0000000001
 43
0.0000000001
 12
1.0
 22
0.0
 32
0.0
 13
1.0
 23
0.0
 33
0.0
 40
0.0
 40
0.0
 40
0.0
 40
0.0
 40
0.2
 40
0.2
 40
0.2
 40
0.2
 40
0.4
 40
0.4
 40
0.4
 40
0.4
 40
0.6
 40
0.6
 40
0.6
 40
0.6
 40
1.0
 40
1.0
 40
1.0
 40
1.0
 10
-4.25662
 20
8.72172
 30
0.0
 10
-4.21852
 20
8.72243
 30
0.0
 10
-4.18007
 20
8.72278
 30
0.0
 10
-4.14197
 20
8.72348
 30
0.0
 10
-4.14197
 20
8.72348
 30
0.0
 10
-0.62264
 20
5.20559
 30
0.0
 10
2.8956
 20
1.68663
 30
0.0
 10
6.4149
 20
-1.83127
 30
0.0
 10
6.4149
 20
-1.83127
 30
0.0
 10
6.41419
 20
-1.85878
 30
0.0
 10
6.41349
 20
-1.91347
 30
0.0
 10
6.41314
 20
-1.94062
 30
0.0
 10
6.41314
 20
-1.94062
 30
0.0
 10
2.85255
 20
1.60901
 30
0.0
 10
-0.69814
 20
5.1696
 30
0.0
 10
-4.25662
 20
8.72172
 30
0.0
  0
SPLINE
  5
44
330
1F
100
AcDbEntity
  8
Camada 1
100
AcDbSpline
210
0.0
220
0.0
230
1.0
 70
    11
 71
     3
 72
    24
 73
    20
 74
     0
 42
0.0000000001
 43
0.0000000001
 12
1.0
 22
0.0
 32
0.0
 13
1.0
 23
0.0
 33
0.0
 40
0.0
 40
0.0
 40
0.0
 40
0.0
 40
0.1666666666666667
 40
0.1666666666666667
 40
0.1666666666666667
 40
0.1666666666666667
 40
0.3333333333333333
 40
0.3333333333333333
 40
0.3333333333333333
 40
0.3333333333333333
 40
0.5
 40
0.5
 40
0.5
 40
0.5
 40
0.6666666666666666
 40
0.6666666666666666
 40
0.6666666666666666
 40
0.6666666666666666
 40
1.0
 40
1.0
 40
1.0
 40
1.0
 10
-2.24683
 20
8.72137
 30
0.0
 10
-2.20802
 20
8.72243
 30
0.0
 10
-2.16958
 20
8.72313
 30
0.0
 10
-2.13077
 20
8.72384
 30
0.0
 10
-2.13077
 20
8.72384
 30
0.0
 10
0.70801
 20
5.88468
 30
0.0
 10
3.54717
 20
3.04623
 30
0.0
 10
6.38632
 20
0.20778
 30
0.0
 10
6.38632
 20
0.20778
 30
0.0
 10
6.43254
 20
0.17497
 30
0.0
 10
6.41244
 20
0.11394
 30
0.0
 10
6.40749
 20
0.06702
 30
0.0
 10
6.40749
 20
0.06702
 30
0.0
 10
4.95017
 20
1.53528
 30
0.0
 10
3.48226
 20
2.99295
 30
0.0
 10
2.02106
 20
4.45735
 30
0.0
 10
2.02106
 20
4.45735
 30
0.0
 10
0.59796
 20
5.87798
 30
0.0
 10
-0.82125
 20
7.3032
 30
0.0
 10
-2.24683
 20
8.72137
 30
0.0
  0
SPLINE
  5
45
330
1F
100
AcDbEntity
  8
Camada 1
100
AcDbSpline
210
0.0
220
0.0
230
1.0
 70
    11
 71
     3
 72
    20
 73
    16
 74
     0
 42
0.0000000001
 43
0.0000000001
 12
1.0
 22
0.0
 32
0.0
 13
1.0
 23
0.0
 33
0.0
 40
0.0
 40
0.0
 40
0.0
 40
0.0
 40
0.2
 40
0.2
 40
0.2
 40
0.2
 40
0.4
 40
0.4
 40
0.4
 40
0.4
 40
0.6
 40
0.6
 40
0.6
 40
0.6
 40
1.0
 40
1.0
 40
1.0
 40
1.0
 10
2.77953
 20
8.72243
 30
0.0
 10
2.81622
 20
8.72207
 30
0.0
 10
2.85326
 20
8.72172
 30
0.0
 10
2.89031
 20
8.72101
 30
0.0
 10
2.89031
 20
8.72101
 30
0.0
 10
4.05411
 20
7.55261
 30
0.0
 10
5.22181
 20
6.38844
 30
0.0
 10
6.38774
 20
5.22252
 30
0.0
 10
6.38774
 20
5.22252
 30
0.0
 10
6.43395
 20
5.18971
 30
0.0
 10
6.40927
 20
5.13115
 30
0.0
 10
6.41173
 20
5.08458
 30
0.0
 10
6.41173
 20
5.08458
 30
0.0
 10
5.20276
 20
6.29884
 30
0.0
 10
3.98463
 20
7.50464
 30
0.0
 10
2.77953
 20
8.72243
 30
0.0
  0
SPLINE
  5
46
330
1F
100
AcDbEntity
  8
Camada 1
100
AcDbSpline
210
0.0
220
0.0
230
1.0
 70
    11
 71
     3
 72
    20
 73
    16
 74
     0
 42
0.0000000001
 43
0.0000000001
 12
1.0
 22
0.0
 32
0.0
 13
1.0
 23
0.0
 33
0.0
 40
0.0
 40
0.0
 40
0.0
 40
0.0
 40
0.2
 40
0.2
 40
0.2
 40
0.2
 40
0.4
 40
0.4
 40
0.4
 40
0.4
 40
0.6
 40
0.6
 40
0.6
 40
0.6
 40
1.0
 40
1.0
 40
1.0
 40
1.0
 10
4.56282
 20
8.72243
 30
0.0
 10
4.60162
 20
8.72278
 30
0.0
 10
4.64078
 20
8.72313
 30
0.0
 10
4.68029
 20
8.72384
 30
0.0
 10
4.68029
 20
8.72384
 30
0.0
 10
5.25921
 20
8.14598
 30
0.0
 10
5.83706
 20
7.56742
 30
0.0
 10
6.41561
 20
6.98958
 30
0.0
 10
6.41561
 20
6.98958
 30
0.0
 10
6.4149
 20
6.96207
 30
0.0
 10
6.41349
 20
6.90703
 30
0.0
 10
6.41278
 20
6.87951
 30
0.0
 10
6.41278
 20
6.87951
 30
0.0
 10
5.79154
 20
7.48841
 30
0.0
 10
5.1823
 20
8.11106
 30
0.0
 10
4.56282
 20
8.72243
 30
0.0
  0
SPLINE
  5
47
330
1F
100
AcDbEntity
  8
Camada 1
100
AcDbSpline
210
0.0
220
0.0
230
1.0
 70
    11
 71
     3
 72
    20
 73
    16
 74
     0
 42
0.0000000001
 43
0.0000000001
 12
1.0
 22
0.0
 32
0.0
 13
1.0
 23
0.0
 33
0.0
 40
0.0
 40
0.0
 40
0.0
 40
0.0
 40
0.2
 40
0.2
 40
0.2
 40
0.2
 40
0.4
 40
0.4
 40
0.4
 40
0.4
 40
0.6
 40
0.6
 40
0.6
 40
0.6
 40
1.0
 40
1.0
 40
1.0
 40
1.0
 10
4.80694
 20
8.72066
 30
0.0
 10
4.8454
 20
8.72207
 30
0.0
 10
4.88421
 20
8.72313
 30
0.0
 10
4.92337
 20
8.72419
 30
0.0
 10
4.92337
 20
8.72419
 30
0.0
 10
5.37562
 20
8.27369
 30
0.0
 10
5.82612
 20
7.82179
 30
0.0
 10
6.27803
 20
7.37093
 30
0.0
 10
6.27803
 20
7.37093
 30
0.0
 10
6.34541
 20
7.30003
 30
0.0
 10
6.45442
 20
7.23582
 30
0.0
 10
6.40961
 20
7.12045
 30
0.0
 10
6.40961
 20
7.12045
 30
0.0
 10
5.8755
 20
7.65386
 30
0.0
 10
5.34317
 20
8.18937
 30
0.0
 10
4.80694
 20
8.72066
 30
0.0
  0
SPLINE
  5
48
330
1F
100
AcDbEntity
  8
Camada 1
100
AcDbSpline
210
0.0
220
0.0
230
1.0
 70
    11
 71
     3
 72
    20
 73
    16
 74
     0
 42
0.0000000001
 43
0.0000000001
 12
1.0
 22
0.0
 32
0.0
 13
1.0
 23
0.0
 33
0.0
 40
0.0
 40
0.0
 40
0.0
 40
0.0
 40
0.2
 40
0.2
 40
0.2
 40
0.2
 40
0.4
 40
0.4
 40
0.4
 40
0.4
 40
0.6
 40
0.6
 40
0.6
 40
0.6
 40
1.0
 40
1.0
 40
1.0
 40
1.0
 10
-5.33788
 20
8.72278
 30
0.0
 10
-5.14667
 20
8.72172
 30
0.0
 10
-4.95547
 20
8.72207
 30
0.0
 10
-4.76425
 20
8.72243
 30
0.0
 10
-4.76425
 20
8.72243
 30
0.0
 10
-1.04104
 20
4.99957
 30
0.0
 10
2.68323
 20
1.2774
 30
0.0
 10
6.40537
 20
-2.44615
 30
0.0
 10
6.40537
 20
-2.44615
 30
0.0
 10
6.4262
 20
-2.63666
 30
0.0
 10
6.40749
 20
-2.83316
 30
0.0
 10
6.41385
 20
-3.02612
 30
0.0
 10
6.41385
 20
-3.02612
 30
0.0
 10
2.49485
 20
0.8883
 30
0.0
 10
-1.42027
 20
4.80694
 30
0.0
 10
-5.33788
 20
8.72278
 30
0.0
  0
SPLINE
  5
49
330
1F
100
AcDbEntity
  8
Camada 1
100
AcDbSpline
210
0.0
220
0.0
230
1.0
 70
    11
 71
     3
 72
    20
 73
    16
 74
     0
 42
0.0000000001
 43
0.0000000001
 12
1.0
 22
0.0
 32
0.0
 13
1.0
 23
0.0
 33
0.0
 40
0.0
 40
0.0
 40
0.0
 40
0.0
 40
0.2
 40
0.2
 40
0.2
 40
0.2
 40
0.4
 40
0.4
 40
0.4
 40
0.4
 40
0.6
 40
0.6
 40
0.6
 40
0.6
 40
1.0
 40
1.0
 40
1.0
 40
1.0
 10
-4.01284
 20
8.72137
 30
0.0
 10
-3.98322
 20
8.72137
 30
0.0
 10
-3.9243
 20
8.72172
 30
0.0
 10
-3.89466
 20
8.72207
 30
0.0
 10
-3.89466
 20
8.72207
 30
0.0
 10
-0.47096
 20
5.29554
 30
0.0
 10
2.95592
 20
1.87147
 30
0.0
 10
6.3814
 20
-1.55397
 30
0.0
 10
6.3814
 20
-1.55397
 30
0.0
 10
6.43078
 20
-1.58644
 30
0.0
 10
6.41349
 20
-1.64958
 30
0.0
 10
6.40927
 20
-1.69898
 30
0.0
 10
6.40927
 20
-1.69898
 30
0.0
 10
2.93582
 20
1.77482
 30
0.0
 10
-0.53833
 20
5.24791
 30
0.0
 10
-4.01284
 20
8.72137
 30
0.0
  0
SPLINE
  5
4A
330
1F
100
AcDbEntity
  8
Camada 1
100
AcDbSpline
210
0.0
220
0.0
230
1.0
 70
    11
 71
     3
 72
    20
 73
    16
 74
     0
 42
0.0000000001
 43
0.0000000001
 12
1.0
 22
0.0
 32
0.0
 13
1.0
 23
0.0
 33
0.0
 40
0.0
 40
0.0
 40
0.0
 40
0.0
 40
0.2
 40
0.2
 40
0.2
 40
0.2
 40
0.4
 40
0.4
 40
0.4
 40
0.4
 40
0.6
 40
0.6
 40
0.6
 40
0.6
 40
1.0
 40
1.0
 40
1.0
 40
1.0
 10
-3.63466
 20
8.72137
 30
0.0
 10
-3.44416
 20
8.72384
 30
0.0
 10
-3.25402
 20
8.72101
 30
0.0
 10
-3.06351
 20
8.72278
 30
0.0
 10
-3.06351
 20
8.72278
 30
0.0
 10
0.09771
 20
5.56965
 30
0.0
 10
3.25261
 20
2.40982
 30
0.0
 10
6.41208
 20
-0.74507
 30
0.0
 10
6.41208
 20
-0.74507
 30
0.0
 10
6.41385
 20
-0.93873
 30
0.0
 10
6.41702
 20
-1.13276
 30
0.0
 10
6.40997
 20
-1.32644
 30
0.0
 10
6.40997
 20
-1.32644
 30
0.0
 10
3.06563
 20
2.02671
 30
0.0
 10
-0.28821
 20
5.37033
 30
0.0
 10
-3.63466
 20
8.72137
 30
0.0
  0
SPLINE
  5
4B
330
1F
100
AcDbEntity
  8
Camada 1
100
AcDbSpline
210
0.0
220
0.0
230
1.0
 70
    11
 71
     3
 72
    24
 73
    20
 74
     0
 42
0.0000000001
 43
0.0000000001
 12
1.0
 22
0.0
 32
0.0
 13
1.0
 23
0.0
 33
0.0
 40
0.0
 40
0.0
 40
0.0
 40
0.0
 40
0.1666666666666667
 40
0.1666666666666667
 40
0.1666666666666667
 40
0.1666666666666667
 40
0.3333333333333333
 40
0.3333333333333333
 40
0.3333333333333333
 40
0.3333333333333333
 40
0.5
 40
0.5
 40
0.5
 40
0.5
 40
0.6666666666666666
 40
0.6666666666666666
 40
0.6666666666666666
 40
0.6666666666666666
 40
1.0
 40
1.0
 40
1.0
 40
1.0
 10
-2.00306
 20
8.72101
 30
0.0
 10
-1.97343
 20
8.72137
 30
0.0
 10
-1.91381
 20
8.72172
 30
0.0
 10
-1.88382
 20
8.72172
 30
0.0
 10
-1.88382
 20
8.72172
 30
0.0
 10
0.87029
 20
5.96477
 30
0.0
 10
3.62795
 20
3.21027
 30
0.0
 10
6.38352
 20
0.45437
 30
0.0
 10
6.38352
 20
0.45437
 30
0.0
 10
6.43078
 20
0.42262
 30
0.0
 10
6.41103
 20
0.363
 30
0.0
 10
6.41349
 20
0.31537
 30
0.0
 10
6.41349
 20
0.31537
 30
0.0
 10
6.1355
 20
0.57538
 30
0.0
 10
5.87375
 20
0.85336
 30
0.0
 10
5.60175
 20
1.12006
 30
0.0
 10
5.60175
 20
1.12006
 30
0.0
 10
3.06634
 20
3.653
 30
0.0
 10
0.5341
 20
6.18949
 30
0.0
 10
-2.00306
 20
8.72101
 30
0.0
  0
SPLINE
  5
4C
330
1F
100
AcDbEntity
  8
Camada 1
100
AcDbSpline
210
0.0
220
0.0
230
1.0
 70
    11
 71
     3
 72
    20
 73
    16
 74
     0
 42
0.0000000001
 43
0.0000000001
 12
1.0
 22
0.0
 32
0.0
 13
1.0
 23
0.0
 33
0.0
 40
0.0
 40
0.0
 40
0.0
 40
0.0
 40
0.2
 40
0.2
 40
0.2
 40
0.2
 40
0.4
 40
0.4
 40
0.4
 40
0.4
 40
0.6
 40
0.6
 40
0.6
 40
0.6
 40
1.0
 40
1.0
 40
1.0
 40
1.0
 10
-1.7593
 20
8.72243
 30
0.0
 10
-1.69827
 20
8.7256
 30
0.0
 10
-1.63159
 20
8.73266
 30
0.0
 10
-1.59385
 20
8.6748
 30
0.0
 10
-1.59385
 20
8.6748
 30
0.0
 10
1.06469
 20
6.01486
 30
0.0
 10
3.72497
 20
3.35667
 30
0.0
 10
6.38422
 20
0.69778
 30
0.0
 10
6.38422
 20
0.69778
 30
0.0
 10
6.43254
 20
0.66321
 30
0.0
 10
6.41068
 20
0.59867
 30
0.0
 10
6.40785
 20
0.54963
 30
0.0
 10
6.40785
 20
0.54963
 30
0.0
 10
3.69217
 20
3.28012
 30
0.0
 10
0.96131
 20
5.99651
 30
0.0
 10
-1.7593
 20
8.72243
 30
0.0
  0
SPLINE
  5
4D
330
1F
100
AcDbEntity
  8
Camada 1
100
AcDbSpline
210
0.0
220
0.0
230
1.0
 70
    11
 71
     3
 72
    24
 73
    20
 74
     0
 42
0.0000000001
 43
0.0000000001
 12
1.0
 22
0.0
 32
0.0
 13
1.0
 23
0.0
 33
0.0
 40
0.0
 40
0.0
 40
0.0
 40
0.0
 40
0.1666666666666667
 40
0.1666666666666667
 40
0.1666666666666667
 40
0.1666666666666667
 40
0.3333333333333333
 40
0.3333333333333333
 40
0.3333333333333333
 40
0.3333333333333333
 40
0.5
 40
0.5
 40
0.5
 40
0.5
 40
0.6666666666666666
 40
0.6666666666666666
 40
0.6666666666666666
 40
0.6666666666666666
 40
1.0
 40
1.0
 40
1.0
 40
1.0
 10
-0.80503
 20
8.72172
 30
0.0
 10
-0.61453
 20
8.72419
 30
0.0
 10
-0.42367
 20
8.71995
 30
0.0
 10
-0.23318
 20
8.72384
 30
0.0
 10
-0.23318
 20
8.72384
 30
0.0
 10
1.98472
 20
6.51121
 30
0.0
 10
4.1991
 20
4.29472
 30
0.0
 10
6.41419
 20
2.07892
 30
0.0
 10
6.41419
 20
2.07892
 30
0.0
 10
6.41068
 20
1.88736
 30
0.0
 10
6.4209
 20
1.69545
 30
0.0
 10
6.40785
 20
1.50424
 30
0.0
 10
6.40785
 20
1.50424
 30
0.0
 10
5.79332
 20
2.13571
 30
0.0
 10
5.16254
 20
2.75166
 30
0.0
 10
4.54166
 20
3.37714
 30
0.0
 10
4.54166
 20
3.37714
 30
0.0
 10
2.75943
 20
5.15866
 30
0.0
 10
0.97861
 20
6.9416
 30
0.0
 10
-0.80503
 20
8.72172
 30
0.0
  0
SPLINE
  5
4E
330
1F
100
AcDbEntity
  8
Camada 1
100
AcDbSpline
210
0.0
220
0.0
230
1.0
 70
    11
 71
     3
 72
    20
 73
    16
 74
     0
 42
0.0000000001
 43
0.0000000001
 12
1.0
 22
0.0
 32
0.0
 13
1.0
 23
0.0
 33
0.0
 40
0.0
 40
0.0
 40
0.0
 40
0.0
 40
0.2
 40
0.2
 40
0.2
 40
0.2
 40
0.4
 40
0.4
 40
0.4
 40
0.4
 40
0.6
 40
0.6
 40
0.6
 40
0.6
 40
1.0
 40
1.0
 40
1.0
 40
1.0
 10
0.0321
 20
8.72243
 30
0.0
 10
0.06032
 20
8.72207
 30
0.0
 10
0.11711
 20
8.72101
 30
0.0
 10
0.14569
 20
8.72066
 30
0.0
 10
0.14569
 20
8.72066
 30
0.0
 10
2.23061
 20
6.64279
 30
0.0
 10
4.30917
 20
4.55824
 30
0.0
 10
6.39268
 20
2.47826
 30
0.0
 10
6.39268
 20
2.47826
 30
0.0
 10
6.4322
 20
2.44369
 30
0.0
 10
6.40891
 20
2.38619
 30
0.0
 10
6.41068
 20
2.34102
 30
0.0
 10
6.41068
 20
2.34102
 30
0.0
 10
4.2873
 20
4.47111
 30
0.0
 10
2.15688
 20
6.59411
 30
0.0
 10
0.0321
 20
8.72243
 30
0.0
  0
SPLINE
  5
4F
330
1F
100
AcDbEntity
  8
Camada 1
100
AcDbSpline
210
0.0
220
0.0
230
1.0
 70
    11
 71
     3
 72
    20
 73
    16
 74
     0
 42
0.0000000001
 43
0.0000000001
 12
1.0
 22
0.0
 32
0.0
 13
1.0
 23
0.0
 33
0.0
 40
0.0
 40
0.0
 40
0.0
 40
0.0
 40
0.2
 40
0.2
 40
0.2
 40
0.2
 40
0.4
 40
0.4
 40
0.4
 40
0.4
 40
0.6
 40
0.6
 40
0.6
 40
0.6
 40
1.0
 40
1.0
 40
1.0
 40
1.0
 10
0.27515
 20
8.72313
 30
0.0
 10
0.3422
 20
8.73125
 30
0.0
 10
0.40745
 20
8.7249
 30
0.0
 10
0.44696
 20
8.66527
 30
0.0
 10
0.44696
 20
8.66527
 30
0.0
 10
2.4278
 20
6.68267
 30
0.0
 10
4.41042
 20
4.70217
 30
0.0
 10
6.39163
 20
2.72062
 30
0.0
 10
6.39163
 20
2.72062
 30
0.0
 10
6.4322
 20
2.68676
 30
0.0
 10
6.40856
 20
2.62924
 30
0.0
 10
6.41173
 20
2.58444
 30
0.0
 10
6.41173
 20
2.58444
 30
0.0
 10
4.36845
 20
4.63267
 30
0.0
 10
2.31985
 20
6.67597
 30
0.0
 10
0.27515
 20
8.72313
 30
0.0
  0
SPLINE
  5
50
330
1F
100
AcDbEntity
  8
Camada 1
100
AcDbSpline
210
0.0
220
0.0
230
1.0
 70
    11
 71
     3
 72
    20
 73
    16
 74
     0
 42
0.0000000001
 43
0.0000000001
 12
1.0
 22
0.0
 32
0.0
 13
1.0
 23
0.0
 33
0.0
 40
0.0
 40
0.0
 40
0.0
 40
0.0
 40
0.2
 40
0.2
 40
0.2
 40
0.2
 40
0.4
 40
0.4
 40
0.4
 40
0.4
 40
0.6
 40
0.6
 40
0.6
 40
0.6
 40
1.0
 40
1.0
 40
1.0
 40
1.0
 10
0.51859
 20
8.72348
 30
0.0
 10
0.54715
 20
8.72278
 30
0.0
 10
0.6043
 20
8.72066
 30
0.0
 10
0.63287
 20
8.7196
 30
0.0
 10
0.63287
 20
8.7196
 30
0.0
 10
2.55588
 20
6.8072
 30
0.0
 10
4.4697
 20
4.88526
 30
0.0
 10
6.38986
 20
2.97003
 30
0.0
 10
6.38986
 20
2.97003
 30
0.0
 10
6.4329
 20
2.93546
 30
0.0
 10
6.40927
 20
2.87584
 30
0.0
 10
6.41244
 20
2.82928
 30
0.0
 10
6.41244
 20
2.82928
 30
0.0
 10
4.44887
 20
4.79495
 30
0.0
 10
2.4825
 20
6.75815
 30
0.0
 10
0.51859
 20
8.72348
 30
0.0
  0
SPLINE
  5
51
330
1F
100
AcDbEntity
  8
Camada 1
100
AcDbSpline
210
0.0
220
0.0
230
1.0
 70
    11
 71
     3
 72
    20
 73
    16
 74
     0
 42
0.0000000001
 43
0.0000000001
 12
1.0
 22
0.0
 32
0.0
 13
1.0
 23
0.0
 33
0.0
 40
0.0
 40
0.0
 40
0.0
 40
0.0
 40
0.2
 40
0.2
 40
0.2
 40
0.2
 40
0.4
 40
0.4
 40
0.4
 40
0.4
 40
0.6
 40
0.6
 40
0.6
 40
0.6
 40
1.0
 40
1.0
 40
1.0
 40
1.0
 10
0.89923
 20
8.72313
 30
0.0
 10
1.09149
 20
8.72066
 30
0.0
 10
1.2841
 20
8.72419
 30
0.0
 10
1.47637
 20
8.72066
 30
0.0
 10
1.47637
 20
8.72066
 30
0.0
 10
3.12032
 20
7.07107
 30
0.0
 10
4.7699
 20
5.42783
 30
0.0
 10
6.4149
 20
3.7793
 30
0.0
 10
6.4149
 20
3.7793
 30
0.0
 10
6.41278
 20
3.59163
 30
0.0
 10
6.41419
 20
3.40359
 30
0.0
 10
6.41419
 20
3.21556
 30
0.0
 10
6.41419
 20
3.21556
 30
0.0
 10
4.56988
 20
5.04472
 30
0.0
 10
2.73897
 20
6.88869
 30
0.0
 10
0.89923
 20
8.72313
 30
0.0
  0
SPLINE
  5
52
330
1F
100
AcDbEntity
  8
Camada 1
100
AcDbSpline
210
0.0
220
0.0
230
1.0
 70
    11
 71
     3
 72
    20
 73
    16
 74
     0
 42
0.0000000001
 43
0.0000000001
 12
1.0
 22
0.0
 32
0.0
 13
1.0
 23
0.0
 33
0.0
 40
0.0
 40
0.0
 40
0.0
 40
0.0
 40
0.2
 40
0.2
 40
0.2
 40
0.2
 40
0.4
 40
0.4
 40
0.4
 40
0.4
 40
0.6
 40
0.6
 40
0.6
 40
0.6
 40
1.0
 40
1.0
 40
1.0
 40
1.0
 10
2.28599
 20
8.72348
 30
0.0
 10
2.31422
 20
8.72278
 30
0.0
 10
2.37137
 20
8.72137
 30
0.0
 10
2.39994
 20
8.72031
 30
0.0
 10
2.39994
 20
8.72031
 30
0.0
 10
3.73308
 20
7.39352
 30
0.0
 10
5.0606
 20
6.06036
 30
0.0
 10
6.39234
 20
4.7318
 30
0.0
 10
6.39234
 20
4.7318
 30
0.0
 10
6.43149
 20
4.69723
 30
0.0
 10
6.40891
 20
4.64078
 30
0.0
 10
6.41244
 20
4.59598
 30
0.0
 10
6.41244
 20
4.59598
 30
0.0
 10
5.03765
 20
5.97252
 30
0.0
 10
3.66077
 20
7.34694
 30
0.0
 10
2.28599
 20
8.72348
 30
0.0
  0
SPLINE
  5
53
330
1F
100
AcDbEntity
  8
Camada 1
100
AcDbSpline
210
0.0
220
0.0
230
1.0
 70
    11
 71
     3
 72
    20
 73
    16
 74
     0
 42
0.0000000001
 43
0.0000000001
 12
1.0
 22
0.0
 32
0.0
 13
1.0
 23
0.0
 33
0.0
 40
0.0
 40
0.0
 40
0.0
 40
0.0
 40
0.2
 40
0.2
 40
0.2
 40
0.2
 40
0.4
 40
0.4
 40
0.4
 40
0.4
 40
0.6
 40
0.6
 40
0.6
 40
0.6
 40
1.0
 40
1.0
 40
1.0
 40
1.0
 10
2.53047
 20
8.72348
 30
0.0
 10
2.55905
 20
8.72243
 30
0.0
 10
2.61584
 20
8.72066
 30
0.0
 10
2.64442
 20
8.7196
 30
0.0
 10
2.64442
 20
8.7196
 30
0.0
 10
3.89431
 20
7.47501
 30
0.0
 10
5.13927
 20
6.22477
 30
0.0
 10
6.3881
 20
4.97874
 30
0.0
 10
6.3881
 20
4.97874
 30
0.0
 10
6.43325
 20
4.94524
 30
0.0
 10
6.40961
 20
4.88631
 30
0.0
 10
6.41244
 20
4.83941
 30
0.0
 10
6.41244
 20
4.83941
 30
0.0
 10
5.11986
 20
6.1355
 30
0.0
 10
3.82305
 20
7.42738
 30
0.0
 10
2.53047
 20
8.72348
 30
0.0
  0
SPLINE
  5
54
330
1F
100
AcDbEntity
  8
Camada 1
100
AcDbSpline
210
0.0
220
0.0
230
1.0
 70
    11
 71
     3
 72
    20
 73
    16
 74
     0
 42
0.0000000001
 43
0.0000000001
 12
1.0
 22
0.0
 32
0.0
 13
1.0
 23
0.0
 33
0.0
 40
0.0
 40
0.0
 40
0.0
 40
0.0
 40
0.2
 40
0.2
 40
0.2
 40
0.2
 40
0.4
 40
0.4
 40
0.4
 40
0.4
 40
0.6
 40
0.6
 40
0.6
 40
0.6
 40
1.0
 40
1.0
 40
1.0
 40
1.0
 10
3.72886
 20
8.72243
 30
0.0
 10
3.91971
 20
8.72243
 30
0.0
 10
4.11056
 20
8.72207
 30
0.0
 10
4.30142
 20
8.72172
 30
0.0
 10
4.30142
 20
8.72172
 30
0.0
 10
5.0052
 20
8.01369
 30
0.0
 10
5.7157
 20
7.31273
 30
0.0
 10
6.41667
 20
6.60223
 30
0.0
 10
6.41667
 20
6.60223
 30
0.0
 10
6.41032
 20
6.41456
 30
0.0
 10
6.41597
 20
6.22687
 30
0.0
 10
6.41419
 20
6.03956
 30
0.0
 10
6.41419
 20
6.03956
 30
0.0
 10
5.51709
 20
6.93173
 30
0.0
 10
4.62421
 20
7.82849
 30
0.0
 10
3.72886
 20
8.72243
 30
0.0
  0
SPLINE
  5
55
330
1F
100
AcDbEntity
  8
Camada 1
100
AcDbSpline
210
0.0
220
0.0
230
1.0
 70
    11
 71
     3
 72
    20
 73
    16
 74
     0
 42
0.0000000001
 43
0.0000000001
 12
1.0
 22
0.0
 32
0.0
 13
1.0
 23
0.0
 33
0.0
 40
0.0
 40
0.0
 40
0.0
 40
0.0
 40
0.2
 40
0.2
 40
0.2
 40
0.2
 40
0.4
 40
0.4
 40
0.4
 40
0.4
 40
0.6
 40
0.6
 40
0.6
 40
0.6
 40
1.0
 40
1.0
 40
1.0
 40
1.0
 10
5.05249
 20
8.72101
 30
0.0
 10
5.08246
 20
8.72137
 30
0.0
 10
5.14244
 20
8.72172
 30
0.0
 10
5.17277
 20
8.72207
 30
0.0
 10
5.17277
 20
8.72207
 30
0.0
 10
5.57388
 20
8.31532
 30
0.0
 10
5.97992
 20
7.91351
 30
0.0
 10
6.38352
 20
7.50922
 30
0.0
 10
6.38352
 20
7.50922
 30
0.0
 10
6.4322
 20
7.47572
 30
0.0
 10
6.41278
 20
7.41327
 30
0.0
 10
6.4082
 20
7.36458
 30
0.0
 10
6.4082
 20
7.36458
 30
0.0
 10
5.95806
 20
7.81897
 30
0.0
 10
5.50545
 20
8.27016
 30
0.0
 10
5.05249
 20
8.72101
 30
0.0
  0
SPLINE
  5
56
330
1F
100
AcDbEntity
  8
Camada 1
100
AcDbSpline
210
0.0
220
0.0
230
1.0
 70
    11
 71
     3
 72
    20
 73
    16
 74
     0
 42
0.0000000001
 43
0.0000000001
 12
1.0
 22
0.0
 32
0.0
 13
1.0
 23
0.0
 33
0.0
 40
0.0
 40
0.0
 40
0.0
 40
0.0
 40
0.2
 40
0.2
 40
0.2
 40
0.2
 40
0.4
 40
0.4
 40
0.4
 40
0.4
 40
0.6
 40
0.6
 40
0.6
 40
0.6
 40
1.0
 40
1.0
 40
1.0
 40
1.0
 10
5.43277
 20
8.72101
 30
0.0
 10
5.62256
 20
8.72455
 30
0.0
 10
5.81271
 20
8.72031
 30
0.0
 10
6.00251
 20
8.72278
 30
0.0
 10
6.00251
 20
8.72278
 30
0.0
 10
6.14009
 20
8.58908
 30
0.0
 10
6.27238
 20
8.45043
 30
0.0
 10
6.41139
 20
8.31779
 30
0.0
 10
6.41139
 20
8.31779
 30
0.0
 10
6.41597
 20
8.12518
 30
0.0
 10
6.41526
 20
7.93221
 30
0.0
 10
6.41103
 20
7.73959
 30
0.0
 10
6.41103
 20
7.73959
 30
0.0
 10
6.08682
 20
8.06838
 30
0.0
 10
5.75768
 20
8.39257
 30
0.0
 10
5.43277
 20
8.72101
 30
0.0
  0
SPLINE
  5
57
330
1F
100
AcDbEntity
  8
Camada 1
100
AcDbSpline
210
0.0
220
0.0
230
1.0
 70
    11
 71
     3
 72
    20
 73
    16
 74
     0
 42
0.0000000001
 43
0.0000000001
 12
1.0
 22
0.0
 32
0.0
 13
1.0
 23
0.0
 33
0.0
 40
0.0
 40
0.0
 40
0.0
 40
0.0
 40
0.2
 40
0.2
 40
0.2
 40
0.2
 40
0.4
 40
0.4
 40
0.4
 40
0.4
 40
0.6
 40
0.6
 40
0.6
 40
0.6
 40
1.0
 40
1.0
 40
1.0
 40
1.0
 10
-6.40045
 20
8.69984
 30
0.0
 10
-2.15793
 20
4.46369
 30
0.0
 10
2.07892
 20
0.22153
 30
0.0
 10
6.32071
 20
-4.01567
 30
0.0
 10
6.32071
 20
-4.01567
 30
0.0
 10
6.3888
 20
-4.06681
 30
0.0
 10
6.43819
 20
-4.13666
 30
0.0
 10
6.41314
 20
-4.22592
 30
0.0
 10
6.41314
 20
-4.22592
 30
0.0
 10
2.14241
 20
0.04585
 30
0.0
 10
-2.13042
 20
4.31587
 30
0.0
 10
-6.40115
 20
8.58766
 30
0.0
 10
-6.40115
 20
8.58766
 30
0.0
 10
-6.40079
 20
8.61553
 30
0.0
 10
-6.40045
 20
8.67198
 30
0.0
 10
-6.40045
 20
8.69984
 30
0.0
  0
SPLINE
  5
58
330
1F
100
AcDbEntity
  8
Camada 1
100
AcDbSpline
210
0.0
220
0.0
230
1.0
 70
    11
 71
     3
 72
    24
 73
    20
 74
     0
 42
0.0000000001
 43
0.0000000001
 12
1.0
 22
0.0
 32
0.0
 13
1.0
 23
0.0
 33
0.0
 40
0.0
 40
0.0
 40
0.0
 40
0.0
 40
0.1666666666666667
 40
0.1666666666666667
 40
0.1666666666666667
 40
0.1666666666666667
 40
0.3333333333333333
 40
0.3333333333333333
 40
0.3333333333333333
 40
0.3333333333333333
 40
0.5
 40
0.5
 40
0.5
 40
0.5
 40
0.6666666666666666
 40
0.6666666666666666
 40
0.6666666666666666
 40
0.6666666666666666
 40
1.0
 40
1.0
 40
1.0
 40
1.0
 10
-6.39655
 20
8.45996
 30
0.0
 10
-5.45146
 20
7.49828
 30
0.0
 10
-4.4905
 20
6.55179
 30
0.0
 10
-3.53905
 20
5.59576
 30
0.0
 10
-3.53905
 20
5.59576
 30
0.0
 10
-0.22859
 20
2.28635
 30
0.0
 10
3.08115
 20
-1.02376
 30
0.0
 10
6.39197
 20
-4.33317
 30
0.0
 10
6.39197
 20
-4.33317
 30
0.0
 10
6.43183
 20
-4.36703
 30
0.0
 10
6.40856
 20
-4.42453
 30
0.0
 10
6.41208
 20
-4.46933
 30
0.0
 10
6.41208
 20
-4.46933
 30
0.0
 10
2.14136
 20
-0.19826
 30
0.0
 10
-2.13006
 20
4.07282
 30
0.0
 10
-6.40186
 20
8.34284
 30
0.0
 10
-6.40186
 20
8.34284
 30
0.0
 10
-6.40045
 20
8.382
 30
0.0
 10
-6.39867
 20
8.4208
 30
0.0
 10
-6.39655
 20
8.45996
 30
0.0
  0
SPLINE
  5
59
330
1F
100
AcDbEntity
  8
Camada 1
100
AcDbSpline
210
0.0
220
0.0
230
1.0
 70
    11
 71
     3
 72
    20
 73
    16
 74
     0
 42
0.0000000001
 43
0.0000000001
 12
1.0
 22
0.0
 32
0.0
 13
1.0
 23
0.0
 33
0.0
 40
0.0
 40
0.0
 40
0.0
 40
0.0
 40
0.2
 40
0.2
 40
0.2
 40
0.2
 40
0.4
 40
0.4
 40
0.4
 40
0.4
 40
0.6
 40
0.6
 40
0.6
 40
0.6
 40
1.0
 40
1.0
 40
1.0
 40
1.0
 10
-6.40009
 20
7.52968
 30
0.0
 10
-2.12972
 20
3.25649
 30
0.0
 10
2.14453
 20
-1.01318
 30
0.0
 10
6.41526
 20
-5.28601
 30
0.0
 10
6.41526
 20
-5.28601
 30
0.0
 10
6.41244
 20
-5.47475
 30
0.0
 10
6.41456
 20
-5.66349
 30
0.0
 10
6.41419
 20
-5.85257
 30
0.0
 10
6.41419
 20
-5.85257
 30
0.0
 10
2.13959
 20
-1.5875
 30
0.0
 10
-2.12514
 20
2.68817
 30
0.0
 10
-6.39974
 20
6.95359
 30
0.0
 10
-6.39974
 20
6.95359
 30
0.0
 10
-6.40115
 20
7.14587
 30
0.0
 10
-6.40009
 20
7.33777
 30
0.0
 10
-6.40009
 20
7.52968
 30
0.0
  0
SPLINE
  5
5A
330
1F
100
AcDbEntity
  8
Camada 1
100
AcDbSpline
210
0.0
220
0.0
230
1.0
 70
    11
 71
     3
 72
    24
 73
    20
 74
     0
 42
0.0000000001
 43
0.0000000001
 12
1.0
 22
0.0
 32
0.0
 13
1.0
 23
0.0
 33
0.0
 40
0.0
 40
0.0
 40
0.0
 40
0.0
 40
0.1666666666666667
 40
0.1666666666666667
 40
0.1666666666666667
 40
0.1666666666666667
 40
0.3333333333333333
 40
0.3333333333333333
 40
0.3333333333333333
 40
0.3333333333333333
 40
0.5
 40
0.5
 40
0.5
 40
0.5
 40
0.6666666666666666
 40
0.6666666666666666
 40
0.6666666666666666
 40
0.6666666666666666
 40
1.0
 40
1.0
 40
1.0
 40
1.0
 10
-6.40186
 20
6.67244
 30
0.0
 10
-6.33377
 20
6.64457
 30
0.0
 10
-6.2932
 20
6.57859
 30
0.0
 10
-6.23992
 20
6.53097
 30
0.0
 10
-6.23992
 20
6.53097
 30
0.0
 10
-2.02917
 20
2.32092
 30
0.0
 10
2.18122
 20
-1.88948
 30
0.0
 10
6.39234
 20
-6.09917
 30
0.0
 10
6.39234
 20
-6.09917
 30
0.0
 10
6.4329
 20
-6.13304
 30
0.0
 10
6.40891
 20
-6.18949
 30
0.0
 10
6.41173
 20
-6.23464
 30
0.0
 10
6.41173
 20
-6.23464
 30
0.0
 10
2.14171
 20
-1.96391
 30
0.0
 10
-2.13042
 20
2.30504
 30
0.0
 10
-6.40045
 20
6.57613
 30
0.0
 10
-6.40045
 20
6.57613
 30
0.0
 10
-6.40079
 20
6.60011
 30
0.0
 10
-6.4015
 20
6.64845
 30
0.0
 10
-6.40186
 20
6.67244
 30
0.0
  0
SPLINE
  5
5B
330
1F
100
AcDbEntity
  8
Camada 1
100
AcDbSpline
210
0.0
220
0.0
230
1.0
 70
    11
 71
     3
 72
    20
 73
    16
 74
     0
 42
0.0000000001
 43
0.0000000001
 12
1.0
 22
0.0
 32
0.0
 13
1.0
 23
0.0
 33
0.0
 40
0.0
 40
0.0
 40
0.0
 40
0.0
 40
0.2
 40
0.2
 40
0.2
 40
0.2
 40
0.4
 40
0.4
 40
0.4
 40
0.4
 40
0.6
 40
0.6
 40
0.6
 40
0.6
 40
1.0
 40
1.0
 40
1.0
 40
1.0
 10
-6.39726
 20
6.45054
 30
0.0
 10
-2.13854
 20
2.18193
 30
0.0
 10
2.13006
 20
-2.0768
 30
0.0
 10
6.39268
 20
-6.34152
 30
0.0
 10
6.39268
 20
-6.34152
 30
0.0
 10
6.41914
 20
-6.38174
 30
0.0
 10
6.42549
 20
-6.42796
 30
0.0
 10
6.41208
 20
-6.48017
 30
0.0
 10
6.41208
 20
-6.48017
 30
0.0
 10
2.14171
 20
-2.20873
 30
0.0
 10
-2.13006
 20
2.06199
 30
0.0
 10
-6.40186
 20
6.33236
 30
0.0
 10
-6.40186
 20
6.33236
 30
0.0
 10
-6.40079
 20
6.37187
 30
0.0
 10
-6.39903
 20
6.41103
 30
0.0
 10
-6.39726
 20
6.45054
 30
0.0
  0
SPLINE
  5
5C
330
1F
100
AcDbEntity
  8
Camada 1
100
AcDbSpline
210
0.0
220
0.0
230
1.0
 70
    11
 71
     3
 72
    20
 73
    16
 74
     0
 42
0.0000000001
 43
0.0000000001
 12
1.0
 22
0.0
 32
0.0
 13
1.0
 23
0.0
 33
0.0
 40
0.0
 40
0.0
 40
0.0
 40
0.0
 40
0.2
 40
0.2
 40
0.2
 40
0.2
 40
0.4
 40
0.4
 40
0.4
 40
0.4
 40
0.6
 40
0.6
 40
0.6
 40
0.6
 40
1.0
 40
1.0
 40
1.0
 40
1.0
 10
-6.39797
 20
6.20465
 30
0.0
 10
-2.13783
 20
1.93462
 30
0.0
 10
2.13571
 20
-2.32233
 30
0.0
 10
6.39797
 20
-6.59024
 30
0.0
 10
6.39797
 20
-6.59024
 30
0.0
 10
6.4322
 20
-6.62586
 30
0.0
 10
6.40785
 20
-6.68055
 30
0.0
 10
6.41032
 20
-6.72429
 30
0.0
 10
6.41032
 20
-6.72429
 30
0.0
 10
2.14417
 20
-2.44897
 30
0.0
 10
-2.13395
 20
1.81504
 30
0.0
 10
-6.40009
 20
6.0907
 30
0.0
 10
-6.40009
 20
6.0907
 30
0.0
 10
-6.39938
 20
6.11928
 30
0.0
 10
-6.39833
 20
6.17607
 30
0.0
 10
-6.39797
 20
6.20465
 30
0.0
  0
SPLINE
  5
5D
330
1F
100
AcDbEntity
  8
Camada 1
100
AcDbSpline
210
0.0
220
0.0
230
1.0
 70
    11
 71
     3
 72
    24
 73
    20
 74
     0
 42
0.0000000001
 43
0.0000000001
 12
1.0
 22
0.0
 32
0.0
 13
1.0
 23
0.0
 33
0.0
 40
0.0
 40
0.0
 40
0.0
 40
0.0
 40
0.1666666666666667
 40
0.1666666666666667
 40
0.1666666666666667
 40
0.1666666666666667
 40
0.3333333333333333
 40
0.3333333333333333
 40
0.3333333333333333
 40
0.3333333333333333
 40
0.5
 40
0.5
 40
0.5
 40
0.5
 40
0.6666666666666666
 40
0.6666666666666666
 40
0.6666666666666666
 40
0.6666666666666666
 40
1.0
 40
1.0
 40
1.0
 40
1.0
 10
-6.39833
 20
5.82577
 30
0.0
 10
-2.12831
 20
1.55434
 30
0.0
 10
2.14417
 20
-2.71497
 30
0.0
 10
6.41456
 20
-6.98605
 30
0.0
 10
6.41456
 20
-6.98605
 30
0.0
 10
6.41314
 20
-7.17408
 30
0.0
 10
6.41419
 20
-7.36211
 30
0.0
 10
6.41419
 20
-7.55049
 30
0.0
 10
6.41419
 20
-7.55049
 30
0.0
 10
6.15173
 20
-7.31061
 30
0.0
 10
5.90937
 20
-7.04814
 30
0.0
 10
5.65431
 20
-6.79979
 30
0.0
 10
5.65431
 20
-6.79979
 30
0.0
 10
1.63583
 20
-2.7827
 30
0.0
 10
-2.38159
 20
1.23506
 30
0.0
 10
-6.40045
 20
5.25215
 30
0.0
 10
-6.40045
 20
5.25215
 30
0.0
 10
-6.39903
 20
5.44335
 30
0.0
 10
-6.40326
 20
5.63457
 30
0.0
 10
-6.39833
 20
5.82577
 30
0.0
  0
SPLINE
  5
5E
330
1F
100
AcDbEntity
  8
Camada 1
100
AcDbSpline
210
0.0
220
0.0
230
1.0
 70
    11
 71
     3
 72
    24
 73
    20
 74
     0
 42
0.0000000001
 43
0.0000000001
 12
1.0
 22
0.0
 32
0.0
 13
1.0
 23
0.0
 33
0.0
 40
0.0
 40
0.0
 40
0.0
 40
0.0
 40
0.1666666666666667
 40
0.1666666666666667
 40
0.1666666666666667
 40
0.1666666666666667
 40
0.3333333333333333
 40
0.3333333333333333
 40
0.3333333333333333
 40
0.3333333333333333
 40
0.5
 40
0.5
 40
0.5
 40
0.5
 40
0.6666666666666666
 40
0.6666666666666666
 40
0.6666666666666666
 40
0.6666666666666666
 40
1.0
 40
1.0
 40
1.0
 40
1.0
 10
-6.39797
 20
4.41466
 30
0.0
 10
-2.14066
 20
0.15239
 30
0.0
 10
2.1216
 20
-4.10527
 30
0.0
 10
6.3814
 20
-8.36541
 30
0.0
 10
6.3814
 20
-8.36541
 30
0.0
 10
6.43042
 20
-8.39716
 30
0.0
 10
6.41278
 20
-8.45889
 30
0.0
 10
6.41103
 20
-8.50793
 30
0.0
 10
6.41103
 20
-8.50793
 30
0.0
 10
4.45487
 20
-6.56201
 30
0.0
 10
2.50754
 20
-4.60621
 30
0.0
 10
0.55457
 20
-2.65677
 30
0.0
 10
0.55457
 20
-2.65677
 30
0.0
 10
-1.76283
 20
-0.3376
 30
0.0
 10
-4.08445
 20
1.97767
 30
0.0
 10
-6.39938
 20
4.29894
 30
0.0
 10
-6.39938
 20
4.29894
 30
0.0
 10
-6.39903
 20
4.32788
 30
0.0
 10
-6.39833
 20
4.38572
 30
0.0
 10
-6.39797
 20
4.41466
 30
0.0
  0
SPLINE
  5
5F
330
1F
100
AcDbEntity
  8
Camada 1
100
AcDbSpline
210
0.0
220
0.0
230
1.0
 70
    11
 71
     3
 72
    20
 73
    16
 74
     0
 42
0.0000000001
 43
0.0000000001
 12
1.0
 22
0.0
 32
0.0
 13
1.0
 23
0.0
 33
0.0
 40
0.0
 40
0.0
 40
0.0
 40
0.0
 40
0.2
 40
0.2
 40
0.2
 40
0.2
 40
0.4
 40
0.4
 40
0.4
 40
0.4
 40
0.6
 40
0.6
 40
0.6
 40
0.6
 40
1.0
 40
1.0
 40
1.0
 40
1.0
 10
-6.39867
 20
4.17054
 30
0.0
 10
-2.17523
 20
-0.05574
 30
0.0
 10
2.05139
 20
-4.27884
 30
0.0
 10
6.27627
 20
-8.50406
 30
0.0
 10
6.27627
 20
-8.50406
 30
0.0
 10
6.34188
 20
-8.57461
 30
0.0
 10
6.45617
 20
-8.64023
 30
0.0
 10
6.40785
 20
-8.75488
 30
0.0
 10
6.40785
 20
-8.75488
 30
0.0
 10
2.14277
 20
-4.48098
 30
0.0
 10
-2.13289
 20
-0.21731
 30
0.0
 10
-6.39903
 20
4.05518
 30
0.0
 10
-6.39903
 20
4.05518
 30
0.0
 10
-6.39903
 20
4.08374
 30
0.0
 10
-6.39867
 20
4.1416
 30
0.0
 10
-6.39867
 20
4.17054
 30
0.0
  0
SPLINE
  5
60
330
1F
100
AcDbEntity
  8
Camada 1
100
AcDbSpline
210
0.0
220
0.0
230
1.0
 70
    11
 71
     3
 72
    20
 73
    16
 74
     0
 42
0.0000000001
 43
0.0000000001
 12
1.0
 22
0.0
 32
0.0
 13
1.0
 23
0.0
 33
0.0
 40
0.0
 40
0.0
 40
0.0
 40
0.0
 40
0.2
 40
0.2
 40
0.2
 40
0.2
 40
0.4
 40
0.4
 40
0.4
 40
0.4
 40
0.6
 40
0.6
 40
0.6
 40
0.6
 40
1.0
 40
1.0
 40
1.0
 40
1.0
 10
-6.39938
 20
3.92677
 30
0.0
 10
-2.17311
 20
-0.30268
 30
0.0
 10
2.0588
 20
-4.52649
 30
0.0
 10
6.28332
 20
-8.7577
 30
0.0
 10
6.28332
 20
-8.7577
 30
0.0
 10
6.21736
 20
-8.7644
 30
0.0
 10
6.15385
 20
-8.75875
 30
0.0
 10
6.1147
 20
-8.70126
 30
0.0
 10
6.1147
 20
-8.70126
 30
0.0
 10
1.94486
 20
-4.52966
 30
0.0
 10
-2.22778
 20
-0.36089
 30
0.0
 10
-6.39762
 20
3.8107
 30
0.0
 10
-6.39762
 20
3.8107
 30
0.0
 10
-6.39797
 20
3.83962
 30
0.0
 10
-6.39867
 20
3.89784
 30
0.0
 10
-6.39938
 20
3.92677
 30
0.0
  0
SPLINE
  5
61
330
1F
100
AcDbEntity
  8
Camada 1
100
AcDbSpline
210
0.0
220
0.0
230
1.0
 70
    11
 71
     3
 72
    24
 73
    20
 74
     0
 42
0.0000000001
 43
0.0000000001
 12
1.0
 22
0.0
 32
0.0
 13
1.0
 23
0.0
 33
0.0
 40
0.0
 40
0.0
 40
0.0
 40
0.0
 40
0.1666666666666667
 40
0.1666666666666667
 40
0.1666666666666667
 40
0.1666666666666667
 40
0.3333333333333333
 40
0.3333333333333333
 40
0.3333333333333333
 40
0.3333333333333333
 40
0.5
 40
0.5
 40
0.5
 40
0.5
 40
0.6666666666666666
 40
0.6666666666666666
 40
0.6666666666666666
 40
0.6666666666666666
 40
1.0
 40
1.0
 40
1.0
 40
1.0
 10
-6.39726
 20
2.99895
 30
0.0
 10
-2.48425
 20
-0.92357
 30
0.0
 10
1.43968
 20
-4.83551
 30
0.0
 10
5.3541
 20
-8.75629
 30
0.0
 10
5.3541
 20
-8.75629
 30
0.0
 10
5.16466
 20
-8.75665
 30
0.0
 10
4.97557
 20
-8.75453
 30
0.0
 10
4.78613
 20
-8.75805
 30
0.0
 10
4.78613
 20
-8.75805
 30
0.0
 10
2.53541
 20
-6.51686
 30
0.0
 10
0.29316
 20
-4.26649
 30
0.0
 10
-1.95509
 20
-2.02211
 30
0.0
 10
-1.95509
 20
-2.02211
 30
0.0
 10
-3.43923
 20
-0.54222
 30
0.0
 10
-4.9209
 20
0.9398
 30
0.0
 10
-6.4015
 20
2.42288
 30
0.0
 10
-6.4015
 20
2.42288
 30
0.0
 10
-6.39762
 20
2.61479
 30
0.0
 10
-6.40432
 20
2.80704
 30
0.0
 10
-6.39726
 20
2.99895
 30
0.0
  0
SPLINE
  5
62
330
1F
100
AcDbEntity
  8
Camada 1
100
AcDbSpline
210
0.0
220
0.0
230
1.0
 70
    11
 71
     3
 72
    20
 73
    16
 74
     0
 42
0.0000000001
 43
0.0000000001
 12
1.0
 22
0.0
 32
0.0
 13
1.0
 23
0.0
 33
0.0
 40
0.0
 40
0.0
 40
0.0
 40
0.0
 40
0.2
 40
0.2
 40
0.2
 40
0.2
 40
0.4
 40
0.4
 40
0.4
 40
0.4
 40
0.6
 40
0.6
 40
0.6
 40
0.6
 40
1.0
 40
1.0
 40
1.0
 40
1.0
 10
-6.39903
 20
2.16005
 30
0.0
 10
-2.7626
 20
-1.48061
 30
0.0
 10
0.88053
 20
-5.11527
 30
0.0
 10
4.51555
 20
-8.75736
 30
0.0
 10
4.51555
 20
-8.75736
 30
0.0
 10
4.45065
 20
-8.7637
 30
0.0
 10
4.38679
 20
-8.76053
 30
0.0
 10
4.34764
 20
-8.70303
 30
0.0
 10
4.34764
 20
-8.70303
 30
0.0
 10
0.76588
 20
-5.12022
 30
0.0
 10
-2.81834
 20
-1.53987
 30
0.0
 10
-6.39938
 20
2.04364
 30
0.0
 10
-6.39938
 20
2.04364
 30
0.0
 10
-6.39903
 20
2.07291
 30
0.0
 10
-6.39903
 20
2.13077
 30
0.0
 10
-6.39903
 20
2.16005
 30
0.0
  0
SPLINE
  5
63
330
1F
100
AcDbEntity
  8
Camada 1
100
AcDbSpline
210
0.0
220
0.0
230
1.0
 70
    11
 71
     3
 72
    20
 73
    16
 74
     0
 42
0.0000000001
 43
0.0000000001
 12
1.0
 22
0.0
 32
0.0
 13
1.0
 23
0.0
 33
0.0
 40
0.0
 40
0.0
 40
0.0
 40
0.0
 40
0.2
 40
0.2
 40
0.2
 40
0.2
 40
0.4
 40
0.4
 40
0.4
 40
0.4
 40
0.6
 40
0.6
 40
0.6
 40
0.6
 40
1.0
 40
1.0
 40
1.0
 40
1.0
 10
-6.39974
 20
1.91805
 30
0.0
 10
-2.84514
 20
-1.64324
 30
0.0
 10
0.71825
 20
-5.1957
 30
0.0
 10
4.27214
 20
-8.7577
 30
0.0
 10
4.27214
 20
-8.7577
 30
0.0
 10
4.21181
 20
-8.7711
 30
0.0
 10
4.16172
 20
-8.75841
 30
0.0
 10
4.12184
 20
-8.7196
 30
0.0
 10
4.12184
 20
-8.7196
 30
0.0
 10
0.61453
 20
-5.21404
 30
0.0
 10
-2.88924
 20
-1.70497
 30
0.0
 10
-6.39974
 20
1.7974
 30
0.0
 10
-6.39974
 20
1.7974
 30
0.0
 10
-6.39974
 20
1.83761
 30
0.0
 10
-6.39974
 20
1.87783
 30
0.0
 10
-6.39974
 20
1.91805
 30
0.0
  0
SPLINE
  5
64
330
1F
100
AcDbEntity
  8
Camada 1
100
AcDbSpline
210
0.0
220
0.0
230
1.0
 70
    11
 71
     3
 72
    20
 73
    16
 74
     0
 42
0.0000000001
 43
0.0000000001
 12
1.0
 22
0.0
 32
0.0
 13
1.0
 23
0.0
 33
0.0
 40
0.0
 40
0.0
 40
0.0
 40
0.0
 40
0.2
 40
0.2
 40
0.2
 40
0.2
 40
0.4
 40
0.4
 40
0.4
 40
0.4
 40
0.6
 40
0.6
 40
0.6
 40
0.6
 40
1.0
 40
1.0
 40
1.0
 40
1.0
 10
-6.39974
 20
1.67216
 30
0.0
 10
-2.92452
 20
-1.80516
 30
0.0
 10
0.55491
 20
-5.27861
 30
0.0
 10
4.02836
 20
-8.75805
 30
0.0
 10
4.02836
 20
-8.75805
 30
0.0
 10
3.96168
 20
-8.76477
 30
0.0
 10
3.89819
 20
-8.75805
 30
0.0
 10
3.85903
 20
-8.69984
 30
0.0
 10
3.85903
 20
-8.69984
 30
0.0
 10
0.44908
 20
-5.28849
 30
0.0
 10
-2.96262
 20
-1.87854
 30
0.0
 10
-6.37363
 20
1.53175
 30
0.0
 10
-6.37363
 20
1.53175
 30
0.0
 10
-6.4202
 20
1.56457
 30
0.0
 10
-6.39409
 20
1.62665
 30
0.0
 10
-6.39974
 20
1.67216
 30
0.0
  0
SPLINE
  5
65
330
1F
100
AcDbEntity
  8
Camada 1
100
AcDbSpline
210
0.0
220
0.0
230
1.0
 70
    11
 71
     3
 72
    24
 73
    20
 74
     0
 42
0.0000000001
 43
0.0000000001
 12
1.0
 22
0.0
 32
0.0
 13
1.0
 23
0.0
 33
0.0
 40
0.0
 40
0.0
 40
0.0
 40
0.0
 40
0.1666666666666667
 40
0.1666666666666667
 40
0.1666666666666667
 40
0.1666666666666667
 40
0.3333333333333333
 40
0.3333333333333333
 40
0.3333333333333333
 40
0.3333333333333333
 40
0.5
 40
0.5
 40
0.5
 40
0.5
 40
0.6666666666666666
 40
0.6666666666666666
 40
0.6666666666666666
 40
0.6666666666666666
 40
1.0
 40
1.0
 40
1.0
 40
1.0
 10
-6.39867
 20
1.2947
 30
0.0
 10
-3.05187
 20
-2.05916
 30
0.0
 10
0.30302
 20
-5.40526
 30
0.0
 10
3.65125
 20
-8.7577
 30
0.0
 10
3.65125
 20
-8.7577
 30
0.0
 10
3.46357
 20
-8.75383
 30
0.0
 10
3.27589
 20
-8.75841
 30
0.0
 10
3.08821
 20
-8.75595
 30
0.0
 10
3.08821
 20
-8.75595
 30
0.0
 10
2.86137
 20
-8.55344
 30
0.0
 10
2.65499
 20
-8.32626
 30
0.0
 10
2.43592
 20
-8.11423
 30
0.0
 10
2.43592
 20
-8.11423
 30
0.0
 10
-0.51011
 20
-5.16819
 30
0.0
 10
-3.45934
 20
-2.22496
 30
0.0
 10
-6.40257
 20
0.72424
 30
0.0
 10
-6.40257
 20
0.72424
 30
0.0
 10
-6.39692
 20
0.91439
 30
0.0
 10
-6.40362
 20
1.10455
 30
0.0
 10
-6.39867
 20
1.2947
 30
0.0
  0
SPLINE
  5
66
330
1F
100
AcDbEntity
  8
Camada 1
100
AcDbSpline
210
0.0
220
0.0
230
1.0
 70
    11
 71
     3
 72
    28
 73
    24
 74
     0
 42
0.0000000001
 43
0.0000000001
 12
1.0
 22
0.0
 32
0.0
 13
1.0
 23
0.0
 33
0.0
 40
0.0
 40
0.0
 40
0.0
 40
0.0
 40
0.1428571428571428
 40
0.1428571428571428
 40
0.1428571428571428
 40
0.1428571428571428
 40
0.2857142857142857
 40
0.2857142857142857
 40
0.2857142857142857
 40
0.2857142857142857
 40
0.4285714285714285
 40
0.4285714285714285
 40
0.4285714285714285
 40
0.4285714285714285
 40
0.5714285714285714
 40
0.5714285714285714
 40
0.5714285714285714
 40
0.5714285714285714
 40
0.7142857142857143
 40
0.7142857142857143
 40
0.7142857142857143
 40
0.7142857142857143
 40
1.0
 40
1.0
 40
1.0
 40
1.0
 10
-6.40079
 20
-0.12734
 30
0.0
 10
-5.88751
 20
-0.6223
 30
0.0
 10
-5.39043
 20
-1.13488
 30
0.0
 10
-4.8835
 20
-1.63653
 30
0.0
 10
-4.8835
 20
-1.63653
 30
0.0
 10
-3.27235
 20
-3.24767
 30
0.0
 10
-1.66088
 20
-4.8588
 30
0.0
 10
-0.04938
 20
-6.46959
 30
0.0
 10
-0.04938
 20
-6.46959
 30
0.0
 10
0.70838
 20
-7.23406
 30
0.0
 10
1.4792
 20
-7.98617
 30
0.0
 10
2.22956
 20
-8.7577
 30
0.0
 10
2.22956
 20
-8.7577
 30
0.0
 10
2.19357
 20
-8.757
 30
0.0
 10
2.15793
 20
-8.75629
 30
0.0
 10
2.12231
 20
-8.75558
 30
0.0
 10
2.12231
 20
-8.75558
 30
0.0
 10
-0.7179
 20
-5.91326
 30
0.0
 10
-3.56059
 20
-3.0734
 30
0.0
 10
-6.40115
 20
-0.23176
 30
0.0
 10
-6.40115
 20
-0.23176
 30
0.0
 10
-6.40115
 20
-0.20567
 30
0.0
 10
-6.40079
 20
-0.15346
 30
0.0
 10
-6.40079
 20
-0.12734
 30
0.0
  0
SPLINE
  5
67
330
1F
100
AcDbEntity
  8
Camada 1
100
AcDbSpline
210
0.0
220
0.0
230
1.0
 70
    11
 71
     3
 72
    20
 73
    16
 74
     0
 42
0.0000000001
 43
0.0000000001
 12
1.0
 22
0.0
 32
0.0
 13
1.0
 23
0.0
 33
0.0
 40
0.0
 40
0.0
 40
0.0
 40
0.0
 40
0.2
 40
0.2
 40
0.2
 40
0.2
 40
0.4
 40
0.4
 40
0.4
 40
0.4
 40
0.6
 40
0.6
 40
0.6
 40
0.6
 40
1.0
 40
1.0
 40
1.0
 40
1.0
 10
-6.39726
 20
-0.36054
 30
0.0
 10
-3.60503
 20
-3.16442
 30
0.0
 10
-0.80151
 20
-5.95736
 30
0.0
 10
1.99495
 20
-8.757
 30
0.0
 10
1.99495
 20
-8.757
 30
0.0
 10
1.95791
 20
-8.757
 30
0.0
 10
1.92088
 20
-8.75736
 30
0.0
 10
1.88382
 20
-8.75805
 30
0.0
 10
1.88382
 20
-8.75805
 30
0.0
 10
-0.88053
 20
-6.00039
 30
0.0
 10
-3.63784
 20
-3.23603
 30
0.0
 10
-6.4015
 20
-0.47766
 30
0.0
 10
-6.4015
 20
-0.47766
 30
0.0
 10
-6.40045
 20
-0.4385
 30
0.0
 10
-6.39903
 20
-0.39933
 30
0.0
 10
-6.39726
 20
-0.36054
 30
0.0
  0
SPLINE
  5
68
330
1F
100
AcDbEntity
  8
Camada 1
100
AcDbSpline
210
0.0
220
0.0
230
1.0
 70
    11
 71
     3
 72
    20
 73
    16
 74
     0
 42
0.0000000001
 43
0.0000000001
 12
1.0
 22
0.0
 32
0.0
 13
1.0
 23
0.0
 33
0.0
 40
0.0
 40
0.0
 40
0.0
 40
0.0
 40
0.2
 40
0.2
 40
0.2
 40
0.2
 40
0.4
 40
0.4
 40
0.4
 40
0.4
 40
0.6
 40
0.6
 40
0.6
 40
0.6
 40
1.0
 40
1.0
 40
1.0
 40
1.0
 10
-6.39726
 20
-0.60395
 30
0.0
 10
-3.68511
 20
-3.32598
 30
0.0
 10
-0.96343
 20
-6.03849
 30
0.0
 10
1.75224
 20
-8.75665
 30
0.0
 10
1.75224
 20
-8.75665
 30
0.0
 10
1.7145
 20
-8.75665
 30
0.0
 10
1.67674
 20
-8.75665
 30
0.0
 10
1.639
 20
-8.75736
 30
0.0
 10
1.639
 20
-8.75736
 30
0.0
 10
-1.02517
 20
-6.09811
 30
0.0
 10
-3.68511
 20
-3.435
 30
0.0
 10
-6.34894
 20
-0.7754
 30
0.0
 10
-6.34894
 20
-0.7754
 30
0.0
 10
-6.41208
 20
-0.73659
 30
0.0
 10
-6.40644
 20
-0.66886
 30
0.0
 10
-6.39726
 20
-0.60395
 30
0.0
  0
SPLINE
  5
69
330
1F
100
AcDbEntity
  8
Camada 1
100
AcDbSpline
210
0.0
220
0.0
230
1.0
 70
    11
 71
     3
 72
    20
 73
    16
 74
     0
 42
0.0000000001
 43
0.0000000001
 12
1.0
 22
0.0
 32
0.0
 13
1.0
 23
0.0
 33
0.0
 40
0.0
 40
0.0
 40
0.0
 40
0.0
 40
0.2
 40
0.2
 40
0.2
 40
0.2
 40
0.4
 40
0.4
 40
0.4
 40
0.4
 40
0.6
 40
0.6
 40
0.6
 40
0.6
 40
1.0
 40
1.0
 40
1.0
 40
1.0
 10
-6.40009
 20
-1.53634
 30
0.0
 10
-3.9952
 20
-3.94441
 30
0.0
 10
-1.58574
 20
-6.34787
 30
0.0
 10
0.81845
 20
-8.75665
 30
0.0
 10
0.81845
 20
-8.75665
 30
0.0
 10
0.6283
 20
-8.75558
 30
0.0
 10
0.4378
 20
-8.757
 30
0.0
 10
0.24765
 20
-8.75595
 30
0.0
 10
0.24765
 20
-8.75595
 30
0.0
 10
-1.96814
 20
-6.54085
 30
0.0
 10
-4.18182
 20
-4.32364
 30
0.0
 10
-6.39974
 20
-2.11067
 30
0.0
 10
-6.39974
 20
-2.11067
 30
0.0
 10
-6.40079
 20
-1.9191
 30
0.0
 10
-6.40045
 20
-1.7279
 30
0.0
 10
-6.40009
 20
-1.53634
 30
0.0
  0
SPLINE
  5
6A
330
1F
100
AcDbEntity
  8
Camada 1
100
AcDbSpline
210
0.0
220
0.0
230
1.0
 70
    11
 71
     3
 72
    20
 73
    16
 74
     0
 42
0.0000000001
 43
0.0000000001
 12
1.0
 22
0.0
 32
0.0
 13
1.0
 23
0.0
 33
0.0
 40
0.0
 40
0.0
 40
0.0
 40
0.0
 40
0.2
 40
0.2
 40
0.2
 40
0.2
 40
0.4
 40
0.4
 40
0.4
 40
0.4
 40
0.6
 40
0.6
 40
0.6
 40
0.6
 40
1.0
 40
1.0
 40
1.0
 40
1.0
 10
-6.40186
 20
-2.37808
 30
0.0
 10
-4.26826
 20
-4.49932
 30
0.0
 10
-2.14453
 20
-6.63187
 30
0.0
 10
-0.01588
 20
-8.75841
 30
0.0
 10
-0.01588
 20
-8.75841
 30
0.0
 10
-0.07301
 20
-8.75875
 30
0.0
 10
-0.13828
 20
-8.76723
 30
0.0
 10
-0.17497
 20
-8.71361
 30
0.0
 10
-0.17497
 20
-8.71361
 30
0.0
 10
-2.2493
 20
-6.63751
 30
0.0
 10
-4.3254
 20
-4.56282
 30
0.0
 10
-6.40079
 20
-2.48778
 30
0.0
 10
-6.40079
 20
-2.48778
 30
0.0
 10
-6.40079
 20
-2.46027
 30
0.0
 10
-6.4015
 20
-2.40524
 30
0.0
 10
-6.40186
 20
-2.37808
 30
0.0
  0
SPLINE
  5
6B
330
1F
100
AcDbEntity
  8
Camada 1
100
AcDbSpline
210
0.0
220
0.0
230
1.0
 70
    11
 71
     3
 72
    20
 73
    16
 74
     0
 42
0.0000000001
 43
0.0000000001
 12
1.0
 22
0.0
 32
0.0
 13
1.0
 23
0.0
 33
0.0
 40
0.0
 40
0.0
 40
0.0
 40
0.0
 40
0.2
 40
0.2
 40
0.2
 40
0.2
 40
0.4
 40
0.4
 40
0.4
 40
0.4
 40
0.6
 40
0.6
 40
0.6
 40
0.6
 40
1.0
 40
1.0
 40
1.0
 40
1.0
 10
-6.39762
 20
-2.61513
 30
0.0
 10
-4.35504
 20
-4.66619
 30
0.0
 10
-2.30433
 20
-6.70913
 30
0.0
 10
-0.25858
 20
-8.757
 30
0.0
 10
-0.25858
 20
-8.757
 30
0.0
 10
-0.29598
 20
-8.757
 30
0.0
 10
-0.33301
 20
-8.75736
 30
0.0
 10
-0.37007
 20
-8.7577
 30
0.0
 10
-0.37007
 20
-8.7577
 30
0.0
 10
-2.36607
 20
-6.77016
 30
0.0
 10
-4.35434
 20
-4.77485
 30
0.0
 10
-6.34753
 20
-2.78482
 30
0.0
 10
-6.34753
 20
-2.78482
 30
0.0
 10
-6.40891
 20
-2.74601
 30
0.0
 10
-6.4082
 20
-2.6797
 30
0.0
 10
-6.39762
 20
-2.61513
 30
0.0
  0
SPLINE
  5
6C
330
1F
100
AcDbEntity
  8
Camada 1
100
AcDbSpline
210
0.0
220
0.0
230
1.0
 70
    11
 71
     3
 72
    20
 73
    16
 74
     0
 42
0.0000000001
 43
0.0000000001
 12
1.0
 22
0.0
 32
0.0
 13
1.0
 23
0.0
 33
0.0
 40
0.0
 40
0.0
 40
0.0
 40
0.0
 40
0.2
 40
0.2
 40
0.2
 40
0.2
 40
0.4
 40
0.4
 40
0.4
 40
0.4
 40
0.6
 40
0.6
 40
0.6
 40
0.6
 40
1.0
 40
1.0
 40
1.0
 40
1.0
 10
-6.39692
 20
-2.85891
 30
0.0
 10
-4.43583
 20
-4.82881
 30
0.0
 10
-2.46486
 20
-6.7885
 30
0.0
 10
-0.5027
 20
-8.757
 30
0.0
 10
-0.5027
 20
-8.757
 30
0.0
 10
-0.56268
 20
-8.76017
 30
0.0
 10
-0.62688
 20
-8.76652
 30
0.0
 10
-0.66462
 20
-8.71114
 30
0.0
 10
-0.66462
 20
-8.71114
 30
0.0
 10
-2.57493
 20
-6.79696
 30
0.0
 10
-4.49155
 20
-4.88879
 30
0.0
 10
-6.39974
 20
-2.97249
 30
0.0
 10
-6.39974
 20
-2.97249
 30
0.0
 10
-6.39903
 20
-2.94393
 30
0.0
 10
-6.39762
 20
-2.88712
 30
0.0
 10
-6.39692
 20
-2.85891
 30
0.0
  0
SPLINE
  5
6D
330
1F
100
AcDbEntity
  8
Camada 1
100
AcDbSpline
210
0.0
220
0.0
230
1.0
 70
    11
 71
     3
 72
    20
 73
    16
 74
     0
 42
0.0000000001
 43
0.0000000001
 12
1.0
 22
0.0
 32
0.0
 13
1.0
 23
0.0
 33
0.0
 40
0.0
 40
0.0
 40
0.0
 40
0.0
 40
0.2
 40
0.2
 40
0.2
 40
0.2
 40
0.4
 40
0.4
 40
0.4
 40
0.4
 40
0.6
 40
0.6
 40
0.6
 40
0.6
 40
1.0
 40
1.0
 40
1.0
 40
1.0
 10
-6.39867
 20
-3.23778
 30
0.0
 10
-4.56247
 20
-5.07965
 30
0.0
 10
-2.71955
 20
-6.91479
 30
0.0
 10
-0.88299
 20
-8.75629
 30
0.0
 10
-0.88299
 20
-8.75629
 30
0.0
 10
-1.07244
 20
-8.757
 30
0.0
 10
-1.26223
 20
-8.75453
 30
0.0
 10
-1.45167
 20
-8.7577
 30
0.0
 10
-1.45167
 20
-8.7577
 30
0.0
 10
-3.10444
 20
-7.1127
 30
0.0
 10
-4.7498
 20
-5.46028
 30
0.0
 10
-6.40045
 20
-3.81316
 30
0.0
 10
-6.40045
 20
-3.81316
 30
0.0
 10
-6.39903
 20
-3.62126
 30
0.0
 10
-6.40221
 20
-3.42935
 30
0.0
 10
-6.39867
 20
-3.23778
 30
0.0
  0
SPLINE
  5
6E
330
1F
100
AcDbEntity
  8
Camada 1
100
AcDbSpline
210
0.0
220
0.0
230
1.0
 70
    11
 71
     3
 72
    20
 73
    16
 74
     0
 42
0.0000000001
 43
0.0000000001
 12
1.0
 22
0.0
 32
0.0
 13
1.0
 23
0.0
 33
0.0
 40
0.0
 40
0.0
 40
0.0
 40
0.0
 40
0.2
 40
0.2
 40
0.2
 40
0.2
 40
0.4
 40
0.4
 40
0.4
 40
0.4
 40
0.6
 40
0.6
 40
0.6
 40
0.6
 40
1.0
 40
1.0
 40
1.0
 40
1.0
 10
-6.39903
 20
-4.64855
 30
0.0
 10
-5.03237
 20
-6.0198
 30
0.0
 10
-3.65901
 20
-7.3847
 30
0.0
 10
-2.29376
 20
-8.75736
 30
0.0
 10
-2.29376
 20
-8.75736
 30
0.0
 10
-2.35725
 20
-8.76229
 30
0.0
 10
-2.42252
 20
-8.76335
 30
0.0
 10
-2.46203
 20
-8.7062
 30
0.0
 10
-2.46203
 20
-8.7062
 30
0.0
 10
-3.77367
 20
-7.39245
 30
0.0
 10
-5.08952
 20
-6.08259
 30
0.0
 10
-6.39903
 20
-4.76673
 30
0.0
 10
-6.39903
 20
-4.76673
 30
0.0
 10
-6.39903
 20
-4.73745
 30
0.0
 10
-6.39903
 20
-4.67818
 30
0.0
 10
-6.39903
 20
-4.64855
 30
0.0
  0
SPLINE
  5
6F
330
1F
100
AcDbEntity
  8
Camada 1
100
AcDbSpline
210
0.0
220
0.0
230
1.0
 70
    11
 71
     3
 72
    20
 73
    16
 74
     0
 42
0.0000000001
 43
0.0000000001
 12
1.0
 22
0.0
 32
0.0
 13
1.0
 23
0.0
 33
0.0
 40
0.0
 40
0.0
 40
0.0
 40
0.0
 40
0.2
 40
0.2
 40
0.2
 40
0.2
 40
0.4
 40
0.4
 40
0.4
 40
0.4
 40
0.6
 40
0.6
 40
0.6
 40
0.6
 40
1.0
 40
1.0
 40
1.0
 40
1.0
 10
-6.39833
 20
-4.89584
 30
0.0
 10
-5.11281
 20
-6.18418
 30
0.0
 10
-3.82269
 20
-7.4676
 30
0.0
 10
-2.53894
 20
-8.75736
 30
0.0
 10
-2.53894
 20
-8.75736
 30
0.0
 10
-2.59961
 20
-8.76017
 30
0.0
 10
-2.66312
 20
-8.76477
 30
0.0
 10
-2.70087
 20
-8.70973
 30
0.0
 10
-2.70087
 20
-8.70973
 30
0.0
 10
-3.93417
 20
-7.47713
 30
0.0
 10
-5.16536
 20
-6.24275
 30
0.0
 10
-6.40079
 20
-5.01261
 30
0.0
 10
-6.40079
 20
-5.01261
 30
0.0
 10
-6.40009
 20
-4.97346
 30
0.0
 10
-6.39938
 20
-4.93465
 30
0.0
 10
-6.39833
 20
-4.89584
 30
0.0
  0
SPLINE
  5
70
330
1F
100
AcDbEntity
  8
Camada 1
100
AcDbSpline
210
0.0
220
0.0
230
1.0
 70
    11
 71
     3
 72
    20
 73
    16
 74
     0
 42
0.0000000001
 43
0.0000000001
 12
1.0
 22
0.0
 32
0.0
 13
1.0
 23
0.0
 33
0.0
 40
0.0
 40
0.0
 40
0.0
 40
0.0
 40
0.2
 40
0.2
 40
0.2
 40
0.2
 40
0.4
 40
0.4
 40
0.4
 40
0.4
 40
0.6
 40
0.6
 40
0.6
 40
0.6
 40
1.0
 40
1.0
 40
1.0
 40
1.0
 10
-6.39974
 20
-5.14561
 30
0.0
 10
-5.18829
 20
-6.3433
 30
0.0
 10
-3.98709
 20
-7.55297
 30
0.0
 10
-2.78236
 20
-8.75841
 30
0.0
 10
-2.78236
 20
-8.75841
 30
0.0
 10
-2.84833
 20
-8.7644
 30
0.0
 10
-2.91253
 20
-8.75875
 30
0.0
 10
-2.95205
 20
-8.70126
 30
0.0
 10
-2.95205
 20
-8.70126
 30
0.0
 10
-4.10069
 20
-7.55297
 30
0.0
 10
-5.24651
 20
-6.4015
 30
0.0
 10
-6.39903
 20
-5.25744
 30
0.0
 10
-6.39903
 20
-5.25744
 30
0.0
 10
-6.39974
 20
-5.22005
 30
0.0
 10
-6.40009
 20
-5.18266
 30
0.0
 10
-6.39974
 20
-5.14561
 30
0.0
  0
SPLINE
  5
71
330
1F
100
AcDbEntity
  8
Camada 1
100
AcDbSpline
210
0.0
220
0.0
230
1.0
 70
    11
 71
     3
 72
    20
 73
    16
 74
     0
 42
0.0000000001
 43
0.0000000001
 12
1.0
 22
0.0
 32
0.0
 13
1.0
 23
0.0
 33
0.0
 40
0.0
 40
0.0
 40
0.0
 40
0.0
 40
0.2
 40
0.2
 40
0.2
 40
0.2
 40
0.4
 40
0.4
 40
0.4
 40
0.4
 40
0.6
 40
0.6
 40
0.6
 40
0.6
 40
1.0
 40
1.0
 40
1.0
 40
1.0
 10
-6.39762
 20
-6.06743
 30
0.0
 10
-5.50474
 20
-6.9663
 30
0.0
 10
-4.60516
 20
-7.85883
 30
0.0
 10
-3.71086
 20
-8.757
 30
0.0
 10
-3.71086
 20
-8.757
 30
0.0
 10
-3.90065
 20
-8.75665
 30
0.0
 10
-4.09081
 20
-8.75453
 30
0.0
 10
-4.28059
 20
-8.75805
 30
0.0
 10
-4.28059
 20
-8.75805
 30
0.0
 10
-4.99145
 20
-8.05602
 30
0.0
 10
-5.69489
 20
-7.34625
 30
0.0
 10
-6.4015
 20
-6.64033
 30
0.0
 10
-6.4015
 20
-6.64033
 30
0.0
 10
-6.39726
 20
-6.44913
 30
0.0
 10
-6.40432
 20
-6.25827
 30
0.0
 10
-6.39762
 20
-6.06743
 30
0.0
  0
SPLINE
  5
72
330
1F
100
AcDbEntity
  8
Camada 1
100
AcDbSpline
210
0.0
220
0.0
230
1.0
 70
    11
 71
     3
 72
    20
 73
    16
 74
     0
 42
0.0000000001
 43
0.0000000001
 12
1.0
 22
0.0
 32
0.0
 13
1.0
 23
0.0
 33
0.0
 40
0.0
 40
0.0
 40
0.0
 40
0.0
 40
0.2
 40
0.2
 40
0.2
 40
0.2
 40
0.4
 40
0.4
 40
0.4
 40
0.4
 40
0.6
 40
0.6
 40
0.6
 40
0.6
 40
1.0
 40
1.0
 40
1.0
 40
1.0
 10
-6.39903
 20
-6.90174
 30
0.0
 10
-5.78484
 20
-7.52298
 30
0.0
 10
-5.16183
 20
-8.13576
 30
0.0
 10
-4.54837
 20
-8.75736
 30
0.0
 10
-4.54837
 20
-8.75736
 30
0.0
 10
-4.57624
 20
-8.757
 30
0.0
 10
-4.63232
 20
-8.75558
 30
0.0
 10
-4.66054
 20
-8.75524
 30
0.0
 10
-4.66054
 20
-8.75524
 30
0.0
 10
-5.24686
 20
-8.18479
 30
0.0
 10
-5.81659
 20
-7.59707
 30
0.0
 10
-6.40045
 20
-7.02415
 30
0.0
 10
-6.40045
 20
-7.02415
 30
0.0
 10
-6.40009
 20
-6.98287
 30
0.0
 10
-6.39974
 20
-6.94231
 30
0.0
 10
-6.39903
 20
-6.90174
 30
0.0
  0
SPLINE
  5
73
330
1F
100
AcDbEntity
  8
Camada 1
100
AcDbSpline
210
0.0
220
0.0
230
1.0
 70
    11
 71
     3
 72
    20
 73
    16
 74
     0
 42
0.0000000001
 43
0.0000000001
 12
1.0
 22
0.0
 32
0.0
 13
1.0
 23
0.0
 33
0.0
 40
0.0
 40
0.0
 40
0.0
 40
0.0
 40
0.2
 40
0.2
 40
0.2
 40
0.2
 40
0.4
 40
0.4
 40
0.4
 40
0.4
 40
0.6
 40
0.6
 40
0.6
 40
0.6
 40
1.0
 40
1.0
 40
1.0
 40
1.0
 10
-6.39938
 20
-7.14621
 30
0.0
 10
-5.86598
 20
-7.68526
 30
0.0
 10
-5.32482
 20
-8.21725
 30
0.0
 10
-4.79248
 20
-8.7577
 30
0.0
 10
-4.79248
 20
-8.7577
 30
0.0
 10
-4.8207
 20
-8.757
 30
0.0
 10
-4.87749
 20
-8.75524
 30
0.0
 10
-4.90573
 20
-8.75453
 30
0.0
 10
-4.90573
 20
-8.75453
 30
0.0
 10
-5.40737
 20
-8.26135
 30
0.0
 10
-5.90125
 20
-7.7597
 30
0.0
 10
-6.40079
 20
-7.26369
 30
0.0
 10
-6.40079
 20
-7.26369
 30
0.0
 10
-6.40045
 20
-7.2344
 30
0.0
 10
-6.39974
 20
-7.17585
 30
0.0
 10
-6.39938
 20
-7.14621
 30
0.0
  0
SPLINE
  5
74
330
1F
100
AcDbEntity
  8
Camada 1
100
AcDbSpline
210
0.0
220
0.0
230
1.0
 70
    11
 71
     3
 72
    20
 73
    16
 74
     0
 42
0.0000000001
 43
0.0000000001
 12
1.0
 22
0.0
 32
0.0
 13
1.0
 23
0.0
 33
0.0
 40
0.0
 40
0.0
 40
0.0
 40
0.0
 40
0.2
 40
0.2
 40
0.2
 40
0.2
 40
0.4
 40
0.4
 40
0.4
 40
0.4
 40
0.6
 40
0.6
 40
0.6
 40
0.6
 40
1.0
 40
1.0
 40
1.0
 40
1.0
 10
-6.39903
 20
-7.3921
 30
0.0
 10
-5.94818
 20
-7.85001
 30
0.0
 10
-5.48886
 20
-8.29944
 30
0.0
 10
-5.03872
 20
-8.75736
 30
0.0
 10
-5.03872
 20
-8.75736
 30
0.0
 10
-5.06659
 20
-8.75665
 30
0.0
 10
-5.12268
 20
-8.75524
 30
0.0
 10
-5.15055
 20
-8.75417
 30
0.0
 10
-5.15055
 20
-8.75417
 30
0.0
 10
-5.56965
 20
-8.33931
 30
0.0
 10
-5.98664
 20
-7.92161
 30
0.0
 10
-6.40257
 20
-7.50322
 30
0.0
 10
-6.40257
 20
-7.50322
 30
0.0
 10
-6.40115
 20
-7.46583
 30
0.0
 10
-6.40009
 20
-7.42879
 30
0.0
 10
-6.39903
 20
-7.3921
 30
0.0
  0
SPLINE
  5
75
330
1F
100
AcDbEntity
  8
Camada 1
100
AcDbSpline
210
0.0
220
0.0
230
1.0
 70
    11
 71
     3
 72
    20
 73
    16
 74
     0
 42
0.0000000001
 43
0.0000000001
 12
1.0
 22
0.0
 32
0.0
 13
1.0
 23
0.0
 33
0.0
 40
0.0
 40
0.0
 40
0.0
 40
0.0
 40
0.2
 40
0.2
 40
0.2
 40
0.2
 40
0.4
 40
0.4
 40
0.4
 40
0.4
 40
0.6
 40
0.6
 40
0.6
 40
0.6
 40
1.0
 40
1.0
 40
1.0
 40
1.0
 10
-6.39762
 20
-7.76993
 30
0.0
 10
-6.07447
 20
-8.10365
 30
0.0
 10
-5.74111
 20
-8.42715
 30
0.0
 10
-5.41513
 20
-8.7577
 30
0.0
 10
-5.41513
 20
-8.7577
 30
0.0
 10
-5.60351
 20
-8.75629
 30
0.0
 10
-5.79191
 20
-8.75347
 30
0.0
 10
-5.98028
 20
-8.75912
 30
0.0
 10
-5.98028
 20
-8.75912
 30
0.0
 10
-6.12563
 20
-8.62329
 30
0.0
 10
-6.26497
 20
-8.48113
 30
0.0
 10
-6.40291
 20
-8.33825
 30
0.0
 10
-6.40291
 20
-8.33825
 30
0.0
 10
-6.39585
 20
-8.14882
 30
0.0
 10
-6.40503
 20
-7.95901
 30
0.0
 10
-6.39762
 20
-7.76993
 30
0.0
  0
ENDSEC
  0
SECTION
  2
OBJECTS
  0
DICTIONARY
  5
C
330
0
100
AcDbDictionary
281
     1
  3
ACAD_GROUP
350
D
  3
ACAD_LAYOUT
350
1A
  3
ACAD_MATERIAL
350
3B
  3
ACAD_MLEADERSTYLE
350
97
  3
ACAD_MLINESTYLE
350
17
  3
ACAD_PLOTSETTINGS
350
19
  3
ACAD_PLOTSTYLENAME
350
E
  3
ACAD_TABLESTYLE
350
96
  3
ACAD_VISUALSTYLE
350
2A
  0
DICTIONARY
  5
D
102
{ACAD_REACTORS
330
C
102
}
330
C
100
AcDbDictionary
281
     1
  0
DICTIONARY
  5
1A
102
{ACAD_REACTORS
330
C
102
}
330
C
100
AcDbDictionary
281
     1
  3
Layout1
350
1E
  3
Layout2
350
26
  3
Model
350
22
  0
DICTIONARY
  5
3B
102
{ACAD_REACTORS
330
C
102
}
330
C
100
AcDbDictionary
281
     1
  3
ByBlock
350
3D
  3
ByLayer
350
3C
  3
Global
350
3E
  0
DICTIONARY
  5
97
102
{ACAD_REACTORS
330
C
102
}
330
C
100
AcDbDictionary
281
     1
  0
DICTIONARY
  5
17
102
{ACAD_REACTORS
330
C
102
}
330
C
100
AcDbDictionary
281
     1
  3
Standard
350
18
  0
DICTIONARY
  5
19
102
{ACAD_REACTORS
330
C
102
}
330
C
100
AcDbDictionary
281
     1
  0
ACDBDICTIONARYWDFLT
  5
E
102
{ACAD_REACTORS
330
C
102
}
330
C
100
AcDbDictionary
281
     1
  3
Normal
350
F
100
AcDbDictionaryWithDefault
340
F
  0
DICTIONARY
  5
96
102
{ACAD_REACTORS
330
C
102
}
330
C
100
AcDbDictionary
281
     1
  0
DICTIONARY
  5
2A
102
{ACAD_REACTORS
330
C
102
}
330
C
100
AcDbDictionary
281
     1
  3
2dWireframe
350
2F
  3
3D Hidden
350
31
  3
3dWireframe
350
30
  3
Basic
350
32
  3
Brighten
350
36
  3
ColorChange
350
3A
  3
Conceptual
350
34
  3
Dim
350
35
  3
Facepattern
350
39
  3
Flat
350
2B
  3
FlatWithEdges
350
2C
  3
Gouraud
350
2D
  3
GouraudWithEdges
350
2E
  3
Linepattern
350
38
  3
Realistic
350
33
  3
Thicken
350
37
  0
LAYOUT
  5
1E
102
{ACAD_REACTORS
330
1A
102
}
330
1A
100
AcDbPlotSettings
  1

  2
none_device
  4

  6

 40
0.0
 41
0.0
 42
0.0
 43
0.0
 44
0.0
 45
0.0
 46
0.0
 47
0.0
 48
0.0
 49
0.0
140
0.0
141
0.0
142
1.0
143
1.0
 70
   688
 72
     0
 73
     0
 74
     5
  7

 75
    16
 76
     0
 77
     2
 78
   300
147
1.0
148
0.0
149
0.0
100
AcDbLayout
  1
Layout1
 70
     1
 71
     1
 10
0.0
 20
0.0
 11
12.0
 21
9.0
 12
0.0
 22
0.0
 32
0.0
 14
1.000000000000000E+20
 24
1.000000000000000E+20
 34
1.000000000000000E+20
 15
-1.000000000000000E+20
 25
-1.000000000000000E+20
 35
-1.000000000000000E+20
146
0.0
 13
0.0
 23
0.0
 33
0.0
 16
1.0
 26
0.0
 36
0.0
 17
0.0
 27
1.0
 37
0.0
 76
     0
330
1B
  0
LAYOUT
  5
26
102
{ACAD_REACTORS
330
1A
102
}
330
1A
100
AcDbPlotSettings
  1

  2
none_device
  4

  6

 40
0.0
 41
0.0
 42
0.0
 43
0.0
 44
0.0
 45
0.0
 46
0.0
 47
0.0
 48
0.0
 49
0.0
140
0.0
141
0.0
142
1.0
143
1.0
 70
   688
 72
     0
 73
     0
 74
     5
  7

 75
    16
 76
     0
 77
     2
 78
   300
147
1.0
148
0.0
149
0.0
100
AcDbLayout
  1
Layout2
 70
     1
 71
     2
 10
0.0
 20
0.0
 11
0.0
 21
0.0
 12
0.0
 22
0.0
 32
0.0
 14
0.0
 24
0.0
 34
0.0
 15
0.0
 25
0.0
 35
0.0
146
0.0
 13
0.0
 23
0.0
 33
0.0
 16
1.0
 26
0.0
 36
0.0
 17
0.0
 27
1.0
 37
0.0
 76
     0
330
23
  0
LAYOUT
  5
22
102
{ACAD_REACTORS
330
1A
102
}
330
1A
100
AcDbPlotSettings
  1

  2
none_device
  4

  6

 40
0.0
 41
0.0
 42
0.0
 43
0.0
 44
0.0
 45
0.0
 46
0.0
 47
0.0
 48
0.0
 49
0.0
140
0.0
141
0.0
142
1.0
143
1.0
 70
  1712
 72
     0
 73
     0
 74
     0
  7

 75
     0
 76
     0
 77
     2
 78
   300
147
1.0
148
0.0
149
0.0
100
AcDbLayout
  1
Model
 70
     1
 71
     0
 10
0.0
 20
0.0
 11
12.0
 21
9.0
 12
0.0
 22
0.0
 32
0.0
 14
-6.40307
 24
-8.76287
 34
0.0
 15
6.42011
 25
8.72598
 35
0.0
146
0.0
 13
0.0
 23
0.0
 33
0.0
 16
1.0
 26
0.0
 36
0.0
 17
0.0
 27
1.0
 37
0.0
 76
     0
330
1F
331
29
  0
MATERIAL
  5
3D
102
{ACAD_REACTORS
330
3B
102
}
330
3B
100
AcDbMaterial
  1
ByBlock
 72
     1
 94
      127
  0
MATERIAL
  5
3C
102
{ACAD_REACTORS
330
3B
102
}
330
3B
100
AcDbMaterial
  1
ByLayer
 72
     1
 94
      127
  0
MATERIAL
  5
3E
102
{ACAD_REACTORS
330
3B
102
}
330
3B
100
AcDbMaterial
  1
Global
 72
     1
 94
      127
  0
MLINESTYLE
  5
18
102
{ACAD_REACTORS
330
17
102
}
330
17
100
AcDbMlineStyle
  2
Standard
 70
     0
  3

 62
   256
 51
90.0
 52
90.0
 71
     2
 49
0.5
 62
   256
  6
BYLAYER
 49
-0.5
 62
   256
  6
BYLAYER
  0
ACDBPLACEHOLDER
  5
F
102
{ACAD_REACTORS
330
E
102
}
330
E
  0
VISUALSTYLE
  5
2F
102
{ACAD_REACTORS
330
2A
102
}
102
{ACAD_XDICTIONARY
360
7E
102
}
330
2A
100
AcDbVisualStyle
  2
2dWireframe
 70
     4
 71
     0
 72
     2
 73
     0
 90
        0
 40
-0.6
 41
-30.0
 62
     5
 63
     7
421
 16777215
 74
     1
 91
        4
 64
     7
 65
   257
 75
     1
175
     1
 42
1.0
 92
        0
 66
   257
 43
1.0
 76
     1
 77
     6
 78
     2
 67
     7
 79
     5
170
     0
171
     0
290
     0
174
     0
 93
        1
 44
0.0
173
     0
291
     0
 45
0.0
  0
VISUALSTYLE
  5
31
102
{ACAD_REACTORS
330
2A
102
}
102
{ACAD_XDICTIONARY
360
82
102
}
330
2A
100
AcDbVisualStyle
  2
3D Hidden
 70
     6
 71
     1
 72
     2
 73
     2
 90
        0
 40
-0.6
 41
-30.0
 62
     5
 63
     7
421
 16777215
 74
     2
 91
        2
 64
     7
 65
   257
 75
     2
175
     1
 42
40.0
 92
        0
 66
   257
 43
1.0
 76
     1
 77
     6
 78
     2
 67
     7
 79
     3
170
     0
171
     0
290
     0
174
     0
 93
        1
 44
0.0
173
     0
291
     0
 45
0.0
  0
VISUALSTYLE
  5
30
102
{ACAD_REACTORS
330
2A
102
}
102
{ACAD_XDICTIONARY
360
80
102
}
330
2A
100
AcDbVisualStyle
  2
3dWireframe
 70
     5
 71
     0
 72
     2
 73
     0
 90
        0
 40
-0.6
 41
-30.0
 62
     5
 63
     7
421
 16777215
 74
     1
 91
        4
 64
     7
 65
   257
 75
     1
175
     1
 42
1.0
 92
        0
 66
   257
 43
1.0
 76
     1
 77
     6
 78
     2
 67
     7
 79
     5
170
     0
171
     0
290
     0
174
     0
 93
        1
 44
0.0
173
     0
291
     0
 45
0.0
  0
VISUALSTYLE
  5
32
102
{ACAD_REACTORS
330
2A
102
}
102
{ACAD_XDICTIONARY
360
84
102
}
330
2A
100
AcDbVisualStyle
  2
Basic
 70
     7
 71
     1
 72
     0
 73
     1
 90
        0
 40
-0.6
 41
-30.0
 62
     5
 63
     7
421
 16777215
 74
     0
 91
        4
 64
     7
 65
   257
 75
     1
175
     1
 42
1.0
 92
        8
 66
     7
 43
1.0
 76
     1
 77
     6
 78
     2
 67
     7
 79
     5
170
     0
171
     0
290
     0
174
     0
 93
        1
 44
0.0
173
     0
291
     1
 45
0.0
  0
VISUALSTYLE
  5
36
102
{ACAD_REACTORS
330
2A
102
}
102
{ACAD_XDICTIONARY
360
8C
102
}
330
2A
100
AcDbVisualStyle
  2
Brighten
 70
    12
 71
     2
 72
     2
 73
     0
 90
        0
 40
-0.6
 41
-30.0
 62
     5
 63
     7
421
 16777215
 74
     1
 91
        4
 64
     7
 65
   257
 75
     1
175
     1
 42
1.0
 92
        8
 66
     7
 43
1.0
 76
     1
 77
     6
 78
     2
 67
     7
 79
     5
170
     0
171
     0
290
     0
174
     0
 93
        1
 44
50.0
173
     0
291
     1
 45
0.0
  0
VISUALSTYLE
  5
3A
102
{ACAD_REACTORS
330
2A
102
}
102
{ACAD_XDICTIONARY
360
94
102
}
330
2A
100
AcDbVisualStyle
  2
ColorChange
 70
    16
 71
     2
 72
     2
 73
     3
 90
        0
 40
-0.6
 41
-30.0
 62
     5
 63
     8
421
  8421504
 74
     1
 91
        4
 64
     7
 65
   257
 75
     1
175
     1
 42
1.0
 92
        8
 66
     8
424
  8421504
 43
1.0
 76
     1
 77
     6
 78
     2
 67
     7
 79
     5
170
     0
171
     0
290
     0
174
     0
 93
        1
 44
0.0
173
     0
291
     1
 45
0.0
  0
VISUALSTYLE
  5
34
102
{ACAD_REACTORS
330
2A
102
}
102
{ACAD_XDICTIONARY
360
88
102
}
330
2A
100
AcDbVisualStyle
  2
Conceptual
 70
     9
 71
     3
 72
     2
 73
     0
 90
        0
 40
-0.6
 41
-30.0
 62
     5
 63
     7
421
 16777215
 74
     2
 91
        2
 64
     7
 65
   257
 75
     1
175
     1
 42
40.0
 92
        8
 66
     7
 43
1.0
 76
     1
 77
     6
 78
     2
 67
     7
 79
     3
170
     0
171
     0
290
     0
174
     0
 93
        1
 44
0.0
173
     0
291
     0
 45
0.0
  0
VISUALSTYLE
  5
35
102
{ACAD_REACTORS
330
2A
102
}
102
{ACAD_XDICTIONARY
360
8A
102
}
330
2A
100
AcDbVisualStyle
  2
Dim
 70
    11
 71
     2
 72
     2
 73
     0
 90
        0
 40
-0.6
 41
-30.0
 62
     5
 63
     7
421
 16777215
 74
     1
 91
        4
 64
     7
 65
   257
 75
     1
175
     1
 42
1.0
 92
        8
 66
     7
 43
1.0
 76
     1
 77
     6
 78
     2
 67
     7
 79
     5
170
     0
171
     0
290
     0
174
     0
 93
        1
 44
-50.0
173
     0
291
     1
 45
0.0
  0
VISUALSTYLE
  5
39
102
{ACAD_REACTORS
330
2A
102
}
102
{ACAD_XDICTIONARY
360
92
102
}
330
2A
100
AcDbVisualStyle
  2
Facepattern
 70
    15
 71
     2
 72
     2
 73
     0
 90
        0
 40
-0.6
 41
-30.0
 62
     5
 63
     7
421
 16777215
 74
     1
 91
        4
 64
     7
 65
   257
 75
     1
175
     1
 42
1.0
 92
        8
 66
     7
 43
1.0
 76
     1
 77
     6
 78
     2
 67
     7
 79
     5
170
     0
171
     0
290
     0
174
     0
 93
        1
 44
0.0
173
     0
291
     1
 45
0.0
  0
VISUALSTYLE
  5
2B
102
{ACAD_REACTORS
330
2A
102
}
102
{ACAD_XDICTIONARY
360
76
102
}
330
2A
100
AcDbVisualStyle
  2
Flat
 70
     0
 71
     2
 72
     1
 73
     1
 90
        2
 40
-0.6
 41
30.0
 62
     5
 63
     7
421
 16777215
 74
     0
 91
        4
 64
     7
 65
   257
 75
     1
175
     1
 42
1.0
 92
        8
 66
     7
 43
1.0
 76
     1
 77
     6
 78
     2
 67
     7
 79
     5
170
     0
171
     0
290
     0
174
     0
 93
       13
 44
0.0
173
     0
291
     1
 45
0.0
  0
VISUALSTYLE
  5
2C
102
{ACAD_REACTORS
330
2A
102
}
102
{ACAD_XDICTIONARY
360
78
102
}
330
2A
100
AcDbVisualStyle
  2
FlatWithEdges
 70
     1
 71
     2
 72
     1
 73
     1
 90
        2
 40
-0.6
 41
30.0
 62
     5
 63
     7
421
 16777215
 74
     1
 91
        4
 64
     7
 65
   257
 75
     1
175
     1
 42
1.0
 92
        0
 66
   257
 43
1.0
 76
     1
 77
     6
 78
     2
 67
     7
 79
     5
170
     0
171
     0
290
     0
174
     0
 93
       13
 44
0.0
173
     0
291
     1
 45
0.0
  0
VISUALSTYLE
  5
2D
102
{ACAD_REACTORS
330
2A
102
}
102
{ACAD_XDICTIONARY
360
7A
102
}
330
2A
100
AcDbVisualStyle
  2
Gouraud
 70
     2
 71
     2
 72
     2
 73
     1
 90
        2
 40
-0.6
 41
30.0
 62
     5
 63
     7
421
 16777215
 74
     0
 91
        4
 64
     7
 65
   257
 75
     1
175
     1
 42
1.0
 92
        0
 66
     7
 43
1.0
 76
     1
 77
     6
 78
     2
 67
     7
 79
     5
170
     0
171
     0
290
     0
174
     0
 93
       13
 44
0.0
173
     0
291
     1
 45
0.0
  0
VISUALSTYLE
  5
2E
102
{ACAD_REACTORS
330
2A
102
}
102
{ACAD_XDICTIONARY
360
7C
102
}
330
2A
100
AcDbVisualStyle
  2
GouraudWithEdges
 70
     3
 71
     2
 72
     2
 73
     1
 90
        2
 40
-0.6
 41
30.0
 62
     5
 63
     7
421
 16777215
 74
     1
 91
        4
 64
     7
 65
   257
 75
     1
175
     1
 42
1.0
 92
        0
 66
   257
 43
1.0
 76
     1
 77
     6
 78
     2
 67
     7
 79
     5
170
     0
171
     0
290
     0
174
     0
 93
       13
 44
0.0
173
     0
291
     1
 45
0.0
  0
VISUALSTYLE
  5
38
102
{ACAD_REACTORS
330
2A
102
}
102
{ACAD_XDICTIONARY
360
90
102
}
330
2A
100
AcDbVisualStyle
  2
Linepattern
 70
    14
 71
     2
 72
     2
 73
     0
 90
        0
 40
-0.6
 41
-30.0
 62
     5
 63
     7
421
 16777215
 74
     1
 91
        4
 64
     7
 65
   257
 75
     7
175
     7
 42
1.0
 92
        8
 66
     7
 43
1.0
 76
     1
 77
     6
 78
     2
 67
     7
 79
     5
170
     0
171
     0
290
     0
174
     0
 93
        1
 44
0.0
173
     0
291
     1
 45
0.0
  0
VISUALSTYLE
  5
33
102
{ACAD_REACTORS
330
2A
102
}
102
{ACAD_XDICTIONARY
360
86
102
}
330
2A
100
AcDbVisualStyle
  2
Realistic
 70
     8
 71
     2
 72
     2
 73
     0
 90
        0
 40
-0.6
 41
-30.0
 62
     5
 63
     7
421
 16777215
 74
     1
 91
        0
 64
     7
 65
   257
 75
     1
175
     1
 42
1.0
 92
        8
 66
     8
424
  7895160
 43
1.0
 76
     1
 77
     6
 78
     2
 67
     7
 79
     5
170
     0
171
     0
290
     0
174
     0
 93
       13
 44
0.0
173
     0
291
     0
 45
0.0
  0
VISUALSTYLE
  5
37
102
{ACAD_REACTORS
330
2A
102
}
102
{ACAD_XDICTIONARY
360
8E
102
}
330
2A
100
AcDbVisualStyle
  2
Thicken
 70
    13
 71
     2
 72
     2
 73
     0
 90
        0
 40
-0.6
 41
-30.0
 62
     5
 63
     7
421
 16777215
 74
     1
 91
        4
 64
     7
 65
   257
 75
     1
175
     1
 42
1.0
 92
       12
 66
     7
 43
1.0
 76
     1
 77
     6
 78
     2
 67
     7
 79
     5
170
     0
171
     0
290
     0
174
     0
 93
        1
 44
0.0
173
     0
291
     1
 45
0.0
  0
DICTIONARY
  5
7E
330
2F
100
AcDbDictionary
280
     1
281
     1
  3
ACAD_XREC_ROUNDTRIP
360
7F
  0
DICTIONARY
  5
82
330
31
100
AcDbDictionary
280
     1
281
     1
  3
ACAD_XREC_ROUNDTRIP
360
83
  0
DICTIONARY
  5
80
330
30
100
AcDbDictionary
280
     1
281
     1
  3
ACAD_XREC_ROUNDTRIP
360
81
  0
DICTIONARY
  5
84
330
32
100
AcDbDictionary
280
     1
281
     1
  3
ACAD_XREC_ROUNDTRIP
360
85
  0
DICTIONARY
  5
8C
330
36
100
AcDbDictionary
280
     1
281
     1
  3
ACAD_XREC_ROUNDTRIP
360
8D
  0
DICTIONARY
  5
94
330
3A
100
AcDbDictionary
280
     1
281
     1
  3
ACAD_XREC_ROUNDTRIP
360
95
  0
DICTIONARY
  5
88
330
34
100
AcDbDictionary
280
     1
281
     1
  3
ACAD_XREC_ROUNDTRIP
360
89
  0
DICTIONARY
  5
8A
330
35
100
AcDbDictionary
280
     1
281
     1
  3
ACAD_XREC_ROUNDTRIP
360
8B
  0
DICTIONARY
  5
92
330
39
100
AcDbDictionary
280
     1
281
     1
  3
ACAD_XREC_ROUNDTRIP
360
93
  0
DICTIONARY
  5
76
330
2B
100
AcDbDictionary
280
     1
281
     1
  3
ACAD_XREC_ROUNDTRIP
360
77
  0
DICTIONARY
  5
78
330
2C
100
AcDbDictionary
280
     1
281
     1
  3
ACAD_XREC_ROUNDTRIP
360
79
  0
DICTIONARY
  5
7A
330
2D
100
AcDbDictionary
280
     1
281
     1
  3
ACAD_XREC_ROUNDTRIP
360
7B
  0
DICTIONARY
  5
7C
330
2E
100
AcDbDictionary
280
     1
281
     1
  3
ACAD_XREC_ROUNDTRIP
360
7D
  0
DICTIONARY
  5
90
330
38
100
AcDbDictionary
280
     1
281
     1
  3
ACAD_XREC_ROUNDTRIP
360
91
  0
DICTIONARY
  5
86
330
33
100
AcDbDictionary
280
     1
281
     1
  3
ACAD_XREC_ROUNDTRIP
360
87
  0
DICTIONARY
  5
8E
330
37
100
AcDbDictionary
280
     1
281
     1
  3
ACAD_XREC_ROUNDTRIP
360
8F
  0
XRECORD
  5
7F
102
{ACAD_REACTORS
330
7E
102
}
330
7E
100
AcDbXrecord
280
     1
102
RTVSPropertyOp0
 70
     1
102
RTVSPropertyOp1
 70
     1
102
RTVSPropertyOp2
 70
     1
102
RTVSPropertyOp3
 70
     1
102
RTVSPropertyOp4
 70
     1
102
RTVSPropertyOp5
 70
     1
102
RTVSPropertyOp6
 70
     1
102
RTVSPropertyOp7
 70
     1
102
RTVSPropertyOp8
 70
     1
102
RTVSPropertyOp9
 70
     1
102
RTVSPropertyOp10
 70
     1
102
RTVSPropertyOp11
 70
     1
102
RTVSPropertyOp12
 70
     1
102
RTVSPropertyOp13
 70
     1
102
RTVSPropertyOp14
 70
     1
102
RTVSPropertyOp15
 70
     1
102
RTVSPropertyOp16
 70
     1
102
RTVSPropertyOp17
 70
     1
102
RTVSPropertyOp18
 70
     1
102
RTVSPropertyOp19
 70
     1
102
RTVSPropertyOp20
 70
     1
102
RTVSPropertyOp21
 70
     1
102
RTVSPropertyOp22
 70
     1
102
RTVSPropertyOp23
 70
     1
102
RTVSPropertyOp24
 70
     1
102
RTVSPropertyOp25
 70
     1
102
RTVSPropertyOp26
 70
     1
102
RTVSPropertyOp27
 70
     1
102
RTVSPropertyOp28
 70
     1
102
RTVSPropertyOp29
 70
     1
102
RTVSPropertyOp30
 70
     1
102
RTVSPropertyOp31
 70
     1
102
RTVSPropertyOp32
 70
     1
  0
XRECORD
  5
83
102
{ACAD_REACTORS
330
82
102
}
330
82
100
AcDbXrecord
280
     1
102
RTVSPropertyOp0
 70
     1
102
RTVSPropertyOp1
 70
     1
102
RTVSPropertyOp2
 70
     1
102
RTVSPropertyOp3
 70
     1
102
RTVSPropertyOp4
 70
     1
102
RTVSPropertyOp5
 70
     1
102
RTVSPropertyOp6
 70
     1
102
RTVSPropertyOp7
 70
     1
102
RTVSPropertyOp8
 70
     1
102
RTVSPropertyOp9
 70
     1
102
RTVSPropertyOp10
 70
     1
102
RTVSPropertyOp11
 70
     1
102
RTVSPropertyOp12
 70
     1
102
RTVSPropertyOp13
 70
     1
102
RTVSPropertyOp14
 70
     1
102
RTVSPropertyOp15
 70
     1
102
RTVSPropertyOp16
 70
     1
102
RTVSPropertyOp17
 70
     1
102
RTVSPropertyOp18
 70
     1
102
RTVSPropertyOp19
 70
     1
102
RTVSPropertyOp20
 70
     1
102
RTVSPropertyOp21
 70
     1
102
RTVSPropertyOp22
 70
     1
102
RTVSPropertyOp23
 70
     1
102
RTVSPropertyOp24
 70
     1
102
RTVSPropertyOp25
 70
     1
102
RTVSPropertyOp26
 70
     1
102
RTVSPropertyOp27
 70
     1
102
RTVSPropertyOp28
 70
     1
102
RTVSPropertyOp29
 70
     1
102
RTVSPropertyOp30
 70
     1
102
RTVSPropertyOp31
 70
     1
102
RTVSPropertyOp32
 70
     1
  0
XRECORD
  5
81
102
{ACAD_REACTORS
330
80
102
}
330
80
100
AcDbXrecord
280
     1
102
RTVSPropertyOp0
 70
     1
102
RTVSPropertyOp1
 70
     1
102
RTVSPropertyOp2
 70
     1
102
RTVSPropertyOp3
 70
     1
102
RTVSPropertyOp4
 70
     1
102
RTVSPropertyOp5
 70
     1
102
RTVSPropertyOp6
 70
     1
102
RTVSPropertyOp7
 70
     1
102
RTVSPropertyOp8
 70
     1
102
RTVSPropertyOp9
 70
     1
102
RTVSPropertyOp10
 70
     1
102
RTVSPropertyOp11
 70
     1
102
RTVSPropertyOp12
 70
     1
102
RTVSPropertyOp13
 70
     1
102
RTVSPropertyOp14
 70
     1
102
RTVSPropertyOp15
 70
     1
102
RTVSPropertyOp16
 70
     1
102
RTVSPropertyOp17
 70
     1
102
RTVSPropertyOp18
 70
     1
102
RTVSPropertyOp19
 70
     1
102
RTVSPropertyOp20
 70
     1
102
RTVSPropertyOp21
 70
     1
102
RTVSPropertyOp22
 70
     1
102
RTVSPropertyOp23
 70
     1
102
RTVSPropertyOp24
 70
     1
102
RTVSPropertyOp25
 70
     1
102
RTVSPropertyOp26
 70
     1
102
RTVSPropertyOp27
 70
     1
102
RTVSPropertyOp28
 70
     1
102
RTVSPropertyOp29
 70
     1
102
RTVSPropertyOp30
 70
     1
102
RTVSPropertyOp31
 70
     1
102
RTVSPropertyOp32
 70
     1
  0
XRECORD
  5
85
102
{ACAD_REACTORS
330
84
102
}
330
84
100
AcDbXrecord
280
     1
102
RTVSPropertyOp0
 70
     1
102
RTVSPropertyOp1
 70
     1
102
RTVSPropertyOp2
 70
     1
102
RTVSPropertyOp3
 70
     1
102
RTVSPropertyOp4
 70
     1
102
RTVSPropertyOp5
 70
     1
102
RTVSPropertyOp6
 70
     1
102
RTVSPropertyOp7
 70
     1
102
RTVSPropertyOp8
 70
     1
102
RTVSPropertyOp9
 70
     1
102
RTVSPropertyOp10
 70
     1
102
RTVSPropertyOp11
 70
     1
102
RTVSPropertyOp12
 70
     1
102
RTVSPropertyOp13
 70
     1
102
RTVSPropertyOp14
 70
     1
102
RTVSPropertyOp15
 70
     1
102
RTVSPropertyOp16
 70
     1
102
RTVSPropertyOp17
 70
     1
102
RTVSPropertyOp18
 70
     1
102
RTVSPropertyOp19
 70
     1
102
RTVSPropertyOp20
 70
     1
102
RTVSPropertyOp21
 70
     1
102
RTVSPropertyOp22
 70
     1
102
RTVSPropertyOp23
 70
     1
102
RTVSPropertyOp24
 70
     1
102
RTVSPropertyOp25
 70
     1
102
RTVSPropertyOp26
 70
     1
102
RTVSPropertyOp27
 70
     1
102
RTVSPropertyOp28
 70
     1
102
RTVSPropertyOp29
 70
     1
102
RTVSPropertyOp30
 70
     1
102
RTVSPropertyOp31
 70
     1
102
RTVSPropertyOp32
 70
     1
  0
XRECORD
  5
8D
102
{ACAD_REACTORS
330
8C
102
}
330
8C
100
AcDbXrecord
280
     1
102
RTVSPropertyOp0
 70
     1
102
RTVSPropertyOp1
 70
     1
102
RTVSPropertyOp2
 70
     1
102
RTVSPropertyOp3
 70
     1
102
RTVSPropertyOp4
 70
     1
102
RTVSPropertyOp5
 70
     1
102
RTVSPropertyOp6
 70
     1
102
RTVSPropertyOp7
 70
     1
102
RTVSPropertyOp8
 70
     1
102
RTVSPropertyOp9
 70
     1
102
RTVSPropertyOp10
 70
     1
102
RTVSPropertyOp11
 70
     1
102
RTVSPropertyOp12
 70
     1
102
RTVSPropertyOp13
 70
     1
102
RTVSPropertyOp14
 70
     1
102
RTVSPropertyOp15
 70
     1
102
RTVSPropertyOp16
 70
     1
102
RTVSPropertyOp17
 70
     1
102
RTVSPropertyOp18
 70
     1
102
RTVSPropertyOp19
 70
     1
102
RTVSPropertyOp20
 70
     1
102
RTVSPropertyOp21
 70
     1
102
RTVSPropertyOp22
 70
     1
102
RTVSPropertyOp23
 70
     1
102
RTVSPropertyOp24
 70
     1
102
RTVSPropertyOp25
 70
     1
102
RTVSPropertyOp26
 70
     1
102
RTVSPropertyOp27
 70
     1
102
RTVSPropertyOp28
 70
     1
102
RTVSPropertyOp29
 70
     1
102
RTVSPropertyOp30
 70
     1
102
RTVSPropertyOp31
 70
     1
102
RTVSPropertyOp32
 70
     1
  0
XRECORD
  5
95
102
{ACAD_REACTORS
330
94
102
}
330
94
100
AcDbXrecord
280
     1
102
RTVSPropertyOp0
 70
     1
102
RTVSPropertyOp1
 70
     1
102
RTVSPropertyOp2
 70
     1
102
RTVSPropertyOp3
 70
     1
102
RTVSPropertyOp4
 70
     1
102
RTVSPropertyOp5
 70
     1
102
RTVSPropertyOp6
 70
     1
102
RTVSPropertyOp7
 70
     1
102
RTVSPropertyOp8
 70
     1
102
RTVSPropertyOp9
 70
     1
102
RTVSPropertyOp10
 70
     1
102
RTVSPropertyOp11
 70
     1
102
RTVSPropertyOp12
 70
     1
102
RTVSPropertyOp13
 70
     1
102
RTVSPropertyOp14
 70
     1
102
RTVSPropertyOp15
 70
     1
102
RTVSPropertyOp16
 70
     1
102
RTVSPropertyOp17
 70
     1
102
RTVSPropertyOp18
 70
     1
102
RTVSPropertyOp19
 70
     1
102
RTVSPropertyOp20
 70
     1
102
RTVSPropertyOp21
 70
     1
102
RTVSPropertyOp22
 70
     1
102
RTVSPropertyOp23
 70
     1
102
RTVSPropertyOp24
 70
     1
102
RTVSPropertyOp25
 70
     1
102
RTVSPropertyOp26
 70
     1
102
RTVSPropertyOp27
 70
     1
102
RTVSPropertyOp28
 70
     1
102
RTVSPropertyOp29
 70
     1
102
RTVSPropertyOp30
 70
     1
102
RTVSPropertyOp31
 70
     1
102
RTVSPropertyOp32
 70
     1
  0
XRECORD
  5
89
102
{ACAD_REACTORS
330
88
102
}
330
88
100
AcDbXrecord
280
     1
102
RTVSPropertyOp0
 70
     1
102
RTVSPropertyOp1
 70
     1
102
RTVSPropertyOp2
 70
     1
102
RTVSPropertyOp3
 70
     1
102
RTVSPropertyOp4
 70
     1
102
RTVSPropertyOp5
 70
     1
102
RTVSPropertyOp6
 70
     1
102
RTVSPropertyOp7
 70
     1
102
RTVSPropertyOp8
 70
     1
102
RTVSPropertyOp9
 70
     1
102
RTVSPropertyOp10
 70
     1
102
RTVSPropertyOp11
 70
     1
102
RTVSPropertyOp12
 70
     1
102
RTVSPropertyOp13
 70
     1
102
RTVSPropertyOp14
 70
     1
102
RTVSPropertyOp15
 70
     1
102
RTVSPropertyOp16
 70
     1
102
RTVSPropertyOp17
 70
     1
102
RTVSPropertyOp18
 70
     1
102
RTVSPropertyOp19
 70
     1
102
RTVSPropertyOp20
 70
     1
102
RTVSPropertyOp21
 70
     1
102
RTVSPropertyOp22
 70
     1
102
RTVSPropertyOp23
 70
     1
102
RTVSPropertyOp24
 70
     1
102
RTVSPropertyOp25
 70
     1
102
RTVSPropertyOp26
 70
     1
102
RTVSPropertyOp27
 70
     1
102
RTVSPropertyOp28
 70
     1
102
RTVSPropertyOp29
 70
     1
102
RTVSPropertyOp30
 70
     1
102
RTVSPropertyOp31
 70
     1
102
RTVSPropertyOp32
 70
     1
  0
XRECORD
  5
8B
102
{ACAD_REACTORS
330
8A
102
}
330
8A
100
AcDbXrecord
280
     1
102
RTVSPropertyOp0
 70
     1
102
RTVSPropertyOp1
 70
     1
102
RTVSPropertyOp2
 70
     1
102
RTVSPropertyOp3
 70
     1
102
RTVSPropertyOp4
 70
     1
102
RTVSPropertyOp5
 70
     1
102
RTVSPropertyOp6
 70
     1
102
RTVSPropertyOp7
 70
     1
102
RTVSPropertyOp8
 70
     1
102
RTVSPropertyOp9
 70
     1
102
RTVSPropertyOp10
 70
     1
102
RTVSPropertyOp11
 70
     1
102
RTVSPropertyOp12
 70
     1
102
RTVSPropertyOp13
 70
     1
102
RTVSPropertyOp14
 70
     1
102
RTVSPropertyOp15
 70
     1
102
RTVSPropertyOp16
 70
     1
102
RTVSPropertyOp17
 70
     1
102
RTVSPropertyOp18
 70
     1
102
RTVSPropertyOp19
 70
     1
102
RTVSPropertyOp20
 70
     1
102
RTVSPropertyOp21
 70
     1
102
RTVSPropertyOp22
 70
     1
102
RTVSPropertyOp23
 70
     1
102
RTVSPropertyOp24
 70
     1
102
RTVSPropertyOp25
 70
     1
102
RTVSPropertyOp26
 70
     1
102
RTVSPropertyOp27
 70
     1
102
RTVSPropertyOp28
 70
     1
102
RTVSPropertyOp29
 70
     1
102
RTVSPropertyOp30
 70
     1
102
RTVSPropertyOp31
 70
     1
102
RTVSPropertyOp32
 70
     1
  0
XRECORD
  5
93
102
{ACAD_REACTORS
330
92
102
}
330
92
100
AcDbXrecord
280
     1
102
RTVSPropertyOp0
 70
     1
102
RTVSPropertyOp1
 70
     1
102
RTVSPropertyOp2
 70
     1
102
RTVSPropertyOp3
 70
     1
102
RTVSPropertyOp4
 70
     1
102
RTVSPropertyOp5
 70
     1
102
RTVSPropertyOp6
 70
     1
102
RTVSPropertyOp7
 70
     1
102
RTVSPropertyOp8
 70
     1
102
RTVSPropertyOp9
 70
     1
102
RTVSPropertyOp10
 70
     1
102
RTVSPropertyOp11
 70
     1
102
RTVSPropertyOp12
 70
     1
102
RTVSPropertyOp13
 70
     1
102
RTVSPropertyOp14
 70
     1
102
RTVSPropertyOp15
 70
     1
102
RTVSPropertyOp16
 70
     1
102
RTVSPropertyOp17
 70
     1
102
RTVSPropertyOp18
 70
     1
102
RTVSPropertyOp19
 70
     1
102
RTVSPropertyOp20
 70
     1
102
RTVSPropertyOp21
 70
     1
102
RTVSPropertyOp22
 70
     1
102
RTVSPropertyOp23
 70
     1
102
RTVSPropertyOp24
 70
     1
102
RTVSPropertyOp25
 70
     1
102
RTVSPropertyOp26
 70
     1
102
RTVSPropertyOp27
 70
     1
102
RTVSPropertyOp28
 70
     1
102
RTVSPropertyOp29
 70
     1
102
RTVSPropertyOp30
 70
     1
102
RTVSPropertyOp31
 70
     1
102
RTVSPropertyOp32
 70
     1
  0
XRECORD
  5
77
102
{ACAD_REACTORS
330
76
102
}
330
76
100
AcDbXrecord
280
     1
102
RTVSPropertyOp0
 70
     1
102
RTVSPropertyOp1
 70
     1
102
RTVSPropertyOp2
 70
     1
102
RTVSPropertyOp3
 70
     1
102
RTVSPropertyOp4
 70
     1
102
RTVSPropertyOp5
 70
     1
102
RTVSPropertyOp6
 70
     1
102
RTVSPropertyOp7
 70
     1
102
RTVSPropertyOp8
 70
     1
102
RTVSPropertyOp9
 70
     1
102
RTVSPropertyOp10
 70
     1
102
RTVSPropertyOp11
 70
     1
102
RTVSPropertyOp12
 70
     1
102
RTVSPropertyOp13
 70
     1
102
RTVSPropertyOp14
 70
     1
102
RTVSPropertyOp15
 70
     1
102
RTVSPropertyOp16
 70
     1
102
RTVSPropertyOp17
 70
     1
102
RTVSPropertyOp18
 70
     1
102
RTVSPropertyOp19
 70
     1
102
RTVSPropertyOp20
 70
     1
102
RTVSPropertyOp21
 70
     1
102
RTVSPropertyOp22
 70
     1
102
RTVSPropertyOp23
 70
     1
102
RTVSPropertyOp24
 70
     1
102
RTVSPropertyOp25
 70
     1
102
RTVSPropertyOp26
 70
     1
102
RTVSPropertyOp27
 70
     1
102
RTVSPropertyOp28
 70
     1
102
RTVSPropertyOp29
 70
     1
102
RTVSPropertyOp30
 70
     1
102
RTVSPropertyOp31
 70
     1
102
RTVSPropertyOp32
 70
     1
  0
XRECORD
  5
79
102
{ACAD_REACTORS
330
78
102
}
330
78
100
AcDbXrecord
280
     1
102
RTVSPropertyOp0
 70
     1
102
RTVSPropertyOp1
 70
     1
102
RTVSPropertyOp2
 70
     1
102
RTVSPropertyOp3
 70
     1
102
RTVSPropertyOp4
 70
     1
102
RTVSPropertyOp5
 70
     1
102
RTVSPropertyOp6
 70
     1
102
RTVSPropertyOp7
 70
     1
102
RTVSPropertyOp8
 70
     1
102
RTVSPropertyOp9
 70
     1
102
RTVSPropertyOp10
 70
     1
102
RTVSPropertyOp11
 70
     1
102
RTVSPropertyOp12
 70
     1
102
RTVSPropertyOp13
 70
     1
102
RTVSPropertyOp14
 70
     1
102
RTVSPropertyOp15
 70
     1
102
RTVSPropertyOp16
 70
     1
102
RTVSPropertyOp17
 70
     1
102
RTVSPropertyOp18
 70
     1
102
RTVSPropertyOp19
 70
     1
102
RTVSPropertyOp20
 70
     1
102
RTVSPropertyOp21
 70
     1
102
RTVSPropertyOp22
 70
     1
102
RTVSPropertyOp23
 70
     1
102
RTVSPropertyOp24
 70
     1
102
RTVSPropertyOp25
 70
     1
102
RTVSPropertyOp26
 70
     1
102
RTVSPropertyOp27
 70
     1
102
RTVSPropertyOp28
 70
     1
102
RTVSPropertyOp29
 70
     1
102
RTVSPropertyOp30
 70
     1
102
RTVSPropertyOp31
 70
     1
102
RTVSPropertyOp32
 70
     1
  0
XRECORD
  5
7B
102
{ACAD_REACTORS
330
7A
102
}
330
7A
100
AcDbXrecord
280
     1
102
RTVSPropertyOp0
 70
     1
102
RTVSPropertyOp1
 70
     1
102
RTVSPropertyOp2
 70
     1
102
RTVSPropertyOp3
 70
     1
102
RTVSPropertyOp4
 70
     1
102
RTVSPropertyOp5
 70
     1
102
RTVSPropertyOp6
 70
     1
102
RTVSPropertyOp7
 70
     1
102
RTVSPropertyOp8
 70
     1
102
RTVSPropertyOp9
 70
     1
102
RTVSPropertyOp10
 70
     1
102
RTVSPropertyOp11
 70
     1
102
RTVSPropertyOp12
 70
     1
102
RTVSPropertyOp13
 70
     1
102
RTVSPropertyOp14
 70
     1
102
RTVSPropertyOp15
 70
     1
102
RTVSPropertyOp16
 70
     1
102
RTVSPropertyOp17
 70
     1
102
RTVSPropertyOp18
 70
     1
102
RTVSPropertyOp19
 70
     1
102
RTVSPropertyOp20
 70
     1
102
RTVSPropertyOp21
 70
     1
102
RTVSPropertyOp22
 70
     1
102
RTVSPropertyOp23
 70
     1
102
RTVSPropertyOp24
 70
     1
102
RTVSPropertyOp25
 70
     1
102
RTVSPropertyOp26
 70
     1
102
RTVSPropertyOp27
 70
     1
102
RTVSPropertyOp28
 70
     1
102
RTVSPropertyOp29
 70
     1
102
RTVSPropertyOp30
 70
     1
102
RTVSPropertyOp31
 70
     1
102
RTVSPropertyOp32
 70
     1
  0
XRECORD
  5
7D
102
{ACAD_REACTORS
330
7C
102
}
330
7C
100
AcDbXrecord
280
     1
102
RTVSPropertyOp0
 70
     1
102
RTVSPropertyOp1
 70
     1
102
RTVSPropertyOp2
 70
     1
102
RTVSPropertyOp3
 70
     1
102
RTVSPropertyOp4
 70
     1
102
RTVSPropertyOp5
 70
     1
102
RTVSPropertyOp6
 70
     1
102
RTVSPropertyOp7
 70
     1
102
RTVSPropertyOp8
 70
     1
102
RTVSPropertyOp9
 70
     1
102
RTVSPropertyOp10
 70
     1
102
RTVSPropertyOp11
 70
     1
102
RTVSPropertyOp12
 70
     1
102
RTVSPropertyOp13
 70
     1
102
RTVSPropertyOp14
 70
     1
102
RTVSPropertyOp15
 70
     1
102
RTVSPropertyOp16
 70
     1
102
RTVSPropertyOp17
 70
     1
102
RTVSPropertyOp18
 70
     1
102
RTVSPropertyOp19
 70
     1
102
RTVSPropertyOp20
 70
     1
102
RTVSPropertyOp21
 70
     1
102
RTVSPropertyOp22
 70
     1
102
RTVSPropertyOp23
 70
     1
102
RTVSPropertyOp24
 70
     1
102
RTVSPropertyOp25
 70
     1
102
RTVSPropertyOp26
 70
     1
102
RTVSPropertyOp27
 70
     1
102
RTVSPropertyOp28
 70
     1
102
RTVSPropertyOp29
 70
     1
102
RTVSPropertyOp30
 70
     1
102
RTVSPropertyOp31
 70
     1
102
RTVSPropertyOp32
 70
     1
  0
XRECORD
  5
91
102
{ACAD_REACTORS
330
90
102
}
330
90
100
AcDbXrecord
280
     1
102
RTVSPropertyOp0
 70
     1
102
RTVSPropertyOp1
 70
     1
102
RTVSPropertyOp2
 70
     1
102
RTVSPropertyOp3
 70
     1
102
RTVSPropertyOp4
 70
     1
102
RTVSPropertyOp5
 70
     1
102
RTVSPropertyOp6
 70
     1
102
RTVSPropertyOp7
 70
     1
102
RTVSPropertyOp8
 70
     1
102
RTVSPropertyOp9
 70
     1
102
RTVSPropertyOp10
 70
     1
102
RTVSPropertyOp11
 70
     1
102
RTVSPropertyOp12
 70
     1
102
RTVSPropertyOp13
 70
     1
102
RTVSPropertyOp14
 70
     1
102
RTVSPropertyOp15
 70
     1
102
RTVSPropertyOp16
 70
     1
102
RTVSPropertyOp17
 70
     1
102
RTVSPropertyOp18
 70
     1
102
RTVSPropertyOp19
 70
     1
102
RTVSPropertyOp20
 70
     1
102
RTVSPropertyOp21
 70
     1
102
RTVSPropertyOp22
 70
     1
102
RTVSPropertyOp23
 70
     1
102
RTVSPropertyOp24
 70
     1
102
RTVSPropertyOp25
 70
     1
102
RTVSPropertyOp26
 70
     1
102
RTVSPropertyOp27
 70
     1
102
RTVSPropertyOp28
 70
     1
102
RTVSPropertyOp29
 70
     1
102
RTVSPropertyOp30
 70
     1
102
RTVSPropertyOp31
 70
     1
102
RTVSPropertyOp32
 70
     1
  0
XRECORD
  5
87
102
{ACAD_REACTORS
330
86
102
}
330
86
100
AcDbXrecord
280
     1
102
RTVSPropertyOp0
 70
     1
102
RTVSPropertyOp1
 70
     1
102
RTVSPropertyOp2
 70
     1
102
RTVSPropertyOp3
 70
     1
102
RTVSPropertyOp4
 70
     1
102
RTVSPropertyOp5
 70
     1
102
RTVSPropertyOp6
 70
     1
102
RTVSPropertyOp7
 70
     1
102
RTVSPropertyOp8
 70
     1
102
RTVSPropertyOp9
 70
     1
102
RTVSPropertyOp10
 70
     1
102
RTVSPropertyOp11
 70
     1
102
RTVSPropertyOp12
 70
     1
102
RTVSPropertyOp13
 70
     1
102
RTVSPropertyOp14
 70
     1
102
RTVSPropertyOp15
 70
     1
102
RTVSPropertyOp16
 70
     1
102
RTVSPropertyOp17
 70
     1
102
RTVSPropertyOp18
 70
     1
102
RTVSPropertyOp19
 70
     1
102
RTVSPropertyOp20
 70
     1
102
RTVSPropertyOp21
 70
     1
102
RTVSPropertyOp22
 70
     1
102
RTVSPropertyOp23
 70
     1
102
RTVSPropertyOp24
 70
     1
102
RTVSPropertyOp25
 70
     1
102
RTVSPropertyOp26
 70
     1
102
RTVSPropertyOp27
 70
     1
102
RTVSPropertyOp28
 70
     1
102
RTVSPropertyOp29
 70
     1
102
RTVSPropertyOp30
 70
     1
102
RTVSPropertyOp31
 70
     1
102
RTVSPropertyOp32
 70
     1
  0
XRECORD
  5
8F
102
{ACAD_REACTORS
330
8E
102
}
330
8E
100
AcDbXrecord
280
     1
102
RTVSPropertyOp0
 70
     1
102
RTVSPropertyOp1
 70
     1
102
RTVSPropertyOp2
 70
     1
102
RTVSPropertyOp3
 70
     1
102
RTVSPropertyOp4
 70
     1
102
RTVSPropertyOp5
 70
     1
102
RTVSPropertyOp6
 70
     1
102
RTVSPropertyOp7
 70
     1
102
RTVSPropertyOp8
 70
     1
102
RTVSPropertyOp9
 70
     1
102
RTVSPropertyOp10
 70
     1
102
RTVSPropertyOp11
 70
     1
102
RTVSPropertyOp12
 70
     1
102
RTVSPropertyOp13
 70
     1
102
RTVSPropertyOp14
 70
     1
102
RTVSPropertyOp15
 70
     1
102
RTVSPropertyOp16
 70
     1
102
RTVSPropertyOp17
 70
     1
102
RTVSPropertyOp18
 70
     1
102
RTVSPropertyOp19
 70
     1
102
RTVSPropertyOp20
 70
     1
102
RTVSPropertyOp21
 70
     1
102
RTVSPropertyOp22
 70
     1
102
RTVSPropertyOp23
 70
     1
102
RTVSPropertyOp24
 70
     1
102
RTVSPropertyOp25
 70
     1
102
RTVSPropertyOp26
 70
     1
102
RTVSPropertyOp27
 70
     1
102
RTVSPropertyOp28
 70
     1
102
RTVSPropertyOp29
 70
     1
102
RTVSPropertyOp30
 70
     1
102
RTVSPropertyOp31
 70
     1
102
RTVSPropertyOp32
 70
     1
  0
ENDSEC
  0
EOF
