  0
SECTION
  2
HEADER
  9
$ACADVER
  1
AC1009
  9
$LIMMIN
 10
0.000000
 20
0.000000
  9
$LIMMAX
 10
4.386890
 20
4.386890
  0
ENDSEC
  0
SECTION
  2
TABLES
  0
TABLE
  2
LTYPE
 70
     4
  0
LTYPE
  2
CONTINUOUS
 70
     0
  3
Solid line
 72
    65
 73
     0
 40
0.000000
  0
LTYPE
  2
HIDDEN
 70
     0
  3
 _ _ _ _ _ _ _ _ _ _ _
 72
    65
 73
     2
 40
0.375000
 49
0.250000
 49
-0.125000
  0
LTYPE
  2
DASHED
 70
     0
  3
 ___ ___ ___ ___ ___ ___ ___ 
 72
    65
 73
     2
 40
0.750000
 49
0.500000
 49
-0.250000
  0
LTYPE
  2
CENTER
 70
     0
  3
___ _ ___ _ ___ _ ___
 72
    65
 73
     4
 40
2.000000
 49
1.250000
 49
-0.250000
 49
0.250000
 49
-0.250000
  0
LTYPE
  2
BORDER
 70
     0
  3
___ ___ . ___ ___ . ___ ___
 72
    65
 73
     6
 40
1.750000
 49
0.500000
 49
-0.250000
 49
0.500000
 49
-0.250000
 49
0.000000
 49
-0.250000
  0
LTYPE
  2
DOT
 70
     0
  3
.................
 72
    65
 73
     2
 40
0.250000
 49
0.000000
 49
-0.250000
  0
LTYPE
  2
DASHDOT
 70
     0
  3
__ . __ . __ . __
 72
    65
 73
     4
 40
1.000000
 49
0.500000
 49
-0.250000
 49
0.000000
 49
-0.250000
  0
LTYPE
  2
DIVIDE
 70
     0
  3
___ .. ___ .. ___ .. ___
 72
    65
 73
     6
 40
1.250000
 49
0.500000
 49
-0.250000
 49
0.000000
 49
-0.250000
 49
0.000000
 49
-0.250000
  0
ENDTAB
  0
TABLE
  2
LAYER
 70
     8
  0
LAYER
  2
BLACK
 70
     0
 62
     1
  6
CONTINUOUS
  0
LAYER
  2
WHITE
 70
     0
 62
     7
  6
CONTINUOUS
  0
LAYER
  2
RED
 70
     0
 62
     1
  6
CONTINUOUS
  0
LAYER
  2
YELLOW
 70
     0
 62
     2
  6
CONTINUOUS
  0
LAYER
  2
GREEN
 70
     0
 62
     3
  6
CONTINUOUS
  0
LAYER
  2
CYAN
 70
     0
 62
     4
  6
CONTINUOUS
  0
LAYER
  2
BLUE
 70
     0
 62
     5
  6
CONTINUOUS
  0
LAYER
  2
MAGENTA
 70
     0
 62
     6
  6
CONTINUOUS
  0
ENDTAB
  0
ENDSEC
  0
SECTION
  2
BLOCKS
  0
ENDSEC
  0
SECTION
  2
ENTITIES
  0
CIRCLE
  8
WHITE
 10
2.193445
 20
2.193445
 30
0.000000
 40
2.193445
  6
CONTINUOUS
  0
ARC
  8
WHITE
 10
2.243988
 20
1.580552
 30
0.000000
 40
0.946088
 50
-178.055211
 51
-169.272267
  6
CONTINUOUS
  0
LINE
  8
WHITE
 10
1.298445
 20
1.548445
 30
0.000000
 11
1.268445
 21
1.784445
 31
0.000000
  6
CONTINUOUS
  0
LINE
  8
WHITE
 10
1.268445
 20
1.784445
 30
0.000000
 11
1.273445
 21
1.805445
 31
0.000000
  6
CONTINUOUS
  0
LINE
  8
WHITE
 10
1.273445
 20
1.805445
 30
0.000000
 11
1.295445
 21
1.788445
 31
0.000000
  6
CONTINUOUS
  0
LINE
  8
WHITE
 10
1.295445
 20
1.788445
 30
0.000000
 11
1.302445
 21
1.739445
 31
0.000000
  6
CONTINUOUS
  0
LINE
  8
WHITE
 10
1.302445
 20
1.739445
 30
0.000000
 11
1.342445
 21
1.736445
 31
0.000000
  6
CONTINUOUS
  0
LINE
  8
WHITE
 10
1.342445
 20
1.736445
 30
0.000000
 11
1.353188
 21
1.681069
 31
0.000000
  6
CONTINUOUS
  0
ARC
  8
WHITE
 10
1.415649
 20
1.527959
 30
0.000000
 40
0.165360
 50
56.989211
 51
112.192774
  6
CONTINUOUS
  0
ARC
  8
WHITE
 10
1.564445
 20
1.660445
 30
0.000000
 40
0.059033
 50
51.188616
 51
173.990900
  6
CONTINUOUS
  0
LINE
  8
WHITE
 10
1.601445
 20
1.706445
 30
0.000000
 11
1.656445
 21
1.709445
 31
0.000000
  6
CONTINUOUS
  0
LINE
  8
WHITE
 10
1.656445
 20
1.709445
 30
0.000000
 11
1.647445
 21
1.745445
 31
0.000000
  6
CONTINUOUS
  0
LINE
  8
WHITE
 10
1.647445
 20
1.745445
 30
0.000000
 11
1.515445
 21
1.775445
 31
0.000000
  6
CONTINUOUS
  0
LINE
  8
WHITE
 10
1.515445
 20
1.775445
 30
0.000000
 11
1.584445
 21
1.798445
 31
0.000000
  6
CONTINUOUS
  0
ARC
  8
WHITE
 10
1.598066
 20
2.550126
 30
0.000000
 40
0.751804
 50
-117.197689
 51
-91.038150
  6
CONTINUOUS
  0
LINE
  8
WHITE
 10
1.254445
 20
1.881445
 30
0.000000
 11
1.228445
 21
2.032445
 31
0.000000
  6
CONTINUOUS
  0
LINE
  8
WHITE
 10
1.228445
 20
2.032445
 30
0.000000
 11
1.358445
 21
1.916445
 31
0.000000
  6
CONTINUOUS
  0
LINE
  8
WHITE
 10
1.358445
 20
1.916445
 30
0.000000
 11
1.442445
 21
1.916445
 31
0.000000
  6
CONTINUOUS
  0
LINE
  8
WHITE
 10
1.442445
 20
1.916445
 30
0.000000
 11
1.551445
 21
1.884445
 31
0.000000
  6
CONTINUOUS
  0
LINE
  8
WHITE
 10
1.551445
 20
1.884445
 30
0.000000
 11
1.552434
 21
1.912245
 31
0.000000
  6
CONTINUOUS
  0
LINE
  8
WHITE
 10
1.552434
 20
1.912245
 30
0.000000
 11
1.647445
 21
1.890445
 31
0.000000
  6
CONTINUOUS
  0
LINE
  8
WHITE
 10
1.647445
 20
1.890445
 30
0.000000
 11
1.640445
 21
1.916445
 31
0.000000
  6
CONTINUOUS
  0
LINE
  8
WHITE
 10
1.640445
 20
1.916445
 30
0.000000
 11
1.668445
 21
1.916445
 31
0.000000
  6
CONTINUOUS
  0
LINE
  8
WHITE
 10
1.668445
 20
1.916445
 30
0.000000
 11
1.752445
 21
1.963445
 31
0.000000
  6
CONTINUOUS
  0
ARC
  8
WHITE
 10
1.615823
 20
2.480126
 30
0.000000
 40
0.534439
 50
-137.555309
 51
-75.188718
  6
CONTINUOUS
  0
LINE
  8
WHITE
 10
1.221445
 20
2.119445
 30
0.000000
 11
1.212445
 21
2.194445
 31
0.000000
  6
CONTINUOUS
  0
LINE
  8
WHITE
 10
1.212445
 20
2.194445
 30
0.000000
 11
1.267445
 21
2.132445
 31
0.000000
  6
CONTINUOUS
  0
LINE
  8
WHITE
 10
1.267445
 20
2.132445
 30
0.000000
 11
1.311445
 21
2.132445
 31
0.000000
  6
CONTINUOUS
  0
LINE
  8
WHITE
 10
1.311445
 20
2.132445
 30
0.000000
 11
1.344445
 21
2.093445
 31
0.000000
  6
CONTINUOUS
  0
LINE
  8
WHITE
 10
1.344445
 20
2.093445
 30
0.000000
 11
1.398445
 21
2.083445
 31
0.000000
  6
CONTINUOUS
  0
LINE
  8
WHITE
 10
1.398445
 20
2.083445
 30
0.000000
 11
1.465445
 21
2.029445
 31
0.000000
  6
CONTINUOUS
  0
ARC
  8
WHITE
 10
1.457217
 20
2.195485
 30
0.000000
 40
0.166244
 50
-87.163101
 51
-49.834030
  6
CONTINUOUS
  0
LINE
  8
WHITE
 10
1.564445
 20
2.068445
 30
0.000000
 11
1.596314
 21
2.053115
 31
0.000000
  6
CONTINUOUS
  0
ARC
  8
WHITE
 10
1.528445
 20
2.397445
 30
0.000000
 40
0.350955
 50
-78.849700
 51
-47.078400
  6
CONTINUOUS
  0
ARC
  8
WHITE
 10
1.703346
 20
3.185499
 30
0.000000
 40
1.047017
 50
-118.394639
 51
-86.490138
  6
CONTINUOUS
  0
LINE
  8
WHITE
 10
1.205445
 20
2.264445
 30
0.000000
 11
1.205274
 21
2.383943
 31
0.000000
  6
CONTINUOUS
  0
ARC
  8
WHITE
 10
1.187445
 20
2.331445
 30
0.000000
 40
0.055443
 50
7.253195
 51
71.241680
  6
CONTINUOUS
  0
LINE
  8
WHITE
 10
1.242445
 20
2.338445
 30
0.000000
 11
1.314445
 21
2.265445
 31
0.000000
  6
CONTINUOUS
  0
LINE
  8
WHITE
 10
1.314445
 20
2.265445
 30
0.000000
 11
1.310445
 21
2.287445
 31
0.000000
  6
CONTINUOUS
  0
LINE
  8
WHITE
 10
1.310445
 20
2.287445
 30
0.000000
 11
1.356445
 21
2.260445
 31
0.000000
  6
CONTINUOUS
  0
LINE
  8
WHITE
 10
1.356445
 20
2.260445
 30
0.000000
 11
1.366445
 21
2.287445
 31
0.000000
  6
CONTINUOUS
  0
LINE
  8
WHITE
 10
1.366445
 20
2.287445
 30
0.000000
 11
1.455445
 21
2.239445
 31
0.000000
  6
CONTINUOUS
  0
LINE
  8
WHITE
 10
1.455445
 20
2.239445
 30
0.000000
 11
1.498445
 21
2.235445
 31
0.000000
  6
CONTINUOUS
  0
LINE
  8
WHITE
 10
1.498445
 20
2.235445
 30
0.000000
 11
1.498445
 21
2.256445
 31
0.000000
  6
CONTINUOUS
  0
LINE
  8
WHITE
 10
1.498445
 20
2.256445
 30
0.000000
 11
1.660445
 21
2.259445
 31
0.000000
  6
CONTINUOUS
  0
LINE
  8
WHITE
 10
1.660445
 20
2.259445
 30
0.000000
 11
1.648445
 21
2.275445
 31
0.000000
  6
CONTINUOUS
  0
LINE
  8
WHITE
 10
1.648445
 20
2.275445
 30
0.000000
 11
1.758445
 21
2.316445
 31
0.000000
  6
CONTINUOUS
  0
ARC
  8
WHITE
 10
1.736613
 20
3.352952
 30
0.000000
 40
1.036737
 50
-121.336453
 51
-88.793357
  6
CONTINUOUS
  0
ARC
  8
WHITE
 10
1.745639
 20
2.647990
 30
0.000000
 40
0.577159
 50
-172.478905
 51
-161.771033
  6
CONTINUOUS
  0
LINE
  8
WHITE
 10
1.173445
 20
2.572445
 30
0.000000
 11
1.321445
 21
2.449445
 31
0.000000
  6
CONTINUOUS
  0
LINE
  8
WHITE
 10
1.321445
 20
2.449445
 30
0.000000
 11
1.453445
 21
2.416445
 31
0.000000
  6
CONTINUOUS
  0
LINE
  8
WHITE
 10
1.453445
 20
2.416445
 30
0.000000
 11
1.438405
 21
2.443880
 31
0.000000
  6
CONTINUOUS
  0
ARC
  8
WHITE
 10
1.474445
 20
2.055445
 30
0.000000
 40
0.390103
 50
69.753380
 51
95.300820
  6
CONTINUOUS
  0
LINE
  8
WHITE
 10
1.609445
 20
2.421445
 30
0.000000
 11
1.623445
 21
2.455445
 31
0.000000
  6
CONTINUOUS
  0
LINE
  8
WHITE
 10
1.623445
 20
2.455445
 30
0.000000
 11
1.652445
 21
2.452445
 31
0.000000
  6
CONTINUOUS
  0
LINE
  8
WHITE
 10
1.652445
 20
2.452445
 30
0.000000
 11
1.686445
 21
2.502445
 31
0.000000
  6
CONTINUOUS
  0
LINE
  8
WHITE
 10
1.686445
 20
2.502445
 30
0.000000
 11
1.738445
 21
2.506445
 31
0.000000
  6
CONTINUOUS
  0
LINE
  8
WHITE
 10
1.738445
 20
2.506445
 30
0.000000
 11
1.715321
 21
2.543771
 31
0.000000
  6
CONTINUOUS
  0
ARC
  8
WHITE
 10
1.523445
 20
3.042445
 30
0.000000
 40
0.534315
 50
-132.648779
 51
-68.954700
  6
CONTINUOUS
  0
LINE
  8
WHITE
 10
1.161445
 20
2.649445
 30
0.000000
 11
1.161445
 21
2.671445
 31
0.000000
  6
CONTINUOUS
  0
LINE
  8
WHITE
 10
1.161445
 20
2.671445
 30
0.000000
 11
1.325445
 21
2.622445
 31
0.000000
  6
CONTINUOUS
  0
LINE
  8
WHITE
 10
1.325445
 20
2.622445
 30
0.000000
 11
1.459445
 21
2.583445
 31
0.000000
  6
CONTINUOUS
  0
LINE
  8
WHITE
 10
1.459445
 20
2.583445
 30
0.000000
 11
1.392445
 21
2.620445
 31
0.000000
  6
CONTINUOUS
  0
LINE
  8
WHITE
 10
1.392445
 20
2.620445
 30
0.000000
 11
1.498445
 21
2.615445
 31
0.000000
  6
CONTINUOUS
  0
LINE
  8
WHITE
 10
1.498445
 20
2.615445
 30
0.000000
 11
1.491445
 21
2.629445
 31
0.000000
  6
CONTINUOUS
  0
LINE
  8
WHITE
 10
1.491445
 20
2.629445
 30
0.000000
 11
1.586445
 21
2.629445
 31
0.000000
  6
CONTINUOUS
  0
LINE
  8
WHITE
 10
1.586445
 20
2.629445
 30
0.000000
 11
1.600445
 21
2.659445
 31
0.000000
  6
CONTINUOUS
  0
LINE
  8
WHITE
 10
1.600445
 20
2.659445
 30
0.000000
 11
1.647445
 21
2.659445
 31
0.000000
  6
CONTINUOUS
  0
LINE
  8
WHITE
 10
1.647445
 20
2.659445
 30
0.000000
 11
1.653445
 21
2.677445
 31
0.000000
  6
CONTINUOUS
  0
LINE
  8
WHITE
 10
1.653445
 20
2.677445
 30
0.000000
 11
1.599445
 21
2.700445
 31
0.000000
  6
CONTINUOUS
  0
LINE
  8
WHITE
 10
1.599445
 20
2.700445
 30
0.000000
 11
1.608362
 21
2.730602
 31
0.000000
  6
CONTINUOUS
  0
ARC
  8
WHITE
 10
1.394445
 20
3.141445
 30
0.000000
 40
0.463198
 50
-123.106837
 51
-62.495000
  6
CONTINUOUS
  0
LINE
  8
WHITE
 10
1.141445
 20
2.753445
 30
0.000000
 11
1.141445
 21
2.844445
 31
0.000000
  6
CONTINUOUS
  0
ARC
  8
WHITE
 10
1.331774
 20
3.125900
 30
0.000000
 40
0.339768
 50
-124.067811
 51
-98.007211
  6
CONTINUOUS
  0
LINE
  8
WHITE
 10
1.284445
 20
2.789445
 30
0.000000
 11
1.374445
 21
2.703445
 31
0.000000
  6
CONTINUOUS
  0
LINE
  8
WHITE
 10
1.374445
 20
2.703445
 30
0.000000
 11
1.363445
 21
2.761445
 31
0.000000
  6
CONTINUOUS
  0
LINE
  8
WHITE
 10
1.363445
 20
2.761445
 30
0.000000
 11
1.499445
 21
2.735445
 31
0.000000
  6
CONTINUOUS
  0
ARC
  8
WHITE
 10
1.637387
 20
2.676444
 30
0.000000
 40
0.150030
 50
91.123426
 51
156.842351
  6
CONTINUOUS
  0
LINE
  8
WHITE
 10
1.634445
 20
2.826445
 30
0.000000
 11
1.623445
 21
2.853445
 31
0.000000
  6
CONTINUOUS
  0
ARC
  8
WHITE
 10
1.498304
 20
3.614520
 30
0.000000
 40
0.771295
 50
-118.148011
 51
-80.662612
  6
CONTINUOUS
  0
LINE
  8
WHITE
 10
1.134445
 20
2.934445
 30
0.000000
 11
1.122445
 21
3.052445
 31
0.000000
  6
CONTINUOUS
  0
LINE
  8
WHITE
 10
1.122445
 20
3.052445
 30
0.000000
 11
1.148236
 21
3.052082
 31
0.000000
  6
CONTINUOUS
  0
ARC
  8
WHITE
 10
1.118445
 20
3.000445
 30
0.000000
 40
0.059615
 50
-22.693795
 51
60.017810
  6
CONTINUOUS
  0
LINE
  8
WHITE
 10
1.173445
 20
2.977445
 30
0.000000
 11
1.206445
 21
2.968445
 31
0.000000
  6
CONTINUOUS
  0
LINE
  8
WHITE
 10
1.206445
 20
2.968445
 30
0.000000
 11
1.221445
 21
3.019445
 31
0.000000
  6
CONTINUOUS
  0
LINE
  8
WHITE
 10
1.221445
 20
3.019445
 30
0.000000
 11
1.285445
 21
2.923445
 31
0.000000
  6
CONTINUOUS
  0
LINE
  8
WHITE
 10
1.285445
 20
2.923445
 30
0.000000
 11
1.314445
 21
2.945445
 31
0.000000
  6
CONTINUOUS
  0
LINE
  8
WHITE
 10
1.314445
 20
2.945445
 30
0.000000
 11
1.357445
 21
2.932445
 31
0.000000
  6
CONTINUOUS
  0
LINE
  8
WHITE
 10
1.357445
 20
2.932445
 30
0.000000
 11
1.440445
 21
2.998445
 31
0.000000
  6
CONTINUOUS
  0
LINE
  8
WHITE
 10
1.440445
 20
2.998445
 30
0.000000
 11
1.460445
 21
2.980445
 31
0.000000
  6
CONTINUOUS
  0
LINE
  8
WHITE
 10
1.460445
 20
2.980445
 30
0.000000
 11
1.481445
 21
3.005445
 31
0.000000
  6
CONTINUOUS
  0
LINE
  8
WHITE
 10
1.481445
 20
3.005445
 30
0.000000
 11
1.484445
 21
3.034445
 31
0.000000
  6
CONTINUOUS
  0
LINE
  8
WHITE
 10
1.484445
 20
3.034445
 30
0.000000
 11
1.527445
 21
3.022445
 31
0.000000
  6
CONTINUOUS
  0
LINE
  8
WHITE
 10
1.527445
 20
3.022445
 30
0.000000
 11
1.541445
 21
3.029445
 31
0.000000
  6
CONTINUOUS
  0
LINE
  8
WHITE
 10
1.541445
 20
3.029445
 30
0.000000
 11
1.517445
 21
3.056445
 31
0.000000
  6
CONTINUOUS
  0
LINE
  8
WHITE
 10
1.517445
 20
3.056445
 30
0.000000
 11
1.554445
 21
3.056445
 31
0.000000
  6
CONTINUOUS
  0
LINE
  8
WHITE
 10
1.554445
 20
3.056445
 30
0.000000
 11
1.560414
 21
3.080740
 31
0.000000
  6
CONTINUOUS
  0
ARC
  8
WHITE
 10
1.474445
 20
3.923445
 30
0.000000
 40
0.847079
 50
-115.899555
 51
-84.175100
  6
CONTINUOUS
  0
LINE
  8
WHITE
 10
1.104445
 20
3.161445
 30
0.000000
 11
1.091445
 21
3.307445
 31
0.000000
  6
CONTINUOUS
  0
ARC
  8
WHITE
 10
0.696792
 20
2.951748
 30
0.000000
 40
0.531292
 50
26.703175
 51
42.028019
  6
CONTINUOUS
  0
ARC
  8
WHITE
 10
1.150445
 20
3.231445
 30
0.000000
 40
0.046010
 50
-62.878700
 51
-1.245364
  6
CONTINUOUS
  0
LINE
  8
WHITE
 10
1.196445
 20
3.230445
 30
0.000000
 11
1.241445
 21
3.173445
 31
0.000000
  6
CONTINUOUS
  0
LINE
  8
WHITE
 10
1.241445
 20
3.173445
 30
0.000000
 11
1.241445
 21
3.233445
 31
0.000000
  6
CONTINUOUS
  0
LINE
  8
WHITE
 10
1.241445
 20
3.233445
 30
0.000000
 11
1.253445
 21
3.235445
 31
0.000000
  6
CONTINUOUS
  0
LINE
  8
WHITE
 10
1.253445
 20
3.235445
 30
0.000000
 11
1.393445
 21
3.197445
 31
0.000000
  6
CONTINUOUS
  0
LINE
  8
WHITE
 10
1.393445
 20
3.197445
 30
0.000000
 11
1.385445
 21
3.228445
 31
0.000000
  6
CONTINUOUS
  0
LINE
  8
WHITE
 10
1.385445
 20
3.228445
 30
0.000000
 11
1.459445
 21
3.278945
 31
0.000000
  6
CONTINUOUS
  0
ARC
  8
WHITE
 10
1.459445
 20
4.130445
 30
0.000000
 40
0.851500
 50
-116.354406
 51
-90.000000
  6
CONTINUOUS
  0
LINE
  8
WHITE
 10
1.081445
 20
3.367445
 30
0.000000
 11
1.081445
 21
3.391445
 31
0.000000
  6
CONTINUOUS
  0
LINE
  8
WHITE
 10
1.081445
 20
3.391445
 30
0.000000
 11
1.139445
 21
3.423445
 31
0.000000
  6
CONTINUOUS
  0
LINE
  8
WHITE
 10
1.139445
 20
3.423445
 30
0.000000
 11
1.142445
 21
3.399445
 31
0.000000
  6
CONTINUOUS
  0
LINE
  8
WHITE
 10
1.142445
 20
3.399445
 30
0.000000
 11
1.166445
 21
3.366445
 31
0.000000
  6
CONTINUOUS
  0
LINE
  8
WHITE
 10
1.166445
 20
3.366445
 30
0.000000
 11
1.217445
 21
3.418445
 31
0.000000
  6
CONTINUOUS
  0
LINE
  8
WHITE
 10
1.217445
 20
3.418445
 30
0.000000
 11
1.253445
 21
3.398445
 31
0.000000
  6
CONTINUOUS
  0
LINE
  8
WHITE
 10
1.253445
 20
3.398445
 30
0.000000
 11
1.249445
 21
3.426445
 31
0.000000
  6
CONTINUOUS
  0
LINE
  8
WHITE
 10
1.249445
 20
3.426445
 30
0.000000
 11
1.309161
 21
3.430138
 31
0.000000
  6
CONTINUOUS
  0
ARC
  8
WHITE
 10
1.154445
 20
3.262445
 30
0.000000
 40
0.228162
 50
47.305000
 51
95.785555
  6
CONTINUOUS
  0
LINE
  8
WHITE
 10
1.131445
 20
3.489445
 30
0.000000
 11
1.051445
 21
3.547445
 31
0.000000
  6
CONTINUOUS
  0
LINE
  8
WHITE
 10
1.051445
 20
3.547445
 30
0.000000
 11
1.038445
 21
3.612445
 31
0.000000
  6
CONTINUOUS
  0
ARC
  8
WHITE
 10
0.735934
 20
3.289551
 30
0.000000
 40
0.442462
 50
33.606012
 51
46.866705
  6
CONTINUOUS
  0
LINE
  8
WHITE
 10
1.104445
 20
3.534445
 30
0.000000
 11
1.164445
 21
3.560445
 31
0.000000
  6
CONTINUOUS
  0
LINE
  8
WHITE
 10
1.164445
 20
3.560445
 30
0.000000
 11
1.175445
 21
3.637445
 31
0.000000
  6
CONTINUOUS
  0
LINE
  8
WHITE
 10
1.175445
 20
3.637445
 30
0.000000
 11
1.034445
 21
3.685445
 31
0.000000
  6
CONTINUOUS
  0
LINE
  8
WHITE
 10
1.034445
 20
3.685445
 30
0.000000
 11
1.025445
 21
3.711445
 31
0.000000
  6
CONTINUOUS
  0
LINE
  8
WHITE
 10
1.025445
 20
3.711445
 30
0.000000
 11
1.026052
 21
3.723185
 31
0.000000
  6
CONTINUOUS
  0
ARC
  8
WHITE
 10
1.085445
 20
3.762445
 30
0.000000
 40
0.071196
 50
-146.534600
 51
-100.520784
  6
CONTINUOUS
  0
LINE
  8
WHITE
 10
1.072445
 20
3.692445
 30
0.000000
 11
1.107445
 21
3.749445
 31
0.000000
  6
CONTINUOUS
  0
LINE
  8
WHITE
 10
1.107445
 20
3.749445
 30
0.000000
 11
1.025445
 21
3.789445
 31
0.000000
  6
CONTINUOUS
  0
ARC
  8
WHITE
 10
1.026945
 20
3.816445
 30
0.000000
 40
0.027042
 50
86.820142
 51
266.820142
  6
CONTINUOUS
  0
ARC
  8
WHITE
 10
2.156692
 20
2.219496
 30
0.000000
 40
1.977411
 50
86.150570
 51
124.789839
  6
CONTINUOUS
  0
LINE
  8
WHITE
 10
2.289445
 20
4.192445
 30
0.000000
 11
2.376420
 21
4.189186
 31
0.000000
  6
CONTINUOUS
  0
ARC
  8
WHITE
 10
2.175445
 20
2.128445
 30
0.000000
 40
2.070518
 50
52.515768
 51
84.429810
  6
CONTINUOUS
  0
LINE
  8
WHITE
 10
3.435445
 20
3.771445
 30
0.000000
 11
3.438445
 21
3.415445
 31
0.000000
  6
CONTINUOUS
  0
LINE
  8
WHITE
 10
3.438445
 20
3.415445
 30
0.000000
 11
3.325373
 21
3.359703
 31
0.000000
  6
CONTINUOUS
  0
ARC
  8
WHITE
 10
3.060445
 20
4.309445
 30
0.000000
 40
0.986000
 50
-90.000000
 51
-74.413700
  6
CONTINUOUS
  0
LINE
  8
WHITE
 10
3.060445
 20
3.323445
 30
0.000000
 11
2.823445
 21
3.266445
 31
0.000000
  6
CONTINUOUS
  0
LINE
  8
WHITE
 10
2.823445
 20
3.266445
 30
0.000000
 11
2.837204
 21
3.290781
 31
0.000000
  6
CONTINUOUS
  0
ARC
  8
WHITE
 10
2.789445
 20
3.357445
 30
0.000000
 40
0.082006
 50
-54.381300
 51
-0.698700
  6
CONTINUOUS
  0
ARC
  8
WHITE
 10
2.866597
 20
3.393465
 30
0.000000
 40
0.037336
 50
-82.539281
 51
-9.278934
  6
CONTINUOUS
  0
ARC
  8
WHITE
 10
2.909734
 20
3.413626
 30
0.000000
 40
0.026926
 50
-103.507759
 51
-7.241597
  6
CONTINUOUS
  0
ARC
  8
WHITE
 10
2.936445
 20
3.431445
 30
0.000000
 40
0.021213
 50
-90.000000
 51
-8.130102
  6
CONTINUOUS
  0
LINE
  8
WHITE
 10
2.957445
 20
3.428445
 30
0.000000
 11
2.996445
 21
3.496445
 31
0.000000
  6
CONTINUOUS
  0
ARC
  8
WHITE
 10
2.860793
 20
3.601895
 30
0.000000
 40
0.171817
 50
-37.859889
 51
2.518645
  6
CONTINUOUS
  0
ARC
  8
WHITE
 10
3.224806
 20
3.661954
 30
0.000000
 40
0.199400
 50
166.760964
 51
195.268165
  6
CONTINUOUS
  0
ARC
  8
WHITE
 10
2.921445
 20
3.733445
 30
0.000000
 40
0.112271
 50
-13.298500
 51
70.758130
  6
CONTINUOUS
  0
ARC
  8
WHITE
 10
2.936246
 20
3.787530
 30
0.000000
 40
0.056461
 50
66.847954
 51
124.313226
  6
CONTINUOUS
  0
ARC
  8
WHITE
 10
2.897380
 20
3.763451
 30
0.000000
 40
0.071063
 50
84.316287
 51
140.693396
  6
CONTINUOUS
  0
ARC
  8
WHITE
 10
2.874454
 20
3.794465
 30
0.000000
 40
0.034985
 50
156.405347
 51
238.677374
  6
CONTINUOUS
  0
ARC
  8
WHITE
 10
2.872445
 20
3.752445
 30
0.000000
 40
0.020223
 50
-98.530766
 51
143.131199
  6
CONTINUOUS
  0
LINE
  8
WHITE
 10
2.869445
 20
3.732445
 30
0.000000
 11
2.780355
 21
3.695574
 31
0.000000
  6
CONTINUOUS
  0
ARC
  8
WHITE
 10
3.072445
 20
3.277445
 30
0.000000
 40
0.510048
 50
124.936800
 51
146.434600
  6
CONTINUOUS
  0
ARC
  8
WHITE
 10
0.916722
 20
4.357233
 30
0.000000
 40
1.905746
 50
-35.565465
 51
-24.747661
  6
CONTINUOUS
  0
ARC
  8
WHITE
 10
2.477445
 20
3.241445
 30
0.000000
 40
0.012806
 50
145.007799
 51
321.340201
  6
CONTINUOUS
  0
ARC
  8
WHITE
 10
2.495613
 20
3.266282
 30
0.000000
 40
0.033838
 50
-103.968089
 51
-90.283815
  6
CONTINUOUS
  0
LINE
  8
WHITE
 10
2.495445
 20
3.232445
 30
0.000000
 11
2.452445
 21
3.195445
 31
0.000000
  6
CONTINUOUS
  0
ARC
  8
WHITE
 10
2.486459
 20
3.195668
 30
0.000000
 40
0.034015
 50
-179.624276
 51
-56.070745
  6
CONTINUOUS
  0
ARC
  8
WHITE
 10
2.522980
 20
3.175540
 30
0.000000
 40
0.019313
 50
-155.220736
 51
-31.512583
  6
CONTINUOUS
  0
ARC
  8
WHITE
 10
2.552052
 20
3.181756
 30
0.000000
 40
0.020616
 50
-127.700553
 51
-26.850735
  6
CONTINUOUS
  0
LINE
  8
WHITE
 10
2.570445
 20
3.172445
 30
0.000000
 11
2.633359
 21
3.268388
 31
0.000000
  6
CONTINUOUS
  0
ARC
  8
WHITE
 10
2.686445
 20
3.302444
 30
0.000000
 40
0.063071
 50
-147.319300
 51
-92.726311
  6
CONTINUOUS
  0
LINE
  8
WHITE
 10
2.683445
 20
3.239444
 30
0.000000
 11
2.709219
 21
3.244497
 31
0.000000
  6
CONTINUOUS
  0
ARC
  8
WHITE
 10
2.622484
 20
3.265852
 30
0.000000
 40
0.089325
 50
-69.147371
 51
-13.832044
  6
CONTINUOUS
  0
ARC
  8
WHITE
 10
2.690213
 20
2.975405
 30
0.000000
 40
0.210069
 50
99.848883
 51
136.322919
  6
CONTINUOUS
  0
ARC
  8
WHITE
 10
2.566435
 20
3.114444
 30
0.000000
 40
0.028792
 50
167.905099
 51
290.323101
  6
CONTINUOUS
  0
ARC
  8
WHITE
 10
2.744067
 20
2.634440
 30
0.000000
 40
0.483025
 50
90.549443
 51
110.306769
  6
CONTINUOUS
  0
LINE
  8
WHITE
 10
2.739435
 20
3.117443
 30
0.000000
 11
2.731445
 21
3.071444
 31
0.000000
  6
CONTINUOUS
  0
LINE
  8
WHITE
 10
2.731445
 20
3.071444
 30
0.000000
 11
2.773210
 21
3.062537
 31
0.000000
  6
CONTINUOUS
  0
ARC
  8
WHITE
 10
4.118435
 20
2.505445
 30
0.000000
 40
1.456016
 50
152.203000
 51
157.504300
  6
CONTINUOUS
  0
ARC
  8
WHITE
 10
2.906211
 20
2.879711
 30
0.000000
 40
0.314013
 50
77.638486
 51
103.964116
  6
CONTINUOUS
  0
LINE
  8
WHITE
 10
2.973435
 20
3.186444
 30
0.000000
 11
3.214435
 21
3.236444
 31
0.000000
  6
CONTINUOUS
  0
LINE
  8
WHITE
 10
3.214435
 20
3.236444
 30
0.000000
 11
3.234435
 21
3.234444
 31
0.000000
  6
CONTINUOUS
  0
LINE
  8
WHITE
 10
3.234435
 20
3.234444
 30
0.000000
 11
3.191435
 21
3.178444
 31
0.000000
  6
CONTINUOUS
  0
LINE
  8
WHITE
 10
3.191435
 20
3.178444
 30
0.000000
 11
3.216435
 21
3.141444
 31
0.000000
  6
CONTINUOUS
  0
LINE
  8
WHITE
 10
3.216435
 20
3.141444
 30
0.000000
 11
3.333251
 21
3.241690
 31
0.000000
  6
CONTINUOUS
  0
ARC
  8
WHITE
 10
3.427435
 20
3.115444
 30
0.000000
 40
0.157508
 50
79.760220
 51
126.724100
  6
CONTINUOUS
  0
ARC
  8
WHITE
 10
-2.640614
 20
2.563840
 30
0.000000
 40
6.136864
 50
-0.928037
 51
6.611741
  6
CONTINUOUS
  0
LINE
  8
WHITE
 10
3.495445
 20
2.464444
 30
0.000000
 11
3.501445
 21
1.868444
 31
0.000000
  6
CONTINUOUS
  0
ARC
  8
WHITE
 10
5.649950
 20
1.177902
 30
0.000000
 40
2.256750
 50
162.182289
 51
168.913070
  6
CONTINUOUS
  0
ARC
  8
WHITE
 10
3.223435
 20
2.370445
 30
0.000000
 40
0.787610
 50
-104.936100
 51
-74.394000
  6
CONTINUOUS
  0
LINE
  8
WHITE
 10
3.020435
 20
1.609445
 30
0.000000
 11
2.906445
 21
1.616444
 31
0.000000
  6
CONTINUOUS
  0
LINE
  8
WHITE
 10
2.906445
 20
1.616444
 30
0.000000
 11
2.821435
 21
1.599444
 31
0.000000
  6
CONTINUOUS
  0
ARC
  8
WHITE
 10
2.927149
 20
1.858157
 30
0.000000
 40
0.279478
 50
-112.225691
 51
-81.106441
  6
CONTINUOUS
  0
ARC
  8
WHITE
 10
2.739281
 20
0.584099
 30
0.000000
 40
1.024344
 50
68.695808
 51
76.962784
  6
CONTINUOUS
  0
LINE
  8
WHITE
 10
3.111445
 20
1.538444
 30
0.000000
 11
3.033445
 21
1.513445
 31
0.000000
  6
CONTINUOUS
  0
LINE
  8
WHITE
 10
3.033445
 20
1.513445
 30
0.000000
 11
2.985445
 21
1.526445
 31
0.000000
  6
CONTINUOUS
  0
LINE
  8
WHITE
 10
2.985445
 20
1.526445
 30
0.000000
 11
2.962445
 21
1.504445
 31
0.000000
  6
CONTINUOUS
  0
LINE
  8
WHITE
 10
2.962445
 20
1.504445
 30
0.000000
 11
2.989445
 21
1.480445
 31
0.000000
  6
CONTINUOUS
  0
LINE
  8
WHITE
 10
2.989445
 20
1.480445
 30
0.000000
 11
2.953445
 21
1.445445
 31
0.000000
  6
CONTINUOUS
  0
LINE
  8
WHITE
 10
2.953445
 20
1.445445
 30
0.000000
 11
2.974445
 21
1.411445
 31
0.000000
  6
CONTINUOUS
  0
LINE
  8
WHITE
 10
2.974445
 20
1.411445
 30
0.000000
 11
3.182294
 21
1.509891
 31
0.000000
  6
CONTINUOUS
  0
ARC
  8
WHITE
 10
3.259036
 20
1.280190
 30
0.000000
 40
0.242182
 50
28.639285
 51
108.474296
  6
CONTINUOUS
  0
ARC
  8
WHITE
 10
1.039516
 20
0.894301
 30
0.000000
 40
2.483333
 50
-2.209803
 51
11.661757
  6
CONTINUOUS
  0
ARC
  8
WHITE
 10
3.206445
 20
0.871444
 30
0.000000
 40
0.322894
 50
-70.835600
 51
-13.047700
  6
CONTINUOUS
  0
ARC
  8
WHITE
 10
3.089341
 20
-2.329470
 30
0.000000
 40
2.904496
 50
85.594584
 51
88.915005
  6
CONTINUOUS
  0
ARC
  8
WHITE
 10
3.069445
 20
0.617444
 30
0.000000
 40
0.086330
 50
-29.826800
 51
18.225075
  6
CONTINUOUS
  0
LINE
  8
WHITE
 10
3.151445
 20
0.644444
 30
0.000000
 11
3.166445
 21
0.641444
 31
0.000000
  6
CONTINUOUS
  0
ARC
  8
WHITE
 10
5.154458
 20
1.148327
 30
0.000000
 40
2.051615
 50
-173.903654
 51
-165.696080
  6
CONTINUOUS
  0
LINE
  8
WHITE
 10
3.114445
 20
0.930444
 30
0.000000
 11
3.054445
 21
0.974444
 31
0.000000
  6
CONTINUOUS
  0
LINE
  8
WHITE
 10
3.054445
 20
0.974444
 30
0.000000
 11
3.038445
 21
1.015444
 31
0.000000
  6
CONTINUOUS
  0
LINE
  8
WHITE
 10
3.038445
 20
1.015444
 30
0.000000
 11
3.051445
 21
1.200445
 31
0.000000
  6
CONTINUOUS
  0
ARC
  8
WHITE
 10
2.830583
 20
0.975081
 30
0.000000
 40
0.315545
 50
20.860459
 51
45.578032
  6
CONTINUOUS
  0
ARC
  8
WHITE
 10
2.917544
 20
1.135872
 30
0.000000
 40
0.213466
 50
-13.112412
 51
78.960492
  6
CONTINUOUS
  0
ARC
  8
WHITE
 10
2.798019
 20
0.984633
 30
0.000000
 40
0.394807
 50
66.028815
 51
111.177199
  6
CONTINUOUS
  0
ARC
  8
WHITE
 10
2.380445
 20
3.172444
 30
0.000000
 40
1.840321
 50
-95.112687
 51
-81.407700
  6
CONTINUOUS
  0
LINE
  8
WHITE
 10
2.216445
 20
1.339444
 30
0.000000
 11
2.203445
 21
1.363445
 31
0.000000
  6
CONTINUOUS
  0
LINE
  8
WHITE
 10
2.203445
 20
1.363445
 30
0.000000
 11
2.241445
 21
1.398445
 31
0.000000
  6
CONTINUOUS
  0
LINE
  8
WHITE
 10
2.241445
 20
1.398445
 30
0.000000
 11
2.245445
 21
1.453444
 31
0.000000
  6
CONTINUOUS
  0
ARC
  8
WHITE
 10
2.278964
 20
1.510518
 30
0.000000
 40
0.066189
 50
152.143858
 51
239.574398
  6
CONTINUOUS
  0
ARC
  8
WHITE
 10
2.108548
 20
1.698237
 30
0.000000
 40
0.192626
 50
-54.485971
 51
-15.236195
  6
CONTINUOUS
  0
ARC
  8
WHITE
 10
2.600445
 20
0.319445
 30
0.000000
 40
1.362974
 50
102.975800
 51
108.036145
  6
CONTINUOUS
  0
LINE
  8
WHITE
 10
2.178445
 20
1.615445
 30
0.000000
 11
2.222445
 21
1.660444
 31
0.000000
  6
CONTINUOUS
  0
ARC
  8
WHITE
 10
2.050455
 20
2.152099
 30
0.000000
 40
0.520869
 50
-70.719262
 51
-54.623512
  6
CONTINUOUS
  0
ARC
  8
WHITE
 10
2.313445
 20
1.812444
 30
0.000000
 40
0.093380
 50
-65.606500
 51
9.865807
  6
CONTINUOUS
  0
LINE
  8
WHITE
 10
2.405445
 20
1.828444
 30
0.000000
 11
2.357445
 21
1.770444
 31
0.000000
  6
CONTINUOUS
  0
LINE
  8
WHITE
 10
2.357445
 20
1.770444
 30
0.000000
 11
2.351445
 21
1.891444
 31
0.000000
  6
CONTINUOUS
  0
LINE
  8
WHITE
 10
2.351445
 20
1.891444
 30
0.000000
 11
2.340445
 21
1.957444
 31
0.000000
  6
CONTINUOUS
  0
LINE
  8
WHITE
 10
2.340445
 20
1.957444
 30
0.000000
 11
2.310445
 21
1.749444
 31
0.000000
  6
CONTINUOUS
  0
LINE
  8
WHITE
 10
2.310445
 20
1.749444
 30
0.000000
 11
2.270445
 21
1.720444
 31
0.000000
  6
CONTINUOUS
  0
LINE
  8
WHITE
 10
2.270445
 20
1.720444
 30
0.000000
 11
2.264445
 21
1.723444
 31
0.000000
  6
CONTINUOUS
  0
ARC
  8
WHITE
 10
2.598396
 20
1.759305
 30
0.000000
 40
0.335871
 50
160.676686
 51
186.129079
  6
CONTINUOUS
  0
ARC
  8
WHITE
 10
1.552434
 20
1.912245
 30
0.000000
 40
0.730210
 50
-3.281709
 51
10.591984
  6
CONTINUOUS
  0
ARC
  8
WHITE
 10
0.934445
 20
2.173444
 30
0.000000
 40
1.341778
 50
-13.445900
 51
-5.430200
  6
CONTINUOUS
  0
ARC
  8
WHITE
 10
1.172282
 20
1.560019
 30
0.000000
 40
1.108915
 50
15.772591
 51
26.246722
  6
CONTINUOUS
  0
ARC
  8
WHITE
 10
3.029445
 20
2.082444
 30
0.000000
 40
0.863173
 50
-177.874000
 51
-164.063722
  6
CONTINUOUS
  0
LINE
  8
WHITE
 10
2.199445
 20
1.845444
 30
0.000000
 11
2.164445
 21
1.880445
 31
0.000000
  6
CONTINUOUS
  0
ARC
  8
WHITE
 10
2.230531
 20
1.868930
 30
0.000000
 40
0.067082
 50
170.115724
 51
236.243846
  6
CONTINUOUS
  0
ARC
  8
WHITE
 10
2.149450
 20
1.746449
 30
0.000000
 40
0.079806
 50
-52.135128
 51
56.707515
  6
CONTINUOUS
  0
LINE
  8
WHITE
 10
2.198435
 20
1.683445
 30
0.000000
 11
2.184435
 21
1.757445
 31
0.000000
  6
CONTINUOUS
  0
LINE
  8
WHITE
 10
2.184435
 20
1.757445
 30
0.000000
 11
2.154812
 21
1.652740
 31
0.000000
  6
CONTINUOUS
  0
ARC
  8
WHITE
 10
2.095195
 20
1.680597
 30
0.000000
 40
0.065804
 50
-121.242577
 51
-25.045311
  6
CONTINUOUS
  0
ARC
  8
WHITE
 10
2.551445
 20
1.764445
 30
0.000000
 40
0.510003
 50
179.775312
 51
195.945400
  6
CONTINUOUS
  0
LINE
  8
WHITE
 10
2.041445
 20
1.766445
 30
0.000000
 11
2.017445
 21
1.653445
 31
0.000000
  6
CONTINUOUS
  0
ARC
  8
WHITE
 10
1.549103
 20
1.131743
 30
0.000000
 40
0.701083
 50
48.085040
 51
56.069823
  6
CONTINUOUS
  0
LINE
  8
WHITE
 10
1.940435
 20
1.713445
 30
0.000000
 11
1.966038
 21
1.726865
 31
0.000000
  6
CONTINUOUS
  0
ARC
  8
WHITE
 10
1.768178
 20
1.936201
 30
0.000000
 40
0.288045
 50
-46.614310
 51
-20.824616
  6
CONTINUOUS
  0
ARC
  8
WHITE
 10
2.044435
 20
1.749445
 30
0.000000
 40
0.084646
 50
94.763620
 51
165.635400
  6
CONTINUOUS
  0
ARC
  8
WHITE
 10
1.941928
 20
1.794712
 30
0.000000
 40
0.031772
 50
159.981868
 51
310.200772
  6
CONTINUOUS
  0
ARC
  8
WHITE
 10
2.563579
 20
1.546652
 30
0.000000
 40
0.701074
 50
145.126040
 51
158.324937
  6
CONTINUOUS
  0
ARC
  8
WHITE
 10
2.065435
 20
1.763445
 30
0.000000
 40
0.199529
 50
112.708200
 51
151.893730
  6
CONTINUOUS
  0
LINE
  8
WHITE
 10
1.889435
 20
1.857445
 30
0.000000
 11
1.894435
 21
1.889445
 31
0.000000
  6
CONTINUOUS
  0
ARC
  8
WHITE
 10
1.759440
 20
1.957455
 30
0.000000
 40
0.151159
 50
-26.738926
 51
25.884382
  6
CONTINUOUS
  0
ARC
  8
WHITE
 10
1.655500
 20
2.018546
 30
0.000000
 40
0.239984
 50
-32.833914
 51
1.169707
  6
CONTINUOUS
  0
ARC
  8
WHITE
 10
2.517771
 20
1.936129
 30
0.000000
 40
0.662345
 50
168.805223
 51
184.130223
  6
CONTINUOUS
  0
ARC
  8
WHITE
 10
2.097435
 20
1.909445
 30
0.000000
 40
0.277016
 50
145.907700
 51
180.620508
  6
CONTINUOUS
  0
LINE
  8
WHITE
 10
1.820435
 20
1.906445
 30
0.000000
 11
1.807435
 21
1.891445
 31
0.000000
  6
CONTINUOUS
  0
LINE
  8
WHITE
 10
1.807435
 20
1.891445
 30
0.000000
 11
1.838229
 21
1.839376
 31
0.000000
  6
CONTINUOUS
  0
ARC
  8
WHITE
 10
1.129435
 20
1.603445
 30
0.000000
 40
0.747029
 50
9.399276
 51
18.410710
  6
CONTINUOUS
  0
ARC
  8
WHITE
 10
1.466665
 20
1.124255
 30
0.000000
 40
0.721973
 50
45.640816
 51
56.377487
  6
CONTINUOUS
  0
LINE
  8
WHITE
 10
1.971435
 20
1.640445
 30
0.000000
 11
2.027435
 21
1.601445
 31
0.000000
  6
CONTINUOUS
  0
LINE
  8
WHITE
 10
2.027435
 20
1.601445
 30
0.000000
 11
1.939426
 21
1.647443
 31
0.000000
  6
CONTINUOUS
  0
ARC
  8
WHITE
 10
2.185435
 20
1.689445
 30
0.000000
 40
0.249569
 50
-170.311200
 51
-141.017503
  6
CONTINUOUS
  0
LINE
  8
WHITE
 10
1.991435
 20
1.532445
 30
0.000000
 11
1.981435
 21
1.414445
 31
0.000000
  6
CONTINUOUS
  0
ARC
  8
WHITE
 10
2.491469
 20
1.390152
 30
0.000000
 40
0.510612
 50
177.273000
 51
201.206804
  6
CONTINUOUS
  0
LINE
  8
WHITE
 10
2.015435
 20
1.205445
 30
0.000000
 11
2.160435
 21
1.003445
 31
0.000000
  6
CONTINUOUS
  0
ARC
  8
WHITE
 10
2.100522
 20
0.859281
 30
0.000000
 40
0.156118
 50
27.946282
 51
67.432701
  6
CONTINUOUS
  0
ARC
  8
WHITE
 10
2.063202
 20
0.861604
 30
0.000000
 40
0.189011
 50
-15.389586
 51
22.011881
  6
CONTINUOUS
  0
LINE
  8
WHITE
 10
2.245435
 20
0.811444
 30
0.000000
 11
2.248228
 21
0.655508
 31
0.000000
  6
CONTINUOUS
  0
ARC
  8
WHITE
 10
1.131435
 20
0.993445
 30
0.000000
 40
1.166802
 50
-24.939808
 51
-16.835600
  6
CONTINUOUS
  0
LINE
  8
WHITE
 10
2.189435
 20
0.501444
 30
0.000000
 11
2.079435
 21
0.462445
 31
0.000000
  6
CONTINUOUS
  0
ARC
  8
WHITE
 10
1.556144
 20
-2.055873
 30
0.000000
 40
2.572112
 50
78.261330
 51
81.722711
  6
CONTINUOUS
  0
LINE
  8
WHITE
 10
1.926435
 20
0.489445
 30
0.000000
 11
1.929435
 21
0.581445
 31
0.000000
  6
CONTINUOUS
  0
LINE
  8
WHITE
 10
1.929435
 20
0.581445
 30
0.000000
 11
1.885435
 21
0.495445
 31
0.000000
  6
CONTINUOUS
  0
LINE
  8
WHITE
 10
1.885435
 20
0.495445
 30
0.000000
 11
1.885435
 21
0.531445
 31
0.000000
  6
CONTINUOUS
  0
LINE
  8
WHITE
 10
1.885435
 20
0.531445
 30
0.000000
 11
1.861435
 21
0.503445
 31
0.000000
  6
CONTINUOUS
  0
ARC
  8
WHITE
 10
1.658653
 20
0.045229
 30
0.000000
 40
0.501081
 50
66.128371
 51
78.046610
  6
CONTINUOUS
  0
LINE
  8
WHITE
 10
1.762435
 20
0.535445
 30
0.000000
 11
1.705435
 21
0.572445
 31
0.000000
  6
CONTINUOUS
  0
LINE
  8
WHITE
 10
1.705435
 20
0.572445
 30
0.000000
 11
1.669435
 21
0.584445
 31
0.000000
  6
CONTINUOUS
  0
LINE
  8
WHITE
 10
1.669435
 20
0.584445
 30
0.000000
 11
1.683435
 21
0.657445
 31
0.000000
  6
CONTINUOUS
  0
LINE
  8
WHITE
 10
1.683435
 20
0.657445
 30
0.000000
 11
1.640435
 21
0.585445
 31
0.000000
  6
CONTINUOUS
  0
LINE
  8
WHITE
 10
1.640435
 20
0.585445
 30
0.000000
 11
1.636435
 21
0.611445
 31
0.000000
  6
CONTINUOUS
  0
LINE
  8
WHITE
 10
1.636435
 20
0.611445
 30
0.000000
 11
1.620435
 21
0.587445
 31
0.000000
  6
CONTINUOUS
  0
LINE
  8
WHITE
 10
1.620435
 20
0.587445
 30
0.000000
 11
1.608435
 21
0.611445
 31
0.000000
  6
CONTINUOUS
  0
LINE
  8
WHITE
 10
1.608435
 20
0.611445
 30
0.000000
 11
1.592435
 21
0.589445
 31
0.000000
  6
CONTINUOUS
  0
LINE
  8
WHITE
 10
1.592435
 20
0.589445
 30
0.000000
 11
1.558435
 21
0.697445
 31
0.000000
  6
CONTINUOUS
  0
LINE
  8
WHITE
 10
1.558435
 20
0.697445
 30
0.000000
 11
1.558435
 21
0.591445
 31
0.000000
  6
CONTINUOUS
  0
LINE
  8
WHITE
 10
1.558435
 20
0.591445
 30
0.000000
 11
1.460435
 21
0.625445
 31
0.000000
  6
CONTINUOUS
  0
ARC
  8
WHITE
 10
2.374436
 20
0.950415
 30
0.000000
 40
0.970053
 50
-178.107820
 51
-160.427313
  6
CONTINUOUS
  0
ARC
  8
WHITE
 10
-2.339084
 20
0.486256
 30
0.000000
 40
3.768851
 50
6.583901
 51
12.458429
  6
CONTINUOUS
  0
ARC
  8
WHITE
 10
2.243435
 20
1.583445
 30
0.000000
 40
0.946087
 50
-169.093887
 51
-162.523100
  6
CONTINUOUS
  0
LINE
  8
WHITE
 10
1.103425
 20
0.578445
 30
0.000000
 11
1.020212
 21
0.533155
 31
0.000000
  6
CONTINUOUS
  0
ARC
  8
WHITE
 10
2.289357
 20
2.258058
 30
0.000000
 40
2.141499
 50
-173.655363
 51
-126.344808
  6
CONTINUOUS
  0
ARC
  8
WHITE
 10
2.142425
 20
2.195445
 30
0.000000
 40
1.989080
 50
127.832035
 51
185.019700
  6
CONTINUOUS
  0
LINE
  8
WHITE
 10
0.922425
 20
3.766445
 30
0.000000
 11
0.937425
 21
3.775444
 31
0.000000
  6
CONTINUOUS
  0
LINE
  8
WHITE
 10
0.937425
 20
3.775444
 30
0.000000
 11
0.982425
 21
3.763444
 31
0.000000
  6
CONTINUOUS
  0
LINE
  8
WHITE
 10
0.982425
 20
3.763444
 30
0.000000
 11
0.983391
 21
3.755317
 31
0.000000
  6
CONTINUOUS
  0
ARC
  8
WHITE
 10
0.966425
 20
3.692444
 30
0.000000
 40
0.065122
 50
74.898730
 51
183.521453
  6
CONTINUOUS
  0
LINE
  8
WHITE
 10
0.901425
 20
3.688444
 30
0.000000
 11
0.953425
 21
3.644444
 31
0.000000
  6
CONTINUOUS
  0
LINE
  8
WHITE
 10
0.953425
 20
3.644444
 30
0.000000
 11
0.984425
 21
3.664444
 31
0.000000
  6
CONTINUOUS
  0
LINE
  8
WHITE
 10
0.984425
 20
3.664444
 30
0.000000
 11
0.992425
 21
3.686444
 31
0.000000
  6
CONTINUOUS
  0
LINE
  8
WHITE
 10
0.992425
 20
3.686444
 30
0.000000
 11
0.995425
 21
3.643445
 31
0.000000
  6
CONTINUOUS
  0
LINE
  8
WHITE
 10
0.995425
 20
3.643445
 30
0.000000
 11
0.864425
 21
3.563445
 31
0.000000
  6
CONTINUOUS
  0
LINE
  8
WHITE
 10
0.864425
 20
3.563445
 30
0.000000
 11
0.880425
 21
3.511445
 31
0.000000
  6
CONTINUOUS
  0
LINE
  8
WHITE
 10
0.880425
 20
3.511445
 30
0.000000
 11
0.900425
 21
3.518445
 31
0.000000
  6
CONTINUOUS
  0
LINE
  8
WHITE
 10
0.900425
 20
3.518445
 30
0.000000
 11
0.911425
 21
3.488445
 31
0.000000
  6
CONTINUOUS
  0
LINE
  8
WHITE
 10
0.911425
 20
3.488445
 30
0.000000
 11
0.959425
 21
3.542444
 31
0.000000
  6
CONTINUOUS
  0
LINE
  8
WHITE
 10
0.959425
 20
3.542444
 30
0.000000
 11
0.969425
 21
3.521445
 31
0.000000
  6
CONTINUOUS
  0
LINE
  8
WHITE
 10
0.969425
 20
3.521445
 30
0.000000
 11
1.011003
 21
3.579347
 31
0.000000
  6
CONTINUOUS
  0
ARC
  8
WHITE
 10
0.880425
 20
3.549444
 30
0.000000
 40
0.133958
 50
-83.140300
 51
12.898790
  6
CONTINUOUS
  0
ARC
  8
WHITE
 10
0.897213
 20
3.307443
 30
0.000000
 40
0.109005
 50
90.414465
 51
159.034896
  6
CONTINUOUS
  0
LINE
  8
WHITE
 10
0.795425
 20
3.346445
 30
0.000000
 11
0.835425
 21
3.346445
 31
0.000000
  6
CONTINUOUS
  0
LINE
  8
WHITE
 10
0.835425
 20
3.346445
 30
0.000000
 11
0.835425
 21
3.314445
 31
0.000000
  6
CONTINUOUS
  0
LINE
  8
WHITE
 10
0.835425
 20
3.314445
 30
0.000000
 11
0.905425
 21
3.338444
 31
0.000000
  6
CONTINUOUS
  0
LINE
  8
WHITE
 10
0.905425
 20
3.338444
 30
0.000000
 11
0.926425
 21
3.317445
 31
0.000000
  6
CONTINUOUS
  0
LINE
  8
WHITE
 10
0.926425
 20
3.317445
 30
0.000000
 11
0.955425
 21
3.342445
 31
0.000000
  6
CONTINUOUS
  0
LINE
  8
WHITE
 10
0.955425
 20
3.342445
 30
0.000000
 11
0.994425
 21
3.346445
 31
0.000000
  6
CONTINUOUS
  0
LINE
  8
WHITE
 10
0.994425
 20
3.346445
 30
0.000000
 11
1.017425
 21
3.427445
 31
0.000000
  6
CONTINUOUS
  0
LINE
  8
WHITE
 10
1.017425
 20
3.427445
 30
0.000000
 11
1.029425
 21
3.433445
 31
0.000000
  6
CONTINUOUS
  0
LINE
  8
WHITE
 10
1.029425
 20
3.433445
 30
0.000000
 11
1.041425
 21
3.367445
 31
0.000000
  6
CONTINUOUS
  0
LINE
  8
WHITE
 10
1.041425
 20
3.367445
 30
0.000000
 11
0.685425
 21
3.164445
 31
0.000000
  6
CONTINUOUS
  0
LINE
  8
WHITE
 10
0.685425
 20
3.164445
 30
0.000000
 11
0.685425
 21
3.150445
 31
0.000000
  6
CONTINUOUS
  0
LINE
  8
WHITE
 10
0.685425
 20
3.150445
 30
0.000000
 11
0.754425
 21
3.130445
 31
0.000000
  6
CONTINUOUS
  0
LINE
  8
WHITE
 10
0.754425
 20
3.130445
 30
0.000000
 11
0.791425
 21
3.088445
 31
0.000000
  6
CONTINUOUS
  0
LINE
  8
WHITE
 10
0.791425
 20
3.088445
 30
0.000000
 11
0.804425
 21
3.120445
 31
0.000000
  6
CONTINUOUS
  0
LINE
  8
WHITE
 10
0.804425
 20
3.120445
 30
0.000000
 11
0.856425
 21
3.147445
 31
0.000000
  6
CONTINUOUS
  0
LINE
  8
WHITE
 10
0.856425
 20
3.147445
 30
0.000000
 11
0.861425
 21
3.121445
 31
0.000000
  6
CONTINUOUS
  0
LINE
  8
WHITE
 10
0.861425
 20
3.121445
 30
0.000000
 11
0.874037
 21
3.124624
 31
0.000000
  6
CONTINUOUS
  0
ARC
  8
WHITE
 10
0.930425
 20
3.098445
 30
0.000000
 40
0.062169
 50
78.870811
 51
155.095900
  6
CONTINUOUS
  0
LINE
  8
WHITE
 10
0.942425
 20
3.159445
 30
0.000000
 11
1.045425
 21
3.279445
 31
0.000000
  6
CONTINUOUS
  0
LINE
  8
WHITE
 10
1.045425
 20
3.279445
 30
0.000000
 11
1.048425
 21
3.137445
 31
0.000000
  6
CONTINUOUS
  0
ARC
  8
WHITE
 10
0.277575
 20
4.282244
 30
0.000000
 40
1.380135
 50
-76.642401
 51
-56.045656
  6
CONTINUOUS
  0
LINE
  8
WHITE
 10
0.596425
 20
2.939445
 30
0.000000
 11
0.653425
 21
2.939445
 31
0.000000
  6
CONTINUOUS
  0
LINE
  8
WHITE
 10
0.653425
 20
2.939445
 30
0.000000
 11
0.646425
 21
2.907445
 31
0.000000
  6
CONTINUOUS
  0
LINE
  8
WHITE
 10
0.646425
 20
2.907445
 30
0.000000
 11
0.715425
 21
2.925445
 31
0.000000
  6
CONTINUOUS
  0
LINE
  8
WHITE
 10
0.715425
 20
2.925445
 30
0.000000
 11
0.730424
 21
2.909446
 31
0.000000
  6
CONTINUOUS
  0
ARC
  8
WHITE
 10
0.742425
 20
2.951445
 30
0.000000
 40
0.043680
 50
-105.946700
 51
-15.945396
  6
CONTINUOUS
  0
LINE
  8
WHITE
 10
0.784425
 20
2.939445
 30
0.000000
 11
0.873425
 21
2.942445
 31
0.000000
  6
CONTINUOUS
  0
LINE
  8
WHITE
 10
0.873425
 20
2.942445
 30
0.000000
 11
0.838425
 21
2.898445
 31
0.000000
  6
CONTINUOUS
  0
LINE
  8
WHITE
 10
0.838425
 20
2.898445
 30
0.000000
 11
0.986435
 21
2.991445
 31
0.000000
  6
CONTINUOUS
  0
LINE
  8
WHITE
 10
0.986435
 20
2.991445
 30
0.000000
 11
1.004435
 21
2.972445
 31
0.000000
  6
CONTINUOUS
  0
LINE
  8
WHITE
 10
1.004435
 20
2.972445
 30
0.000000
 11
1.047425
 21
3.058444
 31
0.000000
  6
CONTINUOUS
  0
LINE
  8
WHITE
 10
1.047425
 20
3.058444
 30
0.000000
 11
1.065425
 21
2.950444
 31
0.000000
  6
CONTINUOUS
  0
LINE
  8
WHITE
 10
1.065425
 20
2.950444
 30
0.000000
 11
1.068425
 21
2.900444
 31
0.000000
  6
CONTINUOUS
  0
ARC
  8
WHITE
 10
0.496714
 20
3.637380
 30
0.000000
 40
0.932699
 50
-84.850717
 51
-52.195904
  6
CONTINUOUS
  0
LINE
  8
WHITE
 10
0.580425
 20
2.708445
 30
0.000000
 11
0.586425
 21
2.685445
 31
0.000000
  6
CONTINUOUS
  0
LINE
  8
WHITE
 10
0.586425
 20
2.685445
 30
0.000000
 11
0.637425
 21
2.689445
 31
0.000000
  6
CONTINUOUS
  0
LINE
  8
WHITE
 10
0.637425
 20
2.689445
 30
0.000000
 11
0.657425
 21
2.655445
 31
0.000000
  6
CONTINUOUS
  0
ARC
  8
WHITE
 10
0.682808
 20
2.572417
 30
0.000000
 40
0.086821
 50
32.014910
 51
106.999333
  6
CONTINUOUS
  0
ARC
  8
WHITE
 10
0.828989
 20
2.575872
 30
0.000000
 40
0.084131
 50
46.007186
 51
149.600191
  6
CONTINUOUS
  0
ARC
  8
WHITE
 10
0.904435
 20
2.705445
 30
0.000000
 40
0.071112
 50
-103.840900
 51
3.223718
  6
CONTINUOUS
  0
LINE
  8
WHITE
 10
0.975435
 20
2.709444
 30
0.000000
 11
1.015003
 21
2.709433
 31
0.000000
  6
CONTINUOUS
  0
ARC
  8
WHITE
 10
1.120435
 20
2.712445
 30
0.000000
 40
0.105475
 50
121.429849
 51
181.636600
  6
CONTINUOUS
  0
LINE
  8
WHITE
 10
1.065435
 20
2.802444
 30
0.000000
 11
1.074435
 21
2.700444
 31
0.000000
  6
CONTINUOUS
  0
ARC
  8
WHITE
 10
0.742976
 20
3.121713
 30
0.000000
 40
0.536035
 50
-100.375690
 51
-51.803949
  6
CONTINUOUS
  0
LINE
  8
WHITE
 10
0.646435
 20
2.594444
 30
0.000000
 11
0.654435
 21
2.569444
 31
0.000000
  6
CONTINUOUS
  0
LINE
  8
WHITE
 10
0.654435
 20
2.569444
 30
0.000000
 11
0.617425
 21
2.536444
 31
0.000000
  6
CONTINUOUS
  0
LINE
  8
WHITE
 10
0.617425
 20
2.536444
 30
0.000000
 11
0.710435
 21
2.536444
 31
0.000000
  6
CONTINUOUS
  0
LINE
  8
WHITE
 10
0.710435
 20
2.536444
 30
0.000000
 11
0.699435
 21
2.521444
 31
0.000000
  6
CONTINUOUS
  0
LINE
  8
WHITE
 10
0.699435
 20
2.521444
 30
0.000000
 11
0.854435
 21
2.535444
 31
0.000000
  6
CONTINUOUS
  0
LINE
  8
WHITE
 10
0.854435
 20
2.535444
 30
0.000000
 11
0.789435
 21
2.485444
 31
0.000000
  6
CONTINUOUS
  0
LINE
  8
WHITE
 10
0.789435
 20
2.485444
 30
0.000000
 11
0.935435
 21
2.558444
 31
0.000000
  6
CONTINUOUS
  0
LINE
  8
WHITE
 10
0.935435
 20
2.558444
 30
0.000000
 11
0.956260
 21
2.530651
 31
0.000000
  6
CONTINUOUS
  0
ARC
  8
WHITE
 10
1.458435
 20
1.938444
 30
0.000000
 40
0.776459
 50
118.710600
 51
130.297000
  6
CONTINUOUS
  0
ARC
  8
WHITE
 10
0.977391
 20
2.624421
 30
0.000000
 40
0.108158
 50
-62.471952
 51
-2.638088
  6
CONTINUOUS
  0
ARC
  8
WHITE
 10
0.704435
 20
2.906444
 30
0.000000
 40
0.497121
 50
-105.517942
 51
-49.486200
  6
CONTINUOUS
  0
LINE
  8
WHITE
 10
0.571435
 20
2.427444
 30
0.000000
 11
0.571435
 21
2.372444
 31
0.000000
  6
CONTINUOUS
  0
LINE
  8
WHITE
 10
0.571435
 20
2.372444
 30
0.000000
 11
0.596435
 21
2.372444
 31
0.000000
  6
CONTINUOUS
  0
ARC
  8
WHITE
 10
0.600020
 20
2.347357
 30
0.000000
 40
0.025342
 50
23.293728
 51
98.133221
  6
CONTINUOUS
  0
ARC
  8
WHITE
 10
0.661435
 20
2.375444
 30
0.000000
 40
0.042201
 50
-154.654000
 51
-53.673174
  6
CONTINUOUS
  0
LINE
  8
WHITE
 10
0.686435
 20
2.341444
 30
0.000000
 11
0.718435
 21
2.308444
 31
0.000000
  6
CONTINUOUS
  0
LINE
  8
WHITE
 10
0.718435
 20
2.308444
 30
0.000000
 11
0.860435
 21
2.355444
 31
0.000000
  6
CONTINUOUS
  0
LINE
  8
WHITE
 10
0.860435
 20
2.355444
 30
0.000000
 11
0.871435
 21
2.334444
 31
0.000000
  6
CONTINUOUS
  0
LINE
  8
WHITE
 10
0.871435
 20
2.334444
 30
0.000000
 11
0.990435
 21
2.387444
 31
0.000000
  6
CONTINUOUS
  0
LINE
  8
WHITE
 10
0.990435
 20
2.387444
 30
0.000000
 11
1.027435
 21
2.465444
 31
0.000000
  6
CONTINUOUS
  0
ARC
  8
WHITE
 10
1.185592
 20
2.368376
 30
0.000000
 40
0.185569
 50
119.776558
 51
148.460634
  6
CONTINUOUS
  0
LINE
  8
WHITE
 10
1.093435
 20
2.529444
 30
0.000000
 11
1.105008
 21
2.464477
 31
0.000000
  6
CONTINUOUS
  0
ARC
  8
WHITE
 10
1.015805
 20
2.471555
 30
0.000000
 40
0.089483
 50
-73.501368
 51
-4.536379
  6
CONTINUOUS
  0
ARC
  8
WHITE
 10
0.208435
 20
3.592443
 30
0.000000
 40
1.466159
 50
-75.584624
 51
-55.388900
  6
CONTINUOUS
  0
LINE
  8
WHITE
 10
0.573435
 20
2.172444
 30
0.000000
 11
0.653435
 21
2.163444
 31
0.000000
  6
CONTINUOUS
  0
LINE
  8
WHITE
 10
0.653435
 20
2.163444
 30
0.000000
 11
0.662012
 21
2.142195
 31
0.000000
  6
CONTINUOUS
  0
ARC
  8
WHITE
 10
0.725435
 20
2.179444
 30
0.000000
 40
0.073552
 50
-149.574000
 51
-43.898294
  6
CONTINUOUS
  0
LINE
  8
WHITE
 10
0.778435
 20
2.128444
 30
0.000000
 11
0.825435
 21
2.109444
 31
0.000000
  6
CONTINUOUS
  0
ARC
  8
WHITE
 10
0.856205
 20
2.234501
 30
0.000000
 40
0.128787
 50
-103.822881
 51
-13.496433
  6
CONTINUOUS
  0
LINE
  8
WHITE
 10
0.981435
 20
2.204444
 30
0.000000
 11
1.016435
 21
2.226444
 31
0.000000
  6
CONTINUOUS
  0
LINE
  8
WHITE
 10
1.016435
 20
2.226444
 30
0.000000
 11
1.022435
 21
2.199444
 31
0.000000
  6
CONTINUOUS
  0
ARC
  8
WHITE
 10
1.020351
 20
2.256485
 30
0.000000
 40
0.057079
 50
-87.907830
 51
15.193435
  6
CONTINUOUS
  0
LINE
  8
WHITE
 10
1.075435
 20
2.271444
 30
0.000000
 11
1.078435
 21
2.296444
 31
0.000000
  6
CONTINUOUS
  0
LINE
  8
WHITE
 10
1.078435
 20
2.296444
 30
0.000000
 11
1.102435
 21
2.335444
 31
0.000000
  6
CONTINUOUS
  0
LINE
  8
WHITE
 10
1.102435
 20
2.335444
 30
0.000000
 11
1.111435
 21
2.219444
 31
0.000000
  6
CONTINUOUS
  0
ARC
  8
WHITE
 10
0.511164
 20
2.888423
 30
0.000000
 40
0.898809
 50
-85.451987
 51
-48.098555
  6
CONTINUOUS
  0
LINE
  8
WHITE
 10
0.582435
 20
1.992444
 30
0.000000
 11
0.715435
 21
1.966444
 31
0.000000
  6
CONTINUOUS
  0
LINE
  8
WHITE
 10
0.715435
 20
1.966444
 30
0.000000
 11
0.723145
 21
1.932820
 31
0.000000
  6
CONTINUOUS
  0
ARC
  8
WHITE
 10
0.753435
 20
1.893444
 30
0.000000
 40
0.049678
 50
40.100908
 51
127.569200
  6
CONTINUOUS
  0
LINE
  8
WHITE
 10
0.791435
 20
1.925444
 30
0.000000
 11
0.839108
 21
1.938340
 31
0.000000
  6
CONTINUOUS
  0
ARC
  8
WHITE
 10
0.861435
 20
1.945444
 30
0.000000
 40
0.023430
 50
-162.350899
 51
-50.194429
  6
CONTINUOUS
  0
LINE
  8
WHITE
 10
0.876435
 20
1.927444
 30
0.000000
 11
1.037435
 21
2.041444
 31
0.000000
  6
CONTINUOUS
  0
LINE
  8
WHITE
 10
1.037435
 20
2.041444
 30
0.000000
 11
1.060435
 21
2.103444
 31
0.000000
  6
CONTINUOUS
  0
LINE
  8
WHITE
 10
1.060435
 20
2.103444
 30
0.000000
 11
1.071435
 21
2.076444
 31
0.000000
  6
CONTINUOUS
  0
LINE
  8
WHITE
 10
1.071435
 20
2.076444
 30
0.000000
 11
1.119435
 21
2.142444
 31
0.000000
  6
CONTINUOUS
  0
LINE
  8
WHITE
 10
1.119435
 20
2.142444
 30
0.000000
 11
1.121371
 21
2.069481
 31
0.000000
  6
CONTINUOUS
  0
ARC
  8
WHITE
 10
0.720103
 20
2.311235
 30
0.000000
 40
0.468466
 50
-98.819566
 51
-31.067944
  6
CONTINUOUS
  0
ARC
  8
WHITE
 10
0.713435
 20
1.904444
 30
0.000000
 40
0.086005
 50
-139.254100
 51
-66.713935
  6
CONTINUOUS
  0
LINE
  8
WHITE
 10
0.747435
 20
1.825444
 30
0.000000
 11
0.828435
 21
1.803444
 31
0.000000
  6
CONTINUOUS
  0
LINE
  8
WHITE
 10
0.828435
 20
1.803444
 30
0.000000
 11
0.878435
 21
1.781444
 31
0.000000
  6
CONTINUOUS
  0
LINE
  8
WHITE
 10
0.878435
 20
1.781444
 30
0.000000
 11
0.919435
 21
1.832444
 31
0.000000
  6
CONTINUOUS
  0
LINE
  8
WHITE
 10
0.919435
 20
1.832444
 30
0.000000
 11
0.930435
 21
1.808444
 31
0.000000
  6
CONTINUOUS
  0
LINE
  8
WHITE
 10
0.930435
 20
1.808444
 30
0.000000
 11
1.038207
 21
1.844428
 31
0.000000
  6
CONTINUOUS
  0
ARC
  8
WHITE
 10
1.123435
 20
1.850444
 30
0.000000
 40
0.085440
 50
110.556045
 51
184.037700
  6
CONTINUOUS
  0
LINE
  8
WHITE
 10
1.093435
 20
1.930444
 30
0.000000
 11
1.108435
 21
1.966444
 31
0.000000
  6
CONTINUOUS
  0
ARC
  8
WHITE
 10
1.138879
 20
1.957324
 30
0.000000
 40
0.031780
 50
101.698181
 51
163.322714
  6
CONTINUOUS
  0
LINE
  8
WHITE
 10
1.132435
 20
1.988444
 30
0.000000
 11
1.144435
 21
1.836444
 31
0.000000
  6
CONTINUOUS
  0
ARC
  8
WHITE
 10
0.779044
 20
2.258254
 30
0.000000
 40
0.558063
 50
-82.132287
 51
-49.099357
  6
CONTINUOUS
  0
LINE
  8
WHITE
 10
0.855435
 20
1.705444
 30
0.000000
 11
0.917435
 21
1.690444
 31
0.000000
  6
CONTINUOUS
  0
LINE
  8
WHITE
 10
0.917435
 20
1.690444
 30
0.000000
 11
0.796435
 21
1.641444
 31
0.000000
  6
CONTINUOUS
  0
LINE
  8
WHITE
 10
0.796435
 20
1.641444
 30
0.000000
 11
0.786435
 21
1.607444
 31
0.000000
  6
CONTINUOUS
  0
LINE
  8
WHITE
 10
0.786435
 20
1.607444
 30
0.000000
 11
0.834435
 21
1.619444
 31
0.000000
  6
CONTINUOUS
  0
LINE
  8
WHITE
 10
0.834435
 20
1.619444
 30
0.000000
 11
0.878435
 21
1.633444
 31
0.000000
  6
CONTINUOUS
  0
LINE
  8
WHITE
 10
0.878435
 20
1.633444
 30
0.000000
 11
1.029435
 21
1.692444
 31
0.000000
  6
CONTINUOUS
  0
LINE
  8
WHITE
 10
1.029435
 20
1.692444
 30
0.000000
 11
1.026435
 21
1.610444
 31
0.000000
  6
CONTINUOUS
  0
LINE
  8
WHITE
 10
1.026435
 20
1.610444
 30
0.000000
 11
1.139435
 21
1.759444
 31
0.000000
  6
CONTINUOUS
  0
LINE
  8
WHITE
 10
1.139435
 20
1.759444
 30
0.000000
 11
1.153435
 21
1.759444
 31
0.000000
  6
CONTINUOUS
  0
LINE
  8
WHITE
 10
1.153435
 20
1.759444
 30
0.000000
 11
1.161435
 21
1.733444
 31
0.000000
  6
CONTINUOUS
  0
LINE
  8
WHITE
 10
1.161435
 20
1.733444
 30
0.000000
 11
1.181435
 21
1.514444
 31
0.000000
  6
CONTINUOUS
  0
LINE
  8
WHITE
 10
1.181435
 20
1.514444
 30
0.000000
 11
1.188435
 21
1.280444
 31
0.000000
  6
CONTINUOUS
  0
LINE
  8
WHITE
 10
1.188435
 20
1.280444
 30
0.000000
 11
1.254435
 21
0.602445
 31
0.000000
  6
CONTINUOUS
  0
LINE
  8
WHITE
 10
1.254435
 20
0.602445
 30
0.000000
 11
1.237435
 21
0.585444
 31
0.000000
  6
CONTINUOUS
  0
LINE
  8
WHITE
 10
1.237435
 20
0.585444
 30
0.000000
 11
1.107435
 21
0.557444
 31
0.000000
  6
CONTINUOUS
  0
LINE
  8
WHITE
 10
1.107435
 20
0.557444
 30
0.000000
 11
1.103425
 21
0.578445
 31
0.000000
  6
CONTINUOUS
  0
ARC
  8
WHITE
 10
3.732316
 20
1.854471
 30
0.000000
 40
0.669805
 50
43.962906
 51
77.405121
  6
CONTINUOUS
  0
LINE
  8
WHITE
 10
3.878371
 20
2.508158
 30
0.000000
 11
3.905435
 21
1.634444
 31
0.000000
  6
CONTINUOUS
  0
ARC
  8
WHITE
 10
5.241425
 20
1.621369
 30
0.000000
 40
1.336054
 50
179.439297
 51
198.093031
  6
CONTINUOUS
  0
ARC
  8
WHITE
 10
2.283217
 20
2.158057
 30
0.000000
 40
1.937949
 50
-29.409071
 51
4.776969
  6
CONTINUOUS
  0
LINE
  8
WHITE
 10
2.799425
 20
0.690445
 30
0.000000
 11
2.769435
 21
0.637445
 31
0.000000
  6
CONTINUOUS
  0
LINE
  8
WHITE
 10
2.769435
 20
0.637445
 30
0.000000
 11
2.677435
 21
0.531445
 31
0.000000
  6
CONTINUOUS
  0
LINE
  8
WHITE
 10
2.677435
 20
0.531445
 30
0.000000
 11
2.642435
 21
0.516445
 31
0.000000
  6
CONTINUOUS
  0
LINE
  8
WHITE
 10
2.642435
 20
0.516445
 30
0.000000
 11
2.622435
 21
0.516445
 31
0.000000
  6
CONTINUOUS
  0
LINE
  8
WHITE
 10
2.622435
 20
0.516445
 30
0.000000
 11
2.532435
 21
0.479445
 31
0.000000
  6
CONTINUOUS
  0
LINE
  8
WHITE
 10
2.532435
 20
0.479445
 30
0.000000
 11
2.471435
 21
0.489445
 31
0.000000
  6
CONTINUOUS
  0
LINE
  8
WHITE
 10
2.471435
 20
0.489445
 30
0.000000
 11
2.424435
 21
0.506445
 31
0.000000
  6
CONTINUOUS
  0
LINE
  8
WHITE
 10
2.424435
 20
0.506445
 30
0.000000
 11
2.295435
 21
0.514445
 31
0.000000
  6
CONTINUOUS
  0
ARC
  8
WHITE
 10
2.101551
 20
0.619659
 30
0.000000
 40
0.220592
 50
-28.487040
 51
4.624753
  6
CONTINUOUS
  0
LINE
  8
WHITE
 10
2.321425
 20
0.637445
 30
0.000000
 11
2.394425
 21
0.882445
 31
0.000000
  6
CONTINUOUS
  0
LINE
  8
WHITE
 10
2.394425
 20
0.882445
 30
0.000000
 11
2.432420
 21
0.952392
 31
0.000000
  6
CONTINUOUS
  0
ARC
  8
WHITE
 10
2.491425
 20
1.547445
 30
0.000000
 40
0.597971
 50
-95.662900
 51
-66.650433
  6
CONTINUOUS
  0
LINE
  8
WHITE
 10
2.728425
 20
0.998445
 30
0.000000
 11
2.767360
 21
0.956287
 31
0.000000
  6
CONTINUOUS
  0
ARC
  8
WHITE
 10
2.712425
 20
0.823445
 30
0.000000
 40
0.143753
 50
-41.898336
 51
67.533140
  6
CONTINUOUS
  0
LINE
  8
WHITE
 10
2.819425
 20
0.727445
 30
0.000000
 11
2.799425
 21
0.690445
 31
0.000000
  6
CONTINUOUS
  0
LINE
  8
WHITE
 10
4.155435
 20
2.629445
 30
0.000000
 11
3.901435
 21
2.629445
 31
0.000000
  6
CONTINUOUS
  0
LINE
  8
WHITE
 10
3.901435
 20
2.629445
 30
0.000000
 11
3.869435
 21
2.647444
 31
0.000000
  6
CONTINUOUS
  0
LINE
  8
WHITE
 10
3.869435
 20
2.647444
 30
0.000000
 11
3.858435
 21
2.636445
 31
0.000000
  6
CONTINUOUS
  0
LINE
  8
WHITE
 10
3.858435
 20
2.636445
 30
0.000000
 11
3.858435
 21
2.714445
 31
0.000000
  6
CONTINUOUS
  0
ARC
  8
WHITE
 10
11.938330
 20
3.722126
 30
0.000000
 40
8.142489
 50
-177.748246
 51
-172.891081
  6
CONTINUOUS
  0
ARC
  8
WHITE
 10
2.283435
 20
2.215445
 30
0.000000
 40
1.927389
 50
12.038670
 51
38.005300
  6
CONTINUOUS
  0
LINE
  8
WHITE
 10
4.168435
 20
2.617444
 30
0.000000
 11
4.155435
 21
2.629445
 31
0.000000
  6
CONTINUOUS
  0
ARC
  8
WHITE
 10
3.416870
 20
0.421111
 30
0.000000
 40
0.627559
 50
137.331252
 51
146.914720
  6
CONTINUOUS
  0
LINE
  8
WHITE
 10
2.955435
 20
0.846445
 30
0.000000
 11
2.945435
 21
0.909445
 31
0.000000
  6
CONTINUOUS
  0
LINE
  8
WHITE
 10
2.945435
 20
0.909445
 30
0.000000
 11
2.951435
 21
0.915445
 31
0.000000
  6
CONTINUOUS
  0
ARC
  8
WHITE
 10
2.905441
 20
0.742152
 30
0.000000
 40
0.179293
 50
-0.572746
 51
75.135613
  6
CONTINUOUS
  0
ARC
  8
WHITE
 10
2.051435
 20
0.616445
 30
0.000000
 40
1.040693
 50
-2.092600
 51
6.838414
  6
CONTINUOUS
  0
ARC
  8
WHITE
 10
2.978689
 20
0.965587
 30
0.000000
 40
0.403226
 50
-100.756047
 51
-73.763187
  6
CONTINUOUS
  0
ARC
  8
WHITE
 10
2.785976
 20
0.965453
 30
0.000000
 40
0.413059
 50
-90.907354
 51
-73.479116
  6
CONTINUOUS
  0
LINE
  8
WHITE
 10
2.779435
 20
0.552445
 30
0.000000
 11
2.784435
 21
0.579445
 31
0.000000
  6
CONTINUOUS
  0
LINE
  8
WHITE
 10
2.784435
 20
0.579445
 30
0.000000
 11
2.810435
 21
0.583445
 31
0.000000
  6
CONTINUOUS
  0
ARC
  8
WHITE
 10
3.416471
 20
0.420500
 30
0.000000
 40
0.627559
 50
146.848138
 51
164.950814
  6
CONTINUOUS
  0
LINE
  8
WHITE
 10
4.162435
 20
2.551445
 30
0.000000
 11
4.190435
 21
2.542444
 31
0.000000
  6
CONTINUOUS
  0
LINE
  8
WHITE
 10
4.190435
 20
2.542444
 30
0.000000
 11
4.213435
 21
2.433444
 31
0.000000
  6
CONTINUOUS
  0
LINE
  8
WHITE
 10
4.213435
 20
2.433444
 30
0.000000
 11
4.215435
 21
2.427444
 31
0.000000
  6
CONTINUOUS
  0
LINE
  8
WHITE
 10
4.215435
 20
2.427444
 30
0.000000
 11
4.212034
 21
2.421125
 31
0.000000
  6
CONTINUOUS
  0
ARC
  8
WHITE
 10
3.967435
 20
2.226444
 30
0.000000
 40
0.312617
 50
38.517040
 51
69.594112
  6
CONTINUOUS
  0
LINE
  8
WHITE
 10
4.076435
 20
2.519444
 30
0.000000
 11
4.080435
 21
2.537444
 31
0.000000
  6
CONTINUOUS
  0
LINE
  8
WHITE
 10
4.080435
 20
2.537444
 30
0.000000
 11
4.037435
 21
2.540444
 31
0.000000
  6
CONTINUOUS
  0
LINE
  8
WHITE
 10
4.037435
 20
2.540444
 30
0.000000
 11
3.963435
 21
2.573444
 31
0.000000
  6
CONTINUOUS
  0
LINE
  8
WHITE
 10
3.963435
 20
2.573444
 30
0.000000
 11
4.100435
 21
2.572444
 31
0.000000
  6
CONTINUOUS
  0
LINE
  8
WHITE
 10
4.100435
 20
2.572444
 30
0.000000
 11
4.162435
 21
2.551445
 31
0.000000
  6
CONTINUOUS
  0
ENDSEC
  0
EOF
