  0
SECTION
  2
HEADER
  9
$ACADVER
  1
AC1009
  9
$DWGCODEPAGE
  3
ansi_1252
  9
$INSBASE
 10
0.0
 20
0.0
 30
0.0
  9
$EXTMIN
 10
0.0550924752694549
 20
0.0314479598264298
 30
0.0
  9
$EXTMAX
 10
2.108618224896925
 20
3.689465835791012
 30
0.0
  9
$LIMMIN
 10
0.0
 20
0.0
  9
$LIMMAX
 10
12.0
 20
9.0
  9
$ORTHOMODE
 70
     0
  9
$REGENMODE
 70
     1
  9
$FILLMODE
 70
     1
  9
$QTEXTMODE
 70
     0
  9
$MIRRTEXT
 70
     1
  9
$DRAGMODE
 70
     2
  9
$LTSCALE
 40
1.0
  9
$OSMODE
 70
    37
  9
$ATTMODE
 70
     1
  9
$TEXTSIZE
 40
0.2
  9
$TRACEWID
 40
0.05
  9
$TEXTSTYLE
  7
STANDARD
  9
$CLAYER
  8
0
  9
$CELTYPE
  6
BYBLOCK
  9
$CECOLOR
 62
   256
  9
$DIMSCALE
 40
1.0
  9
$DIMASZ
 40
0.18
  9
$DIMEXO
 40
0.0625
  9
$DIMDLI
 40
0.38
  9
$DIMRND
 40
0.0
  9
$DIMDLE
 40
0.0
  9
$DIMEXE
 40
0.18
  9
$DIMTP
 40
0.0
  9
$DIMTM
 40
0.0
  9
$DIMTXT
 40
0.18
  9
$DIMCEN
 40
0.09
  9
$DIMTSZ
 40
0.0
  9
$DIMTOL
 70
     0
  9
$DIMLIM
 70
     0
  9
$DIMTIH
 70
     1
  9
$DIMTOH
 70
     1
  9
$DIMSE1
 70
     0
  9
$DIMSE2
 70
     0
  9
$DIMTAD
 70
     0
  9
$DIMZIN
 70
     0
  9
$DIMBLK
  1

  9
$DIMASO
 70
     1
  9
$DIMSHO
 70
     1
  9
$DIMPOST
  1

  9
$DIMAPOST
  1

  9
$DIMALT
 70
     0
  9
$DIMALTD
 70
     2
  9
$DIMALTF
 40
25.4
  9
$DIMLFAC
 40
1.0
  9
$DIMTOFL
 70
     0
  9
$DIMTVP
 40
0.0
  9
$DIMTIX
 70
     0
  9
$DIMSOXD
 70
     0
  9
$DIMSAH
 70
     0
  9
$DIMBLK1
  1

  9
$DIMBLK2
  1

  9
$DIMSTYLE
  2
STANDARD
  9
$DIMCLRD
 70
     0
  9
$DIMCLRE
 70
     0
  9
$DIMCLRT
 70
     0
  9
$DIMTFAC
 40
1.0
  9
$DIMGAP
 40
0.09
  9
$LUNITS
 70
     2
  9
$LUPREC
 70
     4
  9
$SKETCHINC
 40
0.1
  9
$FILLETRAD
 40
0.5
  9
$AUNITS
 70
     0
  9
$AUPREC
 70
     0
  9
$MENU
  1
.
  9
$ELEVATION
 40
0.0
  9
$PELEVATION
 40
0.0
  9
$THICKNESS
 40
0.0
  9
$LIMCHECK
 70
     0
  9
$CHAMFERA
 40
0.5
  9
$CHAMFERB
 40
0.5
  9
$SKPOLY
 70
     0
  9
$TDCREATE
 40
2453353.508792488
  9
$TDUPDATE
 40
2440763.858844445
  9
$TDINDWG
 40
2440772.066245926
  9
$TDUSRTIMER
 40
2440772.066245926
  9
$USRTIMER
 70
     1
  9
$ANGBASE
 50
0.0
  9
$ANGDIR
 70
     0
  9
$PDMODE
 70
     0
  9
$PDSIZE
 40
0.0
  9
$PLINEWID
 40
0.0
  9
$COORDS
 70
     1
  9
$SPLFRAME
 70
     0
  9
$SPLINETYPE
 70
     6
  9
$SPLINESEGS
 70
     8
  9
$ATTDIA
 70
     0
  9
$ATTREQ
 70
     1
  9
$HANDLING
 70
     1
  9
$HANDSEED
  5
32C
  9
$SURFTAB1
 70
     6
  9
$SURFTAB2
 70
     6
  9
$SURFTYPE
 70
     6
  9
$SURFU
 70
     6
  9
$SURFV
 70
     6
  9
$UCSNAME
  2

  9
$UCSORG
 10
0.0
 20
0.0
 30
0.0
  9
$UCSXDIR
 10
1.0
 20
0.0
 30
0.0
  9
$UCSYDIR
 10
0.0
 20
1.0
 30
0.0
  9
$PUCSNAME
  2

  9
$PUCSORG
 10
0.0
 20
0.0
 30
0.0
  9
$PUCSXDIR
 10
1.0
 20
0.0
 30
0.0
  9
$PUCSYDIR
 10
0.0
 20
1.0
 30
0.0
  9
$USERI1
 70
     0
  9
$USERI2
 70
     0
  9
$USERI3
 70
     0
  9
$USERI4
 70
     0
  9
$USERI5
 70
     0
  9
$USERR1
 40
0.0
  9
$USERR2
 40
0.0
  9
$USERR3
 40
0.0
  9
$USERR4
 40
0.0
  9
$USERR5
 40
0.0
  9
$WORLDVIEW
 70
     1
  9
$SHADEDGE
 70
     3
  9
$SHADEDIF
 70
    70
  9
$TILEMODE
 70
     1
  9
$MAXACTVP
 70
    64
  9
$PLIMCHECK
 70
     0
  9
$PEXTMIN
 10
0.0
 20
0.0
 30
0.0
  9
$PEXTMAX
 10
0.0
 20
0.0
 30
0.0
  9
$PLIMMIN
 10
0.0
 20
0.0
  9
$PLIMMAX
 10
0.0
 20
0.0
  9
$UNITMODE
 70
     0
  9
$VISRETAIN
 70
     1
  9
$PLINEGEN
 70
     0
  9
$PSLTSCALE
 70
     1
  0
ENDSEC
  0
SECTION
  2
TABLES
  0
TABLE
  2
VPORT
 70
     1
  0
VPORT
  2
*ACTIVE
 70
     0
 10
0.0
 20
0.0
 11
1.0
 21
1.0
 12
1.288479935685043
 22
1.953492554126753
 13
0.0
 23
0.0
 14
0.5
 24
0.5
 15
0.5
 25
0.5
 16
0.0
 26
0.0
 36
1.0
 17
0.0
 27
0.0
 37
0.0
 40
4.783089112982293
 41
1.972972972850329
 42
50.0
 43
0.0
 44
0.0
 50
0.0
 51
0.0
 71
    16
 72
   100
 73
     1
 74
     1
 75
     0
 76
     0
 77
     0
 78
     0
  0
ENDTAB
  0
TABLE
  2
LTYPE
 70
     1
  0
LTYPE
  2
CONTINUOUS
 70
     0
  3
Solid line
 72
    65
 73
     0
 40
0.0
  0
ENDTAB
  0
TABLE
  2
LAYER
 70
     2
  0
LAYER
  2
0
 70
     0
 62
     7
  6
CONTINUOUS
  0
LAYER
  2
LAYER_1
 70
     0
 62
     7
  6
CONTINUOUS
  0
ENDTAB
  0
TABLE
  2
STYLE
 70
     1
  0
STYLE
  2
STANDARD
 70
     0
 40
0.0
 41
1.0
 50
0.0
 71
     0
 42
0.2
  3
txt
  4

  0
ENDTAB
  0
TABLE
  2
VIEW
 70
     0
  0
ENDTAB
  0
TABLE
  2
UCS
 70
     0
  0
ENDTAB
  0
TABLE
  2
APPID
 70
     1
  0
APPID
  2
ACAD
 70
     0
  0
ENDTAB
  0
TABLE
  2
DIMSTYLE
 70
     1
  0
DIMSTYLE
  2
STANDARD
 70
     0
  3

  4

  5

  6

  7

 40
1.0
 41
0.18
 42
0.0625
 43
0.38
 44
0.18
 45
0.0
 46
0.0
 47
0.0
 48
0.0
140
0.18
141
0.09
142
0.0
143
25.4
144
1.0
145
0.0
146
1.0
147
0.09
 71
     0
 72
     0
 73
     1
 74
     1
 75
     0
 76
     0
 77
     0
 78
     0
170
     0
171
     2
172
     0
173
     0
174
     0
175
     0
176
     0
177
     0
178
     0
  0
ENDTAB
  0
ENDSEC
  0
SECTION
  2
BLOCKS
  0
BLOCK
  8
0
  2
$MODEL_SPACE
 70
     0
 10
0.0
 20
0.0
 30
0.0
  3
$MODEL_SPACE
  1

  0
ENDBLK
  5
21
  8
0
  0
BLOCK
 67
     1
  8
0
  2
$PAPER_SPACE
 70
     0
 10
0.0
 20
0.0
 30
0.0
  3
$PAPER_SPACE
  1

  0
ENDBLK
  5
76
 67
     1
  8
0
  0
ENDSEC
  0
SECTION
  2
ENTITIES
  0
LINE
  5
263
  8
0
 62
     2
 10
0.960842719407314
 20
0.1616571522230597
 30
0.0
 11
0.9611714621991704
 21
0.2209781023954047
 31
0.0
  0
LINE
  5
264
  8
0
 62
     2
 10
0.9611714621991704
 20
0.2209781023954047
 30
0.0
 11
1.084436262199171
 21
0.2209781023954047
 31
0.0
  0
LINE
  5
265
  8
0
 62
     2
 10
1.084436262199171
 20
0.2209781023954047
 30
0.0
 11
1.207151974897011
 21
0.2212245776149059
 31
0.0
  0
LINE
  5
266
  8
0
 62
     2
 10
1.207151974897011
 20
0.2212245776149059
 30
0.0
 11
1.207521877093117
 21
0.1647214895856163
 31
0.0
  0
LINE
  5
267
  8
0
 62
     2
 10
1.483312239723207
 20
0.1708501643107294
 30
0.0
 11
1.483489129024311
 21
0.2730915347603804
 31
0.0
  0
LINE
  5
268
  8
0
 62
     2
 10
1.483489129024311
 20
0.2730915347603804
 30
0.0
 11
1.572638112199167
 21
0.3120240523953992
 31
0.0
  0
LINE
  5
269
  8
0
 62
     2
 10
1.572638112199167
 20
0.3120240523953992
 30
0.0
 11
1.68410346219917
 21
0.3828499023954048
 31
0.0
  0
LINE
  5
26A
  8
0
 62
     2
 10
1.68410346219917
 20
0.3828499023954048
 30
0.0
 11
1.803131312199165
 21
0.4706568523953916
 31
0.0
  0
LINE
  5
26B
  8
0
 62
     2
 10
1.803131312199165
 20
0.4706568523953916
 30
0.0
 11
1.892817443390345
 21
0.5529812708292485
 31
0.0
  0
LINE
  5
26C
  8
0
 62
     2
 10
1.892817443390345
 20
0.5529812708292485
 30
0.0
 11
1.969206462199163
 21
0.6560614023953928
 31
0.0
  0
LINE
  5
26D
  8
0
 62
     2
 10
1.969206462199163
 20
0.6560614023953928
 30
0.0
 11
2.038614362199164
 21
0.7914704023954027
 31
0.0
  0
LINE
  5
26E
  8
0
 62
     2
 10
2.038614362199164
 20
0.7914704023954027
 30
0.0
 11
2.067026462199161
 21
0.8695788523954047
 31
0.0
  0
LINE
  5
26F
  8
0
 62
     2
 10
2.067026462199161
 20
0.8695788523954047
 30
0.0
 11
2.087754512199164
 21
0.9481382023953966
 31
0.0
  0
LINE
  5
270
  8
0
 62
     2
 10
2.087754512199164
 20
0.9481382023953966
 30
0.0
 11
2.108618224896925
 21
1.10517196613621
 31
0.0
  0
LINE
  5
271
  8
0
 62
     2
 10
2.108618224896925
 20
1.10517196613621
 30
0.0
 11
2.096454562199166
 21
1.259552252395393
 31
0.0
  0
LINE
  5
272
  8
0
 62
     2
 10
2.096454562199166
 20
1.259552252395393
 30
0.0
 11
2.058117762199169
 21
1.408432502395398
 31
0.0
  0
LINE
  5
273
  8
0
 62
     2
 10
2.058117762199169
 20
1.408432502395398
 30
0.0
 11
1.992725312199165
 21
1.548850802395405
 31
0.0
  0
LINE
  5
274
  8
0
 62
     2
 10
1.992725312199165
 20
1.548850802395405
 30
0.0
 11
1.901328812199163
 21
1.677874152395402
 31
0.0
  0
LINE
  5
275
  8
0
 62
     2
 10
1.901328812199163
 20
1.677874152395402
 30
0.0
 11
1.784979912199172
 21
1.792569552395404
 31
0.0
  0
LINE
  5
276
  8
0
 62
     2
 10
1.784979912199172
 20
1.792569552395404
 30
0.0
 11
1.644730362199165
 21
1.890003902395405
 31
0.0
  0
LINE
  5
277
  8
0
 62
     2
 10
1.644730362199165
 20
1.890003902395405
 30
0.0
 11
1.481188794652956
 21
1.985731381307795
 31
0.0
  0
LINE
  5
278
  8
0
 62
     2
 10
1.481188794652956
 20
1.985731381307795
 30
0.0
 11
1.48217940780692
 21
3.023558135897259
 31
0.0
  0
LINE
  5
279
  8
0
 62
     2
 10
1.48217940780692
 20
3.023558135897259
 30
0.0
 11
1.612974029243314
 21
2.950313147892883
 31
0.0
  0
LINE
  5
27A
  8
0
 62
     2
 10
1.612974029243314
 20
2.950313147892883
 30
0.0
 11
1.709762049106241
 21
2.85090923560122
 31
0.0
  0
LINE
  5
27B
  8
0
 62
     2
 10
1.709762049106241
 20
2.85090923560122
 30
0.0
 11
1.777964562199168
 21
2.739511652395406
 31
0.0
  0
LINE
  5
27C
  8
0
 62
     2
 10
1.777964562199168
 20
2.739511652395406
 30
0.0
 11
1.820109162199169
 21
2.644098952395394
 31
0.0
  0
LINE
  5
27D
  8
0
 62
     2
 10
1.820109162199169
 20
2.644098952395394
 30
0.0
 11
1.838764485267135
 21
2.588663556506819
 31
0.0
  0
LINE
  5
27E
  8
0
 62
     2
 10
2.0982910586257
 20
2.668184341199021
 30
0.0
 11
2.079374062199174
 21
2.769902152395401
 31
0.0
  0
LINE
  5
27F
  8
0
 62
     2
 10
2.079374062199174
 20
2.769902152395401
 30
0.0
 11
2.047767212199171
 21
2.8736106023954
 31
0.0
  0
LINE
  5
280
  8
0
 62
     2
 10
2.047767212199171
 20
2.8736106023954
 30
0.0
 11
2.000983018266726
 21
2.973426791402613
 31
0.0
  0
LINE
  5
281
  8
0
 62
     2
 10
2.000983018266726
 20
2.973426791402613
 30
0.0
 11
1.94930200375144
 21
3.060468500059936
 31
0.0
  0
LINE
  5
282
  8
0
 62
     2
 10
1.94930200375144
 20
3.060468500059936
 30
0.0
 11
1.889460829049531
 21
3.133909941739553
 31
0.0
  0
LINE
  5
283
  8
0
 62
     2
 10
1.889460829049531
 20
3.133909941739553
 30
0.0
 11
1.803131312199165
 21
3.221005102395393
 31
0.0
  0
LINE
  5
284
  8
0
 62
     2
 10
1.803131312199165
 20
3.221005102395393
 30
0.0
 11
1.687162384493677
 21
3.310637093291269
 31
0.0
  0
LINE
  5
285
  8
0
 62
     2
 10
1.687162384493677
 20
3.310637093291269
 30
0.0
 11
1.572638112199167
 21
3.379637952395397
 31
0.0
  0
LINE
  5
286
  8
0
 62
     2
 10
1.572638112199167
 20
3.379637952395397
 30
0.0
 11
1.504656812199168
 21
3.408760352395403
 31
0.0
  0
LINE
  5
287
  8
0
 62
     2
 10
1.504656812199168
 20
3.408760352395403
 30
0.0
 11
1.481187326182559
 21
3.419523608336531
 31
0.0
  0
LINE
  5
288
  8
0
 62
     2
 10
1.481187326182559
 20
3.419523608336531
 30
0.0
 11
1.480443939268769
 21
3.518955916389621
 31
0.0
  0
LINE
  5
289
  8
0
 62
     2
 10
1.208867752603746
 20
3.547542883406992
 30
0.0
 11
1.207700912199167
 21
3.4706840023954
 31
0.0
  0
LINE
  5
28A
  8
0
 62
     2
 10
1.207700912199167
 20
3.4706840023954
 30
0.0
 11
1.084436262199171
 21
3.4706840023954
 31
0.0
  0
LINE
  5
28B
  8
0
 62
     2
 10
1.084436262199171
 20
3.4706840023954
 30
0.0
 11
0.9611714621991704
 21
3.4706840023954
 31
0.0
  0
LINE
  5
28C
  8
0
 62
     2
 10
0.9611714621991704
 20
3.4706840023954
 30
0.0
 11
0.9611140384531978
 21
3.544366553738395
 31
0.0
  0
LINE
  5
28D
  8
0
 62
     2
 10
0.6704798737765937
 20
3.517367751555323
 30
0.0
 11
0.6698185121991666
 21
3.4171943023954
 31
0.0
  0
LINE
  5
28E
  8
0
 62
     2
 10
0.6698185121991666
 20
3.4171943023954
 30
0.0
 11
0.5633627121991746
 21
3.361730402395393
 31
0.0
  0
LINE
  5
28F
  8
0
 62
     2
 10
0.5633627121991746
 20
3.361730402395393
 30
0.0
 11
0.4491075121991722
 21
3.293422702395402
 31
0.0
  0
LINE
  5
290
  8
0
 62
     2
 10
0.4491075121991722
 20
3.293422702395402
 30
0.0
 11
0.3484216121991702
 21
3.214961002395397
 31
0.0
  0
LINE
  5
291
  8
0
 62
     2
 10
0.3484216121991702
 20
3.214961002395397
 30
0.0
 11
0.2617939621991733
 21
3.127105952395395
 31
0.0
  0
LINE
  5
292
  8
0
 62
     2
 10
0.2617939621991733
 20
3.127105952395395
 30
0.0
 11
0.1897135621991689
 21
3.030618102395392
 31
0.0
  0
LINE
  5
293
  8
0
 62
     2
 10
0.1897135621991689
 20
3.030618102395392
 30
0.0
 11
0.1326693621991618
 21
2.926257902395404
 31
0.0
  0
LINE
  5
294
  8
0
 62
     2
 10
0.1326693621991618
 20
2.926257902395404
 30
0.0
 11
0.0911503121991709
 21
2.814786052395403
 31
0.0
  0
LINE
  5
295
  8
0
 62
     2
 10
0.0911503121991709
 20
2.814786052395403
 30
0.0
 11
0.0656453621991725
 21
2.696963002395405
 31
0.0
  0
LINE
  5
296
  8
0
 62
     2
 10
0.0656453621991725
 20
2.696963002395405
 30
0.0
 11
0.0566434621991713
 21
2.573549352395402
 31
0.0
  0
LINE
  5
297
  8
0
 62
     2
 10
0.0566434621991713
 20
2.573549352395402
 30
0.0
 11
0.0671916621991736
 21
2.423934852395403
 31
0.0
  0
LINE
  5
298
  8
0
 62
     2
 10
0.0671916621991736
 20
2.423934852395403
 30
0.0
 11
0.1011772621991677
 21
2.286702152395405
 31
0.0
  0
LINE
  5
299
  8
0
 62
     2
 10
0.1011772621991677
 20
2.286702152395405
 30
0.0
 11
0.1599146121991689
 21
2.158082802395397
 31
0.0
  0
LINE
  5
29A
  8
0
 62
     2
 10
0.1599146121991689
 20
2.158082802395397
 30
0.0
 11
0.2447180621991644
 21
2.034308352395398
 31
0.0
  0
LINE
  5
29B
  8
0
 62
     2
 10
0.2447180621991644
 20
2.034308352395398
 30
0.0
 11
0.3359504121991629
 21
1.941056802395393
 31
0.0
  0
LINE
  5
29C
  8
0
 62
     2
 10
0.3359504121991629
 20
1.941056802395393
 30
0.0
 11
0.4542825121991664
 21
1.844261802395392
 31
0.0
  0
LINE
  5
29D
  8
0
 62
     2
 10
0.4542825121991664
 20
1.844261802395392
 30
0.0
 11
0.5671038121991737
 21
1.768296002395401
 31
0.0
  0
LINE
  5
29E
  8
0
 62
     2
 10
0.5671038121991737
 20
1.768296002395401
 30
0.0
 11
0.611846776140292
 21
1.746124771516817
 31
0.0
  0
LINE
  5
29F
  8
0
 62
     2
 10
0.611846776140292
 20
1.746124771516817
 30
0.0
 11
0.6407516787872348
 21
1.735132766284876
 31
0.0
  0
LINE
  5
2A0
  8
0
 62
     2
 10
0.6407516787872348
 20
1.735132766284876
 30
0.0
 11
0.6699409952377244
 21
1.732180023531123
 31
0.0
  0
LINE
  5
2A1
  8
0
 62
     2
 10
0.6699409952377244
 20
1.732180023531123
 30
0.0
 11
0.6698185121991666
 21
1.212974502395396
 31
0.0
  0
LINE
  5
2A2
  8
0
 62
     2
 10
0.6698185121991666
 20
1.212974502395396
 30
0.0
 11
0.6698185121991666
 21
0.6884416523953956
 31
0.0
  0
LINE
  5
2A3
  8
0
 62
     2
 10
0.6698185121991666
 20
0.6884416523953956
 30
0.0
 11
0.5996051621991635
 21
0.7222427023954037
 31
0.0
  0
LINE
  5
2A4
  8
0
 62
     2
 10
0.5996051621991635
 20
0.7222427023954037
 30
0.0
 11
0.5588592121991619
 21
0.7484065023953956
 31
0.0
  0
LINE
  5
2A5
  8
0
 62
     2
 10
0.5588592121991619
 20
0.7484065023953956
 30
0.0
 11
0.5149691621991744
 21
0.7875871023954044
 31
0.0
  0
LINE
  5
2A6
  8
0
 62
     2
 10
0.5149691621991744
 20
0.7875871023954044
 30
0.0
 11
0.4283310121991614
 21
0.8903433023953919
 31
0.0
  0
LINE
  5
2A7
  8
0
 62
     2
 10
0.4283310121991614
 20
0.8903433023953919
 30
0.0
 11
0.3608391121991682
 21
1.001200902395395
 31
0.0
  0
LINE
  5
2A8
  8
0
 62
     2
 10
0.3608391121991682
 20
1.001200902395395
 30
0.0
 11
0.340882012199169
 21
1.050508152395393
 31
0.0
  0
LINE
  5
2A9
  8
0
 62
     2
 10
0.340882012199169
 20
1.050508152395393
 30
0.0
 11
0.3246238129213401
 21
1.096451621693005
 31
0.0
  0
LINE
  5
2AB
  8
0
 62
     2
 10
0.0550924752694553
 20
1.017784580560158
 30
0.0
 11
0.0858931121991683
 21
0.8877543523954028
 31
0.0
  0
LINE
  5
2AC
  8
0
 62
     2
 10
0.0858931121991683
 20
0.8877543523954028
 30
0.0
 11
0.1395298058401752
 21
0.7580518435438962
 31
0.0
  0
LINE
  5
2AD
  8
0
 62
     2
 10
0.1395298058401752
 20
0.7580518435438962
 30
0.0
 11
0.2149449014705635
 21
0.6331842261886631
 31
0.0
  0
LINE
  5
2AE
  8
0
 62
     2
 10
0.2149449014705635
 20
0.6331842261886631
 30
0.0
 11
0.3064320666615263
 21
0.5231523653508835
 31
0.0
  0
LINE
  5
2AF
  8
0
 62
     2
 10
0.3064320666615263
 20
0.5231523653508835
 30
0.0
 11
0.4183230121991622
 21
0.4215192023954
 31
0.0
  0
LINE
  5
2B0
  8
0
 62
     2
 10
0.4183230121991622
 20
0.4215192023954
 30
0.0
 11
0.5409509121991741
 21
0.3423353523953931
 31
0.0
  0
LINE
  5
2B1
  8
0
 62
     2
 10
0.5409509121991741
 20
0.3423353523953931
 30
0.0
 11
0.6698185121991666
 21
0.2753301523953962
 31
0.0
  0
LINE
  5
2B2
  8
0
 62
     2
 10
0.6698185121991666
 20
0.2753301523953962
 30
0.0
 11
0.6697306699644411
 21
0.1616571522230597
 31
0.0
  0
LINE
  5
2B3
  8
0
 62
     2
 10
0.9611409621991621
 20
1.126253302395396
 30
0.0
 11
0.961110362199174
 21
1.660133502395395
 31
0.0
  0
LINE
  5
2B4
  8
0
 62
     2
 10
0.961110362199174
 20
1.660133502395395
 30
0.0
 11
1.084405612199172
 21
1.6495318023954
 31
0.0
  0
LINE
  5
2B5
  8
0
 62
     2
 10
1.084405612199172
 20
1.6495318023954
 30
0.0
 11
1.207700912199167
 21
1.638930002395396
 31
0.0
  0
LINE
  5
2B6
  8
0
 62
     2
 10
1.207700912199167
 20
1.638930002395396
 30
0.0
 11
1.207700912199167
 21
1.115651452395396
 31
0.0
  0
LINE
  5
2B7
  8
0
 62
     2
 10
1.207700912199167
 20
1.115651452395396
 30
0.0
 11
1.207700912199167
 21
0.592372952395392
 31
0.0
  0
LINE
  5
2B8
  8
0
 62
     2
 10
1.207700912199167
 20
0.592372952395392
 30
0.0
 11
1.084436262199171
 21
0.592372952395392
 31
0.0
  0
LINE
  5
2B9
  8
0
 62
     2
 10
1.084436262199171
 20
0.592372952395392
 30
0.0
 11
0.9611714621991704
 21
0.592372952395392
 31
0.0
  0
LINE
  5
2BA
  8
0
 62
     2
 10
0.9611714621991704
 20
0.592372952395392
 30
0.0
 11
0.9611409621991621
 21
1.126253302395396
 31
0.0
  0
LINE
  5
2BB
  8
0
 62
     2
 10
0.9611409621991621
 20
1.126253302395396
 30
0.0
 11
0.9611409621991621
 21
1.126253302395396
 31
0.0
  0
LINE
  5
2BC
  8
0
 62
     2
 10
1.47642234986801
 20
0.6813124946947572
 30
0.0
 11
1.476298054924679
 21
1.559497934255803
 31
0.0
  0
LINE
  5
2BD
  8
0
 62
     2
 10
1.476642162199165
 20
1.116430102395396
 30
0.0
 11
1.476642162199165
 21
1.116430102395396
 31
0.0
  0
LINE
  5
2BE
  8
0
 62
     2
 10
1.056421462199163
 20
2.038715102395399
 30
0.0
 11
0.9611714621991704
 21
2.050562402395398
 31
0.0
  0
LINE
  5
2BF
  8
0
 62
     2
 10
0.9611714621991704
 20
2.050562402395398
 30
0.0
 11
0.9611714621991704
 21
2.574925602395394
 31
0.0
  0
LINE
  5
2C0
  8
0
 62
     2
 10
0.9611714621991704
 20
2.574925602395394
 30
0.0
 11
0.9611714621991704
 21
3.099289002395393
 31
0.0
  0
LINE
  5
2C1
  8
0
 62
     2
 10
0.9611714621991704
 20
3.099289002395393
 30
0.0
 11
1.084436262199171
 21
3.099289002395393
 31
0.0
  0
LINE
  5
2C2
  8
0
 62
     2
 10
1.084436262199171
 20
3.099289002395393
 30
0.0
 11
1.207700912199167
 21
3.099289002395393
 31
0.0
  0
LINE
  5
2C3
  8
0
 62
     2
 10
1.207700912199167
 20
3.099289002395393
 30
0.0
 11
1.207700912199167
 21
2.557671402395398
 31
0.0
  0
LINE
  5
2C4
  8
0
 62
     2
 10
1.207700912199167
 20
2.557671402395398
 30
0.0
 11
1.209859233578111
 21
2.019753703586505
 31
0.0
  0
LINE
  5
2C5
  8
0
 62
     2
 10
1.209859233578111
 20
2.019753703586505
 30
0.0
 11
1.179686262199164
 21
2.021460752395397
 31
0.0
  0
LINE
  5
2C6
  8
0
 62
     2
 10
1.179686262199164
 20
2.021460752395397
 30
0.0
 11
1.056421462199163
 21
2.038715102395399
 31
0.0
  0
LINE
  5
2C7
  8
0
 62
     2
 10
1.056421462199163
 20
2.038715102395399
 30
0.0
 11
1.056421462199163
 21
2.038715102395399
 31
0.0
  0
LINE
  5
2C8
  8
0
 62
     2
 10
0.6700315055194672
 20
3.011646365667759
 30
0.0
 11
0.6702329922459904
 21
2.127417892470185
 31
0.0
  0
ARC
  5
2CE
  8
0
  6
BYBLOCK
 62
     2
 10
1.294770105622409
 20
1.120379512920949
 30
0.0
 40
0.4751603774869096
 50
292.4760182835843
 51
67.54020055881338
  0
ARC
  5
2CF
  8
0
  6
BYBLOCK
 62
     2
 10
0.9050062368333728
 20
2.569585649162943
 30
0.0
 40
0.5006304040235602
 50
117.9926110526409
 51
242.0335006124045
  0
ARC
  5
301
  8
0
  6
BYBLOCK
 62
     2
 10
0.8168775316111584
 20
3.51923507524591
 30
0.0
 40
0.1464095663445929
 50
9.883877220306918
 51
180.7307764783554
  0
ARC
  5
304
  8
0
  6
BYBLOCK
 62
     2
 10
1.344183796942688
 20
3.528764934459394
 30
0.0
 40
0.1366127491203401
 50
355.8825265341708
 51
172.09946155084
  0
ARC
  5
306
  8
0
  6
BYBLOCK
 62
     2
 10
1.962478870564687
 20
2.64625297794309
 30
0.0
 40
0.1364616817678707
 50
204.9621206866063
 51
7.91863835675404
  0
ARC
  5
309
  8
0
  6
BYBLOCK
 62
     2
 10
0.1914803945588944
 20
1.051559898718863
 30
0.0
 40
0.140507781438696
 50
18.63246886248174
 51
193.9089935686079
  0
ARC
  5
30D
  8
0
  6
BYBLOCK
 62
     2
 10
0.8152866946858774
 20
0.1744792652503287
 30
0.0
 40
0.1461196869528247
 50
185.0342228813572
 51
354.9657771186429
  0
ARC
  5
310
  8
0
  6
BYBLOCK
 62
     2
 10
1.345382253777609
 20
0.1693520353230693
 30
0.0
 40
0.1379381216829368
 50
181.9237653856183
 51
0.6222946544950758
  0
ENDSEC
  0
EOF
