0
SECTION
2
HEADER
0
ENDSEC
0
SECTION
2
TABLES
0
TABLE
2
LTYPE
70
 3
0
LTYPE
 2
CONTINUOUS
 70
 64
3
Solid line
 72
65
 73
0
 40
0
0
LTYPE
 2
CENTER
 70
  64
3
-- - -- - -- - --
 72
65
 73
4
 40
1.250 
 49
0.500 
 49
-0.250
 49
0.250 
 49
-0.250
0
LTYPE
 2
PHANTOM
 70
  64
3
-- - - -- - - --
 72
65
 73
6
 40
1.750 
 49
0.500 
 49
-0.250
 49
0.250 
 49
-0.250
 49
0.250 
 49
-0.250
0
LTYPE
 2
DOT
 70
  64
3
. . . . . . .
 72
65
 73
2
 40
0.500 
 49
0.000 
 49
-0.500
0
LTYPE
 2
DASHED
 70
  64
3
- - - - - -
 72
65
 73
2
 40
1.000 
 49
0.500 
 49
-0.500
0
ENDTAB
0
TABLE
2
LAYER
70
1
0
LAYER
2
0
70
0
62
1
6
CONTINUOUS
0
ENDTAB
0
ENDSEC
0
SECTION
2
BLOCKS
0
ENDSEC
0
SECTION
2
ENTITIES
0
ARC
 8
0
 6
CONTINUOUS
 62
9
 10
9.309671
 20
17.118944
 40
0.504000
 50
162.383868
 51
172.411009
 0
ARC
 8
0
 6
CONTINUOUS
 62
9
 10
29.689214
 20
10.181111
 40
22.032000
 50
159.718523
 51
161.226902
 0
ARC
 8
0
 6
CONTINUOUS
 62
9
 10
11.188047
 20
17.017994
 40
2.308000
 50
149.294220
 51
159.716092
 0
ARC
 8
0
 6
CONTINUOUS
 62
9
 10
7.965722
 20
18.734882
 40
1.372000
 50
354.045178
 51
18.600927
 0
ARC
 8
0
 6
CONTINUOUS
 62
9
 10
13.013863
 20
20.463725
 40
3.964000
 50
190.595268
 51
199.010061
 0
LINE
 8
0
 6
CONTINUOUS
 62
9
 10
10.026099
 20
17.332582
 11
10.009249
 21
16.868457
 0
LINE
 8
0
 6
CONTINUOUS
 62
9
 10
10.280342
 20
16.954692
 11
10.026099
 21
17.332582
 0
ARC
 8
0
 6
CONTINUOUS
 62
9
 10
26.540827
 20
23.028741
 40
17.732000
 50
188.387354
 51
190.705384
 0
LINE
 8
0
 6
CONTINUOUS
 62
9
 10
9.857794
 20
19.579950
 11
10.654069
 21
20.479342
 0
ARC
 8
0
 6
CONTINUOUS
 62
9
 10
8.374321
 20
18.680110
 40
0.960000
 50
329.752790
 51
354.766528
 0
LINE
 8
0
 6
CONTINUOUS
 62
9
 10
9.371268
 20
18.721519
 11
9.857794
 21
19.579950
 0
ARC
 8
0
 6
CONTINUOUS
 62
9
 10
12.642377
 20
18.599899
 40
4.716000
 50
228.437849
 51
233.660143
 0
ARC
 8
0
 6
CONTINUOUS
 62
9
 10
11.587277
 20
17.413091
 40
3.128000
 50
226.621975
 51
228.476289
 0
ARC
 8
0
 6
CONTINUOUS
 62
9
 10
11.587277
 20
17.413091
 40
3.128000
 50
223.251836
 51
226.492556
 0
ARC
 8
0
 6
CONTINUOUS
 62
9
 10
-21.740176
 20
29.026811
 40
34.132000
 50
334.905431
 51
335.979792
 0
ARC
 8
0
 6
CONTINUOUS
 62
9
 10
9.426924
 20
15.137147
 40
0.010000
 50
335.979792
 51
46.492555
 0
ARC
 8
0
 6
CONTINUOUS
 62
9
 10
11.635430
 20
16.741622
 40
2.860000
 50
171.071363
 51
180.995136
 0
LINE
 8
0
 6
CONTINUOUS
 62
9
 10
11.429968
 20
17.946123
 11
12.754273
 21
17.509527
 0
LINE
 8
0
 6
CONTINUOUS
 62
9
 10
12.251971
 20
18.784115
 11
11.429968
 21
17.946123
 0
LINE
 8
0
 6
CONTINUOUS
 62
9
 10
11.141642
 20
18.476244
 11
12.251971
 21
18.784115
 0
LINE
 8
0
 6
CONTINUOUS
 62
9
 10
11.724009
 20
19.636748
 11
11.141642
 21
18.476244
 0
LINE
 8
0
 6
CONTINUOUS
 62
9
 10
10.648457
 20
19.180586
 11
11.724009
 21
19.636748
 0
LINE
 8
0
 6
CONTINUOUS
 62
9
 10
10.654069
 20
20.479342
 11
10.648457
 21
19.180586
 0
LINE
 8
0
 6
CONTINUOUS
 62
9
 10
10.358165
 20
17.188734
 11
10.280342
 21
16.954692
 0
LINE
 8
0
 6
CONTINUOUS
 62
9
 10
10.573720
 20
16.752678
 11
10.358165
 21
17.188734
 0
ARC
 8
0
 6
CONTINUOUS
 62
9
 10
2.374846
 20
19.488147
 40
6.692000
 50
8.196966
 51
14.337154
 0
ARC
 8
0
 6
CONTINUOUS
 62
9
 10
16.706058
 20
23.476104
 40
0.544000
 50
25.234781
 51
40.183997
 0
ARC
 8
0
 6
CONTINUOUS
 62
9
 10
16.423557
 20
23.325258
 40
0.864000
 50
11.414639
 51
26.296683
 0
ARC
 8
0
 6
CONTINUOUS
 62
9
 10
15.893235
 20
23.244790
 40
1.400000
 50
358.494227
 51
10.347309
 0
ARC
 8
0
 6
CONTINUOUS
 62
9
 10
16.940974
 20
23.220507
 40
0.352000
 50
330.891547
 51
357.964067
 0
ARC
 8
0
 6
CONTINUOUS
 62
9
 10
17.497934
 20
22.922027
 40
0.280000
 50
152.970911
 51
187.029089
 0
ARC
 8
0
 6
CONTINUOUS
 62
9
 10
17.414875
 20
22.909091
 40
0.196000
 50
186.247197
 51
222.184210
 0
ARC
 8
0
 6
CONTINUOUS
 62
9
 10
17.121255
 20
22.637482
 40
0.204000
 50
8.175034
 51
43.332742
 0
ARC
 8
0
 6
CONTINUOUS
 62
9
 10
17.144581
 20
22.644087
 40
0.180000
 50
350.342642
 51
7.149685
 0
ARC
 8
0
 6
CONTINUOUS
 62
9
 10
16.481255
 20
24.917508
 40
0.132000
 50
213.355261
 51
293.066779
 0
ARC
 8
0
 6
CONTINUOUS
 62
9
 10
16.586837
 20
24.662515
 40
0.144000
 50
42.448594
 51
111.966000
 0
ARC
 8
0
 6
CONTINUOUS
 62
9
 10
16.586107
 20
24.663320
 40
0.144000
 50
8.418954
 51
42.016233
 0
ARC
 8
0
 6
CONTINUOUS
 62
9
 10
14.449210
 20
24.348243
 40
2.304000
 50
0.373226
 51
8.389563
 0
ARC
 8
0
 6
CONTINUOUS
 62
9
 10
16.481178
 20
24.360211
 40
0.272000
 50
329.832349
 51
0.640358
 0
ARC
 8
0
 6
CONTINUOUS
 62
9
 10
16.841267
 20
24.151907
 40
0.144000
 50
150.176298
 51
209.278854
 0
ARC
 8
0
 6
CONTINUOUS
 62
9
 10
16.849618
 20
24.153316
 40
0.152000
 50
208.202676
 51
269.296327
 0
ARC
 8
0
 6
CONTINUOUS
 62
9
 10
16.843862
 20
23.753358
 40
0.248000
 50
52.953190
 51
89.101559
 0
ARC
 8
0
 6
CONTINUOUS
 62
9
 10
16.208721
 20
25.433926
 40
0.296000
 50
313.548139
 51
32.541422
 0
ARC
 8
0
 6
CONTINUOUS
 62
9
 10
16.613564
 20
25.007491
 40
0.292000
 50
133.475611
 51
213.828839
 0
ARC
 8
0
 6
CONTINUOUS
 62
9
 10
16.482374
 20
23.294635
 40
0.832000
 50
39.791951
 51
46.413099
 0
ARC
 8
0
 6
CONTINUOUS
 62
9
 10
16.482374
 20
23.294635
 40
0.832000
 50
47.980061
 51
52.116174
 0
ARC
 8
0
 6
CONTINUOUS
 62
9
 10
17.046000
 20
23.920167
 40
0.010000
 50
227.980062
 51
0.000000
 0
ARC
 8
0
 6
CONTINUOUS
 62
9
 10
24.074097
 20
-17.855126
 40
35.316000
 50
105.941070
 51
107.189034
 0
ARC
 8
0
 6
CONTINUOUS
 62
9
 10
15.844626
 20
15.622923
 40
0.180000
 50
89.919946
 51
132.607522
 0
ARC
 8
0
 6
CONTINUOUS
 62
9
 10
15.617962
 20
15.870951
 40
0.156000
 50
264.146993
 51
312.210187
 0
ARC
 8
0
 6
CONTINUOUS
 62
9
 10
15.618659
 20
15.899013
 40
0.184000
 50
212.095897
 51
264.822144
 0
ARC
 8
0
 6
CONTINUOUS
 62
9
 10
15.842813
 20
15.606933
 40
0.196000
 50
70.603522
 51
89.396480
 0
ARC
 8
0
 6
CONTINUOUS
 62
9
 10
15.296885
 20
15.704592
 40
0.192000
 50
30.226169
 51
80.420109
 0
ARC
 8
0
 6
CONTINUOUS
 62
9
 10
15.317319
 20
15.822841
 40
0.072000
 50
80.794424
 51
107.278066
 0
ARC
 8
0
 6
CONTINUOUS
 62
9
 10
14.736201
 20
15.545325
 40
0.508000
 50
353.408604
 51
21.074308
 0
ARC
 8
0
 6
CONTINUOUS
 62
9
 10
11.470496
 20
15.927580
 40
3.796000
 50
343.234983
 51
353.335166
 0
ARC
 8
0
 6
CONTINUOUS
 62
9
 10
14.540816
 20
15.079752
 40
1.040000
 50
82.939240
 51
94.553089
 0
ARC
 8
0
 6
CONTINUOUS
 62
9
 10
14.599069
 20
15.604616
 40
0.512000
 50
65.470922
 51
82.188725
 0
ARC
 8
0
 6
CONTINUOUS
 62
9
 10
14.336426
 20
15.016596
 40
1.156000
 50
49.138324
 51
65.727655
 0
ARC
 8
0
 6
CONTINUOUS
 62
9
 10
16.364745
 20
15.503246
 40
0.164000
 50
68.751188
 51
110.813624
 0
ARC
 8
0
 6
CONTINUOUS
 62
9
 10
16.242847
 20
15.829193
 40
0.184000
 50
253.959766
 51
290.229764
 0
ARC
 8
0
 6
CONTINUOUS
 62
9
 10
16.229496
 20
15.783087
 40
0.136000
 50
224.889839
 51
253.998070
 0
ARC
 8
0
 6
CONTINUOUS
 62
9
 10
15.992852
 20
15.544565
 40
0.200000
 50
45.455114
 51
64.511103
 0
ARC
 8
0
 6
CONTINUOUS
 62
9
 10
15.468248
 20
14.412169
 40
1.448000
 50
65.055906
 51
72.324231
 0
LINE
 8
0
 6
CONTINUOUS
 62
9
 10
17.165786
 20
14.794225
 11
16.343040
 21
14.297547
 0
LINE
 8
0
 6
CONTINUOUS
 62
9
 10
16.560740
 20
16.753049
 11
15.898760
 21
16.569207
 0
LINE
 8
0
 6
CONTINUOUS
 62
9
 10
15.436670
 20
16.943129
 11
15.600710
 21
17.044179
 0
LINE
 8
0
 6
CONTINUOUS
 62
9
 10
15.144045
 20
16.734778
 11
15.436670
 21
16.943129
 0
LINE
 8
0
 6
CONTINUOUS
 62
9
 10
15.401047
 20
16.510746
 11
14.862304
 21
16.565124
 0
LINE
 8
0
 6
CONTINUOUS
 62
9
 10
15.898760
 20
16.569207
 11
15.401047
 21
16.510746
 0
LINE
 8
0
 6
CONTINUOUS
 62
9
 10
15.058324
 20
16.640227
 11
15.144045
 21
16.734778
 0
LINE
 8
0
 6
CONTINUOUS
 62
9
 10
14.862304
 20
16.565124
 11
15.058324
 21
16.640227
 0
ARC
 8
0
 6
CONTINUOUS
 62
9
 10
14.481943
 20
15.709158
 40
0.408000
 50
93.327937
 51
105.252150
 0
ARC
 8
0
 6
CONTINUOUS
 62
9
 10
14.346177
 20
15.058961
 40
0.792000
 50
333.337410
 51
343.395328
 0
ARC
 8
0
 6
CONTINUOUS
 62
9
 10
13.833827
 20
15.313294
 40
1.364000
 50
325.732732
 51
333.447486
 0
ARC
 8
0
 6
CONTINUOUS
 62
9
 10
14.824076
 20
15.573244
 40
0.416000
 50
38.856379
 51
49.775649
 0
ARC
 8
0
 6
CONTINUOUS
 62
9
 10
15.540326
 20
15.042046
 40
0.884000
 50
106.049103
 51
115.539425
 0
ARC
 8
0
 6
CONTINUOUS
 62
9
 10
14.824076
 20
15.573244
 40
0.416000
 50
21.838210
 51
37.173578
 0
ARC
 8
0
 6
CONTINUOUS
 62
9
 10
15.163517
 20
15.830647
 40
0.010000
 50
115.539425
 51
217.173583
 0
LINE
 8
0
 6
CONTINUOUS
 62
9
 10
17.840777
 20
13.070832
 11
18.069214
 21
13.306748
 0
LINE
 8
0
 6
CONTINUOUS
 62
9
 10
17.631550
 20
12.989934
 11
17.840777
 21
13.070832
 0
LINE
 8
0
 6
CONTINUOUS
 62
9
 10
17.748432
 20
13.952258
 11
17.631550
 21
12.989934
 0
LINE
 8
0
 6
CONTINUOUS
 62
9
 10
17.568426
 20
13.691555
 11
17.748432
 21
13.952258
 0
LINE
 8
0
 6
CONTINUOUS
 62
9
 10
17.332587
 20
13.367586
 11
17.568426
 21
13.691555
 0
LINE
 8
0
 6
CONTINUOUS
 62
9
 10
17.095548
 20
13.336272
 11
17.332587
 21
13.367586
 0
LINE
 8
0
 6
CONTINUOUS
 62
9
 10
17.309807
 20
13.883378
 11
16.792941
 21
13.255593
 0
LINE
 8
0
 6
CONTINUOUS
 62
9
 10
17.561146
 20
14.387390
 11
17.309807
 21
13.883378
 0
LINE
 8
0
 6
CONTINUOUS
 62
9
 10
17.056000
 20
13.325728
 11
17.095548
 21
13.336272
 0
LINE
 8
0
 6
CONTINUOUS
 62
9
 10
16.792941
 20
13.255593
 11
17.056000
 21
13.325728
 0
ARC
 8
0
 6
CONTINUOUS
 62
9
 10
17.730409
 20
21.701317
 40
0.608000
 50
157.094146
 51
184.497302
 0
ARC
 8
0
 6
CONTINUOUS
 62
9
 10
6.490733
 20
24.314563
 40
10.964000
 50
348.923410
 51
351.076586
 0
ARC
 8
0
 6
CONTINUOUS
 62
9
 10
15.902010
 20
22.461116
 40
1.372000
 50
337.585242
 51
349.375159
 0
ARC
 8
0
 6
CONTINUOUS
 62
9
 10
12.467835
 20
11.251947
 40
4.440000
 50
156.237668
 51
160.611953
 0
LINE
 8
0
 6
CONTINUOUS
 62
9
 10
9.614393
 20
16.978697
 11
9.905259
 21
16.509054
 0
LINE
 8
0
 6
CONTINUOUS
 62
9
 10
12.439098
 20
16.159751
 11
11.529412
 21
15.999278
 0
LINE
 8
0
 6
CONTINUOUS
 62
9
 10
11.540658
 20
16.777143
 11
12.439098
 21
16.159751
 0
LINE
 8
0
 6
CONTINUOUS
 62
9
 10
12.754273
 20
17.509527
 11
11.540658
 21
16.777143
 0
LINE
 8
0
 6
CONTINUOUS
 62
9
 10
12.978364
 20
15.670678
 11
12.795999
 21
15.719081
 0
LINE
 8
0
 6
CONTINUOUS
 62
9
 10
10.009249
 20
16.868457
 11
9.614393
 21
16.978697
 0
ARC
 8
0
 6
CONTINUOUS
 62
9
 10
11.640412
 20
15.720594
 40
0.948000
 50
243.471027
 51
248.456491
 0
ARC
 8
0
 6
CONTINUOUS
 62
9
 10
13.621749
 20
20.588890
 40
6.204000
 50
247.946303
 51
249.866270
 0
ARC
 8
0
 6
CONTINUOUS
 62
9
 10
28.712377
 20
-30.612000
 40
48.884000
 50
108.215571
 51
108.775708
 0
LINE
 8
0
 6
CONTINUOUS
 62
9
 10
3.623405
 20
3.871900
 11
4.311086
 21
4.201493
 0
LINE
 8
0
 6
CONTINUOUS
 62
9
 10
2.942432
 20
3.626420
 11
3.623405
 21
3.871900
 0
LINE
 8
0
 6
CONTINUOUS
 62
9
 10
2.278358
 20
3.499812
 11
2.942432
 21
3.626420
 0
LINE
 8
0
 6
CONTINUOUS
 62
9
 10
1.452062
 20
3.535844
 11
2.278358
 21
3.499812
 0
LINE
 8
0
 6
CONTINUOUS
 62
9
 10
0.616260
 20
3.610108
 11
1.452062
 21
3.535844
 0
LINE
 8
0
 6
CONTINUOUS
 62
9
 10
1.288907
 20
3.739266
 11
0.616260
 21
3.610108
 0
LINE
 8
0
 6
CONTINUOUS
 62
9
 10
1.845927
 20
3.880689
 11
1.288907
 21
3.739266
 0
LINE
 8
0
 6
CONTINUOUS
 62
9
 10
2.112815
 20
4.219492
 11
1.845927
 21
3.880689
 0
LINE
 8
0
 6
CONTINUOUS
 62
9
 10
1.632457
 20
4.328562
 11
2.112815
 21
4.219492
 0
LINE
 8
0
 6
CONTINUOUS
 62
9
 10
1.317547
 20
4.408459
 11
1.632457
 21
4.328562
 0
LINE
 8
0
 6
CONTINUOUS
 62
9
 10
0.916887
 20
4.600958
 11
1.317547
 21
4.408459
 0
LINE
 8
0
 6
CONTINUOUS
 62
9
 10
0.499756
 20
4.930397
 11
0.916887
 21
4.600958
 0
LINE
 8
0
 6
CONTINUOUS
 62
9
 10
1.304986
 20
4.751858
 11
0.499756
 21
4.930397
 0
LINE
 8
0
 6
CONTINUOUS
 62
9
 10
2.069654
 20
4.665766
 11
1.304986
 21
4.751858
 0
LINE
 8
0
 6
CONTINUOUS
 62
9
 10
2.895246
 20
4.694846
 11
2.069654
 21
4.665766
 0
LINE
 8
0
 6
CONTINUOUS
 62
9
 10
2.473272
 20
4.858609
 11
2.895246
 21
4.694846
 0
LINE
 8
0
 6
CONTINUOUS
 62
9
 10
1.989422
 20
5.086084
 11
2.473272
 21
4.858609
 0
LINE
 8
0
 6
CONTINUOUS
 62
9
 10
1.439290
 20
5.398358
 11
1.989422
 21
5.086084
 0
LINE
 8
0
 6
CONTINUOUS
 62
9
 10
1.125036
 20
5.758397
 11
1.439290
 21
5.398358
 0
LINE
 8
0
 6
CONTINUOUS
 62
9
 10
1.919410
 20
5.334008
 11
1.125036
 21
5.758397
 0
ARC
 8
0
 6
CONTINUOUS
 62
9
 10
6.382618
 20
16.291928
 40
11.832000
 50
247.838714
 51
251.129199
 0
ARC
 8
0
 6
CONTINUOUS
 62
9
 10
3.613881
 20
8.183614
 40
3.264000
 50
251.083573
 51
257.367757
 0
ARC
 8
0
 6
CONTINUOUS
 62
9
 10
4.217541
 20
10.802981
 40
5.952000
 50
257.211701
 51
263.491322
 0
ARC
 8
0
 6
CONTINUOUS
 62
9
 10
3.663965
 20
6.063113
 40
1.180000
 50
264.109236
 51
278.200080
 0
ARC
 8
0
 6
CONTINUOUS
 62
9
 10
3.729894
 20
5.773229
 40
0.884000
 50
276.650255
 51
290.848743
 0
ARC
 8
0
 6
CONTINUOUS
 62
9
 10
2.221925
 20
9.443785
 40
4.852000
 50
292.063643
 51
298.068171
 0
LINE
 8
0
 6
CONTINUOUS
 62
9
 10
16.284703
 20
20.554738
 11
16.544892
 21
20.740377
 0
ARC
 8
0
 6
CONTINUOUS
 62
9
 10
17.260678
 20
22.882538
 40
2.736000
 50
245.588877
 51
252.081355
 0
LINE
 8
0
 6
CONTINUOUS
 62
9
 10
16.059244
 20
20.566061
 11
16.284703
 21
20.554738
 0
LINE
 8
0
 6
CONTINUOUS
 62
9
 10
15.739719
 20
20.504612
 11
16.059244
 21
20.566061
 0
ARC
 8
0
 6
CONTINUOUS
 62
9
 10
15.536127
 20
20.850534
 40
0.420000
 50
211.320411
 51
253.515530
 0
ARC
 8
0
 6
CONTINUOUS
 62
9
 10
15.514694
 20
20.773444
 40
0.340000
 50
253.292675
 51
288.894763
 0
ARC
 8
0
 6
CONTINUOUS
 62
9
 10
15.778889
 20
20.031100
 40
0.448000
 50
82.661005
 51
110.118079
 0
ARC
 8
0
 6
CONTINUOUS
 62
9
 10
15.700438
 20
19.448352
 40
1.036000
 50
65.507251
 51
82.474732
 0
ARC
 8
0
 6
CONTINUOUS
 62
9
 10
17.319597
 20
21.669998
 40
0.196000
 50
184.786752
 51
230.165600
 0
ARC
 8
0
 6
CONTINUOUS
 62
9
 10
17.107636
 20
21.414469
 40
0.136000
 50
342.577208
 51
50.552894
 0
ARC
 8
0
 6
CONTINUOUS
 62
9
 10
17.173251
 20
21.396319
 40
0.068000
 50
269.385885
 51
340.614103
 0
ARC
 8
0
 6
CONTINUOUS
 62
9
 10
17.170359
 20
21.256355
 40
0.072000
 50
88.278166
 51
157.771974
 0
ARC
 8
0
 6
CONTINUOUS
 62
9
 10
17.263578
 20
21.209985
 40
0.176000
 50
155.277452
 51
224.492868
 0
ARC
 8
0
 6
CONTINUOUS
 62
9
 10
16.966661
 20
20.748216
 40
0.144000
 50
59.682493
 51
100.317509
 0
ARC
 8
0
 6
CONTINUOUS
 62
9
 10
17.088329
 20
19.993941
 40
0.908000
 50
99.346201
 51
110.204078
 0
ARC
 8
0
 6
CONTINUOUS
 62
9
 10
17.468603
 20
19.034400
 40
1.940000
 50
110.956724
 51
118.433581
 0
LINE
 8
0
 6
CONTINUOUS
 62
9
 10
14.514152
 20
20.741021
 11
14.385338
 21
20.609390
 0
ARC
 8
0
 6
CONTINUOUS
 62
9
 10
15.113401
 20
18.988650
 40
1.852000
 50
99.507558
 51
108.878857
 0
ARC
 8
0
 6
CONTINUOUS
 62
9
 10
14.856392
 20
20.503017
 40
0.316000
 50
75.347744
 51
98.902293
 0
ARC
 8
0
 6
CONTINUOUS
 62
9
 10
14.840112
 20
20.424606
 40
0.396000
 50
31.617554
 51
75.938514
 0
ARC
 8
0
 6
CONTINUOUS
 62
9
 10
18.057538
 20
25.104609
 40
5.096000
 50
251.243126
 51
254.506837
 0
ARC
 8
0
 6
CONTINUOUS
 62
9
 10
16.134678
 20
18.058400
 40
2.208000
 50
67.596647
 51
75.265071
 0
ARC
 8
0
 6
CONTINUOUS
 62
9
 10
15.297111
 20
16.045713
 40
4.388000
 50
62.635389
 51
67.501776
 0
ARC
 8
0
 6
CONTINUOUS
 62
9
 10
17.160381
 20
19.652924
 40
0.328000
 50
44.809173
 51
62.060724
 0
ARC
 8
0
 6
CONTINUOUS
 62
9
 10
16.914098
 20
19.395789
 40
0.684000
 50
27.463649
 51
45.551221
 0
ARC
 8
0
 6
CONTINUOUS
 62
9
 10
16.884271
 20
19.383804
 40
0.716000
 50
9.672006
 51
27.213851
 0
ARC
 8
0
 6
CONTINUOUS
 62
9
 10
17.313038
 20
19.463593
 40
0.280000
 50
331.682292
 51
8.317699
 0
ARC
 8
0
 6
CONTINUOUS
 62
9
 10
17.781199
 20
19.210908
 40
0.252000
 50
151.598344
 51
193.491268
 0
ARC
 8
0
 6
CONTINUOUS
 62
9
 10
17.754340
 20
19.202817
 40
0.224000
 50
193.081593
 51
226.978920
 0
ARC
 8
0
 6
CONTINUOUS
 62
9
 10
17.232162
 20
18.628825
 40
0.552000
 50
34.678964
 51
48.001419
 0
ARC
 8
0
 6
CONTINUOUS
 62
9
 10
11.300157
 20
14.569421
 40
7.740000
 50
32.730109
 51
34.405698
 0
ARC
 8
0
 6
CONTINUOUS
 62
9
 10
17.793412
 20
18.745264
 40
0.020000
 50
350.000012
 51
26.869898
 0
ARC
 8
0
 6
CONTINUOUS
 62
9
 10
17.637116
 20
18.743449
 40
0.176000
 50
307.425640
 51
359.460207
 0
ARC
 8
0
 6
CONTINUOUS
 62
9
 10
17.987324
 20
18.296280
 40
0.392000
 50
128.354759
 51
150.245789
 0
ARC
 8
0
 6
CONTINUOUS
 62
9
 10
20.350774
 20
16.949986
 40
3.112000
 50
150.321863
 51
154.188788
 0
ARC
 8
0
 6
CONTINUOUS
 62
9
 10
17.740119
 20
18.212714
 40
0.212000
 50
154.202845
 51
169.536948
 0
ARC
 8
0
 6
CONTINUOUS
 62
9
 10
17.943797
 20
18.170408
 40
0.420000
 50
168.907423
 51
183.772961
 0
LINE
 8
0
 6
CONTINUOUS
 62
9
 10
15.476536
 20
18.528289
 11
14.939193
 21
18.521494
 0
LINE
 8
0
 6
CONTINUOUS
 62
9
 10
15.800495
 20
18.361500
 11
15.476536
 21
18.528289
 0
LINE
 8
0
 6
CONTINUOUS
 62
9
 10
14.292892
 20
18.887280
 11
14.056081
 21
18.880296
 0
LINE
 8
0
 6
CONTINUOUS
 62
9
 10
14.375863
 20
18.758922
 11
14.292892
 21
18.887280
 0
LINE
 8
0
 6
CONTINUOUS
 62
9
 10
14.503318
 20
18.675523
 11
14.375863
 21
18.758922
 0
LINE
 8
0
 6
CONTINUOUS
 62
9
 10
14.939193
 20
18.521494
 11
14.503318
 21
18.675523
 0
ARC
 8
0
 6
CONTINUOUS
 62
9
 10
17.034781
 20
20.986264
 40
0.144000
 50
316.623856
 51
44.191580
 0
ARC
 8
0
 6
CONTINUOUS
 62
9
 10
17.080310
 20
20.941242
 40
0.080000
 50
239.203415
 51
317.666470
 0
LINE
 8
0
 6
CONTINUOUS
 62
9
 10
13.961631
 20
28.226690
 11
13.450177
 21
28.666179
 0
ARC
 8
0
 6
CONTINUOUS
 62
9
 10
14.161613
 20
27.501768
 40
0.752000
 50
88.783027
 51
105.422433
 0
ARC
 8
0
 6
CONTINUOUS
 62
9
 10
14.169059
 20
28.045773
 40
0.208000
 50
56.088718
 51
87.651073
 0
ARC
 8
0
 6
CONTINUOUS
 62
9
 10
14.202928
 20
28.095303
 40
0.148000
 50
354.452448
 51
56.272481
 0
ARC
 8
0
 6
CONTINUOUS
 62
9
 10
14.505348
 20
28.064385
 40
0.156000
 50
173.887682
 51
232.662089
 0
ARC
 8
0
 6
CONTINUOUS
 62
9
 10
14.502278
 20
28.061694
 40
0.152000
 50
232.966988
 51
293.058583
 0
ARC
 8
0
 6
CONTINUOUS
 62
9
 10
14.620646
 20
27.794800
 40
0.140000
 50
45.150095
 51
114.849904
 0
ARC
 8
0
 6
CONTINUOUS
 62
9
 10
14.617714
 20
27.797805
 40
0.140000
 50
335.286063
 51
43.431926
 0
ARC
 8
0
 6
CONTINUOUS
 62
9
 10
14.883644
 20
27.677211
 40
0.152000
 50
155.901855
 51
219.149283
 0
ARC
 8
0
 6
CONTINUOUS
 62
9
 10
14.844533
 20
27.642858
 40
0.100000
 50
218.032766
 51
279.347360
 0
ARC
 8
0
 6
CONTINUOUS
 62
9
 10
14.876033
 20
27.441311
 40
0.104000
 50
42.639300
 51
98.436058
 0
ARC
 8
0
 6
CONTINUOUS
 62
9
 10
14.856195
 20
27.421526
 40
0.132000
 50
343.733395
 51
43.123987
 0
ARC
 8
0
 6
CONTINUOUS
 62
9
 10
15.093896
 20
27.350814
 40
0.116000
 50
163.091544
 51
231.608218
 0
ARC
 8
0
 6
CONTINUOUS
 62
9
 10
15.089311
 20
27.344239
 40
0.108000
 50
231.348507
 51
268.635547
 0
ARC
 8
0
 6
CONTINUOUS
 62
9
 10
15.088265
 20
27.624267
 40
0.388000
 50
269.774686
 51
289.298618
 0
ARC
 8
0
 6
CONTINUOUS
 62
9
 10
15.177152
 20
27.379872
 40
0.128000
 50
287.901271
 51
347.707254
 0
ARC
 8
0
 6
CONTINUOUS
 62
9
 10
15.383585
 20
27.331760
 40
0.084000
 50
68.848976
 51
165.620695
 0
ARC
 8
0
 6
CONTINUOUS
 62
9
 10
15.349016
 20
27.246496
 40
0.176000
 50
336.992409
 51
68.368705
 0
ARC
 8
0
 6
CONTINUOUS
 62
9
 10
15.942367
 20
26.986081
 40
0.472000
 50
156.047146
 51
187.532665
 0
ARC
 8
0
 6
CONTINUOUS
 62
9
 10
11.150330
 20
8.852970
 40
0.264000
 50
301.920999
 51
319.891281
 0
ARC
 8
0
 6
CONTINUOUS
 62
9
 10
11.102930
 20
8.917633
 40
0.344000
 50
272.471546
 51
302.927386
 0
ARC
 8
0
 6
CONTINUOUS
 62
9
 10
11.119263
 20
8.057955
 40
0.516000
 50
90.166461
 51
110.653306
 0
ARC
 8
0
 6
CONTINUOUS
 62
9
 10
11.606490
 20
6.895705
 40
1.776000
 50
112.136625
 51
119.627649
 0
ARC
 8
0
 6
CONTINUOUS
 62
9
 10
10.757114
 20
8.382255
 40
0.064000
 50
116.553613
 51
156.066244
 0
ARC
 8
0
 6
CONTINUOUS
 62
9
 10
10.765580
 20
8.381761
 40
0.072000
 50
158.440417
 51
245.078553
 0
ARC
 8
0
 6
CONTINUOUS
 62
9
 10
10.699910
 20
8.249177
 40
0.076000
 50
341.221498
 51
62.297466
 0
ARC
 8
0
 6
CONTINUOUS
 62
9
 10
10.696035
 20
8.250206
 40
0.080000
 50
262.223639
 51
341.416705
 0
ARC
 8
0
 6
CONTINUOUS
 62
9
 10
10.670807
 20
8.063907
 40
0.108000
 50
82.335731
 51
138.822721
 0
ARC
 8
0
 6
CONTINUOUS
 62
9
 10
10.685447
 20
8.050269
 40
0.128000
 50
138.542615
 51
188.777003
 0
ARC
 8
0
 6
CONTINUOUS
 62
9
 10
10.436272
 20
8.012650
 40
0.124000
 50
318.448472
 51
8.387645
 0
ARC
 8
0
 6
CONTINUOUS
 62
9
 10
10.254074
 20
8.192657
 40
0.380000
 50
272.826142
 51
316.358434
 0
ARC
 8
0
 6
CONTINUOUS
 62
9
 10
10.316735
 20
7.158591
 40
0.656000
 50
93.839320
 51
118.560910
 0
ARC
 8
0
 6
CONTINUOUS
 62
9
 10
10.703800
 20
6.413004
 40
1.496000
 50
117.929104
 51
125.529916
 0
ARC
 8
0
 6
CONTINUOUS
 62
9
 10
9.887966
 20
7.555646
 40
0.092000
 50
125.582973
 51
157.196107
 0
ARC
 8
0
 6
CONTINUOUS
 62
9
 10
9.864775
 20
7.562542
 40
0.068000
 50
154.978249
 51
217.800826
 0
ARC
 8
0
 6
CONTINUOUS
 62
9
 10
9.755481
 20
7.475074
 40
0.072000
 50
339.389013
 51
39.491058
 0
ARC
 8
0
 6
CONTINUOUS
 62
9
 10
9.574509
 20
7.550424
 40
0.268000
 50
308.939319
 51
337.930576
 0
ARC
 8
0
 6
CONTINUOUS
 62
9
 10
8.859465
 20
8.381181
 40
1.364000
 50
297.508751
 51
310.369424
 0
ARC
 8
0
 6
CONTINUOUS
 62
9
 10
9.361070
 20
7.433646
 40
0.292000
 50
246.532318
 51
296.087553
 0
ARC
 8
0
 6
CONTINUOUS
 62
9
 10
9.184534
 20
7.013268
 40
0.164000
 50
68.445189
 51
164.163802
 0
ARC
 8
0
 6
CONTINUOUS
 62
9
 10
9.072731
 20
7.044218
 40
0.048000
 50
163.287748
 51
274.883504
 0
ARC
 8
0
 6
CONTINUOUS
 62
9
 10
9.082636
 20
6.936676
 40
0.060000
 50
11.304534
 51
95.565364
 0
ARC
 8
0
 6
CONTINUOUS
 62
9
 10
9.014784
 20
6.930158
 40
0.128000
 50
331.790045
 51
8.209957
 0
ARC
 8
0
 6
CONTINUOUS
 62
9
 10
7.220418
 20
7.917368
 40
2.176000
 50
322.385393
 51
331.217429
 0
ARC
 8
0
 6
CONTINUOUS
 62
9
 10
7.777034
 20
7.459821
 40
1.456000
 50
314.442976
 51
323.279083
 0
ARC
 8
0
 6
CONTINUOUS
 62
9
 10
8.599140
 20
6.630036
 40
0.288000
 50
293.463012
 51
313.263840
 0
ARC
 8
0
 6
CONTINUOUS
 62
9
 10
8.609615
 20
6.604058
 40
0.260000
 50
235.450636
 51
293.624915
 0
ARC
 8
0
 6
CONTINUOUS
 62
9
 10
8.364044
 20
6.248645
 40
0.172000
 50
55.217029
 51
152.347028
 0
ARC
 8
0
 6
CONTINUOUS
 62
9
 10
8.257500
 20
6.303865
 40
0.052000
 50
151.755616
 51
254.054869
 0
ARC
 8
0
 6
CONTINUOUS
 62
9
 10
8.225391
 20
6.188243
 40
0.068000
 50
3.366872
 51
74.804362
 0
ARC
 8
0
 6
CONTINUOUS
 62
9
 10
7.981593
 20
6.178105
 40
0.312000
 50
334.389068
 51
2.596054
 0
ARC
 8
0
 6
CONTINUOUS
 62
9
 10
7.640054
 20
6.344699
 40
0.692000
 50
315.423354
 51
334.174382
 0
ARC
 8
0
 6
CONTINUOUS
 62
9
 10
7.794231
 20
6.204711
 40
0.484000
 50
295.582447
 51
314.417540
 0
ARC
 8
0
 6
CONTINUOUS
 62
9
 10
7.274977
 20
7.192819
 40
1.600000
 50
286.766776
 51
297.074980
 0
LINE
 8
0
 6
CONTINUOUS
 62
9
 10
7.557389
 20
5.911761
 11
7.736539
 21
5.660840
 0
LINE
 8
0
 6
CONTINUOUS
 62
9
 10
7.120231
 20
5.298353
 11
7.557389
 21
5.911761
 0
LINE
 8
0
 6
CONTINUOUS
 62
9
 10
6.753017
 20
4.920377
 11
7.120231
 21
5.298353
 0
LINE
 8
0
 6
CONTINUOUS
 62
9
 10
6.489851
 20
4.487499
 11
6.753017
 21
4.920377
 0
LINE
 8
0
 6
CONTINUOUS
 62
9
 10
6.397277
 20
5.344595
 11
6.489851
 21
4.487499
 0
LINE
 8
0
 6
CONTINUOUS
 62
9
 10
5.741377
 20
4.757573
 11
6.397277
 21
5.344595
 0
LINE
 8
0
 6
CONTINUOUS
 62
9
 10
5.182312
 20
4.328130
 11
5.741377
 21
4.757573
 0
LINE
 8
0
 6
CONTINUOUS
 62
9
 10
4.664703
 20
4.041659
 11
5.182312
 21
4.328130
 0
LINE
 8
0
 6
CONTINUOUS
 62
9
 10
5.205680
 20
4.575835
 11
4.664703
 21
4.041659
 0
LINE
 8
0
 6
CONTINUOUS
 62
9
 10
5.780464
 20
5.278703
 11
5.205680
 21
4.575835
 0
LINE
 8
0
 6
CONTINUOUS
 62
9
 10
5.185023
 20
4.827241
 11
5.780464
 21
5.278703
 0
LINE
 8
0
 6
CONTINUOUS
 62
9
 10
4.752688
 20
4.517612
 11
5.185023
 21
4.827241
 0
LINE
 8
0
 6
CONTINUOUS
 62
9
 10
4.311086
 20
4.201493
 11
4.752688
 21
4.517612
 0
ARC
 8
0
 6
CONTINUOUS
 62
9
 10
2.440815
 20
9.025592
 40
4.380000
 50
298.115573
 51
304.162968
 0
ARC
 8
0
 6
CONTINUOUS
 62
9
 10
4.511267
 20
6.007175
 40
0.720000
 50
302.714968
 51
317.673901
 0
ARC
 8
0
 6
CONTINUOUS
 62
9
 10
3.870965
 20
6.539062
 40
1.552000
 50
319.073571
 51
333.929287
 0
ARC
 8
0
 6
CONTINUOUS
 62
9
 10
1.664392
 20
7.644626
 40
4.020000
 50
333.596766
 51
342.808752
 0
LINE
 8
0
 6
CONTINUOUS
 62
9
 10
5.696587
 20
6.922237
 11
5.504793
 21
6.456466
 0
LINE
 8
0
 6
CONTINUOUS
 62
9
 10
5.921056
 20
7.366000
 11
5.696587
 21
6.922237
 0
LINE
 8
0
 6
CONTINUOUS
 62
9
 10
6.042201
 20
7.661452
 11
5.921056
 21
7.366000
 0
LINE
 8
0
 6
CONTINUOUS
 62
9
 10
6.381602
 20
8.089011
 11
6.042201
 21
7.661452
 0
LINE
 8
0
 6
CONTINUOUS
 62
9
 10
6.859552
 20
8.634300
 11
6.381602
 21
8.089011
 0
LINE
 8
0
 6
CONTINUOUS
 62
9
 10
7.134536
 20
9.065095
 11
6.859552
 21
8.634300
 0
LINE
 8
0
 6
CONTINUOUS
 62
9
 10
6.681125
 20
8.682009
 11
7.134536
 21
9.065095
 0
LINE
 8
0
 6
CONTINUOUS
 62
9
 10
6.197847
 20
8.129536
 11
6.681125
 21
8.682009
 0
LINE
 8
0
 6
CONTINUOUS
 62
9
 10
5.742363
 20
7.665581
 11
6.197847
 21
8.129536
 0
LINE
 8
0
 6
CONTINUOUS
 62
9
 10
5.310256
 20
7.380281
 11
5.742363
 21
7.665581
 0
LINE
 8
0
 6
CONTINUOUS
 62
9
 10
5.760175
 20
7.881773
 11
5.310256
 21
7.380281
 0
ARC
 8
0
 6
CONTINUOUS
 62
9
 10
-2.711664
 20
13.669307
 40
10.260000
 50
325.661070
 51
327.341788
 0
ARC
 8
0
 6
CONTINUOUS
 62
9
 10
5.408464
 20
8.466394
 40
0.616000
 50
327.204420
 51
333.915490
 0
ARC
 8
0
 6
CONTINUOUS
 62
9
 10
3.979160
 20
9.158383
 40
2.204000
 50
334.096217
 51
348.961495
 0
ARC
 8
0
 6
CONTINUOUS
 62
9
 10
8.003660
 20
8.375186
 40
1.896000
 50
151.662561
 51
169.017648
 0
ARC
 8
0
 6
CONTINUOUS
 62
9
 10
8.223757
 20
8.252416
 40
2.148000
 50
137.212654
 51
151.566925
 0
ARC
 8
0
 6
CONTINUOUS
 62
9
 10
2.802204
 20
13.288951
 40
5.252000
 50
317.065796
 51
322.913941
 0
ARC
 8
0
 6
CONTINUOUS
 62
9
 10
-47.707165
 20
50.969611
 40
68.268000
 50
323.248675
 51
324.050402
 0
ARC
 8
0
 6
CONTINUOUS
 62
9
 10
6.107286
 20
11.963482
 40
1.804000
 50
323.534286
 51
328.540732
 0
ARC
 8
0
 6
CONTINUOUS
 62
9
 10
3.213315
 20
13.725156
 40
5.192000
 50
328.624744
 51
333.525951
 0
ARC
 8
0
 6
CONTINUOUS
 62
9
 10
4.077137
 20
13.251981
 40
4.208000
 50
334.049799
 51
339.534359
 0
ARC
 8
0
 6
CONTINUOUS
 62
9
 10
5.495969
 20
12.740676
 40
2.700000
 50
339.172414
 51
349.592414
 0
ARC
 8
0
 6
CONTINUOUS
 62
9
 10
11.128734
 20
11.700526
 40
3.028000
 50
160.207155
 51
169.488685
 0
ARC
 8
0
 6
CONTINUOUS
 62
9
 10
2.813879
 20
19.628275
 40
6.232000
 50
14.088489
 51
18.102359
 0
ARC
 8
0
 6
CONTINUOUS
 62
9
 10
3.118299
 20
19.701335
 40
5.920000
 50
18.345719
 51
22.476443
 0
ARC
 8
0
 6
CONTINUOUS
 62
9
 10
5.514041
 20
20.669968
 40
3.336000
 50
22.834507
 51
31.278547
 0
ARC
 8
0
 6
CONTINUOUS
 62
9
 10
11.117051
 20
24.042970
 40
3.204000
 50
202.000495
 51
210.807683
 0
ARC
 8
0
 6
CONTINUOUS
 62
9
 10
11.507214
 20
24.198458
 40
3.624000
 50
190.324724
 51
201.968953
 0
ARC
 8
0
 6
CONTINUOUS
 62
9
 10
5.496525
 20
23.090344
 40
2.488000
 50
10.621671
 51
27.548328
 0
ARC
 8
0
 6
CONTINUOUS
 62
9
 10
6.960267
 20
23.856228
 40
0.836000
 50
27.406264
 51
43.941810
 0
ARC
 8
0
 6
CONTINUOUS
 62
9
 10
8.537018
 20
25.361615
 40
1.344000
 50
213.226143
 51
223.506780
 0
ARC
 8
0
 6
CONTINUOUS
 62
9
 10
10.509319
 20
26.729637
 40
3.744000
 50
208.646966
 51
214.200360
 0
ARC
 8
0
 6
CONTINUOUS
 62
9
 10
0.309203
 20
21.273327
 40
7.824000
 50
27.902569
 51
30.588299
 0
ARC
 8
0
 6
CONTINUOUS
 62
9
 10
-44.702666
 20
-5.694337
 40
60.296000
 50
30.882888
 51
31.488962
 0
ARC
 8
0
 6
CONTINUOUS
 62
9
 10
-12.805533
 20
13.779930
 40
22.924000
 50
31.625091
 51
32.608983
 0
ARC
 8
0
 6
CONTINUOUS
 62
9
 10
-18.959755
 20
10.025099
 40
30.132000
 50
32.316951
 51
33.301902
 0
ARC
 8
0
 6
CONTINUOUS
 62
9
 10
-69.064231
 20
-23.157539
 40
90.228000
 50
33.444014
 51
34.009923
 0
LINE
 8
0
 6
CONTINUOUS
 62
9
 10
5.972065
 20
27.096899
 11
5.729431
 21
27.310274
 0
LINE
 8
0
 6
CONTINUOUS
 62
9
 10
6.209828
 20
26.925001
 11
5.972065
 21
27.096899
 0
LINE
 8
0
 6
CONTINUOUS
 62
9
 10
6.394724
 20
27.006126
 11
6.209828
 21
26.925001
 0
LINE
 8
0
 6
CONTINUOUS
 62
9
 10
6.397473
 20
27.229035
 11
6.394724
 21
27.006126
 0
LINE
 8
0
 6
CONTINUOUS
 62
9
 10
6.139967
 20
27.749660
 11
6.397473
 21
27.229035
 0
LINE
 8
0
 6
CONTINUOUS
 62
9
 10
5.787861
 20
28.701260
 11
6.139967
 21
27.749660
 0
LINE
 8
0
 6
CONTINUOUS
 62
9
 10
5.230536
 20
29.087912
 11
5.787861
 21
28.701260
 0
LINE
 8
0
 6
CONTINUOUS
 62
9
 10
4.716075
 20
29.487315
 11
5.230536
 21
29.087912
 0
LINE
 8
0
 6
CONTINUOUS
 62
9
 10
4.202101
 20
29.728226
 11
4.716075
 21
29.487315
 0
LINE
 8
0
 6
CONTINUOUS
 62
9
 10
3.520366
 20
29.962162
 11
4.202101
 21
29.728226
 0
LINE
 8
0
 6
CONTINUOUS
 62
9
 10
2.743881
 20
30.050337
 11
3.520366
 21
29.962162
 0
LINE
 8
0
 6
CONTINUOUS
 62
9
 10
2.233646
 20
30.059071
 11
2.743881
 21
30.050337
 0
LINE
 8
0
 6
CONTINUOUS
 62
9
 10
2.859013
 20
30.265615
 11
2.233646
 21
30.059071
 0
LINE
 8
0
 6
CONTINUOUS
 62
9
 10
3.401675
 20
30.348644
 11
2.859013
 21
30.265615
 0
LINE
 8
0
 6
CONTINUOUS
 62
9
 10
3.894773
 20
30.265759
 11
3.401675
 21
30.348644
 0
LINE
 8
0
 6
CONTINUOUS
 62
9
 10
4.847154
 20
30.000348
 11
3.894773
 21
30.265759
 0
LINE
 8
0
 6
CONTINUOUS
 62
9
 10
4.349345
 20
30.632394
 11
4.847154
 21
30.000348
 0
LINE
 8
0
 6
CONTINUOUS
 62
9
 10
3.788318
 20
30.975020
 11
4.349345
 21
30.632394
 0
LINE
 8
0
 6
CONTINUOUS
 62
9
 10
3.168441
 20
31.283345
 11
3.788318
 21
30.975020
 0
LINE
 8
0
 6
CONTINUOUS
 62
9
 10
2.833140
 20
31.362776
 11
3.168441
 21
31.283345
 0
LINE
 8
0
 6
CONTINUOUS
 62
9
 10
2.201474
 20
31.466032
 11
2.833140
 21
31.362776
 0
LINE
 8
0
 6
CONTINUOUS
 62
9
 10
1.540178
 20
31.355181
 11
2.201474
 21
31.466032
 0
LINE
 8
0
 6
CONTINUOUS
 62
9
 10
2.268412
 20
31.661376
 11
1.540178
 21
31.355181
 0
LINE
 8
0
 6
CONTINUOUS
 62
9
 10
2.731595
 20
31.754358
 11
2.268412
 21
31.661376
 0
LINE
 8
0
 6
CONTINUOUS
 62
9
 10
3.612346
 20
31.704662
 11
2.731595
 21
31.754358
 0
LINE
 8
0
 6
CONTINUOUS
 62
9
 10
3.252676
 20
32.060525
 11
3.612346
 21
31.704662
 0
LINE
 8
0
 6
CONTINUOUS
 62
9
 10
3.047132
 20
32.161755
 11
3.252676
 21
32.060525
 0
LINE
 8
0
 6
CONTINUOUS
 62
9
 10
2.371163
 20
32.589636
 11
3.047132
 21
32.161755
 0
LINE
 8
0
 6
CONTINUOUS
 62
9
 10
1.489908
 20
32.935926
 11
2.371163
 21
32.589636
 0
LINE
 8
0
 6
CONTINUOUS
 62
9
 10
0.908053
 20
33.091324
 11
1.489908
 21
32.935926
 0
LINE
 8
0
 6
CONTINUOUS
 62
9
 10
1.389305
 20
33.217676
 11
0.908053
 21
33.091324
 0
LINE
 8
0
 6
CONTINUOUS
 62
9
 10
1.811249
 20
33.261065
 11
1.389305
 21
33.217676
 0
LINE
 8
0
 6
CONTINUOUS
 62
9
 10
2.574775
 20
33.053324
 11
1.811249
 21
33.261065
 0
LINE
 8
0
 6
CONTINUOUS
 62
9
 10
3.401586
 20
32.651647
 11
2.574775
 21
33.053324
 0
LINE
 8
0
 6
CONTINUOUS
 62
9
 10
2.598353
 20
33.463460
 11
3.401586
 21
32.651647
 0
LINE
 8
0
 6
CONTINUOUS
 62
9
 10
1.934411
 20
34.051689
 11
2.598353
 21
33.463460
 0
LINE
 8
0
 6
CONTINUOUS
 62
9
 10
1.279528
 20
34.483976
 11
1.934411
 21
34.051689
 0
LINE
 8
0
 6
CONTINUOUS
 62
9
 10
0.355616
 20
34.979947
 11
1.279528
 21
34.483976
 0
LINE
 8
0
 6
CONTINUOUS
 62
9
 10
0.978690
 20
35.012242
 11
0.355616
 21
34.979947
 0
LINE
 8
0
 6
CONTINUOUS
 62
9
 10
1.693793
 20
34.760237
 11
0.978690
 21
35.012242
 0
LINE
 8
0
 6
CONTINUOUS
 62
9
 10
2.417518
 20
34.165528
 11
1.693793
 21
34.760237
 0
LINE
 8
0
 6
CONTINUOUS
 62
9
 10
3.517592
 20
33.240448
 11
2.417518
 21
34.165528
 0
LINE
 8
0
 6
CONTINUOUS
 62
9
 10
2.775712
 20
34.423244
 11
3.517592
 21
33.240448
 0
LINE
 8
0
 6
CONTINUOUS
 62
9
 10
2.010453
 20
35.427385
 11
2.775712
 21
34.423244
 0
LINE
 8
0
 6
CONTINUOUS
 62
9
 10
1.302932
 20
36.137025
 11
2.010453
 21
35.427385
 0
LINE
 8
0
 6
CONTINUOUS
 62
9
 10
0.578988
 20
36.638353
 11
1.302932
 21
36.137025
 0
LINE
 8
0
 6
CONTINUOUS
 62
9
 10
1.573083
 20
36.333093
 11
0.578988
 21
36.638353
 0
LINE
 8
0
 6
CONTINUOUS
 62
9
 10
2.259262
 20
35.801869
 11
1.573083
 21
36.333093
 0
LINE
 8
0
 6
CONTINUOUS
 62
9
 10
2.932719
 20
35.106358
 11
2.259262
 21
35.801869
 0
LINE
 8
0
 6
CONTINUOUS
 62
9
 10
3.564024
 20
34.263934
 11
2.932719
 21
35.106358
 0
LINE
 8
0
 6
CONTINUOUS
 62
9
 10
3.366957
 20
35.058222
 11
3.564024
 21
34.263934
 0
LINE
 8
0
 6
CONTINUOUS
 62
9
 10
2.984746
 20
35.885155
 11
3.366957
 21
35.058222
 0
LINE
 8
0
 6
CONTINUOUS
 62
9
 10
2.483901
 20
36.684266
 11
2.984746
 21
35.885155
 0
LINE
 8
0
 6
CONTINUOUS
 62
9
 10
3.039580
 20
36.472557
 11
2.483901
 21
36.684266
 0
LINE
 8
0
 6
CONTINUOUS
 62
9
 10
3.860091
 20
36.380681
 11
3.039580
 21
36.472557
 0
LINE
 8
0
 6
CONTINUOUS
 62
9
 10
4.175458
 20
36.349444
 11
3.860091
 21
36.380681
 0
LINE
 8
0
 6
CONTINUOUS
 62
9
 10
4.485754
 20
36.128200
 11
4.175458
 21
36.349444
 0
LINE
 8
0
 6
CONTINUOUS
 62
9
 10
5.122112
 20
35.613884
 11
4.485754
 21
36.128200
 0
LINE
 8
0
 6
CONTINUOUS
 62
9
 10
5.208707
 20
36.081958
 11
5.122112
 21
35.613884
 0
ARC
 8
0
 6
CONTINUOUS
 62
9
 10
6.490577
 20
36.702109
 40
1.424000
 50
205.817068
 51
229.687896
 0
ARC
 8
0
 6
CONTINUOUS
 62
9
 10
6.116345
 20
36.258991
 40
0.844000
 50
229.598885
 51
260.603737
 0
ARC
 8
0
 6
CONTINUOUS
 62
9
 10
6.003708
 20
35.588374
 40
0.164000
 50
261.176325
 51
323.971800
 0
ARC
 8
0
 6
CONTINUOUS
 62
9
 10
6.262916
 20
35.400728
 40
0.156000
 50
77.239536
 51
144.231438
 0
ARC
 8
0
 6
CONTINUOUS
 62
9
 10
6.249051
 20
35.342350
 40
0.216000
 50
42.654466
 51
77.072927
 0
ARC
 8
0
 6
CONTINUOUS
 62
9
 10
5.399795
 20
34.569901
 40
1.364000
 50
28.650082
 51
42.346343
 0
ARC
 8
0
 6
CONTINUOUS
 62
9
 10
6.241884
 20
35.030866
 40
0.404000
 50
349.959468
 51
28.539577
 0
ARC
 8
0
 6
CONTINUOUS
 62
9
 10
6.900174
 20
34.917449
 40
0.264000
 50
170.629996
 51
231.001424
 0
ARC
 8
0
 6
CONTINUOUS
 62
9
 10
6.836434
 20
34.840384
 40
0.164000
 50
231.364380
 51
296.436603
 0
ARC
 8
0
 6
CONTINUOUS
 62
9
 10
6.995616
 20
34.517491
 40
0.196000
 50
61.998617
 51
116.080349
 0
ARC
 8
0
 6
CONTINUOUS
 62
9
 10
6.950639
 20
34.423654
 40
0.300000
 50
39.062470
 51
62.828322
 0
ARC
 8
0
 6
CONTINUOUS
 62
9
 10
6.187149
 20
33.790271
 40
1.292000
 50
27.973639
 51
39.535631
 0
ARC
 8
0
 6
CONTINUOUS
 62
9
 10
6.930378
 20
34.190284
 40
0.448000
 50
349.996242
 51
27.378465
 0
ARC
 8
0
 6
CONTINUOUS
 62
9
 10
7.632004
 20
34.069237
 40
0.264000
 50
170.576816
 51
236.803314
 0
ARC
 8
0
 6
CONTINUOUS
 62
9
 10
7.604489
 20
34.034614
 40
0.220000
 50
237.862840
 51
311.888513
 0
ARC
 8
0
 6
CONTINUOUS
 62
9
 10
7.913624
 20
33.688593
 40
0.244000
 50
64.654161
 51
131.677755
 0
ARC
 8
0
 6
CONTINUOUS
 62
9
 10
7.966591
 20
33.805157
 40
0.116000
 50
33.133767
 51
63.651230
 0
ARC
 8
0
 6
CONTINUOUS
 62
9
 10
2.810985
 20
30.375778
 40
6.308000
 50
29.399648
 51
33.621702
 0
ARC
 8
0
 6
CONTINUOUS
 62
9
 10
8.091189
 20
33.349511
 40
0.248000
 50
1.725033
 51
29.694876
 0
ARC
 8
0
 6
CONTINUOUS
 62
9
 10
8.443076
 20
33.357288
 40
0.104000
 50
180.171306
 51
249.828704
 0
ARC
 8
0
 6
CONTINUOUS
 62
9
 10
8.429301
 20
33.311126
 40
0.056000
 50
246.770555
 51
293.839137
 0
ARC
 8
0
 6
CONTINUOUS
 62
9
 10
8.129266
 20
34.039789
 40
0.844000
 50
292.476787
 51
303.520684
 0
ARC
 8
0
 6
CONTINUOUS
 62
9
 10
8.491440
 20
33.497606
 40
0.192000
 50
302.767123
 51
342.533113
 0
ARC
 8
0
 6
CONTINUOUS
 62
9
 10
8.778513
 20
33.410595
 40
0.108000
 50
88.224502
 51
164.213252
 0
ARC
 8
0
 6
CONTINUOUS
 62
9
 10
8.780884
 20
33.422548
 40
0.096000
 50
41.094936
 51
89.417941
 0
ARC
 8
0
 6
CONTINUOUS
 62
9
 10
7.747975
 20
32.513439
 40
1.472000
 50
29.755661
 51
41.335653
 0
ARC
 8
0
 6
CONTINUOUS
 62
9
 10
8.745727
 20
33.081258
 40
0.324000
 50
359.399582
 51
30.150699
 0
ARC
 8
0
 6
CONTINUOUS
 62
9
 10
9.297706
 20
33.076703
 40
0.228000
 50
179.708520
 51
223.150613
 0
ARC
 8
0
 6
CONTINUOUS
 62
9
 10
9.269905
 20
33.059418
 40
0.196000
 50
225.022754
 51
249.309937
 0
ARC
 8
0
 6
CONTINUOUS
 62
9
 10
9.692868
 20
34.083594
 40
1.304000
 50
247.823305
 51
257.404585
 0
ARC
 8
0
 6
CONTINUOUS
 62
9
 10
9.476075
 20
33.111474
 40
0.308000
 50
257.328470
 51
292.534379
 0
ARC
 8
0
 6
CONTINUOUS
 62
9
 10
9.660305
 20
32.672580
 40
0.168000
 50
46.796177
 51
113.203822
 0
ARC
 8
0
 6
CONTINUOUS
 62
9
 10
9.610937
 20
32.620170
 40
0.240000
 50
334.721316
 51
46.770854
 0
ARC
 8
0
 6
CONTINUOUS
 62
9
 10
10.135570
 20
32.372865
 40
0.340000
 50
154.789736
 51
203.326044
 0
ARC
 8
0
 6
CONTINUOUS
 62
9
 10
10.039684
 20
32.332574
 40
0.236000
 50
203.561330
 51
222.196477
 0
ARC
 8
0
 6
CONTINUOUS
 62
9
 10
12.495904
 20
34.578144
 40
3.564000
 50
222.418977
 51
227.219616
 0
ARC
 8
0
 6
CONTINUOUS
 62
9
 10
10.562365
 20
32.470588
 40
0.704000
 50
226.219677
 51
234.828543
 0
ARC
 8
0
 6
CONTINUOUS
 62
9
 10
9.667126
 20
31.144787
 40
0.896000
 50
50.001182
 51
56.868715
 0
ARC
 8
0
 6
CONTINUOUS
 62
9
 10
6.821736
 20
27.867551
 40
5.236000
 50
46.248758
 51
49.199953
 0
ARC
 8
0
 6
CONTINUOUS
 62
9
 10
10.408130
 20
31.616347
 40
0.048000
 50
13.186059
 51
44.133558
 0
ARC
 8
0
 6
CONTINUOUS
 62
9
 10
10.284174
 20
31.584392
 40
0.176000
 50
306.966105
 51
14.109263
 0
ARC
 8
0
 6
CONTINUOUS
 62
9
 10
10.487223
 20
31.316689
 40
0.160000
 50
127.414829
 51
203.251458
 0
ARC
 8
0
 6
CONTINUOUS
 62
9
 10
10.476859
 20
31.310389
 40
0.148000
 50
202.594571
 51
273.802613
 0
ARC
 8
0
 6
CONTINUOUS
 62
9
 10
10.506865
 20
30.991904
 40
0.172000
 50
36.473504
 51
96.741502
 0
ARC
 8
0
 6
CONTINUOUS
 62
9
 10
10.529388
 20
31.015452
 40
0.140000
 50
9.012274
 51
34.202729
 0
ARC
 8
0
 6
CONTINUOUS
 62
9
 10
8.403921
 20
30.653840
 40
2.296000
 50
3.264512
 51
9.616247
 0
ARC
 8
0
 6
CONTINUOUS
 62
9
 10
10.265251
 20
30.754410
 40
0.432000
 50
333.948412
 51
4.005535
 0
ARC
 8
0
 6
CONTINUOUS
 62
9
 10
10.840024
 20
30.472923
 40
0.208000
 50
153.821898
 51
217.783123
 0
ARC
 8
0
 6
CONTINUOUS
 62
9
 10
10.821805
 20
30.457246
 40
0.184000
 50
217.400891
 51
277.541486
 0
ARC
 8
0
 6
CONTINUOUS
 62
9
 10
10.917169
 20
29.792062
 40
0.488000
 50
76.471529
 51
98.391286
 0
ARC
 8
0
 6
CONTINUOUS
 62
9
 10
6.457258
 20
11.195380
 40
19.612000
 50
75.505364
 51
76.512804
 0
ARC
 8
0
 6
CONTINUOUS
 62
9
 10
11.367907
 20
30.171315
 40
0.012000
 50
60.528781
 51
99.471221
 0
ARC
 8
0
 6
CONTINUOUS
 62
9
 10
11.328047
 20
30.149486
 40
0.056000
 50
357.936091
 51
35.194008
 0
ARC
 8
0
 6
CONTINUOUS
 62
9
 10
9.694597
 20
30.240986
 40
1.692000
 50
349.772048
 51
356.831677
 0
ARC
 8
0
 6
CONTINUOUS
 62
9
 10
11.136213
 20
29.985638
 40
0.228000
 50
321.269641
 51
348.593376
 0
ARC
 8
0
 6
CONTINUOUS
 62
9
 10
11.408871
 20
29.769409
 40
0.120000
 50
142.181862
 51
197.818138
 0
ARC
 8
0
 6
CONTINUOUS
 62
9
 10
11.334691
 20
29.750880
 40
0.044000
 50
204.419297
 51
238.261095
 0
ARC
 8
0
 6
CONTINUOUS
 62
9
 10
13.198960
 20
32.116957
 40
3.056000
 50
231.858230
 51
235.950934
 0
ARC
 8
0
 6
CONTINUOUS
 62
9
 10
11.675209
 20
29.868634
 40
0.340000
 50
236.570077
 51
260.810063
 0
ARC
 8
0
 6
CONTINUOUS
 62
9
 10
11.594577
 20
29.383296
 40
0.152000
 50
25.376533
 51
80.024320
 0
ARC
 8
0
 6
CONTINUOUS
 62
9
 10
11.723935
 20
29.447813
 40
0.008000
 50
335.522497
 51
4.477512
 0
ARC
 8
0
 6
CONTINUOUS
 62
9
 10
-3.550409
 20
32.013148
 40
15.496000
 50
349.541515
 51
350.458482
 0
ARC
 8
0
 6
CONTINUOUS
 62
9
 10
11.263808
 20
29.281240
 40
0.432000
 50
332.478746
 51
349.196563
 0
ARC
 8
0
 6
CONTINUOUS
 62
9
 10
11.787757
 20
29.005690
 40
0.160000
 50
151.667957
 51
199.043693
 0
ARC
 8
0
 6
CONTINUOUS
 62
9
 10
11.745899
 20
28.992095
 40
0.116000
 50
199.442043
 51
230.557953
 0
ARC
 8
0
 6
CONTINUOUS
 62
9
 10
12.164219
 20
29.502593
 40
0.776000
 50
230.651281
 51
242.578294
 0
ARC
 8
0
 6
CONTINUOUS
 62
9
 10
11.886690
 20
28.970629
 40
0.176000
 50
243.020152
 51
284.362604
 0
ARC
 8
0
 6
CONTINUOUS
 62
9
 10
11.959000
 20
28.708506
 40
0.096000
 50
23.694368
 51
107.365041
 0
ARC
 8
0
 6
CONTINUOUS
 62
9
 10
11.945800
 20
28.698904
 40
0.112000
 50
302.180929
 51
25.478716
 0
ARC
 8
0
 6
CONTINUOUS
 62
9
 10
12.123022
 20
28.442318
 40
0.200000
 50
126.005078
 51
168.017476
 0
ARC
 8
0
 6
CONTINUOUS
 62
9
 10
12.829829
 20
28.285442
 40
0.924000
 50
167.601081
 51
179.551589
 0
ARC
 8
0
 6
CONTINUOUS
 62
9
 10
12.021822
 20
28.289841
 40
0.116000
 50
178.600827
 51
214.529275
 0
ARC
 8
0
 6
CONTINUOUS
 62
9
 10
12.140976
 20
28.370704
 40
0.260000
 50
214.326309
 51
286.006576
 0
ARC
 8
0
 6
CONTINUOUS
 62
9
 10
12.277705
 20
27.889764
 40
0.240000
 50
26.934829
 51
105.722558
 0
ARC
 8
0
 6
CONTINUOUS
 62
9
 10
12.293271
 20
27.894489
 40
0.224000
 50
307.567107
 51
27.660992
 0
ARC
 8
0
 6
CONTINUOUS
 62
9
 10
12.568531
 20
27.530956
 40
0.232000
 50
126.712454
 51
203.760266
 0
ARC
 8
0
 6
CONTINUOUS
 62
9
 10
12.572055
 20
27.532879
 40
0.236000
 50
203.842911
 51
278.782395
 0
ARC
 8
0
 6
CONTINUOUS
 62
9
 10
12.644257
 20
27.058342
 40
0.244000
 50
27.151505
 51
98.524659
 0
ARC
 8
0
 6
CONTINUOUS
 62
9
 10
12.698583
 20
27.083919
 40
0.184000
 50
318.819188
 51
27.784557
 0
ARC
 8
0
 6
CONTINUOUS
 62
9
 10
12.982031
 20
26.836870
 40
0.192000
 50
139.026451
 51
203.220162
 0
ARC
 8
0
 6
CONTINUOUS
 62
9
 10
6.949807
 20
26.127247
 40
7.120000
 50
6.558325
 51
10.600215
 0
ARC
 8
0
 6
CONTINUOUS
 62
9
 10
-9.305278
 20
23.180172
 40
23.640000
 50
10.373789
 51
12.572082
 0
ARC
 8
0
 6
CONTINUOUS
 62
9
 10
38.766524
 20
30.275900
 40
23.532000
 50
188.188569
 51
188.681339
 0
ARC
 8
0
 6
CONTINUOUS
 62
9
 10
12.672211
 20
25.923747
 40
3.432000
 50
2.244325
 51
10.534756
 0
ARC
 8
0
 6
CONTINUOUS
 62
9
 10
15.789696
 20
26.049578
 40
0.312000
 50
330.255083
 51
1.573694
 0
ARC
 8
0
 6
CONTINUOUS
 62
9
 10
16.203334
 20
25.814040
 40
0.164000
 50
150.505732
 51
213.683780
 0
ARC
 8
0
 6
CONTINUOUS
 62
9
 10
16.203943
 20
25.813119
 40
0.164000
 50
213.298010
 51
291.071407
 0
ARC
 8
0
 6
CONTINUOUS
 62
9
 10
16.319273
 20
25.506076
 40
0.164000
 50
32.067660
 51
110.102485
 0
ARC
 8
0
 6
CONTINUOUS
 62
9
 10
13.809000
 20
24.223959
 40
0.508000
 50
233.740958
 51
257.658505
 0
ARC
 8
0
 6
CONTINUOUS
 62
9
 10
13.723992
 20
23.812483
 40
0.088000
 50
254.463615
 51
278.216773
 0
ARC
 8
0
 6
CONTINUOUS
 62
9
 10
13.506678
 20
24.837882
 40
1.136000
 50
281.675526
 51
288.358265
 0
ARC
 8
0
 6
CONTINUOUS
 62
9
 10
-5.043578
 20
27.786104
 40
19.332000
 50
347.978604
 51
349.899554
 0
ARC
 8
0
 6
CONTINUOUS
 62
9
 10
9.879202
 20
25.159646
 40
4.180000
 50
349.470290
 51
353.584769
 0
ARC
 8
0
 6
CONTINUOUS
 62
9
 10
8.687576
 20
25.264896
 40
5.376000
 50
353.889067
 51
358.004666
 0
ARC
 8
0
 6
CONTINUOUS
 62
9
 10
-3.693179
 20
25.795518
 40
17.768000
 50
357.684685
 51
359.956078
 0
ARC
 8
0
 6
CONTINUOUS
 62
9
 10
-4.648825
 20
25.665969
 40
18.724000
 50
0.354734
 51
2.628145
 0
ARC
 8
0
 6
CONTINUOUS
 62
9
 10
15.515432
 20
26.719985
 40
0.012000
 50
160.405927
 51
179.594073
 0
ARC
 8
0
 6
CONTINUOUS
 62
9
 10
15.902034
 20
26.941549
 40
0.456000
 50
209.058294
 51
229.112945
 0
ARC
 8
0
 6
CONTINUOUS
 62
9
 10
15.760305
 20
26.767844
 40
0.232000
 50
227.493903
 51
256.868334
 0
ARC
 8
0
 6
CONTINUOUS
 62
9
 10
15.735179
 20
26.675084
 40
0.136000
 50
258.298794
 51
325.711969
 0
ARC
 8
0
 6
CONTINUOUS
 62
9
 10
15.936031
 20
26.529808
 40
0.112000
 50
58.562035
 51
142.190837
 0
ARC
 8
0
 6
CONTINUOUS
 62
9
 10
15.936482
 20
26.529534
 40
0.112000
 50
11.167701
 51
58.832299
 0
ARC
 8
0
 6
CONTINUOUS
 62
9
 10
14.231339
 20
11.292044
 40
1.100000
 50
144.674499
 51
173.203134
 0
ARC
 8
0
 6
CONTINUOUS
 62
9
 10
11.339769
 20
11.636375
 40
1.812000
 50
335.866821
 51
353.212769
 0
ARC
 8
0
 6
CONTINUOUS
 62
9
 10
12.057643
 20
11.301438
 40
1.020000
 50
330.930042
 51
336.549539
 0
ARC
 8
0
 6
CONTINUOUS
 62
9
 10
-68.517444
 20
57.089040
 40
93.696000
 50
329.794482
 51
330.398025
 0
ARC
 8
0
 6
CONTINUOUS
 62
9
 10
-36.672788
 20
38.558032
 40
56.852000
 50
329.190010
 51
329.788280
 0
ARC
 8
0
 6
CONTINUOUS
 62
9
 10
12.082211
 20
9.487229
 40
0.088000
 50
311.420918
 51
326.651584
 0
ARC
 8
0
 6
CONTINUOUS
 62
9
 10
11.767073
 20
9.805819
 40
0.536000
 50
281.732463
 51
314.151846
 0
ARC
 8
0
 6
CONTINUOUS
 62
9
 10
11.978889
 20
8.791704
 40
0.500000
 50
101.867408
 51
135.940859
 0
ARC
 8
0
 6
CONTINUOUS
 62
9
 10
11.841442
 20
8.925769
 40
0.308000
 50
136.082462
 51
167.047644
 0
ARC
 8
0
 6
CONTINUOUS
 62
9
 10
11.084434
 20
9.113451
 40
0.472000
 50
325.795898
 51
345.441325
 0
ARC
 8
0
 6
CONTINUOUS
 62
9
 10
10.098897
 20
9.740587
 40
1.640000
 50
319.839044
 51
327.030851
 0
ARC
 8
0
 6
CONTINUOUS
 62
9
 10
12.975003
 20
26.832955
 40
0.184000
 50
202.962746
 51
271.797515
 0
ARC
 8
0
 6
CONTINUOUS
 62
9
 10
12.983187
 20
26.477063
 40
0.172000
 50
18.076304
 51
90.803766
 0
ARC
 8
0
 6
CONTINUOUS
 62
9
 10
12.859960
 20
26.442219
 40
0.300000
 50
310.372948
 51
17.100058
 0
ARC
 8
0
 6
CONTINUOUS
 62
9
 10
13.315338
 20
25.905333
 40
0.404000
 50
130.252855
 51
179.356656
 0
ARC
 8
0
 6
CONTINUOUS
 62
9
 10
13.299218
 20
25.899241
 40
0.388000
 50
178.430400
 51
215.530062
 0
ARC
 8
0
 6
CONTINUOUS
 62
9
 10
12.628575
 20
25.420478
 40
0.436000
 50
2.593405
 51
35.515802
 0
ARC
 8
0
 6
CONTINUOUS
 62
9
 10
12.688794
 20
25.417838
 40
0.376000
 50
325.354203
 51
3.410644
 0
ARC
 8
0
 6
CONTINUOUS
 62
9
 10
13.227778
 20
25.043899
 40
0.280000
 50
145.104705
 51
196.773666
 0
ARC
 8
0
 6
CONTINUOUS
 62
9
 10
13.154311
 20
25.024244
 40
0.204000
 50
197.443092
 51
246.089257
 0
ARC
 8
0
 6
CONTINUOUS
 62
9
 10
12.930346
 20
24.532898
 40
0.336000
 50
36.755638
 51
65.135150
 0
ARC
 8
0
 6
CONTINUOUS
 62
9
 10
12.589984
 20
24.273387
 40
0.764000
 50
27.720867
 51
37.074007
 0
ARC
 8
0
 6
CONTINUOUS
 62
9
 10
12.722522
 20
24.347963
 40
0.612000
 50
16.698511
 51
27.312255
 0
ARC
 8
0
 6
CONTINUOUS
 62
9
 10
12.750477
 20
24.352268
 40
0.584000
 50
349.399037
 51
17.081991
 0
ARC
 8
0
 6
CONTINUOUS
 62
9
 10
13.717580
 20
24.170701
 40
0.400000
 50
169.319816
 51
209.652438
 0
ARC
 8
0
 6
CONTINUOUS
 62
9
 10
13.819511
 20
24.226108
 40
0.516000
 50
209.399489
 51
232.940870
 0
ARC
 8
0
 6
CONTINUOUS
 62
9
 10
8.096851
 20
26.271491
 40
5.964000
 50
2.431696
 51
6.440254
 0
LINE
 8
0
 6
CONTINUOUS
 62
9
 10
14.056081
 20
18.880296
 11
13.818120
 21
18.820712
 0
ARC
 8
0
 6
CONTINUOUS
 62
9
 10
16.323739
 20
6.475516
 40
9.784000
 50
105.936500
 51
107.193604
 0
LINE
 8
0
 6
CONTINUOUS
 62
9
 10
18.275769
 20
17.587921
 11
18.318615
 21
17.738772
 0
LINE
 8
0
 6
CONTINUOUS
 62
9
 10
18.054040
 20
17.436117
 11
18.275769
 21
17.587921
 0
LINE
 8
0
 6
CONTINUOUS
 62
9
 10
17.696731
 20
17.482874
 11
18.054040
 21
17.436117
 0
LINE
 8
0
 6
CONTINUOUS
 62
9
 10
17.506754
 20
17.280793
 11
17.696731
 21
17.482874
 0
LINE
 8
0
 6
CONTINUOUS
 62
9
 10
17.221293
 20
17.205214
 11
17.506754
 21
17.280793
 0
ARC
 8
0
 6
CONTINUOUS
 62
9
 10
17.696163
 20
18.156443
 40
0.172000
 50
184.559511
 51
208.570591
 0
ARC
 8
0
 6
CONTINUOUS
 62
9
 10
17.877743
 20
18.240734
 40
0.372000
 50
206.596885
 51
229.882529
 0
ARC
 8
0
 6
CONTINUOUS
 62
9
 10
18.126822
 20
18.579441
 40
0.792000
 50
231.891971
 51
247.964991
 0
LINE
 8
0
 6
CONTINUOUS
 62
9
 10
17.952029
 20
17.848090
 11
17.829685
 21
17.845292
 0
LINE
 8
0
 6
CONTINUOUS
 62
9
 10
18.335504
 20
17.926694
 11
17.952029
 21
17.848090
 0
LINE
 8
0
 6
CONTINUOUS
 62
9
 10
18.719227
 20
17.891527
 11
18.335504
 21
17.926694
 0
LINE
 8
0
 6
CONTINUOUS
 62
9
 10
19.002405
 20
17.723806
 11
18.719227
 21
17.891527
 0
LINE
 8
0
 6
CONTINUOUS
 62
9
 10
18.318615
 20
17.738772
 11
19.002405
 21
17.723806
 0
LINE
 8
0
 6
CONTINUOUS
 62
9
 10
16.487111
 20
18.017037
 11
15.800495
 21
18.361500
 0
LINE
 8
0
 6
CONTINUOUS
 62
9
 10
16.332339
 20
17.922476
 11
16.487111
 21
18.017037
 0
LINE
 8
0
 6
CONTINUOUS
 62
9
 10
15.935648
 20
17.907128
 11
16.332339
 21
17.922476
 0
LINE
 8
0
 6
CONTINUOUS
 62
9
 10
15.560279
 20
17.851464
 11
15.935648
 21
17.907128
 0
LINE
 8
0
 6
CONTINUOUS
 62
9
 10
15.383956
 20
17.772889
 11
15.560279
 21
17.851464
 0
LINE
 8
0
 6
CONTINUOUS
 62
9
 10
15.173122
 20
17.590732
 11
15.383956
 21
17.772889
 0
LINE
 8
0
 6
CONTINUOUS
 62
9
 10
15.651386
 20
17.538895
 11
15.173122
 21
17.590732
 0
LINE
 8
0
 6
CONTINUOUS
 62
9
 10
16.023282
 20
17.574863
 11
15.651386
 21
17.538895
 0
LINE
 8
0
 6
CONTINUOUS
 62
9
 10
16.167207
 20
17.354523
 11
16.023282
 21
17.574863
 0
LINE
 8
0
 6
CONTINUOUS
 62
9
 10
16.088441
 20
17.230313
 11
16.167207
 21
17.354523
 0
LINE
 8
0
 6
CONTINUOUS
 62
9
 10
18.776073
 20
15.680059
 11
18.953767
 21
15.904614
 0
LINE
 8
0
 6
CONTINUOUS
 62
9
 10
18.606735
 20
15.364673
 11
18.776073
 21
15.680059
 0
LINE
 8
0
 6
CONTINUOUS
 62
9
 10
18.264735
 20
15.290940
 11
18.606735
 21
15.364673
 0
LINE
 8
0
 6
CONTINUOUS
 62
9
 10
18.215172
 20
15.125026
 11
18.264735
 21
15.290940
 0
LINE
 8
0
 6
CONTINUOUS
 62
9
 10
18.104426
 20
15.026764
 11
18.215172
 21
15.125026
 0
LINE
 8
0
 6
CONTINUOUS
 62
9
 10
18.199929
 20
14.762160
 11
18.104426
 21
15.026764
 0
LINE
 8
0
 6
CONTINUOUS
 62
9
 10
17.008606
 20
15.354023
 11
17.165786
 21
14.794225
 0
ARC
 8
0
 6
CONTINUOUS
 62
9
 10
17.095747
 20
16.999718
 40
1.648000
 50
259.163988
 51
266.968981
 0
ARC
 8
0
 6
CONTINUOUS
 62
9
 10
16.855560
 20
15.762803
 40
0.388000
 50
243.485015
 51
259.661061
 0
ARC
 8
0
 6
CONTINUOUS
 62
9
 10
16.811432
 20
15.677531
 40
0.292000
 50
208.144701
 51
243.763414
 0
ARC
 8
0
 6
CONTINUOUS
 62
9
 10
16.331261
 20
15.421854
 40
0.252000
 50
27.905691
 51
68.362353
 0
LINE
 8
0
 6
CONTINUOUS
 62
9
 10
18.041704
 20
14.509802
 11
18.199929
 21
14.762160
 0
LINE
 8
0
 6
CONTINUOUS
 62
9
 10
18.252834
 20
14.232934
 11
18.041704
 21
14.509802
 0
LINE
 8
0
 6
CONTINUOUS
 62
9
 10
18.308973
 20
13.768123
 11
18.252834
 21
14.232934
 0
LINE
 8
0
 6
CONTINUOUS
 62
9
 10
18.069214
 20
13.306748
 11
18.308973
 21
13.768123
 0
LINE
 8
0
 6
CONTINUOUS
 62
9
 10
17.454549
 20
14.450865
 11
17.561146
 21
14.387390
 0
LINE
 8
0
 6
CONTINUOUS
 62
9
 10
17.204075
 20
14.389426
 11
17.454549
 21
14.450865
 0
LINE
 8
0
 6
CONTINUOUS
 62
9
 10
16.813188
 20
14.291820
 11
17.204075
 21
14.389426
 0
LINE
 8
0
 6
CONTINUOUS
 62
9
 10
16.343040
 20
14.297547
 11
16.813188
 21
14.291820
 0
LINE
 8
0
 6
CONTINUOUS
 62
9
 10
16.424514
 20
16.602416
 11
16.560740
 21
16.753049
 0
LINE
 8
0
 6
CONTINUOUS
 62
9
 10
17.356179
 20
17.002715
 11
16.997529
 21
16.696340
 0
LINE
 8
0
 6
CONTINUOUS
 62
9
 10
18.218871
 20
16.850599
 11
17.356179
 21
17.002715
 0
LINE
 8
0
 6
CONTINUOUS
 62
9
 10
18.191135
 20
16.347777
 11
18.218871
 21
16.850599
 0
LINE
 8
0
 6
CONTINUOUS
 62
9
 10
16.629450
 20
15.875790
 11
16.463983
 21
16.043064
 0
LINE
 8
0
 6
CONTINUOUS
 62
9
 10
16.617594
 20
16.154076
 11
16.629450
 21
15.875790
 0
LINE
 8
0
 6
CONTINUOUS
 62
9
 10
16.707482
 20
16.272263
 11
16.617594
 21
16.154076
 0
LINE
 8
0
 6
CONTINUOUS
 62
9
 10
16.997529
 20
16.696340
 11
16.707482
 21
16.272263
 0
LINE
 8
0
 6
CONTINUOUS
 62
9
 10
18.333928
 20
15.936736
 11
18.191135
 21
16.347777
 0
LINE
 8
0
 6
CONTINUOUS
 62
9
 10
17.192515
 20
16.862906
 11
17.221293
 21
17.205214
 0
LINE
 8
0
 6
CONTINUOUS
 62
9
 10
15.836825
 20
17.047224
 11
16.088441
 21
17.230313
 0
LINE
 8
0
 6
CONTINUOUS
 62
9
 10
15.600710
 20
17.044179
 11
15.836825
 21
17.047224
 0
LINE
 8
0
 6
CONTINUOUS
 62
9
 10
16.367309
 20
16.393170
 11
16.424514
 21
16.602416
 0
LINE
 8
0
 6
CONTINUOUS
 62
9
 10
16.403714
 20
16.208036
 11
16.367309
 21
16.393170
 0
LINE
 8
0
 6
CONTINUOUS
 62
9
 10
16.463983
 20
16.043064
 11
16.403714
 21
16.208036
 0
LINE
 8
0
 6
CONTINUOUS
 62
9
 10
18.747965
 20
16.188667
 11
18.333928
 21
15.936736
 0
LINE
 8
0
 6
CONTINUOUS
 62
9
 10
19.221320
 20
16.454508
 11
18.747965
 21
16.188667
 0
LINE
 8
0
 6
CONTINUOUS
 62
9
 10
19.556382
 20
16.419798
 11
19.221320
 21
16.454508
 0
LINE
 8
0
 6
CONTINUOUS
 62
9
 10
19.816619
 20
16.260183
 11
19.556382
 21
16.419798
 0
LINE
 8
0
 6
CONTINUOUS
 62
9
 10
19.472774
 20
16.129912
 11
19.816619
 21
16.260183
 0
LINE
 8
0
 6
CONTINUOUS
 62
9
 10
19.254290
 20
15.973475
 11
19.472774
 21
16.129912
 0
LINE
 8
0
 6
CONTINUOUS
 62
9
 10
19.073314
 20
16.029756
 11
19.254290
 21
15.973475
 0
LINE
 8
0
 6
CONTINUOUS
 62
9
 10
18.953767
 20
15.904614
 11
19.073314
 21
16.029756
 0
ARC
 8
0
 6
CONTINUOUS
 62
9
 10
13.339330
 20
12.657969
 40
0.592000
 50
292.418048
 51
320.918651
 0
ARC
 8
0
 6
CONTINUOUS
 62
9
 10
13.761161
 20
11.624772
 40
0.524000
 50
111.972994
 51
144.630745
 0
ARC
 8
0
 6
CONTINUOUS
 62
9
 10
14.339897
 20
14.969147
 40
0.752000
 50
306.927883
 51
325.691997
 0
ARC
 8
0
 6
CONTINUOUS
 62
9
 10
15.125668
 20
13.923476
 40
0.556000
 50
126.916581
 51
152.436203
 0
ARC
 8
0
 6
CONTINUOUS
 62
9
 10
15.249238
 20
13.857662
 40
0.696000
 50
152.340389
 51
181.004808
 0
ARC
 8
0
 6
CONTINUOUS
 62
9
 10
13.837516
 20
13.829811
 40
0.716000
 50
333.421941
 51
1.252058
 0
ARC
 8
0
 6
CONTINUOUS
 62
9
 10
14.168271
 20
13.668403
 40
0.348000
 50
308.460905
 51
332.823589
 0
ARC
 8
0
 6
CONTINUOUS
 62
9
 10
14.676467
 20
13.024872
 40
0.472000
 50
128.178048
 51
146.164873
 0
ARC
 8
0
 6
CONTINUOUS
 62
9
 10
15.811891
 20
12.298147
 40
1.820000
 50
147.064027
 51
164.663840
 0
ARC
 8
0
 6
CONTINUOUS
 62
9
 10
12.747373
 20
13.147285
 40
1.360000
 50
320.638559
 51
344.310301
 0
ARC
 8
0
 6
CONTINUOUS
 62
9
 10
21.842941
 20
6.937014
 40
14.760000
 50
150.373636
 51
155.571943
 0
ARC
 8
0
 6
CONTINUOUS
 62
9
 10
-0.936729
 20
19.367917
 40
11.196000
 50
332.703596
 51
334.517312
 0
ARC
 8
0
 6
CONTINUOUS
 62
9
 10
9.952015
 20
15.893743
 40
0.896000
 50
214.333617
 51
224.139174
 0
ARC
 8
0
 6
CONTINUOUS
 62
9
 10
11.687261
 20
17.047943
 40
2.980000
 50
204.040550
 51
213.841475
 0
ARC
 8
0
 6
CONTINUOUS
 62
9
 10
11.014721
 20
16.739111
 40
2.240000
 50
192.555587
 51
203.834360
 0
ARC
 8
0
 6
CONTINUOUS
 62
9
 10
11.011438
 20
16.735445
 40
2.236000
 50
181.114569
 51
192.482176
 0
LINE
 8
0
 6
CONTINUOUS
 62
9
 10
9.949163
 20
15.721465
 11
10.083820
 21
15.494636
 0
LINE
 8
0
 6
CONTINUOUS
 62
9
 10
9.938468
 20
15.983300
 11
9.949163
 21
15.721465
 0
LINE
 8
0
 6
CONTINUOUS
 62
9
 10
9.905259
 20
16.509054
 11
9.938468
 21
15.983300
 0
ARC
 8
0
 6
CONTINUOUS
 62
9
 10
6.605217
 20
15.025666
 40
4.328000
 50
18.030371
 51
23.517702
 0
ARC
 8
0
 6
CONTINUOUS
 62
9
 10
9.491542
 20
15.967175
 40
1.292000
 50
7.917876
 51
17.946325
 0
ARC
 8
0
 6
CONTINUOUS
 62
9
 10
9.916433
 20
16.019347
 40
0.864000
 50
350.552192
 51
8.372458
 0
ARC
 8
0
 6
CONTINUOUS
 62
9
 10
11.916249
 20
15.682440
 40
1.164000
 50
170.351898
 51
183.470561
 0
ARC
 8
0
 6
CONTINUOUS
 62
9
 10
15.134422
 20
15.876193
 40
4.388000
 50
183.452065
 51
188.892256
 0
ARC
 8
0
 6
CONTINUOUS
 62
9
 10
11.012794
 20
15.229807
 40
0.216000
 50
188.491829
 51
213.435680
 0
ARC
 8
0
 6
CONTINUOUS
 62
9
 10
10.978361
 20
15.216320
 40
0.180000
 50
215.893127
 51
240.096121
 0
ARC
 8
0
 6
CONTINUOUS
 62
9
 10
13.229911
 20
18.771472
 40
4.388000
 50
237.753284
 51
242.694571
 0
LINE
 8
0
 6
CONTINUOUS
 62
9
 10
11.023547
 20
14.581583
 11
11.486254
 21
14.764006
 0
LINE
 8
0
 6
CONTINUOUS
 62
9
 10
11.023547
 20
14.581583
 11
11.023547
 21
14.581583
 0
ARC
 8
0
 6
CONTINUOUS
 62
9
 10
23.814272
 20
70.308527
 40
57.176000
 50
256.567259
 51
257.073075
 0
ARC
 8
0
 6
CONTINUOUS
 62
9
 10
10.984957
 20
16.562498
 40
1.920000
 50
250.223871
 51
256.356452
 0
ARC
 8
0
 6
CONTINUOUS
 62
9
 10
10.117949
 20
14.098767
 40
0.692000
 50
71.691168
 51
88.308827
 0
ARC
 8
0
 6
CONTINUOUS
 62
9
 10
10.128967
 20
14.586682
 40
0.204000
 50
87.357805
 51
115.383437
 0
ARC
 8
0
 6
CONTINUOUS
 62
9
 10
9.976626
 20
14.904003
 40
0.148000
 50
256.514994
 51
296.005400
 0
ARC
 8
0
 6
CONTINUOUS
 62
9
 10
9.996567
 20
15.014317
 40
0.260000
 50
235.097761
 51
257.910784
 0
CIRCLE
 8
0
 6
CONTINUOUS
 62
9
 10
19.306000
 20
5.066500
 40
0.250000
 0
CIRCLE
 8
0
 6
CONTINUOUS
 62
9
 10
19.306000
 20
11.067000
 40
0.250000
 0
CIRCLE
 8
0
 6
CONTINUOUS
 62
9
 10
19.306000
 20
17.067000
 40
0.250000
 0
CIRCLE
 8
0
 6
CONTINUOUS
 62
9
 10
19.306000
 20
23.067000
 40
0.250000
 0
CIRCLE
 8
0
 6
CONTINUOUS
 62
9
 10
19.306000
 20
29.067000
 40
0.250000
 0
CIRCLE
 8
0
 6
CONTINUOUS
 62
9
 10
19.306000
 20
35.067000
 40
0.250000
 0
LINE
 8
0
 6
CONTINUOUS
 62
9
 10
17.056000
 20
4.500000
 11
17.056000
 21
13.331047
 0
ARC
 8
0
 6
CONTINUOUS
 62
9
 10
18.056000
 20
4.500000
 40
1.000000
 50
180.000005
 51
270.000001
 0
LINE
 8
0
 6
CONTINUOUS
 62
9
 10
18.056000
 20
3.500000
 11
20.556000
 21
3.500000
 0
ARC
 8
0
 6
CONTINUOUS
 62
9
 10
20.556000
 20
4.500000
 40
1.000000
 50
270.000001
 51
0.000000
 0
ARC
 8
0
 6
CONTINUOUS
 62
9
 10
20.556000
 20
35.638000
 40
1.000000
 50
0.000000
 51
90.000003
 0
LINE
 8
0
 6
CONTINUOUS
 62
9
 10
17.056000
 20
23.920167
 11
17.056000
 21
35.638000
 0
ARC
 8
0
 6
CONTINUOUS
 62
9
 10
18.056000
 20
35.638000
 40
1.000000
 50
90.000003
 51
180.000005
 0
LINE
 8
0
 6
CONTINUOUS
 62
9
 10
20.556000
 20
36.638000
 11
18.056000
 21
36.638000
 0
LINE
 8
0
 6
CONTINUOUS
 62
9
 10
21.556000
 20
35.638000
 11
21.556000
 21
4.500000
 0
ENDSEC
0
EOF
