0
SECTION
2
HEADER
9
$ACADVER
1
AC1006
9
$INSBASE
10
0.0
20
0.0
30
0.0
9
$EXTMIN
10
0
20
0
9
$EXTMAX
10
8.000
20
8.000
9
$LUNITS
70
2
9
$VIEWCTR
10
4.000
20
4.000
9
$VIEWSIZE
40
8.000
0
ENDSEC
0
SECTION
2
TABLES
0
TABLE
2
LAYER
70
9
0
LAYER
2
0
70
0
62
7
6
CONTINUOUS
0
LAYER
2
1
70
0
62
7
6
CONTINUOUS
0
LAYER
2
2
70
0
62
6
6
CONTINUOUS
0
LAYER
2
3
70
0
62
6
6
CONTINUOUS
0
ENDTAB
0
ENDSEC
0
SECTION
2
ENTITIES
0
POLYLINE
8
1
6
CONTINUOUS
66
1
70
1
0
VERTEX
8
1
10
3.803
20
2.465
0
VERTEX
8
1
10
3.756
20
2.357
0
VERTEX
8
1
10
3.739
20
2.319
0
VERTEX
8
1
10
3.698
20
2.190
0
VERTEX
8
1
10
3.685
20
2.074
0
VERTEX
8
1
10
3.669
20
1.989
0
VERTEX
8
1
10
3.664
20
1.975
0
VERTEX
8
1
10
3.651
20
1.965
0
VERTEX
8
1
10
3.639
20
1.997
0
VERTEX
8
1
10
3.619
20
2.100
0
VERTEX
8
1
10
3.619
20
2.139
0
VERTEX
8
1
10
3.650
20
2.227
0
VERTEX
8
1
10
3.679
20
2.294
0
VERTEX
8
1
10
3.753
20
2.430
0
VERTEX
8
1
10
3.781
20
2.477
0
VERTEX
8
1
10
3.817
20
2.517
  0
SEQEND
0
POLYLINE
8
1
6
CONTINUOUS
66
1
70
1
0
VERTEX
8
1
10
5.124
20
3.457
0
VERTEX
8
1
10
5.288
20
3.387
0
VERTEX
8
1
10
5.426
20
3.310
0
VERTEX
8
1
10
5.490
20
3.252
0
VERTEX
8
1
10
5.527
20
3.209
0
VERTEX
8
1
10
5.511
20
3.162
0
VERTEX
8
1
10
5.489
20
3.061
0
VERTEX
8
1
10
5.488
20
3.017
0
VERTEX
8
1
10
5.504
20
2.948
0
VERTEX
8
1
10
5.549
20
2.872
0
VERTEX
8
1
10
5.626
20
2.793
0
VERTEX
8
1
10
5.662
20
2.760
0
VERTEX
8
1
10
5.674
20
2.694
0
VERTEX
8
1
10
5.700
20
2.635
0
VERTEX
8
1
10
5.726
20
2.596
0
VERTEX
8
1
10
5.723
20
2.581
0
VERTEX
8
1
10
5.677
20
2.582
0
VERTEX
8
1
10
5.636
20
2.556
0
VERTEX
8
1
10
5.623
20
2.556
0
VERTEX
8
1
10
5.565
20
2.575
0
VERTEX
8
1
10
5.536
20
2.594
0
VERTEX
8
1
10
5.492
20
2.672
0
VERTEX
8
1
10
5.423
20
2.800
0
VERTEX
8
1
10
5.197
20
3.217
0
VERTEX
8
1
10
5.094
20
3.407
0
VERTEX
8
1
10
5.069
20
3.453
0
VERTEX
8
1
10
5.069
20
3.469
  0
SEQEND
0
POLYLINE
8
1
6
CONTINUOUS
66
1
70
1
0
VERTEX
8
1
10
5.383
20
2.659
0
VERTEX
8
1
10
5.320
20
2.688
0
VERTEX
8
1
10
5.196
20
2.757
0
VERTEX
8
1
10
5.075
20
2.836
0
VERTEX
8
1
10
4.987
20
2.925
0
VERTEX
8
1
10
4.884
20
3.061
0
VERTEX
8
1
10
4.766
20
3.260
0
VERTEX
8
1
10
4.684
20
3.439
0
VERTEX
8
1
10
4.662
20
3.479
0
VERTEX
8
1
10
4.659
20
3.503
0
VERTEX
8
1
10
4.666
20
3.510
0
VERTEX
8
1
10
4.722
20
3.523
0
VERTEX
8
1
10
4.878
20
3.512
0
VERTEX
8
1
10
4.918
20
3.509
0
VERTEX
8
1
10
4.949
20
3.495
0
VERTEX
8
1
10
5.026
20
3.352
0
VERTEX
8
1
10
5.186
20
3.052
0
VERTEX
8
1
10
5.317
20
2.806
0
VERTEX
8
1
10
5.356
20
2.740
0
VERTEX
8
1
10
5.393
20
2.658
  0
SEQEND
0
POLYLINE
8
1
6
CONTINUOUS
66
1
70
1
0
VERTEX
8
1
10
2.671
20
2.874
0
VERTEX
8
1
10
2.748
20
2.871
0
VERTEX
8
1
10
2.794
20
2.890
0
VERTEX
8
1
10
2.835
20
2.941
0
VERTEX
8
1
10
2.849
20
2.994
0
VERTEX
8
1
10
2.848
20
3.013
0
VERTEX
8
1
10
2.836
20
3.036
0
VERTEX
8
1
10
2.823
20
3.039
0
VERTEX
8
1
10
2.786
20
3.014
0
VERTEX
8
1
10
2.727
20
2.983
0
VERTEX
8
1
10
2.683
20
2.980
0
VERTEX
8
1
10
2.655
20
2.999
0
VERTEX
8
1
10
2.654
20
3.010
0
VERTEX
8
1
10
2.696
20
3.046
0
VERTEX
8
1
10
2.705
20
3.067
0
VERTEX
8
1
10
2.679
20
3.099
0
VERTEX
8
1
10
2.673
20
3.140
0
VERTEX
8
1
10
2.685
20
3.230
0
VERTEX
8
1
10
2.684
20
3.331
0
VERTEX
8
1
10
2.675
20
3.398
0
VERTEX
8
1
10
2.682
20
3.451
0
VERTEX
8
1
10
2.707
20
3.500
0
VERTEX
8
1
10
2.739
20
3.522
0
VERTEX
8
1
10
2.778
20
3.521
0
VERTEX
8
1
10
2.857
20
3.471
0
VERTEX
8
1
10
2.904
20
3.440
0
VERTEX
8
1
10
3.126
20
3.313
0
VERTEX
8
1
10
3.155
20
3.298
0
VERTEX
8
1
10
3.373
20
3.197
0
VERTEX
8
1
10
3.529
20
3.145
0
VERTEX
8
1
10
3.618
20
3.115
0
VERTEX
8
1
10
3.648
20
3.107
0
VERTEX
8
1
10
3.663
20
3.087
0
VERTEX
8
1
10
3.666
20
3.069
0
VERTEX
8
1
10
3.646
20
2.979
0
VERTEX
8
1
10
3.641
20
2.962
0
VERTEX
8
1
10
3.584
20
2.843
0
VERTEX
8
1
10
3.548
20
2.747
0
VERTEX
8
1
10
3.489
20
2.646
0
VERTEX
8
1
10
3.482
20
2.626
0
VERTEX
8
1
10
3.486
20
2.542
0
VERTEX
8
1
10
3.487
20
2.533
0
VERTEX
8
1
10
3.479
20
2.444
0
VERTEX
8
1
10
3.468
20
2.399
0
VERTEX
8
1
10
3.410
20
2.225
0
VERTEX
8
1
10
3.385
20
2.168
0
VERTEX
8
1
10
3.343
20
2.052
0
VERTEX
8
1
10
3.334
20
1.987
0
VERTEX
8
1
10
3.345
20
1.932
0
VERTEX
8
1
10
3.392
20
1.883
0
VERTEX
8
1
10
3.413
20
1.785
0
VERTEX
8
1
10
3.422
20
1.746
0
VERTEX
8
1
10
3.419
20
1.742
0
VERTEX
8
1
10
3.385
20
1.738
0
VERTEX
8
1
10
3.347
20
1.737
0
VERTEX
8
1
10
3.268
20
1.745
0
VERTEX
8
1
10
3.250
20
1.756
0
VERTEX
8
1
10
3.217
20
1.806
0
VERTEX
8
1
10
3.189
20
1.858
0
VERTEX
8
1
10
3.184
20
1.864
0
VERTEX
8
1
10
3.169
20
1.897
0
VERTEX
8
1
10
3.185
20
1.956
0
VERTEX
8
1
10
3.192
20
2.003
0
VERTEX
8
1
10
3.158
20
2.079
0
VERTEX
8
1
10
3.080
20
2.160
0
VERTEX
8
1
10
3.009
20
2.214
0
VERTEX
8
1
10
2.836
20
2.309
0
VERTEX
8
1
10
2.676
20
2.398
0
VERTEX
8
1
10
2.626
20
2.437
0
VERTEX
8
1
10
2.576
20
2.494
0
VERTEX
8
1
10
2.561
20
2.538
0
VERTEX
8
1
10
2.630
20
2.475
0
VERTEX
8
1
10
2.639
20
2.467
0
VERTEX
8
1
10
2.664
20
2.458
0
VERTEX
8
1
10
2.679
20
2.472
0
VERTEX
8
1
10
2.664
20
2.538
0
VERTEX
8
1
10
2.660
20
2.562
0
VERTEX
8
1
10
2.671
20
2.569
0
VERTEX
8
1
10
2.720
20
2.547
0
VERTEX
8
1
10
2.779
20
2.491
0
VERTEX
8
1
10
2.808
20
2.444
0
VERTEX
8
1
10
2.811
20
2.404
0
VERTEX
8
1
10
2.822
20
2.374
0
VERTEX
8
1
10
2.839
20
2.365
0
VERTEX
8
1
10
2.861
20
2.375
0
VERTEX
8
1
10
2.893
20
2.423
0
VERTEX
8
1
10
2.906
20
2.456
0
VERTEX
8
1
10
2.908
20
2.477
0
VERTEX
8
1
10
2.894
20
2.535
0
VERTEX
8
1
10
2.852
20
2.609
0
VERTEX
8
1
10
2.816
20
2.647
0
VERTEX
8
1
10
2.809
20
2.666
0
VERTEX
8
1
10
2.841
20
2.663
0
VERTEX
8
1
10
2.903
20
2.632
0
VERTEX
8
1
10
2.923
20
2.643
0
VERTEX
8
1
10
2.923
20
2.674
0
VERTEX
8
1
10
2.889
20
2.728
0
VERTEX
8
1
10
2.824
20
2.784
0
VERTEX
8
1
10
2.745
20
2.824
0
VERTEX
8
1
10
2.730
20
2.829
0
VERTEX
8
1
10
2.647
20
2.858
0
VERTEX
8
1
10
2.630
20
2.880
  0
SEQEND
0
POLYLINE
8
1
6
CONTINUOUS
66
1
70
1
0
VERTEX
8
1
10
1.143
20
1.743
0
VERTEX
8
1
10
1.194
20
1.721
0
VERTEX
8
1
10
1.254
20
1.731
0
VERTEX
8
1
10
1.400
20
1.743
0
VERTEX
8
1
10
1.581
20
1.743
0
VERTEX
8
1
10
1.710
20
1.724
0
VERTEX
8
1
10
1.945
20
1.720
0
VERTEX
8
1
10
2.464
20
1.769
0
VERTEX
8
1
10
2.660
20
1.777
0
VERTEX
8
1
10
2.704
20
1.775
0
VERTEX
8
1
10
2.759
20
1.779
0
VERTEX
8
1
10
2.764
20
1.782
0
VERTEX
8
1
10
2.768
20
1.816
0
VERTEX
8
1
10
2.768
20
1.826
0
VERTEX
8
1
10
2.776
20
1.889
0
VERTEX
8
1
10
2.793
20
1.925
0
VERTEX
8
1
10
2.792
20
1.954
0
VERTEX
8
1
10
2.780
20
1.971
0
VERTEX
8
1
10
2.729
20
1.996
0
VERTEX
8
1
10
2.602
20
2.061
0
VERTEX
8
1
10
2.486
20
2.123
0
VERTEX
8
1
10
2.346
20
2.211
0
VERTEX
8
1
10
2.241
20
2.310
0
VERTEX
8
1
10
2.139
20
2.354
0
VERTEX
8
1
10
2.104
20
2.385
0
VERTEX
8
1
10
2.073
20
2.458
0
VERTEX
8
1
10
2.067
20
2.576
0
VERTEX
8
1
10
2.067
20
2.766
0
VERTEX
8
1
10
2.071
20
2.810
0
VERTEX
8
1
10
2.072
20
2.884
0
VERTEX
8
1
10
2.054
20
2.921
0
VERTEX
8
1
10
2.028
20
2.939
0
VERTEX
8
1
10
1.929
20
2.961
0
VERTEX
8
1
10
1.888
20
2.983
0
VERTEX
8
1
10
1.852
20
2.985
0
VERTEX
8
1
10
1.777
20
3.078
0
VERTEX
8
1
10
1.700
20
3.115
0
VERTEX
8
1
10
1.615
20
3.150
0
VERTEX
8
1
10
1.554
20
3.211
0
VERTEX
8
1
10
1.495
20
3.273
0
VERTEX
8
1
10
1.471
20
3.286
0
VERTEX
8
1
10
1.344
20
3.299
0
VERTEX
8
1
10
1.295
20
3.319
0
VERTEX
8
1
10
1.245
20
3.375
0
VERTEX
8
1
10
1.192
20
3.520
0
VERTEX
8
1
10
1.151
20
3.538
0
VERTEX
8
1
10
1.147
20
3.541
0
VERTEX
8
1
10
1.127
20
3.581
0
VERTEX
8
1
10
1.120
20
3.624
0
VERTEX
8
1
10
1.127
20
3.702
0
VERTEX
8
1
10
1.197
20
3.881
0
VERTEX
8
1
10
1.217
20
3.976
0
VERTEX
8
1
10
1.237
20
4.016
0
VERTEX
8
1
10
1.281
20
4.071
0
VERTEX
8
1
10
1.357
20
4.122
0
VERTEX
8
1
10
1.403
20
4.174
0
VERTEX
8
1
10
1.524
20
4.287
0
VERTEX
8
1
10
1.664
20
4.422
0
VERTEX
8
1
10
1.773
20
4.515
0
VERTEX
8
1
10
1.894
20
4.628
0
VERTEX
8
1
10
1.992
20
4.697
0
VERTEX
8
1
10
2.123
20
4.751
0
VERTEX
8
1
10
2.431
20
4.820
0
VERTEX
8
1
10
2.512
20
4.828
0
VERTEX
8
1
10
2.739
20
4.853
0
VERTEX
8
1
10
2.958
20
4.853
0
VERTEX
8
1
10
3.124
20
4.833
0
VERTEX
8
1
10
3.151
20
4.829
0
VERTEX
8
1
10
3.183
20
4.832
0
VERTEX
8
1
10
3.218
20
4.868
0
VERTEX
8
1
10
3.238
20
4.930
0
VERTEX
8
1
10
3.261
20
5.032
0
VERTEX
8
1
10
3.286
20
5.073
0
VERTEX
8
1
10
3.322
20
5.134
0
VERTEX
8
1
10
3.316
20
5.187
0
VERTEX
8
1
10
3.308
20
5.272
0
VERTEX
8
1
10
3.303
20
5.514
0
VERTEX
8
1
10
3.316
20
5.636
0
VERTEX
8
1
10
3.355
20
5.736
0
VERTEX
8
1
10
3.405
20
5.820
0
VERTEX
8
1
10
3.495
20
5.918
0
VERTEX
8
1
10
3.549
20
5.960
0
VERTEX
8
1
10
3.560
20
5.982
0
VERTEX
8
1
10
3.533
20
6.033
0
VERTEX
8
1
10
3.469
20
6.143
0
VERTEX
8
1
10
3.244
20
6.527
0
VERTEX
8
1
10
3.014
20
6.918
0
VERTEX
8
1
10
2.965
20
6.997
0
VERTEX
8
1
10
2.958
20
7.035
0
VERTEX
8
1
10
2.974
20
7.059
0
VERTEX
8
1
10
2.987
20
7.066
0
VERTEX
8
1
10
3.012
20
7.064
0
VERTEX
8
1
10
3.043
20
7.028
0
VERTEX
8
1
10
3.152
20
6.843
0
VERTEX
8
1
10
3.504
20
6.247
0
VERTEX
8
1
10
3.593
20
6.096
0
VERTEX
8
1
10
3.609
20
6.066
0
VERTEX
8
1
10
3.631
20
6.040
0
VERTEX
8
1
10
3.667
20
6.060
0
VERTEX
8
1
10
3.762
20
6.128
0
VERTEX
8
1
10
3.814
20
6.153
0
VERTEX
8
1
10
3.911
20
6.176
0
VERTEX
8
1
10
4.088
20
6.180
0
VERTEX
8
1
10
4.113
20
6.178
0
VERTEX
8
1
10
4.210
20
6.137
0
VERTEX
8
1
10
4.324
20
6.084
0
VERTEX
8
1
10
4.439
20
6.045
0
VERTEX
8
1
10
4.477
20
6.063
0
VERTEX
8
1
10
4.540
20
6.093
0
VERTEX
8
1
10
4.619
20
6.107
0
VERTEX
8
1
10
4.751
20
6.103
0
VERTEX
8
1
10
4.776
20
6.099
0
VERTEX
8
1
10
4.842
20
6.068
0
VERTEX
8
1
10
4.916
20
6.004
0
VERTEX
8
1
10
4.948
20
5.959
0
VERTEX
8
1
10
4.976
20
5.935
0
VERTEX
8
1
10
5.032
20
5.957
0
VERTEX
8
1
10
5.058
20
5.966
0
VERTEX
8
1
10
5.148
20
5.976
0
VERTEX
8
1
10
5.259
20
5.975
0
VERTEX
8
1
10
5.303
20
5.969
0
VERTEX
8
1
10
5.448
20
5.950
0
VERTEX
8
1
10
5.486
20
5.946
0
VERTEX
8
1
10
5.520
20
5.931
0
VERTEX
8
1
10
5.524
20
5.911
0
VERTEX
8
1
10
5.516
20
5.897
0
VERTEX
8
1
10
5.454
20
5.849
0
VERTEX
8
1
10
5.371
20
5.810
0
VERTEX
8
1
10
5.294
20
5.797
0
VERTEX
8
1
10
5.217
20
5.809
0
VERTEX
8
1
10
5.087
20
5.852
0
VERTEX
8
1
10
5.064
20
5.859
0
VERTEX
8
1
10
5.026
20
5.860
0
VERTEX
8
1
10
5.073
20
5.815
0
VERTEX
8
1
10
5.113
20
5.764
0
VERTEX
8
1
10
5.299
20
5.478
0
VERTEX
8
1
10
5.362
20
5.360
0
VERTEX
8
1
10
5.387
20
5.315
0
VERTEX
8
1
10
5.374
20
5.297
0
VERTEX
8
1
10
5.338
20
5.304
0
VERTEX
8
1
10
5.245
20
5.349
0
VERTEX
8
1
10
5.183
20
5.393
0
VERTEX
8
1
10
5.169
20
5.411
0
VERTEX
8
1
10
5.127
20
5.514
0
VERTEX
8
1
10
5.050
20
5.695
0
VERTEX
8
1
10
5.032
20
5.750
0
VERTEX
8
1
10
5.006
20
5.795
0
VERTEX
8
1
10
5.001
20
5.712
0
VERTEX
8
1
10
4.995
20
5.693
0
VERTEX
8
1
10
4.959
20
5.642
0
VERTEX
8
1
10
4.934
20
5.628
0
VERTEX
8
1
10
4.893
20
5.636
0
VERTEX
8
1
10
4.852
20
5.642
0
VERTEX
8
1
10
4.765
20
5.597
0
VERTEX
8
1
10
4.730
20
5.596
0
VERTEX
8
1
10
4.688
20
5.591
0
VERTEX
8
1
10
4.630
20
5.548
0
VERTEX
8
1
10
4.591
20
5.536
0
VERTEX
8
1
10
4.576
20
5.540
0
VERTEX
8
1
10
4.559
20
5.564
0
VERTEX
8
1
10
4.543
20
5.591
0
VERTEX
8
1
10
4.504
20
5.582
0
VERTEX
8
1
10
4.482
20
5.579
0
VERTEX
8
1
10
4.423
20
5.583
0
VERTEX
8
1
10
4.404
20
5.594
0
VERTEX
8
1
10
4.386
20
5.596
0
VERTEX
8
1
10
4.379
20
5.589
0
VERTEX
8
1
10
4.366
20
5.543
0
VERTEX
8
1
10
4.362
20
5.498
0
VERTEX
8
1
10
4.345
20
5.296
0
VERTEX
8
1
10
4.328
20
5.211
0
VERTEX
8
1
10
4.385
20
5.136
0
VERTEX
8
1
10
4.414
20
5.042
0
VERTEX
8
1
10
4.417
20
5.015
0
VERTEX
8
1
10
4.432
20
4.977
0
VERTEX
8
1
10
4.494
20
4.949
0
VERTEX
8
1
10
4.509
20
4.942
0
VERTEX
8
1
10
4.561
20
4.906
0
VERTEX
8
1
10
4.600
20
4.843
0
VERTEX
8
1
10
4.642
20
4.783
0
VERTEX
8
1
10
4.751
20
4.725
0
VERTEX
8
1
10
4.836
20
4.614
0
VERTEX
8
1
10
4.884
20
4.588
0
VERTEX
8
1
10
4.947
20
4.557
0
VERTEX
8
1
10
4.970
20
4.523
0
VERTEX
8
1
10
4.997
20
4.483
0
VERTEX
8
1
10
5.034
20
4.481
0
VERTEX
8
1
10
5.052
20
4.481
0
VERTEX
8
1
10
5.095
20
4.466
0
VERTEX
8
1
10
5.136
20
4.402
0
VERTEX
8
1
10
5.163
20
4.370
0
VERTEX
8
1
10
5.196
20
4.373
0
VERTEX
8
1
10
5.218
20
4.374
0
VERTEX
8
1
10
5.261
20
4.364
0
VERTEX
8
1
10
5.267
20
4.360
0
VERTEX
8
1
10
5.296
20
4.322
0
VERTEX
8
1
10
5.309
20
4.292
0
VERTEX
8
1
10
5.363
20
4.289
0
VERTEX
8
1
10
5.464
20
4.280
0
VERTEX
8
1
10
5.496
20
4.272
0
VERTEX
8
1
10
5.565
20
4.223
0
VERTEX
8
1
10
5.608
20
4.190
0
VERTEX
8
1
10
5.611
20
4.167
0
VERTEX
8
1
10
5.593
20
4.157
0
VERTEX
8
1
10
5.547
20
4.170
0
VERTEX
8
1
10
5.535
20
4.170
0
VERTEX
8
1
10
5.526
20
4.162
0
VERTEX
8
1
10
5.528
20
4.157
0
VERTEX
8
1
10
5.569
20
4.124
0
VERTEX
8
1
10
5.625
20
4.096
0
VERTEX
8
1
10
5.682
20
4.056
0
VERTEX
8
1
10
5.726
20
3.984
0
VERTEX
8
1
10
5.782
20
3.948
0
VERTEX
8
1
10
5.819
20
3.915
0
VERTEX
8
1
10
5.814
20
3.891
0
VERTEX
8
1
10
5.809
20
3.874
0
VERTEX
8
1
10
5.849
20
3.854
0
VERTEX
8
1
10
5.898
20
3.801
0
VERTEX
8
1
10
5.923
20
3.730
0
VERTEX
8
1
10
5.946
20
3.687
0
VERTEX
8
1
10
5.955
20
3.680
0
VERTEX
8
1
10
6.009
20
3.666
0
VERTEX
8
1
10
6.102
20
3.649
0
VERTEX
8
1
10
6.154
20
3.624
0
VERTEX
8
1
10
6.194
20
3.565
0
VERTEX
8
1
10
6.221
20
3.525
0
VERTEX
8
1
10
6.209
20
3.484
0
VERTEX
8
1
10
6.218
20
3.465
0
VERTEX
8
1
10
6.278
20
3.405
0
VERTEX
8
1
10
6.323
20
3.382
0
VERTEX
8
1
10
6.337
20
3.360
0
VERTEX
8
1
10
6.329
20
3.343
0
VERTEX
8
1
10
6.286
20
3.344
0
VERTEX
8
1
10
6.268
20
3.337
0
VERTEX
8
1
10
6.289
20
3.274
0
VERTEX
8
1
10
6.282
20
3.251
0
VERTEX
8
1
10
6.267
20
3.244
0
VERTEX
8
1
10
6.236
20
3.261
0
VERTEX
8
1
10
6.231
20
3.265
0
VERTEX
8
1
10
6.221
20
3.263
0
VERTEX
8
1
10
6.219
20
3.235
0
VERTEX
8
1
10
6.241
20
3.180
0
VERTEX
8
1
10
6.272
20
3.143
0
VERTEX
8
1
10
6.309
20
3.122
0
VERTEX
8
1
10
6.316
20
3.103
0
VERTEX
8
1
10
6.311
20
3.092
0
VERTEX
8
1
10
6.283
20
3.071
0
VERTEX
8
1
10
6.226
20
3.061
0
VERTEX
8
1
10
6.188
20
3.059
0
VERTEX
8
1
10
6.173
20
3.020
0
VERTEX
8
1
10
6.147
20
2.922
0
VERTEX
8
1
10
6.144
20
2.865
0
VERTEX
8
1
10
6.130
20
2.756
0
VERTEX
8
1
10
6.092
20
2.581
0
VERTEX
8
1
10
6.106
20
2.435
0
VERTEX
8
1
10
6.093
20
2.385
0
VERTEX
8
1
10
6.080
20
2.366
0
VERTEX
8
1
10
5.991
20
2.294
0
VERTEX
8
1
10
5.956
20
2.273
0
VERTEX
8
1
10
5.903
20
2.260
0
VERTEX
8
1
10
5.861
20
2.272
0
VERTEX
8
1
10
5.814
20
2.316
0
VERTEX
8
1
10
5.760
20
2.350
0
VERTEX
8
1
10
5.726
20
2.389
0
VERTEX
8
1
10
5.719
20
2.456
0
VERTEX
8
1
10
5.718
20
2.483
0
VERTEX
8
1
10
5.681
20
2.486
0
VERTEX
8
1
10
5.608
20
2.517
0
VERTEX
8
1
10
5.596
20
2.521
0
VERTEX
8
1
10
5.580
20
2.518
0
VERTEX
8
1
10
5.598
20
2.477
0
VERTEX
8
1
10
5.660
20
2.363
0
VERTEX
8
1
10
5.691
20
2.299
0
VERTEX
8
1
10
5.728
20
2.242
0
VERTEX
8
1
10
5.768
20
2.224
0
VERTEX
8
1
10
5.779
20
2.217
0
VERTEX
8
1
10
5.826
20
2.170
0
VERTEX
8
1
10
5.833
20
2.160
0
VERTEX
8
1
10
5.869
20
2.064
0
VERTEX
8
1
10
5.906
20
1.929
0
VERTEX
8
1
10
5.928
20
1.836
0
VERTEX
8
1
10
5.921
20
1.801
0
VERTEX
8
1
10
5.902
20
1.791
0
VERTEX
8
1
10
5.874
20
1.810
0
VERTEX
8
1
10
5.847
20
1.842
0
VERTEX
8
1
10
5.735
20
1.991
0
VERTEX
8
1
10
5.677
20
2.062
0
VERTEX
8
1
10
5.670
20
2.074
0
VERTEX
8
1
10
5.647
20
2.137
0
VERTEX
8
1
10
5.643
20
2.190
0
VERTEX
8
1
10
5.505
20
2.450
0
VERTEX
8
1
10
5.473
20
2.518
0
VERTEX
8
1
10
5.432
20
2.581
0
VERTEX
8
1
10
5.365
20
2.618
0
VERTEX
8
1
10
5.194
20
2.707
0
VERTEX
8
1
10
5.170
20
2.722
0
VERTEX
8
1
10
5.051
20
2.802
0
VERTEX
8
1
10
4.996
20
2.855
0
VERTEX
8
1
10
4.869
20
3.016
0
VERTEX
8
1
10
4.742
20
3.209
0
VERTEX
8
1
10
4.670
20
3.358
0
VERTEX
8
1
10
4.641
20
3.400
0
VERTEX
8
1
10
4.621
20
3.445
0
VERTEX
8
1
10
4.618
20
3.449
0
VERTEX
8
1
10
4.603
20
3.452
0
VERTEX
8
1
10
4.496
20
3.385
0
VERTEX
8
1
10
4.459
20
3.369
0
VERTEX
8
1
10
4.418
20
3.342
0
VERTEX
8
1
10
4.391
20
3.276
0
VERTEX
8
1
10
4.328
20
3.114
0
VERTEX
8
1
10
4.300
20
3.032
0
VERTEX
8
1
10
4.283
20
2.983
0
VERTEX
8
1
10
4.285
20
2.968
0
VERTEX
8
1
10
4.330
20
2.892
0
VERTEX
8
1
10
4.340
20
2.872
0
VERTEX
8
1
10
4.357
20
2.804
0
VERTEX
8
1
10
4.350
20
2.753
0
VERTEX
8
1
10
4.331
20
2.726
0
VERTEX
8
1
10
4.292
20
2.710
0
VERTEX
8
1
10
4.238
20
2.715
0
VERTEX
8
1
10
4.204
20
2.734
0
VERTEX
8
1
10
4.186
20
2.732
0
VERTEX
8
1
10
4.170
20
2.709
0
VERTEX
8
1
10
4.100
20
2.503
0
VERTEX
8
1
10
4.020
20
2.385
0
VERTEX
8
1
10
3.978
20
2.284
0
VERTEX
8
1
10
3.951
20
2.168
0
VERTEX
8
1
10
3.953
20
2.099
0
VERTEX
8
1
10
4.030
20
1.901
0
VERTEX
8
1
10
4.076
20
1.698
0
VERTEX
8
1
10
4.089
20
1.638
0
VERTEX
8
1
10
4.094
20
1.631
0
VERTEX
8
1
10
4.135
20
1.620
0
VERTEX
8
1
10
4.269
20
1.603
0
VERTEX
8
1
10
4.352
20
1.592
0
VERTEX
8
1
10
4.548
20
1.578
0
VERTEX
8
1
10
4.672
20
1.573
0
VERTEX
8
1
10
4.722
20
1.568
0
VERTEX
8
1
10
4.767
20
1.545
0
VERTEX
8
1
10
4.804
20
1.512
0
VERTEX
8
1
10
4.810
20
1.501
0
VERTEX
8
1
10
4.816
20
1.439
0
VERTEX
8
1
10
4.816
20
1.393
0
VERTEX
8
1
10
4.807
20
1.323
0
VERTEX
8
1
10
4.781
20
1.280
0
VERTEX
8
1
10
4.732
20
1.245
0
VERTEX
8
1
10
4.611
20
1.195
0
VERTEX
8
1
10
4.358
20
1.108
0
VERTEX
8
1
10
4.259
20
1.073
0
VERTEX
8
1
10
4.191
20
1.020
0
VERTEX
8
1
10
4.135
20
0.941
0
VERTEX
8
1
10
4.124
20
0.918
0
VERTEX
8
1
10
4.090
20
0.861
0
VERTEX
8
1
10
4.064
20
0.841
0
VERTEX
8
1
10
3.967
20
0.801
0
VERTEX
8
1
10
3.884
20
0.791
0
VERTEX
8
1
10
3.807
20
0.778
0
VERTEX
8
1
10
3.693
20
0.778
0
VERTEX
8
1
10
3.545
20
0.756
0
VERTEX
8
1
10
3.436
20
0.764
0
VERTEX
8
1
10
2.954
20
0.778
0
VERTEX
8
1
10
2.360
20
0.751
0
VERTEX
8
1
10
1.676
20
0.731
0
VERTEX
8
1
10
1.267
20
0.717
0
VERTEX
8
1
10
1.121
20
0.713
0
VERTEX
8
1
10
0.851
20
0.709
0
VERTEX
8
1
10
0.432
20
0.750
0
VERTEX
8
1
10
0.395
20
0.753
0
VERTEX
8
1
10
0.300
20
0.755
0
VERTEX
8
1
10
0.238
20
0.739
0
VERTEX
8
1
10
0.174
20
0.729
0
VERTEX
8
1
10
0.137
20
0.743
0
VERTEX
8
1
10
0.113
20
0.769
0
VERTEX
8
1
10
0.098
20
0.817
0
VERTEX
8
1
10
0.108
20
0.930
0
VERTEX
8
1
10
0.106
20
0.998
0
VERTEX
8
1
10
0.102
20
1.012
0
VERTEX
8
1
10
0.048
20
1.128
0
VERTEX
8
1
10
0.041
20
1.140
0
VERTEX
8
1
10
0.017
20
1.193
0
VERTEX
8
1
10
0.020
20
1.224
0
VERTEX
8
1
10
0.045
20
1.262
0
VERTEX
8
1
10
0.118
20
1.309
0
VERTEX
8
1
10
0.143
20
1.320
0
VERTEX
8
1
10
0.167
20
1.338
0
VERTEX
8
1
10
0.150
20
1.363
0
VERTEX
8
1
10
0.114
20
1.381
0
VERTEX
8
1
10
0.074
20
1.408
0
VERTEX
8
1
10
0.065
20
1.430
0
VERTEX
8
1
10
0.098
20
1.523
0
VERTEX
8
1
10
0.100
20
1.535
0
VERTEX
8
1
10
0.113
20
1.574
0
VERTEX
8
1
10
0.121
20
1.580
0
VERTEX
8
1
10
0.195
20
1.587
0
VERTEX
8
1
10
0.213
20
1.589
0
VERTEX
8
1
10
0.359
20
1.632
0
VERTEX
8
1
10
0.382
20
1.638
0
VERTEX
8
1
10
0.414
20
1.656
0
VERTEX
8
1
10
0.416
20
1.662
0
VERTEX
8
1
10
0.393
20
1.686
0
VERTEX
8
1
10
0.340
20
1.733
0
VERTEX
8
1
10
0.328
20
1.763
0
VERTEX
8
1
10
0.341
20
1.783
0
VERTEX
8
1
10
0.360
20
1.805
0
VERTEX
8
1
10
0.338
20
1.866
0
VERTEX
8
1
10
0.357
20
1.888
0
VERTEX
8
1
10
0.381
20
1.905
0
VERTEX
8
1
10
0.379
20
1.929
0
VERTEX
8
1
10
0.381
20
1.956
0
VERTEX
8
1
10
0.424
20
1.964
0
VERTEX
8
1
10
0.438
20
1.972
0
VERTEX
8
1
10
0.422
20
2.045
0
VERTEX
8
1
10
0.415
20
2.101
0
VERTEX
8
1
10
0.425
20
2.161
0
VERTEX
8
1
10
0.455
20
2.205
0
VERTEX
8
1
10
0.478
20
2.217
0
VERTEX
8
1
10
0.501
20
2.208
0
VERTEX
8
1
10
0.531
20
2.159
0
VERTEX
8
1
10
0.551
20
2.124
0
VERTEX
8
1
10
0.565
20
2.121
0
VERTEX
8
1
10
0.575
20
2.127
0
VERTEX
8
1
10
0.600
20
2.130
0
VERTEX
8
1
10
0.610
20
2.124
0
VERTEX
8
1
10
0.632
20
2.113
0
VERTEX
8
1
10
0.656
20
2.148
0
VERTEX
8
1
10
0.677
20
2.185
0
VERTEX
8
1
10
0.693
20
2.192
0
VERTEX
8
1
10
0.716
20
2.181
0
VERTEX
8
1
10
0.739
20
2.171
0
VERTEX
8
1
10
0.764
20
2.197
0
VERTEX
8
1
10
0.791
20
2.223
0
VERTEX
8
1
10
0.816
20
2.222
0
VERTEX
8
1
10
0.842
20
2.198
0
VERTEX
8
1
10
0.853
20
2.177
0
VERTEX
8
1
10
0.866
20
2.178
0
VERTEX
8
1
10
0.922
20
2.247
0
VERTEX
8
1
10
0.970
20
2.302
0
VERTEX
8
1
10
1.054
20
2.378
0
VERTEX
8
1
10
1.099
20
2.408
0
VERTEX
8
1
10
1.139
20
2.419
0
VERTEX
8
1
10
1.161
20
2.410
0
VERTEX
8
1
10
1.168
20
2.386
0
VERTEX
8
1
10
1.149
20
2.330
0
VERTEX
8
1
10
1.089
20
2.214
0
VERTEX
8
1
10
1.080
20
2.198
0
VERTEX
8
1
10
1.072
20
2.165
0
VERTEX
8
1
10
1.086
20
2.153
0
VERTEX
8
1
10
1.110
20
2.135
0
VERTEX
8
1
10
1.111
20
2.110
0
VERTEX
8
1
10
1.115
20
2.085
0
VERTEX
8
1
10
1.159
20
2.095
0
VERTEX
8
1
10
1.203
20
2.103
0
VERTEX
8
1
10
1.255
20
2.099
0
VERTEX
8
1
10
1.277
20
2.080
0
VERTEX
8
1
10
1.279
20
2.068
0
VERTEX
8
1
10
1.260
20
2.039
0
VERTEX
8
1
10
1.217
20
2.002
0
VERTEX
8
1
10
1.186
20
1.962
0
VERTEX
8
1
10
1.203
20
1.963
0
VERTEX
8
1
10
1.236
20
1.957
0
VERTEX
8
1
10
1.253
20
1.933
0
VERTEX
8
1
10
1.241
20
1.877
0
VERTEX
8
1
10
1.233
20
1.847
0
VERTEX
8
1
10
1.226
20
1.842
0
VERTEX
8
1
10
1.197
20
1.843
0
VERTEX
8
1
10
1.163
20
1.845
0
VERTEX
8
1
10
1.115
20
1.807
0
VERTEX
8
1
10
1.085
20
1.782
0
VERTEX
8
1
10
1.030
20
1.722
  0
SEQEND
  0
ENDSEC
  0
EOF
