  0
SECTION
  2
HEADER
  9
$ACADVER
  1
AC1015
  9
$ACADMAINTVER
 70
     6
  9
$DWGCODEPAGE
  3
ANSI_1252
  9
$INSBASE
 10
0.0
 20
0.0
 30
0.0
  9
$EXTMIN
 10
1.000000E+20
 20
1.000000E+20
 30
1.000000E+20
  9
$EXTMAX
 10
-1.000000E+20
 20
-1.000000E+20
 30
-1.000000E+20
  9
$LIMMIN
 10
0.0
 20
0.0
  9
$LIMMAX
 10
420.0
 20
297.0
  9
$ORTHOMODE
 70
     0
  9
$REGENMODE
 70
     1
  9
$FILLMODE
 70
     1
  9
$QTEXTMODE
 70
     0
  9
$MIRRTEXT
 70
     1
  9
$LTSCALE
 40
1.0
  9
$ATTMODE
 70
     1
  9
$TEXTSIZE
 40
2.5
  9
$TRACEWID
 40
1.0
  9
$TEXTSTYLE
  7
Standard
  9
$CLAYER
  8
0
  9
$CELTYPE
  6
ByLayer
  9
$CECOLOR
 62
   256
  9
$CELTSCALE
 40
1.0
  9
$DISPSILH
 70
     0
  9
$DIMSCALE
 40
1.0
  9
$DIMASZ
 40
2.5
  9
$DIMEXO
 40
0.625
  9
$DIMDLI
 40
3.75
  9
$DIMRND
 40
0.0
  9
$DIMDLE
 40
0.0
  9
$DIMEXE
 40
1.25
  9
$DIMTP
 40
0.0
  9
$DIMTM
 40
0.0
  9
$DIMTXT
 40
2.5
  9
$DIMCEN
 40
2.5
  9
$DIMTSZ
 40
0.0
  9
$DIMTOL
 70
     0
  9
$DIMLIM
 70
     0
  9
$DIMTIH
 70
     0
  9
$DIMTOH
 70
     0
  9
$DIMSE1
 70
     0
  9
$DIMSE2
 70
     0
  9
$DIMTAD
 70
     1
  9
$DIMZIN
 70
     8
  9
$DIMBLK
  1

  9
$DIMASO
 70
     1
  9
$DIMSHO
 70
     1
  9
$DIMPOST
  1

  9
$DIMAPOST
  1

  9
$DIMALT
 70
     0
  9
$DIMALTD
 70
     3
  9
$DIMALTF
 40
0.03937
  9
$DIMLFAC
 40
1.0
  9
$DIMTOFL
 70
     1
  9
$DIMTVP
 40
0.0
  9
$DIMTIX
 70
     0
  9
$DIMSOXD
 70
     0
  9
$DIMSAH
 70
     0
  9
$DIMBLK1
  1

  9
$DIMBLK2
  1

  9
$DIMSTYLE
  2
ISO-25
  9
$DIMCLRD
 70
     0
  9
$DIMCLRE
 70
     0
  9
$DIMCLRT
 70
     0
  9
$DIMTFAC
 40
1.0
  9
$DIMGAP
 40
0.625
  9
$DIMJUST
 70
     0
  9
$DIMSD1
 70
     0
  9
$DIMSD2
 70
     0
  9
$DIMTOLJ
 70
     0
  9
$DIMTZIN
 70
     8
  9
$DIMALTZ
 70
     0
  9
$DIMALTTZ
 70
     0
  9
$DIMUPT
 70
     0
  9
$DIMDEC
 70
     2
  9
$DIMTDEC
 70
     2
  9
$DIMALTU
 70
     2
  9
$DIMALTTD
 70
     3
  9
$DIMTXSTY
  7
Standard
  9
$DIMAUNIT
 70
     0
  9
$DIMADEC
 70
     0
  9
$DIMALTRND
 40
0.0
  9
$DIMAZIN
 70
     0
  9
$DIMDSEP
 70
    44
  9
$DIMATFIT
 70
     3
  9
$DIMFRAC
 70
     0
  9
$DIMLDRBLK
  1

  9
$DIMLUNIT
 70
     2
  9
$DIMLWD
 70
    -2
  9
$DIMLWE
 70
    -2
  9
$DIMTMOVE
 70
     0
  9
$LUNITS
 70
     2
  9
$LUPREC
 70
     4
  9
$SKETCHINC
 40
1.0
  9
$FILLETRAD
 40
10.0
  9
$AUNITS
 70
     0
  9
$AUPREC
 70
     0
  9
$MENU
  1
.
  9
$ELEVATION
 40
0.0
  9
$PELEVATION
 40
0.0
  9
$THICKNESS
 40
0.0
  9
$LIMCHECK
 70
     0
  9
$CHAMFERA
 40
10.0
  9
$CHAMFERB
 40
10.0
  9
$CHAMFERC
 40
20.0
  9
$CHAMFERD
 40
0.0
  9
$SKPOLY
 70
     0
  9
$TDCREATE
 40
2454727.503817627
  9
$TDUCREATE
 40
2454727.795484294
  9
$TDUPDATE
 40
2454727.503817639
  9
$TDUUPDATE
 40
2454727.795484305
  9
$TDINDWG
 40
0.0000000116
  9
$TDUSRTIMER
 40
0.0000000116
  9
$USRTIMER
 70
     1
  9
$ANGBASE
 50
0.0
  9
$ANGDIR
 70
     0
  9
$PDMODE
 70
     3
  9
$PDSIZE
 40
-0.7
  9
$PLINEWID
 40
0.0
  9
$SPLFRAME
 70
     0
  9
$SPLINETYPE
 70
     6
  9
$SPLINESEGS
 70
     8
  9
$HANDSEED
  5
33
  9
$SURFTAB1
 70
     6
  9
$SURFTAB2
 70
     6
  9
$SURFTYPE
 70
     6
  9
$SURFU
 70
     6
  9
$SURFV
 70
     6
  9
$UCSBASE
  2

  9
$UCSNAME
  2

  9
$UCSORG
 10
0.0
 20
0.0
 30
0.0
  9
$UCSXDIR
 10
1.0
 20
0.0
 30
0.0
  9
$UCSYDIR
 10
0.0
 20
1.0
 30
0.0
  9
$UCSORTHOREF
  2

  9
$UCSORTHOVIEW
 70
     0
  9
$UCSORGTOP
 10
0.0
 20
0.0
 30
0.0
  9
$UCSORGBOTTOM
 10
0.0
 20
0.0
 30
0.0
  9
$UCSORGLEFT
 10
0.0
 20
0.0
 30
0.0
  9
$UCSORGRIGHT
 10
0.0
 20
0.0
 30
0.0
  9
$UCSORGFRONT
 10
0.0
 20
0.0
 30
0.0
  9
$UCSORGBACK
 10
0.0
 20
0.0
 30
0.0
  9
$PUCSBASE
  2

  9
$PUCSNAME
  2

  9
$PUCSORG
 10
0.0
 20
0.0
 30
0.0
  9
$PUCSXDIR
 10
1.0
 20
0.0
 30
0.0
  9
$PUCSYDIR
 10
0.0
 20
1.0
 30
0.0
  9
$PUCSORTHOREF
  2

  9
$PUCSORTHOVIEW
 70
     0
  9
$PUCSORGTOP
 10
0.0
 20
0.0
 30
0.0
  9
$PUCSORGBOTTOM
 10
0.0
 20
0.0
 30
0.0
  9
$PUCSORGLEFT
 10
0.0
 20
0.0
 30
0.0
  9
$PUCSORGRIGHT
 10
0.0
 20
0.0
 30
0.0
  9
$PUCSORGFRONT
 10
0.0
 20
0.0
 30
0.0
  9
$PUCSORGBACK
 10
0.0
 20
0.0
 30
0.0
  9
$USERI1
 70
     0
  9
$USERI2
 70
     0
  9
$USERI3
 70
     0
  9
$USERI4
 70
     0
  9
$USERI5
 70
     0
  9
$USERR1
 40
0.0
  9
$USERR2
 40
0.0
  9
$USERR3
 40
0.0
  9
$USERR4
 40
0.0
  9
$USERR5
 40
0.0
  9
$WORLDVIEW
 70
     1
  9
$SHADEDGE
 70
     3
  9
$SHADEDIF
 70
    70
  9
$TILEMODE
 70
     1
  9
$MAXACTVP
 70
    64
  9
$PINSBASE
 10
0.0
 20
0.0
 30
0.0
  9
$PLIMCHECK
 70
     0
  9
$PEXTMIN
 10
1.000000E+20
 20
1.000000E+20
 30
1.000000E+20
  9
$PEXTMAX
 10
-1.000000E+20
 20
-1.000000E+20
 30
-1.000000E+20
  9
$PLIMMIN
 10
0.0
 20
0.0
  9
$PLIMMAX
 10
420.0
 20
297.0
  9
$UNITMODE
 70
     0
  9
$VISRETAIN
 70
     1
  9
$PLINEGEN
 70
     0
  9
$PSLTSCALE
 70
     1
  9
$TREEDEPTH
 70
  3020
  9
$CMLSTYLE
  2
Standard
  9
$CMLJUST
 70
     1
  9
$CMLSCALE
 40
1.0
  9
$PROXYGRAPHICS
 70
     1
  9
$MEASUREMENT
 70
     0
  9
$CELWEIGHT
370
    -1
  9
$ENDCAPS
280
     0
  9
$JOINSTYLE
280
     0
  9
$LWDISPLAY
290
     0
  9
$INSUNITS
 70
     4
  9
$HYPERLINKBASE
  1

  9
$STYLESHEET
  1

  9
$XEDIT
290
     1
  9
$CEPSNTYPE
380
     0
  9
$PSTYLEMODE
290
     1
  9
$FINGERPRINTGUID
  2
{FAEB1C30-E019-11D5-929B-00C0DF256EC4}
  9
$VERSIONGUID
  2
{FAEB1C32-E019-11D5-929B-00C0DF256EC4}
  9
$EXTNAMES
290
     1
  9
$PSVPSCALE
 40
0.0
  9
$OLESTARTUP
290
     0
  0
ENDSEC
  0
SECTION
  2
CLASSES
  0
CLASS
  1
ACDBDICTIONARYWDFLT
  2
AcDbDictionaryWithDefault
  3
ObjectDBX Classes
 90
        0
280
     0
281
     0
  0
CLASS
  1
ACDBPLACEHOLDER
  2
AcDbPlaceHolder
  3
ObjectDBX Classes
 90
        0
280
     0
281
     0
  0
CLASS
  1
LAYOUT
  2
AcDbLayout
  3
ObjectDBX Classes
 90
        0
280
     0
281
     0
  0
ENDSEC
  0
SECTION
  2
TABLES
  0
TABLE
  2
VPORT
  5
8
330
0
100
AcDbSymbolTable
 70
     2
  0
VPORT
  5
29
330
8
100
AcDbSymbolTableRecord
100
AcDbViewportTableRecord
  2
*Active
 70
     0
 10
0.0
 20
0.0
 11
1.0
 21
1.0
 12
50.0
 22
50.0
 13
0.0
 23
0.0
 14
10.0
 24
10.0
 15
10.0
 25
10.0
 16
0.0
 26
0.0
 36
1.0
 17
0.0
 27
0.0
 37
0.0
 40
103.921569
 41
1.0
 42
50.0
 43
0.0
 44
0.0
 50
0.0
 51
0.0
 71
     0
 72
   100
 73
     1
 74
     3
 75
     0
 76
     0
 77
     0
 78
     0
281
     0
 65
     1
110
0.0
120
0.0
130
0.0
111
1.0
121
0.0
131
0.0
112
0.0
122
1.0
132
0.0
 79
     0
146
0.0
  0
ENDTAB
  0
TABLE
  2
LTYPE
  5
5
330
0
100
AcDbSymbolTable
 70
     1
  0
LTYPE
  5
14
330
5
100
AcDbSymbolTableRecord
100
AcDbLinetypeTableRecord
  2
ByBlock
 70
     0
  3

 72
    65
 73
     0
 40
0.0
  0
LTYPE
  5
15
330
5
100
AcDbSymbolTableRecord
100
AcDbLinetypeTableRecord
  2
ByLayer
 70
     0
  3

 72
    65
 73
     0
 40
0.0
  0
LTYPE
  5
16
330
5
100
AcDbSymbolTableRecord
100
AcDbLinetypeTableRecord
  2
Continuous
 70
     0
  3

 72
    65
 73
     0
 40
0.0
  0
ENDTAB
  0
TABLE
  2
LAYER
  5
2
330
0
100
AcDbSymbolTable
 70
     1
  0
LAYER
  5
10
330
2
100
AcDbSymbolTableRecord
100
AcDbLayerTableRecord
  2
0
 70
     0
 62
     7
  6
Continuous
370
    -3
390
F
  0
ENDTAB
  0
TABLE
  2
STYLE
  5
3
330
0
100
AcDbSymbolTable
 70
     1
  0
STYLE
  5
11
330
3
100
AcDbSymbolTableRecord
100
AcDbTextStyleTableRecord
  2
Standard
 70
     0
 40
1.0
 41
1.0
 50
0.0
 71
     0
 42
2.5
  3
RomanS
  4

  0
ENDTAB
  0
TABLE
  2
VIEW
  5
6
330
0
100
AcDbSymbolTable
 70
     0
  0
ENDTAB
  0
TABLE
  2
UCS
  5
7
330
0
100
AcDbSymbolTable
 70
     0
  0
ENDTAB
  0
TABLE
  2
APPID
  5
9
330
0
100
AcDbSymbolTable
 70
     1
  0
APPID
  5
12
330
9
100
AcDbSymbolTableRecord
100
AcDbRegAppTableRecord
  2
ACAD
 70
     0
  0
ENDTAB
  0
TABLE
  2
DIMSTYLE
  5
A
330
0
100
AcDbSymbolTable
 70
     1
100
AcDbDimStyleTable
  0
DIMSTYLE
105
27
330
A
100
AcDbSymbolTableRecord
100
AcDbDimStyleTableRecord
  2
ISO-25
 70
     0
 41
2.5
 42
0.625
 44
1.25
 73
     0
 74
     0
 77
     1
 78
     8
 79
     2
140
2.5
141
2.5
146
0.0
147
0.625
271
     2
272
     0
273
     0
274
     0
278
    44
283
     0
289
     0
340
11
  0
ENDTAB
  0
TABLE
  2
BLOCK_RECORD
  5
1
330
0
100
AcDbSymbolTable
 70
     1
  0
BLOCK_RECORD
  5
1F
330
1
100
AcDbSymbolTableRecord
100
AcDbBlockTableRecord
  2
*Model_Space
340
22
  0
BLOCK_RECORD
  5
1B
330
1
100
AcDbSymbolTableRecord
100
AcDbBlockTableRecord
  2
*Paper_Space
340
1E
  0
BLOCK_RECORD
  5
23
330
1
100
AcDbSymbolTableRecord
100
AcDbBlockTableRecord
  2
*Paper_Space0
340
26
  0
ENDTAB
  0
ENDSEC
  0
SECTION
  2
BLOCKS
  0
BLOCK
  5
20
330
1F
100
AcDbEntity
  8
0
100
AcDbBlockBegin
  2
*Model_Space
 70
     0
 71
     0
 10
0.0
 20
0.0
 30
0.0
  3
*Model_Space
  1

  0
ENDBLK
  5
21
330
1F
100
AcDbEntity
  8
0
100
AcDbBlockEnd
  0
BLOCK
  5
1C
330
1B
100
AcDbEntity
 67
     1
  8
0
100
AcDbBlockBegin
  2
*Paper_Space
 70
     0
 71
     0
 10
0.0
 20
0.0
 30
0.0
  3
*Paper_Space
  1

  0
ENDBLK
  5
1D
330
1B
100
AcDbEntity
 67
     1
  8
0
100
AcDbBlockEnd
  0
BLOCK
  5
24
330
23
100
AcDbEntity
  8
0
100
AcDbBlockBegin
  2
*Paper_Space0
 70
     0
 71
     0
 10
0.0
 20
0.0
 30
0.0
  3
*Paper_Space0
  1

  0
ENDBLK
  5
25
330
23
100
AcDbEntity
  8
0
100
AcDbBlockEnd
  0
ENDSEC
  0
SECTION
  2
ENTITIES
  0
LWPOLYLINE
  5
2A
330
1F
100
AcDbEntity
  8
0
100
AcDbPolyline
 90
       27
 70
   128
 43
0.0
 10
-0.884928
 20
-0.082322
 10
-0.841284
 20
-0.081395
 10
-0.793837
 20
-0.004983
 10
-0.663326
 20
-0.001661
 10
-0.661957
 20
0.0
 10
-0.658054
 20
0.00529
 10
-0.65399
 20
0.011589
 10
-0.650795
 20
0.017206
 10
-0.649502
 20
0.020449
 10
-0.649502
 20
0.022809
 10
-0.758917
 20
0.024917
 10
-0.769752
 20
0.03577
 10
-0.762261
 20
0.049765
 10
-0.741535
 20
0.060483
 10
-0.564784
 20
0.064151
 10
-0.560737
 20
0.069451
 10
-0.559157
 20
0.071837
 10
-0.557848
 20
0.074414
 10
-0.556944
 20
0.076873
 10
-0.556584
 20
0.078904
 10
-0.556478
 20
0.083056
 10
-0.824311
 20
0.083056
 10
-0.83483
 20
0.074751
 10
-0.906303
 20
-0.038206
 10
-0.928571
 20
-0.07134
 10
-0.928571
 20
-0.083249
 10
-0.884928
 20
-0.082322
  0
LWPOLYLINE
  5
2B
330
1F
100
AcDbEntity
  8
0
100
AcDbPolyline
 90
        9
 70
   128
 43
0.0
 10
-0.642486
 20
-0.082342
 10
-0.608893
 20
-0.081395
 10
-0.553156
 20
0.018188
 10
-0.553156
 20
0.023256
 10
-0.618572
 20
0.023256
 10
-0.628357
 20
0.011628
 10
-0.67608
 20
-0.073055
 10
-0.67608
 20
-0.083289
 10
-0.642486
 20
-0.082342
  0
LWPOLYLINE
  5
2C
330
1F
100
AcDbEntity
  8
0
100
AcDbPolyline
 90
       31
 70
   128
 43
0.0
 10
-0.51412
 20
-0.083051
 10
-0.478405
 20
-0.083045
 10
-0.468439
 20
-0.067271
 10
-0.463287
 20
-0.059419
 10
-0.458159
 20
-0.052228
 10
-0.453
 20
-0.04564
 10
-0.447759
 20
-0.039595
 10
-0.442381
 20
-0.034036
 10
-0.436813
 20
-0.028904
 10
-0.431
 20
-0.02414
 10
-0.424891
 20
-0.019687
 10
-0.410613
 20
-0.009863
 10
-0.390147
 20
-0.00577
 10
-0.394537
 20
-0.033223
 10
-0.322259
 20
-0.033141
 10
-0.293163
 20
0.017084
 10
-0.300071
 20
0.023992
 10
-0.375415
 20
0.021482
 10
-0.398214
 20
0.010741
 10
-0.415225
 20
0.003155
 10
-0.421109
 20
0.000848
 10
-0.424112
 20
0.0
 10
-0.427211
 20
0.0
 10
-0.422849
 20
0.023256
 10
-0.492903
 20
0.023256
 10
-0.499225
 20
0.01412
 10
-0.510195
 20
-0.004087
 10
-0.527691
 20
-0.03503
 10
-0.549834
 20
-0.075044
 10
-0.549834
 20
-0.083056
 10
-0.51412
 20
-0.083051
  0
LWPOLYLINE
  5
2D
330
1F
100
AcDbEntity
  8
0
100
AcDbPolyline
 90
       48
 70
   128
 43
0.0
 10
-0.211063
 20
-0.083056
 10
-0.091953
 20
-0.083056
 10
-0.074706
 20
-0.06256
 10
-0.078038
 20
-0.05717
 10
-0.10299
 20
-0.063664
 10
-0.240756
 20
-0.067269
 10
-0.244757
 20
-0.056844
 10
-0.224723
 20
-0.027725
 10
-0.212811
 20
-0.01864
 10
-0.206814
 20
-0.014493
 10
-0.19929
 20
-0.009917
 10
-0.1912
 20
-0.005469
 10
-0.183507
 20
-0.001704
 10
-0.166113
 20
0.006147
 10
-0.129568
 20
0.010482
 10
-0.111296
 20
0.003487
 10
-0.111296
 20
0.000159
 10
-0.111931
 20
-0.001549
 10
-0.11366
 20
-0.003741
 10
-0.116219
 20
-0.006132
 10
-0.119344
 20
-0.008443
 10
-0.127392
 20
-0.013716
 10
-0.146753
 20
-0.015616
 10
-0.154729
 20
-0.01659
 10
-0.162134
 20
-0.017835
 10
-0.168142
 20
-0.019193
 10
-0.171927
 20
-0.020503
 10
-0.177741
 20
-0.02349
 10
-0.177741
 20
-0.033725
 10
-0.086379
 20
-0.031561
 10
-0.059801
 20
-0.018494
 10
-0.028239
 20
0.013732
 10
-0.028239
 20
0.023129
 10
-0.044815
 20
0.027289
 10
-0.196013
 20
0.024495
 10
-0.222226
 20
0.015437
 10
-0.233794
 20
0.011233
 10
-0.244225
 20
0.006975
 10
-0.253744
 20
0.00253
 10
-0.262579
 20
-0.002232
 10
-0.270953
 20
-0.007441
 10
-0.279094
 20
-0.013228
 10
-0.287227
 20
-0.019725
 10
-0.295577
 20
-0.027061
 10
-0.313313
 20
-0.043271
 10
-0.334427
 20
-0.076173
 10
-0.330173
 20
-0.083056
 10
-0.211063
 20
-0.083056
  0
LWPOLYLINE
  5
2E
330
1F
100
AcDbEntity
  8
0
100
AcDbPolyline
 90
       38
 70
   128
 43
0.0
 10
-0.01825
 20
-0.083056
 10
0.014994
 20
-0.083056
 10
0.021339
 20
-0.075581
 10
0.041294
 20
-0.050708
 10
0.054904
 20
-0.033309
 10
0.089701
 20
-0.00564
 10
0.130333
 20
0.013496
 10
0.164312
 20
0.01752
 10
0.16865
 20
0.006214
 10
0.14852
 20
-0.021595
 10
0.112957
 20
-0.046305
 10
0.093209
 20
-0.053053
 10
0.084951
 20
-0.055673
 10
0.077067
 20
-0.057818
 10
0.070448
 20
-0.059268
 10
0.065988
 20
-0.059801
 10
0.058516
 20
-0.059801
 10
0.053345
 20
-0.067184
 10
0.049692
 20
-0.073158
 10
0.048581
 20
-0.075566
 10
0.048173
 20
-0.077151
 10
0.048173
 20
-0.079734
 10
0.099668
 20
-0.079688
 10
0.155398
 20
-0.066328
 10
0.199336
 20
-0.043168
 10
0.231967
 20
-0.015179
 10
0.257592
 20
0.024467
 10
0.251641
 20
0.030419
 10
0.122924
 20
0.028204
 10
0.081525
 20
0.010791
 10
0.074716
 20
0.018996
 10
0.100924
 20
0.074751
 10
0.089701
 20
0.078436
 10
0.032097
 20
0.074751
 10
0.029162
 20
0.071429
 10
-0.051495
 20
-0.076222
 10
-0.051495
 20
-0.083056
 10
-0.01825
 20
-0.083056
  0
LWPOLYLINE
  5
2F
330
1F
100
AcDbEntity
  8
0
100
AcDbPolyline
 90
       11
 70
   128
 43
0.0
 10
0.273894
 20
-0.083056
 10
0.306924
 20
-0.083056
 10
0.363787
 20
0.017079
 10
0.363787
 20
0.023256
 10
0.297795
 20
0.023256
 10
0.291386
 20
0.01412
 10
0.280381
 20
-0.004097
 10
0.262921
 20
-0.035065
 10
0.240864
 20
-0.075113
 10
0.240864
 20
-0.083056
 10
0.273894
 20
-0.083056
  0
LWPOLYLINE
  5
30
330
1F
100
AcDbEntity
  8
0
100
AcDbPolyline
 90
       24
 70
   128
 43
0.0
 10
0.40541
 20
-0.083056
 10
0.439995
 20
-0.083056
 10
0.462473
 20
-0.048173
 10
0.498339
 20
-0.014669
 10
0.519814
 20
-0.005888
 10
0.529826
 20
-0.00973
 10
0.523208
 20
-0.027136
 10
0.52697
 20
-0.033223
 10
0.591838
 20
-0.033223
 10
0.620562
 20
0.01698
 10
0.613413
 20
0.024128
 10
0.541128
 20
0.02115
 10
0.51853
 20
0.010575
 10
0.501599
 20
0.003106
 10
0.495693
 20
0.000834
 10
0.492627
 20
0.0
 10
0.489322
 20
0.0
 10
0.490883
 20
0.004153
 10
0.49482
 20
0.015892
 10
0.497196
 20
0.023478
 10
0.422849
 20
0.021595
 10
0.367387
 20
-0.077494
 10
0.370824
 20
-0.083056
 10
0.40541
 20
-0.083056
  0
LWPOLYLINE
  5
31
330
1F
100
AcDbEntity
  8
0
100
AcDbPolyline
 90
       46
 70
   128
 43
0.0
 10
0.657317
 20
-0.082459
 10
0.727575
 20
-0.081395
 10
0.749644
 20
-0.070598
 10
0.766311
 20
-0.062972
 10
0.772222
 20
-0.060653
 10
0.775392
 20
-0.059801
 10
0.77907
 20
-0.059801
 10
0.77907
 20
-0.083289
 10
0.846574
 20
-0.081395
 10
0.931934
 20
0.074156
 10
0.930657
 20
0.075434
 10
0.929483
 20
0.076064
 10
0.927282
 20
0.076562
 10
0.919353
 20
0.077182
 10
0.905986
 20
0.077324
 10
0.886298
 20
0.077021
 10
0.858976
 20
0.076412
 10
0.800664
 20
-0.011628
 10
0.760797
 20
-0.043565
 10
0.737542
 20
-0.054936
 10
0.727268
 20
-0.059673
 10
0.716487
 20
-0.064164
 10
0.706479
 20
-0.067903
 10
0.698524
 20
-0.070383
 10
0.682763
 20
-0.074457
 10
0.67512
 20
-0.066815
 10
0.683625
 20
-0.046284
 10
0.714286
 20
-0.019041
 10
0.754153
 20
0.000039
 10
0.792572
 20
0.008018
 10
0.802976
 20
0.019515
 10
0.798822
 20
0.026237
 10
0.773165
 20
0.024447
 10
0.76102
 20
0.023409
 10
0.749087
 20
0.022007
 10
0.737416
 20
0.020253
 10
0.726058
 20
0.018156
 10
0.715062
 20
0.015726
 10
0.704477
 20
0.012973
 10
0.694354
 20
0.009907
 10
0.684743
 20
0.006539
 10
0.665166
 20
-0.000832
 10
0.614618
 20
-0.03514
 10
0.582971
 20
-0.076908
 10
0.587059
 20
-0.083522
 10
0.657317
 20
-0.082459
  0
LWPOLYLINE
  5
32
330
1F
100
AcDbEntity
  8
0
100
AcDbPolyline
 90
       13
 70
   128
 43
0.0
 10
0.353141
 20
0.049885
 10
0.380701
 20
0.049834
 10
0.397501
 20
0.066634
 10
0.394814
 20
0.074751
 10
0.366842
 20
0.075731
 10
0.355382
 20
0.075961
 10
0.344857
 20
0.075864
 10
0.336433
 20
0.07547
 10
0.331278
 20
0.074808
 10
0.323685
 20
0.072904
 10
0.317018
 20
0.055369
 10
0.325581
 20
0.049936
 10
0.353141
 20
0.049885
  0
ENDSEC
  0
SECTION
  2
OBJECTS
  0
DICTIONARY
  5
C
330
0
100
AcDbDictionary
281
     1
  3
ACAD_GROUP
350
D
  3
ACAD_LAYOUT
350
1A
  3
ACAD_MLINESTYLE
350
17
  3
ACAD_PLOTSETTINGS
350
19
  3
ACAD_PLOTSTYLENAME
350
E
  0
DICTIONARY
  5
D
102
{ACAD_REACTORS
330
C
102
}
330
C
100
AcDbDictionary
281
     1
  0
DICTIONARY
  5
1A
102
{ACAD_REACTORS
330
C
102
}
330
C
100
AcDbDictionary
281
     1
  3
Layout1
350
1E
  3
Layout2
350
26
  3
Model
350
22
  0
DICTIONARY
  5
17
102
{ACAD_REACTORS
330
C
102
}
330
C
100
AcDbDictionary
281
     1
  3
Standard
350
18
  0
DICTIONARY
  5
19
102
{ACAD_REACTORS
330
C
102
}
330
C
100
AcDbDictionary
281
     1
  0
ACDBDICTIONARYWDFLT
  5
E
102
{ACAD_REACTORS
330
C
102
}
330
C
100
AcDbDictionary
281
     1
  3
Normal
350
F
100
AcDbDictionaryWithDefault
340
F
  0
LAYOUT
  5
1E
102
{ACAD_REACTORS
330
1A
102
}
330
1A
100
AcDbPlotSettings
  1

  2

  4

  6

 40
0.0
 41
0.0
 42
0.0
 43
0.0
 44
0.0
 45
0.0
 46
0.0
 47
0.0
 48
0.0
 49
0.0
140
0.0
141
0.0
142
1.0
143
1.0
 70
   688
 72
     0
 73
     0
 74
     5
  7

 75
    16
147
1.0
148
0.0
149
0.0
100
AcDbLayout
  1
Layout1
 70
     1
 71
     1
 10
0.0
 20
0.0
 11
420.0
 21
297.0
 12
0.0
 22
0.0
 32
0.0
 14
1.000000E+20
 24
1.000000E+20
 34
1.000000E+20
 15
-1.000000E+20
 25
-1.000000E+20
 35
-1.000000E+20
146
0.0
 13
0.0
 23
0.0
 33
0.0
 16
1.0
 26
0.0
 36
0.0
 17
0.0
 27
1.0
 37
0.0
 76
     0
330
1B
  0
LAYOUT
  5
26
102
{ACAD_REACTORS
330
1A
102
}
330
1A
100
AcDbPlotSettings
  1

  2

  4

  6

 40
0.0
 41
0.0
 42
0.0
 43
0.0
 44
0.0
 45
0.0
 46
0.0
 47
0.0
 48
0.0
 49
0.0
140
0.0
141
0.0
142
1.0
143
1.0
 70
   688
 72
     0
 73
     0
 74
     5
  7

 75
    16
147
1.0
148
0.0
149
0.0
100
AcDbLayout
  1
Layout2
 70
     1
 71
     2
 10
0.0
 20
0.0
 11
0.0
 21
0.0
 12
0.0
 22
0.0
 32
0.0
 14
0.0
 24
0.0
 34
0.0
 15
0.0
 25
0.0
 35
0.0
146
0.0
 13
0.0
 23
0.0
 33
0.0
 16
1.0
 26
0.0
 36
0.0
 17
0.0
 27
1.0
 37
0.0
 76
     0
330
23
  0
LAYOUT
  5
22
102
{ACAD_REACTORS
330
1A
102
}
330
1A
100
AcDbPlotSettings
  1

  2

  4

  6

 40
0.0
 41
0.0
 42
0.0
 43
0.0
 44
0.0
 45
0.0
 46
0.0
 47
0.0
 48
0.0
 49
0.0
140
0.0
141
0.0
142
1.0
143
1.0
 70
  1712
 72
     0
 73
     0
 74
     0
  7

 75
     0
147
1.0
148
0.0
149
0.0
100
AcDbLayout
  1
Model
 70
     1
 71
     0
 10
0.0
 20
0.0
 11
0.0
 21
0.0
 12
0.0
 22
0.0
 32
0.0
 14
0.0
 24
0.0
 34
0.0
 15
0.0
 25
0.0
 35
0.0
146
0.0
 13
0.0
 23
0.0
 33
0.0
 16
1.0
 26
0.0
 36
0.0
 17
0.0
 27
1.0
 37
0.0
 76
     0
330
1F
  0
MLINESTYLE
  5
18
102
{ACAD_REACTORS
330
17
102
}
330
17
100
AcDbMlineStyle
  2
Standard
 70
     0
  3

 62
   256
 51
90.0
 52
90.0
 71
     2
 49
1.0
 62
   256
  6
BYLAYER
 49
-1.0
 62
   256
  6
BYLAYER
  0
ACDBPLACEHOLDER
  5
F
102
{ACAD_REACTORS
330
E
102
}
330
E
  0
ENDSEC
  0
EOF
