  0
SECTION
  2
HEADER
  9
$ACADVER
  1
AC1006
  0
ENDSEC
  0
SECTION
  2
TABLES
  0
TABLE
  2
LTYPE
 70
    25
  0
LTYPE
  2
CONTINUOUS
 70
    64
  3
Solid line
 72
    64
 73
     0
 40
0.000000
  0
LTYPE
  2
DASHDOT
 70
    64
  3
__ . __ . __ . __ . __ . __ . __ . __ . __ . __
 72
    65
 73
     4
 40
1.000000
 49
0.500000
 49
-0.250000
 49
0.000000
 49
-0.250000
  0
LTYPE
  2
DASHED
 70
    64
  3
__ __ __ __ __ __ __ __ __ __ __ __ __ __ __ __
 72
    65
 73
     2
 40
0.750000
 49
0.500000
 49
-0.250000
  0
LTYPE
  2
DIVIDE
 70
    64
  3
____ . . ____ . . ____ . . ____ . . ____ . . __
 72
    65
 73
     6
 40
1.250000
 49
0.500000
 49
-0.250000
 49
0.000000
 49
-0.250000
 49
0.000000
 49
-0.250000
  0
LTYPE
  2
DOT
 70
    64
  3
. . . . . . . . . . . . . . . . . . . . . . . . 
 72
    65
 73
     2
 40
0.250000
 49
0.000000
 49
-0.250000
  0
ENDTAB
  0
ENDSEC
  0
SECTION
  2
ENTITIES
  0
LINE
  8
0
 62
     7
  6
CONTINUOUS
 10
2.892359
 20
0.846509
 30
0.000000
 11
1.770359
 21
0.830009
 31
0.000000
  0
ARC
  8
0
 62
     7
  6
CONTINUOUS
 10
1.864716
 20
1.063902
 30
0.000000
 40
0.252209
 50
210.141386
 51
248.029848
  0
LINE
  8
0
 62
     7
  6
CONTINUOUS
 10
1.646609
 20
0.937259
 30
0.000000
 11
1.498109
 21
1.193009
 31
0.000000
  0
ARC
  8
0
 62
     7
  6
CONTINUOUS
 10
1.410281
 20
1.134271
 30
0.000000
 40
0.105659
 50
33.774079
 51
119.744881
  0
LINE
  8
0
 62
     7
  6
CONTINUOUS
 10
1.357859
 20
1.226009
 30
0.000000
 11
1.300109
 21
1.193009
 31
0.000000
  0
LINE
  8
0
 62
     7
  6
CONTINUOUS
 10
1.300109
 20
1.193009
 30
0.000000
 11
1.283609
 21
1.143509
 31
0.000000
  0
LINE
  8
0
 62
     7
  6
CONTINUOUS
 10
1.283609
 20
1.143509
 30
0.000000
 11
1.325751
 21
1.138233
 31
0.000000
  0
ARC
  8
0
 62
     7
  6
CONTINUOUS
 10
1.300109
 20
1.052759
 30
0.000000
 40
0.089238
 50
326.309932
 51
433.301009
  0
ARC
  8
0
 62
     7
  6
CONTINUOUS
 10
1.140543
 20
1.160464
 30
0.000000
 40
0.281750
 50
280.548069
 51
326.085303
  0
ARC
  8
0
 62
     7
  6
CONTINUOUS
 10
0.970309
 20
2.074683
 30
0.000000
 40
1.211683
 50
232.634375
 51
280.548069
  0
ARC
  8
0
 62
     7
  6
CONTINUOUS
 10
0.623609
 20
0.623759
 30
0.000000
 40
0.623789
 50
128.541204
 51
339.887412
  0
ARC
  8
0
 62
     7
  6
CONTINUOUS
 10
1.313951
 20
0.336151
 30
0.000000
 40
0.127610
 50
57.094870
 51
145.047083
  0
ARC
  8
0
 62
     7
  6
CONTINUOUS
 10
1.473359
 20
0.582509
 30
0.000000
 40
0.165823
 50
237.094870
 51
354.289407
  0
ARC
  8
0
 62
     7
  6
CONTINUOUS
 10
1.717686
 20
0.558076
 30
0.000000
 40
0.079723
 50
111.970798
 51
174.289407
  0
LINE
  8
0
 62
     7
  6
CONTINUOUS
 10
1.687859
 20
0.632009
 30
0.000000
 11
2.928193
 21
0.676093
 31
0.000000
  0
ARC
  8
0
 62
     7
  6
CONTINUOUS
 10
3.040859
 20
0.788759
 30
0.000000
 40
0.159334
 50
225.000000
 51
518.749494
  0
CIRCLE
  8
0
 62
     7
  6
CONTINUOUS
 10
3.040859
 20
0.788759
 30
0.000000
 40
0.107250
  0
ENDSEC
  0
EOF
