 999
SignTorch Vector Graphics - nurse_emblem=.dxf
 999
copyright Gary DeWitt, signtorch.com
  0
SECTION
  2
HEADER
  9
$ACADVER
  1
AC1009
  9
$DWGCODEPAGE
  3
ansi_1252
  9
$INSBASE
 10
0.0
 20
0.0
 30
0.0
  9
$EXTMIN
 10
6.3311142718141
 20
6.331114271814102
 30
0.0
  9
$EXTMAX
 10
17.6688857281859
 20
17.66900021946929
 30
0.0
  9
$LIMMIN
 10
0.0
 20
0.0
  9
$LIMMAX
 10
12.0
 20
9.0
  9
$ORTHOMODE
 70
     0
  9
$REGENMODE
 70
     1
  9
$FILLMODE
 70
     1
  9
$QTEXTMODE
 70
     0
  9
$MIRRTEXT
 70
     1
  9
$DRAGMODE
 70
     2
  9
$LTSCALE
 40
1.0
  9
$OSMODE
 70
    37
  9
$ATTMODE
 70
     1
  9
$TEXTSIZE
 40
0.2
  9
$TRACEWID
 40
0.05
  9
$TEXTSTYLE
  7
STANDARD
  9
$CLAYER
  8
0
  9
$CELTYPE
  6
BYLAYER
  9
$CECOLOR
 62
   256
  9
$DIMSCALE
 40
1.0
  9
$DIMASZ
 40
0.18
  9
$DIMEXO
 40
0.0625
  9
$DIMDLI
 40
0.38
  9
$DIMRND
 40
0.0
  9
$DIMDLE
 40
0.0
  9
$DIMEXE
 40
0.18
  9
$DIMTP
 40
0.0
  9
$DIMTM
 40
0.0
  9
$DIMTXT
 40
0.18
  9
$DIMCEN
 40
0.09
  9
$DIMTSZ
 40
0.0
  9
$DIMTOL
 70
     0
  9
$DIMLIM
 70
     0
  9
$DIMTIH
 70
     1
  9
$DIMTOH
 70
     1
  9
$DIMSE1
 70
     0
  9
$DIMSE2
 70
     0
  9
$DIMTAD
 70
     0
  9
$DIMZIN
 70
     0
  9
$DIMBLK
  1

  9
$DIMASO
 70
     1
  9
$DIMSHO
 70
     1
  9
$DIMPOST
  1

  9
$DIMAPOST
  1

  9
$DIMALT
 70
     0
  9
$DIMALTD
 70
     2
  9
$DIMALTF
 40
25.4
  9
$DIMLFAC
 40
1.0
  9
$DIMTOFL
 70
     0
  9
$DIMTVP
 40
0.0
  9
$DIMTIX
 70
     0
  9
$DIMSOXD
 70
     0
  9
$DIMSAH
 70
     0
  9
$DIMBLK1
  1

  9
$DIMBLK2
  1

  9
$DIMSTYLE
  2
STANDARD
  9
$DIMCLRD
 70
     0
  9
$DIMCLRE
 70
     0
  9
$DIMCLRT
 70
     0
  9
$DIMTFAC
 40
1.0
  9
$DIMGAP
 40
0.09
  9
$LUNITS
 70
     2
  9
$LUPREC
 70
     4
  9
$SKETCHINC
 40
0.1
  9
$FILLETRAD
 40
0.5
  9
$AUNITS
 70
     0
  9
$AUPREC
 70
     0
  9
$MENU
  1
.
  9
$ELEVATION
 40
0.0
  9
$PELEVATION
 40
0.0
  9
$THICKNESS
 40
0.0
  9
$LIMCHECK
 70
     0
  9
$CHAMFERA
 40
0.5
  9
$CHAMFERB
 40
0.5
  9
$SKPOLY
 70
     0
  9
$TDCREATE
 40
2454910.5
  9
$TDUPDATE
 40
2456732.168324109
  9
$TDINDWG
 40
0.0000000116
  9
$TDUSRTIMER
 40
0.0000000116
  9
$USRTIMER
 70
     1
  9
$ANGBASE
 50
0.0
  9
$ANGDIR
 70
     0
  9
$PDMODE
 70
     0
  9
$PDSIZE
 40
0.0
  9
$PLINEWID
 40
0.0
  9
$COORDS
 70
     1
  9
$SPLFRAME
 70
     0
  9
$SPLINETYPE
 70
     6
  9
$SPLINESEGS
 70
     8
  9
$ATTDIA
 70
     0
  9
$ATTREQ
 70
     1
  9
$HANDLING
 70
     1
  9
$HANDSEED
  5
28D
  9
$SURFTAB1
 70
     6
  9
$SURFTAB2
 70
     6
  9
$SURFTYPE
 70
     6
  9
$SURFU
 70
     6
  9
$SURFV
 70
     6
  9
$UCSNAME
  2

  9
$UCSORG
 10
0.0
 20
0.0
 30
0.0
  9
$UCSXDIR
 10
1.0
 20
0.0
 30
0.0
  9
$UCSYDIR
 10
0.0
 20
1.0
 30
0.0
  9
$PUCSNAME
  2

  9
$PUCSORG
 10
0.0
 20
0.0
 30
0.0
  9
$PUCSXDIR
 10
1.0
 20
0.0
 30
0.0
  9
$PUCSYDIR
 10
0.0
 20
1.0
 30
0.0
  9
$USERI1
 70
     0
  9
$USERI2
 70
     0
  9
$USERI3
 70
     0
  9
$USERI4
 70
     0
  9
$USERI5
 70
     0
  9
$USERR1
 40
0.0
  9
$USERR2
 40
0.0
  9
$USERR3
 40
0.0
  9
$USERR4
 40
0.0
  9
$USERR5
 40
0.0
  9
$WORLDVIEW
 70
     1
  9
$SHADEDGE
 70
     3
  9
$SHADEDIF
 70
    70
  9
$TILEMODE
 70
     1
  9
$MAXACTVP
 70
    64
  9
$PLIMCHECK
 70
     0
  9
$PEXTMIN
 10
1.000000000000000E+20
 20
1.000000000000000E+20
 30
1.000000000000000E+20
  9
$PEXTMAX
 10
-1.000000000000000E+20
 20
-1.000000000000000E+20
 30
-1.000000000000000E+20
  9
$PLIMMIN
 10
0.0
 20
0.0
  9
$PLIMMAX
 10
12.0
 20
9.0
  9
$UNITMODE
 70
     0
  9
$VISRETAIN
 70
     1
  9
$PLINEGEN
 70
     0
  9
$PSLTSCALE
 70
     1
  0
ENDSEC
  0
SECTION
  2
TABLES
  0
TABLE
  2
VPORT
 70
     1
  0
VPORT
  2
*ACTIVE
 70
     0
 10
0.0
 20
0.0
 11
1.0
 21
1.0
 12
10.42990654205607
 22
4.5
 13
0.0
 23
0.0
 14
0.5
 24
0.5
 15
0.5
 25
0.5
 16
0.0
 26
0.0
 36
1.0
 17
0.0
 27
0.0
 37
0.0
 40
9.0
 41
1.972972972850329
 42
50.0
 43
0.0
 44
0.0
 50
0.0
 51
0.0
 71
     0
 72
   100
 73
     1
 74
     3
 75
     0
 76
     0
 77
     0
 78
     0
  0
ENDTAB
  0
TABLE
  2
LTYPE
 70
     2
  0
LTYPE
  2
CONTINUOUS
 70
     0
  3
Solid line
 72
    65
 73
     0
 40
0.0
  0
LTYPE
  2
CONTINUOUS2
 70
     0
  3
Solid Line
 72
    65
 73
     0
 40
0.0
  0
ENDTAB
  0
TABLE
  2
LAYER
 70
     2
  0
LAYER
  2
0
 70
     0
 62
     7
  6
CONTINUOUS
  0
ENDTAB
  0
TABLE
  2
STYLE
 70
     1
  0
STYLE
  2
STANDARD
 70
     0
 40
0.0
 41
1.0
 50
0.0
 71
     0
 42
0.2
  3
txt
  4

  0
ENDTAB
  0
TABLE
  2
VIEW
 70
     0
  0
ENDTAB
  0
TABLE
  2
UCS
 70
     0
  0
ENDTAB
  0
TABLE
  2
APPID
 70
     1
  0
APPID
  2
ACAD
 70
     0
  0
ENDTAB
  0
TABLE
  2
DIMSTYLE
 70
     1
  0
DIMSTYLE
  2
STANDARD
 70
     0
  3

  4

  5

  6

  7

 40
1.0
 41
0.18
 42
0.0625
 43
0.38
 44
0.18
 45
0.0
 46
0.0
 47
0.0
 48
0.0
140
0.18
141
0.09
142
0.0
143
25.4
144
1.0
145
0.0
146
1.0
147
0.09
 71
     0
 72
     0
 73
     1
 74
     1
 75
     0
 76
     0
 77
     0
 78
     0
170
     0
171
     2
172
     0
173
     0
174
     0
175
     0
176
     0
177
     0
178
     0
  0
ENDTAB
  0
ENDSEC
  0
SECTION
  2
BLOCKS
  0
BLOCK
  8
0
  2
$MODEL_SPACE
 70
     0
 10
0.0
 20
0.0
 30
0.0
  3
$MODEL_SPACE
  1

  0
ENDBLK
  5
21
  8
0
  0
BLOCK
 67
     1
  8
0
  2
$PAPER_SPACE
 70
     0
 10
0.0
 20
0.0
 30
0.0
  3
$PAPER_SPACE
  1

  0
ENDBLK
  5
1D
 67
     1
  8
0
  0
ENDSEC
  0
SECTION
  2
ENTITIES
  0
POLYLINE
  5
41
  8
0
 66
     1
 10
0.0
 20
0.0
 30
0.0
 70
     1
  0
VERTEX
  5
54
  8
0
 10
11.820875
 20
8.795499999999999
 30
0.0
 42
-0.0100334317511634
  0
VERTEX
  5
55
  8
0
 10
11.81879265282893
 20
8.723899208462912
 30
0.0
 42
-0.0579478682935658
  0
VERTEX
  5
56
  8
0
 10
11.81675
 20
8.711625000000002
 30
0.0
 42
-0.114785625157851
  0
VERTEX
  5
57
  8
0
 10
11.81258951907767
 20
8.704173839263522
 30
0.0
 42
-0.1978384517128098
  0
VERTEX
  5
58
  8
0
 10
11.808
 20
8.702
 30
0.0
 42
-0.2211194902466643
  0
VERTEX
  5
59
  8
0
 10
11.7848317764407
 20
8.711348368295644
 30
0.0
 42
-0.0551528070898208
  0
VERTEX
  5
5A
  8
0
 10
11.667
 20
8.869
 30
0.0
 42
-0.0776550003048631
  0
VERTEX
  5
5B
  8
0
 10
11.64378860642894
 20
8.927683060171834
 30
0.0
 42
-0.1603415359448998
  0
VERTEX
  5
5C
  8
0
 10
11.654375
 20
9.037249999999998
 30
0.0
 42
-0.0952378477970124
  0
VERTEX
  5
5D
  8
0
 10
11.69771322087065
 20
9.100029761631319
 30
0.0
 42
-0.0922495856062217
  0
VERTEX
  5
5E
  8
0
 10
11.763
 20
9.143999999999998
 30
0.0
 42
-0.1444636700748049
  0
VERTEX
  5
5F
  8
0
 10
11.79888218747705
 20
9.14839195548472
 30
0.0
 42
-0.2401525392529163
  0
VERTEX
  5
60
  8
0
 10
11.817
 20
9.135
 30
0.0
 42
-0.1381178492360636
  0
VERTEX
  5
61
  8
0
 10
11.82454348155537
 20
9.095433386707402
 30
0.0
 42
0.0125716128098722
  0
VERTEX
  5
62
  8
0
 10
11.82
 20
9.020999999999999
 30
0.0
 42
0.0165014265170102
  0
VERTEX
  5
63
  8
0
 10
11.81968164058971
 20
8.908247067064371
 30
0.0
 42
-0.0097964899357307
  0
SEQEND
  5
64
  8
0
  0
POLYLINE
  5
42
  8
0
 66
     1
 10
0.0
 20
0.0
 30
0.0
 70
     1
  0
VERTEX
  5
65
  8
0
 10
12.3688268737793
 20
17.42182553100586
 30
0.0
 42
-0.0987984322234278
  0
VERTEX
  5
66
  8
0
 10
14.40978412560372
 20
16.8686011314127
 30
0.0
 42
-0.0980268962594274
  0
VERTEX
  5
67
  8
0
 10
16.097
 20
15.567
 30
0.0
 42
-0.003705685325514
  0
VERTEX
  5
68
  8
0
 10
16.12945835338655
 20
15.52930325805862
 30
0.0
 42
-0.0018980333872415
  0
VERTEX
  5
69
  8
0
 10
16.192
 20
15.455
 30
0.0
  0
VERTEX
  5
6A
  8
0
 10
16.241
 20
15.396
 30
0.0
  0
VERTEX
  5
6B
  8
0
 10
15.909
 20
15.398
 30
0.0
 42
-0.0093387560007731
  0
VERTEX
  5
6C
  8
0
 10
14.58953878306744
 20
15.43716168998509
 30
0.0
 42
-0.0200084423785864
  0
VERTEX
  5
6D
  8
0
 10
14.185
 20
15.473
 30
0.0
 42
-0.0211663749593526
  0
VERTEX
  5
6E
  8
0
 10
13.85964122405861
 20
15.52908382070844
 30
0.0
 42
-0.0244911780520821
  0
VERTEX
  5
6F
  8
0
 10
13.584
 20
15.603
 30
0.0
 42
-0.0059817251599542
  0
VERTEX
  5
70
  8
0
 10
13.29715639623601
 20
15.6989914545319
 30
0.0
 42
0.0660768930561423
  0
VERTEX
  5
71
  8
0
 10
13.093
 20
15.741
 30
0.0
 42
0.0889739578746895
  0
VERTEX
  5
72
  8
0
 10
12.81961499495088
 20
15.71177157883264
 30
0.0
 42
0.168652405437694
  0
VERTEX
  5
73
  8
0
 10
12.699
 20
15.626
 30
0.0
 42
0.0787983863020633
  0
VERTEX
  5
74
  8
0
 10
12.64470172912853
 20
15.51673979907342
 30
0.0
 42
-0.0510859010978158
  0
VERTEX
  5
75
  8
0
 10
12.61875
 20
15.456375
 30
0.0
 42
-0.0750358563519027
  0
VERTEX
  5
76
  8
0
 10
12.56211377457035
 20
15.38308283854657
 30
0.0
 42
-0.1550327951929201
  0
VERTEX
  5
77
  8
0
 10
12.417
 20
15.312
 30
0.0
 42
-0.0392821461066904
  0
VERTEX
  5
78
  8
0
 10
12.33216736487816
 20
15.30610759800767
 30
0.0
 42
-0.0354298696941641
  0
VERTEX
  5
79
  8
0
 10
12.238212890625
 20
15.313640625
 30
0.0
 42
-0.0325105199676991
  0
VERTEX
  5
7A
  8
0
 10
12.20741012481425
 20
15.32039412215696
 30
0.0
 42
-0.2233587240480303
  0
VERTEX
  5
7B
  8
0
 10
12.18065625
 20
15.343875
 30
0.0
 42
-0.0819051674889143
  0
VERTEX
  5
7C
  8
0
 10
12.17729610722762
 20
15.35717234934086
 30
0.0
 42
-0.0207204808657564
  0
VERTEX
  5
7D
  8
0
 10
12.175
 20
15.411
 30
0.0
 42
-0.0027114463134084
  0
VERTEX
  5
7E
  8
0
 10
12.17563884227392
 20
15.56212901470526
 30
0.0
 42
-0.0433378194658675
  0
VERTEX
  5
7F
  8
0
 10
12.182
 20
15.628
 30
0.0
 42
-0.0423708425922564
  0
VERTEX
  5
80
  8
0
 10
12.1867802153729
 20
15.64543594310861
 30
0.0
 42
-0.1810553124499528
  0
VERTEX
  5
81
  8
0
 10
12.202
 20
15.663125
 30
0.0
 42
-0.0483558144057982
  0
VERTEX
  5
82
  8
0
 10
12.21819254614213
 20
15.6700748903782
 30
0.0
 42
0.0649636788228533
  0
VERTEX
  5
83
  8
0
 10
12.282
 20
15.7
 30
0.0
 42
0.1146223461429548
  0
VERTEX
  5
84
  8
0
 10
12.46074102524809
 20
15.88276454030713
 30
0.0
 42
0.2484007634431258
  0
VERTEX
  5
85
  8
0
 10
12.486224609375
 20
16.31364453125
 30
0.0
 42
0.1547046480035301
  0
VERTEX
  5
86
  8
0
 10
12.27645721037097
 20
16.54576899302739
 30
0.0
 42
0.2687874239873625
  0
VERTEX
  5
87
  8
0
 10
11.691
 20
16.548
 30
0.0
 42
0.2382234909400837
  0
VERTEX
  5
88
  8
0
 10
11.44231262526055
 20
16.16983888393402
 30
0.0
 42
0.246636103199095
  0
VERTEX
  5
89
  8
0
 10
11.600859375
 20
15.760625
 30
0.0
 42
0.0337220191629227
  0
VERTEX
  5
8A
  8
0
 10
11.65742146033235
 20
15.71761523367175
 30
0.0
 42
0.02856839373879
  0
VERTEX
  5
8B
  8
0
 10
11.729953125
 20
15.675546875
 30
0.0
 42
0.0004777966358833
  0
VERTEX
  5
8C
  8
0
 10
11.76596856977136
 20
15.65736507419117
 30
0.0
 42
-0.2283372409969471
  0
VERTEX
  5
8D
  8
0
 10
11.787
 20
15.63
 30
0.0
 42
-0.0467281172815266
  0
VERTEX
  5
8E
  8
0
 10
11.79075468554389
 20
15.5968853803113
 30
0.0
 42
-0.0117343549615594
  0
VERTEX
  5
8F
  8
0
 10
11.79
 20
15.406
 30
0.0
 42
-0.0167494662983342
  0
VERTEX
  5
90
  8
0
 10
11.78610349084749
 20
15.3421149277227
 30
0.0
 42
-0.2743850313344827
  0
VERTEX
  5
91
  8
0
 10
11.76925
 20
15.319
 30
0.0
 42
-0.0733067562963987
  0
VERTEX
  5
92
  8
0
 10
11.7508184707634
 20
15.31411942225173
 30
0.0
 42
-0.0245156125486461
  0
VERTEX
  5
93
  8
0
 10
11.667578125
 20
15.308828125
 30
0.0
 42
-0.0537628607071449
  0
VERTEX
  5
94
  8
0
 10
11.525380986354
 20
15.32208535552398
 30
0.0
 42
-0.1289951637013909
  0
VERTEX
  5
95
  8
0
 10
11.40744140625
 20
15.380072265625
 30
0.0
 42
-0.0808760836862646
  0
VERTEX
  5
96
  8
0
 10
11.35667634381168
 20
15.44085114226291
 30
0.0
 42
-0.0570504857502397
  0
VERTEX
  5
97
  8
0
 10
11.311
 20
15.543
 30
0.0
 42
0.057423177874926
  0
VERTEX
  5
98
  8
0
 10
11.28302812316815
 20
15.60543074272577
 30
0.0
 42
0.1219788408925513
  0
VERTEX
  5
99
  8
0
 10
11.20015087890625
 20
15.68942456054687
 30
0.0
 42
0.0635579574500559
  0
VERTEX
  5
9A
  8
0
 10
11.1323629555735
 20
15.71989096685269
 30
0.0
 42
0.0637389611501214
  0
VERTEX
  5
9B
  8
0
 10
11.008
 20
15.741
 30
0.0
 42
0.0451749889873588
  0
VERTEX
  5
9C
  8
0
 10
10.81302093670664
 20
15.73134856785278
 30
0.0
 42
0.0438269688921017
  0
VERTEX
  5
9D
  8
0
 10
10.617
 20
15.686
 30
0.0
 42
0.0125567375900496
  0
VERTEX
  5
9E
  8
0
 10
10.46336084467527
 20
15.63164248825827
 30
0.0
 42
-0.0339660580161311
  0
VERTEX
  5
9F
  8
0
 10
10.174
 20
15.543
 30
0.0
 42
-0.0388905798871293
  0
VERTEX
  5
A0
  8
0
 10
9.622493332631077
 20
15.45873715841098
 30
0.0
 42
-0.0091570014553351
  0
VERTEX
  5
A1
  8
0
 10
8.793375000000001
 20
15.412625
 30
0.0
 42
-0.0039518242709597
  0
VERTEX
  5
A2
  8
0
 10
8.396300309431261
 20
15.40097086421333
 30
0.0
 42
-0.0041493810037716
  0
VERTEX
  5
A3
  8
0
 10
8.018
 20
15.396
 30
0.0
  0
VERTEX
  5
A4
  8
0
 10
7.758
 20
15.396
 30
0.0
  0
VERTEX
  5
A5
  8
0
 10
7.84
 20
15.493
 30
0.0
 42
-0.0388352680965798
  0
VERTEX
  5
A6
  8
0
 10
8.496808801417842
 20
16.14812407047644
 30
0.0
 42
-0.07789600697184
  0
VERTEX
  5
A7
  8
0
 10
9.90358984375
 20
17.01257421875
 30
0.0
 42
-0.0578187372071597
  0
VERTEX
  5
A8
  8
0
 10
11.11571537320529
 20
17.36114912845524
 30
0.0
 42
-0.0581282496697643
  0
SEQEND
  5
A9
  8
0
  0
POLYLINE
  5
43
  8
0
 66
     1
 10
0.0
 20
0.0
 30
0.0
 70
     1
  0
VERTEX
  5
AA
  8
0
 10
16.5415319480896
 20
14.98330283355713
 30
0.0
 42
-0.2136739462662836
  0
VERTEX
  5
AB
  8
0
 10
17.2528183832323
 20
10.60483862238884
 30
0.0
 42
-0.2134551724264754
  0
VERTEX
  5
AC
  8
0
 10
14.459
 20
7.153999999999999
 30
0.0
 42
-0.0546707949192664
  0
VERTEX
  5
AD
  8
0
 10
13.38099019686882
 20
6.747748327913929
 30
0.0
 42
-0.0522913967404135
  0
VERTEX
  5
AE
  8
0
 10
12.189787109375
 20
6.571765869140624
 30
0.0
 42
0.0013844048462413
  0
VERTEX
  5
AF
  8
0
 10
12.10487315059494
 20
6.567945963342571
 30
0.0
 42
0.007896376199325
  0
VERTEX
  5
B0
  8
0
 10
12.09
 20
6.567
 30
0.0
 42
-0.4751861763182011
  0
VERTEX
  5
B1
  8
0
 10
12.077175570949
 20
6.58041473509674
 30
0.0
 42
-0.0408374367872444
  0
VERTEX
  5
B2
  8
0
 10
12.080875
 20
6.598125
 30
0.0
 42
0.0389789013570667
  0
VERTEX
  5
B3
  8
0
 10
12.08551963454962
 20
6.61995516150708
 30
0.0
 42
0.0059409244300059
  0
VERTEX
  5
B4
  8
0
 10
12.103
 20
6.765124999999999
 30
0.0
 42
0.0119391940063312
  0
VERTEX
  5
B5
  8
0
 10
12.12205773492133
 20
6.991259895356025
 30
0.0
 42
0.006979647234143
  0
VERTEX
  5
B6
  8
0
 10
12.14
 20
7.379
 30
0.0
 42
-0.0252325667312299
  0
VERTEX
  5
B7
  8
0
 10
12.14438190681163
 20
7.431841409007458
 30
0.0
 42
-0.3780092410850208
  0
VERTEX
  5
B8
  8
0
 10
12.163
 20
7.448
 30
0.0
 42
-0.0998821998670089
  0
VERTEX
  5
B9
  8
0
 10
12.19178271964998
 20
7.441951678624412
 30
0.0
 42
0.012716305524619
  0
VERTEX
  5
BA
  8
0
 10
12.300671875
 20
7.398359375
 30
0.0
 42
0.020124223044568
  0
VERTEX
  5
BB
  8
0
 10
12.55664946890652
 20
7.314914621643242
 30
0.0
 42
0.015383820093725
  0
VERTEX
  5
BC
  8
0
 10
12.745
 20
7.268000000000001
 30
0.0
 42
0.0235446238192868
  0
VERTEX
  5
BD
  8
0
 10
12.83590573224502
 20
7.252744428239803
 30
0.0
 42
0.0416828867081623
  0
VERTEX
  5
BE
  8
0
 10
12.888
 20
7.250875
 30
0.0
 42
0.0415603465410773
  0
VERTEX
  5
BF
  8
0
 10
12.9092513812384
 20
7.253664596115474
 30
0.0
 42
0.3728702806614716
  0
VERTEX
  5
C0
  8
0
 10
12.923
 20
7.271999999999998
 30
0.0
 42
0.1964661771212094
  0
VERTEX
  5
C1
  8
0
 10
12.90482081926586
 20
7.308840740542389
 30
0.0
 42
0.0094276865806435
  0
VERTEX
  5
C2
  8
0
 10
12.83096875
 20
7.371749999999999
 30
0.0
 42
0.0242397657427233
  0
VERTEX
  5
C3
  8
0
 10
12.65000849578946
 20
7.505985495590258
 30
0.0
 42
0.02491341939728
  0
VERTEX
  5
C4
  8
0
 10
12.46196875
 20
7.618687499999998
 30
0.0
 42
0.0002013345759281
  0
VERTEX
  5
C5
  8
0
 10
12.39055603009298
 20
7.656752858624635
 30
0.0
 42
-0.0425924843681869
  0
VERTEX
  5
C6
  8
0
 10
12.367
 20
7.672
 30
0.0
 42
-0.1238738137833154
  0
VERTEX
  5
C7
  8
0
 10
12.35915428232967
 20
7.682011253653915
 30
0.0
 42
-0.2021449265495875
  0
VERTEX
  5
C8
  8
0
 10
12.359
 20
7.689999999999999
 30
0.0
 42
-0.197818914200509
  0
VERTEX
  5
C9
  8
0
 10
12.37402949826465
 20
7.705493451672073
 30
0.0
 42
0.0060072797002543
  0
VERTEX
  5
CA
  8
0
 10
12.398578125
 20
7.716515625
 30
0.0
 42
0.0846225657417195
  0
VERTEX
  5
CB
  8
0
 10
12.67211884718743
 20
7.90481123863189
 30
0.0
 42
0.1871868992690861
  0
VERTEX
  5
CC
  8
0
 10
12.80622924804688
 20
8.198014404296876
 30
0.0
 42
0.0965253808528083
  0
VERTEX
  5
CD
  8
0
 10
12.79116526191934
 20
8.310133821329968
 30
0.0
 42
0.1191501437617076
  0
VERTEX
  5
CE
  8
0
 10
12.742
 20
8.388
 30
0.0
 42
0.0369714482972144
  0
VERTEX
  5
CF
  8
0
 10
12.70147523819804
 20
8.42189258056671
 30
0.0
 42
0.0107058772172761
  0
VERTEX
  5
D0
  8
0
 10
12.643
 20
8.462
 30
0.0
 42
-0.1867418019375002
  0
VERTEX
  5
D1
  8
0
 10
12.63290949172977
 20
8.476080944988835
 30
0.0
 42
-0.1899827432305123
  0
VERTEX
  5
D2
  8
0
 10
12.635
 20
8.492999999999999
 30
0.0
 42
-0.1016632278890696
  0
VERTEX
  5
D3
  8
0
 10
12.66181005051745
 20
8.52476180603074
 30
0.0
 42
0.09787378678701
  0
VERTEX
  5
D4
  8
0
 10
12.77
 20
8.651
 30
0.0
 42
0.128129464183354
  0
VERTEX
  5
D5
  8
0
 10
12.85220988735714
 20
8.961829364779774
 30
0.0
 42
0.0727972105038565
  0
VERTEX
  5
D6
  8
0
 10
12.81178125
 20
9.24534375
 30
0.0
 42
0.0168292551418665
  0
VERTEX
  5
D7
  8
0
 10
12.7901842451519
 20
9.310376141600631
 30
0.0
 42
0.0210177580328035
  0
VERTEX
  5
D8
  8
0
 10
12.769
 20
9.360999999999999
 30
0.0
 42
0.0080280918359337
  0
VERTEX
  5
D9
  8
0
 10
12.72730508559225
 20
9.44635270425086
 30
0.0
 42
-0.0793861089699391
  0
VERTEX
  5
DA
  8
0
 10
12.72
 20
9.469
 30
0.0
 42
-0.2489606152651111
  0
VERTEX
  5
DB
  8
0
 10
12.72296859552171
 20
9.477543492283822
 30
0.0
 42
-0.0698179958832067
  0
VERTEX
  5
DC
  8
0
 10
12.748
 20
9.495
 30
0.0
 42
-0.0225522258298235
  0
VERTEX
  5
DD
  8
0
 10
12.76637787302958
 20
9.503305599654817
 30
0.0
 42
0.0396527155656267
  0
VERTEX
  5
DE
  8
0
 10
12.838703125
 20
9.539015625
 30
0.0
 42
0.0659840014914261
  0
VERTEX
  5
DF
  8
0
 10
12.98758660832583
 20
9.656889162244992
 30
0.0
 42
0.0638669083699642
  0
VERTEX
  5
E0
  8
0
 10
13.105
 20
9.813999999999998
 30
0.0
 42
0.134272460147981
  0
VERTEX
  5
E1
  8
0
 10
13.1840441880637
 20
10.12711220651971
 30
0.0
 42
0.1333361829301794
  0
VERTEX
  5
E2
  8
0
 10
13.092703125
 20
10.439140625
 30
0.0
 42
0.0537132690732041
  0
VERTEX
  5
E3
  8
0
 10
13.00235777509292
 20
10.55622256372684
 30
0.0
 42
0.0475275415439124
  0
VERTEX
  5
E4
  8
0
 10
12.792
 20
10.7375
 30
0.0
 42
-0.0306190645522396
  0
VERTEX
  5
E5
  8
0
 10
12.76699071319234
 20
10.75762150014008
 30
0.0
 42
-0.3686959358323457
  0
VERTEX
  5
E6
  8
0
 10
12.76503125
 20
10.773140625
 30
0.0
 42
-0.1581495291217987
  0
VERTEX
  5
E7
  8
0
 10
12.77872283944992
 20
10.78412730899559
 30
0.0
 42
0.0167337977500517
  0
VERTEX
  5
E8
  8
0
 10
12.843
 20
10.811
 30
0.0
 42
0.0484156095624864
  0
VERTEX
  5
E9
  8
0
 10
13.11783448493739
 20
10.97063440830064
 30
0.0
 42
0.0377062639750752
  0
VERTEX
  5
EA
  8
0
 10
13.291
 20
11.116
 30
0.0
 42
0.1649810110917554
  0
VERTEX
  5
EB
  8
0
 10
13.45509883757267
 20
11.43900299747561
 30
0.0
 42
0.1102567555291493
  0
VERTEX
  5
EC
  8
0
 10
13.433
 20
11.727
 30
0.0
 42
0.0447126275740118
  0
VERTEX
  5
ED
  8
0
 10
13.36088463973739
 20
11.90467150479362
 30
0.0
 42
0.0447737913210991
  0
VERTEX
  5
EE
  8
0
 10
13.258451171875
 20
12.066458984375
 30
0.0
 42
0.015471360700875
  0
VERTEX
  5
EF
  8
0
 10
13.22291006605341
 20
12.1099755684076
 30
0.0
 42
-0.022682394441877
  0
VERTEX
  5
F0
  8
0
 10
13.188
 20
12.154
 30
0.0
 42
-0.3358976463553885
  0
VERTEX
  5
F1
  8
0
 10
13.18835085348219
 20
12.16923159076401
 30
0.0
 42
-0.1440139647322204
  0
VERTEX
  5
F2
  8
0
 10
13.215
 20
12.188
 30
0.0
 42
-0.0063904790662824
  0
VERTEX
  5
F3
  8
0
 10
13.26200294074576
 20
12.20330285789253
 30
0.0
 42
0.017441792431642
  0
VERTEX
  5
F4
  8
0
 10
13.30865625
 20
12.219640625
 30
0.0
 42
0.0183966666494332
  0
VERTEX
  5
F5
  8
0
 10
13.41535930748958
 20
12.26582921549821
 30
0.0
 42
0.0246876645984813
  0
VERTEX
  5
F6
  8
0
 10
13.644595703125
 20
12.38948046875
 30
0.0
 42
0.0257532402691226
  0
VERTEX
  5
F7
  8
0
 10
13.83595934158075
 20
12.51914823999787
 30
0.0
 42
0.0785444453420037
  0
VERTEX
  5
F8
  8
0
 10
14.071
 20
12.763
 30
0.0
 42
0.1477275865364056
  0
VERTEX
  5
F9
  8
0
 10
14.18755235790103
 20
13.11839322178801
 30
0.0
 42
0.2262433741382255
  0
VERTEX
  5
FA
  8
0
 10
13.999
 20
13.539
 30
0.0
 42
0.1034477797891673
  0
VERTEX
  5
FB
  8
0
 10
13.73078143718166
 20
13.68490596191103
 30
0.0
 42
0.0610024739419951
  0
VERTEX
  5
FC
  8
0
 10
13.224
 20
13.772
 30
0.0
 42
0.0327218872764926
  0
VERTEX
  5
FD
  8
0
 10
12.91749531944992
 20
13.76676446959626
 30
0.0
 42
0.0641022081467866
  0
VERTEX
  5
FE
  8
0
 10
12.76400341796875
 20
13.7339638671875
 30
0.0
 42
0.1067760971002708
  0
VERTEX
  5
FF
  8
0
 10
12.54165823430742
 20
13.59724338888125
 30
0.0
 42
0.1172043339629169
  0
VERTEX
  5
100
  8
0
 10
12.412359375
 20
13.397021484375
 30
0.0
 42
0.0608473089619106
  0
VERTEX
  5
101
  8
0
 10
12.39028882675113
 20
13.29763058555884
 30
0.0
 42
0.062166532390063
  0
VERTEX
  5
102
  8
0
 10
12.393
 20
13.198
 30
0.0
 42
0.1839600134000838
  0
VERTEX
  5
103
  8
0
 10
12.432609063798
 20
13.12804977270334
 30
0.0
 42
0.1036465860293675
  0
VERTEX
  5
104
  8
0
 10
12.556
 20
13.063
 30
0.0
 42
0.1262130415923767
  0
VERTEX
  5
105
  8
0
 10
12.95959015252884
 20
13.05189692441464
 30
0.0
 42
0.0923897212579878
  0
VERTEX
  5
106
  8
0
 10
13.1285625
 20
13.12490625
 30
0.0
 42
0.0317555427814959
  0
VERTEX
  5
107
  8
0
 10
13.18813113253228
 20
13.1707189286015
 30
0.0
 42
-0.0915565166671957
  0
VERTEX
  5
108
  8
0
 10
13.308
 20
13.242
 30
0.0
 42
-0.0633590589178934
  0
VERTEX
  5
109
  8
0
 10
13.39173234682162
 20
13.26136969452577
 30
0.0
 42
-0.0577188799884364
  0
VERTEX
  5
10A
  8
0
 10
13.486
 20
13.26
 30
0.0
 42
-0.1054471705872033
  0
VERTEX
  5
10B
  8
0
 10
13.56253197553707
 20
13.23293156270355
 30
0.0
 42
-0.1820947916358041
  0
VERTEX
  5
10C
  8
0
 10
13.592
 20
13.195
 30
0.0
 42
-0.0731733384350735
  0
VERTEX
  5
10D
  8
0
 10
13.59934012586588
 20
13.14776118871822
 30
0.0
 42
-0.0452672545868272
  0
VERTEX
  5
10E
  8
0
 10
13.593
 20
13.071
 30
0.0
 42
-0.1635346390785479
  0
VERTEX
  5
10F
  8
0
 10
13.54997188285115
 20
12.99168811866658
 30
0.0
 42
-0.075049351168573
  0
VERTEX
  5
110
  8
0
 10
13.391
 20
12.883
 30
0.0
 42
-0.0454023525043775
  0
VERTEX
  5
111
  8
0
 10
13.09767844320954
 20
12.77288148288226
 30
0.0
 42
-0.0280176384619881
  0
VERTEX
  5
112
  8
0
 10
12.602
 20
12.666
 30
0.0
 42
-0.0072457126333291
  0
VERTEX
  5
113
  8
0
 10
12.38572348623816
 20
12.63511081461863
 30
0.0
 42
-0.0104436432675124
  0
VERTEX
  5
114
  8
0
 10
12.235
 20
12.619
 30
0.0
 42
-0.0837163672699736
  0
VERTEX
  5
115
  8
0
 10
12.17999628966815
 20
12.62348966426161
 30
0.0
 42
-0.2864089020254976
  0
VERTEX
  5
116
  8
0
 10
12.168
 20
12.636
 30
0.0
 42
-0.0415603238866852
  0
VERTEX
  5
117
  8
0
 10
12.16435877608192
 20
12.6653409535213
 30
0.0
 42
-0.0098277955055712
  0
VERTEX
  5
118
  8
0
 10
12.160640625
 20
12.844578125
 30
0.0
 42
-0.0033910992121086
  0
VERTEX
  5
119
  8
0
 10
12.16174044463808
 20
13.03766921293404
 30
0.0
 42
0.0008920272583101
  0
VERTEX
  5
11A
  8
0
 10
12.17
 20
13.81
 30
0.0
 42
0.0001923594363626
  0
VERTEX
  5
11B
  8
0
 10
12.17167810015041
 20
14.00683652147431
 30
0.0
 42
-0.019528808432036
  0
VERTEX
  5
11C
  8
0
 10
12.174
 20
14.056
 30
0.0
 42
-0.0808409429407806
  0
VERTEX
  5
11D
  8
0
 10
12.18012369330728
 20
14.08022708344479
 30
0.0
 42
-0.23599004372373
  0
VERTEX
  5
11E
  8
0
 10
12.187
 20
14.086
 30
0.0
 42
-0.0808997850335898
  0
VERTEX
  5
11F
  8
0
 10
12.20052741966006
 20
14.08699525170408
 30
0.0
 42
-0.0524087574640063
  0
VERTEX
  5
120
  8
0
 10
12.221
 20
14.083
 30
0.0
 42
0.004512391426307
  0
VERTEX
  5
121
  8
0
 10
12.35881903488454
 20
14.04210916198349
 30
0.0
 42
0.0247526068656363
  0
VERTEX
  5
122
  8
0
 10
12.5261875
 20
14.0029375
 30
0.0
 42
0.0602017524794169
  0
VERTEX
  5
123
  8
0
 10
13.12842691147205
 20
13.96666737717226
 30
0.0
 42
0.0413571503963087
  0
VERTEX
  5
124
  8
0
 10
13.409
 20
14.007
 30
0.0
 42
0.1242851531889534
  0
VERTEX
  5
125
  8
0
 10
13.71725348421865
 20
14.16464712550301
 30
0.0
 42
0.0656819642932026
  0
VERTEX
  5
126
  8
0
 10
13.842
 20
14.307
 30
0.0
 42
0.0220203193212266
  0
VERTEX
  5
127
  8
0
 10
13.86963138977216
 20
14.35264289800512
 30
0.0
 42
-0.0694479055876999
  0
VERTEX
  5
128
  8
0
 10
13.87759375
 20
14.363359375
 30
0.0
 42
-0.219325061072124
  0
VERTEX
  5
129
  8
0
 10
13.89038942993674
 20
14.36819475258265
 30
0.0
 42
-0.1334569383087613
  0
VERTEX
  5
12A
  8
0
 10
13.911
 20
14.361
 30
0.0
 42
0.0160372574133102
  0
VERTEX
  5
12B
  8
0
 10
14.00611903828908
 20
14.30014840007167
 30
0.0
 42
0.0566976918222086
  0
VERTEX
  5
12C
  8
0
 10
14.14838623046875
 20
14.23596899414062
 30
0.0
 42
0.139158135535826
  0
VERTEX
  5
12D
  8
0
 10
14.54327953406709
 20
14.22254950507689
 30
0.0
 42
0.1636359985329122
  0
VERTEX
  5
12E
  8
0
 10
14.82878125
 20
14.404328125
 30
0.0
 42
0.0460692615581152
  0
VERTEX
  5
12F
  8
0
 10
14.87942604608619
 20
14.48040149426506
 30
0.0
 42
0.0356332644638655
  0
VERTEX
  5
130
  8
0
 10
14.928
 20
14.588
 30
0.0
 42
0.0573012675487196
  0
VERTEX
  5
131
  8
0
 10
14.93382360583197
 20
14.6119701617866
 30
0.0
 42
-0.1186881672047934
  0
VERTEX
  5
132
  8
0
 10
14.936
 20
14.61775
 30
0.0
 42
-0.0411766068178734
  0
VERTEX
  5
133
  8
0
 10
14.93929372865925
 20
14.6218338595908
 30
0.0
 42
-0.1055169326445585
  0
VERTEX
  5
134
  8
0
 10
14.941
 20
14.623
 30
0.0
  0
VERTEX
  5
135
  8
0
 10
15.037
 20
14.62
 30
0.0
 42
0.0056287767849934
  0
VERTEX
  5
136
  8
0
 10
15.17260279355544
 20
14.61799596457385
 30
0.0
 42
0.0546730156933051
  0
VERTEX
  5
137
  8
0
 10
15.314
 20
14.633
 30
0.0
 42
0.098585514353251
  0
VERTEX
  5
138
  8
0
 10
15.47046791627088
 20
14.70128325204843
 30
0.0
 42
0.18327878651471
  0
VERTEX
  5
139
  8
0
 10
15.575
 20
14.854
 30
0.0
 42
0.0533642608540368
  0
VERTEX
  5
13A
  8
0
 10
15.58629632522579
 20
14.93968823273763
 30
0.0
 42
-0.1706599419127413
  0
VERTEX
  5
13B
  8
0
 10
15.594
 20
14.96
 30
0.0
 42
-0.2043970905271349
  0
VERTEX
  5
13C
  8
0
 10
15.59986627710017
 20
14.96295763873935
 30
0.0
 42
-0.031367016301835
  0
VERTEX
  5
13D
  8
0
 10
15.641
 20
14.963
 30
0.0
 42
-0.0132885436823409
  0
VERTEX
  5
13E
  8
0
 10
15.7573214999293
 20
14.95270682241551
 30
0.0
 42
0.0483399873561445
  0
VERTEX
  5
13F
  8
0
 10
15.874078125
 20
14.950578125
 30
0.0
 42
0.1094000893427023
  0
VERTEX
  5
140
  8
0
 10
16.11585261475715
 20
15.02439090261698
 30
0.0
 42
0.1090147381991872
  0
VERTEX
  5
141
  8
0
 10
16.30463671875
 20
15.193818359375
 30
0.0
 42
0.0070163629388715
  0
VERTEX
  5
142
  8
0
 10
16.31128203098393
 20
15.20336333391315
 30
0.0
 42
0.0038536991274728
  0
VERTEX
  5
143
  8
0
 10
16.323
 20
15.221
 30
0.0
  0
VERTEX
  5
144
  8
0
 10
16.347
 20
15.259
 30
0.0
  0
VERTEX
  5
145
  8
0
 10
16.421
 20
15.158
 30
0.0
 42
-0.0063959579047789
  0
VERTEX
  5
146
  8
0
 10
16.47760266470777
 20
15.07816527644644
 30
0.0
 42
-0.0054717332668737
  0
SEQEND
  5
147
  8
0
  0
POLYLINE
  5
44
  8
0
 66
     1
 10
0.0
 20
0.0
 30
0.0
 70
     1
  0
VERTEX
  5
148
  8
0
 10
11.51247036743164
 20
6.588703704833984
 30
0.0
 42
-0.2084935446698187
  0
VERTEX
  5
149
  8
0
 10
7.706266717909529
 20
8.66646464371071
 30
0.0
 42
-0.2083080164206536
  0
VERTEX
  5
14A
  8
0
 10
6.63559765625
 20
12.87225390625
 30
0.0
 42
-0.0572292053485903
  0
VERTEX
  5
14B
  8
0
 10
6.966535988250722
 20
14.04159358100798
 30
0.0
 42
-0.0551900627153466
  0
VERTEX
  5
14C
  8
0
 10
7.570999999999999
 20
15.147
 30
0.0
  0
VERTEX
  5
14D
  8
0
 10
7.634
 20
15.235
 30
0.0
  0
VERTEX
  5
14E
  8
0
 10
7.667
 20
15.187
 30
0.0
 42
0.157291747423569
  0
VERTEX
  5
14F
  8
0
 10
7.938937123903823
 20
14.98679894723129
 30
0.0
 42
0.0987516013781601
  0
VERTEX
  5
150
  8
0
 10
8.217734375
 20
14.9515625
 30
0.0
 42
0.0090868374843568
  0
VERTEX
  5
151
  8
0
 10
8.327648066333817
 20
14.96140588653672
 30
0.0
 42
-0.0390362268810062
  0
VERTEX
  5
152
  8
0
 10
8.355234375
 20
14.96221875
 30
0.0
 42
-0.1406587779890192
  0
VERTEX
  5
153
  8
0
 10
8.371382163607436
 20
14.95672272485054
 30
0.0
 42
-0.1661700627075159
  0
VERTEX
  5
154
  8
0
 10
8.379999999999999
 20
14.945
 30
0.0
 42
-0.0731121645752781
  0
VERTEX
  5
155
  8
0
 10
8.387192241255281
 20
14.9000402688834
 30
0.0
 42
0.1875931284888098
  0
VERTEX
  5
156
  8
0
 10
8.455
 20
14.732
 30
0.0
 42
0.162094423498097
  0
VERTEX
  5
157
  8
0
 10
8.632200375953435
 20
14.63634479211654
 30
0.0
 42
0.0510456195340154
  0
VERTEX
  5
158
  8
0
 10
8.888
 20
14.618
 30
0.0
 42
0.0181165531421165
  0
VERTEX
  5
159
  8
0
 10
8.966683531964465
 20
14.62325116254289
 30
0.0
 42
-0.056104894224454
  0
VERTEX
  5
15A
  8
0
 10
9.009156249999998
 20
14.622859375
 30
0.0
 42
-0.0874005096282068
  0
VERTEX
  5
15B
  8
0
 10
9.028625519226058
 20
14.6169289759659
 30
0.0
 42
-0.1476566673461806
  0
VERTEX
  5
15C
  8
0
 10
9.037453124999999
 20
14.608484375
 30
0.0
 42
-0.0692271246492911
  0
VERTEX
  5
15D
  8
0
 10
9.043250112210098
 20
14.5938063981455
 30
0.0
 42
0.0419216280834775
  0
VERTEX
  5
15E
  8
0
 10
9.063203125000001
 20
14.5339375
 30
0.0
 42
0.057341877200677
  0
VERTEX
  5
15F
  8
0
 10
9.132327747907368
 20
14.41322385714855
 30
0.0
 42
0.1242992384237585
  0
VERTEX
  5
160
  8
0
 10
9.315681640625
 20
14.262248046875
 30
0.0
 42
0.0812366961682841
  0
VERTEX
  5
161
  8
0
 10
9.520307194784959
 20
14.20353840044795
 30
0.0
 42
0.0797360302897813
  0
VERTEX
  5
162
  8
0
 10
9.736953125
 20
14.212609375
 30
0.0
 42
0.0470798622646691
  0
VERTEX
  5
163
  8
0
 10
9.837047251304307
 20
14.24303238680009
 30
0.0
 42
0.0405874660409686
  0
VERTEX
  5
164
  8
0
 10
10.016
 20
14.334
 30
0.0
 42
0.0097192549411408
  0
VERTEX
  5
165
  8
0
 10
10.05788803956563
 20
14.3608997783442
 30
0.0
 42
-0.3997861562003295
  0
VERTEX
  5
166
  8
0
 10
10.098
 20
14.354
 30
0.0
 42
-0.03753991687686
  0
VERTEX
  5
167
  8
0
 10
10.11484537286803
 20
14.32741335782499
 30
0.0
 42
0.0653662320606552
  0
VERTEX
  5
168
  8
0
 10
10.188
 20
14.225
 30
0.0
 42
0.0711786959391059
  0
VERTEX
  5
169
  8
0
 10
10.37122356743073
 20
14.07747915333511
 30
0.0
 42
0.0796227602340015
  0
VERTEX
  5
16A
  8
0
 10
10.567
 20
14.0
 30
0.0
 42
0.039606344361079
  0
VERTEX
  5
16B
  8
0
 10
10.8094418364082
 20
13.9661415695884
 30
0.0
 42
0.0528382981709037
  0
VERTEX
  5
16C
  8
0
 10
11.358390625
 20
13.99140625
 30
0.0
 42
0.016651989708076
  0
VERTEX
  5
16D
  8
0
 10
11.53167166513451
 20
14.02381083076717
 30
0.0
 42
0.0213708885248874
  0
VERTEX
  5
16E
  8
0
 10
11.66440625
 20
14.05925
 30
0.0
 42
-0.0005390981723623
  0
VERTEX
  5
16F
  8
0
 10
11.73891139006848
 20
14.08250660642898
 30
0.0
 42
-0.0547654246579855
  0
VERTEX
  5
170
  8
0
 10
11.767
 20
14.08796875
 30
0.0
 42
-0.121051973654852
  0
VERTEX
  5
171
  8
0
 10
11.78627048279099
 20
14.08489270917148
 30
0.0
 42
-0.23707758655349
  0
VERTEX
  5
172
  8
0
 10
11.793
 20
14.077
 30
0.0
  0
VERTEX
  5
173
  8
0
 10
11.799
 20
13.364
 30
0.0
 42
-0.0007725253067182
  0
VERTEX
  5
174
  8
0
 10
11.80056812564366
 20
13.08448306110974
 30
0.0
 42
-0.0010162549147515
  0
VERTEX
  5
175
  8
0
 10
11.801
 20
12.872
 30
0.0
  0
VERTEX
  5
176
  8
0
 10
11.801
 20
12.634
 30
0.0
 42
-0.3260097410462654
  0
VERTEX
  5
177
  8
0
 10
11.78781517550158
 20
12.62196066863665
 30
0.0
 42
-0.0503233594903498
  0
VERTEX
  5
178
  8
0
 10
11.683
 20
12.621
 30
0.0
 42
-0.0085464534692492
  0
VERTEX
  5
179
  8
0
 10
11.60109572513044
 20
12.62992076189932
 30
0.0
 42
-0.0067041376331408
  0
VERTEX
  5
17A
  8
0
 10
11.3380078125
 20
12.666724609375
 30
0.0
 42
-0.0249682494202315
  0
VERTEX
  5
17B
  8
0
 10
10.99073930566812
 20
12.73796004819128
 30
0.0
 42
-0.0279567228482524
  0
VERTEX
  5
17C
  8
0
 10
10.689
 20
12.834
 30
0.0
 42
-0.0615317479277474
  0
VERTEX
  5
17D
  8
0
 10
10.4372074962716
 20
12.96732036704279
 30
0.0
 42
-0.1731286597714968
  0
VERTEX
  5
17E
  8
0
 10
10.377
 20
13.052
 30
0.0
 42
-0.045009156303382
  0
VERTEX
  5
17F
  8
0
 10
10.37051433582705
 20
13.08660772209257
 30
0.0
 42
-0.0313996469951071
  0
VERTEX
  5
180
  8
0
 10
10.368875
 20
13.137
 30
0.0
 42
-0.0416484772396493
  0
VERTEX
  5
181
  8
0
 10
10.37383010540598
 20
13.18046679390872
 30
0.0
 42
-0.1475050045100664
  0
VERTEX
  5
182
  8
0
 10
10.40221875
 20
13.233734375
 30
0.0
 42
-0.1409859214302417
  0
VERTEX
  5
183
  8
0
 10
10.44062621351578
 20
13.25512315416726
 30
0.0
 42
-0.0678399513079675
  0
VERTEX
  5
184
  8
0
 10
10.530234375
 20
13.2634375
 30
0.0
 42
-0.0363918655601339
  0
VERTEX
  5
185
  8
0
 10
10.61096281395914
 20
13.25405504967943
 30
0.0
 42
-0.1002447717422393
  0
VERTEX
  5
186
  8
0
 10
10.726
 20
13.207
 30
0.0
 42
-0.0038677196256281
  0
VERTEX
  5
187
  8
0
 10
10.85236729110927
 20
13.12131808720738
 30
0.0
 42
0.0585554224566284
  0
VERTEX
  5
188
  8
0
 10
10.9515
 20
13.068875
 30
0.0
 42
0.0629235198119539
  0
VERTEX
  5
189
  8
0
 10
11.07057976535271
 20
13.03923722354508
 30
0.0
 42
0.0779981463016787
  0
VERTEX
  5
18A
  8
0
 10
11.358
 20
13.05
 30
0.0
 42
0.0810665984299842
  0
VERTEX
  5
18B
  8
0
 10
11.50720949627995
 20
13.10529391643432
 30
0.0
 42
0.2465135277241699
  0
VERTEX
  5
18C
  8
0
 10
11.577
 20
13.214
 30
0.0
 42
0.0728106229251909
  0
VERTEX
  5
18D
  8
0
 10
11.56946656624984
 20
13.34370665900786
 30
0.0
 42
0.1289318500801477
  0
VERTEX
  5
18E
  8
0
 10
11.46027026367187
 20
13.5642001953125
 30
0.0
 42
0.0636526171502891
  0
VERTEX
  5
18F
  8
0
 10
11.35106002681701
 20
13.6614211798662
 30
0.0
 42
0.1113255174156448
  0
VERTEX
  5
190
  8
0
 10
11.09160546875
 20
13.764603515625
 30
0.0
 42
0.027491366828595
  0
VERTEX
  5
191
  8
0
 10
11.00243988707297
 20
13.77371260049709
 30
0.0
 42
0.0258991373086909
  0
VERTEX
  5
192
  8
0
 10
10.7491640625
 20
13.772458984375
 30
0.0
 42
0.0504767678416154
  0
VERTEX
  5
193
  8
0
 10
10.28608808577025
 20
13.69886592977454
 30
0.0
 42
0.0829795211292188
  0
VERTEX
  5
194
  8
0
 10
10.025
 20
13.581
 30
0.0
 42
0.0946645289839321
  0
VERTEX
  5
195
  8
0
 10
9.873841188362729
 20
13.43194276999189
 30
0.0
 42
0.1812241060692953
  0
VERTEX
  5
196
  8
0
 10
9.78071875
 20
13.05960546875
 30
0.0
 42
0.0909741596656148
  0
VERTEX
  5
197
  8
0
 10
9.83931543408463
 20
12.8667202322051
 30
0.0
 42
0.0867571975416756
  0
VERTEX
  5
198
  8
0
 10
10.054
 20
12.584
 30
0.0
 42
0.0470058141510484
  0
VERTEX
  5
199
  8
0
 10
10.29609362621109
 20
12.39830659214904
 30
0.0
 42
0.0450007683316403
  0
VERTEX
  5
19A
  8
0
 10
10.580125
 20
12.253875
 30
0.0
 42
0.0086524861519095
  0
VERTEX
  5
19B
  8
0
 10
10.65908406143377
 20
12.2238672458211
 30
0.0
 42
-0.0284047679674015
  0
VERTEX
  5
19C
  8
0
 10
10.736796875
 20
12.190765625
 30
0.0
 42
-0.0306473523220337
  0
VERTEX
  5
19D
  8
0
 10
10.775231745214
 20
12.16872134196398
 30
0.0
 42
-0.1823053368101916
  0
VERTEX
  5
19E
  8
0
 10
10.77975
 20
12.1625
 30
0.0
 42
-0.1809152243342477
  0
VERTEX
  5
19F
  8
0
 10
10.77897078294178
 20
12.15391157869848
 30
0.0
 42
-0.0704719109281514
  0
VERTEX
  5
1A0
  8
0
 10
10.767
 20
12.136
 30
0.0
 42
0.0108741415395475
  0
VERTEX
  5
1A1
  8
0
 10
10.69448681434479
 20
12.0513136292482
 30
0.0
 42
0.0482112858301634
  0
VERTEX
  5
1A2
  8
0
 10
10.615337890625
 20
11.933107421875
 30
0.0
 42
0.0465033232319601
  0
VERTEX
  5
1A3
  8
0
 10
10.55400158703786
 20
11.7883288032567
 30
0.0
 42
0.0412054647475605
  0
VERTEX
  5
1A4
  8
0
 10
10.51435546875
 20
11.615447265625
 30
0.0
 42
0.1076839985459853
  0
VERTEX
  5
1A5
  8
0
 10
10.53284391096651
 20
11.35722902687103
 30
0.0
 42
0.1140582131275818
  0
VERTEX
  5
1A6
  8
0
 10
10.653
 20
11.144
 30
0.0
 42
0.0700418321430569
  0
VERTEX
  5
1A7
  8
0
 10
10.90868900862239
 20
10.93269022475451
 30
0.0
 42
0.0282561175409592
  0
VERTEX
  5
1A8
  8
0
 10
11.090625
 20
10.834640625
 30
0.0
 42
-0.0019629823897846
  0
VERTEX
  5
1A9
  8
0
 10
11.15504352038219
 20
10.80417752201574
 30
0.0
 42
-0.0596037573070565
  0
VERTEX
  5
1AA
  8
0
 10
11.179
 20
10.789
 30
0.0
 42
-0.1422628132183222
  0
VERTEX
  5
1AB
  8
0
 10
11.18960443226073
 20
10.77364429287173
 30
0.0
 42
-0.233444854472887
  0
VERTEX
  5
1AC
  8
0
 10
11.188
 20
10.762
 30
0.0
 42
-0.1117570369257772
  0
VERTEX
  5
1AD
  8
0
 10
11.15757757486949
 20
10.73351014880457
 30
0.0
 42
0.0443369776870532
  0
VERTEX
  5
1AE
  8
0
 10
11.022
 20
10.637
 30
0.0
 42
0.044676495907499
  0
VERTEX
  5
1AF
  8
0
 10
10.89383107318262
 20
10.50594252387323
 30
0.0
 42
0.044301525990827
  0
VERTEX
  5
1B0
  8
0
 10
10.79
 20
10.353
 30
0.0
 42
0.099872340496981
  0
VERTEX
  5
1B1
  8
0
 10
10.73586796989226
 20
10.18330222783549
 30
0.0
 42
0.1010763012611912
  0
VERTEX
  5
1B2
  8
0
 10
10.752
 20
10.008
 30
0.0
 42
0.1196146569839175
  0
VERTEX
  5
1B3
  8
0
 10
10.89593505010752
 20
9.763090795139012
 30
0.0
 42
0.0509998185599291
  0
VERTEX
  5
1B4
  8
0
 10
11.129
 20
9.566999999999998
 30
0.0
 42
0.0196468577863265
  0
VERTEX
  5
1B5
  8
0
 10
11.19714745528421
 20
9.524440479957828
 30
0.0
 42
-0.0270663084409148
  0
VERTEX
  5
1B6
  8
0
 10
11.26465625
 20
9.480875000000001
 30
0.0
 42
-0.0223374494972665
  0
VERTEX
  5
1B7
  8
0
 10
11.28234736582633
 20
9.466805142044867
 30
0.0
 42
-0.3839565127807475
  0
VERTEX
  5
1B8
  8
0
 10
11.285
 20
9.444999999999999
 30
0.0
 42
-0.0416486783188647
  0
VERTEX
  5
1B9
  8
0
 10
11.27447525896355
 20
9.432387080235273
 30
0.0
 42
0.0069139405430564
  0
VERTEX
  5
1BA
  8
0
 10
11.229
 20
9.385
 30
0.0
 42
0.0220194952645884
  0
VERTEX
  5
1BB
  8
0
 10
11.17031436128908
 20
9.316301230952444
 30
0.0
 42
0.053791867500435
  0
VERTEX
  5
1BC
  8
0
 10
11.093296875
 20
9.192203124999999
 30
0.0
 42
0.0668584953667568
  0
VERTEX
  5
1BD
  8
0
 10
11.0394749103015
 20
9.026716151726207
 30
0.0
 42
0.111499654114007
  0
VERTEX
  5
1BE
  8
0
 10
11.0478125
 20
8.82425
 30
0.0
 42
0.0785037800967881
  0
VERTEX
  5
1BF
  8
0
 10
11.10006791490821
 20
8.707212077145314
 30
0.0
 42
0.0712200909801779
  0
VERTEX
  5
1C0
  8
0
 10
11.193
 20
8.600999999999999
 30
0.0
 42
0.0328885123236095
  0
VERTEX
  5
1C1
  8
0
 10
11.32812815081343
 20
8.499541857946783
 30
0.0
 42
-0.0505326770004413
  0
VERTEX
  5
1C2
  8
0
 10
11.361
 20
8.473
 30
0.0
 42
-0.2002540315067173
  0
VERTEX
  5
1C3
  8
0
 10
11.36634322034419
 20
8.46019389515282
 30
0.0
 42
-0.1819885825344499
  0
VERTEX
  5
1C4
  8
0
 10
11.361
 20
8.446
 30
0.0
 42
-0.0086058503685252
  0
VERTEX
  5
1C5
  8
0
 10
11.32163517175695
 20
8.402652552848425
 30
0.0
 42
0.0341616145953475
  0
VERTEX
  5
1C6
  8
0
 10
11.28453515625
 20
8.3573515625
 30
0.0
 42
0.0891523589710528
  0
VERTEX
  5
1C7
  8
0
 10
11.2336312370276
 20
8.24924411201928
 30
0.0
 42
0.1002839771569852
  0
VERTEX
  5
1C8
  8
0
 10
11.227
 20
8.143
 30
0.0
 42
0.1505688479715138
  0
VERTEX
  5
1C9
  8
0
 10
11.3281894763414
 20
7.926069567212284
 30
0.0
 42
0.0640790773623802
  0
VERTEX
  5
1CA
  8
0
 10
11.523125
 20
7.759374999999999
 30
0.0
 42
0.0162757987090941
  0
VERTEX
  5
1CB
  8
0
 10
11.59415206419932
 20
7.716127300357324
 30
0.0
 42
-0.0296245617211613
  0
VERTEX
  5
1CC
  8
0
 10
11.664
 20
7.670999999999999
 30
0.0
 42
-0.1612387855736677
  0
VERTEX
  5
1CD
  8
0
 10
11.67360675134938
 20
7.657492808045287
 30
0.0
 42
-0.2164957851572082
  0
VERTEX
  5
1CE
  8
0
 10
11.672
 20
7.645
 30
0.0
 42
-0.1587544194595271
  0
VERTEX
  5
1CF
  8
0
 10
11.65044735152698
 20
7.626787702441757
 30
0.0
 42
0.021885844451704
  0
VERTEX
  5
1D0
  8
0
 10
11.603
 20
7.604999999999999
 30
0.0
 42
0.0127837427384208
  0
VERTEX
  5
1D1
  8
0
 10
11.47663994809153
 20
7.53600086161001
 30
0.0
 42
0.0163925939975836
  0
VERTEX
  5
1D2
  8
0
 10
11.195154296875
 20
7.360246093749999
 30
0.0
 42
0.0069691201255426
  0
VERTEX
  5
1D3
  8
0
 10
11.13095013510306
 20
7.315860579408745
 30
0.0
 42
0.0786247346891812
  0
VERTEX
  5
1D4
  8
0
 10
11.074
 20
7.26
 30
0.0
 42
0.1408857798601673
  0
VERTEX
  5
1D5
  8
0
 10
11.06128620120241
 20
7.226037630316196
 30
0.0
 42
0.2827058886410042
  0
VERTEX
  5
1D6
  8
0
 10
11.07
 20
7.209
 30
0.0
 42
0.1773242380843509
  0
VERTEX
  5
1D7
  8
0
 10
11.10994871009953
 20
7.201068091854608
 30
0.0
 42
0.0564261798016845
  0
VERTEX
  5
1D8
  8
0
 10
11.23
 20
7.233999999999999
 30
0.0
 42
0.0095248256618809
  0
VERTEX
  5
1D9
  8
0
 10
11.5565451705432
 20
7.371873072187308
 30
0.0
 42
-0.0185245042486052
  0
VERTEX
  5
1DA
  8
0
 10
11.7336875
 20
7.442937499999999
 30
0.0
 42
-0.0177683528107344
  0
VERTEX
  5
1DB
  8
0
 10
11.80159143607125
 20
7.464609513157469
 30
0.0
 42
-0.1160259970516182
  0
VERTEX
  5
1DC
  8
0
 10
11.812640625
 20
7.465078125
 30
0.0
 42
-0.287956644852879
  0
VERTEX
  5
1DD
  8
0
 10
11.82494625582683
 20
7.453628574852953
 30
0.0
 42
-0.0835528949801724
  0
VERTEX
  5
1DE
  8
0
 10
11.83
 20
7.399999999999999
 30
0.0
 42
0.0241891238087897
  0
VERTEX
  5
1DF
  8
0
 10
11.82686518353638
 20
7.271502930847815
 30
0.0
 42
0.0189523129391609
  0
VERTEX
  5
1E0
  8
0
 10
11.8525
 20
6.857749999999999
 30
0.0
 42
0.0094444961216269
  0
VERTEX
  5
1E1
  8
0
 10
11.87014003443976
 20
6.709795912135735
 30
0.0
 42
-0.0165858415941226
  0
VERTEX
  5
1E2
  8
0
 10
11.8785
 20
6.629999999999999
 30
0.0
 42
-0.0060965599635581
  0
VERTEX
  5
1E3
  8
0
 10
11.88074963611612
 20
6.591930623373147
 30
0.0
 42
-0.3944631218526902
  0
VERTEX
  5
1E4
  8
0
 10
11.858703125
 20
6.566
 30
0.0
 42
-0.0286907018010857
  0
VERTEX
  5
1E5
  8
0
 10
11.85712736191849
 20
6.565909506011935
 30
0.0
 42
-0.00882392773203
  0
VERTEX
  5
1E6
  8
0
 10
11.852
 20
6.566
 30
0.0
 42
-0.009671942986465
  0
VERTEX
  5
1E7
  8
0
 10
11.81057966399619
 20
6.568265382283709
 30
0.0
 42
0.0046207467131325
  0
VERTEX
  5
1E8
  8
0
 10
11.645
 20
6.578999999999999
 30
0.0
 42
-0.0043975792790346
  0
VERTEX
  5
1E9
  8
0
 10
11.58289357673031
 20
6.582998557064562
 30
0.0
 42
-0.0038735597085842
  0
SEQEND
  5
1EA
  8
0
  0
POLYLINE
  5
45
  8
0
 66
     1
 10
0.0
 20
0.0
 30
0.0
 70
     1
  0
VERTEX
  5
1EB
  8
0
 10
11.1730625
 20
13.461203125
 30
0.0
 42
-0.1200477788134689
  0
VERTEX
  5
1EC
  8
0
 10
11.12930579300704
 20
13.45629627373269
 30
0.0
 42
-0.0954932101508788
  0
VERTEX
  5
1ED
  8
0
 10
11.044431640625
 20
13.484205078125
 30
0.0
 42
-0.1140581782933838
  0
VERTEX
  5
1EE
  8
0
 10
11.01208137905769
 20
13.51346214569602
 30
0.0
 42
-0.4088792276255911
  0
VERTEX
  5
1EF
  8
0
 10
11.022
 20
13.572
 30
0.0
 42
-0.1841624231082567
  0
VERTEX
  5
1F0
  8
0
 10
11.07971306019375
 20
13.58750335083199
 30
0.0
 42
-0.1129517547240218
  0
VERTEX
  5
1F1
  8
0
 10
11.170103515625
 20
13.556869140625
 30
0.0
 42
-0.1297276269211189
  0
VERTEX
  5
1F2
  8
0
 10
11.20369392834678
 20
13.52160332000642
 30
0.0
 42
-0.207450134047314
  0
VERTEX
  5
1F3
  8
0
 10
11.206625
 20
13.4905
 30
0.0
 42
-0.1353209475793092
  0
VERTEX
  5
1F4
  8
0
 10
11.19637097075988
 20
13.47498969274769
 30
0.0
 42
-0.0920126883145371
  0
SEQEND
  5
1F5
  8
0
  0
POLYLINE
  5
46
  8
0
 66
     1
 10
0.0
 20
0.0
 30
0.0
 70
     1
  0
VERTEX
  5
1F6
  8
0
 10
11.815140625
 20
8.193874999999998
 30
0.0
 42
-0.11680682631487
  0
VERTEX
  5
1F7
  8
0
 10
11.82112221454052
 20
8.18699982758599
 30
0.0
 42
-0.1019688917186806
  0
VERTEX
  5
1F8
  8
0
 10
11.824
 20
8.177
 30
0.0
 42
-0.0304765792519485
  0
VERTEX
  5
1F9
  8
0
 10
11.82445440782013
 20
8.14867635517626
 30
0.0
 42
0.0193400244651836
  0
VERTEX
  5
1FA
  8
0
 10
11.82375
 20
8.035375
 30
0.0
 42
-0.0000360548452921
  0
VERTEX
  5
1FB
  8
0
 10
11.82527646624908
 20
7.98825807489041
 30
0.0
 42
-0.1745958103878898
  0
VERTEX
  5
1FC
  8
0
 10
11.82009375
 20
7.972265624999999
 30
0.0
 42
-0.1843068824053373
  0
VERTEX
  5
1FD
  8
0
 10
11.80866545439496
 20
7.965303245752938
 30
0.0
 42
-0.2078341931489419
  0
VERTEX
  5
1FE
  8
0
 10
11.797
 20
7.968
 30
0.0
 42
-0.1600759210012397
  0
VERTEX
  5
1FF
  8
0
 10
11.73335014540557
 20
8.057854159827597
 30
0.0
 42
-0.1954700639781928
  0
VERTEX
  5
200
  8
0
 10
11.74130078125
 20
8.148789062499999
 30
0.0
 42
-0.106735472377152
  0
VERTEX
  5
201
  8
0
 10
11.76586309870557
 20
8.178796271512455
 30
0.0
 42
-0.1067130402641859
  0
VERTEX
  5
202
  8
0
 10
11.800625
 20
8.196
 30
0.0
 42
-0.0983908550324909
  0
VERTEX
  5
203
  8
0
 10
11.80884380761483
 20
8.196417783950034
 30
0.0
 42
-0.1197851034254395
  0
SEQEND
  5
204
  8
0
  0
POLYLINE
  5
47
  8
0
 66
     1
 10
0.0
 20
0.0
 30
0.0
 70
     1
  0
VERTEX
  5
205
  8
0
 10
12.1395625
 20
8.04634375
 30
0.0
 42
-0.0395479287483794
  0
VERTEX
  5
206
  8
0
 10
12.14830190336114
 20
8.11337443013624
 30
0.0
 42
-0.2362765457068053
  0
VERTEX
  5
207
  8
0
 10
12.155734375
 20
8.122703125
 30
0.0
 42
-0.2320198976834977
  0
VERTEX
  5
208
  8
0
 10
12.17635862344763
 20
8.122250071597085
 30
0.0
 42
-0.1779544632897664
  0
VERTEX
  5
209
  8
0
 10
12.219171875
 20
8.075421875
 30
0.0
 42
-0.1968359599558002
  0
VERTEX
  5
20A
  8
0
 10
12.2191551654872
 20
8.016871196563251
 30
0.0
 42
-0.1630610385078801
  0
VERTEX
  5
20B
  8
0
 10
12.17350390625
 20
7.964001953124999
 30
0.0
 42
-0.0775479933778414
  0
VERTEX
  5
20C
  8
0
 10
12.16053056649128
 20
7.958813192447036
 30
0.0
 42
-0.2970932557389406
  0
VERTEX
  5
20D
  8
0
 10
12.143
 20
7.96525
 30
0.0
 42
-0.1473066103330329
  0
VERTEX
  5
20E
  8
0
 10
12.13976881046639
 20
7.974134499244704
 30
0.0
 42
-0.0267315098097973
  0
SEQEND
  5
20F
  8
0
  0
POLYLINE
  5
48
  8
0
 66
     1
 10
0.0
 20
0.0
 30
0.0
 70
     1
  0
VERTEX
  5
210
  8
0
 10
12.1720625
 20
9.134
 30
0.0
 42
-0.1365561566046508
  0
VERTEX
  5
211
  8
0
 10
12.19400902867838
 20
9.125543656686649
 30
0.0
 42
-0.0897189456480447
  0
VERTEX
  5
212
  8
0
 10
12.2519375
 20
9.0636875
 30
0.0
 42
-0.1040206745404336
  0
VERTEX
  5
213
  8
0
 10
12.27758358967096
 20
8.996846513983163
 30
0.0
 42
-0.2435786866878963
  0
VERTEX
  5
214
  8
0
 10
12.241
 20
8.886
 30
0.0
 42
-0.0432051578912224
  0
VERTEX
  5
215
  8
0
 10
12.18426913823426
 20
8.839386878478548
 30
0.0
 42
-0.1893300375673054
  0
VERTEX
  5
216
  8
0
 10
12.167390625
 20
8.835484375
 30
0.0
 42
-0.3083725728547707
  0
VERTEX
  5
217
  8
0
 10
12.14879791272133
 20
8.852641127326528
 30
0.0
 42
-0.0643963086751416
  0
VERTEX
  5
218
  8
0
 10
12.145
 20
8.891
 30
0.0
 42
0.0186775788096777
  0
VERTEX
  5
219
  8
0
 10
12.14425386701727
 20
8.991498775457798
 30
0.0
 42
-0.021127629655418
  0
VERTEX
  5
21A
  8
0
 10
12.144
 20
9.092
 30
0.0
 42
-0.1015206916546793
  0
VERTEX
  5
21B
  8
0
 10
12.15197342439625
 20
9.12429245270644
 30
0.0
 42
-0.2274428141488661
  0
VERTEX
  5
21C
  8
0
 10
12.164
 20
9.134
 30
0.0
 42
-0.0580209276918739
  0
VERTEX
  5
21D
  8
0
 10
12.16636089844101
 20
9.13427488842758
 30
0.0
 42
-0.0240922545533901
  0
SEQEND
  5
21E
  8
0
  0
POLYLINE
  5
49
  8
0
 66
     1
 10
0.0
 20
0.0
 30
0.0
 70
     1
  0
VERTEX
  5
21F
  8
0
 10
11.6193671875
 20
11.23543359375
 30
0.0
 42
-0.0778159609271571
  0
VERTEX
  5
220
  8
0
 10
11.45670256931379
 20
11.34589717653132
 30
0.0
 42
-0.2091438085879332
  0
VERTEX
  5
221
  8
0
 10
11.3370703125
 20
11.6237421875
 30
0.0
 42
-0.0651995608207067
  0
VERTEX
  5
222
  8
0
 10
11.34822635989712
 20
11.70527878783946
 30
0.0
 42
-0.146311589725022
  0
VERTEX
  5
223
  8
0
 10
11.421140625
 20
11.822421875
 30
0.0
 42
-0.0597186099287187
  0
VERTEX
  5
224
  8
0
 10
11.47206626549659
 20
11.85757573078306
 30
0.0
 42
-0.0581124830798658
  0
VERTEX
  5
225
  8
0
 10
11.631
 20
11.919
 30
0.0
 42
-0.0191857408454118
  0
VERTEX
  5
226
  8
0
 10
11.68299481232183
 20
11.93031807986914
 30
0.0
 42
-0.0169782809282444
  0
VERTEX
  5
227
  8
0
 10
11.742515625
 20
11.938828125
 30
0.0
 42
-0.0163147578726426
  0
VERTEX
  5
228
  8
0
 10
11.78124509161783
 20
11.94175518087957
 30
0.0
 42
-0.2080963135105418
  0
VERTEX
  5
229
  8
0
 10
11.798140625
 20
11.93525
 30
0.0
 42
-0.131502866250596
  0
VERTEX
  5
22A
  8
0
 10
11.80632048956831
 20
11.9213347150592
 30
0.0
 42
-0.0824598019715659
  0
VERTEX
  5
22B
  8
0
 10
11.809
 20
11.896
 30
0.0
 42
-0.0075633425028654
  0
VERTEX
  5
22C
  8
0
 10
11.8066568214151
 20
11.8645217891165
 30
0.0
 42
0.0184594217968319
  0
VERTEX
  5
22D
  8
0
 10
11.805
 20
11.833
 30
0.0
 42
0.0137571715099781
  0
VERTEX
  5
22E
  8
0
 10
11.80936019771835
 20
11.46705802785934
 30
0.0
 42
-0.0173782789928879
  0
VERTEX
  5
22F
  8
0
 10
11.81028125
 20
11.27
 30
0.0
 42
-0.0198588525426312
  0
VERTEX
  5
230
  8
0
 10
11.80502810891298
 20
11.19485324938139
 30
0.0
 42
-0.1277478278155986
  0
VERTEX
  5
231
  8
0
 10
11.800796875
 20
11.183734375
 30
0.0
 42
-0.205233234697844
  0
VERTEX
  5
232
  8
0
 10
11.78948483003599
 20
11.17682674714372
 30
0.0
 42
-0.1226972767809699
  0
VERTEX
  5
233
  8
0
 10
11.768
 20
11.179
 30
0.0
 42
-0.0044718488086245
  0
VERTEX
  5
234
  8
0
 10
11.64656759085701
 20
11.22386757864697
 30
0.0
 42
-0.0195931078870986
  0
SEQEND
  5
235
  8
0
  0
POLYLINE
  5
4A
  8
0
 66
     1
 10
0.0
 20
0.0
 30
0.0
 70
     1
  0
VERTEX
  5
236
  8
0
 10
12.760078125
 20
13.526828125
 30
0.0
 42
-0.1517590057546203
  0
VERTEX
  5
237
  8
0
 10
12.78700884412905
 20
13.5552873093774
 30
0.0
 42
-0.0996085412635231
  0
VERTEX
  5
238
  8
0
 10
12.875134765625
 20
13.583828125
 30
0.0
 42
-0.121871702045885
  0
VERTEX
  5
239
  8
0
 10
12.93154381941899
 20
13.57657350359761
 30
0.0
 42
-0.1996210479587643
  0
VERTEX
  5
23A
  8
0
 10
12.957220703125
 20
13.551947265625
 30
0.0
 42
-0.2355270653823374
  0
VERTEX
  5
23B
  8
0
 10
12.95531873963054
 20
13.51424459510328
 30
0.0
 42
-0.1572702252604025
  0
VERTEX
  5
23C
  8
0
 10
12.915
 20
13.477
 30
0.0
 42
-0.1105982961971267
  0
VERTEX
  5
23D
  8
0
 10
12.82335882356199
 20
13.45713193832633
 30
0.0
 42
-0.1787094895101927
  0
VERTEX
  5
23E
  8
0
 10
12.768
 20
13.478
 30
0.0
 42
-0.1757220084826735
  0
VERTEX
  5
23F
  8
0
 10
12.75600772686358
 20
13.4995033343608
 30
0.0
 42
-0.1555950864823344
  0
SEQEND
  5
240
  8
0
  0
POLYLINE
  5
4B
  8
0
 66
     1
 10
0.0
 20
0.0
 30
0.0
 70
     1
  0
VERTEX
  5
241
  8
0
 10
12.1630625
 20
11.183109375
 30
0.0
 42
-0.0852508640777348
  0
VERTEX
  5
242
  8
0
 10
12.15960763050044
 20
11.18976979403958
 30
0.0
 42
-0.0680935586787835
  0
VERTEX
  5
243
  8
0
 10
12.158
 20
11.199
 30
0.0
 42
-0.0232373457632686
  0
VERTEX
  5
244
  8
0
 10
12.1584202673593
 20
11.24101380315811
 30
0.0
 42
0.0094311626177475
  0
VERTEX
  5
245
  8
0
 10
12.16
 20
11.283
 30
0.0
 42
0.0038331652042178
  0
VERTEX
  5
246
  8
0
 10
12.1617177880856
 20
11.43803919224321
 30
0.0
 42
0.0043079014689729
  0
VERTEX
  5
247
  8
0
 10
12.161
 20
11.576
 30
0.0
 42
-0.0006138351404124
  0
VERTEX
  5
248
  8
0
 10
12.15803848752946
 20
11.81119861914808
 30
0.0
 42
-0.0138576943144776
  0
VERTEX
  5
249
  8
0
 10
12.159
 20
11.87
 30
0.0
 42
-0.0558947931707175
  0
VERTEX
  5
24A
  8
0
 10
12.16854041772874
 20
11.93076357033006
 30
0.0
 42
-0.2235447458584773
  0
VERTEX
  5
24B
  8
0
 10
12.179
 20
11.943
 30
0.0
 42
-0.1495289309631126
  0
VERTEX
  5
24C
  8
0
 10
12.21153465192511
 20
11.94714802975807
 30
0.0
 42
-0.0382397330396544
  0
VERTEX
  5
24D
  8
0
 10
12.387
 20
11.903
 30
0.0
 42
-0.0742177650571549
  0
VERTEX
  5
24E
  8
0
 10
12.53023016884706
 20
11.83004651328183
 30
0.0
 42
-0.240110310588783
  0
VERTEX
  5
24F
  8
0
 10
12.636
 20
11.627
 30
0.0
 42
-0.1964797569264344
  0
VERTEX
  5
250
  8
0
 10
12.53221852520256
 20
11.36646675012527
 30
0.0
 42
-0.1448727702035481
  0
VERTEX
  5
251
  8
0
 10
12.207
 20
11.182
 30
0.0
 42
-0.0297377650730182
  0
VERTEX
  5
252
  8
0
 10
12.17736916866823
 20
11.17695155845125
 30
0.0
 42
-0.2637466093275007
  0
SEQEND
  5
253
  8
0
  0
POLYLINE
  5
4C
  8
0
 66
     1
 10
0.0
 20
0.0
 30
0.0
 70
     1
  0
VERTEX
  5
254
  8
0
 10
11.80475
 20
9.837421875
 30
0.0
 42
-0.2059755776725699
  0
VERTEX
  5
255
  8
0
 10
11.78678786323896
 20
9.837127557175226
 30
0.0
 42
-0.0508536123864611
  0
VERTEX
  5
256
  8
0
 10
11.66
 20
9.905
 30
0.0
 42
-0.1247219535004053
  0
VERTEX
  5
257
  8
0
 10
11.53210290787086
 20
10.04805617203494
 30
0.0
 42
-0.2307133992783369
  0
VERTEX
  5
258
  8
0
 10
11.52628125
 20
10.257
 30
0.0
 42
-0.1086446250071793
  0
VERTEX
  5
259
  8
0
 10
11.59218122571107
 20
10.34512784118089
 30
0.0
 42
-0.0652993742116194
  0
VERTEX
  5
25A
  8
0
 10
11.744
 20
10.445
 30
0.0
 42
-0.0339794187779395
  0
VERTEX
  5
25B
  8
0
 10
11.78961329400042
 20
10.46340492430469
 30
0.0
 42
-0.4599644284832035
  0
VERTEX
  5
25C
  8
0
 10
11.81
 20
10.451
 30
0.0
 42
-0.037651354391347
  0
VERTEX
  5
25D
  8
0
 10
11.8135870085786
 20
10.40972062148713
 30
0.0
 42
0.000195423111692
  0
VERTEX
  5
25E
  8
0
 10
11.815
 20
10.29
 30
0.0
 42
-0.0030481855872574
  0
VERTEX
  5
25F
  8
0
 10
11.8151696345166
 20
10.26217476830021
 30
0.0
 42
-0.0008064405989269
  0
VERTEX
  5
260
  8
0
 10
11.815
 20
10.157
 30
0.0
 42
-0.0000524105981876
  0
VERTEX
  5
261
  8
0
 10
11.81417398771117
 20
9.908992590785447
 30
0.0
 42
-0.0077500958118261
  0
VERTEX
  5
262
  8
0
 10
11.813
 20
9.846999999999998
 30
0.0
 42
-0.1707830079806252
  0
VERTEX
  5
263
  8
0
 10
11.81111147088961
 20
9.84217019528323
 30
0.0
 42
-0.1097129445211873
  0
SEQEND
  5
264
  8
0
  0
POLYLINE
  5
4D
  8
0
 66
     1
 10
0.0
 20
0.0
 30
0.0
 70
     1
  0
VERTEX
  5
265
  8
0
 10
12.318009765625
 20
10.345080078125
 30
0.0
 42
-0.0324021815405063
  0
VERTEX
  5
266
  8
0
 10
12.39792449004237
 20
10.28718970538299
 30
0.0
 42
-0.0355293554492313
  0
VERTEX
  5
267
  8
0
 10
12.463
 20
10.225
 30
0.0
 42
-0.182987657298402
  0
VERTEX
  5
268
  8
0
 10
12.50886283398106
 20
10.10851047628597
 30
0.0
 42
-0.1908123960019499
  0
VERTEX
  5
269
  8
0
 10
12.466
 20
9.995999999999999
 30
0.0
 42
-0.0668703908949749
  0
VERTEX
  5
26A
  8
0
 10
12.35876637642667
 20
9.90637812302716
 30
0.0
 42
-0.0275760877944427
  0
VERTEX
  5
26B
  8
0
 10
12.2248125
 20
9.831890625
 30
0.0
 42
-0.0185547105961687
  0
VERTEX
  5
26C
  8
0
 10
12.18348440078784
 20
9.813669747938599
 30
0.0
 42
-0.2266066803349539
  0
VERTEX
  5
26D
  8
0
 10
12.162203125
 20
9.815109374999999
 30
0.0
 42
-0.2047020709425017
  0
VERTEX
  5
26E
  8
0
 10
12.15622124443908
 20
9.822917369182868
 30
0.0
 42
-0.0531548037086267
  0
VERTEX
  5
26F
  8
0
 10
12.151
 20
9.858999999999998
 30
0.0
 42
-0.0108672415972097
  0
VERTEX
  5
270
  8
0
 10
12.14930583879703
 20
9.966477123253485
 30
0.0
 42
0.0000137413192569
  0
VERTEX
  5
271
  8
0
 10
12.151125
 20
10.2725
 30
0.0
 42
-0.0083972357119785
  0
VERTEX
  5
272
  8
0
 10
12.15339336604665
 20
10.37236222320649
 30
0.0
 42
-0.0313527832507592
  0
VERTEX
  5
273
  8
0
 10
12.156125
 20
10.399
 30
0.0
 42
-0.1231764839925656
  0
VERTEX
  5
274
  8
0
 10
12.16204942168156
 20
10.41263116060132
 30
0.0
 42
-0.2486496554928438
  0
VERTEX
  5
275
  8
0
 10
12.176
 20
10.419
 30
0.0
 42
-0.1033858314355273
  0
VERTEX
  5
276
  8
0
 10
12.19078868746152
 20
10.41498367971358
 30
0.0
 42
-0.0049386925795013
  0
VERTEX
  5
277
  8
0
 10
12.244875
 20
10.38675
 30
0.0
 42
-0.0067289676252009
  0
VERTEX
  5
278
  8
0
 10
12.29069612441407
 20
10.36145321204676
 30
0.0
 42
-0.0110604879354357
  0
SEQEND
  5
279
  8
0
  0
POLYLINE
  5
4E
  8
0
 66
     1
 10
0.0
 20
0.0
 30
0.0
 70
     1
  0
VERTEX
  5
27A
  8
0
 10
11.92674976921082
 20
17.66853602409363
 30
0.0
 42
0.0582393089438068
  0
VERTEX
  5
27B
  8
0
 10
10.62167837346606
 20
17.49921821226723
 30
0.0
 42
0.1085963602852582
  0
VERTEX
  5
27C
  8
0
 10
8.447127962112425
 20
16.41720523262024
 30
0.0
 42
0.0908546510236647
  0
VERTEX
  5
27D
  8
0
 10
7.107496863157095
 20
14.86345528243178
 30
0.0
 42
0.1237022679358797
  0
VERTEX
  5
27E
  8
0
 10
6.335159063339233
 20
12.21907910728455
 30
0.0
 42
0.059357208144441
  0
VERTEX
  5
27F
  8
0
 10
6.44370700945707
 20
10.87466752143924
 30
0.0
 42
0.1112149327540826
  0
VERTEX
  5
280
  8
0
 10
7.457494750976563
 20
8.608534545898436
 30
0.0
 42
0.0946835463569898
  0
VERTEX
  5
281
  8
0
 10
9.035975469392913
 20
7.167783362248098
 30
0.0
 42
0.128957352596286
  0
VERTEX
  5
282
  8
0
 10
11.78092089271545
 20
6.335159063339233
 30
0.0
 42
0.0593572081444379
  0
VERTEX
  5
283
  8
0
 10
13.12533247856078
 20
6.443707009457075
 30
0.0
 42
0.1112149327540812
  0
VERTEX
  5
284
  8
0
 10
15.39146545410156
 20
7.457494750976563
 30
0.0
 42
0.0946835463569899
  0
VERTEX
  5
285
  8
0
 10
16.83221663775191
 20
9.035975469392918
 30
0.0
 42
0.1289573525962877
  0
VERTEX
  5
286
  8
0
 10
17.66484093666077
 20
11.78092089271545
 30
0.0
 42
0.0593572081444323
  0
VERTEX
  5
287
  8
0
 10
17.55629299054292
 20
13.12533247856083
 30
0.0
 42
0.1112149327540886
  0
VERTEX
  5
288
  8
0
 10
16.54250524902344
 20
15.39146545410156
 30
0.0
 42
0.0946835463569875
  0
VERTEX
  5
289
  8
0
 10
14.96402453060704
 20
16.83221663775192
 30
0.0
 42
0.1289573525962886
  0
VERTEX
  5
28A
  8
0
 10
12.21907910728455
 20
17.66484093666077
 30
0.0
 42
0.0063426997482582
  0
VERTEX
  5
28B
  8
0
 10
12.07311228685276
 20
17.66853829434363
 30
0.0
 42
0.0063275797400448
  0
SEQEND
  5
28C
  8
0
  0
ENDSEC
  0
EOF
