  0
SECTION
  2
HEADER
  9
$ACADVER
  1
AC1018
  9
$ACADMAINTVER
 70
     0
  9
$DWGCODEPAGE
  3
ANSI_1252
  9
$INSBASE
 10
0.0
 20
0.0
 30
0.0
  9
$EXTMIN
 10
-7.077539940753425
 20
-0.0844592210694476
 30
0.0
  9
$EXTMAX
 10
4.731911205920406
 20
8.721747429587743
 30
0.0
  9
$LIMMIN
 10
0.0
 20
0.0
  9
$LIMMAX
 10
12.0
 20
9.0
  9
$ORTHOMODE
 70
     0
  9
$REGENMODE
 70
     1
  9
$FILLMODE
 70
     1
  9
$QTEXTMODE
 70
     0
  9
$MIRRTEXT
 70
     0
  9
$LTSCALE
 40
1.0
  9
$ATTMODE
 70
     1
  9
$TEXTSIZE
 40
0.2
  9
$TRACEWID
 40
0.05
  9
$TEXTSTYLE
  7
Standard
  9
$CLAYER
  8
trunk
  9
$CELTYPE
  6
ByLayer
  9
$CECOLOR
 62
   256
  9
$CELTSCALE
 40
1.0
  9
$DISPSILH
 70
     0
  9
$DIMSCALE
 40
1.0
  9
$DIMASZ
 40
0.18
  9
$DIMEXO
 40
0.0625
  9
$DIMDLI
 40
0.38
  9
$DIMRND
 40
0.0
  9
$DIMDLE
 40
0.0
  9
$DIMEXE
 40
0.18
  9
$DIMTP
 40
0.0
  9
$DIMTM
 40
0.0
  9
$DIMTXT
 40
0.18
  9
$DIMCEN
 40
0.09
  9
$DIMTSZ
 40
0.0
  9
$DIMTOL
 70
     0
  9
$DIMLIM
 70
     0
  9
$DIMTIH
 70
     1
  9
$DIMTOH
 70
     1
  9
$DIMSE1
 70
     0
  9
$DIMSE2
 70
     0
  9
$DIMTAD
 70
     0
  9
$DIMZIN
 70
     0
  9
$DIMBLK
  1

  9
$DIMASO
 70
     1
  9
$DIMSHO
 70
     1
  9
$DIMPOST
  1

  9
$DIMAPOST
  1

  9
$DIMALT
 70
     0
  9
$DIMALTD
 70
     2
  9
$DIMALTF
 40
25.4
  9
$DIMLFAC
 40
1.0
  9
$DIMTOFL
 70
     0
  9
$DIMTVP
 40
0.0
  9
$DIMTIX
 70
     0
  9
$DIMSOXD
 70
     0
  9
$DIMSAH
 70
     0
  9
$DIMBLK1
  1

  9
$DIMBLK2
  1

  9
$DIMSTYLE
  2
Standard
  9
$DIMCLRD
 70
     0
  9
$DIMCLRE
 70
     0
  9
$DIMCLRT
 70
     0
  9
$DIMTFAC
 40
1.0
  9
$DIMGAP
 40
0.09
  9
$DIMJUST
 70
     0
  9
$DIMSD1
 70
     0
  9
$DIMSD2
 70
     0
  9
$DIMTOLJ
 70
     1
  9
$DIMTZIN
 70
     0
  9
$DIMALTZ
 70
     0
  9
$DIMALTTZ
 70
     0
  9
$DIMUPT
 70
     0
  9
$DIMDEC
 70
     4
  9
$DIMTDEC
 70
     4
  9
$DIMALTU
 70
     2
  9
$DIMALTTD
 70
     2
  9
$DIMTXSTY
  7
Standard
  9
$DIMAUNIT
 70
     0
  9
$DIMADEC
 70
     0
  9
$DIMALTRND
 40
0.0
  9
$DIMAZIN
 70
     0
  9
$DIMDSEP
 70
    46
  9
$DIMATFIT
 70
     3
  9
$DIMFRAC
 70
     0
  9
$DIMLDRBLK
  1

  9
$DIMLUNIT
 70
     2
  9
$DIMLWD
 70
    -2
  9
$DIMLWE
 70
    -2
  9
$DIMTMOVE
 70
     0
  9
$LUNITS
 70
     2
  9
$LUPREC
 70
     4
  9
$SKETCHINC
 40
0.1
  9
$FILLETRAD
 40
0.0
  9
$AUNITS
 70
     0
  9
$AUPREC
 70
     0
  9
$MENU
  1
.
  9
$ELEVATION
 40
0.0
  9
$PELEVATION
 40
0.0
  9
$THICKNESS
 40
0.0
  9
$LIMCHECK
 70
     0
  9
$CHAMFERA
 40
0.0
  9
$CHAMFERB
 40
0.0
  9
$CHAMFERC
 40
0.0
  9
$CHAMFERD
 40
0.0
  9
$SKPOLY
 70
     0
  9
$TDCREATE
 40
2454718.907878322
  9
$TDUCREATE
 40
2454719.116211655
  9
$TDUPDATE
 40
2454718.961854561
  9
$TDUUPDATE
 40
2454719.170187893
  9
$TDINDWG
 40
0.0539762384
  9
$TDUSRTIMER
 40
0.0539762384
  9
$USRTIMER
 70
     1
  9
$ANGBASE
 50
0.0
  9
$ANGDIR
 70
     0
  9
$PDMODE
 70
     0
  9
$PDSIZE
 40
0.0
  9
$PLINEWID
 40
0.0
  9
$SPLFRAME
 70
     0
  9
$SPLINETYPE
 70
     6
  9
$SPLINESEGS
 70
     8
  9
$HANDSEED
  5
CA
  9
$SURFTAB1
 70
     6
  9
$SURFTAB2
 70
     6
  9
$SURFTYPE
 70
     6
  9
$SURFU
 70
     6
  9
$SURFV
 70
     6
  9
$UCSBASE
  2

  9
$UCSNAME
  2

  9
$UCSORG
 10
0.0
 20
0.0
 30
0.0
  9
$UCSXDIR
 10
1.0
 20
0.0
 30
0.0
  9
$UCSYDIR
 10
0.0
 20
1.0
 30
0.0
  9
$UCSORTHOREF
  2

  9
$UCSORTHOVIEW
 70
     0
  9
$UCSORGTOP
 10
0.0
 20
0.0
 30
0.0
  9
$UCSORGBOTTOM
 10
0.0
 20
0.0
 30
0.0
  9
$UCSORGLEFT
 10
0.0
 20
0.0
 30
0.0
  9
$UCSORGRIGHT
 10
0.0
 20
0.0
 30
0.0
  9
$UCSORGFRONT
 10
0.0
 20
0.0
 30
0.0
  9
$UCSORGBACK
 10
0.0
 20
0.0
 30
0.0
  9
$PUCSBASE
  2

  9
$PUCSNAME
  2

  9
$PUCSORG
 10
0.0
 20
0.0
 30
0.0
  9
$PUCSXDIR
 10
1.0
 20
0.0
 30
0.0
  9
$PUCSYDIR
 10
0.0
 20
1.0
 30
0.0
  9
$PUCSORTHOREF
  2

  9
$PUCSORTHOVIEW
 70
     0
  9
$PUCSORGTOP
 10
0.0
 20
0.0
 30
0.0
  9
$PUCSORGBOTTOM
 10
0.0
 20
0.0
 30
0.0
  9
$PUCSORGLEFT
 10
0.0
 20
0.0
 30
0.0
  9
$PUCSORGRIGHT
 10
0.0
 20
0.0
 30
0.0
  9
$PUCSORGFRONT
 10
0.0
 20
0.0
 30
0.0
  9
$PUCSORGBACK
 10
0.0
 20
0.0
 30
0.0
  9
$USERI1
 70
     0
  9
$USERI2
 70
     0
  9
$USERI3
 70
     0
  9
$USERI4
 70
     0
  9
$USERI5
 70
     0
  9
$USERR1
 40
0.0
  9
$USERR2
 40
0.0
  9
$USERR3
 40
0.0
  9
$USERR4
 40
0.0
  9
$USERR5
 40
0.0
  9
$WORLDVIEW
 70
     1
  9
$SHADEDGE
 70
     3
  9
$SHADEDIF
 70
    70
  9
$TILEMODE
 70
     1
  9
$MAXACTVP
 70
    64
  9
$PINSBASE
 10
0.0
 20
0.0
 30
0.0
  9
$PLIMCHECK
 70
     0
  9
$PEXTMIN
 10
0.0
 20
0.0
 30
0.0
  9
$PEXTMAX
 10
0.0
 20
0.0
 30
0.0
  9
$PLIMMIN
 10
0.0
 20
0.0
  9
$PLIMMAX
 10
12.0
 20
9.0
  9
$UNITMODE
 70
     0
  9
$VISRETAIN
 70
     1
  9
$PLINEGEN
 70
     0
  9
$PSLTSCALE
 70
     1
  9
$TREEDEPTH
 70
  3020
  9
$CMLSTYLE
  2
Standard
  9
$CMLJUST
 70
     0
  9
$CMLSCALE
 40
1.0
  9
$PROXYGRAPHICS
 70
     1
  9
$MEASUREMENT
 70
     0
  9
$CELWEIGHT
370
    -1
  9
$ENDCAPS
280
     0
  9
$JOINSTYLE
280
     0
  9
$LWDISPLAY
290
     0
  9
$INSUNITS
 70
     1
  9
$HYPERLINKBASE
  1

  9
$STYLESHEET
  1

  9
$XEDIT
290
     1
  9
$CEPSNTYPE
380
     0
  9
$PSTYLEMODE
290
     1
  9
$FINGERPRINTGUID
  2
{FDEAD576-A652-11D2-9A35-0060089B3A3F}
  9
$VERSIONGUID
  2
{3F1FD11E-D28B-4BB6-B475-29C72DF974E9}
  9
$EXTNAMES
290
     1
  9
$PSVPSCALE
 40
0.0
  9
$OLESTARTUP
290
     0
  9
$SORTENTS
280
   127
  9
$INDEXCTL
280
     0
  9
$HIDETEXT
280
     1
  9
$XCLIPFRAME
290
     0
  9
$HALOGAP
280
     0
  9
$OBSCOLOR
 70
   257
  9
$OBSLTYPE
280
     0
  9
$INTERSECTIONDISPLAY
280
     0
  9
$INTERSECTIONCOLOR
 70
   257
  9
$DIMASSOC
280
     2
  9
$PROJECTNAME
  1

  0
ENDSEC
  0
SECTION
  2
CLASSES
  0
CLASS
  1
ACDBDICTIONARYWDFLT
  2
AcDbDictionaryWithDefault
  3
ObjectDBX Classes
 90
        0
 91
        1
280
     0
281
     0
  0
CLASS
  1
DICTIONARYVAR
  2
AcDbDictionaryVar
  3
ObjectDBX Classes
 90
        0
 91
        2
280
     0
281
     0
  0
CLASS
  1
SORTENTSTABLE
  2
AcDbSortentsTable
  3
ObjectDBX Classes
 90
        0
 91
        3
280
     0
281
     0
  0
ENDSEC
  0
SECTION
  2
TABLES
  0
TABLE
  2
VPORT
  5
8
330
0
100
AcDbSymbolTable
 70
    15
  0
VPORT
  5
C9
330
8
100
AcDbSymbolTableRecord
100
AcDbViewportTableRecord
  2
*Active
 70
     0
 10
0.0
 20
0.0
 11
1.0
 21
1.0
 12
-1.000161970407738
 22
3.756755593894342
 13
0.0
 23
0.0
 14
0.5
 24
0.5
 15
0.5
 25
0.5
 16
0.0
 26
0.0
 36
1.0
 17
0.0
 27
0.0
 37
0.0
 40
9.29918987519361
 41
1.996245306633291
 42
50.0
 43
0.0
 44
0.0
 50
0.0
 51
0.0
 71
     0
 72
  1000
 73
     1
 74
     3
 75
     0
 76
     0
 77
     0
 78
     0
281
     0
 65
     1
110
0.0
120
0.0
130
0.0
111
1.0
121
0.0
131
0.0
112
0.0
122
1.0
132
0.0
 79
     0
146
0.0
  0
ENDTAB
  0
TABLE
  2
LTYPE
  5
5
330
0
100
AcDbSymbolTable
 70
     1
  0
LTYPE
  5
14
330
5
100
AcDbSymbolTableRecord
100
AcDbLinetypeTableRecord
  2
ByBlock
 70
     0
  3

 72
    65
 73
     0
 40
0.0
  0
LTYPE
  5
15
330
5
100
AcDbSymbolTableRecord
100
AcDbLinetypeTableRecord
  2
ByLayer
 70
     0
  3

 72
    65
 73
     0
 40
0.0
  0
LTYPE
  5
16
330
5
100
AcDbSymbolTableRecord
100
AcDbLinetypeTableRecord
  2
Continuous
 70
     0
  3
Solid line
 72
    65
 73
     0
 40
0.0
  0
ENDTAB
  0
TABLE
  2
LAYER
  5
2
330
0
100
AcDbSymbolTable
 70
     3
  0
LAYER
  5
10
330
2
100
AcDbSymbolTableRecord
100
AcDbLayerTableRecord
  2
0
 70
     0
 62
     7
  6
Continuous
370
    -3
390
F
  0
LAYER
  5
8A
330
2
100
AcDbSymbolTableRecord
100
AcDbLayerTableRecord
  2
palm
 70
     0
 62
     7
  6
Continuous
370
    -3
390
F
  0
LAYER
  5
94
330
2
100
AcDbSymbolTableRecord
100
AcDbLayerTableRecord
  2
trunk
 70
     0
 62
    50
  6
Continuous
370
    -3
390
F
  0
ENDTAB
  0
TABLE
  2
STYLE
  5
3
330
0
100
AcDbSymbolTable
 70
     1
  0
STYLE
  5
11
330
3
100
AcDbSymbolTableRecord
100
AcDbTextStyleTableRecord
  2
Standard
 70
     0
 40
0.0
 41
1.0
 50
0.0
 71
     0
 42
0.2
  3
txt
  4

  0
ENDTAB
  0
TABLE
  2
VIEW
  5
6
330
0
100
AcDbSymbolTable
 70
     0
  0
ENDTAB
  0
TABLE
  2
UCS
  5
7
330
0
100
AcDbSymbolTable
 70
     0
  0
ENDTAB
  0
TABLE
  2
APPID
  5
9
330
0
100
AcDbSymbolTable
 70
     1
  0
APPID
  5
12
330
9
100
AcDbSymbolTableRecord
100
AcDbRegAppTableRecord
  2
ACAD
 70
     0
  0
ENDTAB
  0
TABLE
  2
DIMSTYLE
  5
A
330
0
100
AcDbSymbolTable
 70
     1
100
AcDbDimStyleTable
 71
     0
  0
DIMSTYLE
105
27
330
A
100
AcDbSymbolTableRecord
100
AcDbDimStyleTableRecord
  2
Standard
 70
     0
340
11
  0
ENDTAB
  0
TABLE
  2
BLOCK_RECORD
  5
1
330
0
100
AcDbSymbolTable
 70
     2
  0
BLOCK_RECORD
  5
1F
102
{ACAD_XDICTIONARY
360
92
102
}
330
1
100
AcDbSymbolTableRecord
100
AcDbBlockTableRecord
  2
*Model_Space
340
22
  0
BLOCK_RECORD
  5
58
330
1
100
AcDbSymbolTableRecord
100
AcDbBlockTableRecord
  2
*Paper_Space
340
59
  0
BLOCK_RECORD
  5
5D
330
1
100
AcDbSymbolTableRecord
100
AcDbBlockTableRecord
  2
*Paper_Space0
340
5E
  0
ENDTAB
  0
ENDSEC
  0
SECTION
  2
BLOCKS
  0
BLOCK
  5
20
330
1F
100
AcDbEntity
  8
0
100
AcDbBlockBegin
  2
*Model_Space
 70
     0
 10
0.0
 20
0.0
 30
0.0
  3
*Model_Space
  1

  0
ENDBLK
  5
21
330
1F
100
AcDbEntity
  8
0
100
AcDbBlockEnd
  0
BLOCK
  5
5A
330
58
100
AcDbEntity
 67
     1
  8
0
100
AcDbBlockBegin
  2
*Paper_Space
 70
     0
 10
0.0
 20
0.0
 30
0.0
  3
*Paper_Space
  1

  0
ENDBLK
  5
5B
330
58
100
AcDbEntity
 67
     1
  8
0
100
AcDbBlockEnd
  0
BLOCK
  5
5F
330
5D
100
AcDbEntity
  8
0
100
AcDbBlockBegin
  2
*Paper_Space0
 70
     0
 10
0.0
 20
0.0
 30
0.0
  3
*Paper_Space0
  1

  0
ENDBLK
  5
60
330
5D
100
AcDbEntity
  8
0
100
AcDbBlockEnd
  0
ENDSEC
  0
SECTION
  2
ENTITIES
  0
LWPOLYLINE
  5
8B
330
1F
100
AcDbEntity
  8
0
100
AcDbPolyline
 90
      226
 70
     1
 43
0.0
 10
0.2
 20
0.0
 10
0.2246046434612865
 20
0.277797879409654
 10
0.2355530457572171
 20
0.4014104383771836
 10
0.2481439412218441
 20
0.5435675098846552
 10
0.2609375818920288
 20
0.6880136691512374
 10
0.2739941846297423
 20
0.8354287925826358
 10
0.3038098003017895
 20
1.024613142217512
 10
0.3117269161361558
 20
1.131210962281636
 10
0.3518907494427062
 20
1.386056234186148
 10
0.350737434139214
 20
1.451913392937376
 10
0.3497156943236573
 20
1.510257265624932
 10
0.3575333560163621
 20
1.609154638757564
 10
0.369176225157434
 20
1.756442820190831
 10
0.4125604223325524
 20
1.975866964560174
 10
0.4431537904536661
 20
2.093471791682872
 10
0.46188254732195
 20
2.166081129694817
 10
0.4892500317225633
 20
2.272181867685915
 10
0.512182448187838
 20
2.361088333302841
 10
0.550549551363557
 20
2.482971324064944
 10
0.6280301074428956
 20
2.75310656419006
 10
0.7238246022486463
 20
3.035623420631772
 10
0.8613973915405289
 20
3.420573073091086
 10
0.9939894302239579
 20
3.718546428435312
 10
1.057421087749045
 20
3.885697121922128
 10
1.11812451022738
 20
4.011310301623622
 10
1.280004355806756
 20
4.33246342737906
 10
1.284823230779236
 20
4.41455398152942
 10
1.178102932455111
 20
4.284201317476425
 10
1.120392337076309
 20
4.170655557762338
 10
1.074758313624551
 20
4.04375760949864
 10
1.067608536343124
 20
4.209498843630142
 10
1.096527554282487
 20
4.392994152300453
 10
0.9605268459244939
 20
4.218743881424532
 10
0.8660258211459936
 20
4.069022900833167
 10
0.8216118945169734
 20
3.99865650361794
 10
0.7980477437856085
 20
3.924936449059008
 10
0.7890910701202192
 20
4.054987101317583
 10
0.7842911915181173
 20
4.124681204986612
 10
0.8006809582966985
 20
4.228676621441493
 10
0.7290202154670452
 20
4.106425597282957
 10
0.6361716897875385
 20
3.970072596639355
 10
0.5980564719183075
 20
3.883960955949768
 10
0.5724076781764711
 20
3.82601402991104
 10
0.5556662583604293
 20
3.770723855637129
 10
0.5504176911255787
 20
3.872391047622745
 10
0.5549575020026378
 20
3.939265543553021
 10
0.5650162946779163
 20
4.003090023024316
 10
0.4550507384321104
 20
3.789851421208105
 10
0.4133152570075043
 20
3.708920482385624
 10
0.3671422011224322
 20
3.601486130413373
 10
0.3330593069023975
 20
3.52218287478779
 10
0.3066436429956012
 20
3.452947278695135
 10
0.2833427120155647
 20
3.374314531691822
 10
0.2777375358835508
 20
3.456415013708222
 10
0.2795910311316534
 20
3.516626837698879
 10
0.2818841586617518
 20
3.591120360879883
 10
0.1402000449863344
 20
3.345091240792311
 10
0.062685151748277
 20
3.237393683461629
 10
0.0136996307631266
 20
3.158445905440094
 10
0.0594015850233685
 20
3.327304425529185
 10
0.1142055869122547
 20
3.498544019312911
 10
0.150249573055123
 20
3.578434988382457
 10
0.2116725839101572
 20
3.65324224405512
 10
0.0589742119983224
 20
3.563385731542799
 10
0.2039148738731829
 20
3.797821176153614
 10
0.2642521531039315
 20
3.855356923964171
 10
0.0822745404715298
 20
3.790827938366738
 10
0.1739041078247399
 20
3.905026041274215
 10
0.2895627832827537
 20
4.02633888102245
 10
0.3904517322459829
 20
4.09546613915581
 10
0.2786893074214923
 20
4.113079993111353
 10
0.5288754954233694
 20
4.305854904084425
 10
0.4178872158071603
 20
4.276469800010922
 10
0.3287739120036846
 20
4.24745274520125
 10
0.4583591827611161
 20
4.386497713803396
 10
0.5411673076393411
 20
4.44144657202117
 10
0.3358005044653805
 20
4.372685152241229
 10
0.27977495813665
 20
4.332694678095117
 10
0.3453190957104855
 20
4.433081976306602
 10
0.4023850009974062
 20
4.520484027257278
 10
0.4356612812249331
 20
4.571449925813904
 10
0.6018409911043266
 20
4.724804378610977
 10
0.4468006845030671
 20
4.604522080057297
 10
0.0340155211461544
 20
4.44291252927603
 10
0.0937011228391732
 20
4.517197679378356
 10
0.1420146734687447
 20
4.587106011435213
 10
0.2220917421727336
 20
4.675483349100908
 10
0.3082723318133252
 20
4.759838202226235
 10
0.4130411209968135
 20
4.845548286415866
 10
0.5332824412442723
 20
4.936162694075011
 10
0.6305731681591338
 20
5.001627662601328
 10
0.700484141040215
 20
5.025499666963249
 10
0.6021313199557268
 20
5.023249111243202
 10
0.3994164078781624
 20
5.023367614403885
 10
0.4540008156106528
 20
5.070466636067809
 10
0.5581479714997626
 20
5.136687335538256
 10
0.6916080757054586
 20
5.206245584985005
 10
0.8161738103077562
 20
5.258230367236791
 10
0.9509361082733381
 20
5.293302836291418
 10
0.9942115427186248
 20
5.303621579711513
 10
1.070046622987615
 20
5.299015146166289
 10
0.9141261325331761
 20
5.483348108518358
 10
1.061127054783846
 20
5.428963223601565
 10
1.225698564115148
 20
5.322840669363967
 10
1.330284700723632
 20
5.228620298505488
 10
1.469076655149249
 20
5.091059178849091
 10
1.539818091338432
 20
4.999724324570196
 10
1.487077892469847
 20
5.146984375481573
 10
1.312382554635917
 20
5.40650477432475
 10
1.670752424264285
 20
5.340843825536077
 10
1.607440050053057
 20
5.580361665072456
 10
1.792933579316388
 20
5.459311795201676
 10
1.812935476840451
 20
5.547363210925149
 10
1.831581041952143
 20
5.809466712863241
 10
1.913755100587042
 20
5.596357860031168
 10
1.9927331108552
 20
5.35131039532755
 10
2.027605395733422
 20
5.211151233310869
 10
2.164872491914298
 20
5.277661131884265
 10
2.29632743933737
 20
5.326723858262205
 10
2.384233405091582
 20
5.340414596210646
 10
2.481988522927156
 20
5.342759350475076
 10
2.689342638156354
 20
5.302122796868375
 10
2.805765141320468
 20
5.263575028722157
 10
3.028115259864073
 20
5.158752320664732
 10
3.140404995514548
 20
5.070663096104987
 10
3.05314896132412
 20
5.084414721889625
 10
2.945656499677971
 20
5.047490293359703
 10
3.052979266241891
 20
4.966919698964002
 10
3.173353632213007
 20
4.875720091251349
 10
3.309153021223282
 20
4.750259874390915
 10
3.341885847150278
 20
4.693684257556094
 10
3.139882216464862
 20
4.725520202910447
 10
3.216101054719205
 20
4.622304245203875
 10
3.300601611438825
 20
4.49391090811906
 10
3.39225446589065
 20
4.333172949220368
 10
3.482758037069332
 20
4.134053464679085
 10
3.396745152114505
 20
4.186784021484271
 10
3.470311628729146
 20
3.94626218226612
 10
3.518288947058903
 20
3.753235033832778
 10
3.537867439632968
 20
3.632625032490445
 10
3.477189122792814
 20
3.811129368321683
 10
3.338687114299299
 20
4.094326770968213
 10
3.220921713449935
 20
4.272034188214105
 10
3.20276239427458
 20
4.300604524415588
 10
3.168361405650905
 20
4.03180261213309
 10
3.10368321555354
 20
4.223791573156777
 10
2.98148646272793
 20
4.474425951266542
 10
2.970126869636923
 20
4.48784629177623
 10
2.926151734307241
 20
4.333180741371249
 10
2.883317691128551
 20
4.485000630928263
 10
2.796253291669354
 20
4.655421249906979
 10
2.689959189493585
 20
4.77378111091787
 10
2.693465454171384
 20
4.570621360280552
 10
2.642700226590423
 20
4.652686818141511
 10
2.567031092136808
 20
4.716641432739406
 10
2.484416159325646
 20
4.767612214993046
 10
2.398882752538015
 20
4.80006758069112
 10
2.086290960625469
 20
4.829744960392243
 10
2.055725869914989
 20
4.810689871439742
 10
2.471436102267499
 20
4.49482207525599
 10
2.759744990929052
 20
4.221680902202147
 10
2.713547026004024
 20
4.204477511979557
 10
2.612149242495495
 20
4.186792038800477
 10
2.814131541486959
 20
4.046004607245373
 10
2.888703899696802
 20
3.971204985356703
 10
2.914232199576681
 20
3.919437428058304
 10
2.759762046854317
 20
3.930315687610901
 10
2.820847094891051
 20
3.83989070427908
 10
2.981651769738831
 20
3.632140071211851
 10
3.063836459379703
 20
3.473506287306761
 10
2.955597066430945
 20
3.497910220073658
 10
3.026912099790526
 20
3.386896467031915
 10
3.128591772004102
 20
3.161531318747858
 10
3.163779208747279
 20
3.019486035412056
 10
3.180572994420598
 20
2.943387706260935
 10
3.016421383300582
 20
3.102697289618356
 10
3.077687186792548
 20
2.869625409594986
 10
3.102402207644784
 20
2.641699404573664
 10
3.060903538146875
 20
2.755358240069154
 10
2.867895178508862
 20
3.116313973507774
 10
2.862026068039952
 20
3.135305430789237
 10
2.839694882086374
 20
3.123788952030478
 10
2.848673176667612
 20
3.027131381356136
 10
2.895397836914547
 20
2.784965317438036
 10
2.918617881898725
 20
2.633054779969394
 10
2.862693366908182
 20
2.75155713090469
 10
2.776503619921277
 20
2.90653622333665
 10
2.75436429496158
 20
2.76605903715591
 10
2.717810911926371
 20
2.664702130569585
 10
2.694934086388919
 20
2.840552946306735
 10
2.620481404049615
 20
3.162499877914592
 10
2.588895958476559
 20
3.081783541725534
 10
2.527073996761041
 20
2.847298146077442
 10
2.475466377937332
 20
2.73203183196423
 10
2.486182841123588
 20
2.919727162499532
 10
2.473762640460861
 20
3.156486814181223
 10
2.453824776089144
 20
3.361867463211462
 10
2.41926777596063
 20
3.566981180677251
 10
2.374341259269065
 20
3.483225712037122
 10
2.290476647456292
 20
3.315628015376904
 10
2.294043398347334
 20
3.430753137957699
 10
2.281313616724443
 20
3.67098930611739
 10
2.225992020134909
 20
3.940218451874745
 10
2.18373450709341
 20
3.90060335961321
 10
2.08411089166136
 20
3.720064348433222
 10
2.089997302440548
 20
3.871672359225911
 10
2.083517528809079
 20
4.004662719131463
 10
2.00617813144247
 20
4.275647918722969
 10
1.96908511209045
 20
4.203512054382009
 10
1.909708630053262
 20
4.022628635079956
 10
1.885152021622005
 20
4.215026154032779
 10
1.736798288929034
 20
4.454356302089453
 10
1.679668344206177
 20
4.271404927682461
 10
1.648311345237499
 20
4.398889587228136
 10
1.576572244604743
 20
4.074274265543277
 10
1.460623944460252
 20
3.632369897701304
 10
1.254734387442183
 20
2.946394146731167
 10
1.197345727285785
 20
2.738888710569929
 10
1.077372641471914
 20
2.282208586473083
 10
0.9899712427234812
 20
1.919076249665761
 10
0.957379768230399
 20
1.712278678438817
 10
0.8938344877387917
 20
1.309074777020099
 10
0.8699360741335164
 20
0.9042160964370951
 10
0.8858036335327074
 20
0.426627173922681
 10
0.8968913736697496
 20
0.2625462670794759
 10
1.006914023742884
 20
-0.0083378957450152
  0
LWPOLYLINE
  5
B7
330
1F
100
AcDbEntity
  8
trunk
100
AcDbPolyline
 90
       11
 70
     1
 43
0.0
 10
2.779651156283961
 20
1.787113407323133
 10
2.487093766377697
 20
1.999384153164115
 10
2.487093766377696
 20
0.5238352153255335
 10
2.437093766377696
 20
0.5238352153255335
 10
2.437093766377696
 20
1.137348721001984
 10
1.170640050901755
 20
1.137348721001984
 10
1.170640050901755
 20
0.5123487210019846
 10
1.120640050901755
 20
0.5123487210019846
 10
1.120640050901755
 20
1.998270726323774
 10
0.8154446729263185
 20
1.787113407323133
 10
1.840588346300066
 20
2.623922123022389
  0
LWPOLYLINE
  5
C5
330
1F
100
AcDbEntity
  8
trunk
100
AcDbPolyline
 90
       12
 70
     1
 43
0.0
 10
2.822069578277791
 20
1.757499825636354
 42
-0.0295256536047649
 10
3.388440120578224
 20
1.502089249092701
 42
-0.5659465808753509
 10
3.420958159625883
 20
1.352412053950756
 42
-0.1615577714844135
 10
2.980181979524943
 20
1.17810083712877
 42
0.9121957143246273
 10
3.018808807407226
 20
0.9064764195015619
 42
-0.7574840515197866
 10
3.077620554346609
 20
0.5965588111406071
 42
-0.2181880343380429
 10
1.427009333401287
 20
0.2679806495006538
 42
0.252800327655757
 10
3.195256886261064
 20
0.6075910301401528
 42
0.6456467585775113
 10
3.038274373233051
 20
0.9591175161322347
 42
-0.9645678897318081
 10
3.038274373233051
 20
1.14977597915816
 42
0.1807199023064971
 10
3.497332621560816
 20
1.340434442184093
 42
0.5226455722969075
 10
3.40790568640405
 20
1.543009081233936
 42
0.0522174413593229
  0
ENDSEC
  0
SECTION
  2
OBJECTS
  0
DICTIONARY
  5
C
330
0
100
AcDbDictionary
281
     1
  3
ACAD_COLOR
350
73
  3
ACAD_GROUP
350
D
  3
ACAD_LAYOUT
350
1A
  3
ACAD_MATERIAL
350
72
  3
ACAD_MLINESTYLE
350
17
  3
ACAD_PLOTSETTINGS
350
19
  3
ACAD_PLOTSTYLENAME
350
E
  3
AcDbVariableDictionary
350
66
  0
DICTIONARY
  5
92
330
1F
100
AcDbDictionary
280
     1
281
     1
  3
ACAD_SORTENTS
360
93
  0
DICTIONARY
  5
73
102
{ACAD_REACTORS
330
C
102
}
330
C
100
AcDbDictionary
281
     1
  0
DICTIONARY
  5
D
102
{ACAD_REACTORS
330
C
102
}
330
C
100
AcDbDictionary
281
     1
  0
DICTIONARY
  5
1A
102
{ACAD_REACTORS
330
C
102
}
330
C
100
AcDbDictionary
281
     1
  3
Layout1
350
59
  3
Layout2
350
5E
  3
Model
350
22
  0
DICTIONARY
  5
72
102
{ACAD_REACTORS
330
C
102
}
330
C
100
AcDbDictionary
281
     1
  0
DICTIONARY
  5
17
102
{ACAD_REACTORS
330
C
102
}
330
C
100
AcDbDictionary
281
     1
  3
Standard
350
18
  0
DICTIONARY
  5
19
102
{ACAD_REACTORS
330
C
102
}
330
C
100
AcDbDictionary
281
     1
  0
ACDBDICTIONARYWDFLT
  5
E
102
{ACAD_REACTORS
330
C
102
}
330
C
100
AcDbDictionary
281
     1
  3
Normal
350
F
100
AcDbDictionaryWithDefault
340
F
  0
DICTIONARY
  5
66
102
{ACAD_REACTORS
330
C
102
}
330
C
100
AcDbDictionary
281
     1
  3
DIMASSOC
350
67
  3
HIDETEXT
350
6B
  0
SORTENTSTABLE
  5
93
102
{ACAD_REACTORS
330
92
102
}
330
92
100
AcDbSortentsTable
330
1F
331
8B
  5
8B
331
89
  5
89
  0
LAYOUT
  5
59
102
{ACAD_REACTORS
330
1A
102
}
330
1A
100
AcDbPlotSettings
  1

  2
None
  4

  6

 40
0.0
 41
0.0
 42
0.0
 43
0.0
 44
0.0
 45
0.0
 46
0.0
 47
0.0
 48
0.0
 49
0.0
140
0.0
141
0.0
142
1.0
143
1.0
 70
   688
 72
     0
 73
     0
 74
     5
  7

 75
    16
147
1.0
 76
     0
 77
     2
 78
   300
148
0.0
149
0.0
100
AcDbLayout
  1
Layout1
 70
     1
 71
     1
 10
0.0
 20
0.0
 11
12.0
 21
9.0
 12
0.0
 22
0.0
 32
0.0
 14
0.0
 24
0.0
 34
0.0
 15
0.0
 25
0.0
 35
0.0
146
0.0
 13
0.0
 23
0.0
 33
0.0
 16
1.0
 26
0.0
 36
0.0
 17
0.0
 27
1.0
 37
0.0
 76
     0
330
58
  0
LAYOUT
  5
5E
102
{ACAD_REACTORS
330
1A
102
}
330
1A
100
AcDbPlotSettings
  1

  2
None
  4

  6

 40
0.0
 41
0.0
 42
0.0
 43
0.0
 44
0.0
 45
0.0
 46
0.0
 47
0.0
 48
0.0
 49
0.0
140
0.0
141
0.0
142
1.0
143
1.0
 70
   688
 72
     0
 73
     0
 74
     5
  7

 75
    16
147
1.0
 76
     0
 77
     2
 78
   300
148
0.0
149
0.0
100
AcDbLayout
  1
Layout2
 70
     1
 71
     2
 10
0.0
 20
0.0
 11
12.0
 21
9.0
 12
0.0
 22
0.0
 32
0.0
 14
0.0
 24
0.0
 34
0.0
 15
0.0
 25
0.0
 35
0.0
146
0.0
 13
0.0
 23
0.0
 33
0.0
 16
1.0
 26
0.0
 36
0.0
 17
0.0
 27
1.0
 37
0.0
 76
     0
330
5D
  0
LAYOUT
  5
22
102
{ACAD_REACTORS
330
1A
102
}
330
1A
100
AcDbPlotSettings
  1

  2
none_device
  4
ANSI_A_(8.50_x_11.00_Inches)
  6

 40
6.349999904632568
 41
19.04999923706055
 42
6.350006103515625
 43
19.04998779296875
 44
215.8999938964844
 45
279.3999938964844
 46
0.0
 47
0.0
 48
0.0
 49
0.0
140
0.0
141
0.0
142
1.0
143
2.584895464708373
 70
 11952
 72
     0
 73
     1
 74
     0
  7

 75
     0
147
0.3868628397755418
 76
     0
 77
     2
 78
   300
148
0.0
149
0.0
100
AcDbLayout
  1
Model
 70
     1
 71
     0
 10
0.0
 20
0.0
 11
12.0
 21
9.0
 12
0.0
 22
0.0
 32
0.0
 14
0.0
 24
0.0
 34
0.0
 15
0.0
 25
0.0
 35
0.0
146
0.0
 13
0.0
 23
0.0
 33
0.0
 16
1.0
 26
0.0
 36
0.0
 17
0.0
 27
1.0
 37
0.0
 76
     0
330
1F
  0
MLINESTYLE
  5
18
102
{ACAD_REACTORS
330
17
102
}
330
17
100
AcDbMlineStyle
  2
STANDARD
 70
     0
  3

 62
   256
 51
90.0
 52
90.0
 71
     2
 49
0.5
 62
   256
  6
BYLAYER
 49
-0.5
 62
   256
  6
BYLAYER
  0
ACDBPLACEHOLDER
  5
F
102
{ACAD_REACTORS
330
E
102
}
330
E
  0
DICTIONARYVAR
  5
67
102
{ACAD_REACTORS
330
66
102
}
330
66
100
DictionaryVariables
280
     0
  1
2
  0
DICTIONARYVAR
  5
6B
102
{ACAD_REACTORS
330
66
102
}
330
66
100
DictionaryVariables
280
     0
  1
1
  0
ENDSEC
  0
EOF
