  0
SECTION
  2
HEADER
  9
$ACADVER
  1
AC1009
  9
$EXTMIN
 10
6.27651267
 20
5.28888889
 30
0.0
  9
$EXTMAX
 10
609.50111080
 20
394.24571043
 30
0.0
  0
ENDSEC
  0
SECTION
  2
TABLES
  0
TABLE
  2
LAYER
 70
1
 0
LAYER
 2
Nível Padrão
 70
0
 62
1
 6
CONTINUOUS
 0
ENDTAB
 0
ENDSEC
  0
SECTION
  2
ENTITIES
  0
POLYLINE
  8
Nível Padrão
 66
   1
 39
0.000000
 70
    1
  0
VERTEX
  8
0
 10
444.62343495
 20
54.12871088
 42
-0.25626730
  0
VERTEX
  8
0
 10
402.82079667
 20
126.53300427
  0
VERTEX
  8
0
 10
410.15486374
 20
126.53300427
  0
VERTEX
  8
0
 10
410.15486374
 20
130.33300313
  0
VERTEX
  8
0
 10
402.82079667
 20
130.33300313
 42
-0.25626730
  0
VERTEX
  8
0
 10
444.62343495
 20
202.73729652
  0
VERTEX
  8
0
 10
448.29046849
 20
196.38580812
  0
VERTEX
  8
0
 10
451.58136403
 20
198.28580755
  0
VERTEX
  8
0
 10
447.91433049
 20
204.63729595
 42
-0.25626730
  0
VERTEX
  8
0
 10
531.51960705
 20
204.63729595
  0
VERTEX
  8
0
 10
527.85257352
 20
198.28580755
  0
VERTEX
  8
0
 10
531.14346906
 20
196.38580812
  0
VERTEX
  8
0
 10
534.81050260
 20
202.73729652
 42
-0.25626730
  0
VERTEX
  8
0
 10
576.61314088
 20
130.33300313
  0
VERTEX
  8
0
 10
569.27907380
 20
130.33300313
  0
VERTEX
  8
0
 10
569.27907380
 20
126.53300427
  0
VERTEX
  8
0
 10
576.61314088
 20
126.53300427
 42
-0.25626730
  0
VERTEX
  8
0
 10
534.81050260
 20
54.12871088
  0
VERTEX
  8
0
 10
531.14346906
 20
60.48019928
  0
VERTEX
  8
0
 10
527.85257352
 20
58.58019985
  0
VERTEX
  8
0
 10
531.51960705
 20
52.22871145
 42
-0.25626730
  0
VERTEX
  8
0
 10
447.91433049
 20
52.22871145
  0
VERTEX
  8
0
 10
451.58136403
 20
58.58019985
  0
VERTEX
  8
0
 10
448.29046849
 20
60.48019928
  0
VERTEX
  8
0
 10
444.62343495
 20
54.12871088
  0
SEQEND
  0
POLYLINE
  8
Nível Padrão
 66
   1
 39
0.000000
 70
    1
  0
VERTEX
  8
0
 10
173.15917063
 20
85.98813040
  0
VERTEX
  8
0
 10
176.78976387
 20
92.27650236
  0
VERTEX
  8
0
 10
180.08065942
 20
90.37650293
  0
VERTEX
  8
0
 10
176.45006617
 20
84.08813097
 42
0.24974923
  0
VERTEX
  8
0
 10
228.83394428
 20
84.08813097
  0
VERTEX
  8
0
 10
225.20335104
 20
90.37650293
  0
VERTEX
  8
0
 10
228.49424658
 20
92.27650236
  0
VERTEX
  8
0
 10
232.12483983
 20
85.98813040
 42
0.24974923
  0
VERTEX
  8
0
 10
258.31677888
 20
131.35389959
  0
VERTEX
  8
0
 10
251.05559239
 20
131.35389959
  0
VERTEX
  8
0
 10
251.05559239
 20
135.15389845
  0
VERTEX
  8
0
 10
258.31677888
 20
135.15389845
 42
0.24974923
  0
VERTEX
  8
0
 10
232.12483983
 20
180.51966764
  0
VERTEX
  8
0
 10
228.49424658
 20
174.23129568
  0
VERTEX
  8
0
 10
225.20335104
 20
176.13129511
  0
VERTEX
  8
0
 10
228.83394428
 20
182.41966707
 42
0.24974923
  0
VERTEX
  8
0
 10
176.45006617
 20
182.41966707
  0
VERTEX
  8
0
 10
180.08065942
 20
176.13129511
  0
VERTEX
  8
0
 10
176.78976387
 20
174.23129568
  0
VERTEX
  8
0
 10
173.15917063
 20
180.51966764
 42
0.24974923
  0
VERTEX
  8
0
 10
146.96723158
 20
135.15389845
  0
VERTEX
  8
0
 10
154.22841806
 20
135.15389845
  0
VERTEX
  8
0
 10
154.22841806
 20
131.35389959
  0
VERTEX
  8
0
 10
146.96723158
 20
131.35389959
 42
0.24974923
  0
VERTEX
  8
0
 10
173.15917063
 20
85.98813040
  0
SEQEND
  0
POLYLINE
  8
Nível Padrão
 66
   1
 39
0.000000
 70
    1
  0
VERTEX
  8
0
 10
195.33195637
 20
206.99477635
  0
VERTEX
  8
0
 10
204.12717684
 20
206.99477635
  0
VERTEX
  8
0
 10
212.92239731
 20
206.99477635
 42
0.41421356
  0
VERTEX
  8
0
 10
204.12717684
 20
215.78999682
 42
0.41421356
  0
VERTEX
  8
0
 10
195.33195637
 20
206.99477635
  0
SEQEND
  0
POLYLINE
  8
Nível Padrão
 66
   1
 39
0.000000
 70
    1
  0
VERTEX
  8
0
 10
171.36221658
 20
200.86574594
  0
VERTEX
  8
0
 10
236.89213709
 20
200.86574594
  0
VERTEX
  8
0
 10
236.89213709
 20
206.99477635
  0
VERTEX
  8
0
 10
236.89213709
 20
210.67219460
  0
VERTEX
  8
0
 10
230.76310668
 20
210.67219460
  0
VERTEX
  8
0
 10
230.76310668
 20
206.99477635
  0
VERTEX
  8
0
 10
220.21599477
 20
206.99477635
 42
0.28148904
  0
VERTEX
  8
0
 10
211.46002622
 20
221.31536929
 42
0.34648951
  0
VERTEX
  8
0
 10
219.76769273
 20
239.40747718
 42
0.34648951
  0
VERTEX
  8
0
 10
204.12717684
 20
251.72478017
 42
0.34648951
  0
VERTEX
  8
0
 10
188.48666094
 20
239.40747718
 42
0.34648951
  0
VERTEX
  8
0
 10
196.79432745
 20
221.31536929
 42
0.28148904
  0
VERTEX
  8
0
 10
188.03835891
 20
206.99477635
  0
VERTEX
  8
0
 10
177.49124700
 20
206.99477635
  0
VERTEX
  8
0
 10
177.49124700
 20
210.67219460
  0
VERTEX
  8
0
 10
171.36221658
 20
210.67219460
  0
VERTEX
  8
0
 10
171.36221658
 20
206.99477635
  0
VERTEX
  8
0
 10
171.36221658
 20
200.86574594
  0
SEQEND
  0
POLYLINE
  8
Nível Padrão
 66
   1
 39
0.000000
 70
    1
  0
VERTEX
  8
0
 10
229.21664477
 20
131.35389959
  0
VERTEX
  8
0
 10
229.21664477
 20
135.15389845
  0
VERTEX
  8
0
 10
235.46825579
 20
135.15389845
  0
VERTEX
  8
0
 10
235.46825579
 20
131.35389959
  0
VERTEX
  8
0
 10
229.21664477
 20
131.35389959
  0
SEQEND
  0
POLYLINE
  8
Nível Padrão
 66
   1
 39
0.000000
 70
    1
  0
VERTEX
  8
0
 10
169.81575467
 20
131.35389959
  0
VERTEX
  8
0
 10
169.81575467
 20
135.15389845
  0
VERTEX
  8
0
 10
176.06736569
 20
135.15389845
  0
VERTEX
  8
0
 10
176.06736569
 20
131.35389959
  0
VERTEX
  8
0
 10
169.81575467
 20
131.35389959
  0
SEQEND
  0
POLYLINE
  8
Nível Padrão
 66
   1
 39
0.000000
 70
    1
  0
VERTEX
  8
0
 10
186.49189700
 20
131.35389959
  0
VERTEX
  8
0
 10
218.79211346
 20
131.35389959
  0
VERTEX
  8
0
 10
218.79211346
 20
135.15389845
  0
VERTEX
  8
0
 10
186.49189700
 20
135.15389845
  0
VERTEX
  8
0
 10
186.49189700
 20
131.35389959
  0
SEQEND
  0
POLYLINE
  8
Nível Padrão
 66
   1
 39
0.000000
 70
    1
  0
VERTEX
  8
0
 10
140.65844596
 20
175.59975310
  0
VERTEX
  8
0
 10
140.65844596
 20
182.98844386
 42
-0.38267365
  0
VERTEX
  8
0
 10
133.81529829
 20
192.53164529
 42
-0.38267365
  0
VERTEX
  8
0
 10
142.55844539
 20
200.37120793
 42
-0.38267365
  0
VERTEX
  8
0
 10
151.30159249
 20
192.53164529
 42
-0.38267365
  0
VERTEX
  8
0
 10
144.45844482
 20
182.98844386
  0
VERTEX
  8
0
 10
144.45844482
 20
175.59975310
 42
0.39698293
  0
VERTEX
  8
0
 10
158.61909276
 20
192.52765349
 42
0.39698293
  0
VERTEX
  8
0
 10
142.55844539
 20
207.66480539
 42
0.39698293
  0
VERTEX
  8
0
 10
126.49779801
 20
192.52765349
 42
0.39698293
  0
VERTEX
  8
0
 10
140.65844596
 20
175.59975310
  0
SEQEND
  0
POLYLINE
  8
Nível Padrão
 66
   1
 39
0.000000
 70
    1
  0
VERTEX
  8
0
 10
262.38001823
 20
211.24122357
 42
-0.40058228
  0
VERTEX
  8
0
 10
243.95757448
 20
232.44803189
 42
-0.40058228
  0
VERTEX
  8
0
 10
264.28001766
 20
251.84167662
 42
-0.40058228
  0
VERTEX
  8
0
 10
284.60246083
 20
232.44803189
 42
-0.40058228
  0
VERTEX
  8
0
 10
266.18001708
 20
211.24122357
  0
VERTEX
  8
0
 10
266.18001708
 20
218.58494906
 42
0.39297587
  0
VERTEX
  8
0
 10
277.29629710
 20
232.44953263
 42
0.39297587
  0
VERTEX
  8
0
 10
264.28001766
 20
244.54807916
 42
0.39297587
  0
VERTEX
  8
0
 10
251.26373821
 20
232.44953263
 42
0.39297587
  0
VERTEX
  8
0
 10
262.38001823
 20
218.58494906
  0
VERTEX
  8
0
 10
262.38001823
 20
211.24122357
  0
SEQEND
  0
POLYLINE
  8
Nível Padrão
 66
   1
 39
0.000000
 70
    1
  0
VERTEX
  8
0
 10
262.38001823
 20
165.21074625
  0
VERTEX
  8
0
 10
262.38001823
 20
172.55447174
 42
-0.39297587
  0
VERTEX
  8
0
 10
251.26373821
 20
186.41905530
 42
-0.39297587
  0
VERTEX
  8
0
 10
264.28001766
 20
198.51760184
 42
-0.39297587
  0
VERTEX
  8
0
 10
277.29629710
 20
186.41905530
 42
-0.39297587
  0
VERTEX
  8
0
 10
266.18001708
 20
172.55447174
  0
VERTEX
  8
0
 10
266.18001708
 20
165.21074625
 42
0.40058228
  0
VERTEX
  8
0
 10
284.60246083
 20
186.41755456
 42
0.40058228
  0
VERTEX
  8
0
 10
264.28001766
 20
205.81119930
 42
0.40058228
  0
VERTEX
  8
0
 10
243.95757448
 20
186.41755456
 42
0.40058228
  0
VERTEX
  8
0
 10
262.38001823
 20
165.21074625
  0
SEQEND
  0
POLYLINE
  8
Nível Padrão
 66
   1
 39
0.000000
 70
    1
  0
VERTEX
  8
0
 10
144.00912522
 20
218.40291055
 42
-0.39698293
  0
VERTEX
  8
0
 10
129.84847728
 20
235.33081094
 42
-0.39698293
  0
VERTEX
  8
0
 10
145.90912465
 20
250.46796285
 42
-0.39698293
  0
VERTEX
  8
0
 10
161.96977203
 20
235.33081094
 42
-0.39698293
  0
VERTEX
  8
0
 10
147.80912408
 20
218.40291055
  0
VERTEX
  8
0
 10
147.80912408
 20
225.79160131
 42
0.38267365
  0
VERTEX
  8
0
 10
154.65227175
 20
235.33480274
 42
0.38267365
  0
VERTEX
  8
0
 10
145.90912465
 20
243.17436539
 42
0.38267365
  0
VERTEX
  8
0
 10
137.16597755
 20
235.33480274
 42
0.38267365
  0
VERTEX
  8
0
 10
144.00912522
 20
225.79160131
  0
VERTEX
  8
0
 10
144.00912522
 20
218.40291055
  0
SEQEND
  0
POLYLINE
  8
Nível Padrão
 66
   1
 39
0.000000
 70
    1
  0
VERTEX
  8
0
 10
205.51444077
 20
20.18028362
  0
VERTEX
  8
0
 10
217.89508221
 20
20.18028362
  0
VERTEX
  8
0
 10
217.89508221
 20
23.98028248
  0
VERTEX
  8
0
 10
205.51444077
 20
23.98028248
  0
VERTEX
  8
0
 10
205.51444077
 20
20.18028362
  0
SEQEND
  0
POLYLINE
  8
Nível Padrão
 66
   1
 39
0.000000
 70
    1
  0
VERTEX
  8
0
 10
143.72151448
 20
20.18028362
  0
VERTEX
  8
0
 10
149.97312550
 20
20.18028362
  0
VERTEX
  8
0
 10
149.97312550
 20
23.98028248
  0
VERTEX
  8
0
 10
143.72151448
 20
23.98028248
  0
VERTEX
  8
0
 10
143.72151448
 20
20.18028362
  0
SEQEND
  0
POLYLINE
  8
Nível Padrão
 66
   1
 39
0.000000
 70
    1
  0
VERTEX
  8
0
 10
347.53322698
 20
15.64695029
  0
VERTEX
  8
0
 10
353.78483800
 20
15.64695029
  0
VERTEX
  8
0
 10
353.78483800
 20
19.44694914
  0
VERTEX
  8
0
 10
347.53322698
 20
19.44694914
  0
VERTEX
  8
0
 10
347.53322698
 20
15.64695029
  0
SEQEND
  0
POLYLINE
  8
Nível Padrão
 66
   1
 39
0.000000
 70
    1
  0
VERTEX
  8
0
 10
495.96742156
 20
15.64695029
  0
VERTEX
  8
0
 10
495.96742156
 20
19.44694914
  0
VERTEX
  8
0
 10
502.21903258
 20
19.44694914
  0
VERTEX
  8
0
 10
502.21903258
 20
15.64695029
  0
VERTEX
  8
0
 10
495.96742156
 20
15.64695029
  0
SEQEND
  0
POLYLINE
  8
Nível Padrão
 66
   1
 39
0.000000
 70
    1
  0
VERTEX
  8
0
 10
425.19388234
 20
196.07829846
 42
-0.22588128
  0
VERTEX
  8
0
 10
437.23393422
 20
215.55262837
 42
-0.22588128
  0
VERTEX
  8
0
 10
459.94099137
 20
218.48553315
 42
0.22490519
  0
VERTEX
  8
0
 10
449.65869810
 20
226.64930723
 42
0.31791192
  0
VERTEX
  8
0
 10
500.86650904
 20
271.67471059
 42
-0.33758794
  0
VERTEX
  8
0
 10
545.41771632
 20
294.88666069
 42
0.21003100
  0
VERTEX
  8
0
 10
548.77142229
 20
280.68092307
 42
0.21003100
  0
VERTEX
  8
0
 10
561.50399117
 20
273.54425613
 42
0.37242497
  0
VERTEX
  8
0
 10
553.04382549
 20
297.13603242
 42
0.20797968
  0
VERTEX
  8
0
 10
570.55146316
 20
308.55238231
 42
0.20797968
  0
VERTEX
  8
0
 10
574.14388155
 20
329.14230586
 42
0.20386496
  0
VERTEX
  8
0
 10
554.58354753
 20
321.04772227
 42
0.20386496
  0
VERTEX
  8
0
 10
546.84977562
 20
301.34194336
 42
0.15148258
  0
VERTEX
  8
0
 10
508.10549009
 20
298.32045562
 42
0.05274603
  0
VERTEX
  8
0
 10
515.15562816
 20
331.02569989
 42
-0.23754081
  0
VERTEX
  8
0
 10
529.33852309
 20
357.96729892
 42
0.41809524
  0
VERTEX
  8
0
 10
554.85246917
 20
336.85968914
 42
0.20778302
  0
VERTEX
  8
0
 10
550.95451705
 20
353.68455003
 42
0.20778302
  0
VERTEX
  8
0
 10
535.99838566
 20
362.32075918
 42
-0.23413423
  0
VERTEX
  8
0
 10
562.44647502
 20
366.51055551
 42
0.20528513
  0
VERTEX
  8
0
 10
586.67747020
 20
358.06762841
 42
0.20528513
  0
VERTEX
  8
0
 10
609.50111080
 20
369.79390553
 42
0.18945594
  0
VERTEX
  8
0
 10
585.38286064
 20
381.68165296
  0
VERTEX
  8
0
 10
585.38286064
 20
385.60962875
  0
VERTEX
  8
0
 10
579.25383022
 20
385.60962875
  0
VERTEX
  8
0
 10
579.25383022
 20
381.68165296
 42
0.11990806
  0
VERTEX
  8
0
 10
562.76876705
 20
376.17931629
 42
0.20173414
  0
VERTEX
  8
0
 10
514.44306063
 20
357.00294075
 42
0.17597245
  0
VERTEX
  8
0
 10
505.21967079
 20
331.31428492
 42
0.21199967
  0
VERTEX
  8
0
 10
499.88792936
 20
339.35204225
 42
0.21199967
  0
VERTEX
  8
0
 10
490.35012024
 20
340.78842893
 42
0.31955132
  0
VERTEX
  8
0
 10
504.98370751
 20
323.34658762
 42
-0.09737004
  0
VERTEX
  8
0
 10
491.46552634
 20
284.06990602
 42
0.23809736
  0
VERTEX
  8
0
 10
452.67148670
 20
366.68560398
 42
0.34555001
  0
VERTEX
  8
0
 10
439.32658250
 20
381.54125205
 42
0.01184221
  0
VERTEX
  8
0
 10
436.94866606
 20
381.74276247
  0
VERTEX
  8
0
 10
436.94866606
 20
385.63603892
  0
VERTEX
  8
0
 10
430.81963564
 20
385.63603892
  0
VERTEX
  8
0
 10
430.81963564
 20
381.74276247
 42
0.02803839
  0
VERTEX
  8
0
 10
425.21154540
 20
381.08406469
 42
0.17746966
  0
VERTEX
  8
0
 10
434.58431317
 20
364.97874541
 42
0.27056477
  0
VERTEX
  8
0
 10
450.67313110
 20
361.26594127
 42
-0.20890284
  0
VERTEX
  8
0
 10
470.68271988
 20
329.65980571
 42
-0.05787621
  0
VERTEX
  8
0
 10
450.30813152
 20
328.67393245
 42
0.29730586
  0
VERTEX
  8
0
 10
430.88104888
 20
333.29525976
 42
0.33303424
  0
VERTEX
  8
0
 10
442.48356181
 20
324.65783346
 42
0.09846056
  0
VERTEX
  8
0
 10
449.93476029
 20
325.68916795
 42
-0.20735938
  0
VERTEX
  8
0
 10
453.66715978
 20
324.88678972
 42
-0.18333850
  0
VERTEX
  8
0
 10
440.97549296
 20
315.45136837
 42
0.27471151
  0
VERTEX
  8
0
 10
425.04817560
 20
293.36824401
  0
VERTEX
  8
0
 10
421.39388348
 20
293.36824401
  0
VERTEX
  8
0
 10
421.39388348
 20
287.23921360
  0
VERTEX
  8
0
 10
425.21154540
 20
287.23921360
 42
0.33990952
  0
VERTEX
  8
0
 10
448.02982083
 20
312.70028364
 42
-0.24808321
  0
VERTEX
  8
0
 10
473.79317634
 20
323.60355179
 42
-0.23646958
  0
VERTEX
  8
0
 10
483.21103828
 20
278.90367863
 42
-0.10861039
  0
VERTEX
  8
0
 10
476.18384301
 20
265.36707166
 42
0.17818894
  0
VERTEX
  8
0
 10
469.94809067
 20
281.83492952
 42
0.27725949
  0
VERTEX
  8
0
 10
471.77118673
 20
260.93621309
 42
-0.24317823
  0
VERTEX
  8
0
 10
425.19388234
 20
252.72906089
  0
VERTEX
  8
0
 10
425.19388234
 20
231.57531772
  0
VERTEX
  8
0
 10
421.39388348
 20
231.57531772
  0
VERTEX
  8
0
 10
421.39388348
 20
219.31725689
  0
VERTEX
  8
0
 10
425.19388234
 20
219.31725689
  0
VERTEX
  8
0
 10
425.19388234
 20
196.07829846
  0
SEQEND
  0
POLYLINE
  8
Nível Padrão
 66
   1
 39
0.000000
 70
    1
  0
VERTEX
  8
0
 10
341.90747368
 20
5.28888889
  0
VERTEX
  8
0
 10
526.27599244
 20
5.28888889
  0
VERTEX
  8
0
 10
526.27599244
 20
29.80501054
  0
VERTEX
  8
0
 10
341.90747368
 20
29.80501054
  0
VERTEX
  8
0
 10
341.90747368
 20
23.12436739
  0
VERTEX
  8
0
 10
338.23005543
 20
23.12436739
  0
VERTEX
  8
0
 10
338.23005543
 20
12.09211265
  0
VERTEX
  8
0
 10
341.90747368
 20
12.09211265
  0
VERTEX
  8
0
 10
341.90747368
 20
5.28888889
  0
SEQEND
  0
POLYLINE
  8
Nível Padrão
 66
   1
 39
0.000000
 70
    1
  0
VERTEX
  8
0
 10
485.88632477
 20
126.53300427
  0
VERTEX
  8
0
 10
493.54761278
 20
126.53300427
  0
VERTEX
  8
0
 10
493.54761278
 20
130.33300313
  0
VERTEX
  8
0
 10
485.88632477
 20
130.33300313
  0
VERTEX
  8
0
 10
485.88632477
 20
126.53300427
  0
SEQEND
  0
POLYLINE
  8
Nível Padrão
 66
   1
 39
0.000000
 70
    1
  0
VERTEX
  8
0
 10
204.12717684
 20
244.43118271
 42
0.41421356
  0
VERTEX
  8
0
 10
195.33195637
 20
235.63596224
 42
0.41421356
  0
VERTEX
  8
0
 10
204.12717684
 20
226.84074177
 42
0.41421356
  0
VERTEX
  8
0
 10
212.92239731
 20
235.63596224
 42
0.41421356
  0
VERTEX
  8
0
 10
204.12717684
 20
244.43118271
  0
SEQEND
  0
POLYLINE
  8
Nível Padrão
 66
   1
 39
0.000000
 70
    1
  0
VERTEX
  8
0
 10
596.22267933
 20
374.69712986
 42
0.41421356
  0
VERTEX
  8
0
 10
591.31945500
 20
369.79390553
 42
0.41421356
  0
VERTEX
  8
0
 10
596.22267933
 20
364.89068120
 42
0.41421356
  0
VERTEX
  8
0
 10
601.12590366
 20
369.79390553
 42
0.41421356
  0
VERTEX
  8
0
 10
596.22267933
 20
374.69712986
  0
SEQEND
  0
POLYLINE
  8
Nível Padrão
 66
   1
 39
0.000000
 70
    1
  0
VERTEX
  8
0
 10
187.71649502
 20
386.92387852
 42
0.41421356
  0
VERTEX
  8
0
 10
185.95261406
 20
385.15999756
 42
0.41421356
  0
VERTEX
  8
0
 10
187.71649502
 20
383.39611661
 42
0.41421356
  0
VERTEX
  8
0
 10
189.48037597
 20
385.15999756
 42
0.41421356
  0
VERTEX
  8
0
 10
187.71649502
 20
386.92387852
  0
SEQEND
  0
POLYLINE
  8
Nível Padrão
 66
   1
 39
0.000000
 70
    1
  0
VERTEX
  8
0
 10
54.70430409
 20
62.71654713
 42
-0.39698293
  0
VERTEX
  8
0
 10
37.77640370
 20
48.55589918
 42
-0.39698293
  0
VERTEX
  8
0
 10
22.63925179
 20
64.61654656
 42
-0.39698293
  0
VERTEX
  8
0
 10
37.77640370
 20
80.67719394
 42
-0.39698293
  0
VERTEX
  8
0
 10
54.70430409
 20
66.51654599
  0
VERTEX
  8
0
 10
62.03316255
 20
66.51654599
 42
0.27848861
  0
VERTEX
  8
0
 10
47.89866292
 20
86.12555793
 42
-0.00080393
  0
VERTEX
  8
0
 10
22.07306744
 20
174.05220468
 42
-0.35050444
  0
VERTEX
  8
0
 10
51.71587851
 20
290.40348102
 42
0.28203630
  0
VERTEX
  8
0
 10
68.20397706
 20
287.11349948
 42
0.28203630
  0
VERTEX
  8
0
 10
78.62046353
 20
300.31115768
  0
VERTEX
  8
0
 10
71.23177277
 20
300.31115768
 42
-0.38267365
  0
VERTEX
  8
0
 10
61.68857134
 20
293.46801001
 42
-0.38267365
  0
VERTEX
  8
0
 10
53.84900869
 20
302.21115710
 42
-0.38267365
  0
VERTEX
  8
0
 10
61.68857134
 20
310.95430420
 42
-0.38267365
  0
VERTEX
  8
0
 10
71.23177277
 20
304.11115653
  0
VERTEX
  8
0
 10
78.62046353
 20
304.11115653
 42
0.21506394
  0
VERTEX
  8
0
 10
71.79595235
 20
315.44354257
 42
0.21506394
  0
VERTEX
  8
0
 10
58.78437128
 20
317.83010584
 42
0.21506394
  0
VERTEX
  8
0
 10
48.38226713
 20
309.65739787
 42
0.21506394
  0
VERTEX
  8
0
 10
47.62203633
 20
296.45062024
 42
0.34928143
  0
VERTEX
  8
0
 10
15.07178830
 20
172.00802897
 42
0.00076811
  0
VERTEX
  8
0
 10
39.74670118
 20
87.97676358
 42
0.30077071
  0
VERTEX
  8
0
 10
17.63009702
 20
74.69686884
 42
0.30077071
  0
VERTEX
  8
0
 10
21.19437289
 20
49.14700148
 42
0.30077071
  0
VERTEX
  8
0
 10
46.10101996
 20
42.42697797
 42
0.30077071
  0
VERTEX
  8
0
 10
62.03316255
 20
62.71654713
  0
VERTEX
  8
0
 10
54.70430409
 20
62.71654713
  0
SEQEND
  0
POLYLINE
  8
Nível Padrão
 66
   1
 39
0.000000
 70
    1
  0
VERTEX
  8
0
 10
106.33145244
 20
62.71654713
 42
-0.39698293
  0
VERTEX
  8
0
 10
89.40355205
 20
48.55589918
 42
-0.39698293
  0
VERTEX
  8
0
 10
74.26640015
 20
64.61654656
 42
-0.39698293
  0
VERTEX
  8
0
 10
89.40355205
 20
80.67719394
 42
-0.39698293
  0
VERTEX
  8
0
 10
106.33145244
 20
66.51654599
  0
VERTEX
  8
0
 10
113.66031090
 20
66.51654599
 42
0.27848861
  0
VERTEX
  8
0
 10
99.52581127
 20
86.12555793
 42
-0.00080393
  0
VERTEX
  8
0
 10
73.70021579
 20
174.05220468
 42
-0.35050444
  0
VERTEX
  8
0
 10
103.34302686
 20
290.40348102
 42
0.28203630
  0
VERTEX
  8
0
 10
119.83112541
 20
287.11349948
 42
0.28203630
  0
VERTEX
  8
0
 10
130.24761188
 20
300.31115768
  0
VERTEX
  8
0
 10
122.85892112
 20
300.31115768
 42
-0.38267365
  0
VERTEX
  8
0
 10
113.31571969
 20
293.46801001
 42
-0.38267365
  0
VERTEX
  8
0
 10
105.47615705
 20
302.21115710
 42
-0.38267365
  0
VERTEX
  8
0
 10
113.31571969
 20
310.95430420
 42
-0.38267365
  0
VERTEX
  8
0
 10
122.85892112
 20
304.11115653
  0
VERTEX
  8
0
 10
130.24761188
 20
304.11115653
 42
0.21506394
  0
VERTEX
  8
0
 10
123.42310070
 20
315.44354257
 42
0.21506394
  0
VERTEX
  8
0
 10
110.41151963
 20
317.83010584
 42
0.21506394
  0
VERTEX
  8
0
 10
100.00941549
 20
309.65739787
 42
0.21506394
  0
VERTEX
  8
0
 10
99.24918469
 20
296.45062024
 42
0.34928143
  0
VERTEX
  8
0
 10
66.69893666
 20
172.00802897
 42
0.00076811
  0
VERTEX
  8
0
 10
91.37384954
 20
87.97676358
 42
0.30077071
  0
VERTEX
  8
0
 10
69.25724537
 20
74.69686884
 42
0.30077071
  0
VERTEX
  8
0
 10
72.82152124
 20
49.14700148
 42
0.30077071
  0
VERTEX
  8
0
 10
97.72816831
 20
42.42697797
 42
0.30077071
  0
VERTEX
  8
0
 10
113.66031090
 20
62.71654713
  0
VERTEX
  8
0
 10
106.33145244
 20
62.71654713
  0
SEQEND
  0
POLYLINE
  8
Nível Padrão
 66
   1
 39
0.000000
 70
    1
  0
VERTEX
  8
0
 10
157.95860080
 20
62.71654713
 42
-0.39698293
  0
VERTEX
  8
0
 10
141.03070041
 20
48.55589918
 42
-0.39698293
  0
VERTEX
  8
0
 10
125.89354850
 20
64.61654656
 42
-0.39698293
  0
VERTEX
  8
0
 10
141.03070041
 20
80.67719394
 42
-0.39698293
  0
VERTEX
  8
0
 10
157.95860080
 20
66.51654599
  0
VERTEX
  8
0
 10
165.28745926
 20
66.51654599
 42
0.27848861
  0
VERTEX
  8
0
 10
151.15295962
 20
86.12555793
 42
-0.00080393
  0
VERTEX
  8
0
 10
125.32736415
 20
174.05220468
 42
-0.35050444
  0
VERTEX
  8
0
 10
154.97017522
 20
290.40348102
 42
0.28203630
  0
VERTEX
  8
0
 10
171.45827377
 20
287.11349948
 42
0.28203630
  0
VERTEX
  8
0
 10
181.87476024
 20
300.31115768
  0
VERTEX
  8
0
 10
174.48606948
 20
300.31115768
 42
-0.38267365
  0
VERTEX
  8
0
 10
164.94286805
 20
293.46801001
 42
-0.38267365
  0
VERTEX
  8
0
 10
157.10330540
 20
302.21115710
 42
-0.38267365
  0
VERTEX
  8
0
 10
164.94286805
 20
310.95430420
 42
-0.38267365
  0
VERTEX
  8
0
 10
174.48606948
 20
304.11115653
  0
VERTEX
  8
0
 10
181.87476024
 20
304.11115653
 42
0.21506394
  0
VERTEX
  8
0
 10
175.05024905
 20
315.44354257
 42
0.21506394
  0
VERTEX
  8
0
 10
162.03866799
 20
317.83010584
 42
0.21506394
  0
VERTEX
  8
0
 10
151.63656384
 20
309.65739787
 42
0.21506394
  0
VERTEX
  8
0
 10
150.87633304
 20
296.45062024
 42
0.34928143
  0
VERTEX
  8
0
 10
118.32608501
 20
172.00802897
 42
0.00076811
  0
VERTEX
  8
0
 10
143.00099789
 20
87.97676358
 42
0.30077071
  0
VERTEX
  8
0
 10
120.88439373
 20
74.69686884
 42
0.30077071
  0
VERTEX
  8
0
 10
124.44866960
 20
49.14700148
 42
0.30077071
  0
VERTEX
  8
0
 10
149.35531667
 20
42.42697797
 42
0.30077071
  0
VERTEX
  8
0
 10
165.28745926
 20
62.71654713
  0
VERTEX
  8
0
 10
157.95860080
 20
62.71654713
  0
SEQEND
  0
POLYLINE
  8
Nível Padrão
 66
   1
 39
0.000000
 70
    1
  0
VERTEX
  8
0
 10
245.74632588
 20
62.71654713
  0
VERTEX
  8
0
 10
253.07518434
 20
62.71654713
 42
0.39698293
  0
VERTEX
  8
0
 10
270.00308473
 20
48.55589918
 42
0.39698293
  0
VERTEX
  8
0
 10
285.14023663
 20
64.61654656
 42
0.39698293
  0
VERTEX
  8
0
 10
270.00308473
 20
80.67719394
 42
0.39698293
  0
VERTEX
  8
0
 10
253.07518434
 20
66.51654599
  0
VERTEX
  8
0
 10
245.74632588
 20
66.51654599
 42
-0.27848861
  0
VERTEX
  8
0
 10
259.88082551
 20
86.12555793
 42
0.00080393
  0
VERTEX
  8
0
 10
285.70642099
 20
174.05220468
 42
0.35050444
  0
VERTEX
  8
0
 10
256.06360992
 20
290.40348102
 42
-0.28203630
  0
VERTEX
  8
0
 10
239.57551137
 20
287.11349948
 42
-0.28203630
  0
VERTEX
  8
0
 10
229.15902490
 20
300.31115768
  0
VERTEX
  8
0
 10
236.54771566
 20
300.31115768
 42
0.38267365
  0
VERTEX
  8
0
 10
246.09091709
 20
293.46801001
 42
0.38267365
  0
VERTEX
  8
0
 10
253.93047973
 20
302.21115710
 42
0.38267365
  0
VERTEX
  8
0
 10
246.09091709
 20
310.95430420
 42
0.38267365
  0
VERTEX
  8
0
 10
236.54771566
 20
304.11115653
  0
VERTEX
  8
0
 10
229.15902490
 20
304.11115653
 42
-0.21506394
  0
VERTEX
  8
0
 10
235.98353608
 20
315.44354257
 42
-0.21506394
  0
VERTEX
  8
0
 10
248.99511715
 20
317.83010584
 42
-0.21506394
  0
VERTEX
  8
0
 10
259.39722129
 20
309.65739787
 42
-0.21506394
  0
VERTEX
  8
0
 10
260.15745209
 20
296.45062024
 42
-0.34928143
  0
VERTEX
  8
0
 10
292.70770012
 20
172.00802897
 42
-0.00076811
  0
VERTEX
  8
0
 10
268.03278724
 20
87.97676358
 42
-0.30077071
  0
VERTEX
  8
0
 10
290.14939141
 20
74.69686884
 42
-0.30077071
  0
VERTEX
  8
0
 10
286.58511554
 20
49.14700148
 42
-0.30077071
  0
VERTEX
  8
0
 10
261.67846846
 20
42.42697797
 42
-0.30077071
  0
VERTEX
  8
0
 10
245.74632588
 20
62.71654713
  0
SEQEND
  0
POLYLINE
  8
Nível Padrão
 66
   1
 39
0.000000
 70
    1
  0
VERTEX
  8
0
 10
297.37347423
 20
62.71654713
 42
0.30077071
  0
VERTEX
  8
0
 10
313.30561682
 20
42.42697797
 42
0.30077071
  0
VERTEX
  8
0
 10
338.21226389
 20
49.14700148
 42
0.30077071
  0
VERTEX
  8
0
 10
341.77653976
 20
74.69686884
 42
0.30077071
  0
VERTEX
  8
0
 10
319.65993560
 20
87.97676358
 42
0.00076811
  0
VERTEX
  8
0
 10
344.33484848
 20
172.00802897
 42
0.34928143
  0
VERTEX
  8
0
 10
311.78460045
 20
296.45062024
 42
0.21506394
  0
VERTEX
  8
0
 10
311.02436965
 20
309.65739787
 42
0.21506394
  0
VERTEX
  8
0
 10
300.62226550
 20
317.83010584
 42
0.21506394
  0
VERTEX
  8
0
 10
287.61068443
 20
315.44354257
 42
0.21506394
  0
VERTEX
  8
0
 10
280.78617325
 20
304.11115653
  0
VERTEX
  8
0
 10
288.17486401
 20
304.11115653
 42
-0.38267365
  0
VERTEX
  8
0
 10
297.71806544
 20
310.95430420
 42
-0.38267365
  0
VERTEX
  8
0
 10
305.55762809
 20
302.21115710
 42
-0.38267365
  0
VERTEX
  8
0
 10
297.71806544
 20
293.46801001
 42
-0.38267365
  0
VERTEX
  8
0
 10
288.17486401
 20
300.31115768
  0
VERTEX
  8
0
 10
280.78617325
 20
300.31115768
 42
0.28203630
  0
VERTEX
  8
0
 10
291.20265972
 20
287.11349948
 42
0.28203630
  0
VERTEX
  8
0
 10
307.69075827
 20
290.40348102
 42
-0.35050444
  0
VERTEX
  8
0
 10
337.33356934
 20
174.05220468
 42
-0.00080393
  0
VERTEX
  8
0
 10
311.50797386
 20
86.12555793
 42
0.27848861
  0
VERTEX
  8
0
 10
297.37347423
 20
66.51654599
  0
VERTEX
  8
0
 10
304.70233269
 20
66.51654599
 42
-0.39698293
  0
VERTEX
  8
0
 10
321.63023308
 20
80.67719394
 42
-0.39698293
  0
VERTEX
  8
0
 10
336.76738499
 20
64.61654656
 42
-0.39698293
  0
VERTEX
  8
0
 10
321.63023308
 20
48.55589918
 42
-0.39698293
  0
VERTEX
  8
0
 10
304.70233269
 20
62.71654713
  0
VERTEX
  8
0
 10
297.37347423
 20
62.71654713
  0
SEQEND
  0
POLYLINE
  8
Nível Padrão
 66
   1
 39
0.000000
 70
    1
  0
VERTEX
  8
0
 10
349.00062258
 20
62.71654713
  0
VERTEX
  8
0
 10
356.32948104
 20
62.71654713
 42
0.39698293
  0
VERTEX
  8
0
 10
373.25738144
 20
48.55589918
 42
0.39698293
  0
VERTEX
  8
0
 10
388.39453334
 20
64.61654656
 42
0.39698293
  0
VERTEX
  8
0
 10
373.25738144
 20
80.67719394
 42
0.39698293
  0
VERTEX
  8
0
 10
356.32948104
 20
66.51654599
  0
VERTEX
  8
0
 10
349.00062258
 20
66.51654599
 42
-0.27848861
  0
VERTEX
  8
0
 10
363.13512222
 20
86.12555793
 42
0.00080393
  0
VERTEX
  8
0
 10
388.96071769
 20
174.05220468
 42
0.35050444
  0
VERTEX
  8
0
 10
359.31790662
 20
290.40348102
 42
-0.28203630
  0
VERTEX
  8
0
 10
342.82980808
 20
287.11349948
 42
-0.28203630
  0
VERTEX
  8
0
 10
332.41332161
 20
300.31115768
  0
VERTEX
  8
0
 10
339.80201236
 20
300.31115768
 42
0.38267365
  0
VERTEX
  8
0
 10
349.34521380
 20
293.46801001
 42
0.38267365
  0
VERTEX
  8
0
 10
357.18477644
 20
302.21115710
 42
0.38267365
  0
VERTEX
  8
0
 10
349.34521380
 20
310.95430420
 42
0.38267365
  0
VERTEX
  8
0
 10
339.80201236
 20
304.11115653
  0
VERTEX
  8
0
 10
332.41332161
 20
304.11115653
 42
-0.21506394
  0
VERTEX
  8
0
 10
339.23783279
 20
315.44354257
 42
-0.21506394
  0
VERTEX
  8
0
 10
352.24941386
 20
317.83010584
 42
-0.21506394
  0
VERTEX
  8
0
 10
362.65151800
 20
309.65739787
 42
-0.21506394
  0
VERTEX
  8
0
 10
363.41174880
 20
296.45062024
 42
-0.34928143
  0
VERTEX
  8
0
 10
395.96199683
 20
172.00802897
 42
-0.00076811
  0
VERTEX
  8
0
 10
371.28708395
 20
87.97676358
 42
-0.30077071
  0
VERTEX
  8
0
 10
393.40368812
 20
74.69686884
 42
-0.30077071
  0
VERTEX
  8
0
 10
389.83941224
 20
49.14700148
 42
-0.30077071
  0
VERTEX
  8
0
 10
364.93276517
 20
42.42697797
 42
-0.30077071
  0
VERTEX
  8
0
 10
349.00062258
 20
62.71654713
  0
SEQEND
  0
POLYLINE
  8
Nível Padrão
 66
   1
 39
0.000000
 70
    1
  0
VERTEX
  8
0
 10
51.54142005
 20
9.82222222
  0
VERTEX
  8
0
 10
51.54142005
 20
16.50286537
  0
VERTEX
  8
0
 10
55.21883830
 20
16.50286537
  0
VERTEX
  8
0
 10
55.21883830
 20
27.65770073
  0
VERTEX
  8
0
 10
51.54142005
 20
27.65770073
  0
VERTEX
  8
0
 10
51.54142005
 20
34.33834388
  0
VERTEX
  8
0
 10
312.76069628
 20
34.33834388
  0
VERTEX
  8
0
 10
312.76069628
 20
9.82222222
  0
VERTEX
  8
0
 10
51.54142005
 20
9.82222222
  0
SEQEND
  0
POLYLINE
  8
Nível Padrão
 66
   1
 39
0.000000
 70
    1
  0
VERTEX
  8
0
 10
178.44120113
 20
367.65496180
 42
-0.12169494
  0
VERTEX
  8
0
 10
177.46508542
 20
377.13810266
 42
-0.15812903
  0
VERTEX
  8
0
 10
174.52624634
 20
384.88600149
 42
-0.29425962
  0
VERTEX
  8
0
 10
175.08286886
 20
385.52698475
 42
-0.09422241
  0
VERTEX
  8
0
 10
181.60866497
 20
386.76484830
 42
-0.26142786
  0
VERTEX
  8
0
 10
199.62988397
 20
394.09060579
 42
-0.26142786
  0
VERTEX
  8
0
 10
215.27135682
 20
382.52447489
 42
0.17113714
  0
VERTEX
  8
0
 10
222.81165647
 20
385.42307970
 42
0.06601390
  0
VERTEX
  8
0
 10
221.04510702
 20
371.03048987
 42
0.18360009
  0
VERTEX
  8
0
 10
241.88650480
 20
358.43537121
 42
-0.25924311
  0
VERTEX
  8
0
 10
207.47880734
 20
345.50233147
  0
VERTEX
  8
0
 10
207.47880734
 20
260.66666667
  0
VERTEX
  8
0
 10
199.82977739
 20
260.66666667
  0
VERTEX
  8
0
 10
199.82977739
 20
347.47481337
 42
-0.20092099
  0
VERTEX
  8
0
 10
178.51781339
 20
367.47007311
  0
VERTEX
  8
0
 10
178.44120113
 20
367.65496180
  0
SEQEND
  0
ENDSEC
  0
EOF
