  0
SECTION
  2
HEADER
  9
$ACADVER
  1
AC1024
  9
$ACADMAINTVER
 70
     6
  9
$DWGCODEPAGE
  3
ANSI_1252
  9
$INSBASE
 10
0.0
 20
0.0
 30
0.0
  9
$EXTMIN
 10
1.000000000000000E+20
 20
1.000000000000000E+20
 30
1.000000000000000E+20
  9
$EXTMAX
 10
-1.000000000000000E+20
 20
-1.000000000000000E+20
 30
-1.000000000000000E+20
  9
$LIMMIN
 10
0.0
 20
0.0
  9
$LIMMAX
 10
12.0
 20
9.0
  9
$ORTHOMODE
 70
     0
  9
$REGENMODE
 70
     1
  9
$FILLMODE
 70
     1
  9
$QTEXTMODE
 70
     0
  9
$MIRRTEXT
 70
     1
  9
$LTSCALE
 40
1.0
  9
$ATTMODE
 70
     1
  9
$TEXTSIZE
 40
0.2
  9
$TRACEWID
 40
0.05
  9
$TEXTSTYLE
  7
Standard
  9
$CLAYER
  8
0
  9
$CELTYPE
  6
ByLayer
  9
$CECOLOR
 62
   256
  9
$CELTSCALE
 40
1.0
  9
$DISPSILH
 70
     0
  9
$DIMSCALE
 40
1.0
  9
$DIMASZ
 40
0.18
  9
$DIMEXO
 40
0.0625
  9
$DIMDLI
 40
0.38
  9
$DIMRND
 40
0.0
  9
$DIMDLE
 40
0.0
  9
$DIMEXE
 40
0.18
  9
$DIMTP
 40
0.0
  9
$DIMTM
 40
0.0
  9
$DIMTXT
 40
0.18
  9
$DIMCEN
 40
0.09
  9
$DIMTSZ
 40
0.0
  9
$DIMTOL
 70
     0
  9
$DIMLIM
 70
     0
  9
$DIMTIH
 70
     1
  9
$DIMTOH
 70
     1
  9
$DIMSE1
 70
     0
  9
$DIMSE2
 70
     0
  9
$DIMTAD
 70
     0
  9
$DIMZIN
 70
     0
  9
$DIMBLK
  1

  9
$DIMASO
 70
     1
  9
$DIMSHO
 70
     1
  9
$DIMPOST
  1

  9
$DIMAPOST
  1

  9
$DIMALT
 70
     0
  9
$DIMALTD
 70
     2
  9
$DIMALTF
 40
25.4
  9
$DIMLFAC
 40
1.0
  9
$DIMTOFL
 70
     0
  9
$DIMTVP
 40
0.0
  9
$DIMTIX
 70
     0
  9
$DIMSOXD
 70
     0
  9
$DIMSAH
 70
     0
  9
$DIMBLK1
  1

  9
$DIMBLK2
  1

  9
$DIMSTYLE
  2
Standard
  9
$DIMCLRD
 70
     0
  9
$DIMCLRE
 70
     0
  9
$DIMCLRT
 70
     0
  9
$DIMTFAC
 40
1.0
  9
$DIMGAP
 40
0.09
  9
$DIMJUST
 70
     0
  9
$DIMSD1
 70
     0
  9
$DIMSD2
 70
     0
  9
$DIMTOLJ
 70
     1
  9
$DIMTZIN
 70
     0
  9
$DIMALTZ
 70
     0
  9
$DIMALTTZ
 70
     0
  9
$DIMUPT
 70
     0
  9
$DIMDEC
 70
     4
  9
$DIMTDEC
 70
     4
  9
$DIMALTU
 70
     2
  9
$DIMALTTD
 70
     2
  9
$DIMTXSTY
  7
Standard
  9
$DIMAUNIT
 70
     0
  9
$DIMADEC
 70
     0
  9
$DIMALTRND
 40
0.0
  9
$DIMAZIN
 70
     0
  9
$DIMDSEP
 70
    46
  9
$DIMATFIT
 70
     3
  9
$DIMFRAC
 70
     0
  9
$DIMLDRBLK
  1

  9
$DIMLUNIT
 70
     2
  9
$DIMLWD
 70
    -2
  9
$DIMLWE
 70
    -2
  9
$DIMTMOVE
 70
     0
  9
$DIMFXL
 40
1.0
  9
$DIMFXLON
 70
     0
  9
$DIMJOGANG
 40
0.7853981633974483
  9
$DIMTFILL
 70
     0
  9
$DIMTFILLCLR
 70
     0
  9
$DIMARCSYM
 70
     0
  9
$DIMLTYPE
  6

  9
$DIMLTEX1
  6

  9
$DIMLTEX2
  6

  9
$DIMTXTDIRECTION
 70
     0
  9
$LUNITS
 70
     2
  9
$LUPREC
 70
     4
  9
$SKETCHINC
 40
0.1
  9
$FILLETRAD
 40
0.5
  9
$AUNITS
 70
     0
  9
$AUPREC
 70
     0
  9
$MENU
  1
.
  9
$ELEVATION
 40
0.0
  9
$PELEVATION
 40
0.0
  9
$THICKNESS
 40
0.0
  9
$LIMCHECK
 70
     0
  9
$CHAMFERA
 40
0.5
  9
$CHAMFERB
 40
0.5
  9
$CHAMFERC
 40
1.0
  9
$CHAMFERD
 40
0.0
  9
$SKPOLY
 70
     0
  9
$TDCREATE
 40
2459881.554493877
  9
$TDUCREATE
 40
2459881.304493877
  9
$TDUPDATE
 40
2459881.554493889
  9
$TDUUPDATE
 40
2459881.304493889
  9
$TDINDWG
 40
0.0000000116
  9
$TDUSRTIMER
 40
0.0000000116
  9
$USRTIMER
 70
     1
  9
$ANGBASE
 50
0.0
  9
$ANGDIR
 70
     0
  9
$PDMODE
 70
     0
  9
$PDSIZE
 40
0.0
  9
$PLINEWID
 40
0.0
  9
$SPLFRAME
 70
     0
  9
$SPLINETYPE
 70
     6
  9
$SPLINESEGS
 70
     8
  9
$HANDSEED
  5
49
  9
$SURFTAB1
 70
     6
  9
$SURFTAB2
 70
     6
  9
$SURFTYPE
 70
     6
  9
$SURFU
 70
     6
  9
$SURFV
 70
     6
  9
$UCSBASE
  2

  9
$UCSNAME
  2

  9
$UCSORG
 10
0.0
 20
0.0
 30
0.0
  9
$UCSXDIR
 10
1.0
 20
0.0
 30
0.0
  9
$UCSYDIR
 10
0.0
 20
1.0
 30
0.0
  9
$UCSORTHOREF
  2

  9
$UCSORTHOVIEW
 70
     0
  9
$UCSORGTOP
 10
0.0
 20
0.0
 30
0.0
  9
$UCSORGBOTTOM
 10
0.0
 20
0.0
 30
0.0
  9
$UCSORGLEFT
 10
0.0
 20
0.0
 30
0.0
  9
$UCSORGRIGHT
 10
0.0
 20
0.0
 30
0.0
  9
$UCSORGFRONT
 10
0.0
 20
0.0
 30
0.0
  9
$UCSORGBACK
 10
0.0
 20
0.0
 30
0.0
  9
$PUCSBASE
  2

  9
$PUCSNAME
  2

  9
$PUCSORG
 10
0.0
 20
0.0
 30
0.0
  9
$PUCSXDIR
 10
1.0
 20
0.0
 30
0.0
  9
$PUCSYDIR
 10
0.0
 20
1.0
 30
0.0
  9
$PUCSORTHOREF
  2

  9
$PUCSORTHOVIEW
 70
     0
  9
$PUCSORGTOP
 10
0.0
 20
0.0
 30
0.0
  9
$PUCSORGBOTTOM
 10
0.0
 20
0.0
 30
0.0
  9
$PUCSORGLEFT
 10
0.0
 20
0.0
 30
0.0
  9
$PUCSORGRIGHT
 10
0.0
 20
0.0
 30
0.0
  9
$PUCSORGFRONT
 10
0.0
 20
0.0
 30
0.0
  9
$PUCSORGBACK
 10
0.0
 20
0.0
 30
0.0
  9
$USERI1
 70
     0
  9
$USERI2
 70
     0
  9
$USERI3
 70
     0
  9
$USERI4
 70
     0
  9
$USERI5
 70
     0
  9
$USERR1
 40
0.0
  9
$USERR2
 40
0.0
  9
$USERR3
 40
0.0
  9
$USERR4
 40
0.0
  9
$USERR5
 40
0.0
  9
$WORLDVIEW
 70
     1
  9
$SHADEDGE
 70
     3
  9
$SHADEDIF
 70
    70
  9
$TILEMODE
 70
     1
  9
$MAXACTVP
 70
    64
  9
$PINSBASE
 10
0.0
 20
0.0
 30
0.0
  9
$PLIMCHECK
 70
     0
  9
$PEXTMIN
 10
1.000000000000000E+20
 20
1.000000000000000E+20
 30
1.000000000000000E+20
  9
$PEXTMAX
 10
-1.000000000000000E+20
 20
-1.000000000000000E+20
 30
-1.000000000000000E+20
  9
$PLIMMIN
 10
0.0
 20
0.0
  9
$PLIMMAX
 10
12.0
 20
9.0
  9
$UNITMODE
 70
     0
  9
$VISRETAIN
 70
     1
  9
$PLINEGEN
 70
     0
  9
$PSLTSCALE
 70
     1
  9
$TREEDEPTH
 70
  3020
  9
$CMLSTYLE
  2
Standard
  9
$CMLJUST
 70
     0
  9
$CMLSCALE
 40
1.0
  9
$PROXYGRAPHICS
 70
     1
  9
$MEASUREMENT
 70
     0
  9
$CELWEIGHT
370
    -1
  9
$ENDCAPS
280
     0
  9
$JOINSTYLE
280
     0
  9
$LWDISPLAY
290
     1
  9
$INSUNITS
 70
     0
  9
$HYPERLINKBASE
  1

  9
$STYLESHEET
  1

  9
$XEDIT
290
     1
  9
$CEPSNTYPE
380
     0
  9
$PSTYLEMODE
290
     1
  9
$FINGERPRINTGUID
  2
{71F9B114-3D8F-4EBD-A7D6-E33E69754C0C}
  9
$VERSIONGUID
  2
{FAEB1C32-E019-11D5-929B-00C0DF256EC4}
  9
$EXTNAMES
290
     1
  9
$PSVPSCALE
 40
0.0
  9
$OLESTARTUP
290
     0
  9
$SORTENTS
280
   127
  9
$INDEXCTL
280
     0
  9
$HIDETEXT
280
     1
  9
$XCLIPFRAME
280
     2
  9
$HALOGAP
280
     0
  9
$OBSCOLOR
 70
   257
  9
$OBSLTYPE
280
     0
  9
$INTERSECTIONDISPLAY
280
     0
  9
$INTERSECTIONCOLOR
 70
   257
  9
$DIMASSOC
280
     2
  9
$PROJECTNAME
  1

  9
$CAMERADISPLAY
290
     0
  9
$LENSLENGTH
 40
50.0
  9
$CAMERAHEIGHT
 40
0.0
  9
$STEPSPERSEC
 40
2.0
  9
$STEPSIZE
 40
6.0
  9
$3DDWFPREC
 40
2.0
  9
$PSOLWIDTH
 40
0.25
  9
$PSOLHEIGHT
 40
4.0
  9
$LOFTANG1
 40
1.570796326794897
  9
$LOFTANG2
 40
1.570796326794897
  9
$LOFTMAG1
 40
0.0
  9
$LOFTMAG2
 40
0.0
  9
$LOFTPARAM
 70
     7
  9
$LOFTNORMALS
280
     1
  9
$LATITUDE
 40
37.795
  9
$LONGITUDE
 40
-122.394
  9
$NORTHDIRECTION
 40
0.0
  9
$TIMEZONE
 70
 -8000
  9
$LIGHTGLYPHDISPLAY
280
     1
  9
$TILEMODELIGHTSYNCH
280
     1
  9
$CMATERIAL
347
3C
  9
$SOLIDHIST
280
     1
  9
$SHOWHIST
280
     1
  9
$DWFFRAME
280
     2
  9
$DGNFRAME
280
     2
  9
$REALWORLDSCALE
290
     1
  9
$INTERFERECOLOR
 62
   256
  9
$CSHADOW
280
     0
  9
$SHADOWPLANELOCATION
 40
0.0
  0
ENDSEC
  0
SECTION
  2
CLASSES
  0
CLASS
  1
ACDBDICTIONARYWDFLT
  2
AcDbDictionaryWithDefault
  3
ObjectDBX Classes
 90
        0
 91
        4
280
     0
281
     0
  0
CLASS
  1
VISUALSTYLE
  2
AcDbVisualStyle
  3
ObjectDBX Classes
 90
     4095
 91
        4
280
     0
281
     0
  0
CLASS
  1
MATERIAL
  2
AcDbMaterial
  3
ObjectDBX Classes
 90
     1153
 91
        4
280
     0
281
     0
  0
CLASS
  1
SUN
  2
AcDbSun
  3
SCENEOE
 90
     1024
 91
        4
280
     0
281
     0
  0
ENDSEC
  0
SECTION
  2
TABLES
  0
TABLE
  2
VPORT
  5
8
330
0
100
AcDbSymbolTable
 70
     1
  0
VPORT
  5
29
330
8
100
AcDbSymbolTableRecord
100
AcDbViewportTableRecord
  2
*Active
 70
     0
 10
0.0
 20
0.0
 11
1.0
 21
1.0
 12
0.0
 22
0.0
 13
0.0
 23
0.0
 14
0.5
 24
0.5
 15
0.5
 25
0.5
 16
0.0
 26
0.0
 36
1.0
 17
1500.0
 27
-1500.0
 37
0.0
 40
3000.0
 41
1.0
 42
50.0
 43
0.0
 44
0.0
 50
0.0
 51
0.0
 71
     0
 72
   100
 73
     1
 74
     3
 75
     0
 76
     0
 77
     0
 78
     0
281
     0
 65
     1
110
0.0
120
0.0
130
0.0
111
1.0
121
0.0
131
0.0
112
0.0
122
1.0
132
0.0
 79
     0
146
0.0
 60
     3
 61
     5
292
     1
282
     1
141
0.0
142
0.0
 63
   250
361
3F
  0
ENDTAB
  0
TABLE
  2
LTYPE
  5
5
330
0
100
AcDbSymbolTable
 70
     1
  0
LTYPE
  5
14
330
5
100
AcDbSymbolTableRecord
100
AcDbLinetypeTableRecord
  2
ByBlock
 70
     0
  3

 72
    65
 73
     0
 40
0.0
  0
LTYPE
  5
15
330
5
100
AcDbSymbolTableRecord
100
AcDbLinetypeTableRecord
  2
ByLayer
 70
     0
  3

 72
    65
 73
     0
 40
0.0
  0
LTYPE
  5
16
330
5
100
AcDbSymbolTableRecord
100
AcDbLinetypeTableRecord
  2
Continuous
 70
     0
  3
Solid line
 72
    65
 73
     0
 40
0.0
  0
ENDTAB
  0
TABLE
  2
LAYER
  5
2
330
0
100
AcDbSymbolTable
 70
     2
  0
LAYER
  5
10
330
2
100
AcDbSymbolTableRecord
100
AcDbLayerTableRecord
  2
0
 70
     0
 62
     7
  6
Continuous
370
    -3
390
F
347
3E
  0
LAYER
  5
40
330
2
100
AcDbSymbolTableRecord
100
AcDbLayerTableRecord
  2
Layer 1
 70
     0
 62
     7
  6
Continuous
370
    -3
390
F
347
3E
  0
ENDTAB
  0
TABLE
  2
STYLE
  5
3
330
0
100
AcDbSymbolTable
 70
     1
  0
STYLE
  5
11
330
3
100
AcDbSymbolTableRecord
100
AcDbTextStyleTableRecord
  2
Standard
 70
     0
 40
0.0
 41
1.0
 50
0.0
 71
     0
 42
0.2
  3
txt
  4

  0
ENDTAB
  0
TABLE
  2
VIEW
  5
6
330
0
100
AcDbSymbolTable
 70
     0
  0
ENDTAB
  0
TABLE
  2
UCS
  5
7
330
0
100
AcDbSymbolTable
 70
     0
  0
ENDTAB
  0
TABLE
  2
APPID
  5
9
330
0
100
AcDbSymbolTable
 70
     1
  0
APPID
  5
12
330
9
100
AcDbSymbolTableRecord
100
AcDbRegAppTableRecord
  2
ACAD
 70
     0
  0
ENDTAB
  0
TABLE
  2
DIMSTYLE
  5
A
330
0
100
AcDbSymbolTable
 70
     1
100
AcDbDimStyleTable
  0
DIMSTYLE
105
27
330
A
100
AcDbSymbolTableRecord
100
AcDbDimStyleTableRecord
  2
Standard
 70
     0
178
     0
340
11
  0
ENDTAB
  0
TABLE
  2
BLOCK_RECORD
  5
1
330
0
100
AcDbSymbolTable
 70
     1
  0
BLOCK_RECORD
  5
1F
330
1
100
AcDbSymbolTableRecord
100
AcDbBlockTableRecord
  2
*Model_Space
340
22
 70
     0
280
     1
281
     0
  0
BLOCK_RECORD
  5
1B
330
1
100
AcDbSymbolTableRecord
100
AcDbBlockTableRecord
  2
*Paper_Space
340
1E
 70
     0
280
     1
281
     0
  0
BLOCK_RECORD
  5
23
330
1
100
AcDbSymbolTableRecord
100
AcDbBlockTableRecord
  2
*Paper_Space0
340
26
 70
     0
280
     1
281
     0
  0
ENDTAB
  0
ENDSEC
  0
SECTION
  2
BLOCKS
  0
BLOCK
  5
20
330
1F
100
AcDbEntity
  8
0
100
AcDbBlockBegin
  2
*Model_Space
 70
     0
 10
0.0
 20
0.0
 30
0.0
  3
*Model_Space
  1

  0
ENDBLK
  5
21
330
1F
100
AcDbEntity
  8
0
100
AcDbBlockEnd
  0
BLOCK
  5
1C
330
1B
100
AcDbEntity
 67
     1
  8
0
100
AcDbBlockBegin
  2
*Paper_Space
 70
     0
 10
0.0
 20
0.0
 30
0.0
  3
*Paper_Space
  1

  0
ENDBLK
  5
1D
330
1B
100
AcDbEntity
 67
     1
  8
0
100
AcDbBlockEnd
  0
BLOCK
  5
24
330
23
100
AcDbEntity
  8
0
100
AcDbBlockBegin
  2
*Paper_Space0
 70
     0
 10
0.0
 20
0.0
 30
0.0
  3
*Paper_Space0
  1

  0
ENDBLK
  5
25
330
23
100
AcDbEntity
  8
0
100
AcDbBlockEnd
  0
ENDSEC
  0
SECTION
  2
ENTITIES
  0
SPLINE
  5
41
330
1F
100
AcDbEntity
  8
Layer 1
370
     0
100
AcDbSpline
210
0.0
220
0.0
230
1.0
 70
    11
 71
     3
 72
    47
 73
    43
 74
     0
 42
0.0000000001
 43
0.0000000001
 12
1.0
 22
0.0
 32
0.0
 13
1.0
 23
0.0
 33
0.0
 40
0.0
 40
0.0
 40
0.0
 40
0.0
 40
1.0
 40
1.0
 40
1.0
 40
2.0
 40
2.0
 40
2.0
 40
3.0
 40
3.0
 40
3.0
 40
4.0
 40
4.0
 40
4.0
 40
5.0
 40
5.0
 40
5.0
 40
6.0
 40
6.0
 40
6.0
 40
7.0
 40
7.0
 40
7.0
 40
8.0
 40
8.0
 40
8.0
 40
9.0
 40
9.0
 40
9.0
 40
10.0
 40
10.0
 40
10.0
 40
11.0
 40
11.0
 40
11.0
 40
12.0
 40
12.0
 40
12.0
 40
13.0
 40
13.0
 40
13.0
 40
14.0
 40
14.0
 40
14.0
 40
14.0
 10
1965.788920063584
 20
-1146.012263051682
 30
0.0
 10
1777.12270269162
 20
-695.6677414589922
 30
0.0
 10
1543.327759119187
 20
-322.8408105205508
 30
0.0
 10
1540.932309536245
 20
-319.1985107151704
 30
0.0
 10
1540.932309536245
 20
-319.1985107151704
 30
0.0
 10
1534.990471703564
 20
-309.8085354945451
 30
0.0
 10
1534.990471703564
 20
-309.8085354945451
 30
0.0
 10
1566.323139392913
 20
-296.2990419970774
 30
0.0
 10
1588.361743417208
 20
-265.1581974188612
 30
0.0
 10
1588.361743417208
 20
-228.8428074524945
 30
0.0
 10
1588.361743417208
 20
-180.26243490466
 30
0.0
 10
1548.980692632053
 20
-140.8825537726207
 30
0.0
 10
1500.401489737408
 20
-140.8825537726207
 30
0.0
 10
1451.821117189643
 20
-140.8825537726207
 30
0.0
 10
1412.440066404486
 20
-180.26243490466
 30
0.0
 10
1412.440066404486
 20
-228.8428074524945
 30
0.0
 10
1412.440066404486
 20
-265.1581974188612
 30
0.0
 10
1434.477500775658
 20
-296.2990419970774
 30
0.0
 10
1465.810168465006
 20
-309.8085354945451
 30
0.0
 10
1465.810168465006
 20
-309.8085354945451
 30
0.0
 10
1459.869500285441
 20
-319.1985107151704
 30
0.0
 10
1459.869500285441
 20
-319.1985107151704
 30
0.0
 10
1457.569962258074
 20
-322.8408105205508
 30
0.0
 10
1223.773849032516
 20
-695.6677414589922
 30
0.0
 10
1035.108801313677
 20
-1146.012263051682
 30
0.0
 10
778.220226605712
 20
-1759.151444728783
 30
0.0
 10
723.0289746425269
 20
-2217.833253737093
 30
0.0
 10
870.972549104511
 20
-2509.2137292025
 30
0.0
 10
977.9057459898168
 20
-2719.629646278938
 30
0.0
 10
1188.513486177392
 20
-2837.104926704791
 30
0.0
 10
1497.142836154364
 20
-2858.373898978314
 30
0.0
 10
1497.142836154364
 20
-2858.373898978314
 30
0.0
 10
1500.401489737408
 20
-2858.565722089448
 30
0.0
 10
1500.401489737408
 20
-2858.565722089448
 30
0.0
 10
1500.401489737408
 20
-2858.565722089448
 30
0.0
 10
1503.753715569783
 20
-2858.373898978314
 30
0.0
 10
1503.753715569783
 20
-2858.373898978314
 30
0.0
 10
1812.288323644301
 20
-2837.104926704791
 30
0.0
 10
2022.991975387435
 20
-2719.629646278938
 30
0.0
 10
2129.829260717182
 20
-2509.2137292025
 30
0.0
 10
2277.867577081612
 20
-2217.833253737093
 30
0.0
 10
2222.676325118435
 20
-1759.151444728783
 30
0.0
 10
1965.788920063584
 20
-1146.012263051682
 30
0.0
  0
SPLINE
  5
42
330
1F
100
AcDbEntity
  8
Layer 1
370
     0
100
AcDbSpline
210
0.0
220
0.0
230
1.0
 70
    11
 71
     3
 72
    23
 73
    19
 74
     0
 42
0.0000000001
 43
0.0000000001
 12
1.0
 22
0.0
 32
0.0
 13
1.0
 23
0.0
 33
0.0
 40
0.0
 40
0.0
 40
0.0
 40
0.0
 40
1.0
 40
1.0
 40
1.0
 40
2.0
 40
2.0
 40
2.0
 40
3.0
 40
3.0
 40
3.0
 40
4.0
 40
4.0
 40
4.0
 40
5.0
 40
5.0
 40
5.0
 40
6.0
 40
6.0
 40
6.0
 40
6.0
 10
1451.053824745108
 20
-228.8428074524945
 30
0.0
 10
1451.053824745108
 20
-201.6308276930849
 30
0.0
 10
1473.18834032496
 20
-179.4963121132241
 30
0.0
 10
1500.401489737408
 20
-179.4963121132241
 30
0.0
 10
1527.708211399178
 20
-179.4963121132241
 30
0.0
 10
1549.842726979041
 20
-201.6308276930849
 30
0.0
 10
1549.842726979041
 20
-228.8428074524945
 30
0.0
 10
1549.842726979041
 20
-251.4557111570393
 30
0.0
 10
1534.702737036863
 20
-270.5233962649381
 30
0.0
 10
1513.910983234939
 20
-276.3681528890229
 30
0.0
 10
1509.599641846897
 20
-277.6150031113248
 30
0.0
 10
1505.096477347717
 20
-278.2852143471591
 30
0.0
 10
1500.401489737408
 20
-278.2852143471591
 30
0.0
 10
1495.706502127089
 20
-278.2852143471591
 30
0.0
 10
1491.202167974799
 20
-277.6150031113248
 30
0.0
 10
1486.889656933633
 20
-276.3681528890229
 30
0.0
 10
1466.193814687274
 20
-270.5233962649381
 30
0.0
 10
1451.053824745108
 20
-251.4557111570393
 30
0.0
 10
1451.053824745108
 20
-228.8428074524945
 30
0.0
  0
SPLINE
  5
43
330
1F
100
AcDbEntity
  8
Layer 1
370
     0
100
AcDbSpline
210
0.0
220
0.0
230
1.0
 70
    11
 71
     3
 72
    53
 73
    49
 74
     0
 42
0.0000000001
 43
0.0000000001
 12
1.0
 22
0.0
 32
0.0
 13
1.0
 23
0.0
 33
0.0
 40
0.0
 40
0.0
 40
0.0
 40
0.0
 40
1.0
 40
1.0
 40
1.0
 40
2.0
 40
2.0
 40
2.0
 40
3.0
 40
3.0
 40
3.0
 40
4.0
 40
4.0
 40
4.0
 40
5.0
 40
5.0
 40
5.0
 40
6.0
 40
6.0
 40
6.0
 40
7.0
 40
7.0
 40
7.0
 40
8.0
 40
8.0
 40
8.0
 40
9.0
 40
9.0
 40
9.0
 40
10.0
 40
10.0
 40
10.0
 40
11.0
 40
11.0
 40
11.0
 40
12.0
 40
12.0
 40
12.0
 40
13.0
 40
13.0
 40
13.0
 40
14.0
 40
14.0
 40
14.0
 40
15.0
 40
15.0
 40
15.0
 40
16.0
 40
16.0
 40
16.0
 40
16.0
 10
1500.401489737408
 20
-437.3428327237598
 30
0.0
 10
1545.11031046899
 20
-512.962076369613
 30
0.0
 10
1621.940145090568
 20
-647.4487917243132
 30
0.0
 10
1706.414832482697
 20
-814.8717691913535
 30
0.0
 10
1660.177275127622
 20
-802.2313279594655
 30
0.0
 10
1624.157807399777
 20
-811.7008395920257
 30
0.0
 10
1624.157807399777
 20
-811.7008395920257
 30
0.0
 10
1696.823676926004
 20
-1066.716799660237
 30
0.0
 10
1589.916212409265
 20
-1163.948893595849
 30
0.0
 10
1561.300648909939
 20
-1184.695030926188
 30
0.0
 10
1560.968467424798
 20
-1180.480770746808
 30
0.0
 10
1560.210532205201
 20
-1176.389324144748
 30
0.0
 10
1559.064272150863
 20
-1172.461628978919
 30
0.0
 10
1569.490560032853
 20
-1167.040286783242
 30
0.0
 10
1579.101599692531
 20
-1157.364916202148
 30
0.0
 10
1587.197938566129
 20
-1140.401437051052
 30
0.0
 10
1603.71227092039
 20
-1105.800758553671
 30
0.0
 10
1598.600886800537
 20
-1063.73067525329
 30
0.0
 10
1598.600886800537
 20
-1063.73067525329
 30
0.0
 10
1585.093732609235
 20
-1097.779277479602
 30
0.0
 10
1550.24859661052
 20
-1124.569012463809
 30
0.0
 10
1531.521280559522
 20
-1137.056229137375
 30
0.0
 10
1522.447111680394
 20
-1131.69453925056
 30
0.0
 10
1511.869938546348
 20
-1128.605485369471
 30
0.0
 10
1500.567580479968
 20
-1128.605485369471
 30
0.0
 10
1489.205570104637
 20
-1128.605485369471
 30
0.0
 10
1478.576932233462
 20
-1131.723780578443
 30
0.0
 10
1469.471182720192
 20
-1137.13693520239
 30
0.0
 10
1450.773107997099
 20
-1124.683638469189
 30
0.0
 10
1415.806328074262
 20
-1097.849456666601
 30
0.0
 10
1402.272271861272
 20
-1063.73067525329
 30
0.0
 10
1402.272271861272
 20
-1063.73067525329
 30
0.0
 10
1397.159718088307
 20
-1105.800758553671
 30
0.0
 10
1413.674050442568
 20
-1140.401437051052
 30
0.0
 10
1421.828871971993
 20
-1157.488899432446
 30
0.0
 10
1431.520617696715
 20
-1167.184154116505
 30
0.0
 10
1442.035799215581
 20
-1172.582103249953
 30
0.0
 10
1440.89187846748
 20
-1176.530852171831
 30
0.0
 10
1440.140961166573
 20
-1180.642182876962
 30
0.0
 10
1439.820476212608
 20
-1184.876327159303
 30
0.0
 10
1411.567505179449
 20
-1164.503309173098
 30
0.0
 10
1303.843622787272
 20
-1067.43379702072
 30
0.0
 10
1376.715351262033
 20
-811.7008395920257
 30
0.0
 10
1376.715351262033
 20
-811.7008395920257
 30
0.0
 10
1340.708749718467
 20
-802.2348369188512
 30
0.0
 10
1294.48405854768
 20
-814.8635816195019
 30
0.0
 10
1378.92833495877
 20
-647.4394344993798
 30
0.0
 10
1455.721910333731
 20
-512.9550584508615
 30
0.0
 10
1500.401489737408
 20
-437.3428327237598
 30
0.0
  0
SPLINE
  5
44
330
1F
100
AcDbEntity
  8
Layer 1
370
     0
100
AcDbSpline
210
0.0
220
0.0
230
1.0
 70
    11
 71
     3
 72
    59
 73
    55
 74
     0
 42
0.0000000001
 43
0.0000000001
 12
1.0
 22
0.0
 32
0.0
 13
1.0
 23
0.0
 33
0.0
 40
0.0
 40
0.0
 40
0.0
 40
0.0
 40
1.0
 40
1.0
 40
1.0
 40
2.0
 40
2.0
 40
2.0
 40
3.0
 40
3.0
 40
3.0
 40
4.0
 40
4.0
 40
4.0
 40
5.0
 40
5.0
 40
5.0
 40
6.0
 40
6.0
 40
6.0
 40
7.0
 40
7.0
 40
7.0
 40
8.0
 40
8.0
 40
8.0
 40
9.0
 40
9.0
 40
9.0
 40
10.0
 40
10.0
 40
10.0
 40
11.0
 40
11.0
 40
11.0
 40
12.0
 40
12.0
 40
12.0
 40
13.0
 40
13.0
 40
13.0
 40
14.0
 40
14.0
 40
14.0
 40
15.0
 40
15.0
 40
15.0
 40
16.0
 40
16.0
 40
16.0
 40
17.0
 40
17.0
 40
17.0
 40
18.0
 40
18.0
 40
18.0
 40
18.0
 10
1500.401489737408
 20
-2762.55591566072
 30
0.0
 10
1327.139603911985
 20
-2750.173967767601
 30
0.0
 10
1189.877301711428
 20
-2704.779730309698
 30
0.0
 10
1089.815816886555
 20
-2627.241085899421
 30
0.0
 10
1114.930608607688
 20
-2625.109977920794
 30
0.0
 10
1139.734272599792
 20
-2620.983441725186
 30
0.0
 10
1164.24786261896
 20
-2615.0275680551
 30
0.0
 10
1226.763482398725
 20
-2599.838452682079
 30
0.0
 10
1284.446095500419
 20
-2573.897885860524
 30
0.0
 10
1337.227862043261
 20
-2537.107616728841
 30
0.0
 10
1340.204629225182
 20
-2535.032652099815
 30
0.0
 10
1342.75447301953
 20
-2533.617371828701
 30
0.0
 10
1346.840071356052
 20
-2534.955454994169
 30
0.0
 10
1367.365144247378
 20
-2541.678621108787
 30
0.0
 10
1388.461007859632
 20
-2545.816853835511
 30
0.0
 10
1409.938178387926
 20
-2548.179553131185
 30
0.0
 10
1451.93808250131
 20
-2552.802022248265
 30
0.0
 10
1493.298186359868
 20
-2549.615887158458
 30
0.0
 10
1534.073463660097
 20
-2538.543950756113
 30
0.0
 10
1569.068315257744
 20
-2529.039349530001
 30
0.0
 10
1601.578823635584
 20
-2513.784733582444
 30
0.0
 10
1633.187529460469
 20
-2496.298419488179
 30
0.0
 10
1702.201741956454
 20
-2458.118602453893
 30
0.0
 10
1758.979043545838
 20
-2406.593043358354
 30
0.0
 10
1803.21649407141
 20
-2341.267916792292
 30
0.0
 10
1805.325378640766
 20
-2338.154300195767
 30
0.0
 10
1807.753578510972
 20
-2335.253560466428
 30
0.0
 10
1810.709291936793
 20
-2331.365633506617
 30
0.0
 10
1810.956088744417
 20
-2343.8645467113
 30
0.0
 10
1811.330377741746
 20
-2355.259307373948
 30
0.0
 10
1813.370252777222
 20
-2366.417798106979
 30
0.0
 10
1821.588235574942
 20
-2411.379263911766
 30
0.0
 10
1844.347345919105
 20
-2447.362472392999
 30
0.0
 10
1881.166856378757
 20
-2474.393155919186
 30
0.0
 10
1883.826647566064
 20
-2476.346476624078
 30
0.0
 10
1884.232517197546
 20
-2478.238975366798
 30
0.0
 10
1883.710851907512
 20
-2481.172465383404
 30
0.0
 10
1881.445233820523
 20
-2493.928702273859
 30
0.0
 10
1879.322313413766
 20
-2506.708332226541
 30
0.0
 10
1877.199393007009
 20
-2519.487962179328
 30
0.0
 10
1871.048187266446
 20
-2556.521519159278
 30
0.0
 10
1866.233895038233
 20
-2593.732863413063
 30
0.0
 10
1862.509719514754
 20
-2631.082226734563
 30
0.0
 10
1862.11671606755
 20
-2635.016939819039
 30
0.0
 10
1860.909634051146
 20
-2636.476666908646
 30
0.0
 10
1856.936322413818
 20
-2637.007689423563
 30
0.0
 10
1844.211666157575
 20
-2638.710704361432
 30
0.0
 10
1835.38195477983
 20
-2647.436316611789
 30
0.0
 10
1833.979540692944
 20
-2660.192553502244
 30
0.0
 10
1833.364303153576
 20
-2665.78817401239
 30
0.0
 10
1833.855557462575
 20
-2671.103077774538
 30
0.0
 10
1834.94801347355
 20
-2676.254230100354
 30
0.0
 10
1744.947884758265
 20
-2724.153864534217
 30
0.0
 10
1633.274083791097
 20
-2753.063010965829
 30
0.0
 10
1500.401489737408
 20
-2762.55591566072
 30
0.0
  0
SPLINE
  5
45
330
1F
100
AcDbEntity
  8
Layer 1
370
     0
100
AcDbSpline
210
0.0
220
0.0
230
1.0
 70
    11
 71
     3
 72
   248
 73
   244
 74
     0
 42
0.0000000001
 43
0.0000000001
 12
1.0
 22
0.0
 32
0.0
 13
1.0
 23
0.0
 33
0.0
 40
0.0
 40
0.0
 40
0.0
 40
0.0
 40
1.0
 40
1.0
 40
1.0
 40
2.0
 40
2.0
 40
2.0
 40
3.0
 40
3.0
 40
3.0
 40
4.0
 40
4.0
 40
4.0
 40
5.0
 40
5.0
 40
5.0
 40
6.0
 40
6.0
 40
6.0
 40
7.0
 40
7.0
 40
7.0
 40
8.0
 40
8.0
 40
8.0
 40
9.0
 40
9.0
 40
9.0
 40
10.0
 40
10.0
 40
10.0
 40
11.0
 40
11.0
 40
11.0
 40
12.0
 40
12.0
 40
12.0
 40
13.0
 40
13.0
 40
13.0
 40
14.0
 40
14.0
 40
14.0
 40
15.0
 40
15.0
 40
15.0
 40
16.0
 40
16.0
 40
16.0
 40
17.0
 40
17.0
 40
17.0
 40
18.0
 40
18.0
 40
18.0
 40
19.0
 40
19.0
 40
19.0
 40
20.0
 40
20.0
 40
20.0
 40
21.0
 40
21.0
 40
21.0
 40
22.0
 40
22.0
 40
22.0
 40
23.0
 40
23.0
 40
23.0
 40
24.0
 40
24.0
 40
24.0
 40
25.0
 40
25.0
 40
25.0
 40
26.0
 40
26.0
 40
26.0
 40
27.0
 40
27.0
 40
27.0
 40
28.0
 40
28.0
 40
28.0
 40
29.0
 40
29.0
 40
29.0
 40
30.0
 40
30.0
 40
30.0
 40
31.0
 40
31.0
 40
31.0
 40
32.0
 40
32.0
 40
32.0
 40
33.0
 40
33.0
 40
33.0
 40
34.0
 40
34.0
 40
34.0
 40
35.0
 40
35.0
 40
35.0
 40
36.0
 40
36.0
 40
36.0
 40
37.0
 40
37.0
 40
37.0
 40
38.0
 40
38.0
 40
38.0
 40
39.0
 40
39.0
 40
39.0
 40
40.0
 40
40.0
 40
40.0
 40
41.0
 40
41.0
 40
41.0
 40
42.0
 40
42.0
 40
42.0
 40
43.0
 40
43.0
 40
43.0
 40
44.0
 40
44.0
 40
44.0
 40
45.0
 40
45.0
 40
45.0
 40
46.0
 40
46.0
 40
46.0
 40
47.0
 40
47.0
 40
47.0
 40
48.0
 40
48.0
 40
48.0
 40
49.0
 40
49.0
 40
49.0
 40
50.0
 40
50.0
 40
50.0
 40
51.0
 40
51.0
 40
51.0
 40
52.0
 40
52.0
 40
52.0
 40
53.0
 40
53.0
 40
53.0
 40
54.0
 40
54.0
 40
54.0
 40
55.0
 40
55.0
 40
55.0
 40
56.0
 40
56.0
 40
56.0
 40
57.0
 40
57.0
 40
57.0
 40
58.0
 40
58.0
 40
58.0
 40
59.0
 40
59.0
 40
59.0
 40
60.0
 40
60.0
 40
60.0
 40
61.0
 40
61.0
 40
61.0
 40
62.0
 40
62.0
 40
62.0
 40
63.0
 40
63.0
 40
63.0
 40
64.0
 40
64.0
 40
64.0
 40
65.0
 40
65.0
 40
65.0
 40
66.0
 40
66.0
 40
66.0
 40
67.0
 40
67.0
 40
67.0
 40
68.0
 40
68.0
 40
68.0
 40
69.0
 40
69.0
 40
69.0
 40
70.0
 40
70.0
 40
70.0
 40
71.0
 40
71.0
 40
71.0
 40
72.0
 40
72.0
 40
72.0
 40
73.0
 40
73.0
 40
73.0
 40
74.0
 40
74.0
 40
74.0
 40
75.0
 40
75.0
 40
75.0
 40
76.0
 40
76.0
 40
76.0
 40
77.0
 40
77.0
 40
77.0
 40
78.0
 40
78.0
 40
78.0
 40
79.0
 40
79.0
 40
79.0
 40
80.0
 40
80.0
 40
80.0
 40
81.0
 40
81.0
 40
81.0
 40
81.0
 10
2044.455110078328
 20
-2465.810241349116
 30
0.0
 10
2014.626616297013
 20
-2524.545542255808
 30
0.0
 10
1974.571845316659
 20
-2574.723660960944
 30
0.0
 10
1924.60075521317
 20
-2616.351615383172
 30
0.0
 10
1924.924749126487
 20
-2608.683369550285
 30
0.0
 10
1925.263948530326
 20
-2601.017463023683
 30
0.0
 10
1925.904918438257
 20
-2593.367931640661
 30
0.0
 10
1929.048946015868
 20
-2555.852477576542
 30
0.0
 10
1940.387563328863
 20
-2520.96874302498
 30
0.0
 10
1958.222434051844
 20
-2488.028971953374
 30
0.0
 10
1966.496560199164
 20
-2472.750962943383
 30
0.0
 10
1975.914607094597
 20
-2458.195799559542
 30
0.0
 10
1986.50815537227
 20
-2444.419625151457
 30
0.0
 10
1988.298894293897
 20
-2442.092015449232
 30
0.0
 10
1988.650959882012
 20
-2439.928157183445
 30
0.0
 10
1988.247429556759
 20
-2437.00402439177
 30
0.0
 10
1982.058794916458
 20
-2392.20163141085
 30
0.0
 10
1981.790944352746
 20
-2347.403917042391
 30
0.0
 10
1988.422877524266
 20
-2302.587488224073
 30
0.0
 10
1992.76229058711
 20
-2273.259605976638
 30
0.0
 10
2000.933487260161
 20
-2244.744632645432
 30
0.0
 10
2006.382901130728
 20
-2215.658868593169
 30
0.0
 10
2009.174863120217
 20
-2200.759827192976
 30
0.0
 10
2011.226434686858
 20
-2185.763704584169
 30
0.0
 10
2012.185550242528
 20
-2170.624884295094
 30
0.0
 10
2012.310703126008
 20
-2168.652849140441
 30
0.0
 10
2012.775055413327
 20
-2166.701867741836
 30
0.0
 10
2013.082674183013
 20
-2164.741529118297
 30
0.0
 10
2013.082674183013
 20
-2150.586387100308
 30
0.0
 10
2013.082674183013
 20
-2136.43124508242
 30
0.0
 10
2013.082674183013
 20
-2122.276103064431
 30
0.0
 10
2012.807805700591
 20
-2121.142709194393
 30
0.0
 10
2012.344623066394
 20
-2120.019842202391
 30
0.0
 10
2012.286140410557
 20
-2118.875921454359
 30
0.0
 10
2011.500133516158
 20
-2103.723065327866
 30
0.0
 10
2009.740975228691
 20
-2088.667290410091
 30
0.0
 10
2006.927959483091
 20
-2073.779945541117
 30
0.0
 10
2004.627251802602
 20
-2061.606195902817
 30
0.0
 10
2003.720770637188
 20
-2049.006692530051
 30
0.0
 10
1997.811683091772
 20
-2037.745272322752
 30
0.0
 10
1976.733364276261
 20
-1997.566518111993
 30
0.0
 10
1948.431267812208
 20
-1963.444227739417
 30
0.0
 10
1913.181431835124
 20
-1934.771351237321
 30
0.0
 10
1893.709046748805
 20
-1918.931908731431
 30
0.0
 10
1872.720791223284
 20
-1905.700792675661
 30
0.0
 10
1850.278656873736
 20
-1894.896706837017
 30
0.0
 10
1814.958641709658
 20
-1877.893459479899
 30
0.0
 10
1777.794083580589
 20
-1867.815728226673
 30
0.0
 10
1738.18962905015
 20
-1869.261419478877
 30
0.0
 10
1709.046551995201
 20
-1870.325803815098
 30
0.0
 10
1680.882474598908
 20
-1865.661227185821
 30
0.0
 10
1653.317259598352
 20
-1856.383538664395
 30
0.0
 10
1634.811007986402
 20
-1850.156305471244
 30
0.0
 10
1615.983101767364
 20
-1844.712739866211
 30
0.0
 10
1599.585734724769
 20
-1833.631446238933
 30
0.0
 10
1582.863204115747
 20
-1822.330257825617
 30
0.0
 10
1571.84156279737
 20
-1807.33530486991
 30
0.0
 10
1570.243816639999
 20
-1786.523666965018
 30
0.0
 10
1569.154869588376
 20
-1772.321738822484
 30
0.0
 10
1570.239138027526
 20
-1758.253151135181
 30
0.0
 10
1572.815883843552
 20
-1744.286323268938
 30
0.0
 10
1579.293422803665
 20
-1709.178015318976
 30
0.0
 10
1591.246108002921
 20
-1675.810151206619
 30
0.0
 10
1605.324052915152
 20
-1643.149927229933
 30
0.0
 10
1626.051475795663
 20
-1595.065487603568
 30
0.0
 10
1654.121980942626
 20
-1551.429238779949
 30
0.0
 10
1686.175154951841
 20
-1510.217680867256
 30
0.0
 10
1689.063028496897
 20
-1506.505201874892
 30
0.0
 10
1691.608193678774
 20
-1502.513175787715
 30
0.0
 10
1694.135814063899
 20
-1498.537524844138
 30
0.0
 10
1694.973285695436
 20
-1497.22049543482
 30
0.0
 10
1696.355815679333
 20
-1495.49174812833
 30
0.0
 10
1694.858659690002
 20
-1493.963011504929
 30
0.0
 10
1693.55800542426
 20
-1492.633115911189
 30
0.0
 10
1691.656149456561
 20
-1493.284612697262
 30
0.0
 10
1690.065421217889
 20
-1493.807447640325
 30
0.0
 10
1685.888589938255
 20
-1495.177111439962
 30
0.0
 10
1681.990136100394
 20
-1497.159673472752
 30
0.0
 10
1678.209817227325
 20
-1499.39254127244
 30
0.0
 10
1658.976041376805
 20
-1510.751042688456
 30
0.0
 10
1642.060518003524
 20
-1525.113213308081
 30
0.0
 10
1626.120485329542
 20
-1540.564330979219
 30
0.0
 10
1576.59503306351
 20
-1588.56689488735
 30
0.0
 10
1543.100846414553
 20
-1646.571162596159
 30
0.0
 10
1521.331262607095
 20
-1711.551241492785
 30
0.0
 10
1512.105038822807
 20
-1739.090724124742
 30
0.0
 10
1509.4452476355
 20
-1767.471187347619
 30
0.0
 10
1515.192923050807
 20
-1796.237636098946
 30
0.0
 10
1521.445888612525
 20
-1827.538723154235
 30
0.0
 10
1536.482949080433
 20
-1854.250091379587
 30
0.0
 10
1558.7929126278
 20
-1876.789306937762
 30
0.0
 10
1593.681325791822
 20
-1912.037973261726
 30
0.0
 10
1634.79580249589
 20
-1933.494090033919
 30
0.0
 10
1685.638284171291
 20
-1933.599358814472
 30
0.0
 10
1706.332956764531
 20
-1933.642635979753
 30
0.0
 10
1727.079094094905
 20
-1934.247346641052
 30
0.0
 10
1747.597149067529
 20
-1937.632322760748
 30
0.0
 10
1796.612632574692
 20
-1945.721643715637
 30
0.0
 10
1841.091031642296
 20
-1964.815061192154
 30
0.0
 10
1881.799638714874
 20
-1993.027094366231
 30
0.0
 10
1883.196204536176
 20
-1993.993227840549
 30
0.0
 10
1884.502707067495
 20
-1995.085683851572
 30
0.0
 10
1885.851317111017
 20
-1996.120826859789
 30
0.0
 10
1877.694156275356
 20
-1994.533607580503
 30
0.0
 10
1869.97561535846
 20
-1992.264480534162
 30
0.0
 10
1862.15882357975
 20
-1990.405901731809
 30
0.0
 10
1827.432992198941
 20
-1982.144641768735
 30
0.0
 10
1792.525864585044
 20
-1980.792522765865
 30
0.0
 10
1757.531012987401
 20
-1988.506385070337
 30
0.0
 10
1709.852442992586
 20
-1999.015718323582
 30
0.0
 10
1671.334596207533
 20
-2024.690773887636
 30
0.0
 10
1639.48026322815
 20
-2060.948850851199
 30
0.0
 10
1608.493812861328
 20
-2096.223249543778
 30
0.0
 10
1587.682174956426
 20
-2136.968115863008
 30
0.0
 10
1575.301396716473
 20
-2182.162342637928
 30
0.0
 10
1570.498801019425
 20
-2199.690764244393
 30
0.0
 10
1565.31372875323
 20
-2217.172399726087
 30
0.0
 10
1556.829065044913
 20
-2233.3182913486
 30
0.0
 10
1544.02604202984
 20
-2257.683335421965
 30
0.0
 10
1524.734953176605
 20
-2275.844539364532
 30
0.0
 10
1500.933681905485
 20
-2289.356372168304
 30
0.0
 10
1489.385696684607
 20
-2295.913447540303
 30
0.0
 10
1477.135919593723
 20
-2300.442344408048
 30
0.0
 10
1463.765614817075
 20
-2301.310227020667
 30
0.0
 10
1437.294025480597
 20
-2303.029617102122
 30
0.0
 10
1414.663576979274
 20
-2293.496944201313
 30
0.0
 10
1394.285880380653
 20
-2277.420062112722
 30
0.0
 10
1392.46239117176
 20
-2275.981388779148
 30
0.0
 10
1391.566436884395
 20
-2274.191819510714
 30
0.0
 10
1390.952368998142
 20
-2271.984684079524
 30
0.0
 10
1387.389605604761
 20
-2259.188678983153
 30
0.0
 10
1383.726252043357
 20
-2246.420745561587
 30
0.0
 10
1380.031317847794
 20
-2233.662169364952
 30
0.0
 10
1375.915308530234
 20
-2219.449714344262
 30
0.0
 10
1373.056676313094
 20
-2204.694540277453
 30
0.0
 10
1367.328885000763
 20
-2191.15931441135
 30
0.0
 10
1348.46822849446
 20
-2146.586173441297
 30
0.0
 10
1302.458753497134
 20
-2117.60918712897
 30
0.0
 10
1254.170794228533
 20
-2118.661874933972
 30
0.0
 10
1249.22199189191
 20
-2118.769483020706
 30
0.0
 10
1244.282546780205
 20
-2119.293487616975
 30
0.0
 10
1238.689265576292
 20
-2119.668946267391
 30
0.0
 10
1258.227151237149
 20
-2141.173018817348
 30
0.0
 10
1261.665931400154
 20
-2160.905066895621
 30
0.0
 10
1248.883962141185
 20
-2177.081369499114
 30
0.0
 10
1239.865936611668
 20
-2162.691127204811
 30
0.0
 10
1227.830206041132
 20
-2152.076525170996
 30
0.0
 10
1211.539277432155
 20
-2146.968650010464
 30
0.0
 10
1195.206241310978
 20
-2141.84673901255
 30
0.0
 10
1179.201877715579
 20
-2143.134527094089
 30
0.0
 10
1162.57759796835
 20
-2149.677566628672
 30
0.0
 10
1164.189379963122
 20
-2150.488136238506
 30
0.0
 10
1164.88883252689
 20
-2150.892836216926
 30
0.0
 10
1165.629222949747
 20
-2151.206303252195
 30
0.0
 10
1184.307413569843
 20
-2159.110819014597
 30
0.0
 10
1194.757094514172
 20
-2173.137299189701
 30
0.0
 10
1197.611048118848
 20
-2193.220243202975
 30
0.0
 10
1198.605253268018
 20
-2200.210090228195
 30
0.0
 10
1197.278866633719
 20
-2204.926131594606
 30
0.0
 10
1191.126491240033
 20
-2209.483100137151
 30
0.0
 10
1176.902339688211
 20
-2220.016996105829
 30
0.0
 10
1165.995324375263
 20
-2233.321800307966
 30
0.0
 10
1162.167049724405
 20
-2251.309895589266
 30
0.0
 10
1159.866342043914
 20
-2262.124508305942
 30
0.0
 10
1161.634857556319
 20
-2272.761333748991
 30
0.0
 10
1163.377640700159
 20
-2283.398159191935
 30
0.0
 10
1166.180129567697
 20
-2300.509014635785
 30
0.0
 10
1161.667607843583
 20
-2311.918980788812
 30
0.0
 10
1148.892656503314
 20
-2319.629334133899
 30
0.0
 10
1144.0924001125
 20
-2322.527734557059
 30
0.0
 10
1138.910836805656
 20
-2324.490412486779
 30
0.0
 10
1133.455574669511
 20
-2325.697494503182
 30
0.0
 10
1131.165393867072
 20
-2326.202784649584
 30
0.0
 10
1130.117384674537
 20
-2327.232079392254
 30
0.0
 10
1130.062410978049
 20
-2329.763208736726
 30
0.0
 10
1129.340735005066
 20
-2363.243359548285
 30
0.0
 10
1142.129722182735
 20
-2389.530143692375
 30
0.0
 10
1171.02483277694
 20
-2407.381389558937
 30
0.0
 10
1180.931794675141
 20
-2413.501014665353
 30
0.0
 10
1192.179179045032
 20
-2415.800552692779
 30
0.0
 10
1203.109587420317
 20
-2419.094295869321
 30
0.0
 10
1234.30540569502
 20
-2428.49362831488
 30
0.0
 10
1263.95143359013
 20
-2425.265385712873
 30
0.0
 10
1292.096796536559
 20
-2408.721812030695
 30
0.0
 10
1299.328761756921
 20
-2404.468953298483
 30
0.0
 10
1305.719746386407
 20
-2399.093227574269
 30
0.0
 10
1312.230035633795
 20
-2393.418070652186
 30
0.0
 10
1312.848782132511
 20
-2396.236934663306
 30
0.0
 10
1311.539940294962
 20
-2398.157505080932
 30
0.0
 10
1310.845166343658
 20
-2400.15995121667
 30
0.0
 10
1292.804436672141
 20
-2452.069156534477
 30
0.0
 10
1258.422483307633
 20
-2488.892175953424
 30
0.0
 10
1207.983531957474
 20
-2510.476954568503
 30
0.0
 10
1169.165084321441
 20
-2527.086028825215
 30
0.0
 10
1128.310270609281
 20
-2535.961356674505
 30
0.0
 10
1086.518564750669
 20
-2540.894953520567
 30
0.0
 10
1063.140707907788
 20
-2543.655334875906
 30
0.0
 10
1042.016772620725
 20
-2551.585583006929
 30
0.0
 10
1023.161964380009
 20
-2564.648269013898
 30
0.0
 10
997.1172984311215
 20
-2534.955454994169
 30
0.0
 10
974.8178617618141
 20
-2502.069487965882
 30
0.0
 10
956.4426112989313
 20
-2465.903813598447
 30
0.0
 10
801.6261551233929
 20
-2161.073496944422
 30
0.0
 10
925.4082051543255
 20
-1673.577283406912
 30
0.0
 10
1098.216265570479
 20
-1245.42692970307
 30
0.0
 10
1108.132584693608
 20
-1405.809765060838
 30
0.0
 10
1210.139202651496
 20
-1351.934372853944
 30
0.0
 10
1135.563289585745
 20
-1605.66605379998
 30
0.0
 10
1135.563289585745
 20
-1605.66605379998
 30
0.0
 10
1202.666288889098
 20
-1508.156752075631
 30
0.0
 10
1206.860664965473
 20
-1325.72127685622
 30
0.0
 10
1211.053871388735
 20
-1143.283462330524
 30
0.0
 10
1292.83484765317
 20
-1230.307993516944
 30
0.0
 10
1292.83484765317
 20
-1321.526900779789
 30
0.0
 10
1292.83484765317
 20
-1321.526900779789
 30
0.0
 10
1365.181401878555
 20
-1116.023526793366
 30
0.0
 10
1374.616993570728
 20
-1350.884024355104
 30
0.0
 10
1374.616993570728
 20
-1350.884024355104
 30
0.0
 10
1410.265681260592
 20
-1242.891121746128
 30
0.0
 10
1454.303121103216
 20
-1360.320785700396
 30
0.0
 10
1454.303121103216
 20
-1360.320785700396
 30
0.0
 10
1484.70942352416
 20
-1324.672098010604
 30
0.0
 10
1500.436579330901
 20
-1402.25986785171
 30
0.0
 10
1516.163735137648
 20
-1324.672098010604
 30
0.0
 10
1546.570037558595
 20
-1360.320785700396
 30
0.0
 10
1546.570037558595
 20
-1360.320785700396
 30
0.0
 10
1590.605138094983
 20
-1242.891121746128
 30
0.0
 10
1626.253825784846
 20
-1350.884024355104
 30
0.0
 10
1626.253825784846
 20
-1350.884024355104
 30
0.0
 10
1635.690587130142
 20
-1116.023526793366
 30
0.0
 10
1708.035971702404
 20
-1321.526900779789
 30
0.0
 10
1708.035971702404
 20
-1321.526900779789
 30
0.0
 10
1708.035971702404
 20
-1230.307993516944
 30
0.0
 10
1789.81811761995
 20
-1143.283462330524
 30
0.0
 10
1794.012493696337
 20
-1325.72127685622
 30
0.0
 10
1798.205700119597
 20
-1508.156752075631
 30
0.0
 10
1865.309869076063
 20
-1605.66605379998
 30
0.0
 10
1865.309869076063
 20
-1605.66605379998
 30
0.0
 10
1790.70471468239
 20
-1351.837291645226
 30
0.0
 10
1892.816601420789
 20
-1405.849533266752
 30
0.0
 10
1902.666250316266
 20
-1245.240954857483
 30
0.0
 10
2075.522266510201
 20
-1673.353879661612
 30
0.0
 10
2199.333557869046
 20
-2160.853602158488
 30
0.0
 10
2044.455110078328
 20
-2465.810241349116
 30
0.0
  0
HATCH
  5
46
330
1F
100
AcDbEntity
  8
Layer 1
 62
   173
420
  6844597
100
AcDbHatch
 10
0.0
 20
0.0
 30
0.0
210
0.0
220
0.0
230
1.0
  2
SOLID
 70
     1
 71
     0
 91
        5
 92
        1
 93
        1
 72
     4
 94
        3
 73
     0
 74
     1
 95
       47
 96
       43
 40
0.0
 40
0.0
 40
0.0
 40
0.0
 40
1.0
 40
1.0
 40
1.0
 40
2.0
 40
2.0
 40
2.0
 40
3.0
 40
3.0
 40
3.0
 40
4.0
 40
4.0
 40
4.0
 40
5.0
 40
5.0
 40
5.0
 40
6.0
 40
6.0
 40
6.0
 40
7.0
 40
7.0
 40
7.0
 40
8.0
 40
8.0
 40
8.0
 40
9.0
 40
9.0
 40
9.0
 40
10.0
 40
10.0
 40
10.0
 40
11.0
 40
11.0
 40
11.0
 40
12.0
 40
12.0
 40
12.0
 40
13.0
 40
13.0
 40
13.0
 40
14.0
 40
14.0
 40
14.0
 40
14.0
 10
1965.788920063584
 20
-1146.012263051682
 10
1777.12270269162
 20
-695.6677414589922
 10
1543.327759119187
 20
-322.8408105205508
 10
1540.932309536245
 20
-319.1985107151704
 10
1540.932309536245
 20
-319.1985107151704
 10
1534.990471703564
 20
-309.8085354945451
 10
1534.990471703564
 20
-309.8085354945451
 10
1566.323139392913
 20
-296.2990419970774
 10
1588.361743417208
 20
-265.1581974188612
 10
1588.361743417208
 20
-228.8428074524945
 10
1588.361743417208
 20
-180.26243490466
 10
1548.980692632053
 20
-140.8825537726207
 10
1500.401489737408
 20
-140.8825537726207
 10
1451.821117189643
 20
-140.8825537726207
 10
1412.440066404486
 20
-180.26243490466
 10
1412.440066404486
 20
-228.8428074524945
 10
1412.440066404486
 20
-265.1581974188612
 10
1434.477500775658
 20
-296.2990419970774
 10
1465.810168465006
 20
-309.8085354945451
 10
1465.810168465006
 20
-309.8085354945451
 10
1459.869500285441
 20
-319.1985107151704
 10
1459.869500285441
 20
-319.1985107151704
 10
1457.569962258074
 20
-322.8408105205508
 10
1223.773849032516
 20
-695.6677414589922
 10
1035.108801313677
 20
-1146.012263051682
 10
778.220226605712
 20
-1759.151444728783
 10
723.0289746425269
 20
-2217.833253737093
 10
870.972549104511
 20
-2509.2137292025
 10
977.9057459898168
 20
-2719.629646278938
 10
1188.513486177392
 20
-2837.104926704791
 10
1497.142836154364
 20
-2858.373898978314
 10
1497.142836154364
 20
-2858.373898978314
 10
1500.401489737408
 20
-2858.565722089448
 10
1500.401489737408
 20
-2858.565722089448
 10
1500.401489737408
 20
-2858.565722089448
 10
1503.753715569783
 20
-2858.373898978314
 10
1503.753715569783
 20
-2858.373898978314
 10
1812.288323644301
 20
-2837.104926704791
 10
2022.991975387435
 20
-2719.629646278938
 10
2129.829260717182
 20
-2509.2137292025
 10
2277.867577081612
 20
-2217.833253737093
 10
2222.676325118435
 20
-1759.151444728783
 10
1965.788920063584
 20
-1146.012263051682
 97
        0
 97
        0
 92
        1
 93
        1
 72
     4
 94
        3
 73
     0
 74
     1
 95
       23
 96
       19
 40
0.0
 40
0.0
 40
0.0
 40
0.0
 40
1.0
 40
1.0
 40
1.0
 40
2.0
 40
2.0
 40
2.0
 40
3.0
 40
3.0
 40
3.0
 40
4.0
 40
4.0
 40
4.0
 40
5.0
 40
5.0
 40
5.0
 40
6.0
 40
6.0
 40
6.0
 40
6.0
 10
1451.053824745108
 20
-228.8428074524945
 10
1451.053824745108
 20
-201.6308276930849
 10
1473.18834032496
 20
-179.4963121132241
 10
1500.401489737408
 20
-179.4963121132241
 10
1527.708211399178
 20
-179.4963121132241
 10
1549.842726979041
 20
-201.6308276930849
 10
1549.842726979041
 20
-228.8428074524945
 10
1549.842726979041
 20
-251.4557111570393
 10
1534.702737036863
 20
-270.5233962649381
 10
1513.910983234939
 20
-276.3681528890229
 10
1509.599641846897
 20
-277.6150031113248
 10
1505.096477347717
 20
-278.2852143471591
 10
1500.401489737408
 20
-278.2852143471591
 10
1495.706502127089
 20
-278.2852143471591
 10
1491.202167974799
 20
-277.6150031113248
 10
1486.889656933633
 20
-276.3681528890229
 10
1466.193814687274
 20
-270.5233962649381
 10
1451.053824745108
 20
-251.4557111570393
 10
1451.053824745108
 20
-228.8428074524945
 97
        0
 97
        0
 92
        1
 93
        1
 72
     4
 94
        3
 73
     0
 74
     1
 95
       53
 96
       49
 40
0.0
 40
0.0
 40
0.0
 40
0.0
 40
1.0
 40
1.0
 40
1.0
 40
2.0
 40
2.0
 40
2.0
 40
3.0
 40
3.0
 40
3.0
 40
4.0
 40
4.0
 40
4.0
 40
5.0
 40
5.0
 40
5.0
 40
6.0
 40
6.0
 40
6.0
 40
7.0
 40
7.0
 40
7.0
 40
8.0
 40
8.0
 40
8.0
 40
9.0
 40
9.0
 40
9.0
 40
10.0
 40
10.0
 40
10.0
 40
11.0
 40
11.0
 40
11.0
 40
12.0
 40
12.0
 40
12.0
 40
13.0
 40
13.0
 40
13.0
 40
14.0
 40
14.0
 40
14.0
 40
15.0
 40
15.0
 40
15.0
 40
16.0
 40
16.0
 40
16.0
 40
16.0
 10
1500.401489737408
 20
-437.3428327237598
 10
1545.11031046899
 20
-512.962076369613
 10
1621.940145090568
 20
-647.4487917243132
 10
1706.414832482697
 20
-814.8717691913535
 10
1660.177275127622
 20
-802.2313279594655
 10
1624.157807399777
 20
-811.7008395920257
 10
1624.157807399777
 20
-811.7008395920257
 10
1696.823676926004
 20
-1066.716799660237
 10
1589.916212409265
 20
-1163.948893595849
 10
1561.300648909939
 20
-1184.695030926188
 10
1560.968467424798
 20
-1180.480770746808
 10
1560.210532205201
 20
-1176.389324144748
 10
1559.064272150863
 20
-1172.461628978919
 10
1569.490560032853
 20
-1167.040286783242
 10
1579.101599692531
 20
-1157.364916202148
 10
1587.197938566129
 20
-1140.401437051052
 10
1603.71227092039
 20
-1105.800758553671
 10
1598.600886800537
 20
-1063.73067525329
 10
1598.600886800537
 20
-1063.73067525329
 10
1585.093732609235
 20
-1097.779277479602
 10
1550.24859661052
 20
-1124.569012463809
 10
1531.521280559522
 20
-1137.056229137375
 10
1522.447111680394
 20
-1131.69453925056
 10
1511.869938546348
 20
-1128.605485369471
 10
1500.567580479968
 20
-1128.605485369471
 10
1489.205570104637
 20
-1128.605485369471
 10
1478.576932233462
 20
-1131.723780578443
 10
1469.471182720192
 20
-1137.13693520239
 10
1450.773107997099
 20
-1124.683638469189
 10
1415.806328074262
 20
-1097.849456666601
 10
1402.272271861272
 20
-1063.73067525329
 10
1402.272271861272
 20
-1063.73067525329
 10
1397.159718088307
 20
-1105.800758553671
 10
1413.674050442568
 20
-1140.401437051052
 10
1421.828871971993
 20
-1157.488899432446
 10
1431.520617696715
 20
-1167.184154116505
 10
1442.035799215581
 20
-1172.582103249953
 10
1440.89187846748
 20
-1176.530852171831
 10
1440.140961166573
 20
-1180.642182876962
 10
1439.820476212608
 20
-1184.876327159303
 10
1411.567505179449
 20
-1164.503309173098
 10
1303.843622787272
 20
-1067.43379702072
 10
1376.715351262033
 20
-811.7008395920257
 10
1376.715351262033
 20
-811.7008395920257
 10
1340.708749718467
 20
-802.2348369188512
 10
1294.48405854768
 20
-814.8635816195019
 10
1378.92833495877
 20
-647.4394344993798
 10
1455.721910333731
 20
-512.9550584508615
 10
1500.401489737408
 20
-437.3428327237598
 97
        0
 97
        0
 92
        1
 93
        1
 72
     4
 94
        3
 73
     0
 74
     1
 95
       59
 96
       55
 40
0.0
 40
0.0
 40
0.0
 40
0.0
 40
1.0
 40
1.0
 40
1.0
 40
2.0
 40
2.0
 40
2.0
 40
3.0
 40
3.0
 40
3.0
 40
4.0
 40
4.0
 40
4.0
 40
5.0
 40
5.0
 40
5.0
 40
6.0
 40
6.0
 40
6.0
 40
7.0
 40
7.0
 40
7.0
 40
8.0
 40
8.0
 40
8.0
 40
9.0
 40
9.0
 40
9.0
 40
10.0
 40
10.0
 40
10.0
 40
11.0
 40
11.0
 40
11.0
 40
12.0
 40
12.0
 40
12.0
 40
13.0
 40
13.0
 40
13.0
 40
14.0
 40
14.0
 40
14.0
 40
15.0
 40
15.0
 40
15.0
 40
16.0
 40
16.0
 40
16.0
 40
17.0
 40
17.0
 40
17.0
 40
18.0
 40
18.0
 40
18.0
 40
18.0
 10
1500.401489737408
 20
-2762.55591566072
 10
1327.139603911985
 20
-2750.173967767601
 10
1189.877301711428
 20
-2704.779730309698
 10
1089.815816886555
 20
-2627.241085899421
 10
1114.930608607688
 20
-2625.109977920794
 10
1139.734272599792
 20
-2620.983441725186
 10
1164.24786261896
 20
-2615.0275680551
 10
1226.763482398725
 20
-2599.838452682079
 10
1284.446095500419
 20
-2573.897885860524
 10
1337.227862043261
 20
-2537.107616728841
 10
1340.204629225182
 20
-2535.032652099815
 10
1342.75447301953
 20
-2533.617371828701
 10
1346.840071356052
 20
-2534.955454994169
 10
1367.365144247378
 20
-2541.678621108787
 10
1388.461007859632
 20
-2545.816853835511
 10
1409.938178387926
 20
-2548.179553131185
 10
1451.93808250131
 20
-2552.802022248265
 10
1493.298186359868
 20
-2549.615887158458
 10
1534.073463660097
 20
-2538.543950756113
 10
1569.068315257744
 20
-2529.039349530001
 10
1601.578823635584
 20
-2513.784733582444
 10
1633.187529460469
 20
-2496.298419488179
 10
1702.201741956454
 20
-2458.118602453893
 10
1758.979043545838
 20
-2406.593043358354
 10
1803.21649407141
 20
-2341.267916792292
 10
1805.325378640766
 20
-2338.154300195767
 10
1807.753578510972
 20
-2335.253560466428
 10
1810.709291936793
 20
-2331.365633506617
 10
1810.956088744417
 20
-2343.8645467113
 10
1811.330377741746
 20
-2355.259307373948
 10
1813.370252777222
 20
-2366.417798106979
 10
1821.588235574942
 20
-2411.379263911766
 10
1844.347345919105
 20
-2447.362472392999
 10
1881.166856378757
 20
-2474.393155919186
 10
1883.826647566064
 20
-2476.346476624078
 10
1884.232517197546
 20
-2478.238975366798
 10
1883.710851907512
 20
-2481.172465383404
 10
1881.445233820523
 20
-2493.928702273859
 10
1879.322313413766
 20
-2506.708332226541
 10
1877.199393007009
 20
-2519.487962179328
 10
1871.048187266446
 20
-2556.521519159278
 10
1866.233895038233
 20
-2593.732863413063
 10
1862.509719514754
 20
-2631.082226734563
 10
1862.11671606755
 20
-2635.016939819039
 10
1860.909634051146
 20
-2636.476666908646
 10
1856.936322413818
 20
-2637.007689423563
 10
1844.211666157575
 20
-2638.710704361432
 10
1835.38195477983
 20
-2647.436316611789
 10
1833.979540692944
 20
-2660.192553502244
 10
1833.364303153576
 20
-2665.78817401239
 10
1833.855557462575
 20
-2671.103077774538
 10
1834.94801347355
 20
-2676.254230100354
 10
1744.947884758265
 20
-2724.153864534217
 10
1633.274083791097
 20
-2753.063010965829
 10
1500.401489737408
 20
-2762.55591566072
 97
        0
 97
        0
 92
        1
 93
        1
 72
     4
 94
        3
 73
     0
 74
     1
 95
      248
 96
      244
 40
0.0
 40
0.0
 40
0.0
 40
0.0
 40
1.0
 40
1.0
 40
1.0
 40
2.0
 40
2.0
 40
2.0
 40
3.0
 40
3.0
 40
3.0
 40
4.0
 40
4.0
 40
4.0
 40
5.0
 40
5.0
 40
5.0
 40
6.0
 40
6.0
 40
6.0
 40
7.0
 40
7.0
 40
7.0
 40
8.0
 40
8.0
 40
8.0
 40
9.0
 40
9.0
 40
9.0
 40
10.0
 40
10.0
 40
10.0
 40
11.0
 40
11.0
 40
11.0
 40
12.0
 40
12.0
 40
12.0
 40
13.0
 40
13.0
 40
13.0
 40
14.0
 40
14.0
 40
14.0
 40
15.0
 40
15.0
 40
15.0
 40
16.0
 40
16.0
 40
16.0
 40
17.0
 40
17.0
 40
17.0
 40
18.0
 40
18.0
 40
18.0
 40
19.0
 40
19.0
 40
19.0
 40
20.0
 40
20.0
 40
20.0
 40
21.0
 40
21.0
 40
21.0
 40
22.0
 40
22.0
 40
22.0
 40
23.0
 40
23.0
 40
23.0
 40
24.0
 40
24.0
 40
24.0
 40
25.0
 40
25.0
 40
25.0
 40
26.0
 40
26.0
 40
26.0
 40
27.0
 40
27.0
 40
27.0
 40
28.0
 40
28.0
 40
28.0
 40
29.0
 40
29.0
 40
29.0
 40
30.0
 40
30.0
 40
30.0
 40
31.0
 40
31.0
 40
31.0
 40
32.0
 40
32.0
 40
32.0
 40
33.0
 40
33.0
 40
33.0
 40
34.0
 40
34.0
 40
34.0
 40
35.0
 40
35.0
 40
35.0
 40
36.0
 40
36.0
 40
36.0
 40
37.0
 40
37.0
 40
37.0
 40
38.0
 40
38.0
 40
38.0
 40
39.0
 40
39.0
 40
39.0
 40
40.0
 40
40.0
 40
40.0
 40
41.0
 40
41.0
 40
41.0
 40
42.0
 40
42.0
 40
42.0
 40
43.0
 40
43.0
 40
43.0
 40
44.0
 40
44.0
 40
44.0
 40
45.0
 40
45.0
 40
45.0
 40
46.0
 40
46.0
 40
46.0
 40
47.0
 40
47.0
 40
47.0
 40
48.0
 40
48.0
 40
48.0
 40
49.0
 40
49.0
 40
49.0
 40
50.0
 40
50.0
 40
50.0
 40
51.0
 40
51.0
 40
51.0
 40
52.0
 40
52.0
 40
52.0
 40
53.0
 40
53.0
 40
53.0
 40
54.0
 40
54.0
 40
54.0
 40
55.0
 40
55.0
 40
55.0
 40
56.0
 40
56.0
 40
56.0
 40
57.0
 40
57.0
 40
57.0
 40
58.0
 40
58.0
 40
58.0
 40
59.0
 40
59.0
 40
59.0
 40
60.0
 40
60.0
 40
60.0
 40
61.0
 40
61.0
 40
61.0
 40
62.0
 40
62.0
 40
62.0
 40
63.0
 40
63.0
 40
63.0
 40
64.0
 40
64.0
 40
64.0
 40
65.0
 40
65.0
 40
65.0
 40
66.0
 40
66.0
 40
66.0
 40
67.0
 40
67.0
 40
67.0
 40
68.0
 40
68.0
 40
68.0
 40
69.0
 40
69.0
 40
69.0
 40
70.0
 40
70.0
 40
70.0
 40
71.0
 40
71.0
 40
71.0
 40
72.0
 40
72.0
 40
72.0
 40
73.0
 40
73.0
 40
73.0
 40
74.0
 40
74.0
 40
74.0
 40
75.0
 40
75.0
 40
75.0
 40
76.0
 40
76.0
 40
76.0
 40
77.0
 40
77.0
 40
77.0
 40
78.0
 40
78.0
 40
78.0
 40
79.0
 40
79.0
 40
79.0
 40
80.0
 40
80.0
 40
80.0
 40
81.0
 40
81.0
 40
81.0
 40
81.0
 10
2044.455110078328
 20
-2465.810241349116
 10
2014.626616297013
 20
-2524.545542255808
 10
1974.571845316659
 20
-2574.723660960944
 10
1924.60075521317
 20
-2616.351615383172
 10
1924.924749126487
 20
-2608.683369550285
 10
1925.263948530326
 20
-2601.017463023683
 10
1925.904918438257
 20
-2593.367931640661
 10
1929.048946015868
 20
-2555.852477576542
 10
1940.387563328863
 20
-2520.96874302498
 10
1958.222434051844
 20
-2488.028971953374
 10
1966.496560199164
 20
-2472.750962943383
 10
1975.914607094597
 20
-2458.195799559542
 10
1986.50815537227
 20
-2444.419625151457
 10
1988.298894293897
 20
-2442.092015449232
 10
1988.650959882012
 20
-2439.928157183445
 10
1988.247429556759
 20
-2437.00402439177
 10
1982.058794916458
 20
-2392.20163141085
 10
1981.790944352746
 20
-2347.403917042391
 10
1988.422877524266
 20
-2302.587488224073
 10
1992.76229058711
 20
-2273.259605976638
 10
2000.933487260161
 20
-2244.744632645432
 10
2006.382901130728
 20
-2215.658868593169
 10
2009.174863120217
 20
-2200.759827192976
 10
2011.226434686858
 20
-2185.763704584169
 10
2012.185550242528
 20
-2170.624884295094
 10
2012.310703126008
 20
-2168.652849140441
 10
2012.775055413327
 20
-2166.701867741836
 10
2013.082674183013
 20
-2164.741529118297
 10
2013.082674183013
 20
-2150.586387100308
 10
2013.082674183013
 20
-2136.43124508242
 10
2013.082674183013
 20
-2122.276103064431
 10
2012.807805700591
 20
-2121.142709194393
 10
2012.344623066394
 20
-2120.019842202391
 10
2012.286140410557
 20
-2118.875921454359
 10
2011.500133516158
 20
-2103.723065327866
 10
2009.740975228691
 20
-2088.667290410091
 10
2006.927959483091
 20
-2073.779945541117
 10
2004.627251802602
 20
-2061.606195902817
 10
2003.720770637188
 20
-2049.006692530051
 10
1997.811683091772
 20
-2037.745272322752
 10
1976.733364276261
 20
-1997.566518111993
 10
1948.431267812208
 20
-1963.444227739417
 10
1913.181431835124
 20
-1934.771351237321
 10
1893.709046748805
 20
-1918.931908731431
 10
1872.720791223284
 20
-1905.700792675661
 10
1850.278656873736
 20
-1894.896706837017
 10
1814.958641709658
 20
-1877.893459479899
 10
1777.794083580589
 20
-1867.815728226673
 10
1738.18962905015
 20
-1869.261419478877
 10
1709.046551995201
 20
-1870.325803815098
 10
1680.882474598908
 20
-1865.661227185821
 10
1653.317259598352
 20
-1856.383538664395
 10
1634.811007986402
 20
-1850.156305471244
 10
1615.983101767364
 20
-1844.712739866211
 10
1599.585734724769
 20
-1833.631446238933
 10
1582.863204115747
 20
-1822.330257825617
 10
1571.84156279737
 20
-1807.33530486991
 10
1570.243816639999
 20
-1786.523666965018
 10
1569.154869588376
 20
-1772.321738822484
 10
1570.239138027526
 20
-1758.253151135181
 10
1572.815883843552
 20
-1744.286323268938
 10
1579.293422803665
 20
-1709.178015318976
 10
1591.246108002921
 20
-1675.810151206619
 10
1605.324052915152
 20
-1643.149927229933
 10
1626.051475795663
 20
-1595.065487603568
 10
1654.121980942626
 20
-1551.429238779949
 10
1686.175154951841
 20
-1510.217680867256
 10
1689.063028496897
 20
-1506.505201874892
 10
1691.608193678774
 20
-1502.513175787715
 10
1694.135814063899
 20
-1498.537524844138
 10
1694.973285695436
 20
-1497.22049543482
 10
1696.355815679333
 20
-1495.49174812833
 10
1694.858659690002
 20
-1493.963011504929
 10
1693.55800542426
 20
-1492.633115911189
 10
1691.656149456561
 20
-1493.284612697262
 10
1690.065421217889
 20
-1493.807447640325
 10
1685.888589938255
 20
-1495.177111439962
 10
1681.990136100394
 20
-1497.159673472752
 10
1678.209817227325
 20
-1499.39254127244
 10
1658.976041376805
 20
-1510.751042688456
 10
1642.060518003524
 20
-1525.113213308081
 10
1626.120485329542
 20
-1540.564330979219
 10
1576.59503306351
 20
-1588.56689488735
 10
1543.100846414553
 20
-1646.571162596159
 10
1521.331262607095
 20
-1711.551241492785
 10
1512.105038822807
 20
-1739.090724124742
 10
1509.4452476355
 20
-1767.471187347619
 10
1515.192923050807
 20
-1796.237636098946
 10
1521.445888612525
 20
-1827.538723154235
 10
1536.482949080433
 20
-1854.250091379587
 10
1558.7929126278
 20
-1876.789306937762
 10
1593.681325791822
 20
-1912.037973261726
 10
1634.79580249589
 20
-1933.494090033919
 10
1685.638284171291
 20
-1933.599358814472
 10
1706.332956764531
 20
-1933.642635979753
 10
1727.079094094905
 20
-1934.247346641052
 10
1747.597149067529
 20
-1937.632322760748
 10
1796.612632574692
 20
-1945.721643715637
 10
1841.091031642296
 20
-1964.815061192154
 10
1881.799638714874
 20
-1993.027094366231
 10
1883.196204536176
 20
-1993.993227840549
 10
1884.502707067495
 20
-1995.085683851572
 10
1885.851317111017
 20
-1996.120826859789
 10
1877.694156275356
 20
-1994.533607580503
 10
1869.97561535846
 20
-1992.264480534162
 10
1862.15882357975
 20
-1990.405901731809
 10
1827.432992198941
 20
-1982.144641768735
 10
1792.525864585044
 20
-1980.792522765865
 10
1757.531012987401
 20
-1988.506385070337
 10
1709.852442992586
 20
-1999.015718323582
 10
1671.334596207533
 20
-2024.690773887636
 10
1639.48026322815
 20
-2060.948850851199
 10
1608.493812861328
 20
-2096.223249543778
 10
1587.682174956426
 20
-2136.968115863008
 10
1575.301396716473
 20
-2182.162342637928
 10
1570.498801019425
 20
-2199.690764244393
 10
1565.31372875323
 20
-2217.172399726087
 10
1556.829065044913
 20
-2233.3182913486
 10
1544.02604202984
 20
-2257.683335421965
 10
1524.734953176605
 20
-2275.844539364532
 10
1500.933681905485
 20
-2289.356372168304
 10
1489.385696684607
 20
-2295.913447540303
 10
1477.135919593723
 20
-2300.442344408048
 10
1463.765614817075
 20
-2301.310227020667
 10
1437.294025480597
 20
-2303.029617102122
 10
1414.663576979274
 20
-2293.496944201313
 10
1394.285880380653
 20
-2277.420062112722
 10
1392.46239117176
 20
-2275.981388779148
 10
1391.566436884395
 20
-2274.191819510714
 10
1390.952368998142
 20
-2271.984684079524
 10
1387.389605604761
 20
-2259.188678983153
 10
1383.726252043357
 20
-2246.420745561587
 10
1380.031317847794
 20
-2233.662169364952
 10
1375.915308530234
 20
-2219.449714344262
 10
1373.056676313094
 20
-2204.694540277453
 10
1367.328885000763
 20
-2191.15931441135
 10
1348.46822849446
 20
-2146.586173441297
 10
1302.458753497134
 20
-2117.60918712897
 10
1254.170794228533
 20
-2118.661874933972
 10
1249.22199189191
 20
-2118.769483020706
 10
1244.282546780205
 20
-2119.293487616975
 10
1238.689265576292
 20
-2119.668946267391
 10
1258.227151237149
 20
-2141.173018817348
 10
1261.665931400154
 20
-2160.905066895621
 10
1248.883962141185
 20
-2177.081369499114
 10
1239.865936611668
 20
-2162.691127204811
 10
1227.830206041132
 20
-2152.076525170996
 10
1211.539277432155
 20
-2146.968650010464
 10
1195.206241310978
 20
-2141.84673901255
 10
1179.201877715579
 20
-2143.134527094089
 10
1162.57759796835
 20
-2149.677566628672
 10
1164.189379963122
 20
-2150.488136238506
 10
1164.88883252689
 20
-2150.892836216926
 10
1165.629222949747
 20
-2151.206303252195
 10
1184.307413569843
 20
-2159.110819014597
 10
1194.757094514172
 20
-2173.137299189701
 10
1197.611048118848
 20
-2193.220243202975
 10
1198.605253268018
 20
-2200.210090228195
 10
1197.278866633719
 20
-2204.926131594606
 10
1191.126491240033
 20
-2209.483100137151
 10
1176.902339688211
 20
-2220.016996105829
 10
1165.995324375263
 20
-2233.321800307966
 10
1162.167049724405
 20
-2251.309895589266
 10
1159.866342043914
 20
-2262.124508305942
 10
1161.634857556319
 20
-2272.761333748991
 10
1163.377640700159
 20
-2283.398159191935
 10
1166.180129567697
 20
-2300.509014635785
 10
1161.667607843583
 20
-2311.918980788812
 10
1148.892656503314
 20
-2319.629334133899
 10
1144.0924001125
 20
-2322.527734557059
 10
1138.910836805656
 20
-2324.490412486779
 10
1133.455574669511
 20
-2325.697494503182
 10
1131.165393867072
 20
-2326.202784649584
 10
1130.117384674537
 20
-2327.232079392254
 10
1130.062410978049
 20
-2329.763208736726
 10
1129.340735005066
 20
-2363.243359548285
 10
1142.129722182735
 20
-2389.530143692375
 10
1171.02483277694
 20
-2407.381389558937
 10
1180.931794675141
 20
-2413.501014665353
 10
1192.179179045032
 20
-2415.800552692779
 10
1203.109587420317
 20
-2419.094295869321
 10
1234.30540569502
 20
-2428.49362831488
 10
1263.95143359013
 20
-2425.265385712873
 10
1292.096796536559
 20
-2408.721812030695
 10
1299.328761756921
 20
-2404.468953298483
 10
1305.719746386407
 20
-2399.093227574269
 10
1312.230035633795
 20
-2393.418070652186
 10
1312.848782132511
 20
-2396.236934663306
 10
1311.539940294962
 20
-2398.157505080932
 10
1310.845166343658
 20
-2400.15995121667
 10
1292.804436672141
 20
-2452.069156534477
 10
1258.422483307633
 20
-2488.892175953424
 10
1207.983531957474
 20
-2510.476954568503
 10
1169.165084321441
 20
-2527.086028825215
 10
1128.310270609281
 20
-2535.961356674505
 10
1086.518564750669
 20
-2540.894953520567
 10
1063.140707907788
 20
-2543.655334875906
 10
1042.016772620725
 20
-2551.585583006929
 10
1023.161964380009
 20
-2564.648269013898
 10
997.1172984311215
 20
-2534.955454994169
 10
974.8178617618141
 20
-2502.069487965882
 10
956.4426112989313
 20
-2465.903813598447
 10
801.6261551233929
 20
-2161.073496944422
 10
925.4082051543255
 20
-1673.577283406912
 10
1098.216265570479
 20
-1245.42692970307
 10
1108.132584693608
 20
-1405.809765060838
 10
1210.139202651496
 20
-1351.934372853944
 10
1135.563289585745
 20
-1605.66605379998
 10
1135.563289585745
 20
-1605.66605379998
 10
1202.666288889098
 20
-1508.156752075631
 10
1206.860664965473
 20
-1325.72127685622
 10
1211.053871388735
 20
-1143.283462330524
 10
1292.83484765317
 20
-1230.307993516944
 10
1292.83484765317
 20
-1321.526900779789
 10
1292.83484765317
 20
-1321.526900779789
 10
1365.181401878555
 20
-1116.023526793366
 10
1374.616993570728
 20
-1350.884024355104
 10
1374.616993570728
 20
-1350.884024355104
 10
1410.265681260592
 20
-1242.891121746128
 10
1454.303121103216
 20
-1360.320785700396
 10
1454.303121103216
 20
-1360.320785700396
 10
1484.70942352416
 20
-1324.672098010604
 10
1500.436579330901
 20
-1402.25986785171
 10
1516.163735137648
 20
-1324.672098010604
 10
1546.570037558595
 20
-1360.320785700396
 10
1546.570037558595
 20
-1360.320785700396
 10
1590.605138094983
 20
-1242.891121746128
 10
1626.253825784846
 20
-1350.884024355104
 10
1626.253825784846
 20
-1350.884024355104
 10
1635.690587130142
 20
-1116.023526793366
 10
1708.035971702404
 20
-1321.526900779789
 10
1708.035971702404
 20
-1321.526900779789
 10
1708.035971702404
 20
-1230.307993516944
 10
1789.81811761995
 20
-1143.283462330524
 10
1794.012493696337
 20
-1325.72127685622
 10
1798.205700119597
 20
-1508.156752075631
 10
1865.309869076063
 20
-1605.66605379998
 10
1865.309869076063
 20
-1605.66605379998
 10
1790.70471468239
 20
-1351.837291645226
 10
1892.816601420789
 20
-1405.849533266752
 10
1902.666250316266
 20
-1245.240954857483
 10
2075.522266510201
 20
-1673.353879661612
 10
2199.333557869046
 20
-2160.853602158488
 10
2044.455110078328
 20
-2465.810241349116
 97
        0
 97
        0
 75
     2
 76
     1
 98
        0
  0
ENDSEC
  0
SECTION
  2
OBJECTS
  0
DICTIONARY
  5
C
330
0
100
AcDbDictionary
281
     1
  3
ACAD_GROUP
350
D
  3
ACAD_LAYOUT
350
1A
  3
ACAD_MATERIAL
350
3B
  3
ACAD_MLEADERSTYLE
350
48
  3
ACAD_MLINESTYLE
350
17
  3
ACAD_PLOTSETTINGS
350
19
  3
ACAD_PLOTSTYLENAME
350
E
  3
ACAD_TABLESTYLE
350
47
  3
ACAD_VISUALSTYLE
350
2A
  0
SUN
  5
3F
330
29
100
AcDbSun
 90
        1
290
     0
 63
     7
421
 16777215
 40
1.0
291
     1
 91
  2455826
 92
 54000000
292
     0
 70
     2
 71
   256
280
     1
  0
DICTIONARY
  5
D
102
{ACAD_REACTORS
330
C
102
}
330
C
100
AcDbDictionary
281
     1
  0
DICTIONARY
  5
1A
102
{ACAD_REACTORS
330
C
102
}
330
C
100
AcDbDictionary
281
     1
  3
Layout1
350
1E
  3
Layout2
350
26
  3
Model
350
22
  0
DICTIONARY
  5
3B
102
{ACAD_REACTORS
330
C
102
}
330
C
100
AcDbDictionary
281
     1
  3
ByBlock
350
3D
  3
ByLayer
350
3C
  3
Global
350
3E
  0
DICTIONARY
  5
48
102
{ACAD_REACTORS
330
C
102
}
330
C
100
AcDbDictionary
281
     1
  0
DICTIONARY
  5
17
102
{ACAD_REACTORS
330
C
102
}
330
C
100
AcDbDictionary
281
     1
  3
Standard
350
18
  0
DICTIONARY
  5
19
102
{ACAD_REACTORS
330
C
102
}
330
C
100
AcDbDictionary
281
     1
  0
ACDBDICTIONARYWDFLT
  5
E
102
{ACAD_REACTORS
330
C
102
}
330
C
100
AcDbDictionary
281
     1
  3
Normal
350
F
100
AcDbDictionaryWithDefault
340
F
  0
DICTIONARY
  5
47
102
{ACAD_REACTORS
330
C
102
}
330
C
100
AcDbDictionary
281
     1
  0
DICTIONARY
  5
2A
102
{ACAD_REACTORS
330
C
102
}
330
C
100
AcDbDictionary
281
     1
  3
2dWireframe
350
2F
  3
3D Hidden
350
31
  3
3dWireframe
350
30
  3
Basic
350
32
  3
Brighten
350
36
  3
ColorChange
350
3A
  3
Conceptual
350
34
  3
Dim
350
35
  3
Facepattern
350
39
  3
Flat
350
2B
  3
FlatWithEdges
350
2C
  3
Gouraud
350
2D
  3
GouraudWithEdges
350
2E
  3
Linepattern
350
38
  3
Realistic
350
33
  3
Thicken
350
37
  0
LAYOUT
  5
1E
102
{ACAD_REACTORS
330
1A
102
}
330
1A
100
AcDbPlotSettings
  1

  2
none_device
  4

  6

 40
0.0
 41
0.0
 42
0.0
 43
0.0
 44
0.0
 45
0.0
 46
0.0
 47
0.0
 48
0.0
 49
0.0
140
0.0
141
0.0
142
1.0
143
1.0
 70
   688
 72
     0
 73
     0
 74
     5
  7

 75
    16
 76
     0
 77
     2
 78
   300
147
1.0
148
0.0
149
0.0
100
AcDbLayout
  1
Layout1
 70
     1
 71
     1
 10
0.0
 20
0.0
 11
12.0
 21
9.0
 12
0.0
 22
0.0
 32
0.0
 14
1.000000000000000E+20
 24
1.000000000000000E+20
 34
1.000000000000000E+20
 15
-1.000000000000000E+20
 25
-1.000000000000000E+20
 35
-1.000000000000000E+20
146
0.0
 13
0.0
 23
0.0
 33
0.0
 16
1.0
 26
0.0
 36
0.0
 17
0.0
 27
1.0
 37
0.0
 76
     0
330
1B
  0
LAYOUT
  5
26
102
{ACAD_REACTORS
330
1A
102
}
330
1A
100
AcDbPlotSettings
  1

  2
none_device
  4

  6

 40
0.0
 41
0.0
 42
0.0
 43
0.0
 44
0.0
 45
0.0
 46
0.0
 47
0.0
 48
0.0
 49
0.0
140
0.0
141
0.0
142
1.0
143
1.0
 70
   688
 72
     0
 73
     0
 74
     5
  7

 75
    16
 76
     0
 77
     2
 78
   300
147
1.0
148
0.0
149
0.0
100
AcDbLayout
  1
Layout2
 70
     1
 71
     2
 10
0.0
 20
0.0
 11
0.0
 21
0.0
 12
0.0
 22
0.0
 32
0.0
 14
0.0
 24
0.0
 34
0.0
 15
0.0
 25
0.0
 35
0.0
146
0.0
 13
0.0
 23
0.0
 33
0.0
 16
1.0
 26
0.0
 36
0.0
 17
0.0
 27
1.0
 37
0.0
 76
     0
330
23
  0
LAYOUT
  5
22
102
{ACAD_REACTORS
330
1A
102
}
330
1A
100
AcDbPlotSettings
  1

  2
none_device
  4

  6

 40
0.0
 41
0.0
 42
0.0
 43
0.0
 44
0.0
 45
0.0
 46
0.0
 47
0.0
 48
0.0
 49
0.0
140
0.0
141
0.0
142
1.0
143
1.0
 70
  1712
 72
     0
 73
     0
 74
     0
  7

 75
     0
 76
     0
 77
     2
 78
   300
147
1.0
148
0.0
149
0.0
100
AcDbLayout
  1
Model
 70
     1
 71
     0
 10
0.0
 20
0.0
 11
12.0
 21
9.0
 12
0.0
 22
0.0
 32
0.0
 14
1.000000000000000E+20
 24
1.000000000000000E+20
 34
1.000000000000000E+20
 15
-1.000000000000000E+20
 25
-1.000000000000000E+20
 35
-1.000000000000000E+20
146
0.0
 13
0.0
 23
0.0
 33
0.0
 16
1.0
 26
0.0
 36
0.0
 17
0.0
 27
1.0
 37
0.0
 76
     0
330
1F
331
29
  0
MATERIAL
  5
3D
102
{ACAD_REACTORS
330
3B
102
}
330
3B
100
AcDbMaterial
  1
ByBlock
 72
     1
 94
      127
  0
MATERIAL
  5
3C
102
{ACAD_REACTORS
330
3B
102
}
330
3B
100
AcDbMaterial
  1
ByLayer
 72
     1
 94
      127
  0
MATERIAL
  5
3E
102
{ACAD_REACTORS
330
3B
102
}
330
3B
100
AcDbMaterial
  1
Global
 72
     1
 94
      127
  0
MLINESTYLE
  5
18
102
{ACAD_REACTORS
330
17
102
}
330
17
100
AcDbMlineStyle
  2
Standard
 70
     0
  3

 62
   256
 51
90.0
 52
90.0
 71
     2
 49
0.5
 62
   256
  6
BYLAYER
 49
-0.5
 62
   256
  6
BYLAYER
  0
ACDBPLACEHOLDER
  5
F
102
{ACAD_REACTORS
330
E
102
}
330
E
  0
VISUALSTYLE
  5
2F
102
{ACAD_REACTORS
330
2A
102
}
330
2A
100
AcDbVisualStyle
  2
2dWireframe
 70
     4
177
     2
291
     0
 71
     0
176
     1
 72
     2
176
     1
 73
     0
176
     1
 90
        0
176
     1
 40
-0.6
176
     1
 41
-30.0
176
     1
 62
     5
 63
     7
421
 16777215
176
     1
 74
     1
176
     1
 91
        4
176
     1
 64
     7
176
     1
 65
   257
176
     1
 75
     1
176
     1
175
     1
176
     1
 42
1.0
176
     1
 92
        0
176
     1
 66
   257
176
     1
 43
1.0
176
     1
 76
     1
176
     1
 77
     6
176
     1
 78
     2
176
     1
 67
     7
176
     1
 79
     5
176
     1
170
     0
176
     1
171
     0
176
     1
290
     0
176
     1
 93
        1
176
     1
 44
0.0
176
     1
173
     0
176
     1
  0
VISUALSTYLE
  5
31
102
{ACAD_REACTORS
330
2A
102
}
330
2A
100
AcDbVisualStyle
  2
3D Hidden
 70
     6
177
     2
291
     0
 71
     1
176
     1
 72
     2
176
     1
 73
     2
176
     1
 90
        0
176
     1
 40
-0.6
176
     1
 41
-30.0
176
     1
 62
     5
 63
     7
421
 16777215
176
     1
 74
     2
176
     1
 91
        2
176
     1
 64
     7
176
     1
 65
   257
176
     1
 75
     2
176
     1
175
     1
176
     1
 42
40.0
176
     1
 92
        0
176
     1
 66
   257
176
     1
 43
1.0
176
     1
 76
     1
176
     1
 77
     6
176
     1
 78
     2
176
     1
 67
     7
176
     1
 79
     3
176
     1
170
     0
176
     1
171
     0
176
     1
290
     0
176
     1
 93
        1
176
     1
 44
0.0
176
     1
173
     0
176
     1
  0
VISUALSTYLE
  5
30
102
{ACAD_REACTORS
330
2A
102
}
330
2A
100
AcDbVisualStyle
  2
3dWireframe
 70
     5
177
     2
291
     0
 71
     0
176
     1
 72
     2
176
     1
 73
     0
176
     1
 90
        0
176
     1
 40
-0.6
176
     1
 41
-30.0
176
     1
 62
     5
 63
     7
421
 16777215
176
     1
 74
     1
176
     1
 91
        4
176
     1
 64
     7
176
     1
 65
   257
176
     1
 75
     1
176
     1
175
     1
176
     1
 42
1.0
176
     1
 92
        0
176
     1
 66
   257
176
     1
 43
1.0
176
     1
 76
     1
176
     1
 77
     6
176
     1
 78
     2
176
     1
 67
     7
176
     1
 79
     5
176
     1
170
     0
176
     1
171
     0
176
     1
290
     0
176
     1
 93
        1
176
     1
 44
0.0
176
     1
173
     0
176
     1
  0
VISUALSTYLE
  5
32
102
{ACAD_REACTORS
330
2A
102
}
330
2A
100
AcDbVisualStyle
  2
Basic
 70
     7
177
     2
291
     1
 71
     1
176
     1
 72
     0
176
     1
 73
     1
176
     1
 90
        0
176
     1
 40
-0.6
176
     1
 41
-30.0
176
     1
 62
     5
 63
     7
421
 16777215
176
     1
 74
     0
176
     1
 91
        4
176
     1
 64
     7
176
     1
 65
   257
176
     1
 75
     1
176
     1
175
     1
176
     1
 42
1.0
176
     1
 92
        8
176
     1
 66
     7
176
     1
 43
1.0
176
     1
 76
     1
176
     1
 77
     6
176
     1
 78
     2
176
     1
 67
     7
176
     1
 79
     5
176
     1
170
     0
176
     1
171
     0
176
     1
290
     0
176
     1
 93
        1
176
     1
 44
0.0
176
     1
173
     0
176
     1
  0
VISUALSTYLE
  5
36
102
{ACAD_REACTORS
330
2A
102
}
330
2A
100
AcDbVisualStyle
  2
Brighten
 70
    12
177
     2
291
     1
 71
     2
176
     1
 72
     2
176
     1
 73
     0
176
     1
 90
        0
176
     1
 40
-0.6
176
     1
 41
-30.0
176
     1
 62
     5
 63
     7
421
 16777215
176
     1
 74
     1
176
     1
 91
        4
176
     1
 64
     7
176
     1
 65
   257
176
     1
 75
     1
176
     1
175
     1
176
     1
 42
1.0
176
     1
 92
        8
176
     1
 66
     7
176
     1
 43
1.0
176
     1
 76
     1
176
     1
 77
     6
176
     1
 78
     2
176
     1
 67
     7
176
     1
 79
     5
176
     1
170
     0
176
     1
171
     0
176
     1
290
     0
176
     1
 93
        1
176
     1
 44
50.0
176
     1
173
     0
176
     1
  0
VISUALSTYLE
  5
3A
102
{ACAD_REACTORS
330
2A
102
}
330
2A
100
AcDbVisualStyle
  2
ColorChange
 70
    16
177
     2
291
     1
 71
     2
176
     1
 72
     2
176
     1
 73
     3
176
     1
 90
        0
176
     1
 40
-0.6
176
     1
 41
-30.0
176
     1
 62
     5
 63
     8
421
  8421504
176
     1
 74
     1
176
     1
 91
        4
176
     1
 64
     7
176
     1
 65
   257
176
     1
 75
     1
176
     1
175
     1
176
     1
 42
1.0
176
     1
 92
        8
176
     1
 66
     8
424
  8421504
176
     1
 43
1.0
176
     1
 76
     1
176
     1
 77
     6
176
     1
 78
     2
176
     1
 67
     7
176
     1
 79
     5
176
     1
170
     0
176
     1
171
     0
176
     1
290
     0
176
     1
 93
        1
176
     1
 44
0.0
176
     1
173
     0
176
     1
  0
VISUALSTYLE
  5
34
102
{ACAD_REACTORS
330
2A
102
}
330
2A
100
AcDbVisualStyle
  2
Conceptual
 70
     9
177
     2
291
     0
 71
     3
176
     1
 72
     2
176
     1
 73
     0
176
     1
 90
        0
176
     1
 40
-0.6
176
     1
 41
-30.0
176
     1
 62
     5
 63
     7
421
 16777215
176
     1
 74
     2
176
     1
 91
        2
176
     1
 64
     7
176
     1
 65
   257
176
     1
 75
     1
176
     1
175
     1
176
     1
 42
40.0
176
     1
 92
        8
176
     1
 66
     7
176
     1
 43
1.0
176
     1
 76
     1
176
     1
 77
     6
176
     1
 78
     2
176
     1
 67
     7
176
     1
 79
     3
176
     1
170
     0
176
     1
171
     0
176
     1
290
     0
176
     1
 93
        1
176
     1
 44
0.0
176
     1
173
     0
176
     1
  0
VISUALSTYLE
  5
35
102
{ACAD_REACTORS
330
2A
102
}
330
2A
100
AcDbVisualStyle
  2
Dim
 70
    11
177
     2
291
     1
 71
     2
176
     1
 72
     2
176
     1
 73
     0
176
     1
 90
        0
176
     1
 40
-0.6
176
     1
 41
-30.0
176
     1
 62
     5
 63
     7
421
 16777215
176
     1
 74
     1
176
     1
 91
        4
176
     1
 64
     7
176
     1
 65
   257
176
     1
 75
     1
176
     1
175
     1
176
     1
 42
1.0
176
     1
 92
        8
176
     1
 66
     7
176
     1
 43
1.0
176
     1
 76
     1
176
     1
 77
     6
176
     1
 78
     2
176
     1
 67
     7
176
     1
 79
     5
176
     1
170
     0
176
     1
171
     0
176
     1
290
     0
176
     1
 93
        1
176
     1
 44
-50.0
176
     1
173
     0
176
     1
  0
VISUALSTYLE
  5
39
102
{ACAD_REACTORS
330
2A
102
}
330
2A
100
AcDbVisualStyle
  2
Facepattern
 70
    15
177
     2
291
     1
 71
     2
176
     1
 72
     2
176
     1
 73
     0
176
     1
 90
        0
176
     1
 40
-0.6
176
     1
 41
-30.0
176
     1
 62
     5
 63
     7
421
 16777215
176
     1
 74
     1
176
     1
 91
        4
176
     1
 64
     7
176
     1
 65
   257
176
     1
 75
     1
176
     1
175
     1
176
     1
 42
1.0
176
     1
 92
        8
176
     1
 66
     7
176
     1
 43
1.0
176
     1
 76
     1
176
     1
 77
     6
176
     1
 78
     2
176
     1
 67
     7
176
     1
 79
     5
176
     1
170
     0
176
     1
171
     0
176
     1
290
     0
176
     1
 93
        1
176
     1
 44
0.0
176
     1
173
     0
176
     1
  0
VISUALSTYLE
  5
2B
102
{ACAD_REACTORS
330
2A
102
}
330
2A
100
AcDbVisualStyle
  2
Flat
 70
     0
177
     2
291
     1
 71
     2
176
     1
 72
     1
176
     1
 73
     1
176
     1
 90
        2
176
     1
 40
-0.6
176
     1
 41
30.0
176
     1
 62
     5
 63
     7
421
 16777215
176
     1
 74
     0
176
     1
 91
        4
176
     1
 64
     7
176
     1
 65
   257
176
     1
 75
     1
176
     1
175
     1
176
     1
 42
1.0
176
     1
 92
        8
176
     1
 66
     7
176
     1
 43
1.0
176
     1
 76
     1
176
     1
 77
     6
176
     1
 78
     2
176
     1
 67
     7
176
     1
 79
     5
176
     1
170
     0
176
     1
171
     0
176
     1
290
     0
176
     1
 93
       13
176
     1
 44
0.0
176
     1
173
     0
176
     1
  0
VISUALSTYLE
  5
2C
102
{ACAD_REACTORS
330
2A
102
}
330
2A
100
AcDbVisualStyle
  2
FlatWithEdges
 70
     1
177
     2
291
     1
 71
     2
176
     1
 72
     1
176
     1
 73
     1
176
     1
 90
        2
176
     1
 40
-0.6
176
     1
 41
30.0
176
     1
 62
     5
 63
     7
421
 16777215
176
     1
 74
     1
176
     1
 91
        4
176
     1
 64
     7
176
     1
 65
   257
176
     1
 75
     1
176
     1
175
     1
176
     1
 42
1.0
176
     1
 92
        0
176
     1
 66
   257
176
     1
 43
1.0
176
     1
 76
     1
176
     1
 77
     6
176
     1
 78
     2
176
     1
 67
     7
176
     1
 79
     5
176
     1
170
     0
176
     1
171
     0
176
     1
290
     0
176
     1
 93
       13
176
     1
 44
0.0
176
     1
173
     0
176
     1
  0
VISUALSTYLE
  5
2D
102
{ACAD_REACTORS
330
2A
102
}
330
2A
100
AcDbVisualStyle
  2
Gouraud
 70
     2
177
     2
291
     1
 71
     2
176
     1
 72
     2
176
     1
 73
     1
176
     1
 90
        2
176
     1
 40
-0.6
176
     1
 41
30.0
176
     1
 62
     5
 63
     7
421
 16777215
176
     1
 74
     0
176
     1
 91
        4
176
     1
 64
     7
176
     1
 65
   257
176
     1
 75
     1
176
     1
175
     1
176
     1
 42
1.0
176
     1
 92
        0
176
     1
 66
     7
176
     1
 43
1.0
176
     1
 76
     1
176
     1
 77
     6
176
     1
 78
     2
176
     1
 67
     7
176
     1
 79
     5
176
     1
170
     0
176
     1
171
     0
176
     1
290
     0
176
     1
 93
       13
176
     1
 44
0.0
176
     1
173
     0
176
     1
  0
VISUALSTYLE
  5
2E
102
{ACAD_REACTORS
330
2A
102
}
330
2A
100
AcDbVisualStyle
  2
GouraudWithEdges
 70
     3
177
     2
291
     1
 71
     2
176
     1
 72
     2
176
     1
 73
     1
176
     1
 90
        2
176
     1
 40
-0.6
176
     1
 41
30.0
176
     1
 62
     5
 63
     7
421
 16777215
176
     1
 74
     1
176
     1
 91
        4
176
     1
 64
     7
176
     1
 65
   257
176
     1
 75
     1
176
     1
175
     1
176
     1
 42
1.0
176
     1
 92
        0
176
     1
 66
   257
176
     1
 43
1.0
176
     1
 76
     1
176
     1
 77
     6
176
     1
 78
     2
176
     1
 67
     7
176
     1
 79
     5
176
     1
170
     0
176
     1
171
     0
176
     1
290
     0
176
     1
 93
       13
176
     1
 44
0.0
176
     1
173
     0
176
     1
  0
VISUALSTYLE
  5
38
102
{ACAD_REACTORS
330
2A
102
}
330
2A
100
AcDbVisualStyle
  2
Linepattern
 70
    14
177
     2
291
     1
 71
     2
176
     1
 72
     2
176
     1
 73
     0
176
     1
 90
        0
176
     1
 40
-0.6
176
     1
 41
-30.0
176
     1
 62
     5
 63
     7
421
 16777215
176
     1
 74
     1
176
     1
 91
        4
176
     1
 64
     7
176
     1
 65
   257
176
     1
 75
     7
176
     1
175
     7
176
     1
 42
1.0
176
     1
 92
        8
176
     1
 66
     7
176
     1
 43
1.0
176
     1
 76
     1
176
     1
 77
     6
176
     1
 78
     2
176
     1
 67
     7
176
     1
 79
     5
176
     1
170
     0
176
     1
171
     0
176
     1
290
     0
176
     1
 93
        1
176
     1
 44
0.0
176
     1
173
     0
176
     1
  0
VISUALSTYLE
  5
33
102
{ACAD_REACTORS
330
2A
102
}
330
2A
100
AcDbVisualStyle
  2
Realistic
 70
     8
177
     2
291
     0
 71
     2
176
     1
 72
     2
176
     1
 73
     0
176
     1
 90
        0
176
     1
 40
-0.6
176
     1
 41
-30.0
176
     1
 62
     5
 63
     7
421
 16777215
176
     1
 74
     1
176
     1
 91
        0
176
     1
 64
     7
176
     1
 65
   257
176
     1
 75
     1
176
     1
175
     1
176
     1
 42
1.0
176
     1
 92
        8
176
     1
 66
     8
424
  7895160
176
     1
 43
1.0
176
     1
 76
     1
176
     1
 77
     6
176
     1
 78
     2
176
     1
 67
     7
176
     1
 79
     5
176
     1
170
     0
176
     1
171
     0
176
     1
290
     0
176
     1
 93
       13
176
     1
 44
0.0
176
     1
173
     0
176
     1
  0
VISUALSTYLE
  5
37
102
{ACAD_REACTORS
330
2A
102
}
330
2A
100
AcDbVisualStyle
  2
Thicken
 70
    13
177
     2
291
     1
 71
     2
176
     1
 72
     2
176
     1
 73
     0
176
     1
 90
        0
176
     1
 40
-0.6
176
     1
 41
-30.0
176
     1
 62
     5
 63
     7
421
 16777215
176
     1
 74
     1
176
     1
 91
        4
176
     1
 64
     7
176
     1
 65
   257
176
     1
 75
     1
176
     1
175
     1
176
     1
 42
1.0
176
     1
 92
       12
176
     1
 66
     7
176
     1
 43
1.0
176
     1
 76
     1
176
     1
 77
     6
176
     1
 78
     2
176
     1
 67
     7
176
     1
 79
     5
176
     1
170
     0
176
     1
171
     0
176
     1
290
     0
176
     1
 93
        1
176
     1
 44
0.0
176
     1
173
     0
176
     1
  0
ENDSEC
  0
EOF
