  0
SECTION
  2
HEADER
  9
$ACADVER
  1
AC1009
  9
$DWGCODEPAGE
  3
ansi_1252
  9
$INSBASE
 10
0.0
 20
0.0
 30
0.0
  9
$EXTMIN
 10
0.010584047436481
 20
-0.0052086342184567
 30
0.0
  9
$EXTMAX
 10
15.06818783582981
 20
5.352550747988615
 30
0.0
  9
$LIMMIN
 10
0.0
 20
0.0
  9
$LIMMAX
 10
420.0
 20
297.0
  9
$ORTHOMODE
 70
     0
  9
$REGENMODE
 70
     1
  9
$FILLMODE
 70
     1
  9
$QTEXTMODE
 70
     0
  9
$MIRRTEXT
 70
     0
  9
$DRAGMODE
 70
     2
  9
$LTSCALE
 40
1.0
  9
$OSMODE
 70
    37
  9
$ATTMODE
 70
     1
  9
$TEXTSIZE
 40
2.5
  9
$TRACEWID
 40
1.0
  9
$TEXTSTYLE
  7
STANDARD
  9
$CLAYER
  8
1
  9
$CELTYPE
  6
BYLAYER
  9
$CECOLOR
 62
   256
  9
$DIMSCALE
 40
1.0
  9
$DIMASZ
 40
2.5
  9
$DIMEXO
 40
0.625
  9
$DIMDLI
 40
3.75
  9
$DIMRND
 40
0.0
  9
$DIMDLE
 40
0.0
  9
$DIMEXE
 40
1.25
  9
$DIMTP
 40
0.0
  9
$DIMTM
 40
0.0
  9
$DIMTXT
 40
2.5
  9
$DIMCEN
 40
2.5
  9
$DIMTSZ
 40
0.0
  9
$DIMTOL
 70
     0
  9
$DIMLIM
 70
     0
  9
$DIMTIH
 70
     0
  9
$DIMTOH
 70
     0
  9
$DIMSE1
 70
     0
  9
$DIMSE2
 70
     0
  9
$DIMTAD
 70
     1
  9
$DIMZIN
 70
     8
  9
$DIMBLK
  1

  9
$DIMASO
 70
     1
  9
$DIMSHO
 70
     1
  9
$DIMPOST
  1

  9
$DIMAPOST
  1

  9
$DIMALT
 70
     0
  9
$DIMALTD
 70
     3
  9
$DIMALTF
 40
0.03937007874016
  9
$DIMLFAC
 40
1.0
  9
$DIMTOFL
 70
     1
  9
$DIMTVP
 40
0.0
  9
$DIMTIX
 70
     0
  9
$DIMSOXD
 70
     0
  9
$DIMSAH
 70
     0
  9
$DIMBLK1
  1

  9
$DIMBLK2
  1

  9
$DIMSTYLE
  2
ISO-25
  9
$DIMCLRD
 70
     0
  9
$DIMCLRE
 70
     0
  9
$DIMCLRT
 70
     0
  9
$DIMTFAC
 40
1.0
  9
$DIMGAP
 40
0.625
  9
$LUNITS
 70
     2
  9
$LUPREC
 70
     4
  9
$SKETCHINC
 40
1.0
  9
$FILLETRAD
 40
0.0
  9
$AUNITS
 70
     0
  9
$AUPREC
 70
     0
  9
$MENU
  1
.
  9
$ELEVATION
 40
0.0
  9
$PELEVATION
 40
0.0
  9
$THICKNESS
 40
0.0
  9
$LIMCHECK
 70
     0
  9
$CHAMFERA
 40
0.0
  9
$CHAMFERB
 40
0.0
  9
$SKPOLY
 70
     0
  9
$TDCREATE
 40
2453353.550459155
  9
$TDUPDATE
 40
2440713.907299259
  9
$TDINDWG
 40
4881704.058228148
  9
$TDUSRTIMER
 40
4881704.058228148
  9
$USRTIMER
 70
     1
  9
$ANGBASE
 50
0.0
  9
$ANGDIR
 70
     0
  9
$PDMODE
 70
     0
  9
$PDSIZE
 40
0.0
  9
$PLINEWID
 40
0.0
  9
$COORDS
 70
     1
  9
$SPLFRAME
 70
     0
  9
$SPLINETYPE
 70
     6
  9
$SPLINESEGS
 70
     8
  9
$ATTDIA
 70
     0
  9
$ATTREQ
 70
     1
  9
$HANDLING
 70
     1
  9
$HANDSEED
  5
865
  9
$SURFTAB1
 70
     6
  9
$SURFTAB2
 70
     6
  9
$SURFTYPE
 70
     6
  9
$SURFU
 70
     6
  9
$SURFV
 70
     6
  9
$UCSNAME
  2

  9
$UCSORG
 10
0.0
 20
0.0
 30
0.0
  9
$UCSXDIR
 10
1.0
 20
0.0
 30
0.0
  9
$UCSYDIR
 10
0.0
 20
1.0
 30
0.0
  9
$PUCSNAME
  2

  9
$PUCSORG
 10
0.0
 20
0.0
 30
0.0
  9
$PUCSXDIR
 10
1.0
 20
0.0
 30
0.0
  9
$PUCSYDIR
 10
0.0
 20
1.0
 30
0.0
  9
$USERI1
 70
     0
  9
$USERI2
 70
     0
  9
$USERI3
 70
     0
  9
$USERI4
 70
     0
  9
$USERI5
 70
     0
  9
$USERR1
 40
0.0
  9
$USERR2
 40
0.0
  9
$USERR3
 40
0.0
  9
$USERR4
 40
0.0
  9
$USERR5
 40
0.0
  9
$WORLDVIEW
 70
     1
  9
$SHADEDGE
 70
     3
  9
$SHADEDIF
 70
    70
  9
$TILEMODE
 70
     1
  9
$MAXACTVP
 70
    64
  9
$PLIMCHECK
 70
     0
  9
$PEXTMIN
 10
0.0
 20
0.0
 30
0.0
  9
$PEXTMAX
 10
0.0
 20
0.0
 30
0.0
  9
$PLIMMIN
 10
0.0
 20
0.0
  9
$PLIMMAX
 10
420.0
 20
297.0
  9
$UNITMODE
 70
     0
  9
$VISRETAIN
 70
     1
  9
$PLINEGEN
 70
     0
  9
$PSLTSCALE
 70
     1
  0
ENDSEC
  0
SECTION
  2
TABLES
  0
TABLE
  2
VPORT
 70
     1
  0
VPORT
  2
*ACTIVE
 70
     0
 10
0.0
 20
0.0
 11
1.0
 21
1.0
 12
7.684923107068729
 22
2.802638150282012
 13
0.0
 23
0.0
 14
10.0
 24
10.0
 15
10.0
 25
10.0
 16
0.0
 26
0.0
 36
1.0
 17
0.0
 27
0.0
 37
0.0
 40
6.81777806046248
 41
1.664827586206897
 42
50.0
 43
0.0
 44
0.0
 50
0.0
 51
0.0
 71
    16
 72
  1000
 73
     1
 74
     1
 75
     0
 76
     0
 77
     0
 78
     0
  0
ENDTAB
  0
TABLE
  2
LTYPE
 70
     1
  0
LTYPE
  2
CONTINUOUS
 70
     0
  3
Solid line
 72
    65
 73
     0
 40
0.0
  0
ENDTAB
  0
TABLE
  2
LAYER
 70
     3
  0
LAYER
  2
0
 70
     0
 62
     7
  6
CONTINUOUS
  0
LAYER
  2
2
 70
     0
 62
     7
  6
CONTINUOUS
  0
LAYER
  2
1
 70
     0
 62
     7
  6
CONTINUOUS
  0
ENDTAB
  0
TABLE
  2
STYLE
 70
     1
  0
STYLE
  2
STANDARD
 70
     0
 40
0.0
 41
1.0
 50
0.0
 71
     0
 42
2.5
  3
txt
  4

  0
ENDTAB
  0
TABLE
  2
VIEW
 70
     0
  0
ENDTAB
  0
TABLE
  2
UCS
 70
     0
  0
ENDTAB
  0
TABLE
  2
APPID
 70
     1
  0
APPID
  2
ACAD
 70
     0
  0
ENDTAB
  0
TABLE
  2
DIMSTYLE
 70
     2
  0
DIMSTYLE
  2
STANDARD
 70
     0
  3

  4

  5

  6

  7

 40
1.0
 41
0.18
 42
0.0625
 43
0.38
 44
0.18
 45
0.0
 46
0.0
 47
0.0
 48
0.0
140
0.18
141
0.09
142
0.0
143
25.4
144
1.0
145
0.0
146
1.0
147
0.09
 71
     0
 72
     0
 73
     1
 74
     1
 75
     0
 76
     0
 77
     0
 78
     0
170
     0
171
     2
172
     0
173
     0
174
     0
175
     0
176
     0
177
     0
178
     0
  0
DIMSTYLE
  2
ISO-25
 70
     0
  3

  4

  5

  6

  7

 40
1.0
 41
2.5
 42
0.625
 43
3.75
 44
1.25
 45
0.0
 46
0.0
 47
0.0
 48
0.0
140
2.5
141
2.5
142
0.0
143
0.03937007874016
144
1.0
145
0.0
146
1.0
147
0.625
 71
     0
 72
     0
 73
     0
 74
     0
 75
     0
 76
     0
 77
     1
 78
     8
170
     0
171
     3
172
     1
173
     0
174
     0
175
     0
176
     0
177
     0
178
     0
  0
ENDTAB
  0
ENDSEC
  0
SECTION
  2
BLOCKS
  0
BLOCK
  8
0
  2
$MODEL_SPACE
 70
     0
 10
0.0
 20
0.0
 30
0.0
  3
$MODEL_SPACE
  1

  0
ENDBLK
  5
21
  8
0
  0
BLOCK
 67
     1
  8
0
  2
$PAPER_SPACE
 70
     0
 10
0.0
 20
0.0
 30
0.0
  3
$PAPER_SPACE
  1

  0
ENDBLK
  5
76
 67
     1
  8
0
  0
ENDSEC
  0
SECTION
  2
ENTITIES
  0
LINE
  5
5F5
  8
2
 62
     4
 10
13.90948562862291
 20
3.006402966197088
 30
0.0
 11
13.90921136919789
 21
2.91538274682145
 31
0.0
  0
LINE
  5
5F6
  8
2
 62
     4
 10
14.00077040038214
 20
2.915187626227345
 30
0.0
 11
13.90921136919789
 21
2.91538274682145
 31
0.0
  0
ARC
  5
5F7
  8
2
 62
     4
 10
13.63517206752074
 20
4.477379778636505
 30
0.0
 40
1.049510635230631
 50
325.5567005082432
 51
56.38270740451475
  0
ARC
  5
5F8
  8
2
 62
     4
 10
12.97919222689397
 20
4.680144826068375
 30
0.0
 40
1.392646128002455
 50
325.7390449178382
 51
28.40078362843942
  0
LINE
  5
5F9
  8
2
 62
     4
 10
14.00131292864215
 20
3.010882346685832
 30
0.0
 11
14.00077040038214
 21
2.915187626227349
 31
0.0
  0
ARC
  5
5FA
  8
2
 62
     4
 10
14.21176633304052
 20
5.344853763502961
 30
0.0
 40
0.0078914794350456
 50
55.58740334873093
 51
197.0662485555165
  0
LINE
  5
5FB
  8
2
 62
     4
 10
12.95313789427621
 20
3.015361727174575
 30
0.0
 11
12.95573601165576
 21
2.91538274682145
 31
0.0
  0
LINE
  5
5FC
  8
2
 62
     4
 10
13.04720488453982
 20
3.015361727174575
 30
0.0
 11
13.04729504284002
 21
2.915187626227349
 31
0.0
  0
LINE
  5
5FD
  8
2
 62
     4
 10
13.43243160657175
 20
3.015361727174575
 30
0.0
 11
13.43145484093481
 21
2.91538274682145
 31
0.0
  0
LINE
  5
5FE
  8
2
 62
     4
 10
13.52301387211907
 20
2.915187626227345
 30
0.0
 11
13.43145484093481
 21
2.91538274682145
 31
0.0
  0
ARC
  5
5FF
  8
2
 62
     4
 10
13.15819797873449
 20
4.477901087201863
 30
0.0
 40
1.048643384088379
 50
325.3074641669043
 51
56.402538866383
  0
ARC
  5
600
  8
2
 62
     4
 10
12.53462301764113
 20
4.687730853982239
 30
0.0
 40
1.359875505316549
 50
324.8972647975437
 51
28.78470768018289
  0
LINE
  5
601
  8
2
 62
     4
 10
13.52201921634661
 20
3.010882346685832
 30
0.0
 11
13.52301387211907
 21
2.915187626227349
 31
0.0
  0
ARC
  5
602
  8
2
 62
     4
 10
13.73400980477744
 20
5.344853763502961
 30
0.0
 40
0.0078914794350436
 50
55.58740334875221
 51
197.0662485555378
  0
LINE
  5
603
  8
2
 62
     4
 10
13.04729504284002
 20
2.915187626227345
 30
0.0
 11
12.95573601165576
 21
2.91538274682145
 31
0.0
  0
ARC
  5
604
  8
2
 62
     4
 10
12.69461402817193
 20
4.485987519120924
 30
0.0
 40
1.03520825947843
 50
324.8939395524312
 51
56.71431236840231
  0
ARC
  5
605
  8
2
 62
     4
 10
12.05521813139596
 20
4.686889068012633
 30
0.0
 40
1.363511826529087
 50
325.118084215352
 51
28.74112634932441
  0
ARC
  5
606
  8
2
 62
     4
 10
13.2582909754984
 20
5.344853763502961
 30
0.0
 40
0.0078914794350446
 50
55.58740334874157
 51
197.0662485555272
  0
LINE
  5
607
  8
2
 62
     4
 10
12.48056325271378
 20
3.013122036930203
 30
0.0
 11
12.48127261466885
 21
2.91538274682145
 31
0.0
  0
LINE
  5
608
  8
2
 62
     4
 10
12.57283164585311
 20
2.915187626227345
 30
0.0
 11
12.48127261466885
 21
2.91538274682145
 31
0.0
  0
ARC
  5
609
  8
2
 62
     4
 10
12.20844123603286
 20
4.478184570120438
 30
0.0
 40
1.048171833502037
 50
325.3619842564795
 51
56.41333681151972
  0
ARC
  5
60A
  8
2
 62
     4
 10
11.57932933339202
 20
4.686563548741434
 30
0.0
 40
1.364918205426749
 50
325.3160964256965
 51
28.72433568037842
  0
LINE
  5
60B
  8
2
 62
     4
 10
12.57463024297739
 20
3.013122036930203
 30
0.0
 11
12.57283164585311
 21
2.915187626227349
 31
0.0
  0
ARC
  5
60C
  8
2
 62
     4
 10
12.78382757851149
 20
5.344853763502961
 30
0.0
 40
0.0078914794350456
 50
55.58740334873093
 51
197.0662485555165
  0
LINE
  5
60D
  8
2
 62
     4
 10
12.00574892090699
 20
3.01088234668583
 30
0.0
 11
12.00555378538981
 21
2.91538274682145
 31
0.0
  0
LINE
  5
60E
  8
2
 62
     4
 10
12.09711281657407
 20
2.915187626227345
 30
0.0
 11
12.00555378538981
 21
2.91538274682145
 31
0.0
  0
ARC
  5
60F
  8
2
 62
     4
 10
11.73444394112277
 20
4.479331560576145
 30
0.0
 40
1.046264289845422
 50
325.3047903091562
 51
56.45712535337596
  0
ARC
  5
610
  8
2
 62
     4
 10
11.09954070269845
 20
4.685634126933435
 30
0.0
 40
1.368934337512704
 50
325.3400333856874
 51
28.67658489829733
  0
LINE
  5
611
  8
2
 62
     4
 10
12.09757622092623
 20
3.013122036930202
 30
0.0
 11
12.09711281657407
 21
2.915187626227349
 31
0.0
  0
ARC
  5
612
  8
2
 62
     4
 10
12.30810874923244
 20
5.344853763502965
 30
0.0
 40
0.0078914794350407
 50
55.58740334873763
 51
197.0662485555232
  0
LINE
  5
613
  8
2
 62
     4
 10
11.53093458910019
 20
3.013122036930202
 30
0.0
 11
11.53292342781326
 21
2.91538274682145
 31
0.0
  0
LINE
  5
614
  8
2
 62
     4
 10
11.62448245899752
 20
2.915187626227345
 30
0.0
 11
11.53292342781326
 21
2.91538274682145
 31
0.0
  0
ARC
  5
615
  8
2
 62
     4
 10
11.2529238200631
 20
4.473384983200123
 30
0.0
 40
1.056140783930808
 50
325.4342017016928
 51
56.23342282030562
  0
ARC
  5
616
  8
2
 62
     4
 10
10.60812975729564
 20
4.681335346834569
 30
0.0
 40
1.387484073751164
 50
325.7400490910829
 51
28.46017337231752
  0
LINE
  5
617
  8
2
 62
     4
 10
11.6250015793638
 20
3.01088234668583
 30
0.0
 11
11.62448245899752
 21
2.915187626227349
 31
0.0
  0
ARC
  5
618
  8
2
 62
     4
 10
11.8354783916559
 20
5.344853763502965
 30
0.0
 40
0.0078914794350417
 50
55.58740334872699
 51
197.0662485555126
  0
LINE
  5
619
  8
2
 62
     4
 10
11.0561202572934
 20
3.015361727174573
 30
0.0
 11
11.05720459853422
 21
2.91538274682145
 31
0.0
  0
LINE
  5
61A
  8
2
 62
     4
 10
11.14876362971847
 20
2.915187626227345
 30
0.0
 11
11.05720459853422
 21
2.91538274682145
 31
0.0
  0
ARC
  5
61B
  8
2
 62
     4
 10
10.78303925530678
 20
4.477295802122407
 30
0.0
 40
1.049650350663107
 50
325.4766242150776
 51
56.37951586027302
  0
ARC
  5
61C
  8
2
 62
     4
 10
10.13616012146306
 20
4.682176619776713
 30
0.0
 40
1.383787465062979
 50
325.4556799192971
 51
28.50352718436356
  0
LINE
  5
61D
  8
2
 62
     4
 10
11.14794755731264
 20
3.01088234668583
 30
0.0
 11
11.14876362971847
 21
2.915187626227349
 31
0.0
  0
ARC
  5
61E
  8
2
 62
     4
 10
11.35975956237685
 20
5.344853763502965
 30
0.0
 40
0.0078914794350417
 50
55.58740334872699
 51
197.0662485555126
  0
LINE
  5
61F
  8
2
 62
     4
 10
10.58354561573097
 20
3.017601417418945
 30
0.0
 11
10.58274120154731
 21
2.91538274682145
 31
0.0
  0
LINE
  5
620
  8
2
 62
     4
 10
10.67430023273157
 20
2.915187626227345
 30
0.0
 11
10.58274120154731
 21
2.91538274682145
 31
0.0
  0
ARC
  5
621
  8
2
 62
     4
 10
10.31237146365567
 20
4.479824664265562
 30
0.0
 40
1.045444404375512
 50
325.1491978613034
 51
56.47599963538407
  0
ARC
  5
622
  8
2
 62
     4
 10
9.677495978302446
 20
4.68580948323276
 30
0.0
 40
1.36817653139033
 50
325.5185607958754
 51
28.6855726992023
  0
LINE
  5
623
  8
2
 62
     4
 10
10.67761260599458
 20
3.015361727174573
 30
0.0
 11
10.67430023273157
 21
2.915187626227349
 31
0.0
  0
ARC
  5
624
  8
2
 62
     4
 10
10.88529616538995
 20
5.344853763502965
 30
0.0
 40
0.0078914794350417
 50
55.58740334872699
 51
197.0662485555126
  0
LINE
  5
625
  8
2
 62
     4
 10
10.10873128392418
 20
3.015361727174572
 30
0.0
 11
10.10702237226826
 21
2.915382746821451
 31
0.0
  0
LINE
  5
626
  8
2
 62
     4
 10
10.19858140345252
 20
2.915187626227346
 30
0.0
 11
10.10702237226826
 21
2.915382746821451
 31
0.0
  0
ARC
  5
627
  8
2
 62
     4
 10
9.839031883621193
 20
4.481409864203754
 30
0.0
 40
1.042809457235637
 50
325.2178449830001
 51
56.53687656634286
  0
ARC
  5
628
  8
2
 62
     4
 10
9.181286546027845
 20
4.681130037888043
 30
0.0
 40
1.388410234094129
 50
325.3643971828557
 51
28.44909374659401
  0
LINE
  5
629
  8
2
 62
     4
 10
10.20055858394342
 20
3.0131220369302
 30
0.0
 11
10.19858140345252
 21
2.91518762622735
 31
0.0
  0
ARC
  5
62A
  8
2
 62
     4
 10
10.4095773361109
 20
5.344853763502965
 30
0.0
 40
0.0078914794350407
 50
55.58740334873763
 51
197.0662485555232
  0
LINE
  5
62B
  8
2
 62
     4
 10
9.152383549577468
 20
3.015361727174572
 30
0.0
 11
9.15354701472614
 21
2.915382746821451
 31
0.0
  0
LINE
  5
62C
  8
2
 62
     4
 10
9.246450539841078
 20
3.006402966197085
 30
0.0
 11
9.245106045910399
 21
2.91518762622735
 31
0.0
  0
LINE
  5
62D
  8
2
 62
     4
 10
9.629437571628635
 20
3.006402966197085
 30
0.0
 11
9.629265844005188
 21
2.915382746821451
 31
0.0
  0
LINE
  5
62E
  8
2
 62
     4
 10
9.720824875189447
 20
2.915187626227346
 30
0.0
 11
9.629265844005188
 21
2.915382746821451
 31
0.0
  0
ARC
  5
62F
  8
2
 62
     4
 10
9.356151242029954
 20
4.477995869579336
 30
0.0
 40
1.048485717233292
 50
325.0211024246455
 51
56.40614807331998
  0
ARC
  5
630
  8
2
 62
     4
 10
8.728179356681052
 20
4.686759215041453
 30
0.0
 40
1.364072831427552
 50
325.1411573577966
 51
28.73442422857922
  0
LINE
  5
631
  8
2
 62
     4
 10
9.721264871647875
 20
3.0131220369302
 30
0.0
 11
9.720824875189447
 21
2.91518762622735
 31
0.0
  0
ARC
  5
632
  8
2
 62
     4
 10
9.931820807847824
 20
5.344853763502965
 30
0.0
 40
0.0078914794350417
 50
55.58740334872699
 51
197.0662485555126
  0
LINE
  5
633
  8
2
 62
     4
 10
9.245106045910399
 20
2.915187626227346
 30
0.0
 11
9.15354701472614
 21
2.915382746821451
 31
0.0
  0
ARC
  5
634
  8
2
 62
     4
 10
8.881127261395754
 20
4.478458819827774
 30
0.0
 40
1.047715677065649
 50
325.2352180032817
 51
56.42379231070939
  0
ARC
  5
635
  8
2
 62
     4
 10
8.25912762011315
 20
4.688280719436245
 30
0.0
 40
1.357496566913989
 50
324.9913026916369
 51
28.81339618955814
  0
ARC
  5
636
  8
2
 62
     4
 10
9.456101978568775
 20
5.344853763502965
 30
0.0
 40
0.0078914794350427
 50
55.58740334871635
 51
197.0662485555019
  0
LINE
  5
637
  8
2
 62
     4
 10
8.679808908015042
 20
3.017601417418943
 30
0.0
 11
8.679083617739234
 21
2.915382746821451
 31
0.0
  0
LINE
  5
638
  8
2
 62
     4
 10
8.770642648923491
 20
2.915187626227346
 30
0.0
 11
8.679083617739234
 21
2.915382746821451
 31
0.0
  0
ARC
  5
639
  8
2
 62
     4
 10
8.416550983677148
 20
4.485048006069433
 30
0.0
 40
1.036768037418299
 50
324.6575134141522
 51
56.6776388621177
  0
ARC
  5
63A
  8
2
 62
     4
 10
7.759057002469891
 20
4.682451186827619
 30
0.0
 40
1.382761975273781
 50
325.9333525336296
 51
28.51365617772305
  0
LINE
  5
63B
  8
2
 62
     4
 10
8.773875898278654
 20
3.006402966197085
 30
0.0
 11
8.770642648923491
 21
2.91518762622735
 31
0.0
  0
ARC
  5
63C
  8
2
 62
     4
 10
8.981638581581871
 20
5.344853763502965
 30
0.0
 40
0.0078914794350417
 50
55.58740334872699
 51
197.0662485555126
  0
LINE
  5
63D
  8
2
 62
     4
 10
8.199664323073716
 20
3.017113203851169
 30
0.0
 11
8.201347356940691
 21
2.914559612049124
 31
0.0
  0
LINE
  5
63E
  8
2
 62
     4
 10
8.297077556385386
 20
2.912682549314914
 30
0.0
 11
8.201347356940691
 21
2.914559612049124
 31
0.0
  0
ARC
  5
63F
  8
2
 62
     4
 10
7.931041309274959
 20
4.478515268372647
 30
0.0
 40
1.04761540405645
 50
325.2792993046269
 51
56.42647177747399
  0
ARC
  5
640
  8
2
 62
     4
 10
7.310645997325467
 20
4.688648383804867
 30
0.0
 40
1.355829400599044
 50
324.99237593767
 51
28.83441890977207
  0
LINE
  5
641
  8
2
 62
     4
 10
8.293600978496899
 20
3.013029001441465
 30
0.0
 11
8.297077556385386
 21
2.912682549314914
 31
0.0
  0
ARC
  5
642
  8
2
 62
     4
 10
8.505919752302823
 20
5.344853763502965
 30
0.0
 40
0.0078914794350417
 50
55.58740334872699
 51
197.0662485555126
  0
LINE
  5
643
  8
2
 62
     4
 10
3.913385683085732
 20
3.016715247685137
 30
0.0
 11
3.913883340377995
 21
2.915382746821452
 31
0.0
  0
LINE
  5
644
  8
2
 62
     4
 10
4.382193146030196
 20
3.02075669133121
 30
0.0
 11
4.384083019310162
 21
2.916815356422224
 31
0.0
  0
LINE
  5
645
  8
2
 62
     4
 10
7.715005637122224
 20
3.017113203851166
 30
0.0
 11
7.717065171514581
 21
2.916436674783334
 31
0.0
  0
LINE
  5
646
  8
2
 62
     4
 10
7.812795370959277
 20
2.916436674783334
 30
0.0
 11
7.717065171514581
 21
2.916436674783334
 31
0.0
  0
ARC
  5
647
  8
2
 62
     4
 10
7.453266509723899
 20
4.484863763535668
 30
0.0
 40
1.037072075559169
 50
324.8822618694086
 51
56.67061881276845
  0
ARC
  5
648
  8
2
 62
     4
 10
6.850323309878923
 20
4.694854237820069
 30
0.0
 40
1.329232025441954
 50
324.4403466867254
 51
29.1607445794126
  0
LINE
  5
649
  8
2
 62
     4
 10
7.807580891742172
 20
3.014390402244697
 30
0.0
 11
7.812795370959277
 21
2.916436674783334
 31
0.0
  0
ARC
  5
64A
  8
2
 62
     4
 10
8.01862730115025
 20
5.344853763502965
 30
0.0
 40
0.0078914794350417
 50
55.58740334872699
 51
197.0662485555126
  0
LINE
  5
64B
  8
2
 62
     4
 10
7.237153955186904
 20
3.017113203851166
 30
0.0
 11
7.237448390639673
 21
2.914575666177851
 31
0.0
  0
LINE
  5
64C
  8
2
 62
     4
 10
7.330777672679989
 20
2.914923045765883
 30
0.0
 11
7.237448390639673
 21
2.914575666177851
 31
0.0
  0
ARC
  5
64D
  8
2
 62
     4
 10
6.988106961093623
 20
4.491917454212151
 30
0.0
 40
1.025388657626259
 50
324.6060286644614
 51
56.94703795761671
  0
ARC
  5
64E
  8
2
 62
     4
 10
6.334908741267657
 20
4.685766614778555
 30
0.0
 40
1.368372162550252
 50
325.4375753167449
 51
28.68313685354865
  0
LINE
  5
64F
  8
2
 62
     4
 10
7.331090610610087
 20
3.014390402244697
 30
0.0
 11
7.330777672679989
 21
2.914923045765883
 31
0.0
  0
ARC
  5
650
  8
2
 62
     4
 10
7.542908471871202
 20
5.344853763502965
 30
0.0
 40
0.0078914794350412
 50
55.58740334873232
 51
197.0662485555179
  0
LINE
  5
651
  8
2
 62
     4
 10
6.764747876464522
 20
3.017113203851166
 30
0.0
 11
6.765367338853008
 21
2.914588193195081
 31
0.0
  0
LINE
  5
652
  8
2
 62
     4
 10
6.857986003804686
 20
2.915284574134567
 30
0.0
 11
6.765367338853008
 21
2.914588193195081
 31
0.0
  0
ARC
  5
653
  8
2
 62
     4
 10
6.495211303372078
 20
4.479617610255548
 30
0.0
 40
1.045787720697072
 50
325.4650636522781
 51
56.46814839168455
  0
ARC
  5
654
  8
2
 62
     4
 10
5.884186657950869
 20
4.691186494103699
 30
0.0
 40
1.344959243435924
 50
324.8505230668045
 51
28.96601370632009
  0
LINE
  5
655
  8
2
 62
     4
 10
6.855961730281236
 20
3.015751803047932
 30
0.0
 11
6.857986003804686
 21
2.915284574134567
 31
0.0
  0
ARC
  5
656
  8
2
 62
     4
 10
7.068445074884298
 20
5.344853763502965
 30
0.0
 40
0.0078914794350412
 50
55.58740334873232
 51
197.0662485555179
  0
LINE
  5
657
  8
2
 62
     4
 10
6.288257595332436
 20
3.011667600638228
 30
0.0
 11
6.288346395304893
 21
2.91667733601354
 31
0.0
  0
LINE
  5
658
  8
2
 62
     4
 10
6.380268679317084
 20
2.915284574134567
 30
0.0
 11
6.288346395304893
 21
2.91667733601354
 31
0.0
  0
ARC
  5
659
  8
2
 62
     4
 10
6.030455727471965
 20
4.486927689224203
 30
0.0
 40
1.033650671943467
 50
324.760597311539
 51
56.75088088373895
  0
ARC
  5
65A
  8
2
 62
     4
 10
5.39854547584994
 20
4.688908883969176
 30
0.0
 40
1.354746325789006
 50
324.7771640185321
 51
28.84706111947949
  0
LINE
  5
65B
  8
2
 62
     4
 10
6.382194250755619
 20
3.014390402244697
 30
0.0
 11
6.380268679317084
 21
2.915284574134567
 31
0.0
  0
ARC
  5
65C
  8
2
 62
     4
 10
6.592726245605249
 20
5.344853763502965
 30
0.0
 40
0.0078914794350429
 50
55.58740334872532
 51
197.0662485555109
  0
LINE
  5
65D
  8
2
 62
     4
 10
5.335277033068281
 20
3.014390402244694
 30
0.0
 11
5.336724096482979
 21
2.915977081357249
 31
0.0
  0
LINE
  5
65E
  8
2
 62
     4
 10
5.427852287688229
 20
3.014390402244694
 30
0.0
 11
5.42901402774665
 21
2.914268851718009
 31
0.0
  0
LINE
  5
65F
  8
2
 62
     4
 10
5.813128715003602
 20
3.018474604654397
 30
0.0
 11
5.814287349000686
 21
2.917253988449542
 31
0.0
  0
LINE
  5
660
  8
2
 62
     4
 10
5.908778473830393
 20
2.915977081357249
 30
0.0
 11
5.814287349000686
 21
2.917253988449542
 31
0.0
  0
ARC
  5
661
  8
2
 62
     4
 10
5.552906463608839
 20
4.487055050943534
 30
0.0
 40
1.033430526208152
 50
324.5611742340761
 51
56.75661939411787
  0
ARC
  5
662
  8
2
 62
     4
 10
4.895089689131212
 20
4.683057067311371
 30
0.0
 40
1.380099093087064
 50
325.4807349536986
 51
28.54509374768491
  0
LINE
  5
663
  8
2
 62
     4
 10
5.904342568820315
 20
3.014390402244694
 30
0.0
 11
5.908778473830393
 21
2.915977081357249
 31
0.0
  0
ARC
  5
664
  8
2
 62
     4
 10
6.114969717342174
 20
5.344853763502965
 30
0.0
 40
0.0078914794350419
 50
55.58740334873596
 51
197.0662485555215
  0
LINE
  5
665
  8
2
 62
     4
 10
5.42901402774665
 20
2.914268851718009
 30
0.0
 11
5.336724096482979
 21
2.915977081357249
 31
0.0
  0
ARC
  5
666
  8
2
 62
     4
 10
5.067873300577389
 20
4.48084396339097
 30
0.0
 40
1.043740464171194
 50
325.0269562382604
 51
56.51589784454228
  0
ARC
  5
667
  8
2
 62
     4
 10
4.436750975354025
 20
4.687018334346323
 30
0.0
 40
1.362947331118334
 50
325.0497777445766
 51
28.74794304021761
  0
ARC
  5
668
  8
2
 62
     4
 10
5.639250888063126
 20
5.344853763502965
 30
0.0
 40
0.0078914794350424
 50
55.58740334873064
 51
197.0662485555162
  0
LINE
  5
669
  8
2
 62
     4
 10
4.860148152739431
 20
3.017113203851163
 30
0.0
 11
4.860437751057566
 21
2.917253988449542
 31
0.0
  0
LINE
  5
66A
  8
2
 62
     4
 10
4.956205782979565
 20
2.917253988449542
 30
0.0
 11
4.860437751057566
 21
2.917253988449542
 31
0.0
  0
ARC
  5
66B
  8
2
 62
     4
 10
4.593272331067779
 20
4.480763185434144
 30
0.0
 40
1.043883738020359
 50
325.0378670845637
 51
56.51204612993609
  0
ARC
  5
66C
  8
2
 62
     4
 10
3.967081615226026
 20
4.688114236287293
 30
0.0
 40
1.358217771782928
 50
324.9891683205327
 51
28.80467708899928
  0
LINE
  5
66D
  8
2
 62
     4
 10
4.954084808162613
 20
3.013029001441459
 30
0.0
 11
4.956205782979565
 21
2.917253988449542
 31
0.0
  0
ARC
  5
66E
  8
2
 62
     4
 10
5.164787491076218
 20
5.344853763502965
 30
0.0
 40
0.0078914794350424
 50
55.58740334873064
 51
197.0662485555162
  0
LINE
  5
66F
  8
2
 62
     4
 10
4.478072729138797
 20
2.915187626227347
 30
0.0
 11
4.384083019310162
 21
2.916815356422224
 31
0.0
  0
ARC
  5
670
  8
2
 62
     4
 10
4.120883000984764
 20
4.482982574635359
 30
0.0
 40
1.040196831512807
 50
325.0116514950159
 51
56.59754583808046
  0
ARC
  5
671
  8
2
 62
     4
 10
3.475894218417395
 20
4.684582162660806
 30
0.0
 40
1.373481128811786
 50
325.2545205370187
 51
28.62287521842416
  0
LINE
  5
672
  8
2
 62
     4
 10
4.479187793535947
 20
3.016715247685137
 30
0.0
 11
4.478072729138797
 21
2.915187626227352
 31
0.0
  0
ARC
  5
673
  8
2
 62
     4
 10
4.689068661797174
 20
5.344853763502965
 30
0.0
 40
0.0078914794350419
 50
55.58740334873596
 51
197.0662485555215
  0
LINE
  5
674
  8
2
 62
     4
 10
4.005442371562255
 20
2.915187626227347
 30
0.0
 11
3.913883340377995
 21
2.915382746821452
 31
0.0
  0
ARC
  5
675
  8
2
 62
     4
 10
3.640352368643676
 20
4.477718458829759
 30
0.0
 40
1.048947191119255
 50
325.3670683547119
 51
56.3955876416662
  0
ARC
  5
676
  8
2
 62
     4
 10
3.011656321781
 20
4.686498751561854
 30
0.0
 40
1.365198170215683
 50
325.1218269751087
 51
28.72099749382905
  0
LINE
  5
677
  8
2
 62
     4
 10
4.00633888694541
 20
3.016715247685137
 30
0.0
 11
4.005442371562255
 21
2.915187626227352
 31
0.0
  0
ARC
  5
678
  8
2
 62
     4
 10
4.216438304220628
 20
5.344853763502965
 30
0.0
 40
0.0078914794350424
 50
55.58740334873064
 51
197.0662485555162
  0
LINE
  5
679
  8
2
 62
     4
 10
3.436495332849122
 20
3.016715247685137
 30
0.0
 11
3.43816451109895
 21
2.915382746821452
 31
0.0
  0
LINE
  5
67A
  8
2
 62
     4
 10
3.529723542283207
 20
2.915187626227347
 30
0.0
 11
3.43816451109895
 21
2.915382746821452
 31
0.0
  0
ARC
  5
67B
  8
2
 62
     4
 10
3.169540797764896
 20
4.480987971568101
 30
0.0
 40
1.043510619396674
 50
325.2122574877025
 51
56.52064446889706
  0
ARC
  5
67C
  8
2
 62
     4
 10
2.53916317616087
 20
4.687235401936889
 30
0.0
 40
1.36201564849943
 50
324.9906288514313
 51
28.75902873290826
  0
LINE
  5
67D
  8
2
 62
     4
 10
3.5294485367088
 20
3.016715247685137
 30
0.0
 11
3.529723542283207
 21
2.915187626227352
 31
0.0
  0
ARC
  5
67E
  8
2
 62
     4
 10
3.740719474941585
 20
5.344853763502965
 30
0.0
 40
0.0078914794350424
 50
55.58740334873064
 51
197.0662485555162
  0
LINE
  5
67F
  8
2
 62
     4
 10
2.963646426258584
 20
3.02075669133121
 30
0.0
 11
2.963701114112043
 21
2.915382746821452
 31
0.0
  0
LINE
  5
680
  8
2
 62
     4
 10
3.0552601452963
 20
2.915187626227347
 30
0.0
 11
2.963701114112043
 21
2.915382746821452
 31
0.0
  0
ARC
  5
681
  8
2
 62
     4
 10
2.701516776178827
 20
4.48527827343988
 30
0.0
 40
1.036384304549919
 50
324.9212973779305
 51
56.68673515678213
  0
ARC
  5
682
  8
2
 62
     4
 10
2.08359303067666
 20
4.691550059627051
 30
0.0
 40
1.343387448633048
 50
324.8406522283394
 51
28.98539979896799
  0
LINE
  5
683
  8
2
 62
     4
 10
3.056599630118263
 20
3.012673804039064
 30
0.0
 11
3.0552601452963
 21
2.915187626227352
 31
0.0
  0
ARC
  5
684
  8
2
 62
     4
 10
3.266256077954676
 20
5.344853763502965
 30
0.0
 40
0.0078914794350424
 50
55.58740334873064
 51
197.0662485555162
  0
LINE
  5
685
  8
2
 62
     4
 10
2.486756076021974
 20
3.012673804039064
 30
0.0
 11
2.487982284832995
 21
2.915382746821452
 31
0.0
  0
LINE
  5
686
  8
2
 62
     4
 10
2.579541316017254
 20
2.915187626227347
 30
0.0
 11
2.487982284832995
 21
2.915382746821452
 31
0.0
  0
ARC
  5
687
  8
2
 62
     4
 10
2.22071027513108
 20
4.481888558389348
 30
0.0
 40
1.04201399555275
 50
325.6348778118651
 51
56.55532052634105
  0
ARC
  5
688
  8
2
 62
     4
 10
1.591028596974591
 20
4.687703023733898
 30
0.0
 40
1.359995712961319
 50
324.6985687747255
 51
28.78326311476062
  0
LINE
  5
689
  8
2
 62
     4
 10
2.579709279881652
 20
3.008632360392991
 30
0.0
 11
2.579541316017254
 21
2.915187626227352
 31
0.0
  0
ARC
  5
68A
  8
2
 62
     4
 10
2.790537248675631
 20
5.344853763502965
 30
0.0
 40
0.0078914794350424
 50
55.58740334873064
 51
197.0662485555162
  0
LINE
  5
68B
  8
2
 62
     4
 10
1.52893393190268
 20
3.02075669133121
 30
0.0
 11
1.534506927290871
 21
2.915382746821452
 31
0.0
  0
LINE
  5
68C
  8
2
 62
     4
 10
1.625928579408431
 20
3.012673804039064
 30
0.0
 11
1.626065958475132
 21
2.915187626227352
 31
0.0
  0
LINE
  5
68D
  8
2
 62
     4
 10
2.009174177427924
 20
3.017054290077015
 30
0.0
 11
2.010225756569922
 21
2.915382746821452
 31
0.0
  0
LINE
  5
68E
  8
2
 62
     4
 10
2.101784787754177
 20
2.915187626227347
 30
0.0
 11
2.010225756569922
 21
2.915382746821452
 31
0.0
  0
ARC
  5
68F
  8
2
 62
     4
 10
1.736529231705691
 20
4.477605795297103
 30
0.0
 40
1.049132655207847
 50
325.3815408223787
 51
56.39146268205355
  0
ARC
  5
690
  8
2
 62
     4
 10
1.107618348528954
 20
4.686411881906867
 30
0.0
 40
1.365573509322874
 50
325.1372456147601
 51
28.71652433684236
  0
LINE
  5
691
  8
2
 62
     4
 10
2.104312841267254
 20
3.016398523916268
 30
0.0
 11
2.101784787754177
 21
2.915187626227352
 31
0.0
  0
ARC
  5
692
  8
2
 62
     4
 10
2.312780720412555
 20
5.344853763502965
 30
0.0
 40
0.0078914794350424
 50
55.58740334873064
 51
197.0662485555162
  0
LINE
  5
693
  8
2
 62
     4
 10
1.626065958475132
 20
2.915187626227347
 30
0.0
 11
1.534506927290871
 21
2.915382746821452
 31
0.0
  0
ARC
  5
694
  8
2
 62
     4
 10
1.270657878862352
 20
4.484169142490154
 30
0.0
 40
1.038225764020966
 50
324.7948246590646
 51
56.6435788013578
  0
ARC
  5
695
  8
2
 62
     4
 10
0.6460973722608395
 20
4.689654249990981
 30
0.0
 40
1.351569856986838
 50
324.5540948020575
 51
28.88516650843355
  0
ARC
  5
696
  8
2
 62
     4
 10
1.837061891133509
 20
5.344853763502965
 30
0.0
 40
0.0078914794350419
 50
55.58740334873596
 51
197.0662485555215
  0
LINE
  5
697
  8
2
 62
     4
 10
1.056085025312143
 20
3.024798134977283
 30
0.0
 11
1.060043530303968
 21
2.915382746821452
 31
0.0
  0
LINE
  5
698
  8
2
 62
     4
 10
1.151602561488223
 20
2.915187626227347
 30
0.0
 11
1.060043530303968
 21
2.915382746821452
 31
0.0
  0
ARC
  5
699
  8
2
 62
     4
 10
0.7956673145321466
 20
4.483817911679879
 30
0.0
 40
1.038809025342904
 50
324.5681092272183
 51
56.6299442887264
  0
ARC
  5
69A
  8
2
 62
     4
 10
0.1827495706090526
 20
4.692192721936194
 30
0.0
 40
1.340614626951921
 50
324.5116477452162
 51
29.01965562465617
  0
LINE
  5
69B
  8
2
 62
     4
 10
1.153079672817894
 20
3.016715247685137
 30
0.0
 11
1.151602561488223
 21
2.915187626227352
 31
0.0
  0
ARC
  5
69C
  8
2
 62
     4
 10
1.362598494146601
 20
5.344853763502965
 30
0.0
 40
0.0078914794350423
 50
55.58740334873197
 51
197.0662485555176
  0
ARC
  5
69D
  8
2
 62
     4
 10
0.3184472648268839
 20
4.482817707715422
 30
0.0
 40
1.040470306817053
 50
325.2442409942114
 51
56.59120088922747
  0
ARC
  5
69E
  8
2
 62
     4
 10
0.8868861260315318
 20
5.344467014651788
 30
0.0
 40
0.0082099452406734
 50
57.15016241689203
 51
209.2681566636751
  0
ARC
  5
69F
  8
2
 62
     4
 10
0.4229598340614834
 20
2.668786773524797
 30
0.0
 40
0.4128005968682635
 50
51.10430724334605
 51
307.520077751742
  0
ARC
  5
6A1
  8
2
 62
     4
 10
14.65127413478078
 20
2.680485854434788
 30
0.0
 40
0.4172195322540342
 50
233.0893208603069
 51
129.0868587960482
  0
ARC
  5
6A3
  8
2
 62
     4
 10
1.864174400804285
 20
3.355666414284201
 30
0.0
 40
0.8732023001772279
 50
142.2988520124298
 51
202.2664084699647
  0
ARC
  5
6A4
  8
2
 62
     4
 10
1.922788743038286
 20
3.369492868679061
 30
0.0
 40
0.8467018971596048
 50
139.9846825858422
 51
204.6232139701246
  0
ARC
  5
6A5
  8
2
 62
     4
 10
2.390458843025903
 20
3.363700122098493
 30
0.0
 40
0.8412645243663606
 50
139.8773478607467
 51
204.66174147458
  0
ARC
  5
6A6
  8
2
 62
     4
 10
2.343945027800377
 20
3.35147060500946
 30
0.0
 40
0.8795537386292838
 50
142.935949096022
 51
202.0862525006978
  0
ARC
  5
6A7
  8
2
 62
     4
 10
2.855338604768802
 20
3.351303750247836
 30
0.0
 40
0.909789502973958
 50
144.0341637908178
 51
201.5548698962543
  0
ARC
  5
6A8
  8
2
 62
     4
 10
2.873883810944813
 20
3.362621903687024
 30
0.0
 40
0.8438661659708505
 50
139.9304559314154
 51
204.2225717853159
  0
ARC
  5
6A9
  8
2
 62
     4
 10
3.290832317941633
 20
3.349780675691955
 30
0.0
 40
0.8718828165156372
 50
142.4142293397376
 51
202.7457408697399
  0
ARC
  5
6AA
  8
2
 62
     4
 10
3.34767702118389
 20
3.359192052522361
 30
0.0
 40
0.8441958004081156
 50
140.0034771295782
 51
204.5356122057485
  0
ARC
  5
6AB
  8
2
 62
     4
 10
3.786726836185241
 20
3.354594156798297
 30
0.0
 40
0.8882053898477097
 50
142.6292374524243
 51
202.0772385204412
  0
ARC
  5
6AC
  8
2
 62
     4
 10
3.855851148956496
 20
3.363374048595456
 30
0.0
 40
0.8728079123708347
 50
140.5502582567216
 51
203.6911854333484
  0
ARC
  5
6AD
  8
2
 62
     4
 10
4.276354096081924
 20
3.351655052844083
 30
0.0
 40
0.9041832863191212
 50
143.4855571100196
 51
201.7423565874458
  0
ARC
  5
6AE
  8
2
 62
     4
 10
4.304288509614564
 20
3.360918932897979
 30
0.0
 40
0.8478520864671543
 50
140.0066069982183
 51
203.9520134107249
  0
ARC
  5
6AF
  8
2
 62
     4
 10
4.77571406562793
 20
3.346235794047652
 30
0.0
 40
0.9231435586152853
 50
144.2466715344534
 51
200.9132986750242
  0
ARC
  5
6B0
  8
2
 62
     4
 10
4.808243400600371
 20
3.357105293065138
 30
0.0
 40
0.8711579833841839
 50
140.9585129887668
 51
203.0001074201765
  0
ARC
  5
6B1
  8
2
 62
     4
 10
5.242936532707767
 20
3.338477237949745
 30
0.0
 40
0.9175105031838901
 50
143.7055290696865
 51
200.2602847830029
  0
ARC
  5
6B2
  8
2
 62
     4
 10
5.279492224562984
 20
3.35483541053789
 30
0.0
 40
0.8687994169249198
 50
140.9827878176959
 51
202.903543914611
  0
ARC
  5
6B3
  8
2
 62
     4
 10
5.707271318582243
 20
3.349112994263712
 30
0.0
 40
0.9098579663560268
 50
143.7966283218862
 51
201.4009294094517
  0
ARC
  5
6B4
  8
2
 62
     4
 10
5.745675240911482
 20
3.358887440861968
 30
0.0
 40
0.8638480614887848
 50
140.4570230547256
 51
203.6012813999003
  0
ARC
  5
6B5
  8
2
 62
     4
 10
6.165166379818228
 20
3.347420103617871
 30
0.0
 40
0.8942175964751313
 50
143.2396954610255
 51
201.8653004889586
  0
ARC
  5
6B6
  8
2
 62
     4
 10
6.211393118472617
 20
3.358485584314324
 30
0.0
 40
0.8557673327662261
 50
140.2031749135937
 51
203.7088773629899
  0
ARC
  5
6B7
  8
2
 62
     4
 10
6.673395712861277
 20
3.348011026656812
 30
0.0
 40
0.9212239472729802
 50
144.5295716402341
 51
200.9599856269484
  0
ARC
  5
6B8
  8
2
 62
     4
 10
6.700931818249881
 20
3.35202306049034
 30
0.0
 40
0.8651879820136087
 50
140.6176798105613
 51
202.9695560093897
  0
ARC
  5
6B9
  8
2
 62
     4
 10
7.173033357745955
 20
3.348571699709554
 30
0.0
 40
0.9467483940971242
 50
145.2778151797313
 51
200.8457864088313
  0
ARC
  5
6BA
  8
2
 62
     4
 10
7.179995022854121
 20
3.359522323505055
 30
0.0
 40
0.8692537690650711
 50
140.916261665091
 51
203.3935090390135
  0
ARC
  5
6BB
  8
2
 62
     4
 10
7.657034923573603
 20
3.348417487504046
 30
0.0
 40
0.9518081228931554
 50
145.281330574644
 51
200.3698543746376
  0
ARC
  5
6BC
  8
2
 62
     4
 10
7.694649927910986
 20
3.356326169409926
 30
0.0
 40
0.9052009676675742
 50
141.738124535433
 51
202.1010793405946
  0
ARC
  5
6BD
  8
2
 62
     4
 10
8.09825319556909
 20
3.341767540711642
 30
0.0
 40
0.9202675373113477
 50
143.6865987504501
 51
200.6576036099521
  0
ARC
  5
6BE
  8
2
 62
     4
 10
8.13825583820381
 20
3.353630389330616
 30
0.0
 40
0.8755566649135161
 50
140.5906020547973
 51
202.7963181978393
  0
ARC
  5
6BF
  8
2
 62
     4
 10
8.672512020398733
 20
3.345843133776314
 30
0.0
 40
1.01236448023617
 50
146.9459490112766
 51
198.9483091131347
  0
ARC
  5
6C0
  8
2
 62
     4
 10
8.696871359047119
 20
3.354995036607499
 30
0.0
 40
0.9522862238785501
 50
143.4698730941545
 51
200.9571986231564
  0
ARC
  5
6C1
  8
2
 62
     4
 10
9.062889903425711
 20
3.357686568069012
 30
0.0
 40
0.9279809367593176
 50
145.1261795272617
 51
201.5310074792119
  0
ARC
  5
6C2
  8
2
 62
     4
 10
9.064130471683955
 20
3.36150490171316
 30
0.0
 40
0.8456661001490293
 50
139.490402450776
 51
204.3351042822029
  0
ARC
  5
6C3
  8
2
 62
     4
 10
9.494725815657201
 20
3.351106162277796
 30
0.0
 40
0.8805197222120733
 50
142.9346298100293
 51
202.2568316976854
  0
ARC
  5
6C4
  8
2
 62
     4
 10
9.539403034146412
 20
3.355671910561068
 30
0.0
 40
0.8414395945325036
 50
138.983612971256
 51
204.5246687231032
  0
ARC
  5
6C5
  8
2
 62
     4
 10
10.03935733136346
 20
3.357173380898102
 30
0.0
 40
0.867030024781058
 50
140.4304595387148
 51
203.8639005010161
  0
ARC
  5
6C6
  8
2
 62
     4
 10
9.996897094979182
 20
3.35062151214284
 30
0.0
 40
0.9086265744429561
 50
143.9518473953512
 51
201.6523689110576
  0
ARC
  5
6C7
  8
2
 62
     4
 10
10.49870207050308
 20
3.339245974019046
 30
0.0
 40
0.9308089153308549
 50
144.4037112170015
 51
200.951936825466
  0
ARC
  5
6C8
  8
2
 62
     4
 10
10.53678407320846
 20
3.353886590642152
 30
0.0
 40
0.8838506939413005
 50
141.2495910502985
 51
202.6776024347495
  0
ARC
  5
6C9
  8
2
 62
     4
 10
10.93147695357057
 20
3.351015575571247
 30
0.0
 40
0.8885797335441501
 50
143.7112763613556
 51
202.1938842961233
  0
ARC
  5
6CA
  8
2
 62
     4
 10
10.9561044117324
 20
3.355376780786176
 30
0.0
 40
0.8294503044675174
 50
139.6852159659706
 51
204.3700534524673
  0
ARC
  5
6CB
  8
2
 62
     4
 10
11.44075365927365
 20
3.348817691470952
 30
0.0
 40
0.9189721704769784
 50
144.1881939614811
 51
201.126013577444
  0
ARC
  5
6CC
  8
2
 62
     4
 10
11.47115764126404
 20
3.359294947712103
 30
0.0
 40
0.8648721195587958
 50
140.3444453902707
 51
203.4325651925038
  0
ARC
  5
6CD
  8
2
 62
     4
 10
11.90941518922999
 20
3.34403128636907
 30
0.0
 40
0.9144046806582903
 50
143.9295230490558
 51
201.0655359332147
  0
ARC
  5
6CE
  8
2
 62
     4
 10
11.93997709420368
 20
3.349075791450173
 30
0.0
 40
0.8612117006807435
 50
140.4452237795305
 51
203.1222883666424
  0
ARC
  5
6CF
  8
2
 62
     4
 10
12.4293655647018
 20
3.334804210680454
 30
0.0
 40
0.9542838355694465
 50
144.9812714903422
 51
199.6998480661213
  0
ARC
  5
6D0
  8
2
 62
     4
 10
12.44499919884527
 20
3.345308079661431
 30
0.0
 40
0.885571378733265
 50
141.1964452135719
 51
202.1874744395336
  0
ARC
  5
6D1
  8
2
 62
     4
 10
12.8791418942873
 20
3.332196591442844
 30
0.0
 40
0.9306224421503463
 50
144.3812344668965
 51
200.1981625953522
  0
ARC
  5
6D2
  8
2
 62
     4
 10
12.945860214671
 20
3.347850271841933
 30
0.0
 40
0.9119367989563221
 50
142.1736253559542
 51
201.5339215762934
  0
ARC
  5
6D3
  8
2
 62
     4
 10
13.34948641257325
 20
3.342049872929
 30
0.0
 40
0.9290968620305513
 50
144.3326117335137
 51
200.7339855342962
  0
ARC
  5
6D4
  8
2
 62
     4
 10
13.38603234770054
 20
3.355510558591726
 30
0.0
 40
0.8806834137842666
 50
140.9902667356622
 51
202.8783562068473
  0
ARC
  5
6D5
  8
2
 62
     4
 10
13.81381248418175
 20
3.340045526803895
 30
0.0
 40
0.9198806006492445
 50
143.8708094790621
 51
200.6686517792576
  0
ARC
  5
6D6
  8
2
 62
     4
 10
13.86028068815623
 20
3.354835598366315
 30
0.0
 40
0.88109861630148
 50
141.1850580495593
 51
202.6614198071879
  0
ARC
  5
6D7
  8
2
 62
     4
 10
14.3596921031243
 20
3.344249321113701
 30
0.0
 40
0.9838592774954941
 50
146.2643218459857
 51
199.5289535277935
  0
ARC
  5
6D8
  8
2
 62
     4
 10
14.38689065954108
 20
3.34610911605868
 30
0.0
 40
0.9275664936582375
 50
142.8908956107205
 51
201.1864805284629
  0
ARC
  5
6D9
  8
2
 62
     4
 10
14.79001001096456
 20
3.339084268026
 30
0.0
 40
0.9412757494404686
 50
144.8464565966648
 51
200.6976576770201
  0
ARC
  5
6DA
  8
2
 62
     4
 10
14.79423510396553
 20
3.347455882915562
 30
0.0
 40
0.8613984684277883
 50
140.434115698005
 51
202.9998800920285
  0
ARC
  5
6DB
  8
2
 62
     4
 10
15.27497652507694
 20
3.337844536917715
 30
0.0
 40
0.9474037015126191
 50
144.8127289474045
 51
200.6116647895559
  0
ARC
  5
6DC
  8
2
 62
     4
 10
-0.267316401989361
 20
4.644116803486976
 30
0.0
 40
1.341859392621149
 50
325.1297826445538
 51
31.26076974483217
  0
ARC
  5
6DD
  8
2
 62
     4
 10
1.575900421937743
 20
3.293816385413699
 30
0.0
 40
0.9439480712166198
 50
141.8472654500236
 51
198.7710725836284
  0
LINE
  5
6DE
  8
2
 62
     4
 10
1.159284277851619
 20
2.338622936160449
 30
0.0
 11
1.15765826497426
 21
2.43195936694871
 31
0.0
  0
LINE
  5
6DF
  8
2
 62
     4
 10
1.066099233790007
 20
2.432154487542815
 30
0.0
 11
1.15765826497426
 21
2.43195936694871
 31
0.0
  0
ARC
  5
6E0
  8
2
 62
     4
 10
1.431697566651409
 20
0.8699623351336543
 30
0.0
 40
1.049510635230635
 50
145.5567005082433
 51
236.3827074045149
  0
ARC
  5
6E1
  8
2
 62
     4
 10
2.087677407278176
 20
0.667197287701784
 30
0.0
 40
1.392646128002455
 50
145.7390449178381
 51
208.4007836284394
  0
LINE
  5
6E2
  8
2
 62
     4
 10
1.06560797710488
 20
2.335867750844368
 30
0.0
 11
1.066099233790007
 21
2.43215448754281
 31
0.0
  0
ARC
  5
6E3
  8
2
 62
     4
 10
0.8551033011316289
 20
0.0024883502671984
 30
0.0
 40
0.0078914794350456
 50
235.5874033487309
 51
17.06624855551647
  0
LINE
  5
6E4
  8
2
 62
     4
 10
2.112578397215496
 20
2.341378121476529
 30
0.0
 11
2.111133622516389
 21
2.43195936694871
 31
0.0
  0
LINE
  5
6E5
  8
2
 62
     4
 10
2.021657281784837
 20
2.330357380212207
 30
0.0
 11
2.019574591332128
 21
2.43215448754281
 31
0.0
  0
LINE
  5
6E6
  8
2
 62
     4
 10
1.638686522849638
 20
2.335867750844368
 30
0.0
 11
1.635414793237339
 21
2.43195936694871
 31
0.0
  0
LINE
  5
6E7
  8
2
 62
     4
 10
1.543855762053078
 20
2.432154487542815
 30
0.0
 11
1.635414793237339
 21
2.43195936694871
 31
0.0
  0
ARC
  5
6E8
  8
2
 62
     4
 10
1.908671655437656
 20
0.8694410265682961
 30
0.0
 40
1.048643384088379
 50
145.3074641669042
 51
236.402538866383
  0
ARC
  5
6E9
  8
2
 62
     4
 10
2.53224661653102
 20
0.65961125978792
 30
0.0
 40
1.359875505316548
 50
144.8972647975436
 51
208.7847076801828
  0
LINE
  5
6EA
  8
2
 62
     4
 10
1.547765407418979
 20
2.335867750844368
 30
0.0
 11
1.543855762053078
 21
2.43215448754281
 31
0.0
  0
ARC
  5
6EB
  8
2
 62
     4
 10
1.332859829394708
 20
0.002488350267198
 30
0.0
 40
0.0078914794350436
 50
235.5874033487523
 51
17.06624855553785
  0
LINE
  5
6EC
  8
2
 62
     4
 10
2.019574591332128
 20
2.432154487542815
 30
0.0
 11
2.111133622516389
 21
2.43195936694871
 31
0.0
  0
ARC
  5
6ED
  8
2
 62
     4
 10
2.372255606000218
 20
0.8613545946492351
 30
0.0
 40
1.03520825947843
 50
144.8939395524313
 51
236.7143123684023
  0
ARC
  5
6EE
  8
2
 62
     4
 10
3.011651502776191
 20
0.6604530457575262
 30
0.0
 40
1.363511826529088
 50
145.118084215352
 51
208.7411263493245
  0
ARC
  5
6EF
  8
2
 62
     4
 10
1.808578658673747
 20
0.002488350267198
 30
0.0
 40
0.0078914794350436
 50
235.5874033487523
 51
17.0662485555379
  0
LINE
  5
6F0
  8
2
 62
     4
 10
2.586470271581353
 20
2.333112565528288
 30
0.0
 11
2.585597019503298
 21
2.43195936694871
 31
0.0
  0
LINE
  5
6F1
  8
2
 62
     4
 10
2.494037988319037
 20
2.432154487542815
 30
0.0
 11
2.585597019503298
 21
2.43195936694871
 31
0.0
  0
ARC
  5
6F2
  8
2
 62
     4
 10
2.858428398139286
 20
0.8691575436497212
 30
0.0
 40
1.048171833502037
 50
145.3619842564795
 51
236.4133368115198
  0
ARC
  5
6F3
  8
2
 62
     4
 10
3.487540300780127
 20
0.6607785650287248
 30
0.0
 40
1.364918205426749
 50
145.3160964256965
 51
208.7243356803784
  0
LINE
  5
6F4
  8
2
 62
     4
 10
2.495549156150694
 20
2.335867750844368
 30
0.0
 11
2.494037988319037
 21
2.43215448754281
 31
0.0
  0
ARC
  5
6F5
  8
2
 62
     4
 10
2.28304205566066
 20
0.002488350267198
 30
0.0
 40
0.0078914794350456
 50
235.5874033487309
 51
17.06624855551647
  0
LINE
  5
6F6
  8
2
 62
     4
 10
3.063117331263291
 20
2.330357380212207
 30
0.0
 11
3.061315848782337
 21
2.431959366948709
 31
0.0
  0
LINE
  5
6F7
  8
2
 62
     4
 10
2.969756817598076
 20
2.432154487542814
 30
0.0
 11
3.061315848782337
 21
2.431959366948709
 31
0.0
  0
ARC
  5
6F8
  8
2
 62
     4
 10
3.332425693049378
 20
0.8680105531940141
 30
0.0
 40
1.046264289845423
 50
145.3047903091562
 51
236.457125353376
  0
ARC
  5
6F9
  8
2
 62
     4
 10
3.967328931473703
 20
0.6617079868367242
 30
0.0
 40
1.368934337512705
 50
145.3400333856875
 51
208.6765848982974
  0
LINE
  5
6FA
  8
2
 62
     4
 10
2.974951401148713
 20
2.335867750844368
 30
0.0
 11
2.969756817598076
 21
2.43215448754281
 31
0.0
  0
ARC
  5
6FB
  8
2
 62
     4
 10
2.758760884939709
 20
0.0024883502671944
 30
0.0
 40
0.0078914794350407
 50
235.5874033487376
 51
17.06624855552324
  0
LINE
  5
6FC
  8
2
 62
     4
 10
3.533000726448923
 20
2.336735583129958
 30
0.0
 11
3.533946206358889
 21
2.431959366948709
 31
0.0
  0
LINE
  5
6FD
  8
2
 62
     4
 10
3.442387175174628
 20
2.432154487542814
 30
0.0
 11
3.533946206358889
 21
2.431959366948709
 31
0.0
  0
ARC
  5
6FE
  8
2
 62
     4
 10
3.813945814109049
 20
0.8739571305700364
 30
0.0
 40
1.05614078393081
 50
145.4342017016929
 51
236.2334228203057
  0
ARC
  5
6FF
  8
2
 62
     4
 10
4.458739876876511
 20
0.66600676693559
 30
0.0
 40
1.387484073751165
 50
145.7400490910829
 51
208.4601733723175
  0
LINE
  5
700
  8
2
 62
     4
 10
3.441173426429684
 20
2.334495892885586
 30
0.0
 11
3.442387175174628
 21
2.43215448754281
 31
0.0
  0
ARC
  5
701
  8
2
 62
     4
 10
3.231391242516247
 20
0.0024883502671944
 30
0.0
 40
0.0078914794350407
 50
235.5874033487376
 51
17.06624855552324
  0
LINE
  5
702
  8
2
 62
     4
 10
4.010054748500092
 20
2.334495892885586
 30
0.0
 11
4.009665035637927
 21
2.431959366948709
 31
0.0
  0
LINE
  5
703
  8
2
 62
     4
 10
3.918106004453678
 20
2.432154487542814
 30
0.0
 11
4.009665035637927
 21
2.431959366948709
 31
0.0
  0
ARC
  5
704
  8
2
 62
     4
 10
4.283830378865368
 20
0.8700463116477515
 30
0.0
 40
1.049650350663106
 50
145.4766242150775
 51
236.379515860273
  0
ARC
  5
705
  8
2
 62
     4
 10
4.930709512709091
 20
0.6651654939934457
 30
0.0
 40
1.38378746506298
 50
145.4556799192971
 51
208.5035271843636
  0
LINE
  5
706
  8
2
 62
     4
 10
3.918227448480852
 20
2.334495892885586
 30
0.0
 11
3.918106004453678
 21
2.43215448754281
 31
0.0
  0
ARC
  5
707
  8
2
 62
     4
 10
3.7071100717953
 20
0.0024883502671944
 30
0.0
 40
0.0078914794350427
 50
235.5874033487163
 51
17.06624855550192
  0
LINE
  5
708
  8
2
 62
     4
 10
4.484869080306888
 20
2.336735583129958
 30
0.0
 11
4.484128432624837
 21
2.431959366948709
 31
0.0
  0
LINE
  5
709
  8
2
 62
     4
 10
4.392569401440576
 20
2.432154487542814
 30
0.0
 11
4.484128432624837
 21
2.431959366948709
 31
0.0
  0
ARC
  5
70A
  8
2
 62
     4
 10
4.754498170516475
 20
0.8675174495045965
 30
0.0
 40
1.045444404375511
 50
145.1491978613034
 51
236.4759996353841
  0
ARC
  5
70B
  8
2
 62
     4
 10
5.389373655869705
 20
0.6615326305373981
 30
0.0
 40
1.368176531390333
 50
145.5185607958754
 51
208.6855726992023
  0
LINE
  5
70C
  8
2
 62
     4
 10
4.393041780287649
 20
2.33897527337433
 30
0.0
 11
4.392569401440576
 21
2.43215448754281
 31
0.0
  0
ARC
  5
70D
  8
2
 62
     4
 10
4.181573468782198
 20
0.0024883502671944
 30
0.0
 40
0.0078914794350427
 50
235.5874033487163
 51
17.06624855550192
  0
LINE
  5
70E
  8
2
 62
     4
 10
4.959683412113685
 20
2.336735583129958
 30
0.0
 11
4.95984726190389
 21
2.431959366948708
 31
0.0
  0
LINE
  5
70F
  8
2
 62
     4
 10
4.868288230719629
 20
2.432154487542813
 30
0.0
 11
4.95984726190389
 21
2.431959366948708
 31
0.0
  0
ARC
  5
710
  8
2
 62
     4
 10
5.227837750550955
 20
0.8659322495664048
 30
0.0
 40
1.042809457235636
 50
145.217844983
 51
236.5368765663428
  0
ARC
  5
711
  8
2
 62
     4
 10
5.885583088144302
 20
0.666212075882116
 30
0.0
 40
1.388410234094128
 50
145.3643971828556
 51
208.449093746594
  0
LINE
  5
712
  8
2
 62
     4
 10
4.867856112094446
 20
2.336735583129958
 30
0.0
 11
4.868288230719629
 21
2.432154487542809
 31
0.0
  0
ARC
  5
713
  8
2
 62
     4
 10
4.657292298061248
 20
0.002488350267194
 30
0.0
 40
0.0078914794350407
 50
235.5874033487376
 51
17.06624855552324
  0
LINE
  5
714
  8
2
 62
     4
 10
5.913791456216021
 20
2.336735583129958
 30
0.0
 11
5.913322619446007
 21
2.431959366948708
 31
0.0
  0
LINE
  5
715
  8
2
 62
     4
 10
5.821964156196782
 20
2.33897527337433
 30
0.0
 11
5.82176358826175
 21
2.432154487542809
 31
0.0
  0
LINE
  5
716
  8
2
 62
     4
 10
5.436737434164852
 20
2.334495892885586
 30
0.0
 11
5.437603790166961
 21
2.431959366948708
 31
0.0
  0
LINE
  5
717
  8
2
 62
     4
 10
5.346044758982701
 20
2.432154487542813
 30
0.0
 11
5.437603790166961
 21
2.431959366948708
 31
0.0
  0
ARC
  5
718
  8
2
 62
     4
 10
5.710718392142195
 20
0.8693462441908233
 30
0.0
 40
1.048485717233294
 50
145.0211024246455
 51
236.40614807332
  0
ARC
  5
719
  8
2
 62
     4
 10
6.338690277491097
 20
0.6605828987287059
 30
0.0
 40
1.364072831427554
 50
145.1411573577966
 51
208.7344242285793
  0
LINE
  5
71A
  8
2
 62
     4
 10
5.347149824389986
 20
2.33897527337433
 30
0.0
 11
5.346044758982701
 21
2.432154487542809
 31
0.0
  0
ARC
  5
71B
  8
2
 62
     4
 10
5.135048826324323
 20
0.002488350267194
 30
0.0
 40
0.0078914794350407
 50
235.5874033487376
 51
17.06624855552324
  0
LINE
  5
71C
  8
2
 62
     4
 10
5.82176358826175
 20
2.432154487542813
 30
0.0
 11
5.913322619446007
 21
2.431959366948708
 31
0.0
  0
ARC
  5
71D
  8
2
 62
     4
 10
6.185742372776397
 20
0.8688832939423845
 30
0.0
 40
1.04771567706565
 50
145.2352180032818
 51
236.4237923107094
  0
ARC
  5
71E
  8
2
 62
     4
 10
6.80941665456264
 20
0.659442770873699
 30
0.0
 40
1.359147766876276
 50
144.9377166387941
 51
208.7934587738054
  0
ARC
  5
71F
  8
2
 62
     4
 10
5.610767655603376
 20
0.002488350267194
 30
0.0
 40
0.0078914794350427
 50
235.5874033487163
 51
17.06624855550187
  0
LINE
  5
720
  8
2
 62
     4
 10
6.388605788022805
 20
2.332256202641214
 30
0.0
 11
6.387786016432913
 21
2.431959366948708
 31
0.0
  0
LINE
  5
721
  8
2
 62
     4
 10
6.296485674774474
 20
2.433758376212836
 30
0.0
 11
6.387786016432913
 21
2.431959366948708
 31
0.0
  0
ARC
  5
722
  8
2
 62
     4
 10
6.657456769774353
 20
0.8670517436655398
 30
0.0
 40
1.044670177747507
 50
145.1802084453924
 51
236.4938524245302
  0
ARC
  5
723
  8
2
 62
     4
 10
7.289396062872215
 20
0.6607024640857939
 30
0.0
 40
1.364589407151178
 50
145.0921531429679
 51
208.7282579571863
  0
LINE
  5
724
  8
2
 62
     4
 10
6.296778488003566
 20
2.332256202641214
 30
0.0
 11
6.296485674774474
 21
2.433758376212836
 31
0.0
  0
ARC
  5
725
  8
2
 62
     4
 10
6.085231052590278
 20
0.002488350267194
 30
0.0
 40
0.0078914794350407
 50
235.5874033487376
 51
17.06624855552324
  0
LINE
  5
726
  8
2
 62
     4
 10
6.867205311098432
 20
2.33022890991899
 30
0.0
 11
6.867899500318345
 21
2.433042263637939
 31
0.0
  0
LINE
  5
727
  8
2
 62
     4
 10
6.773032640185932
 20
2.433758376212836
 30
0.0
 11
6.867899500318345
 21
2.433042263637939
 31
0.0
  0
ARC
  5
728
  8
2
 62
     4
 10
7.134205566177521
 20
0.8677379701402224
 30
0.0
 40
1.045811050886383
 50
145.5434029595251
 51
236.4675552199064
  0
ARC
  5
729
  8
2
 62
     4
 10
7.757716441234114
 20
0.6590164754920039
 30
0.0
 40
1.357292846935188
 50
144.8183184894704
 51
208.815962458275
  0
LINE
  5
72A
  8
2
 62
     4
 10
6.773832510054735
 20
2.336735583129957
 30
0.0
 11
6.773032640185932
 21
2.433758376212836
 31
0.0
  0
ARC
  5
72B
  8
2
 62
     4
 10
6.560949881869328
 20
0.002488350267194
 30
0.0
 40
0.0078914794350427
 50
235.5874033487163
 51
17.06624855550192
  0
LINE
  5
72C
  8
2
 62
     4
 10
11.15348395108642
 20
2.330626866085021
 30
0.0
 11
11.15298629379416
 21
2.431959366948706
 31
0.0
  0
LINE
  5
72D
  8
2
 62
     4
 10
10.68467648814196
 20
2.326585422438948
 30
0.0
 11
10.68035593621761
 21
2.431959366948706
 31
0.0
  0
LINE
  5
72E
  8
2
 62
     4
 10
7.351863997049926
 20
2.330228909918992
 30
0.0
 11
7.352112938008658
 21
2.431428073203486
 31
0.0
  0
LINE
  5
72F
  8
2
 62
     4
 10
7.260065969139452
 20
2.43259322470816
 30
0.0
 11
7.352112938008658
 21
2.431428073203486
 31
0.0
  0
ARC
  5
730
  8
2
 62
     4
 10
7.620082793358801
 20
0.8667957851788577
 30
0.0
 40
1.044244096285808
 50
145.0935379663515
 51
236.5037254910488
  0
ARC
  5
731
  8
2
 62
     4
 10
8.256344720078847
 20
0.6616015047826929
 30
0.0
 40
1.368474703903428
 50
145.3387958315168
 51
208.6820291433048
  0
LINE
  5
732
  8
2
 62
     4
 10
7.259288742429974
 20
2.332951711525461
 30
0.0
 11
7.260065969139452
 21
2.43259322470816
 31
0.0
  0
ARC
  5
733
  8
2
 62
     4
 10
7.048242333021897
 20
0.002488350267194
 30
0.0
 40
0.0078914794350407
 50
235.5874033487376
 51
17.06624855552324
  0
LINE
  5
734
  8
2
 62
     4
 10
7.829715678985246
 20
2.330228909918992
 30
0.0
 11
7.827494751915447
 21
2.431428073203486
 31
0.0
  0
LINE
  5
735
  8
2
 62
     4
 10
7.735447783046241
 20
2.433758376212833
 30
0.0
 11
7.827494751915447
 21
2.431428073203486
 31
0.0
  0
ARC
  5
736
  8
2
 62
     4
 10
8.094223604330852
 20
0.8657428873540366
 30
0.0
 40
1.042495439837915
 50
145.1120834317365
 51
236.5441139778057
  0
ARC
  5
737
  8
2
 62
     4
 10
8.728771362243435
 20
0.6608489322685891
 30
0.0
 40
1.365225592814123
 50
145.1464413077707
 51
208.7206334214314
  0
LINE
  5
738
  8
2
 62
     4
 10
7.735779023562061
 20
2.332951711525461
 30
0.0
 11
7.735447783046241
 21
2.433758376212833
 31
0.0
  0
ARC
  5
739
  8
2
 62
     4
 10
7.523961162300947
 20
0.002488350267194
 30
0.0
 40
0.0078914794350407
 50
235.5874033487376
 51
17.06624855552319
  0
LINE
  5
73A
  8
2
 62
     4
 10
8.302121757707626
 20
2.330228909918992
 30
0.0
 11
8.301711414317557
 21
2.431428073203486
 31
0.0
  0
LINE
  5
73B
  8
2
 62
     4
 10
8.209664445448352
 20
2.434923527717507
 30
0.0
 11
8.301711414317557
 21
2.431428073203486
 31
0.0
  0
ARC
  5
73C
  8
2
 62
     4
 10
8.573415280712167
 20
0.8688943797022618
 30
0.0
 40
1.04773376428317
 50
145.2887103206877
 51
236.4233984100572
  0
ARC
  5
73D
  8
2
 62
     4
 10
9.204907103725853
 20
0.661230851365761
 30
0.0
 40
1.366875801573983
 50
145.2735401453645
 51
208.700986999395
  0
LINE
  5
73E
  8
2
 62
     4
 10
8.210907903890915
 20
2.331590310722227
 30
0.0
 11
8.209664445448352
 21
2.434923527717507
 31
0.0
  0
ARC
  5
73F
  8
2
 62
     4
 10
7.998424559287849
 20
0.002488350267194
 30
0.0
 40
0.0078914794350407
 50
235.5874033487376
 51
17.06624855552319
  0
LINE
  5
740
  8
2
 62
     4
 10
8.778612038839713
 20
2.33567451313193
 30
0.0
 11
8.778258379729023
 21
2.431428073203487
 31
0.0
  0
LINE
  5
741
  8
2
 62
     4
 10
8.686211410859817
 20
2.432593224708161
 30
0.0
 11
8.778258379729023
 21
2.431428073203487
 31
0.0
  0
ARC
  5
742
  8
2
 62
     4
 10
9.047557462324418
 20
0.8678433084886638
 30
0.0
 40
1.045986356484073
 50
145.3076450811873
 51
236.4635105381651
  0
ARC
  5
743
  8
2
 62
     4
 10
9.682817978844494
 20
0.6617316419526567
 30
0.0
 40
1.369039164449389
 50
145.2431278798137
 51
208.675313756102
  0
LINE
  5
744
  8
2
 62
     4
 10
8.684675383416531
 20
2.332951711525461
 30
0.0
 11
8.686211410859817
 21
2.432593224708161
 31
0.0
  0
ARC
  5
745
  8
2
 62
     4
 10
8.474143388566899
 20
0.0024883502671935
 30
0.0
 40
0.0078914794350414
 50
235.5874033487413
 51
17.06624855552681
  0
LINE
  5
746
  8
2
 62
     4
 10
9.731592601103868
 20
2.332951711525465
 30
0.0
 11
9.730187159047274
 21
2.432593224708162
 31
0.0
  0
LINE
  5
747
  8
2
 62
     4
 10
9.63901734648392
 20
2.332951711525465
 30
0.0
 11
9.640470493187406
 21
2.432593224708161
 31
0.0
  0
LINE
  5
748
  8
2
 62
     4
 10
9.253740919168548
 20
2.328867509115761
 30
0.0
 11
9.255970496645155
 21
2.431428073203487
 31
0.0
  0
LINE
  5
749
  8
2
 62
     4
 10
9.162758376271276
 20
2.431428073203487
 30
0.0
 11
9.255970496645155
 21
2.431428073203487
 31
0.0
  0
ARC
  5
74A
  8
2
 62
     4
 10
9.525925185352749
 20
0.8682506275755015
 30
0.0
 40
1.046663575010188
 50
145.2052166382386
 51
236.4479409495311
  0
ARC
  5
74B
  8
2
 62
     4
 10
10.16192539787556
 20
0.6620489641638844
 30
0.0
 40
1.370376688047493
 50
145.1794670045584
 51
208.6598516889281
  0
LINE
  5
74C
  8
2
 62
     4
 10
9.162527065351833
 20
2.332951711525465
 30
0.0
 11
9.162758376271276
 21
2.431428073203487
 31
0.0
  0
ARC
  5
74D
  8
2
 62
     4
 10
8.951899916829975
 20
0.0024883502671935
 30
0.0
 40
0.0078914794350414
 50
235.5874033487413
 51
17.06624855552681
  0
LINE
  5
74E
  8
2
 62
     4
 10
9.640470493187406
 20
2.432593224708161
 30
0.0
 11
9.730187159047274
 21
2.432593224708162
 31
0.0
  0
ARC
  5
74F
  8
2
 62
     4
 10
10.00160514035416
 20
0.868233108413717
 30
0.0
 40
1.046627489471142
 50
145.1249651951732
 51
236.449184412517
  0
ARC
  5
750
  8
2
 62
     4
 10
10.63511194906153
 20
0.661460202464999
 30
0.0
 40
1.367872461225126
 50
145.2547808190293
 51
208.6890834159966
  0
ARC
  5
751
  8
2
 62
     4
 10
9.427618746109024
 20
0.0024883502671935
 30
0.0
 40
0.0078914794350434
 50
235.58740334872
 51
17.06624855550554
  0
LINE
  5
752
  8
2
 62
     4
 10
10.20672148143272
 20
2.330228909918995
 30
0.0
 11
10.20440382144938
 21
2.432593224708162
 31
0.0
  0
LINE
  5
753
  8
2
 62
     4
 10
10.11495978015887
 20
2.433685820402466
 30
0.0
 11
10.20440382144938
 21
2.432593224708162
 31
0.0
  0
ARC
  5
754
  8
2
 62
     4
 10
10.47296474970147
 20
0.8661580992051869
 30
0.0
 40
1.043183788848606
 50
145.010151707533
 51
236.5282681030845
  0
ARC
  5
755
  8
2
 62
     4
 10
11.10483681743147
 20
0.660379995812747
 30
0.0
 40
1.363197731501439
 50
145.0435217345886
 51
208.7448646445195
  0
LINE
  5
756
  8
2
 62
     4
 10
10.11278482600954
 20
2.334313112328698
 30
0.0
 11
10.11495978015887
 21
2.433685820402466
 31
0.0
  0
ARC
  5
757
  8
2
 62
     4
 10
9.90208214309593
 20
0.0024883502671935
 30
0.0
 40
0.0078914794350414
 50
235.5874033487413
 51
17.06624855552681
  0
LINE
  5
758
  8
2
 62
     4
 10
10.58879690503335
 20
2.432154487542811
 30
0.0
 11
10.68035593621761
 21
2.431959366948706
 31
0.0
  0
ARC
  5
759
  8
2
 62
     4
 10
10.94642122461491
 20
0.8646491731946814
 30
0.0
 40
1.040677894679688
 50
144.9103344701986
 51
236.5863496542533
  0
ARC
  5
75A
  8
2
 62
     4
 10
11.59097541575475
 20
0.6627599511093516
 30
0.0
 40
1.373481128811786
 50
145.2545205370187
 51
208.6228752184242
  0
LINE
  5
75B
  8
2
 62
     4
 10
10.5876818406362
 20
2.330626866085021
 30
0.0
 11
10.58879690503335
 21
2.432154487542806
 31
0.0
  0
ARC
  5
75C
  8
2
 62
     4
 10
10.37780097237498
 20
0.0024883502671935
 30
0.0
 40
0.0078914794350414
 50
235.5874033487413
 51
17.06624855552681
  0
LINE
  5
75D
  8
2
 62
     4
 10
11.0614272626099
 20
2.432154487542811
 30
0.0
 11
11.15298629379416
 21
2.431959366948706
 31
0.0
  0
ARC
  5
75E
  8
2
 62
     4
 10
11.42651726552847
 20
0.8696236549403995
 30
0.0
 40
1.048947191119254
 50
145.3670683547119
 51
236.3955876416662
  0
ARC
  5
75F
  8
2
 62
     4
 10
12.05521331239115
 20
0.6608433622083036
 30
0.0
 40
1.365198170215683
 50
145.1218269751087
 51
208.720997493829
  0
LINE
  5
760
  8
2
 62
     4
 10
11.06053074722674
 20
2.330626866085021
 30
0.0
 11
11.0614272626099
 21
2.432154487542806
 31
0.0
  0
ARC
  5
761
  8
2
 62
     4
 10
10.85043132995152
 20
0.0024883502671935
 30
0.0
 40
0.0078914794350434
 50
235.58740334872
 51
17.06624855550554
  0
LINE
  5
762
  8
2
 62
     4
 10
11.63037430132303
 20
2.330626866085021
 30
0.0
 11
11.6287051230732
 21
2.431959366948706
 31
0.0
  0
LINE
  5
763
  8
2
 62
     4
 10
11.53714609188894
 20
2.432154487542811
 30
0.0
 11
11.6287051230732
 21
2.431959366948706
 31
0.0
  0
ARC
  5
764
  8
2
 62
     4
 10
11.89732883640725
 20
0.8663541422020575
 30
0.0
 40
1.043510619396673
 50
145.2122574877024
 51
236.520644468897
  0
ARC
  5
765
  8
2
 62
     4
 10
12.52770645801128
 20
0.6601067118332691
 30
0.0
 40
1.36201564849943
 50
144.9906288514312
 51
208.7590287329082
  0
LINE
  5
766
  8
2
 62
     4
 10
11.53742109746335
 20
2.330626866085021
 30
0.0
 11
11.53714609188894
 21
2.432154487542806
 31
0.0
  0
ARC
  5
767
  8
2
 62
     4
 10
11.32615015923057
 20
0.0024883502671935
 30
0.0
 40
0.0078914794350434
 50
235.58740334872
 51
17.06624855550554
  0
LINE
  5
768
  8
2
 62
     4
 10
12.10322320791357
 20
2.326585422438948
 30
0.0
 11
12.10316852006011
 21
2.431959366948706
 31
0.0
  0
LINE
  5
769
  8
2
 62
     4
 10
12.01160948887585
 20
2.432154487542811
 30
0.0
 11
12.10316852006011
 21
2.431959366948706
 31
0.0
  0
ARC
  5
76A
  8
2
 62
     4
 10
12.36535285799332
 20
0.8620638403302783
 30
0.0
 40
1.03638430454992
 50
144.9212973779306
 51
236.6867351567822
  0
ARC
  5
76B
  8
2
 62
     4
 10
12.98327660349549
 20
0.6557920541431064
 30
0.0
 40
1.343387448633049
 50
144.8406522283394
 51
208.985399798968
  0
LINE
  5
76C
  8
2
 62
     4
 10
12.01027000405389
 20
2.334668309731094
 30
0.0
 11
12.01160948887585
 21
2.432154487542806
 31
0.0
  0
ARC
  5
76D
  8
2
 62
     4
 10
11.80061355621747
 20
0.0024883502671931
 30
0.0
 40
0.0078914794350414
 50
235.5874033487413
 51
17.06624855552681
  0
LINE
  5
76E
  8
2
 62
     4
 10
12.58011355815018
 20
2.334668309731094
 30
0.0
 11
12.57888734933916
 21
2.431959366948706
 31
0.0
  0
LINE
  5
76F
  8
2
 62
     4
 10
12.4873283181549
 20
2.432154487542811
 30
0.0
 11
12.57888734933916
 21
2.431959366948706
 31
0.0
  0
ARC
  5
770
  8
2
 62
     4
 10
12.84615935904107
 20
0.8654535553808103
 30
0.0
 40
1.042013995552748
 50
145.634877811865
 51
236.555320526341
  0
ARC
  5
771
  8
2
 62
     4
 10
13.47584103719756
 20
0.6596390900362592
 30
0.0
 40
1.359995712961317
 50
144.6985687747254
 51
208.7832631147605
  0
LINE
  5
772
  8
2
 62
     4
 10
12.4871603542905
 20
2.338709753377167
 30
0.0
 11
12.4873283181549
 21
2.432154487542806
 31
0.0
  0
ARC
  5
773
  8
2
 62
     4
 10
12.27633238549652
 20
0.0024883502671931
 30
0.0
 40
0.0078914794350434
 50
235.58740334872
 51
17.06624855550554
  0
LINE
  5
774
  8
2
 62
     4
 10
13.53793570226947
 20
2.326585422438948
 30
0.0
 11
13.53236270688128
 21
2.431959366948706
 31
0.0
  0
LINE
  5
775
  8
2
 62
     4
 10
13.44094105476372
 20
2.334668309731094
 30
0.0
 11
13.44080367569702
 21
2.432154487542806
 31
0.0
  0
LINE
  5
776
  8
2
 62
     4
 10
13.0566947048901
 20
2.331225043801571
 30
0.0
 11
13.05664387760223
 21
2.431959366948706
 31
0.0
  0
LINE
  5
777
  8
2
 62
     4
 10
12.96508484641797
 20
2.432154487542811
 30
0.0
 11
13.05664387760223
 21
2.431959366948706
 31
0.0
  0
ARC
  5
778
  8
2
 62
     4
 10
13.33034040246646
 20
0.8697363184730556
 30
0.0
 40
1.049132655207845
 50
145.3815408223786
 51
236.3914626820535
  0
ARC
  5
779
  8
2
 62
     4
 10
13.9592512856432
 20
0.6609302318632904
 30
0.0
 40
1.365573509322875
 50
145.13724561476
 51
208.7165243368423
  0
LINE
  5
77A
  8
2
 62
     4
 10
12.96525335725682
 20
2.33586775084435
 30
0.0
 11
12.96508484641797
 21
2.432154487542806
 31
0.0
  0
ARC
  5
77B
  8
2
 62
     4
 10
12.75408891375959
 20
0.0024883502671931
 30
0.0
 40
0.0078914794350414
 50
235.5874033487413
 51
17.06624855552681
  0
LINE
  5
77C
  8
2
 62
     4
 10
13.44080367569702
 20
2.432154487542811
 30
0.0
 11
13.53236270688128
 21
2.431959366948706
 31
0.0
  0
ARC
  5
77D
  8
2
 62
     4
 10
13.7962117553098
 20
0.8631729712800027
 30
0.0
 40
1.038225764020966
 50
144.7948246590646
 51
236.6435788013578
  0
ARC
  5
77E
  8
2
 62
     4
 10
14.42077226191131
 20
0.6576878637791768
 30
0.0
 40
1.351569856986836
 50
144.5540948020574
 51
208.8851665084334
  0
ARC
  5
77F
  8
2
 62
     4
 10
13.22980774303864
 20
0.0024883502671931
 30
0.0
 40
0.0078914794350414
 50
235.5874033487413
 51
17.06624855552681
  0
LINE
  5
780
  8
2
 62
     4
 10
14.01078460886001
 20
2.322543978792874
 30
0.0
 11
14.00682610386818
 21
2.431959366948705
 31
0.0
  0
LINE
  5
781
  8
2
 62
     4
 10
13.91526707268393
 20
2.43215448754281
 30
0.0
 11
14.00682610386818
 21
2.431959366948705
 31
0.0
  0
ARC
  5
782
  8
2
 62
     4
 10
14.27120231964
 20
0.8635242020902778
 30
0.0
 40
1.038809025342903
 50
144.5681092272182
 51
236.6299442887263
  0
ARC
  5
783
  8
2
 62
     4
 10
14.8841200635631
 20
0.6551493918339637
 30
0.0
 40
1.34061462695192
 50
144.5116477452161
 51
209.0196556246561
  0
LINE
  5
784
  8
2
 62
     4
 10
13.91378996135426
 20
2.33062686608502
 30
0.0
 11
13.91526707268393
 21
2.432154487542806
 31
0.0
  0
ARC
  5
785
  8
2
 62
     4
 10
13.70427114002555
 20
0.0024883502671931
 30
0.0
 40
0.0078914794350434
 50
235.58740334872
 51
17.06624855550563
  0
ARC
  5
786
  8
2
 62
     4
 10
14.74842236934527
 20
0.864524406054735
 30
0.0
 40
1.040470306817052
 50
145.2442409942114
 51
236.5912008892275
  0
ARC
  5
787
  8
2
 62
     4
 10
14.17998350814062
 20
0.0028750991183695
 30
0.0
 40
0.0082099452406734
 50
237.150162416892
 51
29.2681566636751
  0
ARC
  5
788
  8
2
 62
     4
 10
13.20269523336786
 20
1.991675699485957
 30
0.0
 40
0.8732023001772297
 50
322.2988520124297
 51
22.2664084699646
  0
ARC
  5
789
  8
2
 62
     4
 10
13.14408089113386
 20
1.977849245091097
 30
0.0
 40
0.8467018971596056
 50
319.9846825858421
 51
24.62321397012455
  0
ARC
  5
78A
  8
2
 62
     4
 10
12.67641079114625
 20
1.983641991671665
 30
0.0
 40
0.8412645243663608
 50
319.8773478607467
 51
24.66174147458001
  0
ARC
  5
78B
  8
2
 62
     4
 10
12.72292460637177
 20
1.995871508760698
 30
0.0
 40
0.879553738629285
 50
322.9359490960221
 51
22.08625250069787
  0
ARC
  5
78C
  8
2
 62
     4
 10
12.21379661601797
 20
1.995142324811027
 30
0.0
 40
0.9074297671050715
 50
323.9959408640368
 51
21.73829901580989
  0
ARC
  5
78D
  8
2
 62
     4
 10
12.17895630907488
 20
1.990948555478134
 30
0.0
 40
0.8586223263529252
 50
320.2150407209668
 51
23.68526968292081
  0
ARC
  5
78E
  8
2
 62
     4
 10
11.77603731623052
 20
1.997561438078203
 30
0.0
 40
0.8718828165156382
 50
322.4142293397377
 51
22.74574086973994
  0
ARC
  5
78F
  8
2
 62
     4
 10
11.71919261298826
 20
1.988150061247797
 30
0.0
 40
0.8441958004081165
 50
320.0034771295782
 51
24.53561220574846
  0
ARC
  5
790
  8
2
 62
     4
 10
11.28014279798691
 20
1.992747956971861
 30
0.0
 40
0.8882053898477097
 50
322.6292374524243
 51
22.07723852044121
  0
ARC
  5
791
  8
2
 62
     4
 10
11.21101848521566
 20
1.983968065174702
 30
0.0
 40
0.8728079123708329
 50
320.5502582567215
 51
23.69118543334832
  0
ARC
  5
792
  8
2
 62
     4
 10
10.79051553809022
 20
1.995687060926075
 30
0.0
 40
0.9041832863191228
 50
323.4855571100196
 51
21.74235658744593
  0
ARC
  5
793
  8
2
 62
     4
 10
10.76258112455759
 20
1.986423180872179
 30
0.0
 40
0.8478520864671546
 50
320.0066069982183
 51
23.95201341072491
  0
ARC
  5
794
  8
2
 62
     4
 10
10.29115556854422
 20
2.001106319722506
 30
0.0
 40
0.9231435586152859
 50
324.2466715344534
 51
20.91329867502417
  0
ARC
  5
795
  8
2
 62
     4
 10
10.25862623357178
 20
1.99023682070502
 30
0.0
 40
0.8711579833841847
 50
320.9585129887668
 51
23.00010742017656
  0
ARC
  5
796
  8
2
 62
     4
 10
9.823933101464382
 20
2.008864875820413
 30
0.0
 40
0.9175105031838901
 50
323.7055290696865
 51
20.26028478300296
  0
ARC
  5
797
  8
2
 62
     4
 10
9.787377409609166
 20
1.992506703232269
 30
0.0
 40
0.8687994169249211
 50
320.982787817696
 51
22.90354391461108
  0
ARC
  5
798
  8
2
 62
     4
 10
9.360994834770898
 20
1.998401223302661
 30
0.0
 40
0.9084950052031089
 50
323.8821681486178
 51
21.42296121187951
  0
ARC
  5
799
  8
2
 62
     4
 10
9.327109233529875
 20
1.989266731032435
 30
0.0
 40
0.8581043886753588
 50
320.325369302079
 51
23.70971551109892
  0
ARC
  5
79A
  8
2
 62
     4
 10
8.899985559351405
 20
1.999704230657728
 30
0.0
 40
0.8958929374634975
 50
323.3044860329576
 51
21.83731422631436
  0
ARC
  5
79B
  8
2
 62
     4
 10
8.860166555483874
 20
1.989502665215241
 30
0.0
 40
0.8512143102960608
 50
319.8853804235945
 51
23.79599179054559
  0
ARC
  5
79C
  8
2
 62
     4
 10
8.400979618325245
 20
2.000236039465869
 30
0.0
 40
0.9138930348023275
 50
324.2799896355895
 51
21.07533265048514
  0
ARC
  5
79D
  8
2
 62
     4
 10
8.355507475262318
 20
1.993967377066639
 30
0.0
 40
0.8753233675600944
 50
321.120865043075
 51
22.7845847616993
  0
ARC
  5
79E
  8
2
 62
     4
 10
7.928328350479952
 20
2.00300677884871
 30
0.0
 40
0.9130444524358116
 50
323.9367395278932
 51
21.36758526680084
  0
ARC
  5
79F
  8
2
 62
     4
 10
7.901859880376303
 20
1.989869994078985
 30
0.0
 40
0.8546959556743831
 50
320.151436266935
 51
23.66622329212999
  0
ARC
  5
7A0
  8
2
 62
     4
 10
7.442558174210303
 20
2.002741949635174
 30
0.0
 40
0.919835454432312
 50
324.0854888407264
 51
20.85644682295837
  0
ARC
  5
7A1
  8
2
 62
     4
 10
7.39831379027958
 20
1.994275687431767
 30
0.0
 40
0.8798240440914147
 50
320.9412903845705
 51
22.54374704465896
  0
ARC
  5
7A2
  8
2
 62
     4
 10
6.974165621953281
 20
2.006205692544227
 30
0.0
 40
0.9148535103967704
 50
323.7712363703053
 51
20.74322370847479
  0
ARC
  5
7A3
  8
2
 62
     4
 10
6.926531638744811
 20
1.993443631154101
 30
0.0
 40
0.8775802336373618
 50
320.9903212429879
 51
22.7597832804355
  0
ARC
  5
7A4
  8
2
 62
     4
 10
6.44374002017835
 20
2.006757166620871
 30
0.0
 40
0.9640140694416068
 50
325.5928681494999
 51
19.60578613376017
  0
ARC
  5
7A5
  8
2
 62
     4
 10
6.419075534712857
 20
1.998111741603847
 30
0.0
 40
0.9044755606866314
 50
321.889234184379
 51
21.72816490534844
  0
ARC
  5
7A6
  8
2
 62
     4
 10
6.022432325045474
 20
1.992077040498014
 30
0.0
 40
0.9099385060308939
 50
324.5525195659496
 51
21.81559701124765
  0
ARC
  5
7A7
  8
2
 62
     4
 10
6.001028295299856
 20
1.988361510790126
 30
0.0
 40
0.847697380331887
 50
319.7858906325735
 51
24.26547779937178
  0
ARC
  5
7A8
  8
2
 62
     4
 10
5.557950874343371
 20
1.999132187660731
 30
0.0
 40
0.8949632366619905
 50
322.9124879953334
 51
21.85265085352467
  0
ARC
  5
7A9
  8
2
 62
     4
 10
5.512182629551922
 20
1.989341026855369
 30
0.0
 40
0.8562601700906736
 50
320.2312899841001
 51
23.60819653566016
  0
ARC
  5
7AA
  8
2
 62
     4
 10
5.027907454455886
 20
1.991383968347462
 30
0.0
 40
0.8668020309793415
 50
320.5169278930931
 51
23.64097450096086
  0
ARC
  5
7AB
  8
2
 62
     4
 10
5.085016114386792
 20
2.000872654131134
 30
0.0
 40
0.8942440798237501
 50
323.068349414146
 51
22.06035416100357
  0
ARC
  5
7AC
  8
2
 62
     4
 10
4.580052712032706
 20
2.003425649417773
 30
0.0
 40
0.9184313906027336
 50
324.2090567969952
 51
21.12928250810986
  0
ARC
  5
7AD
  8
2
 62
     4
 10
4.51878943577337
 20
1.998280236096263
 30
0.0
 40
0.8956863523884761
 50
321.4611916165314
 51
22.35679820111084
  0
ARC
  5
7AE
  8
2
 62
     4
 10
4.123133123237797
 20
2.001179839640303
 30
0.0
 40
0.9013401371331615
 50
323.9238394004008
 51
21.85663098341074
  0
ARC
  5
7AF
  8
2
 62
     4
 10
4.103257709130304
 20
1.995333056609204
 30
0.0
 40
0.8373567954761401
 50
319.8418650548898
 51
24.06134534979107
  0
ARC
  5
7B0
  8
2
 62
     4
 10
3.610246935942449
 20
2.004767370967851
 30
0.0
 40
0.9355034950756491
 50
324.4468174566879
 51
20.78456575262324
  0
ARC
  5
7B1
  8
2
 62
     4
 10
3.575442653180737
 20
1.997024779214167
 30
0.0
 40
0.886227100185028
 50
320.7338746761266
 51
22.69650315203271
  0
ARC
  5
7B2
  8
2
 62
     4
 10
3.156358590325995
 20
2.003726924149409
 30
0.0
 40
0.9155354942109054
 50
323.9488538504867
 51
21.17911498470219
  0
ARC
  5
7B3
  8
2
 62
     4
 10
3.131504314688121
 20
1.996232362289726
 30
0.0
 40
0.8563617841635816
 50
320.3536538394772
 51
23.26601964126754
  0
ARC
  5
7B4
  8
2
 62
     4
 10
2.64560370689934
 20
2.009391851528708
 30
0.0
 40
0.945847444847273
 50
324.8557924704152
 51
20.24804993261777
  0
ARC
  5
7B5
  8
2
 62
     4
 10
2.626608297788867
 20
1.999964835219187
 30
0.0
 40
0.8805835436465015
 50
321.1081857149188
 51
22.32730353482547
  0
ARC
  5
7B6
  8
2
 62
     4
 10
2.188614009203143
 20
2.014793565454851
 30
0.0
 40
0.9296970374689006
 50
324.3670571865814
 51
19.84193742610689
  0
ARC
  5
7B7
  8
2
 62
     4
 10
2.099089337034297
 20
2.008756280705566
 30
0.0
 40
0.9349525491976226
 50
322.5489936755377
 51
20.47933919872127
  0
ARC
  5
7B8
  8
2
 62
     4
 10
1.718331603581335
 20
2.004913160080297
 30
0.0
 40
0.9281053801230008
 50
324.3174862280459
 51
20.70907459005517
  0
ARC
  5
7B9
  8
2
 62
     4
 10
1.66835324108353
 20
1.997268292263233
 30
0.0
 40
0.8938135573234727
 50
321.2231877504195
 51
22.26095667640159
  0
ARC
  5
7BA
  8
2
 62
     4
 10
1.244027780334907
 20
2.010897218945858
 30
0.0
 40
0.9292996293021635
 50
324.0197426604411
 51
20.83166972681999
  0
ARC
  5
7BB
  8
2
 62
     4
 10
1.202351885447512
 20
1.99432314959892
 30
0.0
 40
0.8855395737127296
 50
321.2653102671097
 51
22.30075420639232
  0
ARC
  5
7BC
  8
2
 62
     4
 10
0.6825103724903333
 20
2.012226272061328
 30
0.0
 40
1.009463539363762
 50
326.6107635594673
 51
18.69966171365985
  0
ARC
  5
7BD
  8
2
 62
     4
 10
0.6705480861315344
 20
2.005185734541662
 30
0.0
 40
0.9374757728457531
 50
323.0459939518156
 51
20.65478941035702
  0
ARC
  5
7BE
  8
2
 62
     4
 10
0.2728087159607865
 20
2.009821730475596
 30
0.0
 40
0.945488844296685
 50
324.9103122022086
 51
20.3502388373237
  0
ARC
  5
7BF
  8
2
 62
     4
 10
0.2732409377738735
 20
1.999618774204499
 30
0.0
 40
0.8607606515806494
 50
320.4221288246621
 51
22.99443174519321
  0
ARC
  5
7C0
  8
2
 62
     4
 10
-0.1894731345061324
 20
2.002267929791781
 30
0.0
 40
0.9280213116829632
 50
324.5145789774297
 51
21.43294460182397
  0
ARC
  5
7C1
  8
2
 62
     4
 10
15.33418603616151
 20
0.7032253102831816
 30
0.0
 40
1.341859392621144
 50
145.1297826445537
 51
211.260769744832
  0
ARC
  5
7C2
  8
2
 62
     4
 10
13.43982497163217
 20
2.076213002441197
 30
0.0
 40
0.9982762497294616
 50
322.6367169800709
 51
15.73228572429036
  0
CIRCLE
  5
7C4
  8
1
 62
     1
 10
0.425294143860975
 20
2.662099045374033
 30
0.0
 40
0.1066773002611003
  0
CIRCLE
  5
7C5
  8
1
 62
     1
 10
14.65211604533808
 20
2.677938886388075
 30
0.0
 40
0.1066773002611008
  0
ENDSEC
  0
EOF
