  0
SECTION
  2
HEADER
  9
$ACADVER
  1
AC1018
  9
$ACADMAINTVER
 70
     0
  9
$DWGCODEPAGE
  3
ANSI_1252
  9
$INSBASE
 10
0.0
 20
0.0
 30
0.0
  9
$EXTMIN
 10
1.000000000000000E+20
 20
1.000000000000000E+20
 30
1.000000000000000E+20
  9
$EXTMAX
 10
-1.000000000000000E+20
 20
-1.000000000000000E+20
 30
-1.000000000000000E+20
  9
$LIMMIN
 10
0.0
 20
0.0
  9
$LIMMAX
 10
12.0
 20
9.0
  9
$ORTHOMODE
 70
     0
  9
$REGENMODE
 70
     1
  9
$FILLMODE
 70
     1
  9
$QTEXTMODE
 70
     0
  9
$MIRRTEXT
 70
     1
  9
$LTSCALE
 40
1.0
  9
$ATTMODE
 70
     1
  9
$TEXTSIZE
 40
0.2
  9
$TRACEWID
 40
0.05
  9
$TEXTSTYLE
  7
Standard
  9
$CLAYER
  8
0
  9
$CELTYPE
  6
ByLayer
  9
$CECOLOR
 62
   256
  9
$CELTSCALE
 40
1.0
  9
$DISPSILH
 70
     0
  9
$DIMSCALE
 40
1.0
  9
$DIMASZ
 40
0.18
  9
$DIMEXO
 40
0.0625
  9
$DIMDLI
 40
0.38
  9
$DIMRND
 40
0.0
  9
$DIMDLE
 40
0.0
  9
$DIMEXE
 40
0.18
  9
$DIMTP
 40
0.0
  9
$DIMTM
 40
0.0
  9
$DIMTXT
 40
0.18
  9
$DIMCEN
 40
0.09
  9
$DIMTSZ
 40
0.0
  9
$DIMTOL
 70
     0
  9
$DIMLIM
 70
     0
  9
$DIMTIH
 70
     1
  9
$DIMTOH
 70
     1
  9
$DIMSE1
 70
     0
  9
$DIMSE2
 70
     0
  9
$DIMTAD
 70
     0
  9
$DIMZIN
 70
     0
  9
$DIMBLK
  1

  9
$DIMASO
 70
     1
  9
$DIMSHO
 70
     1
  9
$DIMPOST
  1

  9
$DIMAPOST
  1

  9
$DIMALT
 70
     0
  9
$DIMALTD
 70
     2
  9
$DIMALTF
 40
25.4
  9
$DIMLFAC
 40
1.0
  9
$DIMTOFL
 70
     0
  9
$DIMTVP
 40
0.0
  9
$DIMTIX
 70
     0
  9
$DIMSOXD
 70
     0
  9
$DIMSAH
 70
     0
  9
$DIMBLK1
  1

  9
$DIMBLK2
  1

  9
$DIMSTYLE
  2
Standard
  9
$DIMCLRD
 70
     0
  9
$DIMCLRE
 70
     0
  9
$DIMCLRT
 70
     0
  9
$DIMTFAC
 40
1.0
  9
$DIMGAP
 40
0.09
  9
$DIMJUST
 70
     0
  9
$DIMSD1
 70
     0
  9
$DIMSD2
 70
     0
  9
$DIMTOLJ
 70
     1
  9
$DIMTZIN
 70
     0
  9
$DIMALTZ
 70
     0
  9
$DIMALTTZ
 70
     0
  9
$DIMUPT
 70
     0
  9
$DIMDEC
 70
     4
  9
$DIMTDEC
 70
     4
  9
$DIMALTU
 70
     2
  9
$DIMALTTD
 70
     2
  9
$DIMTXSTY
  7
Standard
  9
$DIMAUNIT
 70
     0
  9
$DIMADEC
 70
     0
  9
$DIMALTRND
 40
0.0
  9
$DIMAZIN
 70
     0
  9
$DIMDSEP
 70
    46
  9
$DIMATFIT
 70
     3
  9
$DIMFRAC
 70
     0
  9
$DIMLDRBLK
  1

  9
$DIMLUNIT
 70
     2
  9
$DIMLWD
 70
    -2
  9
$DIMLWE
 70
    -2
  9
$DIMTMOVE
 70
     0
  9
$LUNITS
 70
     2
  9
$LUPREC
 70
     4
  9
$SKETCHINC
 40
0.1
  9
$FILLETRAD
 40
0.5
  9
$AUNITS
 70
     0
  9
$AUPREC
 70
     0
  9
$MENU
  1
.
  9
$ELEVATION
 40
0.0
  9
$PELEVATION
 40
0.0
  9
$THICKNESS
 40
0.0
  9
$LIMCHECK
 70
     0
  9
$CHAMFERA
 40
0.5
  9
$CHAMFERB
 40
0.5
  9
$CHAMFERC
 40
1.0
  9
$CHAMFERD
 40
0.0
  9
$SKPOLY
 70
     0
  9
$TDCREATE
 40
2455736.904479155
  9
$TDUCREATE
 40
2455737.154479155
  9
$TDUPDATE
 40
2455736.904479166
  9
$TDUUPDATE
 40
2455737.154479166
  9
$TDINDWG
 40
0.0000000116
  9
$TDUSRTIMER
 40
0.0000000116
  9
$USRTIMER
 70
     1
  9
$ANGBASE
 50
0.0
  9
$ANGDIR
 70
     0
  9
$PDMODE
 70
     0
  9
$PDSIZE
 40
0.0
  9
$PLINEWID
 40
0.0
  9
$SPLFRAME
 70
     0
  9
$SPLINETYPE
 70
     6
  9
$SPLINESEGS
 70
     8
  9
$HANDSEED
  5
4D
  9
$SURFTAB1
 70
     6
  9
$SURFTAB2
 70
     6
  9
$SURFTYPE
 70
     6
  9
$SURFU
 70
     6
  9
$SURFV
 70
     6
  9
$UCSBASE
  2

  9
$UCSNAME
  2

  9
$UCSORG
 10
0.0
 20
0.0
 30
0.0
  9
$UCSXDIR
 10
1.0
 20
0.0
 30
0.0
  9
$UCSYDIR
 10
0.0
 20
1.0
 30
0.0
  9
$UCSORTHOREF
  2

  9
$UCSORTHOVIEW
 70
     0
  9
$UCSORGTOP
 10
0.0
 20
0.0
 30
0.0
  9
$UCSORGBOTTOM
 10
0.0
 20
0.0
 30
0.0
  9
$UCSORGLEFT
 10
0.0
 20
0.0
 30
0.0
  9
$UCSORGRIGHT
 10
0.0
 20
0.0
 30
0.0
  9
$UCSORGFRONT
 10
0.0
 20
0.0
 30
0.0
  9
$UCSORGBACK
 10
0.0
 20
0.0
 30
0.0
  9
$PUCSBASE
  2

  9
$PUCSNAME
  2

  9
$PUCSORG
 10
0.0
 20
0.0
 30
0.0
  9
$PUCSXDIR
 10
1.0
 20
0.0
 30
0.0
  9
$PUCSYDIR
 10
0.0
 20
1.0
 30
0.0
  9
$PUCSORTHOREF
  2

  9
$PUCSORTHOVIEW
 70
     0
  9
$PUCSORGTOP
 10
0.0
 20
0.0
 30
0.0
  9
$PUCSORGBOTTOM
 10
0.0
 20
0.0
 30
0.0
  9
$PUCSORGLEFT
 10
0.0
 20
0.0
 30
0.0
  9
$PUCSORGRIGHT
 10
0.0
 20
0.0
 30
0.0
  9
$PUCSORGFRONT
 10
0.0
 20
0.0
 30
0.0
  9
$PUCSORGBACK
 10
0.0
 20
0.0
 30
0.0
  9
$USERI1
 70
     0
  9
$USERI2
 70
     0
  9
$USERI3
 70
     0
  9
$USERI4
 70
     0
  9
$USERI5
 70
     0
  9
$USERR1
 40
0.0
  9
$USERR2
 40
0.0
  9
$USERR3
 40
0.0
  9
$USERR4
 40
0.0
  9
$USERR5
 40
0.0
  9
$WORLDVIEW
 70
     1
  9
$SHADEDGE
 70
     3
  9
$SHADEDIF
 70
    70
  9
$TILEMODE
 70
     1
  9
$MAXACTVP
 70
    64
  9
$PINSBASE
 10
0.0
 20
0.0
 30
0.0
  9
$PLIMCHECK
 70
     0
  9
$PEXTMIN
 10
1.000000000000000E+20
 20
1.000000000000000E+20
 30
1.000000000000000E+20
  9
$PEXTMAX
 10
-1.000000000000000E+20
 20
-1.000000000000000E+20
 30
-1.000000000000000E+20
  9
$PLIMMIN
 10
0.0
 20
0.0
  9
$PLIMMAX
 10
12.0
 20
9.0
  9
$UNITMODE
 70
     0
  9
$VISRETAIN
 70
     1
  9
$PLINEGEN
 70
     0
  9
$PSLTSCALE
 70
     1
  9
$TREEDEPTH
 70
  3020
  9
$CMLSTYLE
  2
Standard
  9
$CMLJUST
 70
     0
  9
$CMLSCALE
 40
1.0
  9
$PROXYGRAPHICS
 70
     1
  9
$MEASUREMENT
 70
     0
  9
$CELWEIGHT
370
    -1
  9
$ENDCAPS
280
     0
  9
$JOINSTYLE
280
     0
  9
$LWDISPLAY
290
     1
  9
$INSUNITS
 70
     1
  9
$HYPERLINKBASE
  1

  9
$STYLESHEET
  1

  9
$XEDIT
290
     1
  9
$CEPSNTYPE
380
     0
  9
$PSTYLEMODE
290
     1
  9
$FINGERPRINTGUID
  2
{734D59F7-FDD6-4C3F-AE2B-1A55E5248B94}
  9
$VERSIONGUID
  2
{FAEB1C32-E019-11D5-929B-00C0DF256EC4}
  9
$EXTNAMES
290
     1
  9
$PSVPSCALE
 40
0.0
  9
$OLESTARTUP
290
     0
  9
$SORTENTS
280
   127
  9
$INDEXCTL
280
     0
  9
$HIDETEXT
280
     1
  9
$XCLIPFRAME
290
     0
  9
$HALOGAP
280
     0
  9
$OBSCOLOR
 70
   257
  9
$OBSLTYPE
280
     0
  9
$INTERSECTIONDISPLAY
280
     0
  9
$INTERSECTIONCOLOR
 70
   257
  9
$DIMASSOC
280
     2
  9
$PROJECTNAME
  1

  0
ENDSEC
  0
SECTION
  2
CLASSES
  0
CLASS
  1
ACDBDICTIONARYWDFLT
  2
AcDbDictionaryWithDefault
  3
ObjectDBX Classes
 90
        0
 91
        3
280
     0
281
     0
  0
CLASS
  1
VISUALSTYLE
  2
AcDbVisualStyle
  3
ObjectDBX Classes
 90
     4095
 91
        3
280
     0
281
     0
  0
ENDSEC
  0
SECTION
  2
TABLES
  0
TABLE
  2
VPORT
  5
8
330
0
100
AcDbSymbolTable
 70
     1
  0
VPORT
  5
29
330
8
100
AcDbSymbolTableRecord
100
AcDbViewportTableRecord
  2
*Active
 70
     0
 10
0.0
 20
0.0
 11
1.0
 21
1.0
 12
0.0
 22
0.0
 13
0.0
 23
0.0
 14
0.5
 24
0.5
 15
0.5
 25
0.5
 16
0.0
 26
0.0
 36
1.0
 17
50.7999999873
 27
15.66657171917364
 37
0.0
 40
31.33314343834727
 41
3.242572842221001
 42
50.0
 43
0.0
 44
0.0
 50
0.0
 51
0.0
 71
     0
 72
   100
 73
     1
 74
     3
 75
     0
 76
     0
 77
     0
 78
     0
281
     0
 65
     1
110
0.0
120
0.0
130
0.0
111
1.0
121
0.0
131
0.0
112
0.0
122
1.0
132
0.0
 79
     0
146
0.0
  0
ENDTAB
  0
TABLE
  2
LTYPE
  5
5
330
0
100
AcDbSymbolTable
 70
     1
  0
LTYPE
  5
14
330
5
100
AcDbSymbolTableRecord
100
AcDbLinetypeTableRecord
  2
ByBlock
 70
     0
  3

 72
    65
 73
     0
 40
0.0
  0
LTYPE
  5
15
330
5
100
AcDbSymbolTableRecord
100
AcDbLinetypeTableRecord
  2
ByLayer
 70
     0
  3

 72
    65
 73
     0
 40
0.0
  0
LTYPE
  5
16
330
5
100
AcDbSymbolTableRecord
100
AcDbLinetypeTableRecord
  2
Continuous
 70
     0
  3
Solid line
 72
    65
 73
     0
 40
0.0
  0
ENDTAB
  0
TABLE
  2
LAYER
  5
2
330
0
100
AcDbSymbolTable
 70
     2
  0
LAYER
  5
10
330
2
100
AcDbSymbolTableRecord
100
AcDbLayerTableRecord
  2
0
 70
     0
 62
     7
  6
Continuous
370
    -3
390
F
  0
LAYER
  5
3B
330
2
100
AcDbSymbolTableRecord
100
AcDbLayerTableRecord
  2
Layer 1
 70
     0
 62
     7
  6
Continuous
370
    -3
390
F
  0
ENDTAB
  0
TABLE
  2
STYLE
  5
3
330
0
100
AcDbSymbolTable
 70
     1
  0
STYLE
  5
11
330
3
100
AcDbSymbolTableRecord
100
AcDbTextStyleTableRecord
  2
Standard
 70
     0
 40
0.0
 41
1.0
 50
0.0
 71
     0
 42
0.2
  3
txt
  4

  0
ENDTAB
  0
TABLE
  2
VIEW
  5
6
330
0
100
AcDbSymbolTable
 70
     0
  0
ENDTAB
  0
TABLE
  2
UCS
  5
7
330
0
100
AcDbSymbolTable
 70
     0
  0
ENDTAB
  0
TABLE
  2
APPID
  5
9
330
0
100
AcDbSymbolTable
 70
     1
  0
APPID
  5
12
330
9
100
AcDbSymbolTableRecord
100
AcDbRegAppTableRecord
  2
ACAD
 70
     0
  0
ENDTAB
  0
TABLE
  2
DIMSTYLE
  5
A
330
0
100
AcDbSymbolTable
 70
     1
100
AcDbDimStyleTable
  0
DIMSTYLE
105
27
330
A
100
AcDbSymbolTableRecord
100
AcDbDimStyleTableRecord
  2
Standard
 70
     0
340
11
  0
ENDTAB
  0
TABLE
  2
BLOCK_RECORD
  5
1
330
0
100
AcDbSymbolTable
 70
     1
  0
BLOCK_RECORD
  5
1F
330
1
100
AcDbSymbolTableRecord
100
AcDbBlockTableRecord
  2
*Model_Space
340
22
  0
BLOCK_RECORD
  5
1B
330
1
100
AcDbSymbolTableRecord
100
AcDbBlockTableRecord
  2
*Paper_Space
340
1E
  0
BLOCK_RECORD
  5
23
330
1
100
AcDbSymbolTableRecord
100
AcDbBlockTableRecord
  2
*Paper_Space0
340
26
  0
ENDTAB
  0
ENDSEC
  0
SECTION
  2
BLOCKS
  0
BLOCK
  5
20
330
1F
100
AcDbEntity
  8
0
100
AcDbBlockBegin
  2
*Model_Space
 70
     0
 71
     0
 10
0.0
 20
0.0
 30
0.0
  3
*Model_Space
  1

  0
ENDBLK
  5
21
330
1F
100
AcDbEntity
  8
0
100
AcDbBlockEnd
  0
BLOCK
  5
1C
330
1B
100
AcDbEntity
 67
     1
  8
0
100
AcDbBlockBegin
  2
*Paper_Space
 70
     0
 71
     0
 10
0.0
 20
0.0
 30
0.0
  3
*Paper_Space
  1

  0
ENDBLK
  5
1D
330
1B
100
AcDbEntity
 67
     1
  8
0
100
AcDbBlockEnd
  0
BLOCK
  5
24
330
23
100
AcDbEntity
  8
0
100
AcDbBlockBegin
  2
*Paper_Space0
 70
     0
 71
     0
 10
0.0
 20
0.0
 30
0.0
  3
*Paper_Space0
  1

  0
ENDBLK
  5
25
330
23
100
AcDbEntity
  8
0
100
AcDbBlockEnd
  0
ENDSEC
  0
SECTION
  2
ENTITIES
  0
SPLINE
  5
3C
330
1F
100
AcDbEntity
  8
Layer 1
370
     0
100
AcDbSpline
210
0.0
220
0.0
230
1.0
 70
    11
 71
     3
 72
    17
 73
    13
 74
     0
 42
0.0000000001
 43
0.0000000001
 40
0.0
 40
0.0
 40
0.0
 40
0.0
 40
1.0
 40
1.0
 40
1.0
 40
2.0
 40
2.0
 40
2.0
 40
3.0
 40
3.0
 40
3.0
 40
4.0
 40
4.0
 40
4.0
 40
4.0
 10
50.94314370471213
 20
11.39809841294909
 30
0.0
 10
49.81745875490675
 20
11.39809841294909
 30
0.0
 10
48.90536972518685
 20
10.48549261890641
 30
0.0
 10
48.90536972518685
 20
9.359635414326759
 30
0.0
 10
48.90536972518685
 20
8.23515624794121
 30
0.0
 10
49.81745875490675
 20
7.322205944350005
 30
0.0
 10
50.94314370471213
 20
7.322205944350005
 30
0.0
 10
52.06882865451752
 20
7.322205944350005
 30
0.0
 10
52.98074542946315
 20
8.23515624794121
 30
0.0
 10
52.98074542946315
 20
9.359635414326759
 30
0.0
 10
52.98074542946315
 20
10.48549261890641
 30
0.0
 10
52.06882865451752
 20
11.39809841294909
 30
0.0
 10
50.94314370471213
 20
11.39809841294909
 30
0.0
  0
HATCH
  5
3D
330
1F
100
AcDbEntity
  8
Layer 1
 62
    20
420
 15751720
100
AcDbHatch
 10
0.0
 20
0.0
 30
0.0
210
0.0
220
0.0
230
1.0
  2
SOLID
 70
     1
 71
     0
 91
        1
 92
        1
 93
        1
 72
     4
 94
        3
 73
     0
 74
     1
 95
       17
 96
       13
 40
0.0
 40
0.0
 40
0.0
 40
0.0
 40
1.0
 40
1.0
 40
1.0
 40
2.0
 40
2.0
 40
2.0
 40
3.0
 40
3.0
 40
3.0
 40
4.0
 40
4.0
 40
4.0
 40
4.0
 10
50.94314370471213
 20
11.39809841294909
 10
49.81745875490675
 20
11.39809841294909
 10
48.90536972518685
 20
10.48549261890641
 10
48.90536972518685
 20
9.359635414326759
 10
48.90536972518685
 20
8.23515624794121
 10
49.81745875490675
 20
7.322205944350005
 10
50.94314370471213
 20
7.322205944350005
 10
52.06882865451752
 20
7.322205944350005
 10
52.98074542946315
 20
8.23515624794121
 10
52.98074542946315
 20
9.359635414326759
 10
52.98074542946315
 20
10.48549261890641
 10
52.06882865451752
 20
11.39809841294909
 10
50.94314370471213
 20
11.39809841294909
 97
        0
 75
     2
 76
     1
 98
        0
  0
SPLINE
  5
3E
330
1F
100
AcDbEntity
  8
Layer 1
370
     0
100
AcDbSpline
210
0.0
220
0.0
230
1.0
 70
    11
 71
     3
 72
    17
 73
    13
 74
     0
 42
0.0000000001
 43
0.0000000001
 40
0.0
 40
0.0
 40
0.0
 40
0.0
 40
1.0
 40
1.0
 40
1.0
 40
2.0
 40
2.0
 40
2.0
 40
3.0
 40
3.0
 40
3.0
 40
4.0
 40
4.0
 40
4.0
 40
4.0
 10
14.79961344031051
 20
11.39809841294909
 30
0.0
 10
13.67375623573087
 20
11.39809841294909
 30
0.0
 10
12.76183946078524
 20
10.48549261890641
 30
0.0
 10
12.76183946078524
 20
9.359635414326759
 30
0.0
 10
12.76183946078524
 20
8.23515624794121
 30
0.0
 10
13.67375623573087
 20
7.322205944350005
 30
0.0
 10
14.79961344031051
 20
7.322205944350005
 30
0.0
 10
15.92512613534164
 20
7.322205944350005
 30
0.0
 10
16.83738741983579
 20
8.23515624794121
 30
0.0
 10
16.83738741983579
 20
9.359635414326759
 30
0.0
 10
16.83738741983579
 20
10.48549261890641
 30
0.0
 10
15.92512613534164
 20
11.39809841294909
 30
0.0
 10
14.79961344031051
 20
11.39809841294909
 30
0.0
  0
HATCH
  5
3F
330
1F
100
AcDbEntity
  8
Layer 1
 62
    20
420
 15751720
100
AcDbHatch
 10
0.0
 20
0.0
 30
0.0
210
0.0
220
0.0
230
1.0
  2
SOLID
 70
     1
 71
     0
 91
        1
 92
        1
 93
        1
 72
     4
 94
        3
 73
     0
 74
     1
 95
       17
 96
       13
 40
0.0
 40
0.0
 40
0.0
 40
0.0
 40
1.0
 40
1.0
 40
1.0
 40
2.0
 40
2.0
 40
2.0
 40
3.0
 40
3.0
 40
3.0
 40
4.0
 40
4.0
 40
4.0
 40
4.0
 10
14.79961344031051
 20
11.39809841294909
 10
13.67375623573087
 20
11.39809841294909
 10
12.76183946078524
 20
10.48549261890641
 10
12.76183946078524
 20
9.359635414326759
 10
12.76183946078524
 20
8.23515624794121
 10
13.67375623573087
 20
7.322205944350005
 10
14.79961344031051
 20
7.322205944350005
 10
15.92512613534164
 20
7.322205944350005
 10
16.83738741983579
 20
8.23515624794121
 10
16.83738741983579
 20
9.359635414326759
 10
16.83738741983579
 20
10.48549261890641
 10
15.92512613534164
 20
11.39809841294909
 10
14.79961344031051
 20
11.39809841294909
 97
        0
 75
     2
 76
     1
 98
        0
  0
SPLINE
  5
40
330
1F
100
AcDbEntity
  8
Layer 1
370
     0
100
AcDbSpline
210
0.0
220
0.0
230
1.0
 70
    11
 71
     3
 72
   155
 73
   151
 74
     0
 42
0.0000000001
 43
0.0000000001
 40
0.0
 40
0.0
 40
0.0
 40
0.0
 40
1.0
 40
1.0
 40
1.0
 40
2.0
 40
2.0
 40
2.0
 40
3.0
 40
3.0
 40
3.0
 40
4.0
 40
4.0
 40
4.0
 40
5.0
 40
5.0
 40
5.0
 40
6.0
 40
6.0
 40
6.0
 40
7.0
 40
7.0
 40
7.0
 40
8.0
 40
8.0
 40
8.0
 40
9.0
 40
9.0
 40
9.0
 40
10.0
 40
10.0
 40
10.0
 40
11.0
 40
11.0
 40
11.0
 40
12.0
 40
12.0
 40
12.0
 40
13.0
 40
13.0
 40
13.0
 40
14.0
 40
14.0
 40
14.0
 40
15.0
 40
15.0
 40
15.0
 40
16.0
 40
16.0
 40
16.0
 40
17.0
 40
17.0
 40
17.0
 40
18.0
 40
18.0
 40
18.0
 40
19.0
 40
19.0
 40
19.0
 40
20.0
 40
20.0
 40
20.0
 40
21.0
 40
21.0
 40
21.0
 40
22.0
 40
22.0
 40
22.0
 40
23.0
 40
23.0
 40
23.0
 40
24.0
 40
24.0
 40
24.0
 40
25.0
 40
25.0
 40
25.0
 40
26.0
 40
26.0
 40
26.0
 40
27.0
 40
27.0
 40
27.0
 40
28.0
 40
28.0
 40
28.0
 40
29.0
 40
29.0
 40
29.0
 40
30.0
 40
30.0
 40
30.0
 40
31.0
 40
31.0
 40
31.0
 40
32.0
 40
32.0
 40
32.0
 40
33.0
 40
33.0
 40
33.0
 40
34.0
 40
34.0
 40
34.0
 40
35.0
 40
35.0
 40
35.0
 40
36.0
 40
36.0
 40
36.0
 40
37.0
 40
37.0
 40
37.0
 40
38.0
 40
38.0
 40
38.0
 40
39.0
 40
39.0
 40
39.0
 40
40.0
 40
40.0
 40
40.0
 40
41.0
 40
41.0
 40
41.0
 40
42.0
 40
42.0
 40
42.0
 40
43.0
 40
43.0
 40
43.0
 40
44.0
 40
44.0
 40
44.0
 40
45.0
 40
45.0
 40
45.0
 40
46.0
 40
46.0
 40
46.0
 40
47.0
 40
47.0
 40
47.0
 40
48.0
 40
48.0
 40
48.0
 40
49.0
 40
49.0
 40
49.0
 40
50.0
 40
50.0
 40
50.0
 40
50.0
 10
101.5772623443974
 20
21.51841091041901
 30
0.0
 10
101.5772623443974
 20
21.51841091041901
 30
0.0
 10
100.2247178568883
 20
30.15974391607118
 30
0.0
 10
100.2247178568883
 20
30.15974391607118
 30
0.0
 10
100.2247178568883
 20
30.15974391607118
 30
0.0
 10
100.2247178568883
 20
30.16077744471675
 30
0.0
 10
100.2247178568883
 20
30.16077744471675
 30
0.0
 10
100.1837212206138
 20
30.4944349424632
 30
0.0
 10
100.0424723057185
 20
30.79088540896895
 30
0.0
 10
99.84920244899604
 20
30.99621309988984
 30
0.0
 10
99.65903317821025
 20
31.20343559332762
 30
0.0
 10
99.40995277462669
 20
31.32918157853923
 30
0.0
 10
99.14089081722867
 20
31.33297118357301
 30
0.0
 10
99.09748261411453
 20
31.33400471221858
 30
0.0
 10
99.04442814364168
 20
31.33038736195907
 30
0.0
 10
98.98517250129538
 20
31.3210856041489
 30
0.0
 10
98.98517250129538
 20
31.3210856041489
 30
0.0
 10
98.98517250129538
 20
31.32177462324595
 30
0.0
 10
98.98517250129538
 20
31.32177462324595
 30
0.0
 10
98.98517250129538
 20
31.32177462324595
 30
0.0
 10
95.39159340063128
 20
30.74437661991808
 30
0.0
 10
95.39159340063128
 20
30.74437661991808
 30
0.0
 10
95.39159340063128
 20
30.74437661991808
 30
0.0
 10
95.3905598719857
 20
30.74437661991808
 30
0.0
 10
95.3905598719857
 20
30.74437661991808
 30
0.0
 10
95.10909557084078
 20
30.69993488815835
 30
0.0
 10
94.8376220466031
 20
30.53164197370389
 30
0.0
 10
94.6281602410999
 20
30.29444714954445
 30
0.0
 10
94.41594235920851
 20
30.05845810880483
 30
0.0
 10
94.25677894778998
 20
29.74667696738972
 30
0.0
 10
94.19717879589516
 20
29.41250270532049
 30
0.0
 10
94.18512096169678
 20
29.34549559813238
 30
0.0
 10
94.1785752802748
 20
29.28417289849493
 30
0.0
 10
94.17478567524103
 20
29.23025715415077
 30
0.0
 10
94.17478567524103
 20
29.23025715415077
 30
0.0
 10
94.17375214659546
 20
29.21664902698403
 30
0.0
 10
94.17375214659546
 20
29.21664902698403
 30
0.0
 10
94.17375214659546
 20
29.21664902698403
 30
0.0
 10
94.11311846605506
 20
26.37444525165292
 30
0.0
 10
94.11311846605506
 20
26.37444525165292
 30
0.0
 10
94.11311846605506
 20
26.37444525165292
 30
0.0
 10
63.75838214551874
 20
22.0070977050017
 30
0.0
 10
63.75838214551874
 20
22.0070977050017
 30
0.0
 10
63.75838214551874
 20
22.0070977050017
 30
0.0
 10
63.75838214551874
 20
26.08867458115144
 30
0.0
 10
63.75838214551874
 20
26.08867458115144
 30
0.0
 10
63.75838214551874
 20
26.08867458115144
 30
0.0
 10
65.30695256613855
 20
26.08867458115144
 30
0.0
 10
65.30695256613855
 20
26.08867458115144
 30
0.0
 10
65.60977645929201
 20
26.08867458115144
 30
0.0
 10
65.85541176739032
 20
26.33430988924976
 30
0.0
 10
65.85541176739032
 20
26.63730603717748
 30
0.0
 10
65.85541176739032
 20
26.63730603717748
 30
0.0
 10
65.85541176739032
 20
28.73519693292037
 30
0.0
 10
65.85541176739032
 20
28.73519693292037
 30
0.0
 10
65.85541176739032
 20
29.03819308084809
 30
0.0
 10
65.60977645929201
 20
29.28365613417214
 30
0.0
 10
65.30695256613855
 20
29.28365613417214
 30
0.0
 10
65.30695256613855
 20
29.28365613417214
 30
0.0
 10
0.5486314560260366
 20
29.28365613417214
 30
0.0
 10
0.5486314560260366
 20
29.28365613417214
 30
0.0
 10
0.2454630533240509
 20
29.28365613417214
 30
0.0
 10
0.0
 20
29.03819308084809
 30
0.0
 10
0.0
 20
28.73519693292037
 30
0.0
 10
0.0
 20
28.73519693292037
 30
0.0
 10
0.0
 20
26.63730603717748
 30
0.0
 10
0.0
 20
26.63730603717748
 30
0.0
 10
0.0
 20
26.33430988924976
 30
0.0
 10
0.2454630533240509
 20
26.08867458115144
 30
0.0
 10
0.5486314560260366
 20
26.08867458115144
 30
0.0
 10
0.5486314560260366
 20
26.08867458115144
 30
0.0
 10
1.886189778174286
 20
26.08867458115144
 30
0.0
 10
1.886189778174286
 20
26.08867458115144
 30
0.0
 10
1.886189778174286
 20
26.08867458115144
 30
0.0
 10
1.886189778174286
 20
15.59336344011208
 30
0.0
 10
1.886189778174286
 20
15.59336344011208
 30
0.0
 10
1.886189778174286
 20
14.389130313243
 30
0.0
 10
2.862874348242615
 20
13.41279025272319
 30
0.0
 10
4.066935220337433
 20
13.41279025272319
 30
0.0
 10
4.066935220337433
 20
13.41279025272319
 30
0.0
 10
6.36171332306235
 20
13.41279025272319
 30
0.0
 10
6.36171332306235
 20
13.41279025272319
 30
0.0
 10
5.77139621166479
 20
12.18633625997425
 30
0.0
 10
5.439461261660968
 20
10.81208767090809
 30
0.0
 10
5.439461261660968
 20
9.359635414326759
 30
0.0
 10
5.439461261660968
 20
4.190269638709378
 30
0.0
 10
9.629903155144609
 20
0.0
 30
0.0
 10
14.79961344031051
 20
0.0
 30
0.0
 10
19.9689792159279
 20
0.0
 30
0.0
 10
24.15942110941154
 20
4.190269638709378
 30
0.0
 10
24.15942110941154
 20
9.359635414326759
 30
0.0
 10
24.15942110941154
 20
10.81208767090809
 30
0.0
 10
23.82748615940771
 20
12.18633625997425
 30
0.0
 10
23.23716904801015
 20
13.41279025272319
 30
0.0
 10
23.23716904801015
 20
13.41279025272319
 30
0.0
 10
42.40723062090861
 20
13.41279025272319
 30
0.0
 10
42.40723062090861
 20
13.41279025272319
 30
0.0
 10
41.81691350951105
 20
12.18633625997425
 30
0.0
 10
41.48497855950723
 20
10.81208767090809
 30
0.0
 10
41.48497855950723
 20
9.359635414326759
 30
0.0
 10
41.48497855950723
 20
4.190269638709378
 30
0.0
 10
45.67524819821661
 20
0.0
 30
0.0
 10
50.84513073815678
 20
0.0
 30
0.0
 10
56.01449651377416
 20
0.0
 30
0.0
 10
60.20511066203206
 20
4.190269638709378
 30
0.0
 10
60.20511066203206
 20
9.359635414326759
 30
0.0
 10
60.20511066203206
 20
10.81208767090809
 30
0.0
 10
59.87300345725397
 20
12.18633625997425
 30
0.0
 10
59.2832031101792
 20
13.41279025272319
 30
0.0
 10
59.2832031101792
 20
13.41279025272319
 30
0.0
 10
61.57832572245265
 20
13.41279025272319
 30
0.0
 10
61.57832572245265
 20
13.41279025272319
 30
0.0
 10
62.78204208499893
 20
13.41279025272319
 30
0.0
 10
63.75838214551874
 20
14.389130313243
 30
0.0
 10
63.75838214551874
 20
15.59336344011208
 30
0.0
 10
63.75838214551874
 20
15.59336344011208
 30
0.0
 10
63.75838214551874
 20
19.78914523159785
 30
0.0
 10
63.75838214551874
 20
19.78914523159785
 30
0.0
 10
63.75838214551874
 20
19.78914523159785
 30
0.0
 10
94.06592065790714
 20
24.14977484205284
 30
0.0
 10
94.06592065790714
 20
24.14977484205284
 30
0.0
 10
94.06592065790714
 20
24.14977484205284
 30
0.0
 10
93.98806149994049
 20
20.51795518150246
 30
0.0
 10
93.98806149994049
 20
20.51795518150246
 30
0.0
 10
93.99150659542573
 20
20.18291964556191
 30
0.0
 10
94.13826766309738
 20
19.88543565041059
 30
0.0
 10
94.37356768473994
 20
19.68183050723232
 30
0.0
 10
94.61093476367365
 20
19.47650281631143
 30
0.0
 10
94.9423529493547
 20
19.35420192658506
 30
0.0
 10
95.31407875221315
 20
19.35420192658506
 30
0.0
 10
95.3850477192093
 20
19.35420192658506
 30
0.0
 10
95.45153806207462
 20
19.35868055071589
 30
0.0
 10
95.5145833094547
 20
19.36574299646065
 30
0.0
 10
95.5145833094547
 20
19.36574299646065
 30
0.0
 10
100.3704453959143
 20
19.99051106271071
 30
0.0
 10
100.3704453959143
 20
19.99051106271071
 30
0.0
 10
100.3704453959143
 20
19.99051106271071
 30
0.0
 10
100.3714789245599
 20
19.99051106271071
 30
0.0
 10
100.3714789245599
 20
19.99051106271071
 30
0.0
 10
100.737692574642
 20
20.03822563518142
 30
0.0
 10
101.0584309643187
 20
20.20893011647555
 30
0.0
 10
101.2747829607924
 20
20.44646945018352
 30
0.0
 10
101.4894124095235
 20
20.68297525524592
 30
0.0
 10
101.6110242801528
 20
20.99337835846693
 30
0.0
 10
101.599310955503
 20
21.32496879892223
 30
0.0
 10
101.5975884077603
 20
21.37647297642672
 30
0.0
 10
101.5910427263384
 20
21.44192979064646
 30
0.0
 10
101.5765733253003
 20
21.51823865564475
 30
0.0
 10
101.5765733253003
 20
21.51823865564475
 30
0.0
 10
101.5772623443974
 20
21.51841091041901
 30
0.0
 10
101.5772623443974
 20
21.51841091041901
 30
0.0
  0
SPLINE
  5
41
330
1F
100
AcDbEntity
  8
Layer 1
370
     0
100
AcDbSpline
210
0.0
220
0.0
230
1.0
 70
    11
 71
     3
 72
    17
 73
    13
 74
     0
 42
0.0000000001
 43
0.0000000001
 40
0.0
 40
0.0
 40
0.0
 40
0.0
 40
1.0
 40
1.0
 40
1.0
 40
2.0
 40
2.0
 40
2.0
 40
3.0
 40
3.0
 40
3.0
 40
4.0
 40
4.0
 40
4.0
 40
4.0
 10
14.79961344031051
 20
2.270662434328168
 30
0.0
 10
10.88443467609834
 20
2.270662434328168
 30
0.0
 10
7.710295950763399
 20
5.444628904888843
 30
0.0
 10
7.710295950763399
 20
9.359635414326759
 30
0.0
 10
7.710295950763399
 20
13.27567545241025
 30
0.0
 10
10.88443467609834
 20
16.44946966819666
 30
0.0
 10
14.79961344031051
 20
16.44946966819666
 30
0.0
 10
18.71513671407122
 20
16.44946966819666
 30
0.0
 10
21.88910318463189
 20
13.27567545241025
 30
0.0
 10
21.88910318463189
 20
9.359635414326759
 30
0.0
 10
21.88910318463189
 20
5.444628904888843
 30
0.0
 10
18.71513671407122
 20
2.270662434328168
 30
0.0
 10
14.79961344031051
 20
2.270662434328168
 30
0.0
  0
SPLINE
  5
42
330
1F
100
AcDbEntity
  8
Layer 1
370
     0
100
AcDbSpline
210
0.0
220
0.0
230
1.0
 70
    11
 71
     3
 72
    17
 73
    13
 74
     0
 42
0.0000000001
 43
0.0000000001
 40
0.0
 40
0.0
 40
0.0
 40
0.0
 40
1.0
 40
1.0
 40
1.0
 40
2.0
 40
2.0
 40
2.0
 40
3.0
 40
3.0
 40
3.0
 40
4.0
 40
4.0
 40
4.0
 40
4.0
 10
50.84495848338251
 20
2.270662434328168
 30
0.0
 10
46.9299519739446
 20
2.270662434328168
 30
0.0
 10
43.75598550338393
 20
5.444628904888843
 30
0.0
 10
43.75598550338393
 20
9.359635414326759
 30
0.0
 10
43.75598550338393
 20
13.27567545241025
 30
0.0
 10
46.9299519739446
 20
16.44946966819666
 30
0.0
 10
50.84495848338251
 20
16.44946966819666
 30
0.0
 10
54.76048175714322
 20
16.44946966819666
 30
0.0
 10
57.93444822770389
 20
13.27567545241025
 30
0.0
 10
57.93444822770389
 20
9.359635414326759
 30
0.0
 10
57.93444822770389
 20
5.444628904888843
 30
0.0
 10
54.76048175714322
 20
2.270662434328168
 30
0.0
 10
50.84495848338251
 20
2.270662434328168
 30
0.0
  0
SPLINE
  5
43
330
1F
100
AcDbEntity
  8
Layer 1
370
     0
100
AcDbSpline
210
0.0
220
0.0
230
1.0
 70
    11
 71
     3
 72
    35
 73
    31
 74
     0
 42
0.0000000001
 43
0.0000000001
 40
0.0
 40
0.0
 40
0.0
 40
0.0
 40
1.0
 40
1.0
 40
1.0
 40
2.0
 40
2.0
 40
2.0
 40
3.0
 40
3.0
 40
3.0
 40
4.0
 40
4.0
 40
4.0
 40
5.0
 40
5.0
 40
5.0
 40
6.0
 40
6.0
 40
6.0
 40
7.0
 40
7.0
 40
7.0
 40
8.0
 40
8.0
 40
8.0
 40
9.0
 40
9.0
 40
9.0
 40
10.0
 40
10.0
 40
10.0
 40
10.0
 10
62.00724011036625
 20
18.39543185304003
 30
0.0
 10
62.00724011036625
 20
18.39543185304003
 30
0.0
 10
53.29700519500908
 20
18.39525959826577
 30
0.0
 10
53.29700519500908
 20
18.39525959826577
 30
0.0
 10
52.51565753895442
 20
18.60678846106011
 30
0.0
 10
51.69400226572233
 20
18.72047661207336
 30
0.0
 10
50.84513073815678
 20
18.72047661207336
 30
0.0
 10
49.99660372013974
 20
18.72047661207336
 30
0.0
 10
49.17460393735913
 20
18.60678846106011
 30
0.0
 10
48.39273951698168
 20
18.39525959826577
 30
0.0
 10
48.39273951698168
 20
18.39525959826577
 30
0.0
 10
17.25269368058266
 20
18.39491508871724
 30
0.0
 10
17.25269368058266
 20
18.39491508871724
 30
0.0
 10
16.47082926020521
 20
18.60678846106011
 30
0.0
 10
15.64848496787607
 20
18.72047661207336
 30
0.0
 10
14.79961344031051
 20
18.72047661207336
 30
0.0
 10
13.95056965797069
 20
18.72047661207336
 30
0.0
 10
13.12805311086729
 20
18.60678846106011
 30
0.0
 10
12.34618869048984
 20
18.39491508871724
 30
0.0
 10
12.34618869048984
 20
18.39491508871724
 30
0.0
 10
3.637848577649566
 20
18.39474283394298
 30
0.0
 10
3.637848577649566
 20
18.39474283394298
 30
0.0
 10
3.637848577649566
 20
18.39474283394298
 30
0.0
 10
3.637848577649566
 20
23.44197997460826
 30
0.0
 10
3.637848577649566
 20
23.44197997460826
 30
0.0
 10
3.637848577649566
 20
23.44197997460826
 30
0.0
 10
62.00724011036625
 20
23.44197997460826
 30
0.0
 10
62.00724011036625
 20
23.44197997460826
 30
0.0
 10
62.00724011036625
 20
23.44197997460826
 30
0.0
 10
62.00724011036625
 20
18.39543185304003
 30
0.0
 10
62.00724011036625
 20
18.39543185304003
 30
0.0
  0
POLYLINE
  5
44
330
1F
100
AcDbEntity
  8
Layer 1
370
     0
100
AcDb2dPolyline
 66
     1
 10
0.0
 20
0.0
 30
0.0
  0
VERTEX
  5
45
330
44
100
AcDbEntity
  8
Layer 1
370
     0
100
AcDbVertex
100
AcDb2dVertex
 10
96.09404837007371
 20
21.4045505046315
 30
0.0
  0
VERTEX
  5
46
330
44
100
AcDbEntity
  8
Layer 1
370
     0
100
AcDbVertex
100
AcDb2dVertex
 10
95.8869981314102
 20
28.87110594981348
 30
0.0
  0
VERTEX
  5
47
330
44
100
AcDbEntity
  8
Layer 1
370
     0
100
AcDbVertex
100
AcDb2dVertex
 10
98.62998315676612
 20
29.29226887288527
 30
0.0
  0
VERTEX
  5
48
330
44
100
AcDbEntity
  8
Layer 1
370
     0
100
AcDbVertex
100
AcDb2dVertex
 10
99.42648923295589
 20
21.84741752926037
 30
0.0
  0
VERTEX
  5
49
330
44
100
AcDbEntity
  8
Layer 1
370
     0
100
AcDbVertex
100
AcDb2dVertex
 10
96.09404837007371
 20
21.4045505046315
 30
0.0
  0
SEQEND
  5
4A
330
44
100
AcDbEntity
  8
Layer 1
370
     0
  0
HATCH
  5
4B
330
1F
100
AcDbEntity
  8
Layer 1
 62
    20
420
 15751720
100
AcDbHatch
 10
0.0
 20
0.0
 30
0.0
210
0.0
220
0.0
230
1.0
  2
SOLID
 70
     1
 71
     0
 91
        5
 92
        1
 93
        1
 72
     4
 94
        3
 73
     0
 74
     1
 95
      155
 96
      151
 40
0.0
 40
0.0
 40
0.0
 40
0.0
 40
1.0
 40
1.0
 40
1.0
 40
2.0
 40
2.0
 40
2.0
 40
3.0
 40
3.0
 40
3.0
 40
4.0
 40
4.0
 40
4.0
 40
5.0
 40
5.0
 40
5.0
 40
6.0
 40
6.0
 40
6.0
 40
7.0
 40
7.0
 40
7.0
 40
8.0
 40
8.0
 40
8.0
 40
9.0
 40
9.0
 40
9.0
 40
10.0
 40
10.0
 40
10.0
 40
11.0
 40
11.0
 40
11.0
 40
12.0
 40
12.0
 40
12.0
 40
13.0
 40
13.0
 40
13.0
 40
14.0
 40
14.0
 40
14.0
 40
15.0
 40
15.0
 40
15.0
 40
16.0
 40
16.0
 40
16.0
 40
17.0
 40
17.0
 40
17.0
 40
18.0
 40
18.0
 40
18.0
 40
19.0
 40
19.0
 40
19.0
 40
20.0
 40
20.0
 40
20.0
 40
21.0
 40
21.0
 40
21.0
 40
22.0
 40
22.0
 40
22.0
 40
23.0
 40
23.0
 40
23.0
 40
24.0
 40
24.0
 40
24.0
 40
25.0
 40
25.0
 40
25.0
 40
26.0
 40
26.0
 40
26.0
 40
27.0
 40
27.0
 40
27.0
 40
28.0
 40
28.0
 40
28.0
 40
29.0
 40
29.0
 40
29.0
 40
30.0
 40
30.0
 40
30.0
 40
31.0
 40
31.0
 40
31.0
 40
32.0
 40
32.0
 40
32.0
 40
33.0
 40
33.0
 40
33.0
 40
34.0
 40
34.0
 40
34.0
 40
35.0
 40
35.0
 40
35.0
 40
36.0
 40
36.0
 40
36.0
 40
37.0
 40
37.0
 40
37.0
 40
38.0
 40
38.0
 40
38.0
 40
39.0
 40
39.0
 40
39.0
 40
40.0
 40
40.0
 40
40.0
 40
41.0
 40
41.0
 40
41.0
 40
42.0
 40
42.0
 40
42.0
 40
43.0
 40
43.0
 40
43.0
 40
44.0
 40
44.0
 40
44.0
 40
45.0
 40
45.0
 40
45.0
 40
46.0
 40
46.0
 40
46.0
 40
47.0
 40
47.0
 40
47.0
 40
48.0
 40
48.0
 40
48.0
 40
49.0
 40
49.0
 40
49.0
 40
50.0
 40
50.0
 40
50.0
 40
50.0
 10
101.5772623443974
 20
21.51841091041901
 10
101.5772623443974
 20
21.51841091041901
 10
100.2247178568883
 20
30.15974391607118
 10
100.2247178568883
 20
30.15974391607118
 10
100.2247178568883
 20
30.15974391607118
 10
100.2247178568883
 20
30.16077744471675
 10
100.2247178568883
 20
30.16077744471675
 10
100.1837212206138
 20
30.4944349424632
 10
100.0424723057185
 20
30.79088540896895
 10
99.84920244899604
 20
30.99621309988984
 10
99.65903317821025
 20
31.20343559332762
 10
99.40995277462669
 20
31.32918157853923
 10
99.14089081722867
 20
31.33297118357301
 10
99.09748261411453
 20
31.33400471221858
 10
99.04442814364168
 20
31.33038736195907
 10
98.98517250129538
 20
31.3210856041489
 10
98.98517250129538
 20
31.3210856041489
 10
98.98517250129538
 20
31.32177462324595
 10
98.98517250129538
 20
31.32177462324595
 10
98.98517250129538
 20
31.32177462324595
 10
95.39159340063128
 20
30.74437661991808
 10
95.39159340063128
 20
30.74437661991808
 10
95.39159340063128
 20
30.74437661991808
 10
95.3905598719857
 20
30.74437661991808
 10
95.3905598719857
 20
30.74437661991808
 10
95.10909557084078
 20
30.69993488815835
 10
94.8376220466031
 20
30.53164197370389
 10
94.6281602410999
 20
30.29444714954445
 10
94.41594235920851
 20
30.05845810880483
 10
94.25677894778998
 20
29.74667696738972
 10
94.19717879589516
 20
29.41250270532049
 10
94.18512096169678
 20
29.34549559813238
 10
94.1785752802748
 20
29.28417289849493
 10
94.17478567524103
 20
29.23025715415077
 10
94.17478567524103
 20
29.23025715415077
 10
94.17375214659546
 20
29.21664902698403
 10
94.17375214659546
 20
29.21664902698403
 10
94.17375214659546
 20
29.21664902698403
 10
94.11311846605506
 20
26.37444525165292
 10
94.11311846605506
 20
26.37444525165292
 10
94.11311846605506
 20
26.37444525165292
 10
63.75838214551874
 20
22.0070977050017
 10
63.75838214551874
 20
22.0070977050017
 10
63.75838214551874
 20
22.0070977050017
 10
63.75838214551874
 20
26.08867458115144
 10
63.75838214551874
 20
26.08867458115144
 10
63.75838214551874
 20
26.08867458115144
 10
65.30695256613855
 20
26.08867458115144
 10
65.30695256613855
 20
26.08867458115144
 10
65.60977645929201
 20
26.08867458115144
 10
65.85541176739032
 20
26.33430988924976
 10
65.85541176739032
 20
26.63730603717748
 10
65.85541176739032
 20
26.63730603717748
 10
65.85541176739032
 20
28.73519693292037
 10
65.85541176739032
 20
28.73519693292037
 10
65.85541176739032
 20
29.03819308084809
 10
65.60977645929201
 20
29.28365613417214
 10
65.30695256613855
 20
29.28365613417214
 10
65.30695256613855
 20
29.28365613417214
 10
0.5486314560260366
 20
29.28365613417214
 10
0.5486314560260366
 20
29.28365613417214
 10
0.2454630533240509
 20
29.28365613417214
 10
0.0
 20
29.03819308084809
 10
0.0
 20
28.73519693292037
 10
0.0
 20
28.73519693292037
 10
0.0
 20
26.63730603717748
 10
0.0
 20
26.63730603717748
 10
0.0
 20
26.33430988924976
 10
0.2454630533240509
 20
26.08867458115144
 10
0.5486314560260366
 20
26.08867458115144
 10
0.5486314560260366
 20
26.08867458115144
 10
1.886189778174286
 20
26.08867458115144
 10
1.886189778174286
 20
26.08867458115144
 10
1.886189778174286
 20
26.08867458115144
 10
1.886189778174286
 20
15.59336344011208
 10
1.886189778174286
 20
15.59336344011208
 10
1.886189778174286
 20
14.389130313243
 10
2.862874348242615
 20
13.41279025272319
 10
4.066935220337433
 20
13.41279025272319
 10
4.066935220337433
 20
13.41279025272319
 10
6.36171332306235
 20
13.41279025272319
 10
6.36171332306235
 20
13.41279025272319
 10
5.77139621166479
 20
12.18633625997425
 10
5.439461261660968
 20
10.81208767090809
 10
5.439461261660968
 20
9.359635414326759
 10
5.439461261660968
 20
4.190269638709378
 10
9.629903155144609
 20
0.0
 10
14.79961344031051
 20
0.0
 10
19.9689792159279
 20
0.0
 10
24.15942110941154
 20
4.190269638709378
 10
24.15942110941154
 20
9.359635414326759
 10
24.15942110941154
 20
10.81208767090809
 10
23.82748615940771
 20
12.18633625997425
 10
23.23716904801015
 20
13.41279025272319
 10
23.23716904801015
 20
13.41279025272319
 10
42.40723062090861
 20
13.41279025272319
 10
42.40723062090861
 20
13.41279025272319
 10
41.81691350951105
 20
12.18633625997425
 10
41.48497855950723
 20
10.81208767090809
 10
41.48497855950723
 20
9.359635414326759
 10
41.48497855950723
 20
4.190269638709378
 10
45.67524819821661
 20
0.0
 10
50.84513073815678
 20
0.0
 10
56.01449651377416
 20
0.0
 10
60.20511066203206
 20
4.190269638709378
 10
60.20511066203206
 20
9.359635414326759
 10
60.20511066203206
 20
10.81208767090809
 10
59.87300345725397
 20
12.18633625997425
 10
59.2832031101792
 20
13.41279025272319
 10
59.2832031101792
 20
13.41279025272319
 10
61.57832572245265
 20
13.41279025272319
 10
61.57832572245265
 20
13.41279025272319
 10
62.78204208499893
 20
13.41279025272319
 10
63.75838214551874
 20
14.389130313243
 10
63.75838214551874
 20
15.59336344011208
 10
63.75838214551874
 20
15.59336344011208
 10
63.75838214551874
 20
19.78914523159785
 10
63.75838214551874
 20
19.78914523159785
 10
63.75838214551874
 20
19.78914523159785
 10
94.06592065790714
 20
24.14977484205284
 10
94.06592065790714
 20
24.14977484205284
 10
94.06592065790714
 20
24.14977484205284
 10
93.98806149994049
 20
20.51795518150246
 10
93.98806149994049
 20
20.51795518150246
 10
93.99150659542573
 20
20.18291964556191
 10
94.13826766309738
 20
19.88543565041059
 10
94.37356768473994
 20
19.68183050723232
 10
94.61093476367365
 20
19.47650281631143
 10
94.9423529493547
 20
19.35420192658506
 10
95.31407875221315
 20
19.35420192658506
 10
95.3850477192093
 20
19.35420192658506
 10
95.45153806207462
 20
19.35868055071589
 10
95.5145833094547
 20
19.36574299646065
 10
95.5145833094547
 20
19.36574299646065
 10
100.3704453959143
 20
19.99051106271071
 10
100.3704453959143
 20
19.99051106271071
 10
100.3704453959143
 20
19.99051106271071
 10
100.3714789245599
 20
19.99051106271071
 10
100.3714789245599
 20
19.99051106271071
 10
100.737692574642
 20
20.03822563518142
 10
101.0584309643187
 20
20.20893011647555
 10
101.2747829607924
 20
20.44646945018352
 10
101.4894124095235
 20
20.68297525524592
 10
101.6110242801528
 20
20.99337835846693
 10
101.599310955503
 20
21.32496879892223
 10
101.5975884077603
 20
21.37647297642672
 10
101.5910427263384
 20
21.44192979064646
 10
101.5765733253003
 20
21.51823865564475
 10
101.5765733253003
 20
21.51823865564475
 10
101.5772623443974
 20
21.51841091041901
 10
101.5772623443974
 20
21.51841091041901
 97
        0
 92
        1
 93
        1
 72
     4
 94
        3
 73
     0
 74
     1
 95
       17
 96
       13
 40
0.0
 40
0.0
 40
0.0
 40
0.0
 40
1.0
 40
1.0
 40
1.0
 40
2.0
 40
2.0
 40
2.0
 40
3.0
 40
3.0
 40
3.0
 40
4.0
 40
4.0
 40
4.0
 40
4.0
 10
14.79961344031051
 20
2.270662434328168
 10
10.88443467609834
 20
2.270662434328168
 10
7.710295950763399
 20
5.444628904888843
 10
7.710295950763399
 20
9.359635414326759
 10
7.710295950763399
 20
13.27567545241025
 10
10.88443467609834
 20
16.44946966819666
 10
14.79961344031051
 20
16.44946966819666
 10
18.71513671407122
 20
16.44946966819666
 10
21.88910318463189
 20
13.27567545241025
 10
21.88910318463189
 20
9.359635414326759
 10
21.88910318463189
 20
5.444628904888843
 10
18.71513671407122
 20
2.270662434328168
 10
14.79961344031051
 20
2.270662434328168
 97
        0
 92
        1
 93
        1
 72
     4
 94
        3
 73
     0
 74
     1
 95
       17
 96
       13
 40
0.0
 40
0.0
 40
0.0
 40
0.0
 40
1.0
 40
1.0
 40
1.0
 40
2.0
 40
2.0
 40
2.0
 40
3.0
 40
3.0
 40
3.0
 40
4.0
 40
4.0
 40
4.0
 40
4.0
 10
50.84495848338251
 20
2.270662434328168
 10
46.9299519739446
 20
2.270662434328168
 10
43.75598550338393
 20
5.444628904888843
 10
43.75598550338393
 20
9.359635414326759
 10
43.75598550338393
 20
13.27567545241025
 10
46.9299519739446
 20
16.44946966819666
 10
50.84495848338251
 20
16.44946966819666
 10
54.76048175714322
 20
16.44946966819666
 10
57.93444822770389
 20
13.27567545241025
 10
57.93444822770389
 20
9.359635414326759
 10
57.93444822770389
 20
5.444628904888843
 10
54.76048175714322
 20
2.270662434328168
 10
50.84495848338251
 20
2.270662434328168
 97
        0
 92
        1
 93
        1
 72
     4
 94
        3
 73
     0
 74
     1
 95
       35
 96
       31
 40
0.0
 40
0.0
 40
0.0
 40
0.0
 40
1.0
 40
1.0
 40
1.0
 40
2.0
 40
2.0
 40
2.0
 40
3.0
 40
3.0
 40
3.0
 40
4.0
 40
4.0
 40
4.0
 40
5.0
 40
5.0
 40
5.0
 40
6.0
 40
6.0
 40
6.0
 40
7.0
 40
7.0
 40
7.0
 40
8.0
 40
8.0
 40
8.0
 40
9.0
 40
9.0
 40
9.0
 40
10.0
 40
10.0
 40
10.0
 40
10.0
 10
62.00724011036625
 20
18.39543185304003
 10
62.00724011036625
 20
18.39543185304003
 10
53.29700519500908
 20
18.39525959826577
 10
53.29700519500908
 20
18.39525959826577
 10
52.51565753895442
 20
18.60678846106011
 10
51.69400226572233
 20
18.72047661207336
 10
50.84513073815678
 20
18.72047661207336
 10
49.99660372013974
 20
18.72047661207336
 10
49.17460393735913
 20
18.60678846106011
 10
48.39273951698168
 20
18.39525959826577
 10
48.39273951698168
 20
18.39525959826577
 10
17.25269368058266
 20
18.39491508871724
 10
17.25269368058266
 20
18.39491508871724
 10
16.47082926020521
 20
18.60678846106011
 10
15.64848496787607
 20
18.72047661207336
 10
14.79961344031051
 20
18.72047661207336
 10
13.95056965797069
 20
18.72047661207336
 10
13.12805311086729
 20
18.60678846106011
 10
12.34618869048984
 20
18.39491508871724
 10
12.34618869048984
 20
18.39491508871724
 10
3.637848577649566
 20
18.39474283394298
 10
3.637848577649566
 20
18.39474283394298
 10
3.637848577649566
 20
18.39474283394298
 10
3.637848577649566
 20
23.44197997460826
 10
3.637848577649566
 20
23.44197997460826
 10
3.637848577649566
 20
23.44197997460826
 10
62.00724011036625
 20
23.44197997460826
 10
62.00724011036625
 20
23.44197997460826
 10
62.00724011036625
 20
23.44197997460826
 10
62.00724011036625
 20
18.39543185304003
 10
62.00724011036625
 20
18.39543185304003
 97
        0
 92
        1
 93
        4
 72
     1
 10
96.09404837007371
 20
21.4045505046315
 11
95.8869981314102
 21
28.87110594981348
 72
     1
 10
95.8869981314102
 20
28.87110594981348
 11
98.62998315676612
 21
29.29226887288527
 72
     1
 10
98.62998315676612
 20
29.29226887288527
 11
99.42648923295589
 21
21.84741752926037
 72
     1
 10
99.42648923295589
 20
21.84741752926037
 11
96.09404837007371
 21
21.4045505046315
 97
        0
 75
     2
 76
     1
 98
        0
  0
ENDSEC
  0
SECTION
  2
OBJECTS
  0
DICTIONARY
  5
C
330
0
100
AcDbDictionary
281
     1
  3
ACAD_GROUP
350
D
  3
ACAD_LAYOUT
350
1A
  3
ACAD_MLINESTYLE
350
17
  3
ACAD_PLOTSETTINGS
350
19
  3
ACAD_PLOTSTYLENAME
350
E
  3
ACAD_TABLESTYLE
350
4C
  3
ACAD_VISUALSTYLE
350
2A
  0
DICTIONARY
  5
D
102
{ACAD_REACTORS
330
C
102
}
330
C
100
AcDbDictionary
281
     1
  0
DICTIONARY
  5
1A
102
{ACAD_REACTORS
330
C
102
}
330
C
100
AcDbDictionary
281
     1
  3
Layout1
350
1E
  3
Layout2
350
26
  3
Model
350
22
  0
DICTIONARY
  5
17
102
{ACAD_REACTORS
330
C
102
}
330
C
100
AcDbDictionary
281
     1
  3
Standard
350
18
  0
DICTIONARY
  5
19
102
{ACAD_REACTORS
330
C
102
}
330
C
100
AcDbDictionary
281
     1
  0
ACDBDICTIONARYWDFLT
  5
E
102
{ACAD_REACTORS
330
C
102
}
330
C
100
AcDbDictionary
281
     1
  3
Normal
350
F
100
AcDbDictionaryWithDefault
340
F
  0
DICTIONARY
  5
4C
102
{ACAD_REACTORS
330
C
102
}
330
C
100
AcDbDictionary
281
     1
  0
DICTIONARY
  5
2A
102
{ACAD_REACTORS
330
C
102
}
330
C
100
AcDbDictionary
281
     1
  3
2dWireframe
350
2F
  3
3D Hidden
350
31
  3
3dWireframe
350
30
  3
Basic
350
32
  3
Brighten
350
36
  3
ColorChange
350
3A
  3
Conceptual
350
34
  3
Dim
350
35
  3
Facepattern
350
39
  3
Flat
350
2B
  3
FlatWithEdges
350
2C
  3
Gouraud
350
2D
  3
GouraudWithEdges
350
2E
  3
Linepattern
350
38
  3
Realistic
350
33
  3
Thicken
350
37
  0
LAYOUT
  5
1E
102
{ACAD_REACTORS
330
1A
102
}
330
1A
100
AcDbPlotSettings
  1

  2
none_device
  4

  6

 40
0.0
 41
0.0
 42
0.0
 43
0.0
 44
0.0
 45
0.0
 46
0.0
 47
0.0
 48
0.0
 49
0.0
140
0.0
141
0.0
142
1.0
143
1.0
 70
   688
 72
     0
 73
     0
 74
     5
  7

 75
    16
 76
     0
 77
     2
 78
   300
147
1.0
148
0.0
149
0.0
100
AcDbLayout
  1
Layout1
 70
     1
 71
     1
 10
0.0
 20
0.0
 11
12.0
 21
9.0
 12
0.0
 22
0.0
 32
0.0
 14
1.000000000000000E+20
 24
1.000000000000000E+20
 34
1.000000000000000E+20
 15
-1.000000000000000E+20
 25
-1.000000000000000E+20
 35
-1.000000000000000E+20
146
0.0
 13
0.0
 23
0.0
 33
0.0
 16
1.0
 26
0.0
 36
0.0
 17
0.0
 27
1.0
 37
0.0
 76
     0
330
1B
  0
LAYOUT
  5
26
102
{ACAD_REACTORS
330
1A
102
}
330
1A
100
AcDbPlotSettings
  1

  2
none_device
  4

  6

 40
0.0
 41
0.0
 42
0.0
 43
0.0
 44
0.0
 45
0.0
 46
0.0
 47
0.0
 48
0.0
 49
0.0
140
0.0
141
0.0
142
1.0
143
1.0
 70
   688
 72
     0
 73
     0
 74
     5
  7

 75
    16
 76
     0
 77
     2
 78
   300
147
1.0
148
0.0
149
0.0
100
AcDbLayout
  1
Layout2
 70
     1
 71
     2
 10
0.0
 20
0.0
 11
0.0
 21
0.0
 12
0.0
 22
0.0
 32
0.0
 14
0.0
 24
0.0
 34
0.0
 15
0.0
 25
0.0
 35
0.0
146
0.0
 13
0.0
 23
0.0
 33
0.0
 16
1.0
 26
0.0
 36
0.0
 17
0.0
 27
1.0
 37
0.0
 76
     0
330
23
  0
LAYOUT
  5
22
102
{ACAD_REACTORS
330
1A
102
}
330
1A
100
AcDbPlotSettings
  1

  2
none_device
  4

  6

 40
0.0
 41
0.0
 42
0.0
 43
0.0
 44
0.0
 45
0.0
 46
0.0
 47
0.0
 48
0.0
 49
0.0
140
0.0
141
0.0
142
1.0
143
1.0
 70
  1712
 72
     0
 73
     0
 74
     0
  7

 75
     0
 76
     0
 77
     2
 78
   300
147
1.0
148
0.0
149
0.0
100
AcDbLayout
  1
Model
 70
     1
 71
     0
 10
0.0
 20
0.0
 11
12.0
 21
9.0
 12
0.0
 22
0.0
 32
0.0
 14
1.000000000000000E+20
 24
1.000000000000000E+20
 34
1.000000000000000E+20
 15
-1.000000000000000E+20
 25
-1.000000000000000E+20
 35
-1.000000000000000E+20
146
0.0
 13
0.0
 23
0.0
 33
0.0
 16
1.0
 26
0.0
 36
0.0
 17
0.0
 27
1.0
 37
0.0
 76
     0
330
1F
331
29
  0
MLINESTYLE
  5
18
102
{ACAD_REACTORS
330
17
102
}
330
17
100
AcDbMlineStyle
  2
Standard
 70
     0
  3

 62
   256
 51
90.0
 52
90.0
 71
     2
 49
0.5
 62
   256
  6
BYLAYER
 49
-0.5
 62
   256
  6
BYLAYER
  0
ACDBPLACEHOLDER
  5
F
102
{ACAD_REACTORS
330
E
102
}
330
E
  0
VISUALSTYLE
  5
2F
102
{ACAD_REACTORS
330
2A
102
}
330
2A
100
AcDbVisualStyle
  2
2dWireframe
 70
     4
 71
     0
 72
     2
 73
     0
 90
        0
 40
-0.6
 41
-30.0
 62
     5
 63
     7
421
 16777215
 74
     1
 91
        4
 64
     7
 65
   257
 75
     1
175
     1
 42
1.0
 92
        0
 66
   257
 43
1.0
 76
     1
 77
     6
 78
     2
 67
     7
 79
     5
170
     0
171
     0
290
     0
174
     0
 93
        1
 44
0.0
173
     0
291
     0
 45
0.0
1001
ACAD
1000
AcDbSavedByObjectVersion
1070
     0
  0
VISUALSTYLE
  5
31
102
{ACAD_REACTORS
330
2A
102
}
330
2A
100
AcDbVisualStyle
  2
3D Hidden
 70
     6
 71
     1
 72
     2
 73
     2
 90
        0
 40
-0.6
 41
-30.0
 62
     5
 63
     7
421
 16777215
 74
     2
 91
        2
 64
     7
 65
   257
 75
     2
175
     1
 42
40.0
 92
        0
 66
   257
 43
1.0
 76
     1
 77
     6
 78
     2
 67
     7
 79
     3
170
     0
171
     0
290
     0
174
     0
 93
        1
 44
0.0
173
     0
291
     0
 45
0.0
1001
ACAD
1000
AcDbSavedByObjectVersion
1070
     0
  0
VISUALSTYLE
  5
30
102
{ACAD_REACTORS
330
2A
102
}
330
2A
100
AcDbVisualStyle
  2
3dWireframe
 70
     5
 71
     0
 72
     2
 73
     0
 90
        0
 40
-0.6
 41
-30.0
 62
     5
 63
     7
421
 16777215
 74
     1
 91
        4
 64
     7
 65
   257
 75
     1
175
     1
 42
1.0
 92
        0
 66
   257
 43
1.0
 76
     1
 77
     6
 78
     2
 67
     7
 79
     5
170
     0
171
     0
290
     0
174
     0
 93
        1
 44
0.0
173
     0
291
     0
 45
0.0
1001
ACAD
1000
AcDbSavedByObjectVersion
1070
     0
  0
VISUALSTYLE
  5
32
102
{ACAD_REACTORS
330
2A
102
}
330
2A
100
AcDbVisualStyle
  2
Basic
 70
     7
 71
     1
 72
     0
 73
     1
 90
        0
 40
-0.6
 41
-30.0
 62
     5
 63
     7
421
 16777215
 74
     0
 91
        4
 64
     7
 65
   257
 75
     1
175
     1
 42
1.0
 92
        8
 66
     7
 43
1.0
 76
     1
 77
     6
 78
     2
 67
     7
 79
     5
170
     0
171
     0
290
     0
174
     0
 93
        1
 44
0.0
173
     0
291
     1
 45
0.0
1001
ACAD
1000
AcDbSavedByObjectVersion
1070
     0
  0
VISUALSTYLE
  5
36
102
{ACAD_REACTORS
330
2A
102
}
330
2A
100
AcDbVisualStyle
  2
Brighten
 70
    12
 71
     2
 72
     2
 73
     0
 90
        0
 40
-0.6
 41
-30.0
 62
     5
 63
     7
421
 16777215
 74
     1
 91
        4
 64
     7
 65
   257
 75
     1
175
     1
 42
1.0
 92
        8
 66
     7
 43
1.0
 76
     1
 77
     6
 78
     2
 67
     7
 79
     5
170
     0
171
     0
290
     0
174
     0
 93
        1
 44
50.0
173
     0
291
     1
 45
0.0
1001
ACAD
1000
AcDbSavedByObjectVersion
1070
     0
  0
VISUALSTYLE
  5
3A
102
{ACAD_REACTORS
330
2A
102
}
330
2A
100
AcDbVisualStyle
  2
ColorChange
 70
    16
 71
     2
 72
     2
 73
     3
 90
        0
 40
-0.6
 41
-30.0
 62
     5
 63
     8
421
  8421504
 74
     1
 91
        4
 64
     7
 65
   257
 75
     1
175
     1
 42
1.0
 92
        8
 66
     8
424
  8421504
 43
1.0
 76
     1
 77
     6
 78
     2
 67
     7
 79
     5
170
     0
171
     0
290
     0
174
     0
 93
        1
 44
0.0
173
     0
291
     1
 45
0.0
1001
ACAD
1000
AcDbSavedByObjectVersion
1070
     0
  0
VISUALSTYLE
  5
34
102
{ACAD_REACTORS
330
2A
102
}
330
2A
100
AcDbVisualStyle
  2
Conceptual
 70
     9
 71
     3
 72
     2
 73
     0
 90
        0
 40
-0.6
 41
-30.0
 62
     5
 63
     7
421
 16777215
 74
     2
 91
        2
 64
     7
 65
   257
 75
     1
175
     1
 42
40.0
 92
        8
 66
     7
 43
1.0
 76
     1
 77
     6
 78
     2
 67
     7
 79
     3
170
     0
171
     0
290
     0
174
     0
 93
        1
 44
0.0
173
     0
291
     0
 45
0.0
1001
ACAD
1000
AcDbSavedByObjectVersion
1070
     0
  0
VISUALSTYLE
  5
35
102
{ACAD_REACTORS
330
2A
102
}
330
2A
100
AcDbVisualStyle
  2
Dim
 70
    11
 71
     2
 72
     2
 73
     0
 90
        0
 40
-0.6
 41
-30.0
 62
     5
 63
     7
421
 16777215
 74
     1
 91
        4
 64
     7
 65
   257
 75
     1
175
     1
 42
1.0
 92
        8
 66
     7
 43
1.0
 76
     1
 77
     6
 78
     2
 67
     7
 79
     5
170
     0
171
     0
290
     0
174
     0
 93
        1
 44
-50.0
173
     0
291
     1
 45
0.0
1001
ACAD
1000
AcDbSavedByObjectVersion
1070
     0
  0
VISUALSTYLE
  5
39
102
{ACAD_REACTORS
330
2A
102
}
330
2A
100
AcDbVisualStyle
  2
Facepattern
 70
    15
 71
     2
 72
     2
 73
     0
 90
        0
 40
-0.6
 41
-30.0
 62
     5
 63
     7
421
 16777215
 74
     1
 91
        4
 64
     7
 65
   257
 75
     1
175
     1
 42
1.0
 92
        8
 66
     7
 43
1.0
 76
     1
 77
     6
 78
     2
 67
     7
 79
     5
170
     0
171
     0
290
     0
174
     0
 93
        1
 44
0.0
173
     0
291
     1
 45
0.0
1001
ACAD
1000
AcDbSavedByObjectVersion
1070
     0
  0
VISUALSTYLE
  5
2B
102
{ACAD_REACTORS
330
2A
102
}
330
2A
100
AcDbVisualStyle
  2
Flat
 70
     0
 71
     2
 72
     1
 73
     1
 90
        2
 40
-0.6
 41
30.0
 62
     5
 63
     7
421
 16777215
 74
     0
 91
        4
 64
     7
 65
   257
 75
     1
175
     1
 42
1.0
 92
        8
 66
     7
 43
1.0
 76
     1
 77
     6
 78
     2
 67
     7
 79
     5
170
     0
171
     0
290
     0
174
     0
 93
       13
 44
0.0
173
     0
291
     1
 45
0.0
1001
ACAD
1000
AcDbSavedByObjectVersion
1070
     0
  0
VISUALSTYLE
  5
2C
102
{ACAD_REACTORS
330
2A
102
}
330
2A
100
AcDbVisualStyle
  2
FlatWithEdges
 70
     1
 71
     2
 72
     1
 73
     1
 90
        2
 40
-0.6
 41
30.0
 62
     5
 63
     7
421
 16777215
 74
     1
 91
        4
 64
     7
 65
   257
 75
     1
175
     1
 42
1.0
 92
        0
 66
   257
 43
1.0
 76
     1
 77
     6
 78
     2
 67
     7
 79
     5
170
     0
171
     0
290
     0
174
     0
 93
       13
 44
0.0
173
     0
291
     1
 45
0.0
1001
ACAD
1000
AcDbSavedByObjectVersion
1070
     0
  0
VISUALSTYLE
  5
2D
102
{ACAD_REACTORS
330
2A
102
}
330
2A
100
AcDbVisualStyle
  2
Gouraud
 70
     2
 71
     2
 72
     2
 73
     1
 90
        2
 40
-0.6
 41
30.0
 62
     5
 63
     7
421
 16777215
 74
     0
 91
        4
 64
     7
 65
   257
 75
     1
175
     1
 42
1.0
 92
        0
 66
     7
 43
1.0
 76
     1
 77
     6
 78
     2
 67
     7
 79
     5
170
     0
171
     0
290
     0
174
     0
 93
       13
 44
0.0
173
     0
291
     1
 45
0.0
1001
ACAD
1000
AcDbSavedByObjectVersion
1070
     0
  0
VISUALSTYLE
  5
2E
102
{ACAD_REACTORS
330
2A
102
}
330
2A
100
AcDbVisualStyle
  2
GouraudWithEdges
 70
     3
 71
     2
 72
     2
 73
     1
 90
        2
 40
-0.6
 41
30.0
 62
     5
 63
     7
421
 16777215
 74
     1
 91
        4
 64
     7
 65
   257
 75
     1
175
     1
 42
1.0
 92
        0
 66
   257
 43
1.0
 76
     1
 77
     6
 78
     2
 67
     7
 79
     5
170
     0
171
     0
290
     0
174
     0
 93
       13
 44
0.0
173
     0
291
     1
 45
0.0
1001
ACAD
1000
AcDbSavedByObjectVersion
1070
     0
  0
VISUALSTYLE
  5
38
102
{ACAD_REACTORS
330
2A
102
}
330
2A
100
AcDbVisualStyle
  2
Linepattern
 70
    14
 71
     2
 72
     2
 73
     0
 90
        0
 40
-0.6
 41
-30.0
 62
     5
 63
     7
421
 16777215
 74
     1
 91
        4
 64
     7
 65
   257
 75
     7
175
     7
 42
1.0
 92
        8
 66
     7
 43
1.0
 76
     1
 77
     6
 78
     2
 67
     7
 79
     5
170
     0
171
     0
290
     0
174
     0
 93
        1
 44
0.0
173
     0
291
     1
 45
0.0
1001
ACAD
1000
AcDbSavedByObjectVersion
1070
     0
  0
VISUALSTYLE
  5
33
102
{ACAD_REACTORS
330
2A
102
}
330
2A
100
AcDbVisualStyle
  2
Realistic
 70
     8
 71
     2
 72
     2
 73
     0
 90
        0
 40
-0.6
 41
-30.0
 62
     5
 63
     7
421
 16777215
 74
     1
 91
        0
 64
     7
 65
   257
 75
     1
175
     1
 42
1.0
 92
        8
 66
     8
424
  7895160
 43
1.0
 76
     1
 77
     6
 78
     2
 67
     7
 79
     5
170
     0
171
     0
290
     0
174
     0
 93
       13
 44
0.0
173
     0
291
     0
 45
0.0
1001
ACAD
1000
AcDbSavedByObjectVersion
1070
     0
  0
VISUALSTYLE
  5
37
102
{ACAD_REACTORS
330
2A
102
}
330
2A
100
AcDbVisualStyle
  2
Thicken
 70
    13
 71
     2
 72
     2
 73
     0
 90
        0
 40
-0.6
 41
-30.0
 62
     5
 63
     7
421
 16777215
 74
     1
 91
        4
 64
     7
 65
   257
 75
     1
175
     1
 42
1.0
 92
       12
 66
     7
 43
1.0
 76
     1
 77
     6
 78
     2
 67
     7
 79
     5
170
     0
171
     0
290
     0
174
     0
 93
        1
 44
0.0
173
     0
291
     1
 45
0.0
1001
ACAD
1000
AcDbSavedByObjectVersion
1070
     0
  0
ENDSEC
  0
EOF
