  0
SECTION
  2
HEADER
  9
$ACADVER
  1
AC1018
  9
$ACADMAINTVER
 70
     0
  9
$DWGCODEPAGE
  3
ANSI_1252
  9
$INSBASE
 10
0.0
 20
0.0
 30
0.0
  9
$EXTMIN
 10
1.000000000000000E+20
 20
1.000000000000000E+20
 30
1.000000000000000E+20
  9
$EXTMAX
 10
-1.000000000000000E+20
 20
-1.000000000000000E+20
 30
-1.000000000000000E+20
  9
$LIMMIN
 10
0.0
 20
0.0
  9
$LIMMAX
 10
12.0
 20
9.0
  9
$ORTHOMODE
 70
     0
  9
$REGENMODE
 70
     1
  9
$FILLMODE
 70
     1
  9
$QTEXTMODE
 70
     0
  9
$MIRRTEXT
 70
     1
  9
$LTSCALE
 40
1.0
  9
$ATTMODE
 70
     1
  9
$TEXTSIZE
 40
0.2
  9
$TRACEWID
 40
0.05
  9
$TEXTSTYLE
  7
Standard
  9
$CLAYER
  8
0
  9
$CELTYPE
  6
ByLayer
  9
$CECOLOR
 62
   256
  9
$CELTSCALE
 40
1.0
  9
$DISPSILH
 70
     0
  9
$DIMSCALE
 40
1.0
  9
$DIMASZ
 40
0.18
  9
$DIMEXO
 40
0.0625
  9
$DIMDLI
 40
0.38
  9
$DIMRND
 40
0.0
  9
$DIMDLE
 40
0.0
  9
$DIMEXE
 40
0.18
  9
$DIMTP
 40
0.0
  9
$DIMTM
 40
0.0
  9
$DIMTXT
 40
0.18
  9
$DIMCEN
 40
0.09
  9
$DIMTSZ
 40
0.0
  9
$DIMTOL
 70
     0
  9
$DIMLIM
 70
     0
  9
$DIMTIH
 70
     1
  9
$DIMTOH
 70
     1
  9
$DIMSE1
 70
     0
  9
$DIMSE2
 70
     0
  9
$DIMTAD
 70
     0
  9
$DIMZIN
 70
     0
  9
$DIMBLK
  1

  9
$DIMASO
 70
     1
  9
$DIMSHO
 70
     1
  9
$DIMPOST
  1

  9
$DIMAPOST
  1

  9
$DIMALT
 70
     0
  9
$DIMALTD
 70
     2
  9
$DIMALTF
 40
25.4
  9
$DIMLFAC
 40
1.0
  9
$DIMTOFL
 70
     0
  9
$DIMTVP
 40
0.0
  9
$DIMTIX
 70
     0
  9
$DIMSOXD
 70
     0
  9
$DIMSAH
 70
     0
  9
$DIMBLK1
  1

  9
$DIMBLK2
  1

  9
$DIMSTYLE
  2
Standard
  9
$DIMCLRD
 70
     0
  9
$DIMCLRE
 70
     0
  9
$DIMCLRT
 70
     0
  9
$DIMTFAC
 40
1.0
  9
$DIMGAP
 40
0.09
  9
$DIMJUST
 70
     0
  9
$DIMSD1
 70
     0
  9
$DIMSD2
 70
     0
  9
$DIMTOLJ
 70
     1
  9
$DIMTZIN
 70
     0
  9
$DIMALTZ
 70
     0
  9
$DIMALTTZ
 70
     0
  9
$DIMUPT
 70
     0
  9
$DIMDEC
 70
     4
  9
$DIMTDEC
 70
     4
  9
$DIMALTU
 70
     2
  9
$DIMALTTD
 70
     2
  9
$DIMTXSTY
  7
Standard
  9
$DIMAUNIT
 70
     0
  9
$DIMADEC
 70
     0
  9
$DIMALTRND
 40
0.0
  9
$DIMAZIN
 70
     0
  9
$DIMDSEP
 70
    46
  9
$DIMATFIT
 70
     3
  9
$DIMFRAC
 70
     0
  9
$DIMLDRBLK
  1

  9
$DIMLUNIT
 70
     2
  9
$DIMLWD
 70
    -2
  9
$DIMLWE
 70
    -2
  9
$DIMTMOVE
 70
     0
  9
$LUNITS
 70
     2
  9
$LUPREC
 70
     4
  9
$SKETCHINC
 40
0.1
  9
$FILLETRAD
 40
0.5
  9
$AUNITS
 70
     0
  9
$AUPREC
 70
     0
  9
$MENU
  1
.
  9
$ELEVATION
 40
0.0
  9
$PELEVATION
 40
0.0
  9
$THICKNESS
 40
0.0
  9
$LIMCHECK
 70
     0
  9
$CHAMFERA
 40
0.5
  9
$CHAMFERB
 40
0.5
  9
$CHAMFERC
 40
1.0
  9
$CHAMFERD
 40
0.0
  9
$SKPOLY
 70
     0
  9
$TDCREATE
 40
2455737.042554213
  9
$TDUCREATE
 40
2455737.292554213
  9
$TDUPDATE
 40
2455737.042554224
  9
$TDUUPDATE
 40
2455737.292554224
  9
$TDINDWG
 40
0.0000000116
  9
$TDUSRTIMER
 40
0.0000000116
  9
$USRTIMER
 70
     1
  9
$ANGBASE
 50
0.0
  9
$ANGDIR
 70
     0
  9
$PDMODE
 70
     0
  9
$PDSIZE
 40
0.0
  9
$PLINEWID
 40
0.0
  9
$SPLFRAME
 70
     0
  9
$SPLINETYPE
 70
     6
  9
$SPLINESEGS
 70
     8
  9
$HANDSEED
  5
46
  9
$SURFTAB1
 70
     6
  9
$SURFTAB2
 70
     6
  9
$SURFTYPE
 70
     6
  9
$SURFU
 70
     6
  9
$SURFV
 70
     6
  9
$UCSBASE
  2

  9
$UCSNAME
  2

  9
$UCSORG
 10
0.0
 20
0.0
 30
0.0
  9
$UCSXDIR
 10
1.0
 20
0.0
 30
0.0
  9
$UCSYDIR
 10
0.0
 20
1.0
 30
0.0
  9
$UCSORTHOREF
  2

  9
$UCSORTHOVIEW
 70
     0
  9
$UCSORGTOP
 10
0.0
 20
0.0
 30
0.0
  9
$UCSORGBOTTOM
 10
0.0
 20
0.0
 30
0.0
  9
$UCSORGLEFT
 10
0.0
 20
0.0
 30
0.0
  9
$UCSORGRIGHT
 10
0.0
 20
0.0
 30
0.0
  9
$UCSORGFRONT
 10
0.0
 20
0.0
 30
0.0
  9
$UCSORGBACK
 10
0.0
 20
0.0
 30
0.0
  9
$PUCSBASE
  2

  9
$PUCSNAME
  2

  9
$PUCSORG
 10
0.0
 20
0.0
 30
0.0
  9
$PUCSXDIR
 10
1.0
 20
0.0
 30
0.0
  9
$PUCSYDIR
 10
0.0
 20
1.0
 30
0.0
  9
$PUCSORTHOREF
  2

  9
$PUCSORTHOVIEW
 70
     0
  9
$PUCSORGTOP
 10
0.0
 20
0.0
 30
0.0
  9
$PUCSORGBOTTOM
 10
0.0
 20
0.0
 30
0.0
  9
$PUCSORGLEFT
 10
0.0
 20
0.0
 30
0.0
  9
$PUCSORGRIGHT
 10
0.0
 20
0.0
 30
0.0
  9
$PUCSORGFRONT
 10
0.0
 20
0.0
 30
0.0
  9
$PUCSORGBACK
 10
0.0
 20
0.0
 30
0.0
  9
$USERI1
 70
     0
  9
$USERI2
 70
     0
  9
$USERI3
 70
     0
  9
$USERI4
 70
     0
  9
$USERI5
 70
     0
  9
$USERR1
 40
0.0
  9
$USERR2
 40
0.0
  9
$USERR3
 40
0.0
  9
$USERR4
 40
0.0
  9
$USERR5
 40
0.0
  9
$WORLDVIEW
 70
     1
  9
$SHADEDGE
 70
     3
  9
$SHADEDIF
 70
    70
  9
$TILEMODE
 70
     1
  9
$MAXACTVP
 70
    64
  9
$PINSBASE
 10
0.0
 20
0.0
 30
0.0
  9
$PLIMCHECK
 70
     0
  9
$PEXTMIN
 10
1.000000000000000E+20
 20
1.000000000000000E+20
 30
1.000000000000000E+20
  9
$PEXTMAX
 10
-1.000000000000000E+20
 20
-1.000000000000000E+20
 30
-1.000000000000000E+20
  9
$PLIMMIN
 10
0.0
 20
0.0
  9
$PLIMMAX
 10
12.0
 20
9.0
  9
$UNITMODE
 70
     0
  9
$VISRETAIN
 70
     1
  9
$PLINEGEN
 70
     0
  9
$PSLTSCALE
 70
     1
  9
$TREEDEPTH
 70
  3020
  9
$CMLSTYLE
  2
Standard
  9
$CMLJUST
 70
     0
  9
$CMLSCALE
 40
1.0
  9
$PROXYGRAPHICS
 70
     1
  9
$MEASUREMENT
 70
     0
  9
$CELWEIGHT
370
    -1
  9
$ENDCAPS
280
     0
  9
$JOINSTYLE
280
     0
  9
$LWDISPLAY
290
     1
  9
$INSUNITS
 70
     1
  9
$HYPERLINKBASE
  1

  9
$STYLESHEET
  1

  9
$XEDIT
290
     1
  9
$CEPSNTYPE
380
     0
  9
$PSTYLEMODE
290
     1
  9
$FINGERPRINTGUID
  2
{191BC8FB-09D6-4A89-A8B9-21A5342743C6}
  9
$VERSIONGUID
  2
{FAEB1C32-E019-11D5-929B-00C0DF256EC4}
  9
$EXTNAMES
290
     1
  9
$PSVPSCALE
 40
0.0
  9
$OLESTARTUP
290
     0
  9
$SORTENTS
280
   127
  9
$INDEXCTL
280
     0
  9
$HIDETEXT
280
     1
  9
$XCLIPFRAME
290
     0
  9
$HALOGAP
280
     0
  9
$OBSCOLOR
 70
   257
  9
$OBSLTYPE
280
     0
  9
$INTERSECTIONDISPLAY
280
     0
  9
$INTERSECTIONCOLOR
 70
   257
  9
$DIMASSOC
280
     2
  9
$PROJECTNAME
  1

  0
ENDSEC
  0
SECTION
  2
CLASSES
  0
CLASS
  1
ACDBDICTIONARYWDFLT
  2
AcDbDictionaryWithDefault
  3
ObjectDBX Classes
 90
        0
 91
        3
280
     0
281
     0
  0
CLASS
  1
VISUALSTYLE
  2
AcDbVisualStyle
  3
ObjectDBX Classes
 90
     4095
 91
        3
280
     0
281
     0
  0
CLASS
  1
IMAGEDEF
  2
AcDbRasterImageDef
  3
ISM
 90
        0
 91
        3
280
     0
281
     0
  0
CLASS
  1
RASTERVARIABLES
  2
AcDbRasterVariables
  3
ISM
 90
        0
 91
        3
280
     0
281
     0
  0
CLASS
  1
IMAGE
  2
AcDbRasterImage
  3
ISM
 90
      127
 91
        4
280
     0
281
     1
  0
CLASS
  1
IMAGEDEF_REACTOR
  2
AcDbRasterImageDefReactor
  3
ISM
 90
        1
 91
        3
280
     0
281
     0
  0
ENDSEC
  0
SECTION
  2
TABLES
  0
TABLE
  2
VPORT
  5
8
330
0
100
AcDbSymbolTable
 70
     1
  0
VPORT
  5
29
330
8
100
AcDbSymbolTableRecord
100
AcDbViewportTableRecord
  2
*Active
 70
     0
 10
0.0
 20
0.0
 11
1.0
 21
1.0
 12
0.0
 22
0.0
 13
0.0
 23
0.0
 14
0.5
 24
0.5
 15
0.5
 25
0.5
 16
0.0
 26
0.0
 36
1.0
 17
57.1499999857125
 27
57.1499999857125
 37
0.0
 40
114.6527777491146
 41
1.0
 42
50.0
 43
0.0
 44
0.0
 50
0.0
 51
0.0
 71
     0
 72
   100
 73
     1
 74
     3
 75
     0
 76
     0
 77
     0
 78
     0
281
     0
 65
     1
110
0.0
120
0.0
130
0.0
111
1.0
121
0.0
131
0.0
112
0.0
122
1.0
132
0.0
 79
     0
146
0.0
  0
ENDTAB
  0
TABLE
  2
LTYPE
  5
5
330
0
100
AcDbSymbolTable
 70
     1
  0
LTYPE
  5
14
330
5
100
AcDbSymbolTableRecord
100
AcDbLinetypeTableRecord
  2
ByBlock
 70
     0
  3

 72
    65
 73
     0
 40
0.0
  0
LTYPE
  5
15
330
5
100
AcDbSymbolTableRecord
100
AcDbLinetypeTableRecord
  2
ByLayer
 70
     0
  3

 72
    65
 73
     0
 40
0.0
  0
LTYPE
  5
16
330
5
100
AcDbSymbolTableRecord
100
AcDbLinetypeTableRecord
  2
Continuous
 70
     0
  3
Solid line
 72
    65
 73
     0
 40
0.0
  0
ENDTAB
  0
TABLE
  2
LAYER
  5
2
330
0
100
AcDbSymbolTable
 70
     3
  0
LAYER
  5
10
330
2
100
AcDbSymbolTableRecord
100
AcDbLayerTableRecord
  2
0
 70
     0
 62
     7
  6
Continuous
370
    -3
390
F
  0
LAYER
  5
3B
330
2
100
AcDbSymbolTableRecord
100
AcDbLayerTableRecord
  2
Image Background
 70
     0
 62
     7
  6
Continuous
370
    -3
390
F
  0
LAYER
  5
41
330
2
100
AcDbSymbolTableRecord
100
AcDbLayerTableRecord
  2
Layer 1
 70
     0
 62
     7
  6
Continuous
370
    -3
390
F
  0
ENDTAB
  0
TABLE
  2
STYLE
  5
3
330
0
100
AcDbSymbolTable
 70
     1
  0
STYLE
  5
11
330
3
100
AcDbSymbolTableRecord
100
AcDbTextStyleTableRecord
  2
Standard
 70
     0
 40
0.0
 41
1.0
 50
0.0
 71
     0
 42
0.2
  3
txt
  4

  0
ENDTAB
  0
TABLE
  2
VIEW
  5
6
330
0
100
AcDbSymbolTable
 70
     0
  0
ENDTAB
  0
TABLE
  2
UCS
  5
7
330
0
100
AcDbSymbolTable
 70
     0
  0
ENDTAB
  0
TABLE
  2
APPID
  5
9
330
0
100
AcDbSymbolTable
 70
     1
  0
APPID
  5
12
330
9
100
AcDbSymbolTableRecord
100
AcDbRegAppTableRecord
  2
ACAD
 70
     0
  0
ENDTAB
  0
TABLE
  2
DIMSTYLE
  5
A
330
0
100
AcDbSymbolTable
 70
     1
100
AcDbDimStyleTable
  0
DIMSTYLE
105
27
330
A
100
AcDbSymbolTableRecord
100
AcDbDimStyleTableRecord
  2
Standard
 70
     0
340
11
  0
ENDTAB
  0
TABLE
  2
BLOCK_RECORD
  5
1
330
0
100
AcDbSymbolTable
 70
     1
  0
BLOCK_RECORD
  5
1F
330
1
100
AcDbSymbolTableRecord
100
AcDbBlockTableRecord
  2
*Model_Space
340
22
  0
BLOCK_RECORD
  5
1B
330
1
100
AcDbSymbolTableRecord
100
AcDbBlockTableRecord
  2
*Paper_Space
340
1E
  0
BLOCK_RECORD
  5
23
330
1
100
AcDbSymbolTableRecord
100
AcDbBlockTableRecord
  2
*Paper_Space0
340
26
  0
ENDTAB
  0
ENDSEC
  0
SECTION
  2
BLOCKS
  0
BLOCK
  5
20
330
1F
100
AcDbEntity
  8
0
100
AcDbBlockBegin
  2
*Model_Space
 70
     0
 71
     0
 10
0.0
 20
0.0
 30
0.0
  3
*Model_Space
  1

  0
ENDBLK
  5
21
330
1F
100
AcDbEntity
  8
0
100
AcDbBlockEnd
  0
BLOCK
  5
1C
330
1B
100
AcDbEntity
 67
     1
  8
0
100
AcDbBlockBegin
  2
*Paper_Space
 70
     0
 71
     0
 10
0.0
 20
0.0
 30
0.0
  3
*Paper_Space
  1

  0
ENDBLK
  5
1D
330
1B
100
AcDbEntity
 67
     1
  8
0
100
AcDbBlockEnd
  0
BLOCK
  5
24
330
23
100
AcDbEntity
  8
0
100
AcDbBlockBegin
  2
*Paper_Space0
 70
     0
 71
     0
 10
0.0
 20
0.0
 30
0.0
  3
*Paper_Space0
  1

  0
ENDBLK
  5
25
330
23
100
AcDbEntity
  8
0
100
AcDbBlockEnd
  0
ENDSEC
  0
SECTION
  2
ENTITIES
  0
IMAGE
  5
3F
330
1F
100
AcDbEntity
  8
Image Background
 92
        8
310
0800000000000000
100
AcDbRasterImage
 90
        0
 10
0.0
 20
-0.0000005960464478
 30
0.0
 11
0.084666668927228
 21
0.0
 31
0.0
 12
0.0
 22
0.084666668927228
 32
0.0
 13
1350.0
 23
1350.0
340
3D
 70
     3
280
     0
281
    50
282
    50
283
     0
360
40
 71
     1
 91
        2
 14
-0.5
 24
-0.5
 14
1349.5
 24
1349.5
  0
SPLINE
  5
42
330
1F
100
AcDbEntity
  8
Layer 1
370
     0
100
AcDbSpline
210
0.0
220
0.0
230
1.0
 70
    11
 71
     3
 72
   311
 73
   307
 74
     0
 42
0.0000000001
 43
0.0000000001
 40
0.0
 40
0.0
 40
0.0
 40
0.0
 40
1.0
 40
1.0
 40
1.0
 40
2.0
 40
2.0
 40
2.0
 40
3.0
 40
3.0
 40
3.0
 40
4.0
 40
4.0
 40
4.0
 40
5.0
 40
5.0
 40
5.0
 40
6.0
 40
6.0
 40
6.0
 40
7.0
 40
7.0
 40
7.0
 40
8.0
 40
8.0
 40
8.0
 40
9.0
 40
9.0
 40
9.0
 40
10.0
 40
10.0
 40
10.0
 40
11.0
 40
11.0
 40
11.0
 40
12.0
 40
12.0
 40
12.0
 40
13.0
 40
13.0
 40
13.0
 40
14.0
 40
14.0
 40
14.0
 40
15.0
 40
15.0
 40
15.0
 40
16.0
 40
16.0
 40
16.0
 40
17.0
 40
17.0
 40
17.0
 40
18.0
 40
18.0
 40
18.0
 40
19.0
 40
19.0
 40
19.0
 40
20.0
 40
20.0
 40
20.0
 40
21.0
 40
21.0
 40
21.0
 40
22.0
 40
22.0
 40
22.0
 40
23.0
 40
23.0
 40
23.0
 40
24.0
 40
24.0
 40
24.0
 40
25.0
 40
25.0
 40
25.0
 40
26.0
 40
26.0
 40
26.0
 40
27.0
 40
27.0
 40
27.0
 40
28.0
 40
28.0
 40
28.0
 40
29.0
 40
29.0
 40
29.0
 40
30.0
 40
30.0
 40
30.0
 40
31.0
 40
31.0
 40
31.0
 40
32.0
 40
32.0
 40
32.0
 40
33.0
 40
33.0
 40
33.0
 40
34.0
 40
34.0
 40
34.0
 40
35.0
 40
35.0
 40
35.0
 40
36.0
 40
36.0
 40
36.0
 40
37.0
 40
37.0
 40
37.0
 40
38.0
 40
38.0
 40
38.0
 40
39.0
 40
39.0
 40
39.0
 40
40.0
 40
40.0
 40
40.0
 40
41.0
 40
41.0
 40
41.0
 40
42.0
 40
42.0
 40
42.0
 40
43.0
 40
43.0
 40
43.0
 40
44.0
 40
44.0
 40
44.0
 40
45.0
 40
45.0
 40
45.0
 40
46.0
 40
46.0
 40
46.0
 40
47.0
 40
47.0
 40
47.0
 40
48.0
 40
48.0
 40
48.0
 40
49.0
 40
49.0
 40
49.0
 40
50.0
 40
50.0
 40
50.0
 40
51.0
 40
51.0
 40
51.0
 40
52.0
 40
52.0
 40
52.0
 40
53.0
 40
53.0
 40
53.0
 40
54.0
 40
54.0
 40
54.0
 40
55.0
 40
55.0
 40
55.0
 40
56.0
 40
56.0
 40
56.0
 40
57.0
 40
57.0
 40
57.0
 40
58.0
 40
58.0
 40
58.0
 40
59.0
 40
59.0
 40
59.0
 40
60.0
 40
60.0
 40
60.0
 40
61.0
 40
61.0
 40
61.0
 40
62.0
 40
62.0
 40
62.0
 40
63.0
 40
63.0
 40
63.0
 40
64.0
 40
64.0
 40
64.0
 40
65.0
 40
65.0
 40
65.0
 40
66.0
 40
66.0
 40
66.0
 40
67.0
 40
67.0
 40
67.0
 40
68.0
 40
68.0
 40
68.0
 40
69.0
 40
69.0
 40
69.0
 40
70.0
 40
70.0
 40
70.0
 40
71.0
 40
71.0
 40
71.0
 40
72.0
 40
72.0
 40
72.0
 40
73.0
 40
73.0
 40
73.0
 40
74.0
 40
74.0
 40
74.0
 40
75.0
 40
75.0
 40
75.0
 40
76.0
 40
76.0
 40
76.0
 40
77.0
 40
77.0
 40
77.0
 40
78.0
 40
78.0
 40
78.0
 40
79.0
 40
79.0
 40
79.0
 40
80.0
 40
80.0
 40
80.0
 40
81.0
 40
81.0
 40
81.0
 40
82.0
 40
82.0
 40
82.0
 40
83.0
 40
83.0
 40
83.0
 40
84.0
 40
84.0
 40
84.0
 40
85.0
 40
85.0
 40
85.0
 40
86.0
 40
86.0
 40
86.0
 40
87.0
 40
87.0
 40
87.0
 40
88.0
 40
88.0
 40
88.0
 40
89.0
 40
89.0
 40
89.0
 40
90.0
 40
90.0
 40
90.0
 40
91.0
 40
91.0
 40
91.0
 40
92.0
 40
92.0
 40
92.0
 40
93.0
 40
93.0
 40
93.0
 40
94.0
 40
94.0
 40
94.0
 40
95.0
 40
95.0
 40
95.0
 40
96.0
 40
96.0
 40
96.0
 40
97.0
 40
97.0
 40
97.0
 40
98.0
 40
98.0
 40
98.0
 40
99.0
 40
99.0
 40
99.0
 40
100.0
 40
100.0
 40
100.0
 40
101.0
 40
101.0
 40
101.0
 40
102.0
 40
102.0
 40
102.0
 40
102.0
 10
92.43535696473839
 20
8.962760414425977
 30
0.0
 10
92.4692911552681
 20
9.041997610586723
 30
0.0
 10
92.48823918043698
 20
9.12950303591207
 30
0.0
 10
92.48823918043698
 20
9.221142575819714
 30
0.0
 10
92.48823918043698
 20
9.221142575819714
 30
0.0
 10
92.48823918043698
 20
11.32919650324409
 30
0.0
 10
92.48823918043698
 20
11.32919650324409
 30
0.0
 10
92.48823918043698
 20
11.6919650578409
 30
0.0
 10
92.19402802599663
 20
11.98617621228123
 30
0.0
 10
91.83108721662556
 20
11.98617621228123
 30
0.0
 10
91.83108721662556
 20
11.98617621228123
 30
0.0
 10
90.64339054808569
 20
11.98617621228123
 30
0.0
 10
90.64339054808569
 20
11.98617621228123
 30
0.0
 10
90.64339054808569
 20
11.98617621228123
 30
0.0
 10
86.98022051861953
 20
33.02158473566821
 30
0.0
 10
86.98022051861953
 20
33.02158473566821
 30
0.0
 10
88.9344509326275
 20
33.07842881117484
 30
0.0
 10
90.6359835927924
 20
34.38136392369633
 30
0.0
 10
91.38288029399456
 20
36.15868868453672
 30
0.0
 10
92.15268688017363
 20
37.99079046359258
 30
0.0
 10
91.8841416870984
 20
40.1918619691187
 30
0.0
 10
90.65045299383044
 20
41.75800237671328
 30
0.0
 10
89.99588485163298
 20
42.58861489820701
 30
0.0
 10
89.08861895559244
 20
43.21217718103723
 30
0.0
 10
88.0650810869247
 20
43.4888183485028
 30
0.0
 10
88.0816175452539
 20
43.5122449978025
 30
0.0
 10
88.09832625835736
 20
43.53601615665072
 30
0.0
 10
88.11486271668656
 20
43.55944280595042
 30
0.0
 10
88.11486271668656
 20
43.55944280595042
 30
0.0
 10
88.11710202875197
 20
43.56254339188715
 30
0.0
 10
88.11710202875197
 20
43.56254339188715
 30
0.0
 10
88.775976540306
 20
44.48410643419147
 30
0.0
 10
89.4543158413517
 20
45.39498968049153
 30
0.0
 10
90.14970836504938
 20
46.28933646846239
 30
0.0
 10
90.82219100377016
 20
47.15371092571157
 30
0.0
 10
91.53463675011982
 20
47.98639050449646
 30
0.0
 10
92.2493218085349
 20
48.81596949734462
 30
0.0
 10
92.96538490514408
 20
49.6472710379354
 30
0.0
 10
93.69298907162884
 20
50.47030434936159
 30
0.0
 10
94.38218042345306
 20
51.3239990106065
 30
0.0
 10
94.92409394328287
 20
51.99544812068169
 30
0.0
 10
95.43724091581083
 20
52.69032388005659
 30
0.0
 10
95.92334388877958
 20
53.40311413595478
 30
0.0
 10
96.96841360423012
 20
54.93514809824539
 30
0.0
 10
97.89238821337413
 20
56.55158689992461
 30
0.0
 10
98.68062606039929
 20
58.23038192988685
 30
0.0
 10
99.49005124465874
 20
59.95396320115734
 30
0.0
 10
100.1583997687972
 20
61.74851343942399
 30
0.0
 10
100.624176678403
 20
63.59577363861495
 30
0.0
 10
101.0747951678737
 20
65.38412270500814
 30
0.0
 10
101.3366224247526
 20
67.230004866005
 30
0.0
 10
101.2980373553179
 20
69.07657604609892
 30
0.0
 10
101.2611748336257
 20
70.84597708732323
 30
0.0
 10
100.9387138962063
 20
72.61572263809607
 30
0.0
 10
100.2467664679939
 20
74.24938691720155
 30
0.0
 10
99.49384084969252
 20
76.02671167804193
 30
0.0
 10
98.44205319804574
 20
77.71928708994518
 30
0.0
 10
97.08933645576239
 20
79.10249292727299
 30
0.0
 10
96.42443302710917
 20
79.78221026651279
 30
0.0
 10
95.67908661887537
 20
80.38716903372266
 30
0.0
 10
94.85588105267492
 20
80.86534828707534
 30
0.0
 10
94.00494246781821
 20
81.35971948920869
 30
0.0
 10
93.07080482699271
 20
81.7100857000586
 30
0.0
 10
92.10962318660802
 20
81.91885848646473
 30
0.0
 10
90.19897323048845
 20
82.33399249243733
 30
0.0
 10
88.21132539027356
 20
82.15071341262205
 30
0.0
 10
86.35321314030406
 20
81.577794033425
 30
0.0
 10
84.45531003747993
 20
80.99212780093252
 30
0.0
 10
82.68539223193282
 20
80.02474498867437
 30
0.0
 10
81.08256155742033
 20
78.86030271465992
 30
0.0
 10
80.44866398813437
 20
78.39969344828202
 30
0.0
 10
79.83888208724514
 20
77.90601126524572
 30
0.0
 10
79.25528291204382
 20
77.38339028013333
 30
0.0
 10
79.25528291204382
 20
77.38339028013333
 30
0.0
 10
77.26074488085843
 20
88.83661022084641
 30
0.0
 10
77.26074488085843
 20
88.83661022084641
 30
0.0
 10
77.30053573371306
 20
88.8807074430576
 30
0.0
 10
77.33929305792212
 20
88.92480466526881
 30
0.0
 10
77.37701685348561
 20
88.96924639702853
 30
0.0
 10
77.37701685348561
 20
88.96924639702853
 30
0.0
 10
78.50597464400198
 20
88.96924639702853
 30
0.0
 10
78.50597464400198
 20
88.96924639702853
 30
0.0
 10
79.2342678295838
 20
88.96924639702853
 30
0.0
 10
79.7017672869322
 20
89.68927135344575
 30
0.0
 10
79.7017672869322
 20
90.35968693487536
 30
0.0
 10
79.7017672869322
 20
91.03010251630498
 30
0.0
 10
79.23409557480953
 20
91.74978296317367
 30
0.0
 10
78.50597464400198
 20
91.74978296317367
 30
0.0
 10
78.50597464400198
 20
91.74978296317367
 30
0.0
 10
78.27911510629828
 20
91.74978296317367
 30
0.0
 10
78.27911510629828
 20
91.74978296317367
 30
0.0
 10
77.70016681000205
 20
95.36920027997715
 30
0.0
 10
70.83323023402781
 20
99.67694767473354
 30
0.0
 10
62.09715710253127
 20
100.2932752570447
 30
0.0
 10
62.58584389711396
 20
101.2062255606359
 30
0.0
 10
62.8836724018138
 20
102.2159830473627
 30
0.0
 10
63.26022133835161
 20
103.1771646877474
 30
0.0
 10
63.42214082615835
 20
103.5902316364288
 30
0.0
 10
63.55477700234047
 20
103.9950303559457
 30
0.0
 10
63.5606336646654
 20
104.4432372785767
 30
0.0
 10
63.56545679834475
 20
104.8197862151145
 30
0.0
 10
63.49018146199204
 20
105.1942680943612
 30
0.0
 10
63.34824352799975
 20
105.5422227383714
 30
0.0
 10
63.06850177459746
 20
106.2281412494846
 30
0.0
 10
62.54812010155047
 20
106.8010606286817
 30
0.0
 10
61.94230006046929
 20
107.2172281632999
 30
0.0
 10
61.3984917381226
 20
107.5910210234495
 30
0.0
 10
60.74650741753907
 20
107.8759304200796
 30
0.0
 10
60.08005369591749
 20
107.9069362794469
 30
0.0
 10
59.43289250901331
 20
107.9369086101686
 30
0.0
 10
58.7826307361724
 20
107.6923068307158
 30
0.0
 10
58.23554957311472
 20
107.3633002118745
 30
0.0
 10
57.60923121389631
 20
106.9867512753366
 30
0.0
 10
57.05870495535338
 20
106.4520724560259
 30
0.0
 10
56.72160236212169
 20
105.7988823520225
 30
0.0
 10
56.36107311959029
 20
105.0998724780653
 30
0.0
 10
56.29647757924185
 20
104.2985432681962
 30
0.0
 10
56.54814180443935
 20
103.5523355860911
 30
0.0
 10
56.63599173931323
 20
103.2918863674062
 30
0.0
 10
56.7472683234868
 20
103.0383273396918
 30
0.0
 10
56.84476452571937
 20
102.7813232164922
 30
0.0
 10
56.94415553046883
 20
102.5188069405161
 30
0.0
 10
57.04113496837861
 20
102.2552571358945
 30
0.0
 10
57.1389756801597
 20
101.99239635037
 30
0.0
 10
57.31295300216482
 20
101.5242078739245
 30
0.0
 10
57.48761934326699
 20
101.0549858688335
 30
0.0
 10
57.70052624425543
 20
100.6033338507172
 30
0.0
 10
57.7497911096945
 20
100.4986029479656
 30
0.0
 10
57.80112303242472
 20
100.3952500834081
 30
0.0
 10
57.85555554109167
 20
100.2932752570447
 30
0.0
 10
49.11982691914366
 20
99.67729218428207
 30
0.0
 10
42.25220132407237
 20
95.36954478952568
 30
0.0
 10
41.67308077300187
 20
91.74978296317367
 30
0.0
 10
41.67308077300187
 20
91.74978296317367
 30
0.0
 10
41.44639349007243
 20
91.74978296317367
 30
0.0
 10
41.44639349007243
 20
91.74978296317367
 30
0.0
 10
40.71827255926488
 20
91.74978296317367
 30
0.0
 10
40.25077310191647
 20
91.02975800675645
 30
0.0
 10
40.25077310191647
 20
90.35968693487536
 30
0.0
 10
40.25077310191647
 20
89.68927135344575
 30
0.0
 10
40.71810030449062
 20
88.96924639702853
 30
0.0
 10
41.44639349007243
 20
88.96924639702853
 30
0.0
 10
41.44639349007243
 20
88.96924639702853
 30
0.0
 10
42.57535128058881
 20
88.96924639702853
 30
0.0
 10
42.57535128058881
 20
88.96924639702853
 30
0.0
 10
42.61307507615229
 20
88.92480466526881
 30
0.0
 10
42.65183240036135
 20
88.8807074430576
 30
0.0
 10
42.69162325321599
 20
88.83661022084641
 30
0.0
 10
42.69162325321599
 20
88.83661022084641
 30
0.0
 10
37.74136555046049
 20
60.40940482430737
 30
0.0
 10
37.74136555046049
 20
60.40940482430737
 30
0.0
 10
35.75251192682576
 20
60.67192110028341
 30
0.0
 10
33.80258788217436
 20
61.37127548378913
 30
0.0
 10
32.07917886567812
 20
62.39481335245686
 30
0.0
 10
30.63912895284369
 20
63.24988605189586
 30
0.0
 10
29.23111842802208
 20
64.39021265751356
 30
0.0
 10
28.50024142082633
 20
65.93327092535696
 30
0.0
 10
27.85084092185674
 20
67.30407441893787
 30
0.0
 10
27.45069308124497
 20
68.78029783436743
 30
0.0
 10
27.13770615641002
 20
70.25962183573371
 30
0.0
 10
26.80542669685767
 20
71.82955184836206
 30
0.0
 10
26.57184922295773
 20
73.41808537661076
 30
0.0
 10
26.30037569872005
 20
74.99938420434043
 30
0.0
 10
26.03200276041908
 20
76.56173500690123
 30
0.0
 10
25.7315904341053
 20
78.12511933810761
 30
0.0
 10
25.25254990688131
 20
79.63854978477787
 30
0.0
 10
24.79917534102243
 20
81.07102048754474
 30
0.0
 10
24.17544080341795
 20
82.4645616113283
 30
0.0
 10
23.2585286400187
 20
83.66311033064673
 30
0.0
 10
22.79860839273785
 20
84.26427949282282
 30
0.0
 10
22.26806368800937
 20
84.81101614633197
 30
0.0
 10
21.6768853027405
 20
85.2843722660053
 30
0.0
 10
21.02679578467386
 20
85.80458168427802
 30
0.0
 10
20.30470377096549
 20
86.23935273451656
 30
0.0
 10
19.58123371906303
 20
86.64863007816423
 30
0.0
 10
19.00262993231532
 20
86.97625865881149
 30
0.0
 10
18.41110703749792
 20
87.28287215699874
 30
0.0
 10
17.80390895822264
 20
87.55400117168789
 30
0.0
 10
17.27439778213973
 20
87.79067923152455
 30
0.0
 10
16.72800563817911
 20
88.00978730438645
 30
0.0
 10
16.16145968562978
 20
88.13966740418037
 30
0.0
 10
14.63562689521262
 20
87.72901202233858
 30
0.0
 10
12.99834526584764
 20
85.21202526081505
 30
0.0
 10
12.99834526584764
 20
85.21202526081505
 30
0.0
 10
14.31264919347045
 20
84.54298771757954
 30
0.0
 10
15.63039821657851
 20
83.80573728373606
 30
0.0
 10
16.70457898887941
 20
82.78116588642277
 30
0.0
 10
17.70038383889088
 20
81.83135306113938
 30
0.0
 10
18.39095322890921
 20
80.64589570466492
 30
0.0
 10
18.79402940068344
 20
79.33365883433325
 30
0.0
 10
19.04242078516995
 20
78.52475041439659
 30
0.0
 10
19.19176567445553
 20
77.6879367210294
 30
0.0
 10
19.28753932894548
 20
76.8480224417255
 30
0.0
 10
19.31320529031059
 20
76.62236868744164
 30
0.0
 10
19.32819145567143
 20
76.39671493315777
 30
0.0
 10
19.3361151752875
 20
76.17002765022833
 30
0.0
 10
19.35661349342474
 20
75.59262964690046
 30
0.0
 10
19.34731173561456
 20
75.01419811492701
 30
0.0
 10
19.33594292051324
 20
74.43680011159914
 30
0.0
 10
19.32061224560388
 20
73.6599310796753
 30
0.0
 10
19.29632432243286
 20
72.88340655729999
 30
0.0
 10
19.27479247565005
 20
72.10653752537614
 30
0.0
 10
19.24860974996215
 20
71.166715477
 30
0.0
 10
19.22535535543672
 20
70.22654891907531
 30
0.0
 10
19.21140271872146
 20
69.28638236115063
 30
0.0
 10
19.19555527948931
 20
68.21909177982023
 30
0.0
 10
19.19124891013275
 20
67.15111217939278
 30
0.0
 10
19.20399576342817
 20
66.08382159806239
 30
0.0
 10
19.21794840014343
 20
64.92420245772729
 30
0.0
 10
19.25188259067314
 20
63.76458331739219
 30
0.0
 10
19.3113104877937
 20
62.60599770570267
 30
0.0
 10
19.37401122562525
 20
61.38918998031243
 30
0.0
 10
19.46496174643584
 20
60.17341578356776
 30
0.0
 10
19.59174126029304
 20
58.96108668230834
 30
0.0
 10
19.72144910531269
 20
57.7208523076184
 30
0.0
 10
19.88870849112157
 20
56.48440753796223
 30
0.0
 10
20.1035101946269
 20
55.25623099747067
 30
0.0
 10
20.31865640768075
 20
54.02633190923648
 30
0.0
 10
20.58151719320531
 20
52.80435654061836
 30
0.0
 10
20.9053561688188
 20
51.59857312078091
 30
0.0
 10
21.22437201075294
 20
50.41139321656382
 30
0.0
 10
21.60247124025911
 20
49.23937173248183
 30
0.0
 10
22.05567355134372
 20
48.09628905047593
 30
0.0
 10
22.49785155687554
 20
46.98145615144908
 30
0.0
 10
23.01168754850055
 20
45.89418401630424
 30
0.0
 10
23.61285671067665
 20
44.85617674659846
 30
0.0
 10
24.20024549091174
 20
43.84228514528943
 30
0.0
 10
24.87169460098694
 20
42.87559135212832
 30
0.0
 10
25.63547227006683
 20
41.98606769783682
 30
0.0
 10
26.39580484366147
 20
41.10067815812761
 30
0.0
 10
27.24743244761522
 20
40.29314777638505
 30
0.0
 10
28.18191459798924
 20
39.59344888333081
 30
0.0
 10
29.14843613637609
 20
38.86928981233129
 30
0.0
 10
30.20125731666844
 20
38.26295300692732
 30
0.0
 10
31.31057806291889
 20
37.78580728222022
 30
0.0
 10
31.62373724252809
 20
37.65110404874694
 30
0.0
 10
31.94137504626813
 20
37.52639159218091
 30
0.0
 10
32.26263020026768
 20
37.41201442207061
 30
0.0
 10
32.43781330569263
 20
37.34931368423906
 30
0.0
 10
32.615235723183
 20
37.29350313737802
 30
0.0
 10
32.79076333815648
 20
37.23218043774057
 30
0.0
 10
33.08187390666009
 20
37.13020561137717
 30
0.0
 10
33.36299369825647
 20
37.00170354977735
 30
0.0
 10
33.64273545165877
 20
36.87216795953196
 30
0.0
 10
33.64273545165877
 20
36.87216795953196
 30
0.0
 10
29.30914984076299
 20
11.98617621228123
 30
0.0
 10
29.30914984076299
 20
11.98617621228123
 30
0.0
 10
29.30914984076299
 20
11.98617621228123
 30
0.0
 10
28.12145317222311
 20
11.98617621228123
 30
0.0
 10
28.12145317222311
 20
11.98617621228123
 30
0.0
 10
27.75851236285204
 20
11.98617621228123
 30
0.0
 10
27.4643012084117
 20
11.6919650578409
 30
0.0
 10
27.4643012084117
 20
11.32919650324409
 30
0.0
 10
27.4643012084117
 20
11.32919650324409
 30
0.0
 10
27.4643012084117
 20
9.221142575819714
 30
0.0
 10
27.4643012084117
 20
9.221142575819714
 30
0.0
 10
27.4643012084117
 20
9.12950303591207
 30
0.0
 10
27.48324923358058
 20
9.041997610586723
 30
0.0
 10
27.51718342411029
 20
8.962760414425977
 30
0.0
 10
27.26035155568491
 20
8.611360674930493
 30
0.0
 10
27.98537190055574
 20
8.362624780895455
 30
0.0
 10
28.19690076335008
 20
8.286832680219959
 30
0.0
 10
28.89367132524186
 20
8.038096786184921
 30
0.0
 10
29.63557263799041
 20
7.905460610002802
 30
0.0
 10
30.36283229492665
 20
7.781781682082332
 30
0.0
 10
31.50126409802746
 20
7.588511825359816
 30
0.0
 10
32.64916991371271
 20
7.450708005949823
 30
0.0
 10
33.79724798417222
 20
7.330818683063129
 30
0.0
 10
35.30723333535722
 20
7.172688800290161
 30
0.0
 10
36.82083603680174
 20
7.050732420112317
 30
0.0
 10
38.33530001211756
 20
6.946346026909247
 30
0.0
 10
40.15930581678309
 20
6.820600041697628
 30
0.0
 10
41.98503416919124
 20
6.722070310819483
 30
0.0
 10
43.81162379547071
 20
6.641110566916112
 30
0.0
 10
45.89401176152997
 20
6.548782007911416
 30
0.0
 10
47.97726100146055
 20
6.47988009820642
 30
0.0
 10
50.06102700571391
 20
6.428203665927672
 30
0.0
 10
52.34633109585439
 20
6.372048609518099
 30
0.0
 10
54.63215195031766
 20
6.336908635568551
 30
0.0
 10
56.91831731432945
 20
6.320372177239352
 30
0.0
 10
59.31041936451268
 20
6.303146699813102
 30
0.0
 10
61.70286592424443
 20
6.305902776201302
 30
0.0
 10
64.09514022920192
 20
6.329329425501001
 30
0.0
 10
66.3542615936545
 20
6.3513780366066
 30
0.0
 10
68.61321070333281
 20
6.391685653784023
 30
0.0
 10
70.87164304868834
 20
6.454041882067045
 30
0.0
 10
72.92026907899216
 20
6.510196938476618
 30
0.0
 10
74.96855059974745
 20
6.583921981860964
 30
0.0
 10
77.0156263370829
 20
6.681418184093535
 30
0.0
 10
78.79880776024822
 20
6.76616753303068
 30
0.0
 10
80.58130016431649
 20
6.8684868689426
 30
0.0
 10
82.3617255110936
 20
6.99905598783357
 30
0.0
 10
83.82468530890495
 20
7.106542966973365
 30
0.0
 10
85.28678383284497
 20
7.231599933087933
 30
0.0
 10
86.7447482422027
 20
7.394552949540251
 30
0.0
 10
87.83339841554165
 20
7.51616482016957
 30
0.0
 10
88.9220485888806
 20
7.655002168225138
 30
0.0
 10
89.99950220189248
 20
7.854473196821104
 30
0.0
 10
90.65785994912373
 20
7.976429576998949
 30
0.0
 10
91.34119463862304
 20
8.103898109953192
 30
0.0
 10
91.96079506164523
 20
8.366758895477755
 30
0.0
 10
92.13563365752165
 20
8.440828448410626
 30
0.0
 10
92.48823918043698
 20
8.581732853757345
 30
0.0
 10
92.48823918043698
 20
8.819099932691058
 30
0.0
 10
92.48823918043698
 20
8.867331269484556
 30
0.0
 10
92.46998017436515
 20
8.915218096729529
 30
0.0
 10
92.43535696473839
 20
8.962760414425977
 30
0.0
  0
SPLINE
  5
43
330
1F
100
AcDbEntity
  8
Layer 1
370
     0
100
AcDbSpline
210
0.0
220
0.0
230
1.0
 70
    11
 71
     3
 72
    44
 73
    40
 74
     0
 42
0.0000000001
 43
0.0000000001
 40
0.0
 40
0.0
 40
0.0
 40
0.0
 40
1.0
 40
1.0
 40
1.0
 40
2.0
 40
2.0
 40
2.0
 40
3.0
 40
3.0
 40
3.0
 40
4.0
 40
4.0
 40
4.0
 40
5.0
 40
5.0
 40
5.0
 40
6.0
 40
6.0
 40
6.0
 40
7.0
 40
7.0
 40
7.0
 40
8.0
 40
8.0
 40
8.0
 40
9.0
 40
9.0
 40
9.0
 40
10.0
 40
10.0
 40
10.0
 40
11.0
 40
11.0
 40
11.0
 40
12.0
 40
12.0
 40
12.0
 40
13.0
 40
13.0
 40
13.0
 40
13.0
 10
85.32054576860043
 20
73.193809660521
 30
0.0
 10
86.73079560548744
 20
74.16636011600703
 30
0.0
 10
88.50433076129406
 20
74.79819062800185
 30
0.0
 10
90.20086803300535
 20
74.23526202571202
 30
0.0
 10
91.65797116849176
 20
73.75122611003442
 30
0.0
 10
92.63913436269091
 20
72.46551647493918
 30
0.0
 10
93.20275198407779
 20
71.09023435722744
 30
0.0
 10
93.80150957941422
 20
69.6295138714815
 30
0.0
 10
93.99271237884558
 20
68.03443466181083
 30
0.0
 10
93.86937796047363
 20
66.46726072557068
 30
0.0
 10
93.73071286719232
 20
64.70474987531686
 30
0.0
 10
93.20602482478877
 20
62.99977211966673
 30
0.0
 10
92.42398814963707
 20
61.4191623110341
 30
0.0
 10
91.64195147448535
 20
59.83924152149853
 30
0.0
 10
90.62495928723959
 20
58.38747828401424
 30
0.0
 10
89.53630911390064
 20
57.00530597533201
 30
0.0
 10
88.42819415107004
 20
55.59901799825303
 30
0.0
 10
87.23998071820736
 20
54.25853134494231
 30
0.0
 10
86.08639049497147
 20
52.88979490865255
 30
0.0
 10
85.45783282368762
 20
52.14427624564449
 30
0.0
 10
84.83909367453676
 20
51.38980033437478
 30
0.0
 10
84.2523939133987
 20
50.61086424515979
 30
0.0
 10
84.2523939133987
 20
50.61086424515979
 30
0.0
 10
84.24981009178477
 20
50.60741914967453
 30
0.0
 10
84.24981009178477
 20
50.60741914967453
 30
0.0
 10
84.24981009178477
 20
50.60741914967453
 30
0.0
 10
84.25204940385018
 20
50.61017522606274
 30
0.0
 10
84.25204940385018
 20
50.61017522606274
 30
0.0
 10
84.16454397852485
 20
50.49338648911277
 30
0.0
 10
84.07376571248851
 20
50.37315265667755
 30
0.0
 10
83.98040362483823
 20
50.24912921920856
 30
0.0
 10
83.98040362483823
 20
50.24912921920856
 30
0.0
 10
80.86465926797828
 20
68.14088811230506
 30
0.0
 10
80.86465926797828
 20
68.14088811230506
 30
0.0
 10
81.10771075446266
 20
68.56256779969964
 30
0.0
 10
81.3757391832151
 20
68.98045788206045
 30
0.0
 10
81.64290633809622
 20
69.3687201432481
 30
0.0
 10
82.6437065765613
 20
70.82289494757205
 30
0.0
 10
83.86120332104859
 20
72.18749726927952
 30
0.0
 10
85.32054576860043
 20
73.193809660521
 30
0.0
  0
HATCH
  5
44
330
1F
100
AcDbEntity
  8
Layer 1
 62
    19
420
  5450273
100
AcDbHatch
 10
0.0
 20
0.0
 30
0.0
210
0.0
220
0.0
230
1.0
  2
SOLID
 70
     1
 71
     0
 91
        2
 92
        1
 93
        1
 72
     4
 94
        3
 73
     0
 74
     1
 95
      311
 96
      307
 40
0.0
 40
0.0
 40
0.0
 40
0.0
 40
1.0
 40
1.0
 40
1.0
 40
2.0
 40
2.0
 40
2.0
 40
3.0
 40
3.0
 40
3.0
 40
4.0
 40
4.0
 40
4.0
 40
5.0
 40
5.0
 40
5.0
 40
6.0
 40
6.0
 40
6.0
 40
7.0
 40
7.0
 40
7.0
 40
8.0
 40
8.0
 40
8.0
 40
9.0
 40
9.0
 40
9.0
 40
10.0
 40
10.0
 40
10.0
 40
11.0
 40
11.0
 40
11.0
 40
12.0
 40
12.0
 40
12.0
 40
13.0
 40
13.0
 40
13.0
 40
14.0
 40
14.0
 40
14.0
 40
15.0
 40
15.0
 40
15.0
 40
16.0
 40
16.0
 40
16.0
 40
17.0
 40
17.0
 40
17.0
 40
18.0
 40
18.0
 40
18.0
 40
19.0
 40
19.0
 40
19.0
 40
20.0
 40
20.0
 40
20.0
 40
21.0
 40
21.0
 40
21.0
 40
22.0
 40
22.0
 40
22.0
 40
23.0
 40
23.0
 40
23.0
 40
24.0
 40
24.0
 40
24.0
 40
25.0
 40
25.0
 40
25.0
 40
26.0
 40
26.0
 40
26.0
 40
27.0
 40
27.0
 40
27.0
 40
28.0
 40
28.0
 40
28.0
 40
29.0
 40
29.0
 40
29.0
 40
30.0
 40
30.0
 40
30.0
 40
31.0
 40
31.0
 40
31.0
 40
32.0
 40
32.0
 40
32.0
 40
33.0
 40
33.0
 40
33.0
 40
34.0
 40
34.0
 40
34.0
 40
35.0
 40
35.0
 40
35.0
 40
36.0
 40
36.0
 40
36.0
 40
37.0
 40
37.0
 40
37.0
 40
38.0
 40
38.0
 40
38.0
 40
39.0
 40
39.0
 40
39.0
 40
40.0
 40
40.0
 40
40.0
 40
41.0
 40
41.0
 40
41.0
 40
42.0
 40
42.0
 40
42.0
 40
43.0
 40
43.0
 40
43.0
 40
44.0
 40
44.0
 40
44.0
 40
45.0
 40
45.0
 40
45.0
 40
46.0
 40
46.0
 40
46.0
 40
47.0
 40
47.0
 40
47.0
 40
48.0
 40
48.0
 40
48.0
 40
49.0
 40
49.0
 40
49.0
 40
50.0
 40
50.0
 40
50.0
 40
51.0
 40
51.0
 40
51.0
 40
52.0
 40
52.0
 40
52.0
 40
53.0
 40
53.0
 40
53.0
 40
54.0
 40
54.0
 40
54.0
 40
55.0
 40
55.0
 40
55.0
 40
56.0
 40
56.0
 40
56.0
 40
57.0
 40
57.0
 40
57.0
 40
58.0
 40
58.0
 40
58.0
 40
59.0
 40
59.0
 40
59.0
 40
60.0
 40
60.0
 40
60.0
 40
61.0
 40
61.0
 40
61.0
 40
62.0
 40
62.0
 40
62.0
 40
63.0
 40
63.0
 40
63.0
 40
64.0
 40
64.0
 40
64.0
 40
65.0
 40
65.0
 40
65.0
 40
66.0
 40
66.0
 40
66.0
 40
67.0
 40
67.0
 40
67.0
 40
68.0
 40
68.0
 40
68.0
 40
69.0
 40
69.0
 40
69.0
 40
70.0
 40
70.0
 40
70.0
 40
71.0
 40
71.0
 40
71.0
 40
72.0
 40
72.0
 40
72.0
 40
73.0
 40
73.0
 40
73.0
 40
74.0
 40
74.0
 40
74.0
 40
75.0
 40
75.0
 40
75.0
 40
76.0
 40
76.0
 40
76.0
 40
77.0
 40
77.0
 40
77.0
 40
78.0
 40
78.0
 40
78.0
 40
79.0
 40
79.0
 40
79.0
 40
80.0
 40
80.0
 40
80.0
 40
81.0
 40
81.0
 40
81.0
 40
82.0
 40
82.0
 40
82.0
 40
83.0
 40
83.0
 40
83.0
 40
84.0
 40
84.0
 40
84.0
 40
85.0
 40
85.0
 40
85.0
 40
86.0
 40
86.0
 40
86.0
 40
87.0
 40
87.0
 40
87.0
 40
88.0
 40
88.0
 40
88.0
 40
89.0
 40
89.0
 40
89.0
 40
90.0
 40
90.0
 40
90.0
 40
91.0
 40
91.0
 40
91.0
 40
92.0
 40
92.0
 40
92.0
 40
93.0
 40
93.0
 40
93.0
 40
94.0
 40
94.0
 40
94.0
 40
95.0
 40
95.0
 40
95.0
 40
96.0
 40
96.0
 40
96.0
 40
97.0
 40
97.0
 40
97.0
 40
98.0
 40
98.0
 40
98.0
 40
99.0
 40
99.0
 40
99.0
 40
100.0
 40
100.0
 40
100.0
 40
101.0
 40
101.0
 40
101.0
 40
102.0
 40
102.0
 40
102.0
 40
102.0
 10
92.43535696473839
 20
8.962760414425977
 10
92.4692911552681
 20
9.041997610586723
 10
92.48823918043698
 20
9.12950303591207
 10
92.48823918043698
 20
9.221142575819714
 10
92.48823918043698
 20
9.221142575819714
 10
92.48823918043698
 20
11.32919650324409
 10
92.48823918043698
 20
11.32919650324409
 10
92.48823918043698
 20
11.6919650578409
 10
92.19402802599663
 20
11.98617621228123
 10
91.83108721662556
 20
11.98617621228123
 10
91.83108721662556
 20
11.98617621228123
 10
90.64339054808569
 20
11.98617621228123
 10
90.64339054808569
 20
11.98617621228123
 10
90.64339054808569
 20
11.98617621228123
 10
86.98022051861953
 20
33.02158473566821
 10
86.98022051861953
 20
33.02158473566821
 10
88.9344509326275
 20
33.07842881117484
 10
90.6359835927924
 20
34.38136392369633
 10
91.38288029399456
 20
36.15868868453672
 10
92.15268688017363
 20
37.99079046359258
 10
91.8841416870984
 20
40.1918619691187
 10
90.65045299383044
 20
41.75800237671328
 10
89.99588485163298
 20
42.58861489820701
 10
89.08861895559244
 20
43.21217718103723
 10
88.0650810869247
 20
43.4888183485028
 10
88.0816175452539
 20
43.5122449978025
 10
88.09832625835736
 20
43.53601615665072
 10
88.11486271668656
 20
43.55944280595042
 10
88.11486271668656
 20
43.55944280595042
 10
88.11710202875197
 20
43.56254339188715
 10
88.11710202875197
 20
43.56254339188715
 10
88.775976540306
 20
44.48410643419147
 10
89.4543158413517
 20
45.39498968049153
 10
90.14970836504938
 20
46.28933646846239
 10
90.82219100377016
 20
47.15371092571157
 10
91.53463675011982
 20
47.98639050449646
 10
92.2493218085349
 20
48.81596949734462
 10
92.96538490514408
 20
49.6472710379354
 10
93.69298907162884
 20
50.47030434936159
 10
94.38218042345306
 20
51.3239990106065
 10
94.92409394328287
 20
51.99544812068169
 10
95.43724091581083
 20
52.69032388005659
 10
95.92334388877958
 20
53.40311413595478
 10
96.96841360423012
 20
54.93514809824539
 10
97.89238821337413
 20
56.55158689992461
 10
98.68062606039929
 20
58.23038192988685
 10
99.49005124465874
 20
59.95396320115734
 10
100.1583997687972
 20
61.74851343942399
 10
100.624176678403
 20
63.59577363861495
 10
101.0747951678737
 20
65.38412270500814
 10
101.3366224247526
 20
67.230004866005
 10
101.2980373553179
 20
69.07657604609892
 10
101.2611748336257
 20
70.84597708732323
 10
100.9387138962063
 20
72.61572263809607
 10
100.2467664679939
 20
74.24938691720155
 10
99.49384084969252
 20
76.02671167804193
 10
98.44205319804574
 20
77.71928708994518
 10
97.08933645576239
 20
79.10249292727299
 10
96.42443302710917
 20
79.78221026651279
 10
95.67908661887537
 20
80.38716903372266
 10
94.85588105267492
 20
80.86534828707534
 10
94.00494246781821
 20
81.35971948920869
 10
93.07080482699271
 20
81.7100857000586
 10
92.10962318660802
 20
81.91885848646473
 10
90.19897323048845
 20
82.33399249243733
 10
88.21132539027356
 20
82.15071341262205
 10
86.35321314030406
 20
81.577794033425
 10
84.45531003747993
 20
80.99212780093252
 10
82.68539223193282
 20
80.02474498867437
 10
81.08256155742033
 20
78.86030271465992
 10
80.44866398813437
 20
78.39969344828202
 10
79.83888208724514
 20
77.90601126524572
 10
79.25528291204382
 20
77.38339028013333
 10
79.25528291204382
 20
77.38339028013333
 10
77.26074488085843
 20
88.83661022084641
 10
77.26074488085843
 20
88.83661022084641
 10
77.30053573371306
 20
88.8807074430576
 10
77.33929305792212
 20
88.92480466526881
 10
77.37701685348561
 20
88.96924639702853
 10
77.37701685348561
 20
88.96924639702853
 10
78.50597464400198
 20
88.96924639702853
 10
78.50597464400198
 20
88.96924639702853
 10
79.2342678295838
 20
88.96924639702853
 10
79.7017672869322
 20
89.68927135344575
 10
79.7017672869322
 20
90.35968693487536
 10
79.7017672869322
 20
91.03010251630498
 10
79.23409557480953
 20
91.74978296317367
 10
78.50597464400198
 20
91.74978296317367
 10
78.50597464400198
 20
91.74978296317367
 10
78.27911510629828
 20
91.74978296317367
 10
78.27911510629828
 20
91.74978296317367
 10
77.70016681000205
 20
95.36920027997715
 10
70.83323023402781
 20
99.67694767473354
 10
62.09715710253127
 20
100.2932752570447
 10
62.58584389711396
 20
101.2062255606359
 10
62.8836724018138
 20
102.2159830473627
 10
63.26022133835161
 20
103.1771646877474
 10
63.42214082615835
 20
103.5902316364288
 10
63.55477700234047
 20
103.9950303559457
 10
63.5606336646654
 20
104.4432372785767
 10
63.56545679834475
 20
104.8197862151145
 10
63.49018146199204
 20
105.1942680943612
 10
63.34824352799975
 20
105.5422227383714
 10
63.06850177459746
 20
106.2281412494846
 10
62.54812010155047
 20
106.8010606286817
 10
61.94230006046929
 20
107.2172281632999
 10
61.3984917381226
 20
107.5910210234495
 10
60.74650741753907
 20
107.8759304200796
 10
60.08005369591749
 20
107.9069362794469
 10
59.43289250901331
 20
107.9369086101686
 10
58.7826307361724
 20
107.6923068307158
 10
58.23554957311472
 20
107.3633002118745
 10
57.60923121389631
 20
106.9867512753366
 10
57.05870495535338
 20
106.4520724560259
 10
56.72160236212169
 20
105.7988823520225
 10
56.36107311959029
 20
105.0998724780653
 10
56.29647757924185
 20
104.2985432681962
 10
56.54814180443935
 20
103.5523355860911
 10
56.63599173931323
 20
103.2918863674062
 10
56.7472683234868
 20
103.0383273396918
 10
56.84476452571937
 20
102.7813232164922
 10
56.94415553046883
 20
102.5188069405161
 10
57.04113496837861
 20
102.2552571358945
 10
57.1389756801597
 20
101.99239635037
 10
57.31295300216482
 20
101.5242078739245
 10
57.48761934326699
 20
101.0549858688335
 10
57.70052624425543
 20
100.6033338507172
 10
57.7497911096945
 20
100.4986029479656
 10
57.80112303242472
 20
100.3952500834081
 10
57.85555554109167
 20
100.2932752570447
 10
49.11982691914366
 20
99.67729218428207
 10
42.25220132407237
 20
95.36954478952568
 10
41.67308077300187
 20
91.74978296317367
 10
41.67308077300187
 20
91.74978296317367
 10
41.44639349007243
 20
91.74978296317367
 10
41.44639349007243
 20
91.74978296317367
 10
40.71827255926488
 20
91.74978296317367
 10
40.25077310191647
 20
91.02975800675645
 10
40.25077310191647
 20
90.35968693487536
 10
40.25077310191647
 20
89.68927135344575
 10
40.71810030449062
 20
88.96924639702853
 10
41.44639349007243
 20
88.96924639702853
 10
41.44639349007243
 20
88.96924639702853
 10
42.57535128058881
 20
88.96924639702853
 10
42.57535128058881
 20
88.96924639702853
 10
42.61307507615229
 20
88.92480466526881
 10
42.65183240036135
 20
88.8807074430576
 10
42.69162325321599
 20
88.83661022084641
 10
42.69162325321599
 20
88.83661022084641
 10
37.74136555046049
 20
60.40940482430737
 10
37.74136555046049
 20
60.40940482430737
 10
35.75251192682576
 20
60.67192110028341
 10
33.80258788217436
 20
61.37127548378913
 10
32.07917886567812
 20
62.39481335245686
 10
30.63912895284369
 20
63.24988605189586
 10
29.23111842802208
 20
64.39021265751356
 10
28.50024142082633
 20
65.93327092535696
 10
27.85084092185674
 20
67.30407441893787
 10
27.45069308124497
 20
68.78029783436743
 10
27.13770615641002
 20
70.25962183573371
 10
26.80542669685767
 20
71.82955184836206
 10
26.57184922295773
 20
73.41808537661076
 10
26.30037569872005
 20
74.99938420434043
 10
26.03200276041908
 20
76.56173500690123
 10
25.7315904341053
 20
78.12511933810761
 10
25.25254990688131
 20
79.63854978477787
 10
24.79917534102243
 20
81.07102048754474
 10
24.17544080341795
 20
82.4645616113283
 10
23.2585286400187
 20
83.66311033064673
 10
22.79860839273785
 20
84.26427949282282
 10
22.26806368800937
 20
84.81101614633197
 10
21.6768853027405
 20
85.2843722660053
 10
21.02679578467386
 20
85.80458168427802
 10
20.30470377096549
 20
86.23935273451656
 10
19.58123371906303
 20
86.64863007816423
 10
19.00262993231532
 20
86.97625865881149
 10
18.41110703749792
 20
87.28287215699874
 10
17.80390895822264
 20
87.55400117168789
 10
17.27439778213973
 20
87.79067923152455
 10
16.72800563817911
 20
88.00978730438645
 10
16.16145968562978
 20
88.13966740418037
 10
14.63562689521262
 20
87.72901202233858
 10
12.99834526584764
 20
85.21202526081505
 10
12.99834526584764
 20
85.21202526081505
 10
14.31264919347045
 20
84.54298771757954
 10
15.63039821657851
 20
83.80573728373606
 10
16.70457898887941
 20
82.78116588642277
 10
17.70038383889088
 20
81.83135306113938
 10
18.39095322890921
 20
80.64589570466492
 10
18.79402940068344
 20
79.33365883433325
 10
19.04242078516995
 20
78.52475041439659
 10
19.19176567445553
 20
77.6879367210294
 10
19.28753932894548
 20
76.8480224417255
 10
19.31320529031059
 20
76.62236868744164
 10
19.32819145567143
 20
76.39671493315777
 10
19.3361151752875
 20
76.17002765022833
 10
19.35661349342474
 20
75.59262964690046
 10
19.34731173561456
 20
75.01419811492701
 10
19.33594292051324
 20
74.43680011159914
 10
19.32061224560388
 20
73.6599310796753
 10
19.29632432243286
 20
72.88340655729999
 10
19.27479247565005
 20
72.10653752537614
 10
19.24860974996215
 20
71.166715477
 10
19.22535535543672
 20
70.22654891907531
 10
19.21140271872146
 20
69.28638236115063
 10
19.19555527948931
 20
68.21909177982023
 10
19.19124891013275
 20
67.15111217939278
 10
19.20399576342817
 20
66.08382159806239
 10
19.21794840014343
 20
64.92420245772729
 10
19.25188259067314
 20
63.76458331739219
 10
19.3113104877937
 20
62.60599770570267
 10
19.37401122562525
 20
61.38918998031243
 10
19.46496174643584
 20
60.17341578356776
 10
19.59174126029304
 20
58.96108668230834
 10
19.72144910531269
 20
57.7208523076184
 10
19.88870849112157
 20
56.48440753796223
 10
20.1035101946269
 20
55.25623099747067
 10
20.31865640768075
 20
54.02633190923648
 10
20.58151719320531
 20
52.80435654061836
 10
20.9053561688188
 20
51.59857312078091
 10
21.22437201075294
 20
50.41139321656382
 10
21.60247124025911
 20
49.23937173248183
 10
22.05567355134372
 20
48.09628905047593
 10
22.49785155687554
 20
46.98145615144908
 10
23.01168754850055
 20
45.89418401630424
 10
23.61285671067665
 20
44.85617674659846
 10
24.20024549091174
 20
43.84228514528943
 10
24.87169460098694
 20
42.87559135212832
 10
25.63547227006683
 20
41.98606769783682
 10
26.39580484366147
 20
41.10067815812761
 10
27.24743244761522
 20
40.29314777638505
 10
28.18191459798924
 20
39.59344888333081
 10
29.14843613637609
 20
38.86928981233129
 10
30.20125731666844
 20
38.26295300692732
 10
31.31057806291889
 20
37.78580728222022
 10
31.62373724252809
 20
37.65110404874694
 10
31.94137504626813
 20
37.52639159218091
 10
32.26263020026768
 20
37.41201442207061
 10
32.43781330569263
 20
37.34931368423906
 10
32.615235723183
 20
37.29350313737802
 10
32.79076333815648
 20
37.23218043774057
 10
33.08187390666009
 20
37.13020561137717
 10
33.36299369825647
 20
37.00170354977735
 10
33.64273545165877
 20
36.87216795953196
 10
33.64273545165877
 20
36.87216795953196
 10
29.30914984076299
 20
11.98617621228123
 10
29.30914984076299
 20
11.98617621228123
 10
29.30914984076299
 20
11.98617621228123
 10
28.12145317222311
 20
11.98617621228123
 10
28.12145317222311
 20
11.98617621228123
 10
27.75851236285204
 20
11.98617621228123
 10
27.4643012084117
 20
11.6919650578409
 10
27.4643012084117
 20
11.32919650324409
 10
27.4643012084117
 20
11.32919650324409
 10
27.4643012084117
 20
9.221142575819714
 10
27.4643012084117
 20
9.221142575819714
 10
27.4643012084117
 20
9.12950303591207
 10
27.48324923358058
 20
9.041997610586723
 10
27.51718342411029
 20
8.962760414425977
 10
27.26035155568491
 20
8.611360674930493
 10
27.98537190055574
 20
8.362624780895455
 10
28.19690076335008
 20
8.286832680219959
 10
28.89367132524186
 20
8.038096786184921
 10
29.63557263799041
 20
7.905460610002802
 10
30.36283229492665
 20
7.781781682082332
 10
31.50126409802746
 20
7.588511825359816
 10
32.64916991371271
 20
7.450708005949823
 10
33.79724798417222
 20
7.330818683063129
 10
35.30723333535722
 20
7.172688800290161
 10
36.82083603680174
 20
7.050732420112317
 10
38.33530001211756
 20
6.946346026909247
 10
40.15930581678309
 20
6.820600041697628
 10
41.98503416919124
 20
6.722070310819483
 10
43.81162379547071
 20
6.641110566916112
 10
45.89401176152997
 20
6.548782007911416
 10
47.97726100146055
 20
6.47988009820642
 10
50.06102700571391
 20
6.428203665927672
 10
52.34633109585439
 20
6.372048609518099
 10
54.63215195031766
 20
6.336908635568551
 10
56.91831731432945
 20
6.320372177239352
 10
59.31041936451268
 20
6.303146699813102
 10
61.70286592424443
 20
6.305902776201302
 10
64.09514022920192
 20
6.329329425501001
 10
66.3542615936545
 20
6.3513780366066
 10
68.61321070333281
 20
6.391685653784023
 10
70.87164304868834
 20
6.454041882067045
 10
72.92026907899216
 20
6.510196938476618
 10
74.96855059974745
 20
6.583921981860964
 10
77.0156263370829
 20
6.681418184093535
 10
78.79880776024822
 20
6.76616753303068
 10
80.58130016431649
 20
6.8684868689426
 10
82.3617255110936
 20
6.99905598783357
 10
83.82468530890495
 20
7.106542966973365
 10
85.28678383284497
 20
7.231599933087933
 10
86.7447482422027
 20
7.394552949540251
 10
87.83339841554165
 20
7.51616482016957
 10
88.9220485888806
 20
7.655002168225138
 10
89.99950220189248
 20
7.854473196821104
 10
90.65785994912373
 20
7.976429576998949
 10
91.34119463862304
 20
8.103898109953192
 10
91.96079506164523
 20
8.366758895477755
 10
92.13563365752165
 20
8.440828448410626
 10
92.48823918043698
 20
8.581732853757345
 10
92.48823918043698
 20
8.819099932691058
 10
92.48823918043698
 20
8.867331269484556
 10
92.46998017436515
 20
8.915218096729529
 10
92.43535696473839
 20
8.962760414425977
 97
        0
 92
        1
 93
        1
 72
     4
 94
        3
 73
     0
 74
     1
 95
       44
 96
       40
 40
0.0
 40
0.0
 40
0.0
 40
0.0
 40
1.0
 40
1.0
 40
1.0
 40
2.0
 40
2.0
 40
2.0
 40
3.0
 40
3.0
 40
3.0
 40
4.0
 40
4.0
 40
4.0
 40
5.0
 40
5.0
 40
5.0
 40
6.0
 40
6.0
 40
6.0
 40
7.0
 40
7.0
 40
7.0
 40
8.0
 40
8.0
 40
8.0
 40
9.0
 40
9.0
 40
9.0
 40
10.0
 40
10.0
 40
10.0
 40
11.0
 40
11.0
 40
11.0
 40
12.0
 40
12.0
 40
12.0
 40
13.0
 40
13.0
 40
13.0
 40
13.0
 10
85.32054576860043
 20
73.193809660521
 10
86.73079560548744
 20
74.16636011600703
 10
88.50433076129406
 20
74.79819062800185
 10
90.20086803300535
 20
74.23526202571202
 10
91.65797116849176
 20
73.75122611003442
 10
92.63913436269091
 20
72.46551647493918
 10
93.20275198407779
 20
71.09023435722744
 10
93.80150957941422
 20
69.6295138714815
 10
93.99271237884558
 20
68.03443466181083
 10
93.86937796047363
 20
66.46726072557068
 10
93.73071286719232
 20
64.70474987531686
 10
93.20602482478877
 20
62.99977211966673
 10
92.42398814963707
 20
61.4191623110341
 10
91.64195147448535
 20
59.83924152149853
 10
90.62495928723959
 20
58.38747828401424
 10
89.53630911390064
 20
57.00530597533201
 10
88.42819415107004
 20
55.59901799825303
 10
87.23998071820736
 20
54.25853134494231
 10
86.08639049497147
 20
52.88979490865255
 10
85.45783282368762
 20
52.14427624564449
 10
84.83909367453676
 20
51.38980033437478
 10
84.2523939133987
 20
50.61086424515979
 10
84.2523939133987
 20
50.61086424515979
 10
84.24981009178477
 20
50.60741914967453
 10
84.24981009178477
 20
50.60741914967453
 10
84.24981009178477
 20
50.60741914967453
 10
84.25204940385018
 20
50.61017522606274
 10
84.25204940385018
 20
50.61017522606274
 10
84.16454397852485
 20
50.49338648911277
 10
84.07376571248851
 20
50.37315265667755
 10
83.98040362483823
 20
50.24912921920856
 10
83.98040362483823
 20
50.24912921920856
 10
80.86465926797828
 20
68.14088811230506
 10
80.86465926797828
 20
68.14088811230506
 10
81.10771075446266
 20
68.56256779969964
 10
81.3757391832151
 20
68.98045788206045
 10
81.64290633809622
 20
69.3687201432481
 10
82.6437065765613
 20
70.82289494757205
 10
83.86120332104859
 20
72.18749726927952
 10
85.32054576860043
 20
73.193809660521
 97
        0
 75
     2
 76
     1
 98
        0
  0
ENDSEC
  0
SECTION
  2
OBJECTS
  0
DICTIONARY
  5
C
330
0
100
AcDbDictionary
281
     1
  3
ACAD_GROUP
350
D
  3
ACAD_IMAGE_DICT
350
3C
  3
ACAD_IMAGE_VARS
350
3E
  3
ACAD_LAYOUT
350
1A
  3
ACAD_MLINESTYLE
350
17
  3
ACAD_PLOTSETTINGS
350
19
  3
ACAD_PLOTSTYLENAME
350
E
  3
ACAD_TABLESTYLE
350
45
  3
ACAD_VISUALSTYLE
350
2A
  0
IMAGEDEF_REACTOR
  5
40
330
3F
100
AcDbRasterImageDefReactor
 90
        2
330
3F
  0
DICTIONARY
  5
D
102
{ACAD_REACTORS
330
C
102
}
330
C
100
AcDbDictionary
281
     1
  0
DICTIONARY
  5
3C
102
{ACAD_REACTORS
330
C
102
}
330
C
100
AcDbDictionary
281
     1
  3
C:\Users\Owner\Desktop\50\coffee_or_tea\cut its\coffee_or_tea-11\dxf\coffee_or_tea-11_1.png
350
3D
  0
RASTERVARIABLES
  5
3E
102
{ACAD_REACTORS
330
C
102
}
330
C
100
AcDbRasterVariables
 90
        0
 70
     0
 71
     1
 72
     0
  0
DICTIONARY
  5
1A
102
{ACAD_REACTORS
330
C
102
}
330
C
100
AcDbDictionary
281
     1
  3
Layout1
350
1E
  3
Layout2
350
26
  3
Model
350
22
  0
DICTIONARY
  5
17
102
{ACAD_REACTORS
330
C
102
}
330
C
100
AcDbDictionary
281
     1
  3
Standard
350
18
  0
DICTIONARY
  5
19
102
{ACAD_REACTORS
330
C
102
}
330
C
100
AcDbDictionary
281
     1
  0
ACDBDICTIONARYWDFLT
  5
E
102
{ACAD_REACTORS
330
C
102
}
330
C
100
AcDbDictionary
281
     1
  3
Normal
350
F
100
AcDbDictionaryWithDefault
340
F
  0
DICTIONARY
  5
45
102
{ACAD_REACTORS
330
C
102
}
330
C
100
AcDbDictionary
281
     1
  0
DICTIONARY
  5
2A
102
{ACAD_REACTORS
330
C
102
}
330
C
100
AcDbDictionary
281
     1
  3
2dWireframe
350
2F
  3
3D Hidden
350
31
  3
3dWireframe
350
30
  3
Basic
350
32
  3
Brighten
350
36
  3
ColorChange
350
3A
  3
Conceptual
350
34
  3
Dim
350
35
  3
Facepattern
350
39
  3
Flat
350
2B
  3
FlatWithEdges
350
2C
  3
Gouraud
350
2D
  3
GouraudWithEdges
350
2E
  3
Linepattern
350
38
  3
Realistic
350
33
  3
Thicken
350
37
  0
IMAGEDEF
  5
3D
102
{ACAD_REACTORS
330
3C
330
40
102
}
330
3C
100
AcDbRasterImageDef
 90
        0
  1
C:\Users\Owner\Desktop\50\coffee_or_tea\cut its\coffee_or_tea-11\dxf\coffee_or_tea-11_1.png
 10
1350.0
 20
1350.0
 11
0.3527777777777777
 21
0.3527777777777777
280
     1
281
     5
  0
LAYOUT
  5
1E
102
{ACAD_REACTORS
330
1A
102
}
330
1A
100
AcDbPlotSettings
  1

  2
none_device
  4

  6

 40
0.0
 41
0.0
 42
0.0
 43
0.0
 44
0.0
 45
0.0
 46
0.0
 47
0.0
 48
0.0
 49
0.0
140
0.0
141
0.0
142
1.0
143
1.0
 70
   688
 72
     0
 73
     0
 74
     5
  7

 75
    16
 76
     0
 77
     2
 78
   300
147
1.0
148
0.0
149
0.0
100
AcDbLayout
  1
Layout1
 70
     1
 71
     1
 10
0.0
 20
0.0
 11
12.0
 21
9.0
 12
0.0
 22
0.0
 32
0.0
 14
1.000000000000000E+20
 24
1.000000000000000E+20
 34
1.000000000000000E+20
 15
-1.000000000000000E+20
 25
-1.000000000000000E+20
 35
-1.000000000000000E+20
146
0.0
 13
0.0
 23
0.0
 33
0.0
 16
1.0
 26
0.0
 36
0.0
 17
0.0
 27
1.0
 37
0.0
 76
     0
330
1B
  0
LAYOUT
  5
26
102
{ACAD_REACTORS
330
1A
102
}
330
1A
100
AcDbPlotSettings
  1

  2
none_device
  4

  6

 40
0.0
 41
0.0
 42
0.0
 43
0.0
 44
0.0
 45
0.0
 46
0.0
 47
0.0
 48
0.0
 49
0.0
140
0.0
141
0.0
142
1.0
143
1.0
 70
   688
 72
     0
 73
     0
 74
     5
  7

 75
    16
 76
     0
 77
     2
 78
   300
147
1.0
148
0.0
149
0.0
100
AcDbLayout
  1
Layout2
 70
     1
 71
     2
 10
0.0
 20
0.0
 11
0.0
 21
0.0
 12
0.0
 22
0.0
 32
0.0
 14
0.0
 24
0.0
 34
0.0
 15
0.0
 25
0.0
 35
0.0
146
0.0
 13
0.0
 23
0.0
 33
0.0
 16
1.0
 26
0.0
 36
0.0
 17
0.0
 27
1.0
 37
0.0
 76
     0
330
23
  0
LAYOUT
  5
22
102
{ACAD_REACTORS
330
1A
102
}
330
1A
100
AcDbPlotSettings
  1

  2
none_device
  4

  6

 40
0.0
 41
0.0
 42
0.0
 43
0.0
 44
0.0
 45
0.0
 46
0.0
 47
0.0
 48
0.0
 49
0.0
140
0.0
141
0.0
142
1.0
143
1.0
 70
  1712
 72
     0
 73
     0
 74
     0
  7

 75
     0
 76
     0
 77
     2
 78
   300
147
1.0
148
0.0
149
0.0
100
AcDbLayout
  1
Model
 70
     1
 71
     0
 10
0.0
 20
0.0
 11
12.0
 21
9.0
 12
0.0
 22
0.0
 32
0.0
 14
1.000000000000000E+20
 24
1.000000000000000E+20
 34
1.000000000000000E+20
 15
-1.000000000000000E+20
 25
-1.000000000000000E+20
 35
-1.000000000000000E+20
146
0.0
 13
0.0
 23
0.0
 33
0.0
 16
1.0
 26
0.0
 36
0.0
 17
0.0
 27
1.0
 37
0.0
 76
     0
330
1F
331
29
  0
MLINESTYLE
  5
18
102
{ACAD_REACTORS
330
17
102
}
330
17
100
AcDbMlineStyle
  2
Standard
 70
     0
  3

 62
   256
 51
90.0
 52
90.0
 71
     2
 49
0.5
 62
   256
  6
BYLAYER
 49
-0.5
 62
   256
  6
BYLAYER
  0
ACDBPLACEHOLDER
  5
F
102
{ACAD_REACTORS
330
E
102
}
330
E
  0
VISUALSTYLE
  5
2F
102
{ACAD_REACTORS
330
2A
102
}
330
2A
100
AcDbVisualStyle
  2
2dWireframe
 70
     4
 71
     0
 72
     2
 73
     0
 90
        0
 40
-0.6
 41
-30.0
 62
     5
 63
     7
421
 16777215
 74
     1
 91
        4
 64
     7
 65
   257
 75
     1
175
     1
 42
1.0
 92
        0
 66
   257
 43
1.0
 76
     1
 77
     6
 78
     2
 67
     7
 79
     5
170
     0
171
     0
290
     0
174
     0
 93
        1
 44
0.0
173
     0
291
     0
 45
0.0
1001
ACAD
1000
AcDbSavedByObjectVersion
1070
     0
  0
VISUALSTYLE
  5
31
102
{ACAD_REACTORS
330
2A
102
}
330
2A
100
AcDbVisualStyle
  2
3D Hidden
 70
     6
 71
     1
 72
     2
 73
     2
 90
        0
 40
-0.6
 41
-30.0
 62
     5
 63
     7
421
 16777215
 74
     2
 91
        2
 64
     7
 65
   257
 75
     2
175
     1
 42
40.0
 92
        0
 66
   257
 43
1.0
 76
     1
 77
     6
 78
     2
 67
     7
 79
     3
170
     0
171
     0
290
     0
174
     0
 93
        1
 44
0.0
173
     0
291
     0
 45
0.0
1001
ACAD
1000
AcDbSavedByObjectVersion
1070
     0
  0
VISUALSTYLE
  5
30
102
{ACAD_REACTORS
330
2A
102
}
330
2A
100
AcDbVisualStyle
  2
3dWireframe
 70
     5
 71
     0
 72
     2
 73
     0
 90
        0
 40
-0.6
 41
-30.0
 62
     5
 63
     7
421
 16777215
 74
     1
 91
        4
 64
     7
 65
   257
 75
     1
175
     1
 42
1.0
 92
        0
 66
   257
 43
1.0
 76
     1
 77
     6
 78
     2
 67
     7
 79
     5
170
     0
171
     0
290
     0
174
     0
 93
        1
 44
0.0
173
     0
291
     0
 45
0.0
1001
ACAD
1000
AcDbSavedByObjectVersion
1070
     0
  0
VISUALSTYLE
  5
32
102
{ACAD_REACTORS
330
2A
102
}
330
2A
100
AcDbVisualStyle
  2
Basic
 70
     7
 71
     1
 72
     0
 73
     1
 90
        0
 40
-0.6
 41
-30.0
 62
     5
 63
     7
421
 16777215
 74
     0
 91
        4
 64
     7
 65
   257
 75
     1
175
     1
 42
1.0
 92
        8
 66
     7
 43
1.0
 76
     1
 77
     6
 78
     2
 67
     7
 79
     5
170
     0
171
     0
290
     0
174
     0
 93
        1
 44
0.0
173
     0
291
     1
 45
0.0
1001
ACAD
1000
AcDbSavedByObjectVersion
1070
     0
  0
VISUALSTYLE
  5
36
102
{ACAD_REACTORS
330
2A
102
}
330
2A
100
AcDbVisualStyle
  2
Brighten
 70
    12
 71
     2
 72
     2
 73
     0
 90
        0
 40
-0.6
 41
-30.0
 62
     5
 63
     7
421
 16777215
 74
     1
 91
        4
 64
     7
 65
   257
 75
     1
175
     1
 42
1.0
 92
        8
 66
     7
 43
1.0
 76
     1
 77
     6
 78
     2
 67
     7
 79
     5
170
     0
171
     0
290
     0
174
     0
 93
        1
 44
50.0
173
     0
291
     1
 45
0.0
1001
ACAD
1000
AcDbSavedByObjectVersion
1070
     0
  0
VISUALSTYLE
  5
3A
102
{ACAD_REACTORS
330
2A
102
}
330
2A
100
AcDbVisualStyle
  2
ColorChange
 70
    16
 71
     2
 72
     2
 73
     3
 90
        0
 40
-0.6
 41
-30.0
 62
     5
 63
     8
421
  8421504
 74
     1
 91
        4
 64
     7
 65
   257
 75
     1
175
     1
 42
1.0
 92
        8
 66
     8
424
  8421504
 43
1.0
 76
     1
 77
     6
 78
     2
 67
     7
 79
     5
170
     0
171
     0
290
     0
174
     0
 93
        1
 44
0.0
173
     0
291
     1
 45
0.0
1001
ACAD
1000
AcDbSavedByObjectVersion
1070
     0
  0
VISUALSTYLE
  5
34
102
{ACAD_REACTORS
330
2A
102
}
330
2A
100
AcDbVisualStyle
  2
Conceptual
 70
     9
 71
     3
 72
     2
 73
     0
 90
        0
 40
-0.6
 41
-30.0
 62
     5
 63
     7
421
 16777215
 74
     2
 91
        2
 64
     7
 65
   257
 75
     1
175
     1
 42
40.0
 92
        8
 66
     7
 43
1.0
 76
     1
 77
     6
 78
     2
 67
     7
 79
     3
170
     0
171
     0
290
     0
174
     0
 93
        1
 44
0.0
173
     0
291
     0
 45
0.0
1001
ACAD
1000
AcDbSavedByObjectVersion
1070
     0
  0
VISUALSTYLE
  5
35
102
{ACAD_REACTORS
330
2A
102
}
330
2A
100
AcDbVisualStyle
  2
Dim
 70
    11
 71
     2
 72
     2
 73
     0
 90
        0
 40
-0.6
 41
-30.0
 62
     5
 63
     7
421
 16777215
 74
     1
 91
        4
 64
     7
 65
   257
 75
     1
175
     1
 42
1.0
 92
        8
 66
     7
 43
1.0
 76
     1
 77
     6
 78
     2
 67
     7
 79
     5
170
     0
171
     0
290
     0
174
     0
 93
        1
 44
-50.0
173
     0
291
     1
 45
0.0
1001
ACAD
1000
AcDbSavedByObjectVersion
1070
     0
  0
VISUALSTYLE
  5
39
102
{ACAD_REACTORS
330
2A
102
}
330
2A
100
AcDbVisualStyle
  2
Facepattern
 70
    15
 71
     2
 72
     2
 73
     0
 90
        0
 40
-0.6
 41
-30.0
 62
     5
 63
     7
421
 16777215
 74
     1
 91
        4
 64
     7
 65
   257
 75
     1
175
     1
 42
1.0
 92
        8
 66
     7
 43
1.0
 76
     1
 77
     6
 78
     2
 67
     7
 79
     5
170
     0
171
     0
290
     0
174
     0
 93
        1
 44
0.0
173
     0
291
     1
 45
0.0
1001
ACAD
1000
AcDbSavedByObjectVersion
1070
     0
  0
VISUALSTYLE
  5
2B
102
{ACAD_REACTORS
330
2A
102
}
330
2A
100
AcDbVisualStyle
  2
Flat
 70
     0
 71
     2
 72
     1
 73
     1
 90
        2
 40
-0.6
 41
30.0
 62
     5
 63
     7
421
 16777215
 74
     0
 91
        4
 64
     7
 65
   257
 75
     1
175
     1
 42
1.0
 92
        8
 66
     7
 43
1.0
 76
     1
 77
     6
 78
     2
 67
     7
 79
     5
170
     0
171
     0
290
     0
174
     0
 93
       13
 44
0.0
173
     0
291
     1
 45
0.0
1001
ACAD
1000
AcDbSavedByObjectVersion
1070
     0
  0
VISUALSTYLE
  5
2C
102
{ACAD_REACTORS
330
2A
102
}
330
2A
100
AcDbVisualStyle
  2
FlatWithEdges
 70
     1
 71
     2
 72
     1
 73
     1
 90
        2
 40
-0.6
 41
30.0
 62
     5
 63
     7
421
 16777215
 74
     1
 91
        4
 64
     7
 65
   257
 75
     1
175
     1
 42
1.0
 92
        0
 66
   257
 43
1.0
 76
     1
 77
     6
 78
     2
 67
     7
 79
     5
170
     0
171
     0
290
     0
174
     0
 93
       13
 44
0.0
173
     0
291
     1
 45
0.0
1001
ACAD
1000
AcDbSavedByObjectVersion
1070
     0
  0
VISUALSTYLE
  5
2D
102
{ACAD_REACTORS
330
2A
102
}
330
2A
100
AcDbVisualStyle
  2
Gouraud
 70
     2
 71
     2
 72
     2
 73
     1
 90
        2
 40
-0.6
 41
30.0
 62
     5
 63
     7
421
 16777215
 74
     0
 91
        4
 64
     7
 65
   257
 75
     1
175
     1
 42
1.0
 92
        0
 66
     7
 43
1.0
 76
     1
 77
     6
 78
     2
 67
     7
 79
     5
170
     0
171
     0
290
     0
174
     0
 93
       13
 44
0.0
173
     0
291
     1
 45
0.0
1001
ACAD
1000
AcDbSavedByObjectVersion
1070
     0
  0
VISUALSTYLE
  5
2E
102
{ACAD_REACTORS
330
2A
102
}
330
2A
100
AcDbVisualStyle
  2
GouraudWithEdges
 70
     3
 71
     2
 72
     2
 73
     1
 90
        2
 40
-0.6
 41
30.0
 62
     5
 63
     7
421
 16777215
 74
     1
 91
        4
 64
     7
 65
   257
 75
     1
175
     1
 42
1.0
 92
        0
 66
   257
 43
1.0
 76
     1
 77
     6
 78
     2
 67
     7
 79
     5
170
     0
171
     0
290
     0
174
     0
 93
       13
 44
0.0
173
     0
291
     1
 45
0.0
1001
ACAD
1000
AcDbSavedByObjectVersion
1070
     0
  0
VISUALSTYLE
  5
38
102
{ACAD_REACTORS
330
2A
102
}
330
2A
100
AcDbVisualStyle
  2
Linepattern
 70
    14
 71
     2
 72
     2
 73
     0
 90
        0
 40
-0.6
 41
-30.0
 62
     5
 63
     7
421
 16777215
 74
     1
 91
        4
 64
     7
 65
   257
 75
     7
175
     7
 42
1.0
 92
        8
 66
     7
 43
1.0
 76
     1
 77
     6
 78
     2
 67
     7
 79
     5
170
     0
171
     0
290
     0
174
     0
 93
        1
 44
0.0
173
     0
291
     1
 45
0.0
1001
ACAD
1000
AcDbSavedByObjectVersion
1070
     0
  0
VISUALSTYLE
  5
33
102
{ACAD_REACTORS
330
2A
102
}
330
2A
100
AcDbVisualStyle
  2
Realistic
 70
     8
 71
     2
 72
     2
 73
     0
 90
        0
 40
-0.6
 41
-30.0
 62
     5
 63
     7
421
 16777215
 74
     1
 91
        0
 64
     7
 65
   257
 75
     1
175
     1
 42
1.0
 92
        8
 66
     8
424
  7895160
 43
1.0
 76
     1
 77
     6
 78
     2
 67
     7
 79
     5
170
     0
171
     0
290
     0
174
     0
 93
       13
 44
0.0
173
     0
291
     0
 45
0.0
1001
ACAD
1000
AcDbSavedByObjectVersion
1070
     0
  0
VISUALSTYLE
  5
37
102
{ACAD_REACTORS
330
2A
102
}
330
2A
100
AcDbVisualStyle
  2
Thicken
 70
    13
 71
     2
 72
     2
 73
     0
 90
        0
 40
-0.6
 41
-30.0
 62
     5
 63
     7
421
 16777215
 74
     1
 91
        4
 64
     7
 65
   257
 75
     1
175
     1
 42
1.0
 92
       12
 66
     7
 43
1.0
 76
     1
 77
     6
 78
     2
 67
     7
 79
     5
170
     0
171
     0
290
     0
174
     0
 93
        1
 44
0.0
173
     0
291
     1
 45
0.0
1001
ACAD
1000
AcDbSavedByObjectVersion
1070
     0
  0
ENDSEC
  0
EOF
