  0
SECTION
  2
HEADER
  9
$ACADVER
  1
AC1018
  9
$ACADMAINTVER
 70
     0
  9
$DWGCODEPAGE
  3
ANSI_1252
  9
$INSBASE
 10
0.0
 20
0.0
 30
0.0
  9
$EXTMIN
 10
1.000000000000000E+20
 20
1.000000000000000E+20
 30
1.000000000000000E+20
  9
$EXTMAX
 10
-1.000000000000000E+20
 20
-1.000000000000000E+20
 30
-1.000000000000000E+20
  9
$LIMMIN
 10
0.0
 20
0.0
  9
$LIMMAX
 10
12.0
 20
9.0
  9
$ORTHOMODE
 70
     0
  9
$REGENMODE
 70
     1
  9
$FILLMODE
 70
     1
  9
$QTEXTMODE
 70
     0
  9
$MIRRTEXT
 70
     1
  9
$LTSCALE
 40
1.0
  9
$ATTMODE
 70
     1
  9
$TEXTSIZE
 40
0.2
  9
$TRACEWID
 40
0.05
  9
$TEXTSTYLE
  7
Standard
  9
$CLAYER
  8
0
  9
$CELTYPE
  6
ByLayer
  9
$CECOLOR
 62
   256
  9
$CELTSCALE
 40
1.0
  9
$DISPSILH
 70
     0
  9
$DIMSCALE
 40
1.0
  9
$DIMASZ
 40
0.18
  9
$DIMEXO
 40
0.0625
  9
$DIMDLI
 40
0.38
  9
$DIMRND
 40
0.0
  9
$DIMDLE
 40
0.0
  9
$DIMEXE
 40
0.18
  9
$DIMTP
 40
0.0
  9
$DIMTM
 40
0.0
  9
$DIMTXT
 40
0.18
  9
$DIMCEN
 40
0.09
  9
$DIMTSZ
 40
0.0
  9
$DIMTOL
 70
     0
  9
$DIMLIM
 70
     0
  9
$DIMTIH
 70
     1
  9
$DIMTOH
 70
     1
  9
$DIMSE1
 70
     0
  9
$DIMSE2
 70
     0
  9
$DIMTAD
 70
     0
  9
$DIMZIN
 70
     0
  9
$DIMBLK
  1

  9
$DIMASO
 70
     1
  9
$DIMSHO
 70
     1
  9
$DIMPOST
  1

  9
$DIMAPOST
  1

  9
$DIMALT
 70
     0
  9
$DIMALTD
 70
     2
  9
$DIMALTF
 40
25.4
  9
$DIMLFAC
 40
1.0
  9
$DIMTOFL
 70
     0
  9
$DIMTVP
 40
0.0
  9
$DIMTIX
 70
     0
  9
$DIMSOXD
 70
     0
  9
$DIMSAH
 70
     0
  9
$DIMBLK1
  1

  9
$DIMBLK2
  1

  9
$DIMSTYLE
  2
Standard
  9
$DIMCLRD
 70
     0
  9
$DIMCLRE
 70
     0
  9
$DIMCLRT
 70
     0
  9
$DIMTFAC
 40
1.0
  9
$DIMGAP
 40
0.09
  9
$DIMJUST
 70
     0
  9
$DIMSD1
 70
     0
  9
$DIMSD2
 70
     0
  9
$DIMTOLJ
 70
     1
  9
$DIMTZIN
 70
     0
  9
$DIMALTZ
 70
     0
  9
$DIMALTTZ
 70
     0
  9
$DIMUPT
 70
     0
  9
$DIMDEC
 70
     4
  9
$DIMTDEC
 70
     4
  9
$DIMALTU
 70
     2
  9
$DIMALTTD
 70
     2
  9
$DIMTXSTY
  7
Standard
  9
$DIMAUNIT
 70
     0
  9
$DIMADEC
 70
     0
  9
$DIMALTRND
 40
0.0
  9
$DIMAZIN
 70
     0
  9
$DIMDSEP
 70
    46
  9
$DIMATFIT
 70
     3
  9
$DIMFRAC
 70
     0
  9
$DIMLDRBLK
  1

  9
$DIMLUNIT
 70
     2
  9
$DIMLWD
 70
    -2
  9
$DIMLWE
 70
    -2
  9
$DIMTMOVE
 70
     0
  9
$LUNITS
 70
     2
  9
$LUPREC
 70
     4
  9
$SKETCHINC
 40
0.1
  9
$FILLETRAD
 40
0.5
  9
$AUNITS
 70
     0
  9
$AUPREC
 70
     0
  9
$MENU
  1
.
  9
$ELEVATION
 40
0.0
  9
$PELEVATION
 40
0.0
  9
$THICKNESS
 40
0.0
  9
$LIMCHECK
 70
     0
  9
$CHAMFERA
 40
0.5
  9
$CHAMFERB
 40
0.5
  9
$CHAMFERC
 40
1.0
  9
$CHAMFERD
 40
0.0
  9
$SKPOLY
 70
     0
  9
$TDCREATE
 40
2455737.137390116
  9
$TDUCREATE
 40
2455737.387390116
  9
$TDUPDATE
 40
2455737.137390127
  9
$TDUUPDATE
 40
2455737.387390127
  9
$TDINDWG
 40
0.0000000116
  9
$TDUSRTIMER
 40
0.0000000116
  9
$USRTIMER
 70
     1
  9
$ANGBASE
 50
0.0
  9
$ANGDIR
 70
     0
  9
$PDMODE
 70
     0
  9
$PDSIZE
 40
0.0
  9
$PLINEWID
 40
0.0
  9
$SPLFRAME
 70
     0
  9
$SPLINETYPE
 70
     6
  9
$SPLINESEGS
 70
     8
  9
$HANDSEED
  5
44
  9
$SURFTAB1
 70
     6
  9
$SURFTAB2
 70
     6
  9
$SURFTYPE
 70
     6
  9
$SURFU
 70
     6
  9
$SURFV
 70
     6
  9
$UCSBASE
  2

  9
$UCSNAME
  2

  9
$UCSORG
 10
0.0
 20
0.0
 30
0.0
  9
$UCSXDIR
 10
1.0
 20
0.0
 30
0.0
  9
$UCSYDIR
 10
0.0
 20
1.0
 30
0.0
  9
$UCSORTHOREF
  2

  9
$UCSORTHOVIEW
 70
     0
  9
$UCSORGTOP
 10
0.0
 20
0.0
 30
0.0
  9
$UCSORGBOTTOM
 10
0.0
 20
0.0
 30
0.0
  9
$UCSORGLEFT
 10
0.0
 20
0.0
 30
0.0
  9
$UCSORGRIGHT
 10
0.0
 20
0.0
 30
0.0
  9
$UCSORGFRONT
 10
0.0
 20
0.0
 30
0.0
  9
$UCSORGBACK
 10
0.0
 20
0.0
 30
0.0
  9
$PUCSBASE
  2

  9
$PUCSNAME
  2

  9
$PUCSORG
 10
0.0
 20
0.0
 30
0.0
  9
$PUCSXDIR
 10
1.0
 20
0.0
 30
0.0
  9
$PUCSYDIR
 10
0.0
 20
1.0
 30
0.0
  9
$PUCSORTHOREF
  2

  9
$PUCSORTHOVIEW
 70
     0
  9
$PUCSORGTOP
 10
0.0
 20
0.0
 30
0.0
  9
$PUCSORGBOTTOM
 10
0.0
 20
0.0
 30
0.0
  9
$PUCSORGLEFT
 10
0.0
 20
0.0
 30
0.0
  9
$PUCSORGRIGHT
 10
0.0
 20
0.0
 30
0.0
  9
$PUCSORGFRONT
 10
0.0
 20
0.0
 30
0.0
  9
$PUCSORGBACK
 10
0.0
 20
0.0
 30
0.0
  9
$USERI1
 70
     0
  9
$USERI2
 70
     0
  9
$USERI3
 70
     0
  9
$USERI4
 70
     0
  9
$USERI5
 70
     0
  9
$USERR1
 40
0.0
  9
$USERR2
 40
0.0
  9
$USERR3
 40
0.0
  9
$USERR4
 40
0.0
  9
$USERR5
 40
0.0
  9
$WORLDVIEW
 70
     1
  9
$SHADEDGE
 70
     3
  9
$SHADEDIF
 70
    70
  9
$TILEMODE
 70
     1
  9
$MAXACTVP
 70
    64
  9
$PINSBASE
 10
0.0
 20
0.0
 30
0.0
  9
$PLIMCHECK
 70
     0
  9
$PEXTMIN
 10
1.000000000000000E+20
 20
1.000000000000000E+20
 30
1.000000000000000E+20
  9
$PEXTMAX
 10
-1.000000000000000E+20
 20
-1.000000000000000E+20
 30
-1.000000000000000E+20
  9
$PLIMMIN
 10
0.0
 20
0.0
  9
$PLIMMAX
 10
12.0
 20
9.0
  9
$UNITMODE
 70
     0
  9
$VISRETAIN
 70
     1
  9
$PLINEGEN
 70
     0
  9
$PSLTSCALE
 70
     1
  9
$TREEDEPTH
 70
  3020
  9
$CMLSTYLE
  2
Standard
  9
$CMLJUST
 70
     0
  9
$CMLSCALE
 40
1.0
  9
$PROXYGRAPHICS
 70
     1
  9
$MEASUREMENT
 70
     0
  9
$CELWEIGHT
370
    -1
  9
$ENDCAPS
280
     0
  9
$JOINSTYLE
280
     0
  9
$LWDISPLAY
290
     1
  9
$INSUNITS
 70
     1
  9
$HYPERLINKBASE
  1

  9
$STYLESHEET
  1

  9
$XEDIT
290
     1
  9
$CEPSNTYPE
380
     0
  9
$PSTYLEMODE
290
     1
  9
$FINGERPRINTGUID
  2
{FFA0BF8E-4616-4572-8FBF-7DF72FCB983E}
  9
$VERSIONGUID
  2
{FAEB1C32-E019-11D5-929B-00C0DF256EC4}
  9
$EXTNAMES
290
     1
  9
$PSVPSCALE
 40
0.0
  9
$OLESTARTUP
290
     0
  9
$SORTENTS
280
   127
  9
$INDEXCTL
280
     0
  9
$HIDETEXT
280
     1
  9
$XCLIPFRAME
290
     0
  9
$HALOGAP
280
     0
  9
$OBSCOLOR
 70
   257
  9
$OBSLTYPE
280
     0
  9
$INTERSECTIONDISPLAY
280
     0
  9
$INTERSECTIONCOLOR
 70
   257
  9
$DIMASSOC
280
     2
  9
$PROJECTNAME
  1

  0
ENDSEC
  0
SECTION
  2
CLASSES
  0
CLASS
  1
ACDBDICTIONARYWDFLT
  2
AcDbDictionaryWithDefault
  3
ObjectDBX Classes
 90
        0
 91
        3
280
     0
281
     0
  0
CLASS
  1
VISUALSTYLE
  2
AcDbVisualStyle
  3
ObjectDBX Classes
 90
     4095
 91
        3
280
     0
281
     0
  0
ENDSEC
  0
SECTION
  2
TABLES
  0
TABLE
  2
VPORT
  5
8
330
0
100
AcDbSymbolTable
 70
     1
  0
VPORT
  5
29
330
8
100
AcDbSymbolTableRecord
100
AcDbViewportTableRecord
  2
*Active
 70
     0
 10
0.0
 20
0.0
 11
1.0
 21
1.0
 12
0.0
 22
0.0
 13
0.0
 23
0.0
 14
0.5
 24
0.5
 15
0.5
 25
0.5
 16
0.0
 26
0.0
 36
1.0
 17
30.61294622715579
 27
50.7999999873
 37
0.0
 40
101.5999999746
 41
0.6026170518663194
 42
50.0
 43
0.0
 44
0.0
 50
0.0
 51
0.0
 71
     0
 72
   100
 73
     1
 74
     3
 75
     0
 76
     0
 77
     0
 78
     0
281
     0
 65
     1
110
0.0
120
0.0
130
0.0
111
1.0
121
0.0
131
0.0
112
0.0
122
1.0
132
0.0
 79
     0
146
0.0
  0
ENDTAB
  0
TABLE
  2
LTYPE
  5
5
330
0
100
AcDbSymbolTable
 70
     1
  0
LTYPE
  5
14
330
5
100
AcDbSymbolTableRecord
100
AcDbLinetypeTableRecord
  2
ByBlock
 70
     0
  3

 72
    65
 73
     0
 40
0.0
  0
LTYPE
  5
15
330
5
100
AcDbSymbolTableRecord
100
AcDbLinetypeTableRecord
  2
ByLayer
 70
     0
  3

 72
    65
 73
     0
 40
0.0
  0
LTYPE
  5
16
330
5
100
AcDbSymbolTableRecord
100
AcDbLinetypeTableRecord
  2
Continuous
 70
     0
  3
Solid line
 72
    65
 73
     0
 40
0.0
  0
ENDTAB
  0
TABLE
  2
LAYER
  5
2
330
0
100
AcDbSymbolTable
 70
     2
  0
LAYER
  5
10
330
2
100
AcDbSymbolTableRecord
100
AcDbLayerTableRecord
  2
0
 70
     0
 62
     7
  6
Continuous
370
    -3
390
F
  0
LAYER
  5
3B
330
2
100
AcDbSymbolTableRecord
100
AcDbLayerTableRecord
  2
Layer 1
 70
     0
 62
     7
  6
Continuous
370
    -3
390
F
  0
ENDTAB
  0
TABLE
  2
STYLE
  5
3
330
0
100
AcDbSymbolTable
 70
     1
  0
STYLE
  5
11
330
3
100
AcDbSymbolTableRecord
100
AcDbTextStyleTableRecord
  2
Standard
 70
     0
 40
0.0
 41
1.0
 50
0.0
 71
     0
 42
0.2
  3
txt
  4

  0
ENDTAB
  0
TABLE
  2
VIEW
  5
6
330
0
100
AcDbSymbolTable
 70
     0
  0
ENDTAB
  0
TABLE
  2
UCS
  5
7
330
0
100
AcDbSymbolTable
 70
     0
  0
ENDTAB
  0
TABLE
  2
APPID
  5
9
330
0
100
AcDbSymbolTable
 70
     1
  0
APPID
  5
12
330
9
100
AcDbSymbolTableRecord
100
AcDbRegAppTableRecord
  2
ACAD
 70
     0
  0
ENDTAB
  0
TABLE
  2
DIMSTYLE
  5
A
330
0
100
AcDbSymbolTable
 70
     1
100
AcDbDimStyleTable
  0
DIMSTYLE
105
27
330
A
100
AcDbSymbolTableRecord
100
AcDbDimStyleTableRecord
  2
Standard
 70
     0
340
11
  0
ENDTAB
  0
TABLE
  2
BLOCK_RECORD
  5
1
330
0
100
AcDbSymbolTable
 70
     1
  0
BLOCK_RECORD
  5
1F
330
1
100
AcDbSymbolTableRecord
100
AcDbBlockTableRecord
  2
*Model_Space
340
22
  0
BLOCK_RECORD
  5
1B
330
1
100
AcDbSymbolTableRecord
100
AcDbBlockTableRecord
  2
*Paper_Space
340
1E
  0
BLOCK_RECORD
  5
23
330
1
100
AcDbSymbolTableRecord
100
AcDbBlockTableRecord
  2
*Paper_Space0
340
26
  0
ENDTAB
  0
ENDSEC
  0
SECTION
  2
BLOCKS
  0
BLOCK
  5
20
330
1F
100
AcDbEntity
  8
0
100
AcDbBlockBegin
  2
*Model_Space
 70
     0
 71
     0
 10
0.0
 20
0.0
 30
0.0
  3
*Model_Space
  1

  0
ENDBLK
  5
21
330
1F
100
AcDbEntity
  8
0
100
AcDbBlockEnd
  0
BLOCK
  5
1C
330
1B
100
AcDbEntity
 67
     1
  8
0
100
AcDbBlockBegin
  2
*Paper_Space
 70
     0
 71
     0
 10
0.0
 20
0.0
 30
0.0
  3
*Paper_Space
  1

  0
ENDBLK
  5
1D
330
1B
100
AcDbEntity
 67
     1
  8
0
100
AcDbBlockEnd
  0
BLOCK
  5
24
330
23
100
AcDbEntity
  8
0
100
AcDbBlockBegin
  2
*Paper_Space0
 70
     0
 71
     0
 10
0.0
 20
0.0
 30
0.0
  3
*Paper_Space0
  1

  0
ENDBLK
  5
25
330
23
100
AcDbEntity
  8
0
100
AcDbBlockEnd
  0
ENDSEC
  0
SECTION
  2
ENTITIES
  0
SPLINE
  5
3C
330
1F
100
AcDbEntity
  8
Layer 1
370
     0
100
AcDbSpline
210
0.0
220
0.0
230
1.0
 70
    11
 71
     3
 72
   164
 73
   160
 74
     0
 42
0.0000000001
 43
0.0000000001
 40
0.0
 40
0.0
 40
0.0
 40
0.0
 40
1.0
 40
1.0
 40
1.0
 40
2.0
 40
2.0
 40
2.0
 40
3.0
 40
3.0
 40
3.0
 40
4.0
 40
4.0
 40
4.0
 40
5.0
 40
5.0
 40
5.0
 40
6.0
 40
6.0
 40
6.0
 40
7.0
 40
7.0
 40
7.0
 40
8.0
 40
8.0
 40
8.0
 40
9.0
 40
9.0
 40
9.0
 40
10.0
 40
10.0
 40
10.0
 40
11.0
 40
11.0
 40
11.0
 40
12.0
 40
12.0
 40
12.0
 40
13.0
 40
13.0
 40
13.0
 40
14.0
 40
14.0
 40
14.0
 40
15.0
 40
15.0
 40
15.0
 40
16.0
 40
16.0
 40
16.0
 40
17.0
 40
17.0
 40
17.0
 40
18.0
 40
18.0
 40
18.0
 40
19.0
 40
19.0
 40
19.0
 40
20.0
 40
20.0
 40
20.0
 40
21.0
 40
21.0
 40
21.0
 40
22.0
 40
22.0
 40
22.0
 40
23.0
 40
23.0
 40
23.0
 40
24.0
 40
24.0
 40
24.0
 40
25.0
 40
25.0
 40
25.0
 40
26.0
 40
26.0
 40
26.0
 40
27.0
 40
27.0
 40
27.0
 40
28.0
 40
28.0
 40
28.0
 40
29.0
 40
29.0
 40
29.0
 40
30.0
 40
30.0
 40
30.0
 40
31.0
 40
31.0
 40
31.0
 40
32.0
 40
32.0
 40
32.0
 40
33.0
 40
33.0
 40
33.0
 40
34.0
 40
34.0
 40
34.0
 40
35.0
 40
35.0
 40
35.0
 40
36.0
 40
36.0
 40
36.0
 40
37.0
 40
37.0
 40
37.0
 40
38.0
 40
38.0
 40
38.0
 40
39.0
 40
39.0
 40
39.0
 40
40.0
 40
40.0
 40
40.0
 40
41.0
 40
41.0
 40
41.0
 40
42.0
 40
42.0
 40
42.0
 40
43.0
 40
43.0
 40
43.0
 40
44.0
 40
44.0
 40
44.0
 40
45.0
 40
45.0
 40
45.0
 40
46.0
 40
46.0
 40
46.0
 40
47.0
 40
47.0
 40
47.0
 40
48.0
 40
48.0
 40
48.0
 40
49.0
 40
49.0
 40
49.0
 40
50.0
 40
50.0
 40
50.0
 40
51.0
 40
51.0
 40
51.0
 40
52.0
 40
52.0
 40
52.0
 40
53.0
 40
53.0
 40
53.0
 40
53.0
 10
30.99862466672951
 20
15.21664224880001
 30
0.0
 10
30.3144287033589
 20
11.10492078715433
 30
0.0
 10
29.3237914965753
 20
6.753076170186731
 30
0.0
 10
27.95608858893112
 20
2.165587022028048
 30
0.0
 10
27.69029947224409
 20
1.27399631044539
 30
0.0
 10
28.19741752767287
 20
0.3362413193603841
 30
0.0
 10
29.08849147493274
 20
0.0709689669961466
 30
0.0
 10
29.97973767696687
 20
-0.1949924044651408
 30
0.0
 10
30.91749266805188
 20
0.3121256509636353
 30
0.0
 10
31.1832817847389
 20
1.203027343449243
 30
0.0
 10
34.43269584642655
 20
12.0988308346489
 30
0.0
 10
35.63262260393907
 20
21.77265895723045
 30
0.0
 10
35.63227809439054
 20
30.10152180237045
 30
0.0
 10
35.63227809439054
 20
31.16984591234643
 30
0.0
 10
35.61264105012462
 20
32.21508788257123
 30
0.0
 10
35.5750895093354
 20
33.23897026078748
 30
0.0
 10
37.23390298548319
 20
32.23541394593421
 30
0.0
 10
39.44048664378571
 20
33.52698024335437
 30
0.0
 10
40.98147785433797
 20
34.54879556427947
 30
0.0
 10
46.63729111247262
 20
38.29843749042539
 30
0.0
 10
49.90909829481439
 20
44.01901854368275
 30
0.0
 10
53.60430771229337
 20
49.51084525671951
 30
0.0
 10
56.72143010734742
 20
54.14380966528349
 30
0.0
 10
59.4416775025007
 20
58.86738008510955
 30
0.0
 10
60.76046005425433
 20
64.28341469747082
 30
0.0
 10
61.22899304024831
 20
66.20646699733727
 30
0.0
 10
61.8976860739353
 20
67.45083548660952
 30
0.0
 10
59.60084091391924
 20
68.32451170166887
 30
0.0
 10
57.44696721654104
 20
69.14375540806128
 30
0.0
 10
54.87072481267121
 20
67.70973441232604
 30
0.0
 10
53.11889375842167
 20
66.44865720995034
 30
0.0
 10
50.37005207074083
 20
64.47048338231988
 30
0.0
 10
48.08802082131133
 20
61.06879610018419
 30
0.0
 10
45.90727537914818
 20
58.48652477921518
 30
0.0
 10
43.95046114352628
 20
56.16918130106188
 30
0.0
 10
41.98400064054567
 20
53.53144394278034
 30
0.0
 10
40.2855685663175
 20
51.0227254104214
 30
0.0
 10
38.57714571518211
 20
48.49936522225016
 30
0.0
 10
37.27042099762684
 20
45.40911457198106
 30
0.0
 10
36.19555120622889
 20
42.58895940775554
 30
0.0
 10
35.90271808998266
 20
41.82104762409335
 30
0.0
 10
35.45761175328838
 20
40.92738985521954
 30
0.0
 10
35.04798990009217
 20
39.98446722090667
 30
0.0
 10
34.22426756956894
 20
46.81540254906004
 30
0.0
 10
32.64365776093631
 20
52.37854273864148
 30
0.0
 10
31.05477972313908
 20
56.57329100148168
 30
0.0
 10
29.61972519875826
 20
60.36186250661093
 30
0.0
 10
28.17915852160105
 20
63.03680689613316
 30
0.0
 10
27.28274467633904
 20
64.53542343221685
 30
0.0
 10
27.878573940513
 20
64.73024358190771
 30
0.0
 10
28.46716850416793
 20
64.94418401154174
 30
0.0
 10
29.04560003614138
 20
65.17758923066741
 30
0.0
 10
30.51803384653716
 20
65.77290173051858
 30
0.0
 10
31.92501084271319
 20
66.48948159145056
 30
0.0
 10
33.2214002738127
 20
67.30820853352017
 30
0.0
 10
34.5174451953637
 20
68.1269354755898
 30
0.0
 10
35.70255804228964
 20
69.0472927344743
 30
0.0
 10
36.72816296824852
 20
70.05825600462086
 30
0.0
 10
37.6559271824263
 20
70.97310111072895
 30
0.0
 10
38.40454643137109
 20
71.980447030616
 30
0.0
 10
38.99779187393111
 20
73.0394693827818
 30
0.0
 10
39.88869356641672
 20
74.6293809492246
 30
0.0
 10
40.43026257669799
 20
76.32884655209834
 30
0.0
 10
40.76064723373345
 20
78.04174802736456
 30
0.0
 10
41.09068738122038
 20
79.75602754082489
 30
0.0
 10
41.21229925184971
 20
81.48891056990556
 30
0.0
 10
41.2508843212845
 20
83.18062470793748
 30
0.0
 10
41.25467392631828
 20
83.3518459535544
 30
0.0
 10
41.33666719886723
 20
88.8977606657096
 30
0.0
 10
41.33666719886723
 20
91.24800480574703
 30
0.0
 10
41.33666719886723
 20
92.18696558025188
 30
0.0
 10
41.33012151744525
 20
93.0222289806507
 30
0.0
 10
41.31358505911605
 20
93.64596351825519
 30
0.0
 10
41.30497232040292
 20
93.96015622650997
 30
0.0
 10
40.15982258110588
 20
101.0398274486984
 30
0.0
 10
37.96081813287091
 20
101.2165608470917
 30
0.0
 10
34.91983234804088
 20
101.4606458622217
 30
0.0
 10
33.69027776935521
 20
98.90025089758397
 30
0.0
 10
33.3330213675348
 20
96.4192653838813
 30
0.0
 10
33.31269530417183
 20
96.41892087433277
 30
0.0
 10
33.29202473126033
 20
96.41857636478424
 30
0.0
 10
33.27169866789735
 20
96.41823185523572
 30
0.0
 10
33.19383950993071
 20
98.47857121018939
 30
0.0
 10
32.61644150660283
 20
101.3169853804867
 30
0.0
 10
30.20349662873385
 20
101.3681450484427
 30
0.0
 10
27.47635904261008
 20
101.4260226525949
 30
0.0
 10
27.76092392969171
 20
98.1497368461223
 30
0.0
 10
27.82276339365195
 20
96.11868080279325
 30
0.0
 10
27.7834893051201
 20
96.11540796208226
 30
0.0
 10
27.74438747136251
 20
96.11265188569406
 30
0.0
 10
27.70511338283067
 20
96.10920679020882
 30
0.0
 10
26.56203070082477
 20
98.75848521836593
 30
0.0
 10
25.54366047538492
 20
102.4955525459907
 30
0.0
 10
21.780238167298
 20
101.4060410987804
 30
0.0
 10
19.53782551594888
 20
100.7569851093594
 30
0.0
 10
18.44573024712468
 20
97.32790931811594
 30
0.0
 10
18.46450601751929
 20
95.0617255079186
 30
0.0
 10
18.43470594157188
 20
95.05793590288482
 30
0.0
 10
18.40473361085021
 20
95.05414629785105
 30
0.0
 10
18.37493353490279
 20
95.05018443804302
 30
0.0
 10
17.16518825525732
 20
97.6257378228158
 30
0.0
 10
16.22708875462379
 20
100.4038628221213
 30
0.0
 10
12.80352511615676
 20
100.2402207865719
 30
0.0
 10
9.048371037234435
 20
100.0603868022419
 30
0.0
 10
7.994688583070773
 20
96.8059773521006
 30
0.0
 10
8.268745928922398
 20
93.70160181034197
 30
0.0
 10
8.25996093543501
 20
93.70005151737361
 30
0.0
 10
8.250831432399098
 20
93.69832896963098
 30
0.0
 10
8.24204643891171
 20
93.69677867666262
 30
0.0
 10
7.051249184435105
 20
96.22513425328746
 30
0.0
 10
5.5550442151911
 20
99.67643091041076
 30
0.0
 10
1.883605956560349
 20
98.83238251652455
 30
0.0
 10
-0.932242838308606
 20
98.18522132962036
 30
0.0
 10
0.190858289882841
 20
87.93657902532489
 30
0.0
 10
0.3791327581517446
 20
87.37916257581146
 30
0.0
 10
0.5694742837117981
 20
86.82157387152378
 30
0.0
 10
1.609720865482986
 20
81.87992890748141
 30
0.0
 10
2.202105034171696
 20
79.78358830470688
 30
0.0
 10
3.092317707560254
 20
76.63993867441641
 30
0.0
 10
4.317393662115096
 20
73.45270858623752
 30
0.0
 10
6.175850421633121
 20
70.68130152312828
 30
0.0
 10
7.105681693102052
 20
69.2970621571549
 30
0.0
 10
8.197087942829201
 20
68.01720918438458
 30
0.0
 10
9.486587182958214
 20
66.92011852710678
 30
0.0
 10
10.77522514921592
 20
65.82302786982896
 30
0.0
 10
12.26385090839237
 20
64.91111109488334
 30
0.0
 10
13.95677082984414
 20
64.26963431552981
 30
0.0
 10
15.78732231593164
 20
63.57648110389755
 30
0.0
 10
17.76652967220767
 20
63.27796358010065
 30
0.0
 10
19.77949896423915
 20
63.27744681577786
 30
0.0
 10
21.13152668742545
 20
63.27830808964917
 30
0.0
 10
22.500779888038
 20
63.41283906834818
 30
0.0
 10
23.85849201877496
 20
63.66191947193175
 30
0.0
 10
24.45793863320843
 20
62.74965818743759
 30
0.0
 10
26.23888074430834
 20
59.8499213175028
 30
0.0
 10
28.00690374733855
 20
55.10981443934755
 30
0.0
 10
30.14424098638755
 20
49.37924260918297
 30
0.0
 10
32.2643527480103
 20
40.96631943420287
 30
0.0
 10
32.26469725755883
 20
30.10152180237045
 30
0.0
 10
32.26469725755883
 20
27.45362141240743
 30
0.0
 10
32.13757323415311
 20
24.65861544522424
 30
0.0
 10
31.8547308948141
 20
21.72201605359728
 30
0.0
 10
31.26837564322457
 20
23.47419161739534
 30
0.0
 10
30.43156194985739
 20
25.15539821419726
 30
0.0
 10
29.81333956502931
 20
26.88552516688973
 30
0.0
 10
28.65751002972798
 20
30.11943629889375
 30
0.0
 10
28.08527966962799
 20
33.35817056457712
 30
0.0
 10
26.99060057918985
 20
36.58622503425622
 30
0.0
 10
25.10217148895015
 20
42.15487737661406
 30
0.0
 10
22.22603352308933
 20
54.40443113874264
 30
0.0
 10
13.76935763544655
 20
52.9773003339779
 30
0.0
 10
7.243313257737783
 20
51.87607556211779
 30
0.0
 10
13.09584146808021
 20
37.21633299850842
 30
0.0
 10
14.60169270468291
 20
33.47185871559037
 30
0.0
 10
17.395320633672
 20
26.52620170777817
 30
0.0
 10
22.35935871836849
 20
22.13715005956988
 30
0.0
 10
27.80863850216242
 20
17.28128797311023
 30
0.0
 10
28.60669487132055
 20
16.57022026495467
 30
0.0
 10
29.87190618827855
 20
15.27520887204925
 30
0.0
 10
30.99862466672951
 20
15.21664224880001
 30
0.0
  0
SPLINE
  5
3D
330
1F
100
AcDbEntity
  8
Layer 1
370
     0
100
AcDbSpline
210
0.0
220
0.0
230
1.0
 70
    11
 71
     3
 72
    44
 73
    40
 74
     0
 42
0.0000000001
 43
0.0000000001
 40
0.0
 40
0.0
 40
0.0
 40
0.0
 40
1.0
 40
1.0
 40
1.0
 40
2.0
 40
2.0
 40
2.0
 40
3.0
 40
3.0
 40
3.0
 40
4.0
 40
4.0
 40
4.0
 40
5.0
 40
5.0
 40
5.0
 40
6.0
 40
6.0
 40
6.0
 40
7.0
 40
7.0
 40
7.0
 40
8.0
 40
8.0
 40
8.0
 40
9.0
 40
9.0
 40
9.0
 40
10.0
 40
10.0
 40
10.0
 40
11.0
 40
11.0
 40
11.0
 40
12.0
 40
12.0
 40
12.0
 40
13.0
 40
13.0
 40
13.0
 40
13.0
 10
3.766178384475122
 20
87.86388751058611
 30
0.0
 10
3.575664604140806
 20
88.45920001043729
 30
0.0
 10
3.38308376651534
 20
88.98302677896953
 30
0.0
 10
3.244763182782559
 20
89.45311005793187
 30
0.0
 10
3.827328829338307
 20
89.53251950886687
 30
0.0
 10
4.493438041411363
 20
89.63621688297289
 30
0.0
 10
5.189002819883305
 20
89.75059405308319
 30
0.0
 10
6.366191947193174
 20
89.94403616457997
 30
0.0
 10
7.62399630885789
 20
90.16727835202416
 30
0.0
 10
8.64632839410578
 20
90.34831811977404
 30
0.0
 10
9.157063799794068
 20
90.4389241310361
 30
0.0
 10
9.609060327458847
 20
90.5188503462939
 30
0.0
 10
9.957876245340392
 20
90.57845049818873
 30
0.0
 10
10.13185356734551
 20
90.60825057413614
 30
0.0
 10
10.28033718275978
 20
90.63305526162993
 30
0.0
 10
10.3936808242245
 20
90.6511420129275
 30
0.0
 10
10.5047851536238
 20
90.66888425467653
 30
0.0
 10
10.58987901210948
 20
90.68025306977786
 30
0.0
 10
10.59470214578882
 20
90.68042532455212
 30
0.0
 10
14.00913628121994
 20
91.05611298721861
 30
0.0
 10
17.48506537106276
 20
91.5494506607064
 30
0.0
 10
20.96547308503641
 20
91.98870033507575
 30
0.0
 10
25.63271619367863
 20
92.57867293692478
 30
0.0
 10
30.30805527671118
 20
93.0699435531214
 30
0.0
 10
34.83473848955521
 20
93.06942678879862
 30
0.0
 10
35.88480359345936
 20
93.06942678879862
 30
0.0
 10
36.92660046819891
 20
93.04066024149678
 30
0.0
 10
37.95875107557976
 20
92.98347165644164
 30
0.0
 10
37.96564126655026
 20
92.48978947340534
 30
0.0
 10
37.9690863620355
 20
91.89516599265121
 30
0.0
 10
37.9690863620355
 20
91.24800480574703
 30
0.0
 10
37.9690863620355
 20
90.79755857105062
 30
0.0
 10
37.96736381429288
 20
90.32041284634352
 30
0.0
 10
37.96460773790469
 20
89.83430987337476
 30
0.0
 10
37.96460773790469
 20
89.83430987337476
 30
0.0
 10
3.890890841041166
 20
87.45030379758187
 30
0.0
 10
3.890890841041166
 20
87.45030379758187
 30
0.0
 10
3.850238714315218
 20
87.59155271247711
 30
0.0
 10
3.808725313717958
 20
87.73039006053268
 30
0.0
 10
3.766178384475122
 20
87.86388751058611
 30
0.0
  0
SPLINE
  5
3E
330
1F
100
AcDbEntity
  8
Layer 1
370
     0
100
AcDbSpline
210
0.0
220
0.0
230
1.0
 70
    11
 71
     3
 72
    23
 73
    19
 74
     0
 42
0.0000000001
 43
0.0000000001
 40
0.0
 40
0.0
 40
0.0
 40
0.0
 40
1.0
 40
1.0
 40
1.0
 40
2.0
 40
2.0
 40
2.0
 40
3.0
 40
3.0
 40
3.0
 40
4.0
 40
4.0
 40
4.0
 40
5.0
 40
5.0
 40
5.0
 40
6.0
 40
6.0
 40
6.0
 40
6.0
 10
4.378371852204018
 20
85.17447372002583
 30
0.0
 10
4.378371852204018
 20
85.17447372002583
 30
0.0
 10
37.94565971273581
 20
87.52299531232065
 30
0.0
 10
37.94565971273581
 20
87.52299531232065
 30
0.0
 10
37.94152559815351
 20
87.1135457138987
 30
0.0
 10
37.93670246447416
 20
86.71374238283546
 30
0.0
 10
37.93187933079481
 20
86.33288707694109
 30
0.0
 10
37.92188855388758
 20
85.566353331473
 30
0.0
 10
37.91189777698036
 20
84.8761284510032
 30
0.0
 10
37.90328503826724
 20
84.33766002665864
 30
0.0
 10
37.90225150962166
 20
84.27495928882709
 30
0.0
 10
37.90087347142756
 20
84.2143256082867
 30
0.0
 10
37.90018445233051
 20
84.1555867302632
 30
0.0
 10
37.90018445233051
 20
84.1555867302632
 30
0.0
 10
5.335763887554948
 20
81.09031302226215
 30
0.0
 10
5.335763887554948
 20
81.09031302226215
 30
0.0
 10
4.961454263082553
 20
82.45973847764895
 30
0.0
 10
4.648467338247605
 20
83.83605412400627
 30
0.0
 10
4.378371852204018
 20
85.17447372002583
 30
0.0
  0
SPLINE
  5
3F
330
1F
100
AcDbEntity
  8
Layer 1
370
     0
100
AcDbSpline
210
0.0
220
0.0
230
1.0
 70
    11
 71
     3
 72
    17
 73
    13
 74
     0
 42
0.0000000001
 43
0.0000000001
 40
0.0
 40
0.0
 40
0.0
 40
0.0
 40
1.0
 40
1.0
 40
1.0
 40
2.0
 40
2.0
 40
2.0
 40
3.0
 40
3.0
 40
3.0
 40
4.0
 40
4.0
 40
4.0
 40
4.0
 10
8.1915757900528
 20
73.82564017251582
 30
0.0
 10
7.318760848864755
 20
75.3628417780343
 30
0.0
 10
6.605626083418038
 20
77.07057561007264
 30
0.0
 10
6.015825736343266
 20
78.8398043965227
 30
0.0
 10
6.015825736343266
 20
78.8398043965227
 30
0.0
 10
37.82680391849469
 20
81.83428139230185
 30
0.0
 10
37.82680391849469
 20
81.83428139230185
 30
0.0
 10
37.77271591937627
 20
80.91668020980556
 30
0.0
 10
37.68004285082305
 20
80.01854381680093
 30
0.0
 10
37.53569334999108
 20
79.15175779271206
 30
0.0
 10
37.53569334999108
 20
79.15175779271206
 30
0.0
 10
8.1915757900528
 20
73.82564017251582
 30
0.0
 10
8.1915757900528
 20
73.82564017251582
 30
0.0
  0
SPLINE
  5
40
330
1F
100
AcDbEntity
  8
Layer 1
370
     0
100
AcDbSpline
210
0.0
220
0.0
230
1.0
 70
    11
 71
     3
 72
    26
 73
    22
 74
     0
 42
0.0000000001
 43
0.0000000001
 40
0.0
 40
0.0
 40
0.0
 40
0.0
 40
1.0
 40
1.0
 40
1.0
 40
2.0
 40
2.0
 40
2.0
 40
3.0
 40
3.0
 40
3.0
 40
4.0
 40
4.0
 40
4.0
 40
5.0
 40
5.0
 40
5.0
 40
6.0
 40
6.0
 40
6.0
 40
7.0
 40
7.0
 40
7.0
 40
7.0
 10
10.69133707415008
 20
70.40724417727667
 30
0.0
 10
10.29428981947504
 20
70.82082789028091
 30
0.0
 10
9.919463430679857
 20
71.26507295310387
 30
0.0
 10
9.563929576602074
 20
71.7329169200008
 30
0.0
 10
9.563929576602074
 20
71.7329169200008
 30
0.0
 10
36.94003634059138
 20
76.70177813837664
 30
0.0
 10
36.94003634059138
 20
76.70177813837664
 30
0.0
 10
36.70335828075472
 20
75.99415552570632
 30
0.0
 10
36.41534829818783
 20
75.32012259401719
 30
0.0
 10
36.05981444411005
 20
74.68570826040843
 30
0.0
 10
35.61022948328495
 20
73.88351777666801
 30
0.0
 10
35.05729165790235
 20
73.14109969959668
 30
0.0
 10
34.3631049176245
 20
72.45587020758047
 30
0.0
 10
34.30763888031198
 20
72.40109318936501
 30
0.0
 10
34.24907225706274
 20
72.34666068069806
 30
0.0
 10
34.19188367200758
 20
72.29222817203112
 30
0.0
 10
34.19188367200758
 20
72.29222817203112
 30
0.0
 10
10.90028211533049
 20
70.20019393861315
 30
0.0
 10
10.90028211533049
 20
70.20019393861315
 30
0.0
 10
10.8308634413027
 20
70.26944035786667
 30
0.0
 10
10.75954996475803
 20
70.33627521028052
 30
0.0
 10
10.69133707415008
 20
70.40724417727667
 30
0.0
  0
SPLINE
  5
41
330
1F
100
AcDbEntity
  8
Layer 1
370
     0
100
AcDbSpline
210
0.0
220
0.0
230
1.0
 70
    11
 71
     3
 72
    20
 73
    16
 74
     0
 42
0.0000000001
 43
0.0000000001
 40
0.0
 40
0.0
 40
0.0
 40
0.0
 40
1.0
 40
1.0
 40
1.0
 40
2.0
 40
2.0
 40
2.0
 40
3.0
 40
3.0
 40
3.0
 40
4.0
 40
4.0
 40
4.0
 40
5.0
 40
5.0
 40
5.0
 40
5.0
 10
19.77949896423915
 20
66.64502765260958
 30
0.0
 10
18.10053167950264
 20
66.64451088828679
 30
0.0
 10
16.52198892816117
 20
66.89789766122692
 30
0.0
 10
15.15084092503174
 20
67.41862384382243
 30
0.0
 10
14.61375053888129
 20
67.62274575132348
 30
0.0
 10
14.10835503119513
 20
67.86355792574244
 30
0.0
 10
13.62518038938885
 20
68.13158635449489
 30
0.0
 10
13.62518038938885
 20
68.13158635449489
 30
0.0
 10
30.58314615120838
 20
69.65466306852383
 30
0.0
 10
30.58314615120838
 20
69.65466306852383
 30
0.0
 10
29.11553547449195
 20
68.81888290380223
 30
0.0
 10
27.48755560293714
 20
68.11298283887453
 30
0.0
 10
25.80807155387784
 20
67.60000812112084
 30
0.0
 10
23.8018201980426
 20
66.9857475961008
 30
0.0
 10
21.72597791340531
 20
66.64416637873826
 30
0.0
 10
19.77949896423915
 20
66.64502765260958
 30
0.0
  0
HATCH
  5
42
330
1F
100
AcDbEntity
  8
Layer 1
 62
    53
420
 16245054
100
AcDbHatch
 10
0.0
 20
0.0
 30
0.0
210
0.0
220
0.0
230
1.0
  2
SOLID
 70
     1
 71
     0
 91
        6
 92
        1
 93
        1
 72
     4
 94
        3
 73
     0
 74
     1
 95
      164
 96
      160
 40
0.0
 40
0.0
 40
0.0
 40
0.0
 40
1.0
 40
1.0
 40
1.0
 40
2.0
 40
2.0
 40
2.0
 40
3.0
 40
3.0
 40
3.0
 40
4.0
 40
4.0
 40
4.0
 40
5.0
 40
5.0
 40
5.0
 40
6.0
 40
6.0
 40
6.0
 40
7.0
 40
7.0
 40
7.0
 40
8.0
 40
8.0
 40
8.0
 40
9.0
 40
9.0
 40
9.0
 40
10.0
 40
10.0
 40
10.0
 40
11.0
 40
11.0
 40
11.0
 40
12.0
 40
12.0
 40
12.0
 40
13.0
 40
13.0
 40
13.0
 40
14.0
 40
14.0
 40
14.0
 40
15.0
 40
15.0
 40
15.0
 40
16.0
 40
16.0
 40
16.0
 40
17.0
 40
17.0
 40
17.0
 40
18.0
 40
18.0
 40
18.0
 40
19.0
 40
19.0
 40
19.0
 40
20.0
 40
20.0
 40
20.0
 40
21.0
 40
21.0
 40
21.0
 40
22.0
 40
22.0
 40
22.0
 40
23.0
 40
23.0
 40
23.0
 40
24.0
 40
24.0
 40
24.0
 40
25.0
 40
25.0
 40
25.0
 40
26.0
 40
26.0
 40
26.0
 40
27.0
 40
27.0
 40
27.0
 40
28.0
 40
28.0
 40
28.0
 40
29.0
 40
29.0
 40
29.0
 40
30.0
 40
30.0
 40
30.0
 40
31.0
 40
31.0
 40
31.0
 40
32.0
 40
32.0
 40
32.0
 40
33.0
 40
33.0
 40
33.0
 40
34.0
 40
34.0
 40
34.0
 40
35.0
 40
35.0
 40
35.0
 40
36.0
 40
36.0
 40
36.0
 40
37.0
 40
37.0
 40
37.0
 40
38.0
 40
38.0
 40
38.0
 40
39.0
 40
39.0
 40
39.0
 40
40.0
 40
40.0
 40
40.0
 40
41.0
 40
41.0
 40
41.0
 40
42.0
 40
42.0
 40
42.0
 40
43.0
 40
43.0
 40
43.0
 40
44.0
 40
44.0
 40
44.0
 40
45.0
 40
45.0
 40
45.0
 40
46.0
 40
46.0
 40
46.0
 40
47.0
 40
47.0
 40
47.0
 40
48.0
 40
48.0
 40
48.0
 40
49.0
 40
49.0
 40
49.0
 40
50.0
 40
50.0
 40
50.0
 40
51.0
 40
51.0
 40
51.0
 40
52.0
 40
52.0
 40
52.0
 40
53.0
 40
53.0
 40
53.0
 40
53.0
 10
30.99862466672951
 20
15.21664224880001
 10
30.3144287033589
 20
11.10492078715433
 10
29.3237914965753
 20
6.753076170186731
 10
27.95608858893112
 20
2.165587022028048
 10
27.69029947224409
 20
1.27399631044539
 10
28.19741752767287
 20
0.3362413193603841
 10
29.08849147493274
 20
0.0709689669961466
 10
29.97973767696687
 20
-0.1949924044651408
 10
30.91749266805188
 20
0.3121256509636353
 10
31.1832817847389
 20
1.203027343449243
 10
34.43269584642655
 20
12.0988308346489
 10
35.63262260393907
 20
21.77265895723045
 10
35.63227809439054
 20
30.10152180237045
 10
35.63227809439054
 20
31.16984591234643
 10
35.61264105012462
 20
32.21508788257123
 10
35.5750895093354
 20
33.23897026078748
 10
37.23390298548319
 20
32.23541394593421
 10
39.44048664378571
 20
33.52698024335437
 10
40.98147785433797
 20
34.54879556427947
 10
46.63729111247262
 20
38.29843749042539
 10
49.90909829481439
 20
44.01901854368275
 10
53.60430771229337
 20
49.51084525671951
 10
56.72143010734742
 20
54.14380966528349
 10
59.4416775025007
 20
58.86738008510955
 10
60.76046005425433
 20
64.28341469747082
 10
61.22899304024831
 20
66.20646699733727
 10
61.8976860739353
 20
67.45083548660952
 10
59.60084091391924
 20
68.32451170166887
 10
57.44696721654104
 20
69.14375540806128
 10
54.87072481267121
 20
67.70973441232604
 10
53.11889375842167
 20
66.44865720995034
 10
50.37005207074083
 20
64.47048338231988
 10
48.08802082131133
 20
61.06879610018419
 10
45.90727537914818
 20
58.48652477921518
 10
43.95046114352628
 20
56.16918130106188
 10
41.98400064054567
 20
53.53144394278034
 10
40.2855685663175
 20
51.0227254104214
 10
38.57714571518211
 20
48.49936522225016
 10
37.27042099762684
 20
45.40911457198106
 10
36.19555120622889
 20
42.58895940775554
 10
35.90271808998266
 20
41.82104762409335
 10
35.45761175328838
 20
40.92738985521954
 10
35.04798990009217
 20
39.98446722090667
 10
34.22426756956894
 20
46.81540254906004
 10
32.64365776093631
 20
52.37854273864148
 10
31.05477972313908
 20
56.57329100148168
 10
29.61972519875826
 20
60.36186250661093
 10
28.17915852160105
 20
63.03680689613316
 10
27.28274467633904
 20
64.53542343221685
 10
27.878573940513
 20
64.73024358190771
 10
28.46716850416793
 20
64.94418401154174
 10
29.04560003614138
 20
65.17758923066741
 10
30.51803384653716
 20
65.77290173051858
 10
31.92501084271319
 20
66.48948159145056
 10
33.2214002738127
 20
67.30820853352017
 10
34.5174451953637
 20
68.1269354755898
 10
35.70255804228964
 20
69.0472927344743
 10
36.72816296824852
 20
70.05825600462086
 10
37.6559271824263
 20
70.97310111072895
 10
38.40454643137109
 20
71.980447030616
 10
38.99779187393111
 20
73.0394693827818
 10
39.88869356641672
 20
74.6293809492246
 10
40.43026257669799
 20
76.32884655209834
 10
40.76064723373345
 20
78.04174802736456
 10
41.09068738122038
 20
79.75602754082489
 10
41.21229925184971
 20
81.48891056990556
 10
41.2508843212845
 20
83.18062470793748
 10
41.25467392631828
 20
83.3518459535544
 10
41.33666719886723
 20
88.8977606657096
 10
41.33666719886723
 20
91.24800480574703
 10
41.33666719886723
 20
92.18696558025188
 10
41.33012151744525
 20
93.0222289806507
 10
41.31358505911605
 20
93.64596351825519
 10
41.30497232040292
 20
93.96015622650997
 10
40.15982258110588
 20
101.0398274486984
 10
37.96081813287091
 20
101.2165608470917
 10
34.91983234804088
 20
101.4606458622217
 10
33.69027776935521
 20
98.90025089758397
 10
33.3330213675348
 20
96.4192653838813
 10
33.31269530417183
 20
96.41892087433277
 10
33.29202473126033
 20
96.41857636478424
 10
33.27169866789735
 20
96.41823185523572
 10
33.19383950993071
 20
98.47857121018939
 10
32.61644150660283
 20
101.3169853804867
 10
30.20349662873385
 20
101.3681450484427
 10
27.47635904261008
 20
101.4260226525949
 10
27.76092392969171
 20
98.1497368461223
 10
27.82276339365195
 20
96.11868080279325
 10
27.7834893051201
 20
96.11540796208226
 10
27.74438747136251
 20
96.11265188569406
 10
27.70511338283067
 20
96.10920679020882
 10
26.56203070082477
 20
98.75848521836593
 10
25.54366047538492
 20
102.4955525459907
 10
21.780238167298
 20
101.4060410987804
 10
19.53782551594888
 20
100.7569851093594
 10
18.44573024712468
 20
97.32790931811594
 10
18.46450601751929
 20
95.0617255079186
 10
18.43470594157188
 20
95.05793590288482
 10
18.40473361085021
 20
95.05414629785105
 10
18.37493353490279
 20
95.05018443804302
 10
17.16518825525732
 20
97.6257378228158
 10
16.22708875462379
 20
100.4038628221213
 10
12.80352511615676
 20
100.2402207865719
 10
9.048371037234435
 20
100.0603868022419
 10
7.994688583070773
 20
96.8059773521006
 10
8.268745928922398
 20
93.70160181034197
 10
8.25996093543501
 20
93.70005151737361
 10
8.250831432399098
 20
93.69832896963098
 10
8.24204643891171
 20
93.69677867666262
 10
7.051249184435105
 20
96.22513425328746
 10
5.5550442151911
 20
99.67643091041076
 10
1.883605956560349
 20
98.83238251652455
 10
-0.932242838308606
 20
98.18522132962036
 10
0.190858289882841
 20
87.93657902532489
 10
0.3791327581517446
 20
87.37916257581146
 10
0.5694742837117981
 20
86.82157387152378
 10
1.609720865482986
 20
81.87992890748141
 10
2.202105034171696
 20
79.78358830470688
 10
3.092317707560254
 20
76.63993867441641
 10
4.317393662115096
 20
73.45270858623752
 10
6.175850421633121
 20
70.68130152312828
 10
7.105681693102052
 20
69.2970621571549
 10
8.197087942829201
 20
68.01720918438458
 10
9.486587182958214
 20
66.92011852710678
 10
10.77522514921592
 20
65.82302786982896
 10
12.26385090839237
 20
64.91111109488334
 10
13.95677082984414
 20
64.26963431552981
 10
15.78732231593164
 20
63.57648110389755
 10
17.76652967220767
 20
63.27796358010065
 10
19.77949896423915
 20
63.27744681577786
 10
21.13152668742545
 20
63.27830808964917
 10
22.500779888038
 20
63.41283906834818
 10
23.85849201877496
 20
63.66191947193175
 10
24.45793863320843
 20
62.74965818743759
 10
26.23888074430834
 20
59.8499213175028
 10
28.00690374733855
 20
55.10981443934755
 10
30.14424098638755
 20
49.37924260918297
 10
32.2643527480103
 20
40.96631943420287
 10
32.26469725755883
 20
30.10152180237045
 10
32.26469725755883
 20
27.45362141240743
 10
32.13757323415311
 20
24.65861544522424
 10
31.8547308948141
 20
21.72201605359728
 10
31.26837564322457
 20
23.47419161739534
 10
30.43156194985739
 20
25.15539821419726
 10
29.81333956502931
 20
26.88552516688973
 10
28.65751002972798
 20
30.11943629889375
 10
28.08527966962799
 20
33.35817056457712
 10
26.99060057918985
 20
36.58622503425622
 10
25.10217148895015
 20
42.15487737661406
 10
22.22603352308933
 20
54.40443113874264
 10
13.76935763544655
 20
52.9773003339779
 10
7.243313257737783
 20
51.87607556211779
 10
13.09584146808021
 20
37.21633299850842
 10
14.60169270468291
 20
33.47185871559037
 10
17.395320633672
 20
26.52620170777817
 10
22.35935871836849
 20
22.13715005956988
 10
27.80863850216242
 20
17.28128797311023
 10
28.60669487132055
 20
16.57022026495467
 10
29.87190618827855
 20
15.27520887204925
 10
30.99862466672951
 20
15.21664224880001
 97
        0
 92
        1
 93
        1
 72
     4
 94
        3
 73
     0
 74
     1
 95
       44
 96
       40
 40
0.0
 40
0.0
 40
0.0
 40
0.0
 40
1.0
 40
1.0
 40
1.0
 40
2.0
 40
2.0
 40
2.0
 40
3.0
 40
3.0
 40
3.0
 40
4.0
 40
4.0
 40
4.0
 40
5.0
 40
5.0
 40
5.0
 40
6.0
 40
6.0
 40
6.0
 40
7.0
 40
7.0
 40
7.0
 40
8.0
 40
8.0
 40
8.0
 40
9.0
 40
9.0
 40
9.0
 40
10.0
 40
10.0
 40
10.0
 40
11.0
 40
11.0
 40
11.0
 40
12.0
 40
12.0
 40
12.0
 40
13.0
 40
13.0
 40
13.0
 40
13.0
 10
3.766178384475122
 20
87.86388751058611
 10
3.575664604140806
 20
88.45920001043729
 10
3.38308376651534
 20
88.98302677896953
 10
3.244763182782559
 20
89.45311005793187
 10
3.827328829338307
 20
89.53251950886687
 10
4.493438041411363
 20
89.63621688297289
 10
5.189002819883305
 20
89.75059405308319
 10
6.366191947193174
 20
89.94403616457997
 10
7.62399630885789
 20
90.16727835202416
 10
8.64632839410578
 20
90.34831811977404
 10
9.157063799794068
 20
90.4389241310361
 10
9.609060327458847
 20
90.5188503462939
 10
9.957876245340392
 20
90.57845049818873
 10
10.13185356734551
 20
90.60825057413614
 10
10.28033718275978
 20
90.63305526162993
 10
10.3936808242245
 20
90.6511420129275
 10
10.5047851536238
 20
90.66888425467653
 10
10.58987901210948
 20
90.68025306977786
 10
10.59470214578882
 20
90.68042532455212
 10
14.00913628121994
 20
91.05611298721861
 10
17.48506537106276
 20
91.5494506607064
 10
20.96547308503641
 20
91.98870033507575
 10
25.63271619367863
 20
92.57867293692478
 10
30.30805527671118
 20
93.0699435531214
 10
34.83473848955521
 20
93.06942678879862
 10
35.88480359345936
 20
93.06942678879862
 10
36.92660046819891
 20
93.04066024149678
 10
37.95875107557976
 20
92.98347165644164
 10
37.96564126655026
 20
92.48978947340534
 10
37.9690863620355
 20
91.89516599265121
 10
37.9690863620355
 20
91.24800480574703
 10
37.9690863620355
 20
90.79755857105062
 10
37.96736381429288
 20
90.32041284634352
 10
37.96460773790469
 20
89.83430987337476
 10
37.96460773790469
 20
89.83430987337476
 10
3.890890841041166
 20
87.45030379758187
 10
3.890890841041166
 20
87.45030379758187
 10
3.850238714315218
 20
87.59155271247711
 10
3.808725313717958
 20
87.73039006053268
 10
3.766178384475122
 20
87.86388751058611
 97
        0
 92
        1
 93
        1
 72
     4
 94
        3
 73
     0
 74
     1
 95
       23
 96
       19
 40
0.0
 40
0.0
 40
0.0
 40
0.0
 40
1.0
 40
1.0
 40
1.0
 40
2.0
 40
2.0
 40
2.0
 40
3.0
 40
3.0
 40
3.0
 40
4.0
 40
4.0
 40
4.0
 40
5.0
 40
5.0
 40
5.0
 40
6.0
 40
6.0
 40
6.0
 40
6.0
 10
4.378371852204018
 20
85.17447372002583
 10
4.378371852204018
 20
85.17447372002583
 10
37.94565971273581
 20
87.52299531232065
 10
37.94565971273581
 20
87.52299531232065
 10
37.94152559815351
 20
87.1135457138987
 10
37.93670246447416
 20
86.71374238283546
 10
37.93187933079481
 20
86.33288707694109
 10
37.92188855388758
 20
85.566353331473
 10
37.91189777698036
 20
84.8761284510032
 10
37.90328503826724
 20
84.33766002665864
 10
37.90225150962166
 20
84.27495928882709
 10
37.90087347142756
 20
84.2143256082867
 10
37.90018445233051
 20
84.1555867302632
 10
37.90018445233051
 20
84.1555867302632
 10
5.335763887554948
 20
81.09031302226215
 10
5.335763887554948
 20
81.09031302226215
 10
4.961454263082553
 20
82.45973847764895
 10
4.648467338247605
 20
83.83605412400627
 10
4.378371852204018
 20
85.17447372002583
 97
        0
 92
        1
 93
        1
 72
     4
 94
        3
 73
     0
 74
     1
 95
       17
 96
       13
 40
0.0
 40
0.0
 40
0.0
 40
0.0
 40
1.0
 40
1.0
 40
1.0
 40
2.0
 40
2.0
 40
2.0
 40
3.0
 40
3.0
 40
3.0
 40
4.0
 40
4.0
 40
4.0
 40
4.0
 10
8.1915757900528
 20
73.82564017251582
 10
7.318760848864755
 20
75.3628417780343
 10
6.605626083418038
 20
77.07057561007264
 10
6.015825736343266
 20
78.8398043965227
 10
6.015825736343266
 20
78.8398043965227
 10
37.82680391849469
 20
81.83428139230185
 10
37.82680391849469
 20
81.83428139230185
 10
37.77271591937627
 20
80.91668020980556
 10
37.68004285082305
 20
80.01854381680093
 10
37.53569334999108
 20
79.15175779271206
 10
37.53569334999108
 20
79.15175779271206
 10
8.1915757900528
 20
73.82564017251582
 10
8.1915757900528
 20
73.82564017251582
 97
        0
 92
        1
 93
        1
 72
     4
 94
        3
 73
     0
 74
     1
 95
       26
 96
       22
 40
0.0
 40
0.0
 40
0.0
 40
0.0
 40
1.0
 40
1.0
 40
1.0
 40
2.0
 40
2.0
 40
2.0
 40
3.0
 40
3.0
 40
3.0
 40
4.0
 40
4.0
 40
4.0
 40
5.0
 40
5.0
 40
5.0
 40
6.0
 40
6.0
 40
6.0
 40
7.0
 40
7.0
 40
7.0
 40
7.0
 10
10.69133707415008
 20
70.40724417727667
 10
10.29428981947504
 20
70.82082789028091
 10
9.919463430679857
 20
71.26507295310387
 10
9.563929576602074
 20
71.7329169200008
 10
9.563929576602074
 20
71.7329169200008
 10
36.94003634059138
 20
76.70177813837664
 10
36.94003634059138
 20
76.70177813837664
 10
36.70335828075472
 20
75.99415552570632
 10
36.41534829818783
 20
75.32012259401719
 10
36.05981444411005
 20
74.68570826040843
 10
35.61022948328495
 20
73.88351777666801
 10
35.05729165790235
 20
73.14109969959668
 10
34.3631049176245
 20
72.45587020758047
 10
34.30763888031198
 20
72.40109318936501
 10
34.24907225706274
 20
72.34666068069806
 10
34.19188367200758
 20
72.29222817203112
 10
34.19188367200758
 20
72.29222817203112
 10
10.90028211533049
 20
70.20019393861315
 10
10.90028211533049
 20
70.20019393861315
 10
10.8308634413027
 20
70.26944035786667
 10
10.75954996475803
 20
70.33627521028052
 10
10.69133707415008
 20
70.40724417727667
 97
        0
 92
        1
 93
        1
 72
     4
 94
        3
 73
     0
 74
     1
 95
       20
 96
       16
 40
0.0
 40
0.0
 40
0.0
 40
0.0
 40
1.0
 40
1.0
 40
1.0
 40
2.0
 40
2.0
 40
2.0
 40
3.0
 40
3.0
 40
3.0
 40
4.0
 40
4.0
 40
4.0
 40
5.0
 40
5.0
 40
5.0
 40
5.0
 10
19.77949896423915
 20
66.64502765260958
 10
18.10053167950264
 20
66.64451088828679
 10
16.52198892816117
 20
66.89789766122692
 10
15.15084092503174
 20
67.41862384382243
 10
14.61375053888129
 20
67.62274575132348
 10
14.10835503119513
 20
67.86355792574244
 10
13.62518038938885
 20
68.13158635449489
 10
13.62518038938885
 20
68.13158635449489
 10
30.58314615120838
 20
69.65466306852383
 10
30.58314615120838
 20
69.65466306852383
 10
29.11553547449195
 20
68.81888290380223
 10
27.48755560293714
 20
68.11298283887453
 10
25.80807155387784
 20
67.60000812112084
 10
23.8018201980426
 20
66.9857475961008
 10
21.72597791340531
 20
66.64416637873826
 10
19.77949896423915
 20
66.64502765260958
 97
        0
 75
     2
 76
     1
 98
        0
  0
ENDSEC
  0
SECTION
  2
OBJECTS
  0
DICTIONARY
  5
C
330
0
100
AcDbDictionary
281
     1
  3
ACAD_GROUP
350
D
  3
ACAD_LAYOUT
350
1A
  3
ACAD_MLINESTYLE
350
17
  3
ACAD_PLOTSETTINGS
350
19
  3
ACAD_PLOTSTYLENAME
350
E
  3
ACAD_TABLESTYLE
350
43
  3
ACAD_VISUALSTYLE
350
2A
  0
DICTIONARY
  5
D
102
{ACAD_REACTORS
330
C
102
}
330
C
100
AcDbDictionary
281
     1
  0
DICTIONARY
  5
1A
102
{ACAD_REACTORS
330
C
102
}
330
C
100
AcDbDictionary
281
     1
  3
Layout1
350
1E
  3
Layout2
350
26
  3
Model
350
22
  0
DICTIONARY
  5
17
102
{ACAD_REACTORS
330
C
102
}
330
C
100
AcDbDictionary
281
     1
  3
Standard
350
18
  0
DICTIONARY
  5
19
102
{ACAD_REACTORS
330
C
102
}
330
C
100
AcDbDictionary
281
     1
  0
ACDBDICTIONARYWDFLT
  5
E
102
{ACAD_REACTORS
330
C
102
}
330
C
100
AcDbDictionary
281
     1
  3
Normal
350
F
100
AcDbDictionaryWithDefault
340
F
  0
DICTIONARY
  5
43
102
{ACAD_REACTORS
330
C
102
}
330
C
100
AcDbDictionary
281
     1
  0
DICTIONARY
  5
2A
102
{ACAD_REACTORS
330
C
102
}
330
C
100
AcDbDictionary
281
     1
  3
2dWireframe
350
2F
  3
3D Hidden
350
31
  3
3dWireframe
350
30
  3
Basic
350
32
  3
Brighten
350
36
  3
ColorChange
350
3A
  3
Conceptual
350
34
  3
Dim
350
35
  3
Facepattern
350
39
  3
Flat
350
2B
  3
FlatWithEdges
350
2C
  3
Gouraud
350
2D
  3
GouraudWithEdges
350
2E
  3
Linepattern
350
38
  3
Realistic
350
33
  3
Thicken
350
37
  0
LAYOUT
  5
1E
102
{ACAD_REACTORS
330
1A
102
}
330
1A
100
AcDbPlotSettings
  1

  2
none_device
  4

  6

 40
0.0
 41
0.0
 42
0.0
 43
0.0
 44
0.0
 45
0.0
 46
0.0
 47
0.0
 48
0.0
 49
0.0
140
0.0
141
0.0
142
1.0
143
1.0
 70
   688
 72
     0
 73
     0
 74
     5
  7

 75
    16
 76
     0
 77
     2
 78
   300
147
1.0
148
0.0
149
0.0
100
AcDbLayout
  1
Layout1
 70
     1
 71
     1
 10
0.0
 20
0.0
 11
12.0
 21
9.0
 12
0.0
 22
0.0
 32
0.0
 14
1.000000000000000E+20
 24
1.000000000000000E+20
 34
1.000000000000000E+20
 15
-1.000000000000000E+20
 25
-1.000000000000000E+20
 35
-1.000000000000000E+20
146
0.0
 13
0.0
 23
0.0
 33
0.0
 16
1.0
 26
0.0
 36
0.0
 17
0.0
 27
1.0
 37
0.0
 76
     0
330
1B
  0
LAYOUT
  5
26
102
{ACAD_REACTORS
330
1A
102
}
330
1A
100
AcDbPlotSettings
  1

  2
none_device
  4

  6

 40
0.0
 41
0.0
 42
0.0
 43
0.0
 44
0.0
 45
0.0
 46
0.0
 47
0.0
 48
0.0
 49
0.0
140
0.0
141
0.0
142
1.0
143
1.0
 70
   688
 72
     0
 73
     0
 74
     5
  7

 75
    16
 76
     0
 77
     2
 78
   300
147
1.0
148
0.0
149
0.0
100
AcDbLayout
  1
Layout2
 70
     1
 71
     2
 10
0.0
 20
0.0
 11
0.0
 21
0.0
 12
0.0
 22
0.0
 32
0.0
 14
0.0
 24
0.0
 34
0.0
 15
0.0
 25
0.0
 35
0.0
146
0.0
 13
0.0
 23
0.0
 33
0.0
 16
1.0
 26
0.0
 36
0.0
 17
0.0
 27
1.0
 37
0.0
 76
     0
330
23
  0
LAYOUT
  5
22
102
{ACAD_REACTORS
330
1A
102
}
330
1A
100
AcDbPlotSettings
  1

  2
none_device
  4

  6

 40
0.0
 41
0.0
 42
0.0
 43
0.0
 44
0.0
 45
0.0
 46
0.0
 47
0.0
 48
0.0
 49
0.0
140
0.0
141
0.0
142
1.0
143
1.0
 70
  1712
 72
     0
 73
     0
 74
     0
  7

 75
     0
 76
     0
 77
     2
 78
   300
147
1.0
148
0.0
149
0.0
100
AcDbLayout
  1
Model
 70
     1
 71
     0
 10
0.0
 20
0.0
 11
12.0
 21
9.0
 12
0.0
 22
0.0
 32
0.0
 14
1.000000000000000E+20
 24
1.000000000000000E+20
 34
1.000000000000000E+20
 15
-1.000000000000000E+20
 25
-1.000000000000000E+20
 35
-1.000000000000000E+20
146
0.0
 13
0.0
 23
0.0
 33
0.0
 16
1.0
 26
0.0
 36
0.0
 17
0.0
 27
1.0
 37
0.0
 76
     0
330
1F
331
29
  0
MLINESTYLE
  5
18
102
{ACAD_REACTORS
330
17
102
}
330
17
100
AcDbMlineStyle
  2
Standard
 70
     0
  3

 62
   256
 51
90.0
 52
90.0
 71
     2
 49
0.5
 62
   256
  6
BYLAYER
 49
-0.5
 62
   256
  6
BYLAYER
  0
ACDBPLACEHOLDER
  5
F
102
{ACAD_REACTORS
330
E
102
}
330
E
  0
VISUALSTYLE
  5
2F
102
{ACAD_REACTORS
330
2A
102
}
330
2A
100
AcDbVisualStyle
  2
2dWireframe
 70
     4
 71
     0
 72
     2
 73
     0
 90
        0
 40
-0.6
 41
-30.0
 62
     5
 63
     7
421
 16777215
 74
     1
 91
        4
 64
     7
 65
   257
 75
     1
175
     1
 42
1.0
 92
        0
 66
   257
 43
1.0
 76
     1
 77
     6
 78
     2
 67
     7
 79
     5
170
     0
171
     0
290
     0
174
     0
 93
        1
 44
0.0
173
     0
291
     0
 45
0.0
1001
ACAD
1000
AcDbSavedByObjectVersion
1070
     0
  0
VISUALSTYLE
  5
31
102
{ACAD_REACTORS
330
2A
102
}
330
2A
100
AcDbVisualStyle
  2
3D Hidden
 70
     6
 71
     1
 72
     2
 73
     2
 90
        0
 40
-0.6
 41
-30.0
 62
     5
 63
     7
421
 16777215
 74
     2
 91
        2
 64
     7
 65
   257
 75
     2
175
     1
 42
40.0
 92
        0
 66
   257
 43
1.0
 76
     1
 77
     6
 78
     2
 67
     7
 79
     3
170
     0
171
     0
290
     0
174
     0
 93
        1
 44
0.0
173
     0
291
     0
 45
0.0
1001
ACAD
1000
AcDbSavedByObjectVersion
1070
     0
  0
VISUALSTYLE
  5
30
102
{ACAD_REACTORS
330
2A
102
}
330
2A
100
AcDbVisualStyle
  2
3dWireframe
 70
     5
 71
     0
 72
     2
 73
     0
 90
        0
 40
-0.6
 41
-30.0
 62
     5
 63
     7
421
 16777215
 74
     1
 91
        4
 64
     7
 65
   257
 75
     1
175
     1
 42
1.0
 92
        0
 66
   257
 43
1.0
 76
     1
 77
     6
 78
     2
 67
     7
 79
     5
170
     0
171
     0
290
     0
174
     0
 93
        1
 44
0.0
173
     0
291
     0
 45
0.0
1001
ACAD
1000
AcDbSavedByObjectVersion
1070
     0
  0
VISUALSTYLE
  5
32
102
{ACAD_REACTORS
330
2A
102
}
330
2A
100
AcDbVisualStyle
  2
Basic
 70
     7
 71
     1
 72
     0
 73
     1
 90
        0
 40
-0.6
 41
-30.0
 62
     5
 63
     7
421
 16777215
 74
     0
 91
        4
 64
     7
 65
   257
 75
     1
175
     1
 42
1.0
 92
        8
 66
     7
 43
1.0
 76
     1
 77
     6
 78
     2
 67
     7
 79
     5
170
     0
171
     0
290
     0
174
     0
 93
        1
 44
0.0
173
     0
291
     1
 45
0.0
1001
ACAD
1000
AcDbSavedByObjectVersion
1070
     0
  0
VISUALSTYLE
  5
36
102
{ACAD_REACTORS
330
2A
102
}
330
2A
100
AcDbVisualStyle
  2
Brighten
 70
    12
 71
     2
 72
     2
 73
     0
 90
        0
 40
-0.6
 41
-30.0
 62
     5
 63
     7
421
 16777215
 74
     1
 91
        4
 64
     7
 65
   257
 75
     1
175
     1
 42
1.0
 92
        8
 66
     7
 43
1.0
 76
     1
 77
     6
 78
     2
 67
     7
 79
     5
170
     0
171
     0
290
     0
174
     0
 93
        1
 44
50.0
173
     0
291
     1
 45
0.0
1001
ACAD
1000
AcDbSavedByObjectVersion
1070
     0
  0
VISUALSTYLE
  5
3A
102
{ACAD_REACTORS
330
2A
102
}
330
2A
100
AcDbVisualStyle
  2
ColorChange
 70
    16
 71
     2
 72
     2
 73
     3
 90
        0
 40
-0.6
 41
-30.0
 62
     5
 63
     8
421
  8421504
 74
     1
 91
        4
 64
     7
 65
   257
 75
     1
175
     1
 42
1.0
 92
        8
 66
     8
424
  8421504
 43
1.0
 76
     1
 77
     6
 78
     2
 67
     7
 79
     5
170
     0
171
     0
290
     0
174
     0
 93
        1
 44
0.0
173
     0
291
     1
 45
0.0
1001
ACAD
1000
AcDbSavedByObjectVersion
1070
     0
  0
VISUALSTYLE
  5
34
102
{ACAD_REACTORS
330
2A
102
}
330
2A
100
AcDbVisualStyle
  2
Conceptual
 70
     9
 71
     3
 72
     2
 73
     0
 90
        0
 40
-0.6
 41
-30.0
 62
     5
 63
     7
421
 16777215
 74
     2
 91
        2
 64
     7
 65
   257
 75
     1
175
     1
 42
40.0
 92
        8
 66
     7
 43
1.0
 76
     1
 77
     6
 78
     2
 67
     7
 79
     3
170
     0
171
     0
290
     0
174
     0
 93
        1
 44
0.0
173
     0
291
     0
 45
0.0
1001
ACAD
1000
AcDbSavedByObjectVersion
1070
     0
  0
VISUALSTYLE
  5
35
102
{ACAD_REACTORS
330
2A
102
}
330
2A
100
AcDbVisualStyle
  2
Dim
 70
    11
 71
     2
 72
     2
 73
     0
 90
        0
 40
-0.6
 41
-30.0
 62
     5
 63
     7
421
 16777215
 74
     1
 91
        4
 64
     7
 65
   257
 75
     1
175
     1
 42
1.0
 92
        8
 66
     7
 43
1.0
 76
     1
 77
     6
 78
     2
 67
     7
 79
     5
170
     0
171
     0
290
     0
174
     0
 93
        1
 44
-50.0
173
     0
291
     1
 45
0.0
1001
ACAD
1000
AcDbSavedByObjectVersion
1070
     0
  0
VISUALSTYLE
  5
39
102
{ACAD_REACTORS
330
2A
102
}
330
2A
100
AcDbVisualStyle
  2
Facepattern
 70
    15
 71
     2
 72
     2
 73
     0
 90
        0
 40
-0.6
 41
-30.0
 62
     5
 63
     7
421
 16777215
 74
     1
 91
        4
 64
     7
 65
   257
 75
     1
175
     1
 42
1.0
 92
        8
 66
     7
 43
1.0
 76
     1
 77
     6
 78
     2
 67
     7
 79
     5
170
     0
171
     0
290
     0
174
     0
 93
        1
 44
0.0
173
     0
291
     1
 45
0.0
1001
ACAD
1000
AcDbSavedByObjectVersion
1070
     0
  0
VISUALSTYLE
  5
2B
102
{ACAD_REACTORS
330
2A
102
}
330
2A
100
AcDbVisualStyle
  2
Flat
 70
     0
 71
     2
 72
     1
 73
     1
 90
        2
 40
-0.6
 41
30.0
 62
     5
 63
     7
421
 16777215
 74
     0
 91
        4
 64
     7
 65
   257
 75
     1
175
     1
 42
1.0
 92
        8
 66
     7
 43
1.0
 76
     1
 77
     6
 78
     2
 67
     7
 79
     5
170
     0
171
     0
290
     0
174
     0
 93
       13
 44
0.0
173
     0
291
     1
 45
0.0
1001
ACAD
1000
AcDbSavedByObjectVersion
1070
     0
  0
VISUALSTYLE
  5
2C
102
{ACAD_REACTORS
330
2A
102
}
330
2A
100
AcDbVisualStyle
  2
FlatWithEdges
 70
     1
 71
     2
 72
     1
 73
     1
 90
        2
 40
-0.6
 41
30.0
 62
     5
 63
     7
421
 16777215
 74
     1
 91
        4
 64
     7
 65
   257
 75
     1
175
     1
 42
1.0
 92
        0
 66
   257
 43
1.0
 76
     1
 77
     6
 78
     2
 67
     7
 79
     5
170
     0
171
     0
290
     0
174
     0
 93
       13
 44
0.0
173
     0
291
     1
 45
0.0
1001
ACAD
1000
AcDbSavedByObjectVersion
1070
     0
  0
VISUALSTYLE
  5
2D
102
{ACAD_REACTORS
330
2A
102
}
330
2A
100
AcDbVisualStyle
  2
Gouraud
 70
     2
 71
     2
 72
     2
 73
     1
 90
        2
 40
-0.6
 41
30.0
 62
     5
 63
     7
421
 16777215
 74
     0
 91
        4
 64
     7
 65
   257
 75
     1
175
     1
 42
1.0
 92
        0
 66
     7
 43
1.0
 76
     1
 77
     6
 78
     2
 67
     7
 79
     5
170
     0
171
     0
290
     0
174
     0
 93
       13
 44
0.0
173
     0
291
     1
 45
0.0
1001
ACAD
1000
AcDbSavedByObjectVersion
1070
     0
  0
VISUALSTYLE
  5
2E
102
{ACAD_REACTORS
330
2A
102
}
330
2A
100
AcDbVisualStyle
  2
GouraudWithEdges
 70
     3
 71
     2
 72
     2
 73
     1
 90
        2
 40
-0.6
 41
30.0
 62
     5
 63
     7
421
 16777215
 74
     1
 91
        4
 64
     7
 65
   257
 75
     1
175
     1
 42
1.0
 92
        0
 66
   257
 43
1.0
 76
     1
 77
     6
 78
     2
 67
     7
 79
     5
170
     0
171
     0
290
     0
174
     0
 93
       13
 44
0.0
173
     0
291
     1
 45
0.0
1001
ACAD
1000
AcDbSavedByObjectVersion
1070
     0
  0
VISUALSTYLE
  5
38
102
{ACAD_REACTORS
330
2A
102
}
330
2A
100
AcDbVisualStyle
  2
Linepattern
 70
    14
 71
     2
 72
     2
 73
     0
 90
        0
 40
-0.6
 41
-30.0
 62
     5
 63
     7
421
 16777215
 74
     1
 91
        4
 64
     7
 65
   257
 75
     7
175
     7
 42
1.0
 92
        8
 66
     7
 43
1.0
 76
     1
 77
     6
 78
     2
 67
     7
 79
     5
170
     0
171
     0
290
     0
174
     0
 93
        1
 44
0.0
173
     0
291
     1
 45
0.0
1001
ACAD
1000
AcDbSavedByObjectVersion
1070
     0
  0
VISUALSTYLE
  5
33
102
{ACAD_REACTORS
330
2A
102
}
330
2A
100
AcDbVisualStyle
  2
Realistic
 70
     8
 71
     2
 72
     2
 73
     0
 90
        0
 40
-0.6
 41
-30.0
 62
     5
 63
     7
421
 16777215
 74
     1
 91
        0
 64
     7
 65
   257
 75
     1
175
     1
 42
1.0
 92
        8
 66
     8
424
  7895160
 43
1.0
 76
     1
 77
     6
 78
     2
 67
     7
 79
     5
170
     0
171
     0
290
     0
174
     0
 93
       13
 44
0.0
173
     0
291
     0
 45
0.0
1001
ACAD
1000
AcDbSavedByObjectVersion
1070
     0
  0
VISUALSTYLE
  5
37
102
{ACAD_REACTORS
330
2A
102
}
330
2A
100
AcDbVisualStyle
  2
Thicken
 70
    13
 71
     2
 72
     2
 73
     0
 90
        0
 40
-0.6
 41
-30.0
 62
     5
 63
     7
421
 16777215
 74
     1
 91
        4
 64
     7
 65
   257
 75
     1
175
     1
 42
1.0
 92
       12
 66
     7
 43
1.0
 76
     1
 77
     6
 78
     2
 67
     7
 79
     5
170
     0
171
     0
290
     0
174
     0
 93
        1
 44
0.0
173
     0
291
     1
 45
0.0
1001
ACAD
1000
AcDbSavedByObjectVersion
1070
     0
  0
ENDSEC
  0
EOF
