  0
SECTION
  2
HEADER
  9
$ACADVER
  1
AC1018
  9
$ACADMAINTVER
 70
     0
  9
$DWGCODEPAGE
  3
ANSI_1252
  9
$INSBASE
 10
0.0
 20
0.0
 30
0.0
  9
$EXTMIN
 10
1.000000000000000E+20
 20
1.000000000000000E+20
 30
1.000000000000000E+20
  9
$EXTMAX
 10
-1.000000000000000E+20
 20
-1.000000000000000E+20
 30
-1.000000000000000E+20
  9
$LIMMIN
 10
0.0
 20
0.0
  9
$LIMMAX
 10
12.0
 20
9.0
  9
$ORTHOMODE
 70
     0
  9
$REGENMODE
 70
     1
  9
$FILLMODE
 70
     1
  9
$QTEXTMODE
 70
     0
  9
$MIRRTEXT
 70
     1
  9
$LTSCALE
 40
1.0
  9
$ATTMODE
 70
     1
  9
$TEXTSIZE
 40
0.2
  9
$TRACEWID
 40
0.05
  9
$TEXTSTYLE
  7
Standard
  9
$CLAYER
  8
0
  9
$CELTYPE
  6
ByLayer
  9
$CECOLOR
 62
   256
  9
$CELTSCALE
 40
1.0
  9
$DISPSILH
 70
     0
  9
$DIMSCALE
 40
1.0
  9
$DIMASZ
 40
0.18
  9
$DIMEXO
 40
0.0625
  9
$DIMDLI
 40
0.38
  9
$DIMRND
 40
0.0
  9
$DIMDLE
 40
0.0
  9
$DIMEXE
 40
0.18
  9
$DIMTP
 40
0.0
  9
$DIMTM
 40
0.0
  9
$DIMTXT
 40
0.18
  9
$DIMCEN
 40
0.09
  9
$DIMTSZ
 40
0.0
  9
$DIMTOL
 70
     0
  9
$DIMLIM
 70
     0
  9
$DIMTIH
 70
     1
  9
$DIMTOH
 70
     1
  9
$DIMSE1
 70
     0
  9
$DIMSE2
 70
     0
  9
$DIMTAD
 70
     0
  9
$DIMZIN
 70
     0
  9
$DIMBLK
  1

  9
$DIMASO
 70
     1
  9
$DIMSHO
 70
     1
  9
$DIMPOST
  1

  9
$DIMAPOST
  1

  9
$DIMALT
 70
     0
  9
$DIMALTD
 70
     2
  9
$DIMALTF
 40
25.4
  9
$DIMLFAC
 40
1.0
  9
$DIMTOFL
 70
     0
  9
$DIMTVP
 40
0.0
  9
$DIMTIX
 70
     0
  9
$DIMSOXD
 70
     0
  9
$DIMSAH
 70
     0
  9
$DIMBLK1
  1

  9
$DIMBLK2
  1

  9
$DIMSTYLE
  2
Standard
  9
$DIMCLRD
 70
     0
  9
$DIMCLRE
 70
     0
  9
$DIMCLRT
 70
     0
  9
$DIMTFAC
 40
1.0
  9
$DIMGAP
 40
0.09
  9
$DIMJUST
 70
     0
  9
$DIMSD1
 70
     0
  9
$DIMSD2
 70
     0
  9
$DIMTOLJ
 70
     1
  9
$DIMTZIN
 70
     0
  9
$DIMALTZ
 70
     0
  9
$DIMALTTZ
 70
     0
  9
$DIMUPT
 70
     0
  9
$DIMDEC
 70
     4
  9
$DIMTDEC
 70
     4
  9
$DIMALTU
 70
     2
  9
$DIMALTTD
 70
     2
  9
$DIMTXSTY
  7
Standard
  9
$DIMAUNIT
 70
     0
  9
$DIMADEC
 70
     0
  9
$DIMALTRND
 40
0.0
  9
$DIMAZIN
 70
     0
  9
$DIMDSEP
 70
    46
  9
$DIMATFIT
 70
     3
  9
$DIMFRAC
 70
     0
  9
$DIMLDRBLK
  1

  9
$DIMLUNIT
 70
     2
  9
$DIMLWD
 70
    -2
  9
$DIMLWE
 70
    -2
  9
$DIMTMOVE
 70
     0
  9
$LUNITS
 70
     2
  9
$LUPREC
 70
     4
  9
$SKETCHINC
 40
0.1
  9
$FILLETRAD
 40
0.5
  9
$AUNITS
 70
     0
  9
$AUPREC
 70
     0
  9
$MENU
  1
.
  9
$ELEVATION
 40
0.0
  9
$PELEVATION
 40
0.0
  9
$THICKNESS
 40
0.0
  9
$LIMCHECK
 70
     0
  9
$CHAMFERA
 40
0.5
  9
$CHAMFERB
 40
0.5
  9
$CHAMFERC
 40
1.0
  9
$CHAMFERD
 40
0.0
  9
$SKPOLY
 70
     0
  9
$TDCREATE
 40
2455737.026950845
  9
$TDUCREATE
 40
2455737.276950845
  9
$TDUPDATE
 40
2455737.026950857
  9
$TDUUPDATE
 40
2455737.276950857
  9
$TDINDWG
 40
0.0000000116
  9
$TDUSRTIMER
 40
0.0000000116
  9
$USRTIMER
 70
     1
  9
$ANGBASE
 50
0.0
  9
$ANGDIR
 70
     0
  9
$PDMODE
 70
     0
  9
$PDSIZE
 40
0.0
  9
$PLINEWID
 40
0.0
  9
$SPLFRAME
 70
     0
  9
$SPLINETYPE
 70
     6
  9
$SPLINESEGS
 70
     8
  9
$HANDSEED
  5
41
  9
$SURFTAB1
 70
     6
  9
$SURFTAB2
 70
     6
  9
$SURFTYPE
 70
     6
  9
$SURFU
 70
     6
  9
$SURFV
 70
     6
  9
$UCSBASE
  2

  9
$UCSNAME
  2

  9
$UCSORG
 10
0.0
 20
0.0
 30
0.0
  9
$UCSXDIR
 10
1.0
 20
0.0
 30
0.0
  9
$UCSYDIR
 10
0.0
 20
1.0
 30
0.0
  9
$UCSORTHOREF
  2

  9
$UCSORTHOVIEW
 70
     0
  9
$UCSORGTOP
 10
0.0
 20
0.0
 30
0.0
  9
$UCSORGBOTTOM
 10
0.0
 20
0.0
 30
0.0
  9
$UCSORGLEFT
 10
0.0
 20
0.0
 30
0.0
  9
$UCSORGRIGHT
 10
0.0
 20
0.0
 30
0.0
  9
$UCSORGFRONT
 10
0.0
 20
0.0
 30
0.0
  9
$UCSORGBACK
 10
0.0
 20
0.0
 30
0.0
  9
$PUCSBASE
  2

  9
$PUCSNAME
  2

  9
$PUCSORG
 10
0.0
 20
0.0
 30
0.0
  9
$PUCSXDIR
 10
1.0
 20
0.0
 30
0.0
  9
$PUCSYDIR
 10
0.0
 20
1.0
 30
0.0
  9
$PUCSORTHOREF
  2

  9
$PUCSORTHOVIEW
 70
     0
  9
$PUCSORGTOP
 10
0.0
 20
0.0
 30
0.0
  9
$PUCSORGBOTTOM
 10
0.0
 20
0.0
 30
0.0
  9
$PUCSORGLEFT
 10
0.0
 20
0.0
 30
0.0
  9
$PUCSORGRIGHT
 10
0.0
 20
0.0
 30
0.0
  9
$PUCSORGFRONT
 10
0.0
 20
0.0
 30
0.0
  9
$PUCSORGBACK
 10
0.0
 20
0.0
 30
0.0
  9
$USERI1
 70
     0
  9
$USERI2
 70
     0
  9
$USERI3
 70
     0
  9
$USERI4
 70
     0
  9
$USERI5
 70
     0
  9
$USERR1
 40
0.0
  9
$USERR2
 40
0.0
  9
$USERR3
 40
0.0
  9
$USERR4
 40
0.0
  9
$USERR5
 40
0.0
  9
$WORLDVIEW
 70
     1
  9
$SHADEDGE
 70
     3
  9
$SHADEDIF
 70
    70
  9
$TILEMODE
 70
     1
  9
$MAXACTVP
 70
    64
  9
$PINSBASE
 10
0.0
 20
0.0
 30
0.0
  9
$PLIMCHECK
 70
     0
  9
$PEXTMIN
 10
1.000000000000000E+20
 20
1.000000000000000E+20
 30
1.000000000000000E+20
  9
$PEXTMAX
 10
-1.000000000000000E+20
 20
-1.000000000000000E+20
 30
-1.000000000000000E+20
  9
$PLIMMIN
 10
0.0
 20
0.0
  9
$PLIMMAX
 10
12.0
 20
9.0
  9
$UNITMODE
 70
     0
  9
$VISRETAIN
 70
     1
  9
$PLINEGEN
 70
     0
  9
$PSLTSCALE
 70
     1
  9
$TREEDEPTH
 70
  3020
  9
$CMLSTYLE
  2
Standard
  9
$CMLJUST
 70
     0
  9
$CMLSCALE
 40
1.0
  9
$PROXYGRAPHICS
 70
     1
  9
$MEASUREMENT
 70
     0
  9
$CELWEIGHT
370
    -1
  9
$ENDCAPS
280
     0
  9
$JOINSTYLE
280
     0
  9
$LWDISPLAY
290
     1
  9
$INSUNITS
 70
     1
  9
$HYPERLINKBASE
  1

  9
$STYLESHEET
  1

  9
$XEDIT
290
     1
  9
$CEPSNTYPE
380
     0
  9
$PSTYLEMODE
290
     1
  9
$FINGERPRINTGUID
  2
{922C9506-FBE1-443F-9238-B589C14BC0B2}
  9
$VERSIONGUID
  2
{FAEB1C32-E019-11D5-929B-00C0DF256EC4}
  9
$EXTNAMES
290
     1
  9
$PSVPSCALE
 40
0.0
  9
$OLESTARTUP
290
     0
  9
$SORTENTS
280
   127
  9
$INDEXCTL
280
     0
  9
$HIDETEXT
280
     1
  9
$XCLIPFRAME
290
     0
  9
$HALOGAP
280
     0
  9
$OBSCOLOR
 70
   257
  9
$OBSLTYPE
280
     0
  9
$INTERSECTIONDISPLAY
280
     0
  9
$INTERSECTIONCOLOR
 70
   257
  9
$DIMASSOC
280
     2
  9
$PROJECTNAME
  1

  0
ENDSEC
  0
SECTION
  2
CLASSES
  0
CLASS
  1
ACDBDICTIONARYWDFLT
  2
AcDbDictionaryWithDefault
  3
ObjectDBX Classes
 90
        0
 91
        3
280
     0
281
     0
  0
CLASS
  1
VISUALSTYLE
  2
AcDbVisualStyle
  3
ObjectDBX Classes
 90
     4095
 91
        3
280
     0
281
     0
  0
ENDSEC
  0
SECTION
  2
TABLES
  0
TABLE
  2
VPORT
  5
8
330
0
100
AcDbSymbolTable
 70
     1
  0
VPORT
  5
29
330
8
100
AcDbSymbolTableRecord
100
AcDbViewportTableRecord
  2
*Active
 70
     0
 10
0.0
 20
0.0
 11
1.0
 21
1.0
 12
0.0
 22
0.0
 13
0.0
 23
0.0
 14
0.5
 24
0.5
 15
0.5
 25
0.5
 16
0.0
 26
0.0
 36
1.0
 17
37.06629909012579
 27
50.79741616568607
 37
0.0
 40
101.5948323313721
 41
0.729688670959691
 42
50.0
 43
0.0
 44
0.0
 50
0.0
 51
0.0
 71
     0
 72
   100
 73
     1
 74
     3
 75
     0
 76
     0
 77
     0
 78
     0
281
     0
 65
     1
110
0.0
120
0.0
130
0.0
111
1.0
121
0.0
131
0.0
112
0.0
122
1.0
132
0.0
 79
     0
146
0.0
  0
ENDTAB
  0
TABLE
  2
LTYPE
  5
5
330
0
100
AcDbSymbolTable
 70
     1
  0
LTYPE
  5
14
330
5
100
AcDbSymbolTableRecord
100
AcDbLinetypeTableRecord
  2
ByBlock
 70
     0
  3

 72
    65
 73
     0
 40
0.0
  0
LTYPE
  5
15
330
5
100
AcDbSymbolTableRecord
100
AcDbLinetypeTableRecord
  2
ByLayer
 70
     0
  3

 72
    65
 73
     0
 40
0.0
  0
LTYPE
  5
16
330
5
100
AcDbSymbolTableRecord
100
AcDbLinetypeTableRecord
  2
Continuous
 70
     0
  3
Solid line
 72
    65
 73
     0
 40
0.0
  0
ENDTAB
  0
TABLE
  2
LAYER
  5
2
330
0
100
AcDbSymbolTable
 70
     2
  0
LAYER
  5
10
330
2
100
AcDbSymbolTableRecord
100
AcDbLayerTableRecord
  2
0
 70
     0
 62
     7
  6
Continuous
370
    -3
390
F
  0
LAYER
  5
3B
330
2
100
AcDbSymbolTableRecord
100
AcDbLayerTableRecord
  2
Layer 1
 70
     0
 62
     7
  6
Continuous
370
    -3
390
F
  0
ENDTAB
  0
TABLE
  2
STYLE
  5
3
330
0
100
AcDbSymbolTable
 70
     1
  0
STYLE
  5
11
330
3
100
AcDbSymbolTableRecord
100
AcDbTextStyleTableRecord
  2
Standard
 70
     0
 40
0.0
 41
1.0
 50
0.0
 71
     0
 42
0.2
  3
txt
  4

  0
ENDTAB
  0
TABLE
  2
VIEW
  5
6
330
0
100
AcDbSymbolTable
 70
     0
  0
ENDTAB
  0
TABLE
  2
UCS
  5
7
330
0
100
AcDbSymbolTable
 70
     0
  0
ENDTAB
  0
TABLE
  2
APPID
  5
9
330
0
100
AcDbSymbolTable
 70
     1
  0
APPID
  5
12
330
9
100
AcDbSymbolTableRecord
100
AcDbRegAppTableRecord
  2
ACAD
 70
     0
  0
ENDTAB
  0
TABLE
  2
DIMSTYLE
  5
A
330
0
100
AcDbSymbolTable
 70
     1
100
AcDbDimStyleTable
  0
DIMSTYLE
105
27
330
A
100
AcDbSymbolTableRecord
100
AcDbDimStyleTableRecord
  2
Standard
 70
     0
340
11
  0
ENDTAB
  0
TABLE
  2
BLOCK_RECORD
  5
1
330
0
100
AcDbSymbolTable
 70
     1
  0
BLOCK_RECORD
  5
1F
330
1
100
AcDbSymbolTableRecord
100
AcDbBlockTableRecord
  2
*Model_Space
340
22
  0
BLOCK_RECORD
  5
1B
330
1
100
AcDbSymbolTableRecord
100
AcDbBlockTableRecord
  2
*Paper_Space
340
1E
  0
BLOCK_RECORD
  5
23
330
1
100
AcDbSymbolTableRecord
100
AcDbBlockTableRecord
  2
*Paper_Space0
340
26
  0
ENDTAB
  0
ENDSEC
  0
SECTION
  2
BLOCKS
  0
BLOCK
  5
20
330
1F
100
AcDbEntity
  8
0
100
AcDbBlockBegin
  2
*Model_Space
 70
     0
 71
     0
 10
0.0
 20
0.0
 30
0.0
  3
*Model_Space
  1

  0
ENDBLK
  5
21
330
1F
100
AcDbEntity
  8
0
100
AcDbBlockEnd
  0
BLOCK
  5
1C
330
1B
100
AcDbEntity
 67
     1
  8
0
100
AcDbBlockBegin
  2
*Paper_Space
 70
     0
 71
     0
 10
0.0
 20
0.0
 30
0.0
  3
*Paper_Space
  1

  0
ENDBLK
  5
1D
330
1B
100
AcDbEntity
 67
     1
  8
0
100
AcDbBlockEnd
  0
BLOCK
  5
24
330
23
100
AcDbEntity
  8
0
100
AcDbBlockBegin
  2
*Paper_Space0
 70
     0
 71
     0
 10
0.0
 20
0.0
 30
0.0
  3
*Paper_Space0
  1

  0
ENDBLK
  5
25
330
23
100
AcDbEntity
  8
0
100
AcDbBlockEnd
  0
ENDSEC
  0
SECTION
  2
ENTITIES
  0
SPLINE
  5
3C
330
1F
100
AcDbEntity
  8
Layer 1
370
     0
100
AcDbSpline
210
0.0
220
0.0
230
1.0
 70
    11
 71
     3
 72
    65
 73
    61
 74
     0
 42
0.0000000001
 43
0.0000000001
 40
0.0
 40
0.0
 40
0.0
 40
0.0
 40
1.0
 40
1.0
 40
1.0
 40
2.0
 40
2.0
 40
2.0
 40
3.0
 40
3.0
 40
3.0
 40
4.0
 40
4.0
 40
4.0
 40
5.0
 40
5.0
 40
5.0
 40
6.0
 40
6.0
 40
6.0
 40
7.0
 40
7.0
 40
7.0
 40
8.0
 40
8.0
 40
8.0
 40
9.0
 40
9.0
 40
9.0
 40
10.0
 40
10.0
 40
10.0
 40
11.0
 40
11.0
 40
11.0
 40
12.0
 40
12.0
 40
12.0
 40
13.0
 40
13.0
 40
13.0
 40
14.0
 40
14.0
 40
14.0
 40
15.0
 40
15.0
 40
15.0
 40
16.0
 40
16.0
 40
16.0
 40
17.0
 40
17.0
 40
17.0
 40
18.0
 40
18.0
 40
18.0
 40
19.0
 40
19.0
 40
19.0
 40
20.0
 40
20.0
 40
20.0
 40
20.0
 10
71.80853676590203
 20
26.72119411224331
 30
0.0
 10
71.80853676590203
 20
26.72119411224331
 30
0.0
 10
71.8536675167588
 20
26.69501138655541
 30
0.0
 10
71.8536675167588
 20
26.69501138655541
 30
0.0
 10
73.2241265007912
 20
30.79260795671157
 30
0.0
 10
73.9772243738668
 20
35.09070908410927
 30
0.0
 10
74.11020505959745
 20
39.40844725577289
 30
0.0
 10
74.1977104849228
 20
42.23411457277481
 30
0.0
 10
74.02338865336915
 20
45.06736109984427
 30
0.0
 10
73.70196124459535
 20
47.87442490122584
 30
0.0
 10
73.03154566316573
 20
53.72970918795647
 30
0.0
 10
71.71104056366947
 20
59.51402450769094
 30
0.0
 10
69.9409505033481
 20
65.13159720593933
 30
0.0
 10
68.10195853332173
 20
70.96758895795256
 30
0.0
 10
65.75757105560922
 20
76.66991100513808
 30
0.0
 10
62.78824325687238
 20
82.02496742741043
 30
0.0
 10
60.11450465076999
 20
86.84775659721167
 30
0.0
 10
56.90436467761419
 20
91.49277883997404
 30
0.0
 10
52.82916122811216
 20
95.24276527566848
 30
0.0
 10
49.43505315604402
 20
98.36539982349893
 30
0.0
 10
45.29542642096781
 20
100.8937554001238
 30
0.0
 10
40.64730359226873
 20
101.4728759511943
 30
0.0
 10
36.04224445713528
 20
102.0468288590369
 30
0.0
 10
31.52985839055504
 20
100.5430446797254
 30
0.0
 10
27.67703585462588
 20
98.08324650325697
 30
0.0
 10
23.10263806931115
 20
95.16283906041069
 30
0.0
 10
19.343005366258
 20
91.0580077897355
 30
0.0
 10
16.15388047556223
 20
86.70788572051053
 30
0.0
 10
12.5089694521679
 20
81.73523489710092
 30
0.0
 10
9.528617347878264
 20
76.27820364846518
 30
0.0
 10
7.073297795540704
 20
70.62996960039807
 30
0.0
 10
4.628141274884632
 20
65.00481769208213
 30
0.0
 10
2.683384873461098
 20
59.13885360934724
 30
0.0
 10
1.409216308241446
 20
53.13646374539644
 30
0.0
 10
0.2189358180876272
 20
47.52957084315234
 30
0.0
 10
-0.3658691405335328
 20
41.78142902601298
 30
0.0
 10
0.2451185437755259
 20
36.06291503004677
 30
0.0
 10
0.9379272458592682
 20
29.5795898363551
 30
0.0
 10
3.059761555224643
 20
23.25267197769378
 30
0.0
 10
6.519670951061054
 20
17.71950411883401
 30
0.0
 10
9.77804226101035
 20
12.50879719739364
 30
0.0
 10
14.21618651988345
 20
8.023627385146872
 30
0.0
 10
19.50785318522721
 20
4.877566188016719
 30
0.0
 10
24.77488741785142
 20
1.746318901473143
 30
0.0
 10
30.82171901356193
 20
0.0244601779452738
 30
0.0
 10
36.95450574162943
 20
0.000344509548525
 30
0.0
 10
43.61456433371442
 20
-0.0254937065908488
 30
0.0
 10
50.17092555169338
 20
1.952680121039608
 30
0.0
 10
55.76300454335092
 20
5.556249998610938
 30
0.0
 10
61.4081380054813
 20
9.193581811937715
 30
0.0
 10
65.98356931944161
 20
14.37018228807412
 30
0.0
 10
69.11619464417929
 20
20.29436848450974
 30
0.0
 10
69.65052895394153
 20
21.30481499033352
 30
0.0
 10
70.14386662742932
 20
22.33731010726289
 30
0.0
 10
70.59448511689999
 20
23.3880642302641
 30
0.0
 10
70.59448511689999
 20
23.3880642302641
 30
0.0
 10
70.36814234351908
 20
23.00014647862496
 30
0.0
 10
70.36814234351908
 20
23.00014647862496
 30
0.0
 10
70.90178763418427
 20
24.20834146530208
 30
0.0
 10
71.3834119830222
 20
25.4496093686376
 30
0.0
 10
71.80853676590203
 20
26.72119411224331
 30
0.0
  0
SPLINE
  5
3D
330
1F
100
AcDbEntity
  8
Layer 1
370
     0
100
AcDbSpline
210
0.0
220
0.0
230
1.0
 70
    11
 71
     3
 72
    53
 73
    49
 74
     0
 42
0.0000000001
 43
0.0000000001
 40
0.0
 40
0.0
 40
0.0
 40
0.0
 40
1.0
 40
1.0
 40
1.0
 40
2.0
 40
2.0
 40
2.0
 40
3.0
 40
3.0
 40
3.0
 40
4.0
 40
4.0
 40
4.0
 40
5.0
 40
5.0
 40
5.0
 40
6.0
 40
6.0
 40
6.0
 40
7.0
 40
7.0
 40
7.0
 40
8.0
 40
8.0
 40
8.0
 40
9.0
 40
9.0
 40
9.0
 40
10.0
 40
10.0
 40
10.0
 40
11.0
 40
11.0
 40
11.0
 40
12.0
 40
12.0
 40
12.0
 40
13.0
 40
13.0
 40
13.0
 40
14.0
 40
14.0
 40
14.0
 40
15.0
 40
15.0
 40
15.0
 40
16.0
 40
16.0
 40
16.0
 40
16.0
 10
14.15038519611518
 20
64.29064939798984
 30
0.0
 10
14.15038519611518
 20
64.29064939798984
 30
0.0
 10
18.2605563647925
 20
61.8990641121294
 30
0.0
 10
18.2605563647925
 20
61.8990641121294
 30
0.0
 10
18.2605563647925
 20
61.8990641121294
 30
0.0
 10
20.98717718659348
 20
63.51756997109977
 30
0.0
 10
20.98717718659348
 20
63.51756997109977
 30
0.0
 10
20.98717718659348
 20
63.51756997109977
 30
0.0
 10
31.39704995959865
 20
69.6970377429924
 30
0.0
 10
31.39704995959865
 20
69.6970377429924
 30
0.0
 10
31.39704995959865
 20
69.6970377429924
 30
0.0
 10
44.60020615204439
 20
62.01378579178822
 30
0.0
 10
44.60020615204439
 20
62.01378579178822
 30
0.0
 10
44.60020615204439
 20
62.01378579178822
 30
0.0
 10
57.73842229459318
 20
69.81244844174827
 30
0.0
 10
57.73842229459318
 20
69.81244844174827
 30
0.0
 10
57.73842229459318
 20
69.81244844174827
 30
0.0
 10
64.21175671137762
 20
66.04489201907906
 30
0.0
 10
64.21175671137762
 20
66.04489201907906
 30
0.0
 10
65.37619898539207
 20
62.67524412495619
 30
0.0
 10
66.35598414139712
 20
59.23428275428866
 30
0.0
 10
67.11838377228291
 20
55.84637585409396
 30
0.0
 10
67.11838377228291
 20
55.84637585409396
 30
0.0
 10
61.88528373018841
 20
58.89080673440925
 30
0.0
 10
61.88528373018841
 20
58.89080673440925
 30
0.0
 10
61.88528373018841
 20
58.89080673440925
 30
0.0
 10
57.77528481628535
 20
61.28239202026968
 30
0.0
 10
57.77528481628535
 20
61.28239202026968
 30
0.0
 10
57.77528481628535
 20
61.28239202026968
 30
0.0
 10
55.04918075880715
 20
59.66423067084784
 30
0.0
 10
55.04918075880715
 20
59.66423067084784
 30
0.0
 10
55.04918075880715
 20
59.66423067084784
 30
0.0
 10
44.63741318328509
 20
53.48441838940668
 30
0.0
 10
44.63741318328509
 20
53.48441838940668
 30
0.0
 10
44.63741318328509
 20
53.48441838940668
 30
0.0
 10
31.43391248129083
 20
61.16767034061086
 30
0.0
 10
31.43391248129083
 20
61.16767034061086
 30
0.0
 10
31.43391248129083
 20
61.16767034061086
 30
0.0
 10
18.2977633960332
 20
53.36935220019933
 30
0.0
 10
18.2977633960332
 20
53.36935220019933
 30
0.0
 10
18.2977633960332
 20
53.36935220019933
 30
0.0
 10
8.307503253131458
 20
59.18295083155843
 30
0.0
 10
8.307503253131458
 20
59.18295083155843
 30
0.0
 10
9.034590655293437
 20
61.52906085701357
 30
0.0
 10
9.875710718017183
 20
63.89205185034643
 30
0.0
 10
10.81794433323302
 20
66.23092717528255
 30
0.0
 10
10.81794433323302
 20
66.23092717528255
 30
0.0
 10
14.15038519611518
 20
64.29064939798984
 30
0.0
 10
14.15038519611518
 20
64.29064939798984
 30
0.0
  0
SPLINE
  5
3E
330
1F
100
AcDbEntity
  8
Layer 1
370
     0
100
AcDbSpline
210
0.0
220
0.0
230
1.0
 70
    11
 71
     3
 72
    41
 73
    37
 74
     0
 42
0.0000000001
 43
0.0000000001
 40
0.0
 40
0.0
 40
0.0
 40
0.0
 40
1.0
 40
1.0
 40
1.0
 40
2.0
 40
2.0
 40
2.0
 40
3.0
 40
3.0
 40
3.0
 40
4.0
 40
4.0
 40
4.0
 40
5.0
 40
5.0
 40
5.0
 40
6.0
 40
6.0
 40
6.0
 40
7.0
 40
7.0
 40
7.0
 40
8.0
 40
8.0
 40
8.0
 40
9.0
 40
9.0
 40
9.0
 40
10.0
 40
10.0
 40
10.0
 40
11.0
 40
11.0
 40
11.0
 40
12.0
 40
12.0
 40
12.0
 40
12.0
 10
56.40310328451034
 20
26.81558972853916
 30
0.0
 10
56.40310328451034
 20
26.81558972853916
 30
0.0
 10
42.34952527153067
 20
18.54219292071167
 30
0.0
 10
42.34952527153067
 20
18.54219292071167
 30
0.0
 10
42.34952527153067
 20
18.54219292071167
 30
0.0
 10
28.22601182020044
 20
26.69294432926426
 30
0.0
 10
28.22601182020044
 20
26.69294432926426
 30
0.0
 10
28.22601182020044
 20
26.69294432926426
 30
0.0
 10
14.17329508109209
 20
18.41954752143678
 30
0.0
 10
14.17329508109209
 20
18.41954752143678
 30
0.0
 10
14.17329508109209
 20
18.41954752143678
 30
0.0
 10
11.04859347597049
 20
20.22271049841655
 30
0.0
 10
11.04859347597049
 20
20.22271049841655
 30
0.0
 10
8.803597003007434
 20
23.7508327848609
 30
0.0
 10
7.117395017751901
 20
27.75265570052711
 30
0.0
 10
6.133131237616023
 20
32.06625975760844
 30
0.0
 10
6.133131237616023
 20
32.06625975760844
 30
0.0
 10
14.13453775688303
 20
27.44948729782513
 30
0.0
 10
14.13453775688303
 20
27.44948729782513
 30
0.0
 10
14.13453775688303
 20
27.44948729782513
 30
0.0
 10
28.18656547689433
 20
35.72219508655557
 30
0.0
 10
28.18656547689433
 20
35.72219508655557
 30
0.0
 10
28.18656547689433
 20
35.72219508655557
 30
0.0
 10
42.31025118299883
 20
27.57213269710002
 30
0.0
 10
42.31025118299883
 20
27.57213269710002
 30
0.0
 10
42.31025118299883
 20
27.57213269710002
 30
0.0
 10
56.36382919597849
 20
35.84552950492751
 30
0.0
 10
56.36382919597849
 20
35.84552950492751
 30
0.0
 10
56.36382919597849
 20
35.84552950492751
 30
0.0
 10
67.33508027830513
 20
29.51482204123241
 30
0.0
 10
67.33508027830513
 20
29.51482204123241
 30
0.0
 10
66.56785751373998
 20
26.9540825670462
 30
0.0
 10
65.5463867023634
 20
24.52218966400834
 30
0.0
 10
64.30649683722199
 20
22.25531683471395
 30
0.0
 10
64.30649683722199
 20
22.25531683471395
 30
0.0
 10
56.40310328451034
 20
26.81558972853916
 30
0.0
 10
56.40310328451034
 20
26.81558972853916
 30
0.0
  0
HATCH
  5
3F
330
1F
100
AcDbEntity
  8
Layer 1
 62
   231
420
 16750534
100
AcDbHatch
 10
0.0
 20
0.0
 30
0.0
210
0.0
220
0.0
230
1.0
  2
SOLID
 70
     1
 71
     0
 91
        3
 92
        1
 93
        1
 72
     4
 94
        3
 73
     0
 74
     1
 95
       65
 96
       61
 40
0.0
 40
0.0
 40
0.0
 40
0.0
 40
1.0
 40
1.0
 40
1.0
 40
2.0
 40
2.0
 40
2.0
 40
3.0
 40
3.0
 40
3.0
 40
4.0
 40
4.0
 40
4.0
 40
5.0
 40
5.0
 40
5.0
 40
6.0
 40
6.0
 40
6.0
 40
7.0
 40
7.0
 40
7.0
 40
8.0
 40
8.0
 40
8.0
 40
9.0
 40
9.0
 40
9.0
 40
10.0
 40
10.0
 40
10.0
 40
11.0
 40
11.0
 40
11.0
 40
12.0
 40
12.0
 40
12.0
 40
13.0
 40
13.0
 40
13.0
 40
14.0
 40
14.0
 40
14.0
 40
15.0
 40
15.0
 40
15.0
 40
16.0
 40
16.0
 40
16.0
 40
17.0
 40
17.0
 40
17.0
 40
18.0
 40
18.0
 40
18.0
 40
19.0
 40
19.0
 40
19.0
 40
20.0
 40
20.0
 40
20.0
 40
20.0
 10
71.80853676590203
 20
26.72119411224331
 10
71.80853676590203
 20
26.72119411224331
 10
71.8536675167588
 20
26.69501138655541
 10
71.8536675167588
 20
26.69501138655541
 10
73.2241265007912
 20
30.79260795671157
 10
73.9772243738668
 20
35.09070908410927
 10
74.11020505959745
 20
39.40844725577289
 10
74.1977104849228
 20
42.23411457277481
 10
74.02338865336915
 20
45.06736109984427
 10
73.70196124459535
 20
47.87442490122584
 10
73.03154566316573
 20
53.72970918795647
 10
71.71104056366947
 20
59.51402450769094
 10
69.9409505033481
 20
65.13159720593933
 10
68.10195853332173
 20
70.96758895795256
 10
65.75757105560922
 20
76.66991100513808
 10
62.78824325687238
 20
82.02496742741043
 10
60.11450465076999
 20
86.84775659721167
 10
56.90436467761419
 20
91.49277883997404
 10
52.82916122811216
 20
95.24276527566848
 10
49.43505315604402
 20
98.36539982349893
 10
45.29542642096781
 20
100.8937554001238
 10
40.64730359226873
 20
101.4728759511943
 10
36.04224445713528
 20
102.0468288590369
 10
31.52985839055504
 20
100.5430446797254
 10
27.67703585462588
 20
98.08324650325697
 10
23.10263806931115
 20
95.16283906041069
 10
19.343005366258
 20
91.0580077897355
 10
16.15388047556223
 20
86.70788572051053
 10
12.5089694521679
 20
81.73523489710092
 10
9.528617347878264
 20
76.27820364846518
 10
7.073297795540704
 20
70.62996960039807
 10
4.628141274884632
 20
65.00481769208213
 10
2.683384873461098
 20
59.13885360934724
 10
1.409216308241446
 20
53.13646374539644
 10
0.2189358180876272
 20
47.52957084315234
 10
-0.3658691405335328
 20
41.78142902601298
 10
0.2451185437755259
 20
36.06291503004677
 10
0.9379272458592682
 20
29.5795898363551
 10
3.059761555224643
 20
23.25267197769378
 10
6.519670951061054
 20
17.71950411883401
 10
9.77804226101035
 20
12.50879719739364
 10
14.21618651988345
 20
8.023627385146872
 10
19.50785318522721
 20
4.877566188016719
 10
24.77488741785142
 20
1.746318901473143
 10
30.82171901356193
 20
0.0244601779452738
 10
36.95450574162943
 20
0.000344509548525
 10
43.61456433371442
 20
-0.0254937065908488
 10
50.17092555169338
 20
1.952680121039608
 10
55.76300454335092
 20
5.556249998610938
 10
61.4081380054813
 20
9.193581811937715
 10
65.98356931944161
 20
14.37018228807412
 10
69.11619464417929
 20
20.29436848450974
 10
69.65052895394153
 20
21.30481499033352
 10
70.14386662742932
 20
22.33731010726289
 10
70.59448511689999
 20
23.3880642302641
 10
70.59448511689999
 20
23.3880642302641
 10
70.36814234351908
 20
23.00014647862496
 10
70.36814234351908
 20
23.00014647862496
 10
70.90178763418427
 20
24.20834146530208
 10
71.3834119830222
 20
25.4496093686376
 10
71.80853676590203
 20
26.72119411224331
 97
        0
 92
        1
 93
        1
 72
     4
 94
        3
 73
     0
 74
     1
 95
       53
 96
       49
 40
0.0
 40
0.0
 40
0.0
 40
0.0
 40
1.0
 40
1.0
 40
1.0
 40
2.0
 40
2.0
 40
2.0
 40
3.0
 40
3.0
 40
3.0
 40
4.0
 40
4.0
 40
4.0
 40
5.0
 40
5.0
 40
5.0
 40
6.0
 40
6.0
 40
6.0
 40
7.0
 40
7.0
 40
7.0
 40
8.0
 40
8.0
 40
8.0
 40
9.0
 40
9.0
 40
9.0
 40
10.0
 40
10.0
 40
10.0
 40
11.0
 40
11.0
 40
11.0
 40
12.0
 40
12.0
 40
12.0
 40
13.0
 40
13.0
 40
13.0
 40
14.0
 40
14.0
 40
14.0
 40
15.0
 40
15.0
 40
15.0
 40
16.0
 40
16.0
 40
16.0
 40
16.0
 10
14.15038519611518
 20
64.29064939798984
 10
14.15038519611518
 20
64.29064939798984
 10
18.2605563647925
 20
61.8990641121294
 10
18.2605563647925
 20
61.8990641121294
 10
18.2605563647925
 20
61.8990641121294
 10
20.98717718659348
 20
63.51756997109977
 10
20.98717718659348
 20
63.51756997109977
 10
20.98717718659348
 20
63.51756997109977
 10
31.39704995959865
 20
69.6970377429924
 10
31.39704995959865
 20
69.6970377429924
 10
31.39704995959865
 20
69.6970377429924
 10
44.60020615204439
 20
62.01378579178822
 10
44.60020615204439
 20
62.01378579178822
 10
44.60020615204439
 20
62.01378579178822
 10
57.73842229459318
 20
69.81244844174827
 10
57.73842229459318
 20
69.81244844174827
 10
57.73842229459318
 20
69.81244844174827
 10
64.21175671137762
 20
66.04489201907906
 10
64.21175671137762
 20
66.04489201907906
 10
65.37619898539207
 20
62.67524412495619
 10
66.35598414139712
 20
59.23428275428866
 10
67.11838377228291
 20
55.84637585409396
 10
67.11838377228291
 20
55.84637585409396
 10
61.88528373018841
 20
58.89080673440925
 10
61.88528373018841
 20
58.89080673440925
 10
61.88528373018841
 20
58.89080673440925
 10
57.77528481628535
 20
61.28239202026968
 10
57.77528481628535
 20
61.28239202026968
 10
57.77528481628535
 20
61.28239202026968
 10
55.04918075880715
 20
59.66423067084784
 10
55.04918075880715
 20
59.66423067084784
 10
55.04918075880715
 20
59.66423067084784
 10
44.63741318328509
 20
53.48441838940668
 10
44.63741318328509
 20
53.48441838940668
 10
44.63741318328509
 20
53.48441838940668
 10
31.43391248129083
 20
61.16767034061086
 10
31.43391248129083
 20
61.16767034061086
 10
31.43391248129083
 20
61.16767034061086
 10
18.2977633960332
 20
53.36935220019933
 10
18.2977633960332
 20
53.36935220019933
 10
18.2977633960332
 20
53.36935220019933
 10
8.307503253131458
 20
59.18295083155843
 10
8.307503253131458
 20
59.18295083155843
 10
9.034590655293437
 20
61.52906085701357
 10
9.875710718017183
 20
63.89205185034643
 10
10.81794433323302
 20
66.23092717528255
 10
10.81794433323302
 20
66.23092717528255
 10
14.15038519611518
 20
64.29064939798984
 10
14.15038519611518
 20
64.29064939798984
 97
        0
 92
        1
 93
        1
 72
     4
 94
        3
 73
     0
 74
     1
 95
       41
 96
       37
 40
0.0
 40
0.0
 40
0.0
 40
0.0
 40
1.0
 40
1.0
 40
1.0
 40
2.0
 40
2.0
 40
2.0
 40
3.0
 40
3.0
 40
3.0
 40
4.0
 40
4.0
 40
4.0
 40
5.0
 40
5.0
 40
5.0
 40
6.0
 40
6.0
 40
6.0
 40
7.0
 40
7.0
 40
7.0
 40
8.0
 40
8.0
 40
8.0
 40
9.0
 40
9.0
 40
9.0
 40
10.0
 40
10.0
 40
10.0
 40
11.0
 40
11.0
 40
11.0
 40
12.0
 40
12.0
 40
12.0
 40
12.0
 10
56.40310328451034
 20
26.81558972853916
 10
56.40310328451034
 20
26.81558972853916
 10
42.34952527153067
 20
18.54219292071167
 10
42.34952527153067
 20
18.54219292071167
 10
42.34952527153067
 20
18.54219292071167
 10
28.22601182020044
 20
26.69294432926426
 10
28.22601182020044
 20
26.69294432926426
 10
28.22601182020044
 20
26.69294432926426
 10
14.17329508109209
 20
18.41954752143678
 10
14.17329508109209
 20
18.41954752143678
 10
14.17329508109209
 20
18.41954752143678
 10
11.04859347597049
 20
20.22271049841655
 10
11.04859347597049
 20
20.22271049841655
 10
8.803597003007434
 20
23.7508327848609
 10
7.117395017751901
 20
27.75265570052711
 10
6.133131237616023
 20
32.06625975760844
 10
6.133131237616023
 20
32.06625975760844
 10
14.13453775688303
 20
27.44948729782513
 10
14.13453775688303
 20
27.44948729782513
 10
14.13453775688303
 20
27.44948729782513
 10
28.18656547689433
 20
35.72219508655557
 10
28.18656547689433
 20
35.72219508655557
 10
28.18656547689433
 20
35.72219508655557
 10
42.31025118299883
 20
27.57213269710002
 10
42.31025118299883
 20
27.57213269710002
 10
42.31025118299883
 20
27.57213269710002
 10
56.36382919597849
 20
35.84552950492751
 10
56.36382919597849
 20
35.84552950492751
 10
56.36382919597849
 20
35.84552950492751
 10
67.33508027830513
 20
29.51482204123241
 10
67.33508027830513
 20
29.51482204123241
 10
66.56785751373998
 20
26.9540825670462
 10
65.5463867023634
 20
24.52218966400834
 10
64.30649683722199
 20
22.25531683471395
 10
64.30649683722199
 20
22.25531683471395
 10
56.40310328451034
 20
26.81558972853916
 10
56.40310328451034
 20
26.81558972853916
 97
        0
 75
     2
 76
     1
 98
        0
  0
ENDSEC
  0
SECTION
  2
OBJECTS
  0
DICTIONARY
  5
C
330
0
100
AcDbDictionary
281
     1
  3
ACAD_GROUP
350
D
  3
ACAD_LAYOUT
350
1A
  3
ACAD_MLINESTYLE
350
17
  3
ACAD_PLOTSETTINGS
350
19
  3
ACAD_PLOTSTYLENAME
350
E
  3
ACAD_TABLESTYLE
350
40
  3
ACAD_VISUALSTYLE
350
2A
  0
DICTIONARY
  5
D
102
{ACAD_REACTORS
330
C
102
}
330
C
100
AcDbDictionary
281
     1
  0
DICTIONARY
  5
1A
102
{ACAD_REACTORS
330
C
102
}
330
C
100
AcDbDictionary
281
     1
  3
Layout1
350
1E
  3
Layout2
350
26
  3
Model
350
22
  0
DICTIONARY
  5
17
102
{ACAD_REACTORS
330
C
102
}
330
C
100
AcDbDictionary
281
     1
  3
Standard
350
18
  0
DICTIONARY
  5
19
102
{ACAD_REACTORS
330
C
102
}
330
C
100
AcDbDictionary
281
     1
  0
ACDBDICTIONARYWDFLT
  5
E
102
{ACAD_REACTORS
330
C
102
}
330
C
100
AcDbDictionary
281
     1
  3
Normal
350
F
100
AcDbDictionaryWithDefault
340
F
  0
DICTIONARY
  5
40
102
{ACAD_REACTORS
330
C
102
}
330
C
100
AcDbDictionary
281
     1
  0
DICTIONARY
  5
2A
102
{ACAD_REACTORS
330
C
102
}
330
C
100
AcDbDictionary
281
     1
  3
2dWireframe
350
2F
  3
3D Hidden
350
31
  3
3dWireframe
350
30
  3
Basic
350
32
  3
Brighten
350
36
  3
ColorChange
350
3A
  3
Conceptual
350
34
  3
Dim
350
35
  3
Facepattern
350
39
  3
Flat
350
2B
  3
FlatWithEdges
350
2C
  3
Gouraud
350
2D
  3
GouraudWithEdges
350
2E
  3
Linepattern
350
38
  3
Realistic
350
33
  3
Thicken
350
37
  0
LAYOUT
  5
1E
102
{ACAD_REACTORS
330
1A
102
}
330
1A
100
AcDbPlotSettings
  1

  2
none_device
  4

  6

 40
0.0
 41
0.0
 42
0.0
 43
0.0
 44
0.0
 45
0.0
 46
0.0
 47
0.0
 48
0.0
 49
0.0
140
0.0
141
0.0
142
1.0
143
1.0
 70
   688
 72
     0
 73
     0
 74
     5
  7

 75
    16
 76
     0
 77
     2
 78
   300
147
1.0
148
0.0
149
0.0
100
AcDbLayout
  1
Layout1
 70
     1
 71
     1
 10
0.0
 20
0.0
 11
12.0
 21
9.0
 12
0.0
 22
0.0
 32
0.0
 14
1.000000000000000E+20
 24
1.000000000000000E+20
 34
1.000000000000000E+20
 15
-1.000000000000000E+20
 25
-1.000000000000000E+20
 35
-1.000000000000000E+20
146
0.0
 13
0.0
 23
0.0
 33
0.0
 16
1.0
 26
0.0
 36
0.0
 17
0.0
 27
1.0
 37
0.0
 76
     0
330
1B
  0
LAYOUT
  5
26
102
{ACAD_REACTORS
330
1A
102
}
330
1A
100
AcDbPlotSettings
  1

  2
none_device
  4

  6

 40
0.0
 41
0.0
 42
0.0
 43
0.0
 44
0.0
 45
0.0
 46
0.0
 47
0.0
 48
0.0
 49
0.0
140
0.0
141
0.0
142
1.0
143
1.0
 70
   688
 72
     0
 73
     0
 74
     5
  7

 75
    16
 76
     0
 77
     2
 78
   300
147
1.0
148
0.0
149
0.0
100
AcDbLayout
  1
Layout2
 70
     1
 71
     2
 10
0.0
 20
0.0
 11
0.0
 21
0.0
 12
0.0
 22
0.0
 32
0.0
 14
0.0
 24
0.0
 34
0.0
 15
0.0
 25
0.0
 35
0.0
146
0.0
 13
0.0
 23
0.0
 33
0.0
 16
1.0
 26
0.0
 36
0.0
 17
0.0
 27
1.0
 37
0.0
 76
     0
330
23
  0
LAYOUT
  5
22
102
{ACAD_REACTORS
330
1A
102
}
330
1A
100
AcDbPlotSettings
  1

  2
none_device
  4

  6

 40
0.0
 41
0.0
 42
0.0
 43
0.0
 44
0.0
 45
0.0
 46
0.0
 47
0.0
 48
0.0
 49
0.0
140
0.0
141
0.0
142
1.0
143
1.0
 70
  1712
 72
     0
 73
     0
 74
     0
  7

 75
     0
 76
     0
 77
     2
 78
   300
147
1.0
148
0.0
149
0.0
100
AcDbLayout
  1
Model
 70
     1
 71
     0
 10
0.0
 20
0.0
 11
12.0
 21
9.0
 12
0.0
 22
0.0
 32
0.0
 14
1.000000000000000E+20
 24
1.000000000000000E+20
 34
1.000000000000000E+20
 15
-1.000000000000000E+20
 25
-1.000000000000000E+20
 35
-1.000000000000000E+20
146
0.0
 13
0.0
 23
0.0
 33
0.0
 16
1.0
 26
0.0
 36
0.0
 17
0.0
 27
1.0
 37
0.0
 76
     0
330
1F
331
29
  0
MLINESTYLE
  5
18
102
{ACAD_REACTORS
330
17
102
}
330
17
100
AcDbMlineStyle
  2
Standard
 70
     0
  3

 62
   256
 51
90.0
 52
90.0
 71
     2
 49
0.5
 62
   256
  6
BYLAYER
 49
-0.5
 62
   256
  6
BYLAYER
  0
ACDBPLACEHOLDER
  5
F
102
{ACAD_REACTORS
330
E
102
}
330
E
  0
VISUALSTYLE
  5
2F
102
{ACAD_REACTORS
330
2A
102
}
330
2A
100
AcDbVisualStyle
  2
2dWireframe
 70
     4
 71
     0
 72
     2
 73
     0
 90
        0
 40
-0.6
 41
-30.0
 62
     5
 63
     7
421
 16777215
 74
     1
 91
        4
 64
     7
 65
   257
 75
     1
175
     1
 42
1.0
 92
        0
 66
   257
 43
1.0
 76
     1
 77
     6
 78
     2
 67
     7
 79
     5
170
     0
171
     0
290
     0
174
     0
 93
        1
 44
0.0
173
     0
291
     0
 45
0.0
1001
ACAD
1000
AcDbSavedByObjectVersion
1070
     0
  0
VISUALSTYLE
  5
31
102
{ACAD_REACTORS
330
2A
102
}
330
2A
100
AcDbVisualStyle
  2
3D Hidden
 70
     6
 71
     1
 72
     2
 73
     2
 90
        0
 40
-0.6
 41
-30.0
 62
     5
 63
     7
421
 16777215
 74
     2
 91
        2
 64
     7
 65
   257
 75
     2
175
     1
 42
40.0
 92
        0
 66
   257
 43
1.0
 76
     1
 77
     6
 78
     2
 67
     7
 79
     3
170
     0
171
     0
290
     0
174
     0
 93
        1
 44
0.0
173
     0
291
     0
 45
0.0
1001
ACAD
1000
AcDbSavedByObjectVersion
1070
     0
  0
VISUALSTYLE
  5
30
102
{ACAD_REACTORS
330
2A
102
}
330
2A
100
AcDbVisualStyle
  2
3dWireframe
 70
     5
 71
     0
 72
     2
 73
     0
 90
        0
 40
-0.6
 41
-30.0
 62
     5
 63
     7
421
 16777215
 74
     1
 91
        4
 64
     7
 65
   257
 75
     1
175
     1
 42
1.0
 92
        0
 66
   257
 43
1.0
 76
     1
 77
     6
 78
     2
 67
     7
 79
     5
170
     0
171
     0
290
     0
174
     0
 93
        1
 44
0.0
173
     0
291
     0
 45
0.0
1001
ACAD
1000
AcDbSavedByObjectVersion
1070
     0
  0
VISUALSTYLE
  5
32
102
{ACAD_REACTORS
330
2A
102
}
330
2A
100
AcDbVisualStyle
  2
Basic
 70
     7
 71
     1
 72
     0
 73
     1
 90
        0
 40
-0.6
 41
-30.0
 62
     5
 63
     7
421
 16777215
 74
     0
 91
        4
 64
     7
 65
   257
 75
     1
175
     1
 42
1.0
 92
        8
 66
     7
 43
1.0
 76
     1
 77
     6
 78
     2
 67
     7
 79
     5
170
     0
171
     0
290
     0
174
     0
 93
        1
 44
0.0
173
     0
291
     1
 45
0.0
1001
ACAD
1000
AcDbSavedByObjectVersion
1070
     0
  0
VISUALSTYLE
  5
36
102
{ACAD_REACTORS
330
2A
102
}
330
2A
100
AcDbVisualStyle
  2
Brighten
 70
    12
 71
     2
 72
     2
 73
     0
 90
        0
 40
-0.6
 41
-30.0
 62
     5
 63
     7
421
 16777215
 74
     1
 91
        4
 64
     7
 65
   257
 75
     1
175
     1
 42
1.0
 92
        8
 66
     7
 43
1.0
 76
     1
 77
     6
 78
     2
 67
     7
 79
     5
170
     0
171
     0
290
     0
174
     0
 93
        1
 44
50.0
173
     0
291
     1
 45
0.0
1001
ACAD
1000
AcDbSavedByObjectVersion
1070
     0
  0
VISUALSTYLE
  5
3A
102
{ACAD_REACTORS
330
2A
102
}
330
2A
100
AcDbVisualStyle
  2
ColorChange
 70
    16
 71
     2
 72
     2
 73
     3
 90
        0
 40
-0.6
 41
-30.0
 62
     5
 63
     8
421
  8421504
 74
     1
 91
        4
 64
     7
 65
   257
 75
     1
175
     1
 42
1.0
 92
        8
 66
     8
424
  8421504
 43
1.0
 76
     1
 77
     6
 78
     2
 67
     7
 79
     5
170
     0
171
     0
290
     0
174
     0
 93
        1
 44
0.0
173
     0
291
     1
 45
0.0
1001
ACAD
1000
AcDbSavedByObjectVersion
1070
     0
  0
VISUALSTYLE
  5
34
102
{ACAD_REACTORS
330
2A
102
}
330
2A
100
AcDbVisualStyle
  2
Conceptual
 70
     9
 71
     3
 72
     2
 73
     0
 90
        0
 40
-0.6
 41
-30.0
 62
     5
 63
     7
421
 16777215
 74
     2
 91
        2
 64
     7
 65
   257
 75
     1
175
     1
 42
40.0
 92
        8
 66
     7
 43
1.0
 76
     1
 77
     6
 78
     2
 67
     7
 79
     3
170
     0
171
     0
290
     0
174
     0
 93
        1
 44
0.0
173
     0
291
     0
 45
0.0
1001
ACAD
1000
AcDbSavedByObjectVersion
1070
     0
  0
VISUALSTYLE
  5
35
102
{ACAD_REACTORS
330
2A
102
}
330
2A
100
AcDbVisualStyle
  2
Dim
 70
    11
 71
     2
 72
     2
 73
     0
 90
        0
 40
-0.6
 41
-30.0
 62
     5
 63
     7
421
 16777215
 74
     1
 91
        4
 64
     7
 65
   257
 75
     1
175
     1
 42
1.0
 92
        8
 66
     7
 43
1.0
 76
     1
 77
     6
 78
     2
 67
     7
 79
     5
170
     0
171
     0
290
     0
174
     0
 93
        1
 44
-50.0
173
     0
291
     1
 45
0.0
1001
ACAD
1000
AcDbSavedByObjectVersion
1070
     0
  0
VISUALSTYLE
  5
39
102
{ACAD_REACTORS
330
2A
102
}
330
2A
100
AcDbVisualStyle
  2
Facepattern
 70
    15
 71
     2
 72
     2
 73
     0
 90
        0
 40
-0.6
 41
-30.0
 62
     5
 63
     7
421
 16777215
 74
     1
 91
        4
 64
     7
 65
   257
 75
     1
175
     1
 42
1.0
 92
        8
 66
     7
 43
1.0
 76
     1
 77
     6
 78
     2
 67
     7
 79
     5
170
     0
171
     0
290
     0
174
     0
 93
        1
 44
0.0
173
     0
291
     1
 45
0.0
1001
ACAD
1000
AcDbSavedByObjectVersion
1070
     0
  0
VISUALSTYLE
  5
2B
102
{ACAD_REACTORS
330
2A
102
}
330
2A
100
AcDbVisualStyle
  2
Flat
 70
     0
 71
     2
 72
     1
 73
     1
 90
        2
 40
-0.6
 41
30.0
 62
     5
 63
     7
421
 16777215
 74
     0
 91
        4
 64
     7
 65
   257
 75
     1
175
     1
 42
1.0
 92
        8
 66
     7
 43
1.0
 76
     1
 77
     6
 78
     2
 67
     7
 79
     5
170
     0
171
     0
290
     0
174
     0
 93
       13
 44
0.0
173
     0
291
     1
 45
0.0
1001
ACAD
1000
AcDbSavedByObjectVersion
1070
     0
  0
VISUALSTYLE
  5
2C
102
{ACAD_REACTORS
330
2A
102
}
330
2A
100
AcDbVisualStyle
  2
FlatWithEdges
 70
     1
 71
     2
 72
     1
 73
     1
 90
        2
 40
-0.6
 41
30.0
 62
     5
 63
     7
421
 16777215
 74
     1
 91
        4
 64
     7
 65
   257
 75
     1
175
     1
 42
1.0
 92
        0
 66
   257
 43
1.0
 76
     1
 77
     6
 78
     2
 67
     7
 79
     5
170
     0
171
     0
290
     0
174
     0
 93
       13
 44
0.0
173
     0
291
     1
 45
0.0
1001
ACAD
1000
AcDbSavedByObjectVersion
1070
     0
  0
VISUALSTYLE
  5
2D
102
{ACAD_REACTORS
330
2A
102
}
330
2A
100
AcDbVisualStyle
  2
Gouraud
 70
     2
 71
     2
 72
     2
 73
     1
 90
        2
 40
-0.6
 41
30.0
 62
     5
 63
     7
421
 16777215
 74
     0
 91
        4
 64
     7
 65
   257
 75
     1
175
     1
 42
1.0
 92
        0
 66
     7
 43
1.0
 76
     1
 77
     6
 78
     2
 67
     7
 79
     5
170
     0
171
     0
290
     0
174
     0
 93
       13
 44
0.0
173
     0
291
     1
 45
0.0
1001
ACAD
1000
AcDbSavedByObjectVersion
1070
     0
  0
VISUALSTYLE
  5
2E
102
{ACAD_REACTORS
330
2A
102
}
330
2A
100
AcDbVisualStyle
  2
GouraudWithEdges
 70
     3
 71
     2
 72
     2
 73
     1
 90
        2
 40
-0.6
 41
30.0
 62
     5
 63
     7
421
 16777215
 74
     1
 91
        4
 64
     7
 65
   257
 75
     1
175
     1
 42
1.0
 92
        0
 66
   257
 43
1.0
 76
     1
 77
     6
 78
     2
 67
     7
 79
     5
170
     0
171
     0
290
     0
174
     0
 93
       13
 44
0.0
173
     0
291
     1
 45
0.0
1001
ACAD
1000
AcDbSavedByObjectVersion
1070
     0
  0
VISUALSTYLE
  5
38
102
{ACAD_REACTORS
330
2A
102
}
330
2A
100
AcDbVisualStyle
  2
Linepattern
 70
    14
 71
     2
 72
     2
 73
     0
 90
        0
 40
-0.6
 41
-30.0
 62
     5
 63
     7
421
 16777215
 74
     1
 91
        4
 64
     7
 65
   257
 75
     7
175
     7
 42
1.0
 92
        8
 66
     7
 43
1.0
 76
     1
 77
     6
 78
     2
 67
     7
 79
     5
170
     0
171
     0
290
     0
174
     0
 93
        1
 44
0.0
173
     0
291
     1
 45
0.0
1001
ACAD
1000
AcDbSavedByObjectVersion
1070
     0
  0
VISUALSTYLE
  5
33
102
{ACAD_REACTORS
330
2A
102
}
330
2A
100
AcDbVisualStyle
  2
Realistic
 70
     8
 71
     2
 72
     2
 73
     0
 90
        0
 40
-0.6
 41
-30.0
 62
     5
 63
     7
421
 16777215
 74
     1
 91
        0
 64
     7
 65
   257
 75
     1
175
     1
 42
1.0
 92
        8
 66
     8
424
  7895160
 43
1.0
 76
     1
 77
     6
 78
     2
 67
     7
 79
     5
170
     0
171
     0
290
     0
174
     0
 93
       13
 44
0.0
173
     0
291
     0
 45
0.0
1001
ACAD
1000
AcDbSavedByObjectVersion
1070
     0
  0
VISUALSTYLE
  5
37
102
{ACAD_REACTORS
330
2A
102
}
330
2A
100
AcDbVisualStyle
  2
Thicken
 70
    13
 71
     2
 72
     2
 73
     0
 90
        0
 40
-0.6
 41
-30.0
 62
     5
 63
     7
421
 16777215
 74
     1
 91
        4
 64
     7
 65
   257
 75
     1
175
     1
 42
1.0
 92
       12
 66
     7
 43
1.0
 76
     1
 77
     6
 78
     2
 67
     7
 79
     5
170
     0
171
     0
290
     0
174
     0
 93
        1
 44
0.0
173
     0
291
     1
 45
0.0
1001
ACAD
1000
AcDbSavedByObjectVersion
1070
     0
  0
ENDSEC
  0
EOF
