  0
SECTION
  2
HEADER
  9
$ACADVER
  1
AC1021
  9
$ACADMAINTVER
 70
    25
  9
$DWGCODEPAGE
  3
ANSI_1252
  9
$INSBASE
 10
0.0
 20
0.0
 30
0.0
  9
$EXTMIN
 10
-9.14327
 20
-10.48534
 30
0.0
  9
$EXTMAX
 10
9.14322
 20
10.48535
 30
0.0
  9
$LIMMIN
 10
0.0
 20
0.0
  9
$LIMMAX
 10
12.0
 20
9.0
  9
$ORTHOMODE
 70
     0
  9
$REGENMODE
 70
     1
  9
$FILLMODE
 70
     1
  9
$QTEXTMODE
 70
     0
  9
$MIRRTEXT
 70
     1
  9
$LTSCALE
 40
1.0
  9
$ATTMODE
 70
     1
  9
$TEXTSIZE
 40
0.2
  9
$TRACEWID
 40
0.05
  9
$TEXTSTYLE
  7
Standard
  9
$CLAYER
  8
0
  9
$CELTYPE
  6
ByLayer
  9
$CECOLOR
 62
   256
  9
$CELTSCALE
 40
1.0
  9
$DISPSILH
 70
     0
  9
$DIMSCALE
 40
1.0
  9
$DIMASZ
 40
0.18
  9
$DIMEXO
 40
0.0625
  9
$DIMDLI
 40
0.38
  9
$DIMRND
 40
0.0
  9
$DIMDLE
 40
0.0
  9
$DIMEXE
 40
0.18
  9
$DIMTP
 40
0.0
  9
$DIMTM
 40
0.0
  9
$DIMTXT
 40
0.18
  9
$DIMCEN
 40
0.09
  9
$DIMTSZ
 40
0.0
  9
$DIMTOL
 70
     0
  9
$DIMLIM
 70
     0
  9
$DIMTIH
 70
     1
  9
$DIMTOH
 70
     1
  9
$DIMSE1
 70
     0
  9
$DIMSE2
 70
     0
  9
$DIMTAD
 70
     0
  9
$DIMZIN
 70
     0
  9
$DIMBLK
  1

  9
$DIMASO
 70
     1
  9
$DIMSHO
 70
     1
  9
$DIMPOST
  1

  9
$DIMAPOST
  1

  9
$DIMALT
 70
     0
  9
$DIMALTD
 70
     2
  9
$DIMALTF
 40
25.4
  9
$DIMLFAC
 40
1.0
  9
$DIMTOFL
 70
     0
  9
$DIMTVP
 40
0.0
  9
$DIMTIX
 70
     0
  9
$DIMSOXD
 70
     0
  9
$DIMSAH
 70
     0
  9
$DIMBLK1
  1

  9
$DIMBLK2
  1

  9
$DIMSTYLE
  2
Standard
  9
$DIMCLRD
 70
     0
  9
$DIMCLRE
 70
     0
  9
$DIMCLRT
 70
     0
  9
$DIMTFAC
 40
1.0
  9
$DIMGAP
 40
0.09
  9
$DIMJUST
 70
     0
  9
$DIMSD1
 70
     0
  9
$DIMSD2
 70
     0
  9
$DIMTOLJ
 70
     1
  9
$DIMTZIN
 70
     0
  9
$DIMALTZ
 70
     0
  9
$DIMALTTZ
 70
     0
  9
$DIMUPT
 70
     0
  9
$DIMDEC
 70
     4
  9
$DIMTDEC
 70
     4
  9
$DIMALTU
 70
     2
  9
$DIMALTTD
 70
     2
  9
$DIMTXSTY
  7
Standard
  9
$DIMAUNIT
 70
     0
  9
$DIMADEC
 70
     0
  9
$DIMALTRND
 40
0.0
  9
$DIMAZIN
 70
     0
  9
$DIMDSEP
 70
    46
  9
$DIMATFIT
 70
     3
  9
$DIMFRAC
 70
     0
  9
$DIMLDRBLK
  1

  9
$DIMLUNIT
 70
     2
  9
$DIMLWD
 70
    -2
  9
$DIMLWE
 70
    -2
  9
$DIMTMOVE
 70
     0
  9
$DIMFXL
 40
1.0
  9
$DIMFXLON
 70
     0
  9
$DIMJOGANG
 40
0.7853981633974483
  9
$DIMTFILL
 70
     0
  9
$DIMTFILLCLR
 70
     0
  9
$DIMARCSYM
 70
     0
  9
$DIMLTYPE
  6

  9
$DIMLTEX1
  6

  9
$DIMLTEX2
  6

  9
$LUNITS
 70
     2
  9
$LUPREC
 70
     4
  9
$SKETCHINC
 40
0.1
  9
$FILLETRAD
 40
0.5
  9
$AUNITS
 70
     0
  9
$AUPREC
 70
     0
  9
$MENU
  1
.
  9
$ELEVATION
 40
0.0
  9
$PELEVATION
 40
0.0
  9
$THICKNESS
 40
0.0
  9
$LIMCHECK
 70
     0
  9
$CHAMFERA
 40
0.5
  9
$CHAMFERB
 40
0.5
  9
$CHAMFERC
 40
1.0
  9
$CHAMFERD
 40
0.0
  9
$SKPOLY
 70
     0
  9
$TDCREATE
 40
2456878.318338287
  9
$TDUCREATE
 40
2456878.443338287
  9
$TDUPDATE
 40
2456878.3183386
  9
$TDUUPDATE
 40
2456878.4433386
  9
$TDINDWG
 40
0.0000000116
  9
$TDUSRTIMER
 40
0.0000000116
  9
$USRTIMER
 70
     1
  9
$ANGBASE
 50
0.0
  9
$ANGDIR
 70
     0
  9
$PDMODE
 70
     0
  9
$PDSIZE
 40
0.0
  9
$PLINEWID
 40
0.0
  9
$SPLFRAME
 70
     0
  9
$SPLINETYPE
 70
     6
  9
$SPLINESEGS
 70
     8
  9
$HANDSEED
  5
64
  9
$SURFTAB1
 70
     6
  9
$SURFTAB2
 70
     6
  9
$SURFTYPE
 70
     6
  9
$SURFU
 70
     6
  9
$SURFV
 70
     6
  9
$UCSBASE
  2

  9
$UCSNAME
  2

  9
$UCSORG
 10
0.0
 20
0.0
 30
0.0
  9
$UCSXDIR
 10
1.0
 20
0.0
 30
0.0
  9
$UCSYDIR
 10
0.0
 20
1.0
 30
0.0
  9
$UCSORTHOREF
  2

  9
$UCSORTHOVIEW
 70
     0
  9
$UCSORGTOP
 10
0.0
 20
0.0
 30
0.0
  9
$UCSORGBOTTOM
 10
0.0
 20
0.0
 30
0.0
  9
$UCSORGLEFT
 10
0.0
 20
0.0
 30
0.0
  9
$UCSORGRIGHT
 10
0.0
 20
0.0
 30
0.0
  9
$UCSORGFRONT
 10
0.0
 20
0.0
 30
0.0
  9
$UCSORGBACK
 10
0.0
 20
0.0
 30
0.0
  9
$PUCSBASE
  2

  9
$PUCSNAME
  2

  9
$PUCSORG
 10
0.0
 20
0.0
 30
0.0
  9
$PUCSXDIR
 10
1.0
 20
0.0
 30
0.0
  9
$PUCSYDIR
 10
0.0
 20
1.0
 30
0.0
  9
$PUCSORTHOREF
  2

  9
$PUCSORTHOVIEW
 70
     0
  9
$PUCSORGTOP
 10
0.0
 20
0.0
 30
0.0
  9
$PUCSORGBOTTOM
 10
0.0
 20
0.0
 30
0.0
  9
$PUCSORGLEFT
 10
0.0
 20
0.0
 30
0.0
  9
$PUCSORGRIGHT
 10
0.0
 20
0.0
 30
0.0
  9
$PUCSORGFRONT
 10
0.0
 20
0.0
 30
0.0
  9
$PUCSORGBACK
 10
0.0
 20
0.0
 30
0.0
  9
$USERI1
 70
     0
  9
$USERI2
 70
     0
  9
$USERI3
 70
     0
  9
$USERI4
 70
     0
  9
$USERI5
 70
     0
  9
$USERR1
 40
0.0
  9
$USERR2
 40
0.0
  9
$USERR3
 40
0.0
  9
$USERR4
 40
0.0
  9
$USERR5
 40
0.0
  9
$WORLDVIEW
 70
     1
  9
$SHADEDGE
 70
     3
  9
$SHADEDIF
 70
    70
  9
$TILEMODE
 70
     1
  9
$MAXACTVP
 70
    64
  9
$PINSBASE
 10
0.0
 20
0.0
 30
0.0
  9
$PLIMCHECK
 70
     0
  9
$PEXTMIN
 10
1.000000000000000E+20
 20
1.000000000000000E+20
 30
1.000000000000000E+20
  9
$PEXTMAX
 10
-1.000000000000000E+20
 20
-1.000000000000000E+20
 30
-1.000000000000000E+20
  9
$PLIMMIN
 10
0.0
 20
0.0
  9
$PLIMMAX
 10
12.0
 20
9.0
  9
$UNITMODE
 70
     0
  9
$VISRETAIN
 70
     1
  9
$PLINEGEN
 70
     0
  9
$PSLTSCALE
 70
     1
  9
$TREEDEPTH
 70
  3020
  9
$CMLSTYLE
  2
Standard
  9
$CMLJUST
 70
     0
  9
$CMLSCALE
 40
1.0
  9
$PROXYGRAPHICS
 70
     1
  9
$MEASUREMENT
 70
     0
  9
$CELWEIGHT
370
    -1
  9
$ENDCAPS
280
     0
  9
$JOINSTYLE
280
     0
  9
$LWDISPLAY
290
     0
  9
$INSUNITS
 70
     5
  9
$HYPERLINKBASE
  1

  9
$STYLESHEET
  1

  9
$XEDIT
290
     1
  9
$CEPSNTYPE
380
     0
  9
$PSTYLEMODE
290
     1
  9
$FINGERPRINTGUID
  2
{FA054AA6-6400-4552-B2DE-310A11762867}
  9
$VERSIONGUID
  2
{FAEB1C32-E019-11D5-929B-00C0DF256EC4}
  9
$EXTNAMES
290
     1
  9
$PSVPSCALE
 40
0.0
  9
$OLESTARTUP
290
     0
  9
$SORTENTS
280
   127
  9
$INDEXCTL
280
     0
  9
$HIDETEXT
280
     1
  9
$XCLIPFRAME
290
     0
  9
$HALOGAP
280
     0
  9
$OBSCOLOR
 70
   257
  9
$OBSLTYPE
280
     0
  9
$INTERSECTIONDISPLAY
280
     0
  9
$INTERSECTIONCOLOR
 70
   257
  9
$DIMASSOC
280
     2
  9
$PROJECTNAME
  1

  9
$CAMERADISPLAY
290
     0
  9
$LENSLENGTH
 40
50.0
  9
$CAMERAHEIGHT
 40
0.0
  9
$STEPSPERSEC
 40
2.0
  9
$STEPSIZE
 40
6.0
  9
$3DDWFPREC
 40
2.0
  9
$PSOLWIDTH
 40
0.25
  9
$PSOLHEIGHT
 40
4.0
  9
$LOFTANG1
 40
1.570796326794897
  9
$LOFTANG2
 40
1.570796326794897
  9
$LOFTMAG1
 40
0.0
  9
$LOFTMAG2
 40
0.0
  9
$LOFTPARAM
 70
     7
  9
$LOFTNORMALS
280
     1
  9
$LATITUDE
 40
37.795
  9
$LONGITUDE
 40
-122.394
  9
$NORTHDIRECTION
 40
0.0
  9
$TIMEZONE
 70
 -8000
  9
$LIGHTGLYPHDISPLAY
280
     1
  9
$TILEMODELIGHTSYNCH
280
     1
  9
$SOLIDHIST
280
     1
  9
$SHOWHIST
280
     1
  9
$DWFFRAME
280
     2
  9
$DGNFRAME
280
     2
  9
$REALWORLDSCALE
290
     1
  9
$INTERFERECOLOR
 62
   256
  9
$CSHADOW
280
     0
  9
$SHADOWPLANELOCATION
 40
0.0
  0
ENDSEC
  0
SECTION
  2
CLASSES
  0
CLASS
  1
ACDBDICTIONARYWDFLT
  2
AcDbDictionaryWithDefault
  3
ObjectDBX Classes
 90
        0
 91
        4
280
     0
281
     0
  0
CLASS
  1
VISUALSTYLE
  2
AcDbVisualStyle
  3
ObjectDBX Classes
 90
     4095
 91
        4
280
     0
281
     0
  0
CLASS
  1
MATERIAL
  2
AcDbMaterial
  3
ObjectDBX Classes
 90
     1153
 91
        4
280
     0
281
     0
  0
ENDSEC
  0
SECTION
  2
TABLES
  0
TABLE
  2
VPORT
  5
8
330
0
100
AcDbSymbolTable
 70
     1
  0
VPORT
  5
29
330
8
100
AcDbSymbolTableRecord
100
AcDbViewportTableRecord
  2
*Active
 70
     0
 10
0.0
 20
0.0
 11
1.0
 21
1.0
 12
10.42990654205607
 22
4.5
 13
0.0
 23
0.0
 14
0.5
 24
0.5
 15
0.5
 25
0.5
 16
0.0
 26
0.0
 36
1.0
 17
0.0
 27
0.0
 37
0.0
 40
9.0
 41
1.972972972850329
 42
50.0
 43
0.0
 44
0.0
 50
0.0
 51
0.0
 71
     0
 72
   100
 73
     1
 74
     3
 75
     0
 76
     0
 77
     0
 78
     0
281
     0
 65
     1
110
0.0
120
0.0
130
0.0
111
1.0
121
0.0
131
0.0
112
0.0
122
1.0
132
0.0
 79
     0
146
0.0
 60
     3
 61
     5
292
     1
282
     1
141
0.0
142
0.0
 63
   250
  0
ENDTAB
  0
TABLE
  2
LTYPE
  5
5
330
0
100
AcDbSymbolTable
 70
     1
  0
LTYPE
  5
14
330
5
100
AcDbSymbolTableRecord
100
AcDbLinetypeTableRecord
  2
ByBlock
 70
     0
  3

 72
    65
 73
     0
 40
0.0
  0
LTYPE
  5
15
330
5
100
AcDbSymbolTableRecord
100
AcDbLinetypeTableRecord
  2
ByLayer
 70
     0
  3

 72
    65
 73
     0
 40
0.0
  0
LTYPE
  5
16
330
5
100
AcDbSymbolTableRecord
100
AcDbLinetypeTableRecord
  2
Continuous
 70
     0
  3
Solid line
 72
    65
 73
     0
 40
0.0
  0
ENDTAB
  0
TABLE
  2
LAYER
  5
2
330
0
100
AcDbSymbolTable
 70
     2
  0
LAYER
  5
10
330
2
100
AcDbSymbolTableRecord
100
AcDbLayerTableRecord
  2
0
 70
     0
 62
     7
  6
Continuous
370
    -3
390
F
347
3E
  0
LAYER
  5
40
330
2
100
AcDbSymbolTableRecord
100
AcDbLayerTableRecord
  2
Camada 1
 70
     0
 62
     7
  6
Continuous
370
    -3
390
F
347
3E
  0
ENDTAB
  0
TABLE
  2
STYLE
  5
3
330
0
100
AcDbSymbolTable
 70
     1
  0
STYLE
  5
11
330
3
100
AcDbSymbolTableRecord
100
AcDbTextStyleTableRecord
  2
Standard
 70
     0
 40
0.0
 41
1.0
 50
0.0
 71
     0
 42
0.2
  3
txt
  4

  0
ENDTAB
  0
TABLE
  2
VIEW
  5
6
330
0
100
AcDbSymbolTable
 70
     0
  0
ENDTAB
  0
TABLE
  2
UCS
  5
7
330
0
100
AcDbSymbolTable
 70
     0
  0
ENDTAB
  0
TABLE
  2
APPID
  5
9
330
0
100
AcDbSymbolTable
 70
     2
  0
APPID
  5
12
330
9
100
AcDbSymbolTableRecord
100
AcDbRegAppTableRecord
  2
ACAD
 70
     0
  0
APPID
  5
3F
330
9
100
AcDbSymbolTableRecord
100
AcDbRegAppTableRecord
  2
ODA
 70
     0
  0
ENDTAB
  0
TABLE
  2
DIMSTYLE
  5
A
330
0
100
AcDbSymbolTable
 70
     1
100
AcDbDimStyleTable
  0
DIMSTYLE
105
27
330
A
100
AcDbSymbolTableRecord
100
AcDbDimStyleTableRecord
  2
Standard
 70
     0
178
     0
340
11
  0
ENDTAB
  0
TABLE
  2
BLOCK_RECORD
  5
1
330
0
100
AcDbSymbolTable
 70
     1
  0
BLOCK_RECORD
  5
1F
330
1
100
AcDbSymbolTableRecord
100
AcDbBlockTableRecord
  2
*Model_Space
340
22
 70
     0
280
     1
281
     0
  0
BLOCK_RECORD
  5
1B
330
1
100
AcDbSymbolTableRecord
100
AcDbBlockTableRecord
  2
*Paper_Space
340
1E
 70
     0
280
     1
281
     0
  0
BLOCK_RECORD
  5
23
330
1
100
AcDbSymbolTableRecord
100
AcDbBlockTableRecord
  2
*Paper_Space0
340
26
 70
     0
280
     1
281
     0
  0
ENDTAB
  0
ENDSEC
  0
SECTION
  2
BLOCKS
  0
BLOCK
  5
20
330
1F
100
AcDbEntity
  8
0
100
AcDbBlockBegin
  2
*Model_Space
 70
     0
 10
0.0
 20
0.0
 30
0.0
  3
*Model_Space
  1

  0
ENDBLK
  5
21
330
1F
100
AcDbEntity
  8
0
100
AcDbBlockEnd
  0
BLOCK
  5
1C
330
1B
100
AcDbEntity
 67
     1
  8
0
100
AcDbBlockBegin
  2
*Paper_Space
 70
     0
 10
0.0
 20
0.0
 30
0.0
  3
*Paper_Space
  1

  0
ENDBLK
  5
1D
330
1B
100
AcDbEntity
 67
     1
  8
0
100
AcDbBlockEnd
  0
BLOCK
  5
24
330
23
100
AcDbEntity
  8
0
100
AcDbBlockBegin
  2
*Paper_Space0
 70
     0
 10
0.0
 20
0.0
 30
0.0
  3
*Paper_Space0
  1

  0
ENDBLK
  5
25
330
23
100
AcDbEntity
  8
0
100
AcDbBlockEnd
  0
ENDSEC
  0
SECTION
  2
ENTITIES
  0
SPLINE
  5
41
330
1F
100
AcDbEntity
  8
Camada 1
100
AcDbSpline
210
0.0
220
0.0
230
1.0
 70
    11
 71
     3
 72
   492
 73
   488
 74
     0
 42
0.0000000001
 43
0.0000000001
 12
1.0
 22
0.0
 32
0.0
 13
1.0
 23
0.0
 33
0.0
 40
0.0
 40
0.0
 40
0.0
 40
0.0
 40
0.008130081300813
 40
0.008130081300813
 40
0.008130081300813
 40
0.008130081300813
 40
0.016260162601626
 40
0.016260162601626
 40
0.016260162601626
 40
0.016260162601626
 40
0.024390243902439
 40
0.024390243902439
 40
0.024390243902439
 40
0.024390243902439
 40
0.032520325203252
 40
0.032520325203252
 40
0.032520325203252
 40
0.032520325203252
 40
0.040650406504065
 40
0.040650406504065
 40
0.040650406504065
 40
0.040650406504065
 40
0.0487804878048781
 40
0.0487804878048781
 40
0.0487804878048781
 40
0.0487804878048781
 40
0.0569105691056911
 40
0.0569105691056911
 40
0.0569105691056911
 40
0.0569105691056911
 40
0.0650406504065041
 40
0.0650406504065041
 40
0.0650406504065041
 40
0.0650406504065041
 40
0.0731707317073171
 40
0.0731707317073171
 40
0.0731707317073171
 40
0.0731707317073171
 40
0.0813008130081301
 40
0.0813008130081301
 40
0.0813008130081301
 40
0.0813008130081301
 40
0.0894308943089431
 40
0.0894308943089431
 40
0.0894308943089431
 40
0.0894308943089431
 40
0.0975609756097561
 40
0.0975609756097561
 40
0.0975609756097561
 40
0.0975609756097561
 40
0.1056910569105691
 40
0.1056910569105691
 40
0.1056910569105691
 40
0.1056910569105691
 40
0.1138211382113821
 40
0.1138211382113821
 40
0.1138211382113821
 40
0.1138211382113821
 40
0.1219512195121951
 40
0.1219512195121951
 40
0.1219512195121951
 40
0.1219512195121951
 40
0.1300813008130081
 40
0.1300813008130081
 40
0.1300813008130081
 40
0.1300813008130081
 40
0.1382113821138211
 40
0.1382113821138211
 40
0.1382113821138211
 40
0.1382113821138211
 40
0.1463414634146341
 40
0.1463414634146341
 40
0.1463414634146341
 40
0.1463414634146341
 40
0.1544715447154472
 40
0.1544715447154472
 40
0.1544715447154472
 40
0.1544715447154472
 40
0.1626016260162602
 40
0.1626016260162602
 40
0.1626016260162602
 40
0.1626016260162602
 40
0.1707317073170732
 40
0.1707317073170732
 40
0.1707317073170732
 40
0.1707317073170732
 40
0.1788617886178862
 40
0.1788617886178862
 40
0.1788617886178862
 40
0.1788617886178862
 40
0.1869918699186992
 40
0.1869918699186992
 40
0.1869918699186992
 40
0.1869918699186992
 40
0.1951219512195122
 40
0.1951219512195122
 40
0.1951219512195122
 40
0.1951219512195122
 40
0.2032520325203252
 40
0.2032520325203252
 40
0.2032520325203252
 40
0.2032520325203252
 40
0.2113821138211382
 40
0.2113821138211382
 40
0.2113821138211382
 40
0.2113821138211382
 40
0.2195121951219512
 40
0.2195121951219512
 40
0.2195121951219512
 40
0.2195121951219512
 40
0.2276422764227642
 40
0.2276422764227642
 40
0.2276422764227642
 40
0.2276422764227642
 40
0.2357723577235772
 40
0.2357723577235772
 40
0.2357723577235772
 40
0.2357723577235772
 40
0.2439024390243902
 40
0.2439024390243902
 40
0.2439024390243902
 40
0.2439024390243902
 40
0.2520325203252032
 40
0.2520325203252032
 40
0.2520325203252032
 40
0.2520325203252032
 40
0.2601626016260163
 40
0.2601626016260163
 40
0.2601626016260163
 40
0.2601626016260163
 40
0.2682926829268293
 40
0.2682926829268293
 40
0.2682926829268293
 40
0.2682926829268293
 40
0.2764227642276423
 40
0.2764227642276423
 40
0.2764227642276423
 40
0.2764227642276423
 40
0.2845528455284553
 40
0.2845528455284553
 40
0.2845528455284553
 40
0.2845528455284553
 40
0.2926829268292683
 40
0.2926829268292683
 40
0.2926829268292683
 40
0.2926829268292683
 40
0.3008130081300813
 40
0.3008130081300813
 40
0.3008130081300813
 40
0.3008130081300813
 40
0.3089430894308943
 40
0.3089430894308943
 40
0.3089430894308943
 40
0.3089430894308943
 40
0.3170731707317073
 40
0.3170731707317073
 40
0.3170731707317073
 40
0.3170731707317073
 40
0.3252032520325203
 40
0.3252032520325203
 40
0.3252032520325203
 40
0.3252032520325203
 40
0.3333333333333333
 40
0.3333333333333333
 40
0.3333333333333333
 40
0.3333333333333333
 40
0.3414634146341464
 40
0.3414634146341464
 40
0.3414634146341464
 40
0.3414634146341464
 40
0.3495934959349594
 40
0.3495934959349594
 40
0.3495934959349594
 40
0.3495934959349594
 40
0.3577235772357724
 40
0.3577235772357724
 40
0.3577235772357724
 40
0.3577235772357724
 40
0.3658536585365854
 40
0.3658536585365854
 40
0.3658536585365854
 40
0.3658536585365854
 40
0.3739837398373984
 40
0.3739837398373984
 40
0.3739837398373984
 40
0.3739837398373984
 40
0.3821138211382114
 40
0.3821138211382114
 40
0.3821138211382114
 40
0.3821138211382114
 40
0.3902439024390244
 40
0.3902439024390244
 40
0.3902439024390244
 40
0.3902439024390244
 40
0.3983739837398374
 40
0.3983739837398374
 40
0.3983739837398374
 40
0.3983739837398374
 40
0.4065040650406504
 40
0.4065040650406504
 40
0.4065040650406504
 40
0.4065040650406504
 40
0.4146341463414634
 40
0.4146341463414634
 40
0.4146341463414634
 40
0.4146341463414634
 40
0.4227642276422764
 40
0.4227642276422764
 40
0.4227642276422764
 40
0.4227642276422764
 40
0.4308943089430894
 40
0.4308943089430894
 40
0.4308943089430894
 40
0.4308943089430894
 40
0.4390243902439024
 40
0.4390243902439024
 40
0.4390243902439024
 40
0.4390243902439024
 40
0.4471544715447154
 40
0.4471544715447154
 40
0.4471544715447154
 40
0.4471544715447154
 40
0.4552845528455284
 40
0.4552845528455284
 40
0.4552845528455284
 40
0.4552845528455284
 40
0.4634146341463415
 40
0.4634146341463415
 40
0.4634146341463415
 40
0.4634146341463415
 40
0.4715447154471545
 40
0.4715447154471545
 40
0.4715447154471545
 40
0.4715447154471545
 40
0.4796747967479675
 40
0.4796747967479675
 40
0.4796747967479675
 40
0.4796747967479675
 40
0.4878048780487805
 40
0.4878048780487805
 40
0.4878048780487805
 40
0.4878048780487805
 40
0.4959349593495935
 40
0.4959349593495935
 40
0.4959349593495935
 40
0.4959349593495935
 40
0.5040650406504065
 40
0.5040650406504065
 40
0.5040650406504065
 40
0.5040650406504065
 40
0.5121951219512195
 40
0.5121951219512195
 40
0.5121951219512195
 40
0.5121951219512195
 40
0.5203252032520326
 40
0.5203252032520326
 40
0.5203252032520326
 40
0.5203252032520326
 40
0.5284552845528455
 40
0.5284552845528455
 40
0.5284552845528455
 40
0.5284552845528455
 40
0.5365853658536586
 40
0.5365853658536586
 40
0.5365853658536586
 40
0.5365853658536586
 40
0.5447154471544715
 40
0.5447154471544715
 40
0.5447154471544715
 40
0.5447154471544715
 40
0.5528455284552846
 40
0.5528455284552846
 40
0.5528455284552846
 40
0.5528455284552846
 40
0.5609756097560976
 40
0.5609756097560976
 40
0.5609756097560976
 40
0.5609756097560976
 40
0.5691056910569106
 40
0.5691056910569106
 40
0.5691056910569106
 40
0.5691056910569106
 40
0.5772357723577236
 40
0.5772357723577236
 40
0.5772357723577236
 40
0.5772357723577236
 40
0.5853658536585366
 40
0.5853658536585366
 40
0.5853658536585366
 40
0.5853658536585366
 40
0.5934959349593496
 40
0.5934959349593496
 40
0.5934959349593496
 40
0.5934959349593496
 40
0.6016260162601627
 40
0.6016260162601627
 40
0.6016260162601627
 40
0.6016260162601627
 40
0.6097560975609756
 40
0.6097560975609756
 40
0.6097560975609756
 40
0.6097560975609756
 40
0.6178861788617886
 40
0.6178861788617886
 40
0.6178861788617886
 40
0.6178861788617886
 40
0.6260162601626016
 40
0.6260162601626016
 40
0.6260162601626016
 40
0.6260162601626016
 40
0.6341463414634146
 40
0.6341463414634146
 40
0.6341463414634146
 40
0.6341463414634146
 40
0.6422764227642277
 40
0.6422764227642277
 40
0.6422764227642277
 40
0.6422764227642277
 40
0.6504065040650406
 40
0.6504065040650406
 40
0.6504065040650406
 40
0.6504065040650406
 40
0.6585365853658537
 40
0.6585365853658537
 40
0.6585365853658537
 40
0.6585365853658537
 40
0.6666666666666666
 40
0.6666666666666666
 40
0.6666666666666666
 40
0.6666666666666666
 40
0.6747967479674797
 40
0.6747967479674797
 40
0.6747967479674797
 40
0.6747967479674797
 40
0.6829268292682927
 40
0.6829268292682927
 40
0.6829268292682927
 40
0.6829268292682927
 40
0.6910569105691057
 40
0.6910569105691057
 40
0.6910569105691057
 40
0.6910569105691057
 40
0.6991869918699187
 40
0.6991869918699187
 40
0.6991869918699187
 40
0.6991869918699187
 40
0.7073170731707317
 40
0.7073170731707317
 40
0.7073170731707317
 40
0.7073170731707317
 40
0.7154471544715447
 40
0.7154471544715447
 40
0.7154471544715447
 40
0.7154471544715447
 40
0.7235772357723578
 40
0.7235772357723578
 40
0.7235772357723578
 40
0.7235772357723578
 40
0.7317073170731707
 40
0.7317073170731707
 40
0.7317073170731707
 40
0.7317073170731707
 40
0.7398373983739838
 40
0.7398373983739838
 40
0.7398373983739838
 40
0.7398373983739838
 40
0.7479674796747967
 40
0.7479674796747967
 40
0.7479674796747967
 40
0.7479674796747967
 40
0.7560975609756098
 40
0.7560975609756098
 40
0.7560975609756098
 40
0.7560975609756098
 40
0.7642276422764228
 40
0.7642276422764228
 40
0.7642276422764228
 40
0.7642276422764228
 40
0.7723577235772358
 40
0.7723577235772358
 40
0.7723577235772358
 40
0.7723577235772358
 40
0.7804878048780488
 40
0.7804878048780488
 40
0.7804878048780488
 40
0.7804878048780488
 40
0.7886178861788617
 40
0.7886178861788617
 40
0.7886178861788617
 40
0.7886178861788617
 40
0.7967479674796748
 40
0.7967479674796748
 40
0.7967479674796748
 40
0.7967479674796748
 40
0.8048780487804879
 40
0.8048780487804879
 40
0.8048780487804879
 40
0.8048780487804879
 40
0.8130081300813008
 40
0.8130081300813008
 40
0.8130081300813008
 40
0.8130081300813008
 40
0.8211382113821138
 40
0.8211382113821138
 40
0.8211382113821138
 40
0.8211382113821138
 40
0.8292682926829268
 40
0.8292682926829268
 40
0.8292682926829268
 40
0.8292682926829268
 40
0.8373983739837398
 40
0.8373983739837398
 40
0.8373983739837398
 40
0.8373983739837398
 40
0.8455284552845529
 40
0.8455284552845529
 40
0.8455284552845529
 40
0.8455284552845529
 40
0.8536585365853658
 40
0.8536585365853658
 40
0.8536585365853658
 40
0.8536585365853658
 40
0.8617886178861789
 40
0.8617886178861789
 40
0.8617886178861789
 40
0.8617886178861789
 40
0.8699186991869918
 40
0.8699186991869918
 40
0.8699186991869918
 40
0.8699186991869918
 40
0.8780487804878049
 40
0.8780487804878049
 40
0.8780487804878049
 40
0.8780487804878049
 40
0.8861788617886179
 40
0.8861788617886179
 40
0.8861788617886179
 40
0.8861788617886179
 40
0.8943089430894309
 40
0.8943089430894309
 40
0.8943089430894309
 40
0.8943089430894309
 40
0.9024390243902439
 40
0.9024390243902439
 40
0.9024390243902439
 40
0.9024390243902439
 40
0.9105691056910569
 40
0.9105691056910569
 40
0.9105691056910569
 40
0.9105691056910569
 40
0.9186991869918699
 40
0.9186991869918699
 40
0.9186991869918699
 40
0.9186991869918699
 40
0.926829268292683
 40
0.926829268292683
 40
0.926829268292683
 40
0.926829268292683
 40
0.9349593495934959
 40
0.9349593495934959
 40
0.9349593495934959
 40
0.9349593495934959
 40
0.943089430894309
 40
0.943089430894309
 40
0.943089430894309
 40
0.943089430894309
 40
0.9512195121951219
 40
0.9512195121951219
 40
0.9512195121951219
 40
0.9512195121951219
 40
0.959349593495935
 40
0.959349593495935
 40
0.959349593495935
 40
0.959349593495935
 40
0.967479674796748
 40
0.967479674796748
 40
0.967479674796748
 40
0.967479674796748
 40
0.975609756097561
 40
0.975609756097561
 40
0.975609756097561
 40
0.975609756097561
 40
0.983739837398374
 40
0.983739837398374
 40
0.983739837398374
 40
0.983739837398374
 40
1.0
 40
1.0
 40
1.0
 40
1.0
 10
5.96965
 20
10.48535
 30
0.0
 10
6.17476
 20
10.48535
 30
0.0
 10
6.40769
 20
10.45738
 30
0.0
 10
6.66873
 20
10.40148
 30
0.0
 10
6.66873
 20
10.40148
 30
0.0
 10
6.66873
 20
10.40148
 30
0.0
 10
6.93429
 20
10.42945
 30
0.0
 10
6.93429
 20
10.42945
 30
0.0
 10
6.93429
 20
10.42945
 30
0.0
 10
6.93429
 20
10.42945
 30
0.0
 10
7.14397
 20
10.42944
 30
0.0
 10
7.14397
 20
10.42944
 30
0.0
 10
7.14397
 20
10.42944
 30
0.0
 10
7.29314
 20
10.42944
 30
0.0
 10
7.5495
 20
10.31757
 30
0.0
 10
7.9129
 20
10.09387
 30
0.0
 10
7.9129
 20
10.09387
 30
0.0
 10
8.01537
 20
9.99137
 30
0.0
 10
8.06665
 20
9.85156
 30
0.0
 10
8.06676
 20
9.67456
 30
0.0
 10
8.06676
 20
9.67456
 30
0.0
 10
8.09473
 20
9.19918
 30
0.0
 10
8.11788
 20
8.96156
 30
0.0
 10
8.13661
 20
8.96156
 30
0.0
 10
8.13661
 20
8.96156
 30
0.0
 10
8.16458
 20
8.96156
 30
0.0
 10
8.1972
 20
8.90094
 30
0.0
 10
8.2344
 20
8.77974
 30
0.0
 10
8.2344
 20
8.77974
 30
0.0
 10
8.41154
 20
8.57477
 30
0.0
 10
8.5234
 20
8.40699
 30
0.0
 10
8.56997
 20
8.27653
 30
0.0
 10
8.56997
 20
8.27653
 30
0.0
 10
8.67247
 20
7.94096
 30
0.0
 10
8.72372
 20
7.62401
 30
0.0
 10
8.72383
 20
7.32578
 30
0.0
 10
8.72383
 20
7.32578
 30
0.0
 10
8.7237
 20
7.0182
 30
0.0
 10
8.6865
 20
6.73385
 30
0.0
 10
8.61196
 20
6.47297
 30
0.0
 10
8.61196
 20
6.47297
 30
0.0
 10
8.48149
 20
6.25863
 30
0.0
 10
8.41622
 20
6.13287
 30
0.0
 10
8.41622
 20
6.09554
 30
0.0
 10
8.41622
 20
6.09554
 30
0.0
 10
8.44419
 20
6.03961
 30
0.0
 10
8.50935
 20
5.92308
 30
0.0
 10
8.61196
 20
5.74608
 30
0.0
 10
8.61196
 20
5.74608
 30
0.0
 10
8.74243
 20
5.29867
 30
0.0
 10
8.80767
 20
4.92579
 30
0.0
 10
8.80767
 20
4.62755
 30
0.0
 10
8.80767
 20
4.62755
 30
0.0
 10
8.80767
 20
4.40398
 30
0.0
 10
8.71911
 20
3.97048
 30
0.0
 10
8.54211
 20
3.32744
 30
0.0
 10
8.54211
 20
3.32744
 30
0.0
 10
8.53274
 20
3.31807
 30
0.0
 10
8.50464
 20
3.24357
 30
0.0
 10
8.45808
 20
3.10373
 30
0.0
 10
8.45808
 20
3.10373
 30
0.0
 10
8.26245
 20
2.69363
 30
0.0
 10
8.10859
 20
2.3906
 30
0.0
 10
7.99688
 20
2.19499
 30
0.0
 10
7.99688
 20
2.19499
 30
0.0
 10
7.86628
 20
1.93395
 30
0.0
 10
7.80101
 20
1.72898
 30
0.0
 10
7.80101
 20
1.57981
 30
0.0
 10
7.80101
 20
1.57981
 30
0.0
 10
7.80101
 20
1.39344
 30
0.0
 10
7.78696
 20
1.22567
 30
0.0
 10
7.75913
 20
1.07649
 30
0.0
 10
7.75913
 20
1.07649
 30
0.0
 10
7.75913
 20
1.07649
 30
0.0
 10
7.75913
 20
1.06257
 30
0.0
 10
7.75913
 20
1.06257
 30
0.0
 10
7.75913
 20
1.06257
 30
0.0
 10
7.79633
 20
0.85746
 30
0.0
 10
7.81506
 20
0.59656
 30
0.0
 10
7.81506
 20
0.27975
 30
0.0
 10
7.81506
 20
0.27975
 30
0.0
 10
7.81506
 20
-0.54977
 30
0.0
 10
7.83834
 20
-0.96456
 30
0.0
 10
7.88504
 20
-0.96456
 30
0.0
 10
7.88504
 20
-0.96456
 30
0.0
 10
7.88504
 20
-0.96456
 30
0.0
 10
8.02471
 20
-1.49584
 30
0.0
 10
8.02471
 20
-1.49584
 30
0.0
 10
8.02471
 20
-1.49584
 30
0.0
 10
8.08062
 20
-1.64491
 30
0.0
 10
8.13189
 20
-1.99918
 30
0.0
 10
8.17857
 20
-2.5583
 30
0.0
 10
8.17857
 20
-2.5583
 30
0.0
 10
8.17844
 20
-2.59563
 30
0.0
 10
8.2717
 20
-2.64688
 30
0.0
 10
8.45805
 20
-2.71216
 30
0.0
 10
8.45805
 20
-2.71216
 30
0.0
 10
8.45805
 20
-2.71216
 30
0.0
 10
8.75174
 20
-2.83794
 30
0.0
 10
8.75174
 20
-2.83794
 30
0.0
 10
8.75174
 20
-2.83794
 30
0.0
 10
8.99405
 20
-2.96841
 30
0.0
 10
9.11512
 20
-3.08022
 30
0.0
 10
9.11512
 20
-3.17351
 30
0.0
 10
9.11512
 20
-3.17351
 30
0.0
 10
9.13385
 20
-3.20148
 30
0.0
 10
9.14322
 20
-3.2527
 30
0.0
 10
9.14322
 20
-3.32723
 30
0.0
 10
9.14322
 20
-3.32723
 30
0.0
 10
9.14322
 20
-3.49503
 30
0.0
 10
9.0453
 20
-3.61155
 30
0.0
 10
8.84953
 20
-3.67685
 30
0.0
 10
8.84953
 20
-3.67685
 30
0.0
 10
8.70986
 20
-3.71405
 30
0.0
 10
8.61193
 20
-3.75136
 30
0.0
 10
8.55597
 20
-3.78872
 30
0.0
 10
8.55597
 20
-3.78872
 30
0.0
 10
8.4441
 20
-3.83529
 30
0.0
 10
8.33697
 20
-3.86791
 30
0.0
 10
8.23434
 20
-3.88651
 30
0.0
 10
8.23434
 20
-3.88651
 30
0.0
 10
8.23434
 20
-3.88651
 30
0.0
 10
8.23434
 20
-3.90056
 30
0.0
 10
8.23434
 20
-3.90056
 30
0.0
 10
8.23434
 20
-3.90056
 30
0.0
 10
8.23434
 20
-3.90056
 30
0.0
 10
8.26244
 20
-4.08225
 30
0.0
 10
8.26244
 20
-4.08225
 30
0.0
 10
8.26244
 20
-4.08225
 30
0.0
 10
8.26244
 20
-4.08225
 30
0.0
 10
8.26244
 20
-4.18004
 30
0.0
 10
8.26244
 20
-4.18004
 30
0.0
 10
8.26244
 20
-4.18004
 30
0.0
 10
8.26244
 20
-4.40375
 30
0.0
 10
8.18312
 20
-4.53889
 30
0.0
 10
8.02471
 20
-4.58557
 30
0.0
 10
8.02471
 20
-4.58557
 30
0.0
 10
7.83834
 20
-4.58557
 30
0.0
 10
7.67993
 20
-4.61809
 30
0.0
 10
7.54947
 20
-4.68339
 30
0.0
 10
7.54947
 20
-4.68339
 30
0.0
 10
7.38167
 20
-4.7207
 30
0.0
 10
7.19051
 20
-4.7393
 30
0.0
 10
6.97614
 20
-4.7393
 30
0.0
 10
6.97614
 20
-4.7393
 30
0.0
 10
6.68727
 20
-4.7393
 30
0.0
 10
6.39842
 20
-4.674
 30
0.0
 10
6.10942
 20
-4.54356
 30
0.0
 10
6.10942
 20
-4.54356
 30
0.0
 10
5.77385
 20
-4.45043
 30
0.0
 10
5.45704
 20
-4.40375
 30
0.0
 10
5.15867
 20
-4.40375
 30
0.0
 10
5.15867
 20
-4.40375
 30
0.0
 10
5.15867
 20
-4.40375
 30
0.0
 10
4.96304
 20
-4.40374
 30
0.0
 10
4.96304
 20
-4.40374
 30
0.0
 10
4.96304
 20
-4.40374
 30
0.0
 10
4.21726
 20
-4.40374
 30
0.0
 10
3.84451
 20
-4.42247
 30
0.0
 10
3.84451
 20
-4.45967
 30
0.0
 10
3.84451
 20
-4.45967
 30
0.0
 10
3.84451
 20
-4.4784
 30
0.0
 10
3.27134
 20
-4.49698
 30
0.0
 10
2.12498
 20
-4.51558
 30
0.0
 10
2.12498
 20
-4.51558
 30
0.0
 10
2.12498
 20
-4.51558
 30
0.0
 10
1.1044
 20
-4.54355
 30
0.0
 10
1.1044
 20
-4.54355
 30
0.0
 10
1.1044
 20
-4.54355
 30
0.0
 10
1.1044
 20
-4.54355
 30
0.0
 10
0.8248
 20
-4.54354
 30
0.0
 10
0.8248
 20
-4.54354
 30
0.0
 10
0.8248
 20
-4.54354
 30
0.0
 10
0.23769
 20
-4.54354
 30
0.0
 10
-0.1305
 20
-4.48308
 30
0.0
 10
-0.27962
 20
-4.36185
 30
0.0
 10
-0.27962
 20
-4.36185
 30
0.0
 10
-0.46607
 20
-4.25938
 30
0.0
 10
-0.68038
 20
-4.20802
 30
0.0
 10
-0.92277
 20
-4.20802
 30
0.0
 10
-0.92277
 20
-4.20802
 30
0.0
 10
-1.33285
 20
-4.20802
 30
0.0
 10
-1.63109
 20
-4.278
 30
0.0
 10
-1.81746
 20
-4.41781
 30
0.0
 10
-1.81746
 20
-4.41781
 30
0.0
 10
-2.00391
 20
-4.52968
 30
0.0
 10
-2.46061
 20
-4.76259
 30
0.0
 10
-3.1876
 20
-5.11676
 30
0.0
 10
-3.1876
 20
-5.11676
 30
0.0
 10
-3.53246
 20
-5.30326
 30
0.0
 10
-3.7328
 20
-5.4337
 30
0.0
 10
-3.78873
 20
-5.50824
 30
0.0
 10
-3.78873
 20
-5.50824
 30
0.0
 10
-3.78873
 20
-5.58291
 30
0.0
 10
-3.7981
 20
-5.62011
 30
0.0
 10
-3.8167
 20
-5.62011
 30
0.0
 10
-3.8167
 20
-5.62011
 30
0.0
 10
-3.89129
 20
-5.62011
 30
0.0
 10
-3.92857
 20
-5.69933
 30
0.0
 10
-3.92857
 20
-5.85773
 30
0.0
 10
-3.92857
 20
-5.85773
 30
0.0
 10
-3.92857
 20
-5.85773
 30
0.0
 10
-3.92857
 20
-5.85773
 30
0.0
 10
-3.92857
 20
-5.85773
 30
0.0
 10
-3.92857
 20
-5.85773
 30
0.0
 10
-3.92857
 20
-5.8857
 30
0.0
 10
-3.94254
 20
-5.89975
 30
0.0
 10
-3.97051
 20
-5.89975
 30
0.0
 10
-3.97051
 20
-5.89975
 30
0.0
 10
-3.98919
 20
-5.89975
 30
0.0
 10
-4.00784
 20
-5.99754
 30
0.0
 10
-4.02644
 20
-6.19331
 30
0.0
 10
-4.02644
 20
-6.19331
 30
0.0
 10
-4.05441
 20
-6.19331
 30
0.0
 10
-4.06838
 20
-6.28655
 30
0.0
 10
-4.06838
 20
-6.47292
 30
0.0
 10
-4.06838
 20
-6.47292
 30
0.0
 10
-4.06838
 20
-6.47292
 30
0.0
 10
-4.08235
 20
-6.48684
 30
0.0
 10
-4.08235
 20
-6.48684
 30
0.0
 10
-4.08235
 20
-6.48684
 30
0.0
 10
-4.08235
 20
-6.48684
 30
0.0
 10
-4.09635
 20
-6.48683
 30
0.0
 10
-4.09635
 20
-6.48683
 30
0.0
 10
-4.09635
 20
-6.48683
 30
0.0
 10
-4.09635
 20
-6.48683
 30
0.0
 10
-4.13829
 20
-6.47291
 30
0.0
 10
-4.13829
 20
-6.47291
 30
0.0
 10
-4.13829
 20
-6.47291
 30
0.0
 10
-4.13829
 20
-6.61272
 30
0.0
 10
-4.15689
 20
-6.7013
 30
0.0
 10
-4.19422
 20
-6.7385
 30
0.0
 10
-4.19422
 20
-6.7385
 30
0.0
 10
-4.20353
 20
-6.81314
 30
0.0
 10
-4.2175
 20
-6.85037
 30
0.0
 10
-4.23616
 20
-6.85037
 30
0.0
 10
-4.23616
 20
-6.85037
 30
0.0
 10
-4.23616
 20
-6.85037
 30
0.0
 10
-4.23616
 20
-6.85037
 30
0.0
 10
-4.23616
 20
-6.85037
 30
0.0
 10
-4.23616
 20
-6.85037
 30
0.0
 10
-4.23616
 20
-6.85037
 30
0.0
 10
-4.25012
 20
-6.85037
 30
0.0
 10
-4.25012
 20
-6.85037
 30
0.0
 10
-4.25012
 20
-6.85037
 30
0.0
 10
-4.25012
 20
-6.85037
 30
0.0
 10
-4.26404
 20
-6.85037
 30
0.0
 10
-4.26404
 20
-6.85037
 30
0.0
 10
-4.26404
 20
-6.85037
 30
0.0
 10
-4.28277
 20
-6.97158
 30
0.0
 10
-4.32003
 20
-7.06937
 30
0.0
 10
-4.37596
 20
-7.14406
 30
0.0
 10
-4.37596
 20
-7.14406
 30
0.0
 10
-4.38527
 20
-7.19983
 30
0.0
 10
-4.39924
 20
-7.22793
 30
0.0
 10
-4.4179
 20
-7.22793
 30
0.0
 10
-4.4179
 20
-7.22793
 30
0.0
 10
-4.4179
 20
-7.22793
 30
0.0
 10
-4.45978
 20
-7.21391
 30
0.0
 10
-4.45978
 20
-7.21391
 30
0.0
 10
-4.45978
 20
-7.21391
 30
0.0
 10
-4.45978
 20
-7.21391
 30
0.0
 10
-4.50172
 20
-7.32578
 30
0.0
 10
-4.50172
 20
-7.32578
 30
0.0
 10
-4.50172
 20
-7.32578
 30
0.0
 10
-4.50172
 20
-7.32578
 30
0.0
 10
-4.51576
 20
-7.32577
 30
0.0
 10
-4.51576
 20
-7.32577
 30
0.0
 10
-4.51576
 20
-7.32577
 30
0.0
 10
-4.54365
 20
-7.30717
 30
0.0
 10
-4.56233
 20
-7.2978
 30
0.0
 10
-4.57161
 20
-7.2978
 30
0.0
 10
-4.57161
 20
-7.2978
 30
0.0
 10
-4.57161
 20
-7.2978
 30
0.0
 10
-4.57161
 20
-7.36778
 30
0.0
 10
-4.57161
 20
-7.36778
 30
0.0
 10
-4.57161
 20
-7.36778
 30
0.0
 10
-4.57161
 20
-7.42369
 30
0.0
 10
-4.59958
 20
-7.45623
 30
0.0
 10
-4.65548
 20
-7.46557
 30
0.0
 10
-4.65548
 20
-7.46557
 30
0.0
 10
-4.66485
 20
-7.54947
 30
0.0
 10
-4.69281
 20
-7.59135
 30
0.0
 10
-4.73938
 20
-7.59135
 30
0.0
 10
-4.73938
 20
-7.59135
 30
0.0
 10
-4.74875
 20
-7.64726
 30
0.0
 10
-4.77663
 20
-7.68927
 30
0.0
 10
-4.82325
 20
-7.71724
 30
0.0
 10
-4.82325
 20
-7.71724
 30
0.0
 10
-4.82325
 20
-7.75444
 30
0.0
 10
-4.84659
 20
-7.77317
 30
0.0
 10
-4.89315
 20
-7.77317
 30
0.0
 10
-4.89315
 20
-7.77317
 30
0.0
 10
-4.96768
 20
-7.87564
 30
0.0
 10
-5.0143
 20
-7.92689
 30
0.0
 10
-5.03298
 20
-7.92689
 30
0.0
 10
-5.03298
 20
-7.92689
 30
0.0
 10
-5.06095
 20
-7.92689
 30
0.0
 10
-5.0796
 20
-7.96422
 30
0.0
 10
-5.08891
 20
-8.03876
 30
0.0
 10
-5.08891
 20
-8.03876
 30
0.0
 10
-5.08891
 20
-8.03876
 30
0.0
 10
-5.08891
 20
-8.05281
 30
0.0
 10
-5.08891
 20
-8.05281
 30
0.0
 10
-5.08891
 20
-8.05281
 30
0.0
 10
-5.08891
 20
-8.05281
 30
0.0
 10
-5.11688
 20
-8.06673
 30
0.0
 10
-5.11688
 20
-8.06673
 30
0.0
 10
-5.11688
 20
-8.06673
 30
0.0
 10
-5.11688
 20
-8.06673
 30
0.0
 10
-5.17281
 20
-8.05281
 30
0.0
 10
-5.17281
 20
-8.05281
 30
0.0
 10
-5.17281
 20
-8.05281
 30
0.0
 10
-5.21006
 20
-8.08064
 30
0.0
 10
-5.24734
 20
-8.1692
 30
0.0
 10
-5.2846
 20
-8.3184
 30
0.0
 10
-5.2846
 20
-8.3184
 30
0.0
 10
-5.2846
 20
-8.3184
 30
0.0
 10
-5.32662
 20
-8.33229
 30
0.0
 10
-5.32662
 20
-8.33229
 30
0.0
 10
-5.32662
 20
-8.33229
 30
0.0
 10
-5.32662
 20
-8.33229
 30
0.0
 10
-5.34054
 20
-8.3184
 30
0.0
 10
-5.34054
 20
-8.3184
 30
0.0
 10
-5.34054
 20
-8.3184
 30
0.0
 10
-5.38716
 20
-8.42087
 30
0.0
 10
-5.41981
 20
-8.47681
 30
0.0
 10
-5.43841
 20
-8.48617
 30
0.0
 10
-5.43841
 20
-8.48617
 30
0.0
 10
-5.513
 20
-8.55147
 30
0.0
 10
-5.70873
 20
-8.77973
 30
0.0
 10
-6.02563
 20
-9.17123
 30
0.0
 10
-6.02563
 20
-9.17123
 30
0.0
 10
-6.34252
 20
-9.55334
 30
0.0
 10
-6.56617
 20
-9.77705
 30
0.0
 10
-6.69667
 20
-9.84219
 30
0.0
 10
-6.69667
 20
-9.84219
 30
0.0
 10
-6.92038
 20
-10.00073
 30
0.0
 10
-7.18133
 20
-10.15448
 30
0.0
 10
-7.47957
 20
-10.30365
 30
0.0
 10
-7.47957
 20
-10.30365
 30
0.0
 10
-7.69391
 20
-10.42472
 30
0.0
 10
-7.96886
 20
-10.48534
 30
0.0
 10
-8.30441
 20
-10.48534
 30
0.0
 10
-8.30441
 20
-10.48534
 30
0.0
 10
-8.61199
 20
-10.48534
 30
0.0
 10
-8.85892
 20
-10.37816
 30
0.0
 10
-9.04535
 20
-10.16384
 30
0.0
 10
-9.04535
 20
-10.16384
 30
0.0
 10
-9.11062
 20
-10.02399
 30
0.0
 10
-9.14327
 20
-9.84217
 30
0.0
 10
-9.14327
 20
-9.6186
 30
0.0
 10
-9.14327
 20
-9.6186
 30
0.0
 10
-9.14327
 20
-9.6186
 30
0.0
 10
-9.14327
 20
-9.56269
 30
0.0
 10
-9.14327
 20
-9.56269
 30
0.0
 10
-9.14327
 20
-9.56269
 30
0.0
 10
-9.14327
 20
-9.29229
 30
0.0
 10
-9.07337
 20
-9.07326
 30
0.0
 10
-8.93356
 20
-8.90562
 30
0.0
 10
-8.93356
 20
-8.90562
 30
0.0
 10
-8.85897
 20
-8.78439
 30
0.0
 10
-8.53277
 20
-8.41633
 30
0.0
 10
-7.95492
 20
-7.80114
 30
0.0
 10
-7.95492
 20
-7.80114
 30
0.0
 10
-7.95492
 20
-7.80114
 30
0.0
 10
-7.33979
 20
-7.07409
 30
0.0
 10
-7.33979
 20
-7.07409
 30
0.0
 10
-7.33979
 20
-7.07409
 30
0.0
 10
-7.30254
 20
-7.02752
 30
0.0
 10
-7.26989
 20
-6.92502
 30
0.0
 10
-7.24192
 20
-6.76649
 30
0.0
 10
-7.24192
 20
-6.76649
 30
0.0
 10
-7.19535
 20
-6.44965
 30
0.0
 10
-6.93432
 20
-5.90445
 30
0.0
 10
-6.45902
 20
-5.13084
 30
0.0
 10
-6.45902
 20
-5.13084
 30
0.0
 10
-6.17009
 20
-4.64626
 30
0.0
 10
-5.95107
 20
-4.306
 30
0.0
 10
-5.80195
 20
-4.11026
 30
0.0
 10
-5.80195
 20
-4.11026
 30
0.0
 10
-5.71805
 20
-3.93312
 30
0.0
 10
-5.48506
 20
-3.7141
 30
0.0
 10
-5.10295
 20
-3.45319
 30
0.0
 10
-5.10295
 20
-3.45319
 30
0.0
 10
-4.64623
 20
-3.11762
 30
0.0
 10
-4.20818
 20
-2.86597
 30
0.0
 10
-3.78874
 20
-2.6982
 30
0.0
 10
-3.78874
 20
-2.6982
 30
0.0
 10
-3.55575
 20
-2.60504
 30
0.0
 10
-3.31805
 20
-2.48383
 30
0.0
 10
-3.07574
 20
-2.33466
 30
0.0
 10
-3.07574
 20
-2.33466
 30
0.0
 10
-2.90797
 20
-2.25092
 30
0.0
 10
-2.71689
 20
-2.2089
 30
0.0
 10
-2.50255
 20
-2.2089
 30
0.0
 10
-2.50255
 20
-2.2089
 30
0.0
 10
-2.44662
 20
-2.18093
 30
0.0
 10
-2.40468
 20
-2.13905
 30
0.0
 10
-2.37671
 20
-2.08298
 30
0.0
 10
-2.37671
 20
-2.08298
 30
0.0
 10
-2.37671
 20
-2.08298
 30
0.0
 10
-2.34874
 20
0.08396
 30
0.0
 10
-2.34874
 20
0.08396
 30
0.0
 10
-2.34874
 20
0.08396
 30
0.0
 10
-2.34874
 20
0.08396
 30
0.0
 10
-2.34874
 20
0.22363
 30
0.0
 10
-2.34874
 20
0.22363
 30
0.0
 10
-2.34874
 20
0.22363
 30
0.0
 10
-2.34874
 20
0.22363
 30
0.0
 10
-2.39068
 20
1.31419
 30
0.0
 10
-2.39068
 20
1.31419
 30
0.0
 10
-2.39068
 20
1.31419
 30
0.0
 10
-2.39068
 20
1.31419
 30
0.0
 10
-2.39068
 20
1.32812
 30
0.0
 10
-2.39068
 20
1.32812
 30
0.0
 10
-2.39068
 20
1.32812
 30
0.0
 10
-2.39068
 20
1.65432
 30
0.0
 10
-2.31146
 20
2.07843
 30
0.0
 10
-2.153
 20
2.60037
 30
0.0
 10
-2.153
 20
2.60037
 30
0.0
 10
-2.00388
 20
3.22479
 30
0.0
 10
-1.82214
 20
3.79343
 30
0.0
 10
-1.6078
 20
4.30598
 30
0.0
 10
-1.6078
 20
4.30598
 30
0.0
 10
-1.44003
 20
4.73479
 30
0.0
 10
-1.26763
 20
5.05163
 30
0.0
 10
-1.09054
 20
5.2566
 30
0.0
 10
-1.09054
 20
5.2566
 30
0.0
 10
-0.83887
 20
5.58291
 30
0.0
 10
-0.59188
 20
5.93708
 30
0.0
 10
-0.34952
 20
6.31922
 30
0.0
 10
-0.34952
 20
6.31922
 30
0.0
 10
-0.20977
 20
6.52419
 30
0.0
 10
-0.03263
 20
6.69197
 30
0.0
 10
0.18179
 20
6.82243
 30
0.0
 10
0.18179
 20
6.82243
 30
0.0
 10
0.75014
 20
7.22327
 30
0.0
 10
1.16506
 20
7.44698
 30
0.0
 10
1.42594
 20
7.49355
 30
0.0
 10
1.42594
 20
7.49355
 30
0.0
 10
1.73354
 20
7.56806
 30
0.0
 10
2.06912
 20
7.62867
 30
0.0
 10
2.43263
 20
7.67524
 30
0.0
 10
2.43263
 20
7.67524
 30
0.0
 10
2.50714
 20
7.67524
 30
0.0
 10
2.58638
 20
7.74991
 30
0.0
 10
2.67023
 20
7.89895
 30
0.0
 10
2.67023
 20
7.89895
 30
0.0
 10
2.70756
 20
7.99219
 30
0.0
 10
2.72616
 20
8.09937
 30
0.0
 10
2.72616
 20
8.22045
 30
0.0
 10
2.72616
 20
8.22045
 30
0.0
 10
2.72616
 20
8.22045
 30
0.0
 10
2.72616
 20
8.27652
 30
0.0
 10
2.72616
 20
8.27652
 30
0.0
 10
2.72616
 20
8.27652
 30
0.0
 10
2.67946
 20
8.61196
 30
0.0
 10
2.65631
 20
8.81706
 30
0.0
 10
2.65631
 20
8.8916
 30
0.0
 10
2.65631
 20
8.8916
 30
0.0
 10
2.65631
 20
8.8916
 30
0.0
 10
2.6563
 20
8.91954
 30
0.0
 10
2.6563
 20
8.91954
 30
0.0
 10
2.6563
 20
8.91954
 30
0.0
 10
2.6563
 20
9.10591
 30
0.0
 10
2.79597
 20
9.36227
 30
0.0
 10
3.07561
 20
9.68847
 30
0.0
 10
3.07561
 20
9.68847
 30
0.0
 10
3.28058
 20
9.86561
 30
0.0
 10
3.47645
 20
9.97745
 30
0.0
 10
3.66283
 20
10.02401
 30
0.0
 10
3.66283
 20
10.02401
 30
0.0
 10
4.0356
 20
10.20102
 30
0.0
 10
4.31066
 20
10.2896
 30
0.0
 10
4.4877
 20
10.28973
 30
0.0
 10
4.4877
 20
10.28973
 30
0.0
 10
4.58094
 20
10.2896
 30
0.0
 10
4.96308
 20
10.35021
 30
0.0
 10
5.63419
 20
10.47142
 30
0.0
 10
5.63419
 20
10.47142
 30
0.0
 10
5.63419
 20
10.47142
 30
0.0
 10
5.96965
 20
10.48535
 30
0.0
 10
5.96965
 20
10.48535
 30
0.0
 10
5.96965
 20
10.48535
 30
0.0
 10
5.96965
 20
10.48535
 30
0.0
 10
5.96965
 20
10.48535
 30
0.0
 10
5.96965
 20
10.48535
 30
0.0
  0
ENDSEC
  0
SECTION
  2
OBJECTS
  0
DICTIONARY
  5
C
330
0
100
AcDbDictionary
281
     1
  3
ACAD_GROUP
350
D
  3
ACAD_LAYOUT
350
1A
  3
ACAD_MATERIAL
350
3B
  3
ACAD_MLEADERSTYLE
350
63
  3
ACAD_MLINESTYLE
350
17
  3
ACAD_PLOTSETTINGS
350
19
  3
ACAD_PLOTSTYLENAME
350
E
  3
ACAD_TABLESTYLE
350
62
  3
ACAD_VISUALSTYLE
350
2A
  0
DICTIONARY
  5
D
102
{ACAD_REACTORS
330
C
102
}
330
C
100
AcDbDictionary
281
     1
  0
DICTIONARY
  5
1A
102
{ACAD_REACTORS
330
C
102
}
330
C
100
AcDbDictionary
281
     1
  3
Layout1
350
1E
  3
Layout2
350
26
  3
Model
350
22
  0
DICTIONARY
  5
3B
102
{ACAD_REACTORS
330
C
102
}
330
C
100
AcDbDictionary
281
     1
  3
ByBlock
350
3D
  3
ByLayer
350
3C
  3
Global
350
3E
  0
DICTIONARY
  5
63
102
{ACAD_REACTORS
330
C
102
}
330
C
100
AcDbDictionary
281
     1
  0
DICTIONARY
  5
17
102
{ACAD_REACTORS
330
C
102
}
330
C
100
AcDbDictionary
281
     1
  3
Standard
350
18
  0
DICTIONARY
  5
19
102
{ACAD_REACTORS
330
C
102
}
330
C
100
AcDbDictionary
281
     1
  0
ACDBDICTIONARYWDFLT
  5
E
102
{ACAD_REACTORS
330
C
102
}
330
C
100
AcDbDictionary
281
     1
  3
Normal
350
F
100
AcDbDictionaryWithDefault
340
F
  0
DICTIONARY
  5
62
102
{ACAD_REACTORS
330
C
102
}
330
C
100
AcDbDictionary
281
     1
  0
DICTIONARY
  5
2A
102
{ACAD_REACTORS
330
C
102
}
330
C
100
AcDbDictionary
281
     1
  3
2dWireframe
350
2F
  3
3D Hidden
350
31
  3
3dWireframe
350
30
  3
Basic
350
32
  3
Brighten
350
36
  3
ColorChange
350
3A
  3
Conceptual
350
34
  3
Dim
350
35
  3
Facepattern
350
39
  3
Flat
350
2B
  3
FlatWithEdges
350
2C
  3
Gouraud
350
2D
  3
GouraudWithEdges
350
2E
  3
Linepattern
350
38
  3
Realistic
350
33
  3
Thicken
350
37
  0
LAYOUT
  5
1E
102
{ACAD_REACTORS
330
1A
102
}
330
1A
100
AcDbPlotSettings
  1

  2
none_device
  4

  6

 40
0.0
 41
0.0
 42
0.0
 43
0.0
 44
0.0
 45
0.0
 46
0.0
 47
0.0
 48
0.0
 49
0.0
140
0.0
141
0.0
142
1.0
143
1.0
 70
   688
 72
     0
 73
     0
 74
     5
  7

 75
    16
 76
     0
 77
     2
 78
   300
147
1.0
148
0.0
149
0.0
100
AcDbLayout
  1
Layout1
 70
     1
 71
     1
 10
0.0
 20
0.0
 11
12.0
 21
9.0
 12
0.0
 22
0.0
 32
0.0
 14
1.000000000000000E+20
 24
1.000000000000000E+20
 34
1.000000000000000E+20
 15
-1.000000000000000E+20
 25
-1.000000000000000E+20
 35
-1.000000000000000E+20
146
0.0
 13
0.0
 23
0.0
 33
0.0
 16
1.0
 26
0.0
 36
0.0
 17
0.0
 27
1.0
 37
0.0
 76
     0
330
1B
  0
LAYOUT
  5
26
102
{ACAD_REACTORS
330
1A
102
}
330
1A
100
AcDbPlotSettings
  1

  2
none_device
  4

  6

 40
0.0
 41
0.0
 42
0.0
 43
0.0
 44
0.0
 45
0.0
 46
0.0
 47
0.0
 48
0.0
 49
0.0
140
0.0
141
0.0
142
1.0
143
1.0
 70
   688
 72
     0
 73
     0
 74
     5
  7

 75
    16
 76
     0
 77
     2
 78
   300
147
1.0
148
0.0
149
0.0
100
AcDbLayout
  1
Layout2
 70
     1
 71
     2
 10
0.0
 20
0.0
 11
0.0
 21
0.0
 12
0.0
 22
0.0
 32
0.0
 14
0.0
 24
0.0
 34
0.0
 15
0.0
 25
0.0
 35
0.0
146
0.0
 13
0.0
 23
0.0
 33
0.0
 16
1.0
 26
0.0
 36
0.0
 17
0.0
 27
1.0
 37
0.0
 76
     0
330
23
  0
LAYOUT
  5
22
102
{ACAD_REACTORS
330
1A
102
}
330
1A
100
AcDbPlotSettings
  1

  2
none_device
  4

  6

 40
0.0
 41
0.0
 42
0.0
 43
0.0
 44
0.0
 45
0.0
 46
0.0
 47
0.0
 48
0.0
 49
0.0
140
0.0
141
0.0
142
1.0
143
1.0
 70
  1712
 72
     0
 73
     0
 74
     0
  7

 75
     0
 76
     0
 77
     2
 78
   300
147
1.0
148
0.0
149
0.0
100
AcDbLayout
  1
Model
 70
     1
 71
     0
 10
0.0
 20
0.0
 11
12.0
 21
9.0
 12
0.0
 22
0.0
 32
0.0
 14
-9.14327
 24
-10.48534
 34
0.0
 15
9.14322
 25
10.48535
 35
0.0
146
0.0
 13
0.0
 23
0.0
 33
0.0
 16
1.0
 26
0.0
 36
0.0
 17
0.0
 27
1.0
 37
0.0
 76
     0
330
1F
331
29
  0
MATERIAL
  5
3D
102
{ACAD_REACTORS
330
3B
102
}
330
3B
100
AcDbMaterial
  1
ByBlock
 72
     1
 94
      127
  0
MATERIAL
  5
3C
102
{ACAD_REACTORS
330
3B
102
}
330
3B
100
AcDbMaterial
  1
ByLayer
 72
     1
 94
      127
  0
MATERIAL
  5
3E
102
{ACAD_REACTORS
330
3B
102
}
330
3B
100
AcDbMaterial
  1
Global
 72
     1
 94
      127
  0
MLINESTYLE
  5
18
102
{ACAD_REACTORS
330
17
102
}
330
17
100
AcDbMlineStyle
  2
Standard
 70
     0
  3

 62
   256
 51
90.0
 52
90.0
 71
     2
 49
0.5
 62
   256
  6
BYLAYER
 49
-0.5
 62
   256
  6
BYLAYER
  0
ACDBPLACEHOLDER
  5
F
102
{ACAD_REACTORS
330
E
102
}
330
E
  0
VISUALSTYLE
  5
2F
102
{ACAD_REACTORS
330
2A
102
}
102
{ACAD_XDICTIONARY
360
4A
102
}
330
2A
100
AcDbVisualStyle
  2
2dWireframe
 70
     4
 71
     0
 72
     2
 73
     0
 90
        0
 40
-0.6
 41
-30.0
 62
     5
 63
     7
421
 16777215
 74
     1
 91
        4
 64
     7
 65
   257
 75
     1
175
     1
 42
1.0
 92
        0
 66
   257
 43
1.0
 76
     1
 77
     6
 78
     2
 67
     7
 79
     5
170
     0
171
     0
290
     0
174
     0
 93
        1
 44
0.0
173
     0
291
     0
 45
0.0
  0
VISUALSTYLE
  5
31
102
{ACAD_REACTORS
330
2A
102
}
102
{ACAD_XDICTIONARY
360
4E
102
}
330
2A
100
AcDbVisualStyle
  2
3D Hidden
 70
     6
 71
     1
 72
     2
 73
     2
 90
        0
 40
-0.6
 41
-30.0
 62
     5
 63
     7
421
 16777215
 74
     2
 91
        2
 64
     7
 65
   257
 75
     2
175
     1
 42
40.0
 92
        0
 66
   257
 43
1.0
 76
     1
 77
     6
 78
     2
 67
     7
 79
     3
170
     0
171
     0
290
     0
174
     0
 93
        1
 44
0.0
173
     0
291
     0
 45
0.0
  0
VISUALSTYLE
  5
30
102
{ACAD_REACTORS
330
2A
102
}
102
{ACAD_XDICTIONARY
360
4C
102
}
330
2A
100
AcDbVisualStyle
  2
3dWireframe
 70
     5
 71
     0
 72
     2
 73
     0
 90
        0
 40
-0.6
 41
-30.0
 62
     5
 63
     7
421
 16777215
 74
     1
 91
        4
 64
     7
 65
   257
 75
     1
175
     1
 42
1.0
 92
        0
 66
   257
 43
1.0
 76
     1
 77
     6
 78
     2
 67
     7
 79
     5
170
     0
171
     0
290
     0
174
     0
 93
        1
 44
0.0
173
     0
291
     0
 45
0.0
  0
VISUALSTYLE
  5
32
102
{ACAD_REACTORS
330
2A
102
}
102
{ACAD_XDICTIONARY
360
50
102
}
330
2A
100
AcDbVisualStyle
  2
Basic
 70
     7
 71
     1
 72
     0
 73
     1
 90
        0
 40
-0.6
 41
-30.0
 62
     5
 63
     7
421
 16777215
 74
     0
 91
        4
 64
     7
 65
   257
 75
     1
175
     1
 42
1.0
 92
        8
 66
     7
 43
1.0
 76
     1
 77
     6
 78
     2
 67
     7
 79
     5
170
     0
171
     0
290
     0
174
     0
 93
        1
 44
0.0
173
     0
291
     1
 45
0.0
  0
VISUALSTYLE
  5
36
102
{ACAD_REACTORS
330
2A
102
}
102
{ACAD_XDICTIONARY
360
58
102
}
330
2A
100
AcDbVisualStyle
  2
Brighten
 70
    12
 71
     2
 72
     2
 73
     0
 90
        0
 40
-0.6
 41
-30.0
 62
     5
 63
     7
421
 16777215
 74
     1
 91
        4
 64
     7
 65
   257
 75
     1
175
     1
 42
1.0
 92
        8
 66
     7
 43
1.0
 76
     1
 77
     6
 78
     2
 67
     7
 79
     5
170
     0
171
     0
290
     0
174
     0
 93
        1
 44
50.0
173
     0
291
     1
 45
0.0
  0
VISUALSTYLE
  5
3A
102
{ACAD_REACTORS
330
2A
102
}
102
{ACAD_XDICTIONARY
360
60
102
}
330
2A
100
AcDbVisualStyle
  2
ColorChange
 70
    16
 71
     2
 72
     2
 73
     3
 90
        0
 40
-0.6
 41
-30.0
 62
     5
 63
     8
421
  8421504
 74
     1
 91
        4
 64
     7
 65
   257
 75
     1
175
     1
 42
1.0
 92
        8
 66
     8
424
  8421504
 43
1.0
 76
     1
 77
     6
 78
     2
 67
     7
 79
     5
170
     0
171
     0
290
     0
174
     0
 93
        1
 44
0.0
173
     0
291
     1
 45
0.0
  0
VISUALSTYLE
  5
34
102
{ACAD_REACTORS
330
2A
102
}
102
{ACAD_XDICTIONARY
360
54
102
}
330
2A
100
AcDbVisualStyle
  2
Conceptual
 70
     9
 71
     3
 72
     2
 73
     0
 90
        0
 40
-0.6
 41
-30.0
 62
     5
 63
     7
421
 16777215
 74
     2
 91
        2
 64
     7
 65
   257
 75
     1
175
     1
 42
40.0
 92
        8
 66
     7
 43
1.0
 76
     1
 77
     6
 78
     2
 67
     7
 79
     3
170
     0
171
     0
290
     0
174
     0
 93
        1
 44
0.0
173
     0
291
     0
 45
0.0
  0
VISUALSTYLE
  5
35
102
{ACAD_REACTORS
330
2A
102
}
102
{ACAD_XDICTIONARY
360
56
102
}
330
2A
100
AcDbVisualStyle
  2
Dim
 70
    11
 71
     2
 72
     2
 73
     0
 90
        0
 40
-0.6
 41
-30.0
 62
     5
 63
     7
421
 16777215
 74
     1
 91
        4
 64
     7
 65
   257
 75
     1
175
     1
 42
1.0
 92
        8
 66
     7
 43
1.0
 76
     1
 77
     6
 78
     2
 67
     7
 79
     5
170
     0
171
     0
290
     0
174
     0
 93
        1
 44
-50.0
173
     0
291
     1
 45
0.0
  0
VISUALSTYLE
  5
39
102
{ACAD_REACTORS
330
2A
102
}
102
{ACAD_XDICTIONARY
360
5E
102
}
330
2A
100
AcDbVisualStyle
  2
Facepattern
 70
    15
 71
     2
 72
     2
 73
     0
 90
        0
 40
-0.6
 41
-30.0
 62
     5
 63
     7
421
 16777215
 74
     1
 91
        4
 64
     7
 65
   257
 75
     1
175
     1
 42
1.0
 92
        8
 66
     7
 43
1.0
 76
     1
 77
     6
 78
     2
 67
     7
 79
     5
170
     0
171
     0
290
     0
174
     0
 93
        1
 44
0.0
173
     0
291
     1
 45
0.0
  0
VISUALSTYLE
  5
2B
102
{ACAD_REACTORS
330
2A
102
}
102
{ACAD_XDICTIONARY
360
42
102
}
330
2A
100
AcDbVisualStyle
  2
Flat
 70
     0
 71
     2
 72
     1
 73
     1
 90
        2
 40
-0.6
 41
30.0
 62
     5
 63
     7
421
 16777215
 74
     0
 91
        4
 64
     7
 65
   257
 75
     1
175
     1
 42
1.0
 92
        8
 66
     7
 43
1.0
 76
     1
 77
     6
 78
     2
 67
     7
 79
     5
170
     0
171
     0
290
     0
174
     0
 93
       13
 44
0.0
173
     0
291
     1
 45
0.0
  0
VISUALSTYLE
  5
2C
102
{ACAD_REACTORS
330
2A
102
}
102
{ACAD_XDICTIONARY
360
44
102
}
330
2A
100
AcDbVisualStyle
  2
FlatWithEdges
 70
     1
 71
     2
 72
     1
 73
     1
 90
        2
 40
-0.6
 41
30.0
 62
     5
 63
     7
421
 16777215
 74
     1
 91
        4
 64
     7
 65
   257
 75
     1
175
     1
 42
1.0
 92
        0
 66
   257
 43
1.0
 76
     1
 77
     6
 78
     2
 67
     7
 79
     5
170
     0
171
     0
290
     0
174
     0
 93
       13
 44
0.0
173
     0
291
     1
 45
0.0
  0
VISUALSTYLE
  5
2D
102
{ACAD_REACTORS
330
2A
102
}
102
{ACAD_XDICTIONARY
360
46
102
}
330
2A
100
AcDbVisualStyle
  2
Gouraud
 70
     2
 71
     2
 72
     2
 73
     1
 90
        2
 40
-0.6
 41
30.0
 62
     5
 63
     7
421
 16777215
 74
     0
 91
        4
 64
     7
 65
   257
 75
     1
175
     1
 42
1.0
 92
        0
 66
     7
 43
1.0
 76
     1
 77
     6
 78
     2
 67
     7
 79
     5
170
     0
171
     0
290
     0
174
     0
 93
       13
 44
0.0
173
     0
291
     1
 45
0.0
  0
VISUALSTYLE
  5
2E
102
{ACAD_REACTORS
330
2A
102
}
102
{ACAD_XDICTIONARY
360
48
102
}
330
2A
100
AcDbVisualStyle
  2
GouraudWithEdges
 70
     3
 71
     2
 72
     2
 73
     1
 90
        2
 40
-0.6
 41
30.0
 62
     5
 63
     7
421
 16777215
 74
     1
 91
        4
 64
     7
 65
   257
 75
     1
175
     1
 42
1.0
 92
        0
 66
   257
 43
1.0
 76
     1
 77
     6
 78
     2
 67
     7
 79
     5
170
     0
171
     0
290
     0
174
     0
 93
       13
 44
0.0
173
     0
291
     1
 45
0.0
  0
VISUALSTYLE
  5
38
102
{ACAD_REACTORS
330
2A
102
}
102
{ACAD_XDICTIONARY
360
5C
102
}
330
2A
100
AcDbVisualStyle
  2
Linepattern
 70
    14
 71
     2
 72
     2
 73
     0
 90
        0
 40
-0.6
 41
-30.0
 62
     5
 63
     7
421
 16777215
 74
     1
 91
        4
 64
     7
 65
   257
 75
     7
175
     7
 42
1.0
 92
        8
 66
     7
 43
1.0
 76
     1
 77
     6
 78
     2
 67
     7
 79
     5
170
     0
171
     0
290
     0
174
     0
 93
        1
 44
0.0
173
     0
291
     1
 45
0.0
  0
VISUALSTYLE
  5
33
102
{ACAD_REACTORS
330
2A
102
}
102
{ACAD_XDICTIONARY
360
52
102
}
330
2A
100
AcDbVisualStyle
  2
Realistic
 70
     8
 71
     2
 72
     2
 73
     0
 90
        0
 40
-0.6
 41
-30.0
 62
     5
 63
     7
421
 16777215
 74
     1
 91
        0
 64
     7
 65
   257
 75
     1
175
     1
 42
1.0
 92
        8
 66
     8
424
  7895160
 43
1.0
 76
     1
 77
     6
 78
     2
 67
     7
 79
     5
170
     0
171
     0
290
     0
174
     0
 93
       13
 44
0.0
173
     0
291
     0
 45
0.0
  0
VISUALSTYLE
  5
37
102
{ACAD_REACTORS
330
2A
102
}
102
{ACAD_XDICTIONARY
360
5A
102
}
330
2A
100
AcDbVisualStyle
  2
Thicken
 70
    13
 71
     2
 72
     2
 73
     0
 90
        0
 40
-0.6
 41
-30.0
 62
     5
 63
     7
421
 16777215
 74
     1
 91
        4
 64
     7
 65
   257
 75
     1
175
     1
 42
1.0
 92
       12
 66
     7
 43
1.0
 76
     1
 77
     6
 78
     2
 67
     7
 79
     5
170
     0
171
     0
290
     0
174
     0
 93
        1
 44
0.0
173
     0
291
     1
 45
0.0
  0
DICTIONARY
  5
4A
330
2F
100
AcDbDictionary
280
     1
281
     1
  3
ACAD_XREC_ROUNDTRIP
360
4B
  0
DICTIONARY
  5
4E
330
31
100
AcDbDictionary
280
     1
281
     1
  3
ACAD_XREC_ROUNDTRIP
360
4F
  0
DICTIONARY
  5
4C
330
30
100
AcDbDictionary
280
     1
281
     1
  3
ACAD_XREC_ROUNDTRIP
360
4D
  0
DICTIONARY
  5
50
330
32
100
AcDbDictionary
280
     1
281
     1
  3
ACAD_XREC_ROUNDTRIP
360
51
  0
DICTIONARY
  5
58
330
36
100
AcDbDictionary
280
     1
281
     1
  3
ACAD_XREC_ROUNDTRIP
360
59
  0
DICTIONARY
  5
60
330
3A
100
AcDbDictionary
280
     1
281
     1
  3
ACAD_XREC_ROUNDTRIP
360
61
  0
DICTIONARY
  5
54
330
34
100
AcDbDictionary
280
     1
281
     1
  3
ACAD_XREC_ROUNDTRIP
360
55
  0
DICTIONARY
  5
56
330
35
100
AcDbDictionary
280
     1
281
     1
  3
ACAD_XREC_ROUNDTRIP
360
57
  0
DICTIONARY
  5
5E
330
39
100
AcDbDictionary
280
     1
281
     1
  3
ACAD_XREC_ROUNDTRIP
360
5F
  0
DICTIONARY
  5
42
330
2B
100
AcDbDictionary
280
     1
281
     1
  3
ACAD_XREC_ROUNDTRIP
360
43
  0
DICTIONARY
  5
44
330
2C
100
AcDbDictionary
280
     1
281
     1
  3
ACAD_XREC_ROUNDTRIP
360
45
  0
DICTIONARY
  5
46
330
2D
100
AcDbDictionary
280
     1
281
     1
  3
ACAD_XREC_ROUNDTRIP
360
47
  0
DICTIONARY
  5
48
330
2E
100
AcDbDictionary
280
     1
281
     1
  3
ACAD_XREC_ROUNDTRIP
360
49
  0
DICTIONARY
  5
5C
330
38
100
AcDbDictionary
280
     1
281
     1
  3
ACAD_XREC_ROUNDTRIP
360
5D
  0
DICTIONARY
  5
52
330
33
100
AcDbDictionary
280
     1
281
     1
  3
ACAD_XREC_ROUNDTRIP
360
53
  0
DICTIONARY
  5
5A
330
37
100
AcDbDictionary
280
     1
281
     1
  3
ACAD_XREC_ROUNDTRIP
360
5B
  0
XRECORD
  5
4B
102
{ACAD_REACTORS
330
4A
102
}
330
4A
100
AcDbXrecord
280
     1
102
RTVSPropertyOp0
 70
     1
102
RTVSPropertyOp1
 70
     1
102
RTVSPropertyOp2
 70
     1
102
RTVSPropertyOp3
 70
     1
102
RTVSPropertyOp4
 70
     1
102
RTVSPropertyOp5
 70
     1
102
RTVSPropertyOp6
 70
     1
102
RTVSPropertyOp7
 70
     1
102
RTVSPropertyOp8
 70
     1
102
RTVSPropertyOp9
 70
     1
102
RTVSPropertyOp10
 70
     1
102
RTVSPropertyOp11
 70
     1
102
RTVSPropertyOp12
 70
     1
102
RTVSPropertyOp13
 70
     1
102
RTVSPropertyOp14
 70
     1
102
RTVSPropertyOp15
 70
     1
102
RTVSPropertyOp16
 70
     1
102
RTVSPropertyOp17
 70
     1
102
RTVSPropertyOp18
 70
     1
102
RTVSPropertyOp19
 70
     1
102
RTVSPropertyOp20
 70
     1
102
RTVSPropertyOp21
 70
     1
102
RTVSPropertyOp22
 70
     1
102
RTVSPropertyOp23
 70
     1
102
RTVSPropertyOp24
 70
     1
102
RTVSPropertyOp25
 70
     1
102
RTVSPropertyOp26
 70
     1
102
RTVSPropertyOp27
 70
     1
102
RTVSPropertyOp28
 70
     1
102
RTVSPropertyOp29
 70
     1
102
RTVSPropertyOp30
 70
     1
102
RTVSPropertyOp31
 70
     1
102
RTVSPropertyOp32
 70
     1
  0
XRECORD
  5
4F
102
{ACAD_REACTORS
330
4E
102
}
330
4E
100
AcDbXrecord
280
     1
102
RTVSPropertyOp0
 70
     1
102
RTVSPropertyOp1
 70
     1
102
RTVSPropertyOp2
 70
     1
102
RTVSPropertyOp3
 70
     1
102
RTVSPropertyOp4
 70
     1
102
RTVSPropertyOp5
 70
     1
102
RTVSPropertyOp6
 70
     1
102
RTVSPropertyOp7
 70
     1
102
RTVSPropertyOp8
 70
     1
102
RTVSPropertyOp9
 70
     1
102
RTVSPropertyOp10
 70
     1
102
RTVSPropertyOp11
 70
     1
102
RTVSPropertyOp12
 70
     1
102
RTVSPropertyOp13
 70
     1
102
RTVSPropertyOp14
 70
     1
102
RTVSPropertyOp15
 70
     1
102
RTVSPropertyOp16
 70
     1
102
RTVSPropertyOp17
 70
     1
102
RTVSPropertyOp18
 70
     1
102
RTVSPropertyOp19
 70
     1
102
RTVSPropertyOp20
 70
     1
102
RTVSPropertyOp21
 70
     1
102
RTVSPropertyOp22
 70
     1
102
RTVSPropertyOp23
 70
     1
102
RTVSPropertyOp24
 70
     1
102
RTVSPropertyOp25
 70
     1
102
RTVSPropertyOp26
 70
     1
102
RTVSPropertyOp27
 70
     1
102
RTVSPropertyOp28
 70
     1
102
RTVSPropertyOp29
 70
     1
102
RTVSPropertyOp30
 70
     1
102
RTVSPropertyOp31
 70
     1
102
RTVSPropertyOp32
 70
     1
  0
XRECORD
  5
4D
102
{ACAD_REACTORS
330
4C
102
}
330
4C
100
AcDbXrecord
280
     1
102
RTVSPropertyOp0
 70
     1
102
RTVSPropertyOp1
 70
     1
102
RTVSPropertyOp2
 70
     1
102
RTVSPropertyOp3
 70
     1
102
RTVSPropertyOp4
 70
     1
102
RTVSPropertyOp5
 70
     1
102
RTVSPropertyOp6
 70
     1
102
RTVSPropertyOp7
 70
     1
102
RTVSPropertyOp8
 70
     1
102
RTVSPropertyOp9
 70
     1
102
RTVSPropertyOp10
 70
     1
102
RTVSPropertyOp11
 70
     1
102
RTVSPropertyOp12
 70
     1
102
RTVSPropertyOp13
 70
     1
102
RTVSPropertyOp14
 70
     1
102
RTVSPropertyOp15
 70
     1
102
RTVSPropertyOp16
 70
     1
102
RTVSPropertyOp17
 70
     1
102
RTVSPropertyOp18
 70
     1
102
RTVSPropertyOp19
 70
     1
102
RTVSPropertyOp20
 70
     1
102
RTVSPropertyOp21
 70
     1
102
RTVSPropertyOp22
 70
     1
102
RTVSPropertyOp23
 70
     1
102
RTVSPropertyOp24
 70
     1
102
RTVSPropertyOp25
 70
     1
102
RTVSPropertyOp26
 70
     1
102
RTVSPropertyOp27
 70
     1
102
RTVSPropertyOp28
 70
     1
102
RTVSPropertyOp29
 70
     1
102
RTVSPropertyOp30
 70
     1
102
RTVSPropertyOp31
 70
     1
102
RTVSPropertyOp32
 70
     1
  0
XRECORD
  5
51
102
{ACAD_REACTORS
330
50
102
}
330
50
100
AcDbXrecord
280
     1
102
RTVSPropertyOp0
 70
     1
102
RTVSPropertyOp1
 70
     1
102
RTVSPropertyOp2
 70
     1
102
RTVSPropertyOp3
 70
     1
102
RTVSPropertyOp4
 70
     1
102
RTVSPropertyOp5
 70
     1
102
RTVSPropertyOp6
 70
     1
102
RTVSPropertyOp7
 70
     1
102
RTVSPropertyOp8
 70
     1
102
RTVSPropertyOp9
 70
     1
102
RTVSPropertyOp10
 70
     1
102
RTVSPropertyOp11
 70
     1
102
RTVSPropertyOp12
 70
     1
102
RTVSPropertyOp13
 70
     1
102
RTVSPropertyOp14
 70
     1
102
RTVSPropertyOp15
 70
     1
102
RTVSPropertyOp16
 70
     1
102
RTVSPropertyOp17
 70
     1
102
RTVSPropertyOp18
 70
     1
102
RTVSPropertyOp19
 70
     1
102
RTVSPropertyOp20
 70
     1
102
RTVSPropertyOp21
 70
     1
102
RTVSPropertyOp22
 70
     1
102
RTVSPropertyOp23
 70
     1
102
RTVSPropertyOp24
 70
     1
102
RTVSPropertyOp25
 70
     1
102
RTVSPropertyOp26
 70
     1
102
RTVSPropertyOp27
 70
     1
102
RTVSPropertyOp28
 70
     1
102
RTVSPropertyOp29
 70
     1
102
RTVSPropertyOp30
 70
     1
102
RTVSPropertyOp31
 70
     1
102
RTVSPropertyOp32
 70
     1
  0
XRECORD
  5
59
102
{ACAD_REACTORS
330
58
102
}
330
58
100
AcDbXrecord
280
     1
102
RTVSPropertyOp0
 70
     1
102
RTVSPropertyOp1
 70
     1
102
RTVSPropertyOp2
 70
     1
102
RTVSPropertyOp3
 70
     1
102
RTVSPropertyOp4
 70
     1
102
RTVSPropertyOp5
 70
     1
102
RTVSPropertyOp6
 70
     1
102
RTVSPropertyOp7
 70
     1
102
RTVSPropertyOp8
 70
     1
102
RTVSPropertyOp9
 70
     1
102
RTVSPropertyOp10
 70
     1
102
RTVSPropertyOp11
 70
     1
102
RTVSPropertyOp12
 70
     1
102
RTVSPropertyOp13
 70
     1
102
RTVSPropertyOp14
 70
     1
102
RTVSPropertyOp15
 70
     1
102
RTVSPropertyOp16
 70
     1
102
RTVSPropertyOp17
 70
     1
102
RTVSPropertyOp18
 70
     1
102
RTVSPropertyOp19
 70
     1
102
RTVSPropertyOp20
 70
     1
102
RTVSPropertyOp21
 70
     1
102
RTVSPropertyOp22
 70
     1
102
RTVSPropertyOp23
 70
     1
102
RTVSPropertyOp24
 70
     1
102
RTVSPropertyOp25
 70
     1
102
RTVSPropertyOp26
 70
     1
102
RTVSPropertyOp27
 70
     1
102
RTVSPropertyOp28
 70
     1
102
RTVSPropertyOp29
 70
     1
102
RTVSPropertyOp30
 70
     1
102
RTVSPropertyOp31
 70
     1
102
RTVSPropertyOp32
 70
     1
  0
XRECORD
  5
61
102
{ACAD_REACTORS
330
60
102
}
330
60
100
AcDbXrecord
280
     1
102
RTVSPropertyOp0
 70
     1
102
RTVSPropertyOp1
 70
     1
102
RTVSPropertyOp2
 70
     1
102
RTVSPropertyOp3
 70
     1
102
RTVSPropertyOp4
 70
     1
102
RTVSPropertyOp5
 70
     1
102
RTVSPropertyOp6
 70
     1
102
RTVSPropertyOp7
 70
     1
102
RTVSPropertyOp8
 70
     1
102
RTVSPropertyOp9
 70
     1
102
RTVSPropertyOp10
 70
     1
102
RTVSPropertyOp11
 70
     1
102
RTVSPropertyOp12
 70
     1
102
RTVSPropertyOp13
 70
     1
102
RTVSPropertyOp14
 70
     1
102
RTVSPropertyOp15
 70
     1
102
RTVSPropertyOp16
 70
     1
102
RTVSPropertyOp17
 70
     1
102
RTVSPropertyOp18
 70
     1
102
RTVSPropertyOp19
 70
     1
102
RTVSPropertyOp20
 70
     1
102
RTVSPropertyOp21
 70
     1
102
RTVSPropertyOp22
 70
     1
102
RTVSPropertyOp23
 70
     1
102
RTVSPropertyOp24
 70
     1
102
RTVSPropertyOp25
 70
     1
102
RTVSPropertyOp26
 70
     1
102
RTVSPropertyOp27
 70
     1
102
RTVSPropertyOp28
 70
     1
102
RTVSPropertyOp29
 70
     1
102
RTVSPropertyOp30
 70
     1
102
RTVSPropertyOp31
 70
     1
102
RTVSPropertyOp32
 70
     1
  0
XRECORD
  5
55
102
{ACAD_REACTORS
330
54
102
}
330
54
100
AcDbXrecord
280
     1
102
RTVSPropertyOp0
 70
     1
102
RTVSPropertyOp1
 70
     1
102
RTVSPropertyOp2
 70
     1
102
RTVSPropertyOp3
 70
     1
102
RTVSPropertyOp4
 70
     1
102
RTVSPropertyOp5
 70
     1
102
RTVSPropertyOp6
 70
     1
102
RTVSPropertyOp7
 70
     1
102
RTVSPropertyOp8
 70
     1
102
RTVSPropertyOp9
 70
     1
102
RTVSPropertyOp10
 70
     1
102
RTVSPropertyOp11
 70
     1
102
RTVSPropertyOp12
 70
     1
102
RTVSPropertyOp13
 70
     1
102
RTVSPropertyOp14
 70
     1
102
RTVSPropertyOp15
 70
     1
102
RTVSPropertyOp16
 70
     1
102
RTVSPropertyOp17
 70
     1
102
RTVSPropertyOp18
 70
     1
102
RTVSPropertyOp19
 70
     1
102
RTVSPropertyOp20
 70
     1
102
RTVSPropertyOp21
 70
     1
102
RTVSPropertyOp22
 70
     1
102
RTVSPropertyOp23
 70
     1
102
RTVSPropertyOp24
 70
     1
102
RTVSPropertyOp25
 70
     1
102
RTVSPropertyOp26
 70
     1
102
RTVSPropertyOp27
 70
     1
102
RTVSPropertyOp28
 70
     1
102
RTVSPropertyOp29
 70
     1
102
RTVSPropertyOp30
 70
     1
102
RTVSPropertyOp31
 70
     1
102
RTVSPropertyOp32
 70
     1
  0
XRECORD
  5
57
102
{ACAD_REACTORS
330
56
102
}
330
56
100
AcDbXrecord
280
     1
102
RTVSPropertyOp0
 70
     1
102
RTVSPropertyOp1
 70
     1
102
RTVSPropertyOp2
 70
     1
102
RTVSPropertyOp3
 70
     1
102
RTVSPropertyOp4
 70
     1
102
RTVSPropertyOp5
 70
     1
102
RTVSPropertyOp6
 70
     1
102
RTVSPropertyOp7
 70
     1
102
RTVSPropertyOp8
 70
     1
102
RTVSPropertyOp9
 70
     1
102
RTVSPropertyOp10
 70
     1
102
RTVSPropertyOp11
 70
     1
102
RTVSPropertyOp12
 70
     1
102
RTVSPropertyOp13
 70
     1
102
RTVSPropertyOp14
 70
     1
102
RTVSPropertyOp15
 70
     1
102
RTVSPropertyOp16
 70
     1
102
RTVSPropertyOp17
 70
     1
102
RTVSPropertyOp18
 70
     1
102
RTVSPropertyOp19
 70
     1
102
RTVSPropertyOp20
 70
     1
102
RTVSPropertyOp21
 70
     1
102
RTVSPropertyOp22
 70
     1
102
RTVSPropertyOp23
 70
     1
102
RTVSPropertyOp24
 70
     1
102
RTVSPropertyOp25
 70
     1
102
RTVSPropertyOp26
 70
     1
102
RTVSPropertyOp27
 70
     1
102
RTVSPropertyOp28
 70
     1
102
RTVSPropertyOp29
 70
     1
102
RTVSPropertyOp30
 70
     1
102
RTVSPropertyOp31
 70
     1
102
RTVSPropertyOp32
 70
     1
  0
XRECORD
  5
5F
102
{ACAD_REACTORS
330
5E
102
}
330
5E
100
AcDbXrecord
280
     1
102
RTVSPropertyOp0
 70
     1
102
RTVSPropertyOp1
 70
     1
102
RTVSPropertyOp2
 70
     1
102
RTVSPropertyOp3
 70
     1
102
RTVSPropertyOp4
 70
     1
102
RTVSPropertyOp5
 70
     1
102
RTVSPropertyOp6
 70
     1
102
RTVSPropertyOp7
 70
     1
102
RTVSPropertyOp8
 70
     1
102
RTVSPropertyOp9
 70
     1
102
RTVSPropertyOp10
 70
     1
102
RTVSPropertyOp11
 70
     1
102
RTVSPropertyOp12
 70
     1
102
RTVSPropertyOp13
 70
     1
102
RTVSPropertyOp14
 70
     1
102
RTVSPropertyOp15
 70
     1
102
RTVSPropertyOp16
 70
     1
102
RTVSPropertyOp17
 70
     1
102
RTVSPropertyOp18
 70
     1
102
RTVSPropertyOp19
 70
     1
102
RTVSPropertyOp20
 70
     1
102
RTVSPropertyOp21
 70
     1
102
RTVSPropertyOp22
 70
     1
102
RTVSPropertyOp23
 70
     1
102
RTVSPropertyOp24
 70
     1
102
RTVSPropertyOp25
 70
     1
102
RTVSPropertyOp26
 70
     1
102
RTVSPropertyOp27
 70
     1
102
RTVSPropertyOp28
 70
     1
102
RTVSPropertyOp29
 70
     1
102
RTVSPropertyOp30
 70
     1
102
RTVSPropertyOp31
 70
     1
102
RTVSPropertyOp32
 70
     1
  0
XRECORD
  5
43
102
{ACAD_REACTORS
330
42
102
}
330
42
100
AcDbXrecord
280
     1
102
RTVSPropertyOp0
 70
     1
102
RTVSPropertyOp1
 70
     1
102
RTVSPropertyOp2
 70
     1
102
RTVSPropertyOp3
 70
     1
102
RTVSPropertyOp4
 70
     1
102
RTVSPropertyOp5
 70
     1
102
RTVSPropertyOp6
 70
     1
102
RTVSPropertyOp7
 70
     1
102
RTVSPropertyOp8
 70
     1
102
RTVSPropertyOp9
 70
     1
102
RTVSPropertyOp10
 70
     1
102
RTVSPropertyOp11
 70
     1
102
RTVSPropertyOp12
 70
     1
102
RTVSPropertyOp13
 70
     1
102
RTVSPropertyOp14
 70
     1
102
RTVSPropertyOp15
 70
     1
102
RTVSPropertyOp16
 70
     1
102
RTVSPropertyOp17
 70
     1
102
RTVSPropertyOp18
 70
     1
102
RTVSPropertyOp19
 70
     1
102
RTVSPropertyOp20
 70
     1
102
RTVSPropertyOp21
 70
     1
102
RTVSPropertyOp22
 70
     1
102
RTVSPropertyOp23
 70
     1
102
RTVSPropertyOp24
 70
     1
102
RTVSPropertyOp25
 70
     1
102
RTVSPropertyOp26
 70
     1
102
RTVSPropertyOp27
 70
     1
102
RTVSPropertyOp28
 70
     1
102
RTVSPropertyOp29
 70
     1
102
RTVSPropertyOp30
 70
     1
102
RTVSPropertyOp31
 70
     1
102
RTVSPropertyOp32
 70
     1
  0
XRECORD
  5
45
102
{ACAD_REACTORS
330
44
102
}
330
44
100
AcDbXrecord
280
     1
102
RTVSPropertyOp0
 70
     1
102
RTVSPropertyOp1
 70
     1
102
RTVSPropertyOp2
 70
     1
102
RTVSPropertyOp3
 70
     1
102
RTVSPropertyOp4
 70
     1
102
RTVSPropertyOp5
 70
     1
102
RTVSPropertyOp6
 70
     1
102
RTVSPropertyOp7
 70
     1
102
RTVSPropertyOp8
 70
     1
102
RTVSPropertyOp9
 70
     1
102
RTVSPropertyOp10
 70
     1
102
RTVSPropertyOp11
 70
     1
102
RTVSPropertyOp12
 70
     1
102
RTVSPropertyOp13
 70
     1
102
RTVSPropertyOp14
 70
     1
102
RTVSPropertyOp15
 70
     1
102
RTVSPropertyOp16
 70
     1
102
RTVSPropertyOp17
 70
     1
102
RTVSPropertyOp18
 70
     1
102
RTVSPropertyOp19
 70
     1
102
RTVSPropertyOp20
 70
     1
102
RTVSPropertyOp21
 70
     1
102
RTVSPropertyOp22
 70
     1
102
RTVSPropertyOp23
 70
     1
102
RTVSPropertyOp24
 70
     1
102
RTVSPropertyOp25
 70
     1
102
RTVSPropertyOp26
 70
     1
102
RTVSPropertyOp27
 70
     1
102
RTVSPropertyOp28
 70
     1
102
RTVSPropertyOp29
 70
     1
102
RTVSPropertyOp30
 70
     1
102
RTVSPropertyOp31
 70
     1
102
RTVSPropertyOp32
 70
     1
  0
XRECORD
  5
47
102
{ACAD_REACTORS
330
46
102
}
330
46
100
AcDbXrecord
280
     1
102
RTVSPropertyOp0
 70
     1
102
RTVSPropertyOp1
 70
     1
102
RTVSPropertyOp2
 70
     1
102
RTVSPropertyOp3
 70
     1
102
RTVSPropertyOp4
 70
     1
102
RTVSPropertyOp5
 70
     1
102
RTVSPropertyOp6
 70
     1
102
RTVSPropertyOp7
 70
     1
102
RTVSPropertyOp8
 70
     1
102
RTVSPropertyOp9
 70
     1
102
RTVSPropertyOp10
 70
     1
102
RTVSPropertyOp11
 70
     1
102
RTVSPropertyOp12
 70
     1
102
RTVSPropertyOp13
 70
     1
102
RTVSPropertyOp14
 70
     1
102
RTVSPropertyOp15
 70
     1
102
RTVSPropertyOp16
 70
     1
102
RTVSPropertyOp17
 70
     1
102
RTVSPropertyOp18
 70
     1
102
RTVSPropertyOp19
 70
     1
102
RTVSPropertyOp20
 70
     1
102
RTVSPropertyOp21
 70
     1
102
RTVSPropertyOp22
 70
     1
102
RTVSPropertyOp23
 70
     1
102
RTVSPropertyOp24
 70
     1
102
RTVSPropertyOp25
 70
     1
102
RTVSPropertyOp26
 70
     1
102
RTVSPropertyOp27
 70
     1
102
RTVSPropertyOp28
 70
     1
102
RTVSPropertyOp29
 70
     1
102
RTVSPropertyOp30
 70
     1
102
RTVSPropertyOp31
 70
     1
102
RTVSPropertyOp32
 70
     1
  0
XRECORD
  5
49
102
{ACAD_REACTORS
330
48
102
}
330
48
100
AcDbXrecord
280
     1
102
RTVSPropertyOp0
 70
     1
102
RTVSPropertyOp1
 70
     1
102
RTVSPropertyOp2
 70
     1
102
RTVSPropertyOp3
 70
     1
102
RTVSPropertyOp4
 70
     1
102
RTVSPropertyOp5
 70
     1
102
RTVSPropertyOp6
 70
     1
102
RTVSPropertyOp7
 70
     1
102
RTVSPropertyOp8
 70
     1
102
RTVSPropertyOp9
 70
     1
102
RTVSPropertyOp10
 70
     1
102
RTVSPropertyOp11
 70
     1
102
RTVSPropertyOp12
 70
     1
102
RTVSPropertyOp13
 70
     1
102
RTVSPropertyOp14
 70
     1
102
RTVSPropertyOp15
 70
     1
102
RTVSPropertyOp16
 70
     1
102
RTVSPropertyOp17
 70
     1
102
RTVSPropertyOp18
 70
     1
102
RTVSPropertyOp19
 70
     1
102
RTVSPropertyOp20
 70
     1
102
RTVSPropertyOp21
 70
     1
102
RTVSPropertyOp22
 70
     1
102
RTVSPropertyOp23
 70
     1
102
RTVSPropertyOp24
 70
     1
102
RTVSPropertyOp25
 70
     1
102
RTVSPropertyOp26
 70
     1
102
RTVSPropertyOp27
 70
     1
102
RTVSPropertyOp28
 70
     1
102
RTVSPropertyOp29
 70
     1
102
RTVSPropertyOp30
 70
     1
102
RTVSPropertyOp31
 70
     1
102
RTVSPropertyOp32
 70
     1
  0
XRECORD
  5
5D
102
{ACAD_REACTORS
330
5C
102
}
330
5C
100
AcDbXrecord
280
     1
102
RTVSPropertyOp0
 70
     1
102
RTVSPropertyOp1
 70
     1
102
RTVSPropertyOp2
 70
     1
102
RTVSPropertyOp3
 70
     1
102
RTVSPropertyOp4
 70
     1
102
RTVSPropertyOp5
 70
     1
102
RTVSPropertyOp6
 70
     1
102
RTVSPropertyOp7
 70
     1
102
RTVSPropertyOp8
 70
     1
102
RTVSPropertyOp9
 70
     1
102
RTVSPropertyOp10
 70
     1
102
RTVSPropertyOp11
 70
     1
102
RTVSPropertyOp12
 70
     1
102
RTVSPropertyOp13
 70
     1
102
RTVSPropertyOp14
 70
     1
102
RTVSPropertyOp15
 70
     1
102
RTVSPropertyOp16
 70
     1
102
RTVSPropertyOp17
 70
     1
102
RTVSPropertyOp18
 70
     1
102
RTVSPropertyOp19
 70
     1
102
RTVSPropertyOp20
 70
     1
102
RTVSPropertyOp21
 70
     1
102
RTVSPropertyOp22
 70
     1
102
RTVSPropertyOp23
 70
     1
102
RTVSPropertyOp24
 70
     1
102
RTVSPropertyOp25
 70
     1
102
RTVSPropertyOp26
 70
     1
102
RTVSPropertyOp27
 70
     1
102
RTVSPropertyOp28
 70
     1
102
RTVSPropertyOp29
 70
     1
102
RTVSPropertyOp30
 70
     1
102
RTVSPropertyOp31
 70
     1
102
RTVSPropertyOp32
 70
     1
  0
XRECORD
  5
53
102
{ACAD_REACTORS
330
52
102
}
330
52
100
AcDbXrecord
280
     1
102
RTVSPropertyOp0
 70
     1
102
RTVSPropertyOp1
 70
     1
102
RTVSPropertyOp2
 70
     1
102
RTVSPropertyOp3
 70
     1
102
RTVSPropertyOp4
 70
     1
102
RTVSPropertyOp5
 70
     1
102
RTVSPropertyOp6
 70
     1
102
RTVSPropertyOp7
 70
     1
102
RTVSPropertyOp8
 70
     1
102
RTVSPropertyOp9
 70
     1
102
RTVSPropertyOp10
 70
     1
102
RTVSPropertyOp11
 70
     1
102
RTVSPropertyOp12
 70
     1
102
RTVSPropertyOp13
 70
     1
102
RTVSPropertyOp14
 70
     1
102
RTVSPropertyOp15
 70
     1
102
RTVSPropertyOp16
 70
     1
102
RTVSPropertyOp17
 70
     1
102
RTVSPropertyOp18
 70
     1
102
RTVSPropertyOp19
 70
     1
102
RTVSPropertyOp20
 70
     1
102
RTVSPropertyOp21
 70
     1
102
RTVSPropertyOp22
 70
     1
102
RTVSPropertyOp23
 70
     1
102
RTVSPropertyOp24
 70
     1
102
RTVSPropertyOp25
 70
     1
102
RTVSPropertyOp26
 70
     1
102
RTVSPropertyOp27
 70
     1
102
RTVSPropertyOp28
 70
     1
102
RTVSPropertyOp29
 70
     1
102
RTVSPropertyOp30
 70
     1
102
RTVSPropertyOp31
 70
     1
102
RTVSPropertyOp32
 70
     1
  0
XRECORD
  5
5B
102
{ACAD_REACTORS
330
5A
102
}
330
5A
100
AcDbXrecord
280
     1
102
RTVSPropertyOp0
 70
     1
102
RTVSPropertyOp1
 70
     1
102
RTVSPropertyOp2
 70
     1
102
RTVSPropertyOp3
 70
     1
102
RTVSPropertyOp4
 70
     1
102
RTVSPropertyOp5
 70
     1
102
RTVSPropertyOp6
 70
     1
102
RTVSPropertyOp7
 70
     1
102
RTVSPropertyOp8
 70
     1
102
RTVSPropertyOp9
 70
     1
102
RTVSPropertyOp10
 70
     1
102
RTVSPropertyOp11
 70
     1
102
RTVSPropertyOp12
 70
     1
102
RTVSPropertyOp13
 70
     1
102
RTVSPropertyOp14
 70
     1
102
RTVSPropertyOp15
 70
     1
102
RTVSPropertyOp16
 70
     1
102
RTVSPropertyOp17
 70
     1
102
RTVSPropertyOp18
 70
     1
102
RTVSPropertyOp19
 70
     1
102
RTVSPropertyOp20
 70
     1
102
RTVSPropertyOp21
 70
     1
102
RTVSPropertyOp22
 70
     1
102
RTVSPropertyOp23
 70
     1
102
RTVSPropertyOp24
 70
     1
102
RTVSPropertyOp25
 70
     1
102
RTVSPropertyOp26
 70
     1
102
RTVSPropertyOp27
 70
     1
102
RTVSPropertyOp28
 70
     1
102
RTVSPropertyOp29
 70
     1
102
RTVSPropertyOp30
 70
     1
102
RTVSPropertyOp31
 70
     1
102
RTVSPropertyOp32
 70
     1
  0
ENDSEC
  0
EOF
