999
DXF generated by OpenJsCad
  0
SECTION
  2
HEADER
  0
ENDSEC
  0
SECTION
  2
TABLES
  0
TABLE
  2
LTYPE
  70
1
  0
LTYPE
  2
CONTINUOUS
  3
Solid Line
  72
65
  73
0
  40
0.0
  0
ENDTAB
  0
TABLE
  2
LAYER
  70
1
  0
LAYER
  2
OpenJsCad
  62
7
  6
continuous
  0
ENDTAB
  0
TABLE
  2
STYLE
  70
0
  0
ENDTAB
  0
TABLE
  2
VIEW
  70
0
  0
ENDTAB
  0
ENDSEC
  0
SECTION
  2
BLOCKS
  0
ENDSEC
  0
SECTION
  2
ENTITIES
  0
LWPOLYLINE
  8
OpenJsCad
  90
40
  70
1
 10
1276.6666666666667
 20
-20.75
 30
0.0
 10
1276.6666666666667
 20
-15.75
 30
0.0
 10
1286.5
 20
-15.75
 30
0.0
 10
1286.5
 20
-20.75
 30
0.0
 10
1296.3333333333333
 20
-20.75
 30
0.0
 10
1296.3333333333333
 20
-15.75
 30
0.0
 10
1306.1666666666667
 20
-15.75
 30
0.0
 10
1306.1666666666667
 20
-20.75
 30
0.0
 10
1316
 20
-20.75
 30
0.0
 10
1316
 20
-10.375
 30
0.0
 10
1311
 20
-10.375
 30
0.0
 10
1311
 20
0
 30
0.0
 10
1316
 20
0
 30
0.0
 10
1316
 20
10.375
 30
0.0
 10
1311
 20
10.375
 30
0.0
 10
1311
 20
20.75
 30
0.0
 10
1299.1522936074568
 20
20.75
 30
0.0
 10
1298.0019963035186
 20
18.597945109895505
 30
0.0
 10
1296.281643806414
 20
16.50168952691942
 30
0.0
 10
1294.1853882234377
 20
14.781337029814779
 30
0.0
 10
1291.7937874810505
 20
13.50299980026054
 30
0.0
 10
1289.1987494545565
 20
12.71580362108864
 30
0.0
 10
1286.5
 20
12.449999999999989
 30
0.0
 10
1283.8012505454435
 20
12.71580362108864
 30
0.0
 10
1281.2062125189495
 20
13.50299980026054
 30
0.0
 10
1278.8146117765623
 20
14.781337029814779
 30
0.0
 10
1276.718356193586
 20
16.50168952691942
 30
0.0
 10
1274.9980036964814
 20
18.597945109895505
 30
0.0
 10
1273.8477063925432
 20
20.75
 30
0.0
 10
1262
 20
20.75
 30
0.0
 10
1262
 20
11.625
 30
0.0
 10
1257
 20
11.625
 30
0.0
 10
1257
 20
2.5
 30
0.0
 10
1262
 20
2.5
 30
0.0
 10
1262
 20
-6.625
 30
0.0
 10
1257
 20
-6.625
 30
0.0
 10
1257
 20
-15.75
 30
0.0
 10
1266.8333333333333
 20
-15.75
 30
0.0
 10
1266.8333333333333
 20
-20.75
 30
0.0
 10
1276.6666666666667
 20
-20.75
 30
0.0
  0
LWPOLYLINE
  8
OpenJsCad
  90
27
  70
1
 10
1345.6666666666667
 20
-20.75
 30
0.0
 10
1345.6666666666667
 20
-15.75
 30
0.0
 10
1355.5
 20
-15.75
 30
0.0
 10
1355.5
 20
-20.75
 30
0.0
 10
1365.3333333333333
 20
-20.75
 30
0.0
 10
1365.3333333333333
 20
-15.75
 30
0.0
 10
1375.1666666666667
 20
-15.75
 30
0.0
 10
1375.1666666666667
 20
-20.75
 30
0.0
 10
1385
 20
-20.75
 30
0.0
 10
1385
 20
-10.375
 30
0.0
 10
1380
 20
-10.375
 30
0.0
 10
1380
 20
0
 30
0.0
 10
1385
 20
0
 30
0.0
 10
1385
 20
10.375
 30
0.0
 10
1380
 20
10.375
 30
0.0
 10
1380
 20
20.75
 30
0.0
 10
1331
 20
20.75
 30
0.0
 10
1331
 20
11.625
 30
0.0
 10
1326
 20
11.625
 30
0.0
 10
1326
 20
2.5
 30
0.0
 10
1331
 20
2.5
 30
0.0
 10
1331
 20
-6.625
 30
0.0
 10
1326
 20
-6.625
 30
0.0
 10
1326
 20
-15.75
 30
0.0
 10
1335.8333333333333
 20
-15.75
 30
0.0
 10
1335.8333333333333
 20
-20.75
 30
0.0
 10
1345.6666666666667
 20
-20.75
 30
0.0
  0
LWPOLYLINE
  8
OpenJsCad
  90
40
  70
1
 10
1586.6666666666667
 20
-20.75
 30
0.0
 10
1586.6666666666667
 20
-15.75
 30
0.0
 10
1596.5
 20
-15.75
 30
0.0
 10
1596.5
 20
-20.75
 30
0.0
 10
1606.3333333333333
 20
-20.75
 30
0.0
 10
1606.3333333333333
 20
-15.75
 30
0.0
 10
1616.1666666666667
 20
-15.75
 30
0.0
 10
1616.1666666666667
 20
-20.75
 30
0.0
 10
1626
 20
-20.75
 30
0.0
 10
1626
 20
-10.375
 30
0.0
 10
1621
 20
-10.375
 30
0.0
 10
1621
 20
0
 30
0.0
 10
1626
 20
0
 30
0.0
 10
1626
 20
10.375
 30
0.0
 10
1621
 20
10.375
 30
0.0
 10
1621
 20
20.75
 30
0.0
 10
1609.1522936074568
 20
20.75
 30
0.0
 10
1608.0019963035186
 20
18.597945109895505
 30
0.0
 10
1606.281643806414
 20
16.50168952691942
 30
0.0
 10
1604.1853882234377
 20
14.781337029814779
 30
0.0
 10
1601.7937874810505
 20
13.50299980026054
 30
0.0
 10
1599.1987494545565
 20
12.71580362108864
 30
0.0
 10
1596.5
 20
12.449999999999989
 30
0.0
 10
1593.8012505454435
 20
12.71580362108864
 30
0.0
 10
1591.2062125189495
 20
13.50299980026054
 30
0.0
 10
1588.8146117765623
 20
14.781337029814779
 30
0.0
 10
1586.718356193586
 20
16.50168952691942
 30
0.0
 10
1584.9980036964814
 20
18.597945109895505
 30
0.0
 10
1583.8477063925432
 20
20.75
 30
0.0
 10
1572
 20
20.75
 30
0.0
 10
1572
 20
11.625
 30
0.0
 10
1567
 20
11.625
 30
0.0
 10
1567
 20
2.5
 30
0.0
 10
1572
 20
2.5
 30
0.0
 10
1572
 20
-6.625
 30
0.0
 10
1567
 20
-6.625
 30
0.0
 10
1567
 20
-15.75
 30
0.0
 10
1576.8333333333333
 20
-15.75
 30
0.0
 10
1576.8333333333333
 20
-20.75
 30
0.0
 10
1586.6666666666667
 20
-20.75
 30
0.0
  0
LWPOLYLINE
  8
OpenJsCad
  90
27
  70
1
 10
1655.6666666666667
 20
-20.75
 30
0.0
 10
1655.6666666666667
 20
-15.75
 30
0.0
 10
1665.5
 20
-15.75
 30
0.0
 10
1665.5
 20
-20.75
 30
0.0
 10
1675.3333333333333
 20
-20.75
 30
0.0
 10
1675.3333333333333
 20
-15.75
 30
0.0
 10
1685.1666666666667
 20
-15.75
 30
0.0
 10
1685.1666666666667
 20
-20.75
 30
0.0
 10
1695
 20
-20.75
 30
0.0
 10
1695
 20
-10.375
 30
0.0
 10
1690
 20
-10.375
 30
0.0
 10
1690
 20
0
 30
0.0
 10
1695
 20
0
 30
0.0
 10
1695
 20
10.375
 30
0.0
 10
1690
 20
10.375
 30
0.0
 10
1690
 20
20.75
 30
0.0
 10
1641
 20
20.75
 30
0.0
 10
1641
 20
11.625
 30
0.0
 10
1636
 20
11.625
 30
0.0
 10
1636
 20
2.5
 30
0.0
 10
1641
 20
2.5
 30
0.0
 10
1641
 20
-6.625
 30
0.0
 10
1636
 20
-6.625
 30
0.0
 10
1636
 20
-15.75
 30
0.0
 10
1645.8333333333333
 20
-15.75
 30
0.0
 10
1645.8333333333333
 20
-20.75
 30
0.0
 10
1655.6666666666667
 20
-20.75
 30
0.0
  0
LWPOLYLINE
  8
OpenJsCad
  90
40
  70
1
 10
1896.6666666666667
 20
-20.75
 30
0.0
 10
1896.6666666666667
 20
-15.75
 30
0.0
 10
1906.5
 20
-15.75
 30
0.0
 10
1906.5
 20
-20.75
 30
0.0
 10
1916.3333333333333
 20
-20.75
 30
0.0
 10
1916.3333333333333
 20
-15.75
 30
0.0
 10
1926.1666666666667
 20
-15.75
 30
0.0
 10
1926.1666666666667
 20
-20.75
 30
0.0
 10
1936
 20
-20.75
 30
0.0
 10
1936
 20
-10.375
 30
0.0
 10
1931
 20
-10.375
 30
0.0
 10
1931
 20
0
 30
0.0
 10
1936
 20
0
 30
0.0
 10
1936
 20
10.375
 30
0.0
 10
1931
 20
10.375
 30
0.0
 10
1931
 20
20.75
 30
0.0
 10
1919.1522936074568
 20
20.75
 30
0.0
 10
1918.0019963035186
 20
18.597945109895505
 30
0.0
 10
1916.281643806414
 20
16.50168952691942
 30
0.0
 10
1914.185388223438
 20
14.781337029814779
 30
0.0
 10
1911.7937874810505
 20
13.50299980026054
 30
0.0
 10
1909.1987494545565
 20
12.71580362108864
 30
0.0
 10
1906.5
 20
12.449999999999989
 30
0.0
 10
1903.8012505454435
 20
12.71580362108864
 30
0.0
 10
1901.2062125189495
 20
13.50299980026054
 30
0.0
 10
1898.8146117765623
 20
14.781337029814779
 30
0.0
 10
1896.718356193586
 20
16.50168952691942
 30
0.0
 10
1894.9980036964814
 20
18.597945109895505
 30
0.0
 10
1893.8477063925432
 20
20.75
 30
0.0
 10
1882
 20
20.75
 30
0.0
 10
1882
 20
11.625
 30
0.0
 10
1877
 20
11.625
 30
0.0
 10
1877
 20
2.5
 30
0.0
 10
1882
 20
2.5
 30
0.0
 10
1882
 20
-6.625
 30
0.0
 10
1877
 20
-6.625
 30
0.0
 10
1877
 20
-15.75
 30
0.0
 10
1886.8333333333333
 20
-15.75
 30
0.0
 10
1886.8333333333333
 20
-20.75
 30
0.0
 10
1896.6666666666667
 20
-20.75
 30
0.0
  0
LWPOLYLINE
  8
OpenJsCad
  90
27
  70
1
 10
1965.6666666666667
 20
-20.75
 30
0.0
 10
1965.6666666666667
 20
-15.75
 30
0.0
 10
1975.5
 20
-15.75
 30
0.0
 10
1975.5
 20
-20.75
 30
0.0
 10
1985.3333333333333
 20
-20.75
 30
0.0
 10
1985.3333333333333
 20
-15.75
 30
0.0
 10
1995.1666666666667
 20
-15.75
 30
0.0
 10
1995.1666666666667
 20
-20.75
 30
0.0
 10
2005
 20
-20.75
 30
0.0
 10
2005
 20
-10.375
 30
0.0
 10
2000
 20
-10.375
 30
0.0
 10
2000
 20
0
 30
0.0
 10
2005
 20
0
 30
0.0
 10
2005
 20
10.375
 30
0.0
 10
2000
 20
10.375
 30
0.0
 10
2000
 20
20.75
 30
0.0
 10
1951
 20
20.75
 30
0.0
 10
1951
 20
11.625
 30
0.0
 10
1946
 20
11.625
 30
0.0
 10
1946
 20
2.5
 30
0.0
 10
1951
 20
2.5
 30
0.0
 10
1951
 20
-6.625
 30
0.0
 10
1946
 20
-6.625
 30
0.0
 10
1946
 20
-15.75
 30
0.0
 10
1955.8333333333333
 20
-15.75
 30
0.0
 10
1955.8333333333333
 20
-20.75
 30
0.0
 10
1965.6666666666667
 20
-20.75
 30
0.0
  0
LWPOLYLINE
  8
OpenJsCad
  90
66
  70
1
 10
2326.9473684210525
 20
-20.75
 30
0.0
 10
2326.9473684210525
 20
-15.75
 30
0.0
 10
2336.8947368421054
 20
-15.75
 30
0.0
 10
2336.8947368421054
 20
-20.75
 30
0.0
 10
2346.842105263158
 20
-20.75
 30
0.0
 10
2346.842105263158
 20
-15.75
 30
0.0
 10
2356.7894736842104
 20
-15.75
 30
0.0
 10
2356.7894736842104
 20
-20.75
 30
0.0
 10
2366.7368421052633
 20
-20.75
 30
0.0
 10
2366.7368421052633
 20
-15.75
 30
0.0
 10
2376.684210526316
 20
-15.75
 30
0.0
 10
2376.684210526316
 20
-20.75
 30
0.0
 10
2386.6315789473683
 20
-20.75
 30
0.0
 10
2386.6315789473683
 20
-15.75
 30
0.0
 10
2396.5789473684213
 20
-15.75
 30
0.0
 10
2396.5789473684213
 20
-20.75
 30
0.0
 10
2406.5263157894738
 20
-20.75
 30
0.0
 10
2406.5263157894738
 20
-15.75
 30
0.0
 10
2416.4736842105262
 20
-15.75
 30
0.0
 10
2416.4736842105262
 20
-20.75
 30
0.0
 10
2426.4210526315787
 20
-20.75
 30
0.0
 10
2426.4210526315787
 20
-15.75
 30
0.0
 10
2436.3684210526317
 20
-15.75
 30
0.0
 10
2436.3684210526317
 20
-20.75
 30
0.0
 10
2446.315789473684
 20
-20.75
 30
0.0
 10
2446.315789473684
 20
-15.75
 30
0.0
 10
2456.2631578947367
 20
-15.75
 30
0.0
 10
2456.2631578947367
 20
-20.75
 30
0.0
 10
2466.2105263157896
 20
-20.75
 30
0.0
 10
2466.2105263157896
 20
-15.75
 30
0.0
 10
2476.157894736842
 20
-15.75
 30
0.0
 10
2476.157894736842
 20
-20.75
 30
0.0
 10
2486.1052631578946
 20
-20.75
 30
0.0
 10
2486.1052631578946
 20
-15.75
 30
0.0
 10
2496.0526315789475
 20
-15.75
 30
0.0
 10
2496.0526315789475
 20
-20.75
 30
0.0
 10
2506
 20
-20.75
 30
0.0
 10
2506
 20
-10.375
 30
0.0
 10
2501
 20
-10.375
 30
0.0
 10
2501
 20
0
 30
0.0
 10
2506
 20
0
 30
0.0
 10
2506
 20
10.375
 30
0.0
 10
2501
 20
10.375
 30
0.0
 10
2501
 20
20.75
 30
0.0
 10
2424.1522936074566
 20
20.75
 30
0.0
 10
2423.0019963035184
 20
18.597945109895498
 30
0.0
 10
2421.2816438064137
 20
16.50168952691942
 30
0.0
 10
2419.1853882234377
 20
14.781337029814786
 30
0.0
 10
2416.7937874810505
 20
13.502999800260532
 30
0.0
 10
2414.1987494545565
 20
12.71580362108864
 30
0.0
 10
2411.5
 20
12.449999999999996
 30
0.0
 10
2408.8012505454435
 20
12.71580362108864
 30
0.0
 10
2406.2062125189495
 20
13.502999800260532
 30
0.0
 10
2403.8146117765623
 20
14.781337029814786
 30
0.0
 10
2401.7183561935863
 20
16.50168952691942
 30
0.0
 10
2399.9980036964816
 20
18.597945109895498
 30
0.0
 10
2398.8477063925434
 20
20.75
 30
0.0
 10
2322
 20
20.75
 30
0.0
 10
2322
 20
11.625
 30
0.0
 10
2317
 20
11.625
 30
0.0
 10
2317
 20
2.5
 30
0.0
 10
2322
 20
2.5
 30
0.0
 10
2322
 20
-6.625
 30
0.0
 10
2317
 20
-6.625
 30
0.0
 10
2317
 20
-20.75
 30
0.0
 10
2326.9473684210525
 20
-20.75
 30
0.0
  0
LWPOLYLINE
  8
OpenJsCad
  90
53
  70
1
 10
2525.9473684210525
 20
-20.75
 30
0.0
 10
2525.9473684210525
 20
-15.75
 30
0.0
 10
2535.8947368421054
 20
-15.75
 30
0.0
 10
2535.8947368421054
 20
-20.75
 30
0.0
 10
2545.842105263158
 20
-20.75
 30
0.0
 10
2545.842105263158
 20
-15.75
 30
0.0
 10
2555.7894736842104
 20
-15.75
 30
0.0
 10
2555.7894736842104
 20
-20.75
 30
0.0
 10
2565.7368421052633
 20
-20.75
 30
0.0
 10
2565.7368421052633
 20
-15.75
 30
0.0
 10
2575.684210526316
 20
-15.75
 30
0.0
 10
2575.684210526316
 20
-20.75
 30
0.0
 10
2585.6315789473683
 20
-20.75
 30
0.0
 10
2585.6315789473683
 20
-15.75
 30
0.0
 10
2595.5789473684213
 20
-15.75
 30
0.0
 10
2595.5789473684213
 20
-20.75
 30
0.0
 10
2605.5263157894738
 20
-20.75
 30
0.0
 10
2605.5263157894738
 20
-15.75
 30
0.0
 10
2615.4736842105262
 20
-15.75
 30
0.0
 10
2615.4736842105262
 20
-20.75
 30
0.0
 10
2625.4210526315787
 20
-20.75
 30
0.0
 10
2625.4210526315787
 20
-15.75
 30
0.0
 10
2635.3684210526317
 20
-15.75
 30
0.0
 10
2635.3684210526317
 20
-20.75
 30
0.0
 10
2645.315789473684
 20
-20.75
 30
0.0
 10
2645.315789473684
 20
-15.75
 30
0.0
 10
2655.2631578947367
 20
-15.75
 30
0.0
 10
2655.2631578947367
 20
-20.75
 30
0.0
 10
2665.2105263157896
 20
-20.75
 30
0.0
 10
2665.2105263157896
 20
-15.75
 30
0.0
 10
2675.157894736842
 20
-15.75
 30
0.0
 10
2675.157894736842
 20
-20.75
 30
0.0
 10
2685.1052631578946
 20
-20.75
 30
0.0
 10
2685.1052631578946
 20
-15.75
 30
0.0
 10
2695.0526315789475
 20
-15.75
 30
0.0
 10
2695.0526315789475
 20
-20.75
 30
0.0
 10
2705
 20
-20.75
 30
0.0
 10
2705
 20
-10.375
 30
0.0
 10
2700
 20
-10.375
 30
0.0
 10
2700
 20
0
 30
0.0
 10
2705
 20
0
 30
0.0
 10
2705
 20
10.375
 30
0.0
 10
2700
 20
10.375
 30
0.0
 10
2700
 20
20.75
 30
0.0
 10
2521
 20
20.75
 30
0.0
 10
2521
 20
11.625
 30
0.0
 10
2516
 20
11.625
 30
0.0
 10
2516
 20
2.5
 30
0.0
 10
2521
 20
2.5
 30
0.0
 10
2521
 20
-6.625
 30
0.0
 10
2516
 20
-6.625
 30
0.0
 10
2516
 20
-20.75
 30
0.0
 10
2525.9473684210525
 20
-20.75
 30
0.0
  0
LWPOLYLINE
  8
OpenJsCad
  90
87
  70
1
 10
-95
 20
0
 30
0.0
 10
-95
 20
-10
 30
0.0
 10
-100
 20
-10
 30
0.0
 10
-100
 20
-20
 30
0.0
 10
-95
 20
-20
 30
0.0
 10
-95
 20
-30
 30
0.0
 10
-100
 20
-30
 30
0.0
 10
-100
 20
-40
 30
0.0
 10
-95
 20
-40
 30
0.0
 10
-95
 20
-50
 30
0.0
 10
-100
 20
-50
 30
0.0
 10
-100
 20
-60
 30
0.0
 10
-90
 20
-60
 30
0.0
 10
-90
 20
-55
 30
0.0
 10
-80
 20
-55
 30
0.0
 10
-80
 20
-60
 30
0.0
 10
-70
 20
-60
 30
0.0
 10
-70
 20
-55
 30
0.0
 10
-60
 20
-55
 30
0.0
 10
-60
 20
-60
 30
0.0
 10
-50
 20
-60
 30
0.0
 10
-50
 20
-55
 30
0.0
 10
-40
 20
-55
 30
0.0
 10
-40
 20
-60
 30
0.0
 10
-30
 20
-60
 30
0.0
 10
-30
 20
-55
 30
0.0
 10
-20
 20
-55
 30
0.0
 10
-20
 20
-60
 30
0.0
 10
-10
 20
-60
 30
0.0
 10
-10
 20
-55
 30
0.0
 10
0
 20
-55
 30
0.0
 10
0
 20
-60
 30
0.0
 10
10
 20
-60
 30
0.0
 10
10
 20
-55
 30
0.0
 10
20
 20
-55
 30
0.0
 10
20
 20
-60
 30
0.0
 10
30
 20
-60
 30
0.0
 10
30
 20
-55
 30
0.0
 10
40
 20
-55
 30
0.0
 10
40
 20
-60
 30
0.0
 10
50
 20
-60
 30
0.0
 10
50
 20
-55
 30
0.0
 10
60
 20
-55
 30
0.0
 10
60
 20
-60
 30
0.0
 10
70
 20
-60
 30
0.0
 10
70
 20
-55
 30
0.0
 10
80
 20
-55
 30
0.0
 10
80
 20
-60
 30
0.0
 10
90
 20
-60
 30
0.0
 10
90
 20
-55
 30
0.0
 10
100
 20
-55
 30
0.0
 10
100
 20
-50
 30
0.0
 10
95
 20
-50
 30
0.0
 10
95
 20
-40
 30
0.0
 10
100
 20
-40
 30
0.0
 10
100
 20
-30
 30
0.0
 10
95
 20
-30
 30
0.0
 10
95
 20
-20
 30
0.0
 10
100
 20
-20
 30
0.0
 10
100
 20
-10
 30
0.0
 10
95
 20
-10
 30
0.0
 10
95
 20
0
 30
0.0
 10
100
 20
0
 30
0.0
 10
100
 20
10
 30
0.0
 10
95
 20
10
 30
0.0
 10
95
 20
20
 30
0.0
 10
100
 20
20
 30
0.0
 10
100
 20
30
 30
0.0
 10
95
 20
30
 30
0.0
 10
95
 20
40
 30
0.0
 10
100
 20
40
 30
0.0
 10
100
 20
50
 30
0.0
 10
95
 20
50
 30
0.0
 10
95
 20
60
 30
0.0
 10
-95
 20
60
 30
0.0
 10
-95
 20
50
 30
0.0
 10
-100
 20
50
 30
0.0
 10
-100
 20
40
 30
0.0
 10
-95
 20
40
 30
0.0
 10
-95
 20
30
 30
0.0
 10
-100
 20
30
 30
0.0
 10
-100
 20
20
 30
0.0
 10
-95
 20
20
 30
0.0
 10
-95
 20
10
 30
0.0
 10
-100
 20
10
 30
0.0
 10
-100
 20
0
 30
0.0
 10
-95
 20
0
 30
0.0
  0
LWPOLYLINE
  8
OpenJsCad
  90
87
  70
1
 10
335
 20
0
 30
0.0
 10
335
 20
-10
 30
0.0
 10
330
 20
-10
 30
0.0
 10
330
 20
-20
 30
0.0
 10
335
 20
-20
 30
0.0
 10
335
 20
-30
 30
0.0
 10
330
 20
-30
 30
0.0
 10
330
 20
-40
 30
0.0
 10
335
 20
-40
 30
0.0
 10
335
 20
-50
 30
0.0
 10
330
 20
-50
 30
0.0
 10
330
 20
-60
 30
0.0
 10
340
 20
-60
 30
0.0
 10
340
 20
-55
 30
0.0
 10
350
 20
-55
 30
0.0
 10
350
 20
-60
 30
0.0
 10
360
 20
-60
 30
0.0
 10
360
 20
-55
 30
0.0
 10
370
 20
-55
 30
0.0
 10
370
 20
-60
 30
0.0
 10
380
 20
-60
 30
0.0
 10
380
 20
-55
 30
0.0
 10
390
 20
-55
 30
0.0
 10
390
 20
-60
 30
0.0
 10
400
 20
-60
 30
0.0
 10
400
 20
-55
 30
0.0
 10
410
 20
-55
 30
0.0
 10
410
 20
-60
 30
0.0
 10
420
 20
-60
 30
0.0
 10
420
 20
-55
 30
0.0
 10
430
 20
-55
 30
0.0
 10
430
 20
-60
 30
0.0
 10
440
 20
-60
 30
0.0
 10
440
 20
-55
 30
0.0
 10
450
 20
-55
 30
0.0
 10
450
 20
-60
 30
0.0
 10
460
 20
-60
 30
0.0
 10
460
 20
-55
 30
0.0
 10
470
 20
-55
 30
0.0
 10
470
 20
-60
 30
0.0
 10
480
 20
-60
 30
0.0
 10
480
 20
-55
 30
0.0
 10
490
 20
-55
 30
0.0
 10
490
 20
-60
 30
0.0
 10
500
 20
-60
 30
0.0
 10
500
 20
-55
 30
0.0
 10
510
 20
-55
 30
0.0
 10
510
 20
-60
 30
0.0
 10
520
 20
-60
 30
0.0
 10
520
 20
-55
 30
0.0
 10
530
 20
-55
 30
0.0
 10
530
 20
-45.41666666666668
 30
0.0
 10
525
 20
-45.41666666666668
 30
0.0
 10
525
 20
-35.83333333333334
 30
0.0
 10
530
 20
-35.83333333333334
 30
0.0
 10
530
 20
-26.250000000000014
 30
0.0
 10
525
 20
-26.250000000000014
 30
0.0
 10
525
 20
-16.66666666666667
 30
0.0
 10
530
 20
-16.66666666666667
 30
0.0
 10
530
 20
-7.083333333333343
 30
0.0
 10
525
 20
-7.083333333333343
 30
0.0
 10
525
 20
2.5
 30
0.0
 10
530
 20
2.5
 30
0.0
 10
530
 20
12.083333333333343
 30
0.0
 10
525
 20
12.083333333333343
 30
0.0
 10
525
 20
21.666666666666657
 30
0.0
 10
530
 20
21.666666666666657
 30
0.0
 10
530
 20
31.25
 30
0.0
 10
525
 20
31.25
 30
0.0
 10
525
 20
40.833333333333314
 30
0.0
 10
530
 20
40.833333333333314
 30
0.0
 10
530
 20
50.416666666666686
 30
0.0
 10
525
 20
50.416666666666686
 30
0.0
 10
525
 20
60
 30
0.0
 10
335
 20
60
 30
0.0
 10
335
 20
50
 30
0.0
 10
330
 20
50
 30
0.0
 10
330
 20
40
 30
0.0
 10
335
 20
40
 30
0.0
 10
335
 20
30
 30
0.0
 10
330
 20
30
 30
0.0
 10
330
 20
20
 30
0.0
 10
335
 20
20
 30
0.0
 10
335
 20
10
 30
0.0
 10
330
 20
10
 30
0.0
 10
330
 20
0
 30
0.0
 10
335
 20
0
 30
0.0
  0
LWPOLYLINE
  8
OpenJsCad
  90
35
  70
1
 10
1247
 20
0
 30
0.0
 10
1247
 20
10.449999999999989
 30
0.0
 10
1242
 20
10.449999999999989
 30
0.0
 10
1242
 20
20.899999999999977
 30
0.0
 10
1247
 20
20.899999999999977
 30
0.0
 10
1247
 20
31.349999999999994
 30
0.0
 10
1242
 20
31.349999999999994
 30
0.0
 10
1242
 20
41.79999999999998
 30
0.0
 10
1247
 20
41.79999999999998
 30
0.0
 10
1247
 20
52.25
 30
0.0
 10
1236.625
 20
52.25
 30
0.0
 10
1236.625
 20
57.25
 30
0.0
 10
1226.25
 20
57.25
 30
0.0
 10
1226.25
 20
52.25
 30
0.0
 10
1215.875
 20
52.25
 30
0.0
 10
1215.875
 20
57.25
 30
0.0
 10
1205.5
 20
57.25
 30
0.0
 10
1205.5
 20
-57.25
 30
0.0
 10
1215.875
 20
-57.25
 30
0.0
 10
1215.875
 20
-52.25
 30
0.0
 10
1226.25
 20
-52.25
 30
0.0
 10
1226.25
 20
-57.25
 30
0.0
 10
1236.625
 20
-57.25
 30
0.0
 10
1236.625
 20
-52.25
 30
0.0
 10
1242
 20
-52.25
 30
0.0
 10
1242
 20
-41.80000000000151
 30
0.0
 10
1247
 20
-41.8000000000015
 30
0.0
 10
1247
 20
-31.349999999998495
 30
0.0
 10
1242
 20
-31.349999999998488
 30
0.0
 10
1242
 20
-20.900000000000006
 30
0.0
 10
1247
 20
-20.900000000000006
 30
0.0
 10
1247
 20
-10.450000000000003
 30
0.0
 10
1242
 20
-10.450000000000003
 30
0.0
 10
1242
 20
0
 30
0.0
 10
1247
 20
0
 30
0.0
  0
LWPOLYLINE
  8
OpenJsCad
  90
35
  70
1
 10
1557
 20
0
 30
0.0
 10
1557
 20
10.449999999999989
 30
0.0
 10
1552
 20
10.449999999999989
 30
0.0
 10
1552
 20
20.899999999999977
 30
0.0
 10
1557
 20
20.899999999999977
 30
0.0
 10
1557
 20
31.349999999999994
 30
0.0
 10
1552
 20
31.349999999999994
 30
0.0
 10
1552
 20
41.79999999999998
 30
0.0
 10
1557
 20
41.79999999999998
 30
0.0
 10
1557
 20
52.25
 30
0.0
 10
1546.625
 20
52.25
 30
0.0
 10
1546.625
 20
57.25
 30
0.0
 10
1536.25
 20
57.25
 30
0.0
 10
1536.25
 20
52.25
 30
0.0
 10
1525.875
 20
52.25
 30
0.0
 10
1525.875
 20
57.25
 30
0.0
 10
1515.5
 20
57.25
 30
0.0
 10
1515.5
 20
-57.25
 30
0.0
 10
1525.875
 20
-57.25
 30
0.0
 10
1525.875
 20
-52.25
 30
0.0
 10
1536.25
 20
-52.25
 30
0.0
 10
1536.25
 20
-57.25
 30
0.0
 10
1546.625
 20
-57.25
 30
0.0
 10
1546.625
 20
-52.25
 30
0.0
 10
1552
 20
-52.25
 30
0.0
 10
1552
 20
-41.80000000000107
 30
0.0
 10
1557
 20
-41.80000000000106
 30
0.0
 10
1557
 20
-31.349999999998936
 30
0.0
 10
1552
 20
-31.34999999999893
 30
0.0
 10
1552
 20
-20.900000000000006
 30
0.0
 10
1557
 20
-20.900000000000006
 30
0.0
 10
1557
 20
-10.450000000000003
 30
0.0
 10
1552
 20
-10.450000000000003
 30
0.0
 10
1552
 20
0
 30
0.0
 10
1557
 20
0
 30
0.0
  0
LWPOLYLINE
  8
OpenJsCad
  90
35
  70
1
 10
1867
 20
0
 30
0.0
 10
1867
 20
10.449999999999989
 30
0.0
 10
1862
 20
10.449999999999989
 30
0.0
 10
1862
 20
20.899999999999977
 30
0.0
 10
1867
 20
20.899999999999977
 30
0.0
 10
1867
 20
31.349999999999994
 30
0.0
 10
1862
 20
31.349999999999994
 30
0.0
 10
1862
 20
41.79999999999998
 30
0.0
 10
1867
 20
41.79999999999998
 30
0.0
 10
1867
 20
52.25
 30
0.0
 10
1856.625
 20
52.25
 30
0.0
 10
1856.625
 20
57.25
 30
0.0
 10
1846.25
 20
57.25
 30
0.0
 10
1846.25
 20
52.25
 30
0.0
 10
1835.875
 20
52.25
 30
0.0
 10
1835.875
 20
57.25
 30
0.0
 10
1825.5
 20
57.25
 30
0.0
 10
1825.5
 20
-57.25
 30
0.0
 10
1835.875
 20
-57.25
 30
0.0
 10
1835.875
 20
-52.25
 30
0.0
 10
1846.25
 20
-52.25
 30
0.0
 10
1846.25
 20
-57.25
 30
0.0
 10
1856.625
 20
-57.25
 30
0.0
 10
1856.625
 20
-52.25
 30
0.0
 10
1862
 20
-52.25
 30
0.0
 10
1862
 20
-41.80000000000063
 30
0.0
 10
1867
 20
-41.80000000000062
 30
0.0
 10
1867
 20
-31.349999999999376
 30
0.0
 10
1862
 20
-31.34999999999937
 30
0.0
 10
1862
 20
-20.900000000000006
 30
0.0
 10
1867
 20
-20.900000000000006
 30
0.0
 10
1867
 20
-10.450000000000003
 30
0.0
 10
1862
 20
-10.450000000000003
 30
0.0
 10
1862
 20
0
 30
0.0
 10
1867
 20
0
 30
0.0
  0
LWPOLYLINE
  8
OpenJsCad
  90
35
  70
1
 10
2307
 20
0
 30
0.0
 10
2307
 20
10.449999999999989
 30
0.0
 10
2302
 20
10.449999999999989
 30
0.0
 10
2302
 20
20.899999999999977
 30
0.0
 10
2307
 20
20.899999999999977
 30
0.0
 10
2307
 20
31.349999999999994
 30
0.0
 10
2302
 20
31.349999999999994
 30
0.0
 10
2302
 20
41.79999999999998
 30
0.0
 10
2307
 20
41.79999999999998
 30
0.0
 10
2307
 20
52.25
 30
0.0
 10
2296.625
 20
52.25
 30
0.0
 10
2296.625
 20
57.25
 30
0.0
 10
2286.25
 20
57.25
 30
0.0
 10
2286.25
 20
52.25
 30
0.0
 10
2275.875
 20
52.25
 30
0.0
 10
2275.875
 20
57.25
 30
0.0
 10
2265.5
 20
57.25
 30
0.0
 10
2265.5
 20
-57.25
 30
0.0
 10
2275.875
 20
-57.25
 30
0.0
 10
2275.875
 20
-52.25
 30
0.0
 10
2286.25
 20
-52.25
 30
0.0
 10
2286.25
 20
-57.25
 30
0.0
 10
2296.625
 20
-57.25
 30
0.0
 10
2296.625
 20
-52.25
 30
0.0
 10
2302
 20
-52.25
 30
0.0
 10
2302
 20
-41.800000000000004
 30
0.0
 10
2307
 20
-41.8
 30
0.0
 10
2307
 20
-31.35
 30
0.0
 10
2302
 20
-31.349999999999994
 30
0.0
 10
2302
 20
-20.900000000000006
 30
0.0
 10
2307
 20
-20.900000000000006
 30
0.0
 10
2307
 20
-10.450000000000003
 30
0.0
 10
2302
 20
-10.450000000000003
 30
0.0
 10
2302
 20
0
 30
0.0
 10
2307
 20
0
 30
0.0
  0
LWPOLYLINE
  8
OpenJsCad
  90
5
  70
1
 10
565
 20
2.5
 30
0.0
 10
565
 20
-2.5
 30
0.0
 10
555
 20
-2.5
 30
0.0
 10
555
 20
2.5
 30
0.0
 10
565
 20
2.5
 30
0.0
  0
LWPOLYLINE
  8
OpenJsCad
  90
5
  70
1
 10
585
 20
2.5
 30
0.0
 10
585
 20
-2.5
 30
0.0
 10
575
 20
-2.5
 30
0.0
 10
575
 20
2.5
 30
0.0
 10
585
 20
2.5
 30
0.0
  0
LWPOLYLINE
  8
OpenJsCad
  90
5
  70
1
 10
605
 20
2.5
 30
0.0
 10
605
 20
-2.5
 30
0.0
 10
595
 20
-2.5
 30
0.0
 10
595
 20
2.5
 30
0.0
 10
605
 20
2.5
 30
0.0
  0
LWPOLYLINE
  8
OpenJsCad
  90
5
  70
1
 10
625
 20
2.5
 30
0.0
 10
625
 20
-2.5
 30
0.0
 10
615
 20
-2.5
 30
0.0
 10
615
 20
2.5
 30
0.0
 10
625
 20
2.5
 30
0.0
  0
LWPOLYLINE
  8
OpenJsCad
  90
5
  70
1
 10
645
 20
2.5
 30
0.0
 10
645
 20
-2.5
 30
0.0
 10
635
 20
-2.5
 30
0.0
 10
635
 20
2.5
 30
0.0
 10
645
 20
2.5
 30
0.0
  0
LWPOLYLINE
  8
OpenJsCad
  90
5
  70
1
 10
665
 20
2.5
 30
0.0
 10
665
 20
-2.5
 30
0.0
 10
655
 20
-2.5
 30
0.0
 10
655
 20
2.5
 30
0.0
 10
665
 20
2.5
 30
0.0
  0
LWPOLYLINE
  8
OpenJsCad
  90
5
  70
1
 10
685
 20
2.5
 30
0.0
 10
685
 20
-2.5
 30
0.0
 10
675
 20
-2.5
 30
0.0
 10
675
 20
2.5
 30
0.0
 10
685
 20
2.5
 30
0.0
  0
LWPOLYLINE
  8
OpenJsCad
  90
5
  70
1
 10
705
 20
2.5
 30
0.0
 10
705
 20
-2.5
 30
0.0
 10
695
 20
-2.5
 30
0.0
 10
695
 20
2.5
 30
0.0
 10
705
 20
2.5
 30
0.0
  0
LWPOLYLINE
  8
OpenJsCad
  90
5
  70
1
 10
725
 20
2.5
 30
0.0
 10
725
 20
-2.5
 30
0.0
 10
715
 20
-2.5
 30
0.0
 10
715
 20
2.5
 30
0.0
 10
725
 20
2.5
 30
0.0
  0
LWPOLYLINE
  8
OpenJsCad
  90
37
  70
1
 10
1163.125
 20
52.25
 30
0.0
 10
1163.125
 20
57.25
 30
0.0
 10
1154
 20
57.25
 30
0.0
 10
1154
 20
-57.25
 30
0.0
 10
1163.125
 20
-57.25
 30
0.0
 10
1163.125
 20
-52.25
 30
0.0
 10
1172.25
 20
-52.25
 30
0.0
 10
1172.25
 20
-57.25
 30
0.0
 10
1181.375
 20
-57.25
 30
0.0
 10
1181.375
 20
-52.25
 30
0.0
 10
1190.5
 20
-52.25
 30
0.0
 10
1190.5
 20
-46.84090909090911
 30
0.0
 10
1195.5
 20
-46.84090909090911
 30
0.0
 10
1195.5
 20
-36.43181818181669
 30
0.0
 10
1190.5
 20
-36.43181818181668
 30
0.0
 10
1190.5
 20
-26.022727272727288
 30
0.0
 10
1195.5
 20
-26.022727272727288
 30
0.0
 10
1195.5
 20
-15.613636363636381
 30
0.0
 10
1190.5
 20
-15.613636363636381
 30
0.0
 10
1190.5
 20
-5.204545454545475
 30
0.0
 10
1195.5
 20
-5.204545454545475
 30
0.0
 10
1195.5
 20
5.204545454545439
 30
0.0
 10
1190.5
 20
5.204545454545439
 30
0.0
 10
1190.5
 20
15.613636363636346
 30
0.0
 10
1195.5
 20
15.613636363636346
 30
0.0
 10
1195.5
 20
26.022727272727252
 30
0.0
 10
1190.5
 20
26.022727272727252
 30
0.0
 10
1190.5
 20
36.43181818181816
 30
0.0
 10
1195.5
 20
36.43181818181816
 30
0.0
 10
1195.5
 20
46.840909090909065
 30
0.0
 10
1190.5
 20
46.840909090909065
 30
0.0
 10
1190.5
 20
52.25
 30
0.0
 10
1181.375
 20
52.25
 30
0.0
 10
1181.375
 20
57.25
 30
0.0
 10
1172.25
 20
57.25
 30
0.0
 10
1172.25
 20
52.25
 30
0.0
 10
1163.125
 20
52.25
 30
0.0
  0
LWPOLYLINE
  8
OpenJsCad
  90
37
  70
1
 10
1473.125
 20
52.25
 30
0.0
 10
1473.125
 20
57.25
 30
0.0
 10
1464
 20
57.25
 30
0.0
 10
1464
 20
-57.25
 30
0.0
 10
1473.125
 20
-57.25
 30
0.0
 10
1473.125
 20
-52.25
 30
0.0
 10
1482.25
 20
-52.25
 30
0.0
 10
1482.25
 20
-57.25
 30
0.0
 10
1491.375
 20
-57.25
 30
0.0
 10
1491.375
 20
-52.25
 30
0.0
 10
1500.5
 20
-52.25
 30
0.0
 10
1500.5
 20
-46.84090909090911
 30
0.0
 10
1505.5
 20
-46.84090909090911
 30
0.0
 10
1505.5
 20
-36.43181818181713
 30
0.0
 10
1500.5
 20
-36.43181818181712
 30
0.0
 10
1500.5
 20
-26.022727272727288
 30
0.0
 10
1505.5
 20
-26.022727272727288
 30
0.0
 10
1505.5
 20
-15.613636363636381
 30
0.0
 10
1500.5
 20
-15.613636363636381
 30
0.0
 10
1500.5
 20
-5.204545454545475
 30
0.0
 10
1505.5
 20
-5.204545454545475
 30
0.0
 10
1505.5
 20
5.204545454545439
 30
0.0
 10
1500.5
 20
5.204545454545439
 30
0.0
 10
1500.5
 20
15.613636363636346
 30
0.0
 10
1505.5
 20
15.613636363636346
 30
0.0
 10
1505.5
 20
26.022727272727252
 30
0.0
 10
1500.5
 20
26.022727272727252
 30
0.0
 10
1500.5
 20
36.43181818181816
 30
0.0
 10
1505.5
 20
36.43181818181816
 30
0.0
 10
1505.5
 20
46.840909090909065
 30
0.0
 10
1500.5
 20
46.840909090909065
 30
0.0
 10
1500.5
 20
52.25
 30
0.0
 10
1491.375
 20
52.25
 30
0.0
 10
1491.375
 20
57.25
 30
0.0
 10
1482.25
 20
57.25
 30
0.0
 10
1482.25
 20
52.25
 30
0.0
 10
1473.125
 20
52.25
 30
0.0
  0
LWPOLYLINE
  8
OpenJsCad
  90
37
  70
1
 10
1783.125
 20
52.25
 30
0.0
 10
1783.125
 20
57.25
 30
0.0
 10
1774
 20
57.25
 30
0.0
 10
1774
 20
-57.25
 30
0.0
 10
1783.125
 20
-57.25
 30
0.0
 10
1783.125
 20
-52.25
 30
0.0
 10
1792.25
 20
-52.25
 30
0.0
 10
1792.25
 20
-57.25
 30
0.0
 10
1801.375
 20
-57.25
 30
0.0
 10
1801.375
 20
-52.25
 30
0.0
 10
1810.5
 20
-52.25
 30
0.0
 10
1810.5
 20
-46.84090909090911
 30
0.0
 10
1815.5
 20
-46.84090909090911
 30
0.0
 10
1815.5
 20
-36.43181818181757
 30
0.0
 10
1810.5
 20
-36.43181818181756
 30
0.0
 10
1810.5
 20
-26.022727272727288
 30
0.0
 10
1815.5
 20
-26.022727272727288
 30
0.0
 10
1815.5
 20
-15.613636363636381
 30
0.0
 10
1810.5
 20
-15.613636363636381
 30
0.0
 10
1810.5
 20
-5.204545454545475
 30
0.0
 10
1815.5
 20
-5.204545454545475
 30
0.0
 10
1815.5
 20
5.204545454545439
 30
0.0
 10
1810.5
 20
5.204545454545439
 30
0.0
 10
1810.5
 20
15.613636363636346
 30
0.0
 10
1815.5
 20
15.613636363636346
 30
0.0
 10
1815.5
 20
26.022727272727252
 30
0.0
 10
1810.5
 20
26.022727272727252
 30
0.0
 10
1810.5
 20
36.43181818181816
 30
0.0
 10
1815.5
 20
36.43181818181816
 30
0.0
 10
1815.5
 20
46.840909090909065
 30
0.0
 10
1810.5
 20
46.840909090909065
 30
0.0
 10
1810.5
 20
52.25
 30
0.0
 10
1801.375
 20
52.25
 30
0.0
 10
1801.375
 20
57.25
 30
0.0
 10
1792.25
 20
57.25
 30
0.0
 10
1792.25
 20
52.25
 30
0.0
 10
1783.125
 20
52.25
 30
0.0
  0
LWPOLYLINE
  8
OpenJsCad
  90
37
  70
1
 10
2223.125
 20
52.25
 30
0.0
 10
2223.125
 20
57.25
 30
0.0
 10
2214
 20
57.25
 30
0.0
 10
2214
 20
-57.25
 30
0.0
 10
2223.125
 20
-57.25
 30
0.0
 10
2223.125
 20
-52.25
 30
0.0
 10
2232.25
 20
-52.25
 30
0.0
 10
2232.25
 20
-57.25
 30
0.0
 10
2241.375
 20
-57.25
 30
0.0
 10
2241.375
 20
-52.25
 30
0.0
 10
2250.5
 20
-52.25
 30
0.0
 10
2250.5
 20
-46.84090909090911
 30
0.0
 10
2255.5
 20
-46.84090909090911
 30
0.0
 10
2255.5
 20
-36.431818181818194
 30
0.0
 10
2250.5
 20
-36.43181818181819
 30
0.0
 10
2250.5
 20
-26.022727272727288
 30
0.0
 10
2255.5
 20
-26.022727272727288
 30
0.0
 10
2255.5
 20
-15.613636363636381
 30
0.0
 10
2250.5
 20
-15.613636363636381
 30
0.0
 10
2250.5
 20
-5.204545454545475
 30
0.0
 10
2255.5
 20
-5.204545454545475
 30
0.0
 10
2255.5
 20
5.204545454545439
 30
0.0
 10
2250.5
 20
5.204545454545439
 30
0.0
 10
2250.5
 20
15.613636363636346
 30
0.0
 10
2255.5
 20
15.613636363636346
 30
0.0
 10
2255.5
 20
26.022727272727252
 30
0.0
 10
2250.5
 20
26.022727272727252
 30
0.0
 10
2250.5
 20
36.43181818181816
 30
0.0
 10
2255.5
 20
36.43181818181816
 30
0.0
 10
2255.5
 20
46.840909090909065
 30
0.0
 10
2250.5
 20
46.840909090909065
 30
0.0
 10
2250.5
 20
52.25
 30
0.0
 10
2241.375
 20
52.25
 30
0.0
 10
2241.375
 20
57.25
 30
0.0
 10
2232.25
 20
57.25
 30
0.0
 10
2232.25
 20
52.25
 30
0.0
 10
2223.125
 20
52.25
 30
0.0
  0
LWPOLYLINE
  8
OpenJsCad
  90
73
  70
1
 10
1104.6666666666667
 20
-57.25
 30
0.0
 10
1104.6666666666667
 20
-62.25
 30
0.0
 10
1114.5
 20
-62.25
 30
0.0
 10
1114.5
 20
-57.25
 30
0.0
 10
1124.3333333333333
 20
-57.25
 30
0.0
 10
1124.3333333333333
 20
-62.25
 30
0.0
 10
1134.1666666666667
 20
-62.25
 30
0.0
 10
1134.1666666666667
 20
-57.25
 30
0.0
 10
1144
 20
-57.25
 30
0.0
 10
1144
 20
-46.800000000000004
 30
0.0
 10
1139
 20
-46.800000000000004
 30
0.0
 10
1139
 20
-36.35
 30
0.0
 10
1144
 20
-36.35
 30
0.0
 10
1144
 20
-25.900000000000006
 30
0.0
 10
1139
 20
-25.900000000000006
 30
0.0
 10
1139
 20
-15.450000000000003
 30
0.0
 10
1144
 20
-15.450000000000003
 30
0.0
 10
1144
 20
-5
 30
0.0
 10
1139
 20
-5
 30
0.0
 10
1139
 20
5.450000000000003
 30
0.0
 10
1144
 20
5.450000000000003
 30
0.0
 10
1144
 20
15.900000000000006
 30
0.0
 10
1139
 20
15.900000000000006
 30
0.0
 10
1139
 20
26.349999999999994
 30
0.0
 10
1144
 20
26.349999999999994
 30
0.0
 10
1144
 20
36.80000000000001
 30
0.0
 10
1139
 20
36.80000000000001
 30
0.0
 10
1139
 20
47.25
 30
0.0
 10
1134.1666666666667
 20
47.25
 30
0.0
 10
1134.1666666666667
 20
52.25
 30
0.0
 10
1144
 20
52.25
 30
0.0
 10
1144
 20
57.25
 30
0.0
 10
1143.903926402016
 20
58.225451610080626
 30
0.0
 10
1143.6193976625568
 20
59.16341716182558
 30
0.0
 10
1143.1573480615125
 20
60.02785116509796
 30
0.0
 10
1142.5355339059324
 20
60.785533905932596
 30
0.0
 10
1141.777851165098
 20
61.407348061512664
 30
0.0
 10
1140.9134171618255
 20
61.86939766255648
 30
0.0
 10
1139.9754516100807
 20
62.15392640201637
 30
0.0
 10
1139
 20
62.25
 30
0.0
 10
1090
 20
62.25
 30
0.0
 10
1089.0245483899193
 20
62.15392640201617
 30
0.0
 10
1088.0865828381745
 20
61.86939766255654
 30
0.0
 10
1087.2221488349019
 20
61.40734806151289
 30
0.0
 10
1086.4644660940676
 20
60.78553390593234
 30
0.0
 10
1085.8426519384875
 20
60.02785116509793
 30
0.0
 10
1085.3806023374434
 20
59.16341716182558
 30
0.0
 10
1085.096073597984
 20
58.22545161008057
 30
0.0
 10
1085
 20
57.25000000000003
 30
0.0
 10
1085
 20
41.84090909090908
 30
0.0
 10
1090
 20
41.84090909090908
 30
0.0
 10
1090
 20
31.431818181818173
 30
0.0
 10
1085
 20
31.431818181818173
 30
0.0
 10
1085
 20
21.022727272727266
 30
0.0
 10
1090
 20
21.022727272727266
 30
0.0
 10
1090
 20
10.61363636363636
 30
0.0
 10
1085
 20
10.61363636363636
 30
0.0
 10
1085
 20
0.20454545454543904
 30
0.0
 10
1090
 20
0.20454545454543904
 30
0.0
 10
1090
 20
-10.20454545454546
 30
0.0
 10
1085
 20
-10.20454545454546
 30
0.0
 10
1085
 20
-20.613636363636367
 30
0.0
 10
1090
 20
-20.613636363636367
 30
0.0
 10
1090
 20
-31.022727272727273
 30
0.0
 10
1085
 20
-31.022727272727273
 30
0.0
 10
1085
 20
-41.43181818181819
 30
0.0
 10
1090
 20
-41.43181818181819
 30
0.0
 10
1090
 20
-51.84090909090909
 30
0.0
 10
1085
 20
-51.84090909090909
 30
0.0
 10
1085
 20
-62.25
 30
0.0
 10
1094.8333333333333
 20
-62.25
 30
0.0
 10
1094.8333333333333
 20
-57.25
 30
0.0
 10
1104.6666666666667
 20
-57.25
 30
0.0
  0
LWPOLYLINE
  8
OpenJsCad
  90
73
  70
1
 10
1414.6666666666667
 20
-57.25
 30
0.0
 10
1414.6666666666667
 20
-62.25
 30
0.0
 10
1424.5
 20
-62.25
 30
0.0
 10
1424.5
 20
-57.25
 30
0.0
 10
1434.3333333333333
 20
-57.25
 30
0.0
 10
1434.3333333333333
 20
-62.25
 30
0.0
 10
1444.1666666666667
 20
-62.25
 30
0.0
 10
1444.1666666666667
 20
-57.25
 30
0.0
 10
1454
 20
-57.25
 30
0.0
 10
1454
 20
-46.800000000000004
 30
0.0
 10
1449
 20
-46.800000000000004
 30
0.0
 10
1449
 20
-36.35
 30
0.0
 10
1454
 20
-36.35
 30
0.0
 10
1454
 20
-25.900000000000006
 30
0.0
 10
1449
 20
-25.900000000000006
 30
0.0
 10
1449
 20
-15.450000000000003
 30
0.0
 10
1454
 20
-15.450000000000003
 30
0.0
 10
1454
 20
-5
 30
0.0
 10
1449
 20
-5
 30
0.0
 10
1449
 20
5.450000000000003
 30
0.0
 10
1454
 20
5.450000000000003
 30
0.0
 10
1454
 20
15.900000000000006
 30
0.0
 10
1449
 20
15.900000000000006
 30
0.0
 10
1449
 20
26.349999999999994
 30
0.0
 10
1454
 20
26.349999999999994
 30
0.0
 10
1454
 20
36.80000000000001
 30
0.0
 10
1449
 20
36.80000000000001
 30
0.0
 10
1449
 20
47.25
 30
0.0
 10
1444.1666666666667
 20
47.25
 30
0.0
 10
1444.1666666666667
 20
52.25
 30
0.0
 10
1454
 20
52.25
 30
0.0
 10
1454
 20
57.25
 30
0.0
 10
1453.903926402016
 20
58.225451610080626
 30
0.0
 10
1453.6193976625568
 20
59.16341716182558
 30
0.0
 10
1453.1573480615125
 20
60.02785116509796
 30
0.0
 10
1452.5355339059324
 20
60.785533905932596
 30
0.0
 10
1451.777851165098
 20
61.407348061512664
 30
0.0
 10
1450.9134171618255
 20
61.86939766255648
 30
0.0
 10
1449.9754516100807
 20
62.15392640201637
 30
0.0
 10
1449
 20
62.25
 30
0.0
 10
1400
 20
62.25
 30
0.0
 10
1399.0245483899193
 20
62.15392640201617
 30
0.0
 10
1398.0865828381745
 20
61.86939766255654
 30
0.0
 10
1397.2221488349019
 20
61.40734806151289
 30
0.0
 10
1396.4644660940676
 20
60.78553390593234
 30
0.0
 10
1395.8426519384875
 20
60.02785116509793
 30
0.0
 10
1395.3806023374434
 20
59.16341716182558
 30
0.0
 10
1395.096073597984
 20
58.22545161008057
 30
0.0
 10
1395
 20
57.25000000000003
 30
0.0
 10
1395
 20
41.84090909090908
 30
0.0
 10
1400
 20
41.84090909090908
 30
0.0
 10
1400
 20
31.431818181818173
 30
0.0
 10
1395
 20
31.431818181818173
 30
0.0
 10
1395
 20
21.022727272727266
 30
0.0
 10
1400
 20
21.022727272727266
 30
0.0
 10
1400
 20
10.61363636363636
 30
0.0
 10
1395
 20
10.61363636363636
 30
0.0
 10
1395
 20
0.20454545454543904
 30
0.0
 10
1400
 20
0.20454545454543904
 30
0.0
 10
1400
 20
-10.20454545454546
 30
0.0
 10
1395
 20
-10.20454545454546
 30
0.0
 10
1395
 20
-20.613636363636367
 30
0.0
 10
1400
 20
-20.613636363636367
 30
0.0
 10
1400
 20
-31.022727272727273
 30
0.0
 10
1395
 20
-31.022727272727273
 30
0.0
 10
1395
 20
-41.43181818181819
 30
0.0
 10
1400
 20
-41.43181818181819
 30
0.0
 10
1400
 20
-51.84090909090909
 30
0.0
 10
1395
 20
-51.84090909090909
 30
0.0
 10
1395
 20
-62.25
 30
0.0
 10
1404.8333333333333
 20
-62.25
 30
0.0
 10
1404.8333333333333
 20
-57.25
 30
0.0
 10
1414.6666666666667
 20
-57.25
 30
0.0
  0
LWPOLYLINE
  8
OpenJsCad
  90
73
  70
1
 10
1724.6666666666667
 20
-57.25
 30
0.0
 10
1724.6666666666667
 20
-62.25
 30
0.0
 10
1734.5
 20
-62.25
 30
0.0
 10
1734.5
 20
-57.25
 30
0.0
 10
1744.3333333333333
 20
-57.25
 30
0.0
 10
1744.3333333333333
 20
-62.25
 30
0.0
 10
1754.1666666666667
 20
-62.25
 30
0.0
 10
1754.1666666666667
 20
-57.25
 30
0.0
 10
1764
 20
-57.25
 30
0.0
 10
1764
 20
-46.800000000000004
 30
0.0
 10
1759
 20
-46.800000000000004
 30
0.0
 10
1759
 20
-36.35
 30
0.0
 10
1764
 20
-36.35
 30
0.0
 10
1764
 20
-25.900000000000006
 30
0.0
 10
1759
 20
-25.900000000000006
 30
0.0
 10
1759
 20
-15.450000000000003
 30
0.0
 10
1764
 20
-15.450000000000003
 30
0.0
 10
1764
 20
-5
 30
0.0
 10
1759
 20
-5
 30
0.0
 10
1759
 20
5.450000000000003
 30
0.0
 10
1764
 20
5.450000000000003
 30
0.0
 10
1764
 20
15.900000000000006
 30
0.0
 10
1759
 20
15.900000000000006
 30
0.0
 10
1759
 20
26.349999999999994
 30
0.0
 10
1764
 20
26.349999999999994
 30
0.0
 10
1764
 20
36.80000000000001
 30
0.0
 10
1759
 20
36.80000000000001
 30
0.0
 10
1759
 20
47.25
 30
0.0
 10
1754.1666666666667
 20
47.25
 30
0.0
 10
1754.1666666666667
 20
52.25
 30
0.0
 10
1764
 20
52.25
 30
0.0
 10
1764
 20
57.25
 30
0.0
 10
1763.903926402016
 20
58.225451610080626
 30
0.0
 10
1763.6193976625568
 20
59.16341716182558
 30
0.0
 10
1763.1573480615125
 20
60.02785116509796
 30
0.0
 10
1762.5355339059324
 20
60.785533905932596
 30
0.0
 10
1761.777851165098
 20
61.407348061512664
 30
0.0
 10
1760.9134171618255
 20
61.86939766255648
 30
0.0
 10
1759.9754516100807
 20
62.15392640201637
 30
0.0
 10
1759
 20
62.25
 30
0.0
 10
1710
 20
62.25
 30
0.0
 10
1709.0245483899193
 20
62.15392640201617
 30
0.0
 10
1708.0865828381745
 20
61.86939766255654
 30
0.0
 10
1707.2221488349019
 20
61.40734806151289
 30
0.0
 10
1706.4644660940676
 20
60.78553390593234
 30
0.0
 10
1705.8426519384873
 20
60.02785116509793
 30
0.0
 10
1705.3806023374434
 20
59.16341716182558
 30
0.0
 10
1705.096073597984
 20
58.22545161008057
 30
0.0
 10
1705
 20
57.25000000000003
 30
0.0
 10
1705
 20
41.84090909090908
 30
0.0
 10
1710
 20
41.84090909090908
 30
0.0
 10
1710
 20
31.431818181818173
 30
0.0
 10
1705
 20
31.431818181818173
 30
0.0
 10
1705
 20
21.022727272727266
 30
0.0
 10
1710
 20
21.022727272727266
 30
0.0
 10
1710
 20
10.61363636363636
 30
0.0
 10
1705
 20
10.61363636363636
 30
0.0
 10
1705
 20
0.20454545454543904
 30
0.0
 10
1710
 20
0.20454545454543904
 30
0.0
 10
1710
 20
-10.20454545454546
 30
0.0
 10
1705
 20
-10.20454545454546
 30
0.0
 10
1705
 20
-20.613636363636367
 30
0.0
 10
1710
 20
-20.613636363636367
 30
0.0
 10
1710
 20
-31.022727272727273
 30
0.0
 10
1705
 20
-31.022727272727273
 30
0.0
 10
1705
 20
-41.43181818181819
 30
0.0
 10
1710
 20
-41.43181818181819
 30
0.0
 10
1710
 20
-51.84090909090909
 30
0.0
 10
1705
 20
-51.84090909090909
 30
0.0
 10
1705
 20
-62.25
 30
0.0
 10
1714.8333333333333
 20
-62.25
 30
0.0
 10
1714.8333333333333
 20
-57.25
 30
0.0
 10
1724.6666666666667
 20
-57.25
 30
0.0
  0
LWPOLYLINE
  8
OpenJsCad
  90
103
  70
1
 10
2024.9473684210527
 20
-57.25
 30
0.0
 10
2024.9473684210527
 20
-62.25
 30
0.0
 10
2034.8947368421052
 20
-62.25
 30
0.0
 10
2034.8947368421052
 20
-57.25
 30
0.0
 10
2044.842105263158
 20
-57.25
 30
0.0
 10
2044.842105263158
 20
-62.25
 30
0.0
 10
2054.7894736842104
 20
-62.25
 30
0.0
 10
2054.7894736842104
 20
-57.25
 30
0.0
 10
2064.7368421052633
 20
-57.25
 30
0.0
 10
2064.7368421052633
 20
-62.25
 30
0.0
 10
2074.684210526316
 20
-62.25
 30
0.0
 10
2074.684210526316
 20
-57.25
 30
0.0
 10
2084.6315789473683
 20
-57.25
 30
0.0
 10
2084.6315789473683
 20
-62.25
 30
0.0
 10
2094.5789473684213
 20
-62.25
 30
0.0
 10
2094.5789473684213
 20
-57.25
 30
0.0
 10
2104.5263157894738
 20
-57.25
 30
0.0
 10
2104.5263157894738
 20
-62.25
 30
0.0
 10
2114.4736842105262
 20
-62.25
 30
0.0
 10
2114.4736842105262
 20
-57.25
 30
0.0
 10
2124.4210526315787
 20
-57.25
 30
0.0
 10
2124.4210526315787
 20
-62.25
 30
0.0
 10
2134.3684210526317
 20
-62.25
 30
0.0
 10
2134.3684210526317
 20
-57.25
 30
0.0
 10
2144.315789473684
 20
-57.25
 30
0.0
 10
2144.315789473684
 20
-62.25
 30
0.0
 10
2154.2631578947367
 20
-62.25
 30
0.0
 10
2154.2631578947367
 20
-57.25
 30
0.0
 10
2164.2105263157896
 20
-57.25
 30
0.0
 10
2164.2105263157896
 20
-62.25
 30
0.0
 10
2174.157894736842
 20
-62.25
 30
0.0
 10
2174.157894736842
 20
-57.25
 30
0.0
 10
2184.1052631578946
 20
-57.25
 30
0.0
 10
2184.1052631578946
 20
-62.25
 30
0.0
 10
2194.0526315789475
 20
-62.25
 30
0.0
 10
2194.0526315789475
 20
-57.25
 30
0.0
 10
2204
 20
-57.25
 30
0.0
 10
2204
 20
-46.800000000000004
 30
0.0
 10
2199
 20
-46.800000000000004
 30
0.0
 10
2199
 20
-36.35
 30
0.0
 10
2204
 20
-36.35
 30
0.0
 10
2204
 20
-25.900000000000006
 30
0.0
 10
2199
 20
-25.900000000000006
 30
0.0
 10
2199
 20
-15.450000000000003
 30
0.0
 10
2204
 20
-15.450000000000003
 30
0.0
 10
2204
 20
-5
 30
0.0
 10
2199
 20
-5
 30
0.0
 10
2199
 20
5.450000000000003
 30
0.0
 10
2204
 20
5.450000000000003
 30
0.0
 10
2204
 20
15.900000000000006
 30
0.0
 10
2199
 20
15.900000000000006
 30
0.0
 10
2199
 20
26.349999999999994
 30
0.0
 10
2204
 20
26.349999999999994
 30
0.0
 10
2204
 20
36.80000000000001
 30
0.0
 10
2199
 20
36.80000000000001
 30
0.0
 10
2199
 20
47.25
 30
0.0
 10
2194.0526315789475
 20
47.25
 30
0.0
 10
2194.0526315789475
 20
52.25
 30
0.0
 10
2204
 20
52.25
 30
0.0
 10
2204
 20
57.25
 30
0.0
 10
2203.903926402016
 20
58.22545161008064
 30
0.0
 10
2203.6193976625573
 20
59.16341716182569
 30
0.0
 10
2203.1573480615125
 20
60.02785116509796
 30
0.0
 10
2202.535533905933
 20
60.785533905932965
 30
0.0
 10
2201.7778511650977
 20
61.40734806151221
 30
0.0
 10
2200.913417161825
 20
61.8693976625554
 30
0.0
 10
2199.975451610081
 20
62.15392640201787
 30
0.0
 10
2199
 20
62.25
 30
0.0
 10
2020
 20
62.25
 30
0.0
 10
2019.0245483899193
 20
62.15392640201617
 30
0.0
 10
2018.0865828381745
 20
61.86939766255654
 30
0.0
 10
2017.2221488349019
 20
61.40734806151289
 30
0.0
 10
2016.4644660940676
 20
60.78553390593234
 30
0.0
 10
2015.8426519384875
 20
60.02785116509793
 30
0.0
 10
2015.3806023374434
 20
59.16341716182558
 30
0.0
 10
2015.096073597984
 20
58.22545161008057
 30
0.0
 10
2015
 20
57.25000000000003
 30
0.0
 10
2015
 20
52.25
 30
0.0
 10
2024.9473684210527
 20
52.25
 30
0.0
 10
2024.9473684210527
 20
47.25
 30
0.0
 10
2015
 20
47.25
 30
0.0
 10
2015
 20
41.84090909090908
 30
0.0
 10
2020
 20
41.84090909090908
 30
0.0
 10
2020
 20
31.431818181818173
 30
0.0
 10
2015
 20
31.431818181818173
 30
0.0
 10
2015
 20
21.022727272727266
 30
0.0
 10
2020
 20
21.022727272727266
 30
0.0
 10
2020
 20
10.61363636363636
 30
0.0
 10
2015
 20
10.61363636363636
 30
0.0
 10
2015
 20
0.20454545454543904
 30
0.0
 10
2020
 20
0.20454545454543904
 30
0.0
 10
2020
 20
-10.20454545454546
 30
0.0
 10
2015
 20
-10.20454545454546
 30
0.0
 10
2015
 20
-20.613636363636367
 30
0.0
 10
2020
 20
-20.613636363636367
 30
0.0
 10
2020
 20
-31.022727272727273
 30
0.0
 10
2015
 20
-31.022727272727273
 30
0.0
 10
2015
 20
-41.43181818181819
 30
0.0
 10
2020
 20
-41.43181818181819
 30
0.0
 10
2020
 20
-51.84090909090909
 30
0.0
 10
2015
 20
-51.84090909090909
 30
0.0
 10
2015
 20
-57.25
 30
0.0
 10
2024.9473684210527
 20
-57.25
 30
0.0
  0
LWPOLYLINE
  8
OpenJsCad
  90
5
  70
1
 10
-35
 20
-5
 30
0.0
 10
-35
 20
5
 30
0.0
 10
-30
 20
5
 30
0.0
 10
-30
 20
-5
 30
0.0
 10
-35
 20
-5
 30
0.0
  0
LWPOLYLINE
  8
OpenJsCad
  90
5
  70
1
 10
30
 20
-5
 30
0.0
 10
30
 20
5
 30
0.0
 10
35
 20
5
 30
0.0
 10
35
 20
-5
 30
0.0
 10
30
 20
-5
 30
0.0
  0
LWPOLYLINE
  8
OpenJsCad
  90
5
  70
1
 10
157.5
 20
-5
 30
0.0
 10
157.5
 20
5
 30
0.0
 10
162.5
 20
5
 30
0.0
 10
162.5
 20
-5
 30
0.0
 10
157.5
 20
-5
 30
0.0
  0
LWPOLYLINE
  8
OpenJsCad
  90
5
  70
1
 10
267.5
 20
-5
 30
0.0
 10
267.5
 20
5
 30
0.0
 10
272.5
 20
5
 30
0.0
 10
272.5
 20
-5
 30
0.0
 10
267.5
 20
-5
 30
0.0
  0
LWPOLYLINE
  8
OpenJsCad
  90
117
  70
1
 10
540
 20
-5
 30
0.0
 10
540
 20
-15
 30
0.0
 10
545
 20
-15
 30
0.0
 10
545
 20
-25
 30
0.0
 10
540
 20
-25
 30
0.0
 10
540
 20
-35
 30
0.0
 10
545
 20
-35
 30
0.0
 10
545
 20
-45
 30
0.0
 10
550
 20
-45
 30
0.0
 10
550
 20
-50
 30
0.0
 10
560
 20
-50
 30
0.0
 10
560
 20
-45
 30
0.0
 10
570
 20
-45
 30
0.0
 10
570
 20
-50
 30
0.0
 10
580
 20
-50
 30
0.0
 10
580
 20
-45
 30
0.0
 10
590
 20
-45
 30
0.0
 10
590
 20
-50
 30
0.0
 10
600
 20
-50
 30
0.0
 10
600
 20
-45
 30
0.0
 10
610
 20
-45
 30
0.0
 10
610
 20
-50
 30
0.0
 10
620
 20
-50
 30
0.0
 10
620
 20
-45
 30
0.0
 10
630
 20
-45
 30
0.0
 10
630
 20
-50
 30
0.0
 10
640
 20
-50
 30
0.0
 10
640
 20
-45
 30
0.0
 10
650
 20
-45
 30
0.0
 10
650
 20
-50
 30
0.0
 10
660
 20
-50
 30
0.0
 10
660
 20
-45
 30
0.0
 10
670
 20
-45
 30
0.0
 10
670
 20
-50
 30
0.0
 10
680
 20
-50
 30
0.0
 10
680
 20
-45
 30
0.0
 10
690
 20
-45
 30
0.0
 10
690
 20
-50
 30
0.0
 10
700
 20
-50
 30
0.0
 10
700
 20
-45
 30
0.0
 10
710
 20
-45
 30
0.0
 10
710
 20
-50
 30
0.0
 10
720
 20
-50
 30
0.0
 10
720
 20
-45
 30
0.0
 10
730
 20
-45
 30
0.0
 10
730
 20
-50
 30
0.0
 10
740
 20
-50
 30
0.0
 10
740
 20
-40.5
 30
0.0
 10
735
 20
-40.5
 30
0.0
 10
735
 20
-31
 30
0.0
 10
740
 20
-31
 30
0.0
 10
740
 20
-21.5
 30
0.0
 10
735
 20
-21.5
 30
0.0
 10
735
 20
-12
 30
0.0
 10
740
 20
-12
 30
0.0
 10
740
 20
-2.5
 30
0.0
 10
735
 20
-2.5
 30
0.0
 10
735
 20
7
 30
0.0
 10
740
 20
7
 30
0.0
 10
740
 20
16.5
 30
0.0
 10
735
 20
16.5
 30
0.0
 10
735
 20
26
 30
0.0
 10
740
 20
26
 30
0.0
 10
740
 20
35.5
 30
0.0
 10
735
 20
35.5
 30
0.0
 10
735
 20
45
 30
0.0
 10
740
 20
45
 30
0.0
 10
740
 20
50
 30
0.0
 10
730
 20
50
 30
0.0
 10
730
 20
45
 30
0.0
 10
720
 20
45
 30
0.0
 10
720
 20
50
 30
0.0
 10
710
 20
50
 30
0.0
 10
710
 20
45
 30
0.0
 10
700
 20
45
 30
0.0
 10
700
 20
50
 30
0.0
 10
690
 20
50
 30
0.0
 10
690
 20
45
 30
0.0
 10
680
 20
45
 30
0.0
 10
680
 20
50
 30
0.0
 10
670
 20
50
 30
0.0
 10
670
 20
45
 30
0.0
 10
660
 20
45
 30
0.0
 10
660
 20
50
 30
0.0
 10
650
 20
50
 30
0.0
 10
650
 20
45
 30
0.0
 10
640
 20
45
 30
0.0
 10
640
 20
50
 30
0.0
 10
630
 20
50
 30
0.0
 10
630
 20
45
 30
0.0
 10
620
 20
45
 30
0.0
 10
620
 20
50
 30
0.0
 10
610
 20
50
 30
0.0
 10
610
 20
45
 30
0.0
 10
600
 20
45
 30
0.0
 10
600
 20
50
 30
0.0
 10
590
 20
50
 30
0.0
 10
590
 20
45
 30
0.0
 10
580
 20
45
 30
0.0
 10
580
 20
50
 30
0.0
 10
570
 20
50
 30
0.0
 10
570
 20
45
 30
0.0
 10
560
 20
45
 30
0.0
 10
560
 20
50
 30
0.0
 10
550
 20
50
 30
0.0
 10
550
 20
45
 30
0.0
 10
545
 20
45
 30
0.0
 10
545
 20
35
 30
0.0
 10
540
 20
35
 30
0.0
 10
540
 20
25
 30
0.0
 10
545
 20
25
 30
0.0
 10
545
 20
15
 30
0.0
 10
540
 20
15
 30
0.0
 10
540
 20
5
 30
0.0
 10
545
 20
5
 30
0.0
 10
545
 20
-5
 30
0.0
 10
540
 20
-5
 30
0.0
  0
LWPOLYLINE
  8
OpenJsCad
  90
5
  70
1
 10
1094.8333333333333
 20
47.25
 30
0.0
 10
1094.8333333333333
 20
52.25
 30
0.0
 10
1104.6666666666667
 20
52.25
 30
0.0
 10
1104.6666666666667
 20
47.25
 30
0.0
 10
1094.8333333333333
 20
47.25
 30
0.0
  0
LWPOLYLINE
  8
OpenJsCad
  90
5
  70
1
 10
1114.5
 20
47.25
 30
0.0
 10
1114.5
 20
52.25
 30
0.0
 10
1124.3333333333333
 20
52.25
 30
0.0
 10
1124.3333333333333
 20
47.25
 30
0.0
 10
1114.5
 20
47.25
 30
0.0
  0
LWPOLYLINE
  8
OpenJsCad
  90
5
  70
1
 10
1404.8333333333333
 20
47.25
 30
0.0
 10
1404.8333333333333
 20
52.25
 30
0.0
 10
1414.6666666666667
 20
52.25
 30
0.0
 10
1414.6666666666667
 20
47.25
 30
0.0
 10
1404.8333333333333
 20
47.25
 30
0.0
  0
LWPOLYLINE
  8
OpenJsCad
  90
5
  70
1
 10
1424.5
 20
47.25
 30
0.0
 10
1424.5
 20
52.25
 30
0.0
 10
1434.3333333333333
 20
52.25
 30
0.0
 10
1434.3333333333333
 20
47.25
 30
0.0
 10
1424.5
 20
47.25
 30
0.0
  0
LWPOLYLINE
  8
OpenJsCad
  90
5
  70
1
 10
1714.8333333333333
 20
47.25
 30
0.0
 10
1714.8333333333333
 20
52.25
 30
0.0
 10
1724.6666666666667
 20
52.25
 30
0.0
 10
1724.6666666666667
 20
47.25
 30
0.0
 10
1714.8333333333333
 20
47.25
 30
0.0
  0
LWPOLYLINE
  8
OpenJsCad
  90
5
  70
1
 10
1734.5
 20
47.25
 30
0.0
 10
1734.5
 20
52.25
 30
0.0
 10
1744.3333333333333
 20
52.25
 30
0.0
 10
1744.3333333333333
 20
47.25
 30
0.0
 10
1734.5
 20
47.25
 30
0.0
  0
LWPOLYLINE
  8
OpenJsCad
  90
5
  70
1
 10
2034.8947368421052
 20
47.25
 30
0.0
 10
2034.8947368421052
 20
52.25
 30
0.0
 10
2044.842105263158
 20
52.25
 30
0.0
 10
2044.842105263158
 20
47.25
 30
0.0
 10
2034.8947368421052
 20
47.25
 30
0.0
  0
LWPOLYLINE
  8
OpenJsCad
  90
5
  70
1
 10
2054.7894736842104
 20
47.25
 30
0.0
 10
2054.7894736842104
 20
52.25
 30
0.0
 10
2064.7368421052633
 20
52.25
 30
0.0
 10
2064.7368421052633
 20
47.25
 30
0.0
 10
2054.7894736842104
 20
47.25
 30
0.0
  0
LWPOLYLINE
  8
OpenJsCad
  90
5
  70
1
 10
2074.684210526316
 20
47.25
 30
0.0
 10
2074.684210526316
 20
52.25
 30
0.0
 10
2084.6315789473683
 20
52.25
 30
0.0
 10
2084.6315789473683
 20
47.25
 30
0.0
 10
2074.684210526316
 20
47.25
 30
0.0
  0
LWPOLYLINE
  8
OpenJsCad
  90
5
  70
1
 10
2094.5789473684213
 20
47.25
 30
0.0
 10
2094.5789473684213
 20
52.25
 30
0.0
 10
2104.5263157894738
 20
52.25
 30
0.0
 10
2104.5263157894738
 20
47.25
 30
0.0
 10
2094.5789473684213
 20
47.25
 30
0.0
  0
LWPOLYLINE
  8
OpenJsCad
  90
5
  70
1
 10
2114.4736842105262
 20
47.25
 30
0.0
 10
2114.4736842105262
 20
52.25
 30
0.0
 10
2124.4210526315787
 20
52.25
 30
0.0
 10
2124.4210526315787
 20
47.25
 30
0.0
 10
2114.4736842105262
 20
47.25
 30
0.0
  0
LWPOLYLINE
  8
OpenJsCad
  90
5
  70
1
 10
2134.3684210526317
 20
47.25
 30
0.0
 10
2134.3684210526317
 20
52.25
 30
0.0
 10
2144.315789473684
 20
52.25
 30
0.0
 10
2144.315789473684
 20
47.25
 30
0.0
 10
2134.3684210526317
 20
47.25
 30
0.0
  0
LWPOLYLINE
  8
OpenJsCad
  90
5
  70
1
 10
2154.2631578947367
 20
47.25
 30
0.0
 10
2154.2631578947367
 20
52.25
 30
0.0
 10
2164.2105263157896
 20
52.25
 30
0.0
 10
2164.2105263157896
 20
47.25
 30
0.0
 10
2154.2631578947367
 20
47.25
 30
0.0
  0
LWPOLYLINE
  8
OpenJsCad
  90
5
  70
1
 10
2174.157894736842
 20
47.25
 30
0.0
 10
2174.157894736842
 20
52.25
 30
0.0
 10
2184.1052631578946
 20
52.25
 30
0.0
 10
2184.1052631578946
 20
47.25
 30
0.0
 10
2174.157894736842
 20
47.25
 30
0.0
  0
LWPOLYLINE
  8
OpenJsCad
  90
67
  70
1
 10
110
 20
60
 30
0.0
 10
110
 20
50
 30
0.0
 10
115
 20
50
 30
0.0
 10
115
 20
40
 30
0.0
 10
110
 20
40
 30
0.0
 10
110
 20
30
 30
0.0
 10
115
 20
30
 30
0.0
 10
115
 20
20
 30
0.0
 10
110
 20
20
 30
0.0
 10
110
 20
10
 30
0.0
 10
115
 20
10
 30
0.0
 10
115
 20
0
 30
0.0
 10
110
 20
0
 30
0.0
 10
110
 20
-10
 30
0.0
 10
115
 20
-10
 30
0.0
 10
115
 20
-20
 30
0.0
 10
110
 20
-20
 30
0.0
 10
110
 20
-30
 30
0.0
 10
115
 20
-30
 30
0.0
 10
115
 20
-40
 30
0.0
 10
110
 20
-40
 30
0.0
 10
110
 20
-50
 30
0.0
 10
115
 20
-50
 30
0.0
 10
115
 20
-60
 30
0.0
 10
124.5
 20
-60
 30
0.0
 10
124.5
 20
-55
 30
0.0
 10
134
 20
-55
 30
0.0
 10
134
 20
-60
 30
0.0
 10
143.5
 20
-60
 30
0.0
 10
143.5
 20
-55
 30
0.0
 10
153
 20
-55
 30
0.0
 10
153
 20
-60
 30
0.0
 10
162.5
 20
-60
 30
0.0
 10
162.5
 20
-55
 30
0.0
 10
172
 20
-55
 30
0.0
 10
172
 20
-60
 30
0.0
 10
181.5
 20
-60
 30
0.0
 10
181.5
 20
-55
 30
0.0
 10
191
 20
-55
 30
0.0
 10
191
 20
-60
 30
0.0
 10
200.5
 20
-60
 30
0.0
 10
200.5
 20
-55
 30
0.0
 10
205
 20
-55
 30
0.0
 10
205
 20
-45.41666666666667
 30
0.0
 10
210
 20
-45.41666666666667
 30
0.0
 10
210
 20
-35.833333333333336
 30
0.0
 10
205
 20
-35.833333333333336
 30
0.0
 10
205
 20
-26.25
 30
0.0
 10
210
 20
-26.25
 30
0.0
 10
210
 20
-16.666666666666686
 30
0.0
 10
205
 20
-16.666666666666686
 30
0.0
 10
205
 20
-7.083333333333343
 30
0.0
 10
210
 20
-7.083333333333343
 30
0.0
 10
210
 20
2.499999999999986
 30
0.0
 10
205
 20
2.499999999999986
 30
0.0
 10
205
 20
12.083333333333329
 30
0.0
 10
210
 20
12.083333333333329
 30
0.0
 10
210
 20
21.666666666666686
 30
0.0
 10
205
 20
21.666666666666686
 30
0.0
 10
205
 20
31.25
 30
0.0
 10
210
 20
31.25
 30
0.0
 10
210
 20
40.83333333333334
 30
0.0
 10
205
 20
40.83333333333334
 30
0.0
 10
205
 20
50.41666666666666
 30
0.0
 10
210
 20
50.41666666666666
 30
0.0
 10
210
 20
60
 30
0.0
 10
110
 20
60
 30
0.0
  0
LWPOLYLINE
  8
OpenJsCad
  90
65
  70
1
 10
220
 20
60
 30
0.0
 10
220
 20
50
 30
0.0
 10
225
 20
50
 30
0.0
 10
225
 20
40
 30
0.0
 10
220
 20
40
 30
0.0
 10
220
 20
30
 30
0.0
 10
225
 20
30
 30
0.0
 10
225
 20
20
 30
0.0
 10
220
 20
20
 30
0.0
 10
220
 20
10
 30
0.0
 10
225
 20
10
 30
0.0
 10
225
 20
0
 30
0.0
 10
220
 20
0
 30
0.0
 10
220
 20
-10
 30
0.0
 10
225
 20
-10
 30
0.0
 10
225
 20
-20
 30
0.0
 10
220
 20
-20
 30
0.0
 10
220
 20
-30
 30
0.0
 10
225
 20
-30
 30
0.0
 10
225
 20
-40
 30
0.0
 10
220
 20
-40
 30
0.0
 10
220
 20
-50
 30
0.0
 10
225
 20
-50
 30
0.0
 10
225
 20
-60
 30
0.0
 10
235
 20
-60
 30
0.0
 10
235
 20
-55
 30
0.0
 10
245
 20
-55
 30
0.0
 10
245
 20
-60
 30
0.0
 10
255
 20
-60
 30
0.0
 10
255
 20
-55
 30
0.0
 10
265
 20
-55
 30
0.0
 10
265
 20
-60
 30
0.0
 10
275
 20
-60
 30
0.0
 10
275
 20
-55
 30
0.0
 10
285
 20
-55
 30
0.0
 10
285
 20
-60
 30
0.0
 10
295
 20
-60
 30
0.0
 10
295
 20
-55
 30
0.0
 10
305
 20
-55
 30
0.0
 10
305
 20
-60
 30
0.0
 10
315
 20
-60
 30
0.0
 10
315
 20
-50
 30
0.0
 10
320
 20
-50
 30
0.0
 10
320
 20
-40
 30
0.0
 10
315
 20
-40
 30
0.0
 10
315
 20
-30
 30
0.0
 10
320
 20
-30
 30
0.0
 10
320
 20
-20
 30
0.0
 10
315
 20
-20
 30
0.0
 10
315
 20
-10
 30
0.0
 10
320
 20
-10
 30
0.0
 10
320
 20
0
 30
0.0
 10
315
 20
0
 30
0.0
 10
315
 20
10
 30
0.0
 10
320
 20
10
 30
0.0
 10
320
 20
20
 30
0.0
 10
315
 20
20
 30
0.0
 10
315
 20
30
 30
0.0
 10
320
 20
30
 30
0.0
 10
320
 20
40
 30
0.0
 10
315
 20
40
 30
0.0
 10
315
 20
50
 30
0.0
 10
320
 20
50
 30
0.0
 10
320
 20
60
 30
0.0
 10
220
 20
60
 30
0.0
  0
LWPOLYLINE
  8
OpenJsCad
  90
81
  70
1
 10
755
 20
60
 30
0.0
 10
755
 20
45
 30
0.0
 10
750
 20
45
 30
0.0
 10
750
 20
35
 30
0.0
 10
755
 20
35
 30
0.0
 10
755
 20
25
 30
0.0
 10
750
 20
25
 30
0.0
 10
750
 20
15
 30
0.0
 10
755
 20
15
 30
0.0
 10
755
 20
5
 30
0.0
 10
750
 20
5
 30
0.0
 10
750
 20
-5
 30
0.0
 10
755
 20
-5
 30
0.0
 10
755
 20
-15
 30
0.0
 10
750
 20
-15
 30
0.0
 10
750
 20
-25
 30
0.0
 10
755
 20
-25
 30
0.0
 10
755
 20
-35
 30
0.0
 10
750
 20
-35
 30
0.0
 10
750
 20
-45
 30
0.0
 10
755
 20
-45
 30
0.0
 10
755
 20
-55
 30
0.0
 10
765
 20
-55
 30
0.0
 10
765
 20
-60
 30
0.0
 10
775
 20
-60
 30
0.0
 10
775
 20
-55
 30
0.0
 10
785
 20
-55
 30
0.0
 10
785
 20
-60
 30
0.0
 10
795
 20
-60
 30
0.0
 10
795
 20
-55
 30
0.0
 10
805
 20
-55
 30
0.0
 10
805
 20
-60
 30
0.0
 10
815
 20
-60
 30
0.0
 10
815
 20
-55
 30
0.0
 10
825
 20
-55
 30
0.0
 10
825
 20
-60
 30
0.0
 10
835
 20
-60
 30
0.0
 10
835
 20
-55
 30
0.0
 10
845
 20
-55
 30
0.0
 10
845
 20
-60
 30
0.0
 10
855
 20
-60
 30
0.0
 10
855
 20
-55
 30
0.0
 10
865
 20
-55
 30
0.0
 10
865
 20
-60
 30
0.0
 10
875
 20
-60
 30
0.0
 10
875
 20
-55
 30
0.0
 10
885
 20
-55
 30
0.0
 10
885
 20
-60
 30
0.0
 10
895
 20
-60
 30
0.0
 10
895
 20
-55
 30
0.0
 10
905
 20
-55
 30
0.0
 10
905
 20
-60
 30
0.0
 10
915
 20
-60
 30
0.0
 10
915
 20
-55
 30
0.0
 10
925
 20
-55
 30
0.0
 10
925
 20
-60
 30
0.0
 10
935
 20
-60
 30
0.0
 10
935
 20
-55
 30
0.0
 10
945
 20
-55
 30
0.0
 10
945
 20
-45
 30
0.0
 10
950
 20
-45
 30
0.0
 10
950
 20
-35
 30
0.0
 10
945
 20
-35
 30
0.0
 10
945
 20
-25
 30
0.0
 10
950
 20
-25
 30
0.0
 10
950
 20
-15
 30
0.0
 10
945
 20
-15
 30
0.0
 10
945
 20
-5
 30
0.0
 10
950
 20
-5
 30
0.0
 10
950
 20
5
 30
0.0
 10
945
 20
5
 30
0.0
 10
945
 20
15
 30
0.0
 10
950
 20
15
 30
0.0
 10
950
 20
25
 30
0.0
 10
945
 20
25
 30
0.0
 10
945
 20
35
 30
0.0
 10
950
 20
35
 30
0.0
 10
950
 20
45
 30
0.0
 10
945
 20
45
 30
0.0
 10
945
 20
60
 30
0.0
 10
755
 20
60
 30
0.0
  0
LWPOLYLINE
  8
OpenJsCad
  90
33
  70
1
 10
965
 20
60
 30
0.0
 10
965
 20
45
 30
0.0
 10
960
 20
45
 30
0.0
 10
960
 20
35
 30
0.0
 10
965
 20
35
 30
0.0
 10
965
 20
5
 30
0.0
 10
960
 20
5
 30
0.0
 10
960
 20
-5
 30
0.0
 10
965
 20
-5
 30
0.0
 10
965
 20
-35
 30
0.0
 10
960
 20
-35
 30
0.0
 10
960
 20
-45
 30
0.0
 10
965
 20
-45
 30
0.0
 10
965
 20
-55
 30
0.0
 10
971.25
 20
-55
 30
0.0
 10
971.25
 20
-60
 30
0.0
 10
981.25
 20
-60
 30
0.0
 10
981.25
 20
-55
 30
0.0
 10
991.25
 20
-55
 30
0.0
 10
991.25
 20
-60
 30
0.0
 10
1001.25
 20
-60
 30
0.0
 10
1001.25
 20
-55
 30
0.0
 10
1007.5
 20
-55
 30
0.0
 10
1007.5
 20
-25
 30
0.0
 10
1012.5
 20
-25
 30
0.0
 10
1012.5
 20
-15
 30
0.0
 10
1007.5
 20
-15
 30
0.0
 10
1007.5
 20
15
 30
0.0
 10
1012.5
 20
15
 30
0.0
 10
1012.5
 20
25
 30
0.0
 10
1007.5
 20
25
 30
0.0
 10
1007.5
 20
60
 30
0.0
 10
965
 20
60
 30
0.0
  0
LWPOLYLINE
  8
OpenJsCad
  90
33
  70
1
 10
1027.5
 20
60
 30
0.0
 10
1027.5
 20
45
 30
0.0
 10
1022.5
 20
45
 30
0.0
 10
1022.5
 20
35
 30
0.0
 10
1027.5
 20
35
 30
0.0
 10
1027.5
 20
5
 30
0.0
 10
1022.5
 20
5
 30
0.0
 10
1022.5
 20
-5
 30
0.0
 10
1027.5
 20
-5
 30
0.0
 10
1027.5
 20
-35
 30
0.0
 10
1022.5
 20
-35
 30
0.0
 10
1022.5
 20
-45
 30
0.0
 10
1027.5
 20
-45
 30
0.0
 10
1027.5
 20
-55
 30
0.0
 10
1033.75
 20
-55
 30
0.0
 10
1033.75
 20
-60
 30
0.0
 10
1043.75
 20
-60
 30
0.0
 10
1043.75
 20
-55
 30
0.0
 10
1053.75
 20
-55
 30
0.0
 10
1053.75
 20
-60
 30
0.0
 10
1063.75
 20
-60
 30
0.0
 10
1063.75
 20
-55
 30
0.0
 10
1070
 20
-55
 30
0.0
 10
1070
 20
-25
 30
0.0
 10
1075
 20
-25
 30
0.0
 10
1075
 20
-15
 30
0.0
 10
1070
 20
-15
 30
0.0
 10
1070
 20
15
 30
0.0
 10
1075
 20
15
 30
0.0
 10
1075
 20
25
 30
0.0
 10
1070
 20
25
 30
0.0
 10
1070
 20
60
 30
0.0
 10
1027.5
 20
60
 30
0.0
  0
LWPOLYLINE
  8
OpenJsCad
  90
5
  70
1
 10
815
 20
-15
 30
0.0
 10
820
 20
-15
 30
0.0
 10
820
 20
-25
 30
0.0
 10
815
 20
-25
 30
0.0
 10
815
 20
-15
 30
0.0
  0
LWPOLYLINE
  8
OpenJsCad
  90
5
  70
1
 10
815
 20
25
 30
0.0
 10
820
 20
25
 30
0.0
 10
820
 20
15
 30
0.0
 10
815
 20
15
 30
0.0
 10
815
 20
25
 30
0.0
  0
LWPOLYLINE
  8
OpenJsCad
  90
5
  70
1
 10
880
 20
-15
 30
0.0
 10
885
 20
-15
 30
0.0
 10
885
 20
-25
 30
0.0
 10
880
 20
-25
 30
0.0
 10
880
 20
-15
 30
0.0
  0
LWPOLYLINE
  8
OpenJsCad
  90
5
  70
1
 10
880
 20
25
 30
0.0
 10
885
 20
25
 30
0.0
 10
885
 20
15
 30
0.0
 10
880
 20
15
 30
0.0
 10
880
 20
25
 30
0.0
  0
LWPOLYLINE
  8
OpenJsCad
  90
5
  70
1
 10
162.5
 20
25
 30
0.0
 10
162.5
 20
15
 30
0.0
 10
157.5
 20
15
 30
0.0
 10
157.5
 20
25
 30
0.0
 10
162.5
 20
25
 30
0.0
  0
LWPOLYLINE
  8
OpenJsCad
  90
5
  70
1
 10
272.5
 20
25
 30
0.0
 10
272.5
 20
15
 30
0.0
 10
267.5
 20
15
 30
0.0
 10
267.5
 20
25
 30
0.0
 10
272.5
 20
25
 30
0.0
  0
LWPOLYLINE
  8
OpenJsCad
  90
5
  70
1
 10
157.5
 20
-25
 30
0.0
 10
157.5
 20
-15
 30
0.0
 10
162.5
 20
-15
 30
0.0
 10
162.5
 20
-25
 30
0.0
 10
157.5
 20
-25
 30
0.0
  0
LWPOLYLINE
  8
OpenJsCad
  90
5
  70
1
 10
267.5
 20
-25
 30
0.0
 10
267.5
 20
-15
 30
0.0
 10
272.5
 20
-15
 30
0.0
 10
272.5
 20
-25
 30
0.0
 10
267.5
 20
-25
 30
0.0
  0
LWPOLYLINE
  8
OpenJsCad
  90
5
  70
1
 10
610
 20
8.75
 30
0.0
 10
605
 20
8.75
 30
0.0
 10
605
 20
18.75
 30
0.0
 10
610
 20
18.75
 30
0.0
 10
610
 20
8.75
 30
0.0
  0
LWPOLYLINE
  8
OpenJsCad
  90
5
  70
1
 10
610
 20
28.75
 30
0.0
 10
605
 20
28.75
 30
0.0
 10
605
 20
38.75
 30
0.0
 10
610
 20
38.75
 30
0.0
 10
610
 20
28.75
 30
0.0
  0
LWPOLYLINE
  8
OpenJsCad
  90
5
  70
1
 10
-30
 20
-35
 30
0.0
 10
-30
 20
-45
 30
0.0
 10
-35
 20
-45
 30
0.0
 10
-35
 20
-35
 30
0.0
 10
-30
 20
-35
 30
0.0
  0
LWPOLYLINE
  8
OpenJsCad
  90
5
  70
1
 10
35
 20
-35
 30
0.0
 10
35
 20
-45
 30
0.0
 10
30
 20
-45
 30
0.0
 10
30
 20
-35
 30
0.0
 10
35
 20
-35
 30
0.0
  0
LWPOLYLINE
  8
OpenJsCad
  90
5
  70
1
 10
162.5
 20
-35
 30
0.0
 10
162.5
 20
-45
 30
0.0
 10
157.5
 20
-45
 30
0.0
 10
157.5
 20
-35
 30
0.0
 10
162.5
 20
-35
 30
0.0
  0
LWPOLYLINE
  8
OpenJsCad
  90
5
  70
1
 10
272.5
 20
-35
 30
0.0
 10
272.5
 20
-45
 30
0.0
 10
267.5
 20
-45
 30
0.0
 10
267.5
 20
-35
 30
0.0
 10
272.5
 20
-35
 30
0.0
  0
LWPOLYLINE
  8
OpenJsCad
  90
5
  70
1
 10
-30
 20
45
 30
0.0
 10
-30
 20
35
 30
0.0
 10
-35
 20
35
 30
0.0
 10
-35
 20
45
 30
0.0
 10
-30
 20
45
 30
0.0
  0
LWPOLYLINE
  8
OpenJsCad
  90
5
  70
1
 10
35
 20
45
 30
0.0
 10
35
 20
35
 30
0.0
 10
30
 20
35
 30
0.0
 10
30
 20
45
 30
0.0
 10
35
 20
45
 30
0.0
  0
LWPOLYLINE
  8
OpenJsCad
  90
5
  70
1
 10
162.5
 20
45
 30
0.0
 10
162.5
 20
35
 30
0.0
 10
157.5
 20
35
 30
0.0
 10
157.5
 20
45
 30
0.0
 10
162.5
 20
45
 30
0.0
  0
LWPOLYLINE
  8
OpenJsCad
  90
5
  70
1
 10
272.5
 20
45
 30
0.0
 10
272.5
 20
35
 30
0.0
 10
267.5
 20
35
 30
0.0
 10
267.5
 20
45
 30
0.0
 10
272.5
 20
45
 30
0.0
  0
LWPOLYLINE
  8
OpenJsCad
  90
5
  70
1
 10
675
 20
8.75
 30
0.0
 10
670
 20
8.75
 30
0.0
 10
670
 20
18.75
 30
0.0
 10
675
 20
18.75
 30
0.0
 10
675
 20
8.75
 30
0.0
  0
LWPOLYLINE
  8
OpenJsCad
  90
5
  70
1
 10
675
 20
28.75
 30
0.0
 10
670
 20
28.75
 30
0.0
 10
670
 20
38.75
 30
0.0
 10
675
 20
38.75
 30
0.0
 10
675
 20
28.75
 30
0.0
  0
ENDSEC
  0
EOF
