  0
SECTION
  2
HEADER
  9
$ACADVER
  1
AC1024
  9
$ACADMAINTVER
 70
     6
  9
$DWGCODEPAGE
  3
ANSI_1251
  9
$INSBASE
 10
0.0
 20
0.0
 30
0.0
  9
$EXTMIN
 10
1.000000000000000E+20
 20
1.000000000000000E+20
 30
1.000000000000000E+20
  9
$EXTMAX
 10
-1.000000000000000E+20
 20
-1.000000000000000E+20
 30
-1.000000000000000E+20
  9
$LIMMIN
 10
0.0
 20
0.0
  9
$LIMMAX
 10
12.0
 20
9.0
  9
$ORTHOMODE
 70
     0
  9
$REGENMODE
 70
     1
  9
$FILLMODE
 70
     1
  9
$QTEXTMODE
 70
     0
  9
$MIRRTEXT
 70
     1
  9
$LTSCALE
 40
1.0
  9
$ATTMODE
 70
     1
  9
$TEXTSIZE
 40
0.2
  9
$TRACEWID
 40
0.05
  9
$TEXTSTYLE
  7
Standard
  9
$CLAYER
  8
0
  9
$CELTYPE
  6
ByLayer
  9
$CECOLOR
 62
   256
  9
$CELTSCALE
 40
1.0
  9
$DISPSILH
 70
     0
  9
$DIMSCALE
 40
1.0
  9
$DIMASZ
 40
0.18
  9
$DIMEXO
 40
0.0625
  9
$DIMDLI
 40
0.38
  9
$DIMRND
 40
0.0
  9
$DIMDLE
 40
0.0
  9
$DIMEXE
 40
0.18
  9
$DIMTP
 40
0.0
  9
$DIMTM
 40
0.0
  9
$DIMTXT
 40
0.18
  9
$DIMCEN
 40
0.09
  9
$DIMTSZ
 40
0.0
  9
$DIMTOL
 70
     0
  9
$DIMLIM
 70
     0
  9
$DIMTIH
 70
     1
  9
$DIMTOH
 70
     1
  9
$DIMSE1
 70
     0
  9
$DIMSE2
 70
     0
  9
$DIMTAD
 70
     0
  9
$DIMZIN
 70
     0
  9
$DIMBLK
  1

  9
$DIMASO
 70
     1
  9
$DIMSHO
 70
     1
  9
$DIMPOST
  1

  9
$DIMAPOST
  1

  9
$DIMALT
 70
     0
  9
$DIMALTD
 70
     2
  9
$DIMALTF
 40
25.4
  9
$DIMLFAC
 40
1.0
  9
$DIMTOFL
 70
     0
  9
$DIMTVP
 40
0.0
  9
$DIMTIX
 70
     0
  9
$DIMSOXD
 70
     0
  9
$DIMSAH
 70
     0
  9
$DIMBLK1
  1

  9
$DIMBLK2
  1

  9
$DIMSTYLE
  2
Standard
  9
$DIMCLRD
 70
     0
  9
$DIMCLRE
 70
     0
  9
$DIMCLRT
 70
     0
  9
$DIMTFAC
 40
1.0
  9
$DIMGAP
 40
0.09
  9
$DIMJUST
 70
     0
  9
$DIMSD1
 70
     0
  9
$DIMSD2
 70
     0
  9
$DIMTOLJ
 70
     1
  9
$DIMTZIN
 70
     0
  9
$DIMALTZ
 70
     0
  9
$DIMALTTZ
 70
     0
  9
$DIMUPT
 70
     0
  9
$DIMDEC
 70
     4
  9
$DIMTDEC
 70
     4
  9
$DIMALTU
 70
     2
  9
$DIMALTTD
 70
     2
  9
$DIMTXSTY
  7
Standard
  9
$DIMAUNIT
 70
     0
  9
$DIMADEC
 70
     0
  9
$DIMALTRND
 40
0.0
  9
$DIMAZIN
 70
     0
  9
$DIMDSEP
 70
    46
  9
$DIMATFIT
 70
     3
  9
$DIMFRAC
 70
     0
  9
$DIMLDRBLK
  1

  9
$DIMLUNIT
 70
     2
  9
$DIMLWD
 70
    -2
  9
$DIMLWE
 70
    -2
  9
$DIMTMOVE
 70
     0
  9
$DIMFXL
 40
1.0
  9
$DIMFXLON
 70
     0
  9
$DIMJOGANG
 40
0.7853981633974483
  9
$DIMTFILL
 70
     0
  9
$DIMTFILLCLR
 70
     0
  9
$DIMARCSYM
 70
     0
  9
$DIMLTYPE
  6

  9
$DIMLTEX1
  6

  9
$DIMLTEX2
  6

  9
$DIMTXTDIRECTION
 70
     0
  9
$LUNITS
 70
     2
  9
$LUPREC
 70
     4
  9
$SKETCHINC
 40
0.1
  9
$FILLETRAD
 40
0.5
  9
$AUNITS
 70
     0
  9
$AUPREC
 70
     0
  9
$MENU
  1
.
  9
$ELEVATION
 40
0.0
  9
$PELEVATION
 40
0.0
  9
$THICKNESS
 40
0.0
  9
$LIMCHECK
 70
     0
  9
$CHAMFERA
 40
0.5
  9
$CHAMFERB
 40
0.5
  9
$CHAMFERC
 40
1.0
  9
$CHAMFERD
 40
0.0
  9
$SKPOLY
 70
     0
  9
$TDCREATE
 40
2459963.862809491
  9
$TDUCREATE
 40
2459963.779476157
  9
$TDUPDATE
 40
2459963.862809537
  9
$TDUUPDATE
 40
2459963.779476203
  9
$TDINDWG
 40
0.0000000116
  9
$TDUSRTIMER
 40
0.0000000116
  9
$USRTIMER
 70
     1
  9
$ANGBASE
 50
0.0
  9
$ANGDIR
 70
     0
  9
$PDMODE
 70
     0
  9
$PDSIZE
 40
0.0
  9
$PLINEWID
 40
0.0
  9
$SPLFRAME
 70
     0
  9
$SPLINETYPE
 70
     6
  9
$SPLINESEGS
 70
     8
  9
$HANDSEED
  5
51
  9
$SURFTAB1
 70
     6
  9
$SURFTAB2
 70
     6
  9
$SURFTYPE
 70
     6
  9
$SURFU
 70
     6
  9
$SURFV
 70
     6
  9
$UCSBASE
  2

  9
$UCSNAME
  2

  9
$UCSORG
 10
0.0
 20
0.0
 30
0.0
  9
$UCSXDIR
 10
1.0
 20
0.0
 30
0.0
  9
$UCSYDIR
 10
0.0
 20
1.0
 30
0.0
  9
$UCSORTHOREF
  2

  9
$UCSORTHOVIEW
 70
     0
  9
$UCSORGTOP
 10
0.0
 20
0.0
 30
0.0
  9
$UCSORGBOTTOM
 10
0.0
 20
0.0
 30
0.0
  9
$UCSORGLEFT
 10
0.0
 20
0.0
 30
0.0
  9
$UCSORGRIGHT
 10
0.0
 20
0.0
 30
0.0
  9
$UCSORGFRONT
 10
0.0
 20
0.0
 30
0.0
  9
$UCSORGBACK
 10
0.0
 20
0.0
 30
0.0
  9
$PUCSBASE
  2

  9
$PUCSNAME
  2

  9
$PUCSORG
 10
0.0
 20
0.0
 30
0.0
  9
$PUCSXDIR
 10
1.0
 20
0.0
 30
0.0
  9
$PUCSYDIR
 10
0.0
 20
1.0
 30
0.0
  9
$PUCSORTHOREF
  2

  9
$PUCSORTHOVIEW
 70
     0
  9
$PUCSORGTOP
 10
0.0
 20
0.0
 30
0.0
  9
$PUCSORGBOTTOM
 10
0.0
 20
0.0
 30
0.0
  9
$PUCSORGLEFT
 10
0.0
 20
0.0
 30
0.0
  9
$PUCSORGRIGHT
 10
0.0
 20
0.0
 30
0.0
  9
$PUCSORGFRONT
 10
0.0
 20
0.0
 30
0.0
  9
$PUCSORGBACK
 10
0.0
 20
0.0
 30
0.0
  9
$USERI1
 70
     0
  9
$USERI2
 70
     0
  9
$USERI3
 70
     0
  9
$USERI4
 70
     0
  9
$USERI5
 70
     0
  9
$USERR1
 40
0.0
  9
$USERR2
 40
0.0
  9
$USERR3
 40
0.0
  9
$USERR4
 40
0.0
  9
$USERR5
 40
0.0
  9
$WORLDVIEW
 70
     1
  9
$SHADEDGE
 70
     3
  9
$SHADEDIF
 70
    70
  9
$TILEMODE
 70
     1
  9
$MAXACTVP
 70
    64
  9
$PINSBASE
 10
0.0
 20
0.0
 30
0.0
  9
$PLIMCHECK
 70
     0
  9
$PEXTMIN
 10
1.000000000000000E+20
 20
1.000000000000000E+20
 30
1.000000000000000E+20
  9
$PEXTMAX
 10
-1.000000000000000E+20
 20
-1.000000000000000E+20
 30
-1.000000000000000E+20
  9
$PLIMMIN
 10
0.0
 20
0.0
  9
$PLIMMAX
 10
12.0
 20
9.0
  9
$UNITMODE
 70
     0
  9
$VISRETAIN
 70
     1
  9
$PLINEGEN
 70
     0
  9
$PSLTSCALE
 70
     1
  9
$TREEDEPTH
 70
  3020
  9
$CMLSTYLE
  2
Standard
  9
$CMLJUST
 70
     0
  9
$CMLSCALE
 40
1.0
  9
$PROXYGRAPHICS
 70
     1
  9
$MEASUREMENT
 70
     0
  9
$CELWEIGHT
370
    -1
  9
$ENDCAPS
280
     0
  9
$JOINSTYLE
280
     0
  9
$LWDISPLAY
290
     1
  9
$INSUNITS
 70
     1
  9
$HYPERLINKBASE
  1

  9
$STYLESHEET
  1

  9
$XEDIT
290
     1
  9
$CEPSNTYPE
380
     0
  9
$PSTYLEMODE
290
     1
  9
$FINGERPRINTGUID
  2
{522A0116-2BDD-4B7B-95A8-A2A72C61EF52}
  9
$VERSIONGUID
  2
{FAEB1C32-E019-11D5-929B-00C0DF256EC4}
  9
$EXTNAMES
290
     1
  9
$PSVPSCALE
 40
0.0
  9
$OLESTARTUP
290
     0
  9
$SORTENTS
280
   127
  9
$INDEXCTL
280
     0
  9
$HIDETEXT
280
     1
  9
$XCLIPFRAME
280
     2
  9
$HALOGAP
280
     0
  9
$OBSCOLOR
 70
   257
  9
$OBSLTYPE
280
     0
  9
$INTERSECTIONDISPLAY
280
     0
  9
$INTERSECTIONCOLOR
 70
   257
  9
$DIMASSOC
280
     2
  9
$PROJECTNAME
  1

  9
$CAMERADISPLAY
290
     0
  9
$LENSLENGTH
 40
50.0
  9
$CAMERAHEIGHT
 40
0.0
  9
$STEPSPERSEC
 40
2.0
  9
$STEPSIZE
 40
6.0
  9
$3DDWFPREC
 40
2.0
  9
$PSOLWIDTH
 40
0.25
  9
$PSOLHEIGHT
 40
4.0
  9
$LOFTANG1
 40
1.570796326794897
  9
$LOFTANG2
 40
1.570796326794897
  9
$LOFTMAG1
 40
0.0
  9
$LOFTMAG2
 40
0.0
  9
$LOFTPARAM
 70
     7
  9
$LOFTNORMALS
280
     1
  9
$LATITUDE
 40
37.795
  9
$LONGITUDE
 40
-122.394
  9
$NORTHDIRECTION
 40
0.0
  9
$TIMEZONE
 70
 -8000
  9
$LIGHTGLYPHDISPLAY
280
     1
  9
$TILEMODELIGHTSYNCH
280
     1
  9
$CMATERIAL
347
3C
  9
$SOLIDHIST
280
     1
  9
$SHOWHIST
280
     1
  9
$DWFFRAME
280
     2
  9
$DGNFRAME
280
     2
  9
$REALWORLDSCALE
290
     1
  9
$INTERFERECOLOR
 62
   256
  9
$CSHADOW
280
     0
  9
$SHADOWPLANELOCATION
 40
0.0
  0
ENDSEC
  0
SECTION
  2
CLASSES
  0
CLASS
  1
ACDBDICTIONARYWDFLT
  2
AcDbDictionaryWithDefault
  3
ObjectDBX Classes
 90
        0
 91
        4
280
     0
281
     0
  0
CLASS
  1
VISUALSTYLE
  2
AcDbVisualStyle
  3
ObjectDBX Classes
 90
     4095
 91
        4
280
     0
281
     0
  0
CLASS
  1
MATERIAL
  2
AcDbMaterial
  3
ObjectDBX Classes
 90
     1153
 91
        4
280
     0
281
     0
  0
CLASS
  1
SUN
  2
AcDbSun
  3
SCENEOE
 90
     1024
 91
        4
280
     0
281
     0
  0
ENDSEC
  0
SECTION
  2
TABLES
  0
TABLE
  2
VPORT
  5
8
330
0
100
AcDbSymbolTable
 70
     1
  0
VPORT
  5
29
330
8
100
AcDbSymbolTableRecord
100
AcDbViewportTableRecord
  2
*Active
 70
     0
 10
0.0
 20
0.0
 11
1.0
 21
1.0
 12
0.0
 22
0.0
 13
0.0
 23
0.0
 14
0.5
 24
0.5
 15
0.5
 25
0.5
 16
0.0
 26
0.0
 36
1.0
 17
5.000000455772694
 27
-5.000000455772694
 37
0.0
 40
10.00000091154539
 41
1.0
 42
50.0
 43
0.0
 44
0.0
 50
0.0
 51
0.0
 71
     0
 72
   100
 73
     1
 74
     3
 75
     0
 76
     0
 77
     0
 78
     0
281
     0
 65
     1
110
0.0
120
0.0
130
0.0
111
1.0
121
0.0
131
0.0
112
0.0
122
1.0
132
0.0
 79
     0
146
0.0
 60
     3
 61
     5
292
     1
282
     1
141
0.0
142
0.0
 63
   250
361
3F
  0
ENDTAB
  0
TABLE
  2
LTYPE
  5
5
330
0
100
AcDbSymbolTable
 70
     1
  0
LTYPE
  5
14
330
5
100
AcDbSymbolTableRecord
100
AcDbLinetypeTableRecord
  2
ByBlock
 70
     0
  3

 72
    65
 73
     0
 40
0.0
  0
LTYPE
  5
15
330
5
100
AcDbSymbolTableRecord
100
AcDbLinetypeTableRecord
  2
ByLayer
 70
     0
  3

 72
    65
 73
     0
 40
0.0
  0
LTYPE
  5
16
330
5
100
AcDbSymbolTableRecord
100
AcDbLinetypeTableRecord
  2
Continuous
 70
     0
  3
Solid line
 72
    65
 73
     0
 40
0.0
  0
ENDTAB
  0
TABLE
  2
LAYER
  5
2
330
0
100
AcDbSymbolTable
 70
     2
  0
LAYER
  5
10
330
2
100
AcDbSymbolTableRecord
100
AcDbLayerTableRecord
  2
0
 70
     0
 62
     7
  6
Continuous
370
    -3
390
F
347
3E
  0
LAYER
  5
40
330
2
100
AcDbSymbolTableRecord
100
AcDbLayerTableRecord
  2
1
 70
     0
 62
     7
  6
Continuous
370
    -3
390
F
347
3E
  0
ENDTAB
  0
TABLE
  2
STYLE
  5
3
330
0
100
AcDbSymbolTable
 70
     1
  0
STYLE
  5
11
330
3
100
AcDbSymbolTableRecord
100
AcDbTextStyleTableRecord
  2
Standard
 70
     0
 40
0.0
 41
1.0
 50
0.0
 71
     0
 42
0.2
  3
txt
  4

  0
ENDTAB
  0
TABLE
  2
VIEW
  5
6
330
0
100
AcDbSymbolTable
 70
     0
  0
ENDTAB
  0
TABLE
  2
UCS
  5
7
330
0
100
AcDbSymbolTable
 70
     0
  0
ENDTAB
  0
TABLE
  2
APPID
  5
9
330
0
100
AcDbSymbolTable
 70
     1
  0
APPID
  5
12
330
9
100
AcDbSymbolTableRecord
100
AcDbRegAppTableRecord
  2
ACAD
 70
     0
  0
ENDTAB
  0
TABLE
  2
DIMSTYLE
  5
A
330
0
100
AcDbSymbolTable
 70
     1
100
AcDbDimStyleTable
  0
DIMSTYLE
105
27
330
A
100
AcDbSymbolTableRecord
100
AcDbDimStyleTableRecord
  2
Standard
 70
     0
178
     0
340
11
  0
ENDTAB
  0
TABLE
  2
BLOCK_RECORD
  5
1
330
0
100
AcDbSymbolTable
 70
     2
  0
BLOCK_RECORD
  5
1F
330
1
100
AcDbSymbolTableRecord
100
AcDbBlockTableRecord
  2
*Model_Space
340
22
 70
     0
280
     1
281
     0
  0
BLOCK_RECORD
  5
1B
330
1
100
AcDbSymbolTableRecord
100
AcDbBlockTableRecord
  2
*Paper_Space
340
1E
 70
     0
280
     1
281
     0
  0
BLOCK_RECORD
  5
23
330
1
100
AcDbSymbolTableRecord
100
AcDbBlockTableRecord
  2
*Paper_Space0
340
26
 70
     0
280
     1
281
     0
  0
BLOCK_RECORD
  5
43
330
1
100
AcDbSymbolTableRecord
100
AcDbBlockTableRecord
  2
block 2
340
0
102
{BLKREFS
331
44
102
}
 70
     0
280
     1
281
     0
  0
ENDTAB
  0
ENDSEC
  0
SECTION
  2
BLOCKS
  0
BLOCK
  5
20
330
1F
100
AcDbEntity
  8
0
100
AcDbBlockBegin
  2
*Model_Space
 70
     0
 10
0.0
 20
0.0
 30
0.0
  3
*Model_Space
  1

  0
ENDBLK
  5
21
330
1F
100
AcDbEntity
  8
0
100
AcDbBlockEnd
  0
BLOCK
  5
1C
330
1B
100
AcDbEntity
 67
     1
  8
0
100
AcDbBlockBegin
  2
*Paper_Space
 70
     0
 10
0.0
 20
0.0
 30
0.0
  3
*Paper_Space
  1

  0
ENDBLK
  5
1D
330
1B
100
AcDbEntity
 67
     1
  8
0
100
AcDbBlockEnd
  0
BLOCK
  5
24
330
23
100
AcDbEntity
  8
0
100
AcDbBlockBegin
  2
*Paper_Space0
 70
     0
 10
0.0
 20
0.0
 30
0.0
  3
*Paper_Space0
  1

  0
ENDBLK
  5
25
330
23
100
AcDbEntity
  8
0
100
AcDbBlockEnd
  0
BLOCK
  5
45
330
43
100
AcDbEntity
  8
0
100
AcDbBlockBegin
  2
block 2
 70
     0
 10
0.0
 20
0.0
 30
0.0
  3
block 2
  1

  0
SPLINE
  5
47
330
43
100
AcDbEntity
  8
1
370
     0
100
AcDbSpline
210
0.0
220
0.0
230
1.0
 70
    11
 71
     3
 72
   200
 73
   196
 74
     0
 42
0.0000000001
 43
0.0000000001
 12
1.0
 22
0.0
 32
0.0
 13
1.0
 23
0.0
 33
0.0
 40
0.0
 40
0.0
 40
0.0
 40
0.0
 40
1.0
 40
1.0
 40
1.0
 40
2.0
 40
2.0
 40
2.0
 40
3.0
 40
3.0
 40
3.0
 40
4.0
 40
4.0
 40
4.0
 40
5.0
 40
5.0
 40
5.0
 40
6.0
 40
6.0
 40
6.0
 40
7.0
 40
7.0
 40
7.0
 40
8.0
 40
8.0
 40
8.0
 40
9.0
 40
9.0
 40
9.0
 40
10.0
 40
10.0
 40
10.0
 40
11.0
 40
11.0
 40
11.0
 40
12.0
 40
12.0
 40
12.0
 40
13.0
 40
13.0
 40
13.0
 40
14.0
 40
14.0
 40
14.0
 40
15.0
 40
15.0
 40
15.0
 40
16.0
 40
16.0
 40
16.0
 40
17.0
 40
17.0
 40
17.0
 40
18.0
 40
18.0
 40
18.0
 40
19.0
 40
19.0
 40
19.0
 40
20.0
 40
20.0
 40
20.0
 40
21.0
 40
21.0
 40
21.0
 40
22.0
 40
22.0
 40
22.0
 40
23.0
 40
23.0
 40
23.0
 40
24.0
 40
24.0
 40
24.0
 40
25.0
 40
25.0
 40
25.0
 40
26.0
 40
26.0
 40
26.0
 40
27.0
 40
27.0
 40
27.0
 40
28.0
 40
28.0
 40
28.0
 40
29.0
 40
29.0
 40
29.0
 40
30.0
 40
30.0
 40
30.0
 40
31.0
 40
31.0
 40
31.0
 40
32.0
 40
32.0
 40
32.0
 40
33.0
 40
33.0
 40
33.0
 40
34.0
 40
34.0
 40
34.0
 40
35.0
 40
35.0
 40
35.0
 40
36.0
 40
36.0
 40
36.0
 40
37.0
 40
37.0
 40
37.0
 40
38.0
 40
38.0
 40
38.0
 40
39.0
 40
39.0
 40
39.0
 40
40.0
 40
40.0
 40
40.0
 40
41.0
 40
41.0
 40
41.0
 40
42.0
 40
42.0
 40
42.0
 40
43.0
 40
43.0
 40
43.0
 40
44.0
 40
44.0
 40
44.0
 40
45.0
 40
45.0
 40
45.0
 40
46.0
 40
46.0
 40
46.0
 40
47.0
 40
47.0
 40
47.0
 40
48.0
 40
48.0
 40
48.0
 40
49.0
 40
49.0
 40
49.0
 40
50.0
 40
50.0
 40
50.0
 40
51.0
 40
51.0
 40
51.0
 40
52.0
 40
52.0
 40
52.0
 40
53.0
 40
53.0
 40
53.0
 40
54.0
 40
54.0
 40
54.0
 40
55.0
 40
55.0
 40
55.0
 40
56.0
 40
56.0
 40
56.0
 40
57.0
 40
57.0
 40
57.0
 40
58.0
 40
58.0
 40
58.0
 40
59.0
 40
59.0
 40
59.0
 40
60.0
 40
60.0
 40
60.0
 40
61.0
 40
61.0
 40
61.0
 40
62.0
 40
62.0
 40
62.0
 40
63.0
 40
63.0
 40
63.0
 40
64.0
 40
64.0
 40
64.0
 40
65.0
 40
65.0
 40
65.0
 40
65.0
 10
7.822585967095871
 20
-3.550270888001322
 30
0.0
 10
7.812415384022011
 20
-3.511532360233223
 30
0.0
 10
7.635059888546727
 20
-3.424293943588375
 30
0.0
 10
7.433962449232705
 20
-3.384020832487334
 30
0.0
 10
7.422525393968933
 20
-3.164981110319878
 30
0.0
 10
7.29203995285345
 20
-3.000106888138871
 30
0.0
 10
7.06466409754318
 20
-2.919130277048005
 30
0.0
 10
6.849243880816786
 20
-2.842372888178307
 30
0.0
 10
6.650252524782367
 20
-2.849816499287533
 30
0.0
 10
6.473038140414594
 20
-2.941281193709117
 30
0.0
 10
6.240649313009993
 20
-3.06128208256801
 30
0.0
 10
6.041834345859963
 20
-3.329001610278849
 30
0.0
 10
5.879397822226287
 20
-3.738269693509875
 30
0.0
 10
5.801864324204331
 20
-3.572097249106976
 30
0.0
 10
5.44692416530493
 20
-3.238888054745822
 30
0.0
 10
5.065715898540597
 20
-3.114950165887939
 30
0.0
 10
4.589190744031101
 20
-2.960024277037784
 30
0.0
 10
4.287470501728626
 20
-2.598014304906064
 30
0.0
 10
4.21615647577022
 20
-2.09554586058724
 30
0.0
 10
4.21533097579128
 20
-2.089619193922035
 30
0.0
 10
4.21153861477692
 20
-2.084556832812185
 30
0.0
 10
4.206130531581558
 20
-2.082041527257272
 30
0.0
 10
4.200722448386197
 20
-2.079526221702327
 30
0.0
 10
4.194453587435018
 20
-2.07990369392448
 30
0.0
 10
4.189320670899303
 20
-2.083075166145908
 30
0.0
 10
4.090168951206651
 20
-2.145121721685938
 30
0.0
 10
3.954846926881226
 20
-2.398920638289159
 30
0.0
 10
4.005421147813193
 20
-2.680384388218799
 30
0.0
 10
3.948334649269591
 20
-2.602215888238343
 30
0.0
 10
3.868649206858091
 20
-2.5131253882606
 30
0.0
 10
3.817111902617362
 20
-2.540754943809242
 30
0.0
 10
3.7369537379957
 20
-2.583885554909573
 30
0.0
 10
3.725791943513006
 20
-2.736712415982496
 30
0.0
 10
3.784106110165071
 20
-2.97340866592332
 30
0.0
 10
3.480050471352214
 20
-2.66286544377872
 30
0.0
 10
3.269876054738094
 20
-2.367784471630279
 30
0.0
 10
3.204262915865594
 20
-2.226045416110139
 30
0.0
 10
3.201645304755137
 20
-2.220397443889359
 30
0.0
 10
3.196201943645382
 20
-2.216538055001426
 30
0.0
 10
3.1900001103136
 20
-2.215917166112687
 30
0.0
 10
3.18386883253737
 20
-2.215158693890661
 30
0.0
 10
3.177702276983363
 20
-2.217984443889959
 30
0.0
 10
3.174015749206494
 20
-2.223015054999817
 30
0.0
 10
3.048165804793515
 20
-2.394648499401327
 30
0.0
 10
3.02267055479988
 20
-2.691891999327016
 30
0.0
 10
3.109041138111622
 20
-2.980245499254945
 30
0.0
 10
3.182076721426707
 20
-3.224089026971745
 30
0.0
 10
3.319984610281121
 20
-3.409057471369944
 30
0.0
 10
3.492789276904588
 20
-3.498214999125455
 30
0.0
 10
3.340170554720505
 20
-3.526638304673901
 30
0.0
 10
3.2336845825249
 20
-3.624375387982787
 30
0.0
 10
3.226036360304616
 20
-3.750123026840253
 30
0.0
 10
3.21873386030643
 20
-3.869802887921442
 30
0.0
 10
3.308339415839583
 20
-4.024764054549373
 30
0.0
 10
3.574404325476015
 20
-4.099387137864032
 30
0.0
 10
3.471396832465471
 20
-4.124155665635633
 30
0.0
 10
3.412140749146963
 20
-4.184343082287232
 30
0.0
 10
3.411417554702712
 20
-4.269747054488106
 30
0.0
 10
3.409900610258627
 20
-4.450097637776376
 30
0.0
 10
3.66483890650217
 20
-4.668791637721703
 30
0.0
 10
4.002045064565991
 20
-4.696488221048114
 30
0.0
 10
3.936827038452063
 20
-4.774522665473033
 30
0.0
 10
3.887734484148963
 20
-4.885831109889656
 30
0.0
 10
3.937895955091459
 20
-4.979366609866263
 30
0.0
 10
3.951442621412522
 20
-5.004618443193282
 30
0.0
 10
3.973120815303909
 20
-5.029605693187043
 30
0.0
 10
4.006737008890734
 20
-5.051223915403889
 30
0.0
 10
3.939024843951548
 20
-5.078532443174795
 30
0.0
 10
3.77452809814821
 20
-5.144921693158208
 30
0.0
 10
3.691089100276916
 20
-5.178735443149777
 30
0.0
 10
3.389506526930402
 20
-5.153758776489336
 30
0.0
 10
2.340990999414751
 20
-5.264344026461708
 30
0.0
 10
2.212248277224706
 20
-5.491719887515954
 30
0.0
 10
2.156505860571971
 20
-5.59014841526913
 30
0.0
 10
2.176282582789273
 20
-5.656706998585793
 30
0.0
 10
2.202705638338216
 20
-5.695187998576171
 30
0.0
 10
2.259894443879485
 20
-5.778626998555318
 30
0.0
 10
2.407034527176004
 20
-5.816557665212541
 30
0.0
 10
2.614291471568634
 20
-5.803709498549087
 30
0.0
 10
2.489337582711002
 20
-5.858622887424244
 30
0.0
 10
2.414785054951863
 20
-5.921117470741915
 30
0.0
 10
2.392115554957526
 20
-5.990261915169107
 30
0.0
 10
2.37527041607285
 20
-6.041559331822915
 30
0.0
 10
2.386809777181091
 20
-6.095301498476148
 30
0.0
 10
2.426359693837849
 20
-6.149939720684727
 30
0.0
 10
2.532641054922398
 20
-6.29666705398138
 30
0.0
 10
2.85551738817501
 20
-6.268660026210584
 30
0.0
 10
3.122753610330431
 20
-6.151319081795492
 30
0.0
 10
3.073936221453728
 20
-6.215051915112888
 30
0.0
 10
3.010891304802838
 20
-6.314478803976924
 30
0.0
 10
3.021534610355732
 20
-6.391751248402033
 30
0.0
 10
3.026290054798981
 20
-6.426168248393484
 30
0.0
 10
3.044514554794422
 20
-6.453109887275621
 30
0.0
 10
3.07572833256439
 20
-6.471817692826511
 30
0.0
 10
3.21680416586248
 20
-6.556494942805319
 30
0.0
 10
3.451828249137041
 20
-6.388339887291773
 30
0.0
 10
3.608338019054738
 20
-6.237619109551681
 30
0.0
 10
3.584462019663866
 20
-6.300286553980482
 30
0.0
 10
3.562967270212243
 20
-6.381555970626844
 30
0.0
 10
3.582705276882094
 20
-6.438328498390432
 30
0.0
 10
3.592455963904368
 20
-6.466406081716716
 30
0.0
 10
3.611026185652825
 20
-6.486387415045044
 30
0.0
 10
3.637826712746864
 20
-6.497757442819973
 30
0.0
 10
3.649369601341269
 20
-6.502615192818798
 30
0.0
 10
3.662598767670432
 20
-6.505028192818199
 30
0.0
 10
3.67730960062846
 20
-6.505028192818199
 30
0.0
 10
3.714859266337155
 20
-6.505028192818199
 30
0.0
 10
3.761955098468974
 20
-6.489283720599927
 30
0.0
 10
3.814250874912575
 20
-6.458690831718664
 30
0.0
 10
3.996255981380349
 20
-6.352307165078572
 30
0.0
 10
4.196520865160055
 20
-6.102776859585398
 30
0.0
 10
4.238480252978471
 20
-5.824622165210538
 30
0.0
 10
4.567142133482497
 20
-6.012843220719036
 30
0.0
 10
5.256730949222954
 20
-6.173219526234482
 30
0.0
 10
5.838091073280109
 20
-6.060789248484816
 30
0.0
 10
5.843044073153748
 20
-6.130357026245193
 30
0.0
 10
5.818744740440343
 20
-6.195296359562289
 30
0.0
 10
5.79234638000271
 20
-6.236310303996468
 30
0.0
 10
5.774252408242103
 20
-6.241718387328448
 30
0.0
 10
5.756207825369126
 20
-6.247807331771366
 30
0.0
 10
5.738336103602849
 20
-6.255395581769513
 30
0.0
 10
5.475234443648465
 20
-6.36694744285272
 30
0.0
 10
5.352760585661922
 20
-6.57017213724632
 30
0.0
 10
5.307873142362652
 20
-6.66515402611146
 30
0.0
 10
5.267977504491586
 20
-6.560012137248908
 30
0.0
 10
5.144473535420212
 20
-6.303419220646349
 30
0.0
 10
4.875893236716711
 20
-6.255085137325096
 30
0.0
 10
4.703808241106965
 20
-6.224150053999521
 30
0.0
 10
4.531074134402668
 20
-6.280061803985537
 30
0.0
 10
4.413560331845139
 20
-6.40487810950988
 30
0.0
 10
4.303179695772295
 20
-6.522081470591684
 30
0.0
 10
4.262010530155941
 20
-6.680556303885419
 30
0.0
 10
4.300629112504033
 20
-6.839581470512309
 30
0.0
 10
4.380279277138654
 20
-7.167484887097027
 30
0.0
 10
4.698227296804902
 20
-7.692587553632412
 30
0.0
 10
4.859665459352938
 20
-7.812888303602306
 30
0.0
 10
4.933392485249783
 20
-7.891229664693826
 30
0.0
 10
4.999365455788894
 20
-7.919688248020081
 30
0.0
 10
5.084458981395755
 20
-7.919688248020081
 30
0.0
 10
5.139993257756736
 20
-7.919688248020081
 30
0.0
 10
5.203694339464919
 20
-7.907559748023093
 30
0.0
 10
5.282998781886138
 20
-7.889232942472107
 30
0.0
 10
5.296711387564712
 20
-7.886199053584001
 30
0.0
 10
5.31093878117333
 20
-7.882822970251516
 30
0.0
 10
5.325822475238059
 20
-7.879274025807968
 30
0.0
 10
5.325822475238059
 20
-7.879274025807968
 30
0.0
 10
5.356415363346459
 20
-7.871971525809782
 30
0.0
 10
5.356415363346459
 20
-7.871971525809782
 30
0.0
 10
5.401577973305375
 20
-7.861807998034553
 30
0.0
 10
5.443851333338004
 20
-7.85140458137046
 30
0.0
 10
5.48557083227365
 20
-7.84014038692886
 30
0.0
 10
5.529117720051565
 20
-7.82856222026509
 30
0.0
 10
5.565979469111144
 20
-7.817985942489933
 30
0.0
 10
5.600946943044201
 20
-7.807067470270462
 30
0.0
 10
5.602911773724478
 20
-7.806961636937133
 30
0.0
 10
5.604979051449515
 20
-7.806446581381691
 30
0.0
 10
5.607078079173743
 20
-7.805377664715343
 30
0.0
 10
6.35800805396608
 20
-7.579585775882887
 30
0.0
 10
6.554032388348259
 20
-7.097754831558905
 30
0.0
 10
6.493742667664155
 20
-6.753796498311561
 30
0.0
 10
6.493742667664155
 20
-6.753761220533786
 30
0.0
 10
6.493742667664155
 20
-6.753761220533786
 30
0.0
 10
6.493742667664155
 20
-6.753761220533786
 30
0.0
 10
6.474244640383813
 20
-6.643140692783637
 30
0.0
 10
6.429699391520257
 20
-6.53841155392095
 30
0.0
 10
6.364964670949555
 20
-6.450905026165061
 30
0.0
 10
6.364964670949555
 20
-6.450905026165061
 30
0.0
 10
6.364932920950365
 20
-6.450940303942837
 30
0.0
 10
6.364932920950365
 20
-6.450940303942837
 30
0.0
 10
6.364516643183208
 20
-6.450421720609643
 30
0.0
 10
6.364103893193738
 20
-6.449906665054201
 30
0.0
 10
6.363655865427391
 20
-6.449388081721008
 30
0.0
 10
6.297460644893949
 20
-6.360022415076688
 30
0.0
 10
6.215570341427589
 20
-6.295100720648479
 30
0.0
 10
6.12642692703516
 20
-6.256531526213661
 30
0.0
 10
6.173494536945476
 20
-6.185563220675815
 30
0.0
 10
6.177001147967126
 20
-6.048981776265501
 30
0.0
 10
6.151301287511673
 20
-5.967031498508264
 30
0.0
 10
6.452746363154502
 20
-5.838736804095861
 30
0.0
 10
6.654877441331042
 20
-5.622099498594453
 30
0.0
 10
6.752642744392397
 20
-5.322220748669419
 30
0.0
 10
6.887897740941755
 20
-4.907258832106517
 30
0.0
 10
6.949288128264445
 20
-4.655149721058446
 30
0.0
 10
6.994108543787647
 20
-4.471077332215563
 30
0.0
 10
7.063630458680662
 20
-4.185616610064701
 30
0.0
 10
7.08702333156157
 20
-4.08942822119986
 30
0.0
 10
7.284497564156983
 20
-3.842071026817254
 30
0.0
 10
7.319436674376724
 20
-3.798337165717074
 30
0.0
 10
7.349299312503753
 20
-3.748503776840656
 30
0.0
 10
7.37351750633034
 20
-3.694052526854277
 30
0.0
 10
7.478490059207823
 20
-3.678057582413819
 30
0.0
 10
7.786634384679739
 20
-3.604394054654459
 30
0.0
 10
7.817005022793809
 20
-3.570806082440619
 30
0.0
 10
7.82241310598917
 20
-3.564808860219894
 30
0.0
 10
7.82444510593733
 20
-3.557298221332899
 30
0.0
 10
7.822585967095871
 20
-3.550270888001322
 30
0.0
  0
SPLINE
  5
48
330
43
100
AcDbEntity
  8
1
370
     0
100
AcDbSpline
210
0.0
220
0.0
230
1.0
 70
    11
 71
     3
 72
    41
 73
    37
 74
     0
 42
0.0000000001
 43
0.0000000001
 12
1.0
 22
0.0
 32
0.0
 13
1.0
 23
0.0
 33
0.0
 40
0.0
 40
0.0
 40
0.0
 40
0.0
 40
1.0
 40
1.0
 40
1.0
 40
2.0
 40
2.0
 40
2.0
 40
3.0
 40
3.0
 40
3.0
 40
4.0
 40
4.0
 40
4.0
 40
5.0
 40
5.0
 40
5.0
 40
6.0
 40
6.0
 40
6.0
 40
7.0
 40
7.0
 40
7.0
 40
8.0
 40
8.0
 40
8.0
 40
9.0
 40
9.0
 40
9.0
 40
10.0
 40
10.0
 40
10.0
 40
11.0
 40
11.0
 40
11.0
 40
12.0
 40
12.0
 40
12.0
 40
12.0
 10
3.83385473552355
 20
-2.571831138245922
 30
0.0
 10
3.864172456972303
 20
-2.5556033604722
 30
0.0
 10
3.961323926715985
 20
-2.668947332666102
 30
0.0
 10
4.033361147100384
 20
-2.785152332637046
 30
0.0
 10
4.038077785868942
 20
-2.792765277079585
 30
0.0
 10
4.047863841174834
 20
-2.795555749301107
 30
0.0
 10
4.055889535414526
 20
-2.791798665968718
 30
0.0
 10
4.064021062984851
 20
-2.787942804858567
 30
0.0
 10
4.067947479551346
 20
-2.77864005486091
 30
0.0
 10
4.065019424070492
 20
-2.770131054863024
 30
0.0
 10
3.967663343220919
 20
-2.485735721600789
 30
0.0
 10
4.094374165643062
 20
-2.215331555001725
 30
0.0
 10
4.1857717265454
 20
-2.130446166134045
 30
0.0
 10
4.266660141148431
 20
-2.631397666008815
 30
0.0
 10
4.574307049966371
 20
-2.992268165918603
 30
0.0
 10
5.054829176596119
 20
-3.148506388101755
 30
0.0
 10
5.455563555261422
 20
-3.278797804735845
 30
0.0
 10
5.840070156562953
 20
-3.657483582418962
 30
0.0
 10
5.859261267184458
 20
-3.788258304608502
 30
0.0
 10
5.859310656072086
 20
-3.788611082386167
 30
0.0
 10
5.859518794955665
 20
-3.788886249052776
 30
0.0
 10
5.859585822731733
 20
-3.789231971274905
 30
0.0
 10
5.818462518225321
 20
-3.897820499025558
 30
0.0
 10
5.779678130325903
 20
-4.015514221218348
 30
0.0
 10
5.743486659027003
 20
-4.142898748964268
 30
0.0
 10
5.587657663002532
 20
-4.027519248993118
 30
0.0
 10
5.3952422208734
 20
-3.968298443452355
 30
0.0
 10
5.215646450271106
 20
-3.913145165688365
 30
0.0
 10
5.100961925419174
 20
-3.877899137919399
 30
0.0
 10
4.99264503929368
 20
-3.84465688792772
 30
0.0
 10
4.897493819498967
 20
-3.799388443494598
 30
0.0
 10
4.491393690970556
 20
-3.606175582431802
 30
0.0
 10
4.123577005909897
 20
-3.311320388061058
 30
0.0
 10
3.833611318863094
 20
-3.023361999244171
 30
0.0
 10
3.732180654784139
 20
-2.659214193779627
 30
0.0
 10
3.808094999047973
 20
-2.585688249353587
 30
0.0
 10
3.83385473552355
 20
-2.571831138245922
 30
0.0
  0
SPLINE
  5
49
330
43
100
AcDbEntity
  8
1
370
     0
100
AcDbSpline
210
0.0
220
0.0
230
1.0
 70
    11
 71
     3
 72
   179
 73
   175
 74
     0
 42
0.0000000001
 43
0.0000000001
 12
1.0
 22
0.0
 32
0.0
 13
1.0
 23
0.0
 33
0.0
 40
0.0
 40
0.0
 40
0.0
 40
0.0
 40
1.0
 40
1.0
 40
1.0
 40
2.0
 40
2.0
 40
2.0
 40
3.0
 40
3.0
 40
3.0
 40
4.0
 40
4.0
 40
4.0
 40
5.0
 40
5.0
 40
5.0
 40
6.0
 40
6.0
 40
6.0
 40
7.0
 40
7.0
 40
7.0
 40
8.0
 40
8.0
 40
8.0
 40
9.0
 40
9.0
 40
9.0
 40
10.0
 40
10.0
 40
10.0
 40
11.0
 40
11.0
 40
11.0
 40
12.0
 40
12.0
 40
12.0
 40
13.0
 40
13.0
 40
13.0
 40
14.0
 40
14.0
 40
14.0
 40
15.0
 40
15.0
 40
15.0
 40
16.0
 40
16.0
 40
16.0
 40
17.0
 40
17.0
 40
17.0
 40
18.0
 40
18.0
 40
18.0
 40
19.0
 40
19.0
 40
19.0
 40
20.0
 40
20.0
 40
20.0
 40
21.0
 40
21.0
 40
21.0
 40
22.0
 40
22.0
 40
22.0
 40
23.0
 40
23.0
 40
23.0
 40
24.0
 40
24.0
 40
24.0
 40
25.0
 40
25.0
 40
25.0
 40
26.0
 40
26.0
 40
26.0
 40
27.0
 40
27.0
 40
27.0
 40
28.0
 40
28.0
 40
28.0
 40
29.0
 40
29.0
 40
29.0
 40
30.0
 40
30.0
 40
30.0
 40
31.0
 40
31.0
 40
31.0
 40
32.0
 40
32.0
 40
32.0
 40
33.0
 40
33.0
 40
33.0
 40
34.0
 40
34.0
 40
34.0
 40
35.0
 40
35.0
 40
35.0
 40
36.0
 40
36.0
 40
36.0
 40
37.0
 40
37.0
 40
37.0
 40
38.0
 40
38.0
 40
38.0
 40
39.0
 40
39.0
 40
39.0
 40
40.0
 40
40.0
 40
40.0
 40
41.0
 40
41.0
 40
41.0
 40
42.0
 40
42.0
 40
42.0
 40
43.0
 40
43.0
 40
43.0
 40
44.0
 40
44.0
 40
44.0
 40
45.0
 40
45.0
 40
45.0
 40
46.0
 40
46.0
 40
46.0
 40
47.0
 40
47.0
 40
47.0
 40
48.0
 40
48.0
 40
48.0
 40
49.0
 40
49.0
 40
49.0
 40
50.0
 40
50.0
 40
50.0
 40
51.0
 40
51.0
 40
51.0
 40
52.0
 40
52.0
 40
52.0
 40
53.0
 40
53.0
 40
53.0
 40
54.0
 40
54.0
 40
54.0
 40
55.0
 40
55.0
 40
55.0
 40
56.0
 40
56.0
 40
56.0
 40
57.0
 40
57.0
 40
57.0
 40
58.0
 40
58.0
 40
58.0
 40
58.0
 10
6.336061588353601
 20
-6.471436692826606
 30
0.0
 10
6.336509616119949
 20
-6.472057581715313
 30
0.0
 10
6.337024671662364
 20
-6.472643192826307
 30
0.0
 10
6.337543254982467
 20
-6.473193526159461
 30
0.0
 10
6.398556170092565
 20
-6.55605044280543
 30
0.0
 10
6.440515557910981
 20
-6.65512808166952
 30
0.0
 10
6.459015224105682
 20
-6.759860748310023
 30
0.0
 10
6.516620305969386
 20
-7.088593192672288
 30
0.0
 10
6.326966977474513
 20
-7.549511470334819
 30
0.0
 10
5.600879773776319
 20
-7.770720775835091
 30
0.0
 10
5.599327551593697
 20
-7.770787803612827
 30
0.0
 10
5.597810607187953
 20
-7.771066498057221
 30
0.0
 10
5.596297190559897
 20
-7.771546275834886
 30
0.0
 10
5.560088080372557
 20
-7.782986859165367
 30
0.0
 10
5.522019831343759
 20
-7.793940609162615
 30
0.0
 10
5.476476221394562
 20
-7.806065581381786
 30
0.0
 10
5.435169472448385
 20
-7.817195720267914
 30
0.0
 10
5.393344140182105
 20
-7.827496831376431
 30
0.0
 10
5.348008669116487
 20
-7.837797942485011
 30
0.0
 10
5.348008669116487
 20
-7.837797942485011
 30
0.0
 10
5.317655669890857
 20
-7.844962859149845
 30
0.0
 10
5.317655669890857
 20
-7.844962859149845
 30
0.0
 10
5.302980114709706
 20
-7.848441248037905
 30
0.0
 10
5.288925448401603
 20
-7.851817331370389
 30
0.0
 10
5.275248254306093
 20
-7.85481594248072
 30
0.0
 10
5.079911675956211
 20
-7.899946803580554
 30
0.0
 10
4.995678928105168
 20
-7.905940498023527
 30
0.0
 10
4.883058153200585
 20
-7.786669859164452
 30
0.0
 10
4.723514407270885
 20
-7.66746977586093
 30
0.0
 10
4.413112304078791
 20
-7.153222081545032
 30
0.0
 10
4.334943806073036
 20
-6.831241803847734
 30
0.0
 10
4.299147445875166
 20
-6.684034692773416
 30
0.0
 10
4.337183944904774
 20
-6.53744494281005
 30
0.0
 10
4.439224914523715
 20
-6.429061026170487
 30
0.0
 10
4.528661134464229
 20
-6.334082665083162
 30
0.0
 10
4.652616659079637
 20
-6.28199149842952
 30
0.0
 10
4.782495322432823
 20
-6.28199149842952
 30
0.0
 10
4.81133137725271
 20
-6.28199149842952
 30
0.0
 10
4.840509626508311
 20
-6.284573831762169
 30
0.0
 10
4.869620847987844
 20
-6.2898125817609
 30
0.0
 10
5.185226423269408
 20
-6.346588637302239
 30
0.0
 10
5.28799411509203
 20
-6.715523637210024
 30
0.0
 10
5.289027753954548
 20
-6.719241914986886
 30
0.0
 10
5.290301281699836
 20
-6.724032637207911
 30
0.0
 10
5.293575059394093
 20
-6.728061359429126
 30
0.0
 10
5.297984781503814
 20
-6.730336776095173
 30
0.0
 10
5.302429781390412
 20
-6.73264394276131
 30
0.0
 10
5.307633253479883
 20
-6.732919109427887
 30
0.0
 10
5.312247586695495
 20
-6.731162276094969
 30
0.0
 10
5.316794892135039
 20
-6.729475998317603
 30
0.0
 10
5.320894169808235
 20
-6.725408470540859
 30
0.0
 10
5.322788586426571
 20
-6.720931720542004
 30
0.0
 10
5.323032003087028
 20
-6.720310831653234
 30
0.0
 10
5.324305530832316
 20
-6.716832442765237
 30
0.0
 10
5.324478391939016
 20
-6.716211553876531
 30
0.0
 10
5.324478391939016
 20
-6.716211553876531
 30
0.0
 10
5.327335891866116
 20
-6.708252887211798
 30
0.0
 10
5.327335891866116
 20
-6.708252887211798
 30
0.0
 10
5.355106557824294
 20
-6.640110331673283
 30
0.0
 10
5.467829638281821
 20
-6.408391776175653
 30
0.0
 10
5.752119131028993
 20
-6.287847609539141
 30
0.0
 10
5.752937575452557
 20
-6.287501887317012
 30
0.0
 10
5.753763075431496
 20
-6.287261998428211
 30
0.0
 10
5.754581665227999
 20
-6.286916276206018
 30
0.0
 10
5.724627159508149
 20
-6.384670998403823
 30
0.0
 10
5.672871133050777
 20
-6.404034970621197
 30
0.0
 10
5.638362411708946
 20
-6.416660887284738
 30
0.0
 10
5.630816495234791
 20
-6.419416081728452
 30
0.0
 10
5.624166634293332
 20
-6.421931387283429
 30
0.0
 10
5.618687995544215
 20
-6.424619553949407
 30
0.0
 10
5.609974384655407
 20
-6.428923442837198
 30
0.0
 10
5.606390162524626
 20
-6.439499720612356
 30
0.0
 10
5.610697579081402
 20
-6.448252137276795
 30
0.0
 10
5.613763217892079
 20
-6.454453970608609
 30
0.0
 10
5.620032220817246
 20
-6.458069942829894
 30
0.0
 10
5.626509078678017
 20
-6.458069942829894
 30
0.0
 10
5.629161967499225
 20
-6.458069942829894
 30
0.0
 10
5.63181499859204
 20
-6.457484331718964
 30
0.0
 10
5.634330161811817
 20
-6.45624608171924
 30
0.0
 10
5.638806911697606
 20
-6.45404122060868
 30
0.0
 10
5.6443208282236
 20
-6.452076248386985
 30
0.0
 10
5.650487383621834
 20
-6.449800831720873
 30
0.0
 10
5.684879688299969
 20
-6.437217248390676
 30
0.0
 10
5.739560242460508
 20
-6.417158303951292
 30
0.0
 10
5.775878713756168
 20
-6.332092998416948
 30
0.0
 10
5.789273685636656
 20
-6.376066748405993
 30
0.0
 10
5.788695276330602
 20
-6.438631887279217
 30
0.0
 10
5.762247380770599
 20
-6.500685498374815
 30
0.0
 10
5.758423269757049
 20
-6.509642526150343
 30
0.0
 10
5.76258972078158
 20
-6.520014192814412
 30
0.0
 10
5.771546602755579
 20
-6.523838303924602
 30
0.0
 10
5.773822019364195
 20
-6.524801387257686
 30
0.0
 10
5.776164463748878
 20
-6.525249415035327
 30
0.0
 10
5.778471630356684
 20
-6.525249415035327
 30
0.0
 10
5.785329630181722
 20
-6.525249415035327
 30
0.0
 10
5.79183838001567
 20
-6.521217165036361
 30
0.0
 10
5.794699407720457
 20
-6.514535553926945
 30
0.0
 10
5.821433054100191
 20
-6.451741109498176
 30
0.0
 10
5.826325934691375
 20
-6.381432498404628
 30
0.0
 10
5.810726101756027
 20
-6.326201609529551
 30
0.0
 10
5.855246656175768
 20
-6.357972776188304
 30
0.0
 10
5.876184165197603
 20
-6.403957359510141
 30
0.0
 10
5.886682683151546
 20
-6.486835442822749
 30
0.0
 10
5.88781862756701
 20
-6.495760720598254
 30
0.0
 10
5.895399821818041
 20
-6.502269470596669
 30
0.0
 10
5.904148710483728
 20
-6.502269470596669
 30
0.0
 10
5.9049071826866
 20
-6.502269470596669
 30
0.0
 10
5.905665654889471
 20
-6.502237720596645
 30
0.0
 10
5.906388849315466
 20
-6.50213188726338
 30
0.0
 10
5.916069071290726
 20
-6.500893637263656
 30
0.0
 10
5.922927220741498
 20
-6.492074192821416
 30
0.0
 10
5.921685293369666
 20
-6.48242572060163
 30
0.0
 10
5.908043377051033
 20
-6.374906109517389
 30
0.0
 10
5.874970461228127
 20
-6.318190026198217
 30
0.0
 10
5.803328351944758
 20
-6.280527470652067
 30
0.0
 10
5.806887879631725
 20
-6.276308248430899
 30
0.0
 10
5.810450935096379
 20
-6.271700970654323
 30
0.0
 10
5.814042212782536
 20
-6.266695053988889
 30
0.0
 10
5.900814960568779
 20
-6.242811998439316
 30
0.0
 10
5.988296942947348
 20
-6.244801665105467
 30
0.0
 10
6.070617484014534
 20
-6.27143285954325
 30
0.0
 10
6.040800706997445
 20
-6.370503442851837
 30
0.0
 10
5.988656624994418
 20
-6.389849776180323
 30
0.0
 10
5.953964459212822
 20
-6.402535665066032
 30
0.0
 10
5.946422220735598
 20
-6.40529085950981
 30
0.0
 10
5.939772209574897
 20
-6.407806165064723
 30
0.0
 10
5.93429357082578
 20
-6.4104943317307
 30
0.0
 10
5.925579959936972
 20
-6.414798220618492
 30
0.0
 10
5.92199573780619
 20
-6.425378026171401
 30
0.0
 10
5.926303154362966
 20
-6.434126915058153
 30
0.0
 10
5.929368793173643
 20
-6.440328748389903
 30
0.0
 10
5.935637654124823
 20
-6.443944720611252
 30
0.0
 10
5.942114653959581
 20
-6.443944720611252
 30
0.0
 10
5.944767542780789
 20
-6.443944720611252
 30
0.0
 10
5.947420431601997
 20
-6.443359109500258
 30
0.0
 10
5.949935737093381
 20
-6.442120859500598
 30
0.0
 10
5.95441248697917
 20
-6.439915998390037
 30
0.0
 10
5.959926403505165
 20
-6.437951026168278
 30
0.0
 10
5.966092958903398
 20
-6.435675609502166
 30
0.0
 10
6.00047468024847
 20
-6.423102609505353
 30
0.0
 10
6.055155234409009
 20
-6.403043665065906
 30
0.0
 10
6.091477233482357
 20
-6.317974831753808
 30
0.0
 10
6.104868677585157
 20
-6.361927415076214
 30
0.0
 10
6.104276010933611
 20
-6.424489026171686
 30
0.0
 10
6.077852956052164
 20
-6.486560276156109
 30
0.0
 10
6.074028845038614
 20
-6.495552581709413
 30
0.0
 10
6.078195150487878
 20
-6.50588897059577
 30
0.0
 10
6.087152178037143
 20
-6.509713081705895
 30
0.0
 10
6.089427594645759
 20
-6.510676165038979
 30
0.0
 10
6.091770039030442
 20
-6.511124192816685
 30
0.0
 10
6.094077205638248
 20
-6.511124192816685
 30
0.0
 10
6.100935205463286
 20
-6.511124192816685
 30
0.0
 10
6.107443955297234
 20
-6.50709547059547
 30
0.0
 10
6.110304983002021
 20
-6.500410331708238
 30
0.0
 10
6.137045537875368
 20
-6.437587665057261
 30
0.0
 10
6.1419138710845
 20
-6.367282581741529
 30
0.0
 10
6.126314038149151
 20
-6.312083442866411
 30
0.0
 10
6.170852231457332
 20
-6.343829915080709
 30
0.0
 10
6.191789592034286
 20
-6.389796859513658
 30
0.0
 10
6.20228825843311
 20
-6.472710220604043
 30
0.0
 10
6.203424202848574
 20
-6.481635498379611
 30
0.0
 10
6.211005554002786
 20
-6.488144248377962
 30
0.0
 10
6.219754442889537
 20
-6.488144248377962
 30
0.0
 10
6.220512757968164
 20
-6.488144248377962
 30
0.0
 10
6.221271387333591
 20
-6.488112498378002
 30
0.0
 10
6.22199442459703
 20
-6.488006665044674
 30
0.0
 10
6.23167464657229
 20
-6.486768415044949
 30
0.0
 10
6.238529118619639
 20
-6.47794897060271
 30
0.0
 10
6.23729086865123
 20
-6.468300498382924
 30
0.0
 10
6.22996014661603
 20
-6.410543720619613
 30
0.0
 10
6.217136674720962
 20
-6.367420165074818
 30
0.0
 10
6.195768925266099
 20
-6.333994470638722
 30
0.0
 10
6.246988887327139
 20
-6.369307526185457
 30
0.0
 10
6.294479672747777
 20
-6.415048692840676
 30
0.0
 10
6.336061588353601
 20
-6.471436692826606
 30
0.0
  0
SPLINE
  5
4A
330
43
100
AcDbEntity
  8
1
370
     0
100
AcDbSpline
210
0.0
220
0.0
230
1.0
 70
    11
 71
     3
 72
    20
 73
    16
 74
     0
 42
0.0000000001
 43
0.0000000001
 12
1.0
 22
0.0
 32
0.0
 13
1.0
 23
0.0
 33
0.0
 40
0.0
 40
0.0
 40
0.0
 40
0.0
 40
1.0
 40
1.0
 40
1.0
 40
2.0
 40
2.0
 40
2.0
 40
3.0
 40
3.0
 40
3.0
 40
4.0
 40
4.0
 40
4.0
 40
5.0
 40
5.0
 40
5.0
 40
5.0
 10
6.092578054032393
 20
-6.243390553994677
 30
0.0
 10
6.011146207753995
 20
-6.214854359557368
 30
0.0
 10
5.924750932180344
 20
-6.208059859559119
 30
0.0
 10
5.839089434365751
 20
-6.224827387332708
 30
0.0
 10
5.86212935044462
 20
-6.178518248455381
 30
0.0
 10
5.878985072236817
 20
-6.117745220692788
 30
0.0
 10
5.873280655715682
 20
-6.053479692931061
 30
0.0
 10
5.94755801493182
 20
-6.037562359601725
 30
0.0
 10
6.01999034641725
 20
-6.017295276273436
 30
0.0
 10
6.089357039092003
 20
-5.991637748502121
 30
0.0
 10
6.099280831808514
 20
-5.987968859614107
 30
0.0
 10
6.108770554028371
 20
-5.983911915170685
 30
0.0
 10
6.118503538348414
 20
-5.980063109616103
 30
0.0
 10
6.14332498215961
 20
-6.060902137373648
 30
0.0
 10
6.1349006490412
 20
-6.18992002623027
 30
0.0
 10
6.092578054032393
 20
-6.243390553994677
 30
0.0
  0
SPLINE
  5
4B
330
43
100
AcDbEntity
  8
1
370
     0
100
AcDbSpline
210
0.0
220
0.0
230
1.0
 70
    11
 71
     3
 72
   218
 73
   214
 74
     0
 42
0.0000000001
 43
0.0000000001
 12
1.0
 22
0.0
 32
0.0
 13
1.0
 23
0.0
 33
0.0
 40
0.0
 40
0.0
 40
0.0
 40
0.0
 40
1.0
 40
1.0
 40
1.0
 40
2.0
 40
2.0
 40
2.0
 40
3.0
 40
3.0
 40
3.0
 40
4.0
 40
4.0
 40
4.0
 40
5.0
 40
5.0
 40
5.0
 40
6.0
 40
6.0
 40
6.0
 40
7.0
 40
7.0
 40
7.0
 40
8.0
 40
8.0
 40
8.0
 40
9.0
 40
9.0
 40
9.0
 40
10.0
 40
10.0
 40
10.0
 40
11.0
 40
11.0
 40
11.0
 40
12.0
 40
12.0
 40
12.0
 40
13.0
 40
13.0
 40
13.0
 40
14.0
 40
14.0
 40
14.0
 40
15.0
 40
15.0
 40
15.0
 40
16.0
 40
16.0
 40
16.0
 40
17.0
 40
17.0
 40
17.0
 40
18.0
 40
18.0
 40
18.0
 40
19.0
 40
19.0
 40
19.0
 40
20.0
 40
20.0
 40
20.0
 40
21.0
 40
21.0
 40
21.0
 40
22.0
 40
22.0
 40
22.0
 40
23.0
 40
23.0
 40
23.0
 40
24.0
 40
24.0
 40
24.0
 40
25.0
 40
25.0
 40
25.0
 40
26.0
 40
26.0
 40
26.0
 40
27.0
 40
27.0
 40
27.0
 40
28.0
 40
28.0
 40
28.0
 40
29.0
 40
29.0
 40
29.0
 40
30.0
 40
30.0
 40
30.0
 40
31.0
 40
31.0
 40
31.0
 40
32.0
 40
32.0
 40
32.0
 40
33.0
 40
33.0
 40
33.0
 40
34.0
 40
34.0
 40
34.0
 40
35.0
 40
35.0
 40
35.0
 40
36.0
 40
36.0
 40
36.0
 40
37.0
 40
37.0
 40
37.0
 40
38.0
 40
38.0
 40
38.0
 40
39.0
 40
39.0
 40
39.0
 40
40.0
 40
40.0
 40
40.0
 40
41.0
 40
41.0
 40
41.0
 40
42.0
 40
42.0
 40
42.0
 40
43.0
 40
43.0
 40
43.0
 40
44.0
 40
44.0
 40
44.0
 40
45.0
 40
45.0
 40
45.0
 40
46.0
 40
46.0
 40
46.0
 40
47.0
 40
47.0
 40
47.0
 40
48.0
 40
48.0
 40
48.0
 40
49.0
 40
49.0
 40
49.0
 40
50.0
 40
50.0
 40
50.0
 40
51.0
 40
51.0
 40
51.0
 40
52.0
 40
52.0
 40
52.0
 40
53.0
 40
53.0
 40
53.0
 40
54.0
 40
54.0
 40
54.0
 40
55.0
 40
55.0
 40
55.0
 40
56.0
 40
56.0
 40
56.0
 40
57.0
 40
57.0
 40
57.0
 40
58.0
 40
58.0
 40
58.0
 40
59.0
 40
59.0
 40
59.0
 40
60.0
 40
60.0
 40
60.0
 40
61.0
 40
61.0
 40
61.0
 40
62.0
 40
62.0
 40
62.0
 40
63.0
 40
63.0
 40
63.0
 40
64.0
 40
64.0
 40
64.0
 40
65.0
 40
65.0
 40
65.0
 40
66.0
 40
66.0
 40
66.0
 40
67.0
 40
67.0
 40
67.0
 40
68.0
 40
68.0
 40
68.0
 40
69.0
 40
69.0
 40
69.0
 40
70.0
 40
70.0
 40
70.0
 40
71.0
 40
71.0
 40
71.0
 40
71.0
 10
7.256935037082385
 20
-3.820092971267208
 30
0.0
 10
7.054606403355329
 20
-4.073514415648275
 30
0.0
 10
7.030730403964457
 20
-4.171593693401539
 30
0.0
 10
6.959829127995521
 20
-4.462741193328773
 30
0.0
 10
6.915146295802142
 20
-4.646259721060654
 30
0.0
 10
6.853928769586153
 20
-4.897613887664482
 30
0.0
 10
6.719086523026266
 20
-5.311266998672171
 30
0.0
 10
6.618319081152612
 20
-5.620497887483775
 30
0.0
 10
6.402309725552359
 20
-5.838264081873763
 30
0.0
 10
6.077129761626169
 20
-5.958533081843698
 30
0.0
 10
6.009886942941986
 20
-5.983403915170811
 30
0.0
 10
5.939712237354205
 20
-6.003092442943673
 30
0.0
 10
5.867770266967375
 20
-6.018649942939809
 30
0.0
 10
5.860619461594252
 20
-5.986300220725629
 30
0.0
 10
5.847513767484161
 20
-5.953611831844952
 30
0.0
 10
5.82560274026538
 20
-5.921911220741751
 30
0.0
 10
5.820053545962508
 20
-5.913850248521506
 30
0.0
 10
5.809064518465084
 20
-5.911849998522034
 30
0.0
 10
5.80107410200227
 20
-5.917430942965079
 30
0.0
 10
5.793044879984889
 20
-5.922944859630387
 30
0.0
 10
5.791048157813607
 20
-5.933933887405409
 30
0.0
 10
5.796593824338792
 20
-5.941959581847814
 30
0.0
 10
5.815523879411402
 20
-5.969366887396545
 30
0.0
 10
5.826901109654402
 20
-5.997804304056094
 30
0.0
 10
5.833095740074218
 20
-6.026065331826827
 30
0.0
 10
5.246705005034292
 20
-6.140545248464877
 30
0.0
 10
4.547464189540078
 20
-5.971959804062577
 30
0.0
 10
4.23365778087928
 20
-5.780831859665877
 30
0.0
 10
4.228560142120442
 20
-5.777663915222234
 30
0.0
 10
4.222114998944464
 20
-5.777388748555657
 30
0.0
 10
4.216742086866391
 20
-5.780041637443858
 30
0.0
 10
4.21133400367103
 20
-5.782694526332124
 30
0.0
 10
4.207647475987303
 20
-5.787929748553039
 30
0.0
 10
4.206959559338186
 20
-5.793891692995988
 30
0.0
 10
4.171886393566311
 20
-6.103775220696257
 30
0.0
 10
3.942270399424303
 20
-6.343039692858691
 30
0.0
 10
3.796474403143868
 20
-6.428235526170692
 30
0.0
 10
3.73446312694813
 20
-6.464546942828286
 30
0.0
 10
3.681719322738181
 20
-6.478051276158286
 30
0.0
 10
3.651574462396129
 20
-6.465234859494792
 30
0.0
 10
3.634108435063947
 20
-6.45786533171887
 30
0.0
 10
3.622463332427724
 20
-6.445253526166464
 30
0.0
 10
3.616056796635594
 20
-6.42678913728219
 30
0.0
 10
3.585428630750317
 20
-6.338732276193083
 30
0.0
 10
3.680512822768962
 20
-6.163549887347992
 30
0.0
 10
3.681475906077725
 20
-6.161793054015138
 30
0.0
 10
3.685748044857622
 20
-6.153971970683758
 30
0.0
 10
3.683543183802762
 20
-6.144154165130659
 30
0.0
 10
3.676275961765942
 20
-6.13898597068748
 30
0.0
 10
3.669005211951434
 20
-6.133715470688789
 30
0.0
 10
3.658982795540461
 20
-6.134816137355161
 30
0.0
 10
3.65298557347124
 20
-6.141395442909064
 30
0.0
 10
3.472222332465266
 20
-6.339077998415212
 30
0.0
 10
3.220109693639411
 20
-6.517290748370659
 30
0.0
 10
3.093846999226535
 20
-6.441566998389628
 30
0.0
 10
3.071971249232001
 20
-6.428443665059532
 30
0.0
 10
3.059740443679501
 20
-6.410561359508501
 30
0.0
 10
3.056501943680305
 20
-6.386964053958824
 30
0.0
 10
3.042101554795022
 20
-6.28257710954045
 30
0.0
 10
3.200093082533308
 20
-6.113765887360421
 30
0.0
 10
3.201680582532913
 20
-6.112044331805343
 30
0.0
 10
3.207603721420334
 20
-6.105775470695793
 30
0.0
 10
3.208122304753529
 20
-6.096162276253718
 30
0.0
 10
3.202918832532606
 20
-6.089307804033238
 30
0.0
 10
3.197648332533915
 20
-6.082382776257205
 30
0.0
 10
3.188176249202945
 20
-6.080280220702158
 30
0.0
 10
3.18066561031595
 20
-6.0843477484789
 30
0.0
 10
2.888004693722446
 20
-6.238102415107162
 30
0.0
 10
2.548935860473888
 20
-6.25908210954635
 30
0.0
 10
2.454955860497359
 20
-6.129270470689893
 30
0.0
 10
2.421914693838953
 20
-6.083656304034641
 30
0.0
 10
2.412340304952471
 20
-6.041763942934003
 30
0.0
 10
2.425636499393598
 20
-6.001250942944131
 30
0.0
 10
2.451304610498298
 20
-5.923011887408123
 30
0.0
 10
2.565784527136316
 20
-5.849323665204339
 30
0.0
 10
2.756746665977488
 20
-5.788173165219591
 30
0.0
 10
2.765495554864175
 20
-5.785347415220325
 30
0.0
 10
2.770628471529578
 20
-5.776319831889245
 30
0.0
 10
2.768561193752306
 20
-5.767362804113717
 30
0.0
 10
2.766458638197259
 20
-5.758405776338189
 30
0.0
 10
2.757745027088347
 20
-5.752309776339703
 30
0.0
 10
2.748787999312787
 20
-5.753925498561517
 30
0.0
 10
2.485651054934133
 20
-5.792822776329576
 30
0.0
 10
2.292311193871369
 20
-5.763503415225816
 30
0.0
 10
2.231781582775392
 20
-5.675241943025619
 30
0.0
 10
2.194263666118098
 20
-5.620533165261551
 30
0.0
 10
2.217141305001276
 20
-5.554697776389108
 30
0.0
 10
2.242978749439256
 20
-5.509083609733856
 30
0.0
 10
2.358044277188268
 20
-5.305925943117993
 30
0.0
 10
3.369077165824401
 20
-5.185244193148129
 30
0.0
 10
3.69219329469319
 20
-5.214253109807537
 30
0.0
 10
3.695188377950112
 20
-5.214528276474113
 30
0.0
 10
3.697805988994443
 20
-5.214080248696471
 30
0.0
 10
3.700391943519347
 20
-5.21301133203006
 30
0.0
 10
3.798076110161601
 20
-5.17342966537331
 30
0.0
 10
4.018943119690441
 20
-5.084328582062247
 30
0.0
 10
4.047331146743979
 20
-5.072884470954015
 30
0.0
 10
4.157203887849575
 20
-5.12132085983078
 30
0.0
 10
4.356001111091375
 20
-5.139898137603886
 30
0.0
 10
4.71114601869754
 20
-5.07503641539791
 30
0.0
 10
4.654408887725276
 20
-5.156101220933184
 30
0.0
 10
4.644657992616013
 20
-5.232752776469587
 30
0.0
 10
4.684310213826623
 20
-5.29411141534311
 30
0.0
 10
4.736433129163523
 20
-5.374759943100767
 30
0.0
 10
4.863076943228663
 20
-5.417065054201271
 30
0.0
 10
5.024169260711652
 20
-5.417065054201271
 30
0.0
 10
5.128348063609384
 20
-5.417065054201271
 30
0.0
 10
5.246927255028622
 20
-5.399359137539055
 30
0.0
 10
5.369058918579451
 20
-5.362874859770397
 30
0.0
 10
5.378393418341307
 20
-5.360084387548842
 30
0.0
 10
5.383699195983723
 20
-5.350231304217967
 30
0.0
 10
5.380908723832692
 20
-5.340893276442534
 30
0.0
 10
5.378118251681661
 20
-5.331594054222628
 30
0.0
 10
5.36847330748328
 20
-5.326323554224002
 30
0.0
 10
5.358930668837844
 20
-5.329043470889939
 30
0.0
 10
5.026889177308928
 20
-5.428332776420687
 30
0.0
 10
4.778808794749096
 20
-5.375243248656185
 30
0.0
 10
4.71394001862626
 20
-5.274955582014578
 30
0.0
 10
4.667189908707843
 20
-5.202643193143807
 30
0.0
 10
4.71714324076676
 20
-5.118445720942601
 30
0.0
 10
4.76726943393238
 20
-5.060533720957114
 30
0.0
 10
4.772194211584515
 20
-5.054846943180742
 30
0.0
 10
4.772987961564265
 20
-5.046648387627208
 30
0.0
 10
4.769199128327593
 20
-5.040139637628857
 30
0.0
 10
4.765406767313233
 20
-5.033662637630465
 30
0.0
 10
4.758104267499536
 20
-5.03007841540914
 30
0.0
 10
4.750558351025381
 20
-5.031697665408739
 30
0.0
 10
4.164340477092156
 20
-5.146315165380109
 30
0.0
 10
4.009209981049865
 20
-5.037656082073904
 30
0.0
 10
3.968972148743084
 20
-4.962726082092644
 30
0.0
 10
3.924631510985419
 20
-4.879974998780003
 30
0.0
 10
3.978892259601112
 20
-4.767908082141354
 30
0.0
 10
4.0523758688375
 20
-4.693528415493279
 30
0.0
 10
4.057304174267324
 20
-4.68856483216119
 30
0.0
 10
4.05881759089538
 20
-4.681160026607492
 30
0.0
 10
4.056235257627928
 20
-4.674647748831324
 30
0.0
 10
4.053684674359666
 20
-4.668135471055189
 30
0.0
 10
4.047518118961432
 20
-4.663761026611845
 30
0.0
 10
4.040526063584259
 20
-4.663485859945236
 30
0.0
 10
3.676138378436118
 20
-4.64915249883772
 30
0.0
 10
3.445418276916418
 20
-4.420880582228127
 30
0.0
 10
3.446695332471671
 20
-4.270022221154715
 30
0.0
 10
3.447453804693697
 20
-4.179379498955142
 30
0.0
 10
3.531753493230795
 20
-4.125499748968622
 30
0.0
 10
3.677962239500699
 20
-4.122225971191682
 30
0.0
 10
3.687025100380597
 20
-4.122021360080593
 30
0.0
 10
3.694465276854174
 20
-4.114958748971272
 30
0.0
 10
3.695153100173235
 20
-4.105931165640191
 30
0.0
 10
3.695844544600039
 20
-4.096871832309119
 30
0.0
 10
3.689540405871982
 20
-4.08877558231113
 30
0.0
 10
3.680615128321907
 20
-4.0872233600893
 30
0.0
 10
3.359463971382358
 20
-4.030588415659034
 30
0.0
 10
3.253976360297612
 20
-3.871390387921048
 30
0.0
 10
3.261243582518023
 20
-3.752257332395261
 30
0.0
 10
3.26882477696057
 20
-3.627822026870823
 30
0.0
 10
3.391538526929897
 20
-3.534699276894114
 30
0.0
 10
3.559658214741108
 20
-3.52577752689633
 30
0.0
 10
3.567997881195012
 20
-3.525329499118656
 30
0.0
 10
3.57488763101924
 20
-3.51909238800913
 30
0.0
 10
3.576161158764528
 20
-3.510826804677861
 30
0.0
 10
3.577434686509815
 20
-3.502557693568807
 30
0.0
 10
3.57271451996357
 20
-3.494563749126362
 30
0.0
 10
3.564896964607457
 20
-3.491635693571552
 30
0.0
 10
3.374725138045213
 20
-3.420907276922538
 30
0.0
 10
3.220903443639214
 20
-3.230809443636754
 30
0.0
 10
3.142837249214303
 20
-2.970152527035236
 30
0.0
 10
3.064841610344911
 20
-2.709703749322559
 30
0.0
 10
3.082685110340447
 20
-2.432991916058417
 30
0.0
 10
3.185830276981313
 20
-2.268456360544004
 30
0.0
 10
3.346372388052287
 20
-2.578170554911025
 30
0.0
 10
4.031604313811871
 20
-3.426488221365614
 30
0.0
 10
4.882334958774591
 20
-3.83121958237552
 30
0.0
 10
4.979796872954797
 20
-3.877588693475046
 30
0.0
 10
5.089352009048701
 20
-3.91125074902219
 30
0.0
 10
5.20527831164673
 20
-3.946870721235494
 30
0.0
 10
5.545927580733822
 20
-4.051497554542668
 30
0.0
 10
5.898155016192195
 20
-4.159673332293424
 30
0.0
 10
5.998199263639854
 20
-4.605849026626326
 30
0.0
 10
6.000337096918646
 20
-4.615324637735047
 30
0.0
 10
6.009671596680504
 20
-4.621216026622477
 30
0.0
 10
6.019284790879695
 20
-4.619215776622974
 30
0.0
 10
6.028792151748253
 20
-4.617081471067966
 30
0.0
 10
6.034754096040595
 20
-4.607641137736988
 30
0.0
 10
6.032651540538681
 20
-4.598133776628242
 30
0.0
 10
5.987778208350162
 20
-4.398091137789358
 30
0.0
 10
5.892383571894992
 20
-4.262596248934345
 30
0.0
 10
5.771790019416035
 20
-4.164859165625458
 30
0.0
 10
5.773028269384445
 20
-4.16317994340366
 30
0.0
 10
5.774700436008451
 20
-4.161871137848416
 30
0.0
 10
5.775303685993061
 20
-4.159743887848944
 30
0.0
 10
5.954998098075341
 20
-3.523847832452379
 30
0.0
 10
6.195225647502181
 20
-3.124422249218909
 30
0.0
 10
6.489230640001488
 20
-2.972632554812405
 30
0.0
 10
6.65742096904393
 20
-2.885884499278542
 30
0.0
 10
6.847070769761116
 20
-2.879065304835774
 30
0.0
 10
7.052814292289939
 20
-2.952340777039693
 30
0.0
 10
7.262844064709411
 20
-3.027150832576552
 30
0.0
 10
7.384548867160018
 20
-3.177737554761108
 30
0.0
 10
7.398183727923275
 20
-3.377423888044543
 30
0.0
 10
7.397262977946765
 20
-3.377268665822334
 30
0.0
 10
7.396359866858694
 20
-3.377071110266845
 30
0.0
 10
7.395428533549121
 20
-3.376915888044669
 30
0.0
 10
7.390948255885645
 20
-3.376122138044866
 30
0.0
 10
7.386298644893155
 20
-3.377191054711246
 30
0.0
 10
7.382545275932149
 20
-3.379773388043959
 30
0.0
 10
7.300411369306544
 20
-3.436238999140945
 30
0.0
 10
7.294763397228413
 20
-3.585273499103671
 30
0.0
 10
7.309989285728858
 20
-3.652523526864656
 30
0.0
 10
7.313478257862069
 20
-3.667904637971911
 30
0.0
 10
7.320152813247343
 20
-3.687187471300412
 30
0.0
 10
7.334493229548155
 20
-3.694077221298701
 30
0.0
 10
7.312730553727403
 20
-3.740121776842737
 30
0.0
 10
7.286882341873921
 20
-3.782575054609914
 30
0.0
 10
7.256935037082385
 20
-3.820092971267208
 30
0.0
  0
SPLINE
  5
4C
330
43
100
AcDbEntity
  8
1
370
     0
100
AcDbSpline
210
0.0
220
0.0
230
1.0
 70
    11
 71
     3
 72
    17
 73
    13
 74
     0
 42
0.0000000001
 43
0.0000000001
 12
1.0
 22
0.0
 32
0.0
 13
1.0
 23
0.0
 33
0.0
 40
0.0
 40
0.0
 40
0.0
 40
0.0
 40
1.0
 40
1.0
 40
1.0
 40
2.0
 40
2.0
 40
2.0
 40
3.0
 40
3.0
 40
3.0
 40
4.0
 40
4.0
 40
4.0
 40
4.0
 10
7.349884923599924
 20
-3.662066165751146
 30
0.0
 10
7.343132757105519
 20
-3.648974582421075
 30
0.0
 10
7.333830007342852
 20
-3.599776193544499
 30
0.0
 10
7.341442951593074
 20
-3.538456360226503
 30
0.0
 10
7.345715275941362
 20
-3.504243971346173
 30
0.0
 10
7.358531506712665
 20
-3.443922499139005
 30
0.0
 10
7.397012505730933
 20
-3.412952138035654
 30
0.0
 10
7.595277139561669
 20
-3.447263304693745
 30
0.0
 10
7.748343885656611
 20
-3.524122999118956
 30
0.0
 10
7.782175273682389
 20
-3.552581582445178
 30
0.0
 10
7.718886941963676
 20
-3.584723165770485
 30
0.0
 10
7.396807894625042
 20
-3.658894693529719
 30
0.0
 10
7.349884923599924
 20
-3.662066165751146
 30
0.0
  0
ENDBLK
  5
46
330
43
100
AcDbEntity
  8
0
100
AcDbBlockEnd
  0
ENDSEC
  0
SECTION
  2
ENTITIES
  0
SPLINE
  5
41
330
1F
100
AcDbEntity
  8
1
 62
    12
420
 13631511
370
     9
100
AcDbSpline
210
0.0
220
0.0
230
1.0
 70
    11
 71
     3
 72
   191
 73
   187
 74
     0
 42
0.0000000001
 43
0.0000000001
 12
1.0
 22
0.0
 32
0.0
 13
1.0
 23
0.0
 33
0.0
 40
0.0
 40
0.0
 40
0.0
 40
0.0
 40
1.0
 40
1.0
 40
1.0
 40
2.0
 40
2.0
 40
2.0
 40
3.0
 40
3.0
 40
3.0
 40
4.0
 40
4.0
 40
4.0
 40
5.0
 40
5.0
 40
5.0
 40
6.0
 40
6.0
 40
6.0
 40
7.0
 40
7.0
 40
7.0
 40
8.0
 40
8.0
 40
8.0
 40
9.0
 40
9.0
 40
9.0
 40
10.0
 40
10.0
 40
10.0
 40
11.0
 40
11.0
 40
11.0
 40
12.0
 40
12.0
 40
12.0
 40
13.0
 40
13.0
 40
13.0
 40
14.0
 40
14.0
 40
14.0
 40
15.0
 40
15.0
 40
15.0
 40
16.0
 40
16.0
 40
16.0
 40
17.0
 40
17.0
 40
17.0
 40
18.0
 40
18.0
 40
18.0
 40
19.0
 40
19.0
 40
19.0
 40
20.0
 40
20.0
 40
20.0
 40
21.0
 40
21.0
 40
21.0
 40
22.0
 40
22.0
 40
22.0
 40
23.0
 40
23.0
 40
23.0
 40
24.0
 40
24.0
 40
24.0
 40
25.0
 40
25.0
 40
25.0
 40
26.0
 40
26.0
 40
26.0
 40
27.0
 40
27.0
 40
27.0
 40
28.0
 40
28.0
 40
28.0
 40
29.0
 40
29.0
 40
29.0
 40
30.0
 40
30.0
 40
30.0
 40
31.0
 40
31.0
 40
31.0
 40
32.0
 40
32.0
 40
32.0
 40
33.0
 40
33.0
 40
33.0
 40
34.0
 40
34.0
 40
34.0
 40
35.0
 40
35.0
 40
35.0
 40
36.0
 40
36.0
 40
36.0
 40
37.0
 40
37.0
 40
37.0
 40
38.0
 40
38.0
 40
38.0
 40
39.0
 40
39.0
 40
39.0
 40
40.0
 40
40.0
 40
40.0
 40
41.0
 40
41.0
 40
41.0
 40
42.0
 40
42.0
 40
42.0
 40
43.0
 40
43.0
 40
43.0
 40
44.0
 40
44.0
 40
44.0
 40
45.0
 40
45.0
 40
45.0
 40
46.0
 40
46.0
 40
46.0
 40
47.0
 40
47.0
 40
47.0
 40
48.0
 40
48.0
 40
48.0
 40
49.0
 40
49.0
 40
49.0
 40
50.0
 40
50.0
 40
50.0
 40
51.0
 40
51.0
 40
51.0
 40
52.0
 40
52.0
 40
52.0
 40
53.0
 40
53.0
 40
53.0
 40
54.0
 40
54.0
 40
54.0
 40
55.0
 40
55.0
 40
55.0
 40
56.0
 40
56.0
 40
56.0
 40
57.0
 40
57.0
 40
57.0
 40
58.0
 40
58.0
 40
58.0
 40
59.0
 40
59.0
 40
59.0
 40
60.0
 40
60.0
 40
60.0
 40
61.0
 40
61.0
 40
61.0
 40
62.0
 40
62.0
 40
62.0
 40
62.0
 10
7.993753740506795
 20
-3.506184249123444
 30
0.0
 10
7.993686712730728
 20
-3.505838526901314
 30
0.0
 10
7.993584407177782
 20
-3.505528082456961
 30
0.0
 10
7.993513851624027
 20
-3.50521058245704
 30
0.0
 10
7.957057796998543
 20
-3.366956971380497
 30
0.0
 10
7.738353219244828
 20
-3.282519610290491
 30
0.0
 10
7.590955611894143
 20
-3.240591971412077
 30
0.0
 10
7.535608307750615
 20
-3.014782443690764
 30
0.0
 10
7.37099514528358
 20
-2.840668971512053
 30
0.0
 10
7.123973096030082
 20
-2.752654443756289
 30
0.0
 10
6.991646154961579
 20
-2.705498638212529
 30
0.0
 10
6.863609164950739
 20
-2.68477647155103
 30
0.0
 10
6.740740022473839
 20
-2.690357415994074
 30
0.0
 10
6.751926605521779
 20
-2.658903749335273
 30
0.0
 10
6.758343633135844
 20
-2.625185249343713
 30
0.0
 10
6.758343633135844
 20
-2.589889832685866
 30
0.0
 10
6.758343633135844
 20
-2.424207749393953
 30
0.0
 10
6.624027025451436
 20
-2.2898911383164
 30
0.0
 10
6.458344946345004
 20
-2.2898911383164
 30
0.0
 10
6.292652283905509
 20
-2.2898911383164
 30
0.0
 10
6.158346259554164
 20
-2.424207749393953
 30
0.0
 10
6.158346259554164
 20
-2.589889832685866
 30
0.0
 10
6.158346259554164
 20
-2.69574080488163
 30
0.0
 10
6.213294924818973
 20
-2.788595443747298
 30
0.0
 10
6.296098922706467
 20
-2.841995415956153
 30
0.0
 10
6.123844593767708
 20
-2.959886693704463
 30
0.0
 10
5.970562653233811
 20
-3.147007082546589
 30
0.0
 10
5.838295831873787
 20
-3.401511554705173
 30
0.0
 10
5.661098938906666
 20
-3.224519415860531
 30
0.0
 10
5.397866751177834
 20
-3.037099165907404
 30
0.0
 10
5.120357776497696
 20
-2.946872721485513
 30
0.0
 10
4.70549804661941
 20
-2.812012832630342
 30
0.0
 10
4.453350136385573
 20
-2.509033166039401
 30
0.0
 10
4.391183637971571
 20
-2.071024277260008
 30
0.0
 10
4.382004360427977
 20
-2.005404082831973
 30
0.0
 10
4.34060236148423
 20
-1.949580527290397
 30
0.0
 10
4.28086297411942
 20
-1.921894527297306
 30
0.0
 10
4.221021387833628
 20
-1.894003916193159
 30
0.0
 10
4.151792171856735
 20
-1.898159638414341
 30
0.0
 10
4.095594673290452
 20
-1.933261027294451
 30
0.0
 10
3.98416275946665
 20
-2.002976971721468
 30
0.0
 10
3.884093817575177
 20
-2.164513916125551
 30
0.0
 10
3.840815040901533
 20
-2.357476304966194
 30
0.0
 10
3.805957069568612
 20
-2.357236416077361
 30
0.0
 10
3.768534403856677
 20
-2.366211082741777
 30
0.0
 10
3.73325662697891
 20
-2.385162304959253
 30
0.0
 10
3.67529523956874
 20
-2.416379610507005
 30
0.0
 10
3.636348573895685
 20
-2.461457554940206
 30
0.0
 10
3.611050880096639
 20
-2.513675721593818
 30
0.0
 10
3.478554693574801
 20
-2.348741527190579
 30
0.0
 10
3.395355582484487
 20
-2.218146721667671
 30
0.0
 10
3.364554554714417
 20
-2.151521110573241
 30
0.0
 10
3.335693804721617
 20
-2.089499249477635
 30
0.0
 10
3.275474638070026
 20
-2.046770805043849
 30
0.0
 10
3.205924499198504
 20
-2.039916332823369
 30
0.0
 10
3.138529832548695
 20
-2.033777999491571
 30
0.0
 10
3.072144110343066
 20
-2.063682971706294
 30
0.0
 10
3.031567610353208
 20
-2.118497582803722
 30
0.0
 10
2.871656971504323
 20
-2.336443693860343
 30
0.0
 10
2.836492082624197
 20
-2.686060582661819
 30
0.0
 10
2.939714860376183
 20
-3.030890277020054
 30
0.0
 10
2.991615527029873
 20
-3.20417824919897
 30
0.0
 10
3.072179388120841
 20
-3.352997554717319
 30
0.0
 10
3.174876526984066
 20
-3.468659276910613
 30
0.0
 10
3.101322360335786
 20
-3.541737193559011
 30
0.0
 10
3.055958665902688
 20
-3.635597249091107
 30
0.0
 10
3.049654527015361
 20
-3.739338610176287
 30
0.0
 10
3.041928693683957
 20
-3.865463721255842
 30
0.0
 10
3.097819277003333
 20
-4.024298387882811
 30
0.0
 10
3.259073999185239
 20
-4.143706610075175
 30
0.0
 10
3.243484749189143
 20
-4.181990054510064
 30
0.0
 10
3.235070999191233
 20
-4.223847137832926
 30
0.0
 10
3.23468294363576
 20
-4.268272443377365
 30
0.0
 10
3.232710915858497
 20
-4.502428693318851
 30
0.0
 10
3.450724054692885
 20
-4.725437165485322
 30
0.0
 10
3.746951459962859
 20
-4.823629332127418
 30
0.0
 10
3.738047349078911
 20
-4.87179408211539
 30
0.0
 10
3.738047349078911
 20
-4.919577832103425
 30
0.0
 10
3.747159598846438
 20
-4.965421304314189
 30
0.0
 10
3.716386794075962
 20
-4.97786024875553
 30
0.0
 10
3.686446544839802
 20
-4.989949943196957
 30
0.0
 10
3.660393906615571
 20
-5.00048388763877
 30
0.0
 10
3.366939332491609
 20
-4.993939859862611
 30
0.0
 10
2.253823138325423
 20
-5.059637665401767
 30
0.0
 10
2.058468916152052
 20
-5.404647276426634
 30
0.0
 10
1.98106594394919
 20
-5.541331026392459
 30
0.0
 10
1.980469749504876
 20
-5.683673331912385
 30
0.0
 10
2.056941388374646
 20
-5.795218137440089
 30
0.0
 10
2.096932277253541
 20
-5.853489970758842
 30
0.0
 10
2.153440221683872
 20
-5.89826099852541
 30
0.0
 10
2.226105388332372
 20
-5.929446554073169
 30
0.0
 10
2.225442166110321
 20
-5.931348026294945
 30
0.0
 10
2.224789527221591
 20
-5.933260081850039
 30
0.0
 10
2.224168638332853
 20
-5.935165081849566
 30
0.0
 10
2.189681082785913
 20
-6.04025758182327
 30
0.0
 10
2.210646666113997
 20
-6.153315804017211
 30
0.0
 10
2.28327655498472
 20
-6.253628165103274
 30
0.0
 10
2.397618888289482
 20
-6.411355109508271
 30
0.0
 10
2.618302554900992
 20
-6.447701803943642
 30
0.0
 10
2.846299304843977
 20
-6.414300803952002
 30
0.0
 10
2.846369860399529
 20
-6.414748831729644
 30
0.0
 10
2.846405138177273
 20
-6.415196859507285
 30
0.0
 10
2.846472165955041
 20
-6.41568722061827
 30
0.0
 10
2.858463082618708
 20
-6.503313692818624
 30
0.0
 10
2.907622665939756
 20
-6.577079526133529
 30
0.0
 10
2.984792804809353
 20
-6.623339276121943
 30
0.0
 10
3.113623721443806
 20
-6.700675220547035
 30
0.0
 10
3.276783443625238
 20
-6.683389109440253
 30
0.0
 10
3.45932124913518
 20
-6.576804359466887
 30
0.0
 10
3.48769869357253
 20
-6.61322160945781
 30
0.0
 10
3.524983776896527
 20
-6.641916553895049
 30
0.0
 10
3.5689539089484
 20
-6.660522053890428
 30
0.0
 10
3.662926943528717
 20
-6.700227192769394
 30
0.0
 10
3.779205931362202
 20
-6.683837137217959
 30
0.0
 10
3.903496594857949
 20
-6.611249581680547
 30
0.0
 10
4.065724979608047
 20
-6.516412331704199
 30
0.0
 10
4.251829363749017
 20
-6.320292581753265
 30
0.0
 10
4.351446750096455
 20
-6.074141887370327
 30
0.0
 10
4.399089387769879
 20
-6.09344235958778
 30
0.0
 10
4.449681247590284
 20
-6.111871470694279
 30
0.0
 10
4.502555579574681
 20
-6.129168165134381
 30
0.0
 10
4.421578970529455
 20
-6.165236165125358
 30
0.0
 10
4.347432139087766
 20
-6.217274415112336
 30
0.0
 10
4.284852890684295
 20
-6.283773026206831
 30
0.0
 10
4.132766866786555
 20
-6.445306442833129
 30
0.0
 10
4.075906146014971
 20
-6.663122026111965
 30
0.0
 10
4.128925116884567
 20
-6.881272748279674
 30
0.0
 10
4.211323420337966
 20
-7.220669664861473
 30
0.0
 10
4.532347776644678
 20
-7.775924248056046
 30
0.0
 10
4.740983962380755
 20
-7.944432081347225
 30
0.0
 10
4.842432265348149
 20
-8.048032331321332
 30
0.0
 10
4.951923901443673
 20
-8.096401692420361
 30
0.0
 10
5.084494259172633
 20
-8.096401692420361
 30
0.0
 10
5.156563229556222
 20
-8.096401692420361
 30
0.0
 10
5.231891866523318
 20
-8.08244227575715
 30
0.0
 10
5.3213951142399
 20
-8.061755386873429
 30
0.0
 10
5.33567555832002
 20
-8.058566275763146
 30
0.0
 10
5.3505733634955
 20
-8.055027914652918
 30
0.0
 10
5.36816991860213
 20
-8.05084044243171
 30
0.0
 10
5.36816991860213
 20
-8.05084044243171
 30
0.0
 10
5.395058640138364
 20
-8.044398720211095
 30
0.0
 10
5.395058640138364
 20
-8.044398720211095
 30
0.0
 10
5.442669527812598
 20
-8.03372013688049
 30
0.0
 10
5.487362943339041
 20
-8.022702886883193
 30
0.0
 10
5.530892192228517
 20
-8.010955386886176
 30
0.0
 10
5.575546943050575
 20
-7.999105581333581
 30
0.0
 10
5.613840829001211
 20
-7.988123609114061
 30
0.0
 10
5.650815466946797
 20
-7.976615998005845
 30
0.0
 10
5.65330255021668
 20
-7.975995109117139
 30
0.0
 10
5.655698054141613
 20
-7.975342470228408
 30
0.0
 10
5.657945105653794
 20
-7.974643970228581
 30
0.0
 10
6.519823528109888
 20
-7.715496942515581
 30
0.0
 10
6.740609494699391
 20
-7.138546525993172
 30
0.0
 10
6.66778222055527
 20
-6.723034276096987
 30
0.0
 10
6.643517997176401
 20
-6.585539137242503
 30
0.0
 10
6.587916693039353
 20
-6.455081915052884
 30
0.0
 10
6.506971833993318
 20
-6.345759609524692
 30
0.0
 10
6.505966417352301
 20
-6.344408470636136
 30
0.0
 10
6.50492219515672
 20
-6.343057331747579
 30
0.0
 10
6.503888556294201
 20
-6.34174499841455
 30
0.0
 10
6.503638084078369
 20
-6.341427498414629
 30
0.0
 10
6.503362917418722
 20
-6.3410817761925
 30
0.0
 10
6.503087750759075
 20
-6.340739581748123
 30
0.0
 10
6.454993557541616
 20
-6.2764952206531
 30
0.0
 10
6.398933642305157
 20
-6.220781026222605
 30
0.0
 10
6.337112866104559
 20
-6.175357359567242
 30
0.0
 10
6.342245782640274
 20
-6.140502915131533
 30
0.0
 10
6.344253088144619
 20
-6.104981720695958
 30
0.0
 10
6.343561643717814
 20
-6.070469470704627
 30
0.0
 10
6.626542498343362
 20
-5.917353331854022
 30
0.0
 10
6.8204078259969
 20
-5.684611720801077
 30
0.0
 10
6.920684906771951
 20
-5.376989498655783
 30
0.0
 10
7.057827264384269
 20
-4.956242026538717
 30
0.0
 10
7.120131346128093
 20
-4.700449915491561
 30
0.0
 10
7.165830178295552
 20
-4.512867387760656
 30
0.0
 10
7.233440037681792
 20
-4.235174832274542
 30
0.0
 10
7.249512775965385
 20
-4.169173637846602
 30
0.0
 10
7.422514998144372
 20
-3.952469304567426
 30
0.0
 10
7.447396226667759
 20
-3.92132608235301
 30
0.0
 10
7.470263281639927
 20
-3.887812193472506
 30
0.0
 10
7.490953887016169
 20
-3.852199276814739
 30
0.0
 10
7.628163083167124
 20
-3.824968360154857
 30
0.0
 10
7.878610604555453
 20
-3.766192054614015
 30
0.0
 10
7.948400831346207
 20
-3.689032499077738
 30
0.0
 10
7.993411546071081
 20
-3.639001554645799
 30
0.0
 10
8.010351934527785
 20
-3.570633221329555
 30
0.0
 10
7.993753740506795
 20
-3.506184249123444
 30
0.0
  0
SPLINE
  5
42
330
1F
100
AcDbEntity
  8
1
 62
    12
420
 13631511
370
     9
100
AcDbSpline
210
0.0
220
0.0
230
1.0
 70
    11
 71
     3
 72
    17
 73
    13
 74
     0
 42
0.0000000001
 43
0.0000000001
 12
1.0
 22
0.0
 32
0.0
 13
1.0
 23
0.0
 33
0.0
 40
0.0
 40
0.0
 40
0.0
 40
0.0
 40
1.0
 40
1.0
 40
1.0
 40
2.0
 40
2.0
 40
2.0
 40
3.0
 40
3.0
 40
3.0
 40
4.0
 40
4.0
 40
4.0
 40
4.0
 10
6.458344946345004
 20
-2.739890943759459
 30
0.0
 10
6.375498615125257
 20
-2.739890943759459
 30
0.0
 10
6.308347366838428
 20
-2.672736165998483
 30
0.0
 10
6.308347366838428
 20
-2.589889832685866
 30
0.0
 10
6.308347366838428
 20
-2.507050554928786
 30
0.0
 10
6.375498615125257
 20
-2.439892249390025
 30
0.0
 10
6.458344946345004
 20
-2.439892249390025
 30
0.0
 10
6.541180694231688
 20
-2.439892249390025
 30
0.0
 10
6.608346053629268
 20
-2.507050554928786
 30
0.0
 10
6.608346053629268
 20
-2.589889832685866
 30
0.0
 10
6.608346053629268
 20
-2.672736165998483
 30
0.0
 10
6.541180694231688
 20
-2.739890943759459
 30
0.0
 10
6.458344946345004
 20
-2.739890943759459
 30
0.0
  0
INSERT
  5
44
330
1F
100
AcDbEntity
  8
1
100
AcDbBlockReference
  2
block 2
 10
0.0
 20
0.0
 30
0.0
  0
SPLINE
  5
4D
330
1F
100
AcDbEntity
  8
1
370
     0
100
AcDbSpline
210
0.0
220
0.0
230
1.0
 70
    11
 71
     3
 72
    17
 73
    13
 74
     0
 42
0.0000000001
 43
0.0000000001
 12
1.0
 22
0.0
 32
0.0
 13
1.0
 23
0.0
 33
0.0
 40
0.0
 40
0.0
 40
0.0
 40
0.0
 40
1.0
 40
1.0
 40
1.0
 40
2.0
 40
2.0
 40
2.0
 40
3.0
 40
3.0
 40
3.0
 40
4.0
 40
4.0
 40
4.0
 40
4.0
 10
7.137742012345474
 20
-3.327840971390277
 30
0.0
 10
7.137742012345474
 20
-3.364960249158746
 30
0.0
 10
7.107643013113363
 20
-3.395062776929022
 30
0.0
 10
7.070513331565736
 20
-3.395062776929022
 30
0.0
 10
7.033383292785665
 20
-3.395062776929022
 30
0.0
 10
7.003291349108929
 20
-3.364960249158746
 30
0.0
 10
7.003291349108929
 20
-3.327840971390277
 30
0.0
 10
7.003291349108929
 20
-3.290700526955104
 30
0.0
 10
7.033383292785665
 20
-3.26060858251818
 30
0.0
 10
7.070513331565736
 20
-3.26060858251818
 30
0.0
 10
7.107643013113363
 20
-3.26060858251818
 30
0.0
 10
7.137742012345474
 20
-3.290700526955104
 30
0.0
 10
7.137742012345474
 20
-3.327840971390277
 30
0.0
  0
HATCH
  5
4E
330
1F
100
AcDbEntity
  8
1
 62
     7
420
 16777215
100
AcDbHatch
 10
0.0
 20
0.0
 30
0.0
210
0.0
220
0.0
230
1.0
  2
SOLID
 70
     1
 71
     0
 91
        7
 92
        1
 93
        1
 72
     4
 94
        3
 73
     0
 74
     1
 95
      200
 96
      196
 40
0.0
 40
0.0
 40
0.0
 40
0.0
 40
1.0
 40
1.0
 40
1.0
 40
2.0
 40
2.0
 40
2.0
 40
3.0
 40
3.0
 40
3.0
 40
4.0
 40
4.0
 40
4.0
 40
5.0
 40
5.0
 40
5.0
 40
6.0
 40
6.0
 40
6.0
 40
7.0
 40
7.0
 40
7.0
 40
8.0
 40
8.0
 40
8.0
 40
9.0
 40
9.0
 40
9.0
 40
10.0
 40
10.0
 40
10.0
 40
11.0
 40
11.0
 40
11.0
 40
12.0
 40
12.0
 40
12.0
 40
13.0
 40
13.0
 40
13.0
 40
14.0
 40
14.0
 40
14.0
 40
15.0
 40
15.0
 40
15.0
 40
16.0
 40
16.0
 40
16.0
 40
17.0
 40
17.0
 40
17.0
 40
18.0
 40
18.0
 40
18.0
 40
19.0
 40
19.0
 40
19.0
 40
20.0
 40
20.0
 40
20.0
 40
21.0
 40
21.0
 40
21.0
 40
22.0
 40
22.0
 40
22.0
 40
23.0
 40
23.0
 40
23.0
 40
24.0
 40
24.0
 40
24.0
 40
25.0
 40
25.0
 40
25.0
 40
26.0
 40
26.0
 40
26.0
 40
27.0
 40
27.0
 40
27.0
 40
28.0
 40
28.0
 40
28.0
 40
29.0
 40
29.0
 40
29.0
 40
30.0
 40
30.0
 40
30.0
 40
31.0
 40
31.0
 40
31.0
 40
32.0
 40
32.0
 40
32.0
 40
33.0
 40
33.0
 40
33.0
 40
34.0
 40
34.0
 40
34.0
 40
35.0
 40
35.0
 40
35.0
 40
36.0
 40
36.0
 40
36.0
 40
37.0
 40
37.0
 40
37.0
 40
38.0
 40
38.0
 40
38.0
 40
39.0
 40
39.0
 40
39.0
 40
40.0
 40
40.0
 40
40.0
 40
41.0
 40
41.0
 40
41.0
 40
42.0
 40
42.0
 40
42.0
 40
43.0
 40
43.0
 40
43.0
 40
44.0
 40
44.0
 40
44.0
 40
45.0
 40
45.0
 40
45.0
 40
46.0
 40
46.0
 40
46.0
 40
47.0
 40
47.0
 40
47.0
 40
48.0
 40
48.0
 40
48.0
 40
49.0
 40
49.0
 40
49.0
 40
50.0
 40
50.0
 40
50.0
 40
51.0
 40
51.0
 40
51.0
 40
52.0
 40
52.0
 40
52.0
 40
53.0
 40
53.0
 40
53.0
 40
54.0
 40
54.0
 40
54.0
 40
55.0
 40
55.0
 40
55.0
 40
56.0
 40
56.0
 40
56.0
 40
57.0
 40
57.0
 40
57.0
 40
58.0
 40
58.0
 40
58.0
 40
59.0
 40
59.0
 40
59.0
 40
60.0
 40
60.0
 40
60.0
 40
61.0
 40
61.0
 40
61.0
 40
62.0
 40
62.0
 40
62.0
 40
63.0
 40
63.0
 40
63.0
 40
64.0
 40
64.0
 40
64.0
 40
65.0
 40
65.0
 40
65.0
 40
65.0
 10
7.822585967095871
 20
-3.550270888001322
 10
7.812415384022011
 20
-3.511532360233223
 10
7.635059888546727
 20
-3.424293943588375
 10
7.433962449232705
 20
-3.384020832487334
 10
7.422525393968933
 20
-3.164981110319878
 10
7.29203995285345
 20
-3.000106888138871
 10
7.06466409754318
 20
-2.919130277048005
 10
6.849243880816786
 20
-2.842372888178307
 10
6.650252524782367
 20
-2.849816499287533
 10
6.473038140414594
 20
-2.941281193709117
 10
6.240649313009993
 20
-3.06128208256801
 10
6.041834345859963
 20
-3.329001610278849
 10
5.879397822226287
 20
-3.738269693509875
 10
5.801864324204331
 20
-3.572097249106976
 10
5.44692416530493
 20
-3.238888054745822
 10
5.065715898540597
 20
-3.114950165887939
 10
4.589190744031101
 20
-2.960024277037784
 10
4.287470501728626
 20
-2.598014304906064
 10
4.21615647577022
 20
-2.09554586058724
 10
4.21533097579128
 20
-2.089619193922035
 10
4.21153861477692
 20
-2.084556832812185
 10
4.206130531581558
 20
-2.082041527257272
 10
4.200722448386197
 20
-2.079526221702327
 10
4.194453587435018
 20
-2.07990369392448
 10
4.189320670899303
 20
-2.083075166145908
 10
4.090168951206651
 20
-2.145121721685938
 10
3.954846926881226
 20
-2.398920638289159
 10
4.005421147813193
 20
-2.680384388218799
 10
3.948334649269591
 20
-2.602215888238343
 10
3.868649206858091
 20
-2.5131253882606
 10
3.817111902617362
 20
-2.540754943809242
 10
3.7369537379957
 20
-2.583885554909573
 10
3.725791943513006
 20
-2.736712415982496
 10
3.784106110165071
 20
-2.97340866592332
 10
3.480050471352214
 20
-2.66286544377872
 10
3.269876054738094
 20
-2.367784471630279
 10
3.204262915865594
 20
-2.226045416110139
 10
3.201645304755137
 20
-2.220397443889359
 10
3.196201943645382
 20
-2.216538055001426
 10
3.1900001103136
 20
-2.215917166112687
 10
3.18386883253737
 20
-2.215158693890661
 10
3.177702276983363
 20
-2.217984443889959
 10
3.174015749206494
 20
-2.223015054999817
 10
3.048165804793515
 20
-2.394648499401327
 10
3.02267055479988
 20
-2.691891999327016
 10
3.109041138111622
 20
-2.980245499254945
 10
3.182076721426707
 20
-3.224089026971745
 10
3.319984610281121
 20
-3.409057471369944
 10
3.492789276904588
 20
-3.498214999125455
 10
3.340170554720505
 20
-3.526638304673901
 10
3.2336845825249
 20
-3.624375387982787
 10
3.226036360304616
 20
-3.750123026840253
 10
3.21873386030643
 20
-3.869802887921442
 10
3.308339415839583
 20
-4.024764054549373
 10
3.574404325476015
 20
-4.099387137864032
 10
3.471396832465471
 20
-4.124155665635633
 10
3.412140749146963
 20
-4.184343082287232
 10
3.411417554702712
 20
-4.269747054488106
 10
3.409900610258627
 20
-4.450097637776376
 10
3.66483890650217
 20
-4.668791637721703
 10
4.002045064565991
 20
-4.696488221048114
 10
3.936827038452063
 20
-4.774522665473033
 10
3.887734484148963
 20
-4.885831109889656
 10
3.937895955091459
 20
-4.979366609866263
 10
3.951442621412522
 20
-5.004618443193282
 10
3.973120815303909
 20
-5.029605693187043
 10
4.006737008890734
 20
-5.051223915403889
 10
3.939024843951548
 20
-5.078532443174795
 10
3.77452809814821
 20
-5.144921693158208
 10
3.691089100276916
 20
-5.178735443149777
 10
3.389506526930402
 20
-5.153758776489336
 10
2.340990999414751
 20
-5.264344026461708
 10
2.212248277224706
 20
-5.491719887515954
 10
2.156505860571971
 20
-5.59014841526913
 10
2.176282582789273
 20
-5.656706998585793
 10
2.202705638338216
 20
-5.695187998576171
 10
2.259894443879485
 20
-5.778626998555318
 10
2.407034527176004
 20
-5.816557665212541
 10
2.614291471568634
 20
-5.803709498549087
 10
2.489337582711002
 20
-5.858622887424244
 10
2.414785054951863
 20
-5.921117470741915
 10
2.392115554957526
 20
-5.990261915169107
 10
2.37527041607285
 20
-6.041559331822915
 10
2.386809777181091
 20
-6.095301498476148
 10
2.426359693837849
 20
-6.149939720684727
 10
2.532641054922398
 20
-6.29666705398138
 10
2.85551738817501
 20
-6.268660026210584
 10
3.122753610330431
 20
-6.151319081795492
 10
3.073936221453728
 20
-6.215051915112888
 10
3.010891304802838
 20
-6.314478803976924
 10
3.021534610355732
 20
-6.391751248402033
 10
3.026290054798981
 20
-6.426168248393484
 10
3.044514554794422
 20
-6.453109887275621
 10
3.07572833256439
 20
-6.471817692826511
 10
3.21680416586248
 20
-6.556494942805319
 10
3.451828249137041
 20
-6.388339887291773
 10
3.608338019054738
 20
-6.237619109551681
 10
3.584462019663866
 20
-6.300286553980482
 10
3.562967270212243
 20
-6.381555970626844
 10
3.582705276882094
 20
-6.438328498390432
 10
3.592455963904368
 20
-6.466406081716716
 10
3.611026185652825
 20
-6.486387415045044
 10
3.637826712746864
 20
-6.497757442819973
 10
3.649369601341269
 20
-6.502615192818798
 10
3.662598767670432
 20
-6.505028192818199
 10
3.67730960062846
 20
-6.505028192818199
 10
3.714859266337155
 20
-6.505028192818199
 10
3.761955098468974
 20
-6.489283720599927
 10
3.814250874912575
 20
-6.458690831718664
 10
3.996255981380349
 20
-6.352307165078572
 10
4.196520865160055
 20
-6.102776859585398
 10
4.238480252978471
 20
-5.824622165210538
 10
4.567142133482497
 20
-6.012843220719036
 10
5.256730949222954
 20
-6.173219526234482
 10
5.838091073280109
 20
-6.060789248484816
 10
5.843044073153748
 20
-6.130357026245193
 10
5.818744740440343
 20
-6.195296359562289
 10
5.79234638000271
 20
-6.236310303996468
 10
5.774252408242103
 20
-6.241718387328448
 10
5.756207825369126
 20
-6.247807331771366
 10
5.738336103602849
 20
-6.255395581769513
 10
5.475234443648465
 20
-6.36694744285272
 10
5.352760585661922
 20
-6.57017213724632
 10
5.307873142362652
 20
-6.66515402611146
 10
5.267977504491586
 20
-6.560012137248908
 10
5.144473535420212
 20
-6.303419220646349
 10
4.875893236716711
 20
-6.255085137325096
 10
4.703808241106965
 20
-6.224150053999521
 10
4.531074134402668
 20
-6.280061803985537
 10
4.413560331845139
 20
-6.40487810950988
 10
4.303179695772295
 20
-6.522081470591684
 10
4.262010530155941
 20
-6.680556303885419
 10
4.300629112504033
 20
-6.839581470512309
 10
4.380279277138654
 20
-7.167484887097027
 10
4.698227296804902
 20
-7.692587553632412
 10
4.859665459352938
 20
-7.812888303602306
 10
4.933392485249783
 20
-7.891229664693826
 10
4.999365455788894
 20
-7.919688248020081
 10
5.084458981395755
 20
-7.919688248020081
 10
5.139993257756736
 20
-7.919688248020081
 10
5.203694339464919
 20
-7.907559748023093
 10
5.282998781886138
 20
-7.889232942472107
 10
5.296711387564712
 20
-7.886199053584001
 10
5.31093878117333
 20
-7.882822970251516
 10
5.325822475238059
 20
-7.879274025807968
 10
5.325822475238059
 20
-7.879274025807968
 10
5.356415363346459
 20
-7.871971525809782
 10
5.356415363346459
 20
-7.871971525809782
 10
5.401577973305375
 20
-7.861807998034553
 10
5.443851333338004
 20
-7.85140458137046
 10
5.48557083227365
 20
-7.84014038692886
 10
5.529117720051565
 20
-7.82856222026509
 10
5.565979469111144
 20
-7.817985942489933
 10
5.600946943044201
 20
-7.807067470270462
 10
5.602911773724478
 20
-7.806961636937133
 10
5.604979051449515
 20
-7.806446581381691
 10
5.607078079173743
 20
-7.805377664715343
 10
6.35800805396608
 20
-7.579585775882887
 10
6.554032388348259
 20
-7.097754831558905
 10
6.493742667664155
 20
-6.753796498311561
 10
6.493742667664155
 20
-6.753761220533786
 10
6.493742667664155
 20
-6.753761220533786
 10
6.493742667664155
 20
-6.753761220533786
 10
6.474244640383813
 20
-6.643140692783637
 10
6.429699391520257
 20
-6.53841155392095
 10
6.364964670949555
 20
-6.450905026165061
 10
6.364964670949555
 20
-6.450905026165061
 10
6.364932920950365
 20
-6.450940303942837
 10
6.364932920950365
 20
-6.450940303942837
 10
6.364516643183208
 20
-6.450421720609643
 10
6.364103893193738
 20
-6.449906665054201
 10
6.363655865427391
 20
-6.449388081721008
 10
6.297460644893949
 20
-6.360022415076688
 10
6.215570341427589
 20
-6.295100720648479
 10
6.12642692703516
 20
-6.256531526213661
 10
6.173494536945476
 20
-6.185563220675815
 10
6.177001147967126
 20
-6.048981776265501
 10
6.151301287511673
 20
-5.967031498508264
 10
6.452746363154502
 20
-5.838736804095861
 10
6.654877441331042
 20
-5.622099498594453
 10
6.752642744392397
 20
-5.322220748669419
 10
6.887897740941755
 20
-4.907258832106517
 10
6.949288128264445
 20
-4.655149721058446
 10
6.994108543787647
 20
-4.471077332215563
 10
7.063630458680662
 20
-4.185616610064701
 10
7.08702333156157
 20
-4.08942822119986
 10
7.284497564156983
 20
-3.842071026817254
 10
7.319436674376724
 20
-3.798337165717074
 10
7.349299312503753
 20
-3.748503776840656
 10
7.37351750633034
 20
-3.694052526854277
 10
7.478490059207823
 20
-3.678057582413819
 10
7.786634384679739
 20
-3.604394054654459
 10
7.817005022793809
 20
-3.570806082440619
 10
7.82241310598917
 20
-3.564808860219894
 10
7.82444510593733
 20
-3.557298221332899
 10
7.822585967095871
 20
-3.550270888001322
 97
        0
 97
        0
 92
        1
 93
        1
 72
     4
 94
        3
 73
     0
 74
     1
 95
       41
 96
       37
 40
0.0
 40
0.0
 40
0.0
 40
0.0
 40
1.0
 40
1.0
 40
1.0
 40
2.0
 40
2.0
 40
2.0
 40
3.0
 40
3.0
 40
3.0
 40
4.0
 40
4.0
 40
4.0
 40
5.0
 40
5.0
 40
5.0
 40
6.0
 40
6.0
 40
6.0
 40
7.0
 40
7.0
 40
7.0
 40
8.0
 40
8.0
 40
8.0
 40
9.0
 40
9.0
 40
9.0
 40
10.0
 40
10.0
 40
10.0
 40
11.0
 40
11.0
 40
11.0
 40
12.0
 40
12.0
 40
12.0
 40
12.0
 10
3.83385473552355
 20
-2.571831138245922
 10
3.864172456972303
 20
-2.5556033604722
 10
3.961323926715985
 20
-2.668947332666102
 10
4.033361147100384
 20
-2.785152332637046
 10
4.038077785868942
 20
-2.792765277079585
 10
4.047863841174834
 20
-2.795555749301107
 10
4.055889535414526
 20
-2.791798665968718
 10
4.064021062984851
 20
-2.787942804858567
 10
4.067947479551346
 20
-2.77864005486091
 10
4.065019424070492
 20
-2.770131054863024
 10
3.967663343220919
 20
-2.485735721600789
 10
4.094374165643062
 20
-2.215331555001725
 10
4.1857717265454
 20
-2.130446166134045
 10
4.266660141148431
 20
-2.631397666008815
 10
4.574307049966371
 20
-2.992268165918603
 10
5.054829176596119
 20
-3.148506388101755
 10
5.455563555261422
 20
-3.278797804735845
 10
5.840070156562953
 20
-3.657483582418962
 10
5.859261267184458
 20
-3.788258304608502
 10
5.859310656072086
 20
-3.788611082386167
 10
5.859518794955665
 20
-3.788886249052776
 10
5.859585822731733
 20
-3.789231971274905
 10
5.818462518225321
 20
-3.897820499025558
 10
5.779678130325903
 20
-4.015514221218348
 10
5.743486659027003
 20
-4.142898748964268
 10
5.587657663002532
 20
-4.027519248993118
 10
5.3952422208734
 20
-3.968298443452355
 10
5.215646450271106
 20
-3.913145165688365
 10
5.100961925419174
 20
-3.877899137919399
 10
4.99264503929368
 20
-3.84465688792772
 10
4.897493819498967
 20
-3.799388443494598
 10
4.491393690970556
 20
-3.606175582431802
 10
4.123577005909897
 20
-3.311320388061058
 10
3.833611318863094
 20
-3.023361999244171
 10
3.732180654784139
 20
-2.659214193779627
 10
3.808094999047973
 20
-2.585688249353587
 10
3.83385473552355
 20
-2.571831138245922
 97
        0
 97
        0
 92
        1
 93
        1
 72
     4
 94
        3
 73
     0
 74
     1
 95
      179
 96
      175
 40
0.0
 40
0.0
 40
0.0
 40
0.0
 40
1.0
 40
1.0
 40
1.0
 40
2.0
 40
2.0
 40
2.0
 40
3.0
 40
3.0
 40
3.0
 40
4.0
 40
4.0
 40
4.0
 40
5.0
 40
5.0
 40
5.0
 40
6.0
 40
6.0
 40
6.0
 40
7.0
 40
7.0
 40
7.0
 40
8.0
 40
8.0
 40
8.0
 40
9.0
 40
9.0
 40
9.0
 40
10.0
 40
10.0
 40
10.0
 40
11.0
 40
11.0
 40
11.0
 40
12.0
 40
12.0
 40
12.0
 40
13.0
 40
13.0
 40
13.0
 40
14.0
 40
14.0
 40
14.0
 40
15.0
 40
15.0
 40
15.0
 40
16.0
 40
16.0
 40
16.0
 40
17.0
 40
17.0
 40
17.0
 40
18.0
 40
18.0
 40
18.0
 40
19.0
 40
19.0
 40
19.0
 40
20.0
 40
20.0
 40
20.0
 40
21.0
 40
21.0
 40
21.0
 40
22.0
 40
22.0
 40
22.0
 40
23.0
 40
23.0
 40
23.0
 40
24.0
 40
24.0
 40
24.0
 40
25.0
 40
25.0
 40
25.0
 40
26.0
 40
26.0
 40
26.0
 40
27.0
 40
27.0
 40
27.0
 40
28.0
 40
28.0
 40
28.0
 40
29.0
 40
29.0
 40
29.0
 40
30.0
 40
30.0
 40
30.0
 40
31.0
 40
31.0
 40
31.0
 40
32.0
 40
32.0
 40
32.0
 40
33.0
 40
33.0
 40
33.0
 40
34.0
 40
34.0
 40
34.0
 40
35.0
 40
35.0
 40
35.0
 40
36.0
 40
36.0
 40
36.0
 40
37.0
 40
37.0
 40
37.0
 40
38.0
 40
38.0
 40
38.0
 40
39.0
 40
39.0
 40
39.0
 40
40.0
 40
40.0
 40
40.0
 40
41.0
 40
41.0
 40
41.0
 40
42.0
 40
42.0
 40
42.0
 40
43.0
 40
43.0
 40
43.0
 40
44.0
 40
44.0
 40
44.0
 40
45.0
 40
45.0
 40
45.0
 40
46.0
 40
46.0
 40
46.0
 40
47.0
 40
47.0
 40
47.0
 40
48.0
 40
48.0
 40
48.0
 40
49.0
 40
49.0
 40
49.0
 40
50.0
 40
50.0
 40
50.0
 40
51.0
 40
51.0
 40
51.0
 40
52.0
 40
52.0
 40
52.0
 40
53.0
 40
53.0
 40
53.0
 40
54.0
 40
54.0
 40
54.0
 40
55.0
 40
55.0
 40
55.0
 40
56.0
 40
56.0
 40
56.0
 40
57.0
 40
57.0
 40
57.0
 40
58.0
 40
58.0
 40
58.0
 40
58.0
 10
6.336061588353601
 20
-6.471436692826606
 10
6.336509616119949
 20
-6.472057581715313
 10
6.337024671662364
 20
-6.472643192826307
 10
6.337543254982467
 20
-6.473193526159461
 10
6.398556170092565
 20
-6.55605044280543
 10
6.440515557910981
 20
-6.65512808166952
 10
6.459015224105682
 20
-6.759860748310023
 10
6.516620305969386
 20
-7.088593192672288
 10
6.326966977474513
 20
-7.549511470334819
 10
5.600879773776319
 20
-7.770720775835091
 10
5.599327551593697
 20
-7.770787803612827
 10
5.597810607187953
 20
-7.771066498057221
 10
5.596297190559897
 20
-7.771546275834886
 10
5.560088080372557
 20
-7.782986859165367
 10
5.522019831343759
 20
-7.793940609162615
 10
5.476476221394562
 20
-7.806065581381786
 10
5.435169472448385
 20
-7.817195720267914
 10
5.393344140182105
 20
-7.827496831376431
 10
5.348008669116487
 20
-7.837797942485011
 10
5.348008669116487
 20
-7.837797942485011
 10
5.317655669890857
 20
-7.844962859149845
 10
5.317655669890857
 20
-7.844962859149845
 10
5.302980114709706
 20
-7.848441248037905
 10
5.288925448401603
 20
-7.851817331370389
 10
5.275248254306093
 20
-7.85481594248072
 10
5.079911675956211
 20
-7.899946803580554
 10
4.995678928105168
 20
-7.905940498023527
 10
4.883058153200585
 20
-7.786669859164452
 10
4.723514407270885
 20
-7.66746977586093
 10
4.413112304078791
 20
-7.153222081545032
 10
4.334943806073036
 20
-6.831241803847734
 10
4.299147445875166
 20
-6.684034692773416
 10
4.337183944904774
 20
-6.53744494281005
 10
4.439224914523715
 20
-6.429061026170487
 10
4.528661134464229
 20
-6.334082665083162
 10
4.652616659079637
 20
-6.28199149842952
 10
4.782495322432823
 20
-6.28199149842952
 10
4.81133137725271
 20
-6.28199149842952
 10
4.840509626508311
 20
-6.284573831762169
 10
4.869620847987844
 20
-6.2898125817609
 10
5.185226423269408
 20
-6.346588637302239
 10
5.28799411509203
 20
-6.715523637210024
 10
5.289027753954548
 20
-6.719241914986886
 10
5.290301281699836
 20
-6.724032637207911
 10
5.293575059394093
 20
-6.728061359429126
 10
5.297984781503814
 20
-6.730336776095173
 10
5.302429781390412
 20
-6.73264394276131
 10
5.307633253479883
 20
-6.732919109427887
 10
5.312247586695495
 20
-6.731162276094969
 10
5.316794892135039
 20
-6.729475998317603
 10
5.320894169808235
 20
-6.725408470540859
 10
5.322788586426571
 20
-6.720931720542004
 10
5.323032003087028
 20
-6.720310831653234
 10
5.324305530832316
 20
-6.716832442765237
 10
5.324478391939016
 20
-6.716211553876531
 10
5.324478391939016
 20
-6.716211553876531
 10
5.327335891866116
 20
-6.708252887211798
 10
5.327335891866116
 20
-6.708252887211798
 10
5.355106557824294
 20
-6.640110331673283
 10
5.467829638281821
 20
-6.408391776175653
 10
5.752119131028993
 20
-6.287847609539141
 10
5.752937575452557
 20
-6.287501887317012
 10
5.753763075431496
 20
-6.287261998428211
 10
5.754581665227999
 20
-6.286916276206018
 10
5.724627159508149
 20
-6.384670998403823
 10
5.672871133050777
 20
-6.404034970621197
 10
5.638362411708946
 20
-6.416660887284738
 10
5.630816495234791
 20
-6.419416081728452
 10
5.624166634293332
 20
-6.421931387283429
 10
5.618687995544215
 20
-6.424619553949407
 10
5.609974384655407
 20
-6.428923442837198
 10
5.606390162524626
 20
-6.439499720612356
 10
5.610697579081402
 20
-6.448252137276795
 10
5.613763217892079
 20
-6.454453970608609
 10
5.620032220817246
 20
-6.458069942829894
 10
5.626509078678017
 20
-6.458069942829894
 10
5.629161967499225
 20
-6.458069942829894
 10
5.63181499859204
 20
-6.457484331718964
 10
5.634330161811817
 20
-6.45624608171924
 10
5.638806911697606
 20
-6.45404122060868
 10
5.6443208282236
 20
-6.452076248386985
 10
5.650487383621834
 20
-6.449800831720873
 10
5.684879688299969
 20
-6.437217248390676
 10
5.739560242460508
 20
-6.417158303951292
 10
5.775878713756168
 20
-6.332092998416948
 10
5.789273685636656
 20
-6.376066748405993
 10
5.788695276330602
 20
-6.438631887279217
 10
5.762247380770599
 20
-6.500685498374815
 10
5.758423269757049
 20
-6.509642526150343
 10
5.76258972078158
 20
-6.520014192814412
 10
5.771546602755579
 20
-6.523838303924602
 10
5.773822019364195
 20
-6.524801387257686
 10
5.776164463748878
 20
-6.525249415035327
 10
5.778471630356684
 20
-6.525249415035327
 10
5.785329630181722
 20
-6.525249415035327
 10
5.79183838001567
 20
-6.521217165036361
 10
5.794699407720457
 20
-6.514535553926945
 10
5.821433054100191
 20
-6.451741109498176
 10
5.826325934691375
 20
-6.381432498404628
 10
5.810726101756027
 20
-6.326201609529551
 10
5.855246656175768
 20
-6.357972776188304
 10
5.876184165197603
 20
-6.403957359510141
 10
5.886682683151546
 20
-6.486835442822749
 10
5.88781862756701
 20
-6.495760720598254
 10
5.895399821818041
 20
-6.502269470596669
 10
5.904148710483728
 20
-6.502269470596669
 10
5.9049071826866
 20
-6.502269470596669
 10
5.905665654889471
 20
-6.502237720596645
 10
5.906388849315466
 20
-6.50213188726338
 10
5.916069071290726
 20
-6.500893637263656
 10
5.922927220741498
 20
-6.492074192821416
 10
5.921685293369666
 20
-6.48242572060163
 10
5.908043377051033
 20
-6.374906109517389
 10
5.874970461228127
 20
-6.318190026198217
 10
5.803328351944758
 20
-6.280527470652067
 10
5.806887879631725
 20
-6.276308248430899
 10
5.810450935096379
 20
-6.271700970654323
 10
5.814042212782536
 20
-6.266695053988889
 10
5.900814960568779
 20
-6.242811998439316
 10
5.988296942947348
 20
-6.244801665105467
 10
6.070617484014534
 20
-6.27143285954325
 10
6.040800706997445
 20
-6.370503442851837
 10
5.988656624994418
 20
-6.389849776180323
 10
5.953964459212822
 20
-6.402535665066032
 10
5.946422220735598
 20
-6.40529085950981
 10
5.939772209574897
 20
-6.407806165064723
 10
5.93429357082578
 20
-6.4104943317307
 10
5.925579959936972
 20
-6.414798220618492
 10
5.92199573780619
 20
-6.425378026171401
 10
5.926303154362966
 20
-6.434126915058153
 10
5.929368793173643
 20
-6.440328748389903
 10
5.935637654124823
 20
-6.443944720611252
 10
5.942114653959581
 20
-6.443944720611252
 10
5.944767542780789
 20
-6.443944720611252
 10
5.947420431601997
 20
-6.443359109500258
 10
5.949935737093381
 20
-6.442120859500598
 10
5.95441248697917
 20
-6.439915998390037
 10
5.959926403505165
 20
-6.437951026168278
 10
5.966092958903398
 20
-6.435675609502166
 10
6.00047468024847
 20
-6.423102609505353
 10
6.055155234409009
 20
-6.403043665065906
 10
6.091477233482357
 20
-6.317974831753808
 10
6.104868677585157
 20
-6.361927415076214
 10
6.104276010933611
 20
-6.424489026171686
 10
6.077852956052164
 20
-6.486560276156109
 10
6.074028845038614
 20
-6.495552581709413
 10
6.078195150487878
 20
-6.50588897059577
 10
6.087152178037143
 20
-6.509713081705895
 10
6.089427594645759
 20
-6.510676165038979
 10
6.091770039030442
 20
-6.511124192816685
 10
6.094077205638248
 20
-6.511124192816685
 10
6.100935205463286
 20
-6.511124192816685
 10
6.107443955297234
 20
-6.50709547059547
 10
6.110304983002021
 20
-6.500410331708238
 10
6.137045537875368
 20
-6.437587665057261
 10
6.1419138710845
 20
-6.367282581741529
 10
6.126314038149151
 20
-6.312083442866411
 10
6.170852231457332
 20
-6.343829915080709
 10
6.191789592034286
 20
-6.389796859513658
 10
6.20228825843311
 20
-6.472710220604043
 10
6.203424202848574
 20
-6.481635498379611
 10
6.211005554002786
 20
-6.488144248377962
 10
6.219754442889537
 20
-6.488144248377962
 10
6.220512757968164
 20
-6.488144248377962
 10
6.221271387333591
 20
-6.488112498378002
 10
6.22199442459703
 20
-6.488006665044674
 10
6.23167464657229
 20
-6.486768415044949
 10
6.238529118619639
 20
-6.47794897060271
 10
6.23729086865123
 20
-6.468300498382924
 10
6.22996014661603
 20
-6.410543720619613
 10
6.217136674720962
 20
-6.367420165074818
 10
6.195768925266099
 20
-6.333994470638722
 10
6.246988887327139
 20
-6.369307526185457
 10
6.294479672747777
 20
-6.415048692840676
 10
6.336061588353601
 20
-6.471436692826606
 97
        0
 97
        0
 92
        1
 93
        1
 72
     4
 94
        3
 73
     0
 74
     1
 95
       20
 96
       16
 40
0.0
 40
0.0
 40
0.0
 40
0.0
 40
1.0
 40
1.0
 40
1.0
 40
2.0
 40
2.0
 40
2.0
 40
3.0
 40
3.0
 40
3.0
 40
4.0
 40
4.0
 40
4.0
 40
5.0
 40
5.0
 40
5.0
 40
5.0
 10
6.092578054032393
 20
-6.243390553994677
 10
6.011146207753995
 20
-6.214854359557368
 10
5.924750932180344
 20
-6.208059859559119
 10
5.839089434365751
 20
-6.224827387332708
 10
5.86212935044462
 20
-6.178518248455381
 10
5.878985072236817
 20
-6.117745220692788
 10
5.873280655715682
 20
-6.053479692931061
 10
5.94755801493182
 20
-6.037562359601725
 10
6.01999034641725
 20
-6.017295276273436
 10
6.089357039092003
 20
-5.991637748502121
 10
6.099280831808514
 20
-5.987968859614107
 10
6.108770554028371
 20
-5.983911915170685
 10
6.118503538348414
 20
-5.980063109616103
 10
6.14332498215961
 20
-6.060902137373648
 10
6.1349006490412
 20
-6.18992002623027
 10
6.092578054032393
 20
-6.243390553994677
 97
        0
 97
        0
 92
        1
 93
        1
 72
     4
 94
        3
 73
     0
 74
     1
 95
      218
 96
      214
 40
0.0
 40
0.0
 40
0.0
 40
0.0
 40
1.0
 40
1.0
 40
1.0
 40
2.0
 40
2.0
 40
2.0
 40
3.0
 40
3.0
 40
3.0
 40
4.0
 40
4.0
 40
4.0
 40
5.0
 40
5.0
 40
5.0
 40
6.0
 40
6.0
 40
6.0
 40
7.0
 40
7.0
 40
7.0
 40
8.0
 40
8.0
 40
8.0
 40
9.0
 40
9.0
 40
9.0
 40
10.0
 40
10.0
 40
10.0
 40
11.0
 40
11.0
 40
11.0
 40
12.0
 40
12.0
 40
12.0
 40
13.0
 40
13.0
 40
13.0
 40
14.0
 40
14.0
 40
14.0
 40
15.0
 40
15.0
 40
15.0
 40
16.0
 40
16.0
 40
16.0
 40
17.0
 40
17.0
 40
17.0
 40
18.0
 40
18.0
 40
18.0
 40
19.0
 40
19.0
 40
19.0
 40
20.0
 40
20.0
 40
20.0
 40
21.0
 40
21.0
 40
21.0
 40
22.0
 40
22.0
 40
22.0
 40
23.0
 40
23.0
 40
23.0
 40
24.0
 40
24.0
 40
24.0
 40
25.0
 40
25.0
 40
25.0
 40
26.0
 40
26.0
 40
26.0
 40
27.0
 40
27.0
 40
27.0
 40
28.0
 40
28.0
 40
28.0
 40
29.0
 40
29.0
 40
29.0
 40
30.0
 40
30.0
 40
30.0
 40
31.0
 40
31.0
 40
31.0
 40
32.0
 40
32.0
 40
32.0
 40
33.0
 40
33.0
 40
33.0
 40
34.0
 40
34.0
 40
34.0
 40
35.0
 40
35.0
 40
35.0
 40
36.0
 40
36.0
 40
36.0
 40
37.0
 40
37.0
 40
37.0
 40
38.0
 40
38.0
 40
38.0
 40
39.0
 40
39.0
 40
39.0
 40
40.0
 40
40.0
 40
40.0
 40
41.0
 40
41.0
 40
41.0
 40
42.0
 40
42.0
 40
42.0
 40
43.0
 40
43.0
 40
43.0
 40
44.0
 40
44.0
 40
44.0
 40
45.0
 40
45.0
 40
45.0
 40
46.0
 40
46.0
 40
46.0
 40
47.0
 40
47.0
 40
47.0
 40
48.0
 40
48.0
 40
48.0
 40
49.0
 40
49.0
 40
49.0
 40
50.0
 40
50.0
 40
50.0
 40
51.0
 40
51.0
 40
51.0
 40
52.0
 40
52.0
 40
52.0
 40
53.0
 40
53.0
 40
53.0
 40
54.0
 40
54.0
 40
54.0
 40
55.0
 40
55.0
 40
55.0
 40
56.0
 40
56.0
 40
56.0
 40
57.0
 40
57.0
 40
57.0
 40
58.0
 40
58.0
 40
58.0
 40
59.0
 40
59.0
 40
59.0
 40
60.0
 40
60.0
 40
60.0
 40
61.0
 40
61.0
 40
61.0
 40
62.0
 40
62.0
 40
62.0
 40
63.0
 40
63.0
 40
63.0
 40
64.0
 40
64.0
 40
64.0
 40
65.0
 40
65.0
 40
65.0
 40
66.0
 40
66.0
 40
66.0
 40
67.0
 40
67.0
 40
67.0
 40
68.0
 40
68.0
 40
68.0
 40
69.0
 40
69.0
 40
69.0
 40
70.0
 40
70.0
 40
70.0
 40
71.0
 40
71.0
 40
71.0
 40
71.0
 10
7.256935037082385
 20
-3.820092971267208
 10
7.054606403355329
 20
-4.073514415648275
 10
7.030730403964457
 20
-4.171593693401539
 10
6.959829127995521
 20
-4.462741193328773
 10
6.915146295802142
 20
-4.646259721060654
 10
6.853928769586153
 20
-4.897613887664482
 10
6.719086523026266
 20
-5.311266998672171
 10
6.618319081152612
 20
-5.620497887483775
 10
6.402309725552359
 20
-5.838264081873763
 10
6.077129761626169
 20
-5.958533081843698
 10
6.009886942941986
 20
-5.983403915170811
 10
5.939712237354205
 20
-6.003092442943673
 10
5.867770266967375
 20
-6.018649942939809
 10
5.860619461594252
 20
-5.986300220725629
 10
5.847513767484161
 20
-5.953611831844952
 10
5.82560274026538
 20
-5.921911220741751
 10
5.820053545962508
 20
-5.913850248521506
 10
5.809064518465084
 20
-5.911849998522034
 10
5.80107410200227
 20
-5.917430942965079
 10
5.793044879984889
 20
-5.922944859630387
 10
5.791048157813607
 20
-5.933933887405409
 10
5.796593824338792
 20
-5.941959581847814
 10
5.815523879411402
 20
-5.969366887396545
 10
5.826901109654402
 20
-5.997804304056094
 10
5.833095740074218
 20
-6.026065331826827
 10
5.246705005034292
 20
-6.140545248464877
 10
4.547464189540078
 20
-5.971959804062577
 10
4.23365778087928
 20
-5.780831859665877
 10
4.228560142120442
 20
-5.777663915222234
 10
4.222114998944464
 20
-5.777388748555657
 10
4.216742086866391
 20
-5.780041637443858
 10
4.21133400367103
 20
-5.782694526332124
 10
4.207647475987303
 20
-5.787929748553039
 10
4.206959559338186
 20
-5.793891692995988
 10
4.171886393566311
 20
-6.103775220696257
 10
3.942270399424303
 20
-6.343039692858691
 10
3.796474403143868
 20
-6.428235526170692
 10
3.73446312694813
 20
-6.464546942828286
 10
3.681719322738181
 20
-6.478051276158286
 10
3.651574462396129
 20
-6.465234859494792
 10
3.634108435063947
 20
-6.45786533171887
 10
3.622463332427724
 20
-6.445253526166464
 10
3.616056796635594
 20
-6.42678913728219
 10
3.585428630750317
 20
-6.338732276193083
 10
3.680512822768962
 20
-6.163549887347992
 10
3.681475906077725
 20
-6.161793054015138
 10
3.685748044857622
 20
-6.153971970683758
 10
3.683543183802762
 20
-6.144154165130659
 10
3.676275961765942
 20
-6.13898597068748
 10
3.669005211951434
 20
-6.133715470688789
 10
3.658982795540461
 20
-6.134816137355161
 10
3.65298557347124
 20
-6.141395442909064
 10
3.472222332465266
 20
-6.339077998415212
 10
3.220109693639411
 20
-6.517290748370659
 10
3.093846999226535
 20
-6.441566998389628
 10
3.071971249232001
 20
-6.428443665059532
 10
3.059740443679501
 20
-6.410561359508501
 10
3.056501943680305
 20
-6.386964053958824
 10
3.042101554795022
 20
-6.28257710954045
 10
3.200093082533308
 20
-6.113765887360421
 10
3.201680582532913
 20
-6.112044331805343
 10
3.207603721420334
 20
-6.105775470695793
 10
3.208122304753529
 20
-6.096162276253718
 10
3.202918832532606
 20
-6.089307804033238
 10
3.197648332533915
 20
-6.082382776257205
 10
3.188176249202945
 20
-6.080280220702158
 10
3.18066561031595
 20
-6.0843477484789
 10
2.888004693722446
 20
-6.238102415107162
 10
2.548935860473888
 20
-6.25908210954635
 10
2.454955860497359
 20
-6.129270470689893
 10
2.421914693838953
 20
-6.083656304034641
 10
2.412340304952471
 20
-6.041763942934003
 10
2.425636499393598
 20
-6.001250942944131
 10
2.451304610498298
 20
-5.923011887408123
 10
2.565784527136316
 20
-5.849323665204339
 10
2.756746665977488
 20
-5.788173165219591
 10
2.765495554864175
 20
-5.785347415220325
 10
2.770628471529578
 20
-5.776319831889245
 10
2.768561193752306
 20
-5.767362804113717
 10
2.766458638197259
 20
-5.758405776338189
 10
2.757745027088347
 20
-5.752309776339703
 10
2.748787999312787
 20
-5.753925498561517
 10
2.485651054934133
 20
-5.792822776329576
 10
2.292311193871369
 20
-5.763503415225816
 10
2.231781582775392
 20
-5.675241943025619
 10
2.194263666118098
 20
-5.620533165261551
 10
2.217141305001276
 20
-5.554697776389108
 10
2.242978749439256
 20
-5.509083609733856
 10
2.358044277188268
 20
-5.305925943117993
 10
3.369077165824401
 20
-5.185244193148129
 10
3.69219329469319
 20
-5.214253109807537
 10
3.695188377950112
 20
-5.214528276474113
 10
3.697805988994443
 20
-5.214080248696471
 10
3.700391943519347
 20
-5.21301133203006
 10
3.798076110161601
 20
-5.17342966537331
 10
4.018943119690441
 20
-5.084328582062247
 10
4.047331146743979
 20
-5.072884470954015
 10
4.157203887849575
 20
-5.12132085983078
 10
4.356001111091375
 20
-5.139898137603886
 10
4.71114601869754
 20
-5.07503641539791
 10
4.654408887725276
 20
-5.156101220933184
 10
4.644657992616013
 20
-5.232752776469587
 10
4.684310213826623
 20
-5.29411141534311
 10
4.736433129163523
 20
-5.374759943100767
 10
4.863076943228663
 20
-5.417065054201271
 10
5.024169260711652
 20
-5.417065054201271
 10
5.128348063609384
 20
-5.417065054201271
 10
5.246927255028622
 20
-5.399359137539055
 10
5.369058918579451
 20
-5.362874859770397
 10
5.378393418341307
 20
-5.360084387548842
 10
5.383699195983723
 20
-5.350231304217967
 10
5.380908723832692
 20
-5.340893276442534
 10
5.378118251681661
 20
-5.331594054222628
 10
5.36847330748328
 20
-5.326323554224002
 10
5.358930668837844
 20
-5.329043470889939
 10
5.026889177308928
 20
-5.428332776420687
 10
4.778808794749096
 20
-5.375243248656185
 10
4.71394001862626
 20
-5.274955582014578
 10
4.667189908707843
 20
-5.202643193143807
 10
4.71714324076676
 20
-5.118445720942601
 10
4.76726943393238
 20
-5.060533720957114
 10
4.772194211584515
 20
-5.054846943180742
 10
4.772987961564265
 20
-5.046648387627208
 10
4.769199128327593
 20
-5.040139637628857
 10
4.765406767313233
 20
-5.033662637630465
 10
4.758104267499536
 20
-5.03007841540914
 10
4.750558351025381
 20
-5.031697665408739
 10
4.164340477092156
 20
-5.146315165380109
 10
4.009209981049865
 20
-5.037656082073904
 10
3.968972148743084
 20
-4.962726082092644
 10
3.924631510985419
 20
-4.879974998780003
 10
3.978892259601112
 20
-4.767908082141354
 10
4.0523758688375
 20
-4.693528415493279
 10
4.057304174267324
 20
-4.68856483216119
 10
4.05881759089538
 20
-4.681160026607492
 10
4.056235257627928
 20
-4.674647748831324
 10
4.053684674359666
 20
-4.668135471055189
 10
4.047518118961432
 20
-4.663761026611845
 10
4.040526063584259
 20
-4.663485859945236
 10
3.676138378436118
 20
-4.64915249883772
 10
3.445418276916418
 20
-4.420880582228127
 10
3.446695332471671
 20
-4.270022221154715
 10
3.447453804693697
 20
-4.179379498955142
 10
3.531753493230795
 20
-4.125499748968622
 10
3.677962239500699
 20
-4.122225971191682
 10
3.687025100380597
 20
-4.122021360080593
 10
3.694465276854174
 20
-4.114958748971272
 10
3.695153100173235
 20
-4.105931165640191
 10
3.695844544600039
 20
-4.096871832309119
 10
3.689540405871982
 20
-4.08877558231113
 10
3.680615128321907
 20
-4.0872233600893
 10
3.359463971382358
 20
-4.030588415659034
 10
3.253976360297612
 20
-3.871390387921048
 10
3.261243582518023
 20
-3.752257332395261
 10
3.26882477696057
 20
-3.627822026870823
 10
3.391538526929897
 20
-3.534699276894114
 10
3.559658214741108
 20
-3.52577752689633
 10
3.567997881195012
 20
-3.525329499118656
 10
3.57488763101924
 20
-3.51909238800913
 10
3.576161158764528
 20
-3.510826804677861
 10
3.577434686509815
 20
-3.502557693568807
 10
3.57271451996357
 20
-3.494563749126362
 10
3.564896964607457
 20
-3.491635693571552
 10
3.374725138045213
 20
-3.420907276922538
 10
3.220903443639214
 20
-3.230809443636754
 10
3.142837249214303
 20
-2.970152527035236
 10
3.064841610344911
 20
-2.709703749322559
 10
3.082685110340447
 20
-2.432991916058417
 10
3.185830276981313
 20
-2.268456360544004
 10
3.346372388052287
 20
-2.578170554911025
 10
4.031604313811871
 20
-3.426488221365614
 10
4.882334958774591
 20
-3.83121958237552
 10
4.979796872954797
 20
-3.877588693475046
 10
5.089352009048701
 20
-3.91125074902219
 10
5.20527831164673
 20
-3.946870721235494
 10
5.545927580733822
 20
-4.051497554542668
 10
5.898155016192195
 20
-4.159673332293424
 10
5.998199263639854
 20
-4.605849026626326
 10
6.000337096918646
 20
-4.615324637735047
 10
6.009671596680504
 20
-4.621216026622477
 10
6.019284790879695
 20
-4.619215776622974
 10
6.028792151748253
 20
-4.617081471067966
 10
6.034754096040595
 20
-4.607641137736988
 10
6.032651540538681
 20
-4.598133776628242
 10
5.987778208350162
 20
-4.398091137789358
 10
5.892383571894992
 20
-4.262596248934345
 10
5.771790019416035
 20
-4.164859165625458
 10
5.773028269384445
 20
-4.16317994340366
 10
5.774700436008451
 20
-4.161871137848416
 10
5.775303685993061
 20
-4.159743887848944
 10
5.954998098075341
 20
-3.523847832452379
 10
6.195225647502181
 20
-3.124422249218909
 10
6.489230640001488
 20
-2.972632554812405
 10
6.65742096904393
 20
-2.885884499278542
 10
6.847070769761116
 20
-2.879065304835774
 10
7.052814292289939
 20
-2.952340777039693
 10
7.262844064709411
 20
-3.027150832576552
 10
7.384548867160018
 20
-3.177737554761108
 10
7.398183727923275
 20
-3.377423888044543
 10
7.397262977946765
 20
-3.377268665822334
 10
7.396359866858694
 20
-3.377071110266845
 10
7.395428533549121
 20
-3.376915888044669
 10
7.390948255885645
 20
-3.376122138044866
 10
7.386298644893155
 20
-3.377191054711246
 10
7.382545275932149
 20
-3.379773388043959
 10
7.300411369306544
 20
-3.436238999140945
 10
7.294763397228413
 20
-3.585273499103671
 10
7.309989285728858
 20
-3.652523526864656
 10
7.313478257862069
 20
-3.667904637971911
 10
7.320152813247343
 20
-3.687187471300412
 10
7.334493229548155
 20
-3.694077221298701
 10
7.312730553727403
 20
-3.740121776842737
 10
7.286882341873921
 20
-3.782575054609914
 10
7.256935037082385
 20
-3.820092971267208
 97
        0
 97
        0
 92
        1
 93
        1
 72
     4
 94
        3
 73
     0
 74
     1
 95
       17
 96
       13
 40
0.0
 40
0.0
 40
0.0
 40
0.0
 40
1.0
 40
1.0
 40
1.0
 40
2.0
 40
2.0
 40
2.0
 40
3.0
 40
3.0
 40
3.0
 40
4.0
 40
4.0
 40
4.0
 40
4.0
 10
7.349884923599924
 20
-3.662066165751146
 10
7.343132757105519
 20
-3.648974582421075
 10
7.333830007342852
 20
-3.599776193544499
 10
7.341442951593074
 20
-3.538456360226503
 10
7.345715275941362
 20
-3.504243971346173
 10
7.358531506712665
 20
-3.443922499139005
 10
7.397012505730933
 20
-3.412952138035654
 10
7.595277139561669
 20
-3.447263304693745
 10
7.748343885656611
 20
-3.524122999118956
 10
7.782175273682389
 20
-3.552581582445178
 10
7.718886941963676
 20
-3.584723165770485
 10
7.396807894625042
 20
-3.658894693529719
 10
7.349884923599924
 20
-3.662066165751146
 97
        0
 97
        0
 92
        1
 93
        1
 72
     4
 94
        3
 73
     0
 74
     1
 95
       17
 96
       13
 40
0.0
 40
0.0
 40
0.0
 40
0.0
 40
1.0
 40
1.0
 40
1.0
 40
2.0
 40
2.0
 40
2.0
 40
3.0
 40
3.0
 40
3.0
 40
4.0
 40
4.0
 40
4.0
 40
4.0
 10
7.137742012345474
 20
-3.327840971390277
 10
7.137742012345474
 20
-3.364960249158746
 10
7.107643013113363
 20
-3.395062776929022
 10
7.070513331565736
 20
-3.395062776929022
 10
7.033383292785665
 20
-3.395062776929022
 10
7.003291349108929
 20
-3.364960249158746
 10
7.003291349108929
 20
-3.327840971390277
 10
7.003291349108929
 20
-3.290700526955104
 10
7.033383292785665
 20
-3.26060858251818
 10
7.070513331565736
 20
-3.26060858251818
 10
7.107643013113363
 20
-3.26060858251818
 10
7.137742012345474
 20
-3.290700526955104
 10
7.137742012345474
 20
-3.327840971390277
 97
        0
 97
        0
 75
     2
 76
     1
 98
        0
  0
ENDSEC
  0
SECTION
  2
OBJECTS
  0
DICTIONARY
  5
C
330
0
100
AcDbDictionary
281
     1
  3
ACAD_GROUP
350
D
  3
ACAD_LAYOUT
350
1A
  3
ACAD_MATERIAL
350
3B
  3
ACAD_MLEADERSTYLE
350
50
  3
ACAD_MLINESTYLE
350
17
  3
ACAD_PLOTSETTINGS
350
19
  3
ACAD_PLOTSTYLENAME
350
E
  3
ACAD_TABLESTYLE
350
4F
  3
ACAD_VISUALSTYLE
350
2A
  0
SUN
  5
3F
330
29
100
AcDbSun
 90
        1
290
     0
 63
     7
421
 16777215
 40
1.0
291
     1
 91
  2455826
 92
 54000000
292
     0
 70
     2
 71
   256
280
     1
  0
DICTIONARY
  5
D
102
{ACAD_REACTORS
330
C
102
}
330
C
100
AcDbDictionary
281
     1
  0
DICTIONARY
  5
1A
102
{ACAD_REACTORS
330
C
102
}
330
C
100
AcDbDictionary
281
     1
  3
Layout1
350
1E
  3
Layout2
350
26
  3
Model
350
22
  0
DICTIONARY
  5
3B
102
{ACAD_REACTORS
330
C
102
}
330
C
100
AcDbDictionary
281
     1
  3
ByBlock
350
3D
  3
ByLayer
350
3C
  3
Global
350
3E
  0
DICTIONARY
  5
50
102
{ACAD_REACTORS
330
C
102
}
330
C
100
AcDbDictionary
281
     1
  0
DICTIONARY
  5
17
102
{ACAD_REACTORS
330
C
102
}
330
C
100
AcDbDictionary
281
     1
  3
Standard
350
18
  0
DICTIONARY
  5
19
102
{ACAD_REACTORS
330
C
102
}
330
C
100
AcDbDictionary
281
     1
  0
ACDBDICTIONARYWDFLT
  5
E
102
{ACAD_REACTORS
330
C
102
}
330
C
100
AcDbDictionary
281
     1
  3
Normal
350
F
100
AcDbDictionaryWithDefault
340
F
  0
DICTIONARY
  5
4F
102
{ACAD_REACTORS
330
C
102
}
330
C
100
AcDbDictionary
281
     1
  0
DICTIONARY
  5
2A
102
{ACAD_REACTORS
330
C
102
}
330
C
100
AcDbDictionary
281
     1
  3
2dWireframe
350
2F
  3
3D Hidden
350
31
  3
3dWireframe
350
30
  3
Basic
350
32
  3
Brighten
350
36
  3
ColorChange
350
3A
  3
Conceptual
350
34
  3
Dim
350
35
  3
Facepattern
350
39
  3
Flat
350
2B
  3
FlatWithEdges
350
2C
  3
Gouraud
350
2D
  3
GouraudWithEdges
350
2E
  3
Linepattern
350
38
  3
Realistic
350
33
  3
Thicken
350
37
  0
LAYOUT
  5
1E
102
{ACAD_REACTORS
330
1A
102
}
330
1A
100
AcDbPlotSettings
  1

  2
none_device
  4

  6

 40
0.0
 41
0.0
 42
0.0
 43
0.0
 44
0.0
 45
0.0
 46
0.0
 47
0.0
 48
0.0
 49
0.0
140
0.0
141
0.0
142
1.0
143
1.0
 70
   688
 72
     0
 73
     0
 74
     5
  7

 75
    16
 76
     0
 77
     2
 78
   300
147
1.0
148
0.0
149
0.0
100
AcDbLayout
  1
Layout1
 70
     1
 71
     1
 10
0.0
 20
0.0
 11
12.0
 21
9.0
 12
0.0
 22
0.0
 32
0.0
 14
1.000000000000000E+20
 24
1.000000000000000E+20
 34
1.000000000000000E+20
 15
-1.000000000000000E+20
 25
-1.000000000000000E+20
 35
-1.000000000000000E+20
146
0.0
 13
0.0
 23
0.0
 33
0.0
 16
1.0
 26
0.0
 36
0.0
 17
0.0
 27
1.0
 37
0.0
 76
     0
330
1B
  0
LAYOUT
  5
26
102
{ACAD_REACTORS
330
1A
102
}
330
1A
100
AcDbPlotSettings
  1

  2
none_device
  4

  6

 40
0.0
 41
0.0
 42
0.0
 43
0.0
 44
0.0
 45
0.0
 46
0.0
 47
0.0
 48
0.0
 49
0.0
140
0.0
141
0.0
142
1.0
143
1.0
 70
   688
 72
     0
 73
     0
 74
     5
  7

 75
    16
 76
     0
 77
     2
 78
   300
147
1.0
148
0.0
149
0.0
100
AcDbLayout
  1
Layout2
 70
     1
 71
     2
 10
0.0
 20
0.0
 11
0.0
 21
0.0
 12
0.0
 22
0.0
 32
0.0
 14
0.0
 24
0.0
 34
0.0
 15
0.0
 25
0.0
 35
0.0
146
0.0
 13
0.0
 23
0.0
 33
0.0
 16
1.0
 26
0.0
 36
0.0
 17
0.0
 27
1.0
 37
0.0
 76
     0
330
23
  0
LAYOUT
  5
22
102
{ACAD_REACTORS
330
1A
102
}
330
1A
100
AcDbPlotSettings
  1

  2
none_device
  4

  6

 40
0.0
 41
0.0
 42
0.0
 43
0.0
 44
0.0
 45
0.0
 46
0.0
 47
0.0
 48
0.0
 49
0.0
140
0.0
141
0.0
142
1.0
143
1.0
 70
  1712
 72
     0
 73
     0
 74
     0
  7

 75
     0
 76
     0
 77
     2
 78
   300
147
1.0
148
0.0
149
0.0
100
AcDbLayout
  1
Model
 70
     1
 71
     0
 10
0.0
 20
0.0
 11
12.0
 21
9.0
 12
0.0
 22
0.0
 32
0.0
 14
1.000000000000000E+20
 24
1.000000000000000E+20
 34
1.000000000000000E+20
 15
-1.000000000000000E+20
 25
-1.000000000000000E+20
 35
-1.000000000000000E+20
146
0.0
 13
0.0
 23
0.0
 33
0.0
 16
1.0
 26
0.0
 36
0.0
 17
0.0
 27
1.0
 37
0.0
 76
     0
330
1F
331
29
  0
MATERIAL
  5
3D
102
{ACAD_REACTORS
330
3B
102
}
330
3B
100
AcDbMaterial
  1
ByBlock
 72
     1
 94
      127
  0
MATERIAL
  5
3C
102
{ACAD_REACTORS
330
3B
102
}
330
3B
100
AcDbMaterial
  1
ByLayer
 72
     1
 94
      127
  0
MATERIAL
  5
3E
102
{ACAD_REACTORS
330
3B
102
}
330
3B
100
AcDbMaterial
  1
Global
 72
     1
 94
      127
  0
MLINESTYLE
  5
18
102
{ACAD_REACTORS
330
17
102
}
330
17
100
AcDbMlineStyle
  2
Standard
 70
     0
  3

 62
   256
 51
90.0
 52
90.0
 71
     2
 49
0.5
 62
   256
  6
BYLAYER
 49
-0.5
 62
   256
  6
BYLAYER
  0
ACDBPLACEHOLDER
  5
F
102
{ACAD_REACTORS
330
E
102
}
330
E
  0
VISUALSTYLE
  5
2F
102
{ACAD_REACTORS
330
2A
102
}
330
2A
100
AcDbVisualStyle
  2
2dWireframe
 70
     4
177
     2
291
     0
 71
     0
176
     1
 72
     2
176
     1
 73
     0
176
     1
 90
        0
176
     1
 40
-0.6
176
     1
 41
-30.0
176
     1
 62
     5
 63
     7
421
 16777215
176
     1
 74
     1
176
     1
 91
        4
176
     1
 64
     7
176
     1
 65
   257
176
     1
 75
     1
176
     1
175
     1
176
     1
 42
1.0
176
     1
 92
        0
176
     1
 66
   257
176
     1
 43
1.0
176
     1
 76
     1
176
     1
 77
     6
176
     1
 78
     2
176
     1
 67
     7
176
     1
 79
     5
176
     1
170
     0
176
     1
171
     0
176
     1
290
     0
176
     1
 93
        1
176
     1
 44
0.0
176
     1
173
     0
176
     1
  0
VISUALSTYLE
  5
31
102
{ACAD_REACTORS
330
2A
102
}
330
2A
100
AcDbVisualStyle
  2
3D Hidden
 70
     6
177
     2
291
     0
 71
     1
176
     1
 72
     2
176
     1
 73
     2
176
     1
 90
        0
176
     1
 40
-0.6
176
     1
 41
-30.0
176
     1
 62
     5
 63
     7
421
 16777215
176
     1
 74
     2
176
     1
 91
        2
176
     1
 64
     7
176
     1
 65
   257
176
     1
 75
     2
176
     1
175
     1
176
     1
 42
40.0
176
     1
 92
        0
176
     1
 66
   257
176
     1
 43
1.0
176
     1
 76
     1
176
     1
 77
     6
176
     1
 78
     2
176
     1
 67
     7
176
     1
 79
     3
176
     1
170
     0
176
     1
171
     0
176
     1
290
     0
176
     1
 93
        1
176
     1
 44
0.0
176
     1
173
     0
176
     1
  0
VISUALSTYLE
  5
30
102
{ACAD_REACTORS
330
2A
102
}
330
2A
100
AcDbVisualStyle
  2
3dWireframe
 70
     5
177
     2
291
     0
 71
     0
176
     1
 72
     2
176
     1
 73
     0
176
     1
 90
        0
176
     1
 40
-0.6
176
     1
 41
-30.0
176
     1
 62
     5
 63
     7
421
 16777215
176
     1
 74
     1
176
     1
 91
        4
176
     1
 64
     7
176
     1
 65
   257
176
     1
 75
     1
176
     1
175
     1
176
     1
 42
1.0
176
     1
 92
        0
176
     1
 66
   257
176
     1
 43
1.0
176
     1
 76
     1
176
     1
 77
     6
176
     1
 78
     2
176
     1
 67
     7
176
     1
 79
     5
176
     1
170
     0
176
     1
171
     0
176
     1
290
     0
176
     1
 93
        1
176
     1
 44
0.0
176
     1
173
     0
176
     1
  0
VISUALSTYLE
  5
32
102
{ACAD_REACTORS
330
2A
102
}
330
2A
100
AcDbVisualStyle
  2
Basic
 70
     7
177
     2
291
     1
 71
     1
176
     1
 72
     0
176
     1
 73
     1
176
     1
 90
        0
176
     1
 40
-0.6
176
     1
 41
-30.0
176
     1
 62
     5
 63
     7
421
 16777215
176
     1
 74
     0
176
     1
 91
        4
176
     1
 64
     7
176
     1
 65
   257
176
     1
 75
     1
176
     1
175
     1
176
     1
 42
1.0
176
     1
 92
        8
176
     1
 66
     7
176
     1
 43
1.0
176
     1
 76
     1
176
     1
 77
     6
176
     1
 78
     2
176
     1
 67
     7
176
     1
 79
     5
176
     1
170
     0
176
     1
171
     0
176
     1
290
     0
176
     1
 93
        1
176
     1
 44
0.0
176
     1
173
     0
176
     1
  0
VISUALSTYLE
  5
36
102
{ACAD_REACTORS
330
2A
102
}
330
2A
100
AcDbVisualStyle
  2
Brighten
 70
    12
177
     2
291
     1
 71
     2
176
     1
 72
     2
176
     1
 73
     0
176
     1
 90
        0
176
     1
 40
-0.6
176
     1
 41
-30.0
176
     1
 62
     5
 63
     7
421
 16777215
176
     1
 74
     1
176
     1
 91
        4
176
     1
 64
     7
176
     1
 65
   257
176
     1
 75
     1
176
     1
175
     1
176
     1
 42
1.0
176
     1
 92
        8
176
     1
 66
     7
176
     1
 43
1.0
176
     1
 76
     1
176
     1
 77
     6
176
     1
 78
     2
176
     1
 67
     7
176
     1
 79
     5
176
     1
170
     0
176
     1
171
     0
176
     1
290
     0
176
     1
 93
        1
176
     1
 44
50.0
176
     1
173
     0
176
     1
  0
VISUALSTYLE
  5
3A
102
{ACAD_REACTORS
330
2A
102
}
330
2A
100
AcDbVisualStyle
  2
ColorChange
 70
    16
177
     2
291
     1
 71
     2
176
     1
 72
     2
176
     1
 73
     3
176
     1
 90
        0
176
     1
 40
-0.6
176
     1
 41
-30.0
176
     1
 62
     5
 63
     8
421
  8421504
176
     1
 74
     1
176
     1
 91
        4
176
     1
 64
     7
176
     1
 65
   257
176
     1
 75
     1
176
     1
175
     1
176
     1
 42
1.0
176
     1
 92
        8
176
     1
 66
     8
424
  8421504
176
     1
 43
1.0
176
     1
 76
     1
176
     1
 77
     6
176
     1
 78
     2
176
     1
 67
     7
176
     1
 79
     5
176
     1
170
     0
176
     1
171
     0
176
     1
290
     0
176
     1
 93
        1
176
     1
 44
0.0
176
     1
173
     0
176
     1
  0
VISUALSTYLE
  5
34
102
{ACAD_REACTORS
330
2A
102
}
330
2A
100
AcDbVisualStyle
  2
Conceptual
 70
     9
177
     2
291
     0
 71
     3
176
     1
 72
     2
176
     1
 73
     0
176
     1
 90
        0
176
     1
 40
-0.6
176
     1
 41
-30.0
176
     1
 62
     5
 63
     7
421
 16777215
176
     1
 74
     2
176
     1
 91
        2
176
     1
 64
     7
176
     1
 65
   257
176
     1
 75
     1
176
     1
175
     1
176
     1
 42
40.0
176
     1
 92
        8
176
     1
 66
     7
176
     1
 43
1.0
176
     1
 76
     1
176
     1
 77
     6
176
     1
 78
     2
176
     1
 67
     7
176
     1
 79
     3
176
     1
170
     0
176
     1
171
     0
176
     1
290
     0
176
     1
 93
        1
176
     1
 44
0.0
176
     1
173
     0
176
     1
  0
VISUALSTYLE
  5
35
102
{ACAD_REACTORS
330
2A
102
}
330
2A
100
AcDbVisualStyle
  2
Dim
 70
    11
177
     2
291
     1
 71
     2
176
     1
 72
     2
176
     1
 73
     0
176
     1
 90
        0
176
     1
 40
-0.6
176
     1
 41
-30.0
176
     1
 62
     5
 63
     7
421
 16777215
176
     1
 74
     1
176
     1
 91
        4
176
     1
 64
     7
176
     1
 65
   257
176
     1
 75
     1
176
     1
175
     1
176
     1
 42
1.0
176
     1
 92
        8
176
     1
 66
     7
176
     1
 43
1.0
176
     1
 76
     1
176
     1
 77
     6
176
     1
 78
     2
176
     1
 67
     7
176
     1
 79
     5
176
     1
170
     0
176
     1
171
     0
176
     1
290
     0
176
     1
 93
        1
176
     1
 44
-50.0
176
     1
173
     0
176
     1
  0
VISUALSTYLE
  5
39
102
{ACAD_REACTORS
330
2A
102
}
330
2A
100
AcDbVisualStyle
  2
Facepattern
 70
    15
177
     2
291
     1
 71
     2
176
     1
 72
     2
176
     1
 73
     0
176
     1
 90
        0
176
     1
 40
-0.6
176
     1
 41
-30.0
176
     1
 62
     5
 63
     7
421
 16777215
176
     1
 74
     1
176
     1
 91
        4
176
     1
 64
     7
176
     1
 65
   257
176
     1
 75
     1
176
     1
175
     1
176
     1
 42
1.0
176
     1
 92
        8
176
     1
 66
     7
176
     1
 43
1.0
176
     1
 76
     1
176
     1
 77
     6
176
     1
 78
     2
176
     1
 67
     7
176
     1
 79
     5
176
     1
170
     0
176
     1
171
     0
176
     1
290
     0
176
     1
 93
        1
176
     1
 44
0.0
176
     1
173
     0
176
     1
  0
VISUALSTYLE
  5
2B
102
{ACAD_REACTORS
330
2A
102
}
330
2A
100
AcDbVisualStyle
  2
Flat
 70
     0
177
     2
291
     1
 71
     2
176
     1
 72
     1
176
     1
 73
     1
176
     1
 90
        2
176
     1
 40
-0.6
176
     1
 41
30.0
176
     1
 62
     5
 63
     7
421
 16777215
176
     1
 74
     0
176
     1
 91
        4
176
     1
 64
     7
176
     1
 65
   257
176
     1
 75
     1
176
     1
175
     1
176
     1
 42
1.0
176
     1
 92
        8
176
     1
 66
     7
176
     1
 43
1.0
176
     1
 76
     1
176
     1
 77
     6
176
     1
 78
     2
176
     1
 67
     7
176
     1
 79
     5
176
     1
170
     0
176
     1
171
     0
176
     1
290
     0
176
     1
 93
       13
176
     1
 44
0.0
176
     1
173
     0
176
     1
  0
VISUALSTYLE
  5
2C
102
{ACAD_REACTORS
330
2A
102
}
330
2A
100
AcDbVisualStyle
  2
FlatWithEdges
 70
     1
177
     2
291
     1
 71
     2
176
     1
 72
     1
176
     1
 73
     1
176
     1
 90
        2
176
     1
 40
-0.6
176
     1
 41
30.0
176
     1
 62
     5
 63
     7
421
 16777215
176
     1
 74
     1
176
     1
 91
        4
176
     1
 64
     7
176
     1
 65
   257
176
     1
 75
     1
176
     1
175
     1
176
     1
 42
1.0
176
     1
 92
        0
176
     1
 66
   257
176
     1
 43
1.0
176
     1
 76
     1
176
     1
 77
     6
176
     1
 78
     2
176
     1
 67
     7
176
     1
 79
     5
176
     1
170
     0
176
     1
171
     0
176
     1
290
     0
176
     1
 93
       13
176
     1
 44
0.0
176
     1
173
     0
176
     1
  0
VISUALSTYLE
  5
2D
102
{ACAD_REACTORS
330
2A
102
}
330
2A
100
AcDbVisualStyle
  2
Gouraud
 70
     2
177
     2
291
     1
 71
     2
176
     1
 72
     2
176
     1
 73
     1
176
     1
 90
        2
176
     1
 40
-0.6
176
     1
 41
30.0
176
     1
 62
     5
 63
     7
421
 16777215
176
     1
 74
     0
176
     1
 91
        4
176
     1
 64
     7
176
     1
 65
   257
176
     1
 75
     1
176
     1
175
     1
176
     1
 42
1.0
176
     1
 92
        0
176
     1
 66
     7
176
     1
 43
1.0
176
     1
 76
     1
176
     1
 77
     6
176
     1
 78
     2
176
     1
 67
     7
176
     1
 79
     5
176
     1
170
     0
176
     1
171
     0
176
     1
290
     0
176
     1
 93
       13
176
     1
 44
0.0
176
     1
173
     0
176
     1
  0
VISUALSTYLE
  5
2E
102
{ACAD_REACTORS
330
2A
102
}
330
2A
100
AcDbVisualStyle
  2
GouraudWithEdges
 70
     3
177
     2
291
     1
 71
     2
176
     1
 72
     2
176
     1
 73
     1
176
     1
 90
        2
176
     1
 40
-0.6
176
     1
 41
30.0
176
     1
 62
     5
 63
     7
421
 16777215
176
     1
 74
     1
176
     1
 91
        4
176
     1
 64
     7
176
     1
 65
   257
176
     1
 75
     1
176
     1
175
     1
176
     1
 42
1.0
176
     1
 92
        0
176
     1
 66
   257
176
     1
 43
1.0
176
     1
 76
     1
176
     1
 77
     6
176
     1
 78
     2
176
     1
 67
     7
176
     1
 79
     5
176
     1
170
     0
176
     1
171
     0
176
     1
290
     0
176
     1
 93
       13
176
     1
 44
0.0
176
     1
173
     0
176
     1
  0
VISUALSTYLE
  5
38
102
{ACAD_REACTORS
330
2A
102
}
330
2A
100
AcDbVisualStyle
  2
Linepattern
 70
    14
177
     2
291
     1
 71
     2
176
     1
 72
     2
176
     1
 73
     0
176
     1
 90
        0
176
     1
 40
-0.6
176
     1
 41
-30.0
176
     1
 62
     5
 63
     7
421
 16777215
176
     1
 74
     1
176
     1
 91
        4
176
     1
 64
     7
176
     1
 65
   257
176
     1
 75
     7
176
     1
175
     7
176
     1
 42
1.0
176
     1
 92
        8
176
     1
 66
     7
176
     1
 43
1.0
176
     1
 76
     1
176
     1
 77
     6
176
     1
 78
     2
176
     1
 67
     7
176
     1
 79
     5
176
     1
170
     0
176
     1
171
     0
176
     1
290
     0
176
     1
 93
        1
176
     1
 44
0.0
176
     1
173
     0
176
     1
  0
VISUALSTYLE
  5
33
102
{ACAD_REACTORS
330
2A
102
}
330
2A
100
AcDbVisualStyle
  2
Realistic
 70
     8
177
     2
291
     0
 71
     2
176
     1
 72
     2
176
     1
 73
     0
176
     1
 90
        0
176
     1
 40
-0.6
176
     1
 41
-30.0
176
     1
 62
     5
 63
     7
421
 16777215
176
     1
 74
     1
176
     1
 91
        0
176
     1
 64
     7
176
     1
 65
   257
176
     1
 75
     1
176
     1
175
     1
176
     1
 42
1.0
176
     1
 92
        8
176
     1
 66
     8
424
  7895160
176
     1
 43
1.0
176
     1
 76
     1
176
     1
 77
     6
176
     1
 78
     2
176
     1
 67
     7
176
     1
 79
     5
176
     1
170
     0
176
     1
171
     0
176
     1
290
     0
176
     1
 93
       13
176
     1
 44
0.0
176
     1
173
     0
176
     1
  0
VISUALSTYLE
  5
37
102
{ACAD_REACTORS
330
2A
102
}
330
2A
100
AcDbVisualStyle
  2
Thicken
 70
    13
177
     2
291
     1
 71
     2
176
     1
 72
     2
176
     1
 73
     0
176
     1
 90
        0
176
     1
 40
-0.6
176
     1
 41
-30.0
176
     1
 62
     5
 63
     7
421
 16777215
176
     1
 74
     1
176
     1
 91
        4
176
     1
 64
     7
176
     1
 65
   257
176
     1
 75
     1
176
     1
175
     1
176
     1
 42
1.0
176
     1
 92
       12
176
     1
 66
     7
176
     1
 43
1.0
176
     1
 76
     1
176
     1
 77
     6
176
     1
 78
     2
176
     1
 67
     7
176
     1
 79
     5
176
     1
170
     0
176
     1
171
     0
176
     1
290
     0
176
     1
 93
        1
176
     1
 44
0.0
176
     1
173
     0
176
     1
  0
ENDSEC
  0
EOF
