<?xml version="1.0" encoding="utf-8"?>
<!-- Generator: Adobe Illustrator 13.0.0, SVG Export Plug-In . SVG Version: 6.00 Build 14948)  -->
<!DOCTYPE svg PUBLIC "-//W3C//DTD SVG 1.1//EN" "http://www.w3.org/Graphics/SVG/1.1/DTD/svg11.dtd">
<svg version="1.1" id="Layer_1" xmlns="http://www.w3.org/2000/svg" xmlns:xlink="http://www.w3.org/1999/xlink" x="0px" y="0px"
	 width="776px" height="295.785px" viewBox="0 0 776 295.785" enable-background="new 0 0 776 295.785" xml:space="preserve">
<path d="M760.051,181.546c7.761-11.153,4.81-21.985-3.525-27.555c-8.338-5.55-19.631-3.475-25.242,4.666
	c-2.168-7.586-9.002-12.667-16.595-13.093l-0.19-0.776c0.492-2.152,0.873-4.297,1.152-6.477
	c2.776-21.458-8.664-34.461-22.882-35.904c-13.349-1.319-24.742,8.9-25.448,22.881c-6.081-6.298-14.338-8.737-21.927-7.291
	l-1.947,0.125c-2.916-5.926-8.889-10.072-15.83-10.242c6.469-7.485,5.631-18.937-1.847-25.627
	c-5.964-5.309-14.314-6.453-21.938-1.47l-1.733,1.163c-5.534-8.346-16.746-10.816-25.076-5.491
	c1.179-9.82-5.914-18.852-15.854-20.225c-1.985-0.268-3.955-0.233-5.84,0.101l0.046,0.229c-1.481-5.464-5.072-10.052-10.079-13.159
	c-10.809-6.663-25.033-3.541-31.789,7.02C509.643,38.484,496.67,31.86,484.5,35.568l-1.505-0.027
	c-1.69-5.581-5.938-9.622-11.468-11.464c-9.513-3.142-19.855,1.846-23.113,11.181c-5.139-8.451-16.296-11.165-24.96-6.104
	c-0.574,0.337-1.125,0.698-1.652,1.082l-1.811,1.672c-2.801-8.001-9.552-12.593-17.456-13.132
	c-11.146-0.733-20.911,7.547-21.816,18.534c-7.913-7.687-20.719-7.493-28.65,0.392c-3.007,3.009-4.993,6.686-5.695,10.665
	l-0.388-0.074c-8.218-5.62-19.433-5.488-27.375,1.035c0.009-12.375-10.142-22.54-22.689-22.765
	c-13.319-0.206-24.601,10.064-23.056,29.214c0.083,1.047,0.196,2.086,0.337,3.125l-0.023-0.589
	c-7.388,0.337-14.28,4.735-17.335,11.867c-4.939-9.533-16.826-13.306-26.583-8.466l-2.858,1.287
	c-2.471-1.512-5.334-2.396-8.389-2.606c-9.994-0.655-18.753,6.768-19.565,16.622c-7.097-6.891-18.58-6.721-25.693,0.353
	c-4.991,4.995-6.843,12.038-4.068,19.065l0.146-0.085c-9.052,0.356-17.712,5.076-22.602,13.313
	c-5.084-14.058-20.804-21.45-35.165-16.54c-15.22,5.255-23.822,21.57-14.181,42.702c0.842,1.85,1.761,3.653,2.767,5.433
	l-0.355,0.183c-4.425,1.466-8.522,4.053-11.826,7.737c-2.29-15.04-16.521-25.507-31.814-23.455
	c-16.229,2.238-28.033,16.808-22.592,39.802c0.448,1.9,0.971,3.773,1.578,5.639l-1.598,0.57l2.214-2.929
	c-12.922,20.063-21.136,41.493-23.843,63.819l0.328,0.047l96.679,78.723l2.152,0.469c29.181-78.063,145.21-136.379,283.9-136.379
	c127.96,0,236.63,49.641,275.598,118.629l-0.675,0.388c1.407,1.407,28.112-23.89,28.112-23.89l2.812,19.674l59.021-43.56
	l-15.462-9.839l26.701-26.701l-1.222-5.029c-2.583-7.737-5.837-15.335-9.715-22.765L760.051,181.546z"/>
<path fill="#FFFFFF" d="M254.639,103.645c8.103-5.821,12.224-9.098,14.906-13.5c3.783-6.193,1.72-11.565-2.808-13.768
	c-4.26-2.056-9.41-0.353-11.506,3.816c-1.895-4.266-6.95-6.224-11.314-4.382c-4.625,1.962-6.95,7.233-3.487,13.601
	C242.888,93.946,246.837,97.421,254.639,103.645z"/>
<rect x="69.866" y="211.823" transform="matrix(-0.6603 0.751 -0.751 -0.6603 312.0446 364.2172)" fill="#FFFFFF" width="7.571" height="81.715"/>
<path fill="#FFFFFF" d="M127.026,229.658c-6.711,5.15-13.001,10.502-18.842,16.036l-28.929-28.478l0.029-0.012
	c7.661-2.997,14.204-5.724,19.909-8.419l0.989,0.089c1.045,1.889,2.436,3.789,4.206,5.658c5.191,5.491,11.667,9.443,22.113,14.38
	L127.026,229.658z"/>
<path fill="#FFFFFF" d="M174.774,199.939c-6.011,3.045-11.836,6.209-17.465,9.49l-0.91,0.081c1.449-2.765,2.552-5.444,3.38-8.244
	c0.675-2.277,1.051-4.426,1.166-6.435l0.607,0.008c3.296,1.881,7.07,3.541,11.646,5.217L174.774,199.939z"/>
<path fill="#FFFFFF" d="M189.767,144.633c1.115-1.566,2.1-3.125,2.961-4.669l-0.215,0.128c1.479,2.199,3.242,4.401,5.37,6.759
	l-1.042,1.331c-1.107-0.299-2.259-0.489-3.442-0.57c-1.571-0.104-3.108,0.008-4.582,0.311L189.767,144.633z"/>
<path fill="#FFFFFF" d="M239.644,174.17c-13.007,3.955-25.518,8.396-37.465,13.282l0.706-0.876
	c3.025-5.903,4.831-10.848,5.693-16.063c0.913-5.496,0.285-10.103-1.412-13.71l0.31-0.306c1.495,1.415,3.095,2.908,4.809,4.494
	c3.289-2.017,6.223-3.839,8.856-5.538l-0.091,0.594c1.382,3.665,4.018,7.33,8.115,10.708c3.537,2.916,7.442,5.263,12.284,7.445
	L239.644,174.17z"/>
<path fill="#FFFFFF" d="M254.731,123.854c-3.876,3.017-6.523,7.547-6.952,12.751c-2.127-2.067-4.65-3.498-7.33-4.301l-0.202,0.683
	c2.909-8-0.188-14.981-6.356-18.561c-4.832-2.789-10.585-2.665-15.123-0.155l0.572-1.664c2.639-4.39,4.803-8.237,6.548-11.782
	l-0.428-0.516c6.137,6.849,14.88,13.415,28.647,23.071L254.731,123.854z"/>
<path fill="#FFFFFF" d="M302.761,103.199c3.139-0.698,6.065-1.377,8.807-2.055l0.283-0.341c-1.092,2.272-1.767,4.824-1.918,7.558
	c-2.569-2.652-5.643-4.425-8.867-5.317"/>
<path fill="#FFFFFF" d="M287.884,140.895c7.347,6.48,16.106,10.607,30.698,15.854l-0.136,0.461
	c-12.47,1.672-24.677,3.755-36.577,6.221l-1.675,0.151c3.62-6.88,5.743-12.519,6.73-18.487c0.244-1.47,0.388-2.881,0.436-4.235
	L287.884,140.895z"/>
<path fill="#FFFFFF" d="M291.256,103.032c-3.046,0.85-5.904,2.513-8.262,4.995c-3.5,3.704-5.43,8.517-5.303,13.717l-1.016,0.016
	c-1.916-0.826-4.004-1.323-6.189-1.47c-4.714-0.31-9.153,1.179-12.614,3.871l-0.049-0.066
	c14.958-12.228,23.692-19.903,29.383-28.279l-0.135,0.07c1.181,2.334,2.439,4.786,3.779,7.368L291.256,103.032z"/>
<path fill="#FFFFFF" d="M386.507,84.452c-2.563,1.788-4.859,4.142-6.715,7.023c-0.886-3.754-2.521-7.062-4.689-9.792l1.854-0.012
	c2.849,1.071,5.962,2.141,9.398,3.254L386.507,84.452z"/>
<path fill="#FFFFFF" d="M332.9,154.53c5.513-9.641,9.352-16.971,11.834-23.633l0.099-0.058c3.946,6.193,9.085,12.868,15.782,21.004
	l2.038,1.245c-10.056,0.535-19.984,1.334-29.765,2.381L332.9,154.53z"/>
<path fill="#FFFFFF" d="M382.586,151.823c8.33-5.15,14.822-9.59,20.159-14.124l0.419-0.151c0.278,0.729,0.597,1.47,0.953,2.223
	c2.103,4.409,4.969,8.38,9.11,12.844l0.136,0.02c-6.679-0.232-13.403-0.353-20.174-0.353c-3.895,0-7.765,0.039-11.627,0.116
	L382.586,151.823z"/>
<path fill="#FFFFFF" d="M432.227,70.786c-1.458,1.26-2.866,2.796-4.196,4.626c-3.525,4.833-5.914,10.304-8.229,18.064l-0.349-0.108
	c-1.688-3.479-4.188-6.473-7.322-8.796c-1.958-1.442-4.057-2.509-6.229-3.211l-0.853,0.023c6.228-10.11,10.428-17.688,13.038-24.681
	l1.784,1.985c3.18,4.382,7.058,8.121,12.371,12.112L432.227,70.786z"/>
<path fill="#FFFFFF" d="M470.97,105.247c-1.854-6.814-7.954-11.914-15.249-12.077c3.354-3.894,4.494-8.986,3.54-13.732l-0.05-0.047
	c4.6-4.409,8.377-8.194,11.502-11.688l0.155,1.889c0.171,0.45,0.354,0.903,0.543,1.361c4.926,11.84,13.512,21.625,29.955,37.937
	l-0.683-1.292c-0.108,0.671-0.193,1.35-0.252,2.04c-7.938-7.706-19.845-9.021-29.308-4.057"/>
<path fill="#FFFFFF" d="M452.304,153.972c3.514-2.812,6.256-5.572,8.578-8.702c0.314-0.423,0.609-0.842,0.889-1.26l1.931,0.054
	c1.8,2.327,4.011,4.611,6.675,6.806c3.545,2.925,7.356,5.434,11.739,7.741l-1.249,0.5c-9.587-1.527-19.336-2.808-29.241-3.835
	L452.304,153.972z"/>
<path fill="#FFFFFF" d="M584.592,118.886c-0.791-0.093-1.598-0.14-2.412-0.14c-10.572,0.016-19.267,8.455-19.422,18.887
	c-4.282-3.63-9.75-5.022-14.981-4.293l-1.261,0.907c1.729-4.529,2.925-8.85,3.661-13.302c0.136-0.822,0.248-1.633,0.342-2.428
	l0.069,0.008c17.335-1.521,27.884-2.812,36.455-6.073l-1.292,1.152c-0.446,1.66-0.896,3.405-1.354,5.243L584.592,118.886z"/>
<path fill="#FFFFFF" d="M542.599,172.937c-4.832-1.42-9.734-2.773-14.69-4.057l0.136-0.547c1.66-2.656,3.215-5.178,4.674-7.578
	l0.294-0.159c1.765,3.514,4.7,6.935,8.967,9.994L542.599,172.937z"/>
<path fill="#FFFFFF" d="M601.245,143.687c0.163-1.679,0.21-3.281,0.144-4.801l1.656-0.074c6.918,3.114,12.58,4.859,18.495,5.487
	c1.299,0.14,2.556,0.202,3.758,0.194l1.322,1.028c-3.758,2.106-6.899,5.352-8.823,9.517c-3.219-6.658-9.563-10.866-16.505-11.754"/>
<path fill="#FFFFFF" d="M625.329,207.289c-11.046-6.244-22.819-12.05-35.237-17.366l0.016-0.012
	c6.356,6.713,15.179,13.616,28.217,23.308c3.096-2.385,5.941-4.607,8.575-6.697"/>
<path fill="#FFFFFF" d="M716.383,210.868c-0.236-2.028-0.756-4.053-1.555-6.026c-3.568-8.796-12.123-14.163-21.027-14.031
	l-1.42,1.299c2.699-4.692,5.135-8.981,7.33-12.952l0.442,0.248c4.075,7.593,10.626,15.113,21.415,26.519l0.396,0.45l-5.395,4.716
	L716.383,210.868z"/>
<path fill="#FFFFFF" d="M670.47,238.287c5.263,0.244,9.858,0.217,14.085-0.151l1.442-0.311l-8.376,7.33
	c-2.746-2.579-5.585-5.119-8.517-7.616L670.47,238.287z"/>
<path fill="#FFFFFF" d="M319.772,145.801c8.782-11.243,13.124-17.401,15.034-24.521c2.701-10.029-2.29-16.571-9.393-17.773
	c-6.674-1.109-13.058,3.3-14.262,9.87c-4.316-5.1-12.043-5.751-17.294-1.47c-5.56,4.557-6.632,12.728,0.683,20.077
	C299.74,137.218,306.559,140.398,319.772,145.801z"/>
<path fill="#FFFFFF" d="M135.218,166.374c18.827-10.351,28.491-16.296,35.361-25.021c9.688-12.278,6.663-24.297-2.455-30.172
	c-8.581-5.496-20.033-3.184-25.596,5.197c-2.951-9.626-13.259-15.109-23.067-12.302c-10.399,3.017-16.734,13.694-10.969,28.206
	C112.58,142.609,120.134,151.06,135.218,166.374z"/>
<path fill="#FFFFFF" d="M60.855,199.396c19.521-3.943,29.712-6.53,38.208-12.352c11.968-8.183,12.616-19.658,6.174-27.38
	c-6.071-7.232-16.845-8.354-24.085-2.474c0.051-9.335-7.552-17.041-17.009-17.27c-10.033-0.213-18.592,7.489-17.506,21.923
	C47.396,172.11,51.743,181.682,60.855,199.396z"/>
<path fill="#FFFFFF" d="M132.649,221.685c8.86-9.296,13.291-14.427,15.629-20.644c3.302-8.749-0.6-15.051-6.855-16.754
	c-5.883-1.578-11.989,1.812-13.645,7.594c-3.422-4.956-10.287-6.217-15.369-2.839c-5.383,3.596-7.061,10.824-1.15,18.053
	C115.454,212.237,121.288,215.693,132.649,221.685z"/>
<path fill="#FFFFFF" d="M184.907,198.109c9.984-11.58,14.946-17.94,17.359-25.476c3.405-10.595-1.606-17.855-9.145-19.511
	c-7.089-1.528-14.146,2.861-15.774,9.835c-4.363-5.689-12.598-6.779-18.44-2.463c-6.189,4.596-7.754,13.29-0.297,21.535
	C163.901,187.895,171.043,191.656,184.907,198.109z"/>
<path fill="#FFFFFF" d="M212.245,113.143c7.012-11.39,10.413-17.576,11.452-24.409c1.476-9.622-3.857-15.199-10.597-15.579
	c-6.335-0.341-11.825,4.433-12.259,10.672c-4.551-4.293-11.817-4.107-16.265,0.431c-4.704,4.825-4.854,12.546,2.725,18.631
	C192.689,107.225,199.373,109.478,212.245,113.143z"/>
<path fill="#FFFFFF" d="M210.191,150.653c9.612-5.387,14.54-8.489,18.024-12.992c4.917-6.321,3.312-12.474-1.384-15.449
	c-4.427-2.779-10.29-1.545-13.105,2.769c-1.552-4.914-6.863-7.686-11.881-6.203c-5.32,1.585-8.52,7.088-5.501,14.498
	C198.488,138.56,202.395,142.86,210.191,150.653z"/>
<path fill="#FFFFFF" d="M265.536,175.934c8.402-12.157,12.511-18.789,14.056-26.271c2.189-10.525-3.37-16.99-10.781-17.8
	c-6.969-0.741-13.308,4.208-14.151,11.061c-4.772-5.003-12.798-5.208-17.969-0.465c-5.47,5.045-6.085,13.554,1.921,20.709
	C244.303,168.267,251.547,171.148,265.536,175.934z"/>
<path fill="#FFFFFF" d="M294.663,100.278c20.473-4.045,31.159-6.688,40.081-12.742c12.571-8.507,13.306-20.517,6.602-28.64
	c-6.317-7.605-17.6-8.84-25.2-2.724c0.092-9.767-7.828-17.874-17.731-18.161c-10.504-0.282-19.502,7.739-18.439,22.857
	C280.722,71.634,285.219,81.667,294.663,100.278z"/>
<path fill="#FFFFFF" d="M393.236,79.484c9.168-13.291,13.655-20.535,15.338-28.706c2.382-11.499-3.695-18.561-11.793-19.445
	c-7.613-0.795-14.528,4.6-15.451,12.1c-5.214-5.464-13.981-5.686-19.627-0.493c-5.974,5.507-6.637,14.803,2.112,22.625
	C370.041,71.119,377.952,74.256,393.236,79.484z"/>
<path fill="#FFFFFF" d="M372.39,148.617c17.493-9.941,26.457-15.636,32.777-23.89c8.909-11.609,5.919-22.82-2.688-28.207
	c-8.105-5.033-18.797-2.717-23.891,5.196c-2.887-8.962-12.607-13.968-21.752-11.206c-9.693,2.945-15.482,13.019-9.897,26.527
	C350.898,126.655,358.077,134.468,372.39,148.617z"/>
<path fill="#FFFFFF" d="M452.417,74.71c9.878-9.098,14.85-14.151,17.712-20.477c4.045-8.893,0.407-15.737-6-17.94
	c-6.034-2.044-12.635,1.07-14.752,6.98c-3.23-5.387-10.309-7.178-15.839-4.002c-5.859,3.378-8.105,10.801-2.436,18.743
	C435.127,63.673,440.976,67.667,452.417,74.71z"/>
<path fill="#FFFFFF" d="M430.575,107.841c9.308,3.607,14.303,5.267,19.453,5.107c7.252-0.217,10.626-4.878,9.998-9.874
	c-0.609-4.692-4.848-8.074-9.486-7.555c2.536-3.917,1.416-9.218-2.513-11.867c-4.169-2.804-9.854-1.869-13.295,4.51
	C432.282,92.701,431.529,97.906,430.575,107.841z"/>
<path fill="#FFFFFF" d="M433.228,158.917c10.754-7.729,16.226-12.077,19.786-17.921c5.019-8.218,2.28-15.35-3.731-18.274
	c-5.654-2.726-12.487-0.465-15.271,5.065c-2.514-5.662-9.223-8.26-15.017-5.817c-6.139,2.606-9.226,9.602-4.631,18.053
	C417.629,146.041,422.873,150.652,433.228,158.917z"/>
<path fill="#FFFFFF" d="M508.215,94.741C523,86.131,530.569,81.21,535.867,74.14c7.47-9.963,4.832-19.468-2.536-23.971
	c-6.942-4.204-16.009-2.141-20.268,4.638c-2.536-7.597-10.851-11.767-18.607-9.339c-8.214,2.595-13.038,11.212-8.171,22.645
	C489.74,76.262,495.915,82.839,508.215,94.741z"/>
<path fill="#FFFFFF" d="M505.14,161.274c13.834-12.2,20.814-18.979,24.937-27.57c5.825-12.084,1.043-21.582-7.687-24.808
	c-8.21-3.002-17.37,1.082-20.465,9.125c-4.266-7.489-13.923-10.165-21.609-5.976c-8.147,4.456-11.456,14.57-3.925,25.654
	C481.748,145.583,489.655,151.246,505.14,161.274z"/>
<path fill="#FFFFFF" d="M558.092,100.709c9.979,0.078,15.237-0.14,20-2.11c6.709-2.773,8.21-8.326,5.856-12.774
	c-2.23-4.173-7.393-5.837-11.546-3.708c0.989-4.561-1.942-9.125-6.55-10.211c-4.895-1.144-9.882,1.741-10.84,8.928
	C554.327,85.945,555.467,91.08,558.092,100.709z"/>
<path fill="#FFFFFF" d="M593.322,126.794c13.058,5.701,20.085,8.369,27.445,8.447c10.367,0.128,15.451-6.326,14.854-13.492
	c-0.585-6.729-6.434-11.805-13.081-11.336c3.855-5.437,2.571-13.077-2.873-17.091c-5.787-4.243-13.954-3.25-19.244,5.643
	C596.653,105.293,595.273,112.677,593.322,126.794z"/>
<path fill="#FFFFFF" d="M584.565,173.767c6.329-13.531,9.312-20.818,9.599-28.524c0.415-10.851-6.205-16.362-13.725-15.923
	c-7.066,0.426-12.546,6.41-12.24,13.387c-5.588-4.185-13.624-3.048-17.975,2.548c-4.604,5.941-3.789,14.523,5.387,20.306
	C562.133,169.687,569.832,171.335,584.565,173.767z"/>
<path fill="#FFFFFF" d="M684.207,178.357c11.852-16.656,17.669-25.75,19.949-36.066c3.227-14.512-4.336-23.563-14.574-24.828
	c-9.626-1.159-18.483,5.558-19.778,15.032c-6.5-7.019-17.607-7.458-24.844-0.997c-7.671,6.876-8.68,18.639,2.257,28.683
	C654.988,167.344,664.956,171.467,684.207,178.357z"/>
<path fill="#FFFFFF" d="M727.041,197.629c12.178-7.001,18.413-11.003,22.8-16.785c6.178-8.133,4.053-15.951-1.978-19.678
	c-5.67-3.49-13.124-1.834-16.653,3.7c-2.048-6.24-8.85-9.707-15.226-7.745c-6.756,2.091-10.762,9.137-6.817,18.549
	C711.966,182.368,717,187.801,727.041,197.629z"/>
<path fill="#FFFFFF" d="M686.867,230.41c11.883,4.041,18.243,5.864,24.708,5.391c9.102-0.655,13.093-6.689,12.041-12.934
	c-1.012-5.859-6.515-9.889-12.316-8.985c2.982-5.061,1.295-11.661-3.781-14.783c-5.391-3.297-12.48-1.827-16.463,6.371
	C688.208,211.299,687.538,217.88,686.867,230.41z"/>
<path fill="#FFFFFF" d="M620.87,194.107c10.076-8.495,15.16-13.225,18.244-19.293c4.347-8.543,1.079-15.402-5.105-17.836
	c-5.82-2.271-12.42,0.495-14.753,6.201c-2.933-5.425-9.786-7.484-15.343-4.611c-5.884,3.051-8.411,10.231-3.2,18.255
	C604.411,182.543,609.969,186.708,620.87,194.107z"/>
<path fill="#FFFFFF" d="M635.46,212.301c12.344,9.173,19.089,13.696,26.819,15.567c10.862,2.658,17.788-2.882,18.899-10.565
	c1.029-7.229-3.888-13.993-10.997-15.121c5.386-4.781,5.897-13.124,1.142-18.668c-5.049-5.878-13.878-6.826-21.609,1.245
	C644.204,190.493,640.953,197.918,635.46,212.301z"/>
</svg>
