  0
SECTION
  2
HEADER
  9
$ACADVER
  1
AC1009
  9
$LIMMIN
 10
0.000000
 20
0.000000
  9
$LIMMAX
 10
113.333333
 20
75.071823
  0
ENDSEC
  0
SECTION
  2
TABLES
  0
TABLE
  2
LTYPE
 70
     4
  0
LTYPE
  2
CONTINUOUS
 70
     0
  3
Solid line
 72
     65
 73
     0
 40
0.000000
  0
LTYPE
  2
HIDDEN
 70
     0
  3
 _ _ _ _ _ _ _ _ _ _ _
 72
     65
 73
     2
 40
0.375000
 49
0.250000
 49
-0.125000
  0
LTYPE
  2
DASHED
 70
     0
  3
 ___ ___ ___ ___ ___ ___ ___ 
 72
     65
 73
     2
 40
0.750000
 49
0.500000
 49
-0.250000
  0
LTYPE
  2
CENTER
 70
     0
  3
___ _ ___ _ ___ _ ___
 72
     65
 73
     4
 40
2.000000
 49
1.250000
 49
-0.250000
 49
0.250000
 49
-0.250000
  0
LTYPE
  2
BORDER
 70
     0
  3
___ ___ . ___ ___ . ___ ___
 72
     65
 73
     6
 40
1.750000
 49
0.500000
 49
-0.250000
 49
0.500000
 49
-0.250000
 49
0.000000
 49
-0.250000
  0
LTYPE
  2
DOT
 70
     0
  3
.................
 72
     65
 73
     2
 40
0.250000
 49
0.000000
 49
-0.250000
  0
LTYPE
  2
DASHDOT
 70
     0
  3
__ . __ . __ . __
 72
     65
 73
     4
 40
1.000000
 49
0.500000
 49
-0.250000
 49
0.000000
 49
-0.250000
  0
LTYPE
  2
DIVIDE
 70
     0
  3
___ .. ___ .. ___ .. ___
 72
     65
 73
     6
 40
1.250000
 49
0.500000
 49
-0.250000
 49
0.000000
 49
-0.250000
 49
0.000000
 49
-0.250000
  0
ENDTAB
  0
TABLE
  2
LAYER
 70
     8
  0
LAYER
  2
BLACK
 70
     0
 62
     1
  6
CONTINUOUS
  0
LAYER
  2
WHITE
 70
     0
 62
     7
  6
CONTINUOUS
  0
LAYER
  2
RED
 70
     0
 62
     1
  6
CONTINUOUS
  0
LAYER
  2
YELLOW
 70
     0
 62
     2
  6
CONTINUOUS
  0
LAYER
  2
GREEN
 70
     0
 62
     3
  6
CONTINUOUS
  0
LAYER
  2
CYAN
 70
     0
 62
     4
  6
CONTINUOUS
  0
LAYER
  2
BLUE
 70
     0
 62
     5
  6
CONTINUOUS
  0
LAYER
  2
MAGENTA
 70
     0
 62
     6
  6
CONTINUOUS
  0
ENDTAB
  0
TABLE
  2
APPID
 70
     1
  0
APPID
  2
TC_BEND_DATA
 70
     0
  0
ENDTAB
  0
ENDSEC
  0
SECTION
  2
BLOCKS
  0
ENDSEC
  0
SECTION
  2
ENTITIES
  0
LINE
  8
WHITE
 10
113.333333
 20
72.329887
 30
0.000000
 11
113.333333
 21
2.741935
 31
0.000000
  6
CONTINUOUS
  0
ARC
  8
WHITE
 10
110.591398
 20
2.741935
 30
0.000000
 40
2.741935
 50
-90.000000
 51
0.000000
  6
CONTINUOUS
  0
LINE
  8
WHITE
 10
110.591398
 20
0.000000
 30
0.000000
 11
2.741935
 21
0.000000
 31
0.000000
  6
CONTINUOUS
  0
ARC
  8
WHITE
 10
2.741935
 20
2.741935
 30
0.000000
 40
2.741935
 50
180.000000
 51
270.000000
  6
CONTINUOUS
  0
LINE
  8
WHITE
 10
0.000000
 20
2.741935
 30
0.000000
 11
0.000000
 21
72.329887
 31
0.000000
  6
CONTINUOUS
  0
ARC
  8
WHITE
 10
2.741935
 20
72.329887
 30
0.000000
 40
2.741935
 50
90.000000
 51
180.000000
  6
CONTINUOUS
  0
LINE
  8
WHITE
 10
2.741935
 20
75.071823
 30
0.000000
 11
110.591398
 21
75.071823
 31
0.000000
  6
CONTINUOUS
  0
ARC
  8
WHITE
 10
110.591398
 20
72.329887
 30
0.000000
 40
2.741935
 50
0.000000
 51
90.000000
  6
CONTINUOUS
  0
CIRCLE
  8
WHITE
 10
54.130987
 20
70.821823
 30
0.000000
 40
1.572500
  6
CONTINUOUS
  0
CIRCLE
  8
WHITE
 10
97.167566
 20
4.937935
 30
0.000000
 40
1.572500
  6
CONTINUOUS
  0
LINE
  8
WHITE
 10
44.304169
 20
14.622327
 30
0.000000
 11
88.907627
 21
21.271084
 31
0.000000
  6
CONTINUOUS
  0
LINE
  8
WHITE
 10
88.907627
 20
21.271084
 30
0.000000
 11
90.603664
 21
18.106904
 31
0.000000
  6
CONTINUOUS
  0
ARC
  8
WHITE
 10
90.853386
 20
18.240758
 30
0.000000
 40
0.283333
 50
-151.808179
 51
-93.030691
  6
CONTINUOUS
  0
LINE
  8
WHITE
 10
90.838406
 20
17.957821
 30
0.000000
 11
92.294925
 21
17.880706
 31
0.000000
  6
CONTINUOUS
  0
ARC
  8
WHITE
 10
92.309905
 20
18.163643
 30
0.000000
 40
0.283333
 50
-93.030691
 51
9.346003
  6
CONTINUOUS
  0
LINE
  8
WHITE
 10
92.589477
 20
18.209655
 30
0.000000
 11
91.876597
 21
22.541141
 31
0.000000
  6
CONTINUOUS
  0
LINE
  8
WHITE
 10
91.876597
 20
22.541141
 30
0.000000
 11
89.867834
 21
22.347585
 31
0.000000
  6
CONTINUOUS
  0
LINE
  8
WHITE
 10
89.867834
 20
22.347585
 30
0.000000
 11
89.777469
 21
23.285414
 31
0.000000
  6
CONTINUOUS
  0
LINE
  8
WHITE
 10
89.777469
 20
23.285414
 30
0.000000
 11
91.869009
 21
23.486946
 31
0.000000
  6
CONTINUOUS
  0
LINE
  8
WHITE
 10
91.869009
 20
23.486946
 30
0.000000
 11
93.004667
 21
29.927582
 31
0.000000
  6
CONTINUOUS
  0
ARC
  8
WHITE
 10
92.725638
 20
29.976782
 30
0.000000
 40
0.283333
 50
-10.000000
 51
88.101240
  6
CONTINUOUS
  0
LINE
  8
WHITE
 10
92.735026
 20
30.259960
 30
0.000000
 11
91.291238
 21
30.307824
 31
0.000000
  6
CONTINUOUS
  0
ARC
  8
WHITE
 10
91.281850
 20
30.024646
 30
0.000000
 40
0.283333
 50
88.101240
 51
160.163280
  6
CONTINUOUS
  0
LINE
  8
WHITE
 10
91.015328
 20
30.120793
 30
0.000000
 11
88.907627
 21
24.278179
 31
0.000000
  6
CONTINUOUS
  0
LINE
  8
WHITE
 10
88.907627
 20
24.278179
 30
0.000000
 11
43.625755
 21
21.111762
 31
0.000000
  6
CONTINUOUS
  0
LINE
  8
WHITE
 10
43.625755
 20
21.111762
 30
0.000000
 11
26.399102
 21
22.724070
 31
0.000000
  6
CONTINUOUS
  0
LINE
  8
WHITE
 10
26.399102
 20
22.724070
 30
0.000000
 11
24.960770
 21
30.934788
 31
0.000000
  6
CONTINUOUS
  0
ARC
  8
WHITE
 10
24.402602
 20
30.837009
 30
0.000000
 40
0.566667
 50
9.936110
 51
90.000000
  6
CONTINUOUS
  0
LINE
  8
WHITE
 10
24.402602
 20
31.403676
 30
0.000000
 11
23.375000
 21
31.403676
 31
0.000000
  6
CONTINUOUS
  0
LINE
  8
WHITE
 10
23.375000
 20
31.403676
 30
0.000000
 11
23.375000
 21
18.156499
 31
0.000000
  6
CONTINUOUS
  0
LINE
  8
WHITE
 10
23.375000
 20
18.156499
 30
0.000000
 11
22.525000
 21
18.156499
 31
0.000000
  6
CONTINUOUS
  0
LINE
  8
WHITE
 10
22.525000
 20
18.156499
 30
0.000000
 11
22.525000
 21
31.403676
 31
0.000000
  6
CONTINUOUS
  0
LINE
  8
WHITE
 10
22.525000
 20
31.403676
 30
0.000000
 11
21.497398
 21
31.403676
 31
0.000000
  6
CONTINUOUS
  0
ARC
  8
WHITE
 10
21.497398
 20
30.837009
 30
0.000000
 40
0.566667
 50
90.000000
 51
170.063890
  6
CONTINUOUS
  0
LINE
  8
WHITE
 10
20.939230
 20
30.934788
 30
0.000000
 11
19.550000
 21
23.004369
 31
0.000000
  6
CONTINUOUS
  0
ARC
  8
WHITE
 10
20.851060
 20
7.108305
 30
0.000000
 40
15.949220
 50
94.679109
 51
110.396880
  6
CONTINUOUS
  0
ARC
  8
WHITE
 10
23.497843
 20
-0.009869
 30
0.000000
 40
23.543550
 50
110.396880
 51
154.468485
  6
CONTINUOUS
  0
ARC
  8
WHITE
 10
7.366667
 20
7.695202
 30
0.000000
 40
5.666667
 50
154.468485
 51
227.840662
  6
CONTINUOUS
  0
ARC
  8
WHITE
 10
9.312969
 20
9.844739
 30
0.000000
 40
8.566425
 50
-132.159338
 51
-121.286779
  6
CONTINUOUS
  0
ARC
  8
WHITE
 10
7.807061
 20
7.366667
 30
0.000000
 40
5.666667
 50
-121.286779
 51
-87.831731
  6
CONTINUOUS
  0
LINE
  8
WHITE
 10
8.021456
 20
1.704057
 30
0.000000
 11
9.775000
 21
1.770449
 31
0.000000
  6
CONTINUOUS
  0
LINE
  8
WHITE
 10
9.775000
 20
1.770449
 30
0.000000
 11
9.775000
 21
4.352631
 31
0.000000
  6
CONTINUOUS
  0
LINE
  8
WHITE
 10
9.775000
 20
4.352631
 30
0.000000
 11
10.625000
 21
4.352631
 31
0.000000
  6
CONTINUOUS
  0
LINE
  8
WHITE
 10
10.625000
 20
4.352631
 30
0.000000
 11
10.625000
 21
1.802631
 31
0.000000
  6
CONTINUOUS
  0
LINE
  8
WHITE
 10
10.625000
 20
1.802631
 30
0.000000
 11
21.759249
 21
2.224191
 31
0.000000
  6
CONTINUOUS
  0
ARC
  8
WHITE
 10
21.759249
 20
7.890857
 30
0.000000
 40
5.666667
 50
-90.000000
 51
-31.607502
  6
CONTINUOUS
  0
LINE
  8
WHITE
 10
26.585312
 20
4.920972
 30
0.000000
 11
27.908767
 21
6.810619
 31
0.000000
  6
CONTINUOUS
  0
ARC
  8
WHITE
 10
32.550271
 20
3.559843
 30
0.000000
 40
5.666667
 50
94.000000
 51
144.993714
  6
CONTINUOUS
  0
LINE
  8
WHITE
 10
32.154985
 20
9.212706
 30
0.000000
 11
35.275000
 21
9.430879
 31
0.000000
  6
CONTINUOUS
  0
LINE
  8
WHITE
 10
35.275000
 20
9.430879
 30
0.000000
 11
35.275000
 21
12.010598
 31
0.000000
  6
CONTINUOUS
  0
LINE
  8
WHITE
 10
35.275000
 20
12.010598
 30
0.000000
 11
36.125000
 21
12.010598
 31
0.000000
  6
CONTINUOUS
  0
LINE
  8
WHITE
 10
36.125000
 20
12.010598
 30
0.000000
 11
36.125000
 21
9.490317
 31
0.000000
  6
CONTINUOUS
  0
LINE
  8
WHITE
 10
36.125000
 20
9.490317
 30
0.000000
 11
36.691546
 21
9.529934
 31
0.000000
  6
CONTINUOUS
  0
ARC
  8
WHITE
 10
36.296260
 20
15.182796
 30
0.000000
 40
5.666667
 50
-86.000000
 51
-14.081907
  6
CONTINUOUS
  0
LINE
  8
WHITE
 10
41.792637
 20
13.804047
 30
0.000000
 11
41.908314
 21
14.265192
 31
0.000000
  6
CONTINUOUS
  0
LINE
  8
WHITE
 10
41.908314
 20
14.265192
 30
0.000000
 11
43.709169
 21
14.533634
 31
0.000000
  6
CONTINUOUS
  0
LINE
  8
WHITE
 10
43.709169
 20
14.533634
 30
0.000000
 11
43.709169
 21
12.727431
 31
0.000000
  6
CONTINUOUS
  0
LINE
  8
WHITE
 10
13.795813
 20
31.911949
 30
0.000000
 11
13.839925
 21
32.542776
 31
0.000000
  6
CONTINUOUS
  0
ARC
  8
WHITE
 10
19.492788
 20
32.147489
 30
0.000000
 40
5.666667
 50
125.006286
 51
176.000000
  6
CONTINUOUS
  0
LINE
  8
WHITE
 10
16.242012
 20
36.788994
 30
0.000000
 11
18.131659
 21
38.112448
 31
0.000000
  6
CONTINUOUS
  0
ARC
  8
WHITE
 10
15.161774
 20
42.938512
 30
0.000000
 40
5.666667
 50
-58.392498
 51
0.000000
  6
CONTINUOUS
  0
LINE
  8
WHITE
 10
20.828441
 20
42.938512
 30
0.000000
 11
21.250000
 21
54.072761
 31
0.000000
  6
CONTINUOUS
  0
LINE
  8
WHITE
 10
21.250000
 20
54.072761
 30
0.000000
 11
18.700000
 21
54.072761
 31
0.000000
  6
CONTINUOUS
  0
LINE
  8
WHITE
 10
18.700000
 20
54.072761
 30
0.000000
 11
18.700000
 21
54.922761
 31
0.000000
  6
CONTINUOUS
  0
LINE
  8
WHITE
 10
18.700000
 20
54.922761
 30
0.000000
 11
21.101867
 21
54.922761
 31
0.000000
  6
CONTINUOUS
  0
ARC
  8
WHITE
 10
16.134739
 20
53.766195
 30
0.000000
 40
5.100000
 50
13.107423
 51
31.286779
  6
CONTINUOUS
  0
ARC
  8
WHITE
 10
13.904474
 20
52.410878
 30
0.000000
 40
7.709783
 50
31.286779
 51
42.159338
  6
CONTINUOUS
  0
ARC
  8
WHITE
 10
15.839057
 20
54.162550
 30
0.000000
 40
5.100000
 50
42.159338
 51
115.531515
  6
CONTINUOUS
  0
ARC
  8
WHITE
 10
22.773621
 20
39.644491
 30
0.000000
 40
21.189195
 50
115.531515
 51
159.603120
  6
CONTINUOUS
  0
ARC
  8
WHITE
 10
16.367265
 20
42.026597
 30
0.000000
 40
14.354298
 50
159.603120
 51
179.416571
  6
CONTINUOUS
  0
LINE
  8
WHITE
 10
2.013711
 20
42.172761
 30
0.000000
 11
4.896132
 21
42.172761
 31
0.000000
  6
CONTINUOUS
  0
LINE
  8
WHITE
 10
4.896132
 20
42.172761
 30
0.000000
 11
4.896132
 21
41.322761
 31
0.000000
  6
CONTINUOUS
  0
LINE
  8
WHITE
 10
4.896132
 20
41.322761
 30
0.000000
 11
2.030056
 21
41.322761
 31
0.000000
  6
CONTINUOUS
  0
ARC
  8
WHITE
 10
116.307581
 20
46.401459
 30
0.000000
 40
114.390323
 50
-177.455347
 51
-175.693621
  6
CONTINUOUS
  0
LINE
  8
WHITE
 10
2.240207
 20
37.811919
 30
0.000000
 11
3.641075
 21
22.844389
 31
0.000000
  6
CONTINUOUS
  0
ARC
  8
WHITE
 10
4.769477
 20
22.950000
 30
0.000000
 40
1.133333
 50
-174.653047
 51
-75.918093
  6
CONTINUOUS
  0
LINE
  8
WHITE
 10
5.045227
 20
21.850725
 30
0.000000
 11
9.248584
 21
22.905124
 31
0.000000
  6
CONTINUOUS
  0
ARC
  8
WHITE
 10
7.869835
 20
28.401501
 30
0.000000
 40
5.666667
 50
-75.918093
 51
-4.000000
  6
CONTINUOUS
  0
LINE
  8
WHITE
 10
13.522698
 20
28.006214
 30
0.000000
 11
13.562315
 21
28.572761
 31
0.000000
  6
CONTINUOUS
  0
LINE
  8
WHITE
 10
13.562315
 20
28.572761
 30
0.000000
 11
11.042033
 21
28.572761
 31
0.000000
  6
CONTINUOUS
  0
LINE
  8
WHITE
 10
11.042033
 20
28.572761
 30
0.000000
 11
11.042033
 21
29.422761
 31
0.000000
  6
CONTINUOUS
  0
LINE
  8
WHITE
 10
11.042033
 20
29.422761
 30
0.000000
 11
13.621752
 21
29.422761
 31
0.000000
  6
CONTINUOUS
  0
LINE
  8
WHITE
 10
13.621752
 20
29.422761
 30
0.000000
 11
13.754207
 21
31.316949
 31
0.000000
  6
CONTINUOUS
  0
LINE
  8
WHITE
 10
13.754207
 20
31.316949
 30
0.000000
 11
16.799691
 21
31.316949
 31
0.000000
  6
CONTINUOUS
  0
LINE
  8
WHITE
 10
4.932245
 20
57.737320
 30
0.000000
 11
4.364231
 21
57.737320
 31
0.000000
  6
CONTINUOUS
  0
ARC
  8
WHITE
 10
4.364231
 20
58.502320
 30
0.000000
 40
0.765000
 50
180.000000
 51
270.000000
  6
CONTINUOUS
  0
LINE
  8
WHITE
 10
3.599231
 20
58.502320
 30
0.000000
 11
3.599231
 21
62.922320
 31
0.000000
  6
CONTINUOUS
  0
ARC
  8
WHITE
 10
3.939231
 20
62.922320
 30
0.000000
 40
0.340000
 50
90.000000
 51
180.000000
  6
CONTINUOUS
  0
LINE
  8
WHITE
 10
3.939231
 20
63.262320
 30
0.000000
 11
4.024231
 21
63.262320
 31
0.000000
  6
CONTINUOUS
  0
LINE
  8
WHITE
 10
4.024231
 20
63.262320
 30
0.000000
 11
4.024231
 21
65.578570
 31
0.000000
  6
CONTINUOUS
  0
ARC
  8
WHITE
 10
4.789231
 20
65.578570
 30
0.000000
 40
0.765000
 50
90.000000
 51
180.000000
  6
CONTINUOUS
  0
LINE
  8
WHITE
 10
4.789231
 20
66.343570
 30
0.000000
 11
5.086731
 21
66.343570
 31
0.000000
  6
CONTINUOUS
  0
LINE
  8
WHITE
 10
5.086731
 20
66.343570
 30
0.000000
 11
5.086731
 21
63.793570
 31
0.000000
  6
CONTINUOUS
  0
LINE
  8
WHITE
 10
5.086731
 20
63.793570
 30
0.000000
 11
5.936731
 21
63.793570
 31
0.000000
  6
CONTINUOUS
  0
LINE
  8
WHITE
 10
5.936731
 20
63.793570
 30
0.000000
 11
5.936731
 21
66.343570
 31
0.000000
  6
CONTINUOUS
  0
LINE
  8
WHITE
 10
5.936731
 20
66.343570
 30
0.000000
 11
6.234231
 21
66.343570
 31
0.000000
  6
CONTINUOUS
  0
ARC
  8
WHITE
 10
6.234231
 20
65.578570
 30
0.000000
 40
0.765000
 50
0.000000
 51
90.000000
  6
CONTINUOUS
  0
LINE
  8
WHITE
 10
6.999231
 20
65.578570
 30
0.000000
 11
6.999231
 21
63.262320
 31
0.000000
  6
CONTINUOUS
  0
LINE
  8
WHITE
 10
6.999231
 20
63.262320
 30
0.000000
 11
7.084231
 21
63.262320
 31
0.000000
  6
CONTINUOUS
  0
ARC
  8
WHITE
 10
7.084231
 20
62.922320
 30
0.000000
 40
0.340000
 50
0.000000
 51
90.000000
  6
CONTINUOUS
  0
LINE
  8
WHITE
 10
7.424231
 20
62.922320
 30
0.000000
 11
7.424231
 21
60.287320
 31
0.000000
  6
CONTINUOUS
  0
LINE
  8
WHITE
 10
7.424231
 20
60.287320
 30
0.000000
 11
9.336731
 21
60.287320
 31
0.000000
  6
CONTINUOUS
  0
LINE
  8
WHITE
 10
9.336731
 20
60.287320
 30
0.000000
 11
9.336731
 21
59.437320
 31
0.000000
  6
CONTINUOUS
  0
LINE
  8
WHITE
 10
9.336731
 20
59.437320
 30
0.000000
 11
5.511731
 21
59.437320
 31
0.000000
  6
CONTINUOUS
  0
LINE
  8
WHITE
 10
5.511731
 20
59.437320
 30
0.000000
 11
5.511731
 21
58.587320
 31
0.000000
  6
CONTINUOUS
  0
LINE
  8
WHITE
 10
5.511731
 20
58.587320
 30
0.000000
 11
9.336731
 21
58.587320
 31
0.000000
  6
CONTINUOUS
  0
LINE
  8
WHITE
 10
9.336731
 20
58.587320
 30
0.000000
 11
9.336731
 21
57.737320
 31
0.000000
  6
CONTINUOUS
  0
LINE
  8
WHITE
 10
9.336731
 20
57.737320
 30
0.000000
 11
5.612245
 21
57.737320
 31
0.000000
  6
CONTINUOUS
  0
LINE
  8
WHITE
 10
5.612245
 20
57.737320
 30
0.000000
 11
5.612245
 21
54.239086
 31
0.000000
  6
CONTINUOUS
  0
ARC
  8
WHITE
 10
54.130987
 20
70.821823
 30
0.000000
 40
2.705833
 50
-134.265550
 51
-103.573327
  6
CONTINUOUS
  0
ARC
  8
WHITE
 10
50.264732
 20
66.855156
 30
0.000000
 40
2.833333
 50
45.734450
 51
90.000000
  6
CONTINUOUS
  0
LINE
  8
WHITE
 10
50.264732
 20
69.688490
 30
0.000000
 11
49.051122
 21
69.688490
 31
0.000000
  6
CONTINUOUS
  0
ARC
  8
WHITE
 10
49.051122
 20
68.271823
 30
0.000000
 40
1.416667
 50
90.000000
 51
135.000000
  6
CONTINUOUS
  0
LINE
  8
WHITE
 10
48.049388
 20
69.273558
 30
0.000000
 11
47.946266
 21
69.170435
 31
0.000000
  6
CONTINUOUS
  0
ARC
  8
WHITE
 10
47.144878
 20
69.971823
 30
0.000000
 40
1.133333
 50
-90.000000
 51
-45.000000
  6
CONTINUOUS
  0
LINE
  8
WHITE
 10
47.144878
 20
68.838490
 30
0.000000
 11
5.964320
 21
68.838490
 31
0.000000
  6
CONTINUOUS
  0
ARC
  8
WHITE
 10
5.964320
 20
70.821823
 30
0.000000
 40
1.983333
 50
90.000000
 51
270.000000
  6
CONTINUOUS
  0
LINE
  8
WHITE
 10
5.964320
 20
72.805156
 30
0.000000
 11
47.144878
 21
72.805156
 31
0.000000
  6
CONTINUOUS
  0
ARC
  8
WHITE
 10
47.144878
 20
71.671823
 30
0.000000
 40
1.133333
 50
45.000000
 51
90.000000
  6
CONTINUOUS
  0
LINE
  8
WHITE
 10
47.946266
 20
72.473211
 30
0.000000
 11
48.049388
 21
72.370088
 31
0.000000
  6
CONTINUOUS
  0
ARC
  8
WHITE
 10
49.051122
 20
73.371823
 30
0.000000
 40
1.416667
 50
-135.000000
 51
-90.000000
  6
CONTINUOUS
  0
LINE
  8
WHITE
 10
49.051122
 20
71.955156
 30
0.000000
 11
50.264732
 21
71.955156
 31
0.000000
  6
CONTINUOUS
  0
ARC
  8
WHITE
 10
50.264732
 20
74.788490
 30
0.000000
 40
2.833333
 50
-90.000000
 51
-45.734450
  6
CONTINUOUS
  0
ARC
  8
WHITE
 10
54.130987
 20
70.821823
 30
0.000000
 40
2.705833
 50
45.734450
 51
134.265550
  6
CONTINUOUS
  0
ARC
  8
WHITE
 10
57.997241
 20
74.788490
 30
0.000000
 40
2.833333
 50
-134.265550
 51
-90.000000
  6
CONTINUOUS
  0
LINE
  8
WHITE
 10
57.997241
 20
71.955156
 30
0.000000
 11
59.210851
 21
71.955156
 31
0.000000
  6
CONTINUOUS
  0
ARC
  8
WHITE
 10
59.210851
 20
73.371823
 30
0.000000
 40
1.416667
 50
-90.000000
 51
-45.000000
  6
CONTINUOUS
  0
LINE
  8
WHITE
 10
60.212585
 20
72.370088
 30
0.000000
 11
60.315708
 21
72.473211
 31
0.000000
  6
CONTINUOUS
  0
ARC
  8
WHITE
 10
61.117095
 20
71.671823
 30
0.000000
 40
1.133333
 50
90.000000
 51
135.000000
  6
CONTINUOUS
  0
LINE
  8
WHITE
 10
61.117095
 20
72.805156
 30
0.000000
 11
102.297653
 21
72.805156
 31
0.000000
  6
CONTINUOUS
  0
ARC
  8
WHITE
 10
102.297653
 20
70.821823
 30
0.000000
 40
1.983333
 50
-90.000000
 51
90.000000
  6
CONTINUOUS
  0
LINE
  8
WHITE
 10
102.297653
 20
68.838490
 30
0.000000
 11
61.117095
 21
68.838490
 31
0.000000
  6
CONTINUOUS
  0
ARC
  8
WHITE
 10
61.117095
 20
69.971823
 30
0.000000
 40
1.133333
 50
-135.000000
 51
-90.000000
  6
CONTINUOUS
  0
LINE
  8
WHITE
 10
60.315708
 20
69.170435
 30
0.000000
 11
60.212585
 21
69.273558
 31
0.000000
  6
CONTINUOUS
  0
ARC
  8
WHITE
 10
59.210851
 20
68.271823
 30
0.000000
 40
1.416667
 50
45.000000
 51
90.000000
  6
CONTINUOUS
  0
LINE
  8
WHITE
 10
59.210851
 20
69.688490
 30
0.000000
 11
57.997241
 21
69.688490
 31
0.000000
  6
CONTINUOUS
  0
ARC
  8
WHITE
 10
57.997241
 20
66.855156
 30
0.000000
 40
2.833333
 50
90.000000
 51
134.265550
  6
CONTINUOUS
  0
ARC
  8
WHITE
 10
54.130987
 20
70.821823
 30
0.000000
 40
2.705833
 50
-89.047741
 51
-45.734450
  6
CONTINUOUS
  0
LINE
  8
WHITE
 10
54.175956
 20
68.116363
 30
0.000000
 11
54.175956
 21
65.553199
 31
0.000000
  6
CONTINUOUS
  0
ARC
  8
WHITE
 10
18.025968
 20
64.168176
 30
0.000000
 40
3.059918
 50
110.592184
 51
174.142570
  6
CONTINUOUS
  0
LINE
  8
WHITE
 10
16.949753
 20
67.032589
 30
0.000000
 11
16.949753
 21
65.624597
 31
0.000000
  6
CONTINUOUS
  0
LINE
  8
WHITE
 10
16.949753
 20
65.624597
 30
0.000000
 11
20.009753
 21
65.624597
 31
0.000000
  6
CONTINUOUS
  0
LINE
  8
WHITE
 10
20.009753
 20
65.624597
 30
0.000000
 11
20.009753
 21
64.562097
 31
0.000000
  6
CONTINUOUS
  0
LINE
  8
WHITE
 10
20.009753
 20
64.562097
 30
0.000000
 11
17.459753
 21
64.562097
 31
0.000000
  6
CONTINUOUS
  0
LINE
  8
WHITE
 10
17.459753
 20
64.562097
 30
0.000000
 11
17.459753
 21
63.712097
 31
0.000000
  6
CONTINUOUS
  0
LINE
  8
WHITE
 10
17.459753
 20
63.712097
 30
0.000000
 11
20.009753
 21
63.712097
 31
0.000000
  6
CONTINUOUS
  0
LINE
  8
WHITE
 10
20.009753
 20
63.712097
 30
0.000000
 11
20.009753
 21
62.649597
 31
0.000000
  6
CONTINUOUS
  0
LINE
  8
WHITE
 10
20.009753
 20
62.649597
 30
0.000000
 11
16.949753
 21
62.649597
 31
0.000000
  6
CONTINUOUS
  0
LINE
  8
WHITE
 10
16.949753
 20
62.649597
 30
0.000000
 11
16.949753
 21
61.303764
 31
0.000000
  6
CONTINUOUS
  0
ARC
  8
WHITE
 10
18.025968
 20
64.168176
 30
0.000000
 40
3.059918
 50
-178.674699
 51
-110.592184
  6
CONTINUOUS
  0
LINE
  8
WHITE
 10
14.966869
 20
64.097404
 30
0.000000
 11
11.614064
 21
64.097404
 31
0.000000
  6
CONTINUOUS
  0
LINE
  8
WHITE
 10
43.053878
 20
43.944770
 30
0.000000
 11
43.030263
 21
44.568472
 31
0.000000
  6
CONTINUOUS
  0
ARC
  8
WHITE
 10
37.363597
 20
44.568472
 30
0.000000
 40
5.666667
 50
0.000000
 51
58.392498
  6
CONTINUOUS
  0
LINE
  8
WHITE
 10
40.333482
 20
49.394536
 30
0.000000
 11
38.443835
 21
50.717990
 31
0.000000
  6
CONTINUOUS
  0
ARC
  8
WHITE
 10
41.694611
 20
55.359495
 30
0.000000
 40
5.666667
 50
-176.000000
 51
-125.006286
  6
CONTINUOUS
  0
LINE
  8
WHITE
 10
36.041748
 20
54.964209
 30
0.000000
 11
35.823575
 21
58.084224
 31
0.000000
  6
CONTINUOUS
  0
LINE
  8
WHITE
 10
35.823575
 20
58.084224
 30
0.000000
 11
33.243856
 21
58.084224
 31
0.000000
  6
CONTINUOUS
  0
LINE
  8
WHITE
 10
33.243856
 20
58.084224
 30
0.000000
 11
33.243856
 21
58.934224
 31
0.000000
  6
CONTINUOUS
  0
LINE
  8
WHITE
 10
33.243856
 20
58.934224
 30
0.000000
 11
35.764137
 21
58.934224
 31
0.000000
  6
CONTINUOUS
  0
LINE
  8
WHITE
 10
35.764137
 20
58.934224
 30
0.000000
 11
35.724521
 21
59.500770
 31
0.000000
  6
CONTINUOUS
  0
ARC
  8
WHITE
 10
30.071658
 20
59.105483
 30
0.000000
 40
5.666667
 50
4.000000
 51
75.918093
  6
CONTINUOUS
  0
LINE
  8
WHITE
 10
31.450407
 20
64.601860
 30
0.000000
 11
27.247050
 21
65.656260
 31
0.000000
  6
CONTINUOUS
  0
ARC
  8
WHITE
 10
26.971300
 20
64.556984
 30
0.000000
 40
1.133333
 50
75.918093
 51
174.653047
  6
CONTINUOUS
  0
LINE
  8
WHITE
 10
25.842898
 20
64.662596
 30
0.000000
 11
24.442030
 21
49.695066
 31
0.000000
  6
CONTINUOUS
  0
ARC
  8
WHITE
 10
138.509404
 20
41.105525
 30
0.000000
 40
114.390323
 50
175.693621
 51
177.455347
  6
CONTINUOUS
  0
LINE
  8
WHITE
 10
24.231879
 20
46.184224
 30
0.000000
 11
27.097955
 21
46.184224
 31
0.000000
  6
CONTINUOUS
  0
LINE
  8
WHITE
 10
27.097955
 20
46.184224
 30
0.000000
 11
27.097955
 21
45.334224
 31
0.000000
  6
CONTINUOUS
  0
LINE
  8
WHITE
 10
27.097955
 20
45.334224
 30
0.000000
 11
24.215534
 21
45.334224
 31
0.000000
  6
CONTINUOUS
  0
ARC
  8
WHITE
 10
38.569087
 20
45.480388
 30
0.000000
 40
14.354298
 50
-179.416571
 51
-159.603120
  6
CONTINUOUS
  0
ARC
  8
WHITE
 10
44.975444
 20
47.862493
 30
0.000000
 40
21.189195
 50
-159.603120
 51
-115.531515
  6
CONTINUOUS
  0
ARC
  8
WHITE
 10
38.040880
 20
33.344434
 30
0.000000
 40
5.100000
 50
-115.531515
 51
-42.159338
  6
CONTINUOUS
  0
ARC
  8
WHITE
 10
36.106297
 20
35.096106
 30
0.000000
 40
7.709783
 50
-42.159338
 51
-31.286779
  6
CONTINUOUS
  0
ARC
  8
WHITE
 10
38.336562
 20
33.740789
 30
0.000000
 40
5.100000
 50
-31.286779
 51
-13.107423
  6
CONTINUOUS
  0
LINE
  8
WHITE
 10
43.303689
 20
32.584224
 30
0.000000
 11
40.901823
 21
32.584224
 31
0.000000
  6
CONTINUOUS
  0
LINE
  8
WHITE
 10
40.901823
 20
32.584224
 30
0.000000
 11
40.901823
 21
33.434224
 31
0.000000
  6
CONTINUOUS
  0
LINE
  8
WHITE
 10
40.901823
 20
33.434224
 30
0.000000
 11
43.451823
 21
33.434224
 31
0.000000
  6
CONTINUOUS
  0
LINE
  8
WHITE
 10
43.451823
 20
33.434224
 30
0.000000
 11
43.076405
 21
43.349770
 31
0.000000
  6
CONTINUOUS
  0
LINE
  8
WHITE
 10
43.076405
 20
43.349770
 30
0.000000
 11
47.898828
 21
43.349770
 31
0.000000
  6
CONTINUOUS
  0
LINE
  8
WHITE
 10
61.159018
 20
6.391091
 30
0.000000
 11
46.282676
 21
6.391091
 31
0.000000
  6
CONTINUOUS
  0
LINE
  8
WHITE
 10
46.282676
 20
6.391091
 30
0.000000
 11
46.282676
 21
7.524424
 31
0.000000
  6
CONTINUOUS
  0
ARC
  8
WHITE
 10
45.999343
 20
7.524424
 30
0.000000
 40
0.283333
 50
0.000000
 51
90.000000
  6
CONTINUOUS
  0
LINE
  8
WHITE
 10
45.999343
 20
7.807757
 30
0.000000
 11
41.182676
 21
7.807757
 31
0.000000
  6
CONTINUOUS
  0
ARC
  8
WHITE
 10
41.182676
 20
7.524424
 30
0.000000
 40
0.283333
 50
90.000000
 51
180.000000
  6
CONTINUOUS
  0
LINE
  8
WHITE
 10
40.899343
 20
7.524424
 30
0.000000
 11
40.899343
 21
6.391091
 31
0.000000
  6
CONTINUOUS
  0
LINE
  8
WHITE
 10
40.899343
 20
6.391091
 30
0.000000
 11
35.100491
 21
6.391091
 31
0.000000
  6
CONTINUOUS
  0
ARC
  8
WHITE
 10
35.100491
 20
1.291091
 30
0.000000
 40
5.100000
 50
90.000000
 51
149.176098
  6
CONTINUOUS
  0
ARC
  8
WHITE
 10
31.694131
 20
3.323615
 30
0.000000
 40
1.133333
 50
149.176098
 51
329.176098
  6
CONTINUOUS
  0
ARC
  8
WHITE
 10
35.100491
 20
1.291091
 30
0.000000
 40
2.833333
 50
90.000000
 51
149.176098
  6
CONTINUOUS
  0
LINE
  8
WHITE
 10
35.100491
 20
4.124424
 30
0.000000
 11
43.166009
 21
4.124424
 31
0.000000
  6
CONTINUOUS
  0
LINE
  8
WHITE
 10
43.166009
 20
4.124424
 30
0.000000
 11
43.166009
 21
5.541091
 31
0.000000
  6
CONTINUOUS
  0
LINE
  8
WHITE
 10
43.166009
 20
5.541091
 30
0.000000
 11
44.016009
 21
5.541091
 31
0.000000
  6
CONTINUOUS
  0
LINE
  8
WHITE
 10
44.016009
 20
5.541091
 30
0.000000
 11
44.016009
 21
4.124424
 31
0.000000
  6
CONTINUOUS
  0
LINE
  8
WHITE
 10
44.016009
 20
4.124424
 30
0.000000
 11
68.666009
 21
4.124424
 31
0.000000
  6
CONTINUOUS
  0
LINE
  8
WHITE
 10
68.666009
 20
4.124424
 30
0.000000
 11
68.666009
 21
5.541091
 31
0.000000
  6
CONTINUOUS
  0
LINE
  8
WHITE
 10
68.666009
 20
5.541091
 30
0.000000
 11
69.516009
 21
5.541091
 31
0.000000
  6
CONTINUOUS
  0
LINE
  8
WHITE
 10
69.516009
 20
5.541091
 30
0.000000
 11
69.516009
 21
4.124424
 31
0.000000
  6
CONTINUOUS
  0
LINE
  8
WHITE
 10
69.516009
 20
4.124424
 30
0.000000
 11
77.581528
 21
4.124424
 31
0.000000
  6
CONTINUOUS
  0
ARC
  8
WHITE
 10
77.581528
 20
1.291091
 30
0.000000
 40
2.833333
 50
30.823902
 51
90.000000
  6
CONTINUOUS
  0
ARC
  8
WHITE
 10
80.987888
 20
3.323615
 30
0.000000
 40
1.133333
 50
-149.176098
 51
30.823902
  6
CONTINUOUS
  0
ARC
  8
WHITE
 10
77.581528
 20
1.291091
 30
0.000000
 40
5.100000
 50
30.823902
 51
90.000000
  6
CONTINUOUS
  0
LINE
  8
WHITE
 10
77.581528
 20
6.391091
 30
0.000000
 11
71.782676
 21
6.391091
 31
0.000000
  6
CONTINUOUS
  0
LINE
  8
WHITE
 10
71.782676
 20
6.391091
 30
0.000000
 11
71.782676
 21
7.524424
 31
0.000000
  6
CONTINUOUS
  0
ARC
  8
WHITE
 10
71.499343
 20
7.524424
 30
0.000000
 40
0.283333
 50
0.000000
 51
90.000000
  6
CONTINUOUS
  0
LINE
  8
WHITE
 10
71.499343
 20
7.807757
 30
0.000000
 11
66.682676
 21
7.807757
 31
0.000000
  6
CONTINUOUS
  0
ARC
  8
WHITE
 10
66.682676
 20
7.524424
 30
0.000000
 40
0.283333
 50
90.000000
 51
180.000000
  6
CONTINUOUS
  0
LINE
  8
WHITE
 10
66.399343
 20
7.524424
 30
0.000000
 11
66.399343
 21
6.391091
 31
0.000000
  6
CONTINUOUS
  0
LINE
  8
WHITE
 10
66.399343
 20
6.391091
 30
0.000000
 11
61.754018
 21
6.391091
 31
0.000000
  6
CONTINUOUS
  0
LINE
  8
WHITE
 10
61.754018
 20
6.391091
 30
0.000000
 11
61.754018
 21
8.982471
 31
0.000000
  6
CONTINUOUS
  0
LINE
  8
WHITE
 10
61.159018
 20
58.849229
 30
0.000000
 11
60.462186
 21
58.897956
 31
0.000000
  6
CONTINUOUS
  0
ARC
  8
WHITE
 10
60.857473
 20
64.550819
 30
0.000000
 40
5.666667
 50
-144.993714
 51
-94.000000
  6
CONTINUOUS
  0
LINE
  8
WHITE
 10
56.215968
 20
61.300043
 30
0.000000
 11
54.892514
 21
63.189690
 31
0.000000
  6
CONTINUOUS
  0
ARC
  8
WHITE
 10
50.066450
 20
60.219805
 30
0.000000
 40
5.666667
 50
31.607502
 51
90.000000
  6
CONTINUOUS
  0
LINE
  8
WHITE
 10
50.066450
 20
65.886472
 30
0.000000
 11
42.224508
 21
66.183379
 31
0.000000
  6
CONTINUOUS
  0
ARC
  8
WHITE
 10
42.050820
 20
61.596667
 30
0.000000
 40
4.590000
 50
87.831386
 51
121.286779
  6
CONTINUOUS
  0
ARC
  8
WHITE
 10
43.270606
 20
59.589428
 30
0.000000
 40
6.938804
 50
121.286779
 51
128.699662
  6
CONTINUOUS
  0
LINE
  8
WHITE
 10
38.932201
 20
65.004708
 30
0.000000
 11
38.932201
 21
63.758031
 31
0.000000
  6
CONTINUOUS
  0
LINE
  8
WHITE
 10
38.932201
 20
63.758031
 30
0.000000
 11
38.082201
 21
63.758031
 31
0.000000
  6
CONTINUOUS
  0
LINE
  8
WHITE
 10
38.082201
 20
63.758031
 30
0.000000
 11
38.082201
 21
64.162916
 31
0.000000
  6
CONTINUOUS
  0
ARC
  8
WHITE
 10
41.694101
 20
61.330553
 30
0.000000
 40
4.590000
 50
141.897326
 51
205.531515
  6
CONTINUOUS
  0
ARC
  8
WHITE
 10
54.760354
 20
67.571660
 30
0.000000
 40
19.070276
 50
-154.468485
 51
-110.396880
  6
CONTINUOUS
  0
ARC
  8
WHITE
 10
52.616459
 20
61.805940
 30
0.000000
 40
12.918868
 50
-110.396880
 51
-97.938642
  6
CONTINUOUS
  0
LINE
  8
WHITE
 10
50.832201
 20
49.010879
 30
0.000000
 11
50.832201
 21
49.954163
 31
0.000000
  6
CONTINUOUS
  0
LINE
  8
WHITE
 10
50.832201
 20
49.954163
 30
0.000000
 11
51.682201
 21
49.954163
 31
0.000000
  6
CONTINUOUS
  0
LINE
  8
WHITE
 10
51.682201
 20
49.954163
 30
0.000000
 11
51.682201
 21
48.920897
 31
0.000000
  6
CONTINUOUS
  0
ARC
  8
WHITE
 10
52.616459
 20
61.805940
 30
0.000000
 40
12.918868
 50
-94.147097
 51
-87.493492
  6
CONTINUOUS
  0
ARC
  8
WHITE
 10
48.679083
 20
151.752225
 30
0.000000
 40
102.951291
 50
-87.493492
 51
-85.693621
  6
CONTINUOUS
  0
LINE
  8
WHITE
 10
56.409670
 20
49.091588
 30
0.000000
 11
69.748945
 21
50.340062
 31
0.000000
  6
CONTINUOUS
  0
ARC
  8
WHITE
 10
69.643333
 20
51.468464
 30
0.000000
 40
1.133333
 50
-84.653047
 51
14.081907
  6
CONTINUOUS
  0
LINE
  8
WHITE
 10
70.742609
 20
51.744213
 30
0.000000
 11
70.099838
 21
54.306615
 31
0.000000
  6
CONTINUOUS
  0
ARC
  8
WHITE
 10
64.603461
 20
52.927866
 30
0.000000
 40
5.666667
 50
14.081907
 51
86.000000
  6
CONTINUOUS
  0
LINE
  8
WHITE
 10
64.998748
 20
58.580729
 30
0.000000
 11
64.432201
 21
58.620346
 31
0.000000
  6
CONTINUOUS
  0
LINE
  8
WHITE
 10
64.432201
 20
58.620346
 30
0.000000
 11
64.432201
 21
56.100064
 31
0.000000
  6
CONTINUOUS
  0
LINE
  8
WHITE
 10
64.432201
 20
56.100064
 30
0.000000
 11
63.582201
 21
56.100064
 31
0.000000
  6
CONTINUOUS
  0
LINE
  8
WHITE
 10
63.582201
 20
56.100064
 30
0.000000
 11
63.582201
 21
58.679783
 31
0.000000
  6
CONTINUOUS
  0
LINE
  8
WHITE
 10
63.582201
 20
58.679783
 30
0.000000
 11
61.873296
 21
58.799282
 31
0.000000
  6
CONTINUOUS
  0
LINE
  8
WHITE
 10
61.873296
 20
58.799282
 30
0.000000
 11
61.873296
 21
60.717552
 31
0.000000
  6
CONTINUOUS
  0
LINE
  8
WHITE
 10
70.473543
 20
33.103142
 30
0.000000
 11
71.528100
 21
33.176883
 31
0.000000
  6
CONTINUOUS
  0
LINE
  8
WHITE
 10
71.528100
 20
33.176883
 30
0.000000
 11
71.528100
 21
35.756602
 31
0.000000
  6
CONTINUOUS
  0
LINE
  8
WHITE
 10
71.528100
 20
35.756602
 30
0.000000
 11
72.378100
 21
35.756602
 31
0.000000
  6
CONTINUOUS
  0
LINE
  8
WHITE
 10
72.378100
 20
35.756602
 30
0.000000
 11
72.378100
 21
33.236321
 31
0.000000
  6
CONTINUOUS
  0
LINE
  8
WHITE
 10
72.378100
 20
33.236321
 30
0.000000
 11
72.944647
 21
33.275938
 31
0.000000
  6
CONTINUOUS
  0
ARC
  8
WHITE
 10
72.549360
 20
38.928801
 30
0.000000
 40
5.666667
 50
-86.000000
 51
-14.081907
  6
CONTINUOUS
  0
LINE
  8
WHITE
 10
78.045737
 20
37.550051
 30
0.000000
 11
78.688508
 21
40.112453
 31
0.000000
  6
CONTINUOUS
  0
ARC
  8
WHITE
 10
77.589232
 20
40.388203
 30
0.000000
 40
1.133333
 50
-14.081907
 51
84.653047
  6
CONTINUOUS
  0
LINE
  8
WHITE
 10
77.694844
 20
41.516605
 30
0.000000
 11
64.355569
 21
42.765078
 31
0.000000
  6
CONTINUOUS
  0
ARC
  8
WHITE
 10
56.624982
 20
-59.895558
 30
0.000000
 40
102.951291
 50
85.693621
 51
87.493492
  6
CONTINUOUS
  0
ARC
  8
WHITE
 10
60.562358
 20
30.050727
 30
0.000000
 40
12.918868
 50
87.493492
 51
94.147097
  6
CONTINUOUS
  0
LINE
  8
WHITE
 10
59.628100
 20
42.935769
 30
0.000000
 11
59.628100
 21
41.902503
 31
0.000000
  6
CONTINUOUS
  0
LINE
  8
WHITE
 10
59.628100
 20
41.902503
 30
0.000000
 11
58.778100
 21
41.902503
 31
0.000000
  6
CONTINUOUS
  0
LINE
  8
WHITE
 10
58.778100
 20
41.902503
 30
0.000000
 11
58.778100
 21
42.845788
 31
0.000000
  6
CONTINUOUS
  0
ARC
  8
WHITE
 10
60.562358
 20
30.050727
 30
0.000000
 40
12.918868
 50
97.938642
 51
110.396880
  6
CONTINUOUS
  0
ARC
  8
WHITE
 10
62.706253
 20
24.285006
 30
0.000000
 40
19.070276
 50
110.396880
 51
154.468485
  6
CONTINUOUS
  0
ARC
  8
WHITE
 10
49.640000
 20
30.526114
 30
0.000000
 40
4.590000
 50
154.468485
 51
218.102674
  6
CONTINUOUS
  0
LINE
  8
WHITE
 10
46.028100
 20
27.693751
 30
0.000000
 11
46.028100
 21
28.098636
 31
0.000000
  6
CONTINUOUS
  0
LINE
  8
WHITE
 10
46.028100
 20
28.098636
 30
0.000000
 11
46.878100
 21
28.098636
 31
0.000000
  6
CONTINUOUS
  0
LINE
  8
WHITE
 10
46.878100
 20
28.098636
 30
0.000000
 11
46.878100
 21
26.851959
 31
0.000000
  6
CONTINUOUS
  0
ARC
  8
WHITE
 10
51.216505
 20
32.267238
 30
0.000000
 40
6.938804
 50
-128.699662
 51
-121.286779
  6
CONTINUOUS
  0
ARC
  8
WHITE
 10
49.996719
 20
30.260000
 30
0.000000
 40
4.590000
 50
-121.286779
 51
-87.831386
  6
CONTINUOUS
  0
LINE
  8
WHITE
 10
50.170407
 20
25.673287
 30
0.000000
 11
58.012349
 21
25.970195
 31
0.000000
  6
CONTINUOUS
  0
ARC
  8
WHITE
 10
58.012349
 20
31.636862
 30
0.000000
 40
5.666667
 50
-90.000000
 51
-31.607502
  6
CONTINUOUS
  0
LINE
  8
WHITE
 10
62.838413
 20
28.666976
 30
0.000000
 11
64.161867
 21
30.556623
 31
0.000000
  6
CONTINUOUS
  0
ARC
  8
WHITE
 10
68.803372
 20
27.305848
 30
0.000000
 40
5.666667
 50
94.000000
 51
144.993714
  6
CONTINUOUS
  0
LINE
  8
WHITE
 10
68.408085
 20
32.958711
 30
0.000000
 11
69.878543
 21
33.061535
 31
0.000000
  6
CONTINUOUS
  0
LINE
  8
WHITE
 10
69.878543
 20
33.061535
 30
0.000000
 11
69.878543
 21
28.915388
 31
0.000000
  6
CONTINUOUS
  0
LINE
  8
WHITE
 10
75.389102
 20
12.602238
 30
0.000000
 11
64.916116
 21
12.602238
 31
0.000000
  6
CONTINUOUS
  0
LINE
  8
WHITE
 10
64.916116
 20
12.602238
 30
0.000000
 11
64.916116
 21
13.735571
 31
0.000000
  6
CONTINUOUS
  0
ARC
  8
WHITE
 10
64.632783
 20
13.735571
 30
0.000000
 40
0.283333
 50
0.000000
 51
90.000000
  6
CONTINUOUS
  0
LINE
  8
WHITE
 10
64.632783
 20
14.018904
 30
0.000000
 11
59.816116
 21
14.018904
 31
0.000000
  6
CONTINUOUS
  0
ARC
  8
WHITE
 10
59.816116
 20
13.735571
 30
0.000000
 40
0.283333
 50
90.000000
 51
180.000000
  6
CONTINUOUS
  0
LINE
  8
WHITE
 10
59.532783
 20
13.735571
 30
0.000000
 11
59.532783
 21
12.602238
 31
0.000000
  6
CONTINUOUS
  0
LINE
  8
WHITE
 10
59.532783
 20
12.602238
 30
0.000000
 11
53.733931
 21
12.602238
 31
0.000000
  6
CONTINUOUS
  0
ARC
  8
WHITE
 10
53.733931
 20
7.502238
 30
0.000000
 40
5.100000
 50
90.000000
 51
149.176098
  6
CONTINUOUS
  0
ARC
  8
WHITE
 10
50.327571
 20
9.534762
 30
0.000000
 40
1.133333
 50
149.176098
 51
329.176098
  6
CONTINUOUS
  0
ARC
  8
WHITE
 10
53.733931
 20
7.502238
 30
0.000000
 40
2.833333
 50
90.000000
 51
149.176098
  6
CONTINUOUS
  0
LINE
  8
WHITE
 10
53.733931
 20
10.335571
 30
0.000000
 11
61.799450
 21
10.335571
 31
0.000000
  6
CONTINUOUS
  0
LINE
  8
WHITE
 10
61.799450
 20
10.335571
 30
0.000000
 11
61.799450
 21
11.752238
 31
0.000000
  6
CONTINUOUS
  0
LINE
  8
WHITE
 10
61.799450
 20
11.752238
 30
0.000000
 11
62.649450
 21
11.752238
 31
0.000000
  6
CONTINUOUS
  0
LINE
  8
WHITE
 10
62.649450
 20
11.752238
 30
0.000000
 11
62.649450
 21
10.335571
 31
0.000000
  6
CONTINUOUS
  0
LINE
  8
WHITE
 10
62.649450
 20
10.335571
 30
0.000000
 11
87.299450
 21
10.335571
 31
0.000000
  6
CONTINUOUS
  0
LINE
  8
WHITE
 10
87.299450
 20
10.335571
 30
0.000000
 11
87.299450
 21
11.752238
 31
0.000000
  6
CONTINUOUS
  0
LINE
  8
WHITE
 10
87.299450
 20
11.752238
 30
0.000000
 11
88.149450
 21
11.752238
 31
0.000000
  6
CONTINUOUS
  0
LINE
  8
WHITE
 10
88.149450
 20
11.752238
 30
0.000000
 11
88.149450
 21
10.335571
 31
0.000000
  6
CONTINUOUS
  0
LINE
  8
WHITE
 10
88.149450
 20
10.335571
 30
0.000000
 11
96.214968
 21
10.335571
 31
0.000000
  6
CONTINUOUS
  0
ARC
  8
WHITE
 10
96.214968
 20
7.502238
 30
0.000000
 40
2.833333
 50
30.823902
 51
90.000000
  6
CONTINUOUS
  0
ARC
  8
WHITE
 10
99.621328
 20
9.534762
 30
0.000000
 40
1.133333
 50
-149.176098
 51
30.823902
  6
CONTINUOUS
  0
ARC
  8
WHITE
 10
96.214968
 20
7.502238
 30
0.000000
 40
5.100000
 50
30.823902
 51
90.000000
  6
CONTINUOUS
  0
LINE
  8
WHITE
 10
96.214968
 20
12.602238
 30
0.000000
 11
90.416116
 21
12.602238
 31
0.000000
  6
CONTINUOUS
  0
LINE
  8
WHITE
 10
90.416116
 20
12.602238
 30
0.000000
 11
90.416116
 21
13.735571
 31
0.000000
  6
CONTINUOUS
  0
ARC
  8
WHITE
 10
90.132783
 20
13.735571
 30
0.000000
 40
0.283333
 50
0.000000
 51
90.000000
  6
CONTINUOUS
  0
LINE
  8
WHITE
 10
90.132783
 20
14.018904
 30
0.000000
 11
85.316116
 21
14.018904
 31
0.000000
  6
CONTINUOUS
  0
ARC
  8
WHITE
 10
85.316116
 20
13.735571
 30
0.000000
 40
0.283333
 50
90.000000
 51
180.000000
  6
CONTINUOUS
  0
LINE
  8
WHITE
 10
85.032783
 20
13.735571
 30
0.000000
 11
85.032783
 21
12.602238
 31
0.000000
  6
CONTINUOUS
  0
LINE
  8
WHITE
 10
85.032783
 20
12.602238
 30
0.000000
 11
75.984102
 21
12.602238
 31
0.000000
  6
CONTINUOUS
  0
LINE
  8
WHITE
 10
75.984102
 20
12.602238
 30
0.000000
 11
75.984102
 21
15.383847
 31
0.000000
  6
CONTINUOUS
  0
LINE
  8
WHITE
 10
79.780252
 20
64.883333
 30
0.000000
 11
81.033333
 21
64.883333
 31
0.000000
  6
CONTINUOUS
  0
LINE
  8
WHITE
 10
81.033333
 20
64.883333
 30
0.000000
 11
81.033333
 21
62.333333
 31
0.000000
  6
CONTINUOUS
  0
LINE
  8
WHITE
 10
81.033333
 20
62.333333
 30
0.000000
 11
81.883333
 21
62.333333
 31
0.000000
  6
CONTINUOUS
  0
LINE
  8
WHITE
 10
81.883333
 20
62.333333
 30
0.000000
 11
81.883333
 21
64.883333
 31
0.000000
  6
CONTINUOUS
  0
LINE
  8
WHITE
 10
81.883333
 20
64.883333
 30
0.000000
 11
85.283333
 21
64.883333
 31
0.000000
  6
CONTINUOUS
  0
LINE
  8
WHITE
 10
85.283333
 20
64.883333
 30
0.000000
 11
85.283333
 21
62.333333
 31
0.000000
  6
CONTINUOUS
  0
LINE
  8
WHITE
 10
85.283333
 20
62.333333
 30
0.000000
 11
86.133333
 21
62.333333
 31
0.000000
  6
CONTINUOUS
  0
LINE
  8
WHITE
 10
86.133333
 20
62.333333
 30
0.000000
 11
86.133333
 21
64.883333
 31
0.000000
  6
CONTINUOUS
  0
LINE
  8
WHITE
 10
86.133333
 20
64.883333
 30
0.000000
 11
87.266667
 21
64.883333
 31
0.000000
  6
CONTINUOUS
  0
ARC
  8
WHITE
 10
87.266667
 20
64.316667
 30
0.000000
 40
0.566667
 50
0.000000
 51
90.000000
  6
CONTINUOUS
  0
LINE
  8
WHITE
 10
87.833333
 20
64.316667
 30
0.000000
 11
87.833333
 21
63.863467
 31
0.000000
  6
CONTINUOUS
  0
ARC
  8
WHITE
 10
85.000000
 20
63.863467
 30
0.000000
 40
2.833333
 50
-66.107589
 51
0.000000
  6
CONTINUOUS
  0
ARC
  8
WHITE
 10
15.134799
 20
221.579649
 30
0.000000
 40
175.331276
 50
-67.976754
 51
-66.107589
  6
CONTINUOUS
  0
LINE
  8
WHITE
 10
80.881000
 20
59.041981
 30
0.000000
 11
79.120833
 21
48.994073
 31
0.000000
  6
CONTINUOUS
  0
ARC
  8
WHITE
 10
78.780833
 20
48.994073
 30
0.000000
 40
0.340000
 50
-90.000000
 51
0.000000
  6
CONTINUOUS
  0
LINE
  8
WHITE
 10
78.780833
 20
48.654073
 30
0.000000
 11
78.695833
 21
48.654073
 31
0.000000
  6
CONTINUOUS
  0
LINE
  8
WHITE
 10
78.695833
 20
48.654073
 30
0.000000
 11
78.695833
 21
46.337823
 31
0.000000
  6
CONTINUOUS
  0
ARC
  8
WHITE
 10
77.930833
 20
46.337823
 30
0.000000
 40
0.765000
 50
-90.000000
 51
0.000000
  6
CONTINUOUS
  0
LINE
  8
WHITE
 10
77.930833
 20
45.572823
 30
0.000000
 11
77.633333
 21
45.572823
 31
0.000000
  6
CONTINUOUS
  0
LINE
  8
WHITE
 10
77.633333
 20
45.572823
 30
0.000000
 11
77.633333
 21
48.619976
 31
0.000000
  6
CONTINUOUS
  0
LINE
  8
WHITE
 10
77.633333
 20
48.619976
 30
0.000000
 11
76.783333
 21
48.619976
 31
0.000000
  6
CONTINUOUS
  0
LINE
  8
WHITE
 10
76.783333
 20
48.619976
 30
0.000000
 11
76.783333
 21
45.572823
 31
0.000000
  6
CONTINUOUS
  0
LINE
  8
WHITE
 10
76.783333
 20
45.572823
 30
0.000000
 11
76.485833
 21
45.572823
 31
0.000000
  6
CONTINUOUS
  0
ARC
  8
WHITE
 10
76.485833
 20
46.337823
 30
0.000000
 40
0.765000
 50
180.000000
 51
270.000000
  6
CONTINUOUS
  0
LINE
  8
WHITE
 10
75.720833
 20
46.337823
 30
0.000000
 11
75.720833
 21
48.654073
 31
0.000000
  6
CONTINUOUS
  0
LINE
  8
WHITE
 10
75.720833
 20
48.654073
 30
0.000000
 11
75.635833
 21
48.654073
 31
0.000000
  6
CONTINUOUS
  0
ARC
  8
WHITE
 10
75.635833
 20
48.994073
 30
0.000000
 40
0.340000
 50
180.000000
 51
270.000000
  6
CONTINUOUS
  0
LINE
  8
WHITE
 10
75.295833
 20
48.994073
 30
0.000000
 11
73.535666
 21
59.041981
 31
0.000000
  6
CONTINUOUS
  0
ARC
  8
WHITE
 10
139.281868
 20
221.579649
 30
0.000000
 40
175.331276
 50
-113.892411
 51
-112.023246
  6
CONTINUOUS
  0
ARC
  8
WHITE
 10
69.416667
 20
63.863467
 30
0.000000
 40
2.833333
 50
180.000000
 51
246.107589
  6
CONTINUOUS
  0
LINE
  8
WHITE
 10
66.583333
 20
63.863467
 30
0.000000
 11
66.583333
 21
64.316667
 31
0.000000
  6
CONTINUOUS
  0
ARC
  8
WHITE
 10
67.150000
 20
64.316667
 30
0.000000
 40
0.566667
 50
90.000000
 51
180.000000
  6
CONTINUOUS
  0
LINE
  8
WHITE
 10
67.150000
 20
64.883333
 30
0.000000
 11
68.283333
 21
64.883333
 31
0.000000
  6
CONTINUOUS
  0
LINE
  8
WHITE
 10
68.283333
 20
64.883333
 30
0.000000
 11
68.283333
 21
62.333333
 31
0.000000
  6
CONTINUOUS
  0
LINE
  8
WHITE
 10
68.283333
 20
62.333333
 30
0.000000
 11
69.133333
 21
62.333333
 31
0.000000
  6
CONTINUOUS
  0
LINE
  8
WHITE
 10
69.133333
 20
62.333333
 30
0.000000
 11
69.133333
 21
64.883333
 31
0.000000
  6
CONTINUOUS
  0
LINE
  8
WHITE
 10
69.133333
 20
64.883333
 30
0.000000
 11
72.533333
 21
64.883333
 31
0.000000
  6
CONTINUOUS
  0
LINE
  8
WHITE
 10
72.533333
 20
64.883333
 30
0.000000
 11
72.533333
 21
62.333333
 31
0.000000
  6
CONTINUOUS
  0
LINE
  8
WHITE
 10
72.533333
 20
62.333333
 30
0.000000
 11
73.383333
 21
62.333333
 31
0.000000
  6
CONTINUOUS
  0
LINE
  8
WHITE
 10
73.383333
 20
62.333333
 30
0.000000
 11
73.383333
 21
64.883333
 31
0.000000
  6
CONTINUOUS
  0
LINE
  8
WHITE
 10
73.383333
 20
64.883333
 30
0.000000
 11
76.783333
 21
64.883333
 31
0.000000
  6
CONTINUOUS
  0
LINE
  8
WHITE
 10
76.783333
 20
64.883333
 30
0.000000
 11
76.783333
 21
62.333333
 31
0.000000
  6
CONTINUOUS
  0
LINE
  8
WHITE
 10
76.783333
 20
62.333333
 30
0.000000
 11
77.633333
 21
62.333333
 31
0.000000
  6
CONTINUOUS
  0
LINE
  8
WHITE
 10
77.633333
 20
62.333333
 30
0.000000
 11
77.633333
 21
64.883333
 31
0.000000
  6
CONTINUOUS
  0
LINE
  8
WHITE
 10
77.633333
 20
64.883333
 30
0.000000
 11
79.185252
 21
64.883333
 31
0.000000
  6
CONTINUOUS
  0
LINE
  8
WHITE
 10
79.185252
 20
64.883333
 30
0.000000
 11
79.185252
 21
67.457010
 31
0.000000
  6
CONTINUOUS
  0
ARC
  8
WHITE
 10
71.399246
 20
45.299710
 30
0.000000
 40
17.000000
 50
1.889024
 51
23.082021
  6
CONTINUOUS
  0
ARC
  8
WHITE
 10
-74.256751
 20
-16.773825
 30
0.000000
 40
175.331276
 50
23.082021
 51
23.852906
  6
CONTINUOUS
  0
ARC
  8
WHITE
 10
98.142721
 20
26.297918
 30
0.000000
 40
30.324722
 50
88.584579
 51
113.400880
  6
CONTINUOUS
  0
LINE
  8
WHITE
 10
98.891779
 20
56.613388
 30
0.000000
 11
100.838721
 21
56.991579
 31
0.000000
  6
CONTINUOUS
  0
ARC
  8
WHITE
 10
100.730667
 20
57.547848
 30
0.000000
 40
0.566667
 50
-79.007270
 51
10.992730
  6
CONTINUOUS
  0
LINE
  8
WHITE
 10
101.286936
 20
57.655902
 30
0.000000
 11
101.259922
 21
57.794970
 31
0.000000
  6
CONTINUOUS
  0
LINE
  8
WHITE
 10
101.259922
 20
57.794970
 30
0.000000
 11
99.869249
 21
57.524833
 31
0.000000
  6
CONTINUOUS
  0
LINE
  8
WHITE
 10
99.869249
 20
57.524833
 30
0.000000
 11
99.707168
 21
58.359237
 31
0.000000
  6
CONTINUOUS
  0
LINE
  8
WHITE
 10
99.707168
 20
58.359237
 30
0.000000
 11
101.097840
 21
58.629373
 31
0.000000
  6
CONTINUOUS
  0
LINE
  8
WHITE
 10
101.097840
 20
58.629373
 30
0.000000
 11
101.070827
 21
58.768441
 31
0.000000
  6
CONTINUOUS
  0
ARC
  8
WHITE
 10
100.514558
 20
58.660386
 30
0.000000
 40
0.566667
 50
10.992730
 51
100.992730
  6
CONTINUOUS
  0
LINE
  8
WHITE
 10
100.406503
 20
59.216655
 30
0.000000
 11
98.459561
 21
58.838464
 31
0.000000
  6
CONTINUOUS
  0
ARC
  8
WHITE
 10
86.415734
 20
86.668934
 30
0.000000
 40
30.324722
 50
-91.415421
 51
-66.599120
  6
CONTINUOUS
  0
LINE
  8
WHITE
 10
85.666676
 20
56.353464
 30
0.000000
 11
83.459431
 21
55.924710
 31
0.000000
  6
CONTINUOUS
  0
LINE
  8
WHITE
 10
83.459431
 20
55.924710
 30
0.000000
 11
83.006232
 21
55.924710
 31
0.000000
  6
CONTINUOUS
  0
ARC
  8
WHITE
 10
83.006232
 20
55.358043
 30
0.000000
 40
0.566667
 50
90.000000
 51
180.000000
  6
CONTINUOUS
  0
LINE
  8
WHITE
 10
82.439565
 20
55.358043
 30
0.000000
 11
82.439565
 21
54.224710
 31
0.000000
  6
CONTINUOUS
  0
LINE
  8
WHITE
 10
82.439565
 20
54.224710
 30
0.000000
 11
84.989565
 21
54.224710
 31
0.000000
  6
CONTINUOUS
  0
LINE
  8
WHITE
 10
84.989565
 20
54.224710
 30
0.000000
 11
84.989565
 21
53.374710
 31
0.000000
  6
CONTINUOUS
  0
LINE
  8
WHITE
 10
84.989565
 20
53.374710
 30
0.000000
 11
82.439565
 21
53.374710
 31
0.000000
  6
CONTINUOUS
  0
LINE
  8
WHITE
 10
82.439565
 20
53.374710
 30
0.000000
 11
82.439565
 21
49.974710
 31
0.000000
  6
CONTINUOUS
  0
LINE
  8
WHITE
 10
82.439565
 20
49.974710
 30
0.000000
 11
84.989565
 21
49.974710
 31
0.000000
  6
CONTINUOUS
  0
LINE
  8
WHITE
 10
84.989565
 20
49.974710
 30
0.000000
 11
84.989565
 21
49.124710
 31
0.000000
  6
CONTINUOUS
  0
LINE
  8
WHITE
 10
84.989565
 20
49.124710
 30
0.000000
 11
82.439565
 21
49.124710
 31
0.000000
  6
CONTINUOUS
  0
LINE
  8
WHITE
 10
82.439565
 20
49.124710
 30
0.000000
 11
82.439565
 21
45.724710
 31
0.000000
  6
CONTINUOUS
  0
LINE
  8
WHITE
 10
82.439565
 20
45.724710
 30
0.000000
 11
84.989565
 21
45.724710
 31
0.000000
  6
CONTINUOUS
  0
LINE
  8
WHITE
 10
84.989565
 20
45.724710
 30
0.000000
 11
84.989565
 21
44.874710
 31
0.000000
  6
CONTINUOUS
  0
LINE
  8
WHITE
 10
84.989565
 20
44.874710
 30
0.000000
 11
82.439565
 21
44.874710
 31
0.000000
  6
CONTINUOUS
  0
LINE
  8
WHITE
 10
82.439565
 20
44.874710
 30
0.000000
 11
82.439565
 21
41.474710
 31
0.000000
  6
CONTINUOUS
  0
LINE
  8
WHITE
 10
82.439565
 20
41.474710
 30
0.000000
 11
84.989565
 21
41.474710
 31
0.000000
  6
CONTINUOUS
  0
LINE
  8
WHITE
 10
84.989565
 20
41.474710
 30
0.000000
 11
84.989565
 21
40.624710
 31
0.000000
  6
CONTINUOUS
  0
LINE
  8
WHITE
 10
84.989565
 20
40.624710
 30
0.000000
 11
82.439565
 21
40.624710
 31
0.000000
  6
CONTINUOUS
  0
LINE
  8
WHITE
 10
82.439565
 20
40.624710
 30
0.000000
 11
82.439565
 21
37.224710
 31
0.000000
  6
CONTINUOUS
  0
LINE
  8
WHITE
 10
82.439565
 20
37.224710
 30
0.000000
 11
84.989565
 21
37.224710
 31
0.000000
  6
CONTINUOUS
  0
LINE
  8
WHITE
 10
84.989565
 20
37.224710
 30
0.000000
 11
84.989565
 21
36.374710
 31
0.000000
  6
CONTINUOUS
  0
LINE
  8
WHITE
 10
84.989565
 20
36.374710
 30
0.000000
 11
82.439565
 21
36.374710
 31
0.000000
  6
CONTINUOUS
  0
LINE
  8
WHITE
 10
82.439565
 20
36.374710
 30
0.000000
 11
82.439565
 21
35.241376
 31
0.000000
  6
CONTINUOUS
  0
ARC
  8
WHITE
 10
83.006232
 20
35.241376
 30
0.000000
 40
0.566667
 50
180.000000
 51
270.000000
  6
CONTINUOUS
  0
LINE
  8
WHITE
 10
83.006232
 20
34.674710
 30
0.000000
 11
83.459431
 21
34.674710
 31
0.000000
  6
CONTINUOUS
  0
LINE
  8
WHITE
 10
83.459431
 20
34.674710
 30
0.000000
 11
85.666676
 21
34.245955
 31
0.000000
  6
CONTINUOUS
  0
ARC
  8
WHITE
 10
86.415734
 20
3.930486
 30
0.000000
 40
30.324722
 50
66.599120
 51
91.415421
  6
CONTINUOUS
  0
LINE
  8
WHITE
 10
98.459561
 20
31.760955
 30
0.000000
 11
100.406503
 21
31.382764
 31
0.000000
  6
CONTINUOUS
  0
ARC
  8
WHITE
 10
100.514558
 20
31.939033
 30
0.000000
 40
0.566667
 50
-100.992730
 51
-10.992730
  6
CONTINUOUS
  0
LINE
  8
WHITE
 10
101.070827
 20
31.830979
 30
0.000000
 11
101.097840
 21
31.970046
 31
0.000000
  6
CONTINUOUS
  0
LINE
  8
WHITE
 10
101.097840
 20
31.970046
 30
0.000000
 11
99.707168
 21
32.240182
 31
0.000000
  6
CONTINUOUS
  0
LINE
  8
WHITE
 10
99.707168
 20
32.240182
 30
0.000000
 11
99.869249
 21
33.074586
 31
0.000000
  6
CONTINUOUS
  0
LINE
  8
WHITE
 10
99.869249
 20
33.074586
 30
0.000000
 11
101.259922
 21
32.804450
 31
0.000000
  6
CONTINUOUS
  0
LINE
  8
WHITE
 10
101.259922
 20
32.804450
 30
0.000000
 11
101.286936
 21
32.943517
 31
0.000000
  6
CONTINUOUS
  0
ARC
  8
WHITE
 10
100.730667
 20
33.051572
 30
0.000000
 40
0.566667
 50
-10.992730
 51
79.007270
  6
CONTINUOUS
  0
LINE
  8
WHITE
 10
100.838721
 20
33.607841
 30
0.000000
 11
98.891779
 21
33.986031
 31
0.000000
  6
CONTINUOUS
  0
ARC
  8
WHITE
 10
98.142721
 20
64.301501
 30
0.000000
 40
30.324722
 50
-113.400880
 51
-88.584579
  6
CONTINUOUS
  0
ARC
  8
WHITE
 10
-74.256751
 20
107.373244
 30
0.000000
 40
175.331276
 50
-23.852906
 51
-23.082021
  6
CONTINUOUS
  0
ARC
  8
WHITE
 10
71.399246
 20
45.299710
 30
0.000000
 40
17.000000
 50
-23.082021
 51
-0.116671
  6
CONTINUOUS
  0
LINE
  8
WHITE
 10
88.399211
 20
45.265093
 30
0.000000
 11
92.058647
 21
45.265093
 31
0.000000
  6
CONTINUOUS
  0
LINE
  8
WHITE
 10
106.609184
 20
7.077101
 30
0.000000
 11
102.228950
 21
7.077101
 31
0.000000
  6
CONTINUOUS
  0
ARC
  8
WHITE
 10
102.228950
 20
4.810435
 30
0.000000
 40
2.266667
 50
90.000000
 51
135.000000
  6
CONTINUOUS
  0
LINE
  8
WHITE
 10
100.626175
 20
6.413210
 30
0.000000
 11
100.000899
 21
5.787935
 31
0.000000
  6
CONTINUOUS
  0
LINE
  8
WHITE
 10
100.000899
 20
5.787935
 30
0.000000
 11
99.472905
 21
5.787935
 31
0.000000
  6
CONTINUOUS
  0
ARC
  8
WHITE
 10
99.472905
 20
6.354601
 30
0.000000
 40
0.566667
 50
-148.428632
 51
-90.000000
  6
CONTINUOUS
  0
ARC
  8
WHITE
 10
97.167566
 20
4.937935
 30
0.000000
 40
2.139167
 50
31.571368
 51
167.911396
  6
CONTINUOUS
  0
ARC
  8
WHITE
 10
94.521735
 20
5.504601
 30
0.000000
 40
0.566667
 50
-90.000000
 51
-12.088604
  6
CONTINUOUS
  0
LINE
  8
WHITE
 10
94.521735
 20
4.937935
 30
0.000000
 11
85.834233
 21
4.937935
 31
0.000000
  6
CONTINUOUS
  0
ARC
  8
WHITE
 10
85.834233
 20
3.868351
 30
0.000000
 40
1.069583
 50
90.000000
 51
270.000000
  6
CONTINUOUS
  0
LINE
  8
WHITE
 10
85.834233
 20
2.798768
 30
0.000000
 11
92.106182
 21
2.798768
 31
0.000000
  6
CONTINUOUS
  0
ARC
  8
WHITE
 10
92.106182
 20
5.065435
 30
0.000000
 40
2.266667
 50
-90.000000
 51
-45.000000
  6
CONTINUOUS
  0
LINE
  8
WHITE
 10
93.708957
 20
3.462659
 30
0.000000
 11
94.334233
 21
4.087935
 31
0.000000
  6
CONTINUOUS
  0
LINE
  8
WHITE
 10
94.334233
 20
4.087935
 30
0.000000
 11
94.862227
 21
4.087935
 31
0.000000
  6
CONTINUOUS
  0
ARC
  8
WHITE
 10
94.862227
 20
3.521268
 30
0.000000
 40
0.566667
 50
31.571368
 51
90.000000
  6
CONTINUOUS
  0
ARC
  8
WHITE
 10
97.167566
 20
4.937935
 30
0.000000
 40
2.139167
 50
-148.428632
 51
-12.088604
  6
CONTINUOUS
  0
ARC
  8
WHITE
 10
99.813397
 20
4.371268
 30
0.000000
 40
0.566667
 50
90.000000
 51
167.911396
  6
CONTINUOUS
  0
LINE
  8
WHITE
 10
99.813397
 20
4.937935
 30
0.000000
 11
108.500899
 21
4.937935
 31
0.000000
  6
CONTINUOUS
  0
ARC
  8
WHITE
 10
108.500899
 20
6.007518
 30
0.000000
 40
1.069583
 50
-90.000000
 51
90.000000
  6
CONTINUOUS
  0
LINE
  8
WHITE
 10
108.500899
 20
7.077101
 30
0.000000
 11
107.289184
 21
7.077101
 31
0.000000
  6
CONTINUOUS
  0
LINE
  8
WHITE
 10
107.289184
 20
7.077101
 30
0.000000
 11
107.289184
 21
10.666363
 31
0.000000
  6
CONTINUOUS
  0
ARC
  8
WHITE
 10
97.403047
 20
63.967673
 30
0.000000
 40
3.059918
 50
110.592184
 51
170.352913
  6
CONTINUOUS
  0
LINE
  8
WHITE
 10
96.326831
 20
66.832086
 30
0.000000
 11
96.326831
 21
65.424095
 31
0.000000
  6
CONTINUOUS
  0
LINE
  8
WHITE
 10
96.326831
 20
65.424095
 30
0.000000
 11
99.386831
 21
65.424095
 31
0.000000
  6
CONTINUOUS
  0
LINE
  8
WHITE
 10
99.386831
 20
65.424095
 30
0.000000
 11
99.386831
 21
64.361595
 31
0.000000
  6
CONTINUOUS
  0
LINE
  8
WHITE
 10
99.386831
 20
64.361595
 30
0.000000
 11
96.836831
 21
64.361595
 31
0.000000
  6
CONTINUOUS
  0
LINE
  8
WHITE
 10
96.836831
 20
64.361595
 30
0.000000
 11
96.836831
 21
63.511595
 31
0.000000
  6
CONTINUOUS
  0
LINE
  8
WHITE
 10
96.836831
 20
63.511595
 30
0.000000
 11
99.386831
 21
63.511595
 31
0.000000
  6
CONTINUOUS
  0
LINE
  8
WHITE
 10
99.386831
 20
63.511595
 30
0.000000
 11
99.386831
 21
62.449095
 31
0.000000
  6
CONTINUOUS
  0
LINE
  8
WHITE
 10
99.386831
 20
62.449095
 30
0.000000
 11
96.326831
 21
62.449095
 31
0.000000
  6
CONTINUOUS
  0
LINE
  8
WHITE
 10
96.326831
 20
62.449095
 30
0.000000
 11
96.326831
 21
61.103261
 31
0.000000
  6
CONTINUOUS
  0
ARC
  8
WHITE
 10
97.403047
 20
63.967673
 30
0.000000
 40
3.059918
 50
-178.460239
 51
-110.592184
  6
CONTINUOUS
  0
LINE
  8
WHITE
 10
94.344234
 20
63.885451
 30
0.000000
 11
90.970506
 21
63.885451
 31
0.000000
  6
CONTINUOUS
  0
ARC
  8
WHITE
 10
120.783454
 20
38.183890
 30
0.000000
 40
17.000000
 50
156.917979
 51
176.879834
  6
CONTINUOUS
  0
ARC
  8
WHITE
 10
266.439451
 20
-23.889644
 30
0.000000
 40
175.331276
 50
156.147094
 51
156.917979
  6
CONTINUOUS
  0
ARC
  8
WHITE
 10
97.868963
 20
36.585508
 30
0.000000
 40
13.274307
 50
51.767583
 51
76.583884
  6
CONTINUOUS
  0
LINE
  8
WHITE
 10
100.948887
 20
49.497569
 30
0.000000
 11
99.001945
 21
49.875759
 31
0.000000
  6
CONTINUOUS
  0
ARC
  8
WHITE
 10
99.110000
 20
50.432028
 30
0.000000
 40
0.566667
 50
169.007270
 51
259.007270
  6
CONTINUOUS
  0
LINE
  8
WHITE
 10
98.553731
 20
50.540083
 30
0.000000
 11
98.580745
 21
50.679150
 31
0.000000
  6
CONTINUOUS
  0
LINE
  8
WHITE
 10
98.580745
 20
50.679150
 30
0.000000
 11
99.971417
 21
50.409014
 31
0.000000
  6
CONTINUOUS
  0
LINE
  8
WHITE
 10
99.971417
 20
50.409014
 30
0.000000
 11
100.133499
 21
51.243418
 31
0.000000
  6
CONTINUOUS
  0
LINE
  8
WHITE
 10
100.133499
 20
51.243418
 30
0.000000
 11
98.742826
 21
51.513554
 31
0.000000
  6
CONTINUOUS
  0
LINE
  8
WHITE
 10
98.742826
 20
51.513554
 30
0.000000
 11
98.769840
 21
51.652621
 31
0.000000
  6
CONTINUOUS
  0
ARC
  8
WHITE
 10
99.326109
 20
51.544567
 30
0.000000
 40
0.566667
 50
79.007270
 51
169.007270
  6
CONTINUOUS
  0
LINE
  8
WHITE
 10
99.434164
 20
52.100836
 30
0.000000
 11
101.381105
 21
51.722645
 31
0.000000
  6
CONTINUOUS
  0
ARC
  8
WHITE
 10
109.595949
 20
62.149705
 30
0.000000
 40
13.274307
 50
-128.232417
 51
-103.416116
  6
CONTINUOUS
  0
LINE
  8
WHITE
 10
106.516025
 20
49.237645
 30
0.000000
 11
108.723269
 21
48.808890
 31
0.000000
  6
CONTINUOUS
  0
LINE
  8
WHITE
 10
108.723269
 20
48.808890
 30
0.000000
 11
109.176469
 21
48.808890
 31
0.000000
  6
CONTINUOUS
  0
ARC
  8
WHITE
 10
109.176469
 20
48.242224
 30
0.000000
 40
0.566667
 50
0.000000
 51
90.000000
  6
CONTINUOUS
  0
LINE
  8
WHITE
 10
109.743135
 20
48.242224
 30
0.000000
 11
109.743135
 21
47.108890
 31
0.000000
  6
CONTINUOUS
  0
LINE
  8
WHITE
 10
109.743135
 20
47.108890
 30
0.000000
 11
108.528480
 21
47.108890
 31
0.000000
  6
CONTINUOUS
  0
LINE
  8
WHITE
 10
108.528480
 20
47.108890
 30
0.000000
 11
108.528480
 21
46.258890
 31
0.000000
  6
CONTINUOUS
  0
LINE
  8
WHITE
 10
108.528480
 20
46.258890
 30
0.000000
 11
109.743135
 21
46.258890
 31
0.000000
  6
CONTINUOUS
  0
LINE
  8
WHITE
 10
109.743135
 20
46.258890
 30
0.000000
 11
109.743135
 21
42.858890
 31
0.000000
  6
CONTINUOUS
  0
LINE
  8
WHITE
 10
109.743135
 20
42.858890
 30
0.000000
 11
107.193135
 21
42.858890
 31
0.000000
  6
CONTINUOUS
  0
LINE
  8
WHITE
 10
107.193135
 20
42.858890
 30
0.000000
 11
107.193135
 21
42.008890
 31
0.000000
  6
CONTINUOUS
  0
LINE
  8
WHITE
 10
107.193135
 20
42.008890
 30
0.000000
 11
109.743135
 21
42.008890
 31
0.000000
  6
CONTINUOUS
  0
LINE
  8
WHITE
 10
109.743135
 20
42.008890
 30
0.000000
 11
109.743135
 21
38.608890
 31
0.000000
  6
CONTINUOUS
  0
LINE
  8
WHITE
 10
109.743135
 20
38.608890
 30
0.000000
 11
107.193135
 21
38.608890
 31
0.000000
  6
CONTINUOUS
  0
LINE
  8
WHITE
 10
107.193135
 20
38.608890
 30
0.000000
 11
107.193135
 21
37.758890
 31
0.000000
  6
CONTINUOUS
  0
LINE
  8
WHITE
 10
107.193135
 20
37.758890
 30
0.000000
 11
109.743135
 21
37.758890
 31
0.000000
  6
CONTINUOUS
  0
LINE
  8
WHITE
 10
109.743135
 20
37.758890
 30
0.000000
 11
109.743135
 21
34.358890
 31
0.000000
  6
CONTINUOUS
  0
LINE
  8
WHITE
 10
109.743135
 20
34.358890
 30
0.000000
 11
107.193135
 21
34.358890
 31
0.000000
  6
CONTINUOUS
  0
LINE
  8
WHITE
 10
107.193135
 20
34.358890
 30
0.000000
 11
107.193135
 21
33.508890
 31
0.000000
  6
CONTINUOUS
  0
LINE
  8
WHITE
 10
107.193135
 20
33.508890
 30
0.000000
 11
109.743135
 21
33.508890
 31
0.000000
  6
CONTINUOUS
  0
LINE
  8
WHITE
 10
109.743135
 20
33.508890
 30
0.000000
 11
109.743135
 21
30.108890
 31
0.000000
  6
CONTINUOUS
  0
LINE
  8
WHITE
 10
109.743135
 20
30.108890
 30
0.000000
 11
108.528480
 21
30.108890
 31
0.000000
  6
CONTINUOUS
  0
LINE
  8
WHITE
 10
108.528480
 20
30.108890
 30
0.000000
 11
108.528480
 21
29.258890
 31
0.000000
  6
CONTINUOUS
  0
LINE
  8
WHITE
 10
108.528480
 20
29.258890
 30
0.000000
 11
109.743135
 21
29.258890
 31
0.000000
  6
CONTINUOUS
  0
LINE
  8
WHITE
 10
109.743135
 20
29.258890
 30
0.000000
 11
109.743135
 21
28.125557
 31
0.000000
  6
CONTINUOUS
  0
ARC
  8
WHITE
 10
109.176469
 20
28.125557
 30
0.000000
 40
0.566667
 50
-90.000000
 51
0.000000
  6
CONTINUOUS
  0
LINE
  8
WHITE
 10
109.176469
 20
27.558890
 30
0.000000
 11
108.723269
 21
27.558890
 31
0.000000
  6
CONTINUOUS
  0
LINE
  8
WHITE
 10
108.723269
 20
27.558890
 30
0.000000
 11
106.516025
 21
27.130136
 31
0.000000
  6
CONTINUOUS
  0
ARC
  8
WHITE
 10
109.595949
 20
14.218076
 30
0.000000
 40
13.274307
 50
103.416116
 51
128.232417
  6
CONTINUOUS
  0
LINE
  8
WHITE
 10
101.381105
 20
24.645136
 30
0.000000
 11
99.434164
 21
24.266945
 31
0.000000
  6
CONTINUOUS
  0
ARC
  8
WHITE
 10
99.326109
 20
24.823214
 30
0.000000
 40
0.566667
 50
-169.007270
 51
-79.007270
  6
CONTINUOUS
  0
LINE
  8
WHITE
 10
98.769840
 20
24.715159
 30
0.000000
 11
98.742826
 21
24.854227
 31
0.000000
  6
CONTINUOUS
  0
LINE
  8
WHITE
 10
98.742826
 20
24.854227
 30
0.000000
 11
100.133499
 21
25.124363
 31
0.000000
  6
CONTINUOUS
  0
LINE
  8
WHITE
 10
100.133499
 20
25.124363
 30
0.000000
 11
99.971417
 21
25.958767
 31
0.000000
  6
CONTINUOUS
  0
LINE
  8
WHITE
 10
99.971417
 20
25.958767
 30
0.000000
 11
98.580745
 21
25.688630
 31
0.000000
  6
CONTINUOUS
  0
LINE
  8
WHITE
 10
98.580745
 20
25.688630
 30
0.000000
 11
98.553731
 21
25.827698
 31
0.000000
  6
CONTINUOUS
  0
ARC
  8
WHITE
 10
99.110000
 20
25.935752
 30
0.000000
 40
0.566667
 50
100.992730
 51
190.992730
  6
CONTINUOUS
  0
LINE
  8
WHITE
 10
99.001945
 20
26.492021
 30
0.000000
 11
100.948887
 21
26.870212
 31
0.000000
  6
CONTINUOUS
  0
ARC
  8
WHITE
 10
97.868963
 20
39.782272
 30
0.000000
 40
13.274307
 50
-76.583884
 51
-51.767583
  6
CONTINUOUS
  0
ARC
  8
WHITE
 10
266.439451
 20
100.257425
 30
0.000000
 40
175.331276
 50
-156.917979
 51
-156.147094
  6
CONTINUOUS
  0
ARC
  8
WHITE
 10
120.783454
 20
38.183890
 30
0.000000
 40
17.000000
 50
178.886658
 51
203.082021
  6
CONTINUOUS
  0
LINE
  8
WHITE
 10
103.786664
 20
38.514205
 30
0.000000
 11
99.958831
 21
38.514205
 31
0.000000
  6
CONTINUOUS
  0
ENDSEC
  0
EOF
