  0
SECTION
  2
HEADER
  9
$ACADVER
  1
AC1018
  9
$ACADMAINTVER
 70
     0
  9
$DWGCODEPAGE
  3
ANSI_1252
  9
$INSBASE
 10
0.0
 20
0.0
 30
0.0
  9
$EXTMIN
 10
-5.00758
 20
-10.87859
 30
0.0
  9
$EXTMAX
 10
3.94633
 20
-1.23765
 30
0.0
  9
$LIMMIN
 10
0.0
 20
0.0
  9
$LIMMAX
 10
12.0
 20
9.0
  9
$ORTHOMODE
 70
     0
  9
$REGENMODE
 70
     1
  9
$FILLMODE
 70
     1
  9
$QTEXTMODE
 70
     0
  9
$MIRRTEXT
 70
     1
  9
$LTSCALE
 40
1.0
  9
$ATTMODE
 70
     1
  9
$TEXTSIZE
 40
0.2
  9
$TRACEWID
 40
0.05
  9
$TEXTSTYLE
  7
Standard
  9
$CLAYER
  8
0
  9
$CELTYPE
  6
ByLayer
  9
$CECOLOR
 62
   256
  9
$CELTSCALE
 40
1.0
  9
$DISPSILH
 70
     0
  9
$DIMSCALE
 40
1.0
  9
$DIMASZ
 40
0.18
  9
$DIMEXO
 40
0.0625
  9
$DIMDLI
 40
0.38
  9
$DIMRND
 40
0.0
  9
$DIMDLE
 40
0.0
  9
$DIMEXE
 40
0.18
  9
$DIMTP
 40
0.0
  9
$DIMTM
 40
0.0
  9
$DIMTXT
 40
0.18
  9
$DIMCEN
 40
0.09
  9
$DIMTSZ
 40
0.0
  9
$DIMTOL
 70
     0
  9
$DIMLIM
 70
     0
  9
$DIMTIH
 70
     1
  9
$DIMTOH
 70
     1
  9
$DIMSE1
 70
     0
  9
$DIMSE2
 70
     0
  9
$DIMTAD
 70
     0
  9
$DIMZIN
 70
     0
  9
$DIMBLK
  1

  9
$DIMASO
 70
     1
  9
$DIMSHO
 70
     1
  9
$DIMPOST
  1

  9
$DIMAPOST
  1

  9
$DIMALT
 70
     0
  9
$DIMALTD
 70
     2
  9
$DIMALTF
 40
25.4
  9
$DIMLFAC
 40
1.0
  9
$DIMTOFL
 70
     0
  9
$DIMTVP
 40
0.0
  9
$DIMTIX
 70
     0
  9
$DIMSOXD
 70
     0
  9
$DIMSAH
 70
     0
  9
$DIMBLK1
  1

  9
$DIMBLK2
  1

  9
$DIMSTYLE
  2
Standard
  9
$DIMCLRD
 70
     0
  9
$DIMCLRE
 70
     0
  9
$DIMCLRT
 70
     0
  9
$DIMTFAC
 40
1.0
  9
$DIMGAP
 40
0.09
  9
$DIMJUST
 70
     0
  9
$DIMSD1
 70
     0
  9
$DIMSD2
 70
     0
  9
$DIMTOLJ
 70
     1
  9
$DIMTZIN
 70
     0
  9
$DIMALTZ
 70
     0
  9
$DIMALTTZ
 70
     0
  9
$DIMUPT
 70
     0
  9
$DIMDEC
 70
     4
  9
$DIMTDEC
 70
     4
  9
$DIMALTU
 70
     2
  9
$DIMALTTD
 70
     2
  9
$DIMTXSTY
  7
Standard
  9
$DIMAUNIT
 70
     0
  9
$DIMADEC
 70
     0
  9
$DIMALTRND
 40
0.0
  9
$DIMAZIN
 70
     0
  9
$DIMDSEP
 70
    46
  9
$DIMATFIT
 70
     3
  9
$DIMFRAC
 70
     0
  9
$DIMLDRBLK
  1

  9
$DIMLUNIT
 70
     2
  9
$DIMLWD
 70
    -2
  9
$DIMLWE
 70
    -2
  9
$DIMTMOVE
 70
     0
  9
$LUNITS
 70
     2
  9
$LUPREC
 70
     4
  9
$SKETCHINC
 40
0.1
  9
$FILLETRAD
 40
0.5
  9
$AUNITS
 70
     0
  9
$AUPREC
 70
     0
  9
$MENU
  1
.
  9
$ELEVATION
 40
0.0
  9
$PELEVATION
 40
0.0
  9
$THICKNESS
 40
0.0
  9
$LIMCHECK
 70
     0
  9
$CHAMFERA
 40
0.5
  9
$CHAMFERB
 40
0.5
  9
$CHAMFERC
 40
1.0
  9
$CHAMFERD
 40
0.0
  9
$SKPOLY
 70
     0
  9
$TDCREATE
 40
2457608.388159479
  9
$TDUCREATE
 40
2457608.513159479
  9
$TDUPDATE
 40
2457608.388159664
  9
$TDUUPDATE
 40
2457608.513159664
  9
$TDINDWG
 40
0.0000000116
  9
$TDUSRTIMER
 40
0.0000000116
  9
$USRTIMER
 70
     1
  9
$ANGBASE
 50
0.0
  9
$ANGDIR
 70
     0
  9
$PDMODE
 70
     0
  9
$PDSIZE
 40
0.0
  9
$PLINEWID
 40
0.0
  9
$SPLFRAME
 70
     0
  9
$SPLINETYPE
 70
     6
  9
$SPLINESEGS
 70
     8
  9
$HANDSEED
  5
8D
  9
$SURFTAB1
 70
     6
  9
$SURFTAB2
 70
     6
  9
$SURFTYPE
 70
     6
  9
$SURFU
 70
     6
  9
$SURFV
 70
     6
  9
$UCSBASE
  2

  9
$UCSNAME
  2

  9
$UCSORG
 10
0.0
 20
0.0
 30
0.0
  9
$UCSXDIR
 10
1.0
 20
0.0
 30
0.0
  9
$UCSYDIR
 10
0.0
 20
1.0
 30
0.0
  9
$UCSORTHOREF
  2

  9
$UCSORTHOVIEW
 70
     0
  9
$UCSORGTOP
 10
0.0
 20
0.0
 30
0.0
  9
$UCSORGBOTTOM
 10
0.0
 20
0.0
 30
0.0
  9
$UCSORGLEFT
 10
0.0
 20
0.0
 30
0.0
  9
$UCSORGRIGHT
 10
0.0
 20
0.0
 30
0.0
  9
$UCSORGFRONT
 10
0.0
 20
0.0
 30
0.0
  9
$UCSORGBACK
 10
0.0
 20
0.0
 30
0.0
  9
$PUCSBASE
  2

  9
$PUCSNAME
  2

  9
$PUCSORG
 10
0.0
 20
0.0
 30
0.0
  9
$PUCSXDIR
 10
1.0
 20
0.0
 30
0.0
  9
$PUCSYDIR
 10
0.0
 20
1.0
 30
0.0
  9
$PUCSORTHOREF
  2

  9
$PUCSORTHOVIEW
 70
     0
  9
$PUCSORGTOP
 10
0.0
 20
0.0
 30
0.0
  9
$PUCSORGBOTTOM
 10
0.0
 20
0.0
 30
0.0
  9
$PUCSORGLEFT
 10
0.0
 20
0.0
 30
0.0
  9
$PUCSORGRIGHT
 10
0.0
 20
0.0
 30
0.0
  9
$PUCSORGFRONT
 10
0.0
 20
0.0
 30
0.0
  9
$PUCSORGBACK
 10
0.0
 20
0.0
 30
0.0
  9
$USERI1
 70
     0
  9
$USERI2
 70
     0
  9
$USERI3
 70
     0
  9
$USERI4
 70
     0
  9
$USERI5
 70
     0
  9
$USERR1
 40
0.0
  9
$USERR2
 40
0.0
  9
$USERR3
 40
0.0
  9
$USERR4
 40
0.0
  9
$USERR5
 40
0.0
  9
$WORLDVIEW
 70
     1
  9
$SHADEDGE
 70
     3
  9
$SHADEDIF
 70
    70
  9
$TILEMODE
 70
     1
  9
$MAXACTVP
 70
    64
  9
$PINSBASE
 10
0.0
 20
0.0
 30
0.0
  9
$PLIMCHECK
 70
     0
  9
$PEXTMIN
 10
1.000000000000000E+20
 20
1.000000000000000E+20
 30
1.000000000000000E+20
  9
$PEXTMAX
 10
-1.000000000000000E+20
 20
-1.000000000000000E+20
 30
-1.000000000000000E+20
  9
$PLIMMIN
 10
0.0
 20
0.0
  9
$PLIMMAX
 10
12.0
 20
9.0
  9
$UNITMODE
 70
     0
  9
$VISRETAIN
 70
     1
  9
$PLINEGEN
 70
     0
  9
$PSLTSCALE
 70
     1
  9
$TREEDEPTH
 70
  3020
  9
$CMLSTYLE
  2
Standard
  9
$CMLJUST
 70
     0
  9
$CMLSCALE
 40
1.0
  9
$PROXYGRAPHICS
 70
     1
  9
$MEASUREMENT
 70
     0
  9
$CELWEIGHT
370
    -1
  9
$ENDCAPS
280
     0
  9
$JOINSTYLE
280
     0
  9
$LWDISPLAY
290
     0
  9
$INSUNITS
 70
     5
  9
$HYPERLINKBASE
  1

  9
$STYLESHEET
  1

  9
$XEDIT
290
     1
  9
$CEPSNTYPE
380
     0
  9
$PSTYLEMODE
290
     1
  9
$FINGERPRINTGUID
  2
{FFD7BC3B-39A9-407C-92D3-A7D741D3BB55}
  9
$VERSIONGUID
  2
{FAEB1C32-E019-11D5-929B-00C0DF256EC4}
  9
$EXTNAMES
290
     1
  9
$PSVPSCALE
 40
0.0
  9
$OLESTARTUP
290
     0
  9
$SORTENTS
280
   127
  9
$INDEXCTL
280
     0
  9
$HIDETEXT
280
     1
  9
$XCLIPFRAME
290
     0
  9
$HALOGAP
280
     0
  9
$OBSCOLOR
 70
   257
  9
$OBSLTYPE
280
     0
  9
$INTERSECTIONDISPLAY
280
     0
  9
$INTERSECTIONCOLOR
 70
   257
  9
$DIMASSOC
280
     2
  9
$PROJECTNAME
  1

  0
ENDSEC
  0
SECTION
  2
CLASSES
  0
CLASS
  1
ACDBDICTIONARYWDFLT
  2
AcDbDictionaryWithDefault
  3
ObjectDBX Classes
 90
        0
 91
        4
280
     0
281
     0
  0
CLASS
  1
VISUALSTYLE
  2
AcDbVisualStyle
  3
ObjectDBX Classes
 90
     4095
 91
        4
280
     0
281
     0
  0
CLASS
  1
MATERIAL
  2
AcDbMaterial
  3
ObjectDBX Classes
 90
     1153
 91
        4
280
     0
281
     0
  0
ENDSEC
  0
SECTION
  2
TABLES
  0
TABLE
  2
VPORT
  5
8
330
0
100
AcDbSymbolTable
 70
     1
  0
VPORT
  5
29
330
8
100
AcDbSymbolTableRecord
100
AcDbViewportTableRecord
  2
*Active
 70
     0
 10
0.0
 20
0.0
 11
1.0
 21
1.0
 12
10.42990654205607
 22
4.5
 13
0.0
 23
0.0
 14
0.5
 24
0.5
 15
0.5
 25
0.5
 16
0.0
 26
0.0
 36
1.0
 17
0.0
 27
0.0
 37
0.0
 40
9.0
 41
1.972972972850329
 42
50.0
 43
0.0
 44
0.0
 50
0.0
 51
0.0
 71
     0
 72
   100
 73
     1
 74
     3
 75
     0
 76
     0
 77
     0
 78
     0
281
     0
 65
     1
110
0.0
120
0.0
130
0.0
111
1.0
121
0.0
131
0.0
112
0.0
122
1.0
132
0.0
 79
     0
146
0.0
  0
ENDTAB
  0
TABLE
  2
LTYPE
  5
5
330
0
100
AcDbSymbolTable
 70
     1
  0
LTYPE
  5
14
330
5
100
AcDbSymbolTableRecord
100
AcDbLinetypeTableRecord
  2
ByBlock
 70
     0
  3

 72
    65
 73
     0
 40
0.0
  0
LTYPE
  5
15
330
5
100
AcDbSymbolTableRecord
100
AcDbLinetypeTableRecord
  2
ByLayer
 70
     0
  3

 72
    65
 73
     0
 40
0.0
  0
LTYPE
  5
16
330
5
100
AcDbSymbolTableRecord
100
AcDbLinetypeTableRecord
  2
Continuous
 70
     0
  3
Solid line
 72
    65
 73
     0
 40
0.0
  0
ENDTAB
  0
TABLE
  2
LAYER
  5
2
330
0
100
AcDbSymbolTable
 70
     2
  0
LAYER
  5
10
330
2
100
AcDbSymbolTableRecord
100
AcDbLayerTableRecord
  2
0
 70
     0
 62
     7
  6
Continuous
370
    -3
390
F
  0
LAYER
  5
40
330
2
100
AcDbSymbolTableRecord
100
AcDbLayerTableRecord
  2
Camada 1
 70
     0
 62
     7
  6
Continuous
370
    -3
390
F
  0
ENDTAB
  0
TABLE
  2
STYLE
  5
3
330
0
100
AcDbSymbolTable
 70
     1
  0
STYLE
  5
11
330
3
100
AcDbSymbolTableRecord
100
AcDbTextStyleTableRecord
  2
Standard
 70
     0
 40
0.0
 41
1.0
 50
0.0
 71
     0
 42
0.2
  3
txt
  4

  0
ENDTAB
  0
TABLE
  2
VIEW
  5
6
330
0
100
AcDbSymbolTable
 70
     0
  0
ENDTAB
  0
TABLE
  2
UCS
  5
7
330
0
100
AcDbSymbolTable
 70
     0
  0
ENDTAB
  0
TABLE
  2
APPID
  5
9
330
0
100
AcDbSymbolTable
 70
     2
  0
APPID
  5
12
330
9
100
AcDbSymbolTableRecord
100
AcDbRegAppTableRecord
  2
ACAD
 70
     0
  0
APPID
  5
3F
330
9
100
AcDbSymbolTableRecord
100
AcDbRegAppTableRecord
  2
ODA
 70
     0
  0
ENDTAB
  0
TABLE
  2
DIMSTYLE
  5
A
330
0
100
AcDbSymbolTable
 70
     1
100
AcDbDimStyleTable
  0
DIMSTYLE
105
27
330
A
100
AcDbSymbolTableRecord
100
AcDbDimStyleTableRecord
  2
Standard
 70
     0
178
     0
340
11
  0
ENDTAB
  0
TABLE
  2
BLOCK_RECORD
  5
1
330
0
100
AcDbSymbolTable
 70
     1
  0
BLOCK_RECORD
  5
1F
330
1
100
AcDbSymbolTableRecord
100
AcDbBlockTableRecord
  2
*Model_Space
340
22
  0
BLOCK_RECORD
  5
1B
330
1
100
AcDbSymbolTableRecord
100
AcDbBlockTableRecord
  2
*Paper_Space
340
1E
  0
BLOCK_RECORD
  5
23
330
1
100
AcDbSymbolTableRecord
100
AcDbBlockTableRecord
  2
*Paper_Space0
340
26
  0
ENDTAB
  0
ENDSEC
  0
SECTION
  2
BLOCKS
  0
BLOCK
  5
20
330
1F
100
AcDbEntity
  8
0
100
AcDbBlockBegin
  2
*Model_Space
 70
     0
 10
0.0
 20
0.0
 30
0.0
  3
*Model_Space
  1

  0
ENDBLK
  5
21
330
1F
100
AcDbEntity
  8
0
100
AcDbBlockEnd
  0
BLOCK
  5
1C
330
1B
100
AcDbEntity
 67
     1
  8
0
100
AcDbBlockBegin
  2
*Paper_Space
 70
     0
 10
0.0
 20
0.0
 30
0.0
  3
*Paper_Space
  1

  0
ENDBLK
  5
1D
330
1B
100
AcDbEntity
 67
     1
  8
0
100
AcDbBlockEnd
  0
BLOCK
  5
24
330
23
100
AcDbEntity
  8
0
100
AcDbBlockBegin
  2
*Paper_Space0
 70
     0
 10
0.0
 20
0.0
 30
0.0
  3
*Paper_Space0
  1

  0
ENDBLK
  5
25
330
23
100
AcDbEntity
  8
0
100
AcDbBlockEnd
  0
ENDSEC
  0
SECTION
  2
ENTITIES
  0
SPLINE
  5
41
330
1F
100
AcDbEntity
  8
Camada 1
 62
   239
100
AcDbSpline
210
0.0
220
0.0
230
1.0
 70
    11
 71
     3
 72
   400
 73
   396
 74
     0
 42
0.0000000001
 43
0.0000000001
 12
1.0
 22
0.0
 32
0.0
 13
1.0
 23
0.0
 33
0.0
 40
0.0
 40
0.0
 40
0.0
 40
0.0
 40
0.01
 40
0.01
 40
0.01
 40
0.01
 40
0.02
 40
0.02
 40
0.02
 40
0.02
 40
0.03
 40
0.03
 40
0.03
 40
0.03
 40
0.04
 40
0.04
 40
0.04
 40
0.04
 40
0.05
 40
0.05
 40
0.05
 40
0.05
 40
0.06
 40
0.06
 40
0.06
 40
0.06
 40
0.07
 40
0.07
 40
0.07
 40
0.07
 40
0.08
 40
0.08
 40
0.08
 40
0.08
 40
0.09
 40
0.09
 40
0.09
 40
0.09
 40
0.1
 40
0.1
 40
0.1
 40
0.1
 40
0.11
 40
0.11
 40
0.11
 40
0.11
 40
0.12
 40
0.12
 40
0.12
 40
0.12
 40
0.13
 40
0.13
 40
0.13
 40
0.13
 40
0.14
 40
0.14
 40
0.14
 40
0.14
 40
0.15
 40
0.15
 40
0.15
 40
0.15
 40
0.16
 40
0.16
 40
0.16
 40
0.16
 40
0.17
 40
0.17
 40
0.17
 40
0.17
 40
0.18
 40
0.18
 40
0.18
 40
0.18
 40
0.19
 40
0.19
 40
0.19
 40
0.19
 40
0.2
 40
0.2
 40
0.2
 40
0.2
 40
0.21
 40
0.21
 40
0.21
 40
0.21
 40
0.22
 40
0.22
 40
0.22
 40
0.22
 40
0.23
 40
0.23
 40
0.23
 40
0.23
 40
0.24
 40
0.24
 40
0.24
 40
0.24
 40
0.25
 40
0.25
 40
0.25
 40
0.25
 40
0.26
 40
0.26
 40
0.26
 40
0.26
 40
0.27
 40
0.27
 40
0.27
 40
0.27
 40
0.28
 40
0.28
 40
0.28
 40
0.28
 40
0.29
 40
0.29
 40
0.29
 40
0.29
 40
0.3
 40
0.3
 40
0.3
 40
0.3
 40
0.31
 40
0.31
 40
0.31
 40
0.31
 40
0.32
 40
0.32
 40
0.32
 40
0.32
 40
0.33
 40
0.33
 40
0.33
 40
0.33
 40
0.34
 40
0.34
 40
0.34
 40
0.34
 40
0.35
 40
0.35
 40
0.35
 40
0.35
 40
0.36
 40
0.36
 40
0.36
 40
0.36
 40
0.37
 40
0.37
 40
0.37
 40
0.37
 40
0.38
 40
0.38
 40
0.38
 40
0.38
 40
0.39
 40
0.39
 40
0.39
 40
0.39
 40
0.4
 40
0.4
 40
0.4
 40
0.4
 40
0.41
 40
0.41
 40
0.41
 40
0.41
 40
0.42
 40
0.42
 40
0.42
 40
0.42
 40
0.43
 40
0.43
 40
0.43
 40
0.43
 40
0.44
 40
0.44
 40
0.44
 40
0.44
 40
0.45
 40
0.45
 40
0.45
 40
0.45
 40
0.46
 40
0.46
 40
0.46
 40
0.46
 40
0.47
 40
0.47
 40
0.47
 40
0.47
 40
0.48
 40
0.48
 40
0.48
 40
0.48
 40
0.49
 40
0.49
 40
0.49
 40
0.49
 40
0.5
 40
0.5
 40
0.5
 40
0.5
 40
0.51
 40
0.51
 40
0.51
 40
0.51
 40
0.52
 40
0.52
 40
0.52
 40
0.52
 40
0.53
 40
0.53
 40
0.53
 40
0.53
 40
0.54
 40
0.54
 40
0.54
 40
0.54
 40
0.55
 40
0.55
 40
0.55
 40
0.55
 40
0.56
 40
0.56
 40
0.56
 40
0.56
 40
0.57
 40
0.57
 40
0.57
 40
0.57
 40
0.58
 40
0.58
 40
0.58
 40
0.58
 40
0.59
 40
0.59
 40
0.59
 40
0.59
 40
0.6
 40
0.6
 40
0.6
 40
0.6
 40
0.61
 40
0.61
 40
0.61
 40
0.61
 40
0.62
 40
0.62
 40
0.62
 40
0.62
 40
0.63
 40
0.63
 40
0.63
 40
0.63
 40
0.64
 40
0.64
 40
0.64
 40
0.64
 40
0.65
 40
0.65
 40
0.65
 40
0.65
 40
0.66
 40
0.66
 40
0.66
 40
0.66
 40
0.67
 40
0.67
 40
0.67
 40
0.67
 40
0.68
 40
0.68
 40
0.68
 40
0.68
 40
0.69
 40
0.69
 40
0.69
 40
0.69
 40
0.7
 40
0.7
 40
0.7
 40
0.7
 40
0.71
 40
0.71
 40
0.71
 40
0.71
 40
0.72
 40
0.72
 40
0.72
 40
0.72
 40
0.73
 40
0.73
 40
0.73
 40
0.73
 40
0.74
 40
0.74
 40
0.74
 40
0.74
 40
0.75
 40
0.75
 40
0.75
 40
0.75
 40
0.76
 40
0.76
 40
0.76
 40
0.76
 40
0.77
 40
0.77
 40
0.77
 40
0.77
 40
0.78
 40
0.78
 40
0.78
 40
0.78
 40
0.79
 40
0.79
 40
0.79
 40
0.79
 40
0.8
 40
0.8
 40
0.8
 40
0.8
 40
0.81
 40
0.81
 40
0.81
 40
0.81
 40
0.82
 40
0.82
 40
0.82
 40
0.82
 40
0.83
 40
0.83
 40
0.83
 40
0.83
 40
0.84
 40
0.84
 40
0.84
 40
0.84
 40
0.85
 40
0.85
 40
0.85
 40
0.85
 40
0.86
 40
0.86
 40
0.86
 40
0.86
 40
0.87
 40
0.87
 40
0.87
 40
0.87
 40
0.88
 40
0.88
 40
0.88
 40
0.88
 40
0.89
 40
0.89
 40
0.89
 40
0.89
 40
0.9
 40
0.9
 40
0.9
 40
0.9
 40
0.91
 40
0.91
 40
0.91
 40
0.91
 40
0.92
 40
0.92
 40
0.92
 40
0.92
 40
0.93
 40
0.93
 40
0.93
 40
0.93
 40
0.94
 40
0.94
 40
0.94
 40
0.94
 40
0.95
 40
0.95
 40
0.95
 40
0.95
 40
0.96
 40
0.96
 40
0.96
 40
0.96
 40
0.97
 40
0.97
 40
0.97
 40
0.97
 40
0.98
 40
0.98
 40
0.98
 40
0.98
 40
1.0
 40
1.0
 40
1.0
 40
1.0
 10
0.68174
 20
-1.78418
 30
0.0
 10
0.5378
 20
-1.56122
 30
0.0
 10
0.7156
 20
-1.18093
 30
0.0
 10
1.00911
 20
-1.24478
 30
0.0
 10
1.00911
 20
-1.24478
 30
0.0
 10
1.25324
 20
-1.24831
 30
0.0
 10
1.37953
 20
-1.49984
 30
0.0
 10
1.48254
 20
-1.68258
 30
0.0
 10
1.48254
 20
-1.68258
 30
0.0
 10
1.61377
 20
-1.62755
 30
0.0
 10
1.73831
 20
-1.47127
 30
0.0
 10
1.89459
 20
-1.51748
 30
0.0
 10
1.89459
 20
-1.51748
 30
0.0
 10
2.10414
 20
-1.56334
 30
0.0
 10
2.11719
 20
-1.82263
 30
0.0
 10
2.18704
 20
-1.99056
 30
0.0
 10
2.18704
 20
-1.99056
 30
0.0
 10
2.33379
 20
-2.02442
 30
0.0
 10
2.53452
 20
-2.02125
 30
0.0
 10
2.62519
 20
-2.168
 30
0.0
 10
2.62519
 20
-2.168
 30
0.0
 10
2.69857
 20
-2.28971
 30
0.0
 10
2.73914
 20
-2.46751
 30
0.0
 10
2.62272
 20
-2.57934
 30
0.0
 10
2.62272
 20
-2.57934
 30
0.0
 10
2.44598
 20
-2.80724
 30
0.0
 10
2.07521
 20
-2.78995
 30
0.0
 10
1.95456
 20
-3.07288
 30
0.0
 10
1.95456
 20
-3.07288
 30
0.0
 10
2.06851
 20
-3.13638
 30
0.0
 10
2.16975
 20
-3.23621
 30
0.0
 10
2.30099
 20
-3.26408
 30
0.0
 10
2.30099
 20
-3.26408
 30
0.0
 10
2.56733
 20
-3.29936
 30
0.0
 10
2.8358
 20
-3.2722
 30
0.0
 10
3.10356
 20
-3.2789
 30
0.0
 10
3.10356
 20
-3.2789
 30
0.0
 10
3.05769
 20
-3.07394
 30
0.0
 10
2.99278
 20
-2.87426
 30
0.0
 10
2.93881
 20
-2.67142
 30
0.0
 10
2.93881
 20
-2.67142
 30
0.0
 10
3.02771
 20
-2.64249
 30
0.0
 10
3.1159
 20
-2.61074
 30
0.0
 10
3.20339
 20
-2.57758
 30
0.0
 10
3.20339
 20
-2.57758
 30
0.0
 10
3.28982
 20
-2.77549
 30
0.0
 10
3.35403
 20
-2.98186
 30
0.0
 10
3.38542
 20
-3.196
 30
0.0
 10
3.38542
 20
-3.196
 30
0.0
 10
3.43869
 20
-3.54454
 30
0.0
 10
3.84121
 20
-3.77596
 30
0.0
 10
3.71351
 20
-4.16296
 30
0.0
 10
3.71351
 20
-4.16296
 30
0.0
 10
3.56781
 20
-4.40179
 30
0.0
 10
3.31734
 20
-4.54678
 30
0.0
 10
3.11308
 20
-4.72987
 30
0.0
 10
3.11308
 20
-4.72987
 30
0.0
 10
3.40589
 20
-4.86746
 30
0.0
 10
3.82499
 20
-4.97259
 30
0.0
 10
3.90224
 20
-5.33736
 30
0.0
 10
3.90224
 20
-5.33736
 30
0.0
 10
4.08463
 20
-5.87393
 30
0.0
 10
3.67717
 20
-6.50576
 30
0.0
 10
3.12084
 20
-6.56749
 30
0.0
 10
3.12084
 20
-6.56749
 30
0.0
 10
2.97056
 20
-6.57137
 30
0.0
 10
2.83827
 20
-6.48706
 30
0.0
 10
2.70703
 20
-6.42497
 30
0.0
 10
2.70703
 20
-6.42497
 30
0.0
 10
2.7409
 20
-6.359
 30
0.0
 10
2.77018
 20
-6.2888
 30
0.0
 10
2.81886
 20
-6.23235
 30
0.0
 10
2.81886
 20
-6.23235
 30
0.0
 10
2.98326
 20
-6.1745
 30
0.0
 10
3.19175
 20
-6.28774
 30
0.0
 10
3.3251
 20
-6.13852
 30
0.0
 10
3.3251
 20
-6.13852
 30
0.0
 10
3.56358
 20
-5.94484
 30
0.0
 10
3.74984
 20
-5.56314
 30
0.0
 10
3.57451
 20
-5.27527
 30
0.0
 10
3.57451
 20
-5.27527
 30
0.0
 10
3.3699
 20
-5.095
 30
0.0
 10
3.08098
 20
-5.05937
 30
0.0
 10
2.87143
 20
-4.8858
 30
0.0
 10
2.87143
 20
-4.8858
 30
0.0
 10
2.7723
 20
-4.79232
 30
0.0
 10
2.72644
 20
-4.61593
 30
0.0
 10
2.81992
 20
-4.50445
 30
0.0
 10
2.81992
 20
-4.50445
 30
0.0
 10
2.98185
 20
-4.33441
 30
0.0
 10
3.19563
 20
-4.22293
 30
0.0
 10
3.36249
 20
-4.05854
 30
0.0
 10
3.36249
 20
-4.05854
 30
0.0
 10
3.44681
 20
-3.98022
 30
0.0
 10
3.42141
 20
-3.85781
 30
0.0
 10
3.41506
 20
-3.75656
 30
0.0
 10
3.41506
 20
-3.75656
 30
0.0
 10
3.1794
 20
-3.90967
 30
0.0
 10
2.98855
 20
-4.14885
 30
0.0
 10
2.70351
 20
-4.21129
 30
0.0
 10
2.70351
 20
-4.21129
 30
0.0
 10
2.47843
 20
-4.2501
 30
0.0
 10
2.24913
 20
-4.2568
 30
0.0
 10
2.02229
 20
-4.2822
 30
0.0
 10
2.02229
 20
-4.2822
 30
0.0
 10
2.10837
 20
-4.31995
 30
0.0
 10
2.19586
 20
-4.35522
 30
0.0
 10
2.2837
 20
-4.3898
 30
0.0
 10
2.2837
 20
-4.3898
 30
0.0
 10
2.30698
 20
-4.74116
 30
0.0
 10
2.32639
 20
-5.09324
 30
0.0
 10
2.3158
 20
-5.44566
 30
0.0
 10
2.3158
 20
-5.44566
 30
0.0
 10
2.40294
 20
-5.70319
 30
0.0
 10
2.12812
 20
-5.75752
 30
0.0
 10
1.96691
 20
-5.84218
 30
0.0
 10
1.96691
 20
-5.84218
 30
0.0
 10
1.79581
 20
-6.39851
 30
0.0
 10
1.70267
 20
-6.97919
 30
0.0
 10
1.67974
 20
-7.56056
 30
0.0
 10
1.67974
 20
-7.56056
 30
0.0
 10
1.67798
 20
-7.77364
 30
0.0
 10
1.66457
 20
-8.02411
 30
0.0
 10
1.82191
 20
-8.19274
 30
0.0
 10
1.82191
 20
-8.19274
 30
0.0
 10
2.19515
 20
-8.65241
 30
0.0
 10
2.84462
 20
-8.68769
 30
0.0
 10
3.27889
 20
-9.06375
 30
0.0
 10
3.27889
 20
-9.06375
 30
0.0
 10
3.6874
 20
-9.39183
 30
0.0
 10
3.78689
 20
-10.05894
 30
0.0
 10
3.46797
 20
-10.48015
 30
0.0
 10
3.46797
 20
-10.48015
 30
0.0
 10
3.287
 20
-10.68653
 30
0.0
 10
3.033
 20
-10.83222
 30
0.0
 10
2.75748
 20
-10.85904
 30
0.0
 10
2.75748
 20
-10.85904
 30
0.0
 10
2.28934
 20
-10.9437
 30
0.0
 10
1.84802
 20
-10.72851
 30
0.0
 10
1.38941
 20
-10.68617
 30
0.0
 10
1.38941
 20
-10.68617
 30
0.0
 10
0.78757
 20
-10.57822
 30
0.0
 10
0.17232
 20
-10.73733
 30
0.0
 10
-0.42634
 20
-10.61703
 30
0.0
 10
-0.42634
 20
-10.61703
 30
0.0
 10
-0.85638
 20
-10.48544
 30
0.0
 10
-1.29453
 20
-10.24626
 30
0.0
 10
-1.51466
 20
-9.83845
 30
0.0
 10
-1.51466
 20
-9.83845
 30
0.0
 10
-1.63072
 20
-9.43875
 30
0.0
 10
-1.50019
 20
-9.0193
 30
0.0
 10
-1.45892
 20
-8.61749
 30
0.0
 10
-1.45892
 20
-8.61749
 30
0.0
 10
-1.6212
 20
-8.70356
 30
0.0
 10
-1.77854
 20
-8.80411
 30
0.0
 10
-1.95246
 20
-8.86514
 30
0.0
 10
-1.95246
 20
-8.86514
 30
0.0
 10
-2.14719
 20
-8.91523
 30
0.0
 10
-2.34651
 20
-8.94451
 30
0.0
 10
-2.54195
 20
-8.99037
 30
0.0
 10
-2.54195
 20
-8.99037
 30
0.0
 10
-2.41706
 20
-9.06199
 30
0.0
 10
-2.28936
 20
-9.12831
 30
0.0
 10
-2.16024
 20
-9.19287
 30
0.0
 10
-2.16024
 20
-9.19287
 30
0.0
 10
-2.15178
 20
-9.29235
 30
0.0
 10
-2.14754
 20
-9.39219
 30
0.0
 10
-2.14825
 20
-9.49202
 30
0.0
 10
-2.14825
 20
-9.49202
 30
0.0
 10
-2.46222
 20
-9.47932
 30
0.0
 10
-2.72363
 20
-9.28141
 30
0.0
 10
-2.90284
 20
-9.03694
 30
0.0
 10
-2.90284
 20
-9.03694
 30
0.0
 10
-3.10181
 20
-8.69227
 30
0.0
 10
-3.53784
 20
-8.58926
 30
0.0
 10
-3.71811
 20
-8.22908
 30
0.0
 10
-3.71811
 20
-8.22908
 30
0.0
 10
-3.93824
 20
-7.86501
 30
0.0
 10
-3.8758
 20
-7.39652
 30
0.0
 10
-3.65002
 20
-7.04974
 30
0.0
 10
-3.65002
 20
-7.04974
 30
0.0
 10
-3.54701
 20
-7.12277
 30
0.0
 10
-3.3805
 20
-7.18062
 30
0.0
 10
-3.39108
 20
-7.33443
 30
0.0
 10
-3.39108
 20
-7.33443
 30
0.0
 10
-3.41472
 20
-7.54116
 30
0.0
 10
-3.5329
 20
-7.73237
 30
0.0
 10
-3.52973
 20
-7.94333
 30
0.0
 10
-3.52973
 20
-7.94333
 30
0.0
 10
-3.50397
 20
-8.16205
 30
0.0
 10
-3.32794
 20
-8.3141
 30
0.0
 10
-3.17765
 20
-8.45803
 30
0.0
 10
-3.17765
 20
-8.45803
 30
0.0
 10
-3.1766
 20
-8.19733
 30
0.0
 10
-3.18541
 20
-7.92004
 30
0.0
 10
-3.06865
 20
-7.6798
 30
0.0
 10
-3.06865
 20
-7.6798
 30
0.0
 10
-2.91554
 20
-7.3937
 30
0.0
 10
-2.68941
 20
-7.15946
 30
0.0
 10
-2.48198
 20
-6.91322
 30
0.0
 10
-2.48198
 20
-6.91322
 30
0.0
 10
-2.80194
 20
-6.80879
 30
0.0
 10
-3.13215
 20
-6.63523
 30
0.0
 10
-3.29301
 20
-6.32514
 30
0.0
 10
-3.29301
 20
-6.32514
 30
0.0
 10
-3.39885
 20
-6.12511
 30
0.0
 10
-3.52408
 20
-5.93567
 30
0.0
 10
-3.68742
 20
-5.77798
 30
0.0
 10
-3.68742
 20
-5.77798
 30
0.0
 10
-3.71811
 20
-5.9653
 30
0.0
 10
-3.62109
 20
-6.18191
 30
0.0
 10
-3.72905
 20
-6.34983
 30
0.0
 10
-3.72905
 20
-6.34983
 30
0.0
 10
-3.91178
 20
-6.50611
 30
0.0
 10
-4.23281
 20
-6.41439
 30
0.0
 10
-4.35417
 20
-6.2193
 30
0.0
 10
-4.35417
 20
-6.2193
 30
0.0
 10
-4.49493
 20
-6.05138
 30
0.0
 10
-4.47799
 20
-5.8196
 30
0.0
 10
-4.54396
 20
-5.62381
 30
0.0
 10
-4.54396
 20
-5.62381
 30
0.0
 10
-4.68966
 20
-5.44778
 30
0.0
 10
-4.94719
 20
-5.33912
 30
0.0
 10
-4.98846
 20
-5.09218
 30
0.0
 10
-4.98846
 20
-5.09218
 30
0.0
 10
-5.07066
 20
-4.85264
 30
0.0
 10
-4.86887
 20
-4.66884
 30
0.0
 10
-4.74222
 20
-4.49492
 30
0.0
 10
-4.74222
 20
-4.49492
 30
0.0
 10
-4.67167
 20
-4.58665
 30
0.0
 10
-4.58347
 20
-4.6699
 30
0.0
 10
-4.53479
 20
-4.77679
 30
0.0
 10
-4.53479
 20
-4.77679
 30
0.0
 10
-4.55772
 20
-4.92108
 30
0.0
 10
-4.66003
 20
-5.04102
 30
0.0
 10
-4.67096
 20
-5.18884
 30
0.0
 10
-4.67096
 20
-5.18884
 30
0.0
 10
-4.57677
 20
-5.2728
 30
0.0
 10
-4.47552
 20
-5.36099
 30
0.0
 10
-4.35487
 20
-5.40439
 30
0.0
 10
-4.35487
 20
-5.40439
 30
0.0
 10
-4.10899
 20
-5.44213
 30
0.0
 10
-3.83488
 20
-5.3617
 30
0.0
 10
-3.6151
 20
-5.51622
 30
0.0
 10
-3.6151
 20
-5.51622
 30
0.0
 10
-3.22634
 20
-5.71377
 30
0.0
 10
-3.15366
 20
-6.19602
 30
0.0
 10
-2.83934
 20
-6.46836
 30
0.0
 10
-2.83934
 20
-6.46836
 30
0.0
 10
-2.67071
 20
-6.60806
 30
0.0
 10
-2.43929
 20
-6.60912
 30
0.0
 10
-2.23644
 20
-6.66027
 30
0.0
 10
-2.23644
 20
-6.66027
 30
0.0
 10
-2.22515
 20
-6.61371
 30
0.0
 10
-2.21351
 20
-6.56749
 30
0.0
 10
-2.20258
 20
-6.52128
 30
0.0
 10
-2.20258
 20
-6.52128
 30
0.0
 10
-2.33275
 20
-6.41474
 30
0.0
 10
-2.50349
 20
-6.3276
 30
0.0
 10
-2.56594
 20
-6.16004
 30
0.0
 10
-2.56594
 20
-6.16004
 30
0.0
 10
-2.62626
 20
-5.96989
 30
0.0
 10
-2.54759
 20
-5.78468
 30
0.0
 10
-2.48339
 20
-5.6097
 30
0.0
 10
-2.48339
 20
-5.6097
 30
0.0
 10
-2.66224
 20
-5.59453
 30
0.0
 10
-2.85133
 20
-5.60088
 30
0.0
 10
-3.01185
 20
-5.50987
 30
0.0
 10
-3.01185
 20
-5.50987
 30
0.0
 10
-3.16213
 20
-5.43508
 30
0.0
 10
-3.27855
 20
-5.31125
 30
0.0
 10
-3.42036
 20
-5.22412
 30
0.0
 10
-3.42036
 20
-5.22412
 30
0.0
 10
-3.69588
 20
-5.10135
 30
0.0
 10
-4.0222
 20
-5.06184
 30
0.0
 10
-4.24304
 20
-4.83853
 30
0.0
 10
-4.24304
 20
-4.83853
 30
0.0
 10
-4.45189
 20
-4.64133
 30
0.0
 10
-4.47305
 20
-4.28396
 30
0.0
 10
-4.28255
 20
-4.06947
 30
0.0
 10
-4.28255
 20
-4.06947
 30
0.0
 10
-4.13227
 20
-3.84969
 30
0.0
 10
-3.85569
 20
-3.78866
 30
0.0
 10
-3.62744
 20
-3.68001
 30
0.0
 10
-3.62744
 20
-3.68001
 30
0.0
 10
-3.62427
 20
-3.49162
 30
0.0
 10
-3.67542
 20
-3.28772
 30
0.0
 10
-3.57841
 20
-3.11521
 30
0.0
 10
-3.57841
 20
-3.11521
 30
0.0
 10
-3.45141
 20
-2.84251
 30
0.0
 10
-3.11063
 20
-2.72257
 30
0.0
 10
-2.82734
 20
-2.79101
 30
0.0
 10
-2.82734
 20
-2.79101
 30
0.0
 10
-2.69188
 20
-2.80688
 30
0.0
 10
-2.56347
 20
-2.88238
 30
0.0
 10
-2.42624
 20
-2.87391
 30
0.0
 10
-2.42624
 20
-2.87391
 30
0.0
 10
-2.22304
 20
-2.78819
 30
0.0
 10
-2.00784
 20
-2.62203
 30
0.0
 10
-1.78101
 20
-2.72786
 30
0.0
 10
-1.78101
 20
-2.72786
 30
0.0
 10
-1.37849
 20
-2.92647
 30
0.0
 10
-1.2469
 20
-3.40378
 30
0.0
 10
-1.23738
 20
-3.81865
 30
0.0
 10
-1.23738
 20
-3.81865
 30
0.0
 10
-1.12166
 20
-3.85463
 30
0.0
 10
-1.00666
 20
-3.89097
 30
0.0
 10
-0.88989
 20
-3.92625
 30
0.0
 10
-0.88989
 20
-3.92625
 30
0.0
 10
-1.03594
 20
-3.59075
 30
0.0
 10
-1.20033
 20
-3.26267
 30
0.0
 10
-1.32381
 20
-2.91801
 30
0.0
 10
-1.32381
 20
-2.91801
 30
0.0
 10
-1.49208
 20
-2.71163
 30
0.0
 10
-1.78912
 20
-2.58851
 30
0.0
 10
-1.84803
 20
-2.30312
 30
0.0
 10
-1.84803
 20
-2.30312
 30
0.0
 10
-1.92176
 20
-2.16483
 30
0.0
 10
-1.85086
 20
-1.9648
 30
0.0
 10
-1.69458
 20
-1.92776
 30
0.0
 10
-1.69458
 20
-1.92776
 30
0.0
 10
-1.53018
 20
-1.88014
 30
0.0
 10
-1.38766
 20
-1.97539
 30
0.0
 10
-1.25219
 20
-2.04947
 30
0.0
 10
-1.25219
 20
-2.04947
 30
0.0
 10
-1.19151
 20
-1.90271
 30
0.0
 10
-1.15412
 20
-1.71115
 30
0.0
 10
-0.9869
 20
-1.64801
 30
0.0
 10
-0.9869
 20
-1.64801
 30
0.0
 10
-0.77206
 20
-1.55029
 30
0.0
 10
-0.67575
 20
-1.78347
 30
0.0
 10
-0.55369
 20
-1.89919
 30
0.0
 10
-0.55369
 20
-1.89919
 30
0.0
 10
-0.40023
 20
-1.76301
 30
0.0
 10
-0.23937
 20
-1.58239
 30
0.0
 10
-0.01853
 20
-1.57251
 30
0.0
 10
-0.01853
 20
-1.57251
 30
0.0
 10
0.21924
 20
-1.58909
 30
0.0
 10
0.32367
 20
-1.83957
 30
0.0
 10
0.37376
 20
-2.03818
 30
0.0
 10
0.37376
 20
-2.03818
 30
0.0
 10
0.46196
 20
-2.04665
 30
0.0
 10
0.55015
 20
-2.05511
 30
0.0
 10
0.6387
 20
-2.06287
 30
0.0
 10
0.6387
 20
-2.06287
 30
0.0
 10
0.63552
 20
-2.19552
 30
0.0
 10
0.72689
 20
-2.36379
 30
0.0
 10
0.614
 20
-2.47421
 30
0.0
 10
0.614
 20
-2.47421
 30
0.0
 10
0.47148
 20
-2.63296
 30
0.0
 10
0.21572
 20
-2.5938
 30
0.0
 10
0.06191
 20
-2.47351
 30
0.0
 10
0.06191
 20
-2.47351
 30
0.0
 10
-0.10355
 20
-2.33769
 30
0.0
 10
-0.01676
 20
-2.08722
 30
0.0
 10
-0.0464
 20
-1.90448
 30
0.0
 10
-0.0464
 20
-1.90448
 30
0.0
 10
-0.19139
 20
-2.04735
 30
0.0
 10
-0.34167
 20
-2.18987
 30
0.0
 10
-0.45209
 20
-2.36238
 30
0.0
 10
-0.45209
 20
-2.36238
 30
0.0
 10
-0.49972
 20
-2.44529
 30
0.0
 10
-0.54946
 20
-2.55112
 30
0.0
 10
-0.49795
 20
-2.64425
 30
0.0
 10
-0.49795
 20
-2.64425
 30
0.0
 10
-0.4147
 20
-2.81852
 30
0.0
 10
-0.30287
 20
-2.97833
 30
0.0
 10
-0.18963
 20
-3.13426
 30
0.0
 10
-0.18963
 20
-3.13426
 30
0.0
 10
0.08201
 20
-3.00444
 30
0.0
 10
0.37729
 20
-3.09722
 30
0.0
 10
0.66269
 20
-3.10004
 30
0.0
 10
0.66269
 20
-3.10004
 30
0.0
 10
0.58825
 20
-2.99456
 30
0.0
 10
0.51064
 20
-2.89014
 30
0.0
 10
0.4355
 20
-2.78607
 30
0.0
 10
0.4355
 20
-2.78607
 30
0.0
 10
0.70396
 20
-2.53842
 30
0.0
 10
0.96043
 20
-2.26219
 30
0.0
 10
1.2871
 20
-2.09039
 30
0.0
 10
1.2871
 20
-2.09039
 30
0.0
 10
1.24336
 20
-1.90977
 30
0.0
 10
1.25853
 20
-1.63637
 30
0.0
 10
1.04968
 20
-1.5517
 30
0.0
 10
1.04968
 20
-1.5517
 30
0.0
 10
0.99677
 20
-1.66388
 30
0.0
 10
0.99006
 20
-1.79229
 30
0.0
 10
0.93256
 20
-1.90271
 30
0.0
 10
0.93256
 20
-1.90271
 30
0.0
 10
0.83378
 20
-1.91682
 30
0.0
 10
0.7216
 20
-1.88472
 30
0.0
 10
0.68174
 20
-1.78418
 30
0.0
 10
0.68174
 20
-1.78418
 30
0.0
 10
0.68174
 20
-1.78418
 30
0.0
 10
0.68174
 20
-1.78418
 30
0.0
 10
0.68174
 20
-1.78418
 30
0.0
  0
SPLINE
  5
42
330
1F
100
AcDbEntity
  8
Camada 1
 62
   239
100
AcDbSpline
210
0.0
220
0.0
230
1.0
 70
    11
 71
     3
 72
    16
 73
    12
 74
     0
 42
0.0000000001
 43
0.0000000001
 12
1.0
 22
0.0
 32
0.0
 13
1.0
 23
0.0
 33
0.0
 40
0.0
 40
0.0
 40
0.0
 40
0.0
 40
0.25
 40
0.25
 40
0.25
 40
0.25
 40
0.5
 40
0.5
 40
0.5
 40
0.5
 40
1.0
 40
1.0
 40
1.0
 40
1.0
 10
1.67551
 20
-2.25337
 30
0.0
 10
1.75736
 20
-2.15107
 30
0.0
 10
1.80816
 20
-2.02865
 30
0.0
 10
1.82509
 20
-1.89848
 30
0.0
 10
1.82509
 20
-1.89848
 30
0.0
 10
1.74818
 20
-2.00361
 30
0.0
 10
1.69774
 20
-2.12532
 30
0.0
 10
1.67551
 20
-2.25337
 30
0.0
 10
1.67551
 20
-2.25337
 30
0.0
 10
1.67551
 20
-2.25337
 30
0.0
 10
1.67551
 20
-2.25337
 30
0.0
 10
1.67551
 20
-2.25337
 30
0.0
  0
SPLINE
  5
43
330
1F
100
AcDbEntity
  8
Camada 1
 62
   239
100
AcDbSpline
210
0.0
220
0.0
230
1.0
 70
    11
 71
     3
 72
    16
 73
    12
 74
     0
 42
0.0000000001
 43
0.0000000001
 12
1.0
 22
0.0
 32
0.0
 13
1.0
 23
0.0
 33
0.0
 40
0.0
 40
0.0
 40
0.0
 40
0.0
 40
0.25
 40
0.25
 40
0.25
 40
0.25
 40
0.5
 40
0.5
 40
0.5
 40
0.5
 40
1.0
 40
1.0
 40
1.0
 40
1.0
 10
-0.90823
 20
-2.51514
 30
0.0
 10
-0.82498
 20
-2.3652
 30
0.0
 10
-0.81792
 20
-2.18882
 30
0.0
 10
-0.85108
 20
-2.02266
 30
0.0
 10
-0.85108
 20
-2.02266
 30
0.0
 10
-0.93399
 20
-2.17259
 30
0.0
 10
-0.9421
 20
-2.34862
 30
0.0
 10
-0.90823
 20
-2.51514
 30
0.0
 10
-0.90823
 20
-2.51514
 30
0.0
 10
-0.90823
 20
-2.51514
 30
0.0
 10
-0.90823
 20
-2.51514
 30
0.0
 10
-0.90823
 20
-2.51514
 30
0.0
  0
SPLINE
  5
44
330
1F
100
AcDbEntity
  8
Camada 1
 62
   239
100
AcDbSpline
210
0.0
220
0.0
230
1.0
 70
    11
 71
     3
 72
    16
 73
    12
 74
     0
 42
0.0000000001
 43
0.0000000001
 12
1.0
 22
0.0
 32
0.0
 13
1.0
 23
0.0
 33
0.0
 40
0.0
 40
0.0
 40
0.0
 40
0.0
 40
0.25
 40
0.25
 40
0.25
 40
0.25
 40
0.5
 40
0.5
 40
0.5
 40
0.5
 40
1.0
 40
1.0
 40
1.0
 40
1.0
 10
0.30814
 20
-2.12073
 30
0.0
 10
0.26299
 20
-2.1366
 30
0.0
 10
0.28133
 20
-2.22127
 30
0.0
 10
0.33143
 20
-2.2054
 30
0.0
 10
0.33143
 20
-2.2054
 30
0.0
 10
0.37588
 20
-2.18917
 30
0.0
 10
0.35789
 20
-2.10485
 30
0.0
 10
0.30814
 20
-2.12073
 30
0.0
 10
0.30814
 20
-2.12073
 30
0.0
 10
0.30814
 20
-2.12073
 30
0.0
 10
0.30814
 20
-2.12073
 30
0.0
 10
0.30814
 20
-2.12073
 30
0.0
  0
SPLINE
  5
45
330
1F
100
AcDbEntity
  8
Camada 1
 62
   239
100
AcDbSpline
210
0.0
220
0.0
230
1.0
 70
    11
 71
     3
 72
    20
 73
    16
 74
     0
 42
0.0000000001
 43
0.0000000001
 12
1.0
 22
0.0
 32
0.0
 13
1.0
 23
0.0
 33
0.0
 40
0.0
 40
0.0
 40
0.0
 40
0.0
 40
0.2
 40
0.2
 40
0.2
 40
0.2
 40
0.4
 40
0.4
 40
0.4
 40
0.4
 40
0.6
 40
0.6
 40
0.6
 40
0.6
 40
1.0
 40
1.0
 40
1.0
 40
1.0
 10
-1.56193
 20
-2.30594
 30
0.0
 10
-1.47127
 20
-2.4661
 30
0.0
 10
-1.31181
 20
-2.56311
 30
0.0
 10
-1.16506
 20
-2.66683
 30
0.0
 10
-1.16506
 20
-2.66683
 30
0.0
 10
-1.21445
 20
-2.55888
 30
0.0
 10
-1.24937
 20
-2.43929
 30
0.0
 10
-1.32733
 20
-2.34792
 30
0.0
 10
-1.32733
 20
-2.34792
 30
0.0
 10
-1.40001
 20
-2.31194
 30
0.0
 10
-1.48361
 20
-2.31546
 30
0.0
 10
-1.56193
 20
-2.30594
 30
0.0
 10
-1.56193
 20
-2.30594
 30
0.0
 10
-1.56193
 20
-2.30594
 30
0.0
 10
-1.56193
 20
-2.30594
 30
0.0
 10
-1.56193
 20
-2.30594
 30
0.0
  0
SPLINE
  5
46
330
1F
100
AcDbEntity
  8
Camada 1
 62
   239
100
AcDbSpline
210
0.0
220
0.0
230
1.0
 70
    11
 71
     3
 72
    16
 73
    12
 74
     0
 42
0.0000000001
 43
0.0000000001
 12
1.0
 22
0.0
 32
0.0
 13
1.0
 23
0.0
 33
0.0
 40
0.0
 40
0.0
 40
0.0
 40
0.0
 40
0.25
 40
0.25
 40
0.25
 40
0.25
 40
0.5
 40
0.5
 40
0.5
 40
0.5
 40
1.0
 40
1.0
 40
1.0
 40
1.0
 10
1.97855
 20
-2.51796
 30
0.0
 10
2.11966
 20
-2.49009
 30
0.0
 10
2.24913
 20
-2.42482
 30
0.0
 10
2.36449
 20
-2.33945
 30
0.0
 10
2.36449
 20
-2.33945
 30
0.0
 10
2.22867
 20
-2.38179
 30
0.0
 10
2.10272
 20
-2.44987
 30
0.0
 10
1.97855
 20
-2.51796
 30
0.0
 10
1.97855
 20
-2.51796
 30
0.0
 10
1.97855
 20
-2.51796
 30
0.0
 10
1.97855
 20
-2.51796
 30
0.0
 10
1.97855
 20
-2.51796
 30
0.0
  0
SPLINE
  5
47
330
1F
100
AcDbEntity
  8
Camada 1
 62
   239
100
AcDbSpline
210
0.0
220
0.0
230
1.0
 70
    11
 71
     3
 72
    20
 73
    16
 74
     0
 42
0.0000000001
 43
0.0000000001
 12
1.0
 22
0.0
 32
0.0
 13
1.0
 23
0.0
 33
0.0
 40
0.0
 40
0.0
 40
0.0
 40
0.0
 40
0.2
 40
0.2
 40
0.2
 40
0.2
 40
0.4
 40
0.4
 40
0.4
 40
0.4
 40
0.6
 40
0.6
 40
0.6
 40
0.6
 40
1.0
 40
1.0
 40
1.0
 40
1.0
 10
-2.08792
 20
-3.06759
 30
0.0
 10
-1.93976
 20
-3.30853
 30
0.0
 10
-1.7482
 20
-3.51844
 30
0.0
 10
-1.57216
 20
-3.73892
 30
0.0
 10
-1.57216
 20
-3.73892
 30
0.0
 10
-1.58133
 20
-3.51526
 30
0.0
 10
-1.55593
 20
-3.24221
 30
0.0
 10
-1.74008
 20
-3.07535
 30
0.0
 10
-1.74008
 20
-3.07535
 30
0.0
 10
-1.83604
 20
-2.98045
 30
0.0
 10
-1.9775
 20
-3.03725
 30
0.0
 10
-2.08792
 20
-3.06759
 30
0.0
 10
-2.08792
 20
-3.06759
 30
0.0
 10
-2.08792
 20
-3.06759
 30
0.0
 10
-2.08792
 20
-3.06759
 30
0.0
 10
-2.08792
 20
-3.06759
 30
0.0
  0
SPLINE
  5
48
330
1F
100
AcDbEntity
  8
Camada 1
 62
   239
100
AcDbSpline
210
0.0
220
0.0
230
1.0
 70
    11
 71
     3
 72
    24
 73
    20
 74
     0
 42
0.0000000001
 43
0.0000000001
 12
1.0
 22
0.0
 32
0.0
 13
1.0
 23
0.0
 33
0.0
 40
0.0
 40
0.0
 40
0.0
 40
0.0
 40
0.1666666666666667
 40
0.1666666666666667
 40
0.1666666666666667
 40
0.1666666666666667
 40
0.3333333333333333
 40
0.3333333333333333
 40
0.3333333333333333
 40
0.3333333333333333
 40
0.5
 40
0.5
 40
0.5
 40
0.5
 40
0.6666666666666666
 40
0.6666666666666666
 40
0.6666666666666666
 40
0.6666666666666666
 40
1.0
 40
1.0
 40
1.0
 40
1.0
 10
-3.10674
 20
-3.13109
 30
0.0
 10
-3.28208
 20
-3.23163
 30
0.0
 10
-3.34734
 20
-3.4313
 30
0.0
 10
-3.37344
 20
-3.61933
 30
0.0
 10
-3.37344
 20
-3.61933
 30
0.0
 10
-3.06512
 20
-3.63767
 30
0.0
 10
-2.75538
 20
-3.62885
 30
0.0
 10
-2.44846
 20
-3.6726
 30
0.0
 10
-2.44846
 20
-3.6726
 30
0.0
 10
-2.48092
 20
-3.49903
 30
0.0
 10
-2.51443
 20
-3.32582
 30
0.0
 10
-2.53489
 20
-3.15084
 30
0.0
 10
-2.53489
 20
-3.15084
 30
0.0
 10
-2.71657
 20
-3.08628
 30
0.0
 10
-2.92401
 20
-3.05559
 30
0.0
 10
-3.10674
 20
-3.13109
 30
0.0
 10
-3.10674
 20
-3.13109
 30
0.0
 10
-3.10674
 20
-3.13109
 30
0.0
 10
-3.10674
 20
-3.13109
 30
0.0
 10
-3.10674
 20
-3.13109
 30
0.0
  0
SPLINE
  5
49
330
1F
100
AcDbEntity
  8
Camada 1
 62
   239
100
AcDbSpline
210
0.0
220
0.0
230
1.0
 70
    11
 71
     3
 72
    36
 73
    32
 74
     0
 42
0.0000000001
 43
0.0000000001
 12
1.0
 22
0.0
 32
0.0
 13
1.0
 23
0.0
 33
0.0
 40
0.0
 40
0.0
 40
0.0
 40
0.0
 40
0.1111111111111111
 40
0.1111111111111111
 40
0.1111111111111111
 40
0.1111111111111111
 40
0.2222222222222222
 40
0.2222222222222222
 40
0.2222222222222222
 40
0.2222222222222222
 40
0.3333333333333333
 40
0.3333333333333333
 40
0.3333333333333333
 40
0.3333333333333333
 40
0.4444444444444444
 40
0.4444444444444444
 40
0.4444444444444444
 40
0.4444444444444444
 40
0.5555555555555556
 40
0.5555555555555556
 40
0.5555555555555556
 40
0.5555555555555556
 40
0.6666666666666666
 40
0.6666666666666666
 40
0.6666666666666666
 40
0.6666666666666666
 40
0.7777777777777778
 40
0.7777777777777778
 40
0.7777777777777778
 40
0.7777777777777778
 40
1.0
 40
1.0
 40
1.0
 40
1.0
 10
1.7817
 20
-3.29301
 30
0.0
 10
1.71996
 20
-3.35087
 30
0.0
 10
1.65928
 20
-3.40943
 30
0.0
 10
1.59966
 20
-3.46905
 30
0.0
 10
1.59966
 20
-3.46905
 30
0.0
 10
1.66034
 20
-3.43835
 30
0.0
 10
1.72031
 20
-3.4066
 30
0.0
 10
1.78064
 20
-3.3745
 30
0.0
 10
1.78064
 20
-3.3745
 30
0.0
 10
1.98525
 20
-3.53678
 30
0.0
 10
2.16728
 20
-3.72657
 30
0.0
 10
2.32321
 20
-3.93648
 30
0.0
 10
2.32321
 20
-3.93648
 30
0.0
 10
2.46856
 20
-3.91319
 30
0.0
 10
2.62942
 20
-3.92484
 30
0.0
 10
2.75677
 20
-3.84087
 30
0.0
 10
2.75677
 20
-3.84087
 30
0.0
 10
2.84603
 20
-3.7675
 30
0.0
 10
2.9187
 20
-3.67648
 30
0.0
 10
2.99666
 20
-3.59146
 30
0.0
 10
2.99666
 20
-3.59146
 30
0.0
 10
2.75325
 20
-3.57911
 30
0.0
 10
2.50912
 20
-3.577
 30
0.0
 10
2.26818
 20
-3.54278
 30
0.0
 10
2.26818
 20
-3.54278
 30
0.0
 10
2.08861
 20
-3.49974
 30
0.0
 10
1.94045
 20
-3.38085
 30
0.0
 10
1.7817
 20
-3.29301
 30
0.0
 10
1.7817
 20
-3.29301
 30
0.0
 10
1.7817
 20
-3.29301
 30
0.0
 10
1.7817
 20
-3.29301
 30
0.0
 10
1.7817
 20
-3.29301
 30
0.0
  0
SPLINE
  5
4A
330
1F
100
AcDbEntity
  8
Camada 1
 62
   239
100
AcDbSpline
210
0.0
220
0.0
230
1.0
 70
    11
 71
     3
 72
    16
 73
    12
 74
     0
 42
0.0000000001
 43
0.0000000001
 12
1.0
 22
0.0
 32
0.0
 13
1.0
 23
0.0
 33
0.0
 40
0.0
 40
0.0
 40
0.0
 40
0.0
 40
0.25
 40
0.25
 40
0.25
 40
0.25
 40
0.5
 40
0.5
 40
0.5
 40
0.5
 40
1.0
 40
1.0
 40
1.0
 40
1.0
 10
-2.1098
 20
-3.55936
 30
0.0
 10
-2.07981
 20
-3.67542
 30
0.0
 10
-1.99655
 20
-3.7615
 30
0.0
 10
-1.89354
 20
-3.81724
 30
0.0
 10
-1.89354
 20
-3.81724
 30
0.0
 10
-1.96339
 20
-3.72904
 30
0.0
 10
-2.03536
 20
-3.64297
 30
0.0
 10
-2.1098
 20
-3.55936
 30
0.0
 10
-2.1098
 20
-3.55936
 30
0.0
 10
-2.1098
 20
-3.55936
 30
0.0
 10
-2.1098
 20
-3.55936
 30
0.0
 10
-2.1098
 20
-3.55936
 30
0.0
  0
SPLINE
  5
4B
330
1F
100
AcDbEntity
  8
Camada 1
 62
   239
100
AcDbSpline
210
0.0
220
0.0
230
1.0
 70
    11
 71
     3
 72
    20
 73
    16
 74
     0
 42
0.0000000001
 43
0.0000000001
 12
1.0
 22
0.0
 32
0.0
 13
1.0
 23
0.0
 33
0.0
 40
0.0
 40
0.0
 40
0.0
 40
0.0
 40
0.2
 40
0.2
 40
0.2
 40
0.2
 40
0.4
 40
0.4
 40
0.4
 40
0.4
 40
0.6
 40
0.6
 40
0.6
 40
0.6
 40
1.0
 40
1.0
 40
1.0
 40
1.0
 10
1.00276
 20
-3.57594
 30
0.0
 10
0.94138
 20
-3.77702
 30
0.0
 10
0.91316
 20
-3.98622
 30
0.0
 10
0.87894
 20
-4.1933
 30
0.0
 10
0.87894
 20
-4.1933
 30
0.0
 10
1.08143
 20
-4.06101
 30
0.0
 10
1.24618
 20
-3.88109
 30
0.0
 10
1.40952
 20
-3.7047
 30
0.0
 10
1.40952
 20
-3.7047
 30
0.0
 10
1.27229
 20
-3.6666
 30
0.0
 10
1.13647
 20
-3.62427
 30
0.0
 10
1.00276
 20
-3.57594
 30
0.0
 10
1.00276
 20
-3.57594
 30
0.0
 10
1.00276
 20
-3.57594
 30
0.0
 10
1.00276
 20
-3.57594
 30
0.0
 10
1.00276
 20
-3.57594
 30
0.0
  0
SPLINE
  5
4C
330
1F
100
AcDbEntity
  8
Camada 1
 62
   239
100
AcDbSpline
210
0.0
220
0.0
230
1.0
 70
    11
 71
     3
 72
    16
 73
    12
 74
     0
 42
0.0000000001
 43
0.0000000001
 12
1.0
 22
0.0
 32
0.0
 13
1.0
 23
0.0
 33
0.0
 40
0.0
 40
0.0
 40
0.0
 40
0.0
 40
0.25
 40
0.25
 40
0.25
 40
0.25
 40
0.5
 40
0.5
 40
0.5
 40
0.5
 40
1.0
 40
1.0
 40
1.0
 40
1.0
 10
-2.97692
 20
-3.97634
 30
0.0
 10
-2.67636
 20
-4.26527
 30
0.0
 10
-2.24632
 20
-4.17107
 30
0.0
 10
-1.86991
 20
-4.16261
 30
0.0
 10
-1.86991
 20
-4.16261
 30
0.0
 10
-2.21281
 20
-4.00104
 30
0.0
 10
-2.59663
 20
-3.90332
 30
0.0
 10
-2.97692
 20
-3.97634
 30
0.0
 10
-2.97692
 20
-3.97634
 30
0.0
 10
-2.97692
 20
-3.97634
 30
0.0
 10
-2.97692
 20
-3.97634
 30
0.0
 10
-2.97692
 20
-3.97634
 30
0.0
  0
SPLINE
  5
4D
330
1F
100
AcDbEntity
  8
Camada 1
 62
   239
100
AcDbSpline
210
0.0
220
0.0
230
1.0
 70
    11
 71
     3
 72
    24
 73
    20
 74
     0
 42
0.0000000001
 43
0.0000000001
 12
1.0
 22
0.0
 32
0.0
 13
1.0
 23
0.0
 33
0.0
 40
0.0
 40
0.0
 40
0.0
 40
0.0
 40
0.1666666666666667
 40
0.1666666666666667
 40
0.1666666666666667
 40
0.1666666666666667
 40
0.3333333333333333
 40
0.3333333333333333
 40
0.3333333333333333
 40
0.3333333333333333
 40
0.5
 40
0.5
 40
0.5
 40
0.5
 40
0.6666666666666666
 40
0.6666666666666666
 40
0.6666666666666666
 40
0.6666666666666666
 40
1.0
 40
1.0
 40
1.0
 40
1.0
 10
-3.59852
 20
-4.04831
 30
0.0
 10
-3.84511
 20
-4.0984
 30
0.0
 10
-4.11357
 20
-4.31536
 30
0.0
 10
-4.09629
 20
-4.58629
 30
0.0
 10
-4.09629
 20
-4.58629
 30
0.0
 10
-4.00739
 20
-4.81666
 30
0.0
 10
-3.692
 20
-4.81701
 30
0.0
 10
-3.49057
 20
-4.87416
 30
0.0
 10
-3.49057
 20
-4.87416
 30
0.0
 10
-3.35475
 20
-4.65791
 30
0.0
 10
-3.1833
 20
-4.46882
 30
0.0
 10
-3.00444
 20
-4.28784
 30
0.0
 10
-3.00444
 20
-4.28784
 30
0.0
 10
-3.18859
 20
-4.1806
 30
0.0
 10
-3.35863
 20
-3.96752
 30
0.0
 10
-3.59852
 20
-4.04831
 30
0.0
 10
-3.59852
 20
-4.04831
 30
0.0
 10
-3.59852
 20
-4.04831
 30
0.0
 10
-3.59852
 20
-4.04831
 30
0.0
 10
-3.59852
 20
-4.04831
 30
0.0
  0
SPLINE
  5
4E
330
1F
100
AcDbEntity
  8
Camada 1
 62
   239
100
AcDbSpline
210
0.0
220
0.0
230
1.0
 70
    11
 71
     3
 72
    20
 73
    16
 74
     0
 42
0.0000000001
 43
0.0000000001
 12
1.0
 22
0.0
 32
0.0
 13
1.0
 23
0.0
 33
0.0
 40
0.0
 40
0.0
 40
0.0
 40
0.0
 40
0.2
 40
0.2
 40
0.2
 40
0.2
 40
0.4
 40
0.4
 40
0.4
 40
0.4
 40
0.6
 40
0.6
 40
0.6
 40
0.6
 40
1.0
 40
1.0
 40
1.0
 40
1.0
 10
-2.59557
 20
-4.55772
 30
0.0
 10
-2.77513
 20
-4.58947
 30
0.0
 10
-2.92154
 20
-4.71118
 30
0.0
 10
-3.04078
 20
-4.84206
 30
0.0
 10
-3.04078
 20
-4.84206
 30
0.0
 10
-2.72504
 20
-4.81877
 30
0.0
 10
-2.40613
 20
-4.73869
 30
0.0
 10
-2.15178
 20
-4.54184
 30
0.0
 10
-2.15178
 20
-4.54184
 30
0.0
 10
-2.29959
 20
-4.53867
 30
0.0
 10
-2.44917
 20
-4.53655
 30
0.0
 10
-2.59557
 20
-4.55772
 30
0.0
 10
-2.59557
 20
-4.55772
 30
0.0
 10
-2.59557
 20
-4.55772
 30
0.0
 10
-2.59557
 20
-4.55772
 30
0.0
 10
-2.59557
 20
-4.55772
 30
0.0
  0
SPLINE
  5
4F
330
1F
100
AcDbEntity
  8
Camada 1
 62
   239
100
AcDbSpline
210
0.0
220
0.0
230
1.0
 70
    11
 71
     3
 72
    20
 73
    16
 74
     0
 42
0.0000000001
 43
0.0000000001
 12
1.0
 22
0.0
 32
0.0
 13
1.0
 23
0.0
 33
0.0
 40
0.0
 40
0.0
 40
0.0
 40
0.0
 40
0.2
 40
0.2
 40
0.2
 40
0.2
 40
0.4
 40
0.4
 40
0.4
 40
0.4
 40
0.6
 40
0.6
 40
0.6
 40
0.6
 40
1.0
 40
1.0
 40
1.0
 40
1.0
 10
-2.19975
 20
-4.98775
 30
0.0
 10
-2.45164
 20
-5.08054
 30
0.0
 10
-2.71375
 20
-5.14086
 30
0.0
 10
-2.96846
 20
-5.22447
 30
0.0
 10
-2.96846
 20
-5.22447
 30
0.0
 10
-2.37226
 20
-5.37581
 30
0.0
 10
-1.71962
 20
-5.08653
 30
0.0
 10
-1.37919
 20
-4.58594
 30
0.0
 10
-1.37919
 20
-4.58594
 30
0.0
 10
-1.66318
 20
-4.69848
 30
0.0
 10
-1.91753
 20
-4.87169
 30
0.0
 10
-2.19975
 20
-4.98775
 30
0.0
 10
-2.19975
 20
-4.98775
 30
0.0
 10
-2.19975
 20
-4.98775
 30
0.0
 10
-2.19975
 20
-4.98775
 30
0.0
 10
-2.19975
 20
-4.98775
 30
0.0
  0
SPLINE
  5
50
330
1F
100
AcDbEntity
  8
Camada 1
 62
   239
100
AcDbSpline
210
0.0
220
0.0
230
1.0
 70
    11
 71
     3
 72
    24
 73
    20
 74
     0
 42
0.0000000001
 43
0.0000000001
 12
1.0
 22
0.0
 32
0.0
 13
1.0
 23
0.0
 33
0.0
 40
0.0
 40
0.0
 40
0.0
 40
0.0
 40
0.1666666666666667
 40
0.1666666666666667
 40
0.1666666666666667
 40
0.1666666666666667
 40
0.3333333333333333
 40
0.3333333333333333
 40
0.3333333333333333
 40
0.3333333333333333
 40
0.5
 40
0.5
 40
0.5
 40
0.5
 40
0.6666666666666666
 40
0.6666666666666666
 40
0.6666666666666666
 40
0.6666666666666666
 40
1.0
 40
1.0
 40
1.0
 40
1.0
 10
-1.85756
 20
-5.91097
 30
0.0
 10
-1.77783
 20
-6.0736
 30
0.0
 10
-1.63813
 20
-6.19637
 30
0.0
 10
-1.5076
 20
-6.31843
 30
0.0
 10
-1.5076
 20
-6.31843
 30
0.0
 10
-1.3298
 20
-6.04715
 30
0.0
 10
-1.15095
 20
-5.75046
 30
0.0
 10
-1.16082
 20
-5.4132
 30
0.0
 10
-1.16082
 20
-5.4132
 30
0.0
 10
-1.28112
 20
-5.35041
 30
0.0
 10
-1.39613
 20
-5.26751
 30
0.0
 10
-1.53265
 20
-5.24493
 30
0.0
 10
-1.53265
 20
-5.24493
 30
0.0
 10
-1.79688
 20
-5.33171
 30
0.0
 10
-1.94858
 20
-5.6471
 30
0.0
 10
-1.85756
 20
-5.91097
 30
0.0
 10
-1.85756
 20
-5.91097
 30
0.0
 10
-1.85756
 20
-5.91097
 30
0.0
 10
-1.85756
 20
-5.91097
 30
0.0
 10
-1.85756
 20
-5.91097
 30
0.0
  0
SPLINE
  5
51
330
1F
100
AcDbEntity
  8
Camada 1
 62
   239
100
AcDbSpline
210
0.0
220
0.0
230
1.0
 70
    11
 71
     3
 72
    20
 73
    16
 74
     0
 42
0.0000000001
 43
0.0000000001
 12
1.0
 22
0.0
 32
0.0
 13
1.0
 23
0.0
 33
0.0
 40
0.0
 40
0.0
 40
0.0
 40
0.0
 40
0.2
 40
0.2
 40
0.2
 40
0.2
 40
0.4
 40
0.4
 40
0.4
 40
0.4
 40
0.6
 40
0.6
 40
0.6
 40
0.6
 40
1.0
 40
1.0
 40
1.0
 40
1.0
 10
-4.19648
 20
-6.0154
 30
0.0
 10
-4.12733
 20
-6.06549
 30
0.0
 10
-4.05854
 20
-6.11523
 30
0.0
 10
-3.98869
 20
-6.16462
 30
0.0
 10
-3.98869
 20
-6.16462
 30
0.0
 10
-3.98657
 20
-6.08313
 30
0.0
 10
-3.98975
 20
-6.00199
 30
0.0
 10
-3.99645
 20
-5.92085
 30
0.0
 10
-3.99645
 20
-5.92085
 30
0.0
 10
-4.06383
 20
-5.95084
 30
0.0
 10
-4.13051
 20
-5.98294
 30
0.0
 10
-4.19648
 20
-6.0154
 30
0.0
 10
-4.19648
 20
-6.0154
 30
0.0
 10
-4.19648
 20
-6.0154
 30
0.0
 10
-4.19648
 20
-6.0154
 30
0.0
 10
-4.19648
 20
-6.0154
 30
0.0
  0
SPLINE
  5
52
330
1F
100
AcDbEntity
  8
Camada 1
 62
   239
100
AcDbSpline
210
0.0
220
0.0
230
1.0
 70
    11
 71
     3
 72
    20
 73
    16
 74
     0
 42
0.0000000001
 43
0.0000000001
 12
1.0
 22
0.0
 32
0.0
 13
1.0
 23
0.0
 33
0.0
 40
0.0
 40
0.0
 40
0.0
 40
0.0
 40
0.2
 40
0.2
 40
0.2
 40
0.2
 40
0.4
 40
0.4
 40
0.4
 40
0.4
 40
0.6
 40
0.6
 40
0.6
 40
0.6
 40
1.0
 40
1.0
 40
1.0
 40
1.0
 10
-2.24385
 20
-5.91168
 30
0.0
 10
-2.24914
 20
-6.00234
 30
0.0
 10
-2.28583
 20
-6.11382
 30
0.0
 10
-2.19905
 20
-6.17909
 30
0.0
 10
-2.19905
 20
-6.17909
 30
0.0
 10
-2.05018
 20
-6.30573
 30
0.0
 10
-1.95175
 20
-6.55585
 30
0.0
 10
-1.72068
 20
-6.51987
 30
0.0
 10
-1.72068
 20
-6.51987
 30
0.0
 10
-1.86638
 20
-6.29444
 30
0.0
 10
-2.05617
 20
-6.10147
 30
0.0
 10
-2.24385
 20
-5.91168
 30
0.0
 10
-2.24385
 20
-5.91168
 30
0.0
 10
-2.24385
 20
-5.91168
 30
0.0
 10
-2.24385
 20
-5.91168
 30
0.0
 10
-2.24385
 20
-5.91168
 30
0.0
  0
SPLINE
  5
53
330
1F
100
AcDbEntity
  8
Camada 1
 62
   239
100
AcDbSpline
210
0.0
220
0.0
230
1.0
 70
    11
 71
     3
 72
    24
 73
    20
 74
     0
 42
0.0000000001
 43
0.0000000001
 12
1.0
 22
0.0
 32
0.0
 13
1.0
 23
0.0
 33
0.0
 40
0.0
 40
0.0
 40
0.0
 40
0.0
 40
0.1666666666666667
 40
0.1666666666666667
 40
0.1666666666666667
 40
0.1666666666666667
 40
0.3333333333333333
 40
0.3333333333333333
 40
0.3333333333333333
 40
0.3333333333333333
 40
0.5
 40
0.5
 40
0.5
 40
0.5
 40
0.6666666666666666
 40
0.6666666666666666
 40
0.6666666666666666
 40
0.6666666666666666
 40
1.0
 40
1.0
 40
1.0
 40
1.0
 10
-0.2496
 20
-6.58019
 30
0.0
 10
-0.13142
 20
-6.62888
 30
0.0
 10
-0.01253
 20
-6.67227
 30
0.0
 10
0.11024
 20
-6.71072
 30
0.0
 10
0.11024
 20
-6.71072
 30
0.0
 10
0.14657
 20
-6.58055
 30
0.0
 10
0.1695
 20
-6.44825
 30
0.0
 10
0.17973
 20
-6.31385
 30
0.0
 10
0.17973
 20
-6.31385
 30
0.0
 10
0.10318
 20
-6.23341
 30
0.0
 10
0.01604
 20
-6.15862
 30
0.0
 10
-0.08556
 20
-6.11276
 30
0.0
 10
-0.08556
 20
-6.11276
 30
0.0
 10
-0.27711
 20
-6.17097
 30
0.0
 10
-0.20479
 20
-6.43979
 30
0.0
 10
-0.2496
 20
-6.58019
 30
0.0
 10
-0.2496
 20
-6.58019
 30
0.0
 10
-0.2496
 20
-6.58019
 30
0.0
 10
-0.2496
 20
-6.58019
 30
0.0
 10
-0.2496
 20
-6.58019
 30
0.0
  0
SPLINE
  5
54
330
1F
100
AcDbEntity
  8
Camada 1
 62
   239
100
AcDbSpline
210
0.0
220
0.0
230
1.0
 70
    11
 71
     3
 72
    24
 73
    20
 74
     0
 42
0.0000000001
 43
0.0000000001
 12
1.0
 22
0.0
 32
0.0
 13
1.0
 23
0.0
 33
0.0
 40
0.0
 40
0.0
 40
0.0
 40
0.0
 40
0.1666666666666667
 40
0.1666666666666667
 40
0.1666666666666667
 40
0.1666666666666667
 40
0.3333333333333333
 40
0.3333333333333333
 40
0.3333333333333333
 40
0.3333333333333333
 40
0.5
 40
0.5
 40
0.5
 40
0.5
 40
0.6666666666666666
 40
0.6666666666666666
 40
0.6666666666666666
 40
0.6666666666666666
 40
1.0
 40
1.0
 40
1.0
 40
1.0
 10
0.55191
 20
-6.365
 30
0.0
 10
0.47042
 20
-6.45672
 30
0.0
 10
0.49441
 20
-6.58725
 30
0.0
 10
0.49864
 20
-6.69908
 30
0.0
 10
0.49864
 20
-6.69908
 30
0.0
 10
0.61541
 20
-6.65922
 30
0.0
 10
0.80097
 20
-6.67791
 30
0.0
 10
0.86694
 20
-6.54597
 30
0.0
 10
0.86694
 20
-6.54597
 30
0.0
 10
0.89587
 20
-6.4098
 30
0.0
 10
0.84754
 20
-6.26763
 30
0.0
 10
0.85319
 20
-6.13146
 30
0.0
 10
0.85319
 20
-6.13146
 30
0.0
 10
0.753
 20
-6.20942
 30
0.0
 10
0.63834
 20
-6.27116
 30
0.0
 10
0.55191
 20
-6.365
 30
0.0
 10
0.55191
 20
-6.365
 30
0.0
 10
0.55191
 20
-6.365
 30
0.0
 10
0.55191
 20
-6.365
 30
0.0
 10
0.55191
 20
-6.365
 30
0.0
  0
SPLINE
  5
55
330
1F
100
AcDbEntity
  8
Camada 1
 62
   239
100
AcDbSpline
210
0.0
220
0.0
230
1.0
 70
    11
 71
     3
 72
    24
 73
    20
 74
     0
 42
0.0000000001
 43
0.0000000001
 12
1.0
 22
0.0
 32
0.0
 13
1.0
 23
0.0
 33
0.0
 40
0.0
 40
0.0
 40
0.0
 40
0.0
 40
0.1666666666666667
 40
0.1666666666666667
 40
0.1666666666666667
 40
0.1666666666666667
 40
0.3333333333333333
 40
0.3333333333333333
 40
0.3333333333333333
 40
0.3333333333333333
 40
0.5
 40
0.5
 40
0.5
 40
0.5
 40
0.6666666666666666
 40
0.6666666666666666
 40
0.6666666666666666
 40
0.6666666666666666
 40
1.0
 40
1.0
 40
1.0
 40
1.0
 10
-0.68351
 20
-6.74671
 30
0.0
 10
-0.68528
 20
-6.77916
 30
0.0
 10
-0.68916
 20
-6.84442
 30
0.0
 10
-0.69092
 20
-6.87723
 30
0.0
 10
-0.69092
 20
-6.87723
 30
0.0
 10
-0.55898
 20
-6.90122
 30
0.0
 10
-0.42493
 20
-6.9051
 30
0.0
 10
-0.29087
 20
-6.9111
 30
0.0
 10
-0.29087
 20
-6.9111
 30
0.0
 10
-0.32897
 20
-6.86136
 30
0.0
 10
-0.40553
 20
-6.76152
 30
0.0
 10
-0.44363
 20
-6.71143
 30
0.0
 10
-0.44363
 20
-6.71143
 30
0.0
 10
-0.52406
 20
-6.72272
 30
0.0
 10
-0.60379
 20
-6.73436
 30
0.0
 10
-0.68351
 20
-6.74671
 30
0.0
 10
-0.68351
 20
-6.74671
 30
0.0
 10
-0.68351
 20
-6.74671
 30
0.0
 10
-0.68351
 20
-6.74671
 30
0.0
 10
-0.68351
 20
-6.74671
 30
0.0
  0
SPLINE
  5
56
330
1F
100
AcDbEntity
  8
Camada 1
 62
   239
100
AcDbSpline
210
0.0
220
0.0
230
1.0
 70
    11
 71
     3
 72
    20
 73
    16
 74
     0
 42
0.0000000001
 43
0.0000000001
 12
1.0
 22
0.0
 32
0.0
 13
1.0
 23
0.0
 33
0.0
 40
0.0
 40
0.0
 40
0.0
 40
0.0
 40
0.2
 40
0.2
 40
0.2
 40
0.2
 40
0.4
 40
0.4
 40
0.4
 40
0.4
 40
0.6
 40
0.6
 40
0.6
 40
0.6
 40
1.0
 40
1.0
 40
1.0
 40
1.0
 10
0.94738
 20
-6.96578
 30
0.0
 10
1.02181
 20
-6.97319
 30
0.0
 10
1.09766
 20
-6.98906
 30
0.0
 10
1.1728
 20
-6.97883
 30
0.0
 10
1.1728
 20
-6.97883
 30
0.0
 10
1.28816
 20
-6.94567
 30
0.0
 10
1.34637
 20
-6.82926
 30
0.0
 10
1.41304
 20
-6.73965
 30
0.0
 10
1.41304
 20
-6.73965
 30
0.0
 10
1.22642
 20
-6.74036
 30
0.0
 10
1.06803
 20
-6.83278
 30
0.0
 10
0.94738
 20
-6.96578
 30
0.0
 10
0.94738
 20
-6.96578
 30
0.0
 10
0.94738
 20
-6.96578
 30
0.0
 10
0.94738
 20
-6.96578
 30
0.0
 10
0.94738
 20
-6.96578
 30
0.0
  0
SPLINE
  5
57
330
1F
100
AcDbEntity
  8
Camada 1
 62
   239
100
AcDbSpline
210
0.0
220
0.0
230
1.0
 70
    11
 71
     3
 72
    28
 73
    24
 74
     0
 42
0.0000000001
 43
0.0000000001
 12
1.0
 22
0.0
 32
0.0
 13
1.0
 23
0.0
 33
0.0
 40
0.0
 40
0.0
 40
0.0
 40
0.0
 40
0.1428571428571428
 40
0.1428571428571428
 40
0.1428571428571428
 40
0.1428571428571428
 40
0.2857142857142857
 40
0.2857142857142857
 40
0.2857142857142857
 40
0.2857142857142857
 40
0.4285714285714285
 40
0.4285714285714285
 40
0.4285714285714285
 40
0.4285714285714285
 40
0.5714285714285714
 40
0.5714285714285714
 40
0.5714285714285714
 40
0.5714285714285714
 40
0.7142857142857143
 40
0.7142857142857143
 40
0.7142857142857143
 40
0.7142857142857143
 40
1.0
 40
1.0
 40
1.0
 40
1.0
 10
-2.22656
 20
-7.14781
 30
0.0
 10
-2.49397
 20
-7.44591
 30
0.0
 10
-2.81958
 20
-7.74366
 30
0.0
 10
-2.86545
 20
-8.16487
 30
0.0
 10
-2.86545
 20
-8.16487
 30
0.0
 10
-2.86791
 20
-8.30986
 30
0.0
 10
-2.8979
 20
-8.51306
 30
0.0
 10
-2.75573
 20
-8.61114
 30
0.0
 10
-2.75573
 20
-8.61114
 30
0.0
 10
-2.07663
 20
-8.76565
 30
0.0
 10
-1.35873
 20
-8.26224
 30
0.0
 10
-1.22256
 20
-7.59055
 30
0.0
 10
-1.22256
 20
-7.59055
 30
0.0
 10
-1.17211
 20
-7.29351
 30
0.0
 10
-1.32134
 20
-7.0194
 30
0.0
 10
-1.46068
 20
-6.77069
 30
0.0
 10
-1.46068
 20
-6.77069
 30
0.0
 10
-1.73373
 20
-6.85395
 30
0.0
 10
-2.04277
 20
-6.90792
 30
0.0
 10
-2.22656
 20
-7.14781
 30
0.0
 10
-2.22656
 20
-7.14781
 30
0.0
 10
-2.22656
 20
-7.14781
 30
0.0
 10
-2.22656
 20
-7.14781
 30
0.0
 10
-2.22656
 20
-7.14781
 30
0.0
  0
SPLINE
  5
58
330
1F
100
AcDbEntity
  8
Camada 1
 62
   239
100
AcDbSpline
210
0.0
220
0.0
230
1.0
 70
    11
 71
     3
 72
    24
 73
    20
 74
     0
 42
0.0000000001
 43
0.0000000001
 12
1.0
 22
0.0
 32
0.0
 13
1.0
 23
0.0
 33
0.0
 40
0.0
 40
0.0
 40
0.0
 40
0.0
 40
0.1666666666666667
 40
0.1666666666666667
 40
0.1666666666666667
 40
0.1666666666666667
 40
0.3333333333333333
 40
0.3333333333333333
 40
0.3333333333333333
 40
0.3333333333333333
 40
0.5
 40
0.5
 40
0.5
 40
0.5
 40
0.6666666666666666
 40
0.6666666666666666
 40
0.6666666666666666
 40
0.6666666666666666
 40
1.0
 40
1.0
 40
1.0
 40
1.0
 10
-0.5932
 20
-7.26388
 30
0.0
 10
-0.70539
 20
-7.35348
 30
0.0
 10
-0.77312
 20
-7.48648
 30
0.0
 10
-0.84897
 20
-7.60607
 30
0.0
 10
-0.84897
 20
-7.60607
 30
0.0
 10
-0.70539
 20
-7.61383
 30
0.0
 10
-0.56004
 20
-7.62512
 30
0.0
 10
-0.41928
 20
-7.65758
 30
0.0
 10
-0.41928
 20
-7.65758
 30
0.0
 10
-0.34626
 20
-7.5334
 30
0.0
 10
-0.27817
 20
-7.40569
 30
0.0
 10
-0.2309
 20
-7.26882
 30
0.0
 10
-0.2309
 20
-7.26882
 30
0.0
 10
-0.34696
 20
-7.23812
 30
0.0
 10
-0.48525
 20
-7.17851
 30
0.0
 10
-0.5932
 20
-7.26388
 30
0.0
 10
-0.5932
 20
-7.26388
 30
0.0
 10
-0.5932
 20
-7.26388
 30
0.0
 10
-0.5932
 20
-7.26388
 30
0.0
 10
-0.5932
 20
-7.26388
 30
0.0
  0
SPLINE
  5
59
330
1F
100
AcDbEntity
  8
Camada 1
 62
   239
100
AcDbSpline
210
0.0
220
0.0
230
1.0
 70
    11
 71
     3
 72
    24
 73
    20
 74
     0
 42
0.0000000001
 43
0.0000000001
 12
1.0
 22
0.0
 32
0.0
 13
1.0
 23
0.0
 33
0.0
 40
0.0
 40
0.0
 40
0.0
 40
0.0
 40
0.1666666666666667
 40
0.1666666666666667
 40
0.1666666666666667
 40
0.1666666666666667
 40
0.3333333333333333
 40
0.3333333333333333
 40
0.3333333333333333
 40
0.3333333333333333
 40
0.5
 40
0.5
 40
0.5
 40
0.5
 40
0.6666666666666666
 40
0.6666666666666666
 40
0.6666666666666666
 40
0.6666666666666666
 40
1.0
 40
1.0
 40
1.0
 40
1.0
 10
0.87047
 20
-7.39158
 30
0.0
 10
0.84789
 20
-7.48048
 30
0.0
 10
0.87047
 20
-7.57079
 30
0.0
 10
0.88599
 20
-7.65899
 30
0.0
 10
0.88599
 20
-7.65899
 30
0.0
 10
1.04898
 20
-7.65511
 30
0.0
 10
1.21196
 20
-7.65193
 30
0.0
 10
1.3753
 20
-7.64699
 30
0.0
 10
1.3753
 20
-7.64699
 30
0.0
 10
1.34672
 20
-7.47484
 30
0.0
 10
1.2236
 20
-7.3496
 30
0.0
 10
1.10966
 20
-7.22789
 30
0.0
 10
1.10966
 20
-7.22789
 30
0.0
 10
1.02675
 20
-7.27693
 30
0.0
 10
0.93291
 20
-7.31574
 30
0.0
 10
0.87047
 20
-7.39158
 30
0.0
 10
0.87047
 20
-7.39158
 30
0.0
 10
0.87047
 20
-7.39158
 30
0.0
 10
0.87047
 20
-7.39158
 30
0.0
 10
0.87047
 20
-7.39158
 30
0.0
  0
SPLINE
  5
5A
330
1F
100
AcDbEntity
  8
Camada 1
 62
   239
100
AcDbSpline
210
0.0
220
0.0
230
1.0
 70
    11
 71
     3
 72
    24
 73
    20
 74
     0
 42
0.0000000001
 43
0.0000000001
 12
1.0
 22
0.0
 32
0.0
 13
1.0
 23
0.0
 33
0.0
 40
0.0
 40
0.0
 40
0.0
 40
0.0
 40
0.1666666666666667
 40
0.1666666666666667
 40
0.1666666666666667
 40
0.1666666666666667
 40
0.3333333333333333
 40
0.3333333333333333
 40
0.3333333333333333
 40
0.3333333333333333
 40
0.5
 40
0.5
 40
0.5
 40
0.5
 40
0.6666666666666666
 40
0.6666666666666666
 40
0.6666666666666666
 40
0.6666666666666666
 40
1.0
 40
1.0
 40
1.0
 40
1.0
 10
-0.19668
 20
-7.87312
 30
0.0
 10
-0.27288
 20
-7.95885
 30
0.0
 10
-0.28699
 20
-8.07844
 30
0.0
 10
-0.31416
 20
-8.18533
 30
0.0
 10
-0.31416
 20
-8.18533
 30
0.0
 10
-0.21326
 20
-8.14159
 30
0.0
 10
-0.08838
 20
-8.11054
 30
0.0
 10
-0.03405
 20
-8.00471
 30
0.0
 10
-0.03405
 20
-8.00471
 30
0.0
 10
0.00299
 20
-7.92463
 30
0.0
 10
0.01675
 20
-7.83679
 30
0.0
 10
0.0358
 20
-7.75177
 30
0.0
 10
0.0358
 20
-7.75177
 30
0.0
 10
-0.04358
 20
-7.78775
 30
0.0
 10
-0.13248
 20
-7.81209
 30
0.0
 10
-0.19668
 20
-7.87312
 30
0.0
 10
-0.19668
 20
-7.87312
 30
0.0
 10
-0.19668
 20
-7.87312
 30
0.0
 10
-0.19668
 20
-7.87312
 30
0.0
 10
-0.19668
 20
-7.87312
 30
0.0
  0
SPLINE
  5
5B
330
1F
100
AcDbEntity
  8
Camada 1
 62
   239
100
AcDbSpline
210
0.0
220
0.0
230
1.0
 70
    11
 71
     3
 72
    24
 73
    20
 74
     0
 42
0.0000000001
 43
0.0000000001
 12
1.0
 22
0.0
 32
0.0
 13
1.0
 23
0.0
 33
0.0
 40
0.0
 40
0.0
 40
0.0
 40
0.0
 40
0.1666666666666667
 40
0.1666666666666667
 40
0.1666666666666667
 40
0.1666666666666667
 40
0.3333333333333333
 40
0.3333333333333333
 40
0.3333333333333333
 40
0.3333333333333333
 40
0.5
 40
0.5
 40
0.5
 40
0.5
 40
0.6666666666666666
 40
0.6666666666666666
 40
0.6666666666666666
 40
0.6666666666666666
 40
1.0
 40
1.0
 40
1.0
 40
1.0
 10
0.35753
 20
-7.90029
 30
0.0
 10
0.23159
 20
-8.08373
 30
0.0
 10
0.44749
 20
-8.24037
 30
0.0
 10
0.54204
 20
-8.37477
 30
0.0
 10
0.54204
 20
-8.37477
 30
0.0
 10
0.57343
 20
-8.37442
 30
0.0
 10
0.63623
 20
-8.37372
 30
0.0
 10
0.66762
 20
-8.37336
 30
0.0
 10
0.66762
 20
-8.37336
 30
0.0
 10
0.69726
 20
-8.19874
 30
0.0
 10
0.7089
 20
-8.02164
 30
0.0
 10
0.75688
 20
-7.85055
 30
0.0
 10
0.75688
 20
-7.85055
 30
0.0
 10
0.6327
 20
-7.8322
 30
0.0
 10
0.42033
 20
-7.72954
 30
0.0
 10
0.35753
 20
-7.90029
 30
0.0
 10
0.35753
 20
-7.90029
 30
0.0
 10
0.35753
 20
-7.90029
 30
0.0
 10
0.35753
 20
-7.90029
 30
0.0
 10
0.35753
 20
-7.90029
 30
0.0
  0
SPLINE
  5
5C
330
1F
100
AcDbEntity
  8
Camada 1
 62
   239
100
AcDbSpline
210
0.0
220
0.0
230
1.0
 70
    11
 71
     3
 72
    28
 73
    24
 74
     0
 42
0.0000000001
 43
0.0000000001
 12
1.0
 22
0.0
 32
0.0
 13
1.0
 23
0.0
 33
0.0
 40
0.0
 40
0.0
 40
0.0
 40
0.0
 40
0.1428571428571428
 40
0.1428571428571428
 40
0.1428571428571428
 40
0.1428571428571428
 40
0.2857142857142857
 40
0.2857142857142857
 40
0.2857142857142857
 40
0.2857142857142857
 40
0.4285714285714285
 40
0.4285714285714285
 40
0.4285714285714285
 40
0.4285714285714285
 40
0.5714285714285714
 40
0.5714285714285714
 40
0.5714285714285714
 40
0.5714285714285714
 40
0.7142857142857143
 40
0.7142857142857143
 40
0.7142857142857143
 40
0.7142857142857143
 40
1.0
 40
1.0
 40
1.0
 40
1.0
 10
-1.07439
 20
-8.77624
 30
0.0
 10
-1.00525
 20
-8.80728
 30
0.0
 10
-0.93716
 20
-8.84573
 30
0.0
 10
-0.86131
 20
-8.85843
 30
0.0
 10
-0.86131
 20
-8.85843
 30
0.0
 10
-0.77947
 20
-8.84573
 30
0.0
 10
-0.70962
 20
-8.79705
 30
0.0
 10
-0.63801
 20
-8.75895
 30
0.0
 10
-0.63801
 20
-8.75895
 30
0.0
 10
-0.73396
 20
-8.73073
 30
0.0
 10
-0.83521
 20
-8.71662
 30
0.0
 10
-0.92623
 20
-8.67675
 30
0.0
 10
-0.92623
 20
-8.67675
 30
0.0
 10
-1.00278
 20
-8.59561
 30
0.0
 10
-0.98338
 20
-8.46332
 30
0.0
 10
-1.01266
 20
-8.36737
 30
0.0
 10
-1.01266
 20
-8.36737
 30
0.0
 10
-1.03488
 20
-8.50354
 30
0.0
 10
-1.05393
 20
-8.63971
 30
0.0
 10
-1.07439
 20
-8.77624
 30
0.0
 10
-1.07439
 20
-8.77624
 30
0.0
 10
-1.07439
 20
-8.77624
 30
0.0
 10
-1.07439
 20
-8.77624
 30
0.0
 10
-1.07439
 20
-8.77624
 30
0.0
  0
SPLINE
  5
5D
330
1F
100
AcDbEntity
  8
Camada 1
 62
   239
100
AcDbSpline
210
0.0
220
0.0
230
1.0
 70
    11
 71
     3
 72
    28
 73
    24
 74
     0
 42
0.0000000001
 43
0.0000000001
 12
1.0
 22
0.0
 32
0.0
 13
1.0
 23
0.0
 33
0.0
 40
0.0
 40
0.0
 40
0.0
 40
0.0
 40
0.1428571428571428
 40
0.1428571428571428
 40
0.1428571428571428
 40
0.1428571428571428
 40
0.2857142857142857
 40
0.2857142857142857
 40
0.2857142857142857
 40
0.2857142857142857
 40
0.4285714285714285
 40
0.4285714285714285
 40
0.4285714285714285
 40
0.4285714285714285
 40
0.5714285714285714
 40
0.5714285714285714
 40
0.5714285714285714
 40
0.5714285714285714
 40
0.7142857142857143
 40
0.7142857142857143
 40
0.7142857142857143
 40
0.7142857142857143
 40
1.0
 40
1.0
 40
1.0
 40
1.0
 10
1.10542
 20
-8.49578
 30
0.0
 10
1.16892
 20
-8.64818
 30
0.0
 10
1.27017
 20
-8.80834
 30
0.0
 10
1.43421
 20
-8.86549
 30
0.0
 10
1.43421
 20
-8.86549
 30
0.0
 10
1.53934
 20
-8.90571
 30
0.0
 10
1.66387
 20
-8.86337
 30
0.0
 10
1.73972
 20
-8.78435
 30
0.0
 10
1.73972
 20
-8.78435
 30
0.0
 10
1.7824
 20
-8.69157
 30
0.0
 10
1.74501
 20
-8.58609
 30
0.0
 10
1.74077
 20
-8.48802
 30
0.0
 10
1.74077
 20
-8.48802
 30
0.0
 10
1.69174
 20
-8.56774
 30
0.0
 10
1.6487
 20
-8.65065
 30
0.0
 10
1.6106
 20
-8.73602
 30
0.0
 10
1.6106
 20
-8.73602
 30
0.0
 10
1.41834
 20
-8.71168
 30
0.0
 10
1.26276
 20
-8.59702
 30
0.0
 10
1.10542
 20
-8.49578
 30
0.0
 10
1.10542
 20
-8.49578
 30
0.0
 10
1.10542
 20
-8.49578
 30
0.0
 10
1.10542
 20
-8.49578
 30
0.0
 10
1.10542
 20
-8.49578
 30
0.0
  0
SPLINE
  5
5E
330
1F
100
AcDbEntity
  8
Camada 1
 62
   239
100
AcDbSpline
210
0.0
220
0.0
230
1.0
 70
    11
 71
     3
 72
    64
 73
    60
 74
     0
 42
0.0000000001
 43
0.0000000001
 12
1.0
 22
0.0
 32
0.0
 13
1.0
 23
0.0
 33
0.0
 40
0.0
 40
0.0
 40
0.0
 40
0.0
 40
0.0625
 40
0.0625
 40
0.0625
 40
0.0625
 40
0.125
 40
0.125
 40
0.125
 40
0.125
 40
0.1875
 40
0.1875
 40
0.1875
 40
0.1875
 40
0.25
 40
0.25
 40
0.25
 40
0.25
 40
0.3125
 40
0.3125
 40
0.3125
 40
0.3125
 40
0.375
 40
0.375
 40
0.375
 40
0.375
 40
0.4375
 40
0.4375
 40
0.4375
 40
0.4375
 40
0.5
 40
0.5
 40
0.5
 40
0.5
 40
0.5625
 40
0.5625
 40
0.5625
 40
0.5625
 40
0.625
 40
0.625
 40
0.625
 40
0.625
 40
0.6875
 40
0.6875
 40
0.6875
 40
0.6875
 40
0.75
 40
0.75
 40
0.75
 40
0.75
 40
0.8125
 40
0.8125
 40
0.8125
 40
0.8125
 40
0.875
 40
0.875
 40
0.875
 40
0.875
 40
1.0
 40
1.0
 40
1.0
 40
1.0
 10
0.7851
 20
-9.06904
 30
0.0
 10
0.79145
 20
-9.1971
 30
0.0
 10
0.77734
 20
-9.33292
 30
0.0
 10
0.83625
 20
-9.45145
 30
0.0
 10
0.83625
 20
-9.45145
 30
0.0
 10
0.88882
 20
-9.65747
 30
0.0
 10
1.09978
 20
-9.73932
 30
0.0
 10
1.24406
 20
-9.86632
 30
0.0
 10
1.24406
 20
-9.86632
 30
0.0
 10
1.35942
 20
-9.94605
 30
0.0
 10
1.37283
 20
-10.10127
 30
0.0
 10
1.41446
 20
-10.22262
 30
0.0
 10
1.41446
 20
-10.22262
 30
0.0
 10
1.34884
 20
-10.28224
 30
0.0
 10
1.28393
 20
-10.34292
 30
0.0
 10
1.22219
 20
-10.40677
 30
0.0
 10
1.22219
 20
-10.40677
 30
0.0
 10
1.28781
 20
-10.36621
 30
0.0
 10
1.38694
 20
-10.34821
 30
0.0
 10
1.4134
 20
-10.26602
 30
0.0
 10
1.4134
 20
-10.26602
 30
0.0
 10
1.42751
 20
-10.16159
 30
0.0
 10
1.41234
 20
-10.05647
 30
0.0
 10
1.41093
 20
-9.95169
 30
0.0
 10
1.41093
 20
-9.95169
 30
0.0
 10
1.66669
 20
-9.91324
 30
0.0
 10
1.92104
 20
-9.95169
 30
0.0
 10
2.13342
 20
-10.10444
 30
0.0
 10
2.13342
 20
-10.10444
 30
0.0
 10
2.12636
 20
-10.18805
 30
0.0
 10
2.11931
 20
-10.27201
 30
0.0
 10
2.1126
 20
-10.35668
 30
0.0
 10
2.1126
 20
-10.35668
 30
0.0
 10
2.15352
 20
-10.33692
 30
0.0
 10
2.19445
 20
-10.31717
 30
0.0
 10
2.23572
 20
-10.29741
 30
0.0
 10
2.23572
 20
-10.29741
 30
0.0
 10
2.19304
 20
-10.18523
 30
0.0
 10
2.16905
 20
-10.03847
 30
0.0
 10
2.05263
 20
-9.97392
 30
0.0
 10
2.05263
 20
-9.97392
 30
0.0
 10
1.82756
 20
-9.8388
 30
0.0
 10
1.53828
 20
-9.92312
 30
0.0
 10
1.31039
 20
-9.79576
 30
0.0
 10
1.31039
 20
-9.79576
 30
0.0
 10
1.15799
 20
-9.70228
 30
0.0
 10
1.05533
 20
-9.55094
 30
0.0
 10
0.94702
 20
-9.413
 30
0.0
 10
0.94702
 20
-9.413
 30
0.0
 10
1.00841
 20
-9.40806
 30
0.0
 10
1.13082
 20
-9.39854
 30
0.0
 10
1.19185
 20
-9.3936
 30
0.0
 10
1.19185
 20
-9.3936
 30
0.0
 10
1.00559
 20
-9.35867
 30
0.0
 10
0.86412
 20
-9.23908
 30
0.0
 10
0.7851
 20
-9.06904
 30
0.0
 10
0.7851
 20
-9.06904
 30
0.0
 10
0.7851
 20
-9.06904
 30
0.0
 10
0.7851
 20
-9.06904
 30
0.0
 10
0.7851
 20
-9.06904
 30
0.0
  0
SPLINE
  5
5F
330
1F
100
AcDbEntity
  8
Camada 1
 62
   239
100
AcDbSpline
210
0.0
220
0.0
230
1.0
 70
    11
 71
     3
 72
    20
 73
    16
 74
     0
 42
0.0000000001
 43
0.0000000001
 12
1.0
 22
0.0
 32
0.0
 13
1.0
 23
0.0
 33
0.0
 40
0.0
 40
0.0
 40
0.0
 40
0.0
 40
0.2
 40
0.2
 40
0.2
 40
0.2
 40
0.4
 40
0.4
 40
0.4
 40
0.4
 40
0.6
 40
0.6
 40
0.6
 40
0.6
 40
1.0
 40
1.0
 40
1.0
 40
1.0
 10
1.37565
 20
-9.32234
 30
0.0
 10
1.48748
 20
-9.36926
 30
0.0
 10
1.61307
 20
-9.407
 30
0.0
 10
1.73407
 20
-9.37631
 30
0.0
 10
1.73407
 20
-9.37631
 30
0.0
 10
1.81556
 20
-9.33116
 30
0.0
 10
1.87024
 20
-9.25284
 30
0.0
 10
1.92457
 20
-9.18052
 30
0.0
 10
1.92457
 20
-9.18052
 30
0.0
 10
1.7249
 20
-9.14912
 30
0.0
 10
1.53264
 20
-9.19604
 30
0.0
 10
1.37565
 20
-9.32234
 30
0.0
 10
1.37565
 20
-9.32234
 30
0.0
 10
1.37565
 20
-9.32234
 30
0.0
 10
1.37565
 20
-9.32234
 30
0.0
 10
1.37565
 20
-9.32234
 30
0.0
  0
SPLINE
  5
60
330
1F
100
AcDbEntity
  8
Camada 1
 62
   239
100
AcDbSpline
210
0.0
220
0.0
230
1.0
 70
    11
 71
     3
 72
    20
 73
    16
 74
     0
 42
0.0000000001
 43
0.0000000001
 12
1.0
 22
0.0
 32
0.0
 13
1.0
 23
0.0
 33
0.0
 40
0.0
 40
0.0
 40
0.0
 40
0.0
 40
0.2
 40
0.2
 40
0.2
 40
0.2
 40
0.4
 40
0.4
 40
0.4
 40
0.4
 40
0.6
 40
0.6
 40
0.6
 40
0.6
 40
1.0
 40
1.0
 40
1.0
 40
1.0
 10
2.62836
 20
-9.36608
 30
0.0
 10
2.66893
 20
-9.41335
 30
0.0
 10
2.7095
 20
-9.46062
 30
0.0
 10
2.75042
 20
-9.5086
 30
0.0
 10
2.75042
 20
-9.5086
 30
0.0
 10
2.8739
 20
-9.42252
 30
0.0
 10
2.9755
 20
-9.30928
 30
0.0
 10
3.03723
 20
-9.17135
 30
0.0
 10
3.03723
 20
-9.17135
 30
0.0
 10
2.89753
 20
-9.2292
 30
0.0
 10
2.76207
 20
-9.29588
 30
0.0
 10
2.62836
 20
-9.36608
 30
0.0
 10
2.62836
 20
-9.36608
 30
0.0
 10
2.62836
 20
-9.36608
 30
0.0
 10
2.62836
 20
-9.36608
 30
0.0
 10
2.62836
 20
-9.36608
 30
0.0
  0
SPLINE
  5
61
330
1F
100
AcDbEntity
  8
Camada 1
 62
   239
100
AcDbSpline
210
0.0
220
0.0
230
1.0
 70
    11
 71
     3
 72
    20
 73
    16
 74
     0
 42
0.0000000001
 43
0.0000000001
 12
1.0
 22
0.0
 32
0.0
 13
1.0
 23
0.0
 33
0.0
 40
0.0
 40
0.0
 40
0.0
 40
0.0
 40
0.2
 40
0.2
 40
0.2
 40
0.2
 40
0.4
 40
0.4
 40
0.4
 40
0.4
 40
0.6
 40
0.6
 40
0.6
 40
0.6
 40
1.0
 40
1.0
 40
1.0
 40
1.0
 10
-0.88566
 20
-9.30258
 30
0.0
 10
-1.01936
 20
-9.39783
 30
0.0
 10
-1.09626
 20
-9.5467
 30
0.0
 10
-1.13366
 20
-9.70263
 30
0.0
 10
-1.13366
 20
-9.70263
 30
0.0
 10
-0.87472
 20
-9.67017
 30
0.0
 10
-0.64506
 20
-9.51001
 30
0.0
 10
-0.5671
 20
-9.2546
 30
0.0
 10
-0.5671
 20
-9.2546
 30
0.0
 10
-0.67364
 20
-9.26483
 30
0.0
 10
-0.78617
 20
-9.25778
 30
0.0
 10
-0.88566
 20
-9.30258
 30
0.0
 10
-0.88566
 20
-9.30258
 30
0.0
 10
-0.88566
 20
-9.30258
 30
0.0
 10
-0.88566
 20
-9.30258
 30
0.0
 10
-0.88566
 20
-9.30258
 30
0.0
  0
SPLINE
  5
62
330
1F
100
AcDbEntity
  8
Camada 1
 62
   239
100
AcDbSpline
210
0.0
220
0.0
230
1.0
 70
    11
 71
     3
 72
    24
 73
    20
 74
     0
 42
0.0000000001
 43
0.0000000001
 12
1.0
 22
0.0
 32
0.0
 13
1.0
 23
0.0
 33
0.0
 40
0.0
 40
0.0
 40
0.0
 40
0.0
 40
0.1666666666666667
 40
0.1666666666666667
 40
0.1666666666666667
 40
0.1666666666666667
 40
0.3333333333333333
 40
0.3333333333333333
 40
0.3333333333333333
 40
0.3333333333333333
 40
0.5
 40
0.5
 40
0.5
 40
0.5
 40
0.6666666666666666
 40
0.6666666666666666
 40
0.6666666666666666
 40
0.6666666666666666
 40
1.0
 40
1.0
 40
1.0
 40
1.0
 10
0.06543
 20
-9.44263
 30
0.0
 10
-0.04216
 20
-9.54459
 30
0.0
 10
-0.11554
 20
-9.67547
 30
0.0
 10
-0.18045
 20
-9.80741
 30
0.0
 10
-0.18045
 20
-9.80741
 30
0.0
 10
-0.07356
 20
-9.80388
 30
0.0
 10
0.03262
 20
-9.78941
 30
0.0
 10
0.13493
 20
-9.75484
 30
0.0
 10
0.13493
 20
-9.75484
 30
0.0
 10
0.26934
 20
-9.67406
 30
0.0
 10
0.34201
 20
-9.52765
 30
0.0
 10
0.39211
 20
-9.38442
 30
0.0
 10
0.39211
 20
-9.38442
 30
0.0
 10
0.28274
 20
-9.40206
 30
0.0
 10
0.1688
 20
-9.40206
 30
0.0
 10
0.06543
 20
-9.44263
 30
0.0
 10
0.06543
 20
-9.44263
 30
0.0
 10
0.06543
 20
-9.44263
 30
0.0
 10
0.06543
 20
-9.44263
 30
0.0
 10
0.06543
 20
-9.44263
 30
0.0
  0
SPLINE
  5
63
330
1F
100
AcDbEntity
  8
Camada 1
 62
   239
100
AcDbSpline
210
0.0
220
0.0
230
1.0
 70
    11
 71
     3
 72
    24
 73
    20
 74
     0
 42
0.0000000001
 43
0.0000000001
 12
1.0
 22
0.0
 32
0.0
 13
1.0
 23
0.0
 33
0.0
 40
0.0
 40
0.0
 40
0.0
 40
0.0
 40
0.1666666666666667
 40
0.1666666666666667
 40
0.1666666666666667
 40
0.1666666666666667
 40
0.3333333333333333
 40
0.3333333333333333
 40
0.3333333333333333
 40
0.3333333333333333
 40
0.5
 40
0.5
 40
0.5
 40
0.5
 40
0.6666666666666666
 40
0.6666666666666666
 40
0.6666666666666666
 40
0.6666666666666666
 40
1.0
 40
1.0
 40
1.0
 40
1.0
 10
2.28088
 20
-9.61796
 30
0.0
 10
2.4488
 20
-9.80599
 30
0.0
 10
2.57192
 20
-10.02613
 30
0.0
 10
2.71303
 20
-10.23356
 30
0.0
 10
2.71303
 20
-10.23356
 30
0.0
 10
2.84709
 20
-10.27025
 30
0.0
 10
2.98643
 20
-10.26672
 30
0.0
 10
3.12331
 20
-10.25296
 30
0.0
 10
3.12331
 20
-10.25296
 30
0.0
 10
3.09156
 20
-10.05788
 30
0.0
 10
2.93704
 20
-9.92559
 30
0.0
 10
2.76171
 20
-9.86314
 30
0.0
 10
2.76171
 20
-9.86314
 30
0.0
 10
2.59097
 20
-9.80247
 30
0.0
 10
2.44104
 20
-9.69981
 30
0.0
 10
2.28088
 20
-9.61796
 30
0.0
 10
2.28088
 20
-9.61796
 30
0.0
 10
2.28088
 20
-9.61796
 30
0.0
 10
2.28088
 20
-9.61796
 30
0.0
 10
2.28088
 20
-9.61796
 30
0.0
  0
SPLINE
  5
64
330
1F
100
AcDbEntity
  8
Camada 1
 62
   239
100
AcDbSpline
210
0.0
220
0.0
230
1.0
 70
    11
 71
     3
 72
    20
 73
    16
 74
     0
 42
0.0000000001
 43
0.0000000001
 12
1.0
 22
0.0
 32
0.0
 13
1.0
 23
0.0
 33
0.0
 40
0.0
 40
0.0
 40
0.0
 40
0.0
 40
0.2
 40
0.2
 40
0.2
 40
0.2
 40
0.4
 40
0.4
 40
0.4
 40
0.4
 40
0.6
 40
0.6
 40
0.6
 40
0.6
 40
1.0
 40
1.0
 40
1.0
 40
1.0
 10
0.78298
 20
-9.79541
 30
0.0
 10
0.69655
 20
-9.8762
 30
0.0
 10
0.58331
 20
-9.93299
 30
0.0
 10
0.51311
 20
-10.03036
 30
0.0
 10
0.51311
 20
-10.03036
 30
0.0
 10
0.44396
 20
-10.13337
 30
0.0
 10
0.46266
 20
-10.26284
 30
0.0
 10
0.46866
 20
-10.37961
 30
0.0
 10
0.46866
 20
-10.37961
 30
0.0
 10
0.55862
 20
-10.31787
 30
0.0
 10
0.6514
 20
-10.25614
 30
0.0
 10
0.71984
 20
-10.17006
 30
0.0
 10
0.71984
 20
-10.17006
 30
0.0
 10
0.79286
 20
-10.0607
 30
0.0
 10
0.80274
 20
-9.92241
 30
0.0
 10
0.78298
 20
-9.79541
 30
0.0
  0
ENDSEC
  0
SECTION
  2
OBJECTS
  0
DICTIONARY
  5
C
330
0
100
AcDbDictionary
281
     1
  3
ACAD_GROUP
350
D
  3
ACAD_LAYOUT
350
1A
  3
ACAD_MATERIAL
350
3B
  3
ACAD_MLEADERSTYLE
350
8C
  3
ACAD_MLINESTYLE
350
17
  3
ACAD_PLOTSETTINGS
350
19
  3
ACAD_PLOTSTYLENAME
350
E
  3
ACAD_TABLESTYLE
350
8B
  3
ACAD_VISUALSTYLE
350
2A
  0
DICTIONARY
  5
D
102
{ACAD_REACTORS
330
C
102
}
330
C
100
AcDbDictionary
281
     1
  0
DICTIONARY
  5
1A
102
{ACAD_REACTORS
330
C
102
}
330
C
100
AcDbDictionary
281
     1
  3
Layout1
350
1E
  3
Layout2
350
26
  3
Model
350
22
  0
DICTIONARY
  5
3B
102
{ACAD_REACTORS
330
C
102
}
330
C
100
AcDbDictionary
281
     1
  3
ByBlock
350
3D
  3
ByLayer
350
3C
  3
Global
350
3E
  0
DICTIONARY
  5
8C
102
{ACAD_REACTORS
330
C
102
}
330
C
100
AcDbDictionary
281
     1
  0
DICTIONARY
  5
17
102
{ACAD_REACTORS
330
C
102
}
330
C
100
AcDbDictionary
281
     1
  3
Standard
350
18
  0
DICTIONARY
  5
19
102
{ACAD_REACTORS
330
C
102
}
330
C
100
AcDbDictionary
281
     1
  0
ACDBDICTIONARYWDFLT
  5
E
102
{ACAD_REACTORS
330
C
102
}
330
C
100
AcDbDictionary
281
     1
  3
Normal
350
F
100
AcDbDictionaryWithDefault
340
F
  0
DICTIONARY
  5
8B
102
{ACAD_REACTORS
330
C
102
}
330
C
100
AcDbDictionary
281
     1
  0
DICTIONARY
  5
2A
102
{ACAD_REACTORS
330
C
102
}
330
C
100
AcDbDictionary
281
     1
  3
2dWireframe
350
2F
  3
3D Hidden
350
31
  3
3dWireframe
350
30
  3
Basic
350
32
  3
Brighten
350
36
  3
ColorChange
350
3A
  3
Conceptual
350
34
  3
Dim
350
35
  3
Facepattern
350
39
  3
Flat
350
2B
  3
FlatWithEdges
350
2C
  3
Gouraud
350
2D
  3
GouraudWithEdges
350
2E
  3
Linepattern
350
38
  3
Realistic
350
33
  3
Thicken
350
37
  0
LAYOUT
  5
1E
102
{ACAD_REACTORS
330
1A
102
}
330
1A
100
AcDbPlotSettings
  1

  2
none_device
  4

  6

 40
0.0
 41
0.0
 42
0.0
 43
0.0
 44
0.0
 45
0.0
 46
0.0
 47
0.0
 48
0.0
 49
0.0
140
0.0
141
0.0
142
1.0
143
1.0
 70
   688
 72
     0
 73
     0
 74
     5
  7

 75
    16
 76
     0
 77
     2
 78
   300
147
1.0
148
0.0
149
0.0
100
AcDbLayout
  1
Layout1
 70
     1
 71
     1
 10
0.0
 20
0.0
 11
12.0
 21
9.0
 12
0.0
 22
0.0
 32
0.0
 14
1.000000000000000E+20
 24
1.000000000000000E+20
 34
1.000000000000000E+20
 15
-1.000000000000000E+20
 25
-1.000000000000000E+20
 35
-1.000000000000000E+20
146
0.0
 13
0.0
 23
0.0
 33
0.0
 16
1.0
 26
0.0
 36
0.0
 17
0.0
 27
1.0
 37
0.0
 76
     0
330
1B
  0
LAYOUT
  5
26
102
{ACAD_REACTORS
330
1A
102
}
330
1A
100
AcDbPlotSettings
  1

  2
none_device
  4

  6

 40
0.0
 41
0.0
 42
0.0
 43
0.0
 44
0.0
 45
0.0
 46
0.0
 47
0.0
 48
0.0
 49
0.0
140
0.0
141
0.0
142
1.0
143
1.0
 70
   688
 72
     0
 73
     0
 74
     5
  7

 75
    16
 76
     0
 77
     2
 78
   300
147
1.0
148
0.0
149
0.0
100
AcDbLayout
  1
Layout2
 70
     1
 71
     2
 10
0.0
 20
0.0
 11
0.0
 21
0.0
 12
0.0
 22
0.0
 32
0.0
 14
0.0
 24
0.0
 34
0.0
 15
0.0
 25
0.0
 35
0.0
146
0.0
 13
0.0
 23
0.0
 33
0.0
 16
1.0
 26
0.0
 36
0.0
 17
0.0
 27
1.0
 37
0.0
 76
     0
330
23
  0
LAYOUT
  5
22
102
{ACAD_REACTORS
330
1A
102
}
330
1A
100
AcDbPlotSettings
  1

  2
none_device
  4

  6

 40
0.0
 41
0.0
 42
0.0
 43
0.0
 44
0.0
 45
0.0
 46
0.0
 47
0.0
 48
0.0
 49
0.0
140
0.0
141
0.0
142
1.0
143
1.0
 70
  1712
 72
     0
 73
     0
 74
     0
  7

 75
     0
 76
     0
 77
     2
 78
   300
147
1.0
148
0.0
149
0.0
100
AcDbLayout
  1
Model
 70
     1
 71
     0
 10
0.0
 20
0.0
 11
12.0
 21
9.0
 12
0.0
 22
0.0
 32
0.0
 14
-5.00758
 24
-10.87859
 34
0.0
 15
3.94633
 25
-1.23765
 35
0.0
146
0.0
 13
0.0
 23
0.0
 33
0.0
 16
1.0
 26
0.0
 36
0.0
 17
0.0
 27
1.0
 37
0.0
 76
     0
330
1F
331
29
  0
MATERIAL
  5
3D
102
{ACAD_REACTORS
330
3B
102
}
102
{ACAD_XDICTIONARY
360
87
102
}
330
3B
100
AcDbMaterial
  1
ByBlock
  0
MATERIAL
  5
3C
102
{ACAD_REACTORS
330
3B
102
}
102
{ACAD_XDICTIONARY
360
85
102
}
330
3B
100
AcDbMaterial
  1
ByLayer
  0
MATERIAL
  5
3E
102
{ACAD_REACTORS
330
3B
102
}
102
{ACAD_XDICTIONARY
360
89
102
}
330
3B
100
AcDbMaterial
  1
Global
  0
MLINESTYLE
  5
18
102
{ACAD_REACTORS
330
17
102
}
330
17
100
AcDbMlineStyle
  2
Standard
 70
     0
  3

 62
   256
 51
90.0
 52
90.0
 71
     2
 49
0.5
 62
   256
  6
BYLAYER
 49
-0.5
 62
   256
  6
BYLAYER
  0
ACDBPLACEHOLDER
  5
F
102
{ACAD_REACTORS
330
E
102
}
330
E
  0
VISUALSTYLE
  5
2F
102
{ACAD_REACTORS
330
2A
102
}
102
{ACAD_XDICTIONARY
360
6D
102
}
330
2A
100
AcDbVisualStyle
  2
2dWireframe
 70
     4
 71
     0
 72
     2
 73
     0
 90
        0
 40
-0.6
 41
-30.0
 62
     5
 63
     7
421
 16777215
 74
     1
 91
        4
 64
     7
 65
   257
 75
     1
175
     1
 42
1.0
 92
        0
 66
   257
 43
1.0
 76
     1
 77
     6
 78
     2
 67
     7
 79
     5
170
     0
171
     0
290
     0
174
     0
 93
        1
 44
0.0
173
     0
291
     0
 45
0.0
1001
ACAD
1000
AcDbSavedByObjectVersion
1070
     0
  0
VISUALSTYLE
  5
31
102
{ACAD_REACTORS
330
2A
102
}
102
{ACAD_XDICTIONARY
360
71
102
}
330
2A
100
AcDbVisualStyle
  2
3D Hidden
 70
     6
 71
     1
 72
     2
 73
     2
 90
        0
 40
-0.6
 41
-30.0
 62
     5
 63
     7
421
 16777215
 74
     2
 91
        2
 64
     7
 65
   257
 75
     2
175
     1
 42
40.0
 92
        0
 66
   257
 43
1.0
 76
     1
 77
     6
 78
     2
 67
     7
 79
     3
170
     0
171
     0
290
     0
174
     0
 93
        1
 44
0.0
173
     0
291
     0
 45
0.0
1001
ACAD
1000
AcDbSavedByObjectVersion
1070
     0
  0
VISUALSTYLE
  5
30
102
{ACAD_REACTORS
330
2A
102
}
102
{ACAD_XDICTIONARY
360
6F
102
}
330
2A
100
AcDbVisualStyle
  2
3dWireframe
 70
     5
 71
     0
 72
     2
 73
     0
 90
        0
 40
-0.6
 41
-30.0
 62
     5
 63
     7
421
 16777215
 74
     1
 91
        4
 64
     7
 65
   257
 75
     1
175
     1
 42
1.0
 92
        0
 66
   257
 43
1.0
 76
     1
 77
     6
 78
     2
 67
     7
 79
     5
170
     0
171
     0
290
     0
174
     0
 93
        1
 44
0.0
173
     0
291
     0
 45
0.0
1001
ACAD
1000
AcDbSavedByObjectVersion
1070
     0
  0
VISUALSTYLE
  5
32
102
{ACAD_REACTORS
330
2A
102
}
102
{ACAD_XDICTIONARY
360
73
102
}
330
2A
100
AcDbVisualStyle
  2
Basic
 70
     7
 71
     1
 72
     0
 73
     1
 90
        0
 40
-0.6
 41
-30.0
 62
     5
 63
     7
421
 16777215
 74
     0
 91
        4
 64
     7
 65
   257
 75
     1
175
     1
 42
1.0
 92
        8
 66
     7
 43
1.0
 76
     1
 77
     6
 78
     2
 67
     7
 79
     5
170
     0
171
     0
290
     0
174
     0
 93
        1
 44
0.0
173
     0
291
     1
 45
0.0
1001
ACAD
1000
AcDbSavedByObjectVersion
1070
     0
  0
VISUALSTYLE
  5
36
102
{ACAD_REACTORS
330
2A
102
}
102
{ACAD_XDICTIONARY
360
7B
102
}
330
2A
100
AcDbVisualStyle
  2
Brighten
 70
    12
 71
     2
 72
     2
 73
     0
 90
        0
 40
-0.6
 41
-30.0
 62
     5
 63
     7
421
 16777215
 74
     1
 91
        4
 64
     7
 65
   257
 75
     1
175
     1
 42
1.0
 92
        8
 66
     7
 43
1.0
 76
     1
 77
     6
 78
     2
 67
     7
 79
     5
170
     0
171
     0
290
     0
174
     0
 93
        1
 44
50.0
173
     0
291
     1
 45
0.0
1001
ACAD
1000
AcDbSavedByObjectVersion
1070
     0
  0
VISUALSTYLE
  5
3A
102
{ACAD_REACTORS
330
2A
102
}
102
{ACAD_XDICTIONARY
360
83
102
}
330
2A
100
AcDbVisualStyle
  2
ColorChange
 70
    16
 71
     2
 72
     2
 73
     3
 90
        0
 40
-0.6
 41
-30.0
 62
     5
 63
     8
421
  8421504
 74
     1
 91
        4
 64
     7
 65
   257
 75
     1
175
     1
 42
1.0
 92
        8
 66
     8
424
  8421504
 43
1.0
 76
     1
 77
     6
 78
     2
 67
     7
 79
     5
170
     0
171
     0
290
     0
174
     0
 93
        1
 44
0.0
173
     0
291
     1
 45
0.0
1001
ACAD
1000
AcDbSavedByObjectVersion
1070
     0
  0
VISUALSTYLE
  5
34
102
{ACAD_REACTORS
330
2A
102
}
102
{ACAD_XDICTIONARY
360
77
102
}
330
2A
100
AcDbVisualStyle
  2
Conceptual
 70
     9
 71
     3
 72
     2
 73
     0
 90
        0
 40
-0.6
 41
-30.0
 62
     5
 63
     7
421
 16777215
 74
     2
 91
        2
 64
     7
 65
   257
 75
     1
175
     1
 42
40.0
 92
        8
 66
     7
 43
1.0
 76
     1
 77
     6
 78
     2
 67
     7
 79
     3
170
     0
171
     0
290
     0
174
     0
 93
        1
 44
0.0
173
     0
291
     0
 45
0.0
1001
ACAD
1000
AcDbSavedByObjectVersion
1070
     0
  0
VISUALSTYLE
  5
35
102
{ACAD_REACTORS
330
2A
102
}
102
{ACAD_XDICTIONARY
360
79
102
}
330
2A
100
AcDbVisualStyle
  2
Dim
 70
    11
 71
     2
 72
     2
 73
     0
 90
        0
 40
-0.6
 41
-30.0
 62
     5
 63
     7
421
 16777215
 74
     1
 91
        4
 64
     7
 65
   257
 75
     1
175
     1
 42
1.0
 92
        8
 66
     7
 43
1.0
 76
     1
 77
     6
 78
     2
 67
     7
 79
     5
170
     0
171
     0
290
     0
174
     0
 93
        1
 44
-50.0
173
     0
291
     1
 45
0.0
1001
ACAD
1000
AcDbSavedByObjectVersion
1070
     0
  0
VISUALSTYLE
  5
39
102
{ACAD_REACTORS
330
2A
102
}
102
{ACAD_XDICTIONARY
360
81
102
}
330
2A
100
AcDbVisualStyle
  2
Facepattern
 70
    15
 71
     2
 72
     2
 73
     0
 90
        0
 40
-0.6
 41
-30.0
 62
     5
 63
     7
421
 16777215
 74
     1
 91
        4
 64
     7
 65
   257
 75
     1
175
     1
 42
1.0
 92
        8
 66
     7
 43
1.0
 76
     1
 77
     6
 78
     2
 67
     7
 79
     5
170
     0
171
     0
290
     0
174
     0
 93
        1
 44
0.0
173
     0
291
     1
 45
0.0
1001
ACAD
1000
AcDbSavedByObjectVersion
1070
     0
  0
VISUALSTYLE
  5
2B
102
{ACAD_REACTORS
330
2A
102
}
102
{ACAD_XDICTIONARY
360
65
102
}
330
2A
100
AcDbVisualStyle
  2
Flat
 70
     0
 71
     2
 72
     1
 73
     1
 90
        2
 40
-0.6
 41
30.0
 62
     5
 63
     7
421
 16777215
 74
     0
 91
        4
 64
     7
 65
   257
 75
     1
175
     1
 42
1.0
 92
        8
 66
     7
 43
1.0
 76
     1
 77
     6
 78
     2
 67
     7
 79
     5
170
     0
171
     0
290
     0
174
     0
 93
       13
 44
0.0
173
     0
291
     1
 45
0.0
1001
ACAD
1000
AcDbSavedByObjectVersion
1070
     0
  0
VISUALSTYLE
  5
2C
102
{ACAD_REACTORS
330
2A
102
}
102
{ACAD_XDICTIONARY
360
67
102
}
330
2A
100
AcDbVisualStyle
  2
FlatWithEdges
 70
     1
 71
     2
 72
     1
 73
     1
 90
        2
 40
-0.6
 41
30.0
 62
     5
 63
     7
421
 16777215
 74
     1
 91
        4
 64
     7
 65
   257
 75
     1
175
     1
 42
1.0
 92
        0
 66
   257
 43
1.0
 76
     1
 77
     6
 78
     2
 67
     7
 79
     5
170
     0
171
     0
290
     0
174
     0
 93
       13
 44
0.0
173
     0
291
     1
 45
0.0
1001
ACAD
1000
AcDbSavedByObjectVersion
1070
     0
  0
VISUALSTYLE
  5
2D
102
{ACAD_REACTORS
330
2A
102
}
102
{ACAD_XDICTIONARY
360
69
102
}
330
2A
100
AcDbVisualStyle
  2
Gouraud
 70
     2
 71
     2
 72
     2
 73
     1
 90
        2
 40
-0.6
 41
30.0
 62
     5
 63
     7
421
 16777215
 74
     0
 91
        4
 64
     7
 65
   257
 75
     1
175
     1
 42
1.0
 92
        0
 66
     7
 43
1.0
 76
     1
 77
     6
 78
     2
 67
     7
 79
     5
170
     0
171
     0
290
     0
174
     0
 93
       13
 44
0.0
173
     0
291
     1
 45
0.0
1001
ACAD
1000
AcDbSavedByObjectVersion
1070
     0
  0
VISUALSTYLE
  5
2E
102
{ACAD_REACTORS
330
2A
102
}
102
{ACAD_XDICTIONARY
360
6B
102
}
330
2A
100
AcDbVisualStyle
  2
GouraudWithEdges
 70
     3
 71
     2
 72
     2
 73
     1
 90
        2
 40
-0.6
 41
30.0
 62
     5
 63
     7
421
 16777215
 74
     1
 91
        4
 64
     7
 65
   257
 75
     1
175
     1
 42
1.0
 92
        0
 66
   257
 43
1.0
 76
     1
 77
     6
 78
     2
 67
     7
 79
     5
170
     0
171
     0
290
     0
174
     0
 93
       13
 44
0.0
173
     0
291
     1
 45
0.0
1001
ACAD
1000
AcDbSavedByObjectVersion
1070
     0
  0
VISUALSTYLE
  5
38
102
{ACAD_REACTORS
330
2A
102
}
102
{ACAD_XDICTIONARY
360
7F
102
}
330
2A
100
AcDbVisualStyle
  2
Linepattern
 70
    14
 71
     2
 72
     2
 73
     0
 90
        0
 40
-0.6
 41
-30.0
 62
     5
 63
     7
421
 16777215
 74
     1
 91
        4
 64
     7
 65
   257
 75
     7
175
     7
 42
1.0
 92
        8
 66
     7
 43
1.0
 76
     1
 77
     6
 78
     2
 67
     7
 79
     5
170
     0
171
     0
290
     0
174
     0
 93
        1
 44
0.0
173
     0
291
     1
 45
0.0
1001
ACAD
1000
AcDbSavedByObjectVersion
1070
     0
  0
VISUALSTYLE
  5
33
102
{ACAD_REACTORS
330
2A
102
}
102
{ACAD_XDICTIONARY
360
75
102
}
330
2A
100
AcDbVisualStyle
  2
Realistic
 70
     8
 71
     2
 72
     2
 73
     0
 90
        0
 40
-0.6
 41
-30.0
 62
     5
 63
     7
421
 16777215
 74
     1
 91
        0
 64
     7
 65
   257
 75
     1
175
     1
 42
1.0
 92
        8
 66
     8
424
  7895160
 43
1.0
 76
     1
 77
     6
 78
     2
 67
     7
 79
     5
170
     0
171
     0
290
     0
174
     0
 93
       13
 44
0.0
173
     0
291
     0
 45
0.0
1001
ACAD
1000
AcDbSavedByObjectVersion
1070
     0
  0
VISUALSTYLE
  5
37
102
{ACAD_REACTORS
330
2A
102
}
102
{ACAD_XDICTIONARY
360
7D
102
}
330
2A
100
AcDbVisualStyle
  2
Thicken
 70
    13
 71
     2
 72
     2
 73
     0
 90
        0
 40
-0.6
 41
-30.0
 62
     5
 63
     7
421
 16777215
 74
     1
 91
        4
 64
     7
 65
   257
 75
     1
175
     1
 42
1.0
 92
       12
 66
     7
 43
1.0
 76
     1
 77
     6
 78
     2
 67
     7
 79
     5
170
     0
171
     0
290
     0
174
     0
 93
        1
 44
0.0
173
     0
291
     1
 45
0.0
1001
ACAD
1000
AcDbSavedByObjectVersion
1070
     0
  0
DICTIONARY
  5
87
330
3D
100
AcDbDictionary
280
     1
281
     1
  3
ACAD_XREC_ROUNDTRIP
360
88
  0
DICTIONARY
  5
85
330
3C
100
AcDbDictionary
280
     1
281
     1
  3
ACAD_XREC_ROUNDTRIP
360
86
  0
DICTIONARY
  5
89
330
3E
100
AcDbDictionary
280
     1
281
     1
  3
ACAD_XREC_ROUNDTRIP
360
8A
  0
DICTIONARY
  5
6D
330
2F
100
AcDbDictionary
280
     1
281
     1
  3
ACAD_XREC_ROUNDTRIP
360
6E
  0
DICTIONARY
  5
71
330
31
100
AcDbDictionary
280
     1
281
     1
  3
ACAD_XREC_ROUNDTRIP
360
72
  0
DICTIONARY
  5
6F
330
30
100
AcDbDictionary
280
     1
281
     1
  3
ACAD_XREC_ROUNDTRIP
360
70
  0
DICTIONARY
  5
73
330
32
100
AcDbDictionary
280
     1
281
     1
  3
ACAD_XREC_ROUNDTRIP
360
74
  0
DICTIONARY
  5
7B
330
36
100
AcDbDictionary
280
     1
281
     1
  3
ACAD_XREC_ROUNDTRIP
360
7C
  0
DICTIONARY
  5
83
330
3A
100
AcDbDictionary
280
     1
281
     1
  3
ACAD_XREC_ROUNDTRIP
360
84
  0
DICTIONARY
  5
77
330
34
100
AcDbDictionary
280
     1
281
     1
  3
ACAD_XREC_ROUNDTRIP
360
78
  0
DICTIONARY
  5
79
330
35
100
AcDbDictionary
280
     1
281
     1
  3
ACAD_XREC_ROUNDTRIP
360
7A
  0
DICTIONARY
  5
81
330
39
100
AcDbDictionary
280
     1
281
     1
  3
ACAD_XREC_ROUNDTRIP
360
82
  0
DICTIONARY
  5
65
330
2B
100
AcDbDictionary
280
     1
281
     1
  3
ACAD_XREC_ROUNDTRIP
360
66
  0
DICTIONARY
  5
67
330
2C
100
AcDbDictionary
280
     1
281
     1
  3
ACAD_XREC_ROUNDTRIP
360
68
  0
DICTIONARY
  5
69
330
2D
100
AcDbDictionary
280
     1
281
     1
  3
ACAD_XREC_ROUNDTRIP
360
6A
  0
DICTIONARY
  5
6B
330
2E
100
AcDbDictionary
280
     1
281
     1
  3
ACAD_XREC_ROUNDTRIP
360
6C
  0
DICTIONARY
  5
7F
330
38
100
AcDbDictionary
280
     1
281
     1
  3
ACAD_XREC_ROUNDTRIP
360
80
  0
DICTIONARY
  5
75
330
33
100
AcDbDictionary
280
     1
281
     1
  3
ACAD_XREC_ROUNDTRIP
360
76
  0
DICTIONARY
  5
7D
330
37
100
AcDbDictionary
280
     1
281
     1
  3
ACAD_XREC_ROUNDTRIP
360
7E
  0
XRECORD
  5
88
102
{ACAD_REACTORS
330
87
102
}
330
87
100
AcDbXrecord
280
     1
102
MATERIAL
148
0.0
149
0.0
149
0.0
 93
        0
 94
      127
282
     0
 72
     1
 77
     1
171
     1
175
     1
179
     1
273
     0
  0
XRECORD
  5
86
102
{ACAD_REACTORS
330
85
102
}
330
85
100
AcDbXrecord
280
     1
102
MATERIAL
148
0.0
149
0.0
149
0.0
 93
        0
 94
      127
282
     0
 72
     1
 77
     1
171
     1
175
     1
179
     1
273
     0
  0
XRECORD
  5
8A
102
{ACAD_REACTORS
330
89
102
}
330
89
100
AcDbXrecord
280
     1
102
MATERIAL
148
0.0
149
0.0
149
0.0
 93
        0
 94
      127
282
     0
 72
     1
 77
     1
171
     1
175
     1
179
     1
273
     0
  0
XRECORD
  5
6E
102
{ACAD_REACTORS
330
6D
102
}
330
6D
100
AcDbXrecord
280
     1
102
RTVSPropertyOp0
 70
     1
102
RTVSPropertyOp1
 70
     1
102
RTVSPropertyOp2
 70
     1
102
RTVSPropertyOp3
 70
     1
102
RTVSPropertyOp4
 70
     1
102
RTVSPropertyOp5
 70
     1
102
RTVSPropertyOp6
 70
     1
102
RTVSPropertyOp7
 70
     1
102
RTVSPropertyOp8
 70
     1
102
RTVSPropertyOp9
 70
     1
102
RTVSPropertyOp10
 70
     1
102
RTVSPropertyOp11
 70
     1
102
RTVSPropertyOp12
 70
     1
102
RTVSPropertyOp13
 70
     1
102
RTVSPropertyOp14
 70
     1
102
RTVSPropertyOp15
 70
     1
102
RTVSPropertyOp16
 70
     1
102
RTVSPropertyOp17
 70
     1
102
RTVSPropertyOp18
 70
     1
102
RTVSPropertyOp19
 70
     1
102
RTVSPropertyOp20
 70
     1
102
RTVSPropertyOp21
 70
     1
102
RTVSPropertyOp22
 70
     1
102
RTVSPropertyOp23
 70
     1
102
RTVSPropertyOp24
 70
     1
102
RTVSPropertyOp25
 70
     1
102
RTVSPropertyOp26
 70
     1
102
RTVSPropertyOp27
 70
     1
102
RTVSPropertyOp28
 70
     1
102
RTVSPropertyOp29
 70
     1
102
RTVSPropertyOp30
 70
     1
102
RTVSPropertyOp31
 70
     1
102
RTVSPropertyOp32
 70
     1
  0
XRECORD
  5
72
102
{ACAD_REACTORS
330
71
102
}
330
71
100
AcDbXrecord
280
     1
102
RTVSPropertyOp0
 70
     1
102
RTVSPropertyOp1
 70
     1
102
RTVSPropertyOp2
 70
     1
102
RTVSPropertyOp3
 70
     1
102
RTVSPropertyOp4
 70
     1
102
RTVSPropertyOp5
 70
     1
102
RTVSPropertyOp6
 70
     1
102
RTVSPropertyOp7
 70
     1
102
RTVSPropertyOp8
 70
     1
102
RTVSPropertyOp9
 70
     1
102
RTVSPropertyOp10
 70
     1
102
RTVSPropertyOp11
 70
     1
102
RTVSPropertyOp12
 70
     1
102
RTVSPropertyOp13
 70
     1
102
RTVSPropertyOp14
 70
     1
102
RTVSPropertyOp15
 70
     1
102
RTVSPropertyOp16
 70
     1
102
RTVSPropertyOp17
 70
     1
102
RTVSPropertyOp18
 70
     1
102
RTVSPropertyOp19
 70
     1
102
RTVSPropertyOp20
 70
     1
102
RTVSPropertyOp21
 70
     1
102
RTVSPropertyOp22
 70
     1
102
RTVSPropertyOp23
 70
     1
102
RTVSPropertyOp24
 70
     1
102
RTVSPropertyOp25
 70
     1
102
RTVSPropertyOp26
 70
     1
102
RTVSPropertyOp27
 70
     1
102
RTVSPropertyOp28
 70
     1
102
RTVSPropertyOp29
 70
     1
102
RTVSPropertyOp30
 70
     1
102
RTVSPropertyOp31
 70
     1
102
RTVSPropertyOp32
 70
     1
  0
XRECORD
  5
70
102
{ACAD_REACTORS
330
6F
102
}
330
6F
100
AcDbXrecord
280
     1
102
RTVSPropertyOp0
 70
     1
102
RTVSPropertyOp1
 70
     1
102
RTVSPropertyOp2
 70
     1
102
RTVSPropertyOp3
 70
     1
102
RTVSPropertyOp4
 70
     1
102
RTVSPropertyOp5
 70
     1
102
RTVSPropertyOp6
 70
     1
102
RTVSPropertyOp7
 70
     1
102
RTVSPropertyOp8
 70
     1
102
RTVSPropertyOp9
 70
     1
102
RTVSPropertyOp10
 70
     1
102
RTVSPropertyOp11
 70
     1
102
RTVSPropertyOp12
 70
     1
102
RTVSPropertyOp13
 70
     1
102
RTVSPropertyOp14
 70
     1
102
RTVSPropertyOp15
 70
     1
102
RTVSPropertyOp16
 70
     1
102
RTVSPropertyOp17
 70
     1
102
RTVSPropertyOp18
 70
     1
102
RTVSPropertyOp19
 70
     1
102
RTVSPropertyOp20
 70
     1
102
RTVSPropertyOp21
 70
     1
102
RTVSPropertyOp22
 70
     1
102
RTVSPropertyOp23
 70
     1
102
RTVSPropertyOp24
 70
     1
102
RTVSPropertyOp25
 70
     1
102
RTVSPropertyOp26
 70
     1
102
RTVSPropertyOp27
 70
     1
102
RTVSPropertyOp28
 70
     1
102
RTVSPropertyOp29
 70
     1
102
RTVSPropertyOp30
 70
     1
102
RTVSPropertyOp31
 70
     1
102
RTVSPropertyOp32
 70
     1
  0
XRECORD
  5
74
102
{ACAD_REACTORS
330
73
102
}
330
73
100
AcDbXrecord
280
     1
102
RTVSPropertyOp0
 70
     1
102
RTVSPropertyOp1
 70
     1
102
RTVSPropertyOp2
 70
     1
102
RTVSPropertyOp3
 70
     1
102
RTVSPropertyOp4
 70
     1
102
RTVSPropertyOp5
 70
     1
102
RTVSPropertyOp6
 70
     1
102
RTVSPropertyOp7
 70
     1
102
RTVSPropertyOp8
 70
     1
102
RTVSPropertyOp9
 70
     1
102
RTVSPropertyOp10
 70
     1
102
RTVSPropertyOp11
 70
     1
102
RTVSPropertyOp12
 70
     1
102
RTVSPropertyOp13
 70
     1
102
RTVSPropertyOp14
 70
     1
102
RTVSPropertyOp15
 70
     1
102
RTVSPropertyOp16
 70
     1
102
RTVSPropertyOp17
 70
     1
102
RTVSPropertyOp18
 70
     1
102
RTVSPropertyOp19
 70
     1
102
RTVSPropertyOp20
 70
     1
102
RTVSPropertyOp21
 70
     1
102
RTVSPropertyOp22
 70
     1
102
RTVSPropertyOp23
 70
     1
102
RTVSPropertyOp24
 70
     1
102
RTVSPropertyOp25
 70
     1
102
RTVSPropertyOp26
 70
     1
102
RTVSPropertyOp27
 70
     1
102
RTVSPropertyOp28
 70
     1
102
RTVSPropertyOp29
 70
     1
102
RTVSPropertyOp30
 70
     1
102
RTVSPropertyOp31
 70
     1
102
RTVSPropertyOp32
 70
     1
  0
XRECORD
  5
7C
102
{ACAD_REACTORS
330
7B
102
}
330
7B
100
AcDbXrecord
280
     1
102
RTVSPropertyOp0
 70
     1
102
RTVSPropertyOp1
 70
     1
102
RTVSPropertyOp2
 70
     1
102
RTVSPropertyOp3
 70
     1
102
RTVSPropertyOp4
 70
     1
102
RTVSPropertyOp5
 70
     1
102
RTVSPropertyOp6
 70
     1
102
RTVSPropertyOp7
 70
     1
102
RTVSPropertyOp8
 70
     1
102
RTVSPropertyOp9
 70
     1
102
RTVSPropertyOp10
 70
     1
102
RTVSPropertyOp11
 70
     1
102
RTVSPropertyOp12
 70
     1
102
RTVSPropertyOp13
 70
     1
102
RTVSPropertyOp14
 70
     1
102
RTVSPropertyOp15
 70
     1
102
RTVSPropertyOp16
 70
     1
102
RTVSPropertyOp17
 70
     1
102
RTVSPropertyOp18
 70
     1
102
RTVSPropertyOp19
 70
     1
102
RTVSPropertyOp20
 70
     1
102
RTVSPropertyOp21
 70
     1
102
RTVSPropertyOp22
 70
     1
102
RTVSPropertyOp23
 70
     1
102
RTVSPropertyOp24
 70
     1
102
RTVSPropertyOp25
 70
     1
102
RTVSPropertyOp26
 70
     1
102
RTVSPropertyOp27
 70
     1
102
RTVSPropertyOp28
 70
     1
102
RTVSPropertyOp29
 70
     1
102
RTVSPropertyOp30
 70
     1
102
RTVSPropertyOp31
 70
     1
102
RTVSPropertyOp32
 70
     1
  0
XRECORD
  5
84
102
{ACAD_REACTORS
330
83
102
}
330
83
100
AcDbXrecord
280
     1
102
RTVSPropertyOp0
 70
     1
102
RTVSPropertyOp1
 70
     1
102
RTVSPropertyOp2
 70
     1
102
RTVSPropertyOp3
 70
     1
102
RTVSPropertyOp4
 70
     1
102
RTVSPropertyOp5
 70
     1
102
RTVSPropertyOp6
 70
     1
102
RTVSPropertyOp7
 70
     1
102
RTVSPropertyOp8
 70
     1
102
RTVSPropertyOp9
 70
     1
102
RTVSPropertyOp10
 70
     1
102
RTVSPropertyOp11
 70
     1
102
RTVSPropertyOp12
 70
     1
102
RTVSPropertyOp13
 70
     1
102
RTVSPropertyOp14
 70
     1
102
RTVSPropertyOp15
 70
     1
102
RTVSPropertyOp16
 70
     1
102
RTVSPropertyOp17
 70
     1
102
RTVSPropertyOp18
 70
     1
102
RTVSPropertyOp19
 70
     1
102
RTVSPropertyOp20
 70
     1
102
RTVSPropertyOp21
 70
     1
102
RTVSPropertyOp22
 70
     1
102
RTVSPropertyOp23
 70
     1
102
RTVSPropertyOp24
 70
     1
102
RTVSPropertyOp25
 70
     1
102
RTVSPropertyOp26
 70
     1
102
RTVSPropertyOp27
 70
     1
102
RTVSPropertyOp28
 70
     1
102
RTVSPropertyOp29
 70
     1
102
RTVSPropertyOp30
 70
     1
102
RTVSPropertyOp31
 70
     1
102
RTVSPropertyOp32
 70
     1
  0
XRECORD
  5
78
102
{ACAD_REACTORS
330
77
102
}
330
77
100
AcDbXrecord
280
     1
102
RTVSPropertyOp0
 70
     1
102
RTVSPropertyOp1
 70
     1
102
RTVSPropertyOp2
 70
     1
102
RTVSPropertyOp3
 70
     1
102
RTVSPropertyOp4
 70
     1
102
RTVSPropertyOp5
 70
     1
102
RTVSPropertyOp6
 70
     1
102
RTVSPropertyOp7
 70
     1
102
RTVSPropertyOp8
 70
     1
102
RTVSPropertyOp9
 70
     1
102
RTVSPropertyOp10
 70
     1
102
RTVSPropertyOp11
 70
     1
102
RTVSPropertyOp12
 70
     1
102
RTVSPropertyOp13
 70
     1
102
RTVSPropertyOp14
 70
     1
102
RTVSPropertyOp15
 70
     1
102
RTVSPropertyOp16
 70
     1
102
RTVSPropertyOp17
 70
     1
102
RTVSPropertyOp18
 70
     1
102
RTVSPropertyOp19
 70
     1
102
RTVSPropertyOp20
 70
     1
102
RTVSPropertyOp21
 70
     1
102
RTVSPropertyOp22
 70
     1
102
RTVSPropertyOp23
 70
     1
102
RTVSPropertyOp24
 70
     1
102
RTVSPropertyOp25
 70
     1
102
RTVSPropertyOp26
 70
     1
102
RTVSPropertyOp27
 70
     1
102
RTVSPropertyOp28
 70
     1
102
RTVSPropertyOp29
 70
     1
102
RTVSPropertyOp30
 70
     1
102
RTVSPropertyOp31
 70
     1
102
RTVSPropertyOp32
 70
     1
  0
XRECORD
  5
7A
102
{ACAD_REACTORS
330
79
102
}
330
79
100
AcDbXrecord
280
     1
102
RTVSPropertyOp0
 70
     1
102
RTVSPropertyOp1
 70
     1
102
RTVSPropertyOp2
 70
     1
102
RTVSPropertyOp3
 70
     1
102
RTVSPropertyOp4
 70
     1
102
RTVSPropertyOp5
 70
     1
102
RTVSPropertyOp6
 70
     1
102
RTVSPropertyOp7
 70
     1
102
RTVSPropertyOp8
 70
     1
102
RTVSPropertyOp9
 70
     1
102
RTVSPropertyOp10
 70
     1
102
RTVSPropertyOp11
 70
     1
102
RTVSPropertyOp12
 70
     1
102
RTVSPropertyOp13
 70
     1
102
RTVSPropertyOp14
 70
     1
102
RTVSPropertyOp15
 70
     1
102
RTVSPropertyOp16
 70
     1
102
RTVSPropertyOp17
 70
     1
102
RTVSPropertyOp18
 70
     1
102
RTVSPropertyOp19
 70
     1
102
RTVSPropertyOp20
 70
     1
102
RTVSPropertyOp21
 70
     1
102
RTVSPropertyOp22
 70
     1
102
RTVSPropertyOp23
 70
     1
102
RTVSPropertyOp24
 70
     1
102
RTVSPropertyOp25
 70
     1
102
RTVSPropertyOp26
 70
     1
102
RTVSPropertyOp27
 70
     1
102
RTVSPropertyOp28
 70
     1
102
RTVSPropertyOp29
 70
     1
102
RTVSPropertyOp30
 70
     1
102
RTVSPropertyOp31
 70
     1
102
RTVSPropertyOp32
 70
     1
  0
XRECORD
  5
82
102
{ACAD_REACTORS
330
81
102
}
330
81
100
AcDbXrecord
280
     1
102
RTVSPropertyOp0
 70
     1
102
RTVSPropertyOp1
 70
     1
102
RTVSPropertyOp2
 70
     1
102
RTVSPropertyOp3
 70
     1
102
RTVSPropertyOp4
 70
     1
102
RTVSPropertyOp5
 70
     1
102
RTVSPropertyOp6
 70
     1
102
RTVSPropertyOp7
 70
     1
102
RTVSPropertyOp8
 70
     1
102
RTVSPropertyOp9
 70
     1
102
RTVSPropertyOp10
 70
     1
102
RTVSPropertyOp11
 70
     1
102
RTVSPropertyOp12
 70
     1
102
RTVSPropertyOp13
 70
     1
102
RTVSPropertyOp14
 70
     1
102
RTVSPropertyOp15
 70
     1
102
RTVSPropertyOp16
 70
     1
102
RTVSPropertyOp17
 70
     1
102
RTVSPropertyOp18
 70
     1
102
RTVSPropertyOp19
 70
     1
102
RTVSPropertyOp20
 70
     1
102
RTVSPropertyOp21
 70
     1
102
RTVSPropertyOp22
 70
     1
102
RTVSPropertyOp23
 70
     1
102
RTVSPropertyOp24
 70
     1
102
RTVSPropertyOp25
 70
     1
102
RTVSPropertyOp26
 70
     1
102
RTVSPropertyOp27
 70
     1
102
RTVSPropertyOp28
 70
     1
102
RTVSPropertyOp29
 70
     1
102
RTVSPropertyOp30
 70
     1
102
RTVSPropertyOp31
 70
     1
102
RTVSPropertyOp32
 70
     1
  0
XRECORD
  5
66
102
{ACAD_REACTORS
330
65
102
}
330
65
100
AcDbXrecord
280
     1
102
RTVSPropertyOp0
 70
     1
102
RTVSPropertyOp1
 70
     1
102
RTVSPropertyOp2
 70
     1
102
RTVSPropertyOp3
 70
     1
102
RTVSPropertyOp4
 70
     1
102
RTVSPropertyOp5
 70
     1
102
RTVSPropertyOp6
 70
     1
102
RTVSPropertyOp7
 70
     1
102
RTVSPropertyOp8
 70
     1
102
RTVSPropertyOp9
 70
     1
102
RTVSPropertyOp10
 70
     1
102
RTVSPropertyOp11
 70
     1
102
RTVSPropertyOp12
 70
     1
102
RTVSPropertyOp13
 70
     1
102
RTVSPropertyOp14
 70
     1
102
RTVSPropertyOp15
 70
     1
102
RTVSPropertyOp16
 70
     1
102
RTVSPropertyOp17
 70
     1
102
RTVSPropertyOp18
 70
     1
102
RTVSPropertyOp19
 70
     1
102
RTVSPropertyOp20
 70
     1
102
RTVSPropertyOp21
 70
     1
102
RTVSPropertyOp22
 70
     1
102
RTVSPropertyOp23
 70
     1
102
RTVSPropertyOp24
 70
     1
102
RTVSPropertyOp25
 70
     1
102
RTVSPropertyOp26
 70
     1
102
RTVSPropertyOp27
 70
     1
102
RTVSPropertyOp28
 70
     1
102
RTVSPropertyOp29
 70
     1
102
RTVSPropertyOp30
 70
     1
102
RTVSPropertyOp31
 70
     1
102
RTVSPropertyOp32
 70
     1
  0
XRECORD
  5
68
102
{ACAD_REACTORS
330
67
102
}
330
67
100
AcDbXrecord
280
     1
102
RTVSPropertyOp0
 70
     1
102
RTVSPropertyOp1
 70
     1
102
RTVSPropertyOp2
 70
     1
102
RTVSPropertyOp3
 70
     1
102
RTVSPropertyOp4
 70
     1
102
RTVSPropertyOp5
 70
     1
102
RTVSPropertyOp6
 70
     1
102
RTVSPropertyOp7
 70
     1
102
RTVSPropertyOp8
 70
     1
102
RTVSPropertyOp9
 70
     1
102
RTVSPropertyOp10
 70
     1
102
RTVSPropertyOp11
 70
     1
102
RTVSPropertyOp12
 70
     1
102
RTVSPropertyOp13
 70
     1
102
RTVSPropertyOp14
 70
     1
102
RTVSPropertyOp15
 70
     1
102
RTVSPropertyOp16
 70
     1
102
RTVSPropertyOp17
 70
     1
102
RTVSPropertyOp18
 70
     1
102
RTVSPropertyOp19
 70
     1
102
RTVSPropertyOp20
 70
     1
102
RTVSPropertyOp21
 70
     1
102
RTVSPropertyOp22
 70
     1
102
RTVSPropertyOp23
 70
     1
102
RTVSPropertyOp24
 70
     1
102
RTVSPropertyOp25
 70
     1
102
RTVSPropertyOp26
 70
     1
102
RTVSPropertyOp27
 70
     1
102
RTVSPropertyOp28
 70
     1
102
RTVSPropertyOp29
 70
     1
102
RTVSPropertyOp30
 70
     1
102
RTVSPropertyOp31
 70
     1
102
RTVSPropertyOp32
 70
     1
  0
XRECORD
  5
6A
102
{ACAD_REACTORS
330
69
102
}
330
69
100
AcDbXrecord
280
     1
102
RTVSPropertyOp0
 70
     1
102
RTVSPropertyOp1
 70
     1
102
RTVSPropertyOp2
 70
     1
102
RTVSPropertyOp3
 70
     1
102
RTVSPropertyOp4
 70
     1
102
RTVSPropertyOp5
 70
     1
102
RTVSPropertyOp6
 70
     1
102
RTVSPropertyOp7
 70
     1
102
RTVSPropertyOp8
 70
     1
102
RTVSPropertyOp9
 70
     1
102
RTVSPropertyOp10
 70
     1
102
RTVSPropertyOp11
 70
     1
102
RTVSPropertyOp12
 70
     1
102
RTVSPropertyOp13
 70
     1
102
RTVSPropertyOp14
 70
     1
102
RTVSPropertyOp15
 70
     1
102
RTVSPropertyOp16
 70
     1
102
RTVSPropertyOp17
 70
     1
102
RTVSPropertyOp18
 70
     1
102
RTVSPropertyOp19
 70
     1
102
RTVSPropertyOp20
 70
     1
102
RTVSPropertyOp21
 70
     1
102
RTVSPropertyOp22
 70
     1
102
RTVSPropertyOp23
 70
     1
102
RTVSPropertyOp24
 70
     1
102
RTVSPropertyOp25
 70
     1
102
RTVSPropertyOp26
 70
     1
102
RTVSPropertyOp27
 70
     1
102
RTVSPropertyOp28
 70
     1
102
RTVSPropertyOp29
 70
     1
102
RTVSPropertyOp30
 70
     1
102
RTVSPropertyOp31
 70
     1
102
RTVSPropertyOp32
 70
     1
  0
XRECORD
  5
6C
102
{ACAD_REACTORS
330
6B
102
}
330
6B
100
AcDbXrecord
280
     1
102
RTVSPropertyOp0
 70
     1
102
RTVSPropertyOp1
 70
     1
102
RTVSPropertyOp2
 70
     1
102
RTVSPropertyOp3
 70
     1
102
RTVSPropertyOp4
 70
     1
102
RTVSPropertyOp5
 70
     1
102
RTVSPropertyOp6
 70
     1
102
RTVSPropertyOp7
 70
     1
102
RTVSPropertyOp8
 70
     1
102
RTVSPropertyOp9
 70
     1
102
RTVSPropertyOp10
 70
     1
102
RTVSPropertyOp11
 70
     1
102
RTVSPropertyOp12
 70
     1
102
RTVSPropertyOp13
 70
     1
102
RTVSPropertyOp14
 70
     1
102
RTVSPropertyOp15
 70
     1
102
RTVSPropertyOp16
 70
     1
102
RTVSPropertyOp17
 70
     1
102
RTVSPropertyOp18
 70
     1
102
RTVSPropertyOp19
 70
     1
102
RTVSPropertyOp20
 70
     1
102
RTVSPropertyOp21
 70
     1
102
RTVSPropertyOp22
 70
     1
102
RTVSPropertyOp23
 70
     1
102
RTVSPropertyOp24
 70
     1
102
RTVSPropertyOp25
 70
     1
102
RTVSPropertyOp26
 70
     1
102
RTVSPropertyOp27
 70
     1
102
RTVSPropertyOp28
 70
     1
102
RTVSPropertyOp29
 70
     1
102
RTVSPropertyOp30
 70
     1
102
RTVSPropertyOp31
 70
     1
102
RTVSPropertyOp32
 70
     1
  0
XRECORD
  5
80
102
{ACAD_REACTORS
330
7F
102
}
330
7F
100
AcDbXrecord
280
     1
102
RTVSPropertyOp0
 70
     1
102
RTVSPropertyOp1
 70
     1
102
RTVSPropertyOp2
 70
     1
102
RTVSPropertyOp3
 70
     1
102
RTVSPropertyOp4
 70
     1
102
RTVSPropertyOp5
 70
     1
102
RTVSPropertyOp6
 70
     1
102
RTVSPropertyOp7
 70
     1
102
RTVSPropertyOp8
 70
     1
102
RTVSPropertyOp9
 70
     1
102
RTVSPropertyOp10
 70
     1
102
RTVSPropertyOp11
 70
     1
102
RTVSPropertyOp12
 70
     1
102
RTVSPropertyOp13
 70
     1
102
RTVSPropertyOp14
 70
     1
102
RTVSPropertyOp15
 70
     1
102
RTVSPropertyOp16
 70
     1
102
RTVSPropertyOp17
 70
     1
102
RTVSPropertyOp18
 70
     1
102
RTVSPropertyOp19
 70
     1
102
RTVSPropertyOp20
 70
     1
102
RTVSPropertyOp21
 70
     1
102
RTVSPropertyOp22
 70
     1
102
RTVSPropertyOp23
 70
     1
102
RTVSPropertyOp24
 70
     1
102
RTVSPropertyOp25
 70
     1
102
RTVSPropertyOp26
 70
     1
102
RTVSPropertyOp27
 70
     1
102
RTVSPropertyOp28
 70
     1
102
RTVSPropertyOp29
 70
     1
102
RTVSPropertyOp30
 70
     1
102
RTVSPropertyOp31
 70
     1
102
RTVSPropertyOp32
 70
     1
  0
XRECORD
  5
76
102
{ACAD_REACTORS
330
75
102
}
330
75
100
AcDbXrecord
280
     1
102
RTVSPropertyOp0
 70
     1
102
RTVSPropertyOp1
 70
     1
102
RTVSPropertyOp2
 70
     1
102
RTVSPropertyOp3
 70
     1
102
RTVSPropertyOp4
 70
     1
102
RTVSPropertyOp5
 70
     1
102
RTVSPropertyOp6
 70
     1
102
RTVSPropertyOp7
 70
     1
102
RTVSPropertyOp8
 70
     1
102
RTVSPropertyOp9
 70
     1
102
RTVSPropertyOp10
 70
     1
102
RTVSPropertyOp11
 70
     1
102
RTVSPropertyOp12
 70
     1
102
RTVSPropertyOp13
 70
     1
102
RTVSPropertyOp14
 70
     1
102
RTVSPropertyOp15
 70
     1
102
RTVSPropertyOp16
 70
     1
102
RTVSPropertyOp17
 70
     1
102
RTVSPropertyOp18
 70
     1
102
RTVSPropertyOp19
 70
     1
102
RTVSPropertyOp20
 70
     1
102
RTVSPropertyOp21
 70
     1
102
RTVSPropertyOp22
 70
     1
102
RTVSPropertyOp23
 70
     1
102
RTVSPropertyOp24
 70
     1
102
RTVSPropertyOp25
 70
     1
102
RTVSPropertyOp26
 70
     1
102
RTVSPropertyOp27
 70
     1
102
RTVSPropertyOp28
 70
     1
102
RTVSPropertyOp29
 70
     1
102
RTVSPropertyOp30
 70
     1
102
RTVSPropertyOp31
 70
     1
102
RTVSPropertyOp32
 70
     1
  0
XRECORD
  5
7E
102
{ACAD_REACTORS
330
7D
102
}
330
7D
100
AcDbXrecord
280
     1
102
RTVSPropertyOp0
 70
     1
102
RTVSPropertyOp1
 70
     1
102
RTVSPropertyOp2
 70
     1
102
RTVSPropertyOp3
 70
     1
102
RTVSPropertyOp4
 70
     1
102
RTVSPropertyOp5
 70
     1
102
RTVSPropertyOp6
 70
     1
102
RTVSPropertyOp7
 70
     1
102
RTVSPropertyOp8
 70
     1
102
RTVSPropertyOp9
 70
     1
102
RTVSPropertyOp10
 70
     1
102
RTVSPropertyOp11
 70
     1
102
RTVSPropertyOp12
 70
     1
102
RTVSPropertyOp13
 70
     1
102
RTVSPropertyOp14
 70
     1
102
RTVSPropertyOp15
 70
     1
102
RTVSPropertyOp16
 70
     1
102
RTVSPropertyOp17
 70
     1
102
RTVSPropertyOp18
 70
     1
102
RTVSPropertyOp19
 70
     1
102
RTVSPropertyOp20
 70
     1
102
RTVSPropertyOp21
 70
     1
102
RTVSPropertyOp22
 70
     1
102
RTVSPropertyOp23
 70
     1
102
RTVSPropertyOp24
 70
     1
102
RTVSPropertyOp25
 70
     1
102
RTVSPropertyOp26
 70
     1
102
RTVSPropertyOp27
 70
     1
102
RTVSPropertyOp28
 70
     1
102
RTVSPropertyOp29
 70
     1
102
RTVSPropertyOp30
 70
     1
102
RTVSPropertyOp31
 70
     1
102
RTVSPropertyOp32
 70
     1
  0
ENDSEC
  0
EOF
