  0
SECTION
  2
HEADER
  9
$ACADVER
  1
AC1018
  9
$ACADMAINTVER
 70
     0
  9
$DWGCODEPAGE
  3
ANSI_1252
  9
$INSBASE
 10
0.0
 20
0.0
 30
0.0
  9
$EXTMIN
 10
-4.4009
 20
-6.41875
 30
0.0
  9
$EXTMAX
 10
4.62316
 20
9.50036
 30
0.0
  9
$LIMMIN
 10
0.0
 20
0.0
  9
$LIMMAX
 10
12.0
 20
9.0
  9
$ORTHOMODE
 70
     0
  9
$REGENMODE
 70
     1
  9
$FILLMODE
 70
     1
  9
$QTEXTMODE
 70
     0
  9
$MIRRTEXT
 70
     1
  9
$LTSCALE
 40
1.0
  9
$ATTMODE
 70
     1
  9
$TEXTSIZE
 40
0.2
  9
$TRACEWID
 40
0.05
  9
$TEXTSTYLE
  7
Standard
  9
$CLAYER
  8
0
  9
$CELTYPE
  6
ByLayer
  9
$CECOLOR
 62
   256
  9
$CELTSCALE
 40
1.0
  9
$DISPSILH
 70
     0
  9
$DIMSCALE
 40
1.0
  9
$DIMASZ
 40
0.18
  9
$DIMEXO
 40
0.0625
  9
$DIMDLI
 40
0.38
  9
$DIMRND
 40
0.0
  9
$DIMDLE
 40
0.0
  9
$DIMEXE
 40
0.18
  9
$DIMTP
 40
0.0
  9
$DIMTM
 40
0.0
  9
$DIMTXT
 40
0.18
  9
$DIMCEN
 40
0.09
  9
$DIMTSZ
 40
0.0
  9
$DIMTOL
 70
     0
  9
$DIMLIM
 70
     0
  9
$DIMTIH
 70
     1
  9
$DIMTOH
 70
     1
  9
$DIMSE1
 70
     0
  9
$DIMSE2
 70
     0
  9
$DIMTAD
 70
     0
  9
$DIMZIN
 70
     0
  9
$DIMBLK
  1

  9
$DIMASO
 70
     1
  9
$DIMSHO
 70
     1
  9
$DIMPOST
  1

  9
$DIMAPOST
  1

  9
$DIMALT
 70
     0
  9
$DIMALTD
 70
     2
  9
$DIMALTF
 40
25.4
  9
$DIMLFAC
 40
1.0
  9
$DIMTOFL
 70
     0
  9
$DIMTVP
 40
0.0
  9
$DIMTIX
 70
     0
  9
$DIMSOXD
 70
     0
  9
$DIMSAH
 70
     0
  9
$DIMBLK1
  1

  9
$DIMBLK2
  1

  9
$DIMSTYLE
  2
Standard
  9
$DIMCLRD
 70
     0
  9
$DIMCLRE
 70
     0
  9
$DIMCLRT
 70
     0
  9
$DIMTFAC
 40
1.0
  9
$DIMGAP
 40
0.09
  9
$DIMJUST
 70
     0
  9
$DIMSD1
 70
     0
  9
$DIMSD2
 70
     0
  9
$DIMTOLJ
 70
     1
  9
$DIMTZIN
 70
     0
  9
$DIMALTZ
 70
     0
  9
$DIMALTTZ
 70
     0
  9
$DIMUPT
 70
     0
  9
$DIMDEC
 70
     4
  9
$DIMTDEC
 70
     4
  9
$DIMALTU
 70
     2
  9
$DIMALTTD
 70
     2
  9
$DIMTXSTY
  7
Standard
  9
$DIMAUNIT
 70
     0
  9
$DIMADEC
 70
     0
  9
$DIMALTRND
 40
0.0
  9
$DIMAZIN
 70
     0
  9
$DIMDSEP
 70
    46
  9
$DIMATFIT
 70
     3
  9
$DIMFRAC
 70
     0
  9
$DIMLDRBLK
  1

  9
$DIMLUNIT
 70
     2
  9
$DIMLWD
 70
    -2
  9
$DIMLWE
 70
    -2
  9
$DIMTMOVE
 70
     0
  9
$LUNITS
 70
     2
  9
$LUPREC
 70
     4
  9
$SKETCHINC
 40
0.1
  9
$FILLETRAD
 40
0.5
  9
$AUNITS
 70
     0
  9
$AUPREC
 70
     0
  9
$MENU
  1
.
  9
$ELEVATION
 40
0.0
  9
$PELEVATION
 40
0.0
  9
$THICKNESS
 40
0.0
  9
$LIMCHECK
 70
     0
  9
$CHAMFERA
 40
0.5
  9
$CHAMFERB
 40
0.5
  9
$CHAMFERC
 40
1.0
  9
$CHAMFERD
 40
0.0
  9
$SKPOLY
 70
     0
  9
$TDCREATE
 40
2457608.384473067
  9
$TDUCREATE
 40
2457608.509473067
  9
$TDUPDATE
 40
2457608.384473067
  9
$TDUUPDATE
 40
2457608.509473067
  9
$TDINDWG
 40
0.0000000116
  9
$TDUSRTIMER
 40
0.0000000116
  9
$USRTIMER
 70
     1
  9
$ANGBASE
 50
0.0
  9
$ANGDIR
 70
     0
  9
$PDMODE
 70
     0
  9
$PDSIZE
 40
0.0
  9
$PLINEWID
 40
0.0
  9
$SPLFRAME
 70
     0
  9
$SPLINETYPE
 70
     6
  9
$SPLINESEGS
 70
     8
  9
$HANDSEED
  5
7D
  9
$SURFTAB1
 70
     6
  9
$SURFTAB2
 70
     6
  9
$SURFTYPE
 70
     6
  9
$SURFU
 70
     6
  9
$SURFV
 70
     6
  9
$UCSBASE
  2

  9
$UCSNAME
  2

  9
$UCSORG
 10
0.0
 20
0.0
 30
0.0
  9
$UCSXDIR
 10
1.0
 20
0.0
 30
0.0
  9
$UCSYDIR
 10
0.0
 20
1.0
 30
0.0
  9
$UCSORTHOREF
  2

  9
$UCSORTHOVIEW
 70
     0
  9
$UCSORGTOP
 10
0.0
 20
0.0
 30
0.0
  9
$UCSORGBOTTOM
 10
0.0
 20
0.0
 30
0.0
  9
$UCSORGLEFT
 10
0.0
 20
0.0
 30
0.0
  9
$UCSORGRIGHT
 10
0.0
 20
0.0
 30
0.0
  9
$UCSORGFRONT
 10
0.0
 20
0.0
 30
0.0
  9
$UCSORGBACK
 10
0.0
 20
0.0
 30
0.0
  9
$PUCSBASE
  2

  9
$PUCSNAME
  2

  9
$PUCSORG
 10
0.0
 20
0.0
 30
0.0
  9
$PUCSXDIR
 10
1.0
 20
0.0
 30
0.0
  9
$PUCSYDIR
 10
0.0
 20
1.0
 30
0.0
  9
$PUCSORTHOREF
  2

  9
$PUCSORTHOVIEW
 70
     0
  9
$PUCSORGTOP
 10
0.0
 20
0.0
 30
0.0
  9
$PUCSORGBOTTOM
 10
0.0
 20
0.0
 30
0.0
  9
$PUCSORGLEFT
 10
0.0
 20
0.0
 30
0.0
  9
$PUCSORGRIGHT
 10
0.0
 20
0.0
 30
0.0
  9
$PUCSORGFRONT
 10
0.0
 20
0.0
 30
0.0
  9
$PUCSORGBACK
 10
0.0
 20
0.0
 30
0.0
  9
$USERI1
 70
     0
  9
$USERI2
 70
     0
  9
$USERI3
 70
     0
  9
$USERI4
 70
     0
  9
$USERI5
 70
     0
  9
$USERR1
 40
0.0
  9
$USERR2
 40
0.0
  9
$USERR3
 40
0.0
  9
$USERR4
 40
0.0
  9
$USERR5
 40
0.0
  9
$WORLDVIEW
 70
     1
  9
$SHADEDGE
 70
     3
  9
$SHADEDIF
 70
    70
  9
$TILEMODE
 70
     1
  9
$MAXACTVP
 70
    64
  9
$PINSBASE
 10
0.0
 20
0.0
 30
0.0
  9
$PLIMCHECK
 70
     0
  9
$PEXTMIN
 10
1.000000000000000E+20
 20
1.000000000000000E+20
 30
1.000000000000000E+20
  9
$PEXTMAX
 10
-1.000000000000000E+20
 20
-1.000000000000000E+20
 30
-1.000000000000000E+20
  9
$PLIMMIN
 10
0.0
 20
0.0
  9
$PLIMMAX
 10
12.0
 20
9.0
  9
$UNITMODE
 70
     0
  9
$VISRETAIN
 70
     1
  9
$PLINEGEN
 70
     0
  9
$PSLTSCALE
 70
     1
  9
$TREEDEPTH
 70
  3020
  9
$CMLSTYLE
  2
Standard
  9
$CMLJUST
 70
     0
  9
$CMLSCALE
 40
1.0
  9
$PROXYGRAPHICS
 70
     1
  9
$MEASUREMENT
 70
     0
  9
$CELWEIGHT
370
    -1
  9
$ENDCAPS
280
     0
  9
$JOINSTYLE
280
     0
  9
$LWDISPLAY
290
     0
  9
$INSUNITS
 70
     5
  9
$HYPERLINKBASE
  1

  9
$STYLESHEET
  1

  9
$XEDIT
290
     1
  9
$CEPSNTYPE
380
     0
  9
$PSTYLEMODE
290
     1
  9
$FINGERPRINTGUID
  2
{5BEBB978-FEC3-4882-A213-0DF4116904E7}
  9
$VERSIONGUID
  2
{FAEB1C32-E019-11D5-929B-00C0DF256EC4}
  9
$EXTNAMES
290
     1
  9
$PSVPSCALE
 40
0.0
  9
$OLESTARTUP
290
     0
  9
$SORTENTS
280
   127
  9
$INDEXCTL
280
     0
  9
$HIDETEXT
280
     1
  9
$XCLIPFRAME
290
     0
  9
$HALOGAP
280
     0
  9
$OBSCOLOR
 70
   257
  9
$OBSLTYPE
280
     0
  9
$INTERSECTIONDISPLAY
280
     0
  9
$INTERSECTIONCOLOR
 70
   257
  9
$DIMASSOC
280
     2
  9
$PROJECTNAME
  1

  0
ENDSEC
  0
SECTION
  2
CLASSES
  0
CLASS
  1
ACDBDICTIONARYWDFLT
  2
AcDbDictionaryWithDefault
  3
ObjectDBX Classes
 90
        0
 91
        4
280
     0
281
     0
  0
CLASS
  1
VISUALSTYLE
  2
AcDbVisualStyle
  3
ObjectDBX Classes
 90
     4095
 91
        4
280
     0
281
     0
  0
CLASS
  1
MATERIAL
  2
AcDbMaterial
  3
ObjectDBX Classes
 90
     1153
 91
        4
280
     0
281
     0
  0
ENDSEC
  0
SECTION
  2
TABLES
  0
TABLE
  2
VPORT
  5
8
330
0
100
AcDbSymbolTable
 70
     1
  0
VPORT
  5
29
330
8
100
AcDbSymbolTableRecord
100
AcDbViewportTableRecord
  2
*Active
 70
     0
 10
0.0
 20
0.0
 11
1.0
 21
1.0
 12
10.42990654205607
 22
4.5
 13
0.0
 23
0.0
 14
0.5
 24
0.5
 15
0.5
 25
0.5
 16
0.0
 26
0.0
 36
1.0
 17
0.0
 27
0.0
 37
0.0
 40
9.0
 41
1.972972972850329
 42
50.0
 43
0.0
 44
0.0
 50
0.0
 51
0.0
 71
     0
 72
   100
 73
     1
 74
     3
 75
     0
 76
     0
 77
     0
 78
     0
281
     0
 65
     1
110
0.0
120
0.0
130
0.0
111
1.0
121
0.0
131
0.0
112
0.0
122
1.0
132
0.0
 79
     0
146
0.0
  0
ENDTAB
  0
TABLE
  2
LTYPE
  5
5
330
0
100
AcDbSymbolTable
 70
     1
  0
LTYPE
  5
14
330
5
100
AcDbSymbolTableRecord
100
AcDbLinetypeTableRecord
  2
ByBlock
 70
     0
  3

 72
    65
 73
     0
 40
0.0
  0
LTYPE
  5
15
330
5
100
AcDbSymbolTableRecord
100
AcDbLinetypeTableRecord
  2
ByLayer
 70
     0
  3

 72
    65
 73
     0
 40
0.0
  0
LTYPE
  5
16
330
5
100
AcDbSymbolTableRecord
100
AcDbLinetypeTableRecord
  2
Continuous
 70
     0
  3
Solid line
 72
    65
 73
     0
 40
0.0
  0
ENDTAB
  0
TABLE
  2
LAYER
  5
2
330
0
100
AcDbSymbolTable
 70
     2
  0
LAYER
  5
10
330
2
100
AcDbSymbolTableRecord
100
AcDbLayerTableRecord
  2
0
 70
     0
 62
     7
  6
Continuous
370
    -3
390
F
  0
LAYER
  5
40
330
2
100
AcDbSymbolTableRecord
100
AcDbLayerTableRecord
  2
Camada 1
 70
     0
 62
     7
  6
Continuous
370
    -3
390
F
  0
ENDTAB
  0
TABLE
  2
STYLE
  5
3
330
0
100
AcDbSymbolTable
 70
     1
  0
STYLE
  5
11
330
3
100
AcDbSymbolTableRecord
100
AcDbTextStyleTableRecord
  2
Standard
 70
     0
 40
0.0
 41
1.0
 50
0.0
 71
     0
 42
0.2
  3
txt
  4

  0
ENDTAB
  0
TABLE
  2
VIEW
  5
6
330
0
100
AcDbSymbolTable
 70
     0
  0
ENDTAB
  0
TABLE
  2
UCS
  5
7
330
0
100
AcDbSymbolTable
 70
     0
  0
ENDTAB
  0
TABLE
  2
APPID
  5
9
330
0
100
AcDbSymbolTable
 70
     2
  0
APPID
  5
12
330
9
100
AcDbSymbolTableRecord
100
AcDbRegAppTableRecord
  2
ACAD
 70
     0
  0
APPID
  5
3F
330
9
100
AcDbSymbolTableRecord
100
AcDbRegAppTableRecord
  2
ODA
 70
     0
  0
ENDTAB
  0
TABLE
  2
DIMSTYLE
  5
A
330
0
100
AcDbSymbolTable
 70
     1
100
AcDbDimStyleTable
  0
DIMSTYLE
105
27
330
A
100
AcDbSymbolTableRecord
100
AcDbDimStyleTableRecord
  2
Standard
 70
     0
178
     0
340
11
  0
ENDTAB
  0
TABLE
  2
BLOCK_RECORD
  5
1
330
0
100
AcDbSymbolTable
 70
     1
  0
BLOCK_RECORD
  5
1F
330
1
100
AcDbSymbolTableRecord
100
AcDbBlockTableRecord
  2
*Model_Space
340
22
  0
BLOCK_RECORD
  5
1B
330
1
100
AcDbSymbolTableRecord
100
AcDbBlockTableRecord
  2
*Paper_Space
340
1E
  0
BLOCK_RECORD
  5
23
330
1
100
AcDbSymbolTableRecord
100
AcDbBlockTableRecord
  2
*Paper_Space0
340
26
  0
ENDTAB
  0
ENDSEC
  0
SECTION
  2
BLOCKS
  0
BLOCK
  5
20
330
1F
100
AcDbEntity
  8
0
100
AcDbBlockBegin
  2
*Model_Space
 70
     0
 10
0.0
 20
0.0
 30
0.0
  3
*Model_Space
  1

  0
ENDBLK
  5
21
330
1F
100
AcDbEntity
  8
0
100
AcDbBlockEnd
  0
BLOCK
  5
1C
330
1B
100
AcDbEntity
 67
     1
  8
0
100
AcDbBlockBegin
  2
*Paper_Space
 70
     0
 10
0.0
 20
0.0
 30
0.0
  3
*Paper_Space
  1

  0
ENDBLK
  5
1D
330
1B
100
AcDbEntity
 67
     1
  8
0
100
AcDbBlockEnd
  0
BLOCK
  5
24
330
23
100
AcDbEntity
  8
0
100
AcDbBlockBegin
  2
*Paper_Space0
 70
     0
 10
0.0
 20
0.0
 30
0.0
  3
*Paper_Space0
  1

  0
ENDBLK
  5
25
330
23
100
AcDbEntity
  8
0
100
AcDbBlockEnd
  0
ENDSEC
  0
SECTION
  2
ENTITIES
  0
SPLINE
  5
41
330
1F
100
AcDbEntity
  8
Camada 1
 62
   252
100
AcDbSpline
210
0.0
220
0.0
230
1.0
 70
    11
 71
     3
 72
   288
 73
   284
 74
     0
 42
0.0000000001
 43
0.0000000001
 12
1.0
 22
0.0
 32
0.0
 13
1.0
 23
0.0
 33
0.0
 40
0.0
 40
0.0
 40
0.0
 40
0.0
 40
0.0138888888888889
 40
0.0138888888888889
 40
0.0138888888888889
 40
0.0138888888888889
 40
0.0277777777777778
 40
0.0277777777777778
 40
0.0277777777777778
 40
0.0277777777777778
 40
0.0416666666666667
 40
0.0416666666666667
 40
0.0416666666666667
 40
0.0416666666666667
 40
0.0555555555555556
 40
0.0555555555555556
 40
0.0555555555555556
 40
0.0555555555555556
 40
0.0694444444444444
 40
0.0694444444444444
 40
0.0694444444444444
 40
0.0694444444444444
 40
0.0833333333333333
 40
0.0833333333333333
 40
0.0833333333333333
 40
0.0833333333333333
 40
0.0972222222222222
 40
0.0972222222222222
 40
0.0972222222222222
 40
0.0972222222222222
 40
0.1111111111111111
 40
0.1111111111111111
 40
0.1111111111111111
 40
0.1111111111111111
 40
0.125
 40
0.125
 40
0.125
 40
0.125
 40
0.1388888888888889
 40
0.1388888888888889
 40
0.1388888888888889
 40
0.1388888888888889
 40
0.1527777777777778
 40
0.1527777777777778
 40
0.1527777777777778
 40
0.1527777777777778
 40
0.1666666666666667
 40
0.1666666666666667
 40
0.1666666666666667
 40
0.1666666666666667
 40
0.1805555555555556
 40
0.1805555555555556
 40
0.1805555555555556
 40
0.1805555555555556
 40
0.1944444444444444
 40
0.1944444444444444
 40
0.1944444444444444
 40
0.1944444444444444
 40
0.2083333333333333
 40
0.2083333333333333
 40
0.2083333333333333
 40
0.2083333333333333
 40
0.2222222222222222
 40
0.2222222222222222
 40
0.2222222222222222
 40
0.2222222222222222
 40
0.2361111111111111
 40
0.2361111111111111
 40
0.2361111111111111
 40
0.2361111111111111
 40
0.25
 40
0.25
 40
0.25
 40
0.25
 40
0.2638888888888889
 40
0.2638888888888889
 40
0.2638888888888889
 40
0.2638888888888889
 40
0.2777777777777778
 40
0.2777777777777778
 40
0.2777777777777778
 40
0.2777777777777778
 40
0.2916666666666667
 40
0.2916666666666667
 40
0.2916666666666667
 40
0.2916666666666667
 40
0.3055555555555556
 40
0.3055555555555556
 40
0.3055555555555556
 40
0.3055555555555556
 40
0.3194444444444444
 40
0.3194444444444444
 40
0.3194444444444444
 40
0.3194444444444444
 40
0.3333333333333333
 40
0.3333333333333333
 40
0.3333333333333333
 40
0.3333333333333333
 40
0.3472222222222222
 40
0.3472222222222222
 40
0.3472222222222222
 40
0.3472222222222222
 40
0.3611111111111111
 40
0.3611111111111111
 40
0.3611111111111111
 40
0.3611111111111111
 40
0.375
 40
0.375
 40
0.375
 40
0.375
 40
0.3888888888888889
 40
0.3888888888888889
 40
0.3888888888888889
 40
0.3888888888888889
 40
0.4027777777777778
 40
0.4027777777777778
 40
0.4027777777777778
 40
0.4027777777777778
 40
0.4166666666666667
 40
0.4166666666666667
 40
0.4166666666666667
 40
0.4166666666666667
 40
0.4305555555555556
 40
0.4305555555555556
 40
0.4305555555555556
 40
0.4305555555555556
 40
0.4444444444444444
 40
0.4444444444444444
 40
0.4444444444444444
 40
0.4444444444444444
 40
0.4583333333333333
 40
0.4583333333333333
 40
0.4583333333333333
 40
0.4583333333333333
 40
0.4722222222222222
 40
0.4722222222222222
 40
0.4722222222222222
 40
0.4722222222222222
 40
0.4861111111111111
 40
0.4861111111111111
 40
0.4861111111111111
 40
0.4861111111111111
 40
0.5
 40
0.5
 40
0.5
 40
0.5
 40
0.5138888888888888
 40
0.5138888888888888
 40
0.5138888888888888
 40
0.5138888888888888
 40
0.5277777777777778
 40
0.5277777777777778
 40
0.5277777777777778
 40
0.5277777777777778
 40
0.5416666666666666
 40
0.5416666666666666
 40
0.5416666666666666
 40
0.5416666666666666
 40
0.5555555555555556
 40
0.5555555555555556
 40
0.5555555555555556
 40
0.5555555555555556
 40
0.5694444444444444
 40
0.5694444444444444
 40
0.5694444444444444
 40
0.5694444444444444
 40
0.5833333333333334
 40
0.5833333333333334
 40
0.5833333333333334
 40
0.5833333333333334
 40
0.5972222222222222
 40
0.5972222222222222
 40
0.5972222222222222
 40
0.5972222222222222
 40
0.6111111111111112
 40
0.6111111111111112
 40
0.6111111111111112
 40
0.6111111111111112
 40
0.625
 40
0.625
 40
0.625
 40
0.625
 40
0.6388888888888888
 40
0.6388888888888888
 40
0.6388888888888888
 40
0.6388888888888888
 40
0.6527777777777778
 40
0.6527777777777778
 40
0.6527777777777778
 40
0.6527777777777778
 40
0.6666666666666666
 40
0.6666666666666666
 40
0.6666666666666666
 40
0.6666666666666666
 40
0.6805555555555556
 40
0.6805555555555556
 40
0.6805555555555556
 40
0.6805555555555556
 40
0.6944444444444444
 40
0.6944444444444444
 40
0.6944444444444444
 40
0.6944444444444444
 40
0.7083333333333334
 40
0.7083333333333334
 40
0.7083333333333334
 40
0.7083333333333334
 40
0.7222222222222222
 40
0.7222222222222222
 40
0.7222222222222222
 40
0.7222222222222222
 40
0.7361111111111112
 40
0.7361111111111112
 40
0.7361111111111112
 40
0.7361111111111112
 40
0.75
 40
0.75
 40
0.75
 40
0.75
 40
0.7638888888888888
 40
0.7638888888888888
 40
0.7638888888888888
 40
0.7638888888888888
 40
0.7777777777777778
 40
0.7777777777777778
 40
0.7777777777777778
 40
0.7777777777777778
 40
0.7916666666666666
 40
0.7916666666666666
 40
0.7916666666666666
 40
0.7916666666666666
 40
0.8055555555555556
 40
0.8055555555555556
 40
0.8055555555555556
 40
0.8055555555555556
 40
0.8194444444444444
 40
0.8194444444444444
 40
0.8194444444444444
 40
0.8194444444444444
 40
0.8333333333333334
 40
0.8333333333333334
 40
0.8333333333333334
 40
0.8333333333333334
 40
0.8472222222222222
 40
0.8472222222222222
 40
0.8472222222222222
 40
0.8472222222222222
 40
0.8611111111111112
 40
0.8611111111111112
 40
0.8611111111111112
 40
0.8611111111111112
 40
0.875
 40
0.875
 40
0.875
 40
0.875
 40
0.8888888888888888
 40
0.8888888888888888
 40
0.8888888888888888
 40
0.8888888888888888
 40
0.9027777777777778
 40
0.9027777777777778
 40
0.9027777777777778
 40
0.9027777777777778
 40
0.9166666666666666
 40
0.9166666666666666
 40
0.9166666666666666
 40
0.9166666666666666
 40
0.9305555555555556
 40
0.9305555555555556
 40
0.9305555555555556
 40
0.9305555555555556
 40
0.9444444444444444
 40
0.9444444444444444
 40
0.9444444444444444
 40
0.9444444444444444
 40
0.9583333333333334
 40
0.9583333333333334
 40
0.9583333333333334
 40
0.9583333333333334
 40
0.9722222222222222
 40
0.9722222222222222
 40
0.9722222222222222
 40
0.9722222222222222
 40
1.0
 40
1.0
 40
1.0
 40
1.0
 10
0.08061
 20
9.48511
 30
0.0
 10
1.12378
 20
9.58601
 30
0.0
 10
2.22427
 20
9.18278
 30
0.0
 10
2.9046
 20
8.37421
 30
0.0
 10
2.9046
 20
8.37421
 30
0.0
 10
2.99597
 20
8.26591
 30
0.0
 10
3.01132
 20
8.11545
 30
0.0
 10
2.9995
 20
7.97946
 30
0.0
 10
2.9995
 20
7.97946
 30
0.0
 10
2.97939
 20
7.78702
 30
0.0
 10
2.84445
 20
7.63761
 30
0.0
 10
2.7111
 20
7.50956
 30
0.0
 10
2.7111
 20
7.50956
 30
0.0
 10
2.54724
 20
7.35804
 30
0.0
 10
2.45957
 20
7.14637
 30
0.0
 10
2.37702
 20
6.94352
 30
0.0
 10
2.37702
 20
6.94352
 30
0.0
 10
2.26995
 20
6.68511
 30
0.0
 10
2.19093
 20
6.40448
 30
0.0
 10
2.22056
 20
6.12261
 30
0.0
 10
2.22056
 20
6.12261
 30
0.0
 10
2.32534
 20
5.81834
 30
0.0
 10
2.63049
 20
5.65059
 30
0.0
 10
2.77813
 20
5.37225
 30
0.0
 10
2.77813
 20
5.37225
 30
0.0
 10
2.82399
 20
5.28476
 30
0.0
 10
2.84604
 20
5.17311
 30
0.0
 10
2.79118
 20
5.08421
 30
0.0
 10
2.79118
 20
5.08421
 30
0.0
 10
2.71904
 20
4.90165
 30
0.0
 10
2.53648
 20
4.80869
 30
0.0
 10
2.38778
 20
4.69774
 30
0.0
 10
2.38778
 20
4.69774
 30
0.0
 10
2.38796
 20
4.4635
 30
0.0
 10
2.38478
 20
4.2199
 30
0.0
 10
2.28565
 20
4.00242
 30
0.0
 10
2.28565
 20
4.00242
 30
0.0
 10
2.18299
 20
3.81774
 30
0.0
 10
2.04418
 20
3.65687
 30
0.0
 10
1.92864
 20
3.48048
 30
0.0
 10
1.92864
 20
3.48048
 30
0.0
 10
2.13255
 20
3.28945
 30
0.0
 10
2.37367
 20
3.14217
 30
0.0
 10
2.57246
 20
2.94532
 30
0.0
 10
2.57246
 20
2.94532
 30
0.0
 10
2.88679
 20
2.64546
 30
0.0
 10
3.18841
 20
2.30573
 30
0.0
 10
3.32899
 20
1.88698
 30
0.0
 10
3.32899
 20
1.88698
 30
0.0
 10
3.46605
 20
1.5051
 30
0.0
 10
3.6569
 20
1.12022
 30
0.0
 10
3.61051
 20
0.70271
 30
0.0
 10
3.61051
 20
0.70271
 30
0.0
 10
3.57576
 20
0.33335
 30
0.0
 10
3.25473
 20
0.01144
 30
0.0
 10
2.87885
 20
0.00015
 30
0.0
 10
2.87885
 20
0.00015
 30
0.0
 10
2.47862
 20
-0.06847
 30
0.0
 10
2.09057
 20
0.23863
 30
0.0
 10
1.99179
 20
0.61681
 30
0.0
 10
1.99179
 20
0.61681
 30
0.0
 10
1.96074
 20
0.81507
 30
0.0
 10
1.95686
 20
1.0292
 30
0.0
 10
2.06376
 20
1.2063
 30
0.0
 10
2.06376
 20
1.2063
 30
0.0
 10
2.13008
 20
1.33242
 30
0.0
 10
2.21739
 20
1.44742
 30
0.0
 10
2.27207
 20
1.57971
 30
0.0
 10
2.27207
 20
1.57971
 30
0.0
 10
2.2853
 20
1.6515
 30
0.0
 10
2.24438
 20
1.71112
 30
0.0
 10
2.2054
 20
1.76528
 30
0.0
 10
2.2054
 20
1.76528
 30
0.0
 10
2.16624
 20
1.46189
 30
0.0
 10
1.93922
 20
1.22835
 30
0.0
 10
1.9013
 20
0.92531
 30
0.0
 10
1.9013
 20
0.92531
 30
0.0
 10
1.87625
 20
0.7364
 30
0.0
 10
1.90818
 20
0.53673
 30
0.0
 10
2.01366
 20
0.37586
 30
0.0
 10
2.01366
 20
0.37586
 30
0.0
 10
2.17347
 20
0.10775
 30
0.0
 10
2.46222
 20
-0.11345
 30
0.0
 10
2.7896
 20
-0.08487
 30
0.0
 10
2.7896
 20
-0.08487
 30
0.0
 10
3.07587
 20
-0.09669
 30
0.0
 10
3.30253
 20
0.09611
 30
0.0
 10
3.51738
 20
0.2568
 30
0.0
 10
3.51738
 20
0.2568
 30
0.0
 10
4.23069
 20
-0.47593
 30
0.0
 10
4.61628
 20
-1.50022
 30
0.0
 10
4.62316
 20
-2.51745
 30
0.0
 10
4.62316
 20
-2.51745
 30
0.0
 10
4.60446
 20
-3.31385
 30
0.0
 10
4.37639
 20
-4.118
 30
0.0
 10
3.91813
 20
-4.77488
 30
0.0
 10
3.91813
 20
-4.77488
 30
0.0
 10
3.66836
 20
-5.13295
 30
0.0
 10
3.33428
 20
-5.42699
 30
0.0
 10
2.95911
 20
-5.64835
 30
0.0
 10
2.95911
 20
-5.64835
 30
0.0
 10
2.58005
 20
-5.87008
 30
0.0
 10
2.17065
 20
-6.03588
 30
0.0
 10
1.75437
 20
-6.17311
 30
0.0
 10
1.75437
 20
-6.17311
 30
0.0
 10
1.22591
 20
-6.35126
 30
0.0
 10
0.66552
 20
-6.43099
 30
0.0
 10
0.10848
 20
-6.41723
 30
0.0
 10
0.10848
 20
-6.41723
 30
0.0
 10
-0.33143
 20
-6.42305
 30
0.0
 10
-0.76429
 20
-6.3301
 30
0.0
 10
-1.19027
 20
-6.23132
 30
0.0
 10
-1.19027
 20
-6.23132
 30
0.0
 10
-1.81663
 20
-6.07239
 30
0.0
 10
-2.43311
 20
-5.82986
 30
0.0
 10
-2.95063
 20
-5.43563
 30
0.0
 10
-2.95063
 20
-5.43563
 30
0.0
 10
-3.40148
 20
-5.01723
 30
0.0
 10
-3.7338
 20
-4.47819
 30
0.0
 10
-3.93488
 20
-3.8984
 30
0.0
 10
-3.93488
 20
-3.8984
 30
0.0
 10
-4.11674
 20
-3.33784
 30
0.0
 10
-4.16101
 20
-2.7367
 30
0.0
 10
-4.10051
 20
-2.1525
 30
0.0
 10
-4.10051
 20
-2.1525
 30
0.0
 10
-4.01108
 20
-1.44571
 30
0.0
 10
-3.73415
 20
-0.75691
 30
0.0
 10
-3.27925
 20
-0.20588
 30
0.0
 10
-3.27925
 20
-0.20588
 30
0.0
 10
-3.21963
 20
-0.14343
 30
0.0
 10
-3.16759
 20
-0.06459
 30
0.0
 10
-3.08698
 20
-0.02825
 30
0.0
 10
-3.08698
 20
-0.02825
 30
0.0
 10
-2.93423
 20
-0.12579
 30
0.0
 10
-2.81411
 20
-0.26744
 30
0.0
 10
-2.65889
 20
-0.36233
 30
0.0
 10
-2.65889
 20
-0.36233
 30
0.0
 10
-2.50472
 20
-0.46746
 30
0.0
 10
-2.32287
 20
-0.51826
 30
0.0
 10
-2.14753
 20
-0.57488
 30
0.0
 10
-2.14753
 20
-0.57488
 30
0.0
 10
-1.66141
 20
-0.71652
 30
0.0
 10
-1.0855
 20
-0.68601
 30
0.0
 10
-0.68457
 20
-0.34875
 30
0.0
 10
-0.68457
 20
-0.34875
 30
0.0
 10
-0.2988
 20
-0.03125
 30
0.0
 10
-0.1397
 20
0.54996
 30
0.0
 10
-0.35031
 20
1.0098
 30
0.0
 10
-0.35031
 20
1.0098
 30
0.0
 10
-0.4535
 20
1.22447
 30
0.0
 10
-0.62759
 20
1.42943
 30
0.0
 10
-0.87365
 20
1.47406
 30
0.0
 10
-0.87365
 20
1.47406
 30
0.0
 10
-1.0952
 20
1.50175
 30
0.0
 10
-1.31992
 20
1.46312
 30
0.0
 10
-1.54111
 20
1.49963
 30
0.0
 10
-1.54111
 20
1.49963
 30
0.0
 10
-1.62701
 20
1.51092
 30
0.0
 10
-1.70938
 20
1.54179
 30
0.0
 10
-1.79529
 20
1.5529
 30
0.0
 10
-1.79529
 20
1.5529
 30
0.0
 10
-1.80234
 20
1.5402
 30
0.0
 10
-1.80816
 20
1.5268
 30
0.0
 10
-1.81257
 20
1.51286
 30
0.0
 10
-1.81257
 20
1.51286
 30
0.0
 10
-1.6951
 20
1.44266
 30
0.0
 10
-1.5688
 20
1.36399
 30
0.0
 10
-1.42575
 20
1.37105
 30
0.0
 10
-1.42575
 20
1.37105
 30
0.0
 10
-1.17951
 20
1.36858
 30
0.0
 10
-0.90999
 20
1.44619
 30
0.0
 10
-0.68457
 20
1.3109
 30
0.0
 10
-0.68457
 20
1.3109
 30
0.0
 10
-0.47696
 20
1.16626
 30
0.0
 10
-0.372
 20
0.90714
 30
0.0
 10
-0.38435
 20
0.65808
 30
0.0
 10
-0.38435
 20
0.65808
 30
0.0
 10
-0.36495
 20
0.26138
 30
0.0
 10
-0.5491
 20
-0.15754
 30
0.0
 10
-0.89676
 20
-0.36533
 30
0.0
 10
-0.89676
 20
-0.36533
 30
0.0
 10
-1.21761
 20
-0.57594
 30
0.0
 10
-1.62578
 20
-0.59287
 30
0.0
 10
-1.9939
 20
-0.53167
 30
0.0
 10
-1.9939
 20
-0.53167
 30
0.0
 10
-2.65536
 20
-0.42813
 30
0.0
 10
-3.2512
 20
0.06983
 30
0.0
 10
-3.42741
 20
0.72211
 30
0.0
 10
-3.42741
 20
0.72211
 30
0.0
 10
-3.4798
 20
0.90714
 30
0.0
 10
-3.51067
 20
1.09923
 30
0.0
 10
-3.50502
 20
1.29202
 30
0.0
 10
-3.50502
 20
1.29202
 30
0.0
 10
-3.48686
 20
1.5372
 30
0.0
 10
-3.37838
 20
1.76739
 30
0.0
 10
-3.38402
 20
2.01557
 30
0.0
 10
-3.38402
 20
2.01557
 30
0.0
 10
-3.36709
 20
2.22212
 30
0.0
 10
-3.46287
 20
2.41245
 30
0.0
 10
-3.49109
 20
2.61318
 30
0.0
 10
-3.49109
 20
2.61318
 30
0.0
 10
-3.54524
 20
2.96966
 30
0.0
 10
-3.57964
 20
3.32914
 30
0.0
 10
-3.63661
 20
3.68509
 30
0.0
 10
-3.63661
 20
3.68509
 30
0.0
 10
-3.72763
 20
4.20579
 30
0.0
 10
-4.05148
 20
4.64553
 30
0.0
 10
-4.4009
 20
5.02671
 30
0.0
 10
-4.4009
 20
5.02671
 30
0.0
 10
-4.30565
 20
5.07839
 30
0.0
 10
-4.19982
 20
5.10643
 30
0.0
 10
-4.10228
 20
5.15318
 30
0.0
 10
-4.10228
 20
5.15318
 30
0.0
 10
-4.04795
 20
5.17858
 30
0.0
 10
-4.05977
 20
5.25213
 30
0.0
 10
-4.04072
 20
5.3017
 30
0.0
 10
-4.04072
 20
5.3017
 30
0.0
 10
-3.96646
 20
5.27718
 30
0.0
 10
-3.89396
 20
5.24843
 30
0.0
 10
-3.82041
 20
5.22214
 30
0.0
 10
-3.82041
 20
5.22214
 30
0.0
 10
-3.81582
 20
5.27718
 30
0.0
 10
-3.81035
 20
5.33133
 30
0.0
 10
-3.80153
 20
5.38566
 30
0.0
 10
-3.80153
 20
5.38566
 30
0.0
 10
-3.71228
 20
5.3726
 30
0.0
 10
-3.62285
 20
5.36026
 30
0.0
 10
-3.53342
 20
5.34809
 30
0.0
 10
-3.53342
 20
5.34809
 30
0.0
 10
-3.53342
 20
5.40277
 30
0.0
 10
-3.53572
 20
5.45745
 30
0.0
 10
-3.53677
 20
5.51213
 30
0.0
 10
-3.53677
 20
5.51213
 30
0.0
 10
-3.38808
 20
5.51583
 30
0.0
 10
-3.23233
 20
5.55552
 30
0.0
 10
-3.14695
 20
5.69063
 30
0.0
 10
-3.14695
 20
5.69063
 30
0.0
 10
-3.00108
 20
5.60526
 30
0.0
 10
-2.85221
 20
5.52148
 30
0.0
 10
-2.72239
 20
5.41212
 30
0.0
 10
-2.72239
 20
5.41212
 30
0.0
 10
-2.56981
 20
5.28159
 30
0.0
 10
-2.49573
 20
5.08809
 30
0.0
 10
-2.39818
 20
4.91858
 30
0.0
 10
-2.39818
 20
4.91858
 30
0.0
 10
-2.38125
 20
5.14365
 30
0.0
 10
-2.44581
 20
5.37737
 30
0.0
 10
-2.37808
 20
5.59679
 30
0.0
 10
-2.37808
 20
5.59679
 30
0.0
 10
-2.27259
 20
5.85468
 30
0.0
 10
-1.98314
 20
5.93423
 30
0.0
 10
-1.73902
 20
6.00319
 30
0.0
 10
-1.73902
 20
6.00319
 30
0.0
 10
-1.85085
 20
6.14642
 30
0.0
 10
-1.99178
 20
6.27819
 30
0.0
 10
-2.04964
 20
6.45475
 30
0.0
 10
-2.04964
 20
6.45475
 30
0.0
 10
-2.13166
 20
6.70064
 30
0.0
 10
-1.90729
 20
6.95005
 30
0.0
 10
-1.66617
 20
6.96416
 30
0.0
 10
-1.66617
 20
6.96416
 30
0.0
 10
-1.42346
 20
7.00491
 30
0.0
 10
-1.18039
 20
6.91636
 30
0.0
 10
-0.93892
 20
6.94793
 30
0.0
 10
-0.93892
 20
6.94793
 30
0.0
 10
-0.72637
 20
7.08428
 30
0.0
 10
-0.60343
 20
7.32311
 30
0.0
 10
-0.49812
 20
7.54607
 30
0.0
 10
-0.49812
 20
7.54607
 30
0.0
 10
-0.36936
 20
7.8491
 30
0.0
 10
-0.26123
 20
8.17295
 30
0.0
 10
-0.28293
 20
8.50704
 30
0.0
 10
-0.28293
 20
8.50704
 30
0.0
 10
-0.28892
 20
8.72523
 30
0.0
 10
-0.33673
 20
8.9443
 30
0.0
 10
-0.30057
 20
9.16214
 30
0.0
 10
-0.30057
 20
9.16214
 30
0.0
 10
-0.251
 20
9.33289
 30
0.0
 10
-0.09666
 20
9.46553
 30
0.0
 10
0.08061
 20
9.48511
 30
0.0
 10
0.08061
 20
9.48511
 30
0.0
 10
0.08061
 20
9.48511
 30
0.0
 10
0.08061
 20
9.48511
 30
0.0
 10
0.08061
 20
9.48511
 30
0.0
  0
SPLINE
  5
42
330
1F
100
AcDbEntity
  8
Camada 1
 62
   252
100
AcDbSpline
210
0.0
220
0.0
230
1.0
 70
    11
 71
     3
 72
    40
 73
    36
 74
     0
 42
0.0000000001
 43
0.0000000001
 12
1.0
 22
0.0
 32
0.0
 13
1.0
 23
0.0
 33
0.0
 40
0.0
 40
0.0
 40
0.0
 40
0.0
 40
0.1
 40
0.1
 40
0.1
 40
0.1
 40
0.2
 40
0.2
 40
0.2
 40
0.2
 40
0.3
 40
0.3
 40
0.3
 40
0.3
 40
0.4
 40
0.4
 40
0.4
 40
0.4
 40
0.5
 40
0.5
 40
0.5
 40
0.5
 40
0.6
 40
0.6
 40
0.6
 40
0.6
 40
0.7
 40
0.7
 40
0.7
 40
0.7
 40
0.8
 40
0.8
 40
0.8
 40
0.8
 40
1.0
 40
1.0
 40
1.0
 40
1.0
 10
0.34873
 20
9.14874
 30
0.0
 10
0.30234
 20
9.14239
 30
0.0
 10
0.26935
 20
9.10517
 30
0.0
 10
0.24289
 20
9.07007
 30
0.0
 10
0.24289
 20
9.07007
 30
0.0
 10
0.27394
 20
9.02632
 30
0.0
 10
0.32156
 20
8.99951
 30
0.0
 10
0.36866
 20
8.97641
 30
0.0
 10
0.36866
 20
8.97641
 30
0.0
 10
0.78264
 20
8.76774
 30
0.0
 10
1.20298
 20
8.56754
 30
0.0
 10
1.6436
 20
8.42025
 30
0.0
 10
1.6436
 20
8.42025
 30
0.0
 10
1.89901
 20
8.33259
 30
0.0
 10
2.16447
 20
8.26362
 30
0.0
 10
2.43664
 20
8.26626
 30
0.0
 10
2.43664
 20
8.26626
 30
0.0
 10
2.37349
 20
8.34229
 30
0.0
 10
2.29253
 20
8.39997
 30
0.0
 10
2.21986
 20
8.46629
 30
0.0
 10
2.21986
 20
8.46629
 30
0.0
 10
2.06428
 20
8.59982
 30
0.0
 10
1.92247
 20
8.75839
 30
0.0
 10
1.73073
 20
8.84076
 30
0.0
 10
1.73073
 20
8.84076
 30
0.0
 10
1.48291
 20
8.95489
 30
0.0
 10
1.21621
 20
9.01909
 30
0.0
 10
0.95392
 20
9.08982
 30
0.0
 10
0.95392
 20
9.08982
 30
0.0
 10
0.75795
 20
9.14468
 30
0.0
 10
0.5521
 20
9.17784
 30
0.0
 10
0.34873
 20
9.14874
 30
0.0
 10
0.34873
 20
9.14874
 30
0.0
 10
0.34873
 20
9.14874
 30
0.0
 10
0.34873
 20
9.14874
 30
0.0
 10
0.34873
 20
9.14874
 30
0.0
  0
SPLINE
  5
43
330
1F
100
AcDbEntity
  8
Camada 1
 62
   252
100
AcDbSpline
210
0.0
220
0.0
230
1.0
 70
    11
 71
     3
 72
    52
 73
    48
 74
     0
 42
0.0000000001
 43
0.0000000001
 12
1.0
 22
0.0
 32
0.0
 13
1.0
 23
0.0
 33
0.0
 40
0.0
 40
0.0
 40
0.0
 40
0.0
 40
0.0769230769230769
 40
0.0769230769230769
 40
0.0769230769230769
 40
0.0769230769230769
 40
0.1538461538461539
 40
0.1538461538461539
 40
0.1538461538461539
 40
0.1538461538461539
 40
0.2307692307692308
 40
0.2307692307692308
 40
0.2307692307692308
 40
0.2307692307692308
 40
0.3076923076923077
 40
0.3076923076923077
 40
0.3076923076923077
 40
0.3076923076923077
 40
0.3846153846153846
 40
0.3846153846153846
 40
0.3846153846153846
 40
0.3846153846153846
 40
0.4615384615384616
 40
0.4615384615384616
 40
0.4615384615384616
 40
0.4615384615384616
 40
0.5384615384615384
 40
0.5384615384615384
 40
0.5384615384615384
 40
0.5384615384615384
 40
0.6153846153846154
 40
0.6153846153846154
 40
0.6153846153846154
 40
0.6153846153846154
 40
0.6923076923076923
 40
0.6923076923076923
 40
0.6923076923076923
 40
0.6923076923076923
 40
0.7692307692307693
 40
0.7692307692307693
 40
0.7692307692307693
 40
0.7692307692307693
 40
0.8461538461538461
 40
0.8461538461538461
 40
0.8461538461538461
 40
0.8461538461538461
 40
1.0
 40
1.0
 40
1.0
 40
1.0
 10
0.31945
 20
8.30278
 30
0.0
 10
0.27094
 20
8.20982
 30
0.0
 10
0.23672
 20
8.11034
 30
0.0
 10
0.19474
 20
8.01438
 30
0.0
 10
0.19474
 20
8.01438
 30
0.0
 10
0.06068
 20
7.73957
 30
0.0
 10
-0.003
 20
7.43759
 30
0.0
 10
-0.13
 20
7.1596
 30
0.0
 10
-0.13
 20
7.1596
 30
0.0
 10
-0.03739
 20
7.04936
 30
0.0
 10
0.07938
 20
6.9631
 30
0.0
 10
0.20303
 20
6.89096
 30
0.0
 10
0.20303
 20
6.89096
 30
0.0
 10
0.41417
 20
6.7689
 30
0.0
 10
0.63412
 20
6.65813
 30
0.0
 10
0.86837
 20
6.58775
 30
0.0
 10
0.86837
 20
6.58775
 30
0.0
 10
1.16823
 20
6.48721
 30
0.0
 10
1.48714
 20
6.47733
 30
0.0
 10
1.79882
 20
6.44293
 30
0.0
 10
1.79882
 20
6.44293
 30
0.0
 10
1.85226
 20
6.62461
 30
0.0
 10
1.88472
 20
6.81176
 30
0.0
 10
1.93887
 20
6.99309
 30
0.0
 10
1.93887
 20
6.99309
 30
0.0
 10
2.00749
 20
7.22204
 30
0.0
 10
2.18987
 20
7.39473
 30
0.0
 10
2.26431
 20
7.62068
 30
0.0
 10
2.26431
 20
7.62068
 30
0.0
 10
2.28406
 20
7.66654
 30
0.0
 10
2.24473
 20
7.70923
 30
0.0
 10
2.20839
 20
7.73181
 30
0.0
 10
2.20839
 20
7.73181
 30
0.0
 10
2.05935
 20
7.82035
 30
0.0
 10
1.88296
 20
7.83799
 30
0.0
 10
1.7145
 20
7.85792
 30
0.0
 10
1.7145
 20
7.85792
 30
0.0
 10
1.53
 20
7.87821
 30
0.0
 10
1.34797
 20
7.91525
 30
0.0
 10
1.16858
 20
7.96199
 30
0.0
 10
1.16858
 20
7.96199
 30
0.0
 10
0.87384
 20
8.04472
 30
0.0
 10
0.60149
 20
8.18724
 30
0.0
 10
0.31945
 20
8.30278
 30
0.0
 10
0.31945
 20
8.30278
 30
0.0
 10
0.31945
 20
8.30278
 30
0.0
 10
0.31945
 20
8.30278
 30
0.0
 10
0.31945
 20
8.30278
 30
0.0
  0
SPLINE
  5
44
330
1F
100
AcDbEntity
  8
Camada 1
 62
   252
100
AcDbSpline
210
0.0
220
0.0
230
1.0
 70
    11
 71
     3
 72
    56
 73
    52
 74
     0
 42
0.0000000001
 43
0.0000000001
 12
1.0
 22
0.0
 32
0.0
 13
1.0
 23
0.0
 33
0.0
 40
0.0
 40
0.0
 40
0.0
 40
0.0
 40
0.0714285714285714
 40
0.0714285714285714
 40
0.0714285714285714
 40
0.0714285714285714
 40
0.1428571428571428
 40
0.1428571428571428
 40
0.1428571428571428
 40
0.1428571428571428
 40
0.2142857142857143
 40
0.2142857142857143
 40
0.2142857142857143
 40
0.2142857142857143
 40
0.2857142857142857
 40
0.2857142857142857
 40
0.2857142857142857
 40
0.2857142857142857
 40
0.3571428571428572
 40
0.3571428571428572
 40
0.3571428571428572
 40
0.3571428571428572
 40
0.4285714285714285
 40
0.4285714285714285
 40
0.4285714285714285
 40
0.4285714285714285
 40
0.5
 40
0.5
 40
0.5
 40
0.5
 40
0.5714285714285714
 40
0.5714285714285714
 40
0.5714285714285714
 40
0.5714285714285714
 40
0.6428571428571429
 40
0.6428571428571429
 40
0.6428571428571429
 40
0.6428571428571429
 40
0.7142857142857143
 40
0.7142857142857143
 40
0.7142857142857143
 40
0.7142857142857143
 40
0.7857142857142857
 40
0.7857142857142857
 40
0.7857142857142857
 40
0.7857142857142857
 40
0.8571428571428571
 40
0.8571428571428571
 40
0.8571428571428571
 40
0.8571428571428571
 40
1.0
 40
1.0
 40
1.0
 40
1.0
 10
-1.46438
 20
6.49832
 30
0.0
 10
-1.50301
 20
6.47186
 30
0.0
 10
-1.58221
 20
6.42547
 30
0.0
 10
-1.53035
 20
6.37467
 30
0.0
 10
-1.53035
 20
6.37467
 30
0.0
 10
-1.41252
 20
6.2609
 30
0.0
 10
-1.27882
 20
6.163
 30
0.0
 10
-1.13788
 20
6.07957
 30
0.0
 10
-1.13788
 20
6.07957
 30
0.0
 10
-0.5274
 20
5.7432
 30
0.0
 10
0.13247
 20
5.49608
 30
0.0
 10
0.81475
 20
5.35338
 30
0.0
 10
0.81475
 20
5.35338
 30
0.0
 10
1.14618
 20
5.29376
 30
0.0
 10
1.48044
 20
5.22532
 30
0.0
 10
1.81893
 20
5.24754
 30
0.0
 10
1.81893
 20
5.24754
 30
0.0
 10
1.9865
 20
5.25478
 30
0.0
 10
2.15283
 20
5.28035
 30
0.0
 10
2.31828
 20
5.30664
 30
0.0
 10
2.31828
 20
5.30664
 30
0.0
 10
2.29853
 20
5.40435
 30
0.0
 10
2.25902
 20
5.49714
 30
0.0
 10
2.2121
 20
5.58427
 30
0.0
 10
2.2121
 20
5.58427
 30
0.0
 10
2.17788
 20
5.64548
 30
0.0
 10
2.08545
 20
5.62678
 30
0.0
 10
2.03148
 20
5.62925
 30
0.0
 10
2.03148
 20
5.62925
 30
0.0
 10
1.79564
 20
5.61655
 30
0.0
 10
1.55858
 20
5.60456
 30
0.0
 10
1.32292
 20
5.62713
 30
0.0
 10
1.32292
 20
5.62713
 30
0.0
 10
1.15094
 20
5.6483
 30
0.0
 10
0.98214
 20
5.68834
 30
0.0
 10
0.81139
 20
5.71586
 30
0.0
 10
0.81139
 20
5.71586
 30
0.0
 10
0.38683
 20
5.78324
 30
0.0
 10
-0.00318
 20
5.97374
 30
0.0
 10
-0.38647
 20
6.15859
 30
0.0
 10
-0.38647
 20
6.15859
 30
0.0
 10
-0.65176
 20
6.27924
 30
0.0
 10
-0.9047
 20
6.43499
 30
0.0
 10
-1.19151
 20
6.50096
 30
0.0
 10
-1.19151
 20
6.50096
 30
0.0
 10
-1.28076
 20
6.51349
 30
0.0
 10
-1.37742
 20
6.52654
 30
0.0
 10
-1.46438
 20
6.49832
 30
0.0
 10
-1.46438
 20
6.49832
 30
0.0
 10
-1.46438
 20
6.49832
 30
0.0
 10
-1.46438
 20
6.49832
 30
0.0
 10
-1.46438
 20
6.49832
 30
0.0
  0
SPLINE
  5
45
330
1F
100
AcDbEntity
  8
Camada 1
 62
   252
100
AcDbSpline
210
0.0
220
0.0
230
1.0
 70
    11
 71
     3
 72
    28
 73
    24
 74
     0
 42
0.0000000001
 43
0.0000000001
 12
1.0
 22
0.0
 32
0.0
 13
1.0
 23
0.0
 33
0.0
 40
0.0
 40
0.0
 40
0.0
 40
0.0
 40
0.1428571428571428
 40
0.1428571428571428
 40
0.1428571428571428
 40
0.1428571428571428
 40
0.2857142857142857
 40
0.2857142857142857
 40
0.2857142857142857
 40
0.2857142857142857
 40
0.4285714285714285
 40
0.4285714285714285
 40
0.4285714285714285
 40
0.4285714285714285
 40
0.5714285714285714
 40
0.5714285714285714
 40
0.5714285714285714
 40
0.5714285714285714
 40
0.7142857142857143
 40
0.7142857142857143
 40
0.7142857142857143
 40
0.7142857142857143
 40
1.0
 40
1.0
 40
1.0
 40
1.0
 10
-1.95298
 20
5.06675
 30
0.0
 10
-1.99443
 20
4.84361
 30
0.0
 10
-1.96885
 20
4.61202
 30
0.0
 10
-1.92581
 20
4.39082
 30
0.0
 10
-1.92581
 20
4.39082
 30
0.0
 10
-1.87695
 20
4.2042
 30
0.0
 10
-1.68769
 20
4.11389
 30
0.0
 10
-1.5277
 20
4.03875
 30
0.0
 10
-1.5277
 20
4.03875
 30
0.0
 10
-1.61131
 20
4.23137
 30
0.0
 10
-1.76248
 20
4.40546
 30
0.0
 10
-1.75701
 20
4.62701
 30
0.0
 10
-1.75701
 20
4.62701
 30
0.0
 10
-1.77606
 20
4.91117
 30
0.0
 10
-1.68875
 20
5.18687
 30
0.0
 10
-1.67622
 20
5.46891
 30
0.0
 10
-1.67622
 20
5.46891
 30
0.0
 10
-1.79634
 20
5.35832
 30
0.0
 10
-1.91153
 20
5.22867
 30
0.0
 10
-1.95298
 20
5.06675
 30
0.0
 10
-1.95298
 20
5.06675
 30
0.0
 10
-1.95298
 20
5.06675
 30
0.0
 10
-1.95298
 20
5.06675
 30
0.0
 10
-1.95298
 20
5.06675
 30
0.0
  0
SPLINE
  5
46
330
1F
100
AcDbEntity
  8
Camada 1
 62
   252
100
AcDbSpline
210
0.0
220
0.0
230
1.0
 70
    11
 71
     3
 72
    24
 73
    20
 74
     0
 42
0.0000000001
 43
0.0000000001
 12
1.0
 22
0.0
 32
0.0
 13
1.0
 23
0.0
 33
0.0
 40
0.0
 40
0.0
 40
0.0
 40
0.0
 40
0.1666666666666667
 40
0.1666666666666667
 40
0.1666666666666667
 40
0.1666666666666667
 40
0.3333333333333333
 40
0.3333333333333333
 40
0.3333333333333333
 40
0.3333333333333333
 40
0.5
 40
0.5
 40
0.5
 40
0.5
 40
0.6666666666666666
 40
0.6666666666666666
 40
0.6666666666666666
 40
0.6666666666666666
 40
1.0
 40
1.0
 40
1.0
 40
1.0
 10
-2.99949
 20
5.17329
 30
0.0
 10
-3.20552
 20
5.09903
 30
0.0
 10
-3.38526
 20
4.96162
 30
0.0
 10
-3.53236
 20
4.80128
 30
0.0
 10
-3.53236
 20
4.80128
 30
0.0
 10
-3.48844
 20
4.70374
 30
0.0
 10
-3.42388
 20
4.61872
 30
0.0
 10
-3.36285
 20
4.53158
 30
0.0
 10
-3.36285
 20
4.53158
 30
0.0
 10
-3.13461
 20
4.67605
 30
0.0
 10
-2.8859
 20
4.79334
 30
0.0
 10
-2.6827
 20
4.97326
 30
0.0
 10
-2.6827
 20
4.97326
 30
0.0
 10
-2.76348
 20
5.06004
 30
0.0
 10
-2.84868
 20
5.23978
 30
0.0
 10
-2.99949
 20
5.17329
 30
0.0
 10
-2.99949
 20
5.17329
 30
0.0
 10
-2.99949
 20
5.17329
 30
0.0
 10
-2.99949
 20
5.17329
 30
0.0
 10
-2.99949
 20
5.17329
 30
0.0
  0
SPLINE
  5
47
330
1F
100
AcDbEntity
  8
Camada 1
 62
   252
100
AcDbSpline
210
0.0
220
0.0
230
1.0
 70
    11
 71
     3
 72
    28
 73
    24
 74
     0
 42
0.0000000001
 43
0.0000000001
 12
1.0
 22
0.0
 32
0.0
 13
1.0
 23
0.0
 33
0.0
 40
0.0
 40
0.0
 40
0.0
 40
0.0
 40
0.1428571428571428
 40
0.1428571428571428
 40
0.1428571428571428
 40
0.1428571428571428
 40
0.2857142857142857
 40
0.2857142857142857
 40
0.2857142857142857
 40
0.2857142857142857
 40
0.4285714285714285
 40
0.4285714285714285
 40
0.4285714285714285
 40
0.4285714285714285
 40
0.5714285714285714
 40
0.5714285714285714
 40
0.5714285714285714
 40
0.5714285714285714
 40
0.7142857142857143
 40
0.7142857142857143
 40
0.7142857142857143
 40
0.7142857142857143
 40
1.0
 40
1.0
 40
1.0
 40
1.0
 10
-0.53587
 20
5.14789
 30
0.0
 10
-0.626
 20
5.08474
 30
0.0
 10
-0.70467
 20
4.98473
 30
0.0
 10
-0.71826
 20
4.87325
 30
0.0
 10
-0.71826
 20
4.87325
 30
0.0
 10
-0.7052
 20
4.74713
 30
0.0
 10
-0.5752
 20
4.67287
 30
0.0
 10
-0.46725
 20
4.63371
 30
0.0
 10
-0.46725
 20
4.63371
 30
0.0
 10
-0.39229
 20
4.62525
 30
0.0
 10
-0.32755
 20
4.68257
 30
0.0
 10
-0.27005
 20
4.72226
 30
0.0
 10
-0.27005
 20
4.72226
 30
0.0
 10
-0.21131
 20
4.80357
 30
0.0
 10
-0.21502
 20
4.91858
 30
0.0
 10
-0.251
 20
5.00836
 30
0.0
 10
-0.251
 20
5.00836
 30
0.0
 10
-0.31785
 20
5.09303
 30
0.0
 10
-0.42492
 20
5.15565
 30
0.0
 10
-0.53587
 20
5.14789
 30
0.0
 10
-0.53587
 20
5.14789
 30
0.0
 10
-0.53587
 20
5.14789
 30
0.0
 10
-0.53587
 20
5.14789
 30
0.0
 10
-0.53587
 20
5.14789
 30
0.0
  0
SPLINE
  5
48
330
1F
100
AcDbEntity
  8
Camada 1
 62
   252
100
AcDbSpline
210
0.0
220
0.0
230
1.0
 70
    11
 71
     3
 72
    24
 73
    20
 74
     0
 42
0.0000000001
 43
0.0000000001
 12
1.0
 22
0.0
 32
0.0
 13
1.0
 23
0.0
 33
0.0
 40
0.0
 40
0.0
 40
0.0
 40
0.0
 40
0.1666666666666667
 40
0.1666666666666667
 40
0.1666666666666667
 40
0.1666666666666667
 40
0.3333333333333333
 40
0.3333333333333333
 40
0.3333333333333333
 40
0.3333333333333333
 40
0.5
 40
0.5
 40
0.5
 40
0.5
 40
0.6666666666666666
 40
0.6666666666666666
 40
0.6666666666666666
 40
0.6666666666666666
 40
1.0
 40
1.0
 40
1.0
 40
1.0
 10
1.20386
 20
4.70921
 30
0.0
 10
1.15147
 20
4.60972
 30
0.0
 10
1.10773
 20
4.50565
 30
0.0
 10
1.08409
 20
4.39541
 30
0.0
 10
1.08409
 20
4.39541
 30
0.0
 10
1.15571
 20
4.36049
 30
0.0
 10
1.22485
 20
4.31568
 30
0.0
 10
1.30616
 20
4.30598
 30
0.0
 10
1.30616
 20
4.30598
 30
0.0
 10
1.43934
 20
4.35502
 30
0.0
 10
1.4979
 20
4.53246
 30
0.0
 10
1.41676
 20
4.64782
 30
0.0
 10
1.41676
 20
4.64782
 30
0.0
 10
1.36367
 20
4.70497
 30
0.0
 10
1.27177
 20
4.69245
 30
0.0
 10
1.20386
 20
4.70921
 30
0.0
 10
1.20386
 20
4.70921
 30
0.0
 10
1.20386
 20
4.70921
 30
0.0
 10
1.20386
 20
4.70921
 30
0.0
 10
1.20386
 20
4.70921
 30
0.0
  0
SPLINE
  5
49
330
1F
100
AcDbEntity
  8
Camada 1
 62
   252
100
AcDbSpline
210
0.0
220
0.0
230
1.0
 70
    11
 71
     3
 72
    36
 73
    32
 74
     0
 42
0.0000000001
 43
0.0000000001
 12
1.0
 22
0.0
 32
0.0
 13
1.0
 23
0.0
 33
0.0
 40
0.0
 40
0.0
 40
0.0
 40
0.0
 40
0.1111111111111111
 40
0.1111111111111111
 40
0.1111111111111111
 40
0.1111111111111111
 40
0.2222222222222222
 40
0.2222222222222222
 40
0.2222222222222222
 40
0.2222222222222222
 40
0.3333333333333333
 40
0.3333333333333333
 40
0.3333333333333333
 40
0.3333333333333333
 40
0.4444444444444444
 40
0.4444444444444444
 40
0.4444444444444444
 40
0.4444444444444444
 40
0.5555555555555556
 40
0.5555555555555556
 40
0.5555555555555556
 40
0.5555555555555556
 40
0.6666666666666666
 40
0.6666666666666666
 40
0.6666666666666666
 40
0.6666666666666666
 40
0.7777777777777778
 40
0.7777777777777778
 40
0.7777777777777778
 40
0.7777777777777778
 40
1.0
 40
1.0
 40
1.0
 40
1.0
 10
0.00565
 20
4.30916
 30
0.0
 10
0.01923
 20
3.98425
 30
0.0
 10
0.27552
 20
3.74154
 30
0.0
 10
0.50377
 20
3.54063
 30
0.0
 10
0.50377
 20
3.54063
 30
0.0
 10
0.85126
 20
3.24147
 30
0.0
 10
1.25254
 20
2.95149
 30
0.0
 10
1.72491
 20
2.9141
 30
0.0
 10
1.72491
 20
2.9141
 30
0.0
 10
1.72703
 20
2.96049
 30
0.0
 10
1.72897
 20
3.00688
 30
0.0
 10
1.73073
 20
3.05309
 30
0.0
 10
1.73073
 20
3.05309
 30
0.0
 10
1.527
 20
3.21114
 30
0.0
 10
1.30528
 20
3.34449
 30
0.0
 10
1.10438
 20
3.50606
 30
0.0
 10
1.10438
 20
3.50606
 30
0.0
 10
1.05569
 20
3.54539
 30
0.0
 10
1.01177
 20
3.59108
 30
0.0
 10
0.97773
 20
3.64346
 30
0.0
 10
0.97773
 20
3.64346
 30
0.0
 10
0.78494
 20
3.90223
 30
0.0
 10
0.84896
 20
4.28887
 30
0.0
 10
0.5835
 20
4.50248
 30
0.0
 10
0.5835
 20
4.50248
 30
0.0
 10
0.39653
 20
4.67164
 30
0.0
 10
0.05045
 20
4.5554
 30
0.0
 10
0.00565
 20
4.30916
 30
0.0
 10
0.00565
 20
4.30916
 30
0.0
 10
0.00565
 20
4.30916
 30
0.0
 10
0.00565
 20
4.30916
 30
0.0
 10
0.00565
 20
4.30916
 30
0.0
  0
SPLINE
  5
4A
330
1F
100
AcDbEntity
  8
Camada 1
 62
   252
100
AcDbSpline
210
0.0
220
0.0
230
1.0
 70
    11
 71
     3
 72
    28
 73
    24
 74
     0
 42
0.0000000001
 43
0.0000000001
 12
1.0
 22
0.0
 32
0.0
 13
1.0
 23
0.0
 33
0.0
 40
0.0
 40
0.0
 40
0.0
 40
0.0
 40
0.1428571428571428
 40
0.1428571428571428
 40
0.1428571428571428
 40
0.1428571428571428
 40
0.2857142857142857
 40
0.2857142857142857
 40
0.2857142857142857
 40
0.2857142857142857
 40
0.4285714285714285
 40
0.4285714285714285
 40
0.4285714285714285
 40
0.4285714285714285
 40
0.5714285714285714
 40
0.5714285714285714
 40
0.5714285714285714
 40
0.5714285714285714
 40
0.7142857142857143
 40
0.7142857142857143
 40
0.7142857142857143
 40
0.7142857142857143
 40
1.0
 40
1.0
 40
1.0
 40
1.0
 10
-3.14801
 20
4.14264
 30
0.0
 10
-3.19546
 20
4.10701
 30
0.0
 10
-3.18047
 20
4.04334
 30
0.0
 10
-3.17094
 20
3.99377
 30
0.0
 10
-3.17094
 20
3.99377
 30
0.0
 10
-3.13355
 20
3.83061
 30
0.0
 10
-3.10021
 20
3.66393
 30
0.0
 10
-3.03459
 20
3.50906
 30
0.0
 10
-3.03459
 20
3.50906
 30
0.0
 10
-2.78518
 20
3.62036
 30
0.0
 10
-2.57739
 20
3.80521
 30
0.0
 10
-2.35409
 20
3.95902
 30
0.0
 10
-2.35409
 20
3.95902
 30
0.0
 10
-2.40683
 20
4.12289
 30
0.0
 10
-2.47668
 20
4.2804
 30
0.0
 10
-2.54247
 20
4.43915
 30
0.0
 10
-2.54247
 20
4.43915
 30
0.0
 10
-2.75731
 20
4.37213
 30
0.0
 10
-2.97145
 20
4.28534
 30
0.0
 10
-3.14801
 20
4.14264
 30
0.0
 10
-3.14801
 20
4.14264
 30
0.0
 10
-3.14801
 20
4.14264
 30
0.0
 10
-3.14801
 20
4.14264
 30
0.0
 10
-3.14801
 20
4.14264
 30
0.0
  0
SPLINE
  5
4B
330
1F
100
AcDbEntity
  8
Camada 1
 62
   252
100
AcDbSpline
210
0.0
220
0.0
230
1.0
 70
    11
 71
     3
 72
    24
 73
    20
 74
     0
 42
0.0000000001
 43
0.0000000001
 12
1.0
 22
0.0
 32
0.0
 13
1.0
 23
0.0
 33
0.0
 40
0.0
 40
0.0
 40
0.0
 40
0.0
 40
0.1666666666666667
 40
0.1666666666666667
 40
0.1666666666666667
 40
0.1666666666666667
 40
0.3333333333333333
 40
0.3333333333333333
 40
0.3333333333333333
 40
0.3333333333333333
 40
0.5
 40
0.5
 40
0.5
 40
0.5
 40
0.6666666666666666
 40
0.6666666666666666
 40
0.6666666666666666
 40
0.6666666666666666
 40
1.0
 40
1.0
 40
1.0
 40
1.0
 10
-1.95227
 20
3.79145
 30
0.0
 10
-1.99249
 20
3.56956
 30
0.0
 10
-2.02389
 20
3.34184
 30
0.0
 10
-1.97838
 20
3.11783
 30
0.0
 10
-1.97838
 20
3.11783
 30
0.0
 10
-1.89618
 20
3.16492
 30
0.0
 10
-1.78594
 20
3.19844
 30
0.0
 10
-1.75613
 20
3.29774
 30
0.0
 10
-1.75613
 20
3.29774
 30
0.0
 10
-1.72597
 20
3.41504
 30
0.0
 10
-1.69774
 20
3.54169
 30
0.0
 10
-1.72208
 20
3.66181
 30
0.0
 10
-1.72208
 20
3.66181
 30
0.0
 10
-1.77518
 20
3.73413
 30
0.0
 10
-1.87378
 20
3.75477
 30
0.0
 10
-1.95227
 20
3.79145
 30
0.0
 10
-1.95227
 20
3.79145
 30
0.0
 10
-1.95227
 20
3.79145
 30
0.0
 10
-1.95227
 20
3.79145
 30
0.0
 10
-1.95227
 20
3.79145
 30
0.0
  0
SPLINE
  5
4C
330
1F
100
AcDbEntity
  8
Camada 1
 62
   252
100
AcDbSpline
210
0.0
220
0.0
230
1.0
 70
    11
 71
     3
 72
    24
 73
    20
 74
     0
 42
0.0000000001
 43
0.0000000001
 12
1.0
 22
0.0
 32
0.0
 13
1.0
 23
0.0
 33
0.0
 40
0.0
 40
0.0
 40
0.0
 40
0.0
 40
0.1666666666666667
 40
0.1666666666666667
 40
0.1666666666666667
 40
0.1666666666666667
 40
0.3333333333333333
 40
0.3333333333333333
 40
0.3333333333333333
 40
0.3333333333333333
 40
0.5
 40
0.5
 40
0.5
 40
0.5
 40
0.6666666666666666
 40
0.6666666666666666
 40
0.6666666666666666
 40
0.6666666666666666
 40
1.0
 40
1.0
 40
1.0
 40
1.0
 10
-1.28446
 20
3.64311
 30
0.0
 10
-1.3141
 20
3.54698
 30
0.0
 10
-1.2924
 20
3.44115
 30
0.0
 10
-1.25554
 20
3.35013
 30
0.0
 10
-1.25554
 20
3.35013
 30
0.0
 10
-1.19944
 20
3.26052
 30
0.0
 10
-1.10261
 20
3.19297
 30
0.0
 10
-1.00065
 20
3.16633
 30
0.0
 10
-1.00065
 20
3.16633
 30
0.0
 10
-0.86995
 20
3.16351
 30
0.0
 10
-0.759
 20
3.26123
 30
0.0
 10
-0.6858
 20
3.36177
 30
0.0
 10
-0.6858
 20
3.36177
 30
0.0
 10
-0.88741
 20
3.45102
 30
0.0
 10
-1.07403
 20
3.57608
 30
0.0
 10
-1.28446
 20
3.64311
 30
0.0
 10
-1.28446
 20
3.64311
 30
0.0
 10
-1.28446
 20
3.64311
 30
0.0
 10
-1.28446
 20
3.64311
 30
0.0
 10
-1.28446
 20
3.64311
 30
0.0
  0
SPLINE
  5
4D
330
1F
100
AcDbEntity
  8
Camada 1
 62
   252
100
AcDbSpline
210
0.0
220
0.0
230
1.0
 70
    11
 71
     3
 72
    20
 73
    16
 74
     0
 42
0.0000000001
 43
0.0000000001
 12
1.0
 22
0.0
 32
0.0
 13
1.0
 23
0.0
 33
0.0
 40
0.0
 40
0.0
 40
0.0
 40
0.0
 40
0.2
 40
0.2
 40
0.2
 40
0.2
 40
0.4
 40
0.4
 40
0.4
 40
0.4
 40
0.6
 40
0.6
 40
0.6
 40
0.6
 40
1.0
 40
1.0
 40
1.0
 40
1.0
 10
-0.06421
 20
3.48207
 30
0.0
 10
-0.04092
 20
3.38541
 30
0.0
 10
0.01764
 20
3.26811
 30
0.0
 10
0.12806
 20
3.25488
 30
0.0
 10
0.12806
 20
3.25488
 30
0.0
 10
0.20814
 20
3.2547
 30
0.0
 10
0.27993
 20
3.29933
 30
0.0
 10
0.35649
 20
3.31732
 30
0.0
 10
0.35649
 20
3.31732
 30
0.0
 10
0.2316
 20
3.40499
 30
0.0
 10
0.07638
 20
3.43021
 30
0.0
 10
-0.06421
 20
3.48207
 30
0.0
 10
-0.06421
 20
3.48207
 30
0.0
 10
-0.06421
 20
3.48207
 30
0.0
 10
-0.06421
 20
3.48207
 30
0.0
 10
-0.06421
 20
3.48207
 30
0.0
  0
SPLINE
  5
4E
330
1F
100
AcDbEntity
  8
Camada 1
 62
   252
100
AcDbSpline
210
0.0
220
0.0
230
1.0
 70
    11
 71
     3
 72
    24
 73
    20
 74
     0
 42
0.0000000001
 43
0.0000000001
 12
1.0
 22
0.0
 32
0.0
 13
1.0
 23
0.0
 33
0.0
 40
0.0
 40
0.0
 40
0.0
 40
0.0
 40
0.1666666666666667
 40
0.1666666666666667
 40
0.1666666666666667
 40
0.1666666666666667
 40
0.3333333333333333
 40
0.3333333333333333
 40
0.3333333333333333
 40
0.3333333333333333
 40
0.5
 40
0.5
 40
0.5
 40
0.5
 40
0.6666666666666666
 40
0.6666666666666666
 40
0.6666666666666666
 40
0.6666666666666666
 40
1.0
 40
1.0
 40
1.0
 40
1.0
 10
-0.3265
 20
3.03281
 30
0.0
 10
-0.43215
 20
2.93844
 30
0.0
 10
-0.50306
 20
2.81179
 30
0.0
 10
-0.57273
 20
2.68991
 30
0.0
 10
-0.57273
 20
2.68991
 30
0.0
 10
-0.51135
 20
2.66539
 30
0.0
 10
-0.44909
 20
2.64263
 30
0.0
 10
-0.38576
 20
2.62323
 30
0.0
 10
-0.38576
 20
2.62323
 30
0.0
 10
-0.25929
 20
2.74706
 30
0.0
 10
-0.13582
 20
2.87406
 30
0.0
 10
-0.02364
 20
3.01111
 30
0.0
 10
-0.02364
 20
3.01111
 30
0.0
 10
-0.12047
 20
3.03669
 30
0.0
 10
-0.23089
 20
3.07779
 30
0.0
 10
-0.3265
 20
3.03281
 30
0.0
 10
-0.3265
 20
3.03281
 30
0.0
 10
-0.3265
 20
3.03281
 30
0.0
 10
-0.3265
 20
3.03281
 30
0.0
 10
-0.3265
 20
3.03281
 30
0.0
  0
SPLINE
  5
4F
330
1F
100
AcDbEntity
  8
Camada 1
 62
   252
100
AcDbSpline
210
0.0
220
0.0
230
1.0
 70
    11
 71
     3
 72
    20
 73
    16
 74
     0
 42
0.0000000001
 43
0.0000000001
 12
1.0
 22
0.0
 32
0.0
 13
1.0
 23
0.0
 33
0.0
 40
0.0
 40
0.0
 40
0.0
 40
0.0
 40
0.2
 40
0.2
 40
0.2
 40
0.2
 40
0.4
 40
0.4
 40
0.4
 40
0.4
 40
0.6
 40
0.6
 40
0.6
 40
0.6
 40
1.0
 40
1.0
 40
1.0
 40
1.0
 10
-1.67252
 20
2.83684
 30
0.0
 10
-1.50671
 20
2.72642
 30
0.0
 10
-1.30687
 20
2.66839
 30
0.0
 10
-1.10843
 20
2.66292
 30
0.0
 10
-1.10843
 20
2.66292
 30
0.0
 10
-1.1654
 20
2.77528
 30
0.0
 10
-1.279
 20
2.84954
 30
0.0
 10
-1.39347
 20
2.89311
 30
0.0
 10
-1.39347
 20
2.89311
 30
0.0
 10
-1.48996
 20
2.89769
 30
0.0
 10
-1.58362
 20
2.87123
 30
0.0
 10
-1.67252
 20
2.83684
 30
0.0
 10
-1.67252
 20
2.83684
 30
0.0
 10
-1.67252
 20
2.83684
 30
0.0
 10
-1.67252
 20
2.83684
 30
0.0
 10
-1.67252
 20
2.83684
 30
0.0
  0
SPLINE
  5
50
330
1F
100
AcDbEntity
  8
Camada 1
 62
   252
100
AcDbSpline
210
0.0
220
0.0
230
1.0
 70
    11
 71
     3
 72
    36
 73
    32
 74
     0
 42
0.0000000001
 43
0.0000000001
 12
1.0
 22
0.0
 32
0.0
 13
1.0
 23
0.0
 33
0.0
 40
0.0
 40
0.0
 40
0.0
 40
0.0
 40
0.1111111111111111
 40
0.1111111111111111
 40
0.1111111111111111
 40
0.1111111111111111
 40
0.2222222222222222
 40
0.2222222222222222
 40
0.2222222222222222
 40
0.2222222222222222
 40
0.3333333333333333
 40
0.3333333333333333
 40
0.3333333333333333
 40
0.3333333333333333
 40
0.4444444444444444
 40
0.4444444444444444
 40
0.4444444444444444
 40
0.4444444444444444
 40
0.5555555555555556
 40
0.5555555555555556
 40
0.5555555555555556
 40
0.5555555555555556
 40
0.6666666666666666
 40
0.6666666666666666
 40
0.6666666666666666
 40
0.6666666666666666
 40
0.7777777777777778
 40
0.7777777777777778
 40
0.7777777777777778
 40
0.7777777777777778
 40
1.0
 40
1.0
 40
1.0
 40
1.0
 10
-2.46768
 20
2.5465
 30
0.0
 10
-2.59098
 20
2.43397
 30
0.0
 10
-2.69752
 20
2.30467
 30
0.0
 10
-2.80476
 20
2.17732
 30
0.0
 10
-2.80476
 20
2.17732
 30
0.0
 10
-2.83475
 20
2.15492
 30
0.0
 10
-2.85309
 20
2.09777
 30
0.0
 10
-2.81358
 20
2.07537
 30
0.0
 10
-2.81358
 20
2.07537
 30
0.0
 10
-2.70686
 20
1.99352
 30
0.0
 10
-2.57828
 20
1.94519
 30
0.0
 10
-2.4481
 20
1.91538
 30
0.0
 10
-2.4481
 20
1.91538
 30
0.0
 10
-2.36643
 20
1.9108
 30
0.0
 10
-2.29235
 20
1.95913
 30
0.0
 10
-2.24137
 20
2.01963
 30
0.0
 10
-2.24137
 20
2.01963
 30
0.0
 10
-2.13642
 20
2.14733
 30
0.0
 10
-2.06781
 20
2.30326
 30
0.0
 10
-2.0357
 20
2.46519
 30
0.0
 10
-2.0357
 20
2.46519
 30
0.0
 10
-2.12531
 20
2.50999
 30
0.0
 10
-2.21103
 20
2.56344
 30
0.0
 10
-2.30417
 20
2.60065
 30
0.0
 10
-2.30417
 20
2.60065
 30
0.0
 10
-2.36379
 20
2.62658
 30
0.0
 10
-2.42341
 20
2.58266
 30
0.0
 10
-2.46768
 20
2.5465
 30
0.0
 10
-2.46768
 20
2.5465
 30
0.0
 10
-2.46768
 20
2.5465
 30
0.0
 10
-2.46768
 20
2.5465
 30
0.0
 10
-2.46768
 20
2.5465
 30
0.0
  0
SPLINE
  5
51
330
1F
100
AcDbEntity
  8
Camada 1
 62
   252
100
AcDbSpline
210
0.0
220
0.0
230
1.0
 70
    11
 71
     3
 72
   220
 73
   216
 74
     0
 42
0.0000000001
 43
0.0000000001
 12
1.0
 22
0.0
 32
0.0
 13
1.0
 23
0.0
 33
0.0
 40
0.0
 40
0.0
 40
0.0
 40
0.0
 40
0.0181818181818182
 40
0.0181818181818182
 40
0.0181818181818182
 40
0.0181818181818182
 40
0.0363636363636364
 40
0.0363636363636364
 40
0.0363636363636364
 40
0.0363636363636364
 40
0.0545454545454545
 40
0.0545454545454545
 40
0.0545454545454545
 40
0.0545454545454545
 40
0.0727272727272727
 40
0.0727272727272727
 40
0.0727272727272727
 40
0.0727272727272727
 40
0.0909090909090909
 40
0.0909090909090909
 40
0.0909090909090909
 40
0.0909090909090909
 40
0.1090909090909091
 40
0.1090909090909091
 40
0.1090909090909091
 40
0.1090909090909091
 40
0.1272727272727273
 40
0.1272727272727273
 40
0.1272727272727273
 40
0.1272727272727273
 40
0.1454545454545454
 40
0.1454545454545454
 40
0.1454545454545454
 40
0.1454545454545454
 40
0.1636363636363636
 40
0.1636363636363636
 40
0.1636363636363636
 40
0.1636363636363636
 40
0.1818181818181818
 40
0.1818181818181818
 40
0.1818181818181818
 40
0.1818181818181818
 40
0.2
 40
0.2
 40
0.2
 40
0.2
 40
0.2181818181818182
 40
0.2181818181818182
 40
0.2181818181818182
 40
0.2181818181818182
 40
0.2363636363636364
 40
0.2363636363636364
 40
0.2363636363636364
 40
0.2363636363636364
 40
0.2545454545454545
 40
0.2545454545454545
 40
0.2545454545454545
 40
0.2545454545454545
 40
0.2727272727272727
 40
0.2727272727272727
 40
0.2727272727272727
 40
0.2727272727272727
 40
0.2909090909090909
 40
0.2909090909090909
 40
0.2909090909090909
 40
0.2909090909090909
 40
0.3090909090909091
 40
0.3090909090909091
 40
0.3090909090909091
 40
0.3090909090909091
 40
0.3272727272727273
 40
0.3272727272727273
 40
0.3272727272727273
 40
0.3272727272727273
 40
0.3454545454545455
 40
0.3454545454545455
 40
0.3454545454545455
 40
0.3454545454545455
 40
0.3636363636363636
 40
0.3636363636363636
 40
0.3636363636363636
 40
0.3636363636363636
 40
0.3818181818181818
 40
0.3818181818181818
 40
0.3818181818181818
 40
0.3818181818181818
 40
0.4
 40
0.4
 40
0.4
 40
0.4
 40
0.4181818181818182
 40
0.4181818181818182
 40
0.4181818181818182
 40
0.4181818181818182
 40
0.4363636363636363
 40
0.4363636363636363
 40
0.4363636363636363
 40
0.4363636363636363
 40
0.4545454545454545
 40
0.4545454545454545
 40
0.4545454545454545
 40
0.4545454545454545
 40
0.4727272727272727
 40
0.4727272727272727
 40
0.4727272727272727
 40
0.4727272727272727
 40
0.4909090909090909
 40
0.4909090909090909
 40
0.4909090909090909
 40
0.4909090909090909
 40
0.509090909090909
 40
0.509090909090909
 40
0.509090909090909
 40
0.509090909090909
 40
0.5272727272727272
 40
0.5272727272727272
 40
0.5272727272727272
 40
0.5272727272727272
 40
0.5454545454545454
 40
0.5454545454545454
 40
0.5454545454545454
 40
0.5454545454545454
 40
0.5636363636363636
 40
0.5636363636363636
 40
0.5636363636363636
 40
0.5636363636363636
 40
0.5818181818181818
 40
0.5818181818181818
 40
0.5818181818181818
 40
0.5818181818181818
 40
0.6
 40
0.6
 40
0.6
 40
0.6
 40
0.6181818181818182
 40
0.6181818181818182
 40
0.6181818181818182
 40
0.6181818181818182
 40
0.6363636363636364
 40
0.6363636363636364
 40
0.6363636363636364
 40
0.6363636363636364
 40
0.6545454545454545
 40
0.6545454545454545
 40
0.6545454545454545
 40
0.6545454545454545
 40
0.6727272727272727
 40
0.6727272727272727
 40
0.6727272727272727
 40
0.6727272727272727
 40
0.6909090909090909
 40
0.6909090909090909
 40
0.6909090909090909
 40
0.6909090909090909
 40
0.7090909090909091
 40
0.7090909090909091
 40
0.7090909090909091
 40
0.7090909090909091
 40
0.7272727272727273
 40
0.7272727272727273
 40
0.7272727272727273
 40
0.7272727272727273
 40
0.7454545454545455
 40
0.7454545454545455
 40
0.7454545454545455
 40
0.7454545454545455
 40
0.7636363636363637
 40
0.7636363636363637
 40
0.7636363636363637
 40
0.7636363636363637
 40
0.7818181818181819
 40
0.7818181818181819
 40
0.7818181818181819
 40
0.7818181818181819
 40
0.8
 40
0.8
 40
0.8
 40
0.8
 40
0.8181818181818182
 40
0.8181818181818182
 40
0.8181818181818182
 40
0.8181818181818182
 40
0.8363636363636363
 40
0.8363636363636363
 40
0.8363636363636363
 40
0.8363636363636363
 40
0.8545454545454545
 40
0.8545454545454545
 40
0.8545454545454545
 40
0.8545454545454545
 40
0.8727272727272727
 40
0.8727272727272727
 40
0.8727272727272727
 40
0.8727272727272727
 40
0.8909090909090909
 40
0.8909090909090909
 40
0.8909090909090909
 40
0.8909090909090909
 40
0.9090909090909091
 40
0.9090909090909091
 40
0.9090909090909091
 40
0.9090909090909091
 40
0.9272727272727272
 40
0.9272727272727272
 40
0.9272727272727272
 40
0.9272727272727272
 40
0.9454545454545454
 40
0.9454545454545454
 40
0.9454545454545454
 40
0.9454545454545454
 40
0.9636363636363636
 40
0.9636363636363636
 40
0.9636363636363636
 40
0.9636363636363636
 40
1.0
 40
1.0
 40
1.0
 40
1.0
 10
1.11126
 20
2.54103
 30
0.0
 10
1.12007
 20
2.49482
 30
0.0
 10
1.12978
 20
2.44825
 30
0.0
 10
1.15077
 20
2.40574
 30
0.0
 10
1.15077
 20
2.40574
 30
0.0
 10
1.25501
 20
2.19461
 30
0.0
 10
1.35538
 20
1.97941
 30
0.0
 10
1.41094
 20
1.7494
 30
0.0
 10
1.41094
 20
1.7494
 30
0.0
 10
1.53335
 20
1.25551
 30
0.0
 10
1.47567
 20
0.73869
 30
0.0
 10
1.57833
 20
0.24145
 30
0.0
 10
1.57833
 20
0.24145
 30
0.0
 10
1.66071
 20
-0.18171
 30
0.0
 10
1.84891
 20
-0.57647
 30
0.0
 10
2.07116
 20
-0.943
 30
0.0
 10
2.07116
 20
-0.943
 30
0.0
 10
2.17382
 20
-1.11692
 30
0.0
 10
2.30805
 20
-1.26862
 30
0.0
 10
2.44352
 20
-1.41731
 30
0.0
 10
2.44352
 20
-1.41731
 30
0.0
 10
2.72204
 20
-1.72317
 30
0.0
 10
2.98697
 20
-2.05214
 30
0.0
 10
3.15719
 20
-2.4319
 30
0.0
 10
3.15719
 20
-2.4319
 30
0.0
 10
3.22016
 20
-2.56913
 30
0.0
 10
3.21452
 20
-2.72242
 30
0.0
 10
3.19388
 20
-2.86882
 30
0.0
 10
3.19388
 20
-2.86882
 30
0.0
 10
3.02225
 20
-2.74323
 30
0.0
 10
2.91748
 20
-2.5485
 30
0.0
 10
2.75044
 20
-2.41814
 30
0.0
 10
2.75044
 20
-2.41814
 30
0.0
 10
2.80194
 20
-2.59348
 30
0.0
 10
2.89525
 20
-2.75452
 30
0.0
 10
2.92577
 20
-2.93708
 30
0.0
 10
2.92577
 20
-2.93708
 30
0.0
 10
2.85204
 20
-2.96442
 30
0.0
 10
2.77848
 20
-2.99141
 30
0.0
 10
2.70369
 20
-3.01593
 30
0.0
 10
2.70369
 20
-3.01593
 30
0.0
 10
2.60686
 20
-2.866
 30
0.0
 10
2.53313
 20
-2.70107
 30
0.0
 10
2.42059
 20
-2.56155
 30
0.0
 10
2.42059
 20
-2.56155
 30
0.0
 10
2.45322
 20
-2.76951
 30
0.0
 10
2.53418
 20
-2.96495
 30
0.0
 10
2.58428
 20
-3.16868
 30
0.0
 10
2.58428
 20
-3.16868
 30
0.0
 10
2.50385
 20
-3.21613
 30
0.0
 10
2.42324
 20
-3.26375
 30
0.0
 10
2.33769
 20
-3.3015
 30
0.0
 10
2.33769
 20
-3.3015
 30
0.0
 10
2.20522
 20
-3.12476
 30
0.0
 10
2.11385
 20
-2.91785
 30
0.0
 10
1.96251
 20
-2.75558
 30
0.0
 10
1.96251
 20
-2.75558
 30
0.0
 10
1.97874
 20
-2.88752
 30
0.0
 10
2.03977
 20
-3.01064
 30
0.0
 10
2.03906
 20
-3.1454
 30
0.0
 10
2.03906
 20
-3.1454
 30
0.0
 10
2.04541
 20
-3.2537
 30
0.0
 10
2.03818
 20
-3.38405
 30
0.0
 10
1.94064
 20
-3.45231
 30
0.0
 10
1.94064
 20
-3.45231
 30
0.0
 10
1.82193
 20
-3.2156
 30
0.0
 10
1.69757
 20
-2.96372
 30
0.0
 10
1.48273
 20
-2.80056
 30
0.0
 10
1.48273
 20
-2.80056
 30
0.0
 10
1.50831
 20
-2.99247
 30
0.0
 10
1.62702
 20
-3.15598
 30
0.0
 10
1.65894
 20
-3.34648
 30
0.0
 10
1.65894
 20
-3.34648
 30
0.0
 10
1.68558
 20
-3.44279
 30
0.0
 10
1.66476
 20
-3.54333
 30
0.0
 10
1.65189
 20
-3.6407
 30
0.0
 10
1.65189
 20
-3.6407
 30
0.0
 10
1.40247
 20
-3.5301
 30
0.0
 10
1.28676
 20
-3.26569
 30
0.0
 10
1.11849
 20
-3.06849
 30
0.0
 10
1.11849
 20
-3.06849
 30
0.0
 10
1.12731
 20
-3.32267
 30
0.0
 10
1.22714
 20
-3.56326
 30
0.0
 10
1.23702
 20
-3.81761
 30
0.0
 10
1.23702
 20
-3.81761
 30
0.0
 10
1.15465
 20
-3.82061
 30
0.0
 10
1.07192
 20
-3.82132
 30
0.0
 10
0.99008
 20
-3.82414
 30
0.0
 10
0.99008
 20
-3.82414
 30
0.0
 10
0.6791
 20
-3.35618
 30
0.0
 10
0.45632
 20
-2.83266
 30
0.0
 10
0.32033
 20
-2.28797
 30
0.0
 10
0.32033
 20
-2.28797
 30
0.0
 10
0.15629
 20
-1.66144
 30
0.0
 10
0.19139
 20
-1.00562
 30
0.0
 10
0.2152
 20
-0.36498
 30
0.0
 10
0.2152
 20
-0.36498
 30
0.0
 10
0.22596
 20
0.15467
 30
0.0
 10
0.44856
 20
0.64732
 30
0.0
 10
0.42775
 20
1.16943
 30
0.0
 10
0.42775
 20
1.16943
 30
0.0
 10
0.42951
 20
1.46365
 30
0.0
 10
0.3803
 20
1.76034
 30
0.0
 10
0.26723
 20
2.03286
 30
0.0
 10
0.26723
 20
2.03286
 30
0.0
 10
0.20903
 20
2.16409
 30
0.0
 10
0.12436
 20
2.28739
 30
0.0
 10
0.00124
 20
2.36517
 30
0.0
 10
0.00124
 20
2.36517
 30
0.0
 10
0.09543
 20
2.08348
 30
0.0
 10
0.26512
 20
1.82842
 30
0.0
 10
0.3101
 20
1.5298
 30
0.0
 10
0.3101
 20
1.5298
 30
0.0
 10
0.40076
 20
0.95477
 30
0.0
 10
0.20991
 20
0.39191
 30
0.0
 10
0.12542
 20
-0.17113
 30
0.0
 10
0.12542
 20
-0.17113
 30
0.0
 10
0.05892
 20
-0.53766
 30
0.0
 10
0.06633
 20
-0.91161
 30
0.0
 10
0.07815
 20
-1.2822
 30
0.0
 10
0.07815
 20
-1.2822
 30
0.0
 10
0.10813
 20
-1.96271
 30
0.0
 10
0.28346
 20
-2.62346
 30
0.0
 10
0.45844
 20
-3.27822
 30
0.0
 10
0.45844
 20
-3.27822
 30
0.0
 10
0.56692
 20
-3.60083
 30
0.0
 10
0.69004
 20
-3.9275
 30
0.0
 10
0.90347
 20
-4.19738
 30
0.0
 10
0.90347
 20
-4.19738
 30
0.0
 10
1.08003
 20
-4.18556
 30
0.0
 10
1.25413
 20
-4.15363
 30
0.0
 10
1.42911
 20
-4.12929
 30
0.0
 10
1.42911
 20
-4.12929
 30
0.0
 10
1.41694
 20
-4.00758
 30
0.0
 10
1.39806
 20
-3.88658
 30
0.0
 10
1.39083
 20
-3.76452
 30
0.0
 10
1.39083
 20
-3.76452
 30
0.0
 10
1.4374
 20
-3.75394
 30
0.0
 10
1.48255
 20
-3.74159
 30
0.0
 10
1.53
 20
-3.73277
 30
0.0
 10
1.53
 20
-3.73277
 30
0.0
 10
1.59721
 20
-3.82943
 30
0.0
 10
1.66723
 20
-3.92468
 30
0.0
 10
1.74872
 20
-4.01005
 30
0.0
 10
1.74872
 20
-4.01005
 30
0.0
 10
1.77765
 20
-3.98871
 30
0.0
 10
1.80623
 20
-3.96719
 30
0.0
 10
1.8348
 20
-3.9455
 30
0.0
 10
1.8348
 20
-3.9455
 30
0.0
 10
1.81628
 20
-3.83102
 30
0.0
 10
1.78612
 20
-3.71548
 30
0.0
 10
1.80958
 20
-3.59889
 30
0.0
 10
1.80958
 20
-3.59889
 30
0.0
 10
1.91418
 20
-3.65587
 30
0.0
 10
1.99479
 20
-3.74565
 30
0.0
 10
2.08739
 20
-3.8192
 30
0.0
 10
2.08739
 20
-3.8192
 30
0.0
 10
2.11808
 20
-3.66539
 30
0.0
 10
2.12143
 20
-3.5077
 30
0.0
 10
2.14119
 20
-3.35265
 30
0.0
 10
2.14119
 20
-3.35265
 30
0.0
 10
2.20945
 20
-3.41174
 30
0.0
 10
2.27013
 20
-3.47912
 30
0.0
 10
2.33398
 20
-3.54315
 30
0.0
 10
2.33398
 20
-3.54315
 30
0.0
 10
2.44405
 20
-3.46554
 30
0.0
 10
2.55323
 20
-3.38652
 30
0.0
 10
2.66418
 20
-3.30997
 30
0.0
 10
2.66418
 20
-3.30997
 30
0.0
 10
2.66789
 20
-3.25405
 30
0.0
 10
2.66753
 20
-3.19284
 30
0.0
 10
2.67335
 20
-3.13869
 30
0.0
 10
2.67335
 20
-3.13869
 30
0.0
 10
2.73932
 20
-3.16533
 30
0.0
 10
2.80247
 20
-3.19867
 30
0.0
 10
2.86509
 20
-3.23236
 30
0.0
 10
2.86509
 20
-3.23236
 30
0.0
 10
2.90883
 20
-3.18826
 30
0.0
 10
2.97657
 20
-3.16321
 30
0.0
 10
3.00426
 20
-3.10465
 30
0.0
 10
3.00426
 20
-3.10465
 30
0.0
 10
3.02349
 20
-3.04503
 30
0.0
 10
3.01449
 20
-2.97959
 30
0.0
 10
3.02102
 20
-2.91856
 30
0.0
 10
3.02102
 20
-2.91856
 30
0.0
 10
3.09157
 20
-2.95613
 30
0.0
 10
3.15895
 20
-2.99952
 30
0.0
 10
3.22898
 20
-3.03833
 30
0.0
 10
3.22898
 20
-3.03833
 30
0.0
 10
3.37485
 20
-2.8891
 30
0.0
 10
3.36427
 20
-2.66509
 30
0.0
 10
3.30253
 20
-2.48164
 30
0.0
 10
3.30253
 20
-2.48164
 30
0.0
 10
3.12861
 20
-2.04896
 30
0.0
 10
2.81817
 20
-1.69283
 30
0.0
 10
2.50984
 20
-1.35064
 30
0.0
 10
2.50984
 20
-1.35064
 30
0.0
 10
2.26255
 20
-1.10352
 30
0.0
 10
2.06975
 20
-0.8063
 30
0.0
 10
1.926
 20
-0.48845
 30
0.0
 10
1.926
 20
-0.48845
 30
0.0
 10
1.66018
 20
0.05783
 30
0.0
 10
1.55276
 20
0.67114
 30
0.0
 10
1.55152
 20
1.27544
 30
0.0
 10
1.55152
 20
1.27544
 30
0.0
 10
1.54764
 20
1.57054
 30
0.0
 10
1.4949
 20
1.8667
 30
0.0
 10
1.37813
 20
2.13851
 30
0.0
 10
1.37813
 20
2.13851
 30
0.0
 10
1.31199
 20
2.28562
 30
0.0
 10
1.23596
 20
2.4345
 30
0.0
 10
1.11126
 20
2.54103
 30
0.0
 10
1.11126
 20
2.54103
 30
0.0
 10
1.11126
 20
2.54103
 30
0.0
 10
1.11126
 20
2.54103
 30
0.0
 10
1.11126
 20
2.54103
 30
0.0
  0
SPLINE
  5
52
330
1F
100
AcDbEntity
  8
Camada 1
 62
   252
100
AcDbSpline
210
0.0
220
0.0
230
1.0
 70
    11
 71
     3
 72
    24
 73
    20
 74
     0
 42
0.0000000001
 43
0.0000000001
 12
1.0
 22
0.0
 32
0.0
 13
1.0
 23
0.0
 33
0.0
 40
0.0
 40
0.0
 40
0.0
 40
0.0
 40
0.1666666666666667
 40
0.1666666666666667
 40
0.1666666666666667
 40
0.1666666666666667
 40
0.3333333333333333
 40
0.3333333333333333
 40
0.3333333333333333
 40
0.3333333333333333
 40
0.5
 40
0.5
 40
0.5
 40
0.5
 40
0.6666666666666666
 40
0.6666666666666666
 40
0.6666666666666666
 40
0.6666666666666666
 40
1.0
 40
1.0
 40
1.0
 40
1.0
 10
-1.40741
 20
2.27257
 30
0.0
 10
-1.33897
 20
2.13587
 30
0.0
 10
-1.28852
 20
1.92314
 30
0.0
 10
-1.09467
 20
1.93567
 30
0.0
 10
-1.09467
 20
1.93567
 30
0.0
 10
-0.93169
 20
1.97765
 30
0.0
 10
-0.79058
 20
2.06919
 30
0.0
 10
-0.65123
 20
2.15933
 30
0.0
 10
-0.65123
 20
2.15933
 30
0.0
 10
-0.65105
 20
2.18032
 30
0.0
 10
-0.6507
 20
2.20113
 30
0.0
 10
-0.65035
 20
2.22177
 30
0.0
 10
-0.65035
 20
2.22177
 30
0.0
 10
-0.90382
 20
2.21366
 30
0.0
 10
-1.15517
 20
2.25634
 30
0.0
 10
-1.40741
 20
2.27257
 30
0.0
 10
-1.40741
 20
2.27257
 30
0.0
 10
-1.40741
 20
2.27257
 30
0.0
 10
-1.40741
 20
2.27257
 30
0.0
 10
-1.40741
 20
2.27257
 30
0.0
  0
SPLINE
  5
53
330
1F
100
AcDbEntity
  8
Camada 1
 62
   252
100
AcDbSpline
210
0.0
220
0.0
230
1.0
 70
    11
 71
     3
 72
    28
 73
    24
 74
     0
 42
0.0000000001
 43
0.0000000001
 12
1.0
 22
0.0
 32
0.0
 13
1.0
 23
0.0
 33
0.0
 40
0.0
 40
0.0
 40
0.0
 40
0.0
 40
0.1428571428571428
 40
0.1428571428571428
 40
0.1428571428571428
 40
0.1428571428571428
 40
0.2857142857142857
 40
0.2857142857142857
 40
0.2857142857142857
 40
0.2857142857142857
 40
0.4285714285714285
 40
0.4285714285714285
 40
0.4285714285714285
 40
0.4285714285714285
 40
0.5714285714285714
 40
0.5714285714285714
 40
0.5714285714285714
 40
0.5714285714285714
 40
0.7142857142857143
 40
0.7142857142857143
 40
0.7142857142857143
 40
0.7142857142857143
 40
1.0
 40
1.0
 40
1.0
 40
1.0
 10
0.86484
 20
0.14761
 30
0.0
 10
0.76395
 20
0.1268
 30
0.0
 10
0.66464
 20
0.05466
 30
0.0
 10
0.64153
 20
-0.04977
 30
0.0
 10
0.64153
 20
-0.04977
 30
0.0
 10
0.58015
 20
-0.31629
 30
0.0
 10
0.59426
 20
-0.59464
 30
0.0
 10
0.62689
 20
-0.86433
 30
0.0
 10
0.62689
 20
-0.86433
 30
0.0
 10
0.89306
 20
-0.70594
 30
0.0
 10
1.17176
 20
-0.56941
 30
0.0
 10
1.46738
 20
-0.47575
 30
0.0
 10
1.46738
 20
-0.47575
 30
0.0
 10
1.40388
 20
-0.25685
 30
0.0
 10
1.34779
 20
-0.03584
 30
0.0
 10
1.28888
 20
0.18413
 30
0.0
 10
1.28888
 20
0.18413
 30
0.0
 10
1.14706
 20
0.17725
 30
0.0
 10
1.00454
 20
0.17478
 30
0.0
 10
0.86484
 20
0.14761
 30
0.0
 10
0.86484
 20
0.14761
 30
0.0
 10
0.86484
 20
0.14761
 30
0.0
 10
0.86484
 20
0.14761
 30
0.0
 10
0.86484
 20
0.14761
 30
0.0
  0
SPLINE
  5
54
330
1F
100
AcDbEntity
  8
Camada 1
 62
   252
100
AcDbSpline
210
0.0
220
0.0
230
1.0
 70
    11
 71
     3
 72
    28
 73
    24
 74
     0
 42
0.0000000001
 43
0.0000000001
 12
1.0
 22
0.0
 32
0.0
 13
1.0
 23
0.0
 33
0.0
 40
0.0
 40
0.0
 40
0.0
 40
0.0
 40
0.1428571428571428
 40
0.1428571428571428
 40
0.1428571428571428
 40
0.1428571428571428
 40
0.2857142857142857
 40
0.2857142857142857
 40
0.2857142857142857
 40
0.2857142857142857
 40
0.4285714285714285
 40
0.4285714285714285
 40
0.4285714285714285
 40
0.4285714285714285
 40
0.5714285714285714
 40
0.5714285714285714
 40
0.5714285714285714
 40
0.5714285714285714
 40
0.7142857142857143
 40
0.7142857142857143
 40
0.7142857142857143
 40
0.7142857142857143
 40
1.0
 40
1.0
 40
1.0
 40
1.0
 10
1.23896
 20
-1.51292
 30
0.0
 10
1.03858
 20
-1.58559
 30
0.0
 10
0.8756
 20
-1.72829
 30
0.0
 10
0.71879
 20
-1.86781
 30
0.0
 10
0.71879
 20
-1.86781
 30
0.0
 10
0.72585
 20
-2.06025
 30
0.0
 10
0.77329
 20
-2.24687
 30
0.0
 10
0.85091
 20
-2.42255
 30
0.0
 10
0.85091
 20
-2.42255
 30
0.0
 10
1.1296
 20
-2.27368
 30
0.0
 10
1.40706
 20
-2.11864
 30
0.0
 10
1.70657
 20
-2.01439
 30
0.0
 10
1.70657
 20
-2.01439
 30
0.0
 10
1.86232
 20
-1.94966
 30
0.0
 10
2.02954
 20
-1.91755
 30
0.0
 10
2.18405
 20
-1.85017
 30
0.0
 10
2.18405
 20
-1.85017
 30
0.0
 10
2.06428
 20
-1.68772
 30
0.0
 10
1.96921
 20
-1.49122
 30
0.0
 10
1.796
 20
-1.37992
 30
0.0
 10
1.796
 20
-1.37992
 30
0.0
 10
1.60426
 20
-1.38151
 30
0.0
 10
1.41623
 20
-1.4443
 30
0.0
 10
1.23896
 20
-1.51292
 30
0.0
  0
ENDSEC
  0
SECTION
  2
OBJECTS
  0
DICTIONARY
  5
C
330
0
100
AcDbDictionary
281
     1
  3
ACAD_GROUP
350
D
  3
ACAD_LAYOUT
350
1A
  3
ACAD_MATERIAL
350
3B
  3
ACAD_MLEADERSTYLE
350
7C
  3
ACAD_MLINESTYLE
350
17
  3
ACAD_PLOTSETTINGS
350
19
  3
ACAD_PLOTSTYLENAME
350
E
  3
ACAD_TABLESTYLE
350
7B
  3
ACAD_VISUALSTYLE
350
2A
  0
DICTIONARY
  5
D
102
{ACAD_REACTORS
330
C
102
}
330
C
100
AcDbDictionary
281
     1
  0
DICTIONARY
  5
1A
102
{ACAD_REACTORS
330
C
102
}
330
C
100
AcDbDictionary
281
     1
  3
Layout1
350
1E
  3
Layout2
350
26
  3
Model
350
22
  0
DICTIONARY
  5
3B
102
{ACAD_REACTORS
330
C
102
}
330
C
100
AcDbDictionary
281
     1
  3
ByBlock
350
3D
  3
ByLayer
350
3C
  3
Global
350
3E
  0
DICTIONARY
  5
7C
102
{ACAD_REACTORS
330
C
102
}
330
C
100
AcDbDictionary
281
     1
  0
DICTIONARY
  5
17
102
{ACAD_REACTORS
330
C
102
}
330
C
100
AcDbDictionary
281
     1
  3
Standard
350
18
  0
DICTIONARY
  5
19
102
{ACAD_REACTORS
330
C
102
}
330
C
100
AcDbDictionary
281
     1
  0
ACDBDICTIONARYWDFLT
  5
E
102
{ACAD_REACTORS
330
C
102
}
330
C
100
AcDbDictionary
281
     1
  3
Normal
350
F
100
AcDbDictionaryWithDefault
340
F
  0
DICTIONARY
  5
7B
102
{ACAD_REACTORS
330
C
102
}
330
C
100
AcDbDictionary
281
     1
  0
DICTIONARY
  5
2A
102
{ACAD_REACTORS
330
C
102
}
330
C
100
AcDbDictionary
281
     1
  3
2dWireframe
350
2F
  3
3D Hidden
350
31
  3
3dWireframe
350
30
  3
Basic
350
32
  3
Brighten
350
36
  3
ColorChange
350
3A
  3
Conceptual
350
34
  3
Dim
350
35
  3
Facepattern
350
39
  3
Flat
350
2B
  3
FlatWithEdges
350
2C
  3
Gouraud
350
2D
  3
GouraudWithEdges
350
2E
  3
Linepattern
350
38
  3
Realistic
350
33
  3
Thicken
350
37
  0
LAYOUT
  5
1E
102
{ACAD_REACTORS
330
1A
102
}
330
1A
100
AcDbPlotSettings
  1

  2
none_device
  4

  6

 40
0.0
 41
0.0
 42
0.0
 43
0.0
 44
0.0
 45
0.0
 46
0.0
 47
0.0
 48
0.0
 49
0.0
140
0.0
141
0.0
142
1.0
143
1.0
 70
   688
 72
     0
 73
     0
 74
     5
  7

 75
    16
 76
     0
 77
     2
 78
   300
147
1.0
148
0.0
149
0.0
100
AcDbLayout
  1
Layout1
 70
     1
 71
     1
 10
0.0
 20
0.0
 11
12.0
 21
9.0
 12
0.0
 22
0.0
 32
0.0
 14
1.000000000000000E+20
 24
1.000000000000000E+20
 34
1.000000000000000E+20
 15
-1.000000000000000E+20
 25
-1.000000000000000E+20
 35
-1.000000000000000E+20
146
0.0
 13
0.0
 23
0.0
 33
0.0
 16
1.0
 26
0.0
 36
0.0
 17
0.0
 27
1.0
 37
0.0
 76
     0
330
1B
  0
LAYOUT
  5
26
102
{ACAD_REACTORS
330
1A
102
}
330
1A
100
AcDbPlotSettings
  1

  2
none_device
  4

  6

 40
0.0
 41
0.0
 42
0.0
 43
0.0
 44
0.0
 45
0.0
 46
0.0
 47
0.0
 48
0.0
 49
0.0
140
0.0
141
0.0
142
1.0
143
1.0
 70
   688
 72
     0
 73
     0
 74
     5
  7

 75
    16
 76
     0
 77
     2
 78
   300
147
1.0
148
0.0
149
0.0
100
AcDbLayout
  1
Layout2
 70
     1
 71
     2
 10
0.0
 20
0.0
 11
0.0
 21
0.0
 12
0.0
 22
0.0
 32
0.0
 14
0.0
 24
0.0
 34
0.0
 15
0.0
 25
0.0
 35
0.0
146
0.0
 13
0.0
 23
0.0
 33
0.0
 16
1.0
 26
0.0
 36
0.0
 17
0.0
 27
1.0
 37
0.0
 76
     0
330
23
  0
LAYOUT
  5
22
102
{ACAD_REACTORS
330
1A
102
}
330
1A
100
AcDbPlotSettings
  1

  2
none_device
  4

  6

 40
0.0
 41
0.0
 42
0.0
 43
0.0
 44
0.0
 45
0.0
 46
0.0
 47
0.0
 48
0.0
 49
0.0
140
0.0
141
0.0
142
1.0
143
1.0
 70
  1712
 72
     0
 73
     0
 74
     0
  7

 75
     0
 76
     0
 77
     2
 78
   300
147
1.0
148
0.0
149
0.0
100
AcDbLayout
  1
Model
 70
     1
 71
     0
 10
0.0
 20
0.0
 11
12.0
 21
9.0
 12
0.0
 22
0.0
 32
0.0
 14
-4.4009
 24
-6.41875
 34
0.0
 15
4.62316
 25
9.50036
 35
0.0
146
0.0
 13
0.0
 23
0.0
 33
0.0
 16
1.0
 26
0.0
 36
0.0
 17
0.0
 27
1.0
 37
0.0
 76
     0
330
1F
331
29
  0
MATERIAL
  5
3D
102
{ACAD_REACTORS
330
3B
102
}
102
{ACAD_XDICTIONARY
360
77
102
}
330
3B
100
AcDbMaterial
  1
ByBlock
  0
MATERIAL
  5
3C
102
{ACAD_REACTORS
330
3B
102
}
102
{ACAD_XDICTIONARY
360
75
102
}
330
3B
100
AcDbMaterial
  1
ByLayer
  0
MATERIAL
  5
3E
102
{ACAD_REACTORS
330
3B
102
}
102
{ACAD_XDICTIONARY
360
79
102
}
330
3B
100
AcDbMaterial
  1
Global
  0
MLINESTYLE
  5
18
102
{ACAD_REACTORS
330
17
102
}
330
17
100
AcDbMlineStyle
  2
Standard
 70
     0
  3

 62
   256
 51
90.0
 52
90.0
 71
     2
 49
0.5
 62
   256
  6
BYLAYER
 49
-0.5
 62
   256
  6
BYLAYER
  0
ACDBPLACEHOLDER
  5
F
102
{ACAD_REACTORS
330
E
102
}
330
E
  0
VISUALSTYLE
  5
2F
102
{ACAD_REACTORS
330
2A
102
}
102
{ACAD_XDICTIONARY
360
5D
102
}
330
2A
100
AcDbVisualStyle
  2
2dWireframe
 70
     4
 71
     0
 72
     2
 73
     0
 90
        0
 40
-0.6
 41
-30.0
 62
     5
 63
     7
421
 16777215
 74
     1
 91
        4
 64
     7
 65
   257
 75
     1
175
     1
 42
1.0
 92
        0
 66
   257
 43
1.0
 76
     1
 77
     6
 78
     2
 67
     7
 79
     5
170
     0
171
     0
290
     0
174
     0
 93
        1
 44
0.0
173
     0
291
     0
 45
0.0
1001
ACAD
1000
AcDbSavedByObjectVersion
1070
     0
  0
VISUALSTYLE
  5
31
102
{ACAD_REACTORS
330
2A
102
}
102
{ACAD_XDICTIONARY
360
61
102
}
330
2A
100
AcDbVisualStyle
  2
3D Hidden
 70
     6
 71
     1
 72
     2
 73
     2
 90
        0
 40
-0.6
 41
-30.0
 62
     5
 63
     7
421
 16777215
 74
     2
 91
        2
 64
     7
 65
   257
 75
     2
175
     1
 42
40.0
 92
        0
 66
   257
 43
1.0
 76
     1
 77
     6
 78
     2
 67
     7
 79
     3
170
     0
171
     0
290
     0
174
     0
 93
        1
 44
0.0
173
     0
291
     0
 45
0.0
1001
ACAD
1000
AcDbSavedByObjectVersion
1070
     0
  0
VISUALSTYLE
  5
30
102
{ACAD_REACTORS
330
2A
102
}
102
{ACAD_XDICTIONARY
360
5F
102
}
330
2A
100
AcDbVisualStyle
  2
3dWireframe
 70
     5
 71
     0
 72
     2
 73
     0
 90
        0
 40
-0.6
 41
-30.0
 62
     5
 63
     7
421
 16777215
 74
     1
 91
        4
 64
     7
 65
   257
 75
     1
175
     1
 42
1.0
 92
        0
 66
   257
 43
1.0
 76
     1
 77
     6
 78
     2
 67
     7
 79
     5
170
     0
171
     0
290
     0
174
     0
 93
        1
 44
0.0
173
     0
291
     0
 45
0.0
1001
ACAD
1000
AcDbSavedByObjectVersion
1070
     0
  0
VISUALSTYLE
  5
32
102
{ACAD_REACTORS
330
2A
102
}
102
{ACAD_XDICTIONARY
360
63
102
}
330
2A
100
AcDbVisualStyle
  2
Basic
 70
     7
 71
     1
 72
     0
 73
     1
 90
        0
 40
-0.6
 41
-30.0
 62
     5
 63
     7
421
 16777215
 74
     0
 91
        4
 64
     7
 65
   257
 75
     1
175
     1
 42
1.0
 92
        8
 66
     7
 43
1.0
 76
     1
 77
     6
 78
     2
 67
     7
 79
     5
170
     0
171
     0
290
     0
174
     0
 93
        1
 44
0.0
173
     0
291
     1
 45
0.0
1001
ACAD
1000
AcDbSavedByObjectVersion
1070
     0
  0
VISUALSTYLE
  5
36
102
{ACAD_REACTORS
330
2A
102
}
102
{ACAD_XDICTIONARY
360
6B
102
}
330
2A
100
AcDbVisualStyle
  2
Brighten
 70
    12
 71
     2
 72
     2
 73
     0
 90
        0
 40
-0.6
 41
-30.0
 62
     5
 63
     7
421
 16777215
 74
     1
 91
        4
 64
     7
 65
   257
 75
     1
175
     1
 42
1.0
 92
        8
 66
     7
 43
1.0
 76
     1
 77
     6
 78
     2
 67
     7
 79
     5
170
     0
171
     0
290
     0
174
     0
 93
        1
 44
50.0
173
     0
291
     1
 45
0.0
1001
ACAD
1000
AcDbSavedByObjectVersion
1070
     0
  0
VISUALSTYLE
  5
3A
102
{ACAD_REACTORS
330
2A
102
}
102
{ACAD_XDICTIONARY
360
73
102
}
330
2A
100
AcDbVisualStyle
  2
ColorChange
 70
    16
 71
     2
 72
     2
 73
     3
 90
        0
 40
-0.6
 41
-30.0
 62
     5
 63
     8
421
  8421504
 74
     1
 91
        4
 64
     7
 65
   257
 75
     1
175
     1
 42
1.0
 92
        8
 66
     8
424
  8421504
 43
1.0
 76
     1
 77
     6
 78
     2
 67
     7
 79
     5
170
     0
171
     0
290
     0
174
     0
 93
        1
 44
0.0
173
     0
291
     1
 45
0.0
1001
ACAD
1000
AcDbSavedByObjectVersion
1070
     0
  0
VISUALSTYLE
  5
34
102
{ACAD_REACTORS
330
2A
102
}
102
{ACAD_XDICTIONARY
360
67
102
}
330
2A
100
AcDbVisualStyle
  2
Conceptual
 70
     9
 71
     3
 72
     2
 73
     0
 90
        0
 40
-0.6
 41
-30.0
 62
     5
 63
     7
421
 16777215
 74
     2
 91
        2
 64
     7
 65
   257
 75
     1
175
     1
 42
40.0
 92
        8
 66
     7
 43
1.0
 76
     1
 77
     6
 78
     2
 67
     7
 79
     3
170
     0
171
     0
290
     0
174
     0
 93
        1
 44
0.0
173
     0
291
     0
 45
0.0
1001
ACAD
1000
AcDbSavedByObjectVersion
1070
     0
  0
VISUALSTYLE
  5
35
102
{ACAD_REACTORS
330
2A
102
}
102
{ACAD_XDICTIONARY
360
69
102
}
330
2A
100
AcDbVisualStyle
  2
Dim
 70
    11
 71
     2
 72
     2
 73
     0
 90
        0
 40
-0.6
 41
-30.0
 62
     5
 63
     7
421
 16777215
 74
     1
 91
        4
 64
     7
 65
   257
 75
     1
175
     1
 42
1.0
 92
        8
 66
     7
 43
1.0
 76
     1
 77
     6
 78
     2
 67
     7
 79
     5
170
     0
171
     0
290
     0
174
     0
 93
        1
 44
-50.0
173
     0
291
     1
 45
0.0
1001
ACAD
1000
AcDbSavedByObjectVersion
1070
     0
  0
VISUALSTYLE
  5
39
102
{ACAD_REACTORS
330
2A
102
}
102
{ACAD_XDICTIONARY
360
71
102
}
330
2A
100
AcDbVisualStyle
  2
Facepattern
 70
    15
 71
     2
 72
     2
 73
     0
 90
        0
 40
-0.6
 41
-30.0
 62
     5
 63
     7
421
 16777215
 74
     1
 91
        4
 64
     7
 65
   257
 75
     1
175
     1
 42
1.0
 92
        8
 66
     7
 43
1.0
 76
     1
 77
     6
 78
     2
 67
     7
 79
     5
170
     0
171
     0
290
     0
174
     0
 93
        1
 44
0.0
173
     0
291
     1
 45
0.0
1001
ACAD
1000
AcDbSavedByObjectVersion
1070
     0
  0
VISUALSTYLE
  5
2B
102
{ACAD_REACTORS
330
2A
102
}
102
{ACAD_XDICTIONARY
360
55
102
}
330
2A
100
AcDbVisualStyle
  2
Flat
 70
     0
 71
     2
 72
     1
 73
     1
 90
        2
 40
-0.6
 41
30.0
 62
     5
 63
     7
421
 16777215
 74
     0
 91
        4
 64
     7
 65
   257
 75
     1
175
     1
 42
1.0
 92
        8
 66
     7
 43
1.0
 76
     1
 77
     6
 78
     2
 67
     7
 79
     5
170
     0
171
     0
290
     0
174
     0
 93
       13
 44
0.0
173
     0
291
     1
 45
0.0
1001
ACAD
1000
AcDbSavedByObjectVersion
1070
     0
  0
VISUALSTYLE
  5
2C
102
{ACAD_REACTORS
330
2A
102
}
102
{ACAD_XDICTIONARY
360
57
102
}
330
2A
100
AcDbVisualStyle
  2
FlatWithEdges
 70
     1
 71
     2
 72
     1
 73
     1
 90
        2
 40
-0.6
 41
30.0
 62
     5
 63
     7
421
 16777215
 74
     1
 91
        4
 64
     7
 65
   257
 75
     1
175
     1
 42
1.0
 92
        0
 66
   257
 43
1.0
 76
     1
 77
     6
 78
     2
 67
     7
 79
     5
170
     0
171
     0
290
     0
174
     0
 93
       13
 44
0.0
173
     0
291
     1
 45
0.0
1001
ACAD
1000
AcDbSavedByObjectVersion
1070
     0
  0
VISUALSTYLE
  5
2D
102
{ACAD_REACTORS
330
2A
102
}
102
{ACAD_XDICTIONARY
360
59
102
}
330
2A
100
AcDbVisualStyle
  2
Gouraud
 70
     2
 71
     2
 72
     2
 73
     1
 90
        2
 40
-0.6
 41
30.0
 62
     5
 63
     7
421
 16777215
 74
     0
 91
        4
 64
     7
 65
   257
 75
     1
175
     1
 42
1.0
 92
        0
 66
     7
 43
1.0
 76
     1
 77
     6
 78
     2
 67
     7
 79
     5
170
     0
171
     0
290
     0
174
     0
 93
       13
 44
0.0
173
     0
291
     1
 45
0.0
1001
ACAD
1000
AcDbSavedByObjectVersion
1070
     0
  0
VISUALSTYLE
  5
2E
102
{ACAD_REACTORS
330
2A
102
}
102
{ACAD_XDICTIONARY
360
5B
102
}
330
2A
100
AcDbVisualStyle
  2
GouraudWithEdges
 70
     3
 71
     2
 72
     2
 73
     1
 90
        2
 40
-0.6
 41
30.0
 62
     5
 63
     7
421
 16777215
 74
     1
 91
        4
 64
     7
 65
   257
 75
     1
175
     1
 42
1.0
 92
        0
 66
   257
 43
1.0
 76
     1
 77
     6
 78
     2
 67
     7
 79
     5
170
     0
171
     0
290
     0
174
     0
 93
       13
 44
0.0
173
     0
291
     1
 45
0.0
1001
ACAD
1000
AcDbSavedByObjectVersion
1070
     0
  0
VISUALSTYLE
  5
38
102
{ACAD_REACTORS
330
2A
102
}
102
{ACAD_XDICTIONARY
360
6F
102
}
330
2A
100
AcDbVisualStyle
  2
Linepattern
 70
    14
 71
     2
 72
     2
 73
     0
 90
        0
 40
-0.6
 41
-30.0
 62
     5
 63
     7
421
 16777215
 74
     1
 91
        4
 64
     7
 65
   257
 75
     7
175
     7
 42
1.0
 92
        8
 66
     7
 43
1.0
 76
     1
 77
     6
 78
     2
 67
     7
 79
     5
170
     0
171
     0
290
     0
174
     0
 93
        1
 44
0.0
173
     0
291
     1
 45
0.0
1001
ACAD
1000
AcDbSavedByObjectVersion
1070
     0
  0
VISUALSTYLE
  5
33
102
{ACAD_REACTORS
330
2A
102
}
102
{ACAD_XDICTIONARY
360
65
102
}
330
2A
100
AcDbVisualStyle
  2
Realistic
 70
     8
 71
     2
 72
     2
 73
     0
 90
        0
 40
-0.6
 41
-30.0
 62
     5
 63
     7
421
 16777215
 74
     1
 91
        0
 64
     7
 65
   257
 75
     1
175
     1
 42
1.0
 92
        8
 66
     8
424
  7895160
 43
1.0
 76
     1
 77
     6
 78
     2
 67
     7
 79
     5
170
     0
171
     0
290
     0
174
     0
 93
       13
 44
0.0
173
     0
291
     0
 45
0.0
1001
ACAD
1000
AcDbSavedByObjectVersion
1070
     0
  0
VISUALSTYLE
  5
37
102
{ACAD_REACTORS
330
2A
102
}
102
{ACAD_XDICTIONARY
360
6D
102
}
330
2A
100
AcDbVisualStyle
  2
Thicken
 70
    13
 71
     2
 72
     2
 73
     0
 90
        0
 40
-0.6
 41
-30.0
 62
     5
 63
     7
421
 16777215
 74
     1
 91
        4
 64
     7
 65
   257
 75
     1
175
     1
 42
1.0
 92
       12
 66
     7
 43
1.0
 76
     1
 77
     6
 78
     2
 67
     7
 79
     5
170
     0
171
     0
290
     0
174
     0
 93
        1
 44
0.0
173
     0
291
     1
 45
0.0
1001
ACAD
1000
AcDbSavedByObjectVersion
1070
     0
  0
DICTIONARY
  5
77
330
3D
100
AcDbDictionary
280
     1
281
     1
  3
ACAD_XREC_ROUNDTRIP
360
78
  0
DICTIONARY
  5
75
330
3C
100
AcDbDictionary
280
     1
281
     1
  3
ACAD_XREC_ROUNDTRIP
360
76
  0
DICTIONARY
  5
79
330
3E
100
AcDbDictionary
280
     1
281
     1
  3
ACAD_XREC_ROUNDTRIP
360
7A
  0
DICTIONARY
  5
5D
330
2F
100
AcDbDictionary
280
     1
281
     1
  3
ACAD_XREC_ROUNDTRIP
360
5E
  0
DICTIONARY
  5
61
330
31
100
AcDbDictionary
280
     1
281
     1
  3
ACAD_XREC_ROUNDTRIP
360
62
  0
DICTIONARY
  5
5F
330
30
100
AcDbDictionary
280
     1
281
     1
  3
ACAD_XREC_ROUNDTRIP
360
60
  0
DICTIONARY
  5
63
330
32
100
AcDbDictionary
280
     1
281
     1
  3
ACAD_XREC_ROUNDTRIP
360
64
  0
DICTIONARY
  5
6B
330
36
100
AcDbDictionary
280
     1
281
     1
  3
ACAD_XREC_ROUNDTRIP
360
6C
  0
DICTIONARY
  5
73
330
3A
100
AcDbDictionary
280
     1
281
     1
  3
ACAD_XREC_ROUNDTRIP
360
74
  0
DICTIONARY
  5
67
330
34
100
AcDbDictionary
280
     1
281
     1
  3
ACAD_XREC_ROUNDTRIP
360
68
  0
DICTIONARY
  5
69
330
35
100
AcDbDictionary
280
     1
281
     1
  3
ACAD_XREC_ROUNDTRIP
360
6A
  0
DICTIONARY
  5
71
330
39
100
AcDbDictionary
280
     1
281
     1
  3
ACAD_XREC_ROUNDTRIP
360
72
  0
DICTIONARY
  5
55
330
2B
100
AcDbDictionary
280
     1
281
     1
  3
ACAD_XREC_ROUNDTRIP
360
56
  0
DICTIONARY
  5
57
330
2C
100
AcDbDictionary
280
     1
281
     1
  3
ACAD_XREC_ROUNDTRIP
360
58
  0
DICTIONARY
  5
59
330
2D
100
AcDbDictionary
280
     1
281
     1
  3
ACAD_XREC_ROUNDTRIP
360
5A
  0
DICTIONARY
  5
5B
330
2E
100
AcDbDictionary
280
     1
281
     1
  3
ACAD_XREC_ROUNDTRIP
360
5C
  0
DICTIONARY
  5
6F
330
38
100
AcDbDictionary
280
     1
281
     1
  3
ACAD_XREC_ROUNDTRIP
360
70
  0
DICTIONARY
  5
65
330
33
100
AcDbDictionary
280
     1
281
     1
  3
ACAD_XREC_ROUNDTRIP
360
66
  0
DICTIONARY
  5
6D
330
37
100
AcDbDictionary
280
     1
281
     1
  3
ACAD_XREC_ROUNDTRIP
360
6E
  0
XRECORD
  5
78
102
{ACAD_REACTORS
330
77
102
}
330
77
100
AcDbXrecord
280
     1
102
MATERIAL
148
0.0
149
0.0
149
0.0
 93
        0
 94
      127
282
     0
 72
     1
 77
     1
171
     1
175
     1
179
     1
273
     0
  0
XRECORD
  5
76
102
{ACAD_REACTORS
330
75
102
}
330
75
100
AcDbXrecord
280
     1
102
MATERIAL
148
0.0
149
0.0
149
0.0
 93
        0
 94
      127
282
     0
 72
     1
 77
     1
171
     1
175
     1
179
     1
273
     0
  0
XRECORD
  5
7A
102
{ACAD_REACTORS
330
79
102
}
330
79
100
AcDbXrecord
280
     1
102
MATERIAL
148
0.0
149
0.0
149
0.0
 93
        0
 94
      127
282
     0
 72
     1
 77
     1
171
     1
175
     1
179
     1
273
     0
  0
XRECORD
  5
5E
102
{ACAD_REACTORS
330
5D
102
}
330
5D
100
AcDbXrecord
280
     1
102
RTVSPropertyOp0
 70
     1
102
RTVSPropertyOp1
 70
     1
102
RTVSPropertyOp2
 70
     1
102
RTVSPropertyOp3
 70
     1
102
RTVSPropertyOp4
 70
     1
102
RTVSPropertyOp5
 70
     1
102
RTVSPropertyOp6
 70
     1
102
RTVSPropertyOp7
 70
     1
102
RTVSPropertyOp8
 70
     1
102
RTVSPropertyOp9
 70
     1
102
RTVSPropertyOp10
 70
     1
102
RTVSPropertyOp11
 70
     1
102
RTVSPropertyOp12
 70
     1
102
RTVSPropertyOp13
 70
     1
102
RTVSPropertyOp14
 70
     1
102
RTVSPropertyOp15
 70
     1
102
RTVSPropertyOp16
 70
     1
102
RTVSPropertyOp17
 70
     1
102
RTVSPropertyOp18
 70
     1
102
RTVSPropertyOp19
 70
     1
102
RTVSPropertyOp20
 70
     1
102
RTVSPropertyOp21
 70
     1
102
RTVSPropertyOp22
 70
     1
102
RTVSPropertyOp23
 70
     1
102
RTVSPropertyOp24
 70
     1
102
RTVSPropertyOp25
 70
     1
102
RTVSPropertyOp26
 70
     1
102
RTVSPropertyOp27
 70
     1
102
RTVSPropertyOp28
 70
     1
102
RTVSPropertyOp29
 70
     1
102
RTVSPropertyOp30
 70
     1
102
RTVSPropertyOp31
 70
     1
102
RTVSPropertyOp32
 70
     1
  0
XRECORD
  5
62
102
{ACAD_REACTORS
330
61
102
}
330
61
100
AcDbXrecord
280
     1
102
RTVSPropertyOp0
 70
     1
102
RTVSPropertyOp1
 70
     1
102
RTVSPropertyOp2
 70
     1
102
RTVSPropertyOp3
 70
     1
102
RTVSPropertyOp4
 70
     1
102
RTVSPropertyOp5
 70
     1
102
RTVSPropertyOp6
 70
     1
102
RTVSPropertyOp7
 70
     1
102
RTVSPropertyOp8
 70
     1
102
RTVSPropertyOp9
 70
     1
102
RTVSPropertyOp10
 70
     1
102
RTVSPropertyOp11
 70
     1
102
RTVSPropertyOp12
 70
     1
102
RTVSPropertyOp13
 70
     1
102
RTVSPropertyOp14
 70
     1
102
RTVSPropertyOp15
 70
     1
102
RTVSPropertyOp16
 70
     1
102
RTVSPropertyOp17
 70
     1
102
RTVSPropertyOp18
 70
     1
102
RTVSPropertyOp19
 70
     1
102
RTVSPropertyOp20
 70
     1
102
RTVSPropertyOp21
 70
     1
102
RTVSPropertyOp22
 70
     1
102
RTVSPropertyOp23
 70
     1
102
RTVSPropertyOp24
 70
     1
102
RTVSPropertyOp25
 70
     1
102
RTVSPropertyOp26
 70
     1
102
RTVSPropertyOp27
 70
     1
102
RTVSPropertyOp28
 70
     1
102
RTVSPropertyOp29
 70
     1
102
RTVSPropertyOp30
 70
     1
102
RTVSPropertyOp31
 70
     1
102
RTVSPropertyOp32
 70
     1
  0
XRECORD
  5
60
102
{ACAD_REACTORS
330
5F
102
}
330
5F
100
AcDbXrecord
280
     1
102
RTVSPropertyOp0
 70
     1
102
RTVSPropertyOp1
 70
     1
102
RTVSPropertyOp2
 70
     1
102
RTVSPropertyOp3
 70
     1
102
RTVSPropertyOp4
 70
     1
102
RTVSPropertyOp5
 70
     1
102
RTVSPropertyOp6
 70
     1
102
RTVSPropertyOp7
 70
     1
102
RTVSPropertyOp8
 70
     1
102
RTVSPropertyOp9
 70
     1
102
RTVSPropertyOp10
 70
     1
102
RTVSPropertyOp11
 70
     1
102
RTVSPropertyOp12
 70
     1
102
RTVSPropertyOp13
 70
     1
102
RTVSPropertyOp14
 70
     1
102
RTVSPropertyOp15
 70
     1
102
RTVSPropertyOp16
 70
     1
102
RTVSPropertyOp17
 70
     1
102
RTVSPropertyOp18
 70
     1
102
RTVSPropertyOp19
 70
     1
102
RTVSPropertyOp20
 70
     1
102
RTVSPropertyOp21
 70
     1
102
RTVSPropertyOp22
 70
     1
102
RTVSPropertyOp23
 70
     1
102
RTVSPropertyOp24
 70
     1
102
RTVSPropertyOp25
 70
     1
102
RTVSPropertyOp26
 70
     1
102
RTVSPropertyOp27
 70
     1
102
RTVSPropertyOp28
 70
     1
102
RTVSPropertyOp29
 70
     1
102
RTVSPropertyOp30
 70
     1
102
RTVSPropertyOp31
 70
     1
102
RTVSPropertyOp32
 70
     1
  0
XRECORD
  5
64
102
{ACAD_REACTORS
330
63
102
}
330
63
100
AcDbXrecord
280
     1
102
RTVSPropertyOp0
 70
     1
102
RTVSPropertyOp1
 70
     1
102
RTVSPropertyOp2
 70
     1
102
RTVSPropertyOp3
 70
     1
102
RTVSPropertyOp4
 70
     1
102
RTVSPropertyOp5
 70
     1
102
RTVSPropertyOp6
 70
     1
102
RTVSPropertyOp7
 70
     1
102
RTVSPropertyOp8
 70
     1
102
RTVSPropertyOp9
 70
     1
102
RTVSPropertyOp10
 70
     1
102
RTVSPropertyOp11
 70
     1
102
RTVSPropertyOp12
 70
     1
102
RTVSPropertyOp13
 70
     1
102
RTVSPropertyOp14
 70
     1
102
RTVSPropertyOp15
 70
     1
102
RTVSPropertyOp16
 70
     1
102
RTVSPropertyOp17
 70
     1
102
RTVSPropertyOp18
 70
     1
102
RTVSPropertyOp19
 70
     1
102
RTVSPropertyOp20
 70
     1
102
RTVSPropertyOp21
 70
     1
102
RTVSPropertyOp22
 70
     1
102
RTVSPropertyOp23
 70
     1
102
RTVSPropertyOp24
 70
     1
102
RTVSPropertyOp25
 70
     1
102
RTVSPropertyOp26
 70
     1
102
RTVSPropertyOp27
 70
     1
102
RTVSPropertyOp28
 70
     1
102
RTVSPropertyOp29
 70
     1
102
RTVSPropertyOp30
 70
     1
102
RTVSPropertyOp31
 70
     1
102
RTVSPropertyOp32
 70
     1
  0
XRECORD
  5
6C
102
{ACAD_REACTORS
330
6B
102
}
330
6B
100
AcDbXrecord
280
     1
102
RTVSPropertyOp0
 70
     1
102
RTVSPropertyOp1
 70
     1
102
RTVSPropertyOp2
 70
     1
102
RTVSPropertyOp3
 70
     1
102
RTVSPropertyOp4
 70
     1
102
RTVSPropertyOp5
 70
     1
102
RTVSPropertyOp6
 70
     1
102
RTVSPropertyOp7
 70
     1
102
RTVSPropertyOp8
 70
     1
102
RTVSPropertyOp9
 70
     1
102
RTVSPropertyOp10
 70
     1
102
RTVSPropertyOp11
 70
     1
102
RTVSPropertyOp12
 70
     1
102
RTVSPropertyOp13
 70
     1
102
RTVSPropertyOp14
 70
     1
102
RTVSPropertyOp15
 70
     1
102
RTVSPropertyOp16
 70
     1
102
RTVSPropertyOp17
 70
     1
102
RTVSPropertyOp18
 70
     1
102
RTVSPropertyOp19
 70
     1
102
RTVSPropertyOp20
 70
     1
102
RTVSPropertyOp21
 70
     1
102
RTVSPropertyOp22
 70
     1
102
RTVSPropertyOp23
 70
     1
102
RTVSPropertyOp24
 70
     1
102
RTVSPropertyOp25
 70
     1
102
RTVSPropertyOp26
 70
     1
102
RTVSPropertyOp27
 70
     1
102
RTVSPropertyOp28
 70
     1
102
RTVSPropertyOp29
 70
     1
102
RTVSPropertyOp30
 70
     1
102
RTVSPropertyOp31
 70
     1
102
RTVSPropertyOp32
 70
     1
  0
XRECORD
  5
74
102
{ACAD_REACTORS
330
73
102
}
330
73
100
AcDbXrecord
280
     1
102
RTVSPropertyOp0
 70
     1
102
RTVSPropertyOp1
 70
     1
102
RTVSPropertyOp2
 70
     1
102
RTVSPropertyOp3
 70
     1
102
RTVSPropertyOp4
 70
     1
102
RTVSPropertyOp5
 70
     1
102
RTVSPropertyOp6
 70
     1
102
RTVSPropertyOp7
 70
     1
102
RTVSPropertyOp8
 70
     1
102
RTVSPropertyOp9
 70
     1
102
RTVSPropertyOp10
 70
     1
102
RTVSPropertyOp11
 70
     1
102
RTVSPropertyOp12
 70
     1
102
RTVSPropertyOp13
 70
     1
102
RTVSPropertyOp14
 70
     1
102
RTVSPropertyOp15
 70
     1
102
RTVSPropertyOp16
 70
     1
102
RTVSPropertyOp17
 70
     1
102
RTVSPropertyOp18
 70
     1
102
RTVSPropertyOp19
 70
     1
102
RTVSPropertyOp20
 70
     1
102
RTVSPropertyOp21
 70
     1
102
RTVSPropertyOp22
 70
     1
102
RTVSPropertyOp23
 70
     1
102
RTVSPropertyOp24
 70
     1
102
RTVSPropertyOp25
 70
     1
102
RTVSPropertyOp26
 70
     1
102
RTVSPropertyOp27
 70
     1
102
RTVSPropertyOp28
 70
     1
102
RTVSPropertyOp29
 70
     1
102
RTVSPropertyOp30
 70
     1
102
RTVSPropertyOp31
 70
     1
102
RTVSPropertyOp32
 70
     1
  0
XRECORD
  5
68
102
{ACAD_REACTORS
330
67
102
}
330
67
100
AcDbXrecord
280
     1
102
RTVSPropertyOp0
 70
     1
102
RTVSPropertyOp1
 70
     1
102
RTVSPropertyOp2
 70
     1
102
RTVSPropertyOp3
 70
     1
102
RTVSPropertyOp4
 70
     1
102
RTVSPropertyOp5
 70
     1
102
RTVSPropertyOp6
 70
     1
102
RTVSPropertyOp7
 70
     1
102
RTVSPropertyOp8
 70
     1
102
RTVSPropertyOp9
 70
     1
102
RTVSPropertyOp10
 70
     1
102
RTVSPropertyOp11
 70
     1
102
RTVSPropertyOp12
 70
     1
102
RTVSPropertyOp13
 70
     1
102
RTVSPropertyOp14
 70
     1
102
RTVSPropertyOp15
 70
     1
102
RTVSPropertyOp16
 70
     1
102
RTVSPropertyOp17
 70
     1
102
RTVSPropertyOp18
 70
     1
102
RTVSPropertyOp19
 70
     1
102
RTVSPropertyOp20
 70
     1
102
RTVSPropertyOp21
 70
     1
102
RTVSPropertyOp22
 70
     1
102
RTVSPropertyOp23
 70
     1
102
RTVSPropertyOp24
 70
     1
102
RTVSPropertyOp25
 70
     1
102
RTVSPropertyOp26
 70
     1
102
RTVSPropertyOp27
 70
     1
102
RTVSPropertyOp28
 70
     1
102
RTVSPropertyOp29
 70
     1
102
RTVSPropertyOp30
 70
     1
102
RTVSPropertyOp31
 70
     1
102
RTVSPropertyOp32
 70
     1
  0
XRECORD
  5
6A
102
{ACAD_REACTORS
330
69
102
}
330
69
100
AcDbXrecord
280
     1
102
RTVSPropertyOp0
 70
     1
102
RTVSPropertyOp1
 70
     1
102
RTVSPropertyOp2
 70
     1
102
RTVSPropertyOp3
 70
     1
102
RTVSPropertyOp4
 70
     1
102
RTVSPropertyOp5
 70
     1
102
RTVSPropertyOp6
 70
     1
102
RTVSPropertyOp7
 70
     1
102
RTVSPropertyOp8
 70
     1
102
RTVSPropertyOp9
 70
     1
102
RTVSPropertyOp10
 70
     1
102
RTVSPropertyOp11
 70
     1
102
RTVSPropertyOp12
 70
     1
102
RTVSPropertyOp13
 70
     1
102
RTVSPropertyOp14
 70
     1
102
RTVSPropertyOp15
 70
     1
102
RTVSPropertyOp16
 70
     1
102
RTVSPropertyOp17
 70
     1
102
RTVSPropertyOp18
 70
     1
102
RTVSPropertyOp19
 70
     1
102
RTVSPropertyOp20
 70
     1
102
RTVSPropertyOp21
 70
     1
102
RTVSPropertyOp22
 70
     1
102
RTVSPropertyOp23
 70
     1
102
RTVSPropertyOp24
 70
     1
102
RTVSPropertyOp25
 70
     1
102
RTVSPropertyOp26
 70
     1
102
RTVSPropertyOp27
 70
     1
102
RTVSPropertyOp28
 70
     1
102
RTVSPropertyOp29
 70
     1
102
RTVSPropertyOp30
 70
     1
102
RTVSPropertyOp31
 70
     1
102
RTVSPropertyOp32
 70
     1
  0
XRECORD
  5
72
102
{ACAD_REACTORS
330
71
102
}
330
71
100
AcDbXrecord
280
     1
102
RTVSPropertyOp0
 70
     1
102
RTVSPropertyOp1
 70
     1
102
RTVSPropertyOp2
 70
     1
102
RTVSPropertyOp3
 70
     1
102
RTVSPropertyOp4
 70
     1
102
RTVSPropertyOp5
 70
     1
102
RTVSPropertyOp6
 70
     1
102
RTVSPropertyOp7
 70
     1
102
RTVSPropertyOp8
 70
     1
102
RTVSPropertyOp9
 70
     1
102
RTVSPropertyOp10
 70
     1
102
RTVSPropertyOp11
 70
     1
102
RTVSPropertyOp12
 70
     1
102
RTVSPropertyOp13
 70
     1
102
RTVSPropertyOp14
 70
     1
102
RTVSPropertyOp15
 70
     1
102
RTVSPropertyOp16
 70
     1
102
RTVSPropertyOp17
 70
     1
102
RTVSPropertyOp18
 70
     1
102
RTVSPropertyOp19
 70
     1
102
RTVSPropertyOp20
 70
     1
102
RTVSPropertyOp21
 70
     1
102
RTVSPropertyOp22
 70
     1
102
RTVSPropertyOp23
 70
     1
102
RTVSPropertyOp24
 70
     1
102
RTVSPropertyOp25
 70
     1
102
RTVSPropertyOp26
 70
     1
102
RTVSPropertyOp27
 70
     1
102
RTVSPropertyOp28
 70
     1
102
RTVSPropertyOp29
 70
     1
102
RTVSPropertyOp30
 70
     1
102
RTVSPropertyOp31
 70
     1
102
RTVSPropertyOp32
 70
     1
  0
XRECORD
  5
56
102
{ACAD_REACTORS
330
55
102
}
330
55
100
AcDbXrecord
280
     1
102
RTVSPropertyOp0
 70
     1
102
RTVSPropertyOp1
 70
     1
102
RTVSPropertyOp2
 70
     1
102
RTVSPropertyOp3
 70
     1
102
RTVSPropertyOp4
 70
     1
102
RTVSPropertyOp5
 70
     1
102
RTVSPropertyOp6
 70
     1
102
RTVSPropertyOp7
 70
     1
102
RTVSPropertyOp8
 70
     1
102
RTVSPropertyOp9
 70
     1
102
RTVSPropertyOp10
 70
     1
102
RTVSPropertyOp11
 70
     1
102
RTVSPropertyOp12
 70
     1
102
RTVSPropertyOp13
 70
     1
102
RTVSPropertyOp14
 70
     1
102
RTVSPropertyOp15
 70
     1
102
RTVSPropertyOp16
 70
     1
102
RTVSPropertyOp17
 70
     1
102
RTVSPropertyOp18
 70
     1
102
RTVSPropertyOp19
 70
     1
102
RTVSPropertyOp20
 70
     1
102
RTVSPropertyOp21
 70
     1
102
RTVSPropertyOp22
 70
     1
102
RTVSPropertyOp23
 70
     1
102
RTVSPropertyOp24
 70
     1
102
RTVSPropertyOp25
 70
     1
102
RTVSPropertyOp26
 70
     1
102
RTVSPropertyOp27
 70
     1
102
RTVSPropertyOp28
 70
     1
102
RTVSPropertyOp29
 70
     1
102
RTVSPropertyOp30
 70
     1
102
RTVSPropertyOp31
 70
     1
102
RTVSPropertyOp32
 70
     1
  0
XRECORD
  5
58
102
{ACAD_REACTORS
330
57
102
}
330
57
100
AcDbXrecord
280
     1
102
RTVSPropertyOp0
 70
     1
102
RTVSPropertyOp1
 70
     1
102
RTVSPropertyOp2
 70
     1
102
RTVSPropertyOp3
 70
     1
102
RTVSPropertyOp4
 70
     1
102
RTVSPropertyOp5
 70
     1
102
RTVSPropertyOp6
 70
     1
102
RTVSPropertyOp7
 70
     1
102
RTVSPropertyOp8
 70
     1
102
RTVSPropertyOp9
 70
     1
102
RTVSPropertyOp10
 70
     1
102
RTVSPropertyOp11
 70
     1
102
RTVSPropertyOp12
 70
     1
102
RTVSPropertyOp13
 70
     1
102
RTVSPropertyOp14
 70
     1
102
RTVSPropertyOp15
 70
     1
102
RTVSPropertyOp16
 70
     1
102
RTVSPropertyOp17
 70
     1
102
RTVSPropertyOp18
 70
     1
102
RTVSPropertyOp19
 70
     1
102
RTVSPropertyOp20
 70
     1
102
RTVSPropertyOp21
 70
     1
102
RTVSPropertyOp22
 70
     1
102
RTVSPropertyOp23
 70
     1
102
RTVSPropertyOp24
 70
     1
102
RTVSPropertyOp25
 70
     1
102
RTVSPropertyOp26
 70
     1
102
RTVSPropertyOp27
 70
     1
102
RTVSPropertyOp28
 70
     1
102
RTVSPropertyOp29
 70
     1
102
RTVSPropertyOp30
 70
     1
102
RTVSPropertyOp31
 70
     1
102
RTVSPropertyOp32
 70
     1
  0
XRECORD
  5
5A
102
{ACAD_REACTORS
330
59
102
}
330
59
100
AcDbXrecord
280
     1
102
RTVSPropertyOp0
 70
     1
102
RTVSPropertyOp1
 70
     1
102
RTVSPropertyOp2
 70
     1
102
RTVSPropertyOp3
 70
     1
102
RTVSPropertyOp4
 70
     1
102
RTVSPropertyOp5
 70
     1
102
RTVSPropertyOp6
 70
     1
102
RTVSPropertyOp7
 70
     1
102
RTVSPropertyOp8
 70
     1
102
RTVSPropertyOp9
 70
     1
102
RTVSPropertyOp10
 70
     1
102
RTVSPropertyOp11
 70
     1
102
RTVSPropertyOp12
 70
     1
102
RTVSPropertyOp13
 70
     1
102
RTVSPropertyOp14
 70
     1
102
RTVSPropertyOp15
 70
     1
102
RTVSPropertyOp16
 70
     1
102
RTVSPropertyOp17
 70
     1
102
RTVSPropertyOp18
 70
     1
102
RTVSPropertyOp19
 70
     1
102
RTVSPropertyOp20
 70
     1
102
RTVSPropertyOp21
 70
     1
102
RTVSPropertyOp22
 70
     1
102
RTVSPropertyOp23
 70
     1
102
RTVSPropertyOp24
 70
     1
102
RTVSPropertyOp25
 70
     1
102
RTVSPropertyOp26
 70
     1
102
RTVSPropertyOp27
 70
     1
102
RTVSPropertyOp28
 70
     1
102
RTVSPropertyOp29
 70
     1
102
RTVSPropertyOp30
 70
     1
102
RTVSPropertyOp31
 70
     1
102
RTVSPropertyOp32
 70
     1
  0
XRECORD
  5
5C
102
{ACAD_REACTORS
330
5B
102
}
330
5B
100
AcDbXrecord
280
     1
102
RTVSPropertyOp0
 70
     1
102
RTVSPropertyOp1
 70
     1
102
RTVSPropertyOp2
 70
     1
102
RTVSPropertyOp3
 70
     1
102
RTVSPropertyOp4
 70
     1
102
RTVSPropertyOp5
 70
     1
102
RTVSPropertyOp6
 70
     1
102
RTVSPropertyOp7
 70
     1
102
RTVSPropertyOp8
 70
     1
102
RTVSPropertyOp9
 70
     1
102
RTVSPropertyOp10
 70
     1
102
RTVSPropertyOp11
 70
     1
102
RTVSPropertyOp12
 70
     1
102
RTVSPropertyOp13
 70
     1
102
RTVSPropertyOp14
 70
     1
102
RTVSPropertyOp15
 70
     1
102
RTVSPropertyOp16
 70
     1
102
RTVSPropertyOp17
 70
     1
102
RTVSPropertyOp18
 70
     1
102
RTVSPropertyOp19
 70
     1
102
RTVSPropertyOp20
 70
     1
102
RTVSPropertyOp21
 70
     1
102
RTVSPropertyOp22
 70
     1
102
RTVSPropertyOp23
 70
     1
102
RTVSPropertyOp24
 70
     1
102
RTVSPropertyOp25
 70
     1
102
RTVSPropertyOp26
 70
     1
102
RTVSPropertyOp27
 70
     1
102
RTVSPropertyOp28
 70
     1
102
RTVSPropertyOp29
 70
     1
102
RTVSPropertyOp30
 70
     1
102
RTVSPropertyOp31
 70
     1
102
RTVSPropertyOp32
 70
     1
  0
XRECORD
  5
70
102
{ACAD_REACTORS
330
6F
102
}
330
6F
100
AcDbXrecord
280
     1
102
RTVSPropertyOp0
 70
     1
102
RTVSPropertyOp1
 70
     1
102
RTVSPropertyOp2
 70
     1
102
RTVSPropertyOp3
 70
     1
102
RTVSPropertyOp4
 70
     1
102
RTVSPropertyOp5
 70
     1
102
RTVSPropertyOp6
 70
     1
102
RTVSPropertyOp7
 70
     1
102
RTVSPropertyOp8
 70
     1
102
RTVSPropertyOp9
 70
     1
102
RTVSPropertyOp10
 70
     1
102
RTVSPropertyOp11
 70
     1
102
RTVSPropertyOp12
 70
     1
102
RTVSPropertyOp13
 70
     1
102
RTVSPropertyOp14
 70
     1
102
RTVSPropertyOp15
 70
     1
102
RTVSPropertyOp16
 70
     1
102
RTVSPropertyOp17
 70
     1
102
RTVSPropertyOp18
 70
     1
102
RTVSPropertyOp19
 70
     1
102
RTVSPropertyOp20
 70
     1
102
RTVSPropertyOp21
 70
     1
102
RTVSPropertyOp22
 70
     1
102
RTVSPropertyOp23
 70
     1
102
RTVSPropertyOp24
 70
     1
102
RTVSPropertyOp25
 70
     1
102
RTVSPropertyOp26
 70
     1
102
RTVSPropertyOp27
 70
     1
102
RTVSPropertyOp28
 70
     1
102
RTVSPropertyOp29
 70
     1
102
RTVSPropertyOp30
 70
     1
102
RTVSPropertyOp31
 70
     1
102
RTVSPropertyOp32
 70
     1
  0
XRECORD
  5
66
102
{ACAD_REACTORS
330
65
102
}
330
65
100
AcDbXrecord
280
     1
102
RTVSPropertyOp0
 70
     1
102
RTVSPropertyOp1
 70
     1
102
RTVSPropertyOp2
 70
     1
102
RTVSPropertyOp3
 70
     1
102
RTVSPropertyOp4
 70
     1
102
RTVSPropertyOp5
 70
     1
102
RTVSPropertyOp6
 70
     1
102
RTVSPropertyOp7
 70
     1
102
RTVSPropertyOp8
 70
     1
102
RTVSPropertyOp9
 70
     1
102
RTVSPropertyOp10
 70
     1
102
RTVSPropertyOp11
 70
     1
102
RTVSPropertyOp12
 70
     1
102
RTVSPropertyOp13
 70
     1
102
RTVSPropertyOp14
 70
     1
102
RTVSPropertyOp15
 70
     1
102
RTVSPropertyOp16
 70
     1
102
RTVSPropertyOp17
 70
     1
102
RTVSPropertyOp18
 70
     1
102
RTVSPropertyOp19
 70
     1
102
RTVSPropertyOp20
 70
     1
102
RTVSPropertyOp21
 70
     1
102
RTVSPropertyOp22
 70
     1
102
RTVSPropertyOp23
 70
     1
102
RTVSPropertyOp24
 70
     1
102
RTVSPropertyOp25
 70
     1
102
RTVSPropertyOp26
 70
     1
102
RTVSPropertyOp27
 70
     1
102
RTVSPropertyOp28
 70
     1
102
RTVSPropertyOp29
 70
     1
102
RTVSPropertyOp30
 70
     1
102
RTVSPropertyOp31
 70
     1
102
RTVSPropertyOp32
 70
     1
  0
XRECORD
  5
6E
102
{ACAD_REACTORS
330
6D
102
}
330
6D
100
AcDbXrecord
280
     1
102
RTVSPropertyOp0
 70
     1
102
RTVSPropertyOp1
 70
     1
102
RTVSPropertyOp2
 70
     1
102
RTVSPropertyOp3
 70
     1
102
RTVSPropertyOp4
 70
     1
102
RTVSPropertyOp5
 70
     1
102
RTVSPropertyOp6
 70
     1
102
RTVSPropertyOp7
 70
     1
102
RTVSPropertyOp8
 70
     1
102
RTVSPropertyOp9
 70
     1
102
RTVSPropertyOp10
 70
     1
102
RTVSPropertyOp11
 70
     1
102
RTVSPropertyOp12
 70
     1
102
RTVSPropertyOp13
 70
     1
102
RTVSPropertyOp14
 70
     1
102
RTVSPropertyOp15
 70
     1
102
RTVSPropertyOp16
 70
     1
102
RTVSPropertyOp17
 70
     1
102
RTVSPropertyOp18
 70
     1
102
RTVSPropertyOp19
 70
     1
102
RTVSPropertyOp20
 70
     1
102
RTVSPropertyOp21
 70
     1
102
RTVSPropertyOp22
 70
     1
102
RTVSPropertyOp23
 70
     1
102
RTVSPropertyOp24
 70
     1
102
RTVSPropertyOp25
 70
     1
102
RTVSPropertyOp26
 70
     1
102
RTVSPropertyOp27
 70
     1
102
RTVSPropertyOp28
 70
     1
102
RTVSPropertyOp29
 70
     1
102
RTVSPropertyOp30
 70
     1
102
RTVSPropertyOp31
 70
     1
102
RTVSPropertyOp32
 70
     1
  0
ENDSEC
  0
EOF
