  0
SECTION
  2
HEADER
  9
$ACADVER
  1
AC1015
  9
$ACADMAINTVER
 70
     6
  9
$DWGCODEPAGE
  3
DOS850
  9
$INSBASE
 10
0.0
 20
0.0
 30
0.0
  9
$EXTMIN
 10
-6.17967
 20
-8.62132
 30
1.000000E+20
  9
$EXTMAX
 10
6.18504
 20
8.61341
 30
-1.000000E+20
  9
$LIMMIN
 10
0.0
 20
0.0
  9
$LIMMAX
 10
0.0
 20
0.0
  9
$ORTHOMODE
 70
     0
  9
$REGENMODE
 70
     1
  9
$FILLMODE
 70
     1
  9
$QTEXTMODE
 70
     0
  9
$MIRRTEXT
 70
     1
  9
$LTSCALE
 40
1.0
  9
$ATTMODE
 70
     1
  9
$TEXTSIZE
 40
0.2
  9
$TRACEWID
 40
0.05
  9
$TEXTSTYLE
  7
Standard
  9
$CLAYER
  8
0
  9
$CELTYPE
  6
Continuous
  9
$CECOLOR
 62
   256
  9
$CELTSCALE
 40
1.0
  9
$DISPSILH
 70
     0
  9
$DIMSCALE
 40
1.0
  9
$DIMASZ
 40
0.18
  9
$DIMEXO
 40
0.0625
  9
$DIMDLI
 40
0.38
  9
$DIMRND
 40
0.0
  9
$DIMDLE
 40
0.0
  9
$DIMEXE
 40
0.18
  9
$DIMTP
 40
0.0
  9
$DIMTM
 40
0.0
  9
$DIMTXT
 40
0.18
  9
$DIMCEN
 40
0.09
  9
$DIMTSZ
 40
0.0
  9
$DIMTOL
 70
     0
  9
$DIMLIM
 70
     0
  9
$DIMTIH
 70
     1
  9
$DIMTOH
 70
     1
  9
$DIMSE1
 70
     0
  9
$DIMSE2
 70
     0
  9
$DIMTAD
 70
     0
  9
$DIMZIN
 70
     0
  9
$DIMBLK
  1

  9
$DIMASO
 70
     1
  9
$DIMSHO
 70
     1
  9
$DIMPOST
  1

  9
$DIMAPOST
  1

  9
$DIMALT
 70
     0
  9
$DIMALTD
 70
     2
  9
$DIMALTF
 40
25.4
  9
$DIMLFAC
 40
1.0
  9
$DIMTOFL
 70
     0
  9
$DIMTVP
 40
0.0
  9
$DIMTIX
 70
     0
  9
$DIMSOXD
 70
     0
  9
$DIMSAH
 70
     0
  9
$DIMBLK1
  1

  9
$DIMBLK2
  1

  9
$DIMSTYLE
  2
Standard
  9
$DIMCLRD
 70
     0
  9
$DIMCLRE
 70
     0
  9
$DIMCLRT
 70
     0
  9
$DIMTFAC
 40
1.0
  9
$DIMGAP
 40
0.09
  9
$DIMJUST
 70
     0
  9
$DIMSD1
 70
     0
  9
$DIMSD2
 70
     0
  9
$DIMTOLJ
 70
     1
  9
$DIMTZIN
 70
     0
  9
$DIMALTZ
 70
     0
  9
$DIMALTTZ
 70
     0
  9
$DIMUPT
 70
     0
  9
$DIMDEC
 70
     4
  9
$DIMTDEC
 70
     4
  9
$DIMALTU
 70
     2
  9
$DIMALTTD
 70
     2
  9
$DIMTXSTY
  7
Standard
  9
$DIMAUNIT
 70
     0
  9
$DIMADEC
 70
     0
  9
$DIMALTRND
 40
0.0
  9
$DIMAZIN
 70
     0
  9
$DIMDSEP
 70
     0
  9
$DIMATFIT
 70
     3
  9
$DIMFRAC
 70
     0
  9
$DIMLDRBLK
  1

  9
$DIMLUNIT
 70
     2
  9
$DIMLWD
 70
     0
  9
$DIMLWE
 70
     0
  9
$DIMTMOVE
 70
     0
  9
$LUNITS
 70
     2
  9
$LUPREC
 70
     4
  9
$SKETCHINC
 40
0.1
  9
$FILLETRAD
 40
0.0
  9
$AUNITS
 70
     0
  9
$AUPREC
 70
     0
  9
$MENU
  1
acad
  9
$ELEVATION
 40
0.0
  9
$PELEVATION
 40
0.0
  9
$THICKNESS
 40
0.0
  9
$LIMCHECK
 70
     0
  9
$CHAMFERA
 40
0.0
  9
$CHAMFERB
 40
0.0
  9
$CHAMFERC
 40
0.0
  9
$CHAMFERD
 40
0.0
  9
$SKPOLY
 70
     0
  9
$TDCREATE
 40
0.000000000
  9
$TDUCREATE
 40
0.000000000
  9
$TDUPDATE
 40
0.000000000
  9
$TDUUPDATE
 40
0.000000000
  9
$TDINDWG
 40
0.0000000000
  9
$TDUSRTIMER
 40
0.0000000000
  9
$USRTIMER
 70
     1
  9
$ANGBASE
 50
0.0
  9
$ANGDIR
 70
     0
  9
$PDMODE
 70
     0
  9
$PDSIZE
 40
0.0
  9
$PLINEWID
 40
0.0
  9
$SPLFRAME
 70
     0
  9
$SPLINETYPE
 70
     6
  9
$SPLINESEGS
 70
     8
  9
$HANDSEED
  5
51
  9
$SURFTAB1
 70
     6
  9
$SURFTAB2
 70
     6
  9
$SURFTYPE
 70
     6
  9
$SURFU
 70
     6
  9
$SURFV
 70
     6
  9
$UCSBASE
  2

  9
$UCSNAME
  2

  9
$UCSORG
 10
0.0
 20
0.0
 30
0.0
  9
$UCSXDIR
 10
1.0
 20
0.0
 30
0.0
  9
$UCSYDIR
 10
0.0
 20
1.0
 30
0.0
  9
$UCSORTHOREF
  2

  9
$UCSORTHOVIEW
 70
     0
  9
$UCSORGTOP
 10
0.0
 20
0.0
 30
0.0
  9
$UCSORGBOTTOM
 10
0.0
 20
0.0
 30
0.0
  9
$UCSORGLEFT
 10
0.0
 20
0.0
 30
0.0
  9
$UCSORGRIGHT
 10
0.0
 20
0.0
 30
0.0
  9
$UCSORGFRONT
 10
0.0
 20
0.0
 30
0.0
  9
$UCSORGBACK
 10
0.0
 20
0.0
 30
0.0
  9
$PUCSBASE
  2

  9
$PUCSNAME
  2

  9
$PUCSORG
 10
0.0
 20
0.0
 30
0.0
  9
$PUCSXDIR
 10
1.0
 20
0.0
 30
0.0
  9
$PUCSYDIR
 10
0.0
 20
1.0
 30
0.0
  9
$PUCSORTHOREF
  2

  9
$PUCSORTHOVIEW
 70
     0
  9
$PUCSORGTOP
 10
0.0
 20
0.0
 30
0.0
  9
$PUCSORGBOTTOM
 10
0.0
 20
0.0
 30
0.0
  9
$PUCSORGLEFT
 10
0.0
 20
0.0
 30
0.0
  9
$PUCSORGRIGHT
 10
0.0
 20
0.0
 30
0.0
  9
$PUCSORGFRONT
 10
0.0
 20
0.0
 30
0.0
  9
$PUCSORGBACK
 10
0.0
 20
0.0
 30
0.0
  9
$USERI1
 70
     0
  9
$USERI2
 70
     0
  9
$USERI3
 70
     0
  9
$USERI4
 70
     0
  9
$USERI5
 70
     0
  9
$USERR1
 40
0.0
  9
$USERR2
 40
0.0
  9
$USERR3
 40
0.0
  9
$USERR4
 40
0.0
  9
$USERR5
 40
0.0
  9
$WORLDVIEW
 70
     1
  9
$SHADEDGE
 70
     3
  9
$SHADEDIF
 70
    70
  9
$TILEMODE
 70
     1
  9
$MAXACTVP
 70
    16
  9
$PINSBASE
 10
0.0
 20
0.0
 30
0.0
  9
$PLIMCHECK
 70
     0
  9
$PEXTMIN
 10
1.000000E+20
 20
1.000000E+20
 30
1.000000E+20
  9
$PEXTMAX
 10
-1.000000E+20
 20
-1.000000E+20
 30
-1.000000E+20
  9
$PLIMMIN
 10
0.0
 20
0.0
  9
$PLIMMAX
 10
12.0
 20
9.0
  9
$UNITMODE
 70
     0
  9
$VISRETAIN
 70
     0
  9
$PLINEGEN
 70
     1
  9
$PSLTSCALE
 70
     0
  9
$TREEDEPTH
 70
  3020
  9
$CMLSTYLE
  2
Standard
  9
$CMLJUST
 70
     0
  9
$CMLSCALE
 40
1.0
  9
$PROXYGRAPHICS
 70
     0
  9
$MEASUREMENT
 70
     0
  9
$CELWEIGHT
370
     0
  9
$ENDCAPS
280
     0
  9
$JOINSTYLE
280
     0
  9
$LWDISPLAY
290
     0
  9
$INSUNITS
 70
     5
  9
$HYPERLINKBASE
  1

  9
$XEDIT
290
     1
  9
$CEPSNTYPE
380
     0
  9
$PSTYLEMODE
290
     1
  9
$FINGERPRINTGUID
  2

  9
$VERSIONGUID
  2

  9
$EXTNAMES
290
     1
  9
$PSVPSCALE
 40
0.0
  0
ENDSEC
  0
SECTION
  2
CLASSES
  0
CLASS
  1
LWPOLYLINE
  2
AcDbPolyline
  3
AutoCAD 2000
 90
    32768
280
     0
281
     1
  0
CLASS
  1
IMAGE
  2
AcDbRasterImage
  3
ISM
 90
    32895
280
     0
281
     1
  0
CLASS
  1
OLE2FRAME
  2
AcDbOle2Frame
  3
AutoCAD 2000
 90
    32768
280
     0
281
     1
  0
CLASS
  1
HATCH
  2
AcDbHatch
  3
AutoCAD 2000
 90
    32768
280
     0
281
     1
  0
CLASS
  1
DICTIONARYVAR
  2
AcDbDictionaryVar
  3
AutoCAD 2000
 90
    32768
280
     0
281
     0
  0
CLASS
  1
RASTERVARIABLES
  2
AcDbRasterVariables
  3
ISM
 90
    32768
280
     0
281
     0
  0
CLASS
  1
IMAGEDEF
  2
AcDbRasterImageDef
  3
ISM
 90
    32768
280
     0
281
     0
  0
CLASS
  1
IMAGEDEF_REACTOR
  2
AcDbRasterImageDefReactor
  3
ISM
 90
    32769
280
     0
281
     0
  0
CLASS
  1
IDBUFFER
  2
AcDbIdBuffer
  3
AutoCAD 2000
 90
    32768
280
     0
281
     0
  0
CLASS
  1
SPATIAL_FILTER
  2
AcDbSpatialFilter
  3
AutoCAD 2000
 90
    32768
280
     0
281
     0
  0
CLASS
  1
XRECORD
  2
AcDbXrecord
  3
AutoCAD 2000
 90
    32768
280
     0
281
     0
  0
CLASS
  1
SORTENTSTABLE
  2
AcDbSortentsTable
  3
AutoCAD 2000
 90
    32768
280
     0
281
     0
  0
CLASS
  1
LAYER_INDEX
  2
AcDbLayerIndex
  3
AutoCAD 2000
 90
    32768
280
     0
281
     0
  0
CLASS
  1
SPATIAL_INDEX
  2
AcDbSpatialIndex
  3
AutoCAD 2000
 90
    32768
280
     0
281
     0
  0
CLASS
  1
OBJECT_PTR
  2
CAseDLPNTableRecord
  3
"ASE-LPNTableRecord"
 90
    32769
280
     0
281
     0
  0
CLASS
  1
LAYOUT
  2
AcDbLayout
  3
AutoCAD 2000
 90
        0
280
     0
281
     0
  0
CLASS
  1
PLOTSETTINGS
  2
AcDbPlotSettings
  3
AutoCAD 2000
 90
    32768
280
     0
281
     0
  0
CLASS
  1
ACDBDICTIONARYWDFLT
  2
AcDbDictionaryWithDefault
  3
AutoCAD 2000
 90
        0
280
     0
281
     0
  0
CLASS
  1
ACDBPLACEHOLDER
  2
AcDbPlaceHolder
  3
AutoCAD 2000
 90
        0
280
     0
281
     0
  0
CLASS
  1
VBA_PROJECT
  2
AcDbVbaProject
  3
acadvba
 90
    32768
280
     0
281
     0
  0
CLASS
  1
WIPEOUT
  2
AcDbWipeout
  3
WipeOut|AutoCAD Express Tool|expresstools@autodesk.com
 90
    32895
280
     0
281
     1
  0
CLASS
  1
WIPEOUTVARIABLES
  2
AcDbWipeoutVariables
  3
WipeOut|AutoCAD Express Tool|expresstools@autodesk.com
 90
        0
280
     0
281
     0
  0
CLASS
  1
RTEXT
  2
RText
  3
RText|AutoCAD Express Tool|expresstools@autodesk.com
 90
    32768
280
     0
281
     1
  0
CLASS
  1
ARCALIGNEDTEXT
  2
AcDbArcAlignedText
  3
ATEXT|AutoCAD Express Tool|expresstools@autodesk.com
 90
    32768
280
     0
281
     1
  0
ENDSEC
  0
SECTION
  2
TABLES
  0
TABLE
  2
VPORT
  5
7
100
AcDbSymbolTable
 70
     1
  0
VPORT
  5
15
100
AcDbSymbolTableRecord
100
AcDbViewportTableRecord
  2
*ACTIVE
 70
     0
 10
0.0
 20
0.0
 11
1.0
 21
1.0
 12
6.591288
 22
4.579184
 13
0.0
 23
0.0
 14
1.0
 24
1.0
 15
0.0
 25
0.0
 16
0.0
 26
0.0
 36
1.0
 17
0.0
 27
0.0
 37
0.0
 40
9.158369
 41
0.688564
 42
50.0
 43
0.0
 44
0.0
 50
0.0
 51
0.0
 71
     0
 72
   100
 73
     1
 74
     1
 75
     0
 76
     0
 77
     0
 78
     0
281
     0
 65
     0
110
0.0
120
0.0
130
0.0
111
1.0
121
0.0
131
0.0
112
0.0
122
1.0
132
0.0
345
0
346
0
 79
     0
146
0.0
  0
ENDTAB
  0
TABLE
  2
LTYPE
  5
4
100
AcDbSymbolTable
 70
     3
  0
LTYPE
  5
11
100
AcDbSymbolTableRecord
100
AcDbLinetypeTableRecord
  2
ByBlock
 70
    64
  3

 72
    65
 73
     0
 40
0.0
  0
LTYPE
  5
12
100
AcDbSymbolTableRecord
100
AcDbLinetypeTableRecord
  2
ByLayer
 70
    64
  3

 72
    65
 73
     0
 40
0.0
  0
LTYPE
  5
13
100
AcDbSymbolTableRecord
100
AcDbLinetypeTableRecord
  2
Continuous
 70
    64
  3
Solid line
 72
    65
 73
     0
 40
0.0
  0
ENDTAB
  0
TABLE
  2
LAYER
  5
2
100
AcDbSymbolTable
 70
     2
  0
LAYER
  5
14
100
AcDbSymbolTableRecord
100
AcDbLayerTableRecord
  2
0
 70
     0
 62
     7
  6
Continuous
290
     1
370
    -3
390
1D
  0
LAYER
  5
24
100
AcDbSymbolTableRecord
100
AcDbLayerTableRecord
  2
Ebene 1
 70
     0
 62
     7
  6
Continuous
290
     1
370
    -3
390
1F
  0
ENDTAB
  0
TABLE
  2
STYLE
  5
3
100
AcDbSymbolTable
 70
     1
  0
STYLE
  5
17
100
AcDbSymbolTableRecord
100
AcDbTextStyleTableRecord
  2
Standard
 70
     0
 40
0.0
 41
1.0
 50
0.0
 71
     0
 42
0.0
  3
txt
  4

  0
ENDTAB
  0
TABLE
  2
VIEW
  5
5
100
AcDbSymbolTable
 70
     0
  0
ENDTAB
  0
TABLE
  2
UCS
  5
6
100
AcDbSymbolTable
 70
     0
  0
ENDTAB
  0
TABLE
  2
APPID
  5
8
100
AcDbSymbolTable
 70
     1
  0
APPID
  5
16
100
AcDbSymbolTableRecord
100
AcDbRegAppTableRecord
  2
ACAD
 70
     0
  0
ENDTAB
  0
TABLE
  2
DIMSTYLE
  5
9
100
AcDbSymbolTable
 70
     1
100
AcDbDimStyleTable
 71
     0
  0
DIMSTYLE
105
18
100
AcDbSymbolTableRecord
100
AcDbDimStyleTableRecord
  2
Standard
 70
     0
  3

  4

 40
1.0
 41
0.18
 42
0.0625
 43
0.38
 44
0.18
 45
0.0
 46
0.0
 47
0.0
 48
0.0
 71
     0
 72
     0
 73
     1
 74
     1
 75
     0
 76
     0
 77
     0
 78
     0
 79
     0
140
0.18
141
0.09
142
0.0
143
25.4
144
1.0
145
0.0
146
1.0
147
0.09
148
0.0
170
     0
171
     2
172
     0
173
     0
174
     0
175
     0
176
     0
177
     0
178
     0
179
     0
271
     4
272
     4
273
     2
274
     2
275
     0
276
     0
277
     2
278
    46
279
     0
280
     0
281
     0
282
     0
283
     1
284
     0
285
     0
286
     0
288
     0
340
17
341
0
342
0
343
0
344
0
371
    -2
372
    -2
  0
ENDTAB
  0
TABLE
  2
BLOCK_RECORD
  5
1
100
AcDbSymbolTable
 70
     0
  0
BLOCK_RECORD
  5
A
100
AcDbSymbolTableRecord
100
AcDbBlockTableRecord
  2
*MODEL_SPACE
340
20
  0
BLOCK_RECORD
  5
B
100
AcDbSymbolTableRecord
100
AcDbBlockTableRecord
  2
*PAPER_SPACE
340
21
  0
ENDTAB
  0
ENDSEC
  0
SECTION
  2
BLOCKS
  0
BLOCK
  5
D
100
AcDbEntity
  8
0
100
AcDbBlockBegin
  2
*MODEL_SPACE
 70
     0
 10
0.0
 20
0.0
 30
0.0
  3
*MODEL_SPACE
  1

  0
ENDBLK
  5
E
100
AcDbEntity
  8
0
100
AcDbBlockEnd
  0
BLOCK
  5
F
100
AcDbEntity
 67
     1
  8
0
100
AcDbBlockBegin
  2
*PAPER_SPACE
 70
     0
 10
0.0
 20
0.0
 30
0.0
  3
*PAPER_SPACE
  1

  0
ENDBLK
  5
10
100
AcDbEntity
 67
     1
  8
0
100
AcDbBlockEnd
  0
ENDSEC
  0
SECTION
  2
ENTITIES
  0
SPLINE
  5
25
100
AcDbEntity
  8
Ebene 1
100
AcDbSpline
210
0.0
220
0.0
230
1.0
 70
     1
 71
     3
 72
   332
 73
   328
 74
     0
 42
0.0000000001
 43
0.0000000001
 40
0.0
 40
0.0
 40
0.0
 40
0.0
 40
0.0121951219512195
 40
0.0121951219512195
 40
0.0121951219512195
 40
0.0121951219512195
 40
0.024390243902439
 40
0.024390243902439
 40
0.024390243902439
 40
0.024390243902439
 40
0.0365853658536585
 40
0.0365853658536585
 40
0.0365853658536585
 40
0.0365853658536585
 40
0.0487804878048781
 40
0.0487804878048781
 40
0.0487804878048781
 40
0.0487804878048781
 40
0.0609756097560976
 40
0.0609756097560976
 40
0.0609756097560976
 40
0.0609756097560976
 40
0.0731707317073171
 40
0.0731707317073171
 40
0.0731707317073171
 40
0.0731707317073171
 40
0.0853658536585366
 40
0.0853658536585366
 40
0.0853658536585366
 40
0.0853658536585366
 40
0.0975609756097561
 40
0.0975609756097561
 40
0.0975609756097561
 40
0.0975609756097561
 40
0.1097560975609756
 40
0.1097560975609756
 40
0.1097560975609756
 40
0.1097560975609756
 40
0.1219512195121951
 40
0.1219512195121951
 40
0.1219512195121951
 40
0.1219512195121951
 40
0.1341463414634146
 40
0.1341463414634146
 40
0.1341463414634146
 40
0.1341463414634146
 40
0.1463414634146341
 40
0.1463414634146341
 40
0.1463414634146341
 40
0.1463414634146341
 40
0.1585365853658537
 40
0.1585365853658537
 40
0.1585365853658537
 40
0.1585365853658537
 40
0.1707317073170732
 40
0.1707317073170732
 40
0.1707317073170732
 40
0.1707317073170732
 40
0.1829268292682927
 40
0.1829268292682927
 40
0.1829268292682927
 40
0.1829268292682927
 40
0.1951219512195122
 40
0.1951219512195122
 40
0.1951219512195122
 40
0.1951219512195122
 40
0.2073170731707318
 40
0.2073170731707318
 40
0.2073170731707318
 40
0.2073170731707318
 40
0.2195121951219513
 40
0.2195121951219513
 40
0.2195121951219513
 40
0.2195121951219513
 40
0.2317073170731708
 40
0.2317073170731708
 40
0.2317073170731708
 40
0.2317073170731708
 40
0.2439024390243903
 40
0.2439024390243903
 40
0.2439024390243903
 40
0.2439024390243903
 40
0.2560975609756098
 40
0.2560975609756098
 40
0.2560975609756098
 40
0.2560975609756098
 40
0.2682926829268293
 40
0.2682926829268293
 40
0.2682926829268293
 40
0.2682926829268293
 40
0.2804878048780489
 40
0.2804878048780489
 40
0.2804878048780489
 40
0.2804878048780489
 40
0.2926829268292684
 40
0.2926829268292684
 40
0.2926829268292684
 40
0.2926829268292684
 40
0.3048780487804879
 40
0.3048780487804879
 40
0.3048780487804879
 40
0.3048780487804879
 40
0.3170731707317074
 40
0.3170731707317074
 40
0.3170731707317074
 40
0.3170731707317074
 40
0.329268292682927
 40
0.329268292682927
 40
0.329268292682927
 40
0.329268292682927
 40
0.3414634146341465
 40
0.3414634146341465
 40
0.3414634146341465
 40
0.3414634146341465
 40
0.353658536585366
 40
0.353658536585366
 40
0.353658536585366
 40
0.353658536585366
 40
0.3658536585365855
 40
0.3658536585365855
 40
0.3658536585365855
 40
0.3658536585365855
 40
0.3780487804878051
 40
0.3780487804878051
 40
0.3780487804878051
 40
0.3780487804878051
 40
0.3902439024390246
 40
0.3902439024390246
 40
0.3902439024390246
 40
0.3902439024390246
 40
0.4024390243902441
 40
0.4024390243902441
 40
0.4024390243902441
 40
0.4024390243902441
 40
0.4146341463414636
 40
0.4146341463414636
 40
0.4146341463414636
 40
0.4146341463414636
 40
0.4268292682926831
 40
0.4268292682926831
 40
0.4268292682926831
 40
0.4268292682926831
 40
0.4390243902439027
 40
0.4390243902439027
 40
0.4390243902439027
 40
0.4390243902439027
 40
0.4512195121951222
 40
0.4512195121951222
 40
0.4512195121951222
 40
0.4512195121951222
 40
0.4634146341463417
 40
0.4634146341463417
 40
0.4634146341463417
 40
0.4634146341463417
 40
0.4756097560975612
 40
0.4756097560975612
 40
0.4756097560975612
 40
0.4756097560975612
 40
0.4878048780487808
 40
0.4878048780487808
 40
0.4878048780487808
 40
0.4878048780487808
 40
0.5000000000000002
 40
0.5000000000000002
 40
0.5000000000000002
 40
0.5000000000000002
 40
0.5121951219512198
 40
0.5121951219512198
 40
0.5121951219512198
 40
0.5121951219512198
 40
0.5243902439024393
 40
0.5243902439024393
 40
0.5243902439024393
 40
0.5243902439024393
 40
0.5365853658536588
 40
0.5365853658536588
 40
0.5365853658536588
 40
0.5365853658536588
 40
0.5487804878048783
 40
0.5487804878048783
 40
0.5487804878048783
 40
0.5487804878048783
 40
0.5609756097560978
 40
0.5609756097560978
 40
0.5609756097560978
 40
0.5609756097560978
 40
0.5731707317073174
 40
0.5731707317073174
 40
0.5731707317073174
 40
0.5731707317073174
 40
0.5853658536585369
 40
0.5853658536585369
 40
0.5853658536585369
 40
0.5853658536585369
 40
0.5975609756097564
 40
0.5975609756097564
 40
0.5975609756097564
 40
0.5975609756097564
 40
0.6097560975609759
 40
0.6097560975609759
 40
0.6097560975609759
 40
0.6097560975609759
 40
0.6219512195121955
 40
0.6219512195121955
 40
0.6219512195121955
 40
0.6219512195121955
 40
0.634146341463415
 40
0.634146341463415
 40
0.634146341463415
 40
0.634146341463415
 40
0.6463414634146345
 40
0.6463414634146345
 40
0.6463414634146345
 40
0.6463414634146345
 40
0.658536585365854
 40
0.658536585365854
 40
0.658536585365854
 40
0.658536585365854
 40
0.6707317073170735
 40
0.6707317073170735
 40
0.6707317073170735
 40
0.6707317073170735
 40
0.6829268292682931
 40
0.6829268292682931
 40
0.6829268292682931
 40
0.6829268292682931
 40
0.6951219512195126
 40
0.6951219512195126
 40
0.6951219512195126
 40
0.6951219512195126
 40
0.7073170731707321
 40
0.7073170731707321
 40
0.7073170731707321
 40
0.7073170731707321
 40
0.7195121951219516
 40
0.7195121951219516
 40
0.7195121951219516
 40
0.7195121951219516
 40
0.7317073170731712
 40
0.7317073170731712
 40
0.7317073170731712
 40
0.7317073170731712
 40
0.7439024390243907
 40
0.7439024390243907
 40
0.7439024390243907
 40
0.7439024390243907
 40
0.7560975609756102
 40
0.7560975609756102
 40
0.7560975609756102
 40
0.7560975609756102
 40
0.7682926829268297
 40
0.7682926829268297
 40
0.7682926829268297
 40
0.7682926829268297
 40
0.7804878048780493
 40
0.7804878048780493
 40
0.7804878048780493
 40
0.7804878048780493
 40
0.7926829268292688
 40
0.7926829268292688
 40
0.7926829268292688
 40
0.7926829268292688
 40
0.8048780487804883
 40
0.8048780487804883
 40
0.8048780487804883
 40
0.8048780487804883
 40
0.8170731707317078
 40
0.8170731707317078
 40
0.8170731707317078
 40
0.8170731707317078
 40
0.8292682926829273
 40
0.8292682926829273
 40
0.8292682926829273
 40
0.8292682926829273
 40
0.8414634146341469
 40
0.8414634146341469
 40
0.8414634146341469
 40
0.8414634146341469
 40
0.8536585365853664
 40
0.8536585365853664
 40
0.8536585365853664
 40
0.8536585365853664
 40
0.8658536585365859
 40
0.8658536585365859
 40
0.8658536585365859
 40
0.8658536585365859
 40
0.8780487804878054
 40
0.8780487804878054
 40
0.8780487804878054
 40
0.8780487804878054
 40
0.890243902439025
 40
0.890243902439025
 40
0.890243902439025
 40
0.890243902439025
 40
0.9024390243902445
 40
0.9024390243902445
 40
0.9024390243902445
 40
0.9024390243902445
 40
0.914634146341464
 40
0.914634146341464
 40
0.914634146341464
 40
0.914634146341464
 40
0.9268292682926835
 40
0.9268292682926835
 40
0.9268292682926835
 40
0.9268292682926835
 40
0.9390243902439031
 40
0.9390243902439031
 40
0.9390243902439031
 40
0.9390243902439031
 40
0.9512195121951226
 40
0.9512195121951226
 40
0.9512195121951226
 40
0.9512195121951226
 40
0.9634146341463421
 40
0.9634146341463421
 40
0.9634146341463421
 40
0.9634146341463421
 40
0.9756097560975616
 40
0.9756097560975616
 40
0.9756097560975616
 40
0.9756097560975616
 40
0.9878048780487811
 40
0.9878048780487811
 40
0.9878048780487811
 40
0.9878048780487811
 40
1.0
 40
1.0
 40
1.0
 40
1.0
 10
-1.5644900000000002
 20
8.5795500000000011
 30
0.0
 10
-1.1504700000000001
 20
8.7903700000000011
 30
0.0
 10
-1.2673100000000002
 20
7.9470900000000002
 30
0.0
 10
-1.4044700000000001
 20
8.20871
 30
0.0
 10
-1.4044700000000001
 20
8.20871
 30
0.0
 10
-1.5086100000000002
 20
8.4423900000000014
 30
0.0
 10
-1.5517900000000002
 20
8.3204700000000003
 30
0.0
 10
-1.5365500000000001
 20
8.1325099999999999
 30
0.0
 10
-1.5365500000000001
 20
8.1325099999999999
 30
0.0
 10
-1.7854700000000001
 20
8.3077700000000014
 30
0.0
 10
-1.5543300000000002
 20
8.0461500000000008
 30
0.0
 10
-1.7041900000000001
 20
7.8734300000000008
 30
0.0
 10
-1.7041900000000001
 20
7.8734300000000008
 30
0.0
 10
-1.8108700000000002
 20
7.8226300000000011
 30
0.0
 10
-1.8083300000000002
 20
8.0715500000000002
 30
0.0
 10
-2.0318500000000004
 20
8.0105900000000005
 30
0.0
 10
-2.0318500000000004
 20
8.0105900000000005
 30
0.0
 10
-2.4357100000000003
 20
6.6466100000000008
 30
0.0
 10
-2.5169900000000003
 20
5.0438700000000001
 30
0.0
 10
-2.3315700000000001
 20
3.5681300000000005
 30
0.0
 10
-2.3315700000000001
 20
3.5681300000000005
 30
0.0
 10
-2.18933
 20
3.4081100000000002
 30
0.0
 10
-1.9556500000000001
 20
3.4563700000000002
 30
0.0
 10
-1.8007100000000003
 20
3.3192100000000004
 30
0.0
 10
-1.8007100000000003
 20
3.3192100000000004
 30
0.0
 10
-1.4425700000000001
 20
3.4462100000000002
 30
0.0
 10
-0.7796300000000001
 20
3.7687900000000005
 30
0.0
 10
-0.8736100000000001
 20
4.1345499999999999
 30
0.0
 10
-0.8736100000000001
 20
4.1345499999999999
 30
0.0
 10
-0.88885
 20
4.20059
 30
0.0
 10
-1.03617
 20
4.2336100000000005
 30
0.0
 10
-1.00315
 20
4.3377500000000007
 30
0.0
 10
-1.00315
 20
4.3377500000000007
 30
0.0
 10
-0.7059700000000001
 20
4.0532700000000004
 30
0.0
 10
-0.02525
 20
4.3504500000000004
 30
0.0
 10
-0.4824500000000001
 20
4.7212900000000007
 30
0.0
 10
-0.4824500000000001
 20
4.7212900000000007
 30
0.0
 10
0.0992
 20
4.5866700000000007
 30
0.0
 10
0.19318
 20
5.1556300000000004
 30
0.0
 10
-0.24623
 20
5.3054900000000007
 30
0.0
 10
-0.24623
 20
5.3054900000000007
 30
0.0
 10
0.16016
 20
5.2191300000000007
 30
0.0
 10
1.1279000000000001
 20
5.6026700000000007
 30
0.0
 10
0.83072
 20
5.9506500000000004
 30
0.0
 10
0.83072
 20
5.9506500000000004
 30
0.0
 10
1.2015600000000002
 20
5.9989100000000004
 30
0.0
 10
1.5546200000000001
 20
6.1360700000000001
 30
0.0
 10
1.8289400000000002
 20
6.4103900000000005
 30
0.0
 10
1.8289400000000002
 20
6.4103900000000005
 30
0.0
 10
1.4123800000000002
 20
6.2859300000000005
 30
0.0
 10
0.7367400000000001
 20
5.9379500000000007
 30
0.0
 10
0.46496
 20
6.0243100000000007
 30
0.0
 10
0.46496
 20
6.0243100000000007
 30
0.0
 10
0.7951600000000001
 20
6.1360700000000001
 30
0.0
 10
1.1355200000000001
 20
6.2605300000000002
 30
0.0
 10
1.4327000000000001
 20
6.4459500000000007
 30
0.0
 10
1.4327000000000001
 20
6.4459500000000007
 30
0.0
 10
0.9628000000000001
 20
6.4103900000000005
 30
0.0
 10
0.53608
 20
6.2097300000000004
 30
0.0
 10
0.1119
 20
6.0116100000000001
 30
0.0
 10
0.1119
 20
6.0116100000000001
 30
0.0
 10
0.1119
 20
6.0116100000000001
 30
0.0
 10
-0.23099
 20
5.9252500000000001
 30
0.0
 10
-0.23099
 20
5.9252500000000001
 30
0.0
 10
-0.23099
 20
5.9252500000000001
 30
0.0
 10
-0.69581
 20
5.8490500000000001
 30
0.0
 10
-0.46467
 20
5.9455700000000009
 30
0.0
 10
-0.18781
 20
6.0065300000000006
 30
0.0
 10
-0.18781
 20
6.0065300000000006
 30
0.0
 10
-0.18781
 20
6.0065300000000006
 30
0.0
 10
0.59196
 20
6.3849900000000002
 30
0.0
 10
0.59196
 20
6.3849900000000002
 30
0.0
 10
0.59196
 20
6.3849900000000002
 30
0.0
 10
0.7799200000000001
 20
6.4967500000000005
 30
0.0
 10
0.9755
 20
6.5831100000000005
 30
0.0
 10
1.1837800000000001
 20
6.6466100000000008
 30
0.0
 10
1.1837800000000001
 20
6.6466100000000008
 30
0.0
 10
1.1837800000000001
 20
6.6466100000000008
 30
0.0
 10
1.5317600000000002
 20
6.7558300000000004
 30
0.0
 10
1.5317600000000002
 20
6.7558300000000004
 30
0.0
 10
1.5317600000000002
 20
6.7558300000000004
 30
0.0
 10
0.6199
 20
7.0682500000000008
 30
0.0
 10
-0.19289
 20
6.1741700000000002
 30
0.0
 10
-1.0691900000000001
 20
6.2986300000000002
 30
0.0
 10
-1.0691900000000001
 20
6.2986300000000002
 30
0.0
 10
-0.9472700000000001
 20
6.4230900000000002
 30
0.0
 10
-0.7466100000000001
 20
6.3849900000000002
 30
0.0
 10
-0.5840500000000001
 20
6.4103900000000005
 30
0.0
 10
-0.5840500000000001
 20
6.4103900000000005
 30
0.0
 10
-0.37323
 20
6.4713500000000002
 30
0.0
 10
-0.15733
 20
6.5450100000000004
 30
0.0
 10
0.0357
 20
6.6567700000000007
 30
0.0
 10
0.0357
 20
6.6567700000000007
 30
0.0
 10
0.0357
 20
6.6567700000000007
 30
0.0
 10
0.3786000000000001
 20
6.8320300000000005
 30
0.0
 10
0.3786000000000001
 20
6.8320300000000005
 30
0.0
 10
0.3786000000000001
 20
6.8320300000000005
 30
0.0
 10
-0.49769
 20
6.7939300000000005
 30
0.0
 10
-1.3257300000000001
 20
6.4103900000000005
 30
0.0
 10
-2.06995
 20
6.0116100000000001
 30
0.0
 10
-2.06995
 20
6.0116100000000001
 30
0.0
 10
-1.9404100000000002
 20
6.2478300000000004
 30
0.0
 10
-1.6051300000000002
 20
6.3341900000000004
 30
0.0
 10
-1.3866900000000002
 20
6.4967500000000005
 30
0.0
 10
-1.3866900000000002
 20
6.4967500000000005
 30
0.0
 10
-1.1453900000000001
 20
6.6212100000000005
 30
0.0
 10
-0.9015500000000001
 20
6.7329700000000008
 30
0.0
 10
-0.6475500000000001
 20
6.8193300000000008
 30
0.0
 10
-0.6475500000000001
 20
6.8193300000000008
 30
0.0
 10
-0.40371
 20
6.9056900000000008
 30
0.0
 10
-0.14209
 20
6.9920500000000008
 30
0.0
 10
0.1119
 20
7.0428500000000005
 30
0.0
 10
0.1119
 20
7.0428500000000005
 30
0.0
 10
2.0829400000000002
 20
7.4263900000000005
 30
0.0
 10
4.1886000000000001
 20
7.4314700000000009
 30
0.0
 10
6.1850400000000008
 20
7.4771900000000002
 30
0.0
 10
6.1850400000000008
 20
7.4771900000000002
 30
0.0
 10
5.9513600000000002
 20
7.3273300000000008
 30
0.0
 10
5.6491000000000007
 20
7.2536700000000005
 30
0.0
 10
5.4408200000000004
 20
7.2155700000000005
 30
0.0
 10
5.4408200000000004
 20
7.2155700000000005
 30
0.0
 10
5.3773200000000001
 20
7.1673100000000005
 30
0.0
 10
5.2376200000000006
 20
7.1800100000000002
 30
0.0
 10
5.1461800000000002
 20
7.1063500000000008
 30
0.0
 10
5.1461800000000002
 20
7.1063500000000008
 30
0.0
 10
5.0903
 20
7.0631700000000004
 30
0.0
 10
5.0699800000000002
 20
7.0276100000000001
 30
0.0
 10
5.0344200000000008
 20
6.9082300000000005
 30
0.0
 10
5.0344200000000008
 20
6.9082300000000005
 30
0.0
 10
5.0191800000000004
 20
6.8599700000000006
 30
0.0
 10
4.9302800000000007
 20
7.0580900000000009
 30
0.0
 10
4.87948
 20
7.0504700000000007
 30
0.0
 10
4.87948
 20
7.0504700000000007
 30
0.0
 10
4.5238800000000001
 20
7.0022100000000007
 30
0.0
 10
4.1962200000000003
 20
6.8853700000000009
 30
0.0
 10
4.2140000000000004
 20
6.4459500000000007
 30
0.0
 10
4.2140000000000004
 20
6.4459500000000007
 30
0.0
 10
4.3283000000000005
 20
6.4764300000000006
 30
0.0
 10
4.5746800000000007
 20
6.4713500000000002
 30
0.0
 10
4.6737400000000004
 20
6.5018300000000009
 30
0.0
 10
4.6737400000000004
 20
6.5018300000000009
 30
0.0
 10
4.7499400000000005
 20
6.5246900000000005
 30
0.0
 10
4.7245400000000002
 20
6.6770900000000006
 30
0.0
 10
4.7499400000000005
 20
6.6186700000000007
 30
0.0
 10
4.7499400000000005
 20
6.6186700000000007
 30
0.0
 10
4.7982000000000005
 20
6.5119900000000008
 30
0.0
 10
4.7753400000000008
 20
6.5348500000000005
 30
0.0
 10
4.8439200000000007
 20
6.5221500000000008
 30
0.0
 10
4.8439200000000007
 20
6.5221500000000008
 30
0.0
 10
5.0903
 20
6.4789700000000003
 30
0.0
 10
5.4408200000000004
 20
6.4180100000000007
 30
0.0
 10
5.8396000000000008
 20
6.3976900000000008
 30
0.0
 10
5.8396000000000008
 20
6.3976900000000008
 30
0.0
 10
5.9386600000000005
 20
6.3468900000000001
 30
0.0
 10
6.0859800000000002
 20
6.4713500000000002
 30
0.0
 10
6.1748800000000008
 20
6.3849900000000002
 30
0.0
 10
6.1748800000000008
 20
6.3849900000000002
 30
0.0
 10
5.0649000000000006
 20
5.8642900000000004
 30
0.0
 10
3.6171000000000002
 20
6.1995700000000005
 30
0.0
 10
2.4436200000000001
 20
5.8261900000000004
 30
0.0
 10
2.4436200000000001
 20
5.8261900000000004
 30
0.0
 10
1.8873600000000001
 20
5.3969300000000002
 30
0.0
 10
1.5927200000000001
 20
4.8330500000000001
 30
0.0
 10
1.2142600000000001
 20
4.2463100000000003
 30
0.0
 10
1.2142600000000001
 20
4.2463100000000003
 30
0.0
 10
0.82564
 20
3.6417900000000003
 30
0.0
 10
0.3557400000000001
 20
3.01187
 30
0.0
 10
-0.10907
 20
2.4759300000000004
 30
0.0
 10
-0.10907
 20
2.4759300000000004
 30
0.0
 10
-0.12431
 20
2.3895700000000004
 30
0.0
 10
-0.03033
 20
2.3514700000000004
 30
0.0
 10
0.01284
 20
2.2905100000000003
 30
0.0
 10
0.01284
 20
2.2905100000000003
 30
0.0
 10
1.6257400000000002
 20
1.9298300000000002
 30
0.0
 10
1.9051400000000001
 20
4.1878900000000003
 30
0.0
 10
3.0710000000000002
 20
4.8457500000000007
 30
0.0
 10
3.0710000000000002
 20
4.8457500000000007
 30
0.0
 10
3.0557600000000003
 20
4.9981500000000008
 30
0.0
 10
3.1497400000000004
 20
5.1480100000000002
 30
0.0
 10
3.2462600000000004
 20
5.2800900000000004
 30
0.0
 10
3.2462600000000004
 20
5.2800900000000004
 30
0.0
 10
3.3529400000000003
 20
5.4324900000000005
 30
0.0
 10
3.4723200000000003
 20
5.5594900000000003
 30
0.0
 10
3.6247200000000004
 20
5.5975900000000003
 30
0.0
 10
3.6247200000000004
 20
5.5975900000000003
 30
0.0
 10
4.0768400000000007
 20
5.22675
 30
0.0
 10
3.1827600000000005
 20
5.4401100000000007
 30
0.0
 10
3.8660200000000002
 20
4.9702100000000007
 30
0.0
 10
3.8660200000000002
 20
4.9702100000000007
 30
0.0
 10
3.7542600000000004
 20
4.9092500000000001
 30
0.0
 10
3.6094800000000005
 20
5.0667300000000006
 30
0.0
 10
3.4901000000000004
 20
4.9549700000000003
 30
0.0
 10
3.4901000000000004
 20
4.9549700000000003
 30
0.0
 10
3.4850200000000005
 20
2.4733900000000002
 30
0.0
 10
3.6272600000000002
 20
-0.13772
 30
0.0
 10
3.4697800000000001
 20
-2.6955
 30
0.0
 10
3.4697800000000001
 20
-2.6955
 30
0.0
 10
3.3554800000000005
 20
-4.0594800000000006
 30
0.0
 10
3.1548200000000004
 20
-5.5098200000000004
 30
0.0
 10
2.38266
 20
-6.6274200000000008
 30
0.0
 10
2.38266
 20
-6.6274200000000008
 30
0.0
 10
2.5528400000000002
 20
-5.7714400000000001
 30
0.0
 10
2.9440000000000004
 20
-4.7529000000000003
 30
0.0
 10
2.63666
 20
-3.9096200000000003
 30
0.0
 10
2.63666
 20
-3.9096200000000003
 30
0.0
 10
2.5299800000000001
 20
-3.9477200000000003
 30
0.0
 10
2.5172800000000004
 20
-4.2322000000000006
 30
0.0
 10
2.4029800000000003
 20
-4.1941000000000006
 30
0.0
 10
2.4029800000000003
 20
-4.1941000000000006
 30
0.0
 10
2.2556600000000002
 20
-3.4625800000000004
 30
0.0
 10
2.67984
 20
-2.2840200000000004
 30
0.0
 10
1.9356200000000001
 20
-1.9004800000000002
 30
0.0
 10
1.9356200000000001
 20
-1.9004800000000002
 30
0.0
 10
1.5749400000000002
 20
-1.7023600000000001
 30
0.0
 10
1.2625200000000001
 20
-2.6447000000000003
 30
0.0
 10
1.3717400000000002
 20
-1.9614400000000001
 30
0.0
 10
1.3717400000000002
 20
-1.9614400000000001
 30
0.0
 10
1.52922
 20
-1.3162800000000001
 30
0.0
 10
1.2625200000000001
 20
-0.05136
 30
0.0
 10
0.43448
 20
-0.63556
 30
0.0
 10
0.43448
 20
-0.63556
 30
0.0
 10
0.40654
 20
-0.32568
 30
0.0
 10
0.4725800000000001
 20
0.5277500000000001
 30
0.0
 10
-0.03541
 20
0.20517
 30
0.0
 10
-0.03541
 20
0.20517
 30
0.0
 10
-0.49769
 20
0.8630300000000001
 30
0.0
 10
-1.8819900000000001
 20
0.70301
 30
0.0
 10
-2.2604500000000001
 20
-0.03866
 30
0.0
 10
-2.2604500000000001
 20
-0.03866
 30
0.0
 10
-1.33843
 20
0.11881
 30
0.0
 10
-0.52817
 20
-0.41204
 30
0.0
 10
0.05602
 20
-1.0927600000000002
 30
0.0
 10
0.05602
 20
-1.0927600000000002
 30
0.0
 10
0.9780400000000001
 20
-2.1849600000000002
 30
0.0
 10
-2.5881100000000004
 20
-1.7760200000000002
 30
0.0
 10
-1.1555500000000001
 20
-2.6193000000000004
 30
0.0
 10
-1.1555500000000001
 20
-2.6193000000000004
 30
0.0
 10
-0.5383300000000001
 20
-2.23576
 30
0.0
 10
0.07634
 20
-2.6447000000000003
 30
0.0
 10
0.3278
 20
-3.2644600000000001
 30
0.0
 10
0.3278
 20
-3.2644600000000001
 30
0.0
 10
0.15762
 20
-3.1781000000000001
 30
0.0
 10
-0.02017
 20
-2.9672800000000001
 30
0.0
 10
-0.23861
 20
-2.9063200000000005
 30
0.0
 10
-0.23861
 20
-2.9063200000000005
 30
0.0
 10
-0.30465
 20
-2.9799800000000003
 30
0.0
 10
0.01792
 20
-3.2898600000000005
 30
0.0
 10
-0.01763
 20
-3.4752800000000001
 30
0.0
 10
-0.01763
 20
-3.4752800000000001
 30
0.0
 10
-0.37069
 20
-2.8936200000000003
 30
0.0
 10
-0.9599700000000001
 20
-2.9926800000000005
 30
0.0
 10
-1.5390900000000001
 20
-3.0917400000000002
 30
0.0
 10
-1.5390900000000001
 20
-3.0917400000000002
 30
0.0
 10
-1.8870700000000002
 20
-2.8809200000000001
 30
0.0
 10
-2.4306300000000003
 20
-2.2230600000000003
 30
0.0
 10
-2.7278100000000003
 20
-2.4973800000000002
 30
0.0
 10
-2.7278100000000003
 20
-2.4973800000000002
 30
0.0
 10
-2.9106900000000002
 20
-1.9868400000000002
 30
0.0
 10
-2.2096500000000003
 20
-1.9741400000000002
 30
0.0
 10
-1.9505700000000001
 20
-1.6896600000000002
 30
0.0
 10
-1.9505700000000001
 20
-1.6896600000000002
 30
0.0
 10
-1.6203700000000001
 20
-1.5398000000000001
 30
0.0
 10
-1.5187700000000002
 20
-1.3670800000000001
 30
0.0
 10
-1.9734300000000002
 20
-1.41534
 30
0.0
 10
-1.9734300000000002
 20
-1.41534
 30
0.0
 10
-2.10805
 20
-1.41534
 30
0.0
 10
-2.2401300000000002
 20
-1.41534
 30
0.0
 10
-2.3722100000000004
 20
-1.4026400000000001
 30
0.0
 10
-2.3722100000000004
 20
-1.4026400000000001
 30
0.0
 10
-2.5398500000000004
 20
-1.4280400000000002
 30
0.0
 10
-2.7252700000000001
 20
-1.2553200000000002
 30
0.0
 10
-2.86497
 20
-1.3924800000000002
 30
0.0
 10
-2.86497
 20
-1.3924800000000002
 30
0.0
 10
-2.8446500000000001
 20
-1.6845800000000002
 30
0.0
 10
-2.8725900000000002
 20
-1.9538200000000001
 30
0.0
 10
-2.8395700000000001
 20
-2.2459200000000004
 30
0.0
 10
-2.8395700000000001
 20
-2.2459200000000004
 30
0.0
 10
-2.7227300000000003
 20
-3.2009600000000002
 30
0.0
 10
-2.4585700000000004
 20
-4.1687000000000003
 30
0.0
 10
-2.1207500000000001
 20
-5.0551600000000008
 30
0.0
 10
-2.1207500000000001
 20
-5.0551600000000008
 30
0.0
 10
-2.0039100000000003
 20
-5.3599600000000001
 30
0.0
 10
-1.9454900000000002
 20
-5.6571400000000001
 30
0.0
 10
-1.7854700000000001
 20
-5.9441600000000001
 30
0.0
 10
-1.7854700000000001
 20
-5.9441600000000001
 30
0.0
 10
-0.7491500000000001
 20
-6.5766200000000001
 30
0.0
 10
0.3913
 20
-7.3970400000000005
 30
0.0
 10
0.70118
 20
-8.6213200000000008
 30
0.0
 10
0.70118
 20
-8.6213200000000008
 30
0.0
 10
0.277
 20
-7.9837800000000003
 30
0.0
 10
-0.30973
 20
-7.3792600000000004
 30
0.0
 10
-0.9599700000000001
 20
-6.9271400000000005
 30
0.0
 10
-0.9599700000000001
 20
-6.9271400000000005
 30
0.0
 10
-1.0564900000000002
 20
-6.8738000000000001
 30
0.0
 10
-1.2774700000000001
 20
-6.6528200000000002
 30
0.0
 10
-1.3003300000000002
 20
-6.7341000000000006
 30
0.0
 10
-1.3003300000000002
 20
-6.7341000000000006
 30
0.0
 10
-1.2190500000000002
 20
-6.8865000000000007
 30
0.0
 10
-1.0234700000000001
 20
-7.0287400000000009
 30
0.0
 10
-1.03363
 20
-7.1938400000000007
 30
0.0
 10
-1.03363
 20
-7.1938400000000007
 30
0.0
 10
-1.2444500000000001
 20
-7.0973200000000007
 30
0.0
 10
-1.37907
 20
-6.8509400000000005
 30
0.0
 10
-1.5187700000000002
 20
-6.6629800000000001
 30
0.0
 10
-1.5187700000000002
 20
-6.6629800000000001
 30
0.0
 10
-2.11313
 20
-6.4724800000000009
 30
0.0
 10
-2.9640300000000002
 20
-6.1753000000000009
 30
0.0
 10
-3.5075900000000004
 20
-5.8222400000000007
 30
0.0
 10
-3.5075900000000004
 20
-5.8222400000000007
 30
0.0
 10
-4.72933
 20
-5.0272200000000007
 30
0.0
 10
-5.3592500000000003
 20
-3.8435800000000002
 30
0.0
 10
-4.8664900000000006
 20
-2.2103600000000001
 30
0.0
 10
-4.8664900000000006
 20
-2.2103600000000001
 30
0.0
 10
-4.9147500000000006
 20
-2.1494
 30
0.0
 10
-4.9985700000000008
 20
-2.1113
 30
0.0
 10
-5.0722300000000002
 20
-2.1113
 30
0.0
 10
-5.0722300000000002
 20
-2.1113
 30
0.0
 10
-5.5014900000000004
 20
-2.8428200000000001
 30
0.0
 10
-5.3541700000000008
 20
-0.97084
 30
0.0
 10
-5.5014900000000004
 20
-0.57206
 30
0.0
 10
-5.5014900000000004
 20
-0.57206
 30
0.0
 10
-5.5573700000000006
 20
-0.07676
 30
0.0
 10
-5.9612300000000005
 20
-0.16312
 30
0.0
 10
-6.1796700000000007
 20
-0.05136
 30
0.0
 10
-6.1796700000000007
 20
-0.05136
 30
0.0
 10
-4.2340300000000006
 20
2.6257900000000003
 30
0.0
 10
-4.5312100000000006
 20
6.8193300000000008
 30
0.0
 10
-1.5644900000000002
 20
8.5795500000000011
 30
0.0
  0
SPLINE
  5
26
100
AcDbEntity
  8
Ebene 1
100
AcDbSpline
210
0.0
220
0.0
230
1.0
 70
     1
 71
     3
 72
    12
 73
     8
 74
     0
 42
0.0000000001
 43
0.0000000001
 40
0.0
 40
0.0
 40
0.0
 40
0.0
 40
0.5
 40
0.5
 40
0.5
 40
0.5
 40
1.0
 40
1.0
 40
1.0
 40
1.0
 10
-4.2187900000000003
 20
-3.1654000000000004
 30
0.0
 10
-4.2645100000000005
 20
-3.7115000000000005
 30
0.0
 10
-4.1044900000000002
 20
-4.30586
 30
0.0
 10
-3.7387300000000003
 20
-4.7402000000000006
 30
0.0
 10
-3.7387300000000003
 20
-4.7402000000000006
 30
0.0
 10
-3.8454100000000002
 20
-4.2068000000000003
 30
0.0
 10
-3.9825700000000004
 20
-3.6378400000000002
 30
0.0
 10
-4.2187900000000003
 20
-3.1654000000000004
 30
0.0
  0
SPLINE
  5
27
100
AcDbEntity
  8
Ebene 1
100
AcDbSpline
210
0.0
220
0.0
230
1.0
 70
     1
 71
     3
 72
    16
 73
    12
 74
     0
 42
0.0000000001
 43
0.0000000001
 40
0.0
 40
0.0
 40
0.0
 40
0.0
 40
0.3333333333333333
 40
0.3333333333333333
 40
0.3333333333333333
 40
0.3333333333333333
 40
0.6666666666666666
 40
0.6666666666666666
 40
0.6666666666666666
 40
0.6666666666666666
 40
1.0
 40
1.0
 40
1.0
 40
1.0
 10
-3.2535900000000004
 20
-5.0881800000000004
 30
0.0
 10
-3.2535900000000004
 20
-5.0881800000000004
 30
0.0
 10
-3.3145500000000001
 20
-5.1262800000000004
 30
0.0
 10
-3.3145500000000001
 20
-5.1262800000000004
 30
0.0
 10
-3.3145500000000001
 20
-5.1262800000000004
 30
0.0
 10
-3.0148300000000003
 20
-5.4234600000000004
 30
0.0
 10
-2.61097
 20
-5.5987200000000001
 30
0.0
 10
-2.23759
 20
-5.7460400000000007
 30
0.0
 10
-2.23759
 20
-5.7460400000000007
 30
0.0
 10
-2.5017500000000004
 20
-5.4361600000000001
 30
0.0
 10
-2.8725900000000002
 20
-5.1999400000000007
 30
0.0
 10
-3.2535900000000004
 20
-5.0881800000000004
 30
0.0
  0
SPLINE
  5
28
100
AcDbEntity
  8
Ebene 1
 62
     7
100
AcDbSpline
210
0.0
220
0.0
230
1.0
 70
     1
 71
     3
 72
   120
 73
   116
 74
     0
 42
0.0000000001
 43
0.0000000001
 40
0.0
 40
0.0
 40
0.0
 40
0.0
 40
0.0344827586206897
 40
0.0344827586206897
 40
0.0344827586206897
 40
0.0344827586206897
 40
0.0689655172413793
 40
0.0689655172413793
 40
0.0689655172413793
 40
0.0689655172413793
 40
0.103448275862069
 40
0.103448275862069
 40
0.103448275862069
 40
0.103448275862069
 40
0.1379310344827586
 40
0.1379310344827586
 40
0.1379310344827586
 40
0.1379310344827586
 40
0.1724137931034483
 40
0.1724137931034483
 40
0.1724137931034483
 40
0.1724137931034483
 40
0.206896551724138
 40
0.206896551724138
 40
0.206896551724138
 40
0.206896551724138
 40
0.2413793103448276
 40
0.2413793103448276
 40
0.2413793103448276
 40
0.2413793103448276
 40
0.2758620689655173
 40
0.2758620689655173
 40
0.2758620689655173
 40
0.2758620689655173
 40
0.310344827586207
 40
0.310344827586207
 40
0.310344827586207
 40
0.310344827586207
 40
0.3448275862068966
 40
0.3448275862068966
 40
0.3448275862068966
 40
0.3448275862068966
 40
0.3793103448275863
 40
0.3793103448275863
 40
0.3793103448275863
 40
0.3793103448275863
 40
0.413793103448276
 40
0.413793103448276
 40
0.413793103448276
 40
0.413793103448276
 40
0.4482758620689656
 40
0.4482758620689656
 40
0.4482758620689656
 40
0.4482758620689656
 40
0.4827586206896553
 40
0.4827586206896553
 40
0.4827586206896553
 40
0.4827586206896553
 40
0.517241379310345
 40
0.517241379310345
 40
0.517241379310345
 40
0.517241379310345
 40
0.5517241379310346
 40
0.5517241379310346
 40
0.5517241379310346
 40
0.5517241379310346
 40
0.5862068965517242
 40
0.5862068965517242
 40
0.5862068965517242
 40
0.5862068965517242
 40
0.6206896551724138
 40
0.6206896551724138
 40
0.6206896551724138
 40
0.6206896551724138
 40
0.6551724137931034
 40
0.6551724137931034
 40
0.6551724137931034
 40
0.6551724137931034
 40
0.689655172413793
 40
0.689655172413793
 40
0.689655172413793
 40
0.689655172413793
 40
0.7241379310344827
 40
0.7241379310344827
 40
0.7241379310344827
 40
0.7241379310344827
 40
0.7586206896551723
 40
0.7586206896551723
 40
0.7586206896551723
 40
0.7586206896551723
 40
0.7931034482758619
 40
0.7931034482758619
 40
0.7931034482758619
 40
0.7931034482758619
 40
0.8275862068965515
 40
0.8275862068965515
 40
0.8275862068965515
 40
0.8275862068965515
 40
0.8620689655172411
 40
0.8620689655172411
 40
0.8620689655172411
 40
0.8620689655172411
 40
0.8965517241379307
 40
0.8965517241379307
 40
0.8965517241379307
 40
0.8965517241379307
 40
0.9310344827586203
 40
0.9310344827586203
 40
0.9310344827586203
 40
0.9310344827586203
 40
0.9655172413793099
 40
0.9655172413793099
 40
0.9655172413793099
 40
0.9655172413793099
 40
1.0
 40
1.0
 40
1.0
 40
1.0
 10
-1.7397500000000001
 20
8.3814299999999999
 30
0.0
 10
-1.8210300000000001
 20
8.0334500000000002
 30
0.0
 10
-2.1105900000000002
 20
8.1452100000000005
 30
0.0
 10
-2.2680700000000003
 20
7.7870700000000008
 30
0.0
 10
-2.2680700000000003
 20
7.7870700000000008
 30
0.0
 10
-3.1773900000000004
 20
2.2524100000000002
 30
0.0
 10
-3.7590500000000002
 20
-1.16896
 30
0.0
 10
-1.8896100000000002
 20
-5.9568600000000007
 30
0.0
 10
-1.8896100000000002
 20
-5.9568600000000007
 30
0.0
 10
-2.43825
 20
-5.2507400000000004
 30
0.0
 10
-2.5347700000000004
 20
-4.3566600000000006
 30
0.0
 10
-2.7303500000000001
 20
-3.5260800000000003
 30
0.0
 10
-2.7303500000000001
 20
-3.5260800000000003
 30
0.0
 10
-2.7303500000000001
 20
-3.5260800000000003
 30
0.0
 10
-3.0173700000000001
 20
-2.3272000000000004
 30
0.0
 10
-3.0173700000000001
 20
-2.3272000000000004
 30
0.0
 10
-3.0173700000000001
 20
-2.3272000000000004
 30
0.0
 10
-3.0834100000000002
 20
-2.0274800000000002
 30
0.0
 10
-3.0072100000000002
 20
-1.66934
 30
0.0
 10
-3.1519900000000001
 20
-1.3493000000000002
 30
0.0
 10
-3.1519900000000001
 20
-1.3493000000000002
 30
0.0
 10
-3.1316700000000002
 20
-1.6287
 30
0.0
 10
-3.1519900000000001
 20
-1.9487400000000001
 30
0.0
 10
-3.1291300000000004
 20
-2.2281400000000002
 30
0.0
 10
-3.1291300000000004
 20
-2.2281400000000002
 30
0.0
 10
-3.03261
 20
-3.4371800000000001
 30
0.0
 10
-2.7989300000000004
 20
-4.5852600000000008
 30
0.0
 10
-2.3747500000000001
 20
-5.4107600000000007
 30
0.0
 10
-2.3747500000000001
 20
-5.4107600000000007
 30
0.0
 10
-2.3747500000000001
 20
-5.4107600000000007
 30
0.0
 10
-2.7227300000000003
 20
-5.1389800000000001
 30
0.0
 10
-2.7227300000000003
 20
-5.1389800000000001
 30
0.0
 10
-2.7227300000000003
 20
-5.1389800000000001
 30
0.0
 10
-3.1494500000000003
 20
-4.9154600000000004
 30
0.0
 10
-3.5101300000000002
 20
-4.51668
 30
0.0
 10
-3.6498300000000001
 20
-4.0594800000000006
 30
0.0
 10
-3.6498300000000001
 20
-4.0594800000000006
 30
0.0
 10
-3.8225500000000001
 20
-3.5514800000000002
 30
0.0
 10
-3.8758900000000005
 20
-2.9926800000000005
 30
0.0
 10
-4.0079700000000003
 20
-2.4719800000000003
 30
0.0
 10
-4.0079700000000003
 20
-2.4719800000000003
 30
0.0
 10
-4.1984700000000004
 20
-1.7150600000000003
 30
0.0
 10
-4.0435300000000005
 20
-2.6320000000000001
 30
0.0
 10
-3.9724100000000004
 20
-2.9418800000000003
 30
0.0
 10
-3.9724100000000004
 20
-2.9418800000000003
 30
0.0
 10
-3.8555700000000002
 20
-3.5616400000000001
 30
0.0
 10
-3.6574500000000003
 20
-4.2474400000000001
 30
0.0
 10
-3.5228300000000004
 20
-4.8519600000000001
 30
0.0
 10
-3.5228300000000004
 20
-4.8519600000000001
 30
0.0
 10
-3.4999700000000002
 20
-4.9510200000000006
 30
0.0
 10
-3.4288500000000002
 20
-5.2126400000000004
 30
0.0
 10
-3.5202900000000001
 20
-5.0881800000000004
 30
0.0
 10
-3.5202900000000001
 20
-5.0881800000000004
 30
0.0
 10
-4.1146500000000001
 20
-3.3508200000000001
 30
0.0
 10
-4.3280099999999999
 20
-1.4661400000000002
 30
0.0
 10
-4.5312100000000006
 20
0.3677300000000001
 30
0.0
 10
-4.5312100000000006
 20
0.3677300000000001
 30
0.0
 10
-4.5972500000000007
 20
-0.473
 30
0.0
 10
-4.4499300000000002
 20
-1.3162800000000001
 30
0.0
 10
-4.39405
 20
-2.1494
 30
0.0
 10
-4.39405
 20
-2.1494
 30
0.0
 10
-4.5083500000000001
 20
-2.5329400000000004
 30
0.0
 10
-4.8664900000000006
 20
-1.9487400000000001
 30
0.0
 10
-5.0595300000000005
 20
-1.8496800000000002
 30
0.0
 10
-5.0595300000000005
 20
-1.8496800000000002
 30
0.0
 10
-5.3871900000000004
 20
-1.2299200000000001
 30
0.0
 10
-5.2982900000000006
 20
-0.4603
 30
0.0
 10
-5.2754300000000001
 20
0.23057
 30
0.0
 10
-5.2754300000000001
 20
0.23057
 30
0.0
 10
-5.3948100000000005
 20
0.49219
 30
0.0
 10
-5.3897300000000001
 20
-0.16312
 30
0.0
 10
-5.4710100000000006
 20
-0.27488
 30
0.0
 10
-5.4710100000000006
 20
-0.27488
 30
0.0
 10
-5.5954700000000006
 20
0.7157100000000001
 30
0.0
 10
-4.9452300000000005
 20
1.5970900000000001
 30
0.0
 10
-4.6683700000000004
 20
2.4886300000000001
 30
0.0
 10
-4.6683700000000004
 20
2.4886300000000001
 30
0.0
 10
-5.0874700000000006
 20
1.8866500000000002
 30
0.0
 10
-5.3135300000000001
 20
1.1322700000000001
 30
0.0
 10
-5.6691300000000009
 20
0.4947300000000001
 30
0.0
 10
-5.6691300000000009
 20
0.4947300000000001
 30
0.0
 10
-5.7605700000000004
 20
0.33217
 30
0.0
 10
-5.8291500000000003
 20
0.16199
 30
0.0
 10
-6.0069500000000007
 20
0.03245
 30
0.0
 10
-6.0069500000000007
 20
0.03245
 30
0.0
 10
-5.1789100000000001
 20
1.6072500000000001
 30
0.0
 10
-4.6709100000000001
 20
2.5495900000000002
 30
0.0
 10
-4.3838900000000001
 20
3.8907100000000003
 30
0.0
 10
-4.3838900000000001
 20
3.8907100000000003
 30
0.0
 10
-4.3153100000000002
 20
3.6316300000000004
 30
0.0
 10
-4.55661
 20
3.0829900000000001
 30
0.0
 10
-4.4296100000000003
 20
3.0474300000000003
 30
0.0
 10
-4.4296100000000003
 20
3.0474300000000003
 30
0.0
 10
-4.1883100000000004
 20
4.2259900000000004
 30
0.0
 10
-4.1298900000000005
 20
5.5290100000000004
 30
0.0
 10
-3.3297900000000005
 20
6.4967500000000005
 30
0.0
 10
-3.3297900000000005
 20
6.4967500000000005
 30
0.0
 10
-3.4923500000000001
 20
5.7144300000000001
 30
0.0
 10
-3.5939500000000004
 20
4.7466900000000001
 30
0.0
 10
-3.3907500000000002
 20
4.0151700000000003
 30
0.0
 10
-3.3907500000000002
 20
4.0151700000000003
 30
0.0
 10
-3.4694900000000004
 20
5.2673900000000007
 30
0.0
 10
-3.4313900000000004
 20
6.7329700000000008
 30
0.0
 10
-2.5093700000000001
 20
7.6372100000000005
 30
0.0
 10
-2.5093700000000001
 20
7.6372100000000005
 30
0.0
 10
-2.5449300000000004
 20
7.4390900000000002
 30
0.0
 10
-2.5703300000000002
 20
7.2409700000000008
 30
0.0
 10
-2.6211300000000004
 20
7.0555500000000002
 30
0.0
 10
-2.6211300000000004
 20
7.0555500000000002
 30
0.0
 10
-2.6744700000000003
 20
6.6466100000000008
 30
0.0
 10
-2.8344900000000002
 20
6.2351300000000007
 30
0.0
 10
-2.8192500000000003
 20
5.8134900000000007
 30
0.0
 10
-2.8192500000000003
 20
5.8134900000000007
 30
0.0
 10
-2.4839700000000002
 20
6.6466100000000008
 30
0.0
 10
-2.7227300000000003
 20
8.0207500000000014
 30
0.0
 10
-1.7397500000000001
 20
8.3814299999999999
 30
0.0
  0
SPLINE
  5
29
100
AcDbEntity
  8
Ebene 1
 62
     7
100
AcDbSpline
210
0.0
220
0.0
230
1.0
 70
     1
 71
     3
 72
    12
 73
     8
 74
     0
 42
0.0000000001
 43
0.0000000001
 40
0.0
 40
0.0
 40
0.0
 40
0.0
 40
0.5
 40
0.5
 40
0.5
 40
0.5
 40
1.0
 40
1.0
 40
1.0
 40
1.0
 10
-1.7397500000000001
 20
8.1325099999999999
 30
0.0
 10
-1.71435
 20
8.1198100000000011
 30
0.0
 10
-1.6991100000000001
 20
8.0969500000000014
 30
0.0
 10
-1.6914900000000002
 20
8.0715500000000002
 30
0.0
 10
-1.6914900000000002
 20
8.0715500000000002
 30
0.0
 10
-1.7194300000000002
 20
8.0715500000000002
 30
0.0
 10
-1.7473700000000001
 20
8.1096500000000002
 30
0.0
 10
-1.7397500000000001
 20
8.1325099999999999
 30
0.0
  0
SPLINE
  5
2A
100
AcDbEntity
  8
Ebene 1
 62
     7
100
AcDbSpline
210
0.0
220
0.0
230
1.0
 70
     1
 71
     3
 72
   480
 73
   476
 74
     0
 42
0.0000000001
 43
0.0000000001
 40
0.0
 40
0.0
 40
0.0
 40
0.0
 40
0.0084033613445378
 40
0.0084033613445378
 40
0.0084033613445378
 40
0.0084033613445378
 40
0.0168067226890756
 40
0.0168067226890756
 40
0.0168067226890756
 40
0.0168067226890756
 40
0.0252100840336134
 40
0.0252100840336134
 40
0.0252100840336134
 40
0.0252100840336134
 40
0.0336134453781513
 40
0.0336134453781513
 40
0.0336134453781513
 40
0.0336134453781513
 40
0.0420168067226891
 40
0.0420168067226891
 40
0.0420168067226891
 40
0.0420168067226891
 40
0.0504201680672269
 40
0.0504201680672269
 40
0.0504201680672269
 40
0.0504201680672269
 40
0.0588235294117647
 40
0.0588235294117647
 40
0.0588235294117647
 40
0.0588235294117647
 40
0.0672268907563025
 40
0.0672268907563025
 40
0.0672268907563025
 40
0.0672268907563025
 40
0.0756302521008403
 40
0.0756302521008403
 40
0.0756302521008403
 40
0.0756302521008403
 40
0.0840336134453781
 40
0.0840336134453781
 40
0.0840336134453781
 40
0.0840336134453781
 40
0.092436974789916
 40
0.092436974789916
 40
0.092436974789916
 40
0.092436974789916
 40
0.1008403361344538
 40
0.1008403361344538
 40
0.1008403361344538
 40
0.1008403361344538
 40
0.1092436974789916
 40
0.1092436974789916
 40
0.1092436974789916
 40
0.1092436974789916
 40
0.1176470588235294
 40
0.1176470588235294
 40
0.1176470588235294
 40
0.1176470588235294
 40
0.1260504201680672
 40
0.1260504201680672
 40
0.1260504201680672
 40
0.1260504201680672
 40
0.134453781512605
 40
0.134453781512605
 40
0.134453781512605
 40
0.134453781512605
 40
0.1428571428571429
 40
0.1428571428571429
 40
0.1428571428571429
 40
0.1428571428571429
 40
0.1512605042016807
 40
0.1512605042016807
 40
0.1512605042016807
 40
0.1512605042016807
 40
0.1596638655462185
 40
0.1596638655462185
 40
0.1596638655462185
 40
0.1596638655462185
 40
0.1680672268907563
 40
0.1680672268907563
 40
0.1680672268907563
 40
0.1680672268907563
 40
0.1764705882352941
 40
0.1764705882352941
 40
0.1764705882352941
 40
0.1764705882352941
 40
0.1848739495798319
 40
0.1848739495798319
 40
0.1848739495798319
 40
0.1848739495798319
 40
0.1932773109243697
 40
0.1932773109243697
 40
0.1932773109243697
 40
0.1932773109243697
 40
0.2016806722689075
 40
0.2016806722689075
 40
0.2016806722689075
 40
0.2016806722689075
 40
0.2100840336134454
 40
0.2100840336134454
 40
0.2100840336134454
 40
0.2100840336134454
 40
0.2184873949579832
 40
0.2184873949579832
 40
0.2184873949579832
 40
0.2184873949579832
 40
0.226890756302521
 40
0.226890756302521
 40
0.226890756302521
 40
0.226890756302521
 40
0.2352941176470588
 40
0.2352941176470588
 40
0.2352941176470588
 40
0.2352941176470588
 40
0.2436974789915966
 40
0.2436974789915966
 40
0.2436974789915966
 40
0.2436974789915966
 40
0.2521008403361345
 40
0.2521008403361345
 40
0.2521008403361345
 40
0.2521008403361345
 40
0.2605042016806723
 40
0.2605042016806723
 40
0.2605042016806723
 40
0.2605042016806723
 40
0.2689075630252101
 40
0.2689075630252101
 40
0.2689075630252101
 40
0.2689075630252101
 40
0.277310924369748
 40
0.277310924369748
 40
0.277310924369748
 40
0.277310924369748
 40
0.2857142857142858
 40
0.2857142857142858
 40
0.2857142857142858
 40
0.2857142857142858
 40
0.2941176470588237
 40
0.2941176470588237
 40
0.2941176470588237
 40
0.2941176470588237
 40
0.3025210084033615
 40
0.3025210084033615
 40
0.3025210084033615
 40
0.3025210084033615
 40
0.3109243697478993
 40
0.3109243697478993
 40
0.3109243697478993
 40
0.3109243697478993
 40
0.3193277310924372
 40
0.3193277310924372
 40
0.3193277310924372
 40
0.3193277310924372
 40
0.327731092436975
 40
0.327731092436975
 40
0.327731092436975
 40
0.327731092436975
 40
0.3361344537815129
 40
0.3361344537815129
 40
0.3361344537815129
 40
0.3361344537815129
 40
0.3445378151260507
 40
0.3445378151260507
 40
0.3445378151260507
 40
0.3445378151260507
 40
0.3529411764705885
 40
0.3529411764705885
 40
0.3529411764705885
 40
0.3529411764705885
 40
0.3613445378151264
 40
0.3613445378151264
 40
0.3613445378151264
 40
0.3613445378151264
 40
0.3697478991596642
 40
0.3697478991596642
 40
0.3697478991596642
 40
0.3697478991596642
 40
0.3781512605042021
 40
0.3781512605042021
 40
0.3781512605042021
 40
0.3781512605042021
 40
0.3865546218487399
 40
0.3865546218487399
 40
0.3865546218487399
 40
0.3865546218487399
 40
0.3949579831932777
 40
0.3949579831932777
 40
0.3949579831932777
 40
0.3949579831932777
 40
0.4033613445378156
 40
0.4033613445378156
 40
0.4033613445378156
 40
0.4033613445378156
 40
0.4117647058823534
 40
0.4117647058823534
 40
0.4117647058823534
 40
0.4117647058823534
 40
0.4201680672268913
 40
0.4201680672268913
 40
0.4201680672268913
 40
0.4201680672268913
 40
0.4285714285714291
 40
0.4285714285714291
 40
0.4285714285714291
 40
0.4285714285714291
 40
0.4369747899159669
 40
0.4369747899159669
 40
0.4369747899159669
 40
0.4369747899159669
 40
0.4453781512605048
 40
0.4453781512605048
 40
0.4453781512605048
 40
0.4453781512605048
 40
0.4537815126050426
 40
0.4537815126050426
 40
0.4537815126050426
 40
0.4537815126050426
 40
0.4621848739495805
 40
0.4621848739495805
 40
0.4621848739495805
 40
0.4621848739495805
 40
0.4705882352941183
 40
0.4705882352941183
 40
0.4705882352941183
 40
0.4705882352941183
 40
0.4789915966386562
 40
0.4789915966386562
 40
0.4789915966386562
 40
0.4789915966386562
 40
0.487394957983194
 40
0.487394957983194
 40
0.487394957983194
 40
0.487394957983194
 40
0.4957983193277318
 40
0.4957983193277318
 40
0.4957983193277318
 40
0.4957983193277318
 40
0.5042016806722697
 40
0.5042016806722697
 40
0.5042016806722697
 40
0.5042016806722697
 40
0.5126050420168075
 40
0.5126050420168075
 40
0.5126050420168075
 40
0.5126050420168075
 40
0.5210084033613452
 40
0.5210084033613452
 40
0.5210084033613452
 40
0.5210084033613452
 40
0.529411764705883
 40
0.529411764705883
 40
0.529411764705883
 40
0.529411764705883
 40
0.5378151260504208
 40
0.5378151260504208
 40
0.5378151260504208
 40
0.5378151260504208
 40
0.5462184873949586
 40
0.5462184873949586
 40
0.5462184873949586
 40
0.5462184873949586
 40
0.5546218487394964
 40
0.5546218487394964
 40
0.5546218487394964
 40
0.5546218487394964
 40
0.5630252100840342
 40
0.5630252100840342
 40
0.5630252100840342
 40
0.5630252100840342
 40
0.571428571428572
 40
0.571428571428572
 40
0.571428571428572
 40
0.571428571428572
 40
0.5798319327731097
 40
0.5798319327731097
 40
0.5798319327731097
 40
0.5798319327731097
 40
0.5882352941176475
 40
0.5882352941176475
 40
0.5882352941176475
 40
0.5882352941176475
 40
0.5966386554621853
 40
0.5966386554621853
 40
0.5966386554621853
 40
0.5966386554621853
 40
0.6050420168067231
 40
0.6050420168067231
 40
0.6050420168067231
 40
0.6050420168067231
 40
0.6134453781512609
 40
0.6134453781512609
 40
0.6134453781512609
 40
0.6134453781512609
 40
0.6218487394957987
 40
0.6218487394957987
 40
0.6218487394957987
 40
0.6218487394957987
 40
0.6302521008403365
 40
0.6302521008403365
 40
0.6302521008403365
 40
0.6302521008403365
 40
0.6386554621848742
 40
0.6386554621848742
 40
0.6386554621848742
 40
0.6386554621848742
 40
0.647058823529412
 40
0.647058823529412
 40
0.647058823529412
 40
0.647058823529412
 40
0.6554621848739498
 40
0.6554621848739498
 40
0.6554621848739498
 40
0.6554621848739498
 40
0.6638655462184876
 40
0.6638655462184876
 40
0.6638655462184876
 40
0.6638655462184876
 40
0.6722689075630254
 40
0.6722689075630254
 40
0.6722689075630254
 40
0.6722689075630254
 40
0.6806722689075632
 40
0.6806722689075632
 40
0.6806722689075632
 40
0.6806722689075632
 40
0.689075630252101
 40
0.689075630252101
 40
0.689075630252101
 40
0.689075630252101
 40
0.6974789915966387
 40
0.6974789915966387
 40
0.6974789915966387
 40
0.6974789915966387
 40
0.7058823529411765
 40
0.7058823529411765
 40
0.7058823529411765
 40
0.7058823529411765
 40
0.7142857142857143
 40
0.7142857142857143
 40
0.7142857142857143
 40
0.7142857142857143
 40
0.7226890756302521
 40
0.7226890756302521
 40
0.7226890756302521
 40
0.7226890756302521
 40
0.7310924369747899
 40
0.7310924369747899
 40
0.7310924369747899
 40
0.7310924369747899
 40
0.7394957983193277
 40
0.7394957983193277
 40
0.7394957983193277
 40
0.7394957983193277
 40
0.7478991596638654
 40
0.7478991596638654
 40
0.7478991596638654
 40
0.7478991596638654
 40
0.7563025210084032
 40
0.7563025210084032
 40
0.7563025210084032
 40
0.7563025210084032
 40
0.764705882352941
 40
0.764705882352941
 40
0.764705882352941
 40
0.764705882352941
 40
0.7731092436974788
 40
0.7731092436974788
 40
0.7731092436974788
 40
0.7731092436974788
 40
0.7815126050420166
 40
0.7815126050420166
 40
0.7815126050420166
 40
0.7815126050420166
 40
0.7899159663865544
 40
0.7899159663865544
 40
0.7899159663865544
 40
0.7899159663865544
 40
0.7983193277310922
 40
0.7983193277310922
 40
0.7983193277310922
 40
0.7983193277310922
 40
0.8067226890756299
 40
0.8067226890756299
 40
0.8067226890756299
 40
0.8067226890756299
 40
0.8151260504201677
 40
0.8151260504201677
 40
0.8151260504201677
 40
0.8151260504201677
 40
0.8235294117647055
 40
0.8235294117647055
 40
0.8235294117647055
 40
0.8235294117647055
 40
0.8319327731092433
 40
0.8319327731092433
 40
0.8319327731092433
 40
0.8319327731092433
 40
0.8403361344537811
 40
0.8403361344537811
 40
0.8403361344537811
 40
0.8403361344537811
 40
0.8487394957983189
 40
0.8487394957983189
 40
0.8487394957983189
 40
0.8487394957983189
 40
0.8571428571428567
 40
0.8571428571428567
 40
0.8571428571428567
 40
0.8571428571428567
 40
0.8655462184873944
 40
0.8655462184873944
 40
0.8655462184873944
 40
0.8655462184873944
 40
0.8739495798319322
 40
0.8739495798319322
 40
0.8739495798319322
 40
0.8739495798319322
 40
0.88235294117647
 40
0.88235294117647
 40
0.88235294117647
 40
0.88235294117647
 40
0.8907563025210078
 40
0.8907563025210078
 40
0.8907563025210078
 40
0.8907563025210078
 40
0.8991596638655456
 40
0.8991596638655456
 40
0.8991596638655456
 40
0.8991596638655456
 40
0.9075630252100834
 40
0.9075630252100834
 40
0.9075630252100834
 40
0.9075630252100834
 40
0.9159663865546212
 40
0.9159663865546212
 40
0.9159663865546212
 40
0.9159663865546212
 40
0.9243697478991589
 40
0.9243697478991589
 40
0.9243697478991589
 40
0.9243697478991589
 40
0.9327731092436967
 40
0.9327731092436967
 40
0.9327731092436967
 40
0.9327731092436967
 40
0.9411764705882345
 40
0.9411764705882345
 40
0.9411764705882345
 40
0.9411764705882345
 40
0.9495798319327723
 40
0.9495798319327723
 40
0.9495798319327723
 40
0.9495798319327723
 40
0.9579831932773101
 40
0.9579831932773101
 40
0.9579831932773101
 40
0.9579831932773101
 40
0.9663865546218479
 40
0.9663865546218479
 40
0.9663865546218479
 40
0.9663865546218479
 40
0.9747899159663856
 40
0.9747899159663856
 40
0.9747899159663856
 40
0.9747899159663856
 40
0.9831932773109234
 40
0.9831932773109234
 40
0.9831932773109234
 40
0.9831932773109234
 40
0.9915966386554612
 40
0.9915966386554612
 40
0.9915966386554612
 40
0.9915966386554612
 40
1.0
 40
1.0
 40
1.0
 40
1.0
 10
-0.8939300000000001
 20
1.1627500000000002
 30
0.0
 10
-0.90917
 20
1.27451
 30
0.0
 10
-0.8964700000000001
 20
1.4091300000000002
 30
0.0
 10
-0.9980700000000001
 20
1.4980300000000002
 30
0.0
 10
-0.9980700000000001
 20
1.4980300000000002
 30
0.0
 10
-0.9980700000000001
 20
1.4980300000000002
 30
0.0
 10
-1.1174500000000001
 20
1.5335900000000002
 30
0.0
 10
-1.1174500000000001
 20
1.5335900000000002
 30
0.0
 10
-1.1174500000000001
 20
1.5335900000000002
 30
0.0
 10
-1.4501900000000001
 20
1.4980300000000002
 30
0.0
 10
-1.7473700000000001
 20
1.3354700000000002
 30
0.0
 10
-2.0750300000000004
 20
1.27451
 30
0.0
 10
-2.0750300000000004
 20
1.27451
 30
0.0
 10
-1.8845300000000003
 20
1.4599300000000002
 30
0.0
 10
-0.9142500000000001
 20
1.6199500000000002
 30
0.0
 10
-1.2317500000000001
 20
1.69615
 30
0.0
 10
-1.2317500000000001
 20
1.69615
 30
0.0
 10
-1.5594100000000002
 20
1.6453500000000001
 30
0.0
 10
-1.8591300000000002
 20
1.4218300000000001
 30
0.0
 10
-2.1817100000000003
 20
1.4091300000000002
 30
0.0
 10
-2.1817100000000003
 20
1.4091300000000002
 30
0.0
 10
-2.0369300000000004
 20
1.6453500000000001
 30
0.0
 10
-1.5695700000000001
 20
1.5843900000000002
 30
0.0
 10
-1.3054100000000002
 20
1.7317100000000001
 30
0.0
 10
-1.3054100000000002
 20
1.7317100000000001
 30
0.0
 10
-0.7974100000000001
 20
2.17875
 30
0.0
 10
-2.4966700000000004
 20
1.9679300000000002
 30
0.0
 10
-1.9988300000000001
 20
2.0796900000000003
 30
0.0
 10
-1.9988300000000001
 20
2.0796900000000003
 30
0.0
 10
-1.9150100000000001
 20
2.09239
 30
0.0
 10
-1.8286500000000001
 20
2.1050900000000001
 30
0.0
 10
-1.7397500000000001
 20
2.1050900000000001
 30
0.0
 10
-1.7397500000000001
 20
2.1050900000000001
 30
0.0
 10
-1.6051300000000002
 20
2.1406500000000004
 30
0.0
 10
-1.4730500000000002
 20
2.09239
 30
0.0
 10
-1.3409700000000002
 20
2.0796900000000003
 30
0.0
 10
-1.3409700000000002
 20
2.0796900000000003
 30
0.0
 10
-0.86599
 20
2.1279500000000002
 30
0.0
 10
-1.8896100000000002
 20
2.2295500000000001
 30
0.0
 10
-2.1105900000000002
 20
2.2041500000000003
 30
0.0
 10
-2.1105900000000002
 20
2.2041500000000003
 30
0.0
 10
-2.14107
 20
2.2955900000000002
 30
0.0
 10
-1.9937500000000001
 20
2.2803500000000003
 30
0.0
 10
-1.8946900000000002
 20
2.2905100000000003
 30
0.0
 10
-1.8946900000000002
 20
2.2905100000000003
 30
0.0
 10
-1.7803900000000001
 20
2.3006700000000002
 30
0.0
 10
-1.6457700000000002
 20
2.26003
 30
0.0
 10
-1.62799
 20
2.3641700000000001
 30
0.0
 10
-1.62799
 20
2.3641700000000001
 30
0.0
 10
-2.10297
 20
2.2778100000000001
 30
0.0
 10
-2.1359900000000001
 20
2.7375500000000001
 30
0.0
 10
-2.4915900000000004
 20
2.4759300000000004
 30
0.0
 10
-2.4915900000000004
 20
2.4759300000000004
 30
0.0
 10
-2.5144500000000001
 20
2.5749900000000001
 30
0.0
 10
-2.1791700000000001
 20
2.9712300000000003
 30
0.0
 10
-2.7151100000000001
 20
2.63849
 30
0.0
 10
-2.7151100000000001
 20
2.63849
 30
0.0
 10
-2.73543
 20
2.71469
 30
0.0
 10
-2.7836900000000004
 20
2.8391500000000001
 30
0.0
 10
-2.7963900000000002
 20
2.9661500000000003
 30
0.0
 10
-2.7963900000000002
 20
2.9661500000000003
 30
0.0
 10
-2.8446500000000001
 20
3.4335100000000001
 30
0.0
 10
-2.7303500000000001
 20
3.4639900000000003
 30
0.0
 10
-2.7074900000000004
 20
3.4817700000000005
 30
0.0
 10
-2.7074900000000004
 20
3.4817700000000005
 30
0.0
 10
-2.8802100000000004
 20
3.1210900000000001
 30
0.0
 10
-2.3315700000000001
 20
2.7502500000000003
 30
0.0
 10
-2.3468100000000001
 20
3.1591900000000002
 30
0.0
 10
-2.3468100000000001
 20
3.1591900000000002
 30
0.0
 10
-2.5703300000000002
 20
2.9966300000000001
 30
0.0
 10
-2.4788900000000003
 20
3.4309700000000003
 30
0.0
 10
-2.5093700000000001
 20
3.5935300000000003
 30
0.0
 10
-2.5093700000000001
 20
3.5935300000000003
 30
0.0
 10
-2.5093700000000001
 20
3.5935300000000003
 30
0.0
 10
-2.4992100000000002
 20
3.5808300000000002
 30
0.0
 10
-2.4992100000000002
 20
3.5808300000000002
 30
0.0
 10
-2.4992100000000002
 20
3.5808300000000002
 30
0.0
 10
-2.10297
 20
3.1591900000000002
 30
0.0
 10
-2.2401300000000002
 20
3.2074500000000001
 30
0.0
 10
-2.1105900000000002
 20
2.8112100000000004
 30
0.0
 10
-2.1105900000000002
 20
2.8112100000000004
 30
0.0
 10
-2.0724900000000002
 20
2.8112100000000004
 30
0.0
 10
-2.0394700000000001
 20
2.8366100000000003
 30
0.0
 10
-2.0089900000000003
 20
2.8620100000000002
 30
0.0
 10
-2.0089900000000003
 20
2.8620100000000002
 30
0.0
 10
-1.9378700000000002
 20
2.8848700000000003
 30
0.0
 10
-1.6457700000000002
 20
2.9966300000000001
 30
0.0
 10
-1.8515100000000002
 20
3.0093300000000003
 30
0.0
 10
-1.8515100000000002
 20
3.0093300000000003
 30
0.0
 10
-1.1733300000000002
 20
3.1947500000000004
 30
0.0
 10
0.3278
 20
5.1556300000000004
 30
0.0
 10
1.4073000000000002
 20
5.9862100000000007
 30
0.0
 10
1.4073000000000002
 20
5.9862100000000007
 30
0.0
 10
1.4581000000000002
 20
5.7880900000000004
 30
0.0
 10
1.02376
 20
5.4909100000000004
 30
0.0
 10
1.1837800000000001
 20
5.4172500000000001
 30
0.0
 10
1.1837800000000001
 20
5.4172500000000001
 30
0.0
 10
1.5978000000000001
 20
5.8642900000000004
 30
0.0
 10
1.8848200000000002
 20
6.4332500000000001
 30
0.0
 10
2.5147400000000002
 20
6.5348500000000005
 30
0.0
 10
2.5147400000000002
 20
6.5348500000000005
 30
0.0
 10
2.3852000000000002
 20
6.6212100000000005
 30
0.0
 10
2.1972400000000003
 20
6.4713500000000002
 30
0.0
 10
2.0423
 20
6.5450100000000004
 30
0.0
 10
2.0423
 20
6.5450100000000004
 30
0.0
 10
1.6994000000000002
 20
6.6567700000000007
 30
0.0
 10
1.3336400000000002
 20
6.5450100000000004
 30
0.0
 10
1.0034400000000001
 20
6.4713500000000002
 30
0.0
 10
1.0034400000000001
 20
6.4713500000000002
 30
0.0
 10
1.2041000000000002
 20
6.5958100000000002
 30
0.0
 10
1.4504800000000002
 20
6.6694700000000005
 30
0.0
 10
1.6841600000000001
 20
6.7329700000000008
 30
0.0
 10
1.6841600000000001
 20
6.7329700000000008
 30
0.0
 10
1.9102200000000003
 20
6.8066300000000002
 30
0.0
 10
2.1845400000000001
 20
6.7685300000000002
 30
0.0
 10
2.3902800000000002
 20
6.8574300000000008
 30
0.0
 10
2.3902800000000002
 20
6.8574300000000008
 30
0.0
 10
1.5089000000000001
 20
6.8802900000000005
 30
0.0
 10
0.5259200000000001
 20
7.0555500000000002
 30
0.0
 10
-0.34529
 20
6.8193300000000008
 30
0.0
 10
-0.34529
 20
6.8193300000000008
 30
0.0
 10
-0.13447
 20
7.0174500000000002
 30
0.0
 10
0.36336
 20
7.0301500000000008
 30
0.0
 10
0.6326000000000001
 20
7.0530100000000004
 30
0.0
 10
0.6326000000000001
 20
7.0530100000000004
 30
0.0
 10
1.0034400000000001
 20
7.0860300000000009
 30
0.0
 10
1.3057000000000001
 20
7.1266700000000007
 30
0.0
 10
1.65622
 20
7.0834900000000003
 30
0.0
 10
1.65622
 20
7.0834900000000003
 30
0.0
 10
1.9711800000000002
 20
7.0453900000000003
 30
0.0
 10
2.16168
 20
7.0047500000000005
 30
0.0
 10
2.4893400000000003
 20
7.0326900000000006
 30
0.0
 10
2.4893400000000003
 20
7.0326900000000006
 30
0.0
 10
2.6493600000000002
 20
7.0453900000000003
 30
0.0
 10
2.8703400000000001
 20
7.2638300000000005
 30
0.0
 10
3.0303600000000004
 20
7.2790700000000008
 30
0.0
 10
3.0303600000000004
 20
7.2790700000000008
 30
0.0
 10
4.0768400000000007
 20
7.3882900000000005
 30
0.0
 10
5.0471200000000005
 20
7.3578100000000006
 30
0.0
 10
5.7253000000000007
 20
7.4009900000000002
 30
0.0
 10
5.7253000000000007
 20
7.4009900000000002
 30
0.0
 10
4.5188000000000006
 20
7.1292100000000005
 30
0.0
 10
3.9371400000000003
 20
6.8447300000000002
 30
0.0
 10
3.1014800000000005
 20
6.1868700000000008
 30
0.0
 10
3.1014800000000005
 20
6.1868700000000008
 30
0.0
 10
3.3529400000000003
 20
6.3113300000000008
 30
0.0
 10
3.7085400000000002
 20
6.4103900000000005
 30
0.0
 10
4.0057200000000002
 20
6.3341900000000004
 30
0.0
 10
4.0057200000000002
 20
6.3341900000000004
 30
0.0
 10
3.8507800000000003
 20
6.6212100000000005
 30
0.0
 10
3.9752400000000003
 20
6.6212100000000005
 30
0.0
 10
4.1251000000000007
 20
6.3595900000000007
 30
0.0
 10
4.1251000000000007
 20
6.3595900000000007
 30
0.0
 10
4.1251000000000007
 20
6.3595900000000007
 30
0.0
 10
4.7677200000000006
 20
6.2859300000000005
 30
0.0
 10
4.7677200000000006
 20
6.2859300000000005
 30
0.0
 10
4.7677200000000006
 20
6.2859300000000005
 30
0.0
 10
4.7677200000000006
 20
6.2859300000000005
 30
0.0
 10
5.4662200000000007
 20
6.2605300000000002
 30
0.0
 10
5.4662200000000007
 20
6.2605300000000002
 30
0.0
 10
5.4662200000000007
 20
6.2605300000000002
 30
0.0
 10
4.0362
 20
5.9862100000000007
 30
0.0
 10
2.2124800000000002
 20
6.6694700000000005
 30
0.0
 10
0.9043800000000001
 20
4.7339900000000004
 30
0.0
 10
0.9043800000000001
 20
4.7339900000000004
 30
0.0
 10
1.2625200000000001
 20
4.8965500000000004
 30
0.0
 10
1.6206600000000002
 20
5.5290100000000004
 30
0.0
 10
2.0651600000000001
 20
5.7271300000000007
 30
0.0
 10
2.0651600000000001
 20
5.7271300000000007
 30
0.0
 10
1.2447400000000002
 20
4.6349300000000007
 30
0.0
 10
0.6326000000000001
 20
3.3954100000000005
 30
0.0
 10
-0.3656100000000001
 20
2.42767
 30
0.0
 10
-0.3656100000000001
 20
2.42767
 30
0.0
 10
-0.70089
 20
2.2651100000000004
 30
0.0
 10
-0.55611
 20
2.8112100000000004
 30
0.0
 10
-0.3757700000000001
 20
2.9229700000000003
 30
0.0
 10
-0.3757700000000001
 20
2.9229700000000003
 30
0.0
 10
-0.3757700000000001
 20
2.9229700000000003
 30
0.0
 10
0.28462
 20
3.6925900000000005
 30
0.0
 10
0.28462
 20
3.6925900000000005
 30
0.0
 10
0.28462
 20
3.6925900000000005
 30
0.0
 10
0.47004
 20
3.9288100000000004
 30
0.0
 10
0.7392800000000001
 20
4.1396300000000004
 30
0.0
 10
0.8129400000000001
 20
4.4368100000000004
 30
0.0
 10
0.8129400000000001
 20
4.4368100000000004
 30
0.0
 10
0.25922
 20
3.8424500000000004
 30
0.0
 10
-0.29195
 20
3.1337900000000003
 30
0.0
 10
-0.9828300000000001
 20
2.6613500000000001
 30
0.0
 10
-0.9828300000000001
 20
2.6613500000000001
 30
0.0
 10
-0.7542300000000001
 20
2.3286100000000003
 30
0.0
 10
-0.6500900000000001
 20
2.0415900000000002
 30
0.0
 10
-0.22591
 20
2.2524100000000002
 30
0.0
 10
-0.22591
 20
2.2524100000000002
 30
0.0
 10
-0.06081
 20
2.2524100000000002
 30
0.0
 10
0.29732
 20
1.8688700000000003
 30
0.0
 10
0.27954
 20
2.0415900000000002
 30
0.0
 10
0.27954
 20
2.0415900000000002
 30
0.0
 10
0.10682
 20
2.1533500000000001
 30
0.0
 10
1.06948
 20
2.2651100000000004
 30
0.0
 10
0.6503800000000001
 20
2.0542899999999999
 30
0.0
 10
0.6503800000000001
 20
2.0542899999999999
 30
0.0
 10
0.6681600000000001
 20
1.8993500000000001
 30
0.0
 10
0.9450200000000001
 20
2.20669
 30
0.0
 10
1.2599800000000001
 20
2.3184500000000003
 30
0.0
 10
1.2599800000000001
 20
2.3184500000000003
 30
0.0
 10
1.3488800000000001
 20
2.3489300000000002
 30
0.0
 10
1.4276200000000001
 20
2.2447900000000001
 30
0.0
 10
1.6054200000000001
 20
2.3514700000000004
 30
0.0
 10
1.6054200000000001
 20
2.3514700000000004
 30
0.0
 10
0.9907400000000001
 20
2.3946500000000004
 30
0.0
 10
1.8086200000000001
 20
2.9483700000000002
 30
0.0
 10
2.0143600000000004
 20
3.5020900000000004
 30
0.0
 10
2.0143600000000004
 20
3.5020900000000004
 30
0.0
 10
2.0702400000000001
 20
3.6544900000000005
 30
0.0
 10
2.1489800000000003
 20
3.7738700000000005
 30
0.0
 10
2.2124800000000002
 20
3.7535500000000002
 30
0.0
 10
2.2124800000000002
 20
3.7535500000000002
 30
0.0
 10
2.2023200000000003
 20
3.6671900000000002
 30
0.0
 10
2.0219800000000001
 20
3.4309700000000003
 30
0.0
 10
2.1413600000000002
 20
3.4690700000000003
 30
0.0
 10
2.1413600000000002
 20
3.4690700000000003
 30
0.0
 10
2.1413600000000002
 20
3.4690700000000003
 30
0.0
 10
2.2404200000000003
 20
3.6417900000000003
 30
0.0
 10
2.2404200000000003
 20
3.6417900000000003
 30
0.0
 10
2.2404200000000003
 20
3.6417900000000003
 30
0.0
 10
2.4410800000000004
 20
3.9034100000000005
 30
0.0
 10
2.5731600000000001
 20
4.2259900000000004
 30
0.0
 10
2.8271600000000001
 20
4.4368100000000004
 30
0.0
 10
2.8271600000000001
 20
4.4368100000000004
 30
0.0
 10
3.0989400000000002
 20
4.5358700000000001
 30
0.0
 10
3.0710000000000002
 20
4.6349300000000007
 30
0.0
 10
2.8043
 20
4.5104700000000006
 30
0.0
 10
2.8043
 20
4.5104700000000006
 30
0.0
 10
2.9211400000000003
 20
4.6857300000000004
 30
0.0
 10
3.1345000000000001
 20
4.8457500000000007
 30
0.0
 10
3.3300800000000002
 20
4.8584500000000004
 30
0.0
 10
3.3300800000000002
 20
4.8584500000000004
 30
0.0
 10
2.8170000000000002
 20
4.1015300000000003
 30
0.0
 10
1.9788000000000001
 20
3.3192100000000004
 30
0.0
 10
1.5139800000000001
 20
2.4505300000000001
 30
0.0
 10
1.5139800000000001
 20
2.4505300000000001
 30
0.0
 10
1.6663800000000002
 20
2.5876900000000003
 30
0.0
 10
1.8264000000000002
 20
2.7731100000000004
 30
0.0
 10
1.9661000000000002
 20
2.9356700000000004
 30
0.0
 10
1.9661000000000002
 20
2.9356700000000004
 30
0.0
 10
1.9661000000000002
 20
2.9356700000000004
 30
0.0
 10
2.4436200000000001
 20
3.5071700000000003
 30
0.0
 10
2.4436200000000001
 20
3.5071700000000003
 30
0.0
 10
2.4436200000000001
 20
3.5071700000000003
 30
0.0
 10
2.4436200000000001
 20
3.5071700000000003
 30
0.0
 10
2.6112600000000001
 20
3.6925900000000005
 30
0.0
 10
2.6112600000000001
 20
3.6925900000000005
 30
0.0
 10
2.6112600000000001
 20
3.6925900000000005
 30
0.0
 10
2.5096600000000002
 20
3.0956900000000003
 30
0.0
 10
2.2937600000000002
 20
2.51403
 30
0.0
 10
2.21502
 20
1.9298300000000002
 30
0.0
 10
2.21502
 20
1.9298300000000002
 30
0.0
 10
2.21502
 20
1.9298300000000002
 30
0.0
 10
2.3902800000000002
 20
2.51403
 30
0.0
 10
2.3902800000000002
 20
2.51403
 30
0.0
 10
2.3902800000000002
 20
2.51403
 30
0.0
 10
2.3902800000000002
 20
2.51403
 30
0.0
 10
2.5376000000000003
 20
3.0601300000000005
 30
0.0
 10
2.5376000000000003
 20
3.0601300000000005
 30
0.0
 10
2.5376000000000003
 20
3.0601300000000005
 30
0.0
 10
2.5376000000000003
 20
3.0601300000000005
 30
0.0
 10
2.6290400000000003
 20
3.4081100000000002
 30
0.0
 10
2.6290400000000003
 20
3.4081100000000002
 30
0.0
 10
2.6290400000000003
 20
3.4081100000000002
 30
0.0
 10
3.0506800000000003
 20
4.5739700000000001
 30
0.0
 10
2.2404200000000003
 20
1.78251
 30
0.0
 10
2.6265000000000001
 20
2.8620100000000002
 30
0.0
 10
2.6265000000000001
 20
2.8620100000000002
 30
0.0
 10
2.6696800000000001
 20
2.9839300000000004
 30
0.0
 10
2.6976200000000001
 20
3.1210900000000001
 30
0.0
 10
2.7281000000000004
 20
3.2582500000000003
 30
0.0
 10
2.7281000000000004
 20
3.2582500000000003
 30
0.0
 10
2.8627200000000004
 20
3.5808300000000002
 30
0.0
 10
2.9516200000000001
 20
3.9542100000000002
 30
0.0
 10
3.1573600000000002
 20
4.2513900000000007
 30
0.0
 10
3.1573600000000002
 20
4.2513900000000007
 30
0.0
 10
3.4469200000000004
 20
3.0347300000000001
 30
0.0
 10
2.9262200000000003
 20
1.8180700000000001
 30
0.0
 10
2.88558
 20
0.6522100000000001
 30
0.0
 10
2.88558
 20
0.6522100000000001
 30
0.0
 10
2.88558
 20
0.6522100000000001
 30
0.0
 10
3.1192600000000001
 20
1.6580500000000002
 30
0.0
 10
3.1192600000000001
 20
1.6580500000000002
 30
0.0
 10
3.1192600000000001
 20
1.6580500000000002
 30
0.0
 10
3.1370400000000003
 20
1.7063100000000002
 30
0.0
 10
3.1827600000000005
 20
1.9806300000000001
 30
0.0
 10
3.1954600000000002
 20
1.8434700000000002
 30
0.0
 10
3.1954600000000002
 20
1.8434700000000002
 30
0.0
 10
3.2564200000000003
 20
1.5081900000000001
 30
0.0
 10
3.3275400000000004
 20
2.6867500000000004
 30
0.0
 10
3.3580200000000002
 20
2.9966300000000001
 30
0.0
 10
3.3580200000000002
 20
2.9966300000000001
 30
0.0
 10
3.4342200000000003
 20
3.4817700000000005
 30
0.0
 10
3.3351600000000001
 20
3.9542100000000002
 30
0.0
 10
3.3427800000000003
 20
4.4114100000000001
 30
0.0
 10
3.3427800000000003
 20
4.4114100000000001
 30
0.0
 10
3.6069400000000003
 20
3.1083900000000004
 30
0.0
 10
3.1954600000000002
 20
1.8180700000000001
 30
0.0
 10
3.1954600000000002
 20
0.5048900000000001
 30
0.0
 10
3.1954600000000002
 20
0.5048900000000001
 30
0.0
 10
3.3326200000000004
 20
0.76397
 30
0.0
 10
3.2437200000000002
 20
1.27451
 30
0.0
 10
3.3681800000000002
 20
1.6072500000000001
 30
0.0
 10
3.3681800000000002
 20
1.6072500000000001
 30
0.0
 10
3.4621600000000003
 20
0.15437
 30
0.0
 10
3.6272600000000002
 20
-3.0765000000000002
 30
0.0
 10
2.8982800000000002
 20
-5.3193200000000003
 30
0.0
 10
2.8982800000000002
 20
-5.3193200000000003
 30
0.0
 10
2.8627200000000004
 20
-5.4310800000000006
 30
0.0
 10
2.7966800000000003
 20
-5.5961800000000004
 30
0.0
 10
2.7535000000000003
 20
-5.6342800000000004
 30
0.0
 10
2.7535000000000003
 20
-5.6342800000000004
 30
0.0
 10
3.0202000000000004
 20
-4.7300400000000007
 30
0.0
 10
3.2183200000000003
 20
-3.8105600000000002
 30
0.0
 10
3.2945200000000003
 20
-2.8555200000000003
 30
0.0
 10
3.2945200000000003
 20
-2.8555200000000003
 30
0.0
 10
3.3478600000000003
 20
-1.9131800000000001
 30
0.0
 10
3.4367600000000005
 20
-0.9200400000000001
 30
0.0
 10
3.3935800000000005
 20
0.01975
 30
0.0
 10
3.3935800000000005
 20
0.01975
 30
0.0
 10
3.3250000000000002
 20
-0.06406
 30
0.0
 10
3.3986600000000005
 20
-0.21392
 30
0.0
 10
3.3580200000000002
 20
-0.32568
 30
0.0
 10
3.3580200000000002
 20
-0.32568
 30
0.0
 10
3.3580200000000002
 20
-0.32568
 30
0.0
 10
3.2716600000000002
 20
-1.5652000000000001
 30
0.0
 10
3.2716600000000002
 20
-1.5652000000000001
 30
0.0
 10
3.2716600000000002
 20
-1.5652000000000001
 30
0.0
 10
3.13958
 20
-2.3348200000000001
 30
0.0
 10
3.1929200000000004
 20
-3.1781000000000001
 30
0.0
 10
2.84748
 20
-3.8613600000000003
 30
0.0
 10
2.84748
 20
-3.8613600000000003
 30
0.0
 10
2.5249000000000001
 20
-3.4498800000000003
 30
0.0
 10
2.8652600000000001
 20
-2.7183600000000001
 30
0.0
 10
2.8703400000000001
 20
-2.3856200000000003
 30
0.0
 10
2.8703400000000001
 20
-2.3856200000000003
 30
0.0
 10
2.7509600000000001
 20
-2.57104
 30
0.0
 10
2.71286
 20
-2.7818600000000004
 30
0.0
 10
2.6874600000000002
 20
-3.0053800000000002
 30
0.0
 10
2.6874600000000002
 20
-3.0053800000000002
 30
0.0
 10
2.6874600000000002
 20
-3.0053800000000002
 30
0.0
 10
2.6036400000000004
 20
-3.5133800000000002
 30
0.0
 10
2.6036400000000004
 20
-3.5133800000000002
 30
0.0
 10
2.6036400000000004
 20
-3.5133800000000002
 30
0.0
 10
2.5604600000000004
 20
-2.5202400000000003
 30
0.0
 10
3.0735400000000004
 20
-1.5779000000000001
 30
0.0
 10
2.9592400000000003
 20
-0.6228600000000001
 30
0.0
 10
2.9592400000000003
 20
-0.6228600000000001
 30
0.0
 10
2.9592400000000003
 20
-0.6228600000000001
 30
0.0
 10
2.8373200000000001
 20
-1.3416800000000002
 30
0.0
 10
2.8373200000000001
 20
-1.3416800000000002
 30
0.0
 10
2.8373200000000001
 20
-1.3416800000000002
 30
0.0
 10
2.8043
 20
-1.6642600000000001
 30
0.0
 10
2.7458800000000001
 20
-1.9741400000000002
 30
0.0
 10
2.6036400000000004
 20
-2.2611600000000003
 30
0.0
 10
2.6036400000000004
 20
-2.2611600000000003
 30
0.0
 10
2.6036400000000004
 20
-2.2611600000000003
 30
0.0
 10
2.5172800000000004
 20
-2.3957800000000002
 30
0.0
 10
2.5172800000000004
 20
-2.3957800000000002
 30
0.0
 10
2.5172800000000004
 20
-2.3957800000000002
 30
0.0
 10
2.1566000000000001
 20
-1.5271000000000001
 30
0.0
 10
2.79922
 20
-0.6228600000000001
 30
0.0
 10
2.7585800000000003
 20
0.26867
 30
0.0
 10
2.7585800000000003
 20
0.26867
 30
0.0
 10
2.7585800000000003
 20
0.26867
 30
0.0
 10
2.5757000000000003
 20
-0.473
 30
0.0
 10
2.5757000000000003
 20
-0.473
 30
0.0
 10
2.5757000000000003
 20
-0.473
 30
0.0
 10
2.5757000000000003
 20
-0.473
 30
0.0
 10
2.3318600000000003
 20
-1.3670800000000001
 30
0.0
 10
2.3318600000000003
 20
-1.3670800000000001
 30
0.0
 10
2.3318600000000003
 20
-1.3670800000000001
 30
0.0
 10
1.9381600000000001
 20
-2.2967200000000001
 30
0.0
 10
1.5520800000000001
 20
-0.76002
 30
0.0
 10
1.8187800000000001
 20
-0.33838
 30
0.0
 10
1.8187800000000001
 20
-0.33838
 30
0.0
 10
1.8670400000000003
 20
0.20517
 30
0.0
 10
2.0575400000000004
 20
0.76397
 30
0.0
 10
1.9813400000000001
 20
1.3100700000000001
 30
0.0
 10
1.9813400000000001
 20
1.3100700000000001
 30
0.0
 10
1.7857600000000002
 20
0.7766700000000001
 30
0.0
 10
1.6917800000000001
 20
0.15691
 30
0.0
 10
1.4758800000000001
 20
-0.38664
 30
0.0
 10
1.4758800000000001
 20
-0.38664
 30
0.0
 10
1.0034400000000001
 20
-0.7701800000000001
 30
0.0
 10
1.01868
 20
0.35503
 30
0.0
 10
1.18632
 20
0.6522100000000001
 30
0.0
 10
1.18632
 20
0.6522100000000001
 30
0.0
 10
1.2447400000000002
 20
0.8884300000000001
 30
0.0
 10
1.2980800000000001
 20
1.1246500000000001
 30
0.0
 10
1.3717400000000002
 20
1.3481700000000001
 30
0.0
 10
1.3717400000000002
 20
1.3481700000000001
 30
0.0
 10
1.4149200000000002
 20
1.5970900000000001
 30
0.0
 10
1.56986
 20
1.8434700000000002
 30
0.0
 10
1.5927200000000001
 20
2.09239
 30
0.0
 10
1.5927200000000001
 20
2.09239
 30
0.0
 10
1.2015600000000002
 20
1.36087
 30
0.0
 10
0.9628000000000001
 20
0.4413900000000001
 30
0.0
 10
0.5691000000000001
 20
-0.3002800000000001
 30
0.0
 10
0.5691000000000001
 20
-0.3002800000000001
 30
0.0
 10
0.5691000000000001
 20
-0.3002800000000001
 30
0.0
 10
0.68086
 20
0.07055
 30
0.0
 10
0.68086
 20
0.07055
 30
0.0
 10
0.68086
 20
0.07055
 30
0.0
 10
0.7164200000000001
 20
0.13151
 30
0.0
 10
0.7494400000000001
 20
0.19247
 30
0.0
 10
0.76722
 20
0.26867
 30
0.0
 10
0.76722
 20
0.26867
 30
0.0
 10
0.76722
 20
0.26867
 30
0.0
 10
0.8485
 20
0.4540900000000001
 30
0.0
 10
0.8485
 20
0.4540900000000001
 30
0.0
 10
0.8485
 20
0.4540900000000001
 30
0.0
 10
0.74436
 20
0.57855
 30
0.0
 10
0.5640200000000001
 20
-0.22662
 30
0.0
 10
0.52846
 20
0.16961
 30
0.0
 10
0.52846
 20
0.16961
 30
0.0
 10
0.33034
 20
0.4540900000000001
 30
0.0
 10
1.1177400000000002
 20
1.1627500000000002
 30
0.0
 10
0.7316600000000001
 20
0.8757300000000001
 30
0.0
 10
0.7316600000000001
 20
0.8757300000000001
 30
0.0
 10
0.3989200000000001
 20
0.51505
 30
0.0
 10
-0.17765
 20
0.25597
 30
0.0
 10
0.4395600000000001
 20
0.7766700000000001
 30
0.0
 10
0.4395600000000001
 20
0.7766700000000001
 30
0.0
 10
0.22874
 20
0.70301
 30
0.0
 10
0.00268
 20
0.42869
 30
0.0
 10
-0.22591
 20
0.63951
 30
0.0
 10
-0.22591
 20
0.63951
 30
0.0
 10
-0.53579
 20
0.7157100000000001
 30
0.0
 10
-0.8964700000000001
 20
0.6776100000000001
 30
0.0
 10
-1.2165100000000002
 20
0.66491
 30
0.0
 10
-1.2165100000000002
 20
0.66491
 30
0.0
 10
-1.33081
 20
0.6776100000000001
 30
0.0
 10
-1.4933700000000001
 20
0.61665
 30
0.0
 10
-1.5771900000000001
 20
0.6776100000000001
 30
0.0
 10
-1.5771900000000001
 20
0.6776100000000001
 30
0.0
 10
-1.5136900000000002
 20
0.7512700000000001
 30
0.0
 10
-1.4273300000000002
 20
0.8401700000000001
 30
0.0
 10
-1.3282700000000001
 20
0.8630300000000001
 30
0.0
 10
-1.3282700000000001
 20
0.8630300000000001
 30
0.0
 10
-0.7288300000000001
 20
0.3804300000000001
 30
0.0
 10
-0.63993
 20
1.7952100000000002
 30
0.0
 10
0.64022
 20
1.7291700000000001
 30
0.0
 10
0.64022
 20
1.7291700000000001
 30
0.0
 10
0.6884800000000001
 20
1.8206100000000001
 30
0.0
 10
0.27446
 20
1.9018900000000001
 30
0.0
 10
0.18048
 20
1.9526900000000003
 30
0.0
 10
0.18048
 20
1.9526900000000003
 30
0.0
 10
0.03062
 20
2.00095
 30
0.0
 10
-0.19543
 20
1.8434700000000002
 30
0.0
 10
-0.23861
 20
2.0288900000000001
 30
0.0
 10
-0.23861
 20
2.0288900000000001
 30
0.0
 10
-0.19543
 20
2.30321
 30
0.0
 10
-0.43419
 20
1.9298300000000002
 30
0.0
 10
-0.4367300000000001
 20
1.8180700000000001
 30
0.0
 10
-0.4367300000000001
 20
1.8180700000000001
 30
0.0
 10
-0.5383300000000001
 20
1.48533
 30
0.0
 10
-0.47229
 20
2.0669900000000001
 30
0.0
 10
-0.57389
 20
1.7571100000000002
 30
0.0
 10
-0.57389
 20
1.7571100000000002
 30
0.0
 10
-0.57389
 20
1.7571100000000002
 30
0.0
 10
-0.5992900000000001
 20
1.6453500000000001
 30
0.0
 10
-0.5992900000000001
 20
1.6453500000000001
 30
0.0
 10
-0.5992900000000001
 20
1.6453500000000001
 30
0.0
 10
-0.5992900000000001
 20
1.6453500000000001
 30
0.0
 10
-0.68057
 20
1.4980300000000002
 30
0.0
 10
-0.68057
 20
1.4980300000000002
 30
0.0
 10
-0.68057
 20
1.4980300000000002
 30
0.0
 10
-0.8355100000000001
 20
1.9552300000000002
 30
0.0
 10
-0.7720100000000001
 20
1.2973700000000001
 30
0.0
 10
-0.8939300000000001
 20
1.1627500000000002
 30
0.0
  0
SPLINE
  5
2B
100
AcDbEntity
  8
Ebene 1
 62
     7
100
AcDbSpline
210
0.0
220
0.0
230
1.0
 70
     1
 71
     3
 72
    24
 73
    20
 74
     0
 42
0.0000000001
 43
0.0000000001
 40
0.0
 40
0.0
 40
0.0
 40
0.0
 40
0.2
 40
0.2
 40
0.2
 40
0.2
 40
0.4
 40
0.4
 40
0.4
 40
0.4
 40
0.6000000000000001
 40
0.6000000000000001
 40
0.6000000000000001
 40
0.6000000000000001
 40
0.8
 40
0.8
 40
0.8
 40
0.8
 40
1.0
 40
1.0
 40
1.0
 40
1.0
 10
1.9559400000000002
 20
7.2282700000000002
 30
0.0
 10
1.9559400000000002
 20
7.2282700000000002
 30
0.0
 10
2.2658200000000002
 20
7.2282700000000002
 30
0.0
 10
2.2658200000000002
 20
7.2282700000000002
 30
0.0
 10
2.2658200000000002
 20
7.2282700000000002
 30
0.0
 10
2.2658200000000002
 20
7.2282700000000002
 30
0.0
 10
2.50204
 20
7.2282700000000002
 30
0.0
 10
2.50204
 20
7.2282700000000002
 30
0.0
 10
2.50204
 20
7.2282700000000002
 30
0.0
 10
2.5553800000000004
 20
7.2282700000000002
 30
0.0
 10
2.6138000000000003
 20
7.2282700000000002
 30
0.0
 10
2.6595200000000001
 20
7.2028700000000008
 30
0.0
 10
2.6595200000000001
 20
7.2028700000000008
 30
0.0
 10
2.3623400000000001
 20
7.1546100000000008
 30
0.0
 10
2.0042
 20
7.1165100000000008
 30
0.0
 10
1.7070200000000002
 20
7.1774700000000005
 30
0.0
 10
1.7070200000000002
 20
7.1774700000000005
 30
0.0
 10
1.7070200000000002
 20
7.1774700000000005
 30
0.0
 10
1.9559400000000002
 20
7.2282700000000002
 30
0.0
 10
1.9559400000000002
 20
7.2282700000000002
 30
0.0
  0
SPLINE
  5
2C
100
AcDbEntity
  8
Ebene 1
100
AcDbSpline
210
0.0
220
0.0
230
1.0
 70
     1
 71
     3
 72
    48
 73
    44
 74
     0
 42
0.0000000001
 43
0.0000000001
 40
0.0
 40
0.0
 40
0.0
 40
0.0
 40
0.0909090909090909
 40
0.0909090909090909
 40
0.0909090909090909
 40
0.0909090909090909
 40
0.1818181818181818
 40
0.1818181818181818
 40
0.1818181818181818
 40
0.1818181818181818
 40
0.2727272727272727
 40
0.2727272727272727
 40
0.2727272727272727
 40
0.2727272727272727
 40
0.3636363636363637
 40
0.3636363636363637
 40
0.3636363636363637
 40
0.3636363636363637
 40
0.4545454545454546
 40
0.4545454545454546
 40
0.4545454545454546
 40
0.4545454545454546
 40
0.5454545454545455
 40
0.5454545454545455
 40
0.5454545454545455
 40
0.5454545454545455
 40
0.6363636363636365
 40
0.6363636363636365
 40
0.6363636363636365
 40
0.6363636363636365
 40
0.7272727272727274
 40
0.7272727272727274
 40
0.7272727272727274
 40
0.7272727272727274
 40
0.8181818181818183
 40
0.8181818181818183
 40
0.8181818181818183
 40
0.8181818181818183
 40
0.9090909090909093
 40
0.9090909090909093
 40
0.9090909090909093
 40
0.9090909090909093
 40
1.0
 40
1.0
 40
1.0
 40
1.0
 10
3.9295200000000001
 20
7.2028700000000008
 30
0.0
 10
3.9523800000000002
 20
7.2028700000000008
 30
0.0
 10
4.0082599999999999
 20
7.2155700000000005
 30
0.0
 10
3.9879400000000005
 20
7.1673100000000005
 30
0.0
 10
3.9879400000000005
 20
7.1673100000000005
 30
0.0
 10
3.7847400000000002
 20
7.0047500000000005
 30
0.0
 10
3.6247200000000004
 20
6.7939300000000005
 30
0.0
 10
3.3605600000000004
 20
6.6948700000000008
 30
0.0
 10
3.3605600000000004
 20
6.6948700000000008
 30
0.0
 10
3.2208600000000001
 20
6.5094500000000002
 30
0.0
 10
2.9744800000000002
 20
6.3722900000000005
 30
0.0
 10
2.76112
 20
6.4713500000000002
 30
0.0
 10
2.76112
 20
6.4713500000000002
 30
0.0
 10
2.76112
 20
6.4713500000000002
 30
0.0
 10
2.97194
 20
6.5221500000000008
 30
0.0
 10
2.97194
 20
6.5221500000000008
 30
0.0
 10
2.97194
 20
6.5221500000000008
 30
0.0
 10
3.0608400000000002
 20
6.5450100000000004
 30
0.0
 10
3.2767400000000002
 20
6.6694700000000005
 30
0.0
 10
3.2259400000000005
 20
6.7329700000000008
 30
0.0
 10
3.2259400000000005
 20
6.7329700000000008
 30
0.0
 10
3.0659200000000002
 20
6.8193300000000008
 30
0.0
 10
2.6900000000000004
 20
6.6212100000000005
 30
0.0
 10
2.8373200000000001
 20
6.8675900000000007
 30
0.0
 10
2.8373200000000001
 20
6.8675900000000007
 30
0.0
 10
2.6773000000000002
 20
6.8929900000000002
 30
0.0
 10
2.5655400000000004
 20
6.8066300000000002
 30
0.0
 10
2.6341200000000002
 20
6.6466100000000008
 30
0.0
 10
2.6341200000000002
 20
6.6466100000000008
 30
0.0
 10
2.6061800000000002
 20
6.6339100000000002
 30
0.0
 10
2.5807800000000003
 20
6.6466100000000008
 30
0.0
 10
2.5553800000000004
 20
6.6567700000000007
 30
0.0
 10
2.5553800000000004
 20
6.6567700000000007
 30
0.0
 10
2.5045800000000003
 20
6.7202700000000002
 30
0.0
 10
2.4080600000000003
 20
6.7329700000000008
 30
0.0
 10
2.42584
 20
6.8320300000000005
 30
0.0
 10
2.42584
 20
6.8320300000000005
 30
0.0
 10
2.4791800000000004
 20
6.8929900000000002
 30
0.0
 10
2.5655400000000004
 20
6.9183900000000005
 30
0.0
 10
2.63666
 20
6.9564900000000005
 30
0.0
 10
2.63666
 20
6.9564900000000005
 30
0.0
 10
3.0887800000000003
 20
6.9564900000000005
 30
0.0
 10
3.5180400000000005
 20
7.0784100000000008
 30
0.0
 10
3.9295200000000001
 20
7.2028700000000008
 30
0.0
  0
SPLINE
  5
2D
100
AcDbEntity
  8
Ebene 1
 62
     7
100
AcDbSpline
210
0.0
220
0.0
230
1.0
 70
     1
 71
     3
 72
    12
 73
     8
 74
     0
 42
0.0000000001
 43
0.0000000001
 40
0.0
 40
0.0
 40
0.0
 40
0.0
 40
0.5
 40
0.5
 40
0.5
 40
0.5
 40
1.0
 40
1.0
 40
1.0
 40
1.0
 10
5.0141
 20
7.1520700000000001
 30
0.0
 10
5.0445800000000007
 20
7.1647700000000007
 30
0.0
 10
5.0344200000000008
 20
7.0149100000000004
 30
0.0
 10
5.0293400000000004
 20
6.989510000000001
 30
0.0
 10
5.0293400000000004
 20
6.989510000000001
 30
0.0
 10
4.9988600000000005
 20
6.9768100000000004
 30
0.0
 10
5.0141
 20
7.1393700000000004
 30
0.0
 10
5.0141
 20
7.1520700000000001
 30
0.0
  0
SPLINE
  5
2E
100
AcDbEntity
  8
Ebene 1
 62
     7
100
AcDbSpline
210
0.0
220
0.0
230
1.0
 70
     1
 71
     3
 72
    12
 73
     8
 74
     0
 42
0.0000000001
 43
0.0000000001
 40
0.0
 40
0.0
 40
0.0
 40
0.0
 40
0.5
 40
0.5
 40
0.5
 40
0.5
 40
1.0
 40
1.0
 40
1.0
 40
1.0
 10
3.3834200000000001
 20
6.9310900000000002
 30
0.0
 10
3.4570800000000004
 20
6.9183900000000005
 30
0.0
 10
3.3402400000000001
 20
6.8802900000000005
 30
0.0
 10
3.3707200000000004
 20
6.9183900000000005
 30
0.0
 10
3.3707200000000004
 20
6.9183900000000005
 30
0.0
 10
3.3707200000000004
 20
6.9183900000000005
 30
0.0
 10
3.3834200000000001
 20
6.9310900000000002
 30
0.0
 10
3.3834200000000001
 20
6.9310900000000002
 30
0.0
  0
SPLINE
  5
2F
100
AcDbEntity
  8
Ebene 1
 62
     7
100
AcDbSpline
210
0.0
220
0.0
230
1.0
 70
     1
 71
     3
 72
    16
 73
    12
 74
     0
 42
0.0000000001
 43
0.0000000001
 40
0.0
 40
0.0
 40
0.0
 40
0.0
 40
0.3333333333333333
 40
0.3333333333333333
 40
0.3333333333333333
 40
0.3333333333333333
 40
0.6666666666666666
 40
0.6666666666666666
 40
0.6666666666666666
 40
0.6666666666666666
 40
1.0
 40
1.0
 40
1.0
 40
1.0
 10
3.1091000000000002
 20
6.8574300000000008
 30
0.0
 10
3.1091000000000002
 20
6.8574300000000008
 30
0.0
 10
3.3300800000000002
 20
6.8320300000000005
 30
0.0
 10
3.3300800000000002
 20
6.8320300000000005
 30
0.0
 10
3.3300800000000002
 20
6.8320300000000005
 30
0.0
 10
3.2716600000000002
 20
6.7685300000000002
 30
0.0
 10
3.1548200000000004
 20
6.7939300000000005
 30
0.0
 10
3.0887800000000003
 20
6.8320300000000005
 30
0.0
 10
3.0887800000000003
 20
6.8320300000000005
 30
0.0
 10
3.0887800000000003
 20
6.8320300000000005
 30
0.0
 10
3.1091000000000002
 20
6.8574300000000008
 30
0.0
 10
3.1091000000000002
 20
6.8574300000000008
 30
0.0
  0
SPLINE
  5
30
100
AcDbEntity
  8
Ebene 1
 62
     7
100
AcDbSpline
210
0.0
220
0.0
230
1.0
 70
     1
 71
     3
 72
    12
 73
     8
 74
     0
 42
0.0000000001
 43
0.0000000001
 40
0.0
 40
0.0
 40
0.0
 40
0.0
 40
0.5
 40
0.5
 40
0.5
 40
0.5
 40
1.0
 40
1.0
 40
1.0
 40
1.0
 10
4.7499400000000005
 20
6.5145300000000006
 30
0.0
 10
4.8007400000000002
 20
6.5018300000000009
 30
0.0
 10
4.7778800000000006
 20
6.3799100000000006
 30
0.0
 10
4.7524800000000003
 20
6.3443500000000004
 30
0.0
 10
4.7524800000000003
 20
6.3443500000000004
 30
0.0
 10
4.6940600000000003
 20
6.3062500000000004
 30
0.0
 10
4.7448600000000001
 20
6.4713500000000002
 30
0.0
 10
4.7499400000000005
 20
6.5145300000000006
 30
0.0
  0
SPLINE
  5
31
100
AcDbEntity
  8
Ebene 1
 62
     7
100
AcDbSpline
210
0.0
220
0.0
230
1.0
 70
     1
 71
     3
 72
    12
 73
     8
 74
     0
 42
0.0000000001
 43
0.0000000001
 40
0.0
 40
0.0
 40
0.0
 40
0.0
 40
0.5
 40
0.5
 40
0.5
 40
0.5
 40
1.0
 40
1.0
 40
1.0
 40
1.0
 10
3.7542600000000004
 20
6.4967500000000005
 30
0.0
 10
3.7898200000000002
 20
6.4840500000000008
 30
0.0
 10
3.7999800000000001
 20
6.4459500000000007
 30
0.0
 10
3.8025200000000003
 20
6.4103900000000005
 30
0.0
 10
3.8025200000000003
 20
6.4103900000000005
 30
0.0
 10
3.7263200000000003
 20
6.3722900000000005
 30
0.0
 10
3.6907600000000005
 20
6.4713500000000002
 30
0.0
 10
3.7542600000000004
 20
6.4967500000000005
 30
0.0
  0
SPLINE
  5
32
100
AcDbEntity
  8
Ebene 1
 62
     7
100
AcDbSpline
210
0.0
220
0.0
230
1.0
 70
     1
 71
     3
 72
    12
 73
     8
 74
     0
 42
0.0000000001
 43
0.0000000001
 40
0.0
 40
0.0
 40
0.0
 40
0.0
 40
0.5
 40
0.5
 40
0.5
 40
0.5
 40
1.0
 40
1.0
 40
1.0
 40
1.0
 10
5.43574
 20
6.4027700000000003
 30
0.0
 10
5.4763800000000007
 20
6.4154700000000009
 30
0.0
 10
5.4789200000000005
 20
6.3519700000000006
 30
0.0
 10
5.4713000000000003
 20
6.3265700000000002
 30
0.0
 10
5.4713000000000003
 20
6.3265700000000002
 30
0.0
 10
5.4255800000000001
 20
6.3164100000000003
 30
0.0
 10
5.4103400000000006
 20
6.3773700000000009
 30
0.0
 10
5.43574
 20
6.4027700000000003
 30
0.0
  0
SPLINE
  5
33
100
AcDbEntity
  8
Ebene 1
 62
     7
100
AcDbSpline
210
0.0
220
0.0
230
1.0
 70
     1
 71
     3
 72
    12
 73
     8
 74
     0
 42
0.0000000001
 43
0.0000000001
 40
0.0
 40
0.0
 40
0.0
 40
0.0
 40
0.5
 40
0.5
 40
0.5
 40
0.5
 40
1.0
 40
1.0
 40
1.0
 40
1.0
 10
5.5779800000000002
 20
6.3113300000000008
 30
0.0
 10
5.5779800000000002
 20
6.3113300000000008
 30
0.0
 10
5.7608600000000001
 20
6.2986300000000002
 30
0.0
 10
5.7608600000000001
 20
6.2986300000000002
 30
0.0
 10
5.7608600000000001
 20
6.2986300000000002
 30
0.0
 10
5.7176800000000005
 20
6.2859300000000005
 30
0.0
 10
5.6135400000000004
 20
6.2605300000000002
 30
0.0
 10
5.5779800000000002
 20
6.3113300000000008
 30
0.0
  0
SPLINE
  5
34
100
AcDbEntity
  8
Ebene 1
 62
     7
100
AcDbSpline
210
0.0
220
0.0
230
1.0
 70
     1
 71
     3
 72
    28
 73
    24
 74
     0
 42
0.0000000001
 43
0.0000000001
 40
0.0
 40
0.0
 40
0.0
 40
0.0
 40
0.1666666666666667
 40
0.1666666666666667
 40
0.1666666666666667
 40
0.1666666666666667
 40
0.3333333333333333
 40
0.3333333333333333
 40
0.3333333333333333
 40
0.3333333333333333
 40
0.5
 40
0.5
 40
0.5
 40
0.5
 40
0.6666666666666666
 40
0.6666666666666666
 40
0.6666666666666666
 40
0.6666666666666666
 40
0.8333333333333333
 40
0.8333333333333333
 40
0.8333333333333333
 40
0.8333333333333333
 40
1.0
 40
1.0
 40
1.0
 40
1.0
 10
3.5180400000000005
 20
5.4782100000000007
 30
0.0
 10
3.5637600000000003
 20
5.4782100000000007
 30
0.0
 10
3.6298000000000004
 20
5.4909100000000004
 30
0.0
 10
3.6526600000000005
 20
5.4401100000000007
 30
0.0
 10
3.6526600000000005
 20
5.4401100000000007
 30
0.0
 10
3.4240600000000003
 20
5.4172500000000001
 30
0.0
 10
3.3935800000000005
 20
5.2064300000000001
 30
0.0
 10
3.3123000000000005
 20
5.0311700000000004
 30
0.0
 10
3.3123000000000005
 20
5.0311700000000004
 30
0.0
 10
3.3986600000000005
 20
4.9956100000000001
 30
0.0
 10
3.4393000000000002
 20
5.1556300000000004
 30
0.0
 10
3.5180400000000005
 20
5.1810300000000007
 30
0.0
 10
3.5180400000000005
 20
5.1810300000000007
 30
0.0
 10
3.5536000000000003
 20
5.2191300000000007
 30
0.0
 10
3.5790000000000002
 20
5.1556300000000004
 30
0.0
 10
3.5663000000000005
 20
5.1200700000000001
 30
0.0
 10
3.5663000000000005
 20
5.1200700000000001
 30
0.0
 10
3.4393000000000002
 20
5.0946700000000007
 30
0.0
 10
3.3554800000000005
 20
4.9702100000000007
 30
0.0
 10
3.2742000000000004
 20
4.8965500000000004
 30
0.0
 10
3.2742000000000004
 20
4.8965500000000004
 30
0.0
 10
3.1649800000000003
 20
5.1556300000000004
 30
0.0
 10
3.3834200000000001
 20
5.3054900000000007
 30
0.0
 10
3.5180400000000005
 20
5.4782100000000007
 30
0.0
  0
SPLINE
  5
35
100
AcDbEntity
  8
Ebene 1
 62
     7
100
AcDbSpline
210
0.0
220
0.0
230
1.0
 70
     1
 71
     3
 72
    16
 73
    12
 74
     0
 42
0.0000000001
 43
0.0000000001
 40
0.0
 40
0.0
 40
0.0
 40
0.0
 40
0.3333333333333333
 40
0.3333333333333333
 40
0.3333333333333333
 40
0.3333333333333333
 40
0.6666666666666666
 40
0.6666666666666666
 40
0.6666666666666666
 40
0.6666666666666666
 40
1.0
 40
1.0
 40
1.0
 40
1.0
 10
-2.5449300000000004
 20
5.4299500000000007
 30
0.0
 10
-2.5449300000000004
 20
5.4299500000000007
 30
0.0
 10
-2.4788900000000003
 20
3.9415100000000005
 30
0.0
 10
-2.4788900000000003
 20
3.9415100000000005
 30
0.0
 10
-2.4788900000000003
 20
3.9415100000000005
 30
0.0
 10
-2.4788900000000003
 20
3.9415100000000005
 30
0.0
 10
-2.5093700000000001
 20
3.7433900000000002
 30
0.0
 10
-2.5093700000000001
 20
3.7433900000000002
 30
0.0
 10
-2.5093700000000001
 20
3.7433900000000002
 30
0.0
 10
-2.5652500000000003
 20
4.28695
 30
0.0
 10
-2.6262100000000004
 20
4.8838500000000007
 30
0.0
 10
-2.5449300000000004
 20
5.4299500000000007
 30
0.0
  0
SPLINE
  5
36
100
AcDbEntity
  8
Ebene 1
 62
     7
100
AcDbSpline
210
0.0
220
0.0
230
1.0
 70
     1
 71
     3
 72
    16
 73
    12
 74
     0
 42
0.0000000001
 43
0.0000000001
 40
0.0
 40
0.0
 40
0.0
 40
0.0
 40
0.3333333333333333
 40
0.3333333333333333
 40
0.3333333333333333
 40
0.3333333333333333
 40
0.6666666666666666
 40
0.6666666666666666
 40
0.6666666666666666
 40
0.6666666666666666
 40
1.0
 40
1.0
 40
1.0
 40
1.0
 10
0.30494
 20
5.2064300000000001
 30
0.0
 10
0.404
 20
5.1937300000000004
 30
0.0
 10
0.3151000000000001
 20
5.0819700000000001
 30
0.0
 10
0.26684
 20
5.0692700000000004
 30
0.0
 10
0.26684
 20
5.0692700000000004
 30
0.0
 10
0.23128
 20
5.1073700000000004
 30
0.0
 10
0.1881
 20
5.1429300000000007
 30
0.0
 10
0.17286
 20
5.1810300000000007
 30
0.0
 10
0.17286
 20
5.1810300000000007
 30
0.0
 10
0.17286
 20
5.1810300000000007
 30
0.0
 10
0.30494
 20
5.2064300000000001
 30
0.0
 10
0.30494
 20
5.2064300000000001
 30
0.0
  0
SPLINE
  5
37
100
AcDbEntity
  8
Ebene 1
 62
     7
100
AcDbSpline
210
0.0
220
0.0
230
1.0
 70
     1
 71
     3
 72
    12
 73
     8
 74
     0
 42
0.0000000001
 43
0.0000000001
 40
0.0
 40
0.0
 40
0.0
 40
0.0
 40
0.5
 40
0.5
 40
0.5
 40
0.5
 40
1.0
 40
1.0
 40
1.0
 40
1.0
 10
0.18048
 20
5.0083100000000007
 30
0.0
 10
0.25668
 20
4.9956100000000001
 30
0.0
 10
0.03062
 20
4.9194100000000001
 30
0.0
 10
0.10682
 20
4.9829100000000004
 30
0.0
 10
0.10682
 20
4.9829100000000004
 30
0.0
 10
0.10682
 20
4.9829100000000004
 30
0.0
 10
0.18048
 20
5.0083100000000007
 30
0.0
 10
0.18048
 20
5.0083100000000007
 30
0.0
  0
SPLINE
  5
38
100
AcDbEntity
  8
Ebene 1
100
AcDbSpline
210
0.0
220
0.0
230
1.0
 70
     1
 71
     3
 72
    32
 73
    28
 74
     0
 42
0.0000000001
 43
0.0000000001
 40
0.0
 40
0.0
 40
0.0
 40
0.0
 40
0.1428571428571429
 40
0.1428571428571429
 40
0.1428571428571429
 40
0.1428571428571429
 40
0.2857142857142857
 40
0.2857142857142857
 40
0.2857142857142857
 40
0.2857142857142857
 40
0.4285714285714286
 40
0.4285714285714286
 40
0.4285714285714286
 40
0.4285714285714286
 40
0.5714285714285714
 40
0.5714285714285714
 40
0.5714285714285714
 40
0.5714285714285714
 40
0.7142857142857142
 40
0.7142857142857142
 40
0.7142857142857142
 40
0.7142857142857142
 40
0.857142857142857
 40
0.857142857142857
 40
0.857142857142857
 40
0.857142857142857
 40
1.0
 40
1.0
 40
1.0
 40
1.0
 10
-2.9792700000000001
 20
4.7974900000000007
 30
0.0
 10
-3.0859500000000004
 20
3.2709500000000005
 30
0.0
 10
-3.1672300000000004
 20
1.57169
 30
0.0
 10
-3.2027900000000002
 20
-0.0285
 30
0.0
 10
-3.2027900000000002
 20
-0.0285
 30
0.0
 10
-3.2586700000000004
 20
-0.0539
 30
0.0
 10
-3.2612100000000002
 20
0.19501
 30
0.0
 10
-3.2637500000000004
 20
0.31947
 30
0.0
 10
-3.2637500000000004
 20
0.31947
 30
0.0
 10
-3.2967700000000004
 20
1.19577
 30
0.0
 10
-3.2205700000000004
 20
2.1406500000000004
 30
0.0
 10
-3.2027900000000002
 20
3.0220300000000004
 30
0.0
 10
-3.2027900000000002
 20
3.0220300000000004
 30
0.0
 10
-3.1926300000000003
 20
3.1591900000000002
 30
0.0
 10
-3.2586700000000004
 20
3.2455500000000002
 30
0.0
 10
-3.2637500000000004
 20
3.0601300000000005
 30
0.0
 10
-3.2637500000000004
 20
3.0601300000000005
 30
0.0
 10
-3.3526500000000001
 20
2.8366100000000003
 30
0.0
 10
-3.2967700000000004
 20
2.5622900000000004
 30
0.0
 10
-3.3526500000000001
 20
2.3387700000000002
 30
0.0
 10
-3.3526500000000001
 20
2.3387700000000002
 30
0.0
 10
-3.5025100000000005
 20
3.0144100000000003
 30
0.0
 10
-3.2434300000000005
 20
3.7230700000000003
 30
0.0
 10
-3.0834100000000002
 20
4.4063300000000005
 30
0.0
 10
-3.0834100000000002
 20
4.4063300000000005
 30
0.0
 10
-3.0529300000000004
 20
4.5384100000000007
 30
0.0
 10
-2.9818100000000003
 20
5.0184700000000007
 30
0.0
 10
-2.9792700000000001
 20
4.7974900000000007
 30
0.0
  0
SPLINE
  5
39
100
AcDbEntity
  8
Ebene 1
 62
     7
100
AcDbSpline
210
0.0
220
0.0
230
1.0
 70
     1
 71
     3
 72
    12
 73
     8
 74
     0
 42
0.0000000001
 43
0.0000000001
 40
0.0
 40
0.0
 40
0.0
 40
0.0
 40
0.5
 40
0.5
 40
0.5
 40
0.5
 40
1.0
 40
1.0
 40
1.0
 40
1.0
 10
-0.25131
 20
4.5866700000000007
 30
0.0
 10
-0.22591
 20
4.5993700000000004
 30
0.0
 10
-0.20305
 20
4.5612700000000004
 30
0.0
 10
-0.21575
 20
4.5358700000000001
 30
0.0
 10
-0.21575
 20
4.5358700000000001
 30
0.0
 10
-0.23353
 20
4.5485700000000007
 30
0.0
 10
-0.25385
 20
4.5612700000000004
 30
0.0
 10
-0.25131
 20
4.5866700000000007
 30
0.0
  0
SPLINE
  5
3A
100
AcDbEntity
  8
Ebene 1
 62
     7
100
AcDbSpline
210
0.0
220
0.0
230
1.0
 70
     1
 71
     3
 72
    12
 73
     8
 74
     0
 42
0.0000000001
 43
0.0000000001
 40
0.0
 40
0.0
 40
0.0
 40
0.0
 40
0.5
 40
0.5
 40
0.5
 40
0.5
 40
1.0
 40
1.0
 40
1.0
 40
1.0
 10
-2.6947900000000002
 20
4.49777
 30
0.0
 10
-2.6287500000000001
 20
4.2132900000000006
 30
0.0
 10
-2.6033500000000003
 20
3.8424500000000004
 30
0.0
 10
-2.7278100000000003
 20
3.5681300000000005
 30
0.0
 10
-2.7278100000000003
 20
3.5681300000000005
 30
0.0
 10
-2.7328900000000003
 20
3.8780100000000002
 30
0.0
 10
-2.7176500000000003
 20
4.1878900000000003
 30
0.0
 10
-2.6947900000000002
 20
4.49777
 30
0.0
  0
SPLINE
  5
3B
100
AcDbEntity
  8
Ebene 1
100
AcDbSpline
210
0.0
220
0.0
230
1.0
 70
     1
 71
     3
 72
    24
 73
    20
 74
     0
 42
0.0000000001
 43
0.0000000001
 40
0.0
 40
0.0
 40
0.0
 40
0.0
 40
0.2
 40
0.2
 40
0.2
 40
0.2
 40
0.4
 40
0.4
 40
0.4
 40
0.4
 40
0.6000000000000001
 40
0.6000000000000001
 40
0.6000000000000001
 40
0.6000000000000001
 40
0.8
 40
0.8
 40
0.8
 40
0.8
 40
1.0
 40
1.0
 40
1.0
 40
1.0
 10
-4.0079700000000003
 20
3.8043500000000003
 30
0.0
 10
-3.9241500000000005
 20
3.8043500000000003
 30
0.0
 10
-3.9724100000000004
 20
3.6925900000000005
 30
0.0
 10
-3.9597100000000003
 20
3.6417900000000003
 30
0.0
 10
-3.9597100000000003
 20
3.6417900000000003
 30
0.0
 10
-4.1502100000000004
 20
2.6003900000000004
 30
0.0
 10
-4.3864300000000007
 20
1.5589900000000001
 30
0.0
 10
-4.4550100000000006
 20
0.49219
 30
0.0
 10
-4.4550100000000006
 20
0.49219
 30
0.0
 10
-4.5769299999999999
 20
0.9519300000000001
 30
0.0
 10
-4.5235900000000004
 20
1.4726300000000001
 30
0.0
 10
-4.5413700000000006
 20
1.9679300000000002
 30
0.0
 10
-4.5413700000000006
 20
1.9679300000000002
 30
0.0
 10
-4.4626300000000008
 20
2.09239
 30
0.0
 10
-4.49057
 20
1.8307700000000002
 30
0.0
 10
-4.4092900000000004
 20
1.8434700000000002
 30
0.0
 10
-4.4092900000000004
 20
1.8434700000000002
 30
0.0
 10
-4.4092900000000004
 20
1.8434700000000002
 30
0.0
 10
-4.0079700000000003
 20
3.8043500000000003
 30
0.0
 10
-4.0079700000000003
 20
3.8043500000000003
 30
0.0
  0
SPLINE
  5
3C
100
AcDbEntity
  8
Ebene 1
 62
     7
100
AcDbSpline
210
0.0
220
0.0
230
1.0
 70
     1
 71
     3
 72
    12
 73
     8
 74
     0
 42
0.0000000001
 43
0.0000000001
 40
0.0
 40
0.0
 40
0.0
 40
0.0
 40
0.5
 40
0.5
 40
0.5
 40
0.5
 40
1.0
 40
1.0
 40
1.0
 40
1.0
 10
-2.2731500000000002
 20
2.3159100000000001
 30
0.0
 10
-2.2426700000000004
 20
2.3286100000000003
 30
0.0
 10
-2.2426700000000004
 20
2.2905100000000003
 30
0.0
 10
-2.2502900000000001
 20
2.2651100000000004
 30
0.0
 10
-2.2502900000000001
 20
2.2651100000000004
 30
0.0
 10
-2.2731500000000002
 20
2.2651100000000004
 30
0.0
 10
-2.27569
 20
2.30321
 30
0.0
 10
-2.2731500000000002
 20
2.3159100000000001
 30
0.0
  0
SPLINE
  5
3D
100
AcDbEntity
  8
Ebene 1
 62
     7
100
AcDbSpline
210
0.0
220
0.0
230
1.0
 70
     1
 71
     3
 72
    12
 73
     8
 74
     0
 42
0.0000000001
 43
0.0000000001
 40
0.0
 40
0.0
 40
0.0
 40
0.0
 40
0.5
 40
0.5
 40
0.5
 40
0.5
 40
1.0
 40
1.0
 40
1.0
 40
1.0
 10
-2.3341100000000004
 20
2.1050900000000001
 30
0.0
 10
-2.2960100000000003
 20
2.1177900000000003
 30
0.0
 10
-2.2477500000000004
 20
2.0796900000000003
 30
0.0
 10
-2.2858500000000004
 20
2.0415900000000002
 30
0.0
 10
-2.2858500000000004
 20
2.0415900000000002
 30
0.0
 10
-2.3061700000000003
 20
2.0542899999999999
 30
0.0
 10
-2.3366500000000001
 20
2.0796900000000003
 30
0.0
 10
-2.3341100000000004
 20
2.1050900000000001
 30
0.0
  0
SPLINE
  5
3E
100
AcDbEntity
  8
Ebene 1
 62
     7
100
AcDbSpline
210
0.0
220
0.0
230
1.0
 70
     1
 71
     3
 72
    20
 73
    16
 74
     0
 42
0.0000000001
 43
0.0000000001
 40
0.0
 40
0.0
 40
0.0
 40
0.0
 40
0.25
 40
0.25
 40
0.25
 40
0.25
 40
0.5
 40
0.5
 40
0.5
 40
0.5
 40
0.75
 40
0.75
 40
0.75
 40
0.75
 40
1.0
 40
1.0
 40
1.0
 40
1.0
 10
-1.8997700000000002
 20
1.9298300000000002
 30
0.0
 10
-1.8997700000000002
 20
1.9298300000000002
 30
0.0
 10
-1.6914900000000002
 20
1.9298300000000002
 30
0.0
 10
-1.6914900000000002
 20
1.9298300000000002
 30
0.0
 10
-1.6914900000000002
 20
1.9298300000000002
 30
0.0
 10
-1.6914900000000002
 20
1.9298300000000002
 30
0.0
 10
-1.5543300000000002
 20
1.8942700000000001
 30
0.0
 10
-1.5543300000000002
 20
1.8942700000000001
 30
0.0
 10
-1.5543300000000002
 20
1.8942700000000001
 30
0.0
 10
-1.7727700000000002
 20
1.9069700000000001
 30
0.0
 10
-1.9759700000000002
 20
1.8688700000000003
 30
0.0
 10
-2.1690100000000001
 20
1.8079100000000001
 30
0.0
 10
-2.1690100000000001
 20
1.8079100000000001
 30
0.0
 10
-2.2172700000000001
 20
1.9425300000000001
 30
0.0
 10
-1.9683500000000003
 20
1.8815700000000002
 30
0.0
 10
-1.8997700000000002
 20
1.9298300000000002
 30
0.0
  0
SPLINE
  5
3F
100
AcDbEntity
  8
Ebene 1
 62
     7
100
AcDbSpline
210
0.0
220
0.0
230
1.0
 70
     1
 71
     3
 72
    12
 73
     8
 74
     0
 42
0.0000000001
 43
0.0000000001
 40
0.0
 40
0.0
 40
0.0
 40
0.0
 40
0.5
 40
0.5
 40
0.5
 40
0.5
 40
1.0
 40
1.0
 40
1.0
 40
1.0
 10
-2.3849100000000001
 20
1.8942700000000001
 30
0.0
 10
-2.3391900000000003
 20
1.8688700000000003
 30
0.0
 10
-2.2579100000000003
 20
1.8688700000000003
 30
0.0
 10
-2.2858500000000004
 20
1.7952100000000002
 30
0.0
 10
-2.2858500000000004
 20
1.7952100000000002
 30
0.0
 10
-2.3595100000000002
 20
1.7698100000000001
 30
0.0
 10
-2.4179300000000001
 20
1.8307700000000002
 30
0.0
 10
-2.3849100000000001
 20
1.8942700000000001
 30
0.0
  0
SPLINE
  5
40
100
AcDbEntity
  8
Ebene 1
 62
     7
100
AcDbSpline
210
0.0
220
0.0
230
1.0
 70
     1
 71
     3
 72
    12
 73
     8
 74
     0
 42
0.0000000001
 43
0.0000000001
 40
0.0
 40
0.0
 40
0.0
 40
0.0
 40
0.5
 40
0.5
 40
0.5
 40
0.5
 40
1.0
 40
1.0
 40
1.0
 40
1.0
 10
-2.8014700000000001
 20
1.7875900000000002
 30
0.0
 10
-2.8014700000000001
 20
1.7875900000000002
 30
0.0
 10
-2.94625
 20
1.3913500000000001
 30
0.0
 10
-2.94625
 20
1.3913500000000001
 30
0.0
 10
-2.94625
 20
1.3913500000000001
 30
0.0
 10
-2.98943
 20
1.5412100000000002
 30
0.0
 10
-2.8954500000000003
 20
1.6758300000000002
 30
0.0
 10
-2.8014700000000001
 20
1.7875900000000002
 30
0.0
  0
SPLINE
  5
41
100
AcDbEntity
  8
Ebene 1
 62
     7
100
AcDbSpline
210
0.0
220
0.0
230
1.0
 70
     1
 71
     3
 72
    24
 73
    20
 74
     0
 42
0.0000000001
 43
0.0000000001
 40
0.0
 40
0.0
 40
0.0
 40
0.0
 40
0.2
 40
0.2
 40
0.2
 40
0.2
 40
0.4
 40
0.4
 40
0.4
 40
0.4
 40
0.6000000000000001
 40
0.6000000000000001
 40
0.6000000000000001
 40
0.6000000000000001
 40
0.8
 40
0.8
 40
0.8
 40
0.8
 40
1.0
 40
1.0
 40
1.0
 40
1.0
 10
-1.6508500000000002
 20
1.8180700000000001
 30
0.0
 10
-1.6508500000000002
 20
1.8180700000000001
 30
0.0
 10
-1.41971
 20
1.8079100000000001
 30
0.0
 10
-1.41971
 20
1.8079100000000001
 30
0.0
 10
-1.41971
 20
1.8079100000000001
 30
0.0
 10
-1.41971
 20
1.8079100000000001
 30
0.0
 10
-2.19441
 20
1.6199500000000002
 30
0.0
 10
-2.19441
 20
1.6199500000000002
 30
0.0
 10
-2.19441
 20
1.6199500000000002
 30
0.0
 10
-2.22235
 20
1.6834500000000001
 30
0.0
 10
-2.1639300000000001
 20
1.7190100000000001
 30
0.0
 10
-2.1105900000000002
 20
1.7190100000000001
 30
0.0
 10
-2.1105900000000002
 20
1.7190100000000001
 30
0.0
 10
-2.1105900000000002
 20
1.7190100000000001
 30
0.0
 10
-1.9124700000000001
 20
1.78251
 30
0.0
 10
-1.9124700000000001
 20
1.78251
 30
0.0
 10
-1.9124700000000001
 20
1.78251
 30
0.0
 10
-1.9124700000000001
 20
1.78251
 30
0.0
 10
-1.6508500000000002
 20
1.8180700000000001
 30
0.0
 10
-1.6508500000000002
 20
1.8180700000000001
 30
0.0
  0
SPLINE
  5
42
100
AcDbEntity
  8
Ebene 1
 62
     7
100
AcDbSpline
210
0.0
220
0.0
230
1.0
 70
     1
 71
     3
 72
    12
 73
     8
 74
     0
 42
0.0000000001
 43
0.0000000001
 40
0.0
 40
0.0
 40
0.0
 40
0.0
 40
0.5
 40
0.5
 40
0.5
 40
0.5
 40
1.0
 40
1.0
 40
1.0
 40
1.0
 10
-2.3468100000000001
 20
1.6707500000000002
 30
0.0
 10
-2.3239500000000004
 20
1.6707500000000002
 30
0.0
 10
-2.27569
 20
1.6834500000000001
 30
0.0
 10
-2.2858500000000004
 20
1.6453500000000001
 30
0.0
 10
-2.2858500000000004
 20
1.6453500000000001
 30
0.0
 10
-2.2477500000000004
 20
1.5081900000000001
 30
0.0
 10
-2.5093700000000001
 20
1.6580500000000002
 30
0.0
 10
-2.3468100000000001
 20
1.6707500000000002
 30
0.0
  0
SPLINE
  5
43
100
AcDbEntity
  8
Ebene 1
 62
     7
100
AcDbSpline
210
0.0
220
0.0
230
1.0
 70
     1
 71
     3
 72
    16
 73
    12
 74
     0
 42
0.0000000001
 43
0.0000000001
 40
0.0
 40
0.0
 40
0.0
 40
0.0
 40
0.3333333333333333
 40
0.3333333333333333
 40
0.3333333333333333
 40
0.3333333333333333
 40
0.6666666666666666
 40
0.6666666666666666
 40
0.6666666666666666
 40
0.6666666666666666
 40
1.0
 40
1.0
 40
1.0
 40
1.0
 10
-2.2985500000000001
 20
1.4726300000000001
 30
0.0
 10
-2.2731500000000002
 20
1.48533
 30
0.0
 10
-2.2401300000000002
 20
1.4599300000000002
 30
0.0
 10
-2.2477500000000004
 20
1.4345300000000001
 30
0.0
 10
-2.2477500000000004
 20
1.4345300000000001
 30
0.0
 10
-2.1867900000000002
 20
1.3100700000000001
 30
0.0
 10
-2.4661900000000001
 20
1.4599300000000002
 30
0.0
 10
-2.30871
 20
1.4599300000000002
 30
0.0
 10
-2.30871
 20
1.4599300000000002
 30
0.0
 10
-2.30871
 20
1.4599300000000002
 30
0.0
 10
-2.2985500000000001
 20
1.4726300000000001
 30
0.0
 10
-2.2985500000000001
 20
1.4726300000000001
 30
0.0
  0
SPLINE
  5
44
100
AcDbEntity
  8
Ebene 1
 62
     7
100
AcDbSpline
210
0.0
220
0.0
230
1.0
 70
     1
 71
     3
 72
    48
 73
    44
 74
     0
 42
0.0000000001
 43
0.0000000001
 40
0.0
 40
0.0
 40
0.0
 40
0.0
 40
0.0909090909090909
 40
0.0909090909090909
 40
0.0909090909090909
 40
0.0909090909090909
 40
0.1818181818181818
 40
0.1818181818181818
 40
0.1818181818181818
 40
0.1818181818181818
 40
0.2727272727272727
 40
0.2727272727272727
 40
0.2727272727272727
 40
0.2727272727272727
 40
0.3636363636363637
 40
0.3636363636363637
 40
0.3636363636363637
 40
0.3636363636363637
 40
0.4545454545454546
 40
0.4545454545454546
 40
0.4545454545454546
 40
0.4545454545454546
 40
0.5454545454545455
 40
0.5454545454545455
 40
0.5454545454545455
 40
0.5454545454545455
 40
0.6363636363636365
 40
0.6363636363636365
 40
0.6363636363636365
 40
0.6363636363636365
 40
0.7272727272727274
 40
0.7272727272727274
 40
0.7272727272727274
 40
0.7272727272727274
 40
0.8181818181818183
 40
0.8181818181818183
 40
0.8181818181818183
 40
0.8181818181818183
 40
0.9090909090909093
 40
0.9090909090909093
 40
0.9090909090909093
 40
0.9090909090909093
 40
1.0
 40
1.0
 40
1.0
 40
1.0
 10
-1.7270500000000002
 20
1.2618100000000001
 30
0.0
 10
-1.7270500000000002
 20
1.2618100000000001
 30
0.0
 10
-1.6660900000000001
 20
1.2618100000000001
 30
0.0
 10
-1.6660900000000001
 20
1.2618100000000001
 30
0.0
 10
-1.6660900000000001
 20
1.2618100000000001
 30
0.0
 10
-1.7245100000000002
 20
0.9874900000000001
 30
0.0
 10
-1.9556500000000001
 20
0.78937
 30
0.0
 10
-2.1207500000000001
 20
0.5912500000000001
 30
0.0
 10
-2.1207500000000001
 20
0.5912500000000001
 30
0.0
 10
-2.0674100000000002
 20
0.55315
 30
0.0
 10
-2.0064500000000001
 20
0.5658500000000001
 30
0.0
 10
-1.9708900000000003
 20
0.6268100000000001
 30
0.0
 10
-1.9708900000000003
 20
0.6268100000000001
 30
0.0
 10
-1.75499
 20
0.76397
 30
0.0
 10
-1.5771900000000001
 20
0.9747900000000001
 30
0.0
 10
-1.41971
 20
1.1627500000000002
 30
0.0
 10
-1.41971
 20
1.1627500000000002
 30
0.0
 10
-1.5136900000000002
 20
0.8401700000000001
 30
0.0
 10
-1.8159500000000002
 20
0.57855
 30
0.0
 10
-2.10805
 20
0.42869
 30
0.0
 10
-2.10805
 20
0.42869
 30
0.0
 10
-2.02677
 20
0.32963
 30
0.0
 10
-2.18933
 20
0.24327
 30
0.0
 10
-2.23759
 20
0.14421
 30
0.0
 10
-2.23759
 20
0.14421
 30
0.0
 10
-2.2909300000000004
 20
0.10611
 30
0.0
 10
-2.2858500000000004
 20
0.16961
 30
0.0
 10
-2.2680700000000003
 20
0.20517
 30
0.0
 10
-2.2680700000000003
 20
0.20517
 30
0.0
 10
-2.2477500000000004
 20
0.24327
 30
0.0
 10
-2.2121900000000001
 20
0.30423
 30
0.0
 10
-2.2731500000000002
 20
0.32963
 30
0.0
 10
-2.2731500000000002
 20
0.32963
 30
0.0
 10
-2.3722100000000004
 20
0.17977
 30
0.0
 10
-2.5093700000000001
 20
0.00705
 30
0.0
 10
-2.6643100000000004
 20
-0.10216
 30
0.0
 10
-2.6643100000000004
 20
-0.10216
 30
0.0
 10
-2.7227300000000003
 20
0.08071
 30
0.0
 10
-2.6719300000000001
 20
0.26867
 30
0.0
 10
-2.6312900000000004
 20
0.4413900000000001
 30
0.0
 10
-2.6312900000000004
 20
0.4413900000000001
 30
0.0
 10
-2.56271
 20
0.8884300000000001
 30
0.0
 10
-2.1715500000000003
 20
1.2491100000000002
 30
0.0
 10
-1.7270500000000002
 20
1.2618100000000001
 30
0.0
  0
SPLINE
  5
45
100
AcDbEntity
  8
Ebene 1
 62
     7
100
AcDbSpline
210
0.0
220
0.0
230
1.0
 70
     1
 71
     3
 72
     8
 73
     4
 74
     0
 42
0.0000000001
 43
0.0000000001
 40
0.0
 40
0.0
 40
0.0
 40
0.0
 40
1.0
 40
1.0
 40
1.0
 40
1.0
 10
-0.8939300000000001
 20
1.1627500000000002
 30
0.0
 10
-0.8939300000000001
 20
1.1373500000000001
 30
0.0
 10
-0.9193300000000001
 20
1.1627500000000002
 30
0.0
 10
-0.8939300000000001
 20
1.1627500000000002
 30
0.0
  0
SPLINE
  5
46
100
AcDbEntity
  8
Ebene 1
 62
     7
100
AcDbSpline
210
0.0
220
0.0
230
1.0
 70
     1
 71
     3
 72
    16
 73
    12
 74
     0
 42
0.0000000001
 43
0.0000000001
 40
0.0
 40
0.0
 40
0.0
 40
0.0
 40
0.3333333333333333
 40
0.3333333333333333
 40
0.3333333333333333
 40
0.3333333333333333
 40
0.6666666666666666
 40
0.6666666666666666
 40
0.6666666666666666
 40
0.6666666666666666
 40
1.0
 40
1.0
 40
1.0
 40
1.0
 10
1.8441800000000002
 20
0.61665
 30
0.0
 10
1.8492600000000001
 20
0.48203
 30
0.0
 10
1.8568800000000001
 20
0.28899
 30
0.0
 10
1.8314800000000002
 20
0.17215
 30
0.0
 10
1.8314800000000002
 20
0.17215
 30
0.0
 10
1.6867000000000001
 20
-0.45014
 30
0.0
 10
1.6308200000000002
 20
-0.9530600000000001
 30
0.0
 10
1.5139800000000001
 20
-1.5271000000000001
 30
0.0
 10
1.5139800000000001
 20
-1.5271000000000001
 30
0.0
 10
1.56732
 20
-0.7955800000000001
 30
0.0
 10
1.6638400000000002
 20
-0.07676
 30
0.0
 10
1.8441800000000002
 20
0.61665
 30
0.0
  0
SPLINE
  5
47
100
AcDbEntity
  8
Ebene 1
 62
     7
100
AcDbSpline
210
0.0
220
0.0
230
1.0
 70
     1
 71
     3
 72
    20
 73
    16
 74
     0
 42
0.0000000001
 43
0.0000000001
 40
0.0
 40
0.0
 40
0.0
 40
0.0
 40
0.25
 40
0.25
 40
0.25
 40
0.25
 40
0.5
 40
0.5
 40
0.5
 40
0.5
 40
0.75
 40
0.75
 40
0.75
 40
0.75
 40
1.0
 40
1.0
 40
1.0
 40
1.0
 10
-2.9183100000000004
 20
-0.0285
 30
0.0
 10
-2.6236700000000002
 20
-0.11486
 30
0.0
 10
-2.81671
 20
-0.4476000000000001
 30
0.0
 10
-2.86497
 20
-0.6482600000000001
 30
0.0
 10
-2.86497
 20
-0.6482600000000001
 30
0.0
 10
-2.7836900000000004
 20
-0.6711200000000001
 30
0.0
 10
-2.7760700000000003
 20
-0.5238
 30
0.0
 10
-2.7100300000000002
 20
-0.4857
 30
0.0
 10
-2.7100300000000002
 20
-0.4857
 30
0.0
 10
-2.60589
 20
-0.7473200000000001
 30
0.0
 10
-2.69225
 20
-1.0699000000000001
 30
0.0
 10
-2.8929100000000001
 20
-1.2553200000000002
 30
0.0
 10
-2.8929100000000001
 20
-1.2553200000000002
 30
0.0
 10
-2.9157700000000002
 20
-0.8692400000000001
 30
0.0
 10
-2.9360900000000001
 20
-0.4247400000000001
 30
0.0
 10
-2.9183100000000004
 20
-0.0285
 30
0.0
  0
SPLINE
  5
48
100
AcDbEntity
  8
Ebene 1
 62
     7
100
AcDbSpline
210
0.0
220
0.0
230
1.0
 70
     1
 71
     3
 72
    40
 73
    36
 74
     0
 42
0.0000000001
 43
0.0000000001
 40
0.0
 40
0.0
 40
0.0
 40
0.0
 40
0.1111111111111111
 40
0.1111111111111111
 40
0.1111111111111111
 40
0.1111111111111111
 40
0.2222222222222222
 40
0.2222222222222222
 40
0.2222222222222222
 40
0.2222222222222222
 40
0.3333333333333333
 40
0.3333333333333333
 40
0.3333333333333333
 40
0.3333333333333333
 40
0.4444444444444444
 40
0.4444444444444444
 40
0.4444444444444444
 40
0.4444444444444444
 40
0.5555555555555556
 40
0.5555555555555556
 40
0.5555555555555556
 40
0.5555555555555556
 40
0.6666666666666667
 40
0.6666666666666667
 40
0.6666666666666667
 40
0.6666666666666667
 40
0.7777777777777779
 40
0.7777777777777779
 40
0.7777777777777779
 40
0.7777777777777779
 40
0.8888888888888891
 40
0.8888888888888891
 40
0.8888888888888891
 40
0.8888888888888891
 40
1.0
 40
1.0
 40
1.0
 40
1.0
 10
-1.6762500000000002
 20
-0.15042
 30
0.0
 10
-1.2622300000000002
 20
-0.21392
 30
0.0
 10
-0.7872500000000001
 20
-0.34854
 30
0.0
 10
-0.52563
 20
-0.69652
 30
0.0
 10
-0.52563
 20
-0.69652
 30
0.0
 10
-0.52563
 20
-0.69652
 30
0.0
 10
-1.07681
 20
-0.5492
 30
0.0
 10
-1.07681
 20
-0.5492
 30
0.0
 10
-1.07681
 20
-0.5492
 30
0.0
 10
-1.07681
 20
-0.5492
 30
0.0
 10
-0.4824500000000001
 20
-0.82098
 30
0.0
 10
-0.4824500000000001
 20
-0.82098
 30
0.0
 10
-0.4824500000000001
 20
-0.82098
 30
0.0
 10
-0.23861
 20
-0.9810000000000001
 30
0.0
 10
0.17794
 20
-1.2172200000000002
 30
0.0
 10
0.10428
 20
-1.5652000000000001
 30
0.0
 10
0.10428
 20
-1.5652000000000001
 30
0.0
 10
0.03062
 20
-1.62616
 30
0.0
 10
-0.05827
 20
-1.6388600000000002
 30
0.0
 10
-0.15225
 20
-1.6134600000000001
 30
0.0
 10
-0.15225
 20
-1.6134600000000001
 30
0.0
 10
-0.15225
 20
-1.6134600000000001
 30
0.0
 10
-0.28433
 20
-1.5779000000000001
 30
0.0
 10
-0.28433
 20
-1.5779000000000001
 30
0.0
 10
-0.28433
 20
-1.5779000000000001
 30
0.0
 10
-0.9066300000000001
 20
-1.0927600000000002
 30
0.0
 10
-2.0089900000000003
 20
-1.6515600000000001
 30
0.0
 10
-2.4585700000000004
 20
-0.8819400000000001
 30
0.0
 10
-2.4585700000000004
 20
-0.8819400000000001
 30
0.0
 10
-2.4534900000000004
 20
-0.72192
 30
0.0
 10
-2.4484100000000004
 20
-0.5238
 30
0.0
 10
-2.40523
 20
-0.36124
 30
0.0
 10
-2.40523
 20
-0.36124
 30
0.0
 10
-2.18933
 20
-0.21392
 30
0.0
 10
-1.92517
 20
-0.17582
 30
0.0
 10
-1.6762500000000002
 20
-0.15042
 30
0.0
  0
SPLINE
  5
49
100
AcDbEntity
  8
Ebene 1
 62
     7
100
AcDbSpline
210
0.0
220
0.0
230
1.0
 70
     1
 71
     3
 72
    68
 73
    64
 74
     0
 42
0.0000000001
 43
0.0000000001
 40
0.0
 40
0.0
 40
0.0
 40
0.0
 40
0.0625
 40
0.0625
 40
0.0625
 40
0.0625
 40
0.125
 40
0.125
 40
0.125
 40
0.125
 40
0.1875
 40
0.1875
 40
0.1875
 40
0.1875
 40
0.25
 40
0.25
 40
0.25
 40
0.25
 40
0.3125
 40
0.3125
 40
0.3125
 40
0.3125
 40
0.375
 40
0.375
 40
0.375
 40
0.375
 40
0.4375
 40
0.4375
 40
0.4375
 40
0.4375
 40
0.5
 40
0.5
 40
0.5
 40
0.5
 40
0.5625
 40
0.5625
 40
0.5625
 40
0.5625
 40
0.625
 40
0.625
 40
0.625
 40
0.625
 40
0.6875
 40
0.6875
 40
0.6875
 40
0.6875
 40
0.75
 40
0.75
 40
0.75
 40
0.75
 40
0.8125
 40
0.8125
 40
0.8125
 40
0.8125
 40
0.875
 40
0.875
 40
0.875
 40
0.875
 40
0.9375
 40
0.9375
 40
0.9375
 40
0.9375
 40
1.0
 40
1.0
 40
1.0
 40
1.0
 10
-0.8939300000000001
 20
-1.4915400000000001
 30
0.0
 10
-0.5992900000000001
 20
-1.4534400000000001
 30
0.0
 10
-0.8380500000000001
 20
-1.6033000000000002
 30
0.0
 10
-0.9777500000000001
 20
-1.62616
 30
0.0
 10
-0.9777500000000001
 20
-1.62616
 30
0.0
 10
-0.9777500000000001
 20
-1.62616
 30
0.0
 10
-1.37907
 20
-1.7506200000000001
 30
0.0
 10
-1.37907
 20
-1.7506200000000001
 30
0.0
 10
-1.37907
 20
-1.7506200000000001
 30
0.0
 10
-1.5340100000000001
 20
-1.7760200000000002
 30
0.0
 10
-1.7524500000000001
 20
-1.8268200000000001
 30
0.0
 10
-1.8210300000000001
 20
-1.9614400000000001
 30
0.0
 10
-1.8210300000000001
 20
-1.9614400000000001
 30
0.0
 10
-1.37399
 20
-1.8369800000000001
 30
0.0
 10
-0.8710700000000001
 20
-1.7023600000000001
 30
0.0
 10
-0.4392700000000001
 20
-1.6134600000000001
 30
0.0
 10
-0.4392700000000001
 20
-1.6134600000000001
 30
0.0
 10
-0.44181
 20
-1.7633200000000002
 30
0.0
 10
-0.63993
 20
-1.7633200000000002
 30
0.0
 10
-0.7364500000000001
 20
-1.8268200000000001
 30
0.0
 10
-0.7364500000000001
 20
-1.8268200000000001
 30
0.0
 10
-1.04379
 20
-1.9385800000000002
 30
0.0
 10
-1.3663700000000001
 20
-1.9868400000000002
 30
0.0
 10
-1.6889500000000002
 20
-2.0503400000000003
 30
0.0
 10
-1.6889500000000002
 20
-2.0503400000000003
 30
0.0
 10
-1.8261100000000001
 20
-2.1113
 30
0.0
 10
-2.0369300000000004
 20
-2.1240000000000001
 30
0.0
 10
-2.0851900000000003
 20
-2.2967200000000001
 30
0.0
 10
-2.0851900000000003
 20
-2.2967200000000001
 30
0.0
 10
-1.7524500000000001
 20
-2.1722600000000001
 30
0.0
 10
-1.5517900000000002
 20
-2.6320000000000001
 30
0.0
 10
-1.2444500000000001
 20
-2.7183600000000001
 30
0.0
 10
-1.2444500000000001
 20
-2.7183600000000001
 30
0.0
 10
-1.2317500000000001
 20
-2.7564600000000001
 30
0.0
 10
-1.3257300000000001
 20
-2.7818600000000004
 30
0.0
 10
-1.2749300000000001
 20
-2.8174200000000003
 30
0.0
 10
-1.2749300000000001
 20
-2.8174200000000003
 30
0.0
 10
-1.0310900000000001
 20
-2.8072600000000003
 30
0.0
 10
-0.82281
 20
-2.6193000000000004
 30
0.0
 10
-0.5637300000000001
 20
-2.6574000000000004
 30
0.0
 10
-0.5637300000000001
 20
-2.6574000000000004
 30
0.0
 10
-0.59167
 20
-2.7818600000000004
 30
0.0
 10
-0.63993
 20
-3.1171400000000005
 30
0.0
 10
-0.7948700000000001
 20
-2.8555200000000003
 30
0.0
 10
-0.7948700000000001
 20
-2.8555200000000003
 30
0.0
 10
-0.7694700000000001
 20
-2.6574000000000004
 30
0.0
 10
-1.04125
 20
-2.8809200000000001
 30
0.0
 10
-1.1453900000000001
 20
-2.8936200000000003
 30
0.0
 10
-1.1453900000000001
 20
-2.8936200000000003
 30
0.0
 10
-1.3409700000000002
 20
-3.0180800000000003
 30
0.0
 10
-1.8591300000000002
 20
-2.7564600000000001
 30
0.0
 10
-1.4781300000000002
 20
-2.7691600000000003
 30
0.0
 10
-1.4781300000000002
 20
-2.7691600000000003
 30
0.0
 10
-1.4781300000000002
 20
-2.7691600000000003
 30
0.0
 10
-1.6178300000000001
 20
-2.6701000000000001
 30
0.0
 10
-1.6178300000000001
 20
-2.6701000000000001
 30
0.0
 10
-1.6178300000000001
 20
-2.6701000000000001
 30
0.0
 10
-1.8794500000000001
 20
-2.5837400000000001
 30
0.0
 10
-2.2147300000000003
 20
-2.57104
 30
0.0
 10
-2.3595100000000002
 20
-2.2840200000000004
 30
0.0
 10
-2.3595100000000002
 20
-2.2840200000000004
 30
0.0
 10
-2.1918700000000002
 20
-1.7150600000000003
 30
0.0
 10
-1.3993900000000001
 20
-1.6033000000000002
 30
0.0
 10
-0.8939300000000001
 20
-1.4915400000000001
 30
0.0
  0
SPLINE
  5
4A
100
AcDbEntity
  8
Ebene 1
 62
     7
100
AcDbSpline
210
0.0
220
0.0
230
1.0
 70
     1
 71
     3
 72
    12
 73
     8
 74
     0
 42
0.0000000001
 43
0.0000000001
 40
0.0
 40
0.0
 40
0.0
 40
0.0
 40
0.5
 40
0.5
 40
0.5
 40
0.5
 40
1.0
 40
1.0
 40
1.0
 40
1.0
 10
-5.2805100000000005
 20
-1.8852400000000002
 30
0.0
 10
-5.2195500000000008
 20
-1.9589000000000001
 30
0.0
 10
-5.1865300000000003
 20
-2.1494
 30
0.0
 10
-5.2093900000000009
 20
-2.2256
 30
0.0
 10
-5.2093900000000009
 20
-2.2256
 30
0.0
 10
-5.2551100000000002
 20
-2.1494
 30
0.0
 10
-5.28559
 20
-1.9716000000000002
 30
0.0
 10
-5.2805100000000005
 20
-1.8852400000000002
 30
0.0
  0
SPLINE
  5
4B
100
AcDbEntity
  8
Ebene 1
 62
     7
100
AcDbSpline
210
0.0
220
0.0
230
1.0
 70
     1
 71
     3
 72
    20
 73
    16
 74
     0
 42
0.0000000001
 43
0.0000000001
 40
0.0
 40
0.0
 40
0.0
 40
0.0
 40
0.25
 40
0.25
 40
0.25
 40
0.25
 40
0.5
 40
0.5
 40
0.5
 40
0.5
 40
0.75
 40
0.75
 40
0.75
 40
0.75
 40
1.0
 40
1.0
 40
1.0
 40
1.0
 10
-2.4966700000000004
 20
-2.0859000000000001
 30
0.0
 10
-2.4331700000000001
 20
-2.0605000000000002
 30
0.0
 10
-2.4103100000000004
 20
-2.1367000000000003
 30
0.0
 10
-2.4484100000000004
 20
-2.1722600000000001
 30
0.0
 10
-2.4484100000000004
 20
-2.1722600000000001
 30
0.0
 10
-2.5042900000000001
 20
-2.1722600000000001
 30
0.0
 10
-2.5550900000000003
 20
-2.1849600000000002
 30
0.0
 10
-2.6033500000000003
 20
-2.2103600000000001
 30
0.0
 10
-2.6033500000000003
 20
-2.2103600000000001
 30
0.0
 10
-2.6135100000000002
 20
-2.1722600000000001
 30
0.0
 10
-2.5881100000000004
 20
-2.1494
 30
0.0
 10
-2.5652500000000003
 20
-2.1240000000000001
 30
0.0
 10
-2.5652500000000003
 20
-2.1240000000000001
 30
0.0
 10
-2.5652500000000003
 20
-2.1240000000000001
 30
0.0
 10
-2.4966700000000004
 20
-2.0859000000000001
 30
0.0
 10
-2.4966700000000004
 20
-2.0859000000000001
 30
0.0
  0
SPLINE
  5
4C
100
AcDbEntity
  8
Ebene 1
 62
     7
100
AcDbSpline
210
0.0
220
0.0
230
1.0
 70
     1
 71
     3
 72
    16
 73
    12
 74
     0
 42
0.0000000001
 43
0.0000000001
 40
0.0
 40
0.0
 40
0.0
 40
0.0
 40
0.3333333333333333
 40
0.3333333333333333
 40
0.3333333333333333
 40
0.3333333333333333
 40
0.6666666666666666
 40
0.6666666666666666
 40
0.6666666666666666
 40
0.6666666666666666
 40
1.0
 40
1.0
 40
1.0
 40
1.0
 10
-0.47229
 20
-2.5075400000000001
 30
0.0
 10
-0.35545
 20
-2.5075400000000001
 30
0.0
 10
-0.39355
 20
-2.6066000000000003
 30
0.0
 10
-0.46213
 20
-2.6447000000000003
 30
0.0
 10
-0.46213
 20
-2.6447000000000003
 30
0.0
 10
-0.46213
 20
-2.6447000000000003
 30
0.0
 10
-0.57389
 20
-2.5583400000000003
 30
0.0
 10
-0.57389
 20
-2.5583400000000003
 30
0.0
 10
-0.57389
 20
-2.5583400000000003
 30
0.0
 10
-0.57389
 20
-2.5583400000000003
 30
0.0
 10
-0.47229
 20
-2.5075400000000001
 30
0.0
 10
-0.47229
 20
-2.5075400000000001
 30
0.0
  0
SPLINE
  5
4D
100
AcDbEntity
  8
Ebene 1
 62
     7
100
AcDbSpline
210
0.0
220
0.0
230
1.0
 70
     1
 71
     3
 72
    20
 73
    16
 74
     0
 42
0.0000000001
 43
0.0000000001
 40
0.0
 40
0.0
 40
0.0
 40
0.0
 40
0.25
 40
0.25
 40
0.25
 40
0.25
 40
0.5
 40
0.5
 40
0.5
 40
0.5
 40
0.75
 40
0.75
 40
0.75
 40
0.75
 40
1.0
 40
1.0
 40
1.0
 40
1.0
 10
-0.00239
 20
-2.8936200000000003
 30
0.0
 10
-0.00239
 20
-2.8936200000000003
 30
0.0
 10
-0.34529
 20
-2.7183600000000001
 30
0.0
 10
-0.34529
 20
-2.7183600000000001
 30
0.0
 10
-0.34529
 20
-2.7183600000000001
 30
0.0
 10
-0.34529
 20
-2.7183600000000001
 30
0.0
 10
-0.34529
 20
-2.6828000000000003
 30
0.0
 10
-0.34529
 20
-2.6828000000000003
 30
0.0
 10
-0.34529
 20
-2.6828000000000003
 30
0.0
 10
-0.33005
 20
-2.6574000000000004
 30
0.0
 10
-0.30465
 20
-2.6574000000000004
 30
0.0
 10
-0.27417
 20
-2.6574000000000004
 30
0.0
 10
-0.27417
 20
-2.6574000000000004
 30
0.0
 10
-0.27417
 20
-2.6574000000000004
 30
0.0
 10
-0.00239
 20
-2.8936200000000003
 30
0.0
 10
-0.00239
 20
-2.8936200000000003
 30
0.0
  0
SPLINE
  5
4E
100
AcDbEntity
  8
Ebene 1
 62
     7
100
AcDbSpline
210
0.0
220
0.0
230
1.0
 70
     1
 71
     3
 72
    16
 73
    12
 74
     0
 42
0.0000000001
 43
0.0000000001
 40
0.0
 40
0.0
 40
0.0
 40
0.0
 40
0.3333333333333333
 40
0.3333333333333333
 40
0.3333333333333333
 40
0.3333333333333333
 40
0.6666666666666666
 40
0.6666666666666666
 40
0.6666666666666666
 40
0.6666666666666666
 40
1.0
 40
1.0
 40
1.0
 40
1.0
 10
-0.54849
 20
-2.7945600000000002
 30
0.0
 10
-0.49769
 20
-2.8428200000000001
 30
0.0
 10
-0.3656100000000001
 20
-2.9418800000000003
 30
0.0
 10
-0.33005
 20
-3.0155400000000001
 30
0.0
 10
-0.33005
 20
-3.0155400000000001
 30
0.0
 10
-0.45197
 20
-2.9342600000000001
 30
0.0
 10
-0.5027700000000001
 20
-2.9114000000000004
 30
0.0
 10
-0.53071
 20
-2.8961600000000001
 30
0.0
 10
-0.53071
 20
-2.8961600000000001
 30
0.0
 10
-0.59167
 20
-2.8656800000000002
 30
0.0
 10
-0.5865900000000001
 20
-2.8707600000000002
 30
0.0
 10
-0.54849
 20
-2.7945600000000002
 30
0.0
  0
SPLINE
  5
4F
100
AcDbEntity
  8
Ebene 1
 62
     7
100
AcDbSpline
210
0.0
220
0.0
230
1.0
 70
     1
 71
     3
 72
    40
 73
    36
 74
     0
 42
0.0000000001
 43
0.0000000001
 40
0.0
 40
0.0
 40
0.0
 40
0.0
 40
0.1111111111111111
 40
0.1111111111111111
 40
0.1111111111111111
 40
0.1111111111111111
 40
0.2222222222222222
 40
0.2222222222222222
 40
0.2222222222222222
 40
0.2222222222222222
 40
0.3333333333333333
 40
0.3333333333333333
 40
0.3333333333333333
 40
0.3333333333333333
 40
0.4444444444444444
 40
0.4444444444444444
 40
0.4444444444444444
 40
0.4444444444444444
 40
0.5555555555555556
 40
0.5555555555555556
 40
0.5555555555555556
 40
0.5555555555555556
 40
0.6666666666666667
 40
0.6666666666666667
 40
0.6666666666666667
 40
0.6666666666666667
 40
0.7777777777777779
 40
0.7777777777777779
 40
0.7777777777777779
 40
0.7777777777777779
 40
0.8888888888888891
 40
0.8888888888888891
 40
0.8888888888888891
 40
0.8888888888888891
 40
1.0
 40
1.0
 40
1.0
 40
1.0
 10
-4.5413700000000006
 20
-2.9799800000000003
 30
0.0
 10
-4.4753300000000005
 20
-2.9545800000000004
 30
0.0
 10
-4.4270700000000005
 20
-3.0180800000000003
 30
0.0
 10
-4.3965900000000007
 20
-3.0663400000000003
 30
0.0
 10
-4.3965900000000007
 20
-3.0663400000000003
 30
0.0
 10
-4.3254700000000001
 20
-3.7496000000000005
 30
0.0
 10
-4.1705300000000003
 20
-4.4557200000000003
 30
0.0
 10
-3.6777700000000002
 20
-4.9764200000000001
 30
0.0
 10
-3.6777700000000002
 20
-4.9764200000000001
 30
0.0
 10
-3.6777700000000002
 20
-4.9764200000000001
 30
0.0
 10
-3.5202900000000001
 20
-5.2990000000000004
 30
0.0
 10
-3.5202900000000001
 20
-5.2990000000000004
 30
0.0
 10
-3.5202900000000001
 20
-5.2990000000000004
 30
0.0
 10
-3.4694900000000004
 20
-5.3371000000000004
 30
0.0
 10
-3.4136100000000003
 20
-5.2990000000000004
 30
0.0
 10
-3.3678900000000005
 20
-5.2761400000000007
 30
0.0
 10
-3.3678900000000005
 20
-5.2761400000000007
 30
0.0
 10
-2.9386300000000003
 20
-5.5987200000000001
 30
0.0
 10
-2.3671300000000004
 20
-5.7333400000000001
 30
0.0
 10
-2.0013700000000001
 20
-6.0940200000000004
 30
0.0
 10
-2.0013700000000001
 20
-6.0940200000000004
 30
0.0
 10
-2.02169
 20
-6.1295800000000007
 30
0.0
 10
-2.0801100000000003
 20
-6.1422800000000004
 30
0.0
 10
-2.1207500000000001
 20
-6.1549800000000001
 30
0.0
 10
-2.1207500000000001
 20
-6.1549800000000001
 30
0.0
 10
-2.3315700000000001
 20
-6.1194200000000007
 30
0.0
 10
-2.52461
 20
-6.0203600000000002
 30
0.0
 10
-2.7227300000000003
 20
-5.9314600000000004
 30
0.0
 10
-2.7227300000000003
 20
-5.9314600000000004
 30
0.0
 10
-4.0028900000000007
 20
-5.7333400000000001
 30
0.0
 10
-5.03667
 20
-4.4049200000000006
 30
0.0
 10
-4.6632900000000008
 20
-3.1171400000000005
 30
0.0
 10
-4.6632900000000008
 20
-3.1171400000000005
 30
0.0
 10
-4.6632900000000008
 20
-3.1171400000000005
 30
0.0
 10
-4.5413700000000006
 20
-2.9799800000000003
 30
0.0
 10
-4.5413700000000006
 20
-2.9799800000000003
 30
0.0
  0
SPLINE
  5
50
100
AcDbEntity
  8
Ebene 1
 62
     7
100
AcDbSpline
210
0.0
220
0.0
230
1.0
 70
     1
 71
     3
 72
    12
 73
     8
 74
     0
 42
0.0000000001
 43
0.0000000001
 40
0.0
 40
0.0
 40
0.0
 40
0.0
 40
0.5
 40
0.5
 40
0.5
 40
0.5
 40
1.0
 40
1.0
 40
1.0
 40
1.0
 10
0.09412
 20
-7.6332600000000008
 30
0.0
 10
-0.33005
 20
-7.2167000000000003
 30
0.0
 10
-0.88885
 20
-6.9093600000000004
 30
0.0
 10
-1.2647700000000002
 20
-6.4648600000000007
 30
0.0
 10
-1.2647700000000002
 20
-6.4648600000000007
 30
0.0
 10
-0.73899
 20
-6.6756800000000007
 30
0.0
 10
-0.21575
 20
-7.1405000000000003
 30
0.0
 10
0.09412
 20
-7.6332600000000008
 30
0.0
  0
ENDSEC
  0
SECTION
  2
OBJECTS
  0
DICTIONARY
  5
19
100
AcDbDictionary
280
     0
281
     1
  3
ACAD_GROUP
350
1A
  3
ACAD_MLINESTYLE
350
1B
  3
ACAD_LAYOUT
350
1E
  3
ACAD_PLOTSETTINGS
350
22
  3
ACAD_PLOTSTYLENAME
350
1F
  3
ACAD_WIPEOUT_VARS
350
23
  0
DICTIONARY
  5
1A
102
{ACAD_REACTORS
330
19
102
}
100
AcDbDictionary
280
     0
281
     1
  0
DICTIONARY
  5
1B
102
{ACAD_REACTORS
330
19
102
}
100
AcDbDictionary
280
     0
281
     1
  3
Standard
350
1C
  0
MLINESTYLE
  5
1C
102
{ACAD_REACTORS
330
1B
102
}
100
AcDbMlineStyle
  2
Standard
 70
     0
  3

 62
     0
 51
90.0
 52
90.0
 71
     2
 49
0.5
 62
   256
  6
BYLAYER
 49
-0.5
 62
   256
  6
BYLAYER
  0
ACDBDICTIONARYWDFLT
  5
1F
102
{ACAD_REACTORS
330
19
102
}
100
AcDbDictionary
281
     1
  3
Normal
350
1D
100
AcDbDictionaryWithDefault
340
1D
  0
ACDBPLACEHOLDER
  5
1D
102
{ACAD_REACTORS
330
1F
102
}
  0
LAYOUT
  5
20
102
{ACAD_REACTORS
330
1E
102
}
100
AcDbPlotSettings
  1

  2

  4

  6

 40
0.0
 41
0.0
 42
0.0
 43
0.0
 44
0.0
 45
0.0
 46
0.0
 47
0.0
 48
0.0
 49
0.0
140
0.0
141
0.0
142
1.0
143
1.0
 70
  1024
 72
     0
 73
     0
 74
     0
  7

 75
     0
147
1.0
148
0.0
149
0.0
100
AcDbLayout
  1
Model
 70
     0
 71
     0
 10
0.0
 20
0.0
 11
0.0
 21
0.0
 12
0.0
 22
0.0
 32
0.0
 14
0.0
 24
0.0
 34
0.0
 15
0.0
 25
0.0
 35
0.0
146
0.0
 13
0.0
 23
0.0
 33
0.0
 16
0.0
 26
0.0
 36
0.0
 17
0.0
 27
0.0
 37
0.0
 76
     0
330
A
331
0
345
0
346
0
  0
LAYOUT
  5
21
102
{ACAD_REACTORS
330
1E
102
}
100
AcDbPlotSettings
  1

  2

  4

  6

 40
0.0
 41
0.0
 42
0.0
 43
0.0
 44
0.0
 45
0.0
 46
0.0
 47
0.0
 48
0.0
 49
0.0
140
0.0
141
0.0
142
1.0
143
1.0
 70
     0
 72
     0
 73
     0
 74
     0
  7

 75
     0
147
1.0
148
0.0
149
0.0
100
AcDbLayout
  1
Layout1
 70
     0
 71
     0
 10
0.0
 20
0.0
 11
0.0
 21
0.0
 12
0.0
 22
0.0
 32
0.0
 14
0.0
 24
0.0
 34
0.0
 15
0.0
 25
0.0
 35
0.0
146
0.0
 13
0.0
 23
0.0
 33
0.0
 16
0.0
 26
0.0
 36
0.0
 17
0.0
 27
0.0
 37
0.0
 76
     0
330
B
331
0
345
0
346
0
  0
DICTIONARY
  5
1E
102
{ACAD_REACTORS
330
19
102
}
100
AcDbDictionary
280
     0
281
     1
  3
Layout1
350
21
  3
Model
350
20
  0
DICTIONARY
  5
22
102
{ACAD_REACTORS
330
19
102
}
100
AcDbDictionary
280
     0
281
     1
  0
WIPEOUTVARIABLES
  5
23
100
AcDbWipeoutVariables
 70
     1
  0
ENDSEC
  0
EOF
