  0
SECTION
  2
HEADER
  9
$ACADVER
  1
AC1015
  9
$ACADMAINTVER
 70
     6
  9
$DWGCODEPAGE
  3
DOS850
  9
$INSBASE
 10
0.0
 20
0.0
 30
0.0
  9
$EXTMIN
 10
-5.52272
 20
-7.6104
 30
1.000000E+20
  9
$EXTMAX
 10
5.52972
 20
7.60419
 30
-1.000000E+20
  9
$LIMMIN
 10
0.0
 20
0.0
  9
$LIMMAX
 10
0.0
 20
0.0
  9
$ORTHOMODE
 70
     0
  9
$REGENMODE
 70
     1
  9
$FILLMODE
 70
     1
  9
$QTEXTMODE
 70
     0
  9
$MIRRTEXT
 70
     1
  9
$LTSCALE
 40
1.0
  9
$ATTMODE
 70
     1
  9
$TEXTSIZE
 40
0.2
  9
$TRACEWID
 40
0.05
  9
$TEXTSTYLE
  7
Standard
  9
$CLAYER
  8
0
  9
$CELTYPE
  6
Continuous
  9
$CECOLOR
 62
   256
  9
$CELTSCALE
 40
1.0
  9
$DISPSILH
 70
     0
  9
$DIMSCALE
 40
1.0
  9
$DIMASZ
 40
0.18
  9
$DIMEXO
 40
0.0625
  9
$DIMDLI
 40
0.38
  9
$DIMRND
 40
0.0
  9
$DIMDLE
 40
0.0
  9
$DIMEXE
 40
0.18
  9
$DIMTP
 40
0.0
  9
$DIMTM
 40
0.0
  9
$DIMTXT
 40
0.18
  9
$DIMCEN
 40
0.09
  9
$DIMTSZ
 40
0.0
  9
$DIMTOL
 70
     0
  9
$DIMLIM
 70
     0
  9
$DIMTIH
 70
     1
  9
$DIMTOH
 70
     1
  9
$DIMSE1
 70
     0
  9
$DIMSE2
 70
     0
  9
$DIMTAD
 70
     0
  9
$DIMZIN
 70
     0
  9
$DIMBLK
  1

  9
$DIMASO
 70
     1
  9
$DIMSHO
 70
     1
  9
$DIMPOST
  1

  9
$DIMAPOST
  1

  9
$DIMALT
 70
     0
  9
$DIMALTD
 70
     2
  9
$DIMALTF
 40
25.4
  9
$DIMLFAC
 40
1.0
  9
$DIMTOFL
 70
     0
  9
$DIMTVP
 40
0.0
  9
$DIMTIX
 70
     0
  9
$DIMSOXD
 70
     0
  9
$DIMSAH
 70
     0
  9
$DIMBLK1
  1

  9
$DIMBLK2
  1

  9
$DIMSTYLE
  2
Standard
  9
$DIMCLRD
 70
     0
  9
$DIMCLRE
 70
     0
  9
$DIMCLRT
 70
     0
  9
$DIMTFAC
 40
1.0
  9
$DIMGAP
 40
0.09
  9
$DIMJUST
 70
     0
  9
$DIMSD1
 70
     0
  9
$DIMSD2
 70
     0
  9
$DIMTOLJ
 70
     1
  9
$DIMTZIN
 70
     0
  9
$DIMALTZ
 70
     0
  9
$DIMALTTZ
 70
     0
  9
$DIMUPT
 70
     0
  9
$DIMDEC
 70
     4
  9
$DIMTDEC
 70
     4
  9
$DIMALTU
 70
     2
  9
$DIMALTTD
 70
     2
  9
$DIMTXSTY
  7
Standard
  9
$DIMAUNIT
 70
     0
  9
$DIMADEC
 70
     0
  9
$DIMALTRND
 40
0.0
  9
$DIMAZIN
 70
     0
  9
$DIMDSEP
 70
     0
  9
$DIMATFIT
 70
     3
  9
$DIMFRAC
 70
     0
  9
$DIMLDRBLK
  1

  9
$DIMLUNIT
 70
     2
  9
$DIMLWD
 70
     0
  9
$DIMLWE
 70
     0
  9
$DIMTMOVE
 70
     0
  9
$LUNITS
 70
     2
  9
$LUPREC
 70
     4
  9
$SKETCHINC
 40
0.1
  9
$FILLETRAD
 40
0.0
  9
$AUNITS
 70
     0
  9
$AUPREC
 70
     0
  9
$MENU
  1
acad
  9
$ELEVATION
 40
0.0
  9
$PELEVATION
 40
0.0
  9
$THICKNESS
 40
0.0
  9
$LIMCHECK
 70
     0
  9
$CHAMFERA
 40
0.0
  9
$CHAMFERB
 40
0.0
  9
$CHAMFERC
 40
0.0
  9
$CHAMFERD
 40
0.0
  9
$SKPOLY
 70
     0
  9
$TDCREATE
 40
0.000000000
  9
$TDUCREATE
 40
0.000000000
  9
$TDUPDATE
 40
0.000000000
  9
$TDUUPDATE
 40
0.000000000
  9
$TDINDWG
 40
0.0000000000
  9
$TDUSRTIMER
 40
0.0000000000
  9
$USRTIMER
 70
     1
  9
$ANGBASE
 50
0.0
  9
$ANGDIR
 70
     0
  9
$PDMODE
 70
     0
  9
$PDSIZE
 40
0.0
  9
$PLINEWID
 40
0.0
  9
$SPLFRAME
 70
     0
  9
$SPLINETYPE
 70
     6
  9
$SPLINESEGS
 70
     8
  9
$HANDSEED
  5
8C
  9
$SURFTAB1
 70
     6
  9
$SURFTAB2
 70
     6
  9
$SURFTYPE
 70
     6
  9
$SURFU
 70
     6
  9
$SURFV
 70
     6
  9
$UCSBASE
  2

  9
$UCSNAME
  2

  9
$UCSORG
 10
0.0
 20
0.0
 30
0.0
  9
$UCSXDIR
 10
1.0
 20
0.0
 30
0.0
  9
$UCSYDIR
 10
0.0
 20
1.0
 30
0.0
  9
$UCSORTHOREF
  2

  9
$UCSORTHOVIEW
 70
     0
  9
$UCSORGTOP
 10
0.0
 20
0.0
 30
0.0
  9
$UCSORGBOTTOM
 10
0.0
 20
0.0
 30
0.0
  9
$UCSORGLEFT
 10
0.0
 20
0.0
 30
0.0
  9
$UCSORGRIGHT
 10
0.0
 20
0.0
 30
0.0
  9
$UCSORGFRONT
 10
0.0
 20
0.0
 30
0.0
  9
$UCSORGBACK
 10
0.0
 20
0.0
 30
0.0
  9
$PUCSBASE
  2

  9
$PUCSNAME
  2

  9
$PUCSORG
 10
0.0
 20
0.0
 30
0.0
  9
$PUCSXDIR
 10
1.0
 20
0.0
 30
0.0
  9
$PUCSYDIR
 10
0.0
 20
1.0
 30
0.0
  9
$PUCSORTHOREF
  2

  9
$PUCSORTHOVIEW
 70
     0
  9
$PUCSORGTOP
 10
0.0
 20
0.0
 30
0.0
  9
$PUCSORGBOTTOM
 10
0.0
 20
0.0
 30
0.0
  9
$PUCSORGLEFT
 10
0.0
 20
0.0
 30
0.0
  9
$PUCSORGRIGHT
 10
0.0
 20
0.0
 30
0.0
  9
$PUCSORGFRONT
 10
0.0
 20
0.0
 30
0.0
  9
$PUCSORGBACK
 10
0.0
 20
0.0
 30
0.0
  9
$USERI1
 70
     0
  9
$USERI2
 70
     0
  9
$USERI3
 70
     0
  9
$USERI4
 70
     0
  9
$USERI5
 70
     0
  9
$USERR1
 40
0.0
  9
$USERR2
 40
0.0
  9
$USERR3
 40
0.0
  9
$USERR4
 40
0.0
  9
$USERR5
 40
0.0
  9
$WORLDVIEW
 70
     1
  9
$SHADEDGE
 70
     3
  9
$SHADEDIF
 70
    70
  9
$TILEMODE
 70
     1
  9
$MAXACTVP
 70
    16
  9
$PINSBASE
 10
0.0
 20
0.0
 30
0.0
  9
$PLIMCHECK
 70
     0
  9
$PEXTMIN
 10
1.000000E+20
 20
1.000000E+20
 30
1.000000E+20
  9
$PEXTMAX
 10
-1.000000E+20
 20
-1.000000E+20
 30
-1.000000E+20
  9
$PLIMMIN
 10
0.0
 20
0.0
  9
$PLIMMAX
 10
12.0
 20
9.0
  9
$UNITMODE
 70
     0
  9
$VISRETAIN
 70
     0
  9
$PLINEGEN
 70
     1
  9
$PSLTSCALE
 70
     0
  9
$TREEDEPTH
 70
  3020
  9
$CMLSTYLE
  2
Standard
  9
$CMLJUST
 70
     0
  9
$CMLSCALE
 40
1.0
  9
$PROXYGRAPHICS
 70
     0
  9
$MEASUREMENT
 70
     0
  9
$CELWEIGHT
370
     0
  9
$ENDCAPS
280
     0
  9
$JOINSTYLE
280
     0
  9
$LWDISPLAY
290
     0
  9
$INSUNITS
 70
     5
  9
$HYPERLINKBASE
  1

  9
$XEDIT
290
     1
  9
$CEPSNTYPE
380
     0
  9
$PSTYLEMODE
290
     1
  9
$FINGERPRINTGUID
  2

  9
$VERSIONGUID
  2

  9
$EXTNAMES
290
     1
  9
$PSVPSCALE
 40
0.0
  0
ENDSEC
  0
SECTION
  2
CLASSES
  0
CLASS
  1
LWPOLYLINE
  2
AcDbPolyline
  3
AutoCAD 2000
 90
    32768
280
     0
281
     1
  0
CLASS
  1
IMAGE
  2
AcDbRasterImage
  3
ISM
 90
    32895
280
     0
281
     1
  0
CLASS
  1
OLE2FRAME
  2
AcDbOle2Frame
  3
AutoCAD 2000
 90
    32768
280
     0
281
     1
  0
CLASS
  1
HATCH
  2
AcDbHatch
  3
AutoCAD 2000
 90
    32768
280
     0
281
     1
  0
CLASS
  1
DICTIONARYVAR
  2
AcDbDictionaryVar
  3
AutoCAD 2000
 90
    32768
280
     0
281
     0
  0
CLASS
  1
RASTERVARIABLES
  2
AcDbRasterVariables
  3
ISM
 90
    32768
280
     0
281
     0
  0
CLASS
  1
IMAGEDEF
  2
AcDbRasterImageDef
  3
ISM
 90
    32768
280
     0
281
     0
  0
CLASS
  1
IMAGEDEF_REACTOR
  2
AcDbRasterImageDefReactor
  3
ISM
 90
    32769
280
     0
281
     0
  0
CLASS
  1
IDBUFFER
  2
AcDbIdBuffer
  3
AutoCAD 2000
 90
    32768
280
     0
281
     0
  0
CLASS
  1
SPATIAL_FILTER
  2
AcDbSpatialFilter
  3
AutoCAD 2000
 90
    32768
280
     0
281
     0
  0
CLASS
  1
XRECORD
  2
AcDbXrecord
  3
AutoCAD 2000
 90
    32768
280
     0
281
     0
  0
CLASS
  1
SORTENTSTABLE
  2
AcDbSortentsTable
  3
AutoCAD 2000
 90
    32768
280
     0
281
     0
  0
CLASS
  1
LAYER_INDEX
  2
AcDbLayerIndex
  3
AutoCAD 2000
 90
    32768
280
     0
281
     0
  0
CLASS
  1
SPATIAL_INDEX
  2
AcDbSpatialIndex
  3
AutoCAD 2000
 90
    32768
280
     0
281
     0
  0
CLASS
  1
OBJECT_PTR
  2
CAseDLPNTableRecord
  3
"ASE-LPNTableRecord"
 90
    32769
280
     0
281
     0
  0
CLASS
  1
LAYOUT
  2
AcDbLayout
  3
AutoCAD 2000
 90
        0
280
     0
281
     0
  0
CLASS
  1
PLOTSETTINGS
  2
AcDbPlotSettings
  3
AutoCAD 2000
 90
    32768
280
     0
281
     0
  0
CLASS
  1
ACDBDICTIONARYWDFLT
  2
AcDbDictionaryWithDefault
  3
AutoCAD 2000
 90
        0
280
     0
281
     0
  0
CLASS
  1
ACDBPLACEHOLDER
  2
AcDbPlaceHolder
  3
AutoCAD 2000
 90
        0
280
     0
281
     0
  0
CLASS
  1
VBA_PROJECT
  2
AcDbVbaProject
  3
acadvba
 90
    32768
280
     0
281
     0
  0
CLASS
  1
WIPEOUT
  2
AcDbWipeout
  3
WipeOut|AutoCAD Express Tool|expresstools@autodesk.com
 90
    32895
280
     0
281
     1
  0
CLASS
  1
WIPEOUTVARIABLES
  2
AcDbWipeoutVariables
  3
WipeOut|AutoCAD Express Tool|expresstools@autodesk.com
 90
        0
280
     0
281
     0
  0
CLASS
  1
RTEXT
  2
RText
  3
RText|AutoCAD Express Tool|expresstools@autodesk.com
 90
    32768
280
     0
281
     1
  0
CLASS
  1
ARCALIGNEDTEXT
  2
AcDbArcAlignedText
  3
ATEXT|AutoCAD Express Tool|expresstools@autodesk.com
 90
    32768
280
     0
281
     1
  0
ENDSEC
  0
SECTION
  2
TABLES
  0
TABLE
  2
VPORT
  5
7
100
AcDbSymbolTable
 70
     1
  0
VPORT
  5
15
100
AcDbSymbolTableRecord
100
AcDbViewportTableRecord
  2
*ACTIVE
 70
     0
 10
0.0
 20
0.0
 11
1.0
 21
1.0
 12
6.591288
 22
4.579184
 13
0.0
 23
0.0
 14
1.0
 24
1.0
 15
0.0
 25
0.0
 16
0.0
 26
0.0
 36
1.0
 17
0.0
 27
0.0
 37
0.0
 40
9.158369
 41
0.688564
 42
50.0
 43
0.0
 44
0.0
 50
0.0
 51
0.0
 71
     0
 72
   100
 73
     1
 74
     1
 75
     0
 76
     0
 77
     0
 78
     0
281
     0
 65
     0
110
0.0
120
0.0
130
0.0
111
1.0
121
0.0
131
0.0
112
0.0
122
1.0
132
0.0
345
0
346
0
 79
     0
146
0.0
  0
ENDTAB
  0
TABLE
  2
LTYPE
  5
4
100
AcDbSymbolTable
 70
     3
  0
LTYPE
  5
11
100
AcDbSymbolTableRecord
100
AcDbLinetypeTableRecord
  2
ByBlock
 70
    64
  3

 72
    65
 73
     0
 40
0.0
  0
LTYPE
  5
12
100
AcDbSymbolTableRecord
100
AcDbLinetypeTableRecord
  2
ByLayer
 70
    64
  3

 72
    65
 73
     0
 40
0.0
  0
LTYPE
  5
13
100
AcDbSymbolTableRecord
100
AcDbLinetypeTableRecord
  2
Continuous
 70
    64
  3
Solid line
 72
    65
 73
     0
 40
0.0
  0
ENDTAB
  0
TABLE
  2
LAYER
  5
2
100
AcDbSymbolTable
 70
     2
  0
LAYER
  5
14
100
AcDbSymbolTableRecord
100
AcDbLayerTableRecord
  2
0
 70
     0
 62
     7
  6
Continuous
290
     1
370
    -3
390
1D
  0
LAYER
  5
24
100
AcDbSymbolTableRecord
100
AcDbLayerTableRecord
  2
Ebene 1
 70
     0
 62
     7
  6
Continuous
290
     1
370
    -3
390
1F
  0
ENDTAB
  0
TABLE
  2
STYLE
  5
3
100
AcDbSymbolTable
 70
     1
  0
STYLE
  5
17
100
AcDbSymbolTableRecord
100
AcDbTextStyleTableRecord
  2
Standard
 70
     0
 40
0.0
 41
1.0
 50
0.0
 71
     0
 42
0.0
  3
txt
  4

  0
ENDTAB
  0
TABLE
  2
VIEW
  5
5
100
AcDbSymbolTable
 70
     0
  0
ENDTAB
  0
TABLE
  2
UCS
  5
6
100
AcDbSymbolTable
 70
     0
  0
ENDTAB
  0
TABLE
  2
APPID
  5
8
100
AcDbSymbolTable
 70
     1
  0
APPID
  5
16
100
AcDbSymbolTableRecord
100
AcDbRegAppTableRecord
  2
ACAD
 70
     0
  0
ENDTAB
  0
TABLE
  2
DIMSTYLE
  5
9
100
AcDbSymbolTable
 70
     1
100
AcDbDimStyleTable
 71
     0
  0
DIMSTYLE
105
18
100
AcDbSymbolTableRecord
100
AcDbDimStyleTableRecord
  2
Standard
 70
     0
  3

  4

 40
1.0
 41
0.18
 42
0.0625
 43
0.38
 44
0.18
 45
0.0
 46
0.0
 47
0.0
 48
0.0
 71
     0
 72
     0
 73
     1
 74
     1
 75
     0
 76
     0
 77
     0
 78
     0
 79
     0
140
0.18
141
0.09
142
0.0
143
25.4
144
1.0
145
0.0
146
1.0
147
0.09
148
0.0
170
     0
171
     2
172
     0
173
     0
174
     0
175
     0
176
     0
177
     0
178
     0
179
     0
271
     4
272
     4
273
     2
274
     2
275
     0
276
     0
277
     2
278
    46
279
     0
280
     0
281
     0
282
     0
283
     1
284
     0
285
     0
286
     0
288
     0
340
17
341
0
342
0
343
0
344
0
371
    -2
372
    -2
  0
ENDTAB
  0
TABLE
  2
BLOCK_RECORD
  5
1
100
AcDbSymbolTable
 70
     0
  0
BLOCK_RECORD
  5
A
100
AcDbSymbolTableRecord
100
AcDbBlockTableRecord
  2
*MODEL_SPACE
340
20
  0
BLOCK_RECORD
  5
B
100
AcDbSymbolTableRecord
100
AcDbBlockTableRecord
  2
*PAPER_SPACE
340
21
  0
ENDTAB
  0
ENDSEC
  0
SECTION
  2
BLOCKS
  0
BLOCK
  5
D
100
AcDbEntity
  8
0
100
AcDbBlockBegin
  2
*MODEL_SPACE
 70
     0
 10
0.0
 20
0.0
 30
0.0
  3
*MODEL_SPACE
  1

  0
ENDBLK
  5
E
100
AcDbEntity
  8
0
100
AcDbBlockEnd
  0
BLOCK
  5
F
100
AcDbEntity
 67
     1
  8
0
100
AcDbBlockBegin
  2
*PAPER_SPACE
 70
     0
 10
0.0
 20
0.0
 30
0.0
  3
*PAPER_SPACE
  1

  0
ENDBLK
  5
10
100
AcDbEntity
 67
     1
  8
0
100
AcDbBlockEnd
  0
ENDSEC
  0
SECTION
  2
ENTITIES
  0
SPLINE
  5
25
100
AcDbEntity
  8
Ebene 1
100
AcDbSpline
210
0.0
220
0.0
230
1.0
 70
     1
 71
     3
 72
   176
 73
   172
 74
     0
 42
0.0000000001
 43
0.0000000001
 40
0.0
 40
0.0
 40
0.0
 40
0.0
 40
0.0232558139534884
 40
0.0232558139534884
 40
0.0232558139534884
 40
0.0232558139534884
 40
0.0465116279069767
 40
0.0465116279069767
 40
0.0465116279069767
 40
0.0465116279069767
 40
0.0697674418604651
 40
0.0697674418604651
 40
0.0697674418604651
 40
0.0697674418604651
 40
0.0930232558139535
 40
0.0930232558139535
 40
0.0930232558139535
 40
0.0930232558139535
 40
0.1162790697674419
 40
0.1162790697674419
 40
0.1162790697674419
 40
0.1162790697674419
 40
0.1395348837209302
 40
0.1395348837209302
 40
0.1395348837209302
 40
0.1395348837209302
 40
0.1627906976744186
 40
0.1627906976744186
 40
0.1627906976744186
 40
0.1627906976744186
 40
0.186046511627907
 40
0.186046511627907
 40
0.186046511627907
 40
0.186046511627907
 40
0.2093023255813953
 40
0.2093023255813953
 40
0.2093023255813953
 40
0.2093023255813953
 40
0.2325581395348837
 40
0.2325581395348837
 40
0.2325581395348837
 40
0.2325581395348837
 40
0.2558139534883721
 40
0.2558139534883721
 40
0.2558139534883721
 40
0.2558139534883721
 40
0.2790697674418604
 40
0.2790697674418604
 40
0.2790697674418604
 40
0.2790697674418604
 40
0.3023255813953488
 40
0.3023255813953488
 40
0.3023255813953488
 40
0.3023255813953488
 40
0.3255813953488371
 40
0.3255813953488371
 40
0.3255813953488371
 40
0.3255813953488371
 40
0.3488372093023255
 40
0.3488372093023255
 40
0.3488372093023255
 40
0.3488372093023255
 40
0.3720930232558138
 40
0.3720930232558138
 40
0.3720930232558138
 40
0.3720930232558138
 40
0.3953488372093022
 40
0.3953488372093022
 40
0.3953488372093022
 40
0.3953488372093022
 40
0.4186046511627906
 40
0.4186046511627906
 40
0.4186046511627906
 40
0.4186046511627906
 40
0.4418604651162789
 40
0.4418604651162789
 40
0.4418604651162789
 40
0.4418604651162789
 40
0.4651162790697673
 40
0.4651162790697673
 40
0.4651162790697673
 40
0.4651162790697673
 40
0.4883720930232556
 40
0.4883720930232556
 40
0.4883720930232556
 40
0.4883720930232556
 40
0.511627906976744
 40
0.511627906976744
 40
0.511627906976744
 40
0.511627906976744
 40
0.5348837209302324
 40
0.5348837209302324
 40
0.5348837209302324
 40
0.5348837209302324
 40
0.5581395348837208
 40
0.5581395348837208
 40
0.5581395348837208
 40
0.5581395348837208
 40
0.5813953488372092
 40
0.5813953488372092
 40
0.5813953488372092
 40
0.5813953488372092
 40
0.6046511627906976
 40
0.6046511627906976
 40
0.6046511627906976
 40
0.6046511627906976
 40
0.6279069767441861
 40
0.6279069767441861
 40
0.6279069767441861
 40
0.6279069767441861
 40
0.6511627906976745
 40
0.6511627906976745
 40
0.6511627906976745
 40
0.6511627906976745
 40
0.6744186046511629
 40
0.6744186046511629
 40
0.6744186046511629
 40
0.6744186046511629
 40
0.6976744186046513
 40
0.6976744186046513
 40
0.6976744186046513
 40
0.6976744186046513
 40
0.7209302325581397
 40
0.7209302325581397
 40
0.7209302325581397
 40
0.7209302325581397
 40
0.7441860465116281
 40
0.7441860465116281
 40
0.7441860465116281
 40
0.7441860465116281
 40
0.7674418604651165
 40
0.7674418604651165
 40
0.7674418604651165
 40
0.7674418604651165
 40
0.790697674418605
 40
0.790697674418605
 40
0.790697674418605
 40
0.790697674418605
 40
0.8139534883720934
 40
0.8139534883720934
 40
0.8139534883720934
 40
0.8139534883720934
 40
0.8372093023255818
 40
0.8372093023255818
 40
0.8372093023255818
 40
0.8372093023255818
 40
0.8604651162790702
 40
0.8604651162790702
 40
0.8604651162790702
 40
0.8604651162790702
 40
0.8837209302325586
 40
0.8837209302325586
 40
0.8837209302325586
 40
0.8837209302325586
 40
0.906976744186047
 40
0.906976744186047
 40
0.906976744186047
 40
0.906976744186047
 40
0.9302325581395354
 40
0.9302325581395354
 40
0.9302325581395354
 40
0.9302325581395354
 40
0.9534883720930238
 40
0.9534883720930238
 40
0.9534883720930238
 40
0.9534883720930238
 40
0.9767441860465123
 40
0.9767441860465123
 40
0.9767441860465123
 40
0.9767441860465123
 40
1.0
 40
1.0
 40
1.0
 40
1.0
 10
-2.9564100000000004
 20
7.6041900000000009
 30
0.0
 10
-3.7209500000000002
 20
7.0809500000000005
 30
0.0
 10
-2.8954500000000003
 20
5.0616500000000002
 30
0.0
 10
-2.1994900000000004
 20
6.4078500000000007
 30
0.0
 10
-2.1994900000000004
 20
6.4078500000000007
 30
0.0
 10
-2.22235
 20
5.9862100000000007
 30
0.0
 10
-1.9658100000000001
 20
5.5442500000000008
 30
0.0
 10
-1.6127500000000001
 20
5.9862100000000007
 30
0.0
 10
-1.6127500000000001
 20
5.9862100000000007
 30
0.0
 10
-1.6254500000000001
 20
5.7550700000000008
 30
0.0
 10
-1.4705100000000002
 20
5.5442500000000008
 30
0.0
 10
-1.1428500000000001
 20
5.5874300000000003
 30
0.0
 10
-1.1428500000000001
 20
5.5874300000000003
 30
0.0
 10
-1.0158500000000001
 20
5.5671100000000004
 30
0.0
 10
-0.8990100000000001
 20
5.6306100000000008
 30
0.0
 10
-0.7948700000000001
 20
5.6712500000000006
 30
0.0
 10
-0.7948700000000001
 20
5.6712500000000006
 30
0.0
 10
-1.12761
 20
6.3113300000000008
 30
0.0
 10
-0.8304300000000001
 20
6.9717300000000009
 30
0.0
 10
-0.32497
 20
7.373050000000001
 30
0.0
 10
-0.32497
 20
7.373050000000001
 30
0.0
 10
-0.18527
 20
7.4873500000000002
 30
0.0
 10
-0.03033
 20
7.5508500000000005
 30
0.0
 10
0.17286
 20
7.6041900000000009
 30
0.0
 10
0.17286
 20
7.6041900000000009
 30
0.0
 10
-0.5789700000000001
 20
7.2054100000000005
 30
0.0
 10
-0.6424700000000001
 20
5.2724700000000002
 30
0.0
 10
0.29478
 20
6.3875300000000008
 30
0.0
 10
0.29478
 20
6.3875300000000008
 30
0.0
 10
0.20334
 20
6.1132100000000005
 30
0.0
 10
0.3024
 20
5.7550700000000008
 30
0.0
 10
0.5868800000000001
 20
5.8820700000000006
 30
0.0
 10
0.5868800000000001
 20
5.8820700000000006
 30
0.0
 10
0.6275200000000001
 20
5.6356900000000003
 30
0.0
 10
0.7977000000000001
 20
5.4197900000000008
 30
0.0
 10
0.912
 20
5.2470700000000008
 30
0.0
 10
0.912
 20
5.2470700000000008
 30
0.0
 10
1.44032
 20
4.4393500000000001
 30
0.0
 10
2.5401400000000001
 20
4.2615500000000006
 30
0.0
 10
2.9668600000000001
 20
3.2760300000000004
 30
0.0
 10
2.9668600000000001
 20
3.2760300000000004
 30
0.0
 10
2.9998800000000001
 20
3.0423500000000003
 30
0.0
 10
2.7941400000000001
 20
2.9610700000000003
 30
0.0
 10
2.6112600000000001
 20
3.0220300000000004
 30
0.0
 10
2.6112600000000001
 20
3.0220300000000004
 30
0.0
 10
2.5223600000000004
 20
2.9178900000000003
 30
0.0
 10
2.6493600000000002
 20
2.8137500000000002
 30
0.0
 10
2.6900000000000004
 20
2.9610700000000003
 30
0.0
 10
2.6900000000000004
 20
2.9610700000000003
 30
0.0
 10
2.71286
 20
2.5826100000000003
 30
0.0
 10
2.4944200000000003
 20
2.7502500000000003
 30
0.0
 10
2.4410800000000004
 20
3.0017100000000001
 30
0.0
 10
2.4410800000000004
 20
3.0017100000000001
 30
0.0
 10
2.1845400000000001
 20
2.5597500000000002
 30
0.0
 10
1.7527400000000002
 20
3.3395300000000003
 30
0.0
 10
1.7349600000000001
 20
2.8340700000000001
 30
0.0
 10
1.7349600000000001
 20
2.8340700000000001
 30
0.0
 10
1.7349600000000001
 20
2.8340700000000001
 30
0.0
 10
1.8289400000000002
 20
2.9178900000000003
 30
0.0
 10
1.8289400000000002
 20
2.9178900000000003
 30
0.0
 10
1.8289400000000002
 20
2.9178900000000003
 30
0.0
 10
1.8568800000000001
 20
2.8340700000000001
 30
0.0
 10
1.8010000000000002
 20
2.7502500000000003
 30
0.0
 10
1.7756000000000001
 20
2.6867500000000004
 30
0.0
 10
1.7756000000000001
 20
2.6867500000000004
 30
0.0
 10
1.5851000000000002
 20
3.2760300000000004
 30
0.0
 10
1.3006200000000001
 20
2.6232500000000001
 30
0.0
 10
1.18632
 20
3.1490300000000002
 30
0.0
 10
1.18632
 20
3.1490300000000002
 30
0.0
 10
1.0567800000000001
 20
2.6638900000000003
 30
0.0
 10
1.5647800000000001
 20
2.2651100000000004
 30
0.0
 10
1.7019400000000002
 20
2.4352900000000002
 30
0.0
 10
1.7019400000000002
 20
2.4352900000000002
 30
0.0
 10
1.69432
 20
1.7190100000000001
 30
0.0
 10
2.9846400000000002
 20
1.52851
 30
0.0
 10
2.7865200000000003
 20
0.35249
 30
0.0
 10
2.7865200000000003
 20
0.35249
 30
0.0
 10
3.8304600000000004
 20
-0.04374
 30
0.0
 10
4.5772200000000005
 20
-1.07498
 30
0.0
 10
4.7753400000000008
 20
-2.1468600000000002
 30
0.0
 10
4.7753400000000008
 20
-2.1468600000000002
 30
0.0
 10
4.55436
 20
-3.15524
 30
0.0
 10
4.4984800000000007
 20
-4.2271200000000002
 30
0.0
 10
4.2140000000000004
 20
-5.2151800000000001
 30
0.0
 10
4.2140000000000004
 20
-5.2151800000000001
 30
0.0
 10
4.6000800000000002
 20
-5.4260000000000002
 30
0.0
 10
5.2452400000000008
 20
-4.9637200000000004
 30
0.0
 10
5.5297200000000002
 20
-5.0475400000000006
 30
0.0
 10
5.5297200000000002
 20
-5.0475400000000006
 30
0.0
 10
4.8134400000000008
 20
-6.0279800000000003
 30
0.0
 10
3.6171000000000002
 20
-6.3810400000000005
 30
0.0
 10
2.6036400000000004
 20
-6.3632600000000004
 30
0.0
 10
2.6036400000000004
 20
-6.3632600000000004
 30
0.0
 10
0.9678800000000001
 20
-6.3353200000000003
 30
0.0
 10
-0.6094500000000001
 20
-5.5377600000000005
 30
0.0
 10
-2.05471
 20
-6.3302400000000008
 30
0.0
 10
-2.05471
 20
-6.3302400000000008
 30
0.0
 10
-2.05471
 20
-6.3302400000000008
 30
0.0
 10
-2.4788900000000003
 20
-6.2870600000000003
 30
0.0
 10
-2.4788900000000003
 20
-6.2870600000000003
 30
0.0
 10
-2.4788900000000003
 20
-6.2870600000000003
 30
0.0
 10
-2.4788900000000003
 20
-6.2870600000000003
 30
0.0
 10
-2.9157700000000002
 20
-6.2870600000000003
 30
0.0
 10
-2.9157700000000002
 20
-6.2870600000000003
 30
0.0
 10
-2.9157700000000002
 20
-6.2870600000000003
 30
0.0
 10
-3.5177500000000004
 20
-5.6139600000000005
 30
0.0
 10
-3.5634700000000001
 20
-7.0871600000000008
 30
0.0
 10
-4.1984700000000004
 20
-7.1074800000000007
 30
0.0
 10
-4.1984700000000004
 20
-7.1074800000000007
 30
0.0
 10
-4.2975300000000001
 20
-7.3614800000000002
 30
0.0
 10
-3.9901900000000001
 20
-7.4656200000000004
 30
0.0
 10
-3.9495500000000003
 20
-7.6104000000000003
 30
0.0
 10
-3.9495500000000003
 20
-7.6104000000000003
 30
0.0
 10
-4.9757100000000003
 20
-7.4656200000000004
 30
0.0
 10
-4.4499300000000002
 20
-6.2870600000000003
 30
0.0
 10
-4.1171899999999999
 20
-5.7206400000000004
 30
0.0
 10
-4.1171899999999999
 20
-5.7206400000000004
 30
0.0
 10
-4.2467300000000003
 20
-5.6977800000000007
 30
0.0
 10
-4.3330900000000003
 20
-5.8247800000000005
 30
0.0
 10
-4.43215
 20
-5.8882800000000008
 30
0.0
 10
-4.43215
 20
-5.8882800000000008
 30
0.0
 10
-4.64297
 20
-6.5410600000000008
 30
0.0
 10
-5.3998900000000001
 20
-6.1829200000000002
 30
0.0
 10
-5.3338500000000009
 20
-6.8966600000000007
 30
0.0
 10
-5.3338500000000009
 20
-6.8966600000000007
 30
0.0
 10
-5.8697900000000001
 20
-6.3073800000000002
 30
0.0
 10
-5.1458900000000005
 20
-5.5733200000000007
 30
0.0
 10
-4.64297
 20
-5.2355
 30
0.0
 10
-4.64297
 20
-5.2355
 30
0.0
 10
-4.85379
 20
-4.9840400000000002
 30
0.0
 10
-5.19923
 20
-5.4056800000000003
 30
0.0
 10
-5.3694100000000002
 20
-5.5301400000000003
 30
0.0
 10
-5.3694100000000002
 20
-5.5301400000000003
 30
0.0
 10
-5.2779700000000007
 20
-4.4379400000000002
 30
0.0
 10
-4.0308299999999999
 20
-4.2271200000000002
 30
0.0
 10
-3.2535900000000004
 20
-3.7013400000000005
 30
0.0
 10
-3.2535900000000004
 20
-3.7013400000000005
 30
0.0
 10
-2.3544300000000002
 20
-3.7242000000000002
 30
0.0
 10
-1.6356100000000002
 20
-4.6055800000000007
 30
0.0
 10
-0.6907300000000001
 20
-4.3744400000000008
 30
0.0
 10
-0.6907300000000001
 20
-4.3744400000000008
 30
0.0
 10
-0.6678700000000001
 20
-4.0366200000000001
 30
0.0
 10
-0.6272300000000001
 20
-3.7013400000000005
 30
0.0
 10
-0.8151900000000001
 20
-3.4270200000000002
 30
0.0
 10
-0.8151900000000001
 20
-3.4270200000000002
 30
0.0
 10
-0.8507500000000001
 20
-3.03078
 30
0.0
 10
-0.58913
 20
-2.7336
 30
0.0
 10
-0.47737
 20
-2.3780000000000001
 30
0.0
 10
-0.47737
 20
-2.3780000000000001
 30
0.0
 10
-0.47737
 20
-2.3780000000000001
 30
0.0
 10
-0.8812300000000001
 20
-1.5982200000000002
 30
0.0
 10
-0.8812300000000001
 20
-1.5982200000000002
 30
0.0
 10
-0.8812300000000001
 20
-1.5982200000000002
 30
0.0
 10
-2.52969
 20
-0.3587
 30
0.0
 10
-2.7582900000000001
 20
1.56915
 30
0.0
 10
-2.9411700000000001
 20
3.4614500000000001
 30
0.0
 10
-2.9411700000000001
 20
3.4614500000000001
 30
0.0
 10
-3.8327100000000005
 20
2.9559900000000003
 30
0.0
 10
-4.1705300000000003
 20
1.6783700000000001
 30
0.0
 10
-5.4329100000000006
 20
1.61487
 30
0.0
 10
-5.4329100000000006
 20
1.61487
 30
0.0
 10
-4.2111700000000001
 20
2.3921100000000002
 30
0.0
 10
-4.40421
 20
4.4317299999999999
 30
0.0
 10
-2.8116300000000001
 20
4.9143300000000005
 30
0.0
 10
-2.8116300000000001
 20
4.9143300000000005
 30
0.0
 10
-3.5533100000000002
 20
5.5518700000000001
 30
0.0
 10
-4.1603700000000003
 20
6.6212100000000005
 30
0.0
 10
-3.4390100000000001
 20
7.3374900000000007
 30
0.0
 10
-3.4390100000000001
 20
7.3374900000000007
 30
0.0
 10
-3.3272500000000003
 20
7.449250000000001
 30
0.0
 10
-3.2205700000000004
 20
7.5584700000000007
 30
0.0
 10
-2.9564100000000004
 20
7.6041900000000009
 30
0.0
  0
SPLINE
  5
26
100
AcDbEntity
  8
Ebene 1
100
AcDbSpline
210
0.0
220
0.0
230
1.0
 70
     1
 71
     3
 72
    16
 73
    12
 74
     0
 42
0.0000000001
 43
0.0000000001
 40
0.0
 40
0.0
 40
0.0
 40
0.0
 40
0.3333333333333333
 40
0.3333333333333333
 40
0.3333333333333333
 40
0.3333333333333333
 40
0.6666666666666666
 40
0.6666666666666666
 40
0.6666666666666666
 40
0.6666666666666666
 40
1.0
 40
1.0
 40
1.0
 40
1.0
 10
0.8027800000000001
 20
1.44723
 30
0.0
 10
0.8764400000000001
 20
0.6039500000000001
 30
0.0
 10
1.9381600000000001
 20
0.45917
 30
0.0
 10
2.5858600000000003
 20
0.37281
 30
0.0
 10
2.5858600000000003
 20
0.37281
 30
0.0
 10
2.5858600000000003
 20
0.7309500000000001
 30
0.0
 10
2.4309200000000004
 20
1.06877
 30
0.0
 10
2.1693000000000002
 20
1.32023
 30
0.0
 10
2.1693000000000002
 20
1.32023
 30
0.0
 10
1.7502000000000002
 20
0.9824100000000001
 30
0.0
 10
1.2218800000000001
 20
1.2999100000000001
 30
0.0
 10
0.8027800000000001
 20
1.44723
 30
0.0
  0
SPLINE
  5
27
100
AcDbEntity
  8
Ebene 1
 62
     7
100
AcDbSpline
210
0.0
220
0.0
230
1.0
 70
     1
 71
     3
 72
    20
 73
    16
 74
     0
 42
0.0000000001
 43
0.0000000001
 40
0.0
 40
0.0
 40
0.0
 40
0.0
 40
0.25
 40
0.25
 40
0.25
 40
0.25
 40
0.5
 40
0.5
 40
0.5
 40
0.5
 40
0.75
 40
0.75
 40
0.75
 40
0.75
 40
1.0
 40
1.0
 40
1.0
 40
1.0
 10
-0.5611900000000001
 20
6.8472700000000009
 30
0.0
 10
-0.5408700000000001
 20
6.8472700000000009
 30
0.0
 10
-0.5230900000000001
 20
6.826950000000001
 30
0.0
 10
-0.5180100000000001
 20
6.8066300000000002
 30
0.0
 10
-0.5180100000000001
 20
6.8066300000000002
 30
0.0
 10
-0.5662700000000001
 20
6.5983500000000008
 30
0.0
 10
-0.6729500000000001
 20
6.2808500000000009
 30
0.0
 10
-0.4799100000000001
 20
6.1132100000000005
 30
0.0
 10
-0.4799100000000001
 20
6.1132100000000005
 30
0.0
 10
-0.4799100000000001
 20
6.1132100000000005
 30
0.0
 10
-0.4595900000000001
 20
6.0090700000000004
 30
0.0
 10
-0.4595900000000001
 20
6.0090700000000004
 30
0.0
 10
-0.4595900000000001
 20
6.0090700000000004
 30
0.0
 10
-0.71867
 20
6.2198900000000004
 30
0.0
 10
-0.7288300000000001
 20
6.5754900000000003
 30
0.0
 10
-0.5611900000000001
 20
6.8472700000000009
 30
0.0
  0
SPLINE
  5
28
100
AcDbEntity
  8
Ebene 1
 62
     7
100
AcDbSpline
210
0.0
220
0.0
230
1.0
 70
     1
 71
     3
 72
    36
 73
    32
 74
     0
 42
0.0000000001
 43
0.0000000001
 40
0.0
 40
0.0
 40
0.0
 40
0.0
 40
0.125
 40
0.125
 40
0.125
 40
0.125
 40
0.25
 40
0.25
 40
0.25
 40
0.25
 40
0.375
 40
0.375
 40
0.375
 40
0.375
 40
0.5
 40
0.5
 40
0.5
 40
0.5
 40
0.625
 40
0.625
 40
0.625
 40
0.625
 40
0.75
 40
0.75
 40
0.75
 40
0.75
 40
0.875
 40
0.875
 40
0.875
 40
0.875
 40
1.0
 40
1.0
 40
1.0
 40
1.0
 10
-3.3348700000000004
 20
5.7982500000000003
 30
0.0
 10
-3.5126700000000004
 20
5.9658900000000008
 30
0.0
 10
-3.7158700000000002
 20
6.2605300000000002
 30
0.0
 10
-3.5710900000000003
 20
6.5119900000000008
 30
0.0
 10
-3.5710900000000003
 20
6.5119900000000008
 30
0.0
 10
-3.3831300000000004
 20
5.8820700000000006
 30
0.0
 10
-2.6414500000000003
 20
5.8820700000000006
 30
0.0
 10
-2.2426700000000004
 20
5.4807500000000005
 30
0.0
 10
-2.2426700000000004
 20
5.4807500000000005
 30
0.0
 10
-2.3976100000000002
 20
5.2521500000000003
 30
0.0
 10
-2.6262100000000004
 20
5.5036100000000001
 30
0.0
 10
-2.8116300000000001
 20
5.5442500000000008
 30
0.0
 10
-2.8116300000000001
 20
5.5442500000000008
 30
0.0
 10
-2.9818100000000003
 20
5.4629700000000003
 30
0.0
 10
-2.7100300000000002
 20
5.3766100000000003
 30
0.0
 10
-2.6262100000000004
 20
5.3562900000000004
 30
0.0
 10
-2.6262100000000004
 20
5.3562900000000004
 30
0.0
 10
-2.6262100000000004
 20
5.3562900000000004
 30
0.0
 10
-2.4966700000000004
 20
5.2521500000000003
 30
0.0
 10
-2.4966700000000004
 20
5.2521500000000003
 30
0.0
 10
-2.4966700000000004
 20
5.2521500000000003
 30
0.0
 10
-2.4992100000000002
 20
5.2089700000000008
 30
0.0
 10
-2.4788900000000003
 20
5.1657900000000003
 30
0.0
 10
-2.51953
 20
5.1251500000000005
 30
0.0
 10
-2.51953
 20
5.1251500000000005
 30
0.0
 10
-2.90307
 20
5.10229
 30
0.0
 10
-3.0097500000000004
 20
5.7550700000000008
 30
0.0
 10
-3.3501100000000004
 20
5.9023900000000005
 30
0.0
 10
-3.3501100000000004
 20
5.9023900000000005
 30
0.0
 10
-3.3501100000000004
 20
5.9023900000000005
 30
0.0
 10
-3.3348700000000004
 20
5.7982500000000003
 30
0.0
 10
-3.3348700000000004
 20
5.7982500000000003
 30
0.0
  0
SPLINE
  5
29
100
AcDbEntity
  8
Ebene 1
 62
     7
100
AcDbSpline
210
0.0
220
0.0
230
1.0
 70
     1
 71
     3
 72
    12
 73
     8
 74
     0
 42
0.0000000001
 43
0.0000000001
 40
0.0
 40
0.0
 40
0.0
 40
0.0
 40
0.5
 40
0.5
 40
0.5
 40
0.5
 40
1.0
 40
1.0
 40
1.0
 40
1.0
 10
-2.3264900000000002
 20
6.1132100000000005
 30
0.0
 10
-2.27061
 20
6.0497100000000001
 30
0.0
 10
-2.1766300000000003
 20
5.9455700000000009
 30
0.0
 10
-2.2477500000000004
 20
5.8592100000000009
 30
0.0
 10
-2.2477500000000004
 20
5.8592100000000009
 30
0.0
 10
-2.4026900000000002
 20
5.8414300000000008
 30
0.0
 10
-2.3290300000000004
 20
6.0293900000000002
 30
0.0
 10
-2.3264900000000002
 20
6.1132100000000005
 30
0.0
  0
SPLINE
  5
2A
100
AcDbEntity
  8
Ebene 1
 62
     7
100
AcDbSpline
210
0.0
220
0.0
230
1.0
 70
     1
 71
     3
 72
    16
 73
    12
 74
     0
 42
0.0000000001
 43
0.0000000001
 40
0.0
 40
0.0
 40
0.0
 40
0.0
 40
0.3333333333333333
 40
0.3333333333333333
 40
0.3333333333333333
 40
0.3333333333333333
 40
0.6666666666666666
 40
0.6666666666666666
 40
0.6666666666666666
 40
0.6666666666666666
 40
1.0
 40
1.0
 40
1.0
 40
1.0
 10
0.12968
 20
6.1132100000000005
 30
0.0
 10
0.12968
 20
6.1132100000000005
 30
0.0
 10
0.16778
 20
6.1132100000000005
 30
0.0
 10
0.16778
 20
6.1132100000000005
 30
0.0
 10
0.16778
 20
6.1132100000000005
 30
0.0
 10
0.16778
 20
6.1132100000000005
 30
0.0
 10
0.2516000000000001
 20
5.8185700000000002
 30
0.0
 10
0.2516000000000001
 20
5.8185700000000002
 30
0.0
 10
0.2516000000000001
 20
5.8185700000000002
 30
0.0
 10
0.0992
 20
5.8185700000000002
 30
0.0
 10
0.12714
 20
6.0090700000000004
 30
0.0
 10
0.12968
 20
6.1132100000000005
 30
0.0
  0
SPLINE
  5
2B
100
AcDbEntity
  8
Ebene 1
 62
     7
100
AcDbSpline
210
0.0
220
0.0
230
1.0
 70
     1
 71
     3
 72
    16
 73
    12
 74
     0
 42
0.0000000001
 43
0.0000000001
 40
0.0
 40
0.0
 40
0.0
 40
0.0
 40
0.3333333333333333
 40
0.3333333333333333
 40
0.3333333333333333
 40
0.3333333333333333
 40
0.6666666666666666
 40
0.6666666666666666
 40
0.6666666666666666
 40
0.6666666666666666
 40
1.0
 40
1.0
 40
1.0
 40
1.0
 10
0.02554
 20
5.7347500000000009
 30
0.0
 10
0.02554
 20
5.7347500000000009
 30
0.0
 10
0.12714
 20
5.7144300000000001
 30
0.0
 10
0.12714
 20
5.7144300000000001
 30
0.0
 10
0.12714
 20
5.7144300000000001
 30
0.0
 10
0.12714
 20
5.7144300000000001
 30
0.0
 10
0.15
 20
5.7347500000000009
 30
0.0
 10
0.15
 20
5.7347500000000009
 30
0.0
 10
0.15
 20
5.7347500000000009
 30
0.0
 10
0.30748
 20
5.6077500000000002
 30
0.0
 10
-0.11415
 20
5.6077500000000002
 30
0.0
 10
0.02554
 20
5.7347500000000009
 30
0.0
  0
SPLINE
  5
2C
100
AcDbEntity
  8
Ebene 1
 62
     7
100
AcDbSpline
210
0.0
220
0.0
230
1.0
 70
     1
 71
     3
 72
    12
 73
     8
 74
     0
 42
0.0000000001
 43
0.0000000001
 40
0.0
 40
0.0
 40
0.0
 40
0.0
 40
0.5
 40
0.5
 40
0.5
 40
0.5
 40
1.0
 40
1.0
 40
1.0
 40
1.0
 10
-1.7397500000000001
 20
5.7144300000000001
 30
0.0
 10
-1.67117
 20
5.7347500000000009
 30
0.0
 10
-1.6635500000000001
 20
5.6306100000000008
 30
0.0
 10
-1.6787900000000002
 20
5.5874300000000003
 30
0.0
 10
-1.6787900000000002
 20
5.5874300000000003
 30
0.0
 10
-1.75753
 20
5.5671100000000004
 30
0.0
 10
-1.7829300000000001
 20
5.6712500000000006
 30
0.0
 10
-1.7397500000000001
 20
5.7144300000000001
 30
0.0
  0
SPLINE
  5
2D
100
AcDbEntity
  8
Ebene 1
 62
     7
100
AcDbSpline
210
0.0
220
0.0
230
1.0
 70
     1
 71
     3
 72
    16
 73
    12
 74
     0
 42
0.0000000001
 43
0.0000000001
 40
0.0
 40
0.0
 40
0.0
 40
0.0
 40
0.3333333333333333
 40
0.3333333333333333
 40
0.3333333333333333
 40
0.3333333333333333
 40
0.6666666666666666
 40
0.6666666666666666
 40
0.6666666666666666
 40
0.6666666666666666
 40
1.0
 40
1.0
 40
1.0
 40
1.0
 10
-2.0318500000000004
 20
5.6509300000000007
 30
0.0
 10
-1.8489700000000002
 20
5.5874300000000003
 30
0.0
 10
-2.18933
 20
5.4807500000000005
 30
0.0
 10
-2.15123
 20
5.6306100000000008
 30
0.0
 10
-2.15123
 20
5.6306100000000008
 30
0.0
 10
-2.15123
 20
5.6306100000000008
 30
0.0
 10
-2.1182100000000004
 20
5.6306100000000008
 30
0.0
 10
-2.1182100000000004
 20
5.6306100000000008
 30
0.0
 10
-2.1182100000000004
 20
5.6306100000000008
 30
0.0
 10
-2.1182100000000004
 20
5.6306100000000008
 30
0.0
 10
-2.0318500000000004
 20
5.6509300000000007
 30
0.0
 10
-2.0318500000000004
 20
5.6509300000000007
 30
0.0
  0
SPLINE
  5
2E
100
AcDbEntity
  8
Ebene 1
 62
     7
100
AcDbSpline
210
0.0
220
0.0
230
1.0
 70
     1
 71
     3
 72
    20
 73
    16
 74
     0
 42
0.0000000001
 43
0.0000000001
 40
0.0
 40
0.0
 40
0.0
 40
0.0
 40
0.25
 40
0.25
 40
0.25
 40
0.25
 40
0.5
 40
0.5
 40
0.5
 40
0.5
 40
0.75
 40
0.75
 40
0.75
 40
0.75
 40
1.0
 40
1.0
 40
1.0
 40
1.0
 10
0.3405
 20
5.6306100000000008
 30
0.0
 10
0.40146
 20
5.6077500000000002
 30
0.0
 10
0.5208400000000001
 20
5.5874300000000003
 30
0.0
 10
0.5259200000000001
 20
5.5036100000000001
 30
0.0
 10
0.5259200000000001
 20
5.5036100000000001
 30
0.0
 10
0.39638
 20
5.4807500000000005
 30
0.0
 10
0.28462
 20
5.4197900000000008
 30
0.0
 10
0.19318
 20
5.3359700000000005
 30
0.0
 10
0.19318
 20
5.3359700000000005
 30
0.0
 10
0.08142
 20
5.31311
 30
0.0
 10
0.06364
 20
5.4629700000000003
 30
0.0
 10
0.14746
 20
5.5036100000000001
 30
0.0
 10
0.14746
 20
5.5036100000000001
 30
0.0
 10
0.21858
 20
5.5239300000000009
 30
0.0
 10
0.2897
 20
5.5874300000000003
 30
0.0
 10
0.3405
 20
5.6306100000000008
 30
0.0
  0
SPLINE
  5
2F
100
AcDbEntity
  8
Ebene 1
 62
     7
100
AcDbSpline
210
0.0
220
0.0
230
1.0
 70
     1
 71
     3
 72
    12
 73
     8
 74
     0
 42
0.0000000001
 43
0.0000000001
 40
0.0
 40
0.0
 40
0.0
 40
0.0
 40
0.5
 40
0.5
 40
0.5
 40
0.5
 40
1.0
 40
1.0
 40
1.0
 40
1.0
 10
-0.18273
 20
5.5671100000000004
 30
0.0
 10
-0.18273
 20
5.5671100000000004
 30
0.0
 10
0.00268
 20
5.5036100000000001
 30
0.0
 10
0.00268
 20
5.5036100000000001
 30
0.0
 10
0.00268
 20
5.5036100000000001
 30
0.0
 10
-0.02779
 20
5.3766100000000003
 30
0.0
 10
-0.22591
 20
5.4807500000000005
 30
0.0
 10
-0.18273
 20
5.5671100000000004
 30
0.0
  0
SPLINE
  5
30
100
AcDbEntity
  8
Ebene 1
 62
     7
100
AcDbSpline
210
0.0
220
0.0
230
1.0
 70
     1
 71
     3
 72
    12
 73
     8
 74
     0
 42
0.0000000001
 43
0.0000000001
 40
0.0
 40
0.0
 40
0.0
 40
0.0
 40
0.5
 40
0.5
 40
0.5
 40
0.5
 40
1.0
 40
1.0
 40
1.0
 40
1.0
 10
-1.8642100000000001
 20
5.5036100000000001
 30
0.0
 10
-1.7118100000000001
 20
5.4401100000000007
 30
0.0
 10
-1.8007100000000003
 20
5.10229
 30
0.0
 10
-2.0064500000000001
 20
5.1657900000000003
 30
0.0
 10
-2.0064500000000001
 20
5.1657900000000003
 30
0.0
 10
-2.0724900000000002
 20
5.2927900000000001
 30
0.0
 10
-1.9556500000000001
 20
5.3994700000000009
 30
0.0
 10
-1.8642100000000001
 20
5.5036100000000001
 30
0.0
  0
SPLINE
  5
31
100
AcDbEntity
  8
Ebene 1
 62
     7
100
AcDbSpline
210
0.0
220
0.0
230
1.0
 70
     1
 71
     3
 72
    16
 73
    12
 74
     0
 42
0.0000000001
 43
0.0000000001
 40
0.0
 40
0.0
 40
0.0
 40
0.0
 40
0.3333333333333333
 40
0.3333333333333333
 40
0.3333333333333333
 40
0.3333333333333333
 40
0.6666666666666666
 40
0.6666666666666666
 40
0.6666666666666666
 40
0.6666666666666666
 40
1.0
 40
1.0
 40
1.0
 40
1.0
 10
-1.3181100000000001
 20
5.4629700000000003
 30
0.0
 10
-1.3181100000000001
 20
5.4629700000000003
 30
0.0
 10
-1.2368300000000001
 20
5.4629700000000003
 30
0.0
 10
-1.2368300000000001
 20
5.4629700000000003
 30
0.0
 10
-1.2368300000000001
 20
5.4629700000000003
 30
0.0
 10
-1.1885700000000001
 20
5.3359700000000005
 30
0.0
 10
-1.2850900000000001
 20
5.2089700000000008
 30
0.0
 10
-1.41717
 20
5.2521500000000003
 30
0.0
 10
-1.41717
 20
5.2521500000000003
 30
0.0
 10
-1.4374900000000002
 20
5.3359700000000005
 30
0.0
 10
-1.37399
 20
5.4197900000000008
 30
0.0
 10
-1.3181100000000001
 20
5.4629700000000003
 30
0.0
  0
SPLINE
  5
32
100
AcDbEntity
  8
Ebene 1
 62
     7
100
AcDbSpline
210
0.0
220
0.0
230
1.0
 70
     1
 71
     3
 72
    12
 73
     8
 74
     0
 42
0.0000000001
 43
0.0000000001
 40
0.0
 40
0.0
 40
0.0
 40
0.0
 40
0.5
 40
0.5
 40
0.5
 40
0.5
 40
1.0
 40
1.0
 40
1.0
 40
1.0
 10
-1.5695700000000001
 20
5.4197900000000008
 30
0.0
 10
-1.46289
 20
5.3562900000000004
 30
0.0
 10
-1.5390900000000001
 20
5.1657900000000003
 30
0.0
 10
-1.6686300000000001
 20
5.18865
 30
0.0
 10
-1.6686300000000001
 20
5.18865
 30
0.0
 10
-1.7626100000000002
 20
5.2927900000000001
 30
0.0
 10
-1.6381500000000002
 20
5.3766100000000003
 30
0.0
 10
-1.5695700000000001
 20
5.4197900000000008
 30
0.0
  0
SPLINE
  5
33
100
AcDbEntity
  8
Ebene 1
 62
     7
100
AcDbSpline
210
0.0
220
0.0
230
1.0
 70
     1
 71
     3
 72
    16
 73
    12
 74
     0
 42
0.0000000001
 43
0.0000000001
 40
0.0
 40
0.0
 40
0.0
 40
0.0
 40
0.3333333333333333
 40
0.3333333333333333
 40
0.3333333333333333
 40
0.3333333333333333
 40
0.6666666666666666
 40
0.6666666666666666
 40
0.6666666666666666
 40
0.6666666666666666
 40
1.0
 40
1.0
 40
1.0
 40
1.0
 10
-1.08697
 20
5.4197900000000008
 30
0.0
 10
-1.08697
 20
5.4197900000000008
 30
0.0
 10
-0.9015500000000001
 20
5.4197900000000008
 30
0.0
 10
-0.9015500000000001
 20
5.4197900000000008
 30
0.0
 10
-0.9015500000000001
 20
5.4197900000000008
 30
0.0
 10
-0.7135900000000001
 20
5.2927900000000001
 30
0.0
 10
-1.03617
 20
5.2292900000000007
 30
0.0
 10
-1.1428500000000001
 20
5.2724700000000002
 30
0.0
 10
-1.1428500000000001
 20
5.2724700000000002
 30
0.0
 10
-1.1784100000000002
 20
5.3359700000000005
 30
0.0
 10
-1.1098300000000001
 20
5.3766100000000003
 30
0.0
 10
-1.08697
 20
5.4197900000000008
 30
0.0
  0
SPLINE
  5
34
100
AcDbEntity
  8
Ebene 1
 62
     7
100
AcDbSpline
210
0.0
220
0.0
230
1.0
 70
     1
 71
     3
 72
    12
 73
     8
 74
     0
 42
0.0000000001
 43
0.0000000001
 40
0.0
 40
0.0
 40
0.0
 40
0.0
 40
0.5
 40
0.5
 40
0.5
 40
0.5
 40
1.0
 40
1.0
 40
1.0
 40
1.0
 10
0.55132
 20
5.4197900000000008
 30
0.0
 10
0.6224400000000001
 20
5.4197900000000008
 30
0.0
 10
0.74436
 20
5.4197900000000008
 30
0.0
 10
0.7570600000000001
 20
5.3359700000000005
 30
0.0
 10
0.7570600000000001
 20
5.3359700000000005
 30
0.0
 10
0.6935600000000001
 20
5.2927900000000001
 30
0.0
 10
0.51068
 20
5.3359700000000005
 30
0.0
 10
0.55132
 20
5.4197900000000008
 30
0.0
  0
SPLINE
  5
35
100
AcDbEntity
  8
Ebene 1
 62
     7
100
AcDbSpline
210
0.0
220
0.0
230
1.0
 70
     1
 71
     3
 72
    16
 73
    12
 74
     0
 42
0.0000000001
 43
0.0000000001
 40
0.0
 40
0.0
 40
0.0
 40
0.0
 40
0.3333333333333333
 40
0.3333333333333333
 40
0.3333333333333333
 40
0.3333333333333333
 40
0.6666666666666666
 40
0.6666666666666666
 40
0.6666666666666666
 40
0.6666666666666666
 40
1.0
 40
1.0
 40
1.0
 40
1.0
 10
-0.6653300000000001
 20
5.3562900000000004
 30
0.0
 10
-0.5459500000000001
 20
5.3766100000000003
 30
0.0
 10
-0.39355
 20
5.3562900000000004
 30
0.0
 10
-0.5027700000000001
 20
5.2089700000000008
 30
0.0
 10
-0.5027700000000001
 20
5.2089700000000008
 30
0.0
 10
-0.5027700000000001
 20
5.2089700000000008
 30
0.0
 10
-0.74407
 20
5.2089700000000008
 30
0.0
 10
-0.74407
 20
5.2089700000000008
 30
0.0
 10
-0.74407
 20
5.2089700000000008
 30
0.0
 10
-0.74407
 20
5.2089700000000008
 30
0.0
 10
-0.6653300000000001
 20
5.3562900000000004
 30
0.0
 10
-0.6653300000000001
 20
5.3562900000000004
 30
0.0
  0
SPLINE
  5
36
100
AcDbEntity
  8
Ebene 1
 62
     7
100
AcDbSpline
210
0.0
220
0.0
230
1.0
 70
     1
 71
     3
 72
    12
 73
     8
 74
     0
 42
0.0000000001
 43
0.0000000001
 40
0.0
 40
0.0
 40
0.0
 40
0.0
 40
0.5
 40
0.5
 40
0.5
 40
0.5
 40
1.0
 40
1.0
 40
1.0
 40
1.0
 10
0.3405
 20
5.3359700000000005
 30
0.0
 10
0.41416
 20
5.3562900000000004
 30
0.0
 10
0.5437000000000001
 20
5.31311
 30
0.0
 10
0.5056000000000001
 20
5.2089700000000008
 30
0.0
 10
0.5056000000000001
 20
5.2089700000000008
 30
0.0
 10
0.43448
 20
5.18865
 30
0.0
 10
0.28208
 20
5.2521500000000003
 30
0.0
 10
0.3405
 20
5.3359700000000005
 30
0.0
  0
SPLINE
  5
37
100
AcDbEntity
  8
Ebene 1
 62
     7
100
AcDbSpline
210
0.0
220
0.0
230
1.0
 70
     1
 71
     3
 72
    12
 73
     8
 74
     0
 42
0.0000000001
 43
0.0000000001
 40
0.0
 40
0.0
 40
0.0
 40
0.0
 40
0.5
 40
0.5
 40
0.5
 40
0.5
 40
1.0
 40
1.0
 40
1.0
 40
1.0
 10
0.7392800000000001
 20
5.2089700000000008
 30
0.0
 10
0.8408800000000001
 20
5.2521500000000003
 30
0.0
 10
0.89168
 20
5.0845100000000008
 30
0.0
 10
0.8027800000000001
 20
5.0413300000000003
 30
0.0
 10
0.8027800000000001
 20
5.0413300000000003
 30
0.0
 10
0.74436
 20
5.0845100000000008
 30
0.0
 10
0.6478400000000001
 20
5.1657900000000003
 30
0.0
 10
0.7392800000000001
 20
5.2089700000000008
 30
0.0
  0
SPLINE
  5
38
100
AcDbEntity
  8
Ebene 1
 62
     7
100
AcDbSpline
210
0.0
220
0.0
230
1.0
 70
     1
 71
     3
 72
    24
 73
    20
 74
     0
 42
0.0000000001
 43
0.0000000001
 40
0.0
 40
0.0
 40
0.0
 40
0.0
 40
0.2
 40
0.2
 40
0.2
 40
0.2
 40
0.4
 40
0.4
 40
0.4
 40
0.4
 40
0.6000000000000001
 40
0.6000000000000001
 40
0.6000000000000001
 40
0.6000000000000001
 40
0.8
 40
0.8
 40
0.8
 40
0.8
 40
1.0
 40
1.0
 40
1.0
 40
1.0
 10
-2.2858500000000004
 20
5.18865
 30
0.0
 10
-2.18425
 20
5.2089700000000008
 30
0.0
 10
-2.0902700000000003
 20
5.18865
 30
0.0
 10
-2.06995
 20
5.0845100000000008
 30
0.0
 10
-2.06995
 20
5.0845100000000008
 30
0.0
 10
-2.01661
 20
5.0845100000000008
 30
0.0
 10
-1.8997700000000002
 20
5.10229
 30
0.0
 10
-1.9302500000000002
 20
4.9981500000000008
 30
0.0
 10
-1.9302500000000002
 20
4.9981500000000008
 30
0.0
 10
-1.9302500000000002
 20
4.9981500000000008
 30
0.0
 10
-2.0318500000000004
 20
4.9981500000000008
 30
0.0
 10
-2.0318500000000004
 20
4.9981500000000008
 30
0.0
 10
-2.0318500000000004
 20
4.9981500000000008
 30
0.0
 10
-2.23759
 20
5.1657900000000003
 30
0.0
 10
-2.3722100000000004
 20
4.8736900000000007
 30
0.0
 10
-2.39507
 20
4.7060500000000003
 30
0.0
 10
-2.39507
 20
4.7060500000000003
 30
0.0
 10
-2.5931900000000003
 20
4.8736900000000007
 30
0.0
 10
-2.3747500000000001
 20
5.0210100000000004
 30
0.0
 10
-2.2858500000000004
 20
5.18865
 30
0.0
  0
SPLINE
  5
39
100
AcDbEntity
  8
Ebene 1
 62
     7
100
AcDbSpline
210
0.0
220
0.0
230
1.0
 70
     1
 71
     3
 72
    12
 73
     8
 74
     0
 42
0.0000000001
 43
0.0000000001
 40
0.0
 40
0.0
 40
0.0
 40
0.0
 40
0.5
 40
0.5
 40
0.5
 40
0.5
 40
1.0
 40
1.0
 40
1.0
 40
1.0
 10
-1.6330700000000002
 20
5.0845100000000008
 30
0.0
 10
-1.5695700000000001
 20
5.0616500000000002
 30
0.0
 10
-1.4044700000000001
 20
5.1251500000000005
 30
0.0
 10
-1.4273300000000002
 20
5.0210100000000004
 30
0.0
 10
-1.4273300000000002
 20
5.0210100000000004
 30
0.0
 10
-1.50353
 20
5.0413300000000003
 30
0.0
 10
-1.6432300000000002
 20
4.9575100000000001
 30
0.0
 10
-1.6330700000000002
 20
5.0845100000000008
 30
0.0
  0
SPLINE
  5
3A
100
AcDbEntity
  8
Ebene 1
 62
     7
100
AcDbSpline
210
0.0
220
0.0
230
1.0
 70
     1
 71
     3
 72
    12
 73
     8
 74
     0
 42
0.0000000001
 43
0.0000000001
 40
0.0
 40
0.0
 40
0.0
 40
0.0
 40
0.5
 40
0.5
 40
0.5
 40
0.5
 40
1.0
 40
1.0
 40
1.0
 40
1.0
 10
-1.29779
 20
5.0845100000000008
 30
0.0
 10
-1.16317
 20
5.0845100000000008
 30
0.0
 10
-0.9599700000000001
 20
5.0845100000000008
 30
0.0
 10
-0.9218700000000001
 20
4.9346500000000004
 30
0.0
 10
-0.9218700000000001
 20
4.9346500000000004
 30
0.0
 10
-1.0234700000000001
 20
5.0210100000000004
 30
0.0
 10
-1.2393700000000001
 20
4.9575100000000001
 30
0.0
 10
-1.29779
 20
5.0845100000000008
 30
0.0
  0
SPLINE
  5
3B
100
AcDbEntity
  8
Ebene 1
 62
     7
100
AcDbSpline
210
0.0
220
0.0
230
1.0
 70
     1
 71
     3
 72
    16
 73
    12
 74
     0
 42
0.0000000001
 43
0.0000000001
 40
0.0
 40
0.0
 40
0.0
 40
0.0
 40
0.3333333333333333
 40
0.3333333333333333
 40
0.3333333333333333
 40
0.3333333333333333
 40
0.6666666666666666
 40
0.6666666666666666
 40
0.6666666666666666
 40
0.6666666666666666
 40
1.0
 40
1.0
 40
1.0
 40
1.0
 10
-0.16241
 20
5.0413300000000003
 30
0.0
 10
-0.16241
 20
5.0413300000000003
 30
0.0
 10
-0.12431
 20
5.0413300000000003
 30
0.0
 10
-0.12431
 20
5.0413300000000003
 30
0.0
 10
-0.12431
 20
5.0413300000000003
 30
0.0
 10
-0.08621
 20
4.8305100000000003
 30
0.0
 10
-0.45705
 20
4.6831900000000006
 30
0.0
 10
-0.5611900000000001
 20
4.8305100000000003
 30
0.0
 10
-0.5611900000000001
 20
4.8305100000000003
 30
0.0
 10
-0.4367300000000001
 20
4.8736900000000007
 30
0.0
 10
-0.17257
 20
4.8508300000000002
 30
0.0
 10
-0.16241
 20
5.0413300000000003
 30
0.0
  0
SPLINE
  5
3C
100
AcDbEntity
  8
Ebene 1
 62
     7
100
AcDbSpline
210
0.0
220
0.0
230
1.0
 70
     1
 71
     3
 72
    12
 73
     8
 74
     0
 42
0.0000000001
 43
0.0000000001
 40
0.0
 40
0.0
 40
0.0
 40
0.0
 40
0.5
 40
0.5
 40
0.5
 40
0.5
 40
1.0
 40
1.0
 40
1.0
 40
1.0
 10
-0.8329700000000001
 20
4.9346500000000004
 30
0.0
 10
-0.7567700000000001
 20
4.9143300000000005
 30
0.0
 10
-0.6272300000000001
 20
4.8940100000000006
 30
0.0
 10
-0.6272300000000001
 20
4.7873300000000008
 30
0.0
 10
-0.6272300000000001
 20
4.7873300000000008
 30
0.0
 10
-0.69581
 20
4.8101900000000004
 30
0.0
 10
-0.8812300000000001
 20
4.8305100000000003
 30
0.0
 10
-0.8329700000000001
 20
4.9346500000000004
 30
0.0
  0
SPLINE
  5
3D
100
AcDbEntity
  8
Ebene 1
 62
     7
100
AcDbSpline
210
0.0
220
0.0
230
1.0
 70
     1
 71
     3
 72
    68
 73
    64
 74
     0
 42
0.0000000001
 43
0.0000000001
 40
0.0
 40
0.0
 40
0.0
 40
0.0
 40
0.0625
 40
0.0625
 40
0.0625
 40
0.0625
 40
0.125
 40
0.125
 40
0.125
 40
0.125
 40
0.1875
 40
0.1875
 40
0.1875
 40
0.1875
 40
0.25
 40
0.25
 40
0.25
 40
0.25
 40
0.3125
 40
0.3125
 40
0.3125
 40
0.3125
 40
0.375
 40
0.375
 40
0.375
 40
0.375
 40
0.4375
 40
0.4375
 40
0.4375
 40
0.4375
 40
0.5
 40
0.5
 40
0.5
 40
0.5
 40
0.5625
 40
0.5625
 40
0.5625
 40
0.5625
 40
0.625
 40
0.625
 40
0.625
 40
0.625
 40
0.6875
 40
0.6875
 40
0.6875
 40
0.6875
 40
0.75
 40
0.75
 40
0.75
 40
0.75
 40
0.8125
 40
0.8125
 40
0.8125
 40
0.8125
 40
0.875
 40
0.875
 40
0.875
 40
0.875
 40
0.9375
 40
0.9375
 40
0.9375
 40
0.9375
 40
1.0
 40
1.0
 40
1.0
 40
1.0
 10
-2.6643100000000004
 20
4.8508300000000002
 30
0.0
 10
-2.6008100000000001
 20
4.8508300000000002
 30
0.0
 10
-2.60589
 20
4.7873300000000008
 30
0.0
 10
-2.6211300000000004
 20
4.7466900000000001
 30
0.0
 10
-2.6211300000000004
 20
4.7466900000000001
 30
0.0
 10
-2.6389100000000001
 20
4.6831900000000006
 30
0.0
 10
-2.7278100000000003
 20
4.4520500000000007
 30
0.0
 10
-2.5931900000000003
 20
4.5155500000000002
 30
0.0
 10
-2.5931900000000003
 20
4.5155500000000002
 30
0.0
 10
-2.4357100000000003
 20
4.55619
 30
0.0
 10
-2.39507
 20
4.3682300000000005
 30
0.0
 10
-2.57287
 20
4.4520500000000007
 30
0.0
 10
-2.57287
 20
4.4520500000000007
 30
0.0
 10
-2.5169900000000003
 20
4.2844100000000003
 30
0.0
 10
-2.6871700000000001
 20
4.2209099999999999
 30
0.0
 10
-2.8319500000000004
 20
4.1777300000000004
 30
0.0
 10
-2.8319500000000004
 20
4.1777300000000004
 30
0.0
 10
-2.9640300000000002
 20
4.1167700000000007
 30
0.0
 10
-3.4720300000000002
 20
3.4639900000000003
 30
0.0
 10
-3.3348700000000004
 20
3.9491300000000003
 30
0.0
 10
-3.3348700000000004
 20
3.9491300000000003
 30
0.0
 10
-3.3501100000000004
 20
4.0964499999999999
 30
0.0
 10
-3.1240500000000004
 20
4.1370900000000006
 30
0.0
 10
-3.1519900000000001
 20
4.2844100000000003
 30
0.0
 10
-3.1519900000000001
 20
4.2844100000000003
 30
0.0
 10
-3.4390100000000001
 20
4.0735900000000003
 30
0.0
 10
-3.6650700000000005
 20
3.7383100000000002
 30
0.0
 10
-3.7717500000000004
 20
3.4208100000000004
 30
0.0
 10
-3.7717500000000004
 20
3.4208100000000004
 30
0.0
 10
-3.6752300000000004
 20
3.3801700000000001
 30
0.0
 10
-3.6117300000000001
 20
3.6748100000000004
 30
0.0
 10
-3.5939500000000004
 20
3.5274900000000002
 30
0.0
 10
-3.5939500000000004
 20
3.5274900000000002
 30
0.0
 10
-3.8377900000000005
 20
3.0855300000000003
 30
0.0
 10
-4.0714700000000006
 20
2.5826100000000003
 30
0.0
 10
-4.52867
 20
2.2854300000000003
 30
0.0
 10
-4.52867
 20
2.2854300000000003
 30
0.0
 10
-4.4016700000000002
 20
2.6435700000000004
 30
0.0
 10
-4.2924500000000005
 20
3.0423500000000003
 30
0.0
 10
-4.19339
 20
3.4208100000000004
 30
0.0
 10
-4.19339
 20
3.4208100000000004
 30
0.0
 10
-4.0917900000000005
 20
3.6748100000000004
 30
0.0
 10
-3.9724100000000004
 20
3.9491300000000003
 30
0.0
 10
-3.7361900000000001
 20
4.1167700000000007
 30
0.0
 10
-3.7361900000000001
 20
4.1167700000000007
 30
0.0
 10
-3.7717500000000004
 20
3.8221300000000005
 30
0.0
 10
-4.1121100000000004
 20
3.4639900000000003
 30
0.0
 10
-4.0867100000000001
 20
3.1287100000000003
 30
0.0
 10
-4.0867100000000001
 20
3.1287100000000003
 30
0.0
 10
-3.7539700000000003
 20
3.6113100000000005
 30
0.0
 10
-3.6879300000000002
 20
4.4317299999999999
 30
0.0
 10
-3.0046700000000004
 20
4.5790500000000005
 30
0.0
 10
-3.0046700000000004
 20
4.5790500000000005
 30
0.0
 10
-3.0173700000000001
 20
4.5358700000000001
 30
0.0
 10
-3.1037300000000001
 20
4.4520500000000007
 30
0.0
 10
-3.0249900000000003
 20
4.4520500000000007
 30
0.0
 10
-3.0249900000000003
 20
4.4520500000000007
 30
0.0
 10
-3.0249900000000003
 20
4.4520500000000007
 30
0.0
 10
-2.7735300000000001
 20
4.5790500000000005
 30
0.0
 10
-2.7735300000000001
 20
4.5790500000000005
 30
0.0
 10
-2.7735300000000001
 20
4.5790500000000005
 30
0.0
 10
-2.6820900000000001
 20
4.64255
 30
0.0
 10
-2.6795500000000003
 20
4.7466900000000001
 30
0.0
 10
-2.6643100000000004
 20
4.8508300000000002
 30
0.0
  0
SPLINE
  5
3E
100
AcDbEntity
  8
Ebene 1
 62
     7
100
AcDbSpline
210
0.0
220
0.0
230
1.0
 70
     1
 71
     3
 72
    24
 73
    20
 74
     0
 42
0.0000000001
 43
0.0000000001
 40
0.0
 40
0.0
 40
0.0
 40
0.0
 40
0.2
 40
0.2
 40
0.2
 40
0.2
 40
0.4
 40
0.4
 40
0.4
 40
0.4
 40
0.6000000000000001
 40
0.6000000000000001
 40
0.6000000000000001
 40
0.6000000000000001
 40
0.8
 40
0.8
 40
0.8
 40
0.8
 40
1.0
 40
1.0
 40
1.0
 40
1.0
 10
-1.6330700000000002
 20
4.8508300000000002
 30
0.0
 10
-1.5390900000000001
 20
4.7873300000000008
 30
0.0
 10
-1.8032500000000002
 20
4.76701
 30
0.0
 10
-1.8210300000000001
 20
4.6831900000000006
 30
0.0
 10
-1.8210300000000001
 20
4.6831900000000006
 30
0.0
 10
-1.8210300000000001
 20
4.6831900000000006
 30
0.0
 10
-1.6787900000000002
 20
4.6628700000000007
 30
0.0
 10
-1.6787900000000002
 20
4.6628700000000007
 30
0.0
 10
-1.6787900000000002
 20
4.6628700000000007
 30
0.0
 10
-1.7346700000000002
 20
4.4520500000000007
 30
0.0
 10
-1.9150100000000001
 20
4.6831900000000006
 30
0.0
 10
-2.02677
 20
4.64255
 30
0.0
 10
-2.02677
 20
4.64255
 30
0.0
 10
-2.02677
 20
4.64255
 30
0.0
 10
-2.05471
 20
4.6831900000000006
 30
0.0
 10
-2.05471
 20
4.6831900000000006
 30
0.0
 10
-2.05471
 20
4.6831900000000006
 30
0.0
 10
-1.9505700000000001
 20
4.7873300000000008
 30
0.0
 10
-1.7448300000000001
 20
4.7060500000000003
 30
0.0
 10
-1.6330700000000002
 20
4.8508300000000002
 30
0.0
  0
SPLINE
  5
3F
100
AcDbEntity
  8
Ebene 1
 62
     7
100
AcDbSpline
210
0.0
220
0.0
230
1.0
 70
     1
 71
     3
 72
   132
 73
   128
 74
     0
 42
0.0000000001
 43
0.0000000001
 40
0.0
 40
0.0
 40
0.0
 40
0.0
 40
0.03125
 40
0.03125
 40
0.03125
 40
0.03125
 40
0.0625
 40
0.0625
 40
0.0625
 40
0.0625
 40
0.09375
 40
0.09375
 40
0.09375
 40
0.09375
 40
0.125
 40
0.125
 40
0.125
 40
0.125
 40
0.15625
 40
0.15625
 40
0.15625
 40
0.15625
 40
0.1875
 40
0.1875
 40
0.1875
 40
0.1875
 40
0.21875
 40
0.21875
 40
0.21875
 40
0.21875
 40
0.25
 40
0.25
 40
0.25
 40
0.25
 40
0.28125
 40
0.28125
 40
0.28125
 40
0.28125
 40
0.3125
 40
0.3125
 40
0.3125
 40
0.3125
 40
0.34375
 40
0.34375
 40
0.34375
 40
0.34375
 40
0.375
 40
0.375
 40
0.375
 40
0.375
 40
0.40625
 40
0.40625
 40
0.40625
 40
0.40625
 40
0.4375
 40
0.4375
 40
0.4375
 40
0.4375
 40
0.46875
 40
0.46875
 40
0.46875
 40
0.46875
 40
0.5
 40
0.5
 40
0.5
 40
0.5
 40
0.53125
 40
0.53125
 40
0.53125
 40
0.53125
 40
0.5625
 40
0.5625
 40
0.5625
 40
0.5625
 40
0.59375
 40
0.59375
 40
0.59375
 40
0.59375
 40
0.625
 40
0.625
 40
0.625
 40
0.625
 40
0.65625
 40
0.65625
 40
0.65625
 40
0.65625
 40
0.6875
 40
0.6875
 40
0.6875
 40
0.6875
 40
0.71875
 40
0.71875
 40
0.71875
 40
0.71875
 40
0.75
 40
0.75
 40
0.75
 40
0.75
 40
0.78125
 40
0.78125
 40
0.78125
 40
0.78125
 40
0.8125
 40
0.8125
 40
0.8125
 40
0.8125
 40
0.84375
 40
0.84375
 40
0.84375
 40
0.84375
 40
0.875
 40
0.875
 40
0.875
 40
0.875
 40
0.90625
 40
0.90625
 40
0.90625
 40
0.90625
 40
0.9375
 40
0.9375
 40
0.9375
 40
0.9375
 40
0.96875
 40
0.96875
 40
0.96875
 40
0.96875
 40
1.0
 40
1.0
 40
1.0
 40
1.0
 10
0.04332
 20
4.8152700000000008
 30
0.0
 10
0.47512
 20
4.8990900000000002
 30
0.0
 10
0.9424800000000001
 20
4.55619
 30
0.0
 10
1.2828400000000002
 20
4.3885500000000004
 30
0.0
 10
1.2828400000000002
 20
4.3885500000000004
 30
0.0
 10
1.2828400000000002
 20
4.3885500000000004
 30
0.0
 10
0.9450200000000001
 20
4.7060500000000003
 30
0.0
 10
0.9450200000000001
 20
4.7060500000000003
 30
0.0
 10
0.9450200000000001
 20
4.7060500000000003
 30
0.0
 10
0.88914
 20
4.76701
 30
0.0
 10
1.0313800000000002
 20
4.76701
 30
0.0
 10
1.06186
 20
4.7238300000000004
 30
0.0
 10
1.06186
 20
4.7238300000000004
 30
0.0
 10
1.06186
 20
4.7238300000000004
 30
0.0
 10
1.7857600000000002
 20
4.20059
 30
0.0
 10
1.7857600000000002
 20
4.20059
 30
0.0
 10
1.7857600000000002
 20
4.20059
 30
0.0
 10
1.02884
 20
4.2844100000000003
 30
0.0
 10
0.404
 20
3.6544900000000005
 30
0.0
 10
-0.39355
 20
3.7179900000000004
 30
0.0
 10
-0.39355
 20
3.7179900000000004
 30
0.0
 10
-0.47229
 20
3.7179900000000004
 30
0.0
 10
-0.76185
 20
3.7789500000000005
 30
0.0
 10
-0.6043700000000001
 20
3.6748100000000004
 30
0.0
 10
-0.6043700000000001
 20
3.6748100000000004
 30
0.0
 10
-0.41387
 20
3.5478100000000001
 30
0.0
 10
-0.14463
 20
3.6316300000000004
 30
0.0
 10
0.06618
 20
3.6316300000000004
 30
0.0
 10
0.06618
 20
3.6316300000000004
 30
0.0
 10
0.27954
 20
3.6544900000000005
 30
0.0
 10
0.49036
 20
3.6951300000000002
 30
0.0
 10
0.7164200000000001
 20
3.6748100000000004
 30
0.0
 10
0.7164200000000001
 20
3.6748100000000004
 30
0.0
 10
0.19826
 20
3.5478100000000001
 30
0.0
 10
-0.5434100000000001
 20
3.4639900000000003
 30
0.0
 10
-1.03871
 20
3.6951300000000002
 30
0.0
 10
-1.03871
 20
3.6951300000000002
 30
0.0
 10
-1.0920500000000002
 20
3.5706700000000002
 30
0.0
 10
-1.4552700000000001
 20
3.1922100000000002
 30
0.0
 10
-1.1555500000000001
 20
3.2963500000000003
 30
0.0
 10
-1.1555500000000001
 20
3.2963500000000003
 30
0.0
 10
-1.1555500000000001
 20
3.2963500000000003
 30
0.0
 10
-1.17079
 20
3.2125300000000001
 30
0.0
 10
-1.17079
 20
3.2125300000000001
 30
0.0
 10
-1.17079
 20
3.2125300000000001
 30
0.0
 10
-0.9345700000000001
 20
3.0423500000000003
 30
0.0
 10
-0.42149
 20
2.8543900000000004
 30
0.0
 10
-0.23861
 20
2.4352900000000002
 30
0.0
 10
-0.23861
 20
2.4352900000000002
 30
0.0
 10
0.0357
 20
2.6232500000000001
 30
0.0
 10
0.4497200000000001
 20
2.3082900000000004
 30
0.0
 10
0.7342000000000001
 20
2.1406500000000004
 30
0.0
 10
0.7342000000000001
 20
2.1406500000000004
 30
0.0
 10
1.18632
 20
1.9298300000000002
 30
0.0
 10
1.5597000000000001
 20
1.5513700000000001
 30
0.0
 10
2.0397600000000002
 20
1.40405
 30
0.0
 10
2.0397600000000002
 20
1.40405
 30
0.0
 10
1.9127600000000002
 20
1.27959
 30
0.0
 10
1.6816200000000001
 20
1.3405500000000001
 30
0.0
 10
1.5165200000000001
 20
1.2999100000000001
 30
0.0
 10
1.5165200000000001
 20
1.2999100000000001
 30
0.0
 10
0.7596000000000001
 20
1.61487
 30
0.0
 10
0.01792
 20
1.9501500000000001
 30
0.0
 10
-0.82789
 20
1.9501500000000001
 30
0.0
 10
-0.82789
 20
1.9501500000000001
 30
0.0
 10
-1.11999
 20
2.2651100000000004
 30
0.0
 10
-1.3714500000000001
 20
2.6029300000000002
 30
0.0
 10
-1.4019300000000001
 20
2.9813900000000002
 30
0.0
 10
-1.4019300000000001
 20
2.9813900000000002
 30
0.0
 10
-1.5975100000000002
 20
2.6029300000000002
 30
0.0
 10
-2.2477500000000004
 20
2.7273900000000002
 30
0.0
 10
-2.40523
 20
2.2651100000000004
 30
0.0
 10
-2.40523
 20
2.2651100000000004
 30
0.0
 10
-2.44333
 20
2.3489300000000002
 30
0.0
 10
-2.4738100000000003
 20
2.4352900000000002
 30
0.0
 10
-2.4738100000000003
 20
2.5191100000000004
 30
0.0
 10
-2.4738100000000003
 20
2.5191100000000004
 30
0.0
 10
-2.52969
 20
2.7705700000000002
 30
0.0
 10
-2.51953
 20
3.0652100000000004
 30
0.0
 10
-2.4992100000000002
 20
3.3166700000000002
 30
0.0
 10
-2.4992100000000002
 20
3.3166700000000002
 30
0.0
 10
-1.9734300000000002
 20
4.2412300000000007
 30
0.0
 10
-2.3315700000000001
 20
2.9610700000000003
 30
0.0
 10
-2.3468100000000001
 20
2.5826100000000003
 30
0.0
 10
-2.3468100000000001
 20
2.5826100000000003
 30
0.0
 10
-2.2629900000000003
 20
2.6638900000000003
 30
0.0
 10
-2.2172700000000001
 20
2.8340700000000001
 30
0.0
 10
-2.1613900000000004
 20
2.9610700000000003
 30
0.0
 10
-2.1613900000000004
 20
2.9610700000000003
 30
0.0
 10
-2.0801100000000003
 20
3.1490300000000002
 30
0.0
 10
-1.9200900000000001
 20
3.3395300000000003
 30
0.0
 10
-1.7422900000000001
 20
3.4436700000000005
 30
0.0
 10
-1.7422900000000001
 20
3.4436700000000005
 30
0.0
 10
-1.6914900000000002
 20
3.2760300000000004
 30
0.0
 10
-1.6914900000000002
 20
3.0220300000000004
 30
0.0
 10
-1.5289300000000001
 20
2.9178900000000003
 30
0.0
 10
-1.5289300000000001
 20
2.9178900000000003
 30
0.0
 10
-1.62799
 20
3.2963500000000003
 30
0.0
 10
-1.4806700000000002
 20
3.7383100000000002
 30
0.0
 10
-1.1072900000000001
 20
3.9897700000000005
 30
0.0
 10
-1.1072900000000001
 20
3.9897700000000005
 30
0.0
 10
-1.2825500000000001
 20
4.1167700000000007
 30
0.0
 10
-2.0750300000000004
 20
3.3166700000000002
 30
0.0
 10
-2.0572500000000002
 20
4.0304100000000007
 30
0.0
 10
-2.0572500000000002
 20
4.0304100000000007
 30
0.0
 10
-2.3468100000000001
 20
3.9897700000000005
 30
0.0
 10
-2.3925300000000003
 20
4.0964499999999999
 30
0.0
 10
-2.2858500000000004
 20
4.3682300000000005
 30
0.0
 10
-2.2858500000000004
 20
4.3682300000000005
 30
0.0
 10
-2.4687300000000003
 20
4.7238300000000004
 30
0.0
 10
-2.1817100000000003
 20
4.6196900000000003
 30
0.0
 10
-2.1182100000000004
 20
4.34537
 30
0.0
 10
-2.1182100000000004
 20
4.34537
 30
0.0
 10
-2.26553
 20
4.0735900000000003
 30
0.0
 10
-1.8515100000000002
 20
4.0532700000000004
 30
0.0
 10
-1.8210300000000001
 20
3.8627700000000003
 30
0.0
 10
-1.8210300000000001
 20
3.8627700000000003
 30
0.0
 10
-1.6660900000000001
 20
4.0100899999999999
 30
0.0
 10
-1.7880100000000001
 20
4.2640900000000004
 30
0.0
 10
-1.8896100000000002
 20
4.4088700000000003
 30
0.0
 10
-1.8896100000000002
 20
4.4088700000000003
 30
0.0
 10
-1.8057900000000002
 20
4.4952300000000003
 30
0.0
 10
-1.6864100000000002
 20
4.1167700000000007
 30
0.0
 10
-1.5695700000000001
 20
4.0304100000000007
 30
0.0
 10
-1.5695700000000001
 20
4.0304100000000007
 30
0.0
 10
-1.0920500000000002
 20
4.6196900000000003
 30
0.0
 10
-0.53579
 20
4.4571300000000003
 30
0.0
 10
0.04332
 20
4.8152700000000008
 30
0.0
  0
SPLINE
  5
40
100
AcDbEntity
  8
Ebene 1
 62
     7
100
AcDbSpline
210
0.0
220
0.0
230
1.0
 70
     1
 71
     3
 72
    12
 73
     8
 74
     0
 42
0.0000000001
 43
0.0000000001
 40
0.0
 40
0.0
 40
0.0
 40
0.0
 40
0.5
 40
0.5
 40
0.5
 40
0.5
 40
1.0
 40
1.0
 40
1.0
 40
1.0
 10
-1.4019300000000001
 20
4.76701
 30
0.0
 10
-1.29525
 20
4.7873300000000008
 30
0.0
 10
-1.2393700000000001
 20
4.64255
 30
0.0
 10
-1.2165100000000002
 20
4.55619
 30
0.0
 10
-1.2165100000000002
 20
4.55619
 30
0.0
 10
-1.2850900000000001
 20
4.5993700000000004
 30
0.0
 10
-1.4247900000000002
 20
4.6831900000000006
 30
0.0
 10
-1.4019300000000001
 20
4.76701
 30
0.0
  0
SPLINE
  5
41
100
AcDbEntity
  8
Ebene 1
 62
     7
100
AcDbSpline
210
0.0
220
0.0
230
1.0
 70
     1
 71
     3
 72
    12
 73
     8
 74
     0
 42
0.0000000001
 43
0.0000000001
 40
0.0
 40
0.0
 40
0.0
 40
0.0
 40
0.5
 40
0.5
 40
0.5
 40
0.5
 40
1.0
 40
1.0
 40
1.0
 40
1.0
 10
-0.9828300000000001
 20
4.76701
 30
0.0
 10
-0.92949
 20
4.7466900000000001
 30
0.0
 10
-0.8583700000000001
 20
4.7466900000000001
 30
0.0
 10
-0.8380500000000001
 20
4.6831900000000006
 30
0.0
 10
-0.8380500000000001
 20
4.6831900000000006
 30
0.0
 10
-0.8964700000000001
 20
4.6628700000000007
 30
0.0
 10
-1.00315
 20
4.6831900000000006
 30
0.0
 10
-0.9828300000000001
 20
4.76701
 30
0.0
  0
SPLINE
  5
42
100
AcDbEntity
  8
Ebene 1
100
AcDbSpline
210
0.0
220
0.0
230
1.0
 70
     1
 71
     3
 72
    48
 73
    44
 74
     0
 42
0.0000000001
 43
0.0000000001
 40
0.0
 40
0.0
 40
0.0
 40
0.0
 40
0.0909090909090909
 40
0.0909090909090909
 40
0.0909090909090909
 40
0.0909090909090909
 40
0.1818181818181818
 40
0.1818181818181818
 40
0.1818181818181818
 40
0.1818181818181818
 40
0.2727272727272727
 40
0.2727272727272727
 40
0.2727272727272727
 40
0.2727272727272727
 40
0.3636363636363637
 40
0.3636363636363637
 40
0.3636363636363637
 40
0.3636363636363637
 40
0.4545454545454546
 40
0.4545454545454546
 40
0.4545454545454546
 40
0.4545454545454546
 40
0.5454545454545455
 40
0.5454545454545455
 40
0.5454545454545455
 40
0.5454545454545455
 40
0.6363636363636365
 40
0.6363636363636365
 40
0.6363636363636365
 40
0.6363636363636365
 40
0.7272727272727274
 40
0.7272727272727274
 40
0.7272727272727274
 40
0.7272727272727274
 40
0.8181818181818183
 40
0.8181818181818183
 40
0.8181818181818183
 40
0.8181818181818183
 40
0.9090909090909093
 40
0.9090909090909093
 40
0.9090909090909093
 40
0.9090909090909093
 40
1.0
 40
1.0
 40
1.0
 40
1.0
 10
-0.8583700000000001
 20
4.17265
 30
0.0
 10
-1.00315
 20
4.1853500000000006
 30
0.0
 10
-1.2368300000000001
 20
4.0583499999999999
 30
0.0
 10
-1.03871
 20
4.3047300000000002
 30
0.0
 10
-1.03871
 20
4.3047300000000002
 30
0.0
 10
-0.82281
 20
4.4723700000000006
 30
0.0
 10
-0.53579
 20
4.4317299999999999
 30
0.0
 10
-0.29195
 20
4.5155500000000002
 30
0.0
 10
-0.29195
 20
4.5155500000000002
 30
0.0
 10
-0.13193
 20
4.6196900000000003
 30
0.0
 10
0.02554
 20
4.7060500000000003
 30
0.0
 10
0.2135
 20
4.7238300000000004
 30
0.0
 10
0.2135
 20
4.7238300000000004
 30
0.0
 10
0.3557400000000001
 20
4.76701
 30
0.0
 10
0.6249800000000001
 20
4.76701
 30
0.0
 10
0.6529200000000001
 20
4.5790500000000005
 30
0.0
 10
0.6529200000000001
 20
4.5790500000000005
 30
0.0
 10
0.16016
 20
4.7238300000000004
 30
0.0
 10
-0.32751
 20
4.4088700000000003
 30
0.0
 10
-0.72375
 20
4.1370900000000006
 30
0.0
 10
-0.72375
 20
4.1370900000000006
 30
0.0
 10
-0.72375
 20
4.1370900000000006
 30
0.0
 10
-0.34529
 20
4.3275900000000007
 30
0.0
 10
-0.34529
 20
4.3275900000000007
 30
0.0
 10
-0.34529
 20
4.3275900000000007
 30
0.0
 10
-0.34529
 20
4.3275900000000007
 30
0.0
 10
0.12714
 20
4.5155500000000002
 30
0.0
 10
0.12714
 20
4.5155500000000002
 30
0.0
 10
0.12714
 20
4.5155500000000002
 30
0.0
 10
0.3887600000000001
 20
4.6196900000000003
 30
0.0
 10
0.8383400000000001
 20
4.4952300000000003
 30
0.0
 10
0.7977000000000001
 20
4.1370900000000006
 30
0.0
 10
0.7977000000000001
 20
4.1370900000000006
 30
0.0
 10
0.45734
 20
3.7992700000000004
 30
0.0
 10
-0.3122700000000001
 20
3.7789500000000005
 30
0.0
 10
-0.6450100000000001
 20
4.0304100000000007
 30
0.0
 10
-0.6450100000000001
 20
4.0304100000000007
 30
0.0
 10
-0.6450100000000001
 20
4.0304100000000007
 30
0.0
 10
-0.78471
 20
4.0100899999999999
 30
0.0
 10
-0.78471
 20
4.0100899999999999
 30
0.0
 10
-0.78471
 20
4.0100899999999999
 30
0.0
 10
-0.7720100000000001
 20
4.1142300000000001
 30
0.0
 10
-0.72375
 20
4.1599500000000003
 30
0.0
 10
-0.8583700000000001
 20
4.17265
 30
0.0
  0
SPLINE
  5
43
100
AcDbEntity
  8
Ebene 1
 62
     7
100
AcDbSpline
210
0.0
220
0.0
230
1.0
 70
     1
 71
     3
 72
    12
 73
     8
 74
     0
 42
0.0000000001
 43
0.0000000001
 40
0.0
 40
0.0
 40
0.0
 40
0.0
 40
0.5
 40
0.5
 40
0.5
 40
0.5
 40
1.0
 40
1.0
 40
1.0
 40
1.0
 10
-1.6127500000000001
 20
4.5993700000000004
 30
0.0
 10
-1.3841500000000002
 20
4.5993700000000004
 30
0.0
 10
-1.7956300000000001
 20
4.3682300000000005
 30
0.0
 10
-1.6686300000000001
 20
4.55619
 30
0.0
 10
-1.6686300000000001
 20
4.55619
 30
0.0
 10
-1.6686300000000001
 20
4.55619
 30
0.0
 10
-1.6127500000000001
 20
4.5993700000000004
 30
0.0
 10
-1.6127500000000001
 20
4.5993700000000004
 30
0.0
  0
SPLINE
  5
44
100
AcDbEntity
  8
Ebene 1
 62
     7
100
AcDbSpline
210
0.0
220
0.0
230
1.0
 70
     1
 71
     3
 72
    12
 73
     8
 74
     0
 42
0.0000000001
 43
0.0000000001
 40
0.0
 40
0.0
 40
0.0
 40
0.0
 40
0.5
 40
0.5
 40
0.5
 40
0.5
 40
1.0
 40
1.0
 40
1.0
 40
1.0
 10
-1.4857500000000001
 20
4.4723700000000006
 30
0.0
 10
-1.4044700000000001
 20
4.4723700000000006
 30
0.0
 10
-1.54671
 20
4.3682300000000005
 30
0.0
 10
-1.5695700000000001
 20
4.3275900000000007
 30
0.0
 10
-1.5695700000000001
 20
4.3275900000000007
 30
0.0
 10
-1.6838700000000002
 20
4.3885500000000004
 30
0.0
 10
-1.5111500000000002
 20
4.4317299999999999
 30
0.0
 10
-1.4857500000000001
 20
4.4723700000000006
 30
0.0
  0
SPLINE
  5
45
100
AcDbEntity
  8
Ebene 1
 62
     7
100
AcDbSpline
210
0.0
220
0.0
230
1.0
 70
     1
 71
     3
 72
    28
 73
    24
 74
     0
 42
0.0000000001
 43
0.0000000001
 40
0.0
 40
0.0
 40
0.0
 40
0.0
 40
0.1666666666666667
 40
0.1666666666666667
 40
0.1666666666666667
 40
0.1666666666666667
 40
0.3333333333333333
 40
0.3333333333333333
 40
0.3333333333333333
 40
0.3333333333333333
 40
0.5
 40
0.5
 40
0.5
 40
0.5
 40
0.6666666666666666
 40
0.6666666666666666
 40
0.6666666666666666
 40
0.6666666666666666
 40
0.8333333333333333
 40
0.8333333333333333
 40
0.8333333333333333
 40
0.8333333333333333
 40
1.0
 40
1.0
 40
1.0
 40
1.0
 10
0.3405
 20
4.3682300000000005
 30
0.0
 10
0.3405
 20
4.3682300000000005
 30
0.0
 10
0.4827400000000001
 20
4.3682300000000005
 30
0.0
 10
0.4827400000000001
 20
4.3682300000000005
 30
0.0
 10
0.4827400000000001
 20
4.3682300000000005
 30
0.0
 10
0.4827400000000001
 20
4.3682300000000005
 30
0.0
 10
0.55132
 20
4.2844100000000003
 30
0.0
 10
0.55132
 20
4.2844100000000003
 30
0.0
 10
0.55132
 20
4.2844100000000003
 30
0.0
 10
0.59196
 20
4.1167700000000007
 30
0.0
 10
0.4192400000000001
 20
3.9262700000000001
 30
0.0
 10
0.25668
 20
4.0100899999999999
 30
0.0
 10
0.25668
 20
4.0100899999999999
 30
0.0
 10
0.07888
 20
3.9059500000000003
 30
0.0
 10
-0.11923
 20
4.0304100000000007
 30
0.0
 10
-0.3021100000000001
 20
4.0304100000000007
 30
0.0
 10
-0.3021100000000001
 20
4.0304100000000007
 30
0.0
 10
-0.3224300000000001
 20
4.20059
 30
0.0
 10
-0.11161
 20
4.2412300000000007
 30
0.0
 10
0.00268
 20
4.2640900000000004
 30
0.0
 10
0.00268
 20
4.2640900000000004
 30
0.0
 10
0.00268
 20
4.2640900000000004
 30
0.0
 10
0.3405
 20
4.3682300000000005
 30
0.0
 10
0.3405
 20
4.3682300000000005
 30
0.0
  0
SPLINE
  5
46
100
AcDbEntity
  8
Ebene 1
 62
     7
100
AcDbSpline
210
0.0
220
0.0
230
1.0
 70
     1
 71
     3
 72
    56
 73
    52
 74
     0
 42
0.0000000001
 43
0.0000000001
 40
0.0
 40
0.0
 40
0.0
 40
0.0
 40
0.0769230769230769
 40
0.0769230769230769
 40
0.0769230769230769
 40
0.0769230769230769
 40
0.1538461538461539
 40
0.1538461538461539
 40
0.1538461538461539
 40
0.1538461538461539
 40
0.2307692307692308
 40
0.2307692307692308
 40
0.2307692307692308
 40
0.2307692307692308
 40
0.3076923076923077
 40
0.3076923076923077
 40
0.3076923076923077
 40
0.3076923076923077
 40
0.3846153846153846
 40
0.3846153846153846
 40
0.3846153846153846
 40
0.3846153846153846
 40
0.4615384615384616
 40
0.4615384615384616
 40
0.4615384615384616
 40
0.4615384615384616
 40
0.5384615384615386
 40
0.5384615384615386
 40
0.5384615384615386
 40
0.5384615384615386
 40
0.6153846153846154
 40
0.6153846153846154
 40
0.6153846153846154
 40
0.6153846153846154
 40
0.6923076923076923
 40
0.6923076923076923
 40
0.6923076923076923
 40
0.6923076923076923
 40
0.7692307692307692
 40
0.7692307692307692
 40
0.7692307692307692
 40
0.7692307692307692
 40
0.846153846153846
 40
0.846153846153846
 40
0.846153846153846
 40
0.846153846153846
 40
0.9230769230769229
 40
0.9230769230769229
 40
0.9230769230769229
 40
0.9230769230769229
 40
1.0
 40
1.0
 40
1.0
 40
1.0
 10
1.4530200000000002
 20
4.1370900000000006
 30
0.0
 10
1.7375
 20
4.1574100000000005
 30
0.0
 10
1.9534000000000002
 20
3.9262700000000001
 30
0.0
 10
2.1870800000000004
 20
3.8221300000000005
 30
0.0
 10
2.1870800000000004
 20
3.8221300000000005
 30
0.0
 10
2.1870800000000004
 20
3.8221300000000005
 30
0.0
 10
2.0600800000000001
 20
3.9897700000000005
 30
0.0
 10
2.0600800000000001
 20
3.9897700000000005
 30
0.0
 10
2.0600800000000001
 20
3.9897700000000005
 30
0.0
 10
2.0880200000000002
 20
4.0964499999999999
 30
0.0
 10
2.2963
 20
3.8627700000000003
 30
0.0
 10
2.3979000000000004
 20
3.8221300000000005
 30
0.0
 10
2.3979000000000004
 20
3.8221300000000005
 30
0.0
 10
2.3979000000000004
 20
3.8221300000000005
 30
0.0
 10
2.3166200000000003
 20
3.7586300000000001
 30
0.0
 10
2.3166200000000003
 20
3.7586300000000001
 30
0.0
 10
2.3166200000000003
 20
3.7586300000000001
 30
0.0
 10
2.4537800000000001
 20
3.4436700000000005
 30
0.0
 10
1.8060800000000001
 20
3.1490300000000002
 30
0.0
 10
1.8314800000000002
 20
3.5884500000000004
 30
0.0
 10
1.8314800000000002
 20
3.5884500000000004
 30
0.0
 10
1.8314800000000002
 20
3.6316300000000004
 30
0.0
 10
1.7883000000000002
 20
3.6113100000000005
 30
0.0
 10
1.7705200000000001
 20
3.6113100000000005
 30
0.0
 10
1.7705200000000001
 20
3.6113100000000005
 30
0.0
 10
1.65368
 20
3.5071700000000003
 30
0.0
 10
1.5927200000000001
 20
3.3166700000000002
 30
0.0
 10
1.5597000000000001
 20
3.2125300000000001
 30
0.0
 10
1.5597000000000001
 20
3.2125300000000001
 30
0.0
 10
1.5597000000000001
 20
3.2125300000000001
 30
0.0
 10
1.4301600000000001
 20
3.5706700000000002
 30
0.0
 10
1.4301600000000001
 20
3.5706700000000002
 30
0.0
 10
1.4301600000000001
 20
3.5706700000000002
 30
0.0
 10
1.2930000000000001
 20
3.5274900000000002
 30
0.0
 10
1.4250800000000001
 20
3.3598500000000002
 30
0.0
 10
1.4123800000000002
 20
3.2760300000000004
 30
0.0
 10
1.4123800000000002
 20
3.2760300000000004
 30
0.0
 10
1.2549000000000001
 20
3.2760300000000004
 30
0.0
 10
1.2091800000000001
 20
3.7586300000000001
 30
0.0
 10
1.14568
 20
3.3598500000000002
 30
0.0
 10
1.14568
 20
3.3598500000000002
 30
0.0
 10
0.9653400000000001
 20
3.3801700000000001
 30
0.0
 10
0.9069200000000001
 20
3.5884500000000004
 30
0.0
 10
1.0415400000000001
 20
3.7179900000000004
 30
0.0
 10
1.0415400000000001
 20
3.7179900000000004
 30
0.0
 10
1.1812400000000001
 20
3.6544900000000005
 30
0.0
 10
1.3234800000000002
 20
3.6544900000000005
 30
0.0
 10
1.4708000000000001
 20
3.6316300000000004
 30
0.0
 10
1.4708000000000001
 20
3.6316300000000004
 30
0.0
 10
1.3488800000000001
 20
3.7992700000000004
 30
0.0
 10
1.18632
 20
3.9669100000000004
 30
0.0
 10
1.4530200000000002
 20
4.1370900000000006
 30
0.0
  0
SPLINE
  5
47
100
AcDbEntity
  8
Ebene 1
100
AcDbSpline
210
0.0
220
0.0
230
1.0
 70
     1
 71
     3
 72
    12
 73
     8
 74
     0
 42
0.0000000001
 43
0.0000000001
 40
0.0
 40
0.0
 40
0.0
 40
0.0
 40
0.5
 40
0.5
 40
0.5
 40
0.5
 40
1.0
 40
1.0
 40
1.0
 40
1.0
 10
1.4530200000000002
 20
4.0735900000000003
 30
0.0
 10
1.6409800000000001
 20
4.0735900000000003
 30
0.0
 10
1.7984600000000002
 20
3.8856300000000004
 30
0.0
 10
1.8924400000000001
 20
3.7383100000000002
 30
0.0
 10
1.8924400000000001
 20
3.7383100000000002
 30
0.0
 10
1.7146400000000002
 20
3.6748100000000004
 30
0.0
 10
1.18886
 20
3.8424500000000004
 30
0.0
 10
1.4530200000000002
 20
4.0735900000000003
 30
0.0
  0
SPLINE
  5
48
100
AcDbEntity
  8
Ebene 1
 62
     7
100
AcDbSpline
210
0.0
220
0.0
230
1.0
 70
     1
 71
     3
 72
    16
 73
    12
 74
     0
 42
0.0000000001
 43
0.0000000001
 40
0.0
 40
0.0
 40
0.0
 40
0.0
 40
0.3333333333333333
 40
0.3333333333333333
 40
0.3333333333333333
 40
0.3333333333333333
 40
0.6666666666666666
 40
0.6666666666666666
 40
0.6666666666666666
 40
0.6666666666666666
 40
1.0
 40
1.0
 40
1.0
 40
1.0
 10
-2.6643100000000004
 20
3.8856300000000004
 30
0.0
 10
-2.6389100000000001
 20
3.8856300000000004
 30
0.0
 10
-2.6185900000000002
 20
3.8856300000000004
 30
0.0
 10
-2.6033500000000003
 20
3.8627700000000003
 30
0.0
 10
-2.6033500000000003
 20
3.8627700000000003
 30
0.0
 10
-2.6338300000000001
 20
3.7383100000000002
 30
0.0
 10
-2.61097
 20
3.5706700000000002
 30
0.0
 10
-2.7201900000000001
 20
3.4843100000000002
 30
0.0
 10
-2.7201900000000001
 20
3.4843100000000002
 30
0.0
 10
-2.7201900000000001
 20
3.4843100000000002
 30
0.0
 10
-2.6643100000000004
 20
3.8856300000000004
 30
0.0
 10
-2.6643100000000004
 20
3.8856300000000004
 30
0.0
  0
SPLINE
  5
49
100
AcDbEntity
  8
Ebene 1
 62
     7
100
AcDbSpline
210
0.0
220
0.0
230
1.0
 70
     1
 71
     3
 72
    12
 73
     8
 74
     0
 42
0.0000000001
 43
0.0000000001
 40
0.0
 40
0.0
 40
0.0
 40
0.0
 40
0.5
 40
0.5
 40
0.5
 40
0.5
 40
1.0
 40
1.0
 40
1.0
 40
1.0
 10
2.4410800000000004
 20
3.7586300000000001
 30
0.0
 10
2.5706200000000003
 20
3.6748100000000004
 30
0.0
 10
2.6696800000000001
 20
3.5071700000000003
 30
0.0
 10
2.7331800000000004
 20
3.3801700000000001
 30
0.0
 10
2.7331800000000004
 20
3.3801700000000001
 30
0.0
 10
2.6188800000000003
 20
3.4843100000000002
 30
0.0
 10
2.4868000000000001
 20
3.6113100000000005
 30
0.0
 10
2.4410800000000004
 20
3.7586300000000001
 30
0.0
  0
SPLINE
  5
4A
100
AcDbEntity
  8
Ebene 1
 62
     7
100
AcDbSpline
210
0.0
220
0.0
230
1.0
 70
     1
 71
     3
 72
    12
 73
     8
 74
     0
 42
0.0000000001
 43
0.0000000001
 40
0.0
 40
0.0
 40
0.0
 40
0.0
 40
0.5
 40
0.5
 40
0.5
 40
0.5
 40
1.0
 40
1.0
 40
1.0
 40
1.0
 10
0.78246
 20
3.6748100000000004
 30
0.0
 10
0.8180200000000001
 20
3.6748100000000004
 30
0.0
 10
0.8789800000000001
 20
3.6544900000000005
 30
0.0
 10
0.8612000000000001
 20
3.6113100000000005
 30
0.0
 10
0.8612000000000001
 20
3.6113100000000005
 30
0.0
 10
0.8205600000000001
 20
3.5884500000000004
 30
0.0
 10
0.7342000000000001
 20
3.6316300000000004
 30
0.0
 10
0.78246
 20
3.6748100000000004
 30
0.0
  0
SPLINE
  5
4B
100
AcDbEntity
  8
Ebene 1
 62
     7
100
AcDbSpline
210
0.0
220
0.0
230
1.0
 70
     1
 71
     3
 72
    12
 73
     8
 74
     0
 42
0.0000000001
 43
0.0000000001
 40
0.0
 40
0.0
 40
0.0
 40
0.0
 40
0.5
 40
0.5
 40
0.5
 40
0.5
 40
1.0
 40
1.0
 40
1.0
 40
1.0
 10
0.50814
 20
3.5071700000000003
 30
0.0
 10
0.6529200000000001
 20
3.5274900000000002
 30
0.0
 10
0.5462400000000001
 20
3.4004900000000005
 30
0.0
 10
0.5259200000000001
 20
3.3395300000000003
 30
0.0
 10
0.5259200000000001
 20
3.3395300000000003
 30
0.0
 10
0.4294000000000001
 20
3.3395300000000003
 30
0.0
 10
0.4725800000000001
 20
3.4639900000000003
 30
0.0
 10
0.50814
 20
3.5071700000000003
 30
0.0
  0
SPLINE
  5
4C
100
AcDbEntity
  8
Ebene 1
 62
     7
100
AcDbSpline
210
0.0
220
0.0
230
1.0
 70
     1
 71
     3
 72
    12
 73
     8
 74
     0
 42
0.0000000001
 43
0.0000000001
 40
0.0
 40
0.0
 40
0.0
 40
0.0
 40
0.5
 40
0.5
 40
0.5
 40
0.5
 40
1.0
 40
1.0
 40
1.0
 40
1.0
 10
-2.7481300000000002
 20
3.4639900000000003
 30
0.0
 10
-2.7074900000000004
 20
3.4208100000000004
 30
0.0
 10
-2.7506700000000004
 20
3.3166700000000002
 30
0.0
 10
-2.7836900000000004
 20
3.2760300000000004
 30
0.0
 10
-2.7836900000000004
 20
3.2760300000000004
 30
0.0
 10
-2.81671
 20
3.3598500000000002
 30
0.0
 10
-2.7633700000000001
 20
3.4004900000000005
 30
0.0
 10
-2.7481300000000002
 20
3.4639900000000003
 30
0.0
  0
SPLINE
  5
4D
100
AcDbEntity
  8
Ebene 1
 62
     7
100
AcDbSpline
210
0.0
220
0.0
230
1.0
 70
     1
 71
     3
 72
    28
 73
    24
 74
     0
 42
0.0000000001
 43
0.0000000001
 40
0.0
 40
0.0
 40
0.0
 40
0.0
 40
0.1666666666666667
 40
0.1666666666666667
 40
0.1666666666666667
 40
0.1666666666666667
 40
0.3333333333333333
 40
0.3333333333333333
 40
0.3333333333333333
 40
0.3333333333333333
 40
0.5
 40
0.5
 40
0.5
 40
0.5
 40
0.6666666666666666
 40
0.6666666666666666
 40
0.6666666666666666
 40
0.6666666666666666
 40
0.8333333333333333
 40
0.8333333333333333
 40
0.8333333333333333
 40
0.8333333333333333
 40
1.0
 40
1.0
 40
1.0
 40
1.0
 10
-0.7085100000000001
 20
3.4436700000000005
 30
0.0
 10
-0.54849
 20
3.3801700000000001
 30
0.0
 10
-0.59675
 20
3.0652100000000004
 30
0.0
 10
-0.39863
 20
3.0220300000000004
 30
0.0
 10
-0.39863
 20
3.0220300000000004
 30
0.0
 10
-0.33513
 20
3.1490300000000002
 30
0.0
 10
-0.5662700000000001
 20
3.4843100000000002
 30
0.0
 10
-0.30719
 20
3.4436700000000005
 30
0.0
 10
-0.30719
 20
3.4436700000000005
 30
0.0
 10
-0.28687
 20
3.2328500000000004
 30
0.0
 10
-0.43165
 20
2.8340700000000001
 30
0.0
 10
-0.12431
 20
2.7908900000000001
 30
0.0
 10
-0.12431
 20
2.7908900000000001
 30
0.0
 10
-0.12431
 20
2.7908900000000001
 30
0.0
 10
-0.06081
 20
2.6638900000000003
 30
0.0
 10
-0.06081
 20
2.6638900000000003
 30
0.0
 10
-0.06081
 20
2.6638900000000003
 30
0.0
 10
-0.41133
 20
2.7502500000000003
 30
0.0
 10
-0.59421
 20
3.1058500000000002
 30
0.0
 10
-0.8913900000000001
 20
3.2760300000000004
 30
0.0
 10
-0.8913900000000001
 20
3.2760300000000004
 30
0.0
 10
-0.8812300000000001
 20
3.3801700000000001
 30
0.0
 10
-0.7720100000000001
 20
3.4004900000000005
 30
0.0
 10
-0.7085100000000001
 20
3.4436700000000005
 30
0.0
  0
SPLINE
  5
4E
100
AcDbEntity
  8
Ebene 1
 62
     7
100
AcDbSpline
210
0.0
220
0.0
230
1.0
 70
     1
 71
     3
 72
    12
 73
     8
 74
     0
 42
0.0000000001
 43
0.0000000001
 40
0.0
 40
0.0
 40
0.0
 40
0.0
 40
0.5
 40
0.5
 40
0.5
 40
0.5
 40
1.0
 40
1.0
 40
1.0
 40
1.0
 10
-0.11923
 20
3.4436700000000005
 30
0.0
 10
0.023
 20
3.4208100000000004
 30
0.0
 10
-0.18273
 20
3.2531700000000003
 30
0.0
 10
-0.16495
 20
3.1490300000000002
 30
0.0
 10
-0.16495
 20
3.1490300000000002
 30
0.0
 10
-0.23607
 20
3.2125300000000001
 30
0.0
 10
-0.15479
 20
3.3598500000000002
 30
0.0
 10
-0.11923
 20
3.4436700000000005
 30
0.0
  0
SPLINE
  5
4F
100
AcDbEntity
  8
Ebene 1
 62
     7
100
AcDbSpline
210
0.0
220
0.0
230
1.0
 70
     1
 71
     3
 72
    12
 73
     8
 74
     0
 42
0.0000000001
 43
0.0000000001
 40
0.0
 40
0.0
 40
0.0
 40
0.0
 40
0.5
 40
0.5
 40
0.5
 40
0.5
 40
1.0
 40
1.0
 40
1.0
 40
1.0
 10
2.7789000000000001
 20
3.2963500000000003
 30
0.0
 10
2.8144600000000004
 20
3.2760300000000004
 30
0.0
 10
2.8576400000000004
 20
3.2328500000000004
 30
0.0
 10
2.8373200000000001
 20
3.1922100000000002
 30
0.0
 10
2.8373200000000001
 20
3.1922100000000002
 30
0.0
 10
2.7763600000000004
 20
3.1693500000000001
 30
0.0
 10
2.7382600000000004
 20
3.2531700000000003
 30
0.0
 10
2.7789000000000001
 20
3.2963500000000003
 30
0.0
  0
SPLINE
  5
50
100
AcDbEntity
  8
Ebene 1
 62
     7
100
AcDbSpline
210
0.0
220
0.0
230
1.0
 70
     1
 71
     3
 72
    16
 73
    12
 74
     0
 42
0.0000000001
 43
0.0000000001
 40
0.0
 40
0.0
 40
0.0
 40
0.0
 40
0.3333333333333333
 40
0.3333333333333333
 40
0.3333333333333333
 40
0.3333333333333333
 40
0.6666666666666666
 40
0.6666666666666666
 40
0.6666666666666666
 40
0.6666666666666666
 40
1.0
 40
1.0
 40
1.0
 40
1.0
 10
-2.6846300000000003
 20
3.0652100000000004
 30
0.0
 10
-2.56271
 20
2.8137500000000002
 30
0.0
 10
-2.65415
 20
2.4556100000000001
 30
0.0
 10
-2.4966700000000004
 20
2.2041500000000003
 30
0.0
 10
-2.4966700000000004
 20
2.2041500000000003
 30
0.0
 10
-2.4966700000000004
 20
2.2041500000000003
 30
0.0
 10
-2.4992100000000002
 20
2.0339700000000001
 30
0.0
 10
-2.4992100000000002
 20
2.0339700000000001
 30
0.0
 10
-2.4992100000000002
 20
2.0339700000000001
 30
0.0
 10
-2.6744700000000003
 20
2.3489300000000002
 30
0.0
 10
-2.6795500000000003
 20
2.7070700000000003
 30
0.0
 10
-2.6846300000000003
 20
3.0652100000000004
 30
0.0
  0
SPLINE
  5
51
100
AcDbEntity
  8
Ebene 1
100
AcDbSpline
210
0.0
220
0.0
230
1.0
 70
     1
 71
     3
 72
    40
 73
    36
 74
     0
 42
0.0000000001
 43
0.0000000001
 40
0.0
 40
0.0
 40
0.0
 40
0.0
 40
0.1111111111111111
 40
0.1111111111111111
 40
0.1111111111111111
 40
0.1111111111111111
 40
0.2222222222222222
 40
0.2222222222222222
 40
0.2222222222222222
 40
0.2222222222222222
 40
0.3333333333333333
 40
0.3333333333333333
 40
0.3333333333333333
 40
0.3333333333333333
 40
0.4444444444444444
 40
0.4444444444444444
 40
0.4444444444444444
 40
0.4444444444444444
 40
0.5555555555555556
 40
0.5555555555555556
 40
0.5555555555555556
 40
0.5555555555555556
 40
0.6666666666666667
 40
0.6666666666666667
 40
0.6666666666666667
 40
0.6666666666666667
 40
0.7777777777777779
 40
0.7777777777777779
 40
0.7777777777777779
 40
0.7777777777777779
 40
0.8888888888888891
 40
0.8888888888888891
 40
0.8888888888888891
 40
0.8888888888888891
 40
1.0
 40
1.0
 40
1.0
 40
1.0
 10
-1.1072900000000001
 20
2.9813900000000002
 30
0.0
 10
-0.78217
 20
2.8340700000000001
 30
0.0
 10
-0.45705
 20
2.6435700000000004
 30
0.0
 10
-0.25893
 20
2.3286100000000003
 30
0.0
 10
-0.25893
 20
2.3286100000000003
 30
0.0
 10
0.43702
 20
2.4556100000000001
 30
0.0
 10
1.0009000000000001
 20
1.8256900000000003
 30
0.0
 10
1.5978000000000001
 20
1.5081900000000001
 30
0.0
 10
1.5978000000000001
 20
1.5081900000000001
 30
0.0
 10
1.6333600000000001
 20
1.4675500000000001
 30
0.0
 10
1.6613000000000002
 20
1.4243700000000001
 30
0.0
 10
1.6409800000000001
 20
1.3837300000000001
 30
0.0
 10
1.6409800000000001
 20
1.3837300000000001
 30
0.0
 10
1.2574400000000001
 20
1.5081900000000001
 30
0.0
 10
0.93232
 20
1.8028300000000002
 30
0.0
 10
0.5564
 20
1.9501500000000001
 30
0.0
 10
0.5564
 20
1.9501500000000001
 30
0.0
 10
0.5564
 20
1.9501500000000001
 30
0.0
 10
0.7570600000000001
 20
1.78251
 30
0.0
 10
0.7570600000000001
 20
1.78251
 30
0.0
 10
0.7570600000000001
 20
1.78251
 30
0.0
 10
0.82818
 20
1.73933
 30
0.0
 10
0.8866000000000001
 20
1.6351900000000001
 30
0.0
 10
0.7596000000000001
 20
1.6580500000000002
 30
0.0
 10
0.7596000000000001
 20
1.6580500000000002
 30
0.0
 10
0.2135
 20
1.9704700000000002
 30
0.0
 10
-0.5002300000000001
 20
1.8866500000000002
 30
0.0
 10
-0.99553
 20
2.3082900000000004
 30
0.0
 10
-0.99553
 20
2.3082900000000004
 30
0.0
 10
-1.0158500000000001
 20
2.3489300000000002
 30
0.0
 10
-0.99299
 20
2.3921100000000002
 30
0.0
 10
-0.9599700000000001
 20
2.3921100000000002
 30
0.0
 10
-0.9599700000000001
 20
2.3921100000000002
 30
0.0
 10
-0.44435
 20
2.2854300000000003
 30
0.0
 10
-1.1809500000000002
 20
2.7705700000000002
 30
0.0
 10
-1.1072900000000001
 20
2.9813900000000002
 30
0.0
  0
SPLINE
  5
52
100
AcDbEntity
  8
Ebene 1
 62
     7
100
AcDbSpline
210
0.0
220
0.0
230
1.0
 70
     1
 71
     3
 72
    16
 73
    12
 74
     0
 42
0.0000000001
 43
0.0000000001
 40
0.0
 40
0.0
 40
0.0
 40
0.0
 40
0.3333333333333333
 40
0.3333333333333333
 40
0.3333333333333333
 40
0.3333333333333333
 40
0.6666666666666666
 40
0.6666666666666666
 40
0.6666666666666666
 40
0.6666666666666666
 40
1.0
 40
1.0
 40
1.0
 40
1.0
 10
-0.01509
 20
2.8747100000000003
 30
0.0
 10
-0.01509
 20
2.8747100000000003
 30
0.0
 10
0.06364
 20
2.8747100000000003
 30
0.0
 10
0.06364
 20
2.8747100000000003
 30
0.0
 10
0.06364
 20
2.8747100000000003
 30
0.0
 10
0.03824
 20
2.6867500000000004
 30
0.0
 10
0.27446
 20
2.7070700000000003
 30
0.0
 10
0.3151000000000001
 20
2.5597500000000002
 30
0.0
 10
0.3151000000000001
 20
2.5597500000000002
 30
0.0
 10
0.1881
 20
2.6232500000000001
 30
0.0
 10
-0.09129
 20
2.6638900000000003
 30
0.0
 10
-0.01509
 20
2.8747100000000003
 30
0.0
  0
SPLINE
  5
53
100
AcDbEntity
  8
Ebene 1
 62
     7
100
AcDbSpline
210
0.0
220
0.0
230
1.0
 70
     1
 71
     3
 72
    12
 73
     8
 74
     0
 42
0.0000000001
 43
0.0000000001
 40
0.0
 40
0.0
 40
0.0
 40
0.0
 40
0.5
 40
0.5
 40
0.5
 40
0.5
 40
1.0
 40
1.0
 40
1.0
 40
1.0
 10
0.404
 20
2.7705700000000002
 30
0.0
 10
0.4802
 20
2.7705700000000002
 30
0.0
 10
0.44464
 20
2.6435700000000004
 30
0.0
 10
0.404
 20
2.6232500000000001
 30
0.0
 10
0.404
 20
2.6232500000000001
 30
0.0
 10
0.3252600000000001
 20
2.6435700000000004
 30
0.0
 10
0.38114
 20
2.7273900000000002
 30
0.0
 10
0.404
 20
2.7705700000000002
 30
0.0
  0
SPLINE
  5
54
100
AcDbEntity
  8
Ebene 1
 62
     7
100
AcDbSpline
210
0.0
220
0.0
230
1.0
 70
     1
 71
     3
 72
    24
 73
    20
 74
     0
 42
0.0000000001
 43
0.0000000001
 40
0.0
 40
0.0
 40
0.0
 40
0.0
 40
0.2
 40
0.2
 40
0.2
 40
0.2
 40
0.4
 40
0.4
 40
0.4
 40
0.4
 40
0.6000000000000001
 40
0.6000000000000001
 40
0.6000000000000001
 40
0.6000000000000001
 40
0.8
 40
0.8
 40
0.8
 40
0.8
 40
1.0
 40
1.0
 40
1.0
 40
1.0
 10
0.5945
 20
2.3819500000000002
 30
0.0
 10
0.51068
 20
2.4048100000000003
 30
0.0
 10
0.4395600000000001
 20
2.4352900000000002
 30
0.0
 10
0.3887600000000001
 20
2.5191100000000004
 30
0.0
 10
0.3887600000000001
 20
2.5191100000000004
 30
0.0
 10
0.42432
 20
2.5394300000000003
 30
0.0
 10
0.4827400000000001
 20
2.5394300000000003
 30
0.0
 10
0.5259200000000001
 20
2.5597500000000002
 30
0.0
 10
0.5259200000000001
 20
2.5597500000000002
 30
0.0
 10
0.5437000000000001
 20
2.5191100000000004
 30
0.0
 10
0.5487800000000001
 20
2.4048100000000003
 30
0.0
 10
0.6122800000000001
 20
2.46577
 30
0.0
 10
0.6122800000000001
 20
2.46577
 30
0.0
 10
0.61736
 20
2.50895
 30
0.0
 10
0.61736
 20
2.5597500000000002
 30
0.0
 10
0.6732400000000001
 20
2.5826100000000003
 30
0.0
 10
0.6732400000000001
 20
2.5826100000000003
 30
0.0
 10
0.6884800000000001
 20
2.4962500000000003
 30
0.0
 10
0.6326000000000001
 20
2.4454500000000001
 30
0.0
 10
0.5945
 20
2.3819500000000002
 30
0.0
  0
SPLINE
  5
55
100
AcDbEntity
  8
Ebene 1
 62
     7
100
AcDbSpline
210
0.0
220
0.0
230
1.0
 70
     1
 71
     3
 72
    68
 73
    64
 74
     0
 42
0.0000000001
 43
0.0000000001
 40
0.0
 40
0.0
 40
0.0
 40
0.0
 40
0.0625
 40
0.0625
 40
0.0625
 40
0.0625
 40
0.125
 40
0.125
 40
0.125
 40
0.125
 40
0.1875
 40
0.1875
 40
0.1875
 40
0.1875
 40
0.25
 40
0.25
 40
0.25
 40
0.25
 40
0.3125
 40
0.3125
 40
0.3125
 40
0.3125
 40
0.375
 40
0.375
 40
0.375
 40
0.375
 40
0.4375
 40
0.4375
 40
0.4375
 40
0.4375
 40
0.5
 40
0.5
 40
0.5
 40
0.5
 40
0.5625
 40
0.5625
 40
0.5625
 40
0.5625
 40
0.625
 40
0.625
 40
0.625
 40
0.625
 40
0.6875
 40
0.6875
 40
0.6875
 40
0.6875
 40
0.75
 40
0.75
 40
0.75
 40
0.75
 40
0.8125
 40
0.8125
 40
0.8125
 40
0.8125
 40
0.875
 40
0.875
 40
0.875
 40
0.875
 40
0.9375
 40
0.9375
 40
0.9375
 40
0.9375
 40
1.0
 40
1.0
 40
1.0
 40
1.0
 10
-1.4857500000000001
 20
2.4352900000000002
 30
0.0
 10
-1.0971300000000002
 20
2.2447900000000001
 30
0.0
 10
-0.9193300000000001
 20
1.5513700000000001
 30
0.0
 10
-0.35037
 20
1.73933
 30
0.0
 10
-0.35037
 20
1.73933
 30
0.0
 10
-0.27417
 20
1.6783700000000001
 30
0.0
 10
-0.12939
 20
1.78251
 30
0.0
 10
-0.07605
 20
1.6783700000000001
 30
0.0
 10
-0.07605
 20
1.6783700000000001
 30
0.0
 10
-0.07605
 20
1.6783700000000001
 30
0.0
 10
-0.5815100000000001
 20
1.57169
 30
0.0
 10
-0.5815100000000001
 20
1.57169
 30
0.0
 10
-0.5815100000000001
 20
1.57169
 30
0.0
 10
-0.5815100000000001
 20
1.57169
 30
0.0
 10
-0.9396500000000001
 20
1.52851
 30
0.0
 10
-0.9396500000000001
 20
1.52851
 30
0.0
 10
-0.9396500000000001
 20
1.52851
 30
0.0
 10
-1.1733300000000002
 20
1.6351900000000001
 30
0.0
 10
-1.2749300000000001
 20
1.4243700000000001
 30
0.0
 10
-0.99553
 20
1.3837300000000001
 30
0.0
 10
-0.99553
 20
1.3837300000000001
 30
0.0
 10
-0.99553
 20
1.3837300000000001
 30
0.0
 10
-0.33513
 20
1.44723
 30
0.0
 10
-0.33513
 20
1.44723
 30
0.0
 10
-0.33513
 20
1.44723
 30
0.0
 10
-0.40879
 20
1.1729100000000001
 30
0.0
 10
-0.6272300000000001
 20
0.9214500000000001
 30
0.0
 10
-0.7720100000000001
 20
0.6674500000000001
 30
0.0
 10
-0.7720100000000001
 20
0.6674500000000001
 30
0.0
 10
-1.0590300000000001
 20
0.9417700000000001
 30
0.0
 10
-1.4120900000000001
 20
1.27959
 30
0.0
 10
-1.3435100000000002
 20
1.7190100000000001
 30
0.0
 10
-1.3435100000000002
 20
1.7190100000000001
 30
0.0
 10
-1.4705100000000002
 20
1.5920100000000001
 30
0.0
 10
-1.5619500000000002
 20
1.4243700000000001
 30
0.0
 10
-1.8159500000000002
 20
1.57169
 30
0.0
 10
-1.8159500000000002
 20
1.57169
 30
0.0
 10
-1.6864100000000002
 20
1.78251
 30
0.0
 10
-1.7854700000000001
 20
1.9069700000000001
 30
0.0
 10
-1.8591300000000002
 20
2.1177900000000003
 30
0.0
 10
-1.8591300000000002
 20
2.1177900000000003
 30
0.0
 10
-1.9835900000000002
 20
2.2041500000000003
 30
0.0
 10
-1.9835900000000002
 20
1.9704700000000002
 30
0.0
 10
-2.0369300000000004
 20
1.8866500000000002
 30
0.0
 10
-2.0369300000000004
 20
1.8866500000000002
 30
0.0
 10
-2.02677
 20
1.69869
 30
0.0
 10
-2.2147300000000003
 20
1.6783700000000001
 30
0.0
 10
-2.2782300000000002
 20
1.8460100000000002
 30
0.0
 10
-2.2782300000000002
 20
1.8460100000000002
 30
0.0
 10
-2.2401300000000002
 20
2.0568300000000002
 30
0.0
 10
-2.1436100000000002
 20
2.3082900000000004
 30
0.0
 10
-1.9277100000000003
 20
2.4124300000000001
 30
0.0
 10
-1.9277100000000003
 20
2.4124300000000001
 30
0.0
 10
-1.8388100000000001
 20
2.2651100000000004
 30
0.0
 10
-1.8159500000000002
 20
2.0339700000000001
 30
0.0
 10
-1.6330700000000002
 20
1.9298300000000002
 30
0.0
 10
-1.6330700000000002
 20
1.9298300000000002
 30
0.0
 10
-1.6330700000000002
 20
1.9298300000000002
 30
0.0
 10
-1.4578100000000001
 20
1.8460100000000002
 30
0.0
 10
-1.4578100000000001
 20
1.8460100000000002
 30
0.0
 10
-1.4578100000000001
 20
1.8460100000000002
 30
0.0
 10
-1.0641100000000001
 20
1.73933
 30
0.0
 10
-1.9962900000000001
 20
2.2854300000000003
 30
0.0
 10
-1.4857500000000001
 20
2.4352900000000002
 30
0.0
  0
SPLINE
  5
56
100
AcDbEntity
  8
Ebene 1
 62
     7
100
AcDbSpline
210
0.0
220
0.0
230
1.0
 70
     1
 71
     3
 72
    12
 73
     8
 74
     0
 42
0.0000000001
 43
0.0000000001
 40
0.0
 40
0.0
 40
0.0
 40
0.0
 40
0.5
 40
0.5
 40
0.5
 40
0.5
 40
1.0
 40
1.0
 40
1.0
 40
1.0
 10
1.0974200000000001
 20
2.3921100000000002
 30
0.0
 10
1.1710800000000001
 20
2.3489300000000002
 30
0.0
 10
1.19648
 20
2.2041500000000003
 30
0.0
 10
1.1177400000000002
 20
2.1609700000000003
 30
0.0
 10
1.1177400000000002
 20
2.1609700000000003
 30
0.0
 10
1.0567800000000001
 20
2.2041500000000003
 30
0.0
 10
1.0644
 20
2.3286100000000003
 30
0.0
 10
1.0974200000000001
 20
2.3921100000000002
 30
0.0
  0
SPLINE
  5
57
100
AcDbEntity
  8
Ebene 1
 62
     7
100
AcDbSpline
210
0.0
220
0.0
230
1.0
 70
     1
 71
     3
 72
    12
 73
     8
 74
     0
 42
0.0000000001
 43
0.0000000001
 40
0.0
 40
0.0
 40
0.0
 40
0.0
 40
0.5
 40
0.5
 40
0.5
 40
0.5
 40
1.0
 40
1.0
 40
1.0
 40
1.0
 10
0.63514
 20
2.3717900000000003
 30
0.0
 10
0.7723000000000001
 20
2.3717900000000003
 30
0.0
 10
0.9475600000000001
 20
2.2447900000000001
 30
0.0
 10
0.9882000000000001
 20
2.1177900000000003
 30
0.0
 10
0.9882000000000001
 20
2.1177900000000003
 30
0.0
 10
0.86882
 20
2.1812900000000002
 30
0.0
 10
0.6935600000000001
 20
2.2244700000000002
 30
0.0
 10
0.63514
 20
2.3717900000000003
 30
0.0
  0
SPLINE
  5
58
100
AcDbEntity
  8
Ebene 1
 62
     7
100
AcDbSpline
210
0.0
220
0.0
230
1.0
 70
     1
 71
     3
 72
    12
 73
     8
 74
     0
 42
0.0000000001
 43
0.0000000001
 40
0.0
 40
0.0
 40
0.0
 40
0.0
 40
0.5
 40
0.5
 40
0.5
 40
0.5
 40
1.0
 40
1.0
 40
1.0
 40
1.0
 10
1.1609200000000002
 20
2.0771500000000001
 30
0.0
 10
1.2091800000000001
 20
2.0771500000000001
 30
0.0
 10
1.23204
 20
2.0136500000000002
 30
0.0
 10
1.2193400000000001
 20
1.9704700000000002
 30
0.0
 10
1.2193400000000001
 20
1.9704700000000002
 30
0.0
 10
1.15076
 20
1.9501500000000001
 30
0.0
 10
1.11266
 20
2.0339700000000001
 30
0.0
 10
1.1609200000000002
 20
2.0771500000000001
 30
0.0
  0
SPLINE
  5
59
100
AcDbEntity
  8
Ebene 1
 62
     7
100
AcDbSpline
210
0.0
220
0.0
230
1.0
 70
     1
 71
     3
 72
    12
 73
     8
 74
     0
 42
0.0000000001
 43
0.0000000001
 40
0.0
 40
0.0
 40
0.0
 40
0.0
 40
0.5
 40
0.5
 40
0.5
 40
0.5
 40
1.0
 40
1.0
 40
1.0
 40
1.0
 10
1.4123800000000002
 20
1.9933300000000003
 30
0.0
 10
1.4784200000000001
 20
2.0136500000000002
 30
0.0
 10
1.5012800000000002
 20
1.9069700000000001
 30
0.0
 10
1.4504800000000002
 20
1.86633
 30
0.0
 10
1.4504800000000002
 20
1.86633
 30
0.0
 10
1.3869800000000001
 20
1.8866500000000002
 30
0.0
 10
1.3920600000000001
 20
1.9501500000000001
 30
0.0
 10
1.4123800000000002
 20
1.9933300000000003
 30
0.0
  0
SPLINE
  5
5A
100
AcDbEntity
  8
Ebene 1
 62
     7
100
AcDbSpline
210
0.0
220
0.0
230
1.0
 70
     1
 71
     3
 72
    12
 73
     8
 74
     0
 42
0.0000000001
 43
0.0000000001
 40
0.0
 40
0.0
 40
0.0
 40
0.0
 40
0.5
 40
0.5
 40
0.5
 40
0.5
 40
1.0
 40
1.0
 40
1.0
 40
1.0
 10
-2.3061700000000003
 20
1.57169
 30
0.0
 10
-2.0420100000000003
 20
1.5920100000000001
 30
0.0
 10
-2.05979
 20
1.2567300000000001
 30
0.0
 10
-2.1207500000000001
 20
1.0890900000000001
 30
0.0
 10
-2.1207500000000001
 20
1.0890900000000001
 30
0.0
 10
-2.36205
 20
1.1297300000000001
 30
0.0
 10
-2.3061700000000003
 20
1.3837300000000001
 30
0.0
 10
-2.3061700000000003
 20
1.57169
 30
0.0
  0
SPLINE
  5
5B
100
AcDbEntity
  8
Ebene 1
 62
     7
100
AcDbSpline
210
0.0
220
0.0
230
1.0
 70
     1
 71
     3
 72
    12
 73
     8
 74
     0
 42
0.0000000001
 43
0.0000000001
 40
0.0
 40
0.0
 40
0.0
 40
0.0
 40
0.5
 40
0.5
 40
0.5
 40
0.5
 40
1.0
 40
1.0
 40
1.0
 40
1.0
 10
2.3598000000000003
 20
1.4243700000000001
 30
0.0
 10
2.5198200000000002
 20
1.27959
 30
0.0
 10
2.7103200000000003
 20
1.06877
 30
0.0
 10
2.6696800000000001
 20
0.8147700000000001
 30
0.0
 10
2.6696800000000001
 20
0.8147700000000001
 30
0.0
 10
2.5985600000000004
 20
1.02559
 30
0.0
 10
2.4842600000000004
 20
1.23641
 30
0.0
 10
2.3598000000000003
 20
1.4243700000000001
 30
0.0
  0
SPLINE
  5
5C
100
AcDbEntity
  8
Ebene 1
 62
     7
100
AcDbSpline
210
0.0
220
0.0
230
1.0
 70
     1
 71
     3
 72
    20
 73
    16
 74
     0
 42
0.0000000001
 43
0.0000000001
 40
0.0
 40
0.0
 40
0.0
 40
0.0
 40
0.25
 40
0.25
 40
0.25
 40
0.25
 40
0.5
 40
0.5
 40
0.5
 40
0.5
 40
0.75
 40
0.75
 40
0.75
 40
0.75
 40
1.0
 40
1.0
 40
1.0
 40
1.0
 10
-1.8642100000000001
 20
1.40405
 30
0.0
 10
-1.7524500000000001
 20
1.3837300000000001
 30
0.0
 10
-1.6381500000000002
 20
1.36087
 30
0.0
 10
-1.5340100000000001
 20
1.3837300000000001
 30
0.0
 10
-1.5340100000000001
 20
1.3837300000000001
 30
0.0
 10
-1.4324100000000002
 20
1.23641
 30
0.0
 10
-1.3206500000000001
 20
1.0890900000000001
 30
0.0
 10
-1.2596900000000002
 20
0.9214500000000001
 30
0.0
 10
-1.2596900000000002
 20
0.9214500000000001
 30
0.0
 10
-1.4705100000000002
 20
0.9214500000000001
 30
0.0
 10
-1.6813300000000002
 20
0.9417700000000001
 30
0.0
 10
-1.8794500000000001
 20
1.0052700000000001
 30
0.0
 10
-1.8794500000000001
 20
1.0052700000000001
 30
0.0
 10
-1.9937500000000001
 20
1.1297300000000001
 30
0.0
 10
-1.8845300000000003
 20
1.27959
 30
0.0
 10
-1.8642100000000001
 20
1.40405
 30
0.0
  0
SPLINE
  5
5D
100
AcDbEntity
  8
Ebene 1
 62
     7
100
AcDbSpline
210
0.0
220
0.0
230
1.0
 70
     1
 71
     3
 72
   244
 73
   240
 74
     0
 42
0.0000000001
 43
0.0000000001
 40
0.0
 40
0.0
 40
0.0
 40
0.0
 40
0.0166666666666667
 40
0.0166666666666667
 40
0.0166666666666667
 40
0.0166666666666667
 40
0.0333333333333333
 40
0.0333333333333333
 40
0.0333333333333333
 40
0.0333333333333333
 40
0.05
 40
0.05
 40
0.05
 40
0.05
 40
0.0666666666666667
 40
0.0666666666666667
 40
0.0666666666666667
 40
0.0666666666666667
 40
0.0833333333333333
 40
0.0833333333333333
 40
0.0833333333333333
 40
0.0833333333333333
 40
0.1
 40
0.1
 40
0.1
 40
0.1
 40
0.1166666666666667
 40
0.1166666666666667
 40
0.1166666666666667
 40
0.1166666666666667
 40
0.1333333333333333
 40
0.1333333333333333
 40
0.1333333333333333
 40
0.1333333333333333
 40
0.15
 40
0.15
 40
0.15
 40
0.15
 40
0.1666666666666667
 40
0.1666666666666667
 40
0.1666666666666667
 40
0.1666666666666667
 40
0.1833333333333333
 40
0.1833333333333333
 40
0.1833333333333333
 40
0.1833333333333333
 40
0.2
 40
0.2
 40
0.2
 40
0.2
 40
0.2166666666666667
 40
0.2166666666666667
 40
0.2166666666666667
 40
0.2166666666666667
 40
0.2333333333333333
 40
0.2333333333333333
 40
0.2333333333333333
 40
0.2333333333333333
 40
0.25
 40
0.25
 40
0.25
 40
0.25
 40
0.2666666666666667
 40
0.2666666666666667
 40
0.2666666666666667
 40
0.2666666666666667
 40
0.2833333333333333
 40
0.2833333333333333
 40
0.2833333333333333
 40
0.2833333333333333
 40
0.3
 40
0.3
 40
0.3
 40
0.3
 40
0.3166666666666667
 40
0.3166666666666667
 40
0.3166666666666667
 40
0.3166666666666667
 40
0.3333333333333333
 40
0.3333333333333333
 40
0.3333333333333333
 40
0.3333333333333333
 40
0.35
 40
0.35
 40
0.35
 40
0.35
 40
0.3666666666666666
 40
0.3666666666666666
 40
0.3666666666666666
 40
0.3666666666666666
 40
0.3833333333333333
 40
0.3833333333333333
 40
0.3833333333333333
 40
0.3833333333333333
 40
0.4
 40
0.4
 40
0.4
 40
0.4
 40
0.4166666666666666
 40
0.4166666666666666
 40
0.4166666666666666
 40
0.4166666666666666
 40
0.4333333333333333
 40
0.4333333333333333
 40
0.4333333333333333
 40
0.4333333333333333
 40
0.45
 40
0.45
 40
0.45
 40
0.45
 40
0.4666666666666666
 40
0.4666666666666666
 40
0.4666666666666666
 40
0.4666666666666666
 40
0.4833333333333333
 40
0.4833333333333333
 40
0.4833333333333333
 40
0.4833333333333333
 40
0.4999999999999999
 40
0.4999999999999999
 40
0.4999999999999999
 40
0.4999999999999999
 40
0.5166666666666666
 40
0.5166666666666666
 40
0.5166666666666666
 40
0.5166666666666666
 40
0.5333333333333333
 40
0.5333333333333333
 40
0.5333333333333333
 40
0.5333333333333333
 40
0.55
 40
0.55
 40
0.55
 40
0.55
 40
0.5666666666666668
 40
0.5666666666666668
 40
0.5666666666666668
 40
0.5666666666666668
 40
0.5833333333333335
 40
0.5833333333333335
 40
0.5833333333333335
 40
0.5833333333333335
 40
0.6000000000000002
 40
0.6000000000000002
 40
0.6000000000000002
 40
0.6000000000000002
 40
0.6166666666666669
 40
0.6166666666666669
 40
0.6166666666666669
 40
0.6166666666666669
 40
0.6333333333333336
 40
0.6333333333333336
 40
0.6333333333333336
 40
0.6333333333333336
 40
0.6500000000000004
 40
0.6500000000000004
 40
0.6500000000000004
 40
0.6500000000000004
 40
0.6666666666666671
 40
0.6666666666666671
 40
0.6666666666666671
 40
0.6666666666666671
 40
0.6833333333333338
 40
0.6833333333333338
 40
0.6833333333333338
 40
0.6833333333333338
 40
0.7000000000000005
 40
0.7000000000000005
 40
0.7000000000000005
 40
0.7000000000000005
 40
0.7166666666666672
 40
0.7166666666666672
 40
0.7166666666666672
 40
0.7166666666666672
 40
0.733333333333334
 40
0.733333333333334
 40
0.733333333333334
 40
0.733333333333334
 40
0.7500000000000007
 40
0.7500000000000007
 40
0.7500000000000007
 40
0.7500000000000007
 40
0.7666666666666674
 40
0.7666666666666674
 40
0.7666666666666674
 40
0.7666666666666674
 40
0.7833333333333341
 40
0.7833333333333341
 40
0.7833333333333341
 40
0.7833333333333341
 40
0.8000000000000008
 40
0.8000000000000008
 40
0.8000000000000008
 40
0.8000000000000008
 40
0.8166666666666675
 40
0.8166666666666675
 40
0.8166666666666675
 40
0.8166666666666675
 40
0.8333333333333343
 40
0.8333333333333343
 40
0.8333333333333343
 40
0.8333333333333343
 40
0.850000000000001
 40
0.850000000000001
 40
0.850000000000001
 40
0.850000000000001
 40
0.8666666666666677
 40
0.8666666666666677
 40
0.8666666666666677
 40
0.8666666666666677
 40
0.8833333333333344
 40
0.8833333333333344
 40
0.8833333333333344
 40
0.8833333333333344
 40
0.9000000000000011
 40
0.9000000000000011
 40
0.9000000000000011
 40
0.9000000000000011
 40
0.9166666666666679
 40
0.9166666666666679
 40
0.9166666666666679
 40
0.9166666666666679
 40
0.9333333333333346
 40
0.9333333333333346
 40
0.9333333333333346
 40
0.9333333333333346
 40
0.9500000000000013
 40
0.9500000000000013
 40
0.9500000000000013
 40
0.9500000000000013
 40
0.966666666666668
 40
0.966666666666668
 40
0.966666666666668
 40
0.966666666666668
 40
0.9833333333333347
 40
0.9833333333333347
 40
0.9833333333333347
 40
0.9833333333333347
 40
1.0
 40
1.0
 40
1.0
 40
1.0
 10
1.8543400000000001
 20
-2.4618200000000003
 30
0.0
 10
2.8195400000000004
 20
-2.39832
 30
0.0
 10
1.5317600000000002
 20
-3.5768800000000005
 30
0.0
 10
0.95518
 20
-3.9324800000000004
 30
0.0
 10
0.95518
 20
-3.9324800000000004
 30
0.0
 10
1.0009000000000001
 20
-3.9959800000000003
 30
0.0
 10
1.06948
 20
-3.9324800000000004
 30
0.0
 10
1.1177400000000002
 20
-3.9121600000000005
 30
0.0
 10
1.1177400000000002
 20
-3.9121600000000005
 30
0.0
 10
1.1177400000000002
 20
-3.9121600000000005
 30
0.0
 10
2.0194400000000003
 20
-3.3660600000000005
 30
0.0
 10
2.0194400000000003
 20
-3.3660600000000005
 30
0.0
 10
2.0194400000000003
 20
-3.3660600000000005
 30
0.0
 10
1.1609200000000002
 20
-4.5217600000000004
 30
0.0
 10
1.3107800000000001
 20
-4.1026600000000002
 30
0.0
 10
-0.07097
 20
-4.1026600000000002
 30
0.0
 10
-0.07097
 20
-4.1026600000000002
 30
0.0
 10
-0.26401
 20
-3.6607000000000003
 30
0.0
 10
-0.42149
 20
-3.2390600000000003
 30
0.0
 10
-0.45451
 20
-2.7564600000000001
 30
0.0
 10
-0.45451
 20
-2.7564600000000001
 30
0.0
 10
-0.19797
 20
-2.4821400000000002
 30
0.0
 10
-0.15479
 20
-3.4905200000000001
 30
0.0
 10
0.04586
 20
-3.7242000000000002
 30
0.0
 10
0.04586
 20
-3.7242000000000002
 30
0.0
 10
0.06364
 20
-3.6149800000000001
 30
0.0
 10
-0.06589
 20
-3.2339800000000003
 30
0.0
 10
-0.10145
 20
-2.9901400000000002
 30
0.0
 10
-0.10145
 20
-2.9901400000000002
 30
0.0
 10
-0.13701
 20
-2.7615400000000001
 30
0.0
 10
-0.07859
 20
-2.65232
 30
0.0
 10
0.0103
 20
-3.03078
 30
0.0
 10
0.0103
 20
-3.03078
 30
0.0
 10
0.0865
 20
-3.11206
 30
0.0
 10
0.10936
 20
-2.9672800000000001
 30
0.0
 10
0.14746
 20
-2.9241000000000001
 30
0.0
 10
0.14746
 20
-2.9241000000000001
 30
0.0
 10
-0.01001
 20
-2.3145000000000002
 30
0.0
 10
0.7723000000000001
 20
-2.3780000000000001
 30
0.0
 10
1.0339200000000002
 20
-1.8522200000000002
 30
0.0
 10
1.0339200000000002
 20
-1.8522200000000002
 30
0.0
 10
1.1837800000000001
 20
-1.9563600000000001
 30
0.0
 10
1.2625200000000001
 20
-2.1468600000000002
 30
0.0
 10
1.1177400000000002
 20
-2.2916400000000001
 30
0.0
 10
1.1177400000000002
 20
-2.2916400000000001
 30
0.0
 10
0.8358000000000001
 20
-3.0485600000000002
 30
0.0
 10
1.7375
 20
-1.3061200000000002
 30
0.0
 10
2.1489800000000003
 20
-1.4305800000000002
 30
0.0
 10
2.1489800000000003
 20
-1.4305800000000002
 30
0.0
 10
2.0296000000000003
 20
-1.1994400000000001
 30
0.0
 10
1.7273400000000001
 20
-1.1384800000000002
 30
0.0
 10
1.4962000000000002
 20
-1.1791200000000002
 30
0.0
 10
1.4962000000000002
 20
-1.1791200000000002
 30
0.0
 10
0.38622
 20
-1.1384800000000002
 30
0.0
 10
-0.71867
 20
0.18485
 30
0.0
 10
-0.05827
 20
1.23641
 30
0.0
 10
-0.05827
 20
1.23641
 30
0.0
 10
0.0484
 20
0.9011300000000001
 30
0.0
 10
0.0992
 20
0.49981
 30
0.0
 10
0.31764
 20
0.18485
 30
0.0
 10
0.31764
 20
0.18485
 30
0.0
 10
0.4294000000000001
 20
1.36087
 30
0.0
 10
0.95518
 20
-0.2317
 30
0.0
 10
1.5800200000000002
 20
-0.40188
 30
0.0
 10
1.5800200000000002
 20
-0.40188
 30
0.0
 10
1.6155800000000002
 20
-0.08692
 30
0.0
 10
1.8949800000000001
 20
-0.06406
 30
0.0
 10
2.3217000000000003
 20
-0.02342
 30
0.0
 10
2.3217000000000003
 20
-0.02342
 30
0.0
 10
2.1413600000000002
 20
-0.31806
 30
0.0
 10
1.5724
 20
-0.52888
 30
0.0
 10
1.6917800000000001
 20
-1.0114800000000002
 30
0.0
 10
1.6917800000000001
 20
-1.0114800000000002
 30
0.0
 10
1.8797400000000002
 20
-0.92766
 30
0.0
 10
2.0194400000000003
 20
-0.46538
 30
0.0
 10
2.3344
 20
-0.40188
 30
0.0
 10
2.3344
 20
-0.40188
 30
0.0
 10
2.38774
 20
-0.61016
 30
0.0
 10
2.4664800000000002
 20
-0.82098
 30
0.0
 10
2.6696800000000001
 20
-0.9683000000000001
 30
0.0
 10
2.6696800000000001
 20
-0.9683000000000001
 30
0.0
 10
2.59348
 20
-1.2223000000000002
 30
0.0
 10
2.3521800000000002
 20
-0.88448
 30
0.0
 10
2.2175600000000002
 20
-1.1156200000000001
 30
0.0
 10
2.2175600000000002
 20
-1.1156200000000001
 30
0.0
 10
2.6087200000000004
 20
-1.3899400000000002
 30
0.0
 10
2.4563200000000003
 20
-1.7252200000000002
 30
0.0
 10
3.0049600000000001
 20
-2.1240000000000001
 30
0.0
 10
3.0049600000000001
 20
-2.1240000000000001
 30
0.0
 10
2.9389200000000004
 20
-2.01986
 30
0.0
 10
2.8500200000000002
 20
-1.7049000000000001
 30
0.0
 10
3.1167200000000004
 20
-1.6642600000000001
 30
0.0
 10
3.1167200000000004
 20
-1.6642600000000001
 30
0.0
 10
3.4342200000000003
 20
-2.35514
 30
0.0
 10
3.6856800000000005
 20
-1.9766800000000002
 30
0.0
 10
4.1403400000000001
 20
-2.5253200000000002
 30
0.0
 10
4.1403400000000001
 20
-2.5253200000000002
 30
0.0
 10
3.9498400000000005
 20
-2.0401800000000003
 30
0.0
 10
4.2622600000000004
 20
-2.0401800000000003
 30
0.0
 10
4.0895400000000004
 20
-1.8522200000000002
 30
0.0
 10
4.0895400000000004
 20
-1.8522200000000002
 30
0.0
 10
4.0539800000000001
 20
-1.7252200000000002
 30
0.0
 10
4.1733600000000006
 20
-1.5982200000000002
 30
0.0
 10
4.2876600000000007
 20
-1.5779000000000001
 30
0.0
 10
4.2876600000000007
 20
-1.5779000000000001
 30
0.0
 10
4.5594400000000004
 20
-1.7252200000000002
 30
0.0
 10
4.4426000000000005
 20
-2.06304
 30
0.0
 10
4.5010200000000005
 20
-2.3145000000000002
 30
0.0
 10
4.5010200000000005
 20
-2.3145000000000002
 30
0.0
 10
4.4121200000000007
 20
-2.77678
 30
0.0
 10
3.5612200000000005
 20
-2.5888200000000001
 30
0.0
 10
3.5840800000000002
 20
-2.7971000000000004
 30
0.0
 10
3.5840800000000002
 20
-2.7971000000000004
 30
0.0
 10
4.4908600000000005
 20
-2.81996
 30
0.0
 10
3.2665800000000003
 20
-2.9876
 30
0.0
 10
2.9897200000000002
 20
-2.8606000000000003
 30
0.0
 10
2.9897200000000002
 20
-2.8606000000000003
 30
0.0
 10
3.3326200000000004
 20
-3.3457400000000002
 30
0.0
 10
4.1581200000000003
 20
-3.6378400000000002
 30
0.0
 10
3.4088200000000004
 20
-4.35412
 30
0.0
 10
3.4088200000000004
 20
-4.35412
 30
0.0
 10
4.1428799999999999
 20
-5.0424600000000002
 30
0.0
 10
3.1497400000000004
 20
-5.6901600000000006
 30
0.0
 10
2.2505800000000002
 20
-5.8755800000000002
 30
0.0
 10
2.2505800000000002
 20
-5.8755800000000002
 30
0.0
 10
2.05246
 20
-5.9162200000000009
 30
0.0
 10
1.7705200000000001
 20
-5.7435
 30
0.0
 10
1.6232000000000002
 20
-5.9517800000000003
 30
0.0
 10
1.6232000000000002
 20
-5.9517800000000003
 30
0.0
 10
1.6232000000000002
 20
-5.9517800000000003
 30
0.0
 10
2.5884
 20
-5.9721000000000002
 30
0.0
 10
2.5884
 20
-5.9721000000000002
 30
0.0
 10
2.5884
 20
-5.9721000000000002
 30
0.0
 10
2.9694000000000003
 20
-6.0356000000000005
 30
0.0
 10
3.2792800000000004
 20
-5.9898800000000003
 30
0.0
 10
3.6145600000000004
 20
-5.8425600000000006
 30
0.0
 10
3.6145600000000004
 20
-5.8425600000000006
 30
0.0
 10
3.6399600000000003
 20
-5.8882800000000008
 30
0.0
 10
3.5713800000000004
 20
-5.9238400000000002
 30
0.0
 10
3.5307400000000002
 20
-5.9467000000000008
 30
0.0
 10
3.5307400000000002
 20
-5.9467000000000008
 30
0.0
 10
2.5198200000000002
 20
-6.5283600000000002
 30
0.0
 10
1.19394
 20
-5.8222400000000007
 30
0.0
 10
0.12968
 20
-5.7409600000000003
 30
0.0
 10
0.12968
 20
-5.7409600000000003
 30
0.0
 10
0.41416
 20
-5.6774600000000008
 30
0.0
 10
0.7215
 20
-5.6139600000000005
 30
0.0
 10
1.02884
 20
-5.5936400000000006
 30
0.0
 10
1.02884
 20
-5.5936400000000006
 30
0.0
 10
1.3895200000000001
 20
-5.5733200000000007
 30
0.0
 10
3.0786200000000004
 20
-5.6571400000000001
 30
0.0
 10
2.4791800000000004
 20
-5.5098200000000004
 30
0.0
 10
2.4791800000000004
 20
-5.5098200000000004
 30
0.0
 10
1.1558400000000002
 20
-5.2151800000000001
 30
0.0
 10
0.29478
 20
-5.4056800000000003
 30
0.0
 10
-1.5644900000000002
 20
-5.6977800000000007
 30
0.0
 10
-1.5644900000000002
 20
-5.6977800000000007
 30
0.0
 10
-1.6533900000000001
 20
-5.8679600000000001
 30
0.0
 10
-1.7930900000000001
 20
-6.0356000000000005
 30
0.0
 10
-1.9683500000000003
 20
-6.1194200000000007
 30
0.0
 10
-1.9683500000000003
 20
-6.1194200000000007
 30
0.0
 10
-2.19441
 20
-6.1397400000000006
 30
0.0
 10
-2.4661900000000001
 20
-6.2667400000000004
 30
0.0
 10
-2.6770100000000001
 20
-6.1397400000000006
 30
0.0
 10
-2.6770100000000001
 20
-6.1397400000000006
 30
0.0
 10
-2.35189
 20
-6.0559200000000004
 30
0.0
 10
-1.8896100000000002
 20
-6.0559200000000004
 30
0.0
 10
-1.6787900000000002
 20
-5.7206400000000004
 30
0.0
 10
-1.6787900000000002
 20
-5.7206400000000004
 30
0.0
 10
-2.6592300000000004
 20
-5.6977800000000007
 30
0.0
 10
-3.7996900000000005
 20
-5.6368200000000002
 30
0.0
 10
-3.9927300000000003
 20
-6.7087000000000003
 30
0.0
 10
-3.9927300000000003
 20
-6.7087000000000003
 30
0.0
 10
-4.1375100000000007
 20
-6.7925200000000006
 30
0.0
 10
-4.2797499999999999
 20
-6.7493400000000001
 30
0.0
 10
-4.4219900000000001
 20
-6.7722000000000007
 30
0.0
 10
-4.4219900000000001
 20
-6.7722000000000007
 30
0.0
 10
-4.4727900000000007
 20
-6.2667400000000004
 30
0.0
 10
-4.0155900000000004
 20
-5.8679600000000001
 30
0.0
 10
-3.6752300000000004
 20
-5.5504600000000002
 30
0.0
 10
-3.6752300000000004
 20
-5.5504600000000002
 30
0.0
 10
-3.5787100000000005
 20
-5.4691800000000006
 30
0.0
 10
-3.4821900000000001
 20
-5.3828200000000006
 30
0.0
 10
-3.3602700000000003
 20
-5.3625000000000007
 30
0.0
 10
-3.3602700000000003
 20
-5.3625000000000007
 30
0.0
 10
-3.0757900000000005
 20
-4.4150800000000006
 30
0.0
 10
-1.9277100000000003
 20
-5.6977800000000007
 30
0.0
 10
-1.2342900000000001
 20
-5.0678600000000005
 30
0.0
 10
-1.2342900000000001
 20
-5.0678600000000005
 30
0.0
 10
-1.9124700000000001
 20
-5.0475400000000006
 30
0.0
 10
-2.6262100000000004
 20
-4.9637200000000004
 30
0.0
 10
-3.2535900000000004
 20
-4.7732200000000002
 30
0.0
 10
-3.2535900000000004
 20
-4.7732200000000002
 30
0.0
 10
-3.7336500000000004
 20
-5.0043600000000001
 30
0.0
 10
-4.0663900000000002
 20
-5.6977800000000007
 30
0.0
 10
-4.5718500000000004
 20
-5.5936400000000006
 30
0.0
 10
-4.5718500000000004
 20
-5.5936400000000006
 30
0.0
 10
-4.6201100000000004
 20
-5.8247800000000005
 30
0.0
 10
-4.78775
 20
-6.2667400000000004
 30
0.0
 10
-5.07477
 20
-6.1626000000000003
 30
0.0
 10
-5.07477
 20
-6.1626000000000003
 30
0.0
 10
-5.0417500000000004
 20
-5.2583600000000006
 30
0.0
 10
-3.8631900000000003
 20
-4.8570400000000005
 30
0.0
 10
-3.3348700000000004
 20
-4.2271200000000002
 30
0.0
 10
-3.3348700000000004
 20
-4.2271200000000002
 30
0.0
 10
-2.9945100000000004
 20
-4.4150800000000006
 30
0.0
 10
-2.5042900000000001
 20
-4.5624000000000002
 30
0.0
 10
-2.2426700000000004
 20
-4.8367200000000006
 30
0.0
 10
-2.2426700000000004
 20
-4.8367200000000006
 30
0.0
 10
-1.9124700000000001
 20
-4.7529000000000003
 30
0.0
 10
-1.00315
 20
-4.8570400000000005
 30
0.0
 10
-1.54925
 20
-4.4582600000000001
 30
0.0
 10
-1.54925
 20
-4.4582600000000001
 30
0.0
 10
-0.18019
 20
-4.6309800000000001
 30
0.0
 10
1.1152000000000002
 20
-4.30586
 30
0.0
 10
2.4436200000000001
 20
-4.22966
 30
0.0
 10
2.4436200000000001
 20
-4.22966
 30
0.0
 10
2.5680800000000001
 20
-4.2220400000000007
 30
0.0
 10
2.8373200000000001
 20
-4.2347400000000004
 30
0.0
 10
2.8576400000000004
 20
-4.1026600000000002
 30
0.0
 10
2.8576400000000004
 20
-4.1026600000000002
 30
0.0
 10
2.1058000000000003
 20
-4.1433
 30
0.0
 10
2.17184
 20
-2.9876
 30
0.0
 10
2.63158
 20
-2.5888200000000001
 30
0.0
 10
2.63158
 20
-2.5888200000000001
 30
0.0
 10
2.8830400000000003
 20
-2.5456400000000001
 30
0.0
 10
3.1726000000000001
 20
-2.6294600000000004
 30
0.0
 10
3.3885000000000001
 20
-2.5024600000000001
 30
0.0
 10
3.3885000000000001
 20
-2.5024600000000001
 30
0.0
 10
2.7966800000000003
 20
-2.23068
 30
0.0
 10
2.4842600000000004
 20
-2.2916400000000001
 30
0.0
 10
2.0626200000000003
 20
-1.8319000000000001
 30
0.0
 10
2.0626200000000003
 20
-1.8319000000000001
 30
0.0
 10
1.7857600000000002
 20
-2.0401800000000003
 30
0.0
 10
0.95518
 20
-2.7564600000000001
 30
0.0
 10
1.2091800000000001
 20
-2.77678
 30
0.0
 10
1.2091800000000001
 20
-2.77678
 30
0.0
 10
1.4301600000000001
 20
-2.4618200000000003
 30
0.0
 10
1.6282800000000002
 20
-2.7132800000000001
 30
0.0
 10
1.8543400000000001
 20
-2.4618200000000003
 30
0.0
  0
SPLINE
  5
5E
100
AcDbEntity
  8
Ebene 1
 62
     7
100
AcDbSpline
210
0.0
220
0.0
230
1.0
 70
     1
 71
     3
 72
    16
 73
    12
 74
     0
 42
0.0000000001
 43
0.0000000001
 40
0.0
 40
0.0
 40
0.0
 40
0.0
 40
0.3333333333333333
 40
0.3333333333333333
 40
0.3333333333333333
 40
0.3333333333333333
 40
0.6666666666666666
 40
0.6666666666666666
 40
0.6666666666666666
 40
0.6666666666666666
 40
1.0
 40
1.0
 40
1.0
 40
1.0
 10
-0.39355
 20
0.9824100000000001
 30
0.0
 10
-0.38847
 20
0.8376300000000001
 30
0.0
 10
-0.41133
 20
0.6268100000000001
 30
0.0
 10
-0.4392700000000001
 20
0.45917
 30
0.0
 10
-0.4392700000000001
 20
0.45917
 30
0.0
 10
-0.5408700000000001
 20
0.41599
 30
0.0
 10
-0.63739
 20
0.33217
 30
0.0
 10
-0.74407
 20
0.31185
 30
0.0
 10
-0.74407
 20
0.31185
 30
0.0
 10
-0.6729500000000001
 20
0.5429900000000001
 30
0.0
 10
-0.5408700000000001
 20
0.7741300000000001
 30
0.0
 10
-0.39355
 20
0.9824100000000001
 30
0.0
  0
SPLINE
  5
5F
100
AcDbEntity
  8
Ebene 1
 62
     7
100
AcDbSpline
210
0.0
220
0.0
230
1.0
 70
     1
 71
     3
 72
    16
 73
    12
 74
     0
 42
0.0000000001
 43
0.0000000001
 40
0.0
 40
0.0
 40
0.0
 40
0.0
 40
0.3333333333333333
 40
0.3333333333333333
 40
0.3333333333333333
 40
0.3333333333333333
 40
0.6666666666666666
 40
0.6666666666666666
 40
0.6666666666666666
 40
0.6666666666666666
 40
1.0
 40
1.0
 40
1.0
 40
1.0
 10
-2.2426700000000004
 20
0.9214500000000001
 30
0.0
 10
-1.9785100000000002
 20
0.9417700000000001
 30
0.0
 10
-2.0775700000000001
 20
0.6471300000000001
 30
0.0
 10
-2.0369300000000004
 20
0.47949
 30
0.0
 10
-2.0369300000000004
 20
0.47949
 30
0.0
 10
-2.2401300000000002
 20
0.47949
 30
0.0
 10
-2.1334500000000003
 20
0.7512700000000001
 30
0.0
 10
-2.2426700000000004
 20
0.8579500000000001
 30
0.0
 10
-2.2426700000000004
 20
0.8579500000000001
 30
0.0
 10
-2.2426700000000004
 20
0.8579500000000001
 30
0.0
 10
-2.2426700000000004
 20
0.9214500000000001
 30
0.0
 10
-2.2426700000000004
 20
0.9214500000000001
 30
0.0
  0
SPLINE
  5
60
100
AcDbEntity
  8
Ebene 1
 62
     7
100
AcDbSpline
210
0.0
220
0.0
230
1.0
 70
     1
 71
     3
 72
    20
 73
    16
 74
     0
 42
0.0000000001
 43
0.0000000001
 40
0.0
 40
0.0
 40
0.0
 40
0.0
 40
0.25
 40
0.25
 40
0.25
 40
0.25
 40
0.5
 40
0.5
 40
0.5
 40
0.5
 40
0.75
 40
0.75
 40
0.75
 40
0.75
 40
1.0
 40
1.0
 40
1.0
 40
1.0
 10
-1.8438900000000003
 20
0.8147700000000001
 30
0.0
 10
-1.6254500000000001
 20
0.7944500000000001
 30
0.0
 10
-1.3841500000000002
 20
0.7741300000000001
 30
0.0
 10
-1.1733300000000002
 20
0.7944500000000001
 30
0.0
 10
-1.1733300000000002
 20
0.7944500000000001
 30
0.0
 10
-1.0082300000000002
 20
0.6674500000000001
 30
0.0
 10
-0.9396500000000001
 20
0.43631
 30
0.0
 10
-0.8812300000000001
 20
0.26867
 30
0.0
 10
-0.8812300000000001
 20
0.26867
 30
0.0
 10
-1.1403100000000002
 20
0.20517
 30
0.0
 10
-1.4324100000000002
 20
0.22549
 30
0.0
 10
-1.6914900000000002
 20
0.26867
 30
0.0
 10
-1.6914900000000002
 20
0.26867
 30
0.0
 10
-1.8591300000000002
 20
0.37281
 30
0.0
 10
-1.8845300000000003
 20
0.6268100000000001
 30
0.0
 10
-1.8438900000000003
 20
0.8147700000000001
 30
0.0
  0
SPLINE
  5
61
100
AcDbEntity
  8
Ebene 1
 62
     7
100
AcDbSpline
210
0.0
220
0.0
230
1.0
 70
     1
 71
     3
 72
    12
 73
     8
 74
     0
 42
0.0000000001
 43
0.0000000001
 40
0.0
 40
0.0
 40
0.0
 40
0.0
 40
0.5
 40
0.5
 40
0.5
 40
0.5
 40
1.0
 40
1.0
 40
1.0
 40
1.0
 10
2.6519000000000004
 20
0.39567
 30
0.0
 10
2.6849200000000004
 20
0.16453
 30
0.0
 10
2.5426800000000003
 20
-0.2317
 30
0.0
 10
2.2582
 20
-0.25456
 30
0.0
 10
2.2582
 20
-0.25456
 30
0.0
 10
2.4791800000000004
 20
-0.10724
 30
0.0
 10
2.6061800000000002
 20
0.14421
 30
0.0
 10
2.6519000000000004
 20
0.39567
 30
0.0
  0
SPLINE
  5
62
100
AcDbEntity
  8
Ebene 1
 62
     7
100
AcDbSpline
210
0.0
220
0.0
230
1.0
 70
     1
 71
     3
 72
    20
 73
    16
 74
     0
 42
0.0000000001
 43
0.0000000001
 40
0.0
 40
0.0
 40
0.0
 40
0.0
 40
0.25
 40
0.25
 40
0.25
 40
0.25
 40
0.5
 40
0.5
 40
0.5
 40
0.5
 40
0.75
 40
0.75
 40
0.75
 40
0.75
 40
1.0
 40
1.0
 40
1.0
 40
1.0
 10
-0.5815100000000001
 20
0.22549
 30
0.0
 10
-0.5815100000000001
 20
0.22549
 30
0.0
 10
-0.4595900000000001
 20
0.22549
 30
0.0
 10
-0.4595900000000001
 20
0.22549
 30
0.0
 10
-0.4595900000000001
 20
0.22549
 30
0.0
 10
-0.40117
 20
-0.27488
 30
0.0
 10
-1.0564900000000002
 20
-0.31806
 30
0.0
 10
-1.37399
 20
-0.44252
 30
0.0
 10
-1.37399
 20
-0.44252
 30
0.0
 10
-1.5213100000000002
 20
-0.2952
 30
0.0
 10
-1.5924300000000002
 20
-0.10724
 30
0.0
 10
-1.6686300000000001
 20
0.08071
 30
0.0
 10
-1.6686300000000001
 20
0.08071
 30
0.0
 10
-1.3155700000000001
 20
0.08071
 30
0.0
 10
-0.91171
 20
0.12135
 30
0.0
 10
-0.5815100000000001
 20
0.22549
 30
0.0
  0
SPLINE
  5
63
100
AcDbEntity
  8
Ebene 1
 62
     7
100
AcDbSpline
210
0.0
220
0.0
230
1.0
 70
     1
 71
     3
 72
    16
 73
    12
 74
     0
 42
0.0000000001
 43
0.0000000001
 40
0.0
 40
0.0
 40
0.0
 40
0.0
 40
0.3333333333333333
 40
0.3333333333333333
 40
0.3333333333333333
 40
0.3333333333333333
 40
0.6666666666666666
 40
0.6666666666666666
 40
0.6666666666666666
 40
0.6666666666666666
 40
1.0
 40
1.0
 40
1.0
 40
1.0
 10
-1.9912100000000001
 20
0.18485
 30
0.0
 10
-1.7727700000000002
 20
0.08071
 30
0.0
 10
-1.7600700000000002
 20
-0.2317
 30
0.0
 10
-1.6381500000000002
 20
-0.4222
 30
0.0
 10
-1.6381500000000002
 20
-0.4222
 30
0.0
 10
-1.8692900000000001
 20
-0.38156
 30
0.0
 10
-1.8972300000000002
 20
-0.04374
 30
0.0
 10
-2.02677
 20
0.12135
 30
0.0
 10
-2.02677
 20
0.12135
 30
0.0
 10
-2.02677
 20
0.12135
 30
0.0
 10
-1.9912100000000001
 20
0.18485
 30
0.0
 10
-1.9912100000000001
 20
0.18485
 30
0.0
  0
SPLINE
  5
64
100
AcDbEntity
  8
Ebene 1
 62
     7
100
AcDbSpline
210
0.0
220
0.0
230
1.0
 70
     1
 71
     3
 72
    20
 73
    16
 74
     0
 42
0.0000000001
 43
0.0000000001
 40
0.0
 40
0.0
 40
0.0
 40
0.0
 40
0.25
 40
0.25
 40
0.25
 40
0.25
 40
0.5
 40
0.5
 40
0.5
 40
0.5
 40
0.75
 40
0.75
 40
0.75
 40
0.75
 40
1.0
 40
1.0
 40
1.0
 40
1.0
 10
1.4123800000000002
 20
0.05785
 30
0.0
 10
1.4123800000000002
 20
0.05785
 30
0.0
 10
1.7857600000000002
 20
0.01721
 30
0.0
 10
1.7857600000000002
 20
0.01721
 30
0.0
 10
1.7857600000000002
 20
0.01721
 30
0.0
 10
1.7857600000000002
 20
0.01721
 30
0.0
 10
1.7908400000000002
 20
-0.02342
 30
0.0
 10
1.7908400000000002
 20
-0.02342
 30
0.0
 10
1.7908400000000002
 20
-0.02342
 30
0.0
 10
1.7908400000000002
 20
-0.02342
 30
0.0
 10
1.4758800000000001
 20
-0.12756
 30
0.0
 10
1.4758800000000001
 20
-0.12756
 30
0.0
 10
1.4758800000000001
 20
-0.12756
 30
0.0
 10
1.4758800000000001
 20
-0.12756
 30
0.0
 10
1.4123800000000002
 20
0.05785
 30
0.0
 10
1.4123800000000002
 20
0.05785
 30
0.0
  0
SPLINE
  5
65
100
AcDbEntity
  8
Ebene 1
 62
     7
100
AcDbSpline
210
0.0
220
0.0
230
1.0
 70
     1
 71
     3
 72
    48
 73
    44
 74
     0
 42
0.0000000001
 43
0.0000000001
 40
0.0
 40
0.0
 40
0.0
 40
0.0
 40
0.0909090909090909
 40
0.0909090909090909
 40
0.0909090909090909
 40
0.0909090909090909
 40
0.1818181818181818
 40
0.1818181818181818
 40
0.1818181818181818
 40
0.1818181818181818
 40
0.2727272727272727
 40
0.2727272727272727
 40
0.2727272727272727
 40
0.2727272727272727
 40
0.3636363636363637
 40
0.3636363636363637
 40
0.3636363636363637
 40
0.3636363636363637
 40
0.4545454545454546
 40
0.4545454545454546
 40
0.4545454545454546
 40
0.4545454545454546
 40
0.5454545454545455
 40
0.5454545454545455
 40
0.5454545454545455
 40
0.5454545454545455
 40
0.6363636363636365
 40
0.6363636363636365
 40
0.6363636363636365
 40
0.6363636363636365
 40
0.7272727272727274
 40
0.7272727272727274
 40
0.7272727272727274
 40
0.7272727272727274
 40
0.8181818181818183
 40
0.8181818181818183
 40
0.8181818181818183
 40
0.8181818181818183
 40
0.9090909090909093
 40
0.9090909090909093
 40
0.9090909090909093
 40
0.9090909090909093
 40
1.0
 40
1.0
 40
1.0
 40
1.0
 10
2.67476
 20
-0.06406
 30
0.0
 10
2.9541600000000003
 20
0.01721
 30
0.0
 10
2.9160600000000003
 20
-0.58984
 30
0.0
 10
3.1548200000000004
 20
-0.31806
 30
0.0
 10
3.1548200000000004
 20
-0.31806
 30
0.0
 10
3.0760800000000001
 20
-0.3587
 30
0.0
 10
2.9821000000000004
 20
-0.2317
 30
0.0
 10
3.0583000000000005
 20
-0.17074
 30
0.0
 10
3.0583000000000005
 20
-0.17074
 30
0.0
 10
3.0583000000000005
 20
-0.17074
 30
0.0
 10
3.2792800000000004
 20
-0.25456
 30
0.0
 10
3.2792800000000004
 20
-0.25456
 30
0.0
 10
3.2792800000000004
 20
-0.25456
 30
0.0
 10
3.1345000000000001
 20
-0.63302
 30
0.0
 10
3.5739200000000002
 20
-0.69652
 30
0.0
 10
3.5942400000000001
 20
-0.9886200000000001
 30
0.0
 10
3.5942400000000001
 20
-0.9886200000000001
 30
0.0
 10
3.4418400000000005
 20
-0.9886200000000001
 30
0.0
 10
3.4139000000000004
 20
-0.71684
 30
0.0
 10
3.2259400000000005
 20
-0.78034
 30
0.0
 10
3.2259400000000005
 20
-0.78034
 30
0.0
 10
3.2462600000000004
 20
-0.71684
 30
0.0
 10
3.2538800000000001
 20
-0.63302
 30
0.0
 10
3.2259400000000005
 20
-0.56952
 30
0.0
 10
3.2259400000000005
 20
-0.56952
 30
0.0
 10
3.2107000000000001
 20
-0.52888
 30
0.0
 10
3.1497400000000004
 20
-0.50602
 30
0.0
 10
3.1370400000000003
 20
-0.5492
 30
0.0
 10
3.1370400000000003
 20
-0.5492
 30
0.0
 10
3.2132400000000003
 20
-1.0318000000000001
 30
0.0
 10
2.5706200000000003
 20
-0.71684
 30
0.0
 10
2.9008200000000004
 20
-0.40188
 30
0.0
 10
2.9008200000000004
 20
-0.40188
 30
0.0
 10
2.8195400000000004
 20
-0.38156
 30
0.0
 10
2.79922
 20
-0.46538
 30
0.0
 10
2.7636600000000002
 20
-0.50602
 30
0.0
 10
2.7636600000000002
 20
-0.50602
 30
0.0
 10
2.7636600000000002
 20
-0.50602
 30
0.0
 10
2.7331800000000004
 20
-0.80066
 30
0.0
 10
2.7331800000000004
 20
-0.80066
 30
0.0
 10
2.7331800000000004
 20
-0.80066
 30
0.0
 10
2.5553800000000004
 20
-0.61016
 30
0.0
 10
2.5807800000000003
 20
-0.27488
 30
0.0
 10
2.67476
 20
-0.06406
 30
0.0
  0
SPLINE
  5
66
100
AcDbEntity
  8
Ebene 1
100
AcDbSpline
210
0.0
220
0.0
230
1.0
 70
     1
 71
     3
 72
    12
 73
     8
 74
     0
 42
0.0000000001
 43
0.0000000001
 40
0.0
 40
0.0
 40
0.0
 40
0.0
 40
0.5
 40
0.5
 40
0.5
 40
0.5
 40
1.0
 40
1.0
 40
1.0
 40
1.0
 10
0.8027800000000001
 20
-0.10724
 30
0.0
 10
0.95264
 20
-0.10724
 30
0.0
 10
1.0085200000000001
 20
-0.31806
 30
0.0
 10
0.8459600000000001
 20
-0.3587
 30
0.0
 10
0.8459600000000001
 20
-0.3587
 30
0.0
 10
0.6910200000000001
 20
-0.3587
 30
0.0
 10
0.6884800000000001
 20
-0.17074
 30
0.0
 10
0.8027800000000001
 20
-0.10724
 30
0.0
  0
SPLINE
  5
67
100
AcDbEntity
  8
Ebene 1
 62
     7
100
AcDbSpline
210
0.0
220
0.0
230
1.0
 70
     1
 71
     3
 72
    36
 73
    32
 74
     0
 42
0.0000000001
 43
0.0000000001
 40
0.0
 40
0.0
 40
0.0
 40
0.0
 40
0.125
 40
0.125
 40
0.125
 40
0.125
 40
0.25
 40
0.25
 40
0.25
 40
0.25
 40
0.375
 40
0.375
 40
0.375
 40
0.375
 40
0.5
 40
0.5
 40
0.5
 40
0.5
 40
0.625
 40
0.625
 40
0.625
 40
0.625
 40
0.75
 40
0.75
 40
0.75
 40
0.75
 40
0.875
 40
0.875
 40
0.875
 40
0.875
 40
1.0
 40
1.0
 40
1.0
 40
1.0
 10
-0.41387
 20
-0.25456
 30
0.0
 10
-0.26401
 20
-0.25456
 30
0.0
 10
-0.20813
 20
-0.50602
 30
0.0
 10
-0.16241
 20
-0.65334
 30
0.0
 10
-0.16241
 20
-0.65334
 30
0.0
 10
-0.3757700000000001
 20
-0.84384
 30
0.0
 10
-0.6069100000000001
 20
-1.1791200000000002
 30
0.0
 10
-0.9396500000000001
 20
-1.0114800000000002
 30
0.0
 10
-0.9396500000000001
 20
-1.0114800000000002
 30
0.0
 10
-1.0234700000000001
 20
-1.0521200000000002
 30
0.0
 10
-0.86853
 20
-1.1384800000000002
 30
0.0
 10
-0.9447300000000001
 20
-1.1791200000000002
 30
0.0
 10
-0.9447300000000001
 20
-1.1791200000000002
 30
0.0
 10
-1.21397
 20
-1.1562600000000001
 30
0.0
 10
-1.4273300000000002
 20
-0.90734
 30
0.0
 10
-1.58989
 20
-0.69652
 30
0.0
 10
-1.58989
 20
-0.69652
 30
0.0
 10
-1.6051300000000002
 20
-0.65334
 30
0.0
 10
-1.5619500000000002
 20
-0.65334
 30
0.0
 10
-1.5416300000000001
 20
-0.63302
 30
0.0
 10
-1.5416300000000001
 20
-0.63302
 30
0.0
 10
-1.5416300000000001
 20
-0.63302
 30
0.0
 10
-1.17079
 20
-0.84384
 30
0.0
 10
-1.17079
 20
-0.84384
 30
0.0
 10
-1.17079
 20
-0.84384
 30
0.0
 10
-1.0564900000000002
 20
-0.78034
 30
0.0
 10
-1.2596900000000002
 20
-0.67366
 30
0.0
 10
-1.24953
 20
-0.58984
 30
0.0
 10
-1.24953
 20
-0.58984
 30
0.0
 10
-0.9675900000000001
 20
-0.50602
 30
0.0
 10
-0.6653300000000001
 20
-0.4222
 30
0.0
 10
-0.41387
 20
-0.25456
 30
0.0
  0
SPLINE
  5
68
100
AcDbEntity
  8
Ebene 1
 62
     7
100
AcDbSpline
210
0.0
220
0.0
230
1.0
 70
     1
 71
     3
 72
    12
 73
     8
 74
     0
 42
0.0000000001
 43
0.0000000001
 40
0.0
 40
0.0
 40
0.0
 40
0.0
 40
0.5
 40
0.5
 40
0.5
 40
0.5
 40
1.0
 40
1.0
 40
1.0
 40
1.0
 10
-0.16241
 20
-0.33838
 30
0.0
 10
-0.10399
 20
-0.33838
 30
0.0
 10
-0.06589
 20
-0.4222
 30
0.0
 10
-0.06081
 20
-0.46538
 30
0.0
 10
-0.06081
 20
-0.46538
 30
0.0
 10
-0.11415
 20
-0.46538
 30
0.0
 10
-0.17257
 20
-0.40188
 30
0.0
 10
-0.16241
 20
-0.33838
 30
0.0
  0
SPLINE
  5
69
100
AcDbEntity
  8
Ebene 1
100
AcDbSpline
210
0.0
220
0.0
230
1.0
 70
     1
 71
     3
 72
    28
 73
    24
 74
     0
 42
0.0000000001
 43
0.0000000001
 40
0.0
 40
0.0
 40
0.0
 40
0.0
 40
0.1666666666666667
 40
0.1666666666666667
 40
0.1666666666666667
 40
0.1666666666666667
 40
0.3333333333333333
 40
0.3333333333333333
 40
0.3333333333333333
 40
0.3333333333333333
 40
0.5
 40
0.5
 40
0.5
 40
0.5
 40
0.6666666666666666
 40
0.6666666666666666
 40
0.6666666666666666
 40
0.6666666666666666
 40
0.8333333333333333
 40
0.8333333333333333
 40
0.8333333333333333
 40
0.8333333333333333
 40
1.0
 40
1.0
 40
1.0
 40
1.0
 10
1.0567800000000001
 20
-0.33838
 30
0.0
 10
1.0567800000000001
 20
-0.33838
 30
0.0
 10
1.1609200000000002
 20
-0.33838
 30
0.0
 10
1.1609200000000002
 20
-0.33838
 30
0.0
 10
1.1609200000000002
 20
-0.33838
 30
0.0
 10
1.4530200000000002
 20
-0.25456
 30
0.0
 10
1.3717400000000002
 20
-0.78034
 30
0.0
 10
1.14568
 20
-0.69652
 30
0.0
 10
1.14568
 20
-0.69652
 30
0.0
 10
1.1380600000000001
 20
-0.67366
 30
0.0
 10
1.1304400000000001
 20
-0.63302
 30
0.0
 10
1.1558400000000002
 20
-0.61016
 30
0.0
 10
1.1558400000000002
 20
-0.61016
 30
0.0
 10
1.18886
 20
-0.56952
 30
0.0
 10
1.2625200000000001
 20
-0.4857
 30
0.0
 10
1.1812400000000001
 20
-0.44252
 30
0.0
 10
1.1812400000000001
 20
-0.44252
 30
0.0
 10
1.1812400000000001
 20
-0.44252
 30
0.0
 10
0.9780400000000001
 20
-0.56952
 30
0.0
 10
0.9780400000000001
 20
-0.56952
 30
0.0
 10
0.9780400000000001
 20
-0.56952
 30
0.0
 10
0.8993000000000001
 20
-0.4857
 30
0.0
 10
0.9704200000000001
 20
-0.3587
 30
0.0
 10
1.0567800000000001
 20
-0.33838
 30
0.0
  0
SPLINE
  5
6A
100
AcDbEntity
  8
Ebene 1
 62
     7
100
AcDbSpline
210
0.0
220
0.0
230
1.0
 70
     1
 71
     3
 72
    12
 73
     8
 74
     0
 42
0.0000000001
 43
0.0000000001
 40
0.0
 40
0.0
 40
0.0
 40
0.0
 40
0.5
 40
0.5
 40
0.5
 40
0.5
 40
1.0
 40
1.0
 40
1.0
 40
1.0
 10
3.4520000000000004
 20
-0.3587
 30
0.0
 10
3.5180400000000005
 20
-0.40188
 30
0.0
 10
3.6679000000000004
 20
-0.44252
 30
0.0
 10
3.6577400000000004
 20
-0.5492
 30
0.0
 10
3.6577400000000004
 20
-0.5492
 30
0.0
 10
3.5459800000000001
 20
-0.69652
 30
0.0
 10
3.3834200000000001
 20
-0.46538
 30
0.0
 10
3.4520000000000004
 20
-0.3587
 30
0.0
  0
SPLINE
  5
6B
100
AcDbEntity
  8
Ebene 1
 62
     7
100
AcDbSpline
210
0.0
220
0.0
230
1.0
 70
     1
 71
     3
 72
    12
 73
     8
 74
     0
 42
0.0000000001
 43
0.0000000001
 40
0.0
 40
0.0
 40
0.0
 40
0.0
 40
0.5
 40
0.5
 40
0.5
 40
0.5
 40
1.0
 40
1.0
 40
1.0
 40
1.0
 10
3.7466400000000002
 20
-0.58984
 30
0.0
 10
3.8838000000000004
 20
-0.61016
 30
0.0
 10
4.1124000000000001
 20
-0.86416
 30
0.0
 10
3.8888800000000003
 20
-0.94798
 30
0.0
 10
3.8888800000000003
 20
-0.94798
 30
0.0
 10
3.6298000000000004
 20
-1.0114800000000002
 30
0.0
 10
3.6094800000000005
 20
-0.71684
 30
0.0
 10
3.7466400000000002
 20
-0.58984
 30
0.0
  0
SPLINE
  5
6C
100
AcDbEntity
  8
Ebene 1
 62
     7
100
AcDbSpline
210
0.0
220
0.0
230
1.0
 70
     1
 71
     3
 72
    20
 73
    16
 74
     0
 42
0.0000000001
 43
0.0000000001
 40
0.0
 40
0.0
 40
0.0
 40
0.0
 40
0.25
 40
0.25
 40
0.25
 40
0.25
 40
0.5
 40
0.5
 40
0.5
 40
0.5
 40
0.75
 40
0.75
 40
0.75
 40
0.75
 40
1.0
 40
1.0
 40
1.0
 40
1.0
 10
0.12968
 20
-0.65334
 30
0.0
 10
0.12968
 20
-0.65334
 30
0.0
 10
0.4624200000000001
 20
-0.9683000000000001
 30
0.0
 10
0.4624200000000001
 20
-0.9683000000000001
 30
0.0
 10
0.4624200000000001
 20
-0.9683000000000001
 30
0.0
 10
0.4624200000000001
 20
-0.9683000000000001
 30
0.0
 10
0.4624200000000001
 20
-1.0318000000000001
 30
0.0
 10
0.4624200000000001
 20
-1.0318000000000001
 30
0.0
 10
0.4624200000000001
 20
-1.0318000000000001
 30
0.0
 10
0.31764
 20
-0.9886200000000001
 30
0.0
 10
0.21604
 20
-0.82098
 30
0.0
 10
0.10936
 20
-0.71684
 30
0.0
 10
0.10936
 20
-0.71684
 30
0.0
 10
0.10936
 20
-0.71684
 30
0.0
 10
0.12968
 20
-0.65334
 30
0.0
 10
0.12968
 20
-0.65334
 30
0.0
  0
SPLINE
  5
6D
100
AcDbEntity
  8
Ebene 1
 62
     7
100
AcDbSpline
210
0.0
220
0.0
230
1.0
 70
     1
 71
     3
 72
    20
 73
    16
 74
     0
 42
0.0000000001
 43
0.0000000001
 40
0.0
 40
0.0
 40
0.0
 40
0.0
 40
0.25
 40
0.25
 40
0.25
 40
0.25
 40
0.5
 40
0.5
 40
0.5
 40
0.5
 40
0.75
 40
0.75
 40
0.75
 40
0.75
 40
1.0
 40
1.0
 40
1.0
 40
1.0
 10
-0.05827
 20
-0.86416
 30
0.0
 10
0.09158
 20
-0.94798
 30
0.0
 10
0.28716
 20
-1.1156200000000001
 30
0.0
 10
0.3405
 20
-1.2629400000000002
 30
0.0
 10
0.3405
 20
-1.2629400000000002
 30
0.0
 10
0.18048
 20
-1.4534400000000001
 30
0.0
 10
0.01284
 20
-1.6414000000000002
 30
0.0
 10
-0.22591
 20
-1.7049000000000001
 30
0.0
 10
-0.22591
 20
-1.7049000000000001
 30
0.0
 10
-0.22591
 20
-1.7049000000000001
 30
0.0
 10
-0.6043700000000001
 20
-1.2426200000000001
 30
0.0
 10
-0.6043700000000001
 20
-1.2426200000000001
 30
0.0
 10
-0.6043700000000001
 20
-1.2426200000000001
 30
0.0
 10
-0.6043700000000001
 20
-1.2426200000000001
 30
0.0
 10
-0.05827
 20
-0.86416
 30
0.0
 10
-0.05827
 20
-0.86416
 30
0.0
  0
SPLINE
  5
6E
100
AcDbEntity
  8
Ebene 1
 62
     7
100
AcDbSpline
210
0.0
220
0.0
230
1.0
 70
     1
 71
     3
 72
    12
 73
     8
 74
     0
 42
0.0000000001
 43
0.0000000001
 40
0.0
 40
0.0
 40
0.0
 40
0.0
 40
0.5
 40
0.5
 40
0.5
 40
0.5
 40
1.0
 40
1.0
 40
1.0
 40
1.0
 10
2.8627200000000004
 20
-0.90734
 30
0.0
 10
2.9236800000000001
 20
-0.90734
 30
0.0
 10
3.0506800000000003
 20
-0.88448
 30
0.0
 10
3.0049600000000001
 20
-0.9886200000000001
 30
0.0
 10
3.0049600000000001
 20
-0.9886200000000001
 30
0.0
 10
2.9465400000000002
 20
-1.0114800000000002
 30
0.0
 10
2.8576400000000004
 20
-0.9683000000000001
 30
0.0
 10
2.8627200000000004
 20
-0.90734
 30
0.0
  0
SPLINE
  5
6F
100
AcDbEntity
  8
Ebene 1
 62
     7
100
AcDbSpline
210
0.0
220
0.0
230
1.0
 70
     1
 71
     3
 72
    16
 73
    12
 74
     0
 42
0.0000000001
 43
0.0000000001
 40
0.0
 40
0.0
 40
0.0
 40
0.0
 40
0.3333333333333333
 40
0.3333333333333333
 40
0.3333333333333333
 40
0.3333333333333333
 40
0.6666666666666666
 40
0.6666666666666666
 40
0.6666666666666666
 40
0.6666666666666666
 40
1.0
 40
1.0
 40
1.0
 40
1.0
 10
3.2208600000000001
 20
-0.9683000000000001
 30
0.0
 10
3.4088200000000004
 20
-0.90734
 30
0.0
 10
3.5282000000000004
 20
-1.1791200000000002
 30
0.0
 10
3.3427800000000003
 20
-1.2629400000000002
 30
0.0
 10
3.3427800000000003
 20
-1.2629400000000002
 30
0.0
 10
3.3427800000000003
 20
-1.2629400000000002
 30
0.0
 10
3.1014800000000005
 20
-1.1994400000000001
 30
0.0
 10
3.1014800000000005
 20
-1.1994400000000001
 30
0.0
 10
3.1014800000000005
 20
-1.1994400000000001
 30
0.0
 10
3.0964
 20
-1.1156200000000001
 30
0.0
 10
3.1751400000000003
 20
-1.0318000000000001
 30
0.0
 10
3.2208600000000001
 20
-0.9683000000000001
 30
0.0
  0
SPLINE
  5
70
100
AcDbEntity
  8
Ebene 1
 62
     7
100
AcDbSpline
210
0.0
220
0.0
230
1.0
 70
     1
 71
     3
 72
    12
 73
     8
 74
     0
 42
0.0000000001
 43
0.0000000001
 40
0.0
 40
0.0
 40
0.0
 40
0.0
 40
0.5
 40
0.5
 40
0.5
 40
0.5
 40
1.0
 40
1.0
 40
1.0
 40
1.0
 10
4.0412800000000004
 20
-1.0114800000000002
 30
0.0
 10
4.1936800000000005
 20
-0.9886200000000001
 30
0.0
 10
4.3384600000000004
 20
-1.1994400000000001
 30
0.0
 10
4.2038400000000005
 20
-1.3264400000000001
 30
0.0
 10
4.2038400000000005
 20
-1.3264400000000001
 30
0.0
 10
4.0539800000000001
 20
-1.3670800000000001
 30
0.0
 10
3.8965000000000005
 20
-1.1156200000000001
 30
0.0
 10
4.0412800000000004
 20
-1.0114800000000002
 30
0.0
  0
SPLINE
  5
71
100
AcDbEntity
  8
Ebene 1
 62
     7
100
AcDbSpline
210
0.0
220
0.0
230
1.0
 70
     1
 71
     3
 72
    16
 73
    12
 74
     0
 42
0.0000000001
 43
0.0000000001
 40
0.0
 40
0.0
 40
0.0
 40
0.0
 40
0.3333333333333333
 40
0.3333333333333333
 40
0.3333333333333333
 40
0.3333333333333333
 40
0.6666666666666666
 40
0.6666666666666666
 40
0.6666666666666666
 40
0.6666666666666666
 40
1.0
 40
1.0
 40
1.0
 40
1.0
 10
2.7154000000000003
 20
-1.0318000000000001
 30
0.0
 10
2.84748
 20
-1.0521200000000002
 30
0.0
 10
3.0354400000000004
 20
-1.0521200000000002
 30
0.0
 10
3.0049600000000001
 20
-1.2426200000000001
 30
0.0
 10
3.0049600000000001
 20
-1.2426200000000001
 30
0.0
 10
3.0049600000000001
 20
-1.2426200000000001
 30
0.0
 10
2.7230200000000004
 20
-1.3061200000000002
 30
0.0
 10
2.7230200000000004
 20
-1.3061200000000002
 30
0.0
 10
2.7230200000000004
 20
-1.3061200000000002
 30
0.0
 10
2.7230200000000004
 20
-1.3061200000000002
 30
0.0
 10
2.7154000000000003
 20
-1.0318000000000001
 30
0.0
 10
2.7154000000000003
 20
-1.0318000000000001
 30
0.0
  0
SPLINE
  5
72
100
AcDbEntity
  8
Ebene 1
 62
     7
100
AcDbSpline
210
0.0
220
0.0
230
1.0
 70
     1
 71
     3
 72
    36
 73
    32
 74
     0
 42
0.0000000001
 43
0.0000000001
 40
0.0
 40
0.0
 40
0.0
 40
0.0
 40
0.125
 40
0.125
 40
0.125
 40
0.125
 40
0.25
 40
0.25
 40
0.25
 40
0.25
 40
0.375
 40
0.375
 40
0.375
 40
0.375
 40
0.5
 40
0.5
 40
0.5
 40
0.5
 40
0.625
 40
0.625
 40
0.625
 40
0.625
 40
0.75
 40
0.75
 40
0.75
 40
0.75
 40
0.875
 40
0.875
 40
0.875
 40
0.875
 40
1.0
 40
1.0
 40
1.0
 40
1.0
 10
3.6196400000000004
 20
-1.07498
 30
0.0
 10
3.6780600000000003
 20
-1.1156200000000001
 30
0.0
 10
3.7390200000000005
 20
-1.1562600000000001
 30
0.0
 10
3.7314000000000003
 20
-1.2426200000000001
 30
0.0
 10
3.7314000000000003
 20
-1.2426200000000001
 30
0.0
 10
3.8838000000000004
 20
-1.1994400000000001
 30
0.0
 10
4.0336600000000002
 20
-1.3467600000000002
 30
0.0
 10
4.0362
 20
-1.4940800000000001
 30
0.0
 10
4.0362
 20
-1.4940800000000001
 30
0.0
 10
3.9066600000000005
 20
-1.6210800000000001
 30
0.0
 10
3.8660200000000002
 20
-1.3670800000000001
 30
0.0
 10
3.8050600000000001
 20
-1.3061200000000002
 30
0.0
 10
3.8050600000000001
 20
-1.3061200000000002
 30
0.0
 10
3.7314000000000003
 20
-1.3264400000000001
 30
0.0
 10
3.7822000000000005
 20
-1.4305800000000002
 30
0.0
 10
3.7822000000000005
 20
-1.4737600000000002
 30
0.0
 10
3.7822000000000005
 20
-1.4737600000000002
 30
0.0
 10
3.7187000000000001
 20
-1.4737600000000002
 30
0.0
 10
3.6577400000000004
 20
-1.4737600000000002
 30
0.0
 10
3.6044000000000005
 20
-1.5169400000000002
 30
0.0
 10
3.6044000000000005
 20
-1.5169400000000002
 30
0.0
 10
3.5332800000000004
 20
-1.4509000000000001
 30
0.0
 10
3.5866200000000004
 20
-1.4356600000000002
 30
0.0
 10
3.6272600000000002
 20
-1.3975600000000001
 30
0.0
 10
3.6272600000000002
 20
-1.3975600000000001
 30
0.0
 10
3.6501200000000003
 20
-1.37216
 30
0.0
 10
3.7060000000000004
 20
-1.3645400000000001
 30
0.0
 10
3.6831400000000003
 20
-1.3061200000000002
 30
0.0
 10
3.6831400000000003
 20
-1.3061200000000002
 30
0.0
 10
3.5536000000000003
 20
-1.3061200000000002
 30
0.0
 10
3.5180400000000005
 20
-1.1562600000000001
 30
0.0
 10
3.6196400000000004
 20
-1.07498
 30
0.0
  0
SPLINE
  5
73
100
AcDbEntity
  8
Ebene 1
 62
     7
100
AcDbSpline
210
0.0
220
0.0
230
1.0
 70
     1
 71
     3
 72
    32
 73
    28
 74
     0
 42
0.0000000001
 43
0.0000000001
 40
0.0
 40
0.0
 40
0.0
 40
0.0
 40
0.1428571428571429
 40
0.1428571428571429
 40
0.1428571428571429
 40
0.1428571428571429
 40
0.2857142857142857
 40
0.2857142857142857
 40
0.2857142857142857
 40
0.2857142857142857
 40
0.4285714285714286
 40
0.4285714285714286
 40
0.4285714285714286
 40
0.4285714285714286
 40
0.5714285714285714
 40
0.5714285714285714
 40
0.5714285714285714
 40
0.5714285714285714
 40
0.7142857142857142
 40
0.7142857142857142
 40
0.7142857142857142
 40
0.7142857142857142
 40
0.857142857142857
 40
0.857142857142857
 40
0.857142857142857
 40
0.857142857142857
 40
1.0
 40
1.0
 40
1.0
 40
1.0
 10
0.65546
 20
-1.1384800000000002
 30
0.0
 10
0.8789800000000001
 20
-1.2223000000000002
 30
0.0
 10
1.18632
 20
-1.5169400000000002
 30
0.0
 10
0.8739000000000001
 20
-1.6414000000000002
 30
0.0
 10
0.8739000000000001
 20
-1.6414000000000002
 30
0.0
 10
0.8739000000000001
 20
-1.6414000000000002
 30
0.0
 10
0.9069200000000001
 20
-1.7455400000000001
 30
0.0
 10
0.9069200000000001
 20
-1.7455400000000001
 30
0.0
 10
0.9069200000000001
 20
-1.7455400000000001
 30
0.0
 10
0.72404
 20
-2.01986
 30
0.0
 10
0.4294000000000001
 20
-2.3780000000000001
 30
0.0
 10
0.0738
 20
-2.2916400000000001
 30
0.0
 10
0.0738
 20
-2.2916400000000001
 30
0.0
 10
0.0738
 20
-2.2916400000000001
 30
0.0
 10
-0.11415
 20
-1.9131800000000001
 30
0.0
 10
-0.11415
 20
-1.9131800000000001
 30
0.0
 10
-0.11415
 20
-1.9131800000000001
 30
0.0
 10
-0.11415
 20
-1.9131800000000001
 30
0.0
 10
0.53608
 20
-1.3061200000000002
 30
0.0
 10
0.53608
 20
-1.3061200000000002
 30
0.0
 10
0.53608
 20
-1.3061200000000002
 30
0.0
 10
0.53608
 20
-1.3061200000000002
 30
0.0
 10
0.7342000000000001
 20
-1.3467600000000002
 30
0.0
 10
0.7342000000000001
 20
-1.3467600000000002
 30
0.0
 10
0.7342000000000001
 20
-1.3467600000000002
 30
0.0
 10
0.7926200000000001
 20
-1.2426200000000001
 30
0.0
 10
0.6021200000000001
 20
-1.2223000000000002
 30
0.0
 10
0.65546
 20
-1.1384800000000002
 30
0.0
  0
SPLINE
  5
74
100
AcDbEntity
  8
Ebene 1
 62
     7
100
AcDbSpline
210
0.0
220
0.0
230
1.0
 70
     1
 71
     3
 72
    16
 73
    12
 74
     0
 42
0.0000000001
 43
0.0000000001
 40
0.0
 40
0.0
 40
0.0
 40
0.0
 40
0.3333333333333333
 40
0.3333333333333333
 40
0.3333333333333333
 40
0.3333333333333333
 40
0.6666666666666666
 40
0.6666666666666666
 40
0.6666666666666666
 40
0.6666666666666666
 40
1.0
 40
1.0
 40
1.0
 40
1.0
 10
-0.8151900000000001
 20
-1.3061200000000002
 30
0.0
 10
-0.6424700000000001
 20
-1.3467600000000002
 30
0.0
 10
-0.5408700000000001
 20
-1.5575800000000002
 30
0.0
 10
-0.4799100000000001
 20
-1.7049000000000001
 30
0.0
 10
-0.4799100000000001
 20
-1.7049000000000001
 30
0.0
 10
-0.6475500000000001
 20
-1.6414000000000002
 30
0.0
 10
-0.7999500000000001
 20
-1.4737600000000002
 30
0.0
 10
-0.8913900000000001
 20
-1.3264400000000001
 30
0.0
 10
-0.8913900000000001
 20
-1.3264400000000001
 30
0.0
 10
-0.8913900000000001
 20
-1.3264400000000001
 30
0.0
 10
-0.8151900000000001
 20
-1.3061200000000002
 30
0.0
 10
-0.8151900000000001
 20
-1.3061200000000002
 30
0.0
  0
SPLINE
  5
75
100
AcDbEntity
  8
Ebene 1
 62
     7
100
AcDbSpline
210
0.0
220
0.0
230
1.0
 70
     1
 71
     3
 72
    12
 73
     8
 74
     0
 42
0.0000000001
 43
0.0000000001
 40
0.0
 40
0.0
 40
0.0
 40
0.0
 40
0.5
 40
0.5
 40
0.5
 40
0.5
 40
1.0
 40
1.0
 40
1.0
 40
1.0
 10
2.8627200000000004
 20
-1.3467600000000002
 30
0.0
 10
3.0456000000000003
 20
-1.3467600000000002
 30
0.0
 10
2.8805000000000001
 20
-1.5982200000000002
 30
0.0
 10
2.7789000000000001
 20
-1.5982200000000002
 30
0.0
 10
2.7789000000000001
 20
-1.5982200000000002
 30
0.0
 10
2.6519000000000004
 20
-1.5347200000000001
 30
0.0
 10
2.7916000000000003
 20
-1.3899400000000002
 30
0.0
 10
2.8627200000000004
 20
-1.3467600000000002
 30
0.0
  0
SPLINE
  5
76
100
AcDbEntity
  8
Ebene 1
 62
     7
100
AcDbSpline
210
0.0
220
0.0
230
1.0
 70
     1
 71
     3
 72
    12
 73
     8
 74
     0
 42
0.0000000001
 43
0.0000000001
 40
0.0
 40
0.0
 40
0.0
 40
0.0
 40
0.5
 40
0.5
 40
0.5
 40
0.5
 40
1.0
 40
1.0
 40
1.0
 40
1.0
 10
4.2927400000000002
 20
-1.3670800000000001
 30
0.0
 10
4.3638600000000007
 20
-1.3467600000000002
 30
0.0
 10
4.3740200000000007
 20
-1.4305800000000002
 30
0.0
 10
4.37148
 20
-1.4940800000000001
 30
0.0
 10
4.37148
 20
-1.4940800000000001
 30
0.0
 10
4.28512
 20
-1.5169400000000002
 30
0.0
 10
4.2038400000000005
 20
-1.4305800000000002
 30
0.0
 10
4.2927400000000002
 20
-1.3670800000000001
 30
0.0
  0
SPLINE
  5
77
100
AcDbEntity
  8
Ebene 1
 62
     7
100
AcDbSpline
210
0.0
220
0.0
230
1.0
 70
     1
 71
     3
 72
    12
 73
     8
 74
     0
 42
0.0000000001
 43
0.0000000001
 40
0.0
 40
0.0
 40
0.0
 40
0.0
 40
0.5
 40
0.5
 40
0.5
 40
0.5
 40
1.0
 40
1.0
 40
1.0
 40
1.0
 10
3.2843600000000004
 20
-1.3899400000000002
 30
0.0
 10
3.5180400000000005
 20
-1.3264400000000001
 30
0.0
 10
3.5180400000000005
 20
-1.6642600000000001
 30
0.0
 10
3.3250000000000002
 20
-1.6845800000000002
 30
0.0
 10
3.3250000000000002
 20
-1.6845800000000002
 30
0.0
 10
3.1903800000000002
 20
-1.6414000000000002
 30
0.0
 10
3.1548200000000004
 20
-1.4737600000000002
 30
0.0
 10
3.2843600000000004
 20
-1.3899400000000002
 30
0.0
  0
SPLINE
  5
78
100
AcDbEntity
  8
Ebene 1
 62
     7
100
AcDbSpline
210
0.0
220
0.0
230
1.0
 70
     1
 71
     3
 72
    20
 73
    16
 74
     0
 42
0.0000000001
 43
0.0000000001
 40
0.0
 40
0.0
 40
0.0
 40
0.0
 40
0.25
 40
0.25
 40
0.25
 40
0.25
 40
0.5
 40
0.5
 40
0.5
 40
0.5
 40
0.75
 40
0.75
 40
0.75
 40
0.75
 40
1.0
 40
1.0
 40
1.0
 40
1.0
 10
1.2650600000000001
 20
-1.4534400000000001
 30
0.0
 10
1.2650600000000001
 20
-1.4534400000000001
 30
0.0
 10
1.4758800000000001
 20
-1.5575800000000002
 30
0.0
 10
1.4758800000000001
 20
-1.5575800000000002
 30
0.0
 10
1.4758800000000001
 20
-1.5575800000000002
 30
0.0
 10
1.4758800000000001
 20
-1.5575800000000002
 30
0.0
 10
1.3666600000000002
 20
-1.8319000000000001
 30
0.0
 10
1.3666600000000002
 20
-1.8319000000000001
 30
0.0
 10
1.3666600000000002
 20
-1.8319000000000001
 30
0.0
 10
1.3666600000000002
 20
-1.8319000000000001
 30
0.0
 10
1.3031600000000001
 20
-1.7684000000000002
 30
0.0
 10
1.3031600000000001
 20
-1.7684000000000002
 30
0.0
 10
1.3031600000000001
 20
-1.7684000000000002
 30
0.0
 10
1.02884
 20
-1.8090400000000002
 30
0.0
 10
1.1609200000000002
 20
-1.5575800000000002
 30
0.0
 10
1.2650600000000001
 20
-1.4534400000000001
 30
0.0
  0
SPLINE
  5
79
100
AcDbEntity
  8
Ebene 1
 62
     7
100
AcDbSpline
210
0.0
220
0.0
230
1.0
 70
     1
 71
     3
 72
    16
 73
    12
 74
     0
 42
0.0000000001
 43
0.0000000001
 40
0.0
 40
0.0
 40
0.0
 40
0.0
 40
0.3333333333333333
 40
0.3333333333333333
 40
0.3333333333333333
 40
0.3333333333333333
 40
0.6666666666666666
 40
0.6666666666666666
 40
0.6666666666666666
 40
0.6666666666666666
 40
1.0
 40
1.0
 40
1.0
 40
1.0
 10
3.6831400000000003
 20
-1.6210800000000001
 30
0.0
 10
3.7542600000000004
 20
-1.6210800000000001
 30
0.0
 10
3.8406200000000004
 20
-1.6210800000000001
 30
0.0
 10
3.8584000000000005
 20
-1.7049000000000001
 30
0.0
 10
3.8584000000000005
 20
-1.7049000000000001
 30
0.0
 10
4.0235000000000003
 20
-1.7252200000000002
 30
0.0
 10
3.9854000000000003
 20
-1.9131800000000001
 30
0.0
 10
3.8685600000000004
 20
-1.9766800000000002
 30
0.0
 10
3.8685600000000004
 20
-1.9766800000000002
 30
0.0
 10
3.6425000000000005
 20
-2.1036800000000002
 30
0.0
 10
3.4875600000000002
 20
-1.7455400000000001
 30
0.0
 10
3.6831400000000003
 20
-1.6210800000000001
 30
0.0
  0
SPLINE
  5
7A
100
AcDbEntity
  8
Ebene 1
 62
     7
100
AcDbSpline
210
0.0
220
0.0
230
1.0
 70
     1
 71
     3
 72
    16
 73
    12
 74
     0
 42
0.0000000001
 43
0.0000000001
 40
0.0
 40
0.0
 40
0.0
 40
0.0
 40
0.3333333333333333
 40
0.3333333333333333
 40
0.3333333333333333
 40
0.3333333333333333
 40
0.6666666666666666
 40
0.6666666666666666
 40
0.6666666666666666
 40
0.6666666666666666
 40
1.0
 40
1.0
 40
1.0
 40
1.0
 10
-0.4367300000000001
 20
-1.9766800000000002
 30
0.0
 10
-0.35037
 20
-2.0401800000000003
 30
0.0
 10
-0.21575
 20
-2.1468600000000002
 30
0.0
 10
-0.3021100000000001
 20
-2.2510000000000003
 30
0.0
 10
-0.3021100000000001
 20
-2.2510000000000003
 30
0.0
 10
-0.26401
 20
-2.3145000000000002
 30
0.0
 10
-0.10907
 20
-2.3780000000000001
 30
0.0
 10
-0.18781
 20
-2.4618200000000003
 30
0.0
 10
-0.18781
 20
-2.4618200000000003
 30
0.0
 10
-0.34529
 20
-2.3780000000000001
 30
0.0
 10
-0.36053
 20
-2.1240000000000001
 30
0.0
 10
-0.4367300000000001
 20
-1.9766800000000002
 30
0.0
  0
SPLINE
  5
7B
100
AcDbEntity
  8
Ebene 1
100
AcDbSpline
210
0.0
220
0.0
230
1.0
 70
     1
 71
     3
 72
    24
 73
    20
 74
     0
 42
0.0000000001
 43
0.0000000001
 40
0.0
 40
0.0
 40
0.0
 40
0.0
 40
0.2
 40
0.2
 40
0.2
 40
0.2
 40
0.4
 40
0.4
 40
0.4
 40
0.4
 40
0.6000000000000001
 40
0.6000000000000001
 40
0.6000000000000001
 40
0.6000000000000001
 40
0.8
 40
0.8
 40
0.8
 40
0.8
 40
1.0
 40
1.0
 40
1.0
 40
1.0
 10
0.67832
 20
-2.5888200000000001
 30
0.0
 10
0.7113400000000001
 20
-2.5888200000000001
 30
0.0
 10
0.7494400000000001
 20
-2.60914
 30
0.0
 10
0.7392800000000001
 20
-2.65232
 30
0.0
 10
0.7392800000000001
 20
-2.65232
 30
0.0
 10
0.48782
 20
-2.9672800000000001
 30
0.0
 10
0.42432
 20
-3.3660600000000005
 30
0.0
 10
0.29478
 20
-3.7445200000000005
 30
0.0
 10
0.29478
 20
-3.7445200000000005
 30
0.0
 10
0.25922
 20
-3.7648400000000004
 30
0.0
 10
0.22874
 20
-3.8283400000000003
 30
0.0
 10
0.17286
 20
-3.8054800000000002
 30
0.0
 10
0.17286
 20
-3.8054800000000002
 30
0.0
 10
0.08904
 20
-3.6810200000000002
 30
0.0
 10
0.15508
 20
-3.4905200000000001
 30
0.0
 10
0.06618
 20
-3.3660600000000005
 30
0.0
 10
0.06618
 20
-3.3660600000000005
 30
0.0
 10
0.23128
 20
-3.0917400000000002
 30
0.0
 10
0.4319400000000001
 20
-2.7971000000000004
 30
0.0
 10
0.67832
 20
-2.5888200000000001
 30
0.0
  0
SPLINE
  5
7C
100
AcDbEntity
  8
Ebene 1
 62
     7
100
AcDbSpline
210
0.0
220
0.0
230
1.0
 70
     1
 71
     3
 72
    16
 73
    12
 74
     0
 42
0.0000000001
 43
0.0000000001
 40
0.0
 40
0.0
 40
0.0
 40
0.0
 40
0.3333333333333333
 40
0.3333333333333333
 40
0.3333333333333333
 40
0.3333333333333333
 40
0.6666666666666666
 40
0.6666666666666666
 40
0.6666666666666666
 40
0.6666666666666666
 40
1.0
 40
1.0
 40
1.0
 40
1.0
 10
4.3562400000000006
 20
-3.3228800000000001
 30
0.0
 10
4.3486200000000004
 20
-3.9553400000000005
 30
0.0
 10
4.28512
 20
-4.6894
 30
0.0
 10
3.9828600000000005
 20
-5.2583600000000006
 30
0.0
 10
3.9828600000000005
 20
-5.2583600000000006
 30
0.0
 10
3.9828600000000005
 20
-5.2583600000000006
 30
0.0
 10
4.2292400000000008
 20
-4.1229800000000001
 30
0.0
 10
4.2292400000000008
 20
-4.1229800000000001
 30
0.0
 10
4.2292400000000008
 20
-4.1229800000000001
 30
0.0
 10
4.2038400000000005
 20
-3.8283400000000003
 30
0.0
 10
4.25718
 20
-3.5768800000000005
 30
0.0
 10
4.3562400000000006
 20
-3.3228800000000001
 30
0.0
  0
SPLINE
  5
7D
100
AcDbEntity
  8
Ebene 1
100
AcDbSpline
210
0.0
220
0.0
230
1.0
 70
     1
 71
     3
 72
    28
 73
    24
 74
     0
 42
0.0000000001
 43
0.0000000001
 40
0.0
 40
0.0
 40
0.0
 40
0.0
 40
0.1666666666666667
 40
0.1666666666666667
 40
0.1666666666666667
 40
0.1666666666666667
 40
0.3333333333333333
 40
0.3333333333333333
 40
0.3333333333333333
 40
0.3333333333333333
 40
0.5
 40
0.5
 40
0.5
 40
0.5
 40
0.6666666666666666
 40
0.6666666666666666
 40
0.6666666666666666
 40
0.6666666666666666
 40
0.8333333333333333
 40
0.8333333333333333
 40
0.8333333333333333
 40
0.8333333333333333
 40
1.0
 40
1.0
 40
1.0
 40
1.0
 10
3.05322
 20
-3.4702000000000002
 30
0.0
 10
3.3427800000000003
 20
-3.3660600000000005
 30
0.0
 10
3.5053400000000003
 20
-3.8054800000000002
 30
0.0
 10
3.1853000000000002
 20
-3.8486600000000002
 30
0.0
 10
3.1853000000000002
 20
-3.8486600000000002
 30
0.0
 10
3.1853000000000002
 20
-3.8486600000000002
 30
0.0
 10
3.1573600000000002
 20
-3.8054800000000002
 30
0.0
 10
3.1573600000000002
 20
-3.8054800000000002
 30
0.0
 10
3.1573600000000002
 20
-3.8054800000000002
 30
0.0
 10
3.1573600000000002
 20
-3.8054800000000002
 30
0.0
 10
3.2462600000000004
 20
-3.7242000000000002
 30
0.0
 10
3.2462600000000004
 20
-3.7242000000000002
 30
0.0
 10
3.2462600000000004
 20
-3.7242000000000002
 30
0.0
 10
3.2945200000000003
 20
-3.6607000000000003
 30
0.0
 10
3.2462600000000004
 20
-3.5972000000000004
 30
0.0
 10
3.1776800000000001
 20
-3.5768800000000005
 30
0.0
 10
3.1776800000000001
 20
-3.5768800000000005
 30
0.0
 10
3.0405200000000003
 20
-3.5337000000000005
 30
0.0
 10
3.0786200000000004
 20
-3.7013400000000005
 30
0.0
 10
2.9973400000000003
 20
-3.7445200000000005
 30
0.0
 10
2.9973400000000003
 20
-3.7445200000000005
 30
0.0
 10
2.8906600000000005
 20
-3.6607000000000003
 30
0.0
 10
2.9897200000000002
 20
-3.5337000000000005
 30
0.0
 10
3.05322
 20
-3.4702000000000002
 30
0.0
  0
SPLINE
  5
7E
100
AcDbEntity
  8
Ebene 1
100
AcDbSpline
210
0.0
220
0.0
230
1.0
 70
     1
 71
     3
 72
    12
 73
     8
 74
     0
 42
0.0000000001
 43
0.0000000001
 40
0.0
 40
0.0
 40
0.0
 40
0.0
 40
0.5
 40
0.5
 40
0.5
 40
0.5
 40
1.0
 40
1.0
 40
1.0
 40
1.0
 10
2.7154000000000003
 20
-3.6607000000000003
 30
0.0
 10
2.8830400000000003
 20
-3.7013400000000005
 30
0.0
 10
2.8093800000000004
 20
-3.9121600000000005
 30
0.0
 10
2.67476
 20
-3.9324800000000004
 30
0.0
 10
2.67476
 20
-3.9324800000000004
 30
0.0
 10
2.5122
 20
-3.8918400000000002
 30
0.0
 10
2.5985600000000004
 20
-3.6810200000000002
 30
0.0
 10
2.7154000000000003
 20
-3.6607000000000003
 30
0.0
  0
SPLINE
  5
7F
100
AcDbEntity
  8
Ebene 1
 62
     7
100
AcDbSpline
210
0.0
220
0.0
230
1.0
 70
     1
 71
     3
 72
    16
 73
    12
 74
     0
 42
0.0000000001
 43
0.0000000001
 40
0.0
 40
0.0
 40
0.0
 40
0.0
 40
0.3333333333333333
 40
0.3333333333333333
 40
0.3333333333333333
 40
0.3333333333333333
 40
0.6666666666666666
 40
0.6666666666666666
 40
0.6666666666666666
 40
0.6666666666666666
 40
1.0
 40
1.0
 40
1.0
 40
1.0
 10
2.0626200000000003
 20
-3.7242000000000002
 30
0.0
 10
2.0626200000000003
 20
-3.7242000000000002
 30
0.0
 10
2.12358
 20
-3.7242000000000002
 30
0.0
 10
2.12358
 20
-3.7242000000000002
 30
0.0
 10
2.12358
 20
-3.7242000000000002
 30
0.0
 10
1.9788000000000001
 20
-3.8689800000000005
 30
0.0
 10
1.7679800000000001
 20
-3.9553400000000005
 30
0.0
 10
1.5876400000000002
 20
-4.0594800000000006
 30
0.0
 10
1.5876400000000002
 20
-4.0594800000000006
 30
0.0
 10
1.6917800000000001
 20
-3.9121600000000005
 30
0.0
 10
1.8797400000000002
 20
-3.7445200000000005
 30
0.0
 10
2.0626200000000003
 20
-3.7242000000000002
 30
0.0
  0
SPLINE
  5
80
100
AcDbEntity
  8
Ebene 1
 62
     7
100
AcDbSpline
210
0.0
220
0.0
230
1.0
 70
     1
 71
     3
 72
    24
 73
    20
 74
     0
 42
0.0000000001
 43
0.0000000001
 40
0.0
 40
0.0
 40
0.0
 40
0.0
 40
0.2
 40
0.2
 40
0.2
 40
0.2
 40
0.4
 40
0.4
 40
0.4
 40
0.4
 40
0.6000000000000001
 40
0.6000000000000001
 40
0.6000000000000001
 40
0.6000000000000001
 40
0.8
 40
0.8
 40
0.8
 40
0.8
 40
1.0
 40
1.0
 40
1.0
 40
1.0
 10
-3.1469100000000001
 20
-3.8283400000000003
 30
0.0
 10
-2.5957300000000001
 20
-3.8486600000000002
 30
0.0
 10
-2.19441
 20
-4.3338000000000001
 30
0.0
 10
-1.7422900000000001
 20
-4.5852600000000008
 30
0.0
 10
-1.7422900000000001
 20
-4.5852600000000008
 30
0.0
 10
-2.1994900000000004
 20
-4.6055800000000007
 30
0.0
 10
-2.6008100000000001
 20
-4.3947600000000007
 30
0.0
 10
-3.0148300000000003
 20
-4.2703000000000007
 30
0.0
 10
-3.0148300000000003
 20
-4.2703000000000007
 30
0.0
 10
-3.0884900000000002
 20
-4.1433
 30
0.0
 10
-2.8090900000000003
 20
-4.1661600000000005
 30
0.0
 10
-2.7938500000000004
 20
-4.0366200000000001
 30
0.0
 10
-2.7938500000000004
 20
-4.0366200000000001
 30
0.0
 10
-2.9259300000000001
 20
-3.8918400000000002
 30
0.0
 10
-3.1672300000000004
 20
-3.9553400000000005
 30
0.0
 10
-3.3501100000000004
 20
-3.9553400000000005
 30
0.0
 10
-3.3501100000000004
 20
-3.9553400000000005
 30
0.0
 10
-3.3501100000000004
 20
-3.8486600000000002
 30
0.0
 10
-3.1926300000000003
 20
-3.8689800000000005
 30
0.0
 10
-3.1469100000000001
 20
-3.8283400000000003
 30
0.0
  0
SPLINE
  5
81
100
AcDbEntity
  8
Ebene 1
 62
     7
100
AcDbSpline
210
0.0
220
0.0
230
1.0
 70
     1
 71
     3
 72
    32
 73
    28
 74
     0
 42
0.0000000001
 43
0.0000000001
 40
0.0
 40
0.0
 40
0.0
 40
0.0
 40
0.1428571428571429
 40
0.1428571428571429
 40
0.1428571428571429
 40
0.1428571428571429
 40
0.2857142857142857
 40
0.2857142857142857
 40
0.2857142857142857
 40
0.2857142857142857
 40
0.4285714285714286
 40
0.4285714285714286
 40
0.4285714285714286
 40
0.4285714285714286
 40
0.5714285714285714
 40
0.5714285714285714
 40
0.5714285714285714
 40
0.5714285714285714
 40
0.7142857142857142
 40
0.7142857142857142
 40
0.7142857142857142
 40
0.7142857142857142
 40
0.857142857142857
 40
0.857142857142857
 40
0.857142857142857
 40
0.857142857142857
 40
1.0
 40
1.0
 40
1.0
 40
1.0
 10
-3.4821900000000001
 20
-4.0163000000000002
 30
0.0
 10
-3.4694900000000004
 20
-4.0163000000000002
 30
0.0
 10
-3.4364700000000004
 20
-4.0163000000000002
 30
0.0
 10
-3.4415500000000003
 20
-4.0366200000000001
 30
0.0
 10
-3.4415500000000003
 20
-4.0366200000000001
 30
0.0
 10
-3.6879300000000002
 20
-4.3947600000000007
 30
0.0
 10
-4.1171899999999999
 20
-4.5852600000000008
 30
0.0
 10
-4.5083500000000001
 20
-4.6055800000000007
 30
0.0
 10
-4.5083500000000001
 20
-4.6055800000000007
 30
0.0
 10
-4.5896300000000005
 20
-4.7122600000000006
 30
0.0
 10
-4.5235900000000004
 20
-4.8570400000000005
 30
0.0
 10
-4.6658300000000006
 20
-4.9408600000000007
 30
0.0
 10
-4.6658300000000006
 20
-4.9408600000000007
 30
0.0
 10
-4.7318700000000007
 20
-4.9840400000000002
 30
0.0
 10
-4.7979100000000008
 20
-5.0043600000000001
 30
0.0
 10
-4.8436300000000001
 20
-4.9205400000000008
 30
0.0
 10
-4.8436300000000001
 20
-4.9205400000000008
 30
0.0
 10
-4.8969700000000005
 20
-4.6894
 30
0.0
 10
-4.60487
 20
-4.3947600000000007
 30
0.0
 10
-4.3711900000000004
 20
-4.5217600000000004
 30
0.0
 10
-4.3711900000000004
 20
-4.5217600000000004
 30
0.0
 10
-4.1959300000000006
 20
-4.4379400000000002
 30
0.0
 10
-3.8809700000000005
 20
-4.1026600000000002
 30
0.0
 10
-3.8403300000000002
 20
-4.3109400000000004
 30
0.0
 10
-3.8403300000000002
 20
-4.3109400000000004
 30
0.0
 10
-3.7234900000000004
 20
-4.2068000000000003
 30
0.0
 10
-3.6091900000000003
 20
-4.1026600000000002
 30
0.0
 10
-3.4821900000000001
 20
-4.0163000000000002
 30
0.0
  0
SPLINE
  5
82
100
AcDbEntity
  8
Ebene 1
100
AcDbSpline
210
0.0
220
0.0
230
1.0
 70
     1
 71
     3
 72
    28
 73
    24
 74
     0
 42
0.0000000001
 43
0.0000000001
 40
0.0
 40
0.0
 40
0.0
 40
0.0
 40
0.1666666666666667
 40
0.1666666666666667
 40
0.1666666666666667
 40
0.1666666666666667
 40
0.3333333333333333
 40
0.3333333333333333
 40
0.3333333333333333
 40
0.3333333333333333
 40
0.5
 40
0.5
 40
0.5
 40
0.5
 40
0.6666666666666666
 40
0.6666666666666666
 40
0.6666666666666666
 40
0.6666666666666666
 40
0.8333333333333333
 40
0.8333333333333333
 40
0.8333333333333333
 40
0.8333333333333333
 40
1.0
 40
1.0
 40
1.0
 40
1.0
 10
-3.1672300000000004
 20
-4.47858
 30
0.0
 10
-2.9564100000000004
 20
-4.4150800000000006
 30
0.0
 10
-2.8421100000000004
 20
-4.6259000000000006
 30
0.0
 10
-2.6643100000000004
 20
-4.6690800000000001
 30
0.0
 10
-2.6643100000000004
 20
-4.6690800000000001
 30
0.0
 10
-2.6262100000000004
 20
-4.7122600000000006
 30
0.0
 10
-2.4661900000000001
 20
-4.6894
 30
0.0
 10
-2.5398500000000004
 20
-4.7732200000000002
 30
0.0
 10
-2.5398500000000004
 20
-4.7732200000000002
 30
0.0
 10
-2.5398500000000004
 20
-4.7732200000000002
 30
0.0
 10
-2.6414500000000003
 20
-4.7732200000000002
 30
0.0
 10
-2.6414500000000003
 20
-4.7732200000000002
 30
0.0
 10
-2.6414500000000003
 20
-4.7732200000000002
 30
0.0
 10
-2.9995900000000004
 20
-4.5217600000000004
 30
0.0
 10
-3.4009100000000001
 20
-4.7529000000000003
 30
0.0
 10
-3.7285700000000004
 20
-4.9205400000000008
 30
0.0
 10
-3.7285700000000004
 20
-4.9205400000000008
 30
0.0
 10
-3.7869900000000003
 20
-4.7935400000000001
 30
0.0
 10
-3.5634700000000001
 20
-4.7325800000000005
 30
0.0
 10
-3.5660100000000003
 20
-4.5852600000000008
 30
0.0
 10
-3.5660100000000003
 20
-4.5852600000000008
 30
0.0
 10
-3.4821900000000001
 20
-4.4379400000000002
 30
0.0
 10
-3.2662900000000001
 20
-4.6259000000000006
 30
0.0
 10
-3.1672300000000004
 20
-4.47858
 30
0.0
  0
SPLINE
  5
83
100
AcDbEntity
  8
Ebene 1
100
AcDbSpline
210
0.0
220
0.0
230
1.0
 70
     1
 71
     3
 72
    16
 73
    12
 74
     0
 42
0.0000000001
 43
0.0000000001
 40
0.0
 40
0.0
 40
0.0
 40
0.0
 40
0.3333333333333333
 40
0.3333333333333333
 40
0.3333333333333333
 40
0.3333333333333333
 40
0.6666666666666666
 40
0.6666666666666666
 40
0.6666666666666666
 40
0.6666666666666666
 40
1.0
 40
1.0
 40
1.0
 40
1.0
 10
-1.1504700000000001
 20
-4.5446200000000001
 30
0.0
 10
-0.41133
 20
-4.6259000000000006
 30
0.0
 10
0.34812
 20
-4.6055800000000007
 30
0.0
 10
1.0745600000000002
 20
-4.6259000000000006
 30
0.0
 10
1.0745600000000002
 20
-4.6259000000000006
 30
0.0
 10
0.6249800000000001
 20
-4.7935400000000001
 30
0.0
 10
0.10936
 20
-4.8367200000000006
 30
0.0
 10
-0.37323
 20
-4.9205400000000008
 30
0.0
 10
-0.37323
 20
-4.9205400000000008
 30
0.0
 10
-0.5815100000000001
 20
-4.7122600000000006
 30
0.0
 10
-0.99553
 20
-4.7122600000000006
 30
0.0
 10
-1.1504700000000001
 20
-4.5446200000000001
 30
0.0
  0
SPLINE
  5
84
100
AcDbEntity
  8
Ebene 1
100
AcDbSpline
210
0.0
220
0.0
230
1.0
 70
     1
 71
     3
 72
    20
 73
    16
 74
     0
 42
0.0000000001
 43
0.0000000001
 40
0.0
 40
0.0
 40
0.0
 40
0.0
 40
0.25
 40
0.25
 40
0.25
 40
0.25
 40
0.5
 40
0.5
 40
0.5
 40
0.5
 40
0.75
 40
0.75
 40
0.75
 40
0.75
 40
1.0
 40
1.0
 40
1.0
 40
1.0
 10
3.0303600000000004
 20
-4.8367200000000006
 30
0.0
 10
3.2361000000000004
 20
-4.8570400000000005
 30
0.0
 10
3.05322
 20
-4.9637200000000004
 30
0.0
 10
2.9897200000000002
 20
-5.0272200000000007
 30
0.0
 10
2.9897200000000002
 20
-5.0272200000000007
 30
0.0
 10
3.0049600000000001
 20
-5.0907200000000001
 30
0.0
 10
3.1014800000000005
 20
-5.0678600000000005
 30
0.0
 10
3.1421200000000002
 20
-5.0475400000000006
 30
0.0
 10
3.1421200000000002
 20
-5.0475400000000006
 30
0.0
 10
3.1421200000000002
 20
-5.0475400000000006
 30
0.0
 10
3.2361000000000004
 20
-5.0475400000000006
 30
0.0
 10
3.2361000000000004
 20
-5.0475400000000006
 30
0.0
 10
3.2361000000000004
 20
-5.0475400000000006
 30
0.0
 10
3.1268800000000003
 20
-5.4056800000000003
 30
0.0
 10
2.6849200000000004
 20
-4.9840400000000002
 30
0.0
 10
3.0303600000000004
 20
-4.8367200000000006
 30
0.0
  0
SPLINE
  5
85
100
AcDbEntity
  8
Ebene 1
 62
     7
100
AcDbSpline
210
0.0
220
0.0
230
1.0
 70
     1
 71
     3
 72
    12
 73
     8
 74
     0
 42
0.0000000001
 43
0.0000000001
 40
0.0
 40
0.0
 40
0.0
 40
0.0
 40
0.5
 40
0.5
 40
0.5
 40
0.5
 40
1.0
 40
1.0
 40
1.0
 40
1.0
 10
-5.0163500000000001
 20
-4.9408600000000007
 30
0.0
 10
-4.82585
 20
-4.9408600000000007
 30
0.0
 10
-5.2601900000000006
 20
-5.2151800000000001
 30
0.0
 10
-5.0646100000000001
 20
-5.0272200000000007
 30
0.0
 10
-5.0646100000000001
 20
-5.0272200000000007
 30
0.0
 10
-5.0646100000000001
 20
-5.0272200000000007
 30
0.0
 10
-5.0163500000000001
 20
-4.9408600000000007
 30
0.0
 10
-5.0163500000000001
 20
-4.9408600000000007
 30
0.0
  0
SPLINE
  5
86
100
AcDbEntity
  8
Ebene 1
100
AcDbSpline
210
0.0
220
0.0
230
1.0
 70
     1
 71
     3
 72
    24
 73
    20
 74
     0
 42
0.0000000001
 43
0.0000000001
 40
0.0
 40
0.0
 40
0.0
 40
0.0
 40
0.2
 40
0.2
 40
0.2
 40
0.2
 40
0.4
 40
0.4
 40
0.4
 40
0.4
 40
0.6000000000000001
 40
0.6000000000000001
 40
0.6000000000000001
 40
0.6000000000000001
 40
0.8
 40
0.8
 40
0.8
 40
0.8
 40
1.0
 40
1.0
 40
1.0
 40
1.0
 10
-3.0427700000000004
 20
-5.1313600000000008
 30
0.0
 10
-2.9005300000000003
 20
-5.1313600000000008
 30
0.0
 10
-2.7532100000000002
 20
-5.11104
 30
0.0
 10
-2.6211300000000004
 20
-5.1516800000000007
 30
0.0
 10
-2.6211300000000004
 20
-5.1516800000000007
 30
0.0
 10
-2.5576300000000001
 20
-5.1516800000000007
 30
0.0
 10
-2.40523
 20
-5.11104
 30
0.0
 10
-2.4357100000000003
 20
-5.2355
 30
0.0
 10
-2.4357100000000003
 20
-5.2355
 30
0.0
 10
-2.4357100000000003
 20
-5.2355
 30
0.0
 10
-2.5373100000000002
 20
-5.2786800000000005
 30
0.0
 10
-2.5373100000000002
 20
-5.2786800000000005
 30
0.0
 10
-2.5373100000000002
 20
-5.2786800000000005
 30
0.0
 10
-2.8421100000000004
 20
-5.1516800000000007
 30
0.0
 10
-3.0529300000000004
 20
-5.3828200000000006
 30
0.0
 10
-3.2866100000000005
 20
-5.5301400000000003
 30
0.0
 10
-3.2866100000000005
 20
-5.5301400000000003
 30
0.0
 10
-3.2866100000000005
 20
-5.5301400000000003
 30
0.0
 10
-3.0427700000000004
 20
-5.1313600000000008
 30
0.0
 10
-3.0427700000000004
 20
-5.1313600000000008
 30
0.0
  0
SPLINE
  5
87
100
AcDbEntity
  8
Ebene 1
 62
     7
100
AcDbSpline
210
0.0
220
0.0
230
1.0
 70
     1
 71
     3
 72
    12
 73
     8
 74
     0
 42
0.0000000001
 43
0.0000000001
 40
0.0
 40
0.0
 40
0.0
 40
0.0
 40
0.5
 40
0.5
 40
0.5
 40
0.5
 40
1.0
 40
1.0
 40
1.0
 40
1.0
 10
4.1022400000000001
 20
-5.3193200000000003
 30
0.0
 10
4.1860600000000003
 20
-5.3828200000000006
 30
0.0
 10
4.28512
 20
-5.3828200000000006
 30
0.0
 10
4.3943400000000006
 20
-5.3828200000000006
 30
0.0
 10
4.3943400000000006
 20
-5.3828200000000006
 30
0.0
 10
4.3384600000000004
 20
-5.4463200000000001
 30
0.0
 10
4.0641400000000001
 20
-5.4691800000000006
 30
0.0
 10
4.1022400000000001
 20
-5.3193200000000003
 30
0.0
  0
SPLINE
  5
88
100
AcDbEntity
  8
Ebene 1
 62
     7
100
AcDbSpline
210
0.0
220
0.0
230
1.0
 70
     1
 71
     3
 72
    20
 73
    16
 74
     0
 42
0.0000000001
 43
0.0000000001
 40
0.0
 40
0.0
 40
0.0
 40
0.0
 40
0.25
 40
0.25
 40
0.25
 40
0.25
 40
0.5
 40
0.5
 40
0.5
 40
0.5
 40
0.75
 40
0.75
 40
0.75
 40
0.75
 40
1.0
 40
1.0
 40
1.0
 40
1.0
 10
5.0699800000000002
 20
-5.3193200000000003
 30
0.0
 10
5.0852200000000005
 20
-5.3193200000000003
 30
0.0
 10
5.1157000000000004
 20
-5.3193200000000003
 30
0.0
 10
5.1131600000000006
 20
-5.3421800000000008
 30
0.0
 10
5.1131600000000006
 20
-5.3421800000000008
 30
0.0
 10
4.8998000000000008
 20
-5.5504600000000002
 30
0.0
 10
4.6026199999999999
 20
-5.6977800000000007
 30
0.0
 10
4.3410000000000002
 20
-5.7206400000000004
 30
0.0
 10
4.3410000000000002
 20
-5.7206400000000004
 30
0.0
 10
4.4273600000000002
 20
-5.6139600000000005
 30
0.0
 10
4.5442
 20
-5.4691800000000006
 30
0.0
 10
4.6915200000000006
 20
-5.4056800000000003
 30
0.0
 10
4.6915200000000006
 20
-5.4056800000000003
 30
0.0
 10
4.7982000000000005
 20
-5.5098200000000004
 30
0.0
 10
4.9709200000000004
 20
-5.4260000000000002
 30
0.0
 10
5.0699800000000002
 20
-5.3193200000000003
 30
0.0
  0
SPLINE
  5
89
100
AcDbEntity
  8
Ebene 1
 62
     7
100
AcDbSpline
210
0.0
220
0.0
230
1.0
 70
     1
 71
     3
 72
    16
 73
    12
 74
     0
 42
0.0000000001
 43
0.0000000001
 40
0.0
 40
0.0
 40
0.0
 40
0.0
 40
0.3333333333333333
 40
0.3333333333333333
 40
0.3333333333333333
 40
0.3333333333333333
 40
0.6666666666666666
 40
0.6666666666666666
 40
0.6666666666666666
 40
0.6666666666666666
 40
1.0
 40
1.0
 40
1.0
 40
1.0
 10
4.2927400000000002
 20
-5.5504600000000002
 30
0.0
 10
4.3130600000000001
 20
-5.5504600000000002
 30
0.0
 10
4.3206800000000003
 20
-5.5733200000000007
 30
0.0
 10
4.3105200000000004
 20
-5.5936400000000006
 30
0.0
 10
4.3105200000000004
 20
-5.5936400000000006
 30
0.0
 10
4.3105200000000004
 20
-5.5936400000000006
 30
0.0
 10
3.8990400000000003
 20
-5.7841400000000007
 30
0.0
 10
3.8990400000000003
 20
-5.7841400000000007
 30
0.0
 10
3.8990400000000003
 20
-5.7841400000000007
 30
0.0
 10
3.9117400000000004
 20
-5.5936400000000006
 30
0.0
 10
4.1860600000000003
 20
-5.6368200000000002
 30
0.0
 10
4.2927400000000002
 20
-5.5504600000000002
 30
0.0
  0
SPLINE
  5
8A
100
AcDbEntity
  8
Ebene 1
 62
     7
100
AcDbSpline
210
0.0
220
0.0
230
1.0
 70
     1
 71
     3
 72
    16
 73
    12
 74
     0
 42
0.0000000001
 43
0.0000000001
 40
0.0
 40
0.0
 40
0.0
 40
0.0
 40
0.3333333333333333
 40
0.3333333333333333
 40
0.3333333333333333
 40
0.3333333333333333
 40
0.6666666666666666
 40
0.6666666666666666
 40
0.6666666666666666
 40
0.6666666666666666
 40
1.0
 40
1.0
 40
1.0
 40
1.0
 10
-5.2703500000000005
 20
-6.0762400000000003
 30
0.0
 10
-5.2703500000000005
 20
-6.0762400000000003
 30
0.0
 10
-5.2322500000000005
 20
-6.0762400000000003
 30
0.0
 10
-5.2322500000000005
 20
-6.0762400000000003
 30
0.0
 10
-5.2322500000000005
 20
-6.0762400000000003
 30
0.0
 10
-5.2347900000000003
 20
-6.2667400000000004
 30
0.0
 10
-5.4176700000000002
 20
-6.4343800000000009
 30
0.0
 10
-5.4329100000000006
 20
-6.6248800000000001
 30
0.0
 10
-5.4329100000000006
 20
-6.6248800000000001
 30
0.0
 10
-5.49641
 20
-6.4343800000000009
 30
0.0
 10
-5.3871900000000004
 20
-6.2261000000000006
 30
0.0
 10
-5.2703500000000005
 20
-6.0762400000000003
 30
0.0
  0
SPLINE
  5
8B
100
AcDbEntity
  8
Ebene 1
 62
     7
100
AcDbSpline
210
0.0
220
0.0
230
1.0
 70
     1
 71
     3
 72
    12
 73
     8
 74
     0
 42
0.0000000001
 43
0.0000000001
 40
0.0
 40
0.0
 40
0.0
 40
0.0
 40
0.5
 40
0.5
 40
0.5
 40
0.5
 40
1.0
 40
1.0
 40
1.0
 40
1.0
 10
-4.3864300000000007
 20
-6.8331600000000003
 30
0.0
 10
-4.1324300000000003
 20
-6.9195200000000003
 30
0.0
 10
-4.5108900000000007
 20
-7.170980000000001
 30
0.0
 10
-4.3508700000000005
 20
-7.3386200000000006
 30
0.0
 10
-4.3508700000000005
 20
-7.3386200000000006
 30
0.0
 10
-4.5362900000000002
 20
-7.2751200000000003
 30
0.0
 10
-4.4854900000000004
 20
-6.960160000000001
 30
0.0
 10
-4.3864300000000007
 20
-6.8331600000000003
 30
0.0
  0
ENDSEC
  0
SECTION
  2
OBJECTS
  0
DICTIONARY
  5
19
100
AcDbDictionary
280
     0
281
     1
  3
ACAD_GROUP
350
1A
  3
ACAD_MLINESTYLE
350
1B
  3
ACAD_LAYOUT
350
1E
  3
ACAD_PLOTSETTINGS
350
22
  3
ACAD_PLOTSTYLENAME
350
1F
  3
ACAD_WIPEOUT_VARS
350
23
  0
DICTIONARY
  5
1A
102
{ACAD_REACTORS
330
19
102
}
100
AcDbDictionary
280
     0
281
     1
  0
DICTIONARY
  5
1B
102
{ACAD_REACTORS
330
19
102
}
100
AcDbDictionary
280
     0
281
     1
  3
Standard
350
1C
  0
MLINESTYLE
  5
1C
102
{ACAD_REACTORS
330
1B
102
}
100
AcDbMlineStyle
  2
Standard
 70
     0
  3

 62
     0
 51
90.0
 52
90.0
 71
     2
 49
0.5
 62
   256
  6
BYLAYER
 49
-0.5
 62
   256
  6
BYLAYER
  0
ACDBDICTIONARYWDFLT
  5
1F
102
{ACAD_REACTORS
330
19
102
}
100
AcDbDictionary
281
     1
  3
Normal
350
1D
100
AcDbDictionaryWithDefault
340
1D
  0
ACDBPLACEHOLDER
  5
1D
102
{ACAD_REACTORS
330
1F
102
}
  0
LAYOUT
  5
20
102
{ACAD_REACTORS
330
1E
102
}
100
AcDbPlotSettings
  1

  2

  4

  6

 40
0.0
 41
0.0
 42
0.0
 43
0.0
 44
0.0
 45
0.0
 46
0.0
 47
0.0
 48
0.0
 49
0.0
140
0.0
141
0.0
142
1.0
143
1.0
 70
  1024
 72
     0
 73
     0
 74
     0
  7

 75
     0
147
1.0
148
0.0
149
0.0
100
AcDbLayout
  1
Model
 70
     0
 71
     0
 10
0.0
 20
0.0
 11
0.0
 21
0.0
 12
0.0
 22
0.0
 32
0.0
 14
0.0
 24
0.0
 34
0.0
 15
0.0
 25
0.0
 35
0.0
146
0.0
 13
0.0
 23
0.0
 33
0.0
 16
0.0
 26
0.0
 36
0.0
 17
0.0
 27
0.0
 37
0.0
 76
     0
330
A
331
0
345
0
346
0
  0
LAYOUT
  5
21
102
{ACAD_REACTORS
330
1E
102
}
100
AcDbPlotSettings
  1

  2

  4

  6

 40
0.0
 41
0.0
 42
0.0
 43
0.0
 44
0.0
 45
0.0
 46
0.0
 47
0.0
 48
0.0
 49
0.0
140
0.0
141
0.0
142
1.0
143
1.0
 70
     0
 72
     0
 73
     0
 74
     0
  7

 75
     0
147
1.0
148
0.0
149
0.0
100
AcDbLayout
  1
Layout1
 70
     0
 71
     0
 10
0.0
 20
0.0
 11
0.0
 21
0.0
 12
0.0
 22
0.0
 32
0.0
 14
0.0
 24
0.0
 34
0.0
 15
0.0
 25
0.0
 35
0.0
146
0.0
 13
0.0
 23
0.0
 33
0.0
 16
0.0
 26
0.0
 36
0.0
 17
0.0
 27
0.0
 37
0.0
 76
     0
330
B
331
0
345
0
346
0
  0
DICTIONARY
  5
1E
102
{ACAD_REACTORS
330
19
102
}
100
AcDbDictionary
280
     0
281
     1
  3
Layout1
350
21
  3
Model
350
20
  0
DICTIONARY
  5
22
102
{ACAD_REACTORS
330
19
102
}
100
AcDbDictionary
280
     0
281
     1
  0
WIPEOUTVARIABLES
  5
23
100
AcDbWipeoutVariables
 70
     1
  0
ENDSEC
  0
EOF
