  0
SECTION
  2
HEADER
  9
$ACADVER
  1
AC1014
  9
$ACADMAINTVER
 70
     9
  9
$DWGCODEPAGE
  3
ANSI_1252
  9
$INSBASE
 10
0.0
 20
0.0
 30
0.0
  9
$EXTMIN
 10
1.000000000000000E+20
 20
1.000000000000000E+20
 30
1.000000000000000E+20
  9
$EXTMAX
 10
-1.000000000000000E+20
 20
-1.000000000000000E+20
 30
-1.000000000000000E+20
  9
$LIMMIN
 10
0.0
 20
0.0
  9
$LIMMAX
 10
12.0
 20
9.0
  9
$ORTHOMODE
 70
     0
  9
$REGENMODE
 70
     1
  9
$FILLMODE
 70
     1
  9
$QTEXTMODE
 70
     0
  9
$MIRRTEXT
 70
     1
  9
$DRAGMODE
 70
     2
  9
$LTSCALE
 40
1.0
  9
$OSMODE
 70
    37
  9
$ATTMODE
 70
     1
  9
$TEXTSIZE
 40
0.2
  9
$TRACEWID
 40
0.05
  9
$TEXTSTYLE
  7
STANDARD
  9
$CLAYER
  8
0
  9
$CELTYPE
  6
BYLAYER
  9
$CECOLOR
 62
   256
  9
$CELTSCALE
 40
1.0
  9
$DELOBJ
 70
     1
  9
$DISPSILH
 70
     0
  9
$DIMSCALE
 40
1.0
  9
$DIMASZ
 40
0.18
  9
$DIMEXO
 40
0.0625
  9
$DIMDLI
 40
0.38
  9
$DIMRND
 40
0.0
  9
$DIMDLE
 40
0.0
  9
$DIMEXE
 40
0.18
  9
$DIMTP
 40
0.0
  9
$DIMTM
 40
0.0
  9
$DIMTXT
 40
0.18
  9
$DIMCEN
 40
0.09
  9
$DIMTSZ
 40
0.0
  9
$DIMTOL
 70
     0
  9
$DIMLIM
 70
     0
  9
$DIMTIH
 70
     1
  9
$DIMTOH
 70
     1
  9
$DIMSE1
 70
     0
  9
$DIMSE2
 70
     0
  9
$DIMTAD
 70
     0
  9
$DIMZIN
 70
     0
  9
$DIMBLK
  1

  9
$DIMASO
 70
     1
  9
$DIMSHO
 70
     1
  9
$DIMPOST
  1

  9
$DIMAPOST
  1

  9
$DIMALT
 70
     0
  9
$DIMALTD
 70
     2
  9
$DIMALTF
 40
25.4
  9
$DIMLFAC
 40
1.0
  9
$DIMTOFL
 70
     0
  9
$DIMTVP
 40
0.0
  9
$DIMTIX
 70
     0
  9
$DIMSOXD
 70
     0
  9
$DIMSAH
 70
     0
  9
$DIMBLK1
  1

  9
$DIMBLK2
  1

  9
$DIMSTYLE
  2
STANDARD
  9
$DIMCLRD
 70
     0
  9
$DIMCLRE
 70
     0
  9
$DIMCLRT
 70
     0
  9
$DIMTFAC
 40
1.0
  9
$DIMGAP
 40
0.09
  9
$DIMJUST
 70
     0
  9
$DIMSD1
 70
     0
  9
$DIMSD2
 70
     0
  9
$DIMTOLJ
 70
     1
  9
$DIMTZIN
 70
     0
  9
$DIMALTZ
 70
     0
  9
$DIMALTTZ
 70
     0
  9
$DIMFIT
 70
     3
  9
$DIMUPT
 70
     0
  9
$DIMUNIT
 70
     2
  9
$DIMDEC
 70
     4
  9
$DIMTDEC
 70
     4
  9
$DIMALTU
 70
     2
  9
$DIMALTTD
 70
     2
  9
$DIMTXSTY
  7
STANDARD
  9
$DIMAUNIT
 70
     0
  9
$LUNITS
 70
     2
  9
$LUPREC
 70
     4
  9
$SKETCHINC
 40
0.1
  9
$FILLETRAD
 40
0.5
  9
$AUNITS
 70
     0
  9
$AUPREC
 70
     0
  9
$MENU
  1
.
  9
$ELEVATION
 40
0.0
  9
$PELEVATION
 40
0.0
  9
$THICKNESS
 40
0.0
  9
$LIMCHECK
 70
     0
  9
$CHAMFERA
 40
0.5
  9
$CHAMFERB
 40
0.5
  9
$CHAMFERC
 40
1.0
  9
$CHAMFERD
 40
0.0
  9
$SKPOLY
 70
     0
  9
$TDCREATE
 40
2455723.632824606
  9
$TDUPDATE
 40
2455723.632824618
  9
$TDINDWG
 40
0.0000000116
  9
$TDUSRTIMER
 40
0.0000000116
  9
$USRTIMER
 70
     1
  9
$ANGBASE
 50
0.0
  9
$ANGDIR
 70
     0
  9
$PDMODE
 70
     0
  9
$PDSIZE
 40
0.0
  9
$PLINEWID
 40
0.0
  9
$COORDS
 70
     1
  9
$SPLFRAME
 70
     0
  9
$SPLINETYPE
 70
     6
  9
$SPLINESEGS
 70
     8
  9
$ATTDIA
 70
     0
  9
$ATTREQ
 70
     1
  9
$HANDLING
 70
     1
  9
$HANDSEED
  5
405
  9
$SURFTAB1
 70
     6
  9
$SURFTAB2
 70
     6
  9
$SURFTYPE
 70
     6
  9
$SURFU
 70
     6
  9
$SURFV
 70
     6
  9
$UCSNAME
  2

  9
$UCSORG
 10
0.0
 20
0.0
 30
0.0
  9
$UCSXDIR
 10
1.0
 20
0.0
 30
0.0
  9
$UCSYDIR
 10
0.0
 20
1.0
 30
0.0
  9
$PUCSNAME
  2

  9
$PUCSORG
 10
0.0
 20
0.0
 30
0.0
  9
$PUCSXDIR
 10
1.0
 20
0.0
 30
0.0
  9
$PUCSYDIR
 10
0.0
 20
1.0
 30
0.0
  9
$USERI1
 70
     0
  9
$USERI2
 70
     0
  9
$USERI3
 70
     0
  9
$USERI4
 70
     0
  9
$USERI5
 70
     0
  9
$USERR1
 40
0.0
  9
$USERR2
 40
0.0
  9
$USERR3
 40
0.0
  9
$USERR4
 40
0.0
  9
$USERR5
 40
0.0
  9
$WORLDVIEW
 70
     1
  9
$SHADEDGE
 70
     3
  9
$SHADEDIF
 70
    70
  9
$TILEMODE
 70
     1
  9
$MAXACTVP
 70
    64
  9
$PINSBASE
 10
0.0
 20
0.0
 30
0.0
  9
$PLIMCHECK
 70
     0
  9
$PEXTMIN
 10
1.000000000000000E+20
 20
1.000000000000000E+20
 30
1.000000000000000E+20
  9
$PEXTMAX
 10
-1.000000000000000E+20
 20
-1.000000000000000E+20
 30
-1.000000000000000E+20
  9
$PLIMMIN
 10
0.0
 20
0.0
  9
$PLIMMAX
 10
12.0
 20
9.0
  9
$UNITMODE
 70
     0
  9
$VISRETAIN
 70
     1
  9
$PLINEGEN
 70
     0
  9
$PSLTSCALE
 70
     1
  9
$TREEDEPTH
 70
  3020
  9
$PICKSTYLE
 70
     1
  9
$CMLSTYLE
  2
STANDARD
  9
$CMLJUST
 70
     0
  9
$CMLSCALE
 40
1.0
  9
$PROXYGRAPHICS
 70
     1
  9
$MEASUREMENT
 70
     0
  0
ENDSEC
  0
SECTION
  2
CLASSES
  0
CLASS
  1
ACDBDICTIONARYWDFLT
  2
AcDbDictionaryWithDefault
  3
ObjectDBX Classes
 90
        0
280
     0
281
     0
  0
CLASS
  1
VISUALSTYLE
  2
AcDbVisualStyle
  3
ObjectDBX Classes
 90
     4095
280
     0
281
     0
  0
CLASS
  1
XRECORD
  2
AcDbXrecord
  3
AutoCAD 2000
 90
        0
280
     0
281
     0
  0
CLASS
  1
LWPOLYLINE
  2
AcDbPolyline
  3
AutoCAD 2000
 90
        0
280
     0
281
     1
  0
CLASS
  1
HATCH
  2
AcDbHatch
  3
AutoCAD 2000
 90
        0
280
     0
281
     1
  0
CLASS
  1
ACDBPLACEHOLDER
  2
AcDbPlaceHolder
  3
ObjectDBX Classes
 90
        0
280
     0
281
     0
  0
CLASS
  1
LAYOUT
  2
AcDbLayout
  3
ObjectDBX Classes
 90
        0
280
     0
281
     0
  0
ENDSEC
  0
SECTION
  2
TABLES
  0
TABLE
  2
VPORT
  5
8
330
0
100
AcDbSymbolTable
 70
     1
  0
VPORT
  5
29
330
8
100
AcDbSymbolTableRecord
100
AcDbViewportTableRecord
  2
*ACTIVE
 70
     0
 10
0.0
 20
0.0
 11
1.0
 21
1.0
 12
0.0
 22
0.0
 13
0.0
 23
0.0
 14
0.5
 24
0.5
 15
0.5
 25
0.5
 16
0.0
 26
0.0
 36
1.0
 17
0.0
 27
0.0
 37
-1000.0
 40
806.7429152524284
 41
1.686440677966102
 42
50.0
 43
1279.330818428974
 44
1810.750092780811
 50
0.0
 51
0.0
 71
     0
 72
   100
 73
     1
 74
     3
 75
     0
 76
     0
 77
     0
 78
     0
  0
ENDTAB
  0
TABLE
  2
LTYPE
  5
5
330
0
100
AcDbSymbolTable
 70
     1
  0
LTYPE
  5
14
330
5
100
AcDbSymbolTableRecord
100
AcDbLinetypeTableRecord
  2
BYBLOCK
 70
     0
  3

 72
    65
 73
     0
 40
0.0
  0
LTYPE
  5
15
330
5
100
AcDbSymbolTableRecord
100
AcDbLinetypeTableRecord
  2
BYLAYER
 70
     0
  3

 72
    65
 73
     0
 40
0.0
  0
LTYPE
  5
16
330
5
100
AcDbSymbolTableRecord
100
AcDbLinetypeTableRecord
  2
CONTINUOUS
 70
     0
  3
Solid line
 72
    65
 73
     0
 40
0.0
  0
ENDTAB
  0
TABLE
  2
LAYER
  5
2
330
0
100
AcDbSymbolTable
 70
     3
  0
LAYER
  5
10
330
2
100
AcDbSymbolTableRecord
100
AcDbLayerTableRecord
  2
0
 70
     0
 62
     7
  6
CONTINUOUS
  0
LAYER
  5
3B
330
2
100
AcDbSymbolTableRecord
100
AcDbLayerTableRecord
  2
PROFILEEDGES
 70
     0
 62
     7
  6
CONTINUOUS
  0
LAYER
  5
3C
330
2
100
AcDbSymbolTableRecord
100
AcDbLayerTableRecord
  2
SECTIONCUTEDGES
 70
     0
 62
     7
  6
CONTINUOUS
  0
ENDTAB
  0
TABLE
  2
STYLE
  5
3
330
0
100
AcDbSymbolTable
 70
     1
  0
STYLE
  5
11
330
3
100
AcDbSymbolTableRecord
100
AcDbTextStyleTableRecord
  2
STANDARD
 70
     0
 40
0.0
 41
1.0
 50
0.0
 71
     0
 42
0.2
  3
txt
  4

  0
ENDTAB
  0
TABLE
  2
VIEW
  5
6
330
0
100
AcDbSymbolTable
 70
     0
  0
ENDTAB
  0
TABLE
  2
UCS
  5
7
330
0
100
AcDbSymbolTable
 70
     0
  0
ENDTAB
  0
TABLE
  2
APPID
  5
9
330
0
100
AcDbSymbolTable
 70
     1
  0
APPID
  5
12
330
9
100
AcDbSymbolTableRecord
100
AcDbRegAppTableRecord
  2
ACAD
 70
     0
  0
ENDTAB
  0
TABLE
  2
DIMSTYLE
  5
A
330
0
100
AcDbSymbolTable
 70
     1
  0
DIMSTYLE
105
27
330
A
100
AcDbSymbolTableRecord
100
AcDbDimStyleTableRecord
  2
STANDARD
 70
     0
  3

  4

  5

  6

  7

 40
1.0
 41
0.18
 42
0.0625
 43
0.38
 44
0.18
 45
0.0
 46
0.0
 47
0.0
 48
0.0
140
0.18
141
0.09
142
0.0
143
25.4
144
1.0
145
0.0
146
1.0
147
0.09
 71
     0
 72
     0
 73
     1
 74
     1
 75
     0
 76
     0
 77
     0
 78
     0
170
     0
171
     2
172
     0
173
     0
174
     0
175
     0
176
     0
177
     0
178
     0
270
     2
271
     4
272
     4
273
     2
274
     2
340
11
275
     0
280
     0
281
     0
282
     0
283
     1
284
     0
285
     0
286
     0
287
     3
288
     0
  0
ENDTAB
  0
TABLE
  2
BLOCK_RECORD
  5
1
330
0
100
AcDbSymbolTable
 70
     1
  0
BLOCK_RECORD
  5
1F
330
1
100
AcDbSymbolTableRecord
100
AcDbBlockTableRecord
  2
*MODEL_SPACE
  0
BLOCK_RECORD
  5
1B
330
1
100
AcDbSymbolTableRecord
100
AcDbBlockTableRecord
  2
*PAPER_SPACE
  0
ENDTAB
  0
ENDSEC
  0
SECTION
  2
BLOCKS
  0
BLOCK
  5
20
330
1F
100
AcDbEntity
  8
0
100
AcDbBlockBegin
  2
*MODEL_SPACE
 70
     0
 10
0.0
 20
0.0
 30
0.0
  3
*MODEL_SPACE
  1

  0
ENDBLK
  5
21
330
1F
100
AcDbEntity
  8
0
100
AcDbBlockEnd
  0
BLOCK
  5
1C
330
1B
100
AcDbEntity
 67
     1
  8
0
100
AcDbBlockBegin
  2
*PAPER_SPACE
 70
     0
 10
0.0
 20
0.0
 30
0.0
  3
*PAPER_SPACE
  1

  0
ENDBLK
  5
1D
330
1B
100
AcDbEntity
 67
     1
  8
0
100
AcDbBlockEnd
  0
ENDSEC
  0
SECTION
  2
ENTITIES
  0
LINE
  5
3D
330
1F
100
AcDbEntity
  8
0
100
AcDbLine
 10
-256.3617155511225
 20
-171.9118602242885
 30
0.0
 11
-232.0300826894631
 21
-172.2313200829624
 31
0.0
  0
LINE
  5
3E
330
1F
100
AcDbEntity
  8
0
100
AcDbLine
 10
-256.3617155511225
 20
-171.9118602242885
 30
0.0
 11
-253.8294329946324
 21
-206.121394867019
 31
0.0
  0
LINE
  5
3F
330
1F
100
AcDbEntity
  8
0
100
AcDbLine
 10
-253.8294329946324
 20
-206.121394867019
 30
0.0
 11
-242.4524567138743
 21
-238.4806490239136
 31
0.0
  0
LINE
  5
40
330
1F
100
AcDbEntity
  8
0
100
AcDbLine
 10
9.111116939669802
 20
-167.6702914101464
 30
0.0
 11
33.43959745603316
 21
-167.9892887293051
 31
0.0
  0
LINE
  5
41
330
1F
100
AcDbEntity
  8
0
100
AcDbLine
 10
33.43959745603316
 20
-167.9892887293051
 30
0.0
 11
29.26622223257426
 21
-134.2199052543642
 31
0.0
  0
LINE
  5
42
330
1F
100
AcDbEntity
  8
0
100
AcDbLine
 10
-249.5994166911844
 20
-130.5844549654765
 30
0.0
 11
-255.923723701416
 21
-164.1951297126744
 31
0.0
  0
LINE
  5
43
330
1F
100
AcDbEntity
  8
0
100
AcDbLine
 10
15.20334628031033
 20
-241.9018580002841
 30
0.0
 11
-5.818196272719617
 21
-229.2020422854238
 31
0.0
  0
LINE
  5
44
330
1F
100
AcDbEntity
  8
0
100
AcDbLine
 10
15.20334628031033
 20
-241.9018580002841
 30
0.0
 11
28.65784329758282
 21
-209.8519262080284
 31
0.0
  0
LINE
  5
45
330
1F
100
AcDbEntity
  8
0
100
AcDbLine
 10
28.65784329758282
 20
-209.8519262080284
 30
0.0
 11
33.38331188104427
 21
-175.7160399947634
 31
0.0
  0
LINE
  5
46
330
1F
100
AcDbEntity
  8
0
100
AcDbLine
 10
-10.17979911007315
 20
-276.4462320523498
 30
0.0
 11
11.23851756377124
 21
-248.7106041347284
 31
0.0
  0
LINE
  5
47
330
1F
100
AcDbEntity
  8
0
100
AcDbLine
 10
253.9605191714663
 20
119.0522797225468
 30
0.0
 11
266.1074722966513
 21
99.83194708973573
 31
0.0
  0
LINE
  5
48
330
1F
100
AcDbEntity
  8
0
100
AcDbLine
 10
257.3225720676844
 20
120.3562828876174
 30
0.0
 11
253.9605191714663
 21
119.0522797225468
 31
0.0
  0
LINE
  5
49
330
1F
100
AcDbEntity
  8
0
100
AcDbLine
 10
236.4161023394275
 20
88.26632005965432
 30
0.0
 11
266.1074722966513
 21
99.83194708973573
 31
0.0
  0
LINE
  5
4A
330
1F
100
AcDbEntity
  8
0
100
AcDbLine
 10
260.1757809980368
 20
122.4604294077978
 30
0.0
 11
257.3225720676844
 21
120.3562828876174
 31
0.0
  0
LINE
  5
4B
330
1F
100
AcDbEntity
  8
0
100
AcDbLine
 10
272.3367196385173
 20
103.2636676448817
 30
0.0
 11
260.1757809980368
 21
122.4604294077978
 31
0.0
  0
LINE
  5
4C
330
1F
100
AcDbEntity
  8
0
100
AcDbLine
 10
310.7625866811485
 20
213.2819643597702
 30
0.0
 11
310.4339096323125
 21
209.9136897124977
 31
0.0
  0
LINE
  5
4D
330
1F
100
AcDbEntity
  8
0
100
AcDbLine
 10
310.1452451194929
 20
216.657674319009
 30
0.0
 11
310.7625866811485
 21
213.2819643597702
 31
0.0
  0
LINE
  5
4E
330
1F
100
AcDbEntity
  8
0
100
AcDbLine
 10
297.8896525456756
 20
159.7939290475706
 30
0.0
 11
295.7710665343491
 21
157.0688672423433
 31
0.0
  0
LINE
  5
4F
330
1F
100
AcDbEntity
  8
0
100
AcDbLine
 10
299.1608721597663
 20
162.9786997140982
 30
0.0
 11
297.8896525456756
 21
159.7939290475706
 31
0.0
  0
LINE
  5
50
330
1F
100
AcDbEntity
  8
0
100
AcDbLine
 10
319.3970450657873
 20
151.9088733487781
 30
0.0
 11
299.1608721597663
 21
162.9786997140982
 31
0.0
  0
LINE
  5
51
330
1F
100
AcDbEntity
  8
0
100
AcDbLine
 10
310.1452451194929
 20
216.657674319009
 30
0.0
 11
332.8914292712107
 21
216.3791968060275
 31
0.0
  0
LINE
  5
52
330
1F
100
AcDbEntity
  8
0
100
AcDbLine
 10
332.8914292712107
 20
216.3791968060275
 30
0.0
 11
327.3758033737419
 21
245.8701799122886
 31
0.0
  0
LINE
  5
53
330
1F
100
AcDbEntity
  8
0
100
AcDbLine
 10
107.1783000898522
 20
215.7759459537054
 30
0.0
 11
110.3982384733086
 21
193.6819596736614
 31
0.0
  0
LINE
  5
54
330
1F
100
AcDbEntity
  8
0
100
AcDbLine
 10
110.3982384733086
 20
193.6819596736614
 30
0.0
 11
119.6348384475089
 21
172.8556642129348
 31
0.0
  0
LINE
  5
55
330
1F
100
AcDbEntity
  8
0
100
AcDbLine
 10
119.6348384475089
 20
172.8556642129348
 30
0.0
 11
134.3116083020793
 21
154.7623876522228
 31
0.0
  0
LINE
  5
56
330
1F
100
AcDbEntity
  8
0
100
AcDbLine
 10
134.3116083020793
 20
154.7623876522228
 30
0.0
 11
153.4486426869119
 21
140.7012125738641
 31
0.0
  0
LINE
  5
57
330
1F
100
AcDbEntity
  8
0
100
AcDbLine
 10
153.4486426869119
 20
140.7012125738641
 30
0.0
 11
175.7233036819987
 21
131.698538489878
 31
0.0
  0
LINE
  5
58
330
1F
100
AcDbEntity
  8
0
100
AcDbLine
 10
172.7796690730965
 20
295.7511078048367
 30
0.0
 11
151.3963714912821
 21
287.7658598818382
 31
0.0
  0
LINE
  5
59
330
1F
100
AcDbEntity
  8
0
100
AcDbLine
 10
151.3963714912821
 20
287.7658598818382
 30
0.0
 11
133.047369237961
 21
274.8228601334481
 31
0.0
  0
LINE
  5
5A
330
1F
100
AcDbEntity
  8
0
100
AcDbLine
 10
133.047369237961
 20
274.8228601334481
 30
0.0
 11
118.9640753436178
 21
257.7406597513905
 31
0.0
  0
LINE
  5
5B
330
1F
100
AcDbEntity
  8
0
100
AcDbLine
 10
118.9640753436178
 20
257.7406597513905
 30
0.0
 11
110.1236387880075
 21
237.6179513994691
 31
0.0
  0
LINE
  5
5C
330
1F
100
AcDbEntity
  8
0
100
AcDbLine
 10
110.1236387880075
 20
237.6179513994691
 30
0.0
 11
107.1783000898522
 21
215.7759459537054
 31
0.0
  0
LINE
  5
5D
330
1F
100
AcDbEntity
  8
0
100
AcDbLine
 10
85.12216994536111
 20
70.95658764616977
 30
0.0
 11
104.9928161585986
 21
70.70437528860842
 31
0.0
  0
LINE
  5
5E
330
1F
100
AcDbEntity
  8
0
100
AcDbLine
 10
104.9928161585986
 20
70.70437528860842
 30
0.0
 11
105.0280346717852
 21
63.53894260444564
 31
0.0
  0
LINE
  5
5F
330
1F
100
AcDbEntity
  8
0
100
AcDbLine
 10
115.414039599934
 20
70.57121867710254
 30
0.0
 11
163.6591287103935
 21
69.89134838255958
 31
0.0
  0
LINE
  5
60
330
1F
100
AcDbEntity
  8
0
100
AcDbLine
 10
85.21248560698159
 20
10.12964903464084
 30
0.0
 11
85.20172957795252
 21
17.374258847444
 31
0.0
  0
LINE
  5
61
330
1F
100
AcDbEntity
  8
0
100
AcDbLine
 10
105.2984347431553
 20
9.871941742202342
 30
0.0
 11
85.21248560698159
 21
10.12964903464084
 31
0.0
  0
LINE
  5
62
330
1F
100
AcDbEntity
  8
0
100
AcDbLine
 10
85.20172957795252
 20
17.374258847444
 30
0.0
 11
75.17225882119142
 21
17.50277496867836
 31
0.0
  0
LINE
  5
63
330
1F
100
AcDbEntity
  8
0
100
AcDbLine
 10
145.5689739907909
 20
120.4031537882587
 30
0.0
 11
142.1487892069997
 21
121.791336286809
 31
0.0
  0
LINE
  5
64
330
1F
100
AcDbEntity
  8
0
100
AcDbLine
 10
187.3392431047807
 20
69.59697566525412
 30
0.0
 11
210.6897658208743
 21
69.34396391243926
 31
0.0
  0
LINE
  5
65
330
1F
100
AcDbEntity
  8
0
100
AcDbLine
 10
187.3392431047807
 20
69.59697566525412
 30
0.0
 11
187.4797793409397
 21
62.50396622975749
 31
0.0
  0
LINE
  5
66
330
1F
100
AcDbEntity
  8
0
100
AcDbLine
 10
-217.1190633005403
 20
-233.2313752017584
 30
0.0
 11
-219.3452052584549
 21
-230.0448647073534
 31
0.0
  0
LINE
  5
67
330
1F
100
AcDbEntity
  8
0
100
AcDbLine
 10
-238.9310035495666
 20
-245.3849541146393
 30
0.0
 11
-217.1190633005403
 21
-233.2313752017584
 31
0.0
  0
LINE
  5
68
330
1F
100
AcDbEntity
  8
0
100
AcDbLine
 10
-219.3452052584549
 20
-230.0448647073534
 30
0.0
 11
-220.6586497040645
 21
-226.355323088984
 31
0.0
  0
LINE
  5
69
330
1F
100
AcDbEntity
  8
0
100
AcDbLine
 10
-238.9310035495666
 20
-245.3849541146393
 30
0.0
 11
-219.3271291212788
 21
-273.6527844121987
 31
0.0
  0
LINE
  5
6A
330
1F
100
AcDbEntity
  8
0
100
AcDbLine
 10
-232.3324517216144
 20
-168.3633580971994
 30
0.0
 11
-231.6241259640134
 21
-164.5137483181254
 31
0.0
  0
LINE
  5
6B
330
1F
100
AcDbEntity
  8
0
100
AcDbLine
 10
-232.0300826894631
 20
-172.2313200829624
 30
0.0
 11
-232.3324517216144
 21
-168.3633580971994
 31
0.0
  0
LINE
  5
6C
330
1F
100
AcDbEntity
  8
0
100
AcDbLine
 10
-255.923723701416
 20
-164.1951297126744
 30
0.0
 11
-231.6241259640134
 21
-164.5137483181254
 31
0.0
  0
LINE
  5
6D
330
1F
100
AcDbEntity
  8
0
100
AcDbLine
 10
-111.3785496193934
 20
-51.30210591229181
 30
0.0
 11
-107.5991532604844
 21
-50.86262056542564
 31
0.0
  0
LINE
  5
6E
330
1F
100
AcDbEntity
  8
0
100
AcDbLine
 10
-110.6146829616771
 20
-27.92654808659819
 30
0.0
 11
-111.3785496193934
 21
-51.30210591229181
 31
0.0
  0
LINE
  5
6F
330
1F
100
AcDbEntity
  8
0
100
AcDbLine
 10
-107.5991532604844
 20
-50.86262056542564
 30
0.0
 11
-103.8509380685042
 21
-51.39887232719853
 31
0.0
  0
LINE
  5
70
330
1F
100
AcDbEntity
  8
0
100
AcDbLine
 10
-110.6146829616771
 20
-27.92654808659819
 30
0.0
 11
-143.7173677811728
 21
-31.76025200600595
 31
0.0
  0
LINE
  5
71
330
1F
100
AcDbEntity
  8
0
100
AcDbLine
 10
-163.9993397761467
 20
-64.24196708080476
 30
0.0
 11
-174.9784341044017
 21
-43.87787301260664
 31
0.0
  0
LINE
  5
72
330
1F
100
AcDbEntity
  8
0
100
AcDbLine
 10
-167.5749527540688
 20
-65.63393044425035
 30
0.0
 11
-163.9993397761467
 21
-64.24196708080476
 31
0.0
  0
LINE
  5
73
330
1F
100
AcDbEntity
  8
0
100
AcDbLine
 10
-143.7173677811728
 20
-31.76025200600595
 30
0.0
 11
-174.9784341044017
 21
-43.87787301260664
 31
0.0
  0
LINE
  5
74
330
1F
100
AcDbEntity
  8
0
100
AcDbLine
 10
-170.6919519045875
 20
-67.88280936757297
 30
0.0
 11
-167.5749527540688
 21
-65.63393044425035
 31
0.0
  0
LINE
  5
75
330
1F
100
AcDbEntity
  8
0
100
AcDbLine
 10
-181.6542542313184
 20
-47.49296138146769
 30
0.0
 11
-170.6919519045875
 21
-67.88280936757297
 31
0.0
  0
LINE
  5
76
330
1F
100
AcDbEntity
  8
0
100
AcDbLine
 10
-181.6542542313184
 20
-47.49296138146769
 30
0.0
 11
-209.0919219761312
 21
-67.19167964776001
 31
0.0
  0
LINE
  5
77
330
1F
100
AcDbEntity
  8
0
100
AcDbLine
 10
-5.650854673721054
 20
-111.0637529175899
 30
0.0
 11
-4.231467748584362
 21
-114.6107406972396
 31
0.0
  0
LINE
  5
78
330
1F
100
AcDbEntity
  8
0
100
AcDbLine
 10
-103.8509380685042
 20
-51.39887232719853
 30
0.0
 11
-103.1177335678701
 21
-28.0225274693798
 31
0.0
  0
LINE
  5
79
330
1F
100
AcDbEntity
  8
0
100
AcDbLine
 10
9.111116939669802
 20
-167.6702914101464
 30
0.0
 11
9.572975995372525
 21
-171.5373371972981
 31
0.0
  0
LINE
  5
7A
330
1F
100
AcDbEntity
  8
0
100
AcDbLine
 10
9.572975995372525
 20
-171.5373371972981
 30
0.0
 11
9.02271997415342
 21
-175.3961999210604
 31
0.0
  0
LINE
  5
7B
330
1F
100
AcDbEntity
  8
0
100
AcDbLine
 10
-209.0919219761312
 20
-67.19167964776001
 30
0.0
 11
-230.8502837322537
 21
-93.25264497278707
 31
0.0
  0
LINE
  5
7C
330
1F
100
AcDbEntity
  8
0
100
AcDbLine
 10
-214.9120622453742
 20
-111.8732387180715
 30
0.0
 11
-213.2682780773286
 21
-108.3676938734991
 31
0.0
  0
LINE
  5
7D
330
1F
100
AcDbEntity
  8
0
100
AcDbLine
 10
-213.2682780773286
 20
-108.3676938734991
 30
0.0
 11
-210.7850444467609
 21
-105.3747259550697
 31
0.0
  0
LINE
  5
7E
330
1F
100
AcDbEntity
  8
0
100
AcDbLine
 10
-220.6586497040645
 20
-226.355323088984
 30
0.0
 11
-242.4524567138743
 21
-238.4806490239136
 31
0.0
  0
LINE
  5
7F
330
1F
100
AcDbEntity
  8
0
100
AcDbLine
 10
-210.7850444467609
 20
-105.3747259550697
 30
0.0
 11
-230.8502837322537
 21
-93.25264497278707
 31
0.0
  0
LINE
  5
80
330
1F
100
AcDbEntity
  8
0
100
AcDbLine
 10
-5.818196272719617
 20
-229.2020422854238
 30
0.0
 11
-7.368141778683261
 21
-232.855387648867
 31
0.0
  0
LINE
  5
81
330
1F
100
AcDbEntity
  8
0
100
AcDbLine
 10
9.02271997415342
 20
-175.3961999210604
 30
0.0
 11
33.38331188104427
 21
-175.7160399947634
 31
0.0
  0
LINE
  5
82
330
1F
100
AcDbEntity
  8
0
100
AcDbLine
 10
-45.63048633660885
 20
-69.4953184752263
 30
0.0
 11
-33.36460988092021
 21
-49.39823868884412
 31
0.0
  0
LINE
  5
83
330
1F
100
AcDbEntity
  8
0
100
AcDbLine
 10
-9.79861676611821
 20
-235.9816248853812
 30
0.0
 11
11.23851756377124
 21
-248.7106041347284
 31
0.0
  0
LINE
  5
84
330
1F
100
AcDbEntity
  8
0
100
AcDbLine
 10
-48.60259201162052
 20
-67.1673179034193
 30
0.0
 11
-45.63048633660885
 21
-69.4953184752263
 31
0.0
  0
LINE
  5
85
330
1F
100
AcDbEntity
  8
0
100
AcDbLine
 10
-52.08796081682007
 20
-65.6839876711038
 30
0.0
 11
-48.60259201162052
 21
-67.1673179034193
 31
0.0
  0
LINE
  5
86
330
1F
100
AcDbEntity
  8
0
100
AcDbLine
 10
-7.368141778683261
 20
-232.855387648867
 30
0.0
 11
-9.79861676611821
 21
-235.9816248853812
 31
0.0
  0
LINE
  5
87
330
1F
100
AcDbEntity
  8
0
100
AcDbLine
 10
164.5986580002746
 20
9.161748854911199
 30
0.0
 11
164.4865398718885
 21
16.40882850958236
 31
0.0
  0
LINE
  5
88
330
1F
100
AcDbEntity
  8
0
100
AcDbLine
 10
166.7964946589332
 20
16.32871586961524
 30
0.0
 11
164.4865398718885
 21
16.40882850958236
 31
0.0
  0
LINE
  5
89
330
1F
100
AcDbEntity
  8
0
100
AcDbLine
 10
164.5986580002746
 20
9.161748854911199
 30
0.0
 11
115.8324862250158
 21
9.749446770301338
 31
0.0
  0
LINE
  5
8A
330
1F
100
AcDbEntity
  8
0
100
AcDbLine
 10
195.1464628464355
 20
179.1112141004292
 30
0.0
 11
195.5475843578892
 21
178.2348765173547
 31
0.0
  0
LINE
  5
8B
330
1F
100
AcDbEntity
  8
0
100
AcDbLine
 10
194.9958987852536
 20
180.047881213474
 30
0.0
 11
195.1464628464355
 21
179.1112141004292
 31
0.0
  0
LINE
  5
8C
330
1F
100
AcDbEntity
  8
0
100
AcDbLine
 10
195.5475843578892
 20
178.2348765173547
 30
0.0
 11
196.1720187749993
 21
177.4786737491299
 31
0.0
  0
LINE
  5
8D
330
1F
100
AcDbEntity
  8
0
100
AcDbLine
 10
194.535026361078
 20
211.0856982549716
 30
0.0
 11
201.7232394413836
 21
210.997581755794
 31
0.0
  0
LINE
  5
8E
330
1F
100
AcDbEntity
  8
0
100
AcDbLine
 10
194.9300984285011
 20
192.8291251529096
 30
0.0
 11
194.535026361078
 21
211.0856982549716
 31
0.0
  0
LINE
  5
8F
330
1F
100
AcDbEntity
  8
0
100
AcDbLine
 10
201.7232394413836
 20
210.997581755794
 30
0.0
 11
202.1422917906056
 21
192.7404199116181
 31
0.0
  0
LINE
  5
90
330
1F
100
AcDbEntity
  8
0
100
AcDbLine
 10
202.1422917906056
 20
192.7404199116181
 30
0.0
 11
194.9300984285011
 21
192.8291251529096
 31
0.0
  0
LINE
  5
91
330
1F
100
AcDbEntity
  8
0
100
AcDbLine
 10
197.9083527037662
 20
176.521573706757
 30
0.0
 11
196.9772446762341
 21
176.8942573617998
 31
0.0
  0
LINE
  5
92
330
1F
100
AcDbEntity
  8
0
100
AcDbLine
 10
196.9772446762341
 20
176.8942573617998
 30
0.0
 11
196.1720187749993
 21
177.4786737491299
 31
0.0
  0
LINE
  5
93
330
1F
100
AcDbEntity
  8
0
100
AcDbLine
 10
197.9083527037662
 20
176.521573706757
 30
0.0
 11
198.9017967811596
 21
176.3861096212343
 31
0.0
  0
LINE
  5
94
330
1F
100
AcDbEntity
  8
0
100
AcDbLine
 10
-131.9224049693124
 20
-167.8774070833709
 30
0.0
 11
-120.6776002058054
 21
-163.4112687188052
 31
0.0
  0
LINE
  5
95
330
1F
100
AcDbEntity
  8
0
100
AcDbLine
 10
-120.6776002058054
 20
-163.4112687188052
 30
0.0
 11
-108.7360189768138
 21
-161.995776013749
 31
0.0
  0
LINE
  5
96
330
1F
100
AcDbEntity
  8
0
100
AcDbLine
 10
-69.5250450478493
 20
-185.6640731376538
 30
0.0
 11
-65.18674433268181
 21
-196.9557932435523
 31
0.0
  0
LINE
  5
97
330
1F
100
AcDbEntity
  8
0
100
AcDbLine
 10
-108.7360189768138
 20
-161.995776013749
 30
0.0
 11
-96.89313674744189
 21
-163.7229965351964
 31
0.0
  0
LINE
  5
98
330
1F
100
AcDbEntity
  8
0
100
AcDbLine
 10
198.9017967811596
 20
176.3861096212343
 30
0.0
 11
199.8897495059898
 21
176.497131632335
 31
0.0
  0
LINE
  5
99
330
1F
100
AcDbEntity
  8
0
100
AcDbLine
 10
202.1754391553078
 20
178.153141757822
 30
0.0
 11
202.5377039169819
 21
179.0200796782033
 31
0.0
  0
LINE
  5
9A
330
1F
100
AcDbEntity
  8
0
100
AcDbLine
 10
201.5843755116323
 20
177.4119194495616
 30
0.0
 11
202.1754391553078
 21
178.153141757822
 31
0.0
  0
LINE
  5
9B
330
1F
100
AcDbEntity
  8
0
100
AcDbLine
 10
202.5377039169819
 20
179.0200796782033
 30
0.0
 11
202.6465747443062
 21
179.9535639602163
 31
0.0
  0
LINE
  5
9C
330
1F
100
AcDbEntity
  8
0
100
AcDbLine
 10
199.8897495059898
 20
176.497131632335
 30
0.0
 11
200.8047582392538
 21
176.8470450936443
 31
0.0
  0
LINE
  5
9D
330
1F
100
AcDbEntity
  8
0
100
AcDbLine
 10
200.8047582392538
 20
176.8470450936443
 30
0.0
 11
201.5843755116323
 21
177.4119194495616
 31
0.0
  0
LINE
  5
9E
330
1F
100
AcDbEntity
  8
0
100
AcDbLine
 10
202.6465747443062
 20
179.9535639602163
 30
0.0
 11
202.4947580131557
 21
180.8899445237103
 31
0.0
  0
LINE
  5
9F
330
1F
100
AcDbEntity
  8
0
100
AcDbLine
 10
212.3068810159106
 20
183.2446649012585
 30
0.0
 11
231.7856168225331
 21
183.0046805067127
 31
0.0
  0
LINE
  5
A0
330
1F
100
AcDbEntity
  8
0
100
AcDbLine
 10
212.4759143880273
 20
176.4179640360275
 30
0.0
 11
212.3068810159106
 21
183.2446649012585
 31
0.0
  0
LINE
  5
A1
330
1F
100
AcDbEntity
  8
0
100
AcDbLine
 10
231.7856168225331
 20
183.0046805067127
 30
0.0
 11
231.9788277004444
 21
176.1773837173444
 31
0.0
  0
LINE
  5
A2
330
1F
100
AcDbEntity
  8
0
100
AcDbLine
 10
231.9788277004444
 20
176.1773837173444
 30
0.0
 11
212.4759143880273
 21
176.4179640360275
 31
0.0
  0
LINE
  5
A3
330
1F
100
AcDbEntity
  8
0
100
AcDbLine
 10
195.4846737426369
 20
167.2017887806988
 30
0.0
 11
202.7305290702361
 21
167.1122537960263
 31
0.0
  0
LINE
  5
A4
330
1F
100
AcDbEntity
  8
0
100
AcDbLine
 10
195.886116299281
 20
148.6508306493042
 30
0.0
 11
195.4846737426369
 21
167.2017887806988
 31
0.0
  0
LINE
  5
A5
330
1F
100
AcDbEntity
  8
0
100
AcDbLine
 10
202.7305290702361
 20
167.1122537960263
 30
0.0
 11
203.1563386980845
 21
148.5606926250425
 31
0.0
  0
LINE
  5
A6
330
1F
100
AcDbEntity
  8
0
100
AcDbLine
 10
203.1563386980845
 20
148.5606926250425
 30
0.0
 11
195.886116299281
 21
148.6508306493042
 31
0.0
  0
LINE
  5
A7
330
1F
100
AcDbEntity
  8
0
100
AcDbLine
 10
196.8399197551029
 20
183.1507917819209
 30
0.0
 11
196.0606288162308
 21
182.5870940357255
 31
0.0
  0
LINE
  5
A8
330
1F
100
AcDbEntity
  8
0
100
AcDbLine
 10
196.8399197551029
 20
183.1507917819209
 30
0.0
 11
197.75401685001
 21
183.4998604875887
 31
0.0
  0
LINE
  5
A9
330
1F
100
AcDbEntity
  8
0
100
AcDbLine
 10
198.7407169043985
 20
183.6105959489068
 30
0.0
 11
197.75401685001
 21
183.4998604875887
 31
0.0
  0
LINE
  5
AA
330
1F
100
AcDbEntity
  8
0
100
AcDbLine
 10
194.9958987852536
 20
180.047881213474
 30
0.0
 11
195.1060276624355
 21
180.981017058821
 31
0.0
  0
LINE
  5
AB
330
1F
100
AcDbEntity
  8
0
100
AcDbLine
 10
195.4692187605814
 20
181.8470649195409
 30
0.0
 11
195.1060276624355
 21
180.981017058821
 31
0.0
  0
LINE
  5
AC
330
1F
100
AcDbEntity
  8
0
100
AcDbLine
 10
200.6630846225412
 20
183.1036867054563
 30
0.0
 11
201.4679641122751
 21
182.5204635104338
 31
0.0
  0
LINE
  5
AD
330
1F
100
AcDbEntity
  8
0
100
AcDbLine
 10
201.4679641122751
 20
182.5204635104338
 30
0.0
 11
202.0927248633547
 21
181.765437351653
 31
0.0
  0
LINE
  5
AE
330
1F
100
AcDbEntity
  8
0
100
AcDbLine
 10
202.0927248633547
 20
181.765437351653
 30
0.0
 11
202.4947580131557
 21
180.8899445237103
 31
0.0
  0
LINE
  5
AF
330
1F
100
AcDbEntity
  8
0
100
AcDbLine
 10
165.8207768155865
 20
176.9934835845984
 30
0.0
 11
165.7095726506067
 21
183.8187589773078
 31
0.0
  0
LINE
  5
B0
330
1F
100
AcDbEntity
  8
0
100
AcDbLine
 10
-112.136515765656
 20
-204.8552591213059
 30
0.0
 11
-111.1369748046368
 21
-204.4552227563505
 31
0.0
  0
LINE
  5
B1
330
1F
100
AcDbEntity
  8
0
100
AcDbLine
 10
-110.3357529715779
 20
-212.6083621139204
 30
0.0
 11
-109.2713661040609
 21
-212.4811072805557
 31
0.0
  0
LINE
  5
B2
330
1F
100
AcDbEntity
  8
0
100
AcDbLine
 10
-106.7248293803322
 20
-210.5830105222789
 30
0.0
 11
-106.2849359301838
 21
-209.5893699548006
 31
0.0
  0
LINE
  5
B3
330
1F
100
AcDbEntity
  8
0
100
AcDbLine
 10
-109.2713661040609
 20
-212.4811072805557
 30
0.0
 11
-108.2707259588735
 21
-212.0800344151316
 31
0.0
  0
LINE
  5
B4
330
1F
100
AcDbEntity
  8
0
100
AcDbLine
 10
-107.402134404445
 20
-211.4325797013992
 30
0.0
 11
-108.2707259588735
 21
-212.0800344151316
 31
0.0
  0
LINE
  5
B5
330
1F
100
AcDbEntity
  8
0
100
AcDbLine
 10
-112.136515765656
 20
-204.8552591213059
 30
0.0
 11
-113.0046576084834
 21
-205.501270155428
 31
0.0
  0
LINE
  5
B6
330
1F
100
AcDbEntity
  8
0
100
AcDbLine
 10
-113.6822828932064
 20
-206.349375308725
 30
0.0
 11
-113.0046576084834
 21
-205.501270155428
 31
0.0
  0
LINE
  5
B7
330
1F
100
AcDbEntity
  8
0
100
AcDbLine
 10
-113.6822828932064
 20
-206.349375308725
 30
0.0
 11
-114.123180762371
 21
-207.3419237885849
 31
0.0
  0
LINE
  5
B8
330
1F
100
AcDbEntity
  8
0
100
AcDbLine
 10
-112.924291940174
 20
-172.8528812607264
 30
0.0
 11
-105.2371997893532
 21
-172.9537919747762
 31
0.0
  0
LINE
  5
B9
330
1F
100
AcDbEntity
  8
0
100
AcDbLine
 10
-113.5990005096827
 20
-193.765114600632
 30
0.0
 11
-112.924291940174
 21
-172.8528812607264
 31
0.0
  0
LINE
  5
BA
330
1F
100
AcDbEntity
  8
0
100
AcDbLine
 10
-105.2371997893532
 20
-172.9537919747762
 30
0.0
 11
-105.8844776460442
 21
-193.8667470827459
 31
0.0
  0
LINE
  5
BB
330
1F
100
AcDbEntity
  8
0
100
AcDbLine
 10
-105.8844776460442
 20
-193.8667470827459
 30
0.0
 11
-113.5990005096827
 21
-193.765114600632
 31
0.0
  0
LINE
  5
BC
330
1F
100
AcDbEntity
  8
0
100
AcDbLine
 10
-70.68692649564065
 20
-232.5122026315668
 30
0.0
 11
-78.33069554205059
 21
-242.210087720527
 31
0.0
  0
LINE
  5
BD
330
1F
100
AcDbEntity
  8
0
100
AcDbLine
 10
-151.2017872854063
 20
-231.4445972928732
 30
0.0
 11
-155.3993883564434
 21
-220.0202027290636
 31
0.0
  0
LINE
  5
BE
330
1F
100
AcDbEntity
  8
0
100
AcDbLine
 10
-78.33069554205059
 20
-242.210087720527
 30
0.0
 11
-88.1838991080446
 21
-249.6203088782225
 31
0.0
  0
LINE
  5
BF
330
1F
100
AcDbEntity
  8
0
100
AcDbLine
 10
-96.89313674744189
 20
-163.7229965351964
 30
0.0
 11
-85.9381336873574
 21
-168.4805690741273
 31
0.0
  0
LINE
  5
C0
330
1F
100
AcDbEntity
  8
0
100
AcDbLine
 10
-95.57318319432277
 20
-204.7476791989306
 30
0.0
 11
-74.73512194551435
 21
-205.0227052241549
 31
0.0
  0
LINE
  5
C1
330
1F
100
AcDbEntity
  8
0
100
AcDbLine
 10
-95.80120448218554
 20
-212.5718501437271
 30
0.0
 11
-95.57318319432277
 21
-204.7476791989306
 31
0.0
  0
LINE
  5
C2
330
1F
100
AcDbEntity
  8
0
100
AcDbLine
 10
-74.73512194551435
 20
-205.0227052241549
 30
0.0
 11
-74.9354711287199
 21
-212.847607365581
 31
0.0
  0
LINE
  5
C3
330
1F
100
AcDbEntity
  8
0
100
AcDbLine
 10
-74.9354711287199
 20
-212.847607365581
 30
0.0
 11
-95.80120448218554
 21
-212.5718501437271
 31
0.0
  0
LINE
  5
C4
330
1F
100
AcDbEntity
  8
0
100
AcDbLine
 10
-107.402134404445
 20
-211.4325797013992
 30
0.0
 11
-106.7248293803322
 21
-210.5830105222789
 31
0.0
  0
LINE
  5
C5
330
1F
100
AcDbEntity
  8
0
100
AcDbLine
 10
-88.1838991080446
 20
-249.6203088782225
 30
0.0
 11
-99.56940434223816
 21
-254.2191334457443
 31
0.0
  0
LINE
  5
C6
330
1F
100
AcDbEntity
  8
0
100
AcDbLine
 10
-99.56940434223816
 20
-254.2191334457443
 30
0.0
 11
-111.6971254146166
 21
-255.6796353463484
 31
0.0
  0
LINE
  5
C7
330
1F
100
AcDbEntity
  8
0
100
AcDbLine
 10
-111.6971254146166
 20
-255.6796353463484
 30
0.0
 11
-123.7217070105209
 21
-253.8976848803872
 31
0.0
  0
LINE
  5
C8
330
1F
100
AcDbEntity
  8
0
100
AcDbLine
 10
-123.7217070105209
 20
-253.8976848803872
 30
0.0
 11
-134.8052792354912
 21
-249.0003104455661
 31
0.0
  0
LINE
  5
C9
330
1F
100
AcDbEntity
  8
0
100
AcDbLine
 10
-149.4028170857778
 20
-184.6133031776234
 30
0.0
 11
-141.7180483172125
 21
-175.1028224907886
 31
0.0
  0
LINE
  5
CA
330
1F
100
AcDbEntity
  8
0
100
AcDbLine
 10
-106.2849359301838
 20
-209.5893699548006
 30
0.0
 11
-106.1123315347269
 21
-208.519481991381
 31
0.0
  0
LINE
  5
CB
330
1F
100
AcDbEntity
  8
0
100
AcDbLine
 10
-106.1123315347269
 20
-208.519481991381
 30
0.0
 11
-106.2186370081099
 21
-207.4463002547685
 31
0.0
  0
LINE
  5
CC
330
1F
100
AcDbEntity
  8
0
100
AcDbLine
 10
-106.5964626055914
 20
-206.4429249928646
 30
0.0
 11
-106.2186370081099
 21
-207.4463002547685
 31
0.0
  0
LINE
  5
CD
330
1F
100
AcDbEntity
  8
0
100
AcDbLine
 10
-107.219950508299
 20
-205.5776309402662
 30
0.0
 11
-106.5964626055914
 21
-206.4429249928646
 31
0.0
  0
LINE
  5
CE
330
1F
100
AcDbEntity
  8
0
100
AcDbLine
 10
-108.0465663085293
 20
-204.909242302671
 30
0.0
 11
-107.219950508299
 21
-205.5776309402662
 31
0.0
  0
LINE
  5
CF
330
1F
100
AcDbEntity
  8
0
100
AcDbLine
 10
-108.0465663085293
 20
-204.909242302671
 30
0.0
 11
-109.020009586732
 21
-204.4831625880853
 31
0.0
  0
LINE
  5
D0
330
1F
100
AcDbEntity
  8
0
100
AcDbLine
 10
-110.0740420683249
 20
-204.3283195145868
 30
0.0
 11
-109.020009586732
 21
-204.4831625880853
 31
0.0
  0
LINE
  5
D1
330
1F
100
AcDbEntity
  8
0
100
AcDbLine
 10
-110.0740420683249
 20
-204.3283195145868
 30
0.0
 11
-111.1369748046368
 21
-204.4552227563505
 31
0.0
  0
LINE
  5
D2
330
1F
100
AcDbEntity
  8
0
100
AcDbLine
 10
-114.2972046019675
 20
-208.4113842263239
 30
0.0
 11
-114.123180762371
 21
-207.3419237885849
 31
0.0
  0
LINE
  5
D3
330
1F
100
AcDbEntity
  8
0
100
AcDbLine
 10
-114.2972046019675
 20
-208.4113842263239
 30
0.0
 11
-114.1923532591517
 21
-209.4849175542113
 31
0.0
  0
LINE
  5
D4
330
1F
100
AcDbEntity
  8
0
100
AcDbLine
 10
-114.1923532591517
 20
-209.4849175542113
 30
0.0
 11
-113.8156268457874
 21
-210.4893293158668
 31
0.0
  0
LINE
  5
D5
330
1F
100
AcDbEntity
  8
0
100
AcDbLine
 10
-113.8156268457874
 20
-210.4893293158668
 30
0.0
 11
-113.1925886552691
 21
-211.3560670476847
 31
0.0
  0
LINE
  5
D6
330
1F
100
AcDbEntity
  8
0
100
AcDbLine
 10
-113.1925886552691
 20
-211.3560670476847
 30
0.0
 11
-112.3656525950668
 21
-212.0259197114292
 31
0.0
  0
LINE
  5
D7
330
1F
100
AcDbEntity
  8
0
100
AcDbLine
 10
-111.3912048978988
 20
-212.4530915143502
 30
0.0
 11
-112.3656525950668
 21
-212.0259197114292
 31
0.0
  0
LINE
  5
D8
330
1F
100
AcDbEntity
  8
0
100
AcDbLine
 10
-111.3912048978988
 20
-212.4530915143502
 30
0.0
 11
-110.3357529715779
 21
-212.6083621139204
 31
0.0
  0
LINE
  5
D9
330
1F
100
AcDbEntity
  8
0
100
AcDbLine
 10
310.4339096323125
 20
209.9136897124977
 30
0.0
 11
333.2081616140928
 21
209.6345248948846
 31
0.0
  0
LINE
  5
DA
330
1F
100
AcDbEntity
  8
0
100
AcDbLine
 10
330.4259366557225
 20
179.8513392417343
 30
0.0
 11
333.2081616140928
 21
209.6345248948846
 31
0.0
  0
LINE
  5
DB
330
1F
100
AcDbEntity
  8
0
100
AcDbLine
 10
319.3970450657873
 20
151.9088733487781
 30
0.0
 11
330.4259366557225
 21
179.8513392417343
 31
0.0
  0
LINE
  5
DC
330
1F
100
AcDbEntity
  8
0
100
AcDbLine
 10
295.7710665343491
 20
157.0688672423433
 30
0.0
 11
316.0221371758569
 21
145.9753104483843
 31
0.0
  0
LINE
  5
DD
330
1F
100
AcDbEntity
  8
0
100
AcDbLine
 10
297.36409288325
 20
121.8141236000186
 30
0.0
 11
316.0221371758569
 21
145.9753104483843
 31
0.0
  0
LINE
  5
DE
330
1F
100
AcDbEntity
  8
0
100
AcDbLine
 10
272.3367196385173
 20
103.2636676448817
 30
0.0
 11
297.36409288325
 21
121.8141236000186
 31
0.0
  0
LINE
  5
DF
330
1F
100
AcDbEntity
  8
0
100
AcDbLine
 10
204.2152394187533
 20
84.58702122815431
 30
0.0
 11
236.4161023394275
 21
88.26632005965432
 31
0.0
  0
LINE
  5
E0
330
1F
100
AcDbEntity
  8
0
100
AcDbLine
 10
204.2152394187533
 20
84.58702122815431
 30
0.0
 11
203.7054041309652
 21
106.8703706484128
 31
0.0
  0
LINE
  5
E1
330
1F
100
AcDbEntity
  8
0
100
AcDbLine
 10
203.7054041309652
 20
106.8703706484128
 30
0.0
 11
200.0531402379484
 21
106.4547244859734
 31
0.0
  0
LINE
  5
E2
330
1F
100
AcDbEntity
  8
0
100
AcDbLine
 10
200.0531402379484
 20
106.4547244859734
 30
0.0
 11
196.3804289330883
 21
106.9618712489119
 31
0.0
  0
LINE
  5
E3
330
1F
100
AcDbEntity
  8
0
100
AcDbLine
 10
196.3804289330883
 20
106.9618712489119
 30
0.0
 11
196.8609954045808
 21
84.67925431321271
 31
0.0
  0
LINE
  5
E4
330
1F
100
AcDbEntity
  8
0
100
AcDbLine
 10
164.4843477129903
 20
89.16779287258205
 30
0.0
 11
196.8609954045808
 21
84.67925431321271
 31
0.0
  0
LINE
  5
E5
330
1F
100
AcDbEntity
  8
0
100
AcDbLine
 10
134.2759836970626
 20
101.4805797064981
 30
0.0
 11
164.4843477129903
 21
89.16779287258205
 31
0.0
  0
LINE
  5
E6
330
1F
100
AcDbEntity
  8
0
100
AcDbLine
 10
134.2759836970626
 20
101.4805797064981
 30
0.0
 11
145.5689739907909
 21
120.4031537882587
 31
0.0
  0
LINE
  5
E7
330
1F
100
AcDbEntity
  8
0
100
AcDbLine
 10
142.1487892069997
 20
121.791336286809
 30
0.0
 11
139.2019982787251
 21
123.9671706320059
 31
0.0
  0
LINE
  5
E8
330
1F
100
AcDbEntity
  8
0
100
AcDbLine
 10
139.2019982787251
 20
123.9671706320059
 30
0.0
 11
127.8946286761942
 21
105.0688684557663
 31
0.0
  0
LINE
  5
E9
330
1F
100
AcDbEntity
  8
0
100
AcDbLine
 10
102.048153683781
 20
124.2468843013071
 30
0.0
 11
127.8946286761942
 21
105.0688684557663
 31
0.0
  0
LINE
  5
EA
330
1F
100
AcDbEntity
  8
0
100
AcDbLine
 10
82.32431995643508
 20
148.8733746034688
 30
0.0
 11
102.048153683781
 21
124.2468843013071
 31
0.0
  0
LINE
  5
EB
330
1F
100
AcDbEntity
  8
0
100
AcDbLine
 10
82.32431995643508
 20
148.8733746034688
 30
0.0
 11
102.0743118577325
 21
159.4661801167998
 31
0.0
  0
LINE
  5
EC
330
1F
100
AcDbEntity
  8
0
100
AcDbLine
 10
102.0743118577325
 20
159.4661801167998
 30
0.0
 11
99.83534573904056
 21
162.2439537647807
 31
0.0
  0
LINE
  5
ED
330
1F
100
AcDbEntity
  8
0
100
AcDbLine
 10
99.83534573904056
 20
162.2439537647807
 30
0.0
 11
98.4230662777418
 21
165.4604821978106
 31
0.0
  0
LINE
  5
EE
330
1F
100
AcDbEntity
  8
0
100
AcDbLine
 10
98.4230662777418
 20
165.4604821978106
 30
0.0
 11
78.68754850859912
 21
154.890668577644
 31
0.0
  0
LINE
  5
EF
330
1F
100
AcDbEntity
  8
0
100
AcDbLine
 10
66.42382741554786
 20
183.1050769890421
 30
0.0
 11
78.68754850859912
 21
154.890668577644
 31
0.0
  0
LINE
  5
F0
330
1F
100
AcDbEntity
  8
0
100
AcDbLine
 10
62.32048205356088
 20
212.9550427199548
 30
0.0
 11
66.42382741554786
 21
183.1050769890421
 31
0.0
  0
LINE
  5
F1
330
1F
100
AcDbEntity
  8
0
100
AcDbLine
 10
62.32048205356088
 20
212.9550427199548
 30
0.0
 11
85.06943931443953
 21
212.6761879628501
 31
0.0
  0
LINE
  5
F2
330
1F
100
AcDbEntity
  8
0
100
AcDbLine
 10
85.06943931443953
 20
212.6761879628501
 30
0.0
 11
84.59128012804223
 21
216.0526451675287
 31
0.0
  0
LINE
  5
F3
330
1F
100
AcDbEntity
  8
0
100
AcDbLine
 10
84.59128012804223
 20
216.0526451675287
 30
0.0
 11
85.05836828693057
 21
219.4133731758819
 31
0.0
  0
LINE
  5
F4
330
1F
100
AcDbEntity
  8
0
100
AcDbLine
 10
85.05836828693057
 20
219.4133731758819
 30
0.0
 11
62.33741658923014
 21
219.6915417723878
 31
0.0
  0
LINE
  5
F5
330
1F
100
AcDbEntity
  8
0
100
AcDbLine
 10
66.53951627095667
 20
249.0463710121842
 30
0.0
 11
62.33741658923014
 21
219.6915417723878
 31
0.0
  0
LINE
  5
F6
330
1F
100
AcDbEntity
  8
0
100
AcDbLine
 10
78.63036358451087
 20
276.0187619465203
 30
0.0
 11
98.01847005532358
 21
265.3979377901697
 31
0.0
  0
LINE
  5
F7
330
1F
100
AcDbEntity
  8
0
100
AcDbLine
 10
98.01847005532358
 20
265.3979377901697
 30
0.0
 11
99.37841087713583
 21
268.4621666100071
 31
0.0
  0
LINE
  5
F8
330
1F
100
AcDbEntity
  8
0
100
AcDbLine
 10
99.37841087713583
 20
268.4621666100071
 30
0.0
 11
101.5491889152922
 21
271.0785381289027
 31
0.0
  0
LINE
  5
F9
330
1F
100
AcDbEntity
  8
0
100
AcDbLine
 10
101.5491889152922
 20
271.0785381289027
 30
0.0
 11
82.17445220691238
 21
281.6771316589938
 31
0.0
  0
LINE
  5
FA
330
1F
100
AcDbEntity
  8
0
100
AcDbLine
 10
101.2064313111377
 20
304.4725608707858
 30
0.0
 11
82.17445220691238
 21
281.6771316589938
 31
0.0
  0
LINE
  5
FB
330
1F
100
AcDbEntity
  8
0
100
AcDbLine
 10
125.8828258980245
 20
321.711814355529
 30
0.0
 11
101.2064313111377
 21
304.4725608707858
 31
0.0
  0
LINE
  5
FC
330
1F
100
AcDbEntity
  8
0
100
AcDbLine
 10
125.8828258980245
 20
321.711814355529
 30
0.0
 11
137.1599292164938
 21
303.8678600172054
 31
0.0
  0
LINE
  5
FD
330
1F
100
AcDbEntity
  8
0
100
AcDbLine
 10
137.1599292164938
 20
303.8678600172054
 30
0.0
 11
139.9630192320076
 21
305.8355409893977
 31
0.0
  0
LINE
  5
FE
330
1F
100
AcDbEntity
  8
0
100
AcDbLine
 10
139.9630192320076
 20
305.8355409893977
 30
0.0
 11
143.2380868203809
 21
307.0535042187142
 31
0.0
  0
LINE
  5
FF
330
1F
100
AcDbEntity
  8
0
100
AcDbLine
 10
143.2380868203809
 20
307.0535042187142
 30
0.0
 11
131.947494369988
 21
324.876372982388
 31
0.0
  0
LINE
  5
100
330
1F
100
AcDbEntity
  8
0
100
AcDbLine
 10
160.5929031412314
 20
335.4857128555427
 30
0.0
 11
131.947494369988
 21
324.876372982388
 31
0.0
  0
LINE
  5
101
330
1F
100
AcDbEntity
  8
0
100
AcDbLine
 10
191.3794805322761
 20
338.8428370275145
 30
0.0
 11
160.5929031412314
 21
335.4857128555427
 31
0.0
  0
LINE
  5
102
330
1F
100
AcDbEntity
  8
0
100
AcDbLine
 10
191.3794805322761
 20
338.8428370275145
 30
0.0
 11
191.8208504590063
 21
318.3776618900931
 31
0.0
  0
LINE
  5
103
330
1F
100
AcDbEntity
  8
0
100
AcDbLine
 10
191.8208504590063
 20
318.3776618900931
 30
0.0
 11
195.3349720721203
 21
318.7623298045662
 31
0.0
  0
LINE
  5
104
330
1F
100
AcDbEntity
  8
0
100
AcDbLine
 10
195.3349720721203
 20
318.7623298045662
 30
0.0
 11
198.8681286573532
 21
318.2929657539539
 31
0.0
  0
LINE
  5
105
330
1F
100
AcDbEntity
  8
0
100
AcDbLine
 10
198.8681286573532
 20
318.2929657539539
 30
0.0
 11
198.3998778140627
 21
338.7587856124471
 31
0.0
  0
LINE
  5
106
330
1F
100
AcDbEntity
  8
0
100
AcDbLine
 10
229.3573464596714
 20
334.66185964662
 30
0.0
 11
198.3998778140627
 21
338.7587856124471
 31
0.0
  0
LINE
  5
107
330
1F
100
AcDbEntity
  8
0
100
AcDbLine
 10
258.5023946285624
 20
323.3570392942729
 30
0.0
 11
229.3573464596714
 21
334.66185964662
 31
0.0
  0
LINE
  5
108
330
1F
100
AcDbEntity
  8
0
100
AcDbLine
 10
258.5023946285624
 20
323.3570392942729
 30
0.0
 11
247.9925980790044
 21
305.7917417948536
 31
0.0
  0
LINE
  5
109
330
1F
100
AcDbEntity
  8
0
100
AcDbLine
 10
247.9925980790044
 20
305.7917417948536
 30
0.0
 11
251.3251741051888
 21
304.493876241209
 31
0.0
  0
LINE
  5
10A
330
1F
100
AcDbEntity
  8
0
100
AcDbLine
 10
251.3251741051888
 20
304.493876241209
 30
0.0
 11
254.2187141691792
 21
302.4570388988625
 31
0.0
  0
LINE
  5
10B
330
1F
100
AcDbEntity
  8
0
100
AcDbLine
 10
254.2187141691792
 20
302.4570388988625
 30
0.0
 11
264.7146616952106
 21
320.0440853280003
 31
0.0
  0
LINE
  5
10C
330
1F
100
AcDbEntity
  8
0
100
AcDbLine
 10
290.1892374151437
 20
302.1949663951931
 30
0.0
 11
264.7146616952106
 21
320.0440853280003
 31
0.0
  0
LINE
  5
10D
330
1F
100
AcDbEntity
  8
0
100
AcDbLine
 10
310.2633866685355
 20
278.9164720511885
 30
0.0
 11
290.1892374151437
 21
302.1949663951931
 31
0.0
  0
LINE
  5
10E
330
1F
100
AcDbEntity
  8
0
100
AcDbLine
 10
310.2633866685355
 20
278.9164720511885
 30
0.0
 11
291.3315967112286
 21
268.7771134751621
 31
0.0
  0
LINE
  5
10F
330
1F
100
AcDbEntity
  8
0
100
AcDbLine
 10
291.3315967112286
 20
268.7771134751621
 30
0.0
 11
293.6218087891855
 21
266.1054953173262
 31
0.0
  0
LINE
  5
110
330
1F
100
AcDbEntity
  8
0
100
AcDbLine
 10
293.6218087891855
 20
266.1054953173262
 30
0.0
 11
295.1199968307428
 21
263.005229971933
 31
0.0
  0
LINE
  5
111
330
1F
100
AcDbEntity
  8
0
100
AcDbLine
 10
295.1199968307428
 20
263.005229971933
 30
0.0
 11
314.0648240618577
 21
273.1661895989432
 31
0.0
  0
LINE
  5
112
330
1F
100
AcDbEntity
  8
0
100
AcDbLine
 10
288.1549635539212
 20
213.5589159698673
 30
0.0
 11
284.2340355028385
 21
235.4935675461045
 31
0.0
  0
LINE
  5
113
330
1F
100
AcDbEntity
  8
0
100
AcDbLine
 10
284.2340355028385
 20
235.4935675461045
 30
0.0
 11
274.4871593697644
 21
255.8501134166075
 31
0.0
  0
LINE
  5
114
330
1F
100
AcDbEntity
  8
0
100
AcDbLine
 10
274.4871593697644
 20
255.8501134166075
 30
0.0
 11
259.6275538067675
 21
273.2890364631857
 31
0.0
  0
LINE
  5
115
330
1F
100
AcDbEntity
  8
0
100
AcDbLine
 10
259.6275538067675
 20
273.2890364631857
 30
0.0
 11
240.6841679266414
 21
286.6865559282654
 31
0.0
  0
LINE
  5
116
330
1F
100
AcDbEntity
  8
0
100
AcDbLine
 10
240.6841679266414
 20
286.6865559282654
 30
0.0
 11
218.9278059234185
 21
295.1941246829968
 31
0.0
  0
LINE
  5
117
330
1F
100
AcDbEntity
  8
0
100
AcDbLine
 10
218.9278059234185
 20
295.1941246829968
 30
0.0
 11
195.790166227592
 21
298.2795539249032
 31
0.0
  0
LINE
  5
118
330
1F
100
AcDbEntity
  8
0
100
AcDbLine
 10
195.790166227592
 20
298.2795539249032
 30
0.0
 11
172.7796690730965
 21
295.7511078048367
 31
0.0
  0
LINE
  5
119
330
1F
100
AcDbEntity
  8
0
100
AcDbLine
 10
175.7233036819987
 20
131.698538489878
 30
0.0
 11
199.5650162043173
 21
128.4192753532486
 31
0.0
  0
LINE
  5
11A
330
1F
100
AcDbEntity
  8
0
100
AcDbLine
 10
199.5650162043173
 20
128.4192753532486
 30
0.0
 11
223.2766511747476
 21
131.1071283208917
 31
0.0
  0
LINE
  5
11B
330
1F
100
AcDbEntity
  8
0
100
AcDbLine
 10
223.2766511747476
 20
131.1071283208917
 30
0.0
 11
245.170228015113
 21
139.5622844836224
 31
0.0
  0
LINE
  5
11C
330
1F
100
AcDbEntity
  8
0
100
AcDbLine
 10
245.170228015113
 20
139.5622844836224
 30
0.0
 11
263.7019209282324
 21
153.1597242518847
 31
0.0
  0
LINE
  5
11D
330
1F
100
AcDbEntity
  8
0
100
AcDbLine
 10
263.7019209282324
 20
153.1597242518847
 30
0.0
 11
277.5914181695626
 21
170.9055081034529
 31
0.0
  0
LINE
  5
11E
330
1F
100
AcDbEntity
  8
0
100
AcDbLine
 10
277.5914181695626
 20
170.9055081034529
 30
0.0
 11
285.9135526336296
 21
191.5231631351207
 31
0.0
  0
LINE
  5
11F
330
1F
100
AcDbEntity
  8
0
100
AcDbLine
 10
285.9135526336296
 20
191.5231631351207
 30
0.0
 11
288.1549635539212
 21
213.5589159698673
 31
0.0
  0
LINE
  5
120
330
1F
100
AcDbEntity
  8
0
100
AcDbLine
 10
-38.10436074766532
 20
-297.7527758049749
 30
0.0
 11
-10.17979911007315
 21
-276.4462320523498
 31
0.0
  0
LINE
  5
121
330
1F
100
AcDbEntity
  8
0
100
AcDbLine
 10
-38.10436074766532
 20
-297.7527758049749
 30
0.0
 11
-49.99168756379058
 21
-275.704086335207
 31
0.0
  0
LINE
  5
122
330
1F
100
AcDbEntity
  8
0
100
AcDbLine
 10
-49.99168756379058
 20
-275.704086335207
 30
0.0
 11
-53.17493180941423
 21
-278.1202995328343
 31
0.0
  0
LINE
  5
123
330
1F
100
AcDbEntity
  8
0
100
AcDbLine
 10
-53.17493180941423
 20
-278.1202995328343
 30
0.0
 11
-56.85576224690096
 21
-279.6177655161316
 31
0.0
  0
LINE
  5
124
330
1F
100
AcDbEntity
  8
0
100
AcDbLine
 10
-56.85576224690096
 20
-279.6177655161316
 30
0.0
 11
-44.98600816598643
 21
-301.6954709222434
 31
0.0
  0
LINE
  5
125
330
1F
100
AcDbEntity
  8
0
100
AcDbLine
 10
-77.50723295732944
 20
-314.9857561169535
 30
0.0
 11
-44.98600816598643
 21
-301.6954709222434
 31
0.0
  0
LINE
  5
126
330
1F
100
AcDbEntity
  8
0
100
AcDbLine
 10
-112.2510388315572
 20
-319.2145391810297
 30
0.0
 11
-77.50723295732944
 21
-314.9857561169535
 31
0.0
  0
LINE
  5
127
330
1F
100
AcDbEntity
  8
0
100
AcDbLine
 10
-112.2510388315572
 20
-319.2145391810297
 30
0.0
 11
-111.4479282786861
 21
-293.6094191543064
 31
0.0
  0
LINE
  5
128
330
1F
100
AcDbEntity
  8
0
100
AcDbLine
 10
-111.4479282786861
 20
-293.6094191543064
 30
0.0
 11
-115.3875884941907
 21
-294.0868911172253
 31
0.0
  0
LINE
  5
129
330
1F
100
AcDbEntity
  8
0
100
AcDbLine
 10
-115.3875884941907
 20
-294.0868911172253
 30
0.0
 11
-119.2932350632514
 21
-293.5043088703266
 31
0.0
  0
LINE
  5
12A
330
1F
100
AcDbEntity
  8
0
100
AcDbLine
 10
-119.2932350632514
 20
-293.5043088703266
 30
0.0
 11
-120.1299298885696
 21
-319.108526666869
 31
0.0
  0
LINE
  5
12B
330
1F
100
AcDbEntity
  8
0
100
AcDbLine
 10
-154.566542960949
 20
-313.9497141038696
 30
0.0
 11
-120.1299298885696
 21
-319.108526666869
 31
0.0
  0
LINE
  5
12C
330
1F
100
AcDbEntity
  8
0
100
AcDbLine
 10
-186.1934418554487
 20
-299.8013175839627
 30
0.0
 11
-154.566542960949
 21
-313.9497141038696
 31
0.0
  0
LINE
  5
12D
330
1F
100
AcDbEntity
  8
0
100
AcDbLine
 10
-186.1934418554487
 20
-299.8013175839627
 30
0.0
 11
-172.9279880020489
 21
-278.0664757683423
 31
0.0
  0
LINE
  5
12E
330
1F
100
AcDbEntity
  8
0
100
AcDbLine
 10
-172.9279880020489
 20
-278.0664757683423
 30
0.0
 11
-176.5078737379712
 21
-276.472398694058
 31
0.0
  0
LINE
  5
12F
330
1F
100
AcDbEntity
  8
0
100
AcDbLine
 10
-176.5078737379712
 20
-276.472398694058
 30
0.0
 11
-179.531983361252
 21
-273.9739602032049
 31
0.0
  0
LINE
  5
130
330
1F
100
AcDbEntity
  8
0
100
AcDbLine
 10
-179.531983361252
 20
-273.9739602032049
 30
0.0
 11
-192.8123538915077
 21
-295.6789249221168
 31
0.0
  0
LINE
  5
131
330
1F
100
AcDbEntity
  8
0
100
AcDbLine
 10
-219.3271291212788
 20
-273.6527844121987
 30
0.0
 11
-192.8123538915077
 21
-295.6789249221168
 31
0.0
  0
LINE
  5
132
330
1F
100
AcDbEntity
  8
0
100
AcDbLine
 10
-234.9911236125259
 20
-99.72396251528997
 30
0.0
 11
-214.9120622453742
 21
-111.8732387180715
 31
0.0
  0
LINE
  5
133
330
1F
100
AcDbEntity
  8
0
100
AcDbLine
 10
-70.281644138578
 20
-32.7011104820486
 30
0.0
 11
-103.1177335678701
 21
-28.0225274693798
 31
0.0
  0
LINE
  5
134
330
1F
100
AcDbEntity
  8
0
100
AcDbLine
 10
-39.80764301515939
 20
-45.61347352281098
 30
0.0
 11
-70.281644138578
 21
-32.7011104820486
 31
0.0
  0
LINE
  5
135
330
1F
100
AcDbEntity
  8
0
100
AcDbLine
 10
-39.80764301515939
 20
-45.61347352281098
 30
0.0
 11
-52.08796081682007
 21
-65.6839876711038
 31
0.0
  0
LINE
  5
136
330
1F
100
AcDbEntity
  8
0
100
AcDbLine
 10
-7.18981517048013
 20
-69.7948627401411
 30
0.0
 11
-33.36460988092021
 21
-49.39823868884412
 31
0.0
  0
LINE
  5
137
330
1F
100
AcDbEntity
  8
0
100
AcDbLine
 10
12.90268476220024
 20
-96.40981586641374
 30
0.0
 11
-7.18981517048013
 21
-69.7948627401411
 31
0.0
  0
LINE
  5
138
330
1F
100
AcDbEntity
  8
0
100
AcDbLine
 10
12.90268476220024
 20
-96.40981586641374
 30
0.0
 11
-7.942576297816784
 21
-108.0074034029845
 31
0.0
  0
LINE
  5
139
330
1F
100
AcDbEntity
  8
0
100
AcDbLine
 10
-7.942576297816784
 20
-108.0074034029845
 30
0.0
 11
-5.650854673721054
 21
-111.0637529175899
 31
0.0
  0
LINE
  5
13A
330
1F
100
AcDbEntity
  8
0
100
AcDbLine
 10
-4.231467748584362
 20
-114.6107406972396
 30
0.0
 11
16.63006834448659
 21
-102.9867254901388
 31
0.0
  0
LINE
  5
13B
330
1F
100
AcDbEntity
  8
0
100
AcDbLine
 10
-14.60817283087209
 20
-171.2200625428381
 30
0.0
 11
-17.50493506332944
 21
-146.0989850579174
 31
0.0
  0
LINE
  5
13C
330
1F
100
AcDbEntity
  8
0
100
AcDbLine
 10
-17.50493506332944
 20
-146.0989850579174
 30
0.0
 11
-26.72585533340702
 21
-122.7979284004617
 31
0.0
  0
LINE
  5
13D
330
1F
100
AcDbEntity
  8
0
100
AcDbLine
 10
-26.72585533340702
 20
-122.7979284004617
 30
0.0
 11
-41.5834933812838
 21
-102.8462087204067
 31
0.0
  0
LINE
  5
13E
330
1F
100
AcDbEntity
  8
0
100
AcDbLine
 10
-41.5834933812838
 20
-102.8462087204067
 30
0.0
 11
-61.04263692140502
 21
-87.52429276590001
 31
0.0
  0
LINE
  5
13F
330
1F
100
AcDbEntity
  8
0
100
AcDbLine
 10
-61.04263692140502
 20
-87.52429276590001
 30
0.0
 11
-83.79616541561155
 21
-77.79744791484974
 31
0.0
  0
LINE
  5
140
330
1F
100
AcDbEntity
  8
0
100
AcDbLine
 10
-83.79616541561155
 20
-77.79744791484974
 30
0.0
 11
-108.3487066963673
 21
-74.27035038684178
 31
0.0
  0
LINE
  5
141
330
1F
100
AcDbEntity
  8
0
100
AcDbLine
 10
-108.3487066963673
 20
-74.27035038684178
 30
0.0
 11
-133.1040202423417
 21
-77.16071395926711
 31
0.0
  0
LINE
  5
142
330
1F
100
AcDbEntity
  8
0
100
AcDbLine
 10
-133.1040202423417
 20
-77.16071395926711
 30
0.0
 11
-156.4538798546384
 21
-86.29018890693455
 31
0.0
  0
LINE
  5
143
330
1F
100
AcDbEntity
  8
0
100
AcDbLine
 10
-156.4538798546384
 20
-86.29018890693455
 30
0.0
 11
-176.8673169265223
 21
-101.0918020179348
 31
0.0
  0
LINE
  5
144
330
1F
100
AcDbEntity
  8
0
100
AcDbLine
 10
-176.8673169265223
 20
-101.0918020179348
 30
0.0
 11
-192.9791637453607
 21
-120.634538846675
 31
0.0
  0
LINE
  5
145
330
1F
100
AcDbEntity
  8
0
100
AcDbLine
 10
-192.9791637453607
 20
-120.634538846675
 30
0.0
 11
-203.6758818131765
 21
-143.6667460814232
 31
0.0
  0
LINE
  5
146
330
1F
100
AcDbEntity
  8
0
100
AcDbLine
 10
-203.6758818131765
 20
-143.6667460814232
 30
0.0
 11
-208.1748887077277
 21
-168.680323288262
 31
0.0
  0
LINE
  5
147
330
1F
100
AcDbEntity
  8
0
100
AcDbLine
 10
-208.1748887077277
 20
-168.680323288262
 30
0.0
 11
-206.0914654366639
 21
-193.9967616728303
 31
0.0
  0
LINE
  5
148
330
1F
100
AcDbEntity
  8
0
100
AcDbLine
 10
-206.0914654366639
 20
-193.9967616728303
 30
0.0
 11
-197.4855088267302
 21
-217.8737849492004
 31
0.0
  0
LINE
  5
149
330
1F
100
AcDbEntity
  8
0
100
AcDbLine
 10
-197.4855088267302
 20
-217.8737849492004
 30
0.0
 11
-182.8796859279912
 21
-238.6278287301105
 31
0.0
  0
LINE
  5
14A
330
1F
100
AcDbEntity
  8
0
100
AcDbLine
 10
-182.8796859279912
 20
-238.6278287301105
 30
0.0
 11
-163.2416680475626
 21
-254.7634886604833
 31
0.0
  0
LINE
  5
14B
330
1F
100
AcDbEntity
  8
0
100
AcDbLine
 10
-163.2416680475626
 20
-254.7634886604833
 30
0.0
 11
-139.9264318251893
 21
-265.0974182438679
 31
0.0
  0
LINE
  5
14C
330
1F
100
AcDbEntity
  8
0
100
AcDbLine
 10
-139.9264318251893
 20
-265.0974182438679
 30
0.0
 11
-114.5798527516107
 21
-268.8621918172407
 31
0.0
  0
LINE
  5
14D
330
1F
100
AcDbEntity
  8
0
100
AcDbLine
 10
-114.5798527516107
 20
-268.8621918172407
 30
0.0
 11
-89.01100047251579
 21
-265.7763660087398
 31
0.0
  0
LINE
  5
14E
330
1F
100
AcDbEntity
  8
0
100
AcDbLine
 10
-89.01100047251579
 20
-265.7763660087398
 30
0.0
 11
-65.04616136938441
 21
-256.0707015958258
 31
0.0
  0
LINE
  5
14F
330
1F
100
AcDbEntity
  8
0
100
AcDbLine
 10
-65.04616136938441
 20
-256.0707015958258
 30
0.0
 11
-44.38109308939481
 21
-240.4666428740675
 31
0.0
  0
LINE
  5
150
330
1F
100
AcDbEntity
  8
0
100
AcDbLine
 10
-44.38109308939481
 20
-240.4666428740675
 30
0.0
 11
-28.44832038258863
 21
-220.1102634058863
 31
0.0
  0
LINE
  5
151
330
1F
100
AcDbEntity
  8
0
100
AcDbLine
 10
-28.44832038258863
 20
-220.1102634058863
 30
0.0
 11
-18.31332587363393
 21
-196.4711942851355
 31
0.0
  0
LINE
  5
152
330
1F
100
AcDbEntity
  8
0
100
AcDbLine
 10
-18.31332587363393
 20
-196.4711942851355
 30
0.0
 11
-14.60817283087209
 21
-171.2200625428381
 31
0.0
  0
LINE
  5
153
330
1F
100
AcDbEntity
  8
0
100
AcDbLine
 10
75.18754992850631
 20
-16.59451437913414
 30
0.0
 11
80.60871219580685
 21
-16.70507920395436
 31
0.0
  0
LINE
  5
154
330
1F
100
AcDbEntity
  8
0
100
AcDbLine
 10
80.60871219580685
 20
-16.70507920395436
 30
0.0
 11
81.95681480807717
 21
-16.71986322755836
 31
0.0
  0
LINE
  5
155
330
1F
100
AcDbEntity
  8
0
100
AcDbLine
 10
81.95681480807717
 20
-16.71986322755836
 30
0.0
 11
85.27733225806308
 21
-16.7051634065545
 31
0.0
  0
LINE
  5
156
330
1F
100
AcDbEntity
  8
0
100
AcDbLine
 10
85.25153221760867
 20
-9.333655503848973
 30
0.0
 11
85.27733225806308
 21
-16.7051634065545
 31
0.0
  0
LINE
  5
157
330
1F
100
AcDbEntity
  8
0
100
AcDbLine
 10
85.25153221760867
 20
-9.333655503848973
 30
0.0
 11
105.4063741568756
 21
-9.593133562429239
 31
0.0
  0
LINE
  5
158
330
1F
100
AcDbEntity
  8
0
100
AcDbLine
 10
105.4063741568756
 20
-9.593133562429239
 30
0.0
 11
105.4426323802273
 21
-16.96512640278393
 31
0.0
  0
LINE
  5
159
330
1F
100
AcDbEntity
  8
0
100
AcDbLine
 10
105.4426323802273
 20
-16.96512640278393
 30
0.0
 11
116.0283130078728
 21
-17.103143862991
 31
0.0
  0
LINE
  5
15A
330
1F
100
AcDbEntity
  8
0
100
AcDbLine
 10
115.9766553908187
 20
-9.730126266881966
 30
0.0
 11
116.0283130078728
 21
-17.103143862991
 31
0.0
  0
LINE
  5
15B
330
1F
100
AcDbEntity
  8
0
100
AcDbLine
 10
115.9766553908187
 20
-9.730126266881966
 30
0.0
 11
164.9111203591233
 21
-10.3785823629832
 31
0.0
  0
LINE
  5
15C
330
1F
100
AcDbEntity
  8
0
100
AcDbLine
 10
164.9111203591233
 20
-10.3785823629832
 30
0.0
 11
165.0251118729433
 21
-17.74549288226446
 31
0.0
  0
LINE
  5
15D
330
1F
100
AcDbEntity
  8
0
100
AcDbLine
 10
188.9308374324822
 20
-10.73243895698999
 30
0.0
 11
189.0754257395067
 21
-18.02996060704421
 31
0.0
  0
LINE
  5
15E
330
1F
100
AcDbEntity
  8
0
100
AcDbLine
 10
188.9308374324822
 20
-10.73243895698999
 30
0.0
 11
212.6166967656227
 21
-11.0437541925754
 31
0.0
  0
LINE
  5
15F
330
1F
100
AcDbEntity
  8
0
100
AcDbLine
 10
212.6166967656227
 20
-11.0437541925754
 30
0.0
 11
214.1083644633771
 21
-73.59850119918381
 31
0.0
  0
LINE
  5
160
330
1F
100
AcDbEntity
  8
0
100
AcDbLine
 10
214.1083644633771
 20
-73.59850119918381
 30
0.0
 11
190.163374507067
 21
-73.28683968451827
 31
0.0
  0
LINE
  5
161
330
1F
100
AcDbEntity
  8
0
100
AcDbLine
 10
190.0150801376782
 20
-65.801816966478
 30
0.0
 11
190.163374507067
 21
-73.28683968451827
 31
0.0
  0
LINE
  5
162
330
1F
100
AcDbEntity
  8
0
100
AcDbLine
 10
190.0150801376782
 20
-65.801816966478
 30
0.0
 11
172.1024431841545
 21
-65.59496572968555
 31
0.0
  0
LINE
  5
163
330
1F
100
AcDbEntity
  8
0
100
AcDbLine
 10
165.8795896859451
 20
-72.97076850750925
 30
0.0
 11
165.764192156615
 21
-65.51257560097989
 31
0.0
  0
LINE
  5
164
330
1F
100
AcDbEntity
  8
0
100
AcDbLine
 10
165.8795896859451
 20
-72.97076850750925
 30
0.0
 11
116.4073354164859
 21
-72.31382299532576
 31
0.0
  0
LINE
  5
165
330
1F
100
AcDbEntity
  8
0
100
AcDbLine
 10
116.4073354164859
 20
-72.31382299532576
 30
0.0
 11
116.3559333250596
 21
-64.84433529992712
 31
0.0
  0
LINE
  5
166
330
1F
100
AcDbEntity
  8
0
100
AcDbLine
 10
116.3559333250596
 20
-64.84433529992712
 30
0.0
 11
105.683485568374
 21
-64.7315940451822
 31
0.0
  0
LINE
  5
167
330
1F
100
AcDbEntity
  8
0
100
AcDbLine
 10
105.7209574392071
 20
-72.18776001679426
 30
0.0
 11
105.683485568374
 21
-64.7315940451822
 31
0.0
  0
LINE
  5
168
330
1F
100
AcDbEntity
  8
0
100
AcDbLine
 10
105.7209574392071
 20
-72.18776001679426
 30
0.0
 11
85.34457555462335
 21
-71.92254653986025
 31
0.0
  0
LINE
  5
169
330
1F
100
AcDbEntity
  8
0
100
AcDbLine
 10
85.34457555462335
 20
-71.92254653986025
 30
0.0
 11
85.33349315200947
 21
-64.46706705073906
 31
0.0
  0
LINE
  5
16A
330
1F
100
AcDbEntity
  8
0
100
AcDbLine
 10
85.33349315200947
 20
-64.46706705073906
 30
0.0
 11
75.15919909065944
 21
-64.33481268063385
 31
0.0
  0
LINE
  5
16B
330
1F
100
AcDbEntity
  8
0
100
AcDbLine
 10
85.12216994536111
 20
70.95658764616977
 30
0.0
 11
85.14744065302587
 21
63.79161709674293
 31
0.0
  0
LINE
  5
16C
330
1F
100
AcDbEntity
  8
0
100
AcDbLine
 10
105.0280346717852
 20
63.53894260444564
 30
0.0
 11
115.4642497579735
 21
63.40479483023292
 31
0.0
  0
LINE
  5
16D
330
1F
100
AcDbEntity
  8
0
100
AcDbLine
 10
115.414039599934
 20
70.57121867710254
 30
0.0
 11
115.4642497579735
 21
63.40479483023292
 31
0.0
  0
LINE
  5
16E
330
1F
100
AcDbEntity
  8
0
100
AcDbLine
 10
163.6591287103935
 20
69.89134838255958
 30
0.0
 11
163.769139905384
 21
62.78045697776747
 31
0.0
  0
LINE
  5
16F
330
1F
100
AcDbEntity
  8
0
100
AcDbLine
 10
210.6897658208743
 20
69.34396391243926
 30
0.0
 11
212.1392949025122
 21
8.551797120834133
 31
0.0
  0
LINE
  5
170
330
1F
100
AcDbEntity
  8
0
100
AcDbLine
 10
212.1392949025122
 20
8.551797120834133
 30
0.0
 11
188.5350672494801
 21
8.854642024197416
 31
0.0
  0
LINE
  5
171
330
1F
100
AcDbEntity
  8
0
100
AcDbLine
 10
188.5350672494801
 20
8.854642024197416
 30
0.0
 11
188.3928799427263
 21
16.07724114695745
 31
0.0
  0
LINE
  5
172
330
1F
100
AcDbEntity
  8
0
100
AcDbLine
 10
188.3928799427263
 20
16.07724114695745
 30
0.0
 11
170.7353230385314
 21
16.27824431854116
 31
0.0
  0
LINE
  5
173
330
1F
100
AcDbEntity
  8
0
100
AcDbLine
 10
170.7353230385314
 20
16.27824431854116
 30
0.0
 11
166.7964946589332
 21
16.32871586961524
 31
0.0
  0
LINE
  5
174
330
1F
100
AcDbEntity
  8
0
100
AcDbLine
 10
115.8324862250158
 20
9.749446770301338
 30
0.0
 11
115.7825510225593
 21
17.0076547734022
 31
0.0
  0
LINE
  5
175
330
1F
100
AcDbEntity
  8
0
100
AcDbLine
 10
115.7825510225593
 20
17.0076547734022
 30
0.0
 11
105.2620356906387
 21
17.11720911921181
 31
0.0
  0
LINE
  5
176
330
1F
100
AcDbEntity
  8
0
100
AcDbLine
 10
105.2984347431553
 20
9.871941742202342
 30
0.0
 11
105.2620356906387
 21
17.11720911921181
 31
0.0
  0
LINE
  5
177
330
1F
100
AcDbEntity
  8
0
100
AcDbLine
 10
165.7095726506067
 20
183.8187589773078
 30
0.0
 11
185.1842435662236
 21
183.5788246635484
 31
0.0
  0
LINE
  5
178
330
1F
100
AcDbEntity
  8
0
100
AcDbLine
 10
185.1842435662236
 20
183.5788246635484
 30
0.0
 11
185.3196151422858
 21
176.752953533347
 31
0.0
  0
LINE
  5
179
330
1F
100
AcDbEntity
  8
0
100
AcDbLine
 10
185.3196151422858
 20
176.752953533347
 30
0.0
 11
165.8207768155865
 21
176.9934835845984
 31
0.0
  0
LINE
  5
17A
330
1F
100
AcDbEntity
  8
0
100
AcDbLine
 10
200.6630846225412
 20
183.1036867054563
 30
0.0
 11
199.7329029314712
 21
183.4754803003281
 31
0.0
  0
LINE
  5
17B
330
1F
100
AcDbEntity
  8
0
100
AcDbLine
 10
199.7329029314712
 20
183.4754803003281
 30
0.0
 11
198.7407169043985
 21
183.6105959489068
 31
0.0
  0
LINE
  5
17C
330
1F
100
AcDbEntity
  8
0
100
AcDbLine
 10
195.4692187605814
 20
181.8470649195409
 30
0.0
 11
196.0606288162308
 21
182.5870940357255
 31
0.0
  0
LINE
  5
17D
330
1F
100
AcDbEntity
  8
0
100
AcDbLine
 10
-124.5883629695361
 20
-204.3647294864087
 30
0.0
 11
-124.8549109339813
 21
-212.1878823607603
 31
0.0
  0
LINE
  5
17E
330
1F
100
AcDbEntity
  8
0
100
AcDbLine
 10
-145.4217690429392
 20
-204.0897649013718
 30
0.0
 11
-124.5883629695361
 21
-204.3647294864087
 31
0.0
  0
LINE
  5
17F
330
1F
100
AcDbEntity
  8
0
100
AcDbLine
 10
-124.8549109339813
 20
-212.1878823607603
 30
0.0
 11
-145.7159767388609
 21
-211.9121868242643
 31
0.0
  0
LINE
  5
180
330
1F
100
AcDbEntity
  8
0
100
AcDbLine
 10
-114.5466433752541
 20
-223.1368013159104
 30
0.0
 11
-106.7935936130784
 21
-223.2394518802134
 31
0.0
  0
LINE
  5
181
330
1F
100
AcDbEntity
  8
0
100
AcDbLine
 10
-115.233005851175
 20
-244.4102412881731
 30
0.0
 11
-114.5466433752541
 21
-223.1368013159104
 31
0.0
  0
LINE
  5
182
330
1F
100
AcDbEntity
  8
0
100
AcDbLine
 10
-145.7159767388609
 20
-211.9121868242643
 30
0.0
 11
-145.4217690429392
 21
-204.0897649013718
 31
0.0
  0
LINE
  5
183
330
1F
100
AcDbEntity
  8
0
100
AcDbLine
 10
-106.7935936130784
 20
-223.2394518802134
 30
0.0
 11
-107.4520517745142
 21
-244.5136324013564
 31
0.0
  0
LINE
  5
184
330
1F
100
AcDbEntity
  8
0
100
AcDbLine
 10
-107.4520517745142
 20
-244.5136324013564
 30
0.0
 11
-115.233005851175
 21
-244.4102412881731
 31
0.0
  0
LINE
  5
185
330
1F
100
AcDbEntity
  8
0
100
AcDbLine
 10
161.0285475696569
 20
200.8176900301262
 30
0.0
 11
167.7394674583158
 21
209.1210686352744
 31
0.0
  0
LINE
  5
186
330
1F
100
AcDbEntity
  8
0
100
AcDbLine
 10
176.5370430596416
 20
215.4305913861433
 30
0.0
 11
186.8259947287088
 21
219.3311128802618
 31
0.0
  0
LINE
  5
187
330
1F
100
AcDbEntity
  8
0
100
AcDbLine
 10
186.8259947287088
 20
219.3311128802618
 30
0.0
 11
197.9167135699855
 21
220.5674209920091
 31
0.0
  0
LINE
  5
188
330
1F
100
AcDbEntity
  8
0
100
AcDbLine
 10
197.9167135699855
 20
220.5674209920091
 30
0.0
 11
209.0691870642184
 21
219.0588513713589
 31
0.0
  0
LINE
  5
189
330
1F
100
AcDbEntity
  8
0
100
AcDbLine
 10
209.0691870642184
 20
219.0588513713589
 30
0.0
 11
219.5392638962953
 21
214.9038470992911
 31
0.0
  0
LINE
  5
18A
330
1F
100
AcDbEntity
  8
0
100
AcDbLine
 10
235.7122703225217
 20
199.9003957021943
 30
0.0
 11
240.3135998205288
 21
190.0443841549163
 31
0.0
  0
LINE
  5
18B
330
1F
100
AcDbEntity
  8
0
100
AcDbLine
 10
236.9018548539445
 20
159.0251227363237
 30
0.0
 11
230.2352809058734
 21
150.5690090767353
 31
0.0
  0
LINE
  5
18C
330
1F
100
AcDbEntity
  8
0
100
AcDbLine
 10
221.3959373873848
 20
144.1088697854681
 30
0.0
 11
210.9902928450243
 21
140.100209512143
 31
0.0
  0
LINE
  5
18D
330
1F
100
AcDbEntity
  8
0
100
AcDbLine
 10
210.9902928450243
 20
140.100209512143
 30
0.0
 11
199.7392239941006
 21
138.8272191380559
 31
0.0
  0
LINE
  5
18E
330
1F
100
AcDbEntity
  8
0
100
AcDbLine
 10
199.7392239941006
 20
138.8272191380559
 30
0.0
 11
188.4257118462267
 21
140.38039338603
 31
0.0
  0
LINE
  5
18F
330
1F
100
AcDbEntity
  8
0
100
AcDbLine
 10
188.4257118462267
 20
140.38039338603
 30
0.0
 11
177.8370606717507
 21
144.6493357342333
 31
0.0
  0
LINE
  5
190
330
1F
100
AcDbEntity
  8
0
100
AcDbLine
 10
161.6614915614709
 20
159.9561379701008
 30
0.0
 11
157.1768547763426
 21
169.9202799446811
 31
0.0
  0
LINE
  5
191
330
1F
100
AcDbEntity
  8
0
100
AcDbLine
 10
271.1367141483984
 20
-209.149925637778
 30
0.0
 11
270.3254501098983
 21
-184.6353190030675
 31
0.0
  0
LINE
  5
192
330
1F
100
AcDbEntity
  8
0
100
AcDbLine
 10
271.1367141483984
 20
-209.149925637778
 30
0.0
 11
263.3956021343506
 21
-209.0477640612532
 31
0.0
  0
LINE
  5
193
330
1F
100
AcDbEntity
  8
0
100
AcDbLine
 10
264.1864371693244
 20
-233.9321956689848
 30
0.0
 11
263.3956021343506
 21
-209.0477640612532
 31
0.0
  0
LINE
  5
194
330
1F
100
AcDbEntity
  8
0
100
AcDbLine
 10
213.9223428077358
 20
-233.2660472516872
 30
0.0
 11
264.1864371693244
 21
-233.9321956689848
 31
0.0
  0
LINE
  5
195
330
1F
100
AcDbEntity
  8
0
100
AcDbLine
 10
213.3428887763784
 20
-208.3872046902631
 30
0.0
 11
213.9223428077358
 21
-233.2660472516872
 31
0.0
  0
LINE
  5
196
330
1F
100
AcDbEntity
  8
0
100
AcDbLine
 10
205.6037800172462
 20
-208.2850695512422
 30
0.0
 11
213.3428887763784
 21
-208.3872046902631
 31
0.0
  0
LINE
  5
197
330
1F
100
AcDbEntity
  8
0
100
AcDbLine
 10
205.0651493455352
 20
-183.7776413869784
 30
0.0
 11
205.6037800172462
 21
-208.2850695512422
 31
0.0
  0
LINE
  5
198
330
1F
100
AcDbEntity
  8
0
100
AcDbLine
 10
81.87380103010983
 20
63.77732940150007
 30
0.0
 11
85.14744065302587
 21
63.79161709674293
 31
0.0
  0
LINE
  5
199
330
1F
100
AcDbEntity
  8
0
100
AcDbLine
 10
26.59356771841656
 20
204.5199507663966
 30
0.0
 11
33.78769609141833
 21
204.4316227592305
 31
0.0
  0
LINE
  5
19A
330
1F
100
AcDbEntity
  8
0
100
AcDbLine
 10
3.334139550355501
 20
204.8055251725495
 30
0.0
 11
10.52751821812345
 21
204.7172063701078
 31
0.0
  0
LINE
  5
19B
330
1F
100
AcDbEntity
  8
0
100
AcDbLine
 10
3.334139550355501
 20
204.8055251725495
 30
0.0
 11
3.133046791959599
 21
189.6554673948635
 31
0.0
  0
LINE
  5
19C
330
1F
100
AcDbEntity
  8
0
100
AcDbLine
 10
33.67078249036553
 20
189.2794947885556
 30
0.0
 11
33.78769609141833
 21
204.4316227592305
 31
0.0
  0
LINE
  5
19D
330
1F
100
AcDbEntity
  8
0
100
AcDbLine
 10
-225.1926506396119
 20
207.6113294222066
 30
0.0
 11
-226.0250653655375
 21
192.4768020719119
 31
0.0
  0
LINE
  5
19E
330
1F
100
AcDbEntity
  8
0
100
AcDbLine
 10
-195.5186783561439
 20
192.1012154224547
 30
0.0
 11
-194.7702702516391
 21
207.2378097831898
 31
0.0
  0
LINE
  5
19F
330
1F
100
AcDbEntity
  8
0
100
AcDbLine
 10
-75.69274747509965
 20
154.7679179277997
 30
0.0
 11
-75.27169713486448
 21
170.110675368007
 31
0.0
  0
LINE
  5
1A0
330
1F
100
AcDbEntity
  8
0
100
AcDbLine
 10
-105.9084583919058
 20
170.4892751447177
 30
0.0
 11
-106.414705164353
 21
155.1486270865499
 31
0.0
  0
LINE
  5
1A1
330
1F
100
AcDbEntity
  8
0
100
AcDbLine
 10
-82.50910682903948
 20
170.2001130755763
 30
0.0
 11
-75.27169713486448
 21
170.110675368007
 31
0.0
  0
LINE
  5
1A2
330
1F
100
AcDbEntity
  8
0
100
AcDbLine
 10
-126.8016648942545
 20
-9.554943710451656
 30
0.0
 11
47.2496175031533
 21
-11.77614304386748
 31
0.0
  0
LINE
  5
1A3
330
1F
100
AcDbEntity
  8
0
100
AcDbLine
 10
-126.8016648942545
 20
-9.554943710451656
 30
0.0
 11
-120.3810558182893
 21
170.6681231015262
 31
0.0
  0
LINE
  5
1A4
330
1F
100
AcDbEntity
  8
0
100
AcDbLine
 10
-241.7358194268344
 20
172.1677883572459
 30
0.0
 11
-227.1519946398374
 21
171.9875658865473
 31
0.0
  0
LINE
  5
1A5
330
1F
100
AcDbEntity
  8
0
100
AcDbLine
 10
49.02228525556722
 20
338.5445818038369
 30
0.0
 11
-231.9504983529813
 21
341.9097772629314
 31
0.0
  0
LINE
  5
1A6
330
1F
100
AcDbEntity
  8
0
100
AcDbLine
 10
-226.2771702015344
 20
53.47575922044105
 30
0.0
 11
-233.6651376837776
 21
53.56901986034754
 31
0.0
  0
LINE
  5
1A7
330
1F
100
AcDbEntity
  8
0
100
AcDbLine
 10
-226.2771702015344
 20
53.47575922044105
 30
0.0
 11
-227.2954233841946
 21
34.50973003044184
 31
0.0
  0
LINE
  5
1A8
330
1F
100
AcDbEntity
  8
0
100
AcDbLine
 10
-235.3373775375796
 20
23.16523312359568
 30
0.0
 11
-203.8912187348218
 21
22.76613377650297
 31
0.0
  0
LINE
  5
1A9
330
1F
100
AcDbEntity
  8
0
100
AcDbLine
 10
-209.7764926417493
 20
53.26746597174681
 30
0.0
 11
-210.739211343277
 21
34.30003143277331
 31
0.0
  0
LINE
  5
1AA
330
1F
100
AcDbEntity
  8
0
100
AcDbLine
 10
-209.7764926417493
 20
53.26746597174681
 30
0.0
 11
-202.3877339233164
 21
53.17419534381635
 31
0.0
  0
LINE
  5
1AB
330
1F
100
AcDbEntity
  8
0
100
AcDbLine
 10
-196.5318792881616
 20
171.6091718148721
 30
0.0
 11
-202.3877339233164
 21
53.17419534381635
 31
0.0
  0
LINE
  5
1AC
330
1F
100
AcDbEntity
  8
0
100
AcDbLine
 10
-105.9084583919058
 20
170.4892751447177
 30
0.0
 11
-98.67180763594997
 21
170.399846815876
 31
0.0
  0
LINE
  5
1AD
330
1F
100
AcDbEntity
  8
0
100
AcDbLine
 10
-99.15793138070158
 20
155.0587005177303
 30
0.0
 11
-98.67180763594997
 21
170.399846815876
 31
0.0
  0
LINE
  5
1AE
330
1F
100
AcDbEntity
  8
0
100
AcDbLine
 10
24.84051291667783
 20
10.35655155879119
 30
0.0
 11
32.28948495533798
 21
10.26185418891236
 31
0.0
  0
LINE
  5
1AF
330
1F
100
AcDbEntity
  8
0
100
AcDbLine
 10
24.98635739733322
 20
26.50987437086646
 30
0.0
 11
24.84051291667783
 21
10.35655155879119
 31
0.0
  0
LINE
  5
1B0
330
1F
100
AcDbEntity
  8
0
100
AcDbLine
 10
24.98635739733322
 20
26.50987437086646
 30
0.0
 11
32.41412791528219
 21
26.41571535272494
 31
0.0
  0
LINE
  5
1B1
330
1F
100
AcDbEntity
  8
0
100
AcDbLine
 10
-211.8467836002294
 20
322.2567835902619
 30
0.0
 11
-218.8823800703946
 21
322.3413546645547
 31
0.0
  0
LINE
  5
1B2
330
1F
100
AcDbEntity
  8
0
100
AcDbLine
 10
-82.95028442463844
 20
154.857853953837
 30
0.0
 11
-75.69274747509965
 21
154.7679179277997
 31
0.0
  0
LINE
  5
1B3
330
1F
100
AcDbEntity
  8
0
100
AcDbLine
 10
4.858541107496307
 20
319.6518868777767
 30
0.0
 11
4.665799449220513
 21
305.1309897438909
 31
0.0
  0
LINE
  5
1B4
330
1F
100
AcDbEntity
  8
0
100
AcDbLine
 10
27.63059493239566
 20
319.3781564181075
 30
0.0
 11
34.67396861810373
 21
319.2934918581413
 31
0.0
  0
LINE
  5
1B5
330
1F
100
AcDbEntity
  8
0
100
AcDbLine
 10
34.56191059617234
 20
304.770652145558
 30
0.0
 11
27.49947583632001
 21
304.8557756175453
 31
0.0
  0
LINE
  5
1B6
330
1F
100
AcDbEntity
  8
0
100
AcDbLine
 10
-106.414705164353
 20
155.1486270865499
 30
0.0
 11
-99.15793138070158
 21
155.0587005177303
 31
0.0
  0
LINE
  5
1B7
330
1F
100
AcDbEntity
  8
0
100
AcDbLine
 10
11.7275117006997
 20
305.0458749802915
 30
0.0
 11
4.665799449220513
 21
305.1309897438909
 31
0.0
  0
LINE
  5
1B8
330
1F
100
AcDbEntity
  8
0
100
AcDbLine
 10
-218.0066358419991
 20
207.5231010318263
 30
0.0
 11
-225.1926506396119
 21
207.6113294222066
 31
0.0
  0
LINE
  5
1B9
330
1F
100
AcDbEntity
  8
0
100
AcDbLine
 10
-210.739211343277
 20
34.30003143277331
 30
0.0
 11
-203.3255837707832
 21
34.20613149347886
 31
0.0
  0
LINE
  5
1BA
330
1F
100
AcDbEntity
  8
0
100
AcDbLine
 10
26.45676720166357
 20
189.3683118559644
 30
0.0
 11
33.67078249036553
 21
189.2794947885556
 31
0.0
  0
LINE
  5
1BB
330
1F
100
AcDbEntity
  8
0
100
AcDbLine
 10
26.45676720166357
 20
189.3683118559644
 30
0.0
 11
26.59356771841656
 21
204.5199507663966
 31
0.0
  0
LINE
  5
1BC
330
1F
100
AcDbEntity
  8
0
100
AcDbLine
 10
-212.6256275393738
 20
307.7500016466277
 30
0.0
 11
-211.8467836002294
 21
322.2567835902619
 31
0.0
  0
LINE
  5
1BD
330
1F
100
AcDbEntity
  8
0
100
AcDbLine
 10
-196.1331502645873
 20
322.0678985599913
 30
0.0
 11
-196.8695142351942
 21
307.5600933338314
 31
0.0
  0
LINE
  5
1BE
330
1F
100
AcDbEntity
  8
0
100
AcDbLine
 10
-196.5318792881616
 20
171.6091718148721
 30
0.0
 11
-120.3810558182893
 21
170.6681231015262
 31
0.0
  0
LINE
  5
1BF
330
1F
100
AcDbEntity
  8
0
100
AcDbLine
 10
-218.8192085546027
 20
192.3880854495453
 30
0.0
 11
-226.0250653655375
 21
192.4768020719119
 31
0.0
  0
LINE
  5
1C0
330
1F
100
AcDbEntity
  8
0
100
AcDbLine
 10
-79.61937600094744
 20
11.68453033049234
 30
0.0
 11
-79.17628852066403
 21
27.83030456495544
 31
0.0
  0
LINE
  5
1C1
330
1F
100
AcDbEntity
  8
0
100
AcDbLine
 10
-227.2954233841946
 20
34.50973003044184
 30
0.0
 11
-234.7082543838129
 21
34.60361988045893
 31
0.0
  0
LINE
  5
1C2
330
1F
100
AcDbEntity
  8
0
100
AcDbLine
 10
-201.9570336035447
 20
207.3260473641639
 30
0.0
 11
-194.7702702516391
 21
207.2378097831898
 31
0.0
  0
LINE
  5
1C3
330
1F
100
AcDbEntity
  8
0
100
AcDbLine
 10
-219.6802429480755
 20
307.8350308720356
 30
0.0
 11
-212.6256275393738
 21
307.7500016466277
 31
0.0
  0
LINE
  5
1C4
330
1F
100
AcDbEntity
  8
0
100
AcDbLine
 10
-231.9504983529813
 20
341.9097772629314
 30
0.0
 11
-241.7358194268344
 21
172.1677883572459
 31
0.0
  0
LINE
  5
1C5
330
1F
100
AcDbEntity
  8
0
100
AcDbLine
 10
-189.8141774070451
 20
307.4750554131604
 30
0.0
 11
-189.0968362609724
 21
321.9833188606196
 31
0.0
  0
LINE
  5
1C6
330
1F
100
AcDbEntity
  8
0
100
AcDbLine
 10
-218.8823800703946
 20
322.3413546645547
 30
0.0
 11
-219.6802429480755
 21
307.8350308720356
 31
0.0
  0
LINE
  5
1C7
330
1F
100
AcDbEntity
  8
0
100
AcDbLine
 10
8.398562370474911
 20
26.72015153129949
 30
0.0
 11
0.9715910451736117
 21
26.81430041838018
 31
0.0
  0
LINE
  5
1C8
330
1F
100
AcDbEntity
  8
0
100
AcDbLine
 10
0.9715910451736117
 20
26.81430041838018
 30
0.0
 11
0.7572046520662845
 21
10.66271809275106
 31
0.0
  0
LINE
  5
1C9
330
1F
100
AcDbEntity
  8
0
100
AcDbLine
 10
-111.135848713658
 20
12.08519327542793
 30
0.0
 11
-110.6031076406886
 21
28.22869038267867
 31
0.0
  0
LINE
  5
1CA
330
1F
100
AcDbEntity
  8
0
100
AcDbLine
 10
-111.135848713658
 20
12.08519327542793
 30
0.0
 11
-103.6914142109344
 21
11.99055359038354
 31
0.0
  0
LINE
  5
1CB
330
1F
100
AcDbEntity
  8
0
100
AcDbLine
 10
-218.8192085546027
 20
192.3880854495453
 30
0.0
 11
-218.0066358419991
 21
207.5231010318263
 31
0.0
  0
LINE
  5
1CC
330
1F
100
AcDbEntity
  8
0
100
AcDbLine
 10
-82.50910682903948
 20
170.2001130755763
 30
0.0
 11
-82.95028442463844
 21
154.857853953837
 31
0.0
  0
LINE
  5
1CD
330
1F
100
AcDbEntity
  8
0
100
AcDbLine
 10
-202.7252878624352
 20
192.1899413118094
 30
0.0
 11
-195.5186783561439
 21
192.1012154224547
 31
0.0
  0
LINE
  5
1CE
330
1F
100
AcDbEntity
  8
0
100
AcDbLine
 10
-202.7252878624352
 20
192.1899413118094
 30
0.0
 11
-201.9570336035447
 21
207.3260473641639
 31
0.0
  0
LINE
  5
1CF
330
1F
100
AcDbEntity
  8
0
100
AcDbLine
 10
49.02228525556722
 20
338.5445818038369
 30
0.0
 11
47.2496175031533
 21
-11.77614304386748
 31
0.0
  0
LINE
  5
1D0
330
1F
100
AcDbEntity
  8
0
100
AcDbLine
 10
-227.1519946398374
 20
171.9875658865473
 30
0.0
 11
-233.6651376837776
 21
53.56901986034754
 31
0.0
  0
LINE
  5
1D1
330
1F
100
AcDbEntity
  8
0
100
AcDbLine
 10
-110.6031076406886
 20
28.22869038267867
 30
0.0
 11
-103.1798488701539
 21
28.13458855824085
 31
0.0
  0
LINE
  5
1D2
330
1F
100
AcDbEntity
  8
0
100
AcDbLine
 10
10.34630822477899
 20
189.5666596087309
 30
0.0
 11
3.133046791959599
 21
189.6554673948635
 31
0.0
  0
LINE
  5
1D3
330
1F
100
AcDbEntity
  8
0
100
AcDbLine
 10
0.7572046520662845
 20
10.66271809275106
 30
0.0
 11
8.205372929144264
 21
10.56803094094089
 31
0.0
  0
LINE
  5
1D4
330
1F
100
AcDbEntity
  8
0
100
AcDbLine
 10
11.90119617961721
 20
319.5672309558732
 30
0.0
 11
4.858541107496307
 21
319.6518868777767
 31
0.0
  0
LINE
  5
1D5
330
1F
100
AcDbEntity
  8
0
100
AcDbLine
 10
-235.3373775375796
 20
23.16523312359568
 30
0.0
 11
-234.7082543838129
 21
34.60361988045893
 31
0.0
  0
LINE
  5
1D6
330
1F
100
AcDbEntity
  8
0
100
AcDbLine
 10
-203.8912187348218
 20
22.76613377650297
 30
0.0
 11
-203.3255837707832
 21
34.20613149347886
 31
0.0
  0
LINE
  5
1D7
330
1F
100
AcDbEntity
  8
0
100
AcDbLine
 10
-196.8695142351942
 20
307.5600933338314
 30
0.0
 11
-189.8141774070451
 21
307.4750554131604
 31
0.0
  0
LINE
  5
1D8
330
1F
100
AcDbEntity
  8
0
100
AcDbLine
 10
-196.1331502645873
 20
322.0678985599913
 30
0.0
 11
-189.0968362609724
 21
321.9833188606196
 31
0.0
  0
LINE
  5
1D9
330
1F
100
AcDbEntity
  8
0
100
AcDbLine
 10
10.52751821812345
 20
204.7172063701078
 30
0.0
 11
10.34630822477899
 21
189.5666596087309
 31
0.0
  0
LINE
  5
1DA
330
1F
100
AcDbEntity
  8
0
100
AcDbLine
 10
-86.60034588466789
 20
27.9244165128585
 30
0.0
 11
-87.0646136609307
 21
11.77918022592281
 31
0.0
  0
LINE
  5
1DB
330
1F
100
AcDbEntity
  8
0
100
AcDbLine
 10
-86.60034588466789
 20
27.9244165128585
 30
0.0
 11
-79.17628852066403
 21
27.83030456495544
 31
0.0
  0
LINE
  5
1DC
330
1F
100
AcDbEntity
  8
0
100
AcDbLine
 10
-87.0646136609307
 20
11.77918022592281
 30
0.0
 11
-79.61937600094744
 21
11.68453033049234
 31
0.0
  0
LINE
  5
1DD
330
1F
100
AcDbEntity
  8
0
100
AcDbLine
 10
-244.1949159002377
 20
-12.88820443074889
 30
0.0
 11
-243.7843958985785
 21
-5.58455550997218
 31
0.0
  0
LINE
  5
1DE
330
1F
100
AcDbEntity
  8
0
100
AcDbLine
 10
-227.5004560730662
 20
-13.10143579075706
 30
0.0
 11
-227.1113202700132
 21
-5.797240575741938
 31
0.0
  0
LINE
  5
1DF
330
1F
100
AcDbEntity
  8
0
100
AcDbLine
 10
-228.3731429709314
 20
-29.48202943851772
 30
0.0
 11
-228.7655266588761
 21
-36.84718842273417
 31
0.0
  0
LINE
  5
1E0
330
1F
100
AcDbEntity
  8
0
100
AcDbLine
 10
-227.5004560730662
 20
-13.10143579075706
 30
0.0
 11
-220.0249198117811
 21
-13.19691769195443
 31
0.0
  0
LINE
  5
1E1
330
1F
100
AcDbEntity
  8
0
100
AcDbLine
 10
-243.7843958985785
 20
-5.58455550997218
 30
0.0
 11
-227.1113202700132
 21
-5.797240575741938
 31
0.0
  0
LINE
  5
1E2
330
1F
100
AcDbEntity
  8
0
100
AcDbLine
 10
-245.1155594602125
 20
-29.26757039603838
 30
0.0
 11
-245.5295056990036
 21
-36.63217623250603
 31
0.0
  0
LINE
  5
1E3
330
1F
100
AcDbEntity
  8
0
100
AcDbLine
 10
-220.876131246365
 20
-29.57806109301766
 30
0.0
 11
-228.3731429709314
 21
-29.48202943851772
 31
0.0
  0
LINE
  5
1E4
330
1F
100
AcDbEntity
  8
0
100
AcDbLine
 10
-245.5295056990036
 20
-36.63217623250603
 30
0.0
 11
-228.7655266588761
 21
-36.84718842273417
 31
0.0
  0
LINE
  5
1E5
330
1F
100
AcDbEntity
  8
0
100
AcDbLine
 10
-251.669642199453
 20
-12.7927328748519
 30
0.0
 11
-252.6117565609787
 21
-29.17154917631726
 31
0.0
  0
LINE
  5
1E6
330
1F
100
AcDbEntity
  8
0
100
AcDbLine
 10
-251.669642199453
 20
-12.7927328748519
 30
0.0
 11
-244.1949159002377
 21
-12.88820443074889
 31
0.0
  0
LINE
  5
1E7
330
1F
100
AcDbEntity
  8
0
100
AcDbLine
 10
-220.0249198117811
 20
-13.19691769195443
 30
0.0
 11
-220.876131246365
 21
-29.57806109301766
 31
0.0
  0
LINE
  5
1E8
330
1F
100
AcDbEntity
  8
0
100
AcDbLine
 10
-252.6117565609787
 20
-29.17154917631726
 30
0.0
 11
-245.1155594602125
 21
-29.26757039603838
 31
0.0
  0
LINE
  5
1E9
330
1F
100
AcDbEntity
  8
0
100
AcDbLine
 10
-161.6783405271069
 20
11.5911746808433
 30
0.0
 11
-154.2341009798577
 21
11.49651851217708
 31
0.0
  0
LINE
  5
1EA
330
1F
100
AcDbEntity
  8
0
100
AcDbLine
 10
-178.3029120492332
 20
11.80256205440059
 30
0.0
 11
-177.9782626497631
 21
19.04309172280398
 31
0.0
  0
LINE
  5
1EB
330
1F
100
AcDbEntity
  8
0
100
AcDbLine
 10
-185.7463485202853
 20
11.89720801167235
 30
0.0
 11
-186.4956943384442
 21
-4.339769979604148
 31
0.0
  0
LINE
  5
1EC
330
1F
100
AcDbEntity
  8
0
100
AcDbLine
 10
-177.9782626497631
 20
19.04309172280398
 30
0.0
 11
-161.3748967765464
 21
18.83224357693798
 31
0.0
  0
LINE
  5
1ED
330
1F
100
AcDbEntity
  8
0
100
AcDbLine
 10
-185.7463485202853
 20
11.89720801167235
 30
0.0
 11
-178.3029120492332
 21
11.80256205440059
 31
0.0
  0
LINE
  5
1EE
330
1F
100
AcDbEntity
  8
0
100
AcDbLine
 10
-186.4956943384442
 20
-4.339769979604148
 30
0.0
 11
-179.0309666986184
 21
-4.434958476095836
 31
0.0
  0
LINE
  5
1EF
330
1F
100
AcDbEntity
  8
0
100
AcDbLine
 10
-161.6783405271069
 20
11.5911746808433
 30
0.0
 11
-161.3748967765464
 21
18.83224357693798
 31
0.0
  0
LINE
  5
1F0
330
1F
100
AcDbEntity
  8
0
100
AcDbLine
 10
-154.2341009798577
 20
11.49651851217708
 30
0.0
 11
-154.8933044422342
 21
-4.742756414606658
 31
0.0
  0
LINE
  5
1F1
330
1F
100
AcDbEntity
  8
0
100
AcDbLine
 10
-154.8933044422342
 20
-4.742756414606658
 30
0.0
 11
-162.3588397605824
 21
-4.647557618785122
 31
0.0
  0
LINE
  5
1F2
330
1F
100
AcDbEntity
  8
0
100
AcDbLine
 10
-162.3588397605824
 20
-4.647557618785122
 30
0.0
 11
-162.6648051392254
 21
-11.9488000483321
 31
0.0
  0
LINE
  5
1F3
330
1F
100
AcDbEntity
  8
0
100
AcDbLine
 10
-179.3583138447696
 20
-11.73565494263305
 30
0.0
 11
-162.6648051392254
 21
-11.9488000483321
 31
0.0
  0
LINE
  5
1F4
330
1F
100
AcDbEntity
  8
0
100
AcDbLine
 10
-179.0309666986184
 20
-4.434958476095836
 30
0.0
 11
-179.3583138447696
 21
-11.73565494263305
 31
0.0
  0
LINE
  5
1F5
330
1F
100
AcDbEntity
  8
0
100
AcDbLine
 10
-267.970169914513
 20
-304.0858819686644
 30
0.0
 11
-269.009852116987
 21
-322.1848220729489
 31
0.0
  0
LINE
  5
1F6
330
1F
100
AcDbEntity
  8
0
100
AcDbLine
 10
-267.970169914513
 20
-304.0858819686644
 30
0.0
 11
-260.1135960105839
 21
-304.1913646540053
 31
0.0
  0
LINE
  5
1F7
330
1F
100
AcDbEntity
  8
0
100
AcDbLine
 10
-260.1135960105839
 20
-304.1913646540053
 30
0.0
 11
-259.6606709400988
 21
-296.1223783219601
 31
0.0
  0
LINE
  5
1F8
330
1F
100
AcDbEntity
  8
0
100
AcDbLine
 10
-259.6606709400988
 20
-296.1223783219601
 30
0.0
 11
-242.1369467440292
 21
-296.3573353592491
 31
0.0
  0
LINE
  5
1F9
330
1F
100
AcDbEntity
  8
0
100
AcDbLine
 10
-242.5662483954007
 20
-304.4269560669532
 30
0.0
 11
-242.1369467440292
 21
-296.3573353592491
 31
0.0
  0
LINE
  5
1FA
330
1F
100
AcDbEntity
  8
0
100
AcDbLine
 10
-242.5662483954007
 20
-304.4269560669532
 30
0.0
 11
-234.7087796255295
 21
-304.5324507667936
 31
0.0
  0
LINE
  5
1FB
330
1F
100
AcDbEntity
  8
0
100
AcDbLine
 10
-234.7087796255295
 20
-304.5324507667936
 30
0.0
 11
-235.6480187988041
 21
-322.6340940409204
 31
0.0
  0
LINE
  5
1FC
330
1F
100
AcDbEntity
  8
0
100
AcDbLine
 10
-235.6480187988041
 20
-322.6340940409204
 30
0.0
 11
-243.5292169759709
 21
-322.5279607423961
 31
0.0
  0
LINE
  5
1FD
330
1F
100
AcDbEntity
  8
0
100
AcDbLine
 10
-243.5292169759709
 20
-322.5279607423961
 30
0.0
 11
-243.9622860218742
 21
-330.6683974947865
 31
0.0
  0
LINE
  5
1FE
330
1F
100
AcDbEntity
  8
0
100
AcDbLine
 10
-261.5864538388228
 20
-330.430737255745
 30
0.0
 11
-243.9622860218742
 21
-330.6683974947865
 31
0.0
  0
LINE
  5
1FF
330
1F
100
AcDbEntity
  8
0
100
AcDbLine
 10
-261.1295542205672
 20
-322.290943247714
 30
0.0
 11
-261.5864538388228
 21
-330.430737255745
 31
0.0
  0
LINE
  5
200
330
1F
100
AcDbEntity
  8
0
100
AcDbLine
 10
-269.009852116987
 20
-322.1848220729489
 30
0.0
 11
-261.1295542205672
 21
-322.290943247714
 31
0.0
  0
LINE
  5
201
330
1F
100
AcDbEntity
  8
0
100
AcDbLine
 10
-0.954463887822727
 20
-309.0551953457476
 30
0.0
 11
-0.8506011575352838
 21
-300.9731071544759
 31
0.0
  0
LINE
  5
202
330
1F
100
AcDbEntity
  8
0
100
AcDbLine
 10
-1.292214559950672
 20
-335.3372958765679
 30
0.0
 11
16.35662085258719
 21
-335.5753439737285
 31
0.0
  0
LINE
  5
203
330
1F
100
AcDbEntity
  8
0
100
AcDbLine
 10
-8.821985834214447
 20
-308.9495412708722
 30
0.0
 11
-9.078751876195215
 21
-327.0779329784334
 31
0.0
  0
LINE
  5
204
330
1F
100
AcDbEntity
  8
0
100
AcDbLine
 10
24.48575534765498
 20
-309.3968356800362
 30
0.0
 11
24.32971294765145
 21
-327.5279371584977
 31
0.0
  0
LINE
  5
205
330
1F
100
AcDbEntity
  8
0
100
AcDbLine
 10
-9.078751876195215
 20
-327.0779329784334
 30
0.0
 11
-1.187439659810781
 21
-327.1842271018599
 31
0.0
  0
LINE
  5
206
330
1F
100
AcDbEntity
  8
0
100
AcDbLine
 10
16.43749845779877
 20
-327.4216308816611
 30
0.0
 11
16.35662085258719
 21
-335.5753439737285
 31
0.0
  0
LINE
  5
207
330
1F
100
AcDbEntity
  8
0
100
AcDbLine
 10
-8.821985834214447
 20
-308.9495412708722
 30
0.0
 11
-0.954463887822727
 21
-309.0551953457476
 31
0.0
  0
LINE
  5
208
330
1F
100
AcDbEntity
  8
0
100
AcDbLine
 10
-1.187439659810781
 20
-327.1842271018599
 30
0.0
 11
-1.292214559950672
 21
-335.3372958765679
 31
0.0
  0
LINE
  5
209
330
1F
100
AcDbEntity
  8
0
100
AcDbLine
 10
16.61733656056204
 20
-309.2911695613666
 30
0.0
 11
16.69751001803318
 21
-301.2084454486957
 31
0.0
  0
LINE
  5
20A
330
1F
100
AcDbEntity
  8
0
100
AcDbLine
 10
16.61733656056204
 20
-309.2911695613666
 30
0.0
 11
24.48575534765498
 21
-309.3968356800362
 31
0.0
  0
LINE
  5
20B
330
1F
100
AcDbEntity
  8
0
100
AcDbLine
 10
-0.8506011575352838
 20
-300.9731071544759
 30
0.0
 11
16.69751001803318
 21
-301.2084454486957
 31
0.0
  0
LINE
  5
20C
330
1F
100
AcDbEntity
  8
0
100
AcDbLine
 10
24.32971294765145
 20
-327.5279371584977
 30
0.0
 11
16.43749845779877
 21
-327.4216308816611
 31
0.0
  0
LINE
  5
20D
330
1F
100
AcDbEntity
  8
0
100
AcDbLine
 10
84.24256525618335
 20
114.1295922848228
 30
0.0
 11
84.23233139402006
 21
121.1114504606797
 31
0.0
  0
LINE
  5
20E
330
1F
100
AcDbEntity
  8
0
100
AcDbLine
 10
84.26551387347952
 20
98.47333380425061
 30
0.0
 11
84.27583123396467
 21
91.43451048346128
 31
0.0
  0
LINE
  5
20F
330
1F
100
AcDbEntity
  8
0
100
AcDbLine
 10
60.59649211929013
 20
114.4246639297516
 30
0.0
 11
67.9094430603801
 21
114.3334079968505
 31
0.0
  0
LINE
  5
210
330
1F
100
AcDbEntity
  8
0
100
AcDbLine
 10
60.59649211929013
 20
114.4246639297516
 30
0.0
 11
60.55299019537574
 21
98.77006622243508
 31
0.0
  0
LINE
  5
211
330
1F
100
AcDbEntity
  8
0
100
AcDbLine
 10
91.55629093519295
 20
114.038326684226
 30
0.0
 11
91.59979412093321
 21
98.38155450893423
 31
0.0
  0
LINE
  5
212
330
1F
100
AcDbEntity
  8
0
100
AcDbLine
 10
60.55299019537574
 20
98.77006622243508
 30
0.0
 11
67.88649134435988
 21
98.67829667655474
 31
0.0
  0
LINE
  5
213
330
1F
100
AcDbEntity
  8
0
100
AcDbLine
 10
67.9094430603801
 20
114.3334079968505
 30
0.0
 11
67.91967830593282
 21
121.3147556381596
 31
0.0
  0
LINE
  5
214
330
1F
100
AcDbEntity
  8
0
100
AcDbLine
 10
84.24256525618335
 20
114.1295922848228
 30
0.0
 11
91.55629093519295
 21
114.038326684226
 31
0.0
  0
LINE
  5
215
330
1F
100
AcDbEntity
  8
0
100
AcDbLine
 10
67.91967830593282
 20
121.3147556381596
 30
0.0
 11
84.23233139402006
 21
121.1114504606797
 31
0.0
  0
LINE
  5
216
330
1F
100
AcDbEntity
  8
0
100
AcDbLine
 10
91.59979412093321
 20
98.38155450893423
 30
0.0
 11
84.26551387347952
 21
98.47333380425061
 31
0.0
  0
LINE
  5
217
330
1F
100
AcDbEntity
  8
0
100
AcDbLine
 10
67.87617259227015
 20
91.63999015111943
 30
0.0
 11
84.27583123396467
 21
91.43451048346128
 31
0.0
  0
LINE
  5
218
330
1F
100
AcDbEntity
  8
0
100
AcDbLine
 10
67.88649134435988
 20
98.67829667655474
 30
0.0
 11
67.87617259227015
 21
91.63999015111943
 31
0.0
  0
LINE
  5
219
330
1F
100
AcDbEntity
  8
0
100
AcDbLine
 10
333.1903834608457
 20
-114.8673842759842
 30
0.0
 11
340.8089921143142
 21
-114.9663071232286
 31
0.0
  0
LINE
  5
21A
330
1F
100
AcDbEntity
  8
0
100
AcDbLine
 10
317.1948814810834
 20
-139.2479087235051
 30
0.0
 11
334.2810472045203
 21
-139.4707023978718
 31
0.0
  0
LINE
  5
21B
330
1F
100
AcDbEntity
  8
0
100
AcDbLine
 10
316.1764290639307
 20
-114.6464687665512
 30
0.0
 11
315.8631834470634
 21
-107.0797988805865
 31
0.0
  0
LINE
  5
21C
330
1F
100
AcDbEntity
  8
0
100
AcDbLine
 10
333.9427414695215
 20
-131.8391627332226
 30
0.0
 11
334.2810472045203
 21
-139.4707023978718
 31
0.0
  0
LINE
  5
21D
330
1F
100
AcDbEntity
  8
0
100
AcDbLine
 10
308.5586606152251
 20
-114.5475568288309
 30
0.0
 11
316.1764290639307
 21
-114.6464687665512
 31
0.0
  0
LINE
  5
21E
330
1F
100
AcDbEntity
  8
0
100
AcDbLine
 10
316.878974532546
 20
-131.6169524848486
 30
0.0
 11
317.1948814810834
 21
-139.2479087235051
 31
0.0
  0
LINE
  5
21F
330
1F
100
AcDbEntity
  8
0
100
AcDbLine
 10
333.1903834608457
 20
-114.8673842759842
 30
0.0
 11
332.8549278624788
 21
-107.3001383211516
 31
0.0
  0
LINE
  5
220
330
1F
100
AcDbEntity
  8
0
100
AcDbLine
 10
315.8631834470634
 20
-107.0797988805865
 30
0.0
 11
332.8549278624788
 21
-107.3001383211516
 31
0.0
  0
LINE
  5
221
330
1F
100
AcDbEntity
  8
0
100
AcDbLine
 10
341.5836567083613
 20
-131.9386653623418
 30
0.0
 11
333.9427414695215
 21
-131.8391627332226
 31
0.0
  0
LINE
  5
222
330
1F
100
AcDbEntity
  8
0
100
AcDbLine
 10
308.5586606152251
 20
-114.5475568288309
 30
0.0
 11
309.2389044241078
 21
-131.5174608613067
 31
0.0
  0
LINE
  5
223
330
1F
100
AcDbEntity
  8
0
100
AcDbLine
 10
340.8089921143142
 20
-114.9663071232286
 30
0.0
 11
341.5836567083613
 21
-131.9386653623418
 31
0.0
  0
LINE
  5
224
330
1F
100
AcDbEntity
  8
0
100
AcDbLine
 10
309.2389044241078
 20
-131.5174608613067
 30
0.0
 11
316.878974532546
 21
-131.6169524848486
 31
0.0
  0
LINE
  5
225
330
1F
100
AcDbEntity
  8
0
100
AcDbLine
 10
34.66135748640522
 20
-31.58688991104156
 30
0.0
 11
17.90289966475426
 21
-31.37227285930442
 31
0.0
  0
LINE
  5
226
330
1F
100
AcDbEntity
  8
0
100
AcDbLine
 10
34.66135748640522
 20
-31.58688991104156
 30
0.0
 11
34.6079605136895
 21
-38.95747900234845
 31
0.0
  0
LINE
  5
227
330
1F
100
AcDbEntity
  8
0
100
AcDbLine
 10
34.6079605136895
 20
-38.95747900234845
 30
0.0
 11
42.12182991730479
 21
-39.05382938531716
 31
0.0
  0
LINE
  5
228
330
1F
100
AcDbEntity
  8
0
100
AcDbLine
 10
42.12182991730479
 20
-39.05382938531716
 30
0.0
 11
42.02377470729462
 21
-55.58418884651322
 31
0.0
  0
LINE
  5
229
330
1F
100
AcDbEntity
  8
0
100
AcDbLine
 10
34.48820870213981
 20
-55.48728118165331
 30
0.0
 11
42.02377470729462
 21
-55.58418884651322
 31
0.0
  0
LINE
  5
22A
330
1F
100
AcDbEntity
  8
0
100
AcDbLine
 10
34.48820870213981
 20
-55.48728118165331
 30
0.0
 11
34.43436402303364
 21
-62.91966890537176
 31
0.0
  0
LINE
  5
22B
330
1F
100
AcDbEntity
  8
0
100
AcDbLine
 10
34.43436402303364
 20
-62.91966890537176
 30
0.0
 11
17.58406677176492
 21
-62.70269286106444
 31
0.0
  0
LINE
  5
22C
330
1F
100
AcDbEntity
  8
0
100
AcDbLine
 10
17.58406677176492
 20
-62.70269286106444
 30
0.0
 11
17.65969649194192
 21
-55.27086587585891
 31
0.0
  0
LINE
  5
22D
330
1F
100
AcDbEntity
  8
0
100
AcDbLine
 10
17.65969649194192
 20
-55.27086587585891
 30
0.0
 11
10.12495302574356
 21
-55.1739687888813
 31
0.0
  0
LINE
  5
22E
330
1F
100
AcDbEntity
  8
0
100
AcDbLine
 10
10.31484717071561
 20
-38.64596829483593
 30
0.0
 11
10.12495302574356
 21
-55.1739687888813
 31
0.0
  0
LINE
  5
22F
330
1F
100
AcDbEntity
  8
0
100
AcDbLine
 10
17.82789876511617
 20
-38.74230819103312
 30
0.0
 11
10.31484717071561
 21
-38.64596829483593
 31
0.0
  0
LINE
  5
230
330
1F
100
AcDbEntity
  8
0
100
AcDbLine
 10
17.90289966475426
 20
-31.37227285930442
 30
0.0
 11
17.82789876511617
 21
-38.74230819103312
 31
0.0
  0
LINE
  5
231
330
1F
100
AcDbEntity
  8
0
100
AcDbLine
 10
315.367635747919
 20
315.9174739093536
 30
0.0
 11
322.4200952216873
 21
315.8327001032533
 31
0.0
  0
LINE
  5
232
330
1F
100
AcDbEntity
  8
0
100
AcDbLine
 10
291.9830893755249
 20
330.652890247368
 30
0.0
 11
292.5662074860141
 21
316.1915575627896
 31
0.0
  0
LINE
  5
233
330
1F
100
AcDbEntity
  8
0
100
AcDbLine
 10
315.6573777438932
 20
309.4162367602025
 30
0.0
 11
299.8886091106091
 21
309.6060139989768
 31
0.0
  0
LINE
  5
234
330
1F
100
AcDbEntity
  8
0
100
AcDbLine
 10
298.7472688122822
 20
337.0187875392598
 30
0.0
 11
299.0158253854091
 21
330.5685811173827
 31
0.0
  0
LINE
  5
235
330
1F
100
AcDbEntity
  8
0
100
AcDbLine
 10
314.7230687926668
 20
330.3802811407802
 30
0.0
 11
321.7565209325602
 21
330.2959634257584
 31
0.0
  0
LINE
  5
236
330
1F
100
AcDbEntity
  8
0
100
AcDbLine
 10
299.6179469551772
 20
316.1067924114755
 30
0.0
 11
292.5662074860141
 21
316.1915575627896
 31
0.0
  0
LINE
  5
237
330
1F
100
AcDbEntity
  8
0
100
AcDbLine
 10
299.0158253854091
 20
330.5685811173827
 30
0.0
 11
291.9830893755249
 21
330.652890247368
 31
0.0
  0
LINE
  5
238
330
1F
100
AcDbEntity
  8
0
100
AcDbLine
 10
314.4355808872926
 20
336.8309409566138
 30
0.0
 11
298.7472688122822
 21
337.0187875392598
 31
0.0
  0
LINE
  5
239
330
1F
100
AcDbEntity
  8
0
100
AcDbLine
 10
314.4355808872926
 20
336.8309409566138
 30
0.0
 11
314.7230687926668
 21
330.3802811407802
 31
0.0
  0
LINE
  5
23A
330
1F
100
AcDbEntity
  8
0
100
AcDbLine
 10
315.367635747919
 20
315.9174739093536
 30
0.0
 11
315.6573777438932
 21
309.4162367602025
 31
0.0
  0
LINE
  5
23B
330
1F
100
AcDbEntity
  8
0
100
AcDbLine
 10
321.7565209325602
 20
330.2959634257584
 30
0.0
 11
322.4200952216873
 21
315.8327001032533
 31
0.0
  0
LINE
  5
23C
330
1F
100
AcDbEntity
  8
0
100
AcDbLine
 10
299.8886091106091
 20
309.6060139989768
 30
0.0
 11
299.6179469551772
 21
316.1067924114755
 31
0.0
  0
LINE
  5
23D
330
1F
100
AcDbEntity
  8
0
100
AcDbLine
 10
90.9709857717165
 20
315.7037656598112
 30
0.0
 11
98.0201828463209
 21
315.6189851051018
 31
0.0
  0
LINE
  5
23E
330
1F
100
AcDbEntity
  8
0
100
AcDbLine
 10
90.9709857717165
 20
315.7037656598112
 30
0.0
 11
90.98902101660752
 21
309.2020106558658
 31
0.0
  0
LINE
  5
23F
330
1F
100
AcDbEntity
  8
0
100
AcDbLine
 10
75.22755572202075
 20
309.3918030201898
 30
0.0
 11
75.2285826638222
 21
315.8930992326713
 31
0.0
  0
LINE
  5
240
330
1F
100
AcDbEntity
  8
0
100
AcDbLine
 10
90.91296921050673
 20
336.6188943147257
 30
0.0
 11
75.23188617554372
 21
336.8067557926902
 31
0.0
  0
LINE
  5
241
330
1F
100
AcDbEntity
  8
0
100
AcDbLine
 10
90.98902101660752
 20
309.2020106558658
 30
0.0
 11
75.22755572202075
 21
309.3918030201898
 31
0.0
  0
LINE
  5
242
330
1F
100
AcDbEntity
  8
0
100
AcDbLine
 10
75.23188617554372
 20
336.8067557926902
 30
0.0
 11
75.23086722302189
 21
330.3560376014235
 31
0.0
  0
LINE
  5
243
330
1F
100
AcDbEntity
  8
0
100
AcDbLine
 10
90.93086414198794
 20
330.1677226755415
 30
0.0
 11
97.961071434641
 21
330.0833982663007
 31
0.0
  0
LINE
  5
244
330
1F
100
AcDbEntity
  8
0
100
AcDbLine
 10
75.2285826638222
 20
315.8930992326713
 30
0.0
 11
68.18010528939834
 21
315.9778711315601
 31
0.0
  0
LINE
  5
245
330
1F
100
AcDbEntity
  8
0
100
AcDbLine
 10
90.91296921050673
 20
336.6188943147257
 30
0.0
 11
90.93086414198794
 21
330.1677226755415
 31
0.0
  0
LINE
  5
246
330
1F
100
AcDbEntity
  8
0
100
AcDbLine
 10
97.961071434641
 20
330.0833982663007
 30
0.0
 11
98.0201828463209
 21
315.6189851051018
 31
0.0
  0
LINE
  5
247
330
1F
100
AcDbEntity
  8
0
100
AcDbLine
 10
68.20137575840705
 20
330.4403534246046
 30
0.0
 11
68.18010528939834
 21
315.9778711315601
 31
0.0
  0
LINE
  5
248
330
1F
100
AcDbEntity
  8
0
100
AcDbLine
 10
75.23086722302189
 20
330.3560376014235
 30
0.0
 11
68.20137575840705
 21
330.4403534246046
 31
0.0
  0
LINE
  5
249
330
1F
100
AcDbEntity
  8
0
100
AcDbLine
 10
237.8808456106558
 20
-280.297141715434
 30
0.0
 11
236.8507581561332
 21
-280.5948258567329
 31
0.0
  0
LINE
  5
24A
330
1F
100
AcDbEntity
  8
0
100
AcDbLine
 10
236.8507581561332
 20
-280.5948258567329
 30
0.0
 11
235.9418579597159
 21
-281.1585190897901
 31
0.0
  0
LINE
  5
24B
330
1F
100
AcDbEntity
  8
0
100
AcDbLine
 10
235.9418579597159
 20
-281.1585190897901
 30
0.0
 11
235.2160169885866
 21
-281.9499433998067
 31
0.0
  0
LINE
  5
24C
330
1F
100
AcDbEntity
  8
0
100
AcDbLine
 10
234.7227093559067
 20
-282.9153206608402
 30
0.0
 11
235.2160169885866
 21
-281.9499433998067
 31
0.0
  0
LINE
  5
24D
330
1F
100
AcDbEntity
  8
0
100
AcDbLine
 10
234.7227093559067
 20
-282.9153206608402
 30
0.0
 11
234.4956373129919
 21
-283.9889957369014
 31
0.0
  0
LINE
  5
24E
330
1F
100
AcDbEntity
  8
0
100
AcDbLine
 10
234.4956373129919
 20
-283.9889957369014
 30
0.0
 11
234.5504120142161
 21
-285.0978749364114
 31
0.0
  0
LINE
  5
24F
330
1F
100
AcDbEntity
  8
0
100
AcDbLine
 10
234.8834530922088
 20
-286.1663869496351
 30
0.0
 11
234.5504120142161
 21
-285.0978749364114
 31
0.0
  0
LINE
  5
250
330
1F
100
AcDbEntity
  8
0
100
AcDbLine
 10
235.4721918037025
 20
-287.1216336513497
 30
0.0
 11
234.8834530922088
 21
-286.1663869496351
 31
0.0
  0
LINE
  5
251
330
1F
100
AcDbEntity
  8
0
100
AcDbLine
 10
236.276574850439
 20
-287.8983795907129
 30
0.0
 11
235.4721918037025
 21
-287.1216336513497
 31
0.0
  0
LINE
  5
252
330
1F
100
AcDbEntity
  8
0
100
AcDbLine
 10
237.241775585776
 20
-288.4435343815434
 30
0.0
 11
236.276574850439
 21
-287.8983795907129
 31
0.0
  0
LINE
  5
253
330
1F
100
AcDbEntity
  8
0
100
AcDbLine
 10
238.3019328008711
 20
-288.7198126901314
 30
0.0
 11
237.241775585776
 21
-288.4435343815434
 31
0.0
  0
LINE
  5
254
330
1F
100
AcDbEntity
  8
0
100
AcDbLine
 10
239.3846616698118
 20
-288.7083111248567
 30
0.0
 11
238.3019328008711
 21
-288.7198126901314
 31
0.0
  0
LINE
  5
255
330
1F
100
AcDbEntity
  8
0
100
AcDbLine
 10
239.3846616698118
 20
-288.7083111248567
 30
0.0
 11
240.4160233785242
 21
-288.4098167427517
 31
0.0
  0
LINE
  5
256
330
1F
100
AcDbEntity
  8
0
100
AcDbLine
 10
240.4160233785242
 20
-288.4098167427517
 30
0.0
 11
241.32560489616
 21
-287.8447525414489
 31
0.0
  0
LINE
  5
257
330
1F
100
AcDbEntity
  8
0
100
AcDbLine
 10
241.32560489616
 20
-287.8447525414489
 30
0.0
 11
242.0513516962204
 21
-287.0517638858143
 31
0.0
  0
LINE
  5
258
330
1F
100
AcDbEntity
  8
0
100
AcDbLine
 10
242.0513516962204
 20
-287.0517638858143
 30
0.0
 11
242.5438148988805
 21
-286.0850480669251
 31
0.0
  0
LINE
  5
259
330
1F
100
AcDbEntity
  8
0
100
AcDbLine
 10
242.7695185172822
 20
-285.0106188860192
 30
0.0
 11
242.5438148988805
 21
-286.0850480669251
 31
0.0
  0
LINE
  5
25A
330
1F
100
AcDbEntity
  8
0
100
AcDbLine
 10
242.7695185172822
 20
-285.0106188860192
 30
0.0
 11
242.7132180651389
 21
-283.9017720962211
 31
0.0
  0
LINE
  5
25B
330
1F
100
AcDbEntity
  8
0
100
AcDbLine
 10
242.7132180651389
 20
-283.9017720962211
 30
0.0
 11
242.3789027332747
 21
-282.8340703231254
 31
0.0
  0
LINE
  5
25C
330
1F
100
AcDbEntity
  8
0
100
AcDbLine
 10
237.8808456106558
 20
-280.297141715434
 30
0.0
 11
238.9620487279413
 21
-280.285672559902
 31
0.0
  0
LINE
  5
25D
330
1F
100
AcDbEntity
  8
0
100
AcDbLine
 10
240.0208375180972
 20
-280.5611967630001
 30
0.0
 11
238.9620487279413
 21
-280.285672559902
 31
0.0
  0
LINE
  5
25E
330
1F
100
AcDbEntity
  8
0
100
AcDbLine
 10
240.0208375180972
 20
-280.5611967630001
 30
0.0
 11
240.9851938237327
 21
-281.105012995297
 31
0.0
  0
LINE
  5
25F
330
1F
100
AcDbEntity
  8
0
100
AcDbLine
 10
241.7894827001367
 20
-281.8801945890111
 30
0.0
 11
240.9851938237327
 21
-281.105012995297
 31
0.0
  0
LINE
  5
260
330
1F
100
AcDbEntity
  8
0
100
AcDbLine
 10
242.3789027332747
 20
-282.8340703231254
 30
0.0
 11
241.7894827001367
 21
-281.8801945890111
 31
0.0
  0
LINE
  5
261
330
1F
100
AcDbEntity
  8
0
100
AcDbLine
 10
147.0258691833497
 20
-287.5249946767443
 30
0.0
 11
139.135910817543
 21
-287.4194548649615
 31
0.0
  0
LINE
  5
262
330
1F
100
AcDbEntity
  8
0
100
AcDbLine
 10
139.2708521869406
 20
-300.2002112451119
 30
0.0
 11
139.135910817543
 21
-287.4194548649615
 31
0.0
  0
LINE
  5
263
330
1F
100
AcDbEntity
  8
0
100
AcDbLine
 10
42.99217453387751
 20
-298.9095866119472
 30
0.0
 11
139.2708521869406
 21
-300.2002112451119
 31
0.0
  0
LINE
  5
264
330
1F
100
AcDbEntity
  8
0
100
AcDbLine
 10
43.03670769431567
 20
-290.8548159562406
 30
0.0
 11
42.99217453387751
 21
-298.9095866119472
 31
0.0
  0
LINE
  5
265
330
1F
100
AcDbEntity
  8
0
100
AcDbLine
 10
50.8813903457706
 20
-290.9598330986902
 30
0.0
 11
43.03670769431567
 21
-290.8548159562406
 31
0.0
  0
LINE
  5
266
330
1F
100
AcDbEntity
  8
0
100
AcDbLine
 10
270.8395493647925
 20
-267.9933013178952
 30
0.0
 11
43.17988130862718
 21
-264.958818096338
 31
0.0
  0
LINE
  5
267
330
1F
100
AcDbEntity
  8
0
100
AcDbLine
 10
50.95690580818189
 20
-273.0482737864129
 30
0.0
 11
50.8813903457706
 21
-290.9598330986902
 31
0.0
  0
LINE
  5
268
330
1F
100
AcDbEntity
  8
0
100
AcDbLine
 10
43.13573352465441
 20
-272.9438852103686
 30
0.0
 11
50.95690580818189
 21
-273.0482737864129
 31
0.0
  0
LINE
  5
269
330
1F
100
AcDbEntity
  8
0
100
AcDbLine
 10
43.17988130862718
 20
-264.958818096338
 30
0.0
 11
43.13573352465441
 21
-272.9438852103686
 31
0.0
  0
LINE
  5
26A
330
1F
100
AcDbEntity
  8
0
100
AcDbLine
 10
270.8395493647925
 20
-267.9933013178952
 30
0.0
 11
271.0896323899725
 21
-275.986368107268
 31
0.0
  0
LINE
  5
26B
330
1F
100
AcDbEntity
  8
0
100
AcDbLine
 10
271.0896323899725
 20
-275.986368107268
 30
0.0
 11
263.2607447292472
 21
-275.8818765546864
 31
0.0
  0
LINE
  5
26C
330
1F
100
AcDbEntity
  8
0
100
AcDbLine
 10
263.8237282040723
 20
-293.810502376478
 30
0.0
 11
263.2607447292472
 21
-275.8818765546864
 31
0.0
  0
LINE
  5
26D
330
1F
100
AcDbEntity
  8
0
100
AcDbLine
 10
271.6761727059165
 20
-293.915623427191
 30
0.0
 11
263.8237282040723
 21
-293.810502376478
 31
0.0
  0
LINE
  5
26E
330
1F
100
AcDbEntity
  8
0
100
AcDbLine
 10
271.6761727059165
 20
-293.915623427191
 30
0.0
 11
271.9514213224891
 21
-301.9788066209814
 31
0.0
  0
LINE
  5
26F
330
1F
100
AcDbEntity
  8
0
100
AcDbLine
 10
271.9514213224891
 20
-301.9788066209814
 30
0.0
 11
147.1776970853231
 21
-300.3062032367466
 31
0.0
  0
LINE
  5
270
330
1F
100
AcDbEntity
  8
0
100
AcDbLine
 10
147.1776970853231
 20
-300.3062032367466
 30
0.0
 11
147.0258691833497
 21
-287.5249946767443
 31
0.0
  0
LINE
  5
271
330
1F
100
AcDbEntity
  8
0
100
AcDbLine
 10
227.2752466627109
 20
-15.3175099342692
 30
0.0
 11
224.933125459786
 21
72.98456479945511
 31
0.0
  0
LINE
  5
272
330
1F
100
AcDbEntity
  8
0
100
AcDbLine
 10
251.4811026830873
 20
-15.62648649358311
 30
0.0
 11
251.7080050385338
 21
-23.00096323094295
 31
0.0
  0
LINE
  5
273
330
1F
100
AcDbEntity
  8
0
100
AcDbLine
 10
234.7613136177341
 20
-15.41306611740296
 30
0.0
 11
227.2752466627109
 21
-15.3175099342692
 31
0.0
  0
LINE
  5
274
330
1F
100
AcDbEntity
  8
0
100
AcDbLine
 10
258.9679811885206
 20
-15.72205303577277
 30
0.0
 11
256.134729893829
 21
72.59245810212144
 31
0.0
  0
LINE
  5
275
330
1F
100
AcDbEntity
  8
0
100
AcDbLine
 10
248.763878847611
 20
72.68508667403869
 30
0.0
 11
248.9824589378982
 21
65.58108906281845
 31
0.0
  0
LINE
  5
276
330
1F
100
AcDbEntity
  8
0
100
AcDbLine
 10
232.3031899087143
 20
72.8919461126079
 30
0.0
 11
232.5009274604672
 21
65.78847249091507
 31
0.0
  0
LINE
  5
277
330
1F
100
AcDbEntity
  8
0
100
AcDbLine
 10
234.9665796329197
 20
-22.78699034866393
 30
0.0
 11
234.7613136177341
 21
-15.41306611740296
 31
0.0
  0
LINE
  5
278
330
1F
100
AcDbEntity
  8
0
100
AcDbLine
 10
224.933125459786
 20
72.98456479945511
 30
0.0
 11
232.3031899087143
 21
72.8919461126079
 31
0.0
  0
LINE
  5
279
330
1F
100
AcDbEntity
  8
0
100
AcDbLine
 10
232.5009274604672
 20
65.78847249091507
 30
0.0
 11
248.9824589378982
 21
65.58108906281845
 31
0.0
  0
LINE
  5
27A
330
1F
100
AcDbEntity
  8
0
100
AcDbLine
 10
248.763878847611
 20
72.68508667403869
 30
0.0
 11
256.134729893829
 21
72.59245810212144
 31
0.0
  0
LINE
  5
27B
330
1F
100
AcDbEntity
  8
0
100
AcDbLine
 10
-379.894371934451
 20
-226.7467811867113
 30
0.0
 11
-372.1411979221537
 21
-226.8495572303663
 31
0.0
  0
LINE
  5
27C
330
1F
100
AcDbEntity
  8
0
100
AcDbLine
 10
-379.5765273794889
 20
-324.9213527417078
 30
0.0
 11
-387.4581823982317
 21
-324.8151386150033
 31
0.0
  0
LINE
  5
27D
330
1F
100
AcDbEntity
  8
0
100
AcDbLine
 10
-354.0906027661853
 20
-325.2648041131847
 30
0.0
 11
-347.0707569199355
 21
-227.1818908958822
 31
0.0
  0
LINE
  5
27E
330
1F
100
AcDbEntity
  8
0
100
AcDbLine
 10
-354.8248026164574
 20
-227.0791032971856
 30
0.0
 11
-355.3993893302108
 21
-234.9627569623866
 31
0.0
  0
LINE
  5
27F
330
1F
100
AcDbEntity
  8
0
100
AcDbLine
 10
-354.8248026164574
 20
-227.0791032971856
 30
0.0
 11
-347.0707569199355
 21
-227.1818908958822
 31
0.0
  0
LINE
  5
280
330
1F
100
AcDbEntity
  8
0
100
AcDbLine
 10
-372.1411979221537
 20
-226.8495572303663
 30
0.0
 11
-372.7388519911403
 21
-234.7325983217529
 31
0.0
  0
LINE
  5
281
330
1F
100
AcDbEntity
  8
0
100
AcDbLine
 10
-380.1979816082379
 20
-333.1183173000709
 30
0.0
 11
-379.5765273794889
 21
-324.9213527417078
 31
0.0
  0
LINE
  5
282
330
1F
100
AcDbEntity
  8
0
100
AcDbLine
 10
-361.9731586150058
 20
-325.1585778467971
 30
0.0
 11
-362.5706276565391
 21
-333.3561899502162
 31
0.0
  0
LINE
  5
283
330
1F
100
AcDbEntity
  8
0
100
AcDbLine
 10
-387.4581823982317
 20
-324.8151386150033
 30
0.0
 11
-379.894371934451
 21
-226.7467811867113
 31
0.0
  0
LINE
  5
284
330
1F
100
AcDbEntity
  8
0
100
AcDbLine
 10
-372.7388519911403
 20
-234.7325983217529
 30
0.0
 11
-355.3993893302108
 21
-234.9627569623866
 31
0.0
  0
LINE
  5
285
330
1F
100
AcDbEntity
  8
0
100
AcDbLine
 10
-344.8818954968282
 20
-196.5986117598976
 30
0.0
 11
-338.1570348343595
 21
-102.6372999017836
 31
0.0
  0
LINE
  5
286
330
1F
100
AcDbEntity
  8
0
100
AcDbLine
 10
-352.5958695392276
 20
-196.4968848031013
 30
0.0
 11
-353.1680157503529
 21
-204.3470533962872
 31
0.0
  0
LINE
  5
287
330
1F
100
AcDbEntity
  8
0
100
AcDbLine
 10
-370.4178973526289
 20
-204.1192690798668
 30
0.0
 11
-369.8227815235062
 21
-196.269707304001
 31
0.0
  0
LINE
  5
288
330
1F
100
AcDbEntity
  8
0
100
AcDbLine
 10
-369.8227815235062
 20
-196.269707304001
 30
0.0
 11
-377.5358928717429
 21
-196.1679917238533
 31
0.0
  0
LINE
  5
289
330
1F
100
AcDbEntity
  8
0
100
AcDbLine
 10
-377.5358928717429
 20
-196.1679917238533
 30
0.0
 11
-370.2899030193454
 21
-102.2203278883543
 31
0.0
  0
LINE
  5
28A
330
1F
100
AcDbEntity
  8
0
100
AcDbLine
 10
-370.2899030193454
 20
-102.2203278883543
 30
0.0
 11
-362.6998793904248
 21
-102.3188197944085
 31
0.0
  0
LINE
  5
28B
330
1F
100
AcDbEntity
  8
0
100
AcDbLine
 10
-362.6998793904248
 20
-102.3188197944085
 30
0.0
 11
-363.2726044292871
 21
-109.8730476491163
 31
0.0
  0
LINE
  5
28C
330
1F
100
AcDbEntity
  8
0
100
AcDbLine
 10
-363.2726044292871
 20
-109.8730476491163
 30
0.0
 11
-346.2985127834825
 21
-110.0935996588897
 31
0.0
  0
LINE
  5
28D
330
1F
100
AcDbEntity
  8
0
100
AcDbLine
 10
-345.7478938283944
 20
-102.5387971556186
 30
0.0
 11
-346.2985127834825
 21
-110.0935996588897
 31
0.0
  0
LINE
  5
28E
330
1F
100
AcDbEntity
  8
0
100
AcDbLine
 10
-345.7478938283944
 20
-102.5387971556186
 30
0.0
 11
-338.1570348343595
 21
-102.6372999017836
 31
0.0
  0
LINE
  5
28F
330
1F
100
AcDbEntity
  8
0
100
AcDbLine
 10
-360.477863049202
 20
-73.01048403204538
 30
0.0
 11
-368.0294881778643
 21
-72.9129871409674
 31
0.0
  0
LINE
  5
290
330
1F
100
AcDbEntity
  8
0
100
AcDbLine
 10
-336.0591914985394
 20
-73.32574657746653
 30
0.0
 11
-329.6111052944067
 21
16.768408398244
 31
0.0
  0
LINE
  5
291
330
1F
100
AcDbEntity
  8
0
100
AcDbLine
 10
-361.0482800805874
 20
-80.53426933022375
 30
0.0
 11
-360.477863049202
 21
-73.01048403204538
 31
0.0
  0
LINE
  5
292
330
1F
100
AcDbEntity
  8
0
100
AcDbLine
 10
-361.0816998613471
 20
17.16835363601535
 30
0.0
 11
-353.6481017720312
 21
17.07388347438544
 31
0.0
  0
LINE
  5
293
330
1F
100
AcDbEntity
  8
0
100
AcDbLine
 10
-353.6481017720312
 20
17.07388347438544
 30
0.0
 11
-354.1974256026749
 21
9.828316926523827
 31
0.0
  0
LINE
  5
294
330
1F
100
AcDbEntity
  8
0
100
AcDbLine
 10
-354.1974256026749
 20
9.828316926523827
 30
0.0
 11
-337.5736248123671
 21
9.616782404503246
 31
0.0
  0
LINE
  5
295
330
1F
100
AcDbEntity
  8
0
100
AcDbLine
 10
-343.6116435568468
 20
-73.22823901014414
 30
0.0
 11
-344.1600433778776
 21
-80.75259374299756
 31
0.0
  0
LINE
  5
296
330
1F
100
AcDbEntity
  8
0
100
AcDbLine
 10
-368.0294881778643
 20
-72.9129871409674
 30
0.0
 11
-361.0816998613471
 21
17.16835363601535
 31
0.0
  0
LINE
  5
297
330
1F
100
AcDbEntity
  8
0
100
AcDbLine
 10
-337.0455046532044
 20
16.8628887428367
 30
0.0
 11
-337.5736248123671
 21
9.616782404503246
 31
0.0
  0
LINE
  5
298
330
1F
100
AcDbEntity
  8
0
100
AcDbLine
 10
-337.0455046532044
 20
16.8628887428367
 30
0.0
 11
-329.6111052944067
 21
16.768408398244
 31
0.0
  0
LINE
  5
299
330
1F
100
AcDbEntity
  8
0
100
AcDbLine
 10
-358.9133578179959
 20
45.28192728417996
 30
0.0
 11
-352.2457341636486
 21
131.7308015470898
 31
0.0
  0
LINE
  5
29A
330
1F
100
AcDbEntity
  8
0
100
AcDbLine
 10
-327.5987187326211
 20
44.88593986865683
 30
0.0
 11
-321.4106649865142
 21
131.3468610707452
 31
0.0
  0
LINE
  5
29B
330
1F
100
AcDbEntity
  8
0
100
AcDbLine
 10
-334.9962742509872
 20
44.97948521921709
 30
0.0
 11
-335.5223759344195
 21
37.76107350592438
 31
0.0
  0
LINE
  5
29C
330
1F
100
AcDbEntity
  8
0
100
AcDbLine
 10
-352.0638201601827
 20
37.97051531312648
 30
0.0
 11
-351.5165956435399
 21
45.1883919657938
 31
0.0
  0
LINE
  5
29D
330
1F
100
AcDbEntity
  8
0
100
AcDbLine
 10
-351.5165956435399
 20
45.1883919657938
 30
0.0
 11
-358.9133578179959
 21
45.28192728417996
 31
0.0
  0
LINE
  5
29E
330
1F
100
AcDbEntity
  8
0
100
AcDbLine
 10
-352.2457341636486
 20
131.7308015470898
 30
0.0
 11
-344.9622441575958
 21
131.6401117352294
 31
0.0
  0
LINE
  5
29F
330
1F
100
AcDbEntity
  8
0
100
AcDbLine
 10
-344.9622441575958
 20
131.6401117352294
 30
0.0
 11
-345.4895722582266
 21
124.6846682744912
 31
0.0
  0
LINE
  5
2A0
330
1F
100
AcDbEntity
  8
0
100
AcDbLine
 10
-345.4895722582266
 20
124.6846682744912
 30
0.0
 11
-329.2018969033385
 21
124.4816093041048
 31
0.0
  0
LINE
  5
2A1
330
1F
100
AcDbEntity
  8
0
100
AcDbLine
 10
-328.6949242120326
 20
131.4375604604816
 30
0.0
 11
-329.2018969033385
 21
124.4816093041048
 31
0.0
  0
LINE
  5
2A2
330
1F
100
AcDbEntity
  8
0
100
AcDbLine
 10
-328.6949242120326
 20
131.4375604604816
 30
0.0
 11
-321.4106649865142
 21
131.3468610707452
 31
0.0
  0
LINE
  5
2A3
330
1F
100
AcDbEntity
  8
0
100
AcDbLine
 10
-342.9158286155183
 20
158.6322776810106
 30
0.0
 11
-350.1639518155504
 21
158.7220880658242
 31
0.0
  0
LINE
  5
2A4
330
1F
100
AcDbEntity
  8
0
100
AcDbLine
 10
-319.4786178985782
 20
158.3418707915197
 30
0.0
 11
-313.5351781949294
 21
241.3849878959611
 31
0.0
  0
LINE
  5
2A5
330
1F
100
AcDbEntity
  8
0
100
AcDbLine
 10
-343.4412468616063
 20
151.7020251503128
 30
0.0
 11
-342.9158286155183
 21
158.6322776810106
 31
0.0
  0
LINE
  5
2A6
330
1F
100
AcDbEntity
  8
0
100
AcDbLine
 10
-343.7598818077931
 20
241.7538654383388
 30
0.0
 11
-336.6205575616895
 21
241.6667335208228
 31
0.0
  0
LINE
  5
2A7
330
1F
100
AcDbEntity
  8
0
100
AcDbLine
 10
-336.6205575616895
 20
241.6667335208228
 30
0.0
 11
-337.1271850722578
 21
234.9843302861064
 31
0.0
  0
LINE
  5
2A8
330
1F
100
AcDbEntity
  8
0
100
AcDbLine
 10
-337.1271850722578
 20
234.9843302861064
 30
0.0
 11
-321.1623119562807
 21
234.7892475029648
 31
0.0
  0
LINE
  5
2A9
330
1F
100
AcDbEntity
  8
0
100
AcDbLine
 10
-320.6752414956725
 20
241.4721288332725
 30
0.0
 11
-321.1623119562807
 21
234.7892475029648
 31
0.0
  0
LINE
  5
2AA
330
1F
100
AcDbEntity
  8
0
100
AcDbLine
 10
-320.6752414956725
 20
241.4721288332725
 30
0.0
 11
-313.5351781949294
 21
241.3849878959611
 31
0.0
  0
LINE
  5
2AB
330
1F
100
AcDbEntity
  8
0
100
AcDbLine
 10
-326.7275028621204
 20
158.4316906152193
 30
0.0
 11
-327.2326392420654
 21
151.5009346860303
 31
0.0
  0
LINE
  5
2AC
330
1F
100
AcDbEntity
  8
0
100
AcDbLine
 10
-350.1639518155504
 20
158.7220880658242
 30
0.0
 11
-343.7598818077931
 21
241.7538654383388
 31
0.0
  0
LINE
  5
2AD
330
1F
100
AcDbEntity
  8
0
100
AcDbLine
 10
-341.759577574867
 20
267.6887499015822
 30
0.0
 11
-335.603737891797
 21
347.5021044536768
 31
0.0
  0
LINE
  5
2AE
330
1F
100
AcDbEntity
  8
0
100
AcDbLine
 10
-312.9671705258153
 20
347.2312083570621
 30
0.0
 11
-305.9657050951404
 21
347.1474204918319
 31
0.0
  0
LINE
  5
2AF
330
1F
100
AcDbEntity
  8
0
100
AcDbLine
 10
-318.7848262640985
 20
267.409691628292
 30
0.0
 11
-319.2702260291464
 21
260.7497331830124
 31
0.0
  0
LINE
  5
2B0
330
1F
100
AcDbEntity
  8
0
100
AcDbLine
 10
-335.1591270972316
 20
260.942962030517
 30
0.0
 11
-334.6542371925921
 21
267.6024462897782
 31
0.0
  0
LINE
  5
2B1
330
1F
100
AcDbEntity
  8
0
100
AcDbLine
 10
-335.603737891797
 20
347.5021044536768
 30
0.0
 11
-328.6029830911236
 21
347.4183250926902
 31
0.0
  0
LINE
  5
2B2
330
1F
100
AcDbEntity
  8
0
100
AcDbLine
 10
-328.6029830911236
 20
347.4183250926902
 30
0.0
 11
-329.0901054323257
 21
340.9931945171708
 31
0.0
  0
LINE
  5
2B3
330
1F
100
AcDbEntity
  8
0
100
AcDbLine
 10
-329.0901054323257
 20
340.9931945171708
 30
0.0
 11
-313.4354881125648
 21
340.8056270289829
 31
0.0
  0
LINE
  5
2B4
330
1F
100
AcDbEntity
  8
0
100
AcDbLine
 10
-312.9671705258153
 20
347.2312083570621
 30
0.0
 11
-313.4354881125648
 21
340.8056270289829
 31
0.0
  0
LINE
  5
2B5
330
1F
100
AcDbEntity
  8
0
100
AcDbLine
 10
-311.6787538499044
 20
267.3233791250158
 30
0.0
 11
-305.9657050951404
 21
347.1474204918319
 31
0.0
  0
LINE
  5
2B6
330
1F
100
AcDbEntity
  8
0
100
AcDbLine
 10
-334.6542371925921
 20
267.6024462897782
 30
0.0
 11
-341.759577574867
 21
267.6887499015822
 31
0.0
  0
LINE
  5
2B7
330
1F
100
AcDbEntity
  8
0
100
AcDbLine
 10
320.9750681579225
 20
-0.4800067745034851
 30
0.0
 11
317.1912237207426
 21
87.36653131336955
 31
0.0
  0
LINE
  5
2B8
330
1F
100
AcDbEntity
  8
0
100
AcDbLine
 10
313.5071698736916
 20
-0.3849505664186479
 30
0.0
 11
313.8134866507731
 21
-7.720021881304532
 31
0.0
  0
LINE
  5
2B9
330
1F
100
AcDbEntity
  8
0
100
AcDbLine
 10
297.1145553215114
 20
-7.50719307511774
 30
0.0
 11
296.829765254776
 21
-0.1726698438697163
 31
0.0
  0
LINE
  5
2BA
330
1F
100
AcDbEntity
  8
0
100
AcDbLine
 10
296.829765254776
 20
-0.1726698438697163
 30
0.0
 11
289.3626742994672
 21
-0.0776239119764484
 31
0.0
  0
LINE
  5
2BB
330
1F
100
AcDbEntity
  8
0
100
AcDbLine
 10
289.3626742994672
 20
-0.0776239119764484
 30
0.0
 11
286.0674922315512
 21
87.75657648878321
 31
0.0
  0
LINE
  5
2BC
330
1F
100
AcDbEntity
  8
0
100
AcDbLine
 10
286.0674922315512
 20
87.75657648878321
 30
0.0
 11
293.4191635108676
 21
87.66444473669169
 31
0.0
  0
LINE
  5
2BD
330
1F
100
AcDbEntity
  8
0
100
AcDbLine
 10
293.4191635108676
 20
87.66444473669169
 30
0.0
 11
293.6935312005292
 21
80.59834086307113
 31
0.0
  0
LINE
  5
2BE
330
1F
100
AcDbEntity
  8
0
100
AcDbLine
 10
293.6935312005292
 20
80.59834086307113
 30
0.0
 11
310.1338761250863
 21
80.39204913904548
 31
0.0
  0
LINE
  5
2BF
330
1F
100
AcDbEntity
  8
0
100
AcDbLine
 10
309.8387698726714
 20
87.45867287267676
 30
0.0
 11
310.1338761250863
 21
80.39204913904548
 31
0.0
  0
LINE
  5
2C0
330
1F
100
AcDbEntity
  8
0
100
AcDbLine
 10
309.8387698726714
 20
87.45867287267676
 30
0.0
 11
317.1912237207426
 21
87.36653131336955
 31
0.0
  0
LINE
  5
2C1
330
1F
100
AcDbEntity
  8
0
100
AcDbLine
 10
-288.3179273084588
 20
-330.1084580077716
 30
0.0
 11
-282.3667035234333
 21
-231.8686870970087
 31
0.0
  0
LINE
  5
2C2
330
1F
100
AcDbEntity
  8
0
100
AcDbLine
 10
-296.2079988189998
 20
-330.0020604628451
 30
0.0
 11
-296.7161785851662
 21
-338.2128992504749
 31
0.0
  0
LINE
  5
2C3
330
1F
100
AcDbEntity
  8
0
100
AcDbLine
 10
-314.3603615391519
 20
-337.9746425432569
 30
0.0
 11
-313.8281507907703
 21
-329.7644528684858
 31
0.0
  0
LINE
  5
2C4
330
1F
100
AcDbEntity
  8
0
100
AcDbLine
 10
-313.8281507907703
 20
-329.7644528684858
 30
0.0
 11
-321.7173198857491
 21
-329.6580674926145
 31
0.0
  0
LINE
  5
2C5
330
1F
100
AcDbEntity
  8
0
100
AcDbLine
 10
-321.7173198857491
 20
-329.6580674926145
 30
0.0
 11
-315.2211020735794
 21
-231.4328873015154
 31
0.0
  0
LINE
  5
2C6
330
1F
100
AcDbEntity
  8
0
100
AcDbLine
 10
-315.2211020735794
 20
-231.4328873015154
 30
0.0
 11
-307.4606571144949
 21
-231.5358263439375
 31
0.0
  0
LINE
  5
2C7
330
1F
100
AcDbEntity
  8
0
100
AcDbLine
 10
-307.4606571144949
 20
-231.5358263439375
 30
0.0
 11
-307.9724720257547
 21
-239.4313780827878
 31
0.0
  0
LINE
  5
2C8
330
1F
100
AcDbEntity
  8
0
100
AcDbLine
 10
-307.9724720257547
 20
-239.4313780827878
 30
0.0
 11
-290.6167259092844
 21
-239.6619022435785
 31
0.0
  0
LINE
  5
2C9
330
1F
100
AcDbEntity
  8
0
100
AcDbLine
 10
-290.128021675871
 20
-231.7657364720443
 30
0.0
 11
-290.6167259092844
 21
-239.6619022435785
 31
0.0
  0
LINE
  5
2CA
330
1F
100
AcDbEntity
  8
0
100
AcDbLine
 10
-290.128021675871
 20
-231.7657364720443
 30
0.0
 11
-282.3667035234333
 21
-231.8686870970087
 31
0.0
  0
LINE
  5
2CB
330
1F
100
AcDbEntity
  8
0
100
AcDbLine
 10
-305.9848747956967
 20
-208.7695579195199
 30
0.0
 11
-305.475237746405
 21
-200.9076031343159
 31
0.0
  0
LINE
  5
2CC
330
1F
100
AcDbEntity
  8
0
100
AcDbLine
 10
-306.9725003611609
 20
-106.7110240645442
 30
0.0
 11
-299.375508751821
 21
-106.8096688807827
 31
0.0
  0
LINE
  5
2CD
330
1F
100
AcDbEntity
  8
0
100
AcDbLine
 10
-299.375508751821
 20
-106.8096688807827
 30
0.0
 11
-299.8659587106389
 21
-114.3756325523631
 31
0.0
  0
LINE
  5
2CE
330
1F
100
AcDbEntity
  8
0
100
AcDbLine
 10
-299.8659587106389
 20
-114.3756325523631
 30
0.0
 11
-282.8762630196301
 21
-114.5965274294048
 31
0.0
  0
LINE
  5
2CF
330
1F
100
AcDbEntity
  8
0
100
AcDbLine
 10
-282.4079597860068
 20
-107.0299877696037
 30
0.0
 11
-282.8762630196301
 21
-114.5965274294048
 31
0.0
  0
LINE
  5
2D0
330
1F
100
AcDbEntity
  8
0
100
AcDbLine
 10
-282.4079597860068
 20
-107.0299877696037
 30
0.0
 11
-274.8101313957941
 21
-107.1286434512078
 31
0.0
  0
LINE
  5
2D1
330
1F
100
AcDbEntity
  8
0
100
AcDbLine
 10
-280.5110816586159
 20
-201.2370265374689
 30
0.0
 11
-274.8101313957941
 21
-107.1286434512078
 31
0.0
  0
LINE
  5
2D2
330
1F
100
AcDbEntity
  8
0
100
AcDbLine
 10
-288.2322531403078
 20
-201.1351390722182
 30
0.0
 11
-288.7188776558513
 21
-208.9977021124161
 31
0.0
  0
LINE
  5
2D3
330
1F
100
AcDbEntity
  8
0
100
AcDbLine
 10
-305.475237746405
 20
-200.9076031343159
 30
0.0
 11
-313.1955450481022
 21
-200.8057270726496
 31
0.0
  0
LINE
  5
2D4
330
1F
100
AcDbEntity
  8
0
100
AcDbLine
 10
-313.1955450481022
 20
-200.8057270726496
 30
0.0
 11
-306.9725003611609
 21
-106.7110240645442
 31
0.0
  0
LINE
  5
2D5
330
1F
100
AcDbEntity
  8
0
100
AcDbLine
 10
-280.5910808792107
 20
-77.67403778187304
 30
0.0
 11
-281.0574930642252
 21
-85.210023105787
 31
0.0
  0
LINE
  5
2D6
330
1F
100
AcDbEntity
  8
0
100
AcDbLine
 10
-297.472706599069
 20
-77.45594644062024
 30
0.0
 11
-305.0312293414112
 21
-77.35829895154743
 31
0.0
  0
LINE
  5
2D7
330
1F
100
AcDbEntity
  8
0
100
AcDbLine
 10
-273.0317298128653
 20
-77.7716959719369
 30
0.0
 11
-267.5655908817803
 21
12.46054125418812
 31
0.0
  0
LINE
  5
2D8
330
1F
100
AcDbEntity
  8
0
100
AcDbLine
 10
-297.9611762673367
 20
-84.99136100908888
 30
0.0
 11
-297.472706599069
 21
-77.45594644062024
 31
0.0
  0
LINE
  5
2D9
330
1F
100
AcDbEntity
  8
0
100
AcDbLine
 10
-299.0644820135993
 20
12.861094605599
 30
0.0
 11
-291.6242003613082
 21
12.76648080669428
 31
0.0
  0
LINE
  5
2DA
330
1F
100
AcDbEntity
  8
0
100
AcDbLine
 10
-291.6242003613082
 20
12.76648080669428
 30
0.0
 11
-292.094595743703
 21
5.509890586857391
 31
0.0
  0
LINE
  5
2DB
330
1F
100
AcDbEntity
  8
0
100
AcDbLine
 10
-292.094595743703
 20
5.509890586857391
 30
0.0
 11
-275.4558286674115
 21
5.298034016603073
 31
0.0
  0
LINE
  5
2DC
330
1F
100
AcDbEntity
  8
0
100
AcDbLine
 10
-275.0066751334871
 20
12.55516525928912
 30
0.0
 11
-275.4558286674115
 21
5.298034016603073
 31
0.0
  0
LINE
  5
2DD
330
1F
100
AcDbEntity
  8
0
100
AcDbLine
 10
-275.0066751334871
 20
12.55516525928912
 30
0.0
 11
-267.5655908817803
 21
12.46054125418812
 31
0.0
  0
LINE
  5
2DE
330
1F
100
AcDbEntity
  8
0
100
AcDbLine
 10
-305.0312293414112
 20
-77.35829895154743
 30
0.0
 11
-299.0644820135993
 21
12.861094605599
 31
0.0
  0
LINE
  5
2DF
330
1F
100
AcDbEntity
  8
0
100
AcDbLine
 10
-297.2023435204075
 20
41.01730708541785
 30
0.0
 11
-291.4763797609261
 21
127.5959653608725
 31
0.0
  0
LINE
  5
2E0
330
1F
100
AcDbEntity
  8
0
100
AcDbLine
 10
-273.263862068889
 20
40.71440744704989
 30
0.0
 11
-273.7112955625257
 21
33.4850674988057
 31
0.0
  0
LINE
  5
2E1
330
1F
100
AcDbEntity
  8
0
100
AcDbLine
 10
-289.7989638960088
 20
40.92363025734918
 30
0.0
 11
-297.2023435204075
 21
41.01730708541785
 31
0.0
  0
LINE
  5
2E2
330
1F
100
AcDbEntity
  8
0
100
AcDbLine
 10
-265.8596877903383
 20
40.62072056403141
 30
0.0
 11
-260.6141459779262
 21
127.2114529190848
 31
0.0
  0
LINE
  5
2E3
330
1F
100
AcDbEntity
  8
0
100
AcDbLine
 10
-290.2675580655269
 20
33.69482658524147
 30
0.0
 11
-289.7989638960088
 21
40.92363025734918
 31
0.0
  0
LINE
  5
2E4
330
1F
100
AcDbEntity
  8
0
100
AcDbLine
 10
-291.4763797609261
 20
127.5959653608725
 30
0.0
 11
-284.1864735442797
 21
127.5051404497699
 31
0.0
  0
LINE
  5
2E5
330
1F
100
AcDbEntity
  8
0
100
AcDbLine
 10
-284.1864735442797
 20
127.5051404497699
 30
0.0
 11
-284.6380197176608
 21
120.5393289894632
 31
0.0
  0
LINE
  5
2E6
330
1F
100
AcDbEntity
  8
0
100
AcDbLine
 10
-284.6380197176608
 20
120.5393289894632
 30
0.0
 11
-268.3359775211529
 21
120.3359671379045
 31
0.0
  0
LINE
  5
2E7
330
1F
100
AcDbEntity
  8
0
100
AcDbLine
 10
-267.9048226649469
 20
127.3022874294739
 30
0.0
 11
-268.3359775211529
 21
120.3359671379045
 31
0.0
  0
LINE
  5
2E8
330
1F
100
AcDbEntity
  8
0
100
AcDbLine
 10
-267.9048226649469
 20
127.3022874294739
 30
0.0
 11
-260.6141459779262
 21
127.2114529190848
 31
0.0
  0
LINE
  5
2E9
330
1F
100
AcDbEntity
  8
0
100
AcDbLine
 10
-258.9763968505965
 20
154.2465813044608
 30
0.0
 11
-253.9383625054645
 21
237.4118860862552
 31
0.0
  0
LINE
  5
2EA
330
1F
100
AcDbEntity
  8
0
100
AcDbLine
 10
-266.2316370621062
 20
154.3365342873448
 30
0.0
 11
-266.6612271165848
 21
147.3954970463282
 31
0.0
  0
LINE
  5
2EB
330
1F
100
AcDbEntity
  8
0
100
AcDbLine
 10
-282.8840623507126
 20
147.59688599654
 30
0.0
 11
-282.4341548259828
 21
154.5374187185334
 31
0.0
  0
LINE
  5
2EC
330
1F
100
AcDbEntity
  8
0
100
AcDbLine
 10
-282.4341548259828
 20
154.5374187185334
 30
0.0
 11
-289.6886320412247
 21
154.6273622415344
 31
0.0
  0
LINE
  5
2ED
330
1F
100
AcDbEntity
  8
0
100
AcDbLine
 10
-289.6886320412247
 20
154.6273622415344
 30
0.0
 11
-284.1891653544038
 21
237.7813022550554
 31
0.0
  0
LINE
  5
2EE
330
1F
100
AcDbEntity
  8
0
100
AcDbLine
 10
-284.1891653544038
 20
237.7813022550554
 30
0.0
 11
-277.0436765234201
 21
237.6940431128325
 31
0.0
  0
LINE
  5
2EF
330
1F
100
AcDbEntity
  8
0
100
AcDbLine
 10
-277.0436765234201
 20
237.6940431128325
 30
0.0
 11
-277.4774841584074
 21
231.0018765670785
 31
0.0
  0
LINE
  5
2F0
330
1F
100
AcDbEntity
  8
0
100
AcDbLine
 10
-277.4774841584074
 20
231.0018765670785
 30
0.0
 11
-261.4988083391028
 21
230.8065085785086
 31
0.0
  0
LINE
  5
2F1
330
1F
100
AcDbEntity
  8
0
100
AcDbLine
 10
-261.0845915691106
 20
237.4991542680364
 30
0.0
 11
-261.4988083391028
 21
230.8065085785086
 31
0.0
  0
LINE
  5
2F2
330
1F
100
AcDbEntity
  8
0
100
AcDbLine
 10
-261.0845915691106
 20
237.4991542680364
 30
0.0
 11
-253.9383625054645
 21
237.4118860862552
 31
0.0
  0
LINE
  5
2F3
330
1F
100
AcDbEntity
  8
0
100
AcDbLine
 10
-259.476942717625
 20
263.4745008392986
 30
0.0
 11
-259.8897358145562
 21
256.8048579349438
 31
0.0
  0
LINE
  5
2F4
330
1F
100
AcDbEntity
  8
0
100
AcDbLine
 10
-252.3647631385366
 20
263.3880629024247
 30
0.0
 11
-247.5221621168667
 21
343.3272539269855
 31
0.0
  0
LINE
  5
2F5
330
1F
100
AcDbEntity
  8
0
100
AcDbLine
 10
-275.7923084594439
 20
256.9983679304823
 30
0.0
 11
-275.3599916842392
 21
263.6675356141675
 31
0.0
  0
LINE
  5
2F6
330
1F
100
AcDbEntity
  8
0
100
AcDbLine
 10
-275.3599916842392
 20
263.6675356141675
 30
0.0
 11
-282.4714380701436
 21
263.7539646401801
 31
0.0
  0
LINE
  5
2F7
330
1F
100
AcDbEntity
  8
0
100
AcDbLine
 10
-282.4714380701436
 20
263.7539646401801
 30
0.0
 11
-277.1852902466879
 21
343.6824457177382
 31
0.0
  0
LINE
  5
2F8
330
1F
100
AcDbEntity
  8
0
100
AcDbLine
 10
-277.1852902466879
 20
343.6824457177382
 30
0.0
 11
-270.1786079698896
 21
343.5985464063021
 31
0.0
  0
LINE
  5
2F9
330
1F
100
AcDbEntity
  8
0
100
AcDbLine
 10
-270.1786079698896
 20
343.5985464063021
 30
0.0
 11
-270.5957021604348
 21
337.1642110851255
 31
0.0
  0
LINE
  5
2FA
330
1F
100
AcDbEntity
  8
0
100
AcDbLine
 10
-270.5957021604348
 20
337.1642110851255
 30
0.0
 11
-254.9278136887056
 21
336.9763747182024
 31
0.0
  0
LINE
  5
2FB
330
1F
100
AcDbEntity
  8
0
100
AcDbLine
 10
-254.5295561343575
 20
343.411161760936
 30
0.0
 11
-254.9278136887056
 21
336.9763747182024
 31
0.0
  0
LINE
  5
2FC
330
1F
100
AcDbEntity
  8
0
100
AcDbLine
 10
-254.5295561343575
 20
343.411161760936
 30
0.0
 11
-247.5221621168667
 21
343.3272539269855
 31
0.0
  0
LINE
  5
2FD
330
1F
100
AcDbEntity
  8
0
100
AcDbLine
 10
-171.7535235734759
 20
38.80400940899843
 30
0.0
 11
-171.4368079671807
 21
46.01975693201231
 31
0.0
  0
LINE
  5
2FE
330
1F
100
AcDbEntity
  8
0
100
AcDbLine
 10
-174.9286830443368
 20
132.5368502417412
 30
0.0
 11
-167.6433549626424
 21
132.4461867545372
 31
0.0
  0
LINE
  5
2FF
330
1F
100
AcDbEntity
  8
0
100
AcDbLine
 10
-167.6433549626424
 20
132.4461867545372
 30
0.0
 11
-167.9485565570781
 21
125.492763540474
 31
0.0
  0
LINE
  5
300
330
1F
100
AcDbEntity
  8
0
100
AcDbLine
 10
-167.9485565570781
 20
125.492763540474
 30
0.0
 11
-151.6567657814546
 21
125.2897635876592
 31
0.0
  0
LINE
  5
301
330
1F
100
AcDbEntity
  8
0
100
AcDbLine
 10
-151.3719298894261
 20
132.2436942761785
 30
0.0
 11
-151.6567657814546
 21
125.2897635876592
 31
0.0
  0
LINE
  5
302
330
1F
100
AcDbEntity
  8
0
100
AcDbLine
 10
-151.3719298894261
 20
132.2436942761785
 30
0.0
 11
-144.0858325058309
 21
132.1530212152684
 31
0.0
  0
LINE
  5
303
330
1F
100
AcDbEntity
  8
0
100
AcDbLine
 10
-154.9122525944191
 20
45.81091177050136
 30
0.0
 11
-155.2078345194451
 21
38.59462942359726
 31
0.0
  0
LINE
  5
304
330
1F
100
AcDbEntity
  8
0
100
AcDbLine
 10
-171.4368079671807
 20
46.01975693201231
 30
0.0
 11
-178.8354659104959
 21
46.11326467721359
 31
0.0
  0
LINE
  5
305
330
1F
100
AcDbEntity
  8
0
100
AcDbLine
 10
-147.5128012208448
 20
45.71739399756163
 30
0.0
 11
-144.0858325058309
 21
132.1530212152684
 31
0.0
  0
LINE
  5
306
330
1F
100
AcDbEntity
  8
0
100
AcDbLine
 10
-178.8354659104959
 20
46.11326467721359
 30
0.0
 11
-174.9286830443368
 21
132.5368502417412
 31
0.0
  0
LINE
  5
307
330
1F
100
AcDbEntity
  8
0
100
AcDbLine
 10
61.09743035232251
 20
-174.4875901208469
 30
0.0
 11
61.09180403342166
 21
-182.2931763757808
 31
0.0
  0
LINE
  5
308
330
1F
100
AcDbEntity
  8
0
100
AcDbLine
 10
57.67479046712672
 20
-182.3087423954958
 30
0.0
 11
61.09180403342166
 21
-182.2931763757808
 31
0.0
  0
LINE
  5
309
330
1F
100
AcDbEntity
  8
0
100
AcDbLine
 10
50.70949148590977
 20
-182.1760073407158
 30
0.0
 11
56.28760217212087
 21
-182.2930872114818
 31
0.0
  0
LINE
  5
30A
330
1F
100
AcDbEntity
  8
0
100
AcDbLine
 10
81.83570859194847
 20
-174.7623378427797
 30
0.0
 11
81.84162074091972
 21
-182.5684582433915
 31
0.0
  0
LINE
  5
30B
330
1F
100
AcDbEntity
  8
0
100
AcDbLine
 10
92.64553520854
 20
-154.2834832913093
 30
0.0
 11
92.62466821926148
 21
-146.5999349578399
 31
0.0
  0
LINE
  5
30C
330
1F
100
AcDbEntity
  8
0
100
AcDbLine
 10
142.818852439276
 20
-154.905645919227
 30
0.0
 11
92.64553520854
 21
-154.2834832913093
 31
0.0
  0
LINE
  5
30D
330
1F
100
AcDbEntity
  8
0
100
AcDbLine
 10
145.1084313225804
 20
-147.3186364746129
 30
0.0
 11
142.7321089462191
 21
-147.2338317136596
 31
0.0
  0
LINE
  5
30E
330
1F
100
AcDbEntity
  8
0
100
AcDbLine
 10
166.4481005437067
 20
-90.94577447090435
 30
0.0
 11
190.4652549650293
 21
-91.21346008778602
 31
0.0
  0
LINE
  5
30F
330
1F
100
AcDbEntity
  8
0
100
AcDbLine
 10
81.80754466952197
 20
-154.1538052441512
 30
0.0
 11
61.14219832299538
 21
-153.8809865872155
 31
0.0
  0
LINE
  5
310
330
1F
100
AcDbEntity
  8
0
100
AcDbLine
 10
92.47071973957519
 20
-89.91503495269176
 30
0.0
 11
142.0921574453882
 21
-90.63432995517252
 31
0.0
  0
LINE
  5
311
330
1F
100
AcDbEntity
  8
0
100
AcDbLine
 10
61.09743035232251
 20
-174.4875901208469
 30
0.0
 11
81.83570859194847
 21
-174.7623378427797
 31
0.0
  0
LINE
  5
312
330
1F
100
AcDbEntity
  8
0
100
AcDbLine
 10
81.75218367843713
 20
-89.77415736246698
 30
0.0
 11
81.757900318909
 21
-97.35534329981586
 31
0.0
  0
LINE
  5
313
330
1F
100
AcDbEntity
  8
0
100
AcDbLine
 10
81.80754466952197
 20
-154.1538052441512
 30
0.0
 11
81.80095003096794
 21
-146.4839649376982
 31
0.0
  0
LINE
  5
314
330
1F
100
AcDbEntity
  8
0
100
AcDbLine
 10
142.818852439276
 20
-154.905645919227
 30
0.0
 11
142.7321089462191
 21
-147.2338317136596
 31
0.0
  0
LINE
  5
315
330
1F
100
AcDbEntity
  8
0
100
AcDbLine
 10
57.94201882254281
 20
-97.1031159117849
 30
0.0
 11
61.30941073839445
 21
-97.08799870118146
 31
0.0
  0
LINE
  5
316
330
1F
100
AcDbEntity
  8
0
100
AcDbLine
 10
61.31467017111739
 20
-89.50732119829092
 30
0.0
 11
61.30941073839445
 21
-97.08799870118146
 31
0.0
  0
LINE
  5
317
330
1F
100
AcDbEntity
  8
0
100
AcDbLine
 10
61.31467017111739
 20
-89.50732119829092
 30
0.0
 11
81.75218367843713
 21
-89.77415736246698
 31
0.0
  0
LINE
  5
318
330
1F
100
AcDbEntity
  8
0
100
AcDbLine
 10
81.757900318909
 20
-97.35534329981586
 30
0.0
 11
92.49224396626613
 21
-97.49727988058584
 31
0.0
  0
LINE
  5
319
330
1F
100
AcDbEntity
  8
0
100
AcDbLine
 10
92.47071973957519
 20
-89.91503495269176
 30
0.0
 11
92.49224396626613
 21
-97.49727988058584
 31
0.0
  0
LINE
  5
31A
330
1F
100
AcDbEntity
  8
0
100
AcDbLine
 10
142.0921574453882
 20
-90.63432995517252
 30
0.0
 11
142.1772244463258
 21
-98.15787020903541
 31
0.0
  0
LINE
  5
31B
330
1F
100
AcDbEntity
  8
0
100
AcDbLine
 10
166.4481005437067
 20
-90.94577447090435
 30
0.0
 11
166.5655167158283
 21
-98.45041686626847
 31
0.0
  0
LINE
  5
31C
330
1F
100
AcDbEntity
  8
0
100
AcDbLine
 10
190.4652549650293
 20
-91.21346008778602
 30
0.0
 11
191.7314242041109
 21
-155.5513713479213
 31
0.0
  0
LINE
  5
31D
330
1F
100
AcDbEntity
  8
0
100
AcDbLine
 10
191.7314242041109
 20
-155.5513713479213
 30
0.0
 11
167.4459842110906
 21
-155.2307640769341
 31
0.0
  0
LINE
  5
31E
330
1F
100
AcDbEntity
  8
0
100
AcDbLine
 10
167.4459842110906
 20
-155.2307640769341
 30
0.0
 11
167.3273008627792
 21
-147.5848402816637
 31
0.0
  0
LINE
  5
31F
330
1F
100
AcDbEntity
  8
0
100
AcDbLine
 10
167.3273008627792
 20
-147.5848402816637
 30
0.0
 11
149.1607683948897
 21
-147.3720641318696
 31
0.0
  0
LINE
  5
320
330
1F
100
AcDbEntity
  8
0
100
AcDbLine
 10
149.1607683948897
 20
-147.3720641318696
 30
0.0
 11
145.1084313225804
 21
-147.3186364746129
 31
0.0
  0
LINE
  5
321
330
1F
100
AcDbEntity
  8
0
100
AcDbLine
 10
92.62466821926148
 20
-146.5999349578399
 30
0.0
 11
81.80095003096794
 21
-146.4839649376982
 31
0.0
  0
LINE
  5
322
330
1F
100
AcDbEntity
  8
0
100
AcDbLine
 10
61.14219832299538
 20
-153.8809865872155
 30
0.0
 11
61.16274643759776
 21
-146.2118624821748
 31
0.0
  0
LINE
  5
323
330
1F
100
AcDbEntity
  8
0
100
AcDbLine
 10
61.16274643759776
 20
-146.2118624821748
 30
0.0
 11
50.84436685595426
 21
-146.0758207763874
 31
0.0
  0
LINE
  5
324
330
1F
100
AcDbEntity
  8
0
100
AcDbLine
 10
56.28760217212087
 20
-182.2930872114818
 30
0.0
 11
57.67479046712672
 21
-182.3087423954958
 31
0.0
  0
LINE
  5
325
330
1F
100
AcDbEntity
  8
0
100
AcDbLine
 10
81.84162074091972
 20
-182.5684582433915
 30
0.0
 11
92.7341561079598
 21
-182.7146089716661
 31
0.0
  0
LINE
  5
326
330
1F
100
AcDbEntity
  8
0
100
AcDbLine
 10
92.71199323956874
 20
-174.9073925332532
 30
0.0
 11
92.7341561079598
 21
-182.7146089716661
 31
0.0
  0
LINE
  5
327
330
1F
100
AcDbEntity
  8
0
100
AcDbLine
 10
92.71199323956874
 20
-174.9073925332532
 30
0.0
 11
143.0632236292205
 21
-175.5940128534021
 31
0.0
  0
LINE
  5
328
330
1F
100
AcDbEntity
  8
0
100
AcDbLine
 10
143.0632236292205
 20
-175.5940128534021
 30
0.0
 11
143.1514460119346
 21
-183.3948138527929
 31
0.0
  0
LINE
  5
329
330
1F
100
AcDbEntity
  8
0
100
AcDbLine
 10
167.7783526206255
 20
-175.9686972300977
 30
0.0
 11
167.8992532394331
 21
-183.6960476719919
 31
0.0
  0
LINE
  5
32A
330
1F
100
AcDbEntity
  8
0
100
AcDbLine
 10
167.7783526206255
 20
-175.9686972300977
 30
0.0
 11
192.1501844578133
 21
-176.2983374067935
 31
0.0
  0
LINE
  5
32B
330
1F
100
AcDbEntity
  8
0
100
AcDbLine
 10
192.1501844578133
 20
-176.2983374067935
 30
0.0
 11
193.4542616320657
 21
-242.5564578767405
 31
0.0
  0
LINE
  5
32C
330
1F
100
AcDbEntity
  8
0
100
AcDbLine
 10
193.4542616320657
 20
-242.5564578767405
 30
0.0
 11
168.8079287513729
 21
-242.2262406572356
 31
0.0
  0
LINE
  5
32D
330
1F
100
AcDbEntity
  8
0
100
AcDbLine
 10
168.6838615181778
 20
-234.2958896309166
 30
0.0
 11
168.8079287513729
 21
-242.2262406572356
 31
0.0
  0
LINE
  5
32E
330
1F
100
AcDbEntity
  8
0
100
AcDbLine
 10
168.6838615181778
 20
-234.2958896309166
 30
0.0
 11
150.2472193209886
 21
-234.0767401777105
 31
0.0
  0
LINE
  5
32F
330
1F
100
AcDbEntity
  8
0
100
AcDbLine
 10
143.8129577246326
 20
-241.8913523039141
 30
0.0
 11
143.7235985945708
 21
-233.9894517218655
 31
0.0
  0
LINE
  5
330
330
1F
100
AcDbEntity
  8
0
100
AcDbLine
 10
143.8129577246326
 20
-241.8913523039141
 30
0.0
 11
92.8921398507668
 21
-241.1952992431355
 31
0.0
  0
LINE
  5
331
330
1F
100
AcDbEntity
  8
0
100
AcDbLine
 10
92.8921398507668
 20
-241.1952992431355
 30
0.0
 11
92.87063339194748
 21
-233.2814853444763
 31
0.0
  0
LINE
  5
332
330
1F
100
AcDbEntity
  8
0
100
AcDbLine
 10
92.87063339194748
 20
-233.2814853444763
 30
0.0
 11
81.88603219104492
 21
-233.1620422339564
 31
0.0
  0
LINE
  5
333
330
1F
100
AcDbEntity
  8
0
100
AcDbLine
 10
81.89283854662565
 20
-241.0617323484847
 30
0.0
 11
81.88603219104492
 21
-233.1620422339564
 31
0.0
  0
LINE
  5
334
330
1F
100
AcDbEntity
  8
0
100
AcDbLine
 10
81.89283854662565
 20
-241.0617323484847
 30
0.0
 11
60.91993391845723
 21
-240.7807325630528
 31
0.0
  0
LINE
  5
335
330
1F
100
AcDbEntity
  8
0
100
AcDbLine
 10
60.91993391845723
 20
-240.7807325630528
 30
0.0
 11
60.94108370211977
 21
-232.8817910838639
 31
0.0
  0
LINE
  5
336
330
1F
100
AcDbEntity
  8
0
100
AcDbLine
 10
60.94108370211977
 20
-232.8817910838639
 30
0.0
 11
50.46935330035424
 21
-232.7416754617056
 31
0.0
  0
LINE
  5
337
330
1F
100
AcDbEntity
  8
0
100
AcDbLine
 10
212.3337120312066
 20
-165.0582294807065
 30
0.0
 11
262.0182861645559
 21
-165.7091111982823
 31
0.0
  0
LINE
  5
338
330
1F
100
AcDbEntity
  8
0
100
AcDbLine
 10
211.7675096847731
 20
-140.7483476393027
 30
0.0
 11
212.3337120312066
 21
-165.0582294807065
 31
0.0
  0
LINE
  5
339
330
1F
100
AcDbEntity
  8
0
100
AcDbLine
 10
204.1172467397237
 20
-140.6485434003917
 30
0.0
 11
211.7675096847731
 21
-140.7483476393027
 31
0.0
  0
LINE
  5
33A
330
1F
100
AcDbEntity
  8
0
100
AcDbLine
 10
203.5908833240649
 20
-116.6992692965318
 30
0.0
 11
204.1172467397237
 21
-140.6485434003917
 31
0.0
  0
LINE
  5
33B
330
1F
100
AcDbEntity
  8
0
100
AcDbLine
 10
268.8977594092107
 20
-141.4936607234455
 30
0.0
 11
261.2455389380521
 21
-141.3938309469282
 31
0.0
  0
LINE
  5
33C
330
1F
100
AcDbEntity
  8
0
100
AcDbLine
 10
268.8977594092107
 20
-141.4936607234455
 30
0.0
 11
268.1049744819714
 21
-117.5374519986724
 31
0.0
  0
LINE
  5
33D
330
1F
100
AcDbEntity
  8
0
100
AcDbLine
 10
262.0182861645559
 20
-165.7091111982823
 30
0.0
 11
261.2455389380521
 21
-141.3938309469282
 31
0.0
  0
LINE
  5
33E
330
1F
100
AcDbEntity
  8
0
100
AcDbLine
 10
252.2516240842542
 20
-75.18644914802367
 30
0.0
 11
252.9784491019128
 21
-98.95114829412049
 31
0.0
  0
LINE
  5
33F
330
1F
100
AcDbEntity
  8
0
100
AcDbLine
 10
302.1059973764509
 20
-99.58740241241783
 30
0.0
 11
301.1772233701213
 21
-75.81748544460046
 31
0.0
  0
LINE
  5
340
330
1F
100
AcDbEntity
  8
0
100
AcDbLine
 10
308.7439947041422
 20
-75.91508072091963
 30
0.0
 11
301.1772233701213
 21
-75.81748544460046
 31
0.0
  0
LINE
  5
341
330
1F
100
AcDbEntity
  8
0
100
AcDbLine
 10
244.6867666358851
 20
-75.08887855676375
 30
0.0
 11
252.2516240842542
 21
-75.18644914802367
 31
0.0
  0
LINE
  5
342
330
1F
100
AcDbEntity
  8
0
100
AcDbLine
 10
308.7439947041422
 20
-75.91508072091963
 30
0.0
 11
307.7981046319704
 21
-52.49400699786818
 31
0.0
  0
LINE
  5
343
330
1F
100
AcDbEntity
  8
0
100
AcDbLine
 10
252.9784491019128
 20
-98.95114829412049
 30
0.0
 11
302.1059973764509
 21
-99.58740241241783
 31
0.0
  0
LINE
  5
344
330
1F
100
AcDbEntity
  8
0
100
AcDbLine
 10
244.001393955302
 20
-51.67450841423802
 30
0.0
 11
244.6867666358851
 21
-75.08887855676375
 31
0.0
  0
LINE
  5
345
330
1F
100
AcDbEntity
  8
0
100
AcDbLine
 10
355.1097082199239
 20
-322.3021230569771
 30
0.0
 11
353.9270125760579
 21
-296.8393042581616
 31
0.0
  0
LINE
  5
346
330
1F
100
AcDbEntity
  8
0
100
AcDbLine
 10
355.1097082199239
 20
-322.3021230569771
 30
0.0
 11
347.218509767681
 21
-322.1960014872295
 31
0.0
  0
LINE
  5
347
330
1F
100
AcDbEntity
  8
0
100
AcDbLine
 10
348.385303151307
 20
-348.047091454247
 30
0.0
 11
347.218509767681
 21
-322.1960014872295
 31
0.0
  0
LINE
  5
348
330
1F
100
AcDbEntity
  8
0
100
AcDbLine
 10
297.1426092386546
 20
-347.3550113078811
 30
0.0
 11
348.385303151307
 21
-348.047091454247
 31
0.0
  0
LINE
  5
349
330
1F
100
AcDbEntity
  8
0
100
AcDbLine
 10
296.1954897788348
 20
-321.5098391783445
 30
0.0
 11
297.1426092386546
 21
-347.3550113078811
 31
0.0
  0
LINE
  5
34A
330
1F
100
AcDbEntity
  8
0
100
AcDbLine
 10
288.306372614936
 20
-321.4037455979563
 30
0.0
 11
296.1954897788348
 21
-321.5098391783445
 31
0.0
  0
LINE
  5
34B
330
1F
100
AcDbEntity
  8
0
100
AcDbLine
 10
287.4069602750446
 20
-295.948525729341
 30
0.0
 11
288.306372614936
 21
-321.4037455979563
 31
0.0
  0
LINE
  5
34C
330
1F
100
AcDbEntity
  8
0
100
AcDbLine
 10
345.5598250701281
 20
-277.1887993956943
 30
0.0
 11
344.4186424500326
 21
-251.9401030035118
 31
0.0
  0
LINE
  5
34D
330
1F
100
AcDbEntity
  8
0
100
AcDbLine
 10
286.195759749527
 20
-251.1662684765994
 30
0.0
 11
293.9925870082458
 21
-251.2698953304592
 31
0.0
  0
LINE
  5
34E
330
1F
100
AcDbEntity
  8
0
100
AcDbLine
 10
352.2175025916254
 20
-252.0437568762156
 30
0.0
 11
351.0606969008834
 21
-227.1718097380834
 31
0.0
  0
LINE
  5
34F
330
1F
100
AcDbEntity
  8
0
100
AcDbLine
 10
293.9925870082458
 20
-251.2698953304592
 30
0.0
 11
294.9192167687341
 21
-276.5128795143017
 31
0.0
  0
LINE
  5
350
330
1F
100
AcDbEntity
  8
0
100
AcDbLine
 10
352.2175025916254
 20
-252.0437568762156
 30
0.0
 11
344.4186424500326
 21
-251.9401030035118
 31
0.0
  0
LINE
  5
351
330
1F
100
AcDbEntity
  8
0
100
AcDbLine
 10
294.9192167687341
 20
-276.5128795143017
 30
0.0
 11
345.5598250701281
 21
-277.1887993956943
 31
0.0
  0
LINE
  5
352
330
1F
100
AcDbEntity
  8
0
100
AcDbLine
 10
285.3156610948126
 20
-226.3016573249899
 30
0.0
 11
286.195759749527
 21
-251.1662684765994
 31
0.0
  0
LINE
  5
353
330
1F
100
AcDbEntity
  8
0
100
AcDbLine
 10
281.4452236265499
 20
-158.2342223844929
 30
0.0
 11
282.2990546603036
 21
-182.528344547982
 31
0.0
  0
LINE
  5
354
330
1F
100
AcDbEntity
  8
0
100
AcDbLine
 10
340.9568709914732
 20
-207.9512994585506
 30
0.0
 11
339.8481516595037
 21
-183.2843866037669
 31
0.0
  0
LINE
  5
355
330
1F
100
AcDbEntity
  8
0
100
AcDbLine
 10
347.5567461307957
 20
-183.3856570308996
 30
0.0
 11
346.4325623945671
 21
-159.084449918862
 31
0.0
  0
LINE
  5
356
330
1F
100
AcDbEntity
  8
0
100
AcDbLine
 10
347.5567461307957
 20
-183.3856570308996
 30
0.0
 11
339.8481516595037
 21
-183.2843866037669
 31
0.0
  0
LINE
  5
357
330
1F
100
AcDbEntity
  8
0
100
AcDbLine
 10
290.9047769876801
 20
-207.2909858089827
 30
0.0
 11
340.9568709914732
 21
-207.9512994585506
 31
0.0
  0
LINE
  5
358
330
1F
100
AcDbEntity
  8
0
100
AcDbLine
 10
290.0056630094181
 20
-182.6295888827526
 30
0.0
 11
290.9047769876801
 21
-207.2909858089827
 31
0.0
  0
LINE
  5
359
330
1F
100
AcDbEntity
  8
0
100
AcDbLine
 10
282.2990546603036
 20
-182.528344547982
 30
0.0
 11
290.0056630094181
 21
-182.6295888827526
 31
0.0
  0
LINE
  5
35A
330
1F
100
AcDbEntity
  8
0
100
AcDbLine
 10
235.7908639120253
 20
-332.7922850382466
 30
0.0
 11
235.8463291136827
 21
-333.9193723745173
 31
0.0
  0
LINE
  5
35B
330
1F
100
AcDbEntity
  8
0
100
AcDbLine
 10
272.4276203377688
 20
-316.5343173048369
 30
0.0
 11
42.911782714339
 21
-313.4501595870923
 31
0.0
  0
LINE
  5
35C
330
1F
100
AcDbEntity
  8
0
100
AcDbLine
 10
272.4276203377688
 20
-316.5343173048369
 30
0.0
 11
272.6818949281892
 21
-324.6583533195301
 31
0.0
  0
LINE
  5
35D
330
1F
100
AcDbEntity
  8
0
100
AcDbLine
 10
272.6818949281892
 20
-324.6583533195301
 30
0.0
 11
264.7890581140139
 21
-324.5521484883926
 31
0.0
  0
LINE
  5
35E
330
1F
100
AcDbEntity
  8
0
100
AcDbLine
 10
265.3612864249451
 20
-342.7751829646895
 30
0.0
 11
264.7890581140139
 21
-324.5521484883926
 31
0.0
  0
LINE
  5
35F
330
1F
100
AcDbEntity
  8
0
100
AcDbLine
 10
273.2780670818281
 20
-342.882032863216
 30
0.0
 11
265.3612864249451
 21
-342.7751829646895
 31
0.0
  0
LINE
  5
360
330
1F
100
AcDbEntity
  8
0
100
AcDbLine
 10
273.2780670818281
 20
-342.882032863216
 30
0.0
 11
273.5577509451491
 21
-351.0779169382593
 31
0.0
  0
LINE
  5
361
330
1F
100
AcDbEntity
  8
0
100
AcDbLine
 10
273.5577509451491
 20
-351.0779169382593
 30
0.0
 11
147.7606179596625
 21
-349.3777715853254
 31
0.0
  0
LINE
  5
362
330
1F
100
AcDbEntity
  8
0
100
AcDbLine
 10
147.7606179596625
 20
-349.3777715853254
 30
0.0
 11
147.606293034775
 21
-336.3863581141716
 31
0.0
  0
LINE
  5
363
330
1F
100
AcDbEntity
  8
0
100
AcDbLine
 10
147.606293034775
 20
-336.3863581141716
 30
0.0
 11
139.6517789811921
 21
-336.2790844456158
 31
0.0
  0
LINE
  5
364
330
1F
100
AcDbEntity
  8
0
100
AcDbLine
 10
139.788939611037
 20
-349.2700345361749
 30
0.0
 11
139.6517789811921
 21
-336.2790844456158
 31
0.0
  0
LINE
  5
365
330
1F
100
AcDbEntity
  8
0
100
AcDbLine
 10
42.72099510035068
 20
-347.9581635033293
 30
0.0
 11
139.788939611037
 21
-349.2700345361749
 31
0.0
  0
LINE
  5
366
330
1F
100
AcDbEntity
  8
0
100
AcDbLine
 10
42.76626079096707
 20
-339.7708991614229
 30
0.0
 11
42.72099510035068
 21
-347.9581635033293
 31
0.0
  0
LINE
  5
367
330
1F
100
AcDbEntity
  8
0
100
AcDbLine
 10
50.67515196425345
 20
-339.8776425784688
 30
0.0
 11
42.76626079096707
 21
-339.7708991614229
 31
0.0
  0
LINE
  5
368
330
1F
100
AcDbEntity
  8
0
100
AcDbLine
 10
50.75190687980268
 20
-321.6720966085425
 30
0.0
 11
50.67515196425345
 21
-339.8776425784688
 31
0.0
  0
LINE
  5
369
330
1F
100
AcDbEntity
  8
0
100
AcDbLine
 10
42.86691192680171
 20
-321.5659972963157
 30
0.0
 11
50.75190687980268
 21
-321.6720966085425
 31
0.0
  0
LINE
  5
36A
330
1F
100
AcDbEntity
  8
0
100
AcDbLine
 10
42.911782714339
 20
-313.4501595870923
 30
0.0
 11
42.86691192680171
 21
-321.5659972963157
 31
0.0
  0
LINE
  5
36B
330
1F
100
AcDbEntity
  8
0
100
AcDbLine
 10
244.0756111916097
 20
-332.7036293038642
 30
0.0
 11
243.7383173566562
 21
-331.6183990346768
 31
0.0
  0
LINE
  5
36C
330
1F
100
AcDbEntity
  8
0
100
AcDbLine
 10
243.7383173566562
 20
-331.6183990346768
 30
0.0
 11
243.1438609116346
 21
-330.648866175009
 31
0.0
  0
LINE
  5
36D
330
1F
100
AcDbEntity
  8
0
100
AcDbLine
 10
243.1438609116346
 20
-330.648866175009
 30
0.0
 11
242.3328220192032
 21
-329.8609624465561
 31
0.0
  0
LINE
  5
36E
330
1F
100
AcDbEntity
  8
0
100
AcDbLine
 10
241.360461902663
 20
-329.3082222029831
 30
0.0
 11
242.3328220192032
 21
-329.8609624465561
 31
0.0
  0
LINE
  5
36F
330
1F
100
AcDbEntity
  8
0
100
AcDbLine
 10
241.360461902663
 20
-329.3082222029831
 30
0.0
 11
240.2929595381808
 21
-329.0281769686292
 31
0.0
  0
LINE
  5
370
330
1F
100
AcDbEntity
  8
0
100
AcDbLine
 10
239.2029246409688
 20
-329.0398343154286
 30
0.0
 11
240.2929595381808
 21
-329.0281769686292
 31
0.0
  0
LINE
  5
371
330
1F
100
AcDbEntity
  8
0
100
AcDbLine
 10
239.2029246409688
 20
-329.0398343154286
 30
0.0
 11
238.1644865751685
 21
-329.3424031254485
 31
0.0
  0
LINE
  5
372
330
1F
100
AcDbEntity
  8
0
100
AcDbLine
 10
238.1644865751685
 20
-329.3424031254485
 30
0.0
 11
237.2482839478635
 21
-329.9153466192658
 31
0.0
  0
LINE
  5
373
330
1F
100
AcDbEntity
  8
0
100
AcDbLine
 10
237.2482839478635
 20
-329.9153466192658
 30
0.0
 11
236.5166852877854
 21
-330.7197597722344
 31
0.0
  0
LINE
  5
374
330
1F
100
AcDbEntity
  8
0
100
AcDbLine
 10
236.0195572710057
 20
-331.7009831503482
 30
0.0
 11
236.5166852877854
 21
-330.7197597722344
 31
0.0
  0
LINE
  5
375
330
1F
100
AcDbEntity
  8
0
100
AcDbLine
 10
236.0195572710057
 20
-331.7009831503482
 30
0.0
 11
235.7908639120253
 21
-332.7922850382466
 31
0.0
  0
LINE
  5
376
330
1F
100
AcDbEntity
  8
0
100
AcDbLine
 10
236.182327954643
 20
-335.0054329219727
 30
0.0
 11
235.8463291136827
 21
-333.9193723745173
 31
0.0
  0
LINE
  5
377
330
1F
100
AcDbEntity
  8
0
100
AcDbLine
 10
236.77609220085
 20
-335.9763706547994
 30
0.0
 11
236.182327954643
 21
-335.0054329219727
 31
0.0
  0
LINE
  5
378
330
1F
100
AcDbEntity
  8
0
100
AcDbLine
 10
237.5872271639295
 20
-336.7658774169218
 30
0.0
 11
236.77609220085
 21
-335.9763706547994
 31
0.0
  0
LINE
  5
379
330
1F
100
AcDbEntity
  8
0
100
AcDbLine
 10
238.5604458787935
 20
-337.3199893230854
 30
0.0
 11
237.5872271639295
 21
-336.7658774169218
 31
0.0
  0
LINE
  5
37A
330
1F
100
AcDbEntity
  8
0
100
AcDbLine
 10
239.6293393086771
 20
-337.6008073128081
 30
0.0
 11
238.5604458787935
 21
-337.3199893230854
 31
0.0
  0
LINE
  5
37B
330
1F
100
AcDbEntity
  8
0
100
AcDbLine
 10
240.7209250033471
 20
-337.5891167547364
 30
0.0
 11
239.6293393086771
 21
-337.6008073128081
 31
0.0
  0
LINE
  5
37C
330
1F
100
AcDbEntity
  8
0
100
AcDbLine
 10
240.7209250033471
 20
-337.5891167547364
 30
0.0
 11
241.7606580634696
 21
-337.2857176657423
 31
0.0
  0
LINE
  5
37D
330
1F
100
AcDbEntity
  8
0
100
AcDbLine
 10
241.7606580634696
 20
-337.2857176657423
 30
0.0
 11
242.677552889149
 21
-336.7113692980938
 31
0.0
  0
LINE
  5
37E
330
1F
100
AcDbEntity
  8
0
100
AcDbLine
 10
242.677552889149
 20
-336.7113692980938
 30
0.0
 11
243.4090554778183
 21
-335.9053531114888
 31
0.0
  0
LINE
  5
37F
330
1F
100
AcDbEntity
  8
0
100
AcDbLine
 10
243.4090554778183
 20
-335.9053531114888
 30
0.0
 11
243.9053248959453
 21
-334.92275807149
 31
0.0
  0
LINE
  5
380
330
1F
100
AcDbEntity
  8
0
100
AcDbLine
 10
244.1326271899649
 20
-333.8306834288949
 30
0.0
 11
243.9053248959453
 21
-334.92275807149
 31
0.0
  0
LINE
  5
381
330
1F
100
AcDbEntity
  8
0
100
AcDbLine
 10
244.1326271899649
 20
-333.8306834288949
 30
0.0
 11
244.0756111916097
 21
-332.7036293038642
 31
0.0
  0
LINE
  5
382
330
1F
100
AcDbEntity
  8
0
100
AcDbLine
 10
173.5488805450479
 20
275.0738661139301
 30
0.0
 11
219.4911202035004
 21
274.5172415966991
 31
0.0
  0
LINE
  5
383
330
1F
100
AcDbEntity
  8
0
100
AcDbLine
 10
167.1457580404374
 20
233.2238201228986
 30
0.0
 11
166.7953145322959
 21
254.2033511046823
 31
0.0
  0
LINE
  5
384
330
1F
100
AcDbEntity
  8
0
100
AcDbLine
 10
166.7953145322959
 20
254.2033511046823
 30
0.0
 11
173.9264639979788
 21
254.1166172912893
 31
0.0
  0
LINE
  5
385
330
1F
100
AcDbEntity
  8
0
100
AcDbLine
 10
173.9264639979788
 20
254.1166172912893
 30
0.0
 11
173.5488805450479
 21
275.0738661139301
 31
0.0
  0
LINE
  5
386
330
1F
100
AcDbEntity
  8
0
100
AcDbLine
 10
219.4911202035004
 20
274.5172415966991
 30
0.0
 11
220.0467300773514
 21
253.5556717397756
 31
0.0
  0
LINE
  5
387
330
1F
100
AcDbEntity
  8
0
100
AcDbLine
 10
227.1795805450202
 20
253.4689172376576
 30
0.0
 11
220.0467300773514
 21
253.5556717397756
 31
0.0
  0
LINE
  5
388
330
1F
100
AcDbEntity
  8
0
100
AcDbLine
 10
227.1795805450202
 20
253.4689172376576
 30
0.0
 11
227.7633660629552
 21
232.4837007162658
 31
0.0
  0
LINE
  5
389
330
1F
100
AcDbEntity
  8
0
100
AcDbLine
 10
-85.42552193562467
 20
-98.9611749480634
 30
0.0
 11
-86.09457487870507
 21
-122.9228563523894
 31
0.0
  0
LINE
  5
38A
330
1F
100
AcDbEntity
  8
0
100
AcDbLine
 10
-134.5051329762833
 20
-98.3250585706892
 30
0.0
 11
-85.42552193562467
 21
-98.9611749480634
 31
0.0
  0
LINE
  5
38B
330
1F
100
AcDbEntity
  8
0
100
AcDbLine
 10
-143.9026668573212
 20
-146.1769419464985
 30
0.0
 11
-142.9974963637417
 21
-122.1822863593944
 31
0.0
  0
LINE
  5
38C
330
1F
100
AcDbEntity
  8
0
100
AcDbLine
 10
-142.9974963637417
 20
-122.1822863593944
 30
0.0
 11
-135.3774109763433
 21
-122.2814588871394
 31
0.0
  0
LINE
  5
38D
330
1F
100
AcDbEntity
  8
0
100
AcDbLine
 10
-135.3774109763433
 20
-122.2814588871394
 30
0.0
 11
-134.5051329762833
 21
-98.3250585706892
 31
0.0
  0
LINE
  5
38E
330
1F
100
AcDbEntity
  8
0
100
AcDbLine
 10
-78.4725458685535
 20
-123.0220541756493
 30
0.0
 11
-86.09457487870507
 21
-122.9228563523894
 31
0.0
  0
LINE
  5
38F
330
1F
100
AcDbEntity
  8
0
100
AcDbLine
 10
-78.4725458685535
 20
-123.0220541756493
 30
0.0
 11
-79.11120497943963
 21
-147.023664105107
 31
0.0
  0
LINE
  5
390
330
1F
100
AcDbEntity
  8
0
100
AcDbLine
 10
327.3758033737419
 20
245.8701799122886
 30
0.0
 11
314.0648240618577
 21
273.1661895989432
 31
0.0
  0
LINE
  5
391
330
1F
100
AcDbEntity
  8
0
100
AcDbLine
 10
163.769139905384
 20
62.78045697776747
 30
0.0
 11
187.4797793409397
 21
62.50396622975749
 31
0.0
  0
LINE
  5
392
330
1F
100
AcDbEntity
  8
0
100
AcDbLine
 10
29.26622223257426
 20
-134.2199052543642
 30
0.0
 11
16.63006834448659
 21
-102.9867254901388
 31
0.0
  0
LINE
  5
393
330
1F
100
AcDbEntity
  8
0
100
AcDbLine
 10
75.20009476128736
 20
63.8494836507543
 30
0.0
 11
81.87380103010983
 21
63.77732940150007
 31
0.0
  0
LINE
  5
394
330
1F
100
AcDbEntity
  8
0
100
AcDbLine
 10
-134.8052792354912
 20
-249.0003104455661
 30
0.0
 11
-144.1795758099295
 21
-241.3355034422095
 31
0.0
  0
LINE
  5
395
330
1F
100
AcDbEntity
  8
0
100
AcDbLine
 10
155.546639214522
 20
180.5342102418727
 30
0.0
 11
157.1768547763426
 21
169.9202799446811
 31
0.0
  0
LINE
  5
396
330
1F
100
AcDbEntity
  8
0
100
AcDbLine
 10
-131.9224049693124
 20
-167.8774070833709
 30
0.0
 11
-141.7180483172125
 21
-175.1028224907886
 31
0.0
  0
LINE
  5
397
330
1F
100
AcDbEntity
  8
0
100
AcDbLine
 10
-63.89936716640371
 20
-209.0769893671417
 30
0.0
 11
-65.18674433268181
 21
-196.9557932435523
 31
0.0
  0
LINE
  5
398
330
1F
100
AcDbEntity
  8
0
100
AcDbLine
 10
-65.76914348039874
 20
-221.2063919236139
 30
0.0
 11
-63.89936716640371
 21
-209.0769893671417
 31
0.0
  0
LINE
  5
399
330
1F
100
AcDbEntity
  8
0
100
AcDbLine
 10
-70.68692649564065
 20
-232.5122026315668
 30
0.0
 11
-65.76914348039874
 21
-221.2063919236139
 31
0.0
  0
LINE
  5
39A
330
1F
100
AcDbEntity
  8
0
100
AcDbLine
 10
-151.2017872854063
 20
-231.4445972928732
 30
0.0
 11
-144.1795758099295
 21
-241.3355034422095
 31
0.0
  0
LINE
  5
39B
330
1F
100
AcDbEntity
  8
0
100
AcDbLine
 10
-85.9381336873574
 20
-168.4805690741273
 30
0.0
 11
-76.60482637496939
 21
-175.9579663344545
 31
0.0
  0
LINE
  5
39C
330
1F
100
AcDbEntity
  8
0
100
AcDbLine
 10
-76.60482637496939
 20
-175.9579663344545
 30
0.0
 11
-69.5250450478493
 21
-185.6640731376538
 31
0.0
  0
LINE
  5
39D
330
1F
100
AcDbEntity
  8
0
100
AcDbLine
 10
78.63036358451087
 20
276.0187619465203
 30
0.0
 11
66.53951627095667
 21
249.0463710121842
 31
0.0
  0
LINE
  5
39E
330
1F
100
AcDbEntity
  8
0
100
AcDbLine
 10
-249.5994166911844
 20
-130.5844549654765
 30
0.0
 11
-234.9911236125259
 21
-99.72396251528997
 31
0.0
  0
LINE
  5
39F
330
1F
100
AcDbEntity
  8
0
100
AcDbLine
 10
75.18754992850631
 20
-16.59451437913414
 30
0.0
 11
75.15919909065944
 21
-64.33481268063385
 31
0.0
  0
LINE
  5
3A0
330
1F
100
AcDbEntity
  8
0
100
AcDbLine
 10
75.17225882119142
 20
17.50277496867836
 30
0.0
 11
75.20009476128736
 21
63.8494836507543
 31
0.0
  0
LINE
  5
3A1
330
1F
100
AcDbEntity
  8
0
100
AcDbLine
 10
165.0251118729433
 20
-17.74549288226446
 30
0.0
 11
189.0754257395067
 21
-18.02996060704421
 31
0.0
  0
LINE
  5
3A2
330
1F
100
AcDbEntity
  8
0
100
AcDbLine
 10
156.8658352035344
 20
191.0711528863598
 30
0.0
 11
161.0285475696569
 21
200.8176900301262
 31
0.0
  0
LINE
  5
3A3
330
1F
100
AcDbEntity
  8
0
100
AcDbLine
 10
161.6614915614709
 20
159.9561379701008
 30
0.0
 11
168.7068044773039
 21
151.3315314696422
 31
0.0
  0
LINE
  5
3A4
330
1F
100
AcDbEntity
  8
0
100
AcDbLine
 10
-154.4491700924615
 20
-195.7793237347313
 30
0.0
 11
-149.4028170857778
 21
-184.6133031776234
 31
0.0
  0
LINE
  5
3A5
330
1F
100
AcDbEntity
  8
0
100
AcDbLine
 10
-156.500636139441
 20
-207.8540027508306
 30
0.0
 11
-155.3993883564434
 21
-220.0202027290636
 31
0.0
  0
LINE
  5
3A6
330
1F
100
AcDbEntity
  8
0
100
AcDbLine
 10
221.3959373873848
 20
144.1088697854681
 30
0.0
 11
230.2352809058734
 21
150.5690090767353
 31
0.0
  0
LINE
  5
3A7
330
1F
100
AcDbEntity
  8
0
100
AcDbLine
 10
176.5370430596416
 20
215.4305913861433
 30
0.0
 11
167.7394674583158
 21
209.1210686352744
 31
0.0
  0
LINE
  5
3A8
330
1F
100
AcDbEntity
  8
0
100
AcDbLine
 10
168.7068044773039
 20
151.3315314696422
 30
0.0
 11
177.8370606717507
 21
144.6493357342333
 31
0.0
  0
LINE
  5
3A9
330
1F
100
AcDbEntity
  8
0
100
AcDbLine
 10
219.5392638962953
 20
214.9038470992911
 30
0.0
 11
228.6251819000469
 21
208.3743902162409
 31
0.0
  0
LINE
  5
3AA
330
1F
100
AcDbEntity
  8
0
100
AcDbLine
 10
228.6251819000469
 20
208.3743902162409
 30
0.0
 11
235.7122703225217
 21
199.9003957021943
 31
0.0
  0
LINE
  5
3AB
330
1F
100
AcDbEntity
  8
0
100
AcDbLine
 10
242.1041576421029
 20
179.4671323221462
 30
0.0
 11
240.3135998205288
 21
190.0443841549163
 31
0.0
  0
LINE
  5
3AC
330
1F
100
AcDbEntity
  8
0
100
AcDbLine
 10
236.9018548539445
 20
159.0251227363237
 30
0.0
 11
240.9459927172534
 21
168.8855896043213
 31
0.0
  0
LINE
  5
3AD
330
1F
100
AcDbEntity
  8
0
100
AcDbLine
 10
156.8658352035344
 20
191.0711528863598
 30
0.0
 11
155.546639214522
 21
180.5342102418727
 31
0.0
  0
LINE
  5
3AE
330
1F
100
AcDbEntity
  8
0
100
AcDbLine
 10
205.0651493455352
 20
-183.7776413869784
 30
0.0
 11
270.3254501098983
 21
-184.6353190030675
 31
0.0
  0
LINE
  5
3AF
330
1F
100
AcDbEntity
  8
0
100
AcDbLine
 10
165.764192156615
 20
-65.51257560097989
 30
0.0
 11
172.1024431841545
 21
-65.59496572968555
 31
0.0
  0
LINE
  5
3B0
330
1F
100
AcDbEntity
  8
0
100
AcDbLine
 10
240.9459927172534
 20
168.8855896043213
 30
0.0
 11
242.1041576421029
 21
179.4671323221462
 31
0.0
  0
LINE
  5
3B1
330
1F
100
AcDbEntity
  8
0
100
AcDbLine
 10
-154.4491700924615
 20
-195.7793237347313
 30
0.0
 11
-156.500636139441
 21
-207.8540027508306
 31
0.0
  0
LINE
  5
3B2
330
1F
100
AcDbEntity
  8
0
100
AcDbLine
 10
34.67396861810373
 20
319.2934918581413
 30
0.0
 11
34.56191059617234
 21
304.770652145558
 31
0.0
  0
LINE
  5
3B3
330
1F
100
AcDbEntity
  8
0
100
AcDbLine
 10
27.63059493239566
 20
319.3781564181075
 30
0.0
 11
27.49947583632001
 21
304.8557756175453
 31
0.0
  0
LINE
  5
3B4
330
1F
100
AcDbEntity
  8
0
100
AcDbLine
 10
32.41412791528219
 20
26.41571535272494
 30
0.0
 11
32.28948495533798
 21
10.26185418891236
 31
0.0
  0
LINE
  5
3B5
330
1F
100
AcDbEntity
  8
0
100
AcDbLine
 10
-103.1798488701539
 20
28.13458855824085
 30
0.0
 11
-103.6914142109344
 21
11.99055359038354
 31
0.0
  0
LINE
  5
3B6
330
1F
100
AcDbEntity
  8
0
100
AcDbLine
 10
8.398562370474911
 20
26.72015153129949
 30
0.0
 11
8.205372929144264
 21
10.56803094094089
 31
0.0
  0
LINE
  5
3B7
330
1F
100
AcDbEntity
  8
0
100
AcDbLine
 10
251.7080050385338
 20
-23.00096323094295
 30
0.0
 11
234.9665796329197
 21
-22.78699034866393
 31
0.0
  0
LINE
  5
3B8
330
1F
100
AcDbEntity
  8
0
100
AcDbLine
 10
251.4811026830873
 20
-15.62648649358311
 30
0.0
 11
258.9679811885206
 21
-15.72205303577277
 31
0.0
  0
LINE
  5
3B9
330
1F
100
AcDbEntity
  8
0
100
AcDbLine
 10
-362.5706276565391
 20
-333.3561899502162
 30
0.0
 11
-380.1979816082379
 21
-333.1183173000709
 31
0.0
  0
LINE
  5
3BA
330
1F
100
AcDbEntity
  8
0
100
AcDbLine
 10
-361.9731586150058
 20
-325.1585778467971
 30
0.0
 11
-354.0906027661853
 21
-325.2648041131847
 31
0.0
  0
LINE
  5
3BB
330
1F
100
AcDbEntity
  8
0
100
AcDbLine
 10
-352.5958695392276
 20
-196.4968848031013
 30
0.0
 11
-344.8818954968282
 21
-196.5986117598976
 31
0.0
  0
LINE
  5
3BC
330
1F
100
AcDbEntity
  8
0
100
AcDbLine
 10
-370.4178973526289
 20
-204.1192690798668
 30
0.0
 11
-353.1680157503529
 21
-204.3470533962872
 31
0.0
  0
LINE
  5
3BD
330
1F
100
AcDbEntity
  8
0
100
AcDbLine
 10
-343.6116435568468
 20
-73.22823901014414
 30
0.0
 11
-336.0591914985394
 21
-73.32574657746653
 31
0.0
  0
LINE
  5
3BE
330
1F
100
AcDbEntity
  8
0
100
AcDbLine
 10
-361.0482800805874
 20
-80.53426933022375
 30
0.0
 11
-344.1600433778776
 21
-80.75259374299756
 31
0.0
  0
LINE
  5
3BF
330
1F
100
AcDbEntity
  8
0
100
AcDbLine
 10
-334.9962742509872
 20
44.97948521921709
 30
0.0
 11
-327.5987187326211
 21
44.88593986865683
 31
0.0
  0
LINE
  5
3C0
330
1F
100
AcDbEntity
  8
0
100
AcDbLine
 10
-352.0638201601827
 20
37.97051531312648
 30
0.0
 11
-335.5223759344195
 21
37.76107350592438
 31
0.0
  0
LINE
  5
3C1
330
1F
100
AcDbEntity
  8
0
100
AcDbLine
 10
-327.2326392420654
 20
151.5009346860303
 30
0.0
 11
-343.4412468616063
 21
151.7020251503128
 31
0.0
  0
LINE
  5
3C2
330
1F
100
AcDbEntity
  8
0
100
AcDbLine
 10
-326.7275028621204
 20
158.4316906152193
 30
0.0
 11
-319.4786178985782
 21
158.3418707915197
 31
0.0
  0
LINE
  5
3C3
330
1F
100
AcDbEntity
  8
0
100
AcDbLine
 10
-318.7848262640985
 20
267.409691628292
 30
0.0
 11
-311.6787538499044
 21
267.3233791250158
 31
0.0
  0
LINE
  5
3C4
330
1F
100
AcDbEntity
  8
0
100
AcDbLine
 10
-335.1591270972316
 20
260.942962030517
 30
0.0
 11
-319.2702260291464
 21
260.7497331830124
 31
0.0
  0
LINE
  5
3C5
330
1F
100
AcDbEntity
  8
0
100
AcDbLine
 10
313.5071698736916
 20
-0.3849505664186479
 30
0.0
 11
320.9750681579225
 21
-0.4800067745034851
 31
0.0
  0
LINE
  5
3C6
330
1F
100
AcDbEntity
  8
0
100
AcDbLine
 10
297.1145553215114
 20
-7.50719307511774
 30
0.0
 11
313.8134866507731
 21
-7.720021881304532
 31
0.0
  0
LINE
  5
3C7
330
1F
100
AcDbEntity
  8
0
100
AcDbLine
 10
-296.2079988189998
 20
-330.0020604628451
 30
0.0
 11
-288.3179273084588
 21
-330.1084580077716
 31
0.0
  0
LINE
  5
3C8
330
1F
100
AcDbEntity
  8
0
100
AcDbLine
 10
-314.3603615391519
 20
-337.9746425432569
 30
0.0
 11
-296.7161785851662
 21
-338.2128992504749
 31
0.0
  0
LINE
  5
3C9
330
1F
100
AcDbEntity
  8
0
100
AcDbLine
 10
-288.2322531403078
 20
-201.1351390722182
 30
0.0
 11
-280.5110816586159
 21
-201.2370265374689
 31
0.0
  0
LINE
  5
3CA
330
1F
100
AcDbEntity
  8
0
100
AcDbLine
 10
-305.9848747956967
 20
-208.7695579195199
 30
0.0
 11
-288.7188776558513
 21
-208.9977021124161
 31
0.0
  0
LINE
  5
3CB
330
1F
100
AcDbEntity
  8
0
100
AcDbLine
 10
-281.0574930642252
 20
-85.210023105787
 30
0.0
 11
-297.9611762673367
 21
-84.99136100908888
 31
0.0
  0
LINE
  5
3CC
330
1F
100
AcDbEntity
  8
0
100
AcDbLine
 10
-280.5910808792107
 20
-77.67403778187304
 30
0.0
 11
-273.0317298128653
 21
-77.7716959719369
 31
0.0
  0
LINE
  5
3CD
330
1F
100
AcDbEntity
  8
0
100
AcDbLine
 10
-273.7112955625257
 20
33.4850674988057
 30
0.0
 11
-290.2675580655269
 21
33.69482658524147
 31
0.0
  0
LINE
  5
3CE
330
1F
100
AcDbEntity
  8
0
100
AcDbLine
 10
-273.263862068889
 20
40.71440744704989
 30
0.0
 11
-265.8596877903383
 21
40.62072056403141
 31
0.0
  0
LINE
  5
3CF
330
1F
100
AcDbEntity
  8
0
100
AcDbLine
 10
-266.2316370621062
 20
154.3365342873448
 30
0.0
 11
-258.9763968505965
 21
154.2465813044608
 31
0.0
  0
LINE
  5
3D0
330
1F
100
AcDbEntity
  8
0
100
AcDbLine
 10
-282.8840623507126
 20
147.59688599654
 30
0.0
 11
-266.6612271165848
 21
147.3954970463282
 31
0.0
  0
LINE
  5
3D1
330
1F
100
AcDbEntity
  8
0
100
AcDbLine
 10
-259.476942717625
 20
263.4745008392986
 30
0.0
 11
-252.3647631385366
 21
263.3880629024247
 31
0.0
  0
LINE
  5
3D2
330
1F
100
AcDbEntity
  8
0
100
AcDbLine
 10
-275.7923084594439
 20
256.9983679304823
 30
0.0
 11
-259.8897358145562
 21
256.8048579349438
 31
0.0
  0
LINE
  5
3D3
330
1F
100
AcDbEntity
  8
0
100
AcDbLine
 10
-155.2078345194451
 20
38.59462942359726
 30
0.0
 11
-171.7535235734759
 21
38.80400940899843
 31
0.0
  0
LINE
  5
3D4
330
1F
100
AcDbEntity
  8
0
100
AcDbLine
 10
-154.9122525944191
 20
45.81091177050136
 30
0.0
 11
-147.5128012208448
 21
45.71739399756163
 31
0.0
  0
LINE
  5
3D5
330
1F
100
AcDbEntity
  8
0
100
AcDbLine
 10
11.90119617961721
 20
319.5672309558732
 30
0.0
 11
11.7275117006997
 21
305.0458749802915
 31
0.0
  0
LINE
  5
3D6
330
1F
100
AcDbEntity
  8
0
100
AcDbLine
 10
51.07763282897238
 20
-97.0267725518505
 30
0.0
 11
57.94201882254281
 21
-97.1031159117849
 31
0.0
  0
LINE
  5
3D7
330
1F
100
AcDbEntity
  8
0
100
AcDbLine
 10
166.5655167158283
 20
-98.45041686626847
 30
0.0
 11
142.1772244463258
 21
-98.15787020903541
 31
0.0
  0
LINE
  5
3D8
330
1F
100
AcDbEntity
  8
0
100
AcDbLine
 10
50.46935330035424
 20
-232.7416754617056
 30
0.0
 11
50.70949148590977
 21
-182.1760073407158
 31
0.0
  0
LINE
  5
3D9
330
1F
100
AcDbEntity
  8
0
100
AcDbLine
 10
50.84436685595426
 20
-146.0758207763874
 30
0.0
 11
51.07763282897238
 21
-97.0267725518505
 31
0.0
  0
LINE
  5
3DA
330
1F
100
AcDbEntity
  8
0
100
AcDbLine
 10
143.1514460119346
 20
-183.3948138527929
 30
0.0
 11
167.8992532394331
 21
-183.6960476719919
 31
0.0
  0
LINE
  5
3DB
330
1F
100
AcDbEntity
  8
0
100
AcDbLine
 10
150.2472193209886
 20
-234.0767401777105
 30
0.0
 11
143.7235985945708
 21
-233.9894517218655
 31
0.0
  0
LINE
  5
3DC
330
1F
100
AcDbEntity
  8
0
100
AcDbLine
 10
268.1049744819714
 20
-117.5374519986724
 30
0.0
 11
203.5908833240649
 21
-116.6992692965318
 31
0.0
  0
LINE
  5
3DD
330
1F
100
AcDbEntity
  8
0
100
AcDbLine
 10
307.7981046319704
 20
-52.49400699786818
 30
0.0
 11
244.001393955302
 21
-51.67450841423802
 31
0.0
  0
LINE
  5
3DE
330
1F
100
AcDbEntity
  8
0
100
AcDbLine
 10
287.4069602750446
 20
-295.948525729341
 30
0.0
 11
353.9270125760579
 21
-296.8393042581616
 31
0.0
  0
LINE
  5
3DF
330
1F
100
AcDbEntity
  8
0
100
AcDbLine
 10
285.3156610948126
 20
-226.3016573249899
 30
0.0
 11
351.0606969008834
 21
-227.1718097380834
 31
0.0
  0
LINE
  5
3E0
330
1F
100
AcDbEntity
  8
0
100
AcDbLine
 10
281.4452236265499
 20
-158.2342223844929
 30
0.0
 11
346.4325623945671
 21
-159.084449918862
 31
0.0
  0
LINE
  5
3E1
330
1F
100
AcDbEntity
  8
0
100
AcDbLine
 10
227.7633660629552
 20
232.4837007162658
 30
0.0
 11
167.1457580404374
 21
233.2238201228986
 31
0.0
  0
LINE
  5
3E2
330
1F
100
AcDbEntity
  8
0
100
AcDbLine
 10
-143.9026668573212
 20
-146.1769419464985
 30
0.0
 11
-79.11120497943963
 21
-147.023664105107
 31
0.0
  0
ENDSEC
  0
SECTION
  2
OBJECTS
  0
DICTIONARY
  5
C
330
0
100
AcDbDictionary
  3
ACAD_GROUP
350
D
  3
ACAD_LAYOUT
350
1A
  3
ACAD_MLEADERSTYLE
350
404
  3
ACAD_MLINESTYLE
350
17
  3
ACAD_PLOTSETTINGS
350
19
  3
ACAD_TABLESTYLE
350
403
  3
ACAD_VISUALSTYLE
350
2A
  3
ACDBHEADERROUNDTRIPXREC
350
3E3
  0
DICTIONARY
  5
D
102
{ACAD_REACTORS
330
C
102
}
330
C
100
AcDbDictionary
  0
DICTIONARY
  5
1A
102
{ACAD_REACTORS
330
C
102
}
330
C
100
AcDbDictionary
  0
DICTIONARY
  5
404
102
{ACAD_REACTORS
330
C
102
}
330
C
100
AcDbDictionary
  0
DICTIONARY
  5
17
102
{ACAD_REACTORS
330
C
102
}
330
C
100
AcDbDictionary
  3
STANDARD
350
18
  0
DICTIONARY
  5
19
102
{ACAD_REACTORS
330
C
102
}
330
C
100
AcDbDictionary
  0
DICTIONARY
  5
403
102
{ACAD_REACTORS
330
C
102
}
330
C
100
AcDbDictionary
  0
DICTIONARY
  5
2A
102
{ACAD_REACTORS
330
C
102
}
330
C
100
AcDbDictionary
  3
2DWIREFRAME
350
2F
  3
3D_HIDDEN
350
31
  3
3DWIREFRAME
350
30
  3
BASIC
350
32
  3
BRIGHTEN
350
36
  3
COLORCHANGE
350
3A
  3
CONCEPTUAL
350
34
  3
DIM
350
35
  3
FACEPATTERN
350
39
  3
FLAT
350
2B
  3
FLATWITHEDGES
350
2C
  3
GOURAUD
350
2D
  3
GOURAUDWITHEDGES
350
2E
  3
LINEPATTERN
350
38
  3
REALISTIC
350
33
  3
THICKEN
350
37
  0
DICTIONARY
  5
3E3
102
{ACAD_REACTORS
330
C
102
}
330
C
100
AcDbDictionary
  3
CEPSNTYPE
350
3EC
  3
DIMSTYLEDATA
350
402
  3
FINGERPRINTGUID
350
3ED
  3
HYPERLINKBASE
350
3E6
  3
INSUNITS
350
3EB
  3
LAYOUTDICT
350
3E8
  3
LWETCUNION
350
3EA
  3
PLOTSETDICT
350
3E9
  3
PSVPSCALE
350
3EF
  3
PUCSBASE
350
3F2
  3
PUCSORGBACK
350
3F8
  3
PUCSORGBOTTOM
350
3F4
  3
PUCSORGFRONT
350
3F7
  3
PUCSORGLEFT
350
3F5
  3
PUCSORGRIGHT
350
3F6
  3
PUCSORGTOP
350
3F3
  3
PUCSORTHOREF
350
3F0
  3
PUCSORTHOVIEW
350
3F1
  3
STYLESHEET
350
3E7
  3
TSTACKALIGN
350
3E4
  3
TSTACKSIZE
350
3E5
  3
UCSBASE
350
3FB
  3
UCSORGBACK
350
401
  3
UCSORGBOTTOM
350
3FD
  3
UCSORGFRONT
350
400
  3
UCSORGLEFT
350
3FE
  3
UCSORGRIGHT
350
3FF
  3
UCSORGTOP
350
3FC
  3
UCSORTHOREF
350
3F9
  3
UCSORTHOVIEW
350
3FA
  3
VERSIONGUID
350
3EE
  0
MLINESTYLE
  5
18
102
{ACAD_REACTORS
330
17
102
}
330
17
100
AcDbMlineStyle
  2
Standard
 70
     0
  3

 62
   256
 51
90.0
 52
90.0
 71
     2
 49
0.5
 62
   256
  6
BYLAYER
 49
-0.5
 62
   256
  6
BYLAYER
  0
VISUALSTYLE
  5
2F
102
{ACAD_REACTORS
330
2A
102
}
330
2A
100
AcDbVisualStyle
  2
2dWireframe
 70
     4
 71
     0
 72
     2
 73
     0
 90
        0
 40
-0.6
 41
-30.0
 62
     5
 63
     7
 74
     1
 91
        4
 64
     7
 65
   257
 75
     1
175
     1
 42
1.0
 92
        0
 66
   257
 43
1.0
 76
     1
 77
     6
 78
     2
 67
     7
 79
     5
170
     0
171
     0
290
     0
174
     0
 93
        1
 44
0.0
173
     0
291
     0
 45
0.0
1001
ACAD
1000
AcDbSavedByObjectVersion
1070
     0
  0
VISUALSTYLE
  5
31
102
{ACAD_REACTORS
330
2A
102
}
330
2A
100
AcDbVisualStyle
  2
3D Hidden
 70
     6
 71
     1
 72
     2
 73
     2
 90
        0
 40
-0.6
 41
-30.0
 62
     5
 63
     7
 74
     2
 91
        2
 64
     7
 65
   257
 75
     2
175
     1
 42
40.0
 92
        0
 66
   257
 43
1.0
 76
     1
 77
     6
 78
     2
 67
     7
 79
     3
170
     0
171
     0
290
     0
174
     0
 93
        1
 44
0.0
173
     0
291
     0
 45
0.0
1001
ACAD
1000
AcDbSavedByObjectVersion
1070
     0
  0
VISUALSTYLE
  5
30
102
{ACAD_REACTORS
330
2A
102
}
330
2A
100
AcDbVisualStyle
  2
3dWireframe
 70
     5
 71
     0
 72
     2
 73
     0
 90
        0
 40
-0.6
 41
-30.0
 62
     5
 63
     7
 74
     1
 91
        4
 64
     7
 65
   257
 75
     1
175
     1
 42
1.0
 92
        0
 66
   257
 43
1.0
 76
     1
 77
     6
 78
     2
 67
     7
 79
     5
170
     0
171
     0
290
     0
174
     0
 93
        1
 44
0.0
173
     0
291
     0
 45
0.0
1001
ACAD
1000
AcDbSavedByObjectVersion
1070
     0
  0
VISUALSTYLE
  5
32
102
{ACAD_REACTORS
330
2A
102
}
330
2A
100
AcDbVisualStyle
  2
Basic
 70
     7
 71
     1
 72
     0
 73
     1
 90
        0
 40
-0.6
 41
-30.0
 62
     5
 63
     7
 74
     0
 91
        4
 64
     7
 65
   257
 75
     1
175
     1
 42
1.0
 92
        8
 66
     7
 43
1.0
 76
     1
 77
     6
 78
     2
 67
     7
 79
     5
170
     0
171
     0
290
     0
174
     0
 93
        1
 44
0.0
173
     0
291
     1
 45
0.0
1001
ACAD
1000
AcDbSavedByObjectVersion
1070
     0
  0
VISUALSTYLE
  5
36
102
{ACAD_REACTORS
330
2A
102
}
330
2A
100
AcDbVisualStyle
  2
Brighten
 70
    12
 71
     2
 72
     2
 73
     0
 90
        0
 40
-0.6
 41
-30.0
 62
     5
 63
     7
 74
     1
 91
        4
 64
     7
 65
   257
 75
     1
175
     1
 42
1.0
 92
        8
 66
     7
 43
1.0
 76
     1
 77
     6
 78
     2
 67
     7
 79
     5
170
     0
171
     0
290
     0
174
     0
 93
        1
 44
50.0
173
     0
291
     1
 45
0.0
1001
ACAD
1000
AcDbSavedByObjectVersion
1070
     0
  0
VISUALSTYLE
  5
3A
102
{ACAD_REACTORS
330
2A
102
}
330
2A
100
AcDbVisualStyle
  2
ColorChange
 70
    16
 71
     2
 72
     2
 73
     3
 90
        0
 40
-0.6
 41
-30.0
 62
     5
 63
     8
 74
     1
 91
        4
 64
     7
 65
   257
 75
     1
175
     1
 42
1.0
 92
        8
 66
     8
 43
1.0
 76
     1
 77
     6
 78
     2
 67
     7
 79
     5
170
     0
171
     0
290
     0
174
     0
 93
        1
 44
0.0
173
     0
291
     1
 45
0.0
1001
ACAD
1000
AcDbSavedByObjectVersion
1070
     0
  0
VISUALSTYLE
  5
34
102
{ACAD_REACTORS
330
2A
102
}
330
2A
100
AcDbVisualStyle
  2
Conceptual
 70
     9
 71
     3
 72
     2
 73
     0
 90
        0
 40
-0.6
 41
-30.0
 62
     5
 63
     7
 74
     2
 91
        2
 64
     7
 65
   257
 75
     1
175
     1
 42
40.0
 92
        8
 66
     7
 43
1.0
 76
     1
 77
     6
 78
     2
 67
     7
 79
     3
170
     0
171
     0
290
     0
174
     0
 93
        1
 44
0.0
173
     0
291
     0
 45
0.0
1001
ACAD
1000
AcDbSavedByObjectVersion
1070
     0
  0
VISUALSTYLE
  5
35
102
{ACAD_REACTORS
330
2A
102
}
330
2A
100
AcDbVisualStyle
  2
Dim
 70
    11
 71
     2
 72
     2
 73
     0
 90
        0
 40
-0.6
 41
-30.0
 62
     5
 63
     7
 74
     1
 91
        4
 64
     7
 65
   257
 75
     1
175
     1
 42
1.0
 92
        8
 66
     7
 43
1.0
 76
     1
 77
     6
 78
     2
 67
     7
 79
     5
170
     0
171
     0
290
     0
174
     0
 93
        1
 44
-50.0
173
     0
291
     1
 45
0.0
1001
ACAD
1000
AcDbSavedByObjectVersion
1070
     0
  0
VISUALSTYLE
  5
39
102
{ACAD_REACTORS
330
2A
102
}
330
2A
100
AcDbVisualStyle
  2
Facepattern
 70
    15
 71
     2
 72
     2
 73
     0
 90
        0
 40
-0.6
 41
-30.0
 62
     5
 63
     7
 74
     1
 91
        4
 64
     7
 65
   257
 75
     1
175
     1
 42
1.0
 92
        8
 66
     7
 43
1.0
 76
     1
 77
     6
 78
     2
 67
     7
 79
     5
170
     0
171
     0
290
     0
174
     0
 93
        1
 44
0.0
173
     0
291
     1
 45
0.0
1001
ACAD
1000
AcDbSavedByObjectVersion
1070
     0
  0
VISUALSTYLE
  5
2B
102
{ACAD_REACTORS
330
2A
102
}
330
2A
100
AcDbVisualStyle
  2
Flat
 70
     0
 71
     2
 72
     1
 73
     1
 90
        2
 40
-0.6
 41
30.0
 62
     5
 63
     7
 74
     0
 91
        4
 64
     7
 65
   257
 75
     1
175
     1
 42
1.0
 92
        8
 66
     7
 43
1.0
 76
     1
 77
     6
 78
     2
 67
     7
 79
     5
170
     0
171
     0
290
     0
174
     0
 93
       13
 44
0.0
173
     0
291
     1
 45
0.0
1001
ACAD
1000
AcDbSavedByObjectVersion
1070
     0
  0
VISUALSTYLE
  5
2C
102
{ACAD_REACTORS
330
2A
102
}
330
2A
100
AcDbVisualStyle
  2
FlatWithEdges
 70
     1
 71
     2
 72
     1
 73
     1
 90
        2
 40
-0.6
 41
30.0
 62
     5
 63
     7
 74
     1
 91
        4
 64
     7
 65
   257
 75
     1
175
     1
 42
1.0
 92
        0
 66
   257
 43
1.0
 76
     1
 77
     6
 78
     2
 67
     7
 79
     5
170
     0
171
     0
290
     0
174
     0
 93
       13
 44
0.0
173
     0
291
     1
 45
0.0
1001
ACAD
1000
AcDbSavedByObjectVersion
1070
     0
  0
VISUALSTYLE
  5
2D
102
{ACAD_REACTORS
330
2A
102
}
330
2A
100
AcDbVisualStyle
  2
Gouraud
 70
     2
 71
     2
 72
     2
 73
     1
 90
        2
 40
-0.6
 41
30.0
 62
     5
 63
     7
 74
     0
 91
        4
 64
     7
 65
   257
 75
     1
175
     1
 42
1.0
 92
        0
 66
     7
 43
1.0
 76
     1
 77
     6
 78
     2
 67
     7
 79
     5
170
     0
171
     0
290
     0
174
     0
 93
       13
 44
0.0
173
     0
291
     1
 45
0.0
1001
ACAD
1000
AcDbSavedByObjectVersion
1070
     0
  0
VISUALSTYLE
  5
2E
102
{ACAD_REACTORS
330
2A
102
}
330
2A
100
AcDbVisualStyle
  2
GouraudWithEdges
 70
     3
 71
     2
 72
     2
 73
     1
 90
        2
 40
-0.6
 41
30.0
 62
     5
 63
     7
 74
     1
 91
        4
 64
     7
 65
   257
 75
     1
175
     1
 42
1.0
 92
        0
 66
   257
 43
1.0
 76
     1
 77
     6
 78
     2
 67
     7
 79
     5
170
     0
171
     0
290
     0
174
     0
 93
       13
 44
0.0
173
     0
291
     1
 45
0.0
1001
ACAD
1000
AcDbSavedByObjectVersion
1070
     0
  0
VISUALSTYLE
  5
38
102
{ACAD_REACTORS
330
2A
102
}
330
2A
100
AcDbVisualStyle
  2
Linepattern
 70
    14
 71
     2
 72
     2
 73
     0
 90
        0
 40
-0.6
 41
-30.0
 62
     5
 63
     7
 74
     1
 91
        4
 64
     7
 65
   257
 75
     7
175
     7
 42
1.0
 92
        8
 66
     7
 43
1.0
 76
     1
 77
     6
 78
     2
 67
     7
 79
     5
170
     0
171
     0
290
     0
174
     0
 93
        1
 44
0.0
173
     0
291
     1
 45
0.0
1001
ACAD
1000
AcDbSavedByObjectVersion
1070
     0
  0
VISUALSTYLE
  5
33
102
{ACAD_REACTORS
330
2A
102
}
330
2A
100
AcDbVisualStyle
  2
Realistic
 70
     8
 71
     2
 72
     2
 73
     0
 90
        0
 40
-0.6
 41
-30.0
 62
     5
 63
     7
 74
     1
 91
        0
 64
     7
 65
   257
 75
     1
175
     1
 42
1.0
 92
        8
 66
     8
 43
1.0
 76
     1
 77
     6
 78
     2
 67
     7
 79
     5
170
     0
171
     0
290
     0
174
     0
 93
       13
 44
0.0
173
     0
291
     0
 45
0.0
1001
ACAD
1000
AcDbSavedByObjectVersion
1070
     0
  0
VISUALSTYLE
  5
37
102
{ACAD_REACTORS
330
2A
102
}
330
2A
100
AcDbVisualStyle
  2
Thicken
 70
    13
 71
     2
 72
     2
 73
     0
 90
        0
 40
-0.6
 41
-30.0
 62
     5
 63
     7
 74
     1
 91
        4
 64
     7
 65
   257
 75
     1
175
     1
 42
1.0
 92
       12
 66
     7
 43
1.0
 76
     1
 77
     6
 78
     2
 67
     7
 79
     5
170
     0
171
     0
290
     0
174
     0
 93
        1
 44
0.0
173
     0
291
     1
 45
0.0
1001
ACAD
1000
AcDbSavedByObjectVersion
1070
     0
  0
XRECORD
  5
3EC
102
{ACAD_REACTORS
330
3E3
102
}
330
3E3
100
AcDbXrecord
 90
        0
  0
XRECORD
  5
402
102
{ACAD_REACTORS
330
3E3
102
}
330
3E3
100
AcDbXrecord
1000
DSTYLE
1002
{
1070
   340
340
11
1002
}
  0
XRECORD
  5
3ED
102
{ACAD_REACTORS
330
3E3
102
}
330
3E3
100
AcDbXrecord
  1
{248F9FA7-C3C5-4D41-9165-AD9E28C1D4F9}
  0
XRECORD
  5
3E6
102
{ACAD_REACTORS
330
3E3
102
}
330
3E3
100
AcDbXrecord
  1

  0
XRECORD
  5
3EB
102
{ACAD_REACTORS
330
3E3
102
}
330
3E3
100
AcDbXrecord
 90
        1
  0
XRECORD
  5
3E8
102
{ACAD_REACTORS
330
3E3
102
}
330
3E3
100
AcDbXrecord
340
1A
  0
XRECORD
  5
3EA
102
{ACAD_REACTORS
330
3E3
102
}
330
3E3
100
AcDbXrecord
 90
    10781
  0
XRECORD
  5
3E9
102
{ACAD_REACTORS
330
3E3
102
}
330
3E3
100
AcDbXrecord
340
19
  0
XRECORD
  5
3EF
102
{ACAD_REACTORS
330
3E3
102
}
330
3E3
100
AcDbXrecord
 40
0.0
  0
XRECORD
  5
3F2
102
{ACAD_REACTORS
330
3E3
102
}
330
3E3
100
AcDbXrecord
340
0
  0
XRECORD
  5
3F8
102
{ACAD_REACTORS
330
3E3
102
}
330
3E3
100
AcDbXrecord
 10
0.0
 20
0.0
 30
0.0
  0
XRECORD
  5
3F4
102
{ACAD_REACTORS
330
3E3
102
}
330
3E3
100
AcDbXrecord
 10
0.0
 20
0.0
 30
0.0
  0
XRECORD
  5
3F7
102
{ACAD_REACTORS
330
3E3
102
}
330
3E3
100
AcDbXrecord
 10
0.0
 20
0.0
 30
0.0
  0
XRECORD
  5
3F5
102
{ACAD_REACTORS
330
3E3
102
}
330
3E3
100
AcDbXrecord
 10
0.0
 20
0.0
 30
0.0
  0
XRECORD
  5
3F6
102
{ACAD_REACTORS
330
3E3
102
}
330
3E3
100
AcDbXrecord
 10
0.0
 20
0.0
 30
0.0
  0
XRECORD
  5
3F3
102
{ACAD_REACTORS
330
3E3
102
}
330
3E3
100
AcDbXrecord
 10
0.0
 20
0.0
 30
0.0
  0
XRECORD
  5
3F0
102
{ACAD_REACTORS
330
3E3
102
}
330
3E3
100
AcDbXrecord
340
0
  0
XRECORD
  5
3F1
102
{ACAD_REACTORS
330
3E3
102
}
330
3E3
100
AcDbXrecord
 70
     0
  0
XRECORD
  5
3E7
102
{ACAD_REACTORS
330
3E3
102
}
330
3E3
100
AcDbXrecord
  1

  0
XRECORD
  5
3E4
102
{ACAD_REACTORS
330
3E3
102
}
330
3E3
100
AcDbXrecord
 90
        1
  0
XRECORD
  5
3E5
102
{ACAD_REACTORS
330
3E3
102
}
330
3E3
100
AcDbXrecord
 90
       70
  0
XRECORD
  5
3FB
102
{ACAD_REACTORS
330
3E3
102
}
330
3E3
100
AcDbXrecord
340
0
  0
XRECORD
  5
401
102
{ACAD_REACTORS
330
3E3
102
}
330
3E3
100
AcDbXrecord
 10
0.0
 20
0.0
 30
0.0
  0
XRECORD
  5
3FD
102
{ACAD_REACTORS
330
3E3
102
}
330
3E3
100
AcDbXrecord
 10
0.0
 20
0.0
 30
0.0
  0
XRECORD
  5
400
102
{ACAD_REACTORS
330
3E3
102
}
330
3E3
100
AcDbXrecord
 10
0.0
 20
0.0
 30
0.0
  0
XRECORD
  5
3FE
102
{ACAD_REACTORS
330
3E3
102
}
330
3E3
100
AcDbXrecord
 10
0.0
 20
0.0
 30
0.0
  0
XRECORD
  5
3FF
102
{ACAD_REACTORS
330
3E3
102
}
330
3E3
100
AcDbXrecord
 10
0.0
 20
0.0
 30
0.0
  0
XRECORD
  5
3FC
102
{ACAD_REACTORS
330
3E3
102
}
330
3E3
100
AcDbXrecord
 10
0.0
 20
0.0
 30
0.0
  0
XRECORD
  5
3F9
102
{ACAD_REACTORS
330
3E3
102
}
330
3E3
100
AcDbXrecord
340
0
  0
XRECORD
  5
3FA
102
{ACAD_REACTORS
330
3E3
102
}
330
3E3
100
AcDbXrecord
 70
     0
  0
XRECORD
  5
3EE
102
{ACAD_REACTORS
330
3E3
102
}
330
3E3
100
AcDbXrecord
  1
{FAEB1C32-E019-11D5-929B-00C0DF256EC4}
  0
ENDSEC
  0
EOF
