  0
SECTION
  2
HEADER
  9
$ACADVER
  1
AC1012
  9
$DWGCODEPAGE
  3
iso8859-1
  9
$INSBASE
 10
0.0
 20
0.0
 30
0.0
  9
$EXTMIN
 10
1.0E20
 20
1.0E20
 30
0.0
  9
$EXTMAX
 10
-1.0E20
 20
-1.0E20
 30
0.0
  9
$LIMMIN
 10
0.0
 20
0.0
  9
$LIMMAX
 10
12.0
 20
9.0
  9
$ORTHOMODE
 70
     0
  9
$REGENMODE
 70
     1
  9
$FILLMODE
 70
     1
  9
$QTEXTMODE
 70
     0
  9
$MIRRTEXT
 70
     1
  9
$DRAGMODE
 70
     2
  9
$LTSCALE
 40
1.0
  9
$OSMODE
 70
     0
  9
$ATTMODE
 70
     1
  9
$TEXTSIZE
 40
0.2
  9
$TRACEWID
 40
0.05
  9
$TEXTSTYLE
  7
STANDARD
  9
$CLAYER
  8
0
  9
$CELTYPE
  6
BYLAYER
  9
$CECOLOR
 62
   256
  9
$CELTSCALE
 40
1.0
  9
$DELOBJ
 70
     0
  9
$DISPSILH
 70
     0
  9
$DIMSCALE
 40
1.0
  9
$DIMASZ
 40
0.18
  9
$DIMEXO
 40
0.0625
  9
$DIMDLI
 40
0.38
  9
$DIMRND
 40
0.0
  9
$DIMDLE
 40
0.0
  9
$DIMEXE
 40
0.18
  9
$DIMTP
 40
0.0
  9
$DIMTM
 40
0.0
  9
$DIMTXT
 40
0.18
  9
$DIMCEN
 40
0.09
  9
$DIMTSZ
 40
0.0
  9
$DIMTOL
 70
     0
  9
$DIMLIM
 70
     0
  9
$DIMTIH
 70
     1
  9
$DIMTOH
 70
     1
  9
$DIMSE1
 70
     0
  9
$DIMSE2
 70
     0
  9
$DIMTAD
 70
     0
  9
$DIMZIN
 70
     0
  9
$DIMBLK
  1

  9
$DIMASO
 70
     1
  9
$DIMSHO
 70
     1
  9
$DIMPOST
  1

  9
$DIMAPOST
  1

  9
$DIMALT
 70
     0
  9
$DIMALTD
 70
     2
  9
$DIMALTF
 40
25.4
  9
$DIMLFAC
 40
1.0
  9
$DIMTOFL
 70
     0
  9
$DIMTVP
 40
0.0
  9
$DIMTIX
 70
     0
  9
$DIMSOXD
 70
     0
  9
$DIMSAH
 70
     0
  9
$DIMBLK1
  1

  9
$DIMBLK2
  1

  9
$DIMSTYLE
  2
STANDARD
  9
$DIMCLRD
 70
     0
  9
$DIMCLRE
 70
     0
  9
$DIMCLRT
 70
     0
  9
$DIMTFAC
 40
1.0
  9
$DIMGAP
 40
0.09
  9
$DIMJUST
 70
     0
  9
$DIMSD1
 70
     0
  9
$DIMSD2
 70
     0
  9
$DIMTOLJ
 70
     1
  9
$DIMTZIN
 70
     0
  9
$DIMALTZ
 70
     0
  9
$DIMALTTZ
 70
     0
  9
$DIMFIT
 70
     3
  9
$DIMUPT
 70
     0
  9
$DIMUNIT
 70
     2
  9
$DIMDEC
 70
     4
  9
$DIMTDEC
 70
     4
  9
$DIMALTU
 70
     2
  9
$DIMALTTD
 70
     2
  9
$DIMTXSTY
  7
STANDARD
  9
$DIMAUNIT
 70
     0
  9
$LUNITS
 70
     2
  9
$LUPREC
 70
     4
  9
$SKETCHINC
 40
0.1
  9
$FILLETRAD
 40
0.0
  9
$AUNITS
 70
     0
  9
$AUPREC
 70
     0
  9
$MENU
  1
acad
  9
$ELEVATION
 40
0.0
  9
$PELEVATION
 40
0.0
  9
$THICKNESS
 40
0.0
  9
$LIMCHECK
 70
     0
  9
$BLIPMODE
 70
     1
  9
$CHAMFERA
 40
0.0
  9
$CHAMFERB
 40
0.0
  9
$CHAMFERC
 40
0.0
  9
$CHAMFERD
 40
0.0
  9
$SKPOLY
 70
     0
  9
$TDCREATE
 40
0.000000000
  9
$TDUPDATE
 40
0.000000000
  9
$TDINDWG
 40
0.0
  9
$TDUSRTIMER
 40
0.0
  9
$USRTIMER
 70
     1
  9
$ANGBASE
 50
0.0
  9
$ANGDIR
 70
     0
  9
$PDMODE
 70
     0
  9
$PDSIZE
 40
0.0
  9
$PLINEWID
 40
0.0
  9
$COORDS
 70
     0
  9
$SPLFRAME
 70
     0
  9
$SPLINETYPE
 70
     6
  9
$SPLINESEGS
 70
     8
  9
$ATTDIA
 70
     0
  9
$ATTREQ
 70
     1
  9
$HANDLING
 70
     1
  9
$HANDSEED
  5
   309
  9
$SURFTAB1
 70
     6
  9
$SURFTAB2
 70
     6
  9
$SURFTYPE
 70
     6
  9
$SURFU
 70
     6
  9
$SURFV
 70
     6
  9
$UCSNAME
  2

  9
$UCSORG
 10
0.0
 20
0.0
 30
0.0
  9
$UCSXDIR
 10
1.0
 20
0.0
 30
0.0
  9
$UCSYDIR
 10
0.0
 20
1.0
 30
0.0
  9
$PUCSNAME
  2

  9
$PUCSORG
 10
0.0
 20
0.0
 30
0.0
  9
$PUCSXDIR
 10
1.0
 20
0.0
 30
0.0
  9
$PUCSYDIR
 10
0.0
 20
1.0
 30
0.0
  9
$USERI1
 70
     0
  9
$USERI2
 70
     0
  9
$USERI3
 70
     0
  9
$USERI4
 70
     0
  9
$USERI5
 70
     0
  9
$USERR1
 40
0.0
  9
$USERR2
 40
0.0
  9
$USERR3
 40
0.0
  9
$USERR4
 40
0.0
  9
$USERR5
 40
0.0
  9
$WORLDVIEW
 70
     1
  9
$SHADEDGE
 70
     3
  9
$SHADEDIF
 70
    70
  9
$TILEMODE
 70
     1
  9
$MAXACTVP
 70
    16
  9
$PINSBASE
 10
0.0
 20
0.0
 30
0.0
  9
$PLIMCHECK
 70
     0
  9
$PEXTMIN
 10
1.0E20
 20
1.0E20
 30
1.0E20
  9
$PEXTMAX
 10
-1.0E20
 20
-1.0E20
 30
-1.0E20
  9
$PLIMMIN
 10
0.0
 20
0.0
  9
$PLIMMAX
 10
12.0
 20
9.0
  9
$UNITMODE
 70
     0
  9
$VISRETAIN
 70
     0
  9
$PLINEGEN
 70
     0
  9
$PSLTSCALE
 70
     1
  9
$TREEDEPTH
 70
     0
  9
$PICKSTYLE
 70
     1
  9
$CMLSTYLE
  2
STANDARD
  9
$CMLJUST
 70
     0
  9
$CMLSCALE
 40
1.0
  9
$SAVEIMAGES
 70
     0
  0
ENDSEC
  0
SECTION
  2
CLASSES
  0
ENDSEC
  0
SECTION
  2
TABLES
  0
TABLE
  2
LTYPE
  5
     5
100
AcDbSymbolTable
 70
     3
  0
LTYPE
  5
     B
100
AcDbSymbolTableRecord
100
AcDbLinetypeTableRecord
  2
BYLAYER
 70
     0
  3

 72
    65
 73
     0
 40
0.0
  0
LTYPE
  5
     C
100
AcDbSymbolTableRecord
100
AcDbLinetypeTableRecord
  2
BYBLOCK
 70
     0
  3

 72
    65
 73
     0
 40
0.0
  0
LTYPE
  5
     D
100
AcDbSymbolTableRecord
100
AcDbLinetypeTableRecord
  2
CONTINUOUS
 70
     0
  3
Solid line
 72
    65
 73
     0
 40
0.0
  0
ENDTAB
  0
TABLE
  2
LAYER
  5
     2
100
AcDbSymbolTable
 70
     1
  0
LAYER
  5
     E
100
AcDbSymbolTableRecord
100
AcDbLayerTableRecord
  2
0
 70
     0
 62
     7
  6
CONTINUOUS
  0
ENDTAB
  0
TABLE
  2
STYLE
  5
     3
100
AcDbSymbolTable
 70
     1
  0
STYLE
  5
     F
100
AcDbSymbolTableRecord
100
AcDbTextStyleTableRecord
  2
STANDARD
 70
     0
 40
0.0
 41
1.0
 50
0.0
 71
     0
 42
0.1
  3
TXT
  4

  0
ENDTAB
  0
TABLE
  2
VIEW
  5
     6
100
AcDbSymbolTable
 70
     0
  0
ENDTAB
  0
TABLE
  2
UCS
  5
     7
100
AcDbSymbolTable
 70
     0
  0
ENDTAB
  0
TABLE
  2
VPORT
  5
     8
100
AcDbSymbolTable
 70
     1
  0
VPORT
  5
    10
100
AcDbSymbolTableRecord
100
AcDbViewportTableRecord
  2
*ACTIVE
 70
     0
 10
0.0
 20
0.0
 11
1.0
 21
1.0
 12
0.5
 22
0.5
 13
0.0
 23
0.0
 14
1.0
 24
1.0
 15
0.0
 25
0.0
 16
0.0
 26
0.0
 36
1.0
 17
0.0
 27
0.0
 37
0.0
 40
1.0
 41
1.785461
 42
50.0
 43
0.0
 44
0.0
 50
0.0
 51
0.0
 71
     0
 72
   100
 73
     1
 74
     1
 75
     0
 76
     0
 77
     0
 78
     0
  0
ENDTAB
  0
TABLE
  2
APPID
  5
     9
100
AcDbSymbolTable
 70
     1
  0
APPID
  5
    11
100
AcDbSymbolTableRecord
100
AcDbRegAppTableRecord
  2
ACAD
 70
     0
  0
ENDTAB
  0
TABLE
  2
DIMSTYLE
  5
     A
100
AcDbSymbolTable
 70
     1
  0
DIMSTYLE
105
    12
100
AcDbSymbolTableRecord
100
AcDbDimStyleTableRecord
  2
STANDARD
 70
     0
  3

  4

  5

  6

  7

 40
1.0
 41
0.18
 42
0.0625
 43
0.38
 44
0.18
 45
0.0
 46
0.0
 47
0.0
 48
0.0
140
0.18
141
0.09
142
0.0
143
25.4
144
1.0
145
0.0
146
1.0
147
0.09
 71
     0
 72
     0
 73
     1
 74
     1
 75
     0
 76
     0
 77
     0
 78
     0
170
     0
171
     2
172
     0
173
     0
174
     0
175
     0
176
     0
177
     0
178
     0
270
     2
271
     4
272
     4
273
     2
274
     2
275
     0
280
     0
281
     0
282
     0
283
     1
284
     0
285
     0
286
     0
287
     3
288
     0
340
     F
  0
ENDTAB
  0
TABLE
  2
BLOCK_RECORD
  5
     1
100
AcDbSymbolTable
 70
     2
  0
BLOCK_RECORD
  5
    13
100
AcDbSymbolTableRecord
100
AcDbBlockTableRecord
  2
*MODEL_SPACE
  0
BLOCK_RECORD
  5
    14
100
AcDbSymbolTableRecord
100
AcDbBlockTableRecord
  2
*PAPER_SPACE
  0
ENDTAB
  0
ENDSEC
  0
SECTION
  2
BLOCKS
  0
BLOCK
  5
    15
100
AcDbEntity
  8
0
  6
CONTINUOUS
 62
     7
 67
     1
 60
     0
100
AcDbBlockBegin
  2
*MODEL_SPACE
 70
     0
 10
0.0
 20
0.0
 30
0.0
  1

  3
*MODEL_SPACE
210
0.0
220
0.0
230
0.0
  0
ENDBLK
  5
    16
100
AcDbEntity
  8
0
  6
CONTINUOUS
 62
     7
 67
     1
 60
     0
100
AcDbBlockEnd
  0
BLOCK
  5
    17
100
AcDbEntity
  8
0
  6
CONTINUOUS
 62
     7
 67
     1
 60
     0
100
AcDbBlockBegin
  2
*PAPER_SPACE
 70
     0
 10
0.0
 20
0.0
 30
0.0
  1

  3
*PAPER_SPACE
210
0.0
220
0.0
230
0.0
  0
ENDBLK
  5
    18
100
AcDbEntity
  8
0
  6
CONTINUOUS
 62
     7
 67
     1
 60
     0
100
AcDbBlockEnd
  0
ENDSEC
  0
SECTION
  2
ENTITIES
  0
ARC
  5
    19
100
AcDbEntity
  8
L7
 60
     0
100
AcDbCircle
 10
4.22016524028555
 20
42.897623985995
 30
0.0
 40
3.4375
100
AcDbArc
 50
99.326905
 51
167.394066633767
  0
ARC
  5
    1A
100
AcDbEntity
  8
L7
 60
     0
100
AcDbCircle
 10
4.2477751840984
 20
34.3121739396441
 30
0.0
 40
11.991769
100
AcDbArc
 50
63.198361
 51
92.794835
  0
ARC
  5
    1B
100
AcDbEntity
  8
L7
 60
     0
100
AcDbCircle
 10
36.7432858402208
 20
90.1532018871561
 30
0.0
 40
52.641946
100
AcDbArc
 50
239.030751
 51
247.622263
  0
ARC
  5
    1C
100
AcDbEntity
  8
L7
 60
     0
100
AcDbCircle
 10
26.6803496314995
 20
94.6038157944487
 30
0.0
 40
54.057249
100
AcDbArc
 50
259.362759
 51
267.793051
  0
ARC
  5
    1D
100
AcDbEntity
  8
L7
 60
     0
100
AcDbCircle
 10
24.564975365268
 20
41.5860954013226
 30
0.0
 40
1.0
100
AcDbArc
 50
271.930292
 51
353.500000000001
  0
ARC
  5
    1E
100
AcDbEntity
  8
L7
 60
     0
100
AcDbCircle
 10
26.5521190766212
 20
41.3596889737868
 30
0.0
 40
1.0
100
AcDbArc
 50
83.5000000000002
 51
173.499999999999
  0
LINE
  5
    1F
100
AcDbEntity
  8
L7
 60
     0
100
AcDbLine
 10
26.6653222903891
 20
42.3532608294634
 30
0.0
 11
26.7646794759567
 21
42.3419405080866
 31
0.0
  0
ARC
  5
    20
100
AcDbEntity
  8
L7
 60
     0
100
AcDbCircle
 10
26.7533591545799
 20
42.2425833225189
 30
0.0
 40
0.1
100
AcDbArc
 50
353.500000000003
 51
443.500000000002
  0
LINE
  5
    21
100
AcDbEntity
  8
L7
 60
     0
100
AcDbLine
 10
26.8527163401476
 20
42.2312630011421
 30
0.0
 11
26.5458438230302
 21
39.5378774854836
 31
0.0
  0
ARC
  5
    22
100
AcDbEntity
  8
L7
 60
     0
100
AcDbCircle
 10
26.0490578951919
 20
39.5944790923676
 30
0.0
 40
0.5
100
AcDbArc
 50
303.758185000001
 51
353.500000000001
  0
ARC
  5
    23
100
AcDbEntity
  8
L7
 60
     0
100
AcDbCircle
 10
26.6047468024433
 20
38.7630880204118
 30
0.0
 40
0.5
100
AcDbArc
 50
123.758184999999
 51
134.286837999999
  0
LINE
  5
    24
100
AcDbEntity
  8
L7
 60
     0
100
AcDbLine
 10
26.2556220478109
 20
39.1210148700891
 30
0.0
 11
24.8565761266179
 21
39.1717585522897
 31
0.0
  0
ARC
  5
    25
100
AcDbEntity
  8
L7
 60
     0
100
AcDbCircle
 10
24.5248438562307
 20
38.7976539127933
 30
0.0
 40
0.5
100
AcDbArc
 50
48.4354799999995
 51
148.646986000001
  0
ARC
  5
    26
100
AcDbEntity
  8
L7
 60
     0
100
AcDbCircle
 10
23.409102837549
 20
39.4774502105533
 30
0.0
 40
0.806522
100
AcDbArc
 50
219.854032000001
 51
328.646986
  0
ARC
  5
    27
100
AcDbEntity
  8
L7
 60
     0
100
AcDbCircle
 10
22.4061124586571
 20
38.6401858889259
 30
0.0
 40
0.5
100
AcDbArc
 50
39.8540319999985
 51
89.0181909999996
  0
ARC
  5
    28
100
AcDbEntity
  8
L7
 60
     0
100
AcDbCircle
 10
21.5219789615955
 20
-12.9504886595467
 30
0.0
 40
52.09825
100
AcDbArc
 50
89.018191
 51
91.595294
  0
ARC
  5
    29
100
AcDbEntity
  8
L7
 60
     0
100
AcDbCircle
 10
18.9772950544393
 20
8.19158503778957
 30
0.0
 40
30.955331
100
AcDbArc
 50
87.974132
 51
96.193868
  0
LINE
  5
    2A
100
AcDbEntity
  8
L7
 60
     0
100
AcDbLine
 10
15.6374329444799
 20
38.9662149245906
 30
0.0
 11
12.9171326234797
 21
38.6235670735028
 31
0.0
  0
ARC
  5
    2B
100
AcDbEntity
  8
L7
 60
     0
100
AcDbCircle
 10
12.7296742233468
 20
40.1118075916845
 30
0.0
 40
1.5
100
AcDbArc
 50
234.668344
 51
277.179152
  0
ARC
  5
    2C
100
AcDbEntity
  8
L7
 60
     0
100
AcDbCircle
 10
9.54897842048554
 20
35.6248074943818
 30
0.0
 40
4.0
100
AcDbArc
 50
54.6683440000001
 51
102.156425
  0
ARC
  5
    2D
100
AcDbEntity
  8
L7
 60
     0
100
AcDbCircle
 10
6.15175880099116
 20
51.3956247626828
 30
0.0
 40
12.132569
100
AcDbArc
 50
255.146862
 51
282.156425
  0
ARC
  5
    2E
100
AcDbEntity
  8
L7
 60
     0
100
AcDbCircle
 10
4.22016524028555
 20
42.897623985995
 30
0.0
 40
3.4375
100
AcDbArc
 50
179.605933366234
 51
249.95027
  0
ARC
  5
    2F
100
AcDbEntity
  8
L7
 60
     0
100
AcDbCircle
 10
0.882744177833191
 20
42.9205783297961
 30
0.0
 40
0.1
100
AcDbArc
 50
83.5000000000001
 51
179.605933366232
  0
LINE
  5
    30
100
AcDbEntity
  8
L7
 60
     0
100
AcDbLine
 10
0.894064499209982
 20
43.0199355153638
 30
0.0
 11
4.50178962567367
 21
42.608887158495
 31
0.0
  0
ARC
  5
    31
100
AcDbEntity
  8
L7
 60
     0
100
AcDbCircle
 10
4.53009042911565
 20
42.8572801224141
 30
0.0
 40
0.25
100
AcDbArc
 50
263.5
 51
353.500000000001
  0
LINE
  5
    32
100
AcDbEntity
  8
L7
 60
     0
100
AcDbLine
 10
4.7784833930348
 20
42.8289793189722
 30
0.0
 11
4.77961542517248
 21
42.838915037529
 31
0.0
  0
ARC
  5
    33
100
AcDbEntity
  8
L7
 60
     0
100
AcDbCircle
 10
4.53122246125333
 20
42.8672158409709
 30
0.0
 40
0.25
100
AcDbArc
 50
353.500000000001
 51
443.5
  0
LINE
  5
    34
100
AcDbEntity
  8
L7
 60
     0
100
AcDbLine
 10
4.55952326469531
 20
43.1156088048901
 30
0.0
 11
0.951798138231613
 21
43.5266571617588
 31
0.0
  0
ARC
  5
    35
100
AcDbEntity
  8
L7
 60
     0
100
AcDbCircle
 10
0.963118459608403
 20
43.6260143473265
 30
0.0
 40
0.1
100
AcDbArc
 50
167.394066633766
 51
263.5
  0
ARC
  5
    36
100
AcDbEntity
  8
L7
 60
     0
100
AcDbCircle
 10
0.963118459608403
 20
32.6260143473265
 30
0.0
 40
0.1
100
AcDbArc
 50
167.394066633766
 51
263.5
  0
ARC
  5
    37
100
AcDbEntity
  8
L7
 60
     0
100
AcDbCircle
 10
4.22016524028555
 20
31.897623985995
 30
0.0
 40
3.4375
100
AcDbArc
 50
99.326905
 51
167.394066633767
  0
ARC
  5
    38
100
AcDbEntity
  8
L7
 60
     0
100
AcDbCircle
 10
4.2477751840984
 20
23.3121739396441
 30
0.0
 40
11.991769
100
AcDbArc
 50
63.198361
 51
92.794835
  0
ARC
  5
    39
100
AcDbEntity
  8
L7
 60
     0
100
AcDbCircle
 10
36.7432858402208
 20
79.1532018871561
 30
0.0
 40
52.641946
100
AcDbArc
 50
239.030751
 51
247.622263
  0
ARC
  5
    3A
100
AcDbEntity
  8
L7
 60
     0
100
AcDbCircle
 10
26.6803496314995
 20
83.6038157944487
 30
0.0
 40
54.057249
100
AcDbArc
 50
259.362759
 51
267.793051
  0
ARC
  5
    3B
100
AcDbEntity
  8
L7
 60
     0
100
AcDbCircle
 10
24.564975365268
 20
30.5860954013226
 30
0.0
 40
1.0
100
AcDbArc
 50
271.930292
 51
353.500000000001
  0
ARC
  5
    3C
100
AcDbEntity
  8
L7
 60
     0
100
AcDbCircle
 10
26.5521190766212
 20
30.3596889737868
 30
0.0
 40
1.0
100
AcDbArc
 50
83.5000000000002
 51
173.499999999999
  0
LINE
  5
    3D
100
AcDbEntity
  8
L7
 60
     0
100
AcDbLine
 10
26.6653222903891
 20
31.3532608294634
 30
0.0
 11
26.7646794759567
 21
31.3419405080866
 31
0.0
  0
ARC
  5
    3E
100
AcDbEntity
  8
L7
 60
     0
100
AcDbCircle
 10
26.7533591545799
 20
31.2425833225189
 30
0.0
 40
0.1
100
AcDbArc
 50
353.500000000003
 51
443.500000000002
  0
LINE
  5
    3F
100
AcDbEntity
  8
L7
 60
     0
100
AcDbLine
 10
26.8527163401476
 20
31.2312630011421
 30
0.0
 11
26.5458438230302
 21
28.5378774854836
 31
0.0
  0
ARC
  5
    40
100
AcDbEntity
  8
L7
 60
     0
100
AcDbCircle
 10
26.0490578951919
 20
28.5944790923676
 30
0.0
 40
0.5
100
AcDbArc
 50
303.758185000001
 51
353.500000000001
  0
ARC
  5
    41
100
AcDbEntity
  8
L7
 60
     0
100
AcDbCircle
 10
26.6047468024433
 20
27.7630880204118
 30
0.0
 40
0.5
100
AcDbArc
 50
123.758184999999
 51
134.286837999999
  0
LINE
  5
    42
100
AcDbEntity
  8
L7
 60
     0
100
AcDbLine
 10
26.2556220478109
 20
28.1210148700891
 30
0.0
 11
24.8565761266179
 21
28.1717585522897
 31
0.0
  0
ARC
  5
    43
100
AcDbEntity
  8
L7
 60
     0
100
AcDbCircle
 10
24.5248438562307
 20
27.7976539127933
 30
0.0
 40
0.5
100
AcDbArc
 50
48.4354799999995
 51
148.646986000001
  0
ARC
  5
    44
100
AcDbEntity
  8
L7
 60
     0
100
AcDbCircle
 10
23.409102837549
 20
28.4774502105533
 30
0.0
 40
0.806522
100
AcDbArc
 50
219.854032000001
 51
328.646986
  0
ARC
  5
    45
100
AcDbEntity
  8
L7
 60
     0
100
AcDbCircle
 10
22.4061124586571
 20
27.6401858889259
 30
0.0
 40
0.5
100
AcDbArc
 50
39.8540319999985
 51
89.0181909999996
  0
ARC
  5
    46
100
AcDbEntity
  8
L7
 60
     0
100
AcDbCircle
 10
21.5219789615955
 20
-23.9504886595467
 30
0.0
 40
52.09825
100
AcDbArc
 50
89.018191
 51
91.595294
  0
ARC
  5
    47
100
AcDbEntity
  8
L7
 60
     0
100
AcDbCircle
 10
18.9772950544393
 20
-2.80841496221043
 30
0.0
 40
30.955331
100
AcDbArc
 50
87.974132
 51
96.193868
  0
LINE
  5
    48
100
AcDbEntity
  8
L7
 60
     0
100
AcDbLine
 10
15.6374329444799
 20
27.9662149245906
 30
0.0
 11
12.9171326234797
 21
27.6235670735028
 31
0.0
  0
ARC
  5
    49
100
AcDbEntity
  8
L7
 60
     0
100
AcDbCircle
 10
12.7296742233468
 20
29.1118075916845
 30
0.0
 40
1.5
100
AcDbArc
 50
234.668344
 51
277.179152
  0
ARC
  5
    4A
100
AcDbEntity
  8
L7
 60
     0
100
AcDbCircle
 10
9.54897842048554
 20
24.6248074943818
 30
0.0
 40
4.0
100
AcDbArc
 50
54.6683440000001
 51
102.156425
  0
ARC
  5
    4B
100
AcDbEntity
  8
L7
 60
     0
100
AcDbCircle
 10
6.15175880099116
 20
40.3956247626828
 30
0.0
 40
12.132569
100
AcDbArc
 50
255.146862
 51
282.156425
  0
ARC
  5
    4C
100
AcDbEntity
  8
L7
 60
     0
100
AcDbCircle
 10
4.22016524028555
 20
31.897623985995
 30
0.0
 40
3.4375
100
AcDbArc
 50
179.605933366233
 51
249.95027
  0
ARC
  5
    4D
100
AcDbEntity
  8
L7
 60
     0
100
AcDbCircle
 10
0.882744177833191
 20
31.9205783297961
 30
0.0
 40
0.1
100
AcDbArc
 50
83.5000000000004
 51
179.605933366232
  0
LINE
  5
    4E
100
AcDbEntity
  8
L7
 60
     0
100
AcDbLine
 10
0.894064499209982
 20
32.0199355153638
 30
0.0
 11
4.50178962567367
 21
31.608887158495
 31
0.0
  0
ARC
  5
    4F
100
AcDbEntity
  8
L7
 60
     0
100
AcDbCircle
 10
4.53009042911565
 20
31.8572801224141
 30
0.0
 40
0.25
100
AcDbArc
 50
263.5
 51
353.500000000001
  0
LINE
  5
    50
100
AcDbEntity
  8
L7
 60
     0
100
AcDbLine
 10
4.7784833930348
 20
31.8289793189722
 30
0.0
 11
4.77961542517248
 21
31.838915037529
 31
0.0
  0
ARC
  5
    51
100
AcDbEntity
  8
L7
 60
     0
100
AcDbCircle
 10
4.53122246125333
 20
31.8672158409709
 30
0.0
 40
0.25
100
AcDbArc
 50
353.500000000001
 51
443.5
  0
LINE
  5
    52
100
AcDbEntity
  8
L7
 60
     0
100
AcDbLine
 10
4.55952326469531
 20
32.1156088048901
 30
0.0
 11
0.951798138231613
 21
32.5266571617588
 31
0.0
  0
LINE
  5
    53
100
AcDbEntity
  8
L1
 60
     0
100
AcDbLine
 10
0.0
 20
48.0
 30
0.0
 11
96.0
 21
48.0
 31
0.0
  0
LINE
  5
    54
100
AcDbEntity
  8
L1
 60
     0
100
AcDbLine
 10
96.0
 20
48.0
 30
0.0
 11
96.0
 21
0.0
 31
0.0
  0
LINE
  5
    55
100
AcDbEntity
  8
L1
 60
     0
100
AcDbLine
 10
96.0
 20
0.0
 30
0.0
 11
0.0
 21
0.0
 31
0.0
  0
LINE
  5
    56
100
AcDbEntity
  8
L1
 60
     0
100
AcDbLine
 10
0.0
 20
0.0
 30
0.0
 11
0.0
 21
48.0
 31
0.0
  0
ARC
  5
    57
100
AcDbEntity
  8
L8
 60
     0
100
AcDbCircle
 10
35.9127202305353
 20
43.048911686256
 30
0.0
 40
3.4375
100
AcDbArc
 50
278.826905
 51
346.894066633767
  0
ARC
  5
    58
100
AcDbEntity
  8
L8
 60
     0
100
AcDbCircle
 10
35.9600325726235
 20
51.6342757641313
 30
0.0
 40
11.991769
100
AcDbArc
 50
242.698361
 51
272.294835
  0
ARC
  5
    59
100
AcDbEntity
  8
L8
 60
     0
100
AcDbCircle
 10
2.97846053332542
 20
-3.92105270086452
 30
0.0
 40
52.641946
100
AcDbArc
 50
58.530751
 51
67.122263
  0
ARC
  5
    5A
100
AcDbEntity
  8
L8
 60
     0
100
AcDbCircle
 10
13.0021751360189
 20
-8.45931171246021
 30
0.0
 40
54.057249
100
AcDbArc
 50
78.862759
 51
87.293051
  0
ARC
  5
    5B
100
AcDbEntity
  8
L8
 60
     0
100
AcDbCircle
 10
15.5801298743337
 20
44.537930039702
 30
0.0
 40
1.0
100
AcDbArc
 50
91.4302920000001
 51
173.0
  0
ARC
  5
    5C
100
AcDbEntity
  8
L8
 60
     0
100
AcDbCircle
 10
13.5950375710511
 20
44.7816687265123
 30
0.0
 40
1.0
100
AcDbArc
 50
263.0
 51
353.0
  0
LINE
  5
    5D
100
AcDbEntity
  8
L8
 60
     0
100
AcDbLine
 10
13.473168227646
 20
43.789122574871
 30
0.0
 11
13.3739136124818
 21
43.8013095092115
 31
0.0
  0
ARC
  5
    5E
100
AcDbEntity
  8
L8
 60
     0
100
AcDbCircle
 10
13.3861005468223
 20
43.9005641243756
 30
0.0
 40
0.1
100
AcDbArc
 50
173.000000000001
 51
263.000000000001
  0
LINE
  5
    5F
100
AcDbEntity
  8
L8
 60
     0
100
AcDbLine
 10
13.2868459316582
 20
43.9127510587162
 30
0.0
 11
13.6172106883237
 21
46.6033560845931
 31
0.0
  0
ARC
  5
    60
100
AcDbEntity
  8
L8
 60
     0
100
AcDbCircle
 10
14.1134837641443
 20
46.5424214128905
 30
0.0
 40
0.5
100
AcDbArc
 50
123.258185
 51
172.999999999999
  0
ARC
  5
    61
100
AcDbEntity
  8
L8
 60
     0
100
AcDbCircle
 10
13.5650711795262
 20
47.378630066997
 30
0.0
 40
0.5
100
AcDbArc
 50
303.258185000001
 51
313.786838000001
  0
LINE
  5
    62
100
AcDbEntity
  8
L8
 60
     0
100
AcDbLine
 10
13.9110591791982
 20
47.0176701965128
 30
0.0
 11
15.3096090124654
 21
46.9547196225809
 31
0.0
  0
ARC
  5
    63
100
AcDbEntity
  8
L8
 60
     0
100
AcDbCircle
 10
15.6445932889209
 20
47.3259151438855
 30
0.0
 40
0.5
100
AcDbArc
 50
227.93548
 51
328.146986
  0
ARC
  5
    64
100
AcDbEntity
  8
L8
 60
     0
100
AcDbCircle
 10
16.7543595570794
 20
46.636408177079
 30
0.0
 40
0.806522
100
AcDbArc
 50
39.3540319999996
 51
148.146986
  0
ARC
  5
    65
100
AcDbEntity
  8
L8
 60
     0
100
AcDbCircle
 10
17.7646181619952
 20
47.4648879871006
 30
0.0
 40
0.5
100
AcDbArc
 50
219.354031999999
 51
268.518191000001
  0
ARC
  5
    66
100
AcDbEntity
  8
L8
 60
     0
100
AcDbCircle
 10
19.0989258467946
 20
99.0458826984217
 30
0.0
 40
52.09825
100
AcDbArc
 50
268.518191
 51
271.095294
  0
ARC
  5
    67
100
AcDbEntity
  8
L8
 60
     0
100
AcDbCircle
 10
21.459015803556
 20
77.8824077520209
 30
0.0
 40
30.955331
100
AcDbArc
 50
267.474132
 51
275.693868
  0
LINE
  5
    68
100
AcDbEntity
  8
L8
 60
     0
100
AcDbLine
 10
24.5301948416437
 20
47.079804243565
 30
0.0
 11
27.2533817105791
 21
47.3987002503551
 31
0.0
  0
ARC
  5
    69
100
AcDbEntity
  8
L8
 60
     0
100
AcDbCircle
 10
27.4278457891585
 20
45.9088805374289
 30
0.0
 40
1.5
100
AcDbArc
 50
54.1683440000001
 51
96.6791519999999
  0
ARC
  5
    6A
100
AcDbEntity
  8
L8
 60
     0
100
AcDbCircle
 10
30.6475764465001
 20
50.3679533286836
 30
0.0
 40
4.0
100
AcDbArc
 50
234.168344
 51
281.656425
  0
ARC
  5
    6B
100
AcDbEntity
  8
L8
 60
     0
100
AcDbCircle
 10
33.9070421135508
 20
34.5680906071744
 30
0.0
 40
12.132569
100
AcDbArc
 50
74.646862
 51
101.656425
  0
ARC
  5
    6C
100
AcDbEntity
  8
L8
 60
     0
100
AcDbCircle
 10
35.9127202305353
 20
43.048911686256
 30
0.0
 40
3.4375
100
AcDbArc
 50
359.105933366233
 51
429.45027
  0
ARC
  5
    6D
100
AcDbEntity
  8
L8
 60
     0
100
AcDbCircle
 10
39.249813902324
 20
42.9968340931115
 30
0.0
 40
0.1
100
AcDbArc
 50
263.000000000002
 51
359.105933366233
  0
LINE
  5
    6E
100
AcDbEntity
  8
L8
 60
     0
100
AcDbLine
 10
39.2376269679835
 20
42.8975794779473
 30
0.0
 11
35.6336262407157
 21
43.3400951247387
 31
0.0
  0
ARC
  5
    6F
100
AcDbEntity
  8
L8
 60
     0
100
AcDbCircle
 10
35.6031589048644
 20
43.0919585868283
 30
0.0
 40
0.25
100
AcDbArc
 50
83.0000000000007
 51
173.000000000001
  0
LINE
  5
    70
100
AcDbEntity
  8
L8
 60
     0
100
AcDbLine
 10
35.3550223669541
 20
43.1224259226796
 30
0.0
 11
35.35380367352
 21
43.1125004611632
 31
0.0
  0
ARC
  5
    71
100
AcDbEntity
  8
L8
 60
     0
100
AcDbCircle
 10
35.6019402114304
 20
43.0820331253119
 30
0.0
 40
0.25
100
AcDbArc
 50
173.000000000001
 51
263.000000000001
  0
LINE
  5
    72
100
AcDbEntity
  8
L8
 60
     0
100
AcDbLine
 10
35.5714728755791
 20
42.8338965874016
 30
0.0
 11
39.1754736028469
 21
42.3913809406103
 31
0.0
  0
ARC
  5
    73
100
AcDbEntity
  8
L8
 60
     0
100
AcDbCircle
 10
39.1632866685064
 20
42.2921263254461
 30
0.0
 40
0.1
100
AcDbArc
 50
346.894066633767
 51
443.000000000002
  0
ARC
  5
    74
100
AcDbEntity
  8
L8
 60
     0
100
AcDbCircle
 10
34.4127202305353
 20
33.348911686256
 30
0.0
 40
3.4375
100
AcDbArc
 50
278.826905
 51
346.894066633767
  0
ARC
  5
    75
100
AcDbEntity
  8
L8
 60
     0
100
AcDbCircle
 10
34.4600325726235
 20
41.9342757641313
 30
0.0
 40
11.991769
100
AcDbArc
 50
242.698361
 51
272.294835
  0
ARC
  5
    76
100
AcDbEntity
  8
L8
 60
     0
100
AcDbCircle
 10
1.47846053332542
 20
-13.6210527008645
 30
0.0
 40
52.641946
100
AcDbArc
 50
58.530751
 51
67.122263
  0
ARC
  5
    77
100
AcDbEntity
  8
L8
 60
     0
100
AcDbCircle
 10
11.5021751360189
 20
-18.1593117124602
 30
0.0
 40
54.057249
100
AcDbArc
 50
78.862759
 51
87.293051
  0
ARC
  5
    78
100
AcDbEntity
  8
L8
 60
     0
100
AcDbCircle
 10
14.0801298743337
 20
34.837930039702
 30
0.0
 40
1.0
100
AcDbArc
 50
91.4302920000001
 51
173.0
  0
ARC
  5
    79
100
AcDbEntity
  8
L8
 60
     0
100
AcDbCircle
 10
12.0950375710511
 20
35.0816687265123
 30
0.0
 40
1.0
100
AcDbArc
 50
263.0
 51
353.0
  0
LINE
  5
    7A
100
AcDbEntity
  8
L8
 60
     0
100
AcDbLine
 10
11.9731682276459
 20
34.089122574871
 30
0.0
 11
11.8739136124818
 21
34.1013095092115
 31
0.0
  0
ARC
  5
    7B
100
AcDbEntity
  8
L8
 60
     0
100
AcDbCircle
 10
11.8861005468223
 20
34.2005641243756
 30
0.0
 40
0.1
100
AcDbArc
 50
173.000000000001
 51
263.000000000001
  0
LINE
  5
    7C
100
AcDbEntity
  8
L8
 60
     0
100
AcDbLine
 10
11.7868459316582
 20
34.2127510587161
 30
0.0
 11
12.1172106883237
 21
36.9033560845931
 31
0.0
  0
ARC
  5
    7D
100
AcDbEntity
  8
L8
 60
     0
100
AcDbCircle
 10
12.6134837641443
 20
36.8424214128905
 30
0.0
 40
0.5
100
AcDbArc
 50
123.258185
 51
172.999999999999
  0
ARC
  5
    7E
100
AcDbEntity
  8
L8
 60
     0
100
AcDbCircle
 10
12.0650711795262
 20
37.678630066997
 30
0.0
 40
0.5
100
AcDbArc
 50
303.258185000001
 51
313.786838000001
  0
LINE
  5
    7F
100
AcDbEntity
  8
L8
 60
     0
100
AcDbLine
 10
12.4110591791982
 20
37.3176701965128
 30
0.0
 11
13.8096090124654
 21
37.2547196225809
 31
0.0
  0
ARC
  5
    80
100
AcDbEntity
  8
L8
 60
     0
100
AcDbCircle
 10
14.1445932889209
 20
37.6259151438855
 30
0.0
 40
0.5
100
AcDbArc
 50
227.93548
 51
328.146986
  0
ARC
  5
    81
100
AcDbEntity
  8
L8
 60
     0
100
AcDbCircle
 10
15.2543595570794
 20
36.936408177079
 30
0.0
 40
0.806522
100
AcDbArc
 50
39.3540319999996
 51
148.146986
  0
ARC
  5
    82
100
AcDbEntity
  8
L8
 60
     0
100
AcDbCircle
 10
16.2646181619952
 20
37.7648879871006
 30
0.0
 40
0.5
100
AcDbArc
 50
219.354031999999
 51
268.518191000001
  0
ARC
  5
    83
100
AcDbEntity
  8
L8
 60
     0
100
AcDbCircle
 10
17.5989258467946
 20
89.3458826984216
 30
0.0
 40
52.09825
100
AcDbArc
 50
268.518191
 51
271.095294
  0
ARC
  5
    84
100
AcDbEntity
  8
L8
 60
     0
100
AcDbCircle
 10
19.959015803556
 20
68.1824077520209
 30
0.0
 40
30.955331
100
AcDbArc
 50
267.474132
 51
275.693868
  0
LINE
  5
    85
100
AcDbEntity
  8
L8
 60
     0
100
AcDbLine
 10
23.0301948416437
 20
37.379804243565
 30
0.0
 11
25.7533817105791
 21
37.6987002503551
 31
0.0
  0
ARC
  5
    86
100
AcDbEntity
  8
L8
 60
     0
100
AcDbCircle
 10
25.9278457891585
 20
36.2088805374289
 30
0.0
 40
1.5
100
AcDbArc
 50
54.1683440000001
 51
96.6791519999999
  0
ARC
  5
    87
100
AcDbEntity
  8
L8
 60
     0
100
AcDbCircle
 10
29.1475764465001
 20
40.6679533286836
 30
0.0
 40
4.0
100
AcDbArc
 50
234.168344
 51
281.656425
  0
ARC
  5
    88
100
AcDbEntity
  8
L8
 60
     0
100
AcDbCircle
 10
32.4070421135508
 20
24.8680906071744
 30
0.0
 40
12.132569
100
AcDbArc
 50
74.646862
 51
101.656425
  0
ARC
  5
    89
100
AcDbEntity
  8
L8
 60
     0
100
AcDbCircle
 10
34.4127202305353
 20
33.348911686256
 30
0.0
 40
3.4375
100
AcDbArc
 50
359.105933366233
 51
429.45027
  0
ARC
  5
    8A
100
AcDbEntity
  8
L8
 60
     0
100
AcDbCircle
 10
37.749813902324
 20
33.2968340931115
 30
0.0
 40
0.1
100
AcDbArc
 50
263.000000000002
 51
359.105933366233
  0
LINE
  5
    8B
100
AcDbEntity
  8
L8
 60
     0
100
AcDbLine
 10
37.7376269679835
 20
33.1975794779473
 30
0.0
 11
34.1336262407157
 21
33.6400951247387
 31
0.0
  0
ARC
  5
    8C
100
AcDbEntity
  8
L8
 60
     0
100
AcDbCircle
 10
34.1031589048644
 20
33.3919585868283
 30
0.0
 40
0.25
100
AcDbArc
 50
83.0000000000007
 51
173.000000000001
  0
LINE
  5
    8D
100
AcDbEntity
  8
L8
 60
     0
100
AcDbLine
 10
33.8550223669541
 20
33.4224259226796
 30
0.0
 11
33.85380367352
 21
33.4125004611632
 31
0.0
  0
ARC
  5
    8E
100
AcDbEntity
  8
L8
 60
     0
100
AcDbCircle
 10
34.1019402114304
 20
33.3820331253119
 30
0.0
 40
0.25
100
AcDbArc
 50
173.000000000001
 51
263.000000000001
  0
LINE
  5
    8F
100
AcDbEntity
  8
L8
 60
     0
100
AcDbLine
 10
34.0714728755791
 20
33.1338965874016
 30
0.0
 11
37.6754736028469
 21
32.6913809406103
 31
0.0
  0
ARC
  5
    90
100
AcDbEntity
  8
L8
 60
     0
100
AcDbCircle
 10
37.6632866685064
 20
32.5921263254461
 30
0.0
 40
0.1
100
AcDbArc
 50
346.894066633767
 51
443.000000000002
  0
ARC
  5
    91
100
AcDbEntity
  8
L9
 60
     0
100
AcDbCircle
 10
6.31914
 20
23.264859
 30
0.0
 40
3.4375
100
AcDbArc
 50
30.846637
 51
68.8940627042646
  0
ARC
  5
    92
100
AcDbEntity
  8
L9
 60
     0
100
AcDbCircle
 10
6.541589
 20
22.936932
 30
0.0
 40
3.4375
100
AcDbArc
 50
5.82690499999998
 51
37.455065
  0
ARC
  5
    93
100
AcDbEntity
  8
L9
 60
     0
100
AcDbCircle
 10
-2.029533
 20
23.433503
 30
0.0
 40
11.991769
100
AcDbArc
 50
329.698361
 51
359.294835
  0
ARC
  5
    94
100
AcDbEntity
  8
L9
 60
     0
100
AcDbCircle
 10
51.723537
 20
-12.410411
 30
0.0
 40
52.641946
100
AcDbArc
 50
145.530751
 51
146.280904
  0
ARC
  5
    95
100
AcDbEntity
  8
L9
 60
     0
100
AcDbCircle
 10
6.689936
 20
17.644957
 30
0.0
 40
1.5
100
AcDbArc
 50
304.668227
 51
326.280904
  0
ARC
  5
    96
100
AcDbEntity
  8
L9
 60
     0
100
AcDbCircle
 10
12.210842
 20
9.662301
 30
0.0
 40
8.205833
100
AcDbArc
 50
124.668227
 51
134.213578
  0
ARC
  5
    97
100
AcDbEntity
  8
L9
 60
     0
100
AcDbCircle
 10
7.883298
 20
14.110304
 30
0.0
 40
2.0
100
AcDbArc
 50
134.213578
 51
172.732553
  0
ARC
  5
    98
100
AcDbEntity
  8
L9
 60
     0
100
AcDbCircle
 10
58.11841
 20
7.704045
 30
0.0
 40
52.641946
100
AcDbArc
 50
172.732553
 51
176.327855
  0
ARC
  5
    99
100
AcDbEntity
  8
L9
 60
     0
100
AcDbCircle
 10
7.081465
 20
10.979542
 30
0.0
 40
1.5
100
AcDbArc
 50
176.327855
 51
187.851485
  0
ARC
  5
    9A
100
AcDbEntity
  8
L9
 60
     0
100
AcDbCircle
 10
59.146015
 20
18.159166
 30
0.0
 40
54.057249
100
AcDbArc
 50
187.851485
 51
197.134793
  0
ARC
  5
    9B
100
AcDbEntity
  8
L9
 60
     0
100
AcDbCircle
 10
8.443751
 20
2.527403
 30
0.0
 40
1.0
100
AcDbArc
 50
197.134793
 51
270.0
  0
LINE
  5
    9C
100
AcDbEntity
  8
L9
 60
     0
100
AcDbLine
 10
8.443751
 20
1.527403
 30
0.0
 11
8.69795
 21
1.527403
 31
0.0
  0
ARC
  5
    9D
100
AcDbEntity
  8
L9
 60
     0
100
AcDbCircle
 10
8.69795
 20
0.527403
 30
0.0
 40
1.0
100
AcDbArc
 50
3.822554
 51
90.0
  0
ARC
  5
    9E
100
AcDbEntity
  8
L9
 60
     0
100
AcDbCircle
 10
9.446282
 20
0.577403
 30
0.0
 40
0.25
100
AcDbArc
 50
270.0
 51
363.822554
  0
LINE
  5
    9F
100
AcDbEntity
  8
L9
 60
     0
100
AcDbLine
 10
9.446282
 20
0.327403
 30
0.0
 11
6.692758
 21
0.327403
 31
0.0
  0
ARC
  5
    A0
100
AcDbEntity
  8
L9
 60
     0
100
AcDbCircle
 10
6.692758
 20
0.827403
 30
0.0
 40
0.5
100
AcDbArc
 50
194.422796
 51
270.0
  0
LINE
  5
    A1
100
AcDbEntity
  8
L9
 60
     0
100
AcDbLine
 10
6.208516
 20
0.702865
 30
0.0
 11
5.942637
 21
1.736687
 31
0.0
  0
ARC
  5
    A2
100
AcDbEntity
  8
L9
 60
     0
100
AcDbCircle
 10
6.426879
 20
1.861225
 30
0.0
 40
0.5
100
AcDbArc
 50
166.783138
 51
194.422796
  0
ARC
  5
    A3
100
AcDbEntity
  8
L9
 60
     0
100
AcDbCircle
 10
5.453367
 20
2.089862
 30
0.0
 40
0.5
100
AcDbArc
 50
346.783138
 51
435.146986
  0
ARC
  5
    A4
100
AcDbEntity
  8
L9
 60
     0
100
AcDbCircle
 10
5.788281
 20
3.352729
 30
0.0
 40
0.806522
100
AcDbArc
 50
158.383363
 51
255.146986
  0
ARC
  5
    A5
100
AcDbEntity
  8
L9
 60
     0
100
AcDbCircle
 10
4.108813
 20
4.018242
 30
0.0
 40
1.0
100
AcDbArc
 50
338.383363
 51
371.50187
  0
ARC
  5
    A6
100
AcDbEntity
  8
L9
 60
     0
100
AcDbCircle
 10
-25.244961
 20
-1.954848
 30
0.0
 40
30.955331
100
AcDbArc
 50
11.50187
 51
24.693868
  0
LINE
  5
    A7
100
AcDbEntity
  8
L9
 60
     0
100
AcDbLine
 10
2.879594
 20
10.977355
 30
0.0
 11
1.965641
 21
12.878179
 31
0.0
  0
ARC
  5
    A8
100
AcDbEntity
  8
L9
 60
     0
100
AcDbCircle
 10
0.613789
 20
12.228182
 30
0.0
 40
1.5
100
AcDbArc
 50
25.679152
 51
59.911327
  0
ARC
  5
    A9
100
AcDbEntity
  8
L9
 60
     0
100
AcDbCircle
 10
2.21405
 20
14.990036
 30
0.0
 40
1.69197
100
AcDbArc
 50
132.419391
 51
239.911327
  0
ARC
  5
    AA
100
AcDbEntity
  8
L9
 60
     0
100
AcDbCircle
 10
-0.276376
 20
17.715548
 30
0.0
 40
2.0
100
AcDbArc
 50
312.419391
 51
366.151846
  0
ARC
  5
    AB
100
AcDbEntity
  8
L9
 60
     0
100
AcDbCircle
 10
13.774809
 20
19.230047
 30
0.0
 40
12.132569
100
AcDbArc
 50
151.646862
 51
186.151846
  0
ARC
  5
    AC
100
AcDbEntity
  8
L9
 60
     0
100
AcDbCircle
 10
5.96253
 20
23.09209
 30
0.0
 40
3.4375
100
AcDbArc
 50
112.544935
 51
146.45027
  0
ARC
  5
    AD
100
AcDbEntity
  8
L9
 60
     0
100
AcDbCircle
 10
6.31914
 20
23.264859
 30
0.0
 40
3.4375
100
AcDbArc
 50
81.1059240208141
 51
119.153363
  0
ARC
  5
    AE
100
AcDbEntity
  8
L9
 60
     0
100
AcDbCircle
 10
6.83514498991344
 20
26.5622284212788
 30
0.0
 40
0.1
100
AcDbArc
 50
344.999987528953
 51
441.105924020814
  0
LINE
  5
    AF
100
AcDbEntity
  8
L9
 60
     0
100
AcDbLine
 10
6.93173756690887
 20
26.5363464957441
 30
0.0
 11
5.99194781995753
 21
23.0290064653318
 31
0.0
  0
ARC
  5
    B0
100
AcDbEntity
  8
L9
 60
     0
100
AcDbCircle
 10
6.2334292624461
 20
22.9643016514952
 30
0.0
 40
0.25
100
AcDbArc
 50
164.999987528953
 51
254.999992948928
  0
LINE
  5
    B1
100
AcDbEntity
  8
L9
 60
     0
100
AcDbLine
 10
6.16872447145269
 20
22.7228202028858
 30
0.0
 11
6.17838450029557
 21
22.7202318046843
 31
0.0
  0
ARC
  5
    B2
100
AcDbEntity
  8
L9
 60
     0
100
AcDbCircle
 10
6.24308929128898
 20
22.9617132532937
 30
0.0
 40
0.25
100
AcDbArc
 50
254.999992948927
 51
345.000005072131
  0
LINE
  5
    B3
100
AcDbEntity
  8
L9
 60
     0
100
AcDbLine
 10
6.48457075358926
 20
22.8970085133953
 30
0.0
 11
7.42435941736994
 21
26.4043487969565
 31
0.0
  0
ARC
  5
    B4
100
AcDbEntity
  8
L9
 60
     0
100
AcDbCircle
 10
7.52095200229005
 20
26.3784669009971
 30
0.0
 40
0.1
100
AcDbArc
 50
68.8940627042641
 51
165.00000507213
  0
ARC
  5
    B5
100
AcDbEntity
  8
L9
 60
     0
100
AcDbCircle
 10
14.94414
 20
23.264859
 30
0.0
 40
3.4375
100
AcDbArc
 50
30.846637
 51
68.8946441999809
  0
ARC
  5
    B6
100
AcDbEntity
  8
L9
 60
     0
100
AcDbCircle
 10
15.166589
 20
22.936932
 30
0.0
 40
3.4375
100
AcDbArc
 50
5.82690499999998
 51
37.4550650000001
  0
ARC
  5
    B7
100
AcDbEntity
  8
L9
 60
     0
100
AcDbCircle
 10
6.595467
 20
23.433503
 30
0.0
 40
11.991769
100
AcDbArc
 50
329.698361
 51
359.294835
  0
ARC
  5
    B8
100
AcDbEntity
  8
L9
 60
     0
100
AcDbCircle
 10
60.348537
 20
-12.410411
 30
0.0
 40
52.641946
100
AcDbArc
 50
145.530751
 51
146.280904
  0
ARC
  5
    B9
100
AcDbEntity
  8
L9
 60
     0
100
AcDbCircle
 10
15.314936
 20
17.644957
 30
0.0
 40
1.5
100
AcDbArc
 50
304.668227
 51
326.280904
  0
ARC
  5
    BA
100
AcDbEntity
  8
L9
 60
     0
100
AcDbCircle
 10
20.835842
 20
9.662301
 30
0.0
 40
8.205833
100
AcDbArc
 50
124.668227
 51
134.213578
  0
ARC
  5
    BB
100
AcDbEntity
  8
L9
 60
     0
100
AcDbCircle
 10
16.508298
 20
14.110304
 30
0.0
 40
2.0
100
AcDbArc
 50
134.213578
 51
172.732553
  0
ARC
  5
    BC
100
AcDbEntity
  8
L9
 60
     0
100
AcDbCircle
 10
66.74341
 20
7.704045
 30
0.0
 40
52.641946
100
AcDbArc
 50
172.732553
 51
176.327855
  0
ARC
  5
    BD
100
AcDbEntity
  8
L9
 60
     0
100
AcDbCircle
 10
15.706465
 20
10.979542
 30
0.0
 40
1.5
100
AcDbArc
 50
176.327855
 51
187.851485
  0
ARC
  5
    BE
100
AcDbEntity
  8
L9
 60
     0
100
AcDbCircle
 10
67.771015
 20
18.159166
 30
0.0
 40
54.057249
100
AcDbArc
 50
187.851485
 51
197.134793
  0
ARC
  5
    BF
100
AcDbEntity
  8
L9
 60
     0
100
AcDbCircle
 10
17.068751
 20
2.527403
 30
0.0
 40
1.0
100
AcDbArc
 50
197.134793
 51
270.0
  0
LINE
  5
    C0
100
AcDbEntity
  8
L9
 60
     0
100
AcDbLine
 10
17.068751
 20
1.527403
 30
0.0
 11
17.32295
 21
1.527403
 31
0.0
  0
ARC
  5
    C1
100
AcDbEntity
  8
L9
 60
     0
100
AcDbCircle
 10
17.32295
 20
0.527403
 30
0.0
 40
1.0
100
AcDbArc
 50
3.822554
 51
90.0
  0
ARC
  5
    C2
100
AcDbEntity
  8
L9
 60
     0
100
AcDbCircle
 10
18.071282
 20
0.577403
 30
0.0
 40
0.25
100
AcDbArc
 50
270.0
 51
363.822554
  0
LINE
  5
    C3
100
AcDbEntity
  8
L9
 60
     0
100
AcDbLine
 10
18.071282
 20
0.327403
 30
0.0
 11
15.317758
 21
0.327403
 31
0.0
  0
ARC
  5
    C4
100
AcDbEntity
  8
L9
 60
     0
100
AcDbCircle
 10
15.317758
 20
0.827403
 30
0.0
 40
0.5
100
AcDbArc
 50
194.422796
 51
270.0
  0
LINE
  5
    C5
100
AcDbEntity
  8
L9
 60
     0
100
AcDbLine
 10
14.833516
 20
0.702865
 30
0.0
 11
14.567637
 21
1.736687
 31
0.0
  0
ARC
  5
    C6
100
AcDbEntity
  8
L9
 60
     0
100
AcDbCircle
 10
15.051879
 20
1.861225
 30
0.0
 40
0.5
100
AcDbArc
 50
166.783138
 51
194.422796
  0
ARC
  5
    C7
100
AcDbEntity
  8
L9
 60
     0
100
AcDbCircle
 10
14.078367
 20
2.089862
 30
0.0
 40
0.5
100
AcDbArc
 50
346.783138
 51
435.146986
  0
ARC
  5
    C8
100
AcDbEntity
  8
L9
 60
     0
100
AcDbCircle
 10
14.413281
 20
3.352729
 30
0.0
 40
0.806522
100
AcDbArc
 50
158.383363
 51
255.146986
  0
ARC
  5
    C9
100
AcDbEntity
  8
L9
 60
     0
100
AcDbCircle
 10
12.733813
 20
4.018242
 30
0.0
 40
1.0
100
AcDbArc
 50
338.383363
 51
371.50187
  0
ARC
  5
    CA
100
AcDbEntity
  8
L9
 60
     0
100
AcDbCircle
 10
-16.619961
 20
-1.954848
 30
0.0
 40
30.955331
100
AcDbArc
 50
11.50187
 51
24.693868
  0
LINE
  5
    CB
100
AcDbEntity
  8
L9
 60
     0
100
AcDbLine
 10
11.504594
 20
10.977355
 30
0.0
 11
10.590641
 21
12.878179
 31
0.0
  0
ARC
  5
    CC
100
AcDbEntity
  8
L9
 60
     0
100
AcDbCircle
 10
9.238789
 20
12.228182
 30
0.0
 40
1.5
100
AcDbArc
 50
25.679152
 51
59.911327
  0
ARC
  5
    CD
100
AcDbEntity
  8
L9
 60
     0
100
AcDbCircle
 10
10.83905
 20
14.990036
 30
0.0
 40
1.69197
100
AcDbArc
 50
132.419391
 51
239.911327
  0
ARC
  5
    CE
100
AcDbEntity
  8
L9
 60
     0
100
AcDbCircle
 10
8.348624
 20
17.715548
 30
0.0
 40
2.0
100
AcDbArc
 50
312.419391
 51
366.151846
  0
ARC
  5
    CF
100
AcDbEntity
  8
L9
 60
     0
100
AcDbCircle
 10
22.399809
 20
19.230047
 30
0.0
 40
12.132569
100
AcDbArc
 50
151.646862
 51
186.151846
  0
ARC
  5
    D0
100
AcDbEntity
  8
L9
 60
     0
100
AcDbCircle
 10
14.58753
 20
23.09209
 30
0.0
 40
3.4375
100
AcDbArc
 50
112.544935
 51
146.45027
  0
ARC
  5
    D1
100
AcDbEntity
  8
L9
 60
     0
100
AcDbCircle
 10
14.94414
 20
23.264859
 30
0.0
 40
3.4375
100
AcDbArc
 50
81.1065054667574
 51
119.153363
  0
ARC
  5
    D2
100
AcDbEntity
  8
L9
 60
     0
100
AcDbCircle
 10
15.4601115277001
 20
26.562233657603
 30
0.0
 40
0.1
100
AcDbArc
 50
344.999987528953
 51
441.106505466758
  0
LINE
  5
    D3
100
AcDbEntity
  8
L9
 60
     0
100
AcDbLine
 10
15.5567041046956
 20
26.5363517320684
 30
0.0
 11
14.6144478199575
 21
23.0198064653318
 31
0.0
  0
ARC
  5
    D4
100
AcDbEntity
  8
L9
 60
     0
100
AcDbCircle
 10
14.8559292624461
 20
22.9551016514952
 30
0.0
 40
0.25
100
AcDbArc
 50
164.999987528953
 51
254.999992948928
  0
LINE
  5
    D5
100
AcDbEntity
  8
L9
 60
     0
100
AcDbLine
 10
14.7912244714527
 20
22.7136202028858
 30
0.0
 11
14.8008845002956
 21
22.7110318046843
 31
0.0
  0
ARC
  5
    D6
100
AcDbEntity
  8
L9
 60
     0
100
AcDbCircle
 10
14.865589291289
 20
22.9525132532937
 30
0.0
 40
0.25
100
AcDbArc
 50
254.999992948928
 51
345.000005072131
  0
LINE
  5
    D7
100
AcDbEntity
  8
L9
 60
     0
100
AcDbLine
 10
15.1070707535893
 20
22.8878085133953
 30
0.0
 11
16.0493278172553
 21
26.4043609940039
 31
0.0
  0
ARC
  5
    D8
100
AcDbEntity
  8
L9
 60
     0
100
AcDbCircle
 10
16.1459204021754
 20
26.3784790980446
 30
0.0
 40
0.1
100
AcDbArc
 50
68.8946441999803
 51
165.00000507213
  0
ARC
  5
    D9
100
AcDbEntity
  8
L9
 60
     0
100
AcDbCircle
 10
23.56914
 20
23.264859
 30
0.0
 40
3.4375
100
AcDbArc
 50
30.846637
 51
68.8940627042646
  0
ARC
  5
    DA
100
AcDbEntity
  8
L9
 60
     0
100
AcDbCircle
 10
23.791589
 20
22.936932
 30
0.0
 40
3.4375
100
AcDbArc
 50
5.82690499999998
 51
37.4550650000001
  0
ARC
  5
    DB
100
AcDbEntity
  8
L9
 60
     0
100
AcDbCircle
 10
15.220467
 20
23.433503
 30
0.0
 40
11.991769
100
AcDbArc
 50
329.698361
 51
359.294835
  0
ARC
  5
    DC
100
AcDbEntity
  8
L9
 60
     0
100
AcDbCircle
 10
68.973537
 20
-12.410411
 30
0.0
 40
52.641946
100
AcDbArc
 50
145.530751
 51
146.280904
  0
ARC
  5
    DD
100
AcDbEntity
  8
L9
 60
     0
100
AcDbCircle
 10
23.939936
 20
17.644957
 30
0.0
 40
1.5
100
AcDbArc
 50
304.668227
 51
326.280904
  0
ARC
  5
    DE
100
AcDbEntity
  8
L9
 60
     0
100
AcDbCircle
 10
29.460842
 20
9.662301
 30
0.0
 40
8.205833
100
AcDbArc
 50
124.668227
 51
134.213578
  0
ARC
  5
    DF
100
AcDbEntity
  8
L9
 60
     0
100
AcDbCircle
 10
25.133298
 20
14.110304
 30
0.0
 40
2.0
100
AcDbArc
 50
134.213578
 51
172.732553
  0
ARC
  5
    E0
100
AcDbEntity
  8
L9
 60
     0
100
AcDbCircle
 10
75.36841
 20
7.704045
 30
0.0
 40
52.641946
100
AcDbArc
 50
172.732553
 51
176.327855
  0
ARC
  5
    E1
100
AcDbEntity
  8
L9
 60
     0
100
AcDbCircle
 10
24.331465
 20
10.979542
 30
0.0
 40
1.5
100
AcDbArc
 50
176.327855
 51
187.851485
  0
ARC
  5
    E2
100
AcDbEntity
  8
L9
 60
     0
100
AcDbCircle
 10
76.396015
 20
18.159166
 30
0.0
 40
54.057249
100
AcDbArc
 50
187.851485
 51
197.134793
  0
ARC
  5
    E3
100
AcDbEntity
  8
L9
 60
     0
100
AcDbCircle
 10
25.693751
 20
2.527403
 30
0.0
 40
1.0
100
AcDbArc
 50
197.134793
 51
270.0
  0
LINE
  5
    E4
100
AcDbEntity
  8
L9
 60
     0
100
AcDbLine
 10
25.693751
 20
1.527403
 30
0.0
 11
25.94795
 21
1.527403
 31
0.0
  0
ARC
  5
    E5
100
AcDbEntity
  8
L9
 60
     0
100
AcDbCircle
 10
25.94795
 20
0.527403
 30
0.0
 40
1.0
100
AcDbArc
 50
3.822554
 51
90.0
  0
ARC
  5
    E6
100
AcDbEntity
  8
L9
 60
     0
100
AcDbCircle
 10
26.696282
 20
0.577403
 30
0.0
 40
0.25
100
AcDbArc
 50
270.0
 51
363.822554
  0
LINE
  5
    E7
100
AcDbEntity
  8
L9
 60
     0
100
AcDbLine
 10
26.696282
 20
0.327403
 30
0.0
 11
23.942758
 21
0.327403
 31
0.0
  0
ARC
  5
    E8
100
AcDbEntity
  8
L9
 60
     0
100
AcDbCircle
 10
23.942758
 20
0.827403
 30
0.0
 40
0.5
100
AcDbArc
 50
194.422796
 51
270.0
  0
LINE
  5
    E9
100
AcDbEntity
  8
L9
 60
     0
100
AcDbLine
 10
23.458516
 20
0.702865
 30
0.0
 11
23.192637
 21
1.736687
 31
0.0
  0
ARC
  5
    EA
100
AcDbEntity
  8
L9
 60
     0
100
AcDbCircle
 10
23.676879
 20
1.861225
 30
0.0
 40
0.5
100
AcDbArc
 50
166.783138
 51
194.422796
  0
ARC
  5
    EB
100
AcDbEntity
  8
L9
 60
     0
100
AcDbCircle
 10
22.703367
 20
2.089862
 30
0.0
 40
0.5
100
AcDbArc
 50
346.783138
 51
435.146986
  0
ARC
  5
    EC
100
AcDbEntity
  8
L9
 60
     0
100
AcDbCircle
 10
23.038281
 20
3.352729
 30
0.0
 40
0.806522
100
AcDbArc
 50
158.383363
 51
255.146986
  0
ARC
  5
    ED
100
AcDbEntity
  8
L9
 60
     0
100
AcDbCircle
 10
21.358813
 20
4.018242
 30
0.0
 40
1.0
100
AcDbArc
 50
338.383363
 51
371.50187
  0
ARC
  5
    EE
100
AcDbEntity
  8
L9
 60
     0
100
AcDbCircle
 10
-7.994961
 20
-1.954848
 30
0.0
 40
30.955331
100
AcDbArc
 50
11.50187
 51
24.693868
  0
LINE
  5
    EF
100
AcDbEntity
  8
L9
 60
     0
100
AcDbLine
 10
20.129594
 20
10.977355
 30
0.0
 11
19.215641
 21
12.878179
 31
0.0
  0
ARC
  5
    F0
100
AcDbEntity
  8
L9
 60
     0
100
AcDbCircle
 10
17.863789
 20
12.228182
 30
0.0
 40
1.5
100
AcDbArc
 50
25.679152
 51
59.911327
  0
ARC
  5
    F1
100
AcDbEntity
  8
L9
 60
     0
100
AcDbCircle
 10
19.46405
 20
14.990036
 30
0.0
 40
1.69197
100
AcDbArc
 50
132.419391
 51
239.911327
  0
ARC
  5
    F2
100
AcDbEntity
  8
L9
 60
     0
100
AcDbCircle
 10
16.973624
 20
17.715548
 30
0.0
 40
2.0
100
AcDbArc
 50
312.419391
 51
366.151846
  0
ARC
  5
    F3
100
AcDbEntity
  8
L9
 60
     0
100
AcDbCircle
 10
31.024809
 20
19.230047
 30
0.0
 40
12.132569
100
AcDbArc
 50
151.646862
 51
186.151846
  0
ARC
  5
    F4
100
AcDbEntity
  8
L9
 60
     0
100
AcDbCircle
 10
23.21253
 20
23.09209
 30
0.0
 40
3.4375
100
AcDbArc
 50
112.544935
 51
146.45027
  0
ARC
  5
    F5
100
AcDbEntity
  8
L9
 60
     0
100
AcDbCircle
 10
23.56914
 20
23.264859
 30
0.0
 40
3.4375
100
AcDbArc
 50
81.1059240208141
 51
119.153363
  0
ARC
  5
    F6
100
AcDbEntity
  8
L9
 60
     0
100
AcDbCircle
 10
24.0851449899134
 20
26.5622284212788
 30
0.0
 40
0.1
100
AcDbArc
 50
344.999987528953
 51
441.105924020813
  0
LINE
  5
    F7
100
AcDbEntity
  8
L9
 60
     0
100
AcDbLine
 10
24.1817375669089
 20
26.5363464957441
 30
0.0
 11
23.2419478199575
 21
23.0290064653318
 31
0.0
  0
ARC
  5
    F8
100
AcDbEntity
  8
L9
 60
     0
100
AcDbCircle
 10
23.4834292624461
 20
22.9643016514952
 30
0.0
 40
0.25
100
AcDbArc
 50
164.999987528953
 51
254.999992948928
  0
LINE
  5
    F9
100
AcDbEntity
  8
L9
 60
     0
100
AcDbLine
 10
23.4187244714527
 20
22.7228202028858
 30
0.0
 11
23.4283845002956
 21
22.7202318046843
 31
0.0
  0
ARC
  5
    FA
100
AcDbEntity
  8
L9
 60
     0
100
AcDbCircle
 10
23.493089291289
 20
22.9617132532937
 30
0.0
 40
0.25
100
AcDbArc
 50
254.999992948928
 51
345.00000507213
  0
LINE
  5
    FB
100
AcDbEntity
  8
L9
 60
     0
100
AcDbLine
 10
23.7345707535893
 20
22.8970085133953
 30
0.0
 11
24.6743594173699
 21
26.4043487969565
 31
0.0
  0
ARC
  5
    FC
100
AcDbEntity
  8
L9
 60
     0
100
AcDbCircle
 10
24.7709520022901
 20
26.3784669009971
 30
0.0
 40
0.1
100
AcDbArc
 50
68.894062704265
 51
165.00000507213
  0
ARC
  5
    FD
100
AcDbEntity
  8
L9
 60
     0
100
AcDbCircle
 10
33.8959204021754
 20
28.3784790980446
 30
0.0
 40
0.1
100
AcDbArc
 50
68.8946441999803
 51
165.00000507213
  0
ARC
  5
    FE
100
AcDbEntity
  8
L9
 60
     0
100
AcDbCircle
 10
32.69414
 20
25.264859
 30
0.0
 40
3.4375
100
AcDbArc
 50
30.8466370000001
 51
68.8946441999809
  0
ARC
  5
    FF
100
AcDbEntity
  8
L9
 60
     0
100
AcDbCircle
 10
32.916589
 20
24.936932
 30
0.0
 40
3.4375
100
AcDbArc
 50
5.82690499999998
 51
37.4550650000001
  0
ARC
  5
   100
100
AcDbEntity
  8
L9
 60
     0
100
AcDbCircle
 10
24.345467
 20
25.433503
 30
0.0
 40
11.991769
100
AcDbArc
 50
329.698361
 51
359.294835
  0
ARC
  5
   101
100
AcDbEntity
  8
L9
 60
     0
100
AcDbCircle
 10
78.098537
 20
-10.410411
 30
0.0
 40
52.641946
100
AcDbArc
 50
145.530751
 51
146.280904
  0
ARC
  5
   102
100
AcDbEntity
  8
L9
 60
     0
100
AcDbCircle
 10
33.064936
 20
19.644957
 30
0.0
 40
1.5
100
AcDbArc
 50
304.668227
 51
326.280904
  0
ARC
  5
   103
100
AcDbEntity
  8
L9
 60
     0
100
AcDbCircle
 10
38.585842
 20
11.662301
 30
0.0
 40
8.205833
100
AcDbArc
 50
124.668227
 51
134.213578
  0
ARC
  5
   104
100
AcDbEntity
  8
L9
 60
     0
100
AcDbCircle
 10
34.258298
 20
16.110304
 30
0.0
 40
2.0
100
AcDbArc
 50
134.213578
 51
172.732553
  0
ARC
  5
   105
100
AcDbEntity
  8
L9
 60
     0
100
AcDbCircle
 10
84.49341
 20
9.704045
 30
0.0
 40
52.641946
100
AcDbArc
 50
172.732553
 51
176.327855
  0
ARC
  5
   106
100
AcDbEntity
  8
L9
 60
     0
100
AcDbCircle
 10
33.456465
 20
12.979542
 30
0.0
 40
1.5
100
AcDbArc
 50
176.327855
 51
187.851485
  0
ARC
  5
   107
100
AcDbEntity
  8
L9
 60
     0
100
AcDbCircle
 10
85.521015
 20
20.159166
 30
0.0
 40
54.057249
100
AcDbArc
 50
187.851485
 51
197.134793
  0
ARC
  5
   108
100
AcDbEntity
  8
L9
 60
     0
100
AcDbCircle
 10
34.818751
 20
4.527403
 30
0.0
 40
1.0
100
AcDbArc
 50
197.134793
 51
270.0
  0
LINE
  5
   109
100
AcDbEntity
  8
L9
 60
     0
100
AcDbLine
 10
34.818751
 20
3.527403
 30
0.0
 11
35.07295
 21
3.527403
 31
0.0
  0
ARC
  5
   10A
100
AcDbEntity
  8
L9
 60
     0
100
AcDbCircle
 10
35.07295
 20
2.527403
 30
0.0
 40
1.0
100
AcDbArc
 50
3.822554
 51
90.0
  0
ARC
  5
   10B
100
AcDbEntity
  8
L9
 60
     0
100
AcDbCircle
 10
35.821282
 20
2.577403
 30
0.0
 40
0.25
100
AcDbArc
 50
270.0
 51
363.822554
  0
LINE
  5
   10C
100
AcDbEntity
  8
L9
 60
     0
100
AcDbLine
 10
35.821282
 20
2.327403
 30
0.0
 11
33.067758
 21
2.327403
 31
0.0
  0
ARC
  5
   10D
100
AcDbEntity
  8
L9
 60
     0
100
AcDbCircle
 10
33.067758
 20
2.827403
 30
0.0
 40
0.5
100
AcDbArc
 50
194.422796
 51
270.0
  0
LINE
  5
   10E
100
AcDbEntity
  8
L9
 60
     0
100
AcDbLine
 10
32.583516
 20
2.702865
 30
0.0
 11
32.317637
 21
3.736687
 31
0.0
  0
ARC
  5
   10F
100
AcDbEntity
  8
L9
 60
     0
100
AcDbCircle
 10
32.801879
 20
3.861225
 30
0.0
 40
0.5
100
AcDbArc
 50
166.783138
 51
194.422796
  0
ARC
  5
   110
100
AcDbEntity
  8
L9
 60
     0
100
AcDbCircle
 10
31.828367
 20
4.089862
 30
0.0
 40
0.5
100
AcDbArc
 50
346.783138
 51
435.146986
  0
ARC
  5
   111
100
AcDbEntity
  8
L9
 60
     0
100
AcDbCircle
 10
32.163281
 20
5.352729
 30
0.0
 40
0.806522
100
AcDbArc
 50
158.383363
 51
255.146986
  0
ARC
  5
   112
100
AcDbEntity
  8
L9
 60
     0
100
AcDbCircle
 10
30.483813
 20
6.018242
 30
0.0
 40
1.0
100
AcDbArc
 50
338.383363
 51
371.50187
  0
ARC
  5
   113
100
AcDbEntity
  8
L9
 60
     0
100
AcDbCircle
 10
1.130039
 20
4.51520000000001E-2
 30
0.0
 40
30.955331
100
AcDbArc
 50
11.50187
 51
24.693868
  0
LINE
  5
   114
100
AcDbEntity
  8
L9
 60
     0
100
AcDbLine
 10
29.254594
 20
12.977355
 30
0.0
 11
28.340641
 21
14.878179
 31
0.0
  0
ARC
  5
   115
100
AcDbEntity
  8
L9
 60
     0
100
AcDbCircle
 10
26.988789
 20
14.228182
 30
0.0
 40
1.5
100
AcDbArc
 50
25.6791519999999
 51
59.911327
  0
ARC
  5
   116
100
AcDbEntity
  8
L9
 60
     0
100
AcDbCircle
 10
28.58905
 20
16.990036
 30
0.0
 40
1.69197
100
AcDbArc
 50
132.419391
 51
239.911327
  0
ARC
  5
   117
100
AcDbEntity
  8
L9
 60
     0
100
AcDbCircle
 10
26.098624
 20
19.715548
 30
0.0
 40
2.0
100
AcDbArc
 50
312.419391
 51
366.151846
  0
ARC
  5
   118
100
AcDbEntity
  8
L9
 60
     0
100
AcDbCircle
 10
40.149809
 20
21.230047
 30
0.0
 40
12.132569
100
AcDbArc
 50
151.646862
 51
186.151846
  0
ARC
  5
   119
100
AcDbEntity
  8
L9
 60
     0
100
AcDbCircle
 10
32.33753
 20
25.09209
 30
0.0
 40
3.4375
100
AcDbArc
 50
112.544935
 51
146.45027
  0
ARC
  5
   11A
100
AcDbEntity
  8
L9
 60
     0
100
AcDbCircle
 10
32.69414
 20
25.264859
 30
0.0
 40
3.4375
100
AcDbArc
 50
81.1065054667574
 51
119.153363
  0
ARC
  5
   11B
100
AcDbEntity
  8
L9
 60
     0
100
AcDbCircle
 10
33.2101115277001
 20
28.562233657603
 30
0.0
 40
0.1
100
AcDbArc
 50
344.999987528953
 51
441.106505466759
  0
LINE
  5
   11C
100
AcDbEntity
  8
L9
 60
     0
100
AcDbLine
 10
33.3067041046956
 20
28.5363517320684
 30
0.0
 11
32.3644478199575
 21
25.0198064653318
 31
0.0
  0
ARC
  5
   11D
100
AcDbEntity
  8
L9
 60
     0
100
AcDbCircle
 10
32.6059292624461
 20
24.9551016514952
 30
0.0
 40
0.25
100
AcDbArc
 50
164.999987528953
 51
254.999992948927
  0
LINE
  5
   11E
100
AcDbEntity
  8
L9
 60
     0
100
AcDbLine
 10
32.5412244714527
 20
24.7136202028858
 30
0.0
 11
32.5508845002956
 21
24.7110318046843
 31
0.0
  0
ARC
  5
   11F
100
AcDbEntity
  8
L9
 60
     0
100
AcDbCircle
 10
32.615589291289
 20
24.9525132532937
 30
0.0
 40
0.25
100
AcDbArc
 50
254.999992948927
 51
345.00000507213
  0
LINE
  5
   120
100
AcDbEntity
  8
L9
 60
     0
100
AcDbLine
 10
32.8570707535893
 20
24.8878085133953
 30
0.0
 11
33.7993278172553
 21
28.404360994004
 31
0.0
  0
LINE
  5
   121
100
AcDbEntity
  8
L15
 60
     0
100
AcDbLine
 10
61.4948197832909
 20
37.0005160694728
 30
0.0
 11
61.7511658594418
 21
37.0012590385402
 31
0.0
  0
ARC
  5
   122
100
AcDbEntity
  8
L15
 60
     0
100
AcDbCircle
 10
61.7640482376377
 20
37.1004257985249
 30
0.0
 40
0.1
100
AcDbArc
 50
262.598428395439
 51
359.940275068178
  0
LINE
  5
   123
100
AcDbEntity
  8
L15
 60
     0
100
AcDbLine
 10
61.8640481833081
 20
37.1003215588732
 30
0.0
 11
61.865797380589
 21
38.7783742976994
 31
0.0
  0
ARC
  5
   124
100
AcDbEntity
  8
L15
 60
     0
100
AcDbCircle
 10
62.4657976825721
 20
38.7777486515431
 30
0.0
 40
0.6
100
AcDbArc
 50
82.7845155456197
 51
179.940260000001
  0
ARC
  5
   125
100
AcDbEntity
  8
L15
 60
     0
100
AcDbCircle
 10
62.5537186294318
 20
39.4722052067741
 30
0.0
 40
0.1
100
AcDbArc
 50
262.784515545623
 51
360.964159278696
  0
LINE
  5
   126
100
AcDbEntity
  8
L15
 60
     0
100
AcDbLine
 10
62.6537044711008
 20
39.4738879027484
 30
0.0
 11
62.6272207798487
 21
41.0475495747198
 31
0.0
  0
LINE
  5
   127
100
AcDbEntity
  8
L15
 60
     0
100
AcDbLine
 10
62.6272207798487
 20
41.0475495747198
 30
0.0
 11
62.6556368597522
 21
41.24037387177
 31
0.0
  0
ARC
  5
   128
100
AcDbEntity
  8
L15
 60
     0
100
AcDbCircle
 10
63.227135941595
 20
41.0576460756965
 30
0.0
 40
0.6
100
AcDbArc
 50
70.7763023538254
 51
162.269132
  0
ARC
  5
   129
100
AcDbEntity
  8
L15
 60
     0
100
AcDbCircle
 10
63.4576159917501
 20
41.7186142644019
 30
0.0
 40
0.1
100
AcDbArc
 50
250.776302353824
 51
319.657790707586
  0
LINE
  5
   12A
100
AcDbEntity
  8
L15
 60
     0
100
AcDbLine
 10
63.5338351555993
 20
41.6538791189078
 30
0.0
 11
63.9933143412346
 21
42.1948699372329
 31
0.0
  0
ARC
  5
   12B
100
AcDbEntity
  8
L15
 60
     0
100
AcDbCircle
 10
67.0420800503724
 20
39.6054638564326
 30
0.0
 40
4.0
100
AcDbArc
 50
102.136666999999
 51
139.657775
  0
LINE
  5
   12C
100
AcDbEntity
  8
L15
 60
     0
100
AcDbLine
 10
66.2011026629555
 20
43.5160593799025
 30
0.0
 11
68.3399945669171
 21
43.9760291990005
 31
0.0
  0
ARC
  5
   12D
100
AcDbEntity
  8
L15
 60
     0
100
AcDbCircle
 10
68.3610189588336
 20
43.878264302721
 30
0.0
 40
0.1
100
AcDbArc
 50
26.6373527608122
 51
102.13664690928
  0
LINE
  5
   12E
100
AcDbEntity
  8
L15
 60
     0
100
AcDbLine
 10
68.4504051728201
 20
43.9230984944631
 30
0.0
 11
70.2059520156134
 21
40.4230535587573
 31
0.0
  0
ARC
  5
   12F
100
AcDbEntity
  8
L15
 60
     0
100
AcDbCircle
 10
70.4294178960298
 20
40.535138647229
 30
0.0
 40
0.25
100
AcDbArc
 50
206.637348999999
 51
301.427841999996
  0
LINE
  5
   130
100
AcDbEntity
  8
L15
 60
     0
100
AcDbLine
 10
70.5597737751551
 20
40.3218141806635
 30
0.0
 11
70.5683367641318
 21
40.3270464223232
 31
0.0
  0
ARC
  5
   131
100
AcDbEntity
  8
L15
 60
     0
100
AcDbCircle
 10
70.4379798851588
 20
40.5403708714363
 30
0.0
 40
0.25
100
AcDbArc
 50
301.427842000002
 51
386.637349
  0
LINE
  5
   132
100
AcDbEntity
  8
L15
 60
     0
100
AcDbLine
 10
70.6614457481228
 20
40.6524569597558
 30
0.0
 11
68.8942308738687
 21
44.1757654601862
 31
0.0
  0
ARC
  5
   133
100
AcDbEntity
  8
L15
 60
     0
100
AcDbCircle
 10
68.9836170926284
 20
44.2205996424119
 30
0.0
 40
0.1
100
AcDbArc
 50
120.47711364519
 51
206.637346660886
  0
ARC
  5
   134
100
AcDbEntity
  8
L15
 60
     0
100
AcDbCircle
 10
79.613553405276
 20
26.1580542133152
 30
0.0
 40
21.058318
100
AcDbArc
 50
64.184784894653
 51
120.477113645194
  0
ARC
  5
   135
100
AcDbEntity
  8
L15
 60
     0
100
AcDbCircle
 10
88.7402756445732
 20
45.0247983562733
 30
0.0
 40
0.1
100
AcDbArc
 50
342.298590216743
 51
424.184784894645
  0
LINE
  5
   136
100
AcDbEntity
  8
L15
 60
     0
100
AcDbLine
 10
88.8355410445855
 20
44.9943927061321
 30
0.0
 11
87.6456381859396
 21
41.2662510193636
 31
0.0
  0
ARC
  5
   137
100
AcDbEntity
  8
L15
 60
     0
100
AcDbCircle
 10
87.8838016859702
 20
41.1902368940107
 30
0.0
 40
0.25
100
AcDbArc
 50
162.298590216743
 51
252.298712786571
  0
LINE
  5
   138
100
AcDbEntity
  8
L15
 60
     0
100
AcDbLine
 10
87.807788070108
 20
40.9520732313676
 30
0.0
 11
87.8173146166138
 21
40.9490326867331
 31
0.0
  0
ARC
  5
   139
100
AcDbEntity
  8
L15
 60
     0
100
AcDbCircle
 10
87.893328232476
 20
41.1871963493762
 30
0.0
 40
0.25
100
AcDbArc
 50
252.298712786579
 51
342.298590216742
  0
LINE
  5
   13A
100
AcDbEntity
  8
L15
 60
     0
100
AcDbLine
 10
88.1314917325066
 20
41.1111822240233
 30
0.0
 11
89.3080909486065
 21
44.7976416305946
 31
0.0
  0
ARC
  5
   13B
100
AcDbEntity
  8
L15
 60
     0
100
AcDbCircle
 10
89.4033563486187
 20
44.7672359804535
 30
0.0
 40
0.1
100
AcDbArc
 50
66.6062333627497
 51
162.298590216746
  0
ARC
  5
   13C
100
AcDbEntity
  8
L15
 60
     0
100
AcDbCircle
 10
86.9615108824599
 20
39.1227793441244
 30
0.0
 40
6.25
100
AcDbArc
 50
342.298594
 51
426.606233362749
  0
LINE
  5
   13D
100
AcDbEntity
  8
L15
 60
     0
100
AcDbLine
 10
92.9155984391437
 20
37.2224270672705
 30
0.0
 11
92.7162741907925
 21
36.8112887330355
 31
0.0
  0
ARC
  5
   13E
100
AcDbEntity
  8
L15
 60
     0
100
AcDbCircle
 10
92.9412310575529
 20
36.7022272453446
 30
0.0
 40
0.25
100
AcDbArc
 50
154.135397809175
 51
250.625447354683
  0
ARC
  5
   13F
100
AcDbEntity
  8
L15
 60
     0
100
AcDbCircle
 10
92.1179113344374
 20
34.3609656932823
 30
0.0
 40
2.231806
100
AcDbArc
 50
23.7947099999998
 51
70.6254473546821
  0
ARC
  5
   140
100
AcDbEntity
  8
L15
 60
     0
100
AcDbCircle
 10
93.6993090063552
 20
34.6695868926951
 30
0.0
 40
0.75
100
AcDbArc
 50
343.659366999999
 51
412.101546000001
  0
ARC
  5
   141
100
AcDbEntity
  8
L15
 60
     0
100
AcDbCircle
 10
95.088259649961
 20
34.2623594011292
 30
0.0
 40
0.697418
100
AcDbArc
 50
163.659367
 51
257.550603999999
  0
ARC
  5
   142
100
AcDbEntity
  8
L15
 60
     0
100
AcDbCircle
 10
94.7762290947861
 20
32.8489744516858
 30
0.0
 40
0.75
100
AcDbArc
 50
327.765821
 51
437.550604
  0
ARC
  5
   143
100
AcDbEntity
  8
L15
 60
     0
100
AcDbCircle
 10
96.0005652781362
 20
32.0769484810788
 30
0.0
 40
0.697418
100
AcDbArc
 50
147.765821
 51
223.007908
  0
ARC
  5
   144
100
AcDbEntity
  8
L15
 60
     0
100
AcDbCircle
 10
95.2894748995662
 20
31.4136632212205
 30
0.0
 40
0.275
100
AcDbArc
 50
286.238193
 51
403.007908000001
  0
ARC
  5
   145
100
AcDbEntity
  8
L15
 60
     0
100
AcDbCircle
 10
95.561393344329
 20
30.4800366565884
 30
0.0
 40
0.697418
100
AcDbArc
 50
106.238192999999
 51
225.66544
  0
ARC
  5
   146
100
AcDbEntity
  8
L15
 60
     0
100
AcDbCircle
 10
94.8818217430602
 20
29.7844935622176
 30
0.0
 40
0.275
100
AcDbArc
 50
296.255811000008
 51
405.665439999999
  0
ARC
  5
   147
100
AcDbEntity
  8
L15
 60
     0
100
AcDbCircle
 10
94.7822859216297
 20
29.9862801556825
 30
0.0
 40
0.5
100
AcDbArc
 50
179.699266
 51
296.255810999997
  0
ARC
  5
   148
100
AcDbEntity
  8
L15
 60
     0
100
AcDbCircle
 10
92.2823201615891
 20
29.9994017356392
 30
0.0
 40
2.0
100
AcDbArc
 50
359.699266
 51
424.586704999999
  0
ARC
  5
   149
100
AcDbEntity
  8
L15
 60
     0
100
AcDbCircle
 10
94.2476853539315
 20
34.1359741077818
 30
0.0
 40
2.579726
100
AcDbArc
 50
174.587707
 51
244.586705
  0
ARC
  5
   14A
100
AcDbEntity
  8
L15
 60
     0
100
AcDbCircle
 10
91.4305761719485
 20
34.4028784241798
 30
0.0
 40
0.25
100
AcDbArc
 50
354.587706999999
 51
493.436353000001
  0
ARC
  5
   14B
100
AcDbEntity
  8
L15
 60
     0
100
AcDbCircle
 10
86.9615108824599
 20
39.1227793441244
 30
0.0
 40
6.25
100
AcDbArc
 50
299.076712
 51
313.436353
  0
ARC
  5
   14C
100
AcDbEntity
  8
L15
 60
     0
100
AcDbCircle
 10
86.4568353125679
 20
37.9327832987981
 30
0.0
 40
5.549668
100
AcDbArc
 50
243.758833
 51
309.661139
  0
ARC
  5
   14D
100
AcDbEntity
  8
L15
 60
     0
100
AcDbCircle
 10
79.8532592248159
 20
23.8567491567965
 30
0.0
 40
10.0
100
AcDbArc
 50
65.482018
 51
83.2727850000001
  0
ARC
  5
   14E
100
AcDbEntity
  8
L15
 60
     0
100
AcDbCircle
 10
81.148739942875
 20
-50.9436180454089
 30
0.0
 40
84.731609
100
AcDbArc
 50
90.083887
 51
95.39901
  0
ARC
  5
   14F
100
AcDbEntity
  8
L15
 60
     0
100
AcDbCircle
 10
73.5526128898326
 20
29.4298325237314
 30
0.0
 40
4.0
100
AcDbArc
 50
95.3990099999998
 51
146.332559
  0
ARC
  5
   150
100
AcDbEntity
  8
L15
 60
     0
100
AcDbCircle
 10
75.8679715443519
 20
27.8875802115209
 30
0.0
 40
6.781982
100
AcDbArc
 50
146.332559
 51
186.923287
  0
ARC
  5
   151
100
AcDbEntity
  8
L15
 60
     0
100
AcDbCircle
 10
23.4318218139621
 20
20.8595208069314
 30
0.0
 40
46.123657
100
AcDbArc
 50
6.25178100000001
 51
7.73839099999997
  0
ARC
  5
   152
100
AcDbEntity
  8
L15
 60
     0
100
AcDbCircle
 10
59.6002813619958
 20
24.2342464502355
 30
0.0
 40
9.820174
100
AcDbArc
 50
318.011337779819
 51
369.661187
  0
ARC
  5
   153
100
AcDbEntity
  8
L15
 60
     0
100
AcDbCircle
 10
66.8250652662929
 20
17.7316100520901
 30
0.0
 40
0.1
100
AcDbArc
 50
207.729635576625
 51
318.011337779813
  0
LINE
  5
   154
100
AcDbEntity
  8
L15
 60
     0
100
AcDbLine
 10
66.7365499589751
 20
17.6850800577806
 30
0.0
 11
66.3494988396242
 21
18.4213782088002
 31
0.0
  0
ARC
  5
   155
100
AcDbEntity
  8
L15
 60
     0
100
AcDbCircle
 10
66.128210282853
 20
18.305053474147
 30
0.0
 40
0.25
100
AcDbArc
 50
27.7296339999988
 51
120.820377999996
  0
LINE
  5
   156
100
AcDbEntity
  8
L15
 60
     0
100
AcDbLine
 10
66.0001228429444
 20
18.5197477390627
 30
0.0
 11
65.991523079153
 21
18.5146168710337
 31
0.0
  0
ARC
  5
   157
100
AcDbEntity
  8
L15
 60
     0
100
AcDbCircle
 10
66.1196095192138
 20
18.2999225886656
 30
0.0
 40
0.25
100
AcDbArc
 50
120.820377999996
 51
207.729634000001
  0
LINE
  5
   158
100
AcDbEntity
  8
L15
 60
     0
100
AcDbLine
 10
65.8983219622904
 20
18.1835978714648
 30
0.0
 11
66.352502833253
 21
17.3195958862914
 31
0.0
  0
ARC
  5
   159
100
AcDbEntity
  8
L15
 60
     0
100
AcDbCircle
 10
66.2639875030148
 20
17.2730659355841
 30
0.0
 40
0.1
100
AcDbArc
 50
296.470883485923
 51
387.729607353022
  0
ARC
  5
   15A
100
AcDbEntity
  8
L15
 60
     0
100
AcDbCircle
 10
61.4814712292623
 20
26.8775293251696
 30
0.0
 40
10.829314
100
AcDbArc
 50
257.745956
 51
296.470883485928
  0
ARC
  5
   15B
100
AcDbEntity
  8
L15
 60
     0
100
AcDbCircle
 10
58.33941940039
 20
11.0907825616082
 30
0.0
 40
5.272092
100
AcDbArc
 50
80.792753
 51
107.687956
  0
ARC
  5
   15C
100
AcDbEntity
  8
L15
 60
     0
100
AcDbCircle
 10
88.5767344540226
 20
-115.64490698588
 30
0.0
 40
135.550898
100
AcDbArc
 50
103.584965
 51
104.014804
  0
ARC
  5
   15D
100
AcDbEntity
  8
L15
 60
     0
100
AcDbCircle
 10
55.9429573156982
 20
17.6104045012945
 30
0.0
 40
1.75
100
AcDbArc
 50
179.507809
 51
263.67039
  0
ARC
  5
   15E
100
AcDbEntity
  8
L15
 60
     0
100
AcDbCircle
 10
54.6930035388935
 20
17.6211424353933
 30
0.0
 40
0.5
100
AcDbArc
 50
126.818599
 51
179.507809
  0
ARC
  5
   15F
100
AcDbEntity
  8
L15
 60
     0
100
AcDbCircle
 10
54.2435406196894
 20
18.2215446700173
 30
0.0
 40
0.25
100
AcDbArc
 50
306.818598999999
 51
344.125386
  0
ARC
  5
   160
100
AcDbEntity
  8
L15
 60
     0
100
AcDbCircle
 10
59.7175754681098
 20
16.6648466583966
 30
0.0
 40
5.441078
100
AcDbArc
 50
157.061938
 51
164.125386
  0
ARC
  5
   161
100
AcDbEntity
  8
L15
 60
     0
100
AcDbCircle
 10
55.167205057128
 20
18.590562040324
 30
0.0
 40
0.5
100
AcDbArc
 50
128.360086
 51
157.061938
  0
ARC
  5
   162
100
AcDbEntity
  8
L15
 60
     0
100
AcDbCircle
 10
55.9429573156982
 20
17.6104045012945
 30
0.0
 40
1.75
100
AcDbArc
 50
119.823676
 51
128.360086
  0
LINE
  5
   163
100
AcDbEntity
  8
L15
 60
     0
100
AcDbLine
 10
55.0726249956309
 20
19.1286343416676
 30
0.0
 11
58.004409
 21
20.809292
 31
0.0
  0
ARC
  5
   164
100
AcDbEntity
  8
L15
 60
     0
100
AcDbCircle
 10
62.1420483544593
 20
18.2640171060102
 30
0.0
 40
4.857827
100
AcDbArc
 50
104.210354
 51
148.402192
  0
ARC
  5
   165
100
AcDbEntity
  8
L15
 60
     0
100
AcDbCircle
 10
60.7040543951677
 20
23.9426005267381
 30
0.0
 40
1.0
100
AcDbArc
 50
284.210354
 51
378.0878
  0
ARC
  5
   166
100
AcDbEntity
  8
L15
 60
     0
100
AcDbCircle
 10
83.5827932522213
 20
31.415133679037
 30
0.0
 40
23.068142
100
AcDbArc
 50
166.726376093878
 51
198.0878
  0
ARC
  5
   167
100
AcDbEntity
  8
L15
 60
     0
100
AcDbCircle
 10
61.4959059619129
 20
36.6255178930254
 30
0.0
 40
0.375
100
AcDbArc
 50
90.1660041792186
 51
166.726376093878
  0
ARC
  5
   168
100
AcDbEntity
  8
L11
 60
     0
100
AcDbCircle
 10
40.8752314907376
 20
22.8298094360355
 30
0.0
 40
2.0
100
AcDbArc
 50
74.7637259999997
 51
130.947576
  0
ARC
  5
   169
100
AcDbEntity
  8
L11
 60
     0
100
AcDbCircle
 10
40.6665636759846
 20
22.0637007596095
 30
0.0
 40
2.794019
100
AcDbArc
 50
30.9663240000001
 51
74.763726
  0
ARC
  5
   16A
100
AcDbEntity
  8
L11
 60
     0
100
AcDbCircle
 10
42.6336152474221
 20
23.2440515098402
 30
0.0
 40
0.5
100
AcDbArc
 50
337.328823000001
 51
390.966324
  0
ARC
  5
   16B
100
AcDbEntity
  8
L11
 60
     0
100
AcDbCircle
 10
42.2594950804338
 20
23.4003289135736
 30
0.0
 40
0.905449
100
AcDbArc
 50
194.708067
 51
337.328823
  0
LINE
  5
   16C
100
AcDbEntity
  8
L11
 60
     0
100
AcDbLine
 10
41.3837153656809
 20
23.1704403497054
 30
0.0
 11
41.1908578015264
 21
23.2691064482469
 31
0.0
  0
ARC
  5
   16D
100
AcDbEntity
  8
L11
 60
     0
100
AcDbCircle
 10
40.735401549409
 20
22.378848375446
 30
0.0
 40
1.0
100
AcDbArc
 50
62.9057349999997
 51
153.71943
  0
ARC
  5
   16E
100
AcDbEntity
  8
L11
 60
     0
100
AcDbCircle
 10
44.0631173480921
 20
20.7355927495898
 30
0.0
 40
4.711332
100
AcDbArc
 50
153.71943
 51
192.868355
  0
ARC
  5
   16F
100
AcDbEntity
  8
L11
 60
     0
100
AcDbCircle
 10
40.4449980853209
 20
19.9090353207249
 30
0.0
 40
1.0
100
AcDbArc
 50
192.868355
 51
268.612113
  0
LINE
  5
   170
100
AcDbEntity
  8
L11
 60
     0
100
AcDbLine
 10
40.4207777794033
 20
18.9093290753937
 30
0.0
 11
40.4243478273494
 21
18.9092425961336
 31
0.0
  0
LINE
  5
   171
100
AcDbEntity
  8
L11
 60
     0
100
AcDbLine
 10
40.4243478273494
 20
18.9092425961336
 30
0.0
 11
40.5095688728204
 21
18.9382223694044
 31
0.0
  0
ARC
  5
   172
100
AcDbEntity
  8
L11
 60
     0
100
AcDbCircle
 10
40.4290813660414
 20
19.1749109894973
 30
0.0
 40
0.25
100
AcDbArc
 50
288.780959999998
 51
372.849413000002
  0
ARC
  5
   173
100
AcDbEntity
  8
L11
 60
     0
100
AcDbCircle
 10
41.5555955997075
 20
19.4318706136946
 30
0.0
 40
0.905449
100
AcDbArc
 50
22.8185309999997
 51
192.849413
  0
ARC
  5
   174
100
AcDbEntity
  8
L11
 60
     0
100
AcDbCircle
 10
41.9293129650877
 20
19.5891093399623
 30
0.0
 40
0.5
100
AcDbArc
 50
329.18103
 51
382.818530999999
  0
ARC
  5
   175
100
AcDbEntity
  8
L11
 60
     0
100
AcDbCircle
 10
39.9592313304718
 20
20.7643975947395
 30
0.0
 40
2.794019
100
AcDbArc
 50
283.978206
 51
329.18103
  0
ARC
  5
   176
100
AcDbEntity
  8
L11
 60
     0
100
AcDbCircle
 10
40.6945228813419
 20
17.810519314832
 30
0.0
 40
0.25
100
AcDbArc
 50
103.978206000002
 51
220.968965
  0
ARC
  5
   177
100
AcDbEntity
  8
L11
 60
     0
100
AcDbCircle
 10
44.0631173480921
 20
20.7355927495898
 30
0.0
 40
4.711332
100
AcDbArc
 50
220.968965
 51
252.334883
  0
ARC
  5
   178
100
AcDbEntity
  8
L11
 60
     0
100
AcDbCircle
 10
42.8200946926194
 20
16.7102747621608
 30
0.0
 40
0.5
100
AcDbArc
 50
248.081406
 51
352.387685
  0
ARC
  5
   179
100
AcDbEntity
  8
L11
 60
     0
100
AcDbCircle
 10
44.2131571589906
 20
16.5240959014364
 30
0.0
 40
0.905449
100
AcDbArc
 50
32.8185310000002
 51
172.387685
  0
ARC
  5
   17A
100
AcDbEntity
  8
L11
 60
     0
100
AcDbCircle
 10
44.5538928108399
 20
16.7438410291727
 30
0.0
 40
0.5
100
AcDbArc
 50
339.18103
 51
392.818531
  0
ARC
  5
   17B
100
AcDbEntity
  8
L11
 60
     0
100
AcDbCircle
 10
42.4096551361926
 20
17.5591722377379
 30
0.0
 40
2.794019
100
AcDbArc
 50
309.102084
 51
339.18103
  0
ARC
  5
   17C
100
AcDbEntity
  8
L11
 60
     0
100
AcDbCircle
 10
42.9104464710379
 20
16.9429956590773
 30
0.0
 40
2.0
100
AcDbArc
 50
291.228597
 51
309.102084
  0
ARC
  5
   17D
100
AcDbEntity
  8
L11
 60
     0
100
AcDbCircle
 10
43.7251480118082
 20
14.8456737982947
 30
0.0
 40
0.25
100
AcDbArc
 50
111.228596999998
 51
173.943665999999
  0
ARC
  5
   17E
100
AcDbEntity
  8
L11
 60
     0
100
AcDbCircle
 10
42.7361349855426
 20
14.9506062628938
 30
0.0
 40
0.744565
100
AcDbArc
 50
176.338356
 51
353.943665999999
  0
ARC
  5
   17F
100
AcDbEntity
  8
L11
 60
     0
100
AcDbCircle
 10
41.7435999464941
 20
15.0141230921367
 30
0.0
 40
0.25
100
AcDbArc
 50
356.338355999999
 51
421.844617000003
  0
ARC
  5
   180
100
AcDbEntity
  8
L11
 60
     0
100
AcDbCircle
 10
45.5171966758142
 20
22.0650302970043
 30
0.0
 40
7.747208
100
AcDbArc
 50
196.310638
 51
241.844617
  0
ARC
  5
   181
100
AcDbEntity
  8
L11
 60
     0
100
AcDbCircle
 10
37.8432471525053
 20
19.8144519373898
 30
0.0
 40
0.25
100
AcDbArc
 50
17.4130849999996
 51
150.666806999999
  0
ARC
  5
   182
100
AcDbEntity
  8
L11
 60
     0
100
AcDbCircle
 10
48.8150393640575
 20
13.6490088656328
 30
0.0
 40
12.835425
100
AcDbArc
 50
150.666807
 51
211.859139
  0
ARC
  5
   183
100
AcDbEntity
  8
L11
 60
     0
100
AcDbCircle
 10
38.76264113774
 20
7.40188390290093
 30
0.0
 40
1.0
100
AcDbArc
 50
211.859139
 51
268.612113000001
  0
LINE
  5
   184
100
AcDbEntity
  8
L11
 60
     0
100
AcDbLine
 10
38.7384208318224
 20
6.40217765756971
 30
0.0
 11
39.3288698656055
 21
6.38787219687884
 31
0.0
  0
LINE
  5
   185
100
AcDbEntity
  8
L11
 60
     0
100
AcDbLine
 10
39.3288698656055
 20
6.38787219687884
 30
0.0
 11
39.4140909110765
 21
6.4168519701496
 31
0.0
  0
ARC
  5
   186
100
AcDbEntity
  8
L11
 60
     0
100
AcDbCircle
 10
39.3336034042975
 20
6.65354059024254
 30
0.0
 40
0.25
100
AcDbArc
 50
288.78096
 51
372.849412999999
  0
ARC
  5
   187
100
AcDbEntity
  8
L11
 60
     0
100
AcDbCircle
 10
40.4601176379636
 20
6.91050021443986
 30
0.0
 40
0.905449
100
AcDbArc
 50
22.8185309999998
 51
192.849413
  0
ARC
  5
   188
100
AcDbEntity
  8
L11
 60
     0
100
AcDbCircle
 10
40.8338350033438
 20
7.06773894070757
 30
0.0
 40
0.5
100
AcDbArc
 50
329.18103
 51
382.818531
  0
ARC
  5
   189
100
AcDbEntity
  8
L11
 60
     0
100
AcDbCircle
 10
38.8637533687279
 20
8.24302719548469
 30
0.0
 40
2.794019
100
AcDbArc
 50
283.978206
 51
329.18103
  0
ARC
  5
   18A
100
AcDbEntity
  8
L11
 60
     0
100
AcDbCircle
 10
39.599044919598
 20
5.28914891557724
 30
0.0
 40
0.25
100
AcDbArc
 50
103.978206
 51
220.968965
  0
ARC
  5
   18B
100
AcDbEntity
  8
L11
 60
     0
100
AcDbCircle
 10
42.9676393863483
 20
8.21422235033505
 30
0.0
 40
4.711332
100
AcDbArc
 50
220.968965
 51
252.334883
  0
ARC
  5
   18C
100
AcDbEntity
  8
L11
 60
     0
100
AcDbCircle
 10
41.7246167308755
 20
4.18890436290605
 30
0.0
 40
0.5
100
AcDbArc
 50
248.081405999999
 51
352.387684999999
  0
ARC
  5
   18D
100
AcDbEntity
  8
L11
 60
     0
100
AcDbCircle
 10
43.1176791972468
 20
4.00272550218159
 30
0.0
 40
0.905449
100
AcDbArc
 50
32.8185309999999
 51
172.387685
  0
ARC
  5
   18E
100
AcDbEntity
  8
L11
 60
     0
100
AcDbCircle
 10
43.458414849096
 20
4.22247062991796
 30
0.0
 40
0.5
100
AcDbArc
 50
339.181030000001
 51
392.818530999999
  0
ARC
  5
   18F
100
AcDbEntity
  8
L11
 60
     0
100
AcDbCircle
 10
41.3141771744488
 20
5.03780183848317
 30
0.0
 40
2.794019
100
AcDbArc
 50
309.102084
 51
339.18103
  0
ARC
  5
   190
100
AcDbEntity
  8
L11
 60
     0
100
AcDbCircle
 10
41.814968509294
 20
4.42162525982254
 30
0.0
 40
2.0
100
AcDbArc
 50
291.228597
 51
309.102084
  0
ARC
  5
   191
100
AcDbEntity
  8
L11
 60
     0
100
AcDbCircle
 10
42.7266737786298
 20
9.83533571262341
 30
0.0
 40
7.280412
100
AcDbArc
 50
245.526301
 51
268.524036
  0
ARC
  5
   192
100
AcDbEntity
  8
L11
 60
     0
100
AcDbCircle
 10
39.6070080795838
 20
2.98151965442306
 30
0.0
 40
0.25
100
AcDbArc
 50
65.5263009999999
 51
171.134831000001
  0
ARC
  5
   193
100
AcDbEntity
  8
L11
 60
     0
100
AcDbCircle
 10
38.8659678099003
 20
3.0971013929434
 30
0.0
 40
0.5
100
AcDbArc
 50
232.050546
 51
351.134831
  0
ARC
  5
   194
100
AcDbEntity
  8
L11
 60
     0
100
AcDbCircle
 10
46.4232571374607
 20
12.7875994993773
 30
0.0
 40
12.788954
100
AcDbArc
 50
213.096789
 51
232.050546
  0
LINE
  5
   195
100
AcDbEntity
  8
L11
 60
     0
100
AcDbLine
 10
35.7093206741781
 20
5.80412736976482
 30
0.0
 11
36.336491594237
 21
6.22864724870278
 31
0.0
  0
ARC
  5
   196
100
AcDbEntity
  8
L11
 60
     0
100
AcDbCircle
 10
36.196356313627
 20
6.43567866019472
 30
0.0
 40
0.25
100
AcDbArc
 50
304.093276000001
 51
391.844386999998
  0
ARC
  5
   197
100
AcDbEntity
  8
L11
 60
     0
100
AcDbCircle
 10
46.4232571374607
 20
12.7875994993773
 30
0.0
 40
11.788954
100
AcDbArc
 50
211.796757
 51
211.844387
  0
ARC
  5
   198
100
AcDbEntity
  8
L11
 60
     0
100
AcDbCircle
 10
36.1910794296387
 20
6.44418293226083
 30
0.0
 40
0.25
100
AcDbArc
 50
31.7967569999991
 51
124.093276000001
  0
LINE
  5
   199
100
AcDbEntity
  8
L11
 60
     0
100
AcDbLine
 10
36.0509441490287
 20
6.65121434375276
 30
0.0
 11
35.439224598862
 21
6.23715358932183
 31
0.0
  0
ARC
  5
   19A
100
AcDbEntity
  8
L11
 60
     0
100
AcDbCircle
 10
46.4232571374607
 20
12.7875994993773
 30
0.0
 40
12.788954
100
AcDbArc
 50
189.291766
 51
210.810193
  0
ARC
  5
   19B
100
AcDbEntity
  8
L11
 60
     0
100
AcDbCircle
 10
34.0488282734155
 20
10.7630349587915
 30
0.0
 40
0.25
100
AcDbArc
 50
171.859298
 51
189.291765999999
  0
ARC
  5
   19C
100
AcDbEntity
  8
L11
 60
     0
100
AcDbCircle
 10
34.1967817579636
 20
10.7418714293346
 30
0.0
 40
0.399459
100
AcDbArc
 50
69.9407839999988
 51
171.859298
  0
ARC
  5
   19D
100
AcDbEntity
  8
L11
 60
     0
100
AcDbCircle
 10
34.4195408073572
 20
11.3519331680293
 30
0.0
 40
0.25
100
AcDbArc
 50
249.940783999996
 51
367.638595
  0
ARC
  5
   19E
100
AcDbEntity
  8
L11
 60
     0
100
AcDbCircle
 10
49.1233189653255
 20
13.3239184608727
 30
0.0
 40
14.585425
100
AcDbArc
 50
130.947576
 51
187.638595
  0
ARC
  5
   19F
100
AcDbEntity
  8
L11
 60
     0
100
AcDbCircle
 10
52.327632918516
 20
20.9324663293888
 30
0.0
 40
2.0
100
AcDbArc
 50
68.2637259999996
 51
124.447576
  0
ARC
  5
   1A0
100
AcDbEntity
  8
L11
 60
     0
100
AcDbCircle
 10
52.033580486325
 20
20.1949041773423
 30
0.0
 40
2.794019
100
AcDbArc
 50
24.4663240000002
 51
68.2637260000001
  0
ARC
  5
   1A1
100
AcDbEntity
  8
L11
 60
     0
100
AcDbCircle
 10
54.1216070646691
 20
21.1449909030643
 30
0.0
 40
0.5
100
AcDbArc
 50
330.828822999999
 51
384.466323999999
  0
ARC
  5
   1A2
100
AcDbEntity
  8
L11
 60
     0
100
AcDbCircle
 10
53.7675829004505
 20
21.3426153383304
 30
0.0
 40
0.905449
100
AcDbArc
 50
188.208067
 51
330.828823
  0
LINE
  5
   1A3
100
AcDbEntity
  8
L11
 60
     0
100
AcDbLine
 10
52.8714086998612
 20
21.2133456095919
 30
0.0
 11
52.6909601714078
 21
21.3332095642738
 31
0.0
  0
ARC
  5
   1A4
100
AcDbEntity
  8
L11
 60
     0
100
AcDbCircle
 10
52.1376515828881
 20
20.5002333103203
 30
0.0
 40
1.0
100
AcDbArc
 50
56.4057349999999
 51
147.21943
  0
ARC
  5
   1A5
100
AcDbEntity
  8
L11
 60
     0
100
AcDbCircle
 10
55.2579545262609
 20
18.4908326458703
 30
0.0
 40
4.711332
100
AcDbArc
 50
147.21943
 51
186.368355
  0
ARC
  5
   1A6
100
AcDbEntity
  8
L11
 60
     0
100
AcDbCircle
 10
51.5695240989788
 20
18.079171175791
 30
0.0
 40
1.0
100
AcDbArc
 50
186.368355
 51
262.112113
  0
LINE
  5
   1A7
100
AcDbEntity
  8
L11
 60
     0
100
AcDbLine
 10
51.4322895248878
 20
17.0886330029541
 30
0.0
 11
51.4358268343203
 21
17.0881429386944
 31
0.0
  0
LINE
  5
   1A8
100
AcDbEntity
  8
L11
 60
     0
100
AcDbLine
 10
51.4358268343203
 20
17.0881429386944
 30
0.0
 11
51.5237806700802
 21
17.1072891295721
 31
0.0
  0
ARC
  5
   1A9
100
AcDbEntity
  8
L11
 60
     0
100
AcDbCircle
 10
51.4706044610678
 20
17.3515677254909
 30
0.0
 40
0.25
100
AcDbArc
 50
282.280960000001
 51
366.349413000004
  0
ARC
  5
   1AA
100
AcDbEntity
  8
L11
 60
     0
100
AcDbCircle
 10
52.6189659539252
 20
17.4793505445323
 30
0.0
 40
0.905449
100
AcDbArc
 50
16.3185309999997
 51
186.349413
  0
ARC
  5
   1AB
100
AcDbEntity
  8
L11
 60
     0
100
AcDbCircle
 10
53.0080809392869
 20
17.5932725107724
 30
0.0
 40
0.5
100
AcDbArc
 50
322.68103
 51
376.318530999999
  0
ARC
  5
   1AC
100
AcDbEntity
  8
L11
 60
     0
100
AcDbCircle
 10
51.1837096812916
 20
18.9840254154499
 30
0.0
 40
2.794019
100
AcDbArc
 50
277.478206
 51
322.68103
  0
ARC
  5
   1AD
100
AcDbEntity
  8
L11
 60
     0
100
AcDbCircle
 10
51.5798861575883
 20
15.9658977248246
 30
0.0
 40
0.25
100
AcDbArc
 50
97.4782059999988
 51
214.468965000001
  0
ARC
  5
   1AE
100
AcDbEntity
  8
L11
 60
     0
100
AcDbCircle
 10
55.2579545262609
 20
18.4908326458703
 30
0.0
 40
4.711332
100
AcDbArc
 50
214.468965
 51
245.834883
  0
ARC
  5
   1AF
100
AcDbEntity
  8
L11
 60
     0
100
AcDbCircle
 10
53.5672432672
 20
14.6321041427979
 30
0.0
 40
0.5
100
AcDbArc
 50
241.581405999999
 51
345.887685
  0
ARC
  5
   1B0
100
AcDbEntity
  8
L11
 60
     0
100
AcDbCircle
 10
54.9302748816163
 20
14.2894229184875
 30
0.0
 40
0.905449
100
AcDbArc
 50
26.3185310000001
 51
165.887685
  0
ARC
  5
   1B1
100
AcDbEntity
  8
L11
 60
     0
100
AcDbCircle
 10
55.2936960901889
 20
14.4691831219938
 30
0.0
 40
0.5
100
AcDbArc
 50
332.68103
 51
386.318531
  0
ARC
  5
   1B2
100
AcDbEntity
  8
L11
 60
     0
100
AcDbCircle
 10
53.2555399978728
 20
15.5220078597313
 30
0.0
 40
2.794019
100
AcDbArc
 50
302.602084
 51
332.68103
  0
ARC
  5
   1B3
100
AcDbEntity
  8
L11
 60
     0
100
AcDbCircle
 10
53.6833590047889
 20
14.8531009645154
 30
0.0
 40
2.0
100
AcDbArc
 50
284.728597
 51
302.602084
  0
ARC
  5
   1B4
100
AcDbEntity
  8
L11
 60
     0
100
AcDbCircle
 10
54.2553999515284
 20
12.6770341586697
 30
0.0
 40
0.25
100
AcDbArc
 50
104.728596999997
 51
167.443665999999
  0
ARC
  5
   1B5
100
AcDbEntity
  8
L11
 60
     0
100
AcDbCircle
 10
53.2846231359545
 20
12.8932515552737
 30
0.0
 40
0.744565
100
AcDbArc
 50
169.838356
 51
347.443666
  0
ARC
  5
   1B6
100
AcDbEntity
  8
L11
 60
     0
100
AcDbCircle
 10
52.3056585645817
 20
13.0687182453688
 30
0.0
 40
0.25
100
AcDbArc
 50
349.838355999999
 51
415.344617000003
  0
ARC
  5
   1B7
100
AcDbEntity
  8
L11
 60
     0
100
AcDbCircle
 10
56.8531834250777
 20
19.6471179238894
 30
0.0
 40
7.747208
100
AcDbArc
 50
189.810638
 51
235.344617
  0
ARC
  5
   1B8
100
AcDbEntity
  8
L11
 60
     0
100
AcDbCircle
 10
48.9737904536903
 20
18.2797223551129
 30
0.0
 40
0.25
100
AcDbArc
 50
10.9130849999995
 51
144.166806999999
  0
ARC
  5
   1B9
100
AcDbEntity
  8
L11
 60
     0
100
AcDbCircle
 10
59.1771064313942
 20
10.9118695020975
 30
0.0
 40
12.835425
100
AcDbArc
 50
144.166807
 51
205.359139
  0
ARC
  5
   1BA
100
AcDbEntity
  8
L11
 60
     0
100
AcDbCircle
 10
48.482131849081
 20
5.84286574552647
 30
0.0
 40
1.0
100
AcDbArc
 50
205.359139
 51
262.112113
  0
LINE
  5
   1BB
100
AcDbEntity
  8
L11
 60
     0
100
AcDbLine
 10
48.34489727499
 20
4.85232757268957
 30
0.0
 11
48.9299313930437
 21
4.77127334137423
 31
0.0
  0
LINE
  5
   1BC
100
AcDbEntity
  8
L11
 60
     0
100
AcDbLine
 10
48.9299313930437
 20
4.77127334137423
 30
0.0
 11
49.0178852288036
 21
4.79041953225197
 31
0.0
  0
ARC
  5
   1BD
100
AcDbEntity
  8
L11
 60
     0
100
AcDbCircle
 10
48.9647090197911
 20
5.0346981281708
 30
0.0
 40
0.25
100
AcDbArc
 50
282.28096
 51
366.349412999999
  0
ARC
  5
   1BE
100
AcDbEntity
  8
L11
 60
     0
100
AcDbCircle
 10
50.1130705126486
 20
5.16248094721219
 30
0.0
 40
0.905449
100
AcDbArc
 50
16.3185310000001
 51
186.349413
  0
ARC
  5
   1BF
100
AcDbEntity
  8
L11
 60
     0
100
AcDbCircle
 10
50.5021854980103
 20
5.2764029134523
 30
0.0
 40
0.5
100
AcDbArc
 50
322.681029999999
 51
376.318531
  0
ARC
  5
   1C0
100
AcDbEntity
  8
L11
 60
     0
100
AcDbCircle
 10
48.677814240015
 20
6.66715581812977
 30
0.0
 40
2.794019
100
AcDbArc
 50
277.478206
 51
322.68103
  0
ARC
  5
   1C1
100
AcDbEntity
  8
L11
 60
     0
100
AcDbCircle
 10
49.0739907163116
 20
3.64902812750447
 30
0.0
 40
0.25
100
AcDbArc
 50
97.4782059999937
 51
214.468965000002
  0
ARC
  5
   1C2
100
AcDbEntity
  8
L11
 60
     0
100
AcDbCircle
 10
52.7520590849842
 20
6.17396304855016
 30
0.0
 40
4.711332
100
AcDbArc
 50
214.468965
 51
245.834883
  0
ARC
  5
   1C3
100
AcDbEntity
  8
L11
 60
     0
100
AcDbCircle
 10
51.0613478259234
 20
2.31523454547781
 30
0.0
 40
0.5
100
AcDbArc
 50
241.581405999999
 51
345.887684999999
  0
ARC
  5
   1C4
100
AcDbEntity
  8
L11
 60
     0
100
AcDbCircle
 10
52.4243794403396
 20
1.97255332116738
 30
0.0
 40
0.905449
100
AcDbArc
 50
26.3185309999999
 51
165.887685
  0
ARC
  5
   1C5
100
AcDbEntity
  8
L11
 60
     0
100
AcDbCircle
 10
52.7878006489122
 20
2.15231352467367
 30
0.0
 40
0.5
100
AcDbArc
 50
332.681030000001
 51
386.318530999999
  0
ARC
  5
   1C6
100
AcDbEntity
  8
L11
 60
     0
100
AcDbCircle
 10
50.7496445565962
 20
3.20513826241113
 30
0.0
 40
2.794019
100
AcDbArc
 50
302.602084
 51
332.68103
  0
ARC
  5
   1C7
100
AcDbEntity
  8
L11
 60
     0
100
AcDbCircle
 10
51.1774635635122
 20
2.53623136719523
 30
0.0
 40
2.0
100
AcDbArc
 50
284.728597
 51
302.602084
  0
ARC
  5
   1C8
100
AcDbEntity
  8
L11
 60
     0
100
AcDbCircle
 10
52.6961576814623
 20
7.81193374138238
 30
0.0
 40
7.280412
100
AcDbArc
 50
239.026301
 51
262.024036
  0
ARC
  5
   1C9
100
AcDbEntity
  8
L11
 60
     0
100
AcDbCircle
 10
48.8206716394082
 20
1.35533118498377
 30
0.0
 40
0.25
100
AcDbArc
 50
59.0263010000017
 51
164.634831
  0
ARC
  5
   1CA
100
AcDbEntity
  8
L11
 60
     0
100
AcDbCircle
 10
48.0974791077811
 20
1.55405808746736
 30
0.0
 40
0.5
100
AcDbArc
 50
225.550546000001
 51
344.634831
  0
ARC
  5
   1CB
100
AcDbEntity
  8
L11
 60
     0
100
AcDbCircle
 10
56.7031846175103
 20
10.3267548342536
 30
0.0
 40
12.788954
100
AcDbArc
 50
206.596789
 51
225.550546
  0
LINE
  5
   1CC
100
AcDbEntity
  8
L11
 60
     0
100
AcDbLine
 10
45.2675673957548
 20
4.60102551111756
 30
0.0
 11
45.9387637852282
 21
4.9518187512731
 31
0.0
  0
ARC
  5
   1CD
100
AcDbEntity
  8
L11
 60
     0
100
AcDbCircle
 10
45.8229659355585
 20
5.17338309909982
 30
0.0
 40
0.25
100
AcDbArc
 50
297.593276000002
 51
385.344386999998
  0
ARC
  5
   1CE
100
AcDbEntity
  8
L11
 60
     0
100
AcDbCircle
 10
56.7031846175103
 20
10.3267548342536
 30
0.0
 40
11.788954
100
AcDbArc
 50
205.296757
 51
205.344387
  0
ARC
  5
   1CF
100
AcDbEntity
  8
L11
 60
     0
100
AcDbCircle
 10
45.8186856830708
 20
5.18243006470387
 30
0.0
 40
0.25
100
AcDbArc
 50
25.2967569999993
 51
117.593275999997
  0
LINE
  5
   1D0
100
AcDbEntity
  8
L11
 60
     0
100
AcDbLine
 10
45.7028878334011
 20
5.40399441253058
 30
0.0
 11
45.0482274966916
 21
5.06184391939131
 31
0.0
  0
ARC
  5
   1D1
100
AcDbEntity
  8
L11
 60
     0
100
AcDbCircle
 10
56.7031846175103
 20
10.3267548342536
 30
0.0
 40
12.788954
100
AcDbArc
 50
182.791766
 51
204.310193
  0
ARC
  5
   1D2
100
AcDbEntity
  8
L11
 60
     0
100
AcDbCircle
 10
44.1791131556481
 20
9.71602960267905
 30
0.0
 40
0.25
100
AcDbArc
 50
165.359298000001
 51
182.791766
  0
ARC
  5
   1D3
100
AcDbEntity
  8
L11
 60
     0
100
AcDbCircle
 10
44.3237197942951
 20
9.67825330550486
 30
0.0
 40
0.399459
100
AcDbArc
 50
63.4407839999993
 51
165.359298
  0
ARC
  5
   1D4
100
AcDbEntity
  8
L11
 60
     0
100
AcDbCircle
 10
44.614107865787
 20
10.2591764390098
 30
0.0
 40
0.25
100
AcDbArc
 50
243.440783999996
 51
361.138595
  0
ARC
  5
   1D5
100
AcDbEntity
  8
L11
 60
     0
100
AcDbCircle
 10
59.4466030883093
 20
10.5539705837748
 30
0.0
 40
14.585425
100
AcDbArc
 50
124.447576
 51
181.138595
  0
ARC
  5
   1D6
100
AcDbEntity
  8
L12
 60
     0
100
AcDbCircle
 10
89.5421252983659
 20
9.36006611279563
 30
0.0
 40
1.668795
100
AcDbArc
 50
96.9602697664078
 51
176.636907766407
  0
ARC
  5
   1D7
100
AcDbEntity
  8
L12
 60
     0
100
AcDbCircle
 10
89.3520174097109
 20
10.9172993584259
 30
0.0
 40
0.1
100
AcDbArc
 50
340.305576766406
 51
456.960269766404
  0
LINE
  5
   1D8
100
AcDbEntity
  8
L12
 60
     0
100
AcDbLine
 10
89.4461674826419
 20
10.883599009287
 30
0.0
 11
89.228379403126
 21
10.2751538277417
 31
0.0
  0
ARC
  5
   1D9
100
AcDbEntity
  8
L12
 60
     0
100
AcDbCircle
 10
89.4637550854465
 20
10.1909029575612
 30
0.0
 40
0.25
100
AcDbArc
 50
160.305576766408
 51
253.332610766407
  0
LINE
  5
   1DA
100
AcDbEntity
  8
L12
 60
     0
100
AcDbLine
 10
89.3920513729751
 20
9.95140613432793
 30
0.0
 11
89.4016448259781
 21
9.9485342582026
 31
0.0
  0
ARC
  5
   1DB
100
AcDbEntity
  8
L12
 60
     0
100
AcDbCircle
 10
89.4733485384495
 20
10.1880310814359
 30
0.0
 40
0.25
100
AcDbArc
 50
253.332610766406
 51
340.305576766408
  0
LINE
  5
   1DC
100
AcDbEntity
  8
L12
 60
     0
100
AcDbLine
 10
89.70872422077
 20
10.1037802112554
 30
0.0
 11
90.0155201431143
 21
10.9608906251362
 31
0.0
  0
ARC
  5
   1DD
100
AcDbEntity
  8
L12
 60
     0
100
AcDbCircle
 10
90.1096704753811
 20
10.9271902551967
 30
0.0
 40
0.1
100
AcDbArc
 50
87.7365065995133
 51
160.305571979472
  0
ARC
  5
   1DE
100
AcDbEntity
  8
L12
 60
     0
100
AcDbCircle
 10
89.7567195736066
 20
1.99759689752961
 30
0.0
 40
9.036566
100
AcDbArc
 50
85.6156077664073
 51
87.7365065995129
  0
ARC
  5
   1DF
100
AcDbEntity
  8
L12
 60
     0
100
AcDbCircle
 10
90.3902062107292
 20
10.2599129765619
 30
0.0
 40
0.75
100
AcDbArc
 50
71.0929097664072
 51
85.6156077664075
  0
ARC
  5
   1E0
100
AcDbEntity
  8
L12
 60
     0
100
AcDbCircle
 10
118.293594582368
 20
91.7261436122195
 30
0.0
 40
85.362403
100
AcDbArc
 50
251.092909766407
 51
253.159366227816
  0
ARC
  5
   1E1
100
AcDbEntity
  8
L12
 60
     0
100
AcDbCircle
 10
93.635625105645
 20
10.2638475132301
 30
0.0
 40
0.25
100
AcDbArc
 50
253.159366227816
 51
276.634660849571
  0
ARC
  5
   1E2
100
AcDbEntity
  8
L12
 60
     0
100
AcDbCircle
 10
93.7078363970532
 20
9.64303310505878
 30
0.0
 40
0.375
100
AcDbArc
 50
320.096994766406
 51
456.634660849575
  0
ARC
  5
   1E3
100
AcDbEntity
  8
L12
 60
     0
100
AcDbCircle
 10
88.0802383829591
 20
14.3489373903546
 30
0.0
 40
7.710898
100
AcDbArc
 50
268.46075485994
 51
320.096994766407
  0
ARC
  5
   1E4
100
AcDbEntity
  8
L12
 60
     0
100
AcDbCircle
 10
87.8757969958197
 20
6.74078570379963
 30
0.0
 40
0.1
100
AcDbArc
 50
180.305576766407
 51
268.460754859932
  0
LINE
  5
   1E5
100
AcDbEntity
  8
L12
 60
     0
100
AcDbLine
 10
87.7757984180318
 20
6.74025237425886
 30
0.0
 11
87.7709783022485
 21
7.64401765680599
 31
0.0
  0
ARC
  5
   1E6
100
AcDbEntity
  8
L12
 60
     0
100
AcDbCircle
 10
87.5209818577788
 20
7.64268433295408
 30
0.0
 40
0.25
100
AcDbArc
 50
0.305576766407502
 51
92.4452230031556
  0
ARC
  5
   1E7
100
AcDbEntity
  8
L12
 60
     0
100
AcDbCircle
 10
87.500982
 20
7.642631
 30
0.0
 40
0.25
100
AcDbArc
 50
87.8603537632518
 51
180.0
  0
LINE
  5
   1E8
100
AcDbEntity
  8
L12
 60
     0
100
AcDbLine
 10
87.250982
 20
7.642631
 30
0.0
 11
87.250982
 21
6.73885286381078
 31
0.0
  0
ARC
  5
   1E9
100
AcDbEntity
  8
L12
 60
     0
100
AcDbCircle
 10
87.150982
 20
6.73885286381078
 30
0.0
 40
0.1
100
AcDbArc
 50
271.844821906471
 51
360.0
  0
ARC
  5
   1EA
100
AcDbEntity
  8
L12
 60
     0
100
AcDbCircle
 10
86.905967
 20
14.345806
 30
0.0
 40
7.710898
100
AcDbArc
 50
220.208582
 51
271.844821906468
  0
ARC
  5
   1EB
100
AcDbEntity
  8
L12
 60
     0
100
AcDbCircle
 10
81.303547
 20
9.609955
 30
0.0
 40
0.375
100
AcDbArc
 50
83.6709159168328
 51
220.208582
  0
ARC
  5
   1EC
100
AcDbEntity
  8
L12
 60
     0
100
AcDbCircle
 10
81.3724462777783
 20
10.2311457030225
 30
0.0
 40
0.25
100
AcDbArc
 50
263.670915916834
 51
287.146210538591
  0
ARC
  5
   1ED
100
AcDbEntity
  8
L12
 60
     0
100
AcDbCircle
 10
56.280365
 20
91.560775
 30
0.0
 40
85.362403
100
AcDbArc
 50
287.146210538592
 51
289.212667
  0
ARC
  5
   1EE
100
AcDbEntity
  8
L12
 60
     0
100
AcDbCircle
 10
84.61784
 20
10.24452
 30
0.0
 40
0.75
100
AcDbArc
 50
94.6899689999999
 51
109.212667
  0
ARC
  5
   1EF
100
AcDbEntity
  8
L12
 60
     0
100
AcDbCircle
 10
85.295383
 20
1.9857
 30
0.0
 40
9.036566
100
AcDbArc
 50
92.5690701668946
 51
94.6899690000001
  0
ARC
  5
   1F0
100
AcDbEntity
  8
L12
 60
     0
100
AcDbCircle
 10
84.8948129586891
 20
10.9132839684855
 30
0.0
 40
0.1
100
AcDbArc
 50
20.0000047869377
 51
92.569070166897
  0
LINE
  5
   1F1
100
AcDbEntity
  8
L12
 60
     0
100
AcDbLine
 10
84.9887822179102
 20
10.947485990669
 30
0.0
 11
85.300145
 21
10.092024
 31
0.0
  0
ARC
  5
   1F2
100
AcDbEntity
  8
L12
 60
     0
100
AcDbCircle
 10
85.535068
 20
10.177529
 30
0.0
 40
0.25
100
AcDbArc
 50
200.000000000001
 51
286.972966000001
  0
LINE
  5
   1F3
100
AcDbEntity
  8
L12
 60
     0
100
AcDbLine
 10
85.608048
 20
9.938418
 30
0.0
 11
85.617626
 21
9.941341
 31
0.0
  0
ARC
  5
   1F4
100
AcDbEntity
  8
L12
 60
     0
100
AcDbCircle
 10
85.544646
 20
10.180452
 30
0.0
 40
0.25
100
AcDbArc
 50
286.972966000001
 51
380.0
  0
LINE
  5
   1F5
100
AcDbEntity
  8
L12
 60
     0
100
AcDbLine
 10
85.779569
 20
10.265957
 30
0.0
 11
85.558539
 21
10.873232
 31
0.0
  0
ARC
  5
   1F6
100
AcDbEntity
  8
L12
 60
     0
100
AcDbCircle
 10
85.652508
 20
10.907434
 30
0.0
 40
0.1
100
AcDbArc
 50
83.3453070000005
 51
200.000000000001
  0
ARC
  5
   1F7
100
AcDbEntity
  8
L12
 60
     0
100
AcDbCircle
 10
85.470708
 20
9.349209
 30
0.0
 40
1.668795
100
AcDbArc
 50
3.66866899999998
 51
83.3453070000002
  0
LINE
  5
   1F8
100
AcDbEntity
  8
L12
 60
     0
100
AcDbLine
 10
87.510982
 20
7.892631
 30
0.0
 11
87.500982
 21
7.892631
 31
0.0
  0
ARC
  5
   1F9
100
AcDbEntity
  8
L12
 60
     0
100
AcDbCircle
 10
87.505982
 20
9.517631
 30
0.0
 40
0.375
100
AcDbArc
 50
180.0
 51
270.152788382678
  0
ARC
  5
   1FA
100
AcDbEntity
  8
L12
 60
     0
100
AcDbCircle
 10
87.505982
 20
9.517631
 30
0.0
 40
0.375
100
AcDbArc
 50
270.152788383729
 51
360.305576766407
  0
ARC
  5
   1FB
100
AcDbEntity
  8
L12
 60
     0
100
AcDbCircle
 10
89.5421252983659
 20
3.36006611279563
 30
0.0
 40
1.668795
100
AcDbArc
 50
96.9602697664078
 51
176.636907766407
  0
ARC
  5
   1FC
100
AcDbEntity
  8
L12
 60
     0
100
AcDbCircle
 10
89.3520174097109
 20
4.91729935842589
 30
0.0
 40
0.1
100
AcDbArc
 50
340.305576766406
 51
456.960269766404
  0
LINE
  5
   1FD
100
AcDbEntity
  8
L12
 60
     0
100
AcDbLine
 10
89.4461674826419
 20
4.88359900928704
 30
0.0
 11
89.228379403126
 21
4.27515382774166
 31
0.0
  0
ARC
  5
   1FE
100
AcDbEntity
  8
L12
 60
     0
100
AcDbCircle
 10
89.4637550854465
 20
4.19090295756118
 30
0.0
 40
0.25
100
AcDbArc
 50
160.305576766408
 51
253.332610766407
  0
LINE
  5
   1FF
100
AcDbEntity
  8
L12
 60
     0
100
AcDbLine
 10
89.3920513729751
 20
3.95140613432792
 30
0.0
 11
89.4016448259781
 21
3.9485342582026
 31
0.0
  0
ARC
  5
   200
100
AcDbEntity
  8
L12
 60
     0
100
AcDbCircle
 10
89.4733485384495
 20
4.18803108143585
 30
0.0
 40
0.25
100
AcDbArc
 50
253.332610766406
 51
340.305576766408
  0
LINE
  5
   201
100
AcDbEntity
  8
L12
 60
     0
100
AcDbLine
 10
89.70872422077
 20
4.10378021125538
 30
0.0
 11
90.0155201431143
 21
4.96089062513624
 31
0.0
  0
ARC
  5
   202
100
AcDbEntity
  8
L12
 60
     0
100
AcDbCircle
 10
90.1096704753811
 20
4.92719025519672
 30
0.0
 40
0.1
100
AcDbArc
 50
87.7365065995133
 51
160.305571979472
  0
ARC
  5
   203
100
AcDbEntity
  8
L12
 60
     0
100
AcDbCircle
 10
89.7567195736066
 20
-4.00240310247039
 30
0.0
 40
9.036566
100
AcDbArc
 50
85.6156077664073
 51
87.7365065995129
  0
ARC
  5
   204
100
AcDbEntity
  8
L12
 60
     0
100
AcDbCircle
 10
90.3902062107292
 20
4.25991297656193
 30
0.0
 40
0.75
100
AcDbArc
 50
71.0929097664072
 51
85.6156077664075
  0
ARC
  5
   205
100
AcDbEntity
  8
L12
 60
     0
100
AcDbCircle
 10
118.293594582368
 20
85.7261436122195
 30
0.0
 40
85.362403
100
AcDbArc
 50
251.092909766407
 51
253.159366227816
  0
ARC
  5
   206
100
AcDbEntity
  8
L12
 60
     0
100
AcDbCircle
 10
93.635625105645
 20
4.26384751323015
 30
0.0
 40
0.25
100
AcDbArc
 50
253.159366227816
 51
276.634660849571
  0
ARC
  5
   207
100
AcDbEntity
  8
L12
 60
     0
100
AcDbCircle
 10
93.7078363970532
 20
3.64303310505878
 30
0.0
 40
0.375
100
AcDbArc
 50
320.096994766406
 51
456.634660849575
  0
ARC
  5
   208
100
AcDbEntity
  8
L12
 60
     0
100
AcDbCircle
 10
88.0802383829591
 20
8.34893739035456
 30
0.0
 40
7.710898
100
AcDbArc
 50
268.46075485994
 51
320.096994766407
  0
ARC
  5
   209
100
AcDbEntity
  8
L12
 60
     0
100
AcDbCircle
 10
87.8757969958197
 20
0.74078570379963
 30
0.0
 40
0.1
100
AcDbArc
 50
180.305576766407
 51
268.460754859932
  0
LINE
  5
   20A
100
AcDbEntity
  8
L12
 60
     0
100
AcDbLine
 10
87.7757984180318
 20
0.740252374258863
 30
0.0
 11
87.7709783022485
 21
1.64401765680599
 31
0.0
  0
ARC
  5
   20B
100
AcDbEntity
  8
L12
 60
     0
100
AcDbCircle
 10
87.5209818577788
 20
1.64268433295408
 30
0.0
 40
0.25
100
AcDbArc
 50
0.305576766407502
 51
92.4452230031556
  0
ARC
  5
   20C
100
AcDbEntity
  8
L12
 60
     0
100
AcDbCircle
 10
87.500982
 20
1.642631
 30
0.0
 40
0.25
100
AcDbArc
 50
87.8603537632518
 51
180.0
  0
LINE
  5
   20D
100
AcDbEntity
  8
L12
 60
     0
100
AcDbLine
 10
87.250982
 20
1.642631
 30
0.0
 11
87.250982
 21
0.73885286381078
 31
0.0
  0
ARC
  5
   20E
100
AcDbEntity
  8
L12
 60
     0
100
AcDbCircle
 10
87.150982
 20
0.73885286381078
 30
0.0
 40
0.1
100
AcDbArc
 50
271.844821906471
 51
360.0
  0
ARC
  5
   20F
100
AcDbEntity
  8
L12
 60
     0
100
AcDbCircle
 10
86.905967
 20
8.345806
 30
0.0
 40
7.710898
100
AcDbArc
 50
220.208582
 51
271.844821906468
  0
ARC
  5
   210
100
AcDbEntity
  8
L12
 60
     0
100
AcDbCircle
 10
81.303547
 20
3.609955
 30
0.0
 40
0.375
100
AcDbArc
 50
83.6709159168328
 51
220.208582
  0
ARC
  5
   211
100
AcDbEntity
  8
L12
 60
     0
100
AcDbCircle
 10
81.3724462777783
 20
4.23114570302253
 30
0.0
 40
0.25
100
AcDbArc
 50
263.670915916834
 51
287.146210538591
  0
ARC
  5
   212
100
AcDbEntity
  8
L12
 60
     0
100
AcDbCircle
 10
56.280365
 20
85.560775
 30
0.0
 40
85.362403
100
AcDbArc
 50
287.146210538592
 51
289.212667
  0
ARC
  5
   213
100
AcDbEntity
  8
L12
 60
     0
100
AcDbCircle
 10
84.61784
 20
4.24452
 30
0.0
 40
0.75
100
AcDbArc
 50
94.6899689999999
 51
109.212667
  0
ARC
  5
   214
100
AcDbEntity
  8
L12
 60
     0
100
AcDbCircle
 10
85.295383
 20
-4.0143
 30
0.0
 40
9.036566
100
AcDbArc
 50
92.5690701668946
 51
94.6899690000001
  0
ARC
  5
   215
100
AcDbEntity
  8
L12
 60
     0
100
AcDbCircle
 10
84.8948129586891
 20
4.91328396848555
 30
0.0
 40
0.1
100
AcDbArc
 50
20.0000047869377
 51
92.569070166897
  0
LINE
  5
   216
100
AcDbEntity
  8
L12
 60
     0
100
AcDbLine
 10
84.9887822179102
 20
4.94748599066904
 30
0.0
 11
85.300145
 21
4.092024
 31
0.0
  0
ARC
  5
   217
100
AcDbEntity
  8
L12
 60
     0
100
AcDbCircle
 10
85.535068
 20
4.177529
 30
0.0
 40
0.25
100
AcDbArc
 50
200.000000000001
 51
286.972966000001
  0
LINE
  5
   218
100
AcDbEntity
  8
L12
 60
     0
100
AcDbLine
 10
85.608048
 20
3.938418
 30
0.0
 11
85.617626
 21
3.941341
 31
0.0
  0
ARC
  5
   219
100
AcDbEntity
  8
L12
 60
     0
100
AcDbCircle
 10
85.544646
 20
4.180452
 30
0.0
 40
0.25
100
AcDbArc
 50
286.972966000001
 51
380.0
  0
LINE
  5
   21A
100
AcDbEntity
  8
L12
 60
     0
100
AcDbLine
 10
85.779569
 20
4.265957
 30
0.0
 11
85.558539
 21
4.873232
 31
0.0
  0
ARC
  5
   21B
100
AcDbEntity
  8
L12
 60
     0
100
AcDbCircle
 10
85.652508
 20
4.907434
 30
0.0
 40
0.1
100
AcDbArc
 50
83.3453070000005
 51
200.000000000001
  0
ARC
  5
   21C
100
AcDbEntity
  8
L12
 60
     0
100
AcDbCircle
 10
85.470708
 20
3.349209
 30
0.0
 40
1.668795
100
AcDbArc
 50
3.66866899999998
 51
83.3453070000002
  0
LINE
  5
   21D
100
AcDbEntity
  8
L12
 60
     0
100
AcDbLine
 10
87.510982
 20
1.892631
 30
0.0
 11
87.500982
 21
1.892631
 31
0.0
  0
ARC
  5
   21E
100
AcDbEntity
  8
L12
 60
     0
100
AcDbCircle
 10
87.505982
 20
3.517631
 30
0.0
 40
0.375
100
AcDbArc
 50
180.0
 51
270.152788382678
  0
ARC
  5
   21F
100
AcDbEntity
  8
L12
 60
     0
100
AcDbCircle
 10
87.505982
 20
3.517631
 30
0.0
 40
0.375
100
AcDbArc
 50
270.152788383729
 51
360.305576766407
  0
LINE
  5
   220
100
AcDbEntity
  8
L13
 60
     0
100
AcDbLine
 10
53.827729
 20
47.518002
 30
0.0
 11
53.879009
 21
47.518002
 31
0.0
  0
ARC
  5
   221
100
AcDbEntity
  8
L13
 60
     0
100
AcDbCircle
 10
53.879009
 20
47.268002
 30
0.0
 40
0.25
100
AcDbArc
 50
0.0
 51
90.0
  0
LINE
  5
   222
100
AcDbEntity
  8
L13
 60
     0
100
AcDbLine
 10
54.129009
 20
47.268002
 30
0.0
 11
54.129009
 21
46.768002
 31
0.0
  0
ARC
  5
   223
100
AcDbEntity
  8
L13
 60
     0
100
AcDbCircle
 10
54.379009
 20
46.768002
 30
0.0
 40
0.25
100
AcDbArc
 50
180.0
 51
270.0
  0
LINE
  5
   224
100
AcDbEntity
  8
L13
 60
     0
100
AcDbLine
 10
54.379009
 20
46.518002
 30
0.0
 11
55.749009
 21
46.518002
 31
0.0
  0
ARC
  5
   225
100
AcDbEntity
  8
L13
 60
     0
100
AcDbCircle
 10
55.749009
 20
46.268002
 30
0.0
 40
0.25
100
AcDbArc
 50
0.0
 51
90.0
  0
LINE
  5
   226
100
AcDbEntity
  8
L13
 60
     0
100
AcDbLine
 10
55.999009
 20
46.268002
 30
0.0
 11
55.999009
 21
44.768002
 31
0.0
  0
ARC
  5
   227
100
AcDbEntity
  8
L13
 60
     0
100
AcDbCircle
 10
56.249009
 20
44.768002
 30
0.0
 40
0.25
100
AcDbArc
 50
180.0
 51
270.0
  0
LINE
  5
   228
100
AcDbEntity
  8
L13
 60
     0
100
AcDbLine
 10
56.249009
 20
44.518002
 30
0.0
 11
56.259009
 21
44.518002
 31
0.0
  0
ARC
  5
   229
100
AcDbEntity
  8
L13
 60
     0
100
AcDbCircle
 10
56.259009
 20
44.768002
 30
0.0
 40
0.25
100
AcDbArc
 50
270.0
 51
360.0
  0
LINE
  5
   22A
100
AcDbEntity
  8
L13
 60
     0
100
AcDbLine
 10
56.509009
 20
44.768002
 30
0.0
 11
56.509009
 21
46.268002
 31
0.0
  0
ARC
  5
   22B
100
AcDbEntity
  8
L13
 60
     0
100
AcDbCircle
 10
56.759009
 20
46.268002
 30
0.0
 40
0.25
100
AcDbArc
 50
90.0
 51
180.0
  0
LINE
  5
   22C
100
AcDbEntity
  8
L13
 60
     0
100
AcDbLine
 10
56.759009
 20
46.518002
 30
0.0
 11
58.129009
 21
46.518002
 31
0.0
  0
ARC
  5
   22D
100
AcDbEntity
  8
L13
 60
     0
100
AcDbCircle
 10
58.129009
 20
46.768002
 30
0.0
 40
0.25
100
AcDbArc
 50
270.0
 51
360.0
  0
LINE
  5
   22E
100
AcDbEntity
  8
L13
 60
     0
100
AcDbLine
 10
58.379009
 20
46.768002
 30
0.0
 11
58.379009
 21
47.268002
 31
0.0
  0
ARC
  5
   22F
100
AcDbEntity
  8
L13
 60
     0
100
AcDbCircle
 10
58.629009
 20
47.268002
 30
0.0
 40
0.25
100
AcDbArc
 50
90.0
 51
180.0
  0
LINE
  5
   230
100
AcDbEntity
  8
L13
 60
     0
100
AcDbLine
 10
58.629009
 20
47.518002
 30
0.0
 11
58.680288
 21
47.518002
 31
0.0
  0
ARC
  5
   231
100
AcDbEntity
  8
L13
 60
     0
100
AcDbCircle
 10
58.680288
 20
45.518002
 30
0.0
 40
2.0
100
AcDbArc
 50
7.94347200000001
 51
90.0
  0
LINE
  5
   232
100
AcDbEntity
  8
L13
 60
     0
100
AcDbLine
 10
60.661098
 20
45.794394
 30
0.0
 11
61.311849
 21
41.13068
 31
0.0
  0
ARC
  5
   233
100
AcDbEntity
  8
L13
 60
     0
100
AcDbCircle
 10
58.59613
 20
40.929897
 30
0.0
 40
2.723131
100
AcDbArc
 50
324.203117
 51
364.228404
  0
LINE
  5
   234
100
AcDbEntity
  8
L13
 60
     0
100
AcDbLine
 10
60.80485
 20
39.3371
 30
0.0
 11
60.507728
 21
39.295641
 31
0.0
  0
ARC
  5
   235
100
AcDbEntity
  8
L13
 60
     0
100
AcDbCircle
 10
60.480089
 20
39.493722
 30
0.0
 40
0.2
100
AcDbArc
 50
187.943472
 51
277.943472
  0
LINE
  5
   236
100
AcDbEntity
  8
L13
 60
     0
100
AcDbLine
 10
60.282008
 20
39.466083
 30
0.0
 11
59.793664
 21
42.965881
 31
0.0
  0
ARC
  5
   237
100
AcDbEntity
  8
L13
 60
     0
100
AcDbCircle
 10
59.546063
 20
42.931332
 30
0.0
 40
0.25
100
AcDbArc
 50
7.94347200000125
 51
97.9434719999996
  0
LINE
  5
   238
100
AcDbEntity
  8
L13
 60
     0
100
AcDbLine
 10
59.511514
 20
43.178933
 30
0.0
 11
59.50161
 21
43.177551
 31
0.0
  0
ARC
  5
   239
100
AcDbEntity
  8
L13
 60
     0
100
AcDbCircle
 10
59.536159
 20
42.92995
 30
0.0
 40
0.25
100
AcDbArc
 50
97.9434719999996
 51
187.943472
  0
LINE
  5
   23A
100
AcDbEntity
  8
L13
 60
     0
100
AcDbLine
 10
59.288558
 20
42.895401
 30
0.0
 11
59.956382
 21
38.109331
 31
0.0
  0
ARC
  5
   23B
100
AcDbEntity
  8
L13
 60
     0
100
AcDbCircle
 10
59.758301
 20
38.081692
 30
0.0
 40
0.2
100
AcDbArc
 50
248.198591
 51
367.943472000002
  0
LINE
  5
   23C
100
AcDbEntity
  8
L13
 60
     0
100
AcDbLine
 10
59.684022
 20
37.895997
 30
0.0
 11
56.346856
 21
39.230863
 31
0.0
  0
ARC
  5
   23D
100
AcDbEntity
  8
L13
 60
     0
100
AcDbCircle
 10
56.254009
 20
38.998744
 30
0.0
 40
0.25
100
AcDbArc
 50
68.1985909999992
 51
111.801408999999
  0
LINE
  5
   23E
100
AcDbEntity
  8
L13
 60
     0
100
AcDbLine
 10
56.161161
 20
39.230863
 30
0.0
 11
52.823995
 21
37.895997
 31
0.0
  0
ARC
  5
   23F
100
AcDbEntity
  8
L13
 60
     0
100
AcDbCircle
 10
52.749717
 20
38.081692
 30
0.0
 40
0.2
100
AcDbArc
 50
172.056527999998
 51
291.801409
  0
LINE
  5
   240
100
AcDbEntity
  8
L13
 60
     0
100
AcDbLine
 10
52.551636
 20
38.109331
 30
0.0
 11
53.21946
 21
42.895401
 31
0.0
  0
ARC
  5
   241
100
AcDbEntity
  8
L13
 60
     0
100
AcDbCircle
 10
52.971859
 20
42.92995
 30
0.0
 40
0.25
100
AcDbArc
 50
352.056528
 51
442.056528
  0
LINE
  5
   242
100
AcDbEntity
  8
L13
 60
     0
100
AcDbLine
 10
53.006408
 20
43.177551
 30
0.0
 11
52.996504
 21
43.178933
 31
0.0
  0
ARC
  5
   243
100
AcDbEntity
  8
L13
 60
     0
100
AcDbCircle
 10
52.961955
 20
42.931332
 30
0.0
 40
0.25
100
AcDbArc
 50
82.0565279999987
 51
172.056527999999
  0
LINE
  5
   244
100
AcDbEntity
  8
L13
 60
     0
100
AcDbLine
 10
52.714353
 20
42.965881
 30
0.0
 11
52.226009
 21
39.466083
 31
0.0
  0
ARC
  5
   245
100
AcDbEntity
  8
L13
 60
     0
100
AcDbCircle
 10
52.027928
 20
39.493722
 30
0.0
 40
0.2
100
AcDbArc
 50
262.056528
 51
352.056528
  0
LINE
  5
   246
100
AcDbEntity
  8
L13
 60
     0
100
AcDbLine
 10
52.000289
 20
39.295641
 30
0.0
 11
51.703168
 21
39.3371
 31
0.0
  0
ARC
  5
   247
100
AcDbEntity
  8
L13
 60
     0
100
AcDbCircle
 10
53.911887
 20
40.929897
 30
0.0
 40
2.723131
100
AcDbArc
 50
175.771596
 51
215.796883
  0
LINE
  5
   248
100
AcDbEntity
  8
L13
 60
     0
100
AcDbLine
 10
51.196169
 20
41.13068
 30
0.0
 11
51.84692
 21
45.794394
 31
0.0
  0
ARC
  5
   249
100
AcDbEntity
  8
L13
 60
     0
100
AcDbCircle
 10
53.827729
 20
45.518002
 30
0.0
 40
2.0
100
AcDbArc
 50
90.0
 51
172.056528
  0
LINE
  5
   24A
100
AcDbEntity
  8
L13
 60
     0
100
AcDbLine
 10
51.827729
 20
35.518002
 30
0.0
 11
51.879009
 21
35.518002
 31
0.0
  0
ARC
  5
   24B
100
AcDbEntity
  8
L13
 60
     0
100
AcDbCircle
 10
51.879009
 20
35.268002
 30
0.0
 40
0.25
100
AcDbArc
 50
0.0
 51
90.0
  0
LINE
  5
   24C
100
AcDbEntity
  8
L13
 60
     0
100
AcDbLine
 10
52.129009
 20
35.268002
 30
0.0
 11
52.129009
 21
34.768002
 31
0.0
  0
ARC
  5
   24D
100
AcDbEntity
  8
L13
 60
     0
100
AcDbCircle
 10
52.379009
 20
34.768002
 30
0.0
 40
0.25
100
AcDbArc
 50
180.0
 51
270.0
  0
LINE
  5
   24E
100
AcDbEntity
  8
L13
 60
     0
100
AcDbLine
 10
52.379009
 20
34.518002
 30
0.0
 11
53.749009
 21
34.518002
 31
0.0
  0
ARC
  5
   24F
100
AcDbEntity
  8
L13
 60
     0
100
AcDbCircle
 10
53.749009
 20
34.268002
 30
0.0
 40
0.25
100
AcDbArc
 50
0.0
 51
90.0
  0
LINE
  5
   250
100
AcDbEntity
  8
L13
 60
     0
100
AcDbLine
 10
53.999009
 20
34.268002
 30
0.0
 11
53.999009
 21
32.768002
 31
0.0
  0
ARC
  5
   251
100
AcDbEntity
  8
L13
 60
     0
100
AcDbCircle
 10
54.249009
 20
32.768002
 30
0.0
 40
0.25
100
AcDbArc
 50
180.0
 51
270.0
  0
LINE
  5
   252
100
AcDbEntity
  8
L13
 60
     0
100
AcDbLine
 10
54.249009
 20
32.518002
 30
0.0
 11
54.259009
 21
32.518002
 31
0.0
  0
ARC
  5
   253
100
AcDbEntity
  8
L13
 60
     0
100
AcDbCircle
 10
54.259009
 20
32.768002
 30
0.0
 40
0.25
100
AcDbArc
 50
270.0
 51
360.0
  0
LINE
  5
   254
100
AcDbEntity
  8
L13
 60
     0
100
AcDbLine
 10
54.509009
 20
32.768002
 30
0.0
 11
54.509009
 21
34.268002
 31
0.0
  0
ARC
  5
   255
100
AcDbEntity
  8
L13
 60
     0
100
AcDbCircle
 10
54.759009
 20
34.268002
 30
0.0
 40
0.25
100
AcDbArc
 50
90.0
 51
180.0
  0
LINE
  5
   256
100
AcDbEntity
  8
L13
 60
     0
100
AcDbLine
 10
54.759009
 20
34.518002
 30
0.0
 11
56.129009
 21
34.518002
 31
0.0
  0
ARC
  5
   257
100
AcDbEntity
  8
L13
 60
     0
100
AcDbCircle
 10
56.129009
 20
34.768002
 30
0.0
 40
0.25
100
AcDbArc
 50
270.0
 51
360.0
  0
LINE
  5
   258
100
AcDbEntity
  8
L13
 60
     0
100
AcDbLine
 10
56.379009
 20
34.768002
 30
0.0
 11
56.379009
 21
35.268002
 31
0.0
  0
ARC
  5
   259
100
AcDbEntity
  8
L13
 60
     0
100
AcDbCircle
 10
56.629009
 20
35.268002
 30
0.0
 40
0.25
100
AcDbArc
 50
90.0
 51
180.0
  0
LINE
  5
   25A
100
AcDbEntity
  8
L13
 60
     0
100
AcDbLine
 10
56.629009
 20
35.518002
 30
0.0
 11
56.680288
 21
35.518002
 31
0.0
  0
ARC
  5
   25B
100
AcDbEntity
  8
L13
 60
     0
100
AcDbCircle
 10
56.680288
 20
33.518002
 30
0.0
 40
2.0
100
AcDbArc
 50
7.94347200000001
 51
90.0
  0
LINE
  5
   25C
100
AcDbEntity
  8
L13
 60
     0
100
AcDbLine
 10
58.661098
 20
33.794394
 30
0.0
 11
59.311849
 21
29.13068
 31
0.0
  0
ARC
  5
   25D
100
AcDbEntity
  8
L13
 60
     0
100
AcDbCircle
 10
56.59613
 20
28.929897
 30
0.0
 40
2.723131
100
AcDbArc
 50
324.203117
 51
364.228404
  0
LINE
  5
   25E
100
AcDbEntity
  8
L13
 60
     0
100
AcDbLine
 10
58.80485
 20
27.3371
 30
0.0
 11
58.507728
 21
27.295641
 31
0.0
  0
ARC
  5
   25F
100
AcDbEntity
  8
L13
 60
     0
100
AcDbCircle
 10
58.480089
 20
27.493722
 30
0.0
 40
0.2
100
AcDbArc
 50
187.943472
 51
277.943472
  0
LINE
  5
   260
100
AcDbEntity
  8
L13
 60
     0
100
AcDbLine
 10
58.282008
 20
27.466083
 30
0.0
 11
57.793664
 21
30.965881
 31
0.0
  0
ARC
  5
   261
100
AcDbEntity
  8
L13
 60
     0
100
AcDbCircle
 10
57.546063
 20
30.931332
 30
0.0
 40
0.25
100
AcDbArc
 50
7.94347200000125
 51
97.9434719999996
  0
LINE
  5
   262
100
AcDbEntity
  8
L13
 60
     0
100
AcDbLine
 10
57.511514
 20
31.178933
 30
0.0
 11
57.50161
 21
31.177551
 31
0.0
  0
ARC
  5
   263
100
AcDbEntity
  8
L13
 60
     0
100
AcDbCircle
 10
57.536159
 20
30.92995
 30
0.0
 40
0.25
100
AcDbArc
 50
97.9434719999996
 51
187.943472
  0
LINE
  5
   264
100
AcDbEntity
  8
L13
 60
     0
100
AcDbLine
 10
57.288558
 20
30.895401
 30
0.0
 11
57.956382
 21
26.109331
 31
0.0
  0
ARC
  5
   265
100
AcDbEntity
  8
L13
 60
     0
100
AcDbCircle
 10
57.758301
 20
26.081692
 30
0.0
 40
0.2
100
AcDbArc
 50
248.198591
 51
367.943472000002
  0
LINE
  5
   266
100
AcDbEntity
  8
L13
 60
     0
100
AcDbLine
 10
57.684022
 20
25.895997
 30
0.0
 11
54.346856
 21
27.230863
 31
0.0
  0
ARC
  5
   267
100
AcDbEntity
  8
L13
 60
     0
100
AcDbCircle
 10
54.254009
 20
26.998744
 30
0.0
 40
0.25
100
AcDbArc
 50
68.1985909999992
 51
111.801408999999
  0
LINE
  5
   268
100
AcDbEntity
  8
L13
 60
     0
100
AcDbLine
 10
54.161161
 20
27.230863
 30
0.0
 11
50.823995
 21
25.895997
 31
0.0
  0
ARC
  5
   269
100
AcDbEntity
  8
L13
 60
     0
100
AcDbCircle
 10
50.749717
 20
26.081692
 30
0.0
 40
0.2
100
AcDbArc
 50
172.056527999998
 51
291.801409
  0
LINE
  5
   26A
100
AcDbEntity
  8
L13
 60
     0
100
AcDbLine
 10
50.551636
 20
26.109331
 30
0.0
 11
51.21946
 21
30.895401
 31
0.0
  0
ARC
  5
   26B
100
AcDbEntity
  8
L13
 60
     0
100
AcDbCircle
 10
50.971859
 20
30.92995
 30
0.0
 40
0.25
100
AcDbArc
 50
352.056528
 51
442.056528
  0
LINE
  5
   26C
100
AcDbEntity
  8
L13
 60
     0
100
AcDbLine
 10
51.006408
 20
31.177551
 30
0.0
 11
50.996504
 21
31.178933
 31
0.0
  0
ARC
  5
   26D
100
AcDbEntity
  8
L13
 60
     0
100
AcDbCircle
 10
50.961955
 20
30.931332
 30
0.0
 40
0.25
100
AcDbArc
 50
82.0565279999987
 51
172.056527999999
  0
LINE
  5
   26E
100
AcDbEntity
  8
L13
 60
     0
100
AcDbLine
 10
50.714353
 20
30.965881
 30
0.0
 11
50.226009
 21
27.466083
 31
0.0
  0
ARC
  5
   26F
100
AcDbEntity
  8
L13
 60
     0
100
AcDbCircle
 10
50.027928
 20
27.493722
 30
0.0
 40
0.2
100
AcDbArc
 50
262.056528
 51
352.056528
  0
LINE
  5
   270
100
AcDbEntity
  8
L13
 60
     0
100
AcDbLine
 10
50.000289
 20
27.295641
 30
0.0
 11
49.703168
 21
27.3371
 31
0.0
  0
ARC
  5
   271
100
AcDbEntity
  8
L13
 60
     0
100
AcDbCircle
 10
51.911887
 20
28.929897
 30
0.0
 40
2.723131
100
AcDbArc
 50
175.771596
 51
215.796883
  0
LINE
  5
   272
100
AcDbEntity
  8
L13
 60
     0
100
AcDbLine
 10
49.196169
 20
29.13068
 30
0.0
 11
49.84692
 21
33.794394
 31
0.0
  0
ARC
  5
   273
100
AcDbEntity
  8
L13
 60
     0
100
AcDbCircle
 10
51.827729
 20
33.518002
 30
0.0
 40
2.0
100
AcDbArc
 50
90.0
 51
172.056528
  0
LINE
  5
   274
100
AcDbEntity
  8
L13
 60
     0
100
AcDbLine
 10
42.627729
 20
47.518002
 30
0.0
 11
42.679009
 21
47.518002
 31
0.0
  0
ARC
  5
   275
100
AcDbEntity
  8
L13
 60
     0
100
AcDbCircle
 10
42.679009
 20
47.268002
 30
0.0
 40
0.25
100
AcDbArc
 50
0.0
 51
90.0
  0
LINE
  5
   276
100
AcDbEntity
  8
L13
 60
     0
100
AcDbLine
 10
42.929009
 20
47.268002
 30
0.0
 11
42.929009
 21
46.768002
 31
0.0
  0
ARC
  5
   277
100
AcDbEntity
  8
L13
 60
     0
100
AcDbCircle
 10
43.179009
 20
46.768002
 30
0.0
 40
0.25
100
AcDbArc
 50
180.0
 51
270.0
  0
LINE
  5
   278
100
AcDbEntity
  8
L13
 60
     0
100
AcDbLine
 10
43.179009
 20
46.518002
 30
0.0
 11
44.549009
 21
46.518002
 31
0.0
  0
ARC
  5
   279
100
AcDbEntity
  8
L13
 60
     0
100
AcDbCircle
 10
44.549009
 20
46.268002
 30
0.0
 40
0.25
100
AcDbArc
 50
0.0
 51
90.0
  0
LINE
  5
   27A
100
AcDbEntity
  8
L13
 60
     0
100
AcDbLine
 10
44.799009
 20
46.268002
 30
0.0
 11
44.799009
 21
44.768002
 31
0.0
  0
ARC
  5
   27B
100
AcDbEntity
  8
L13
 60
     0
100
AcDbCircle
 10
45.049009
 20
44.768002
 30
0.0
 40
0.25
100
AcDbArc
 50
180.0
 51
270.0
  0
LINE
  5
   27C
100
AcDbEntity
  8
L13
 60
     0
100
AcDbLine
 10
45.049009
 20
44.518002
 30
0.0
 11
45.059009
 21
44.518002
 31
0.0
  0
ARC
  5
   27D
100
AcDbEntity
  8
L13
 60
     0
100
AcDbCircle
 10
45.059009
 20
44.768002
 30
0.0
 40
0.25
100
AcDbArc
 50
270.0
 51
360.0
  0
LINE
  5
   27E
100
AcDbEntity
  8
L13
 60
     0
100
AcDbLine
 10
45.309009
 20
44.768002
 30
0.0
 11
45.309009
 21
46.268002
 31
0.0
  0
ARC
  5
   27F
100
AcDbEntity
  8
L13
 60
     0
100
AcDbCircle
 10
45.559009
 20
46.268002
 30
0.0
 40
0.25
100
AcDbArc
 50
90.0
 51
180.0
  0
LINE
  5
   280
100
AcDbEntity
  8
L13
 60
     0
100
AcDbLine
 10
45.559009
 20
46.518002
 30
0.0
 11
46.929009
 21
46.518002
 31
0.0
  0
ARC
  5
   281
100
AcDbEntity
  8
L13
 60
     0
100
AcDbCircle
 10
46.929009
 20
46.768002
 30
0.0
 40
0.25
100
AcDbArc
 50
270.0
 51
360.0
  0
LINE
  5
   282
100
AcDbEntity
  8
L13
 60
     0
100
AcDbLine
 10
47.179009
 20
46.768002
 30
0.0
 11
47.179009
 21
47.268002
 31
0.0
  0
ARC
  5
   283
100
AcDbEntity
  8
L13
 60
     0
100
AcDbCircle
 10
47.429009
 20
47.268002
 30
0.0
 40
0.25
100
AcDbArc
 50
90.0
 51
180.0
  0
LINE
  5
   284
100
AcDbEntity
  8
L13
 60
     0
100
AcDbLine
 10
47.429009
 20
47.518002
 30
0.0
 11
47.480288
 21
47.518002
 31
0.0
  0
ARC
  5
   285
100
AcDbEntity
  8
L13
 60
     0
100
AcDbCircle
 10
47.480288
 20
45.518002
 30
0.0
 40
2.0
100
AcDbArc
 50
7.94347200000001
 51
90.0
  0
LINE
  5
   286
100
AcDbEntity
  8
L13
 60
     0
100
AcDbLine
 10
49.461098
 20
45.794394
 30
0.0
 11
50.111849
 21
41.13068
 31
0.0
  0
ARC
  5
   287
100
AcDbEntity
  8
L13
 60
     0
100
AcDbCircle
 10
47.39613
 20
40.929897
 30
0.0
 40
2.723131
100
AcDbArc
 50
324.203117
 51
364.228404
  0
LINE
  5
   288
100
AcDbEntity
  8
L13
 60
     0
100
AcDbLine
 10
49.60485
 20
39.3371
 30
0.0
 11
49.307728
 21
39.295641
 31
0.0
  0
ARC
  5
   289
100
AcDbEntity
  8
L13
 60
     0
100
AcDbCircle
 10
49.280089
 20
39.493722
 30
0.0
 40
0.2
100
AcDbArc
 50
187.943472
 51
277.943472
  0
LINE
  5
   28A
100
AcDbEntity
  8
L13
 60
     0
100
AcDbLine
 10
49.082008
 20
39.466083
 30
0.0
 11
48.593664
 21
42.965881
 31
0.0
  0
ARC
  5
   28B
100
AcDbEntity
  8
L13
 60
     0
100
AcDbCircle
 10
48.346063
 20
42.931332
 30
0.0
 40
0.25
100
AcDbArc
 50
7.94347200000125
 51
97.9434719999996
  0
LINE
  5
   28C
100
AcDbEntity
  8
L13
 60
     0
100
AcDbLine
 10
48.311514
 20
43.178933
 30
0.0
 11
48.30161
 21
43.177551
 31
0.0
  0
ARC
  5
   28D
100
AcDbEntity
  8
L13
 60
     0
100
AcDbCircle
 10
48.336159
 20
42.92995
 30
0.0
 40
0.25
100
AcDbArc
 50
97.9434719999996
 51
187.943472
  0
LINE
  5
   28E
100
AcDbEntity
  8
L13
 60
     0
100
AcDbLine
 10
48.088558
 20
42.895401
 30
0.0
 11
48.756382
 21
38.109331
 31
0.0
  0
ARC
  5
   28F
100
AcDbEntity
  8
L13
 60
     0
100
AcDbCircle
 10
48.558301
 20
38.081692
 30
0.0
 40
0.2
100
AcDbArc
 50
248.198591
 51
367.943472000002
  0
LINE
  5
   290
100
AcDbEntity
  8
L13
 60
     0
100
AcDbLine
 10
48.484022
 20
37.895997
 30
0.0
 11
45.146856
 21
39.230863
 31
0.0
  0
ARC
  5
   291
100
AcDbEntity
  8
L13
 60
     0
100
AcDbCircle
 10
45.054009
 20
38.998744
 30
0.0
 40
0.25
100
AcDbArc
 50
68.1985909999992
 51
111.801408999999
  0
LINE
  5
   292
100
AcDbEntity
  8
L13
 60
     0
100
AcDbLine
 10
44.961161
 20
39.230863
 30
0.0
 11
41.623995
 21
37.895997
 31
0.0
  0
ARC
  5
   293
100
AcDbEntity
  8
L13
 60
     0
100
AcDbCircle
 10
41.549717
 20
38.081692
 30
0.0
 40
0.2
100
AcDbArc
 50
172.056527999998
 51
291.801409
  0
LINE
  5
   294
100
AcDbEntity
  8
L13
 60
     0
100
AcDbLine
 10
41.351636
 20
38.109331
 30
0.0
 11
42.01946
 21
42.895401
 31
0.0
  0
ARC
  5
   295
100
AcDbEntity
  8
L13
 60
     0
100
AcDbCircle
 10
41.771859
 20
42.92995
 30
0.0
 40
0.25
100
AcDbArc
 50
352.056528
 51
442.056528
  0
LINE
  5
   296
100
AcDbEntity
  8
L13
 60
     0
100
AcDbLine
 10
41.806408
 20
43.177551
 30
0.0
 11
41.796504
 21
43.178933
 31
0.0
  0
ARC
  5
   297
100
AcDbEntity
  8
L13
 60
     0
100
AcDbCircle
 10
41.761955
 20
42.931332
 30
0.0
 40
0.25
100
AcDbArc
 50
82.0565279999987
 51
172.056527999999
  0
LINE
  5
   298
100
AcDbEntity
  8
L13
 60
     0
100
AcDbLine
 10
41.514353
 20
42.965881
 30
0.0
 11
41.026009
 21
39.466083
 31
0.0
  0
ARC
  5
   299
100
AcDbEntity
  8
L13
 60
     0
100
AcDbCircle
 10
40.827928
 20
39.493722
 30
0.0
 40
0.2
100
AcDbArc
 50
262.056528
 51
352.056528
  0
LINE
  5
   29A
100
AcDbEntity
  8
L13
 60
     0
100
AcDbLine
 10
40.800289
 20
39.295641
 30
0.0
 11
40.503168
 21
39.3371
 31
0.0
  0
ARC
  5
   29B
100
AcDbEntity
  8
L13
 60
     0
100
AcDbCircle
 10
42.711887
 20
40.929897
 30
0.0
 40
2.723131
100
AcDbArc
 50
175.771596
 51
215.796883
  0
LINE
  5
   29C
100
AcDbEntity
  8
L13
 60
     0
100
AcDbLine
 10
39.996169
 20
41.13068
 30
0.0
 11
40.64692
 21
45.794394
 31
0.0
  0
ARC
  5
   29D
100
AcDbEntity
  8
L13
 60
     0
100
AcDbCircle
 10
42.627729
 20
45.518002
 30
0.0
 40
2.0
100
AcDbArc
 50
90.0
 51
172.056528
  0
LINE
  5
   29E
100
AcDbEntity
  8
L13
 60
     0
100
AcDbLine
 10
40.827729
 20
35.518002
 30
0.0
 11
40.879009
 21
35.518002
 31
0.0
  0
ARC
  5
   29F
100
AcDbEntity
  8
L13
 60
     0
100
AcDbCircle
 10
40.879009
 20
35.268002
 30
0.0
 40
0.25
100
AcDbArc
 50
0.0
 51
90.0
  0
LINE
  5
   2A0
100
AcDbEntity
  8
L13
 60
     0
100
AcDbLine
 10
41.129009
 20
35.268002
 30
0.0
 11
41.129009
 21
34.768002
 31
0.0
  0
ARC
  5
   2A1
100
AcDbEntity
  8
L13
 60
     0
100
AcDbCircle
 10
41.379009
 20
34.768002
 30
0.0
 40
0.25
100
AcDbArc
 50
180.0
 51
270.0
  0
LINE
  5
   2A2
100
AcDbEntity
  8
L13
 60
     0
100
AcDbLine
 10
41.379009
 20
34.518002
 30
0.0
 11
42.749009
 21
34.518002
 31
0.0
  0
ARC
  5
   2A3
100
AcDbEntity
  8
L13
 60
     0
100
AcDbCircle
 10
42.749009
 20
34.268002
 30
0.0
 40
0.25
100
AcDbArc
 50
0.0
 51
90.0
  0
LINE
  5
   2A4
100
AcDbEntity
  8
L13
 60
     0
100
AcDbLine
 10
42.999009
 20
34.268002
 30
0.0
 11
42.999009
 21
32.768002
 31
0.0
  0
ARC
  5
   2A5
100
AcDbEntity
  8
L13
 60
     0
100
AcDbCircle
 10
43.249009
 20
32.768002
 30
0.0
 40
0.25
100
AcDbArc
 50
180.0
 51
270.0
  0
LINE
  5
   2A6
100
AcDbEntity
  8
L13
 60
     0
100
AcDbLine
 10
43.249009
 20
32.518002
 30
0.0
 11
43.259009
 21
32.518002
 31
0.0
  0
ARC
  5
   2A7
100
AcDbEntity
  8
L13
 60
     0
100
AcDbCircle
 10
43.259009
 20
32.768002
 30
0.0
 40
0.25
100
AcDbArc
 50
270.0
 51
360.0
  0
LINE
  5
   2A8
100
AcDbEntity
  8
L13
 60
     0
100
AcDbLine
 10
43.509009
 20
32.768002
 30
0.0
 11
43.509009
 21
34.268002
 31
0.0
  0
ARC
  5
   2A9
100
AcDbEntity
  8
L13
 60
     0
100
AcDbCircle
 10
43.759009
 20
34.268002
 30
0.0
 40
0.25
100
AcDbArc
 50
90.0
 51
180.0
  0
LINE
  5
   2AA
100
AcDbEntity
  8
L13
 60
     0
100
AcDbLine
 10
43.759009
 20
34.518002
 30
0.0
 11
45.129009
 21
34.518002
 31
0.0
  0
ARC
  5
   2AB
100
AcDbEntity
  8
L13
 60
     0
100
AcDbCircle
 10
45.129009
 20
34.768002
 30
0.0
 40
0.25
100
AcDbArc
 50
270.0
 51
360.0
  0
LINE
  5
   2AC
100
AcDbEntity
  8
L13
 60
     0
100
AcDbLine
 10
45.379009
 20
34.768002
 30
0.0
 11
45.379009
 21
35.268002
 31
0.0
  0
ARC
  5
   2AD
100
AcDbEntity
  8
L13
 60
     0
100
AcDbCircle
 10
45.629009
 20
35.268002
 30
0.0
 40
0.25
100
AcDbArc
 50
90.0
 51
180.0
  0
LINE
  5
   2AE
100
AcDbEntity
  8
L13
 60
     0
100
AcDbLine
 10
45.629009
 20
35.518002
 30
0.0
 11
45.680288
 21
35.518002
 31
0.0
  0
ARC
  5
   2AF
100
AcDbEntity
  8
L13
 60
     0
100
AcDbCircle
 10
45.680288
 20
33.518002
 30
0.0
 40
2.0
100
AcDbArc
 50
7.94347200000001
 51
90.0
  0
LINE
  5
   2B0
100
AcDbEntity
  8
L13
 60
     0
100
AcDbLine
 10
47.661098
 20
33.794394
 30
0.0
 11
48.311849
 21
29.13068
 31
0.0
  0
ARC
  5
   2B1
100
AcDbEntity
  8
L13
 60
     0
100
AcDbCircle
 10
45.59613
 20
28.929897
 30
0.0
 40
2.723131
100
AcDbArc
 50
324.203117
 51
364.228404
  0
LINE
  5
   2B2
100
AcDbEntity
  8
L13
 60
     0
100
AcDbLine
 10
47.80485
 20
27.3371
 30
0.0
 11
47.507728
 21
27.295641
 31
0.0
  0
ARC
  5
   2B3
100
AcDbEntity
  8
L13
 60
     0
100
AcDbCircle
 10
47.480089
 20
27.493722
 30
0.0
 40
0.2
100
AcDbArc
 50
187.943472
 51
277.943472
  0
LINE
  5
   2B4
100
AcDbEntity
  8
L13
 60
     0
100
AcDbLine
 10
47.282008
 20
27.466083
 30
0.0
 11
46.793664
 21
30.965881
 31
0.0
  0
ARC
  5
   2B5
100
AcDbEntity
  8
L13
 60
     0
100
AcDbCircle
 10
46.546063
 20
30.931332
 30
0.0
 40
0.25
100
AcDbArc
 50
7.94347200000125
 51
97.9434719999996
  0
LINE
  5
   2B6
100
AcDbEntity
  8
L13
 60
     0
100
AcDbLine
 10
46.511514
 20
31.178933
 30
0.0
 11
46.50161
 21
31.177551
 31
0.0
  0
ARC
  5
   2B7
100
AcDbEntity
  8
L13
 60
     0
100
AcDbCircle
 10
46.536159
 20
30.92995
 30
0.0
 40
0.25
100
AcDbArc
 50
97.9434719999996
 51
187.943472
  0
LINE
  5
   2B8
100
AcDbEntity
  8
L13
 60
     0
100
AcDbLine
 10
46.288558
 20
30.895401
 30
0.0
 11
46.956382
 21
26.109331
 31
0.0
  0
ARC
  5
   2B9
100
AcDbEntity
  8
L13
 60
     0
100
AcDbCircle
 10
46.758301
 20
26.081692
 30
0.0
 40
0.2
100
AcDbArc
 50
248.198591
 51
367.943472000002
  0
LINE
  5
   2BA
100
AcDbEntity
  8
L13
 60
     0
100
AcDbLine
 10
46.684022
 20
25.895997
 30
0.0
 11
43.346856
 21
27.230863
 31
0.0
  0
ARC
  5
   2BB
100
AcDbEntity
  8
L13
 60
     0
100
AcDbCircle
 10
43.254009
 20
26.998744
 30
0.0
 40
0.25
100
AcDbArc
 50
68.1985909999992
 51
111.801408999999
  0
LINE
  5
   2BC
100
AcDbEntity
  8
L13
 60
     0
100
AcDbLine
 10
43.161161
 20
27.230863
 30
0.0
 11
39.823995
 21
25.895997
 31
0.0
  0
ARC
  5
   2BD
100
AcDbEntity
  8
L13
 60
     0
100
AcDbCircle
 10
39.749717
 20
26.081692
 30
0.0
 40
0.2
100
AcDbArc
 50
172.056527999998
 51
291.801409
  0
LINE
  5
   2BE
100
AcDbEntity
  8
L13
 60
     0
100
AcDbLine
 10
39.551636
 20
26.109331
 30
0.0
 11
40.21946
 21
30.895401
 31
0.0
  0
ARC
  5
   2BF
100
AcDbEntity
  8
L13
 60
     0
100
AcDbCircle
 10
39.971859
 20
30.92995
 30
0.0
 40
0.25
100
AcDbArc
 50
352.056528
 51
442.056528
  0
LINE
  5
   2C0
100
AcDbEntity
  8
L13
 60
     0
100
AcDbLine
 10
40.006408
 20
31.177551
 30
0.0
 11
39.996504
 21
31.178933
 31
0.0
  0
ARC
  5
   2C1
100
AcDbEntity
  8
L13
 60
     0
100
AcDbCircle
 10
39.961955
 20
30.931332
 30
0.0
 40
0.25
100
AcDbArc
 50
82.0565279999987
 51
172.056527999999
  0
LINE
  5
   2C2
100
AcDbEntity
  8
L13
 60
     0
100
AcDbLine
 10
39.714353
 20
30.965881
 30
0.0
 11
39.226009
 21
27.466083
 31
0.0
  0
ARC
  5
   2C3
100
AcDbEntity
  8
L13
 60
     0
100
AcDbCircle
 10
39.027928
 20
27.493722
 30
0.0
 40
0.2
100
AcDbArc
 50
262.056528
 51
352.056528
  0
LINE
  5
   2C4
100
AcDbEntity
  8
L13
 60
     0
100
AcDbLine
 10
39.000289
 20
27.295641
 30
0.0
 11
38.703168
 21
27.3371
 31
0.0
  0
ARC
  5
   2C5
100
AcDbEntity
  8
L13
 60
     0
100
AcDbCircle
 10
40.911887
 20
28.929897
 30
0.0
 40
2.723131
100
AcDbArc
 50
175.771596
 51
215.796883
  0
LINE
  5
   2C6
100
AcDbEntity
  8
L13
 60
     0
100
AcDbLine
 10
38.196169
 20
29.13068
 30
0.0
 11
38.84692
 21
33.794394
 31
0.0
  0
ARC
  5
   2C7
100
AcDbEntity
  8
L13
 60
     0
100
AcDbCircle
 10
40.827729
 20
33.518002
 30
0.0
 40
2.0
100
AcDbArc
 50
90.0
 51
172.056528
  0
ARC
  5
   2C8
100
AcDbEntity
  8
L14
 60
     0
100
AcDbCircle
 10
81.5800673015679
 20
20.3339892853504
 30
0.0
 40
6.25
100
AcDbArc
 50
35.3057355835559
 51
113.933017244574
  0
ARC
  5
   2C9
100
AcDbEntity
  8
L14
 60
     0
100
AcDbCircle
 10
86.884585609351
 20
24.0905948705023
 30
0.0
 40
0.25
100
AcDbArc
 50
215.305735583555
 51
332.905605975072
  0
ARC
  5
   2CA
100
AcDbEntity
  8
L14
 60
     0
100
AcDbCircle
 10
87.774842981455
 20
23.6351370662938
 30
0.0
 40
0.75
100
AcDbArc
 50
101.360772999999
 51
152.905605975073
  0
ARC
  5
   2CB
100
AcDbEntity
  8
L14
 60
     0
100
AcDbCircle
 10
87.4897210293981
 20
25.0541947736096
 30
0.0
 40
0.697418
100
AcDbArc
 50
281.360773
 51
375.25201
  0
ARC
  5
   2CC
100
AcDbEntity
  8
L14
 60
     0
100
AcDbCircle
 10
88.8861583659136
 20
25.4349603571787
 30
0.0
 40
0.75
100
AcDbArc
 50
85.4672270000016
 51
195.25201
  0
ARC
  5
   2CD
100
AcDbEntity
  8
L14
 60
     0
100
AcDbCircle
 10
89.0005470039473
 20
26.8778514242956
 30
0.0
 40
0.697418
100
AcDbArc
 50
265.467227
 51
340.709314
  0
ARC
  5
   2CE
100
AcDbEntity
  8
L14
 60
     0
100
AcDbCircle
 10
89.9183693938657
 20
26.5566024126327
 30
0.0
 40
0.275
100
AcDbArc
 50
43.9395980000025
 51
160.709314
  0
ARC
  5
   2CF
100
AcDbEntity
  8
L14
 60
     0
100
AcDbCircle
 10
90.6185793494494
 20
27.2313631935962
 30
0.0
 40
0.697418
100
AcDbArc
 50
223.939598
 51
343.366846000002
  0
ARC
  5
   2D0
100
AcDbEntity
  8
L14
 60
     0
100
AcDbCircle
 10
91.5503092602676
 20
26.9530156491275
 30
0.0
 40
0.275
100
AcDbArc
 50
53.9572170000005
 51
163.366845999999
  0
ARC
  5
   2D1
100
AcDbEntity
  8
L14
 60
     0
100
AcDbCircle
 10
91.417921580843
 20
26.7710858361869
 30
0.0
 40
0.5
100
AcDbArc
 50
297.400672000001
 51
413.957216999999
  0
ARC
  5
   2D2
100
AcDbEntity
  8
L14
 60
     0
100
AcDbCircle
 10
92.5684473526128
 20
24.5515607440644
 30
0.0
 40
2.0
100
AcDbArc
 50
117.400672
 51
182.288111
  0
ARC
  5
   2D3
100
AcDbEntity
  8
L14
 60
     0
100
AcDbCircle
 10
87.9923733670519
 20
24.36871738625
 30
0.0
 40
2.579726
100
AcDbArc
 50
269.493837631122
 51
362.288111
  0
ARC
  5
   2D4
100
AcDbEntity
  8
L14
 60
     0
100
AcDbCircle
 10
87.9673753271005
 20
21.539101805809
 30
0.0
 40
0.25
100
AcDbArc
 50
89.4938376311226
 51
190.68456646797
  0
ARC
  5
   2D5
100
AcDbEntity
  8
L14
 60
     0
100
AcDbCircle
 10
81.5800673015679
 20
20.3339892853504
 30
0.0
 40
6.25
100
AcDbArc
 50
346.778118
 51
370.68456646797
  0
ARC
  5
   2D6
100
AcDbEntity
  8
L14
 60
     0
100
AcDbCircle
 10
82.7969319854686
 20
20.048085826898
 30
0.0
 40
5.0
100
AcDbArc
 50
293.183424
 51
346.778118
  0
ARC
  5
   2D7
100
AcDbEntity
  8
L14
 60
     0
100
AcDbCircle
 10
88.7020720693837
 20
6.25934717574552
 30
0.0
 40
10.0
100
AcDbArc
 50
113.183424
 51
167.685272
  0
ARC
  5
   2D8
100
AcDbEntity
  8
L14
 60
     0
100
AcDbCircle
 10
70.0171230296093
 20
10.3383562494702
 30
0.0
 40
9.125
100
AcDbArc
 50
300.0
 51
347.685272
  0
ARC
  5
   2D9
100
AcDbEntity
  8
L14
 60
     0
100
AcDbCircle
 10
71.4546230296093
 20
7.84853321358991
 30
0.0
 40
6.25
100
AcDbArc
 50
250.163527
 51
300.0
  0
ARC
  5
   2DA
100
AcDbEntity
  8
L14
 60
     0
100
AcDbCircle
 10
66.3624847417037
 20
-16.4033825525908
 30
0.0
 40
18.61147
100
AcDbArc
 50
80.8135380000001
 51
108.121529
  0
ARC
  5
   2DB
100
AcDbEntity
  8
L14
 60
     0
100
AcDbCircle
 10
59.6405926286605
 20
4.13613611019657
 30
0.0
 40
3.0
100
AcDbArc
 50
276.474858298774
 51
288.121529
  0
ARC
  5
   2DC
100
AcDbEntity
  8
L14
 60
     0
100
AcDbCircle
 10
59.9676175612148
 20
1.25463395099421
 30
0.0
 40
0.1
100
AcDbArc
 50
167.295695807309
 51
276.474858298774
  0
LINE
  5
   2DD
100
AcDbEntity
  8
L14
 60
     0
100
AcDbLine
 10
59.8700657586315
 20
1.27662589981065
 30
0.0
 11
60.054151889873
 21
2.09319445783584
 31
0.0
  0
ARC
  5
   2DE
100
AcDbEntity
  8
L14
 60
     0
100
AcDbCircle
 10
59.8102721667913
 20
2.14817452914911
 30
0.0
 40
0.25
100
AcDbArc
 50
347.295721000001
 51
440.386465
  0
LINE
  5
   2DF
100
AcDbEntity
  8
L14
 60
     0
100
AcDbLine
 10
59.85202248218
 20
2.39466286166396
 30
0.0
 11
59.8421480961898
 21
2.39633579989252
 31
0.0
  0
ARC
  5
   2E0
100
AcDbEntity
  8
L14
 60
     0
100
AcDbCircle
 10
59.8003982808012
 20
2.14984660135227
 30
0.0
 40
0.25
100
AcDbArc
 50
80.3864650000001
 51
167.295720999999
  0
LINE
  5
   2E1
100
AcDbEntity
  8
L14
 60
     0
100
AcDbLine
 10
59.5565185577195
 20
2.20482667266554
 30
0.0
 11
59.3393905555287
 21
1.24168960935429
 31
0.0
  0
ARC
  5
   2E2
100
AcDbEntity
  8
L14
 60
     0
100
AcDbCircle
 10
59.241838745596
 20
1.26368152557021
 30
0.0
 40
0.1
100
AcDbArc
 50
262.096714812485
 51
347.295714954798
  0
ARC
  5
   2E3
100
AcDbEntity
  8
L14
 60
     0
100
AcDbCircle
 10
59.6405926286605
 20
4.13613611019657
 30
0.0
 40
3.0
100
AcDbArc
 50
235.052168
 51
262.096714812484
  0
LINE
  5
   2E4
100
AcDbEntity
  8
L14
 60
     0
100
AcDbLine
 10
57.9221014990681
 20
1.67711405900708
 30
0.0
 11
53.976881123615
 21
4.43423619634775
 31
0.0
  0
ARC
  5
   2E5
100
AcDbEntity
  8
L14
 60
     0
100
AcDbCircle
 10
56.26820258508
 20
7.71293300861733
 30
0.0
 40
4.0
100
AcDbArc
 50
220.35884
 51
235.052168
  0
ARC
  5
   2E6
100
AcDbEntity
  8
L14
 60
     0
100
AcDbCircle
 10
49.2028346880513
 20
1.70857918043717
 30
0.0
 40
5.272092
100
AcDbArc
 50
40.3588400000001
 51
67.254043
  0
ARC
  5
   2E7
100
AcDbEntity
  8
L14
 60
     0
100
AcDbCircle
 10
-9.97893085281516
 20
-114.367900021153
 30
0.0
 40
135.550898
100
AcDbArc
 50
63.151051
 51
63.58089
  0
ARC
  5
   2E8
100
AcDbEntity
  8
L14
 60
     0
100
AcDbCircle
 10
51.6071911652739
 20
8.22529360238041
 30
0.0
 40
1.75
100
AcDbArc
 50
139.073895
 51
223.236476
  0
ARC
  5
   2E9
100
AcDbEntity
  8
L14
 60
     0
100
AcDbCircle
 10
50.6627476442344
 20
9.04414976570004
 30
0.0
 40
0.5
100
AcDbArc
 50
86.3846849999995
 51
139.073894999998
  0
ARC
  5
   2EA
100
AcDbEntity
  8
L14
 60
     0
100
AcDbCircle
 10
50.7100400521397
 20
9.79265691239572
 30
0.0
 40
0.25
100
AcDbArc
 50
266.384685
 51
303.691473
  0
ARC
  5
   2EB
100
AcDbEntity
  8
L14
 60
     0
100
AcDbCircle
 10
53.866998884442
 20
5.05747181744487
 30
0.0
 40
5.441078
100
AcDbArc
 50
116.628025
 51
123.691473
  0
ARC
  5
   2EC
100
AcDbEntity
  8
L14
 60
     0
100
AcDbCircle
 10
51.6524246513914
 20
9.47447490622131
 30
0.0
 40
0.5
100
AcDbArc
 50
87.9261730000002
 51
116.628025000001
  0
ARC
  5
   2ED
100
AcDbEntity
  8
L14
 60
     0
100
AcDbCircle
 10
51.6071911652739
 20
8.22529360238041
 30
0.0
 40
1.75
100
AcDbArc
 50
79.389763
 51
87.9261729999997
  0
LINE
  5
   2EE
100
AcDbEntity
  8
L14
 60
     0
100
AcDbLine
 10
51.9294132745215
 20
9.94537253784153
 30
0.0
 11
55.2509786825586
 21
9.32314449045788
 31
0.0
  0
ARC
  5
   2EF
100
AcDbEntity
  8
L14
 60
     0
100
AcDbCircle
 10
56.7495722439498
 20
4.70224630223279
 30
0.0
 40
4.857827
100
AcDbArc
 50
49.8417039999999
 51
107.968278
  0
LINE
  5
   2F0
100
AcDbEntity
  8
L14
 60
     0
100
AcDbLine
 10
59.8823922669424
 20
8.41491685144059
 30
0.0
 11
61.9349134483877
 21
7.837153881566
 31
0.0
  0
LINE
  5
   2F1
100
AcDbEntity
  8
L14
 60
     0
100
AcDbLine
 10
61.9349134483877
 20
7.837153881566
 30
0.0
 11
63.2739318057455
 21
7.72555805435493
 31
0.0
  0
ARC
  5
   2F2
100
AcDbEntity
  8
L14
 60
     0
100
AcDbCircle
 10
63.4400389441704
 20
9.71864805110301
 30
0.0
 40
2.0
100
AcDbArc
 50
265.235899000001
 51
351.156876
  0
ARC
  5
   2F3
100
AcDbEntity
  8
L14
 60
     0
100
AcDbCircle
 10
86.2242617174487
 20
6.17390259681725
 30
0.0
 40
21.058318
100
AcDbArc
 50
170.126478868232
 51
171.156876
  0
ARC
  5
   2F4
100
AcDbEntity
  8
L14
 60
     0
100
AcDbCircle
 10
65.5763641378504
 20
9.7677054477741
 30
0.0
 40
0.1
100
AcDbArc
 50
74.3387515985507
 51
170.126478868232
  0
LINE
  5
   2F5
100
AcDbEntity
  8
L14
 60
     0
100
AcDbLine
 10
65.6033590652828
 20
9.86399290226801
 30
0.0
 11
69.3419265944457
 21
8.81585678026293
 31
0.0
  0
ARC
  5
   2F6
100
AcDbEntity
  8
L14
 60
     0
100
AcDbCircle
 10
69.4094137667694
 20
9.05657556893916
 30
0.0
 40
0.25
100
AcDbArc
 50
254.338754
 51
349.129247999999
  0
LINE
  5
   2F7
100
AcDbEntity
  8
L14
 60
     0
100
AcDbLine
 10
69.6549277712786
 20
9.00942683915947
 30
0.0
 11
69.6568195940799
 21
9.01928210594879
 31
0.0
  0
ARC
  5
   2F8
100
AcDbEntity
  8
L14
 60
     0
100
AcDbCircle
 10
69.4113060895706
 20
9.06642996970308
 30
0.0
 40
0.25
100
AcDbArc
 50
349.129247999999
 51
434.338754000003
  0
LINE
  5
   2F9
100
AcDbEntity
  8
L14
 60
     0
100
AcDbLine
 10
69.4787932618943
 20
9.30714875837931
 30
0.0
 11
65.683461003074
 21
10.3711993789324
 31
0.0
  0
ARC
  5
   2FA
100
AcDbEntity
  8
L14
 60
     0
100
AcDbCircle
 10
65.7104559321668
 20
10.4674868329608
 30
0.0
 40
0.1
100
AcDbArc
 50
168.178519743674
 51
254.338750610559
  0
ARC
  5
   2FB
100
AcDbEntity
  8
L14
 60
     0
100
AcDbCircle
 10
86.2242617174487
 20
6.17390259681725
 30
0.0
 40
21.058318
100
AcDbArc
 50
111.775719722985
 51
168.178519743673
  0
ARC
  5
   2FC
100
AcDbEntity
  8
L14
 60
     0
100
AcDbCircle
 10
78.4492635915877
 20
25.6367003795612
 30
0.0
 40
0.1
100
AcDbArc
 50
29.9999999999985
 51
111.775719722986
  0
LINE
  5
   2FD
100
AcDbEntity
  8
L14
 60
     0
100
AcDbLine
 10
78.5358661319662
 20
25.6867003795612
 30
0.0
 11
80.4897083177193
 21
22.3025464438654
 31
0.0
  0
ARC
  5
   2FE
100
AcDbEntity
  8
L14
 60
     0
100
AcDbCircle
 10
80.7062146686654
 20
22.4275464438654
 30
0.0
 40
0.25
100
AcDbArc
 50
210.000000000001
 51
299.999999999989
  0
LINE
  5
   2FF
100
AcDbEntity
  8
L14
 60
     0
100
AcDbLine
 10
80.8312146686653
 20
22.2110400929193
 30
0.0
 11
80.8398749227032
 21
22.2160400929193
 31
0.0
  0
ARC
  5
   300
100
AcDbEntity
  8
L14
 60
     0
100
AcDbCircle
 10
80.7148749227032
 20
22.4325464438654
 30
0.0
 40
0.25
100
AcDbArc
 50
299.999999999985
 51
390.000000000001
  0
LINE
  5
   301
100
AcDbEntity
  8
L14
 60
     0
100
AcDbLine
 10
80.9313812736493
 20
22.5575464438654
 30
0.0
 11
78.9986043033652
 21
25.9052143560966
 31
0.0
  0
ARC
  5
   302
100
AcDbEntity
  8
L14
 60
     0
100
AcDbCircle
 10
79.0852068437436
 20
25.9552143560966
 30
0.0
 40
0.1
100
AcDbArc
 50
113.933017244572
 51
209.999999999998
  0
LINE
  5
   303
100
AcDbEntity
  8
L12
 60
     0
100
AcDbLine
 10
87.5096486761481
 20
7.89262744446973
 30
0.0
 11
87.5196485339269
 21
7.8926807774238
 31
0.0
  0
LINE
  5
   304
100
AcDbEntity
  8
L12
 60
     0
100
AcDbLine
 10
87.5096486761481
 20
1.89262744446973
 30
0.0
 11
87.5196485339269
 21
1.8926807774238
 31
0.0
  0
ENDSEC
  0
SECTION
  2
OBJECTS
  0
DICTIONARY
  5
   305
100
AcDbDictionary
  3
ACAD_GROUP
350
   306
  3
ACAD_MLINESTYLE
350
   307
  0
DICTIONARY
  5
   306
102
{ACAD_REACTORS
330
   305
102
}
100
AcDbDictionary
  0
DICTIONARY
  5
   307
102
{ACAD_REACTORS
330
   305
102
}
100
AcDbDictionary
  3
STANDARD
350
   308
  0
MLINESTYLE
  5
   308
102
{ACAD_REACTORS
330
   307
102
}
100
AcDbMlineStyle
  2
STANDARD
 70
     0
  3

 62
     0
 51
90.0
 52
90.0
 71
     2
 49
0.5
 62
   256
  6
BYLAYER
 49
0.5
 62
   256
  6
BYLAYER
  0
ENDSEC
  0
EOF
