  0
SECTION
  2
HEADER
  9
$ACADVER
  1
AC1009
  9
$LIMMIN
 10
0.000000
 20
0.000000
  9
$LIMMAX
 10
168.000963
 20
197.997905
  0
ENDSEC
  0
SECTION
  2
TABLES
  0
TABLE
  2
LTYPE
 70
     4
  0
LTYPE
  2
CONTINUOUS
 70
     0
  3
Solid line
 72
     65
 73
     0
 40
0.000000
  0
LTYPE
  2
HIDDEN
 70
     0
  3
 _ _ _ _ _ _ _ _ _ _ _
 72
     65
 73
     2
 40
0.375000
 49
0.250000
 49
-0.125000
  0
LTYPE
  2
DASHED
 70
     0
  3
 ___ ___ ___ ___ ___ ___ ___ 
 72
     65
 73
     2
 40
0.750000
 49
0.500000
 49
-0.250000
  0
LTYPE
  2
CENTER
 70
     0
  3
___ _ ___ _ ___ _ ___
 72
     65
 73
     4
 40
2.000000
 49
1.250000
 49
-0.250000
 49
0.250000
 49
-0.250000
  0
LTYPE
  2
BORDER
 70
     0
  3
___ ___ . ___ ___ . ___ ___
 72
     65
 73
     6
 40
1.750000
 49
0.500000
 49
-0.250000
 49
0.500000
 49
-0.250000
 49
0.000000
 49
-0.250000
  0
LTYPE
  2
DOT
 70
     0
  3
.................
 72
     65
 73
     2
 40
0.250000
 49
0.000000
 49
-0.250000
  0
LTYPE
  2
DASHDOT
 70
     0
  3
__ . __ . __ . __
 72
     65
 73
     4
 40
1.000000
 49
0.500000
 49
-0.250000
 49
0.000000
 49
-0.250000
  0
LTYPE
  2
DIVIDE
 70
     0
  3
___ .. ___ .. ___ .. ___
 72
     65
 73
     6
 40
1.250000
 49
0.500000
 49
-0.250000
 49
0.000000
 49
-0.250000
 49
0.000000
 49
-0.250000
  0
ENDTAB
  0
TABLE
  2
LAYER
 70
     8
  0
LAYER
  2
BLACK
 70
     0
 62
     1
  6
CONTINUOUS
  0
LAYER
  2
WHITE
 70
     0
 62
     7
  6
CONTINUOUS
  0
LAYER
  2
RED
 70
     0
 62
     1
  6
CONTINUOUS
  0
LAYER
  2
YELLOW
 70
     0
 62
     2
  6
CONTINUOUS
  0
LAYER
  2
GREEN
 70
     0
 62
     3
  6
CONTINUOUS
  0
LAYER
  2
CYAN
 70
     0
 62
     4
  6
CONTINUOUS
  0
LAYER
  2
BLUE
 70
     0
 62
     5
  6
CONTINUOUS
  0
LAYER
  2
MAGENTA
 70
     0
 62
     6
  6
CONTINUOUS
  0
ENDTAB
  0
TABLE
  2
APPID
 70
     1
  0
APPID
  2
TC_BEND_DATA
 70
     0
  0
ENDTAB
  0
ENDSEC
  0
SECTION
  2
BLOCKS
  0
ENDSEC
  0
SECTION
  2
ENTITIES
  0
TEXT
  8
YELLOW
  1
FLY
 10
18.563887
 20
189.938021
 30
0.000000
 11
18.563887
 21
189.938021
 31
0.000000
 40
1.929195
 72
0
 73
0
  0
TEXT
  8
YELLOW
  1
1
 10
22.702336
 20
175.209996
 30
0.000000
 11
22.702336
 21
175.209996
 31
0.000000
 40
1.929195
 72
0
 73
0
  0
TEXT
  8
YELLOW
  1
2
 10
15.856906
 20
116.096272
 30
0.000000
 11
15.856906
 21
116.096272
 31
0.000000
 40
1.929195
 72
0
 73
0
  0
TEXT
  8
YELLOW
  1
3
 10
16.025168
 20
100.230969
 30
0.000000
 11
16.025168
 21
100.230969
 31
0.000000
 40
1.929195
 72
0
 73
0
  0
TEXT
  8
YELLOW
  1
4
 10
23.919535
 20
73.348412
 30
0.000000
 11
23.919535
 21
73.348412
 31
0.000000
 40
1.929195
 72
0
 73
0
  0
TEXT
  8
YELLOW
  1
5
 10
24.128194
 20
44.570510
 30
0.000000
 11
24.128194
 21
44.570510
 31
0.000000
 40
1.929195
 72
0
 73
0
  0
TEXT
  8
YELLOW
  1
6
 10
21.346040
 20
16.401208
 30
0.000000
 11
21.346040
 21
16.401208
 31
0.000000
 40
1.929195
 72
0
 73
0
  0
TEXT
  8
YELLOW
  1
7
 10
52.645265
 20
182.634868
 30
0.000000
 11
52.645265
 21
182.634868
 31
0.000000
 40
1.929195
 72
0
 73
0
  0
TEXT
  8
YELLOW
  1
8
 10
47.359171
 20
142.171922
 30
0.000000
 11
47.359171
 21
142.171922
 31
0.000000
 40
1.929195
 72
0
 73
0
  0
TEXT
  8
YELLOW
  1
9
 10
63.356556
 20
104.891070
 30
0.000000
 11
63.356556
 21
104.891070
 31
0.000000
 40
1.929195
 72
0
 73
0
  0
TEXT
  8
YELLOW
  1
10
 10
54.105898
 20
79.573473
 30
0.000000
 11
54.105898
 21
79.573473
 31
0.000000
 40
1.929195
 72
0
 73
0
  0
TEXT
  8
YELLOW
  1
11
 10
57.966136
 20
53.595117
 30
0.000000
 11
57.966136
 21
53.595117
 31
0.000000
 40
1.929195
 72
0
 73
0
  0
TEXT
  8
YELLOW
  1
12
 10
52.471382
 20
17.114131
 30
0.000000
 11
52.471382
 21
17.114131
 31
0.000000
 40
1.929195
 72
0
 73
0
  0
TEXT
  8
YELLOW
  1
13
 10
84.187155
 20
188.073388
 30
0.000000
 11
84.187155
 21
188.073388
 31
0.000000
 40
1.929195
 72
0
 73
0
  0
TEXT
  8
YELLOW
  1
14
 10
81.405777
 20
166.098449
 30
0.000000
 11
81.405777
 21
166.098449
 31
0.000000
 40
1.929195
 72
0
 73
0
  0
TEXT
  8
YELLOW
  1
15
 10
87.143969
 20
152.639782
 30
0.000000
 11
87.143969
 21
152.639782
 31
0.000000
 40
1.929195
 72
0
 73
0
  0
TEXT
  8
YELLOW
  1
16
 10
85.787665
 20
128.191610
 30
0.000000
 11
85.787665
 21
128.191610
 31
0.000000
 40
1.929195
 72
0
 73
0
  0
TEXT
  8
YELLOW
  1
17
 10
86.625657
 20
118.499873
 30
0.000000
 11
86.625657
 21
118.499873
 31
0.000000
 40
1.929195
 72
0
 73
0
  0
TEXT
  8
YELLOW
  1
18
 10
87.978613
 20
92.753930
 30
0.000000
 11
87.978613
 21
92.753930
 31
0.000000
 40
1.929195
 72
0
 73
0
  0
TEXT
  8
YELLOW
  1
19
 10
83.735831
 20
38.293276
 30
0.000000
 11
83.735831
 21
38.293276
 31
0.000000
 40
1.929195
 72
0
 73
0
  0
TEXT
  8
YELLOW
  1
20
 10
115.035054
 20
123.740157
 30
0.000000
 11
115.035054
 21
123.740157
 31
0.000000
 40
1.929195
 72
0
 73
0
  0
TEXT
  8
YELLOW
  1
21
 10
137.095538
 20
74.795382
 30
0.000000
 11
137.095538
 21
74.795382
 31
0.000000
 40
1.929195
 72
0
 73
0
  0
TEXT
  8
YELLOW
  1
22
 10
128.945816
 20
46.257194
 30
0.000000
 11
128.945816
 21
46.257194
 31
0.000000
 40
1.929195
 72
0
 73
0
  0
TEXT
  8
YELLOW
  1
23
 10
120.808018
 20
34.467818
 30
0.000000
 11
120.808018
 21
34.467818
 31
0.000000
 40
1.929195
 72
0
 73
0
  0
TEXT
  8
YELLOW
  1
24
 10
128.528493
 20
14.018991
 30
0.000000
 11
128.528493
 21
14.018991
 31
0.000000
 40
1.929195
 72
0
 73
0
  0
TEXT
  8
YELLOW
  1
25
 10
132.040966
 20
177.853043
 30
0.000000
 11
132.040966
 21
177.853043
 31
0.000000
 40
1.929195
 72
0
 73
0
  0
TEXT
  8
YELLOW
  1
26
 10
145.708294
 20
164.811700
 30
0.000000
 11
145.708294
 21
164.811700
 31
0.000000
 40
1.929195
 72
0
 73
0
  0
TEXT
  8
YELLOW
  1
27
 10
145.395297
 20
131.321526
 30
0.000000
 11
145.395297
 21
131.321526
 31
0.000000
 40
1.929195
 72
0
 73
0
  0
TEXT
  8
YELLOW
  1
28
 10
134.753561
 20
109.829392
 30
0.000000
 11
134.753561
 21
109.829392
 31
0.000000
 40
1.929195
 72
0
 73
0
  0
TEXT
  8
YELLOW
  1
29
 10
155.063282
 20
18.400879
 30
0.000000
 11
155.063282
 21
18.400879
 31
0.000000
 40
1.929195
 72
0
 73
0
  0
TEXT
  8
YELLOW
  1
30
 10
106.445153
 20
87.780828
 30
0.000000
 11
106.445153
 21
87.780828
 31
0.000000
 40
1.929195
 72
0
 73
0
  0
TEXT
  8
YELLOW
  1
31
 10
134.371022
 20
84.129253
 30
0.000000
 11
134.371022
 21
84.129253
 31
0.000000
 40
1.929195
 72
0
 73
0
  0
LINE
  8
GREEN
 10
168.000963
 20
197.997905
 30
0.000000
 11
0.000000
 21
197.997905
 31
0.000000
  6
CONTINUOUS
  0
LINE
  8
GREEN
 10
0.000000
 20
197.997905
 30
0.000000
 11
0.000000
 21
0.000000
 31
0.000000
  6
CONTINUOUS
  0
LINE
  8
GREEN
 10
0.000000
 20
0.000000
 30
0.000000
 11
168.000963
 21
0.000000
 31
0.000000
  6
CONTINUOUS
  0
LINE
  8
GREEN
 10
168.000963
 20
0.000000
 30
0.000000
 11
168.000963
 21
197.997905
 31
0.000000
  6
CONTINUOUS
  0
LINE
  8
WHITE
 10
2.893378
 20
3.158257
 30
0.000000
 11
2.893378
 21
196.800100
 31
0.000000
  6
CONTINUOUS
  0
LINE
  8
WHITE
 10
2.893378
 20
196.800100
 30
0.000000
 11
166.713551
 21
196.800100
 31
0.000000
  6
CONTINUOUS
  0
LINE
  8
WHITE
 10
166.713551
 20
196.800100
 30
0.000000
 11
166.713551
 21
3.158257
 31
0.000000
  6
CONTINUOUS
  0
LINE
  8
WHITE
 10
166.713551
 20
3.158257
 30
0.000000
 11
2.893378
 21
3.158257
 31
0.000000
  6
CONTINUOUS
  0
ARC
  8
WHITE
 10
187.864974
 20
62.670897
 30
0.000000
 40
110.391080
 50
178.885482
 51
184.492429
  6
CONTINUOUS
  0
ARC
  8
WHITE
 10
81.681131
 20
54.177627
 30
0.000000
 40
3.871074
 50
-177.729400
 51
-98.455200
  6
CONTINUOUS
  0
LINE
  8
WHITE
 10
81.111944
 20
50.348627
 30
0.000000
 11
81.112019
 21
61.123693
 31
0.000000
  6
CONTINUOUS
  0
LINE
  8
WHITE
 10
81.112019
 20
61.123693
 30
0.000000
 11
82.269526
 21
61.123693
 31
0.000000
  6
CONTINUOUS
  0
LINE
  8
WHITE
 10
82.269526
 20
61.123693
 30
0.000000
 11
82.269526
 21
50.243025
 31
0.000000
  6
CONTINUOUS
  0
LINE
  8
WHITE
 10
82.269526
 20
50.243025
 30
0.000000
 11
94.143729
 21
49.345949
 31
0.000000
  6
CONTINUOUS
  0
ARC
  8
WHITE
 10
93.873642
 20
45.738355
 30
0.000000
 40
3.617690
 50
0.916697
 51
85.718464
  6
CONTINUOUS
  0
ARC
  8
WHITE
 10
41.959011
 20
44.831643
 30
0.000000
 40
55.540228
 50
-13.232500
 51
0.995130
  6
CONTINUOUS
  0
ARC
  8
WHITE
 10
74.303794
 20
38.115113
 30
0.000000
 40
22.533438
 50
-66.277859
 51
-15.434053
  6
CONTINUOUS
  0
ARC
  8
WHITE
 10
81.837386
 20
20.997744
 30
0.000000
 40
3.831602
 50
-179.980407
 51
-66.438054
  6
CONTINUOUS
  0
LINE
  8
WHITE
 10
78.005784
 20
20.996434
 30
0.000000
 11
78.006015
 21
30.960723
 31
0.000000
  6
CONTINUOUS
  0
ARC
  8
WHITE
 10
76.848498
 20
30.960723
 30
0.000000
 40
1.157517
 50
0.000000
 51
90.000000
  6
CONTINUOUS
  0
LINE
  8
WHITE
 10
76.848498
 20
32.118230
 30
0.000000
 11
76.028591
 21
32.118250
 31
0.000000
  6
CONTINUOUS
  0
ARC
  8
WHITE
 10
76.032449
 20
30.960733
 30
0.000000
 40
1.157523
 50
90.190985
 51
159.511099
  6
CONTINUOUS
  0
ARC
  8
WHITE
 10
101.362840
 20
21.479876
 30
0.000000
 40
28.204057
 50
159.481025
 51
191.963913
  6
CONTINUOUS
  0
ARC
  8
WHITE
 10
81.411044
 20
16.966287
 30
0.000000
 40
7.755043
 50
-170.102482
 51
-103.669799
  6
CONTINUOUS
  0
ARC
  8
WHITE
 10
77.455820
 20
34.634997
 30
0.000000
 40
25.293296
 50
-85.186321
 51
-81.732821
  6
CONTINUOUS
  0
ARC
  8
WHITE
 10
81.022311
 20
10.175579
 30
0.000000
 40
0.575363
 50
-82.970301
 51
50.096459
  6
CONTINUOUS
  0
LINE
  8
WHITE
 10
81.391405
 20
10.616955
 30
0.000000
 11
80.311393
 21
11.533732
 31
0.000000
  6
CONTINUOUS
  0
LINE
  8
WHITE
 10
80.311393
 20
11.533732
 30
0.000000
 11
81.063779
 21
12.421162
 31
0.000000
  6
CONTINUOUS
  0
LINE
  8
WHITE
 10
81.063779
 20
12.421162
 30
0.000000
 11
83.745360
 21
10.135076
 31
0.000000
  6
CONTINUOUS
  0
ARC
  8
WHITE
 10
77.476836
 20
34.640383
 30
0.000000
 40
25.294357
 50
-75.651273
 51
-64.839820
  6
CONTINUOUS
  0
LINE
  8
WHITE
 10
88.230740
 20
11.745885
 30
0.000000
 11
86.224385
 21
13.877713
 31
0.000000
  6
CONTINUOUS
  0
LINE
  8
WHITE
 10
86.224385
 20
13.877713
 30
0.000000
 11
87.063584
 21
14.678329
 31
0.000000
  6
CONTINUOUS
  0
LINE
  8
WHITE
 10
87.063584
 20
14.678329
 30
0.000000
 11
89.311087
 21
12.295764
 31
0.000000
  6
CONTINUOUS
  0
ARC
  8
WHITE
 10
77.487383
 20
34.651719
 30
0.000000
 40
25.290091
 50
-62.126360
 51
-50.554333
  6
CONTINUOUS
  0
LINE
  8
WHITE
 10
93.555346
 20
15.122017
 30
0.000000
 11
90.960558
 21
17.572112
 31
0.000000
  6
CONTINUOUS
  0
LINE
  8
WHITE
 10
90.960558
 20
17.572112
 30
0.000000
 11
91.751528
 21
18.411311
 31
0.000000
  6
CONTINUOUS
  0
LINE
  8
WHITE
 10
91.751528
 20
18.411311
 30
0.000000
 11
94.433108
 21
15.884076
 31
0.000000
  6
CONTINUOUS
  0
ARC
  8
WHITE
 10
77.472941
 20
34.650484
 30
0.000000
 40
25.294770
 50
-47.894258
 51
-36.927911
  6
CONTINUOUS
  0
LINE
  8
WHITE
 10
97.693379
 20
19.453141
 30
0.000000
 11
94.915407
 21
21.681306
 31
0.000000
  6
CONTINUOUS
  0
LINE
  8
WHITE
 10
94.915407
 20
21.681306
 30
0.000000
 11
95.638855
 21
22.588028
 31
0.000000
  6
CONTINUOUS
  0
LINE
  8
WHITE
 10
95.638855
 20
22.588028
 30
0.000000
 11
98.368666
 21
20.398392
 31
0.000000
  6
CONTINUOUS
  0
ARC
  8
WHITE
 10
63.866943
 20
41.851179
 30
0.000000
 40
40.627466
 50
-31.872888
 51
-24.296647
  6
CONTINUOUS
  0
LINE
  8
WHITE
 10
100.895884
 20
25.134579
 30
0.000000
 11
97.857419
 21
26.494637
 31
0.000000
  6
CONTINUOUS
  0
LINE
  8
WHITE
 10
97.857419
 20
26.494637
 30
0.000000
 11
98.349374
 21
27.536412
 31
0.000000
  6
CONTINUOUS
  0
LINE
  8
WHITE
 10
98.349374
 20
27.536412
 30
0.000000
 11
101.358908
 21
26.195612
 31
0.000000
  6
CONTINUOUS
  0
ARC
  8
WHITE
 10
63.866073
 20
41.841765
 30
0.000000
 40
40.626528
 50
-22.651289
 51
-15.535235
  6
CONTINUOUS
  0
LINE
  8
WHITE
 10
103.008348
 20
30.960725
 30
0.000000
 11
100.095285
 21
32.185772
 31
0.000000
  6
CONTINUOUS
  0
LINE
  8
WHITE
 10
100.095285
 20
32.185772
 30
0.000000
 11
100.413602
 21
33.304695
 31
0.000000
  6
CONTINUOUS
  0
LINE
  8
WHITE
 10
100.413602
 20
33.304695
 30
0.000000
 11
103.307404
 21
32.098948
 31
0.000000
  6
CONTINUOUS
  0
ARC
  8
WHITE
 10
63.877532
 20
41.888037
 30
0.000000
 40
40.626852
 50
-13.942687
 51
-6.966348
  6
CONTINUOUS
  0
LINE
  8
WHITE
 10
104.204458
 20
36.960554
 30
0.000000
 11
101.252802
 21
37.307774
 31
0.000000
  6
CONTINUOUS
  0
LINE
  8
WHITE
 10
101.252802
 20
37.307774
 30
0.000000
 11
101.407138
 21
38.445999
 31
0.000000
  6
CONTINUOUS
  0
LINE
  8
WHITE
 10
101.407138
 20
38.445999
 30
0.000000
 11
104.320231
 21
38.108399
 31
0.000000
  6
CONTINUOUS
  0
ARC
  8
WHITE
 10
63.866943
 20
41.851179
 30
0.000000
 40
40.626063
 50
-5.286015
 51
1.224230
  6
CONTINUOUS
  0
LINE
  8
WHITE
 10
104.483732
 20
42.719163
 30
0.000000
 11
101.619349
 21
43.278641
 31
0.000000
  6
CONTINUOUS
  0
LINE
  8
WHITE
 10
101.619349
 20
43.278641
 30
0.000000
 11
101.657933
 21
44.455450
 31
0.000000
  6
CONTINUOUS
  0
LINE
  8
WHITE
 10
101.657933
 20
44.455450
 30
0.000000
 11
104.542089
 21
43.886338
 31
0.000000
  6
CONTINUOUS
  0
ARC
  8
WHITE
 10
66.354644
 20
45.075686
 30
0.000000
 40
38.205962
 50
-1.783901
 51
5.748157
  6
CONTINUOUS
  0
ARC
  8
WHITE
 10
107.194732
 20
48.902234
 30
0.000000
 40
2.826242
 50
88.631420
 51
179.999802
  6
CONTINUOUS
  0
ARC
  8
WHITE
 10
108.353056
 20
57.641693
 30
0.000000
 40
6.013753
 50
-100.450610
 51
-55.858662
  6
CONTINUOUS
  0
LINE
  8
WHITE
 10
111.728193
 20
52.664377
 30
0.000000
 11
110.098170
 21
58.712199
 31
0.000000
  6
CONTINUOUS
  0
LINE
  8
WHITE
 10
110.098170
 20
58.712199
 30
0.000000
 11
111.217103
 21
59.011224
 31
0.000000
  6
CONTINUOUS
  0
LINE
  8
WHITE
 10
111.217103
 20
59.011224
 30
0.000000
 11
112.914794
 21
52.712394
 31
0.000000
  6
CONTINUOUS
  0
ARC
  8
WHITE
 10
113.291952
 20
52.804995
 30
0.000000
 40
0.388359
 50
-166.205363
 51
-19.739800
  6
CONTINUOUS
  0
ARC
  8
WHITE
 10
89.146150
 20
61.488301
 30
0.000000
 40
26.048043
 50
-19.778991
 51
36.948399
  6
CONTINUOUS
  0
ARC
  8
WHITE
 10
106.588000
 20
73.585316
 30
0.000000
 40
4.905846
 50
46.529650
 51
92.603060
  6
CONTINUOUS
  0
LINE
  8
WHITE
 10
106.365194
 20
78.486100
 30
0.000000
 11
108.255789
 21
70.885418
 31
0.000000
  6
CONTINUOUS
  0
LINE
  8
WHITE
 10
108.255789
 20
70.885418
 30
0.000000
 11
107.136856
 21
70.605675
 31
0.000000
  6
CONTINUOUS
  0
LINE
  8
WHITE
 10
107.136856
 20
70.605675
 30
0.000000
 11
105.140139
 21
78.592541
 31
0.000000
  6
CONTINUOUS
  0
ARC
  8
WHITE
 10
118.422645
 20
219.115096
 30
0.000000
 40
141.148905
 50
-97.788500
 51
-95.399682
  6
CONTINUOUS
  0
LINE
  8
WHITE
 10
99.294616
 20
79.268328
 30
0.000000
 11
99.246440
 21
71.550981
 31
0.000000
  6
CONTINUOUS
  0
LINE
  8
WHITE
 10
99.246440
 20
71.550981
 30
0.000000
 11
98.088923
 21
71.550981
 31
0.000000
  6
CONTINUOUS
  0
LINE
  8
WHITE
 10
98.088923
 20
71.550981
 30
0.000000
 11
98.185392
 21
87.621173
 31
0.000000
  6
CONTINUOUS
  0
LINE
  8
WHITE
 10
98.185392
 20
87.621173
 30
0.000000
 11
91.539307
 21
87.621173
 31
0.000000
  6
CONTINUOUS
  0
LINE
  8
WHITE
 10
91.539307
 20
87.621173
 30
0.000000
 11
91.539307
 21
88.778690
 31
0.000000
  6
CONTINUOUS
  0
LINE
  8
WHITE
 10
91.539307
 20
88.778690
 30
0.000000
 11
98.185392
 21
88.778690
 31
0.000000
  6
CONTINUOUS
  0
LINE
  8
WHITE
 10
98.185392
 20
88.778690
 30
0.000000
 11
98.243258
 21
97.440784
 31
0.000000
  6
CONTINUOUS
  0
ARC
  8
WHITE
 10
94.857522
 20
97.457182
 30
0.000000
 40
3.385776
 50
-0.277499
 51
75.817180
  6
CONTINUOUS
  0
LINE
  8
WHITE
 10
95.687093
 20
100.739755
 30
0.000000
 11
95.687085
 21
95.472995
 31
0.000000
  6
CONTINUOUS
  0
LINE
  8
WHITE
 10
95.687085
 20
95.472995
 30
0.000000
 11
94.529568
 21
95.472995
 31
0.000000
  6
CONTINUOUS
  0
LINE
  8
WHITE
 10
94.529568
 20
95.472995
 30
0.000000
 11
94.529568
 21
100.836157
 31
0.000000
  6
CONTINUOUS
  0
ARC
  8
WHITE
 10
93.841810
 20
106.200292
 30
0.000000
 40
5.408046
 50
-143.164900
 51
-82.693733
  6
CONTINUOUS
  0
ARC
  8
WHITE
 10
88.401786
 20
101.725136
 30
0.000000
 40
1.660094
 50
47.962531
 51
160.008194
  6
CONTINUOUS
  0
LINE
  8
WHITE
 10
86.841727
 20
102.292699
 30
0.000000
 11
88.105340
 21
100.344222
 31
0.000000
  6
CONTINUOUS
  0
LINE
  8
WHITE
 10
88.105340
 20
100.344222
 30
0.000000
 11
87.131106
 21
99.717233
 31
0.000000
  6
CONTINUOUS
  0
LINE
  8
WHITE
 10
87.131106
 20
99.717233
 30
0.000000
 11
84.883594
 21
103.189784
 31
0.000000
  6
CONTINUOUS
  0
ARC
  8
WHITE
 10
86.135642
 20
98.423708
 30
0.000000
 40
4.927788
 50
104.719016
 51
180.661800
  6
CONTINUOUS
  0
LINE
  8
WHITE
 10
81.208190
 20
98.366791
 30
0.000000
 11
86.542702
 21
96.456894
 31
0.000000
  6
CONTINUOUS
  0
LINE
  8
WHITE
 10
86.542702
 20
96.456894
 30
0.000000
 11
86.156863
 21
95.366899
 31
0.000000
  6
CONTINUOUS
  0
LINE
  8
WHITE
 10
86.156863
 20
95.366899
 30
0.000000
 11
74.832490
 21
99.350686
 31
0.000000
  6
CONTINUOUS
  0
ARC
  8
WHITE
 10
74.070312
 20
97.170747
 30
0.000000
 40
2.309340
 50
70.728714
 51
151.293381
  6
CONTINUOUS
  0
ARC
  8
WHITE
 10
78.163035
 20
95.392500
 30
0.000000
 40
6.765368
 50
154.735144
 51
201.114443
  6
CONTINUOUS
  0
ARC
  8
WHITE
 10
72.879828
 20
93.455689
 30
0.000000
 40
1.143231
 50
-154.048434
 51
-29.224802
  6
CONTINUOUS
  0
LINE
  8
WHITE
 10
73.877538
 20
92.897520
 30
0.000000
 11
75.092921
 21
95.067874
 31
0.000000
  6
CONTINUOUS
  0
ARC
  8
WHITE
 10
75.988660
 20
94.563502
 30
0.000000
 40
1.027978
 50
71.882750
 51
150.617014
  6
CONTINUOUS
  0
ARC
  8
WHITE
 10
74.572049
 20
90.167710
 30
0.000000
 40
5.646386
 50
11.828160
 51
72.091260
  6
CONTINUOUS
  0
ARC
  8
WHITE
 10
88.992686
 20
92.348426
 30
0.000000
 40
8.952820
 50
-173.436560
 51
-110.366080
  6
CONTINUOUS
  0
ARC
  8
WHITE
 10
85.651392
 20
81.437920
 30
0.000000
 40
2.527428
 50
-3.935004
 51
84.879836
  6
CONTINUOUS
  0
LINE
  8
WHITE
 10
88.172862
 20
81.264476
 30
0.000000
 11
88.018536
 21
78.235650
 31
0.000000
  6
CONTINUOUS
  0
ARC
  8
WHITE
 10
84.893559
 20
78.400737
 30
0.000000
 40
3.129334
 50
-66.768575
 51
-3.024025
  6
CONTINUOUS
  0
ARC
  8
WHITE
 10
81.369272
 20
96.669266
 30
0.000000
 40
21.673003
 50
-92.874365
 51
-77.316495
  6
CONTINUOUS
  0
ARC
  8
WHITE
 10
80.375914
 20
72.573450
 30
0.000000
 40
2.451862
 50
92.184500
 51
170.491141
  6
CONTINUOUS
  0
ARC
  8
WHITE
 10
187.867617
 20
62.699117
 30
0.000000
 40
110.389522
 50
174.656924
 51
178.749876
  6
CONTINUOUS
  0
LINE
  8
WHITE
 10
77.504370
 20
65.107490
 30
0.000000
 11
77.494779
 21
64.818091
 31
0.000000
  6
CONTINUOUS
  0
LINE
  8
WHITE
 10
120.400070
 20
113.945045
 30
0.000000
 11
122.068823
 21
114.668493
 31
0.000000
  6
CONTINUOUS
  0
LINE
  8
WHITE
 10
122.068823
 20
114.668493
 30
0.000000
 11
117.988576
 21
121.189171
 31
0.000000
  6
CONTINUOUS
  0
LINE
  8
WHITE
 10
117.988576
 20
121.189171
 30
0.000000
 11
118.972465
 21
121.796867
 31
0.000000
  6
CONTINUOUS
  0
LINE
  8
WHITE
 10
118.972465
 20
121.796867
 30
0.000000
 11
123.139526
 21
115.131499
 31
0.000000
  6
CONTINUOUS
  0
ARC
  8
WHITE
 10
123.204154
 20
116.867775
 30
0.000000
 40
1.737478
 50
-92.131693
 51
8.296457
  6
CONTINUOUS
  0
ARC
  8
WHITE
 10
-14.113727
 20
128.768236
 30
0.000000
 40
139.524375
 50
-4.789555
 51
4.592984
  6
CONTINUOUS
  0
ARC
  8
WHITE
 10
78.634872
 20
145.771528
 30
0.000000
 40
46.693188
 50
-7.173296
 51
36.208828
  6
CONTINUOUS
  0
ARC
  8
WHITE
 10
107.512084
 20
169.440260
 30
0.000000
 40
9.629556
 50
23.984630
 51
109.358800
  6
CONTINUOUS
  0
ARC
  8
WHITE
 10
107.796141
 20
170.757144
 30
0.000000
 40
8.510499
 50
114.107329
 51
166.345017
  6
CONTINUOUS
  0
ARC
  8
WHITE
 10
190.323733
 20
156.146180
 30
0.000000
 40
92.306123
 50
169.627100
 51
186.998800
  6
CONTINUOUS
  0
ARC
  8
WHITE
 10
182.645733
 20
129.900577
 30
0.000000
 40
85.269718
 50
169.869447
 51
176.251768
  6
CONTINUOUS
  0
ARC
  8
WHITE
 10
112.742131
 20
138.401446
 30
0.000000
 40
15.463190
 50
-169.090300
 51
-133.728600
  6
CONTINUOUS
  0
ARC
  8
WHITE
 10
107.033452
 20
131.740149
 30
0.000000
 40
6.720620
 50
-137.818783
 51
-95.211207
  6
CONTINUOUS
  0
ARC
  8
WHITE
 10
103.359411
 20
112.304364
 30
0.000000
 40
13.106044
 50
35.971969
 51
76.481658
  6
CONTINUOUS
  0
ARC
  8
WHITE
 10
94.113662
 20
104.544420
 30
0.000000
 40
25.161117
 50
24.472357
 51
37.906330
  6
CONTINUOUS
  0
ARC
  8
WHITE
 10
119.171173
 20
116.037256
 30
0.000000
 40
2.407548
 50
-153.619700
 51
-66.527200
  6
CONTINUOUS
  0
LINE
  8
WHITE
 10
120.130132
 20
113.828934
 30
0.000000
 11
120.400070
 21
113.945045
 31
0.000000
  6
CONTINUOUS
  0
ARC
  8
WHITE
 10
11.868636
 20
125.874701
 30
0.000000
 40
106.182252
 50
7.901379
 51
17.413210
  6
CONTINUOUS
  0
ARC
  8
WHITE
 10
117.732725
 20
140.553429
 30
0.000000
 40
0.694774
 50
-173.219804
 51
6.780196
  6
CONTINUOUS
  0
ARC
  8
WHITE
 10
-11.815353
 20
127.705026
 30
0.000000
 40
130.878306
 50
5.669920
 51
19.815450
  6
CONTINUOUS
  0
ARC
  8
WHITE
 10
100.638554
 20
167.790324
 30
0.000000
 40
11.501563
 50
21.853883
 51
43.306600
  6
CONTINUOUS
  0
ARC
  8
WHITE
 10
107.916250
 20
174.619184
 30
0.000000
 40
1.521865
 50
44.152569
 51
205.980701
  6
CONTINUOUS
  0
ARC
  8
WHITE
 10
11.859930
 20
125.902473
 30
0.000000
 40
106.182252
 50
17.397506
 51
26.905744
  6
CONTINUOUS
  0
ARC
  8
WHITE
 10
141.643397
 20
187.119401
 30
0.000000
 40
45.134688
 50
-147.544900
 51
-137.436400
  6
CONTINUOUS
  0
ARC
  8
WHITE
 10
83.970111
 20
134.190979
 30
0.000000
 40
33.144472
 50
34.295440
 51
42.516107
  6
CONTINUOUS
  0
ARC
  8
WHITE
 10
111.722600
 20
153.111981
 30
0.000000
 40
0.444368
 50
-146.474315
 51
14.527951
  6
CONTINUOUS
  0
ARC
  8
WHITE
 10
51.564612
 20
138.943920
 30
0.000000
 40
62.248121
 50
13.261573
 51
33.997174
  6
CONTINUOUS
  0
ARC
  8
WHITE
 10
102.800562
 20
173.507659
 30
0.000000
 40
0.443850
 50
33.105362
 51
160.800047
  6
CONTINUOUS
  0
ARC
  8
WHITE
 10
113.863870
 20
169.467994
 30
0.000000
 40
12.221564
 50
159.972001
 51
212.516470
  6
CONTINUOUS
  0
ARC
  8
WHITE
 10
108.901121
 20
127.296187
 30
0.000000
 40
1.150728
 50
-108.524472
 51
3.308601
  6
CONTINUOUS
  0
ARC
  8
WHITE
 10
104.242067
 20
127.874429
 30
0.000000
 40
5.830374
 50
-5.036284
 51
34.337055
  6
CONTINUOUS
  0
ARC
  8
WHITE
 10
120.233194
 20
142.914797
 30
0.000000
 40
16.217978
 50
-162.188000
 51
-133.563700
  6
CONTINUOUS
  0
ARC
  8
WHITE
 10
100.561915
 20
134.343673
 30
0.000000
 40
5.561646
 50
40.474683
 51
80.252179
  6
CONTINUOUS
  0
ARC
  8
WHITE
 10
101.353844
 20
138.907899
 30
0.000000
 40
0.929264
 50
80.728031
 51
159.906948
  6
CONTINUOUS
  0
ARC
  8
WHITE
 10
105.444952
 20
137.373186
 30
0.000000
 40
5.298736
 50
159.519600
 51
177.057500
  6
CONTINUOUS
  0
ARC
  8
WHITE
 10
112.432499
 20
137.851421
 30
0.000000
 40
12.281028
 50
-179.037806
 51
-108.500726
  6
CONTINUOUS
  0
ARC
  8
WHITE
 10
56.283273
 20
116.038221
 30
0.000000
 40
63.667333
 50
24.460480
 51
43.041570
  6
CONTINUOUS
  0
ARC
  8
WHITE
 10
102.170443
 20
158.779061
 30
0.000000
 40
0.961926
 50
47.919800
 51
215.537801
  6
CONTINUOUS
  0
ARC
  8
WHITE
 10
35.313071
 20
102.601896
 30
0.000000
 40
86.366798
 50
18.317286
 51
40.088865
  6
CONTINUOUS
  0
ARC
  8
WHITE
 10
117.848710
 20
129.894662
 30
0.000000
 40
0.565120
 50
-164.659540
 51
15.340192
  6
CONTINUOUS
  0
ARC
  8
WHITE
 10
56.286182
 20
116.025326
 30
0.000000
 40
63.670026
 50
12.719582
 51
24.472127
  6
CONTINUOUS
  0
ARC
  8
WHITE
 10
107.915718
 20
146.600551
 30
0.000000
 40
6.792386
 50
-144.849221
 51
-123.022586
  6
CONTINUOUS
  0
ARC
  8
WHITE
 10
81.721160
 20
106.207904
 30
0.000000
 40
41.350331
 50
53.501481
 51
57.046398
  6
CONTINUOUS
  0
ARC
  8
WHITE
 10
107.529607
 20
141.100471
 30
0.000000
 40
2.049764
 50
-126.289579
 51
23.223201
  6
CONTINUOUS
  0
ARC
  8
WHITE
 10
31.041689
 20
100.413673
 30
0.000000
 40
88.678899
 50
27.899670
 51
31.246570
  6
CONTINUOUS
  0
ARC
  8
WHITE
 10
93.622847
 20
138.368650
 30
0.000000
 40
15.487502
 50
31.294252
 51
54.736130
  6
CONTINUOUS
  0
ARC
  8
WHITE
 10
102.016277
 20
150.242224
 30
0.000000
 40
0.946857
 50
54.622848
 51
171.762085
  6
CONTINUOUS
  0
ARC
  8
WHITE
 10
115.006958
 20
148.279570
 30
0.000000
 40
14.084945
 50
171.432391
 51
193.322194
  6
CONTINUOUS
  0
ARC
  8
WHITE
 10
107.907569
 20
146.612099
 30
0.000000
 40
6.792386
 50
-166.565700
 51
-144.730000
  6
CONTINUOUS
  0
ARC
  8
WHITE
 10
49.264872
 20
142.559826
 30
0.000000
 40
72.567137
 50
13.486521
 51
22.595260
  6
CONTINUOUS
  0
ARC
  8
WHITE
 10
115.499890
 20
170.181068
 30
0.000000
 40
0.805280
 50
18.868459
 51
198.868456
  6
CONTINUOUS
  0
ARC
  8
WHITE
 10
-289.474715
 20
58.269449
 30
0.000000
 40
419.349275
 50
11.975940
 51
15.441163
  6
CONTINUOUS
  0
ARC
  8
WHITE
 10
121.263383
 20
145.352331
 30
0.000000
 40
0.520455
 50
-172.545293
 51
7.454707
  6
CONTINUOUS
  0
ARC
  8
WHITE
 10
49.265645
 20
142.540280
 30
0.000000
 40
72.570946
 50
2.274063
 51
13.501669
  6
CONTINUOUS
  0
ARC
  8
WHITE
 10
137.382118
 20
128.640211
 30
0.000000
 40
17.184668
 50
173.924720
 51
196.113647
  6
CONTINUOUS
  0
ARC
  8
WHITE
 10
121.326963
 20
124.002228
 30
0.000000
 40
0.473030
 50
-163.858176
 51
-12.510663
  6
CONTINUOUS
  0
ARC
  8
WHITE
 10
78.278179
 20
133.245442
 30
0.000000
 40
44.502949
 50
-12.122434
 51
6.298131
  6
CONTINUOUS
  0
ARC
  8
WHITE
 10
121.850824
 20
137.929758
 30
0.000000
 40
0.690623
 50
16.637932
 51
176.393400
  6
CONTINUOUS
  0
ARC
  8
WHITE
 10
73.453379
 20
139.990713
 30
0.000000
 40
47.750829
 50
-10.076918
 51
-2.421513
  6
CONTINUOUS
  0
ARC
  8
WHITE
 10
137.371196
 20
128.540367
 30
0.000000
 40
17.184678
 50
169.623000
 51
173.589842
  6
CONTINUOUS
  0
ARC
  8
WHITE
 10
97.930568
 20
126.877019
 30
0.000000
 40
17.060178
 50
27.597515
 51
38.224842
  6
CONTINUOUS
  0
ARC
  8
WHITE
 10
110.657636
 20
136.902462
 30
0.000000
 40
0.858704
 50
38.157231
 51
128.157500
  6
CONTINUOUS
  0
ARC
  8
WHITE
 10
111.963701
 20
135.238532
 30
0.000000
 40
2.973998
 50
128.137474
 51
205.866800
  6
CONTINUOUS
  0
ARC
  8
WHITE
 10
120.020770
 20
139.137874
 30
0.000000
 40
11.925044
 50
-154.164293
 51
-119.709063
  6
CONTINUOUS
  0
ARC
  8
WHITE
 10
114.342122
 20
129.185840
 30
0.000000
 40
0.466859
 50
-119.706825
 51
7.102348
  6
CONTINUOUS
  0
ARC
  8
WHITE
 10
97.902755
 20
126.930454
 30
0.000000
 40
17.060183
 50
7.792465
 51
27.395200
  6
CONTINUOUS
  0
LINE
  8
WHITE
 10
30.586408
 20
116.819545
 30
0.000000
 11
32.255152
 21
117.542993
 31
0.000000
  6
CONTINUOUS
  0
LINE
  8
WHITE
 10
32.255152
 20
117.542993
 30
0.000000
 11
28.184561
 21
124.063671
 31
0.000000
  6
CONTINUOUS
  0
LINE
  8
WHITE
 10
28.184561
 20
124.063671
 30
0.000000
 11
29.168450
 21
124.681013
 31
0.000000
  6
CONTINUOUS
  0
LINE
  8
WHITE
 10
29.168450
 20
124.681013
 30
0.000000
 11
33.325865
 21
118.006000
 31
0.000000
  6
CONTINUOUS
  0
ARC
  8
WHITE
 10
33.400305
 20
119.742309
 30
0.000000
 40
1.737905
 50
-92.454920
 51
8.293500
  6
CONTINUOUS
  0
ARC
  8
WHITE
 10
-103.909380
 20
131.756735
 30
0.000000
 40
139.526212
 50
-4.836467
 51
4.545968
  6
CONTINUOUS
  0
ARC
  8
WHITE
 10
-11.143049
 20
148.669504
 30
0.000000
 40
46.689397
 50
-7.202900
 51
36.176535
  6
CONTINUOUS
  0
ARC
  8
WHITE
 10
17.746580
 20
172.324549
 30
0.000000
 40
9.625640
 50
23.931245
 51
109.304616
  6
CONTINUOUS
  0
ARC
  8
WHITE
 10
18.033543
 20
173.642765
 30
0.000000
 40
8.505810
 50
114.069939
 51
166.281404
  6
CONTINUOUS
  0
ARC
  8
WHITE
 10
100.548473
 20
158.952216
 30
0.000000
 40
92.302814
 50
169.571406
 51
186.938043
  6
CONTINUOUS
  0
ARC
  8
WHITE
 10
92.848275
 20
132.711286
 30
0.000000
 40
85.272713
 50
169.806400
 51
176.189500
  6
CONTINUOUS
  0
ARC
  8
WHITE
 10
22.957398
 20
141.297168
 30
0.000000
 40
15.471176
 50
-169.124873
 51
-133.749500
  6
CONTINUOUS
  0
ARC
  8
WHITE
 10
17.248981
 20
134.622087
 30
0.000000
 40
6.719974
 50
-137.950486
 51
-95.378919
  6
CONTINUOUS
  0
ARC
  8
WHITE
 10
13.547761
 20
115.198057
 30
0.000000
 40
13.098798
 50
35.943310
 51
76.439610
  6
CONTINUOUS
  0
ARC
  8
WHITE
 10
4.316564
 20
107.414720
 30
0.000000
 40
25.156551
 50
24.487600
 51
37.954373
  6
CONTINUOUS
  0
ARC
  8
WHITE
 10
29.369077
 20
118.926225
 30
0.000000
 40
2.415715
 50
-153.332608
 51
-66.915600
  6
CONTINUOUS
  0
LINE
  8
WHITE
 10
30.316255
 20
116.703920
 30
0.000000
 11
30.586408
 21
116.819545
 31
0.000000
  6
CONTINUOUS
  0
ARC
  8
WHITE
 10
-77.924901
 20
128.858871
 30
0.000000
 40
106.176416
 50
7.842106
 51
17.352209
  6
CONTINUOUS
  0
ARC
  8
WHITE
 10
27.948235
 20
143.427963
 30
0.000000
 40
0.694556
 50
-173.219999
 51
6.779659
  6
CONTINUOUS
  0
ARC
  8
WHITE
 10
-101.610696
 20
130.703959
 30
0.000000
 40
130.876640
 50
5.615252
 51
19.762300
  6
CONTINUOUS
  0
ARC
  8
WHITE
 10
10.879684
 20
170.692308
 30
0.000000
 40
11.497799
 50
21.765628
 51
43.266330
  6
CONTINUOUS
  0
ARC
  8
WHITE
 10
18.128514
 20
177.546958
 30
0.000000
 40
1.521430
 50
42.396015
 51
207.825419
  6
CONTINUOUS
  0
ARC
  8
WHITE
 10
-77.899599
 20
128.808958
 30
0.000000
 40
106.167166
 50
17.381992
 51
26.896440
  6
CONTINUOUS
  0
ARC
  8
WHITE
 10
51.890550
 20
189.984549
 30
0.000000
 40
45.138279
 50
-144.309773
 51
-137.473246
  6
CONTINUOUS
  0
ARC
  8
WHITE
 10
-5.805911
 20
137.075125
 30
0.000000
 40
33.145108
 50
34.294520
 51
42.515001
  6
CONTINUOUS
  0
ARC
  8
WHITE
 10
21.947424
 20
155.996260
 30
0.000000
 40
0.444427
 50
-146.452907
 51
14.507215
  6
CONTINUOUS
  0
ARC
  8
WHITE
 10
-38.215428
 20
141.866280
 30
0.000000
 40
62.244195
 50
13.226280
 51
33.967860
  6
CONTINUOUS
  0
ARC
  8
WHITE
 10
13.041300
 20
176.391217
 30
0.000000
 40
0.444360
 50
34.646296
 51
159.407411
  6
CONTINUOUS
  0
ARC
  8
WHITE
 10
24.102454
 20
172.337134
 30
0.000000
 40
12.225039
 50
159.854474
 51
212.422741
  6
CONTINUOUS
  0
ARC
  8
WHITE
 10
51.839382
 20
190.055635
 30
0.000000
 40
45.138266
 50
-147.469400
 51
-144.198596
  6
CONTINUOUS
  0
ARC
  8
WHITE
 10
19.096055
 20
130.191284
 30
0.000000
 40
1.160787
 50
-108.303536
 51
2.738171
  6
CONTINUOUS
  0
ARC
  8
WHITE
 10
14.447705
 20
130.758661
 30
0.000000
 40
5.830329
 50
-5.037262
 51
34.336300
  6
CONTINUOUS
  0
ARC
  8
WHITE
 10
30.457083
 20
145.780834
 30
0.000000
 40
16.217451
 50
-162.290617
 51
-133.654490
  6
CONTINUOUS
  0
ARC
  8
WHITE
 10
10.789002
 20
137.224638
 30
0.000000
 40
5.561251
 50
40.653030
 51
80.475590
  6
CONTINUOUS
  0
ARC
  8
WHITE
 10
11.555757
 20
141.792989
 30
0.000000
 40
0.929000
 50
80.492230
 51
159.324065
  6
CONTINUOUS
  0
ARC
  8
WHITE
 10
15.665246
 20
140.296471
 30
0.000000
 40
5.302444
 50
159.873590
 51
177.378495
  6
CONTINUOUS
  0
ARC
  8
WHITE
 10
22.647773
 20
140.728950
 30
0.000000
 40
12.280892
 50
-179.113736
 51
-108.595866
  6
CONTINUOUS
  0
ARC
  8
WHITE
 10
-33.525313
 20
118.968214
 30
0.000000
 40
63.666983
 50
23.920474
 51
42.997167
  6
CONTINUOUS
  0
ARC
  8
WHITE
 10
12.394829
 20
161.673347
 30
0.000000
 40
0.961768
 50
47.876413
 51
215.580557
  6
CONTINUOUS
  0
ARC
  8
WHITE
 10
-54.503448
 20
105.546769
 30
0.000000
 40
86.365640
 50
18.268343
 51
40.045232
  6
CONTINUOUS
  0
ARC
  8
WHITE
 10
28.049475
 20
132.769147
 30
0.000000
 40
0.560525
 50
-164.528220
 51
15.471779
  6
CONTINUOUS
  0
ARC
  8
WHITE
 10
-33.535030
 20
118.990132
 30
0.000000
 40
63.666983
 50
12.636907
 51
23.898897
  6
CONTINUOUS
  0
ARC
  8
WHITE
 10
18.128142
 20
149.488083
 30
0.000000
 40
6.793561
 50
-166.722023
 51
-122.986976
  6
CONTINUOUS
  0
ARC
  8
WHITE
 10
-8.130601
 20
109.136527
 30
0.000000
 40
41.349666
 50
53.400890
 51
56.934950
  6
CONTINUOUS
  0
ARC
  8
WHITE
 10
17.750502
 20
143.972961
 30
0.000000
 40
2.048605
 50
-126.826405
 51
23.584600
  6
CONTINUOUS
  0
ARC
  8
WHITE
 10
-58.790521
 20
103.382627
 30
0.000000
 40
88.680610
 50
27.836918
 51
31.189129
  6
CONTINUOUS
  0
ARC
  8
WHITE
 10
3.844876
 20
141.261478
 30
0.000000
 40
15.482290
 50
31.310237
 51
54.708810
  6
CONTINUOUS
  0
ARC
  8
WHITE
 10
12.231431
 20
153.133221
 30
0.000000
 40
0.947151
 50
53.900636
 51
171.594663
  6
CONTINUOUS
  0
ARC
  8
WHITE
 10
25.214556
 20
151.172715
 30
0.000000
 40
14.077459
 50
171.425200
 51
193.326900
  6
CONTINUOUS
  0
ARC
  8
WHITE
 10
-379.366133
 20
61.651476
 30
0.000000
 40
419.348629
 50
11.905082
 51
13.567087
  6
CONTINUOUS
  0
ARC
  8
WHITE
 10
31.478660
 20
148.226835
 30
0.000000
 40
0.520462
 50
-172.545875
 51
7.454124
  6
CONTINUOUS
  0
ARC
  8
WHITE
 10
-40.522735
 20
145.499918
 30
0.000000
 40
72.571281
 50
2.206783
 51
22.537790
  6
CONTINUOUS
  0
ARC
  8
WHITE
 10
25.744054
 20
173.055521
 30
0.000000
 40
0.805278
 50
18.869664
 51
198.869667
  6
CONTINUOUS
  0
ARC
  8
WHITE
 10
-379.336839
 20
61.544954
 30
0.000000
 40
419.345154
 50
13.582174
 51
15.384476
  6
CONTINUOUS
  0
ARC
  8
WHITE
 10
24.546629
 20
132.063520
 30
0.000000
 40
0.468812
 50
-119.393949
 51
7.868884
  6
CONTINUOUS
  0
ARC
  8
WHITE
 10
8.110325
 20
129.807848
 30
0.000000
 40
17.059175
 50
7.815797
 51
38.027870
  6
CONTINUOUS
  0
ARC
  8
WHITE
 10
20.868974
 20
139.791523
 30
0.000000
 40
0.858665
 50
37.737361
 51
128.659924
  6
CONTINUOUS
  0
ARC
  8
WHITE
 10
22.172422
 20
138.125734
 30
0.000000
 40
2.973773
 50
128.220787
 51
205.726695
  6
CONTINUOUS
  0
ARC
  8
WHITE
 10
30.242108
 20
142.007950
 30
0.000000
 40
11.928739
 50
-154.299667
 51
-119.785084
  6
CONTINUOUS
  0
ARC
  8
WHITE
 10
47.581939
 20
131.483915
 30
0.000000
 40
17.179657
 50
179.429231
 51
196.011405
  6
CONTINUOUS
  0
ARC
  8
WHITE
 10
31.523033
 20
126.876437
 30
0.000000
 40
0.472852
 50
-163.895530
 51
-12.479300
  6
CONTINUOUS
  0
ARC
  8
WHITE
 10
-11.527913
 20
136.150076
 30
0.000000
 40
44.511318
 50
-12.159807
 51
6.257920
  6
CONTINUOUS
  0
ARC
  8
WHITE
 10
32.056455
 20
140.804258
 30
0.000000
 40
0.690623
 50
16.637931
 51
176.393398
  6
CONTINUOUS
  0
ARC
  8
WHITE
 10
-16.343874
 20
142.865518
 30
0.000000
 40
47.753724
 50
-10.076695
 51
-2.421733
  6
CONTINUOUS
  0
ARC
  8
WHITE
 10
47.581799
 20
131.470391
 30
0.000000
 40
17.179657
 50
169.808197
 51
179.384127
  6
CONTINUOUS
  0
ARC
  8
WHITE
 10
9.211108
 20
44.929209
 30
0.000000
 40
8.955107
 50
-51.258756
 51
-1.673713
  6
CONTINUOUS
  0
ARC
  8
WHITE
 10
19.744334
 20
19.819624
 30
0.000000
 40
18.783064
 50
105.213800
 51
117.894200
  6
CONTINUOUS
  0
ARC
  8
WHITE
 10
11.666491
 20
34.406161
 30
0.000000
 40
2.135532
 50
109.408291
 51
212.572117
  6
CONTINUOUS
  0
LINE
  8
WHITE
 10
9.866847
 20
33.256475
 30
0.000000
 11
14.979223
 21
35.002396
 31
0.000000
  6
CONTINUOUS
  0
LINE
  8
WHITE
 10
14.979223
 20
35.002396
 30
0.000000
 11
15.355416
 21
33.902745
 31
0.000000
  6
CONTINUOUS
  0
LINE
  8
WHITE
 10
15.355416
 20
33.902745
 30
0.000000
 11
10.243050
 21
32.156834
 31
0.000000
  6
CONTINUOUS
  0
ARC
  8
WHITE
 10
12.365164
 20
32.344930
 30
0.000000
 40
2.130434
 50
-174.934748
 51
-71.523999
  6
CONTINUOUS
  0
LINE
  8
WHITE
 10
13.040313
 20
30.324311
 30
0.000000
 11
18.528932
 21
32.195408
 31
0.000000
  6
CONTINUOUS
  0
ARC
  8
WHITE
 10
19.667919
 20
25.397017
 30
0.000000
 40
6.893142
 50
66.590059
 51
99.510877
  6
CONTINUOUS
  0
LINE
  8
WHITE
 10
22.406613
 20
31.722755
 30
0.000000
 11
25.850226
 21
34.944520
 31
0.000000
  6
CONTINUOUS
  0
LINE
  8
WHITE
 10
25.850226
 20
34.944520
 30
0.000000
 11
26.641196
 21
34.095665
 31
0.000000
  6
CONTINUOUS
  0
LINE
  8
WHITE
 10
26.641196
 20
34.095665
 30
0.000000
 11
23.197583
 21
30.873919
 31
0.000000
  6
CONTINUOUS
  0
LINE
  8
WHITE
 10
23.197583
 20
30.873919
 30
0.000000
 11
24.441923
 21
29.552421
 31
0.000000
  6
CONTINUOUS
  0
ARC
  8
WHITE
 10
25.145683
 20
30.208762
 30
0.000000
 40
0.962321
 50
-136.996767
 51
-44.595488
  6
CONTINUOUS
  0
LINE
  8
WHITE
 10
25.830934
 20
29.533119
 30
0.000000
 11
30.007640
 21
33.786994
 31
0.000000
  6
CONTINUOUS
  0
ARC
  8
WHITE
 10
33.740511
 20
30.121654
 30
0.000000
 40
5.231543
 50
45.222229
 51
135.522978
  6
CONTINUOUS
  0
LINE
  8
WHITE
 10
37.425394
 20
33.835233
 30
0.000000
 11
39.103803
 21
32.205064
 31
0.000000
  6
CONTINUOUS
  0
ARC
  8
WHITE
 10
41.290592
 20
34.349316
 30
0.000000
 40
3.062656
 50
-135.562688
 51
-59.049157
  6
CONTINUOUS
  0
LINE
  8
WHITE
 10
42.865723
 20
31.722755
 30
0.000000
 11
40.155205
 21
35.764428
 31
0.000000
  6
CONTINUOUS
  0
LINE
  8
WHITE
 10
40.155205
 20
35.764428
 30
0.000000
 11
41.119802
 21
36.401062
 31
0.000000
  6
CONTINUOUS
  0
LINE
  8
WHITE
 10
41.119802
 20
36.401062
 30
0.000000
 11
43.830330
 21
32.359389
 31
0.000000
  6
CONTINUOUS
  0
ARC
  8
WHITE
 10
42.011090
 20
34.812361
 30
0.000000
 40
3.053965
 50
-53.437606
 51
23.391090
  6
CONTINUOUS
  0
LINE
  8
WHITE
 10
44.814059
 20
36.024796
 30
0.000000
 11
43.936426
 21
38.204859
 31
0.000000
  6
CONTINUOUS
  0
ARC
  8
WHITE
 10
52.966097
 20
39.536133
 30
0.000000
 40
9.127280
 50
150.078833
 51
188.386887
  6
CONTINUOUS
  0
LINE
  8
WHITE
 10
45.055369
 20
44.088893
 30
0.000000
 11
31.097645
 21
44.088893
 31
0.000000
  6
CONTINUOUS
  0
LINE
  8
WHITE
 10
31.097645
 20
44.088893
 30
0.000000
 11
31.097645
 21
45.246420
 31
0.000000
  6
CONTINUOUS
  0
LINE
  8
WHITE
 10
31.097645
 20
45.246420
 30
0.000000
 11
45.055369
 21
45.246420
 31
0.000000
  6
CONTINUOUS
  0
ARC
  8
WHITE
 10
52.964103
 20
49.801249
 30
0.000000
 40
9.126584
 50
171.564100
 51
209.938668
  6
CONTINUOUS
  0
LINE
  8
WHITE
 10
43.936270
 20
51.140144
 30
0.000000
 11
44.814220
 21
53.320100
 31
0.000000
  6
CONTINUOUS
  0
ARC
  8
WHITE
 10
42.005312
 20
54.530670
 30
0.000000
 40
3.058666
 50
-23.314847
 51
53.372210
  6
CONTINUOUS
  0
LINE
  8
WHITE
 10
43.830153
 20
56.985331
 30
0.000000
 11
41.119802
 21
52.943897
 31
0.000000
  6
CONTINUOUS
  0
LINE
  8
WHITE
 10
41.119802
 20
52.943897
 30
0.000000
 11
40.155205
 21
53.580532
 31
0.000000
  6
CONTINUOUS
  0
LINE
  8
WHITE
 10
40.155205
 20
53.580532
 30
0.000000
 11
42.865723
 21
57.622204
 31
0.000000
  6
CONTINUOUS
  0
ARC
  8
WHITE
 10
41.289571
 20
55.000429
 30
0.000000
 40
3.059079
 50
58.986669
 51
135.613300
  6
CONTINUOUS
  0
LINE
  8
WHITE
 10
39.103448
 20
57.140244
 30
0.000000
 11
37.425394
 21
55.509726
 31
0.000000
  6
CONTINUOUS
  0
ARC
  8
WHITE
 10
33.740508
 20
59.223563
 30
0.000000
 40
5.231727
 50
-135.520870
 51
-45.224188
  6
CONTINUOUS
  0
LINE
  8
WHITE
 10
30.007640
 20
55.557956
 30
0.000000
 11
25.830934
 21
59.811831
 31
0.000000
  6
CONTINUOUS
  0
ARC
  8
WHITE
 10
25.145662
 20
59.137026
 30
0.000000
 40
0.961748
 50
44.559079
 51
137.031582
  6
CONTINUOUS
  0
LINE
  8
WHITE
 10
24.441923
 20
59.792548
 30
0.000000
 11
23.197583
 21
58.471040
 31
0.000000
  6
CONTINUOUS
  0
LINE
  8
WHITE
 10
23.197583
 20
58.471040
 30
0.000000
 11
26.641196
 21
55.249285
 31
0.000000
  6
CONTINUOUS
  0
LINE
  8
WHITE
 10
26.641196
 20
55.249285
 30
0.000000
 11
25.850226
 21
54.400439
 31
0.000000
  6
CONTINUOUS
  0
LINE
  8
WHITE
 10
25.850226
 20
54.400439
 30
0.000000
 11
22.406613
 21
57.622204
 31
0.000000
  6
CONTINUOUS
  0
ARC
  8
WHITE
 10
19.667157
 20
63.953821
 30
0.000000
 40
6.898840
 50
-99.496600
 51
-66.603650
  6
CONTINUOUS
  0
LINE
  8
WHITE
 10
18.528924
 20
57.149528
 30
0.000000
 11
13.040373
 21
59.020870
 31
0.000000
  6
CONTINUOUS
  0
ARC
  8
WHITE
 10
12.369023
 20
56.994242
 30
0.000000
 40
2.134932
 50
71.671800
 51
174.789100
  6
CONTINUOUS
  0
LINE
  8
WHITE
 10
10.242922
 20
57.188140
 30
0.000000
 11
15.355416
 21
55.442204
 31
0.000000
  6
CONTINUOUS
  0
LINE
  8
WHITE
 10
15.355416
 20
55.442204
 30
0.000000
 11
14.979223
 21
54.342563
 31
0.000000
  6
CONTINUOUS
  0
LINE
  8
WHITE
 10
14.979223
 20
54.342563
 30
0.000000
 11
9.866847
 21
56.088494
 31
0.000000
  6
CONTINUOUS
  0
ARC
  8
WHITE
 10
11.658105
 20
54.935801
 30
0.000000
 40
2.130095
 50
147.238272
 51
250.777300
  6
CONTINUOUS
  0
ARC
  8
WHITE
 10
19.743677
 20
69.525683
 30
0.000000
 40
18.783228
 50
-117.891901
 51
-105.211588
  6
CONTINUOUS
  0
ARC
  8
WHITE
 10
9.214780
 20
44.413972
 30
0.000000
 40
8.954197
 50
3.476984
 51
51.284198
  6
CONTINUOUS
  0
LINE
  8
WHITE
 10
18.152471
 20
44.957021
 30
0.000000
 11
18.162394
 21
44.667652
 31
0.000000
  6
CONTINUOUS
  0
LINE
  8
WHITE
 10
48.334932
 20
48.786502
 30
0.000000
 11
48.334990
 21
35.253191
 31
0.000000
  6
CONTINUOUS
  0
ARC
  8
WHITE
 10
56.206194
 20
36.468006
 30
0.000000
 40
7.964397
 50
-171.226391
 51
-125.290482
  6
CONTINUOUS
  0
ARC
  8
WHITE
 10
54.782369
 20
37.315500
 30
0.000000
 40
8.005830
 50
-113.383500
 51
-91.132200
  6
CONTINUOUS
  0
LINE
  8
WHITE
 10
54.624179
 20
29.311233
 30
0.000000
 11
56.698050
 21
43.423321
 31
0.000000
  6
CONTINUOUS
  0
LINE
  8
WHITE
 10
56.698050
 20
43.423321
 30
0.000000
 11
57.845921
 21
43.259349
 31
0.000000
  6
CONTINUOUS
  0
LINE
  8
WHITE
 10
57.845921
 20
43.259349
 30
0.000000
 11
55.791338
 21
29.253386
 31
0.000000
  6
CONTINUOUS
  0
ARC
  8
WHITE
 10
56.750148
 20
59.184842
 30
0.000000
 40
29.946809
 50
-91.834758
 51
-79.240200
  6
CONTINUOUS
  0
ARC
  8
WHITE
 10
59.300430
 20
39.181960
 30
0.000000
 40
9.896088
 50
-72.106572
 51
-22.299758
  6
CONTINUOUS
  0
ARC
  8
WHITE
 10
41.369727
 20
48.668975
 30
0.000000
 40
30.150314
 50
-26.053040
 51
7.337294
  6
CONTINUOUS
  0
ARC
  8
WHITE
 10
95.517316
 20
69.287071
 30
0.000000
 40
29.477643
 50
-159.498400
 51
-145.331736
  6
CONTINUOUS
  0
ARC
  8
WHITE
 10
62.995768
 20
57.027423
 30
0.000000
 40
5.278610
 50
21.511258
 51
106.878487
  6
CONTINUOUS
  0
LINE
  8
WHITE
 10
61.463161
 20
62.078644
 30
0.000000
 11
58.443981
 21
61.027223
 31
0.000000
  6
CONTINUOUS
  0
ARC
  8
WHITE
 10
57.772747
 20
62.842469
 30
0.000000
 40
1.935374
 50
171.454492
 51
290.293163
  6
CONTINUOUS
  0
ARC
  8
WHITE
 10
52.915873
 20
63.587274
 30
0.000000
 40
2.978291
 50
-8.830800
 51
88.125490
  6
CONTINUOUS
  0
LINE
  8
WHITE
 10
53.013294
 20
66.563971
 30
0.000000
 11
52.502051
 21
59.020870
 31
0.000000
  6
CONTINUOUS
  0
LINE
  8
WHITE
 10
52.502051
 20
59.020870
 30
0.000000
 11
51.354180
 21
59.155914
 31
0.000000
  6
CONTINUOUS
  0
LINE
  8
WHITE
 10
51.354180
 20
59.155914
 30
0.000000
 11
51.855780
 21
66.573668
 31
0.000000
  6
CONTINUOUS
  0
ARC
  8
WHITE
 10
52.424727
 20
62.541618
 30
0.000000
 40
4.071993
 50
98.031754
 51
146.985868
  6
CONTINUOUS
  0
ARC
  8
WHITE
 10
62.469108
 20
57.174405
 30
0.000000
 40
15.449483
 50
150.593138
 51
194.261997
  6
CONTINUOUS
  0
ARC
  8
WHITE
 10
40.578663
 20
49.733727
 30
0.000000
 40
7.813895
 50
-6.962700
 51
27.719670
  6
CONTINUOUS
  0
LINE
  8
WHITE
 10
65.186574
 20
81.766067
 30
0.000000
 11
65.186516
 21
95.299377
 31
0.000000
  6
CONTINUOUS
  0
ARC
  8
WHITE
 10
57.315402
 20
94.083975
 30
0.000000
 40
7.964399
 50
8.777886
 51
54.712380
  6
CONTINUOUS
  0
ARC
  8
WHITE
 10
58.738122
 20
93.237498
 30
0.000000
 40
8.005411
 50
66.609144
 51
88.860407
  6
CONTINUOUS
  0
LINE
  8
WHITE
 10
58.897336
 20
101.241326
 30
0.000000
 11
56.823447
 21
87.129238
 31
0.000000
  6
CONTINUOUS
  0
LINE
  8
WHITE
 10
56.823447
 20
87.129238
 30
0.000000
 11
55.675576
 21
87.293219
 31
0.000000
  6
CONTINUOUS
  0
LINE
  8
WHITE
 10
55.675576
 20
87.293219
 30
0.000000
 11
57.730169
 21
101.299163
 31
0.000000
  6
CONTINUOUS
  0
ARC
  8
WHITE
 10
56.771760
 20
71.367704
 30
0.000000
 40
29.946800
 50
88.166010
 51
100.760547
  6
CONTINUOUS
  0
ARC
  8
WHITE
 10
54.220837
 20
91.370522
 30
0.000000
 40
9.895997
 50
107.892031
 51
157.699233
  6
CONTINUOUS
  0
ARC
  8
WHITE
 10
72.151864
 20
81.883748
 30
0.000000
 40
30.150420
 50
153.947300
 51
187.337600
  6
CONTINUOUS
  0
ARC
  8
WHITE
 10
18.004191
 20
61.265479
 30
0.000000
 40
29.477643
 50
20.501630
 51
34.668264
  6
CONTINUOUS
  0
ARC
  8
WHITE
 10
50.525601
 20
73.525511
 30
0.000000
 40
5.278622
 50
-158.484471
 51
-73.121300
  6
CONTINUOUS
  0
LINE
  8
WHITE
 10
52.058219
 20
68.474319
 30
0.000000
 11
55.087182
 21
69.534972
 31
0.000000
  6
CONTINUOUS
  0
ARC
  8
WHITE
 10
55.749850
 20
67.716706
 30
0.000000
 40
1.935257
 50
-8.744000
 51
110.024317
  6
CONTINUOUS
  0
ARC
  8
WHITE
 10
60.605634
 20
66.965285
 30
0.000000
 40
2.978329
 50
171.169194
 51
268.125467
  6
CONTINUOUS
  0
LINE
  8
WHITE
 10
60.508209
 20
63.988537
 30
0.000000
 11
61.019446
 21
71.531698
 31
0.000000
  6
CONTINUOUS
  0
LINE
  8
WHITE
 10
61.019446
 20
71.531698
 30
0.000000
 11
62.167317
 21
71.396655
 31
0.000000
  6
CONTINUOUS
  0
LINE
  8
WHITE
 10
62.167317
 20
71.396655
 30
0.000000
 11
61.675382
 21
63.978901
 31
0.000000
  6
CONTINUOUS
  0
ARC
  8
WHITE
 10
61.095659
 20
68.008979
 30
0.000000
 40
4.071561
 50
-81.814209
 51
-32.982300
  6
CONTINUOUS
  0
ARC
  8
WHITE
 10
51.052464
 20
73.378297
 30
0.000000
 40
15.449199
 50
-29.407352
 51
14.261583
  6
CONTINUOUS
  0
ARC
  8
WHITE
 10
72.942805
 20
80.818523
 30
0.000000
 40
7.813895
 50
173.034944
 51
207.717399
  6
CONTINUOUS
  0
LINE
  8
WHITE
 10
138.139453
 20
104.414813
 30
0.000000
 11
136.682473
 21
104.414813
 31
0.000000
  6
CONTINUOUS
  0
LINE
  8
WHITE
 10
136.682473
 20
104.414813
 30
0.000000
 11
136.682473
 21
93.225493
 31
0.000000
  6
CONTINUOUS
  0
ARC
  8
WHITE
 10
137.467166
 20
65.483686
 30
0.000000
 40
27.752902
 50
91.620212
 51
108.466747
  6
CONTINUOUS
  0
ARC
  8
WHITE
 10
127.533267
 20
95.243421
 30
0.000000
 40
3.621041
 50
-174.312200
 51
-71.598800
  6
CONTINUOUS
  0
ARC
  8
WHITE
 10
161.732780
 20
98.643273
 30
0.000000
 40
37.989131
 50
140.983914
 51
185.678256
  6
CONTINUOUS
  0
ARC
  8
WHITE
 10
134.090600
 20
121.048340
 30
0.000000
 40
2.407162
 50
90.068740
 51
141.132200
  6
CONTINUOUS
  0
LINE
  8
WHITE
 10
134.087712
 20
123.455500
 30
0.000000
 11
139.441222
 21
123.455975
 31
0.000000
  6
CONTINUOUS
  0
ARC
  8
WHITE
 10
139.436399
 20
121.044481
 30
0.000000
 40
2.411498
 50
46.377450
 51
89.885409
  6
CONTINUOUS
  0
ARC
  8
WHITE
 10
118.896205
 20
99.378264
 30
0.000000
 40
32.266544
 50
-8.438008
 51
46.516961
  6
CONTINUOUS
  0
ARC
  8
WHITE
 10
147.235792
 20
95.179885
 30
0.000000
 40
3.617665
 50
-108.994387
 51
-8.526642
  6
CONTINUOUS
  0
ARC
  8
WHITE
 10
139.045153
 20
75.886946
 30
0.000000
 40
17.352611
 50
66.161696
 51
92.991850
  6
CONTINUOUS
  0
LINE
  8
WHITE
 10
138.139453
 20
93.215905
 30
0.000000
 11
138.139453
 21
104.414813
 31
0.000000
  6
CONTINUOUS
  0
LINE
  8
WHITE
 10
131.155330
 20
60.101219
 30
0.000000
 11
131.126392
 21
52.664174
 31
0.000000
  6
CONTINUOUS
  0
LINE
  8
WHITE
 10
131.126392
 20
52.664174
 30
0.000000
 11
132.283909
 21
52.664174
 31
0.000000
  6
CONTINUOUS
  0
LINE
  8
WHITE
 10
132.283909
 20
52.664174
 30
0.000000
 11
132.264617
 21
60.101219
 31
0.000000
  6
CONTINUOUS
  0
ARC
  8
WHITE
 10
130.823110
 20
64.720552
 30
0.000000
 40
4.839026
 50
-72.668963
 51
-19.309841
  6
CONTINUOUS
  0
LINE
  8
WHITE
 10
135.389913
 20
63.120400
 30
0.000000
 11
136.904331
 21
67.383930
 31
0.000000
  6
CONTINUOUS
  0
ARC
  8
WHITE
 10
140.288138
 20
66.183006
 30
0.000000
 40
3.590595
 50
48.190010
 51
160.460070
  6
CONTINUOUS
  0
LINE
  8
WHITE
 10
142.681848
 20
68.859286
 30
0.000000
 11
141.852715
 21
56.840871
 31
0.000000
  6
CONTINUOUS
  0
LINE
  8
WHITE
 10
141.852715
 20
56.840871
 30
0.000000
 11
143.010232
 21
56.763703
 31
0.000000
  6
CONTINUOUS
  0
LINE
  8
WHITE
 10
143.010232
 20
56.763703
 30
0.000000
 11
143.425009
 21
62.744207
 31
0.000000
  6
CONTINUOUS
  0
ARC
  8
WHITE
 10
144.628826
 20
62.638101
 30
0.000000
 40
1.208485
 50
14.790269
 51
174.962910
  6
CONTINUOUS
  0
ARC
  8
WHITE
 10
119.490951
 20
56.692360
 30
0.000000
 40
27.039555
 50
-26.747500
 51
13.373606
  6
CONTINUOUS
  0
ARC
  8
WHITE
 10
137.176015
 20
47.777618
 30
0.000000
 40
7.234655
 50
-105.875485
 51
-26.735447
  6
CONTINUOUS
  0
ARC
  8
WHITE
 10
131.709974
 20
28.598424
 30
0.000000
 40
12.708242
 50
74.074320
 51
105.925700
  6
CONTINUOUS
  0
ARC
  8
WHITE
 10
126.234879
 20
47.773744
 30
0.000000
 40
7.233412
 50
-153.293975
 51
-74.047178
  6
CONTINUOUS
  0
ARC
  8
WHITE
 10
143.929493
 20
56.680757
 30
0.000000
 40
27.043365
 50
166.602700
 51
206.715900
  6
CONTINUOUS
  0
ARC
  8
WHITE
 10
118.795880
 20
62.697619
 30
0.000000
 40
1.199964
 50
2.225033
 51
168.016821
  6
CONTINUOUS
  0
LINE
  8
WHITE
 10
119.994939
 20
62.744207
 30
0.000000
 11
120.409716
 21
56.763703
 31
0.000000
  6
CONTINUOUS
  0
LINE
  8
WHITE
 10
120.409716
 20
56.763703
 30
0.000000
 11
121.557586
 21
56.840871
 31
0.000000
  6
CONTINUOUS
  0
LINE
  8
WHITE
 10
121.557586
 20
56.840871
 30
0.000000
 11
120.728033
 21
68.859764
 31
0.000000
  6
CONTINUOUS
  0
ARC
  8
WHITE
 10
123.127951
 20
66.186855
 30
0.000000
 40
3.592221
 50
19.461390
 51
131.919638
  6
CONTINUOUS
  0
LINE
  8
WHITE
 10
126.514923
 20
67.383676
 30
0.000000
 11
128.020389
 21
63.120400
 31
0.000000
  6
CONTINUOUS
  0
ARC
  8
WHITE
 10
132.584864
 20
64.726454
 30
0.000000
 40
4.838785
 50
-160.615085
 51
-110.931700
  6
CONTINUOUS
  0
LINE
  8
WHITE
 10
130.856187
 20
60.207002
 30
0.000000
 11
131.155330
 21
60.101219
 31
0.000000
  6
CONTINUOUS
  0
ARC
  8
WHITE
 10
22.844540
 20
61.364832
 30
0.000000
 40
26.660199
 50
87.893307
 51
107.702000
  6
CONTINUOUS
  0
ARC
  8
WHITE
 10
18.343739
 20
78.740134
 30
0.000000
 40
8.795583
 50
114.201103
 51
180.207400
  6
CONTINUOUS
  0
ARC
  8
WHITE
 10
28.329270
 20
77.334146
 30
0.000000
 40
18.831253
 50
175.815306
 51
228.562129
  6
CONTINUOUS
  0
ARC
  8
WHITE
 10
16.371710
 20
63.801616
 30
0.000000
 40
0.772711
 50
-130.819558
 51
19.225457
  6
CONTINUOUS
  0
LINE
  8
WHITE
 10
17.101328
 20
64.056059
 30
0.000000
 11
12.500198
 21
77.000956
 31
0.000000
  6
CONTINUOUS
  0
LINE
  8
WHITE
 10
12.500198
 20
77.000956
 30
0.000000
 11
13.590193
 21
77.386795
 31
0.000000
  6
CONTINUOUS
  0
LINE
  8
WHITE
 10
13.590193
 20
77.386795
 30
0.000000
 11
18.692913
 21
63.033586
 31
0.000000
  6
CONTINUOUS
  0
LINE
  8
WHITE
 10
18.692913
 20
63.033586
 30
0.000000
 11
21.731405
 21
62.541641
 31
0.000000
  6
CONTINUOUS
  0
LINE
  8
WHITE
 10
21.731405
 20
62.541641
 30
0.000000
 11
19.107690
 21
74.724506
 31
0.000000
  6
CONTINUOUS
  0
LINE
  8
WHITE
 10
19.107690
 20
74.724506
 30
0.000000
 11
20.236279
 21
74.965655
 31
0.000000
  6
CONTINUOUS
  0
LINE
  8
WHITE
 10
20.236279
 20
74.965655
 30
0.000000
 11
22.724930
 21
63.409788
 31
0.000000
  6
CONTINUOUS
  0
ARC
  8
WHITE
 10
24.687886
 20
63.811061
 30
0.000000
 40
2.003550
 50
-168.446626
 51
-11.553400
  6
CONTINUOUS
  0
LINE
  8
WHITE
 10
26.650837
 20
63.409788
 30
0.000000
 11
29.139512
 21
74.965655
 31
0.000000
  6
CONTINUOUS
  0
LINE
  8
WHITE
 10
29.139512
 20
74.965655
 30
0.000000
 11
30.268082
 21
74.724506
 31
0.000000
  6
CONTINUOUS
  0
LINE
  8
WHITE
 10
30.268082
 20
74.724506
 30
0.000000
 11
27.644387
 21
62.541641
 31
0.000000
  6
CONTINUOUS
  0
LINE
  8
WHITE
 10
27.644387
 20
62.541641
 30
0.000000
 11
30.682868
 21
63.033586
 31
0.000000
  6
CONTINUOUS
  0
LINE
  8
WHITE
 10
30.682868
 20
63.033586
 30
0.000000
 11
35.785579
 21
77.386795
 31
0.000000
  6
CONTINUOUS
  0
LINE
  8
WHITE
 10
35.785579
 20
77.386795
 30
0.000000
 11
36.875583
 21
77.000956
 31
0.000000
  6
CONTINUOUS
  0
LINE
  8
WHITE
 10
36.875583
 20
77.000956
 30
0.000000
 11
32.274454
 21
64.056059
 31
0.000000
  6
CONTINUOUS
  0
ARC
  8
WHITE
 10
32.990175
 20
63.775361
 30
0.000000
 40
0.768797
 50
158.585453
 51
313.424401
  6
CONTINUOUS
  0
ARC
  8
WHITE
 10
21.051532
 20
77.324254
 30
0.000000
 40
18.826678
 50
-48.531759
 51
4.215917
  6
CONTINUOUS
  0
ARC
  8
WHITE
 10
31.039767
 20
78.745417
 30
0.000000
 40
8.787578
 50
-0.241995
 51
65.830680
  6
CONTINUOUS
  0
ARC
  8
WHITE
 10
26.551817
 20
61.358940
 30
0.000000
 40
26.659542
 50
72.343973
 51
92.752723
  6
CONTINUOUS
  0
LINE
  8
WHITE
 10
25.271477
 20
87.987720
 30
0.000000
 11
25.271477
 21
79.315999
 31
0.000000
  6
CONTINUOUS
  0
LINE
  8
WHITE
 10
25.271477
 20
79.315999
 30
0.000000
 11
24.113950
 21
79.315999
 31
0.000000
  6
CONTINUOUS
  0
LINE
  8
WHITE
 10
24.113950
 20
79.315999
 30
0.000000
 11
24.113950
 21
87.987720
 31
0.000000
  6
CONTINUOUS
  0
LINE
  8
WHITE
 10
24.113950
 20
87.987720
 30
0.000000
 11
23.824581
 21
88.007012
 31
0.000000
  6
CONTINUOUS
  0
LINE
  8
WHITE
 10
82.655365
 20
152.500001
 30
0.000000
 11
83.803236
 21
152.471064
 31
0.000000
  6
CONTINUOUS
  0
LINE
  8
WHITE
 10
83.803236
 20
152.471064
 30
0.000000
 11
84.034749
 21
160.776247
 31
0.000000
  6
CONTINUOUS
  0
ARC
  8
WHITE
 10
83.568783
 20
188.431204
 30
0.000000
 40
27.658882
 50
-89.034700
 51
-73.689145
  6
CONTINUOUS
  0
ARC
  8
WHITE
 10
92.349534
 20
158.410277
 30
0.000000
 40
3.619829
 50
10.483413
 51
106.247702
  6
CONTINUOUS
  0
ARC
  8
WHITE
 10
74.350191
 20
155.056184
 30
0.000000
 40
21.929012
 50
-34.570800
 51
10.543790
  6
CONTINUOUS
  0
ARC
  8
WHITE
 10
89.422491
 20
144.661717
 30
0.000000
 40
3.620028
 50
-93.903688
 51
-34.465013
  6
CONTINUOUS
  0
LINE
  8
WHITE
 10
89.176041
 20
141.050088
 30
0.000000
 11
87.275796
 21
141.185274
 31
0.000000
  6
CONTINUOUS
  0
ARC
  8
WHITE
 10
87.526591
 20
144.792868
 30
0.000000
 40
3.616301
 50
-115.266300
 51
-93.976731
  6
CONTINUOUS
  0
ARC
  8
WHITE
 10
82.405982
 20
133.901842
 30
0.000000
 40
8.418456
 50
64.855075
 51
107.342134
  6
CONTINUOUS
  0
ARC
  8
WHITE
 10
78.823172
 20
145.392838
 30
0.000000
 40
3.618137
 50
-93.931167
 51
-72.741139
  6
CONTINUOUS
  0
LINE
  8
WHITE
 10
78.575120
 20
141.783214
 30
0.000000
 11
76.202218
 21
141.947306
 31
0.000000
  6
CONTINUOUS
  0
ARC
  8
WHITE
 10
76.439509
 20
145.555865
 30
0.000000
 40
3.616352
 50
-153.188901
 51
-93.762229
  6
CONTINUOUS
  0
ARC
  8
WHITE
 10
97.350072
 20
156.051930
 30
0.000000
 40
27.013319
 50
173.669896
 51
206.675360
  6
CONTINUOUS
  0
ARC
  8
WHITE
 10
74.098431
 20
158.630018
 30
0.000000
 40
3.619189
 50
72.298960
 51
173.649700
  6
CONTINUOUS
  0
ARC
  8
WHITE
 10
83.588809
 20
188.296922
 30
0.000000
 40
27.528725
 50
-107.744398
 51
-92.083718
  6
CONTINUOUS
  0
LINE
  8
WHITE
 10
82.587872
 20
160.786400
 30
0.000000
 11
82.917872
 21
160.779836
 31
0.000000
  6
CONTINUOUS
  0
LINE
  8
WHITE
 10
82.917872
 20
160.779836
 30
0.000000
 11
82.655365
 21
152.500001
 31
0.000000
  6
CONTINUOUS
  0
ARC
  8
WHITE
 10
50.621850
 20
154.614546
 30
0.000000
 40
8.073451
 50
163.637689
 51
221.373805
  6
CONTINUOUS
  0
ARC
  8
WHITE
 10
40.677062
 20
157.561244
 30
0.000000
 40
2.298828
 50
-17.005500
 51
155.639801
  6
CONTINUOUS
  0
ARC
  8
WHITE
 10
51.818152
 20
152.232808
 30
0.000000
 40
14.648145
 50
154.627996
 51
443.120670
  6
CONTINUOUS
  0
ARC
  8
WHITE
 10
53.325476
 20
164.575511
 30
0.000000
 40
2.213810
 50
83.588610
 51
254.232749
  6
CONTINUOUS
  0
ARC
  8
WHITE
 10
50.615812
 20
154.621393
 30
0.000000
 40
8.102650
 50
-58.849584
 51
74.919564
  6
CONTINUOUS
  0
LINE
  8
WHITE
 10
54.807204
 20
147.687046
 30
0.000000
 11
56.726997
 21
143.953669
 31
0.000000
  6
CONTINUOUS
  0
LINE
  8
WHITE
 10
56.726997
 20
143.953669
 30
0.000000
 11
55.704524
 21
143.423140
 31
0.000000
  6
CONTINUOUS
  0
LINE
  8
WHITE
 10
55.704524
 20
143.423140
 30
0.000000
 11
53.775320
 21
147.165778
 31
0.000000
  6
CONTINUOUS
  0
ARC
  8
WHITE
 10
50.638821
 20
154.631102
 30
0.000000
 40
8.097449
 50
-136.491799
 51
-67.210665
  6
CONTINUOUS
  0
LINE
  8
WHITE
 10
44.765937
 20
149.056345
 30
0.000000
 11
44.563424
 21
149.278246
 31
0.000000
  6
CONTINUOUS
  0
ARC
  8
WHITE
 10
52.990730
 20
170.218206
 30
0.000000
 40
8.608621
 50
120.477720
 51
201.621701
  6
CONTINUOUS
  0
LINE
  8
WHITE
 10
48.624409
 20
177.637343
 30
0.000000
 11
47.399341
 21
180.019964
 31
0.000000
  6
CONTINUOUS
  0
LINE
  8
WHITE
 10
47.399341
 20
180.019964
 30
0.000000
 11
48.431460
 21
180.550493
 31
0.000000
  6
CONTINUOUS
  0
LINE
  8
WHITE
 10
48.431460
 20
180.550493
 30
0.000000
 11
49.666135
 21
178.158291
 31
0.000000
  6
CONTINUOUS
  0
ARC
  8
WHITE
 10
52.997922
 20
170.221221
 30
0.000000
 40
8.608013
 50
-17.823794
 51
112.771470
  6
CONTINUOUS
  0
ARC
  8
WHITE
 10
63.133634
 20
166.964630
 30
0.000000
 40
2.038022
 50
162.237050
 51
331.581889
  6
CONTINUOUS
  0
ARC
  8
WHITE
 10
51.854710
 20
173.014880
 30
0.000000
 40
14.837215
 50
-28.238617
 51
263.021263
  6
CONTINUOUS
  0
ARC
  8
WHITE
 10
50.404056
 20
160.096208
 30
0.000000
 40
1.842570
 50
-101.015930
 51
78.984071
  6
CONTINUOUS
  0
ARC
  8
WHITE
 10
52.994616
 20
170.217160
 30
0.000000
 40
8.608465
 50
-156.439025
 51
-105.071975
  6
CONTINUOUS
  0
LINE
  8
WHITE
 10
45.103794
 20
166.776144
 30
0.000000
 11
44.987838
 21
167.046130
 31
0.000000
  6
CONTINUOUS
  0
ARC
  8
WHITE
 10
146.349668
 20
24.345524
 30
0.000000
 40
8.403493
 50
4.265537
 51
76.132836
  6
CONTINUOUS
  0
LINE
  8
WHITE
 10
154.729876
 20
24.970566
 30
0.000000
 11
157.469546
 21
24.970574
 31
0.000000
  6
CONTINUOUS
  0
LINE
  8
WHITE
 10
157.469546
 20
24.970574
 30
0.000000
 11
157.469546
 21
23.813057
 31
0.000000
  6
CONTINUOUS
  0
LINE
  8
WHITE
 10
157.469546
 20
23.813057
 30
0.000000
 11
154.739736
 21
23.813057
 31
0.000000
  6
CONTINUOUS
  0
ARC
  8
WHITE
 10
146.350228
 20
24.354278
 30
0.000000
 40
8.406947
 50
-121.876620
 51
-3.691134
  6
CONTINUOUS
  0
ARC
  8
WHITE
 10
140.612243
 20
15.160618
 30
0.000000
 40
2.430438
 50
57.710190
 51
243.760200
  6
CONTINUOUS
  0
ARC
  8
WHITE
 10
148.998119
 20
24.394985
 30
0.000000
 40
14.825229
 50
-129.652619
 51
132.471052
  6
CONTINUOUS
  0
ARC
  8
WHITE
 10
140.628483
 20
33.536936
 30
0.000000
 40
2.430631
 50
132.452368
 51
301.835512
  6
CONTINUOUS
  0
ARC
  8
WHITE
 10
146.361105
 20
24.352661
 30
0.000000
 40
8.395913
 50
78.225153
 51
122.010867
  6
CONTINUOUS
  0
LINE
  8
WHITE
 10
148.074428
 20
32.571899
 30
0.000000
 11
148.363747
 21
32.504089
 31
0.000000
  6
CONTINUOUS
  0
LINE
  8
WHITE
 10
54.855669
 20
23.128202
 30
0.000000
 11
54.855669
 21
24.285719
 31
0.000000
  6
CONTINUOUS
  0
LINE
  8
WHITE
 10
54.855669
 20
24.285719
 30
0.000000
 11
65.987132
 21
24.285719
 31
0.000000
  6
CONTINUOUS
  0
ARC
  8
WHITE
 10
64.029456
 20
23.512874
 30
0.000000
 40
2.104705
 50
21.542968
 51
66.515236
  6
CONTINUOUS
  0
ARC
  8
WHITE
 10
52.714765
 20
-9.102682
 30
0.000000
 40
36.621392
 50
70.617873
 51
106.543659
  6
CONTINUOUS
  0
ARC
  8
WHITE
 10
43.357678
 20
22.443338
 30
0.000000
 40
3.716912
 50
106.742000
 51
184.615400
  6
CONTINUOUS
  0
ARC
  8
WHITE
 10
53.263923
 20
23.267107
 30
0.000000
 40
13.657341
 50
-175.284025
 51
-36.712519
  6
CONTINUOUS
  0
ARC
  8
WHITE
 10
55.137331
 20
21.626315
 30
0.000000
 40
11.176375
 50
-35.710700
 51
6.228247
  6
CONTINUOUS
  0
LINE
  8
WHITE
 10
66.247739
 20
22.838833
 30
0.000000
 11
65.987132
 21
23.128202
 31
0.000000
  6
CONTINUOUS
  0
LINE
  8
WHITE
 10
65.987132
 20
23.128202
 30
0.000000
 11
54.855669
 21
23.128202
 31
0.000000
  6
CONTINUOUS
  0
LINE
  8
WHITE
 10
24.750585
 20
23.128202
 30
0.000000
 11
24.750585
 21
24.285719
 31
0.000000
  6
CONTINUOUS
  0
LINE
  8
WHITE
 10
24.750585
 20
24.285719
 30
0.000000
 11
35.882038
 21
24.285719
 31
0.000000
  6
CONTINUOUS
  0
ARC
  8
WHITE
 10
33.924360
 20
23.512879
 30
0.000000
 40
2.104705
 50
21.542820
 51
66.514891
  6
CONTINUOUS
  0
ARC
  8
WHITE
 10
22.609681
 20
-9.102682
 30
0.000000
 40
36.621392
 50
70.617873
 51
106.543659
  6
CONTINUOUS
  0
ARC
  8
WHITE
 10
13.252594
 20
22.443338
 30
0.000000
 40
3.716912
 50
106.742000
 51
184.615400
  6
CONTINUOUS
  0
ARC
  8
WHITE
 10
23.158847
 20
23.267133
 30
0.000000
 40
13.657351
 50
-175.283918
 51
-36.712625
  6
CONTINUOUS
  0
ARC
  8
WHITE
 10
25.032247
 20
21.626315
 30
0.000000
 40
11.176375
 50
-35.710700
 51
6.228247
  6
CONTINUOUS
  0
LINE
  8
WHITE
 10
36.142655
 20
22.838833
 30
0.000000
 11
35.882038
 21
23.128202
 31
0.000000
  6
CONTINUOUS
  0
LINE
  8
WHITE
 10
35.882038
 20
23.128202
 30
0.000000
 11
24.750585
 21
23.128202
 31
0.000000
  6
CONTINUOUS
  0
ARC
  8
WHITE
 10
114.529530
 20
138.976346
 30
0.000000
 40
26.601915
 50
20.415500
 51
29.571197
  6
CONTINUOUS
  0
ARC
  8
WHITE
 10
137.877963
 20
147.658007
 30
0.000000
 40
1.691679
 50
-114.934904
 51
20.692756
  6
CONTINUOUS
  0
ARC
  8
WHITE
 10
142.770825
 20
158.214016
 30
0.000000
 40
13.326515
 50
-35.708899
 51
245.123159
  6
CONTINUOUS
  0
ARC
  8
WHITE
 10
151.980987
 20
151.616430
 30
0.000000
 40
1.997218
 50
179.833999
 51
323.761001
  6
CONTINUOUS
  0
ARC
  8
WHITE
 10
130.366433
 20
153.309998
 30
0.000000
 40
19.689815
 50
-4.917343
 51
11.845836
  6
CONTINUOUS
  0
ARC
  8
WHITE
 10
143.096397
 20
155.930937
 30
0.000000
 40
6.693104
 50
12.257366
 51
97.280122
  6
CONTINUOUS
  0
LINE
  8
WHITE
 10
142.248244
 20
162.570084
 30
0.000000
 11
141.409000
 21
165.830737
 31
0.000000
  6
CONTINUOUS
  0
LINE
  8
WHITE
 10
141.409000
 20
165.830737
 30
0.000000
 11
140.280421
 21
165.541358
 31
0.000000
  6
CONTINUOUS
  0
LINE
  8
WHITE
 10
140.280421
 20
165.541358
 30
0.000000
 11
141.109975
 21
162.319603
 31
0.000000
  6
CONTINUOUS
  0
ARC
  8
WHITE
 10
143.089329
 20
155.963871
 30
0.000000
 40
6.656814
 50
107.298058
 51
212.927800
  6
CONTINUOUS
  0
LINE
  8
WHITE
 10
137.501892
 20
152.345349
 30
0.000000
 11
137.666362
 21
152.104517
 31
0.000000
  6
CONTINUOUS
  0
LINE
  8
WHITE
 10
93.082662
 20
187.090463
 30
0.000000
 11
93.034433
 21
188.247980
 31
0.000000
  6
CONTINUOUS
  0
LINE
  8
WHITE
 10
93.034433
 20
188.247980
 30
0.000000
 11
97.423351
 21
188.431253
 31
0.000000
  6
CONTINUOUS
  0
ARC
  8
WHITE
 10
85.950429
 20
186.202069
 30
0.000000
 40
11.687480
 50
10.995547
 51
14.242660
  6
CONTINUOUS
  0
ARC
  8
WHITE
 10
95.407342
 20
188.595235
 30
0.000000
 40
1.932471
 50
14.452278
 51
74.368709
  6
CONTINUOUS
  0
ARC
  8
WHITE
 10
85.397109
 20
152.569892
 30
0.000000
 40
39.322703
 50
74.466139
 51
99.748059
  6
CONTINUOUS
  0
ARC
  8
WHITE
 10
79.654591
 20
186.009961
 30
0.000000
 40
5.393147
 50
99.772879
 51
181.535819
  6
CONTINUOUS
  0
ARC
  8
WHITE
 10
85.951143
 20
186.176322
 30
0.000000
 40
11.691896
 50
-178.476232
 51
-75.263537
  6
CONTINUOUS
  0
ARC
  8
WHITE
 10
84.187155
 20
188.073388
 30
0.000000
 40
14.028718
 50
-70.260600
 51
-4.333800
  6
CONTINUOUS
  0
LINE
  8
WHITE
 10
98.175762
 20
187.013280
 30
0.000000
 11
98.102177
 21
187.296708
 31
0.000000
  6
CONTINUOUS
  0
LINE
  8
WHITE
 10
98.102177
 20
187.296708
 30
0.000000
 11
93.082662
 21
187.090463
 31
0.000000
  6
CONTINUOUS
  0
ARC
  8
WHITE
 10
79.697705
 20
183.562913
 30
0.000000
 40
2.374736
 50
100.861829
 51
199.282665
  6
CONTINUOUS
  0
ARC
  8
WHITE
 10
85.622996
 20
185.645771
 30
0.000000
 40
8.655448
 50
-160.655703
 51
-20.158391
  6
CONTINUOUS
  0
ARC
  8
WHITE
 10
91.519988
 20
183.482771
 30
0.000000
 40
2.374279
 50
-20.199386
 51
78.278828
  6
CONTINUOUS
  0
ARC
  8
WHITE
 10
85.404477
 20
153.551413
 30
0.000000
 40
32.923994
 50
78.439870
 51
100.773300
  6
CONTINUOUS
  0
LINE
  8
WHITE
 10
95.513448
 20
117.494763
 30
0.000000
 11
95.474864
 21
118.642634
 31
0.000000
  6
CONTINUOUS
  0
LINE
  8
WHITE
 10
95.474864
 20
118.642634
 30
0.000000
 11
99.863782
 21
118.816261
 31
0.000000
  6
CONTINUOUS
  0
ARC
  8
WHITE
 10
88.388326
 20
116.586478
 30
0.000000
 40
11.690082
 50
10.996060
 51
14.242464
  6
CONTINUOUS
  0
ARC
  8
WHITE
 10
97.846921
 20
118.993338
 30
0.000000
 40
1.930073
 50
14.069590
 51
74.316522
  6
CONTINUOUS
  0
ARC
  8
WHITE
 10
87.734944
 20
82.992080
 30
0.000000
 40
39.324493
 50
74.311360
 51
99.581780
  6
CONTINUOUS
  0
ARC
  8
WHITE
 10
82.082394
 20
116.452033
 30
0.000000
 40
5.390444
 50
99.538109
 51
181.425400
  6
CONTINUOUS
  0
ARC
  8
WHITE
 10
88.384918
 20
116.604088
 30
0.000000
 40
11.694769
 50
-178.597969
 51
-75.477698
  6
CONTINUOUS
  0
ARC
  8
WHITE
 10
86.625657
 20
118.499873
 30
0.000000
 40
14.024966
 50
-70.455900
 51
-4.544400
  6
CONTINUOUS
  0
ARC
  8
WHITE
 10
100.148091
 20
117.255287
 30
0.000000
 40
0.477446
 50
16.220317
 51
120.025780
  6
CONTINUOUS
  0
LINE
  8
WHITE
 10
99.909182
 20
117.668660
 30
0.000000
 11
95.513448
 21
117.494763
 31
0.000000
  6
CONTINUOUS
  0
ARC
  8
WHITE
 10
82.119952
 20
113.995082
 30
0.000000
 40
2.372254
 50
149.772009
 51
199.029347
  6
CONTINUOUS
  0
ARC
  8
WHITE
 10
88.052877
 20
116.072119
 30
0.000000
 40
8.658226
 50
-160.778177
 51
-20.375205
  6
CONTINUOUS
  0
ARC
  8
WHITE
 10
93.951497
 20
113.890288
 30
0.000000
 40
2.369041
 50
-20.577901
 51
78.508490
  6
CONTINUOUS
  0
ARC
  8
WHITE
 10
87.733980
 20
83.974040
 30
0.000000
 40
32.924534
 50
78.277240
 51
100.593600
  6
CONTINUOUS
  0
ARC
  8
WHITE
 10
82.134026
 20
113.997763
 30
0.000000
 40
2.383082
 50
100.956654
 51
149.998043
  6
CONTINUOUS
  0
ARC
  8
WHITE
 10
13.376619
 20
126.574486
 30
0.000000
 40
6.613415
 50
-107.385080
 51
-97.783912
  6
CONTINUOUS
  0
ARC
  8
WHITE
 10
11.255461
 20
118.497978
 30
0.000000
 40
1.771161
 50
85.300169
 51
195.478672
  6
CONTINUOUS
  0
LINE
  8
WHITE
 10
9.548540
 20
118.025291
 30
0.000000
 11
12.924631
 21
117.639453
 31
0.000000
  6
CONTINUOUS
  0
LINE
  8
WHITE
 10
12.924631
 20
117.639453
 30
0.000000
 11
12.789577
 21
116.491582
 31
0.000000
  6
CONTINUOUS
  0
LINE
  8
WHITE
 10
12.789577
 20
116.491582
 30
0.000000
 11
9.481018
 21
116.867775
 31
0.000000
  6
CONTINUOUS
  0
ARC
  8
WHITE
 10
13.474452
 20
116.890724
 30
0.000000
 40
3.993500
 50
-179.670732
 51
-120.319658
  6
CONTINUOUS
  0
ARC
  8
WHITE
 10
6.458548
 20
73.981071
 30
0.000000
 40
39.777857
 50
55.050223
 51
82.779089
  6
CONTINUOUS
  0
ARC
  8
WHITE
 10
32.942416
 20
111.869584
 30
0.000000
 40
6.449134
 50
-124.975335
 51
-23.148983
  6
CONTINUOUS
  0
ARC
  8
WHITE
 10
84.834981
 20
89.712573
 30
0.000000
 40
49.975785
 50
103.858307
 51
156.882112
  6
CONTINUOUS
  0
ARC
  8
WHITE
 10
72.768242
 20
138.773781
 30
0.000000
 40
0.548711
 50
-79.875299
 51
100.124502
  6
CONTINUOUS
  0
ARC
  8
WHITE
 10
77.924623
 20
93.350849
 30
0.000000
 40
46.262282
 50
96.519694
 51
155.366967
  6
CONTINUOUS
  0
ARC
  8
WHITE
 10
32.563833
 20
114.080088
 30
0.000000
 40
3.611105
 50
-122.118999
 51
-23.620600
  6
CONTINUOUS
  0
ARC
  8
WHITE
 10
56.379218
 20
163.535414
 30
0.000000
 40
58.480765
 50
-129.128501
 51
-116.108025
  6
CONTINUOUS
  0
ARC
  8
WHITE
 10
15.856906
 20
116.096272
 30
0.000000
 40
4.169578
 50
29.824310
 51
106.254458
  6
CONTINUOUS
  0
ARC
  8
WHITE
 10
13.369300
 20
126.575483
 30
0.000000
 40
6.609556
 50
-95.199700
 51
-78.475300
  6
CONTINUOUS
  0
LINE
  8
WHITE
 10
12.770294
 20
119.993126
 30
0.000000
 11
12.480916
 21
120.022008
 31
0.000000
  6
CONTINUOUS
  0
ARC
  8
WHITE
 10
13.299849
 20
112.400724
 30
0.000000
 40
6.607091
 50
-107.318600
 51
-97.626151
  6
CONTINUOUS
  0
ARC
  8
WHITE
 10
11.187857
 20
104.328050
 30
0.000000
 40
1.771084
 50
85.298607
 51
195.479588
  6
CONTINUOUS
  0
LINE
  8
WHITE
 10
9.481018
 20
103.855356
 30
0.000000
 11
12.857099
 21
103.469517
 31
0.000000
  6
CONTINUOUS
  0
LINE
  8
WHITE
 10
12.857099
 20
103.469517
 30
0.000000
 11
12.722065
 21
102.321637
 31
0.000000
  6
CONTINUOUS
  0
LINE
  8
WHITE
 10
12.722065
 20
102.321637
 30
0.000000
 11
9.423133
 21
102.697839
 31
0.000000
  6
CONTINUOUS
  0
ARC
  8
WHITE
 10
13.416576
 20
102.715119
 30
0.000000
 40
3.993481
 50
-179.752086
 51
-120.480054
  6
CONTINUOUS
  0
ARC
  8
WHITE
 10
6.402997
 20
59.809911
 30
0.000000
 40
39.777574
 50
55.053970
 51
82.796400
  6
CONTINUOUS
  0
ARC
  8
WHITE
 10
32.877010
 20
97.705297
 30
0.000000
 40
6.449408
 50
-124.891704
 51
-23.202309
  6
CONTINUOUS
  0
ARC
  8
WHITE
 10
84.765904
 20
75.540565
 30
0.000000
 40
49.975172
 50
103.845300
 51
156.879200
  6
CONTINUOUS
  0
ARC
  8
WHITE
 10
72.705529
 20
124.603870
 30
0.000000
 40
0.549551
 50
-79.382433
 51
100.617564
  6
CONTINUOUS
  0
ARC
  8
WHITE
 10
77.867113
 20
79.181910
 30
0.000000
 40
46.262428
 50
96.532142
 51
155.368300
  6
CONTINUOUS
  0
ARC
  8
WHITE
 10
32.505758
 20
99.910268
 30
0.000000
 40
3.611105
 50
-122.115176
 51
-23.621224
  6
CONTINUOUS
  0
ARC
  8
WHITE
 10
56.321314
 20
149.365502
 30
0.000000
 40
58.480783
 50
-129.128468
 51
-116.107980
  6
CONTINUOUS
  0
ARC
  8
WHITE
 10
15.797192
 20
101.929046
 30
0.000000
 40
4.169810
 50
29.779400
 51
106.367900
  6
CONTINUOUS
  0
ARC
  8
WHITE
 10
13.299849
 20
112.400724
 30
0.000000
 40
6.604580
 50
-95.186741
 51
-78.451019
  6
CONTINUOUS
  0
LINE
  8
WHITE
 10
12.702782
 20
105.823190
 30
0.000000
 11
12.423030
 21
105.852073
 31
0.000000
  6
CONTINUOUS
  0
ARC
  8
WHITE
 10
139.666308
 20
141.243574
 30
0.000000
 40
6.925149
 50
-175.122333
 51
-148.225746
  6
CONTINUOUS
  0
ARC
  8
WHITE
 10
52.959280
 20
132.446022
 30
0.000000
 40
80.228010
 50
5.872629
 51
8.922560
  6
CONTINUOUS
  0
ARC
  8
WHITE
 10
130.558156
 20
144.452702
 30
0.000000
 40
1.714770
 50
14.751570
 51
147.595876
  6
CONTINUOUS
  0
ARC
  8
WHITE
 10
140.203941
 20
138.349885
 30
0.000000
 40
13.129038
 50
147.667942
 51
406.846307
  6
CONTINUOUS
  0
ARC
  8
WHITE
 10
147.874347
 20
146.545873
 30
0.000000
 40
1.903681
 50
46.545884
 51
186.029675
  6
CONTINUOUS
  0
ARC
  8
WHITE
 10
185.957965
 20
150.392356
 30
0.000000
 40
40.181037
 50
-174.220200
 51
-167.036000
  6
CONTINUOUS
  0
ARC
  8
WHITE
 10
139.557339
 20
141.554805
 30
0.000000
 40
7.245908
 50
-76.138779
 51
-1.396687
  6
CONTINUOUS
  0
LINE
  8
WHITE
 10
141.293249
 20
134.519906
 30
0.000000
 11
141.785193
 21
130.748331
 31
0.000000
  6
CONTINUOUS
  0
LINE
  8
WHITE
 10
141.785193
 20
130.748331
 30
0.000000
 11
140.637322
 21
130.603641
 31
0.000000
  6
CONTINUOUS
  0
LINE
  8
WHITE
 10
140.637322
 20
130.603641
 30
0.000000
 11
140.145378
 21
134.336633
 31
0.000000
  6
CONTINUOUS
  0
ARC
  8
WHITE
 10
139.665973
 20
141.244115
 30
0.000000
 40
6.924098
 50
-145.741100
 51
-86.029827
  6
CONTINUOUS
  0
LINE
  8
WHITE
 10
133.943195
 20
137.346313
 30
0.000000
 11
133.779035
 21
137.596972
 31
0.000000
  6
CONTINUOUS
  0
ARC
  8
WHITE
 10
142.594151
 20
74.839254
 30
0.000000
 40
4.151602
 50
-7.059492
 51
20.126472
  6
CONTINUOUS
  0
ARC
  8
WHITE
 10
140.319817
 20
70.190099
 30
0.000000
 40
8.662399
 50
44.556962
 51
103.792562
  6
CONTINUOUS
  0
ARC
  8
WHITE
 10
120.184723
 20
119.878873
 30
0.000000
 40
45.058214
 50
-80.209399
 51
-66.357112
  6
CONTINUOUS
  0
ARC
  8
WHITE
 10
127.239065
 20
80.280596
 30
0.000000
 40
4.841989
 50
-169.787000
 51
-82.789883
  6
CONTINUOUS
  0
ARC
  8
WHITE
 10
157.981699
 20
85.850523
 30
0.000000
 40
36.085115
 50
175.437723
 51
190.261837
  6
CONTINUOUS
  0
ARC
  8
WHITE
 10
95.262588
 20
90.851647
 30
0.000000
 40
26.833071
 50
-4.554663
 51
47.871630
  6
CONTINUOUS
  0
LINE
  8
WHITE
 10
113.262049
 20
110.752227
 30
0.000000
 11
106.635265
 21
113.028677
 31
0.000000
  6
CONTINUOUS
  0
ARC
  8
WHITE
 10
106.268718
 20
111.948328
 30
0.000000
 40
1.140838
 50
71.258659
 51
251.258501
  6
CONTINUOUS
  0
LINE
  8
WHITE
 10
105.902171
 20
110.867988
 30
0.000000
 11
109.953480
 21
109.469313
 31
0.000000
  6
CONTINUOUS
  0
ARC
  8
WHITE
 10
94.008686
 20
90.939397
 30
0.000000
 40
24.445741
 50
8.875071
 51
49.288356
  6
CONTINUOUS
  0
ARC
  8
WHITE
 10
49.562711
 20
84.178776
 30
0.000000
 40
69.402819
 50
-7.483794
 51
8.728559
  6
CONTINUOUS
  0
ARC
  8
WHITE
 10
121.604863
 20
74.719780
 30
0.000000
 40
3.257657
 50
172.599993
 51
274.942069
  6
CONTINUOUS
  0
ARC
  8
WHITE
 10
133.448310
 20
-69.173893
 30
0.000000
 40
141.122621
 50
85.298005
 51
94.699767
  6
CONTINUOUS
  0
ARC
  8
WHITE
 10
142.594151
 20
74.839254
 30
0.000000
 40
4.146634
 50
-54.254013
 51
-27.259885
  6
CONTINUOUS
  0
LINE
  8
WHITE
 10
146.280217
 20
72.940001
 30
0.000000
 11
142.566517
 21
74.126465
 31
0.000000
  6
CONTINUOUS
  0
LINE
  8
WHITE
 10
142.566517
 20
74.126465
 30
0.000000
 11
142.923418
 21
75.235742
 31
0.000000
  6
CONTINUOUS
  0
LINE
  8
WHITE
 10
142.923418
 20
75.235742
 30
0.000000
 11
146.634844
 21
74.050004
 31
0.000000
  6
CONTINUOUS
  0
LINE
  8
WHITE
 10
146.634844
 20
74.050004
 30
0.000000
 11
146.714280
 21
74.329023
 31
0.000000
  6
CONTINUOUS
  0
LINE
  8
WHITE
 10
131.904162
 20
85.829089
 30
0.000000
 11
132.486475
 21
86.830203
 31
0.000000
  6
CONTINUOUS
  0
LINE
  8
WHITE
 10
132.486475
 20
86.830203
 30
0.000000
 11
129.120030
 21
88.788345
 31
0.000000
  6
CONTINUOUS
  0
ARC
  8
WHITE
 10
132.300994
 20
86.141317
 30
0.000000
 40
4.138272
 50
113.166611
 51
140.234581
  6
CONTINUOUS
  0
ARC
  8
WHITE
 10
172.287429
 20
224.796060
 30
0.000000
 40
141.125225
 50
-107.150108
 51
-97.746992
  6
CONTINUOUS
  0
ARC
  8
WHITE
 10
152.828002
 20
81.727767
 30
0.000000
 40
3.260391
 50
-19.716966
 51
82.316819
  6
CONTINUOUS
  0
ARC
  8
WHITE
 10
221.135699
 20
56.963878
 30
0.000000
 40
69.397678
 50
160.062795
 51
176.276289
  6
CONTINUOUS
  0
ARC
  8
WHITE
 10
176.279195
 20
59.940122
 30
0.000000
 40
24.442647
 50
176.409300
 51
216.839100
  6
CONTINUOUS
  0
LINE
  8
WHITE
 10
156.717198
 20
45.285047
 30
0.000000
 11
160.382631
 21
43.056784
 31
0.000000
  6
CONTINUOUS
  0
ARC
  8
WHITE
 10
159.784580
 20
42.082541
 30
0.000000
 40
1.143160
 50
-121.543901
 51
58.455843
  6
CONTINUOUS
  0
LINE
  8
WHITE
 10
159.186537
 20
41.108299
 30
0.000000
 11
153.215672
 21
44.744829
 31
0.000000
  6
CONTINUOUS
  0
ARC
  8
WHITE
 10
175.090811
 20
60.296058
 30
0.000000
 40
26.839569
 50
162.993900
 51
215.409356
  6
CONTINUOUS
  0
ARC
  8
WHITE
 10
114.913440
 20
78.705409
 30
0.000000
 40
36.090706
 50
-17.012591
 51
-2.185800
  6
CONTINUOUS
  0
ARC
  8
WHITE
 10
146.135511
 20
77.509829
 30
0.000000
 40
4.845709
 50
-2.139741
 51
84.745969
  6
CONTINUOUS
  0
ARC
  8
WHITE
 10
144.452305
 20
37.326101
 30
0.000000
 40
45.059304
 50
87.294460
 51
101.152100
  6
CONTINUOUS
  0
ARC
  8
WHITE
 10
135.533512
 20
90.196847
 30
0.000000
 40
8.664681
 50
-147.773296
 51
-88.653004
  6
CONTINUOUS
  0
ARC
  8
WHITE
 10
132.301244
 20
86.141617
 30
0.000000
 40
4.136396
 50
160.324435
 51
187.856163
  6
CONTINUOUS
  0
LINE
  8
WHITE
 10
128.406355
 20
87.534315
 30
0.000000
 11
128.537717
 21
87.787231
 31
0.000000
  6
CONTINUOUS
  0
LINE
  8
WHITE
 10
128.537717
 20
87.787231
 30
0.000000
 11
131.904162
 21
85.829089
 31
0.000000
  6
CONTINUOUS
  0
LINE
  8
WHITE
 10
126.486679
 20
14.118853
 30
0.000000
 11
125.329162
 21
14.118853
 31
0.000000
  6
CONTINUOUS
  0
LINE
  8
WHITE
 10
125.329162
 20
14.118853
 30
0.000000
 11
125.329162
 21
17.466016
 31
0.000000
  6
CONTINUOUS
  0
ARC
  8
WHITE
 10
125.776363
 20
23.618683
 30
0.000000
 40
6.168898
 50
145.397170
 51
265.842825
  6
CONTINUOUS
  0
ARC
  8
WHITE
 10
119.090818
 20
28.267947
 30
0.000000
 40
1.974505
 50
-35.480119
 51
134.823398
  6
CONTINUOUS
  0
ARC
  8
WHITE
 10
125.932739
 20
21.329935
 30
0.000000
 40
11.718613
 50
134.638031
 51
406.033826
  6
CONTINUOUS
  0
ARC
  8
WHITE
 10
132.784134
 20
28.053496
 30
0.000000
 40
2.139163
 50
53.111284
 51
211.116869
  6
CONTINUOUS
  0
ARC
  8
WHITE
 10
125.755725
 20
23.620148
 30
0.000000
 40
6.171212
 50
-80.483689
 51
32.632960
  6
CONTINUOUS
  0
LINE
  8
WHITE
 10
126.776002
 20
17.533861
 30
0.000000
 11
126.486679
 21
17.466016
 31
0.000000
  6
CONTINUOUS
  0
LINE
  8
WHITE
 10
126.486679
 20
17.466016
 30
0.000000
 11
126.486679
 21
14.118853
 31
0.000000
  6
CONTINUOUS
  0
LINE
  8
WHITE
 10
86.031456
 20
169.100722
 30
0.000000
 11
86.031456
 21
167.943205
 31
0.000000
  6
CONTINUOUS
  0
LINE
  8
WHITE
 10
86.031456
 20
167.943205
 30
0.000000
 11
90.661533
 21
167.943205
 31
0.000000
  6
CONTINUOUS
  0
ARC
  8
WHITE
 10
87.835262
 20
168.119727
 30
0.000000
 40
2.831777
 50
-73.373700
 51
-3.573899
  6
CONTINUOUS
  0
ARC
  8
WHITE
 10
79.344867
 20
196.800100
 30
0.000000
 40
32.742472
 50
-101.725000
 51
-73.497664
  6
CONTINUOUS
  0
ARC
  8
WHITE
 10
73.803278
 20
170.025821
 30
0.000000
 40
5.400781
 50
165.192343
 51
258.116257
  6
CONTINUOUS
  0
ARC
  8
WHITE
 10
22.873478
 20
179.691037
 30
0.000000
 40
46.453159
 50
-10.273655
 51
0.536595
  6
CONTINUOUS
  0
ARC
  8
WHITE
 10
51.100501
 20
172.580989
 30
0.000000
 40
19.724279
 50
22.490368
 51
77.479390
  6
CONTINUOUS
  0
LINE
  8
WHITE
 10
55.376543
 20
191.836188
 30
0.000000
 11
51.865417
 21
191.836282
 31
0.000000
  6
CONTINUOUS
  0
ARC
  8
WHITE
 10
51.870249
 20
192.612783
 30
0.000000
 40
0.776516
 50
89.644332
 51
269.643419
  6
CONTINUOUS
  0
LINE
  8
WHITE
 10
51.875070
 20
193.389279
 30
0.000000
 11
55.656294
 21
193.389284
 31
0.000000
  6
CONTINUOUS
  0
ARC
  8
WHITE
 10
54.955996
 20
175.814320
 30
0.000000
 40
17.588911
 50
-11.546500
 51
87.718181
  6
CONTINUOUS
  0
ARC
  8
WHITE
 10
75.073583
 20
171.706837
 30
0.000000
 40
2.943724
 50
168.501026
 51
270.001087
  6
CONTINUOUS
  0
LINE
  8
WHITE
 10
75.073639
 20
168.763113
 30
0.000000
 11
77.726282
 21
168.763113
 31
0.000000
  6
CONTINUOUS
  0
ARC
  8
WHITE
 10
77.726282
 20
172.447875
 30
0.000000
 40
3.684762
 50
-90.000000
 51
-22.469900
  6
CONTINUOUS
  0
ARC
  8
WHITE
 10
83.727926
 20
169.972725
 30
0.000000
 40
2.807254
 50
84.319090
 51
157.664375
  6
CONTINUOUS
  0
LINE
  8
WHITE
 10
84.005811
 20
172.766192
 30
0.000000
 11
88.809496
 21
171.734073
 31
0.000000
  6
CONTINUOUS
  0
ARC
  8
WHITE
 10
88.288613
 20
169.399747
 30
0.000000
 40
2.391735
 50
-0.230900
 51
77.421064
  6
CONTINUOUS
  0
LINE
  8
WHITE
 10
90.680323
 20
169.390109
 30
0.000000
 11
90.684255
 21
169.108384
 31
0.000000
  6
CONTINUOUS
  0
LINE
  8
WHITE
 10
90.684255
 20
169.108384
 30
0.000000
 11
86.031456
 21
169.100722
 31
0.000000
  6
CONTINUOUS
  0
LINE
  8
WHITE
 10
126.062256
 20
33.893109
 30
0.000000
 11
126.062256
 21
35.050616
 31
0.000000
  6
CONTINUOUS
  0
LINE
  8
WHITE
 10
126.062256
 20
35.050616
 30
0.000000
 11
130.692323
 21
35.050616
 31
0.000000
  6
CONTINUOUS
  0
ARC
  8
WHITE
 10
127.866053
 20
34.874095
 30
0.000000
 40
2.831777
 50
3.573899
 51
73.373560
  6
CONTINUOUS
  0
ARC
  8
WHITE
 10
119.375667
 20
6.193731
 30
0.000000
 40
32.742461
 50
73.497663
 51
101.725100
  6
CONTINUOUS
  0
ARC
  8
WHITE
 10
113.834003
 20
32.968049
 30
0.000000
 40
5.400728
 50
101.883659
 51
194.808229
  6
CONTINUOUS
  0
ARC
  8
WHITE
 10
62.913925
 20
23.251661
 30
0.000000
 40
46.452807
 50
-0.485400
 51
10.337837
  6
CONTINUOUS
  0
ARC
  8
WHITE
 10
91.141902
 20
30.406089
 30
0.000000
 40
19.724517
 50
-77.511300
 51
-22.499114
  6
CONTINUOUS
  0
LINE
  8
WHITE
 10
95.407266
 20
11.148305
 30
0.000000
 11
91.896208
 21
11.147893
 31
0.000000
  6
CONTINUOUS
  0
ARC
  8
WHITE
 10
91.905854
 20
10.376225
 30
0.000000
 40
0.771729
 50
90.716168
 51
270.000000
  6
CONTINUOUS
  0
LINE
  8
WHITE
 10
91.905854
 20
9.604489
 30
0.000000
 11
95.696721
 21
9.604537
 31
0.000000
  6
CONTINUOUS
  0
ARC
  8
WHITE
 10
94.986778
 20
27.179502
 30
0.000000
 40
17.589297
 50
-87.686785
 51
11.546560
  6
CONTINUOUS
  0
ARC
  8
WHITE
 10
115.104237
 20
31.286767
 30
0.000000
 40
2.943170
 50
89.996241
 51
191.494956
  6
CONTINUOUS
  0
LINE
  8
WHITE
 10
115.104430
 20
34.229937
 30
0.000000
 11
117.757073
 21
34.230708
 31
0.000000
  6
CONTINUOUS
  0
ARC
  8
WHITE
 10
117.753175
 20
30.546042
 30
0.000000
 40
3.684669
 50
22.306731
 51
89.939394
  6
CONTINUOUS
  0
ARC
  8
WHITE
 10
123.754939
 20
33.020139
 30
0.000000
 40
2.807056
 50
-157.471000
 51
-84.240301
  6
CONTINUOUS
  0
LINE
  8
WHITE
 10
124.036645
 20
30.227254
 30
0.000000
 11
128.840297
 21
31.259758
 31
0.000000
  6
CONTINUOUS
  0
ARC
  8
WHITE
 10
128.319414
 20
33.594084
 30
0.000000
 40
2.391735
 50
-77.421065
 51
0.231014
  6
CONTINUOUS
  0
LINE
  8
WHITE
 10
130.711123
 20
33.603727
 30
0.000000
 11
130.692323
 21
33.893109
 31
0.000000
  6
CONTINUOUS
  0
LINE
  8
WHITE
 10
130.692323
 20
33.893109
 30
0.000000
 11
126.062256
 21
33.893109
 31
0.000000
  6
CONTINUOUS
  0
LINE
  8
WHITE
 10
129.351533
 20
178.196875
 30
0.000000
 11
130.509050
 21
178.196875
 31
0.000000
  6
CONTINUOUS
  0
LINE
  8
WHITE
 10
130.509050
 20
178.196875
 30
0.000000
 11
130.509050
 21
181.158189
 31
0.000000
  6
CONTINUOUS
  0
ARC
  8
WHITE
 10
129.656346
 20
186.964101
 30
0.000000
 40
5.868195
 50
-81.644802
 51
20.099830
  6
CONTINUOUS
  0
ARC
  8
WHITE
 10
136.712505
 20
189.543578
 30
0.000000
 40
1.644677
 50
40.910170
 51
200.011942
  6
CONTINUOUS
  0
ARC
  8
WHITE
 10
129.930038
 20
183.714078
 30
0.000000
 40
10.588096
 50
139.283395
 51
400.714835
  6
CONTINUOUS
  0
ARC
  8
WHITE
 10
123.138561
 20
189.538611
 30
0.000000
 40
1.641153
 50
-19.850900
 51
138.741387
  6
CONTINUOUS
  0
ARC
  8
WHITE
 10
130.202565
 20
186.969628
 30
0.000000
 40
5.875495
 50
159.977626
 51
258.807078
  6
CONTINUOUS
  0
LINE
  8
WHITE
 10
129.062054
 20
181.205890
 30
0.000000
 11
129.343465
 21
181.161425
 31
0.000000
  6
CONTINUOUS
  0
LINE
  8
WHITE
 10
129.343465
 20
181.161425
 30
0.000000
 11
129.351533
 21
178.196875
 31
0.000000
  6
CONTINUOUS
  0
LINE
  8
WHITE
 10
66.083582
 20
107.163925
 30
0.000000
 11
66.208980
 21
105.948532
 31
0.000000
  6
CONTINUOUS
  0
LINE
  8
WHITE
 10
66.208980
 20
105.948532
 30
0.000000
 11
73.549575
 21
106.720210
 31
0.000000
  6
CONTINUOUS
  0
ARC
  8
WHITE
 10
69.421099
 20
105.147917
 30
0.000000
 40
4.417740
 50
-72.989300
 51
20.848891
  6
CONTINUOUS
  0
ARC
  8
WHITE
 10
68.563960
 20
107.905085
 30
0.000000
 40
7.305041
 50
-121.186818
 51
-72.887113
  6
CONTINUOUS
  0
ARC
  8
WHITE
 10
57.871569
 20
90.121652
 30
0.000000
 40
13.445376
 50
59.075835
 51
110.478745
  6
CONTINUOUS
  0
ARC
  8
WHITE
 10
52.746075
 20
103.846858
 30
0.000000
 40
1.205631
 50
-173.975121
 51
-69.536724
  6
CONTINUOUS
  0
LINE
  8
WHITE
 10
51.547103
 20
103.720315
 30
0.000000
 11
51.277022
 21
106.295787
 31
0.000000
  6
CONTINUOUS
  0
ARC
  8
WHITE
 10
52.472158
 20
106.428902
 30
0.000000
 40
1.202526
 50
81.187390
 51
186.355419
  6
CONTINUOUS
  0
ARC
  8
WHITE
 10
54.638564
 20
120.920060
 30
0.000000
 40
13.449695
 50
-98.474949
 51
-47.080686
  6
CONTINUOUS
  0
ARC
  8
WHITE
 10
68.795799
 20
105.739235
 30
0.000000
 40
7.308108
 50
84.939992
 51
133.153576
  6
CONTINUOUS
  0
ARC
  8
WHITE
 10
69.043918
 20
108.611625
 30
0.000000
 40
4.425033
 50
-4.887114
 51
84.859840
  6
CONTINUOUS
  0
LINE
  8
WHITE
 10
73.452863
 20
108.234644
 30
0.000000
 11
73.421833
 21
107.935357
 31
0.000000
  6
CONTINUOUS
  0
LINE
  8
WHITE
 10
73.421833
 20
107.935357
 30
0.000000
 11
66.083582
 21
107.163925
 31
0.000000
  6
CONTINUOUS
  0
ARC
  8
WHITE
 10
106.221349
 20
93.596552
 30
0.000000
 40
5.412206
 50
87.455313
 51
104.774923
  6
CONTINUOUS
  0
LINE
  8
WHITE
 10
106.461643
 20
99.003421
 30
0.000000
 11
106.615973
 21
92.752840
 31
0.000000
  6
CONTINUOUS
  0
LINE
  8
WHITE
 10
106.615973
 20
92.752840
 30
0.000000
 11
107.773490
 21
92.781769
 31
0.000000
  6
CONTINUOUS
  0
LINE
  8
WHITE
 10
107.773490
 20
92.781769
 30
0.000000
 11
107.619154
 21
99.032369
 31
0.000000
  6
CONTINUOUS
  0
ARC
  8
WHITE
 10
108.132933
 20
93.659999
 30
0.000000
 40
5.396881
 50
38.848963
 51
95.462778
  6
CONTINUOUS
  0
LINE
  8
WHITE
 10
112.336036
 20
97.045299
 30
0.000000
 11
112.567539
 21
87.794810
 31
0.000000
  6
CONTINUOUS
  0
ARC
  8
WHITE
 10
124.962615
 20
87.688704
 30
0.000000
 40
12.395530
 50
179.509542
 51
204.211500
  6
CONTINUOUS
  0
ARC
  8
WHITE
 10
112.807537
 20
82.200256
 30
0.000000
 40
0.941437
 50
-122.813178
 51
25.477529
  6
CONTINUOUS
  0
ARC
  8
WHITE
 10
113.992400
 20
84.179295
 30
0.000000
 40
3.247688
 50
-143.519203
 51
-121.461053
  6
CONTINUOUS
  0
ARC
  8
WHITE
 10
105.357174
 20
78.614737
 30
0.000000
 40
7.034963
 50
31.098490
 51
68.313860
  6
CONTINUOUS
  0
ARC
  8
WHITE
 10
107.411766
 20
83.780156
 30
0.000000
 40
1.475925
 50
68.330808
 51
114.521301
  6
CONTINUOUS
  0
ARC
  8
WHITE
 10
109.733222
 20
78.718762
 30
0.000000
 40
7.044338
 50
114.614346
 51
151.727235
  6
CONTINUOUS
  0
ARC
  8
WHITE
 10
100.828389
 20
83.849597
 30
0.000000
 40
3.242475
 50
-55.789900
 51
-33.595500
  6
CONTINUOUS
  0
ARC
  8
WHITE
 10
102.121038
 20
81.949564
 30
0.000000
 40
0.944418
 50
158.430401
 51
304.165037
  6
CONTINUOUS
  0
ARC
  8
WHITE
 10
89.693286
 20
86.811456
 30
0.000000
 40
12.400513
 50
-21.350559
 51
3.342021
  6
CONTINUOUS
  0
LINE
  8
WHITE
 10
102.072710
 20
87.534359
 30
0.000000
 11
101.841207
 21
96.784848
 31
0.000000
  6
CONTINUOUS
  0
ARC
  8
WHITE
 10
106.204090
 20
93.592030
 30
0.000000
 40
5.406370
 50
107.688100
 51
143.802829
  6
CONTINUOUS
  0
LINE
  8
WHITE
 10
104.561449
 20
98.742799
 30
0.000000
 11
104.841114
 21
98.829804
 31
0.000000
  6
CONTINUOUS
  0
ARC
  8
WHITE
 10
81.317249
 20
130.323479
 30
0.000000
 40
2.408737
 50
94.197396
 51
131.140863
  6
CONTINUOUS
  0
LINE
  8
WHITE
 10
79.732511
 20
132.137485
 30
0.000000
 11
78.584764
 21
131.124524
 31
0.000000
  6
CONTINUOUS
  0
ARC
  8
WHITE
 10
77.485133
 20
132.368854
 30
0.000000
 40
1.660587
 50
170.975300
 51
311.467456
  6
CONTINUOUS
  0
ARC
  8
WHITE
 10
83.368956
 20
131.471805
 30
0.000000
 40
7.612371
 50
-97.132400
 51
171.253739
  6
CONTINUOUS
  0
ARC
  8
WHITE
 10
82.629445
 20
125.568860
 30
0.000000
 40
1.663284
 50
122.770281
 51
262.897338
  6
CONTINUOUS
  0
LINE
  8
WHITE
 10
81.729156
 20
126.967428
 30
0.000000
 11
83.012276
 21
127.787017
 31
0.000000
  6
CONTINUOUS
  0
ARC
  8
WHITE
 10
81.711998
 20
129.813636
 30
0.000000
 40
2.407884
 50
-57.315800
 51
31.085691
  6
CONTINUOUS
  0
LINE
  8
WHITE
 10
83.774094
 20
131.056869
 30
0.000000
 11
86.388366
 21
133.024781
 31
0.000000
  6
CONTINUOUS
  0
LINE
  8
WHITE
 10
86.388366
 20
133.024781
 30
0.000000
 11
85.693847
 21
133.950794
 31
0.000000
  6
CONTINUOUS
  0
LINE
  8
WHITE
 10
85.693847
 20
133.950794
 30
0.000000
 11
83.079797
 21
131.973369
 31
0.000000
  6
CONTINUOUS
  0
ARC
  8
WHITE
 10
81.316985
 20
130.323460
 30
0.000000
 40
2.414479
 50
43.105176
 51
87.309337
  6
CONTINUOUS
  0
LINE
  8
WHITE
 10
81.430329
 20
132.735277
 30
0.000000
 11
81.140947
 21
132.725755
 31
0.000000
  6
CONTINUOUS
  0
ARC
  8
WHITE
 10
80.884287
 20
38.872320
 30
0.000000
 40
3.313814
 50
117.831454
 51
198.181554
  6
CONTINUOUS
  0
ARC
  8
WHITE
 10
83.112672
 20
39.592646
 30
0.000000
 40
5.655714
 50
-161.929463
 51
-129.431323
  6
CONTINUOUS
  0
ARC
  8
WHITE
 10
72.773988
 20
27.136491
 30
0.000000
 40
10.532155
 50
7.549828
 51
50.166668
  6
CONTINUOUS
  0
ARC
  8
WHITE
 10
84.132097
 20
28.670213
 30
0.000000
 40
0.929428
 50
-170.717474
 51
-15.372402
  6
CONTINUOUS
  0
ARC
  8
WHITE
 10
77.816876
 20
30.980787
 30
0.000000
 40
7.651292
 50
-19.523065
 51
2.234054
  6
CONTINUOUS
  0
ARC
  8
WHITE
 10
105.016671
 20
35.716188
 30
0.000000
 40
20.051423
 50
178.704400
 51
192.784700
  6
CONTINUOUS
  0
ARC
  8
WHITE
 10
85.702538
 20
36.257327
 30
0.000000
 40
0.737405
 50
83.163221
 51
186.835489
  6
CONTINUOUS
  0
ARC
  8
WHITE
 10
86.234021
 20
16.945123
 30
0.000000
 40
20.049238
 50
77.214070
 51
91.268107
  6
CONTINUOUS
  0
ARC
  8
WHITE
 10
90.992519
 20
44.145849
 30
0.000000
 40
7.655379
 50
-92.406337
 51
-70.671059
  6
CONTINUOUS
  0
ARC
  8
WHITE
 10
93.292325
 20
37.823673
 30
0.000000
 40
0.931582
 50
-75.448692
 51
81.506299
  6
CONTINUOUS
  0
ARC
  8
WHITE
 10
94.802444
 20
49.183056
 30
0.000000
 40
10.527871
 50
-140.098809
 51
-97.491001
  6
CONTINUOUS
  0
ARC
  8
WHITE
 10
82.347742
 20
38.861659
 30
0.000000
 40
5.648046
 50
39.179060
 51
71.696083
  6
CONTINUOUS
  0
ARC
  8
WHITE
 10
83.095324
 20
41.066618
 30
0.000000
 40
3.319910
 50
71.994207
 51
118.195933
  6
CONTINUOUS
  0
LINE
  8
WHITE
 10
81.526706
 20
43.992577
 30
0.000000
 11
81.276000
 21
43.847744
 31
0.000000
  6
CONTINUOUS
  0
ARC
  8
WHITE
 10
83.088241
 20
41.068929
 30
0.000000
 40
3.317534
 50
123.110906
 51
152.072378
  6
CONTINUOUS
  0
LINE
  8
WHITE
 10
80.157067
 20
42.622715
 30
0.000000
 11
82.636083
 21
40.134044
 31
0.000000
  6
CONTINUOUS
  0
LINE
  8
WHITE
 10
82.636083
 20
40.134044
 30
0.000000
 11
81.816165
 21
39.314146
 31
0.000000
  6
CONTINUOUS
  0
LINE
  8
WHITE
 10
81.816165
 20
39.314146
 30
0.000000
 11
79.337160
 21
41.802807
 31
0.000000
  6
CONTINUOUS
  0
ENDSEC
  0
EOF
