  0
SECTION
  2
ENTITIES
  0
ARC
  8
0
 10
12.485096
 20
6.231049
 40
2.112998
 50
133.868251
 51
153.669034
  0
ARC
  8
0
 10
11.793224
 20
6.92638
 40
1.132368
 50
113.747605
 51
133.011642
  0
ARC
  8
0
 10
11.631034
 20
7.282963
 40
0.740678
 50
80.537651
 51
113.371769
  0
ARC
  8
0
 10
11.604206
 20
7.242556
 40
0.785195
 50
53.37013
 51
79.091231
  0
ARC
  8
0
 10
11.301535
 20
6.851494
 40
1.279648
 50
30.10955
 51
52.941587
  0
ARC
  8
0
 10
9.90746
 20
6.085299
 40
2.870215
 50
5.691989
 51
29.380237
  0
ARC
  8
0
 10
8.465483
 20
5.83886
 40
4.33073
 50
334.654314
 51
7.044331
  0
ARC
  8
0
 10
10.485573
 20
4.922199
 40
2.113
 50
313.86836
 51
333.669077
  0
ARC
  8
0
 10
11.177434
 20
4.226894
 40
1.132396
 50
293.74764
 51
313.011349
  0
ARC
  8
0
 10
11.334361
 20
3.888777
 40
0.759749
 50
268.380818
 51
293.183791
  0
ARC
  8
0
 10
11.347328
 20
3.860489
 40
0.731968
 50
238.852371
 51
267.303619
  0
ARC
  8
0
 10
11.549226
 20
4.180121
 40
1.109977
 50
215.466052
 51
238.467096
  0
ARC
  8
0
 10
12.553388
 20
4.864674
 40
2.325154
 50
192.393673
 51
214.847665
  0
ARC
  8
0
 10
14.502755
 20
5.318815
 40
4.326637
 50
154.693496
 51
192.726985
  0
ARC
  8
0
 10
6.641075
 20
8.585099
 40
3.372879
 50
141.79055
 51
159.530609
  0
ARC
  8
0
 10
5.061392
 20
9.804783
 40
1.377342
 50
120.30701
 51
141.011742
  0
ARC
  8
0
 10
4.714645
 20
10.393526
 40
0.694084
 50
77.950274
 51
120.120567
  0
ARC
  8
0
 10
4.643177
 20
10.255869
 40
0.84463
 50
45.120147
 51
75.157325
  0
ARC
  8
0
 10
3.884034
 20
9.505119
 40
1.912289
 50
23.500283
 51
44.875249
  0
ARC
  8
0
 10
0.626545
 20
8.132858
 40
5.44694
 50
4.176779
 51
23.074339
  0
ARC
  8
0
 10
-2.431875
 20
7.705727
 40
8.530768
 50
340.369868
 51
5.541944
  0
ARC
  8
0
 10
2.443175
 20
6.019359
 40
3.372883
 50
321.790652
 51
339.530667
  0
ARC
  8
0
 10
4.022842
 20
4.799703
 40
1.377377
 50
300.307185
 51
321.011511
  0
ARC
  8
0
 10
4.360134
 20
4.238308
 40
0.722539
 50
268.203353
 51
299.681095
  0
ARC
  8
0
 10
4.390935
 20
4.246819
 40
0.732648
 50
230.916245
 51
265.815948
  0
ARC
  8
0
 10
4.906272
 20
4.872448
 40
1.543184
 50
208.10794
 51
230.708838
  0
ARC
  8
0
 10
7.279245
 20
6.11198
 40
4.22035
 50
189.316523
 51
207.773352
  0
ARC
  8
0
 10
11.553358
 20
6.898685
 40
8.565858
 50
160.453227
 51
189.881064
  0
ARC
  8
0
 10
6.782048
 20
51.21002
 40
27.65966
 50
270.009094
 51
280.535828
  0
ARC
  8
0
 10
6.740287
 20
23.876043
 40
0.328937
 50
79.098688
 51
259.098688
  0
ARC
  8
0
 10
6.740287
 20
23.876043
 40
0.328937
 50
259.098688
 51
278.06541
  0
ARC
  8
0
 10
7.451529
 20
31.022876
 40
6.854628
 50
264.566777
 51
306.001661
  0
ARC
  8
0
 10
11.827562
 20
24.788203
 40
0.771616
 50
270.895835
 51
90.895835
  0
ARC
  8
0
 10
11.827562
 20
24.788203
 40
0.771616
 50
90.895835
 51
116.710023
  0
ARC
  8
0
 10
7.459415
 20
14.771235
 40
6.829834
 50
54.542351
 51
95.584068
  0
ARC
  8
0
 10
6.792185
 20
21.895827
 40
0.32718
 50
89.536581
 51
269.536581
  0
ARC
  8
0
 10
6.792185
 20
21.895827
 40
0.32718
 50
269.536581
 51
270.463341
  0
ARC
  8
0
 10
6.854836
 20
-4.680089
 40
26.903153
 50
79.362154
 51
90.127793
  0
ARC
  8
0
 10
11.798776
 20
20.99782
 40
0.763204
 50
240.366488
 51
60.366488
  0
ARC
  8
0
 10
11.798776
 20
20.99782
 40
0.763204
 50
60.366488
 51
88.318296
  0
ARC
  8
0
 10
6.955028
 20
-8.632697
 40
31.228202
 50
80.366707
 51
91.62487
  0
ARC
  8
0
 10
6.074529
 20
22.887056
 40
0.304149
 50
90.924883
 51
269.059254
  0
ARC
  8
0
 10
6.961371
 20
54.33717
 40
31.158768
 50
268.359994
 51
279.645745
  0
ARC
  8
0
 10
12.393521
 20
22.886828
 40
0.761966
 50
253.789649
 51
73.789649
  0
ARC
  8
0
 10
12.393521
 20
22.886828
 40
0.761966
 50
73.789649
 51
106.10073
  0
ARC
  8
0
 10
13.959125
 20
20.852294
 40
0.623507
 50
281.019501
 51
323.421936
  0
ARC
  8
0
 10
13.986294
 20
20.713122
 40
0.481707
 50
214.967043
 51
281.011595
  0
ARC
  8
0
 10
14.054966
 20
20.761487
 40
0.565701
 50
150.586184
 51
214.995246
  0
ARC
  8
0
 10
10.272141
 20
22.887407
 40
3.773574
 50
330.676033
 51
29.59164
  0
ARC
  8
0
 10
14.055141
 20
25.012573
 40
0.565794
 50
145.02221
 51
207.552929
  0
ARC
  8
0
 10
13.986292
 20
25.060851
 40
0.481706
 50
78.988249
 51
145.032866
  0
ARC
  8
0
 10
13.958996
 20
24.921627
 40
0.62358
 50
37.356357
 51
78.969785
  0
ARC
  8
0
 10
11.211392
 20
22.886888
 40
4.042514
 50
323.472255
 51
36.650541
  0
ARC
  8
0
 10
14.018858
 20
22.59911
 40
2.914956
 50
12.007759
 51
26.737573
  0
ARC
  8
0
 10
8.083489
 20
19.605666
 40
9.562461
 50
26.755694
 51
33.988274
  0
ARC
  8
0
 10
24.938012
 20
30.727104
 40
10.631538
 50
208.697066
 51
212.906553
  0
ARC
  8
0
 10
18.124577
 20
27.021446
 40
2.875693
 50
195.253453
 51
209.118871
  0
ARC
  8
0
 10
19.834228
 20
27.411563
 40
4.628332
 50
179.893449
 51
194.344562
  0
ARC
  8
0
 10
0.555294
 20
27.448251
 40
14.650636
 50
359.890182
 51
5.359978
  0
ARC
  8
0
 10
14.083493
 20
28.717542
 40
1.063021
 50
5.358222
 51
32.816344
  0
ARC
  8
0
 10
13.812607
 20
28.542833
 40
1.38536
 50
32.817217
 51
103.378126
  0
ARC
  8
0
 10
13.83461
 20
28.450234
 40
1.480537
 50
103.377351
 51
170.063166
  0
ARC
  8
0
 10
12.669631
 20
28.654282
 40
0.297824
 50
170.054607
 51
270.022409
  0
LINE
  8
0
 10
12.669748
 11
13.566425
 20
28.356458
 21
28.356262
  0
LINE
  8
0
 10
13.566425
 11
13.566425
 20
28.356262
 21
27.605718
  0
LINE
  8
0
 10
13.566425
 11
12.446174
 20
27.605718
 21
27.605619
  0
ARC
  8
0
 10
12.445966
 20
27.307771
 40
0.297848
 50
89.960011
 51
138.469366
  0
LINE
  8
0
 10
12.222997
 11
12.092347
 20
27.50525
 21
27.35792
  0
ARC
  8
0
 10
8.020627
 20
30.976181
 40
5.447083
 50
314.6386
 51
318.374673
  0
ARC
  8
0
 10
10.285484
 20
28.682167
 40
2.223409
 50
301.912752
 51
314.645921
  0
ARC
  8
0
 10
10.397575
 20
28.502465
 40
2.011614
 50
285.729217
 51
301.908376
  0
ARC
  8
0
 10
8.440389
 20
35.44841
 40
9.228034
 50
278.116934
 51
285.734872
  0
LINE
  8
0
 10
9.743331
 11
6.33333
 20
26.312822
 21
25.265438
  0
ARC
  8
0
 10
6.347014
 20
27.444669
 40
2.179274
 50
225.810174
 51
269.640222
  0
ARC
  8
0
 10
8.870092
 20
30.04031
 40
5.799118
 50
205.78458
 51
225.81143
  0
LINE
  8
0
 10
3.648358
 11
2.623709
 20
27.517759
 21
29.60885
  0
ARC
  8
0
 10
1.736395
 20
29.167804
 40
0.990883
 50
26.430019
 51
106.70729
  0
ARC
  8
0
 10
1.801811
 20
28.949745
 40
1.218543
 50
106.705732
 51
153.592094
  0
ARC
  8
0
 10
1.516967
 20
29.091252
 40
0.900485
 50
153.595512
 51
211.094385
  0
LINE
  8
0
 10
0.745865
 11
0.798384
 20
28.626197
 21
28.521559
  0
ARC
  8
0
 10
1.064948
 20
28.654199
 40
0.297741
 50
206.454611
 51
270.037595
  0
LINE
  8
0
 10
1.065143
 11
1.901262
 20
28.356458
 21
28.356262
  0
LINE
  8
0
 10
1.901262
 11
1.901262
 20
28.356262
 21
27.605718
  0
LINE
  8
0
 10
1.901262
 11
1.16998
 20
27.605718
 21
27.60552
  0
ARC
  8
0
 10
1.169847
 20
27.30764
 40
0.29788
 50
89.974514
 51
185.883086
  0
LINE
  8
0
 10
0.873537
 11
1.053825
 20
27.277108
 21
25.511548
  0
ARC
  8
0
 10
-3.88323
 20
25.394163
 40
4.938451
 50
339.105986
 51
1.362029
  0
ARC
  8
0
 10
3.122779
 20
22.886648
 40
2.505996
 50
162.675014
 51
197.225607
  0
ARC
  8
0
 10
-3.883347
 20
20.379877
 40
4.938571
 50
358.637215
 51
20.935788
  0
LINE
  8
0
 10
1.053826
 11
0.873536
 20
20.262424
 21
18.496764
  0
ARC
  8
0
 10
1.169803
 20
18.466283
 40
0.297831
 50
174.125725
 51
270.034367
  0
LINE
  8
0
 10
1.169982
 11
1.901262
 20
18.168452
 21
18.168253
  0
LINE
  8
0
 10
1.901262
 11
1.901262
 20
18.168253
 21
17.417711
  0
LINE
  8
0
 10
1.901262
 11
1.065143
 20
17.417711
 21
17.417513
  0
ARC
  8
0
 10
1.065027
 20
17.119723
 40
0.29779
 50
89.977569
 51
153.560569
  0
LINE
  8
0
 10
0.798384
 11
0.745865
 20
17.252314
 21
17.147775
  0
ARC
  8
0
 10
1.516968
 20
16.68272
 40
0.900486
 50
148.905654
 51
206.404512
  0
ARC
  8
0
 10
1.801808
 20
16.824228
 40
1.21854
 50
206.408041
 51
253.294361
  0
ARC
  8
0
 10
1.736454
 20
16.606118
 40
0.99085
 50
253.288519
 51
333.565845
  0
LINE
  8
0
 10
2.623707
 11
3.648356
 20
16.165022
 21
18.256214
  0
ARC
  8
0
 10
8.87009
 20
15.733657
 40
5.79912
 50
134.188518
 51
154.21536
  0
ARC
  8
0
 10
6.347011
 20
18.329305
 40
2.179271
 50
90.359712
 51
134.189793
  0
LINE
  8
0
 10
6.33333
 11
9.743331
 20
20.508532
 21
19.461051
  0
ARC
  8
0
 10
8.441137
 20
10.32552
 40
9.227873
 50
74.269667
 51
81.88761
  0
ARC
  8
0
 10
10.397226
 20
17.271452
 40
2.011762
 50
58.082499
 51
74.261655
  0
ARC
  8
0
 10
10.28592
 20
17.091764
 40
2.22313
 50
45.362839
 51
58.095972
  0
ARC
  8
0
 10
8.019111
 20
14.797716
 40
5.448201
 50
41.614521
 51
45.350613
  0
LINE
  8
0
 10
12.092348
 11
12.222996
 20
18.415951
 21
18.268723
  0
ARC
  8
0
 10
12.445968
 20
18.466201
 40
0.297849
 50
221.530179
 51
270.039565
  0
LINE
  8
0
 10
12.446174
 11
13.566425
 20
18.168352
 21
18.168253
  0
LINE
  8
0
 10
13.566425
 11
13.566425
 20
18.168253
 21
17.417711
  0
LINE
  8
0
 10
13.566425
 11
12.669748
 20
17.417711
 21
17.417513
  0
ARC
  8
0
 10
12.669631
 20
17.11969
 40
0.297823
 50
89.977488
 51
189.945614
  0
ARC
  8
0
 10
13.834687
 20
17.323685
 40
1.480604
 50
189.934357
 51
256.620128
  0
ARC
  8
0
 10
13.812535
 20
17.231088
 40
1.385394
 50
256.625223
 51
327.186146
  0
ARC
  8
0
 10
14.083698
 20
17.056375
 40
1.06282
 50
327.180181
 51
354.638455
  0
ARC
  8
0
 10
0.555293
 20
18.325638
 40
14.650636
 50
354.639963
 51
0.109763
  0
ARC
  8
0
 10
19.834258
 20
18.362556
 40
4.628364
 50
166.444717
 51
180.109573
  0
ARC
  8
0
 10
17.915021
 20
18.835251
 40
2.651814
 50
151.473207
 51
166.654085
  0
ARC
  8
0
 10
25.837036
 20
14.547835
 40
11.659599
 50
145.732872
 51
151.55388
  0
ARC
  8
0
 10
9.350099
 20
25.569974
 40
8.17345
 50
326.953197
 51
332.551295
  0
ARC
  8
0
 10
14.00788
 20
23.165909
 40
2.931891
 50
332.285517
 51
346.891708
  0
ARC
  8
0
 10
15.213554
 20
22.868885
 40
1.690345
 50
347.428879
 51
11.488405
  0
ARC
  8
0
 10
16.349409
 20
6.316577
 40
2.843262
 50
104.842286
 51
177.85669
  0
ARC
  8
0
 10
19.243192
 20
-1.698773
 40
11.356844
 50
85.560884
 51
108.598614
  0
ARC
  8
0
 10
20.089704
 20
9.920013
 40
0.29779
 50
276.266348
 51
0.025556
  0
LINE
  8
0
 10
20.387495
 11
20.387581
 20
9.920146
 21
10.102546
  0
ARC
  8
0
 10
20.089724
 20
10.10259
 40
0.297857
 50
359.991624
 51
90.033341
  0
LINE
  8
0
 10
20.08955
 11
19.118405
 20
10.400447
 21
10.400661
  0
LINE
  8
0
 10
19.118405
 11
19.118405
 20
10.400661
 21
11.153192
  0
LINE
  8
0
 10
19.118405
 11
20.089551
 20
11.153192
 21
11.153406
  0
ARC
  8
0
 10
20.089658
 20
11.451242
 40
0.297836
 50
269.979268
 51
0.012326
  0
LINE
  8
0
 10
20.387495
 11
20.387581
 20
11.451306
 21
11.591706
  0
ARC
  8
0
 10
20.089701
 20
11.591771
 40
0.29788
 50
359.987647
 51
90.028814
  0
LINE
  8
0
 10
20.089551
 11
19.138677
 20
11.88965
 21
11.889823
  0
ARC
  8
0
 10
19.138618
 20
11.591983
 40
0.297841
 50
89.988708
 51
93.891259
  0
ARC
  8
0
 10
18.643296
 20
-5.036358
 40
16.932162
 50
88.392094
 51
106.98926
  0
ARC
  8
0
 10
18.311605
 20
-10.289818
 40
21.937774
 50
102.14593
 51
106.252309
  0
ARC
  8
0
 10
8.841784
 20
22.194205
 40
11.898438
 50
277.522741
 51
286.253102
  0
LINE
  8
0
 10
10.399524
 11
7.453216
 20
10.398177
 21
10.400661
  0
LINE
  8
0
 10
7.453216
 11
7.453216
 20
10.400661
 21
11.153192
  0
LINE
  8
0
 10
7.453216
 11
8.446004
 20
11.153192
 21
11.153192
  0
ARC
  8
0
 10
8.355596
 20
11.649477
 40
0.504453
 50
280.324218
 51
329.353341
  0
ARC
  8
0
 10
8.403142
 20
11.591832
 40
0.434904
 50
332.695977
 51
17.119336
  0
ARC
  8
0
 10
8.701755
 20
11.692883
 40
0.120089
 50
12.977769
 51
141.81544
  0
ARC
  8
0
 10
7.771757
 20
14.492646
 40
2.85074
 50
230.6399
 51
287.044749
  0
ARC
  8
0
 10
7.22524
 20
13.664174
 40
1.866425
 50
144.318342
 51
227.48077
  0
ARC
  8
0
 10
9.132229
 20
12.619411
 40
4.033434
 50
133.429286
 51
148.066658
  0
ARC
  8
0
 10
5.015267
 20
17.366016
 40
2.26048
 50
306.486017
 51
332.451941
  0
ARC
  8
0
 10
4.556216
 20
17.504245
 40
2.73289
 50
334.333929
 51
24.891982
  0
ARC
  8
0
 10
5.673521
 20
18.164822
 40
1.447091
 50
19.78046
 51
43.337426
  0
ARC
  8
0
 10
5.95799
 20
18.407889
 40
1.073533
 50
44.321675
 51
69.470358
  0
ARC
  8
0
 10
5.989081
 20
18.49099
 40
0.984806
 50
69.4688
 51
127.667949
  0
ARC
  8
0
 10
5.986316
 20
18.494584
 40
0.980272
 50
127.668371
 51
190.697255
  0
LINE
  8
0
 10
5.023079
 11
5.228367
 20
18.312626
 21
17.853839
  0
ARC
  8
0
 10
4.755542
 20
17.648723
 40
0.515399
 50
329.337655
 51
23.451678
  0
ARC
  8
0
 10
2.677213
 20
18.880984
 40
2.931578
 50
319.410431
 51
329.336199
  0
ARC
  8
0
 10
20.029108
 20
5.053423
 40
19.258163
 50
141.759244
 51
185.49544
  0
ARC
  8
0
 10
8.412052
 20
3.903943
 40
7.584486
 50
185.256179
 51
198.866838
  0
ARC
  8
0
 10
3.290382
 20
2.153671
 40
2.172004
 50
198.86575
 51
227.636328
  0
ARC
  8
0
 10
2.414177
 20
1.192875
 40
0.871672
 50
227.636058
 51
289.165558
  0
LINE
  8
0
 10
2.700346
 11
3.637243
 20
0.369516
 21
1.162945
  0
ARC
  8
0
 10
4.873842
 20
-0.069172
 40
1.745649
 50
85.096322
 51
135.104019
  0
ARC
  8
0
 10
4.692245
 20
-0.759542
 40
2.452048
 50
56.355044
 51
82.246317
  0
ARC
  8
0
 10
6.751102
 20
3.260063
 40
2.098604
 50
250.506256
 51
274.096008
  0
LINE
  8
0
 10
6.901001
 11
8.148703
 20
1.16682
 21
1.167415
  0
ARC
  8
0
 10
8.148349
 20
1.465241
 40
0.297826
 50
270.068061
 51
359.982309
  0
LINE
  8
0
 10
8.446176
 11
8.446218
 20
1.465149
 21
1.656558
  0
ARC
  8
0
 10
8.148424
 20
1.656498
 40
0.297794
 50
0.011519
 51
89.979386
  0
LINE
  8
0
 10
8.148531
 11
7.453216
 20
1.954292
 21
1.954095
  0
LINE
  8
0
 10
7.453216
 11
7.453216
 20
1.954095
 21
2.706621
  0
LINE
  8
0
 10
7.453216
 11
8.148489
 20
2.706621
 21
2.706424
  0
ARC
  8
0
 10
8.148368
 20
3.004275
 40
0.297851
 50
270.023244
 51
359.977391
  0
LINE
  8
0
 10
8.446219
 11
8.446004
 20
3.004158
 21
3.699204
  0
LINE
  8
0
 10
8.446004
 11
9.198535
 20
3.699204
 21
3.699204
  0
LINE
  8
0
 10
9.198535
 11
9.198407
 20
3.699204
 21
2.867152
  0
ARC
  8
0
 10
9.496226
 20
2.867321
 40
0.29782
 50
180.032467
 51
234.350597
  0
ARC
  8
0
 10
8.302644
 20
1.202842
 40
1.750382
 50
25.232944
 51
54.35697
  0
ARC
  8
0
 10
16.194191
 20
5.651876
 40
7.31466
 50
210.412558
 51
220.156042
  0
ARC
  8
0
 10
11.742979
 20
2.130742
 40
1.651719
 50
226.387585
 51
356.909375
  0
ARC
  8
0
 10
213.287703
 20
-1.051451
 40
199.919337
 50
177.857389
 51
179.113488
  0
ARC
  8
0
 10
17.280064
 20
30.909158
 40
0.198555
 50
89.999372
 51
180.020096
  0
LINE
  8
0
 10
17.081509
 11
17.082148
 20
30.909088
 21
29.122648
  0
LINE
  8
0
 10
17.082148
 11
18.074442
 20
29.122648
 21
29.121481
  0
LINE
  8
0
 10
18.074442
 11
18.074391
 20
29.121481
 21
27.27509
  0
ARC
  8
0
 10
18.272947
 20
27.275085
 40
0.198556
 50
179.998429
 51
269.898438
  0
LINE
  8
0
 10
18.272595
 11
19.860582
 20
27.076529
 21
27.073713
  0
ARC
  8
0
 10
19.860934
 20
27.272268
 40
0.198555
 50
269.898468
 51
359.998047
  0
LINE
  8
0
 10
20.059489
 11
20.059556
 20
27.272261
 21
29.123919
  0
LINE
  8
0
 10
20.059556
 11
21.05199
 20
29.123919
 21
29.122753
  0
LINE
  8
0
 10
21.05199
 11
21.052502
 20
29.122753
 21
30.9091
  0
ARC
  8
0
 10
20.853946
 20
30.909158
 40
0.198556
 50
359.983352
 51
89.999765
  0
LINE
  8
0
 10
20.853946
 11
17.280066
 20
31.107714
 21
31.107713
  0
LINE
  8
0
 10
28.172168
 11
28.172168
 20
42.154359
 21
43.643527
  0
LINE
  8
0
 10
28.172168
 11
28.92271
 20
43.643527
 21
43.643527
  0
LINE
  8
0
 10
28.92271
 11
28.92271
 20
43.643527
 21
42.154359
  0
ARC
  8
0
 10
30.526974
 20
42.115896
 40
1.604725
 50
178.626571
 51
196.772483
  0
ARC
  8
0
 10
30.099353
 20
42.057947
 40
1.180529
 50
200.070528
 51
233.536622
  0
ARC
  8
0
 10
29.87833
 20
41.86721
 40
0.898086
 50
237.64858
 51
249.779288
  0
ARC
  8
0
 10
29.747821
 20
41.512633
 40
0.520254
 50
249.769359
 51
326.838779
  0
ARC
  8
0
 10
22.84109
 20
46.025825
 40
8.77082
 50
326.837532
 51
332.143386
  0
ARC
  8
0
 10
27.522699
 20
43.551377
 40
3.475505
 50
332.14632
 51
343.43525
  0
ARC
  8
0
 10
27.119811
 20
43.703733
 40
3.905234
 50
342.977927
 51
27.900016
  0
ARC
  8
0
 10
28.978069
 20
44.671719
 40
1.810074
 50
28.345146
 51
74.372808
  0
ARC
  8
0
 10
28.336649
 20
42.378217
 40
4.19158
 50
74.374266
 51
93.402453
  0
ARC
  8
0
 10
26.372802
 20
75.410798
 40
28.899326
 50
270.824275
 51
273.402317
  0
ARC
  8
0
 10
26.726274
 20
50.833497
 40
4.319484
 50
250.30808
 51
270.82598
  0
ARC
  8
0
 10
22.421727
 20
38.807186
 40
8.453976
 50
70.305417
 51
77.293995
  0
ARC
  8
0
 10
23.478279
 20
44.76311
 40
2.42764
 50
70.687052
 51
107.243647
  0
ARC
  8
0
 10
24.490871
 20
38.80695
 40
8.454053
 50
101.823614
 51
109.691299
  0
ARC
  8
0
 10
20.18675
 20
50.833502
 40
4.31949
 50
269.174211
 51
289.691947
  0
ARC
  8
0
 10
20.540202
 20
75.412974
 40
28.901503
 50
266.597796
 51
269.175857
  0
ARC
  8
0
 10
18.57633
 20
42.378508
 40
4.191287
 50
86.597963
 51
105.626171
  0
ARC
  8
0
 10
17.934908
 20
44.671604
 40
1.810171
 50
105.624687
 51
151.652365
  0
ARC
  8
0
 10
19.64837
 20
43.74739
 40
3.756995
 50
151.65543
 51
175.086074
  0
ARC
  8
0
 10
19.809218
 20
43.710291
 40
3.920498
 50
174.74724
 51
207.046783
  0
ARC
  8
0
 10
24.071956
 20
46.025833
 40
8.770838
 50
207.856586
 51
213.162452
  0
ARC
  8
0
 10
17.165207
 20
41.512634
 40
0.520254
 50
213.161496
 51
290.230636
  0
ARC
  8
0
 10
17.034702
 20
41.867212
 40
0.898086
 50
290.220445
 51
302.351106
  0
ARC
  8
0
 10
16.813649
 20
42.057807
 40
1.180431
 50
306.468449
 51
328.724336
  0
ARC
  8
0
 10
16.562924
 20
42.117226
 40
1.427776
 50
331.911471
 51
1.490171
  0
LINE
  8
0
 10
17.990218
 11
17.990218
 20
42.154356
 21
43.643527
  0
LINE
  8
0
 10
17.990218
 11
18.74076
 20
43.643527
 21
43.643527
  0
LINE
  8
0
 10
18.74076
 11
18.741355
 20
43.643527
 21
37.290699
  0
ARC
  8
0
 10
19.337004
 20
37.290186
 40
0.595649
 50
179.950684
 51
270.030396
  0
LINE
  8
0
 10
19.33732
 11
21.470905
 20
36.694537
 21
36.694069
  0
LINE
  8
0
 10
21.470905
 11
21.471401
 20
36.694069
 21
35.304925
  0
ARC
  8
0
 10
22.067059
 20
35.304677
 40
0.595658
 50
179.976126
 51
270.038976
  0
LINE
  8
0
 10
22.067465
 11
24.845463
 20
34.709018
 21
34.709092
  0
ARC
  8
0
 10
24.845949
 20
35.30477
 40
0.595678
 50
269.953197
 51
0.021794
  0
LINE
  8
0
 10
25.441627
 11
25.442024
 20
35.304997
 21
36.694069
  0
LINE
  8
0
 10
25.442024
 11
27.575707
 20
36.694069
 21
36.694535
  0
ARC
  8
0
 10
27.57602
 20
37.290186
 40
0.595652
 50
269.969843
 51
0.046754
  0
LINE
  8
0
 10
28.171672
 11
28.172168
 20
37.290672
 21
42.154359
  0
ARC
  8
0
 10
27.441194
 20
22.832778
 40
0.595652
 50
359.950684
 51
90.030388
  0
LINE
  8
0
 10
27.440878
 11
25.307297
 20
23.42843
 21
23.428898
  0
LINE
  8
0
 10
25.307297
 11
25.306801
 20
23.428898
 21
24.818042
  0
ARC
  8
0
 10
24.711142
 20
24.818288
 40
0.595659
 50
359.976336
 51
90.039325
  0
LINE
  8
0
 10
24.710733
 11
21.932739
 20
25.413947
 21
25.413874
  0
ARC
  8
0
 10
21.932254
 20
24.818197
 40
0.595678
 50
89.953301
 51
180.0219
  0
LINE
  8
0
 10
21.336576
 11
21.336177
 20
24.817969
 21
23.428898
  0
LINE
  8
0
 10
21.336177
 11
19.202495
 20
23.428898
 21
23.42843
  0
ARC
  8
0
 10
19.202179
 20
22.83278
 40
0.595649
 50
89.969529
 51
180.046517
  0
LINE
  8
0
 10
18.606529
 11
18.606033
 20
22.832297
 21
17.968608
  0
LINE
  8
0
 10
18.606033
 11
18.606033
 20
17.968608
 21
16.479438
  0
LINE
  8
0
 10
18.606033
 11
17.855491
 20
16.479438
 21
16.479438
  0
LINE
  8
0
 10
17.855491
 11
17.855491
 20
16.479438
 21
17.968608
  0
ARC
  8
0
 10
16.251227
 20
18.00707
 40
1.604725
 50
358.626607
 51
16.772551
  0
ARC
  8
0
 10
16.678854
 20
18.065017
 40
1.180524
 50
20.070802
 51
53.536825
  0
ARC
  8
0
 10
16.899874
 20
18.255754
 40
0.898084
 50
57.648768
 51
69.779523
  0
ARC
  8
0
 10
17.030378
 20
18.610332
 40
0.520253
 50
69.769276
 51
146.838422
  0
ARC
  8
0
 10
23.937096
 20
14.097129
 40
8.770813
 50
146.837411
 51
152.143262
  0
ARC
  8
0
 10
19.255505
 20
16.571597
 40
3.475505
 50
152.146424
 51
163.435391
  0
ARC
  8
0
 10
19.658391
 20
16.419231
 40
3.905235
 50
162.977913
 51
207.900006
  0
ARC
  8
0
 10
17.800129
 20
15.451247
 40
1.810072
 50
208.345243
 51
254.372904
  0
ARC
  8
0
 10
18.441564
 20
17.744757
 40
4.19159
 50
254.374134
 51
273.402335
  0
ARC
  8
0
 10
20.405503
 20
-15.287801
 40
28.8993
 50
90.824463
 51
93.402519
  0
ARC
  8
0
 10
20.051921
 20
9.289467
 40
4.319489
 50
70.308008
 51
90.825777
  0
ARC
  8
0
 10
24.356449
 20
21.315779
 40
8.453966
 50
250.305573
 51
257.294187
  0
ARC
  8
0
 10
23.299929
 20
15.359857
 40
2.427639
 50
250.687028
 51
287.243571
  0
ARC
  8
0
 10
22.287343
 20
21.316005
 40
8.454039
 50
281.823564
 51
289.691261
  0
ARC
  8
0
 10
26.591458
 20
9.28947
 40
4.319485
 50
89.174301
 51
109.692022
  0
ARC
  8
0
 10
26.237904
 20
-15.290039
 40
28.901537
 50
86.597607
 51
89.175669
  0
ARC
  8
0
 10
28.201862
 20
17.74446
 40
4.19129
 50
266.598119
 51
285.626316
  0
ARC
  8
0
 10
28.843298
 20
15.451364
 40
1.810171
 50
285.62458
 51
331.652247
  0
ARC
  8
0
 10
27.12983
 20
16.375577
 40
3.757
 50
331.655429
 51
355.086015
  0
ARC
  8
0
 10
26.96898
 20
16.41267
 40
3.920505
 50
354.74728
 51
27.046865
  0
ARC
  8
0
 10
22.706272
 20
14.097124
 40
8.770821
 50
27.856743
 51
33.162598
  0
ARC
  8
0
 10
29.612996
 20
18.610334
 40
0.520252
 50
33.16136
 51
110.230635
  0
ARC
  8
0
 10
29.743505
 20
18.255765
 40
0.898076
 50
110.22095
 51
122.351767
  0
ARC
  8
0
 10
29.964546
 20
18.065153
 40
1.180428
 50
126.467991
 51
148.723846
  0
ARC
  8
0
 10
30.215283
 20
18.005738
 40
1.427783
 50
151.911458
 51
181.490146
  0
LINE
  8
0
 10
28.787983
 11
28.787983
 20
17.968608
 21
16.479438
  0
LINE
  8
0
 10
28.787983
 11
28.037442
 20
16.479438
 21
16.479438
  0
LINE
  8
0
 10
28.037442
 11
28.036845
 20
16.479438
 21
22.832265
  0
ARC
  8
0
 10
26.00332
 20
30.941123
 40
0.198555
 50
90.0
 51
180.020477
  0
LINE
  8
0
 10
25.804765
 11
25.805403
 20
30.941052
 21
29.154613
  0
LINE
  8
0
 10
25.805403
 11
26.797696
 20
29.154613
 21
29.153446
  0
LINE
  8
0
 10
26.797696
 11
26.797646
 20
29.153446
 21
27.307053
  0
ARC
  8
0
 10
26.996201
 20
27.307048
 40
0.198555
 50
179.998429
 51
269.898438
  0
LINE
  8
0
 10
26.995849
 11
28.583838
 20
27.108493
 21
27.105678
  0
ARC
  8
0
 10
28.584191
 20
27.304233
 40
0.198555
 50
269.898102
 51
359.99765
  0
LINE
  8
0
 10
28.782746
 11
28.782811
 20
27.304224
 21
29.155885
  0
LINE
  8
0
 10
28.782811
 11
29.775246
 20
29.155885
 21
29.154718
  0
LINE
  8
0
 10
29.775246
 11
29.775758
 20
29.154718
 21
30.941065
  0
ARC
  8
0
 10
29.577201
 20
30.941121
 40
0.198557
 50
359.98398
 51
90.000842
  0
LINE
  8
0
 10
29.577198
 11
26.00332
 20
31.139678
 21
31.139678
  0
ARC
  8
0
 10
17.726669
 20
3.185479
 40
0.80457
 50
91.313789
 51
155.831141
  0
ARC
  8
0
 10
19.358892
 20
2.452868
 40
2.593667
 50
155.828588
 51
179.053689
  0
ARC
  8
0
 10
18.846705
 20
2.46125
 40
2.081411
 50
179.051527
 51
205.642624
  0
ARC
  8
0
 10
17.660224
 20
1.891644
 40
0.765285
 50
205.638946
 51
280.898734
  0
ARC
  8
0
 10
17.67925
 20
1.792458
 40
0.664292
 50
280.904826
 51
316.34089
  0
LINE
  8
0
 10
18.159839
 11
18.351246
 20
1.333854
 21
1.495081
  0
ARC
  8
0
 10
18.159418
 20
1.723073
 40
0.297957
 50
310.07674
 51
0.047682
  0
LINE
  8
0
 10
18.457375
 11
18.457474
 20
1.723321
 21
3.245352
  0
LINE
  8
0
 10
18.457474
 11
19.208014
 20
3.245352
 21
3.245352
  0
LINE
  8
0
 10
19.208014
 11
19.208014
 20
3.245352
 21
1.678348
  0
ARC
  8
0
 10
19.583993
 20
1.68771
 40
0.376095
 50
181.426359
 51
231.83073
  0
ARC
  8
0
 10
19.591002
 20
1.715666
 40
0.402578
 50
233.505527
 51
282.697133
  0
ARC
  8
0
 10
18.810237
 20
5.178644
 40
3.95248
 50
282.704657
 51
290.291492
  0
ARC
  8
0
 10
21.240716
 20
-1.395667
 40
3.056714
 50
91.004624
 51
110.285828
  0
ARC
  8
0
 10
21.239314
 20
-1.312104
 40
2.973139
 50
73.694051
 51
91.005844
  0
ARC
  8
0
 10
22.782534
 20
3.96237
 40
2.52246
 50
253.688362
 51
265.460077
  0
ARC
  8
0
 10
22.662351
 20
2.452055
 40
1.007371
 50
265.474782
 51
288.593674
  0
ARC
  8
0
 10
23.878826
 20
-1.277934
 40
2.916032
 50
98.419683
 51
107.879529
  0
ARC
  8
0
 10
23.933062
 20
-1.999009
 40
3.637647
 50
83.052804
 51
97.601703
  0
ARC
  8
0
 10
23.980974
 20
-1.289857
 40
2.928155
 50
72.144978
 51
82.305027
  0
ARC
  8
0
 10
25.200028
 20
2.452299
 40
1.007617
 50
251.408135
 51
274.527123
  0
ARC
  8
0
 10
25.079897
 20
3.962372
 40
2.522461
 50
274.539935
 51
286.311629
  0
ARC
  8
0
 10
26.623067
 20
-1.311778
 40
2.972812
 50
88.995015
 51
106.306804
  0
ARC
  8
0
 10
26.621612
 20
-1.395671
 40
3.056718
 50
69.714083
 51
88.995317
  0
ARC
  8
0
 10
29.052097
 20
5.178652
 40
3.952489
 50
249.708558
 51
257.295361
  0
ARC
  8
0
 10
28.275202
 20
1.690836
 40
0.379318
 50
255.907973
 51
358.11335
  0
LINE
  8
0
 10
28.654314
 11
28.654315
 20
1.678348
 21
3.245352
  0
LINE
  8
0
 10
28.654315
 11
29.404859
 20
3.245352
 21
3.245352
  0
LINE
  8
0
 10
29.404859
 11
29.405057
 20
3.245352
 21
1.723321
  0
ARC
  8
0
 10
29.702965
 20
1.722966
 40
0.297908
 50
179.931671
 51
229.902695
  0
LINE
  8
0
 10
29.511086
 11
29.702495
 20
1.49508
 21
1.333854
  0
ARC
  8
0
 10
30.183082
 20
1.792455
 40
0.664288
 50
223.658972
 51
259.094993
  0
ARC
  8
0
 10
30.202157
 20
1.891708
 40
0.765358
 50
259.098446
 51
334.358301
  0
ARC
  8
0
 10
29.015724
 20
2.461249
 40
2.081413
 50
334.357423
 51
0.948508
  0
ARC
  8
0
 10
28.503491
 20
2.452624
 40
2.593719
 50
0.951705
 51
24.176818
  0
ARC
  8
0
 10
30.135693
 20
3.185513
 40
0.804526
 50
24.16757
 51
88.193349
  0
LINE
  8
0
 10
30.161057
 11
17.708222
 20
3.98964
 21
3.989837
  0
ARC
  8
0
 10
17.639949
 20
6.964659
 40
0.804569
 50
91.313869
 51
155.83125
  0
ARC
  8
0
 10
19.272168
 20
6.232038
 40
2.593667
 50
155.828389
 51
179.053499
  0
ARC
  8
0
 10
18.75998
 20
6.240431
 40
2.08141
 50
179.05159
 51
205.642685
  0
ARC
  8
0
 10
17.573503
 20
5.670824
 40
0.765286
 50
205.638954
 51
280.898753
  0
ARC
  8
0
 10
17.592529
 20
5.571635
 40
0.66429
 50
280.904886
 51
316.340929
  0
LINE
  8
0
 10
18.073116
 11
18.264523
 20
5.113032
 21
5.27426
  0
ARC
  8
0
 10
18.072695
 20
5.502253
 40
0.297957
 50
310.076467
 51
0.047506
  0
LINE
  8
0
 10
18.370652
 11
18.370751
 20
5.5025
 21
7.024531
  0
LINE
  8
0
 10
18.370751
 11
19.121293
 20
7.024531
 21
7.024531
  0
LINE
  8
0
 10
19.121293
 11
19.121293
 20
7.024531
 21
5.457527
  0
ARC
  8
0
 10
19.497271
 20
5.46689
 40
0.376095
 50
181.426528
 51
231.830767
  0
ARC
  8
0
 10
19.504282
 20
5.494845
 40
0.402577
 50
233.505291
 51
282.696917
  0
ARC
  8
0
 10
18.723515
 20
8.957823
 40
3.95248
 50
282.704654
 51
290.291451
  0
ARC
  8
0
 10
21.153995
 20
2.383507
 40
3.056718
 50
91.004633
 51
110.285872
  0
ARC
  8
0
 10
21.152593
 20
2.467079
 40
2.973134
 50
73.694051
 51
91.005847
  0
ARC
  8
0
 10
22.695813
 20
7.741556
 40
2.522467
 50
253.688367
 51
265.460067
  0
ARC
  8
0
 10
22.575632
 20
6.231235
 40
1.007372
 50
265.474611
 51
288.59352
  0
ARC
  8
0
 10
23.792109
 20
2.501261
 40
2.916017
 50
98.419851
 51
107.8797
  0
ARC
  8
0
 10
23.846346
 20
1.78016
 40
3.637658
 50
83.052913
 51
97.601798
  0
ARC
  8
0
 10
23.894241
 20
2.489324
 40
2.928156
 50
72.144762
 51
82.304817
  0
ARC
  8
0
 10
25.113305
 20
6.231477
 40
1.007617
 50
251.408206
 51
274.527146
  0
ARC
  8
0
 10
24.993176
 20
7.741551
 40
2.522461
 50
274.539911
 51
286.311629
  0
ARC
  8
0
 10
26.536346
 20
2.467401
 40
2.972812
 50
88.995015
 51
106.306804
  0
ARC
  8
0
 10
26.534894
 20
2.383507
 40
3.056719
 50
69.714145
 51
88.995375
  0
ARC
  8
0
 10
28.965389
 20
8.957827
 40
3.952489
 50
249.70836
 51
257.295178
  0
ARC
  8
0
 10
28.188481
 20
5.470014
 40
0.379318
 50
255.908107
 51
358.113457
  0
LINE
  8
0
 10
28.567593
 11
28.567593
 20
5.457527
 21
7.024531
  0
LINE
  8
0
 10
28.567593
 11
29.318135
 20
7.024531
 21
7.024531
  0
LINE
  8
0
 10
29.318135
 11
29.318336
 20
7.024531
 21
5.502499
  0
ARC
  8
0
 10
29.616242
 20
5.502141
 40
0.297906
 50
179.931198
 51
229.902222
  0
LINE
  8
0
 10
29.424362
 11
29.61577
 20
5.274259
 21
5.113033
  0
ARC
  8
0
 10
30.096361
 20
5.571638
 40
0.664294
 50
223.65904
 51
259.095104
  0
ARC
  8
0
 10
30.115436
 20
5.670886
 40
0.765358
 50
259.098514
 51
334.358391
  0
ARC
  8
0
 10
28.929003
 20
6.240428
 40
2.081413
 50
334.357423
 51
0.948508
  0
ARC
  8
0
 10
28.41677
 20
6.2318
 40
2.593719
 50
0.951761
 51
24.176866
  0
ARC
  8
0
 10
30.048971
 20
6.964692
 40
0.804526
 50
24.167526
 51
88.193293
  0
LINE
  8
0
 10
30.074336
 11
17.621501
 20
7.768819
 21
7.769016
  0
ARC
  8
0
 10
12.553388
 20
40.76709
 40
2.325154
 50
145.152327
 51
167.60633
  0
ARC
  8
0
 10
11.549227
 20
41.451645
 40
1.109977
 50
121.53304
 51
144.534032
  0
ARC
  8
0
 10
11.347326
 20
41.771275
 40
0.731968
 50
92.696232
 51
121.14749
  0
ARC
  8
0
 10
11.334365
 20
41.742988
 40
0.759749
 50
66.816483
 51
91.619492
  0
ARC
  8
0
 10
11.177434
 20
41.404872
 40
1.132396
 50
46.988592
 51
66.252287
  0
ARC
  8
0
 10
10.485575
 20
40.709567
 40
2.112999
 50
26.330965
 51
46.131678
  0
ARC
  8
0
 10
8.465484
 20
39.792907
 40
4.330729
 50
352.955639
 51
25.345679
  0
ARC
  8
0
 10
9.907457
 20
39.546463
 40
2.870217
 50
330.619837
 51
354.308073
  0
ARC
  8
0
 10
11.301537
 20
38.780273
 40
1.279648
 50
307.058294
 51
329.89033
  0
ARC
  8
0
 10
11.604202
 20
38.389207
 40
0.785196
 50
280.909091
 51
306.63016
  0
ARC
  8
0
 10
11.631037
 20
38.348801
 40
0.740678
 50
246.628007
 51
279.462174
  0
ARC
  8
0
 10
11.793219
 20
38.705386
 40
1.132367
 50
226.988662
 51
246.252676
  0
ARC
  8
0
 10
12.485099
 20
39.400716
 40
2.113003
 50
206.330956
 51
226.131746
  0
ARC
  8
0
 10
14.502755
 20
40.312947
 40
4.326637
 50
167.272981
 51
205.306475
  0
ARC
  8
0
 10
7.279248
 20
39.519788
 40
4.220351
 50
152.226691
 51
170.683519
  0
ARC
  8
0
 10
4.906275
 20
40.759317
 40
1.543186
 50
129.291177
 51
151.892117
  0
ARC
  8
0
 10
4.390933
 20
41.384947
 40
0.732647
 50
94.18382
 51
129.083532
  0
ARC
  8
0
 10
4.360138
 20
41.393458
 40
0.722538
 50
60.31921
 51
91.796906
  0
ARC
  8
0
 10
4.022839
 20
40.832065
 40
1.377378
 50
38.988404
 51
59.692681
  0
ARC
  8
0
 10
2.44318
 20
39.612407
 40
3.372879
 50
20.469385
 51
38.209414
  0
ARC
  8
0
 10
-2.431877
 20
37.926044
 40
8.53077
 50
354.458054
 51
19.630107
  0
ARC
  8
0
 10
0.626542
 20
37.498905
 40
5.446941
 50
336.925708
 51
355.823297
  0
ARC
  8
0
 10
3.884035
 20
36.126649
 40
1.912289
 50
315.124702
 51
336.499675
  0
ARC
  8
0
 10
4.643175
 20
35.375895
 40
0.844629
 50
284.842804
 51
314.880061
  0
ARC
  8
0
 10
4.714648
 20
35.238242
 40
0.694085
 50
239.879328
 51
282.049455
  0
ARC
  8
0
 10
5.061392
 20
35.826987
 40
1.377344
 50
218.988386
 51
239.693072
  0
ARC
  8
0
 10
6.641068
 20
37.046666
 40
3.372873
 50
200.469458
 51
218.209511
  0
ARC
  8
0
 10
11.55336
 20
38.733078
 40
8.565859
 50
170.118932
 51
199.546771
  0
ARC
  8
0
 10
19.138637
 20
34.039784
 40
0.297841
 50
266.104973
 51
270.007531
  0
LINE
  8
0
 10
19.138677
 11
20.089551
 20
33.741943
 21
33.742117
  0
ARC
  8
0
 10
20.089701
 20
34.039996
 40
0.29788
 50
269.971243
 51
0.011935
  0
LINE
  8
0
 10
20.387581
 11
20.387495
 20
34.040058
 21
34.180459
  0
ARC
  8
0
 10
20.089657
 20
34.180525
 40
0.297837
 50
359.987453
 51
90.020522
  0
LINE
  8
0
 10
20.089551
 11
19.118405
 20
34.478362
 21
34.478576
  0
LINE
  8
0
 10
19.118405
 11
19.118405
 20
34.478576
 21
35.231106
  0
LINE
  8
0
 10
19.118405
 11
20.089551
 20
35.231106
 21
35.23132
  0
ARC
  8
0
 10
20.089725
 20
35.529176
 40
0.297856
 50
269.966587
 51
0.008585
  0
LINE
  8
0
 10
20.387581
 11
20.387495
 20
35.529221
 21
35.711623
  0
ARC
  8
0
 10
20.089705
 20
35.711755
 40
0.297789
 50
359.974489
 51
83.733224
  0
ARC
  8
0
 10
19.243192
 20
47.330539
 40
11.356843
 50
251.401382
 51
274.439131
  0
ARC
  8
0
 10
16.34941
 20
39.315191
 40
2.843263
 50
182.143284
 51
255.157699
  0
ARC
  8
0
 10
213.287619
 20
46.683215
 40
199.919253
 50
180.886512
 51
182.14261
  0
ARC
  8
0
 10
11.742979
 20
43.501024
 40
1.651719
 50
3.090608
 51
133.61249
  0
ARC
  8
0
 10
16.194184
 20
39.979896
 40
7.314651
 50
139.84398
 51
149.587448
  0
ARC
  8
0
 10
8.302646
 20
44.428929
 40
1.750382
 50
305.642894
 51
334.766949
  0
ARC
  8
0
 10
9.496229
 20
42.764447
 40
0.297822
 50
125.649913
 51
179.967893
  0
LINE
  8
0
 10
9.198407
 11
9.198535
 20
42.764614
 21
41.932562
  0
LINE
  8
0
 10
9.198535
 11
8.446004
 20
41.932562
 21
41.932562
  0
LINE
  8
0
 10
8.446004
 11
8.446218
 20
41.932562
 21
42.627609
  0
ARC
  8
0
 10
8.148368
 20
42.627491
 40
0.29785
 50
0.022638
 51
89.976756
  0
LINE
  8
0
 10
8.148489
 11
7.453216
 20
42.925342
 21
42.925146
  0
LINE
  8
0
 10
7.453216
 11
7.453216
 20
42.925146
 21
43.677674
  0
LINE
  8
0
 10
7.453216
 11
8.148532
 20
43.677674
 21
43.677476
  0
ARC
  8
0
 10
8.148425
 20
43.975268
 40
0.297793
 50
270.020541
 51
359.988899
  0
LINE
  8
0
 10
8.446218
 11
8.446176
 20
43.975211
 21
44.16662
  0
ARC
  8
0
 10
8.148351
 20
44.166526
 40
0.297824
 50
0.018076
 51
89.932357
  0
LINE
  8
0
 10
8.148703
 11
6.901001
 20
44.46435
 21
44.464947
  0
ARC
  8
0
 10
6.751094
 20
42.371705
 40
2.098603
 50
85.903777
 51
109.493567
  0
ARC
  8
0
 10
4.692245
 20
46.391311
 40
2.452047
 50
277.753693
 51
303.644928
  0
ARC
  8
0
 10
4.873841
 20
45.700943
 40
1.74565
 50
224.896083
 51
274.903736
  0
LINE
  8
0
 10
3.637243
 11
2.700346
 20
44.468823
 21
45.262253
  0
ARC
  8
0
 10
2.414178
 20
44.438893
 40
0.871673
 50
70.834521
 51
132.363914
  0
ARC
  8
0
 10
3.290392
 20
43.478095
 40
2.172013
 50
132.363802
 51
161.134342
  0
ARC
  8
0
 10
8.412046
 20
41.727817
 40
7.584482
 50
161.133105
 51
174.74376
  0
ARC
  8
0
 10
20.029108
 20
40.578347
 40
19.258164
 50
174.504569
 51
218.24076
  0
ARC
  8
0
 10
2.6772
 20
26.750788
 40
2.931584
 50
30.663561
 51
40.58933
  0
ARC
  8
0
 10
4.755544
 20
27.983043
 40
0.515396
 50
336.548368
 51
30.662484
  0
LINE
  8
0
 10
5.228367
 11
5.023081
 20
27.777928
 21
27.319141
  0
ARC
  8
0
 10
5.986318
 20
27.137182
 40
0.980273
 50
169.302699
 51
232.331543
  0
ARC
  8
0
 10
5.989081
 20
27.140776
 40
0.984806
 50
232.332099
 51
290.531268
  0
ARC
  8
0
 10
5.957987
 20
27.223877
 40
1.073534
 50
290.529838
 51
315.678525
  0
ARC
  8
0
 10
5.673523
 20
27.466946
 40
1.44709
 50
316.662541
 51
340.219516
  0
ARC
  8
0
 10
4.556219
 20
28.127521
 40
2.732887
 50
335.10804
 51
25.666094
  0
ARC
  8
0
 10
5.015267
 20
28.265751
 40
2.260479
 50
27.548036
 51
53.513942
  0
ARC
  8
0
 10
9.132236
 20
33.012359
 40
4.033442
 50
211.933314
 51
226.570693
  0
ARC
  8
0
 10
7.22524
 20
31.967593
 40
1.866425
 50
132.519222
 51
215.681636
  0
ARC
  8
0
 10
7.771756
 20
31.139119
 40
2.85074
 50
72.955219
 51
129.36006
  0
ARC
  8
0
 10
8.701754
 20
33.938885
 40
0.12009
 50
218.185972
 51
347.021812
  0
ARC
  8
0
 10
8.403143
 20
34.039934
 40
0.434903
 50
342.880814
 51
27.304114
  0
ARC
  8
0
 10
8.355594
 20
33.98229
 40
0.504454
 50
30.646352
 51
79.675466
  0
LINE
  8
0
 10
8.446004
 11
7.453216
 20
34.478576
 21
34.478576
  0
LINE
  8
0
 10
7.453216
 11
7.453216
 20
34.478576
 21
35.231106
  0
LINE
  8
0
 10
7.453216
 11
10.399524
 20
35.231106
 21
35.23359
  0
ARC
  8
0
 10
8.841779
 20
23.437563
 40
11.898438
 50
73.746846
 51
82.477235
  0
ARC
  8
0
 10
18.311634
 20
55.921576
 40
21.937775
 50
253.747626
 51
257.854011
  0
ARC
  8
0
 10
18.643285
 20
50.668127
 40
16.932163
 50
253.010805
 51
271.607943
  0
ARC
  8
0
 10
37.108265
 20
6.085299
 40
2.870215
 50
150.619762
 51
174.308023
  0
ARC
  8
0
 10
35.714191
 20
6.851493
 40
1.279649
 50
127.058413
 51
149.890406
  0
ARC
  8
0
 10
35.411521
 20
7.242557
 40
0.785195
 50
100.908944
 51
126.630044
  0
ARC
  8
0
 10
35.384689
 20
7.282963
 40
0.740678
 50
66.628093
 51
99.462186
  0
ARC
  8
0
 10
35.2225
 20
6.926378
 40
1.132369
 50
46.988361
 51
66.252425
  0
ARC
  8
0
 10
34.530632
 20
6.231044
 40
2.113
 50
26.331121
 51
46.131883
  0
ARC
  8
0
 10
32.51297
 20
5.318821
 40
4.326636
 50
347.272961
 51
25.306438
  0
ARC
  8
0
 10
34.462334
 20
4.864665
 40
2.325153
 50
325.152585
 51
347.606601
  0
ARC
  8
0
 10
35.466503
 20
4.180126
 40
1.109979
 50
301.532663
 51
324.533689
  0
ARC
  8
0
 10
35.668398
 20
3.860486
 40
0.731965
 50
272.696539
 51
301.147774
  0
ARC
  8
0
 10
35.681363
 20
3.88878
 40
0.759752
 50
246.816406
 51
271.619415
  0
ARC
  8
0
 10
35.838293
 20
4.226889
 40
1.132393
 50
226.988485
 51
246.252151
  0
ARC
  8
0
 10
36.530151
 20
4.9222
 40
2.112999
 50
206.331024
 51
226.13175
  0
ARC
  8
0
 10
38.550241
 20
5.838861
 40
4.330729
 50
172.95568
 51
205.345722
  0
ARC
  8
0
 10
46.389176
 20
8.132853
 40
5.446939
 50
156.925605
 51
175.823175
  0
ARC
  8
0
 10
43.131689
 20
9.505121
 40
1.912287
 50
135.124782
 51
156.499777
  0
ARC
  8
0
 10
42.372549
 20
10.25587
 40
0.844631
 50
104.842769
 51
134.880009
  0
ARC
  8
0
 10
42.301075
 20
10.393528
 40
0.694082
 50
59.879143
 51
102.049405
  0
ARC
  8
0
 10
41.954333
 20
9.80478
 40
1.377342
 50
38.988454
 51
59.693153
  0
ARC
  8
0
 10
40.37465
 20
8.585096
 40
3.372879
 50
20.46944
 51
38.209526
  0
ARC
  8
0
 10
35.462365
 20
6.898687
 40
8.565858
 50
350.118944
 51
19.546756
  0
ARC
  8
0
 10
39.736477
 20
6.111981
 40
4.220351
 50
332.226654
 51
350.683512
  0
ARC
  8
0
 10
42.10945
 20
4.872447
 40
1.543184
 50
309.291184
 51
331.89212
  0
ARC
  8
0
 10
42.624789
 20
4.246817
 40
0.732645
 50
274.183957
 51
309.083718
  0
ARC
  8
0
 10
42.65559
 20
4.238308
 40
0.722539
 50
240.318924
 51
271.7966
  0
ARC
  8
0
 10
42.992882
 20
4.79971
 40
1.377382
 50
218.988734
 51
239.692979
  0
ARC
  8
0
 10
44.572546
 20
6.019356
 40
3.372881
 50
200.469339
 51
218.209349
  0
ARC
  8
0
 10
49.4476
 20
7.705728
 40
8.530771
 50
174.458071
 51
199.630147
  0
ARC
  8
0
 10
39.565123
 20
31.022202
 40
6.854628
 50
233.988753
 51
275.466977
  0
ARC
  8
0
 10
40.27907
 20
23.875505
 40
0.328935
 50
261.295151
 51
81.295151
  0
ARC
  8
0
 10
40.27907
 20
23.875505
 40
0.328935
 50
81.295151
 51
100.668286
  0
ARC
  8
0
 10
40.233683
 20
51.210009
 40
27.65965
 50
259.464182
 51
269.990897
  0
ARC
  8
0
 10
35.188167
 20
24.788201
 40
0.771616
 50
63.290363
 51
243.290363
  0
ARC
  8
0
 10
35.188167
 20
24.788201
 40
0.771616
 50
243.290363
 51
269.104767
  0
ARC
  8
0
 10
40.16088
 20
-4.680098
 40
26.90316
 50
89.872187
 51
100.637819
  0
ARC
  8
0
 10
40.223397
 20
21.895826
 40
0.327179
 50
269.562016
 51
89.562016
  0
ARC
  8
0
 10
40.223397
 20
21.895826
 40
0.327179
 50
89.562016
 51
90.438107
  0
ARC
  8
0
 10
39.55631
 20
14.771231
 40
6.829837
 50
84.415931
 51
125.457647
  0
ARC
  8
0
 10
35.216949
 20
20.99782
 40
0.763205
 50
91.681503
 51
271.681503
  0
ARC
  8
0
 10
35.216949
 20
20.99782
 40
0.763205
 50
271.681503
 51
299.633423
  0
ARC
  8
0
 10
40.054346
 20
54.337168
 40
31.158766
 50
260.354276
 51
271.640019
  0
ARC
  8
0
 10
40.941128
 20
22.887057
 40
0.30415
 50
270.953157
 51
89.062501
  0
ARC
  8
0
 10
40.060702
 20
-8.632707
 40
31.228213
 50
88.375143
 51
99.633302
  0
ARC
  8
0
 10
34.6222
 20
22.886828
 40
0.761967
 50
73.898621
 51
253.898621
  0
ARC
  8
0
 10
34.6222
 20
22.886828
 40
0.761967
 50
253.898621
 51
286.210541
  0
ARC
  8
0
 10
33.05673
 20
24.921627
 40
0.623581
 50
101.03033
 51
142.643579
  0
ARC
  8
0
 10
33.029432
 20
25.060851
 40
0.481706
 50
34.967076
 51
101.011791
  0
ARC
  8
0
 10
32.960583
 20
25.012574
 40
0.565794
 50
332.44709
 51
34.977653
  0
ARC
  8
0
 10
36.743458
 20
22.887187
 40
3.773575
 50
150.404507
 51
209.46089
  0
ARC
  8
0
 10
32.960665
 20
20.761351
 40
0.565701
 50
325.021591
 51
28.494476
  0
ARC
  8
0
 10
33.029431
 20
20.713121
 40
0.481707
 50
258.988368
 51
325.033082
  0
ARC
  8
0
 10
33.056468
 20
20.852319
 40
0.623506
 50
215.550943
 51
258.992851
  0
ARC
  8
0
 10
35.804324
 20
22.886875
 40
4.042515
 50
143.349228
 51
216.367859
  0
ARC
  8
0
 10
50.898955
 20
25.394161
 40
4.93845
 50
178.637989
 51
200.894009
  0
LINE
  8
0
 10
45.9619
 11
46.142186
 20
25.511545
 21
27.277108
  0
ARC
  8
0
 10
45.845873
 20
27.30764
 40
0.297882
 50
354.116958
 51
90.025146
  0
LINE
  8
0
 10
45.845742
 11
45.114465
 20
27.605522
 21
27.605718
  0
LINE
  8
0
 10
45.114465
 11
45.114465
 20
27.605718
 21
28.356262
  0
LINE
  8
0
 10
45.114465
 11
45.950584
 20
28.356262
 21
28.356458
  0
ARC
  8
0
 10
45.950778
 20
28.654198
 40
0.29774
 50
269.962719
 51
333.545729
  0
LINE
  8
0
 10
46.217342
 11
46.269858
 20
28.52156
 21
28.626197
  0
ARC
  8
0
 10
45.498757
 20
29.091252
 40
0.900485
 50
328.905615
 51
26.404469
  0
ARC
  8
0
 10
45.213911
 20
28.949748
 40
1.218543
 50
26.407738
 51
73.293998
  0
ARC
  8
0
 10
45.279335
 20
29.167805
 40
0.990883
 50
73.292818
 51
153.57016
  0
LINE
  8
0
 10
44.392019
 11
43.367367
 20
29.608848
 21
27.517759
  0
ARC
  8
0
 10
38.145633
 20
30.040314
 40
5.79912
 50
314.188563
 51
334.21539
  0
ARC
  8
0
 10
40.668709
 20
27.444665
 40
2.179272
 50
270.359821
 51
314.189954
  0
LINE
  8
0
 10
40.682395
 11
37.272394
 20
25.265437
 21
26.312822
  0
ARC
  8
0
 10
38.575335
 20
35.448415
 40
9.22804
 50
254.265115
 51
261.883073
  0
ARC
  8
0
 10
36.618146
 20
28.502461
 40
2.011609
 50
238.091693
 51
254.270756
  0
ARC
  8
0
 10
36.730246
 20
28.682164
 40
2.22341
 50
225.353988
 51
238.087119
  0
ARC
  8
0
 10
38.995094
 20
30.976203
 40
5.447096
 50
221.625519
 51
225.361613
  0
LINE
  8
0
 10
34.923377
 11
34.792728
 20
27.35792
 21
27.50525
  0
ARC
  8
0
 10
34.56976
 20
27.307771
 40
0.297847
 50
41.53082
 51
90.040151
  0
LINE
  8
0
 10
34.569551
 11
33.449301
 20
27.605618
 21
27.605718
  0
LINE
  8
0
 10
33.449301
 11
33.449301
 20
27.605718
 21
28.356262
  0
LINE
  8
0
 10
33.449301
 11
34.345976
 20
28.356262
 21
28.356458
  0
ARC
  8
0
 10
34.346094
 20
28.654282
 40
0.297824
 50
269.977382
 51
9.945253
  0
ARC
  8
0
 10
33.181113
 20
28.450234
 40
1.48054
 50
9.93678
 51
76.622541
  0
ARC
  8
0
 10
33.203119
 20
28.542837
 40
1.385358
 50
76.62186
 51
147.182879
  0
ARC
  8
0
 10
32.932234
 20
28.717543
 40
1.063021
 50
147.183718
 51
174.641873
  0
ARC
  8
0
 10
46.46043
 20
27.448228
 40
14.650635
 50
174.639932
 51
180.109744
  0
ARC
  8
0
 10
27.181499
 20
27.411563
 40
4.62833
 50
345.655454
 51
0.106504
  0
ARC
  8
0
 10
28.891146
 20
27.021448
 40
2.875695
 50
330.881123
 51
344.746547
  0
ARC
  8
0
 10
22.077705
 20
30.727109
 40
10.631546
 50
327.093452
 51
331.302936
  0
ARC
  8
0
 10
38.932234
 20
19.605662
 40
9.562462
 50
146.011693
 51
153.244276
  0
ARC
  8
0
 10
32.996867
 20
22.599119
 40
2.914953
 50
153.262576
 51
167.992412
  0
ARC
  8
0
 10
31.802171
 20
22.868878
 40
1.690346
 50
168.51139
 51
192.570886
  0
ARC
  8
0
 10
33.007844
 20
23.165907
 40
2.931892
 50
193.10824
 51
207.714468
  0
ARC
  8
0
 10
37.665621
 20
25.569976
 40
8.173449
 50
207.44874
 51
213.046851
  0
ARC
  8
0
 10
21.178689
 20
14.547807
 40
11.659613
 50
28.446235
 51
34.26723
  0
ARC
  8
0
 10
29.100706
 20
18.835251
 40
2.651813
 50
13.345909
 51
28.526766
  0
ARC
  8
0
 10
27.181467
 20
18.362561
 40
4.628363
 50
359.890366
 51
13.555216
  0
ARC
  8
0
 10
46.46043
 20
18.325632
 40
14.650635
 50
179.890213
 51
185.360031
  0
ARC
  8
0
 10
32.932026
 20
17.05638
 40
1.06282
 50
185.36206
 51
212.820118
  0
ARC
  8
0
 10
33.203189
 20
17.231086
 40
1.385391
 50
212.813785
 51
283.374782
  0
ARC
  8
0
 10
33.181037
 20
17.323688
 40
1.480605
 50
283.379844
 51
350.065579
  0
ARC
  8
0
 10
34.346093
 20
17.119688
 40
0.297824
 50
350.054961
 51
90.022537
  0
LINE
  8
0
 10
34.345976
 11
33.449301
 20
17.417512
 21
17.417711
  0
LINE
  8
0
 10
33.449301
 11
33.449301
 20
17.417711
 21
18.168253
  0
LINE
  8
0
 10
33.449301
 11
34.569551
 20
18.168253
 21
18.168352
  0
ARC
  8
0
 10
34.569755
 20
18.466201
 40
0.297849
 50
269.960644
 51
318.470019
  0
LINE
  8
0
 10
34.792728
 11
34.923377
 20
18.268724
 21
18.415951
  0
ARC
  8
0
 10
38.996611
 20
14.797691
 40
5.448215
 50
134.649165
 51
138.385259
  0
ARC
  8
0
 10
36.729807
 20
17.091777
 40
2.223122
 50
121.904281
 51
134.63741
  0
ARC
  8
0
 10
36.618497
 20
17.271444
 40
2.011768
 50
105.738221
 51
121.917362
  0
ARC
  8
0
 10
38.574599
 20
10.325527
 40
9.227869
 50
98.112464
 51
105.730405
  0
LINE
  8
0
 10
37.272393
 11
40.682395
 20
19.461052
 21
20.508532
  0
ARC
  8
0
 10
40.668716
 20
18.329306
 40
2.179269
 50
45.810257
 51
89.640346
  0
ARC
  8
0
 10
38.145633
 20
15.733656
 40
5.799124
 50
25.784625
 51
45.811479
  0
LINE
  8
0
 10
43.36737
 11
44.392017
 20
18.256214
 21
16.165022
  0
ARC
  8
0
 10
45.279271
 20
16.606119
 40
0.990851
 50
206.434205
 51
286.711506
  0
ARC
  8
0
 10
45.213918
 20
16.824227
 40
1.218539
 50
286.705659
 51
333.592021
  0
ARC
  8
0
 10
45.498757
 20
16.682719
 40
0.900486
 50
333.595618
 51
31.094429
  0
LINE
  8
0
 10
46.269859
 11
46.217343
 20
17.147775
 21
17.252314
  0
ARC
  8
0
 10
45.950699
 20
17.119723
 40
0.297792
 50
26.439327
 51
90.022338
  0
LINE
  8
0
 10
45.950583
 11
45.114465
 20
17.417514
 21
17.417711
  0
LINE
  8
0
 10
45.114465
 11
45.114465
 20
17.417711
 21
18.168253
  0
LINE
  8
0
 10
45.114465
 11
45.845743
 20
18.168253
 21
18.168452
  0
ARC
  8
0
 10
45.845921
 20
18.466282
 40
0.29783
 50
269.965842
 51
5.874238
  0
LINE
  8
0
 10
46.142187
 11
45.961901
 20
18.496763
 21
20.262424
  0
ARC
  8
0
 10
50.899071
 20
20.379889
 40
4.938567
 50
159.064364
 51
181.362924
  0
ARC
  8
0
 10
43.892946
 20
22.886653
 40
2.505995
 50
342.774229
 51
17.324858
  0
ARC
  8
0
 10
38.173949
 20
22.194221
 40
11.898456
 50
253.746879
 51
262.477261
  0
ARC
  8
0
 10
28.704114
 20
-10.289816
 40
21.937774
 50
73.747676
 51
77.854058
  0
ARC
  8
0
 10
28.372429
 20
-5.036358
 40
16.932162
 50
73.010748
 51
91.60791
  0
ARC
  8
0
 10
27.877106
 20
11.592002
 40
0.297821
 50
86.108482
 51
90.011084
  0
LINE
  8
0
 10
27.877048
 11
26.926173
 20
11.889823
 21
11.88965
  0
ARC
  8
0
 10
26.926023
 20
11.591771
 40
0.29788
 50
89.971026
 51
180.012353
  0
LINE
  8
0
 10
26.628143
 11
26.628231
 20
11.591706
 21
11.451306
  0
ARC
  8
0
 10
26.926066
 20
11.451241
 40
0.297835
 50
179.987458
 51
270.020732
  0
LINE
  8
0
 10
26.926174
 11
27.897319
 20
11.153406
 21
11.153192
  0
LINE
  8
0
 10
27.897319
 11
27.897319
 20
11.153192
 21
10.400661
  0
LINE
  8
0
 10
27.897319
 11
26.926174
 20
10.400661
 21
10.400447
  0
ARC
  8
0
 10
26.926001
 20
10.102589
 40
0.297858
 50
89.966788
 51
180.008167
  0
LINE
  8
0
 10
26.628143
 11
26.628231
 20
10.102546
 21
9.920145
  0
ARC
  8
0
 10
26.926022
 20
9.920014
 40
0.29779
 50
179.974687
 51
263.733271
  0
ARC
  8
0
 10
27.772531
 20
-1.698773
 40
11.356845
 50
71.401381
 51
94.43911
  0
ARC
  8
0
 10
30.666324
 20
6.316574
 40
2.843263
 50
2.143224
 51
75.157896
  0
ARC
  8
0
 10
-166.272004
 20
-1.051057
 40
199.919358
 50
0.886399
 51
2.142495
  0
ARC
  8
0
 10
35.272746
 20
2.130743
 40
1.651719
 50
183.090649
 51
313.612419
  0
ARC
  8
0
 10
30.821532
 20
5.651869
 40
7.314657
 50
319.844017
 51
329.587496
  0
ARC
  8
0
 10
38.71308
 20
1.202837
 40
1.750384
 50
125.642904
 51
154.766921
  0
ARC
  8
0
 10
37.519498
 20
2.867323
 40
0.297822
 50
305.649188
 51
359.967114
  0
LINE
  8
0
 10
37.81732
 11
37.81719
 20
2.867152
 21
3.699204
  0
LINE
  8
0
 10
37.81719
 11
38.569721
 20
3.699204
 21
3.699204
  0
LINE
  8
0
 10
38.569721
 11
38.569507
 20
3.699204
 21
3.004158
  0
ARC
  8
0
 10
38.867357
 20
3.004274
 40
0.29785
 50
180.022445
 51
269.976756
  0
LINE
  8
0
 10
38.867236
 11
39.562509
 20
2.706424
 21
2.706621
  0
LINE
  8
0
 10
39.562509
 11
39.562509
 20
2.706621
 21
1.954095
  0
LINE
  8
0
 10
39.562509
 11
38.867192
 20
1.954095
 21
1.954292
  0
ARC
  8
0
 10
38.867301
 20
1.656498
 40
0.297794
 50
90.020846
 51
179.988481
  0
LINE
  8
0
 10
38.569507
 11
38.569552
 20
1.656558
 21
1.465149
  0
ARC
  8
0
 10
38.867376
 20
1.465239
 40
0.297824
 50
180.017195
 51
269.931938
  0
LINE
  8
0
 10
38.867022
 11
40.114725
 20
1.167415
 21
1.16682
  0
ARC
  8
0
 10
40.264623
 20
3.260062
 40
2.098603
 50
265.904023
 51
289.493757
  0
ARC
  8
0
 10
42.32348
 20
-0.759547
 40
2.452052
 50
97.753616
 51
123.644882
  0
ARC
  8
0
 10
42.141884
 20
-0.06917
 40
1.745647
 50
44.895979
 51
94.903664
  0
LINE
  8
0
 10
43.378482
 11
44.31538
 20
1.162945
 21
0.369516
  0
ARC
  8
0
 10
44.601551
 20
1.192875
 40
0.871673
 50
250.834288
 51
312.363954
  0
ARC
  8
0
 10
43.725343
 20
2.153668
 40
2.172005
 50
312.363777
 51
341.134331
  0
ARC
  8
0
 10
38.603672
 20
3.903928
 40
7.584484
 50
341.133275
 51
354.743974
  0
ARC
  8
0
 10
26.986617
 20
5.053422
 40
19.258162
 50
354.504579
 51
38.240756
  0
ARC
  8
0
 10
44.338514
 20
18.880974
 40
2.931574
 50
210.66361
 51
220.589398
  0
ARC
  8
0
 10
42.260183
 20
17.648722
 40
0.515399
 50
156.548193
 51
210.662239
  0
LINE
  8
0
 10
41.787359
 11
41.992644
 20
17.853839
 21
18.312626
  0
ARC
  8
0
 10
41.029408
 20
18.494585
 40
0.980272
 50
349.302702
 51
52.331516
  0
ARC
  8
0
 10
41.026644
 20
18.490989
 40
0.984807
 50
52.332032
 51
110.531201
  0
ARC
  8
0
 10
41.057734
 20
18.40789
 40
1.073533
 50
110.529658
 51
135.678332
  0
ARC
  8
0
 10
41.342203
 20
18.164827
 40
1.447088
 50
136.662726
 51
160.21977
  0
ARC
  8
0
 10
42.459509
 20
17.504242
 40
2.73289
 50
155.107996
 51
205.66603
  0
ARC
  8
0
 10
42.000457
 20
17.366017
 40
2.260482
 50
207.5481
 51
233.513985
  0
ARC
  8
0
 10
37.883499
 20
12.619405
 40
4.033436
 50
31.933436
 51
46.570817
  0
ARC
  8
0
 10
39.790486
 20
13.664175
 40
1.866425
 50
312.519158
 51
35.681644
  0
ARC
  8
0
 10
39.243968
 20
14.492646
 40
2.85074
 50
252.955237
 51
309.360081
  0
ARC
  8
0
 10
38.313971
 20
11.692883
 40
0.120088
 50
38.184841
 51
167.022862
  0
ARC
  8
0
 10
38.612584
 20
11.591829
 40
0.434904
 50
162.880411
 51
207.303659
  0
ARC
  8
0
 10
38.660128
 20
11.649478
 40
0.504454
 50
210.646783
 51
259.675806
  0
LINE
  8
0
 10
38.569721
 11
39.562509
 20
11.153192
 21
11.153192
  0
LINE
  8
0
 10
39.562509
 11
39.562509
 20
11.153192
 21
10.400661
  0
LINE
  8
0
 10
39.562509
 11
36.616207
 20
10.400661
 21
10.398175
  0
ARC
  8
0
 10
34.530625
 20
39.400718
 40
2.113005
 50
313.868286
 51
333.66909
  0
ARC
  8
0
 10
35.222509
 20
38.705389
 40
1.132367
 50
293.747108
 51
313.011173
  0
ARC
  8
0
 10
35.384687
 20
38.348802
 40
0.740678
 50
260.538036
 51
293.37207
  0
ARC
  8
0
 10
35.411522
 20
38.389208
 40
0.785196
 50
233.369921
 51
259.091067
  0
ARC
  8
0
 10
35.71419
 20
38.780271
 40
1.279648
 50
210.109604
 51
232.941592
  0
ARC
  8
0
 10
37.108268
 20
39.546465
 40
2.870217
 50
185.691963
 51
209.380205
  0
ARC
  8
0
 10
38.550241
 20
39.792905
 40
4.330729
 50
154.654292
 51
187.04434
  0
ARC
  8
0
 10
36.53015
 20
40.709565
 40
2.112999
 50
133.868269
 51
153.668978
  0
ARC
  8
0
 10
35.838292
 20
41.404876
 40
1.132392
 50
113.747853
 51
133.011528
  0
ARC
  8
0
 10
35.681361
 20
41.742985
 40
0.759751
 50
88.380478
 51
113.183532
  0
ARC
  8
0
 10
35.668401
 20
41.771277
 40
0.731965
 50
58.852558
 51
87.303802
  0
ARC
  8
0
 10
35.466499
 20
41.451642
 40
1.109979
 50
35.46613
 51
58.467139
  0
ARC
  8
0
 10
34.462337
 20
40.767098
 40
2.32515
 50
12.393474
 51
34.8475
  0
ARC
  8
0
 10
32.51297
 20
40.312944
 40
4.326636
 50
334.693583
 51
12.727052
  0
ARC
  8
0
 10
40.374654
 20
37.04667
 40
3.372875
 50
321.790461
 51
339.530532
  0
ARC
  8
0
 10
41.954331
 20
35.826988
 40
1.377344
 50
300.306926
 51
321.011627
  0
ARC
  8
0
 10
42.301076
 20
35.238239
 40
0.694082
 50
257.950511
 51
300.120788
  0
ARC
  8
0
 10
42.372547
 20
35.375898
 40
0.844631
 50
225.120124
 51
255.157333
  0
ARC
  8
0
 10
43.131689
 20
36.126646
 40
1.912287
 50
203.500223
 51
224.87522
  0
ARC
  8
0
 10
46.389181
 20
37.498913
 40
5.446944
 50
184.176826
 51
203.074373
  0
ARC
  8
0
 10
49.4476
 20
37.926043
 40
8.530771
 50
160.369882
 51
185.54196
  0
ARC
  8
0
 10
44.572544
 20
39.612406
 40
3.372882
 50
141.790571
 51
159.530586
  0
ARC
  8
0
 10
42.992887
 20
40.832059
 40
1.377384
 50
120.307257
 51
141.011477
  0
ARC
  8
0
 10
42.655586
 20
41.393458
 40
0.722539
 50
88.203149
 51
119.680839
  0
ARC
  8
0
 10
42.624791
 20
41.38495
 40
0.732644
 50
50.916439
 51
85.816177
  0
ARC
  8
0
 10
42.109449
 20
40.759319
 40
1.543185
 50
28.107838
 51
50.708825
  0
ARC
  8
0
 10
39.736473
 20
39.519785
 40
4.220354
 50
9.31651
 51
27.77333
  0
ARC
  8
0
 10
35.462363
 20
38.733079
 40
8.56586
 50
340.453245
 51
9.881064
  0
ARC
  8
0
 10
38.603676
 20
41.727843
 40
7.584478
 50
5.25603
 51
18.866689
  0
ARC
  8
0
 10
43.725337
 20
43.478093
 40
2.172013
 50
18.865689
 51
47.636267
  0
ARC
  8
0
 10
44.601547
 20
44.438893
 40
0.871675
 50
47.635992
 51
109.165411
  0
LINE
  8
0
 10
44.315379
 11
43.378482
 20
45.262255
 21
44.468823
  0
ARC
  8
0
 10
42.141886
 20
45.700938
 40
1.745645
 50
265.096331
 51
315.10398
  0
ARC
  8
0
 10
42.323477
 20
46.391316
 40
2.452051
 50
236.355182
 51
262.246513
  0
ARC
  8
0
 10
40.264631
 20
42.371705
 40
2.098602
 50
70.506462
 51
94.096214
  0
LINE
  8
0
 10
40.114724
 11
38.867022
 20
44.464946
 21
44.46435
  0
ARC
  8
0
 10
38.867376
 20
44.166526
 40
0.297824
 50
90.068062
 51
179.982157
  0
LINE
  8
0
 10
38.569552
 11
38.569507
 20
44.166619
 21
43.975211
  0
ARC
  8
0
 10
38.867299
 20
43.975268
 40
0.297793
 50
180.011101
 51
269.978883
  0
LINE
  8
0
 10
38.86719
 11
39.562509
 20
43.677476
 21
43.677674
  0
LINE
  8
0
 10
39.562509
 11
39.562509
 20
43.677674
 21
42.925146
  0
LINE
  8
0
 10
39.562509
 11
38.867236
 20
42.925146
 21
42.925342
  0
ARC
  8
0
 10
38.867357
 20
42.627491
 40
0.29785
 50
90.023244
 51
179.977269
  0
LINE
  8
0
 10
38.569507
 11
38.569721
 20
42.62761
 21
41.932562
  0
LINE
  8
0
 10
38.569721
 11
37.81719
 20
41.932562
 21
41.932562
  0
LINE
  8
0
 10
37.81719
 11
37.81732
 20
41.932562
 21
42.764614
  0
ARC
  8
0
 10
37.519498
 20
42.764444
 40
0.297822
 50
0.032677
 51
54.350772
  0
ARC
  8
0
 10
38.71308
 20
44.428927
 40
1.750382
 50
205.23299
 51
234.357037
  0
ARC
  8
0
 10
30.821545
 20
39.979895
 40
7.314648
 50
30.412571
 51
40.156058
  0
ARC
  8
0
 10
35.272746
 20
43.501025
 40
1.651718
 50
46.387541
 51
176.90938
  0
ARC
  8
0
 10
-166.27189
 20
46.683372
 40
199.919253
 50
357.857348
 51
359.113443
  0
ARC
  8
0
 10
30.666313
 20
39.315191
 40
2.843263
 50
284.842304
 51
357.856914
  0
ARC
  8
0
 10
27.772528
 20
47.330539
 40
11.356844
 50
265.560888
 51
288.59863
  0
ARC
  8
0
 10
26.926022
 20
35.711754
 40
0.29779
 50
96.267401
 51
180.025468
  0
LINE
  8
0
 10
26.628231
 11
26.628143
 20
35.711621
 21
35.529221
  0
ARC
  8
0
 10
26.926002
 20
35.529178
 40
0.297859
 50
179.991834
 51
270.033482
  0
LINE
  8
0
 10
26.926176
 11
27.897319
 20
35.231319
 21
35.231106
  0
LINE
  8
0
 10
27.897319
 11
27.897319
 20
35.231106
 21
34.478576
  0
LINE
  8
0
 10
27.897319
 11
26.926174
 20
34.478576
 21
34.478362
  0
ARC
  8
0
 10
26.92607
 20
34.180525
 40
0.297837
 50
89.979896
 51
180.012837
  0
LINE
  8
0
 10
26.628232
 11
26.628143
 20
34.180458
 21
34.040058
  0
ARC
  8
0
 10
26.926023
 20
34.039996
 40
0.29788
 50
179.988065
 51
270.029089
  0
LINE
  8
0
 10
26.926174
 11
27.877048
 20
33.742117
 21
33.741943
  0
ARC
  8
0
 10
27.877087
 20
34.039765
 40
0.297822
 50
269.992468
 51
273.895027
  0
ARC
  8
0
 10
28.372439
 20
50.668127
 40
16.932163
 50
268.392053
 51
286.989226
  0
ARC
  8
0
 10
28.704088
 20
55.921576
 40
21.937775
 50
282.146019
 51
286.252402
  0
ARC
  8
0
 10
38.173943
 20
23.437544
 40
11.898456
 50
97.522732
 51
106.253074
  0
LINE
  8
0
 10
36.616203
 11
39.562509
 20
35.23359
 21
35.231106
  0
LINE
  8
0
 10
39.562509
 11
39.562509
 20
35.231106
 21
34.478576
  0
LINE
  8
0
 10
39.562509
 11
38.569721
 20
34.478576
 21
34.478576
  0
ARC
  8
0
 10
38.660131
 20
33.982289
 40
0.504455
 50
100.324452
 51
149.353563
  0
ARC
  8
0
 10
38.612581
 20
34.039935
 40
0.434902
 50
152.696028
 51
197.119403
  0
ARC
  8
0
 10
38.313971
 20
33.938884
 40
0.12009
 50
192.97758
 51
321.815313
  0
ARC
  8
0
 10
39.243968
 20
31.139119
 40
2.85074
 50
50.639937
 51
107.044714
  0
ARC
  8
0
 10
39.790485
 20
31.967591
 40
1.866425
 50
324.318382
 51
47.480845
  0
ARC
  8
0
 10
37.883491
 20
33.012362
 40
4.033443
 50
313.429256
 51
328.066625
  0
ARC
  8
0
 10
42.000458
 20
28.26575
 40
2.26048
 50
126.486043
 51
152.45195
  0
ARC
  8
0
 10
42.459507
 20
28.127524
 40
2.732887
 50
154.333981
 51
204.891997
  0
ARC
  8
0
 10
41.342206
 20
27.466939
 40
1.447089
 50
199.780129
 51
223.337182
  0
ARC
  8
0
 10
41.057733
 20
27.223878
 40
1.073533
 50
224.32175
 51
249.470409
  0
ARC
  8
0
 10
41.026645
 20
27.140777
 40
0.984806
 50
249.468713
 51
307.667899
  0
ARC
  8
0
 10
41.029408
 20
27.137183
 40
0.980273
 50
307.668433
 51
10.697259
  0
LINE
  8
0
 10
41.992645
 11
41.787359
 20
27.319141
 21
27.777928
  0
ARC
  8
0
 10
42.260183
 20
27.983044
 40
0.515398
 50
149.337643
 51
203.451719
  0
ARC
  8
0
 10
44.338524
 20
26.750792
 40
2.931582
 50
139.41071
 51
149.336472
  0
ARC
  8
0
 10
26.986614
 20
40.578344
 40
19.258164
 50
321.759252
 51
5.495436
  0
LINE
  8
0
 10
0.000004
 11
0.000004
 20
0.000004
 21
48.000002
  0
LINE
  8
0
 10
0.000004
 11
48.000002
 20
48.000002
 21
48.000002
  0
LINE
  8
0
 10
48.000002
 11
48.000002
 20
48.000002
 21
0.000004
  0
LINE
  8
0
 10
48.000002
 11
0.000004
 20
0.000004
 21
0.000004
  0
LINE
  8
0
 10
3.396388
 11
2.645847
 20
20.650203
 21
20.650203
  0
LINE
  8
0
 10
2.645847
 11
2.645847
 20
20.650203
 21
25.117713
  0
LINE
  8
0
 10
2.645847
 11
3.396388
 20
25.117713
 21
25.117713
  0
LINE
  8
0
 10
3.396388
 11
3.396388
 20
25.117713
 21
20.650203
  0
LINE
  8
0
 10
14.45983
 11
14.46654
 20
20.480736
 21
20.489797
  0
LINE
  8
0
 10
22.080771
 11
22.080986
 20
24.173315
 21
24.924732
  0
LINE
  8
0
 10
22.080986
 11
24.562456
 20
24.924732
 21
24.924186
  0
LINE
  8
0
 10
24.562456
 11
24.562291
 20
24.924186
 21
24.173694
  0
LINE
  8
0
 10
24.562291
 11
22.080771
 20
24.173694
 21
24.173315
  0
LINE
  8
0
 10
43.619336
 11
44.369878
 20
25.117713
 21
25.117713
  0
LINE
  8
0
 10
44.369878
 11
44.369878
 20
25.117713
 21
20.650203
  0
LINE
  8
0
 10
44.369878
 11
43.619336
 20
20.650203
 21
20.650203
  0
LINE
  8
0
 10
43.619336
 11
43.619336
 20
20.650203
 21
25.117713
  0
LINE
  8
0
 10
32.555895
 11
32.549183
 20
20.480736
 21
20.489797
  0
LINE
  8
0
 10
24.697424
 11
24.697212
 20
35.949741
 21
35.198323
  0
LINE
  8
0
 10
24.697212
 11
22.215741
 20
35.198323
 21
35.198869
  0
LINE
  8
0
 10
22.215741
 11
22.215903
 20
35.198869
 21
35.949361
  0
LINE
  8
0
 10
22.215903
 11
24.697424
 20
35.949361
 21
35.949741
  0
ARC
  8
0
 10
7.935708
 20
32.092776
 40
0.198555
 50
89.999372
 51
180.020096
  0
LINE
  8
0
 10
7.737153
 11
7.737792
 20
32.092707
 21
30.306267
  0
LINE
  8
0
 10
7.737792
 11
8.730086
 20
30.306267
 21
30.3051
  0
LINE
  8
0
 10
8.730086
 11
8.730036
 20
30.3051
 21
28.458709
  0
ARC
  8
0
 10
8.928592
 20
28.458703
 40
0.198556
 50
179.998429
 51
269.898438
  0
LINE
  8
0
 10
8.92824
 11
10.516226
 20
28.260148
 21
28.257332
  0
ARC
  8
0
 10
10.516578
 20
28.455886
 40
0.198555
 50
269.898468
 51
359.998047
  0
LINE
  8
0
 10
10.715133
 11
10.7152
 20
28.455879
 21
30.307537
  0
LINE
  8
0
 10
10.7152
 11
11.707634
 20
30.307537
 21
30.306371
  0
LINE
  8
0
 10
11.707634
 11
11.708146
 20
30.306371
 21
32.092719
  0
ARC
  8
0
 10
11.50959
 20
32.092776
 40
0.198556
 50
359.983352
 51
89.999765
  0
LINE
  8
0
 10
11.50959
 11
7.93571
 20
32.291332
 21
32.291331
  0
ARC
  8
0
 10
35.221227
 20
32.279664
 40
0.198555
 50
89.999372
 51
180.020096
  0
LINE
  8
0
 10
35.022672
 11
35.023311
 20
32.279594
 21
30.493154
  0
LINE
  8
0
 10
35.023311
 11
36.015605
 20
30.493154
 21
30.491987
  0
LINE
  8
0
 10
36.015605
 11
36.015555
 20
30.491987
 21
28.645596
  0
ARC
  8
0
 10
36.214111
 20
28.64559
 40
0.198556
 50
179.998429
 51
269.898438
  0
LINE
  8
0
 10
36.213759
 11
37.801745
 20
28.447035
 21
28.444219
  0
ARC
  8
0
 10
37.802097
 20
28.642773
 40
0.198555
 50
269.898468
 51
359.998047
  0
LINE
  8
0
 10
38.000652
 11
38.000719
 20
28.642766
 21
30.494424
  0
LINE
  8
0
 10
38.000719
 11
38.993153
 20
30.494424
 21
30.493258
  0
LINE
  8
0
 10
38.993153
 11
38.993665
 20
30.493258
 21
32.279606
  0
ARC
  8
0
 10
38.795109
 20
32.279664
 40
0.198556
 50
359.983352
 51
89.999765
  0
LINE
  8
0
 10
38.79511
 11
35.22123
 20
32.47822
 21
32.478218
  0
ARC
  8
0
 10
60.485094
 20
6.231049
 40
2.112998
 50
133.868251
 51
153.669034
  0
ARC
  8
0
 10
59.793222
 20
6.92638
 40
1.132368
 50
113.747605
 51
133.011642
  0
ARC
  8
0
 10
59.631032
 20
7.282963
 40
0.740678
 50
80.537651
 51
113.371769
  0
ARC
  8
0
 10
59.604204
 20
7.242556
 40
0.785195
 50
53.37013
 51
79.091231
  0
ARC
  8
0
 10
59.301533
 20
6.851494
 40
1.279648
 50
30.10955
 51
52.941587
  0
ARC
  8
0
 10
57.907458
 20
6.085299
 40
2.870215
 50
5.691989
 51
29.380237
  0
ARC
  8
0
 10
56.465481
 20
5.83886
 40
4.33073
 50
334.654314
 51
7.044331
  0
ARC
  8
0
 10
58.485571
 20
4.922199
 40
2.113
 50
313.86836
 51
333.669077
  0
ARC
  8
0
 10
59.177432
 20
4.226894
 40
1.132396
 50
293.74764
 51
313.011349
  0
ARC
  8
0
 10
59.334359
 20
3.888777
 40
0.759749
 50
268.380818
 51
293.183791
  0
ARC
  8
0
 10
59.347326
 20
3.860489
 40
0.731968
 50
238.852371
 51
267.303619
  0
ARC
  8
0
 10
59.549224
 20
4.180121
 40
1.109977
 50
215.466052
 51
238.467096
  0
ARC
  8
0
 10
60.553386
 20
4.864674
 40
2.325154
 50
192.393673
 51
214.847665
  0
ARC
  8
0
 10
62.502753
 20
5.318815
 40
4.326637
 50
154.693496
 51
192.726985
  0
ARC
  8
0
 10
54.641073
 20
8.585099
 40
3.372879
 50
141.79055
 51
159.530609
  0
ARC
  8
0
 10
53.06139
 20
9.804783
 40
1.377342
 50
120.30701
 51
141.011742
  0
ARC
  8
0
 10
52.714643
 20
10.393526
 40
0.694084
 50
77.950274
 51
120.120567
  0
ARC
  8
0
 10
52.643175
 20
10.255869
 40
0.84463
 50
45.120147
 51
75.157325
  0
ARC
  8
0
 10
51.884032
 20
9.505119
 40
1.912289
 50
23.500283
 51
44.875249
  0
ARC
  8
0
 10
48.626543
 20
8.132858
 40
5.44694
 50
4.176779
 51
23.074339
  0
ARC
  8
0
 10
45.568123
 20
7.705727
 40
8.530768
 50
340.369868
 51
5.541944
  0
ARC
  8
0
 10
50.443173
 20
6.019359
 40
3.372883
 50
321.790652
 51
339.530667
  0
ARC
  8
0
 10
52.02284
 20
4.799703
 40
1.377377
 50
300.307185
 51
321.011511
  0
ARC
  8
0
 10
52.360132
 20
4.238308
 40
0.722539
 50
268.203353
 51
299.681095
  0
ARC
  8
0
 10
52.390933
 20
4.246819
 40
0.732648
 50
230.916245
 51
265.815948
  0
ARC
  8
0
 10
52.90627
 20
4.872448
 40
1.543184
 50
208.10794
 51
230.708838
  0
ARC
  8
0
 10
55.279243
 20
6.11198
 40
4.22035
 50
189.316523
 51
207.773352
  0
ARC
  8
0
 10
59.553356
 20
6.898685
 40
8.565858
 50
160.453227
 51
189.881064
  0
ARC
  8
0
 10
54.782046
 20
51.21002
 40
27.65966
 50
270.009094
 51
280.535828
  0
ARC
  8
0
 10
54.740285
 20
23.876043
 40
0.328937
 50
79.098688
 51
259.098688
  0
ARC
  8
0
 10
54.740285
 20
23.876043
 40
0.328937
 50
259.098688
 51
278.06541
  0
ARC
  8
0
 10
55.451527
 20
31.022876
 40
6.854628
 50
264.566777
 51
306.001661
  0
ARC
  8
0
 10
59.82756
 20
24.788203
 40
0.771616
 50
270.895835
 51
90.895835
  0
ARC
  8
0
 10
59.82756
 20
24.788203
 40
0.771616
 50
90.895835
 51
116.710023
  0
ARC
  8
0
 10
55.459413
 20
14.771235
 40
6.829834
 50
54.542351
 51
95.584068
  0
ARC
  8
0
 10
54.792183
 20
21.895827
 40
0.32718
 50
89.536581
 51
269.536581
  0
ARC
  8
0
 10
54.792183
 20
21.895827
 40
0.32718
 50
269.536581
 51
270.463341
  0
ARC
  8
0
 10
54.854834
 20
-4.680089
 40
26.903153
 50
79.362154
 51
90.127793
  0
ARC
  8
0
 10
59.798774
 20
20.99782
 40
0.763204
 50
240.366488
 51
60.366488
  0
ARC
  8
0
 10
59.798774
 20
20.99782
 40
0.763204
 50
60.366488
 51
88.318296
  0
ARC
  8
0
 10
54.955026
 20
-8.632697
 40
31.228202
 50
80.366707
 51
91.62487
  0
ARC
  8
0
 10
54.074527
 20
22.887056
 40
0.304149
 50
90.924883
 51
269.059254
  0
ARC
  8
0
 10
54.961369
 20
54.33717
 40
31.158768
 50
268.359994
 51
279.645745
  0
ARC
  8
0
 10
60.393519
 20
22.886828
 40
0.761966
 50
253.789649
 51
73.789649
  0
ARC
  8
0
 10
60.393519
 20
22.886828
 40
0.761966
 50
73.789649
 51
106.10073
  0
ARC
  8
0
 10
61.959123
 20
20.852294
 40
0.623507
 50
281.019501
 51
323.421936
  0
ARC
  8
0
 10
61.986292
 20
20.713122
 40
0.481707
 50
214.967043
 51
281.011595
  0
ARC
  8
0
 10
62.054964
 20
20.761487
 40
0.565701
 50
150.586184
 51
214.995246
  0
ARC
  8
0
 10
58.272139
 20
22.887407
 40
3.773574
 50
330.676033
 51
29.59164
  0
ARC
  8
0
 10
62.055139
 20
25.012573
 40
0.565794
 50
145.02221
 51
207.552929
  0
ARC
  8
0
 10
61.98629
 20
25.060851
 40
0.481706
 50
78.988249
 51
145.032866
  0
ARC
  8
0
 10
61.958994
 20
24.921627
 40
0.62358
 50
37.356357
 51
78.969785
  0
ARC
  8
0
 10
59.21139
 20
22.886888
 40
4.042514
 50
323.472255
 51
36.650541
  0
ARC
  8
0
 10
62.018856
 20
22.59911
 40
2.914956
 50
12.007759
 51
26.737573
  0
ARC
  8
0
 10
56.083487
 20
19.605666
 40
9.562461
 50
26.755694
 51
33.988274
  0
ARC
  8
0
 10
72.93801
 20
30.727104
 40
10.631538
 50
208.697066
 51
212.906553
  0
ARC
  8
0
 10
66.124575
 20
27.021446
 40
2.875693
 50
195.253453
 51
209.118871
  0
ARC
  8
0
 10
67.834226
 20
27.411563
 40
4.628332
 50
179.893449
 51
194.344562
  0
ARC
  8
0
 10
48.555292
 20
27.448251
 40
14.650636
 50
359.890182
 51
5.359978
  0
ARC
  8
0
 10
62.083491
 20
28.717542
 40
1.063021
 50
5.358222
 51
32.816344
  0
ARC
  8
0
 10
61.812605
 20
28.542833
 40
1.38536
 50
32.817217
 51
103.378126
  0
ARC
  8
0
 10
61.834608
 20
28.450234
 40
1.480537
 50
103.377351
 51
170.063166
  0
ARC
  8
0
 10
60.669629
 20
28.654282
 40
0.297824
 50
170.054607
 51
270.022409
  0
LINE
  8
0
 10
60.669746
 11
61.566423
 20
28.356458
 21
28.356262
  0
LINE
  8
0
 10
61.566423
 11
61.566423
 20
28.356262
 21
27.605718
  0
LINE
  8
0
 10
61.566423
 11
60.446172
 20
27.605718
 21
27.605619
  0
ARC
  8
0
 10
60.445964
 20
27.307771
 40
0.297848
 50
89.960011
 51
138.469366
  0
LINE
  8
0
 10
60.222995
 11
60.092345
 20
27.50525
 21
27.35792
  0
ARC
  8
0
 10
56.020625
 20
30.976181
 40
5.447083
 50
314.6386
 51
318.374673
  0
ARC
  8
0
 10
58.285482
 20
28.682167
 40
2.223409
 50
301.912752
 51
314.645921
  0
ARC
  8
0
 10
58.397573
 20
28.502465
 40
2.011614
 50
285.729217
 51
301.908376
  0
ARC
  8
0
 10
56.440387
 20
35.44841
 40
9.228034
 50
278.116934
 51
285.734872
  0
LINE
  8
0
 10
57.743329
 11
54.333328
 20
26.312822
 21
25.265438
  0
ARC
  8
0
 10
54.347012
 20
27.444669
 40
2.179274
 50
225.810174
 51
269.640222
  0
ARC
  8
0
 10
56.87009
 20
30.04031
 40
5.799118
 50
205.78458
 51
225.81143
  0
LINE
  8
0
 10
51.648356
 11
50.623707
 20
27.517759
 21
29.60885
  0
ARC
  8
0
 10
49.736393
 20
29.167804
 40
0.990883
 50
26.430019
 51
106.70729
  0
ARC
  8
0
 10
49.801809
 20
28.949745
 40
1.218543
 50
106.705732
 51
153.592094
  0
ARC
  8
0
 10
49.516965
 20
29.091252
 40
0.900485
 50
153.595512
 51
211.094385
  0
LINE
  8
0
 10
48.745863
 11
48.798382
 20
28.626197
 21
28.521559
  0
ARC
  8
0
 10
49.064946
 20
28.654199
 40
0.297741
 50
206.454611
 51
270.037595
  0
LINE
  8
0
 10
49.065141
 11
49.90126
 20
28.356458
 21
28.356262
  0
LINE
  8
0
 10
49.90126
 11
49.90126
 20
28.356262
 21
27.605718
  0
LINE
  8
0
 10
49.90126
 11
49.169978
 20
27.605718
 21
27.60552
  0
ARC
  8
0
 10
49.169845
 20
27.30764
 40
0.29788
 50
89.974514
 51
185.883086
  0
LINE
  8
0
 10
48.873535
 11
49.053823
 20
27.277108
 21
25.511548
  0
ARC
  8
0
 10
44.116768
 20
25.394163
 40
4.938451
 50
339.105986
 51
1.362029
  0
ARC
  8
0
 10
51.122777
 20
22.886648
 40
2.505996
 50
162.675014
 51
197.225607
  0
ARC
  8
0
 10
44.116651
 20
20.379877
 40
4.938571
 50
358.637215
 51
20.935788
  0
LINE
  8
0
 10
49.053824
 11
48.873534
 20
20.262424
 21
18.496764
  0
ARC
  8
0
 10
49.169801
 20
18.466283
 40
0.297831
 50
174.125725
 51
270.034367
  0
LINE
  8
0
 10
49.16998
 11
49.90126
 20
18.168452
 21
18.168253
  0
LINE
  8
0
 10
49.90126
 11
49.90126
 20
18.168253
 21
17.417711
  0
LINE
  8
0
 10
49.90126
 11
49.065141
 20
17.417711
 21
17.417513
  0
ARC
  8
0
 10
49.065025
 20
17.119723
 40
0.29779
 50
89.977569
 51
153.560569
  0
LINE
  8
0
 10
48.798382
 11
48.745863
 20
17.252314
 21
17.147775
  0
ARC
  8
0
 10
49.516966
 20
16.68272
 40
0.900486
 50
148.905654
 51
206.404512
  0
ARC
  8
0
 10
49.801806
 20
16.824228
 40
1.21854
 50
206.408041
 51
253.294361
  0
ARC
  8
0
 10
49.736452
 20
16.606118
 40
0.99085
 50
253.288519
 51
333.565845
  0
LINE
  8
0
 10
50.623705
 11
51.648354
 20
16.165022
 21
18.256214
  0
ARC
  8
0
 10
56.870088
 20
15.733657
 40
5.79912
 50
134.188518
 51
154.21536
  0
ARC
  8
0
 10
54.347009
 20
18.329305
 40
2.179271
 50
90.359712
 51
134.189793
  0
LINE
  8
0
 10
54.333328
 11
57.743329
 20
20.508532
 21
19.461051
  0
ARC
  8
0
 10
56.441135
 20
10.32552
 40
9.227873
 50
74.269667
 51
81.88761
  0
ARC
  8
0
 10
58.397224
 20
17.271452
 40
2.011762
 50
58.082499
 51
74.261655
  0
ARC
  8
0
 10
58.285918
 20
17.091764
 40
2.22313
 50
45.362839
 51
58.095972
  0
ARC
  8
0
 10
56.019109
 20
14.797716
 40
5.448201
 50
41.614521
 51
45.350613
  0
LINE
  8
0
 10
60.092346
 11
60.222994
 20
18.415951
 21
18.268723
  0
ARC
  8
0
 10
60.445966
 20
18.466201
 40
0.297849
 50
221.530179
 51
270.039565
  0
LINE
  8
0
 10
60.446172
 11
61.566423
 20
18.168352
 21
18.168253
  0
LINE
  8
0
 10
61.566423
 11
61.566423
 20
18.168253
 21
17.417711
  0
LINE
  8
0
 10
61.566423
 11
60.669746
 20
17.417711
 21
17.417513
  0
ARC
  8
0
 10
60.669629
 20
17.11969
 40
0.297823
 50
89.977488
 51
189.945614
  0
ARC
  8
0
 10
61.834685
 20
17.323685
 40
1.480604
 50
189.934357
 51
256.620128
  0
ARC
  8
0
 10
61.812533
 20
17.231088
 40
1.385394
 50
256.625223
 51
327.186146
  0
ARC
  8
0
 10
62.083696
 20
17.056375
 40
1.06282
 50
327.180181
 51
354.638455
  0
ARC
  8
0
 10
48.555291
 20
18.325638
 40
14.650636
 50
354.639963
 51
0.109763
  0
ARC
  8
0
 10
67.834256
 20
18.362556
 40
4.628364
 50
166.444717
 51
180.109573
  0
ARC
  8
0
 10
65.915019
 20
18.835251
 40
2.651814
 50
151.473207
 51
166.654085
  0
ARC
  8
0
 10
73.837034
 20
14.547835
 40
11.659599
 50
145.732872
 51
151.55388
  0
ARC
  8
0
 10
57.350097
 20
25.569974
 40
8.17345
 50
326.953197
 51
332.551295
  0
ARC
  8
0
 10
62.007878
 20
23.165909
 40
2.931891
 50
332.285517
 51
346.891708
  0
ARC
  8
0
 10
63.213552
 20
22.868885
 40
1.690345
 50
347.428879
 51
11.488405
  0
ARC
  8
0
 10
64.349407
 20
6.316577
 40
2.843262
 50
104.842286
 51
177.85669
  0
ARC
  8
0
 10
67.24319
 20
-1.698773
 40
11.356844
 50
85.560884
 51
108.598614
  0
ARC
  8
0
 10
68.089702
 20
9.920013
 40
0.29779
 50
276.266348
 51
0.025556
  0
LINE
  8
0
 10
68.387493
 11
68.387579
 20
9.920146
 21
10.102546
  0
ARC
  8
0
 10
68.089722
 20
10.10259
 40
0.297857
 50
359.991624
 51
90.033341
  0
LINE
  8
0
 10
68.089548
 11
67.118403
 20
10.400447
 21
10.400661
  0
LINE
  8
0
 10
67.118403
 11
67.118403
 20
10.400661
 21
11.153192
  0
LINE
  8
0
 10
67.118403
 11
68.089549
 20
11.153192
 21
11.153406
  0
ARC
  8
0
 10
68.089656
 20
11.451242
 40
0.297836
 50
269.979268
 51
0.012326
  0
LINE
  8
0
 10
68.387493
 11
68.387579
 20
11.451306
 21
11.591706
  0
ARC
  8
0
 10
68.089699
 20
11.591771
 40
0.29788
 50
359.987647
 51
90.028814
  0
LINE
  8
0
 10
68.089549
 11
67.138675
 20
11.88965
 21
11.889823
  0
ARC
  8
0
 10
67.138616
 20
11.591983
 40
0.297841
 50
89.988708
 51
93.891259
  0
ARC
  8
0
 10
66.643294
 20
-5.036358
 40
16.932162
 50
88.392094
 51
106.98926
  0
ARC
  8
0
 10
66.311603
 20
-10.289818
 40
21.937774
 50
102.14593
 51
106.252309
  0
ARC
  8
0
 10
56.841782
 20
22.194205
 40
11.898438
 50
277.522741
 51
286.253102
  0
LINE
  8
0
 10
58.399522
 11
55.453214
 20
10.398177
 21
10.400661
  0
LINE
  8
0
 10
55.453214
 11
55.453214
 20
10.400661
 21
11.153192
  0
LINE
  8
0
 10
55.453214
 11
56.446002
 20
11.153192
 21
11.153192
  0
ARC
  8
0
 10
56.355594
 20
11.649477
 40
0.504453
 50
280.324218
 51
329.353341
  0
ARC
  8
0
 10
56.40314
 20
11.591832
 40
0.434904
 50
332.695977
 51
17.119336
  0
ARC
  8
0
 10
56.701753
 20
11.692883
 40
0.120089
 50
12.977769
 51
141.81544
  0
ARC
  8
0
 10
55.771755
 20
14.492646
 40
2.85074
 50
230.6399
 51
287.044749
  0
ARC
  8
0
 10
55.225238
 20
13.664174
 40
1.866425
 50
144.318342
 51
227.48077
  0
ARC
  8
0
 10
57.132227
 20
12.619411
 40
4.033434
 50
133.429286
 51
148.066658
  0
ARC
  8
0
 10
53.015265
 20
17.366016
 40
2.26048
 50
306.486017
 51
332.451941
  0
ARC
  8
0
 10
52.556214
 20
17.504245
 40
2.73289
 50
334.333929
 51
24.891982
  0
ARC
  8
0
 10
53.673519
 20
18.164822
 40
1.447091
 50
19.78046
 51
43.337426
  0
ARC
  8
0
 10
53.957988
 20
18.407889
 40
1.073533
 50
44.321675
 51
69.470358
  0
ARC
  8
0
 10
53.989079
 20
18.49099
 40
0.984806
 50
69.4688
 51
127.667949
  0
ARC
  8
0
 10
53.986314
 20
18.494584
 40
0.980272
 50
127.668371
 51
190.697255
  0
LINE
  8
0
 10
53.023077
 11
53.228365
 20
18.312626
 21
17.853839
  0
ARC
  8
0
 10
52.75554
 20
17.648723
 40
0.515399
 50
329.337655
 51
23.451678
  0
ARC
  8
0
 10
50.677211
 20
18.880984
 40
2.931578
 50
319.410431
 51
329.336199
  0
ARC
  8
0
 10
68.029106
 20
5.053423
 40
19.258163
 50
141.759244
 51
185.49544
  0
ARC
  8
0
 10
56.41205
 20
3.903943
 40
7.584486
 50
185.256179
 51
198.866838
  0
ARC
  8
0
 10
51.29038
 20
2.153671
 40
2.172004
 50
198.86575
 51
227.636328
  0
ARC
  8
0
 10
50.414175
 20
1.192875
 40
0.871672
 50
227.636058
 51
289.165558
  0
LINE
  8
0
 10
50.700344
 11
51.637241
 20
0.369516
 21
1.162945
  0
ARC
  8
0
 10
52.87384
 20
-0.069172
 40
1.745649
 50
85.096322
 51
135.104019
  0
ARC
  8
0
 10
52.692243
 20
-0.759542
 40
2.452048
 50
56.355044
 51
82.246317
  0
ARC
  8
0
 10
54.7511
 20
3.260063
 40
2.098604
 50
250.506256
 51
274.096008
  0
LINE
  8
0
 10
54.900999
 11
56.148701
 20
1.16682
 21
1.167415
  0
ARC
  8
0
 10
56.148347
 20
1.465241
 40
0.297826
 50
270.068061
 51
359.982309
  0
LINE
  8
0
 10
56.446174
 11
56.446216
 20
1.465149
 21
1.656558
  0
ARC
  8
0
 10
56.148422
 20
1.656498
 40
0.297794
 50
0.011519
 51
89.979386
  0
LINE
  8
0
 10
56.148529
 11
55.453214
 20
1.954292
 21
1.954095
  0
LINE
  8
0
 10
55.453214
 11
55.453214
 20
1.954095
 21
2.706621
  0
LINE
  8
0
 10
55.453214
 11
56.148487
 20
2.706621
 21
2.706424
  0
ARC
  8
0
 10
56.148366
 20
3.004275
 40
0.297851
 50
270.023244
 51
359.977391
  0
LINE
  8
0
 10
56.446217
 11
56.446002
 20
3.004158
 21
3.699204
  0
LINE
  8
0
 10
56.446002
 11
57.198533
 20
3.699204
 21
3.699204
  0
LINE
  8
0
 10
57.198533
 11
57.198405
 20
3.699204
 21
2.867152
  0
ARC
  8
0
 10
57.496224
 20
2.867321
 40
0.29782
 50
180.032467
 51
234.350597
  0
ARC
  8
0
 10
56.302642
 20
1.202842
 40
1.750382
 50
25.232944
 51
54.35697
  0
ARC
  8
0
 10
64.194189
 20
5.651876
 40
7.31466
 50
210.412558
 51
220.156042
  0
ARC
  8
0
 10
59.742977
 20
2.130742
 40
1.651719
 50
226.387585
 51
356.909375
  0
ARC
  8
0
 10
261.287701
 20
-1.051451
 40
199.919337
 50
177.857389
 51
179.113488
  0
ARC
  8
0
 10
65.280062
 20
30.909158
 40
0.198555
 50
89.999372
 51
180.020096
  0
LINE
  8
0
 10
65.081507
 11
65.082146
 20
30.909088
 21
29.122648
  0
LINE
  8
0
 10
65.082146
 11
66.07444
 20
29.122648
 21
29.121481
  0
LINE
  8
0
 10
66.07444
 11
66.074389
 20
29.121481
 21
27.27509
  0
ARC
  8
0
 10
66.272945
 20
27.275085
 40
0.198556
 50
179.998429
 51
269.898438
  0
LINE
  8
0
 10
66.272593
 11
67.86058
 20
27.076529
 21
27.073713
  0
ARC
  8
0
 10
67.860932
 20
27.272268
 40
0.198555
 50
269.898468
 51
359.998047
  0
LINE
  8
0
 10
68.059487
 11
68.059554
 20
27.272261
 21
29.123919
  0
LINE
  8
0
 10
68.059554
 11
69.051988
 20
29.123919
 21
29.122753
  0
LINE
  8
0
 10
69.051988
 11
69.0525
 20
29.122753
 21
30.9091
  0
ARC
  8
0
 10
68.853944
 20
30.909158
 40
0.198556
 50
359.983352
 51
89.999765
  0
LINE
  8
0
 10
68.853944
 11
65.280064
 20
31.107714
 21
31.107713
  0
LINE
  8
0
 10
76.172166
 11
76.172166
 20
42.154359
 21
43.643527
  0
LINE
  8
0
 10
76.172166
 11
76.922708
 20
43.643527
 21
43.643527
  0
LINE
  8
0
 10
76.922708
 11
76.922708
 20
43.643527
 21
42.154359
  0
ARC
  8
0
 10
78.526972
 20
42.115896
 40
1.604725
 50
178.626571
 51
196.772483
  0
ARC
  8
0
 10
78.099351
 20
42.057947
 40
1.180529
 50
200.070528
 51
233.536622
  0
ARC
  8
0
 10
77.878328
 20
41.86721
 40
0.898086
 50
237.64858
 51
249.779288
  0
ARC
  8
0
 10
77.747819
 20
41.512633
 40
0.520254
 50
249.769359
 51
326.838779
  0
ARC
  8
0
 10
70.841088
 20
46.025825
 40
8.77082
 50
326.837532
 51
332.143386
  0
ARC
  8
0
 10
75.522697
 20
43.551377
 40
3.475505
 50
332.14632
 51
343.43525
  0
ARC
  8
0
 10
75.119809
 20
43.703733
 40
3.905234
 50
342.977927
 51
27.900016
  0
ARC
  8
0
 10
76.978067
 20
44.671719
 40
1.810074
 50
28.345146
 51
74.372808
  0
ARC
  8
0
 10
76.336647
 20
42.378217
 40
4.19158
 50
74.374266
 51
93.402453
  0
ARC
  8
0
 10
74.3728
 20
75.410798
 40
28.899326
 50
270.824275
 51
273.402317
  0
ARC
  8
0
 10
74.726272
 20
50.833497
 40
4.319484
 50
250.30808
 51
270.82598
  0
ARC
  8
0
 10
70.421725
 20
38.807186
 40
8.453976
 50
70.305417
 51
77.293995
  0
ARC
  8
0
 10
71.478277
 20
44.76311
 40
2.42764
 50
70.687052
 51
107.243647
  0
ARC
  8
0
 10
72.490869
 20
38.80695
 40
8.454053
 50
101.823614
 51
109.691299
  0
ARC
  8
0
 10
68.186748
 20
50.833502
 40
4.31949
 50
269.174211
 51
289.691947
  0
ARC
  8
0
 10
68.5402
 20
75.412974
 40
28.901503
 50
266.597796
 51
269.175857
  0
ARC
  8
0
 10
66.576328
 20
42.378508
 40
4.191287
 50
86.597963
 51
105.626171
  0
ARC
  8
0
 10
65.934906
 20
44.671604
 40
1.810171
 50
105.624687
 51
151.652365
  0
ARC
  8
0
 10
67.648368
 20
43.74739
 40
3.756995
 50
151.65543
 51
175.086074
  0
ARC
  8
0
 10
67.809216
 20
43.710291
 40
3.920498
 50
174.74724
 51
207.046783
  0
ARC
  8
0
 10
72.071954
 20
46.025833
 40
8.770838
 50
207.856586
 51
213.162452
  0
ARC
  8
0
 10
65.165205
 20
41.512634
 40
0.520254
 50
213.161496
 51
290.230636
  0
ARC
  8
0
 10
65.0347
 20
41.867212
 40
0.898086
 50
290.220445
 51
302.351106
  0
ARC
  8
0
 10
64.813647
 20
42.057807
 40
1.180431
 50
306.468449
 51
328.724336
  0
ARC
  8
0
 10
64.562922
 20
42.117226
 40
1.427776
 50
331.911471
 51
1.490171
  0
LINE
  8
0
 10
65.990216
 11
65.990216
 20
42.154356
 21
43.643527
  0
LINE
  8
0
 10
65.990216
 11
66.740758
 20
43.643527
 21
43.643527
  0
LINE
  8
0
 10
66.740758
 11
66.741353
 20
43.643527
 21
37.290699
  0
ARC
  8
0
 10
67.337002
 20
37.290186
 40
0.595649
 50
179.950684
 51
270.030396
  0
LINE
  8
0
 10
67.337318
 11
69.470903
 20
36.694537
 21
36.694069
  0
LINE
  8
0
 10
69.470903
 11
69.471399
 20
36.694069
 21
35.304925
  0
ARC
  8
0
 10
70.067057
 20
35.304677
 40
0.595658
 50
179.976126
 51
270.038976
  0
LINE
  8
0
 10
70.067463
 11
72.845461
 20
34.709018
 21
34.709092
  0
ARC
  8
0
 10
72.845947
 20
35.30477
 40
0.595678
 50
269.953197
 51
0.021794
  0
LINE
  8
0
 10
73.441625
 11
73.442022
 20
35.304997
 21
36.694069
  0
LINE
  8
0
 10
73.442022
 11
75.575705
 20
36.694069
 21
36.694535
  0
ARC
  8
0
 10
75.576018
 20
37.290186
 40
0.595652
 50
269.969843
 51
0.046754
  0
LINE
  8
0
 10
76.17167
 11
76.172166
 20
37.290672
 21
42.154359
  0
ARC
  8
0
 10
75.441192
 20
22.832778
 40
0.595652
 50
359.950684
 51
90.030388
  0
LINE
  8
0
 10
75.440876
 11
73.307295
 20
23.42843
 21
23.428898
  0
LINE
  8
0
 10
73.307295
 11
73.306799
 20
23.428898
 21
24.818042
  0
ARC
  8
0
 10
72.71114
 20
24.818288
 40
0.595659
 50
359.976336
 51
90.039325
  0
LINE
  8
0
 10
72.710731
 11
69.932737
 20
25.413947
 21
25.413874
  0
ARC
  8
0
 10
69.932252
 20
24.818197
 40
0.595678
 50
89.953301
 51
180.0219
  0
LINE
  8
0
 10
69.336574
 11
69.336175
 20
24.817969
 21
23.428898
  0
LINE
  8
0
 10
69.336175
 11
67.202493
 20
23.428898
 21
23.42843
  0
ARC
  8
0
 10
67.202177
 20
22.83278
 40
0.595649
 50
89.969529
 51
180.046517
  0
LINE
  8
0
 10
66.606527
 11
66.606031
 20
22.832297
 21
17.968608
  0
LINE
  8
0
 10
66.606031
 11
66.606031
 20
17.968608
 21
16.479438
  0
LINE
  8
0
 10
66.606031
 11
65.855489
 20
16.479438
 21
16.479438
  0
LINE
  8
0
 10
65.855489
 11
65.855489
 20
16.479438
 21
17.968608
  0
ARC
  8
0
 10
64.251225
 20
18.00707
 40
1.604725
 50
358.626607
 51
16.772551
  0
ARC
  8
0
 10
64.678852
 20
18.065017
 40
1.180524
 50
20.070802
 51
53.536825
  0
ARC
  8
0
 10
64.899872
 20
18.255754
 40
0.898084
 50
57.648768
 51
69.779523
  0
ARC
  8
0
 10
65.030376
 20
18.610332
 40
0.520253
 50
69.769276
 51
146.838422
  0
ARC
  8
0
 10
71.937094
 20
14.097129
 40
8.770813
 50
146.837411
 51
152.143262
  0
ARC
  8
0
 10
67.255503
 20
16.571597
 40
3.475505
 50
152.146424
 51
163.435391
  0
ARC
  8
0
 10
67.658389
 20
16.419231
 40
3.905235
 50
162.977913
 51
207.900006
  0
ARC
  8
0
 10
65.800127
 20
15.451247
 40
1.810072
 50
208.345243
 51
254.372904
  0
ARC
  8
0
 10
66.441562
 20
17.744757
 40
4.19159
 50
254.374134
 51
273.402335
  0
ARC
  8
0
 10
68.405501
 20
-15.287801
 40
28.8993
 50
90.824463
 51
93.402519
  0
ARC
  8
0
 10
68.051919
 20
9.289467
 40
4.319489
 50
70.308008
 51
90.825777
  0
ARC
  8
0
 10
72.356447
 20
21.315779
 40
8.453966
 50
250.305573
 51
257.294187
  0
ARC
  8
0
 10
71.299927
 20
15.359857
 40
2.427639
 50
250.687028
 51
287.243571
  0
ARC
  8
0
 10
70.287341
 20
21.316005
 40
8.454039
 50
281.823564
 51
289.691261
  0
ARC
  8
0
 10
74.591456
 20
9.28947
 40
4.319485
 50
89.174301
 51
109.692022
  0
ARC
  8
0
 10
74.237902
 20
-15.290039
 40
28.901537
 50
86.597607
 51
89.175669
  0
ARC
  8
0
 10
76.20186
 20
17.74446
 40
4.19129
 50
266.598119
 51
285.626316
  0
ARC
  8
0
 10
76.843296
 20
15.451364
 40
1.810171
 50
285.62458
 51
331.652247
  0
ARC
  8
0
 10
75.129828
 20
16.375577
 40
3.757
 50
331.655429
 51
355.086015
  0
ARC
  8
0
 10
74.968978
 20
16.41267
 40
3.920505
 50
354.74728
 51
27.046865
  0
ARC
  8
0
 10
70.70627
 20
14.097124
 40
8.770821
 50
27.856743
 51
33.162598
  0
ARC
  8
0
 10
77.612994
 20
18.610334
 40
0.520252
 50
33.16136
 51
110.230635
  0
ARC
  8
0
 10
77.743503
 20
18.255765
 40
0.898076
 50
110.22095
 51
122.351767
  0
ARC
  8
0
 10
77.964544
 20
18.065153
 40
1.180428
 50
126.467991
 51
148.723846
  0
ARC
  8
0
 10
78.215281
 20
18.005738
 40
1.427783
 50
151.911458
 51
181.490146
  0
LINE
  8
0
 10
76.787981
 11
76.787981
 20
17.968608
 21
16.479438
  0
LINE
  8
0
 10
76.787981
 11
76.03744
 20
16.479438
 21
16.479438
  0
LINE
  8
0
 10
76.03744
 11
76.036843
 20
16.479438
 21
22.832265
  0
ARC
  8
0
 10
74.003318
 20
30.941123
 40
0.198555
 50
90.0
 51
180.020477
  0
LINE
  8
0
 10
73.804763
 11
73.805401
 20
30.941052
 21
29.154613
  0
LINE
  8
0
 10
73.805401
 11
74.797694
 20
29.154613
 21
29.153446
  0
LINE
  8
0
 10
74.797694
 11
74.797644
 20
29.153446
 21
27.307053
  0
ARC
  8
0
 10
74.996199
 20
27.307048
 40
0.198555
 50
179.998429
 51
269.898438
  0
LINE
  8
0
 10
74.995847
 11
76.583836
 20
27.108493
 21
27.105678
  0
ARC
  8
0
 10
76.584189
 20
27.304233
 40
0.198555
 50
269.898102
 51
359.99765
  0
LINE
  8
0
 10
76.782744
 11
76.782809
 20
27.304224
 21
29.155885
  0
LINE
  8
0
 10
76.782809
 11
77.775244
 20
29.155885
 21
29.154718
  0
LINE
  8
0
 10
77.775244
 11
77.775756
 20
29.154718
 21
30.941065
  0
ARC
  8
0
 10
77.577199
 20
30.941121
 40
0.198557
 50
359.98398
 51
90.000842
  0
LINE
  8
0
 10
77.577196
 11
74.003318
 20
31.139678
 21
31.139678
  0
ARC
  8
0
 10
65.726667
 20
3.185479
 40
0.80457
 50
91.313789
 51
155.831141
  0
ARC
  8
0
 10
67.35889
 20
2.452868
 40
2.593667
 50
155.828588
 51
179.053689
  0
ARC
  8
0
 10
66.846703
 20
2.46125
 40
2.081411
 50
179.051527
 51
205.642624
  0
ARC
  8
0
 10
65.660222
 20
1.891644
 40
0.765285
 50
205.638946
 51
280.898734
  0
ARC
  8
0
 10
65.679248
 20
1.792458
 40
0.664292
 50
280.904826
 51
316.34089
  0
LINE
  8
0
 10
66.159837
 11
66.351244
 20
1.333854
 21
1.495081
  0
ARC
  8
0
 10
66.159416
 20
1.723073
 40
0.297957
 50
310.07674
 51
0.047682
  0
LINE
  8
0
 10
66.457373
 11
66.457472
 20
1.723321
 21
3.245352
  0
LINE
  8
0
 10
66.457472
 11
67.208012
 20
3.245352
 21
3.245352
  0
LINE
  8
0
 10
67.208012
 11
67.208012
 20
3.245352
 21
1.678348
  0
ARC
  8
0
 10
67.583991
 20
1.68771
 40
0.376095
 50
181.426359
 51
231.83073
  0
ARC
  8
0
 10
67.591
 20
1.715666
 40
0.402578
 50
233.505527
 51
282.697133
  0
ARC
  8
0
 10
66.810235
 20
5.178644
 40
3.95248
 50
282.704657
 51
290.291492
  0
ARC
  8
0
 10
69.240714
 20
-1.395667
 40
3.056714
 50
91.004624
 51
110.285828
  0
ARC
  8
0
 10
69.239312
 20
-1.312104
 40
2.973139
 50
73.694051
 51
91.005844
  0
ARC
  8
0
 10
70.782532
 20
3.96237
 40
2.52246
 50
253.688362
 51
265.460077
  0
ARC
  8
0
 10
70.662349
 20
2.452055
 40
1.007371
 50
265.474782
 51
288.593674
  0
ARC
  8
0
 10
71.878824
 20
-1.277934
 40
2.916032
 50
98.419683
 51
107.879529
  0
ARC
  8
0
 10
71.93306
 20
-1.999009
 40
3.637647
 50
83.052804
 51
97.601703
  0
ARC
  8
0
 10
71.980972
 20
-1.289857
 40
2.928155
 50
72.144978
 51
82.305027
  0
ARC
  8
0
 10
73.200026
 20
2.452299
 40
1.007617
 50
251.408135
 51
274.527123
  0
ARC
  8
0
 10
73.079895
 20
3.962372
 40
2.522461
 50
274.539935
 51
286.311629
  0
ARC
  8
0
 10
74.623065
 20
-1.311778
 40
2.972812
 50
88.995015
 51
106.306804
  0
ARC
  8
0
 10
74.62161
 20
-1.395671
 40
3.056718
 50
69.714083
 51
88.995317
  0
ARC
  8
0
 10
77.052095
 20
5.178652
 40
3.952489
 50
249.708558
 51
257.295361
  0
ARC
  8
0
 10
76.2752
 20
1.690836
 40
0.379318
 50
255.907973
 51
358.11335
  0
LINE
  8
0
 10
76.654312
 11
76.654313
 20
1.678348
 21
3.245352
  0
LINE
  8
0
 10
76.654313
 11
77.404857
 20
3.245352
 21
3.245352
  0
LINE
  8
0
 10
77.404857
 11
77.405055
 20
3.245352
 21
1.723321
  0
ARC
  8
0
 10
77.702963
 20
1.722966
 40
0.297908
 50
179.931671
 51
229.902695
  0
LINE
  8
0
 10
77.511084
 11
77.702493
 20
1.49508
 21
1.333854
  0
ARC
  8
0
 10
78.18308
 20
1.792455
 40
0.664288
 50
223.658972
 51
259.094993
  0
ARC
  8
0
 10
78.202155
 20
1.891708
 40
0.765358
 50
259.098446
 51
334.358301
  0
ARC
  8
0
 10
77.015722
 20
2.461249
 40
2.081413
 50
334.357423
 51
0.948508
  0
ARC
  8
0
 10
76.503489
 20
2.452624
 40
2.593719
 50
0.951705
 51
24.176818
  0
ARC
  8
0
 10
78.135691
 20
3.185513
 40
0.804526
 50
24.16757
 51
88.193349
  0
LINE
  8
0
 10
78.161055
 11
65.70822
 20
3.98964
 21
3.989837
  0
ARC
  8
0
 10
65.639947
 20
6.964659
 40
0.804569
 50
91.313869
 51
155.83125
  0
ARC
  8
0
 10
67.272166
 20
6.232038
 40
2.593667
 50
155.828389
 51
179.053499
  0
ARC
  8
0
 10
66.759978
 20
6.240431
 40
2.08141
 50
179.05159
 51
205.642685
  0
ARC
  8
0
 10
65.573501
 20
5.670824
 40
0.765286
 50
205.638954
 51
280.898753
  0
ARC
  8
0
 10
65.592527
 20
5.571635
 40
0.66429
 50
280.904886
 51
316.340929
  0
LINE
  8
0
 10
66.073114
 11
66.264521
 20
5.113032
 21
5.27426
  0
ARC
  8
0
 10
66.072693
 20
5.502253
 40
0.297957
 50
310.076467
 51
0.047506
  0
LINE
  8
0
 10
66.37065
 11
66.370749
 20
5.5025
 21
7.024531
  0
LINE
  8
0
 10
66.370749
 11
67.121291
 20
7.024531
 21
7.024531
  0
LINE
  8
0
 10
67.121291
 11
67.121291
 20
7.024531
 21
5.457527
  0
ARC
  8
0
 10
67.497269
 20
5.46689
 40
0.376095
 50
181.426528
 51
231.830767
  0
ARC
  8
0
 10
67.50428
 20
5.494845
 40
0.402577
 50
233.505291
 51
282.696917
  0
ARC
  8
0
 10
66.723513
 20
8.957823
 40
3.95248
 50
282.704654
 51
290.291451
  0
ARC
  8
0
 10
69.153993
 20
2.383507
 40
3.056718
 50
91.004633
 51
110.285872
  0
ARC
  8
0
 10
69.152591
 20
2.467079
 40
2.973134
 50
73.694051
 51
91.005847
  0
ARC
  8
0
 10
70.695811
 20
7.741556
 40
2.522467
 50
253.688367
 51
265.460067
  0
ARC
  8
0
 10
70.57563
 20
6.231235
 40
1.007372
 50
265.474611
 51
288.59352
  0
ARC
  8
0
 10
71.792107
 20
2.501261
 40
2.916017
 50
98.419851
 51
107.8797
  0
ARC
  8
0
 10
71.846344
 20
1.78016
 40
3.637658
 50
83.052913
 51
97.601798
  0
ARC
  8
0
 10
71.894239
 20
2.489324
 40
2.928156
 50
72.144762
 51
82.304817
  0
ARC
  8
0
 10
73.113303
 20
6.231477
 40
1.007617
 50
251.408206
 51
274.527146
  0
ARC
  8
0
 10
72.993174
 20
7.741551
 40
2.522461
 50
274.539911
 51
286.311629
  0
ARC
  8
0
 10
74.536344
 20
2.467401
 40
2.972812
 50
88.995015
 51
106.306804
  0
ARC
  8
0
 10
74.534892
 20
2.383507
 40
3.056719
 50
69.714145
 51
88.995375
  0
ARC
  8
0
 10
76.965387
 20
8.957827
 40
3.952489
 50
249.70836
 51
257.295178
  0
ARC
  8
0
 10
76.188479
 20
5.470014
 40
0.379318
 50
255.908107
 51
358.113457
  0
LINE
  8
0
 10
76.567591
 11
76.567591
 20
5.457527
 21
7.024531
  0
LINE
  8
0
 10
76.567591
 11
77.318133
 20
7.024531
 21
7.024531
  0
LINE
  8
0
 10
77.318133
 11
77.318334
 20
7.024531
 21
5.502499
  0
ARC
  8
0
 10
77.61624
 20
5.502141
 40
0.297906
 50
179.931198
 51
229.902222
  0
LINE
  8
0
 10
77.42436
 11
77.615768
 20
5.274259
 21
5.113033
  0
ARC
  8
0
 10
78.096359
 20
5.571638
 40
0.664294
 50
223.65904
 51
259.095104
  0
ARC
  8
0
 10
78.115434
 20
5.670886
 40
0.765358
 50
259.098514
 51
334.358391
  0
ARC
  8
0
 10
76.929001
 20
6.240428
 40
2.081413
 50
334.357423
 51
0.948508
  0
ARC
  8
0
 10
76.416768
 20
6.2318
 40
2.593719
 50
0.951761
 51
24.176866
  0
ARC
  8
0
 10
78.048969
 20
6.964692
 40
0.804526
 50
24.167526
 51
88.193293
  0
LINE
  8
0
 10
78.074334
 11
65.621499
 20
7.768819
 21
7.769016
  0
ARC
  8
0
 10
60.553386
 20
40.76709
 40
2.325154
 50
145.152327
 51
167.60633
  0
ARC
  8
0
 10
59.549225
 20
41.451645
 40
1.109977
 50
121.53304
 51
144.534032
  0
ARC
  8
0
 10
59.347324
 20
41.771275
 40
0.731968
 50
92.696232
 51
121.14749
  0
ARC
  8
0
 10
59.334363
 20
41.742988
 40
0.759749
 50
66.816483
 51
91.619492
  0
ARC
  8
0
 10
59.177432
 20
41.404872
 40
1.132396
 50
46.988592
 51
66.252287
  0
ARC
  8
0
 10
58.485573
 20
40.709567
 40
2.112999
 50
26.330965
 51
46.131678
  0
ARC
  8
0
 10
56.465482
 20
39.792907
 40
4.330729
 50
352.955639
 51
25.345679
  0
ARC
  8
0
 10
57.907455
 20
39.546463
 40
2.870217
 50
330.619837
 51
354.308073
  0
ARC
  8
0
 10
59.301535
 20
38.780273
 40
1.279648
 50
307.058294
 51
329.89033
  0
ARC
  8
0
 10
59.6042
 20
38.389207
 40
0.785196
 50
280.909091
 51
306.63016
  0
ARC
  8
0
 10
59.631035
 20
38.348801
 40
0.740678
 50
246.628007
 51
279.462174
  0
ARC
  8
0
 10
59.793217
 20
38.705386
 40
1.132367
 50
226.988662
 51
246.252676
  0
ARC
  8
0
 10
60.485097
 20
39.400716
 40
2.113003
 50
206.330956
 51
226.131746
  0
ARC
  8
0
 10
62.502753
 20
40.312947
 40
4.326637
 50
167.272981
 51
205.306475
  0
ARC
  8
0
 10
55.279246
 20
39.519788
 40
4.220351
 50
152.226691
 51
170.683519
  0
ARC
  8
0
 10
52.906273
 20
40.759317
 40
1.543186
 50
129.291177
 51
151.892117
  0
ARC
  8
0
 10
52.390931
 20
41.384947
 40
0.732647
 50
94.18382
 51
129.083532
  0
ARC
  8
0
 10
52.360136
 20
41.393458
 40
0.722538
 50
60.31921
 51
91.796906
  0
ARC
  8
0
 10
52.022837
 20
40.832065
 40
1.377378
 50
38.988404
 51
59.692681
  0
ARC
  8
0
 10
50.443178
 20
39.612407
 40
3.372879
 50
20.469385
 51
38.209414
  0
ARC
  8
0
 10
45.568121
 20
37.926044
 40
8.53077
 50
354.458054
 51
19.630107
  0
ARC
  8
0
 10
48.62654
 20
37.498905
 40
5.446941
 50
336.925708
 51
355.823297
  0
ARC
  8
0
 10
51.884033
 20
36.126649
 40
1.912289
 50
315.124702
 51
336.499675
  0
ARC
  8
0
 10
52.643173
 20
35.375895
 40
0.844629
 50
284.842804
 51
314.880061
  0
ARC
  8
0
 10
52.714646
 20
35.238242
 40
0.694085
 50
239.879328
 51
282.049455
  0
ARC
  8
0
 10
53.06139
 20
35.826987
 40
1.377344
 50
218.988386
 51
239.693072
  0
ARC
  8
0
 10
54.641066
 20
37.046666
 40
3.372873
 50
200.469458
 51
218.209511
  0
ARC
  8
0
 10
59.553358
 20
38.733078
 40
8.565859
 50
170.118932
 51
199.546771
  0
ARC
  8
0
 10
67.138635
 20
34.039784
 40
0.297841
 50
266.104973
 51
270.007531
  0
LINE
  8
0
 10
67.138675
 11
68.089549
 20
33.741943
 21
33.742117
  0
ARC
  8
0
 10
68.089699
 20
34.039996
 40
0.29788
 50
269.971243
 51
0.011935
  0
LINE
  8
0
 10
68.387579
 11
68.387493
 20
34.040058
 21
34.180459
  0
ARC
  8
0
 10
68.089655
 20
34.180525
 40
0.297837
 50
359.987453
 51
90.020522
  0
LINE
  8
0
 10
68.089549
 11
67.118403
 20
34.478362
 21
34.478576
  0
LINE
  8
0
 10
67.118403
 11
67.118403
 20
34.478576
 21
35.231106
  0
LINE
  8
0
 10
67.118403
 11
68.089549
 20
35.231106
 21
35.23132
  0
ARC
  8
0
 10
68.089723
 20
35.529176
 40
0.297856
 50
269.966587
 51
0.008585
  0
LINE
  8
0
 10
68.387579
 11
68.387493
 20
35.529221
 21
35.711623
  0
ARC
  8
0
 10
68.089703
 20
35.711755
 40
0.297789
 50
359.974489
 51
83.733224
  0
ARC
  8
0
 10
67.24319
 20
47.330539
 40
11.356843
 50
251.401382
 51
274.439131
  0
ARC
  8
0
 10
64.349408
 20
39.315191
 40
2.843263
 50
182.143284
 51
255.157699
  0
ARC
  8
0
 10
261.287617
 20
46.683215
 40
199.919253
 50
180.886512
 51
182.14261
  0
ARC
  8
0
 10
59.742977
 20
43.501024
 40
1.651719
 50
3.090608
 51
133.61249
  0
ARC
  8
0
 10
64.194182
 20
39.979896
 40
7.314651
 50
139.84398
 51
149.587448
  0
ARC
  8
0
 10
56.302644
 20
44.428929
 40
1.750382
 50
305.642894
 51
334.766949
  0
ARC
  8
0
 10
57.496227
 20
42.764447
 40
0.297822
 50
125.649913
 51
179.967893
  0
LINE
  8
0
 10
57.198405
 11
57.198533
 20
42.764614
 21
41.932562
  0
LINE
  8
0
 10
57.198533
 11
56.446002
 20
41.932562
 21
41.932562
  0
LINE
  8
0
 10
56.446002
 11
56.446216
 20
41.932562
 21
42.627609
  0
ARC
  8
0
 10
56.148366
 20
42.627491
 40
0.29785
 50
0.022638
 51
89.976756
  0
LINE
  8
0
 10
56.148487
 11
55.453214
 20
42.925342
 21
42.925146
  0
LINE
  8
0
 10
55.453214
 11
55.453214
 20
42.925146
 21
43.677674
  0
LINE
  8
0
 10
55.453214
 11
56.14853
 20
43.677674
 21
43.677476
  0
ARC
  8
0
 10
56.148423
 20
43.975268
 40
0.297793
 50
270.020541
 51
359.988899
  0
LINE
  8
0
 10
56.446216
 11
56.446174
 20
43.975211
 21
44.16662
  0
ARC
  8
0
 10
56.148349
 20
44.166526
 40
0.297824
 50
0.018076
 51
89.932357
  0
LINE
  8
0
 10
56.148701
 11
54.900999
 20
44.46435
 21
44.464947
  0
ARC
  8
0
 10
54.751092
 20
42.371705
 40
2.098603
 50
85.903777
 51
109.493567
  0
ARC
  8
0
 10
52.692243
 20
46.391311
 40
2.452047
 50
277.753693
 51
303.644928
  0
ARC
  8
0
 10
52.873839
 20
45.700943
 40
1.74565
 50
224.896083
 51
274.903736
  0
LINE
  8
0
 10
51.637241
 11
50.700344
 20
44.468823
 21
45.262253
  0
ARC
  8
0
 10
50.414176
 20
44.438893
 40
0.871673
 50
70.834521
 51
132.363914
  0
ARC
  8
0
 10
51.29039
 20
43.478095
 40
2.172013
 50
132.363802
 51
161.134342
  0
ARC
  8
0
 10
56.412044
 20
41.727817
 40
7.584482
 50
161.133105
 51
174.74376
  0
ARC
  8
0
 10
68.029106
 20
40.578347
 40
19.258164
 50
174.504569
 51
218.24076
  0
ARC
  8
0
 10
50.677198
 20
26.750788
 40
2.931584
 50
30.663561
 51
40.58933
  0
ARC
  8
0
 10
52.755542
 20
27.983043
 40
0.515396
 50
336.548368
 51
30.662484
  0
LINE
  8
0
 10
53.228365
 11
53.023079
 20
27.777928
 21
27.319141
  0
ARC
  8
0
 10
53.986316
 20
27.137182
 40
0.980273
 50
169.302699
 51
232.331543
  0
ARC
  8
0
 10
53.989079
 20
27.140776
 40
0.984806
 50
232.332099
 51
290.531268
  0
ARC
  8
0
 10
53.957985
 20
27.223877
 40
1.073534
 50
290.529838
 51
315.678525
  0
ARC
  8
0
 10
53.673521
 20
27.466946
 40
1.44709
 50
316.662541
 51
340.219516
  0
ARC
  8
0
 10
52.556217
 20
28.127521
 40
2.732887
 50
335.10804
 51
25.666094
  0
ARC
  8
0
 10
53.015265
 20
28.265751
 40
2.260479
 50
27.548036
 51
53.513942
  0
ARC
  8
0
 10
57.132234
 20
33.012359
 40
4.033442
 50
211.933314
 51
226.570693
  0
ARC
  8
0
 10
55.225238
 20
31.967593
 40
1.866425
 50
132.519222
 51
215.681636
  0
ARC
  8
0
 10
55.771754
 20
31.139119
 40
2.85074
 50
72.955219
 51
129.36006
  0
ARC
  8
0
 10
56.701752
 20
33.938885
 40
0.12009
 50
218.185972
 51
347.021812
  0
ARC
  8
0
 10
56.403141
 20
34.039934
 40
0.434903
 50
342.880814
 51
27.304114
  0
ARC
  8
0
 10
56.355592
 20
33.98229
 40
0.504454
 50
30.646352
 51
79.675466
  0
LINE
  8
0
 10
56.446002
 11
55.453214
 20
34.478576
 21
34.478576
  0
LINE
  8
0
 10
55.453214
 11
55.453214
 20
34.478576
 21
35.231106
  0
LINE
  8
0
 10
55.453214
 11
58.399522
 20
35.231106
 21
35.23359
  0
ARC
  8
0
 10
56.841777
 20
23.437563
 40
11.898438
 50
73.746846
 51
82.477235
  0
ARC
  8
0
 10
66.311632
 20
55.921576
 40
21.937775
 50
253.747626
 51
257.854011
  0
ARC
  8
0
 10
66.643283
 20
50.668127
 40
16.932163
 50
253.010805
 51
271.607943
  0
ARC
  8
0
 10
85.108263
 20
6.085299
 40
2.870215
 50
150.619762
 51
174.308023
  0
ARC
  8
0
 10
83.714189
 20
6.851493
 40
1.279649
 50
127.058413
 51
149.890406
  0
ARC
  8
0
 10
83.411519
 20
7.242557
 40
0.785195
 50
100.908944
 51
126.630044
  0
ARC
  8
0
 10
83.384687
 20
7.282963
 40
0.740678
 50
66.628093
 51
99.462186
  0
ARC
  8
0
 10
83.222498
 20
6.926378
 40
1.132369
 50
46.988361
 51
66.252425
  0
ARC
  8
0
 10
82.53063
 20
6.231044
 40
2.113
 50
26.331121
 51
46.131883
  0
ARC
  8
0
 10
80.512968
 20
5.318821
 40
4.326636
 50
347.272961
 51
25.306438
  0
ARC
  8
0
 10
82.462332
 20
4.864665
 40
2.325153
 50
325.152585
 51
347.606601
  0
ARC
  8
0
 10
83.466501
 20
4.180126
 40
1.109979
 50
301.532663
 51
324.533689
  0
ARC
  8
0
 10
83.668396
 20
3.860486
 40
0.731965
 50
272.696539
 51
301.147774
  0
ARC
  8
0
 10
83.681361
 20
3.88878
 40
0.759752
 50
246.816406
 51
271.619415
  0
ARC
  8
0
 10
83.838291
 20
4.226889
 40
1.132393
 50
226.988485
 51
246.252151
  0
ARC
  8
0
 10
84.530149
 20
4.9222
 40
2.112999
 50
206.331024
 51
226.13175
  0
ARC
  8
0
 10
86.550239
 20
5.838861
 40
4.330729
 50
172.95568
 51
205.345722
  0
ARC
  8
0
 10
94.389174
 20
8.132853
 40
5.446939
 50
156.925605
 51
175.823175
  0
ARC
  8
0
 10
91.131687
 20
9.505121
 40
1.912287
 50
135.124782
 51
156.499777
  0
ARC
  8
0
 10
90.372547
 20
10.25587
 40
0.844631
 50
104.842769
 51
134.880009
  0
ARC
  8
0
 10
90.301073
 20
10.393528
 40
0.694082
 50
59.879143
 51
102.049405
  0
ARC
  8
0
 10
89.954331
 20
9.80478
 40
1.377342
 50
38.988454
 51
59.693153
  0
ARC
  8
0
 10
88.374648
 20
8.585096
 40
3.372879
 50
20.46944
 51
38.209526
  0
ARC
  8
0
 10
83.462363
 20
6.898687
 40
8.565858
 50
350.118944
 51
19.546756
  0
ARC
  8
0
 10
87.736475
 20
6.111981
 40
4.220351
 50
332.226654
 51
350.683512
  0
ARC
  8
0
 10
90.109448
 20
4.872447
 40
1.543184
 50
309.291184
 51
331.89212
  0
ARC
  8
0
 10
90.624787
 20
4.246817
 40
0.732645
 50
274.183957
 51
309.083718
  0
ARC
  8
0
 10
90.655588
 20
4.238308
 40
0.722539
 50
240.318924
 51
271.7966
  0
ARC
  8
0
 10
90.99288
 20
4.79971
 40
1.377382
 50
218.988734
 51
239.692979
  0
ARC
  8
0
 10
92.572544
 20
6.019356
 40
3.372881
 50
200.469339
 51
218.209349
  0
ARC
  8
0
 10
97.447598
 20
7.705728
 40
8.530771
 50
174.458071
 51
199.630147
  0
ARC
  8
0
 10
87.565121
 20
31.022202
 40
6.854628
 50
233.988753
 51
275.466977
  0
ARC
  8
0
 10
88.279068
 20
23.875505
 40
0.328935
 50
261.295151
 51
81.295151
  0
ARC
  8
0
 10
88.279068
 20
23.875505
 40
0.328935
 50
81.295151
 51
100.668286
  0
ARC
  8
0
 10
88.233681
 20
51.210009
 40
27.65965
 50
259.464182
 51
269.990897
  0
ARC
  8
0
 10
83.188165
 20
24.788201
 40
0.771616
 50
63.290363
 51
243.290363
  0
ARC
  8
0
 10
83.188165
 20
24.788201
 40
0.771616
 50
243.290363
 51
269.104767
  0
ARC
  8
0
 10
88.160878
 20
-4.680098
 40
26.90316
 50
89.872187
 51
100.637819
  0
ARC
  8
0
 10
88.223395
 20
21.895826
 40
0.327179
 50
269.562016
 51
89.562016
  0
ARC
  8
0
 10
88.223395
 20
21.895826
 40
0.327179
 50
89.562016
 51
90.438107
  0
ARC
  8
0
 10
87.556308
 20
14.771231
 40
6.829837
 50
84.415931
 51
125.457647
  0
ARC
  8
0
 10
83.216947
 20
20.99782
 40
0.763205
 50
91.681503
 51
271.681503
  0
ARC
  8
0
 10
83.216947
 20
20.99782
 40
0.763205
 50
271.681503
 51
299.633423
  0
ARC
  8
0
 10
88.054344
 20
54.337168
 40
31.158766
 50
260.354276
 51
271.640019
  0
ARC
  8
0
 10
88.941126
 20
22.887057
 40
0.30415
 50
270.953157
 51
89.062501
  0
ARC
  8
0
 10
88.0607
 20
-8.632707
 40
31.228213
 50
88.375143
 51
99.633302
  0
ARC
  8
0
 10
82.622198
 20
22.886828
 40
0.761967
 50
73.898621
 51
253.898621
  0
ARC
  8
0
 10
82.622198
 20
22.886828
 40
0.761967
 50
253.898621
 51
286.210541
  0
ARC
  8
0
 10
81.056728
 20
24.921627
 40
0.623581
 50
101.03033
 51
142.643579
  0
ARC
  8
0
 10
81.02943
 20
25.060851
 40
0.481706
 50
34.967076
 51
101.011791
  0
ARC
  8
0
 10
80.960581
 20
25.012574
 40
0.565794
 50
332.44709
 51
34.977653
  0
ARC
  8
0
 10
84.743456
 20
22.887187
 40
3.773575
 50
150.404507
 51
209.46089
  0
ARC
  8
0
 10
80.960663
 20
20.761351
 40
0.565701
 50
325.021591
 51
28.494476
  0
ARC
  8
0
 10
81.029429
 20
20.713121
 40
0.481707
 50
258.988368
 51
325.033082
  0
ARC
  8
0
 10
81.056466
 20
20.852319
 40
0.623506
 50
215.550943
 51
258.992851
  0
ARC
  8
0
 10
83.804322
 20
22.886875
 40
4.042515
 50
143.349228
 51
216.367859
  0
ARC
  8
0
 10
98.898953
 20
25.394161
 40
4.93845
 50
178.637989
 51
200.894009
  0
LINE
  8
0
 10
93.961898
 11
94.142184
 20
25.511545
 21
27.277108
  0
ARC
  8
0
 10
93.845871
 20
27.30764
 40
0.297882
 50
354.116958
 51
90.025146
  0
LINE
  8
0
 10
93.84574
 11
93.114463
 20
27.605522
 21
27.605718
  0
LINE
  8
0
 10
93.114463
 11
93.114463
 20
27.605718
 21
28.356262
  0
LINE
  8
0
 10
93.114463
 11
93.950582
 20
28.356262
 21
28.356458
  0
ARC
  8
0
 10
93.950776
 20
28.654198
 40
0.29774
 50
269.962719
 51
333.545729
  0
LINE
  8
0
 10
94.21734
 11
94.269856
 20
28.52156
 21
28.626197
  0
ARC
  8
0
 10
93.498755
 20
29.091252
 40
0.900485
 50
328.905615
 51
26.404469
  0
ARC
  8
0
 10
93.213909
 20
28.949748
 40
1.218543
 50
26.407738
 51
73.293998
  0
ARC
  8
0
 10
93.279333
 20
29.167805
 40
0.990883
 50
73.292818
 51
153.57016
  0
LINE
  8
0
 10
92.392017
 11
91.367365
 20
29.608848
 21
27.517759
  0
ARC
  8
0
 10
86.145631
 20
30.040314
 40
5.79912
 50
314.188563
 51
334.21539
  0
ARC
  8
0
 10
88.668707
 20
27.444665
 40
2.179272
 50
270.359821
 51
314.189954
  0
LINE
  8
0
 10
88.682393
 11
85.272392
 20
25.265437
 21
26.312822
  0
ARC
  8
0
 10
86.575333
 20
35.448415
 40
9.22804
 50
254.265115
 51
261.883073
  0
ARC
  8
0
 10
84.618144
 20
28.502461
 40
2.011609
 50
238.091693
 51
254.270756
  0
ARC
  8
0
 10
84.730244
 20
28.682164
 40
2.22341
 50
225.353988
 51
238.087119
  0
ARC
  8
0
 10
86.995092
 20
30.976203
 40
5.447096
 50
221.625519
 51
225.361613
  0
LINE
  8
0
 10
82.923375
 11
82.792726
 20
27.35792
 21
27.50525
  0
ARC
  8
0
 10
82.569758
 20
27.307771
 40
0.297847
 50
41.53082
 51
90.040151
  0
LINE
  8
0
 10
82.569549
 11
81.449299
 20
27.605618
 21
27.605718
  0
LINE
  8
0
 10
81.449299
 11
81.449299
 20
27.605718
 21
28.356262
  0
LINE
  8
0
 10
81.449299
 11
82.345974
 20
28.356262
 21
28.356458
  0
ARC
  8
0
 10
82.346092
 20
28.654282
 40
0.297824
 50
269.977382
 51
9.945253
  0
ARC
  8
0
 10
81.181111
 20
28.450234
 40
1.48054
 50
9.93678
 51
76.622541
  0
ARC
  8
0
 10
81.203117
 20
28.542837
 40
1.385358
 50
76.62186
 51
147.182879
  0
ARC
  8
0
 10
80.932232
 20
28.717543
 40
1.063021
 50
147.183718
 51
174.641873
  0
ARC
  8
0
 10
94.460428
 20
27.448228
 40
14.650635
 50
174.639932
 51
180.109744
  0
ARC
  8
0
 10
75.181497
 20
27.411563
 40
4.62833
 50
345.655454
 51
0.106504
  0
ARC
  8
0
 10
76.891144
 20
27.021448
 40
2.875695
 50
330.881123
 51
344.746547
  0
ARC
  8
0
 10
70.077703
 20
30.727109
 40
10.631546
 50
327.093452
 51
331.302936
  0
ARC
  8
0
 10
86.932232
 20
19.605662
 40
9.562462
 50
146.011693
 51
153.244276
  0
ARC
  8
0
 10
80.996865
 20
22.599119
 40
2.914953
 50
153.262576
 51
167.992412
  0
ARC
  8
0
 10
79.802169
 20
22.868878
 40
1.690346
 50
168.51139
 51
192.570886
  0
ARC
  8
0
 10
81.007842
 20
23.165907
 40
2.931892
 50
193.10824
 51
207.714468
  0
ARC
  8
0
 10
85.665619
 20
25.569976
 40
8.173449
 50
207.44874
 51
213.046851
  0
ARC
  8
0
 10
69.178687
 20
14.547807
 40
11.659613
 50
28.446235
 51
34.26723
  0
ARC
  8
0
 10
77.100704
 20
18.835251
 40
2.651813
 50
13.345909
 51
28.526766
  0
ARC
  8
0
 10
75.181465
 20
18.362561
 40
4.628363
 50
359.890366
 51
13.555216
  0
ARC
  8
0
 10
94.460428
 20
18.325632
 40
14.650635
 50
179.890213
 51
185.360031
  0
ARC
  8
0
 10
80.932024
 20
17.05638
 40
1.06282
 50
185.36206
 51
212.820118
  0
ARC
  8
0
 10
81.203187
 20
17.231086
 40
1.385391
 50
212.813785
 51
283.374782
  0
ARC
  8
0
 10
81.181035
 20
17.323688
 40
1.480605
 50
283.379844
 51
350.065579
  0
ARC
  8
0
 10
82.346091
 20
17.119688
 40
0.297824
 50
350.054961
 51
90.022537
  0
LINE
  8
0
 10
82.345974
 11
81.449299
 20
17.417512
 21
17.417711
  0
LINE
  8
0
 10
81.449299
 11
81.449299
 20
17.417711
 21
18.168253
  0
LINE
  8
0
 10
81.449299
 11
82.569549
 20
18.168253
 21
18.168352
  0
ARC
  8
0
 10
82.569753
 20
18.466201
 40
0.297849
 50
269.960644
 51
318.470019
  0
LINE
  8
0
 10
82.792726
 11
82.923375
 20
18.268724
 21
18.415951
  0
ARC
  8
0
 10
86.996609
 20
14.797691
 40
5.448215
 50
134.649165
 51
138.385259
  0
ARC
  8
0
 10
84.729805
 20
17.091777
 40
2.223122
 50
121.904281
 51
134.63741
  0
ARC
  8
0
 10
84.618495
 20
17.271444
 40
2.011768
 50
105.738221
 51
121.917362
  0
ARC
  8
0
 10
86.574597
 20
10.325527
 40
9.227869
 50
98.112464
 51
105.730405
  0
LINE
  8
0
 10
85.272391
 11
88.682393
 20
19.461052
 21
20.508532
  0
ARC
  8
0
 10
88.668714
 20
18.329306
 40
2.179269
 50
45.810257
 51
89.640346
  0
ARC
  8
0
 10
86.145631
 20
15.733656
 40
5.799124
 50
25.784625
 51
45.811479
  0
LINE
  8
0
 10
91.367368
 11
92.392015
 20
18.256214
 21
16.165022
  0
ARC
  8
0
 10
93.279269
 20
16.606119
 40
0.990851
 50
206.434205
 51
286.711506
  0
ARC
  8
0
 10
93.213916
 20
16.824227
 40
1.218539
 50
286.705659
 51
333.592021
  0
ARC
  8
0
 10
93.498755
 20
16.682719
 40
0.900486
 50
333.595618
 51
31.094429
  0
LINE
  8
0
 10
94.269857
 11
94.217341
 20
17.147775
 21
17.252314
  0
ARC
  8
0
 10
93.950697
 20
17.119723
 40
0.297792
 50
26.439327
 51
90.022338
  0
LINE
  8
0
 10
93.950581
 11
93.114463
 20
17.417514
 21
17.417711
  0
LINE
  8
0
 10
93.114463
 11
93.114463
 20
17.417711
 21
18.168253
  0
LINE
  8
0
 10
93.114463
 11
93.845741
 20
18.168253
 21
18.168452
  0
ARC
  8
0
 10
93.845919
 20
18.466282
 40
0.29783
 50
269.965842
 51
5.874238
  0
LINE
  8
0
 10
94.142185
 11
93.961899
 20
18.496763
 21
20.262424
  0
ARC
  8
0
 10
98.899069
 20
20.379889
 40
4.938567
 50
159.064364
 51
181.362924
  0
ARC
  8
0
 10
91.892944
 20
22.886653
 40
2.505995
 50
342.774229
 51
17.324858
  0
ARC
  8
0
 10
86.173947
 20
22.194221
 40
11.898456
 50
253.746879
 51
262.477261
  0
ARC
  8
0
 10
76.704112
 20
-10.289816
 40
21.937774
 50
73.747676
 51
77.854058
  0
ARC
  8
0
 10
76.372427
 20
-5.036358
 40
16.932162
 50
73.010748
 51
91.60791
  0
ARC
  8
0
 10
75.877104
 20
11.592002
 40
0.297821
 50
86.108482
 51
90.011084
  0
LINE
  8
0
 10
75.877046
 11
74.926171
 20
11.889823
 21
11.88965
  0
ARC
  8
0
 10
74.926021
 20
11.591771
 40
0.29788
 50
89.971026
 51
180.012353
  0
LINE
  8
0
 10
74.628141
 11
74.628229
 20
11.591706
 21
11.451306
  0
ARC
  8
0
 10
74.926064
 20
11.451241
 40
0.297835
 50
179.987458
 51
270.020732
  0
LINE
  8
0
 10
74.926172
 11
75.897317
 20
11.153406
 21
11.153192
  0
LINE
  8
0
 10
75.897317
 11
75.897317
 20
11.153192
 21
10.400661
  0
LINE
  8
0
 10
75.897317
 11
74.926172
 20
10.400661
 21
10.400447
  0
ARC
  8
0
 10
74.925999
 20
10.102589
 40
0.297858
 50
89.966788
 51
180.008167
  0
LINE
  8
0
 10
74.628141
 11
74.628229
 20
10.102546
 21
9.920145
  0
ARC
  8
0
 10
74.92602
 20
9.920014
 40
0.29779
 50
179.974687
 51
263.733271
  0
ARC
  8
0
 10
75.772529
 20
-1.698773
 40
11.356845
 50
71.401381
 51
94.43911
  0
ARC
  8
0
 10
78.666322
 20
6.316574
 40
2.843263
 50
2.143224
 51
75.157896
  0
ARC
  8
0
 10
-118.272006
 20
-1.051057
 40
199.919358
 50
0.886399
 51
2.142495
  0
ARC
  8
0
 10
83.272744
 20
2.130743
 40
1.651719
 50
183.090649
 51
313.612419
  0
ARC
  8
0
 10
78.82153
 20
5.651869
 40
7.314657
 50
319.844017
 51
329.587496
  0
ARC
  8
0
 10
86.713078
 20
1.202837
 40
1.750384
 50
125.642904
 51
154.766921
  0
ARC
  8
0
 10
85.519496
 20
2.867323
 40
0.297822
 50
305.649188
 51
359.967114
  0
LINE
  8
0
 10
85.817318
 11
85.817188
 20
2.867152
 21
3.699204
  0
LINE
  8
0
 10
85.817188
 11
86.569719
 20
3.699204
 21
3.699204
  0
LINE
  8
0
 10
86.569719
 11
86.569505
 20
3.699204
 21
3.004158
  0
ARC
  8
0
 10
86.867355
 20
3.004274
 40
0.29785
 50
180.022445
 51
269.976756
  0
LINE
  8
0
 10
86.867234
 11
87.562507
 20
2.706424
 21
2.706621
  0
LINE
  8
0
 10
87.562507
 11
87.562507
 20
2.706621
 21
1.954095
  0
LINE
  8
0
 10
87.562507
 11
86.86719
 20
1.954095
 21
1.954292
  0
ARC
  8
0
 10
86.867299
 20
1.656498
 40
0.297794
 50
90.020846
 51
179.988481
  0
LINE
  8
0
 10
86.569505
 11
86.56955
 20
1.656558
 21
1.465149
  0
ARC
  8
0
 10
86.867374
 20
1.465239
 40
0.297824
 50
180.017195
 51
269.931938
  0
LINE
  8
0
 10
86.86702
 11
88.114723
 20
1.167415
 21
1.16682
  0
ARC
  8
0
 10
88.264621
 20
3.260062
 40
2.098603
 50
265.904023
 51
289.493757
  0
ARC
  8
0
 10
90.323478
 20
-0.759547
 40
2.452052
 50
97.753616
 51
123.644882
  0
ARC
  8
0
 10
90.141882
 20
-0.06917
 40
1.745647
 50
44.895979
 51
94.903664
  0
LINE
  8
0
 10
91.37848
 11
92.315378
 20
1.162945
 21
0.369516
  0
ARC
  8
0
 10
92.601549
 20
1.192875
 40
0.871673
 50
250.834288
 51
312.363954
  0
ARC
  8
0
 10
91.725341
 20
2.153668
 40
2.172005
 50
312.363777
 51
341.134331
  0
ARC
  8
0
 10
86.60367
 20
3.903928
 40
7.584484
 50
341.133275
 51
354.743974
  0
ARC
  8
0
 10
74.986615
 20
5.053422
 40
19.258162
 50
354.504579
 51
38.240756
  0
ARC
  8
0
 10
92.338512
 20
18.880974
 40
2.931574
 50
210.66361
 51
220.589398
  0
ARC
  8
0
 10
90.260181
 20
17.648722
 40
0.515399
 50
156.548193
 51
210.662239
  0
LINE
  8
0
 10
89.787357
 11
89.992642
 20
17.853839
 21
18.312626
  0
ARC
  8
0
 10
89.029406
 20
18.494585
 40
0.980272
 50
349.302702
 51
52.331516
  0
ARC
  8
0
 10
89.026642
 20
18.490989
 40
0.984807
 50
52.332032
 51
110.531201
  0
ARC
  8
0
 10
89.057732
 20
18.40789
 40
1.073533
 50
110.529658
 51
135.678332
  0
ARC
  8
0
 10
89.342201
 20
18.164827
 40
1.447088
 50
136.662726
 51
160.21977
  0
ARC
  8
0
 10
90.459507
 20
17.504242
 40
2.73289
 50
155.107996
 51
205.66603
  0
ARC
  8
0
 10
90.000455
 20
17.366017
 40
2.260482
 50
207.5481
 51
233.513985
  0
ARC
  8
0
 10
85.883497
 20
12.619405
 40
4.033436
 50
31.933436
 51
46.570817
  0
ARC
  8
0
 10
87.790484
 20
13.664175
 40
1.866425
 50
312.519158
 51
35.681644
  0
ARC
  8
0
 10
87.243966
 20
14.492646
 40
2.85074
 50
252.955237
 51
309.360081
  0
ARC
  8
0
 10
86.313969
 20
11.692883
 40
0.120088
 50
38.184841
 51
167.022862
  0
ARC
  8
0
 10
86.612582
 20
11.591829
 40
0.434904
 50
162.880411
 51
207.303659
  0
ARC
  8
0
 10
86.660126
 20
11.649478
 40
0.504454
 50
210.646783
 51
259.675806
  0
LINE
  8
0
 10
86.569719
 11
87.562507
 20
11.153192
 21
11.153192
  0
LINE
  8
0
 10
87.562507
 11
87.562507
 20
11.153192
 21
10.400661
  0
LINE
  8
0
 10
87.562507
 11
84.616205
 20
10.400661
 21
10.398175
  0
ARC
  8
0
 10
82.530623
 20
39.400718
 40
2.113005
 50
313.868286
 51
333.66909
  0
ARC
  8
0
 10
83.222507
 20
38.705389
 40
1.132367
 50
293.747108
 51
313.011173
  0
ARC
  8
0
 10
83.384685
 20
38.348802
 40
0.740678
 50
260.538036
 51
293.37207
  0
ARC
  8
0
 10
83.41152
 20
38.389208
 40
0.785196
 50
233.369921
 51
259.091067
  0
ARC
  8
0
 10
83.714188
 20
38.780271
 40
1.279648
 50
210.109604
 51
232.941592
  0
ARC
  8
0
 10
85.108266
 20
39.546465
 40
2.870217
 50
185.691963
 51
209.380205
  0
ARC
  8
0
 10
86.550239
 20
39.792905
 40
4.330729
 50
154.654292
 51
187.04434
  0
ARC
  8
0
 10
84.530148
 20
40.709565
 40
2.112999
 50
133.868269
 51
153.668978
  0
ARC
  8
0
 10
83.83829
 20
41.404876
 40
1.132392
 50
113.747853
 51
133.011528
  0
ARC
  8
0
 10
83.681359
 20
41.742985
 40
0.759751
 50
88.380478
 51
113.183532
  0
ARC
  8
0
 10
83.668399
 20
41.771277
 40
0.731965
 50
58.852558
 51
87.303802
  0
ARC
  8
0
 10
83.466497
 20
41.451642
 40
1.109979
 50
35.46613
 51
58.467139
  0
ARC
  8
0
 10
82.462335
 20
40.767098
 40
2.32515
 50
12.393474
 51
34.8475
  0
ARC
  8
0
 10
80.512968
 20
40.312944
 40
4.326636
 50
334.693583
 51
12.727052
  0
ARC
  8
0
 10
88.374652
 20
37.04667
 40
3.372875
 50
321.790461
 51
339.530532
  0
ARC
  8
0
 10
89.954329
 20
35.826988
 40
1.377344
 50
300.306926
 51
321.011627
  0
ARC
  8
0
 10
90.301074
 20
35.238239
 40
0.694082
 50
257.950511
 51
300.120788
  0
ARC
  8
0
 10
90.372545
 20
35.375898
 40
0.844631
 50
225.120124
 51
255.157333
  0
ARC
  8
0
 10
91.131687
 20
36.126646
 40
1.912287
 50
203.500223
 51
224.87522
  0
ARC
  8
0
 10
94.389179
 20
37.498913
 40
5.446944
 50
184.176826
 51
203.074373
  0
ARC
  8
0
 10
97.447598
 20
37.926043
 40
8.530771
 50
160.369882
 51
185.54196
  0
ARC
  8
0
 10
92.572542
 20
39.612406
 40
3.372882
 50
141.790571
 51
159.530586
  0
ARC
  8
0
 10
90.992885
 20
40.832059
 40
1.377384
 50
120.307257
 51
141.011477
  0
ARC
  8
0
 10
90.655584
 20
41.393458
 40
0.722539
 50
88.203149
 51
119.680839
  0
ARC
  8
0
 10
90.624789
 20
41.38495
 40
0.732644
 50
50.916439
 51
85.816177
  0
ARC
  8
0
 10
90.109447
 20
40.759319
 40
1.543185
 50
28.107838
 51
50.708825
  0
ARC
  8
0
 10
87.736471
 20
39.519785
 40
4.220354
 50
9.31651
 51
27.77333
  0
ARC
  8
0
 10
83.462361
 20
38.733079
 40
8.56586
 50
340.453245
 51
9.881064
  0
ARC
  8
0
 10
86.603674
 20
41.727843
 40
7.584478
 50
5.25603
 51
18.866689
  0
ARC
  8
0
 10
91.725335
 20
43.478093
 40
2.172013
 50
18.865689
 51
47.636267
  0
ARC
  8
0
 10
92.601545
 20
44.438893
 40
0.871675
 50
47.635992
 51
109.165411
  0
LINE
  8
0
 10
92.315377
 11
91.37848
 20
45.262255
 21
44.468823
  0
ARC
  8
0
 10
90.141884
 20
45.700938
 40
1.745645
 50
265.096331
 51
315.10398
  0
ARC
  8
0
 10
90.323475
 20
46.391316
 40
2.452051
 50
236.355182
 51
262.246513
  0
ARC
  8
0
 10
88.264629
 20
42.371705
 40
2.098602
 50
70.506462
 51
94.096214
  0
LINE
  8
0
 10
88.114722
 11
86.86702
 20
44.464946
 21
44.46435
  0
ARC
  8
0
 10
86.867374
 20
44.166526
 40
0.297824
 50
90.068062
 51
179.982157
  0
LINE
  8
0
 10
86.56955
 11
86.569505
 20
44.166619
 21
43.975211
  0
ARC
  8
0
 10
86.867297
 20
43.975268
 40
0.297793
 50
180.011101
 51
269.978883
  0
LINE
  8
0
 10
86.867188
 11
87.562507
 20
43.677476
 21
43.677674
  0
LINE
  8
0
 10
87.562507
 11
87.562507
 20
43.677674
 21
42.925146
  0
LINE
  8
0
 10
87.562507
 11
86.867234
 20
42.925146
 21
42.925342
  0
ARC
  8
0
 10
86.867355
 20
42.627491
 40
0.29785
 50
90.023244
 51
179.977269
  0
LINE
  8
0
 10
86.569505
 11
86.569719
 20
42.62761
 21
41.932562
  0
LINE
  8
0
 10
86.569719
 11
85.817188
 20
41.932562
 21
41.932562
  0
LINE
  8
0
 10
85.817188
 11
85.817318
 20
41.932562
 21
42.764614
  0
ARC
  8
0
 10
85.519496
 20
42.764444
 40
0.297822
 50
0.032677
 51
54.350772
  0
ARC
  8
0
 10
86.713078
 20
44.428927
 40
1.750382
 50
205.23299
 51
234.357037
  0
ARC
  8
0
 10
78.821543
 20
39.979895
 40
7.314648
 50
30.412571
 51
40.156058
  0
ARC
  8
0
 10
83.272744
 20
43.501025
 40
1.651718
 50
46.387541
 51
176.90938
  0
ARC
  8
0
 10
-118.271892
 20
46.683372
 40
199.919253
 50
357.857348
 51
359.113443
  0
ARC
  8
0
 10
78.666311
 20
39.315191
 40
2.843263
 50
284.842304
 51
357.856914
  0
ARC
  8
0
 10
75.772526
 20
47.330539
 40
11.356844
 50
265.560888
 51
288.59863
  0
ARC
  8
0
 10
74.92602
 20
35.711754
 40
0.29779
 50
96.267401
 51
180.025468
  0
LINE
  8
0
 10
74.628229
 11
74.628141
 20
35.711621
 21
35.529221
  0
ARC
  8
0
 10
74.926
 20
35.529178
 40
0.297859
 50
179.991834
 51
270.033482
  0
LINE
  8
0
 10
74.926174
 11
75.897317
 20
35.231319
 21
35.231106
  0
LINE
  8
0
 10
75.897317
 11
75.897317
 20
35.231106
 21
34.478576
  0
LINE
  8
0
 10
75.897317
 11
74.926172
 20
34.478576
 21
34.478362
  0
ARC
  8
0
 10
74.926068
 20
34.180525
 40
0.297837
 50
89.979896
 51
180.012837
  0
LINE
  8
0
 10
74.62823
 11
74.628141
 20
34.180458
 21
34.040058
  0
ARC
  8
0
 10
74.926021
 20
34.039996
 40
0.29788
 50
179.988065
 51
270.029089
  0
LINE
  8
0
 10
74.926172
 11
75.877046
 20
33.742117
 21
33.741943
  0
ARC
  8
0
 10
75.877085
 20
34.039765
 40
0.297822
 50
269.992468
 51
273.895027
  0
ARC
  8
0
 10
76.372437
 20
50.668127
 40
16.932163
 50
268.392053
 51
286.989226
  0
ARC
  8
0
 10
76.704086
 20
55.921576
 40
21.937775
 50
282.146019
 51
286.252402
  0
ARC
  8
0
 10
86.173941
 20
23.437544
 40
11.898456
 50
97.522732
 51
106.253074
  0
LINE
  8
0
 10
84.616201
 11
87.562507
 20
35.23359
 21
35.231106
  0
LINE
  8
0
 10
87.562507
 11
87.562507
 20
35.231106
 21
34.478576
  0
LINE
  8
0
 10
87.562507
 11
86.569719
 20
34.478576
 21
34.478576
  0
ARC
  8
0
 10
86.660129
 20
33.982289
 40
0.504455
 50
100.324452
 51
149.353563
  0
ARC
  8
0
 10
86.612579
 20
34.039935
 40
0.434902
 50
152.696028
 51
197.119403
  0
ARC
  8
0
 10
86.313969
 20
33.938884
 40
0.12009
 50
192.97758
 51
321.815313
  0
ARC
  8
0
 10
87.243966
 20
31.139119
 40
2.85074
 50
50.639937
 51
107.044714
  0
ARC
  8
0
 10
87.790483
 20
31.967591
 40
1.866425
 50
324.318382
 51
47.480845
  0
ARC
  8
0
 10
85.883489
 20
33.012362
 40
4.033443
 50
313.429256
 51
328.066625
  0
ARC
  8
0
 10
90.000456
 20
28.26575
 40
2.26048
 50
126.486043
 51
152.45195
  0
ARC
  8
0
 10
90.459505
 20
28.127524
 40
2.732887
 50
154.333981
 51
204.891997
  0
ARC
  8
0
 10
89.342204
 20
27.466939
 40
1.447089
 50
199.780129
 51
223.337182
  0
ARC
  8
0
 10
89.057731
 20
27.223878
 40
1.073533
 50
224.32175
 51
249.470409
  0
ARC
  8
0
 10
89.026643
 20
27.140777
 40
0.984806
 50
249.468713
 51
307.667899
  0
ARC
  8
0
 10
89.029406
 20
27.137183
 40
0.980273
 50
307.668433
 51
10.697259
  0
LINE
  8
0
 10
89.992643
 11
89.787357
 20
27.319141
 21
27.777928
  0
ARC
  8
0
 10
90.260181
 20
27.983044
 40
0.515398
 50
149.337643
 51
203.451719
  0
ARC
  8
0
 10
92.338522
 20
26.750792
 40
2.931582
 50
139.41071
 51
149.336472
  0
ARC
  8
0
 10
74.986612
 20
40.578344
 40
19.258164
 50
321.759252
 51
5.495436
  0
LINE
  8
0
 10
48.000002
 11
48.000002
 20
0.000004
 21
48.000002
  0
LINE
  8
0
 10
48.000002
 11
96.0
 20
48.000002
 21
48.000002
  0
LINE
  8
0
 10
96.0
 11
96.0
 20
48.000002
 21
0.000004
  0
LINE
  8
0
 10
96.0
 11
48.000002
 20
0.000004
 21
0.000004
  0
LINE
  8
0
 10
51.396386
 11
50.645845
 20
20.650203
 21
20.650203
  0
LINE
  8
0
 10
50.645845
 11
50.645845
 20
20.650203
 21
25.117713
  0
LINE
  8
0
 10
50.645845
 11
51.396386
 20
25.117713
 21
25.117713
  0
LINE
  8
0
 10
51.396386
 11
51.396386
 20
25.117713
 21
20.650203
  0
LINE
  8
0
 10
62.459828
 11
62.466538
 20
20.480736
 21
20.489797
  0
LINE
  8
0
 10
70.080769
 11
70.080984
 20
24.173315
 21
24.924732
  0
LINE
  8
0
 10
70.080984
 11
72.562454
 20
24.924732
 21
24.924186
  0
LINE
  8
0
 10
72.562454
 11
72.562289
 20
24.924186
 21
24.173694
  0
LINE
  8
0
 10
72.562289
 11
70.080769
 20
24.173694
 21
24.173315
  0
LINE
  8
0
 10
91.619334
 11
92.369876
 20
25.117713
 21
25.117713
  0
LINE
  8
0
 10
92.369876
 11
92.369876
 20
25.117713
 21
20.650203
  0
LINE
  8
0
 10
92.369876
 11
91.619334
 20
20.650203
 21
20.650203
  0
LINE
  8
0
 10
91.619334
 11
91.619334
 20
20.650203
 21
25.117713
  0
LINE
  8
0
 10
80.555893
 11
80.549181
 20
20.480736
 21
20.489797
  0
LINE
  8
0
 10
72.697422
 11
72.69721
 20
35.949741
 21
35.198323
  0
LINE
  8
0
 10
72.69721
 11
70.215739
 20
35.198323
 21
35.198869
  0
LINE
  8
0
 10
70.215739
 11
70.215901
 20
35.198869
 21
35.949361
  0
LINE
  8
0
 10
70.215901
 11
72.697422
 20
35.949361
 21
35.949741
  0
ARC
  8
0
 10
55.935706
 20
32.092776
 40
0.198555
 50
89.999372
 51
180.020096
  0
LINE
  8
0
 10
55.737151
 11
55.73779
 20
32.092707
 21
30.306267
  0
LINE
  8
0
 10
55.73779
 11
56.730084
 20
30.306267
 21
30.3051
  0
LINE
  8
0
 10
56.730084
 11
56.730034
 20
30.3051
 21
28.458709
  0
ARC
  8
0
 10
56.92859
 20
28.458703
 40
0.198556
 50
179.998429
 51
269.898438
  0
LINE
  8
0
 10
56.928238
 11
58.516224
 20
28.260148
 21
28.257332
  0
ARC
  8
0
 10
58.516576
 20
28.455886
 40
0.198555
 50
269.898468
 51
359.998047
  0
LINE
  8
0
 10
58.715131
 11
58.715198
 20
28.455879
 21
30.307537
  0
LINE
  8
0
 10
58.715198
 11
59.707632
 20
30.307537
 21
30.306371
  0
LINE
  8
0
 10
59.707632
 11
59.708144
 20
30.306371
 21
32.092719
  0
ARC
  8
0
 10
59.509588
 20
32.092776
 40
0.198556
 50
359.983352
 51
89.999765
  0
LINE
  8
0
 10
59.509588
 11
55.935708
 20
32.291332
 21
32.291331
  0
ARC
  8
0
 10
83.221225
 20
32.279664
 40
0.198555
 50
89.999372
 51
180.020096
  0
LINE
  8
0
 10
83.02267
 11
83.023309
 20
32.279594
 21
30.493154
  0
LINE
  8
0
 10
83.023309
 11
84.015603
 20
30.493154
 21
30.491987
  0
LINE
  8
0
 10
84.015603
 11
84.015553
 20
30.491987
 21
28.645596
  0
ARC
  8
0
 10
84.214109
 20
28.64559
 40
0.198556
 50
179.998429
 51
269.898438
  0
LINE
  8
0
 10
84.213757
 11
85.801743
 20
28.447035
 21
28.444219
  0
ARC
  8
0
 10
85.802095
 20
28.642773
 40
0.198555
 50
269.898468
 51
359.998047
  0
LINE
  8
0
 10
86.00065
 11
86.000717
 20
28.642766
 21
30.494424
  0
LINE
  8
0
 10
86.000717
 11
86.993151
 20
30.494424
 21
30.493258
  0
LINE
  8
0
 10
86.993151
 11
86.993663
 20
30.493258
 21
32.279606
  0
ARC
  8
0
 10
86.795107
 20
32.279664
 40
0.198556
 50
359.983352
 51
89.999765
  0
LINE
  8
0
 10
86.795108
 11
83.221228
 20
32.47822
 21
32.478218
  0
ENDSEC
  0
EOF
