999
dxfrw 0.6.3
  0
SECTION
  2
HEADER
  9
$ACADVER
  1
AC1021
  9
$DWGCODEPAGE
  3
ANSI_1250
  9
$INSBASE
 10
0
 20
0
 30
0
  9
$EXTMIN
 10
40
 20
40.09999999999999
 30
0
  9
$EXTMAX
 10
160
 20
159.9
 30
0
  9
$LIMMIN
 10
0
 20
0
  9
$LIMMAX
 10
420
 20
297
  9
$ORTHOMODE
 70
    0
  9
$REGENMODE
 70
    1
  9
$FILLMODE
 70
    1
  9
$QTEXTMODE
 70
    0
  9
$MIRRTEXT
 70
    0
  9
$LTSCALE
 40
1
  9
$ATTMODE
 70
    0
  9
$TEXTSIZE
 40
2.5
  9
$TRACEWID
 40
15.68
  9
$TEXTSTYLE
  7
STANDARD
  9
$CLAYER
  8
0
  9
$CELTYPE
  6
BYLAYER
  9
$CECOLOR
 62
  256
  9
$CELTSCALE
 40
1
  9
$DISPSILH
 70
    0
  9
$DIMSCALE
 40
2.5
  9
$DIMASZ
 40
2.5
  9
$DIMEXO
 40
0.625
  9
$DIMDLI
 40
3.75
  9
$DIMRND
 40
0
  9
$DIMDLE
 40
0
  9
$DIMEXE
 40
1.25
  9
$DIMTP
 40
0
  9
$DIMTM
 40
0
  9
$DIMTXT
 40
2.5
  9
$DIMCEN
 40
2.5
  9
$DIMTSZ
 40
0
  9
$DIMTOL
 70
    0
  9
$DIMLIM
 70
    0
  9
$DIMTIH
 70
    0
  9
$DIMTOH
 70
    0
  9
$DIMSE1
 70
    0
  9
$DIMSE2
 70
    0
  9
$DIMTAD
 70
    1
  9
$DIMZIN
 70
    8
  9
$DIMBLK
  1

  9
$DIMASO
 70
    1
  9
$DIMSHO
 70
    1
  9
$DIMPOST
  1

  9
$DIMAPOST
  1

  9
$DIMALT
 70
    0
  9
$DIMALTD
 70
    3
  9
$DIMALTF
 40
0.03937
  9
$DIMLFAC
 40
1
  9
$DIMTOFL
 70
    1
  9
$DIMTVP
 40
0
  9
$DIMTIX
 70
    0
  9
$DIMSOXD
 70
    0
  9
$DIMSAH
 70
    0
  9
$DIMBLK1
  1

  9
$DIMBLK2
  1

  9
$DIMSTYLE
  2
STANDARD
  9
$DIMCLRD
 70
    0
  9
$DIMCLRE
 70
    0
  9
$DIMCLRT
 70
    0
  9
$DIMTFAC
 40
1
  9
$DIMGAP
 40
0.625
  9
$DIMJUST
 70
    0
  9
$DIMSD1
 70
    0
  9
$DIMSD2
 70
    0
  9
$DIMTOLJ
 70
    0
  9
$DIMTZIN
 70
    8
  9
$DIMALTZ
 70
    0
  9
$DIMALTTZ
 70
    0
  9
$DIMUPT
 70
    0
  9
$DIMDEC
 70
    2
  9
$DIMTDEC
 70
    2
  9
$DIMALTU
 70
    2
  9
$DIMALTTD
 70
    3
  9
$DIMTXSTY
  7
STANDARD
  9
$DIMAUNIT
 70
    0
  9
$DIMADEC
 70
    0
  9
$DIMALTRND
 40
0
  9
$DIMAZIN
 70
    0
  9
$DIMDSEP
 70
   44
  9
$DIMATFIT
 70
    3
  9
$DIMFRAC
 70
    0
  9
$DIMLDRBLK
  1
STANDARD
  9
$DIMLUNIT
 70
    2
  9
$DIMLWD
 70
   -2
  9
$DIMLWE
 70
   -2
  9
$DIMTMOVE
 70
    0
  9
$DIMFXL
 40
1
  9
$DIMFXLON
 70
    0
  9
$DIMJOGANG
 40
0.7854
  9
$DIMTFILL
 70
    0
  9
$DIMTFILLCLR
 70
    0
  9
$DIMARCSYM
 70
    0
  9
$DIMLTYPE
  6

  9
$DIMLTEX1
  6

  9
$DIMLTEX2
  6

  9
$LUNITS
 70
    2
  9
$LUPREC
 70
    4
  9
$SKETCHINC
 40
1
  9
$FILLETRAD
 40
0
  9
$AUNITS
 70
    0
  9
$AUPREC
 70
    2
  9
$MENU
  1
.
  9
$ELEVATION
 40
0
  9
$PELEVATION
 40
0
  9
$THICKNESS
 40
0
  9
$LIMCHECK
 70
    0
  9
$CHAMFERA
 40
0
  9
$CHAMFERB
 40
0
  9
$CHAMFERC
 40
0
  9
$CHAMFERD
 40
0
  9
$SKPOLY
 70
    0
  9
$USRTIMER
 70
    1
  9
$ANGBASE
 50
0
  9
$ANGDIR
 70
    0
  9
$PDMODE
 70
   34
  9
$PDSIZE
 40
0
  9
$PLINEWID
 40
0
  9
$SPLFRAME
 70
    0
  9
$SPLINETYPE
 70
    2
  9
$SPLINESEGS
 70
    8
  9
$HANDSEED
  5
20000
  9
$SURFTAB1
 70
    6
  9
$SURFTAB2
 70
    6
  9
$SURFTYPE
 70
    6
  9
$SURFU
 70
    6
  9
$SURFV
 70
    6
  9
$UCSBASE
  2

  9
$UCSNAME
  2

  9
$UCSORG
 10
0
 20
0
 30
0
  9
$UCSXDIR
 10
1
 20
0
 30
0
  9
$UCSYDIR
 10
0
 20
1
 30
0
  9
$UCSORTHOREF
  2

  9
$UCSORTHOVIEW
 70
    0
  9
$UCSORGTOP
 10
0
 20
0
 30
0
  9
$UCSORGBOTTOM
 10
0
 20
0
 30
0
  9
$UCSORGLEFT
 10
0
 20
0
 30
0
  9
$UCSORGRIGHT
 10
0
 20
0
 30
0
  9
$UCSORGFRONT
 10
0
 20
0
 30
0
  9
$UCSORGBACK
 10
0
 20
0
 30
0
  9
$PUCSBASE
  2

  9
$PUCSNAME
  2

  9
$PUCSORG
 10
0
 20
0
 30
0
  9
$PUCSXDIR
 10
1
 20
0
 30
0
  9
$PUCSYDIR
 10
0
 20
1
 30
0
  9
$PUCSORTHOREF
  2

  9
$PUCSORTHOVIEW
 70
    0
  9
$PUCSORGTOP
 10
0
 20
0
 30
0
  9
$PUCSORGBOTTOM
 10
0
 20
0
 30
0
  9
$PUCSORGLEFT
 10
0
 20
0
 30
0
  9
$PUCSORGRIGHT
 10
0
 20
0
 30
0
  9
$PUCSORGFRONT
 10
0
 20
0
 30
0
  9
$PUCSORGBACK
 10
0
 20
0
 30
0
  9
$USERI1
 70
    0
  9
$USERI2
 70
    0
  9
$USERI3
 70
    0
  9
$USERI4
 70
    0
  9
$USERI5
 70
    0
  9
$USERR1
 40
0
  9
$USERR2
 40
0
  9
$USERR3
 40
0
  9
$USERR4
 40
0
  9
$USERR5
 40
0
  9
$WORLDVIEW
 70
    1
  9
$SHADEDGE
 70
    3
  9
$SHADEDIF
 70
   70
  9
$TILEMODE
 70
    1
  9
$MAXACTVP
 70
   64
  9
$PINSBASE
 10
0
 20
0
 30
0
  9
$PLIMCHECK
 70
    0
  9
$PEXTMIN
 10
0
 20
0
 30
0
  9
$PEXTMAX
 10
0
 20
0
 30
0
  9
$GRIDMODE
 70
    1
  9
$SNAPSTYLE
 70
    0
  9
$PLIMMIN
 10
0
 20
0
  9
$PLIMMAX
 10
210
 20
297
  9
$UNITMODE
 70
    0
  9
$VISRETAIN
 70
    1
  9
$PLINEGEN
 70
    0
  9
$PSLTSCALE
 70
    1
  9
$TREEDEPTH
 70
 3020
  9
$CMLSTYLE
  2
Standard
  9
$CMLJUST
 70
    0
  9
$CMLSCALE
 40
20
  9
$PROXYGRAPHICS
 70
    1
  9
$MEASUREMENT
 70
    1
  9
$CELWEIGHT
370
   -1
  9
$ENDCAPS
280
    0
  9
$JOINSTYLE
280
    0
  9
$LWDISPLAY
290
    0
  9
$INSUNITS
 70
    4
  9
$HYPERLINKBASE
  1

  9
$STYLESHEET
  1

  9
$XEDIT
290
    1
  9
$CEPSNTYPE
380
    0
  9
$PSTYLEMODE
290
    1
  9
$EXTNAMES
290
    1
  9
$PSVPSCALE
 40
1
  9
$OLESTARTUP
290
    0
  9
$SORTENTS
280
  127
  9
$INDEXCTL
280
    0
  9
$HIDETEXT
280
    1
  9
$XCLIPFRAME
290
    0
  9
$HALOGAP
280
    0
  9
$OBSCOLOR
 70
  257
  9
$OBSLTYPE
280
    0
  9
$INTERSECTIONDISPLAY
280
    0
  9
$INTERSECTIONCOLOR
 70
  257
  9
$DIMASSOC
280
    1
  9
$PROJECTNAME
  1

  9
$CAMERADISPLAY
290
    0
  9
$LENSLENGTH
 40
50
  9
$CAMERAHEIGHT
 40
0
  9
$STEPSPERSEC
 40
2
  9
$STEPSIZE
 40
50
  9
$3DDWFPREC
 40
2
  9
$PSOLWIDTH
 40
5
  9
$PSOLHEIGHT
 40
80
  9
$LOFTANG1
 40
1.570796326794897
  9
$LOFTANG2
 40
1.570796326794897
  9
$LOFTMAG1
 40
0
  9
$LOFTMAG2
 40
0
  9
$LOFTPARAM
 70
    7
  9
$LOFTNORMALS
280
    1
  9
$LATITUDE
 40
1
  9
$LONGITUDE
 40
1
  9
$NORTHDIRECTION
 40
0
  9
$TIMEZONE
 70
-8000
  9
$LIGHTGLYPHDISPLAY
280
    1
  9
$TILEMODELIGHTSYNCH
280
    1
  9
$SOLIDHIST
280
    1
  9
$SHOWHIST
280
    1
  9
$DWFFRAME
280
    2
  9
$DGNFRAME
280
    0
  9
$REALWORLDSCALE
290
    1
  9
$INTERFERECOLOR
 62
    1
  9
$CSHADOW
280
    0
  9
$SHADOWPLANELOCATION
 40
0
  0
ENDSEC
  0
SECTION
  2
CLASSES
  0
ENDSEC
  0
SECTION
  2
TABLES
  0
TABLE
  2
VPORT
  5
8
330
0
100
AcDbSymbolTable
 70
    1
  0
VPORT
  5
31
330
2
100
AcDbSymbolTableRecord
100
AcDbViewportTableRecord
  2
*ACTIVE
 70
    0
 10
0
 20
0
 11
1
 21
1
 12
109.7807553956835
 22
81.01582733812951
 13
0
 23
0
 14
10
 24
10
 15
10
 25
10
 16
0
 26
0
 36
1
 17
0
 27
0
 37
0
 40
124.1093525179856
 41
1.925347222222222
 42
50
 43
0
 44
0
 50
0
 51
0
 71
    0
 72
  100
 73
    1
 74
    3
 75
    0
 76
    1
 77
    0
 78
    0
281
    0
 65
    1
110
0
120
0
130
0
111
1
121
0
131
0
112
0
122
1
132
0
 79
    0
146
0
348
10020
 60
    7
 61
    5
292
1
282
    1
141
0
142
0
 63
  250
421
3358443
  0
ENDTAB
  0
TABLE
  2
LTYPE
  5
5
330
0
100
AcDbSymbolTable
 70
    4
  0
LTYPE
  5
14
330
5
100
AcDbSymbolTableRecord
100
AcDbLinetypeTableRecord
  2
ByBlock
 70
    0
  3

 72
   65
 73
    0
 40
0
  0
LTYPE
  5
15
330
5
100
AcDbSymbolTableRecord
100
AcDbLinetypeTableRecord
  2
ByLayer
 70
    0
  3

 72
   65
 73
    0
 40
0
  0
LTYPE
  5
16
330
5
100
AcDbSymbolTableRecord
100
AcDbLinetypeTableRecord
  2
Continuous
 70
    0
  3
Solid line
 72
   65
 73
    0
 40
0
  0
LTYPE
  5
32
330
5
100
AcDbSymbolTableRecord
100
AcDbLinetypeTableRecord
  2
DOT
 70
    0
  3
Dot . . . . . . . . . . . . . . . . . . . . . .
 72
   65
 73
    2
 40
6.35
 49
0
 74
    0
 49
-6.35
 74
    0
  0
LTYPE
  5
33
330
5
100
AcDbSymbolTableRecord
100
AcDbLinetypeTableRecord
  2
DOTTINY
 70
    0
  3
Dot (.15x) .....................................
 72
   65
 73
    2
 40
0.9525
 49
0
 74
    0
 49
-0.9525
 74
    0
  0
LTYPE
  5
34
330
5
100
AcDbSymbolTableRecord
100
AcDbLinetypeTableRecord
  2
DOT2
 70
    0
  3
Dot (.5x) .....................................
 72
   65
 73
    2
 40
3.175
 49
0
 74
    0
 49
-3.175
 74
    0
  0
LTYPE
  5
35
330
5
100
AcDbSymbolTableRecord
100
AcDbLinetypeTableRecord
  2
DOTX2
 70
    0
  3
Dot (2x) .  .  .  .  .  .  .  .  .  .  .  .  .
 72
   65
 73
    2
 40
12.7
 49
0
 74
    0
 49
-12.7
 74
    0
  0
LTYPE
  5
36
330
5
100
AcDbSymbolTableRecord
100
AcDbLinetypeTableRecord
  2
DASHED
 70
    0
  3
Dashed _ _ _ _ _ _ _ _ _ _ _ _ _ _ _ _ _
 72
   65
 73
    2
 40
19.05
 49
12.7
 74
    0
 49
-6.35
 74
    0
  0
LTYPE
  5
37
330
5
100
AcDbSymbolTableRecord
100
AcDbLinetypeTableRecord
  2
DASHEDTINY
 70
    0
  3
Dashed (.15x) _ _ _ _ _ _ _ _ _ _ _ _ _ _ _ _ _
 72
   65
 73
    2
 40
2.8575
 49
1.905
 74
    0
 49
-0.9525
 74
    0
  0
LTYPE
  5
38
330
5
100
AcDbSymbolTableRecord
100
AcDbLinetypeTableRecord
  2
DASHED2
 70
    0
  3
Dashed (.5x) _ _ _ _ _ _ _ _ _ _ _ _ _ _ _ _ _
 72
   65
 73
    2
 40
9.524999999999999
 49
6.35
 74
    0
 49
-3.175
 74
    0
  0
LTYPE
  5
39
330
5
100
AcDbSymbolTableRecord
100
AcDbLinetypeTableRecord
  2
DASHEDX2
 70
    0
  3
Dashed (2x) ____  ____  ____  ____  ____  ___
 72
   65
 73
    2
 40
38.09999999999999
 49
25.4
 74
    0
 49
-12.7
 74
    0
  0
LTYPE
  5
3A
330
5
100
AcDbSymbolTableRecord
100
AcDbLinetypeTableRecord
  2
DASHDOT
 70
    0
  3
Dash dot __ . __ . __ . __ . __ . __ . __ . __
 72
   65
 73
    4
 40
25.4
 49
12.7
 74
    0
 49
-6.35
 74
    0
 49
0
 74
    0
 49
-6.35
 74
    0
  0
LTYPE
  5
3B
330
5
100
AcDbSymbolTableRecord
100
AcDbLinetypeTableRecord
  2
DASHDOTTINY
 70
    0
  3
Dash dot (.15x) _._._._._._._._._._._._._._._.
 72
   65
 73
    4
 40
3.81
 49
1.905
 74
    0
 49
-0.9525
 74
    0
 49
0
 74
    0
 49
-0.9525
 74
    0
  0
LTYPE
  5
3C
330
5
100
AcDbSymbolTableRecord
100
AcDbLinetypeTableRecord
  2
DASHDOT2
 70
    0
  3
Dash dot (.5x) _._._._._._._._._._._._._._._.
 72
   65
 73
    4
 40
12.7
 49
6.35
 74
    0
 49
-3.175
 74
    0
 49
0
 74
    0
 49
-3.175
 74
    0
  0
LTYPE
  5
3D
330
5
100
AcDbSymbolTableRecord
100
AcDbLinetypeTableRecord
  2
DASHDOTX2
 70
    0
  3
Dash dot (2x) ____  .  ____  .  ____  .  ___
 72
   65
 73
    4
 40
50.8
 49
25.4
 74
    0
 49
-12.7
 74
    0
 49
0
 74
    0
 49
-12.7
 74
    0
  0
LTYPE
  5
3E
330
5
100
AcDbSymbolTableRecord
100
AcDbLinetypeTableRecord
  2
DIVIDE
 70
    0
  3
Divide ____ . . ____ . . ____ . . ____ . . ____
 72
   65
 73
    6
 40
31.75
 49
12.7
 74
    0
 49
-6.35
 74
    0
 49
0
 74
    0
 49
-6.35
 74
    0
 49
0
 74
    0
 49
-6.35
 74
    0
  0
LTYPE
  5
3F
330
5
100
AcDbSymbolTableRecord
100
AcDbLinetypeTableRecord
  2
DIVIDETINY
 70
    0
  3
Divide (.15x) __..__..__..__..__..__..__..__.._
 72
   65
 73
    6
 40
4.7625
 49
1.905
 74
    0
 49
-0.9525
 74
    0
 49
0
 74
    0
 49
-0.9525
 74
    0
 49
0
 74
    0
 49
-0.9525
 74
    0
  0
LTYPE
  5
40
330
5
100
AcDbSymbolTableRecord
100
AcDbLinetypeTableRecord
  2
DIVIDE2
 70
    0
  3
Divide (.5x) __..__..__..__..__..__..__..__.._
 72
   65
 73
    6
 40
15.875
 49
6.35
 74
    0
 49
-3.175
 74
    0
 49
0
 74
    0
 49
-3.175
 74
    0
 49
0
 74
    0
 49
-3.175
 74
    0
  0
LTYPE
  5
41
330
5
100
AcDbSymbolTableRecord
100
AcDbLinetypeTableRecord
  2
DIVIDEX2
 70
    0
  3
Divide (2x) ________  .  .  ________  .  .  _
 72
   65
 73
    6
 40
63.5
 49
25.4
 74
    0
 49
-12.7
 74
    0
 49
0
 74
    0
 49
-12.7
 74
    0
 49
0
 74
    0
 49
-12.7
 74
    0
  0
LTYPE
  5
42
330
5
100
AcDbSymbolTableRecord
100
AcDbLinetypeTableRecord
  2
BORDER
 70
    0
  3
Border __ __ . __ __ . __ __ . __ __ . __ __ .
 72
   65
 73
    6
 40
44.45
 49
12.7
 74
    0
 49
-6.35
 74
    0
 49
12.7
 74
    0
 49
-6.35
 74
    0
 49
0
 74
    0
 49
-6.35
 74
    0
  0
LTYPE
  5
43
330
5
100
AcDbSymbolTableRecord
100
AcDbLinetypeTableRecord
  2
BORDERTINY
 70
    0
  3
Border (.15x) __.__.__.__.__.__.__.__.__.__.__.
 72
   65
 73
    6
 40
6.6675
 49
1.905
 74
    0
 49
-0.9525
 74
    0
 49
1.905
 74
    0
 49
-0.9525
 74
    0
 49
0
 74
    0
 49
-0.9525
 74
    0
  0
LTYPE
  5
44
330
5
100
AcDbSymbolTableRecord
100
AcDbLinetypeTableRecord
  2
BORDER2
 70
    0
  3
Border (.5x) __.__.__.__.__.__.__.__.__.__.__.
 72
   65
 73
    6
 40
22.225
 49
6.35
 74
    0
 49
-3.175
 74
    0
 49
6.35
 74
    0
 49
-3.175
 74
    0
 49
0
 74
    0
 49
-3.175
 74
    0
  0
LTYPE
  5
45
330
5
100
AcDbSymbolTableRecord
100
AcDbLinetypeTableRecord
  2
BORDERX2
 70
    0
  3
Border (2x) ____  ____  .  ____  ____  .  ___
 72
   65
 73
    6
 40
88.89999999999999
 49
25.4
 74
    0
 49
-12.7
 74
    0
 49
25.4
 74
    0
 49
-12.7
 74
    0
 49
0
 74
    0
 49
-12.7
 74
    0
  0
LTYPE
  5
46
330
5
100
AcDbSymbolTableRecord
100
AcDbLinetypeTableRecord
  2
CENTER
 70
    0
  3
Center ____ _ ____ _ ____ _ ____ _ ____ _ ____
 72
   65
 73
    4
 40
50.8
 49
31.75
 74
    0
 49
-6.35
 74
    0
 49
6.35
 74
    0
 49
-6.35
 74
    0
  0
LTYPE
  5
47
330
5
100
AcDbSymbolTableRecord
100
AcDbLinetypeTableRecord
  2
CENTERTINY
 70
    0
  3
Center (.15x) ___ _ ___ _ ___ _ ___ _ ___ _ ___
 72
   65
 73
    4
 40
7.62
 49
4.7625
 74
    0
 49
-0.9525
 74
    0
 49
0.9525
 74
    0
 49
-0.9525
 74
    0
  0
LTYPE
  5
48
330
5
100
AcDbSymbolTableRecord
100
AcDbLinetypeTableRecord
  2
CENTER2
 70
    0
  3
Center (.5x) ___ _ ___ _ ___ _ ___ _ ___ _ ___
 72
   65
 73
    4
 40
28.575
 49
19.05
 74
    0
 49
-3.175
 74
    0
 49
3.175
 74
    0
 49
-3.175
 74
    0
  0
LTYPE
  5
49
330
5
100
AcDbSymbolTableRecord
100
AcDbLinetypeTableRecord
  2
CENTERX2
 70
    0
  3
Center (2x) ________  __  ________  __  _____
 72
   65
 73
    4
 40
101.6
 49
63.5
 74
    0
 49
-12.7
 74
    0
 49
12.7
 74
    0
 49
-12.7
 74
    0
  0
ENDTAB
  0
TABLE
  2
LAYER
  5
2
330
0
100
AcDbSymbolTable
 70
    1
  0
LAYER
  5
10
330
2
100
AcDbSymbolTableRecord
100
AcDbLayerTableRecord
  2
0
 70
    0
 62
    7
  6
CONTINUOUS
370
    0
390
F
  0
LAYER
  5
4A
330
2
100
AcDbSymbolTableRecord
100
AcDbLayerTableRecord
  2
cut
 70
    0
 62
    1
  6
CONTINUOUS
370
    0
390
F
  0
ENDTAB
  0
TABLE
  2
STYLE
  5
3
330
0
100
AcDbSymbolTable
 70
    3
  0
STYLE
  5
4B
330
2
100
AcDbSymbolTableRecord
100
AcDbTextStyleTableRecord
  2
Standard
 70
    0
 40
0
 41
1
 50
0
 71
    0
 42
1
  3
txt
  4

  0
ENDTAB
  0
TABLE
  2
VIEW
  5
6
330
0
100
AcDbSymbolTable
 70
    0
  0
ENDTAB
  0
TABLE
  2
UCS
  5
7
330
0
100
AcDbSymbolTable
 70
    0
  0
ENDTAB
  0
TABLE
  2
APPID
  5
9
330
0
100
AcDbSymbolTable
 70
    1
  0
APPID
  5
12
330
9
100
AcDbSymbolTableRecord
100
AcDbRegAppTableRecord
  2
ACAD
 70
    0
  0
APPID
  5
4C
330
9
100
AcDbSymbolTableRecord
100
AcDbRegAppTableRecord
  2
LibreCad
 70
    0
  0
ENDTAB
  0
TABLE
  2
DIMSTYLE
  5
A
330
0
100
AcDbSymbolTable
 70
    1
100
AcDbDimStyleTable
 71
    1
  0
DIMSTYLE
105
4D
330
A
100
AcDbSymbolTableRecord
100
AcDbDimStyleTableRecord
  2
Standard
 70
    0
 40
2.5
 41
2.5
 42
0.625
 43
0.38
 44
1.25
 45
0
 46
0
 47
0
 48
0
 49
1
140
2.5
141
0.09
142
0
143
25.4
144
1
145
0
146
1
147
0.625
148
0
 71
    0
 72
    0
 73
    0
 74
    1
 75
    0
 76
    0
 77
    0
 78
    8
 79
    0
170
    0
171
    2
172
    0
173
    0
174
    0
175
    0
176
    0
177
    0
178
    0
179
    0
271
    2
272
    4
273
    2
274
    2
275
    0
276
    0
277
    2
278
   44
279
    0
280
    0
281
    0
282
    0
283
    1
284
    0
285
    0
286
    0
288
    0
289
    3
340
STANDARD
341

371
   -2
372
   -2
  0
ENDTAB
  0
TABLE
  2
BLOCK_RECORD
  5
1
330
0
100
AcDbSymbolTable
 70
    2
  0
BLOCK_RECORD
  5
1F
330
1
100
AcDbSymbolTableRecord
100
AcDbBlockTableRecord
  2
*Model_Space
 70
    0
280
    1
281
    0
  0
BLOCK_RECORD
  5
1E
330
1
100
AcDbSymbolTableRecord
100
AcDbBlockTableRecord
  2
*Paper_Space
 70
    0
280
    1
281
    0
  0
ENDTAB
  0
ENDSEC
  0
SECTION
  2
BLOCKS
  0
BLOCK
  5
20
330
1F
100
AcDbEntity
  8
0
100
AcDbBlockBegin
  2
*Model_Space
 70
    0
 10
0
 20
0
 30
0
  3
*Model_Space
  1

  0
ENDBLK
  5
21
330
1F
100
AcDbEntity
  8
0
100
AcDbBlockEnd
  0
BLOCK
  5
1C
330
1B
100
AcDbEntity
  8
0
100
AcDbBlockBegin
  2
*Paper_Space
 70
    0
 10
0
 20
0
 30
0
  3
*Paper_Space
  1

  0
ENDBLK
  5
1D
330
1F
100
AcDbEntity
  8
0
100
AcDbBlockEnd
  0
ENDSEC
  0
SECTION
  2
ENTITIES
  0
ARC
  5
4E
100
AcDbEntity
  8
cut
  6
ByLayer
 62
  256
370
   -1
100
AcDbCircle
 10
98.9987507802748
 20
101.7342145196019
 40
0.1
100
AcDbArc
 50
215.7176796852463
 51
24.28232031475395
  0
ARC
  5
4F
100
AcDbEntity
  8
cut
  6
ByLayer
 62
  256
370
   -1
100
AcDbCircle
 10
117.3205080756888
 20
110
 40
20
100
AcDbArc
 50
155.7176796852502
 51
204.2823203147497
  0
ARC
  5
50
100
AcDbEntity
  8
cut
  6
ByLayer
 62
  256
370
   -1
100
AcDbCircle
 10
98.9987507802748
 20
118.2657854803981
 40
0.1
100
AcDbArc
 50
335.7176796852497
 51
144.2823203147537
  0
ARC
  5
51
100
AcDbEntity
  8
cut
  6
ByLayer
 62
  256
370
   -1
100
AcDbCircle
 10
82.67949192431115
 20
130
 40
20
100
AcDbArc
 50
275.7176796852518
 51
324.2823203147499
  0
ARC
  5
52
100
AcDbEntity
  8
cut
  6
ByLayer
 62
  256
370
   -1
100
AcDbCircle
 10
82.67949192431115
 20
90
 40
20
100
AcDbArc
 50
35.71767968525005
 51
84.28232031474822
  0
ARC
  5
53
100
AcDbEntity
  8
cut
  6
ByLayer
 62
  256
370
   -1
100
AcDbCircle
 10
84.68199036376109
 20
110
 40
0.1
100
AcDbArc
 50
95.7176796852762
 51
264.2823203147238
  0
ARC
  5
54
100
AcDbEntity
  8
cut
  6
ByLayer
 62
  256
370
   -1
100
AcDbCircle
 10
97.99750156055097
 20
99.99999999999997
 40
0.1
100
AcDbArc
 50
275.7176796852463
 51
84.28232031475395
  0
ARC
  5
55
100
AcDbEntity
  8
cut
  6
ByLayer
 62
  256
370
   -1
100
AcDbCircle
 10
100
 20
120.0000000000001
 40
20
100
AcDbArc
 50
215.7176796852502
 51
264.2823203147497
  0
ARC
  5
56
100
AcDbEntity
  8
cut
  6
ByLayer
 62
  256
370
   -1
100
AcDbCircle
 10
83.68074114403589
 20
108.2657854803981
 40
0.1
100
AcDbArc
 50
35.71767968524972
 51
204.2823203147537
  0
ARC
  5
57
100
AcDbEntity
  8
cut
  6
ByLayer
 62
  256
370
   -1
100
AcDbCircle
 10
65.35898384862185
 20
99.99999999999994
 40
20
100
AcDbArc
 50
335.7176796852518
 51
24.28232031474991
  0
ARC
  5
58
100
AcDbEntity
  8
cut
  6
ByLayer
 62
  256
370
   -1
100
AcDbCircle
 10
100
 20
79.99999999999993
 40
20
100
AcDbArc
 50
95.71767968525006
 51
144.2823203147482
  0
ARC
  5
59
100
AcDbEntity
  8
cut
  6
ByLayer
 62
  256
370
   -1
100
AcDbCircle
 10
83.68074114403589
 20
91.73421451960238
 40
0.1
100
AcDbArc
 50
155.7176796852762
 51
324.2823203147238
  0
ARC
  5
5A
100
AcDbEntity
  8
cut
  6
ByLayer
 62
  256
370
   -1
100
AcDbCircle
 10
98.9987507802748
 20
98.26578548039808
 40
0.1
100
AcDbArc
 50
335.7176796852463
 51
144.2823203147539
  0
ARC
  5
5B
100
AcDbEntity
  8
cut
  6
ByLayer
 62
  256
370
   -1
100
AcDbCircle
 10
82.67949192431115
 20
110.0000000000001
 40
20
100
AcDbArc
 50
275.7176796852502
 51
324.2823203147497
  0
ARC
  5
5C
100
AcDbEntity
  8
cut
  6
ByLayer
 62
  256
370
   -1
100
AcDbCircle
 10
84.68199036376109
 20
89.99999999999997
 40
0.1
100
AcDbArc
 50
95.71767968524971
 51
264.2823203147537
  0
ARC
  5
5D
100
AcDbEntity
  8
cut
  6
ByLayer
 62
  256
370
   -1
100
AcDbCircle
 10
82.67949192431115
 20
69.99999999999994
 40
20
100
AcDbArc
 50
35.7176796852518
 51
84.2823203147499
  0
ARC
  5
5E
100
AcDbEntity
  8
cut
  6
ByLayer
 62
  256
370
   -1
100
AcDbCircle
 10
117.3205080756888
 20
89.99999999999993
 40
20
100
AcDbArc
 50
155.71767968525
 51
204.2823203147482
  0
ARC
  5
5F
100
AcDbEntity
  8
cut
  6
ByLayer
 62
  256
370
   -1
100
AcDbCircle
 10
98.9987507802748
 20
81.73421451960238
 40
0.1
100
AcDbArc
 50
215.7176796852762
 51
24.2823203147238
  0
ARC
  5
60
100
AcDbEntity
  8
cut
  6
ByLayer
 62
  256
370
   -1
100
AcDbCircle
 10
101.0012492197252
 20
98.26578548039811
 40
0.1
100
AcDbArc
 50
35.71767968524626
 51
204.2823203147539
  0
ARC
  5
61
100
AcDbEntity
  8
cut
  6
ByLayer
 62
  256
370
   -1
100
AcDbCircle
 10
82.67949192431115
 20
90
 40
20
100
AcDbArc
 50
335.7176796852502
 51
24.28232031474976
  0
ARC
  5
62
100
AcDbEntity
  8
cut
  6
ByLayer
 62
  256
370
   -1
100
AcDbCircle
 10
101.0012492197252
 20
81.73421451960189
 40
0.1
100
AcDbArc
 50
155.7176796852497
 51
324.2823203147537
  0
ARC
  5
63
100
AcDbEntity
  8
cut
  6
ByLayer
 62
  256
370
   -1
100
AcDbCircle
 10
117.3205080756888
 20
70
 40
20
100
AcDbArc
 50
95.71767968525178
 51
144.2823203147499
  0
ARC
  5
64
100
AcDbEntity
  8
cut
  6
ByLayer
 62
  256
370
   -1
100
AcDbCircle
 10
117.3205080756888
 20
110
 40
20
100
AcDbArc
 50
215.7176796852501
 51
264.2823203147482
  0
ARC
  5
65
100
AcDbEntity
  8
cut
  6
ByLayer
 62
  256
370
   -1
100
AcDbCircle
 10
115.3180096362389
 20
90
 40
0.1
100
AcDbArc
 50
275.7176796852762
 51
84.28232031472379
  0
ARC
  5
66
100
AcDbEntity
  8
cut
  6
ByLayer
 62
  256
370
   -1
100
AcDbCircle
 10
102.002498439449
 20
100
 40
0.1
100
AcDbArc
 50
95.71767968524624
 51
264.2823203147539
  0
ARC
  5
67
100
AcDbEntity
  8
cut
  6
ByLayer
 62
  256
370
   -1
100
AcDbCircle
 10
100
 20
79.99999999999993
 40
20
100
AcDbArc
 50
35.71767968525022
 51
84.28232031474968
  0
ARC
  5
68
100
AcDbEntity
  8
cut
  6
ByLayer
 62
  256
370
   -1
100
AcDbCircle
 10
116.3192588559641
 20
91.73421451960191
 40
0.1
100
AcDbArc
 50
215.7176796852497
 51
24.28232031475373
  0
ARC
  5
69
100
AcDbEntity
  8
cut
  6
ByLayer
 62
  256
370
   -1
100
AcDbCircle
 10
134.6410161513782
 20
100
 40
20
100
AcDbArc
 50
155.7176796852518
 51
204.2823203147499
  0
ARC
  5
6A
100
AcDbEntity
  8
cut
  6
ByLayer
 62
  256
370
   -1
100
AcDbCircle
 10
100
 20
120.0000000000001
 40
20
100
AcDbArc
 50
275.7176796852501
 51
324.2823203147482
  0
ARC
  5
6B
100
AcDbEntity
  8
cut
  6
ByLayer
 62
  256
370
   -1
100
AcDbCircle
 10
116.3192588559641
 20
108.2657854803976
 40
0.1
100
AcDbArc
 50
335.7176796852762
 51
144.2823203147238
  0
ARC
  5
6C
100
AcDbEntity
  8
cut
  6
ByLayer
 62
  256
370
   -1
100
AcDbCircle
 10
101.0012492197252
 20
101.7342145196019
 40
0.1
100
AcDbArc
 50
155.7176796852463
 51
324.2823203147539
  0
ARC
  5
6D
100
AcDbEntity
  8
cut
  6
ByLayer
 62
  256
370
   -1
100
AcDbCircle
 10
117.3205080756888
 20
89.99999999999991
 40
20
100
AcDbArc
 50
95.7176796852502
 51
144.2823203147497
  0
ARC
  5
6E
100
AcDbEntity
  8
cut
  6
ByLayer
 62
  256
370
   -1
100
AcDbCircle
 10
115.3180096362389
 20
110
 40
0.1
100
AcDbArc
 50
275.7176796852497
 51
84.2823203147537
  0
ARC
  5
6F
100
AcDbEntity
  8
cut
  6
ByLayer
 62
  256
370
   -1
100
AcDbCircle
 10
117.3205080756888
 20
130.0000000000001
 40
20
100
AcDbArc
 50
215.7176796852517
 51
264.2823203147499
  0
ARC
  5
70
100
AcDbEntity
  8
cut
  6
ByLayer
 62
  256
370
   -1
100
AcDbCircle
 10
82.67949192431115
 20
110.0000000000001
 40
20
100
AcDbArc
 50
335.7176796852501
 51
24.28232031474818
  0
ARC
  5
71
100
AcDbEntity
  8
cut
  6
ByLayer
 62
  256
370
   -1
100
AcDbCircle
 10
101.0012492197252
 20
118.2657854803976
 40
0.1
100
AcDbArc
 50
35.71767968527618
 51
204.2823203147238
  0
ARC
  5
72
100
AcDbEntity
  8
cut
  6
ByLayer
 62
  256
370
   -1
100
AcDbCircle
 10
98.9987507802748
 20
121.7342145196019
 40
0.1
100
AcDbArc
 50
215.7176796852463
 51
24.28232031475395
  0
ARC
  5
73
100
AcDbEntity
  8
cut
  6
ByLayer
 62
  256
370
   -1
100
AcDbCircle
 10
117.3205080756888
 20
130
 40
20
100
AcDbArc
 50
155.7176796852502
 51
204.2823203147497
  0
ARC
  5
74
100
AcDbEntity
  8
cut
  6
ByLayer
 62
  256
370
   -1
100
AcDbCircle
 10
98.9987507802748
 20
138.2657854803981
 40
0.1
100
AcDbArc
 50
335.7176796852497
 51
144.2823203147537
  0
ARC
  5
75
100
AcDbEntity
  8
cut
  6
ByLayer
 62
  256
370
   -1
100
AcDbCircle
 10
82.67949192431115
 20
150
 40
20
100
AcDbArc
 50
275.7176796852518
 51
324.2823203147499
  0
ARC
  5
76
100
AcDbEntity
  8
cut
  6
ByLayer
 62
  256
370
   -1
100
AcDbCircle
 10
82.67949192431115
 20
110
 40
20
100
AcDbArc
 50
35.71767968525005
 51
84.28232031474822
  0
ARC
  5
77
100
AcDbEntity
  8
cut
  6
ByLayer
 62
  256
370
   -1
100
AcDbCircle
 10
84.68199036376109
 20
130
 40
0.1
100
AcDbArc
 50
95.7176796852762
 51
264.2823203147238
  0
ARC
  5
78
100
AcDbEntity
  8
cut
  6
ByLayer
 62
  256
370
   -1
100
AcDbCircle
 10
102.002498439449
 20
120
 40
0.1
100
AcDbArc
 50
95.71767968524624
 51
264.2823203147539
  0
ARC
  5
79
100
AcDbEntity
  8
cut
  6
ByLayer
 62
  256
370
   -1
100
AcDbCircle
 10
100
 20
99.99999999999994
 40
20
100
AcDbArc
 50
35.71767968525022
 51
84.28232031474968
  0
ARC
  5
7A
100
AcDbEntity
  8
cut
  6
ByLayer
 62
  256
370
   -1
100
AcDbCircle
 10
116.3192588559641
 20
111.7342145196019
 40
0.1
100
AcDbArc
 50
215.7176796852497
 51
24.28232031475373
  0
ARC
  5
7B
100
AcDbEntity
  8
cut
  6
ByLayer
 62
  256
370
   -1
100
AcDbCircle
 10
134.6410161513782
 20
120.0000000000001
 40
20
100
AcDbArc
 50
155.7176796852518
 51
204.2823203147499
  0
ARC
  5
7C
100
AcDbEntity
  8
cut
  6
ByLayer
 62
  256
370
   -1
100
AcDbCircle
 10
100
 20
140.0000000000001
 40
20
100
AcDbArc
 50
275.7176796852501
 51
324.2823203147482
  0
ARC
  5
7D
100
AcDbEntity
  8
cut
  6
ByLayer
 62
  256
370
   -1
100
AcDbCircle
 10
116.3192588559641
 20
128.2657854803976
 40
0.1
100
AcDbArc
 50
335.7176796852762
 51
144.2823203147238
  0
ARC
  5
7E
100
AcDbEntity
  8
cut
  6
ByLayer
 62
  256
370
   -1
100
AcDbCircle
 10
101.0012492197252
 20
121.7342145196019
 40
0.1
100
AcDbArc
 50
155.7176796852463
 51
324.2823203147539
  0
ARC
  5
7F
100
AcDbEntity
  8
cut
  6
ByLayer
 62
  256
370
   -1
100
AcDbCircle
 10
117.3205080756888
 20
109.9999999999999
 40
20
100
AcDbArc
 50
95.7176796852502
 51
144.2823203147497
  0
ARC
  5
80
100
AcDbEntity
  8
cut
  6
ByLayer
 62
  256
370
   -1
100
AcDbCircle
 10
115.3180096362389
 20
130
 40
0.1
100
AcDbArc
 50
275.7176796852497
 51
84.2823203147537
  0
ARC
  5
81
100
AcDbEntity
  8
cut
  6
ByLayer
 62
  256
370
   -1
100
AcDbCircle
 10
117.3205080756888
 20
150.0000000000001
 40
20
100
AcDbArc
 50
215.7176796852517
 51
264.2823203147499
  0
ARC
  5
82
100
AcDbEntity
  8
cut
  6
ByLayer
 62
  256
370
   -1
100
AcDbCircle
 10
82.67949192431115
 20
130.0000000000001
 40
20
100
AcDbArc
 50
335.7176796852501
 51
24.28232031474818
  0
ARC
  5
83
100
AcDbEntity
  8
cut
  6
ByLayer
 62
  256
370
   -1
100
AcDbCircle
 10
101.0012492197252
 20
138.2657854803976
 40
0.1
100
AcDbArc
 50
35.71767968527618
 51
204.2823203147238
  0
ARC
  5
84
100
AcDbEntity
  8
cut
  6
ByLayer
 62
  256
370
   -1
100
AcDbCircle
 10
80.67699348486212
 20
110
 40
0.1
100
AcDbArc
 50
275.7176796852463
 51
84.28232031475395
  0
ARC
  5
85
100
AcDbEntity
  8
cut
  6
ByLayer
 62
  256
370
   -1
100
AcDbCircle
 10
82.67949192431115
 20
130.0000000000001
 40
20
100
AcDbArc
 50
215.7176796852502
 51
264.2823203147497
  0
ARC
  5
86
100
AcDbEntity
  8
cut
  6
ByLayer
 62
  256
370
   -1
100
AcDbCircle
 10
66.36023306834704
 20
118.2657854803981
 40
0.1
100
AcDbArc
 50
35.71767968524972
 51
204.2823203147537
  0
ARC
  5
87
100
AcDbEntity
  8
cut
  6
ByLayer
 62
  256
370
   -1
100
AcDbCircle
 10
48.038475772933
 20
109.9999999999999
 40
20
100
AcDbArc
 50
335.7176796852518
 51
24.28232031474991
  0
ARC
  5
88
100
AcDbEntity
  8
cut
  6
ByLayer
 62
  256
370
   -1
100
AcDbCircle
 10
82.67949192431115
 20
89.99999999999994
 40
20
100
AcDbArc
 50
95.71767968525006
 51
144.2823203147482
  0
ARC
  5
89
100
AcDbEntity
  8
cut
  6
ByLayer
 62
  256
370
   -1
100
AcDbCircle
 10
66.36023306834704
 20
101.7342145196023
 40
0.1
100
AcDbArc
 50
155.7176796852762
 51
324.2823203147238
  0
ARC
  5
8A
100
AcDbEntity
  8
cut
  6
ByLayer
 62
  256
370
   -1
100
AcDbCircle
 10
83.68074114403589
 20
111.734214519602
 40
0.1
100
AcDbArc
 50
155.7176796852462
 51
324.2823203147539
  0
ARC
  5
8B
100
AcDbEntity
  8
cut
  6
ByLayer
 62
  256
370
   -1
100
AcDbCircle
 10
100
 20
99.99999999999997
 40
20
100
AcDbArc
 50
95.71767968525022
 51
144.2823203147497
  0
ARC
  5
8C
100
AcDbEntity
  8
cut
  6
ByLayer
 62
  256
370
   -1
100
AcDbCircle
 10
97.99750156055097
 20
120
 40
0.1
100
AcDbArc
 50
275.7176796852497
 51
84.28232031475372
  0
ARC
  5
8D
100
AcDbEntity
  8
cut
  6
ByLayer
 62
  256
370
   -1
100
AcDbCircle
 10
100
 20
140.0000000000002
 40
20
100
AcDbArc
 50
215.7176796852517
 51
264.2823203147498
  0
ARC
  5
8E
100
AcDbEntity
  8
cut
  6
ByLayer
 62
  256
370
   -1
100
AcDbCircle
 10
65.35898384862185
 20
120
 40
20
100
AcDbArc
 50
335.7176796852501
 51
24.28232031474818
  0
ARC
  5
8F
100
AcDbEntity
  8
cut
  6
ByLayer
 62
  256
370
   -1
100
AcDbCircle
 10
83.68074114403589
 20
128.2657854803975
 40
0.1
100
AcDbArc
 50
35.71767968527618
 51
204.2823203147238
  0
ARC
  5
90
100
AcDbEntity
  8
cut
  6
ByLayer
 62
  256
370
   -1
100
AcDbCircle
 10
81.67824270458595
 20
111.7342145196019
 40
0.1
100
AcDbArc
 50
215.7176796852463
 51
24.28232031475388
  0
ARC
  5
91
100
AcDbEntity
  8
cut
  6
ByLayer
 62
  256
370
   -1
100
AcDbCircle
 10
100
 20
120
 40
20
100
AcDbArc
 50
155.7176796852502
 51
204.2823203147497
  0
ARC
  5
92
100
AcDbEntity
  8
cut
  6
ByLayer
 62
  256
370
   -1
100
AcDbCircle
 10
81.67824270458595
 20
128.2657854803981
 40
0.1
100
AcDbArc
 50
335.7176796852497
 51
144.2823203147537
  0
ARC
  5
93
100
AcDbEntity
  8
cut
  6
ByLayer
 62
  256
370
   -1
100
AcDbCircle
 10
65.35898384862185
 20
140.0000000000001
 40
20
100
AcDbArc
 50
275.7176796852517
 51
324.2823203147499
  0
ARC
  5
94
100
AcDbEntity
  8
cut
  6
ByLayer
 62
  256
370
   -1
100
AcDbCircle
 10
65.35898384862185
 20
99.99999999999999
 40
20
100
AcDbArc
 50
35.71767968525003
 51
84.28232031474818
  0
ARC
  5
95
100
AcDbEntity
  8
cut
  6
ByLayer
 62
  256
370
   -1
100
AcDbCircle
 10
67.36148228807315
 20
120
 40
0.1
100
AcDbArc
 50
95.71767968527618
 51
264.2823203147238
  0
ARC
  5
96
100
AcDbEntity
  8
cut
  6
ByLayer
 62
  256
370
   -1
100
AcDbCircle
 10
81.67824270458595
 20
88.26578548039808
 40
0.1
100
AcDbArc
 50
335.7176796852463
 51
144.2823203147539
  0
ARC
  5
97
100
AcDbEntity
  8
cut
  6
ByLayer
 62
  256
370
   -1
100
AcDbCircle
 10
65.35898384862185
 20
100.0000000000001
 40
20
100
AcDbArc
 50
275.7176796852502
 51
324.2823203147497
  0
ARC
  5
98
100
AcDbEntity
  8
cut
  6
ByLayer
 62
  256
370
   -1
100
AcDbCircle
 10
67.36148228807178
 20
79.99999999999999
 40
0.1
100
AcDbArc
 50
95.71767968524971
 51
264.2823203147537
  0
ARC
  5
99
100
AcDbEntity
  8
cut
  6
ByLayer
 62
  256
370
   -1
100
AcDbCircle
 10
65.35898384862185
 20
59.99999999999994
 40
20
100
AcDbArc
 50
35.7176796852518
 51
84.2823203147499
  0
ARC
  5
9A
100
AcDbEntity
  8
cut
  6
ByLayer
 62
  256
370
   -1
100
AcDbCircle
 10
100
 20
79.99999999999994
 40
20
100
AcDbArc
 50
155.71767968525
 51
204.2823203147482
  0
ARC
  5
9B
100
AcDbEntity
  8
cut
  6
ByLayer
 62
  256
370
   -1
100
AcDbCircle
 10
81.67824270458595
 20
71.73421451960228
 40
0.1
100
AcDbArc
 50
215.7176796852762
 51
24.2823203147238
  0
ARC
  5
9C
100
AcDbEntity
  8
cut
  6
ByLayer
 62
  256
370
   -1
100
AcDbCircle
 10
81.67824270458595
 20
91.73421451960193
 40
0.1
100
AcDbArc
 50
215.7176796852462
 51
24.28232031475393
  0
ARC
  5
9D
100
AcDbEntity
  8
cut
  6
ByLayer
 62
  256
370
   -1
100
AcDbCircle
 10
100
 20
100
 40
20
100
AcDbArc
 50
155.7176796852502
 51
204.2823203147497
  0
ARC
  5
9E
100
AcDbEntity
  8
cut
  6
ByLayer
 62
  256
370
   -1
100
AcDbCircle
 10
81.67824270458595
 20
108.2657854803982
 40
0.1
100
AcDbArc
 50
335.7176796852496
 51
144.2823203147537
  0
ARC
  5
9F
100
AcDbEntity
  8
cut
  6
ByLayer
 62
  256
370
   -1
100
AcDbCircle
 10
65.35898384862185
 20
120.0000000000001
 40
20
100
AcDbArc
 50
275.7176796852517
 51
324.2823203147498
  0
ARC
  5
A0
100
AcDbEntity
  8
cut
  6
ByLayer
 62
  256
370
   -1
100
AcDbCircle
 10
65.35898384862185
 20
79.99999999999997
 40
20
100
AcDbArc
 50
35.71767968525008
 51
84.28232031474816
  0
ARC
  5
A1
100
AcDbEntity
  8
cut
  6
ByLayer
 62
  256
370
   -1
100
AcDbCircle
 10
67.36148228807315
 20
99.9999999999999
 40
0.1
100
AcDbArc
 50
95.71767968527617
 51
264.2823203147237
  0
ARC
  5
A2
100
AcDbEntity
  8
cut
  6
ByLayer
 62
  256
370
   -1
100
AcDbCircle
 10
80.67699348486212
 20
90.00000000000001
 40
0.1
100
AcDbArc
 50
275.7176796852463
 51
84.28232031475386
  0
ARC
  5
A3
100
AcDbEntity
  8
cut
  6
ByLayer
 62
  256
370
   -1
100
AcDbCircle
 10
82.67949192431115
 20
110.0000000000001
 40
20
100
AcDbArc
 50
215.7176796852502
 51
264.2823203147497
  0
ARC
  5
A4
100
AcDbEntity
  8
cut
  6
ByLayer
 62
  256
370
   -1
100
AcDbCircle
 10
66.36023306834704
 20
98.26578548039812
 40
0.1
100
AcDbArc
 50
35.71767968524966
 51
204.2823203147537
  0
ARC
  5
A5
100
AcDbEntity
  8
cut
  6
ByLayer
 62
  256
370
   -1
100
AcDbCircle
 10
48.038475772933
 20
90.00000000000006
 40
20
100
AcDbArc
 50
335.7176796852517
 51
24.28232031474986
  0
ARC
  5
A6
100
AcDbEntity
  8
cut
  6
ByLayer
 62
  256
370
   -1
100
AcDbCircle
 10
82.67949192431115
 20
69.9999999999999
 40
20
100
AcDbArc
 50
95.71767968525
 51
144.2823203147482
  0
ARC
  5
A7
100
AcDbEntity
  8
cut
  6
ByLayer
 62
  256
370
   -1
100
AcDbCircle
 10
66.36023306834704
 20
81.73421451960236
 40
0.1
100
AcDbArc
 50
155.7176796852762
 51
324.2823203147238
  0
ARC
  5
A8
100
AcDbEntity
  8
cut
  6
ByLayer
 62
  256
370
   -1
100
AcDbCircle
 10
101.0012492197252
 20
78.26578548039811
 40
0.1
100
AcDbArc
 50
35.71767968524626
 51
204.2823203147539
  0
ARC
  5
A9
100
AcDbEntity
  8
cut
  6
ByLayer
 62
  256
370
   -1
100
AcDbCircle
 10
82.67949192431115
 20
70
 40
20
100
AcDbArc
 50
335.7176796852502
 51
24.28232031474976
  0
ARC
  5
AA
100
AcDbEntity
  8
cut
  6
ByLayer
 62
  256
370
   -1
100
AcDbCircle
 10
101.0012492197252
 20
61.73421451960189
 40
0.1
100
AcDbArc
 50
155.7176796852497
 51
324.2823203147537
  0
ARC
  5
AB
100
AcDbEntity
  8
cut
  6
ByLayer
 62
  256
370
   -1
100
AcDbCircle
 10
117.3205080756888
 20
50
 40
20
100
AcDbArc
 50
95.71767968525178
 51
144.2823203147499
  0
ARC
  5
AC
100
AcDbEntity
  8
cut
  6
ByLayer
 62
  256
370
   -1
100
AcDbCircle
 10
117.3205080756888
 20
90
 40
20
100
AcDbArc
 50
215.7176796852501
 51
264.2823203147482
  0
ARC
  5
AD
100
AcDbEntity
  8
cut
  6
ByLayer
 62
  256
370
   -1
100
AcDbCircle
 10
115.3180096362389
 20
70
 40
0.1
100
AcDbArc
 50
275.7176796852762
 51
84.28232031472379
  0
ARC
  5
AE
100
AcDbEntity
  8
cut
  6
ByLayer
 62
  256
370
   -1
100
AcDbCircle
 10
97.99750156055097
 20
79.99999999999997
 40
0.1
100
AcDbArc
 50
275.7176796852463
 51
84.28232031475392
  0
ARC
  5
AF
100
AcDbEntity
  8
cut
  6
ByLayer
 62
  256
370
   -1
100
AcDbCircle
 10
100
 20
100.0000000000001
 40
20
100
AcDbArc
 50
215.7176796852502
 51
264.2823203147497
  0
ARC
  5
B0
100
AcDbEntity
  8
cut
  6
ByLayer
 62
  256
370
   -1
100
AcDbCircle
 10
83.68074114403589
 20
88.26578548039811
 40
0.1
100
AcDbArc
 50
35.71767968524966
 51
204.2823203147537
  0
ARC
  5
B1
100
AcDbEntity
  8
cut
  6
ByLayer
 62
  256
370
   -1
100
AcDbCircle
 10
65.35898384862185
 20
79.99999999999994
 40
20
100
AcDbArc
 50
335.7176796852518
 51
24.28232031474986
  0
ARC
  5
B2
100
AcDbEntity
  8
cut
  6
ByLayer
 62
  256
370
   -1
100
AcDbCircle
 10
100
 20
59.99999999999994
 40
20
100
AcDbArc
 50
95.71767968525006
 51
144.2823203147482
  0
ARC
  5
B3
100
AcDbEntity
  8
cut
  6
ByLayer
 62
  256
370
   -1
100
AcDbCircle
 10
83.68074114403589
 20
71.73421451960238
 40
0.1
100
AcDbArc
 50
155.7176796852762
 51
324.2823203147238
  0
ARC
  5
B4
100
AcDbEntity
  8
cut
  6
ByLayer
 62
  256
370
   -1
100
AcDbCircle
 10
98.9987507802748
 20
78.26578548039808
 40
0.1
100
AcDbArc
 50
335.7176796852463
 51
144.2823203147539
  0
ARC
  5
B5
100
AcDbEntity
  8
cut
  6
ByLayer
 62
  256
370
   -1
100
AcDbCircle
 10
82.67949192431115
 20
90.00000000000009
 40
20
100
AcDbArc
 50
275.7176796852502
 51
324.2823203147497
  0
ARC
  5
B6
100
AcDbEntity
  8
cut
  6
ByLayer
 62
  256
370
   -1
100
AcDbCircle
 10
84.68199036376109
 20
70
 40
0.1
100
AcDbArc
 50
95.71767968524971
 51
264.2823203147537
  0
ARC
  5
B7
100
AcDbEntity
  8
cut
  6
ByLayer
 62
  256
370
   -1
100
AcDbCircle
 10
82.67949192431115
 20
49.99999999999994
 40
20
100
AcDbArc
 50
35.7176796852517
 51
84.2823203147499
  0
ARC
  5
B8
100
AcDbEntity
  8
cut
  6
ByLayer
 62
  256
370
   -1
100
AcDbCircle
 10
117.3205080756888
 20
69.99999999999991
 40
20
100
AcDbArc
 50
155.71767968525
 51
204.2823203147482
  0
ARC
  5
B9
100
AcDbEntity
  8
cut
  6
ByLayer
 62
  256
370
   -1
100
AcDbCircle
 10
98.9987507802748
 20
61.73421451960238
 40
0.1
100
AcDbArc
 50
215.7176796852762
 51
24.2823203147238
  0
ARC
  5
BA
100
AcDbEntity
  8
cut
  6
ByLayer
 62
  256
370
   -1
100
AcDbCircle
 10
119.3230065151379
 20
90.00000000000001
 40
0.1
100
AcDbArc
 50
95.71767968524624
 51
264.2823203147539
  0
ARC
  5
BB
100
AcDbEntity
  8
cut
  6
ByLayer
 62
  256
370
   -1
100
AcDbCircle
 10
117.3205080756888
 20
69.99999999999993
 40
20
100
AcDbArc
 50
35.71767968525022
 51
84.28232031474968
  0
ARC
  5
BC
100
AcDbEntity
  8
cut
  6
ByLayer
 62
  256
370
   -1
100
AcDbCircle
 10
133.639766931653
 20
81.73421451960191
 40
0.1
100
AcDbArc
 50
215.7176796852497
 51
24.28232031475373
  0
ARC
  5
BD
100
AcDbEntity
  8
cut
  6
ByLayer
 62
  256
370
   -1
100
AcDbCircle
 10
151.961524227067
 20
90.00000000000004
 40
20
100
AcDbArc
 50
155.7176796852518
 51
204.2823203147499
  0
ARC
  5
BE
100
AcDbEntity
  8
cut
  6
ByLayer
 62
  256
370
   -1
100
AcDbCircle
 10
117.3205080756888
 20
110.0000000000001
 40
20
100
AcDbArc
 50
275.7176796852501
 51
324.2823203147482
  0
ARC
  5
BF
100
AcDbEntity
  8
cut
  6
ByLayer
 62
  256
370
   -1
100
AcDbCircle
 10
133.639766931653
 20
98.26578548039771
 40
0.1
100
AcDbArc
 50
335.7176796852762
 51
144.2823203147238
  0
ARC
  5
C0
100
AcDbEntity
  8
cut
  6
ByLayer
 62
  256
370
   -1
100
AcDbCircle
 10
116.3192588559641
 20
88.26578548039804
 40
0.1
100
AcDbArc
 50
335.7176796852462
 51
144.2823203147539
  0
ARC
  5
C1
100
AcDbEntity
  8
cut
  6
ByLayer
 62
  256
370
   -1
100
AcDbCircle
 10
100
 20
100
 40
20
100
AcDbArc
 50
275.7176796852502
 51
324.2823203147497
  0
ARC
  5
C2
100
AcDbEntity
  8
cut
  6
ByLayer
 62
  256
370
   -1
100
AcDbCircle
 10
102.002498439449
 20
79.99999999999996
 40
0.1
100
AcDbArc
 50
95.71767968524965
 51
264.2823203147537
  0
ARC
  5
C3
100
AcDbEntity
  8
cut
  6
ByLayer
 62
  256
370
   -1
100
AcDbCircle
 10
100
 20
59.99999999999984
 40
20
100
AcDbArc
 50
35.71767968525175
 51
84.28232031474984
  0
ARC
  5
C4
100
AcDbEntity
  8
cut
  6
ByLayer
 62
  256
370
   -1
100
AcDbCircle
 10
134.6410161513782
 20
79.99999999999996
 40
20
100
AcDbArc
 50
155.71767968525
 51
204.2823203147482
  0
ARC
  5
C5
100
AcDbEntity
  8
cut
  6
ByLayer
 62
  256
370
   -1
100
AcDbCircle
 10
116.3192588559641
 20
71.73421451960249
 40
0.1
100
AcDbArc
 50
215.7176796852761
 51
24.28232031472375
  0
ARC
  5
C6
100
AcDbEntity
  8
cut
  6
ByLayer
 62
  256
370
   -1
100
AcDbCircle
 10
118.321757295414
 20
88.26578548039805
 40
0.1
100
AcDbArc
 50
35.71767968524626
 51
204.2823203147539
  0
ARC
  5
C7
100
AcDbEntity
  8
cut
  6
ByLayer
 62
  256
370
   -1
100
AcDbCircle
 10
100
 20
79.99999999999997
 40
20
100
AcDbArc
 50
335.7176796852502
 51
24.2823203147497
  0
ARC
  5
C8
100
AcDbEntity
  8
cut
  6
ByLayer
 62
  256
370
   -1
100
AcDbCircle
 10
118.321757295414
 20
71.73421451960186
 40
0.1
100
AcDbArc
 50
155.7176796852497
 51
324.2823203147537
  0
ARC
  5
C9
100
AcDbEntity
  8
cut
  6
ByLayer
 62
  256
370
   -1
100
AcDbCircle
 10
134.6410161513782
 20
59.99999999999989
 40
20
100
AcDbArc
 50
95.71767968525168
 51
144.2823203147499
  0
ARC
  5
CA
100
AcDbEntity
  8
cut
  6
ByLayer
 62
  256
370
   -1
100
AcDbCircle
 10
134.6410161513782
 20
100
 40
20
100
AcDbArc
 50
215.7176796852501
 51
264.2823203147482
  0
ARC
  5
CB
100
AcDbEntity
  8
cut
  6
ByLayer
 62
  256
370
   -1
100
AcDbCircle
 10
132.6385177119269
 20
80
 40
0.1
100
AcDbArc
 50
275.7176796852762
 51
84.28232031472379
  0
ARC
  5
CC
100
AcDbEntity
  8
cut
  6
ByLayer
 62
  256
370
   -1
100
AcDbCircle
 10
118.321757295414
 20
111.7342145196019
 40
0.1
100
AcDbArc
 50
155.7176796852463
 51
324.2823203147539
  0
ARC
  5
CD
100
AcDbEntity
  8
cut
  6
ByLayer
 62
  256
370
   -1
100
AcDbCircle
 10
134.6410161513782
 20
99.9999999999999
 40
20
100
AcDbArc
 50
95.7176796852502
 51
144.2823203147497
  0
ARC
  5
CE
100
AcDbEntity
  8
cut
  6
ByLayer
 62
  256
370
   -1
100
AcDbCircle
 10
132.6385177119282
 20
120
 40
0.1
100
AcDbArc
 50
275.7176796852497
 51
84.2823203147537
  0
ARC
  5
CF
100
AcDbEntity
  8
cut
  6
ByLayer
 62
  256
370
   -1
100
AcDbCircle
 10
134.6410161513782
 20
140.0000000000001
 40
20
100
AcDbArc
 50
215.7176796852517
 51
264.2823203147499
  0
ARC
  5
D0
100
AcDbEntity
  8
cut
  6
ByLayer
 62
  256
370
   -1
100
AcDbCircle
 10
100
 20
120.0000000000001
 40
20
100
AcDbArc
 50
335.7176796852501
 51
24.28232031474818
  0
ARC
  5
D1
100
AcDbEntity
  8
cut
  6
ByLayer
 62
  256
370
   -1
100
AcDbCircle
 10
118.321757295414
 20
128.2657854803977
 40
0.1
100
AcDbArc
 50
35.71767968527618
 51
204.2823203147238
  0
ARC
  5
D2
100
AcDbEntity
  8
cut
  6
ByLayer
 62
  256
370
   -1
100
AcDbCircle
 10
118.321757295414
 20
108.2657854803981
 40
0.1
100
AcDbArc
 50
35.7176796852462
 51
204.2823203147539
  0
ARC
  5
D3
100
AcDbEntity
  8
cut
  6
ByLayer
 62
  256
370
   -1
100
AcDbCircle
 10
100
 20
99.99999999999997
 40
20
100
AcDbArc
 50
335.7176796852502
 51
24.28232031474965
  0
ARC
  5
D4
100
AcDbEntity
  8
cut
  6
ByLayer
 62
  256
370
   -1
100
AcDbCircle
 10
118.321757295414
 20
91.73421451960184
 40
0.1
100
AcDbArc
 50
155.7176796852496
 51
324.2823203147537
  0
ARC
  5
D5
100
AcDbEntity
  8
cut
  6
ByLayer
 62
  256
370
   -1
100
AcDbCircle
 10
134.6410161513782
 20
79.99999999999987
 40
20
100
AcDbArc
 50
95.71767968525174
 51
144.2823203147498
  0
ARC
  5
D6
100
AcDbEntity
  8
cut
  6
ByLayer
 62
  256
370
   -1
100
AcDbCircle
 10
134.6410161513782
 20
120
 40
20
100
AcDbArc
 50
215.7176796852501
 51
264.2823203147482
  0
ARC
  5
D7
100
AcDbEntity
  8
cut
  6
ByLayer
 62
  256
370
   -1
100
AcDbCircle
 10
132.6385177119269
 20
100.0000000000001
 40
0.1
100
AcDbArc
 50
275.7176796852762
 51
84.28232031472373
  0
ARC
  5
D8
100
AcDbEntity
  8
cut
  6
ByLayer
 62
  256
370
   -1
100
AcDbCircle
 10
119.3230065151379
 20
110
 40
0.1
100
AcDbArc
 50
95.71767968524624
 51
264.2823203147539
  0
ARC
  5
D9
100
AcDbEntity
  8
cut
  6
ByLayer
 62
  256
370
   -1
100
AcDbCircle
 10
117.3205080756888
 20
89.99999999999987
 40
20
100
AcDbArc
 50
35.71767968525018
 51
84.28232031474968
  0
ARC
  5
DA
100
AcDbEntity
  8
cut
  6
ByLayer
 62
  256
370
   -1
100
AcDbCircle
 10
133.639766931653
 20
101.7342145196018
 40
0.1
100
AcDbArc
 50
215.7176796852497
 51
24.28232031475368
  0
ARC
  5
DB
100
AcDbEntity
  8
cut
  6
ByLayer
 62
  256
370
   -1
100
AcDbCircle
 10
151.961524227067
 20
109.9999999999999
 40
20
100
AcDbArc
 50
155.7176796852517
 51
204.2823203147499
  0
ARC
  5
DC
100
AcDbEntity
  8
cut
  6
ByLayer
 62
  256
370
   -1
100
AcDbCircle
 10
117.3205080756888
 20
130.0000000000001
 40
20
100
AcDbArc
 50
275.71767968525
 51
324.2823203147481
  0
ARC
  5
DD
100
AcDbEntity
  8
cut
  6
ByLayer
 62
  256
370
   -1
100
AcDbCircle
 10
133.639766931653
 20
118.2657854803976
 40
0.1
100
AcDbArc
 50
335.7176796852762
 51
144.2823203147238
  0
ARC
  5
DE
100
AcDbEntity
  8
cut
  6
ByLayer
 62
  256
370
   -1
100
AcDbCircle
 10
98.9987507802748
 20
141.7342145196019
 40
0.1
100
AcDbArc
 50
215.7176796852463
 51
24.28232031475395
  0
ARC
  5
DF
100
AcDbEntity
  8
cut
  6
ByLayer
 62
  256
370
   -1
100
AcDbCircle
 10
117.3205080756888
 20
150
 40
20
100
AcDbArc
 50
155.7176796852502
 51
204.2823203147497
  0
ARC
  5
E0
100
AcDbEntity
  8
cut
  6
ByLayer
 62
  256
370
   -1
100
AcDbCircle
 10
98.9987507802748
 20
158.2657854803981
 40
0.1
100
AcDbArc
 50
335.7176796852497
 51
144.2823203147537
  0
ARC
  5
E1
100
AcDbEntity
  8
cut
  6
ByLayer
 62
  256
370
   -1
100
AcDbCircle
 10
82.67949192431115
 20
170
 40
20
100
AcDbArc
 50
275.7176796852518
 51
324.2823203147499
  0
ARC
  5
E2
100
AcDbEntity
  8
cut
  6
ByLayer
 62
  256
370
   -1
100
AcDbCircle
 10
82.67949192431115
 20
130
 40
20
100
AcDbArc
 50
35.71767968525005
 51
84.28232031474822
  0
ARC
  5
E3
100
AcDbEntity
  8
cut
  6
ByLayer
 62
  256
370
   -1
100
AcDbCircle
 10
84.68199036376109
 20
150
 40
0.1
100
AcDbArc
 50
95.7176796852762
 51
264.2823203147238
  0
ARC
  5
E4
100
AcDbEntity
  8
cut
  6
ByLayer
 62
  256
370
   -1
100
AcDbCircle
 10
102.002498439449
 20
140
 40
0.1
100
AcDbArc
 50
95.71767968524624
 51
264.2823203147539
  0
ARC
  5
E5
100
AcDbEntity
  8
cut
  6
ByLayer
 62
  256
370
   -1
100
AcDbCircle
 10
100
 20
119.9999999999999
 40
20
100
AcDbArc
 50
35.71767968525022
 51
84.28232031474968
  0
ARC
  5
E6
100
AcDbEntity
  8
cut
  6
ByLayer
 62
  256
370
   -1
100
AcDbCircle
 10
116.3192588559641
 20
131.7342145196019
 40
0.1
100
AcDbArc
 50
215.7176796852497
 51
24.28232031475373
  0
ARC
  5
E7
100
AcDbEntity
  8
cut
  6
ByLayer
 62
  256
370
   -1
100
AcDbCircle
 10
134.6410161513782
 20
140.0000000000001
 40
20
100
AcDbArc
 50
155.7176796852518
 51
204.2823203147499
  0
ARC
  5
E8
100
AcDbEntity
  8
cut
  6
ByLayer
 62
  256
370
   -1
100
AcDbCircle
 10
100
 20
160.0000000000001
 40
20
100
AcDbArc
 50
275.7176796852501
 51
324.2823203147482
  0
ARC
  5
E9
100
AcDbEntity
  8
cut
  6
ByLayer
 62
  256
370
   -1
100
AcDbCircle
 10
116.3192588559641
 20
148.2657854803976
 40
0.1
100
AcDbArc
 50
335.7176796852762
 51
144.2823203147238
  0
ARC
  5
EA
100
AcDbEntity
  8
cut
  6
ByLayer
 62
  256
370
   -1
100
AcDbCircle
 10
101.0012492197252
 20
141.7342145196019
 40
0.1
100
AcDbArc
 50
155.7176796852463
 51
324.2823203147539
  0
ARC
  5
EB
100
AcDbEntity
  8
cut
  6
ByLayer
 62
  256
370
   -1
100
AcDbCircle
 10
117.3205080756888
 20
129.9999999999999
 40
20
100
AcDbArc
 50
95.7176796852502
 51
144.2823203147497
  0
ARC
  5
EC
100
AcDbEntity
  8
cut
  6
ByLayer
 62
  256
370
   -1
100
AcDbCircle
 10
115.3180096362389
 20
150
 40
0.1
100
AcDbArc
 50
275.7176796852497
 51
84.2823203147537
  0
ARC
  5
ED
100
AcDbEntity
  8
cut
  6
ByLayer
 62
  256
370
   -1
100
AcDbCircle
 10
117.3205080756888
 20
170.0000000000001
 40
20
100
AcDbArc
 50
215.7176796852517
 51
264.2823203147499
  0
ARC
  5
EE
100
AcDbEntity
  8
cut
  6
ByLayer
 62
  256
370
   -1
100
AcDbCircle
 10
82.67949192431115
 20
150.0000000000001
 40
20
100
AcDbArc
 50
335.7176796852501
 51
24.28232031474818
  0
ARC
  5
EF
100
AcDbEntity
  8
cut
  6
ByLayer
 62
  256
370
   -1
100
AcDbCircle
 10
101.0012492197252
 20
158.2657854803976
 40
0.1
100
AcDbArc
 50
35.71767968527618
 51
204.2823203147238
  0
ARC
  5
F0
100
AcDbEntity
  8
cut
  6
ByLayer
 62
  256
370
   -1
100
AcDbCircle
 10
119.3230065151379
 20
130
 40
0.1
100
AcDbArc
 50
95.71767968524624
 51
264.2823203147539
  0
ARC
  5
F1
100
AcDbEntity
  8
cut
  6
ByLayer
 62
  256
370
   -1
100
AcDbCircle
 10
117.3205080756888
 20
109.9999999999999
 40
20
100
AcDbArc
 50
35.71767968525022
 51
84.28232031474968
  0
ARC
  5
F2
100
AcDbEntity
  8
cut
  6
ByLayer
 62
  256
370
   -1
100
AcDbCircle
 10
133.639766931653
 20
121.7342145196019
 40
0.1
100
AcDbArc
 50
215.7176796852497
 51
24.28232031475373
  0
ARC
  5
F3
100
AcDbEntity
  8
cut
  6
ByLayer
 62
  256
370
   -1
100
AcDbCircle
 10
151.961524227067
 20
130.0000000000001
 40
20
100
AcDbArc
 50
155.7176796852518
 51
204.2823203147499
  0
ARC
  5
F4
100
AcDbEntity
  8
cut
  6
ByLayer
 62
  256
370
   -1
100
AcDbCircle
 10
117.3205080756888
 20
150.0000000000001
 40
20
100
AcDbArc
 50
275.7176796852501
 51
324.2823203147482
  0
ARC
  5
F5
100
AcDbEntity
  8
cut
  6
ByLayer
 62
  256
370
   -1
100
AcDbCircle
 10
133.639766931653
 20
138.2657854803977
 40
0.1
100
AcDbArc
 50
335.7176796852762
 51
144.2823203147238
  0
ARC
  5
F6
100
AcDbEntity
  8
cut
  6
ByLayer
 62
  256
370
   -1
100
AcDbCircle
 10
118.321757295414
 20
148.2657854803981
 40
0.1
100
AcDbArc
 50
35.7176796852462
 51
204.2823203147539
  0
ARC
  5
F7
100
AcDbEntity
  8
cut
  6
ByLayer
 62
  256
370
   -1
100
AcDbCircle
 10
100
 20
140
 40
20
100
AcDbArc
 50
335.7176796852502
 51
24.28232031474965
  0
ARC
  5
F8
100
AcDbEntity
  8
cut
  6
ByLayer
 62
  256
370
   -1
100
AcDbCircle
 10
118.321757295414
 20
131.7342145196018
 40
0.1
100
AcDbArc
 50
155.7176796852496
 51
324.2823203147537
  0
ARC
  5
F9
100
AcDbEntity
  8
cut
  6
ByLayer
 62
  256
370
   -1
100
AcDbCircle
 10
134.6410161513782
 20
119.9999999999999
 40
20
100
AcDbArc
 50
95.71767968525174
 51
144.2823203147498
  0
ARC
  5
FA
100
AcDbEntity
  8
cut
  6
ByLayer
 62
  256
370
   -1
100
AcDbCircle
 10
134.6410161513782
 20
160
 40
20
100
AcDbArc
 50
215.7176796852501
 51
264.2823203147482
  0
ARC
  5
FB
100
AcDbEntity
  8
cut
  6
ByLayer
 62
  256
370
   -1
100
AcDbCircle
 10
132.6385177119269
 20
140.0000000000001
 40
0.1
100
AcDbArc
 50
275.7176796852762
 51
84.28232031472373
  0
ARC
  5
FC
100
AcDbEntity
  8
cut
  6
ByLayer
 62
  256
370
   -1
100
AcDbCircle
 10
63.35648540917282
 20
120
 40
0.1
100
AcDbArc
 50
275.7176796852463
 51
84.28232031475395
  0
ARC
  5
FD
100
AcDbEntity
  8
cut
  6
ByLayer
 62
  256
370
   -1
100
AcDbCircle
 10
65.35898384862185
 20
140.0000000000001
 40
20
100
AcDbArc
 50
215.7176796852502
 51
264.2823203147497
  0
ARC
  5
FE
100
AcDbEntity
  8
cut
  6
ByLayer
 62
  256
370
   -1
100
AcDbCircle
 10
49.03972499265819
 20
128.2657854803981
 40
0.1
100
AcDbArc
 50
35.71767968524972
 51
204.2823203147537
  0
ARC
  5
FF
100
AcDbEntity
  8
cut
  6
ByLayer
 62
  256
370
   -1
100
AcDbCircle
 10
30.71796769724506
 20
119.9999999999999
 40
20
100
AcDbArc
 50
335.7176796852518
 51
24.28232031474991
  0
ARC
  5
100
100
AcDbEntity
  8
cut
  6
ByLayer
 62
  256
370
   -1
100
AcDbCircle
 10
65.35898384862185
 20
99.99999999999994
 40
20
100
AcDbArc
 50
95.71767968525006
 51
144.2823203147482
  0
ARC
  5
101
100
AcDbEntity
  8
cut
  6
ByLayer
 62
  256
370
   -1
100
AcDbCircle
 10
49.0397249926591
 20
111.7342145196023
 40
0.1
100
AcDbArc
 50
155.7176796852762
 51
324.2823203147238
  0
ARC
  5
102
100
AcDbEntity
  8
cut
  6
ByLayer
 62
  256
370
   -1
100
AcDbCircle
 10
66.36023306834704
 20
121.734214519602
 40
0.1
100
AcDbArc
 50
155.7176796852462
 51
324.2823203147539
  0
ARC
  5
103
100
AcDbEntity
  8
cut
  6
ByLayer
 62
  256
370
   -1
100
AcDbCircle
 10
82.67949192431115
 20
110
 40
20
100
AcDbArc
 50
95.71767968525022
 51
144.2823203147497
  0
ARC
  5
104
100
AcDbEntity
  8
cut
  6
ByLayer
 62
  256
370
   -1
100
AcDbCircle
 10
80.67699348486212
 20
130.0000000000001
 40
0.1
100
AcDbArc
 50
275.7176796852497
 51
84.28232031475372
  0
ARC
  5
105
100
AcDbEntity
  8
cut
  6
ByLayer
 62
  256
370
   -1
100
AcDbCircle
 10
82.67949192431115
 20
150.0000000000002
 40
20
100
AcDbArc
 50
215.7176796852517
 51
264.2823203147498
  0
ARC
  5
106
100
AcDbEntity
  8
cut
  6
ByLayer
 62
  256
370
   -1
100
AcDbCircle
 10
48.038475772933
 20
130
 40
20
100
AcDbArc
 50
335.7176796852501
 51
24.28232031474818
  0
ARC
  5
107
100
AcDbEntity
  8
cut
  6
ByLayer
 62
  256
370
   -1
100
AcDbCircle
 10
66.36023306834704
 20
138.2657854803975
 40
0.1
100
AcDbArc
 50
35.71767968527618
 51
204.2823203147238
  0
ARC
  5
108
100
AcDbEntity
  8
cut
  6
ByLayer
 62
  256
370
   -1
100
AcDbCircle
 10
64.35773462889802
 20
121.7342145196019
 40
0.1
100
AcDbArc
 50
215.7176796852463
 51
24.28232031475388
  0
ARC
  5
109
100
AcDbEntity
  8
cut
  6
ByLayer
 62
  256
370
   -1
100
AcDbCircle
 10
82.67949192431115
 20
130
 40
20
100
AcDbArc
 50
155.7176796852502
 51
204.2823203147497
  0
ARC
  5
10A
100
AcDbEntity
  8
cut
  6
ByLayer
 62
  256
370
   -1
100
AcDbCircle
 10
64.35773462889802
 20
138.2657854803981
 40
0.1
100
AcDbArc
 50
335.7176796852497
 51
144.2823203147537
  0
ARC
  5
10B
100
AcDbEntity
  8
cut
  6
ByLayer
 62
  256
370
   -1
100
AcDbCircle
 10
48.038475772933
 20
150.0000000000001
 40
20
100
AcDbArc
 50
275.7176796852517
 51
324.2823203147499
  0
ARC
  5
10C
100
AcDbEntity
  8
cut
  6
ByLayer
 62
  256
370
   -1
100
AcDbCircle
 10
48.038475772933
 20
110
 40
20
100
AcDbArc
 50
35.71767968525003
 51
84.28232031474818
  0
ARC
  5
10D
100
AcDbEntity
  8
cut
  6
ByLayer
 62
  256
370
   -1
100
AcDbCircle
 10
50.04097421238384
 20
130
 40
0.1
100
AcDbArc
 50
95.71767968527618
 51
264.2823203147238
  0
ARC
  5
10E
100
AcDbEntity
  8
cut
  6
ByLayer
 62
  256
370
   -1
100
AcDbCircle
 10
83.68074114403589
 20
131.7342145196018
 40
0.1
100
AcDbArc
 50
155.7176796852462
 51
324.2823203147539
  0
ARC
  5
10F
100
AcDbEntity
  8
cut
  6
ByLayer
 62
  256
370
   -1
100
AcDbCircle
 10
100
 20
119.9999999999998
 40
20
100
AcDbArc
 50
95.71767968525022
 51
144.2823203147497
  0
ARC
  5
110
100
AcDbEntity
  8
cut
  6
ByLayer
 62
  256
370
   -1
100
AcDbCircle
 10
97.99750156055097
 20
140.0000000000001
 40
0.1
100
AcDbArc
 50
275.7176796852497
 51
84.28232031475372
  0
ARC
  5
111
100
AcDbEntity
  8
cut
  6
ByLayer
 62
  256
370
   -1
100
AcDbCircle
 10
100
 20
160
 40
20
100
AcDbArc
 50
215.7176796852517
 51
264.2823203147498
  0
ARC
  5
112
100
AcDbEntity
  8
cut
  6
ByLayer
 62
  256
370
   -1
100
AcDbCircle
 10
65.35898384862185
 20
140.0000000000001
 40
20
100
AcDbArc
 50
335.7176796852501
 51
24.28232031474818
  0
ARC
  5
113
100
AcDbEntity
  8
cut
  6
ByLayer
 62
  256
370
   -1
100
AcDbCircle
 10
83.68074114403589
 20
148.2657854803976
 40
0.1
100
AcDbArc
 50
35.71767968527618
 51
204.2823203147238
  0
ARC
  5
114
100
AcDbEntity
  8
cut
  6
ByLayer
 62
  256
370
   -1
100
AcDbCircle
 10
67.36148228807178
 20
140.0000000000001
 40
0.1
100
AcDbArc
 50
95.7176796852462
 51
264.2823203147539
  0
ARC
  5
115
100
AcDbEntity
  8
cut
  6
ByLayer
 62
  256
370
   -1
100
AcDbCircle
 10
65.35898384862185
 20
120
 40
20
100
AcDbArc
 50
35.71767968525018
 51
84.28232031474965
  0
ARC
  5
116
100
AcDbEntity
  8
cut
  6
ByLayer
 62
  256
370
   -1
100
AcDbCircle
 10
81.67824270458595
 20
131.7342145196019
 40
0.1
100
AcDbArc
 50
215.7176796852496
 51
24.28232031475368
  0
ARC
  5
117
100
AcDbEntity
  8
cut
  6
ByLayer
 62
  256
370
   -1
100
AcDbCircle
 10
100
 20
140.0000000000001
 40
20
100
AcDbArc
 50
155.7176796852517
 51
204.2823203147498
  0
ARC
  5
118
100
AcDbEntity
  8
cut
  6
ByLayer
 62
  256
370
   -1
100
AcDbCircle
 10
65.35898384862185
 20
160.0000000000001
 40
20
100
AcDbArc
 50
275.7176796852501
 51
324.2823203147481
  0
ARC
  5
119
100
AcDbEntity
  8
cut
  6
ByLayer
 62
  256
370
   -1
100
AcDbCircle
 10
81.67824270458595
 20
148.2657854803977
 40
0.1
100
AcDbArc
 50
335.7176796852762
 51
144.2823203147237
  0
ARC
  5
11A
100
AcDbEntity
  8
cut
  6
ByLayer
 62
  256
370
   -1
100
AcDbCircle
 10
64.35773462889802
 20
78.26578548039809
 40
0.1
100
AcDbArc
 50
335.7176796852463
 51
144.2823203147539
  0
ARC
  5
11B
100
AcDbEntity
  8
cut
  6
ByLayer
 62
  256
370
   -1
100
AcDbCircle
 10
48.038475772933
 20
90.00000000000009
 40
20
100
AcDbArc
 50
275.7176796852502
 51
324.2823203147497
  0
ARC
  5
11C
100
AcDbEntity
  8
cut
  6
ByLayer
 62
  256
370
   -1
100
AcDbCircle
 10
50.04097421238293
 20
69.99999999999999
 40
0.1
100
AcDbArc
 50
95.71767968524971
 51
264.2823203147537
  0
ARC
  5
11D
100
AcDbEntity
  8
cut
  6
ByLayer
 62
  256
370
   -1
100
AcDbCircle
 10
48.038475772933
 20
49.99999999999995
 40
20
100
AcDbArc
 50
35.7176796852518
 51
84.2823203147499
  0
ARC
  5
11E
100
AcDbEntity
  8
cut
  6
ByLayer
 62
  256
370
   -1
100
AcDbCircle
 10
82.67949192431115
 20
69.99999999999994
 40
20
100
AcDbArc
 50
155.71767968525
 51
204.2823203147482
  0
ARC
  5
11F
100
AcDbEntity
  8
cut
  6
ByLayer
 62
  256
370
   -1
100
AcDbCircle
 10
64.35773462889802
 20
61.73421451960228
 40
0.1
100
AcDbArc
 50
215.7176796852762
 51
24.2823203147238
  0
ARC
  5
120
100
AcDbEntity
  8
cut
  6
ByLayer
 62
  256
370
   -1
100
AcDbCircle
 10
64.35773462889802
 20
81.73421451960195
 40
0.1
100
AcDbArc
 50
215.7176796852462
 51
24.28232031475393
  0
ARC
  5
121
100
AcDbEntity
  8
cut
  6
ByLayer
 62
  256
370
   -1
100
AcDbCircle
 10
82.67949192431115
 20
90.00000000000003
 40
20
100
AcDbArc
 50
155.7176796852502
 51
204.2823203147497
  0
ARC
  5
122
100
AcDbEntity
  8
cut
  6
ByLayer
 62
  256
370
   -1
100
AcDbCircle
 10
64.35773462889802
 20
98.26578548039815
 40
0.1
100
AcDbArc
 50
335.7176796852496
 51
144.2823203147537
  0
ARC
  5
123
100
AcDbEntity
  8
cut
  6
ByLayer
 62
  256
370
   -1
100
AcDbCircle
 10
48.038475772933
 20
110.0000000000001
 40
20
100
AcDbArc
 50
275.7176796852517
 51
324.2823203147498
  0
ARC
  5
124
100
AcDbEntity
  8
cut
  6
ByLayer
 62
  256
370
   -1
100
AcDbCircle
 10
48.038475772933
 20
69.99999999999999
 40
20
100
AcDbArc
 50
35.71767968525008
 51
84.28232031474816
  0
ARC
  5
125
100
AcDbEntity
  8
cut
  6
ByLayer
 62
  256
370
   -1
100
AcDbCircle
 10
50.04097421238384
 20
89.9999999999999
 40
0.1
100
AcDbArc
 50
95.71767968527617
 51
264.2823203147237
  0
ARC
  5
126
100
AcDbEntity
  8
cut
  6
ByLayer
 62
  256
370
   -1
100
AcDbCircle
 10
63.35648540917282
 20
80.00000000000003
 40
0.1
100
AcDbArc
 50
275.7176796852463
 51
84.28232031475386
  0
ARC
  5
127
100
AcDbEntity
  8
cut
  6
ByLayer
 62
  256
370
   -1
100
AcDbCircle
 10
65.35898384862185
 20
100.0000000000001
 40
20
100
AcDbArc
 50
215.7176796852502
 51
264.2823203147497
  0
ARC
  5
128
100
AcDbEntity
  8
cut
  6
ByLayer
 62
  256
370
   -1
100
AcDbCircle
 10
49.03972499265819
 20
88.26578548039814
 40
0.1
100
AcDbArc
 50
35.71767968524966
 51
204.2823203147537
  0
ARC
  5
129
100
AcDbEntity
  8
cut
  6
ByLayer
 62
  256
370
   -1
100
AcDbCircle
 10
30.71796769724506
 20
80.00000000000006
 40
20
100
AcDbArc
 50
335.7176796852517
 51
24.28232031474986
  0
ARC
  5
12A
100
AcDbEntity
  8
cut
  6
ByLayer
 62
  256
370
   -1
100
AcDbCircle
 10
65.35898384862185
 20
59.9999999999999
 40
20
100
AcDbArc
 50
95.71767968525
 51
144.2823203147482
  0
ARC
  5
12B
100
AcDbEntity
  8
cut
  6
ByLayer
 62
  256
370
   -1
100
AcDbCircle
 10
49.0397249926591
 20
71.73421451960238
 40
0.1
100
AcDbArc
 50
155.7176796852762
 51
324.2823203147238
  0
ARC
  5
12C
100
AcDbEntity
  8
cut
  6
ByLayer
 62
  256
370
   -1
100
AcDbCircle
 10
64.35773462889802
 20
101.7342145196018
 40
0.1
100
AcDbArc
 50
215.7176796852462
 51
24.28232031475393
  0
ARC
  5
12D
100
AcDbEntity
  8
cut
  6
ByLayer
 62
  256
370
   -1
100
AcDbCircle
 10
82.67949192431115
 20
109.9999999999999
 40
20
100
AcDbArc
 50
155.7176796852502
 51
204.2823203147497
  0
ARC
  5
12E
100
AcDbEntity
  8
cut
  6
ByLayer
 62
  256
370
   -1
100
AcDbCircle
 10
64.35773462889802
 20
118.2657854803982
 40
0.1
100
AcDbArc
 50
335.7176796852496
 51
144.2823203147537
  0
ARC
  5
12F
100
AcDbEntity
  8
cut
  6
ByLayer
 62
  256
370
   -1
100
AcDbCircle
 10
48.038475772933
 20
130
 40
20
100
AcDbArc
 50
275.7176796852517
 51
324.2823203147498
  0
ARC
  5
130
100
AcDbEntity
  8
cut
  6
ByLayer
 62
  256
370
   -1
100
AcDbCircle
 10
48.038475772933
 20
90.00000000000006
 40
20
100
AcDbArc
 50
35.71767968525008
 51
84.28232031474816
  0
ARC
  5
131
100
AcDbEntity
  8
cut
  6
ByLayer
 62
  256
370
   -1
100
AcDbCircle
 10
50.04097421238384
 20
109.9999999999999
 40
0.1
100
AcDbArc
 50
95.71767968527617
 51
264.2823203147237
  0
ARC
  5
132
100
AcDbEntity
  8
cut
  6
ByLayer
 62
  256
370
   -1
100
AcDbCircle
 10
49.03972499265819
 20
91.73421451960202
 40
0.1
100
AcDbArc
 50
155.7176796852462
 51
324.2823203147539
  0
ARC
  5
133
100
AcDbEntity
  8
cut
  6
ByLayer
 62
  256
370
   -1
100
AcDbCircle
 10
65.35898384862185
 20
80.00000000000003
 40
20
100
AcDbArc
 50
95.7176796852502
 51
144.2823203147497
  0
ARC
  5
134
100
AcDbEntity
  8
cut
  6
ByLayer
 62
  256
370
   -1
100
AcDbCircle
 10
63.35648540917282
 20
100.0000000000001
 40
0.1
100
AcDbArc
 50
275.7176796852496
 51
84.28232031475366
  0
ARC
  5
135
100
AcDbEntity
  8
cut
  6
ByLayer
 62
  256
370
   -1
100
AcDbCircle
 10
65.35898384862185
 20
120.0000000000002
 40
20
100
AcDbArc
 50
215.7176796852517
 51
264.2823203147498
  0
ARC
  5
136
100
AcDbEntity
  8
cut
  6
ByLayer
 62
  256
370
   -1
100
AcDbCircle
 10
30.71796769724506
 20
100.0000000000001
 40
20
100
AcDbArc
 50
335.7176796852501
 51
24.28232031474813
  0
ARC
  5
137
100
AcDbEntity
  8
cut
  6
ByLayer
 62
  256
370
   -1
100
AcDbCircle
 10
49.0397249926591
 20
108.2657854803976
 40
0.1
100
AcDbArc
 50
35.71767968527613
 51
204.2823203147237
  0
ARC
  5
138
100
AcDbEntity
  8
cut
  6
ByLayer
 62
  256
370
   -1
100
AcDbCircle
 10
101.0012492197252
 20
58.26578548039811
 40
0.1
100
AcDbArc
 50
35.71767968524626
 51
204.2823203147539
  0
ARC
  5
139
100
AcDbEntity
  8
cut
  6
ByLayer
 62
  256
370
   -1
100
AcDbCircle
 10
82.67949192431115
 20
50
 40
20
100
AcDbArc
 50
335.7176796852502
 51
24.28232031474976
  0
ARC
  5
13A
100
AcDbEntity
  8
cut
  6
ByLayer
 62
  256
370
   -1
100
AcDbCircle
 10
101.0012492197252
 20
41.73421451960189
 40
0.1
100
AcDbArc
 50
155.7176796852497
 51
324.2823203147537
  0
ARC
  5
13B
100
AcDbEntity
  8
cut
  6
ByLayer
 62
  256
370
   -1
100
AcDbCircle
 10
117.3205080756888
 20
30
 40
20
100
AcDbArc
 50
95.71767968525178
 51
144.2823203147499
  0
ARC
  5
13C
100
AcDbEntity
  8
cut
  6
ByLayer
 62
  256
370
   -1
100
AcDbCircle
 10
117.3205080756888
 20
70
 40
20
100
AcDbArc
 50
215.7176796852501
 51
264.2823203147482
  0
ARC
  5
13D
100
AcDbEntity
  8
cut
  6
ByLayer
 62
  256
370
   -1
100
AcDbCircle
 10
115.3180096362389
 20
50
 40
0.1
100
AcDbArc
 50
275.7176796852762
 51
84.28232031472379
  0
ARC
  5
13E
100
AcDbEntity
  8
cut
  6
ByLayer
 62
  256
370
   -1
100
AcDbCircle
 10
97.99750156055097
 20
59.99999999999997
 40
0.1
100
AcDbArc
 50
275.7176796852463
 51
84.28232031475392
  0
ARC
  5
13F
100
AcDbEntity
  8
cut
  6
ByLayer
 62
  256
370
   -1
100
AcDbCircle
 10
100
 20
80.00000000000006
 40
20
100
AcDbArc
 50
215.7176796852502
 51
264.2823203147497
  0
ARC
  5
140
100
AcDbEntity
  8
cut
  6
ByLayer
 62
  256
370
   -1
100
AcDbCircle
 10
83.68074114403589
 20
68.26578548039811
 40
0.1
100
AcDbArc
 50
35.71767968524966
 51
204.2823203147537
  0
ARC
  5
141
100
AcDbEntity
  8
cut
  6
ByLayer
 62
  256
370
   -1
100
AcDbCircle
 10
65.35898384862185
 20
59.99999999999995
 40
20
100
AcDbArc
 50
335.7176796852518
 51
24.28232031474986
  0
ARC
  5
142
100
AcDbEntity
  8
cut
  6
ByLayer
 62
  256
370
   -1
100
AcDbCircle
 10
100
 20
39.99999999999994
 40
20
100
AcDbArc
 50
95.71767968525006
 51
144.2823203147482
  0
ARC
  5
143
100
AcDbEntity
  8
cut
  6
ByLayer
 62
  256
370
   -1
100
AcDbCircle
 10
83.68074114403589
 20
51.73421451960238
 40
0.1
100
AcDbArc
 50
155.7176796852762
 51
324.2823203147238
  0
ARC
  5
144
100
AcDbEntity
  8
cut
  6
ByLayer
 62
  256
370
   -1
100
AcDbCircle
 10
98.9987507802748
 20
58.26578548039808
 40
0.1
100
AcDbArc
 50
335.7176796852463
 51
144.2823203147539
  0
ARC
  5
145
100
AcDbEntity
  8
cut
  6
ByLayer
 62
  256
370
   -1
100
AcDbCircle
 10
82.67949192431115
 20
70.00000000000009
 40
20
100
AcDbArc
 50
275.7176796852502
 51
324.2823203147497
  0
ARC
  5
146
100
AcDbEntity
  8
cut
  6
ByLayer
 62
  256
370
   -1
100
AcDbCircle
 10
84.68199036376109
 20
50
 40
0.1
100
AcDbArc
 50
95.71767968524971
 51
264.2823203147537
  0
ARC
  5
147
100
AcDbEntity
  8
cut
  6
ByLayer
 62
  256
370
   -1
100
AcDbCircle
 10
82.67949192431115
 20
29.99999999999994
 40
20
100
AcDbArc
 50
35.7176796852517
 51
84.2823203147499
  0
ARC
  5
148
100
AcDbEntity
  8
cut
  6
ByLayer
 62
  256
370
   -1
100
AcDbCircle
 10
117.3205080756888
 20
49.99999999999991
 40
20
100
AcDbArc
 50
155.71767968525
 51
204.2823203147482
  0
ARC
  5
149
100
AcDbEntity
  8
cut
  6
ByLayer
 62
  256
370
   -1
100
AcDbCircle
 10
98.9987507802748
 20
41.73421451960238
 40
0.1
100
AcDbArc
 50
215.7176796852762
 51
24.2823203147238
  0
ARC
  5
14A
100
AcDbEntity
  8
cut
  6
ByLayer
 62
  256
370
   -1
100
AcDbCircle
 10
80.67699348486212
 20
70
 40
0.1
100
AcDbArc
 50
275.7176796852463
 51
84.28232031475392
  0
ARC
  5
14B
100
AcDbEntity
  8
cut
  6
ByLayer
 62
  256
370
   -1
100
AcDbCircle
 10
82.67949192431115
 20
90.00000000000006
 40
20
100
AcDbArc
 50
215.7176796852502
 51
264.2823203147497
  0
ARC
  5
14C
100
AcDbEntity
  8
cut
  6
ByLayer
 62
  256
370
   -1
100
AcDbCircle
 10
66.36023306834704
 20
78.26578548039811
 40
0.1
100
AcDbArc
 50
35.71767968524966
 51
204.2823203147537
  0
ARC
  5
14D
100
AcDbEntity
  8
cut
  6
ByLayer
 62
  256
370
   -1
100
AcDbCircle
 10
48.038475772933
 20
69.99999999999994
 40
20
100
AcDbArc
 50
335.7176796852518
 51
24.28232031474986
  0
ARC
  5
14E
100
AcDbEntity
  8
cut
  6
ByLayer
 62
  256
370
   -1
100
AcDbCircle
 10
82.67949192431115
 20
49.99999999999994
 40
20
100
AcDbArc
 50
95.71767968525006
 51
144.2823203147482
  0
ARC
  5
14F
100
AcDbEntity
  8
cut
  6
ByLayer
 62
  256
370
   -1
100
AcDbCircle
 10
66.36023306834704
 20
61.7342145196023
 40
0.1
100
AcDbArc
 50
155.7176796852762
 51
324.2823203147238
  0
ARC
  5
150
100
AcDbEntity
  8
cut
  6
ByLayer
 62
  256
370
   -1
100
AcDbCircle
 10
81.67824270458595
 20
51.73421451960195
 40
0.1
100
AcDbArc
 50
215.7176796852462
 51
24.28232031475393
  0
ARC
  5
151
100
AcDbEntity
  8
cut
  6
ByLayer
 62
  256
370
   -1
100
AcDbCircle
 10
100
 20
60.00000000000003
 40
20
100
AcDbArc
 50
155.7176796852501
 51
204.2823203147497
  0
ARC
  5
152
100
AcDbEntity
  8
cut
  6
ByLayer
 62
  256
370
   -1
100
AcDbCircle
 10
81.67824270458595
 20
68.26578548039816
 40
0.1
100
AcDbArc
 50
335.7176796852496
 51
144.2823203147537
  0
ARC
  5
153
100
AcDbEntity
  8
cut
  6
ByLayer
 62
  256
370
   -1
100
AcDbCircle
 10
65.35898384862185
 20
80.00000000000011
 40
20
100
AcDbArc
 50
275.7176796852517
 51
324.2823203147498
  0
ARC
  5
154
100
AcDbEntity
  8
cut
  6
ByLayer
 62
  256
370
   -1
100
AcDbCircle
 10
65.35898384862185
 20
40.00000000000001
 40
20
100
AcDbArc
 50
35.71767968525008
 51
84.28232031474816
  0
ARC
  5
155
100
AcDbEntity
  8
cut
  6
ByLayer
 62
  256
370
   -1
100
AcDbCircle
 10
67.36148228807315
 20
59.99999999999992
 40
0.1
100
AcDbArc
 50
95.71767968527617
 51
264.2823203147237
  0
ARC
  5
156
100
AcDbEntity
  8
cut
  6
ByLayer
 62
  256
370
   -1
100
AcDbCircle
 10
136.6435145908272
 20
80
 40
0.1
100
AcDbArc
 50
95.71767968524624
 51
264.2823203147539
  0
ARC
  5
157
100
AcDbEntity
  8
cut
  6
ByLayer
 62
  256
370
   -1
100
AcDbCircle
 10
134.6410161513782
 20
59.99999999999991
 40
20
100
AcDbArc
 50
35.71767968525022
 51
84.28232031474968
  0
ARC
  5
158
100
AcDbEntity
  8
cut
  6
ByLayer
 62
  256
370
   -1
100
AcDbCircle
 10
150.9602750073418
 20
71.73421451960189
 40
0.1
100
AcDbArc
 50
215.7176796852497
 51
24.28232031475373
  0
ARC
  5
159
100
AcDbEntity
  8
cut
  6
ByLayer
 62
  256
370
   -1
100
AcDbCircle
 10
169.2820323027549
 20
80.00000000000003
 40
20
100
AcDbArc
 50
155.7176796852518
 51
204.2823203147499
  0
ARC
  5
15A
100
AcDbEntity
  8
cut
  6
ByLayer
 62
  256
370
   -1
100
AcDbCircle
 10
134.6410161513782
 20
100
 40
20
100
AcDbArc
 50
275.7176796852501
 51
324.2823203147482
  0
ARC
  5
15B
100
AcDbEntity
  8
cut
  6
ByLayer
 62
  256
370
   -1
100
AcDbCircle
 10
150.9602750073409
 20
88.2657854803977
 40
0.1
100
AcDbArc
 50
335.7176796852762
 51
144.2823203147238
  0
ARC
  5
15C
100
AcDbEntity
  8
cut
  6
ByLayer
 62
  256
370
   -1
100
AcDbCircle
 10
133.639766931653
 20
78.26578548039802
 40
0.1
100
AcDbArc
 50
335.7176796852462
 51
144.2823203147539
  0
ARC
  5
15D
100
AcDbEntity
  8
cut
  6
ByLayer
 62
  256
370
   -1
100
AcDbCircle
 10
117.3205080756888
 20
90.00000000000001
 40
20
100
AcDbArc
 50
275.7176796852502
 51
324.2823203147497
  0
ARC
  5
15E
100
AcDbEntity
  8
cut
  6
ByLayer
 62
  256
370
   -1
100
AcDbCircle
 10
119.3230065151379
 20
69.99999999999994
 40
0.1
100
AcDbArc
 50
95.71767968524965
 51
264.2823203147537
  0
ARC
  5
15F
100
AcDbEntity
  8
cut
  6
ByLayer
 62
  256
370
   -1
100
AcDbCircle
 10
117.3205080756888
 20
49.99999999999983
 40
20
100
AcDbArc
 50
35.71767968525175
 51
84.28232031474984
  0
ARC
  5
160
100
AcDbEntity
  8
cut
  6
ByLayer
 62
  256
370
   -1
100
AcDbCircle
 10
151.961524227067
 20
69.99999999999994
 40
20
100
AcDbArc
 50
155.71767968525
 51
204.2823203147482
  0
ARC
  5
161
100
AcDbEntity
  8
cut
  6
ByLayer
 62
  256
370
   -1
100
AcDbCircle
 10
133.639766931653
 20
61.73421451960247
 40
0.1
100
AcDbArc
 50
215.7176796852761
 51
24.28232031472375
  0
ARC
  5
162
100
AcDbEntity
  8
cut
  6
ByLayer
 62
  256
370
   -1
100
AcDbCircle
 10
135.642265371102
 20
78.26578548039805
 40
0.1
100
AcDbArc
 50
35.71767968524626
 51
204.2823203147539
  0
ARC
  5
163
100
AcDbEntity
  8
cut
  6
ByLayer
 62
  256
370
   -1
100
AcDbCircle
 10
117.3205080756888
 20
69.99999999999997
 40
20
100
AcDbArc
 50
335.7176796852502
 51
24.2823203147497
  0
ARC
  5
164
100
AcDbEntity
  8
cut
  6
ByLayer
 62
  256
370
   -1
100
AcDbCircle
 10
135.642265371102
 20
61.73421451960186
 40
0.1
100
AcDbArc
 50
155.7176796852497
 51
324.2823203147537
  0
ARC
  5
165
100
AcDbEntity
  8
cut
  6
ByLayer
 62
  256
370
   -1
100
AcDbCircle
 10
151.961524227067
 20
49.99999999999988
 40
20
100
AcDbArc
 50
95.71767968525168
 51
144.2823203147499
  0
ARC
  5
166
100
AcDbEntity
  8
cut
  6
ByLayer
 62
  256
370
   -1
100
AcDbCircle
 10
151.961524227067
 20
90
 40
20
100
AcDbArc
 50
215.7176796852501
 51
264.2823203147482
  0
ARC
  5
167
100
AcDbEntity
  8
cut
  6
ByLayer
 62
  256
370
   -1
100
AcDbCircle
 10
149.9590257876162
 20
70
 40
0.1
100
AcDbArc
 50
275.7176796852762
 51
84.28232031472379
  0
ARC
  5
168
100
AcDbEntity
  8
cut
  6
ByLayer
 62
  256
370
   -1
100
AcDbCircle
 10
116.3192588559641
 20
68.26578548039818
 40
0.1
100
AcDbArc
 50
335.7176796852462
 51
144.2823203147539
  0
ARC
  5
169
100
AcDbEntity
  8
cut
  6
ByLayer
 62
  256
370
   -1
100
AcDbCircle
 10
100
 20
80.00000000000016
 40
20
100
AcDbArc
 50
275.7176796852502
 51
324.2823203147497
  0
ARC
  5
16A
100
AcDbEntity
  8
cut
  6
ByLayer
 62
  256
370
   -1
100
AcDbCircle
 10
102.002498439449
 20
59.99999999999989
 40
0.1
100
AcDbArc
 50
95.71767968524965
 51
264.2823203147537
  0
ARC
  5
16B
100
AcDbEntity
  8
cut
  6
ByLayer
 62
  256
370
   -1
100
AcDbCircle
 10
100
 20
39.99999999999997
 40
20
100
AcDbArc
 50
35.71767968525175
 51
84.28232031474984
  0
ARC
  5
16C
100
AcDbEntity
  8
cut
  6
ByLayer
 62
  256
370
   -1
100
AcDbCircle
 10
134.6410161513782
 20
59.99999999999989
 40
20
100
AcDbArc
 50
155.71767968525
 51
204.2823203147482
  0
ARC
  5
16D
100
AcDbEntity
  8
cut
  6
ByLayer
 62
  256
370
   -1
100
AcDbCircle
 10
116.3192588559641
 20
51.73421451960238
 40
0.1
100
AcDbArc
 50
215.7176796852761
 51
24.28232031472375
  0
ARC
  5
16E
100
AcDbEntity
  8
cut
  6
ByLayer
 62
  256
370
   -1
100
AcDbCircle
 10
132.6385177119282
 20
59.99999999999992
 40
0.1
100
AcDbArc
 50
275.7176796852462
 51
84.28232031475392
  0
ARC
  5
16F
100
AcDbEntity
  8
cut
  6
ByLayer
 62
  256
370
   -1
100
AcDbCircle
 10
134.6410161513782
 20
80
 40
20
100
AcDbArc
 50
215.7176796852502
 51
264.2823203147497
  0
ARC
  5
170
100
AcDbEntity
  8
cut
  6
ByLayer
 62
  256
370
   -1
100
AcDbCircle
 10
118.321757295414
 20
68.26578548039804
 40
0.1
100
AcDbArc
 50
35.71767968524961
 51
204.2823203147537
  0
ARC
  5
171
100
AcDbEntity
  8
cut
  6
ByLayer
 62
  256
370
   -1
100
AcDbCircle
 10
100
 20
59.99999999999992
 40
20
100
AcDbArc
 50
335.7176796852517
 51
24.28232031474981
  0
ARC
  5
172
100
AcDbEntity
  8
cut
  6
ByLayer
 62
  256
370
   -1
100
AcDbCircle
 10
134.6410161513782
 20
39.99999999999985
 40
20
100
AcDbArc
 50
95.71767968525006
 51
144.2823203147481
  0
ARC
  5
173
100
AcDbEntity
  8
cut
  6
ByLayer
 62
  256
370
   -1
100
AcDbCircle
 10
118.321757295414
 20
51.73421451960235
 40
0.1
100
AcDbArc
 50
155.7176796852762
 51
324.2823203147237
  0
ARC
  5
174
100
AcDbEntity
  8
cut
  6
ByLayer
 62
  256
370
   -1
100
AcDbCircle
 10
135.642265371102
 20
121.7342145196019
 40
0.1
100
AcDbArc
 50
155.7176796852463
 51
324.2823203147539
  0
ARC
  5
175
100
AcDbEntity
  8
cut
  6
ByLayer
 62
  256
370
   -1
100
AcDbCircle
 10
151.961524227067
 20
109.9999999999999
 40
20
100
AcDbArc
 50
95.7176796852502
 51
144.2823203147497
  0
ARC
  5
176
100
AcDbEntity
  8
cut
  6
ByLayer
 62
  256
370
   -1
100
AcDbCircle
 10
149.9590257876171
 20
130
 40
0.1
100
AcDbArc
 50
275.7176796852497
 51
84.2823203147537
  0
ARC
  5
177
100
AcDbEntity
  8
cut
  6
ByLayer
 62
  256
370
   -1
100
AcDbCircle
 10
151.961524227067
 20
150
 40
20
100
AcDbArc
 50
215.7176796852517
 51
264.2823203147499
  0
ARC
  5
178
100
AcDbEntity
  8
cut
  6
ByLayer
 62
  256
370
   -1
100
AcDbCircle
 10
117.3205080756888
 20
130.0000000000001
 40
20
100
AcDbArc
 50
335.7176796852501
 51
24.28232031474818
  0
ARC
  5
179
100
AcDbEntity
  8
cut
  6
ByLayer
 62
  256
370
   -1
100
AcDbCircle
 10
135.642265371102
 20
138.2657854803977
 40
0.1
100
AcDbArc
 50
35.71767968527618
 51
204.2823203147238
  0
ARC
  5
17A
100
AcDbEntity
  8
cut
  6
ByLayer
 62
  256
370
   -1
100
AcDbCircle
 10
135.642265371102
 20
118.265785480398
 40
0.1
100
AcDbArc
 50
35.7176796852462
 51
204.2823203147539
  0
ARC
  5
17B
100
AcDbEntity
  8
cut
  6
ByLayer
 62
  256
370
   -1
100
AcDbCircle
 10
117.3205080756888
 20
110
 40
20
100
AcDbArc
 50
335.7176796852502
 51
24.28232031474965
  0
ARC
  5
17C
100
AcDbEntity
  8
cut
  6
ByLayer
 62
  256
370
   -1
100
AcDbCircle
 10
135.642265371102
 20
101.7342145196018
 40
0.1
100
AcDbArc
 50
155.7176796852496
 51
324.2823203147537
  0
ARC
  5
17D
100
AcDbEntity
  8
cut
  6
ByLayer
 62
  256
370
   -1
100
AcDbCircle
 10
151.961524227067
 20
89.99999999999986
 40
20
100
AcDbArc
 50
95.71767968525174
 51
144.2823203147498
  0
ARC
  5
17E
100
AcDbEntity
  8
cut
  6
ByLayer
 62
  256
370
   -1
100
AcDbCircle
 10
151.961524227067
 20
130
 40
20
100
AcDbArc
 50
215.7176796852501
 51
264.2823203147482
  0
ARC
  5
17F
100
AcDbEntity
  8
cut
  6
ByLayer
 62
  256
370
   -1
100
AcDbCircle
 10
149.9590257876162
 20
110.0000000000001
 40
0.1
100
AcDbArc
 50
275.7176796852762
 51
84.28232031472373
  0
ARC
  5
180
100
AcDbEntity
  8
cut
  6
ByLayer
 62
  256
370
   -1
100
AcDbCircle
 10
136.6435145908272
 20
120
 40
0.1
100
AcDbArc
 50
95.71767968524624
 51
264.2823203147539
  0
ARC
  5
181
100
AcDbEntity
  8
cut
  6
ByLayer
 62
  256
370
   -1
100
AcDbCircle
 10
134.6410161513782
 20
99.99999999999986
 40
20
100
AcDbArc
 50
35.71767968525018
 51
84.28232031474968
  0
ARC
  5
182
100
AcDbEntity
  8
cut
  6
ByLayer
 62
  256
370
   -1
100
AcDbCircle
 10
150.9602750073418
 20
111.7342145196018
 40
0.1
100
AcDbArc
 50
215.7176796852497
 51
24.28232031475368
  0
ARC
  5
183
100
AcDbEntity
  8
cut
  6
ByLayer
 62
  256
370
   -1
100
AcDbCircle
 10
169.2820323027549
 20
119.9999999999999
 40
20
100
AcDbArc
 50
155.7176796852517
 51
204.2823203147499
  0
ARC
  5
184
100
AcDbEntity
  8
cut
  6
ByLayer
 62
  256
370
   -1
100
AcDbCircle
 10
134.6410161513782
 20
140.0000000000001
 40
20
100
AcDbArc
 50
275.71767968525
 51
324.2823203147481
  0
ARC
  5
185
100
AcDbEntity
  8
cut
  6
ByLayer
 62
  256
370
   -1
100
AcDbCircle
 10
150.9602750073409
 20
128.2657854803976
 40
0.1
100
AcDbArc
 50
335.7176796852762
 51
144.2823203147238
  0
ARC
  5
186
100
AcDbEntity
  8
cut
  6
ByLayer
 62
  256
370
   -1
100
AcDbCircle
 10
135.642265371102
 20
98.26578548039815
 40
0.1
100
AcDbArc
 50
35.7176796852462
 51
204.2823203147539
  0
ARC
  5
187
100
AcDbEntity
  8
cut
  6
ByLayer
 62
  256
370
   -1
100
AcDbCircle
 10
117.3205080756888
 20
90.00000000000009
 40
20
100
AcDbArc
 50
335.7176796852502
 51
24.28232031474965
  0
ARC
  5
188
100
AcDbEntity
  8
cut
  6
ByLayer
 62
  256
370
   -1
100
AcDbCircle
 10
135.642265371102
 20
81.73421451960176
 40
0.1
100
AcDbArc
 50
155.7176796852496
 51
324.2823203147537
  0
ARC
  5
189
100
AcDbEntity
  8
cut
  6
ByLayer
 62
  256
370
   -1
100
AcDbCircle
 10
151.961524227067
 20
69.99999999999999
 40
20
100
AcDbArc
 50
95.71767968525174
 51
144.2823203147498
  0
ARC
  5
18A
100
AcDbEntity
  8
cut
  6
ByLayer
 62
  256
370
   -1
100
AcDbCircle
 10
151.961524227067
 20
109.9999999999999
 40
20
100
AcDbArc
 50
215.7176796852501
 51
264.2823203147482
  0
ARC
  5
18B
100
AcDbEntity
  8
cut
  6
ByLayer
 62
  256
370
   -1
100
AcDbCircle
 10
149.9590257876162
 20
90.00000000000006
 40
0.1
100
AcDbArc
 50
275.7176796852762
 51
84.28232031472373
  0
ARC
  5
18C
100
AcDbEntity
  8
cut
  6
ByLayer
 62
  256
370
   -1
100
AcDbCircle
 10
150.9602750073418
 20
108.265785480398
 40
0.1
100
AcDbArc
 50
335.7176796852462
 51
144.2823203147539
  0
ARC
  5
18D
100
AcDbEntity
  8
cut
  6
ByLayer
 62
  256
370
   -1
100
AcDbCircle
 10
134.6410161513782
 20
120
 40
20
100
AcDbArc
 50
275.7176796852502
 51
324.2823203147496
  0
ARC
  5
18E
100
AcDbEntity
  8
cut
  6
ByLayer
 62
  256
370
   -1
100
AcDbCircle
 10
136.6435145908272
 20
99.99999999999984
 40
0.1
100
AcDbArc
 50
95.71767968524959
 51
264.2823203147536
  0
ARC
  5
18F
100
AcDbEntity
  8
cut
  6
ByLayer
 62
  256
370
   -1
100
AcDbCircle
 10
134.6410161513782
 20
79.99999999999979
 40
20
100
AcDbArc
 50
35.7176796852517
 51
84.2823203147498
  0
ARC
  5
190
100
AcDbEntity
  8
cut
  6
ByLayer
 62
  256
370
   -1
100
AcDbCircle
 10
169.2820323027549
 20
99.99999999999982
 40
20
100
AcDbArc
 50
155.71767968525
 51
204.2823203147481
  0
ARC
  5
191
100
AcDbEntity
  8
cut
  6
ByLayer
 62
  256
370
   -1
100
AcDbCircle
 10
150.9602750073409
 20
91.7342145196024
 40
0.1
100
AcDbArc
 50
215.7176796852761
 51
24.2823203147237
  0
ARC
  5
192
100
AcDbEntity
  8
cut
  6
ByLayer
 62
  256
370
   -1
100
AcDbCircle
 10
49.94156524289201
 20
132.8962476533166
 40
0.1
100
AcDbArc
 50
146.6888057675612
 51
320.0884430580688
  0
ARC
  5
193
100
AcDbEntity
  8
cut
  6
ByLayer
 62
  256
370
   -1
100
AcDbCircle
 10
65.35898384862185
 20
120
 40
20
100
AcDbArc
 50
90.16443977681548
 51
140.0884430580499
  0
ARC
  5
194
100
AcDbEntity
  8
cut
  6
ByLayer
 62
  256
370
   -1
100
AcDbCircle
 10
65.30129661573119
 20
140.0999172183161
 40
0.1
100
AcDbArc
 50
270.1644397767451
 51
329.8355602231982
  0
ARC
  5
195
100
AcDbEntity
  8
cut
  6
ByLayer
 62
  256
370
   -1
100
AcDbCircle
 10
82.67949192431115
 20
129.9999999999998
 40
20
100
AcDbArc
 50
90.16443977681679
 51
149.8355602231827
  0
ARC
  5
196
100
AcDbEntity
  8
cut
  6
ByLayer
 62
  256
370
   -1
100
AcDbCircle
 10
82.62180469142004
 20
150.0999172183159
 40
0.1
100
AcDbArc
 50
270.1644397767452
 51
329.8355602231559
  0
ARC
  5
197
100
AcDbEntity
  8
cut
  6
ByLayer
 62
  256
370
   -1
100
AcDbCircle
 10
100
 20
140
 40
20
100
AcDbArc
 50
99.91155694194654
 51
149.8355602231847
  0
ARC
  5
198
100
AcDbEntity
  8
cut
  6
ByLayer
 62
  256
370
   -1
100
AcDbCircle
 10
100
 20
100
 40
60
100
AcDbArc
 50
93.31119423244822
 51
146.6888057675507
  0
ARC
  5
199
100
AcDbEntity
  8
cut
  6
ByLayer
 62
  256
370
   -1
100
AcDbCircle
 10
96.54023122159879
 20
159.8
 40
0.1
100
AcDbArc
 50
279.9115569418924
 51
93.31119423247725
  0
ARC
  5
19A
100
AcDbEntity
  8
cut
  6
ByLayer
 62
  256
370
   -1
100
AcDbCircle
 10
46.48179646448898
 20
73.09624765331688
 40
0.1
100
AcDbArc
 50
206.6888057675612
 51
20.08844305806878
  0
ARC
  5
19B
100
AcDbEntity
  8
cut
  6
ByLayer
 62
  256
370
   -1
100
AcDbCircle
 10
65.35898384862185
 20
79.99999999999987
 40
20
100
AcDbArc
 50
150.1644397768155
 51
200.0884430580498
  0
ARC
  5
19C
100
AcDbEntity
  8
cut
  6
ByLayer
 62
  256
370
   -1
100
AcDbCircle
 10
47.92310130715077
 20
90.00000000000021
 40
0.1
100
AcDbArc
 50
330.1644397767451
 51
29.83556022319818
  0
ARC
  5
19D
100
AcDbEntity
  8
cut
  6
ByLayer
 62
  256
370
   -1
100
AcDbCircle
 10
65.35898384862321
 20
99.99999999999984
 40
20
100
AcDbArc
 50
150.1644397768168
 51
209.8355602231828
  0
ARC
  5
19E
100
AcDbEntity
  8
cut
  6
ByLayer
 62
  256
370
   -1
100
AcDbCircle
 10
47.92310130715077
 20
109.9999999999998
 40
0.1
100
AcDbArc
 50
330.1644397767452
 51
29.83556022315594
  0
ARC
  5
19F
100
AcDbEntity
  8
cut
  6
ByLayer
 62
  256
370
   -1
100
AcDbCircle
 10
65.35898384862185
 20
120
 40
20
100
AcDbArc
 50
159.9115569419465
 51
209.8355602231847
  0
ARC
  5
1A0
100
AcDbEntity
  8
cut
  6
ByLayer
 62
  256
370
   -1
100
AcDbCircle
 10
100
 20
100
 40
60
100
AcDbArc
 50
153.3111942324482
 51
206.6888057675507
  0
ARC
  5
1A1
100
AcDbEntity
  8
cut
  6
ByLayer
 62
  256
370
   -1
100
AcDbCircle
 10
46.48179646448989
 20
126.9037523466843
 40
0.1
100
AcDbArc
 50
339.9115569418924
 51
153.3111942324772
  0
ARC
  5
1A2
100
AcDbEntity
  8
cut
  6
ByLayer
 62
  256
370
   -1
100
AcDbCircle
 10
96.54023122159697
 20
40.20000000000028
 40
0.1
100
AcDbArc
 50
266.6888057675612
 51
80.08844305806882
  0
ARC
  5
1A3
100
AcDbEntity
  8
cut
  6
ByLayer
 62
  256
370
   -1
100
AcDbCircle
 10
100
 20
59.99999999999987
 40
20
100
AcDbArc
 50
210.1644397768155
 51
260.0884430580499
  0
ARC
  5
1A4
100
AcDbEntity
  8
cut
  6
ByLayer
 62
  256
370
   -1
100
AcDbCircle
 10
82.62180469142004
 20
49.90008278168408
 40
0.1
100
AcDbArc
 50
30.16443977674512
 51
89.83556022319816
  0
ARC
  5
1A5
100
AcDbEntity
  8
cut
  6
ByLayer
 62
  256
370
   -1
100
AcDbCircle
 10
82.67949192431206
 20
70.00000000000004
 40
20
100
AcDbArc
 50
210.1644397768168
 51
269.8355602231827
  0
ARC
  5
1A6
100
AcDbEntity
  8
cut
  6
ByLayer
 62
  256
370
   -1
100
AcDbCircle
 10
65.30129661573119
 20
59.90008278168386
 40
0.1
100
AcDbArc
 50
30.16443977674512
 51
89.83556022315592
  0
ARC
  5
1A7
100
AcDbEntity
  8
cut
  6
ByLayer
 62
  256
370
   -1
100
AcDbCircle
 10
65.35898384862185
 20
80
 40
20
100
AcDbArc
 50
219.9115569419465
 51
269.8355602231846
  0
ARC
  5
1A8
100
AcDbEntity
  8
cut
  6
ByLayer
 62
  256
370
   -1
100
AcDbCircle
 10
100
 20
100
 40
60
100
AcDbArc
 50
213.3111942324482
 51
266.6888057675507
  0
ARC
  5
1A9
100
AcDbEntity
  8
cut
  6
ByLayer
 62
  256
370
   -1
100
AcDbCircle
 10
49.9415652428911
 20
67.1037523466843
 40
0.1
100
AcDbArc
 50
39.91155694189237
 51
213.3111942324772
  0
ARC
  5
1AA
100
AcDbEntity
  8
cut
  6
ByLayer
 62
  256
370
   -1
100
AcDbCircle
 10
150.058434757108
 20
67.10375234668339
 40
0.1
100
AcDbArc
 50
326.6888057675612
 51
140.0884430580689
  0
ARC
  5
1AB
100
AcDbEntity
  8
cut
  6
ByLayer
 62
  256
370
   -1
100
AcDbCircle
 10
134.6410161513782
 20
80
 40
20
100
AcDbArc
 50
270.1644397768155
 51
320.0884430580498
  0
ARC
  5
1AC
100
AcDbEntity
  8
cut
  6
ByLayer
 62
  256
370
   -1
100
AcDbCircle
 10
134.6987033842688
 20
59.90008278168386
 40
0.1
100
AcDbArc
 50
90.1644397767451
 51
149.8355602231982
  0
ARC
  5
1AD
100
AcDbEntity
  8
cut
  6
ByLayer
 62
  256
370
   -1
100
AcDbCircle
 10
117.3205080756888
 20
70.0000000000002
 40
20
100
AcDbArc
 50
270.1644397768168
 51
329.8355602231827
  0
ARC
  5
1AE
100
AcDbEntity
  8
cut
  6
ByLayer
 62
  256
370
   -1
100
AcDbCircle
 10
117.37819530858
 20
49.90008278168409
 40
0.1
100
AcDbArc
 50
90.16443977674516
 51
149.835560223156
  0
ARC
  5
1AF
100
AcDbEntity
  8
cut
  6
ByLayer
 62
  256
370
   -1
100
AcDbCircle
 10
100
 20
60
 40
20
100
AcDbArc
 50
279.9115569419466
 51
329.8355602231846
  0
ARC
  5
1B0
100
AcDbEntity
  8
cut
  6
ByLayer
 62
  256
370
   -1
100
AcDbCircle
 10
100
 20
100
 40
60
100
AcDbArc
 50
273.3111942324482
 51
326.6888057675507
  0
ARC
  5
1B1
100
AcDbEntity
  8
cut
  6
ByLayer
 62
  256
370
   -1
100
AcDbCircle
 10
103.4597687784012
 20
40.19999999999999
 40
0.1
100
AcDbArc
 50
99.9115569418924
 51
273.3111942324772
  0
ARC
  5
1B2
100
AcDbEntity
  8
cut
  6
ByLayer
 62
  256
370
   -1
100
AcDbCircle
 10
153.518203535511
 20
126.9037523466831
 40
0.1
100
AcDbArc
 50
26.68880576756112
 51
200.0884430580688
  0
ARC
  5
1B3
100
AcDbEntity
  8
cut
  6
ByLayer
 62
  256
370
   -1
100
AcDbCircle
 10
134.6410161513782
 20
120.0000000000001
 40
20
100
AcDbArc
 50
330.1644397768155
 51
20.08844305804985
  0
ARC
  5
1B4
100
AcDbEntity
  8
cut
  6
ByLayer
 62
  256
370
   -1
100
AcDbCircle
 10
152.0768986928492
 20
109.9999999999998
 40
0.1
100
AcDbArc
 50
150.1644397767451
 51
209.8355602231981
  0
ARC
  5
1B5
100
AcDbEntity
  8
cut
  6
ByLayer
 62
  256
370
   -1
100
AcDbCircle
 10
134.6410161513768
 20
100.0000000000001
 40
20
100
AcDbArc
 50
330.1644397768168
 51
29.83556022318276
  0
ARC
  5
1B6
100
AcDbEntity
  8
cut
  6
ByLayer
 62
  256
370
   -1
100
AcDbCircle
 10
152.0768986928492
 20
90.00000000000021
 40
0.1
100
AcDbArc
 50
150.1644397767451
 51
209.835560223156
  0
ARC
  5
1B7
100
AcDbEntity
  8
cut
  6
ByLayer
 62
  256
370
   -1
100
AcDbCircle
 10
134.6410161513782
 20
79.99999999999999
 40
20
100
AcDbArc
 50
339.9115569419465
 51
29.83556022318469
  0
ARC
  5
1B8
100
AcDbEntity
  8
cut
  6
ByLayer
 62
  256
370
   -1
100
AcDbCircle
 10
100
 20
100
 40
60
100
AcDbArc
 50
333.3111942324482
 51
26.68880576755069
  0
ARC
  5
1B9
100
AcDbEntity
  8
cut
  6
ByLayer
 62
  256
370
   -1
100
AcDbCircle
 10
153.5182035355101
 20
73.09624765331567
 40
0.1
100
AcDbArc
 50
159.9115569418923
 51
333.3111942324772
  0
ARC
  5
1BA
100
AcDbEntity
  8
cut
  6
ByLayer
 62
  256
370
   -1
100
AcDbCircle
 10
103.459768778403
 20
159.7999999999997
 40
0.1
100
AcDbArc
 50
86.68880576756116
 51
260.0884430580687
  0
ARC
  5
1BB
100
AcDbEntity
  8
cut
  6
ByLayer
 62
  256
370
   -1
100
AcDbCircle
 10
100
 20
140.0000000000001
 40
20
100
AcDbArc
 50
30.16443977681545
 51
80.08844305804983
  0
ARC
  5
1BC
100
AcDbEntity
  8
cut
  6
ByLayer
 62
  256
370
   -1
100
AcDbCircle
 10
117.37819530858
 20
150.0999172183159
 40
0.1
100
AcDbArc
 50
210.164439776745
 51
269.8355602231982
  0
ARC
  5
1BD
100
AcDbEntity
  8
cut
  6
ByLayer
 62
  256
370
   -1
100
AcDbCircle
 10
117.3205080756879
 20
129.9999999999999
 40
20
100
AcDbArc
 50
30.16443977681677
 51
89.83556022318268
  0
ARC
  5
1BE
100
AcDbEntity
  8
cut
  6
ByLayer
 62
  256
370
   -1
100
AcDbCircle
 10
134.6987033842688
 20
140.0999172183161
 40
0.1
100
AcDbArc
 50
210.1644397767451
 51
269.8355602231559
  0
ARC
  5
1BF
100
AcDbEntity
  8
cut
  6
ByLayer
 62
  256
370
   -1
100
AcDbCircle
 10
134.6410161513782
 20
120
 40
20
100
AcDbArc
 50
39.91155694194651
 51
89.83556022318461
  0
ARC
  5
1C0
100
AcDbEntity
  8
cut
  6
ByLayer
 62
  256
370
   -1
100
AcDbCircle
 10
100
 20
100
 40
60
100
AcDbArc
 50
33.31119423244817
 51
86.68880576755068
  0
ARC
  5
1C1
100
AcDbEntity
  8
cut
  6
ByLayer
 62
  256
370
   -1
100
AcDbCircle
 10
150.0584347571089
 20
132.8962476533157
 40
0.1
100
AcDbArc
 50
219.9115569418924
 51
33.31119423247723
  0
ENDSEC
  0
SECTION
  2
OBJECTS
  0
DICTIONARY
  5
C
330
0
100
AcDbDictionary
281
    1
  3
ACAD_GROUP
350
D
  0
DICTIONARY
  5
D
330
C
100
AcDbDictionary
281
    1
  0
ENDSEC
  0
EOF
