  0
SECTION
  2
HEADER
  9
$ACADVER
  1
AC1024
  9
$ACADMAINTVER
 70
     6
  9
$DWGCODEPAGE
  3
ANSI_1251
  9
$INSBASE
 10
0.0
 20
0.0
 30
0.0
  9
$EXTMIN
 10
1.000000000000000E+20
 20
1.000000000000000E+20
 30
1.000000000000000E+20
  9
$EXTMAX
 10
-1.000000000000000E+20
 20
-1.000000000000000E+20
 30
-1.000000000000000E+20
  9
$LIMMIN
 10
0.0
 20
0.0
  9
$LIMMAX
 10
12.0
 20
9.0
  9
$ORTHOMODE
 70
     0
  9
$REGENMODE
 70
     1
  9
$FILLMODE
 70
     1
  9
$QTEXTMODE
 70
     0
  9
$MIRRTEXT
 70
     1
  9
$LTSCALE
 40
1.0
  9
$ATTMODE
 70
     1
  9
$TEXTSIZE
 40
0.2
  9
$TRACEWID
 40
0.05
  9
$TEXTSTYLE
  7
Standard
  9
$CLAYER
  8
0
  9
$CELTYPE
  6
ByLayer
  9
$CECOLOR
 62
   256
  9
$CELTSCALE
 40
1.0
  9
$DISPSILH
 70
     0
  9
$DIMSCALE
 40
1.0
  9
$DIMASZ
 40
0.18
  9
$DIMEXO
 40
0.0625
  9
$DIMDLI
 40
0.38
  9
$DIMRND
 40
0.0
  9
$DIMDLE
 40
0.0
  9
$DIMEXE
 40
0.18
  9
$DIMTP
 40
0.0
  9
$DIMTM
 40
0.0
  9
$DIMTXT
 40
0.18
  9
$DIMCEN
 40
0.09
  9
$DIMTSZ
 40
0.0
  9
$DIMTOL
 70
     0
  9
$DIMLIM
 70
     0
  9
$DIMTIH
 70
     1
  9
$DIMTOH
 70
     1
  9
$DIMSE1
 70
     0
  9
$DIMSE2
 70
     0
  9
$DIMTAD
 70
     0
  9
$DIMZIN
 70
     0
  9
$DIMBLK
  1

  9
$DIMASO
 70
     1
  9
$DIMSHO
 70
     1
  9
$DIMPOST
  1

  9
$DIMAPOST
  1

  9
$DIMALT
 70
     0
  9
$DIMALTD
 70
     2
  9
$DIMALTF
 40
25.4
  9
$DIMLFAC
 40
1.0
  9
$DIMTOFL
 70
     0
  9
$DIMTVP
 40
0.0
  9
$DIMTIX
 70
     0
  9
$DIMSOXD
 70
     0
  9
$DIMSAH
 70
     0
  9
$DIMBLK1
  1

  9
$DIMBLK2
  1

  9
$DIMSTYLE
  2
Standard
  9
$DIMCLRD
 70
     0
  9
$DIMCLRE
 70
     0
  9
$DIMCLRT
 70
     0
  9
$DIMTFAC
 40
1.0
  9
$DIMGAP
 40
0.09
  9
$DIMJUST
 70
     0
  9
$DIMSD1
 70
     0
  9
$DIMSD2
 70
     0
  9
$DIMTOLJ
 70
     1
  9
$DIMTZIN
 70
     0
  9
$DIMALTZ
 70
     0
  9
$DIMALTTZ
 70
     0
  9
$DIMUPT
 70
     0
  9
$DIMDEC
 70
     4
  9
$DIMTDEC
 70
     4
  9
$DIMALTU
 70
     2
  9
$DIMALTTD
 70
     2
  9
$DIMTXSTY
  7
Standard
  9
$DIMAUNIT
 70
     0
  9
$DIMADEC
 70
     0
  9
$DIMALTRND
 40
0.0
  9
$DIMAZIN
 70
     0
  9
$DIMDSEP
 70
    46
  9
$DIMATFIT
 70
     3
  9
$DIMFRAC
 70
     0
  9
$DIMLDRBLK
  1

  9
$DIMLUNIT
 70
     2
  9
$DIMLWD
 70
    -2
  9
$DIMLWE
 70
    -2
  9
$DIMTMOVE
 70
     0
  9
$DIMFXL
 40
1.0
  9
$DIMFXLON
 70
     0
  9
$DIMJOGANG
 40
0.7853981633974483
  9
$DIMTFILL
 70
     0
  9
$DIMTFILLCLR
 70
     0
  9
$DIMARCSYM
 70
     0
  9
$DIMLTYPE
  6

  9
$DIMLTEX1
  6

  9
$DIMLTEX2
  6

  9
$DIMTXTDIRECTION
 70
     0
  9
$LUNITS
 70
     2
  9
$LUPREC
 70
     4
  9
$SKETCHINC
 40
0.1
  9
$FILLETRAD
 40
0.5
  9
$AUNITS
 70
     0
  9
$AUPREC
 70
     0
  9
$MENU
  1
.
  9
$ELEVATION
 40
0.0
  9
$PELEVATION
 40
0.0
  9
$THICKNESS
 40
0.0
  9
$LIMCHECK
 70
     0
  9
$CHAMFERA
 40
0.5
  9
$CHAMFERB
 40
0.5
  9
$CHAMFERC
 40
1.0
  9
$CHAMFERD
 40
0.0
  9
$SKPOLY
 70
     0
  9
$TDCREATE
 40
2459936.759525255
  9
$TDUCREATE
 40
2459936.676191921
  9
$TDUPDATE
 40
2459936.759525602
  9
$TDUUPDATE
 40
2459936.676192269
  9
$TDINDWG
 40
0.0000000116
  9
$TDUSRTIMER
 40
0.0000000116
  9
$USRTIMER
 70
     1
  9
$ANGBASE
 50
0.0
  9
$ANGDIR
 70
     0
  9
$PDMODE
 70
     0
  9
$PDSIZE
 40
0.0
  9
$PLINEWID
 40
0.0
  9
$SPLFRAME
 70
     0
  9
$SPLINETYPE
 70
     6
  9
$SPLINESEGS
 70
     8
  9
$HANDSEED
  5
49
  9
$SURFTAB1
 70
     6
  9
$SURFTAB2
 70
     6
  9
$SURFTYPE
 70
     6
  9
$SURFU
 70
     6
  9
$SURFV
 70
     6
  9
$UCSBASE
  2

  9
$UCSNAME
  2

  9
$UCSORG
 10
0.0
 20
0.0
 30
0.0
  9
$UCSXDIR
 10
1.0
 20
0.0
 30
0.0
  9
$UCSYDIR
 10
0.0
 20
1.0
 30
0.0
  9
$UCSORTHOREF
  2

  9
$UCSORTHOVIEW
 70
     0
  9
$UCSORGTOP
 10
0.0
 20
0.0
 30
0.0
  9
$UCSORGBOTTOM
 10
0.0
 20
0.0
 30
0.0
  9
$UCSORGLEFT
 10
0.0
 20
0.0
 30
0.0
  9
$UCSORGRIGHT
 10
0.0
 20
0.0
 30
0.0
  9
$UCSORGFRONT
 10
0.0
 20
0.0
 30
0.0
  9
$UCSORGBACK
 10
0.0
 20
0.0
 30
0.0
  9
$PUCSBASE
  2

  9
$PUCSNAME
  2

  9
$PUCSORG
 10
0.0
 20
0.0
 30
0.0
  9
$PUCSXDIR
 10
1.0
 20
0.0
 30
0.0
  9
$PUCSYDIR
 10
0.0
 20
1.0
 30
0.0
  9
$PUCSORTHOREF
  2

  9
$PUCSORTHOVIEW
 70
     0
  9
$PUCSORGTOP
 10
0.0
 20
0.0
 30
0.0
  9
$PUCSORGBOTTOM
 10
0.0
 20
0.0
 30
0.0
  9
$PUCSORGLEFT
 10
0.0
 20
0.0
 30
0.0
  9
$PUCSORGRIGHT
 10
0.0
 20
0.0
 30
0.0
  9
$PUCSORGFRONT
 10
0.0
 20
0.0
 30
0.0
  9
$PUCSORGBACK
 10
0.0
 20
0.0
 30
0.0
  9
$USERI1
 70
     0
  9
$USERI2
 70
     0
  9
$USERI3
 70
     0
  9
$USERI4
 70
     0
  9
$USERI5
 70
     0
  9
$USERR1
 40
0.0
  9
$USERR2
 40
0.0
  9
$USERR3
 40
0.0
  9
$USERR4
 40
0.0
  9
$USERR5
 40
0.0
  9
$WORLDVIEW
 70
     1
  9
$SHADEDGE
 70
     3
  9
$SHADEDIF
 70
    70
  9
$TILEMODE
 70
     1
  9
$MAXACTVP
 70
    64
  9
$PINSBASE
 10
0.0
 20
0.0
 30
0.0
  9
$PLIMCHECK
 70
     0
  9
$PEXTMIN
 10
1.000000000000000E+20
 20
1.000000000000000E+20
 30
1.000000000000000E+20
  9
$PEXTMAX
 10
-1.000000000000000E+20
 20
-1.000000000000000E+20
 30
-1.000000000000000E+20
  9
$PLIMMIN
 10
0.0
 20
0.0
  9
$PLIMMAX
 10
12.0
 20
9.0
  9
$UNITMODE
 70
     0
  9
$VISRETAIN
 70
     1
  9
$PLINEGEN
 70
     0
  9
$PSLTSCALE
 70
     1
  9
$TREEDEPTH
 70
  3020
  9
$CMLSTYLE
  2
Standard
  9
$CMLJUST
 70
     0
  9
$CMLSCALE
 40
1.0
  9
$PROXYGRAPHICS
 70
     1
  9
$MEASUREMENT
 70
     0
  9
$CELWEIGHT
370
    -1
  9
$ENDCAPS
280
     0
  9
$JOINSTYLE
280
     0
  9
$LWDISPLAY
290
     1
  9
$INSUNITS
 70
     1
  9
$HYPERLINKBASE
  1

  9
$STYLESHEET
  1

  9
$XEDIT
290
     1
  9
$CEPSNTYPE
380
     0
  9
$PSTYLEMODE
290
     1
  9
$FINGERPRINTGUID
  2
{41A72280-08F5-4210-AAD9-BA184FE785B3}
  9
$VERSIONGUID
  2
{FAEB1C32-E019-11D5-929B-00C0DF256EC4}
  9
$EXTNAMES
290
     1
  9
$PSVPSCALE
 40
0.0
  9
$OLESTARTUP
290
     0
  9
$SORTENTS
280
   127
  9
$INDEXCTL
280
     0
  9
$HIDETEXT
280
     1
  9
$XCLIPFRAME
280
     2
  9
$HALOGAP
280
     0
  9
$OBSCOLOR
 70
   257
  9
$OBSLTYPE
280
     0
  9
$INTERSECTIONDISPLAY
280
     0
  9
$INTERSECTIONCOLOR
 70
   257
  9
$DIMASSOC
280
     2
  9
$PROJECTNAME
  1

  9
$CAMERADISPLAY
290
     0
  9
$LENSLENGTH
 40
50.0
  9
$CAMERAHEIGHT
 40
0.0
  9
$STEPSPERSEC
 40
2.0
  9
$STEPSIZE
 40
6.0
  9
$3DDWFPREC
 40
2.0
  9
$PSOLWIDTH
 40
0.25
  9
$PSOLHEIGHT
 40
4.0
  9
$LOFTANG1
 40
1.570796326794897
  9
$LOFTANG2
 40
1.570796326794897
  9
$LOFTMAG1
 40
0.0
  9
$LOFTMAG2
 40
0.0
  9
$LOFTPARAM
 70
     7
  9
$LOFTNORMALS
280
     1
  9
$LATITUDE
 40
37.795
  9
$LONGITUDE
 40
-122.394
  9
$NORTHDIRECTION
 40
0.0
  9
$TIMEZONE
 70
 -8000
  9
$LIGHTGLYPHDISPLAY
280
     1
  9
$TILEMODELIGHTSYNCH
280
     1
  9
$CMATERIAL
347
3C
  9
$SOLIDHIST
280
     1
  9
$SHOWHIST
280
     1
  9
$DWFFRAME
280
     2
  9
$DGNFRAME
280
     2
  9
$REALWORLDSCALE
290
     1
  9
$INTERFERECOLOR
 62
   256
  9
$CSHADOW
280
     0
  9
$SHADOWPLANELOCATION
 40
0.0
  0
ENDSEC
  0
SECTION
  2
CLASSES
  0
CLASS
  1
ACDBDICTIONARYWDFLT
  2
AcDbDictionaryWithDefault
  3
ObjectDBX Classes
 90
        0
 91
        4
280
     0
281
     0
  0
CLASS
  1
VISUALSTYLE
  2
AcDbVisualStyle
  3
ObjectDBX Classes
 90
     4095
 91
        4
280
     0
281
     0
  0
CLASS
  1
MATERIAL
  2
AcDbMaterial
  3
ObjectDBX Classes
 90
     1153
 91
        4
280
     0
281
     0
  0
CLASS
  1
SUN
  2
AcDbSun
  3
SCENEOE
 90
     1024
 91
        4
280
     0
281
     0
  0
ENDSEC
  0
SECTION
  2
TABLES
  0
TABLE
  2
VPORT
  5
8
330
0
100
AcDbSymbolTable
 70
     1
  0
VPORT
  5
29
330
8
100
AcDbSymbolTableRecord
100
AcDbViewportTableRecord
  2
*Active
 70
     0
 10
0.0
 20
0.0
 11
1.0
 21
1.0
 12
0.0
 22
0.0
 13
0.0
 23
0.0
 14
0.5
 24
0.5
 15
0.5
 25
0.5
 16
0.0
 26
0.0
 36
1.0
 17
997.5
 27
-1000.0
 37
0.0
 40
225.0
 41
1.666666666666667
 42
50.0
 43
0.0
 44
0.0
 50
0.0
 51
0.0
 71
     0
 72
   100
 73
     1
 74
     3
 75
     0
 76
     0
 77
     0
 78
     0
281
     0
 65
     1
110
0.0
120
0.0
130
0.0
111
1.0
121
0.0
131
0.0
112
0.0
122
1.0
132
0.0
 79
     0
146
0.0
 60
     3
 61
     5
292
     1
282
     1
141
0.0
142
0.0
 63
   250
361
3F
  0
ENDTAB
  0
TABLE
  2
LTYPE
  5
5
330
0
100
AcDbSymbolTable
 70
     1
  0
LTYPE
  5
14
330
5
100
AcDbSymbolTableRecord
100
AcDbLinetypeTableRecord
  2
ByBlock
 70
     0
  3

 72
    65
 73
     0
 40
0.0
  0
LTYPE
  5
15
330
5
100
AcDbSymbolTableRecord
100
AcDbLinetypeTableRecord
  2
ByLayer
 70
     0
  3

 72
    65
 73
     0
 40
0.0
  0
LTYPE
  5
16
330
5
100
AcDbSymbolTableRecord
100
AcDbLinetypeTableRecord
  2
Continuous
 70
     0
  3
Solid line
 72
    65
 73
     0
 40
0.0
  0
ENDTAB
  0
TABLE
  2
LAYER
  5
2
330
0
100
AcDbSymbolTable
 70
     2
  0
LAYER
  5
10
330
2
100
AcDbSymbolTableRecord
100
AcDbLayerTableRecord
  2
0
 70
     0
 62
     7
  6
Continuous
370
    -3
390
F
347
3E
  0
LAYER
  5
40
330
2
100
AcDbSymbolTableRecord
100
AcDbLayerTableRecord
  2
_U+0430_U+0440 1
 70
     0
 62
     7
  6
Continuous
370
    -3
390
F
347
3E
  0
ENDTAB
  0
TABLE
  2
STYLE
  5
3
330
0
100
AcDbSymbolTable
 70
     1
  0
STYLE
  5
11
330
3
100
AcDbSymbolTableRecord
100
AcDbTextStyleTableRecord
  2
Standard
 70
     0
 40
0.0
 41
1.0
 50
0.0
 71
     0
 42
0.2
  3
txt
  4

  0
ENDTAB
  0
TABLE
  2
VIEW
  5
6
330
0
100
AcDbSymbolTable
 70
     0
  0
ENDTAB
  0
TABLE
  2
UCS
  5
7
330
0
100
AcDbSymbolTable
 70
     0
  0
ENDTAB
  0
TABLE
  2
APPID
  5
9
330
0
100
AcDbSymbolTable
 70
     1
  0
APPID
  5
12
330
9
100
AcDbSymbolTableRecord
100
AcDbRegAppTableRecord
  2
ACAD
 70
     0
  0
ENDTAB
  0
TABLE
  2
DIMSTYLE
  5
A
330
0
100
AcDbSymbolTable
 70
     1
100
AcDbDimStyleTable
  0
DIMSTYLE
105
27
330
A
100
AcDbSymbolTableRecord
100
AcDbDimStyleTableRecord
  2
Standard
 70
     0
178
     0
340
11
  0
ENDTAB
  0
TABLE
  2
BLOCK_RECORD
  5
1
330
0
100
AcDbSymbolTable
 70
     1
  0
BLOCK_RECORD
  5
1F
330
1
100
AcDbSymbolTableRecord
100
AcDbBlockTableRecord
  2
*Model_Space
340
22
 70
     0
280
     1
281
     0
  0
BLOCK_RECORD
  5
1B
330
1
100
AcDbSymbolTableRecord
100
AcDbBlockTableRecord
  2
*Paper_Space
340
1E
 70
     0
280
     1
281
     0
  0
BLOCK_RECORD
  5
23
330
1
100
AcDbSymbolTableRecord
100
AcDbBlockTableRecord
  2
*Paper_Space0
340
26
 70
     0
280
     1
281
     0
  0
ENDTAB
  0
ENDSEC
  0
SECTION
  2
BLOCKS
  0
BLOCK
  5
20
330
1F
100
AcDbEntity
  8
0
100
AcDbBlockBegin
  2
*Model_Space
 70
     0
 10
0.0
 20
0.0
 30
0.0
  3
*Model_Space
  1

  0
ENDBLK
  5
21
330
1F
100
AcDbEntity
  8
0
100
AcDbBlockEnd
  0
BLOCK
  5
1C
330
1B
100
AcDbEntity
 67
     1
  8
0
100
AcDbBlockBegin
  2
*Paper_Space
 70
     0
 10
0.0
 20
0.0
 30
0.0
  3
*Paper_Space
  1

  0
ENDBLK
  5
1D
330
1B
100
AcDbEntity
 67
     1
  8
0
100
AcDbBlockEnd
  0
BLOCK
  5
24
330
23
100
AcDbEntity
  8
0
100
AcDbBlockBegin
  2
*Paper_Space0
 70
     0
 10
0.0
 20
0.0
 30
0.0
  3
*Paper_Space0
  1

  0
ENDBLK
  5
25
330
23
100
AcDbEntity
  8
0
100
AcDbBlockEnd
  0
ENDSEC
  0
SECTION
  2
ENTITIES
  0
SPLINE
  5
41
330
1F
100
AcDbEntity
  8
_U+0430_U+0440 1
370
     0
100
AcDbSpline
210
0.0
220
0.0
230
1.0
 70
    11
 71
     3
 72
   233
 73
   229
 74
     0
 42
0.0000000001
 43
0.0000000001
 12
1.0
 22
0.0
 32
0.0
 13
1.0
 23
0.0
 33
0.0
 40
0.0
 40
0.0
 40
0.0
 40
0.0
 40
1.0
 40
1.0
 40
1.0
 40
2.0
 40
2.0
 40
2.0
 40
3.0
 40
3.0
 40
3.0
 40
4.0
 40
4.0
 40
4.0
 40
5.0
 40
5.0
 40
5.0
 40
6.0
 40
6.0
 40
6.0
 40
7.0
 40
7.0
 40
7.0
 40
8.0
 40
8.0
 40
8.0
 40
9.0
 40
9.0
 40
9.0
 40
10.0
 40
10.0
 40
10.0
 40
11.0
 40
11.0
 40
11.0
 40
12.0
 40
12.0
 40
12.0
 40
13.0
 40
13.0
 40
13.0
 40
14.0
 40
14.0
 40
14.0
 40
15.0
 40
15.0
 40
15.0
 40
16.0
 40
16.0
 40
16.0
 40
17.0
 40
17.0
 40
17.0
 40
18.0
 40
18.0
 40
18.0
 40
19.0
 40
19.0
 40
19.0
 40
20.0
 40
20.0
 40
20.0
 40
21.0
 40
21.0
 40
21.0
 40
22.0
 40
22.0
 40
22.0
 40
23.0
 40
23.0
 40
23.0
 40
24.0
 40
24.0
 40
24.0
 40
25.0
 40
25.0
 40
25.0
 40
26.0
 40
26.0
 40
26.0
 40
27.0
 40
27.0
 40
27.0
 40
28.0
 40
28.0
 40
28.0
 40
29.0
 40
29.0
 40
29.0
 40
30.0
 40
30.0
 40
30.0
 40
31.0
 40
31.0
 40
31.0
 40
32.0
 40
32.0
 40
32.0
 40
33.0
 40
33.0
 40
33.0
 40
34.0
 40
34.0
 40
34.0
 40
35.0
 40
35.0
 40
35.0
 40
36.0
 40
36.0
 40
36.0
 40
37.0
 40
37.0
 40
37.0
 40
38.0
 40
38.0
 40
38.0
 40
39.0
 40
39.0
 40
39.0
 40
40.0
 40
40.0
 40
40.0
 40
41.0
 40
41.0
 40
41.0
 40
42.0
 40
42.0
 40
42.0
 40
43.0
 40
43.0
 40
43.0
 40
44.0
 40
44.0
 40
44.0
 40
45.0
 40
45.0
 40
45.0
 40
46.0
 40
46.0
 40
46.0
 40
47.0
 40
47.0
 40
47.0
 40
48.0
 40
48.0
 40
48.0
 40
49.0
 40
49.0
 40
49.0
 40
50.0
 40
50.0
 40
50.0
 40
51.0
 40
51.0
 40
51.0
 40
52.0
 40
52.0
 40
52.0
 40
53.0
 40
53.0
 40
53.0
 40
54.0
 40
54.0
 40
54.0
 40
55.0
 40
55.0
 40
55.0
 40
56.0
 40
56.0
 40
56.0
 40
57.0
 40
57.0
 40
57.0
 40
58.0
 40
58.0
 40
58.0
 40
59.0
 40
59.0
 40
59.0
 40
60.0
 40
60.0
 40
60.0
 40
61.0
 40
61.0
 40
61.0
 40
62.0
 40
62.0
 40
62.0
 40
63.0
 40
63.0
 40
63.0
 40
64.0
 40
64.0
 40
64.0
 40
65.0
 40
65.0
 40
65.0
 40
66.0
 40
66.0
 40
66.0
 40
67.0
 40
67.0
 40
67.0
 40
68.0
 40
68.0
 40
68.0
 40
69.0
 40
69.0
 40
69.0
 40
70.0
 40
70.0
 40
70.0
 40
71.0
 40
71.0
 40
71.0
 40
72.0
 40
72.0
 40
72.0
 40
73.0
 40
73.0
 40
73.0
 40
74.0
 40
74.0
 40
74.0
 40
75.0
 40
75.0
 40
75.0
 40
76.0
 40
76.0
 40
76.0
 40
76.0
 10
962.6058756825296
 20
-999.5919999999996
 30
0.0
 10
962.6058756825296
 20
-999.5919999999996
 30
0.0
 10
962.5854756830449
 20
-999.2910000000002
 30
0.0
 10
962.5854756830449
 20
-999.2910000000002
 30
0.0
 10
962.5854756830449
 20
-999.2910000000002
 30
0.0
 10
961.6457757067838
 20
-999.2910000000002
 30
0.0
 10
961.6457757067838
 20
-999.2910000000002
 30
0.0
 10
961.6457757067838
 20
-999.2910000000002
 30
0.0
 10
961.362575713938
 20
-999.3396000000002
 30
0.0
 10
961.362575713938
 20
-999.3396000000002
 30
0.0
 10
960.5300757349687
 20
-999.4814999999999
 30
0.0
 10
959.5371757600515
 20
-1000.362
 30
0.0
 10
958.2833757917251
 20
-1001.4761
 30
0.0
 10
955.8950758520587
 20
-1003.5962
 30
0.0
 10
952.5572759363786
 20
-1006.5393
 30
0.0
 10
947.8408760555249
 20
-1006.7076
 30
0.0
 10
946.7292760836062
 20
-1006.659599999999
 30
0.0
 10
945.549376113413
 20
-1006.465400000001
 30
0.0
 10
944.2870000000003
 20
-1006.0638
 30
0.0
 10
938.655576287565
 20
-1004.272199999999
 30
0.0
 10
936.181876350056
 20
-997.6620999999996
 30
0.0
 10
936.6475763382914
 20
-992.0582999999997
 30
0.0
 10
936.9921763295861
 20
-987.9333999999999
 30
0.0
 10
939.1298762755832
 20
-983.3036000000002
 30
0.0
 10
944.1027761499572
 20
-982.6810000000005
 30
0.0
 10
944.8199999999997
 20
-982.5926
 30
0.0
 10
945.5041761145549
 20
-982.5401000000002
 30
0.0
 10
946.1624760979248
 20
-982.5140000000001
 30
0.0
 10
950.4058759907275
 20
-982.5227000000004
 30
0.0
 10
953.4468759139054
 20
-983.7112999999999
 30
0.0
 10
955.9631758503383
 20
-984.7205999999996
 30
0.0
 10
957.7990758039596
 20
-985.4555
 30
0.0
 10
959.3307757652656
 20
-986.0595000000003
 30
0.0
 10
960.7815757286153
 20
-985.9174999999996
 30
0.0
 10
961.5276757097672
 20
-985.9929000000002
 30
0.0
 10
962.2427756917023
 20
-985.9182000000001
 30
0.0
 10
962.9522756737788
 20
-985.6054999999997
 30
0.0
 10
962.9522756737788
 20
-985.6054999999997
 30
0.0
 10
963.1074756698581
 20
-985.5380999999998
 30
0.0
 10
963.1074756698581
 20
-985.5380999999998
 30
0.0
 10
963.1074756698581
 20
-985.5380999999998
 30
0.0
 10
964.2487756410264
 20
-953.9047
 30
0.0
 10
964.2487756410264
 20
-953.9047
 30
0.0
 10
964.2487756410264
 20
-953.9047
 30
0.0
 10
964.2487756410264
 20
-953.6180999999997
 30
0.0
 10
964.2487756410264
 20
-953.6180999999997
 30
0.0
 10
964.2487756410264
 20
-953.6180999999997
 30
0.0
 10
963.6527756560827
 20
-953.6122999999998
 30
0.0
 10
963.6527756560827
 20
-953.6122999999998
 30
0.0
 10
963.6527756560827
 20
-953.6122999999998
 30
0.0
 10
963.0361756716593
 20
-953.6288999999997
 30
0.0
 10
963.0361756716593
 20
-953.6288999999997
 30
0.0
 10
963.0361756716593
 20
-953.6288999999997
 30
0.0
 10
962.5636756835956
 20
-953.6468999999997
 30
0.0
 10
961.686775705748
 20
-953.7025000000003
 30
0.0
 10
961.4103757127305
 20
-953.7205999999996
 30
0.0
 10
961.1033757204859
 20
-953.7394000000004
 30
0.0
 10
960.7433757295803
 20
-953.7394000000004
 30
0.0
 10
960.4481757370377
 20
-953.7574000000004
 30
0.0
 10
960.1326757450079
 20
-953.7762000000002
 30
0.0
 10
959.798175753458
 20
-953.7942000000003
 30
0.0
 10
959.798175753458
 20
-953.7942000000003
 30
0.0
 10
959.6890757562142
 20
-953.7951000000003
 30
0.0
 10
959.6890757562142
 20
-953.7951000000003
 30
0.0
 10
959.5747757591016
 20
-953.8041000000003
 30
0.0
 10
959.4552757621204
 20
-953.8086000000003
 30
0.0
 10
959.3342757651772
 20
-953.8140000000003
 30
0.0
 10
959.216475768153
 20
-953.8185000000003
 30
0.0
 10
959.0969999999998
 20
-953.8230000000003
 30
0.0
 10
958.9810757740997
 20
-953.8310000000001
 30
0.0
 10
958.9810757740997
 20
-953.8310000000001
 30
0.0
 10
956.4937758369342
 20
-953.9425000000001
 30
0.0
 10
956.4937758369342
 20
-953.9425000000001
 30
0.0
 10
956.3624758402511
 20
-953.9513999999999
 30
0.0
 10
956.2276758436565
 20
-953.9558999999999
 30
0.0
 10
956.0927758470643
 20
-953.9603999999999
 30
0.0
 10
955.9614758503812
 20
-953.9649
 30
0.0
 10
955.8300758537007
 20
-953.9703
 30
0.0
 10
955.6918758571919
 20
-953.9784
 30
0.0
 10
955.56567586038
 20
-953.9874
 30
0.0
 10
955.4376758636135
 20
-953.9919
 30
0.0
 10
955.3080758668875
 20
-953.9964
 30
0.0
 10
955.1715758703358
 20
-954.0007999999998
 30
0.0
 10
955.03167587387
 20
-954.0063
 30
0.0
 10
954.8951758773183
 20
-954.0151999999998
 30
0.0
 10
953.5116759122684
 20
-954.0762999999997
 30
0.0
 10
952.0052759503233
 20
-954.1293999999998
 30
0.0
 10
950.4170000000004
 20
-954.1850000000004
 30
0.0
 10
950.4170000000004
 20
-954.1850000000004
 30
0.0
 10
947.958676052549
 20
-954.2731000000003
 30
0.0
 10
947.958676052549
 20
-954.2731000000003
 30
0.0
 10
947.7709999999997
 20
-954.2821000000004
 30
0.0
 10
947.5799999999999
 20
-954.2866000000004
 30
0.0
 10
947.3854760670292
 20
-954.2910000000002
 30
0.0
 10
947.18237607216
 20
-954.2956000000004
 30
0.0
 10
946.9759999999997
 20
-954.3000000000002
 30
0.0
 10
946.7763760824164
 20
-954.3099000000002
 30
0.0
 10
946.7763760824164
 20
-954.3099000000002
 30
0.0
 10
944.6610000000001
 20
-954.3647000000001
 30
0.0
 10
944.6610000000001
 20
-954.3647000000001
 30
0.0
 10
944.4017761424038
 20
-954.3746000000001
 30
0.0
 10
944.1490761487876
 20
-954.3791000000001
 30
0.0
 10
943.8950000000004
 20
-954.3836000000001
 30
0.0
 10
943.6510761613681
 20
-954.3881000000001
 30
0.0
 10
943.405376167575
 20
-954.3926000000001
 30
0.0
 10
943.161376173739
 20
-954.4016000000001
 30
0.0
 10
940.0862762514225
 20
-954.4709999999995
 30
0.0
 10
937.4188763188067
 20
-954.5020000000004
 30
0.0
 10
935.0839999999998
 20
-954.5047999999997
 30
0.0
 10
921.8645767117414
 20
-954.4750000000004
 30
0.0
 10
920.3853767491091
 20
-953.4643999999998
 30
0.0
 10
920.2836767516783
 20
-953.1050999999998
 30
0.0
 10
919.9612767598228
 20
-952.0106999999998
 30
0.0
 10
921.2305767277576
 20
-949.7511000000004
 30
0.0
 10
922.69947669065
 20
-947.1337999999996
 30
0.0
 10
925.1116766297127
 20
-942.8365000000003
 30
0.0
 10
928.1141765538632
 20
-937.4877999999999
 30
0.0
 10
926.5515765933378
 20
-933.1796999999997
 30
0.0
 10
925.606476617213
 20
-930.5605999999998
 30
0.0
 10
922.1978767033215
 20
-928.7475000000004
 30
0.0
 10
917.4330768236905
 20
-928.3297000000002
 30
0.0
 10
916.5876768450471
 20
-928.2559000000001
 30
0.0
 10
915.7083768672601
 20
-928.2322000000004
 30
0.0
 10
914.8136768898621
 20
-928.2529000000004
 30
0.0
 10
908.7131770439737
 20
-928.1638000000003
 30
0.0
 10
901.553277224848
 20
-930.3355000000001
 30
0.0
 10
898.9864772896908
 20
-934.9594999999999
 30
0.0
 10
895.9003773676523
 20
-940.5218999999997
 30
0.0
 10
899.8344772682685
 20
-946.6279999999997
 30
0.0
 10
902.1835772089253
 20
-950.2767000000003
 30
0.0
 10
902.9700771890566
 20
-951.4985999999999
 30
0.0
 10
903.7854771684579
 20
-952.7628000000004
 30
0.0
 10
903.6729999999998
 20
-953.1122999999998
 30
0.0
 10
903.6694771713883
 20
-953.1229999999996
 30
0.0
 10
903.6627771715575
 20
-953.1437000000005
 30
0.0
 10
903.6030000000001
 20
-953.1643999999997
 30
0.0
 10
901.8082772184061
 20
-953.7942000000003
 30
0.0
 10
876.1296778671021
 20
-954.9074
 30
0.0
 10
871.1482779929429
 20
-955.1005999999998
 30
0.0
 10
871.1482779929429
 20
-955.1005999999998
 30
0.0
 10
870.8395780007413
 20
-955.1122999999998
 30
0.0
 10
870.8395780007413
 20
-955.1122999999998
 30
0.0
 10
870.8395780007413
 20
-955.1122999999998
 30
0.0
 10
870.9026779991473
 20
-955.4321
 30
0.0
 10
870.9026779991473
 20
-955.4321
 30
0.0
 10
874.827377900001
 20
-975.5663000000004
 30
0.0
 10
876.3747778609104
 20
-989.4364000000005
 30
0.0
 10
874.7610779016759
 20
-989.9741999999997
 30
0.0
 10
873.7474779272816
 20
-989.7317999999996
 30
0.0
 10
872.4717779595085
 20
-988.8397000000004
 30
0.0
 10
870.9550779978235
 20
-987.7807000000003
 30
0.0
 10
867.9711780732032
 20
-985.6948000000002
 30
0.0
 10
863.958378174575
 20
-982.9377999999997
 30
0.0
 10
858.819578304392
 20
-982.9740000000002
 30
0.0
 10
858.0734783232401
 20
-982.9296999999997
 30
0.0
 10
857.3077783425833
 20
-982.9314000000004
 30
0.0
 10
856.5110000000004
 20
-983.0151999999998
 30
0.0
 10
848.5439999999999
 20
-983.8652000000002
 30
0.0
 10
844.8026786584887
 20
-990.9432999999999
 30
0.0
 10
844.6287786628818
 20
-997.5821999999998
 30
0.0
 10
844.4750786667646
 20
-1003.477000000001
 30
0.0
 10
847.3360785944897
 20
-1010.3225
 30
0.0
 10
853.9792784266683
 20
-1011.4213
 30
0.0
 10
855.4645783891465
 20
-1011.6693
 30
0.0
 10
856.8560783539942
 20
-1011.736999999999
 30
0.0
 10
858.1750000000002
 20
-1011.697200000001
 30
0.0
 10
862.1130000000003
 20
-1011.7495
 30
0.0
 10
865.3760781387609
 20
-1010.723900000001
 30
0.0
 10
868.0992780699671
 20
-1009.849
 30
0.0
 10
869.6401780310407
 20
-1009.354499999999
 30
0.0
 10
870.9478779980054
 20
-1008.9512
 30
0.0
 10
872.0671779697295
 20
-1008.8452
 30
0.0
 10
873.1236779430401
 20
-1008.953600000001
 30
0.0
 10
873.9756779215168
 20
-1009.470600000001
 30
0.0
 10
874.6216779051974
 20
-1010.734
 30
0.0
 10
874.6216779051974
 20
-1010.734
 30
0.0
 10
869.713478029189
 20
-1039.6037
 30
0.0
 10
869.713478029189
 20
-1039.6037
 30
0.0
 10
869.713478029189
 20
-1039.6037
 30
0.0
 10
869.6537780306971
 20
-1039.950499999999
 30
0.0
 10
869.6537780306971
 20
-1039.950499999999
 30
0.0
 10
869.6537780306971
 20
-1039.950499999999
 30
0.0
 10
870.6045780066779
 20
-1039.885700000001
 30
0.0
 10
870.6045780066779
 20
-1039.885700000001
 30
0.0
 10
870.6045780066779
 20
-1039.885700000001
 30
0.0
 10
870.5934780069583
 20
-1039.950499999999
 30
0.0
 10
870.5934780069583
 20
-1039.950499999999
 30
0.0
 10
870.5934780069583
 20
-1039.950499999999
 30
0.0
 10
911.8492769647492
 20
-1037.136500000001
 30
0.0
 10
911.8492769647492
 20
-1037.136500000001
 30
0.0
 10
911.8492769647492
 20
-1037.136500000001
 30
0.0
 10
911.9005769634532
 20
-1036.948700000001
 30
0.0
 10
911.9005769634532
 20
-1036.948700000001
 30
0.0
 10
912.4634769492332
 20
-1034.8742
 30
0.0
 10
910.9485769875027
 20
-1032.466200000001
 30
0.0
 10
909.196577031762
 20
-1029.6783
 30
0.0
 10
906.8934770899432
 20
-1026.016100000001
 30
0.0
 10
904.027377162347
 20
-1021.458200000001
 30
0.0
 10
905.1959999999999
 20
-1016.2174
 30
0.0
 10
906.232177106649
 20
-1011.561100000001
 30
0.0
 10
912.8847769385902
 20
-1008.6682
 30
0.0
 10
918.9251767859969
 20
-1008.541499999999
 30
0.0
 10
919.2485767778271
 20
-1008.550499999999
 30
0.0
 10
919.5715767696674
 20
-1008.560799999999
 30
0.0
 10
919.8883767616644
 20
-1008.586600000001
 30
0.0
 10
922.8755766862014
 20
-1008.829299999999
 30
0.0
 10
929.8819999999996
 20
-1010.2084
 30
0.0
 10
930.4330764952829
 20
-1017.7574
 30
0.0
 10
930.5882764913622
 20
-1019.9936
 30
0.0
 10
928.9880765317866
 20
-1023.752
 30
0.0
 10
927.4390765709177
 20
-1027.3863
 30
0.0
 10
925.5538766185418
 20
-1031.8112
 30
0.0
 10
923.7728766635337
 20
-1035.99
 30
0.0
 10
925.1001766300033
 20
-1037.571400000001
 30
0.0
 10
925.1001766300033
 20
-1037.571400000001
 30
0.0
 10
925.171876628192
 20
-1037.6585
 30
0.0
 10
925.171876628192
 20
-1037.6585
 30
0.0
 10
925.171876628192
 20
-1037.6585
 30
0.0
 10
963.4537756611098
 20
-1039.821599999999
 30
0.0
 10
963.4537756611098
 20
-1039.821599999999
 30
0.0
 10
963.4537756611098
 20
-1039.821599999999
 30
0.0
 10
964.462075635638
 20
-1039.8902
 30
0.0
 10
964.462075635638
 20
-1039.8902
 30
0.0
 10
964.462075635638
 20
-1039.8902
 30
0.0
 10
965.4053756118083
 20
-1039.945100000001
 30
0.0
 10
965.4053756118083
 20
-1039.945100000001
 30
0.0
 10
965.4053756118083
 20
-1039.945100000001
 30
0.0
 10
962.6058756825296
 20
-999.5919999999996
 30
0.0
 10
962.6058756825296
 20
-999.5919999999996
 30
0.0
  0
SPLINE
  5
42
330
1F
100
AcDbEntity
  8
_U+0430_U+0440 1
370
     0
100
AcDbSpline
210
0.0
220
0.0
230
1.0
 70
    11
 71
     3
 72
    17
 73
    13
 74
     0
 42
0.0000000001
 43
0.0000000001
 12
1.0
 22
0.0
 32
0.0
 13
1.0
 23
0.0
 33
0.0
 40
0.0
 40
0.0
 40
0.0
 40
0.0
 40
1.0
 40
1.0
 40
1.0
 40
2.0
 40
2.0
 40
2.0
 40
3.0
 40
3.0
 40
3.0
 40
4.0
 40
4.0
 40
4.0
 40
4.0
 10
888.1707775629184
 20
-972.8951999999999
 30
0.0
 10
885.0396776420166
 20
-972.8951999999999
 30
0.0
 10
882.5013777061395
 20
-970.357
 30
0.0
 10
882.5013777061395
 20
-967.2259999999997
 30
0.0
 10
882.5013777061395
 20
-964.0949
 30
0.0
 10
885.0396776420166
 20
-961.5567000000001
 30
0.0
 10
888.1707775629184
 20
-961.5567000000001
 30
0.0
 10
891.3017774838227
 20
-961.5567000000001
 30
0.0
 10
893.8400774196998
 20
-964.0949
 30
0.0
 10
893.8400774196998
 20
-967.2259999999997
 30
0.0
 10
893.8400774196998
 20
-970.357
 30
0.0
 10
891.3017774838227
 20
-972.8951999999999
 30
0.0
 10
888.1707775629184
 20
-972.8951999999999
 30
0.0
  0
HATCH
  5
43
330
1F
100
AcDbEntity
  8
_U+0430_U+0440 1
 62
   243
420
 15618433
100
AcDbHatch
 10
0.0
 20
0.0
 30
0.0
210
0.0
220
0.0
230
1.0
  2
SOLID
 70
     1
 71
     0
 91
        2
 92
        1
 93
        1
 72
     4
 94
        3
 73
     0
 74
     1
 95
      233
 96
      229
 40
0.0
 40
0.0
 40
0.0
 40
0.0
 40
1.0
 40
1.0
 40
1.0
 40
2.0
 40
2.0
 40
2.0
 40
3.0
 40
3.0
 40
3.0
 40
4.0
 40
4.0
 40
4.0
 40
5.0
 40
5.0
 40
5.0
 40
6.0
 40
6.0
 40
6.0
 40
7.0
 40
7.0
 40
7.0
 40
8.0
 40
8.0
 40
8.0
 40
9.0
 40
9.0
 40
9.0
 40
10.0
 40
10.0
 40
10.0
 40
11.0
 40
11.0
 40
11.0
 40
12.0
 40
12.0
 40
12.0
 40
13.0
 40
13.0
 40
13.0
 40
14.0
 40
14.0
 40
14.0
 40
15.0
 40
15.0
 40
15.0
 40
16.0
 40
16.0
 40
16.0
 40
17.0
 40
17.0
 40
17.0
 40
18.0
 40
18.0
 40
18.0
 40
19.0
 40
19.0
 40
19.0
 40
20.0
 40
20.0
 40
20.0
 40
21.0
 40
21.0
 40
21.0
 40
22.0
 40
22.0
 40
22.0
 40
23.0
 40
23.0
 40
23.0
 40
24.0
 40
24.0
 40
24.0
 40
25.0
 40
25.0
 40
25.0
 40
26.0
 40
26.0
 40
26.0
 40
27.0
 40
27.0
 40
27.0
 40
28.0
 40
28.0
 40
28.0
 40
29.0
 40
29.0
 40
29.0
 40
30.0
 40
30.0
 40
30.0
 40
31.0
 40
31.0
 40
31.0
 40
32.0
 40
32.0
 40
32.0
 40
33.0
 40
33.0
 40
33.0
 40
34.0
 40
34.0
 40
34.0
 40
35.0
 40
35.0
 40
35.0
 40
36.0
 40
36.0
 40
36.0
 40
37.0
 40
37.0
 40
37.0
 40
38.0
 40
38.0
 40
38.0
 40
39.0
 40
39.0
 40
39.0
 40
40.0
 40
40.0
 40
40.0
 40
41.0
 40
41.0
 40
41.0
 40
42.0
 40
42.0
 40
42.0
 40
43.0
 40
43.0
 40
43.0
 40
44.0
 40
44.0
 40
44.0
 40
45.0
 40
45.0
 40
45.0
 40
46.0
 40
46.0
 40
46.0
 40
47.0
 40
47.0
 40
47.0
 40
48.0
 40
48.0
 40
48.0
 40
49.0
 40
49.0
 40
49.0
 40
50.0
 40
50.0
 40
50.0
 40
51.0
 40
51.0
 40
51.0
 40
52.0
 40
52.0
 40
52.0
 40
53.0
 40
53.0
 40
53.0
 40
54.0
 40
54.0
 40
54.0
 40
55.0
 40
55.0
 40
55.0
 40
56.0
 40
56.0
 40
56.0
 40
57.0
 40
57.0
 40
57.0
 40
58.0
 40
58.0
 40
58.0
 40
59.0
 40
59.0
 40
59.0
 40
60.0
 40
60.0
 40
60.0
 40
61.0
 40
61.0
 40
61.0
 40
62.0
 40
62.0
 40
62.0
 40
63.0
 40
63.0
 40
63.0
 40
64.0
 40
64.0
 40
64.0
 40
65.0
 40
65.0
 40
65.0
 40
66.0
 40
66.0
 40
66.0
 40
67.0
 40
67.0
 40
67.0
 40
68.0
 40
68.0
 40
68.0
 40
69.0
 40
69.0
 40
69.0
 40
70.0
 40
70.0
 40
70.0
 40
71.0
 40
71.0
 40
71.0
 40
72.0
 40
72.0
 40
72.0
 40
73.0
 40
73.0
 40
73.0
 40
74.0
 40
74.0
 40
74.0
 40
75.0
 40
75.0
 40
75.0
 40
76.0
 40
76.0
 40
76.0
 40
76.0
 10
962.6058756825296
 20
-999.5919999999996
 10
962.6058756825296
 20
-999.5919999999996
 10
962.5854756830449
 20
-999.2910000000002
 10
962.5854756830449
 20
-999.2910000000002
 10
962.5854756830449
 20
-999.2910000000002
 10
961.6457757067838
 20
-999.2910000000002
 10
961.6457757067838
 20
-999.2910000000002
 10
961.6457757067838
 20
-999.2910000000002
 10
961.362575713938
 20
-999.3396000000002
 10
961.362575713938
 20
-999.3396000000002
 10
960.5300757349687
 20
-999.4814999999999
 10
959.5371757600515
 20
-1000.362
 10
958.2833757917251
 20
-1001.4761
 10
955.8950758520587
 20
-1003.5962
 10
952.5572759363786
 20
-1006.5393
 10
947.8408760555249
 20
-1006.7076
 10
946.7292760836062
 20
-1006.659599999999
 10
945.549376113413
 20
-1006.465400000001
 10
944.2870000000003
 20
-1006.0638
 10
938.655576287565
 20
-1004.272199999999
 10
936.181876350056
 20
-997.6620999999996
 10
936.6475763382914
 20
-992.0582999999997
 10
936.9921763295861
 20
-987.9333999999999
 10
939.1298762755832
 20
-983.3036000000002
 10
944.1027761499572
 20
-982.6810000000005
 10
944.8199999999997
 20
-982.5926
 10
945.5041761145549
 20
-982.5401000000002
 10
946.1624760979248
 20
-982.5140000000001
 10
950.4058759907275
 20
-982.5227000000004
 10
953.4468759139054
 20
-983.7112999999999
 10
955.9631758503383
 20
-984.7205999999996
 10
957.7990758039596
 20
-985.4555
 10
959.3307757652656
 20
-986.0595000000003
 10
960.7815757286153
 20
-985.9174999999996
 10
961.5276757097672
 20
-985.9929000000002
 10
962.2427756917023
 20
-985.9182000000001
 10
962.9522756737788
 20
-985.6054999999997
 10
962.9522756737788
 20
-985.6054999999997
 10
963.1074756698581
 20
-985.5380999999998
 10
963.1074756698581
 20
-985.5380999999998
 10
963.1074756698581
 20
-985.5380999999998
 10
964.2487756410264
 20
-953.9047
 10
964.2487756410264
 20
-953.9047
 10
964.2487756410264
 20
-953.9047
 10
964.2487756410264
 20
-953.6180999999997
 10
964.2487756410264
 20
-953.6180999999997
 10
964.2487756410264
 20
-953.6180999999997
 10
963.6527756560827
 20
-953.6122999999998
 10
963.6527756560827
 20
-953.6122999999998
 10
963.6527756560827
 20
-953.6122999999998
 10
963.0361756716593
 20
-953.6288999999997
 10
963.0361756716593
 20
-953.6288999999997
 10
963.0361756716593
 20
-953.6288999999997
 10
962.5636756835956
 20
-953.6468999999997
 10
961.686775705748
 20
-953.7025000000003
 10
961.4103757127305
 20
-953.7205999999996
 10
961.1033757204859
 20
-953.7394000000004
 10
960.7433757295803
 20
-953.7394000000004
 10
960.4481757370377
 20
-953.7574000000004
 10
960.1326757450079
 20
-953.7762000000002
 10
959.798175753458
 20
-953.7942000000003
 10
959.798175753458
 20
-953.7942000000003
 10
959.6890757562142
 20
-953.7951000000003
 10
959.6890757562142
 20
-953.7951000000003
 10
959.5747757591016
 20
-953.8041000000003
 10
959.4552757621204
 20
-953.8086000000003
 10
959.3342757651772
 20
-953.8140000000003
 10
959.216475768153
 20
-953.8185000000003
 10
959.0969999999998
 20
-953.8230000000003
 10
958.9810757740997
 20
-953.8310000000001
 10
958.9810757740997
 20
-953.8310000000001
 10
956.4937758369342
 20
-953.9425000000001
 10
956.4937758369342
 20
-953.9425000000001
 10
956.3624758402511
 20
-953.9513999999999
 10
956.2276758436565
 20
-953.9558999999999
 10
956.0927758470643
 20
-953.9603999999999
 10
955.9614758503812
 20
-953.9649
 10
955.8300758537007
 20
-953.9703
 10
955.6918758571919
 20
-953.9784
 10
955.56567586038
 20
-953.9874
 10
955.4376758636135
 20
-953.9919
 10
955.3080758668875
 20
-953.9964
 10
955.1715758703358
 20
-954.0007999999998
 10
955.03167587387
 20
-954.0063
 10
954.8951758773183
 20
-954.0151999999998
 10
953.5116759122684
 20
-954.0762999999997
 10
952.0052759503233
 20
-954.1293999999998
 10
950.4170000000004
 20
-954.1850000000004
 10
950.4170000000004
 20
-954.1850000000004
 10
947.958676052549
 20
-954.2731000000003
 10
947.958676052549
 20
-954.2731000000003
 10
947.7709999999997
 20
-954.2821000000004
 10
947.5799999999999
 20
-954.2866000000004
 10
947.3854760670292
 20
-954.2910000000002
 10
947.18237607216
 20
-954.2956000000004
 10
946.9759999999997
 20
-954.3000000000002
 10
946.7763760824164
 20
-954.3099000000002
 10
946.7763760824164
 20
-954.3099000000002
 10
944.6610000000001
 20
-954.3647000000001
 10
944.6610000000001
 20
-954.3647000000001
 10
944.4017761424038
 20
-954.3746000000001
 10
944.1490761487876
 20
-954.3791000000001
 10
943.8950000000004
 20
-954.3836000000001
 10
943.6510761613681
 20
-954.3881000000001
 10
943.405376167575
 20
-954.3926000000001
 10
943.161376173739
 20
-954.4016000000001
 10
940.0862762514225
 20
-954.4709999999995
 10
937.4188763188067
 20
-954.5020000000004
 10
935.0839999999998
 20
-954.5047999999997
 10
921.8645767117414
 20
-954.4750000000004
 10
920.3853767491091
 20
-953.4643999999998
 10
920.2836767516783
 20
-953.1050999999998
 10
919.9612767598228
 20
-952.0106999999998
 10
921.2305767277576
 20
-949.7511000000004
 10
922.69947669065
 20
-947.1337999999996
 10
925.1116766297127
 20
-942.8365000000003
 10
928.1141765538632
 20
-937.4877999999999
 10
926.5515765933378
 20
-933.1796999999997
 10
925.606476617213
 20
-930.5605999999998
 10
922.1978767033215
 20
-928.7475000000004
 10
917.4330768236905
 20
-928.3297000000002
 10
916.5876768450471
 20
-928.2559000000001
 10
915.7083768672601
 20
-928.2322000000004
 10
914.8136768898621
 20
-928.2529000000004
 10
908.7131770439737
 20
-928.1638000000003
 10
901.553277224848
 20
-930.3355000000001
 10
898.9864772896908
 20
-934.9594999999999
 10
895.9003773676523
 20
-940.5218999999997
 10
899.8344772682685
 20
-946.6279999999997
 10
902.1835772089253
 20
-950.2767000000003
 10
902.9700771890566
 20
-951.4985999999999
 10
903.7854771684579
 20
-952.7628000000004
 10
903.6729999999998
 20
-953.1122999999998
 10
903.6694771713883
 20
-953.1229999999996
 10
903.6627771715575
 20
-953.1437000000005
 10
903.6030000000001
 20
-953.1643999999997
 10
901.8082772184061
 20
-953.7942000000003
 10
876.1296778671021
 20
-954.9074
 10
871.1482779929429
 20
-955.1005999999998
 10
871.1482779929429
 20
-955.1005999999998
 10
870.8395780007413
 20
-955.1122999999998
 10
870.8395780007413
 20
-955.1122999999998
 10
870.8395780007413
 20
-955.1122999999998
 10
870.9026779991473
 20
-955.4321
 10
870.9026779991473
 20
-955.4321
 10
874.827377900001
 20
-975.5663000000004
 10
876.3747778609104
 20
-989.4364000000005
 10
874.7610779016759
 20
-989.9741999999997
 10
873.7474779272816
 20
-989.7317999999996
 10
872.4717779595085
 20
-988.8397000000004
 10
870.9550779978235
 20
-987.7807000000003
 10
867.9711780732032
 20
-985.6948000000002
 10
863.958378174575
 20
-982.9377999999997
 10
858.819578304392
 20
-982.9740000000002
 10
858.0734783232401
 20
-982.9296999999997
 10
857.3077783425833
 20
-982.9314000000004
 10
856.5110000000004
 20
-983.0151999999998
 10
848.5439999999999
 20
-983.8652000000002
 10
844.8026786584887
 20
-990.9432999999999
 10
844.6287786628818
 20
-997.5821999999998
 10
844.4750786667646
 20
-1003.477000000001
 10
847.3360785944897
 20
-1010.3225
 10
853.9792784266683
 20
-1011.4213
 10
855.4645783891465
 20
-1011.6693
 10
856.8560783539942
 20
-1011.736999999999
 10
858.1750000000002
 20
-1011.697200000001
 10
862.1130000000003
 20
-1011.7495
 10
865.3760781387609
 20
-1010.723900000001
 10
868.0992780699671
 20
-1009.849
 10
869.6401780310407
 20
-1009.354499999999
 10
870.9478779980054
 20
-1008.9512
 10
872.0671779697295
 20
-1008.8452
 10
873.1236779430401
 20
-1008.953600000001
 10
873.9756779215168
 20
-1009.470600000001
 10
874.6216779051974
 20
-1010.734
 10
874.6216779051974
 20
-1010.734
 10
869.713478029189
 20
-1039.6037
 10
869.713478029189
 20
-1039.6037
 10
869.713478029189
 20
-1039.6037
 10
869.6537780306971
 20
-1039.950499999999
 10
869.6537780306971
 20
-1039.950499999999
 10
869.6537780306971
 20
-1039.950499999999
 10
870.6045780066779
 20
-1039.885700000001
 10
870.6045780066779
 20
-1039.885700000001
 10
870.6045780066779
 20
-1039.885700000001
 10
870.5934780069583
 20
-1039.950499999999
 10
870.5934780069583
 20
-1039.950499999999
 10
870.5934780069583
 20
-1039.950499999999
 10
911.8492769647492
 20
-1037.136500000001
 10
911.8492769647492
 20
-1037.136500000001
 10
911.8492769647492
 20
-1037.136500000001
 10
911.9005769634532
 20
-1036.948700000001
 10
911.9005769634532
 20
-1036.948700000001
 10
912.4634769492332
 20
-1034.8742
 10
910.9485769875027
 20
-1032.466200000001
 10
909.196577031762
 20
-1029.6783
 10
906.8934770899432
 20
-1026.016100000001
 10
904.027377162347
 20
-1021.458200000001
 10
905.1959999999999
 20
-1016.2174
 10
906.232177106649
 20
-1011.561100000001
 10
912.8847769385902
 20
-1008.6682
 10
918.9251767859969
 20
-1008.541499999999
 10
919.2485767778271
 20
-1008.550499999999
 10
919.5715767696674
 20
-1008.560799999999
 10
919.8883767616644
 20
-1008.586600000001
 10
922.8755766862014
 20
-1008.829299999999
 10
929.8819999999996
 20
-1010.2084
 10
930.4330764952829
 20
-1017.7574
 10
930.5882764913622
 20
-1019.9936
 10
928.9880765317866
 20
-1023.752
 10
927.4390765709177
 20
-1027.3863
 10
925.5538766185418
 20
-1031.8112
 10
923.7728766635337
 20
-1035.99
 10
925.1001766300033
 20
-1037.571400000001
 10
925.1001766300033
 20
-1037.571400000001
 10
925.171876628192
 20
-1037.6585
 10
925.171876628192
 20
-1037.6585
 10
925.171876628192
 20
-1037.6585
 10
963.4537756611098
 20
-1039.821599999999
 10
963.4537756611098
 20
-1039.821599999999
 10
963.4537756611098
 20
-1039.821599999999
 10
964.462075635638
 20
-1039.8902
 10
964.462075635638
 20
-1039.8902
 10
964.462075635638
 20
-1039.8902
 10
965.4053756118083
 20
-1039.945100000001
 10
965.4053756118083
 20
-1039.945100000001
 10
965.4053756118083
 20
-1039.945100000001
 10
962.6058756825296
 20
-999.5919999999996
 10
962.6058756825296
 20
-999.5919999999996
 97
        0
 97
        0
 92
        1
 93
        1
 72
     4
 94
        3
 73
     0
 74
     1
 95
       17
 96
       13
 40
0.0
 40
0.0
 40
0.0
 40
0.0
 40
1.0
 40
1.0
 40
1.0
 40
2.0
 40
2.0
 40
2.0
 40
3.0
 40
3.0
 40
3.0
 40
4.0
 40
4.0
 40
4.0
 40
4.0
 10
888.1707775629184
 20
-972.8951999999999
 10
885.0396776420166
 20
-972.8951999999999
 10
882.5013777061395
 20
-970.357
 10
882.5013777061395
 20
-967.2259999999997
 10
882.5013777061395
 20
-964.0949
 10
885.0396776420166
 20
-961.5567000000001
 10
888.1707775629184
 20
-961.5567000000001
 10
891.3017774838227
 20
-961.5567000000001
 10
893.8400774196998
 20
-964.0949
 10
893.8400774196998
 20
-967.2259999999997
 10
893.8400774196998
 20
-970.357
 10
891.3017774838227
 20
-972.8951999999999
 10
888.1707775629184
 20
-972.8951999999999
 97
        0
 97
        0
 75
     2
 76
     1
 98
        0
  0
SPLINE
  5
44
330
1F
100
AcDbEntity
  8
_U+0430_U+0440 1
370
     0
100
AcDbSpline
210
0.0
220
0.0
230
1.0
 70
    11
 71
     3
 72
   149
 73
   145
 74
     0
 42
0.0000000001
 43
0.0000000001
 12
1.0
 22
0.0
 32
0.0
 13
1.0
 23
0.0
 33
0.0
 40
0.0
 40
0.0
 40
0.0
 40
0.0
 40
1.0
 40
1.0
 40
1.0
 40
2.0
 40
2.0
 40
2.0
 40
3.0
 40
3.0
 40
3.0
 40
4.0
 40
4.0
 40
4.0
 40
5.0
 40
5.0
 40
5.0
 40
6.0
 40
6.0
 40
6.0
 40
7.0
 40
7.0
 40
7.0
 40
8.0
 40
8.0
 40
8.0
 40
9.0
 40
9.0
 40
9.0
 40
10.0
 40
10.0
 40
10.0
 40
11.0
 40
11.0
 40
11.0
 40
12.0
 40
12.0
 40
12.0
 40
13.0
 40
13.0
 40
13.0
 40
14.0
 40
14.0
 40
14.0
 40
15.0
 40
15.0
 40
15.0
 40
16.0
 40
16.0
 40
16.0
 40
17.0
 40
17.0
 40
17.0
 40
18.0
 40
18.0
 40
18.0
 40
19.0
 40
19.0
 40
19.0
 40
20.0
 40
20.0
 40
20.0
 40
21.0
 40
21.0
 40
21.0
 40
22.0
 40
22.0
 40
22.0
 40
23.0
 40
23.0
 40
23.0
 40
24.0
 40
24.0
 40
24.0
 40
25.0
 40
25.0
 40
25.0
 40
26.0
 40
26.0
 40
26.0
 40
27.0
 40
27.0
 40
27.0
 40
28.0
 40
28.0
 40
28.0
 40
29.0
 40
29.0
 40
29.0
 40
30.0
 40
30.0
 40
30.0
 40
31.0
 40
31.0
 40
31.0
 40
32.0
 40
32.0
 40
32.0
 40
33.0
 40
33.0
 40
33.0
 40
34.0
 40
34.0
 40
34.0
 40
35.0
 40
35.0
 40
35.0
 40
36.0
 40
36.0
 40
36.0
 40
37.0
 40
37.0
 40
37.0
 40
38.0
 40
38.0
 40
38.0
 40
39.0
 40
39.0
 40
39.0
 40
40.0
 40
40.0
 40
40.0
 40
41.0
 40
41.0
 40
41.0
 40
42.0
 40
42.0
 40
42.0
 40
43.0
 40
43.0
 40
43.0
 40
44.0
 40
44.0
 40
44.0
 40
45.0
 40
45.0
 40
45.0
 40
46.0
 40
46.0
 40
46.0
 40
47.0
 40
47.0
 40
47.0
 40
48.0
 40
48.0
 40
48.0
 40
48.0
 10
1155.2672
 20
-995.2480999999998
 30
0.0
 10
1154.9943
 20
-989.4494000000004
 30
0.0
 10
1151.8928
 20
-983.2076999999999
 30
0.0
 10
1145.5738
 20
-982.3388999999997
 30
0.0
 10
1138.9375
 20
-981.4206999999997
 30
0.0
 10
1134.4303
 20
-984.4745999999996
 30
0.0
 10
1130.8153
 20
-986.9310000000005
 30
0.0
 10
1128.8825
 20
-988.2437
 30
0.0
 10
1127.212299999999
 20
-989.3783999999996
 30
0.0
 10
1125.649600000001
 20
-989.5527000000002
 30
0.0
 10
1125.649600000001
 20
-989.5527000000002
 30
0.0
 10
1125.351000000001
 20
-989.5851000000002
 30
0.0
 10
1125.351000000001
 20
-989.5851000000002
 30
0.0
 10
1125.351000000001
 20
-989.5851000000002
 30
0.0
 10
1125.3596
 20
-989.2687999999998
 30
0.0
 10
1125.3596
 20
-989.2687999999998
 30
0.0
 10
1125.3596
 20
-989.2687999999998
 30
0.0
 10
1126.1873
 20
-955.0369000000001
 30
0.0
 10
1126.1873
 20
-955.0369000000001
 30
0.0
 10
1126.1873
 20
-955.0369000000001
 30
0.0
 10
1125.5077
 20
-955.0015000000003
 30
0.0
 10
1125.5077
 20
-955.0015000000003
 30
0.0
 10
1110.9853
 20
-954.4288999999999
 30
0.0
 10
1088.538500000001
 20
-954.1684000000005
 30
0.0
 10
1087.636699999999
 20
-955.8523000000005
 30
0.0
 10
1087.636699999999
 20
-955.8523000000005
 30
0.0
 10
1087.636699999999
 20
-955.8531999999996
 30
0.0
 10
1087.636699999999
 20
-955.8531999999996
 30
0.0
 10
1086.5517
 20
-957.8648000000003
 30
0.0
 10
1088.358400000001
 20
-961.0598
 30
0.0
 10
1090.270700000001
 20
-964.4425000000001
 30
0.0
 10
1092.1729
 20
-967.8091000000004
 30
0.0
 10
1094.1399
 20
-971.2898000000005
 30
0.0
 10
1093.3177
 20
-973.9268000000002
 30
0.0
 10
1091.838599999999
 20
-978.6698999999999
 30
0.0
 10
1085.929
 20
-980.3068999999996
 30
0.0
 10
1080.860500000001
 20
-980.3068999999996
 30
0.0
 10
1080.468199999999
 20
-980.3068999999996
 30
0.0
 10
1080.081
 20
-980.2970000000005
 30
0.0
 10
1079.7004
 20
-980.2781999999997
 30
0.0
 10
1074.512500000001
 20
-980.0185000000001
 30
0.0
 10
1068.5365
 20
-977.9124000000002
 30
0.0
 10
1067.673199999999
 20
-973.9017000000003
 30
0.0
 10
1066.8765
 20
-970.1504999999997
 30
0.0
 10
1068.9715
 20
-966.0814
 30
0.0
 10
1070.8208
 20
-962.4911000000002
 30
0.0
 10
1072.622299999999
 20
-958.9933000000001
 30
0.0
 10
1074.1782
 20
-955.9718000000003
 30
0.0
 10
1072.315200000001
 20
-954.5019000000002
 30
0.0
 10
1070.804400000001
 20
-953.3161
 30
0.0
 10
1048.223400000001
 20
-953.3131000000003
 30
0.0
 10
1032.419
 20
-953.6055999999999
 30
0.0
 10
1032.419
 20
-953.6055999999999
 30
0.0
 10
1032.419
 20
-953.6180999999997
 30
0.0
 10
1032.419
 20
-953.6180999999997
 30
0.0
 10
1032.419
 20
-953.6180999999997
 30
0.0
 10
1032.419
 20
-953.9047
 30
0.0
 10
1032.419
 20
-953.9047
 30
0.0
 10
1032.419
 20
-953.9047
 30
0.0
 10
1031.277700000001
 20
-985.5380999999998
 30
0.0
 10
1031.277700000001
 20
-985.5380999999998
 30
0.0
 10
1031.277700000001
 20
-985.5380999999998
 30
0.0
 10
1031.122499999999
 20
-985.6054999999997
 30
0.0
 10
1031.122499999999
 20
-985.6054999999997
 30
0.0
 10
1030.413
 20
-985.9182000000001
 30
0.0
 10
1029.698
 20
-985.9929000000002
 30
0.0
 10
1028.951800000001
 20
-985.9174999999996
 30
0.0
 10
1027.501
 20
-986.0595000000003
 30
0.0
 10
1025.969300000001
 20
-985.4555
 30
0.0
 10
1024.133400000001
 20
-984.7205999999996
 30
0.0
 10
1021.617099999999
 20
-983.7112999999999
 30
0.0
 10
1018.5761
 20
-982.5227000000004
 30
0.0
 10
1014.332700000001
 20
-982.5140000000001
 30
0.0
 10
1013.6744
 20
-982.5401000000002
 30
0.0
 10
1012.9902
 20
-982.5926
 30
0.0
 10
1012.272999999999
 20
-982.6810000000005
 30
0.0
 10
1007.3001
 20
-983.3036000000002
 30
0.0
 10
1005.162399999999
 20
-987.9333999999999
 30
0.0
 10
1004.817800000001
 20
-992.0582999999997
 30
0.0
 10
1004.3521
 20
-997.6620999999996
 30
0.0
 10
1006.825800000001
 20
-1004.272199999999
 30
0.0
 10
1012.457200000001
 20
-1006.0638
 30
0.0
 10
1013.7196
 20
-1006.465400000001
 30
0.0
 10
1014.899600000001
 20
-1006.659599999999
 30
0.0
 10
1016.0111
 20
-1006.7076
 30
0.0
 10
1020.727500000001
 20
-1006.5393
 30
0.0
 10
1024.0653
 20
-1003.5962
 30
0.0
 10
1026.453600000001
 20
-1001.4761
 30
0.0
 10
1027.707399999999
 20
-1000.362
 30
0.0
 10
1028.7003
 20
-999.4814999999999
 30
0.0
 10
1029.5329
 20
-999.3396000000002
 30
0.0
 10
1029.5329
 20
-999.3396000000002
 30
0.0
 10
1029.816000000001
 20
-999.2910000000002
 30
0.0
 10
1029.816000000001
 20
-999.2910000000002
 30
0.0
 10
1029.816000000001
 20
-999.2910000000002
 30
0.0
 10
1030.7557
 20
-999.2910000000002
 30
0.0
 10
1030.7557
 20
-999.2910000000002
 30
0.0
 10
1030.7557
 20
-999.2910000000002
 30
0.0
 10
1030.776099999999
 20
-999.5919999999996
 30
0.0
 10
1030.776099999999
 20
-999.5919999999996
 30
0.0
 10
1030.776099999999
 20
-999.5919999999996
 30
0.0
 10
1033.5918
 20
-1039.929400000001
 30
0.0
 10
1033.5918
 20
-1039.929400000001
 30
0.0
 10
1038.009900000001
 20
-1039.116900000001
 30
0.0
 10
1074.7791
 20
-1031.920599999999
 30
0.0
 10
1076.4609
 20
-1036.1286
 30
0.0
 10
1077.155200000001
 20
-1037.854600000001
 30
0.0
 10
1075.9064
 20
-1040.5743
 30
0.0
 10
1074.323200000001
 20
-1044.016299999999
 30
0.0
 10
1071.9058
 20
-1049.273300000001
 30
0.0
 10
1068.8982
 20
-1055.8151
 30
0.0
 10
1071.187599999999
 20
-1062.0828
 30
0.0
 10
1072.9038
 20
-1066.790800000001
 30
0.0
 10
1077.5407
 20
-1070.078299999999
 30
0.0
 10
1083.2916
 20
-1070.6623
 30
0.0
 10
1089.984200000001
 20
-1071.3362
 30
0.0
 10
1096.1445
 20
-1068.189699999999
 30
0.0
 10
1099.6862
 20
-1062.2194
 30
0.0
 10
1104.019400000001
 20
-1054.9148
 30
0.0
 10
1099.0993
 20
-1047.4674
 30
0.0
 10
1095.5065
 20
-1042.028899999999
 30
0.0
 10
1093.5787
 20
-1039.1098
 30
0.0
 10
1092.1849
 20
-1037.001099999999
 30
0.0
 10
1092.719000000001
 20
-1035.665000000001
 30
0.0
 10
1092.9527
 20
-1035.079299999999
 30
0.0
 10
1093.524100000001
 20
-1034.7135
 30
0.0
 10
1094.467500000001
 20
-1034.5473
 30
0.0
 10
1101.453600000001
 20
-1033.3128
 30
0.0
 10
1122.433800000001
 20
-1038.544599999999
 30
0.0
 10
1125.373299999999
 20
-1039.293100000001
 30
0.0
 10
1125.373299999999
 20
-1039.293100000001
 30
0.0
 10
1126.7381
 20
-1003.4449
 30
0.0
 10
1126.7381
 20
-1003.4449
 30
0.0
 10
1126.7381
 20
-1003.4449
 30
0.0
 10
1127.063900000001
 20
-1003.551799999999
 30
0.0
 10
1127.063900000001
 20
-1003.551799999999
 30
0.0
 10
1129.614299999999
 20
-1004.386500000001
 30
0.0
 10
1131.7929
 20
-1005.311100000001
 30
0.0
 10
1133.7155
 20
-1006.125899999999
 30
0.0
 10
1138.569
 20
-1008.1834
 30
0.0
 10
1142.079900000001
 20
-1009.6731
 30
0.0
 10
1147.5219
 20
-1008.329900000001
 30
0.0
 10
1153.2304
 20
-1006.9301
 30
0.0
 10
1155.5249
 20
-1000.7513
 30
0.0
 10
1155.2672
 20
-995.2480999999998
 30
0.0
  0
SPLINE
  5
45
330
1F
100
AcDbEntity
  8
_U+0430_U+0440 1
370
     0
100
AcDbSpline
210
0.0
220
0.0
230
1.0
 70
    11
 71
     3
 72
    17
 73
    13
 74
     0
 42
0.0000000001
 43
0.0000000001
 12
1.0
 22
0.0
 32
0.0
 13
1.0
 23
0.0
 33
0.0
 40
0.0
 40
0.0
 40
0.0
 40
0.0
 40
1.0
 40
1.0
 40
1.0
 40
2.0
 40
2.0
 40
2.0
 40
3.0
 40
3.0
 40
3.0
 40
4.0
 40
4.0
 40
4.0
 40
4.0
 10
1111.2346
 20
-972.8951999999999
 30
0.0
 10
1108.103499999999
 20
-972.8951999999999
 30
0.0
 10
1105.5653
 20
-970.357
 30
0.0
 10
1105.5653
 20
-967.2259999999997
 30
0.0
 10
1105.5653
 20
-964.0949
 30
0.0
 10
1108.103499999999
 20
-961.5567000000001
 30
0.0
 10
1111.2346
 20
-961.5567000000001
 30
0.0
 10
1114.365600000001
 20
-961.5567000000001
 30
0.0
 10
1116.903899999999
 20
-964.0949
 30
0.0
 10
1116.903899999999
 20
-967.2259999999997
 30
0.0
 10
1116.903899999999
 20
-970.357
 30
0.0
 10
1114.365600000001
 20
-972.8951999999999
 30
0.0
 10
1111.2346
 20
-972.8951999999999
 30
0.0
  0
HATCH
  5
46
330
1F
100
AcDbEntity
  8
_U+0430_U+0440 1
 62
   243
420
 15618433
100
AcDbHatch
 10
0.0
 20
0.0
 30
0.0
210
0.0
220
0.0
230
1.0
  2
SOLID
 70
     1
 71
     0
 91
        2
 92
        1
 93
        1
 72
     4
 94
        3
 73
     0
 74
     1
 95
      149
 96
      145
 40
0.0
 40
0.0
 40
0.0
 40
0.0
 40
1.0
 40
1.0
 40
1.0
 40
2.0
 40
2.0
 40
2.0
 40
3.0
 40
3.0
 40
3.0
 40
4.0
 40
4.0
 40
4.0
 40
5.0
 40
5.0
 40
5.0
 40
6.0
 40
6.0
 40
6.0
 40
7.0
 40
7.0
 40
7.0
 40
8.0
 40
8.0
 40
8.0
 40
9.0
 40
9.0
 40
9.0
 40
10.0
 40
10.0
 40
10.0
 40
11.0
 40
11.0
 40
11.0
 40
12.0
 40
12.0
 40
12.0
 40
13.0
 40
13.0
 40
13.0
 40
14.0
 40
14.0
 40
14.0
 40
15.0
 40
15.0
 40
15.0
 40
16.0
 40
16.0
 40
16.0
 40
17.0
 40
17.0
 40
17.0
 40
18.0
 40
18.0
 40
18.0
 40
19.0
 40
19.0
 40
19.0
 40
20.0
 40
20.0
 40
20.0
 40
21.0
 40
21.0
 40
21.0
 40
22.0
 40
22.0
 40
22.0
 40
23.0
 40
23.0
 40
23.0
 40
24.0
 40
24.0
 40
24.0
 40
25.0
 40
25.0
 40
25.0
 40
26.0
 40
26.0
 40
26.0
 40
27.0
 40
27.0
 40
27.0
 40
28.0
 40
28.0
 40
28.0
 40
29.0
 40
29.0
 40
29.0
 40
30.0
 40
30.0
 40
30.0
 40
31.0
 40
31.0
 40
31.0
 40
32.0
 40
32.0
 40
32.0
 40
33.0
 40
33.0
 40
33.0
 40
34.0
 40
34.0
 40
34.0
 40
35.0
 40
35.0
 40
35.0
 40
36.0
 40
36.0
 40
36.0
 40
37.0
 40
37.0
 40
37.0
 40
38.0
 40
38.0
 40
38.0
 40
39.0
 40
39.0
 40
39.0
 40
40.0
 40
40.0
 40
40.0
 40
41.0
 40
41.0
 40
41.0
 40
42.0
 40
42.0
 40
42.0
 40
43.0
 40
43.0
 40
43.0
 40
44.0
 40
44.0
 40
44.0
 40
45.0
 40
45.0
 40
45.0
 40
46.0
 40
46.0
 40
46.0
 40
47.0
 40
47.0
 40
47.0
 40
48.0
 40
48.0
 40
48.0
 40
48.0
 10
1155.2672
 20
-995.2480999999998
 10
1154.9943
 20
-989.4494000000004
 10
1151.8928
 20
-983.2076999999999
 10
1145.5738
 20
-982.3388999999997
 10
1138.9375
 20
-981.4206999999997
 10
1134.4303
 20
-984.4745999999996
 10
1130.8153
 20
-986.9310000000005
 10
1128.8825
 20
-988.2437
 10
1127.212299999999
 20
-989.3783999999996
 10
1125.649600000001
 20
-989.5527000000002
 10
1125.649600000001
 20
-989.5527000000002
 10
1125.351000000001
 20
-989.5851000000002
 10
1125.351000000001
 20
-989.5851000000002
 10
1125.351000000001
 20
-989.5851000000002
 10
1125.3596
 20
-989.2687999999998
 10
1125.3596
 20
-989.2687999999998
 10
1125.3596
 20
-989.2687999999998
 10
1126.1873
 20
-955.0369000000001
 10
1126.1873
 20
-955.0369000000001
 10
1126.1873
 20
-955.0369000000001
 10
1125.5077
 20
-955.0015000000003
 10
1125.5077
 20
-955.0015000000003
 10
1110.9853
 20
-954.4288999999999
 10
1088.538500000001
 20
-954.1684000000005
 10
1087.636699999999
 20
-955.8523000000005
 10
1087.636699999999
 20
-955.8523000000005
 10
1087.636699999999
 20
-955.8531999999996
 10
1087.636699999999
 20
-955.8531999999996
 10
1086.5517
 20
-957.8648000000003
 10
1088.358400000001
 20
-961.0598
 10
1090.270700000001
 20
-964.4425000000001
 10
1092.1729
 20
-967.8091000000004
 10
1094.1399
 20
-971.2898000000005
 10
1093.3177
 20
-973.9268000000002
 10
1091.838599999999
 20
-978.6698999999999
 10
1085.929
 20
-980.3068999999996
 10
1080.860500000001
 20
-980.3068999999996
 10
1080.468199999999
 20
-980.3068999999996
 10
1080.081
 20
-980.2970000000005
 10
1079.7004
 20
-980.2781999999997
 10
1074.512500000001
 20
-980.0185000000001
 10
1068.5365
 20
-977.9124000000002
 10
1067.673199999999
 20
-973.9017000000003
 10
1066.8765
 20
-970.1504999999997
 10
1068.9715
 20
-966.0814
 10
1070.8208
 20
-962.4911000000002
 10
1072.622299999999
 20
-958.9933000000001
 10
1074.1782
 20
-955.9718000000003
 10
1072.315200000001
 20
-954.5019000000002
 10
1070.804400000001
 20
-953.3161
 10
1048.223400000001
 20
-953.3131000000003
 10
1032.419
 20
-953.6055999999999
 10
1032.419
 20
-953.6055999999999
 10
1032.419
 20
-953.6180999999997
 10
1032.419
 20
-953.6180999999997
 10
1032.419
 20
-953.6180999999997
 10
1032.419
 20
-953.9047
 10
1032.419
 20
-953.9047
 10
1032.419
 20
-953.9047
 10
1031.277700000001
 20
-985.5380999999998
 10
1031.277700000001
 20
-985.5380999999998
 10
1031.277700000001
 20
-985.5380999999998
 10
1031.122499999999
 20
-985.6054999999997
 10
1031.122499999999
 20
-985.6054999999997
 10
1030.413
 20
-985.9182000000001
 10
1029.698
 20
-985.9929000000002
 10
1028.951800000001
 20
-985.9174999999996
 10
1027.501
 20
-986.0595000000003
 10
1025.969300000001
 20
-985.4555
 10
1024.133400000001
 20
-984.7205999999996
 10
1021.617099999999
 20
-983.7112999999999
 10
1018.5761
 20
-982.5227000000004
 10
1014.332700000001
 20
-982.5140000000001
 10
1013.6744
 20
-982.5401000000002
 10
1012.9902
 20
-982.5926
 10
1012.272999999999
 20
-982.6810000000005
 10
1007.3001
 20
-983.3036000000002
 10
1005.162399999999
 20
-987.9333999999999
 10
1004.817800000001
 20
-992.0582999999997
 10
1004.3521
 20
-997.6620999999996
 10
1006.825800000001
 20
-1004.272199999999
 10
1012.457200000001
 20
-1006.0638
 10
1013.7196
 20
-1006.465400000001
 10
1014.899600000001
 20
-1006.659599999999
 10
1016.0111
 20
-1006.7076
 10
1020.727500000001
 20
-1006.5393
 10
1024.0653
 20
-1003.5962
 10
1026.453600000001
 20
-1001.4761
 10
1027.707399999999
 20
-1000.362
 10
1028.7003
 20
-999.4814999999999
 10
1029.5329
 20
-999.3396000000002
 10
1029.5329
 20
-999.3396000000002
 10
1029.816000000001
 20
-999.2910000000002
 10
1029.816000000001
 20
-999.2910000000002
 10
1029.816000000001
 20
-999.2910000000002
 10
1030.7557
 20
-999.2910000000002
 10
1030.7557
 20
-999.2910000000002
 10
1030.7557
 20
-999.2910000000002
 10
1030.776099999999
 20
-999.5919999999996
 10
1030.776099999999
 20
-999.5919999999996
 10
1030.776099999999
 20
-999.5919999999996
 10
1033.5918
 20
-1039.929400000001
 10
1033.5918
 20
-1039.929400000001
 10
1038.009900000001
 20
-1039.116900000001
 10
1074.7791
 20
-1031.920599999999
 10
1076.4609
 20
-1036.1286
 10
1077.155200000001
 20
-1037.854600000001
 10
1075.9064
 20
-1040.5743
 10
1074.323200000001
 20
-1044.016299999999
 10
1071.9058
 20
-1049.273300000001
 10
1068.8982
 20
-1055.8151
 10
1071.187599999999
 20
-1062.0828
 10
1072.9038
 20
-1066.790800000001
 10
1077.5407
 20
-1070.078299999999
 10
1083.2916
 20
-1070.6623
 10
1089.984200000001
 20
-1071.3362
 10
1096.1445
 20
-1068.189699999999
 10
1099.6862
 20
-1062.2194
 10
1104.019400000001
 20
-1054.9148
 10
1099.0993
 20
-1047.4674
 10
1095.5065
 20
-1042.028899999999
 10
1093.5787
 20
-1039.1098
 10
1092.1849
 20
-1037.001099999999
 10
1092.719000000001
 20
-1035.665000000001
 10
1092.9527
 20
-1035.079299999999
 10
1093.524100000001
 20
-1034.7135
 10
1094.467500000001
 20
-1034.5473
 10
1101.453600000001
 20
-1033.3128
 10
1122.433800000001
 20
-1038.544599999999
 10
1125.373299999999
 20
-1039.293100000001
 10
1125.373299999999
 20
-1039.293100000001
 10
1126.7381
 20
-1003.4449
 10
1126.7381
 20
-1003.4449
 10
1126.7381
 20
-1003.4449
 10
1127.063900000001
 20
-1003.551799999999
 10
1127.063900000001
 20
-1003.551799999999
 10
1129.614299999999
 20
-1004.386500000001
 10
1131.7929
 20
-1005.311100000001
 10
1133.7155
 20
-1006.125899999999
 10
1138.569
 20
-1008.1834
 10
1142.079900000001
 20
-1009.6731
 10
1147.5219
 20
-1008.329900000001
 10
1153.2304
 20
-1006.9301
 10
1155.5249
 20
-1000.7513
 10
1155.2672
 20
-995.2480999999998
 97
        0
 97
        0
 92
        1
 93
        1
 72
     4
 94
        3
 73
     0
 74
     1
 95
       17
 96
       13
 40
0.0
 40
0.0
 40
0.0
 40
0.0
 40
1.0
 40
1.0
 40
1.0
 40
2.0
 40
2.0
 40
2.0
 40
3.0
 40
3.0
 40
3.0
 40
4.0
 40
4.0
 40
4.0
 40
4.0
 10
1111.2346
 20
-972.8951999999999
 10
1108.103499999999
 20
-972.8951999999999
 10
1105.5653
 20
-970.357
 10
1105.5653
 20
-967.2259999999997
 10
1105.5653
 20
-964.0949
 10
1108.103499999999
 20
-961.5567000000001
 10
1111.2346
 20
-961.5567000000001
 10
1114.365600000001
 20
-961.5567000000001
 10
1116.903899999999
 20
-964.0949
 10
1116.903899999999
 20
-967.2259999999997
 10
1116.903899999999
 20
-970.357
 10
1114.365600000001
 20
-972.8951999999999
 10
1111.2346
 20
-972.8951999999999
 97
        0
 97
        0
 75
     2
 76
     1
 98
        0
  0
ENDSEC
  0
SECTION
  2
OBJECTS
  0
DICTIONARY
  5
C
330
0
100
AcDbDictionary
281
     1
  3
ACAD_GROUP
350
D
  3
ACAD_LAYOUT
350
1A
  3
ACAD_MATERIAL
350
3B
  3
ACAD_MLEADERSTYLE
350
48
  3
ACAD_MLINESTYLE
350
17
  3
ACAD_PLOTSETTINGS
350
19
  3
ACAD_PLOTSTYLENAME
350
E
  3
ACAD_TABLESTYLE
350
47
  3
ACAD_VISUALSTYLE
350
2A
  0
SUN
  5
3F
330
29
100
AcDbSun
 90
        1
290
     0
 63
     7
421
 16777215
 40
1.0
291
     1
 91
  2455826
 92
 54000000
292
     0
 70
     2
 71
   256
280
     1
  0
DICTIONARY
  5
D
102
{ACAD_REACTORS
330
C
102
}
330
C
100
AcDbDictionary
281
     1
  0
DICTIONARY
  5
1A
102
{ACAD_REACTORS
330
C
102
}
330
C
100
AcDbDictionary
281
     1
  3
Layout1
350
1E
  3
Layout2
350
26
  3
Model
350
22
  0
DICTIONARY
  5
3B
102
{ACAD_REACTORS
330
C
102
}
330
C
100
AcDbDictionary
281
     1
  3
ByBlock
350
3D
  3
ByLayer
350
3C
  3
Global
350
3E
  0
DICTIONARY
  5
48
102
{ACAD_REACTORS
330
C
102
}
330
C
100
AcDbDictionary
281
     1
  0
DICTIONARY
  5
17
102
{ACAD_REACTORS
330
C
102
}
330
C
100
AcDbDictionary
281
     1
  3
Standard
350
18
  0
DICTIONARY
  5
19
102
{ACAD_REACTORS
330
C
102
}
330
C
100
AcDbDictionary
281
     1
  0
ACDBDICTIONARYWDFLT
  5
E
102
{ACAD_REACTORS
330
C
102
}
330
C
100
AcDbDictionary
281
     1
  3
Normal
350
F
100
AcDbDictionaryWithDefault
340
F
  0
DICTIONARY
  5
47
102
{ACAD_REACTORS
330
C
102
}
330
C
100
AcDbDictionary
281
     1
  0
DICTIONARY
  5
2A
102
{ACAD_REACTORS
330
C
102
}
330
C
100
AcDbDictionary
281
     1
  3
2dWireframe
350
2F
  3
3D Hidden
350
31
  3
3dWireframe
350
30
  3
Basic
350
32
  3
Brighten
350
36
  3
ColorChange
350
3A
  3
Conceptual
350
34
  3
Dim
350
35
  3
Facepattern
350
39
  3
Flat
350
2B
  3
FlatWithEdges
350
2C
  3
Gouraud
350
2D
  3
GouraudWithEdges
350
2E
  3
Linepattern
350
38
  3
Realistic
350
33
  3
Thicken
350
37
  0
LAYOUT
  5
1E
102
{ACAD_REACTORS
330
1A
102
}
330
1A
100
AcDbPlotSettings
  1

  2
none_device
  4

  6

 40
0.0
 41
0.0
 42
0.0
 43
0.0
 44
0.0
 45
0.0
 46
0.0
 47
0.0
 48
0.0
 49
0.0
140
0.0
141
0.0
142
1.0
143
1.0
 70
   688
 72
     0
 73
     0
 74
     5
  7

 75
    16
 76
     0
 77
     2
 78
   300
147
1.0
148
0.0
149
0.0
100
AcDbLayout
  1
Layout1
 70
     1
 71
     1
 10
0.0
 20
0.0
 11
12.0
 21
9.0
 12
0.0
 22
0.0
 32
0.0
 14
1.000000000000000E+20
 24
1.000000000000000E+20
 34
1.000000000000000E+20
 15
-1.000000000000000E+20
 25
-1.000000000000000E+20
 35
-1.000000000000000E+20
146
0.0
 13
0.0
 23
0.0
 33
0.0
 16
1.0
 26
0.0
 36
0.0
 17
0.0
 27
1.0
 37
0.0
 76
     0
330
1B
  0
LAYOUT
  5
26
102
{ACAD_REACTORS
330
1A
102
}
330
1A
100
AcDbPlotSettings
  1

  2
none_device
  4

  6

 40
0.0
 41
0.0
 42
0.0
 43
0.0
 44
0.0
 45
0.0
 46
0.0
 47
0.0
 48
0.0
 49
0.0
140
0.0
141
0.0
142
1.0
143
1.0
 70
   688
 72
     0
 73
     0
 74
     5
  7

 75
    16
 76
     0
 77
     2
 78
   300
147
1.0
148
0.0
149
0.0
100
AcDbLayout
  1
Layout2
 70
     1
 71
     2
 10
0.0
 20
0.0
 11
0.0
 21
0.0
 12
0.0
 22
0.0
 32
0.0
 14
0.0
 24
0.0
 34
0.0
 15
0.0
 25
0.0
 35
0.0
146
0.0
 13
0.0
 23
0.0
 33
0.0
 16
1.0
 26
0.0
 36
0.0
 17
0.0
 27
1.0
 37
0.0
 76
     0
330
23
  0
LAYOUT
  5
22
102
{ACAD_REACTORS
330
1A
102
}
330
1A
100
AcDbPlotSettings
  1

  2
none_device
  4

  6

 40
0.0
 41
0.0
 42
0.0
 43
0.0
 44
0.0
 45
0.0
 46
0.0
 47
0.0
 48
0.0
 49
0.0
140
0.0
141
0.0
142
1.0
143
1.0
 70
  1712
 72
     0
 73
     0
 74
     0
  7

 75
     0
 76
     0
 77
     2
 78
   300
147
1.0
148
0.0
149
0.0
100
AcDbLayout
  1
Model
 70
     1
 71
     0
 10
0.0
 20
0.0
 11
12.0
 21
9.0
 12
0.0
 22
0.0
 32
0.0
 14
1.000000000000000E+20
 24
1.000000000000000E+20
 34
1.000000000000000E+20
 15
-1.000000000000000E+20
 25
-1.000000000000000E+20
 35
-1.000000000000000E+20
146
0.0
 13
0.0
 23
0.0
 33
0.0
 16
1.0
 26
0.0
 36
0.0
 17
0.0
 27
1.0
 37
0.0
 76
     0
330
1F
331
29
  0
MATERIAL
  5
3D
102
{ACAD_REACTORS
330
3B
102
}
330
3B
100
AcDbMaterial
  1
ByBlock
 72
     1
 94
      127
  0
MATERIAL
  5
3C
102
{ACAD_REACTORS
330
3B
102
}
330
3B
100
AcDbMaterial
  1
ByLayer
 72
     1
 94
      127
  0
MATERIAL
  5
3E
102
{ACAD_REACTORS
330
3B
102
}
330
3B
100
AcDbMaterial
  1
Global
 72
     1
 94
      127
  0
MLINESTYLE
  5
18
102
{ACAD_REACTORS
330
17
102
}
330
17
100
AcDbMlineStyle
  2
Standard
 70
     0
  3

 62
   256
 51
90.0
 52
90.0
 71
     2
 49
0.5
 62
   256
  6
BYLAYER
 49
-0.5
 62
   256
  6
BYLAYER
  0
ACDBPLACEHOLDER
  5
F
102
{ACAD_REACTORS
330
E
102
}
330
E
  0
VISUALSTYLE
  5
2F
102
{ACAD_REACTORS
330
2A
102
}
330
2A
100
AcDbVisualStyle
  2
2dWireframe
 70
     4
177
     2
291
     0
 71
     0
176
     1
 72
     2
176
     1
 73
     0
176
     1
 90
        0
176
     1
 40
-0.6
176
     1
 41
-30.0
176
     1
 62
     5
 63
     7
421
 16777215
176
     1
 74
     1
176
     1
 91
        4
176
     1
 64
     7
176
     1
 65
   257
176
     1
 75
     1
176
     1
175
     1
176
     1
 42
1.0
176
     1
 92
        0
176
     1
 66
   257
176
     1
 43
1.0
176
     1
 76
     1
176
     1
 77
     6
176
     1
 78
     2
176
     1
 67
     7
176
     1
 79
     5
176
     1
170
     0
176
     1
171
     0
176
     1
290
     0
176
     1
 93
        1
176
     1
 44
0.0
176
     1
173
     0
176
     1
  0
VISUALSTYLE
  5
31
102
{ACAD_REACTORS
330
2A
102
}
330
2A
100
AcDbVisualStyle
  2
3D Hidden
 70
     6
177
     2
291
     0
 71
     1
176
     1
 72
     2
176
     1
 73
     2
176
     1
 90
        0
176
     1
 40
-0.6
176
     1
 41
-30.0
176
     1
 62
     5
 63
     7
421
 16777215
176
     1
 74
     2
176
     1
 91
        2
176
     1
 64
     7
176
     1
 65
   257
176
     1
 75
     2
176
     1
175
     1
176
     1
 42
40.0
176
     1
 92
        0
176
     1
 66
   257
176
     1
 43
1.0
176
     1
 76
     1
176
     1
 77
     6
176
     1
 78
     2
176
     1
 67
     7
176
     1
 79
     3
176
     1
170
     0
176
     1
171
     0
176
     1
290
     0
176
     1
 93
        1
176
     1
 44
0.0
176
     1
173
     0
176
     1
  0
VISUALSTYLE
  5
30
102
{ACAD_REACTORS
330
2A
102
}
330
2A
100
AcDbVisualStyle
  2
3dWireframe
 70
     5
177
     2
291
     0
 71
     0
176
     1
 72
     2
176
     1
 73
     0
176
     1
 90
        0
176
     1
 40
-0.6
176
     1
 41
-30.0
176
     1
 62
     5
 63
     7
421
 16777215
176
     1
 74
     1
176
     1
 91
        4
176
     1
 64
     7
176
     1
 65
   257
176
     1
 75
     1
176
     1
175
     1
176
     1
 42
1.0
176
     1
 92
        0
176
     1
 66
   257
176
     1
 43
1.0
176
     1
 76
     1
176
     1
 77
     6
176
     1
 78
     2
176
     1
 67
     7
176
     1
 79
     5
176
     1
170
     0
176
     1
171
     0
176
     1
290
     0
176
     1
 93
        1
176
     1
 44
0.0
176
     1
173
     0
176
     1
  0
VISUALSTYLE
  5
32
102
{ACAD_REACTORS
330
2A
102
}
330
2A
100
AcDbVisualStyle
  2
Basic
 70
     7
177
     2
291
     1
 71
     1
176
     1
 72
     0
176
     1
 73
     1
176
     1
 90
        0
176
     1
 40
-0.6
176
     1
 41
-30.0
176
     1
 62
     5
 63
     7
421
 16777215
176
     1
 74
     0
176
     1
 91
        4
176
     1
 64
     7
176
     1
 65
   257
176
     1
 75
     1
176
     1
175
     1
176
     1
 42
1.0
176
     1
 92
        8
176
     1
 66
     7
176
     1
 43
1.0
176
     1
 76
     1
176
     1
 77
     6
176
     1
 78
     2
176
     1
 67
     7
176
     1
 79
     5
176
     1
170
     0
176
     1
171
     0
176
     1
290
     0
176
     1
 93
        1
176
     1
 44
0.0
176
     1
173
     0
176
     1
  0
VISUALSTYLE
  5
36
102
{ACAD_REACTORS
330
2A
102
}
330
2A
100
AcDbVisualStyle
  2
Brighten
 70
    12
177
     2
291
     1
 71
     2
176
     1
 72
     2
176
     1
 73
     0
176
     1
 90
        0
176
     1
 40
-0.6
176
     1
 41
-30.0
176
     1
 62
     5
 63
     7
421
 16777215
176
     1
 74
     1
176
     1
 91
        4
176
     1
 64
     7
176
     1
 65
   257
176
     1
 75
     1
176
     1
175
     1
176
     1
 42
1.0
176
     1
 92
        8
176
     1
 66
     7
176
     1
 43
1.0
176
     1
 76
     1
176
     1
 77
     6
176
     1
 78
     2
176
     1
 67
     7
176
     1
 79
     5
176
     1
170
     0
176
     1
171
     0
176
     1
290
     0
176
     1
 93
        1
176
     1
 44
50.0
176
     1
173
     0
176
     1
  0
VISUALSTYLE
  5
3A
102
{ACAD_REACTORS
330
2A
102
}
330
2A
100
AcDbVisualStyle
  2
ColorChange
 70
    16
177
     2
291
     1
 71
     2
176
     1
 72
     2
176
     1
 73
     3
176
     1
 90
        0
176
     1
 40
-0.6
176
     1
 41
-30.0
176
     1
 62
     5
 63
     8
421
  8421504
176
     1
 74
     1
176
     1
 91
        4
176
     1
 64
     7
176
     1
 65
   257
176
     1
 75
     1
176
     1
175
     1
176
     1
 42
1.0
176
     1
 92
        8
176
     1
 66
     8
424
  8421504
176
     1
 43
1.0
176
     1
 76
     1
176
     1
 77
     6
176
     1
 78
     2
176
     1
 67
     7
176
     1
 79
     5
176
     1
170
     0
176
     1
171
     0
176
     1
290
     0
176
     1
 93
        1
176
     1
 44
0.0
176
     1
173
     0
176
     1
  0
VISUALSTYLE
  5
34
102
{ACAD_REACTORS
330
2A
102
}
330
2A
100
AcDbVisualStyle
  2
Conceptual
 70
     9
177
     2
291
     0
 71
     3
176
     1
 72
     2
176
     1
 73
     0
176
     1
 90
        0
176
     1
 40
-0.6
176
     1
 41
-30.0
176
     1
 62
     5
 63
     7
421
 16777215
176
     1
 74
     2
176
     1
 91
        2
176
     1
 64
     7
176
     1
 65
   257
176
     1
 75
     1
176
     1
175
     1
176
     1
 42
40.0
176
     1
 92
        8
176
     1
 66
     7
176
     1
 43
1.0
176
     1
 76
     1
176
     1
 77
     6
176
     1
 78
     2
176
     1
 67
     7
176
     1
 79
     3
176
     1
170
     0
176
     1
171
     0
176
     1
290
     0
176
     1
 93
        1
176
     1
 44
0.0
176
     1
173
     0
176
     1
  0
VISUALSTYLE
  5
35
102
{ACAD_REACTORS
330
2A
102
}
330
2A
100
AcDbVisualStyle
  2
Dim
 70
    11
177
     2
291
     1
 71
     2
176
     1
 72
     2
176
     1
 73
     0
176
     1
 90
        0
176
     1
 40
-0.6
176
     1
 41
-30.0
176
     1
 62
     5
 63
     7
421
 16777215
176
     1
 74
     1
176
     1
 91
        4
176
     1
 64
     7
176
     1
 65
   257
176
     1
 75
     1
176
     1
175
     1
176
     1
 42
1.0
176
     1
 92
        8
176
     1
 66
     7
176
     1
 43
1.0
176
     1
 76
     1
176
     1
 77
     6
176
     1
 78
     2
176
     1
 67
     7
176
     1
 79
     5
176
     1
170
     0
176
     1
171
     0
176
     1
290
     0
176
     1
 93
        1
176
     1
 44
-50.0
176
     1
173
     0
176
     1
  0
VISUALSTYLE
  5
39
102
{ACAD_REACTORS
330
2A
102
}
330
2A
100
AcDbVisualStyle
  2
Facepattern
 70
    15
177
     2
291
     1
 71
     2
176
     1
 72
     2
176
     1
 73
     0
176
     1
 90
        0
176
     1
 40
-0.6
176
     1
 41
-30.0
176
     1
 62
     5
 63
     7
421
 16777215
176
     1
 74
     1
176
     1
 91
        4
176
     1
 64
     7
176
     1
 65
   257
176
     1
 75
     1
176
     1
175
     1
176
     1
 42
1.0
176
     1
 92
        8
176
     1
 66
     7
176
     1
 43
1.0
176
     1
 76
     1
176
     1
 77
     6
176
     1
 78
     2
176
     1
 67
     7
176
     1
 79
     5
176
     1
170
     0
176
     1
171
     0
176
     1
290
     0
176
     1
 93
        1
176
     1
 44
0.0
176
     1
173
     0
176
     1
  0
VISUALSTYLE
  5
2B
102
{ACAD_REACTORS
330
2A
102
}
330
2A
100
AcDbVisualStyle
  2
Flat
 70
     0
177
     2
291
     1
 71
     2
176
     1
 72
     1
176
     1
 73
     1
176
     1
 90
        2
176
     1
 40
-0.6
176
     1
 41
30.0
176
     1
 62
     5
 63
     7
421
 16777215
176
     1
 74
     0
176
     1
 91
        4
176
     1
 64
     7
176
     1
 65
   257
176
     1
 75
     1
176
     1
175
     1
176
     1
 42
1.0
176
     1
 92
        8
176
     1
 66
     7
176
     1
 43
1.0
176
     1
 76
     1
176
     1
 77
     6
176
     1
 78
     2
176
     1
 67
     7
176
     1
 79
     5
176
     1
170
     0
176
     1
171
     0
176
     1
290
     0
176
     1
 93
       13
176
     1
 44
0.0
176
     1
173
     0
176
     1
  0
VISUALSTYLE
  5
2C
102
{ACAD_REACTORS
330
2A
102
}
330
2A
100
AcDbVisualStyle
  2
FlatWithEdges
 70
     1
177
     2
291
     1
 71
     2
176
     1
 72
     1
176
     1
 73
     1
176
     1
 90
        2
176
     1
 40
-0.6
176
     1
 41
30.0
176
     1
 62
     5
 63
     7
421
 16777215
176
     1
 74
     1
176
     1
 91
        4
176
     1
 64
     7
176
     1
 65
   257
176
     1
 75
     1
176
     1
175
     1
176
     1
 42
1.0
176
     1
 92
        0
176
     1
 66
   257
176
     1
 43
1.0
176
     1
 76
     1
176
     1
 77
     6
176
     1
 78
     2
176
     1
 67
     7
176
     1
 79
     5
176
     1
170
     0
176
     1
171
     0
176
     1
290
     0
176
     1
 93
       13
176
     1
 44
0.0
176
     1
173
     0
176
     1
  0
VISUALSTYLE
  5
2D
102
{ACAD_REACTORS
330
2A
102
}
330
2A
100
AcDbVisualStyle
  2
Gouraud
 70
     2
177
     2
291
     1
 71
     2
176
     1
 72
     2
176
     1
 73
     1
176
     1
 90
        2
176
     1
 40
-0.6
176
     1
 41
30.0
176
     1
 62
     5
 63
     7
421
 16777215
176
     1
 74
     0
176
     1
 91
        4
176
     1
 64
     7
176
     1
 65
   257
176
     1
 75
     1
176
     1
175
     1
176
     1
 42
1.0
176
     1
 92
        0
176
     1
 66
     7
176
     1
 43
1.0
176
     1
 76
     1
176
     1
 77
     6
176
     1
 78
     2
176
     1
 67
     7
176
     1
 79
     5
176
     1
170
     0
176
     1
171
     0
176
     1
290
     0
176
     1
 93
       13
176
     1
 44
0.0
176
     1
173
     0
176
     1
  0
VISUALSTYLE
  5
2E
102
{ACAD_REACTORS
330
2A
102
}
330
2A
100
AcDbVisualStyle
  2
GouraudWithEdges
 70
     3
177
     2
291
     1
 71
     2
176
     1
 72
     2
176
     1
 73
     1
176
     1
 90
        2
176
     1
 40
-0.6
176
     1
 41
30.0
176
     1
 62
     5
 63
     7
421
 16777215
176
     1
 74
     1
176
     1
 91
        4
176
     1
 64
     7
176
     1
 65
   257
176
     1
 75
     1
176
     1
175
     1
176
     1
 42
1.0
176
     1
 92
        0
176
     1
 66
   257
176
     1
 43
1.0
176
     1
 76
     1
176
     1
 77
     6
176
     1
 78
     2
176
     1
 67
     7
176
     1
 79
     5
176
     1
170
     0
176
     1
171
     0
176
     1
290
     0
176
     1
 93
       13
176
     1
 44
0.0
176
     1
173
     0
176
     1
  0
VISUALSTYLE
  5
38
102
{ACAD_REACTORS
330
2A
102
}
330
2A
100
AcDbVisualStyle
  2
Linepattern
 70
    14
177
     2
291
     1
 71
     2
176
     1
 72
     2
176
     1
 73
     0
176
     1
 90
        0
176
     1
 40
-0.6
176
     1
 41
-30.0
176
     1
 62
     5
 63
     7
421
 16777215
176
     1
 74
     1
176
     1
 91
        4
176
     1
 64
     7
176
     1
 65
   257
176
     1
 75
     7
176
     1
175
     7
176
     1
 42
1.0
176
     1
 92
        8
176
     1
 66
     7
176
     1
 43
1.0
176
     1
 76
     1
176
     1
 77
     6
176
     1
 78
     2
176
     1
 67
     7
176
     1
 79
     5
176
     1
170
     0
176
     1
171
     0
176
     1
290
     0
176
     1
 93
        1
176
     1
 44
0.0
176
     1
173
     0
176
     1
  0
VISUALSTYLE
  5
33
102
{ACAD_REACTORS
330
2A
102
}
330
2A
100
AcDbVisualStyle
  2
Realistic
 70
     8
177
     2
291
     0
 71
     2
176
     1
 72
     2
176
     1
 73
     0
176
     1
 90
        0
176
     1
 40
-0.6
176
     1
 41
-30.0
176
     1
 62
     5
 63
     7
421
 16777215
176
     1
 74
     1
176
     1
 91
        0
176
     1
 64
     7
176
     1
 65
   257
176
     1
 75
     1
176
     1
175
     1
176
     1
 42
1.0
176
     1
 92
        8
176
     1
 66
     8
424
  7895160
176
     1
 43
1.0
176
     1
 76
     1
176
     1
 77
     6
176
     1
 78
     2
176
     1
 67
     7
176
     1
 79
     5
176
     1
170
     0
176
     1
171
     0
176
     1
290
     0
176
     1
 93
       13
176
     1
 44
0.0
176
     1
173
     0
176
     1
  0
VISUALSTYLE
  5
37
102
{ACAD_REACTORS
330
2A
102
}
330
2A
100
AcDbVisualStyle
  2
Thicken
 70
    13
177
     2
291
     1
 71
     2
176
     1
 72
     2
176
     1
 73
     0
176
     1
 90
        0
176
     1
 40
-0.6
176
     1
 41
-30.0
176
     1
 62
     5
 63
     7
421
 16777215
176
     1
 74
     1
176
     1
 91
        4
176
     1
 64
     7
176
     1
 65
   257
176
     1
 75
     1
176
     1
175
     1
176
     1
 42
1.0
176
     1
 92
       12
176
     1
 66
     7
176
     1
 43
1.0
176
     1
 76
     1
176
     1
 77
     6
176
     1
 78
     2
176
     1
 67
     7
176
     1
 79
     5
176
     1
170
     0
176
     1
171
     0
176
     1
290
     0
176
     1
 93
        1
176
     1
 44
0.0
176
     1
173
     0
176
     1
  0
ENDSEC
  0
EOF
