  0
SECTION
  2
HEADER
  9
$ACADVER
  1
AC1021
  9
$ACADMAINTVER
 70
    25
  9
$DWGCODEPAGE
  3
ANSI_1252
  9
$INSBASE
 10
0.0
 20
0.0
 30
0.0
  9
$EXTMIN
 10
-9.63304
 20
-5.08046
 30
0.0
  9
$EXTMAX
 10
9.63304
 20
5.0804
 30
0.0
  9
$LIMMIN
 10
0.0
 20
0.0
  9
$LIMMAX
 10
12.0
 20
9.0
  9
$ORTHOMODE
 70
     0
  9
$REGENMODE
 70
     1
  9
$FILLMODE
 70
     1
  9
$QTEXTMODE
 70
     0
  9
$MIRRTEXT
 70
     1
  9
$LTSCALE
 40
1.0
  9
$ATTMODE
 70
     1
  9
$TEXTSIZE
 40
0.2
  9
$TRACEWID
 40
0.05
  9
$TEXTSTYLE
  7
Standard
  9
$CLAYER
  8
0
  9
$CELTYPE
  6
ByLayer
  9
$CECOLOR
 62
   256
  9
$CELTSCALE
 40
1.0
  9
$DISPSILH
 70
     0
  9
$DIMSCALE
 40
1.0
  9
$DIMASZ
 40
0.18
  9
$DIMEXO
 40
0.0625
  9
$DIMDLI
 40
0.38
  9
$DIMRND
 40
0.0
  9
$DIMDLE
 40
0.0
  9
$DIMEXE
 40
0.18
  9
$DIMTP
 40
0.0
  9
$DIMTM
 40
0.0
  9
$DIMTXT
 40
0.18
  9
$DIMCEN
 40
0.09
  9
$DIMTSZ
 40
0.0
  9
$DIMTOL
 70
     0
  9
$DIMLIM
 70
     0
  9
$DIMTIH
 70
     1
  9
$DIMTOH
 70
     1
  9
$DIMSE1
 70
     0
  9
$DIMSE2
 70
     0
  9
$DIMTAD
 70
     0
  9
$DIMZIN
 70
     0
  9
$DIMBLK
  1

  9
$DIMASO
 70
     1
  9
$DIMSHO
 70
     1
  9
$DIMPOST
  1

  9
$DIMAPOST
  1

  9
$DIMALT
 70
     0
  9
$DIMALTD
 70
     2
  9
$DIMALTF
 40
25.4
  9
$DIMLFAC
 40
1.0
  9
$DIMTOFL
 70
     0
  9
$DIMTVP
 40
0.0
  9
$DIMTIX
 70
     0
  9
$DIMSOXD
 70
     0
  9
$DIMSAH
 70
     0
  9
$DIMBLK1
  1

  9
$DIMBLK2
  1

  9
$DIMSTYLE
  2
Standard
  9
$DIMCLRD
 70
     0
  9
$DIMCLRE
 70
     0
  9
$DIMCLRT
 70
     0
  9
$DIMTFAC
 40
1.0
  9
$DIMGAP
 40
0.09
  9
$DIMJUST
 70
     0
  9
$DIMSD1
 70
     0
  9
$DIMSD2
 70
     0
  9
$DIMTOLJ
 70
     1
  9
$DIMTZIN
 70
     0
  9
$DIMALTZ
 70
     0
  9
$DIMALTTZ
 70
     0
  9
$DIMUPT
 70
     0
  9
$DIMDEC
 70
     4
  9
$DIMTDEC
 70
     4
  9
$DIMALTU
 70
     2
  9
$DIMALTTD
 70
     2
  9
$DIMTXSTY
  7
Standard
  9
$DIMAUNIT
 70
     0
  9
$DIMADEC
 70
     0
  9
$DIMALTRND
 40
0.0
  9
$DIMAZIN
 70
     0
  9
$DIMDSEP
 70
    46
  9
$DIMATFIT
 70
     3
  9
$DIMFRAC
 70
     0
  9
$DIMLDRBLK
  1

  9
$DIMLUNIT
 70
     2
  9
$DIMLWD
 70
    -2
  9
$DIMLWE
 70
    -2
  9
$DIMTMOVE
 70
     0
  9
$DIMFXL
 40
1.0
  9
$DIMFXLON
 70
     0
  9
$DIMJOGANG
 40
0.7853981633974483
  9
$DIMTFILL
 70
     0
  9
$DIMTFILLCLR
 70
     0
  9
$DIMARCSYM
 70
     0
  9
$DIMLTYPE
  6

  9
$DIMLTEX1
  6

  9
$DIMLTEX2
  6

  9
$LUNITS
 70
     2
  9
$LUPREC
 70
     4
  9
$SKETCHINC
 40
0.1
  9
$FILLETRAD
 40
0.5
  9
$AUNITS
 70
     0
  9
$AUPREC
 70
     0
  9
$MENU
  1
.
  9
$ELEVATION
 40
0.0
  9
$PELEVATION
 40
0.0
  9
$THICKNESS
 40
0.0
  9
$LIMCHECK
 70
     0
  9
$CHAMFERA
 40
0.5
  9
$CHAMFERB
 40
0.5
  9
$CHAMFERC
 40
1.0
  9
$CHAMFERD
 40
0.0
  9
$SKPOLY
 70
     0
  9
$TDCREATE
 40
2456876.901239826
  9
$TDUCREATE
 40
2456877.026239826
  9
$TDUPDATE
 40
2456876.901240185
  9
$TDUUPDATE
 40
2456877.026240185
  9
$TDINDWG
 40
0.0000000116
  9
$TDUSRTIMER
 40
0.0000000116
  9
$USRTIMER
 70
     1
  9
$ANGBASE
 50
0.0
  9
$ANGDIR
 70
     0
  9
$PDMODE
 70
     0
  9
$PDSIZE
 40
0.0
  9
$PLINEWID
 40
0.0
  9
$SPLFRAME
 70
     0
  9
$SPLINETYPE
 70
     6
  9
$SPLINESEGS
 70
     8
  9
$HANDSEED
  5
69
  9
$SURFTAB1
 70
     6
  9
$SURFTAB2
 70
     6
  9
$SURFTYPE
 70
     6
  9
$SURFU
 70
     6
  9
$SURFV
 70
     6
  9
$UCSBASE
  2

  9
$UCSNAME
  2

  9
$UCSORG
 10
0.0
 20
0.0
 30
0.0
  9
$UCSXDIR
 10
1.0
 20
0.0
 30
0.0
  9
$UCSYDIR
 10
0.0
 20
1.0
 30
0.0
  9
$UCSORTHOREF
  2

  9
$UCSORTHOVIEW
 70
     0
  9
$UCSORGTOP
 10
0.0
 20
0.0
 30
0.0
  9
$UCSORGBOTTOM
 10
0.0
 20
0.0
 30
0.0
  9
$UCSORGLEFT
 10
0.0
 20
0.0
 30
0.0
  9
$UCSORGRIGHT
 10
0.0
 20
0.0
 30
0.0
  9
$UCSORGFRONT
 10
0.0
 20
0.0
 30
0.0
  9
$UCSORGBACK
 10
0.0
 20
0.0
 30
0.0
  9
$PUCSBASE
  2

  9
$PUCSNAME
  2

  9
$PUCSORG
 10
0.0
 20
0.0
 30
0.0
  9
$PUCSXDIR
 10
1.0
 20
0.0
 30
0.0
  9
$PUCSYDIR
 10
0.0
 20
1.0
 30
0.0
  9
$PUCSORTHOREF
  2

  9
$PUCSORTHOVIEW
 70
     0
  9
$PUCSORGTOP
 10
0.0
 20
0.0
 30
0.0
  9
$PUCSORGBOTTOM
 10
0.0
 20
0.0
 30
0.0
  9
$PUCSORGLEFT
 10
0.0
 20
0.0
 30
0.0
  9
$PUCSORGRIGHT
 10
0.0
 20
0.0
 30
0.0
  9
$PUCSORGFRONT
 10
0.0
 20
0.0
 30
0.0
  9
$PUCSORGBACK
 10
0.0
 20
0.0
 30
0.0
  9
$USERI1
 70
     0
  9
$USERI2
 70
     0
  9
$USERI3
 70
     0
  9
$USERI4
 70
     0
  9
$USERI5
 70
     0
  9
$USERR1
 40
0.0
  9
$USERR2
 40
0.0
  9
$USERR3
 40
0.0
  9
$USERR4
 40
0.0
  9
$USERR5
 40
0.0
  9
$WORLDVIEW
 70
     1
  9
$SHADEDGE
 70
     3
  9
$SHADEDIF
 70
    70
  9
$TILEMODE
 70
     1
  9
$MAXACTVP
 70
    64
  9
$PINSBASE
 10
0.0
 20
0.0
 30
0.0
  9
$PLIMCHECK
 70
     0
  9
$PEXTMIN
 10
1.000000000000000E+20
 20
1.000000000000000E+20
 30
1.000000000000000E+20
  9
$PEXTMAX
 10
-1.000000000000000E+20
 20
-1.000000000000000E+20
 30
-1.000000000000000E+20
  9
$PLIMMIN
 10
0.0
 20
0.0
  9
$PLIMMAX
 10
12.0
 20
9.0
  9
$UNITMODE
 70
     0
  9
$VISRETAIN
 70
     1
  9
$PLINEGEN
 70
     0
  9
$PSLTSCALE
 70
     1
  9
$TREEDEPTH
 70
  3020
  9
$CMLSTYLE
  2
Standard
  9
$CMLJUST
 70
     0
  9
$CMLSCALE
 40
1.0
  9
$PROXYGRAPHICS
 70
     1
  9
$MEASUREMENT
 70
     0
  9
$CELWEIGHT
370
    -1
  9
$ENDCAPS
280
     0
  9
$JOINSTYLE
280
     0
  9
$LWDISPLAY
290
     0
  9
$INSUNITS
 70
     5
  9
$HYPERLINKBASE
  1

  9
$STYLESHEET
  1

  9
$XEDIT
290
     1
  9
$CEPSNTYPE
380
     0
  9
$PSTYLEMODE
290
     1
  9
$FINGERPRINTGUID
  2
{DD0D8A98-8066-484E-A741-E956C6DA0F78}
  9
$VERSIONGUID
  2
{FAEB1C32-E019-11D5-929B-00C0DF256EC4}
  9
$EXTNAMES
290
     1
  9
$PSVPSCALE
 40
0.0
  9
$OLESTARTUP
290
     0
  9
$SORTENTS
280
   127
  9
$INDEXCTL
280
     0
  9
$HIDETEXT
280
     1
  9
$XCLIPFRAME
290
     0
  9
$HALOGAP
280
     0
  9
$OBSCOLOR
 70
   257
  9
$OBSLTYPE
280
     0
  9
$INTERSECTIONDISPLAY
280
     0
  9
$INTERSECTIONCOLOR
 70
   257
  9
$DIMASSOC
280
     2
  9
$PROJECTNAME
  1

  9
$CAMERADISPLAY
290
     0
  9
$LENSLENGTH
 40
50.0
  9
$CAMERAHEIGHT
 40
0.0
  9
$STEPSPERSEC
 40
2.0
  9
$STEPSIZE
 40
6.0
  9
$3DDWFPREC
 40
2.0
  9
$PSOLWIDTH
 40
0.25
  9
$PSOLHEIGHT
 40
4.0
  9
$LOFTANG1
 40
1.570796326794897
  9
$LOFTANG2
 40
1.570796326794897
  9
$LOFTMAG1
 40
0.0
  9
$LOFTMAG2
 40
0.0
  9
$LOFTPARAM
 70
     7
  9
$LOFTNORMALS
280
     1
  9
$LATITUDE
 40
37.795
  9
$LONGITUDE
 40
-122.394
  9
$NORTHDIRECTION
 40
0.0
  9
$TIMEZONE
 70
 -8000
  9
$LIGHTGLYPHDISPLAY
280
     1
  9
$TILEMODELIGHTSYNCH
280
     1
  9
$SOLIDHIST
280
     1
  9
$SHOWHIST
280
     1
  9
$DWFFRAME
280
     2
  9
$DGNFRAME
280
     2
  9
$REALWORLDSCALE
290
     1
  9
$INTERFERECOLOR
 62
   256
  9
$CSHADOW
280
     0
  9
$SHADOWPLANELOCATION
 40
0.0
  0
ENDSEC
  0
SECTION
  2
CLASSES
  0
CLASS
  1
ACDBDICTIONARYWDFLT
  2
AcDbDictionaryWithDefault
  3
ObjectDBX Classes
 90
        0
 91
        4
280
     0
281
     0
  0
CLASS
  1
VISUALSTYLE
  2
AcDbVisualStyle
  3
ObjectDBX Classes
 90
     4095
 91
        4
280
     0
281
     0
  0
CLASS
  1
MATERIAL
  2
AcDbMaterial
  3
ObjectDBX Classes
 90
     1153
 91
        4
280
     0
281
     0
  0
ENDSEC
  0
SECTION
  2
TABLES
  0
TABLE
  2
VPORT
  5
8
330
0
100
AcDbSymbolTable
 70
     1
  0
VPORT
  5
29
330
8
100
AcDbSymbolTableRecord
100
AcDbViewportTableRecord
  2
*Active
 70
     0
 10
0.0
 20
0.0
 11
1.0
 21
1.0
 12
10.42990654205607
 22
4.5
 13
0.0
 23
0.0
 14
0.5
 24
0.5
 15
0.5
 25
0.5
 16
0.0
 26
0.0
 36
1.0
 17
0.0
 27
0.0
 37
0.0
 40
9.0
 41
1.972972972850329
 42
50.0
 43
0.0
 44
0.0
 50
0.0
 51
0.0
 71
     0
 72
   100
 73
     1
 74
     3
 75
     0
 76
     0
 77
     0
 78
     0
281
     0
 65
     1
110
0.0
120
0.0
130
0.0
111
1.0
121
0.0
131
0.0
112
0.0
122
1.0
132
0.0
 79
     0
146
0.0
 60
     3
 61
     5
292
     1
282
     1
141
0.0
142
0.0
 63
   250
  0
ENDTAB
  0
TABLE
  2
LTYPE
  5
5
330
0
100
AcDbSymbolTable
 70
     1
  0
LTYPE
  5
14
330
5
100
AcDbSymbolTableRecord
100
AcDbLinetypeTableRecord
  2
ByBlock
 70
     0
  3

 72
    65
 73
     0
 40
0.0
  0
LTYPE
  5
15
330
5
100
AcDbSymbolTableRecord
100
AcDbLinetypeTableRecord
  2
ByLayer
 70
     0
  3

 72
    65
 73
     0
 40
0.0
  0
LTYPE
  5
16
330
5
100
AcDbSymbolTableRecord
100
AcDbLinetypeTableRecord
  2
Continuous
 70
     0
  3
Solid line
 72
    65
 73
     0
 40
0.0
  0
ENDTAB
  0
TABLE
  2
LAYER
  5
2
330
0
100
AcDbSymbolTable
 70
     2
  0
LAYER
  5
10
330
2
100
AcDbSymbolTableRecord
100
AcDbLayerTableRecord
  2
0
 70
     0
 62
     7
  6
Continuous
370
    -3
390
F
347
3E
  0
LAYER
  5
40
330
2
100
AcDbSymbolTableRecord
100
AcDbLayerTableRecord
  2
Camada 1
 70
     0
 62
     7
  6
Continuous
370
    -3
390
F
347
3E
  0
ENDTAB
  0
TABLE
  2
STYLE
  5
3
330
0
100
AcDbSymbolTable
 70
     1
  0
STYLE
  5
11
330
3
100
AcDbSymbolTableRecord
100
AcDbTextStyleTableRecord
  2
Standard
 70
     0
 40
0.0
 41
1.0
 50
0.0
 71
     0
 42
0.2
  3
txt
  4

  0
ENDTAB
  0
TABLE
  2
VIEW
  5
6
330
0
100
AcDbSymbolTable
 70
     0
  0
ENDTAB
  0
TABLE
  2
UCS
  5
7
330
0
100
AcDbSymbolTable
 70
     0
  0
ENDTAB
  0
TABLE
  2
APPID
  5
9
330
0
100
AcDbSymbolTable
 70
     2
  0
APPID
  5
12
330
9
100
AcDbSymbolTableRecord
100
AcDbRegAppTableRecord
  2
ACAD
 70
     0
  0
APPID
  5
3F
330
9
100
AcDbSymbolTableRecord
100
AcDbRegAppTableRecord
  2
ODA
 70
     0
  0
ENDTAB
  0
TABLE
  2
DIMSTYLE
  5
A
330
0
100
AcDbSymbolTable
 70
     1
100
AcDbDimStyleTable
  0
DIMSTYLE
105
27
330
A
100
AcDbSymbolTableRecord
100
AcDbDimStyleTableRecord
  2
Standard
 70
     0
178
     0
340
11
  0
ENDTAB
  0
TABLE
  2
BLOCK_RECORD
  5
1
330
0
100
AcDbSymbolTable
 70
     1
  0
BLOCK_RECORD
  5
1F
330
1
100
AcDbSymbolTableRecord
100
AcDbBlockTableRecord
  2
*Model_Space
340
22
 70
     0
280
     1
281
     0
  0
BLOCK_RECORD
  5
1B
330
1
100
AcDbSymbolTableRecord
100
AcDbBlockTableRecord
  2
*Paper_Space
340
1E
 70
     0
280
     1
281
     0
  0
BLOCK_RECORD
  5
23
330
1
100
AcDbSymbolTableRecord
100
AcDbBlockTableRecord
  2
*Paper_Space0
340
26
 70
     0
280
     1
281
     0
  0
ENDTAB
  0
ENDSEC
  0
SECTION
  2
BLOCKS
  0
BLOCK
  5
20
330
1F
100
AcDbEntity
  8
0
100
AcDbBlockBegin
  2
*Model_Space
 70
     0
 10
0.0
 20
0.0
 30
0.0
  3
*Model_Space
  1

  0
ENDBLK
  5
21
330
1F
100
AcDbEntity
  8
0
100
AcDbBlockEnd
  0
BLOCK
  5
1C
330
1B
100
AcDbEntity
 67
     1
  8
0
100
AcDbBlockBegin
  2
*Paper_Space
 70
     0
 10
0.0
 20
0.0
 30
0.0
  3
*Paper_Space
  1

  0
ENDBLK
  5
1D
330
1B
100
AcDbEntity
 67
     1
  8
0
100
AcDbBlockEnd
  0
BLOCK
  5
24
330
23
100
AcDbEntity
  8
0
100
AcDbBlockBegin
  2
*Paper_Space0
 70
     0
 10
0.0
 20
0.0
 30
0.0
  3
*Paper_Space0
  1

  0
ENDBLK
  5
25
330
23
100
AcDbEntity
  8
0
100
AcDbBlockEnd
  0
ENDSEC
  0
SECTION
  2
ENTITIES
  0
SPLINE
  5
41
330
1F
100
AcDbEntity
  8
Camada 1
100
AcDbSpline
210
0.0
220
0.0
230
1.0
 70
    11
 71
     3
 72
   596
 73
   592
 74
     0
 42
0.0000000001
 43
0.0000000001
 12
1.0
 22
0.0
 32
0.0
 13
1.0
 23
0.0
 33
0.0
 40
0.0
 40
0.0
 40
0.0
 40
0.0
 40
0.0067114093959732
 40
0.0067114093959732
 40
0.0067114093959732
 40
0.0067114093959732
 40
0.0134228187919463
 40
0.0134228187919463
 40
0.0134228187919463
 40
0.0134228187919463
 40
0.0201342281879195
 40
0.0201342281879195
 40
0.0201342281879195
 40
0.0201342281879195
 40
0.0268456375838926
 40
0.0268456375838926
 40
0.0268456375838926
 40
0.0268456375838926
 40
0.0335570469798658
 40
0.0335570469798658
 40
0.0335570469798658
 40
0.0335570469798658
 40
0.0402684563758389
 40
0.0402684563758389
 40
0.0402684563758389
 40
0.0402684563758389
 40
0.0469798657718121
 40
0.0469798657718121
 40
0.0469798657718121
 40
0.0469798657718121
 40
0.0536912751677852
 40
0.0536912751677852
 40
0.0536912751677852
 40
0.0536912751677852
 40
0.0604026845637584
 40
0.0604026845637584
 40
0.0604026845637584
 40
0.0604026845637584
 40
0.0671140939597315
 40
0.0671140939597315
 40
0.0671140939597315
 40
0.0671140939597315
 40
0.0738255033557047
 40
0.0738255033557047
 40
0.0738255033557047
 40
0.0738255033557047
 40
0.0805369127516778
 40
0.0805369127516778
 40
0.0805369127516778
 40
0.0805369127516778
 40
0.087248322147651
 40
0.087248322147651
 40
0.087248322147651
 40
0.087248322147651
 40
0.0939597315436242
 40
0.0939597315436242
 40
0.0939597315436242
 40
0.0939597315436242
 40
0.1006711409395973
 40
0.1006711409395973
 40
0.1006711409395973
 40
0.1006711409395973
 40
0.1073825503355705
 40
0.1073825503355705
 40
0.1073825503355705
 40
0.1073825503355705
 40
0.1140939597315436
 40
0.1140939597315436
 40
0.1140939597315436
 40
0.1140939597315436
 40
0.1208053691275168
 40
0.1208053691275168
 40
0.1208053691275168
 40
0.1208053691275168
 40
0.1275167785234899
 40
0.1275167785234899
 40
0.1275167785234899
 40
0.1275167785234899
 40
0.1342281879194631
 40
0.1342281879194631
 40
0.1342281879194631
 40
0.1342281879194631
 40
0.1409395973154362
 40
0.1409395973154362
 40
0.1409395973154362
 40
0.1409395973154362
 40
0.1476510067114094
 40
0.1476510067114094
 40
0.1476510067114094
 40
0.1476510067114094
 40
0.1543624161073825
 40
0.1543624161073825
 40
0.1543624161073825
 40
0.1543624161073825
 40
0.1610738255033557
 40
0.1610738255033557
 40
0.1610738255033557
 40
0.1610738255033557
 40
0.1677852348993289
 40
0.1677852348993289
 40
0.1677852348993289
 40
0.1677852348993289
 40
0.174496644295302
 40
0.174496644295302
 40
0.174496644295302
 40
0.174496644295302
 40
0.1812080536912752
 40
0.1812080536912752
 40
0.1812080536912752
 40
0.1812080536912752
 40
0.1879194630872483
 40
0.1879194630872483
 40
0.1879194630872483
 40
0.1879194630872483
 40
0.1946308724832215
 40
0.1946308724832215
 40
0.1946308724832215
 40
0.1946308724832215
 40
0.2013422818791946
 40
0.2013422818791946
 40
0.2013422818791946
 40
0.2013422818791946
 40
0.2080536912751678
 40
0.2080536912751678
 40
0.2080536912751678
 40
0.2080536912751678
 40
0.2147651006711409
 40
0.2147651006711409
 40
0.2147651006711409
 40
0.2147651006711409
 40
0.2214765100671141
 40
0.2214765100671141
 40
0.2214765100671141
 40
0.2214765100671141
 40
0.2281879194630873
 40
0.2281879194630873
 40
0.2281879194630873
 40
0.2281879194630873
 40
0.2348993288590604
 40
0.2348993288590604
 40
0.2348993288590604
 40
0.2348993288590604
 40
0.2416107382550336
 40
0.2416107382550336
 40
0.2416107382550336
 40
0.2416107382550336
 40
0.2483221476510067
 40
0.2483221476510067
 40
0.2483221476510067
 40
0.2483221476510067
 40
0.2550335570469799
 40
0.2550335570469799
 40
0.2550335570469799
 40
0.2550335570469799
 40
0.261744966442953
 40
0.261744966442953
 40
0.261744966442953
 40
0.261744966442953
 40
0.2684563758389262
 40
0.2684563758389262
 40
0.2684563758389262
 40
0.2684563758389262
 40
0.2751677852348993
 40
0.2751677852348993
 40
0.2751677852348993
 40
0.2751677852348993
 40
0.2818791946308725
 40
0.2818791946308725
 40
0.2818791946308725
 40
0.2818791946308725
 40
0.2885906040268457
 40
0.2885906040268457
 40
0.2885906040268457
 40
0.2885906040268457
 40
0.2953020134228188
 40
0.2953020134228188
 40
0.2953020134228188
 40
0.2953020134228188
 40
0.302013422818792
 40
0.302013422818792
 40
0.302013422818792
 40
0.302013422818792
 40
0.3087248322147651
 40
0.3087248322147651
 40
0.3087248322147651
 40
0.3087248322147651
 40
0.3154362416107382
 40
0.3154362416107382
 40
0.3154362416107382
 40
0.3154362416107382
 40
0.3221476510067114
 40
0.3221476510067114
 40
0.3221476510067114
 40
0.3221476510067114
 40
0.3288590604026846
 40
0.3288590604026846
 40
0.3288590604026846
 40
0.3288590604026846
 40
0.3355704697986577
 40
0.3355704697986577
 40
0.3355704697986577
 40
0.3355704697986577
 40
0.3422818791946309
 40
0.3422818791946309
 40
0.3422818791946309
 40
0.3422818791946309
 40
0.348993288590604
 40
0.348993288590604
 40
0.348993288590604
 40
0.348993288590604
 40
0.3557046979865772
 40
0.3557046979865772
 40
0.3557046979865772
 40
0.3557046979865772
 40
0.3624161073825503
 40
0.3624161073825503
 40
0.3624161073825503
 40
0.3624161073825503
 40
0.3691275167785235
 40
0.3691275167785235
 40
0.3691275167785235
 40
0.3691275167785235
 40
0.3758389261744967
 40
0.3758389261744967
 40
0.3758389261744967
 40
0.3758389261744967
 40
0.3825503355704698
 40
0.3825503355704698
 40
0.3825503355704698
 40
0.3825503355704698
 40
0.3892617449664429
 40
0.3892617449664429
 40
0.3892617449664429
 40
0.3892617449664429
 40
0.3959731543624161
 40
0.3959731543624161
 40
0.3959731543624161
 40
0.3959731543624161
 40
0.4026845637583892
 40
0.4026845637583892
 40
0.4026845637583892
 40
0.4026845637583892
 40
0.4093959731543624
 40
0.4093959731543624
 40
0.4093959731543624
 40
0.4093959731543624
 40
0.4161073825503356
 40
0.4161073825503356
 40
0.4161073825503356
 40
0.4161073825503356
 40
0.4228187919463087
 40
0.4228187919463087
 40
0.4228187919463087
 40
0.4228187919463087
 40
0.4295302013422819
 40
0.4295302013422819
 40
0.4295302013422819
 40
0.4295302013422819
 40
0.436241610738255
 40
0.436241610738255
 40
0.436241610738255
 40
0.436241610738255
 40
0.4429530201342282
 40
0.4429530201342282
 40
0.4429530201342282
 40
0.4429530201342282
 40
0.4496644295302014
 40
0.4496644295302014
 40
0.4496644295302014
 40
0.4496644295302014
 40
0.4563758389261745
 40
0.4563758389261745
 40
0.4563758389261745
 40
0.4563758389261745
 40
0.4630872483221476
 40
0.4630872483221476
 40
0.4630872483221476
 40
0.4630872483221476
 40
0.4697986577181208
 40
0.4697986577181208
 40
0.4697986577181208
 40
0.4697986577181208
 40
0.4765100671140939
 40
0.4765100671140939
 40
0.4765100671140939
 40
0.4765100671140939
 40
0.4832214765100671
 40
0.4832214765100671
 40
0.4832214765100671
 40
0.4832214765100671
 40
0.4899328859060403
 40
0.4899328859060403
 40
0.4899328859060403
 40
0.4899328859060403
 40
0.4966442953020134
 40
0.4966442953020134
 40
0.4966442953020134
 40
0.4966442953020134
 40
0.5033557046979866
 40
0.5033557046979866
 40
0.5033557046979866
 40
0.5033557046979866
 40
0.5100671140939598
 40
0.5100671140939598
 40
0.5100671140939598
 40
0.5100671140939598
 40
0.5167785234899329
 40
0.5167785234899329
 40
0.5167785234899329
 40
0.5167785234899329
 40
0.5234899328859061
 40
0.5234899328859061
 40
0.5234899328859061
 40
0.5234899328859061
 40
0.5302013422818792
 40
0.5302013422818792
 40
0.5302013422818792
 40
0.5302013422818792
 40
0.5369127516778524
 40
0.5369127516778524
 40
0.5369127516778524
 40
0.5369127516778524
 40
0.5436241610738255
 40
0.5436241610738255
 40
0.5436241610738255
 40
0.5436241610738255
 40
0.5503355704697986
 40
0.5503355704697986
 40
0.5503355704697986
 40
0.5503355704697986
 40
0.5570469798657718
 40
0.5570469798657718
 40
0.5570469798657718
 40
0.5570469798657718
 40
0.5637583892617449
 40
0.5637583892617449
 40
0.5637583892617449
 40
0.5637583892617449
 40
0.5704697986577181
 40
0.5704697986577181
 40
0.5704697986577181
 40
0.5704697986577181
 40
0.5771812080536913
 40
0.5771812080536913
 40
0.5771812080536913
 40
0.5771812080536913
 40
0.5838926174496645
 40
0.5838926174496645
 40
0.5838926174496645
 40
0.5838926174496645
 40
0.5906040268456376
 40
0.5906040268456376
 40
0.5906040268456376
 40
0.5906040268456376
 40
0.5973154362416108
 40
0.5973154362416108
 40
0.5973154362416108
 40
0.5973154362416108
 40
0.6040268456375839
 40
0.6040268456375839
 40
0.6040268456375839
 40
0.6040268456375839
 40
0.610738255033557
 40
0.610738255033557
 40
0.610738255033557
 40
0.610738255033557
 40
0.6174496644295302
 40
0.6174496644295302
 40
0.6174496644295302
 40
0.6174496644295302
 40
0.6241610738255033
 40
0.6241610738255033
 40
0.6241610738255033
 40
0.6241610738255033
 40
0.6308724832214765
 40
0.6308724832214765
 40
0.6308724832214765
 40
0.6308724832214765
 40
0.6375838926174496
 40
0.6375838926174496
 40
0.6375838926174496
 40
0.6375838926174496
 40
0.6442953020134228
 40
0.6442953020134228
 40
0.6442953020134228
 40
0.6442953020134228
 40
0.6510067114093959
 40
0.6510067114093959
 40
0.6510067114093959
 40
0.6510067114093959
 40
0.6577181208053692
 40
0.6577181208053692
 40
0.6577181208053692
 40
0.6577181208053692
 40
0.6644295302013423
 40
0.6644295302013423
 40
0.6644295302013423
 40
0.6644295302013423
 40
0.6711409395973155
 40
0.6711409395973155
 40
0.6711409395973155
 40
0.6711409395973155
 40
0.6778523489932886
 40
0.6778523489932886
 40
0.6778523489932886
 40
0.6778523489932886
 40
0.6845637583892618
 40
0.6845637583892618
 40
0.6845637583892618
 40
0.6845637583892618
 40
0.6912751677852349
 40
0.6912751677852349
 40
0.6912751677852349
 40
0.6912751677852349
 40
0.697986577181208
 40
0.697986577181208
 40
0.697986577181208
 40
0.697986577181208
 40
0.7046979865771812
 40
0.7046979865771812
 40
0.7046979865771812
 40
0.7046979865771812
 40
0.7114093959731543
 40
0.7114093959731543
 40
0.7114093959731543
 40
0.7114093959731543
 40
0.7181208053691275
 40
0.7181208053691275
 40
0.7181208053691275
 40
0.7181208053691275
 40
0.7248322147651006
 40
0.7248322147651006
 40
0.7248322147651006
 40
0.7248322147651006
 40
0.7315436241610739
 40
0.7315436241610739
 40
0.7315436241610739
 40
0.7315436241610739
 40
0.738255033557047
 40
0.738255033557047
 40
0.738255033557047
 40
0.738255033557047
 40
0.7449664429530202
 40
0.7449664429530202
 40
0.7449664429530202
 40
0.7449664429530202
 40
0.7516778523489933
 40
0.7516778523489933
 40
0.7516778523489933
 40
0.7516778523489933
 40
0.7583892617449665
 40
0.7583892617449665
 40
0.7583892617449665
 40
0.7583892617449665
 40
0.7651006711409396
 40
0.7651006711409396
 40
0.7651006711409396
 40
0.7651006711409396
 40
0.7718120805369127
 40
0.7718120805369127
 40
0.7718120805369127
 40
0.7718120805369127
 40
0.7785234899328859
 40
0.7785234899328859
 40
0.7785234899328859
 40
0.7785234899328859
 40
0.785234899328859
 40
0.785234899328859
 40
0.785234899328859
 40
0.785234899328859
 40
0.7919463087248322
 40
0.7919463087248322
 40
0.7919463087248322
 40
0.7919463087248322
 40
0.7986577181208053
 40
0.7986577181208053
 40
0.7986577181208053
 40
0.7986577181208053
 40
0.8053691275167785
 40
0.8053691275167785
 40
0.8053691275167785
 40
0.8053691275167785
 40
0.8120805369127517
 40
0.8120805369127517
 40
0.8120805369127517
 40
0.8120805369127517
 40
0.8187919463087249
 40
0.8187919463087249
 40
0.8187919463087249
 40
0.8187919463087249
 40
0.825503355704698
 40
0.825503355704698
 40
0.825503355704698
 40
0.825503355704698
 40
0.8322147651006712
 40
0.8322147651006712
 40
0.8322147651006712
 40
0.8322147651006712
 40
0.8389261744966443
 40
0.8389261744966443
 40
0.8389261744966443
 40
0.8389261744966443
 40
0.8456375838926175
 40
0.8456375838926175
 40
0.8456375838926175
 40
0.8456375838926175
 40
0.8523489932885906
 40
0.8523489932885906
 40
0.8523489932885906
 40
0.8523489932885906
 40
0.8590604026845637
 40
0.8590604026845637
 40
0.8590604026845637
 40
0.8590604026845637
 40
0.8657718120805369
 40
0.8657718120805369
 40
0.8657718120805369
 40
0.8657718120805369
 40
0.87248322147651
 40
0.87248322147651
 40
0.87248322147651
 40
0.87248322147651
 40
0.8791946308724832
 40
0.8791946308724832
 40
0.8791946308724832
 40
0.8791946308724832
 40
0.8859060402684564
 40
0.8859060402684564
 40
0.8859060402684564
 40
0.8859060402684564
 40
0.8926174496644296
 40
0.8926174496644296
 40
0.8926174496644296
 40
0.8926174496644296
 40
0.8993288590604027
 40
0.8993288590604027
 40
0.8993288590604027
 40
0.8993288590604027
 40
0.9060402684563759
 40
0.9060402684563759
 40
0.9060402684563759
 40
0.9060402684563759
 40
0.912751677852349
 40
0.912751677852349
 40
0.912751677852349
 40
0.912751677852349
 40
0.9194630872483222
 40
0.9194630872483222
 40
0.9194630872483222
 40
0.9194630872483222
 40
0.9261744966442953
 40
0.9261744966442953
 40
0.9261744966442953
 40
0.9261744966442953
 40
0.9328859060402684
 40
0.9328859060402684
 40
0.9328859060402684
 40
0.9328859060402684
 40
0.9395973154362416
 40
0.9395973154362416
 40
0.9395973154362416
 40
0.9395973154362416
 40
0.9463087248322147
 40
0.9463087248322147
 40
0.9463087248322147
 40
0.9463087248322147
 40
0.9530201342281879
 40
0.9530201342281879
 40
0.9530201342281879
 40
0.9530201342281879
 40
0.959731543624161
 40
0.959731543624161
 40
0.959731543624161
 40
0.959731543624161
 40
0.9664429530201343
 40
0.9664429530201343
 40
0.9664429530201343
 40
0.9664429530201343
 40
0.9731543624161074
 40
0.9731543624161074
 40
0.9731543624161074
 40
0.9731543624161074
 40
0.9798657718120806
 40
0.9798657718120806
 40
0.9798657718120806
 40
0.9798657718120806
 40
0.9865771812080537
 40
0.9865771812080537
 40
0.9865771812080537
 40
0.9865771812080537
 40
1.0
 40
1.0
 40
1.0
 40
1.0
 10
3.31283
 20
3.23855
 30
0.0
 10
3.37136
 20
3.19079
 30
0.0
 10
3.42628
 20
3.13994
 30
0.0
 10
3.47727
 20
3.08628
 30
0.0
 10
3.47727
 20
3.08628
 30
0.0
 10
3.47727
 20
3.08628
 30
0.0
 10
3.49608
 20
3.08363
 30
0.0
 10
3.49608
 20
3.08363
 30
0.0
 10
3.49608
 20
3.08363
 30
0.0
 10
3.67449
 20
3.15634
 30
0.0
 10
3.87943
 20
3.10247
 30
0.0
 10
4.11587
 20
2.81905
 30
0.0
 10
4.11587
 20
2.81905
 30
0.0
 10
3.91706
 20
2.90642
 30
0.0
 10
3.80475
 20
2.86731
 30
0.0
 10
3.70505
 20
2.76293
 30
0.0
 10
3.70505
 20
2.76293
 30
0.0
 10
3.70505
 20
2.76293
 30
0.0
 10
3.70505
 20
2.76293
 30
0.0
 10
3.70505
 20
2.76293
 30
0.0
 10
3.70505
 20
2.76293
 30
0.0
 10
3.84356
 20
2.53883
 30
0.0
 10
3.89928
 20
2.34222
 30
0.0
 10
3.89928
 20
2.07208
 30
0.0
 10
3.89928
 20
2.07208
 30
0.0
 10
3.89928
 20
2.04975
 30
0.0
 10
3.89891
 20
2.02742
 30
0.0
 10
3.8982
 20
2.00506
 30
0.0
 10
3.8982
 20
2.00506
 30
0.0
 10
3.8982
 20
2.00506
 30
0.0
 10
3.87891
 20
1.99424
 30
0.0
 10
3.87891
 20
1.99424
 30
0.0
 10
3.87891
 20
1.99424
 30
0.0
 10
3.89375
 20
2.01154
 30
0.0
 10
3.90862
 20
2.02895
 30
0.0
 10
3.92357
 20
2.04639
 30
0.0
 10
3.92357
 20
2.04639
 30
0.0
 10
4.15238
 20
2.31076
 30
0.0
 10
4.29026
 20
2.80884
 30
0.0
 10
4.36267
 20
3.08805
 30
0.0
 10
4.36267
 20
3.08805
 30
0.0
 10
4.68729
 20
4.34075
 30
0.0
 10
7.36625
 20
3.26381
 30
0.0
 10
7.29478
 20
4.9278
 30
0.0
 10
7.29478
 20
4.9278
 30
0.0
 10
7.29478
 20
4.9278
 30
0.0
 10
7.29478
 20
4.9278
 30
0.0
 10
7.29478
 20
4.9278
 30
0.0
 10
7.29478
 20
4.9278
 30
0.0
 10
7.6825
 20
3.98591
 30
0.0
 10
6.43425
 20
3.34056
 30
0.0
 10
5.89558
 20
3.42507
 30
0.0
 10
5.89558
 20
3.42507
 30
0.0
 10
4.92234
 20
3.5744
 30
0.0
 10
5.48717
 20
2.26723
 30
0.0
 10
6.0283
 20
2.83042
 30
0.0
 10
6.0283
 20
2.83042
 30
0.0
 10
6.30873
 20
3.11948
 30
0.0
 10
6.59707
 20
3.46949
 30
0.0
 10
7.09505
 20
2.95006
 30
0.0
 10
7.09505
 20
2.95006
 30
0.0
 10
6.62957
 20
3.25438
 30
0.0
 10
6.58443
 20
2.98713
 30
0.0
 10
6.36102
 20
2.61116
 30
0.0
 10
6.36102
 20
2.61116
 30
0.0
 10
5.95467
 20
2.04114
 30
0.0
 10
5.29454
 20
2.28472
 30
0.0
 10
4.8476
 20
2.22749
 30
0.0
 10
4.8476
 20
2.22749
 30
0.0
 10
4.12256
 20
2.3596
 30
0.0
 10
4.7034
 20
0.57874
 30
0.0
 10
5.51893
 20
1.68568
 30
0.0
 10
5.51893
 20
1.68568
 30
0.0
 10
5.76573
 20
2.12777
 30
0.0
 10
6.44542
 20
2.48869
 30
0.0
 10
6.92048
 20
2.29536
 30
0.0
 10
6.92048
 20
2.29536
 30
0.0
 10
7.1077
 20
2.30772
 30
0.0
 10
7.22465
 20
2.9714
 30
0.0
 10
7.71111
 20
2.97126
 30
0.0
 10
7.71111
 20
2.97126
 30
0.0
 10
8.4453
 20
2.96978
 30
0.0
 10
8.97524
 20
3.45132
 30
0.0
 10
8.68859
 20
4.12328
 30
0.0
 10
8.68859
 20
4.12328
 30
0.0
 10
9.02519
 20
3.27455
 30
0.0
 10
8.5573
 20
2.47511
 30
0.0
 10
8.09788
 20
2.65815
 30
0.0
 10
8.09788
 20
2.65815
 30
0.0
 10
7.60626
 20
2.70816
 30
0.0
 10
7.44272
 20
2.14695
 30
0.0
 10
7.61943
 20
1.91676
 30
0.0
 10
7.61943
 20
1.91676
 30
0.0
 10
7.72479
 20
1.77994
 30
0.0
 10
8.01255
 20
1.78513
 30
0.0
 10
8.25747
 20
2.05133
 30
0.0
 10
8.25747
 20
2.05133
 30
0.0
 10
8.59759
 20
2.45188
 30
0.0
 10
8.98605
 20
2.80635
 30
0.0
 10
9.63304
 20
2.11427
 30
0.0
 10
9.63304
 20
2.11427
 30
0.0
 10
8.35172
 20
2.60325
 30
0.0
 10
8.60561
 20
0.32116
 30
0.0
 10
7.02893
 20
1.7316
 30
0.0
 10
7.02893
 20
1.7316
 30
0.0
 10
5.81613
 20
2.27548
 30
0.0
 10
6.34265
 20
0.67565
 30
0.0
 10
6.92185
 20
1.22093
 30
0.0
 10
6.92185
 20
1.22093
 30
0.0
 10
7.27298
 20
1.38857
 30
0.0
 10
7.48536
 20
1.28874
 30
0.0
 10
7.96195
 20
0.65403
 30
0.0
 10
7.96195
 20
0.65403
 30
0.0
 10
7.76592
 20
0.77778
 30
0.0
 10
7.15344
 20
0.931
 30
0.0
 10
6.92185
 20
0.75111
 30
0.0
 10
6.92185
 20
0.75111
 30
0.0
 10
6.46772
 20
0.39474
 30
0.0
 10
5.9466
 20
0.75042
 30
0.0
 10
5.73527
 20
1.08954
 30
0.0
 10
5.73527
 20
1.08954
 30
0.0
 10
5.61621
 20
0.85126
 30
0.0
 10
4.92049
 20
0.43671
 30
0.0
 10
4.36182
 20
0.99969
 30
0.0
 10
4.36182
 20
0.99969
 30
0.0
 10
4.15335
 20
1.20911
 30
0.0
 10
3.86948
 20
1.14796
 30
0.0
 10
3.61408
 20
0.97582
 30
0.0
 10
3.61408
 20
0.97582
 30
0.0
 10
3.61408
 20
0.97582
 30
0.0
 10
3.60948
 20
0.89192
 30
0.0
 10
3.60948
 20
0.89192
 30
0.0
 10
3.60948
 20
0.89192
 30
0.0
 10
3.64949
 20
0.8558
 30
0.0
 10
3.68301
 20
0.81334
 30
0.0
 10
3.70653
 20
0.76476
 30
0.0
 10
3.70653
 20
0.76476
 30
0.0
 10
3.7405
 20
0.69483
 30
0.0
 10
3.68767
 20
0.65435
 30
0.0
 10
3.62528
 20
0.6326
 30
0.0
 10
3.62528
 20
0.6326
 30
0.0
 10
3.62528
 20
0.6326
 30
0.0
 10
3.41401
 20
0.55103
 30
0.0
 10
3.41401
 20
0.55103
 30
0.0
 10
3.41401
 20
0.55103
 30
0.0
 10
3.41401
 20
0.55103
 30
0.0
 10
3.37416
 20
0.51804
 30
0.0
 10
3.37416
 20
0.51804
 30
0.0
 10
3.37416
 20
0.51804
 30
0.0
 10
3.26012
 20
0.33865
 30
0.0
 10
3.13011
 20
0.15924
 30
0.0
 10
2.98673
 20
-0.02015
 30
0.0
 10
2.98673
 20
-0.02015
 30
0.0
 10
2.98673
 20
-0.02015
 30
0.0
 10
3.03824
 20
-0.05537
 30
0.0
 10
3.03824
 20
-0.05537
 30
0.0
 10
3.03824
 20
-0.05537
 30
0.0
 10
3.16675
 20
-0.1898
 30
0.0
 10
3.82964
 20
0.10124
 30
0.0
 10
4.49509
 20
0.48292
 30
0.0
 10
4.49509
 20
0.48292
 30
0.0
 10
5.02497
 20
0.78716
 30
0.0
 10
5.44555
 20
-0.244
 30
0.0
 10
5.82502
 20
0.55497
 30
0.0
 10
5.82502
 20
0.55497
 30
0.0
 10
5.69204
 20
-0.12633
 30
0.0
 10
5.43812
 20
0.14151
 30
0.0
 10
5.03627
 20
0.25387
 30
0.0
 10
5.03627
 20
0.25387
 30
0.0
 10
4.17375
 20
0.50525
 30
0.0
 10
4.45265
 20
-1.133
 30
0.0
 10
5.29207
 20
-0.4532
 30
0.0
 10
5.29207
 20
-0.4532
 30
0.0
 10
5.76885
 20
-0.30747
 30
0.0
 10
5.9199
 20
-0.49328
 30
0.0
 10
6.19882
 20
-1.18014
 30
0.0
 10
6.19882
 20
-1.18014
 30
0.0
 10
5.12096
 20
-0.2527
 30
0.0
 10
5.00319
 20
-1.66311
 30
0.0
 10
3.95047
 20
-0.90582
 30
0.0
 10
3.95047
 20
-0.90582
 30
0.0
 10
3.62358
 20
-0.70916
 30
0.0
 10
3.03755
 20
-0.82295
 30
0.0
 10
2.45446
 20
-0.80967
 30
0.0
 10
2.45446
 20
-0.80967
 30
0.0
 10
2.45446
 20
-0.80967
 30
0.0
 10
2.4542
 20
-0.82824
 30
0.0
 10
2.4542
 20
-0.82824
 30
0.0
 10
2.4542
 20
-0.82824
 30
0.0
 10
2.62848
 20
-0.86877
 30
0.0
 10
2.8375
 20
-0.9014
 30
0.0
 10
2.90497
 20
-1.09626
 30
0.0
 10
2.90497
 20
-1.09626
 30
0.0
 10
2.99236
 20
-1.34925
 30
0.0
 10
2.81924
 20
-1.52883
 30
0.0
 10
2.69148
 20
-1.72875
 30
0.0
 10
2.69148
 20
-1.72875
 30
0.0
 10
2.59335
 20
-1.88295
 30
0.0
 10
2.50098
 20
-2.06916
 30
0.0
 10
2.62073
 20
-2.2391
 30
0.0
 10
2.62073
 20
-2.2391
 30
0.0
 10
2.78657
 20
-2.47386
 30
0.0
 10
3.12923
 20
-2.49646
 30
0.0
 10
3.37863
 20
-2.56904
 30
0.0
 10
3.37863
 20
-2.56904
 30
0.0
 10
3.37863
 20
-2.56904
 30
0.0
 10
3.37821
 20
-2.57063
 30
0.0
 10
3.37821
 20
-2.57063
 30
0.0
 10
3.37821
 20
-2.57063
 30
0.0
 10
3.11752
 20
-2.50763
 30
0.0
 10
2.76872
 20
-2.49906
 30
0.0
 10
2.58684
 20
-2.2648
 30
0.0
 10
2.58684
 20
-2.2648
 30
0.0
 10
2.44386
 20
-2.08057
 30
0.0
 10
2.52905
 20
-1.86909
 30
0.0
 10
2.63039
 20
-1.68833
 30
0.0
 10
2.63039
 20
-1.68833
 30
0.0
 10
2.72593
 20
-1.51757
 30
0.0
 10
2.88661
 20
-1.34585
 30
0.0
 10
2.80187
 20
-1.13818
 30
0.0
 10
2.80187
 20
-1.13818
 30
0.0
 10
2.74297
 20
-0.99422
 30
0.0
 10
2.5611
 20
-0.99044
 30
0.0
 10
2.43283
 20
-0.96975
 30
0.0
 10
2.43283
 20
-0.96975
 30
0.0
 10
2.34478
 20
-0.95552
 30
0.0
 10
2.25334
 20
-0.94551
 30
0.0
 10
2.17026
 20
-0.91747
 30
0.0
 10
2.17026
 20
-0.91747
 30
0.0
 10
2.17026
 20
-0.91747
 30
0.0
 10
2.12197
 20
-0.9647
 30
0.0
 10
2.12197
 20
-0.9647
 30
0.0
 10
2.12197
 20
-0.9647
 30
0.0
 10
1.88369
 20
-1.19902
 30
0.0
 10
1.63035
 20
-1.43336
 30
0.0
 10
1.36772
 20
-1.66767
 30
0.0
 10
1.36772
 20
-1.66767
 30
0.0
 10
1.36772
 20
-1.66767
 30
0.0
 10
1.35679
 20
-1.65979
 30
0.0
 10
1.35679
 20
-1.65979
 30
0.0
 10
1.35679
 20
-1.65979
 30
0.0
 10
1.51205
 20
-1.76933
 30
0.0
 10
1.6345
 20
-1.93996
 30
0.0
 10
1.54975
 20
-2.12916
 30
0.0
 10
1.54975
 20
-2.12916
 30
0.0
 10
1.44796
 20
-2.35617
 30
0.0
 10
1.04455
 20
-2.48939
 30
0.0
 10
0.89329
 20
-2.5585
 30
0.0
 10
0.89329
 20
-2.5585
 30
0.0
 10
0.50943
 20
-2.7345
 30
0.0
 10
0.0848
 20
-2.81134
 30
0.0
 10
-0.18952
 20
-3.15678
 30
0.0
 10
-0.18952
 20
-3.15678
 30
0.0
 10
-0.27495
 20
-3.26444
 30
0.0
 10
-0.25617
 20
-3.44282
 30
0.0
 10
-0.15166
 20
-3.53053
 30
0.0
 10
-0.15166
 20
-3.53053
 30
0.0
 10
-0.0639
 20
-3.60416
 30
0.0
 10
0.06247
 20
-3.60509
 30
0.0
 10
0.16907
 20
-3.62266
 30
0.0
 10
0.16907
 20
-3.62266
 30
0.0
 10
0.31568
 20
-3.64676
 30
0.0
 10
0.48993
 20
-3.65581
 30
0.0
 10
0.58547
 20
-3.78884
 30
0.0
 10
0.58547
 20
-3.78884
 30
0.0
 10
0.70993
 20
-3.96161
 30
0.0
 10
0.66609
 20
-4.18381
 30
0.0
 10
0.55737
 20
-4.35164
 30
0.0
 10
0.55737
 20
-4.35164
 30
0.0
 10
0.49038
 20
-4.45515
 30
0.0
 10
0.36351
 20
-4.53029
 30
0.0
 10
0.31596
 20
-4.64617
 30
0.0
 10
0.31596
 20
-4.64617
 30
0.0
 10
0.30794
 20
-4.66551
 30
0.0
 10
0.30659
 20
-4.69745
 30
0.0
 10
0.31554
 20
-4.71687
 30
0.0
 10
0.31554
 20
-4.71687
 30
0.0
 10
0.31554
 20
-4.71687
 30
0.0
 10
0.50636
 20
-5.07975
 30
0.0
 10
0.50636
 20
-5.07975
 30
0.0
 10
0.50636
 20
-5.07975
 30
0.0
 10
0.50636
 20
-5.07975
 30
0.0
 10
0.50498
 20
-5.08046
 30
0.0
 10
0.50498
 20
-5.08046
 30
0.0
 10
0.50498
 20
-5.08046
 30
0.0
 10
0.50498
 20
-5.08046
 30
0.0
 10
0.29419
 20
-4.72385
 30
0.0
 10
0.29419
 20
-4.72385
 30
0.0
 10
0.29419
 20
-4.72385
 30
0.0
 10
0.24188
 20
-4.62447
 30
0.0
 10
0.37341
 20
-4.51994
 30
0.0
 10
0.41995
 20
-4.45644
 30
0.0
 10
0.41995
 20
-4.45644
 30
0.0
 10
0.51351
 20
-4.32801
 30
0.0
 10
0.61013
 20
-4.19887
 30
0.0
 10
0.5959
 20
-4.03086
 30
0.0
 10
0.5959
 20
-4.03086
 30
0.0
 10
0.58579
 20
-3.91209
 30
0.0
 10
0.52092
 20
-3.78956
 30
0.0
 10
0.39709
 20
-3.75966
 30
0.0
 10
0.39709
 20
-3.75966
 30
0.0
 10
0.14703
 20
-3.69912
 30
0.0
 10
-0.17356
 20
-3.77786
 30
0.0
 10
-0.33321
 20
-3.52484
 30
0.0
 10
-0.33321
 20
-3.52484
 30
0.0
 10
-0.37644
 20
-3.45645
 30
0.0
 10
-0.39962
 20
-3.38284
 30
0.0
 10
-0.39989
 20
-3.29979
 30
0.0
 10
-0.39989
 20
-3.29979
 30
0.0
 10
-0.39989
 20
-3.29979
 30
0.0
 10
-0.39902
 20
-3.29714
 30
0.0
 10
-0.39902
 20
-3.29714
 30
0.0
 10
-0.39902
 20
-3.29714
 30
0.0
 10
-0.39902
 20
-3.29714
 30
0.0
 10
-0.46667
 20
-3.27841
 30
0.0
 10
-0.46667
 20
-3.27841
 30
0.0
 10
-0.46667
 20
-3.27841
 30
0.0
 10
-0.54554
 20
-3.25616
 30
0.0
 10
-0.61915
 20
-3.20208
 30
0.0
 10
-0.67717
 20
-3.14024
 30
0.0
 10
-0.67717
 20
-3.14024
 30
0.0
 10
-0.73167
 20
-3.08232
 30
0.0
 10
-0.72088
 20
-2.99252
 30
0.0
 10
-0.71003
 20
-2.92199
 30
0.0
 10
-0.71003
 20
-2.92199
 30
0.0
 10
-0.71003
 20
-2.92199
 30
0.0
 10
-0.64161
 20
-2.56353
 30
0.0
 10
-0.64161
 20
-2.56353
 30
0.0
 10
-0.64161
 20
-2.56353
 30
0.0
 10
-0.6374
 20
-2.45944
 30
0.0
 10
-0.65172
 20
-2.35409
 30
0.0
 10
-0.68675
 20
-2.25595
 30
0.0
 10
-0.68675
 20
-2.25595
 30
0.0
 10
-0.72834
 20
-2.13937
 30
0.0
 10
-0.82386
 20
-2.03378
 30
0.0
 10
-0.93755
 20
-1.98433
 30
0.0
 10
-0.93755
 20
-1.98433
 30
0.0
 10
-1.0486
 20
-1.93615
 30
0.0
 10
-1.17308
 20
-1.97398
 30
0.0
 10
-1.27944
 20
-2.01283
 30
0.0
 10
-1.27944
 20
-2.01283
 30
0.0
 10
-1.47171
 20
-2.08292
 30
0.0
 10
-1.6466
 20
-2.20177
 30
0.0
 10
-1.85639
 20
-2.21563
 30
0.0
 10
-1.85639
 20
-2.21563
 30
0.0
 10
-1.95712
 20
-2.22232
 30
0.0
 10
-2.05091
 20
-2.19446
 30
0.0
 10
-2.13762
 20
-2.14435
 30
0.0
 10
-2.13762
 20
-2.14435
 30
0.0
 10
-2.29841
 20
-2.05127
 30
0.0
 10
-2.39855
 20
-1.88606
 30
0.0
 10
-2.41924
 20
-1.70345
 30
0.0
 10
-2.41924
 20
-1.70345
 30
0.0
 10
-2.42604
 20
-1.64373
 30
0.0
 10
-2.4331
 20
-1.58145
 30
0.0
 10
-2.41755
 20
-1.52337
 30
0.0
 10
-2.41755
 20
-1.52337
 30
0.0
 10
-2.35371
 20
-1.28577
 30
0.0
 10
-2.27772
 20
-1.05096
 30
0.0
 10
-2.1658
 20
-0.83254
 30
0.0
 10
-2.1658
 20
-0.83254
 30
0.0
 10
-2.1658
 20
-0.83254
 30
0.0
 10
-2.14678
 20
-0.84177
 30
0.0
 10
-2.14678
 20
-0.84177
 30
0.0
 10
-2.14678
 20
-0.84177
 30
0.0
 10
-2.82216
 20
-0.92641
 30
0.0
 10
-3.56585
 20
-0.72781
 30
0.0
 10
-3.95066
 20
-0.95914
 30
0.0
 10
-3.95066
 20
-0.95914
 30
0.0
 10
-5.00338
 20
-1.71651
 30
0.0
 10
-5.12118
 20
-0.30615
 30
0.0
 10
-6.19901
 20
-1.23346
 30
0.0
 10
-6.19901
 20
-1.23346
 30
0.0
 10
-5.92011
 20
-0.54673
 30
0.0
 10
-5.76904
 20
-0.36097
 30
0.0
 10
-5.29234
 20
-0.50657
 30
0.0
 10
-5.29234
 20
-0.50657
 30
0.0
 10
-4.45287
 20
-1.18642
 30
0.0
 10
-4.17395
 20
0.45175
 30
0.0
 10
-5.03649
 20
0.20042
 30
0.0
 10
-5.03649
 20
0.20042
 30
0.0
 10
-5.43839
 20
0.08795
 30
0.0
 10
-5.69221
 20
-0.17989
 30
0.0
 10
-5.82521
 20
0.50141
 30
0.0
 10
-5.82521
 20
0.50141
 30
0.0
 10
-5.4458
 20
-0.29742
 30
0.0
 10
-5.02516
 20
0.73377
 30
0.0
 10
-4.49531
 20
0.42952
 30
0.0
 10
-4.49531
 20
0.42952
 30
0.0
 10
-3.82988
 20
0.04786
 30
0.0
 10
-3.16705
 20
-0.24326
 30
0.0
 10
-3.03851
 20
-0.1088
 30
0.0
 10
-3.03851
 20
-0.1088
 30
0.0
 10
-2.98639
 20
-0.0539
 30
0.0
 10
-2.97967
 20
0.03495
 30
0.0
 10
-3.00687
 20
0.14001
 30
0.0
 10
-3.00687
 20
0.14001
 30
0.0
 10
-3.00687
 20
0.14001
 30
0.0
 10
-2.99274
 20
0.13834
 30
0.0
 10
-2.99274
 20
0.13834
 30
0.0
 10
-2.99274
 20
0.13834
 30
0.0
 10
-3.20475
 20
0.41679
 30
0.0
 10
-3.33723
 20
0.60755
 30
0.0
 10
-3.42658
 20
0.77196
 30
0.0
 10
-3.42658
 20
0.77196
 30
0.0
 10
-3.72032
 20
1.04586
 30
0.0
 10
-4.10055
 20
1.20895
 30
0.0
 10
-4.36201
 20
0.94614
 30
0.0
 10
-4.36201
 20
0.94614
 30
0.0
 10
-4.92073
 20
0.38321
 30
0.0
 10
-5.6164
 20
0.79781
 30
0.0
 10
-5.73554
 20
1.03615
 30
0.0
 10
-5.73554
 20
1.03615
 30
0.0
 10
-5.94686
 20
0.69709
 30
0.0
 10
-6.46799
 20
0.34133
 30
0.0
 10
-6.92209
 20
0.69767
 30
0.0
 10
-6.92209
 20
0.69767
 30
0.0
 10
-7.15365
 20
0.87767
 30
0.0
 10
-7.76608
 20
0.72434
 30
0.0
 10
-7.96217
 20
0.60059
 30
0.0
 10
-7.96217
 20
0.60059
 30
0.0
 10
-7.48558
 20
1.23535
 30
0.0
 10
-7.27319
 20
1.33507
 30
0.0
 10
-6.92209
 20
1.16754
 30
0.0
 10
-6.92209
 20
1.16754
 30
0.0
 10
-6.34286
 20
0.62221
 30
0.0
 10
-5.81637
 20
2.22201
 30
0.0
 10
-7.0289
 20
1.67808
 30
0.0
 10
-7.0289
 20
1.67808
 30
0.0
 10
-8.60569
 20
0.26768
 30
0.0
 10
-8.3518
 20
2.55011
 30
0.0
 10
-9.63304
 20
2.06105
 30
0.0
 10
-9.63304
 20
2.06105
 30
0.0
 10
-8.98616
 20
2.75301
 30
0.0
 10
-8.59754
 20
2.39866
 30
0.0
 10
-8.2575
 20
1.99818
 30
0.0
 10
-8.2575
 20
1.99818
 30
0.0
 10
-8.01263
 20
1.73169
 30
0.0
 10
-7.72484
 20
1.72656
 30
0.0
 10
-7.61948
 20
1.86324
 30
0.0
 10
-7.61948
 20
1.86324
 30
0.0
 10
-7.44276
 20
2.09361
 30
0.0
 10
-7.60628
 20
2.65469
 30
0.0
 10
-8.09793
 20
2.60492
 30
0.0
 10
-8.09793
 20
2.60492
 30
0.0
 10
-8.55733
 20
2.42164
 30
0.0
 10
-9.02524
 20
3.22108
 30
0.0
 10
-8.68861
 20
4.06987
 30
0.0
 10
-8.68861
 20
4.06987
 30
0.0
 10
-8.97521
 20
3.39783
 30
0.0
 10
-8.4453
 20
2.91645
 30
0.0
 10
-7.71108
 20
2.91795
 30
0.0
 10
-7.71108
 20
2.91795
 30
0.0
 10
-7.2247
 20
2.91795
 30
0.0
 10
-7.10772
 20
2.25422
 30
0.0
 10
-6.9205
 20
2.24191
 30
0.0
 10
-6.9205
 20
2.24191
 30
0.0
 10
-6.44544
 20
2.43519
 30
0.0
 10
-5.76575
 20
2.07432
 30
0.0
 10
-5.51892
 20
1.63218
 30
0.0
 10
-5.51892
 20
1.63218
 30
0.0
 10
-4.70342
 20
0.52516
 30
0.0
 10
-4.12258
 20
2.30621
 30
0.0
 10
-4.84762
 20
2.17399
 30
0.0
 10
-4.84762
 20
2.17399
 30
0.0
 10
-5.29455
 20
2.23133
 30
0.0
 10
-5.95469
 20
1.98793
 30
0.0
 10
-6.36101
 20
2.55772
 30
0.0
 10
-6.36101
 20
2.55772
 30
0.0
 10
-6.5845
 20
2.93369
 30
0.0
 10
-6.62959
 20
3.20084
 30
0.0
 10
-7.09507
 20
2.89655
 30
0.0
 10
-7.09507
 20
2.89655
 30
0.0
 10
-6.5971
 20
3.41603
 30
0.0
 10
-6.3087
 20
3.0662
 30
0.0
 10
-6.0283
 20
2.77701
 30
0.0
 10
-6.0283
 20
2.77701
 30
0.0
 10
-5.48723
 20
2.21382
 30
0.0
 10
-4.92234
 20
3.52097
 30
0.0
 10
-5.89561
 20
3.37166
 30
0.0
 10
-5.89561
 20
3.37166
 30
0.0
 10
-6.43422
 20
3.2871
 30
0.0
 10
-7.68253
 20
3.93268
 30
0.0
 10
-7.29486
 20
4.87433
 30
0.0
 10
-7.29486
 20
4.87433
 30
0.0
 10
-7.29486
 20
4.87433
 30
0.0
 10
-7.29486
 20
4.87433
 30
0.0
 10
-7.29486
 20
4.87433
 30
0.0
 10
-7.29486
 20
4.87433
 30
0.0
 10
-7.36624
 20
3.21023
 30
0.0
 10
-4.68729
 20
4.28727
 30
0.0
 10
-4.36264
 20
3.03452
 30
0.0
 10
-4.36264
 20
3.03452
 30
0.0
 10
-4.29025
 20
2.75528
 30
0.0
 10
-4.15243
 20
2.25731
 30
0.0
 10
-3.92364
 20
1.99309
 30
0.0
 10
-3.92364
 20
1.99309
 30
0.0
 10
-3.87445
 20
1.93568
 30
0.0
 10
-3.82598
 20
1.87898
 30
0.0
 10
-3.77833
 20
1.82336
 30
0.0
 10
-3.77833
 20
1.82336
 30
0.0
 10
-3.77833
 20
1.82336
 30
0.0
 10
-3.76886
 20
1.83164
 30
0.0
 10
-3.76886
 20
1.83164
 30
0.0
 10
-3.76886
 20
1.83164
 30
0.0
 10
-3.77801
 20
1.91178
 30
0.0
 10
-3.7827
 20
1.99192
 30
0.0
 10
-3.7827
 20
2.07204
 30
0.0
 10
-3.7827
 20
2.07204
 30
0.0
 10
-3.7827
 20
2.28638
 30
0.0
 10
-3.73341
 20
2.49106
 30
0.0
 10
-3.64385
 20
2.67841
 30
0.0
 10
-3.64385
 20
2.67841
 30
0.0
 10
-3.64385
 20
2.67841
 30
0.0
 10
-3.66282
 20
2.68746
 30
0.0
 10
-3.66282
 20
2.68746
 30
0.0
 10
-3.66282
 20
2.68746
 30
0.0
 10
-3.76476
 20
2.80983
 30
0.0
 10
-3.90245
 20
2.85936
 30
0.0
 10
-4.11587
 20
2.76559
 30
0.0
 10
-4.11587
 20
2.76559
 30
0.0
 10
-3.87946
 20
3.04899
 30
0.0
 10
-3.67452
 20
3.10285
 30
0.0
 10
-3.49608
 20
3.03012
 30
0.0
 10
-3.49608
 20
3.03012
 30
0.0
 10
-3.49608
 20
3.03012
 30
0.0
 10
-3.41829
 20
3.02247
 30
0.0
 10
-3.41829
 20
3.02247
 30
0.0
 10
-3.41829
 20
3.02247
 30
0.0
 10
-3.38194
 20
3.06486
 30
0.0
 10
-3.34323
 20
3.10568
 30
0.0
 10
-3.3023
 20
3.14484
 30
0.0
 10
-3.3023
 20
3.14484
 30
0.0
 10
-3.3023
 20
3.14484
 30
0.0
 10
-3.29875
 20
3.15029
 30
0.0
 10
-3.29875
 20
3.15029
 30
0.0
 10
-3.29875
 20
3.15029
 30
0.0
 10
-3.79302
 20
3.4635
 30
0.0
 10
-4.04178
 20
4.40383
 30
0.0
 10
-3.21943
 20
5.02685
 30
0.0
 10
-3.21943
 20
5.02685
 30
0.0
 10
-3.41266
 20
4.38182
 30
0.0
 10
-3.28812
 20
4.13211
 30
0.0
 10
-3.05131
 20
3.95455
 30
0.0
 10
-3.05131
 20
3.95455
 30
0.0
 10
-3.05131
 20
3.95455
 30
0.0
 10
-3.04081
 20
3.96143
 30
0.0
 10
-3.04081
 20
3.96143
 30
0.0
 10
-3.04081
 20
3.96143
 30
0.0
 10
-2.97212
 20
4.05597
 30
0.0
 10
-2.89529
 20
4.14373
 30
0.0
 10
-2.81597
 20
4.22088
 30
0.0
 10
-2.81597
 20
4.22088
 30
0.0
 10
-2.66831
 20
4.36426
 30
0.0
 10
-2.52279
 20
4.44726
 30
0.0
 10
-2.32051
 20
4.389
 30
0.0
 10
-2.32051
 20
4.389
 30
0.0
 10
-2.19205
 20
4.35209
 30
0.0
 10
-2.07236
 20
4.25703
 30
0.0
 10
-2.00079
 20
4.14474
 30
0.0
 10
-2.00079
 20
4.14474
 30
0.0
 10
-1.90879
 20
4.0003
 30
0.0
 10
-1.82693
 20
3.84399
 30
0.0
 10
-1.74388
 20
3.68696
 30
0.0
 10
-1.74388
 20
3.68696
 30
0.0
 10
-1.74388
 20
3.68696
 30
0.0
 10
-1.73531
 20
3.69159
 30
0.0
 10
-1.73531
 20
3.69159
 30
0.0
 10
-1.73531
 20
3.69159
 30
0.0
 10
-0.85872
 20
3.65669
 30
0.0
 10
-0.40022
 20
3.25193
 30
0.0
 10
0.05833
 20
2.4775
 30
0.0
 10
0.05833
 20
2.4775
 30
0.0
 10
0.05833
 20
2.4775
 30
0.0
 10
0.05833
 20
2.4775
 30
0.0
 10
0.05833
 20
2.4775
 30
0.0
 10
0.05833
 20
2.4775
 30
0.0
 10
0.53839
 20
3.28845
 30
0.0
 10
1.01853
 20
3.69405
 30
0.0
 10
1.97881
 20
3.69405
 30
0.0
 10
1.97881
 20
3.69405
 30
0.0
 10
2.05551
 20
3.69405
 30
0.0
 10
2.13121
 20
3.69024
 30
0.0
 10
2.20558
 20
3.68283
 30
0.0
 10
2.20558
 20
3.68283
 30
0.0
 10
2.20558
 20
3.68283
 30
0.0
 10
2.42688
 20
3.6496
 30
0.0
 10
2.42688
 20
3.6496
 30
0.0
 10
2.42688
 20
3.6496
 30
0.0
 10
2.42688
 20
3.6496
 30
0.0
 10
3.31283
 20
3.23855
 30
0.0
 10
3.31283
 20
3.23855
 30
0.0
  0
SPLINE
  5
42
330
1F
100
AcDbEntity
  8
Camada 1
100
AcDbSpline
210
0.0
220
0.0
230
1.0
 70
    11
 71
     3
 72
    16
 73
    12
 74
     0
 42
0.0000000001
 43
0.0000000001
 12
1.0
 22
0.0
 32
0.0
 13
1.0
 23
0.0
 33
0.0
 40
0.0
 40
0.0
 40
0.0
 40
0.0
 40
0.25
 40
0.25
 40
0.25
 40
0.25
 40
0.5
 40
0.5
 40
0.5
 40
0.5
 40
1.0
 40
1.0
 40
1.0
 40
1.0
 10
2.4269
 20
3.64969
 30
0.0
 10
2.91675
 20
4.01804
 30
0.0
 10
3.53948
 20
4.01164
 30
0.0
 10
3.21936
 20
5.0804
 30
0.0
 10
3.21936
 20
5.0804
 30
0.0
 10
4.01756
 20
4.47567
 30
0.0
 10
3.80666
 20
3.57198
 30
0.0
 10
3.3416
 20
3.23305
 30
0.0
 10
3.3416
 20
3.23305
 30
0.0
 10
3.3416
 20
3.23305
 30
0.0
 10
2.4269
 20
3.64969
 30
0.0
 10
2.4269
 20
3.64969
 30
0.0
  0
SPLINE
  5
43
330
1F
100
AcDbEntity
  8
Camada 1
100
AcDbSpline
210
0.0
220
0.0
230
1.0
 70
    11
 71
     3
 72
    40
 73
    36
 74
     0
 42
0.0000000001
 43
0.0000000001
 12
1.0
 22
0.0
 32
0.0
 13
1.0
 23
0.0
 33
0.0
 40
0.0
 40
0.0
 40
0.0
 40
0.0
 40
0.1
 40
0.1
 40
0.1
 40
0.1
 40
0.2
 40
0.2
 40
0.2
 40
0.2
 40
0.3
 40
0.3
 40
0.3
 40
0.3
 40
0.4
 40
0.4
 40
0.4
 40
0.4
 40
0.5
 40
0.5
 40
0.5
 40
0.5
 40
0.6
 40
0.6
 40
0.6
 40
0.6
 40
0.7
 40
0.7
 40
0.7
 40
0.7
 40
0.8
 40
0.8
 40
0.8
 40
0.8
 40
1.0
 40
1.0
 40
1.0
 40
1.0
 10
-1.07184
 20
-1.82634
 30
0.0
 10
-1.36166
 20
-1.57155
 30
0.0
 10
-1.64204
 20
-1.31675
 30
0.0
 10
-1.90554
 20
-1.06196
 30
0.0
 10
-1.90554
 20
-1.06196
 30
0.0
 10
-1.90554
 20
-1.06196
 30
0.0
 10
-1.94197
 20
-1.07641
 30
0.0
 10
-1.94197
 20
-1.07641
 30
0.0
 10
-1.94197
 20
-1.07641
 30
0.0
 10
-1.94197
 20
-1.07641
 30
0.0
 10
-2.07805
 20
-1.25209
 30
0.0
 10
-2.07805
 20
-1.25209
 30
0.0
 10
-2.07805
 20
-1.25209
 30
0.0
 10
-2.14335
 20
-1.36591
 30
0.0
 10
-2.17724
 20
-1.49561
 30
0.0
 10
-2.20121
 20
-1.62465
 30
0.0
 10
-2.20121
 20
-1.62465
 30
0.0
 10
-2.23172
 20
-1.78732
 30
0.0
 10
-2.12763
 20
-1.95924
 30
0.0
 10
-1.98049
 20
-2.0251
 30
0.0
 10
-1.98049
 20
-2.0251
 30
0.0
 10
-1.81891
 20
-2.09736
 30
0.0
 10
-1.63836
 20
-2.00359
 30
0.0
 10
-1.48688
 20
-1.95287
 30
0.0
 10
-1.48688
 20
-1.95287
 30
0.0
 10
-1.48688
 20
-1.95287
 30
0.0
 10
-1.1521
 20
-1.85362
 30
0.0
 10
-1.1521
 20
-1.85362
 30
0.0
 10
-1.1521
 20
-1.85362
 30
0.0
 10
-1.12519
 20
-1.84888
 30
0.0
 10
-1.09863
 20
-1.84695
 30
0.0
 10
-1.07259
 20
-1.84756
 30
0.0
 10
-1.07259
 20
-1.84756
 30
0.0
 10
-1.07259
 20
-1.84756
 30
0.0
 10
-1.07184
 20
-1.82634
 30
0.0
 10
-1.07184
 20
-1.82634
 30
0.0
  0
SPLINE
  5
44
330
1F
100
AcDbEntity
  8
Camada 1
100
AcDbSpline
210
0.0
220
0.0
230
1.0
 70
    11
 71
     3
 72
    48
 73
    44
 74
     0
 42
0.0000000001
 43
0.0000000001
 12
1.0
 22
0.0
 32
0.0
 13
1.0
 23
0.0
 33
0.0
 40
0.0
 40
0.0
 40
0.0
 40
0.0
 40
0.0833333333333333
 40
0.0833333333333333
 40
0.0833333333333333
 40
0.0833333333333333
 40
0.1666666666666667
 40
0.1666666666666667
 40
0.1666666666666667
 40
0.1666666666666667
 40
0.25
 40
0.25
 40
0.25
 40
0.25
 40
0.3333333333333333
 40
0.3333333333333333
 40
0.3333333333333333
 40
0.3333333333333333
 40
0.4166666666666667
 40
0.4166666666666667
 40
0.4166666666666667
 40
0.4166666666666667
 40
0.5
 40
0.5
 40
0.5
 40
0.5
 40
0.5833333333333334
 40
0.5833333333333334
 40
0.5833333333333334
 40
0.5833333333333334
 40
0.6666666666666666
 40
0.6666666666666666
 40
0.6666666666666666
 40
0.6666666666666666
 40
0.75
 40
0.75
 40
0.75
 40
0.75
 40
0.8333333333333334
 40
0.8333333333333334
 40
0.8333333333333334
 40
0.8333333333333334
 40
1.0
 40
1.0
 40
1.0
 40
1.0
 10
-0.39713
 20
-3.24392
 30
0.0
 10
-0.39213
 20
-3.17814
 30
0.0
 10
-0.37363
 20
-3.12451
 30
0.0
 10
-0.33829
 20
-3.06932
 30
0.0
 10
-0.33829
 20
-3.06932
 30
0.0
 10
-0.25971
 20
-2.94682
 30
0.0
 10
-0.1562
 20
-2.83844
 30
0.0
 10
-0.03936
 20
-2.74116
 30
0.0
 10
-0.03936
 20
-2.74116
 30
0.0
 10
-0.03936
 20
-2.74116
 30
0.0
 10
-0.0406
 20
-2.70994
 30
0.0
 10
-0.0406
 20
-2.70994
 30
0.0
 10
-0.0406
 20
-2.70994
 30
0.0
 10
-0.21538
 20
-2.56228
 30
0.0
 10
-0.38993
 20
-2.41461
 30
0.0
 10
-0.56276
 20
-2.26695
 30
0.0
 10
-0.56276
 20
-2.26695
 30
0.0
 10
-0.56276
 20
-2.26695
 30
0.0
 10
-0.61303
 20
-2.2175
 30
0.0
 10
-0.61303
 20
-2.2175
 30
0.0
 10
-0.61303
 20
-2.2175
 30
0.0
 10
-0.59805
 20
-2.257
 30
0.0
 10
-0.58768
 20
-2.29804
 30
0.0
 10
-0.58472
 20
-2.33979
 30
0.0
 10
-0.58472
 20
-2.33979
 30
0.0
 10
-0.57398
 20
-2.49161
 30
0.0
 10
-0.59858
 20
-2.64171
 30
0.0
 10
-0.62811
 20
-2.79093
 30
0.0
 10
-0.62811
 20
-2.79093
 30
0.0
 10
-0.64592
 20
-2.88094
 30
0.0
 10
-0.72423
 20
-3.00495
 30
0.0
 10
-0.66901
 20
-3.09385
 30
0.0
 10
-0.66901
 20
-3.09385
 30
0.0
 10
-0.63197
 20
-3.15351
 30
0.0
 10
-0.51973
 20
-3.20961
 30
0.0
 10
-0.45636
 20
-3.23757
 30
0.0
 10
-0.45636
 20
-3.23757
 30
0.0
 10
-0.45636
 20
-3.23757
 30
0.0
 10
-0.40331
 20
-3.25278
 30
0.0
 10
-0.40331
 20
-3.25278
 30
0.0
 10
-0.40331
 20
-3.25278
 30
0.0
 10
-0.40331
 20
-3.25278
 30
0.0
 10
-0.39713
 20
-3.24392
 30
0.0
 10
-0.39713
 20
-3.24392
 30
0.0
  0
SPLINE
  5
45
330
1F
100
AcDbEntity
  8
Camada 1
100
AcDbSpline
210
0.0
220
0.0
230
1.0
 70
    11
 71
     3
 72
    36
 73
    32
 74
     0
 42
0.0000000001
 43
0.0000000001
 12
1.0
 22
0.0
 32
0.0
 13
1.0
 23
0.0
 33
0.0
 40
0.0
 40
0.0
 40
0.0
 40
0.0
 40
0.1111111111111111
 40
0.1111111111111111
 40
0.1111111111111111
 40
0.1111111111111111
 40
0.2222222222222222
 40
0.2222222222222222
 40
0.2222222222222222
 40
0.2222222222222222
 40
0.3333333333333333
 40
0.3333333333333333
 40
0.3333333333333333
 40
0.3333333333333333
 40
0.4444444444444444
 40
0.4444444444444444
 40
0.4444444444444444
 40
0.4444444444444444
 40
0.5555555555555556
 40
0.5555555555555556
 40
0.5555555555555556
 40
0.5555555555555556
 40
0.6666666666666666
 40
0.6666666666666666
 40
0.6666666666666666
 40
0.6666666666666666
 40
0.7777777777777778
 40
0.7777777777777778
 40
0.7777777777777778
 40
0.7777777777777778
 40
1.0
 40
1.0
 40
1.0
 40
1.0
 10
1.20691
 20
-1.81015
 30
0.0
 10
1.01538
 20
-1.9788
 30
0.0
 10
0.81964
 20
-2.14744
 30
0.0
 10
0.62189
 20
-2.31609
 30
0.0
 10
0.62189
 20
-2.31609
 30
0.0
 10
0.62189
 20
-2.31609
 30
0.0
 10
0.62522
 20
-2.32056
 30
0.0
 10
0.62522
 20
-2.32056
 30
0.0
 10
0.62522
 20
-2.32056
 30
0.0
 10
0.62522
 20
-2.32056
 30
0.0
 10
0.62522
 20
-2.32056
 30
0.0
 10
0.62522
 20
-2.32056
 30
0.0
 10
0.62522
 20
-2.32056
 30
0.0
 10
0.67023
 20
-2.29669
 30
0.0
 10
0.7142
 20
-2.27354
 30
0.0
 10
0.75714
 20
-2.25092
 30
0.0
 10
0.75714
 20
-2.25092
 30
0.0
 10
0.75714
 20
-2.25092
 30
0.0
 10
1.26398
 20
-2.03788
 30
0.0
 10
1.26398
 20
-2.03788
 30
0.0
 10
1.26398
 20
-2.03788
 30
0.0
 10
1.30748
 20
-2.01814
 30
0.0
 10
1.32946
 20
-1.98782
 30
0.0
 10
1.30454
 20
-1.94168
 30
0.0
 10
1.30454
 20
-1.94168
 30
0.0
 10
1.27856
 20
-1.89379
 30
0.0
 10
1.24218
 20
-1.85302
 30
0.0
 10
1.19942
 20
-1.81928
 30
0.0
 10
1.19942
 20
-1.81928
 30
0.0
 10
1.19942
 20
-1.81928
 30
0.0
 10
1.20691
 20
-1.81015
 30
0.0
 10
1.20691
 20
-1.81015
 30
0.0
  0
SPLINE
  5
46
330
1F
100
AcDbEntity
  8
Camada 1
100
AcDbSpline
210
0.0
220
0.0
230
1.0
 70
    11
 71
     3
 72
    40
 73
    36
 74
     0
 42
0.0000000001
 43
0.0000000001
 12
1.0
 22
0.0
 32
0.0
 13
1.0
 23
0.0
 33
0.0
 40
0.0
 40
0.0
 40
0.0
 40
0.0
 40
0.1
 40
0.1
 40
0.1
 40
0.1
 40
0.2
 40
0.2
 40
0.2
 40
0.2
 40
0.3
 40
0.3
 40
0.3
 40
0.3
 40
0.4
 40
0.4
 40
0.4
 40
0.4
 40
0.5
 40
0.5
 40
0.5
 40
0.5
 40
0.6
 40
0.6
 40
0.6
 40
0.6
 40
0.7
 40
0.7
 40
0.7
 40
0.7
 40
0.8
 40
0.8
 40
0.8
 40
0.8
 40
1.0
 40
1.0
 40
1.0
 40
1.0
 10
-3.01235
 20
3.92668
 30
0.0
 10
-2.86254
 20
3.82362
 30
0.0
 10
-2.67591
 20
3.74055
 30
0.0
 10
-2.49752
 20
3.60643
 30
0.0
 10
-2.49752
 20
3.60643
 30
0.0
 10
-2.49752
 20
3.60643
 30
0.0
 10
-2.49479
 20
3.604
 30
0.0
 10
-2.49479
 20
3.604
 30
0.0
 10
-2.49479
 20
3.604
 30
0.0
 10
-2.32014
 20
3.65549
 30
0.0
 10
-2.13403
 20
3.68626
 30
0.0
 10
-1.94057
 20
3.69285
 30
0.0
 10
-1.94057
 20
3.69285
 30
0.0
 10
-1.94057
 20
3.69285
 30
0.0
 10
-1.91043
 20
3.66586
 30
0.0
 10
-1.91043
 20
3.66586
 30
0.0
 10
-1.91043
 20
3.66586
 30
0.0
 10
-1.91043
 20
3.66586
 30
0.0
 10
-2.07302
 20
3.99598
 30
0.0
 10
-2.07302
 20
3.99598
 30
0.0
 10
-2.07302
 20
3.99598
 30
0.0
 10
-2.14261
 20
4.14584
 30
0.0
 10
-2.25196
 20
4.2898
 30
0.0
 10
-2.42796
 20
4.31517
 30
0.0
 10
-2.42796
 20
4.31517
 30
0.0
 10
-2.57068
 20
4.33591
 30
0.0
 10
-2.66339
 20
4.27315
 30
0.0
 10
-2.7747
 20
4.17761
 30
0.0
 10
-2.7747
 20
4.17761
 30
0.0
 10
-2.85656
 20
4.10744
 30
0.0
 10
-2.93663
 20
4.02854
 30
0.0
 10
-3.00954
 20
3.94298
 30
0.0
 10
-3.00954
 20
3.94298
 30
0.0
 10
-3.00954
 20
3.94298
 30
0.0
 10
-3.01235
 20
3.92668
 30
0.0
 10
-3.01235
 20
3.92668
 30
0.0
  0
ENDSEC
  0
SECTION
  2
OBJECTS
  0
DICTIONARY
  5
C
330
0
100
AcDbDictionary
281
     1
  3
ACAD_GROUP
350
D
  3
ACAD_LAYOUT
350
1A
  3
ACAD_MATERIAL
350
3B
  3
ACAD_MLEADERSTYLE
350
68
  3
ACAD_MLINESTYLE
350
17
  3
ACAD_PLOTSETTINGS
350
19
  3
ACAD_PLOTSTYLENAME
350
E
  3
ACAD_TABLESTYLE
350
67
  3
ACAD_VISUALSTYLE
350
2A
  0
DICTIONARY
  5
D
102
{ACAD_REACTORS
330
C
102
}
330
C
100
AcDbDictionary
281
     1
  0
DICTIONARY
  5
1A
102
{ACAD_REACTORS
330
C
102
}
330
C
100
AcDbDictionary
281
     1
  3
Layout1
350
1E
  3
Layout2
350
26
  3
Model
350
22
  0
DICTIONARY
  5
3B
102
{ACAD_REACTORS
330
C
102
}
330
C
100
AcDbDictionary
281
     1
  3
ByBlock
350
3D
  3
ByLayer
350
3C
  3
Global
350
3E
  0
DICTIONARY
  5
68
102
{ACAD_REACTORS
330
C
102
}
330
C
100
AcDbDictionary
281
     1
  0
DICTIONARY
  5
17
102
{ACAD_REACTORS
330
C
102
}
330
C
100
AcDbDictionary
281
     1
  3
Standard
350
18
  0
DICTIONARY
  5
19
102
{ACAD_REACTORS
330
C
102
}
330
C
100
AcDbDictionary
281
     1
  0
ACDBDICTIONARYWDFLT
  5
E
102
{ACAD_REACTORS
330
C
102
}
330
C
100
AcDbDictionary
281
     1
  3
Normal
350
F
100
AcDbDictionaryWithDefault
340
F
  0
DICTIONARY
  5
67
102
{ACAD_REACTORS
330
C
102
}
330
C
100
AcDbDictionary
281
     1
  0
DICTIONARY
  5
2A
102
{ACAD_REACTORS
330
C
102
}
330
C
100
AcDbDictionary
281
     1
  3
2dWireframe
350
2F
  3
3D Hidden
350
31
  3
3dWireframe
350
30
  3
Basic
350
32
  3
Brighten
350
36
  3
ColorChange
350
3A
  3
Conceptual
350
34
  3
Dim
350
35
  3
Facepattern
350
39
  3
Flat
350
2B
  3
FlatWithEdges
350
2C
  3
Gouraud
350
2D
  3
GouraudWithEdges
350
2E
  3
Linepattern
350
38
  3
Realistic
350
33
  3
Thicken
350
37
  0
LAYOUT
  5
1E
102
{ACAD_REACTORS
330
1A
102
}
330
1A
100
AcDbPlotSettings
  1

  2
none_device
  4

  6

 40
0.0
 41
0.0
 42
0.0
 43
0.0
 44
0.0
 45
0.0
 46
0.0
 47
0.0
 48
0.0
 49
0.0
140
0.0
141
0.0
142
1.0
143
1.0
 70
   688
 72
     0
 73
     0
 74
     5
  7

 75
    16
 76
     0
 77
     2
 78
   300
147
1.0
148
0.0
149
0.0
100
AcDbLayout
  1
Layout1
 70
     1
 71
     1
 10
0.0
 20
0.0
 11
12.0
 21
9.0
 12
0.0
 22
0.0
 32
0.0
 14
1.000000000000000E+20
 24
1.000000000000000E+20
 34
1.000000000000000E+20
 15
-1.000000000000000E+20
 25
-1.000000000000000E+20
 35
-1.000000000000000E+20
146
0.0
 13
0.0
 23
0.0
 33
0.0
 16
1.0
 26
0.0
 36
0.0
 17
0.0
 27
1.0
 37
0.0
 76
     0
330
1B
  0
LAYOUT
  5
26
102
{ACAD_REACTORS
330
1A
102
}
330
1A
100
AcDbPlotSettings
  1

  2
none_device
  4

  6

 40
0.0
 41
0.0
 42
0.0
 43
0.0
 44
0.0
 45
0.0
 46
0.0
 47
0.0
 48
0.0
 49
0.0
140
0.0
141
0.0
142
1.0
143
1.0
 70
   688
 72
     0
 73
     0
 74
     5
  7

 75
    16
 76
     0
 77
     2
 78
   300
147
1.0
148
0.0
149
0.0
100
AcDbLayout
  1
Layout2
 70
     1
 71
     2
 10
0.0
 20
0.0
 11
0.0
 21
0.0
 12
0.0
 22
0.0
 32
0.0
 14
0.0
 24
0.0
 34
0.0
 15
0.0
 25
0.0
 35
0.0
146
0.0
 13
0.0
 23
0.0
 33
0.0
 16
1.0
 26
0.0
 36
0.0
 17
0.0
 27
1.0
 37
0.0
 76
     0
330
23
  0
LAYOUT
  5
22
102
{ACAD_REACTORS
330
1A
102
}
330
1A
100
AcDbPlotSettings
  1

  2
none_device
  4

  6

 40
0.0
 41
0.0
 42
0.0
 43
0.0
 44
0.0
 45
0.0
 46
0.0
 47
0.0
 48
0.0
 49
0.0
140
0.0
141
0.0
142
1.0
143
1.0
 70
  1712
 72
     0
 73
     0
 74
     0
  7

 75
     0
 76
     0
 77
     2
 78
   300
147
1.0
148
0.0
149
0.0
100
AcDbLayout
  1
Model
 70
     1
 71
     0
 10
0.0
 20
0.0
 11
12.0
 21
9.0
 12
0.0
 22
0.0
 32
0.0
 14
-9.63304
 24
-5.08046
 34
0.0
 15
9.63304
 25
5.0804
 35
0.0
146
0.0
 13
0.0
 23
0.0
 33
0.0
 16
1.0
 26
0.0
 36
0.0
 17
0.0
 27
1.0
 37
0.0
 76
     0
330
1F
331
29
  0
MATERIAL
  5
3D
102
{ACAD_REACTORS
330
3B
102
}
330
3B
100
AcDbMaterial
  1
ByBlock
 72
     1
 94
      127
  0
MATERIAL
  5
3C
102
{ACAD_REACTORS
330
3B
102
}
330
3B
100
AcDbMaterial
  1
ByLayer
 72
     1
 94
      127
  0
MATERIAL
  5
3E
102
{ACAD_REACTORS
330
3B
102
}
330
3B
100
AcDbMaterial
  1
Global
 72
     1
 94
      127
  0
MLINESTYLE
  5
18
102
{ACAD_REACTORS
330
17
102
}
330
17
100
AcDbMlineStyle
  2
Standard
 70
     0
  3

 62
   256
 51
90.0
 52
90.0
 71
     2
 49
0.5
 62
   256
  6
BYLAYER
 49
-0.5
 62
   256
  6
BYLAYER
  0
ACDBPLACEHOLDER
  5
F
102
{ACAD_REACTORS
330
E
102
}
330
E
  0
VISUALSTYLE
  5
2F
102
{ACAD_REACTORS
330
2A
102
}
102
{ACAD_XDICTIONARY
360
4F
102
}
330
2A
100
AcDbVisualStyle
  2
2dWireframe
 70
     4
 71
     0
 72
     2
 73
     0
 90
        0
 40
-0.6
 41
-30.0
 62
     5
 63
     7
421
 16777215
 74
     1
 91
        4
 64
     7
 65
   257
 75
     1
175
     1
 42
1.0
 92
        0
 66
   257
 43
1.0
 76
     1
 77
     6
 78
     2
 67
     7
 79
     5
170
     0
171
     0
290
     0
174
     0
 93
        1
 44
0.0
173
     0
291
     0
 45
0.0
  0
VISUALSTYLE
  5
31
102
{ACAD_REACTORS
330
2A
102
}
102
{ACAD_XDICTIONARY
360
53
102
}
330
2A
100
AcDbVisualStyle
  2
3D Hidden
 70
     6
 71
     1
 72
     2
 73
     2
 90
        0
 40
-0.6
 41
-30.0
 62
     5
 63
     7
421
 16777215
 74
     2
 91
        2
 64
     7
 65
   257
 75
     2
175
     1
 42
40.0
 92
        0
 66
   257
 43
1.0
 76
     1
 77
     6
 78
     2
 67
     7
 79
     3
170
     0
171
     0
290
     0
174
     0
 93
        1
 44
0.0
173
     0
291
     0
 45
0.0
  0
VISUALSTYLE
  5
30
102
{ACAD_REACTORS
330
2A
102
}
102
{ACAD_XDICTIONARY
360
51
102
}
330
2A
100
AcDbVisualStyle
  2
3dWireframe
 70
     5
 71
     0
 72
     2
 73
     0
 90
        0
 40
-0.6
 41
-30.0
 62
     5
 63
     7
421
 16777215
 74
     1
 91
        4
 64
     7
 65
   257
 75
     1
175
     1
 42
1.0
 92
        0
 66
   257
 43
1.0
 76
     1
 77
     6
 78
     2
 67
     7
 79
     5
170
     0
171
     0
290
     0
174
     0
 93
        1
 44
0.0
173
     0
291
     0
 45
0.0
  0
VISUALSTYLE
  5
32
102
{ACAD_REACTORS
330
2A
102
}
102
{ACAD_XDICTIONARY
360
55
102
}
330
2A
100
AcDbVisualStyle
  2
Basic
 70
     7
 71
     1
 72
     0
 73
     1
 90
        0
 40
-0.6
 41
-30.0
 62
     5
 63
     7
421
 16777215
 74
     0
 91
        4
 64
     7
 65
   257
 75
     1
175
     1
 42
1.0
 92
        8
 66
     7
 43
1.0
 76
     1
 77
     6
 78
     2
 67
     7
 79
     5
170
     0
171
     0
290
     0
174
     0
 93
        1
 44
0.0
173
     0
291
     1
 45
0.0
  0
VISUALSTYLE
  5
36
102
{ACAD_REACTORS
330
2A
102
}
102
{ACAD_XDICTIONARY
360
5D
102
}
330
2A
100
AcDbVisualStyle
  2
Brighten
 70
    12
 71
     2
 72
     2
 73
     0
 90
        0
 40
-0.6
 41
-30.0
 62
     5
 63
     7
421
 16777215
 74
     1
 91
        4
 64
     7
 65
   257
 75
     1
175
     1
 42
1.0
 92
        8
 66
     7
 43
1.0
 76
     1
 77
     6
 78
     2
 67
     7
 79
     5
170
     0
171
     0
290
     0
174
     0
 93
        1
 44
50.0
173
     0
291
     1
 45
0.0
  0
VISUALSTYLE
  5
3A
102
{ACAD_REACTORS
330
2A
102
}
102
{ACAD_XDICTIONARY
360
65
102
}
330
2A
100
AcDbVisualStyle
  2
ColorChange
 70
    16
 71
     2
 72
     2
 73
     3
 90
        0
 40
-0.6
 41
-30.0
 62
     5
 63
     8
421
  8421504
 74
     1
 91
        4
 64
     7
 65
   257
 75
     1
175
     1
 42
1.0
 92
        8
 66
     8
424
  8421504
 43
1.0
 76
     1
 77
     6
 78
     2
 67
     7
 79
     5
170
     0
171
     0
290
     0
174
     0
 93
        1
 44
0.0
173
     0
291
     1
 45
0.0
  0
VISUALSTYLE
  5
34
102
{ACAD_REACTORS
330
2A
102
}
102
{ACAD_XDICTIONARY
360
59
102
}
330
2A
100
AcDbVisualStyle
  2
Conceptual
 70
     9
 71
     3
 72
     2
 73
     0
 90
        0
 40
-0.6
 41
-30.0
 62
     5
 63
     7
421
 16777215
 74
     2
 91
        2
 64
     7
 65
   257
 75
     1
175
     1
 42
40.0
 92
        8
 66
     7
 43
1.0
 76
     1
 77
     6
 78
     2
 67
     7
 79
     3
170
     0
171
     0
290
     0
174
     0
 93
        1
 44
0.0
173
     0
291
     0
 45
0.0
  0
VISUALSTYLE
  5
35
102
{ACAD_REACTORS
330
2A
102
}
102
{ACAD_XDICTIONARY
360
5B
102
}
330
2A
100
AcDbVisualStyle
  2
Dim
 70
    11
 71
     2
 72
     2
 73
     0
 90
        0
 40
-0.6
 41
-30.0
 62
     5
 63
     7
421
 16777215
 74
     1
 91
        4
 64
     7
 65
   257
 75
     1
175
     1
 42
1.0
 92
        8
 66
     7
 43
1.0
 76
     1
 77
     6
 78
     2
 67
     7
 79
     5
170
     0
171
     0
290
     0
174
     0
 93
        1
 44
-50.0
173
     0
291
     1
 45
0.0
  0
VISUALSTYLE
  5
39
102
{ACAD_REACTORS
330
2A
102
}
102
{ACAD_XDICTIONARY
360
63
102
}
330
2A
100
AcDbVisualStyle
  2
Facepattern
 70
    15
 71
     2
 72
     2
 73
     0
 90
        0
 40
-0.6
 41
-30.0
 62
     5
 63
     7
421
 16777215
 74
     1
 91
        4
 64
     7
 65
   257
 75
     1
175
     1
 42
1.0
 92
        8
 66
     7
 43
1.0
 76
     1
 77
     6
 78
     2
 67
     7
 79
     5
170
     0
171
     0
290
     0
174
     0
 93
        1
 44
0.0
173
     0
291
     1
 45
0.0
  0
VISUALSTYLE
  5
2B
102
{ACAD_REACTORS
330
2A
102
}
102
{ACAD_XDICTIONARY
360
47
102
}
330
2A
100
AcDbVisualStyle
  2
Flat
 70
     0
 71
     2
 72
     1
 73
     1
 90
        2
 40
-0.6
 41
30.0
 62
     5
 63
     7
421
 16777215
 74
     0
 91
        4
 64
     7
 65
   257
 75
     1
175
     1
 42
1.0
 92
        8
 66
     7
 43
1.0
 76
     1
 77
     6
 78
     2
 67
     7
 79
     5
170
     0
171
     0
290
     0
174
     0
 93
       13
 44
0.0
173
     0
291
     1
 45
0.0
  0
VISUALSTYLE
  5
2C
102
{ACAD_REACTORS
330
2A
102
}
102
{ACAD_XDICTIONARY
360
49
102
}
330
2A
100
AcDbVisualStyle
  2
FlatWithEdges
 70
     1
 71
     2
 72
     1
 73
     1
 90
        2
 40
-0.6
 41
30.0
 62
     5
 63
     7
421
 16777215
 74
     1
 91
        4
 64
     7
 65
   257
 75
     1
175
     1
 42
1.0
 92
        0
 66
   257
 43
1.0
 76
     1
 77
     6
 78
     2
 67
     7
 79
     5
170
     0
171
     0
290
     0
174
     0
 93
       13
 44
0.0
173
     0
291
     1
 45
0.0
  0
VISUALSTYLE
  5
2D
102
{ACAD_REACTORS
330
2A
102
}
102
{ACAD_XDICTIONARY
360
4B
102
}
330
2A
100
AcDbVisualStyle
  2
Gouraud
 70
     2
 71
     2
 72
     2
 73
     1
 90
        2
 40
-0.6
 41
30.0
 62
     5
 63
     7
421
 16777215
 74
     0
 91
        4
 64
     7
 65
   257
 75
     1
175
     1
 42
1.0
 92
        0
 66
     7
 43
1.0
 76
     1
 77
     6
 78
     2
 67
     7
 79
     5
170
     0
171
     0
290
     0
174
     0
 93
       13
 44
0.0
173
     0
291
     1
 45
0.0
  0
VISUALSTYLE
  5
2E
102
{ACAD_REACTORS
330
2A
102
}
102
{ACAD_XDICTIONARY
360
4D
102
}
330
2A
100
AcDbVisualStyle
  2
GouraudWithEdges
 70
     3
 71
     2
 72
     2
 73
     1
 90
        2
 40
-0.6
 41
30.0
 62
     5
 63
     7
421
 16777215
 74
     1
 91
        4
 64
     7
 65
   257
 75
     1
175
     1
 42
1.0
 92
        0
 66
   257
 43
1.0
 76
     1
 77
     6
 78
     2
 67
     7
 79
     5
170
     0
171
     0
290
     0
174
     0
 93
       13
 44
0.0
173
     0
291
     1
 45
0.0
  0
VISUALSTYLE
  5
38
102
{ACAD_REACTORS
330
2A
102
}
102
{ACAD_XDICTIONARY
360
61
102
}
330
2A
100
AcDbVisualStyle
  2
Linepattern
 70
    14
 71
     2
 72
     2
 73
     0
 90
        0
 40
-0.6
 41
-30.0
 62
     5
 63
     7
421
 16777215
 74
     1
 91
        4
 64
     7
 65
   257
 75
     7
175
     7
 42
1.0
 92
        8
 66
     7
 43
1.0
 76
     1
 77
     6
 78
     2
 67
     7
 79
     5
170
     0
171
     0
290
     0
174
     0
 93
        1
 44
0.0
173
     0
291
     1
 45
0.0
  0
VISUALSTYLE
  5
33
102
{ACAD_REACTORS
330
2A
102
}
102
{ACAD_XDICTIONARY
360
57
102
}
330
2A
100
AcDbVisualStyle
  2
Realistic
 70
     8
 71
     2
 72
     2
 73
     0
 90
        0
 40
-0.6
 41
-30.0
 62
     5
 63
     7
421
 16777215
 74
     1
 91
        0
 64
     7
 65
   257
 75
     1
175
     1
 42
1.0
 92
        8
 66
     8
424
  7895160
 43
1.0
 76
     1
 77
     6
 78
     2
 67
     7
 79
     5
170
     0
171
     0
290
     0
174
     0
 93
       13
 44
0.0
173
     0
291
     0
 45
0.0
  0
VISUALSTYLE
  5
37
102
{ACAD_REACTORS
330
2A
102
}
102
{ACAD_XDICTIONARY
360
5F
102
}
330
2A
100
AcDbVisualStyle
  2
Thicken
 70
    13
 71
     2
 72
     2
 73
     0
 90
        0
 40
-0.6
 41
-30.0
 62
     5
 63
     7
421
 16777215
 74
     1
 91
        4
 64
     7
 65
   257
 75
     1
175
     1
 42
1.0
 92
       12
 66
     7
 43
1.0
 76
     1
 77
     6
 78
     2
 67
     7
 79
     5
170
     0
171
     0
290
     0
174
     0
 93
        1
 44
0.0
173
     0
291
     1
 45
0.0
  0
DICTIONARY
  5
4F
330
2F
100
AcDbDictionary
280
     1
281
     1
  3
ACAD_XREC_ROUNDTRIP
360
50
  0
DICTIONARY
  5
53
330
31
100
AcDbDictionary
280
     1
281
     1
  3
ACAD_XREC_ROUNDTRIP
360
54
  0
DICTIONARY
  5
51
330
30
100
AcDbDictionary
280
     1
281
     1
  3
ACAD_XREC_ROUNDTRIP
360
52
  0
DICTIONARY
  5
55
330
32
100
AcDbDictionary
280
     1
281
     1
  3
ACAD_XREC_ROUNDTRIP
360
56
  0
DICTIONARY
  5
5D
330
36
100
AcDbDictionary
280
     1
281
     1
  3
ACAD_XREC_ROUNDTRIP
360
5E
  0
DICTIONARY
  5
65
330
3A
100
AcDbDictionary
280
     1
281
     1
  3
ACAD_XREC_ROUNDTRIP
360
66
  0
DICTIONARY
  5
59
330
34
100
AcDbDictionary
280
     1
281
     1
  3
ACAD_XREC_ROUNDTRIP
360
5A
  0
DICTIONARY
  5
5B
330
35
100
AcDbDictionary
280
     1
281
     1
  3
ACAD_XREC_ROUNDTRIP
360
5C
  0
DICTIONARY
  5
63
330
39
100
AcDbDictionary
280
     1
281
     1
  3
ACAD_XREC_ROUNDTRIP
360
64
  0
DICTIONARY
  5
47
330
2B
100
AcDbDictionary
280
     1
281
     1
  3
ACAD_XREC_ROUNDTRIP
360
48
  0
DICTIONARY
  5
49
330
2C
100
AcDbDictionary
280
     1
281
     1
  3
ACAD_XREC_ROUNDTRIP
360
4A
  0
DICTIONARY
  5
4B
330
2D
100
AcDbDictionary
280
     1
281
     1
  3
ACAD_XREC_ROUNDTRIP
360
4C
  0
DICTIONARY
  5
4D
330
2E
100
AcDbDictionary
280
     1
281
     1
  3
ACAD_XREC_ROUNDTRIP
360
4E
  0
DICTIONARY
  5
61
330
38
100
AcDbDictionary
280
     1
281
     1
  3
ACAD_XREC_ROUNDTRIP
360
62
  0
DICTIONARY
  5
57
330
33
100
AcDbDictionary
280
     1
281
     1
  3
ACAD_XREC_ROUNDTRIP
360
58
  0
DICTIONARY
  5
5F
330
37
100
AcDbDictionary
280
     1
281
     1
  3
ACAD_XREC_ROUNDTRIP
360
60
  0
XRECORD
  5
50
102
{ACAD_REACTORS
330
4F
102
}
330
4F
100
AcDbXrecord
280
     1
102
RTVSPropertyOp0
 70
     1
102
RTVSPropertyOp1
 70
     1
102
RTVSPropertyOp2
 70
     1
102
RTVSPropertyOp3
 70
     1
102
RTVSPropertyOp4
 70
     1
102
RTVSPropertyOp5
 70
     1
102
RTVSPropertyOp6
 70
     1
102
RTVSPropertyOp7
 70
     1
102
RTVSPropertyOp8
 70
     1
102
RTVSPropertyOp9
 70
     1
102
RTVSPropertyOp10
 70
     1
102
RTVSPropertyOp11
 70
     1
102
RTVSPropertyOp12
 70
     1
102
RTVSPropertyOp13
 70
     1
102
RTVSPropertyOp14
 70
     1
102
RTVSPropertyOp15
 70
     1
102
RTVSPropertyOp16
 70
     1
102
RTVSPropertyOp17
 70
     1
102
RTVSPropertyOp18
 70
     1
102
RTVSPropertyOp19
 70
     1
102
RTVSPropertyOp20
 70
     1
102
RTVSPropertyOp21
 70
     1
102
RTVSPropertyOp22
 70
     1
102
RTVSPropertyOp23
 70
     1
102
RTVSPropertyOp24
 70
     1
102
RTVSPropertyOp25
 70
     1
102
RTVSPropertyOp26
 70
     1
102
RTVSPropertyOp27
 70
     1
102
RTVSPropertyOp28
 70
     1
102
RTVSPropertyOp29
 70
     1
102
RTVSPropertyOp30
 70
     1
102
RTVSPropertyOp31
 70
     1
102
RTVSPropertyOp32
 70
     1
  0
XRECORD
  5
54
102
{ACAD_REACTORS
330
53
102
}
330
53
100
AcDbXrecord
280
     1
102
RTVSPropertyOp0
 70
     1
102
RTVSPropertyOp1
 70
     1
102
RTVSPropertyOp2
 70
     1
102
RTVSPropertyOp3
 70
     1
102
RTVSPropertyOp4
 70
     1
102
RTVSPropertyOp5
 70
     1
102
RTVSPropertyOp6
 70
     1
102
RTVSPropertyOp7
 70
     1
102
RTVSPropertyOp8
 70
     1
102
RTVSPropertyOp9
 70
     1
102
RTVSPropertyOp10
 70
     1
102
RTVSPropertyOp11
 70
     1
102
RTVSPropertyOp12
 70
     1
102
RTVSPropertyOp13
 70
     1
102
RTVSPropertyOp14
 70
     1
102
RTVSPropertyOp15
 70
     1
102
RTVSPropertyOp16
 70
     1
102
RTVSPropertyOp17
 70
     1
102
RTVSPropertyOp18
 70
     1
102
RTVSPropertyOp19
 70
     1
102
RTVSPropertyOp20
 70
     1
102
RTVSPropertyOp21
 70
     1
102
RTVSPropertyOp22
 70
     1
102
RTVSPropertyOp23
 70
     1
102
RTVSPropertyOp24
 70
     1
102
RTVSPropertyOp25
 70
     1
102
RTVSPropertyOp26
 70
     1
102
RTVSPropertyOp27
 70
     1
102
RTVSPropertyOp28
 70
     1
102
RTVSPropertyOp29
 70
     1
102
RTVSPropertyOp30
 70
     1
102
RTVSPropertyOp31
 70
     1
102
RTVSPropertyOp32
 70
     1
  0
XRECORD
  5
52
102
{ACAD_REACTORS
330
51
102
}
330
51
100
AcDbXrecord
280
     1
102
RTVSPropertyOp0
 70
     1
102
RTVSPropertyOp1
 70
     1
102
RTVSPropertyOp2
 70
     1
102
RTVSPropertyOp3
 70
     1
102
RTVSPropertyOp4
 70
     1
102
RTVSPropertyOp5
 70
     1
102
RTVSPropertyOp6
 70
     1
102
RTVSPropertyOp7
 70
     1
102
RTVSPropertyOp8
 70
     1
102
RTVSPropertyOp9
 70
     1
102
RTVSPropertyOp10
 70
     1
102
RTVSPropertyOp11
 70
     1
102
RTVSPropertyOp12
 70
     1
102
RTVSPropertyOp13
 70
     1
102
RTVSPropertyOp14
 70
     1
102
RTVSPropertyOp15
 70
     1
102
RTVSPropertyOp16
 70
     1
102
RTVSPropertyOp17
 70
     1
102
RTVSPropertyOp18
 70
     1
102
RTVSPropertyOp19
 70
     1
102
RTVSPropertyOp20
 70
     1
102
RTVSPropertyOp21
 70
     1
102
RTVSPropertyOp22
 70
     1
102
RTVSPropertyOp23
 70
     1
102
RTVSPropertyOp24
 70
     1
102
RTVSPropertyOp25
 70
     1
102
RTVSPropertyOp26
 70
     1
102
RTVSPropertyOp27
 70
     1
102
RTVSPropertyOp28
 70
     1
102
RTVSPropertyOp29
 70
     1
102
RTVSPropertyOp30
 70
     1
102
RTVSPropertyOp31
 70
     1
102
RTVSPropertyOp32
 70
     1
  0
XRECORD
  5
56
102
{ACAD_REACTORS
330
55
102
}
330
55
100
AcDbXrecord
280
     1
102
RTVSPropertyOp0
 70
     1
102
RTVSPropertyOp1
 70
     1
102
RTVSPropertyOp2
 70
     1
102
RTVSPropertyOp3
 70
     1
102
RTVSPropertyOp4
 70
     1
102
RTVSPropertyOp5
 70
     1
102
RTVSPropertyOp6
 70
     1
102
RTVSPropertyOp7
 70
     1
102
RTVSPropertyOp8
 70
     1
102
RTVSPropertyOp9
 70
     1
102
RTVSPropertyOp10
 70
     1
102
RTVSPropertyOp11
 70
     1
102
RTVSPropertyOp12
 70
     1
102
RTVSPropertyOp13
 70
     1
102
RTVSPropertyOp14
 70
     1
102
RTVSPropertyOp15
 70
     1
102
RTVSPropertyOp16
 70
     1
102
RTVSPropertyOp17
 70
     1
102
RTVSPropertyOp18
 70
     1
102
RTVSPropertyOp19
 70
     1
102
RTVSPropertyOp20
 70
     1
102
RTVSPropertyOp21
 70
     1
102
RTVSPropertyOp22
 70
     1
102
RTVSPropertyOp23
 70
     1
102
RTVSPropertyOp24
 70
     1
102
RTVSPropertyOp25
 70
     1
102
RTVSPropertyOp26
 70
     1
102
RTVSPropertyOp27
 70
     1
102
RTVSPropertyOp28
 70
     1
102
RTVSPropertyOp29
 70
     1
102
RTVSPropertyOp30
 70
     1
102
RTVSPropertyOp31
 70
     1
102
RTVSPropertyOp32
 70
     1
  0
XRECORD
  5
5E
102
{ACAD_REACTORS
330
5D
102
}
330
5D
100
AcDbXrecord
280
     1
102
RTVSPropertyOp0
 70
     1
102
RTVSPropertyOp1
 70
     1
102
RTVSPropertyOp2
 70
     1
102
RTVSPropertyOp3
 70
     1
102
RTVSPropertyOp4
 70
     1
102
RTVSPropertyOp5
 70
     1
102
RTVSPropertyOp6
 70
     1
102
RTVSPropertyOp7
 70
     1
102
RTVSPropertyOp8
 70
     1
102
RTVSPropertyOp9
 70
     1
102
RTVSPropertyOp10
 70
     1
102
RTVSPropertyOp11
 70
     1
102
RTVSPropertyOp12
 70
     1
102
RTVSPropertyOp13
 70
     1
102
RTVSPropertyOp14
 70
     1
102
RTVSPropertyOp15
 70
     1
102
RTVSPropertyOp16
 70
     1
102
RTVSPropertyOp17
 70
     1
102
RTVSPropertyOp18
 70
     1
102
RTVSPropertyOp19
 70
     1
102
RTVSPropertyOp20
 70
     1
102
RTVSPropertyOp21
 70
     1
102
RTVSPropertyOp22
 70
     1
102
RTVSPropertyOp23
 70
     1
102
RTVSPropertyOp24
 70
     1
102
RTVSPropertyOp25
 70
     1
102
RTVSPropertyOp26
 70
     1
102
RTVSPropertyOp27
 70
     1
102
RTVSPropertyOp28
 70
     1
102
RTVSPropertyOp29
 70
     1
102
RTVSPropertyOp30
 70
     1
102
RTVSPropertyOp31
 70
     1
102
RTVSPropertyOp32
 70
     1
  0
XRECORD
  5
66
102
{ACAD_REACTORS
330
65
102
}
330
65
100
AcDbXrecord
280
     1
102
RTVSPropertyOp0
 70
     1
102
RTVSPropertyOp1
 70
     1
102
RTVSPropertyOp2
 70
     1
102
RTVSPropertyOp3
 70
     1
102
RTVSPropertyOp4
 70
     1
102
RTVSPropertyOp5
 70
     1
102
RTVSPropertyOp6
 70
     1
102
RTVSPropertyOp7
 70
     1
102
RTVSPropertyOp8
 70
     1
102
RTVSPropertyOp9
 70
     1
102
RTVSPropertyOp10
 70
     1
102
RTVSPropertyOp11
 70
     1
102
RTVSPropertyOp12
 70
     1
102
RTVSPropertyOp13
 70
     1
102
RTVSPropertyOp14
 70
     1
102
RTVSPropertyOp15
 70
     1
102
RTVSPropertyOp16
 70
     1
102
RTVSPropertyOp17
 70
     1
102
RTVSPropertyOp18
 70
     1
102
RTVSPropertyOp19
 70
     1
102
RTVSPropertyOp20
 70
     1
102
RTVSPropertyOp21
 70
     1
102
RTVSPropertyOp22
 70
     1
102
RTVSPropertyOp23
 70
     1
102
RTVSPropertyOp24
 70
     1
102
RTVSPropertyOp25
 70
     1
102
RTVSPropertyOp26
 70
     1
102
RTVSPropertyOp27
 70
     1
102
RTVSPropertyOp28
 70
     1
102
RTVSPropertyOp29
 70
     1
102
RTVSPropertyOp30
 70
     1
102
RTVSPropertyOp31
 70
     1
102
RTVSPropertyOp32
 70
     1
  0
XRECORD
  5
5A
102
{ACAD_REACTORS
330
59
102
}
330
59
100
AcDbXrecord
280
     1
102
RTVSPropertyOp0
 70
     1
102
RTVSPropertyOp1
 70
     1
102
RTVSPropertyOp2
 70
     1
102
RTVSPropertyOp3
 70
     1
102
RTVSPropertyOp4
 70
     1
102
RTVSPropertyOp5
 70
     1
102
RTVSPropertyOp6
 70
     1
102
RTVSPropertyOp7
 70
     1
102
RTVSPropertyOp8
 70
     1
102
RTVSPropertyOp9
 70
     1
102
RTVSPropertyOp10
 70
     1
102
RTVSPropertyOp11
 70
     1
102
RTVSPropertyOp12
 70
     1
102
RTVSPropertyOp13
 70
     1
102
RTVSPropertyOp14
 70
     1
102
RTVSPropertyOp15
 70
     1
102
RTVSPropertyOp16
 70
     1
102
RTVSPropertyOp17
 70
     1
102
RTVSPropertyOp18
 70
     1
102
RTVSPropertyOp19
 70
     1
102
RTVSPropertyOp20
 70
     1
102
RTVSPropertyOp21
 70
     1
102
RTVSPropertyOp22
 70
     1
102
RTVSPropertyOp23
 70
     1
102
RTVSPropertyOp24
 70
     1
102
RTVSPropertyOp25
 70
     1
102
RTVSPropertyOp26
 70
     1
102
RTVSPropertyOp27
 70
     1
102
RTVSPropertyOp28
 70
     1
102
RTVSPropertyOp29
 70
     1
102
RTVSPropertyOp30
 70
     1
102
RTVSPropertyOp31
 70
     1
102
RTVSPropertyOp32
 70
     1
  0
XRECORD
  5
5C
102
{ACAD_REACTORS
330
5B
102
}
330
5B
100
AcDbXrecord
280
     1
102
RTVSPropertyOp0
 70
     1
102
RTVSPropertyOp1
 70
     1
102
RTVSPropertyOp2
 70
     1
102
RTVSPropertyOp3
 70
     1
102
RTVSPropertyOp4
 70
     1
102
RTVSPropertyOp5
 70
     1
102
RTVSPropertyOp6
 70
     1
102
RTVSPropertyOp7
 70
     1
102
RTVSPropertyOp8
 70
     1
102
RTVSPropertyOp9
 70
     1
102
RTVSPropertyOp10
 70
     1
102
RTVSPropertyOp11
 70
     1
102
RTVSPropertyOp12
 70
     1
102
RTVSPropertyOp13
 70
     1
102
RTVSPropertyOp14
 70
     1
102
RTVSPropertyOp15
 70
     1
102
RTVSPropertyOp16
 70
     1
102
RTVSPropertyOp17
 70
     1
102
RTVSPropertyOp18
 70
     1
102
RTVSPropertyOp19
 70
     1
102
RTVSPropertyOp20
 70
     1
102
RTVSPropertyOp21
 70
     1
102
RTVSPropertyOp22
 70
     1
102
RTVSPropertyOp23
 70
     1
102
RTVSPropertyOp24
 70
     1
102
RTVSPropertyOp25
 70
     1
102
RTVSPropertyOp26
 70
     1
102
RTVSPropertyOp27
 70
     1
102
RTVSPropertyOp28
 70
     1
102
RTVSPropertyOp29
 70
     1
102
RTVSPropertyOp30
 70
     1
102
RTVSPropertyOp31
 70
     1
102
RTVSPropertyOp32
 70
     1
  0
XRECORD
  5
64
102
{ACAD_REACTORS
330
63
102
}
330
63
100
AcDbXrecord
280
     1
102
RTVSPropertyOp0
 70
     1
102
RTVSPropertyOp1
 70
     1
102
RTVSPropertyOp2
 70
     1
102
RTVSPropertyOp3
 70
     1
102
RTVSPropertyOp4
 70
     1
102
RTVSPropertyOp5
 70
     1
102
RTVSPropertyOp6
 70
     1
102
RTVSPropertyOp7
 70
     1
102
RTVSPropertyOp8
 70
     1
102
RTVSPropertyOp9
 70
     1
102
RTVSPropertyOp10
 70
     1
102
RTVSPropertyOp11
 70
     1
102
RTVSPropertyOp12
 70
     1
102
RTVSPropertyOp13
 70
     1
102
RTVSPropertyOp14
 70
     1
102
RTVSPropertyOp15
 70
     1
102
RTVSPropertyOp16
 70
     1
102
RTVSPropertyOp17
 70
     1
102
RTVSPropertyOp18
 70
     1
102
RTVSPropertyOp19
 70
     1
102
RTVSPropertyOp20
 70
     1
102
RTVSPropertyOp21
 70
     1
102
RTVSPropertyOp22
 70
     1
102
RTVSPropertyOp23
 70
     1
102
RTVSPropertyOp24
 70
     1
102
RTVSPropertyOp25
 70
     1
102
RTVSPropertyOp26
 70
     1
102
RTVSPropertyOp27
 70
     1
102
RTVSPropertyOp28
 70
     1
102
RTVSPropertyOp29
 70
     1
102
RTVSPropertyOp30
 70
     1
102
RTVSPropertyOp31
 70
     1
102
RTVSPropertyOp32
 70
     1
  0
XRECORD
  5
48
102
{ACAD_REACTORS
330
47
102
}
330
47
100
AcDbXrecord
280
     1
102
RTVSPropertyOp0
 70
     1
102
RTVSPropertyOp1
 70
     1
102
RTVSPropertyOp2
 70
     1
102
RTVSPropertyOp3
 70
     1
102
RTVSPropertyOp4
 70
     1
102
RTVSPropertyOp5
 70
     1
102
RTVSPropertyOp6
 70
     1
102
RTVSPropertyOp7
 70
     1
102
RTVSPropertyOp8
 70
     1
102
RTVSPropertyOp9
 70
     1
102
RTVSPropertyOp10
 70
     1
102
RTVSPropertyOp11
 70
     1
102
RTVSPropertyOp12
 70
     1
102
RTVSPropertyOp13
 70
     1
102
RTVSPropertyOp14
 70
     1
102
RTVSPropertyOp15
 70
     1
102
RTVSPropertyOp16
 70
     1
102
RTVSPropertyOp17
 70
     1
102
RTVSPropertyOp18
 70
     1
102
RTVSPropertyOp19
 70
     1
102
RTVSPropertyOp20
 70
     1
102
RTVSPropertyOp21
 70
     1
102
RTVSPropertyOp22
 70
     1
102
RTVSPropertyOp23
 70
     1
102
RTVSPropertyOp24
 70
     1
102
RTVSPropertyOp25
 70
     1
102
RTVSPropertyOp26
 70
     1
102
RTVSPropertyOp27
 70
     1
102
RTVSPropertyOp28
 70
     1
102
RTVSPropertyOp29
 70
     1
102
RTVSPropertyOp30
 70
     1
102
RTVSPropertyOp31
 70
     1
102
RTVSPropertyOp32
 70
     1
  0
XRECORD
  5
4A
102
{ACAD_REACTORS
330
49
102
}
330
49
100
AcDbXrecord
280
     1
102
RTVSPropertyOp0
 70
     1
102
RTVSPropertyOp1
 70
     1
102
RTVSPropertyOp2
 70
     1
102
RTVSPropertyOp3
 70
     1
102
RTVSPropertyOp4
 70
     1
102
RTVSPropertyOp5
 70
     1
102
RTVSPropertyOp6
 70
     1
102
RTVSPropertyOp7
 70
     1
102
RTVSPropertyOp8
 70
     1
102
RTVSPropertyOp9
 70
     1
102
RTVSPropertyOp10
 70
     1
102
RTVSPropertyOp11
 70
     1
102
RTVSPropertyOp12
 70
     1
102
RTVSPropertyOp13
 70
     1
102
RTVSPropertyOp14
 70
     1
102
RTVSPropertyOp15
 70
     1
102
RTVSPropertyOp16
 70
     1
102
RTVSPropertyOp17
 70
     1
102
RTVSPropertyOp18
 70
     1
102
RTVSPropertyOp19
 70
     1
102
RTVSPropertyOp20
 70
     1
102
RTVSPropertyOp21
 70
     1
102
RTVSPropertyOp22
 70
     1
102
RTVSPropertyOp23
 70
     1
102
RTVSPropertyOp24
 70
     1
102
RTVSPropertyOp25
 70
     1
102
RTVSPropertyOp26
 70
     1
102
RTVSPropertyOp27
 70
     1
102
RTVSPropertyOp28
 70
     1
102
RTVSPropertyOp29
 70
     1
102
RTVSPropertyOp30
 70
     1
102
RTVSPropertyOp31
 70
     1
102
RTVSPropertyOp32
 70
     1
  0
XRECORD
  5
4C
102
{ACAD_REACTORS
330
4B
102
}
330
4B
100
AcDbXrecord
280
     1
102
RTVSPropertyOp0
 70
     1
102
RTVSPropertyOp1
 70
     1
102
RTVSPropertyOp2
 70
     1
102
RTVSPropertyOp3
 70
     1
102
RTVSPropertyOp4
 70
     1
102
RTVSPropertyOp5
 70
     1
102
RTVSPropertyOp6
 70
     1
102
RTVSPropertyOp7
 70
     1
102
RTVSPropertyOp8
 70
     1
102
RTVSPropertyOp9
 70
     1
102
RTVSPropertyOp10
 70
     1
102
RTVSPropertyOp11
 70
     1
102
RTVSPropertyOp12
 70
     1
102
RTVSPropertyOp13
 70
     1
102
RTVSPropertyOp14
 70
     1
102
RTVSPropertyOp15
 70
     1
102
RTVSPropertyOp16
 70
     1
102
RTVSPropertyOp17
 70
     1
102
RTVSPropertyOp18
 70
     1
102
RTVSPropertyOp19
 70
     1
102
RTVSPropertyOp20
 70
     1
102
RTVSPropertyOp21
 70
     1
102
RTVSPropertyOp22
 70
     1
102
RTVSPropertyOp23
 70
     1
102
RTVSPropertyOp24
 70
     1
102
RTVSPropertyOp25
 70
     1
102
RTVSPropertyOp26
 70
     1
102
RTVSPropertyOp27
 70
     1
102
RTVSPropertyOp28
 70
     1
102
RTVSPropertyOp29
 70
     1
102
RTVSPropertyOp30
 70
     1
102
RTVSPropertyOp31
 70
     1
102
RTVSPropertyOp32
 70
     1
  0
XRECORD
  5
4E
102
{ACAD_REACTORS
330
4D
102
}
330
4D
100
AcDbXrecord
280
     1
102
RTVSPropertyOp0
 70
     1
102
RTVSPropertyOp1
 70
     1
102
RTVSPropertyOp2
 70
     1
102
RTVSPropertyOp3
 70
     1
102
RTVSPropertyOp4
 70
     1
102
RTVSPropertyOp5
 70
     1
102
RTVSPropertyOp6
 70
     1
102
RTVSPropertyOp7
 70
     1
102
RTVSPropertyOp8
 70
     1
102
RTVSPropertyOp9
 70
     1
102
RTVSPropertyOp10
 70
     1
102
RTVSPropertyOp11
 70
     1
102
RTVSPropertyOp12
 70
     1
102
RTVSPropertyOp13
 70
     1
102
RTVSPropertyOp14
 70
     1
102
RTVSPropertyOp15
 70
     1
102
RTVSPropertyOp16
 70
     1
102
RTVSPropertyOp17
 70
     1
102
RTVSPropertyOp18
 70
     1
102
RTVSPropertyOp19
 70
     1
102
RTVSPropertyOp20
 70
     1
102
RTVSPropertyOp21
 70
     1
102
RTVSPropertyOp22
 70
     1
102
RTVSPropertyOp23
 70
     1
102
RTVSPropertyOp24
 70
     1
102
RTVSPropertyOp25
 70
     1
102
RTVSPropertyOp26
 70
     1
102
RTVSPropertyOp27
 70
     1
102
RTVSPropertyOp28
 70
     1
102
RTVSPropertyOp29
 70
     1
102
RTVSPropertyOp30
 70
     1
102
RTVSPropertyOp31
 70
     1
102
RTVSPropertyOp32
 70
     1
  0
XRECORD
  5
62
102
{ACAD_REACTORS
330
61
102
}
330
61
100
AcDbXrecord
280
     1
102
RTVSPropertyOp0
 70
     1
102
RTVSPropertyOp1
 70
     1
102
RTVSPropertyOp2
 70
     1
102
RTVSPropertyOp3
 70
     1
102
RTVSPropertyOp4
 70
     1
102
RTVSPropertyOp5
 70
     1
102
RTVSPropertyOp6
 70
     1
102
RTVSPropertyOp7
 70
     1
102
RTVSPropertyOp8
 70
     1
102
RTVSPropertyOp9
 70
     1
102
RTVSPropertyOp10
 70
     1
102
RTVSPropertyOp11
 70
     1
102
RTVSPropertyOp12
 70
     1
102
RTVSPropertyOp13
 70
     1
102
RTVSPropertyOp14
 70
     1
102
RTVSPropertyOp15
 70
     1
102
RTVSPropertyOp16
 70
     1
102
RTVSPropertyOp17
 70
     1
102
RTVSPropertyOp18
 70
     1
102
RTVSPropertyOp19
 70
     1
102
RTVSPropertyOp20
 70
     1
102
RTVSPropertyOp21
 70
     1
102
RTVSPropertyOp22
 70
     1
102
RTVSPropertyOp23
 70
     1
102
RTVSPropertyOp24
 70
     1
102
RTVSPropertyOp25
 70
     1
102
RTVSPropertyOp26
 70
     1
102
RTVSPropertyOp27
 70
     1
102
RTVSPropertyOp28
 70
     1
102
RTVSPropertyOp29
 70
     1
102
RTVSPropertyOp30
 70
     1
102
RTVSPropertyOp31
 70
     1
102
RTVSPropertyOp32
 70
     1
  0
XRECORD
  5
58
102
{ACAD_REACTORS
330
57
102
}
330
57
100
AcDbXrecord
280
     1
102
RTVSPropertyOp0
 70
     1
102
RTVSPropertyOp1
 70
     1
102
RTVSPropertyOp2
 70
     1
102
RTVSPropertyOp3
 70
     1
102
RTVSPropertyOp4
 70
     1
102
RTVSPropertyOp5
 70
     1
102
RTVSPropertyOp6
 70
     1
102
RTVSPropertyOp7
 70
     1
102
RTVSPropertyOp8
 70
     1
102
RTVSPropertyOp9
 70
     1
102
RTVSPropertyOp10
 70
     1
102
RTVSPropertyOp11
 70
     1
102
RTVSPropertyOp12
 70
     1
102
RTVSPropertyOp13
 70
     1
102
RTVSPropertyOp14
 70
     1
102
RTVSPropertyOp15
 70
     1
102
RTVSPropertyOp16
 70
     1
102
RTVSPropertyOp17
 70
     1
102
RTVSPropertyOp18
 70
     1
102
RTVSPropertyOp19
 70
     1
102
RTVSPropertyOp20
 70
     1
102
RTVSPropertyOp21
 70
     1
102
RTVSPropertyOp22
 70
     1
102
RTVSPropertyOp23
 70
     1
102
RTVSPropertyOp24
 70
     1
102
RTVSPropertyOp25
 70
     1
102
RTVSPropertyOp26
 70
     1
102
RTVSPropertyOp27
 70
     1
102
RTVSPropertyOp28
 70
     1
102
RTVSPropertyOp29
 70
     1
102
RTVSPropertyOp30
 70
     1
102
RTVSPropertyOp31
 70
     1
102
RTVSPropertyOp32
 70
     1
  0
XRECORD
  5
60
102
{ACAD_REACTORS
330
5F
102
}
330
5F
100
AcDbXrecord
280
     1
102
RTVSPropertyOp0
 70
     1
102
RTVSPropertyOp1
 70
     1
102
RTVSPropertyOp2
 70
     1
102
RTVSPropertyOp3
 70
     1
102
RTVSPropertyOp4
 70
     1
102
RTVSPropertyOp5
 70
     1
102
RTVSPropertyOp6
 70
     1
102
RTVSPropertyOp7
 70
     1
102
RTVSPropertyOp8
 70
     1
102
RTVSPropertyOp9
 70
     1
102
RTVSPropertyOp10
 70
     1
102
RTVSPropertyOp11
 70
     1
102
RTVSPropertyOp12
 70
     1
102
RTVSPropertyOp13
 70
     1
102
RTVSPropertyOp14
 70
     1
102
RTVSPropertyOp15
 70
     1
102
RTVSPropertyOp16
 70
     1
102
RTVSPropertyOp17
 70
     1
102
RTVSPropertyOp18
 70
     1
102
RTVSPropertyOp19
 70
     1
102
RTVSPropertyOp20
 70
     1
102
RTVSPropertyOp21
 70
     1
102
RTVSPropertyOp22
 70
     1
102
RTVSPropertyOp23
 70
     1
102
RTVSPropertyOp24
 70
     1
102
RTVSPropertyOp25
 70
     1
102
RTVSPropertyOp26
 70
     1
102
RTVSPropertyOp27
 70
     1
102
RTVSPropertyOp28
 70
     1
102
RTVSPropertyOp29
 70
     1
102
RTVSPropertyOp30
 70
     1
102
RTVSPropertyOp31
 70
     1
102
RTVSPropertyOp32
 70
     1
  0
ENDSEC
  0
EOF
