  0
SECTION
  2
HEADER
  9
$ACADVER
  1
AC1024
  9
$ACADMAINTVER
 70
     6
  9
$DWGCODEPAGE
  3
ANSI_1251
  9
$INSBASE
 10
0.0
 20
0.0
 30
0.0
  9
$EXTMIN
 10
1.000000000000000E+20
 20
1.000000000000000E+20
 30
1.000000000000000E+20
  9
$EXTMAX
 10
-1.000000000000000E+20
 20
-1.000000000000000E+20
 30
-1.000000000000000E+20
  9
$LIMMIN
 10
0.0
 20
0.0
  9
$LIMMAX
 10
12.0
 20
9.0
  9
$ORTHOMODE
 70
     0
  9
$REGENMODE
 70
     1
  9
$FILLMODE
 70
     1
  9
$QTEXTMODE
 70
     0
  9
$MIRRTEXT
 70
     1
  9
$LTSCALE
 40
1.0
  9
$ATTMODE
 70
     1
  9
$TEXTSIZE
 40
0.2
  9
$TRACEWID
 40
0.05
  9
$TEXTSTYLE
  7
Standard
  9
$CLAYER
  8
0
  9
$CELTYPE
  6
ByLayer
  9
$CECOLOR
 62
   256
  9
$CELTSCALE
 40
1.0
  9
$DISPSILH
 70
     0
  9
$DIMSCALE
 40
1.0
  9
$DIMASZ
 40
0.18
  9
$DIMEXO
 40
0.0625
  9
$DIMDLI
 40
0.38
  9
$DIMRND
 40
0.0
  9
$DIMDLE
 40
0.0
  9
$DIMEXE
 40
0.18
  9
$DIMTP
 40
0.0
  9
$DIMTM
 40
0.0
  9
$DIMTXT
 40
0.18
  9
$DIMCEN
 40
0.09
  9
$DIMTSZ
 40
0.0
  9
$DIMTOL
 70
     0
  9
$DIMLIM
 70
     0
  9
$DIMTIH
 70
     1
  9
$DIMTOH
 70
     1
  9
$DIMSE1
 70
     0
  9
$DIMSE2
 70
     0
  9
$DIMTAD
 70
     0
  9
$DIMZIN
 70
     0
  9
$DIMBLK
  1

  9
$DIMASO
 70
     1
  9
$DIMSHO
 70
     1
  9
$DIMPOST
  1

  9
$DIMAPOST
  1

  9
$DIMALT
 70
     0
  9
$DIMALTD
 70
     2
  9
$DIMALTF
 40
25.4
  9
$DIMLFAC
 40
1.0
  9
$DIMTOFL
 70
     0
  9
$DIMTVP
 40
0.0
  9
$DIMTIX
 70
     0
  9
$DIMSOXD
 70
     0
  9
$DIMSAH
 70
     0
  9
$DIMBLK1
  1

  9
$DIMBLK2
  1

  9
$DIMSTYLE
  2
Standard
  9
$DIMCLRD
 70
     0
  9
$DIMCLRE
 70
     0
  9
$DIMCLRT
 70
     0
  9
$DIMTFAC
 40
1.0
  9
$DIMGAP
 40
0.09
  9
$DIMJUST
 70
     0
  9
$DIMSD1
 70
     0
  9
$DIMSD2
 70
     0
  9
$DIMTOLJ
 70
     1
  9
$DIMTZIN
 70
     0
  9
$DIMALTZ
 70
     0
  9
$DIMALTTZ
 70
     0
  9
$DIMUPT
 70
     0
  9
$DIMDEC
 70
     4
  9
$DIMTDEC
 70
     4
  9
$DIMALTU
 70
     2
  9
$DIMALTTD
 70
     2
  9
$DIMTXSTY
  7
Standard
  9
$DIMAUNIT
 70
     0
  9
$DIMADEC
 70
     0
  9
$DIMALTRND
 40
0.0
  9
$DIMAZIN
 70
     0
  9
$DIMDSEP
 70
    46
  9
$DIMATFIT
 70
     3
  9
$DIMFRAC
 70
     0
  9
$DIMLDRBLK
  1

  9
$DIMLUNIT
 70
     2
  9
$DIMLWD
 70
    -2
  9
$DIMLWE
 70
    -2
  9
$DIMTMOVE
 70
     0
  9
$DIMFXL
 40
1.0
  9
$DIMFXLON
 70
     0
  9
$DIMJOGANG
 40
0.7853981633974483
  9
$DIMTFILL
 70
     0
  9
$DIMTFILLCLR
 70
     0
  9
$DIMARCSYM
 70
     0
  9
$DIMLTYPE
  6

  9
$DIMLTEX1
  6

  9
$DIMLTEX2
  6

  9
$DIMTXTDIRECTION
 70
     0
  9
$LUNITS
 70
     2
  9
$LUPREC
 70
     4
  9
$SKETCHINC
 40
0.1
  9
$FILLETRAD
 40
0.5
  9
$AUNITS
 70
     0
  9
$AUPREC
 70
     0
  9
$MENU
  1
.
  9
$ELEVATION
 40
0.0
  9
$PELEVATION
 40
0.0
  9
$THICKNESS
 40
0.0
  9
$LIMCHECK
 70
     0
  9
$CHAMFERA
 40
0.5
  9
$CHAMFERB
 40
0.5
  9
$CHAMFERC
 40
1.0
  9
$CHAMFERD
 40
0.0
  9
$SKPOLY
 70
     0
  9
$TDCREATE
 40
2459866.45120353
  9
$TDUCREATE
 40
2459866.32620353
  9
$TDUPDATE
 40
2459866.45120353
  9
$TDUUPDATE
 40
2459866.32620353
  9
$TDINDWG
 40
0.0000000116
  9
$TDUSRTIMER
 40
0.0000000116
  9
$USRTIMER
 70
     1
  9
$ANGBASE
 50
0.0
  9
$ANGDIR
 70
     0
  9
$PDMODE
 70
     0
  9
$PDSIZE
 40
0.0
  9
$PLINEWID
 40
0.0
  9
$SPLFRAME
 70
     0
  9
$SPLINETYPE
 70
     6
  9
$SPLINESEGS
 70
     8
  9
$HANDSEED
  5
67
  9
$SURFTAB1
 70
     6
  9
$SURFTAB2
 70
     6
  9
$SURFTYPE
 70
     6
  9
$SURFU
 70
     6
  9
$SURFV
 70
     6
  9
$UCSBASE
  2

  9
$UCSNAME
  2

  9
$UCSORG
 10
0.0
 20
0.0
 30
0.0
  9
$UCSXDIR
 10
1.0
 20
0.0
 30
0.0
  9
$UCSYDIR
 10
0.0
 20
1.0
 30
0.0
  9
$UCSORTHOREF
  2

  9
$UCSORTHOVIEW
 70
     0
  9
$UCSORGTOP
 10
0.0
 20
0.0
 30
0.0
  9
$UCSORGBOTTOM
 10
0.0
 20
0.0
 30
0.0
  9
$UCSORGLEFT
 10
0.0
 20
0.0
 30
0.0
  9
$UCSORGRIGHT
 10
0.0
 20
0.0
 30
0.0
  9
$UCSORGFRONT
 10
0.0
 20
0.0
 30
0.0
  9
$UCSORGBACK
 10
0.0
 20
0.0
 30
0.0
  9
$PUCSBASE
  2

  9
$PUCSNAME
  2

  9
$PUCSORG
 10
0.0
 20
0.0
 30
0.0
  9
$PUCSXDIR
 10
1.0
 20
0.0
 30
0.0
  9
$PUCSYDIR
 10
0.0
 20
1.0
 30
0.0
  9
$PUCSORTHOREF
  2

  9
$PUCSORTHOVIEW
 70
     0
  9
$PUCSORGTOP
 10
0.0
 20
0.0
 30
0.0
  9
$PUCSORGBOTTOM
 10
0.0
 20
0.0
 30
0.0
  9
$PUCSORGLEFT
 10
0.0
 20
0.0
 30
0.0
  9
$PUCSORGRIGHT
 10
0.0
 20
0.0
 30
0.0
  9
$PUCSORGFRONT
 10
0.0
 20
0.0
 30
0.0
  9
$PUCSORGBACK
 10
0.0
 20
0.0
 30
0.0
  9
$USERI1
 70
     0
  9
$USERI2
 70
     0
  9
$USERI3
 70
     0
  9
$USERI4
 70
     0
  9
$USERI5
 70
     0
  9
$USERR1
 40
0.0
  9
$USERR2
 40
0.0
  9
$USERR3
 40
0.0
  9
$USERR4
 40
0.0
  9
$USERR5
 40
0.0
  9
$WORLDVIEW
 70
     1
  9
$SHADEDGE
 70
     3
  9
$SHADEDIF
 70
    70
  9
$TILEMODE
 70
     1
  9
$MAXACTVP
 70
    64
  9
$PINSBASE
 10
0.0
 20
0.0
 30
0.0
  9
$PLIMCHECK
 70
     0
  9
$PEXTMIN
 10
1.000000000000000E+20
 20
1.000000000000000E+20
 30
1.000000000000000E+20
  9
$PEXTMAX
 10
-1.000000000000000E+20
 20
-1.000000000000000E+20
 30
-1.000000000000000E+20
  9
$PLIMMIN
 10
0.0
 20
0.0
  9
$PLIMMAX
 10
12.0
 20
9.0
  9
$UNITMODE
 70
     0
  9
$VISRETAIN
 70
     1
  9
$PLINEGEN
 70
     0
  9
$PSLTSCALE
 70
     1
  9
$TREEDEPTH
 70
  3020
  9
$CMLSTYLE
  2
Standard
  9
$CMLJUST
 70
     0
  9
$CMLSCALE
 40
1.0
  9
$PROXYGRAPHICS
 70
     1
  9
$MEASUREMENT
 70
     0
  9
$CELWEIGHT
370
    -1
  9
$ENDCAPS
280
     0
  9
$JOINSTYLE
280
     0
  9
$LWDISPLAY
290
     1
  9
$INSUNITS
 70
     1
  9
$HYPERLINKBASE
  1

  9
$STYLESHEET
  1

  9
$XEDIT
290
     1
  9
$CEPSNTYPE
380
     0
  9
$PSTYLEMODE
290
     1
  9
$FINGERPRINTGUID
  2
{C6841C4B-92AB-47F2-A114-0AE73E07F7FB}
  9
$VERSIONGUID
  2
{FAEB1C32-E019-11D5-929B-00C0DF256EC4}
  9
$EXTNAMES
290
     1
  9
$PSVPSCALE
 40
0.0
  9
$OLESTARTUP
290
     0
  9
$SORTENTS
280
   127
  9
$INDEXCTL
280
     0
  9
$HIDETEXT
280
     1
  9
$XCLIPFRAME
280
     2
  9
$HALOGAP
280
     0
  9
$OBSCOLOR
 70
   257
  9
$OBSLTYPE
280
     0
  9
$INTERSECTIONDISPLAY
280
     0
  9
$INTERSECTIONCOLOR
 70
   257
  9
$DIMASSOC
280
     2
  9
$PROJECTNAME
  1

  9
$CAMERADISPLAY
290
     0
  9
$LENSLENGTH
 40
50.0
  9
$CAMERAHEIGHT
 40
0.0
  9
$STEPSPERSEC
 40
2.0
  9
$STEPSIZE
 40
6.0
  9
$3DDWFPREC
 40
2.0
  9
$PSOLWIDTH
 40
0.25
  9
$PSOLHEIGHT
 40
4.0
  9
$LOFTANG1
 40
1.570796326794897
  9
$LOFTANG2
 40
1.570796326794897
  9
$LOFTMAG1
 40
0.0
  9
$LOFTMAG2
 40
0.0
  9
$LOFTPARAM
 70
     7
  9
$LOFTNORMALS
280
     1
  9
$LATITUDE
 40
37.795
  9
$LONGITUDE
 40
-122.394
  9
$NORTHDIRECTION
 40
0.0
  9
$TIMEZONE
 70
 -8000
  9
$LIGHTGLYPHDISPLAY
280
     1
  9
$TILEMODELIGHTSYNCH
280
     1
  9
$CMATERIAL
347
3C
  9
$SOLIDHIST
280
     1
  9
$SHOWHIST
280
     1
  9
$DWFFRAME
280
     2
  9
$DGNFRAME
280
     2
  9
$REALWORLDSCALE
290
     1
  9
$INTERFERECOLOR
 62
   256
  9
$CSHADOW
280
     0
  9
$SHADOWPLANELOCATION
 40
0.0
  0
ENDSEC
  0
SECTION
  2
CLASSES
  0
CLASS
  1
ACDBDICTIONARYWDFLT
  2
AcDbDictionaryWithDefault
  3
ObjectDBX Classes
 90
        0
 91
        4
280
     0
281
     0
  0
CLASS
  1
VISUALSTYLE
  2
AcDbVisualStyle
  3
ObjectDBX Classes
 90
     4095
 91
        4
280
     0
281
     0
  0
CLASS
  1
MATERIAL
  2
AcDbMaterial
  3
ObjectDBX Classes
 90
     1153
 91
        4
280
     0
281
     0
  0
CLASS
  1
SUN
  2
AcDbSun
  3
SCENEOE
 90
     1024
 91
        4
280
     0
281
     0
  0
ENDSEC
  0
SECTION
  2
TABLES
  0
TABLE
  2
VPORT
  5
8
330
0
100
AcDbSymbolTable
 70
     1
  0
VPORT
  5
29
330
8
100
AcDbSymbolTableRecord
100
AcDbViewportTableRecord
  2
*Active
 70
     0
 10
0.0
 20
0.0
 11
1.0
 21
1.0
 12
0.0
 22
0.0
 13
0.0
 23
0.0
 14
0.5
 24
0.5
 15
0.5
 25
0.5
 16
0.0
 26
0.0
 36
1.0
 17
252.0
 27
252.0
 37
0.0
 40
504.0
 41
1.0
 42
50.0
 43
0.0
 44
0.0
 50
0.0
 51
0.0
 71
     0
 72
   100
 73
     1
 74
     3
 75
     0
 76
     0
 77
     0
 78
     0
281
     0
 65
     1
110
0.0
120
0.0
130
0.0
111
1.0
121
0.0
131
0.0
112
0.0
122
1.0
132
0.0
 79
     0
146
0.0
 60
     3
 61
     5
292
     1
282
     1
141
0.0
142
0.0
 63
   250
361
3F
  0
ENDTAB
  0
TABLE
  2
LTYPE
  5
5
330
0
100
AcDbSymbolTable
 70
     1
  0
LTYPE
  5
14
330
5
100
AcDbSymbolTableRecord
100
AcDbLinetypeTableRecord
  2
ByBlock
 70
     0
  3

 72
    65
 73
     0
 40
0.0
  0
LTYPE
  5
15
330
5
100
AcDbSymbolTableRecord
100
AcDbLinetypeTableRecord
  2
ByLayer
 70
     0
  3

 72
    65
 73
     0
 40
0.0
  0
LTYPE
  5
16
330
5
100
AcDbSymbolTableRecord
100
AcDbLinetypeTableRecord
  2
Continuous
 70
     0
  3
Solid line
 72
    65
 73
     0
 40
0.0
  0
ENDTAB
  0
TABLE
  2
LAYER
  5
2
330
0
100
AcDbSymbolTable
 70
     2
  0
LAYER
  5
10
330
2
100
AcDbSymbolTableRecord
100
AcDbLayerTableRecord
  2
0
 70
     0
 62
     7
  6
Continuous
370
    -3
390
F
347
3E
  0
LAYER
  5
40
330
2
100
AcDbSymbolTableRecord
100
AcDbLayerTableRecord
  2
_U+0421_U+043B_U+043E_U+0439 1
 70
     0
 62
     7
  6
Continuous
370
    -3
390
F
347
3E
  0
ENDTAB
  0
TABLE
  2
STYLE
  5
3
330
0
100
AcDbSymbolTable
 70
     1
  0
STYLE
  5
11
330
3
100
AcDbSymbolTableRecord
100
AcDbTextStyleTableRecord
  2
Standard
 70
     0
 40
0.0
 41
1.0
 50
0.0
 71
     0
 42
0.2
  3
txt
  4

  0
ENDTAB
  0
TABLE
  2
VIEW
  5
6
330
0
100
AcDbSymbolTable
 70
     0
  0
ENDTAB
  0
TABLE
  2
UCS
  5
7
330
0
100
AcDbSymbolTable
 70
     0
  0
ENDTAB
  0
TABLE
  2
APPID
  5
9
330
0
100
AcDbSymbolTable
 70
     1
  0
APPID
  5
12
330
9
100
AcDbSymbolTableRecord
100
AcDbRegAppTableRecord
  2
ACAD
 70
     0
  0
ENDTAB
  0
TABLE
  2
DIMSTYLE
  5
A
330
0
100
AcDbSymbolTable
 70
     1
100
AcDbDimStyleTable
  0
DIMSTYLE
105
27
330
A
100
AcDbSymbolTableRecord
100
AcDbDimStyleTableRecord
  2
Standard
 70
     0
178
     0
340
11
  0
ENDTAB
  0
TABLE
  2
BLOCK_RECORD
  5
1
330
0
100
AcDbSymbolTable
 70
     1
  0
BLOCK_RECORD
  5
1F
330
1
100
AcDbSymbolTableRecord
100
AcDbBlockTableRecord
  2
*Model_Space
340
22
 70
     0
280
     1
281
     0
  0
BLOCK_RECORD
  5
1B
330
1
100
AcDbSymbolTableRecord
100
AcDbBlockTableRecord
  2
*Paper_Space
340
1E
 70
     0
280
     1
281
     0
  0
BLOCK_RECORD
  5
23
330
1
100
AcDbSymbolTableRecord
100
AcDbBlockTableRecord
  2
*Paper_Space0
340
26
 70
     0
280
     1
281
     0
  0
ENDTAB
  0
ENDSEC
  0
SECTION
  2
BLOCKS
  0
BLOCK
  5
20
330
1F
100
AcDbEntity
  8
0
100
AcDbBlockBegin
  2
*Model_Space
 70
     0
 10
0.0
 20
0.0
 30
0.0
  3
*Model_Space
  1

  0
ENDBLK
  5
21
330
1F
100
AcDbEntity
  8
0
100
AcDbBlockEnd
  0
BLOCK
  5
1C
330
1B
100
AcDbEntity
 67
     1
  8
0
100
AcDbBlockBegin
  2
*Paper_Space
 70
     0
 10
0.0
 20
0.0
 30
0.0
  3
*Paper_Space
  1

  0
ENDBLK
  5
1D
330
1B
100
AcDbEntity
 67
     1
  8
0
100
AcDbBlockEnd
  0
BLOCK
  5
24
330
23
100
AcDbEntity
  8
0
100
AcDbBlockBegin
  2
*Paper_Space0
 70
     0
 10
0.0
 20
0.0
 30
0.0
  3
*Paper_Space0
  1

  0
ENDBLK
  5
25
330
23
100
AcDbEntity
  8
0
100
AcDbBlockEnd
  0
ENDSEC
  0
SECTION
  2
ENTITIES
  0
SPLINE
  5
41
330
1F
100
AcDbEntity
  8
_U+0421_U+043B_U+043E_U+0439 1
 62
     1
420
 16711680
370
     9
100
AcDbSpline
210
0.0
220
0.0
230
1.0
 70
    11
 71
     3
 72
    29
 73
    25
 74
     0
 42
0.0000000001
 43
0.0000000001
 12
1.0
 22
0.0
 32
0.0
 13
1.0
 23
0.0
 33
0.0
 40
0.0
 40
0.0
 40
0.0
 40
0.0
 40
1.0
 40
1.0
 40
1.0
 40
2.0
 40
2.0
 40
2.0
 40
3.0
 40
3.0
 40
3.0
 40
4.0
 40
4.0
 40
4.0
 40
5.0
 40
5.0
 40
5.0
 40
6.0
 40
6.0
 40
6.0
 40
7.0
 40
7.0
 40
7.0
 40
8.0
 40
8.0
 40
8.0
 40
8.0
 10
305.3940124511719
 20
488.1999998092651
 30
0.0
 10
305.3940124511719
 20
488.1999998092651
 30
0.0
 10
198.6060028076172
 20
488.1999998092651
 30
0.0
 10
198.6060028076172
 20
488.1999998092651
 30
0.0
 10
191.9089965820312
 20
488.1999998092651
 30
0.0
 10
186.4799957275391
 20
482.7709999084473
 30
0.0
 10
186.4799957275391
 20
476.0739994049072
 30
0.0
 10
186.4799957275391
 20
476.0739994049072
 30
0.0
 10
186.4799957275391
 20
17.92599487304688
 30
0.0
 10
186.4799957275391
 20
17.92599487304688
 30
0.0
 10
186.4799957275391
 20
11.22900390625
 30
0.0
 10
191.9089965820312
 20
5.79998779296875
 30
0.0
 10
198.6060028076172
 20
5.79998779296875
 30
0.0
 10
198.6060028076172
 20
5.79998779296875
 30
0.0
 10
305.3940124511719
 20
5.79998779296875
 30
0.0
 10
305.3940124511719
 20
5.79998779296875
 30
0.0
 10
312.0910034179688
 20
5.79998779296875
 30
0.0
 10
317.52001953125
 20
11.22897338867188
 30
0.0
 10
317.52001953125
 20
17.92599487304688
 30
0.0
 10
317.52001953125
 20
17.92599487304688
 30
0.0
 10
317.52001953125
 20
476.0739994049072
 30
0.0
 10
317.52001953125
 20
476.0739994049072
 30
0.0
 10
317.5199890136719
 20
482.7709999084473
 30
0.0
 10
312.0910034179688
 20
488.1999998092651
 30
0.0
 10
305.3940124511719
 20
488.1999998092651
 30
0.0
  0
SPLINE
  5
42
330
1F
100
AcDbEntity
  8
_U+0421_U+043B_U+043E_U+0439 1
 62
     1
420
 16711680
370
     9
100
AcDbSpline
210
0.0
220
0.0
230
1.0
 70
    11
 71
     3
 72
    17
 73
    13
 74
     0
 42
0.0000000001
 43
0.0000000001
 12
1.0
 22
0.0
 32
0.0
 13
1.0
 23
0.0
 33
0.0
 40
0.0
 40
0.0
 40
0.0
 40
0.0
 40
1.0
 40
1.0
 40
1.0
 40
2.0
 40
2.0
 40
2.0
 40
3.0
 40
3.0
 40
3.0
 40
4.0
 40
4.0
 40
4.0
 40
4.0
 10
252.0
 20
455.6370010375977
 30
0.0
 10
248.0859985351562
 20
455.6370010375977
 30
0.0
 10
244.9129943847656
 20
458.810001373291
 30
0.0
 10
244.9129943847656
 20
462.7239990234375
 30
0.0
 10
244.9129943847656
 20
466.6380004882812
 30
0.0
 10
248.0859985351562
 20
469.8109970092773
 30
0.0
 10
252.0
 20
469.8109970092773
 30
0.0
 10
255.9140014648438
 20
469.8109970092773
 30
0.0
 10
259.0870056152344
 20
466.637996673584
 30
0.0
 10
259.0870056152344
 20
462.7239990234375
 30
0.0
 10
259.0870056152344
 20
458.810001373291
 30
0.0
 10
255.9140014648438
 20
455.6370010375977
 30
0.0
 10
252.0
 20
455.6370010375977
 30
0.0
  0
SPLINE
  5
43
330
1F
100
AcDbEntity
  8
_U+0421_U+043B_U+043E_U+0439 1
 62
     7
420
 16777215
370
     9
100
AcDbSpline
210
0.0
220
0.0
230
1.0
 70
    11
 71
     3
 72
    14
 73
    10
 74
     0
 42
0.0000000001
 43
0.0000000001
 12
1.0
 22
0.0
 32
0.0
 13
1.0
 23
0.0
 33
0.0
 40
0.0
 40
0.0
 40
0.0
 40
0.0
 40
1.0
 40
1.0
 40
1.0
 40
2.0
 40
2.0
 40
2.0
 40
3.0
 40
3.0
 40
3.0
 40
3.0
 10
232.0410003662109
 20
330.5019989013672
 30
0.0
 10
232.1029968261719
 20
323.1819915771484
 30
0.0
 10
231.5919952392578
 20
322.8110046386719
 30
0.0
 10
234.1609954833984
 20
323.7180023193359
 30
0.0
 10
248.4069976806641
 20
328.7550048828125
 30
0.0
 10
246.6269989013672
 20
346.7480010986328
 30
0.0
 10
233.1429901123047
 20
348.0379943847656
 30
0.0
 10
231.1450042724609
 20
348.2209930419922
 30
0.0
 10
231.8970031738281
 20
347.6130065917969
 30
0.0
 10
232.0410003662109
 20
330.5019989013672
 30
0.0
  0
SPLINE
  5
44
330
1F
100
AcDbEntity
  8
_U+0421_U+043B_U+043E_U+0439 1
 62
     7
420
 16777215
370
     9
100
AcDbSpline
210
0.0
220
0.0
230
1.0
 70
    11
 71
     3
 72
    17
 73
    13
 74
     0
 42
0.0000000001
 43
0.0000000001
 12
1.0
 22
0.0
 32
0.0
 13
1.0
 23
0.0
 33
0.0
 40
0.0
 40
0.0
 40
0.0
 40
0.0
 40
1.0
 40
1.0
 40
1.0
 40
2.0
 40
2.0
 40
2.0
 40
3.0
 40
3.0
 40
3.0
 40
4.0
 40
4.0
 40
4.0
 40
4.0
 10
233.3719940185547
 20
346.6009979248047
 30
0.0
 10
241.6279907226562
 20
346.6009979248047
 30
0.0
 10
245.7589874267578
 20
335.3849945068359
 30
0.0
 10
240.0649871826172
 20
329.2839965820312
 30
0.0
 10
237.2019805908203
 20
326.2129974365234
 30
0.0
 10
233.8139801025391
 20
324.8849945068359
 30
0.0
 10
233.5969848632812
 20
325.0220031738281
 30
0.0
 10
233.4299774169922
 20
325.1309967041016
 30
0.0
 10
233.1959838867188
 20
346.1910095214844
 30
0.0
 10
233.18798828125
 20
346.3910064697266
 30
0.0
 10
233.1820068359375
 20
346.5650024414062
 30
0.0
 10
233.2259979248047
 20
346.6009979248047
 30
0.0
 10
233.3719940185547
 20
346.6009979248047
 30
0.0
  0
SPLINE
  5
45
330
1F
100
AcDbEntity
  8
_U+0421_U+043B_U+043E_U+0439 1
 62
     7
420
 16777215
370
     9
100
AcDbSpline
210
0.0
220
0.0
230
1.0
 70
    11
 71
     3
 72
    41
 73
    37
 74
     0
 42
0.0000000001
 43
0.0000000001
 12
1.0
 22
0.0
 32
0.0
 13
1.0
 23
0.0
 33
0.0
 40
0.0
 40
0.0
 40
0.0
 40
0.0
 40
1.0
 40
1.0
 40
1.0
 40
2.0
 40
2.0
 40
2.0
 40
3.0
 40
3.0
 40
3.0
 40
4.0
 40
4.0
 40
4.0
 40
5.0
 40
5.0
 40
5.0
 40
6.0
 40
6.0
 40
6.0
 40
7.0
 40
7.0
 40
7.0
 40
8.0
 40
8.0
 40
8.0
 40
9.0
 40
9.0
 40
9.0
 40
10.0
 40
10.0
 40
10.0
 40
11.0
 40
11.0
 40
11.0
 40
12.0
 40
12.0
 40
12.0
 40
12.0
 10
244.5399932861328
 20
323.8099975585938
 30
0.0
 10
244.5559997558594
 20
324.0699920654297
 30
0.0
 10
244.7089996337891
 20
324.2649993896484
 30
0.0
 10
244.9819946289062
 20
324.375
 30
0.0
 10
246.3009948730469
 20
324.9029998779297
 30
0.0
 10
246.1080017089844
 20
321.8890075683594
 30
0.0
 10
246.1230010986328
 20
336.3650054931641
 30
0.0
 10
246.1320037841797
 20
347.1480102539062
 30
0.0
 10
246.4810028076172
 20
346.3800048828125
 30
0.0
 10
245.8090057373047
 20
346.4410095214844
 30
0.0
 10
244.4350128173828
 20
346.5590057373047
 30
0.0
 10
244.6090087890625
 20
347.8290100097656
 30
0.0
 10
245.8140106201172
 20
347.8490142822266
 30
0.0
 10
246.6020050048828
 20
347.8560180664062
 30
0.0
 10
247.4920043945312
 20
347.8530120849609
 30
0.0
 10
248.2610168457031
 20
347.9190216064453
 30
0.0
 10
249.5880126953125
 20
348.0270233154297
 30
0.0
 10
249.7080230712891
 20
346.5030212402344
 30
0.0
 10
248.3660125732422
 20
346.4920196533203
 30
0.0
 10
247.2980194091797
 20
346.4810180664062
 30
0.0
 10
247.6380157470703
 20
348.6010131835938
 30
0.0
 10
247.4750061035156
 20
325.3280181884766
 30
0.0
 10
247.4680023193359
 20
324.3920135498047
 30
0.0
 10
247.4670104980469
 20
324.4440155029297
 30
0.0
 10
248.1260070800781
 20
324.4550170898438
 30
0.0
 10
248.3900146484375
 20
324.4580230712891
 30
0.0
 10
248.6800079345703
 20
324.4810180664062
 30
0.0
 10
248.9110107421875
 20
324.3790130615234
 30
0.0
 10
249.5480041503906
 20
324.0970153808594
 30
0.0
 10
249.4260101318359
 20
323.3130187988281
 30
0.0
 10
248.8950042724609
 20
323.1570129394531
 30
0.0
 10
248.3440093994141
 20
323.0000152587891
 30
0.0
 10
246.2320098876953
 20
323.0480194091797
 30
0.0
 10
245.6139984130859
 20
323.0490112304688
 30
0.0
 10
245.0339965820312
 20
323.0469970703125
 30
0.0
 10
244.5059967041016
 20
323.2380065917969
 30
0.0
 10
244.5399932861328
 20
323.8099975585938
 30
0.0
  0
SPLINE
  5
46
330
1F
100
AcDbEntity
  8
_U+0421_U+043B_U+043E_U+0439 1
 62
     7
420
 16777215
370
     9
100
AcDbSpline
210
0.0
220
0.0
230
1.0
 70
    11
 71
     3
 72
    26
 73
    22
 74
     0
 42
0.0000000001
 43
0.0000000001
 12
1.0
 22
0.0
 32
0.0
 13
1.0
 23
0.0
 33
0.0
 40
0.0
 40
0.0
 40
0.0
 40
0.0
 40
1.0
 40
1.0
 40
1.0
 40
2.0
 40
2.0
 40
2.0
 40
3.0
 40
3.0
 40
3.0
 40
4.0
 40
4.0
 40
4.0
 40
5.0
 40
5.0
 40
5.0
 40
6.0
 40
6.0
 40
6.0
 40
7.0
 40
7.0
 40
7.0
 40
7.0
 10
260.1029968261719
 20
347.8639984130859
 30
0.0
 10
261.1029968261719
 20
347.6289978027344
 30
0.0
 10
260.5549926757812
 20
346.7299957275391
 30
0.0
 10
258.6199951171875
 20
337.9069976806641
 30
0.0
 10
255.6510009765625
 20
324.3789978027344
 30
0.0
 10
255.8759918212891
 20
323.6969909667969
 30
0.0
 10
254.9109954833984
 20
323.6969909667969
 30
0.0
 10
254.5759887695312
 20
323.6969909667969
 30
0.0
 10
254.3209991455078
 20
323.8639984130859
 30
0.0
 10
254.2129974365234
 20
324.1549835205078
 30
0.0
 10
254.0099945068359
 20
324.6899871826172
 30
0.0
 10
250.2429962158203
 20
346.7219848632812
 30
0.0
 10
250.2079925537109
 20
347.0829772949219
 30
0.0
 10
250.135986328125
 20
347.8089752197266
 30
0.0
 10
250.7569885253906
 20
348.1449737548828
 30
0.0
 10
251.2049865722656
 20
347.8589782714844
 30
0.0
 10
251.7449798583984
 20
347.5129852294922
 30
0.0
 10
251.7669830322266
 20
346.1599731445312
 30
0.0
 10
254.9549865722656
 20
327.6389770507812
 30
0.0
 10
259.3970031738281
 20
347.6840057373047
 30
0.0
 10
259.1019897460938
 20
348.1000061035156
 30
0.0
 10
260.1029968261719
 20
347.8639984130859
 30
0.0
  0
SPLINE
  5
47
330
1F
100
AcDbEntity
  8
_U+0421_U+043B_U+043E_U+0439 1
 62
     7
420
 16777215
370
     9
100
AcDbSpline
210
0.0
220
0.0
230
1.0
 70
    11
 71
     3
 72
    47
 73
    43
 74
     0
 42
0.0000000001
 43
0.0000000001
 12
1.0
 22
0.0
 32
0.0
 13
1.0
 23
0.0
 33
0.0
 40
0.0
 40
0.0
 40
0.0
 40
0.0
 40
1.0
 40
1.0
 40
1.0
 40
2.0
 40
2.0
 40
2.0
 40
3.0
 40
3.0
 40
3.0
 40
4.0
 40
4.0
 40
4.0
 40
5.0
 40
5.0
 40
5.0
 40
6.0
 40
6.0
 40
6.0
 40
7.0
 40
7.0
 40
7.0
 40
8.0
 40
8.0
 40
8.0
 40
9.0
 40
9.0
 40
9.0
 40
10.0
 40
10.0
 40
10.0
 40
11.0
 40
11.0
 40
11.0
 40
12.0
 40
12.0
 40
12.0
 40
13.0
 40
13.0
 40
13.0
 40
14.0
 40
14.0
 40
14.0
 40
14.0
 10
263.6690063476562
 20
346.7610015869141
 30
0.0
 10
263.7350158691406
 20
348.052001953125
 30
0.0
 10
263.9540100097656
 20
347.7299957275391
 30
0.0
 10
271.6900024414062
 20
347.7169952392578
 30
0.0
 10
272.3139953613281
 20
347.7209930419922
 30
0.0
 10
272.9360046386719
 20
347.593994140625
 30
0.0
 10
272.8970031738281
 20
346.9709930419922
 30
0.0
 10
272.8320007324219
 20
345.9709930419922
 30
0.0
 10
271.677001953125
 20
346.3049926757812
 30
0.0
 10
265.8389892578125
 20
346.3269958496094
 30
0.0
 10
264.8159790039062
 20
346.3399963378906
 30
0.0
 10
265.0079956054688
 20
346.8730010986328
 30
0.0
 10
265.1579895019531
 20
341.0009918212891
 30
0.0
 10
265.1739807128906
 20
340.4219970703125
 30
0.0
 10
265.2590026855469
 20
340.6339874267578
 30
0.0
 10
267.3919982910156
 20
340.8219909667969
 30
0.0
 10
268.3739929199219
 20
340.9069976806641
 30
0.0
 10
268.6520080566406
 20
340.56298828125
 30
0.0
 10
268.635009765625
 20
340.1509857177734
 30
0.0
 10
268.60400390625
 20
339.3919830322266
 30
0.0
 10
267.7310180664062
 20
339.4409790039062
 30
0.0
 10
266.9540100097656
 20
339.3699798583984
 30
0.0
 10
266.4660034179688
 20
339.323974609375
 30
0.0
 10
265.9840087890625
 20
339.2739868164062
 30
0.0
 10
265.5120239257812
 20
339.2409820556641
 30
0.0
 10
265.2540283203125
 20
339.2219848632812
 30
0.0
 10
265.1640319824219
 20
339.1179809570312
 30
0.0
 10
265.1680297851562
 20
338.8439788818359
 30
0.0
 10
265.2930297851562
 20
329.4819793701172
 30
0.0
 10
265.291015625
 20
328.5499725341797
 30
0.0
 10
265.3090209960938
 20
325.5849761962891
 30
0.0
 10
265.3090209960938
 20
324.5849761962891
 30
0.0
 10
264.8390197753906
 20
324.8589782714844
 30
0.0
 10
270.030029296875
 20
325.0779724121094
 30
0.0
 10
271.4080200195312
 20
325.1189727783203
 30
0.0
 10
271.3830261230469
 20
323.7379760742188
 30
0.0
 10
269.9870300292969
 20
323.6709747314453
 30
0.0
 10
262.166015625
 20
323.2869720458984
 30
0.0
 10
264.166015625
 20
321.8319702148438
 30
0.0
 10
263.8600158691406
 20
332.6869812011719
 30
0.0
 10
263.8559875488281
 20
332.8500061035156
 30
0.0
 10
263.6570129394531
 20
346.5110015869141
 30
0.0
 10
263.6690063476562
 20
346.7610015869141
 30
0.0
  0
SPLINE
  5
48
330
1F
100
AcDbEntity
  8
_U+0421_U+043B_U+043E_U+0439 1
 62
     7
420
 16777215
370
     9
100
AcDbSpline
210
0.0
220
0.0
230
1.0
 70
    11
 71
     3
 72
    38
 73
    34
 74
     0
 42
0.0000000001
 43
0.0000000001
 12
1.0
 22
0.0
 32
0.0
 13
1.0
 23
0.0
 33
0.0
 40
0.0
 40
0.0
 40
0.0
 40
0.0
 40
1.0
 40
1.0
 40
1.0
 40
2.0
 40
2.0
 40
2.0
 40
3.0
 40
3.0
 40
3.0
 40
4.0
 40
4.0
 40
4.0
 40
5.0
 40
5.0
 40
5.0
 40
6.0
 40
6.0
 40
6.0
 40
7.0
 40
7.0
 40
7.0
 40
8.0
 40
8.0
 40
8.0
 40
9.0
 40
9.0
 40
9.0
 40
10.0
 40
10.0
 40
10.0
 40
11.0
 40
11.0
 40
11.0
 40
11.0
 10
229.6940002441406
 20
281.8569946289062
 30
0.0
 10
229.7299957275391
 20
282.4420013427734
 30
0.0
 10
230.2400054931641
 20
282.4579925537109
 30
0.0
 10
230.781005859375
 20
282.4960021972656
 30
0.0
 10
231.1310119628906
 20
282.5220031738281
 30
0.0
 10
231.1340026855469
 20
282.5250091552734
 30
0.0
 10
231.1590118408203
 20
282.8509979248047
 30
0.0
 10
231.2740173339844
 20
284.3260040283203
 30
0.0
 10
231.2740173339844
 20
292.9129943847656
 30
0.0
 10
231.2760162353516
 20
294.4120025634766
 30
0.0
 10
231.2850189208984
 20
305.1930084228516
 30
0.0
 10
231.635009765625
 20
304.427001953125
 30
0.0
 10
230.9620208740234
 20
304.4880065917969
 30
0.0
 10
230.4830169677734
 20
304.5290069580078
 30
0.0
 10
230.0320281982422
 20
304.6780090332031
 30
0.0
 10
230.0100250244141
 20
305.1580047607422
 30
0.0
 10
229.9660186767578
 20
306.1890106201172
 30
0.0
 10
231.3740234375
 20
305.7900085449219
 30
0.0
 10
233.4150238037109
 20
305.9660034179688
 30
0.0
 10
234.7380218505859
 20
306.0790100097656
 30
0.0
 10
234.8750305175781
 20
304.5500030517578
 30
0.0
 10
233.52001953125
 20
304.5390014648438
 30
0.0
 10
232.52001953125
 20
304.5290069580078
 30
0.0
 10
232.7760162353516
 20
304.843994140625
 30
0.0
 10
232.7380218505859
 20
299.2830047607422
 30
0.0
 10
232.6120147705078
 20
280.531005859375
 30
0.0
 10
232.2050170898438
 20
282.4909973144531
 30
0.0
 10
233.5140228271484
 20
282.5039978027344
 30
0.0
 10
234.7850189208984
 20
282.5009918212891
 30
0.0
 10
234.9450225830078
 20
281.125
 30
0.0
 10
233.4120178222656
 20
281.1020050048828
 30
0.0
 10
231.1430053710938
 20
281.072998046875
 30
0.0
 10
229.6349945068359
 20
280.8569946289062
 30
0.0
 10
229.6940002441406
 20
281.8569946289062
 30
0.0
  0
SPLINE
  5
49
330
1F
100
AcDbEntity
  8
_U+0421_U+043B_U+043E_U+0439 1
 62
     7
420
 16777215
370
     9
100
AcDbSpline
210
0.0
220
0.0
230
1.0
 70
    11
 71
     3
 72
    41
 73
    37
 74
     0
 42
0.0000000001
 43
0.0000000001
 12
1.0
 22
0.0
 32
0.0
 13
1.0
 23
0.0
 33
0.0
 40
0.0
 40
0.0
 40
0.0
 40
0.0
 40
1.0
 40
1.0
 40
1.0
 40
2.0
 40
2.0
 40
2.0
 40
3.0
 40
3.0
 40
3.0
 40
4.0
 40
4.0
 40
4.0
 40
5.0
 40
5.0
 40
5.0
 40
6.0
 40
6.0
 40
6.0
 40
7.0
 40
7.0
 40
7.0
 40
8.0
 40
8.0
 40
8.0
 40
9.0
 40
9.0
 40
9.0
 40
10.0
 40
10.0
 40
10.0
 40
11.0
 40
11.0
 40
11.0
 40
12.0
 40
12.0
 40
12.0
 40
12.0
 10
237.6139984130859
 20
282.8209991455078
 30
0.0
 10
237.6669921875
 20
281.1880035400391
 30
0.0
 10
236.3320007324219
 20
281.2539978027344
 30
0.0
 10
236.2409973144531
 20
282.2200012207031
 30
0.0
 10
236.0500030517578
 20
284.2620086669922
 30
0.0
 10
235.9909973144531
 20
294.2050018310547
 30
0.0
 10
236.0449981689453
 20
296.2949981689453
 30
0.0
 10
236.2910003662109
 20
305.8690032958984
 30
0.0
 10
235.8370056152344
 20
306.0039978027344
 30
0.0
 10
236.5989990234375
 20
306.2550048828125
 30
0.0
 10
236.9649963378906
 20
306.3780059814453
 30
0.0
 10
237.3759918212891
 20
306.2369995117188
 30
0.0
 10
237.6410064697266
 20
305.4609985351562
 30
0.0
 10
237.9340057373047
 20
304.6060028076172
 30
0.0
 10
244.6750030517578
 20
285.2160034179688
 30
0.0
 10
244.6750030517578
 20
285.2160034179688
 30
0.0
 10
244.7770080566406
 20
285.7340087890625
 30
0.0
 10
245.3290100097656
 20
304.6329956054688
 30
0.0
 10
245.4940032958984
 20
305.4049987792969
 30
0.0
 10
245.5760040283203
 20
305.7969970703125
 30
0.0
 10
245.8399963378906
 20
306.0460052490234
 30
0.0
 10
246.1710052490234
 20
306.0460052490234
 30
0.0
 10
246.1800079345703
 20
306.0460052490234
 30
0.0
 10
246.1880035400391
 20
306.0460052490234
 30
0.0
 10
246.1970062255859
 20
306.0460052490234
 30
0.0
 10
247.1970062255859
 20
306.0039978027344
 30
0.0
 10
247.0730133056641
 20
306.1640014648438
 30
0.0
 10
245.9910125732422
 20
283.2050018310547
 30
0.0
 10
245.9530181884766
 20
282.3880004882812
 30
0.0
 10
245.9200134277344
 20
281.2530059814453
 30
0.0
 10
245.0980072021484
 20
281.2530059814453
 30
0.0
 10
243.9050140380859
 20
281.2530059814453
 30
0.0
 10
240.7369995117188
 20
293.2460021972656
 30
0.0
 10
237.4990081787109
 20
301.6660003662109
 30
0.0
 10
237.5099945068359
 20
292.1080017089844
 30
0.0
 10
237.4140014648438
 20
288.8300018310547
 30
0.0
 10
237.6139984130859
 20
282.8209991455078
 30
0.0
  0
SPLINE
  5
4A
330
1F
100
AcDbEntity
  8
_U+0421_U+043B_U+043E_U+0439 1
 62
     7
420
 16777215
370
     9
100
AcDbSpline
210
0.0
220
0.0
230
1.0
 70
    11
 71
     3
 72
    29
 73
    25
 74
     0
 42
0.0000000001
 43
0.0000000001
 12
1.0
 22
0.0
 32
0.0
 13
1.0
 23
0.0
 33
0.0
 40
0.0
 40
0.0
 40
0.0
 40
0.0
 40
1.0
 40
1.0
 40
1.0
 40
2.0
 40
2.0
 40
2.0
 40
3.0
 40
3.0
 40
3.0
 40
4.0
 40
4.0
 40
4.0
 40
5.0
 40
5.0
 40
5.0
 40
6.0
 40
6.0
 40
6.0
 40
7.0
 40
7.0
 40
7.0
 40
8.0
 40
8.0
 40
8.0
 40
8.0
 10
260.8089904785156
 20
305.9239959716797
 30
0.0
 10
261.4259948730469
 20
305.927001953125
 30
0.0
 10
262.0480041503906
 20
305.8239898681641
 30
0.0
 10
262.0359802246094
 20
305.2019958496094
 30
0.0
 10
262.0159912109375
 20
304.2019958496094
 30
0.0
 10
260.5299682617188
 20
304.5099945068359
 30
0.0
 10
257.7349853515625
 20
304.5090026855469
 30
0.0
 10
255.0989837646484
 20
304.5079956054688
 30
0.0
 10
255.8539886474609
 20
307.2160034179688
 30
0.0
 10
255.9059906005859
 20
283.1100006103516
 30
0.0
 10
255.9079895019531
 20
282.8869934082031
 30
0.0
 10
255.9089965820312
 20
282.656005859375
 30
0.0
 10
255.8829956054688
 20
282.4290008544922
 30
0.0
 10
255.7829895019531
 20
281.5839996337891
 30
0.0
 10
254.5069885253906
 20
281.3979949951172
 30
0.0
 10
254.5139923095703
 20
283.0330047607422
 30
0.0
 10
254.5139923095703
 20
284.4830017089844
 30
0.0
 10
254.4609985351562
 20
304.2279968261719
 30
0.0
 10
254.4609985351562
 20
304.2279968261719
 30
0.0
 10
254.4700012207031
 20
305.1579895019531
 30
0.0
 10
249.4499969482422
 20
303.6199951171875
 30
0.0
 10
249.4770050048828
 20
305.197998046875
 30
0.0
 10
249.4929962158203
 20
306.1990051269531
 30
0.0
 10
250.3829956054688
 20
305.9400024414062
 30
0.0
 10
260.8089904785156
 20
305.9239959716797
 30
0.0
  0
SPLINE
  5
4B
330
1F
100
AcDbEntity
  8
_U+0421_U+043B_U+043E_U+0439 1
 62
     7
420
 16777215
370
     9
100
AcDbSpline
210
0.0
220
0.0
230
1.0
 70
    11
 71
     3
 72
    14
 73
    10
 74
     0
 42
0.0000000001
 43
0.0000000001
 12
1.0
 22
0.0
 32
0.0
 13
1.0
 23
0.0
 33
0.0
 40
0.0
 40
0.0
 40
0.0
 40
0.0
 40
1.0
 40
1.0
 40
1.0
 40
2.0
 40
2.0
 40
2.0
 40
3.0
 40
3.0
 40
3.0
 40
3.0
 10
264.9819946289062
 20
283.1869964599609
 30
0.0
 10
269.2319946289062
 20
277.8339996337891
 30
0.0
 10
275.2470092773438
 20
285.5820007324219
 30
0.0
 10
273.6229858398438
 20
297.375
 30
0.0
 10
272.2630004882812
 20
307.2989959716797
 30
0.0
 10
266.5269775390625
 20
308.8890075683594
 30
0.0
 10
263.7569885253906
 20
302.7790069580078
 30
0.0
 10
260.9609985351562
 20
296.6080017089844
 30
0.0
 10
261.81201171875
 20
287.1840057373047
 30
0.0
 10
264.9819946289062
 20
283.1869964599609
 30
0.0
  0
SPLINE
  5
4C
330
1F
100
AcDbEntity
  8
_U+0421_U+043B_U+043E_U+0439 1
 62
     7
420
 16777215
370
     9
100
AcDbSpline
210
0.0
220
0.0
230
1.0
 70
    11
 71
     3
 72
    14
 73
    10
 74
     0
 42
0.0000000001
 43
0.0000000001
 12
1.0
 22
0.0
 32
0.0
 13
1.0
 23
0.0
 33
0.0
 40
0.0
 40
0.0
 40
0.0
 40
0.0
 40
1.0
 40
1.0
 40
1.0
 40
2.0
 40
2.0
 40
2.0
 40
3.0
 40
3.0
 40
3.0
 40
3.0
 10
269.5090026855469
 20
304.2239990234375
 30
0.0
 10
271.4429931640625
 20
302.3410034179688
 30
0.0
 10
272.1549987792969
 20
298.5379943847656
 30
0.0
 10
272.3840026855469
 20
295.8359985351562
 30
0.0
 10
273.0339965820312
 20
288.1889953613281
 30
0.0
 10
269.9729919433594
 20
281.1860046386719
 30
0.0
 10
266.9410095214844
 20
283.2209930419922
 30
0.0
 10
260.4989929199219
 20
287.5619964599609
 30
0.0
 10
264.0480041503906
 20
309.5370025634766
 30
0.0
 10
269.5090026855469
 20
304.2239990234375
 30
0.0
  0
SPLINE
  5
4D
330
1F
100
AcDbEntity
  8
_U+0421_U+043B_U+043E_U+0439 1
 62
     7
420
 16777215
370
     9
100
AcDbSpline
210
0.0
220
0.0
230
1.0
 70
    11
 71
     3
 72
    29
 73
    25
 74
     0
 42
0.0000000001
 43
0.0000000001
 12
1.0
 22
0.0
 32
0.0
 13
1.0
 23
0.0
 33
0.0
 40
0.0
 40
0.0
 40
0.0
 40
0.0
 40
1.0
 40
1.0
 40
1.0
 40
2.0
 40
2.0
 40
2.0
 40
3.0
 40
3.0
 40
3.0
 40
4.0
 40
4.0
 40
4.0
 40
5.0
 40
5.0
 40
5.0
 40
6.0
 40
6.0
 40
6.0
 40
7.0
 40
7.0
 40
7.0
 40
8.0
 40
8.0
 40
8.0
 40
8.0
 10
255.8040008544922
 20
244.2139892578125
 30
0.0
 10
256.6730041503906
 20
240.5009765625
 30
0.0
 10
256.656005859375
 20
238.9289855957031
 30
0.0
 10
257.64599609375
 20
239.1269836425781
 30
0.0
 10
258.64599609375
 20
239.3179931640625
 30
0.0
 10
258.3890075683594
 20
239.1019897460938
 30
0.0
 10
252.9989929199219
 20
262.7329864501953
 30
0.0
 10
252.8689880371094
 20
263.2999877929688
 30
0.0
 10
252.7199859619141
 20
263.8119812011719
 30
0.0
 10
252.1380004882812
 20
263.8119812011719
 30
0.0
 10
251.47900390625
 20
263.8119812011719
 30
0.0
 10
251.3809967041016
 20
263.083984375
 30
0.0
 10
251.2330017089844
 20
262.4389801025391
 30
0.0
 10
245.8139953613281
 20
238.6899719238281
 30
0.0
 10
245.5610046386719
 20
239.0929870605469
 30
0.0
 10
246.5910034179688
 20
238.8829956054688
 30
0.0
 10
247.5910034179688
 20
238.6829833984375
 30
0.0
 10
247.5810089111328
 20
240.2919921875
 30
0.0
 10
248.5070037841797
 20
244.2689819335938
 30
0.0
 10
248.6820068359375
 20
245.0199890136719
 30
0.0
 10
248.2360076904297
 20
244.7619934082031
 30
0.0
 10
255.1090087890625
 20
244.7889709472656
 30
0.0
 10
255.6699981689453
 20
244.7959899902344
 30
0.0
 10
255.6699981689453
 20
244.7919921875
 30
0.0
 10
255.8040008544922
 20
244.2139892578125
 30
0.0
  0
SPLINE
  5
4E
330
1F
100
AcDbEntity
  8
_U+0421_U+043B_U+043E_U+0439 1
 62
     7
420
 16777215
370
     9
100
AcDbSpline
210
0.0
220
0.0
230
1.0
 70
    11
 71
     3
 72
    17
 73
    13
 74
     0
 42
0.0000000001
 43
0.0000000001
 12
1.0
 22
0.0
 32
0.0
 13
1.0
 23
0.0
 33
0.0
 40
0.0
 40
0.0
 40
0.0
 40
0.0
 40
1.0
 40
1.0
 40
1.0
 40
2.0
 40
2.0
 40
2.0
 40
3.0
 40
3.0
 40
3.0
 40
4.0
 40
4.0
 40
4.0
 40
4.0
 10
249.4279937744141
 20
246.1619873046875
 30
0.0
 10
248.6679992675781
 20
246.1559753417969
 30
0.0
 10
248.8379974365234
 20
245.7489929199219
 30
0.0
 10
250.4700012207031
 20
252.9249877929688
 30
0.0
 10
250.5910034179688
 20
253.458984375
 30
0.0
 10
252.0099945068359
 20
259.7029876708984
 30
0.0
 10
252.1520080566406
 20
260.2319946289062
 30
0.0
 10
252.18701171875
 20
260.0769958496094
 30
0.0
 10
255.3560028076172
 20
246.3919982910156
 30
0.0
 10
255.2560119628906
 20
246.2689819335938
 30
0.0
 10
255.1660003662109
 20
246.1589965820312
 30
0.0
 10
249.5700073242188
 20
246.1619873046875
 30
0.0
 10
249.4279937744141
 20
246.1619873046875
 30
0.0
  0
SPLINE
  5
4F
330
1F
100
AcDbEntity
  8
_U+0421_U+043B_U+043E_U+0439 1
 62
     7
420
 16777215
370
     9
100
AcDbSpline
210
0.0
220
0.0
230
1.0
 70
    11
 71
     3
 72
    35
 73
    31
 74
     0
 42
0.0000000001
 43
0.0000000001
 12
1.0
 22
0.0
 32
0.0
 13
1.0
 23
0.0
 33
0.0
 40
0.0
 40
0.0
 40
0.0
 40
0.0
 40
1.0
 40
1.0
 40
1.0
 40
2.0
 40
2.0
 40
2.0
 40
3.0
 40
3.0
 40
3.0
 40
4.0
 40
4.0
 40
4.0
 40
5.0
 40
5.0
 40
5.0
 40
6.0
 40
6.0
 40
6.0
 40
7.0
 40
7.0
 40
7.0
 40
8.0
 40
8.0
 40
8.0
 40
9.0
 40
9.0
 40
9.0
 40
10.0
 40
10.0
 40
10.0
 40
10.0
 10
236.7890014648438
 20
216.0320129394531
 30
0.0
 10
236.9259948730469
 20
215.5340270996094
 30
0.0
 10
236.8950042724609
 20
215.0110168457031
 30
0.0
 10
236.3919982910156
 20
214.8780212402344
 30
0.0
 10
236.0469970703125
 20
214.7840270996094
 30
0.0
 10
235.6730041503906
 20
214.9280090332031
 30
0.0
 10
235.4589996337891
 20
215.7000122070312
 30
0.0
 10
233.427001953125
 20
223.0400085449219
 30
0.0
 10
229.1649932861328
 20
222.3330078125
 30
0.0
 10
227.6600036621094
 20
215.2520141601562
 30
0.0
 10
225.3870086669922
 20
204.5500183105469
 30
0.0
 10
231.0630035400391
 20
195.3310241699219
 30
0.0
 10
234.2510070800781
 20
200.8440246582031
 30
0.0
 10
233.0810089111328
 20
200.85302734375
 30
0.0
 10
231.1190032958984
 20
200.4840393066406
 30
0.0
 10
230.9450073242188
 20
201.5760192871094
 30
0.0
 10
230.8320007324219
 20
202.2830200195312
 30
0.0
 10
231.5810089111328
 20
202.3900146484375
 30
0.0
 10
232.2820129394531
 20
202.5000305175781
 30
0.0
 10
234.4840087890625
 20
202.8540344238281
 30
0.0
 10
235.5270080566406
 20
202.6310424804688
 30
0.0
 10
235.9440155029297
 20
201.9000244140625
 30
0.0
 10
236.6390228271484
 20
200.6790161132812
 30
0.0
 10
231.8960113525391
 20
194.1240234375
 30
0.0
 10
228.0890197753906
 20
200.3730163574219
 30
0.0
 10
222.0230255126953
 20
210.3160095214844
 30
0.0
 10
228.6710205078125
 20
229.0020141601562
 30
0.0
 10
234.9250183105469
 20
220.1840209960938
 30
0.0
 10
235.7250061035156
 20
219.0559997558594
 30
0.0
 10
236.3170013427734
 20
217.7369995117188
 30
0.0
 10
236.7890014648438
 20
216.0320129394531
 30
0.0
  0
SPLINE
  5
50
330
1F
100
AcDbEntity
  8
_U+0421_U+043B_U+043E_U+0439 1
 62
     7
420
 16777215
370
     9
100
AcDbSpline
210
0.0
220
0.0
230
1.0
 70
    11
 71
     3
 72
    14
 73
    10
 74
     0
 42
0.0000000001
 43
0.0000000001
 12
1.0
 22
0.0
 32
0.0
 13
1.0
 23
0.0
 33
0.0
 40
0.0
 40
0.0
 40
0.0
 40
0.0
 40
1.0
 40
1.0
 40
1.0
 40
2.0
 40
2.0
 40
2.0
 40
3.0
 40
3.0
 40
3.0
 40
3.0
 10
247.4559936523438
 20
219.5379943847656
 30
0.0
 10
242.7070007324219
 20
228.3039855957031
 30
0.0
 10
235.2859954833984
 20
216.5180053710938
 30
0.0
 10
238.4329986572266
 20
204.2760009765625
 30
0.0
 10
238.8450012207031
 20
202.6740112304688
 30
0.0
 10
239.4319915771484
 20
200.8269958496094
 30
0.0
 10
240.6600036621094
 20
199.2789916992188
 30
0.0
 10
246.8009948730469
 20
191.5339965820312
 30
0.0
 10
252.9490051269531
 20
209.4030151367188
 30
0.0
 10
247.4559936523438
 20
219.5379943847656
 30
0.0
  0
SPLINE
  5
51
330
1F
100
AcDbEntity
  8
_U+0421_U+043B_U+043E_U+0439 1
 62
     7
420
 16777215
370
     9
100
AcDbSpline
210
0.0
220
0.0
230
1.0
 70
    11
 71
     3
 72
    11
 73
     7
 74
     0
 42
0.0000000001
 43
0.0000000001
 12
1.0
 22
0.0
 32
0.0
 13
1.0
 23
0.0
 33
0.0
 40
0.0
 40
0.0
 40
0.0
 40
0.0
 40
1.0
 40
1.0
 40
1.0
 40
2.0
 40
2.0
 40
2.0
 40
2.0
 10
246.9920043945312
 20
217.239013671875
 30
0.0
 10
250.4430084228516
 20
207.6910095214844
 30
0.0
 10
245.6260070800781
 20
194.2730102539062
 30
0.0
 10
241.4179992675781
 20
200.5640258789062
 30
0.0
 10
235.3040008544922
 20
209.72900390625
 30
0.0
 10
242.5339965820312
 20
229.5769958496094
 30
0.0
 10
246.9920043945312
 20
217.239013671875
 30
0.0
  0
SPLINE
  5
52
330
1F
100
AcDbEntity
  8
_U+0421_U+043B_U+043E_U+0439 1
 62
     7
420
 16777215
370
     9
100
AcDbSpline
210
0.0
220
0.0
230
1.0
 70
    11
 71
     3
 72
    14
 73
    10
 74
     0
 42
0.0000000001
 43
0.0000000001
 12
1.0
 22
0.0
 32
0.0
 13
1.0
 23
0.0
 33
0.0
 40
0.0
 40
0.0
 40
0.0
 40
0.0
 40
1.0
 40
1.0
 40
1.0
 40
2.0
 40
2.0
 40
2.0
 40
3.0
 40
3.0
 40
3.0
 40
3.0
 10
263.4299926757812
 20
209.9159851074219
 30
0.0
 10
263.4609985351562
 20
212.1929931640625
 30
0.0
 10
263.0459899902344
 20
216.3789978027344
 30
0.0
 10
261.3349914550781
 20
219.5379943847656
 30
0.0
 10
257.9199829101562
 20
225.8249816894531
 30
0.0
 10
251.6629943847656
 20
221.7720031738281
 30
0.0
 10
251.6289978027344
 20
209.9719848632812
 30
0.0
 10
251.5870056152344
 20
194.2569885253906
 30
0.0
 10
263.1619873046875
 20
192.6510009765625
 30
0.0
 10
263.4299926757812
 20
209.9159851074219
 30
0.0
  0
SPLINE
  5
53
330
1F
100
AcDbEntity
  8
_U+0421_U+043B_U+043E_U+0439 1
 62
     7
420
 16777215
370
     9
100
AcDbSpline
210
0.0
220
0.0
230
1.0
 70
    11
 71
     3
 72
    20
 73
    16
 74
     0
 42
0.0000000001
 43
0.0000000001
 12
1.0
 22
0.0
 32
0.0
 13
1.0
 23
0.0
 33
0.0
 40
0.0
 40
0.0
 40
0.0
 40
0.0
 40
1.0
 40
1.0
 40
1.0
 40
2.0
 40
2.0
 40
2.0
 40
3.0
 40
3.0
 40
3.0
 40
4.0
 40
4.0
 40
4.0
 40
5.0
 40
5.0
 40
5.0
 40
5.0
 10
253.0700073242188
 20
209.9509887695312
 30
0.0
 10
253.0700073242188
 20
209.9509887695312
 30
0.0
 10
253.0710144042969
 20
209.9539794921875
 30
0.0
 10
253.0710144042969
 20
209.9539794921875
 30
0.0
 10
253.0710144042969
 20
209.9539794921875
 30
0.0
 10
253.0700073242188
 20
209.9569702148438
 30
0.0
 10
253.0700073242188
 20
209.9569702148438
 30
0.0
 10
252.9080047607422
 20
219.4159545898438
 30
0.0
 10
257.9110107421875
 20
225.4299621582031
 30
0.0
 10
260.8710021972656
 20
217.2399597167969
 30
0.0
 10
262.5889892578125
 20
212.4859619140625
 30
0.0
 10
262.4559936523438
 20
204.8049621582031
 30
0.0
 10
259.9530029296875
 20
200.7379455566406
 30
0.0
 10
256.6849975585938
 20
195.4200134277344
 30
0.0
 10
252.8569946289062
 20
202.9349975585938
 30
0.0
 10
253.0700073242188
 20
209.9509887695312
 30
0.0
  0
SPLINE
  5
54
330
1F
100
AcDbEntity
  8
_U+0421_U+043B_U+043E_U+0439 1
 62
     7
420
 16777215
370
     9
100
AcDbSpline
210
0.0
220
0.0
230
1.0
 70
    11
 71
     3
 72
    14
 73
    10
 74
     0
 42
0.0000000001
 43
0.0000000001
 12
1.0
 22
0.0
 32
0.0
 13
1.0
 23
0.0
 33
0.0
 40
0.0
 40
0.0
 40
0.0
 40
0.0
 40
1.0
 40
1.0
 40
1.0
 40
2.0
 40
2.0
 40
2.0
 40
3.0
 40
3.0
 40
3.0
 40
3.0
 10
267.1659851074219
 20
222.1780090332031
 30
0.0
 10
265.1439819335938
 20
222.3680114746094
 30
0.0
 10
265.9249877929688
 20
221.791015625
 30
0.0
 10
266.0639953613281
 20
204.6430053710938
 30
0.0
 10
266.1260070800781
 20
197.3500061035156
 30
0.0
 10
265.60498046875
 20
196.9469909667969
 30
0.0
 10
268.1839904785156
 20
197.8569946289062
 30
0.0
 10
282.5050048828125
 20
202.9200134277344
 30
0.0
 10
280.5679931640625
 20
220.8949890136719
 30
0.0
 10
267.1659851074219
 20
222.1780090332031
 30
0.0
  0
SPLINE
  5
55
330
1F
100
AcDbEntity
  8
_U+0421_U+043B_U+043E_U+0439 1
 62
     7
420
 16777215
370
     9
100
AcDbSpline
210
0.0
220
0.0
230
1.0
 70
    11
 71
     3
 72
    17
 73
    13
 74
     0
 42
0.0000000001
 43
0.0000000001
 12
1.0
 22
0.0
 32
0.0
 13
1.0
 23
0.0
 33
0.0
 40
0.0
 40
0.0
 40
0.0
 40
0.0
 40
1.0
 40
1.0
 40
1.0
 40
2.0
 40
2.0
 40
2.0
 40
3.0
 40
3.0
 40
3.0
 40
4.0
 40
4.0
 40
4.0
 40
4.0
 10
274.0889892578125
 20
203.4240112304688
 30
0.0
 10
271.2309875488281
 20
200.3590087890625
 30
0.0
 10
267.8479919433594
 20
199.0270080566406
 30
0.0
 10
267.6210021972656
 20
199.1620178222656
 30
0.0
 10
267.4760131835938
 20
199.2560119628906
 30
0.0
 10
267.2200012207031
 20
220.676025390625
 30
0.0
 10
267.25
 20
220.7050170898438
 30
0.0
 10
267.4660034179688
 20
220.9120178222656
 30
0.0
 10
270.5589904785156
 20
220.4640197753906
 30
0.0
 10
272.8330078125
 20
218.8270263671875
 30
0.0
 10
276.3299865722656
 20
216.3099975585938
 30
0.0
 10
278.8689880371094
 20
208.5429992675781
 30
0.0
 10
274.0889892578125
 20
203.4240112304688
 30
0.0
  0
SPLINE
  5
56
330
1F
100
AcDbEntity
  8
_U+0421_U+043B_U+043E_U+0439 1
 62
     7
420
 16777215
370
     9
100
AcDbSpline
210
0.0
220
0.0
230
1.0
 70
    11
 71
     3
 72
    23
 73
    19
 74
     0
 42
0.0000000001
 43
0.0000000001
 12
1.0
 22
0.0
 32
0.0
 13
1.0
 23
0.0
 33
0.0
 40
0.0
 40
0.0
 40
0.0
 40
0.0
 40
1.0
 40
1.0
 40
1.0
 40
2.0
 40
2.0
 40
2.0
 40
3.0
 40
3.0
 40
3.0
 40
4.0
 40
4.0
 40
4.0
 40
5.0
 40
5.0
 40
5.0
 40
6.0
 40
6.0
 40
6.0
 40
6.0
 10
226.5229949951172
 20
180.0339965820312
 30
0.0
 10
225.2319946289062
 20
179.7999877929688
 30
0.0
 10
225.6640014648438
 20
181.1000061035156
 30
0.0
 10
226.5839996337891
 20
157.4150085449219
 30
0.0
 10
226.6269989013672
 20
156.3150024414062
 30
0.0
 10
227.3569946289062
 20
156.02099609375
 30
0.0
 10
228.5260009765625
 20
156.0500183105469
 30
0.0
 10
231.0570068359375
 20
156.1020202636719
 30
0.0
 10
235.1690063476562
 20
156.655029296875
 30
0.0
 10
235.2350006103516
 20
159.1940307617188
 30
0.0
 10
235.2890014648438
 20
161.26904296875
 30
0.0
 10
233.0319976806641
 20
161.8250427246094
 30
0.0
 10
231.0279998779297
 20
162.0420227050781
 30
0.0
 10
231.1049957275391
 20
162.1290283203125
 30
0.0
 10
231.1889953613281
 20
162.1880187988281
 30
0.0
 10
231.2760009765625
 20
162.2500305175781
 30
0.0
 10
243.0820007324219
 20
170.6109924316406
 30
0.0
 10
231.1210021972656
 20
180.8800048828125
 30
0.0
 10
226.5229949951172
 20
180.0339965820312
 30
0.0
  0
SPLINE
  5
57
330
1F
100
AcDbEntity
  8
_U+0421_U+043B_U+043E_U+0439 1
 62
     7
420
 16777215
370
     9
100
AcDbSpline
210
0.0
220
0.0
230
1.0
 70
    11
 71
     3
 72
    23
 73
    19
 74
     0
 42
0.0000000001
 43
0.0000000001
 12
1.0
 22
0.0
 32
0.0
 13
1.0
 23
0.0
 33
0.0
 40
0.0
 40
0.0
 40
0.0
 40
0.0
 40
1.0
 40
1.0
 40
1.0
 40
2.0
 40
2.0
 40
2.0
 40
3.0
 40
3.0
 40
3.0
 40
4.0
 40
4.0
 40
4.0
 40
5.0
 40
5.0
 40
5.0
 40
6.0
 40
6.0
 40
6.0
 40
6.0
 10
233.8320007324219
 20
159.3139953613281
 30
0.0
 10
233.8679962158203
 20
158.5809936523438
 30
0.0
 10
233.0899963378906
 20
158.2109985351562
 30
0.0
 10
232.3829956054688
 20
158.0039978027344
 30
0.0
 10
231.9089965820312
 20
157.864990234375
 30
0.0
 10
228.3560028076172
 20
157.2309875488281
 30
0.0
 10
228.0569915771484
 20
157.5130004882812
 30
0.0
 10
227.9249877929688
 20
157.635986328125
 30
0.0
 10
227.9659881591797
 20
158.7980041503906
 30
0.0
 10
227.9659881591797
 20
158.9800109863281
 30
0.0
 10
227.9659881591797
 20
158.9800109863281
 30
0.0
 10
227.9429931640625
 20
158.9800109863281
 30
0.0
 10
227.9429931640625
 20
158.9800109863281
 30
0.0
 10
227.8999938964844
 20
160.02099609375
 30
0.0
 10
227.7849884033203
 20
159.9649963378906
 30
0.0
 10
228.2769927978516
 20
160.1719970703125
 30
0.0
 10
230.218994140625
 20
160.9880065917969
 30
0.0
 10
233.7669982910156
 20
160.6799926757812
 30
0.0
 10
233.8320007324219
 20
159.3139953613281
 30
0.0
  0
SPLINE
  5
58
330
1F
100
AcDbEntity
  8
_U+0421_U+043B_U+043E_U+0439 1
 62
     7
420
 16777215
370
     9
100
AcDbSpline
210
0.0
220
0.0
230
1.0
 70
    11
 71
     3
 72
    14
 73
    10
 74
     0
 42
0.0000000001
 43
0.0000000001
 12
1.0
 22
0.0
 32
0.0
 13
1.0
 23
0.0
 33
0.0
 40
0.0
 40
0.0
 40
0.0
 40
0.0
 40
1.0
 40
1.0
 40
1.0
 40
2.0
 40
2.0
 40
2.0
 40
3.0
 40
3.0
 40
3.0
 40
3.0
 10
227.8710021972656
 20
161.7569885253906
 30
0.0
 10
227.7649993896484
 20
161.8489990234375
 30
0.0
 10
226.9850006103516
 20
178.6080017089844
 30
0.0
 10
227.2409973144531
 20
178.6080017089844
 30
0.0
 10
230.7769927978516
 20
178.6080017089844
 30
0.0
 10
240.0439910888672
 20
171.114990234375
 30
0.0
 10
231.1399993896484
 20
163.8970031738281
 30
0.0
 10
230.875
 20
163.6820068359375
 30
0.0
 10
228.1869964599609
 20
161.6380004882812
 30
0.0
 10
227.8710021972656
 20
161.7569885253906
 30
0.0
  0
SPLINE
  5
59
330
1F
100
AcDbEntity
  8
_U+0421_U+043B_U+043E_U+0439 1
 62
     7
420
 16777215
370
     9
100
AcDbSpline
210
0.0
220
0.0
230
1.0
 70
    11
 71
     3
 72
    14
 73
    10
 74
     0
 42
0.0000000001
 43
0.0000000001
 12
1.0
 22
0.0
 32
0.0
 13
1.0
 23
0.0
 33
0.0
 40
0.0
 40
0.0
 40
0.0
 40
0.0
 40
1.0
 40
1.0
 40
1.0
 40
2.0
 40
2.0
 40
2.0
 40
3.0
 40
3.0
 40
3.0
 40
3.0
 10
238.9069976806641
 20
168.0190124511719
 30
0.0
 10
238.9019927978516
 20
166.0190124511719
 30
0.0
 10
239.1320037841797
 20
164.10302734375
 30
0.0
 10
239.5890045166016
 20
162.322998046875
 30
0.0
 10
242.9940032958984
 20
149.0859985351562
 30
0.0
 10
252.4440002441406
 20
156.9989929199219
 30
0.0
 10
250.4570007324219
 20
171.5140075683594
 30
0.0
 10
248.6190032958984
 20
184.9190063476562
 30
0.0
 10
238.9499969482422
 20
182.9869995117188
 30
0.0
 10
238.9069976806641
 20
168.0190124511719
 30
0.0
  0
SPLINE
  5
5A
330
1F
100
AcDbEntity
  8
_U+0421_U+043B_U+043E_U+0439 1
 62
     7
420
 16777215
370
     9
100
AcDbSpline
210
0.0
220
0.0
230
1.0
 70
    11
 71
     3
 72
    14
 73
    10
 74
     0
 42
0.0000000001
 43
0.0000000001
 12
1.0
 22
0.0
 32
0.0
 13
1.0
 23
0.0
 33
0.0
 40
0.0
 40
0.0
 40
0.0
 40
0.0
 40
1.0
 40
1.0
 40
1.0
 40
2.0
 40
2.0
 40
2.0
 40
3.0
 40
3.0
 40
3.0
 40
3.0
 10
240.7630004882812
 20
163.4119873046875
 30
0.0
 10
240.0870056152344
 20
166.7339782714844
 30
0.0
 10
240.1360015869141
 20
171.5549926757812
 30
0.0
 10
241.3780059814453
 20
175.198974609375
 30
0.0
 10
243.7150115966797
 20
182.0589599609375
 30
0.0
 10
248.4049987792969
 20
179.5699768066406
 30
0.0
 10
249.2180023193359
 20
169.9749755859375
 30
0.0
 10
250.2489929199219
 20
157.81298828125
 30
0.0
 10
243.1909942626953
 20
151.4469909667969
 30
0.0
 10
240.7630004882812
 20
163.4119873046875
 30
0.0
  0
SPLINE
  5
5B
330
1F
100
AcDbEntity
  8
_U+0421_U+043B_U+043E_U+0439 1
 62
     7
420
 16777215
370
     9
100
AcDbSpline
210
0.0
220
0.0
230
1.0
 70
    11
 71
     3
 72
    14
 73
    10
 74
     0
 42
0.0000000001
 43
0.0000000001
 12
1.0
 22
0.0
 32
0.0
 13
1.0
 23
0.0
 33
0.0
 40
0.0
 40
0.0
 40
0.0
 40
0.0
 40
1.0
 40
1.0
 40
1.0
 40
2.0
 40
2.0
 40
2.0
 40
3.0
 40
3.0
 40
3.0
 40
3.0
 10
252.7859954833984
 20
168.0190124511719
 30
0.0
 10
252.7809906005859
 20
166.0180053710938
 30
0.0
 10
253.0110015869141
 20
164.1020202636719
 30
0.0
 10
253.4680023193359
 20
162.322998046875
 30
0.0
 10
256.8730163574219
 20
149.0899963378906
 30
0.0
 10
266.3340148925781
 20
157.0119934082031
 30
0.0
 10
264.3359985351562
 20
171.5140075683594
 30
0.0
 10
262.4979858398438
 20
184.9249877929688
 30
0.0
 10
252.8289947509766
 20
182.9800109863281
 30
0.0
 10
252.7859954833984
 20
168.0190124511719
 30
0.0
  0
SPLINE
  5
5C
330
1F
100
AcDbEntity
  8
_U+0421_U+043B_U+043E_U+0439 1
 62
     7
420
 16777215
370
     9
100
AcDbSpline
210
0.0
220
0.0
230
1.0
 70
    11
 71
     3
 72
    14
 73
    10
 74
     0
 42
0.0000000001
 43
0.0000000001
 12
1.0
 22
0.0
 32
0.0
 13
1.0
 23
0.0
 33
0.0
 40
0.0
 40
0.0
 40
0.0
 40
0.0
 40
1.0
 40
1.0
 40
1.0
 40
2.0
 40
2.0
 40
2.0
 40
3.0
 40
3.0
 40
3.0
 40
3.0
 10
254.6419982910156
 20
163.4119873046875
 30
0.0
 10
253.9649963378906
 20
166.7429809570312
 30
0.0
 10
254.0189971923828
 20
171.5669860839844
 30
0.0
 10
255.2570037841797
 20
175.198974609375
 30
0.0
 10
257.7269897460938
 20
182.4399719238281
 30
0.0
 10
262.322998046875
 20
179.1129760742188
 30
0.0
 10
263.0970153808594
 20
169.9749755859375
 30
0.0
 10
264.1319885253906
 20
157.7950134277344
 30
0.0
 10
257.0650024414062
 20
151.4760131835938
 30
0.0
 10
254.6419982910156
 20
163.4119873046875
 30
0.0
  0
SPLINE
  5
5D
330
1F
100
AcDbEntity
  8
_U+0421_U+043B_U+043E_U+0439 1
 62
     7
420
 16777215
370
     9
100
AcDbSpline
210
0.0
220
0.0
230
1.0
 70
    11
 71
     3
 72
    47
 73
    43
 74
     0
 42
0.0000000001
 43
0.0000000001
 12
1.0
 22
0.0
 32
0.0
 13
1.0
 23
0.0
 33
0.0
 40
0.0
 40
0.0
 40
0.0
 40
0.0
 40
1.0
 40
1.0
 40
1.0
 40
2.0
 40
2.0
 40
2.0
 40
3.0
 40
3.0
 40
3.0
 40
4.0
 40
4.0
 40
4.0
 40
5.0
 40
5.0
 40
5.0
 40
6.0
 40
6.0
 40
6.0
 40
7.0
 40
7.0
 40
7.0
 40
8.0
 40
8.0
 40
8.0
 40
9.0
 40
9.0
 40
9.0
 40
10.0
 40
10.0
 40
10.0
 40
11.0
 40
11.0
 40
11.0
 40
12.0
 40
12.0
 40
12.0
 40
13.0
 40
13.0
 40
13.0
 40
14.0
 40
14.0
 40
14.0
 40
14.0
 10
278.0010070800781
 20
179.7049865722656
 30
0.0
 10
278.5910034179688
 20
180.0719909667969
 30
0.0
 10
279.3869934082031
 20
179.5429992675781
 30
0.0
 10
278.760009765625
 20
178.5079956054688
 30
0.0
 10
277.8240051269531
 20
176.9289855957031
 30
0.0
 10
277.7980041503906
 20
176.6309814453125
 30
0.0
 10
269.4389953613281
 20
163.1910095214844
 30
0.0
 10
269.2099914550781
 20
162.822021484375
 30
0.0
 10
269.2099914550781
 20
162.822021484375
 30
0.0
 10
269.5429992675781
 20
162.5339965820312
 30
0.0
 10
273.6579895019531
 20
158.9840087890625
 30
0.0
 10
275.4079895019531
 20
158.2239990234375
 30
0.0
 10
274.7250061035156
 20
157.3240051269531
 30
0.0
 10
274.5039978027344
 20
157.0330200195312
 30
0.0
 10
274.1470031738281
 20
156.9869995117188
 30
0.0
 10
273.7870178222656
 20
157.2070007324219
 30
0.0
 10
273.7300109863281
 20
157.2409973144531
 30
0.0
 10
268.7240295410156
 20
161.3760070800781
 30
0.0
 10
268.6900024414062
 20
161.3800048828125
 30
0.0
 10
268.64599609375
 20
161.1310119628906
 30
0.0
 10
268.8470153808594
 20
156.8250122070312
 30
0.0
 10
268.8770141601562
 20
156.5750122070312
 30
0.0
 10
269.02001953125
 20
155.322998046875
 30
0.0
 10
267.6860046386719
 20
155.1380004882812
 30
0.0
 10
267.5480041503906
 20
156.0169982910156
 30
0.0
 10
267.4110107421875
 20
156.8680114746094
 30
0.0
 10
266.635009765625
 20
178.7829895019531
 30
0.0
 10
266.6050109863281
 20
179.6440124511719
 30
0.0
 10
266.5090026855469
 20
180.8740234375
 30
0.0
 10
267.8090209960938
 20
181.0960083007812
 30
0.0
 10
267.9980163574219
 20
179.8350219726562
 30
0.0
 10
268.0180053710938
 20
179.6900329589844
 30
0.0
 10
268.52001953125
 20
166.3200073242188
 30
0.0
 10
268.510009765625
 20
164.3020324707031
 30
0.0
 10
268.7250061035156
 20
164.6120300292969
 30
0.0
 10
271.0240173339844
 20
168.3510437011719
 30
0.0
 10
271.2480163574219
 20
168.7140197753906
 30
0.0
 10
273.5180053710938
 20
172.384033203125
 30
0.0
 10
275.2880249023438
 20
175.2530212402344
 30
0.0
 10
277.0870056152344
 20
178.3650207519531
 30
0.0
 10
277.2720031738281
 20
178.6889953613281
 30
0.0
 10
277.6860046386719
 20
179.5069885253906
 30
0.0
 10
278.0010070800781
 20
179.7049865722656
 30
0.0
  0
SPLINE
  5
5E
330
1F
100
AcDbEntity
  8
_U+0421_U+043B_U+043E_U+0439 1
 62
     7
420
 16777215
370
     9
100
AcDbSpline
210
0.0
220
0.0
230
1.0
 70
    11
 71
     3
 72
    32
 73
    28
 74
     0
 42
0.0000000001
 43
0.0000000001
 12
1.0
 22
0.0
 32
0.0
 13
1.0
 23
0.0
 33
0.0
 40
0.0
 40
0.0
 40
0.0
 40
0.0
 40
1.0
 40
1.0
 40
1.0
 40
2.0
 40
2.0
 40
2.0
 40
3.0
 40
3.0
 40
3.0
 40
4.0
 40
4.0
 40
4.0
 40
5.0
 40
5.0
 40
5.0
 40
6.0
 40
6.0
 40
6.0
 40
7.0
 40
7.0
 40
7.0
 40
8.0
 40
8.0
 40
8.0
 40
9.0
 40
9.0
 40
9.0
 40
9.0
 10
307.6000061035156
 20
470.7000007629395
 30
0.0
 10
307.6000061035156
 20
477.4140014648438
 30
0.0
 10
302.7650146484375
 20
482.8770008087158
 30
0.0
 10
296.822021484375
 20
482.8770008087158
 30
0.0
 10
296.822021484375
 20
482.8770008087158
 30
0.0
 10
207.1790161132812
 20
482.8770008087158
 30
0.0
 10
207.1790161132812
 20
482.8770008087158
 30
0.0
 10
201.2360229492188
 20
482.8770008087158
 30
0.0
 10
196.4000091552734
 20
477.4150009155273
 30
0.0
 10
196.4000091552734
 20
470.7000007629395
 30
0.0
 10
196.4000091552734
 20
470.7000007629395
 30
0.0
 10
196.4000091552734
 20
33.29998779296875
 30
0.0
 10
196.4000091552734
 20
33.29998779296875
 30
0.0
 10
196.4000091552734
 20
26.58599853515625
 30
0.0
 10
201.2350158691406
 20
21.12298583984375
 30
0.0
 10
207.1790161132812
 20
21.12298583984375
 30
0.0
 10
207.1790161132812
 20
21.12298583984375
 30
0.0
 10
296.822021484375
 20
21.12298583984375
 30
0.0
 10
296.822021484375
 20
21.12298583984375
 30
0.0
 10
302.7650146484375
 20
21.12298583984375
 30
0.0
 10
307.6000366210938
 20
26.58499145507812
 30
0.0
 10
307.6000366210938
 20
33.29998779296875
 30
0.0
 10
307.6000366210938
 20
33.29998779296875
 30
0.0
 10
307.6000366210938
 20
470.7000007629395
 30
0.0
 10
307.6000366210938
 20
470.7000007629395
 30
0.0
 10
307.6000366210938
 20
470.7000007629395
 30
0.0
 10
307.6000061035156
 20
470.7000007629395
 30
0.0
 10
307.6000061035156
 20
470.7000007629395
 30
0.0
  0
SPLINE
  5
5F
330
1F
100
AcDbEntity
  8
_U+0421_U+043B_U+043E_U+0439 1
 62
     7
420
 16777215
370
     9
100
AcDbSpline
210
0.0
220
0.0
230
1.0
 70
    11
 71
     3
 72
   245
 73
   241
 74
     0
 42
0.0000000001
 43
0.0000000001
 12
1.0
 22
0.0
 32
0.0
 13
1.0
 23
0.0
 33
0.0
 40
0.0
 40
0.0
 40
0.0
 40
0.0
 40
1.0
 40
1.0
 40
1.0
 40
2.0
 40
2.0
 40
2.0
 40
3.0
 40
3.0
 40
3.0
 40
4.0
 40
4.0
 40
4.0
 40
5.0
 40
5.0
 40
5.0
 40
6.0
 40
6.0
 40
6.0
 40
7.0
 40
7.0
 40
7.0
 40
8.0
 40
8.0
 40
8.0
 40
9.0
 40
9.0
 40
9.0
 40
10.0
 40
10.0
 40
10.0
 40
11.0
 40
11.0
 40
11.0
 40
12.0
 40
12.0
 40
12.0
 40
13.0
 40
13.0
 40
13.0
 40
14.0
 40
14.0
 40
14.0
 40
15.0
 40
15.0
 40
15.0
 40
16.0
 40
16.0
 40
16.0
 40
17.0
 40
17.0
 40
17.0
 40
18.0
 40
18.0
 40
18.0
 40
19.0
 40
19.0
 40
19.0
 40
20.0
 40
20.0
 40
20.0
 40
21.0
 40
21.0
 40
21.0
 40
22.0
 40
22.0
 40
22.0
 40
23.0
 40
23.0
 40
23.0
 40
24.0
 40
24.0
 40
24.0
 40
25.0
 40
25.0
 40
25.0
 40
26.0
 40
26.0
 40
26.0
 40
27.0
 40
27.0
 40
27.0
 40
28.0
 40
28.0
 40
28.0
 40
29.0
 40
29.0
 40
29.0
 40
30.0
 40
30.0
 40
30.0
 40
31.0
 40
31.0
 40
31.0
 40
32.0
 40
32.0
 40
32.0
 40
33.0
 40
33.0
 40
33.0
 40
34.0
 40
34.0
 40
34.0
 40
35.0
 40
35.0
 40
35.0
 40
36.0
 40
36.0
 40
36.0
 40
37.0
 40
37.0
 40
37.0
 40
38.0
 40
38.0
 40
38.0
 40
39.0
 40
39.0
 40
39.0
 40
40.0
 40
40.0
 40
40.0
 40
41.0
 40
41.0
 40
41.0
 40
42.0
 40
42.0
 40
42.0
 40
43.0
 40
43.0
 40
43.0
 40
44.0
 40
44.0
 40
44.0
 40
45.0
 40
45.0
 40
45.0
 40
46.0
 40
46.0
 40
46.0
 40
47.0
 40
47.0
 40
47.0
 40
48.0
 40
48.0
 40
48.0
 40
49.0
 40
49.0
 40
49.0
 40
50.0
 40
50.0
 40
50.0
 40
51.0
 40
51.0
 40
51.0
 40
52.0
 40
52.0
 40
52.0
 40
53.0
 40
53.0
 40
53.0
 40
54.0
 40
54.0
 40
54.0
 40
55.0
 40
55.0
 40
55.0
 40
56.0
 40
56.0
 40
56.0
 40
57.0
 40
57.0
 40
57.0
 40
58.0
 40
58.0
 40
58.0
 40
59.0
 40
59.0
 40
59.0
 40
60.0
 40
60.0
 40
60.0
 40
61.0
 40
61.0
 40
61.0
 40
62.0
 40
62.0
 40
62.0
 40
63.0
 40
63.0
 40
63.0
 40
64.0
 40
64.0
 40
64.0
 40
65.0
 40
65.0
 40
65.0
 40
66.0
 40
66.0
 40
66.0
 40
67.0
 40
67.0
 40
67.0
 40
68.0
 40
68.0
 40
68.0
 40
69.0
 40
69.0
 40
69.0
 40
70.0
 40
70.0
 40
70.0
 40
71.0
 40
71.0
 40
71.0
 40
72.0
 40
72.0
 40
72.0
 40
73.0
 40
73.0
 40
73.0
 40
74.0
 40
74.0
 40
74.0
 40
75.0
 40
75.0
 40
75.0
 40
76.0
 40
76.0
 40
76.0
 40
77.0
 40
77.0
 40
77.0
 40
78.0
 40
78.0
 40
78.0
 40
79.0
 40
79.0
 40
79.0
 40
80.0
 40
80.0
 40
80.0
 40
80.0
 10
306.3999938964844
 20
387.2030029296875
 30
0.0
 10
291.9010009765625
 20
401.6470031738281
 30
0.0
 10
286.22900390625
 20
409.625
 30
0.0
 10
284.8419799804688
 20
411.7170028686523
 30
0.0
 10
286.0919799804688
 20
412.318000793457
 30
0.0
 10
287.1499938964844
 20
413.1240005493164
 30
0.0
 10
287.3499755859375
 20
413.9360046386719
 30
0.0
 10
287.3889770507812
 20
414.0920028686523
 30
0.0
 10
287.4399719238281
 20
414.1440048217773
 30
0.0
 10
288.2499694824219
 20
414.2150039672852
 30
0.0
 10
289.4109802246094
 20
414.3170013427734
 30
0.0
 10
291.1659545898438
 20
414.4710006713867
 30
0.0
 10
292.8949584960938
 20
416.6950073242188
 30
0.0
 10
295.3709716796875
 20
419.8810043334961
 30
0.0
 10
297.2629699707031
 20
423.8040084838867
 30
0.0
 10
293.27294921875
 20
424.3510055541992
 30
0.0
 10
296.6609497070312
 20
426.3550033569336
 30
0.0
 10
303.0469360351562
 20
433.3120040893555
 30
0.0
 10
295.949951171875
 20
435.1260070800781
 30
0.0
 10
292.1049499511719
 20
436.1190032958984
 30
0.0
 10
284.1959533691406
 20
429.6120071411133
 30
0.0
 10
282.5399475097656
 20
426.5760040283203
 30
0.0
 10
280.6239624023438
 20
428.9260025024414
 30
0.0
 10
278.0819396972656
 20
430.6730041503906
 30
0.0
 10
275.3319396972656
 20
429.3550033569336
 30
0.0
 10
272.9479370117188
 20
428.2140045166016
 30
0.0
 10
272.325927734375
 20
425.9090042114258
 30
0.0
 10
272.9079284667969
 20
423.2960052490234
 30
0.0
 10
268.5029296875
 20
423.5420074462891
 30
0.0
 10
261.2109375
 20
422.0120086669922
 30
0.0
 10
258.366943359375
 20
418.8810043334961
 30
0.0
 10
255.1579437255859
 20
415.3500061035156
 30
0.0
 10
256.3939514160156
 20
413.0250015258789
 30
0.0
 10
258.8889465332031
 20
412.8620071411133
 30
0.0
 10
263.4989318847656
 20
412.5600051879883
 30
0.0
 10
263.0969543457031
 20
408.8290100097656
 30
0.0
 10
266.7139587402344
 20
408.8290100097656
 30
0.0
 10
270.0679626464844
 20
408.8290100097656
 30
0.0
 10
274.6709594726562
 20
411.9440078735352
 30
0.0
 10
276.5359497070312
 20
413.3160095214844
 30
0.0
 10
277.6289367675781
 20
410.4560089111328
 30
0.0
 10
280.7949523925781
 20
410.2250061035156
 30
0.0
 10
283.7089538574219
 20
411.2470092773438
 30
0.0
 10
284.9269409179688
 20
409.3560104370117
 30
0.0
 10
290.5789489746094
 20
401.1710052490234
 30
0.0
 10
306.3989562988281
 20
385.510009765625
 30
0.0
 10
306.3989562988281
 20
385.510009765625
 30
0.0
 10
306.3989562988281
 20
82.26400756835938
 30
0.0
 10
306.3989562988281
 20
82.26400756835938
 30
0.0
 10
294.3199462890625
 20
93.78799438476562
 30
0.0
 10
284.1529541015625
 20
109.968994140625
 30
0.0
 10
282.6859436035156
 20
112.3489990234375
 30
0.0
 10
283.9459533691406
 20
114.8049926757812
 30
0.0
 10
281.1599426269531
 20
120.3949890136719
 30
0.0
 10
280.0299377441406
 20
122.4700012207031
 30
0.0
 10
285.5399475097656
 20
125.2680053710938
 30
0.0
 10
289.7479248046875
 20
131.7049865722656
 30
0.0
 10
288.1569519042969
 20
133.989013671875
 30
0.0
 10
286.8709411621094
 20
135.8359985351562
 30
0.0
 10
283.1489562988281
 20
136.2540283203125
 30
0.0
 10
278.741943359375
 20
130.197021484375
 30
0.0
 10
279.0619506835938
 20
134.6990356445312
 30
0.0
 10
276.9059448242188
 20
139.656005859375
 30
0.0
 10
272.9859313964844
 20
138.8090209960938
 30
0.0
 10
267.1309204101562
 20
137.5330200195312
 30
0.0
 10
267.0939331054688
 20
133.6910095214844
 30
0.0
 10
269.2049255371094
 20
127.6170349121094
 30
0.0
 10
265.0569152832031
 20
130.5250244140625
 30
0.0
 10
258.6899108886719
 20
131.3620300292969
 30
0.0
 10
257.8129272460938
 20
126.8020324707031
 30
0.0
 10
257.1039123535156
 20
123.1220397949219
 30
0.0
 10
260.4269409179688
 20
120.9400329589844
 30
0.0
 10
262.679931640625
 20
119.905029296875
 30
0.0
 10
256.5089416503906
 20
118.1040344238281
 30
0.0
 10
258.2829284667969
 20
114.2360229492188
 30
0.0
 10
261.48193359375
 20
114.2360229492188
 30
0.0
 10
263.7479248046875
 20
114.2360229492188
 30
0.0
 10
266.6049194335938
 20
115.6850280761719
 30
0.0
 10
267.4539184570312
 20
116.1440124511719
 30
0.0
 10
269.5579223632812
 20
115.5660095214844
 30
0.0
 10
271.7809143066406
 20
116.5940246582031
 30
0.0
 10
273.6009216308594
 20
117.822021484375
 30
0.0
 10
275.1319274902344
 20
115.8570251464844
 30
0.0
 10
279.4799194335938
 20
110.5660095214844
 30
0.0
 10
281.8039245605469
 20
111.4930114746094
 30
0.0
 10
283.7659301757812
 20
108.3320007324219
 30
0.0
 10
294.1989135742188
 20
91.95501708984375
 30
0.0
 10
306.3979187011719
 20
80.61300659179688
 30
0.0
 10
306.3979187011719
 20
80.61300659179688
 30
0.0
 10
306.3979187011719
 20
33.29998779296875
 30
0.0
 10
306.3979187011719
 20
33.29998779296875
 30
0.0
 10
306.3979187011719
 20
27.24697875976562
 30
0.0
 10
302.0999145507812
 20
22.322998046875
 30
0.0
 10
296.8189086914062
 20
22.322998046875
 30
0.0
 10
296.8189086914062
 20
22.322998046875
 30
0.0
 10
281.1259155273438
 20
22.322998046875
 30
0.0
 10
281.1259155273438
 20
22.322998046875
 30
0.0
 10
281.1199035644531
 20
22.46798706054688
 30
0.0
 10
281.0649108886719
 20
22.61099243164062
 30
0.0
 10
280.9549255371094
 20
22.72198486328125
 30
0.0
 10
265.3199157714844
 20
38.31298828125
 30
0.0
 10
261.0859375
 20
51.24197387695312
 30
0.0
 10
260.3289184570312
 20
53.9639892578125
 30
0.0
 10
262.054931640625
 20
54.91400146484375
 30
0.0
 10
261.076904296875
 20
58.94998168945312
 30
0.0
 10
260.5129089355469
 20
60.8499755859375
 30
0.0
 10
280.7379150390625
 20
65.25198364257812
 30
0.0
 10
274.9259033203125
 20
72.24197387695312
 30
0.0
 10
271.8428955078125
 20
73.14398193359375
 30
0.0
 10
267.9798889160156
 20
74.27398681640625
 30
0.0
 10
261.9208984375
 20
70.83197021484375
 30
0.0
 10
259.2688903808594
 20
69.1409912109375
 30
0.0
 10
263.472900390625
 20
87.10598754882812
 30
0.0
 10
254.1068878173828
 20
85.95700073242188
 30
0.0
 10
251.3498840332031
 20
83.2659912109375
 30
0.0
 10
248.4768829345703
 20
80.46298217773438
 30
0.0
 10
247.7468872070312
 20
74.49200439453125
 30
0.0
 10
249.4098815917969
 20
68.09298706054688
 30
0.0
 10
233.8818817138672
 20
76.86798095703125
 30
0.0
 10
223.702880859375
 20
57.72097778320312
 30
0.0
 10
243.0978851318359
 20
58.59500122070312
 30
0.0
 10
238.5408782958984
 20
55.06600952148438
 30
0.0
 10
239.3458862304688
 20
49.4320068359375
 30
0.0
 10
247.2688903808594
 20
51.01400756835938
 30
0.0
 10
250.4228973388672
 20
51.64300537109375
 30
0.0
 10
253.2488861083984
 20
53.093017578125
 30
0.0
 10
254.5018920898438
 20
56.02801513671875
 30
0.0
 10
255.4798889160156
 20
55.24801635742188
 30
0.0
 10
257.3529052734375
 20
53.94900512695312
 30
0.0
 10
259.1268920898438
 20
53.79302978515625
 30
0.0
 10
259.7948913574219
 20
51.218017578125
 30
0.0
 10
263.7709045410156
 20
38.33804321289062
 30
0.0
 10
279.6638793945312
 20
22.32403564453125
 30
0.0
 10
279.6638793945312
 20
22.32403564453125
 30
0.0
 10
207.1768798828125
 20
22.32403564453125
 30
0.0
 10
207.1768798828125
 20
22.32403564453125
 30
0.0
 10
201.8948822021484
 20
22.32403564453125
 30
0.0
 10
197.5978851318359
 20
27.248046875
 30
0.0
 10
197.5978851318359
 20
33.301025390625
 30
0.0
 10
197.5978851318359
 20
33.301025390625
 30
0.0
 10
197.5978851318359
 20
72.57601928710938
 30
0.0
 10
197.5978851318359
 20
72.57601928710938
 30
0.0
 10
211.2998809814453
 20
86.13900756835938
 30
0.0
 10
216.2928771972656
 20
93.30401611328125
 30
0.0
 10
217.4298858642578
 20
95.05801391601562
 30
0.0
 10
219.9818878173828
 20
94.18002319335938
 30
0.0
 10
222.6848907470703
 20
94.39102172851562
 30
0.0
 10
223.7048797607422
 20
96.84002685546875
 30
0.0
 10
225.3898773193359
 20
95.60903930664062
 30
0.0
 10
229.3518829345703
 20
92.9620361328125
 30
0.0
 10
232.2678833007812
 20
92.9620361328125
 30
0.0
 10
235.4728851318359
 20
92.9620361328125
 30
0.0
 10
235.1078796386719
 20
96.2220458984375
 30
0.0
 10
239.10888671875
 20
96.48504638671875
 30
0.0
 10
241.3328857421875
 20
96.63003540039062
 30
0.0
 10
242.48388671875
 20
98.71804809570312
 30
0.0
 10
239.6168823242188
 20
101.8740539550781
 30
0.0
 10
237.3308868408203
 20
104.3910522460938
 30
0.0
 10
231.2208862304688
 20
105.93505859375
 30
0.0
 10
228.2508850097656
 20
105.64306640625
 30
0.0
 10
229.2868804931641
 20
109.5950622558594
 30
0.0
 10
226.8268890380859
 20
111.6710815429688
 30
0.0
 10
222.8868865966797
 20
112.6160583496094
 30
0.0
 10
220.3568878173828
 20
113.2230529785156
 30
0.0
 10
218.3678894042969
 20
111.3890686035156
 30
0.0
 10
217.3478851318359
 20
110.14306640625
 30
0.0
 10
215.0168914794922
 20
112.7540588378906
 30
0.0
 10
209.6428833007812
 20
116.8570556640625
 30
0.0
 10
206.6778869628906
 20
116.1020812988281
 30
0.0
 10
200.3708801269531
 20
114.4890747070312
 30
0.0
 10
206.0138854980469
 20
108.3560791015625
 30
0.0
 10
208.8118896484375
 20
106.653076171875
 30
0.0
 10
205.4778900146484
 20
106.028076171875
 30
0.0
 10
207.212890625
 20
102.5620727539062
 30
0.0
 10
209.3088836669922
 20
99.8660888671875
 30
0.0
 10
210.8408813476562
 20
97.89508056640625
 30
0.0
 10
212.4568786621094
 20
97.75308227539062
 30
0.0
 10
213.4228820800781
 20
97.66909790039062
 30
0.0
 10
214.1118774414062
 20
97.60809326171875
 30
0.0
 10
214.1218872070312
 20
97.569091796875
 30
0.0
 10
214.1428833007812
 20
97.48208618164062
 30
0.0
 10
214.3188781738281
 20
96.76809692382812
 30
0.0
 10
215.223876953125
 20
96.06207275390625
 30
0.0
 10
216.2998809814453
 20
95.53009033203125
 30
0.0
 10
215.0108795166016
 20
93.60009765625
 30
0.0
 10
210.0388793945312
 20
86.67208862304688
 30
0.0
 10
197.598876953125
 20
74.26910400390625
 30
0.0
 10
197.598876953125
 20
74.26910400390625
 30
0.0
 10
197.598876953125
 20
345.2059936523438
 30
0.0
 10
197.598876953125
 20
345.2059936523438
 30
0.0
 10
212.5268707275391
 20
360.1999969482422
 30
0.0
 10
216.3018798828125
 20
372.2919921875
 30
0.0
 10
216.9518737792969
 20
374.7819976806641
 30
0.0
 10
218.5908813476562
 20
374.9380035400391
 30
0.0
 10
220.3108673095703
 20
376.1169967651367
 30
0.0
 10
221.2348785400391
 20
376.8489990234375
 30
0.0
 10
222.7648773193359
 20
373.3359985351562
 30
0.0
 10
227.1788787841797
 20
371.9109954833984
 30
0.0
 10
230.4538726806641
 20
371.9109954833984
 30
0.0
 10
235.3828735351562
 20
371.9120025634766
 30
0.0
 10
235.8378753662109
 20
376.2509918212891
 30
0.0
 10
232.0398712158203
 20
379.2699966430664
 30
0.0
 10
250.0738677978516
 20
378.5999984741211
 30
0.0
 10
240.5738677978516
 20
396.390998840332
 30
0.0
 10
226.0758666992188
 20
388.2799987792969
 30
0.0
 10
228.6208648681641
 20
398.2109985351562
 30
0.0
 10
224.81787109375
 20
405.5390014648438
 30
0.0
 10
218.9308624267578
 20
403.5169982910156
 30
0.0
 10
214.6088562011719
 20
402.0349960327148
 30
0.0
 10
215.5088653564453
 20
394.5179977416992
 30
0.0
 10
216.7288665771484
 20
389.2669982910156
 30
0.0
 10
203.6318664550781
 20
397.5749969482422
 30
0.0
 10
200.7508697509766
 20
390.3849945068359
 30
0.0
 10
202.5068664550781
 20
387.3849945068359
 30
0.0
 10
204.2628631591797
 20
384.3849945068359
 30
0.0
 10
210.7178649902344
 20
382.4549942016602
 30
0.0
 10
215.5748596191406
 20
381.3949966430664
 30
0.0
 10
215.0518646240234
 20
379.6199951171875
 30
0.0
 10
214.15185546875
 20
375.8899993896484
 30
0.0
 10
215.7508544921875
 20
374.9629974365234
 30
0.0
 10
215.0438537597656
 20
372.4349975585938
 30
0.0
 10
211.2478485107422
 20
360.9349975585938
 30
0.0
 10
197.5978546142578
 20
346.9149932861328
 30
0.0
 10
197.5978546142578
 20
346.9149932861328
 30
0.0
 10
197.5978546142578
 20
470.7000007629395
 30
0.0
 10
197.5978546142578
 20
470.7000007629395
 30
0.0
 10
197.5978546142578
 20
476.7530002593994
 30
0.0
 10
201.8948516845703
 20
481.677001953125
 30
0.0
 10
207.1768493652344
 20
481.677001953125
 30
0.0
 10
207.1768493652344
 20
481.677001953125
 30
0.0
 10
296.8198547363281
 20
481.677001953125
 30
0.0
 10
296.8198547363281
 20
481.677001953125
 30
0.0
 10
302.1008605957031
 20
481.677001953125
 30
0.0
 10
306.3988647460938
 20
476.753002166748
 30
0.0
 10
306.3988647460938
 20
470.7000007629395
 30
0.0
 10
306.3988647460938
 20
470.7000007629395
 30
0.0
 10
306.3988647460938
 20
387.2030029296875
 30
0.0
 10
306.3988647460938
 20
387.2030029296875
 30
0.0
 10
306.3988647460938
 20
387.2030029296875
 30
0.0
 10
306.3999938964844
 20
387.2030029296875
 30
0.0
 10
306.3999938964844
 20
387.2030029296875
 30
0.0
  0
SPLINE
  5
60
330
1F
100
AcDbEntity
  8
_U+0421_U+043B_U+043E_U+0439 1
 62
     7
420
 16777215
370
     9
100
AcDbSpline
210
0.0
220
0.0
230
1.0
 70
    11
 71
     3
 72
    14
 73
    10
 74
     0
 42
0.0000000001
 43
0.0000000001
 12
1.0
 22
0.0
 32
0.0
 13
1.0
 23
0.0
 33
0.0
 40
0.0
 40
0.0
 40
0.0
 40
0.0
 40
1.0
 40
1.0
 40
1.0
 40
2.0
 40
2.0
 40
2.0
 40
3.0
 40
3.0
 40
3.0
 40
3.0
 10
283.8619995117188
 20
422.2929992675781
 30
0.0
 10
283.6640014648438
 20
420.5989990234375
 30
0.0
 10
277.5159912109375
 20
418.5790023803711
 30
0.0
 10
276.4530029296875
 20
419.0849990844727
 30
0.0
 10
275.4530029296875
 20
419.5579986572266
 30
0.0
 10
271.614990234375
 20
426.2460021972656
 30
0.0
 10
275.8489990234375
 20
428.2740020751953
 30
0.0
 10
279.0859985351562
 20
429.8199996948242
 30
0.0
 10
282.2990112304688
 20
425.4509963989258
 30
0.0
 10
283.8619995117188
 20
422.2929992675781
 30
0.0
  0
SPLINE
  5
61
330
1F
100
AcDbEntity
  8
_U+0421_U+043B_U+043E_U+0439 1
 62
     7
420
 16777215
370
     9
100
AcDbSpline
210
0.0
220
0.0
230
1.0
 70
    11
 71
     3
 72
    17
 73
    13
 74
     0
 42
0.0000000001
 43
0.0000000001
 12
1.0
 22
0.0
 32
0.0
 13
1.0
 23
0.0
 33
0.0
 40
0.0
 40
0.0
 40
0.0
 40
0.0
 40
1.0
 40
1.0
 40
1.0
 40
2.0
 40
2.0
 40
2.0
 40
3.0
 40
3.0
 40
3.0
 40
4.0
 40
4.0
 40
4.0
 40
4.0
 10
277.8569946289062
 20
121.5669860839844
 30
0.0
 10
278.2250061035156
 20
121.6859741210938
 30
0.0
 10
278.5849914550781
 20
121.8199768066406
 30
0.0
 10
278.93798828125
 20
121.9659729003906
 30
0.0
 10
281.8979797363281
 20
116.5459594726562
 30
0.0
 10
282.4779968261719
 20
112.4869689941406
 30
0.0
 10
281.1609802246094
 20
112.5709838867188
 30
0.0
 10
279.6849670410156
 20
112.6079711914062
 30
0.0
 10
276.4949951171875
 20
116.0619812011719
 30
0.0
 10
274.5749816894531
 20
118.5259704589844
 30
0.0
 10
276.2300109863281
 20
119.7999877929688
 30
0.0
 10
277.4869995117188
 20
121.1520080566406
 30
0.0
 10
277.8569946289062
 20
121.5669860839844
 30
0.0
  0
SPLINE
  5
62
330
1F
100
AcDbEntity
  8
_U+0421_U+043B_U+043E_U+0439 1
 62
     7
420
 16777215
370
     9
100
AcDbSpline
210
0.0
220
0.0
230
1.0
 70
    11
 71
     3
 72
    17
 73
    13
 74
     0
 42
0.0000000001
 43
0.0000000001
 12
1.0
 22
0.0
 32
0.0
 13
1.0
 23
0.0
 33
0.0
 40
0.0
 40
0.0
 40
0.0
 40
0.0
 40
1.0
 40
1.0
 40
1.0
 40
2.0
 40
2.0
 40
2.0
 40
3.0
 40
3.0
 40
3.0
 40
4.0
 40
4.0
 40
4.0
 40
4.0
 10
255.0809936523438
 20
59.85699462890625
 30
0.0
 10
255.8979949951172
 20
59.97698974609375
 30
0.0
 10
257.447998046875
 20
60.22198486328125
 30
0.0
 10
259.3330078125
 20
60.60299682617188
 30
0.0
 10
259.8770141601562
 20
58.78799438476562
 30
0.0
 10
260.6430053710938
 20
55.01898193359375
 30
0.0
 10
259.5790100097656
 20
54.9739990234375
 30
0.0
 10
257.9670104980469
 20
54.885986328125
 30
0.0
 10
255.8680114746094
 20
56.42098999023438
 30
0.0
 10
254.9090118408203
 20
57.24899291992188
 30
0.0
 10
255.1580047607422
 20
58.31600952148438
 30
0.0
 10
255.1419982910156
 20
59.26400756835938
 30
0.0
 10
255.0809936523438
 20
59.85699462890625
 30
0.0
  0
SPLINE
  5
63
330
1F
100
AcDbEntity
  8
_U+0421_U+043B_U+043E_U+0439 1
 62
     7
420
 16777215
370
     9
100
AcDbSpline
210
0.0
220
0.0
230
1.0
 70
    11
 71
     3
 72
    14
 73
    10
 74
     0
 42
0.0000000001
 43
0.0000000001
 12
1.0
 22
0.0
 32
0.0
 13
1.0
 23
0.0
 33
0.0
 40
0.0
 40
0.0
 40
0.0
 40
0.0
 40
1.0
 40
1.0
 40
1.0
 40
2.0
 40
2.0
 40
2.0
 40
3.0
 40
3.0
 40
3.0
 40
3.0
 10
223.7149963378906
 20
102.0690002441406
 30
0.0
 10
222.7149963378906
 20
101.5970153808594
 30
0.0
 10
217.5780029296875
 20
103.3190002441406
 30
0.0
 10
217.3459930419922
 20
104.7940063476562
 30
0.0
 10
221.2859954833984
 20
112.7160034179688
 30
0.0
 10
225.89599609375
 20
110.5639953613281
 30
0.0
 10
225.9019927978516
 20
107.2109985351562
 30
0.0
 10
225.9069976806641
 20
104.8659973144531
 30
0.0
 10
224.1739959716797
 20
102.2909851074219
 30
0.0
 10
223.7149963378906
 20
102.0690002441406
 30
0.0
  0
SPLINE
  5
64
330
1F
100
AcDbEntity
  8
_U+0421_U+043B_U+043E_U+0439 1
 62
     7
420
 16777215
370
     9
100
AcDbSpline
210
0.0
220
0.0
230
1.0
 70
    11
 71
     3
 72
    17
 73
    13
 74
     0
 42
0.0000000001
 43
0.0000000001
 12
1.0
 22
0.0
 32
0.0
 13
1.0
 23
0.0
 33
0.0
 40
0.0
 40
0.0
 40
0.0
 40
0.0
 40
1.0
 40
1.0
 40
1.0
 40
2.0
 40
2.0
 40
2.0
 40
3.0
 40
3.0
 40
3.0
 40
4.0
 40
4.0
 40
4.0
 40
4.0
 10
220.8320007324219
 20
378.068000793457
 30
0.0
 10
219.9309997558594
 20
377.2939987182617
 30
0.0
 10
217.9889984130859
 20
375.8930053710938
 30
0.0
 10
216.5039978027344
 20
375.9629974365234
 30
0.0
 10
215.4709930419922
 20
376.0059967041016
 30
0.0
 10
216.4049987792969
 20
379.9589996337891
 30
0.0
 10
216.7590026855469
 20
381.1489944458008
 30
0.0
 10
218.4820098876953
 20
380.8019943237305
 30
0.0
 10
219.9020080566406
 20
380.5759963989258
 30
0.0
 10
220.6710052490234
 20
380.4629974365234
 30
0.0
 10
220.6170043945312
 20
379.9059982299805
 30
0.0
 10
220.6080017089844
 20
379.0410003662109
 30
0.0
 10
220.8320007324219
 20
378.068000793457
 30
0.0
  0
ENDSEC
  0
SECTION
  2
OBJECTS
  0
DICTIONARY
  5
C
330
0
100
AcDbDictionary
281
     1
  3
ACAD_GROUP
350
D
  3
ACAD_LAYOUT
350
1A
  3
ACAD_MATERIAL
350
3B
  3
ACAD_MLEADERSTYLE
350
66
  3
ACAD_MLINESTYLE
350
17
  3
ACAD_PLOTSETTINGS
350
19
  3
ACAD_PLOTSTYLENAME
350
E
  3
ACAD_TABLESTYLE
350
65
  3
ACAD_VISUALSTYLE
350
2A
  0
SUN
  5
3F
330
29
100
AcDbSun
 90
        1
290
     0
 63
     7
421
 16777215
 40
1.0
291
     1
 91
  2455826
 92
 54000000
292
     0
 70
     2
 71
   256
280
     1
  0
DICTIONARY
  5
D
102
{ACAD_REACTORS
330
C
102
}
330
C
100
AcDbDictionary
281
     1
  0
DICTIONARY
  5
1A
102
{ACAD_REACTORS
330
C
102
}
330
C
100
AcDbDictionary
281
     1
  3
Layout1
350
1E
  3
Layout2
350
26
  3
Model
350
22
  0
DICTIONARY
  5
3B
102
{ACAD_REACTORS
330
C
102
}
330
C
100
AcDbDictionary
281
     1
  3
ByBlock
350
3D
  3
ByLayer
350
3C
  3
Global
350
3E
  0
DICTIONARY
  5
66
102
{ACAD_REACTORS
330
C
102
}
330
C
100
AcDbDictionary
281
     1
  0
DICTIONARY
  5
17
102
{ACAD_REACTORS
330
C
102
}
330
C
100
AcDbDictionary
281
     1
  3
Standard
350
18
  0
DICTIONARY
  5
19
102
{ACAD_REACTORS
330
C
102
}
330
C
100
AcDbDictionary
281
     1
  0
ACDBDICTIONARYWDFLT
  5
E
102
{ACAD_REACTORS
330
C
102
}
330
C
100
AcDbDictionary
281
     1
  3
Normal
350
F
100
AcDbDictionaryWithDefault
340
F
  0
DICTIONARY
  5
65
102
{ACAD_REACTORS
330
C
102
}
330
C
100
AcDbDictionary
281
     1
  0
DICTIONARY
  5
2A
102
{ACAD_REACTORS
330
C
102
}
330
C
100
AcDbDictionary
281
     1
  3
2dWireframe
350
2F
  3
3D Hidden
350
31
  3
3dWireframe
350
30
  3
Basic
350
32
  3
Brighten
350
36
  3
ColorChange
350
3A
  3
Conceptual
350
34
  3
Dim
350
35
  3
Facepattern
350
39
  3
Flat
350
2B
  3
FlatWithEdges
350
2C
  3
Gouraud
350
2D
  3
GouraudWithEdges
350
2E
  3
Linepattern
350
38
  3
Realistic
350
33
  3
Thicken
350
37
  0
LAYOUT
  5
1E
102
{ACAD_REACTORS
330
1A
102
}
330
1A
100
AcDbPlotSettings
  1

  2
none_device
  4

  6

 40
0.0
 41
0.0
 42
0.0
 43
0.0
 44
0.0
 45
0.0
 46
0.0
 47
0.0
 48
0.0
 49
0.0
140
0.0
141
0.0
142
1.0
143
1.0
 70
   688
 72
     0
 73
     0
 74
     5
  7

 75
    16
 76
     0
 77
     2
 78
   300
147
1.0
148
0.0
149
0.0
100
AcDbLayout
  1
Layout1
 70
     1
 71
     1
 10
0.0
 20
0.0
 11
12.0
 21
9.0
 12
0.0
 22
0.0
 32
0.0
 14
1.000000000000000E+20
 24
1.000000000000000E+20
 34
1.000000000000000E+20
 15
-1.000000000000000E+20
 25
-1.000000000000000E+20
 35
-1.000000000000000E+20
146
0.0
 13
0.0
 23
0.0
 33
0.0
 16
1.0
 26
0.0
 36
0.0
 17
0.0
 27
1.0
 37
0.0
 76
     0
330
1B
  0
LAYOUT
  5
26
102
{ACAD_REACTORS
330
1A
102
}
330
1A
100
AcDbPlotSettings
  1

  2
none_device
  4

  6

 40
0.0
 41
0.0
 42
0.0
 43
0.0
 44
0.0
 45
0.0
 46
0.0
 47
0.0
 48
0.0
 49
0.0
140
0.0
141
0.0
142
1.0
143
1.0
 70
   688
 72
     0
 73
     0
 74
     5
  7

 75
    16
 76
     0
 77
     2
 78
   300
147
1.0
148
0.0
149
0.0
100
AcDbLayout
  1
Layout2
 70
     1
 71
     2
 10
0.0
 20
0.0
 11
0.0
 21
0.0
 12
0.0
 22
0.0
 32
0.0
 14
0.0
 24
0.0
 34
0.0
 15
0.0
 25
0.0
 35
0.0
146
0.0
 13
0.0
 23
0.0
 33
0.0
 16
1.0
 26
0.0
 36
0.0
 17
0.0
 27
1.0
 37
0.0
 76
     0
330
23
  0
LAYOUT
  5
22
102
{ACAD_REACTORS
330
1A
102
}
330
1A
100
AcDbPlotSettings
  1

  2
none_device
  4

  6

 40
0.0
 41
0.0
 42
0.0
 43
0.0
 44
0.0
 45
0.0
 46
0.0
 47
0.0
 48
0.0
 49
0.0
140
0.0
141
0.0
142
1.0
143
1.0
 70
  1712
 72
     0
 73
     0
 74
     0
  7

 75
     0
 76
     0
 77
     2
 78
   300
147
1.0
148
0.0
149
0.0
100
AcDbLayout
  1
Model
 70
     1
 71
     0
 10
0.0
 20
0.0
 11
12.0
 21
9.0
 12
0.0
 22
0.0
 32
0.0
 14
1.000000000000000E+20
 24
1.000000000000000E+20
 34
1.000000000000000E+20
 15
-1.000000000000000E+20
 25
-1.000000000000000E+20
 35
-1.000000000000000E+20
146
0.0
 13
0.0
 23
0.0
 33
0.0
 16
1.0
 26
0.0
 36
0.0
 17
0.0
 27
1.0
 37
0.0
 76
     0
330
1F
331
29
  0
MATERIAL
  5
3D
102
{ACAD_REACTORS
330
3B
102
}
330
3B
100
AcDbMaterial
  1
ByBlock
 72
     1
 94
      127
  0
MATERIAL
  5
3C
102
{ACAD_REACTORS
330
3B
102
}
330
3B
100
AcDbMaterial
  1
ByLayer
 72
     1
 94
      127
  0
MATERIAL
  5
3E
102
{ACAD_REACTORS
330
3B
102
}
330
3B
100
AcDbMaterial
  1
Global
 72
     1
 94
      127
  0
MLINESTYLE
  5
18
102
{ACAD_REACTORS
330
17
102
}
330
17
100
AcDbMlineStyle
  2
Standard
 70
     0
  3

 62
   256
 51
90.0
 52
90.0
 71
     2
 49
0.5
 62
   256
  6
BYLAYER
 49
-0.5
 62
   256
  6
BYLAYER
  0
ACDBPLACEHOLDER
  5
F
102
{ACAD_REACTORS
330
E
102
}
330
E
  0
VISUALSTYLE
  5
2F
102
{ACAD_REACTORS
330
2A
102
}
330
2A
100
AcDbVisualStyle
  2
2dWireframe
 70
     4
177
     2
291
     0
 71
     0
176
     1
 72
     2
176
     1
 73
     0
176
     1
 90
        0
176
     1
 40
-0.6
176
     1
 41
-30.0
176
     1
 62
     5
 63
     7
421
 16777215
176
     1
 74
     1
176
     1
 91
        4
176
     1
 64
     7
176
     1
 65
   257
176
     1
 75
     1
176
     1
175
     1
176
     1
 42
1.0
176
     1
 92
        0
176
     1
 66
   257
176
     1
 43
1.0
176
     1
 76
     1
176
     1
 77
     6
176
     1
 78
     2
176
     1
 67
     7
176
     1
 79
     5
176
     1
170
     0
176
     1
171
     0
176
     1
290
     0
176
     1
 93
        1
176
     1
 44
0.0
176
     1
173
     0
176
     1
  0
VISUALSTYLE
  5
31
102
{ACAD_REACTORS
330
2A
102
}
330
2A
100
AcDbVisualStyle
  2
3D Hidden
 70
     6
177
     2
291
     0
 71
     1
176
     1
 72
     2
176
     1
 73
     2
176
     1
 90
        0
176
     1
 40
-0.6
176
     1
 41
-30.0
176
     1
 62
     5
 63
     7
421
 16777215
176
     1
 74
     2
176
     1
 91
        2
176
     1
 64
     7
176
     1
 65
   257
176
     1
 75
     2
176
     1
175
     1
176
     1
 42
40.0
176
     1
 92
        0
176
     1
 66
   257
176
     1
 43
1.0
176
     1
 76
     1
176
     1
 77
     6
176
     1
 78
     2
176
     1
 67
     7
176
     1
 79
     3
176
     1
170
     0
176
     1
171
     0
176
     1
290
     0
176
     1
 93
        1
176
     1
 44
0.0
176
     1
173
     0
176
     1
  0
VISUALSTYLE
  5
30
102
{ACAD_REACTORS
330
2A
102
}
330
2A
100
AcDbVisualStyle
  2
3dWireframe
 70
     5
177
     2
291
     0
 71
     0
176
     1
 72
     2
176
     1
 73
     0
176
     1
 90
        0
176
     1
 40
-0.6
176
     1
 41
-30.0
176
     1
 62
     5
 63
     7
421
 16777215
176
     1
 74
     1
176
     1
 91
        4
176
     1
 64
     7
176
     1
 65
   257
176
     1
 75
     1
176
     1
175
     1
176
     1
 42
1.0
176
     1
 92
        0
176
     1
 66
   257
176
     1
 43
1.0
176
     1
 76
     1
176
     1
 77
     6
176
     1
 78
     2
176
     1
 67
     7
176
     1
 79
     5
176
     1
170
     0
176
     1
171
     0
176
     1
290
     0
176
     1
 93
        1
176
     1
 44
0.0
176
     1
173
     0
176
     1
  0
VISUALSTYLE
  5
32
102
{ACAD_REACTORS
330
2A
102
}
330
2A
100
AcDbVisualStyle
  2
Basic
 70
     7
177
     2
291
     1
 71
     1
176
     1
 72
     0
176
     1
 73
     1
176
     1
 90
        0
176
     1
 40
-0.6
176
     1
 41
-30.0
176
     1
 62
     5
 63
     7
421
 16777215
176
     1
 74
     0
176
     1
 91
        4
176
     1
 64
     7
176
     1
 65
   257
176
     1
 75
     1
176
     1
175
     1
176
     1
 42
1.0
176
     1
 92
        8
176
     1
 66
     7
176
     1
 43
1.0
176
     1
 76
     1
176
     1
 77
     6
176
     1
 78
     2
176
     1
 67
     7
176
     1
 79
     5
176
     1
170
     0
176
     1
171
     0
176
     1
290
     0
176
     1
 93
        1
176
     1
 44
0.0
176
     1
173
     0
176
     1
  0
VISUALSTYLE
  5
36
102
{ACAD_REACTORS
330
2A
102
}
330
2A
100
AcDbVisualStyle
  2
Brighten
 70
    12
177
     2
291
     1
 71
     2
176
     1
 72
     2
176
     1
 73
     0
176
     1
 90
        0
176
     1
 40
-0.6
176
     1
 41
-30.0
176
     1
 62
     5
 63
     7
421
 16777215
176
     1
 74
     1
176
     1
 91
        4
176
     1
 64
     7
176
     1
 65
   257
176
     1
 75
     1
176
     1
175
     1
176
     1
 42
1.0
176
     1
 92
        8
176
     1
 66
     7
176
     1
 43
1.0
176
     1
 76
     1
176
     1
 77
     6
176
     1
 78
     2
176
     1
 67
     7
176
     1
 79
     5
176
     1
170
     0
176
     1
171
     0
176
     1
290
     0
176
     1
 93
        1
176
     1
 44
50.0
176
     1
173
     0
176
     1
  0
VISUALSTYLE
  5
3A
102
{ACAD_REACTORS
330
2A
102
}
330
2A
100
AcDbVisualStyle
  2
ColorChange
 70
    16
177
     2
291
     1
 71
     2
176
     1
 72
     2
176
     1
 73
     3
176
     1
 90
        0
176
     1
 40
-0.6
176
     1
 41
-30.0
176
     1
 62
     5
 63
     8
421
  8421504
176
     1
 74
     1
176
     1
 91
        4
176
     1
 64
     7
176
     1
 65
   257
176
     1
 75
     1
176
     1
175
     1
176
     1
 42
1.0
176
     1
 92
        8
176
     1
 66
     8
424
  8421504
176
     1
 43
1.0
176
     1
 76
     1
176
     1
 77
     6
176
     1
 78
     2
176
     1
 67
     7
176
     1
 79
     5
176
     1
170
     0
176
     1
171
     0
176
     1
290
     0
176
     1
 93
        1
176
     1
 44
0.0
176
     1
173
     0
176
     1
  0
VISUALSTYLE
  5
34
102
{ACAD_REACTORS
330
2A
102
}
330
2A
100
AcDbVisualStyle
  2
Conceptual
 70
     9
177
     2
291
     0
 71
     3
176
     1
 72
     2
176
     1
 73
     0
176
     1
 90
        0
176
     1
 40
-0.6
176
     1
 41
-30.0
176
     1
 62
     5
 63
     7
421
 16777215
176
     1
 74
     2
176
     1
 91
        2
176
     1
 64
     7
176
     1
 65
   257
176
     1
 75
     1
176
     1
175
     1
176
     1
 42
40.0
176
     1
 92
        8
176
     1
 66
     7
176
     1
 43
1.0
176
     1
 76
     1
176
     1
 77
     6
176
     1
 78
     2
176
     1
 67
     7
176
     1
 79
     3
176
     1
170
     0
176
     1
171
     0
176
     1
290
     0
176
     1
 93
        1
176
     1
 44
0.0
176
     1
173
     0
176
     1
  0
VISUALSTYLE
  5
35
102
{ACAD_REACTORS
330
2A
102
}
330
2A
100
AcDbVisualStyle
  2
Dim
 70
    11
177
     2
291
     1
 71
     2
176
     1
 72
     2
176
     1
 73
     0
176
     1
 90
        0
176
     1
 40
-0.6
176
     1
 41
-30.0
176
     1
 62
     5
 63
     7
421
 16777215
176
     1
 74
     1
176
     1
 91
        4
176
     1
 64
     7
176
     1
 65
   257
176
     1
 75
     1
176
     1
175
     1
176
     1
 42
1.0
176
     1
 92
        8
176
     1
 66
     7
176
     1
 43
1.0
176
     1
 76
     1
176
     1
 77
     6
176
     1
 78
     2
176
     1
 67
     7
176
     1
 79
     5
176
     1
170
     0
176
     1
171
     0
176
     1
290
     0
176
     1
 93
        1
176
     1
 44
-50.0
176
     1
173
     0
176
     1
  0
VISUALSTYLE
  5
39
102
{ACAD_REACTORS
330
2A
102
}
330
2A
100
AcDbVisualStyle
  2
Facepattern
 70
    15
177
     2
291
     1
 71
     2
176
     1
 72
     2
176
     1
 73
     0
176
     1
 90
        0
176
     1
 40
-0.6
176
     1
 41
-30.0
176
     1
 62
     5
 63
     7
421
 16777215
176
     1
 74
     1
176
     1
 91
        4
176
     1
 64
     7
176
     1
 65
   257
176
     1
 75
     1
176
     1
175
     1
176
     1
 42
1.0
176
     1
 92
        8
176
     1
 66
     7
176
     1
 43
1.0
176
     1
 76
     1
176
     1
 77
     6
176
     1
 78
     2
176
     1
 67
     7
176
     1
 79
     5
176
     1
170
     0
176
     1
171
     0
176
     1
290
     0
176
     1
 93
        1
176
     1
 44
0.0
176
     1
173
     0
176
     1
  0
VISUALSTYLE
  5
2B
102
{ACAD_REACTORS
330
2A
102
}
330
2A
100
AcDbVisualStyle
  2
Flat
 70
     0
177
     2
291
     1
 71
     2
176
     1
 72
     1
176
     1
 73
     1
176
     1
 90
        2
176
     1
 40
-0.6
176
     1
 41
30.0
176
     1
 62
     5
 63
     7
421
 16777215
176
     1
 74
     0
176
     1
 91
        4
176
     1
 64
     7
176
     1
 65
   257
176
     1
 75
     1
176
     1
175
     1
176
     1
 42
1.0
176
     1
 92
        8
176
     1
 66
     7
176
     1
 43
1.0
176
     1
 76
     1
176
     1
 77
     6
176
     1
 78
     2
176
     1
 67
     7
176
     1
 79
     5
176
     1
170
     0
176
     1
171
     0
176
     1
290
     0
176
     1
 93
       13
176
     1
 44
0.0
176
     1
173
     0
176
     1
  0
VISUALSTYLE
  5
2C
102
{ACAD_REACTORS
330
2A
102
}
330
2A
100
AcDbVisualStyle
  2
FlatWithEdges
 70
     1
177
     2
291
     1
 71
     2
176
     1
 72
     1
176
     1
 73
     1
176
     1
 90
        2
176
     1
 40
-0.6
176
     1
 41
30.0
176
     1
 62
     5
 63
     7
421
 16777215
176
     1
 74
     1
176
     1
 91
        4
176
     1
 64
     7
176
     1
 65
   257
176
     1
 75
     1
176
     1
175
     1
176
     1
 42
1.0
176
     1
 92
        0
176
     1
 66
   257
176
     1
 43
1.0
176
     1
 76
     1
176
     1
 77
     6
176
     1
 78
     2
176
     1
 67
     7
176
     1
 79
     5
176
     1
170
     0
176
     1
171
     0
176
     1
290
     0
176
     1
 93
       13
176
     1
 44
0.0
176
     1
173
     0
176
     1
  0
VISUALSTYLE
  5
2D
102
{ACAD_REACTORS
330
2A
102
}
330
2A
100
AcDbVisualStyle
  2
Gouraud
 70
     2
177
     2
291
     1
 71
     2
176
     1
 72
     2
176
     1
 73
     1
176
     1
 90
        2
176
     1
 40
-0.6
176
     1
 41
30.0
176
     1
 62
     5
 63
     7
421
 16777215
176
     1
 74
     0
176
     1
 91
        4
176
     1
 64
     7
176
     1
 65
   257
176
     1
 75
     1
176
     1
175
     1
176
     1
 42
1.0
176
     1
 92
        0
176
     1
 66
     7
176
     1
 43
1.0
176
     1
 76
     1
176
     1
 77
     6
176
     1
 78
     2
176
     1
 67
     7
176
     1
 79
     5
176
     1
170
     0
176
     1
171
     0
176
     1
290
     0
176
     1
 93
       13
176
     1
 44
0.0
176
     1
173
     0
176
     1
  0
VISUALSTYLE
  5
2E
102
{ACAD_REACTORS
330
2A
102
}
330
2A
100
AcDbVisualStyle
  2
GouraudWithEdges
 70
     3
177
     2
291
     1
 71
     2
176
     1
 72
     2
176
     1
 73
     1
176
     1
 90
        2
176
     1
 40
-0.6
176
     1
 41
30.0
176
     1
 62
     5
 63
     7
421
 16777215
176
     1
 74
     1
176
     1
 91
        4
176
     1
 64
     7
176
     1
 65
   257
176
     1
 75
     1
176
     1
175
     1
176
     1
 42
1.0
176
     1
 92
        0
176
     1
 66
   257
176
     1
 43
1.0
176
     1
 76
     1
176
     1
 77
     6
176
     1
 78
     2
176
     1
 67
     7
176
     1
 79
     5
176
     1
170
     0
176
     1
171
     0
176
     1
290
     0
176
     1
 93
       13
176
     1
 44
0.0
176
     1
173
     0
176
     1
  0
VISUALSTYLE
  5
38
102
{ACAD_REACTORS
330
2A
102
}
330
2A
100
AcDbVisualStyle
  2
Linepattern
 70
    14
177
     2
291
     1
 71
     2
176
     1
 72
     2
176
     1
 73
     0
176
     1
 90
        0
176
     1
 40
-0.6
176
     1
 41
-30.0
176
     1
 62
     5
 63
     7
421
 16777215
176
     1
 74
     1
176
     1
 91
        4
176
     1
 64
     7
176
     1
 65
   257
176
     1
 75
     7
176
     1
175
     7
176
     1
 42
1.0
176
     1
 92
        8
176
     1
 66
     7
176
     1
 43
1.0
176
     1
 76
     1
176
     1
 77
     6
176
     1
 78
     2
176
     1
 67
     7
176
     1
 79
     5
176
     1
170
     0
176
     1
171
     0
176
     1
290
     0
176
     1
 93
        1
176
     1
 44
0.0
176
     1
173
     0
176
     1
  0
VISUALSTYLE
  5
33
102
{ACAD_REACTORS
330
2A
102
}
330
2A
100
AcDbVisualStyle
  2
Realistic
 70
     8
177
     2
291
     0
 71
     2
176
     1
 72
     2
176
     1
 73
     0
176
     1
 90
        0
176
     1
 40
-0.6
176
     1
 41
-30.0
176
     1
 62
     5
 63
     7
421
 16777215
176
     1
 74
     1
176
     1
 91
        0
176
     1
 64
     7
176
     1
 65
   257
176
     1
 75
     1
176
     1
175
     1
176
     1
 42
1.0
176
     1
 92
        8
176
     1
 66
     8
424
  7895160
176
     1
 43
1.0
176
     1
 76
     1
176
     1
 77
     6
176
     1
 78
     2
176
     1
 67
     7
176
     1
 79
     5
176
     1
170
     0
176
     1
171
     0
176
     1
290
     0
176
     1
 93
       13
176
     1
 44
0.0
176
     1
173
     0
176
     1
  0
VISUALSTYLE
  5
37
102
{ACAD_REACTORS
330
2A
102
}
330
2A
100
AcDbVisualStyle
  2
Thicken
 70
    13
177
     2
291
     1
 71
     2
176
     1
 72
     2
176
     1
 73
     0
176
     1
 90
        0
176
     1
 40
-0.6
176
     1
 41
-30.0
176
     1
 62
     5
 63
     7
421
 16777215
176
     1
 74
     1
176
     1
 91
        4
176
     1
 64
     7
176
     1
 65
   257
176
     1
 75
     1
176
     1
175
     1
176
     1
 42
1.0
176
     1
 92
       12
176
     1
 66
     7
176
     1
 43
1.0
176
     1
 76
     1
176
     1
 77
     6
176
     1
 78
     2
176
     1
 67
     7
176
     1
 79
     5
176
     1
170
     0
176
     1
171
     0
176
     1
290
     0
176
     1
 93
        1
176
     1
 44
0.0
176
     1
173
     0
176
     1
  0
ENDSEC
  0
EOF
