  0
SECTION
  2
HEADER
  9
$ACADVER
  1
AC1024
  9
$ACADMAINTVER
 70
     6
  9
$DWGCODEPAGE
  3
ANSI_1251
  9
$INSBASE
 10
0.0
 20
0.0
 30
0.0
  9
$EXTMIN
 10
1.000000000000000E+20
 20
1.000000000000000E+20
 30
1.000000000000000E+20
  9
$EXTMAX
 10
-1.000000000000000E+20
 20
-1.000000000000000E+20
 30
-1.000000000000000E+20
  9
$LIMMIN
 10
0.0
 20
0.0
  9
$LIMMAX
 10
12.0
 20
9.0
  9
$ORTHOMODE
 70
     0
  9
$REGENMODE
 70
     1
  9
$FILLMODE
 70
     1
  9
$QTEXTMODE
 70
     0
  9
$MIRRTEXT
 70
     1
  9
$LTSCALE
 40
1.0
  9
$ATTMODE
 70
     1
  9
$TEXTSIZE
 40
0.2
  9
$TRACEWID
 40
0.05
  9
$TEXTSTYLE
  7
Standard
  9
$CLAYER
  8
0
  9
$CELTYPE
  6
ByLayer
  9
$CECOLOR
 62
   256
  9
$CELTSCALE
 40
1.0
  9
$DISPSILH
 70
     0
  9
$DIMSCALE
 40
1.0
  9
$DIMASZ
 40
0.18
  9
$DIMEXO
 40
0.0625
  9
$DIMDLI
 40
0.38
  9
$DIMRND
 40
0.0
  9
$DIMDLE
 40
0.0
  9
$DIMEXE
 40
0.18
  9
$DIMTP
 40
0.0
  9
$DIMTM
 40
0.0
  9
$DIMTXT
 40
0.18
  9
$DIMCEN
 40
0.09
  9
$DIMTSZ
 40
0.0
  9
$DIMTOL
 70
     0
  9
$DIMLIM
 70
     0
  9
$DIMTIH
 70
     1
  9
$DIMTOH
 70
     1
  9
$DIMSE1
 70
     0
  9
$DIMSE2
 70
     0
  9
$DIMTAD
 70
     0
  9
$DIMZIN
 70
     0
  9
$DIMBLK
  1

  9
$DIMASO
 70
     1
  9
$DIMSHO
 70
     1
  9
$DIMPOST
  1

  9
$DIMAPOST
  1

  9
$DIMALT
 70
     0
  9
$DIMALTD
 70
     2
  9
$DIMALTF
 40
25.4
  9
$DIMLFAC
 40
1.0
  9
$DIMTOFL
 70
     0
  9
$DIMTVP
 40
0.0
  9
$DIMTIX
 70
     0
  9
$DIMSOXD
 70
     0
  9
$DIMSAH
 70
     0
  9
$DIMBLK1
  1

  9
$DIMBLK2
  1

  9
$DIMSTYLE
  2
Standard
  9
$DIMCLRD
 70
     0
  9
$DIMCLRE
 70
     0
  9
$DIMCLRT
 70
     0
  9
$DIMTFAC
 40
1.0
  9
$DIMGAP
 40
0.09
  9
$DIMJUST
 70
     0
  9
$DIMSD1
 70
     0
  9
$DIMSD2
 70
     0
  9
$DIMTOLJ
 70
     1
  9
$DIMTZIN
 70
     0
  9
$DIMALTZ
 70
     0
  9
$DIMALTTZ
 70
     0
  9
$DIMUPT
 70
     0
  9
$DIMDEC
 70
     4
  9
$DIMTDEC
 70
     4
  9
$DIMALTU
 70
     2
  9
$DIMALTTD
 70
     2
  9
$DIMTXSTY
  7
Standard
  9
$DIMAUNIT
 70
     0
  9
$DIMADEC
 70
     0
  9
$DIMALTRND
 40
0.0
  9
$DIMAZIN
 70
     0
  9
$DIMDSEP
 70
    46
  9
$DIMATFIT
 70
     3
  9
$DIMFRAC
 70
     0
  9
$DIMLDRBLK
  1

  9
$DIMLUNIT
 70
     2
  9
$DIMLWD
 70
    -2
  9
$DIMLWE
 70
    -2
  9
$DIMTMOVE
 70
     0
  9
$DIMFXL
 40
1.0
  9
$DIMFXLON
 70
     0
  9
$DIMJOGANG
 40
0.7853981633974483
  9
$DIMTFILL
 70
     0
  9
$DIMTFILLCLR
 70
     0
  9
$DIMARCSYM
 70
     0
  9
$DIMLTYPE
  6

  9
$DIMLTEX1
  6

  9
$DIMLTEX2
  6

  9
$DIMTXTDIRECTION
 70
     0
  9
$LUNITS
 70
     2
  9
$LUPREC
 70
     4
  9
$SKETCHINC
 40
0.1
  9
$FILLETRAD
 40
0.5
  9
$AUNITS
 70
     0
  9
$AUPREC
 70
     0
  9
$MENU
  1
.
  9
$ELEVATION
 40
0.0
  9
$PELEVATION
 40
0.0
  9
$THICKNESS
 40
0.0
  9
$LIMCHECK
 70
     0
  9
$CHAMFERA
 40
0.5
  9
$CHAMFERB
 40
0.5
  9
$CHAMFERC
 40
1.0
  9
$CHAMFERD
 40
0.0
  9
$SKPOLY
 70
     0
  9
$TDCREATE
 40
2460149.711254039
  9
$TDUCREATE
 40
2460149.586254039
  9
$TDUPDATE
 40
2460149.711254063
  9
$TDUUPDATE
 40
2460149.586254063
  9
$TDINDWG
 40
0.0000000116
  9
$TDUSRTIMER
 40
0.0000000116
  9
$USRTIMER
 70
     1
  9
$ANGBASE
 50
0.0
  9
$ANGDIR
 70
     0
  9
$PDMODE
 70
     0
  9
$PDSIZE
 40
0.0
  9
$PLINEWID
 40
0.0
  9
$SPLFRAME
 70
     0
  9
$SPLINETYPE
 70
     6
  9
$SPLINESEGS
 70
     8
  9
$HANDSEED
  5
69
  9
$SURFTAB1
 70
     6
  9
$SURFTAB2
 70
     6
  9
$SURFTYPE
 70
     6
  9
$SURFU
 70
     6
  9
$SURFV
 70
     6
  9
$UCSBASE
  2

  9
$UCSNAME
  2

  9
$UCSORG
 10
0.0
 20
0.0
 30
0.0
  9
$UCSXDIR
 10
1.0
 20
0.0
 30
0.0
  9
$UCSYDIR
 10
0.0
 20
1.0
 30
0.0
  9
$UCSORTHOREF
  2

  9
$UCSORTHOVIEW
 70
     0
  9
$UCSORGTOP
 10
0.0
 20
0.0
 30
0.0
  9
$UCSORGBOTTOM
 10
0.0
 20
0.0
 30
0.0
  9
$UCSORGLEFT
 10
0.0
 20
0.0
 30
0.0
  9
$UCSORGRIGHT
 10
0.0
 20
0.0
 30
0.0
  9
$UCSORGFRONT
 10
0.0
 20
0.0
 30
0.0
  9
$UCSORGBACK
 10
0.0
 20
0.0
 30
0.0
  9
$PUCSBASE
  2

  9
$PUCSNAME
  2

  9
$PUCSORG
 10
0.0
 20
0.0
 30
0.0
  9
$PUCSXDIR
 10
1.0
 20
0.0
 30
0.0
  9
$PUCSYDIR
 10
0.0
 20
1.0
 30
0.0
  9
$PUCSORTHOREF
  2

  9
$PUCSORTHOVIEW
 70
     0
  9
$PUCSORGTOP
 10
0.0
 20
0.0
 30
0.0
  9
$PUCSORGBOTTOM
 10
0.0
 20
0.0
 30
0.0
  9
$PUCSORGLEFT
 10
0.0
 20
0.0
 30
0.0
  9
$PUCSORGRIGHT
 10
0.0
 20
0.0
 30
0.0
  9
$PUCSORGFRONT
 10
0.0
 20
0.0
 30
0.0
  9
$PUCSORGBACK
 10
0.0
 20
0.0
 30
0.0
  9
$USERI1
 70
     0
  9
$USERI2
 70
     0
  9
$USERI3
 70
     0
  9
$USERI4
 70
     0
  9
$USERI5
 70
     0
  9
$USERR1
 40
0.0
  9
$USERR2
 40
0.0
  9
$USERR3
 40
0.0
  9
$USERR4
 40
0.0
  9
$USERR5
 40
0.0
  9
$WORLDVIEW
 70
     1
  9
$SHADEDGE
 70
     3
  9
$SHADEDIF
 70
    70
  9
$TILEMODE
 70
     1
  9
$MAXACTVP
 70
    64
  9
$PINSBASE
 10
0.0
 20
0.0
 30
0.0
  9
$PLIMCHECK
 70
     0
  9
$PEXTMIN
 10
1.000000000000000E+20
 20
1.000000000000000E+20
 30
1.000000000000000E+20
  9
$PEXTMAX
 10
-1.000000000000000E+20
 20
-1.000000000000000E+20
 30
-1.000000000000000E+20
  9
$PLIMMIN
 10
0.0
 20
0.0
  9
$PLIMMAX
 10
12.0
 20
9.0
  9
$UNITMODE
 70
     0
  9
$VISRETAIN
 70
     1
  9
$PLINEGEN
 70
     0
  9
$PSLTSCALE
 70
     1
  9
$TREEDEPTH
 70
  3020
  9
$CMLSTYLE
  2
Standard
  9
$CMLJUST
 70
     0
  9
$CMLSCALE
 40
1.0
  9
$PROXYGRAPHICS
 70
     1
  9
$MEASUREMENT
 70
     0
  9
$CELWEIGHT
370
    -1
  9
$ENDCAPS
280
     0
  9
$JOINSTYLE
280
     0
  9
$LWDISPLAY
290
     1
  9
$INSUNITS
 70
     1
  9
$HYPERLINKBASE
  1

  9
$STYLESHEET
  1

  9
$XEDIT
290
     1
  9
$CEPSNTYPE
380
     0
  9
$PSTYLEMODE
290
     1
  9
$FINGERPRINTGUID
  2
{27C63476-64ED-48B0-B4A9-59E7A9EA67C0}
  9
$VERSIONGUID
  2
{FAEB1C32-E019-11D5-929B-00C0DF256EC4}
  9
$EXTNAMES
290
     1
  9
$PSVPSCALE
 40
0.0
  9
$OLESTARTUP
290
     0
  9
$SORTENTS
280
   127
  9
$INDEXCTL
280
     0
  9
$HIDETEXT
280
     1
  9
$XCLIPFRAME
280
     2
  9
$HALOGAP
280
     0
  9
$OBSCOLOR
 70
   257
  9
$OBSLTYPE
280
     0
  9
$INTERSECTIONDISPLAY
280
     0
  9
$INTERSECTIONCOLOR
 70
   257
  9
$DIMASSOC
280
     2
  9
$PROJECTNAME
  1

  9
$CAMERADISPLAY
290
     0
  9
$LENSLENGTH
 40
50.0
  9
$CAMERAHEIGHT
 40
0.0
  9
$STEPSPERSEC
 40
2.0
  9
$STEPSIZE
 40
6.0
  9
$3DDWFPREC
 40
2.0
  9
$PSOLWIDTH
 40
0.25
  9
$PSOLHEIGHT
 40
4.0
  9
$LOFTANG1
 40
1.570796326794897
  9
$LOFTANG2
 40
1.570796326794897
  9
$LOFTMAG1
 40
0.0
  9
$LOFTMAG2
 40
0.0
  9
$LOFTPARAM
 70
     7
  9
$LOFTNORMALS
280
     1
  9
$LATITUDE
 40
37.795
  9
$LONGITUDE
 40
-122.394
  9
$NORTHDIRECTION
 40
0.0
  9
$TIMEZONE
 70
 -8000
  9
$LIGHTGLYPHDISPLAY
280
     1
  9
$TILEMODELIGHTSYNCH
280
     1
  9
$CMATERIAL
347
3C
  9
$SOLIDHIST
280
     1
  9
$SHOWHIST
280
     1
  9
$DWFFRAME
280
     2
  9
$DGNFRAME
280
     2
  9
$REALWORLDSCALE
290
     1
  9
$INTERFERECOLOR
 62
   256
  9
$CSHADOW
280
     0
  9
$SHADOWPLANELOCATION
 40
0.0
  0
ENDSEC
  0
SECTION
  2
CLASSES
  0
CLASS
  1
ACDBDICTIONARYWDFLT
  2
AcDbDictionaryWithDefault
  3
ObjectDBX Classes
 90
        0
 91
        4
280
     0
281
     0
  0
CLASS
  1
VISUALSTYLE
  2
AcDbVisualStyle
  3
ObjectDBX Classes
 90
     4095
 91
        4
280
     0
281
     0
  0
CLASS
  1
MATERIAL
  2
AcDbMaterial
  3
ObjectDBX Classes
 90
     1153
 91
        4
280
     0
281
     0
  0
CLASS
  1
SUN
  2
AcDbSun
  3
SCENEOE
 90
     1024
 91
        4
280
     0
281
     0
  0
ENDSEC
  0
SECTION
  2
TABLES
  0
TABLE
  2
VPORT
  5
8
330
0
100
AcDbSymbolTable
 70
     1
  0
VPORT
  5
29
330
8
100
AcDbSymbolTableRecord
100
AcDbViewportTableRecord
  2
*Active
 70
     0
 10
0.0
 20
0.0
 11
1.0
 21
1.0
 12
0.0
 22
0.0
 13
0.0
 23
0.0
 14
0.5
 24
0.5
 15
0.5
 25
0.5
 16
0.0
 26
0.0
 36
1.0
 17
2.0
 27
2.0
 37
0.0
 40
4.0
 41
1.0
 42
50.0
 43
0.0
 44
0.0
 50
0.0
 51
0.0
 71
     0
 72
   100
 73
     1
 74
     3
 75
     0
 76
     0
 77
     0
 78
     0
281
     0
 65
     1
110
0.0
120
0.0
130
0.0
111
1.0
121
0.0
131
0.0
112
0.0
122
1.0
132
0.0
 79
     0
146
0.0
 60
     3
 61
     5
292
     1
282
     1
141
0.0
142
0.0
 63
   250
361
3F
  0
ENDTAB
  0
TABLE
  2
LTYPE
  5
5
330
0
100
AcDbSymbolTable
 70
     1
  0
LTYPE
  5
14
330
5
100
AcDbSymbolTableRecord
100
AcDbLinetypeTableRecord
  2
ByBlock
 70
     0
  3

 72
    65
 73
     0
 40
0.0
  0
LTYPE
  5
15
330
5
100
AcDbSymbolTableRecord
100
AcDbLinetypeTableRecord
  2
ByLayer
 70
     0
  3

 72
    65
 73
     0
 40
0.0
  0
LTYPE
  5
16
330
5
100
AcDbSymbolTableRecord
100
AcDbLinetypeTableRecord
  2
Continuous
 70
     0
  3
Solid line
 72
    65
 73
     0
 40
0.0
  0
ENDTAB
  0
TABLE
  2
LAYER
  5
2
330
0
100
AcDbSymbolTable
 70
     2
  0
LAYER
  5
10
330
2
100
AcDbSymbolTableRecord
100
AcDbLayerTableRecord
  2
0
 70
     0
 62
     7
  6
Continuous
370
    -3
390
F
347
3E
  0
LAYER
  5
40
330
2
100
AcDbSymbolTableRecord
100
AcDbLayerTableRecord
  2
_U+0421_U+043B_U+043E_U+0439 1
 70
     0
 62
     7
  6
Continuous
370
    -3
390
F
347
3E
  0
ENDTAB
  0
TABLE
  2
STYLE
  5
3
330
0
100
AcDbSymbolTable
 70
     1
  0
STYLE
  5
11
330
3
100
AcDbSymbolTableRecord
100
AcDbTextStyleTableRecord
  2
Standard
 70
     0
 40
0.0
 41
1.0
 50
0.0
 71
     0
 42
0.2
  3
txt
  4

  0
ENDTAB
  0
TABLE
  2
VIEW
  5
6
330
0
100
AcDbSymbolTable
 70
     0
  0
ENDTAB
  0
TABLE
  2
UCS
  5
7
330
0
100
AcDbSymbolTable
 70
     0
  0
ENDTAB
  0
TABLE
  2
APPID
  5
9
330
0
100
AcDbSymbolTable
 70
     1
  0
APPID
  5
12
330
9
100
AcDbSymbolTableRecord
100
AcDbRegAppTableRecord
  2
ACAD
 70
     0
  0
ENDTAB
  0
TABLE
  2
DIMSTYLE
  5
A
330
0
100
AcDbSymbolTable
 70
     1
100
AcDbDimStyleTable
  0
DIMSTYLE
105
27
330
A
100
AcDbSymbolTableRecord
100
AcDbDimStyleTableRecord
  2
Standard
 70
     0
178
     0
340
11
  0
ENDTAB
  0
TABLE
  2
BLOCK_RECORD
  5
1
330
0
100
AcDbSymbolTable
 70
     1
  0
BLOCK_RECORD
  5
1F
330
1
100
AcDbSymbolTableRecord
100
AcDbBlockTableRecord
  2
*Model_Space
340
22
 70
     0
280
     1
281
     0
  0
BLOCK_RECORD
  5
1B
330
1
100
AcDbSymbolTableRecord
100
AcDbBlockTableRecord
  2
*Paper_Space
340
1E
 70
     0
280
     1
281
     0
  0
BLOCK_RECORD
  5
23
330
1
100
AcDbSymbolTableRecord
100
AcDbBlockTableRecord
  2
*Paper_Space0
340
26
 70
     0
280
     1
281
     0
  0
ENDTAB
  0
ENDSEC
  0
SECTION
  2
BLOCKS
  0
BLOCK
  5
20
330
1F
100
AcDbEntity
  8
0
100
AcDbBlockBegin
  2
*Model_Space
 70
     0
 10
0.0
 20
0.0
 30
0.0
  3
*Model_Space
  1

  0
ENDBLK
  5
21
330
1F
100
AcDbEntity
  8
0
100
AcDbBlockEnd
  0
BLOCK
  5
1C
330
1B
100
AcDbEntity
 67
     1
  8
0
100
AcDbBlockBegin
  2
*Paper_Space
 70
     0
 10
0.0
 20
0.0
 30
0.0
  3
*Paper_Space
  1

  0
ENDBLK
  5
1D
330
1B
100
AcDbEntity
 67
     1
  8
0
100
AcDbBlockEnd
  0
BLOCK
  5
24
330
23
100
AcDbEntity
  8
0
100
AcDbBlockBegin
  2
*Paper_Space0
 70
     0
 10
0.0
 20
0.0
 30
0.0
  3
*Paper_Space0
  1

  0
ENDBLK
  5
25
330
23
100
AcDbEntity
  8
0
100
AcDbBlockEnd
  0
ENDSEC
  0
SECTION
  2
ENTITIES
  0
SPLINE
  5
41
330
1F
100
AcDbEntity
  8
_U+0421_U+043B_U+043E_U+0439 1
 62
    12
420
 14878227
370
     9
100
AcDbSpline
210
0.0
220
0.0
230
1.0
 70
    11
 71
     3
 72
   350
 73
   346
 74
     0
 42
0.0000000001
 43
0.0000000001
 12
1.0
 22
0.0
 32
0.0
 13
1.0
 23
0.0
 33
0.0
 40
0.0
 40
0.0
 40
0.0
 40
0.0
 40
1.0
 40
1.0
 40
1.0
 40
2.0
 40
2.0
 40
2.0
 40
3.0
 40
3.0
 40
3.0
 40
4.0
 40
4.0
 40
4.0
 40
5.0
 40
5.0
 40
5.0
 40
6.0
 40
6.0
 40
6.0
 40
7.0
 40
7.0
 40
7.0
 40
8.0
 40
8.0
 40
8.0
 40
9.0
 40
9.0
 40
9.0
 40
10.0
 40
10.0
 40
10.0
 40
11.0
 40
11.0
 40
11.0
 40
12.0
 40
12.0
 40
12.0
 40
13.0
 40
13.0
 40
13.0
 40
14.0
 40
14.0
 40
14.0
 40
15.0
 40
15.0
 40
15.0
 40
16.0
 40
16.0
 40
16.0
 40
17.0
 40
17.0
 40
17.0
 40
18.0
 40
18.0
 40
18.0
 40
19.0
 40
19.0
 40
19.0
 40
20.0
 40
20.0
 40
20.0
 40
21.0
 40
21.0
 40
21.0
 40
22.0
 40
22.0
 40
22.0
 40
23.0
 40
23.0
 40
23.0
 40
24.0
 40
24.0
 40
24.0
 40
25.0
 40
25.0
 40
25.0
 40
26.0
 40
26.0
 40
26.0
 40
27.0
 40
27.0
 40
27.0
 40
28.0
 40
28.0
 40
28.0
 40
29.0
 40
29.0
 40
29.0
 40
30.0
 40
30.0
 40
30.0
 40
31.0
 40
31.0
 40
31.0
 40
32.0
 40
32.0
 40
32.0
 40
33.0
 40
33.0
 40
33.0
 40
34.0
 40
34.0
 40
34.0
 40
35.0
 40
35.0
 40
35.0
 40
36.0
 40
36.0
 40
36.0
 40
37.0
 40
37.0
 40
37.0
 40
38.0
 40
38.0
 40
38.0
 40
39.0
 40
39.0
 40
39.0
 40
40.0
 40
40.0
 40
40.0
 40
41.0
 40
41.0
 40
41.0
 40
42.0
 40
42.0
 40
42.0
 40
43.0
 40
43.0
 40
43.0
 40
44.0
 40
44.0
 40
44.0
 40
45.0
 40
45.0
 40
45.0
 40
46.0
 40
46.0
 40
46.0
 40
47.0
 40
47.0
 40
47.0
 40
48.0
 40
48.0
 40
48.0
 40
49.0
 40
49.0
 40
49.0
 40
50.0
 40
50.0
 40
50.0
 40
51.0
 40
51.0
 40
51.0
 40
52.0
 40
52.0
 40
52.0
 40
53.0
 40
53.0
 40
53.0
 40
54.0
 40
54.0
 40
54.0
 40
55.0
 40
55.0
 40
55.0
 40
56.0
 40
56.0
 40
56.0
 40
57.0
 40
57.0
 40
57.0
 40
58.0
 40
58.0
 40
58.0
 40
59.0
 40
59.0
 40
59.0
 40
60.0
 40
60.0
 40
60.0
 40
61.0
 40
61.0
 40
61.0
 40
62.0
 40
62.0
 40
62.0
 40
63.0
 40
63.0
 40
63.0
 40
64.0
 40
64.0
 40
64.0
 40
65.0
 40
65.0
 40
65.0
 40
66.0
 40
66.0
 40
66.0
 40
67.0
 40
67.0
 40
67.0
 40
68.0
 40
68.0
 40
68.0
 40
69.0
 40
69.0
 40
69.0
 40
70.0
 40
70.0
 40
70.0
 40
71.0
 40
71.0
 40
71.0
 40
72.0
 40
72.0
 40
72.0
 40
73.0
 40
73.0
 40
73.0
 40
74.0
 40
74.0
 40
74.0
 40
75.0
 40
75.0
 40
75.0
 40
76.0
 40
76.0
 40
76.0
 40
77.0
 40
77.0
 40
77.0
 40
78.0
 40
78.0
 40
78.0
 40
79.0
 40
79.0
 40
79.0
 40
80.0
 40
80.0
 40
80.0
 40
81.0
 40
81.0
 40
81.0
 40
82.0
 40
82.0
 40
82.0
 40
83.0
 40
83.0
 40
83.0
 40
84.0
 40
84.0
 40
84.0
 40
85.0
 40
85.0
 40
85.0
 40
86.0
 40
86.0
 40
86.0
 40
87.0
 40
87.0
 40
87.0
 40
88.0
 40
88.0
 40
88.0
 40
89.0
 40
89.0
 40
89.0
 40
90.0
 40
90.0
 40
90.0
 40
91.0
 40
91.0
 40
91.0
 40
92.0
 40
92.0
 40
92.0
 40
93.0
 40
93.0
 40
93.0
 40
94.0
 40
94.0
 40
94.0
 40
95.0
 40
95.0
 40
95.0
 40
96.0
 40
96.0
 40
96.0
 40
97.0
 40
97.0
 40
97.0
 40
98.0
 40
98.0
 40
98.0
 40
99.0
 40
99.0
 40
99.0
 40
100.0
 40
100.0
 40
100.0
 40
101.0
 40
101.0
 40
101.0
 40
102.0
 40
102.0
 40
102.0
 40
103.0
 40
103.0
 40
103.0
 40
104.0
 40
104.0
 40
104.0
 40
105.0
 40
105.0
 40
105.0
 40
106.0
 40
106.0
 40
106.0
 40
107.0
 40
107.0
 40
107.0
 40
108.0
 40
108.0
 40
108.0
 40
109.0
 40
109.0
 40
109.0
 40
110.0
 40
110.0
 40
110.0
 40
111.0
 40
111.0
 40
111.0
 40
112.0
 40
112.0
 40
112.0
 40
113.0
 40
113.0
 40
113.0
 40
114.0
 40
114.0
 40
114.0
 40
115.0
 40
115.0
 40
115.0
 40
115.0
 10
2.0
 20
3.541861110263401
 30
0.0
 10
2.0
 20
3.541861110263401
 30
0.0
 10
1.575722164577908
 20
3.891583336724175
 30
0.0
 10
1.575722164577908
 20
3.891583336724175
 30
0.0
 10
1.540208286709255
 20
3.920833335982429
 30
0.0
 10
1.487694422403971
 20
3.915805558363596
 30
0.0
 10
1.458416620890299
 20
3.880291673872206
 30
0.0
 10
1.429152700636122
 20
3.844777782758077
 30
0.0
 10
1.434208340115017
 20
3.792263905207316
 30
0.0
 10
1.469708336724175
 20
3.762986130184597
 30
0.0
 10
1.469708336724175
 20
3.762986130184597
 30
0.0
 10
1.9241943359375
 20
3.388361136118571
 30
0.0
 10
1.9241943359375
 20
3.388361136118571
 30
0.0
 10
1.9241943359375
 20
3.388361136118571
 30
0.0
 10
1.9241943359375
 20
3.187347253163655
 30
0.0
 10
1.9241943359375
 20
3.187347253163655
 30
0.0
 10
1.9241943359375
 20
3.187347253163655
 30
0.0
 10
1.575722164577908
 20
3.474597242143419
 30
0.0
 10
1.575722164577908
 20
3.474597242143419
 30
0.0
 10
1.540208286709255
 20
3.50386110941569
 30
0.0
 10
1.487694422403971
 20
3.498805575900608
 30
0.0
 10
1.458416620890299
 20
3.46330557929145
 30
0.0
 10
1.429152700636122
 20
3.427791701422797
 30
0.0
 10
1.434208340115017
 20
3.375277784135606
 30
0.0
 10
1.469708336724175
 20
3.346000035603841
 30
0.0
 10
1.469708336724175
 20
3.346000035603841
 30
0.0
 10
1.9241943359375
 20
2.971375041537815
 30
0.0
 10
1.9241943359375
 20
2.971375041537815
 30
0.0
 10
1.9241943359375
 20
2.971375041537815
 30
0.0
 10
1.9241943359375
 20
2.616444481743706
 30
0.0
 10
1.9241943359375
 20
2.616444481743706
 30
0.0
 10
1.9241943359375
 20
2.616444481743706
 30
0.0
 10
1.423652754889594
 20
2.928611119588216
 30
0.0
 10
1.423652754889594
 20
2.928611119588216
 30
0.0
 10
1.362499978807237
 20
2.966750038994683
 30
0.0
 10
1.284902784559462
 20
2.914222187466092
 30
0.0
 10
1.297513855828179
 20
2.84329170650906
 30
0.0
 10
1.297513855828179
 20
2.84329170650906
 30
0.0
 10
1.402347140842014
 20
2.254416783650716
 30
0.0
 10
1.402347140842014
 20
2.254416783650716
 30
0.0
 10
1.402347140842014
 20
2.254416783650716
 30
0.0
 10
1.090638796488444
 20
2.351972368028429
 30
0.0
 10
1.090638796488444
 20
2.351972368028429
 30
0.0
 10
1.090638796488444
 20
2.351972368028429
 30
0.0
 10
0.8721944491068522
 20
2.906611124674479
 30
0.0
 10
0.8721944491068522
 20
2.906611124674479
 30
0.0
 10
0.8553194469875759
 20
2.949430571662055
 30
0.0
 10
0.8069166607326931
 20
2.970472229851616
 30
0.0
 10
0.7641110950046115
 20
2.953611161973741
 30
0.0
 10
0.7212916480170356
 20
2.936750094095866
 30
0.0
 10
0.7002499898274739
 20
2.888361189100477
 30
0.0
 10
0.7171111106872559
 20
2.845541742112901
 30
0.0
 10
0.7171111106872559
 20
2.845541742112901
 30
0.0
 10
0.8863333596123589
 20
2.415930642022027
 30
0.0
 10
0.8863333596123589
 20
2.415930642022027
 30
0.0
 10
0.8863333596123589
 20
2.415930642022027
 30
0.0
 10
0.6948889096577961
 20
2.475847350226508
 30
0.0
 10
0.6948889096577961
 20
2.475847350226508
 30
0.0
 10
0.6948889096577961
 20
2.475847350226508
 30
0.0
 10
0.4746250046624078
 20
3.035083346896701
 30
0.0
 10
0.4746250046624078
 20
3.035083346896701
 30
0.0
 10
0.4577500025431315
 20
3.077902793884277
 30
0.0
 10
0.4093611240386963
 20
3.098944452073839
 30
0.0
 10
0.3665416770511203
 20
3.082083384195963
 30
0.0
 10
0.3237222300635443
 20
3.065222316318088
 30
0.0
 10
0.3026805718739827
 20
3.0168334113227
 30
0.0
 10
0.3195416662428114
 20
2.974013964335124
 30
0.0
 10
0.3195416662428114
 20
2.974013964335124
 30
0.0
 10
0.5246249834696451
 20
2.453347312079535
 30
0.0
 10
0.5246249834696451
 20
2.453347312079535
 30
0.0
 10
0.5246249834696451
 20
2.453347312079535
 30
0.0
 10
0.052680555317137
 20
2.152652740478516
 30
0.0
 10
0.052680555317137
 20
2.152652740478516
 30
0.0
 10
0.0138611098130544
 20
2.127930535210504
 30
0.0
 10
0.0024444427755144
 20
2.076416651407877
 30
0.0
 10
0.0271666662560569
 20
2.037597232394748
 30
0.0
 10
0.0519166655010647
 20
1.998777813381619
 30
0.0
 10
0.1034166614214579
 20
1.987361060248481
 30
0.0
 10
0.1422222322887844
 20
2.0120972527398
 30
0.0
 10
0.1422222322887844
 20
2.0120972527398
 30
0.0
 10
0.6285555627610948
 20
2.321958329942491
 30
0.0
 10
0.6285555627610948
 20
2.321958329942491
 30
0.0
 10
0.6285555627610948
 20
2.321958329942491
 30
0.0
 10
0.8223889138963487
 20
2.261291715833876
 30
0.0
 10
0.8223889138963487
 20
2.261291715833876
 30
0.0
 10
0.8223889138963487
 20
2.261291715833876
 30
0.0
 10
0.4502499898274739
 20
2.024180518256293
 30
0.0
 10
0.4502499898274739
 20
2.024180518256293
 30
0.0
 10
0.4114305443233914
 20
1.999458312988281
 30
0.0
 10
0.4000138706631131
 20
1.947944429185655
 30
0.0
 10
0.4247361024220784
 20
1.909125010172526
 30
0.0
 10
0.4494860967000325
 20
1.870305591159397
 30
0.0
 10
0.5009860992431641
 20
1.858888838026258
 30
0.0
 10
0.539791636996799
 20
1.883625030517578
 30
0.0
 10
0.539791636996799
 20
1.883625030517578
 30
0.0
 10
1.030374950832791
 20
2.196194542778863
 30
0.0
 10
1.030374950832791
 20
2.196194542778863
 30
0.0
 10
1.030374950832791
 20
2.196194542778863
 30
0.0
 10
1.369763904147678
 20
2.089972390068902
 30
0.0
 10
1.369763904147678
 20
2.089972390068902
 30
0.0
 10
1.369763904147678
 20
2.089972390068902
 30
0.0
 10
0.9135416878594292
 20
1.709402932061089
 30
0.0
 10
0.9135416878594292
 20
1.709402932061089
 30
0.0
 10
0.858097235361735
 20
1.663152906629774
 30
0.0
 10
0.8839861551920573
 20
1.57279184129503
 30
0.0
 10
0.9554722044203016
 20
1.562875111897786
 30
0.0
 10
0.9554722044203016
 20
1.562875111897786
 30
0.0
 10
1.541611141628689
 20
1.481486214531792
 30
0.0
 10
1.541611141628689
 20
1.481486214531792
 30
0.0
 10
1.541611141628689
 20
1.481486214531792
 30
0.0
 10
1.33663887447781
 20
1.201055738661024
 30
0.0
 10
1.33663887447781
 20
1.201055738661024
 30
0.0
 10
1.33663887447781
 20
1.201055738661024
 30
0.0
 10
0.7592638863457574
 20
1.165764066908095
 30
0.0
 10
0.7592638863457574
 20
1.165764066908095
 30
0.0
 10
0.713319460550944
 20
1.162958568996853
 30
0.0
 10
0.6783610979715983
 20
1.123444663153754
 30
0.0
 10
0.6811666488647461
 20
1.077500237358941
 30
0.0
 10
0.6839860810173882
 20
1.031555811564127
 30
0.0
 10
0.7233333057827419
 20
0.9963751898871527
 30
0.0
 10
0.7694305313958062
 20
0.9994029998779297
 30
0.0
 10
0.7694305313958062
 20
0.9994029998779297
 30
0.0
 10
1.208875020345052
 20
1.026264190673828
 30
0.0
 10
1.208875020345052
 20
1.026264190673828
 30
0.0
 10
1.208875020345052
 20
1.026264190673828
 30
0.0
 10
1.08812501695421
 20
0.8610697852240667
 30
0.0
 10
1.08812501695421
 20
0.8610697852240667
 30
0.0
 10
1.08812501695421
 20
0.8610697852240667
 30
0.0
 10
0.5118472311231825
 20
0.8258476257324219
 30
0.0
 10
0.5118472311231825
 20
0.8258476257324219
 30
0.0
 10
0.4659028053283691
 20
0.8230421278211805
 30
0.0
 10
0.4309444427490234
 20
0.7835282219780816
 30
0.0
 10
0.4337499936421712
 20
0.7375837961832682
 30
0.0
 10
0.4365694257948133
 20
0.6916393703884548
 30
0.0
 10
0.4759027693006727
 20
0.6565282609727647
 30
0.0
 10
0.5220138761732314
 20
0.6594865587022569
 30
0.0
 10
0.5220138761732314
 20
0.6594865587022569
 30
0.0
 10
1.080569373236762
 20
0.6936253441704644
 30
0.0
 10
1.080569373236762
 20
0.6936253441704644
 30
0.0
 10
1.080569373236762
 20
0.6936253441704644
 30
0.0
 10
1.220694330003526
 20
0.1518614027235243
 30
0.0
 10
1.220694330003526
 20
0.1518614027235243
 30
0.0
 10
1.230402628580729
 20
0.1143057081434462
 30
0.0
 10
1.264236026340061
 20
0.0893753899468316
 30
0.0
 10
1.301319334242079
 20
0.0893753899468316
 30
0.0
 10
1.355874909294976
 20
0.0893753899468316
 30
0.0
 10
1.39568042755127
 20
0.1409030490451389
 30
0.0
 10
1.382055494520399
 20
0.1935975816514757
 30
0.0
 10
1.382055494520399
 20
0.1935975816514757
 30
0.0
 10
1.231680552164713
 20
0.7750142415364583
 30
0.0
 10
1.231680552164713
 20
0.7750142415364583
 30
0.0
 10
1.231680552164713
 20
0.7750142415364583
 30
0.0
 10
1.352208349439833
 20
0.9399170345730251
 30
0.0
 10
1.352208349439833
 20
0.9399170345730251
 30
0.0
 10
1.352208349439833
 20
0.9399170345730251
 30
0.0
 10
1.468111144171821
 20
0.4917780558268229
 30
0.0
 10
1.468111144171821
 20
0.4917780558268229
 30
0.0
 10
1.477819442749023
 20
0.4542225731743706
 30
0.0
 10
1.511652840508355
 20
0.4292920430501302
 30
0.0
 10
1.548736148410373
 20
0.4292920430501302
 30
0.0
 10
1.60329172346327
 20
0.4292920430501302
 30
0.0
 10
1.643097241719564
 20
0.4808199140760633
 30
0.0
 10
1.629472308688694
 20
0.5335142347547743
 30
0.0
 10
1.629472308688694
 20
0.5335142347547743
 30
0.0
 10
1.479361110263401
 20
1.113888846503364
 30
0.0
 10
1.479361110263401
 20
1.113888846503364
 30
0.0
 10
1.479361110263401
 20
1.113888846503364
 30
0.0
 10
1.690208329094781
 20
1.402347140842014
 30
0.0
 10
1.690208329094781
 20
1.402347140842014
 30
0.0
 10
1.690208329094781
 20
1.402347140842014
 30
0.0
 10
1.915347205268012
 20
0.8469861348470051
 30
0.0
 10
1.915347205268012
 20
0.8469861348470051
 30
0.0
 10
1.944111082288954
 20
0.7760556538899739
 30
0.0
 10
2.055902693006727
 20
0.7760556538899739
 30
0.0
 10
2.084666570027669
 20
0.8469861348470051
 30
0.0
 10
2.084666570027669
 20
0.8469861348470051
 30
0.0
 10
2.309805552164713
 20
1.402347140842014
 30
0.0
 10
2.309805552164713
 20
1.402347140842014
 30
0.0
 10
2.309805552164713
 20
1.402347140842014
 30
0.0
 10
2.520652770996094
 20
1.113888846503364
 30
0.0
 10
2.520652770996094
 20
1.113888846503364
 30
0.0
 10
2.520652770996094
 20
1.113888846503364
 30
0.0
 10
2.370541678534614
 20
0.5335277981228298
 30
0.0
 10
2.370541678534614
 20
0.5335277981228298
 30
0.0
 10
2.356902864244249
 20
0.480833265516493
 30
0.0
 10
2.396708382500542
 20
0.4293056064181857
 30
0.0
 10
2.451277838812934
 20
0.4293056064181857
 30
0.0
 10
2.488361146714952
 20
0.4293056064181857
 30
0.0
 10
2.522180557250977
 20
0.4542361365424262
 30
0.0
 10
2.531902737087674
 20
0.4917916191948785
 30
0.0
 10
2.531902737087674
 20
0.4917916191948785
 30
0.0
 10
2.647805531819661
 20
0.9399303860134548
 30
0.0
 10
2.647805531819661
 20
0.9399303860134548
 30
0.0
 10
2.647805531819661
 20
0.9399303860134548
 30
0.0
 10
2.768333223130968
 20
0.775027592976888
 30
0.0
 10
2.768333223130968
 20
0.775027592976888
 30
0.0
 10
2.768333223130968
 20
0.775027592976888
 30
0.0
 10
2.617958280775282
 20
0.1936111450195312
 30
0.0
 10
2.617958280775282
 20
0.1936111450195312
 30
0.0
 10
2.604319466484917
 20
0.1409166124131944
 30
0.0
 10
2.644124984741211
 20
0.0893889533148872
 30
0.0
 10
2.698694441053602
 20
0.0893889533148872
 30
0.0
 10
2.73577774895562
 20
0.0893889533148872
 30
0.0
 10
2.769597159491645
 20
0.1143196953667535
 30
0.0
 10
2.779319339328342
 20
0.1518749660915799
 30
0.0
 10
2.779319339328342
 20
0.1518749660915799
 30
0.0
 10
2.919444402058919
 20
0.69363890753852
 30
0.0
 10
2.919444402058919
 20
0.69363890753852
 30
0.0
 10
2.919444402058919
 20
0.69363890753852
 30
0.0
 10
3.478000005086263
 20
0.6595001220703125
 30
0.0
 10
3.478000005086263
 20
0.6595001220703125
 30
0.0
 10
3.524111217922634
 20
0.656527837117513
 30
0.0
 10
3.563444349500868
 20
0.6916529337565104
 30
0.0
 10
3.566263834635417
 20
0.7375973595513238
 30
0.0
 10
3.569069332546658
 20
0.783541785346137
 30
0.0
 10
3.534111022949219
 20
0.823055691189236
 30
0.0
 10
3.488166597154405
 20
0.8258611891004773
 30
0.0
 10
3.488166597154405
 20
0.8258611891004773
 30
0.0
 10
2.911888758341471
 20
0.8610833485921223
 30
0.0
 10
2.911888758341471
 20
0.8610833485921223
 30
0.0
 10
2.911888758341471
 20
0.8610833485921223
 30
0.0
 10
2.791138754950629
 20
1.026277754041884
 30
0.0
 10
2.791138754950629
 20
1.026277754041884
 30
0.0
 10
2.791138754950629
 20
1.026277754041884
 30
0.0
 10
3.230583190917969
 20
0.9994165632459852
 30
0.0
 10
3.230583190917969
 20
0.9994165632459852
 30
0.0
 10
3.276680416531033
 20
0.9963887532552083
 30
0.0
 10
3.316027535332573
 20
1.031569374932183
 30
0.0
 10
3.318847020467122
 20
1.077513800726996
 30
0.0
 10
3.321652518378364
 20
1.12345822652181
 30
0.0
 10
3.286694208780924
 20
1.162972132364909
 30
0.0
 10
3.240749782986111
 20
1.16577763027615
 30
0.0
 10
3.240749782986111
 20
1.16577763027615
 30
0.0
 10
2.663374794854058
 20
1.20106930202908
 30
0.0
 10
2.663374794854058
 20
1.20106930202908
 30
0.0
 10
2.663374794854058
 20
1.20106930202908
 30
0.0
 10
2.458402633666992
 20
1.481499777899848
 30
0.0
 10
2.458402633666992
 20
1.481499777899848
 30
0.0
 10
2.458402633666992
 20
1.481499777899848
 30
0.0
 10
3.044541464911567
 20
1.562888675265842
 30
0.0
 10
3.044541464911567
 20
1.562888675265842
 30
0.0
 10
3.116027620103624
 20
1.572819179958767
 30
0.0
 10
3.141902499728733
 20
1.66316646999783
 30
0.0
 10
3.086471981472439
 20
1.709416495429145
 30
0.0
 10
3.086471981472439
 20
1.709416495429145
 30
0.0
 10
2.630249871148003
 20
2.089985953436957
 30
0.0
 10
2.630249871148003
 20
2.089985953436957
 30
0.0
 10
2.630249871148003
 20
2.089985953436957
 30
0.0
 10
2.969638824462891
 20
2.196208106146918
 30
0.0
 10
2.969638824462891
 20
2.196208106146918
 30
0.0
 10
2.969638824462891
 20
2.196208106146918
 30
0.0
 10
3.460222032335069
 20
1.883638593885633
 30
0.0
 10
3.460222032335069
 20
1.883638593885633
 30
0.0
 10
3.499027676052517
 20
1.858902401394314
 30
0.0
 10
3.550527572631836
 20
1.870319154527452
 30
0.0
 10
3.575277540418837
 20
1.909138573540581
 30
0.0
 10
3.599999745686849
 20
1.947957992553711
 30
0.0
 10
3.588583204481337
 20
1.999471876356337
 30
0.0
 10
3.549763573540581
 20
2.024194081624349
 30
0.0
 10
3.549763573540581
 20
2.024194081624349
 30
0.0
 10
3.1776245964898
 20
2.261305173238118
 30
0.0
 10
3.1776245964898
 20
2.261305173238118
 30
0.0
 10
3.1776245964898
 20
2.261305173238118
 30
0.0
 10
3.371457841661241
 20
2.321971893310547
 30
0.0
 10
3.371457841661241
 20
2.321971893310547
 30
0.0
 10
3.371457841661241
 20
2.321971893310547
 30
0.0
 10
3.857791052924262
 20
2.012110816107856
 30
0.0
 10
3.857791052924262
 20
2.012110816107856
 30
0.0
 10
3.89659669664171
 20
1.987374623616536
 30
0.0
 10
3.948096805148654
 20
1.998791376749674
 30
0.0
 10
3.972846561008029
 20
2.037610795762804
 30
0.0
 10
3.997568766276042
 20
2.076430214775933
 30
0.0
 10
3.986152225070529
 20
2.127944098578559
 30
0.0
 10
3.947332594129774
 20
2.152666303846571
 30
0.0
 10
3.947332594129774
 20
2.152666303846571
 30
0.0
 10
3.475401984320746
 20
2.453346888224284
 30
0.0
 10
3.475401984320746
 20
2.453346888224284
 30
0.0
 10
3.475401984320746
 20
2.453346888224284
 30
0.0
 10
3.680485195583767
 20
2.974013540479872
 30
0.0
 10
3.680485195583767
 20
2.974013540479872
 30
0.0
 10
3.697346157497829
 20
3.016832987467448
 30
0.0
 10
3.676304711235894
 20
3.065221892462836
 30
0.0
 10
3.633485158284505
 20
3.082082960340712
 30
0.0
 10
3.590665605333116
 20
3.098944028218587
 30
0.0
 10
3.54227680630154
 20
3.077902370029026
 30
0.0
 10
3.525401857164171
 20
3.03508292304145
 30
0.0
 10
3.525401857164171
 20
3.03508292304145
 30
0.0
 10
3.305138058132595
 20
2.475832939147949
 30
0.0
 10
3.305138058132595
 20
2.475832939147949
 30
0.0
 10
3.305138058132595
 20
2.475832939147949
 30
0.0
 10
3.113693661159939
 20
2.415916230943468
 30
0.0
 10
3.113693661159939
 20
2.415916230943468
 30
0.0
 10
3.113693661159939
 20
2.415916230943468
 30
0.0
 10
3.282915963066948
 20
2.845527331034342
 30
0.0
 10
3.282915963066948
 20
2.845527331034342
 30
0.0
 10
3.299777136908637
 20
2.888346778021918
 30
0.0
 10
3.278735478719075
 20
2.936735683017307
 30
0.0
 10
3.235915925767686
 20
2.953596750895182
 30
0.0
 10
3.193110360039605
 20
2.970457818773057
 30
0.0
 10
3.144707573784722
 20
2.949416160583496
 30
0.0
 10
3.127832624647352
 20
2.90659671359592
 30
0.0
 10
3.127832624647352
 20
2.90659671359592
 30
0.0
 10
2.909388224283854
 20
2.351957850986057
 30
0.0
 10
2.909388224283854
 20
2.351957850986057
 30
0.0
 10
2.909388224283854
 20
2.351957850986057
 30
0.0
 10
2.597679985894097
 20
2.254402266608344
 30
0.0
 10
2.597679985894097
 20
2.254402266608344
 30
0.0
 10
2.597679985894097
 20
2.254402266608344
 30
0.0
 10
2.702513376871745
 20
2.843277189466688
 30
0.0
 10
2.702513376871745
 20
2.843277189466688
 30
0.0
 10
2.715124554104275
 20
2.914193895128038
 30
0.0
 10
2.637527253892686
 20
2.966721640692817
 30
0.0
 10
2.57637447781033
 20
2.928596602545844
 30
0.0
 10
2.57637447781033
 20
2.928596602545844
 30
0.0
 10
2.075832790798611
 20
2.616402096218533
 30
0.0
 10
2.075832790798611
 20
2.616402096218533
 30
0.0
 10
2.075832790798611
 20
2.616402096218533
 30
0.0
 10
2.075832790798611
 20
2.971347173055013
 30
0.0
 10
2.075832790798611
 20
2.971347173055013
 30
0.0
 10
2.075832790798611
 20
2.971347173055013
 30
0.0
 10
2.530318790011936
 20
3.345972167121039
 30
0.0
 10
2.530318790011936
 20
3.345972167121039
 30
0.0
 10
2.565832773844401
 20
3.375249968634711
 30
0.0
 10
2.570888307359483
 20
3.427763832939995
 30
0.0
 10
2.541610505845811
 20
3.463277710808648
 30
0.0
 10
2.51233270433214
 20
3.4987915886773
 30
0.0
 10
2.459804958767361
 20
3.503833240932888
 30
0.0
 10
2.424304962158203
 20
3.474569373660617
 30
0.0
 10
2.424304962158203
 20
3.474569373660617
 30
0.0
 10
2.075832790798611
 20
3.187319384680854
 30
0.0
 10
2.075832790798611
 20
3.187319384680854
 30
0.0
 10
2.075832790798611
 20
3.187319384680854
 30
0.0
 10
2.075832790798611
 20
3.38834720187717
 30
0.0
 10
2.075832790798611
 20
3.38834720187717
 30
0.0
 10
2.075832790798611
 20
3.38834720187717
 30
0.0
 10
2.530318790011936
 20
3.762972195943196
 30
0.0
 10
2.530318790011936
 20
3.762972195943196
 30
0.0
 10
2.565832773844401
 20
3.792249970965915
 30
0.0
 10
2.570888307359483
 20
3.844763861762153
 30
0.0
 10
2.541610505845811
 20
3.880277752876282
 30
0.0
 10
2.51233270433214
 20
3.91579164399041
 30
0.0
 10
2.459804958767361
 20
3.920833309491475
 30
0.0
 10
2.424304962158203
 20
3.891569422350989
 30
0.0
 10
2.424304962158203
 20
3.891569422350989
 30
0.0
 10
2.0
 20
3.541861110263401
 30
0.0
 10
2.0
 20
3.541861110263401
 30
0.0
  0
POLYLINE
  5
42
330
1F
100
AcDbEntity
  8
_U+0421_U+043B_U+043E_U+0439 1
 62
    12
420
 14878227
370
     9
100
AcDb2dPolyline
 66
     1
 10
0.0
 20
0.0
 30
0.0
  0
VERTEX
  5
43
330
42
100
AcDbEntity
  8
_U+0421_U+043B_U+043E_U+0439 1
 62
    12
420
 14878227
370
     9
100
AcDbVertex
100
AcDb2dVertex
 10
1.924194547865126
 20
2.419999970330132
 30
0.0
  0
VERTEX
  5
44
330
42
100
AcDbEntity
  8
_U+0421_U+043B_U+043E_U+0439 1
 62
    12
420
 14878227
370
     9
100
AcDbVertex
100
AcDb2dVertex
 10
1.924194547865126
 20
2.091097089979383
 30
0.0
  0
VERTEX
  5
45
330
42
100
AcDbEntity
  8
_U+0421_U+043B_U+043E_U+0439 1
 62
    12
420
 14878227
370
     9
100
AcDbVertex
100
AcDb2dVertex
 10
1.581625090705024
 20
2.198305341932508
 30
0.0
  0
VERTEX
  5
46
330
42
100
AcDbEntity
  8
_U+0421_U+043B_U+043E_U+0439 1
 62
    12
420
 14878227
370
     9
100
AcDbVertex
100
AcDb2dVertex
 10
1.494430647956
 20
2.688027487860785
 30
0.0
  0
VERTEX
  5
47
330
42
100
AcDbEntity
  8
_U+0421_U+043B_U+043E_U+0439 1
 62
    12
420
 14878227
370
     9
100
AcDbVertex
100
AcDb2dVertex
 10
1.924194547865126
 20
2.419999970330132
 30
0.0
  0
SEQEND
  5
48
330
42
100
AcDbEntity
  8
_U+0421_U+043B_U+043E_U+0439 1
 62
    12
420
 14878227
370
     9
  0
POLYLINE
  5
49
330
1F
100
AcDbEntity
  8
_U+0421_U+043B_U+043E_U+0439 1
 62
    12
420
 14878227
370
     9
100
AcDb2dPolyline
 66
     1
 10
0.0
 20
0.0
 30
0.0
  0
VERTEX
  5
4A
330
49
100
AcDbEntity
  8
_U+0421_U+043B_U+043E_U+0439 1
 62
    12
420
 14878227
370
     9
100
AcDbVertex
100
AcDb2dVertex
 10
2.505555470784505
 20
2.688027805752224
 30
0.0
  0
VERTEX
  5
4B
330
49
100
AcDbEntity
  8
_U+0421_U+043B_U+043E_U+0439 1
 62
    12
420
 14878227
370
     9
100
AcDbVertex
100
AcDb2dVertex
 10
2.418361028035481
 20
2.198305553860135
 30
0.0
  0
VERTEX
  5
4C
330
49
100
AcDbEntity
  8
_U+0421_U+043B_U+043E_U+0439 1
 62
    12
420
 14878227
370
     9
100
AcDbVertex
100
AcDb2dVertex
 10
2.075791676839192
 20
2.09109730190701
 30
0.0
  0
VERTEX
  5
4D
330
49
100
AcDbEntity
  8
_U+0421_U+043B_U+043E_U+0439 1
 62
    12
420
 14878227
370
     9
100
AcDbVertex
100
AcDb2dVertex
 10
2.075791676839192
 20
2.419999970330132
 30
0.0
  0
VERTEX
  5
4E
330
49
100
AcDbEntity
  8
_U+0421_U+043B_U+043E_U+0439 1
 62
    12
420
 14878227
370
     9
100
AcDbVertex
100
AcDb2dVertex
 10
2.505555470784505
 20
2.688027805752224
 30
0.0
  0
SEQEND
  5
4F
330
49
100
AcDbEntity
  8
_U+0421_U+043B_U+043E_U+0439 1
 62
    12
420
 14878227
370
     9
  0
POLYLINE
  5
50
330
1F
100
AcDbEntity
  8
_U+0421_U+043B_U+043E_U+0439 1
 62
    12
420
 14878227
370
     9
100
AcDb2dPolyline
 66
     1
 10
0.0
 20
0.0
 30
0.0
  0
VERTEX
  5
51
330
50
100
AcDbEntity
  8
_U+0421_U+043B_U+043E_U+0439 1
 62
    12
420
 14878227
370
     9
100
AcDbVertex
100
AcDb2dVertex
 10
1.653263939751519
 20
1.634250005086263
 30
0.0
  0
VERTEX
  5
52
330
50
100
AcDbEntity
  8
_U+0421_U+043B_U+043E_U+0439 1
 62
    12
420
 14878227
370
     9
100
AcDbVertex
100
AcDb2dVertex
 10
1.164930555555556
 20
1.70205561319987
 30
0.0
  0
VERTEX
  5
53
330
50
100
AcDbEntity
  8
_U+0421_U+043B_U+043E_U+0439 1
 62
    12
420
 14878227
370
     9
100
AcDbVertex
100
AcDb2dVertex
 10
1.558986133999295
 20
2.030763838026258
 30
0.0
  0
VERTEX
  5
54
330
50
100
AcDbEntity
  8
_U+0421_U+043B_U+043E_U+0439 1
 62
    12
420
 14878227
370
     9
100
AcDbVertex
100
AcDb2dVertex
 10
1.871583302815755
 20
1.932930416531033
 30
0.0
  0
VERTEX
  5
55
330
50
100
AcDbEntity
  8
_U+0421_U+043B_U+043E_U+0439 1
 62
    12
420
 14878227
370
     9
100
AcDbVertex
100
AcDb2dVertex
 10
1.653263939751519
 20
1.634250005086263
 30
0.0
  0
SEQEND
  5
56
330
50
100
AcDbEntity
  8
_U+0421_U+043B_U+043E_U+0439 1
 62
    12
420
 14878227
370
     9
  0
POLYLINE
  5
57
330
1F
100
AcDbEntity
  8
_U+0421_U+043B_U+043E_U+0439 1
 62
    12
420
 14878227
370
     9
100
AcDb2dPolyline
 66
     1
 10
0.0
 20
0.0
 30
0.0
  0
VERTEX
  5
58
330
57
100
AcDbEntity
  8
_U+0421_U+043B_U+043E_U+0439 1
 62
    12
420
 14878227
370
     9
100
AcDbVertex
100
AcDb2dVertex
 10
2.128416697184245
 20
1.932916641235352
 30
0.0
  0
VERTEX
  5
59
330
57
100
AcDbEntity
  8
_U+0421_U+043B_U+043E_U+0439 1
 62
    12
420
 14878227
370
     9
100
AcDbVertex
100
AcDb2dVertex
 10
2.441013971964518
 20
2.030750062730577
 30
0.0
  0
VERTEX
  5
5A
330
57
100
AcDbEntity
  8
_U+0421_U+043B_U+043E_U+0439 1
 62
    12
420
 14878227
370
     9
100
AcDbVertex
100
AcDb2dVertex
 10
2.835069444444444
 20
1.702041625976562
 30
0.0
  0
VERTEX
  5
5B
330
57
100
AcDbEntity
  8
_U+0421_U+043B_U+043E_U+0439 1
 62
    12
420
 14878227
370
     9
100
AcDbVertex
100
AcDb2dVertex
 10
2.346736060248481
 20
1.634236017862956
 30
0.0
  0
VERTEX
  5
5C
330
57
100
AcDbEntity
  8
_U+0421_U+043B_U+043E_U+0439 1
 62
    12
420
 14878227
370
     9
100
AcDbVertex
100
AcDb2dVertex
 10
2.128416697184245
 20
1.932916641235352
 30
0.0
  0
SEQEND
  5
5D
330
57
100
AcDbEntity
  8
_U+0421_U+043B_U+043E_U+0439 1
 62
    12
420
 14878227
370
     9
  0
POLYLINE
  5
5E
330
1F
100
AcDbEntity
  8
_U+0421_U+043B_U+043E_U+0439 1
 62
    12
420
 14878227
370
     9
100
AcDb2dPolyline
 66
     1
 10
0.0
 20
0.0
 30
0.0
  0
VERTEX
  5
5F
330
5E
100
AcDbEntity
  8
_U+0421_U+043B_U+043E_U+0439 1
 62
    12
420
 14878227
370
     9
100
AcDbVertex
100
AcDb2dVertex
 10
2.0
 20
1.084361182318793
 30
0.0
  0
VERTEX
  5
60
330
5E
100
AcDbEntity
  8
_U+0421_U+043B_U+043E_U+0439 1
 62
    12
420
 14878227
370
     9
100
AcDbVertex
100
AcDb2dVertex
 10
1.999430550469292
 20
1.08319452073839
 30
0.0
  0
VERTEX
  5
61
330
5E
100
AcDbEntity
  8
_U+0421_U+043B_U+043E_U+0439 1
 62
    12
420
 14878227
370
     9
100
AcDbVertex
100
AcDb2dVertex
 10
1.805888917711046
 20
1.560625076293945
 30
0.0
  0
VERTEX
  5
62
330
5E
100
AcDbEntity
  8
_U+0421_U+043B_U+043E_U+0439 1
 62
    12
420
 14878227
370
     9
100
AcDbVertex
100
AcDb2dVertex
 10
2.0
 20
1.82618056403266
 30
0.0
  0
VERTEX
  5
63
330
5E
100
AcDbEntity
  8
_U+0421_U+043B_U+043E_U+0439 1
 62
    12
420
 14878227
370
     9
100
AcDbVertex
100
AcDb2dVertex
 10
2.194111082288954
 20
1.560611089070638
 30
0.0
  0
VERTEX
  5
64
330
5E
100
AcDbEntity
  8
_U+0421_U+043B_U+043E_U+0439 1
 62
    12
420
 14878227
370
     9
100
AcDbVertex
100
AcDb2dVertex
 10
2.000569449530707
 20
1.083180533515082
 30
0.0
  0
VERTEX
  5
65
330
5E
100
AcDbEntity
  8
_U+0421_U+043B_U+043E_U+0439 1
 62
    12
420
 14878227
370
     9
100
AcDbVertex
100
AcDb2dVertex
 10
2.0
 20
1.084361182318793
 30
0.0
  0
SEQEND
  5
66
330
5E
100
AcDbEntity
  8
_U+0421_U+043B_U+043E_U+0439 1
 62
    12
420
 14878227
370
     9
  0
ENDSEC
  0
SECTION
  2
OBJECTS
  0
DICTIONARY
  5
C
330
0
100
AcDbDictionary
281
     1
  3
ACAD_GROUP
350
D
  3
ACAD_LAYOUT
350
1A
  3
ACAD_MATERIAL
350
3B
  3
ACAD_MLEADERSTYLE
350
68
  3
ACAD_MLINESTYLE
350
17
  3
ACAD_PLOTSETTINGS
350
19
  3
ACAD_PLOTSTYLENAME
350
E
  3
ACAD_TABLESTYLE
350
67
  3
ACAD_VISUALSTYLE
350
2A
  0
SUN
  5
3F
330
29
100
AcDbSun
 90
        1
290
     0
 63
     7
421
 16777215
 40
1.0
291
     1
 91
  2455826
 92
 54000000
292
     0
 70
     2
 71
   256
280
     1
  0
DICTIONARY
  5
D
102
{ACAD_REACTORS
330
C
102
}
330
C
100
AcDbDictionary
281
     1
  0
DICTIONARY
  5
1A
102
{ACAD_REACTORS
330
C
102
}
330
C
100
AcDbDictionary
281
     1
  3
Layout1
350
1E
  3
Layout2
350
26
  3
Model
350
22
  0
DICTIONARY
  5
3B
102
{ACAD_REACTORS
330
C
102
}
330
C
100
AcDbDictionary
281
     1
  3
ByBlock
350
3D
  3
ByLayer
350
3C
  3
Global
350
3E
  0
DICTIONARY
  5
68
102
{ACAD_REACTORS
330
C
102
}
330
C
100
AcDbDictionary
281
     1
  0
DICTIONARY
  5
17
102
{ACAD_REACTORS
330
C
102
}
330
C
100
AcDbDictionary
281
     1
  3
Standard
350
18
  0
DICTIONARY
  5
19
102
{ACAD_REACTORS
330
C
102
}
330
C
100
AcDbDictionary
281
     1
  0
ACDBDICTIONARYWDFLT
  5
E
102
{ACAD_REACTORS
330
C
102
}
330
C
100
AcDbDictionary
281
     1
  3
Normal
350
F
100
AcDbDictionaryWithDefault
340
F
  0
DICTIONARY
  5
67
102
{ACAD_REACTORS
330
C
102
}
330
C
100
AcDbDictionary
281
     1
  0
DICTIONARY
  5
2A
102
{ACAD_REACTORS
330
C
102
}
330
C
100
AcDbDictionary
281
     1
  3
2dWireframe
350
2F
  3
3D Hidden
350
31
  3
3dWireframe
350
30
  3
Basic
350
32
  3
Brighten
350
36
  3
ColorChange
350
3A
  3
Conceptual
350
34
  3
Dim
350
35
  3
Facepattern
350
39
  3
Flat
350
2B
  3
FlatWithEdges
350
2C
  3
Gouraud
350
2D
  3
GouraudWithEdges
350
2E
  3
Linepattern
350
38
  3
Realistic
350
33
  3
Thicken
350
37
  0
LAYOUT
  5
1E
102
{ACAD_REACTORS
330
1A
102
}
330
1A
100
AcDbPlotSettings
  1

  2
none_device
  4

  6

 40
0.0
 41
0.0
 42
0.0
 43
0.0
 44
0.0
 45
0.0
 46
0.0
 47
0.0
 48
0.0
 49
0.0
140
0.0
141
0.0
142
1.0
143
1.0
 70
   688
 72
     0
 73
     0
 74
     5
  7

 75
    16
 76
     0
 77
     2
 78
   300
147
1.0
148
0.0
149
0.0
100
AcDbLayout
  1
Layout1
 70
     1
 71
     1
 10
0.0
 20
0.0
 11
12.0
 21
9.0
 12
0.0
 22
0.0
 32
0.0
 14
1.000000000000000E+20
 24
1.000000000000000E+20
 34
1.000000000000000E+20
 15
-1.000000000000000E+20
 25
-1.000000000000000E+20
 35
-1.000000000000000E+20
146
0.0
 13
0.0
 23
0.0
 33
0.0
 16
1.0
 26
0.0
 36
0.0
 17
0.0
 27
1.0
 37
0.0
 76
     0
330
1B
  0
LAYOUT
  5
26
102
{ACAD_REACTORS
330
1A
102
}
330
1A
100
AcDbPlotSettings
  1

  2
none_device
  4

  6

 40
0.0
 41
0.0
 42
0.0
 43
0.0
 44
0.0
 45
0.0
 46
0.0
 47
0.0
 48
0.0
 49
0.0
140
0.0
141
0.0
142
1.0
143
1.0
 70
   688
 72
     0
 73
     0
 74
     5
  7

 75
    16
 76
     0
 77
     2
 78
   300
147
1.0
148
0.0
149
0.0
100
AcDbLayout
  1
Layout2
 70
     1
 71
     2
 10
0.0
 20
0.0
 11
0.0
 21
0.0
 12
0.0
 22
0.0
 32
0.0
 14
0.0
 24
0.0
 34
0.0
 15
0.0
 25
0.0
 35
0.0
146
0.0
 13
0.0
 23
0.0
 33
0.0
 16
1.0
 26
0.0
 36
0.0
 17
0.0
 27
1.0
 37
0.0
 76
     0
330
23
  0
LAYOUT
  5
22
102
{ACAD_REACTORS
330
1A
102
}
330
1A
100
AcDbPlotSettings
  1

  2
none_device
  4

  6

 40
0.0
 41
0.0
 42
0.0
 43
0.0
 44
0.0
 45
0.0
 46
0.0
 47
0.0
 48
0.0
 49
0.0
140
0.0
141
0.0
142
1.0
143
1.0
 70
  1712
 72
     0
 73
     0
 74
     0
  7

 75
     0
 76
     0
 77
     2
 78
   300
147
1.0
148
0.0
149
0.0
100
AcDbLayout
  1
Model
 70
     1
 71
     0
 10
0.0
 20
0.0
 11
12.0
 21
9.0
 12
0.0
 22
0.0
 32
0.0
 14
1.000000000000000E+20
 24
1.000000000000000E+20
 34
1.000000000000000E+20
 15
-1.000000000000000E+20
 25
-1.000000000000000E+20
 35
-1.000000000000000E+20
146
0.0
 13
0.0
 23
0.0
 33
0.0
 16
1.0
 26
0.0
 36
0.0
 17
0.0
 27
1.0
 37
0.0
 76
     0
330
1F
331
29
  0
MATERIAL
  5
3D
102
{ACAD_REACTORS
330
3B
102
}
330
3B
100
AcDbMaterial
  1
ByBlock
 72
     1
 94
      127
  0
MATERIAL
  5
3C
102
{ACAD_REACTORS
330
3B
102
}
330
3B
100
AcDbMaterial
  1
ByLayer
 72
     1
 94
      127
  0
MATERIAL
  5
3E
102
{ACAD_REACTORS
330
3B
102
}
330
3B
100
AcDbMaterial
  1
Global
 72
     1
 94
      127
  0
MLINESTYLE
  5
18
102
{ACAD_REACTORS
330
17
102
}
330
17
100
AcDbMlineStyle
  2
Standard
 70
     0
  3

 62
   256
 51
90.0
 52
90.0
 71
     2
 49
0.5
 62
   256
  6
BYLAYER
 49
-0.5
 62
   256
  6
BYLAYER
  0
ACDBPLACEHOLDER
  5
F
102
{ACAD_REACTORS
330
E
102
}
330
E
  0
VISUALSTYLE
  5
2F
102
{ACAD_REACTORS
330
2A
102
}
330
2A
100
AcDbVisualStyle
  2
2dWireframe
 70
     4
177
     2
291
     0
 71
     0
176
     1
 72
     2
176
     1
 73
     0
176
     1
 90
        0
176
     1
 40
-0.6
176
     1
 41
-30.0
176
     1
 62
     5
 63
     7
421
 16777215
176
     1
 74
     1
176
     1
 91
        4
176
     1
 64
     7
176
     1
 65
   257
176
     1
 75
     1
176
     1
175
     1
176
     1
 42
1.0
176
     1
 92
        0
176
     1
 66
   257
176
     1
 43
1.0
176
     1
 76
     1
176
     1
 77
     6
176
     1
 78
     2
176
     1
 67
     7
176
     1
 79
     5
176
     1
170
     0
176
     1
171
     0
176
     1
290
     0
176
     1
 93
        1
176
     1
 44
0.0
176
     1
173
     0
176
     1
  0
VISUALSTYLE
  5
31
102
{ACAD_REACTORS
330
2A
102
}
330
2A
100
AcDbVisualStyle
  2
3D Hidden
 70
     6
177
     2
291
     0
 71
     1
176
     1
 72
     2
176
     1
 73
     2
176
     1
 90
        0
176
     1
 40
-0.6
176
     1
 41
-30.0
176
     1
 62
     5
 63
     7
421
 16777215
176
     1
 74
     2
176
     1
 91
        2
176
     1
 64
     7
176
     1
 65
   257
176
     1
 75
     2
176
     1
175
     1
176
     1
 42
40.0
176
     1
 92
        0
176
     1
 66
   257
176
     1
 43
1.0
176
     1
 76
     1
176
     1
 77
     6
176
     1
 78
     2
176
     1
 67
     7
176
     1
 79
     3
176
     1
170
     0
176
     1
171
     0
176
     1
290
     0
176
     1
 93
        1
176
     1
 44
0.0
176
     1
173
     0
176
     1
  0
VISUALSTYLE
  5
30
102
{ACAD_REACTORS
330
2A
102
}
330
2A
100
AcDbVisualStyle
  2
3dWireframe
 70
     5
177
     2
291
     0
 71
     0
176
     1
 72
     2
176
     1
 73
     0
176
     1
 90
        0
176
     1
 40
-0.6
176
     1
 41
-30.0
176
     1
 62
     5
 63
     7
421
 16777215
176
     1
 74
     1
176
     1
 91
        4
176
     1
 64
     7
176
     1
 65
   257
176
     1
 75
     1
176
     1
175
     1
176
     1
 42
1.0
176
     1
 92
        0
176
     1
 66
   257
176
     1
 43
1.0
176
     1
 76
     1
176
     1
 77
     6
176
     1
 78
     2
176
     1
 67
     7
176
     1
 79
     5
176
     1
170
     0
176
     1
171
     0
176
     1
290
     0
176
     1
 93
        1
176
     1
 44
0.0
176
     1
173
     0
176
     1
  0
VISUALSTYLE
  5
32
102
{ACAD_REACTORS
330
2A
102
}
330
2A
100
AcDbVisualStyle
  2
Basic
 70
     7
177
     2
291
     1
 71
     1
176
     1
 72
     0
176
     1
 73
     1
176
     1
 90
        0
176
     1
 40
-0.6
176
     1
 41
-30.0
176
     1
 62
     5
 63
     7
421
 16777215
176
     1
 74
     0
176
     1
 91
        4
176
     1
 64
     7
176
     1
 65
   257
176
     1
 75
     1
176
     1
175
     1
176
     1
 42
1.0
176
     1
 92
        8
176
     1
 66
     7
176
     1
 43
1.0
176
     1
 76
     1
176
     1
 77
     6
176
     1
 78
     2
176
     1
 67
     7
176
     1
 79
     5
176
     1
170
     0
176
     1
171
     0
176
     1
290
     0
176
     1
 93
        1
176
     1
 44
0.0
176
     1
173
     0
176
     1
  0
VISUALSTYLE
  5
36
102
{ACAD_REACTORS
330
2A
102
}
330
2A
100
AcDbVisualStyle
  2
Brighten
 70
    12
177
     2
291
     1
 71
     2
176
     1
 72
     2
176
     1
 73
     0
176
     1
 90
        0
176
     1
 40
-0.6
176
     1
 41
-30.0
176
     1
 62
     5
 63
     7
421
 16777215
176
     1
 74
     1
176
     1
 91
        4
176
     1
 64
     7
176
     1
 65
   257
176
     1
 75
     1
176
     1
175
     1
176
     1
 42
1.0
176
     1
 92
        8
176
     1
 66
     7
176
     1
 43
1.0
176
     1
 76
     1
176
     1
 77
     6
176
     1
 78
     2
176
     1
 67
     7
176
     1
 79
     5
176
     1
170
     0
176
     1
171
     0
176
     1
290
     0
176
     1
 93
        1
176
     1
 44
50.0
176
     1
173
     0
176
     1
  0
VISUALSTYLE
  5
3A
102
{ACAD_REACTORS
330
2A
102
}
330
2A
100
AcDbVisualStyle
  2
ColorChange
 70
    16
177
     2
291
     1
 71
     2
176
     1
 72
     2
176
     1
 73
     3
176
     1
 90
        0
176
     1
 40
-0.6
176
     1
 41
-30.0
176
     1
 62
     5
 63
     8
421
  8421504
176
     1
 74
     1
176
     1
 91
        4
176
     1
 64
     7
176
     1
 65
   257
176
     1
 75
     1
176
     1
175
     1
176
     1
 42
1.0
176
     1
 92
        8
176
     1
 66
     8
424
  8421504
176
     1
 43
1.0
176
     1
 76
     1
176
     1
 77
     6
176
     1
 78
     2
176
     1
 67
     7
176
     1
 79
     5
176
     1
170
     0
176
     1
171
     0
176
     1
290
     0
176
     1
 93
        1
176
     1
 44
0.0
176
     1
173
     0
176
     1
  0
VISUALSTYLE
  5
34
102
{ACAD_REACTORS
330
2A
102
}
330
2A
100
AcDbVisualStyle
  2
Conceptual
 70
     9
177
     2
291
     0
 71
     3
176
     1
 72
     2
176
     1
 73
     0
176
     1
 90
        0
176
     1
 40
-0.6
176
     1
 41
-30.0
176
     1
 62
     5
 63
     7
421
 16777215
176
     1
 74
     2
176
     1
 91
        2
176
     1
 64
     7
176
     1
 65
   257
176
     1
 75
     1
176
     1
175
     1
176
     1
 42
40.0
176
     1
 92
        8
176
     1
 66
     7
176
     1
 43
1.0
176
     1
 76
     1
176
     1
 77
     6
176
     1
 78
     2
176
     1
 67
     7
176
     1
 79
     3
176
     1
170
     0
176
     1
171
     0
176
     1
290
     0
176
     1
 93
        1
176
     1
 44
0.0
176
     1
173
     0
176
     1
  0
VISUALSTYLE
  5
35
102
{ACAD_REACTORS
330
2A
102
}
330
2A
100
AcDbVisualStyle
  2
Dim
 70
    11
177
     2
291
     1
 71
     2
176
     1
 72
     2
176
     1
 73
     0
176
     1
 90
        0
176
     1
 40
-0.6
176
     1
 41
-30.0
176
     1
 62
     5
 63
     7
421
 16777215
176
     1
 74
     1
176
     1
 91
        4
176
     1
 64
     7
176
     1
 65
   257
176
     1
 75
     1
176
     1
175
     1
176
     1
 42
1.0
176
     1
 92
        8
176
     1
 66
     7
176
     1
 43
1.0
176
     1
 76
     1
176
     1
 77
     6
176
     1
 78
     2
176
     1
 67
     7
176
     1
 79
     5
176
     1
170
     0
176
     1
171
     0
176
     1
290
     0
176
     1
 93
        1
176
     1
 44
-50.0
176
     1
173
     0
176
     1
  0
VISUALSTYLE
  5
39
102
{ACAD_REACTORS
330
2A
102
}
330
2A
100
AcDbVisualStyle
  2
Facepattern
 70
    15
177
     2
291
     1
 71
     2
176
     1
 72
     2
176
     1
 73
     0
176
     1
 90
        0
176
     1
 40
-0.6
176
     1
 41
-30.0
176
     1
 62
     5
 63
     7
421
 16777215
176
     1
 74
     1
176
     1
 91
        4
176
     1
 64
     7
176
     1
 65
   257
176
     1
 75
     1
176
     1
175
     1
176
     1
 42
1.0
176
     1
 92
        8
176
     1
 66
     7
176
     1
 43
1.0
176
     1
 76
     1
176
     1
 77
     6
176
     1
 78
     2
176
     1
 67
     7
176
     1
 79
     5
176
     1
170
     0
176
     1
171
     0
176
     1
290
     0
176
     1
 93
        1
176
     1
 44
0.0
176
     1
173
     0
176
     1
  0
VISUALSTYLE
  5
2B
102
{ACAD_REACTORS
330
2A
102
}
330
2A
100
AcDbVisualStyle
  2
Flat
 70
     0
177
     2
291
     1
 71
     2
176
     1
 72
     1
176
     1
 73
     1
176
     1
 90
        2
176
     1
 40
-0.6
176
     1
 41
30.0
176
     1
 62
     5
 63
     7
421
 16777215
176
     1
 74
     0
176
     1
 91
        4
176
     1
 64
     7
176
     1
 65
   257
176
     1
 75
     1
176
     1
175
     1
176
     1
 42
1.0
176
     1
 92
        8
176
     1
 66
     7
176
     1
 43
1.0
176
     1
 76
     1
176
     1
 77
     6
176
     1
 78
     2
176
     1
 67
     7
176
     1
 79
     5
176
     1
170
     0
176
     1
171
     0
176
     1
290
     0
176
     1
 93
       13
176
     1
 44
0.0
176
     1
173
     0
176
     1
  0
VISUALSTYLE
  5
2C
102
{ACAD_REACTORS
330
2A
102
}
330
2A
100
AcDbVisualStyle
  2
FlatWithEdges
 70
     1
177
     2
291
     1
 71
     2
176
     1
 72
     1
176
     1
 73
     1
176
     1
 90
        2
176
     1
 40
-0.6
176
     1
 41
30.0
176
     1
 62
     5
 63
     7
421
 16777215
176
     1
 74
     1
176
     1
 91
        4
176
     1
 64
     7
176
     1
 65
   257
176
     1
 75
     1
176
     1
175
     1
176
     1
 42
1.0
176
     1
 92
        0
176
     1
 66
   257
176
     1
 43
1.0
176
     1
 76
     1
176
     1
 77
     6
176
     1
 78
     2
176
     1
 67
     7
176
     1
 79
     5
176
     1
170
     0
176
     1
171
     0
176
     1
290
     0
176
     1
 93
       13
176
     1
 44
0.0
176
     1
173
     0
176
     1
  0
VISUALSTYLE
  5
2D
102
{ACAD_REACTORS
330
2A
102
}
330
2A
100
AcDbVisualStyle
  2
Gouraud
 70
     2
177
     2
291
     1
 71
     2
176
     1
 72
     2
176
     1
 73
     1
176
     1
 90
        2
176
     1
 40
-0.6
176
     1
 41
30.0
176
     1
 62
     5
 63
     7
421
 16777215
176
     1
 74
     0
176
     1
 91
        4
176
     1
 64
     7
176
     1
 65
   257
176
     1
 75
     1
176
     1
175
     1
176
     1
 42
1.0
176
     1
 92
        0
176
     1
 66
     7
176
     1
 43
1.0
176
     1
 76
     1
176
     1
 77
     6
176
     1
 78
     2
176
     1
 67
     7
176
     1
 79
     5
176
     1
170
     0
176
     1
171
     0
176
     1
290
     0
176
     1
 93
       13
176
     1
 44
0.0
176
     1
173
     0
176
     1
  0
VISUALSTYLE
  5
2E
102
{ACAD_REACTORS
330
2A
102
}
330
2A
100
AcDbVisualStyle
  2
GouraudWithEdges
 70
     3
177
     2
291
     1
 71
     2
176
     1
 72
     2
176
     1
 73
     1
176
     1
 90
        2
176
     1
 40
-0.6
176
     1
 41
30.0
176
     1
 62
     5
 63
     7
421
 16777215
176
     1
 74
     1
176
     1
 91
        4
176
     1
 64
     7
176
     1
 65
   257
176
     1
 75
     1
176
     1
175
     1
176
     1
 42
1.0
176
     1
 92
        0
176
     1
 66
   257
176
     1
 43
1.0
176
     1
 76
     1
176
     1
 77
     6
176
     1
 78
     2
176
     1
 67
     7
176
     1
 79
     5
176
     1
170
     0
176
     1
171
     0
176
     1
290
     0
176
     1
 93
       13
176
     1
 44
0.0
176
     1
173
     0
176
     1
  0
VISUALSTYLE
  5
38
102
{ACAD_REACTORS
330
2A
102
}
330
2A
100
AcDbVisualStyle
  2
Linepattern
 70
    14
177
     2
291
     1
 71
     2
176
     1
 72
     2
176
     1
 73
     0
176
     1
 90
        0
176
     1
 40
-0.6
176
     1
 41
-30.0
176
     1
 62
     5
 63
     7
421
 16777215
176
     1
 74
     1
176
     1
 91
        4
176
     1
 64
     7
176
     1
 65
   257
176
     1
 75
     7
176
     1
175
     7
176
     1
 42
1.0
176
     1
 92
        8
176
     1
 66
     7
176
     1
 43
1.0
176
     1
 76
     1
176
     1
 77
     6
176
     1
 78
     2
176
     1
 67
     7
176
     1
 79
     5
176
     1
170
     0
176
     1
171
     0
176
     1
290
     0
176
     1
 93
        1
176
     1
 44
0.0
176
     1
173
     0
176
     1
  0
VISUALSTYLE
  5
33
102
{ACAD_REACTORS
330
2A
102
}
330
2A
100
AcDbVisualStyle
  2
Realistic
 70
     8
177
     2
291
     0
 71
     2
176
     1
 72
     2
176
     1
 73
     0
176
     1
 90
        0
176
     1
 40
-0.6
176
     1
 41
-30.0
176
     1
 62
     5
 63
     7
421
 16777215
176
     1
 74
     1
176
     1
 91
        0
176
     1
 64
     7
176
     1
 65
   257
176
     1
 75
     1
176
     1
175
     1
176
     1
 42
1.0
176
     1
 92
        8
176
     1
 66
     8
424
  7895160
176
     1
 43
1.0
176
     1
 76
     1
176
     1
 77
     6
176
     1
 78
     2
176
     1
 67
     7
176
     1
 79
     5
176
     1
170
     0
176
     1
171
     0
176
     1
290
     0
176
     1
 93
       13
176
     1
 44
0.0
176
     1
173
     0
176
     1
  0
VISUALSTYLE
  5
37
102
{ACAD_REACTORS
330
2A
102
}
330
2A
100
AcDbVisualStyle
  2
Thicken
 70
    13
177
     2
291
     1
 71
     2
176
     1
 72
     2
176
     1
 73
     0
176
     1
 90
        0
176
     1
 40
-0.6
176
     1
 41
-30.0
176
     1
 62
     5
 63
     7
421
 16777215
176
     1
 74
     1
176
     1
 91
        4
176
     1
 64
     7
176
     1
 65
   257
176
     1
 75
     1
176
     1
175
     1
176
     1
 42
1.0
176
     1
 92
       12
176
     1
 66
     7
176
     1
 43
1.0
176
     1
 76
     1
176
     1
 77
     6
176
     1
 78
     2
176
     1
 67
     7
176
     1
 79
     5
176
     1
170
     0
176
     1
171
     0
176
     1
290
     0
176
     1
 93
        1
176
     1
 44
0.0
176
     1
173
     0
176
     1
  0
ENDSEC
  0
EOF
