0
SECTION
2
HEADER
9
$EXTMIN
10
0.751495609068521
20
0.788534661491712
30
0
9
$EXTMAX
10
6.434999
20
2.92556270600677
30
0
0
ENDSEC
0
SECTION
2
TABLES
0
TABLE
2
VPORT
0
VPORT
2
*ACTIVE
41
  1.000000
0
ENDTAB
0
TABLE
2
LAYER
0
LAYER
2
2
62
0
0
LAYER
2
1
62
0
0
LAYER
2
0
62
0
0
ENDTAB
0
TABLE
2
LTYPE
70
   25
0
LTYPE
2
CONTINUOUS
70
   64
3
Solid line
72
   64
73
    0
40
0.000000
0
LTYPE
2
DOT
70
   64
3
. . . . . . . . . . . . . . . . . . . . . . . .
72
   65
73
    2
40
0.250000
49
0.000000
49
-.250000
0
ENDTAB
0
ENDSEC
0
SECTION
2
BLOCKS
0
ENDSEC
0
SECTION
2
ENTITIES
0
ARC
8
0
62
5
6
CONTINUOUS
10
1.647937
20
1.029971
30
0.000000
40
0.249999
50
143.999900
51
254.960300
0
ARC
8
0
62
5
6
CONTINUOUS
10
1.874999
20
1.875009
30
0.000000
40
1.125011
50
254.960000
51
285.040100
0
ARC
8
0
62
5
6
CONTINUOUS
10
2.102058
20
1.029973
30
0.000000
40
0.250002
50
285.040500
51
35.999300
0
ARC
8
0
62
5
6
CONTINUOUS
10
2.022394
20
1.139627
30
0.000000
40
0.249997
50
35.999860
51
101.334000
0
ARC
8
0
62
5
6
CONTINUOUS
10
1.875004
20
1.874964
30
0.000000
40
0.499966
50
258.665200
51
281.334100
0
ARC
8
0
62
5
6
CONTINUOUS
10
1.727607
20
1.139627
30
0.000000
40
0.249999
50
78.665640
51
144.000300
0
ARC
8
0
62
5
6
CONTINUOUS
10
1.875000
20
1.875000
30
0.000000
40
0.130000
50
0.000000
51
0.000000
0
ARC
8
0
62
5
6
CONTINUOUS
10
2.528834
20
1.507580
30
0.000000
40
0.249998
50
150.666400
51
216.001100
0
ARC
8
0
62
5
6
CONTINUOUS
10
2.608505
20
1.397923
30
0.000000
40
0.249999
50
216.000100
51
326.960100
0
ARC
8
0
62
5
6
CONTINUOUS
10
1.874983
20
1.875003
30
0.000000
40
1.125019
50
326.960100
51
357.040100
0
ARC
8
0
62
5
6
CONTINUOUS
10
2.748832
20
1.829815
30
0.000000
40
0.250002
50
357.041200
51
107.999900
0
ARC
8
0
62
5
6
CONTINUOUS
10
2.619929
20
1.787935
30
0.000000
40
0.249999
50
107.999800
51
173.333300
0
ARC
8
0
62
5
6
CONTINUOUS
10
1.875042
20
1.874989
30
0.000000
40
0.499958
50
330.665000
51
353.334600
0
ARC
8
0
62
5
6
CONTINUOUS
10
1.875000
20
1.875000
30
0.000000
40
1.375000
50
0.000000
51
0.000000
0
ARC
8
0
62
5
6
CONTINUOUS
10
4.186162
20
1.829822
30
0.000000
40
0.249998
50
71.999870
51
182.960400
0
ARC
8
0
62
5
6
CONTINUOUS
10
5.060006
20
1.875002
30
0.000000
40
1.125009
50
182.959900
51
213.040100
0
ARC
8
0
62
5
6
CONTINUOUS
10
4.326495
20
1.397928
30
0.000000
40
0.250002
50
213.040900
51
323.999400
0
ARC
8
0
62
5
6
CONTINUOUS
10
4.406164
20
1.507578
30
0.000000
40
0.249998
50
323.999800
51
29.333570
0
ARC
8
0
62
5
6
CONTINUOUS
10
5.059961
20
1.874981
30
0.000000
40
0.499959
50
186.664800
51
209.334100
0
ARC
8
0
62
5
6
CONTINUOUS
10
4.315070
20
1.787933
30
0.000000
40
0.250001
50
6.666465
51
72.000260
0
ARC
8
0
62
5
6
CONTINUOUS
10
4.379615
20
2.425183
30
0.000000
40
0.250002
50
141.041700
51
251.999100
0
ARC
8
0
62
5
6
CONTINUOUS
10
4.508511
20
2.383297
30
0.000000
40
0.250000
50
252.000600
51
317.333700
0
ARC
8
0
62
5
6
CONTINUOUS
10
5.059984
20
1.875000
30
0.000000
40
0.499992
50
114.664600
51
137.332600
0
ARC
8
0
62
5
6
CONTINUOUS
10
4.747000
20
2.556564
30
0.000000
40
0.250000
50
294.666400
51
0.000618
0
ARC
8
0
62
5
6
CONTINUOUS
10
4.747001
20
2.692105
30
0.000000
40
0.249998
50
0.000458
51
110.960300
0
ARC
8
0
62
5
6
CONTINUOUS
10
5.060001
20
1.874992
30
0.000000
40
1.125008
50
110.959800
51
141.040000
0
ARC
8
0
62
5
6
CONTINUOUS
10
5.373001
20
2.556569
30
0.000000
40
0.250002
50
180.000500
51
245.333300
0
ARC
8
0
62
5
6
CONTINUOUS
10
5.060015
20
1.875037
30
0.000000
40
0.499962
50
42.664620
51
65.333690
0
ARC
8
0
62
5
6
CONTINUOUS
10
5.611481
20
2.383295
30
0.000000
40
0.249999
50
222.666200
51
288.000500
0
ARC
8
0
62
5
6
CONTINUOUS
10
5.740390
20
2.425179
30
0.000000
40
0.249999
50
288.000400
51
38.960460
0
ARC
8
0
62
5
6
CONTINUOUS
10
5.059994
20
1.874993
30
0.000000
40
1.125009
50
38.960010
51
69.040110
0
ARC
8
0
62
5
6
CONTINUOUS
10
5.372999
20
2.692103
30
0.000000
40
0.250000
50
69.040430
51
179.999800
0
ARC
8
0
62
5
6
CONTINUOUS
10
5.059999
20
1.875000
30
0.000000
40
0.130000
50
0.000000
51
0.000000
0
ARC
8
0
62
5
6
CONTINUOUS
10
5.713833
20
1.507579
30
0.000000
40
0.249999
50
150.666200
51
216.000900
0
ARC
8
0
62
5
6
CONTINUOUS
10
5.793505
20
1.397924
30
0.000000
40
0.250000
50
216.000100
51
326.959900
0
ARC
8
0
62
5
6
CONTINUOUS
10
5.059982
20
1.875003
30
0.000000
40
1.125020
50
326.960200
51
357.040100
0
ARC
8
0
62
5
6
CONTINUOUS
10
5.933832
20
1.829816
30
0.000000
40
0.250002
50
357.041000
51
107.999700
0
ARC
8
0
62
5
6
CONTINUOUS
10
5.804929
20
1.787936
30
0.000000
40
0.249999
50
108.000000
51
173.333400
0
ARC
8
0
62
5
6
CONTINUOUS
10
5.060043
20
1.874992
30
0.000000
40
0.499957
50
330.664600
51
353.334200
0
ARC
8
0
62
5
6
CONTINUOUS
10
5.059999
20
1.875000
30
0.000000
40
1.375000
50
0.000000
51
0.000000
0
ARC
8
0
62
5
6
CONTINUOUS
10
4.832938
20
1.029971
30
0.000000
40
0.250000
50
144.000100
51
254.960100
0
ARC
8
0
62
5
6
CONTINUOUS
10
5.059996
20
1.875012
30
0.000000
40
1.125014
50
254.960200
51
285.040100
0
ARC
8
0
62
5
6
CONTINUOUS
10
5.287057
20
1.029974
30
0.000000
40
0.250002
50
285.040200
51
35.999460
0
ARC
8
0
62
5
6
CONTINUOUS
10
5.207392
20
1.139627
30
0.000000
40
0.249998
50
35.999650
51
101.334100
0
ARC
8
0
62
5
6
CONTINUOUS
10
5.060002
20
1.874962
30
0.000000
40
0.499963
50
258.665300
51
281.334200
0
ARC
8
0
62
5
6
CONTINUOUS
10
4.912607
20
1.139626
30
0.000000
40
0.250000
50
78.665920
51
144.000200
0
ARC
8
0
62
5
6
CONTINUOUS
10
2.187999
20
2.692105
30
0.000000
40
0.250000
50
69.040070
51
180.000300
0
ARC
8
0
62
5
6
CONTINUOUS
10
2.188000
20
2.556569
30
0.000000
40
0.250001
50
180.000500
51
245.333500
0
ARC
8
0
62
5
6
CONTINUOUS
10
1.875015
20
1.875039
30
0.000000
40
0.499961
50
42.664420
51
65.333660
0
ARC
8
0
62
5
6
CONTINUOUS
10
2.426482
20
2.383295
30
0.000000
40
0.249999
50
222.666300
51
288.000800
0
ARC
8
0
62
5
6
CONTINUOUS
10
2.555391
20
2.425179
30
0.000000
40
0.249999
50
288.000200
51
38.960240
0
ARC
8
0
62
5
6
CONTINUOUS
10
1.874993
20
1.874993
30
0.000000
40
1.125011
50
38.959880
51
69.039970
0
ARC
8
0
62
5
6
CONTINUOUS
10
1.194616
20
2.425183
30
0.000000
40
0.250003
50
141.041800
51
251.998900
0
ARC
8
0
62
5
6
CONTINUOUS
10
1.323512
20
2.383296
30
0.000000
40
0.249999
50
252.000300
51
317.334100
0
ARC
8
0
62
5
6
CONTINUOUS
10
1.874985
20
1.875001
30
0.000000
40
0.499992
50
114.664900
51
137.332700
0
ARC
8
0
62
5
6
CONTINUOUS
10
1.562000
20
2.556564
30
0.000000
40
0.250000
50
294.666300
51
0.000370
0
ARC
8
0
62
5
6
CONTINUOUS
10
1.562002
20
2.692106
30
0.000000
40
0.249998
50
0.000229
51
110.960300
0
ARC
8
0
62
5
6
CONTINUOUS
10
1.875003
20
1.874991
30
0.000000
40
1.125010
50
110.959800
51
141.040000
0
ARC
8
0
62
5
6
CONTINUOUS
10
1.001161
20
1.829821
30
0.000000
40
0.249999
50
71.999700
51
182.960300
0
ARC
8
0
62
5
6
CONTINUOUS
10
1.874998
20
1.875006
30
0.000000
40
1.125003
50
182.960100
51
213.040400
0
ARC
8
0
62
5
6
CONTINUOUS
10
1.141496
20
1.397929
30
0.000000
40
0.250002
50
213.040700
51
323.999400
0
ARC
8
0
62
5
6
CONTINUOUS
10
1.221165
20
1.507578
30
0.000000
40
0.249998
50
323.999800
51
29.333730
0
ARC
8
0
62
5
6
CONTINUOUS
10
1.874961
20
1.874981
30
0.000000
40
0.499958
50
186.664800
51
209.334100
0
ARC
8
0
62
5
6
CONTINUOUS
10
1.130071
20
1.787933
30
0.000000
40
0.250001
50
6.666492
51
72.000540
0
LINE
8
0
62
5
6
CONTINUOUS
10
2.304315
20
1.176918
30
0.000000
11
2.224646
21
1.286571
31
0.000000
0
LINE
8
0
62
5
6
CONTINUOUS
10
1.525353
20
1.286571
30
0.000000
11
1.445684
21
1.176917
31
0.000000
0
LINE
8
0
62
5
6
CONTINUOUS
10
2.326584
20
1.360631
30
0.000000
11
2.406252
21
1.250977
31
0.000000
0
LINE
8
0
62
5
6
CONTINUOUS
10
2.671578
20
2.067581
30
0.000000
11
2.542676
21
2.025699
31
0.000000
0
LINE
8
0
62
5
6
CONTINUOUS
10
4.528750
20
1.250979
30
0.000000
11
4.608416
21
1.360632
31
0.000000
0
LINE
8
0
62
5
6
CONTINUOUS
10
4.392323
20
2.025698
30
0.000000
11
4.263416
21
2.067584
31
0.000000
0
LINE
8
0
62
5
6
CONTINUOUS
10
4.302356
20
2.187418
30
0.000000
11
4.431259
21
2.145532
31
0.000000
0
LINE
8
0
62
5
6
CONTINUOUS
10
4.997000
20
2.556566
30
0.000000
11
4.996999
21
2.692107
31
0.000000
0
LINE
8
0
62
5
6
CONTINUOUS
10
5.122999
20
2.692104
30
0.000000
11
5.122999
21
2.556567
31
0.000000
0
LINE
8
0
62
5
6
CONTINUOUS
10
5.688737
20
2.145533
30
0.000000
11
5.817646
21
2.187416
31
0.000000
0
LINE
8
0
62
5
6
CONTINUOUS
10
5.511582
20
1.360630
30
0.000000
11
5.591251
21
1.250977
31
0.000000
0
LINE
8
0
62
5
6
CONTINUOUS
10
5.856579
20
2.067582
30
0.000000
11
5.727675
21
2.025699
31
0.000000
0
LINE
8
0
62
5
6
CONTINUOUS
10
5.489314
20
1.176920
30
0.000000
11
5.409646
21
1.286571
31
0.000000
0
LINE
8
0
62
5
6
CONTINUOUS
10
4.710352
20
1.286572
30
0.000000
11
4.630683
21
1.176917
31
0.000000
0
LINE
8
0
62
5
6
CONTINUOUS
10
1.937999
20
2.692104
30
0.000000
11
1.937999
21
2.556567
31
0.000000
0
LINE
8
0
62
5
6
CONTINUOUS
10
2.503739
20
2.145533
30
0.000000
11
2.632646
21
2.187416
31
0.000000
0
LINE
8
0
62
5
6
CONTINUOUS
10
1.117356
20
2.187418
30
0.000000
11
1.246259
21
2.145532
31
0.000000
0
LINE
8
0
62
5
6
CONTINUOUS
10
1.812000
20
2.556566
30
0.000000
11
1.812000
21
2.692107
31
0.000000
0
LINE
8
0
62
5
6
CONTINUOUS
10
1.343750
20
1.250979
30
0.000000
11
1.423417
21
1.360632
31
0.000000
0
LINE
8
0
62
5
6
CONTINUOUS
10
1.207323
20
2.025699
30
0.000000
11
1.078416
21
2.067584
31
0.000000
0
ENDSEC
0
EOF
